<svg width="149" height="104" viewBox="0 0 149 104" fill="none" xmlns="http://www.w3.org/2000/svg">
<path fill-rule="evenodd" clip-rule="evenodd" d="M3.50453 77.9983L15.7895 70.8849L4.78565 66.9526L1.85767 75.6948L3.50453 77.9983Z" fill="#414042"/>
<path fill-rule="evenodd" clip-rule="evenodd" d="M47.6562 103.163V96.3459L57.1291 91.6776L56.9499 98.1151L47.6562 103.163Z" fill="#414042"/>
<path fill-rule="evenodd" clip-rule="evenodd" d="M0.930908 69.7032L47.6598 96.347L52.2637 93.6208L4.97805 68.1389L0.930908 69.7032Z" fill="#414042"/>
<path fill-rule="evenodd" clip-rule="evenodd" d="M47.6598 96.3396V103.157L27.4256 91.6241V87.708L26.6327 86.4559L4.3525 74.142L3.50918 74.4896V77.9905L0.930908 76.5217V69.6958L47.6598 96.3396Z" fill="#808285"/>
<path fill-rule="evenodd" clip-rule="evenodd" d="M23.4095 53.8395L81.5177 20.8451C86.7385 17.8806 92.6632 17.871 97.8936 20.8183L129.069 38.3862H149V52.7655C149.003 54.7676 148.003 56.4864 146.263 57.4746L67.3302 102.278C64.7198 103.759 61.7499 103.777 59.1417 102.289L2.23726 69.8421C1.43583 69.3851 0.970203 68.5965 0.968018 67.6737V53.8395H23.4093H23.4095Z" fill="#58595B"/>
<path fill-rule="evenodd" clip-rule="evenodd" d="M61.5729 103.207C60.7436 103.031 59.925 102.728 59.1417 102.28L2.23726 69.8329C1.43583 69.3759 0.970203 68.5873 0.968018 67.6645V53.8303H10.2531L61.5729 83.3184V103.207Z" fill="#808285"/>
<path fill-rule="evenodd" clip-rule="evenodd" d="M2.23092 51.7598L81.5177 6.74009C86.7385 3.77561 92.6631 3.76701 97.8936 6.71328L146.248 33.9601C147.992 34.9429 148.997 36.6595 149 38.6605C149.003 40.6626 148.003 42.3825 146.263 43.3696L67.3302 88.1725C64.7198 89.6542 61.7575 89.6585 59.1417 88.1843L2.23726 56.103C1.43372 55.6492 0.970205 54.8573 0.96802 53.9335C0.966927 53.0098 1.42833 52.2158 2.23085 51.7598H2.23092Z" fill="#414042"/>
<path fill-rule="evenodd" clip-rule="evenodd" d="M2.23092 49.7759L81.5177 4.75722C86.7385 1.79274 92.6631 1.78305 97.8936 4.73041L146.248 31.9772C147.992 32.9589 148.997 34.6756 149 36.6776C149.003 38.6786 148.003 40.3985 146.263 41.3856L67.3302 86.1896C64.7198 87.6702 61.7575 87.6756 59.1417 86.2014L2.23726 54.119C1.43372 53.6652 0.970205 52.8734 0.96802 51.9496C0.966927 51.0258 1.42833 50.2329 2.23085 49.7759H2.23092Z" fill="#B1B3B6"/>
<path d="M2.23092 47.7937L81.5177 2.77407C86.7385 -0.190413 92.6631 -0.200104 97.8936 2.74726L146.248 29.994C147.992 30.9768 148.997 32.6934 149 34.6945C149.003 36.6965 148.003 38.4164 146.263 39.4035L67.3302 84.2065C64.7198 85.6882 61.7575 85.6924 59.1417 84.2183L2.23726 52.1369C1.43372 51.6831 0.970205 50.8913 0.96802 49.9674C0.966927 49.0437 1.42833 48.2497 2.23085 47.7937H2.23092Z" fill="url(#paint0_linear)"/>
<path fill-rule="evenodd" clip-rule="evenodd" d="M23.3944 41.3701L28.8642 38.264C31.3673 36.8435 34.1751 36.779 36.7394 38.0838C38.1772 38.8155 39.9882 39.2747 41.9624 39.3262C46.7347 39.4517 50.6712 37.1535 50.7507 34.1901C50.7732 33.3317 50.4695 32.5121 49.9117 31.7771C49.1574 30.7847 48.8988 29.6345 49.1531 28.4146C49.4074 27.1947 50.1048 26.2441 51.1927 25.6358L61.2492 20.0072L105.791 15.501C120.89 22.0114 138.498 35.6546 121.53 47.6155C119.411 49.1091 116.976 49.5253 114.481 48.8226C113.481 48.5404 112.382 48.3709 111.228 48.3398C106.456 48.2143 102.519 50.5124 102.441 53.478C102.43 53.8825 102.492 54.2795 102.619 54.6625C103.25 56.5648 102.469 58.5979 100.725 59.5883L68.5075 77.874C66.2972 79.1293 63.7899 79.1337 61.5754 77.8847L50.402 71.5857C49.1896 70.9022 48.4504 69.7745 48.3076 68.3883C48.166 67.0032 48.6595 65.7489 49.7088 64.8327C50.6595 64.0023 51.2291 62.9862 51.2582 61.8779C51.3354 58.9145 47.5287 56.406 42.7564 56.2804C39.381 56.1914 36.4229 57.3147 34.9541 59.0292C33.6484 60.5517 31.5025 60.9305 29.7558 59.9456L24.0618 56.7353C22.1155 55.6377 21.3849 53.198 22.4074 51.2109C22.6541 50.7302 22.7947 50.2185 22.8076 49.6852C22.8291 48.8752 22.5586 48.0983 22.0587 47.3956C21.3527 46.4032 21.1242 45.2766 21.3881 44.0868C21.651 42.8958 22.3344 41.972 23.3944 41.3701Z" fill="#B1B3B6"/>
<path d="M23.3944 40.016L28.8642 36.91C31.3673 35.4894 34.1751 35.4251 36.7394 36.7297C38.1772 37.4614 39.9882 37.9207 41.9624 37.9733C46.7347 38.0987 50.6712 35.8005 50.7507 32.836C50.7732 31.9778 50.4695 31.1581 49.9117 30.4242C49.1574 29.4317 48.8988 28.2815 49.1531 27.0616C49.4074 25.8406 50.1048 24.8901 51.1927 24.2816L61.2492 18.6531L105.791 14.1479C120.89 20.6574 138.498 34.3017 121.53 46.2615C119.411 47.755 116.976 48.1713 114.481 47.4685C113.481 47.1863 112.382 47.0169 111.228 46.9868C106.456 46.8613 102.519 49.1584 102.441 52.1239C102.43 52.5284 102.492 52.9264 102.619 53.3095C103.25 55.2118 102.469 57.245 100.725 58.2342L68.5075 76.521C66.2972 77.7763 63.7899 77.7806 61.5754 76.5307L50.402 70.2316C49.1896 69.5482 48.4504 68.4205 48.3076 67.0354C48.166 65.6502 48.6595 64.3949 49.7088 63.4786C50.6595 62.6482 51.2291 61.6332 51.2582 60.5249C51.3354 57.5604 47.5287 55.0519 42.7564 54.9264C39.381 54.8373 36.4229 55.9607 34.9541 57.6752C33.6484 59.1988 31.5025 59.5764 29.7558 58.5915L24.0618 55.3813C22.1155 54.2848 21.3849 51.8439 22.4074 49.8579C22.6541 49.3773 22.7947 48.8644 22.8076 48.3312C22.8291 47.5211 22.5586 46.7454 22.0587 46.0426C21.3527 45.0491 21.1242 43.9236 21.3881 42.7326C21.651 41.5417 22.3344 40.618 23.3944 40.016Z" fill="url(#paint1_linear)"/>
<path fill-rule="evenodd" clip-rule="evenodd" d="M14.3975 44.7894C18.2901 44.8936 21.394 46.9364 21.3297 49.3537C21.2653 51.771 18.0573 53.6464 14.1658 53.5435C10.2732 53.4404 7.16932 51.3965 7.23365 48.9792C7.29805 46.5619 10.506 44.6865 14.3975 44.7894Z" fill="#414042"/>
<path fill-rule="evenodd" clip-rule="evenodd" d="M14.3975 44.3262C18.2901 44.4292 21.394 46.4731 21.3297 48.8904C21.2653 51.3066 18.0573 53.1831 14.1658 53.0791C10.2732 52.9761 7.16932 50.9321 7.23365 48.5149C7.29805 46.0987 10.506 44.2232 14.3975 44.3262Z" fill="#808285"/>
<path fill-rule="evenodd" clip-rule="evenodd" d="M41.9396 57.5968C45.8311 57.6998 48.935 59.7437 48.8717 62.161C48.8074 64.5772 45.5993 66.4537 41.7079 66.3497C37.8154 66.2466 34.7114 64.2027 34.7758 61.7854C34.839 59.3692 38.0481 57.4938 41.9396 57.5968Z" fill="#414042"/>
<path fill-rule="evenodd" clip-rule="evenodd" d="M41.9396 57.1334C45.8311 57.2375 48.935 59.2803 48.8717 61.6977C48.8074 64.1149 45.5993 65.9904 41.7079 65.8874C37.8154 65.7844 34.7114 63.7405 34.7758 61.3232C34.839 58.9058 38.0481 57.0304 41.9396 57.1334Z" fill="#808285"/>
<path fill-rule="evenodd" clip-rule="evenodd" d="M42.5328 28.5348C46.4253 28.6378 49.5293 30.6818 49.4649 33.099C49.4005 35.5153 46.1925 37.3918 42.301 37.2887C38.4085 37.1847 35.3045 35.1419 35.3689 32.7246C35.4332 30.3073 38.6413 28.4318 42.5328 28.5348Z" fill="#414042"/>
<path fill-rule="evenodd" clip-rule="evenodd" d="M42.5328 28.0714C46.4253 28.1755 49.5293 30.2184 49.4649 32.6356C49.4005 35.053 46.1925 36.9295 42.301 36.8254C38.4085 36.7224 35.3045 34.6785 35.3689 32.2612C35.4332 29.845 38.6413 27.9685 42.5328 28.0714Z" fill="#808285"/>
<path fill-rule="evenodd" clip-rule="evenodd" d="M82.7711 6.14516C86.6626 6.24818 89.7665 8.29212 89.7032 10.7094C89.6378 13.1256 86.4308 15.0021 82.5383 14.8991C78.6468 14.795 75.5429 12.7522 75.6072 10.3349C75.6705 7.91763 78.8796 6.04214 82.7711 6.14516Z" fill="#414042"/>
<path fill-rule="evenodd" clip-rule="evenodd" d="M82.7711 5.66322C86.6626 5.76733 89.7665 7.81017 89.7032 10.2274C89.6378 12.6448 86.4308 14.5213 82.5383 14.4172C78.6468 14.3142 75.5429 12.2703 75.6072 9.85302C75.6705 7.43678 78.8796 5.56027 82.7711 5.66322Z" fill="#808285"/>
<path fill-rule="evenodd" clip-rule="evenodd" d="M110.829 54.3833C109.514 54.4455 108.415 53.835 108.376 53.0185C108.337 52.201 109.372 51.4885 110.686 51.4253C112.002 51.362 113.1 51.9735 113.139 52.79C113.178 53.6065 112.143 54.32 110.829 54.3833Z" fill="#808285"/>
<path fill-rule="evenodd" clip-rule="evenodd" d="M110.815 54.0575C109.776 54.1079 108.908 53.6252 108.876 52.9792C108.846 52.3344 109.663 51.7701 110.703 51.7208C111.742 51.6714 112.609 52.1542 112.641 52.799C112.671 53.4438 111.854 54.0082 110.815 54.0575Z" fill="#A7A9AC"/>
<path fill-rule="evenodd" clip-rule="evenodd" d="M110.814 53.8919C109.775 53.9412 108.908 53.4584 108.876 52.8136C108.845 52.1677 109.663 51.6044 110.701 51.554C111.741 51.5046 112.609 51.9874 112.64 52.6322C112.671 53.2782 111.854 53.8414 110.814 53.8919Z" fill="#D1D3D4"/>
<path d="M111.483 53.3158L111.337 53.2729L109.89 52.3448C109.764 52.2632 109.727 52.0969 109.808 51.9703C109.889 51.8459 110.056 51.8094 110.181 51.8898L111.629 52.8179C111.755 52.8995 111.791 53.0658 111.711 53.1923L111.483 53.3158Z" fill="#6D6E71"/>
<path d="M109.999 53.2675L109.761 53.1269C109.69 52.9961 109.738 52.8319 109.869 52.76L111.377 51.936C111.51 51.8641 111.675 51.9124 111.744 52.0444C111.816 52.1753 111.769 52.3394 111.637 52.4113L110.128 53.2353L109.999 53.2675Z" fill="#6D6E71"/>
<path fill-rule="evenodd" clip-rule="evenodd" d="M63.9923 82.9078C62.6759 82.9701 61.5783 82.3596 61.5397 81.5431C61.5 80.7255 62.5343 80.0131 63.8497 79.9498C65.1651 79.8865 66.2627 80.4981 66.3024 81.3146C66.341 82.1311 65.3068 82.8446 63.9923 82.9078Z" fill="#808285"/>
<path fill-rule="evenodd" clip-rule="evenodd" d="M63.9601 82.6008C62.9205 82.6512 62.0525 82.1684 62.0214 81.5225C61.9903 80.8777 62.8078 80.3133 63.8475 80.264C64.8871 80.2136 65.7541 80.6974 65.7852 81.3423C65.8163 81.9871 64.9987 82.5514 63.9601 82.6008Z" fill="#A7A9AC"/>
<path fill-rule="evenodd" clip-rule="evenodd" d="M63.959 82.435C62.9194 82.4843 62.0525 82.0015 62.0214 81.3567C61.9903 80.7108 62.8078 80.1475 63.8464 80.0971C64.886 80.0478 65.7541 80.5305 65.7852 81.1754C65.8163 81.8213 64.9987 82.3845 63.959 82.435Z" fill="#D1D3D4"/>
<path d="M64.6287 81.8594L64.4828 81.8165L63.0355 80.8873C62.9088 80.8069 62.8724 80.6394 62.9528 80.5139C63.0344 80.3884 63.2018 80.353 63.3262 80.4324L64.7746 81.3615C64.9002 81.442 64.9366 81.6094 64.8562 81.7349L64.6287 81.8594Z" fill="#6D6E71"/>
<path d="M63.162 81.8116L62.9249 81.67C62.8531 81.5391 62.9013 81.375 63.0322 81.3041L64.5407 80.4791C64.6738 80.4072 64.8357 80.4555 64.9076 80.5874C64.9796 80.7183 64.9313 80.8814 64.8003 80.9533L63.2919 81.7784L63.162 81.8116Z" fill="#6D6E71"/>
<path fill-rule="evenodd" clip-rule="evenodd" d="M133.052 28.5463C131.736 28.6096 130.637 27.9979 130.599 27.1815C130.56 26.365 131.595 25.6515 132.909 25.5883C134.224 25.5249 135.323 26.1364 135.362 26.9529C135.401 27.7705 134.366 28.4829 133.052 28.5463Z" fill="#808285"/>
<path fill-rule="evenodd" clip-rule="evenodd" d="M133.038 28.2402C131.998 28.2895 131.131 27.8078 131.099 27.1619C131.069 26.516 131.887 25.9528 132.925 25.9023C133.965 25.8529 134.833 26.3358 134.864 26.9816C134.895 27.6265 134.077 28.1898 133.038 28.2402Z" fill="#A7A9AC"/>
<path fill-rule="evenodd" clip-rule="evenodd" d="M133.037 28.0549C131.998 28.1053 131.13 27.6225 131.099 26.9766C131.068 26.3307 131.887 25.7674 132.925 25.717C133.965 25.6676 134.833 26.1505 134.863 26.7963C134.894 27.4422 134.077 28.0056 133.037 28.0549Z" fill="#D1D3D4"/>
<path d="M133.706 27.4983L133.56 27.4543L132.112 26.5262C131.987 26.4458 131.95 26.2783 132.031 26.1528C132.111 26.0273 132.28 25.9908 132.404 26.0713L133.852 27.0004C133.977 27.0809 134.014 27.2483 133.933 27.3738L133.706 27.4983Z" fill="#6D6E71"/>
<path d="M132.24 27.4494L132.003 27.3088C131.931 27.1779 131.979 27.0138 132.11 26.9419L133.62 26.1169C133.753 26.046 133.916 26.0943 133.987 26.2252C134.058 26.356 134.01 26.5203 133.879 26.5921L132.37 27.4161L132.24 27.4494Z" fill="#6D6E71"/>
<path fill-rule="evenodd" clip-rule="evenodd" d="M38.0719 44.3045L63.749 29.8555C64.8026 29.2633 65.8102 28.9457 67.0118 28.8277L94.9935 26.0735C96.7499 25.9008 98.3045 26.2237 99.8474 27.081L113.962 34.9251C114.883 35.4368 115.41 36.3478 115.411 37.4013C115.413 38.456 114.887 39.3627 113.969 39.8831L72.3753 63.4926C70.9999 64.2727 69.4387 64.2759 68.0611 63.4991L38.0751 46.592C37.6514 46.3538 37.4078 45.9365 37.4067 45.4494C37.4056 44.9633 37.647 44.5427 38.0719 44.3045Z" fill="#E6E7E8"/>
<path fill-rule="evenodd" clip-rule="evenodd" d="M44.5405 40.6708L79.1175 59.6722L72.3753 63.4992C70.9999 64.2793 69.4387 64.2825 68.0611 63.5057L38.0751 46.5987C37.6514 46.3605 37.4078 45.9432 37.4067 45.456C37.4056 44.97 37.647 44.5494 38.0719 44.3112L44.5405 40.6708Z" fill="#90C440"/>
<path fill-rule="evenodd" clip-rule="evenodd" d="M108.687 42.8894L80.6661 27.4854L95.0057 26.0735C96.7621 25.9008 98.3167 26.2237 99.8596 27.081L113.974 34.9251C114.896 35.4368 115.422 36.3478 115.423 37.4013C115.426 38.456 114.899 39.3627 113.981 39.8831L108.687 42.8894Z" fill="#90C440"/>
<path fill-rule="evenodd" clip-rule="evenodd" d="M46.7982 96.4461V101.628L36.202 95.6403V90.4915L46.7982 96.4461Z" fill="#414042"/>
<path d="M39.9635 96.0701V96.7224L39.691 96.8834C39.5579 96.9617 39.3851 96.9177 39.3068 96.7846C39.2275 96.6516 39.2725 96.4789 39.4056 96.3994L39.9635 96.0701ZM39.9635 93.2129V93.8642L37.1438 95.5271C37.0108 95.6065 36.8392 95.5625 36.7597 95.4284C36.6814 95.2954 36.7254 95.1227 36.8585 95.0443L39.9635 93.2129ZM39.9635 93.8642V93.2129L40.2382 93.0509C40.3712 92.9725 40.5429 93.0165 40.6223 93.1496C40.7006 93.2826 40.6566 93.4554 40.5235 93.5337L39.9635 93.8642ZM42.5106 97.4262V98.0775L42.237 98.2384C42.104 98.3168 41.9323 98.2727 41.8529 98.1397C41.7746 98.0067 41.8186 97.8339 41.9516 97.7556L42.5106 97.4262ZM42.5106 94.568V95.2203L39.9635 96.7224V96.0701L42.5106 94.568ZM42.5106 95.2203V94.568L42.7842 94.407C42.9172 94.3276 43.0899 94.3727 43.1683 94.5057C43.2477 94.6388 43.2026 94.8104 43.0696 94.8898L42.5106 95.2203ZM45.0566 95.9241V96.5754L42.5106 98.0775V97.4262L45.0566 95.9241ZM44.7842 99.5946C44.651 99.6729 44.4783 99.6289 44.4 99.4959C44.3217 99.3628 44.3657 99.1901 44.4987 99.1107L45.0566 98.7813V99.4337L44.7842 99.5946ZM45.0566 96.5754V95.9241L45.3312 95.7621C45.4644 95.6838 45.6371 95.7278 45.7154 95.8608C45.7948 95.9939 45.7497 96.1666 45.6167 96.2449L45.0566 96.5754ZM45.0566 98.7813L46.7819 97.7642V98.4155L45.0566 99.4337V98.7813Z" fill="#81806F"/>
<path d="M43.6412 94.6732L44.2065 94.9919L42.5157 95.9886C42.3826 96.068 42.2099 96.0241 42.1316 95.8909C42.0532 95.7579 42.0972 95.5852 42.2303 95.5058L43.6412 94.6732ZM41.1637 93.2773L41.7281 93.596L39.9685 94.6335C39.8355 94.7118 39.6638 94.6678 39.5844 94.5348C39.5061 94.4017 39.5501 94.229 39.6831 94.1507L41.1637 93.2773ZM38.6843 91.8815L39.2497 92.2001L37.4225 93.2784C37.2895 93.3567 37.1167 93.3127 37.0384 93.1797C36.959 93.0467 37.003 92.8739 37.1371 92.7945L38.6843 91.8815ZM45.0628 97.3447C44.9297 97.4231 44.757 97.3791 44.6776 97.246C44.5992 97.1131 44.6432 96.9402 44.7763 96.8619L46.1196 96.0691L46.685 96.3878L45.0628 97.3447Z" fill="#81806F"/>
<path fill-rule="evenodd" clip-rule="evenodd" d="M35.4504 90.1192V95.3014L29.4926 91.9345V86.7845L35.4504 90.1192Z" fill="#414042"/>
<defs>
<linearGradient id="paint0_linear" x1="103.205" y1="-23.8455" x2="47.257" y2="107.96" gradientUnits="userSpaceOnUse">
<stop stop-color="#D1D3D4"/>
<stop offset="0.7" stop-color="#E5E6E7"/>
<stop offset="0.8" stop-color="#F9F9F9"/>
<stop offset="1" stop-color="white"/>
</linearGradient>
<linearGradient id="paint1_linear" x1="49.6327" y1="94.3446" x2="94.7207" y2="-2.34697" gradientUnits="userSpaceOnUse">
<stop stop-color="white"/>
<stop offset="0.1" stop-color="white"/>
<stop offset="1" stop-color="#BCBDBF"/>
</linearGradient>
</defs>
</svg>
