<svg width="119" height="152" viewBox="0 0 119 152" fill="none" xmlns="http://www.w3.org/2000/svg">
<path fill-rule="evenodd" clip-rule="evenodd" d="M112.112 151.018L0.950684 102.806V98.5585L9.42953 95.6537L118.997 140.794L112.112 151.018H112.112Z" fill="#3C3C3C"/>
<path fill-rule="evenodd" clip-rule="evenodd" d="M112.112 146.767L0.950684 98.5556L9.74769 93.6414L118.998 140.791L112.112 146.767H112.112Z" fill="#5D5D5D"/>
<path fill-rule="evenodd" clip-rule="evenodd" d="M112.115 146.774V151.022L119 144.727V140.798L112.115 146.774Z" fill="#878787"/>
<path fill-rule="evenodd" clip-rule="evenodd" d="M72.599 110.532L44.3877 98.2961V114.79L72.599 127.026L76.0755 122.191L72.599 110.532Z" fill="#3C3C3C"/>
<path fill-rule="evenodd" clip-rule="evenodd" d="M72.6005 110.53L76.0769 108.744V125.238L72.6005 127.024V110.53Z" fill="#878787"/>
<path fill-rule="evenodd" clip-rule="evenodd" d="M114.883 48.3955L5.45034 0.933777L0.950684 2.58947V84.7988L112.112 133.01L114.883 130.649V48.3949L114.883 48.3955Z" fill="#212121"/>
<path fill-rule="evenodd" clip-rule="evenodd" d="M114.886 130.649L112.115 133.01V50.8007L114.886 48.3954V130.649V130.649Z" fill="#878787"/>
<path fill-rule="evenodd" clip-rule="evenodd" d="M112.112 50.8008L0.950684 2.58947L5.45034 0.933777L114.883 48.3955L112.112 50.8008H112.112Z" fill="#5D5D5D"/>
<path d="M57.9082 36.7739C58.6735 36.7739 59.2939 35.7535 59.2939 34.4948C59.2939 33.2361 58.6735 32.2158 57.9082 32.2158C57.1429 32.2158 56.5225 33.2361 56.5225 34.4948C56.5225 35.7535 57.1429 36.7739 57.9082 36.7739Z" fill="#323232"/>
<path d="M57.9215 36.2565C58.5146 36.2565 58.9954 35.4657 58.9954 34.4902C58.9954 33.5147 58.5146 32.7239 57.9215 32.7239C57.3284 32.7239 56.8477 33.5147 56.8477 34.4902C56.8477 35.4657 57.3284 36.2565 57.9215 36.2565Z" fill="black"/>
</svg>
