<svg width="180" height="180" viewBox="0 0 180 180" fill="none" xmlns="http://www.w3.org/2000/svg">
<rect width="180" height="180" rx="20" fill="#008E86"/>
<path fill-rule="evenodd" clip-rule="evenodd" d="M73.068 67.883L50.4761 42.1703L49.1721 54.7266L50.4761 70.5543L55.8213 80.5724L73.068 67.883ZM106.377 67.883L128.968 42.1703L130.272 54.7266L128.968 70.5543L123.623 80.5724L106.377 67.883Z" fill="#E6C786"/>
<path fill-rule="evenodd" clip-rule="evenodd" d="M89.7203 60.9659L102.45 62.905L115.202 70.9187L123.621 80.6116L128.966 95.625L89.7203 105.118L50.4741 95.625L55.8194 80.6116L64.2389 70.9187L76.991 62.905L89.7203 60.9659Z" fill="#E55636"/>
<path fill-rule="evenodd" clip-rule="evenodd" d="M76.991 62.8658L67.405 53.1604L50.4741 42.1703L56.3029 55.9719L58.0443 67.7103L61.1182 79.4784L70.0973 75.3205L76.0189 68.3122L76.991 62.8658ZM102.45 62.8658L112.036 53.1604L128.966 42.1703L123.138 55.9719L121.397 67.7103L118.323 79.4784L109.344 75.3205L103.422 68.3122L102.45 62.8658Z" fill="#99250C"/>
<path fill-rule="evenodd" clip-rule="evenodd" d="M68.6231 121.72L50.1014 116.729L24.3914 115.942L38.2975 102.515L50.4705 95.5437L71.9748 100.157L81.4005 94.4595L89.7167 91.9568L98.0331 94.4595L107.459 100.157L128.963 95.5437L141.136 102.515L155.042 115.942L129.332 116.729L110.811 121.72L89.7167 130.3L68.6231 121.72Z" fill="#E9D6B6"/>
<path fill-rule="evenodd" clip-rule="evenodd" d="M81.032 134.497L75.7064 127.98L65.8891 122.827L45.2133 117.668L24.3914 115.964L44.7356 113.549L68.532 116.969L82.7211 124.725L89.7167 125.862L96.7122 124.725L110.901 116.969L134.698 113.549L155.042 115.964L134.22 117.668L113.545 122.827L103.727 127.98L98.4014 134.497L89.7167 137L81.032 134.497Z" fill="#E6C786"/>
<path fill-rule="evenodd" clip-rule="evenodd" d="M89.7147 101.69L96.1276 101.807L100.964 103.982L103.266 107.668L101.025 112.73L95.6665 113.514L89.7147 111.993L83.7629 113.514L78.4051 112.73L76.1633 107.668L78.4657 103.982L83.3019 101.807L89.7147 101.69Z" fill="black"/>
</svg>
