<svg width="160" height="105" viewBox="0 0 160 105" fill="none" xmlns="http://www.w3.org/2000/svg">
<path fill-rule="evenodd" clip-rule="evenodd" d="M159.22 24.3182C159.22 18.5922 154.531 13.9505 148.747 13.9505C130.439 13.9505 101.658 13.9505 88.5207 13.9505C85.8392 13.9504 83.2599 12.932 81.3143 11.1053C76.9544 7.01868 65.9488 0 41.8916 0C7.97493 0 0 13.9505 0 13.9505C0 13.9505 0.00020108 20.7144 0.00030162 26.9667C0.00040216 32.6928 4.68928 37.3346 10.4732 37.3346C22.8812 37.3346 41.8913 37.3346 41.8913 37.3346L46.5001 41.4728H62.4206L67.0263 37.3346C67.0263 37.3346 122.997 37.3346 148.747 37.3346C151.525 37.3346 154.189 36.2422 156.153 34.2977C158.117 32.3532 159.22 29.7158 159.22 26.966C159.22 26.0867 159.22 25.1974 159.22 24.3182Z" fill="#FC79FF"/>
<path fill-rule="evenodd" clip-rule="evenodd" d="M159.22 25.4395H156.707V25.8785C156.707 28.2592 155.751 30.5423 154.051 32.2257C152.351 33.9092 150.044 34.8548 147.64 34.8548H65.9852L61.3794 38.9929H47.5413L42.9325 34.8548C42.9325 34.8548 23.4971 34.8548 11.5805 34.8548C9.17578 34.8548 6.86959 33.9092 5.16916 32.2257C3.46883 30.5423 2.5135 28.2592 2.5135 25.8785V25.4395H0V26.9827C0 29.7325 1.10343 32.3697 3.06747 34.3142C5.03152 36.2586 7.69533 37.3509 10.4729 37.3509C22.8811 37.3509 41.8913 37.3509 41.8913 37.3509L46.5001 41.489H62.4206L67.0263 37.3509H148.747C154.531 37.3509 159.22 32.7091 159.22 26.9829C159.22 26.0449 159.22 25.4395 159.22 25.4395Z" fill="#CD5ACF"/>
<path fill-rule="evenodd" clip-rule="evenodd" d="M0 25.4232H2.5135V15.1985C2.5135 15.1985 9.36419 2.49603 41.8819 2.49603C63.9643 2.49603 75.0076 8.96538 79.6736 12.8874C81.9226 14.7793 84.7717 15.8281 87.7227 15.8506C101.426 15.9617 130.331 16.2455 147.64 16.3774C152.659 16.4156 156.707 20.4541 156.707 25.4224V25.4232H159.22V24.3187C159.22 18.5925 154.531 13.9505 148.747 13.9505C130.442 13.9505 101.671 13.9505 88.5276 13.9505C85.8436 13.9504 83.2621 12.9301 81.3159 11.1003C76.9616 7.01301 65.967 0 41.8916 0C7.93562 0 0.00030162 13.9505 0.00030162 13.9505L0 25.4232Z" fill="#FDACFF"/>
<path d="M13.8511 22.951C13.4138 22.951 13.0058 22.879 12.6271 22.735C12.2538 22.591 11.9284 22.3883 11.6511 22.127C11.3791 21.8656 11.1658 21.559 11.0111 21.207C10.8618 20.855 10.7871 20.471 10.7871 20.055C10.7871 19.639 10.8618 19.255 11.0111 18.903C11.1658 18.551 11.3818 18.2443 11.6591 17.983C11.9364 17.7216 12.2618 17.519 12.6351 17.375C13.0084 17.231 13.4138 17.159 13.8511 17.159C14.2938 17.159 14.6991 17.231 15.0671 17.375C15.4404 17.519 15.7631 17.7216 16.0351 17.983C16.3124 18.239 16.5284 18.543 16.6831 18.895C16.8378 19.247 16.9151 19.6336 16.9151 20.055C16.9151 20.471 16.8378 20.8576 16.6831 21.215C16.5284 21.567 16.3124 21.8736 16.0351 22.135C15.7631 22.391 15.4404 22.591 15.0671 22.735C14.6991 22.879 14.2938 22.951 13.8511 22.951ZM15.6831 24.143C15.4644 24.143 15.2564 24.119 15.0591 24.071C14.8671 24.023 14.6751 23.9456 14.4831 23.839C14.2964 23.7323 14.0991 23.5883 13.8911 23.407C13.6884 23.2256 13.4671 23.0016 13.2271 22.735L14.5871 22.391C14.7311 22.5883 14.8644 22.7456 14.9871 22.863C15.1098 22.9803 15.2271 23.063 15.3391 23.111C15.4564 23.159 15.5791 23.183 15.7071 23.183C16.0484 23.183 16.3524 23.0443 16.6191 22.767L17.1951 23.455C16.8164 23.9136 16.3124 24.143 15.6831 24.143ZM13.8511 21.847C14.1018 21.847 14.3311 21.8043 14.5391 21.719C14.7524 21.6336 14.9391 21.511 15.0991 21.351C15.2591 21.191 15.3818 21.0016 15.4671 20.783C15.5578 20.559 15.6031 20.3163 15.6031 20.055C15.6031 19.7883 15.5578 19.5456 15.4671 19.327C15.3818 19.1083 15.2591 18.919 15.0991 18.759C14.9391 18.599 14.7524 18.4763 14.5391 18.391C14.3311 18.3056 14.1018 18.263 13.8511 18.263C13.6004 18.263 13.3684 18.3056 13.1551 18.391C12.9418 18.4763 12.7551 18.599 12.5951 18.759C12.4404 18.919 12.3178 19.1083 12.2271 19.327C12.1418 19.5456 12.0991 19.7883 12.0991 20.055C12.0991 20.3163 12.1418 20.559 12.2271 20.783C12.3178 21.0016 12.4404 21.191 12.5951 21.351C12.7551 21.511 12.9418 21.6336 13.1551 21.719C13.3684 21.8043 13.6004 21.847 13.8511 21.847ZM19.6171 22.919C19.2598 22.919 18.9398 22.8496 18.6571 22.711C18.3798 22.5723 18.1638 22.3616 18.0091 22.079C17.8544 21.791 17.7771 21.4256 17.7771 20.983V18.551H19.0251V20.799C19.0251 21.1563 19.0998 21.4203 19.2491 21.591C19.4038 21.7563 19.6198 21.839 19.8971 21.839C20.0891 21.839 20.2598 21.799 20.4091 21.719C20.5584 21.6336 20.6758 21.5056 20.7611 21.335C20.8464 21.159 20.8891 20.9403 20.8891 20.679V18.551H22.1371V22.855H20.9531V21.671L21.1691 22.015C21.0251 22.3136 20.8118 22.5403 20.5291 22.695C20.2518 22.8443 19.9478 22.919 19.6171 22.919ZM25.9333 22.855V22.015L25.8533 21.831V20.327C25.8533 20.0603 25.7706 19.8523 25.6053 19.703C25.4453 19.5536 25.1973 19.479 24.8613 19.479C24.632 19.479 24.4053 19.5163 24.1813 19.591C23.9626 19.6603 23.776 19.7563 23.6213 19.879L23.1733 19.007C23.408 18.8416 23.6906 18.7136 24.0213 18.623C24.352 18.5323 24.688 18.487 25.0293 18.487C25.6853 18.487 26.1946 18.6416 26.5573 18.951C26.92 19.2603 27.1013 19.743 27.1013 20.399V22.855H25.9333ZM24.6213 22.919C24.2853 22.919 23.9973 22.863 23.7573 22.751C23.5173 22.6336 23.3333 22.4763 23.2053 22.279C23.0773 22.0816 23.0133 21.8603 23.0133 21.615C23.0133 21.359 23.0746 21.135 23.1973 20.943C23.3253 20.751 23.5253 20.6016 23.7973 20.495C24.0693 20.383 24.424 20.327 24.8613 20.327H26.0053V21.055H24.9973C24.704 21.055 24.5013 21.103 24.3893 21.199C24.2826 21.295 24.2293 21.415 24.2293 21.559C24.2293 21.719 24.2906 21.847 24.4133 21.943C24.5413 22.0336 24.7146 22.079 24.9333 22.079C25.1413 22.079 25.328 22.031 25.4933 21.935C25.6586 21.8336 25.7786 21.687 25.8533 21.495L26.0453 22.071C25.9546 22.3483 25.7893 22.559 25.5493 22.703C25.3093 22.847 25 22.919 24.6213 22.919ZM30.8468 18.487C31.1881 18.487 31.4921 18.5563 31.7588 18.695C32.0308 18.8283 32.2441 19.0363 32.3988 19.319C32.5535 19.5963 32.6308 19.9536 32.6308 20.391V22.855H31.3828V20.583C31.3828 20.2363 31.3055 19.9803 31.1508 19.815C31.0015 19.6496 30.7881 19.567 30.5108 19.567C30.3135 19.567 30.1348 19.6096 29.9748 19.695C29.8201 19.775 29.6975 19.9003 29.6068 20.071C29.5215 20.2416 29.4788 20.4603 29.4788 20.727V22.855H28.2308V18.551H29.4228V19.743L29.1988 19.383C29.3535 19.095 29.5748 18.8736 29.8628 18.719C30.1508 18.5643 30.4788 18.487 30.8468 18.487ZM35.6413 22.919C35.236 22.919 34.8706 22.8283 34.5453 22.647C34.22 22.4603 33.9613 22.2016 33.7693 21.871C33.5826 21.5403 33.4893 21.151 33.4893 20.703C33.4893 20.2496 33.5826 19.8576 33.7693 19.527C33.9613 19.1963 34.22 18.9403 34.5453 18.759C34.8706 18.5776 35.236 18.487 35.6413 18.487C36.004 18.487 36.3213 18.567 36.5933 18.727C36.8653 18.887 37.076 19.1296 37.2253 19.455C37.3746 19.7803 37.4493 20.1963 37.4493 20.703C37.4493 21.2043 37.3773 21.6203 37.2333 21.951C37.0893 22.2763 36.8813 22.519 36.6093 22.679C36.3426 22.839 36.02 22.919 35.6413 22.919ZM35.8573 21.895C36.06 21.895 36.244 21.847 36.4093 21.751C36.5746 21.655 36.7053 21.519 36.8013 21.343C36.9026 21.1616 36.9533 20.9483 36.9533 20.703C36.9533 20.4523 36.9026 20.239 36.8013 20.063C36.7053 19.887 36.5746 19.751 36.4093 19.655C36.244 19.559 36.06 19.511 35.8573 19.511C35.6493 19.511 35.4626 19.559 35.2973 19.655C35.132 19.751 34.9986 19.887 34.8973 20.063C34.8013 20.239 34.7533 20.4523 34.7533 20.703C34.7533 20.9483 34.8013 21.1616 34.8973 21.343C34.9986 21.519 35.132 21.655 35.2973 21.751C35.4626 21.847 35.6493 21.895 35.8573 21.895ZM36.9853 22.855V21.975L37.0093 20.695L36.9293 19.423V16.919H38.1773V22.855H36.9853ZM41.3803 22.919C40.9217 22.919 40.5137 22.823 40.1563 22.631C39.8043 22.439 39.5243 22.1776 39.3163 21.847C39.1137 21.511 39.0123 21.1296 39.0123 20.703C39.0123 20.271 39.1137 19.8896 39.3163 19.559C39.5243 19.223 39.8043 18.9616 40.1563 18.775C40.5137 18.583 40.9217 18.487 41.3803 18.487C41.8337 18.487 42.239 18.583 42.5963 18.775C42.9537 18.9616 43.2337 19.2203 43.4363 19.551C43.639 19.8816 43.7403 20.2656 43.7403 20.703C43.7403 21.1296 43.639 21.511 43.4363 21.847C43.2337 22.1776 42.9537 22.439 42.5963 22.631C42.239 22.823 41.8337 22.919 41.3803 22.919ZM41.3803 21.895C41.5883 21.895 41.775 21.847 41.9403 21.751C42.1057 21.655 42.2363 21.519 42.3323 21.343C42.4283 21.1616 42.4763 20.9483 42.4763 20.703C42.4763 20.4523 42.4283 20.239 42.3323 20.063C42.2363 19.887 42.1057 19.751 41.9403 19.655C41.775 19.559 41.5883 19.511 41.3803 19.511C41.1723 19.511 40.9857 19.559 40.8203 19.655C40.655 19.751 40.5217 19.887 40.4203 20.063C40.3243 20.239 40.2763 20.4523 40.2763 20.703C40.2763 20.9483 40.3243 21.1616 40.4203 21.343C40.5217 21.519 40.655 21.655 40.8203 21.751C40.9857 21.847 41.1723 21.895 41.3803 21.895ZM45.0465 20.047C44.8332 20.047 44.6492 19.975 44.4945 19.831C44.3452 19.6816 44.2705 19.4923 44.2705 19.263C44.2705 19.0336 44.3452 18.8496 44.4945 18.711C44.6492 18.567 44.8332 18.495 45.0465 18.495C45.2652 18.495 45.4492 18.567 45.5985 18.711C45.7479 18.8496 45.8225 19.0336 45.8225 19.263C45.8225 19.4923 45.7479 19.6816 45.5985 19.831C45.4492 19.975 45.2652 20.047 45.0465 20.047ZM45.0465 22.919C44.8332 22.919 44.6492 22.847 44.4945 22.703C44.3452 22.5536 44.2705 22.3643 44.2705 22.135C44.2705 21.9056 44.3452 21.7216 44.4945 21.583C44.6492 21.439 44.8332 21.367 45.0465 21.367C45.2652 21.367 45.4492 21.439 45.5985 21.583C45.7479 21.7216 45.8225 21.9056 45.8225 22.135C45.8225 22.3643 45.7479 22.5536 45.5985 22.703C45.4492 22.847 45.2652 22.919 45.0465 22.919ZM51.4779 22.919C51.1152 22.919 50.7979 22.839 50.5259 22.679C50.2539 22.519 50.0406 22.2763 49.8859 21.951C49.7366 21.6203 49.6619 21.2043 49.6619 20.703C49.6619 20.1963 49.7339 19.7803 49.8779 19.455C50.0219 19.1296 50.2299 18.887 50.5019 18.727C50.7739 18.567 51.0992 18.487 51.4779 18.487C51.8832 18.487 52.2459 18.5803 52.5659 18.767C52.8912 18.9483 53.1472 19.2043 53.3339 19.535C53.5259 19.8656 53.6219 20.255 53.6219 20.703C53.6219 21.1563 53.5259 21.5483 53.3339 21.879C53.1472 22.2096 52.8912 22.4656 52.5659 22.647C52.2459 22.8283 51.8832 22.919 51.4779 22.919ZM48.9339 24.407V18.551H50.1259V19.431L50.1019 20.711L50.1819 21.983V24.407H48.9339ZM51.2619 21.895C51.4699 21.895 51.6539 21.847 51.8139 21.751C51.9792 21.655 52.1099 21.519 52.2059 21.343C52.3072 21.1616 52.3579 20.9483 52.3579 20.703C52.3579 20.4523 52.3072 20.239 52.2059 20.063C52.1099 19.887 51.9792 19.751 51.8139 19.655C51.6539 19.559 51.4699 19.511 51.2619 19.511C51.0539 19.511 50.8672 19.559 50.7019 19.655C50.5366 19.751 50.4059 19.887 50.3099 20.063C50.2139 20.239 50.1659 20.4523 50.1659 20.703C50.1659 20.9483 50.2139 21.1616 50.3099 21.343C50.4059 21.519 50.5366 21.655 50.7019 21.751C50.8672 21.847 51.0539 21.895 51.2619 21.895ZM54.4573 22.855V18.551H55.6493V19.767L55.4813 19.415C55.6093 19.111 55.8147 18.8816 56.0973 18.727C56.38 18.567 56.724 18.487 57.1293 18.487V19.639C57.076 19.6336 57.028 19.631 56.9853 19.631C56.9427 19.6256 56.8973 19.623 56.8493 19.623C56.508 19.623 56.2307 19.7216 56.0173 19.919C55.8093 20.111 55.7053 20.4123 55.7053 20.823V22.855H54.4573ZM59.9762 22.919C59.4855 22.919 59.0535 22.823 58.6802 22.631C58.3122 22.439 58.0268 22.1776 57.8242 21.847C57.6215 21.511 57.5202 21.1296 57.5202 20.703C57.5202 20.271 57.6188 19.8896 57.8162 19.559C58.0188 19.223 58.2935 18.9616 58.6402 18.775C58.9868 18.583 59.3788 18.487 59.8162 18.487C60.2375 18.487 60.6162 18.5776 60.9522 18.759C61.2935 18.935 61.5628 19.191 61.7602 19.527C61.9575 19.8576 62.0562 20.255 62.0562 20.719C62.0562 20.767 62.0535 20.823 62.0482 20.887C62.0428 20.9456 62.0375 21.0016 62.0322 21.055H58.5362V20.327H61.3762L60.8962 20.543C60.8962 20.319 60.8508 20.1243 60.7602 19.959C60.6695 19.7936 60.5442 19.6656 60.3842 19.575C60.2242 19.479 60.0375 19.431 59.8242 19.431C59.6108 19.431 59.4215 19.479 59.2562 19.575C59.0962 19.6656 58.9708 19.7963 58.8802 19.967C58.7895 20.1323 58.7442 20.3296 58.7442 20.559V20.751C58.7442 20.9856 58.7948 21.1936 58.8962 21.375C59.0028 21.551 59.1495 21.687 59.3362 21.783C59.5282 21.8736 59.7522 21.919 60.0082 21.919C60.2375 21.919 60.4375 21.8843 60.6082 21.815C60.7842 21.7456 60.9442 21.6416 61.0882 21.503L61.7522 22.223C61.5548 22.447 61.3068 22.6203 61.0082 22.743C60.7095 22.8603 60.3655 22.919 59.9762 22.919ZM64.335 22.919C63.967 22.919 63.6124 22.8763 63.271 22.791C62.935 22.7003 62.6684 22.5883 62.471 22.455L62.887 21.559C63.0844 21.6816 63.3164 21.783 63.583 21.863C63.855 21.9376 64.1217 21.975 64.383 21.975C64.671 21.975 64.8737 21.9403 64.991 21.871C65.1137 21.8016 65.175 21.7056 65.175 21.583C65.175 21.4816 65.127 21.407 65.031 21.359C64.9404 21.3056 64.8177 21.2656 64.663 21.239C64.5084 21.2123 64.3377 21.1856 64.151 21.159C63.9697 21.1323 63.7857 21.0976 63.599 21.055C63.4124 21.007 63.2417 20.9376 63.087 20.847C62.9324 20.7563 62.807 20.6336 62.711 20.479C62.6204 20.3243 62.575 20.1243 62.575 19.879C62.575 19.607 62.6524 19.367 62.807 19.159C62.967 18.951 63.1964 18.7883 63.495 18.671C63.7937 18.5483 64.151 18.487 64.567 18.487C64.8604 18.487 65.159 18.519 65.463 18.583C65.767 18.647 66.0204 18.7403 66.223 18.863L65.807 19.751C65.599 19.6283 65.3884 19.5456 65.175 19.503C64.967 19.455 64.7644 19.431 64.567 19.431C64.2897 19.431 64.087 19.4683 63.959 19.543C63.831 19.6176 63.767 19.7136 63.767 19.831C63.767 19.9376 63.8124 20.0176 63.903 20.071C63.999 20.1243 64.1244 20.167 64.279 20.199C64.4337 20.231 64.6017 20.2603 64.783 20.287C64.9697 20.3083 65.1564 20.343 65.343 20.391C65.5297 20.439 65.6977 20.5083 65.847 20.599C66.0017 20.6843 66.127 20.8043 66.223 20.959C66.319 21.1083 66.367 21.3056 66.367 21.551C66.367 21.8176 66.287 22.055 66.127 22.263C65.967 22.4656 65.735 22.6256 65.431 22.743C65.1324 22.8603 64.767 22.919 64.335 22.919ZM68.585 22.919C68.217 22.919 67.8624 22.8763 67.521 22.791C67.185 22.7003 66.9184 22.5883 66.721 22.455L67.137 21.559C67.3344 21.6816 67.5664 21.783 67.833 21.863C68.105 21.9376 68.3717 21.975 68.633 21.975C68.921 21.975 69.1237 21.9403 69.241 21.871C69.3637 21.8016 69.425 21.7056 69.425 21.583C69.425 21.4816 69.377 21.407 69.281 21.359C69.1904 21.3056 69.0677 21.2656 68.913 21.239C68.7584 21.2123 68.5877 21.1856 68.401 21.159C68.2197 21.1323 68.0357 21.0976 67.849 21.055C67.6624 21.007 67.4917 20.9376 67.337 20.847C67.1824 20.7563 67.057 20.6336 66.961 20.479C66.8704 20.3243 66.825 20.1243 66.825 19.879C66.825 19.607 66.9024 19.367 67.057 19.159C67.217 18.951 67.4464 18.7883 67.745 18.671C68.0437 18.5483 68.401 18.487 68.817 18.487C69.1104 18.487 69.409 18.519 69.713 18.583C70.017 18.647 70.2704 18.7403 70.473 18.863L70.057 19.751C69.849 19.6283 69.6384 19.5456 69.425 19.503C69.217 19.455 69.0144 19.431 68.817 19.431C68.5397 19.431 68.337 19.4683 68.209 19.543C68.081 19.6176 68.017 19.7136 68.017 19.831C68.017 19.9376 68.0624 20.0176 68.153 20.071C68.249 20.1243 68.3744 20.167 68.529 20.199C68.6837 20.231 68.8517 20.2603 69.033 20.287C69.2197 20.3083 69.4064 20.343 69.593 20.391C69.7797 20.439 69.9477 20.5083 70.097 20.599C70.2517 20.6843 70.377 20.8043 70.473 20.959C70.569 21.1083 70.617 21.3056 70.617 21.551C70.617 21.8176 70.537 22.055 70.377 22.263C70.217 22.4656 69.985 22.6256 69.681 22.743C69.3824 22.8603 69.017 22.919 68.585 22.919ZM71.387 22.855V18.551H72.635V22.855H71.387ZM72.011 17.951C71.7817 17.951 71.595 17.8843 71.451 17.751C71.307 17.6176 71.235 17.4523 71.235 17.255C71.235 17.0576 71.307 16.8923 71.451 16.759C71.595 16.6256 71.7817 16.559 72.011 16.559C72.2404 16.559 72.427 16.623 72.571 16.751C72.715 16.8736 72.787 17.0336 72.787 17.231C72.787 17.439 72.715 17.6123 72.571 17.751C72.4324 17.8843 72.2457 17.951 72.011 17.951ZM75.8413 22.919C75.3826 22.919 74.9746 22.823 74.6173 22.631C74.2653 22.439 73.9853 22.1776 73.7773 21.847C73.5746 21.511 73.4733 21.1296 73.4733 20.703C73.4733 20.271 73.5746 19.8896 73.7773 19.559C73.9853 19.223 74.2653 18.9616 74.6173 18.775C74.9746 18.583 75.3826 18.487 75.8413 18.487C76.2946 18.487 76.7 18.583 77.0573 18.775C77.4146 18.9616 77.6946 19.2203 77.8973 19.551C78.1 19.8816 78.2013 20.2656 78.2013 20.703C78.2013 21.1296 78.1 21.511 77.8973 21.847C77.6946 22.1776 77.4146 22.439 77.0573 22.631C76.7 22.823 76.2946 22.919 75.8413 22.919ZM75.8413 21.895C76.0493 21.895 76.236 21.847 76.4013 21.751C76.5666 21.655 76.6973 21.519 76.7933 21.343C76.8893 21.1616 76.9373 20.9483 76.9373 20.703C76.9373 20.4523 76.8893 20.239 76.7933 20.063C76.6973 19.887 76.5666 19.751 76.4013 19.655C76.236 19.559 76.0493 19.511 75.8413 19.511C75.6333 19.511 75.4466 19.559 75.2813 19.655C75.116 19.751 74.9826 19.887 74.8813 20.063C74.7853 20.239 74.7373 20.4523 74.7373 20.703C74.7373 20.9483 74.7853 21.1616 74.8813 21.343C74.9826 21.519 75.116 21.655 75.2813 21.751C75.4466 21.847 75.6333 21.895 75.8413 21.895ZM81.6515 18.487C81.9928 18.487 82.2968 18.5563 82.5635 18.695C82.8355 18.8283 83.0488 19.0363 83.2035 19.319C83.3581 19.5963 83.4355 19.9536 83.4355 20.391V22.855H82.1875V20.583C82.1875 20.2363 82.1101 19.9803 81.9555 19.815C81.8061 19.6496 81.5928 19.567 81.3155 19.567C81.1181 19.567 80.9395 19.6096 80.7795 19.695C80.6248 19.775 80.5021 19.9003 80.4115 20.071C80.3261 20.2416 80.2835 20.4603 80.2835 20.727V22.855H79.0355V18.551H80.2275V19.743L80.0035 19.383C80.1581 19.095 80.3795 18.8736 80.6675 18.719C80.9555 18.5643 81.2835 18.487 81.6515 18.487ZM86.734 22.919C86.2433 22.919 85.8113 22.823 85.438 22.631C85.07 22.439 84.7846 22.1776 84.582 21.847C84.3793 21.511 84.278 21.1296 84.278 20.703C84.278 20.271 84.3766 19.8896 84.574 19.559C84.7766 19.223 85.0513 18.9616 85.398 18.775C85.7446 18.583 86.1366 18.487 86.574 18.487C86.9953 18.487 87.374 18.5776 87.71 18.759C88.0513 18.935 88.3206 19.191 88.518 19.527C88.7153 19.8576 88.814 20.255 88.814 20.719C88.814 20.767 88.8113 20.823 88.806 20.887C88.8006 20.9456 88.7953 21.0016 88.79 21.055H85.294V20.327H88.134L87.654 20.543C87.654 20.319 87.6086 20.1243 87.518 19.959C87.4273 19.7936 87.302 19.6656 87.142 19.575C86.982 19.479 86.7953 19.431 86.582 19.431C86.3686 19.431 86.1793 19.479 86.014 19.575C85.854 19.6656 85.7286 19.7963 85.638 19.967C85.5473 20.1323 85.502 20.3296 85.502 20.559V20.751C85.502 20.9856 85.5526 21.1936 85.654 21.375C85.7606 21.551 85.9073 21.687 86.094 21.783C86.286 21.8736 86.51 21.919 86.766 21.919C86.9953 21.919 87.1953 21.8843 87.366 21.815C87.542 21.7456 87.702 21.6416 87.846 21.503L88.51 22.223C88.3126 22.447 88.0646 22.6203 87.766 22.743C87.4673 22.8603 87.1233 22.919 86.734 22.919ZM93.9585 22.919C93.4998 22.919 93.0918 22.823 92.7345 22.631C92.3825 22.439 92.1025 22.1776 91.8945 21.847C91.6918 21.511 91.5905 21.1296 91.5905 20.703C91.5905 20.271 91.6918 19.8896 91.8945 19.559C92.1025 19.223 92.3825 18.9616 92.7345 18.775C93.0918 18.583 93.4998 18.487 93.9585 18.487C94.4118 18.487 94.8171 18.583 95.1745 18.775C95.5318 18.9616 95.8118 19.2203 96.0145 19.551C96.2171 19.8816 96.3185 20.2656 96.3185 20.703C96.3185 21.1296 96.2171 21.511 96.0145 21.847C95.8118 22.1776 95.5318 22.439 95.1745 22.631C94.8171 22.823 94.4118 22.919 93.9585 22.919ZM93.9585 21.895C94.1665 21.895 94.3531 21.847 94.5185 21.751C94.6838 21.655 94.8145 21.519 94.9105 21.343C95.0065 21.1616 95.0545 20.9483 95.0545 20.703C95.0545 20.4523 95.0065 20.239 94.9105 20.063C94.8145 19.887 94.6838 19.751 94.5185 19.655C94.3531 19.559 94.1665 19.511 93.9585 19.511C93.7505 19.511 93.5638 19.559 93.3985 19.655C93.2331 19.751 93.0998 19.887 92.9985 20.063C92.9025 20.239 92.8545 20.4523 92.8545 20.703C92.8545 20.9483 92.9025 21.1616 92.9985 21.343C93.0998 21.519 93.2331 21.655 93.3985 21.751C93.5638 21.847 93.7505 21.895 93.9585 21.895ZM101.962 22.919C101.584 22.919 101.258 22.839 100.986 22.679C100.714 22.519 100.506 22.2763 100.362 21.951C100.218 21.6203 100.146 21.2043 100.146 20.703C100.146 20.1963 100.221 19.7803 100.37 19.455C100.525 19.1296 100.738 18.887 101.01 18.727C101.282 18.567 101.6 18.487 101.962 18.487C102.368 18.487 102.73 18.5776 103.05 18.759C103.376 18.9403 103.632 19.1963 103.818 19.527C104.01 19.8576 104.106 20.2496 104.106 20.703C104.106 21.151 104.01 21.5403 103.818 21.871C103.632 22.2016 103.376 22.4603 103.05 22.647C102.73 22.8283 102.368 22.919 101.962 22.919ZM99.4183 22.855V16.919H100.666V19.423L100.586 20.695L100.61 21.975V22.855H99.4183ZM101.746 21.895C101.954 21.895 102.138 21.847 102.298 21.751C102.464 21.655 102.594 21.519 102.69 21.343C102.792 21.1616 102.842 20.9483 102.842 20.703C102.842 20.4523 102.792 20.239 102.69 20.063C102.594 19.887 102.464 19.751 102.298 19.655C102.138 19.559 101.954 19.511 101.746 19.511C101.538 19.511 101.352 19.559 101.186 19.655C101.021 19.751 100.89 19.887 100.794 20.063C100.698 20.239 100.65 20.4523 100.65 20.703C100.65 20.9483 100.698 21.1616 100.794 21.343C100.89 21.519 101.021 21.655 101.186 21.751C101.352 21.847 101.538 21.895 101.746 21.895ZM106.99 22.919C106.531 22.919 106.123 22.823 105.766 22.631C105.414 22.439 105.134 22.1776 104.926 21.847C104.723 21.511 104.622 21.1296 104.622 20.703C104.622 20.271 104.723 19.8896 104.926 19.559C105.134 19.223 105.414 18.9616 105.766 18.775C106.123 18.583 106.531 18.487 106.99 18.487C107.443 18.487 107.848 18.583 108.206 18.775C108.563 18.9616 108.843 19.2203 109.046 19.551C109.248 19.8816 109.35 20.2656 109.35 20.703C109.35 21.1296 109.248 21.511 109.046 21.847C108.843 22.1776 108.563 22.439 108.206 22.631C107.848 22.823 107.443 22.919 106.99 22.919ZM106.99 21.895C107.198 21.895 107.384 21.847 107.55 21.751C107.715 21.655 107.846 21.519 107.942 21.343C108.038 21.1616 108.086 20.9483 108.086 20.703C108.086 20.4523 108.038 20.239 107.942 20.063C107.846 19.887 107.715 19.751 107.55 19.655C107.384 19.559 107.198 19.511 106.99 19.511C106.782 19.511 106.595 19.559 106.43 19.655C106.264 19.751 106.131 19.887 106.03 20.063C105.934 20.239 105.886 20.4523 105.886 20.703C105.886 20.9483 105.934 21.1616 106.03 21.343C106.131 21.519 106.264 21.655 106.43 21.751C106.595 21.847 106.782 21.895 106.99 21.895ZM111.944 22.919C111.437 22.919 111.043 22.791 110.76 22.535C110.477 22.2736 110.336 21.887 110.336 21.375V17.599H111.584V21.359C111.584 21.5403 111.632 21.6816 111.728 21.783C111.824 21.879 111.955 21.927 112.12 21.927C112.317 21.927 112.485 21.8736 112.624 21.767L112.96 22.647C112.832 22.7376 112.677 22.807 112.496 22.855C112.32 22.8976 112.136 22.919 111.944 22.919ZM109.672 19.607V18.647H112.656V19.607H109.672ZM116.3 22.855V22.015L116.22 21.831V20.327C116.22 20.0603 116.138 19.8523 115.972 19.703C115.812 19.5536 115.564 19.479 115.228 19.479C114.999 19.479 114.772 19.5163 114.548 19.591C114.33 19.6603 114.143 19.7563 113.988 19.879L113.54 19.007C113.775 18.8416 114.058 18.7136 114.388 18.623C114.719 18.5323 115.055 18.487 115.396 18.487C116.052 18.487 116.562 18.6416 116.924 18.951C117.287 19.2603 117.468 19.743 117.468 20.399V22.855H116.3ZM114.988 22.919C114.652 22.919 114.364 22.863 114.124 22.751C113.884 22.6336 113.7 22.4763 113.572 22.279C113.444 22.0816 113.38 21.8603 113.38 21.615C113.38 21.359 113.442 21.135 113.564 20.943C113.692 20.751 113.892 20.6016 114.164 20.495C114.436 20.383 114.791 20.327 115.228 20.327H116.372V21.055H115.364C115.071 21.055 114.868 21.103 114.756 21.199C114.65 21.295 114.596 21.415 114.596 21.559C114.596 21.719 114.658 21.847 114.78 21.943C114.908 22.0336 115.082 22.079 115.3 22.079C115.508 22.079 115.695 22.031 115.86 21.935C116.026 21.8336 116.146 21.687 116.22 21.495L116.412 22.071C116.322 22.3483 116.156 22.559 115.916 22.703C115.676 22.847 115.367 22.919 114.988 22.919ZM116.124 18.023C115.986 18.023 115.863 17.999 115.756 17.951C115.65 17.8976 115.554 17.839 115.468 17.775C115.383 17.7056 115.303 17.647 115.228 17.599C115.154 17.5456 115.079 17.519 115.004 17.519C114.898 17.519 114.81 17.559 114.74 17.639C114.671 17.7136 114.631 17.823 114.62 17.967H113.988C113.999 17.6096 114.087 17.327 114.252 17.119C114.418 16.9056 114.642 16.799 114.924 16.799C115.063 16.799 115.186 16.8256 115.292 16.879C115.399 16.927 115.495 16.9856 115.58 17.055C115.671 17.1243 115.754 17.1856 115.828 17.239C115.903 17.287 115.975 17.311 116.044 17.311C116.156 17.311 116.247 17.2736 116.316 17.199C116.386 17.119 116.423 17.0123 116.428 16.879H117.06C117.055 17.2203 116.967 17.4976 116.796 17.711C116.631 17.919 116.407 18.023 116.124 18.023ZM120.677 22.919C120.219 22.919 119.811 22.823 119.453 22.631C119.101 22.439 118.821 22.1776 118.613 21.847C118.411 21.511 118.309 21.1296 118.309 20.703C118.309 20.271 118.411 19.8896 118.613 19.559C118.821 19.223 119.101 18.9616 119.453 18.775C119.811 18.583 120.219 18.487 120.677 18.487C121.131 18.487 121.536 18.583 121.893 18.775C122.251 18.9616 122.531 19.2203 122.733 19.551C122.936 19.8816 123.037 20.2656 123.037 20.703C123.037 21.1296 122.936 21.511 122.733 21.847C122.531 22.1776 122.251 22.439 121.893 22.631C121.536 22.823 121.131 22.919 120.677 22.919ZM120.677 21.895C120.885 21.895 121.072 21.847 121.237 21.751C121.403 21.655 121.533 21.519 121.629 21.343C121.725 21.1616 121.773 20.9483 121.773 20.703C121.773 20.4523 121.725 20.239 121.629 20.063C121.533 19.887 121.403 19.751 121.237 19.655C121.072 19.559 120.885 19.511 120.677 19.511C120.469 19.511 120.283 19.559 120.117 19.655C119.952 19.751 119.819 19.887 119.717 20.063C119.621 20.239 119.573 20.4523 119.573 20.703C119.573 20.9483 119.621 21.1616 119.717 21.343C119.819 21.519 119.952 21.655 120.117 21.751C120.283 21.847 120.469 21.895 120.677 21.895ZM13.6911 32.855V32.015L13.6111 31.831V30.327C13.6111 30.0603 13.5284 29.8523 13.3631 29.703C13.2031 29.5536 12.9551 29.479 12.6191 29.479C12.3898 29.479 12.1631 29.5163 11.9391 29.591C11.7204 29.6603 11.5338 29.7563 11.3791 29.879L10.9311 29.007C11.1658 28.8416 11.4484 28.7136 11.7791 28.623C12.1098 28.5323 12.4458 28.487 12.7871 28.487C13.4431 28.487 13.9524 28.6416 14.3151 28.951C14.6778 29.2603 14.8591 29.743 14.8591 30.399V32.855H13.6911ZM12.3791 32.919C12.0431 32.919 11.7551 32.863 11.5151 32.751C11.2751 32.6336 11.0911 32.4763 10.9631 32.279C10.8351 32.0816 10.7711 31.8603 10.7711 31.615C10.7711 31.359 10.8324 31.135 10.9551 30.943C11.0831 30.751 11.2831 30.6016 11.5551 30.495C11.8271 30.383 12.1818 30.327 12.6191 30.327H13.7631V31.055H12.7551C12.4618 31.055 12.2591 31.103 12.1471 31.199C12.0404 31.295 11.9871 31.415 11.9871 31.559C11.9871 31.719 12.0484 31.847 12.1711 31.943C12.2991 32.0336 12.4724 32.079 12.6911 32.079C12.8991 32.079 13.0858 32.031 13.2511 31.935C13.4164 31.8336 13.5364 31.687 13.6111 31.495L13.8031 32.071C13.7124 32.3483 13.5471 32.559 13.3071 32.703C13.0671 32.847 12.7578 32.919 12.3791 32.919ZM18.6046 28.487C18.9459 28.487 19.2499 28.5563 19.5166 28.695C19.7886 28.8283 20.0019 29.0363 20.1566 29.319C20.3113 29.5963 20.3886 29.9536 20.3886 30.391V32.855H19.1406V30.583C19.1406 30.2363 19.0633 29.9803 18.9086 29.815C18.7593 29.6496 18.5459 29.567 18.2686 29.567C18.0713 29.567 17.8926 29.6096 17.7326 29.695C17.5779 29.775 17.4553 29.9003 17.3646 30.071C17.2793 30.2416 17.2366 30.4603 17.2366 30.727V32.855H15.9886V28.551H17.1806V29.743L16.9566 29.383C17.1113 29.095 17.3326 28.8736 17.6206 28.719C17.9086 28.5643 18.2366 28.487 18.6046 28.487ZM21.5198 32.855V28.551H22.7678V32.855H21.5198ZM22.1438 27.951C21.9145 27.951 21.7278 27.8843 21.5838 27.751C21.4398 27.6176 21.3678 27.4523 21.3678 27.255C21.3678 27.0576 21.4398 26.8923 21.5838 26.759C21.7278 26.6256 21.9145 26.559 22.1438 26.559C22.3732 26.559 22.5598 26.623 22.7038 26.751C22.8478 26.8736 22.9198 27.0336 22.9198 27.231C22.9198 27.439 22.8478 27.6123 22.7038 27.751C22.5652 27.8843 22.3785 27.951 22.1438 27.951ZM29.4381 28.487C29.7794 28.487 30.0808 28.5563 30.3421 28.695C30.6088 28.8283 30.8168 29.0363 30.9661 29.319C31.1208 29.5963 31.1981 29.9536 31.1981 30.391V32.855H29.9501V30.583C29.9501 30.2363 29.8781 29.9803 29.7341 29.815C29.5901 29.6496 29.3874 29.567 29.1261 29.567C28.9448 29.567 28.7821 29.6096 28.6381 29.695C28.4941 29.775 28.3821 29.8976 28.3021 30.063C28.2221 30.2283 28.1821 30.439 28.1821 30.695V32.855H26.9341V30.583C26.9341 30.2363 26.8621 29.9803 26.7181 29.815C26.5794 29.6496 26.3794 29.567 26.1181 29.567C25.9368 29.567 25.7741 29.6096 25.6301 29.695C25.4861 29.775 25.3741 29.8976 25.2941 30.063C25.2141 30.2283 25.1741 30.439 25.1741 30.695V32.855H23.9261V28.551H25.1181V29.727L24.8941 29.383C25.0434 29.0896 25.2541 28.8683 25.5261 28.719C25.8034 28.5643 26.1181 28.487 26.4701 28.487C26.8648 28.487 27.2088 28.5883 27.5021 28.791C27.8008 28.9883 27.9981 29.2923 28.0941 29.703L27.6541 29.583C27.7981 29.247 28.0274 28.9803 28.3421 28.783C28.6621 28.5856 29.0274 28.487 29.4381 28.487ZM34.9567 32.855V32.015L34.8767 31.831V30.327C34.8767 30.0603 34.7941 29.8523 34.6287 29.703C34.4687 29.5536 34.2207 29.479 33.8847 29.479C33.6554 29.479 33.4287 29.5163 33.2047 29.591C32.9861 29.6603 32.7994 29.7563 32.6447 29.879L32.1967 29.007C32.4314 28.8416 32.7141 28.7136 33.0447 28.623C33.3754 28.5323 33.7114 28.487 34.0527 28.487C34.7087 28.487 35.2181 28.6416 35.5807 28.951C35.9434 29.2603 36.1247 29.743 36.1247 30.399V32.855H34.9567ZM33.6447 32.919C33.3087 32.919 33.0207 32.863 32.7807 32.751C32.5407 32.6336 32.3567 32.4763 32.2287 32.279C32.1007 32.0816 32.0367 31.8603 32.0367 31.615C32.0367 31.359 32.0981 31.135 32.2207 30.943C32.3487 30.751 32.5487 30.6016 32.8207 30.495C33.0927 30.383 33.4474 30.327 33.8847 30.327H35.0287V31.055H34.0207C33.7274 31.055 33.5247 31.103 33.4127 31.199C33.3061 31.295 33.2527 31.415 33.2527 31.559C33.2527 31.719 33.3141 31.847 33.4367 31.943C33.5647 32.0336 33.7381 32.079 33.9567 32.079C34.1647 32.079 34.3514 32.031 34.5167 31.935C34.6821 31.8336 34.8021 31.687 34.8767 31.495L35.0687 32.071C34.9781 32.3483 34.8127 32.559 34.5727 32.703C34.3327 32.847 34.0234 32.919 33.6447 32.919ZM37.2542 32.855V28.551H38.4462V29.767L38.2782 29.415C38.4062 29.111 38.6116 28.8816 38.8942 28.727C39.1769 28.567 39.5209 28.487 39.9262 28.487V29.639C39.8729 29.6336 39.8249 29.631 39.7822 29.631C39.7396 29.6256 39.6942 29.623 39.6462 29.623C39.3049 29.623 39.0276 29.7216 38.8142 29.919C38.6062 30.111 38.5022 30.4123 38.5022 30.823V32.855H37.2542ZM41.0934 32.919C40.8801 32.919 40.6961 32.847 40.5414 32.703C40.3921 32.5536 40.3174 32.3643 40.3174 32.135C40.3174 31.9056 40.3921 31.7216 40.5414 31.583C40.6961 31.439 40.8801 31.367 41.0934 31.367C41.3121 31.367 41.4961 31.439 41.6454 31.583C41.7947 31.7216 41.8694 31.9056 41.8694 32.135C41.8694 32.3643 41.7947 32.5536 41.6454 32.703C41.4961 32.847 41.3121 32.919 41.0934 32.919Z" fill="#333333"/>
<path fill-rule="evenodd" clip-rule="evenodd" d="M158.801 47.6467C158.801 44.8222 157.701 42.1135 155.742 40.1163C153.783 38.1191 151.127 36.9971 148.357 36.9971C122.678 36.9971 66.8921 37 66.8921 37L62.2991 41.2504H46.4223L41.8261 37H27.2042C24.4342 37 21.7777 38.1221 19.8191 40.1193C17.8604 42.1164 16.76 44.8252 16.76 47.6497C16.76 47.6527 16.76 47.6559 16.76 47.6591C16.76 50.4835 17.8604 53.1922 19.8191 55.1894C21.7777 57.1866 24.4342 58.3086 27.2042 58.3086C34.0833 58.3086 41.8261 58.3086 41.8261 58.3086L46.4223 62.559H62.2959L66.8921 58.3086L148.357 58.3057C151.127 58.3057 153.783 57.1837 155.742 55.1865C157.701 53.1893 158.801 50.4806 158.801 47.6561C158.801 47.6529 158.801 47.6498 158.801 47.6467Z" fill="#30DCFF"/>
<path fill-rule="evenodd" clip-rule="evenodd" d="M158.801 47.6501C158.801 44.8256 157.701 42.1169 155.742 40.1197C153.783 38.1225 151.127 37.0005 148.357 37.0005C122.678 37.0005 66.8921 37.0005 66.8921 37.0005L62.2991 41.2508H46.4223L41.8261 37.0005H27.2042C24.4342 37.0005 21.7777 38.1225 19.8191 40.1197C17.8604 42.1169 16.76 44.8256 16.76 47.6501C16.76 47.6532 16.76 47.6548 16.76 47.6548H19.2666C19.2666 43.0493 22.9282 39.3156 27.4449 39.3156C33.5352 39.3156 40.8003 39.3156 40.8003 39.3156L45.3965 43.566H63.3405L67.9367 39.3156H148.117C152.633 39.3156 156.295 43.0492 156.295 47.6547L158.801 47.6548V47.6501Z" fill="#93EDFF"/>
<path fill-rule="evenodd" clip-rule="evenodd" d="M158.801 47.6519H156.294V47.6525C156.294 49.8632 155.433 51.9835 153.9 53.5467C152.367 55.11 150.288 55.9882 148.12 55.9882C124.444 55.9882 65.8539 55.9882 65.8539 55.9882L61.2577 60.2385H47.4606L42.8644 55.9882H27.4416C22.9267 55.9882 19.2666 52.2562 19.2666 47.6525V47.6519H16.76V47.6566C16.76 50.481 17.8604 53.1898 19.8191 55.187C21.7777 57.1841 24.4342 58.3062 27.2042 58.3062C34.0833 58.3062 41.8261 58.3062 41.8261 58.3062L46.4223 62.5565H62.2959L66.8921 58.3062H148.357C154.125 58.3062 158.801 53.5384 158.801 47.6569C158.801 47.6535 158.801 47.6519 158.801 47.6519Z" fill="#08A0BF"/>
<path d="M25.664 51.335V45.735H26.96V51.335H25.664ZM30.817 46.967C31.1583 46.967 31.4623 47.0363 31.729 47.175C32.001 47.3083 32.2143 47.5163 32.369 47.799C32.5237 48.0763 32.601 48.4336 32.601 48.871V51.335H31.353V49.063C31.353 48.7163 31.2757 48.4603 31.121 48.295C30.9717 48.1296 30.7583 48.047 30.481 48.047C30.2837 48.047 30.105 48.0896 29.945 48.175C29.7903 48.255 29.6677 48.3803 29.577 48.551C29.4917 48.7216 29.449 48.9403 29.449 49.207V51.335H28.201V47.031H29.393V48.223L29.169 47.863C29.3237 47.575 29.545 47.3536 29.833 47.199C30.121 47.0443 30.449 46.967 30.817 46.967ZM35.8435 51.399C35.3795 51.399 34.9662 51.3056 34.6035 51.119C34.2408 50.927 33.9555 50.663 33.7475 50.327C33.5448 49.991 33.4435 49.6096 33.4435 49.183C33.4435 48.751 33.5448 48.3696 33.7475 48.039C33.9555 47.703 34.2408 47.4416 34.6035 47.255C34.9662 47.063 35.3795 46.967 35.8435 46.967C36.2968 46.967 36.6915 47.063 37.0275 47.255C37.3635 47.4416 37.6115 47.711 37.7715 48.063L36.8035 48.583C36.6915 48.3803 36.5502 48.231 36.3795 48.135C36.2142 48.039 36.0328 47.991 35.8355 47.991C35.6222 47.991 35.4302 48.039 35.2595 48.135C35.0888 48.231 34.9528 48.367 34.8515 48.543C34.7555 48.719 34.7075 48.9323 34.7075 49.183C34.7075 49.4336 34.7555 49.647 34.8515 49.823C34.9528 49.999 35.0888 50.135 35.2595 50.231C35.4302 50.327 35.6222 50.375 35.8355 50.375C36.0328 50.375 36.2142 50.3296 36.3795 50.239C36.5502 50.143 36.6915 49.991 36.8035 49.783L37.7715 50.311C37.6115 50.6576 37.3635 50.927 37.0275 51.119C36.6915 51.3056 36.2968 51.399 35.8435 51.399ZM38.4666 51.335V45.399H39.7146V51.335H38.4666ZM40.8729 51.335V47.031H42.1209V51.335H40.8729ZM41.4969 46.431C41.2675 46.431 41.0809 46.3643 40.9369 46.231C40.7929 46.0976 40.7209 45.9323 40.7209 45.735C40.7209 45.5376 40.7929 45.3723 40.9369 45.239C41.0809 45.1056 41.2675 45.039 41.4969 45.039C41.7262 45.039 41.9129 45.103 42.0569 45.231C42.2009 45.3536 42.2729 45.5136 42.2729 45.711C42.2729 45.919 42.2009 46.0923 42.0569 46.231C41.9182 46.3643 41.7315 46.431 41.4969 46.431ZM45.8951 46.967C46.2365 46.967 46.5405 47.0363 46.8071 47.175C47.0791 47.3083 47.2925 47.5163 47.4471 47.799C47.6018 48.0763 47.6791 48.4336 47.6791 48.871V51.335H46.4311V49.063C46.4311 48.7163 46.3538 48.4603 46.1991 48.295C46.0498 48.1296 45.8365 48.047 45.5591 48.047C45.3618 48.047 45.1831 48.0896 45.0231 48.175C44.8685 48.255 44.7458 48.3803 44.6551 48.551C44.5698 48.7216 44.5271 48.9403 44.5271 49.207V51.335H43.2791V47.031H44.4711V48.223L44.2471 47.863C44.4018 47.575 44.6231 47.3536 44.9111 47.199C45.1991 47.0443 45.5271 46.967 45.8951 46.967ZM50.9776 51.399C50.487 51.399 50.055 51.303 49.6816 51.111C49.3136 50.919 49.0283 50.6576 48.8256 50.327C48.623 49.991 48.5216 49.6096 48.5216 49.183C48.5216 48.751 48.6203 48.3696 48.8176 48.039C49.0203 47.703 49.295 47.4416 49.6416 47.255C49.9883 47.063 50.3803 46.967 50.8176 46.967C51.239 46.967 51.6176 47.0576 51.9536 47.239C52.295 47.415 52.5643 47.671 52.7616 48.007C52.959 48.3376 53.0576 48.735 53.0576 49.199C53.0576 49.247 53.055 49.303 53.0496 49.367C53.0443 49.4256 53.039 49.4816 53.0336 49.535H49.5376V48.807H52.3776L51.8976 49.023C51.8976 48.799 51.8523 48.6043 51.7616 48.439C51.671 48.2736 51.5456 48.1456 51.3856 48.055C51.2256 47.959 51.039 47.911 50.8256 47.911C50.6123 47.911 50.423 47.959 50.2576 48.055C50.0976 48.1456 49.9723 48.2763 49.8816 48.447C49.791 48.6123 49.7456 48.8096 49.7456 49.039V49.231C49.7456 49.4656 49.7963 49.6736 49.8976 49.855C50.0043 50.031 50.151 50.167 50.3376 50.263C50.5296 50.3536 50.7536 50.399 51.0096 50.399C51.239 50.399 51.439 50.3643 51.6096 50.295C51.7856 50.2256 51.9456 50.1216 52.0896 49.983L52.7536 50.703C52.5563 50.927 52.3083 51.1003 52.0096 51.223C51.711 51.3403 51.367 51.399 50.9776 51.399ZM58.2021 51.399C57.7435 51.399 57.3355 51.303 56.9781 51.111C56.6261 50.919 56.3461 50.6576 56.1381 50.327C55.9355 49.991 55.8341 49.6096 55.8341 49.183C55.8341 48.751 55.9355 48.3696 56.1381 48.039C56.3461 47.703 56.6261 47.4416 56.9781 47.255C57.3355 47.063 57.7435 46.967 58.2021 46.967C58.6555 46.967 59.0608 47.063 59.4181 47.255C59.7755 47.4416 60.0555 47.7003 60.2581 48.031C60.4608 48.3616 60.5621 48.7456 60.5621 49.183C60.5621 49.6096 60.4608 49.991 60.2581 50.327C60.0555 50.6576 59.7755 50.919 59.4181 51.111C59.0608 51.303 58.6555 51.399 58.2021 51.399ZM58.2021 50.375C58.4101 50.375 58.5968 50.327 58.7621 50.231C58.9275 50.135 59.0581 49.999 59.1541 49.823C59.2501 49.6416 59.2981 49.4283 59.2981 49.183C59.2981 48.9323 59.2501 48.719 59.1541 48.543C59.0581 48.367 58.9275 48.231 58.7621 48.135C58.5968 48.039 58.4101 47.991 58.2021 47.991C57.9941 47.991 57.8075 48.039 57.6421 48.135C57.4768 48.231 57.3435 48.367 57.2421 48.543C57.1461 48.719 57.0981 48.9323 57.0981 49.183C57.0981 49.4283 57.1461 49.6416 57.2421 49.823C57.3435 49.999 57.4768 50.135 57.6421 50.231C57.8075 50.327 57.9941 50.375 58.2021 50.375ZM65.4219 51.399C64.9153 51.399 64.5206 51.271 64.2379 51.015C63.9553 50.7536 63.8139 50.367 63.8139 49.855V46.079H65.0619V49.839C65.0619 50.0203 65.1099 50.1616 65.2059 50.263C65.3019 50.359 65.4326 50.407 65.5979 50.407C65.7953 50.407 65.9633 50.3536 66.1019 50.247L66.4379 51.127C66.3099 51.2176 66.1553 51.287 65.9739 51.335C65.7979 51.3776 65.6139 51.399 65.4219 51.399ZM63.1499 48.087V47.127H66.1339V48.087H63.1499ZM67.1385 51.335V47.031H68.3305V48.247L68.1625 47.895C68.2905 47.591 68.4958 47.3616 68.7785 47.207C69.0612 47.047 69.4052 46.967 69.8105 46.967V48.119C69.7572 48.1136 69.7092 48.111 69.6665 48.111C69.6238 48.1056 69.5785 48.103 69.5305 48.103C69.1892 48.103 68.9118 48.2016 68.6985 48.399C68.4905 48.591 68.3865 48.8923 68.3865 49.303V51.335H67.1385ZM72.5693 51.399C72.1106 51.399 71.7026 51.303 71.3453 51.111C70.9933 50.919 70.7133 50.6576 70.5053 50.327C70.3026 49.991 70.2013 49.6096 70.2013 49.183C70.2013 48.751 70.3026 48.3696 70.5053 48.039C70.7133 47.703 70.9933 47.4416 71.3453 47.255C71.7026 47.063 72.1106 46.967 72.5693 46.967C73.0226 46.967 73.428 47.063 73.7853 47.255C74.1426 47.4416 74.4226 47.7003 74.6253 48.031C74.828 48.3616 74.9293 48.7456 74.9293 49.183C74.9293 49.6096 74.828 49.991 74.6253 50.327C74.4226 50.6576 74.1426 50.919 73.7853 51.111C73.428 51.303 73.0226 51.399 72.5693 51.399ZM72.5693 50.375C72.7773 50.375 72.964 50.327 73.1293 50.231C73.2946 50.135 73.4253 49.999 73.5213 49.823C73.6173 49.6416 73.6653 49.4283 73.6653 49.183C73.6653 48.9323 73.6173 48.719 73.5213 48.543C73.4253 48.367 73.2946 48.231 73.1293 48.135C72.964 48.039 72.7773 47.991 72.5693 47.991C72.3613 47.991 72.1746 48.039 72.0093 48.135C71.844 48.231 71.7106 48.367 71.6093 48.543C71.5133 48.719 71.4653 48.9323 71.4653 49.183C71.4653 49.4283 71.5133 49.6416 71.6093 49.823C71.7106 49.999 71.844 50.135 72.0093 50.231C72.1746 50.327 72.3613 50.375 72.5693 50.375ZM78.3795 46.967C78.7208 46.967 79.0248 47.0363 79.2915 47.175C79.5635 47.3083 79.7768 47.5163 79.9315 47.799C80.0862 48.0763 80.1635 48.4336 80.1635 48.871V51.335H78.9155V49.063C78.9155 48.7163 78.8382 48.4603 78.6835 48.295C78.5342 48.1296 78.3208 48.047 78.0435 48.047C77.8462 48.047 77.6675 48.0896 77.5075 48.175C77.3528 48.255 77.2302 48.3803 77.1395 48.551C77.0542 48.7216 77.0115 48.9403 77.0115 49.207V51.335H75.7635V47.031H76.9555V48.223L76.7315 47.863C76.8862 47.575 77.1075 47.3536 77.3955 47.199C77.6835 47.0443 78.0115 46.967 78.3795 46.967ZM83.406 51.399C82.942 51.399 82.5287 51.3056 82.166 51.119C81.8033 50.927 81.518 50.663 81.31 50.327C81.1073 49.991 81.006 49.6096 81.006 49.183C81.006 48.751 81.1073 48.3696 81.31 48.039C81.518 47.703 81.8033 47.4416 82.166 47.255C82.5287 47.063 82.942 46.967 83.406 46.967C83.8593 46.967 84.254 47.063 84.59 47.255C84.926 47.4416 85.174 47.711 85.334 48.063L84.366 48.583C84.254 48.3803 84.1127 48.231 83.942 48.135C83.7767 48.039 83.5953 47.991 83.398 47.991C83.1847 47.991 82.9927 48.039 82.822 48.135C82.6513 48.231 82.5153 48.367 82.414 48.543C82.318 48.719 82.27 48.9323 82.27 49.183C82.27 49.4336 82.318 49.647 82.414 49.823C82.5153 49.999 82.6513 50.135 82.822 50.231C82.9927 50.327 83.1847 50.375 83.398 50.375C83.5953 50.375 83.7767 50.3296 83.942 50.239C84.1127 50.143 84.254 49.991 84.366 49.783L85.334 50.311C85.174 50.6576 84.926 50.927 84.59 51.119C84.254 51.3056 83.8593 51.399 83.406 51.399ZM88.0459 51.399C87.5872 51.399 87.1792 51.303 86.8219 51.111C86.4699 50.919 86.1899 50.6576 85.9819 50.327C85.7792 49.991 85.6779 49.6096 85.6779 49.183C85.6779 48.751 85.7792 48.3696 85.9819 48.039C86.1899 47.703 86.4699 47.4416 86.8219 47.255C87.1792 47.063 87.5872 46.967 88.0459 46.967C88.4992 46.967 88.9045 47.063 89.2619 47.255C89.6192 47.4416 89.8992 47.7003 90.1019 48.031C90.3045 48.3616 90.4059 48.7456 90.4059 49.183C90.4059 49.6096 90.3045 49.991 90.1019 50.327C89.8992 50.6576 89.6192 50.919 89.2619 51.111C88.9045 51.303 88.4992 51.399 88.0459 51.399ZM88.0459 50.375C88.2539 50.375 88.4405 50.327 88.6059 50.231C88.7712 50.135 88.9019 49.999 88.9979 49.823C89.0939 49.6416 89.1419 49.4283 89.1419 49.183C89.1419 48.9323 89.0939 48.719 88.9979 48.543C88.9019 48.367 88.7712 48.231 88.6059 48.135C88.4405 48.039 88.2539 47.991 88.0459 47.991C87.8379 47.991 87.6512 48.039 87.4859 48.135C87.3205 48.231 87.1872 48.367 87.0859 48.543C86.9899 48.719 86.9419 48.9323 86.9419 49.183C86.9419 49.4283 86.9899 49.6416 87.0859 49.823C87.1872 49.999 87.3205 50.135 87.4859 50.231C87.6512 50.327 87.8379 50.375 88.0459 50.375ZM96.0497 51.399C95.687 51.399 95.3697 51.319 95.0977 51.159C94.8257 50.999 94.6124 50.7563 94.4577 50.431C94.3084 50.1003 94.2337 49.6843 94.2337 49.183C94.2337 48.6763 94.3057 48.2603 94.4497 47.935C94.5937 47.6096 94.8017 47.367 95.0737 47.207C95.3457 47.047 95.671 46.967 96.0497 46.967C96.455 46.967 96.8177 47.0603 97.1377 47.247C97.463 47.4283 97.719 47.6843 97.9057 48.015C98.0977 48.3456 98.1937 48.735 98.1937 49.183C98.1937 49.6363 98.0977 50.0283 97.9057 50.359C97.719 50.6896 97.463 50.9456 97.1377 51.127C96.8177 51.3083 96.455 51.399 96.0497 51.399ZM93.5057 52.887V47.031H94.6977V47.911L94.6737 49.191L94.7537 50.463V52.887H93.5057ZM95.8337 50.375C96.0417 50.375 96.2257 50.327 96.3857 50.231C96.551 50.135 96.6817 49.999 96.7777 49.823C96.879 49.6416 96.9297 49.4283 96.9297 49.183C96.9297 48.9323 96.879 48.719 96.7777 48.543C96.6817 48.367 96.551 48.231 96.3857 48.135C96.2257 48.039 96.0417 47.991 95.8337 47.991C95.6257 47.991 95.439 48.039 95.2737 48.135C95.1084 48.231 94.9777 48.367 94.8817 48.543C94.7857 48.719 94.7377 48.9323 94.7377 49.183C94.7377 49.4283 94.7857 49.6416 94.8817 49.823C94.9777 49.999 95.1084 50.135 95.2737 50.231C95.439 50.327 95.6257 50.375 95.8337 50.375ZM101.599 51.335V50.495L101.519 50.311V48.807C101.519 48.5403 101.436 48.3323 101.271 48.183C101.111 48.0336 100.863 47.959 100.527 47.959C100.297 47.959 100.071 47.9963 99.8468 48.071C99.6281 48.1403 99.4415 48.2363 99.2868 48.359L98.8388 47.487C99.0735 47.3216 99.3561 47.1936 99.6868 47.103C100.017 47.0123 100.353 46.967 100.695 46.967C101.351 46.967 101.86 47.1216 102.223 47.431C102.585 47.7403 102.767 48.223 102.767 48.879V51.335H101.599ZM100.287 51.399C99.9508 51.399 99.6628 51.343 99.4228 51.231C99.1828 51.1136 98.9988 50.9563 98.8708 50.759C98.7428 50.5616 98.6788 50.3403 98.6788 50.095C98.6788 49.839 98.7401 49.615 98.8628 49.423C98.9908 49.231 99.1908 49.0816 99.4628 48.975C99.7348 48.863 100.089 48.807 100.527 48.807H101.671V49.535H100.663C100.369 49.535 100.167 49.583 100.055 49.679C99.9481 49.775 99.8948 49.895 99.8948 50.039C99.8948 50.199 99.9561 50.327 100.079 50.423C100.207 50.5136 100.38 50.559 100.599 50.559C100.807 50.559 100.993 50.511 101.159 50.415C101.324 50.3136 101.444 50.167 101.519 49.975L101.711 50.551C101.62 50.8283 101.455 51.039 101.215 51.183C100.975 51.327 100.665 51.399 100.287 51.399ZM103.896 51.335V47.031H105.088V48.247L104.92 47.895C105.048 47.591 105.254 47.3616 105.536 47.207C105.819 47.047 106.163 46.967 106.568 46.967V48.119C106.515 48.1136 106.467 48.111 106.424 48.111C106.382 48.1056 106.336 48.103 106.288 48.103C105.947 48.103 105.67 48.2016 105.456 48.399C105.248 48.591 105.144 48.8923 105.144 49.303V51.335H103.896ZM109.669 51.335V50.495L109.589 50.311V48.807C109.589 48.5403 109.506 48.3323 109.341 48.183C109.181 48.0336 108.933 47.959 108.597 47.959C108.368 47.959 108.141 47.9963 107.917 48.071C107.698 48.1403 107.512 48.2363 107.357 48.359L106.909 47.487C107.144 47.3216 107.426 47.1936 107.757 47.103C108.088 47.0123 108.424 46.967 108.765 46.967C109.421 46.967 109.93 47.1216 110.293 47.431C110.656 47.7403 110.837 48.223 110.837 48.879V51.335H109.669ZM108.357 51.399C108.021 51.399 107.733 51.343 107.493 51.231C107.253 51.1136 107.069 50.9563 106.941 50.759C106.813 50.5616 106.749 50.3403 106.749 50.095C106.749 49.839 106.81 49.615 106.933 49.423C107.061 49.231 107.261 49.0816 107.533 48.975C107.805 48.863 108.16 48.807 108.597 48.807H109.741V49.535H108.733C108.44 49.535 108.237 49.583 108.125 49.679C108.018 49.775 107.965 49.895 107.965 50.039C107.965 50.199 108.026 50.327 108.149 50.423C108.277 50.5136 108.45 50.559 108.669 50.559C108.877 50.559 109.064 50.511 109.229 50.415C109.394 50.3136 109.514 50.167 109.589 49.975L109.781 50.551C109.69 50.8283 109.525 51.039 109.285 51.183C109.045 51.327 108.736 51.399 108.357 51.399ZM116.872 51.335V50.495L116.792 50.311V48.807C116.792 48.5403 116.71 48.3323 116.544 48.183C116.384 48.0336 116.136 47.959 115.8 47.959C115.571 47.959 115.344 47.9963 115.12 48.071C114.902 48.1403 114.715 48.2363 114.56 48.359L114.112 47.487C114.347 47.3216 114.63 47.1936 114.96 47.103C115.291 47.0123 115.627 46.967 115.968 46.967C116.624 46.967 117.134 47.1216 117.496 47.431C117.859 47.7403 118.04 48.223 118.04 48.879V51.335H116.872ZM115.56 51.399C115.224 51.399 114.936 51.343 114.696 51.231C114.456 51.1136 114.272 50.9563 114.144 50.759C114.016 50.5616 113.952 50.3403 113.952 50.095C113.952 49.839 114.014 49.615 114.136 49.423C114.264 49.231 114.464 49.0816 114.736 48.975C115.008 48.863 115.363 48.807 115.8 48.807H116.944V49.535H115.936C115.643 49.535 115.44 49.583 115.328 49.679C115.222 49.775 115.168 49.895 115.168 50.039C115.168 50.199 115.23 50.327 115.352 50.423C115.48 50.5136 115.654 50.559 115.872 50.559C116.08 50.559 116.267 50.511 116.432 50.415C116.598 50.3136 116.718 50.167 116.792 49.975L116.984 50.551C116.894 50.8283 116.728 51.039 116.488 51.183C116.248 51.327 115.939 51.399 115.56 51.399ZM123.283 51.399C122.878 51.399 122.513 51.3083 122.187 51.127C121.862 50.9403 121.603 50.6816 121.411 50.351C121.225 50.0203 121.131 49.631 121.131 49.183C121.131 48.7296 121.225 48.3376 121.411 48.007C121.603 47.6763 121.862 47.4203 122.187 47.239C122.513 47.0576 122.878 46.967 123.283 46.967C123.646 46.967 123.963 47.047 124.235 47.207C124.507 47.367 124.718 47.6096 124.867 47.935C125.017 48.2603 125.091 48.6763 125.091 49.183C125.091 49.6843 125.019 50.1003 124.875 50.431C124.731 50.7563 124.523 50.999 124.251 51.159C123.985 51.319 123.662 51.399 123.283 51.399ZM123.499 50.375C123.702 50.375 123.886 50.327 124.051 50.231C124.217 50.135 124.347 49.999 124.443 49.823C124.545 49.6416 124.595 49.4283 124.595 49.183C124.595 48.9323 124.545 48.719 124.443 48.543C124.347 48.367 124.217 48.231 124.051 48.135C123.886 48.039 123.702 47.991 123.499 47.991C123.291 47.991 123.105 48.039 122.939 48.135C122.774 48.231 122.641 48.367 122.539 48.543C122.443 48.719 122.395 48.9323 122.395 49.183C122.395 49.4283 122.443 49.6416 122.539 49.823C122.641 49.999 122.774 50.135 122.939 50.231C123.105 50.327 123.291 50.375 123.499 50.375ZM124.627 51.335V50.455L124.651 49.175L124.571 47.903V45.399H125.819V51.335H124.627ZM126.974 51.335V47.031H128.222V51.335H126.974ZM127.598 46.431C127.369 46.431 127.182 46.3643 127.038 46.231C126.894 46.0976 126.822 45.9323 126.822 45.735C126.822 45.5376 126.894 45.3723 127.038 45.239C127.182 45.1056 127.369 45.039 127.598 45.039C127.828 45.039 128.014 45.103 128.158 45.231C128.302 45.3536 128.374 45.5136 128.374 45.711C128.374 45.919 128.302 46.0923 128.158 46.231C128.02 46.3643 127.833 46.431 127.598 46.431ZM129.381 51.335V47.031H130.573V48.247L130.405 47.895C130.533 47.591 130.738 47.3616 131.021 47.207C131.303 47.047 131.647 46.967 132.053 46.967V48.119C131.999 48.1136 131.951 48.111 131.909 48.111C131.866 48.1056 131.821 48.103 131.773 48.103C131.431 48.103 131.154 48.2016 130.941 48.399C130.733 48.591 130.629 48.8923 130.629 49.303V51.335H129.381ZM134.9 51.399C134.409 51.399 133.977 51.303 133.604 51.111C133.236 50.919 132.95 50.6576 132.748 50.327C132.545 49.991 132.444 49.6096 132.444 49.183C132.444 48.751 132.542 48.3696 132.74 48.039C132.942 47.703 133.217 47.4416 133.564 47.255C133.91 47.063 134.302 46.967 134.74 46.967C135.161 46.967 135.54 47.0576 135.876 47.239C136.217 47.415 136.486 47.671 136.684 48.007C136.881 48.3376 136.98 48.735 136.98 49.199C136.98 49.247 136.977 49.303 136.972 49.367C136.966 49.4256 136.961 49.4816 136.956 49.535H133.46V48.807H136.299L135.82 49.023C135.82 48.799 135.774 48.6043 135.684 48.439C135.593 48.2736 135.468 48.1456 135.308 48.055C135.148 47.959 134.961 47.911 134.748 47.911C134.534 47.911 134.345 47.959 134.18 48.055C134.02 48.1456 133.894 48.2763 133.804 48.447C133.713 48.6123 133.668 48.8096 133.668 49.039V49.231C133.668 49.4656 133.718 49.6736 133.82 49.855C133.926 50.031 134.073 50.167 134.26 50.263C134.452 50.3536 134.676 50.399 134.932 50.399C135.161 50.399 135.361 50.3643 135.532 50.295C135.708 50.2256 135.868 50.1216 136.012 49.983L136.676 50.703C136.478 50.927 136.23 51.1003 135.932 51.223C135.633 51.3403 135.289 51.399 134.9 51.399ZM137.81 51.335V47.031H139.058V51.335H137.81ZM138.434 46.431C138.205 46.431 138.018 46.3643 137.874 46.231C137.73 46.0976 137.658 45.9323 137.658 45.735C137.658 45.5376 137.73 45.3723 137.874 45.239C138.018 45.1056 138.205 45.039 138.434 45.039C138.664 45.039 138.85 45.103 138.994 45.231C139.138 45.3536 139.21 45.5136 139.21 45.711C139.21 45.919 139.138 46.0923 138.994 46.231C138.856 46.3643 138.669 46.431 138.434 46.431ZM141.977 51.399C141.47 51.399 141.075 51.271 140.793 51.015C140.51 50.7536 140.369 50.367 140.369 49.855V46.079H141.617V49.839C141.617 50.0203 141.665 50.1616 141.761 50.263C141.857 50.359 141.987 50.407 142.153 50.407C142.35 50.407 142.518 50.3536 142.657 50.247L142.993 51.127C142.865 51.2176 142.71 51.287 142.529 51.335C142.353 51.3776 142.169 51.399 141.977 51.399ZM139.705 48.087V47.127H142.689V48.087H139.705ZM146.333 51.335V50.495L146.253 50.311V48.807C146.253 48.5403 146.171 48.3323 146.005 48.183C145.845 48.0336 145.597 47.959 145.261 47.959C145.032 47.959 144.805 47.9963 144.581 48.071C144.363 48.1403 144.176 48.2363 144.021 48.359L143.573 47.487C143.808 47.3216 144.091 47.1936 144.421 47.103C144.752 47.0123 145.088 46.967 145.429 46.967C146.085 46.967 146.595 47.1216 146.957 47.431C147.32 47.7403 147.501 48.223 147.501 48.879V51.335H146.333ZM145.021 51.399C144.685 51.399 144.397 51.343 144.157 51.231C143.917 51.1136 143.733 50.9563 143.605 50.759C143.477 50.5616 143.413 50.3403 143.413 50.095C143.413 49.839 143.475 49.615 143.597 49.423C143.725 49.231 143.925 49.0816 144.197 48.975C144.469 48.863 144.824 48.807 145.261 48.807H146.405V49.535H145.397C145.104 49.535 144.901 49.583 144.789 49.679C144.683 49.775 144.629 49.895 144.629 50.039C144.629 50.199 144.691 50.327 144.813 50.423C144.941 50.5136 145.115 50.559 145.333 50.559C145.541 50.559 145.728 50.511 145.893 50.415C146.059 50.3136 146.179 50.167 146.253 49.975L146.445 50.551C146.355 50.8283 146.189 51.039 145.949 51.183C145.709 51.327 145.4 51.399 145.021 51.399Z" fill="#333333"/>
<path fill-rule="evenodd" clip-rule="evenodd" d="M159.041 68.9816C159.041 66.1572 157.941 63.4484 155.982 61.4513C154.023 59.4541 151.367 58.332 148.597 58.332C122.918 58.332 67.1321 58.335 67.1321 58.335L62.5391 62.5854H46.6623L42.0661 58.335H27.4442C24.6742 58.335 22.0177 59.457 20.0591 61.4542C18.1004 63.4514 17 66.1602 17 68.9846C17 68.9877 17 68.9909 17 68.994C17 71.8185 18.1004 74.5272 20.0591 76.5244C22.0177 78.5215 24.6742 79.6436 27.4442 79.6436C34.3233 79.6436 42.0661 79.6436 42.0661 79.6436L46.6623 83.8939H62.5359L67.1321 79.6436L148.597 79.6407C151.367 79.6407 154.023 78.5186 155.982 76.5215C157.941 74.5243 159.041 71.8155 159.041 68.9911C159.041 68.9879 159.041 68.9847 159.041 68.9816Z" fill="#30DCFF"/>
<path fill-rule="evenodd" clip-rule="evenodd" d="M159.041 68.9851C159.041 66.1606 157.941 63.4519 155.982 61.4547C154.023 59.4575 151.367 58.3354 148.597 58.3354C122.918 58.3354 67.1321 58.3354 67.1321 58.3354L62.5391 62.5858H46.6623L42.0661 58.3354H27.4442C24.6742 58.3354 22.0177 59.4575 20.0591 61.4547C18.1004 63.4519 17 66.1606 17 68.9851C17 68.9881 17 68.9898 17 68.9898H19.5066C19.5066 64.3842 23.1682 60.6506 27.6849 60.6506C33.7752 60.6506 41.0403 60.6506 41.0403 60.6506L45.6365 64.9009H63.5804L68.1767 60.6506H148.357C152.873 60.6506 156.535 64.3841 156.535 68.9897L159.041 68.9898V68.9851Z" fill="#93EDFF"/>
<path fill-rule="evenodd" clip-rule="evenodd" d="M159.041 68.9868H156.534V68.9874C156.534 71.1982 155.673 73.3185 154.14 74.8816C152.607 76.4449 150.528 77.3231 148.36 77.3231C124.684 77.3231 66.0939 77.3231 66.0939 77.3231L61.4977 81.5735H47.7006L43.1044 77.3231H27.6815C23.1667 77.3231 19.5066 73.5911 19.5066 68.9874V68.9868H17V68.9915C17 71.816 18.1004 74.5247 20.0591 76.5219C22.0177 78.5191 24.6742 79.6411 27.4442 79.6411C34.3233 79.6411 42.0661 79.6411 42.0661 79.6411L46.6623 83.8915H62.5359L67.1321 79.6411H148.597C154.365 79.6411 159.041 74.8734 159.041 68.9918C159.041 68.9885 159.041 68.9868 159.041 68.9868Z" fill="#08A0BF"/>
<path d="M25.904 72.6699V67.0699H26.976L29.36 71.0219H28.792L31.136 67.0699H32.2L32.216 72.6699H31L30.992 68.9339H31.216L29.344 72.0779H28.76L26.848 68.9339H27.12V72.6699H25.904ZM35.5046 72.7339C35.0459 72.7339 34.6379 72.6379 34.2806 72.4459C33.9286 72.2539 33.6486 71.9926 33.4406 71.6619C33.2379 71.3259 33.1366 70.9446 33.1366 70.5179C33.1366 70.0859 33.2379 69.7046 33.4406 69.3739C33.6486 69.0379 33.9286 68.7766 34.2806 68.5899C34.6379 68.3979 35.0459 68.3019 35.5046 68.3019C35.9579 68.3019 36.3633 68.3979 36.7206 68.5899C37.0779 68.7766 37.3579 69.0353 37.5606 69.3659C37.7633 69.6966 37.8646 70.0806 37.8646 70.5179C37.8646 70.9446 37.7633 71.3259 37.5606 71.6619C37.3579 71.9926 37.0779 72.2539 36.7206 72.4459C36.3633 72.6379 35.9579 72.7339 35.5046 72.7339ZM35.5046 71.7099C35.7126 71.7099 35.8993 71.6619 36.0646 71.5659C36.2299 71.4699 36.3606 71.3339 36.4566 71.1579C36.5526 70.9766 36.6006 70.7633 36.6006 70.5179C36.6006 70.2673 36.5526 70.0539 36.4566 69.8779C36.3606 69.7019 36.2299 69.5659 36.0646 69.4699C35.8993 69.3739 35.7126 69.3259 35.5046 69.3259C35.2966 69.3259 35.1099 69.3739 34.9446 69.4699C34.7793 69.5659 34.6459 69.7019 34.5446 69.8779C34.4486 70.0539 34.4006 70.2673 34.4006 70.5179C34.4006 70.7633 34.4486 70.9766 34.5446 71.1579C34.6459 71.3339 34.7793 71.4699 34.9446 71.5659C35.1099 71.6619 35.2966 71.7099 35.5046 71.7099ZM39.7496 72.6699L37.9416 68.3659H39.2296L40.7336 72.0699H40.0936L41.6536 68.3659H42.8536L41.0376 72.6699H39.7496ZM45.8622 72.6699V71.8299L45.7822 71.6459V70.1419C45.7822 69.8753 45.6996 69.6673 45.5342 69.5179C45.3742 69.3686 45.1262 69.2939 44.7902 69.2939C44.5609 69.2939 44.3342 69.3313 44.1102 69.4059C43.8916 69.4753 43.7049 69.5713 43.5502 69.6939L43.1022 68.8219C43.3369 68.6566 43.6196 68.5286 43.9502 68.4379C44.2809 68.3473 44.6169 68.3019 44.9582 68.3019C45.6142 68.3019 46.1236 68.4566 46.4862 68.7659C46.8489 69.0753 47.0302 69.5579 47.0302 70.2139V72.6699H45.8622ZM44.5502 72.7339C44.2142 72.7339 43.9262 72.6779 43.6862 72.5659C43.4462 72.4486 43.2622 72.2913 43.1342 72.0939C43.0062 71.8966 42.9422 71.6753 42.9422 71.4299C42.9422 71.1739 43.0036 70.9499 43.1262 70.7579C43.2542 70.5659 43.4542 70.4166 43.7262 70.3099C43.9982 70.1979 44.3529 70.1419 44.7902 70.1419H45.9342V70.8699H44.9262C44.6329 70.8699 44.4302 70.9179 44.3182 71.0139C44.2116 71.1099 44.1582 71.2299 44.1582 71.3739C44.1582 71.5339 44.2196 71.6619 44.3422 71.7579C44.4702 71.8486 44.6436 71.8939 44.8622 71.8939C45.0702 71.8939 45.2569 71.8459 45.4222 71.7499C45.5876 71.6486 45.7076 71.5019 45.7822 71.3099L45.9742 71.8859C45.8836 72.1633 45.7182 72.3739 45.4782 72.5179C45.2382 72.6619 44.9289 72.7339 44.5502 72.7339ZM52.4734 72.7339C52.0147 72.7339 51.6067 72.6379 51.2494 72.4459C50.8974 72.2539 50.6174 71.9926 50.4094 71.6619C50.2067 71.3259 50.1054 70.9446 50.1054 70.5179C50.1054 70.0859 50.2067 69.7046 50.4094 69.3739C50.6174 69.0379 50.8974 68.7766 51.2494 68.5899C51.6067 68.3979 52.0147 68.3019 52.4734 68.3019C52.9267 68.3019 53.332 68.3979 53.6894 68.5899C54.0467 68.7766 54.3267 69.0353 54.5294 69.3659C54.732 69.6966 54.8334 70.0806 54.8334 70.5179C54.8334 70.9446 54.732 71.3259 54.5294 71.6619C54.3267 71.9926 54.0467 72.2539 53.6894 72.4459C53.332 72.6379 52.9267 72.7339 52.4734 72.7339ZM52.4734 71.7099C52.6814 71.7099 52.868 71.6619 53.0334 71.5659C53.1987 71.4699 53.3294 71.3339 53.4254 71.1579C53.5214 70.9766 53.5694 70.7633 53.5694 70.5179C53.5694 70.2673 53.5214 70.0539 53.4254 69.8779C53.3294 69.7019 53.1987 69.5659 53.0334 69.4699C52.868 69.3739 52.6814 69.3259 52.4734 69.3259C52.2654 69.3259 52.0787 69.3739 51.9134 69.4699C51.748 69.5659 51.6147 69.7019 51.5134 69.8779C51.4174 70.0539 51.3694 70.2673 51.3694 70.5179C51.3694 70.7633 51.4174 70.9766 51.5134 71.1579C51.6147 71.3339 51.748 71.4699 51.9134 71.5659C52.0787 71.6619 52.2654 71.7099 52.4734 71.7099ZM60.4772 72.7339C60.0985 72.7339 59.7732 72.6539 59.5012 72.4939C59.2292 72.3339 59.0212 72.0913 58.8772 71.7659C58.7332 71.4353 58.6612 71.0193 58.6612 70.5179C58.6612 70.0113 58.7358 69.5953 58.8852 69.2699C59.0398 68.9446 59.2532 68.7019 59.5252 68.5419C59.7972 68.3819 60.1145 68.3019 60.4772 68.3019C60.8825 68.3019 61.2452 68.3926 61.5652 68.5739C61.8905 68.7553 62.1465 69.0113 62.3332 69.3419C62.5252 69.6726 62.6212 70.0646 62.6212 70.5179C62.6212 70.9659 62.5252 71.3553 62.3332 71.6859C62.1465 72.0166 61.8905 72.2753 61.5652 72.4619C61.2452 72.6433 60.8825 72.7339 60.4772 72.7339ZM57.9332 72.6699V66.7339H59.1812V69.2379L59.1012 70.5099L59.1252 71.7899V72.6699H57.9332ZM60.2612 71.7099C60.4692 71.7099 60.6532 71.6619 60.8132 71.5659C60.9785 71.4699 61.1092 71.3339 61.2052 71.1579C61.3065 70.9766 61.3572 70.7633 61.3572 70.5179C61.3572 70.2673 61.3065 70.0539 61.2052 69.8779C61.1092 69.7019 60.9785 69.5659 60.8132 69.4699C60.6532 69.3739 60.4692 69.3259 60.2612 69.3259C60.0532 69.3259 59.8665 69.3739 59.7012 69.4699C59.5358 69.5659 59.4052 69.7019 59.3092 69.8779C59.2132 70.0539 59.1652 70.2673 59.1652 70.5179C59.1652 70.7633 59.2132 70.9766 59.3092 71.1579C59.4052 71.3339 59.5358 71.4699 59.7012 71.5659C59.8665 71.6619 60.0532 71.7099 60.2612 71.7099ZM63.4566 72.6699V68.3659H64.6486V69.5819L64.4806 69.2299C64.6086 68.9259 64.8139 68.6966 65.0966 68.5419C65.3793 68.3819 65.7233 68.3019 66.1286 68.3019V69.4539C66.0753 69.4486 66.0273 69.4459 65.9846 69.4459C65.9419 69.4406 65.8966 69.4379 65.8486 69.4379C65.5073 69.4379 65.2299 69.5366 65.0166 69.7339C64.8086 69.9259 64.7046 70.2273 64.7046 70.6379V72.6699H63.4566ZM69.2294 72.6699V71.8299L69.1494 71.6459V70.1419C69.1494 69.8753 69.0668 69.6673 68.9014 69.5179C68.7414 69.3686 68.4934 69.2939 68.1574 69.2939C67.9281 69.2939 67.7014 69.3313 67.4774 69.4059C67.2588 69.4753 67.0721 69.5713 66.9174 69.6939L66.4694 68.8219C66.7041 68.6566 66.9868 68.5286 67.3174 68.4379C67.6481 68.3473 67.9841 68.3019 68.3254 68.3019C68.9814 68.3019 69.4908 68.4566 69.8534 68.7659C70.2161 69.0753 70.3974 69.5579 70.3974 70.2139V72.6699H69.2294ZM67.9174 72.7339C67.5814 72.7339 67.2934 72.6779 67.0534 72.5659C66.8134 72.4486 66.6294 72.2913 66.5014 72.0939C66.3734 71.8966 66.3094 71.6753 66.3094 71.4299C66.3094 71.1739 66.3708 70.9499 66.4934 70.7579C66.6214 70.5659 66.8214 70.4166 67.0934 70.3099C67.3654 70.1979 67.7201 70.1419 68.1574 70.1419H69.3014V70.8699H68.2934C68.0001 70.8699 67.7974 70.9179 67.6854 71.0139C67.5788 71.1099 67.5254 71.2299 67.5254 71.3739C67.5254 71.5339 67.5868 71.6619 67.7094 71.7579C67.8374 71.8486 68.0108 71.8939 68.2294 71.8939C68.4374 71.8939 68.6241 71.8459 68.7894 71.7499C68.9548 71.6486 69.0748 71.5019 69.1494 71.3099L69.3414 71.8859C69.2508 72.1633 69.0854 72.3739 68.8454 72.5179C68.6054 72.6619 68.2961 72.7339 67.9174 72.7339ZM73.6382 72.7339C73.1742 72.7339 72.7608 72.6406 72.3982 72.4539C72.0355 72.2619 71.7502 71.9979 71.5422 71.6619C71.3395 71.3259 71.2382 70.9446 71.2382 70.5179C71.2382 70.0859 71.3395 69.7046 71.5422 69.3739C71.7502 69.0379 72.0355 68.7766 72.3982 68.5899C72.7608 68.3979 73.1742 68.3019 73.6382 68.3019C74.0915 68.3019 74.4862 68.3979 74.8222 68.5899C75.1582 68.7766 75.4062 69.0459 75.5662 69.3979L74.5982 69.9179C74.4862 69.7153 74.3448 69.5659 74.1742 69.4699C74.0088 69.3739 73.8275 69.3259 73.6302 69.3259C73.4168 69.3259 73.2248 69.3739 73.0542 69.4699C72.8835 69.5659 72.7475 69.7019 72.6462 69.8779C72.5502 70.0539 72.5022 70.2673 72.5022 70.5179C72.5022 70.7686 72.5502 70.9819 72.6462 71.1579C72.7475 71.3339 72.8835 71.4699 73.0542 71.5659C73.2248 71.6619 73.4168 71.7099 73.6302 71.7099C73.8275 71.7099 74.0088 71.6646 74.1742 71.5739C74.3448 71.4779 74.4862 71.3259 74.5982 71.1179L75.5662 71.6459C75.4062 71.9926 75.1582 72.2619 74.8222 72.4539C74.4862 72.6406 74.0915 72.7339 73.6382 72.7339ZM73.1822 74.5259C73.0435 74.5259 72.9075 74.5099 72.7742 74.4779C72.6462 74.4459 72.5342 74.4059 72.4382 74.3579L72.6302 73.8219C72.7102 73.8593 72.7928 73.8886 72.8782 73.9099C72.9635 73.9313 73.0542 73.9419 73.1502 73.9419C73.2995 73.9419 73.4062 73.9179 73.4702 73.8699C73.5342 73.8219 73.5662 73.7606 73.5662 73.6859C73.5662 73.6166 73.5342 73.5606 73.4702 73.5179C73.4115 73.4753 73.3128 73.4539 73.1742 73.4539H72.9022L73.1102 72.6059H73.7742L73.6622 73.0699C73.9022 73.0966 74.0782 73.1713 74.1902 73.2939C74.3022 73.4219 74.3582 73.5686 74.3582 73.7339C74.3582 73.9739 74.2515 74.1659 74.0382 74.3099C73.8248 74.4539 73.5395 74.5259 73.1822 74.5259ZM78.2781 72.7339C77.8194 72.7339 77.4114 72.6379 77.0541 72.4459C76.7021 72.2539 76.4221 71.9926 76.2141 71.6619C76.0114 71.3259 75.9101 70.9446 75.9101 70.5179C75.9101 70.0859 76.0114 69.7046 76.2141 69.3739C76.4221 69.0379 76.7021 68.7766 77.0541 68.5899C77.4114 68.3979 77.8194 68.3019 78.2781 68.3019C78.7314 68.3019 79.1367 68.3979 79.4941 68.5899C79.8514 68.7766 80.1314 69.0353 80.3341 69.3659C80.5367 69.6966 80.6381 70.0806 80.6381 70.5179C80.6381 70.9446 80.5367 71.3259 80.3341 71.6619C80.1314 71.9926 79.8514 72.2539 79.4941 72.4459C79.1367 72.6379 78.7314 72.7339 78.2781 72.7339ZM78.2781 71.7099C78.4861 71.7099 78.6727 71.6619 78.8381 71.5659C79.0034 71.4699 79.1341 71.3339 79.2301 71.1579C79.3261 70.9766 79.3741 70.7633 79.3741 70.5179C79.3741 70.2673 79.3261 70.0539 79.2301 69.8779C79.1341 69.7019 79.0034 69.5659 78.8381 69.4699C78.6727 69.3739 78.4861 69.3259 78.2781 69.3259C78.0701 69.3259 77.8834 69.3739 77.7181 69.4699C77.5527 69.5659 77.4194 69.7019 77.3181 69.8779C77.2221 70.0539 77.1741 70.2673 77.1741 70.5179C77.1741 70.7633 77.2221 70.9766 77.3181 71.1579C77.4194 71.3339 77.5527 71.4699 77.7181 71.5659C77.8834 71.6619 78.0701 71.7099 78.2781 71.7099ZM85.8739 72.7339C85.3832 72.7339 84.9512 72.6379 84.5779 72.4459C84.2099 72.2539 83.9245 71.9926 83.7219 71.6619C83.5192 71.3259 83.4179 70.9446 83.4179 70.5179C83.4179 70.0859 83.5165 69.7046 83.7139 69.3739C83.9165 69.0379 84.1912 68.7766 84.5379 68.5899C84.8845 68.3979 85.2765 68.3019 85.7139 68.3019C86.1352 68.3019 86.5139 68.3926 86.8499 68.5739C87.1912 68.7499 87.4605 69.0059 87.6579 69.3419C87.8552 69.6726 87.9539 70.0699 87.9539 70.5339C87.9539 70.5819 87.9512 70.6379 87.9459 70.7019C87.9405 70.7606 87.9352 70.8166 87.9299 70.8699H84.4339V70.1419H87.2739L86.7939 70.3579C86.7939 70.1339 86.7485 69.9393 86.6579 69.7739C86.5672 69.6086 86.4419 69.4806 86.2819 69.3899C86.1219 69.2939 85.9352 69.2459 85.7219 69.2459C85.5085 69.2459 85.3192 69.2939 85.1539 69.3899C84.9939 69.4806 84.8685 69.6113 84.7779 69.7819C84.6872 69.9473 84.6419 70.1446 84.6419 70.3739V70.5659C84.6419 70.8006 84.6925 71.0086 84.7939 71.1899C84.9005 71.3659 85.0472 71.5019 85.2339 71.5979C85.4259 71.6886 85.6499 71.7339 85.9059 71.7339C86.1352 71.7339 86.3352 71.6993 86.5059 71.6299C86.6819 71.5606 86.8419 71.4566 86.9859 71.3179L87.6499 72.0379C87.4525 72.2619 87.2045 72.4353 86.9059 72.5579C86.6072 72.6753 86.2632 72.7339 85.8739 72.7339ZM90.2327 72.7339C89.8647 72.7339 89.5101 72.6913 89.1687 72.6059C88.8327 72.5153 88.5661 72.4033 88.3687 72.2699L88.7847 71.3739C88.9821 71.4966 89.2141 71.5979 89.4807 71.6779C89.7527 71.7526 90.0194 71.7899 90.2807 71.7899C90.5687 71.7899 90.7714 71.7553 90.8887 71.6859C91.0114 71.6166 91.0727 71.5206 91.0727 71.3979C91.0727 71.2966 91.0247 71.2219 90.9287 71.1739C90.8381 71.1206 90.7154 71.0806 90.5607 71.0539C90.4061 71.0273 90.2354 71.0006 90.0487 70.9739C89.8674 70.9473 89.6834 70.9126 89.4967 70.8699C89.3101 70.8219 89.1394 70.7526 88.9847 70.6619C88.8301 70.5713 88.7047 70.4486 88.6087 70.2939C88.5181 70.1393 88.4727 69.9393 88.4727 69.6939C88.4727 69.4219 88.5501 69.1819 88.7047 68.9739C88.8647 68.7659 89.0941 68.6033 89.3927 68.4859C89.6914 68.3633 90.0487 68.3019 90.4647 68.3019C90.7581 68.3019 91.0567 68.3339 91.3607 68.3979C91.6647 68.4619 91.9181 68.5553 92.1207 68.6779L91.7047 69.5659C91.4967 69.4433 91.2861 69.3606 91.0727 69.3179C90.8647 69.2699 90.6621 69.2459 90.4647 69.2459C90.1874 69.2459 89.9847 69.2833 89.8567 69.3579C89.7287 69.4326 89.6647 69.5286 89.6647 69.6459C89.6647 69.7526 89.7101 69.8326 89.8007 69.8859C89.8967 69.9393 90.0221 69.9819 90.1767 70.0139C90.3314 70.0459 90.4994 70.0753 90.6807 70.1019C90.8674 70.1233 91.0541 70.1579 91.2407 70.2059C91.4274 70.2539 91.5954 70.3233 91.7447 70.4139C91.8994 70.4993 92.0247 70.6193 92.1207 70.7739C92.2167 70.9233 92.2647 71.1206 92.2647 71.3659C92.2647 71.6326 92.1847 71.8699 92.0247 72.0779C91.8647 72.2806 91.6327 72.4406 91.3287 72.5579C91.0301 72.6753 90.6647 72.7339 90.2327 72.7339ZM94.8667 72.7339C94.4614 72.7339 94.0961 72.6433 93.7707 72.4619C93.4454 72.2806 93.1867 72.0246 92.9947 71.6939C92.8081 71.3633 92.7147 70.9713 92.7147 70.5179C92.7147 70.0699 92.8081 69.6806 92.9947 69.3499C93.1867 69.0193 93.4454 68.7633 93.7707 68.5819C94.0961 68.3953 94.4614 68.3019 94.8667 68.3019C95.2454 68.3019 95.5681 68.3819 95.8347 68.5419C96.1067 68.7019 96.3147 68.9446 96.4587 69.2699C96.6027 69.5953 96.6747 70.0113 96.6747 70.5179C96.6747 71.0193 96.6001 71.4353 96.4507 71.7659C96.3014 72.0913 96.0907 72.3339 95.8187 72.4939C95.5467 72.6539 95.2294 72.7339 94.8667 72.7339ZM95.0827 71.7099C95.2854 71.7099 95.4694 71.6619 95.6347 71.5659C95.8001 71.4699 95.9307 71.3339 96.0267 71.1579C96.1281 70.9766 96.1787 70.7633 96.1787 70.5179C96.1787 70.2673 96.1281 70.0539 96.0267 69.8779C95.9307 69.7019 95.8001 69.5659 95.6347 69.4699C95.4694 69.3739 95.2854 69.3259 95.0827 69.3259C94.8747 69.3259 94.6881 69.3739 94.5227 69.4699C94.3574 69.5659 94.2241 69.7019 94.1227 69.8779C94.0267 70.0539 93.9787 70.2673 93.9787 70.5179C93.9787 70.7633 94.0267 70.9766 94.1227 71.1579C94.2241 71.3339 94.3574 71.4699 94.5227 71.5659C94.6881 71.6619 94.8747 71.7099 95.0827 71.7099ZM96.1547 74.2219V71.7979L96.2347 70.5259L96.2107 69.2459V68.3659H97.4027V74.2219H96.1547ZM100.374 72.7339C100.017 72.7339 99.6968 72.6646 99.4142 72.5259C99.1368 72.3873 98.9208 72.1766 98.7662 71.8939C98.6115 71.6059 98.5342 71.2406 98.5342 70.7979V68.3659H99.7822V70.6139C99.7822 70.9713 99.8568 71.2353 100.006 71.4059C100.161 71.5713 100.377 71.6539 100.654 71.6539C100.846 71.6539 101.017 71.6139 101.166 71.5339C101.316 71.4486 101.433 71.3206 101.518 71.1499C101.604 70.9739 101.646 70.7553 101.646 70.4939V68.3659H102.894V72.6699H101.71V71.4859L101.926 71.8299C101.782 72.1286 101.569 72.3553 101.286 72.5099C101.009 72.6593 100.705 72.7339 100.374 72.7339ZM106.186 72.7339C105.696 72.7339 105.264 72.6379 104.89 72.4459C104.522 72.2539 104.237 71.9926 104.034 71.6619C103.832 71.3259 103.73 70.9446 103.73 70.5179C103.73 70.0859 103.829 69.7046 104.026 69.3739C104.229 69.0379 104.504 68.7766 104.85 68.5899C105.197 68.3979 105.589 68.3019 106.026 68.3019C106.448 68.3019 106.826 68.3926 107.162 68.5739C107.504 68.7499 107.773 69.0059 107.97 69.3419C108.168 69.6726 108.266 70.0699 108.266 70.5339C108.266 70.5819 108.264 70.6379 108.258 70.7019C108.253 70.7606 108.248 70.8166 108.242 70.8699H104.746V70.1419H107.586L107.106 70.3579C107.106 70.1339 107.061 69.9393 106.97 69.7739C106.88 69.6086 106.754 69.4806 106.594 69.3899C106.434 69.2939 106.248 69.2459 106.034 69.2459C105.821 69.2459 105.632 69.2939 105.466 69.3899C105.306 69.4806 105.181 69.6113 105.09 69.7819C105 69.9473 104.954 70.1446 104.954 70.3739V70.5659C104.954 70.8006 105.005 71.0086 105.106 71.1899C105.213 71.3659 105.36 71.5019 105.546 71.5979C105.738 71.6886 105.962 71.7339 106.218 71.7339C106.448 71.7339 106.648 71.6993 106.818 71.6299C106.994 71.5606 107.154 71.4566 107.298 71.3179L107.962 72.0379C107.765 72.2619 107.517 72.4353 107.218 72.5579C106.92 72.6753 106.576 72.7339 106.186 72.7339ZM109.097 72.6699V68.3659H110.289V69.5819L110.121 69.2299C110.249 68.9259 110.455 68.6966 110.737 68.5419C111.02 68.3819 111.364 68.3019 111.769 68.3019V69.4539C111.716 69.4486 111.668 69.4459 111.625 69.4459C111.583 69.4406 111.537 69.4379 111.489 69.4379C111.148 69.4379 110.871 69.5366 110.657 69.7339C110.449 69.9259 110.345 70.2273 110.345 70.6379V72.6699H109.097ZM114.328 72.7339C113.923 72.7339 113.557 72.6433 113.232 72.4619C112.907 72.2753 112.648 72.0166 112.456 71.6859C112.269 71.3553 112.176 70.9659 112.176 70.5179C112.176 70.0646 112.269 69.6726 112.456 69.3419C112.648 69.0113 112.907 68.7553 113.232 68.5739C113.557 68.3926 113.923 68.3019 114.328 68.3019C114.691 68.3019 115.008 68.3819 115.28 68.5419C115.552 68.7019 115.763 68.9446 115.912 69.2699C116.061 69.5953 116.136 70.0113 116.136 70.5179C116.136 71.0193 116.064 71.4353 115.92 71.7659C115.776 72.0913 115.568 72.3339 115.296 72.4939C115.029 72.6539 114.707 72.7339 114.328 72.7339ZM114.544 71.7099C114.747 71.7099 114.931 71.6619 115.096 71.5659C115.261 71.4699 115.392 71.3339 115.488 71.1579C115.589 70.9766 115.64 70.7633 115.64 70.5179C115.64 70.2673 115.589 70.0539 115.488 69.8779C115.392 69.7019 115.261 69.5659 115.096 69.4699C114.931 69.3739 114.747 69.3259 114.544 69.3259C114.336 69.3259 114.149 69.3739 113.984 69.4699C113.819 69.5659 113.685 69.7019 113.584 69.8779C113.488 70.0539 113.44 70.2673 113.44 70.5179C113.44 70.7633 113.488 70.9766 113.584 71.1579C113.685 71.3339 113.819 71.4699 113.984 71.5659C114.149 71.6619 114.336 71.7099 114.544 71.7099ZM115.672 72.6699V71.7899L115.696 70.5099L115.616 69.2379V66.7339H116.864V72.6699H115.672ZM120.067 72.7339C119.608 72.7339 119.2 72.6379 118.843 72.4459C118.491 72.2539 118.211 71.9926 118.003 71.6619C117.8 71.3259 117.699 70.9446 117.699 70.5179C117.699 70.0859 117.8 69.7046 118.003 69.3739C118.211 69.0379 118.491 68.7766 118.843 68.5899C119.2 68.3979 119.608 68.3019 120.067 68.3019C120.52 68.3019 120.926 68.3979 121.283 68.5899C121.64 68.7766 121.92 69.0353 122.123 69.3659C122.326 69.6966 122.427 70.0806 122.427 70.5179C122.427 70.9446 122.326 71.3259 122.123 71.6619C121.92 71.9926 121.64 72.2539 121.283 72.4459C120.926 72.6379 120.52 72.7339 120.067 72.7339ZM120.067 71.7099C120.275 71.7099 120.462 71.6619 120.627 71.5659C120.792 71.4699 120.923 71.3339 121.019 71.1579C121.115 70.9766 121.163 70.7633 121.163 70.5179C121.163 70.2673 121.115 70.0539 121.019 69.8779C120.923 69.7019 120.792 69.5659 120.627 69.4699C120.462 69.3739 120.275 69.3259 120.067 69.3259C119.859 69.3259 119.672 69.3739 119.507 69.4699C119.342 69.5659 119.208 69.7019 119.107 69.8779C119.011 70.0539 118.963 70.2673 118.963 70.5179C118.963 70.7633 119.011 70.9766 119.107 71.1579C119.208 71.3339 119.342 71.4699 119.507 71.5659C119.672 71.6619 119.859 71.7099 120.067 71.7099Z" fill="#333333"/>
<path fill-rule="evenodd" clip-rule="evenodd" d="M158.801 89.6467C158.801 86.8222 157.701 84.1135 155.742 82.1163C153.783 80.1191 151.127 78.9971 148.357 78.9971C122.678 78.9971 66.8921 79 66.8921 79L62.2991 83.2504H46.4223L41.8261 79H27.2042C24.4342 79 21.7777 80.1221 19.8191 82.1193C17.8604 84.1164 16.76 86.8252 16.76 89.6497C16.76 89.6527 16.76 89.6559 16.76 89.6591C16.76 92.4835 17.8604 95.1922 19.8191 97.1894C21.7777 99.1866 24.4342 100.309 27.2042 100.309C34.0833 100.309 41.8261 100.309 41.8261 100.309L46.4223 104.559H62.2959L66.8921 100.309L148.357 100.306C151.127 100.306 153.783 99.1837 155.742 97.1865C157.701 95.1893 158.801 92.4806 158.801 89.6561C158.801 89.6529 158.801 89.6498 158.801 89.6467Z" fill="#30DCFF"/>
<path fill-rule="evenodd" clip-rule="evenodd" d="M158.801 89.6501C158.801 86.8256 157.701 84.1169 155.742 82.1197C153.783 80.1225 151.127 79.0005 148.357 79.0005C122.678 79.0005 66.8921 79.0005 66.8921 79.0005L62.2991 83.2508H46.4223L41.8261 79.0005H27.2042C24.4342 79.0005 21.7777 80.1225 19.8191 82.1197C17.8604 84.1169 16.76 86.8256 16.76 89.6501C16.76 89.6532 16.76 89.6548 16.76 89.6548H19.2666C19.2666 85.0493 22.9282 81.3156 27.4449 81.3156C33.5352 81.3156 40.8003 81.3156 40.8003 81.3156L45.3965 85.566H63.3405L67.9367 81.3156H148.117C152.633 81.3156 156.295 85.0492 156.295 89.6547L158.801 89.6548V89.6501Z" fill="#93EDFF"/>
<path fill-rule="evenodd" clip-rule="evenodd" d="M158.801 89.6519H156.294V89.6525C156.294 91.8632 155.433 93.9835 153.9 95.5467C152.367 97.11 150.288 97.9882 148.12 97.9882C124.444 97.9882 65.8539 97.9882 65.8539 97.9882L61.2577 102.239H47.4606L42.8644 97.9882H27.4416C22.9267 97.9882 19.2666 94.2562 19.2666 89.6525V89.6519H16.76V89.6566C16.76 92.481 17.8604 95.1898 19.8191 97.187C21.7777 99.1841 24.4342 100.306 27.2042 100.306C34.0833 100.306 41.8261 100.306 41.8261 100.306L46.4223 104.557H62.2959L66.8921 100.306H148.357C154.125 100.306 158.801 95.5384 158.801 89.6569C158.801 89.6535 158.801 89.6519 158.801 89.6519Z" fill="#08A0BF"/>
<path d="M27.504 93.431C27.056 93.431 26.6267 93.3723 26.216 93.255C25.8053 93.1323 25.4747 92.975 25.224 92.783L25.664 91.807C25.904 91.9776 26.1867 92.119 26.512 92.231C26.8427 92.3376 27.176 92.391 27.512 92.391C27.768 92.391 27.9733 92.367 28.128 92.319C28.288 92.2656 28.4053 92.1936 28.48 92.103C28.5547 92.0123 28.592 91.9083 28.592 91.791C28.592 91.6416 28.5333 91.5243 28.416 91.439C28.2987 91.3483 28.144 91.2763 27.952 91.223C27.76 91.1643 27.5467 91.111 27.312 91.063C27.0827 91.0096 26.8507 90.9456 26.616 90.871C26.3867 90.7963 26.176 90.7003 25.984 90.583C25.792 90.4656 25.6347 90.311 25.512 90.119C25.3947 89.927 25.336 89.6816 25.336 89.383C25.336 89.063 25.4213 88.7723 25.592 88.511C25.768 88.2443 26.0293 88.0336 26.376 87.879C26.728 87.719 27.168 87.639 27.696 87.639C28.048 87.639 28.3947 87.6816 28.736 87.767C29.0773 87.847 29.3787 87.9696 29.64 88.135L29.24 89.119C28.9787 88.9696 28.7173 88.8603 28.456 88.791C28.1947 88.7163 27.9387 88.679 27.688 88.679C27.4373 88.679 27.232 88.7083 27.072 88.767C26.912 88.8256 26.7973 88.903 26.728 88.999C26.6587 89.0896 26.624 89.1963 26.624 89.319C26.624 89.463 26.6827 89.5803 26.8 89.671C26.9173 89.7563 27.072 89.8256 27.264 89.879C27.456 89.9323 27.6667 89.9856 27.896 90.039C28.1307 90.0923 28.3627 90.1536 28.592 90.223C28.8267 90.2923 29.04 90.3856 29.232 90.503C29.424 90.6203 29.5787 90.775 29.696 90.967C29.8187 91.159 29.88 91.4016 29.88 91.695C29.88 92.0096 29.792 92.2976 29.616 92.559C29.44 92.8203 29.176 93.031 28.824 93.191C28.4773 93.351 28.0373 93.431 27.504 93.431ZM32.7256 93.399C32.2669 93.399 31.8589 93.303 31.5016 93.111C31.1496 92.919 30.8696 92.6576 30.6616 92.327C30.4589 91.991 30.3576 91.6096 30.3576 91.183C30.3576 90.751 30.4589 90.3696 30.6616 90.039C30.8696 89.703 31.1496 89.4416 31.5016 89.255C31.8589 89.063 32.2669 88.967 32.7256 88.967C33.1789 88.967 33.5842 89.063 33.9416 89.255C34.2989 89.4416 34.5789 89.7003 34.7816 90.031C34.9842 90.3616 35.0856 90.7456 35.0856 91.183C35.0856 91.6096 34.9842 91.991 34.7816 92.327C34.5789 92.6576 34.2989 92.919 33.9416 93.111C33.5842 93.303 33.1789 93.399 32.7256 93.399ZM32.7256 92.375C32.9336 92.375 33.1202 92.327 33.2856 92.231C33.4509 92.135 33.5816 91.999 33.6776 91.823C33.7736 91.6416 33.8216 91.4283 33.8216 91.183C33.8216 90.9323 33.7736 90.719 33.6776 90.543C33.5816 90.367 33.4509 90.231 33.2856 90.135C33.1202 90.039 32.9336 89.991 32.7256 89.991C32.5176 89.991 32.3309 90.039 32.1656 90.135C32.0002 90.231 31.8669 90.367 31.7656 90.543C31.6696 90.719 31.6216 90.9323 31.6216 91.183C31.6216 91.4283 31.6696 91.6416 31.7656 91.823C31.8669 91.999 32.0002 92.135 32.1656 92.231C32.3309 92.327 32.5176 92.375 32.7256 92.375ZM35.9198 93.335V89.031H37.1118V90.247L36.9438 89.895C37.0718 89.591 37.2771 89.3616 37.5598 89.207C37.8424 89.047 38.1864 88.967 38.5918 88.967V90.119C38.5384 90.1136 38.4904 90.111 38.4478 90.111C38.4051 90.1056 38.3598 90.103 38.3118 90.103C37.9704 90.103 37.6931 90.2016 37.4798 90.399C37.2718 90.591 37.1678 90.8923 37.1678 91.303V93.335H35.9198ZM39.3416 93.335V89.031H40.5336V90.247L40.3656 89.895C40.4936 89.591 40.699 89.3616 40.9816 89.207C41.2643 89.047 41.6083 88.967 42.0136 88.967V90.119C41.9603 90.1136 41.9123 90.111 41.8696 90.111C41.827 90.1056 41.7816 90.103 41.7336 90.103C41.3923 90.103 41.115 90.2016 40.9016 90.399C40.6936 90.591 40.5896 90.8923 40.5896 91.303V93.335H39.3416ZM42.7635 93.335V89.031H44.0115V93.335H42.7635ZM43.3875 88.431C43.1582 88.431 42.9715 88.3643 42.8275 88.231C42.6835 88.0976 42.6115 87.9323 42.6115 87.735C42.6115 87.5376 42.6835 87.3723 42.8275 87.239C42.9715 87.1056 43.1582 87.039 43.3875 87.039C43.6168 87.039 43.8035 87.103 43.9475 87.231C44.0915 87.3536 44.1635 87.5136 44.1635 87.711C44.1635 87.919 44.0915 88.0923 43.9475 88.231C43.8088 88.3643 43.6222 88.431 43.3875 88.431ZM46.6178 93.399C46.2498 93.399 45.8951 93.3563 45.5538 93.271C45.2178 93.1803 44.9511 93.0683 44.7538 92.935L45.1698 92.039C45.3671 92.1616 45.5991 92.263 45.8658 92.343C46.1378 92.4176 46.4044 92.455 46.6658 92.455C46.9538 92.455 47.1564 92.4203 47.2738 92.351C47.3964 92.2816 47.4578 92.1856 47.4578 92.063C47.4578 91.9616 47.4098 91.887 47.3138 91.839C47.2231 91.7856 47.1004 91.7456 46.9457 91.719C46.7911 91.6923 46.6204 91.6656 46.4338 91.639C46.2524 91.6123 46.0684 91.5776 45.8818 91.535C45.6951 91.487 45.5244 91.4176 45.3698 91.327C45.2151 91.2363 45.0898 91.1136 44.9938 90.959C44.9031 90.8043 44.8577 90.6043 44.8577 90.359C44.8577 90.087 44.9351 89.847 45.0898 89.639C45.2498 89.431 45.4791 89.2683 45.7778 89.151C46.0764 89.0283 46.4338 88.967 46.8498 88.967C47.1431 88.967 47.4418 88.999 47.7458 89.063C48.0498 89.127 48.3031 89.2203 48.5058 89.343L48.0898 90.231C47.8818 90.1083 47.6711 90.0256 47.4578 89.983C47.2498 89.935 47.0471 89.911 46.8498 89.911C46.5724 89.911 46.3698 89.9483 46.2418 90.023C46.1138 90.0976 46.0498 90.1936 46.0498 90.311C46.0498 90.4176 46.0951 90.4976 46.1858 90.551C46.2818 90.6043 46.4071 90.647 46.5618 90.679C46.7164 90.711 46.8844 90.7403 47.0658 90.767C47.2524 90.7883 47.4391 90.823 47.6258 90.871C47.8124 90.919 47.9804 90.9883 48.1298 91.079C48.2844 91.1643 48.4098 91.2843 48.5058 91.439C48.6018 91.5883 48.6498 91.7856 48.6498 92.031C48.6498 92.2976 48.5698 92.535 48.4098 92.743C48.2498 92.9456 48.0178 93.1056 47.7138 93.223C47.4151 93.3403 47.0498 93.399 46.6178 93.399ZM51.4678 93.399C51.0091 93.399 50.6011 93.303 50.2438 93.111C49.8918 92.919 49.6118 92.6576 49.4038 92.327C49.2011 91.991 49.0998 91.6096 49.0998 91.183C49.0998 90.751 49.2011 90.3696 49.4038 90.039C49.6118 89.703 49.8918 89.4416 50.2438 89.255C50.6011 89.063 51.0091 88.967 51.4678 88.967C51.9211 88.967 52.3264 89.063 52.6838 89.255C53.0411 89.4416 53.3211 89.7003 53.5238 90.031C53.7264 90.3616 53.8278 90.7456 53.8278 91.183C53.8278 91.6096 53.7264 91.991 53.5238 92.327C53.3211 92.6576 53.0411 92.919 52.6838 93.111C52.3264 93.303 51.9211 93.399 51.4678 93.399ZM51.4678 92.375C51.6758 92.375 51.8624 92.327 52.0278 92.231C52.1931 92.135 52.3238 91.999 52.4198 91.823C52.5158 91.6416 52.5638 91.4283 52.5638 91.183C52.5638 90.9323 52.5158 90.719 52.4198 90.543C52.3238 90.367 52.1931 90.231 52.0278 90.135C51.8624 90.039 51.6758 89.991 51.4678 89.991C51.2598 89.991 51.0731 90.039 50.9078 90.135C50.7424 90.231 50.6091 90.367 50.5078 90.543C50.4118 90.719 50.3638 90.9323 50.3638 91.183C50.3638 91.4283 50.4118 91.6416 50.5078 91.823C50.6091 91.999 50.7424 92.135 50.9078 92.231C51.0731 92.327 51.2598 92.375 51.4678 92.375Z" fill="#333333"/>
</svg>
