<svg width="180" height="183" viewBox="0 0 180 183" fill="none" xmlns="http://www.w3.org/2000/svg">
<g filter="url(#filter0_d_11_386)">
<rect width="180" height="180" rx="12.8571" fill="#F2F2F2"/>
<path fill-rule="evenodd" clip-rule="evenodd" d="M170.357 45.0004C170.357 37.929 165.857 33.429 158.786 33.429C133.661 33.429 149.172 33.429 131.143 33.429C126.174 33.429 123.933 31.9912 121.179 29.2504C115.195 23.6702 100.146 14.7861 67.1318 14.7861C20.587 14.7861 9.64282 33.429 9.64282 33.429C9.64282 33.429 9.6431 36.463 9.64324 45.0004C9.64324 51.429 14.7857 56.5718 21.2143 56.5718C38.242 56.5718 66.8571 56.5718 66.8571 56.5718L72.6428 61.7147H96.4285L101.571 56.5718C101.571 56.5718 123.448 56.5718 158.786 56.5718C165.857 56.5718 170.357 52.0718 170.357 45.0004C170.357 46.2009 170.357 43.1569 170.357 45.0004Z" fill="#FC79FF"/>
<path fill-rule="evenodd" clip-rule="evenodd" d="M167.143 45C167.143 50.1429 164.571 53.3571 158.786 53.3571L100.286 53.3571L95.1429 58.5H73.9286L68.1429 53.3571C68.1429 53.3571 37.5386 53.3571 21.2143 53.3571C16.0485 53.3571 12.8571 49.5 12.8571 45H9.64282C9.64282 51.4286 14.7857 56.5714 21.2143 56.5714C38.2119 56.5714 66.8571 56.5714 66.8571 56.5714L72.6603 61.7143H96.4286L101.571 56.5714L158.786 56.5714C165.857 56.5714 170.357 52.0714 170.357 45C169.393 45 168.429 45 167.143 45Z" fill="black" fill-opacity="0.25"/>
<path fill-rule="evenodd" clip-rule="evenodd" d="M9.64282 45.0004H12.8571V34.7147C12.8571 34.7147 22.4955 18.0004 67.0408 18.0004C97.291 18.0004 112.858 26.1294 119.25 31.5004C122.331 34.0912 126.457 36.6125 130.5 36.6433C135.964 36.6433 148.799 36.6433 158.786 36.6433C163.906 36.6433 167.143 40.179 167.143 44.3576V45.0004H169.714H170.357C170.357 37.929 165.857 33.429 158.786 33.429C133.71 33.429 148.505 33.429 130.5 33.429C126 33.429 123.537 31.603 120.995 29.0618C115.03 23.4646 100.01 14.7861 67.0293 14.7861C20.5137 14.7861 9.64282 33.429 9.64282 33.429L9.64282 45.0004Z" fill="white" fill-opacity="0.5"/>
<path d="M18.0795 46.2861L16.2475 40.6861H17.5915L19.1835 45.6461H18.5115L20.1755 40.6861H21.3755L22.9755 45.6461H22.3275L23.9595 40.6861H25.1995L23.3675 46.2861H21.9755L20.5595 41.9341H20.9275L19.4715 46.2861H18.0795ZM28.5682 41.9181C28.9096 41.9181 29.2136 41.9875 29.4802 42.1261C29.7522 42.2595 29.9656 42.4675 30.1202 42.7501C30.2749 43.0275 30.3522 43.3848 30.3522 43.8221V46.2861H29.1042V44.0141C29.1042 43.6675 29.0269 43.4115 28.8722 43.2461C28.7229 43.0808 28.5096 42.9981 28.2322 42.9981C28.0349 42.9981 27.8562 43.0408 27.6962 43.1261C27.5416 43.2061 27.4189 43.3315 27.3282 43.5021C27.2429 43.6728 27.2002 43.8915 27.2002 44.1581V46.2861H25.9522V40.3501H27.2002V43.1741L26.9202 42.8141C27.0749 42.5261 27.2962 42.3048 27.5842 42.1501C27.8722 41.9955 28.2002 41.9181 28.5682 41.9181ZM33.6507 46.3501C33.1601 46.3501 32.7281 46.2541 32.3547 46.0621C31.9867 45.8701 31.7014 45.6088 31.4987 45.2781C31.2961 44.9421 31.1947 44.5608 31.1947 44.1341C31.1947 43.7021 31.2934 43.3208 31.4907 42.9901C31.6934 42.6541 31.9681 42.3928 32.3147 42.2061C32.6614 42.0141 33.0534 41.9181 33.4907 41.9181C33.9121 41.9181 34.2907 42.0088 34.6267 42.1901C34.9681 42.3661 35.2374 42.6221 35.4347 42.9581C35.6321 43.2888 35.7307 43.6861 35.7307 44.1501C35.7307 44.1981 35.7281 44.2541 35.7227 44.3181C35.7174 44.3768 35.7121 44.4328 35.7067 44.4861H32.2107V43.7581H35.0507L34.5707 43.9741C34.5707 43.7501 34.5254 43.5555 34.4347 43.3901C34.3441 43.2248 34.2187 43.0968 34.0587 43.0061C33.8987 42.9101 33.7121 42.8621 33.4987 42.8621C33.2854 42.8621 33.0961 42.9101 32.9307 43.0061C32.7707 43.0968 32.6454 43.2275 32.5547 43.3981C32.4641 43.5635 32.4187 43.7608 32.4187 43.9901V44.1821C32.4187 44.4168 32.4694 44.6248 32.5707 44.8061C32.6774 44.9821 32.8241 45.1181 33.0107 45.2141C33.2027 45.3048 33.4267 45.3501 33.6827 45.3501C33.9121 45.3501 34.1121 45.3155 34.2827 45.2461C34.4587 45.1768 34.6187 45.0728 34.7627 44.9341L35.4267 45.6541C35.2294 45.8781 34.9814 46.0515 34.6827 46.1741C34.3841 46.2915 34.0401 46.3501 33.6507 46.3501ZM39.1776 41.9181C39.5189 41.9181 39.8229 41.9875 40.0896 42.1261C40.3616 42.2595 40.5749 42.4675 40.7296 42.7501C40.8843 43.0275 40.9616 43.3848 40.9616 43.8221V46.2861H39.7136V44.0141C39.7136 43.6675 39.6363 43.4115 39.4816 43.2461C39.3323 43.0808 39.1189 42.9981 38.8416 42.9981C38.6443 42.9981 38.4656 43.0408 38.3056 43.1261C38.1509 43.2061 38.0283 43.3315 37.9376 43.5021C37.8523 43.6728 37.8096 43.8915 37.8096 44.1581V46.2861H36.5616V41.9821H37.7536V43.1741L37.5296 42.8141C37.6843 42.5261 37.9056 42.3048 38.1936 42.1501C38.4816 41.9955 38.8096 41.9181 39.1776 41.9181ZM42.5648 43.4781C42.3515 43.4781 42.1675 43.4061 42.0128 43.2621C41.8635 43.1128 41.7888 42.9235 41.7888 42.6941C41.7888 42.4648 41.8635 42.2808 42.0128 42.1421C42.1675 41.9981 42.3515 41.9261 42.5648 41.9261C42.7835 41.9261 42.9675 41.9981 43.1168 42.1421C43.2662 42.2808 43.3408 42.4648 43.3408 42.6941C43.3408 42.9235 43.2662 43.1128 43.1168 43.2621C42.9675 43.4061 42.7835 43.4781 42.5648 43.4781ZM42.5648 46.3501C42.3515 46.3501 42.1675 46.2781 42.0128 46.1341C41.8635 45.9848 41.7888 45.7955 41.7888 45.5661C41.7888 45.3368 41.8635 45.1528 42.0128 45.0141C42.1675 44.8701 42.3515 44.7981 42.5648 44.7981C42.7835 44.7981 42.9675 44.8701 43.1168 45.0141C43.2662 45.1528 43.3408 45.3368 43.3408 45.5661C43.3408 45.7955 43.2662 45.9848 43.1168 46.1341C42.9675 46.2781 42.7835 46.3501 42.5648 46.3501ZM48.9962 46.3501C48.6336 46.3501 48.3162 46.2701 48.0442 46.1101C47.7722 45.9501 47.5589 45.7075 47.4042 45.3821C47.2549 45.0515 47.1802 44.6355 47.1802 44.1341C47.1802 43.6275 47.2522 43.2115 47.3962 42.8861C47.5402 42.5608 47.7482 42.3181 48.0202 42.1581C48.2922 41.9981 48.6176 41.9181 48.9962 41.9181C49.4016 41.9181 49.7642 42.0115 50.0842 42.1981C50.4096 42.3795 50.6656 42.6355 50.8522 42.9661C51.0442 43.2968 51.1402 43.6861 51.1402 44.1341C51.1402 44.5875 51.0442 44.9795 50.8522 45.3101C50.6656 45.6408 50.4096 45.8968 50.0842 46.0781C49.7642 46.2595 49.4016 46.3501 48.9962 46.3501ZM46.4522 47.8381V41.9821H47.6442V42.8621L47.6202 44.1421L47.7002 45.4141V47.8381H46.4522ZM48.7802 45.3261C48.9882 45.3261 49.1722 45.2781 49.3322 45.1821C49.4976 45.0861 49.6282 44.9501 49.7242 44.7741C49.8256 44.5928 49.8762 44.3795 49.8762 44.1341C49.8762 43.8835 49.8256 43.6701 49.7242 43.4941C49.6282 43.3181 49.4976 43.1821 49.3322 43.0861C49.1722 42.9901 48.9882 42.9421 48.7802 42.9421C48.5722 42.9421 48.3856 42.9901 48.2202 43.0861C48.0549 43.1821 47.9242 43.3181 47.8282 43.4941C47.7322 43.6701 47.6842 43.8835 47.6842 44.1341C47.6842 44.3795 47.7322 44.5928 47.8282 44.7741C47.9242 44.9501 48.0549 45.0861 48.2202 45.1821C48.3856 45.2781 48.5722 45.3261 48.7802 45.3261ZM51.9757 46.2861V41.9821H53.1677V43.1981L52.9997 42.8461C53.1277 42.5421 53.333 42.3128 53.6157 42.1581C53.8983 41.9981 54.2423 41.9181 54.6477 41.9181V43.0701C54.5943 43.0648 54.5463 43.0621 54.5037 43.0621C54.461 43.0568 54.4157 43.0541 54.3677 43.0541C54.0263 43.0541 53.749 43.1528 53.5357 43.3501C53.3277 43.5421 53.2237 43.8435 53.2237 44.2541V46.2861H51.9757ZM57.4945 46.3501C57.0038 46.3501 56.5718 46.2541 56.1985 46.0621C55.8305 45.8701 55.5451 45.6088 55.3425 45.2781C55.1398 44.9421 55.0385 44.5608 55.0385 44.1341C55.0385 43.7021 55.1371 43.3208 55.3345 42.9901C55.5371 42.6541 55.8118 42.3928 56.1585 42.2061C56.5051 42.0141 56.8971 41.9181 57.3345 41.9181C57.7558 41.9181 58.1345 42.0088 58.4705 42.1901C58.8118 42.3661 59.0811 42.6221 59.2785 42.9581C59.4758 43.2888 59.5745 43.6861 59.5745 44.1501C59.5745 44.1981 59.5718 44.2541 59.5665 44.3181C59.5611 44.3768 59.5558 44.4328 59.5505 44.4861H56.0545V43.7581H58.8945L58.4145 43.9741C58.4145 43.7501 58.3691 43.5555 58.2785 43.3901C58.1878 43.2248 58.0625 43.0968 57.9025 43.0061C57.7425 42.9101 57.5558 42.8621 57.3425 42.8621C57.1291 42.8621 56.9398 42.9101 56.7745 43.0061C56.6145 43.0968 56.4891 43.2275 56.3985 43.3981C56.3078 43.5635 56.2625 43.7608 56.2625 43.9901V44.1821C56.2625 44.4168 56.3131 44.6248 56.4145 44.8061C56.5211 44.9821 56.6678 45.1181 56.8545 45.2141C57.0465 45.3048 57.2705 45.3501 57.5265 45.3501C57.7558 45.3501 57.9558 45.3155 58.1265 45.2461C58.3025 45.1768 58.4625 45.0728 58.6065 44.9341L59.2705 45.6541C59.0731 45.8781 58.8251 46.0515 58.5265 46.1741C58.2278 46.2915 57.8838 46.3501 57.4945 46.3501ZM61.8533 46.3501C61.4853 46.3501 61.1307 46.3075 60.7893 46.2221C60.4533 46.1315 60.1867 46.0195 59.9893 45.8861L60.4053 44.9901C60.6027 45.1128 60.8347 45.2141 61.1013 45.2941C61.3733 45.3688 61.64 45.4061 61.9013 45.4061C62.1893 45.4061 62.392 45.3715 62.5093 45.3021C62.632 45.2328 62.6933 45.1368 62.6933 45.0141C62.6933 44.9128 62.6453 44.8381 62.5493 44.7901C62.4587 44.7368 62.336 44.6968 62.1813 44.6701C62.0267 44.6435 61.856 44.6168 61.6693 44.5901C61.488 44.5635 61.304 44.5288 61.1173 44.4861C60.9307 44.4381 60.76 44.3688 60.6053 44.2781C60.4507 44.1875 60.3253 44.0648 60.2293 43.9101C60.1387 43.7555 60.0933 43.5555 60.0933 43.3101C60.0933 43.0381 60.1707 42.7981 60.3253 42.5901C60.4853 42.3821 60.7147 42.2195 61.0133 42.1021C61.312 41.9795 61.6693 41.9181 62.0853 41.9181C62.3787 41.9181 62.6773 41.9501 62.9813 42.0141C63.2853 42.0781 63.5387 42.1715 63.7413 42.2941L63.3253 43.1821C63.1173 43.0595 62.9067 42.9768 62.6933 42.9341C62.4853 42.8861 62.2827 42.8621 62.0853 42.8621C61.808 42.8621 61.6053 42.8995 61.4773 42.9741C61.3493 43.0488 61.2853 43.1448 61.2853 43.2621C61.2853 43.3688 61.3307 43.4488 61.4213 43.5021C61.5173 43.5555 61.6427 43.5981 61.7973 43.6301C61.952 43.6621 62.12 43.6915 62.3013 43.7181C62.488 43.7395 62.6747 43.7741 62.8613 43.8221C63.048 43.8701 63.216 43.9395 63.3653 44.0301C63.52 44.1155 63.6453 44.2355 63.7413 44.3901C63.8373 44.5395 63.8853 44.7368 63.8853 44.9821C63.8853 45.2488 63.8053 45.4861 63.6453 45.6941C63.4853 45.8968 63.2533 46.0568 62.9493 46.1741C62.6507 46.2915 62.2853 46.3501 61.8533 46.3501ZM66.1033 46.3501C65.7353 46.3501 65.3807 46.3075 65.0393 46.2221C64.7033 46.1315 64.4367 46.0195 64.2393 45.8861L64.6553 44.9901C64.8527 45.1128 65.0847 45.2141 65.3513 45.2941C65.6233 45.3688 65.89 45.4061 66.1513 45.4061C66.4393 45.4061 66.642 45.3715 66.7593 45.3021C66.882 45.2328 66.9433 45.1368 66.9433 45.0141C66.9433 44.9128 66.8953 44.8381 66.7993 44.7901C66.7087 44.7368 66.586 44.6968 66.4313 44.6701C66.2767 44.6435 66.106 44.6168 65.9193 44.5901C65.738 44.5635 65.554 44.5288 65.3673 44.4861C65.1807 44.4381 65.01 44.3688 64.8553 44.2781C64.7007 44.1875 64.5753 44.0648 64.4793 43.9101C64.3887 43.7555 64.3433 43.5555 64.3433 43.3101C64.3433 43.0381 64.4207 42.7981 64.5753 42.5901C64.7353 42.3821 64.9647 42.2195 65.2633 42.1021C65.562 41.9795 65.9193 41.9181 66.3353 41.9181C66.6287 41.9181 66.9273 41.9501 67.2313 42.0141C67.5353 42.0781 67.7887 42.1715 67.9913 42.2941L67.5753 43.1821C67.3673 43.0595 67.1567 42.9768 66.9433 42.9341C66.7353 42.8861 66.5327 42.8621 66.3353 42.8621C66.058 42.8621 65.8553 42.8995 65.7273 42.9741C65.5993 43.0488 65.5353 43.1448 65.5353 43.2621C65.5353 43.3688 65.5807 43.4488 65.6713 43.5021C65.7673 43.5555 65.8927 43.5981 66.0473 43.6301C66.202 43.6621 66.37 43.6915 66.5513 43.7181C66.738 43.7395 66.9247 43.7741 67.1113 43.8221C67.298 43.8701 67.466 43.9395 67.6153 44.0301C67.77 44.1155 67.8953 44.2355 67.9913 44.3901C68.0873 44.5395 68.1353 44.7368 68.1353 44.9821C68.1353 45.2488 68.0553 45.4861 67.8953 45.6941C67.7353 45.8968 67.5033 46.0568 67.1993 46.1741C66.9007 46.2915 66.5353 46.3501 66.1033 46.3501ZM72.619 46.3501C72.251 46.3501 71.8963 46.3075 71.555 46.2221C71.219 46.1315 70.9523 46.0195 70.755 45.8861L71.171 44.9901C71.3683 45.1128 71.6003 45.2141 71.867 45.2941C72.139 45.3688 72.4056 45.4061 72.667 45.4061C72.955 45.4061 73.1576 45.3715 73.275 45.3021C73.3976 45.2328 73.459 45.1368 73.459 45.0141C73.459 44.9128 73.411 44.8381 73.315 44.7901C73.2243 44.7368 73.1016 44.6968 72.947 44.6701C72.7923 44.6435 72.6216 44.6168 72.435 44.5901C72.2536 44.5635 72.0696 44.5288 71.883 44.4861C71.6963 44.4381 71.5256 44.3688 71.371 44.2781C71.2163 44.1875 71.091 44.0648 70.995 43.9101C70.9043 43.7555 70.859 43.5555 70.859 43.3101C70.859 43.0381 70.9363 42.7981 71.091 42.5901C71.251 42.3821 71.4803 42.2195 71.779 42.1021C72.0776 41.9795 72.435 41.9181 72.851 41.9181C73.1443 41.9181 73.443 41.9501 73.747 42.0141C74.051 42.0781 74.3043 42.1715 74.507 42.2941L74.091 43.1821C73.883 43.0595 73.6723 42.9768 73.459 42.9341C73.251 42.8861 73.0483 42.8621 72.851 42.8621C72.5736 42.8621 72.371 42.8995 72.243 42.9741C72.115 43.0488 72.051 43.1448 72.051 43.2621C72.051 43.3688 72.0963 43.4488 72.187 43.5021C72.283 43.5555 72.4083 43.5981 72.563 43.6301C72.7176 43.6621 72.8856 43.6915 73.067 43.7181C73.2536 43.7395 73.4403 43.7741 73.627 43.8221C73.8136 43.8701 73.9816 43.9395 74.131 44.0301C74.2856 44.1155 74.411 44.2355 74.507 44.3901C74.603 44.5395 74.651 44.7368 74.651 44.9821C74.651 45.2488 74.571 45.4861 74.411 45.6941C74.251 45.8968 74.019 46.0568 73.715 46.1741C73.4163 46.2915 73.051 46.3501 72.619 46.3501ZM77.181 46.3501C76.6743 46.3501 76.2796 46.2221 75.997 45.9661C75.7143 45.7048 75.573 45.3181 75.573 44.8061V41.0301H76.821V44.7901C76.821 44.9715 76.869 45.1128 76.965 45.2141C77.061 45.3101 77.1916 45.3581 77.357 45.3581C77.5543 45.3581 77.7223 45.3048 77.861 45.1981L78.197 46.0781C78.069 46.1688 77.9143 46.2381 77.733 46.2861C77.557 46.3288 77.373 46.3501 77.181 46.3501ZM74.909 43.0381V42.0781H77.893V43.0381H74.909ZM81.5375 46.2861V45.4461L81.4575 45.2621V43.7581C81.4575 43.4915 81.3749 43.2835 81.2095 43.1341C81.0495 42.9848 80.8015 42.9101 80.4655 42.9101C80.2362 42.9101 80.0095 42.9475 79.7855 43.0221C79.5669 43.0915 79.3802 43.1875 79.2255 43.3101L78.7775 42.4381C79.0122 42.2728 79.2949 42.1448 79.6255 42.0541C79.9562 41.9635 80.2922 41.9181 80.6335 41.9181C81.2895 41.9181 81.7989 42.0728 82.1615 42.3821C82.5242 42.6915 82.7055 43.1741 82.7055 43.8301V46.2861H81.5375ZM80.2255 46.3501C79.8895 46.3501 79.6015 46.2941 79.3615 46.1821C79.1215 46.0648 78.9375 45.9075 78.8095 45.7101C78.6815 45.5128 78.6175 45.2915 78.6175 45.0461C78.6175 44.7901 78.6789 44.5661 78.8015 44.3741C78.9295 44.1821 79.1295 44.0328 79.4015 43.9261C79.6735 43.8141 80.0282 43.7581 80.4655 43.7581H81.6095V44.4861H80.6015C80.3082 44.4861 80.1055 44.5341 79.9935 44.6301C79.8869 44.7261 79.8335 44.8461 79.8335 44.9901C79.8335 45.1501 79.8949 45.2781 80.0175 45.3741C80.1455 45.4648 80.3189 45.5101 80.5375 45.5101C80.7455 45.5101 80.9322 45.4621 81.0975 45.3661C81.2629 45.2648 81.3829 45.1181 81.4575 44.9261L81.6495 45.5021C81.5589 45.7795 81.3935 45.9901 81.1535 46.1341C80.9135 46.2781 80.6042 46.3501 80.2255 46.3501ZM83.835 46.2861V41.9821H85.027V43.1981L84.859 42.8461C84.987 42.5421 85.1924 42.3128 85.475 42.1581C85.7577 41.9981 86.1017 41.9181 86.507 41.9181V43.0701C86.4537 43.0648 86.4057 43.0621 86.363 43.0621C86.3204 43.0568 86.275 43.0541 86.227 43.0541C85.8857 43.0541 85.6084 43.1528 85.395 43.3501C85.187 43.5421 85.083 43.8435 85.083 44.2541V46.2861H83.835ZM89.1575 46.3501C88.6509 46.3501 88.2562 46.2221 87.9735 45.9661C87.6909 45.7048 87.5495 45.3181 87.5495 44.8061V41.0301H88.7975V44.7901C88.7975 44.9715 88.8455 45.1128 88.9415 45.2141C89.0375 45.3101 89.1682 45.3581 89.3335 45.3581C89.5309 45.3581 89.6989 45.3048 89.8375 45.1981L90.1735 46.0781C90.0455 46.1688 89.8909 46.2381 89.7095 46.2861C89.5335 46.3288 89.3495 46.3501 89.1575 46.3501ZM86.8855 43.0381V42.0781H89.8695V43.0381H86.8855ZM95.6837 46.3501C95.3051 46.3501 94.9797 46.2701 94.7077 46.1101C94.4357 45.9501 94.2277 45.7075 94.0837 45.3821C93.9397 45.0515 93.8677 44.6355 93.8677 44.1341C93.8677 43.6275 93.9424 43.2115 94.0917 42.8861C94.2464 42.5608 94.4597 42.3181 94.7317 42.1581C95.0037 41.9981 95.3211 41.9181 95.6837 41.9181C96.0891 41.9181 96.4517 42.0088 96.7717 42.1901C97.0971 42.3715 97.3531 42.6275 97.5397 42.9581C97.7317 43.2888 97.8277 43.6808 97.8277 44.1341C97.8277 44.5821 97.7317 44.9715 97.5397 45.3021C97.3531 45.6328 97.0971 45.8915 96.7717 46.0781C96.4517 46.2595 96.0891 46.3501 95.6837 46.3501ZM93.1397 46.2861V40.3501H94.3877V42.8541L94.3077 44.1261L94.3317 45.4061V46.2861H93.1397ZM95.4677 45.3261C95.6757 45.3261 95.8597 45.2781 96.0197 45.1821C96.1851 45.0861 96.3157 44.9501 96.4117 44.7741C96.5131 44.5928 96.5637 44.3795 96.5637 44.1341C96.5637 43.8835 96.5131 43.6701 96.4117 43.4941C96.3157 43.3181 96.1851 43.1821 96.0197 43.0861C95.8597 42.9901 95.6757 42.9421 95.4677 42.9421C95.2597 42.9421 95.0731 42.9901 94.9077 43.0861C94.7424 43.1821 94.6117 43.3181 94.5157 43.4941C94.4197 43.6701 94.3717 43.8835 94.3717 44.1341C94.3717 44.3795 94.4197 44.5928 94.5157 44.7741C94.6117 44.9501 94.7424 45.0861 94.9077 45.1821C95.0731 45.2781 95.2597 45.3261 95.4677 45.3261ZM100.479 46.3501C100.122 46.3501 99.8018 46.2808 99.5192 46.1421C99.2418 46.0035 99.0258 45.7928 98.8712 45.5101C98.7165 45.2221 98.6392 44.8568 98.6392 44.4141V41.9821H99.8872V44.2301C99.8872 44.5875 99.9618 44.8515 100.111 45.0221C100.266 45.1875 100.482 45.2701 100.759 45.2701C100.951 45.2701 101.122 45.2301 101.271 45.1501C101.42 45.0648 101.538 44.9368 101.623 44.7661C101.708 44.5901 101.751 44.3715 101.751 44.1101V41.9821H102.999V46.2861H101.815V45.1021L102.031 45.4461C101.887 45.7448 101.674 45.9715 101.391 46.1261C101.114 46.2755 100.81 46.3501 100.479 46.3501ZM105.915 46.3501C105.409 46.3501 105.014 46.2221 104.731 45.9661C104.449 45.7048 104.307 45.3181 104.307 44.8061V41.0301H105.555V44.7901C105.555 44.9715 105.603 45.1128 105.699 45.2141C105.795 45.3101 105.926 45.3581 106.091 45.3581C106.289 45.3581 106.457 45.3048 106.595 45.1981L106.931 46.0781C106.803 46.1688 106.649 46.2381 106.467 46.2861C106.291 46.3288 106.107 46.3501 105.915 46.3501ZM103.643 43.0381V42.0781H106.627V43.0381H103.643ZM109.298 46.3501C108.791 46.3501 108.397 46.2221 108.114 45.9661C107.831 45.7048 107.69 45.3181 107.69 44.8061V41.0301H108.938V44.7901C108.938 44.9715 108.986 45.1128 109.082 45.2141C109.178 45.3101 109.309 45.3581 109.474 45.3581C109.671 45.3581 109.839 45.3048 109.978 45.1981L110.314 46.0781C110.186 46.1688 110.031 46.2381 109.85 46.2861C109.674 46.3288 109.49 46.3501 109.298 46.3501ZM107.026 43.0381V42.0781H110.01V43.0381H107.026ZM112.93 46.3501C112.471 46.3501 112.063 46.2541 111.706 46.0621C111.354 45.8701 111.074 45.6088 110.866 45.2781C110.663 44.9421 110.562 44.5608 110.562 44.1341C110.562 43.7021 110.663 43.3208 110.866 42.9901C111.074 42.6541 111.354 42.3928 111.706 42.2061C112.063 42.0141 112.471 41.9181 112.93 41.9181C113.383 41.9181 113.789 42.0141 114.146 42.2061C114.503 42.3928 114.783 42.6515 114.986 42.9821C115.189 43.3128 115.29 43.6968 115.29 44.1341C115.29 44.5608 115.189 44.9421 114.986 45.2781C114.783 45.6088 114.503 45.8701 114.146 46.0621C113.789 46.2541 113.383 46.3501 112.93 46.3501ZM112.93 45.3261C113.138 45.3261 113.325 45.2781 113.49 45.1821C113.655 45.0861 113.786 44.9501 113.882 44.7741C113.978 44.5928 114.026 44.3795 114.026 44.1341C114.026 43.8835 113.978 43.6701 113.882 43.4941C113.786 43.3181 113.655 43.1821 113.49 43.0861C113.325 42.9901 113.138 42.9421 112.93 42.9421C112.722 42.9421 112.535 42.9901 112.37 43.0861C112.205 43.1821 112.071 43.3181 111.97 43.4941C111.874 43.6701 111.826 43.8835 111.826 44.1341C111.826 44.3795 111.874 44.5928 111.97 44.7741C112.071 44.9501 112.205 45.0861 112.37 45.1821C112.535 45.2781 112.722 45.3261 112.93 45.3261ZM118.74 41.9181C119.081 41.9181 119.385 41.9875 119.652 42.1261C119.924 42.2595 120.137 42.4675 120.292 42.7501C120.447 43.0275 120.524 43.3848 120.524 43.8221V46.2861H119.276V44.0141C119.276 43.6675 119.199 43.4115 119.044 43.2461C118.895 43.0808 118.681 42.9981 118.404 42.9981C118.207 42.9981 118.028 43.0408 117.868 43.1261C117.713 43.2061 117.591 43.3315 117.5 43.5021C117.415 43.6728 117.372 43.8915 117.372 44.1581V46.2861H116.124V41.9821H117.316V43.1741L117.092 42.8141C117.247 42.5261 117.468 42.3048 117.756 42.1501C118.044 41.9955 118.372 41.9181 118.74 41.9181ZM122.127 46.3501C121.914 46.3501 121.73 46.2781 121.575 46.1341C121.426 45.9848 121.351 45.7955 121.351 45.5661C121.351 45.3368 121.426 45.1528 121.575 45.0141C121.73 44.8701 121.914 44.7981 122.127 44.7981C122.346 44.7981 122.53 44.8701 122.679 45.0141C122.829 45.1528 122.903 45.3368 122.903 45.5661C122.903 45.7955 122.829 45.9848 122.679 46.1341C122.53 46.2781 122.346 46.3501 122.127 46.3501Z" fill="#333333"/>
<path fill-rule="evenodd" clip-rule="evenodd" d="M170.357 69.4187C170.357 62.3568 164.571 56.5664 157.5 56.5664C117.753 56.5664 101.571 56.5711 101.571 56.5711L96.4284 61.714H72.6427L66.857 56.571H44.4514C37.38 56.571 31.5942 62.3569 31.5942 69.4233C31.5942 69.4281 31.5942 69.4329 31.5942 69.4378C31.5942 76.4997 37.38 82.2854 44.4514 82.2854C55.099 82.2854 66.8571 82.2854 66.8571 82.2854L72.6428 87.4283H96.4285L101.571 82.2854H157.594C164.571 82.2854 170.357 76.4997 170.357 69.4331C170.357 69.4283 170.357 69.7497 170.357 69.4187Z" fill="#30DCFF"/>
<path fill-rule="evenodd" clip-rule="evenodd" d="M170.357 69.4212C170.357 62.357 164.571 56.5713 157.406 56.5713C117.659 56.5713 101.571 56.5714 101.571 56.5714L96.4286 61.7141H72.6429L66.8571 56.5713H44.3571C37.2857 56.5713 31.5 62.357 31.5 69.4213C31.5 69.426 31.5 69.4285 31.5 69.4285H34.7143C34.7143 62.9999 39.2143 59.7856 44.3571 59.7856C53.784 59.7856 65.5714 59.7856 65.5714 59.7856L71.3571 64.9284H97.7143L102.857 59.7856H157.5C163.286 59.7856 167.143 63.6427 167.143 69.4283L170.357 69.4284V69.4212Z" fill="white" fill-opacity="0.5"/>
<path fill-rule="evenodd" clip-rule="evenodd" d="M170.357 69.4287L167.143 69.4287C167.143 75.1959 163.412 79.0716 157.5 79.0716C120.854 79.0716 100.286 79.0716 100.286 79.0716L95.1429 84.2144H73.9286L68.1429 79.0716H44.3571C37.6047 79.0716 34.7143 75.2144 34.7143 69.4297L31.5 69.4287V69.4359C31.5 76.5001 37.2857 82.2858 44.3571 82.2858C55.0048 82.2858 66.8571 82.2859 66.8571 82.2859L72.6429 87.4287H96.4286L101.571 82.2858H157.5C164.571 82.2858 170.357 76.5001 170.357 69.4287Z" fill="black" fill-opacity="0.25"/>
<path d="M37.8565 74.5713L40.3525 68.9713H41.6325L44.1365 74.5713H42.7765L40.7285 69.6273H41.2405L39.1845 74.5713H37.8565ZM39.1045 73.3713L39.4485 72.3873H42.3285L42.6805 73.3713H39.1045ZM46.0384 74.6353C45.6704 74.6353 45.3157 74.5926 44.9744 74.5073C44.6384 74.4166 44.3717 74.3046 44.1744 74.1713L44.5904 73.2753C44.7877 73.398 45.0197 73.4993 45.2864 73.5793C45.5584 73.654 45.8251 73.6913 46.0864 73.6913C46.3744 73.6913 46.5771 73.6566 46.6944 73.5873C46.8171 73.518 46.8784 73.422 46.8784 73.2993C46.8784 73.198 46.8304 73.1233 46.7344 73.0753C46.6437 73.022 46.5211 72.982 46.3664 72.9553C46.2117 72.9286 46.0411 72.902 45.8544 72.8753C45.6731 72.8486 45.4891 72.814 45.3024 72.7713C45.1157 72.7233 44.9451 72.654 44.7904 72.5633C44.6357 72.4726 44.5104 72.35 44.4144 72.1953C44.3237 72.0406 44.2784 71.8406 44.2784 71.5953C44.2784 71.3233 44.3557 71.0833 44.5104 70.8753C44.6704 70.6673 44.8997 70.5046 45.1984 70.3873C45.4971 70.2646 45.8544 70.2033 46.2704 70.2033C46.5637 70.2033 46.8624 70.2353 47.1664 70.2993C47.4704 70.3633 47.7237 70.4566 47.9264 70.5793L47.5104 71.4673C47.3024 71.3446 47.0917 71.262 46.8784 71.2193C46.6704 71.1713 46.4677 71.1473 46.2704 71.1473C45.9931 71.1473 45.7904 71.1846 45.6624 71.2593C45.5344 71.334 45.4704 71.43 45.4704 71.5473C45.4704 71.654 45.5157 71.734 45.6064 71.7873C45.7024 71.8406 45.8277 71.8833 45.9824 71.9153C46.1371 71.9473 46.3051 71.9766 46.4864 72.0033C46.6731 72.0246 46.8597 72.0593 47.0464 72.1073C47.2331 72.1553 47.4011 72.2246 47.5504 72.3153C47.7051 72.4006 47.8304 72.5206 47.9264 72.6753C48.0224 72.8246 48.0704 73.022 48.0704 73.2673C48.0704 73.534 47.9904 73.7713 47.8304 73.9793C47.6704 74.182 47.4384 74.342 47.1344 74.4593C46.8357 74.5766 46.4704 74.6353 46.0384 74.6353ZM50.2884 74.6353C49.9204 74.6353 49.5657 74.5926 49.2244 74.5073C48.8884 74.4166 48.6217 74.3046 48.4244 74.1713L48.8404 73.2753C49.0377 73.398 49.2697 73.4993 49.5364 73.5793C49.8084 73.654 50.0751 73.6913 50.3364 73.6913C50.6244 73.6913 50.8271 73.6566 50.9444 73.5873C51.0671 73.518 51.1284 73.422 51.1284 73.2993C51.1284 73.198 51.0804 73.1233 50.9844 73.0753C50.8937 73.022 50.7711 72.982 50.6164 72.9553C50.4617 72.9286 50.2911 72.902 50.1044 72.8753C49.9231 72.8486 49.7391 72.814 49.5524 72.7713C49.3657 72.7233 49.1951 72.654 49.0404 72.5633C48.8857 72.4726 48.7604 72.35 48.6644 72.1953C48.5737 72.0406 48.5284 71.8406 48.5284 71.5953C48.5284 71.3233 48.6057 71.0833 48.7604 70.8753C48.9204 70.6673 49.1497 70.5046 49.4484 70.3873C49.7471 70.2646 50.1044 70.2033 50.5204 70.2033C50.8137 70.2033 51.1124 70.2353 51.4164 70.2993C51.7204 70.3633 51.9737 70.4566 52.1764 70.5793L51.7604 71.4673C51.5524 71.3446 51.3417 71.262 51.1284 71.2193C50.9204 71.1713 50.7177 71.1473 50.5204 71.1473C50.2431 71.1473 50.0404 71.1846 49.9124 71.2593C49.7844 71.334 49.7204 71.43 49.7204 71.5473C49.7204 71.654 49.7657 71.734 49.8564 71.7873C49.9524 71.8406 50.0777 71.8833 50.2324 71.9153C50.3871 71.9473 50.5551 71.9766 50.7364 72.0033C50.9231 72.0246 51.1097 72.0593 51.2964 72.1073C51.4831 72.1553 51.6511 72.2246 51.8004 72.3153C51.9551 72.4006 52.0804 72.5206 52.1764 72.6753C52.2724 72.8246 52.3204 73.022 52.3204 73.2673C52.3204 73.534 52.2404 73.7713 52.0804 73.9793C51.9204 74.182 51.6884 74.342 51.3844 74.4593C51.0857 74.5766 50.7204 74.6353 50.2884 74.6353ZM53.0904 74.5713V70.2673H54.3384V74.5713H53.0904ZM53.7144 69.6673C53.4851 69.6673 53.2984 69.6006 53.1544 69.4673C53.0104 69.334 52.9384 69.1686 52.9384 68.9713C52.9384 68.774 53.0104 68.6086 53.1544 68.4753C53.2984 68.342 53.4851 68.2753 53.7144 68.2753C53.9437 68.2753 54.1304 68.3393 54.2744 68.4673C54.4184 68.59 54.4904 68.75 54.4904 68.9473C54.4904 69.1553 54.4184 69.3286 54.2744 69.4673C54.1357 69.6006 53.9491 69.6673 53.7144 69.6673ZM57.5207 76.1873C57.1153 76.1873 56.7233 76.1366 56.3447 76.0353C55.9713 75.9393 55.6593 75.7926 55.4087 75.5953L55.9047 74.6993C56.086 74.8486 56.3153 74.966 56.5927 75.0513C56.8753 75.142 57.1527 75.1873 57.4247 75.1873C57.8673 75.1873 58.1873 75.0886 58.3847 74.8913C58.5873 74.694 58.6887 74.4006 58.6887 74.0113V73.3633L58.7687 72.2833L58.7527 71.1953V70.2673H59.9367V73.8513C59.9367 74.6513 59.7287 75.2406 59.3127 75.6193C58.8967 75.998 58.2993 76.1873 57.5207 76.1873ZM57.3287 74.3633C56.9287 74.3633 56.566 74.278 56.2407 74.1073C55.9207 73.9313 55.662 73.6886 55.4647 73.3793C55.2727 73.0646 55.1767 72.6993 55.1767 72.2833C55.1767 71.862 55.2727 71.4966 55.4647 71.1873C55.662 70.8726 55.9207 70.63 56.2407 70.4593C56.566 70.2886 56.9287 70.2033 57.3287 70.2033C57.6913 70.2033 58.0113 70.278 58.2887 70.4273C58.566 70.5713 58.782 70.798 58.9367 71.1073C59.0913 71.4113 59.1687 71.8033 59.1687 72.2833C59.1687 72.758 59.0913 73.15 58.9367 73.4593C58.782 73.7633 58.566 73.99 58.2887 74.1393C58.0113 74.2886 57.6913 74.3633 57.3287 74.3633ZM57.5767 73.3393C57.7953 73.3393 57.99 73.2966 58.1607 73.2113C58.3313 73.1206 58.4647 72.9953 58.5607 72.8353C58.6567 72.6753 58.7047 72.4913 58.7047 72.2833C58.7047 72.07 58.6567 71.886 58.5607 71.7313C58.4647 71.5713 58.3313 71.4486 58.1607 71.3633C57.99 71.2726 57.7953 71.2273 57.5767 71.2273C57.358 71.2273 57.1633 71.2726 56.9927 71.3633C56.822 71.4486 56.686 71.5713 56.5847 71.7313C56.4887 71.886 56.4407 72.07 56.4407 72.2833C56.4407 72.4913 56.4887 72.6753 56.5847 72.8353C56.686 72.9953 56.822 73.1206 56.9927 73.2113C57.1633 73.2966 57.358 73.3393 57.5767 73.3393ZM63.7142 70.2033C64.0556 70.2033 64.3596 70.2726 64.6262 70.4113C64.8982 70.5446 65.1116 70.7526 65.2662 71.0353C65.4209 71.3126 65.4982 71.67 65.4982 72.1073V74.5713H64.2502V72.2993C64.2502 71.9526 64.1729 71.6966 64.0182 71.5313C63.8689 71.366 63.6556 71.2833 63.3782 71.2833C63.1809 71.2833 63.0022 71.326 62.8422 71.4113C62.6876 71.4913 62.5649 71.6166 62.4742 71.7873C62.3889 71.958 62.3462 72.1766 62.3462 72.4433V74.5713H61.0982V70.2673H62.2902V71.4593L62.0662 71.0993C62.2209 70.8113 62.4422 70.59 62.7302 70.4353C63.0182 70.2806 63.3462 70.2033 63.7142 70.2033ZM69.4951 74.5713V69.4513L70.0551 70.0113H68.3751V68.9713H70.7911V74.5713H69.4951ZM74.1639 74.6673C73.7052 74.6673 73.2946 74.5553 72.9319 74.3313C72.5692 74.102 72.2839 73.7713 72.0759 73.3393C71.8679 72.9073 71.7639 72.3846 71.7639 71.7713C71.7639 71.158 71.8679 70.6353 72.0759 70.2033C72.2839 69.7713 72.5692 69.4433 72.9319 69.2193C73.2946 68.99 73.7052 68.8753 74.1639 68.8753C74.6279 68.8753 75.0386 68.99 75.3959 69.2193C75.7586 69.4433 76.0439 69.7713 76.2519 70.2033C76.4599 70.6353 76.5639 71.158 76.5639 71.7713C76.5639 72.3846 76.4599 72.9073 76.2519 73.3393C76.0439 73.7713 75.7586 74.102 75.3959 74.3313C75.0386 74.5553 74.6279 74.6673 74.1639 74.6673ZM74.1639 73.5713C74.3826 73.5713 74.5719 73.51 74.7319 73.3873C74.8972 73.2646 75.0252 73.07 75.1159 72.8033C75.2119 72.5366 75.2599 72.1926 75.2599 71.7713C75.2599 71.35 75.2119 71.006 75.1159 70.7393C75.0252 70.4726 74.8972 70.278 74.7319 70.1553C74.5719 70.0326 74.3826 69.9713 74.1639 69.9713C73.9506 69.9713 73.7612 70.0326 73.5959 70.1553C73.4359 70.278 73.3079 70.4726 73.2119 70.7393C73.1212 71.006 73.0759 71.35 73.0759 71.7713C73.0759 72.1926 73.1212 72.5366 73.2119 72.8033C73.3079 73.07 73.4359 73.2646 73.5959 73.3873C73.7612 73.51 73.9506 73.5713 74.1639 73.5713ZM81.4832 74.6353C80.9766 74.6353 80.5819 74.5073 80.2992 74.2513C80.0166 73.99 79.8752 73.6033 79.8752 73.0913V69.3153H81.1232V73.0753C81.1232 73.2566 81.1712 73.398 81.2672 73.4993C81.3632 73.5953 81.4939 73.6433 81.6592 73.6433C81.8566 73.6433 82.0246 73.59 82.1632 73.4833L82.4992 74.3633C82.3712 74.454 82.2166 74.5233 82.0352 74.5713C81.8592 74.614 81.6752 74.6353 81.4832 74.6353ZM79.2112 71.3233V70.3633H82.1952V71.3233H79.2112ZM85.115 74.6353C84.6563 74.6353 84.2483 74.5393 83.891 74.3473C83.539 74.1553 83.259 73.894 83.051 73.5633C82.8483 73.2273 82.747 72.846 82.747 72.4193C82.747 71.9873 82.8483 71.606 83.051 71.2753C83.259 70.9393 83.539 70.678 83.891 70.4913C84.2483 70.2993 84.6563 70.2033 85.115 70.2033C85.5683 70.2033 85.9736 70.2993 86.331 70.4913C86.6883 70.678 86.9683 70.9366 87.171 71.2673C87.3736 71.598 87.475 71.982 87.475 72.4193C87.475 72.846 87.3736 73.2273 87.171 73.5633C86.9683 73.894 86.6883 74.1553 86.331 74.3473C85.9736 74.5393 85.5683 74.6353 85.115 74.6353ZM85.115 73.6113C85.323 73.6113 85.5096 73.5633 85.675 73.4673C85.8403 73.3713 85.971 73.2353 86.067 73.0593C86.163 72.878 86.211 72.6646 86.211 72.4193C86.211 72.1686 86.163 71.9553 86.067 71.7793C85.971 71.6033 85.8403 71.4673 85.675 71.3713C85.5096 71.2753 85.323 71.2273 85.115 71.2273C84.907 71.2273 84.7203 71.2753 84.555 71.3713C84.3896 71.4673 84.2563 71.6033 84.155 71.7793C84.059 71.9553 84.011 72.1686 84.011 72.4193C84.011 72.6646 84.059 72.878 84.155 73.0593C84.2563 73.2353 84.3896 73.3713 84.555 73.4673C84.7203 73.5633 84.907 73.6113 85.115 73.6113ZM90.0228 74.5713L92.4308 71.2513V72.1953L90.1268 68.9713H91.5988L93.1908 71.2193L92.5748 71.2273L94.1428 68.9713H95.5508L93.2628 72.1393V71.2113L95.6868 74.5713H94.1908L92.5428 72.1953H93.1348L91.5108 74.5713H90.0228Z" fill="#333333"/>
<path fill-rule="evenodd" clip-rule="evenodd" d="M170.357 95.1335C170.357 88.0717 164.571 82.2812 157.5 82.2812C117.753 82.2812 101.571 82.286 101.571 82.286L96.4284 87.4289H72.6427L66.857 82.2858H44.4514C37.38 82.2858 31.5942 88.0717 31.5942 95.1382C31.5942 95.1429 31.5942 95.1478 31.5942 95.1526C31.5942 102.215 37.38 108 44.4514 108C55.099 108 66.8571 108 66.8571 108L72.6428 113.143H96.4285L101.571 108H157.594C164.571 108 170.357 102.215 170.357 95.148C170.357 95.1431 170.357 95.4645 170.357 95.1335Z" fill="#30DCFF"/>
<path fill-rule="evenodd" clip-rule="evenodd" d="M170.357 95.1361C170.357 88.0718 164.571 82.2861 157.406 82.2861C117.659 82.2861 101.571 82.2862 101.571 82.2862L96.4286 87.429H72.6429L66.8571 82.2862H44.3571C37.2857 82.2862 31.5 88.0719 31.5 95.1361C31.5 95.1408 31.5 95.1433 31.5 95.1433H34.7143C34.7143 88.7147 39.2143 85.5005 44.3571 85.5005C53.784 85.5005 65.5714 85.5004 65.5714 85.5004L71.3571 90.6433H97.7143L102.857 85.5004H157.5C163.286 85.5004 167.143 89.3576 167.143 95.1431L170.357 95.1433V95.1361Z" fill="white" fill-opacity="0.5"/>
<path fill-rule="evenodd" clip-rule="evenodd" d="M170.357 95.1436L167.143 95.1436C167.143 100.911 163.412 104.786 157.5 104.786C120.854 104.786 100.286 104.786 100.286 104.786L95.1429 109.929H73.9286L68.1429 104.786H44.3571C37.6047 104.786 34.7143 100.929 34.7143 95.1445L31.5 95.1436V95.1508C31.5 102.215 37.2857 108.001 44.3571 108.001C55.0048 108.001 66.8571 108.001 66.8571 108.001L72.6429 113.144H96.4286L101.571 108.001H157.5C164.571 108.001 170.357 102.215 170.357 95.1436Z" fill="black" fill-opacity="0.25"/>
<path d="M38.664 100V94.4H39.96V100H38.664ZM43.817 95.632C44.1583 95.632 44.4623 95.7013 44.729 95.84C45.001 95.9733 45.2143 96.1813 45.369 96.464C45.5237 96.7413 45.601 97.0987 45.601 97.536V100H44.353V97.728C44.353 97.3813 44.2757 97.1253 44.121 96.96C43.9717 96.7947 43.7583 96.712 43.481 96.712C43.2837 96.712 43.105 96.7547 42.945 96.84C42.7903 96.92 42.6677 97.0453 42.577 97.216C42.4917 97.3867 42.449 97.6053 42.449 97.872V100H41.201V95.696H42.393V96.888L42.169 96.528C42.3237 96.24 42.545 96.0187 42.833 95.864C43.121 95.7093 43.449 95.632 43.817 95.632ZM48.8435 100.064C48.3795 100.064 47.9662 99.9707 47.6035 99.784C47.2408 99.592 46.9555 99.328 46.7475 98.992C46.5448 98.656 46.4435 98.2747 46.4435 97.848C46.4435 97.416 46.5448 97.0347 46.7475 96.704C46.9555 96.368 47.2408 96.1067 47.6035 95.92C47.9662 95.728 48.3795 95.632 48.8435 95.632C49.2968 95.632 49.6915 95.728 50.0275 95.92C50.3635 96.1067 50.6115 96.376 50.7715 96.728L49.8035 97.248C49.6915 97.0453 49.5502 96.896 49.3795 96.8C49.2142 96.704 49.0328 96.656 48.8355 96.656C48.6222 96.656 48.4302 96.704 48.2595 96.8C48.0888 96.896 47.9528 97.032 47.8515 97.208C47.7555 97.384 47.7075 97.5973 47.7075 97.848C47.7075 98.0987 47.7555 98.312 47.8515 98.488C47.9528 98.664 48.0888 98.8 48.2595 98.896C48.4302 98.992 48.6222 99.04 48.8355 99.04C49.0328 99.04 49.2142 98.9947 49.3795 98.904C49.5502 98.808 49.6915 98.656 49.8035 98.448L50.7715 98.976C50.6115 99.3227 50.3635 99.592 50.0275 99.784C49.6915 99.9707 49.2968 100.064 48.8435 100.064ZM51.4901 100V95.696H52.6821V96.912L52.5141 96.56C52.6421 96.256 52.8474 96.0267 53.1301 95.872C53.4127 95.712 53.7567 95.632 54.1621 95.632V96.784C54.1087 96.7787 54.0607 96.776 54.0181 96.776C53.9754 96.7707 53.9301 96.768 53.8821 96.768C53.5407 96.768 53.2634 96.8667 53.0501 97.064C52.8421 97.256 52.7381 97.5573 52.7381 97.968V100H51.4901ZM57.0089 100.064C56.5182 100.064 56.0862 99.968 55.7129 99.776C55.3449 99.584 55.0595 99.3227 54.8569 98.992C54.6542 98.656 54.5529 98.2747 54.5529 97.848C54.5529 97.416 54.6515 97.0347 54.8489 96.704C55.0515 96.368 55.3262 96.1067 55.6729 95.92C56.0195 95.728 56.4115 95.632 56.8489 95.632C57.2702 95.632 57.6489 95.7227 57.9849 95.904C58.3262 96.08 58.5955 96.336 58.7929 96.672C58.9902 97.0027 59.0889 97.4 59.0889 97.864C59.0889 97.912 59.0862 97.968 59.0809 98.032C59.0755 98.0907 59.0702 98.1467 59.0649 98.2H55.5689V97.472H58.4089L57.9289 97.688C57.9289 97.464 57.8835 97.2693 57.7929 97.104C57.7022 96.9387 57.5769 96.8107 57.4169 96.72C57.2569 96.624 57.0702 96.576 56.8569 96.576C56.6435 96.576 56.4542 96.624 56.2889 96.72C56.1289 96.8107 56.0035 96.9413 55.9129 97.112C55.8222 97.2773 55.7769 97.4747 55.7769 97.704V97.896C55.7769 98.1307 55.8275 98.3387 55.9289 98.52C56.0355 98.696 56.1822 98.832 56.3689 98.928C56.5609 99.0187 56.7849 99.064 57.0409 99.064C57.2702 99.064 57.4702 99.0293 57.6409 98.96C57.8169 98.8907 57.9769 98.7867 58.1209 98.648L58.7849 99.368C58.5875 99.592 58.3395 99.7653 58.0409 99.888C57.7422 100.005 57.3982 100.064 57.0089 100.064ZM62.4426 100V99.16L62.3626 98.976V97.472C62.3626 97.2053 62.2799 96.9973 62.1146 96.848C61.9546 96.6987 61.7066 96.624 61.3706 96.624C61.1412 96.624 60.9146 96.6613 60.6906 96.736C60.4719 96.8053 60.2852 96.9013 60.1306 97.024L59.6826 96.152C59.9172 95.9867 60.1999 95.8587 60.5306 95.768C60.8612 95.6773 61.1972 95.632 61.5386 95.632C62.1946 95.632 62.7039 95.7867 63.0666 96.096C63.4292 96.4053 63.6106 96.888 63.6106 97.544V100H62.4426ZM61.1306 100.064C60.7946 100.064 60.5066 100.008 60.2666 99.896C60.0266 99.7787 59.8426 99.6213 59.7146 99.424C59.5866 99.2267 59.5226 99.0053 59.5226 98.76C59.5226 98.504 59.5839 98.28 59.7066 98.088C59.8346 97.896 60.0346 97.7467 60.3066 97.64C60.5786 97.528 60.9332 97.472 61.3706 97.472H62.5146V98.2H61.5066C61.2132 98.2 61.0106 98.248 60.8986 98.344C60.7919 98.44 60.7386 98.56 60.7386 98.704C60.7386 98.864 60.7999 98.992 60.9226 99.088C61.0506 99.1787 61.2239 99.224 61.4426 99.224C61.6506 99.224 61.8372 99.176 62.0026 99.08C62.1679 98.9787 62.2879 98.832 62.3626 98.64L62.5546 99.216C62.4639 99.4933 62.2986 99.704 62.0586 99.848C61.8186 99.992 61.5092 100.064 61.1306 100.064ZM66.1881 100.064C65.8201 100.064 65.4654 100.021 65.1241 99.936C64.7881 99.8453 64.5214 99.7333 64.3241 99.6L64.7401 98.704C64.9374 98.8267 65.1694 98.928 65.4361 99.008C65.7081 99.0827 65.9747 99.12 66.2361 99.12C66.5241 99.12 66.7267 99.0853 66.8441 99.016C66.9667 98.9467 67.0281 98.8507 67.0281 98.728C67.0281 98.6267 66.9801 98.552 66.8841 98.504C66.7934 98.4507 66.6707 98.4107 66.5161 98.384C66.3614 98.3573 66.1907 98.3307 66.0041 98.304C65.8227 98.2773 65.6387 98.2427 65.4521 98.2C65.2654 98.152 65.0947 98.0827 64.9401 97.992C64.7854 97.9013 64.6601 97.7787 64.5641 97.624C64.4734 97.4693 64.4281 97.2693 64.4281 97.024C64.4281 96.752 64.5054 96.512 64.6601 96.304C64.8201 96.096 65.0494 95.9333 65.3481 95.816C65.6467 95.6933 66.0041 95.632 66.4201 95.632C66.7134 95.632 67.0121 95.664 67.3161 95.728C67.6201 95.792 67.8734 95.8853 68.0761 96.008L67.6601 96.896C67.4521 96.7733 67.2414 96.6907 67.0281 96.648C66.8201 96.6 66.6174 96.576 66.4201 96.576C66.1427 96.576 65.9401 96.6133 65.8121 96.688C65.6841 96.7627 65.6201 96.8587 65.6201 96.976C65.6201 97.0827 65.6654 97.1627 65.7561 97.216C65.8521 97.2693 65.9774 97.312 66.1321 97.344C66.2867 97.376 66.4547 97.4053 66.6361 97.432C66.8227 97.4533 67.0094 97.488 67.1961 97.536C67.3827 97.584 67.5507 97.6533 67.7001 97.744C67.8547 97.8293 67.9801 97.9493 68.0761 98.104C68.1721 98.2533 68.2201 98.4507 68.2201 98.696C68.2201 98.9627 68.1401 99.2 67.9801 99.408C67.8201 99.6107 67.5881 99.7707 67.2841 99.888C66.9854 100.005 66.6201 100.064 66.1881 100.064ZM71.1261 100.064C70.6354 100.064 70.2034 99.968 69.8301 99.776C69.4621 99.584 69.1767 99.3227 68.9741 98.992C68.7714 98.656 68.6701 98.2747 68.6701 97.848C68.6701 97.416 68.7687 97.0347 68.9661 96.704C69.1687 96.368 69.4434 96.1067 69.7901 95.92C70.1367 95.728 70.5287 95.632 70.9661 95.632C71.3874 95.632 71.7661 95.7227 72.1021 95.904C72.4434 96.08 72.7127 96.336 72.9101 96.672C73.1074 97.0027 73.2061 97.4 73.2061 97.864C73.2061 97.912 73.2034 97.968 73.1981 98.032C73.1927 98.0907 73.1874 98.1467 73.1821 98.2H69.6861V97.472H72.5261L72.0461 97.688C72.0461 97.464 72.0007 97.2693 71.9101 97.104C71.8194 96.9387 71.6941 96.8107 71.5341 96.72C71.3741 96.624 71.1874 96.576 70.9741 96.576C70.7607 96.576 70.5714 96.624 70.4061 96.72C70.2461 96.8107 70.1207 96.9413 70.0301 97.112C69.9394 97.2773 69.8941 97.4747 69.8941 97.704V97.896C69.8941 98.1307 69.9447 98.3387 70.0461 98.52C70.1527 98.696 70.2994 98.832 70.4861 98.928C70.6781 99.0187 70.9021 99.064 71.1581 99.064C71.3874 99.064 71.5874 99.0293 71.7581 98.96C71.9341 98.8907 72.0941 98.7867 72.2381 98.648L72.9021 99.368C72.7047 99.592 72.4567 99.7653 72.1581 99.888C71.8594 100.005 71.5154 100.064 71.1261 100.064ZM76.9026 100V94.88L77.4626 95.44H75.7826V94.4H78.1986V100H76.9026ZM83.461 100.064C82.9543 100.064 82.5597 99.936 82.277 99.68C81.9943 99.4187 81.853 99.032 81.853 98.52V94.744H83.101V98.504C83.101 98.6853 83.149 98.8267 83.245 98.928C83.341 99.024 83.4717 99.072 83.637 99.072C83.8343 99.072 84.0023 99.0187 84.141 98.912L84.477 99.792C84.349 99.8827 84.1943 99.952 84.013 100C83.837 100.043 83.653 100.064 83.461 100.064ZM81.189 96.752V95.792H84.173V96.752H81.189ZM87.0928 100.064C86.6341 100.064 86.2261 99.968 85.8688 99.776C85.5168 99.584 85.2368 99.3227 85.0288 98.992C84.8261 98.656 84.7248 98.2747 84.7248 97.848C84.7248 97.416 84.8261 97.0347 85.0288 96.704C85.2368 96.368 85.5168 96.1067 85.8688 95.92C86.2261 95.728 86.6341 95.632 87.0928 95.632C87.5461 95.632 87.9514 95.728 88.3088 95.92C88.6661 96.1067 88.9461 96.3653 89.1488 96.696C89.3514 97.0267 89.4528 97.4107 89.4528 97.848C89.4528 98.2747 89.3514 98.656 89.1488 98.992C88.9461 99.3227 88.6661 99.584 88.3088 99.776C87.9514 99.968 87.5461 100.064 87.0928 100.064ZM87.0928 99.04C87.3008 99.04 87.4874 98.992 87.6528 98.896C87.8181 98.8 87.9488 98.664 88.0448 98.488C88.1408 98.3067 88.1888 98.0933 88.1888 97.848C88.1888 97.5973 88.1408 97.384 88.0448 97.208C87.9488 97.032 87.8181 96.896 87.6528 96.8C87.4874 96.704 87.3008 96.656 87.0928 96.656C86.8848 96.656 86.6981 96.704 86.5328 96.8C86.3674 96.896 86.2341 97.032 86.1328 97.208C86.0368 97.384 85.9888 97.5973 85.9888 97.848C85.9888 98.0933 86.0368 98.3067 86.1328 98.488C86.2341 98.664 86.3674 98.8 86.5328 98.896C86.6981 98.992 86.8848 99.04 87.0928 99.04ZM92.0006 100L94.4086 96.68V97.624L92.1046 94.4H93.5766L95.1686 96.648L94.5526 96.656L96.1206 94.4H97.5286L95.2406 97.568V96.64L97.6646 100H96.1686L94.5206 97.624H95.1126L93.4886 100H92.0006Z" fill="#333333"/>
<path fill-rule="evenodd" clip-rule="evenodd" d="M170.357 120.847C170.357 113.786 164.571 107.995 157.5 107.995C117.753 107.995 101.571 108 101.571 108L96.4284 113.143H72.6427L66.857 108H44.4514C37.38 108 31.5942 113.786 31.5942 120.852C31.5942 120.857 31.5942 120.862 31.5942 120.866C31.5942 127.928 37.38 133.714 44.4514 133.714C55.099 133.714 66.8571 133.714 66.8571 133.714L72.6428 138.857H96.4285L101.571 133.714H157.594C164.571 133.714 170.357 127.928 170.357 120.862C170.357 120.857 170.357 121.178 170.357 120.847Z" fill="#30DCFF"/>
<path fill-rule="evenodd" clip-rule="evenodd" d="M170.357 120.85C170.357 113.786 164.571 108 157.406 108C117.659 108 101.571 108 101.571 108L96.4286 113.143H72.6429L66.8571 108H44.3571C37.2857 108 31.5 113.786 31.5 120.85C31.5 120.855 31.5 120.857 31.5 120.857H34.7143C34.7143 114.429 39.2143 111.214 44.3571 111.214C53.784 111.214 65.5714 111.214 65.5714 111.214L71.3571 116.357H97.7143L102.857 111.214H157.5C163.286 111.214 167.143 115.071 167.143 120.857L170.357 120.857V120.85Z" fill="white" fill-opacity="0.5"/>
<path fill-rule="evenodd" clip-rule="evenodd" d="M170.357 120.857L167.143 120.857C167.143 126.625 163.412 130.5 157.5 130.5C120.854 130.5 100.286 130.5 100.286 130.5L95.1429 135.643H73.9286L68.1429 130.5H44.3571C37.6047 130.5 34.7143 126.643 34.7143 120.858L31.5 120.857V120.865C31.5 127.929 37.2857 133.715 44.3571 133.715C55.0048 133.715 66.8571 133.715 66.8571 133.715L72.6429 138.857H96.4286L101.571 133.715H157.5C164.571 133.715 170.357 127.929 170.357 120.857Z" fill="black" fill-opacity="0.25"/>
<path d="M38.5925 126V120.4H41.1365C41.7445 120.4 42.2805 120.517 42.7445 120.752C43.2085 120.981 43.5711 121.304 43.8325 121.72C44.0938 122.136 44.2245 122.629 44.2245 123.2C44.2245 123.765 44.0938 124.259 43.8325 124.68C43.5711 125.096 43.2085 125.421 42.7445 125.656C42.2805 125.885 41.7445 126 41.1365 126H38.5925ZM39.8885 124.936H41.0725C41.4458 124.936 41.7685 124.867 42.0405 124.728C42.3178 124.584 42.5311 124.381 42.6805 124.12C42.8351 123.859 42.9125 123.552 42.9125 123.2C42.9125 122.843 42.8351 122.536 42.6805 122.28C42.5311 122.019 42.3178 121.819 42.0405 121.68C41.7685 121.536 41.4458 121.464 41.0725 121.464H39.8885V124.936ZM46.9298 126.064C46.5725 126.064 46.2525 125.995 45.9698 125.856C45.6925 125.717 45.4765 125.507 45.3218 125.224C45.1672 124.936 45.0898 124.571 45.0898 124.128V121.696H46.3378V123.944C46.3378 124.301 46.4125 124.565 46.5618 124.736C46.7165 124.901 46.9325 124.984 47.2098 124.984C47.4018 124.984 47.5725 124.944 47.7218 124.864C47.8712 124.779 47.9885 124.651 48.0738 124.48C48.1592 124.304 48.2018 124.085 48.2018 123.824V121.696H49.4498V126H48.2658V124.816L48.4818 125.16C48.3378 125.459 48.1245 125.685 47.8418 125.84C47.5645 125.989 47.2605 126.064 46.9298 126.064ZM53.15 126.064C52.7874 126.064 52.47 125.984 52.198 125.824C51.926 125.664 51.7127 125.421 51.558 125.096C51.4087 124.765 51.334 124.349 51.334 123.848C51.334 123.341 51.406 122.925 51.55 122.6C51.694 122.275 51.902 122.032 52.174 121.872C52.446 121.712 52.7714 121.632 53.15 121.632C53.5554 121.632 53.918 121.725 54.238 121.912C54.5634 122.093 54.8194 122.349 55.006 122.68C55.198 123.011 55.294 123.4 55.294 123.848C55.294 124.301 55.198 124.693 55.006 125.024C54.8194 125.355 54.5634 125.611 54.238 125.792C53.918 125.973 53.5554 126.064 53.15 126.064ZM50.606 127.552V121.696H51.798V122.576L51.774 123.856L51.854 125.128V127.552H50.606ZM52.934 125.04C53.142 125.04 53.326 124.992 53.486 124.896C53.6514 124.8 53.782 124.664 53.878 124.488C53.9794 124.307 54.03 124.093 54.03 123.848C54.03 123.597 53.9794 123.384 53.878 123.208C53.782 123.032 53.6514 122.896 53.486 122.8C53.326 122.704 53.142 122.656 52.934 122.656C52.726 122.656 52.5394 122.704 52.374 122.8C52.2087 122.896 52.078 123.032 51.982 123.208C51.886 123.384 51.838 123.597 51.838 123.848C51.838 124.093 51.886 124.307 51.982 124.488C52.078 124.664 52.2087 124.8 52.374 124.896C52.5394 124.992 52.726 125.04 52.934 125.04ZM56.1295 126V120.064H57.3775V126H56.1295ZM58.5357 126V121.696H59.7837V126H58.5357ZM59.1597 121.096C58.9304 121.096 58.7437 121.029 58.5997 120.896C58.4557 120.763 58.3837 120.597 58.3837 120.4C58.3837 120.203 58.4557 120.037 58.5997 119.904C58.7437 119.771 58.9304 119.704 59.1597 119.704C59.3891 119.704 59.5757 119.768 59.7197 119.896C59.8637 120.019 59.9357 120.179 59.9357 120.376C59.9357 120.584 59.8637 120.757 59.7197 120.896C59.5811 121.029 59.3944 121.096 59.1597 121.096ZM63.022 126.064C62.558 126.064 62.1446 125.971 61.782 125.784C61.4193 125.592 61.134 125.328 60.926 124.992C60.7233 124.656 60.622 124.275 60.622 123.848C60.622 123.416 60.7233 123.035 60.926 122.704C61.134 122.368 61.4193 122.107 61.782 121.92C62.1446 121.728 62.558 121.632 63.022 121.632C63.4753 121.632 63.87 121.728 64.206 121.92C64.542 122.107 64.79 122.376 64.95 122.728L63.982 123.248C63.87 123.045 63.7286 122.896 63.558 122.8C63.3926 122.704 63.2113 122.656 63.014 122.656C62.8006 122.656 62.6086 122.704 62.438 122.8C62.2673 122.896 62.1313 123.032 62.03 123.208C61.934 123.384 61.886 123.597 61.886 123.848C61.886 124.099 61.934 124.312 62.03 124.488C62.1313 124.664 62.2673 124.8 62.438 124.896C62.6086 124.992 62.8006 125.04 63.014 125.04C63.2113 125.04 63.3926 124.995 63.558 124.904C63.7286 124.808 63.87 124.656 63.982 124.448L64.95 124.976C64.79 125.323 64.542 125.592 64.206 125.784C63.87 125.971 63.4753 126.064 63.022 126.064ZM68.3085 126V125.16L68.2285 124.976V123.472C68.2285 123.205 68.1459 122.997 67.9805 122.848C67.8205 122.699 67.5725 122.624 67.2365 122.624C67.0072 122.624 66.7805 122.661 66.5565 122.736C66.3379 122.805 66.1512 122.901 65.9965 123.024L65.5485 122.152C65.7832 121.987 66.0659 121.859 66.3965 121.768C66.7272 121.677 67.0632 121.632 67.4045 121.632C68.0605 121.632 68.5699 121.787 68.9325 122.096C69.2952 122.405 69.4765 122.888 69.4765 123.544V126H68.3085ZM66.9965 126.064C66.6605 126.064 66.3725 126.008 66.1325 125.896C65.8925 125.779 65.7085 125.621 65.5805 125.424C65.4525 125.227 65.3885 125.005 65.3885 124.76C65.3885 124.504 65.4499 124.28 65.5725 124.088C65.7005 123.896 65.9005 123.747 66.1725 123.64C66.4445 123.528 66.7992 123.472 67.2365 123.472H68.3805V124.2H67.3725C67.0792 124.2 66.8765 124.248 66.7645 124.344C66.6579 124.44 66.6045 124.56 66.6045 124.704C66.6045 124.864 66.6659 124.992 66.7885 125.088C66.9165 125.179 67.0899 125.224 67.3085 125.224C67.5165 125.224 67.7032 125.176 67.8685 125.08C68.0339 124.979 68.1539 124.832 68.2285 124.64L68.4205 125.216C68.3299 125.493 68.1645 125.704 67.9245 125.848C67.6845 125.992 67.3752 126.064 66.9965 126.064ZM72.366 126.064C71.8594 126.064 71.4647 125.936 71.182 125.68C70.8994 125.419 70.758 125.032 70.758 124.52V120.744H72.006V124.504C72.006 124.685 72.054 124.827 72.15 124.928C72.246 125.024 72.3767 125.072 72.542 125.072C72.7394 125.072 72.9074 125.019 73.046 124.912L73.382 125.792C73.254 125.883 73.0994 125.952 72.918 126C72.742 126.043 72.558 126.064 72.366 126.064ZM70.094 122.752V121.792H73.078V122.752H70.094ZM76.0858 126.064C75.5951 126.064 75.1631 125.968 74.7898 125.776C74.4218 125.584 74.1364 125.323 73.9338 124.992C73.7311 124.656 73.6298 124.275 73.6298 123.848C73.6298 123.416 73.7284 123.035 73.9258 122.704C74.1284 122.368 74.4031 122.107 74.7498 121.92C75.0964 121.728 75.4884 121.632 75.9258 121.632C76.3471 121.632 76.7258 121.723 77.0618 121.904C77.4031 122.08 77.6724 122.336 77.8698 122.672C78.0671 123.003 78.1658 123.4 78.1658 123.864C78.1658 123.912 78.1631 123.968 78.1578 124.032C78.1524 124.091 78.1471 124.147 78.1418 124.2H74.6458V123.472H77.4858L77.0058 123.688C77.0058 123.464 76.9604 123.269 76.8698 123.104C76.7791 122.939 76.6538 122.811 76.4938 122.72C76.3338 122.624 76.1471 122.576 75.9338 122.576C75.7204 122.576 75.5311 122.624 75.3658 122.72C75.2058 122.811 75.0804 122.941 74.9898 123.112C74.8991 123.277 74.8538 123.475 74.8538 123.704V123.896C74.8538 124.131 74.9044 124.339 75.0058 124.52C75.1124 124.696 75.2591 124.832 75.4458 124.928C75.6378 125.019 75.8618 125.064 76.1178 125.064C76.3471 125.064 76.5471 125.029 76.7178 124.96C76.8938 124.891 77.0538 124.787 77.1978 124.648L77.8618 125.368C77.6644 125.592 77.4164 125.765 77.1178 125.888C76.8191 126.005 76.4751 126.064 76.0858 126.064ZM80.7103 126L83.1183 122.68V123.624L80.8143 120.4H82.2863L83.8783 122.648L83.2623 122.656L84.8303 120.4H86.2383L83.9503 123.568V122.64L86.3743 126H84.8783L83.2303 123.624H83.8223L82.1983 126H80.7103Z" fill="#333333"/>
<path fill-rule="evenodd" clip-rule="evenodd" d="M170.357 146.561C170.357 139.499 164.571 133.709 157.5 133.709C117.753 133.709 101.571 133.714 101.571 133.714L96.4284 138.857H72.6427L66.857 133.714H44.4514C37.38 133.714 31.5942 139.499 31.5942 146.566C31.5942 146.571 31.5942 146.575 31.5942 146.58C31.5942 153.642 37.38 159.428 44.4514 159.428C55.099 159.428 66.8571 159.428 66.8571 159.428L72.6428 164.571H96.4285L101.571 159.428H157.594C164.571 159.428 170.357 153.642 170.357 146.576C170.357 146.571 170.357 146.892 170.357 146.561Z" fill="#30DCFF"/>
<path fill-rule="evenodd" clip-rule="evenodd" d="M170.357 146.564C170.357 139.5 164.571 133.714 157.406 133.714C117.659 133.714 101.571 133.714 101.571 133.714L96.4286 138.857H72.6429L66.8571 133.714H44.3571C37.2857 133.714 31.5 139.5 31.5 146.564C31.5 146.569 31.5 146.571 31.5 146.571H34.7143C34.7143 140.142 39.2143 136.928 44.3571 136.928C53.784 136.928 65.5714 136.928 65.5714 136.928L71.3571 142.071H97.7143L102.857 136.928H157.5C163.286 136.928 167.143 140.785 167.143 146.571L170.357 146.571V146.564Z" fill="white" fill-opacity="0.5"/>
<path fill-rule="evenodd" clip-rule="evenodd" d="M170.357 146.571L167.143 146.571C167.143 152.338 163.412 156.214 157.5 156.214C120.854 156.214 100.286 156.214 100.286 156.214L95.1429 161.357H73.9286L68.1429 156.214H44.3571C37.6047 156.214 34.7143 152.357 34.7143 146.572L31.5 146.571V146.579C31.5 153.643 37.2857 159.428 44.3571 159.428C55.0048 159.428 66.8571 159.428 66.8571 159.428L72.6429 164.571H96.4286L101.571 159.428H157.5C164.571 159.428 170.357 153.643 170.357 146.571Z" fill="black" fill-opacity="0.25"/>
<path d="M37.8565 151.714L40.3525 146.114H41.6325L44.1365 151.714H42.7765L40.7285 146.77H41.2405L39.1845 151.714H37.8565ZM39.1045 150.514L39.4485 149.53H42.3285L42.6805 150.514H39.1045ZM46.0384 151.778C45.6704 151.778 45.3157 151.735 44.9744 151.65C44.6384 151.559 44.3717 151.447 44.1744 151.314L44.5904 150.418C44.7877 150.541 45.0197 150.642 45.2864 150.722C45.5584 150.797 45.8251 150.834 46.0864 150.834C46.3744 150.834 46.5771 150.799 46.6944 150.73C46.8171 150.661 46.8784 150.565 46.8784 150.442C46.8784 150.341 46.8304 150.266 46.7344 150.218C46.6437 150.165 46.5211 150.125 46.3664 150.098C46.2117 150.071 46.0411 150.045 45.8544 150.018C45.6731 149.991 45.4891 149.957 45.3024 149.914C45.1157 149.866 44.9451 149.797 44.7904 149.706C44.6357 149.615 44.5104 149.493 44.4144 149.338C44.3237 149.183 44.2784 148.983 44.2784 148.738C44.2784 148.466 44.3557 148.226 44.5104 148.018C44.6704 147.81 44.8997 147.647 45.1984 147.53C45.4971 147.407 45.8544 147.346 46.2704 147.346C46.5637 147.346 46.8624 147.378 47.1664 147.442C47.4704 147.506 47.7237 147.599 47.9264 147.722L47.5104 148.61C47.3024 148.487 47.0917 148.405 46.8784 148.362C46.6704 148.314 46.4677 148.29 46.2704 148.29C45.9931 148.29 45.7904 148.327 45.6624 148.402C45.5344 148.477 45.4704 148.573 45.4704 148.69C45.4704 148.797 45.5157 148.877 45.6064 148.93C45.7024 148.983 45.8277 149.026 45.9824 149.058C46.1371 149.09 46.3051 149.119 46.4864 149.146C46.6731 149.167 46.8597 149.202 47.0464 149.25C47.2331 149.298 47.4011 149.367 47.5504 149.458C47.7051 149.543 47.8304 149.663 47.9264 149.818C48.0224 149.967 48.0704 150.165 48.0704 150.41C48.0704 150.677 47.9904 150.914 47.8304 151.122C47.6704 151.325 47.4384 151.485 47.1344 151.602C46.8357 151.719 46.4704 151.778 46.0384 151.778ZM50.2884 151.778C49.9204 151.778 49.5657 151.735 49.2244 151.65C48.8884 151.559 48.6217 151.447 48.4244 151.314L48.8404 150.418C49.0377 150.541 49.2697 150.642 49.5364 150.722C49.8084 150.797 50.0751 150.834 50.3364 150.834C50.6244 150.834 50.8271 150.799 50.9444 150.73C51.0671 150.661 51.1284 150.565 51.1284 150.442C51.1284 150.341 51.0804 150.266 50.9844 150.218C50.8937 150.165 50.7711 150.125 50.6164 150.098C50.4617 150.071 50.2911 150.045 50.1044 150.018C49.9231 149.991 49.7391 149.957 49.5524 149.914C49.3657 149.866 49.1951 149.797 49.0404 149.706C48.8857 149.615 48.7604 149.493 48.6644 149.338C48.5737 149.183 48.5284 148.983 48.5284 148.738C48.5284 148.466 48.6057 148.226 48.7604 148.018C48.9204 147.81 49.1497 147.647 49.4484 147.53C49.7471 147.407 50.1044 147.346 50.5204 147.346C50.8137 147.346 51.1124 147.378 51.4164 147.442C51.7204 147.506 51.9737 147.599 52.1764 147.722L51.7604 148.61C51.5524 148.487 51.3417 148.405 51.1284 148.362C50.9204 148.314 50.7177 148.29 50.5204 148.29C50.2431 148.29 50.0404 148.327 49.9124 148.402C49.7844 148.477 49.7204 148.573 49.7204 148.69C49.7204 148.797 49.7657 148.877 49.8564 148.93C49.9524 148.983 50.0777 149.026 50.2324 149.058C50.3871 149.09 50.5551 149.119 50.7364 149.146C50.9231 149.167 51.1097 149.202 51.2964 149.25C51.4831 149.298 51.6511 149.367 51.8004 149.458C51.9551 149.543 52.0804 149.663 52.1764 149.818C52.2724 149.967 52.3204 150.165 52.3204 150.41C52.3204 150.677 52.2404 150.914 52.0804 151.122C51.9204 151.325 51.6884 151.485 51.3844 151.602C51.0857 151.719 50.7204 151.778 50.2884 151.778ZM53.0904 151.714V147.41H54.3384V151.714H53.0904ZM53.7144 146.81C53.4851 146.81 53.2984 146.743 53.1544 146.61C53.0104 146.477 52.9384 146.311 52.9384 146.114C52.9384 145.917 53.0104 145.751 53.1544 145.618C53.2984 145.485 53.4851 145.418 53.7144 145.418C53.9437 145.418 54.1304 145.482 54.2744 145.61C54.4184 145.733 54.4904 145.893 54.4904 146.09C54.4904 146.298 54.4184 146.471 54.2744 146.61C54.1357 146.743 53.9491 146.81 53.7144 146.81ZM57.5207 153.33C57.1153 153.33 56.7233 153.279 56.3447 153.178C55.9713 153.082 55.6593 152.935 55.4087 152.738L55.9047 151.842C56.086 151.991 56.3153 152.109 56.5927 152.194C56.8753 152.285 57.1527 152.33 57.4247 152.33C57.8673 152.33 58.1873 152.231 58.3847 152.034C58.5873 151.837 58.6887 151.543 58.6887 151.154V150.506L58.7687 149.426L58.7527 148.338V147.41H59.9367V150.994C59.9367 151.794 59.7287 152.383 59.3127 152.762C58.8967 153.141 58.2993 153.33 57.5207 153.33ZM57.3287 151.506C56.9287 151.506 56.566 151.421 56.2407 151.25C55.9207 151.074 55.662 150.831 55.4647 150.522C55.2727 150.207 55.1767 149.842 55.1767 149.426C55.1767 149.005 55.2727 148.639 55.4647 148.33C55.662 148.015 55.9207 147.773 56.2407 147.602C56.566 147.431 56.9287 147.346 57.3287 147.346C57.6913 147.346 58.0113 147.421 58.2887 147.57C58.566 147.714 58.782 147.941 58.9367 148.25C59.0913 148.554 59.1687 148.946 59.1687 149.426C59.1687 149.901 59.0913 150.293 58.9367 150.602C58.782 150.906 58.566 151.133 58.2887 151.282C58.0113 151.431 57.6913 151.506 57.3287 151.506ZM57.5767 150.482C57.7953 150.482 57.99 150.439 58.1607 150.354C58.3313 150.263 58.4647 150.138 58.5607 149.978C58.6567 149.818 58.7047 149.634 58.7047 149.426C58.7047 149.213 58.6567 149.029 58.5607 148.874C58.4647 148.714 58.3313 148.591 58.1607 148.506C57.99 148.415 57.7953 148.37 57.5767 148.37C57.358 148.37 57.1633 148.415 56.9927 148.506C56.822 148.591 56.686 148.714 56.5847 148.874C56.4887 149.029 56.4407 149.213 56.4407 149.426C56.4407 149.634 56.4887 149.818 56.5847 149.978C56.686 150.138 56.822 150.263 56.9927 150.354C57.1633 150.439 57.358 150.482 57.5767 150.482ZM63.7142 147.346C64.0556 147.346 64.3596 147.415 64.6262 147.554C64.8982 147.687 65.1116 147.895 65.2662 148.178C65.4209 148.455 65.4982 148.813 65.4982 149.25V151.714H64.2502V149.442C64.2502 149.095 64.1729 148.839 64.0182 148.674C63.8689 148.509 63.6556 148.426 63.3782 148.426C63.1809 148.426 63.0022 148.469 62.8422 148.554C62.6876 148.634 62.5649 148.759 62.4742 148.93C62.3889 149.101 62.3462 149.319 62.3462 149.586V151.714H61.0982V147.41H62.2902V148.602L62.0662 148.242C62.2209 147.954 62.4422 147.733 62.7302 147.578C63.0182 147.423 63.3462 147.346 63.7142 147.346ZM68.3431 151.714L70.7511 148.394V149.338L68.4471 146.114H69.9191L71.5111 148.362L70.8951 148.37L72.4631 146.114H73.8711L71.5831 149.282V148.354L74.0071 151.714H72.5111L70.8631 149.338H71.4551L69.8311 151.714H68.3431ZM78.6317 151.778C78.125 151.778 77.7303 151.65 77.4477 151.394C77.165 151.133 77.0237 150.746 77.0237 150.234V146.458H78.2717V150.218C78.2717 150.399 78.3197 150.541 78.4157 150.642C78.5117 150.738 78.6423 150.786 78.8077 150.786C79.005 150.786 79.173 150.733 79.3117 150.626L79.6477 151.506C79.5197 151.597 79.365 151.666 79.1837 151.714C79.0077 151.757 78.8237 151.778 78.6317 151.778ZM76.3597 148.466V147.506H79.3437V148.466H76.3597ZM82.2634 151.778C81.8047 151.778 81.3967 151.682 81.0394 151.49C80.6874 151.298 80.4074 151.037 80.1994 150.706C79.9967 150.37 79.8954 149.989 79.8954 149.562C79.8954 149.13 79.9967 148.749 80.1994 148.418C80.4074 148.082 80.6874 147.821 81.0394 147.634C81.3967 147.442 81.8047 147.346 82.2634 147.346C82.7167 147.346 83.1221 147.442 83.4794 147.634C83.8367 147.821 84.1167 148.079 84.3194 148.41C84.5221 148.741 84.6234 149.125 84.6234 149.562C84.6234 149.989 84.5221 150.37 84.3194 150.706C84.1167 151.037 83.8367 151.298 83.4794 151.49C83.1221 151.682 82.7167 151.778 82.2634 151.778ZM82.2634 150.754C82.4714 150.754 82.6581 150.706 82.8234 150.61C82.9887 150.514 83.1194 150.378 83.2154 150.202C83.3114 150.021 83.3594 149.807 83.3594 149.562C83.3594 149.311 83.3114 149.098 83.2154 148.922C83.1194 148.746 82.9887 148.61 82.8234 148.514C82.6581 148.418 82.4714 148.37 82.2634 148.37C82.0554 148.37 81.8687 148.418 81.7034 148.514C81.5381 148.61 81.4047 148.746 81.3034 148.922C81.2074 149.098 81.1594 149.311 81.1594 149.562C81.1594 149.807 81.2074 150.021 81.3034 150.202C81.4047 150.378 81.5381 150.514 81.7034 150.61C81.8687 150.706 82.0554 150.754 82.2634 150.754ZM89.2032 151.714V149.426L89.4992 150.21L87.0352 146.114H88.4112L90.2992 149.258H89.5072L91.4032 146.114H92.6752L90.2112 150.21L90.4992 149.426V151.714H89.2032Z" fill="#333333"/>
</g>
<defs>
<filter id="filter0_d_11_386" x="0" y="0" width="180" height="182.571" filterUnits="userSpaceOnUse" color-interpolation-filters="sRGB">
<feFlood flood-opacity="0" result="BackgroundImageFix"/>
<feColorMatrix in="SourceAlpha" type="matrix" values="0 0 0 0 0 0 0 0 0 0 0 0 0 0 0 0 0 0 127 0" result="hardAlpha"/>
<feOffset dy="2.57143"/>
<feColorMatrix type="matrix" values="0 0 0 0 0 0 0 0 0 0 0 0 0 0 0 0 0 0 0.25 0"/>
<feBlend mode="normal" in2="BackgroundImageFix" result="effect1_dropShadow_11_386"/>
<feBlend mode="normal" in="SourceGraphic" in2="effect1_dropShadow_11_386" result="shape"/>
</filter>
</defs>
</svg>
