<svg width="380" height="86" viewBox="0 0 380 86" fill="none" xmlns="http://www.w3.org/2000/svg">
<path fill-rule="evenodd" clip-rule="evenodd" d="M37.9998 0H0V52.18C0 65.285 10.6148 75.9134 23.7197 75.9301C51.8578 75.9659 94.9997 76.021 94.9997 76.021L105.451 85.4999H141.548L152 76.021H356.25C362.549 76.021 368.59 73.5185 373.044 69.0643C377.498 64.6101 380 58.5688 380 52.2696C380 52.2628 380 52.2557 380 52.2486C379.999 39.1323 369.366 28.5 356.25 28.5C297.858 28.5 151.999 28.5 151.999 28.5L141.555 37.9788H105.451L94.9997 28.5H61.7498C55.4509 28.5 49.41 25.9977 44.9561 21.5437C40.5021 17.0897 37.9998 11.0489 37.9998 4.74992V0Z" fill="#FFDE6C"/>
<path fill-rule="evenodd" clip-rule="evenodd" d="M379.99 52.2479C379.99 45.9497 377.488 39.9093 373.035 35.4555C368.581 31.002 362.541 28.5 356.242 28.5C297.85 28.5 151.991 28.5 151.991 28.5L141.54 37.9788H105.443L94.9914 28.5H61.7415C48.6247 28.5 37.9915 17.8667 37.9915 4.74992C37.9915 1.91406 37.9915 0 37.9915 0H32.2915C32.2915 0 32.2915 2.08665 32.2915 5.22051C32.2915 20.9103 45.0107 33.6293 60.7003 33.6293C76.36 33.6293 92.6587 33.6293 92.6587 33.6293L103.11 43.1419H143.915L154.367 33.663C154.367 33.663 302.666 33.671 355.695 33.6737C365.957 33.6742 374.279 41.987 374.291 52.2491C374.291 52.2495 374.291 52.25 374.291 52.25H379.99V52.2479Z" fill="#FFF0BD"/>
<path fill-rule="evenodd" clip-rule="evenodd" d="M380 52.25H374.299C374.299 52.25 374.299 52.25 374.299 52.2505C374.299 57.1837 372.34 61.9149 368.851 65.4033C365.363 68.8917 360.632 70.8516 355.698 70.8516C301.851 70.8516 149.639 70.8516 149.639 70.8516L139.187 80.3305H107.813L97.3609 70.8516H24.3011C14.0279 70.8516 5.69999 62.5237 5.69999 52.2505C5.69999 31.2583 5.69999 0 5.69999 0H0C0 0 0 29.9788 0 52.289C0 58.5879 2.5023 64.6288 6.95627 69.0828C11.4102 73.5367 17.4511 76.039 23.75 76.039C51.8752 76.039 94.9534 76.039 94.9534 76.039L105.451 85.4999H141.548L152.046 76.039H356.249C369.366 76.039 379.999 65.4063 380 52.2897C380 52.2635 380 52.25 380 52.25Z" fill="#EBC541"/>
</svg>
