<svg width="380" height="100" viewBox="0 0 380 100" fill="none" xmlns="http://www.w3.org/2000/svg">
<path fill-rule="evenodd" clip-rule="evenodd" d="M380 53C380 42 371 33 360 33C316.305 33 242.355 33 211 33C203 33 198.79 30.7904 194 26C183.594 16.2468 157.396 0 99.9798 0C19.0332 0 0 33.2946 0 33.2946C0 33.2946 0.000479904 55.0781 0.000719856 70C0.000719856 81 9 90 20 90C49.6132 90 100 90 100 90L110 100H150L159.967 90C159.967 90 299.544 90 361 90C373 90 380 82 380 71C380 68.9015 380 55.0983 380 53Z" fill="#FC79FF"/>
<path fill-rule="evenodd" clip-rule="evenodd" d="M380 60H375V70C375 81 371 85 360 85H158L148 95H112L102 85C102 85 48.4406 85 20 85C11 85 5 79 5 70V60.5H0L0 70C0 81 9 90 20 90C49.6137 90 100 90 100 90L110 100H150L160 90H360C373 90 380 83 380 70C380 67.7613 380 60 380 60Z" fill="#CD5ACF"/>
<path fill-rule="evenodd" clip-rule="evenodd" d="M0 60.5H5V35C5 35 22.3921 5 100 5C152.703 5 180.864 21.6395 192 31C197.367 35.5152 202.957 37.9463 210 38C242.704 38.2651 319.689 37.6852 361 38C370 38 375 44 375 53V59.9981L380 60V53C380 42 372 33 361 33C317.312 33 241.369 33 210 33C203.594 32.9998 198.429 30.4287 194 26C183.608 16.2451 157.439 0 99.9798 0C18.9394 0 0.000719856 33 0.000719856 33L0 60.5Z" fill="#FDACFF"/>
</svg>
