<svg width="80" height="84" viewBox="0 0 80 84" fill="none" xmlns="http://www.w3.org/2000/svg">
<g filter="url(#filter0_d)">
<rect id="BG" width="80" height="80" rx="10" fill="#F2F2F2"/>
<ellipse cx="66.25" cy="40" rx="3.75" ry="3.84615" stroke="#333333" stroke-width="5"/>
<path d="M10 10L10 7.5C9.10127 7.5 8.27169 7.98241 7.82719 8.76352C7.38268 9.54463 7.39165 10.5042 7.85069 11.2769L10 10ZM10 70L7.9399 68.5837C7.41393 69.3487 7.35523 70.3422 7.78744 71.1639C8.21966 71.9855 9.0716 72.5 10 72.5V70ZM10 72.5C10.0122 72.5 10.0243 72.5 10.0364 72.5C10.0485 72.5 10.0606 72.5 10.0727 72.5C10.0848 72.5 10.0968 72.5 10.1088 72.5C10.1209 72.5 10.1329 72.5 10.1449 72.5C10.1568 72.5 10.1688 72.5 10.1807 72.5C10.1927 72.5 10.2046 72.5 10.2165 72.5C10.2284 72.5 10.2403 72.5 10.2521 72.5C10.264 72.5 10.2758 72.5 10.2876 72.5C10.2994 72.5 10.3112 72.5 10.3229 72.5C10.3347 72.5 10.3465 72.5 10.3582 72.5C10.3699 72.5 10.3816 72.5 10.3933 72.5C10.405 72.5 10.4166 72.5 10.4283 72.5C10.4399 72.5 10.4515 72.5 10.4631 72.5C10.4747 72.5 10.4863 72.5 10.4978 72.5C10.5094 72.5 10.5209 72.5 10.5324 72.5C10.5439 72.5 10.5554 72.5 10.5669 72.5C10.5784 72.5 10.5898 72.5 10.6013 72.5C10.6127 72.5 10.6241 72.5 10.6355 72.5C10.6469 72.5 10.6582 72.5 10.6696 72.5C10.6809 72.5 10.6923 72.5 10.7036 72.5C10.7149 72.5 10.7262 72.5 10.7374 72.5C10.7487 72.5 10.76 72.5 10.7712 72.5C10.7824 72.5 10.7936 72.5 10.8048 72.5C10.816 72.5 10.8272 72.5 10.8383 72.5C10.8495 72.5 10.8606 72.5 10.8717 72.5C10.8829 72.5 10.8939 72.5 10.905 72.5C10.9161 72.5 10.9272 72.5 10.9382 72.5C10.9492 72.5 10.9602 72.5 10.9712 72.5C10.9822 72.5 10.9932 72.5 11.0042 72.5C11.0151 72.5 11.0261 72.5 11.037 72.5C11.0479 72.5 11.0588 72.5 11.0697 72.5C11.0806 72.5 11.0915 72.5 11.1023 72.5C11.1132 72.5 11.124 72.5 11.1348 72.5C11.1456 72.5 11.1564 72.5 11.1672 72.5C11.178 72.5 11.1887 72.5 11.1995 72.5C11.2102 72.5 11.2209 72.5 11.2317 72.5C11.2424 72.5 11.253 72.5 11.2637 72.5C11.2744 72.5 11.285 72.5 11.2957 72.5C11.3063 72.5 11.3169 72.5 11.3275 72.5C11.3381 72.5 11.3487 72.5 11.3593 72.5C11.3698 72.5 11.3804 72.5 11.3909 72.5C11.4014 72.5 11.4119 72.5 11.4224 72.5C11.4329 72.5 11.4434 72.5 11.4539 72.5C11.4643 72.5 11.4748 72.5 11.4852 72.5C11.4956 72.5 11.5061 72.5 11.5164 72.5C11.5268 72.5 11.5372 72.5 11.5476 72.5C11.5579 72.5 11.5683 72.5 11.5786 72.5C11.5889 72.5 11.5993 72.5 11.6096 72.5C11.6199 72.5 11.6301 72.5 11.6404 72.5C11.6507 72.5 11.6609 72.5 11.6711 72.5C11.6814 72.5 11.6916 72.5 11.7018 72.5C11.712 72.5 11.7222 72.5 11.7323 72.5C11.7425 72.5 11.7527 72.5 11.7628 72.5C11.7729 72.5 11.7831 72.5 11.7932 72.5C11.8033 72.5 11.8134 72.5 11.8234 72.5C11.8335 72.5 11.8436 72.5 11.8536 72.5C11.8637 72.5 11.8737 72.5 11.8837 72.5C11.8937 72.5 11.9037 72.5 11.9137 72.5C11.9237 72.5 11.9337 72.5 11.9436 72.5C11.9536 72.5 11.9635 72.5 11.9734 72.5C11.9834 72.5 11.9933 72.5 12.0032 72.5C12.0131 72.5 12.0229 72.5 12.0328 72.5C12.0427 72.5 12.0525 72.5 12.0624 72.5C12.0722 72.5 12.082 72.5 12.0919 72.5C12.1017 72.5 12.1115 72.5 12.1212 72.5C12.131 72.5 12.1408 72.5 12.1505 72.5C12.1603 72.5 12.17 72.5 12.1798 72.5C12.1895 72.5 12.1992 72.5 12.2089 72.5C12.2186 72.5 12.2283 72.5 12.238 72.5C12.2476 72.5 12.2573 72.5 12.267 72.5C12.2766 72.5 12.2862 72.5 12.2959 72.5C12.3055 72.5 12.3151 72.5 12.3247 72.5C12.3343 72.5 12.3438 72.5 12.3534 72.5C12.363 72.5 12.3725 72.5 12.3821 72.5C12.3916 72.5 12.4012 72.5 12.4107 72.5C12.4202 72.5 12.4297 72.5 12.4392 72.5C12.4487 72.5 12.4581 72.5 12.4676 72.5C12.4771 72.5 12.4865 72.5 12.496 72.5C12.5054 72.5 12.5149 72.5 12.5243 72.5C12.5337 72.5 12.5431 72.5 12.5525 72.5C12.5619 72.5 12.5713 72.5 12.5806 72.5C12.59 72.5 12.5994 72.5 12.6087 72.5C12.6181 72.5 12.6274 72.5 12.6367 72.5C12.646 72.5 12.6553 72.5 12.6646 72.5C12.6739 72.5 12.6832 72.5 12.6925 72.5C12.7018 72.5 12.7111 72.5 12.7203 72.5C12.7296 72.5 12.7388 72.5 12.748 72.5C12.7573 72.5 12.7665 72.5 12.7757 72.5C12.7849 72.5 12.7941 72.5 12.8033 72.5C12.8125 72.5 12.8217 72.5 12.8308 72.5C12.84 72.5 12.8492 72.5 12.8583 72.5C12.8675 72.5 12.8766 72.5 12.8857 72.5C12.8948 72.5 12.904 72.5 12.9131 72.5C12.9222 72.5 12.9313 72.5 12.9403 72.5C12.9494 72.5 12.9585 72.5 12.9676 72.5C12.9766 72.5 12.9857 72.5 12.9947 72.5C13.0038 72.5 13.0128 72.5 13.0218 72.5C13.0309 72.5 13.0399 72.5 13.0489 72.5C13.0579 72.5 13.0669 72.5 13.0759 72.5C13.0849 72.5 13.0938 72.5 13.1028 72.5C13.1118 72.5 13.1207 72.5 13.1297 72.5C13.1386 72.5 13.1476 72.5 13.1565 72.5C13.1654 72.5 13.1743 72.5 13.1833 72.5C13.1922 72.5 13.2011 72.5 13.21 72.5C13.2189 72.5 13.2278 72.5 13.2366 72.5C13.2455 72.5 13.2544 72.5 13.2632 72.5C13.2721 72.5 13.281 72.5 13.2898 72.5C13.2986 72.5 13.3075 72.5 13.3163 72.5C13.3251 72.5 13.334 72.5 13.3428 72.5C13.3516 72.5 13.3604 72.5 13.3692 72.5C13.378 72.5 13.3868 72.5 13.3955 72.5C13.4043 72.5 13.4131 72.5 13.4218 72.5C13.4306 72.5 13.4394 72.5 13.4481 72.5C13.4569 72.5 13.4656 72.5 13.4743 72.5C13.4831 72.5 13.4918 72.5 13.5005 72.5C13.5092 72.5 13.5179 72.5 13.5266 72.5C13.5354 72.5 13.544 72.5 13.5527 72.5C13.5614 72.5 13.5701 72.5 13.5788 72.5C13.5875 72.5 13.5961 72.5 13.6048 72.5C13.6135 72.5 13.6221 72.5 13.6308 72.5C13.6394 72.5 13.6481 72.5 13.6567 72.5C13.6653 72.5 13.6739 72.5 13.6826 72.5C13.6912 72.5 13.6998 72.5 13.7084 72.5C13.717 72.5 13.7256 72.5 13.7342 72.5C13.7428 72.5 13.7514 72.5 13.76 72.5C13.7686 72.5 13.7772 72.5 13.7857 72.5C13.7943 72.5 13.8029 72.5 13.8114 72.5C13.82 72.5 13.8286 72.5 13.8371 72.5C13.8457 72.5 13.8542 72.5 13.8628 72.5C13.8713 72.5 13.8798 72.5 13.8884 72.5C13.8969 72.5 13.9054 72.5 13.9139 72.5C13.9224 72.5 13.931 72.5 13.9395 72.5C13.948 72.5 13.9565 72.5 13.965 72.5C13.9735 72.5 13.982 72.5 13.9905 72.5C13.9989 72.5 14.0074 72.5 14.0159 72.5C14.0244 72.5 14.0329 72.5 14.0413 72.5C14.0498 72.5 14.0583 72.5 14.0667 72.5C14.0752 72.5 14.0836 72.5 14.0921 72.5C14.1005 72.5 14.109 72.5 14.1174 72.5C14.1259 72.5 14.1343 72.5 14.1428 72.5C14.1512 72.5 14.1596 72.5 14.1681 72.5C14.1765 72.5 14.1849 72.5 14.1933 72.5C14.2017 72.5 14.2102 72.5 14.2186 72.5C14.227 72.5 14.2354 72.5 14.2438 72.5C14.2522 72.5 14.2606 72.5 14.269 72.5C14.2774 72.5 14.2858 72.5 14.2942 72.5C14.3026 72.5 14.311 72.5 14.3194 72.5C14.3278 72.5 14.3361 72.5 14.3445 72.5C14.3529 72.5 14.3613 72.5 14.3696 72.5C14.378 72.5 14.3864 72.5 14.3948 72.5C14.4031 72.5 14.4115 72.5 14.4199 72.5C14.4282 72.5 14.4366 72.5 14.445 72.5C14.4533 72.5 14.4617 72.5 14.47 72.5C14.4784 72.5 14.4867 72.5 14.4951 72.5C14.5034 72.5 14.5118 72.5 14.5201 72.5C14.5285 72.5 14.5368 72.5 14.5452 72.5C14.5535 72.5 14.5618 72.5 14.5702 72.5C14.5785 72.5 14.5868 72.5 14.5952 72.5C14.6035 72.5 14.6119 72.5 14.6202 72.5C14.6285 72.5 14.6368 72.5 14.6452 72.5C14.6535 72.5 14.6618 72.5 14.6702 72.5C14.6785 72.5 14.6868 72.5 14.6951 72.5C14.7035 72.5 14.7118 72.5 14.7201 72.5C14.7284 72.5 14.7368 72.5 14.7451 72.5C14.7534 72.5 14.7617 72.5 14.77 72.5C14.7784 72.5 14.7867 72.5 14.795 72.5C14.8033 72.5 14.8116 72.5 14.8199 72.5C14.8283 72.5 14.8366 72.5 14.8449 72.5C14.8532 72.5 14.8615 72.5 14.8698 72.5C14.8782 72.5 14.8865 72.5 14.8948 72.5C14.9031 72.5 14.9114 72.5 14.9197 72.5C14.9281 72.5 14.9364 72.5 14.9447 72.5C14.953 72.5 14.9613 72.5 14.9696 72.5C14.978 72.5 14.9863 72.5 14.9946 72.5C15.0029 72.5 15.0112 72.5 15.0196 72.5C15.0279 72.5 15.0362 72.5 15.0445 72.5C15.0528 72.5 15.0612 72.5 15.0695 72.5C15.0778 72.5 15.0861 72.5 15.0944 72.5C15.1028 72.5 15.1111 72.5 15.1194 72.5C15.1278 72.5 15.1361 72.5 15.1444 72.5C15.1527 72.5 15.1611 72.5 15.1694 72.5C15.1777 72.5 15.1861 72.5 15.1944 72.5C15.2027 72.5 15.2111 72.5 15.2194 72.5C15.2278 72.5 15.2361 72.5 15.2444 72.5C15.2528 72.5 15.2611 72.5 15.2695 72.5C15.2778 72.5 15.2862 72.5 15.2945 72.5C15.3029 72.5 15.3112 72.5 15.3196 72.5C15.3279 72.5 15.3363 72.5 15.3446 72.5C15.353 72.5 15.3614 72.5 15.3697 72.5C15.3781 72.5 15.3865 72.5 15.3948 72.5C15.4032 72.5 15.4116 72.5 15.4199 72.5C15.4283 72.5 15.4367 72.5 15.4451 72.5C15.4535 72.5 15.4618 72.5 15.4702 72.5C15.4786 72.5 15.487 72.5 15.4954 72.5C15.5038 72.5 15.5122 72.5 15.5206 72.5C15.529 72.5 15.5374 72.5 15.5458 72.5C15.5542 72.5 15.5626 72.5 15.571 72.5C15.5794 72.5 15.5878 72.5 15.5963 72.5C15.6047 72.5 15.6131 72.5 15.6215 72.5C15.63 72.5 15.6384 72.5 15.6468 72.5C15.6553 72.5 15.6637 72.5 15.6722 72.5C15.6806 72.5 15.689 72.5 15.6975 72.5C15.706 72.5 15.7144 72.5 15.7229 72.5C15.7313 72.5 15.7398 72.5 15.7483 72.5C15.7567 72.5 15.7652 72.5 15.7737 72.5C15.7822 72.5 15.7907 72.5 15.7991 72.5C15.8076 72.5 15.8161 72.5 15.8246 72.5C15.8331 72.5 15.8416 72.5 15.8501 72.5C15.8586 72.5 15.8672 72.5 15.8757 72.5C15.8842 72.5 15.8927 72.5 15.9012 72.5C15.9098 72.5 15.9183 72.5 15.9268 72.5C15.9354 72.5 15.9439 72.5 15.9525 72.5C15.961 72.5 15.9696 72.5 15.9782 72.5C15.9867 72.5 15.9953 72.5 16.0039 72.5C16.0124 72.5 16.021 72.5 16.0296 72.5C16.0382 72.5 16.0468 72.5 16.0554 72.5C16.064 72.5 16.0726 72.5 16.0812 72.5C16.0898 72.5 16.0984 72.5 16.107 72.5C16.1157 72.5 16.1243 72.5 16.1329 72.5C16.1416 72.5 16.1502 72.5 16.1588 72.5C16.1675 72.5 16.1762 72.5 16.1848 72.5C16.1935 72.5 16.2021 72.5 16.2108 72.5C16.2195 72.5 16.2282 72.5 16.2369 72.5C16.2456 72.5 16.2543 72.5 16.263 72.5C16.2717 72.5 16.2804 72.5 16.2891 72.5C16.2978 72.5 16.3065 72.5 16.3153 72.5C16.324 72.5 16.3327 72.5 16.3415 72.5C16.3502 72.5 16.359 72.5 16.3678 72.5C16.3765 72.5 16.3853 72.5 16.3941 72.5C16.4029 72.5 16.4116 72.5 16.4204 72.5C16.4292 72.5 16.438 72.5 16.4469 72.5C16.4557 72.5 16.4645 72.5 16.4733 72.5C16.4821 72.5 16.491 72.5 16.4998 72.5C16.5087 72.5 16.5175 72.5 16.5264 72.5C16.5352 72.5 16.5441 72.5 16.553 72.5C16.5619 72.5 16.5707 72.5 16.5796 72.5C16.5885 72.5 16.5974 72.5 16.6064 72.5C16.6153 72.5 16.6242 72.5 16.6331 72.5C16.6421 72.5 16.651 72.5 16.6599 72.5C16.6689 72.5 16.6779 72.5 16.6868 72.5C16.6958 72.5 16.7048 72.5 16.7138 72.5C16.7227 72.5 16.7317 72.5 16.7407 72.5C16.7498 72.5 16.7588 72.5 16.7678 72.5C16.7768 72.5 16.7859 72.5 16.7949 72.5C16.8039 72.5 16.813 72.5 16.8221 72.5C16.8311 72.5 16.8402 72.5 16.8493 72.5C16.8584 72.5 16.8675 72.5 16.8766 72.5C16.8857 72.5 16.8948 72.5 16.9039 72.5C16.913 72.5 16.9222 72.5 16.9313 72.5C16.9405 72.5 16.9496 72.5 16.9588 72.5C16.968 72.5 16.9771 72.5 16.9863 72.5C16.9955 72.5 17.0047 72.5 17.0139 72.5C17.0231 72.5 17.0324 72.5 17.0416 72.5C17.0508 72.5 17.0601 72.5 17.0693 72.5C17.0786 72.5 17.0879 72.5 17.0971 72.5C17.1064 72.5 17.1157 72.5 17.125 72.5C17.1343 72.5 17.1436 72.5 17.1529 72.5C17.1623 72.5 17.1716 72.5 17.1809 72.5C17.1903 72.5 17.1996 72.5 17.209 72.5C17.2184 72.5 17.2278 72.5 17.2372 72.5C17.2466 72.5 17.256 72.5 17.2654 72.5C17.2748 72.5 17.2842 72.5 17.2937 72.5C17.3031 72.5 17.3126 72.5 17.322 72.5C17.3315 72.5 17.341 72.5 17.3505 72.5C17.36 72.5 17.3695 72.5 17.379 72.5C17.3885 72.5 17.398 72.5 17.4076 72.5C17.4171 72.5 17.4267 72.5 17.4362 72.5C17.4458 72.5 17.4554 72.5 17.465 72.5C17.4746 72.5 17.4842 72.5 17.4938 72.5C17.5034 72.5 17.5131 72.5 17.5227 72.5C17.5324 72.5 17.542 72.5 17.5517 72.5C17.5614 72.5 17.5711 72.5 17.5808 72.5C17.5905 72.5 17.6002 72.5 17.6099 72.5C17.6196 72.5 17.6294 72.5 17.6391 72.5C17.6489 72.5 17.6586 72.5 17.6684 72.5C17.6782 72.5 17.688 72.5 17.6978 72.5C17.7076 72.5 17.7175 72.5 17.7273 72.5C17.7371 72.5 17.747 72.5 17.7569 72.5C17.7667 72.5 17.7766 72.5 17.7865 72.5C17.7964 72.5 17.8063 72.5 17.8162 72.5C17.8262 72.5 17.8361 72.5 17.8461 72.5C17.856 72.5 17.866 72.5 17.876 72.5C17.886 72.5 17.896 72.5 17.906 72.5C17.916 72.5 17.926 72.5 17.9361 72.5C17.9461 72.5 17.9562 72.5 17.9663 72.5C17.9763 72.5 17.9864 72.5 17.9965 72.5C18.0066 72.5 18.0168 72.5 18.0269 72.5C18.037 72.5 18.0472 72.5 18.0574 72.5C18.0675 72.5 18.0777 72.5 18.0879 72.5C18.0981 72.5 18.1083 72.5 18.1186 72.5C18.1288 72.5 18.139 72.5 18.1493 72.5C18.1596 72.5 18.1698 72.5 18.1801 72.5C18.1904 72.5 18.2008 72.5 18.2111 72.5C18.2214 72.5 18.2318 72.5 18.2421 72.5C18.2525 72.5 18.2629 72.5 18.2733 72.5C18.2837 72.5 18.2941 72.5 18.3045 72.5C18.3149 72.5 18.3254 72.5 18.3358 72.5C18.3463 72.5 18.3568 72.5 18.3673 72.5C18.3778 72.5 18.3883 72.5 18.3988 72.5C18.4093 72.5 18.4199 72.5 18.4305 72.5C18.441 72.5 18.4516 72.5 18.4622 72.5C18.4728 72.5 18.4834 72.5 18.4941 72.5C18.5047 72.5 18.5153 72.5 18.526 72.5C18.5367 72.5 18.5474 72.5 18.5581 72.5C18.5688 72.5 18.5795 72.5 18.5902 72.5C18.601 72.5 18.6117 72.5 18.6225 72.5C18.6333 72.5 18.6441 72.5 18.6549 72.5C18.6657 72.5 18.6766 72.5 18.6874 72.5C18.6983 72.5 18.7091 72.5 18.72 72.5C18.7309 72.5 18.7418 72.5 18.7527 72.5C18.7636 72.5 18.7746 72.5 18.7856 72.5C18.7965 72.5 18.8075 72.5 18.8185 72.5C18.8295 72.5 18.8405 72.5 18.8516 72.5C18.8626 72.5 18.8736 72.5 18.8847 72.5C18.8958 72.5 18.9069 72.5 18.918 72.5C18.9291 72.5 18.9403 72.5 18.9514 72.5C18.9626 72.5 18.9737 72.5 18.9849 72.5C18.9961 72.5 19.0073 72.5 19.0186 72.5C19.0298 72.5 19.041 72.5 19.0523 72.5C19.0636 72.5 19.0749 72.5 19.0862 72.5C19.0975 72.5 19.1088 72.5 19.1202 72.5C19.1315 72.5 19.1429 72.5 19.1543 72.5C19.1657 72.5 19.1771 72.5 19.1885 72.5C19.1999 72.5 19.2114 72.5 19.2229 72.5C19.2343 72.5 19.2458 72.5 19.2573 72.5C19.2689 72.5 19.2804 72.5 19.2919 72.5C19.3035 72.5 19.3151 72.5 19.3267 72.5C19.3383 72.5 19.3499 72.5 19.3615 72.5C19.3732 72.5 19.3848 72.5 19.3965 72.5C19.4082 72.5 19.4199 72.5 19.4316 72.5C19.4433 72.5 19.4551 72.5 19.4668 72.5C19.4786 72.5 19.4904 72.5 19.5022 72.5C19.514 72.5 19.5258 72.5 19.5377 72.5C19.5495 72.5 19.5614 72.5 19.5733 72.5C19.5852 72.5 19.5971 72.5 19.6091 72.5C19.621 72.5 19.633 72.5 19.6449 72.5C19.6569 72.5 19.6689 72.5 19.681 72.5C19.693 72.5 19.705 72.5 19.7171 72.5C19.7292 72.5 19.7413 72.5 19.7534 72.5C19.7655 72.5 19.7776 72.5 19.7898 72.5C19.802 72.5 19.8142 72.5 19.8264 72.5C19.8386 72.5 19.8508 72.5 19.863 72.5C19.8753 72.5 19.8876 72.5 19.8999 72.5C19.9122 72.5 19.9245 72.5 19.9368 72.5C19.9492 72.5 19.9616 72.5 19.9739 72.5C19.9863 72.5 19.9988 72.5 20.0112 72.5C20.0236 72.5 20.0361 72.5 20.0486 72.5C20.0611 72.5 20.0736 72.5 20.0861 72.5C20.0986 72.5 20.1112 72.5 20.1238 72.5C20.1363 72.5 20.149 72.5 20.1616 72.5C20.1742 72.5 20.1869 72.5 20.1995 72.5C20.2122 72.5 20.2249 72.5 20.2376 72.5C20.2504 72.5 20.2631 72.5 20.2759 72.5C20.2887 72.5 20.3014 72.5 20.3143 72.5C20.3271 72.5 20.3399 72.5 20.3528 72.5C20.3657 72.5 20.3786 72.5 20.3915 72.5C20.4044 72.5 20.4174 72.5 20.4303 72.5C20.4433 72.5 20.4563 72.5 20.4693 72.5C20.4823 72.5 20.4954 72.5 20.5084 72.5C20.5215 72.5 20.5346 72.5 20.5477 72.5C20.5608 72.5 20.574 72.5 20.5872 72.5C20.6003 72.5 20.6135 72.5 20.6267 72.5C20.64 72.5 20.6532 72.5 20.6665 72.5C20.6798 72.5 20.6931 72.5 20.7064 72.5C20.7197 72.5 20.7331 72.5 20.7464 72.5C20.7598 72.5 20.7732 72.5 20.7866 72.5C20.8001 72.5 20.8135 72.5 20.827 72.5C20.8405 72.5 20.854 72.5 20.8675 72.5C20.8811 72.5 20.8946 72.5 20.9082 72.5C20.9218 72.5 20.9354 72.5 20.949 72.5C20.9627 72.5 20.9763 72.5 20.99 72.5C21.0037 72.5 21.0174 72.5 21.0312 72.5C21.0449 72.5 21.0587 72.5 21.0725 72.5C21.0863 72.5 21.1001 72.5 21.114 72.5C21.1278 72.5 21.1417 72.5 21.1556 72.5C21.1695 72.5 21.1835 72.5 21.1974 72.5C21.2114 72.5 21.2254 72.5 21.2394 72.5C21.2534 72.5 21.2675 72.5 21.2815 72.5C21.2956 72.5 21.3097 72.5 21.3239 72.5C21.338 72.5 21.3521 72.5 21.3663 72.5C21.3805 72.5 21.3947 72.5 21.409 72.5C21.4232 72.5 21.4375 72.5 21.4518 72.5C21.4661 72.5 21.4804 72.5 21.4947 72.5C21.5091 72.5 21.5235 72.5 21.5379 72.5C21.5523 72.5 21.5667 72.5 21.5812 72.5C21.5957 72.5 21.6102 72.5 21.6247 72.5C21.6392 72.5 21.6538 72.5 21.6683 72.5C21.6829 72.5 21.6975 72.5 21.7122 72.5C21.7268 72.5 21.7415 72.5 21.7562 72.5C21.7709 72.5 21.7856 72.5 21.8004 72.5C21.8151 72.5 21.8299 72.5 21.8447 72.5C21.8595 72.5 21.8744 72.5 21.8893 72.5C21.9041 72.5 21.919 72.5 21.934 72.5C21.9489 72.5 21.9639 72.5 21.9789 72.5C21.9939 72.5 22.0089 72.5 22.0239 72.5C22.039 72.5 22.0541 72.5 22.0692 72.5C22.0843 72.5 22.0994 72.5 22.1146 72.5C22.1298 72.5 22.145 72.5 22.1602 72.5C22.1754 72.5 22.1907 72.5 22.206 72.5C22.2213 72.5 22.2366 72.5 22.252 72.5C22.2673 72.5 22.2827 72.5 22.2981 72.5C22.3136 72.5 22.329 72.5 22.3445 72.5C22.36 72.5 22.3755 72.5 22.391 72.5C22.4065 72.5 22.4221 72.5 22.4377 72.5C22.4533 72.5 22.469 72.5 22.4846 72.5C22.5003 72.5 22.516 72.5 22.5317 72.5C22.5474 72.5 22.5632 72.5 22.579 72.5C22.5948 72.5 22.6106 72.5 22.6265 72.5C22.6423 72.5 22.6582 72.5 22.6741 72.5C22.69 72.5 22.706 72.5 22.722 72.5C22.7379 72.5 22.7539 72.5 22.77 72.5C22.786 72.5 22.8021 72.5 22.8182 72.5C22.8343 72.5 22.8505 72.5 22.8666 72.5C22.8828 72.5 22.899 72.5 22.9153 72.5C22.9315 72.5 22.9478 72.5 22.9641 72.5C22.9804 72.5 22.9967 72.5 23.0131 72.5C23.0295 72.5 23.0459 72.5 23.0623 72.5C23.0787 72.5 23.0952 72.5 23.1117 72.5C23.1282 72.5 23.1447 72.5 23.1613 72.5C23.1779 72.5 23.1945 72.5 23.2111 72.5C23.2277 72.5 23.2444 72.5 23.2611 72.5C23.2778 72.5 23.2945 72.5 23.3113 72.5C23.3281 72.5 23.3449 72.5 23.3617 72.5C23.3785 72.5 23.3954 72.5 23.4123 72.5C23.4292 72.5 23.4461 72.5 23.4631 72.5C23.4801 72.5 23.4971 72.5 23.5141 72.5C23.5311 72.5 23.5482 72.5 23.5653 72.5C23.5824 72.5 23.5996 72.5 23.6167 72.5C23.6339 72.5 23.6511 72.5 23.6684 72.5C23.6856 72.5 23.7029 72.5 23.7202 72.5C23.7375 72.5 23.7548 72.5 23.7722 72.5C23.7896 72.5 23.807 72.5 23.8245 72.5C23.8419 72.5 23.8594 72.5 23.8769 72.5C23.8944 72.5 23.912 72.5 23.9296 72.5C23.9472 72.5 23.9648 72.5 23.9825 72.5C24.0001 72.5 24.0178 72.5 24.0356 72.5C24.0533 72.5 24.071 72.5 24.0889 72.5C24.1067 72.5 24.1245 72.5 24.1424 72.5C24.1602 72.5 24.1781 72.5 24.1961 72.5C24.214 72.5 24.232 72.5 24.25 72.5C24.2681 72.5 24.2861 72.5 24.3042 72.5C24.3223 72.5 24.3404 72.5 24.3586 72.5C24.3767 72.5 24.3949 72.5 24.4132 72.5C24.4314 72.5 24.4497 72.5 24.468 72.5C24.4863 72.5 24.5046 72.5 24.523 72.5C24.5414 72.5 24.5598 72.5 24.5782 72.5C24.5967 72.5 24.6152 72.5 24.6337 72.5C24.6522 72.5 24.6708 72.5 24.6894 72.5C24.708 72.5 24.7266 72.5 24.7453 72.5C24.764 72.5 24.7827 72.5 24.8014 72.5C24.8202 72.5 24.839 72.5 24.8578 72.5C24.8766 72.5 24.8955 72.5 24.9144 72.5C24.9333 72.5 24.9522 72.5 24.9712 72.5C24.9902 72.5 25.0092 72.5 25.0282 72.5C25.0473 72.5 25.0664 72.5 25.0855 72.5C25.1046 72.5 25.1238 72.5 25.143 72.5C25.1622 72.5 25.1814 72.5 25.2007 72.5C25.22 72.5 25.2393 72.5 25.2586 72.5C25.278 72.5 25.2974 72.5 25.3168 72.5C25.3362 72.5 25.3557 72.5 25.3752 72.5C25.3947 72.5 25.4143 72.5 25.4338 72.5C25.4534 72.5 25.473 72.5 25.4927 72.5C25.5124 72.5 25.5321 72.5 25.5518 72.5C25.5716 72.5 25.5913 72.5 25.6111 72.5C25.631 72.5 25.6508 72.5 25.6707 72.5C25.6906 72.5 25.7105 72.5 25.7305 72.5C25.7505 72.5 25.7705 72.5 25.7906 72.5C25.8106 72.5 25.8307 72.5 25.8508 72.5C25.871 72.5 25.8911 72.5 25.9114 72.5C25.9316 72.5 25.9518 72.5 25.9721 72.5C25.9924 72.5 26.0127 72.5 26.0331 72.5C26.0535 72.5 26.0739 72.5 26.0943 72.5C26.1148 72.5 26.1353 72.5 26.1558 72.5C26.1764 72.5 26.1969 72.5 26.2175 72.5C26.2382 72.5 26.2588 72.5 26.2795 72.5C26.3002 72.5 26.3209 72.5 26.3417 72.5C26.3625 72.5 26.3833 72.5 26.4042 72.5C26.425 72.5 26.4459 72.5 26.4669 72.5C26.4878 72.5 26.5088 72.5 26.5298 72.5C26.5508 72.5 26.5719 72.5 26.593 72.5C26.6141 72.5 26.6352 72.5 26.6564 72.5C26.6776 72.5 26.6988 72.5 26.7201 72.5C26.7414 72.5 26.7627 72.5 26.784 72.5C26.8054 72.5 26.8268 72.5 26.8482 72.5C26.8696 72.5 26.8911 72.5 26.9126 72.5C26.9342 72.5 26.9557 72.5 26.9773 72.5C26.9989 72.5 27.0206 72.5 27.0423 72.5C27.064 72.5 27.0857 72.5 27.1075 72.5C27.1292 72.5 27.151 72.5 27.1729 72.5C27.1948 72.5 27.2167 72.5 27.2386 72.5C27.2605 72.5 27.2825 72.5 27.3046 72.5C27.3266 72.5 27.3486 72.5 27.3708 72.5C27.3929 72.5 27.415 72.5 27.4372 72.5C27.4594 72.5 27.4817 72.5 27.504 72.5C27.5262 72.5 27.5486 72.5 27.5709 72.5C27.5933 72.5 27.6157 72.5 27.6382 72.5C27.6606 72.5 27.6831 72.5 27.7057 72.5C27.7282 72.5 27.7508 72.5 27.7734 72.5C27.7961 72.5 27.8188 72.5 27.8415 72.5C27.8642 72.5 27.887 72.5 27.9098 72.5C27.9326 72.5 27.9554 72.5 27.9783 72.5C28.0012 72.5 28.0241 72.5 28.0471 72.5C28.0701 72.5 28.0931 72.5 28.1162 72.5C28.1393 72.5 28.1624 72.5 28.1856 72.5C28.2087 72.5 28.2319 72.5 28.2552 72.5C28.2784 72.5 28.3017 72.5 28.3251 72.5C28.3484 72.5 28.3718 72.5 28.3952 72.5C28.4186 72.5 28.4421 72.5 28.4656 72.5C28.4891 72.5 28.5127 72.5 28.5363 72.5C28.5599 72.5 28.5836 72.5 28.6073 72.5C28.631 72.5 28.6547 72.5 28.6785 72.5C28.7023 72.5 28.7261 72.5 28.75 72.5V67.5C28.7261 67.5 28.7023 67.5 28.6785 67.5C28.6547 67.5 28.631 67.5 28.6073 67.5C28.5836 67.5 28.5599 67.5 28.5363 67.5C28.5127 67.5 28.4891 67.5 28.4656 67.5C28.4421 67.5 28.4186 67.5 28.3952 67.5C28.3718 67.5 28.3484 67.5 28.3251 67.5C28.3017 67.5 28.2784 67.5 28.2552 67.5C28.2319 67.5 28.2087 67.5 28.1856 67.5C28.1624 67.5 28.1393 67.5 28.1162 67.5C28.0931 67.5 28.0701 67.5 28.0471 67.5C28.0241 67.5 28.0012 67.5 27.9783 67.5C27.9554 67.5 27.9326 67.5 27.9098 67.5C27.887 67.5 27.8642 67.5 27.8415 67.5C27.8188 67.5 27.7961 67.5 27.7734 67.5C27.7508 67.5 27.7282 67.5 27.7057 67.5C27.6831 67.5 27.6606 67.5 27.6382 67.5C27.6157 67.5 27.5933 67.5 27.5709 67.5C27.5486 67.5 27.5262 67.5 27.504 67.5C27.4817 67.5 27.4594 67.5 27.4372 67.5C27.415 67.5 27.3929 67.5 27.3708 67.5C27.3486 67.5 27.3266 67.5 27.3046 67.5C27.2825 67.5 27.2605 67.5 27.2386 67.5C27.2167 67.5 27.1948 67.5 27.1729 67.5C27.151 67.5 27.1292 67.5 27.1075 67.5C27.0857 67.5 27.064 67.5 27.0423 67.5C27.0206 67.5 26.9989 67.5 26.9773 67.5C26.9557 67.5 26.9342 67.5 26.9126 67.5C26.8911 67.5 26.8696 67.5 26.8482 67.5C26.8268 67.5 26.8054 67.5 26.784 67.5C26.7627 67.5 26.7414 67.5 26.7201 67.5C26.6988 67.5 26.6776 67.5 26.6564 67.5C26.6352 67.5 26.6141 67.5 26.593 67.5C26.5719 67.5 26.5508 67.5 26.5298 67.5C26.5088 67.5 26.4878 67.5 26.4669 67.5C26.4459 67.5 26.425 67.5 26.4042 67.5C26.3833 67.5 26.3625 67.5 26.3417 67.5C26.3209 67.5 26.3002 67.5 26.2795 67.5C26.2588 67.5 26.2382 67.5 26.2175 67.5C26.1969 67.5 26.1764 67.5 26.1558 67.5C26.1353 67.5 26.1148 67.5 26.0943 67.5C26.0739 67.5 26.0535 67.5 26.0331 67.5C26.0127 67.5 25.9924 67.5 25.9721 67.5C25.9518 67.5 25.9316 67.5 25.9114 67.5C25.8911 67.5 25.871 67.5 25.8508 67.5C25.8307 67.5 25.8106 67.5 25.7906 67.5C25.7705 67.5 25.7505 67.5 25.7305 67.5C25.7105 67.5 25.6906 67.5 25.6707 67.5C25.6508 67.5 25.631 67.5 25.6111 67.5C25.5913 67.5 25.5716 67.5 25.5518 67.5C25.5321 67.5 25.5124 67.5 25.4927 67.5C25.473 67.5 25.4534 67.5 25.4338 67.5C25.4143 67.5 25.3947 67.5 25.3752 67.5C25.3557 67.5 25.3362 67.5 25.3168 67.5C25.2974 67.5 25.278 67.5 25.2586 67.5C25.2393 67.5 25.22 67.5 25.2007 67.5C25.1814 67.5 25.1622 67.5 25.143 67.5C25.1238 67.5 25.1046 67.5 25.0855 67.5C25.0664 67.5 25.0473 67.5 25.0282 67.5C25.0092 67.5 24.9902 67.5 24.9712 67.5C24.9522 67.5 24.9333 67.5 24.9144 67.5C24.8955 67.5 24.8766 67.5 24.8578 67.5C24.839 67.5 24.8202 67.5 24.8014 67.5C24.7827 67.5 24.764 67.5 24.7453 67.5C24.7266 67.5 24.708 67.5 24.6894 67.5C24.6708 67.5 24.6522 67.5 24.6337 67.5C24.6152 67.5 24.5967 67.5 24.5782 67.5C24.5598 67.5 24.5414 67.5 24.523 67.5C24.5046 67.5 24.4863 67.5 24.468 67.5C24.4497 67.5 24.4314 67.5 24.4132 67.5C24.3949 67.5 24.3767 67.5 24.3586 67.5C24.3404 67.5 24.3223 67.5 24.3042 67.5C24.2861 67.5 24.2681 67.5 24.25 67.5C24.232 67.5 24.214 67.5 24.1961 67.5C24.1781 67.5 24.1602 67.5 24.1424 67.5C24.1245 67.5 24.1067 67.5 24.0889 67.5C24.071 67.5 24.0533 67.5 24.0356 67.5C24.0178 67.5 24.0001 67.5 23.9825 67.5C23.9648 67.5 23.9472 67.5 23.9296 67.5C23.912 67.5 23.8944 67.5 23.8769 67.5C23.8594 67.5 23.8419 67.5 23.8245 67.5C23.807 67.5 23.7896 67.5 23.7722 67.5C23.7548 67.5 23.7375 67.5 23.7202 67.5C23.7029 67.5 23.6856 67.5 23.6684 67.5C23.6511 67.5 23.6339 67.5 23.6167 67.5C23.5996 67.5 23.5824 67.5 23.5653 67.5C23.5482 67.5 23.5311 67.5 23.5141 67.5C23.4971 67.5 23.4801 67.5 23.4631 67.5C23.4461 67.5 23.4292 67.5 23.4123 67.5C23.3954 67.5 23.3785 67.5 23.3617 67.5C23.3449 67.5 23.3281 67.5 23.3113 67.5C23.2945 67.5 23.2778 67.5 23.2611 67.5C23.2444 67.5 23.2277 67.5 23.2111 67.5C23.1945 67.5 23.1779 67.5 23.1613 67.5C23.1447 67.5 23.1282 67.5 23.1117 67.5C23.0952 67.5 23.0787 67.5 23.0623 67.5C23.0459 67.5 23.0295 67.5 23.0131 67.5C22.9967 67.5 22.9804 67.5 22.9641 67.5C22.9478 67.5 22.9315 67.5 22.9153 67.5C22.899 67.5 22.8828 67.5 22.8666 67.5C22.8505 67.5 22.8343 67.5 22.8182 67.5C22.8021 67.5 22.786 67.5 22.77 67.5C22.7539 67.5 22.7379 67.5 22.722 67.5C22.706 67.5 22.69 67.5 22.6741 67.5C22.6582 67.5 22.6423 67.5 22.6265 67.5C22.6106 67.5 22.5948 67.5 22.579 67.5C22.5632 67.5 22.5474 67.5 22.5317 67.5C22.516 67.5 22.5003 67.5 22.4846 67.5C22.469 67.5 22.4533 67.5 22.4377 67.5C22.4221 67.5 22.4065 67.5 22.391 67.5C22.3755 67.5 22.36 67.5 22.3445 67.5C22.329 67.5 22.3136 67.5 22.2981 67.5C22.2827 67.5 22.2673 67.5 22.252 67.5C22.2366 67.5 22.2213 67.5 22.206 67.5C22.1907 67.5 22.1754 67.5 22.1602 67.5C22.145 67.5 22.1298 67.5 22.1146 67.5C22.0994 67.5 22.0843 67.5 22.0692 67.5C22.0541 67.5 22.039 67.5 22.0239 67.5C22.0089 67.5 21.9939 67.5 21.9789 67.5C21.9639 67.5 21.9489 67.5 21.934 67.5C21.919 67.5 21.9041 67.5 21.8893 67.5C21.8744 67.5 21.8595 67.5 21.8447 67.5C21.8299 67.5 21.8151 67.5 21.8004 67.5C21.7856 67.5 21.7709 67.5 21.7562 67.5C21.7415 67.5 21.7268 67.5 21.7122 67.5C21.6975 67.5 21.6829 67.5 21.6683 67.5C21.6538 67.5 21.6392 67.5 21.6247 67.5C21.6102 67.5 21.5957 67.5 21.5812 67.5C21.5667 67.5 21.5523 67.5 21.5379 67.5C21.5235 67.5 21.5091 67.5 21.4947 67.5C21.4804 67.5 21.4661 67.5 21.4518 67.5C21.4375 67.5 21.4232 67.5 21.409 67.5C21.3947 67.5 21.3805 67.5 21.3663 67.5C21.3521 67.5 21.338 67.5 21.3239 67.5C21.3097 67.5 21.2956 67.5 21.2815 67.5C21.2675 67.5 21.2534 67.5 21.2394 67.5C21.2254 67.5 21.2114 67.5 21.1974 67.5C21.1835 67.5 21.1695 67.5 21.1556 67.5C21.1417 67.5 21.1278 67.5 21.114 67.5C21.1001 67.5 21.0863 67.5 21.0725 67.5C21.0587 67.5 21.0449 67.5 21.0312 67.5C21.0174 67.5 21.0037 67.5 20.99 67.5C20.9763 67.5 20.9627 67.5 20.949 67.5C20.9354 67.5 20.9218 67.5 20.9082 67.5C20.8946 67.5 20.8811 67.5 20.8675 67.5C20.854 67.5 20.8405 67.5 20.827 67.5C20.8135 67.5 20.8001 67.5 20.7866 67.5C20.7732 67.5 20.7598 67.5 20.7464 67.5C20.7331 67.5 20.7197 67.5 20.7064 67.5C20.6931 67.5 20.6798 67.5 20.6665 67.5C20.6532 67.5 20.64 67.5 20.6267 67.5C20.6135 67.5 20.6003 67.5 20.5872 67.5C20.574 67.5 20.5608 67.5 20.5477 67.5C20.5346 67.5 20.5215 67.5 20.5084 67.5C20.4954 67.5 20.4823 67.5 20.4693 67.5C20.4563 67.5 20.4433 67.5 20.4303 67.5C20.4174 67.5 20.4044 67.5 20.3915 67.5C20.3786 67.5 20.3657 67.5 20.3528 67.5C20.3399 67.5 20.3271 67.5 20.3143 67.5C20.3014 67.5 20.2887 67.5 20.2759 67.5C20.2631 67.5 20.2504 67.5 20.2376 67.5C20.2249 67.5 20.2122 67.5 20.1995 67.5C20.1869 67.5 20.1742 67.5 20.1616 67.5C20.149 67.5 20.1363 67.5 20.1238 67.5C20.1112 67.5 20.0986 67.5 20.0861 67.5C20.0736 67.5 20.0611 67.5 20.0486 67.5C20.0361 67.5 20.0236 67.5 20.0112 67.5C19.9988 67.5 19.9863 67.5 19.9739 67.5C19.9616 67.5 19.9492 67.5 19.9368 67.5C19.9245 67.5 19.9122 67.5 19.8999 67.5C19.8876 67.5 19.8753 67.5 19.863 67.5C19.8508 67.5 19.8386 67.5 19.8264 67.5C19.8142 67.5 19.802 67.5 19.7898 67.5C19.7776 67.5 19.7655 67.5 19.7534 67.5C19.7413 67.5 19.7292 67.5 19.7171 67.5C19.705 67.5 19.693 67.5 19.681 67.5C19.6689 67.5 19.6569 67.5 19.6449 67.5C19.633 67.5 19.621 67.5 19.6091 67.5C19.5971 67.5 19.5852 67.5 19.5733 67.5C19.5614 67.5 19.5495 67.5 19.5377 67.5C19.5258 67.5 19.514 67.5 19.5022 67.5C19.4904 67.5 19.4786 67.5 19.4668 67.5C19.4551 67.5 19.4433 67.5 19.4316 67.5C19.4199 67.5 19.4082 67.5 19.3965 67.5C19.3848 67.5 19.3732 67.5 19.3615 67.5C19.3499 67.5 19.3383 67.5 19.3267 67.5C19.3151 67.5 19.3035 67.5 19.2919 67.5C19.2804 67.5 19.2689 67.5 19.2573 67.5C19.2458 67.5 19.2343 67.5 19.2229 67.5C19.2114 67.5 19.1999 67.5 19.1885 67.5C19.1771 67.5 19.1657 67.5 19.1543 67.5C19.1429 67.5 19.1315 67.5 19.1202 67.5C19.1088 67.5 19.0975 67.5 19.0862 67.5C19.0749 67.5 19.0636 67.5 19.0523 67.5C19.041 67.5 19.0298 67.5 19.0186 67.5C19.0073 67.5 18.9961 67.5 18.9849 67.5C18.9737 67.5 18.9626 67.5 18.9514 67.5C18.9403 67.5 18.9291 67.5 18.918 67.5C18.9069 67.5 18.8958 67.5 18.8847 67.5C18.8736 67.5 18.8626 67.5 18.8516 67.5C18.8405 67.5 18.8295 67.5 18.8185 67.5C18.8075 67.5 18.7965 67.5 18.7856 67.5C18.7746 67.5 18.7636 67.5 18.7527 67.5C18.7418 67.5 18.7309 67.5 18.72 67.5C18.7091 67.5 18.6983 67.5 18.6874 67.5C18.6766 67.5 18.6657 67.5 18.6549 67.5C18.6441 67.5 18.6333 67.5 18.6225 67.5C18.6117 67.5 18.601 67.5 18.5902 67.5C18.5795 67.5 18.5688 67.5 18.5581 67.5C18.5474 67.5 18.5367 67.5 18.526 67.5C18.5153 67.5 18.5047 67.5 18.4941 67.5C18.4834 67.5 18.4728 67.5 18.4622 67.5C18.4516 67.5 18.441 67.5 18.4305 67.5C18.4199 67.5 18.4093 67.5 18.3988 67.5C18.3883 67.5 18.3778 67.5 18.3673 67.5C18.3568 67.5 18.3463 67.5 18.3358 67.5C18.3254 67.5 18.3149 67.5 18.3045 67.5C18.2941 67.5 18.2837 67.5 18.2733 67.5C18.2629 67.5 18.2525 67.5 18.2421 67.5C18.2318 67.5 18.2214 67.5 18.2111 67.5C18.2008 67.5 18.1904 67.5 18.1801 67.5C18.1698 67.5 18.1596 67.5 18.1493 67.5C18.139 67.5 18.1288 67.5 18.1186 67.5C18.1083 67.5 18.0981 67.5 18.0879 67.5C18.0777 67.5 18.0675 67.5 18.0574 67.5C18.0472 67.5 18.037 67.5 18.0269 67.5C18.0168 67.5 18.0066 67.5 17.9965 67.5C17.9864 67.5 17.9763 67.5 17.9663 67.5C17.9562 67.5 17.9461 67.5 17.9361 67.5C17.926 67.5 17.916 67.5 17.906 67.5C17.896 67.5 17.886 67.5 17.876 67.5C17.866 67.5 17.856 67.5 17.8461 67.5C17.8361 67.5 17.8262 67.5 17.8162 67.5C17.8063 67.5 17.7964 67.5 17.7865 67.5C17.7766 67.5 17.7667 67.5 17.7569 67.5C17.747 67.5 17.7371 67.5 17.7273 67.5C17.7175 67.5 17.7076 67.5 17.6978 67.5C17.688 67.5 17.6782 67.5 17.6684 67.5C17.6586 67.5 17.6489 67.5 17.6391 67.5C17.6294 67.5 17.6196 67.5 17.6099 67.5C17.6002 67.5 17.5905 67.5 17.5808 67.5C17.5711 67.5 17.5614 67.5 17.5517 67.5C17.542 67.5 17.5324 67.5 17.5227 67.5C17.5131 67.5 17.5034 67.5 17.4938 67.5C17.4842 67.5 17.4746 67.5 17.465 67.5C17.4554 67.5 17.4458 67.5 17.4362 67.5C17.4267 67.5 17.4171 67.5 17.4076 67.5C17.398 67.5 17.3885 67.5 17.379 67.5C17.3695 67.5 17.36 67.5 17.3505 67.5C17.341 67.5 17.3315 67.5 17.322 67.5C17.3126 67.5 17.3031 67.5 17.2937 67.5C17.2842 67.5 17.2748 67.5 17.2654 67.5C17.256 67.5 17.2466 67.5 17.2372 67.5C17.2278 67.5 17.2184 67.5 17.209 67.5C17.1996 67.5 17.1903 67.5 17.1809 67.5C17.1716 67.5 17.1623 67.5 17.1529 67.5C17.1436 67.5 17.1343 67.5 17.125 67.5C17.1157 67.5 17.1064 67.5 17.0971 67.5C17.0879 67.5 17.0786 67.5 17.0693 67.5C17.0601 67.5 17.0508 67.5 17.0416 67.5C17.0324 67.5 17.0231 67.5 17.0139 67.5C17.0047 67.5 16.9955 67.5 16.9863 67.5C16.9771 67.5 16.968 67.5 16.9588 67.5C16.9496 67.5 16.9405 67.5 16.9313 67.5C16.9222 67.5 16.913 67.5 16.9039 67.5C16.8948 67.5 16.8857 67.5 16.8766 67.5C16.8675 67.5 16.8584 67.5 16.8493 67.5C16.8402 67.5 16.8311 67.5 16.8221 67.5C16.813 67.5 16.8039 67.5 16.7949 67.5C16.7859 67.5 16.7768 67.5 16.7678 67.5C16.7588 67.5 16.7498 67.5 16.7407 67.5C16.7317 67.5 16.7227 67.5 16.7138 67.5C16.7048 67.5 16.6958 67.5 16.6868 67.5C16.6779 67.5 16.6689 67.5 16.6599 67.5C16.651 67.5 16.6421 67.5 16.6331 67.5C16.6242 67.5 16.6153 67.5 16.6064 67.5C16.5974 67.5 16.5885 67.5 16.5796 67.5C16.5707 67.5 16.5619 67.5 16.553 67.5C16.5441 67.5 16.5352 67.5 16.5264 67.5C16.5175 67.5 16.5087 67.5 16.4998 67.5C16.491 67.5 16.4821 67.5 16.4733 67.5C16.4645 67.5 16.4557 67.5 16.4469 67.5C16.438 67.5 16.4292 67.5 16.4204 67.5C16.4116 67.5 16.4029 67.5 16.3941 67.5C16.3853 67.5 16.3765 67.5 16.3678 67.5C16.359 67.5 16.3502 67.5 16.3415 67.5C16.3327 67.5 16.324 67.5 16.3153 67.5C16.3065 67.5 16.2978 67.5 16.2891 67.5C16.2804 67.5 16.2717 67.5 16.263 67.5C16.2543 67.5 16.2456 67.5 16.2369 67.5C16.2282 67.5 16.2195 67.5 16.2108 67.5C16.2021 67.5 16.1935 67.5 16.1848 67.5C16.1762 67.5 16.1675 67.5 16.1588 67.5C16.1502 67.5 16.1416 67.5 16.1329 67.5C16.1243 67.5 16.1157 67.5 16.107 67.5C16.0984 67.5 16.0898 67.5 16.0812 67.5C16.0726 67.5 16.064 67.5 16.0554 67.5C16.0468 67.5 16.0382 67.5 16.0296 67.5C16.021 67.5 16.0124 67.5 16.0039 67.5C15.9953 67.5 15.9867 67.5 15.9782 67.5C15.9696 67.5 15.961 67.5 15.9525 67.5C15.9439 67.5 15.9354 67.5 15.9268 67.5C15.9183 67.5 15.9098 67.5 15.9012 67.5C15.8927 67.5 15.8842 67.5 15.8757 67.5C15.8672 67.5 15.8586 67.5 15.8501 67.5C15.8416 67.5 15.8331 67.5 15.8246 67.5C15.8161 67.5 15.8076 67.5 15.7991 67.5C15.7907 67.5 15.7822 67.5 15.7737 67.5C15.7652 67.5 15.7567 67.5 15.7483 67.5C15.7398 67.5 15.7313 67.5 15.7229 67.5C15.7144 67.5 15.706 67.5 15.6975 67.5C15.689 67.5 15.6806 67.5 15.6722 67.5C15.6637 67.5 15.6553 67.5 15.6468 67.5C15.6384 67.5 15.63 67.5 15.6215 67.5C15.6131 67.5 15.6047 67.5 15.5963 67.5C15.5878 67.5 15.5794 67.5 15.571 67.5C15.5626 67.5 15.5542 67.5 15.5458 67.5C15.5374 67.5 15.529 67.5 15.5206 67.5C15.5122 67.5 15.5038 67.5 15.4954 67.5C15.487 67.5 15.4786 67.5 15.4702 67.5C15.4618 67.5 15.4535 67.5 15.4451 67.5C15.4367 67.5 15.4283 67.5 15.4199 67.5C15.4116 67.5 15.4032 67.5 15.3948 67.5C15.3865 67.5 15.3781 67.5 15.3697 67.5C15.3614 67.5 15.353 67.5 15.3446 67.5C15.3363 67.5 15.3279 67.5 15.3196 67.5C15.3112 67.5 15.3029 67.5 15.2945 67.5C15.2862 67.5 15.2778 67.5 15.2695 67.5C15.2611 67.5 15.2528 67.5 15.2444 67.5C15.2361 67.5 15.2278 67.5 15.2194 67.5C15.2111 67.5 15.2027 67.5 15.1944 67.5C15.1861 67.5 15.1777 67.5 15.1694 67.5C15.1611 67.5 15.1527 67.5 15.1444 67.5C15.1361 67.5 15.1278 67.5 15.1194 67.5C15.1111 67.5 15.1028 67.5 15.0944 67.5C15.0861 67.5 15.0778 67.5 15.0695 67.5C15.0612 67.5 15.0528 67.5 15.0445 67.5C15.0362 67.5 15.0279 67.5 15.0196 67.5C15.0112 67.5 15.0029 67.5 14.9946 67.5C14.9863 67.5 14.978 67.5 14.9696 67.5C14.9613 67.5 14.953 67.5 14.9447 67.5C14.9364 67.5 14.9281 67.5 14.9197 67.5C14.9114 67.5 14.9031 67.5 14.8948 67.5C14.8865 67.5 14.8782 67.5 14.8698 67.5C14.8615 67.5 14.8532 67.5 14.8449 67.5C14.8366 67.5 14.8283 67.5 14.8199 67.5C14.8116 67.5 14.8033 67.5 14.795 67.5C14.7867 67.5 14.7784 67.5 14.77 67.5C14.7617 67.5 14.7534 67.5 14.7451 67.5C14.7368 67.5 14.7284 67.5 14.7201 67.5C14.7118 67.5 14.7035 67.5 14.6951 67.5C14.6868 67.5 14.6785 67.5 14.6702 67.5C14.6618 67.5 14.6535 67.5 14.6452 67.5C14.6368 67.5 14.6285 67.5 14.6202 67.5C14.6119 67.5 14.6035 67.5 14.5952 67.5C14.5868 67.5 14.5785 67.5 14.5702 67.5C14.5618 67.5 14.5535 67.5 14.5452 67.5C14.5368 67.5 14.5285 67.5 14.5201 67.5C14.5118 67.5 14.5034 67.5 14.4951 67.5C14.4867 67.5 14.4784 67.5 14.47 67.5C14.4617 67.5 14.4533 67.5 14.445 67.5C14.4366 67.5 14.4282 67.5 14.4199 67.5C14.4115 67.5 14.4031 67.5 14.3948 67.5C14.3864 67.5 14.378 67.5 14.3696 67.5C14.3613 67.5 14.3529 67.5 14.3445 67.5C14.3361 67.5 14.3278 67.5 14.3194 67.5C14.311 67.5 14.3026 67.5 14.2942 67.5C14.2858 67.5 14.2774 67.5 14.269 67.5C14.2606 67.5 14.2522 67.5 14.2438 67.5C14.2354 67.5 14.227 67.5 14.2186 67.5C14.2102 67.5 14.2017 67.5 14.1933 67.5C14.1849 67.5 14.1765 67.5 14.1681 67.5C14.1596 67.5 14.1512 67.5 14.1428 67.5C14.1343 67.5 14.1259 67.5 14.1174 67.5C14.109 67.5 14.1005 67.5 14.0921 67.5C14.0836 67.5 14.0752 67.5 14.0667 67.5C14.0583 67.5 14.0498 67.5 14.0413 67.5C14.0329 67.5 14.0244 67.5 14.0159 67.5C14.0074 67.5 13.9989 67.5 13.9905 67.5C13.982 67.5 13.9735 67.5 13.965 67.5C13.9565 67.5 13.948 67.5 13.9395 67.5C13.931 67.5 13.9224 67.5 13.9139 67.5C13.9054 67.5 13.8969 67.5 13.8884 67.5C13.8798 67.5 13.8713 67.5 13.8628 67.5C13.8542 67.5 13.8457 67.5 13.8371 67.5C13.8286 67.5 13.82 67.5 13.8114 67.5C13.8029 67.5 13.7943 67.5 13.7857 67.5C13.7772 67.5 13.7686 67.5 13.76 67.5C13.7514 67.5 13.7428 67.5 13.7342 67.5C13.7256 67.5 13.717 67.5 13.7084 67.5C13.6998 67.5 13.6912 67.5 13.6826 67.5C13.6739 67.5 13.6653 67.5 13.6567 67.5C13.6481 67.5 13.6394 67.5 13.6308 67.5C13.6221 67.5 13.6135 67.5 13.6048 67.5C13.5961 67.5 13.5875 67.5 13.5788 67.5C13.5701 67.5 13.5614 67.5 13.5527 67.5C13.544 67.5 13.5354 67.5 13.5266 67.5C13.5179 67.5 13.5092 67.5 13.5005 67.5C13.4918 67.5 13.4831 67.5 13.4743 67.5C13.4656 67.5 13.4569 67.5 13.4481 67.5C13.4394 67.5 13.4306 67.5 13.4218 67.5C13.4131 67.5 13.4043 67.5 13.3955 67.5C13.3868 67.5 13.378 67.5 13.3692 67.5C13.3604 67.5 13.3516 67.5 13.3428 67.5C13.334 67.5 13.3251 67.5 13.3163 67.5C13.3075 67.5 13.2986 67.5 13.2898 67.5C13.281 67.5 13.2721 67.5 13.2632 67.5C13.2544 67.5 13.2455 67.5 13.2366 67.5C13.2278 67.5 13.2189 67.5 13.21 67.5C13.2011 67.5 13.1922 67.5 13.1833 67.5C13.1743 67.5 13.1654 67.5 13.1565 67.5C13.1476 67.5 13.1386 67.5 13.1297 67.5C13.1207 67.5 13.1118 67.5 13.1028 67.5C13.0938 67.5 13.0849 67.5 13.0759 67.5C13.0669 67.5 13.0579 67.5 13.0489 67.5C13.0399 67.5 13.0309 67.5 13.0218 67.5C13.0128 67.5 13.0038 67.5 12.9947 67.5C12.9857 67.5 12.9766 67.5 12.9676 67.5C12.9585 67.5 12.9494 67.5 12.9403 67.5C12.9313 67.5 12.9222 67.5 12.9131 67.5C12.904 67.5 12.8948 67.5 12.8857 67.5C12.8766 67.5 12.8675 67.5 12.8583 67.5C12.8492 67.5 12.84 67.5 12.8308 67.5C12.8217 67.5 12.8125 67.5 12.8033 67.5C12.7941 67.5 12.7849 67.5 12.7757 67.5C12.7665 67.5 12.7573 67.5 12.748 67.5C12.7388 67.5 12.7296 67.5 12.7203 67.5C12.7111 67.5 12.7018 67.5 12.6925 67.5C12.6832 67.5 12.6739 67.5 12.6646 67.5C12.6553 67.5 12.646 67.5 12.6367 67.5C12.6274 67.5 12.6181 67.5 12.6087 67.5C12.5994 67.5 12.59 67.5 12.5806 67.5C12.5713 67.5 12.5619 67.5 12.5525 67.5C12.5431 67.5 12.5337 67.5 12.5243 67.5C12.5149 67.5 12.5054 67.5 12.496 67.5C12.4865 67.5 12.4771 67.5 12.4676 67.5C12.4581 67.5 12.4487 67.5 12.4392 67.5C12.4297 67.5 12.4202 67.5 12.4107 67.5C12.4012 67.5 12.3916 67.5 12.3821 67.5C12.3725 67.5 12.363 67.5 12.3534 67.5C12.3438 67.5 12.3343 67.5 12.3247 67.5C12.3151 67.5 12.3055 67.5 12.2959 67.5C12.2862 67.5 12.2766 67.5 12.267 67.5C12.2573 67.5 12.2476 67.5 12.238 67.5C12.2283 67.5 12.2186 67.5 12.2089 67.5C12.1992 67.5 12.1895 67.5 12.1798 67.5C12.17 67.5 12.1603 67.5 12.1505 67.5C12.1408 67.5 12.131 67.5 12.1212 67.5C12.1115 67.5 12.1017 67.5 12.0919 67.5C12.082 67.5 12.0722 67.5 12.0624 67.5C12.0525 67.5 12.0427 67.5 12.0328 67.5C12.0229 67.5 12.0131 67.5 12.0032 67.5C11.9933 67.5 11.9834 67.5 11.9734 67.5C11.9635 67.5 11.9536 67.5 11.9436 67.5C11.9337 67.5 11.9237 67.5 11.9137 67.5C11.9037 67.5 11.8937 67.5 11.8837 67.5C11.8737 67.5 11.8637 67.5 11.8536 67.5C11.8436 67.5 11.8335 67.5 11.8234 67.5C11.8134 67.5 11.8033 67.5 11.7932 67.5C11.7831 67.5 11.7729 67.5 11.7628 67.5C11.7527 67.5 11.7425 67.5 11.7323 67.5C11.7222 67.5 11.712 67.5 11.7018 67.5C11.6916 67.5 11.6814 67.5 11.6711 67.5C11.6609 67.5 11.6507 67.5 11.6404 67.5C11.6301 67.5 11.6199 67.5 11.6096 67.5C11.5993 67.5 11.5889 67.5 11.5786 67.5C11.5683 67.5 11.5579 67.5 11.5476 67.5C11.5372 67.5 11.5268 67.5 11.5164 67.5C11.5061 67.5 11.4956 67.5 11.4852 67.5C11.4748 67.5 11.4643 67.5 11.4539 67.5C11.4434 67.5 11.4329 67.5 11.4224 67.5C11.4119 67.5 11.4014 67.5 11.3909 67.5C11.3804 67.5 11.3698 67.5 11.3593 67.5C11.3487 67.5 11.3381 67.5 11.3275 67.5C11.3169 67.5 11.3063 67.5 11.2957 67.5C11.285 67.5 11.2744 67.5 11.2637 67.5C11.253 67.5 11.2424 67.5 11.2317 67.5C11.2209 67.5 11.2102 67.5 11.1995 67.5C11.1887 67.5 11.178 67.5 11.1672 67.5C11.1564 67.5 11.1456 67.5 11.1348 67.5C11.124 67.5 11.1132 67.5 11.1023 67.5C11.0915 67.5 11.0806 67.5 11.0697 67.5C11.0588 67.5 11.0479 67.5 11.037 67.5C11.0261 67.5 11.0151 67.5 11.0042 67.5C10.9932 67.5 10.9822 67.5 10.9712 67.5C10.9602 67.5 10.9492 67.5 10.9382 67.5C10.9272 67.5 10.9161 67.5 10.905 67.5C10.8939 67.5 10.8829 67.5 10.8717 67.5C10.8606 67.5 10.8495 67.5 10.8383 67.5C10.8272 67.5 10.816 67.5 10.8048 67.5C10.7936 67.5 10.7824 67.5 10.7712 67.5C10.76 67.5 10.7487 67.5 10.7374 67.5C10.7262 67.5 10.7149 67.5 10.7036 67.5C10.6923 67.5 10.6809 67.5 10.6696 67.5C10.6582 67.5 10.6469 67.5 10.6355 67.5C10.6241 67.5 10.6127 67.5 10.6013 67.5C10.5898 67.5 10.5784 67.5 10.5669 67.5C10.5554 67.5 10.5439 67.5 10.5324 67.5C10.5209 67.5 10.5094 67.5 10.4978 67.5C10.4863 67.5 10.4747 67.5 10.4631 67.5C10.4515 67.5 10.4399 67.5 10.4283 67.5C10.4166 67.5 10.405 67.5 10.3933 67.5C10.3816 67.5 10.3699 67.5 10.3582 67.5C10.3465 67.5 10.3347 67.5 10.3229 67.5C10.3112 67.5 10.2994 67.5 10.2876 67.5C10.2758 67.5 10.264 67.5 10.2521 67.5C10.2403 67.5 10.2284 67.5 10.2165 67.5C10.2046 67.5 10.1927 67.5 10.1807 67.5C10.1688 67.5 10.1568 67.5 10.1449 67.5C10.1329 67.5 10.1209 67.5 10.1088 67.5C10.0968 67.5 10.0848 67.5 10.0727 67.5C10.0606 67.5 10.0485 67.5 10.0364 67.5C10.0243 67.5 10.0122 67.5 10 67.5V72.5ZM28.75 72.5C33.1542 72.5 37.3761 70.567 41.0987 67.9098C44.8443 65.2362 48.2949 61.6804 51.2128 58.0719C54.1377 54.4549 56.5884 50.7088 58.3187 47.5869C59.183 46.0275 59.885 44.5924 60.379 43.3826C60.8233 42.2945 61.25 41.0416 61.25 40H56.25C56.25 39.9584 56.1991 40.393 55.7501 41.4924C55.3508 42.4701 54.7439 43.7225 53.9455 45.1631C52.3503 48.0412 50.0604 51.5451 47.3249 54.9281C44.5824 58.3196 41.4529 61.5138 38.1938 63.8402C34.9116 66.183 31.7043 67.5 28.75 67.5V72.5ZM61.25 40C61.25 38.9949 60.8659 37.7683 60.4463 36.6702C59.9846 35.4616 59.325 34.026 58.505 32.4633C56.8639 29.336 54.5172 25.5805 51.6566 21.9522C48.8025 18.3321 45.3773 14.7628 41.5618 12.08C37.7548 9.40306 33.4013 7.5 28.75 7.5V12.5C32.0233 12.5 35.382 13.8469 38.6858 16.17C41.9812 18.4872 45.0654 21.6679 47.7302 25.0478C50.3884 28.4195 52.5701 31.914 54.0776 34.7867C54.8318 36.224 55.4016 37.4759 55.7757 38.4548C56.1919 39.5442 56.25 40.0051 56.25 40H61.25ZM28.75 7.5C19.2358 7.5 17.3633 7.5 10 7.5L10 12.5C17.3633 12.5 19.2358 12.5 28.75 12.5V7.5ZM7.85069 11.2769C13.4276 20.6641 18.5 26.8311 18.5 40H23.5C23.5 25.1689 17.4899 17.7127 12.1493 8.72311L7.85069 11.2769ZM18.5 40C18.5 46.4343 15.9449 53.5255 13.2447 59.1714C11.9109 61.9601 10.5756 64.3274 9.57502 65.995C9.07533 66.8278 8.66074 67.4835 8.37373 67.927C8.23027 68.1487 8.11882 68.3173 8.04471 68.4282C8.00765 68.4837 7.97995 68.5247 7.96225 68.5508C7.9534 68.5639 7.94706 68.5732 7.94331 68.5787C7.94143 68.5814 7.9402 68.5832 7.93963 68.5841C7.93934 68.5845 7.93922 68.5847 7.93927 68.5846C7.93929 68.5846 7.93944 68.5843 7.93946 68.5843C7.93965 68.584 7.9399 68.5837 10 70C12.0601 71.4163 12.0604 71.4159 12.0608 71.4153C12.061 71.4151 12.0614 71.4145 12.0617 71.4139C12.0625 71.4129 12.0633 71.4116 12.0644 71.4101C12.0665 71.407 12.0692 71.403 12.0726 71.398C12.0795 71.388 12.0889 71.3742 12.1009 71.3565C12.1248 71.3212 12.1589 71.2707 12.2024 71.2056C12.2894 71.0753 12.4143 70.8864 12.5716 70.6433C12.8861 70.1572 13.3309 69.4534 13.8625 68.5675C14.9244 66.7976 16.3391 64.2899 17.7553 61.3286C20.5551 55.4745 23.5 47.5657 23.5 40H18.5Z" fill="#333333"/>
</g>
<defs>
<filter id="filter0_d" x="0" y="0" width="80" height="84" filterUnits="userSpaceOnUse" color-interpolation-filters="sRGB">
<feFlood flood-opacity="0" result="BackgroundImageFix"/>
<feColorMatrix in="SourceAlpha" type="matrix" values="0 0 0 0 0 0 0 0 0 0 0 0 0 0 0 0 0 0 127 0" result="hardAlpha"/>
<feOffset dy="4"/>
<feColorMatrix type="matrix" values="0 0 0 0 0 0 0 0 0 0 0 0 0 0 0 0 0 0 0.25 0"/>
<feBlend mode="normal" in2="BackgroundImageFix" result="effect1_dropShadow"/>
<feBlend mode="normal" in="SourceGraphic" in2="effect1_dropShadow" result="shape"/>
</filter>
</defs>
</svg>
