<svg width="80" height="84" viewBox="0 0 80 84" fill="none" xmlns="http://www.w3.org/2000/svg">
<g filter="url(#filter0_d)">
<rect id="BG" width="80" height="80" rx="10" fill="#F2F2F2"/>
<path d="M10 10C15.5987 19.1884 22.8205 26 22.8205 40C22.8205 54 10 70 10 70" stroke="#333333" stroke-width="5" stroke-linecap="round" stroke-linejoin="round"/>
<path d="M22.3077 10L22.3077 7.5C21.4039 7.5 20.5706 7.98774 20.128 8.77569C19.6854 9.56363 19.7025 10.5291 20.1728 11.3008L22.3077 10ZM22.3077 70L20.2645 68.5593C19.7264 69.3224 19.6585 70.3218 20.0883 71.1507C20.518 71.9797 21.3739 72.5 22.3077 72.5V70ZM22.3077 72.5C22.3202 72.5 22.3326 72.5 22.345 72.5C22.3574 72.5 22.3698 72.5 22.3821 72.5C22.3945 72.5 22.4068 72.5 22.4191 72.5C22.4314 72.5 22.4436 72.5 22.4558 72.5C22.468 72.5 22.4802 72.5 22.4924 72.5C22.5045 72.5 22.5167 72.5 22.5288 72.5C22.5409 72.5 22.5529 72.5 22.565 72.5C22.577 72.5 22.589 72.5 22.601 72.5C22.6129 72.5 22.6249 72.5 22.6368 72.5C22.6487 72.5 22.6606 72.5 22.6724 72.5C22.6843 72.5 22.6961 72.5 22.7079 72.5C22.7197 72.5 22.7314 72.5 22.7432 72.5C22.7549 72.5 22.7666 72.5 22.7783 72.5C22.7899 72.5 22.8016 72.5 22.8132 72.5C22.8248 72.5 22.8364 72.5 22.8479 72.5C22.8595 72.5 22.871 72.5 22.8825 72.5C22.894 72.5 22.9055 72.5 22.9169 72.5C22.9283 72.5 22.9397 72.5 22.9511 72.5C22.9625 72.5 22.9738 72.5 22.9851 72.5C22.9965 72.5 23.0077 72.5 23.019 72.5C23.0303 72.5 23.0415 72.5 23.0527 72.5C23.0639 72.5 23.0751 72.5 23.0862 72.5C23.0974 72.5 23.1085 72.5 23.1196 72.5C23.1307 72.5 23.1417 72.5 23.1528 72.5C23.1638 72.5 23.1748 72.5 23.1858 72.5C23.1968 72.5 23.2077 72.5 23.2187 72.5C23.2296 72.5 23.2405 72.5 23.2513 72.5C23.2622 72.5 23.2731 72.5 23.2839 72.5C23.2947 72.5 23.3055 72.5 23.3162 72.5C23.327 72.5 23.3377 72.5 23.3484 72.5C23.3591 72.5 23.3698 72.5 23.3805 72.5C23.3911 72.5 23.4018 72.5 23.4124 72.5C23.423 72.5 23.4335 72.5 23.4441 72.5C23.4546 72.5 23.4651 72.5 23.4756 72.5C23.4861 72.5 23.4966 72.5 23.507 72.5C23.5175 72.5 23.5279 72.5 23.5383 72.5C23.5487 72.5 23.559 72.5 23.5694 72.5C23.5797 72.5 23.59 72.5 23.6003 72.5C23.6106 72.5 23.6209 72.5 23.6311 72.5C23.6413 72.5 23.6516 72.5 23.6617 72.5C23.6719 72.5 23.6821 72.5 23.6922 72.5C23.7024 72.5 23.7125 72.5 23.7226 72.5C23.7326 72.5 23.7427 72.5 23.7527 72.5C23.7628 72.5 23.7728 72.5 23.7828 72.5C23.7928 72.5 23.8027 72.5 23.8127 72.5C23.8226 72.5 23.8325 72.5 23.8424 72.5C23.8523 72.5 23.8622 72.5 23.872 72.5C23.8818 72.5 23.8917 72.5 23.9015 72.5C23.9113 72.5 23.921 72.5 23.9308 72.5C23.9405 72.5 23.9502 72.5 23.9599 72.5C23.9696 72.5 23.9793 72.5 23.989 72.5C23.9986 72.5 24.0083 72.5 24.0179 72.5C24.0275 72.5 24.0371 72.5 24.0466 72.5C24.0562 72.5 24.0657 72.5 24.0752 72.5C24.0847 72.5 24.0942 72.5 24.1037 72.5C24.1132 72.5 24.1226 72.5 24.132 72.5C24.1415 72.5 24.1509 72.5 24.1602 72.5C24.1696 72.5 24.179 72.5 24.1883 72.5C24.1977 72.5 24.207 72.5 24.2163 72.5C24.2256 72.5 24.2348 72.5 24.2441 72.5C24.2533 72.5 24.2625 72.5 24.2717 72.5C24.281 72.5 24.2901 72.5 24.2993 72.5C24.3085 72.5 24.3176 72.5 24.3267 72.5C24.3358 72.5 24.3449 72.5 24.354 72.5C24.3631 72.5 24.3721 72.5 24.3812 72.5C24.3902 72.5 24.3992 72.5 24.4082 72.5C24.4172 72.5 24.4262 72.5 24.4351 72.5C24.4441 72.5 24.453 72.5 24.4619 72.5C24.4708 72.5 24.4797 72.5 24.4886 72.5C24.4975 72.5 24.5063 72.5 24.5151 72.5C24.524 72.5 24.5328 72.5 24.5416 72.5C24.5504 72.5 24.5591 72.5 24.5679 72.5C24.5766 72.5 24.5854 72.5 24.5941 72.5C24.6028 72.5 24.6115 72.5 24.6202 72.5C24.6288 72.5 24.6375 72.5 24.6461 72.5C24.6547 72.5 24.6634 72.5 24.672 72.5C24.6806 72.5 24.6891 72.5 24.6977 72.5C24.7062 72.5 24.7148 72.5 24.7233 72.5C24.7318 72.5 24.7403 72.5 24.7488 72.5C24.7573 72.5 24.7658 72.5 24.7742 72.5C24.7826 72.5 24.7911 72.5 24.7995 72.5C24.8079 72.5 24.8163 72.5 24.8247 72.5C24.833 72.5 24.8414 72.5 24.8497 72.5C24.8581 72.5 24.8664 72.5 24.8747 72.5C24.883 72.5 24.8913 72.5 24.8995 72.5C24.9078 72.5 24.9161 72.5 24.9243 72.5C24.9325 72.5 24.9407 72.5 24.9489 72.5C24.9571 72.5 24.9653 72.5 24.9735 72.5C24.9816 72.5 24.9898 72.5 24.9979 72.5C25.006 72.5 25.0142 72.5 25.0223 72.5C25.0303 72.5 25.0384 72.5 25.0465 72.5C25.0546 72.5 25.0626 72.5 25.0706 72.5C25.0787 72.5 25.0867 72.5 25.0947 72.5C25.1027 72.5 25.1107 72.5 25.1186 72.5C25.1266 72.5 25.1345 72.5 25.1425 72.5C25.1504 72.5 25.1583 72.5 25.1662 72.5C25.1741 72.5 25.182 72.5 25.1899 72.5C25.1978 72.5 25.2056 72.5 25.2135 72.5C25.2213 72.5 25.2291 72.5 25.2369 72.5C25.2448 72.5 25.2525 72.5 25.2603 72.5C25.2681 72.5 25.2759 72.5 25.2836 72.5C25.2914 72.5 25.2991 72.5 25.3068 72.5C25.3146 72.5 25.3223 72.5 25.33 72.5C25.3377 72.5 25.3453 72.5 25.353 72.5C25.3607 72.5 25.3683 72.5 25.3759 72.5C25.3836 72.5 25.3912 72.5 25.3988 72.5C25.4064 72.5 25.414 72.5 25.4216 72.5C25.4292 72.5 25.4367 72.5 25.4443 72.5C25.4518 72.5 25.4594 72.5 25.4669 72.5C25.4744 72.5 25.482 72.5 25.4895 72.5C25.497 72.5 25.5044 72.5 25.5119 72.5C25.5194 72.5 25.5268 72.5 25.5343 72.5C25.5417 72.5 25.5492 72.5 25.5566 72.5C25.564 72.5 25.5714 72.5 25.5788 72.5C25.5862 72.5 25.5936 72.5 25.601 72.5C25.6084 72.5 25.6157 72.5 25.6231 72.5C25.6304 72.5 25.6377 72.5 25.6451 72.5C25.6524 72.5 25.6597 72.5 25.667 72.5C25.6743 72.5 25.6816 72.5 25.6889 72.5C25.6961 72.5 25.7034 72.5 25.7107 72.5C25.7179 72.5 25.7252 72.5 25.7324 72.5C25.7396 72.5 25.7468 72.5 25.754 72.5C25.7612 72.5 25.7684 72.5 25.7756 72.5C25.7828 72.5 25.79 72.5 25.7972 72.5C25.8043 72.5 25.8115 72.5 25.8186 72.5C25.8258 72.5 25.8329 72.5 25.84 72.5C25.8471 72.5 25.8542 72.5 25.8613 72.5C25.8684 72.5 25.8755 72.5 25.8826 72.5C25.8897 72.5 25.8968 72.5 25.9038 72.5C25.9109 72.5 25.9179 72.5 25.925 72.5C25.932 72.5 25.939 72.5 25.9461 72.5C25.9531 72.5 25.9601 72.5 25.9671 72.5C25.9741 72.5 25.9811 72.5 25.9881 72.5C25.995 72.5 26.002 72.5 26.009 72.5C26.0159 72.5 26.0229 72.5 26.0298 72.5C26.0368 72.5 26.0437 72.5 26.0507 72.5C26.0576 72.5 26.0645 72.5 26.0714 72.5C26.0783 72.5 26.0852 72.5 26.0921 72.5C26.099 72.5 26.1059 72.5 26.1128 72.5C26.1197 72.5 26.1265 72.5 26.1334 72.5C26.1403 72.5 26.1471 72.5 26.154 72.5C26.1608 72.5 26.1676 72.5 26.1745 72.5C26.1813 72.5 26.1881 72.5 26.1949 72.5C26.2017 72.5 26.2086 72.5 26.2154 72.5C26.2221 72.5 26.2289 72.5 26.2357 72.5C26.2425 72.5 26.2493 72.5 26.2561 72.5C26.2628 72.5 26.2696 72.5 26.2763 72.5C26.2831 72.5 26.2899 72.5 26.2966 72.5C26.3033 72.5 26.3101 72.5 26.3168 72.5C26.3235 72.5 26.3303 72.5 26.337 72.5C26.3437 72.5 26.3504 72.5 26.3571 72.5C26.3638 72.5 26.3705 72.5 26.3772 72.5C26.3839 72.5 26.3906 72.5 26.3973 72.5C26.4039 72.5 26.4106 72.5 26.4173 72.5C26.4239 72.5 26.4306 72.5 26.4373 72.5C26.4439 72.5 26.4506 72.5 26.4572 72.5C26.4639 72.5 26.4705 72.5 26.4771 72.5C26.4838 72.5 26.4904 72.5 26.497 72.5C26.5037 72.5 26.5103 72.5 26.5169 72.5C26.5235 72.5 26.5301 72.5 26.5367 72.5C26.5433 72.5 26.5499 72.5 26.5565 72.5C26.5631 72.5 26.5697 72.5 26.5763 72.5C26.5829 72.5 26.5895 72.5 26.5961 72.5C26.6026 72.5 26.6092 72.5 26.6158 72.5C26.6224 72.5 26.6289 72.5 26.6355 72.5C26.6421 72.5 26.6486 72.5 26.6552 72.5C26.6617 72.5 26.6683 72.5 26.6748 72.5C26.6814 72.5 26.6879 72.5 26.6945 72.5C26.701 72.5 26.7076 72.5 26.7141 72.5C26.7206 72.5 26.7272 72.5 26.7337 72.5C26.7402 72.5 26.7467 72.5 26.7533 72.5C26.7598 72.5 26.7663 72.5 26.7728 72.5C26.7794 72.5 26.7859 72.5 26.7924 72.5C26.7989 72.5 26.8054 72.5 26.8119 72.5C26.8184 72.5 26.8249 72.5 26.8314 72.5C26.8379 72.5 26.8444 72.5 26.8509 72.5C26.8574 72.5 26.8639 72.5 26.8704 72.5C26.8769 72.5 26.8834 72.5 26.8899 72.5C26.8964 72.5 26.9029 72.5 26.9094 72.5C26.9159 72.5 26.9224 72.5 26.9289 72.5C26.9354 72.5 26.9418 72.5 26.9483 72.5C26.9548 72.5 26.9613 72.5 26.9678 72.5C26.9743 72.5 26.9808 72.5 26.9872 72.5C26.9937 72.5 27.0002 72.5 27.0067 72.5C27.0132 72.5 27.0196 72.5 27.0261 72.5C27.0326 72.5 27.0391 72.5 27.0456 72.5C27.052 72.5 27.0585 72.5 27.065 72.5C27.0715 72.5 27.078 72.5 27.0844 72.5C27.0909 72.5 27.0974 72.5 27.1039 72.5C27.1104 72.5 27.1168 72.5 27.1233 72.5C27.1298 72.5 27.1363 72.5 27.1428 72.5C27.1492 72.5 27.1557 72.5 27.1622 72.5C27.1687 72.5 27.1752 72.5 27.1816 72.5C27.1881 72.5 27.1946 72.5 27.2011 72.5C27.2076 72.5 27.2141 72.5 27.2206 72.5C27.2271 72.5 27.2335 72.5 27.24 72.5C27.2465 72.5 27.253 72.5 27.2595 72.5C27.266 72.5 27.2725 72.5 27.279 72.5C27.2855 72.5 27.292 72.5 27.2985 72.5C27.305 72.5 27.3115 72.5 27.318 72.5C27.3245 72.5 27.331 72.5 27.3376 72.5C27.3441 72.5 27.3506 72.5 27.3571 72.5C27.3636 72.5 27.3701 72.5 27.3766 72.5C27.3832 72.5 27.3897 72.5 27.3962 72.5C27.4027 72.5 27.4093 72.5 27.4158 72.5C27.4223 72.5 27.4289 72.5 27.4354 72.5C27.442 72.5 27.4485 72.5 27.455 72.5C27.4616 72.5 27.4681 72.5 27.4747 72.5C27.4812 72.5 27.4878 72.5 27.4943 72.5C27.5009 72.5 27.5075 72.5 27.514 72.5C27.5206 72.5 27.5272 72.5 27.5338 72.5C27.5403 72.5 27.5469 72.5 27.5535 72.5C27.5601 72.5 27.5667 72.5 27.5733 72.5C27.5798 72.5 27.5864 72.5 27.593 72.5C27.5996 72.5 27.6062 72.5 27.6129 72.5C27.6195 72.5 27.6261 72.5 27.6327 72.5C27.6393 72.5 27.6459 72.5 27.6526 72.5C27.6592 72.5 27.6658 72.5 27.6725 72.5C27.6791 72.5 27.6858 72.5 27.6924 72.5C27.6991 72.5 27.7057 72.5 27.7124 72.5C27.719 72.5 27.7257 72.5 27.7324 72.5C27.7391 72.5 27.7457 72.5 27.7524 72.5C27.7591 72.5 27.7658 72.5 27.7725 72.5C27.7792 72.5 27.7859 72.5 27.7926 72.5C27.7993 72.5 27.806 72.5 27.8127 72.5C27.8195 72.5 27.8262 72.5 27.8329 72.5C27.8397 72.5 27.8464 72.5 27.8532 72.5C27.8599 72.5 27.8667 72.5 27.8734 72.5C27.8802 72.5 27.8869 72.5 27.8937 72.5C27.9005 72.5 27.9073 72.5 27.9141 72.5C27.9209 72.5 27.9277 72.5 27.9345 72.5C27.9413 72.5 27.9481 72.5 27.9549 72.5C27.9617 72.5 27.9686 72.5 27.9754 72.5C27.9822 72.5 27.9891 72.5 27.9959 72.5C28.0028 72.5 28.0096 72.5 28.0165 72.5C28.0234 72.5 28.0302 72.5 28.0371 72.5C28.044 72.5 28.0509 72.5 28.0578 72.5C28.0647 72.5 28.0716 72.5 28.0785 72.5C28.0855 72.5 28.0924 72.5 28.0993 72.5C28.1062 72.5 28.1132 72.5 28.1201 72.5C28.1271 72.5 28.1341 72.5 28.141 72.5C28.148 72.5 28.155 72.5 28.162 72.5C28.169 72.5 28.176 72.5 28.183 72.5C28.19 72.5 28.197 72.5 28.204 72.5C28.2111 72.5 28.2181 72.5 28.2251 72.5C28.2322 72.5 28.2392 72.5 28.2463 72.5C28.2534 72.5 28.2605 72.5 28.2675 72.5C28.2746 72.5 28.2817 72.5 28.2888 72.5C28.296 72.5 28.3031 72.5 28.3102 72.5C28.3173 72.5 28.3245 72.5 28.3316 72.5C28.3388 72.5 28.3459 72.5 28.3531 72.5C28.3603 72.5 28.3675 72.5 28.3747 72.5C28.3818 72.5 28.3891 72.5 28.3963 72.5C28.4035 72.5 28.4107 72.5 28.418 72.5C28.4252 72.5 28.4324 72.5 28.4397 72.5C28.447 72.5 28.4542 72.5 28.4615 72.5C28.4688 72.5 28.4761 72.5 28.4834 72.5C28.4907 72.5 28.498 72.5 28.5054 72.5C28.5127 72.5 28.5201 72.5 28.5274 72.5C28.5348 72.5 28.5421 72.5 28.5495 72.5C28.5569 72.5 28.5643 72.5 28.5717 72.5C28.5791 72.5 28.5865 72.5 28.594 72.5C28.6014 72.5 28.6088 72.5 28.6163 72.5C28.6238 72.5 28.6312 72.5 28.6387 72.5C28.6462 72.5 28.6537 72.5 28.6612 72.5C28.6687 72.5 28.6762 72.5 28.6838 72.5C28.6913 72.5 28.6989 72.5 28.7064 72.5C28.714 72.5 28.7216 72.5 28.7292 72.5C28.7367 72.5 28.7444 72.5 28.752 72.5C28.7596 72.5 28.7672 72.5 28.7749 72.5C28.7825 72.5 28.7902 72.5 28.7979 72.5C28.8055 72.5 28.8132 72.5 28.8209 72.5C28.8286 72.5 28.8364 72.5 28.8441 72.5C28.8518 72.5 28.8596 72.5 28.8673 72.5C28.8751 72.5 28.8829 72.5 28.8907 72.5C28.8985 72.5 28.9063 72.5 28.9141 72.5C28.9219 72.5 28.9298 72.5 28.9376 72.5C28.9455 72.5 28.9533 72.5 28.9612 72.5C28.9691 72.5 28.977 72.5 28.9849 72.5C28.9928 72.5 29.0008 72.5 29.0087 72.5C29.0167 72.5 29.0246 72.5 29.0326 72.5C29.0406 72.5 29.0486 72.5 29.0566 72.5C29.0646 72.5 29.0726 72.5 29.0807 72.5C29.0887 72.5 29.0968 72.5 29.1048 72.5C29.1129 72.5 29.121 72.5 29.1291 72.5C29.1372 72.5 29.1454 72.5 29.1535 72.5C29.1616 72.5 29.1698 72.5 29.178 72.5C29.1862 72.5 29.1944 72.5 29.2026 72.5C29.2108 72.5 29.219 72.5 29.2272 72.5C29.2355 72.5 29.2438 72.5 29.252 72.5C29.2603 72.5 29.2686 72.5 29.2769 72.5C29.2853 72.5 29.2936 72.5 29.3019 72.5C29.3103 72.5 29.3187 72.5 29.327 72.5C29.3354 72.5 29.3438 72.5 29.3523 72.5C29.3607 72.5 29.3691 72.5 29.3776 72.5C29.386 72.5 29.3945 72.5 29.403 72.5C29.4115 72.5 29.42 72.5 29.4286 72.5C29.4371 72.5 29.4457 72.5 29.4542 72.5C29.4628 72.5 29.4714 72.5 29.48 72.5C29.4886 72.5 29.4973 72.5 29.5059 72.5C29.5145 72.5 29.5232 72.5 29.5319 72.5C29.5406 72.5 29.5493 72.5 29.558 72.5C29.5668 72.5 29.5755 72.5 29.5843 72.5C29.593 72.5 29.6018 72.5 29.6106 72.5C29.6194 72.5 29.6283 72.5 29.6371 72.5C29.6459 72.5 29.6548 72.5 29.6637 72.5C29.6726 72.5 29.6815 72.5 29.6904 72.5C29.6993 72.5 29.7083 72.5 29.7173 72.5C29.7262 72.5 29.7352 72.5 29.7442 72.5C29.7532 72.5 29.7623 72.5 29.7713 72.5C29.7804 72.5 29.7894 72.5 29.7985 72.5C29.8076 72.5 29.8167 72.5 29.8259 72.5C29.835 72.5 29.8442 72.5 29.8533 72.5C29.8625 72.5 29.8717 72.5 29.8809 72.5C29.8902 72.5 29.8994 72.5 29.9087 72.5C29.9179 72.5 29.9272 72.5 29.9365 72.5C29.9458 72.5 29.9552 72.5 29.9645 72.5C29.9739 72.5 29.9833 72.5 29.9927 72.5C30.0021 72.5 30.0115 72.5 30.0209 72.5C30.0304 72.5 30.0398 72.5 30.0493 72.5C30.0588 72.5 30.0683 72.5 30.0778 72.5C30.0874 72.5 30.0969 72.5 30.1065 72.5C30.1161 72.5 30.1257 72.5 30.1353 72.5C30.1449 72.5 30.1546 72.5 30.1643 72.5C30.1739 72.5 30.1836 72.5 30.1933 72.5C30.2031 72.5 30.2128 72.5 30.2226 72.5C30.2323 72.5 30.2421 72.5 30.2519 72.5C30.2617 72.5 30.2716 72.5 30.2814 72.5C30.2913 72.5 30.3012 72.5 30.3111 72.5C30.321 72.5 30.3309 72.5 30.3409 72.5C30.3509 72.5 30.3608 72.5 30.3709 72.5C30.3809 72.5 30.3909 72.5 30.4009 72.5C30.411 72.5 30.4211 72.5 30.4312 72.5C30.4413 72.5 30.4514 72.5 30.4616 72.5C30.4717 72.5 30.4819 72.5 30.4921 72.5C30.5023 72.5 30.5126 72.5 30.5228 72.5C30.5331 72.5 30.5434 72.5 30.5537 72.5C30.564 72.5 30.5743 72.5 30.5847 72.5C30.595 72.5 30.6054 72.5 30.6158 72.5C30.6262 72.5 30.6367 72.5 30.6471 72.5C30.6576 72.5 30.6681 72.5 30.6786 72.5C30.6891 72.5 30.6997 72.5 30.7102 72.5C30.7208 72.5 30.7314 72.5 30.742 72.5C30.7526 72.5 30.7633 72.5 30.7739 72.5C30.7846 72.5 30.7953 72.5 30.806 72.5C30.8168 72.5 30.8275 72.5 30.8383 72.5C30.8491 72.5 30.8599 72.5 30.8707 72.5C30.8816 72.5 30.8924 72.5 30.9033 72.5C30.9142 72.5 30.9251 72.5 30.9361 72.5C30.947 72.5 30.958 72.5 30.969 72.5C30.98 72.5 30.991 72.5 31.0021 72.5C31.0132 72.5 31.0242 72.5 31.0354 72.5C31.0465 72.5 31.0576 72.5 31.0688 72.5C31.0799 72.5 31.0911 72.5 31.1024 72.5C31.1136 72.5 31.1249 72.5 31.1361 72.5C31.1474 72.5 31.1587 72.5 31.1701 72.5C31.1814 72.5 31.1928 72.5 31.2042 72.5C31.2156 72.5 31.227 72.5 31.2385 72.5C31.2499 72.5 31.2614 72.5 31.2729 72.5C31.2844 72.5 31.296 72.5 31.3076 72.5C31.3191 72.5 31.3307 72.5 31.3424 72.5C31.354 72.5 31.3657 72.5 31.3774 72.5C31.3891 72.5 31.4008 72.5 31.4125 72.5C31.4243 72.5 31.4361 72.5 31.4479 72.5C31.4597 72.5 31.4715 72.5 31.4834 72.5C31.4953 72.5 31.5072 72.5 31.5191 72.5C31.5311 72.5 31.543 72.5 31.555 72.5C31.567 72.5 31.5791 72.5 31.5911 72.5C31.6032 72.5 31.6153 72.5 31.6274 72.5C31.6395 72.5 31.6516 72.5 31.6638 72.5C31.676 72.5 31.6882 72.5 31.7005 72.5C31.7127 72.5 31.725 72.5 31.7373 72.5C31.7496 72.5 31.7619 72.5 31.7743 72.5C31.7867 72.5 31.7991 72.5 31.8115 72.5C31.824 72.5 31.8364 72.5 31.8489 72.5C31.8614 72.5 31.8739 72.5 31.8865 72.5C31.8991 72.5 31.9117 72.5 31.9243 72.5C31.9369 72.5 31.9496 72.5 31.9623 72.5C31.975 72.5 31.9877 72.5 32.0004 72.5C32.0132 72.5 32.026 72.5 32.0388 72.5C32.0516 72.5 32.0645 72.5 32.0774 72.5C32.0903 72.5 32.1032 72.5 32.1162 72.5C32.1291 72.5 32.1421 72.5 32.1551 72.5C32.1681 72.5 32.1812 72.5 32.1943 72.5C32.2074 72.5 32.2205 72.5 32.2337 72.5C32.2468 72.5 32.26 72.5 32.2732 72.5C32.2865 72.5 32.2997 72.5 32.313 72.5C32.3263 72.5 32.3396 72.5 32.353 72.5C32.3663 72.5 32.3797 72.5 32.3932 72.5C32.4066 72.5 32.4201 72.5 32.4336 72.5C32.4471 72.5 32.4606 72.5 32.4742 72.5C32.4877 72.5 32.5013 72.5 32.515 72.5C32.5286 72.5 32.5423 72.5 32.556 72.5C32.5697 72.5 32.5834 72.5 32.5972 72.5C32.611 72.5 32.6248 72.5 32.6387 72.5C32.6525 72.5 32.6664 72.5 32.6803 72.5C32.6942 72.5 32.7082 72.5 32.7222 72.5C32.7362 72.5 32.7502 72.5 32.7643 72.5C32.7783 72.5 32.7924 72.5 32.8066 72.5C32.8207 72.5 32.8349 72.5 32.8491 72.5C32.8633 72.5 32.8775 72.5 32.8918 72.5C32.9061 72.5 32.9204 72.5 32.9348 72.5C32.9491 72.5 32.9635 72.5 32.9779 72.5C32.9924 72.5 33.0068 72.5 33.0213 72.5C33.0358 72.5 33.0504 72.5 33.065 72.5C33.0795 72.5 33.0941 72.5 33.1088 72.5C33.1235 72.5 33.1381 72.5 33.1529 72.5C33.1676 72.5 33.1824 72.5 33.1972 72.5C33.212 72.5 33.2268 72.5 33.2417 72.5C33.2565 72.5 33.2715 72.5 33.2864 72.5C33.3014 72.5 33.3164 72.5 33.3314 72.5C33.3464 72.5 33.3615 72.5 33.3766 72.5C33.3917 72.5 33.4068 72.5 33.422 72.5C33.4372 72.5 33.4524 72.5 33.4677 72.5C33.4829 72.5 33.4982 72.5 33.5136 72.5C33.5289 72.5 33.5443 72.5 33.5597 72.5C33.5751 72.5 33.5906 72.5 33.6061 72.5C33.6216 72.5 33.6371 72.5 33.6527 72.5C33.6682 72.5 33.6838 72.5 33.6995 72.5C33.7151 72.5 33.7308 72.5 33.7466 72.5C33.7623 72.5 33.7781 72.5 33.7939 72.5C33.8097 72.5 33.8255 72.5 33.8414 72.5C33.8573 72.5 33.8733 72.5 33.8892 72.5C33.9052 72.5 33.9212 72.5 33.9373 72.5C33.9533 72.5 33.9694 72.5 33.9855 72.5C34.0017 72.5 34.0178 72.5 34.034 72.5C34.0503 72.5 34.0665 72.5 34.0828 72.5C34.0991 72.5 34.1154 72.5 34.1318 72.5C34.1482 72.5 34.1646 72.5 34.1811 72.5C34.1975 72.5 34.214 72.5 34.2306 72.5C34.2471 72.5 34.2637 72.5 34.2803 72.5C34.297 72.5 34.3136 72.5 34.3303 72.5C34.347 72.5 34.3638 72.5 34.3806 72.5C34.3974 72.5 34.4142 72.5 34.4311 72.5C34.448 72.5 34.4649 72.5 34.4819 72.5C34.4988 72.5 34.5158 72.5 34.5329 72.5C34.5499 72.5 34.567 72.5 34.5841 72.5C34.6013 72.5 34.6184 72.5 34.6357 72.5C34.6529 72.5 34.6701 72.5 34.6874 72.5C34.7047 72.5 34.7221 72.5 34.7395 72.5C34.7569 72.5 34.7743 72.5 34.7918 72.5C34.8092 72.5 34.8268 72.5 34.8443 72.5C34.8619 72.5 34.8795 72.5 34.8971 72.5C34.9148 72.5 34.9325 72.5 34.9502 72.5C34.968 72.5 34.9857 72.5 35.0036 72.5C35.0214 72.5 35.0393 72.5 35.0572 72.5C35.0751 72.5 35.0931 72.5 35.1111 72.5C35.1291 72.5 35.1471 72.5 35.1652 72.5C35.1833 72.5 35.2014 72.5 35.2196 72.5C35.2378 72.5 35.256 72.5 35.2743 72.5C35.2925 72.5 35.3109 72.5 35.3292 72.5C35.3476 72.5 35.366 72.5 35.3844 72.5C35.4029 72.5 35.4214 72.5 35.4399 72.5C35.4585 72.5 35.477 72.5 35.4957 72.5C35.5143 72.5 35.533 72.5 35.5517 72.5C35.5704 72.5 35.5892 72.5 35.608 72.5C35.6268 72.5 35.6457 72.5 35.6646 72.5C35.6835 72.5 35.7025 72.5 35.7214 72.5C35.7404 72.5 35.7595 72.5 35.7786 72.5C35.7977 72.5 35.8168 72.5 35.836 72.5C35.8552 72.5 35.8744 72.5 35.8937 72.5C35.913 72.5 35.9323 72.5 35.9517 72.5C35.971 72.5 35.9905 72.5 36.0099 72.5C36.0294 72.5 36.0489 72.5 36.0685 72.5C36.088 72.5 36.1076 72.5 36.1273 72.5C36.1469 72.5 36.1666 72.5 36.1864 72.5C36.2061 72.5 36.2259 72.5 36.2458 72.5C36.2656 72.5 36.2855 72.5 36.3055 72.5C36.3254 72.5 36.3454 72.5 36.3654 72.5C36.3855 72.5 36.4055 72.5 36.4257 72.5C36.4458 72.5 36.466 72.5 36.4862 72.5C36.5065 72.5 36.5267 72.5 36.5471 72.5C36.5674 72.5 36.5878 72.5 36.6082 72.5C36.6286 72.5 36.6491 72.5 36.6696 72.5C36.6901 72.5 36.7107 72.5 36.7313 72.5C36.7519 72.5 36.7726 72.5 36.7933 72.5C36.8141 72.5 36.8348 72.5 36.8556 72.5C36.8765 72.5 36.8973 72.5 36.9182 72.5C36.9392 72.5 36.9601 72.5 36.9811 72.5C37.0022 72.5 37.0232 72.5 37.0443 72.5C37.0655 72.5 37.0866 72.5 37.1078 72.5C37.1291 72.5 37.1503 72.5 37.1716 72.5C37.193 72.5 37.2143 72.5 37.2357 72.5C37.2572 72.5 37.2786 72.5 37.3002 72.5C37.3217 72.5 37.3432 72.5 37.3649 72.5C37.3865 72.5 37.4082 72.5 37.4299 72.5C37.4516 72.5 37.4734 72.5 37.4952 72.5C37.517 72.5 37.5389 72.5 37.5608 72.5C37.5828 72.5 37.6047 72.5 37.6268 72.5C37.6488 72.5 37.6709 72.5 37.693 72.5C37.7151 72.5 37.7373 72.5 37.7596 72.5C37.7818 72.5 37.8041 72.5 37.8264 72.5C37.8488 72.5 37.8712 72.5 37.8936 72.5C37.9161 72.5 37.9386 72.5 37.9611 72.5C37.9837 72.5 38.0063 72.5 38.0289 72.5C38.0516 72.5 38.0743 72.5 38.097 72.5C38.1198 72.5 38.1426 72.5 38.1655 72.5C38.1883 72.5 38.2113 72.5 38.2342 72.5C38.2572 72.5 38.2802 72.5 38.3033 72.5C38.3264 72.5 38.3495 72.5 38.3727 72.5C38.3959 72.5 38.4191 72.5 38.4424 72.5C38.4657 72.5 38.4891 72.5 38.5125 72.5C38.5359 72.5 38.5593 72.5 38.5828 72.5C38.6063 72.5 38.6299 72.5 38.6535 72.5C38.6771 72.5 38.7008 72.5 38.7245 72.5C38.7482 72.5 38.772 72.5 38.7959 72.5C38.8197 72.5 38.8436 72.5 38.8675 72.5C38.8915 72.5 38.9154 72.5 38.9395 72.5C38.9636 72.5 38.9877 72.5 39.0118 72.5C39.036 72.5 39.0602 72.5 39.0845 72.5C39.1087 72.5 39.1331 72.5 39.1574 72.5C39.1818 72.5 39.2063 72.5 39.2308 72.5V67.5C39.2063 67.5 39.1818 67.5 39.1574 67.5C39.1331 67.5 39.1087 67.5 39.0845 67.5C39.0602 67.5 39.036 67.5 39.0118 67.5C38.9877 67.5 38.9636 67.5 38.9395 67.5C38.9154 67.5 38.8915 67.5 38.8675 67.5C38.8436 67.5 38.8197 67.5 38.7959 67.5C38.772 67.5 38.7482 67.5 38.7245 67.5C38.7008 67.5 38.6771 67.5 38.6535 67.5C38.6299 67.5 38.6063 67.5 38.5828 67.5C38.5593 67.5 38.5359 67.5 38.5125 67.5C38.4891 67.5 38.4657 67.5 38.4424 67.5C38.4191 67.5 38.3959 67.5 38.3727 67.5C38.3495 67.5 38.3264 67.5 38.3033 67.5C38.2802 67.5 38.2572 67.5 38.2342 67.5C38.2113 67.5 38.1883 67.5 38.1655 67.5C38.1426 67.5 38.1198 67.5 38.097 67.5C38.0743 67.5 38.0516 67.5 38.0289 67.5C38.0063 67.5 37.9837 67.5 37.9611 67.5C37.9386 67.5 37.9161 67.5 37.8936 67.5C37.8712 67.5 37.8488 67.5 37.8264 67.5C37.8041 67.5 37.7818 67.5 37.7596 67.5C37.7373 67.5 37.7151 67.5 37.693 67.5C37.6709 67.5 37.6488 67.5 37.6268 67.5C37.6047 67.5 37.5828 67.5 37.5608 67.5C37.5389 67.5 37.517 67.5 37.4952 67.5C37.4734 67.5 37.4516 67.5 37.4299 67.5C37.4082 67.5 37.3865 67.5 37.3649 67.5C37.3432 67.5 37.3217 67.5 37.3002 67.5C37.2786 67.5 37.2572 67.5 37.2357 67.5C37.2143 67.5 37.193 67.5 37.1716 67.5C37.1503 67.5 37.1291 67.5 37.1078 67.5C37.0866 67.5 37.0655 67.5 37.0443 67.5C37.0232 67.5 37.0022 67.5 36.9811 67.5C36.9601 67.5 36.9392 67.5 36.9182 67.5C36.8973 67.5 36.8765 67.5 36.8556 67.5C36.8348 67.5 36.8141 67.5 36.7933 67.5C36.7726 67.5 36.7519 67.5 36.7313 67.5C36.7107 67.5 36.6901 67.5 36.6696 67.5C36.6491 67.5 36.6286 67.5 36.6082 67.5C36.5878 67.5 36.5674 67.5 36.5471 67.5C36.5267 67.5 36.5065 67.5 36.4862 67.5C36.466 67.5 36.4458 67.5 36.4257 67.5C36.4055 67.5 36.3855 67.5 36.3654 67.5C36.3454 67.5 36.3254 67.5 36.3055 67.5C36.2855 67.5 36.2656 67.5 36.2458 67.5C36.2259 67.5 36.2061 67.5 36.1864 67.5C36.1666 67.5 36.1469 67.5 36.1273 67.5C36.1076 67.5 36.088 67.5 36.0685 67.5C36.0489 67.5 36.0294 67.5 36.0099 67.5C35.9905 67.5 35.971 67.5 35.9517 67.5C35.9323 67.5 35.913 67.5 35.8937 67.5C35.8744 67.5 35.8552 67.5 35.836 67.5C35.8168 67.5 35.7977 67.5 35.7786 67.5C35.7595 67.5 35.7404 67.5 35.7214 67.5C35.7025 67.5 35.6835 67.5 35.6646 67.5C35.6457 67.5 35.6268 67.5 35.608 67.5C35.5892 67.5 35.5704 67.5 35.5517 67.5C35.533 67.5 35.5143 67.5 35.4957 67.5C35.477 67.5 35.4585 67.5 35.4399 67.5C35.4214 67.5 35.4029 67.5 35.3844 67.5C35.366 67.5 35.3476 67.5 35.3292 67.5C35.3109 67.5 35.2925 67.5 35.2743 67.5C35.256 67.5 35.2378 67.5 35.2196 67.5C35.2014 67.5 35.1833 67.5 35.1652 67.5C35.1471 67.5 35.1291 67.5 35.1111 67.5C35.0931 67.5 35.0751 67.5 35.0572 67.5C35.0393 67.5 35.0214 67.5 35.0036 67.5C34.9857 67.5 34.968 67.5 34.9502 67.5C34.9325 67.5 34.9148 67.5 34.8971 67.5C34.8795 67.5 34.8619 67.5 34.8443 67.5C34.8268 67.5 34.8092 67.5 34.7918 67.5C34.7743 67.5 34.7569 67.5 34.7395 67.5C34.7221 67.5 34.7047 67.5 34.6874 67.5C34.6701 67.5 34.6529 67.5 34.6357 67.5C34.6184 67.5 34.6013 67.5 34.5841 67.5C34.567 67.5 34.5499 67.5 34.5329 67.5C34.5158 67.5 34.4988 67.5 34.4819 67.5C34.4649 67.5 34.448 67.5 34.4311 67.5C34.4142 67.5 34.3974 67.5 34.3806 67.5C34.3638 67.5 34.347 67.5 34.3303 67.5C34.3136 67.5 34.297 67.5 34.2803 67.5C34.2637 67.5 34.2471 67.5 34.2306 67.5C34.214 67.5 34.1975 67.5 34.1811 67.5C34.1646 67.5 34.1482 67.5 34.1318 67.5C34.1154 67.5 34.0991 67.5 34.0828 67.5C34.0665 67.5 34.0503 67.5 34.034 67.5C34.0178 67.5 34.0017 67.5 33.9855 67.5C33.9694 67.5 33.9533 67.5 33.9373 67.5C33.9212 67.5 33.9052 67.5 33.8892 67.5C33.8733 67.5 33.8573 67.5 33.8414 67.5C33.8255 67.5 33.8097 67.5 33.7939 67.5C33.7781 67.5 33.7623 67.5 33.7466 67.5C33.7308 67.5 33.7151 67.5 33.6995 67.5C33.6838 67.5 33.6682 67.5 33.6527 67.5C33.6371 67.5 33.6216 67.5 33.6061 67.5C33.5906 67.5 33.5751 67.5 33.5597 67.5C33.5443 67.5 33.5289 67.5 33.5136 67.5C33.4982 67.5 33.4829 67.5 33.4677 67.5C33.4524 67.5 33.4372 67.5 33.422 67.5C33.4068 67.5 33.3917 67.5 33.3766 67.5C33.3615 67.5 33.3464 67.5 33.3314 67.5C33.3164 67.5 33.3014 67.5 33.2864 67.5C33.2715 67.5 33.2565 67.5 33.2417 67.5C33.2268 67.5 33.212 67.5 33.1972 67.5C33.1824 67.5 33.1676 67.5 33.1529 67.5C33.1381 67.5 33.1235 67.5 33.1088 67.5C33.0941 67.5 33.0795 67.5 33.065 67.5C33.0504 67.5 33.0358 67.5 33.0213 67.5C33.0068 67.5 32.9924 67.5 32.9779 67.5C32.9635 67.5 32.9491 67.5 32.9348 67.5C32.9204 67.5 32.9061 67.5 32.8918 67.5C32.8775 67.5 32.8633 67.5 32.8491 67.5C32.8349 67.5 32.8207 67.5 32.8066 67.5C32.7924 67.5 32.7783 67.5 32.7643 67.5C32.7502 67.5 32.7362 67.5 32.7222 67.5C32.7082 67.5 32.6942 67.5 32.6803 67.5C32.6664 67.5 32.6525 67.5 32.6387 67.5C32.6248 67.5 32.611 67.5 32.5972 67.5C32.5834 67.5 32.5697 67.5 32.556 67.5C32.5423 67.5 32.5286 67.5 32.515 67.5C32.5013 67.5 32.4877 67.5 32.4742 67.5C32.4606 67.5 32.4471 67.5 32.4336 67.5C32.4201 67.5 32.4066 67.5 32.3932 67.5C32.3797 67.5 32.3663 67.5 32.353 67.5C32.3396 67.5 32.3263 67.5 32.313 67.5C32.2997 67.5 32.2865 67.5 32.2732 67.5C32.26 67.5 32.2468 67.5 32.2337 67.5C32.2205 67.5 32.2074 67.5 32.1943 67.5C32.1812 67.5 32.1681 67.5 32.1551 67.5C32.1421 67.5 32.1291 67.5 32.1162 67.5C32.1032 67.5 32.0903 67.5 32.0774 67.5C32.0645 67.5 32.0516 67.5 32.0388 67.5C32.026 67.5 32.0132 67.5 32.0004 67.5C31.9877 67.5 31.975 67.5 31.9623 67.5C31.9496 67.5 31.9369 67.5 31.9243 67.5C31.9117 67.5 31.8991 67.5 31.8865 67.5C31.8739 67.5 31.8614 67.5 31.8489 67.5C31.8364 67.5 31.824 67.5 31.8115 67.5C31.7991 67.5 31.7867 67.5 31.7743 67.5C31.7619 67.5 31.7496 67.5 31.7373 67.5C31.725 67.5 31.7127 67.5 31.7005 67.5C31.6882 67.5 31.676 67.5 31.6638 67.5C31.6516 67.5 31.6395 67.5 31.6274 67.5C31.6153 67.5 31.6032 67.5 31.5911 67.5C31.5791 67.5 31.567 67.5 31.555 67.5C31.543 67.5 31.5311 67.5 31.5191 67.5C31.5072 67.5 31.4953 67.5 31.4834 67.5C31.4715 67.5 31.4597 67.5 31.4479 67.5C31.4361 67.5 31.4243 67.5 31.4125 67.5C31.4008 67.5 31.3891 67.5 31.3774 67.5C31.3657 67.5 31.354 67.5 31.3424 67.5C31.3307 67.5 31.3191 67.5 31.3076 67.5C31.296 67.5 31.2844 67.5 31.2729 67.5C31.2614 67.5 31.2499 67.5 31.2385 67.5C31.227 67.5 31.2156 67.5 31.2042 67.5C31.1928 67.5 31.1814 67.5 31.1701 67.5C31.1587 67.5 31.1474 67.5 31.1361 67.5C31.1249 67.5 31.1136 67.5 31.1024 67.5C31.0911 67.5 31.0799 67.5 31.0688 67.5C31.0576 67.5 31.0465 67.5 31.0354 67.5C31.0242 67.5 31.0132 67.5 31.0021 67.5C30.991 67.5 30.98 67.5 30.969 67.5C30.958 67.5 30.947 67.5 30.9361 67.5C30.9251 67.5 30.9142 67.5 30.9033 67.5C30.8924 67.5 30.8816 67.5 30.8707 67.5C30.8599 67.5 30.8491 67.5 30.8383 67.5C30.8275 67.5 30.8168 67.5 30.806 67.5C30.7953 67.5 30.7846 67.5 30.7739 67.5C30.7633 67.5 30.7526 67.5 30.742 67.5C30.7314 67.5 30.7208 67.5 30.7102 67.5C30.6997 67.5 30.6891 67.5 30.6786 67.5C30.6681 67.5 30.6576 67.5 30.6471 67.5C30.6367 67.5 30.6262 67.5 30.6158 67.5C30.6054 67.5 30.595 67.5 30.5847 67.5C30.5743 67.5 30.564 67.5 30.5537 67.5C30.5434 67.5 30.5331 67.5 30.5228 67.5C30.5126 67.5 30.5023 67.5 30.4921 67.5C30.4819 67.5 30.4717 67.5 30.4616 67.5C30.4514 67.5 30.4413 67.5 30.4312 67.5C30.4211 67.5 30.411 67.5 30.4009 67.5C30.3909 67.5 30.3809 67.5 30.3709 67.5C30.3608 67.5 30.3509 67.5 30.3409 67.5C30.3309 67.5 30.321 67.5 30.3111 67.5C30.3012 67.5 30.2913 67.5 30.2814 67.5C30.2716 67.5 30.2617 67.5 30.2519 67.5C30.2421 67.5 30.2323 67.5 30.2226 67.5C30.2128 67.5 30.2031 67.5 30.1933 67.5C30.1836 67.5 30.1739 67.5 30.1643 67.5C30.1546 67.5 30.1449 67.5 30.1353 67.5C30.1257 67.5 30.1161 67.5 30.1065 67.5C30.0969 67.5 30.0874 67.5 30.0778 67.5C30.0683 67.5 30.0588 67.5 30.0493 67.5C30.0398 67.5 30.0304 67.5 30.0209 67.5C30.0115 67.5 30.0021 67.5 29.9927 67.5C29.9833 67.5 29.9739 67.5 29.9645 67.5C29.9552 67.5 29.9458 67.5 29.9365 67.5C29.9272 67.5 29.9179 67.5 29.9087 67.5C29.8994 67.5 29.8902 67.5 29.8809 67.5C29.8717 67.5 29.8625 67.5 29.8533 67.5C29.8442 67.5 29.835 67.5 29.8259 67.5C29.8167 67.5 29.8076 67.5 29.7985 67.5C29.7894 67.5 29.7804 67.5 29.7713 67.5C29.7623 67.5 29.7532 67.5 29.7442 67.5C29.7352 67.5 29.7262 67.5 29.7173 67.5C29.7083 67.5 29.6993 67.5 29.6904 67.5C29.6815 67.5 29.6726 67.5 29.6637 67.5C29.6548 67.5 29.6459 67.5 29.6371 67.5C29.6283 67.5 29.6194 67.5 29.6106 67.5C29.6018 67.5 29.593 67.5 29.5843 67.5C29.5755 67.5 29.5668 67.5 29.558 67.5C29.5493 67.5 29.5406 67.5 29.5319 67.5C29.5232 67.5 29.5145 67.5 29.5059 67.5C29.4973 67.5 29.4886 67.5 29.48 67.5C29.4714 67.5 29.4628 67.5 29.4542 67.5C29.4457 67.5 29.4371 67.5 29.4286 67.5C29.42 67.5 29.4115 67.5 29.403 67.5C29.3945 67.5 29.386 67.5 29.3776 67.5C29.3691 67.5 29.3607 67.5 29.3523 67.5C29.3438 67.5 29.3354 67.5 29.327 67.5C29.3187 67.5 29.3103 67.5 29.3019 67.5C29.2936 67.5 29.2853 67.5 29.2769 67.5C29.2686 67.5 29.2603 67.5 29.252 67.5C29.2438 67.5 29.2355 67.5 29.2272 67.5C29.219 67.5 29.2108 67.5 29.2026 67.5C29.1944 67.5 29.1862 67.5 29.178 67.5C29.1698 67.5 29.1616 67.5 29.1535 67.5C29.1454 67.5 29.1372 67.5 29.1291 67.5C29.121 67.5 29.1129 67.5 29.1048 67.5C29.0968 67.5 29.0887 67.5 29.0807 67.5C29.0726 67.5 29.0646 67.5 29.0566 67.5C29.0486 67.5 29.0406 67.5 29.0326 67.5C29.0246 67.5 29.0167 67.5 29.0087 67.5C29.0008 67.5 28.9928 67.5 28.9849 67.5C28.977 67.5 28.9691 67.5 28.9612 67.5C28.9533 67.5 28.9455 67.5 28.9376 67.5C28.9298 67.5 28.9219 67.5 28.9141 67.5C28.9063 67.5 28.8985 67.5 28.8907 67.5C28.8829 67.5 28.8751 67.5 28.8673 67.5C28.8596 67.5 28.8518 67.5 28.8441 67.5C28.8364 67.5 28.8286 67.5 28.8209 67.5C28.8132 67.5 28.8055 67.5 28.7979 67.5C28.7902 67.5 28.7825 67.5 28.7749 67.5C28.7672 67.5 28.7596 67.5 28.752 67.5C28.7444 67.5 28.7367 67.5 28.7292 67.5C28.7216 67.5 28.714 67.5 28.7064 67.5C28.6989 67.5 28.6913 67.5 28.6838 67.5C28.6762 67.5 28.6687 67.5 28.6612 67.5C28.6537 67.5 28.6462 67.5 28.6387 67.5C28.6312 67.5 28.6238 67.5 28.6163 67.5C28.6088 67.5 28.6014 67.5 28.594 67.5C28.5865 67.5 28.5791 67.5 28.5717 67.5C28.5643 67.5 28.5569 67.5 28.5495 67.5C28.5421 67.5 28.5348 67.5 28.5274 67.5C28.5201 67.5 28.5127 67.5 28.5054 67.5C28.498 67.5 28.4907 67.5 28.4834 67.5C28.4761 67.5 28.4688 67.5 28.4615 67.5C28.4542 67.5 28.447 67.5 28.4397 67.5C28.4324 67.5 28.4252 67.5 28.418 67.5C28.4107 67.5 28.4035 67.5 28.3963 67.5C28.3891 67.5 28.3818 67.5 28.3747 67.5C28.3675 67.5 28.3603 67.5 28.3531 67.5C28.3459 67.5 28.3388 67.5 28.3316 67.5C28.3245 67.5 28.3173 67.5 28.3102 67.5C28.3031 67.5 28.296 67.5 28.2888 67.5C28.2817 67.5 28.2746 67.5 28.2675 67.5C28.2605 67.5 28.2534 67.5 28.2463 67.5C28.2392 67.5 28.2322 67.5 28.2251 67.5C28.2181 67.5 28.2111 67.5 28.204 67.5C28.197 67.5 28.19 67.5 28.183 67.5C28.176 67.5 28.169 67.5 28.162 67.5C28.155 67.5 28.148 67.5 28.141 67.5C28.1341 67.5 28.1271 67.5 28.1201 67.5C28.1132 67.5 28.1062 67.5 28.0993 67.5C28.0924 67.5 28.0855 67.5 28.0785 67.5C28.0716 67.5 28.0647 67.5 28.0578 67.5C28.0509 67.5 28.044 67.5 28.0371 67.5C28.0302 67.5 28.0234 67.5 28.0165 67.5C28.0096 67.5 28.0028 67.5 27.9959 67.5C27.9891 67.5 27.9822 67.5 27.9754 67.5C27.9686 67.5 27.9617 67.5 27.9549 67.5C27.9481 67.5 27.9413 67.5 27.9345 67.5C27.9277 67.5 27.9209 67.5 27.9141 67.5C27.9073 67.5 27.9005 67.5 27.8937 67.5C27.8869 67.5 27.8802 67.5 27.8734 67.5C27.8667 67.5 27.8599 67.5 27.8532 67.5C27.8464 67.5 27.8397 67.5 27.8329 67.5C27.8262 67.5 27.8195 67.5 27.8127 67.5C27.806 67.5 27.7993 67.5 27.7926 67.5C27.7859 67.5 27.7792 67.5 27.7725 67.5C27.7658 67.5 27.7591 67.5 27.7524 67.5C27.7457 67.5 27.7391 67.5 27.7324 67.5C27.7257 67.5 27.719 67.5 27.7124 67.5C27.7057 67.5 27.6991 67.5 27.6924 67.5C27.6858 67.5 27.6791 67.5 27.6725 67.5C27.6658 67.5 27.6592 67.5 27.6526 67.5C27.6459 67.5 27.6393 67.5 27.6327 67.5C27.6261 67.5 27.6195 67.5 27.6129 67.5C27.6062 67.5 27.5996 67.5 27.593 67.5C27.5864 67.5 27.5798 67.5 27.5733 67.5C27.5667 67.5 27.5601 67.5 27.5535 67.5C27.5469 67.5 27.5403 67.5 27.5338 67.5C27.5272 67.5 27.5206 67.5 27.514 67.5C27.5075 67.5 27.5009 67.5 27.4943 67.5C27.4878 67.5 27.4812 67.5 27.4747 67.5C27.4681 67.5 27.4616 67.5 27.455 67.5C27.4485 67.5 27.442 67.5 27.4354 67.5C27.4289 67.5 27.4223 67.5 27.4158 67.5C27.4093 67.5 27.4027 67.5 27.3962 67.5C27.3897 67.5 27.3832 67.5 27.3766 67.5C27.3701 67.5 27.3636 67.5 27.3571 67.5C27.3506 67.5 27.3441 67.5 27.3376 67.5C27.331 67.5 27.3245 67.5 27.318 67.5C27.3115 67.5 27.305 67.5 27.2985 67.5C27.292 67.5 27.2855 67.5 27.279 67.5C27.2725 67.5 27.266 67.5 27.2595 67.5C27.253 67.5 27.2465 67.5 27.24 67.5C27.2335 67.5 27.2271 67.5 27.2206 67.5C27.2141 67.5 27.2076 67.5 27.2011 67.5C27.1946 67.5 27.1881 67.5 27.1816 67.5C27.1752 67.5 27.1687 67.5 27.1622 67.5C27.1557 67.5 27.1492 67.5 27.1428 67.5C27.1363 67.5 27.1298 67.5 27.1233 67.5C27.1168 67.5 27.1104 67.5 27.1039 67.5C27.0974 67.5 27.0909 67.5 27.0844 67.5C27.078 67.5 27.0715 67.5 27.065 67.5C27.0585 67.5 27.052 67.5 27.0456 67.5C27.0391 67.5 27.0326 67.5 27.0261 67.5C27.0196 67.5 27.0132 67.5 27.0067 67.5C27.0002 67.5 26.9937 67.5 26.9872 67.5C26.9808 67.5 26.9743 67.5 26.9678 67.5C26.9613 67.5 26.9548 67.5 26.9483 67.5C26.9418 67.5 26.9354 67.5 26.9289 67.5C26.9224 67.5 26.9159 67.5 26.9094 67.5C26.9029 67.5 26.8964 67.5 26.8899 67.5C26.8834 67.5 26.8769 67.5 26.8704 67.5C26.8639 67.5 26.8574 67.5 26.8509 67.5C26.8444 67.5 26.8379 67.5 26.8314 67.5C26.8249 67.5 26.8184 67.5 26.8119 67.5C26.8054 67.5 26.7989 67.5 26.7924 67.5C26.7859 67.5 26.7794 67.5 26.7728 67.5C26.7663 67.5 26.7598 67.5 26.7533 67.5C26.7467 67.5 26.7402 67.5 26.7337 67.5C26.7272 67.5 26.7206 67.5 26.7141 67.5C26.7076 67.5 26.701 67.5 26.6945 67.5C26.6879 67.5 26.6814 67.5 26.6748 67.5C26.6683 67.5 26.6617 67.5 26.6552 67.5C26.6486 67.5 26.6421 67.5 26.6355 67.5C26.6289 67.5 26.6224 67.5 26.6158 67.5C26.6092 67.5 26.6026 67.5 26.5961 67.5C26.5895 67.5 26.5829 67.5 26.5763 67.5C26.5697 67.5 26.5631 67.5 26.5565 67.5C26.5499 67.5 26.5433 67.5 26.5367 67.5C26.5301 67.5 26.5235 67.5 26.5169 67.5C26.5103 67.5 26.5037 67.5 26.497 67.5C26.4904 67.5 26.4838 67.5 26.4771 67.5C26.4705 67.5 26.4639 67.5 26.4572 67.5C26.4506 67.5 26.4439 67.5 26.4373 67.5C26.4306 67.5 26.4239 67.5 26.4173 67.5C26.4106 67.5 26.4039 67.5 26.3973 67.5C26.3906 67.5 26.3839 67.5 26.3772 67.5C26.3705 67.5 26.3638 67.5 26.3571 67.5C26.3504 67.5 26.3437 67.5 26.337 67.5C26.3303 67.5 26.3235 67.5 26.3168 67.5C26.3101 67.5 26.3033 67.5 26.2966 67.5C26.2899 67.5 26.2831 67.5 26.2763 67.5C26.2696 67.5 26.2628 67.5 26.2561 67.5C26.2493 67.5 26.2425 67.5 26.2357 67.5C26.2289 67.5 26.2221 67.5 26.2154 67.5C26.2086 67.5 26.2017 67.5 26.1949 67.5C26.1881 67.5 26.1813 67.5 26.1745 67.5C26.1676 67.5 26.1608 67.5 26.154 67.5C26.1471 67.5 26.1403 67.5 26.1334 67.5C26.1265 67.5 26.1197 67.5 26.1128 67.5C26.1059 67.5 26.099 67.5 26.0921 67.5C26.0852 67.5 26.0783 67.5 26.0714 67.5C26.0645 67.5 26.0576 67.5 26.0507 67.5C26.0437 67.5 26.0368 67.5 26.0298 67.5C26.0229 67.5 26.0159 67.5 26.009 67.5C26.002 67.5 25.995 67.5 25.9881 67.5C25.9811 67.5 25.9741 67.5 25.9671 67.5C25.9601 67.5 25.9531 67.5 25.9461 67.5C25.939 67.5 25.932 67.5 25.925 67.5C25.9179 67.5 25.9109 67.5 25.9038 67.5C25.8968 67.5 25.8897 67.5 25.8826 67.5C25.8755 67.5 25.8684 67.5 25.8613 67.5C25.8542 67.5 25.8471 67.5 25.84 67.5C25.8329 67.5 25.8258 67.5 25.8186 67.5C25.8115 67.5 25.8043 67.5 25.7972 67.5C25.79 67.5 25.7828 67.5 25.7756 67.5C25.7684 67.5 25.7612 67.5 25.754 67.5C25.7468 67.5 25.7396 67.5 25.7324 67.5C25.7252 67.5 25.7179 67.5 25.7107 67.5C25.7034 67.5 25.6961 67.5 25.6889 67.5C25.6816 67.5 25.6743 67.5 25.667 67.5C25.6597 67.5 25.6524 67.5 25.6451 67.5C25.6377 67.5 25.6304 67.5 25.6231 67.5C25.6157 67.5 25.6084 67.5 25.601 67.5C25.5936 67.5 25.5862 67.5 25.5788 67.5C25.5714 67.5 25.564 67.5 25.5566 67.5C25.5492 67.5 25.5417 67.5 25.5343 67.5C25.5268 67.5 25.5194 67.5 25.5119 67.5C25.5044 67.5 25.497 67.5 25.4895 67.5C25.482 67.5 25.4744 67.5 25.4669 67.5C25.4594 67.5 25.4518 67.5 25.4443 67.5C25.4367 67.5 25.4292 67.5 25.4216 67.5C25.414 67.5 25.4064 67.5 25.3988 67.5C25.3912 67.5 25.3836 67.5 25.3759 67.5C25.3683 67.5 25.3607 67.5 25.353 67.5C25.3453 67.5 25.3377 67.5 25.33 67.5C25.3223 67.5 25.3146 67.5 25.3068 67.5C25.2991 67.5 25.2914 67.5 25.2836 67.5C25.2759 67.5 25.2681 67.5 25.2603 67.5C25.2525 67.5 25.2448 67.5 25.2369 67.5C25.2291 67.5 25.2213 67.5 25.2135 67.5C25.2056 67.5 25.1978 67.5 25.1899 67.5C25.182 67.5 25.1741 67.5 25.1662 67.5C25.1583 67.5 25.1504 67.5 25.1425 67.5C25.1345 67.5 25.1266 67.5 25.1186 67.5C25.1107 67.5 25.1027 67.5 25.0947 67.5C25.0867 67.5 25.0787 67.5 25.0706 67.5C25.0626 67.5 25.0546 67.5 25.0465 67.5C25.0384 67.5 25.0303 67.5 25.0223 67.5C25.0142 67.5 25.006 67.5 24.9979 67.5C24.9898 67.5 24.9816 67.5 24.9735 67.5C24.9653 67.5 24.9571 67.5 24.9489 67.5C24.9407 67.5 24.9325 67.5 24.9243 67.5C24.9161 67.5 24.9078 67.5 24.8995 67.5C24.8913 67.5 24.883 67.5 24.8747 67.5C24.8664 67.5 24.8581 67.5 24.8497 67.5C24.8414 67.5 24.833 67.5 24.8247 67.5C24.8163 67.5 24.8079 67.5 24.7995 67.5C24.7911 67.5 24.7826 67.5 24.7742 67.5C24.7658 67.5 24.7573 67.5 24.7488 67.5C24.7403 67.5 24.7318 67.5 24.7233 67.5C24.7148 67.5 24.7062 67.5 24.6977 67.5C24.6891 67.5 24.6806 67.5 24.672 67.5C24.6634 67.5 24.6547 67.5 24.6461 67.5C24.6375 67.5 24.6288 67.5 24.6202 67.5C24.6115 67.5 24.6028 67.5 24.5941 67.5C24.5854 67.5 24.5766 67.5 24.5679 67.5C24.5591 67.5 24.5504 67.5 24.5416 67.5C24.5328 67.5 24.524 67.5 24.5151 67.5C24.5063 67.5 24.4975 67.5 24.4886 67.5C24.4797 67.5 24.4708 67.5 24.4619 67.5C24.453 67.5 24.4441 67.5 24.4351 67.5C24.4262 67.5 24.4172 67.5 24.4082 67.5C24.3992 67.5 24.3902 67.5 24.3812 67.5C24.3721 67.5 24.3631 67.5 24.354 67.5C24.3449 67.5 24.3358 67.5 24.3267 67.5C24.3176 67.5 24.3085 67.5 24.2993 67.5C24.2901 67.5 24.281 67.5 24.2717 67.5C24.2625 67.5 24.2533 67.5 24.2441 67.5C24.2348 67.5 24.2256 67.5 24.2163 67.5C24.207 67.5 24.1977 67.5 24.1883 67.5C24.179 67.5 24.1696 67.5 24.1602 67.5C24.1509 67.5 24.1415 67.5 24.132 67.5C24.1226 67.5 24.1132 67.5 24.1037 67.5C24.0942 67.5 24.0847 67.5 24.0752 67.5C24.0657 67.5 24.0562 67.5 24.0466 67.5C24.0371 67.5 24.0275 67.5 24.0179 67.5C24.0083 67.5 23.9986 67.5 23.989 67.5C23.9793 67.5 23.9696 67.5 23.9599 67.5C23.9502 67.5 23.9405 67.5 23.9308 67.5C23.921 67.5 23.9113 67.5 23.9015 67.5C23.8917 67.5 23.8818 67.5 23.872 67.5C23.8622 67.5 23.8523 67.5 23.8424 67.5C23.8325 67.5 23.8226 67.5 23.8127 67.5C23.8027 67.5 23.7928 67.5 23.7828 67.5C23.7728 67.5 23.7628 67.5 23.7527 67.5C23.7427 67.5 23.7326 67.5 23.7226 67.5C23.7125 67.5 23.7024 67.5 23.6922 67.5C23.6821 67.5 23.6719 67.5 23.6617 67.5C23.6516 67.5 23.6413 67.5 23.6311 67.5C23.6209 67.5 23.6106 67.5 23.6003 67.5C23.59 67.5 23.5797 67.5 23.5694 67.5C23.559 67.5 23.5487 67.5 23.5383 67.5C23.5279 67.5 23.5175 67.5 23.507 67.5C23.4966 67.5 23.4861 67.5 23.4756 67.5C23.4651 67.5 23.4546 67.5 23.4441 67.5C23.4335 67.5 23.423 67.5 23.4124 67.5C23.4018 67.5 23.3911 67.5 23.3805 67.5C23.3698 67.5 23.3591 67.5 23.3484 67.5C23.3377 67.5 23.327 67.5 23.3162 67.5C23.3055 67.5 23.2947 67.5 23.2839 67.5C23.2731 67.5 23.2622 67.5 23.2513 67.5C23.2405 67.5 23.2296 67.5 23.2187 67.5C23.2077 67.5 23.1968 67.5 23.1858 67.5C23.1748 67.5 23.1638 67.5 23.1528 67.5C23.1417 67.5 23.1307 67.5 23.1196 67.5C23.1085 67.5 23.0974 67.5 23.0862 67.5C23.0751 67.5 23.0639 67.5 23.0527 67.5C23.0415 67.5 23.0303 67.5 23.019 67.5C23.0077 67.5 22.9965 67.5 22.9851 67.5C22.9738 67.5 22.9625 67.5 22.9511 67.5C22.9397 67.5 22.9283 67.5 22.9169 67.5C22.9055 67.5 22.894 67.5 22.8825 67.5C22.871 67.5 22.8595 67.5 22.8479 67.5C22.8364 67.5 22.8248 67.5 22.8132 67.5C22.8016 67.5 22.7899 67.5 22.7783 67.5C22.7666 67.5 22.7549 67.5 22.7432 67.5C22.7314 67.5 22.7197 67.5 22.7079 67.5C22.6961 67.5 22.6843 67.5 22.6724 67.5C22.6606 67.5 22.6487 67.5 22.6368 67.5C22.6249 67.5 22.6129 67.5 22.601 67.5C22.589 67.5 22.577 67.5 22.565 67.5C22.5529 67.5 22.5409 67.5 22.5288 67.5C22.5167 67.5 22.5045 67.5 22.4924 67.5C22.4802 67.5 22.468 67.5 22.4558 67.5C22.4436 67.5 22.4314 67.5 22.4191 67.5C22.4068 67.5 22.3945 67.5 22.3821 67.5C22.3698 67.5 22.3574 67.5 22.345 67.5C22.3326 67.5 22.3202 67.5 22.3077 67.5V72.5ZM39.2308 72.5C43.7111 72.5 48.0197 70.5819 51.8345 67.927C55.6704 65.2573 59.2073 61.7045 62.2001 58.0959C65.1994 54.4794 67.7132 50.7332 69.4883 47.6105C70.375 46.0507 71.0955 44.6146 71.6029 43.4033C72.0578 42.317 72.5 41.0551 72.5 40H67.5C67.5 39.9449 67.4523 40.3705 66.9911 41.4717C66.5822 42.4479 65.9603 43.6993 65.1415 45.1395C63.506 48.0168 61.1576 51.5206 58.3514 54.9041C55.5387 58.2955 52.3266 61.4927 48.9783 63.823C45.6087 66.1681 42.2976 67.5 39.2308 67.5V72.5ZM72.5 40C72.5 38.9823 72.102 37.7471 71.6723 36.6504C71.198 35.44 70.5209 34.0033 69.6796 32.4402C67.9958 29.3117 65.5887 25.5559 62.6551 21.9281C59.7277 18.3078 56.217 14.7417 52.3098 12.063C48.41 9.38939 43.966 7.5 39.2308 7.5V12.5C42.6232 12.5 46.0893 13.8606 49.4826 16.187C52.8686 18.5083 56.0343 21.6922 58.7672 25.0719C61.494 28.4441 63.7313 31.9383 65.2768 34.8098C66.0501 36.2467 66.634 37.4975 67.0169 38.4746C67.4444 39.5654 67.5 40.0177 67.5 40H72.5ZM39.2308 7.5C29.5247 7.5 29.8077 7.5 22.3077 7.5L22.3077 12.5C29.8077 12.5 29.5247 12.5 39.2308 12.5V7.5ZM20.1728 11.3008C25.8968 20.6948 31.0897 26.8503 31.0897 40H36.0897C36.0897 25.1497 29.916 17.682 24.4426 8.69915L20.1728 11.3008ZM31.0897 40C31.0897 46.42 28.4739 53.5026 25.7042 59.149C24.3367 61.9369 22.9675 64.3036 21.9414 65.971C21.4289 66.8037 21.0038 67.4593 20.7094 67.9028C20.5623 68.1244 20.448 68.2929 20.372 68.4039C20.334 68.4593 20.3056 68.5004 20.2875 68.5265C20.2784 68.5395 20.2719 68.5488 20.268 68.5543C20.2661 68.5571 20.2648 68.5589 20.2643 68.5597C20.264 68.5601 20.2638 68.5603 20.2639 68.5602C20.2639 68.5602 20.2641 68.56 20.2641 68.56C20.2643 68.5597 20.2645 68.5593 22.3077 70C24.3508 71.4407 24.3512 71.4402 24.3515 71.4397C24.3517 71.4394 24.3521 71.4388 24.3525 71.4383C24.3532 71.4373 24.3541 71.436 24.3552 71.4344C24.3574 71.4314 24.3602 71.4274 24.3637 71.4224C24.3707 71.4124 24.3804 71.3985 24.3926 71.3809C24.4172 71.3456 24.4521 71.2951 24.4968 71.2299C24.586 71.0996 24.7141 70.9107 24.8755 70.6676C25.1981 70.1814 25.6544 69.4776 26.1996 68.5915C27.2889 66.8214 28.7402 64.3131 30.1932 61.351C33.0645 55.4974 36.0897 47.58 36.0897 40H31.0897Z" fill="#333333"/>
</g>
<defs>
<filter id="filter0_d" x="0" y="0" width="80" height="84" filterUnits="userSpaceOnUse" color-interpolation-filters="sRGB">
<feFlood flood-opacity="0" result="BackgroundImageFix"/>
<feColorMatrix in="SourceAlpha" type="matrix" values="0 0 0 0 0 0 0 0 0 0 0 0 0 0 0 0 0 0 127 0" result="hardAlpha"/>
<feOffset dy="4"/>
<feColorMatrix type="matrix" values="0 0 0 0 0 0 0 0 0 0 0 0 0 0 0 0 0 0 0.25 0"/>
<feBlend mode="normal" in2="BackgroundImageFix" result="effect1_dropShadow"/>
<feBlend mode="normal" in="SourceGraphic" in2="effect1_dropShadow" result="shape"/>
</filter>
</defs>
</svg>
