<svg width="180" height="184" viewBox="0 0 180 184" fill="none" xmlns="http://www.w3.org/2000/svg">
<g id="DiscoDuro" filter="url(#filter0_d)">
<rect id="bg" width="180" height="180" rx="20"/>
<g id="Disco duro">
<path id="Vector" fill-rule="evenodd" clip-rule="evenodd" d="M18.5045 95.9984L30.7894 88.8849L19.7856 84.9526L16.8576 93.6948L18.5045 95.9984Z" fill="#414042"/>
<path id="Vector_2" fill-rule="evenodd" clip-rule="evenodd" d="M62.6562 121.163V114.346L72.1291 109.678L71.9499 116.115L62.6562 121.163Z" fill="#414042"/>
<path id="Vector_3" fill-rule="evenodd" clip-rule="evenodd" d="M15.9309 87.7032L62.6598 114.347L67.2637 111.621L19.978 86.1389L15.9309 87.7032Z" fill="#414042"/>
<path id="Vector_4" fill-rule="evenodd" clip-rule="evenodd" d="M62.6598 114.34V121.157L42.4256 109.624V105.708L41.6327 104.456L19.3525 92.1419L18.5092 92.4895V95.9905L15.9309 94.5217V87.6957L62.6598 114.34Z" fill="#808285"/>
<path id="Vector_5" fill-rule="evenodd" clip-rule="evenodd" d="M38.4094 71.8396L96.5176 38.8451C101.738 35.8807 107.663 35.871 112.894 38.8183L144.069 56.3863H164V70.7656C164.003 72.7676 163.003 74.4864 161.263 75.4747L82.3302 120.278C79.7198 121.759 76.7499 121.777 74.1416 120.289L17.2372 87.8422C16.4358 87.3851 15.9701 86.5965 15.968 85.6738V71.8396H38.4092H38.4094Z" fill="#58595B"/>
<path id="Vector_6" fill-rule="evenodd" clip-rule="evenodd" d="M76.5728 121.207C75.7435 121.031 74.9249 120.727 74.1416 120.28L17.2372 87.8328C16.4358 87.3758 15.9701 86.5872 15.968 85.6645V71.8303H25.253L76.5728 101.318V121.207Z" fill="#808285"/>
<path id="Vector_7" fill-rule="evenodd" clip-rule="evenodd" d="M17.2309 69.7598L96.5176 24.74C101.738 21.7755 107.663 21.7669 112.894 24.7132L161.248 51.96C162.992 52.9428 163.997 54.6595 164 56.6605C164.003 58.6625 163.003 60.3824 161.263 61.3695L82.3302 106.172C79.7198 107.654 76.7575 107.658 74.1416 106.184L17.2372 74.1029C16.4337 73.6491 15.9701 72.8573 15.968 71.9335C15.9669 71.0097 16.4283 70.2157 17.2308 69.7598H17.2309Z" fill="#414042"/>
<path id="Vector_8" fill-rule="evenodd" clip-rule="evenodd" d="M17.2309 67.7759L96.5176 22.7573C101.738 19.7928 107.663 19.7831 112.894 22.7305L161.248 49.9772C162.992 50.959 163.997 52.6756 164 54.6777C164.003 56.6787 163.003 58.3986 161.263 59.3857L82.3302 104.19C79.7198 105.67 76.7575 105.676 74.1416 104.201L17.2372 72.1191C16.4337 71.6653 15.9701 70.8734 15.968 69.9496C15.9669 69.0259 16.4283 68.233 17.2308 67.7759H17.2309Z" fill="#B1B3B6"/>
<path id="Vector_9" d="M17.2309 65.7937L96.5176 20.7741C101.738 17.8096 107.663 17.7999 112.894 20.7473L161.248 47.994C162.992 48.9768 163.997 50.6934 164 52.6945C164.003 54.6965 163.003 56.4164 161.263 57.4035L82.3302 102.206C79.7198 103.688 76.7575 103.692 74.1416 102.218L17.2372 70.1369C16.4337 69.6831 15.9701 68.8913 15.968 67.9674C15.9669 67.0437 16.4283 66.2497 17.2308 65.7937H17.2309Z" fill="url(#paint0_linear)"/>
<path id="Vector_10" fill-rule="evenodd" clip-rule="evenodd" d="M38.3944 59.3701L43.8642 56.2641C46.3673 54.8435 49.1751 54.7791 51.7394 56.0838C53.1772 56.8155 54.9882 57.2748 56.9624 57.3263C61.7347 57.4518 65.6712 55.1536 65.7507 52.1902C65.7732 51.3318 65.4695 50.5122 64.9117 49.7772C64.1574 48.7847 63.8988 47.6346 64.1531 46.4147C64.4073 45.1948 65.1048 44.2441 66.1927 43.6358L76.2492 38.0073L120.791 33.501C135.89 40.0115 153.498 53.6547 136.53 65.6156C134.411 67.1092 131.976 67.5254 129.481 66.8227C128.481 66.5405 127.382 66.371 126.228 66.3399C121.456 66.2143 117.519 68.5125 117.441 71.478C117.43 71.8825 117.492 72.2795 117.619 72.6625C118.25 74.5648 117.469 76.598 115.725 77.5883L83.5075 95.8741C81.2972 97.1294 78.7899 97.1337 76.5754 95.8848L65.402 89.5857C64.1896 88.9023 63.4504 87.7746 63.3076 86.3884C63.166 85.0033 63.6595 83.749 64.7088 82.8327C65.6595 82.0023 66.2291 80.9862 66.2582 79.8779C66.3354 76.9146 62.5287 74.406 57.7564 74.2805C54.381 74.1914 51.4229 75.3148 49.9541 77.0293C48.6484 78.5518 46.5025 78.9305 44.7558 77.9456L39.0618 74.7354C37.1155 73.6378 36.3849 71.198 37.4074 69.2109C37.6541 68.7303 37.7947 68.2186 37.8076 67.6852C37.8291 66.8752 37.5586 66.0984 37.0587 65.3956C36.3527 64.4032 36.1242 63.2767 36.3881 62.0868C36.651 60.8958 37.3344 59.9721 38.3944 59.3701Z" fill="#B1B3B6"/>
<path id="Vector_11" d="M38.3944 58.0161L43.8642 54.91C46.3673 53.4895 49.1751 53.4251 51.7394 54.7297C53.1772 55.4615 54.9882 55.9207 56.9624 55.9733C61.7347 56.0988 65.6712 53.8006 65.7507 50.8361C65.7732 49.9778 65.4695 49.1581 64.9117 48.4242C64.1574 47.4318 63.8988 46.2816 64.1531 45.0617C64.4073 43.8407 65.1048 42.8901 66.1927 42.2817L76.2492 36.6532L120.791 32.148C135.89 38.6574 153.498 52.3018 136.53 64.2616C134.411 65.7551 131.976 66.1714 129.481 65.4686C128.481 65.1864 127.382 65.0169 126.228 64.9869C121.456 64.8614 117.519 67.1585 117.441 70.124C117.43 70.5285 117.492 70.9265 117.619 71.3096C118.25 73.2119 117.469 75.2451 115.725 76.2343L83.5075 94.5211C81.2972 95.7764 78.7899 95.7807 76.5754 94.5308L65.402 88.2316C64.1896 87.5482 63.4504 86.4206 63.3076 85.0355C63.166 83.6503 63.6595 82.395 64.7088 81.4787C65.6595 80.6483 66.2291 79.6333 66.2582 78.5249C66.3354 75.5605 62.5287 73.052 57.7564 72.9264C54.381 72.8374 51.4229 73.9607 49.9541 75.6753C48.6484 77.1989 46.5025 77.5765 44.7558 76.5915L39.0618 73.3814C37.1155 72.2849 36.3849 69.8439 37.4074 67.858C37.6541 67.3774 37.7947 66.8645 37.8076 66.3313C37.8291 65.5212 37.5586 64.7455 37.0587 64.0427C36.3527 63.0492 36.1242 61.9237 36.3881 60.7327C36.651 59.5418 37.3344 58.618 38.3944 58.0161Z" fill="url(#paint1_linear)"/>
<path id="Vector_12" fill-rule="evenodd" clip-rule="evenodd" d="M29.3975 62.7895C33.29 62.8936 36.394 64.9365 36.3296 67.3537C36.2652 69.771 33.0572 71.6465 29.1657 71.5435C25.2732 71.4405 22.1693 69.3966 22.2336 66.9793C22.298 64.562 25.506 62.6866 29.3975 62.7895Z" fill="#414042"/>
<path id="Vector_13" fill-rule="evenodd" clip-rule="evenodd" d="M29.3975 62.3261C33.29 62.4291 36.394 64.4731 36.3296 66.8903C36.2652 69.3066 33.0572 71.1831 29.1657 71.0791C25.2732 70.976 22.1693 68.9321 22.2336 66.5148C22.298 64.0986 25.506 62.2232 29.3975 62.3261Z" fill="#808285"/>
<path id="Vector_14" fill-rule="evenodd" clip-rule="evenodd" d="M56.9396 75.5968C60.8312 75.6998 63.9351 77.7437 63.8718 80.161C63.8075 82.5772 60.5994 84.4537 56.708 84.3497C52.8154 84.2466 49.7114 82.2027 49.7758 79.7855C49.8391 77.3692 53.0482 75.4938 56.9396 75.5968Z" fill="#414042"/>
<path id="Vector_15" fill-rule="evenodd" clip-rule="evenodd" d="M56.9396 75.1334C60.8312 75.2375 63.9351 77.2803 63.8718 79.6976C63.8075 82.1149 60.5994 83.9904 56.708 83.8874C52.8154 83.7843 49.7114 81.7405 49.7758 79.3232C49.8391 76.9058 53.0482 75.0304 56.9396 75.1334Z" fill="#808285"/>
<path id="Vector_16" fill-rule="evenodd" clip-rule="evenodd" d="M57.5328 46.5347C61.4253 46.6378 64.5293 48.6817 64.4649 51.099C64.4005 53.5152 61.1925 55.3917 57.301 55.2887C53.4085 55.1847 50.3045 53.1418 50.3689 50.7246C50.4332 48.3072 53.6413 46.4317 57.5328 46.5347Z" fill="#414042"/>
<path id="Vector_17" fill-rule="evenodd" clip-rule="evenodd" d="M57.5328 46.0714C61.4253 46.1755 64.5293 48.2184 64.4649 50.6356C64.4005 53.053 61.1925 54.9295 57.301 54.8254C53.4085 54.7224 50.3045 52.6785 50.3689 50.2612C50.4332 47.845 53.6413 45.9685 57.5328 46.0714Z" fill="#808285"/>
<path id="Vector_18" fill-rule="evenodd" clip-rule="evenodd" d="M97.7711 24.1452C101.663 24.2482 104.767 26.2921 104.703 28.7094C104.638 31.1256 101.431 33.0021 97.5384 32.8991C93.6468 32.7951 90.5429 30.7522 90.6072 28.3349C90.6706 25.9176 93.8796 24.0421 97.7711 24.1452Z" fill="#414042"/>
<path id="Vector_19" fill-rule="evenodd" clip-rule="evenodd" d="M97.7711 23.6633C101.663 23.7674 104.767 25.8102 104.703 28.2275C104.638 30.6448 101.431 32.5213 97.5384 32.4173C93.6468 32.3143 90.5429 30.2703 90.6072 27.8531C90.6706 25.4368 93.8796 23.5603 97.7711 23.6633Z" fill="#808285"/>
<path id="Vector_20" fill-rule="evenodd" clip-rule="evenodd" d="M125.829 72.3833C124.514 72.4455 123.415 71.835 123.376 71.0185C123.337 70.201 124.372 69.4885 125.686 69.4253C127.002 69.362 128.1 69.9735 128.139 70.79C128.178 71.6065 127.143 72.32 125.829 72.3833Z" fill="#808285"/>
<path id="Vector_21" fill-rule="evenodd" clip-rule="evenodd" d="M125.815 72.0576C124.776 72.108 123.908 71.6252 123.876 70.9793C123.846 70.3345 124.663 69.7701 125.702 69.7208C126.742 69.6714 127.609 70.1543 127.641 70.799C127.671 71.4439 126.854 72.0083 125.815 72.0576Z" fill="#A7A9AC"/>
<path id="Vector_22" fill-rule="evenodd" clip-rule="evenodd" d="M125.814 71.8919C124.775 71.9412 123.908 71.4584 123.876 70.8136C123.845 70.1677 124.663 69.6044 125.701 69.554C126.741 69.5046 127.609 69.9874 127.64 70.6322C127.671 71.2782 126.854 71.8414 125.814 71.8919Z" fill="#D1D3D4"/>
<path id="Vector_23" d="M126.483 71.3158L126.337 71.2728L124.89 70.3448C124.764 70.2632 124.727 70.0969 124.808 69.9703C124.889 69.8459 125.056 69.8094 125.181 69.8898L126.629 70.8179C126.755 70.8995 126.791 71.0658 126.711 71.1923L126.483 71.3158Z" fill="#6D6E71"/>
<path id="Vector_24" d="M124.999 71.2675L124.761 71.1269C124.69 70.9961 124.738 70.8319 124.869 70.76L126.377 69.936C126.51 69.8641 126.675 69.9124 126.744 70.0444C126.816 70.1753 126.769 70.3394 126.637 70.4113L125.128 71.2353L124.999 71.2675Z" fill="#6D6E71"/>
<path id="Vector_25" fill-rule="evenodd" clip-rule="evenodd" d="M78.9923 100.908C77.6759 100.97 76.5783 100.36 76.5397 99.5431C76.5 98.7255 77.5343 98.0131 78.8497 97.9498C80.1651 97.8865 81.2627 98.4981 81.3024 99.3146C81.341 100.131 80.3068 100.845 78.9923 100.908Z" fill="#808285"/>
<path id="Vector_26" fill-rule="evenodd" clip-rule="evenodd" d="M78.96 100.601C77.9204 100.651 77.0524 100.168 77.0213 99.5225C76.9902 98.8777 77.8077 98.3133 78.8474 98.264C79.8871 98.2136 80.754 98.6974 80.7851 99.3423C80.8162 99.9871 79.9987 100.551 78.96 100.601Z" fill="#A7A9AC"/>
<path id="Vector_27" fill-rule="evenodd" clip-rule="evenodd" d="M78.9589 100.435C77.9193 100.484 77.0524 100.002 77.0213 99.3567C76.9902 98.7108 77.8077 98.1475 78.8463 98.0971C79.886 98.0478 80.754 98.5305 80.7851 99.1754C80.8162 99.8213 79.9986 100.385 78.9589 100.435Z" fill="#D1D3D4"/>
<path id="Vector_28" d="M79.6287 99.8594L79.4828 99.8164L78.0355 98.8873C77.9088 98.8069 77.8724 98.6394 77.9528 98.5139C78.0344 98.3884 78.2018 98.353 78.3262 98.4324L79.7746 99.3615C79.9002 99.442 79.9366 99.6094 79.8562 99.7349L79.6287 99.8594Z" fill="#6D6E71"/>
<path id="Vector_29" d="M78.162 99.8115L77.9249 99.67C77.8531 99.539 77.9013 99.3749 78.0322 99.3041L79.5407 98.4791C79.6738 98.4071 79.8357 98.4554 79.9076 98.5874C79.9796 98.7182 79.9313 98.8814 79.8003 98.9532L78.2919 99.7783L78.162 99.8115Z" fill="#6D6E71"/>
<path id="Vector_30" fill-rule="evenodd" clip-rule="evenodd" d="M148.052 46.5463C146.736 46.6096 145.638 45.9979 145.599 45.1815C145.56 44.365 146.595 43.6515 147.909 43.5883C149.224 43.5249 150.323 44.1364 150.362 44.9529C150.401 45.7705 149.366 46.4829 148.052 46.5463Z" fill="#808285"/>
<path id="Vector_31" fill-rule="evenodd" clip-rule="evenodd" d="M148.038 46.2402C146.998 46.2895 146.131 45.8078 146.099 45.1619C146.069 44.516 146.887 43.9528 147.925 43.9023C148.965 43.8529 149.833 44.3358 149.864 44.9817C149.895 45.6265 149.077 46.1898 148.038 46.2402Z" fill="#A7A9AC"/>
<path id="Vector_32" fill-rule="evenodd" clip-rule="evenodd" d="M148.037 46.0549C146.998 46.1053 146.13 45.6225 146.099 44.9766C146.068 44.3307 146.887 43.7674 147.925 43.717C148.965 43.6676 149.833 44.1505 149.863 44.7963C149.894 45.4422 149.077 46.0055 148.037 46.0549Z" fill="#D1D3D4"/>
<path id="Vector_33" d="M148.706 45.4982L148.56 45.4543L147.112 44.5262C146.987 44.4458 146.95 44.2783 147.031 44.1528C147.111 44.0273 147.28 43.9908 147.404 44.0713L148.852 45.0004C148.977 45.0809 149.014 45.2483 148.933 45.3738L148.706 45.4982Z" fill="#6D6E71"/>
<path id="Vector_34" d="M147.24 45.4493L147.003 45.3087C146.931 45.1779 146.979 45.0137 147.11 44.9418L148.62 44.1168C148.753 44.046 148.916 44.0942 148.987 44.2251C149.059 44.356 149.01 44.5202 148.879 44.592L147.37 45.4161L147.24 45.4493Z" fill="#6D6E71"/>
<path id="Vector_35" fill-rule="evenodd" clip-rule="evenodd" d="M53.0719 62.3045L78.749 47.8555C79.8026 47.2633 80.8102 46.9457 82.0118 46.8277L109.993 44.0735C111.75 43.9008 113.305 44.2237 114.847 45.081L128.962 52.9251C129.883 53.4368 130.41 54.3478 130.411 55.4013C130.413 56.456 129.887 57.3627 128.969 57.8831L87.3753 81.4926C85.9999 82.2727 84.4387 82.2759 83.0611 81.4991L53.0751 64.592C52.6514 64.3538 52.4078 63.9365 52.4067 63.4494C52.4056 62.9633 52.647 62.5427 53.0719 62.3045Z" fill="#E6E7E8"/>
<path id="Vector_36" fill-rule="evenodd" clip-rule="evenodd" d="M59.5405 58.6708L94.1175 77.6722L87.3753 81.4993C85.9999 82.2793 84.4387 82.2825 83.0611 81.5057L53.0751 64.5987C52.6514 64.3605 52.4078 63.9432 52.4067 63.456C52.4056 62.97 52.647 62.5494 53.0719 62.3112L59.5405 58.6708Z" fill="#90C440"/>
<path id="Vector_37" fill-rule="evenodd" clip-rule="evenodd" d="M123.687 60.8894L95.6661 45.4854L110.006 44.0735C111.762 43.9008 113.317 44.2237 114.86 45.081L128.974 52.9251C129.896 53.4368 130.422 54.3478 130.423 55.4013C130.426 56.456 129.899 57.3627 128.981 57.8831L123.687 60.8894Z" fill="#90C440"/>
<path id="Vector_38" fill-rule="evenodd" clip-rule="evenodd" d="M61.7982 114.446V119.628L51.202 113.64V108.491L61.7982 114.446Z" fill="#414042"/>
<path id="Vector_39" d="M54.9635 114.07V114.722L54.691 114.883C54.5579 114.962 54.3851 114.918 54.3068 114.785C54.2275 114.652 54.2725 114.479 54.4056 114.399L54.9635 114.07ZM54.9635 111.213V111.864L52.1438 113.527C52.0108 113.607 51.8392 113.563 51.7597 113.428C51.6814 113.295 51.7254 113.123 51.8585 113.044L54.9635 111.213ZM54.9635 111.864V111.213L55.2382 111.051C55.3712 110.973 55.5429 111.017 55.6223 111.15C55.7006 111.283 55.6566 111.455 55.5235 111.534L54.9635 111.864ZM57.5106 115.426V116.077L57.237 116.238C57.104 116.317 56.9323 116.273 56.8529 116.14C56.7746 116.007 56.8186 115.834 56.9516 115.756L57.5106 115.426ZM57.5106 112.568V113.22L54.9635 114.722V114.07L57.5106 112.568ZM57.5106 113.22V112.568L57.7842 112.407C57.9172 112.328 58.0899 112.373 58.1683 112.506C58.2477 112.639 58.2026 112.81 58.0696 112.89L57.5106 113.22ZM60.0566 113.924V114.575L57.5106 116.077V115.426L60.0566 113.924ZM59.7842 117.595C59.651 117.673 59.4783 117.629 59.4 117.496C59.3217 117.363 59.3657 117.19 59.4987 117.111L60.0566 116.781V117.434L59.7842 117.595ZM60.0566 114.575V113.924L60.3312 113.762C60.4643 113.684 60.6371 113.728 60.7154 113.861C60.7948 113.994 60.7497 114.167 60.6167 114.245L60.0566 114.575ZM60.0566 116.781L61.7819 115.764V116.415L60.0566 117.434V116.781Z" fill="#81806F"/>
<path id="Vector_40" d="M58.6412 112.673L59.2066 112.992L57.5157 113.989C57.3826 114.068 57.21 114.024 57.1316 113.891C57.0533 113.758 57.0972 113.585 57.2304 113.506L58.6412 112.673ZM56.1638 111.277L56.7281 111.596L54.9686 112.633C54.8355 112.712 54.6639 112.668 54.5845 112.535C54.5062 112.402 54.5502 112.229 54.6832 112.151L56.1638 111.277ZM53.6843 109.881L54.2498 110.2L52.4226 111.278C52.2895 111.357 52.1168 111.313 52.0385 111.18C51.9591 111.047 52.0031 110.874 52.1371 110.795L53.6843 109.881ZM60.0628 115.345C59.9298 115.423 59.757 115.379 59.6776 115.246C59.5993 115.113 59.6433 114.94 59.7763 114.862L61.1197 114.069L61.6851 114.388L60.0628 115.345Z" fill="#81806F"/>
<path id="Vector_41" fill-rule="evenodd" clip-rule="evenodd" d="M50.4504 108.119V113.301L44.4925 109.935V104.785L50.4504 108.119Z" fill="#414042"/>
</g>
<path id="Disco Duro" d="M45.1639 144.8H50.2519C51.4679 144.8 52.5399 145.035 53.4679 145.504C54.4066 145.963 55.1319 146.613 55.6439 147.456C56.1666 148.299 56.4279 149.28 56.4279 150.4C56.4279 151.52 56.1666 152.501 55.6439 153.344C55.1319 154.187 54.4066 154.843 53.4679 155.312C52.5399 155.771 51.4679 156 50.2519 156H45.1639V144.8ZM50.1239 153.872C51.2439 153.872 52.1346 153.563 52.7959 152.944C53.4679 152.315 53.8039 151.467 53.8039 150.4C53.8039 149.333 53.4679 148.491 52.7959 147.872C52.1346 147.243 51.2439 146.928 50.1239 146.928H47.7559V153.872H50.1239ZM58.2067 147.392H60.7027V156H58.2067V147.392ZM59.4547 146.192C58.996 146.192 58.6227 146.059 58.3347 145.792C58.0467 145.525 57.9027 145.195 57.9027 144.8C57.9027 144.405 58.0467 144.075 58.3347 143.808C58.6227 143.541 58.996 143.408 59.4547 143.408C59.9134 143.408 60.2867 143.536 60.5747 143.792C60.8627 144.048 61.0067 144.368 61.0067 144.752C61.0067 145.168 60.8627 145.515 60.5747 145.792C60.2867 146.059 59.9134 146.192 59.4547 146.192ZM65.9152 156.128C65.2005 156.128 64.5019 156.043 63.8192 155.872C63.1365 155.691 62.5925 155.467 62.1872 155.2L63.0192 153.408C63.4032 153.653 63.8672 153.856 64.4112 154.016C64.9552 154.165 65.4885 154.24 66.0112 154.24C67.0672 154.24 67.5952 153.979 67.5952 153.456C67.5952 153.211 67.4512 153.035 67.1632 152.928C66.8752 152.821 66.4325 152.731 65.8352 152.656C65.1312 152.549 64.5499 152.427 64.0912 152.288C63.6325 152.149 63.2325 151.904 62.8912 151.552C62.5605 151.2 62.3952 150.699 62.3952 150.048C62.3952 149.504 62.5499 149.024 62.8592 148.608C63.1792 148.181 63.6379 147.851 64.2352 147.616C64.8432 147.381 65.5579 147.264 66.3792 147.264C66.9872 147.264 67.5899 147.333 68.1872 147.472C68.7952 147.6 69.2965 147.781 69.6912 148.016L68.8592 149.792C68.1019 149.365 67.2752 149.152 66.3792 149.152C65.8459 149.152 65.4459 149.227 65.1792 149.376C64.9125 149.525 64.7792 149.717 64.7792 149.952C64.7792 150.219 64.9232 150.405 65.2112 150.512C65.4992 150.619 65.9579 150.72 66.5872 150.816C67.2912 150.933 67.8672 151.061 68.3152 151.2C68.7632 151.328 69.1525 151.568 69.4832 151.92C69.8139 152.272 69.9792 152.763 69.9792 153.392C69.9792 153.925 69.8192 154.4 69.4992 154.816C69.1792 155.232 68.7099 155.557 68.0912 155.792C67.4832 156.016 66.7579 156.128 65.9152 156.128ZM75.6792 156.128C74.7619 156.128 73.9352 155.941 73.1992 155.568C72.4739 155.184 71.9032 154.656 71.4872 153.984C71.0819 153.312 70.8792 152.549 70.8792 151.696C70.8792 150.843 71.0819 150.08 71.4872 149.408C71.9032 148.736 72.4739 148.213 73.1992 147.84C73.9352 147.456 74.7619 147.264 75.6792 147.264C76.5859 147.264 77.3752 147.456 78.0472 147.84C78.7299 148.213 79.2259 148.752 79.5352 149.456L77.5992 150.496C77.1512 149.707 76.5059 149.312 75.6632 149.312C75.0125 149.312 74.4739 149.525 74.0472 149.952C73.6205 150.379 73.4072 150.96 73.4072 151.696C73.4072 152.432 73.6205 153.013 74.0472 153.44C74.4739 153.867 75.0125 154.08 75.6632 154.08C76.5165 154.08 77.1619 153.685 77.5992 152.896L79.5352 153.952C79.2259 154.635 78.7299 155.168 78.0472 155.552C77.3752 155.936 76.5859 156.128 75.6792 156.128ZM84.9589 156.128C84.0523 156.128 83.2363 155.941 82.5109 155.568C81.7963 155.184 81.2363 154.656 80.8309 153.984C80.4256 153.312 80.2229 152.549 80.2229 151.696C80.2229 150.843 80.4256 150.08 80.8309 149.408C81.2363 148.736 81.7963 148.213 82.5109 147.84C83.2363 147.456 84.0523 147.264 84.9589 147.264C85.8656 147.264 86.6763 147.456 87.3909 147.84C88.1056 148.213 88.6656 148.736 89.0709 149.408C89.4763 150.08 89.6789 150.843 89.6789 151.696C89.6789 152.549 89.4763 153.312 89.0709 153.984C88.6656 154.656 88.1056 155.184 87.3909 155.568C86.6763 155.941 85.8656 156.128 84.9589 156.128ZM84.9589 154.08C85.5989 154.08 86.1216 153.867 86.5269 153.44C86.9429 153.003 87.1509 152.421 87.1509 151.696C87.1509 150.971 86.9429 150.395 86.5269 149.968C86.1216 149.531 85.5989 149.312 84.9589 149.312C84.3189 149.312 83.7909 149.531 83.3749 149.968C82.9589 150.395 82.7509 150.971 82.7509 151.696C82.7509 152.421 82.9589 153.003 83.3749 153.44C83.7909 153.867 84.3189 154.08 84.9589 154.08ZM96.0546 144.8H101.143C102.359 144.8 103.431 145.035 104.359 145.504C105.297 145.963 106.023 146.613 106.535 147.456C107.057 148.299 107.319 149.28 107.319 150.4C107.319 151.52 107.057 152.501 106.535 153.344C106.023 154.187 105.297 154.843 104.359 155.312C103.431 155.771 102.359 156 101.143 156H96.0546V144.8ZM101.015 153.872C102.135 153.872 103.025 153.563 103.687 152.944C104.359 152.315 104.695 151.467 104.695 150.4C104.695 149.333 104.359 148.491 103.687 147.872C103.025 147.243 102.135 146.928 101.015 146.928H98.6466V153.872H101.015ZM117.769 147.392V156H115.401V154.976C115.071 155.349 114.676 155.637 114.217 155.84C113.759 156.032 113.263 156.128 112.729 156.128C111.599 156.128 110.703 155.803 110.041 155.152C109.38 154.501 109.049 153.536 109.049 152.256V147.392H111.545V151.888C111.545 153.275 112.127 153.968 113.289 153.968C113.887 153.968 114.367 153.776 114.729 153.392C115.092 152.997 115.273 152.416 115.273 151.648V147.392H117.769ZM122.466 148.528C122.764 148.112 123.164 147.797 123.666 147.584C124.178 147.371 124.764 147.264 125.426 147.264V149.568C125.148 149.547 124.962 149.536 124.866 149.536C124.151 149.536 123.591 149.739 123.186 150.144C122.78 150.539 122.578 151.136 122.578 151.936V156H120.082V147.392H122.466V148.528ZM130.928 156.128C130.021 156.128 129.205 155.941 128.48 155.568C127.765 155.184 127.205 154.656 126.8 153.984C126.394 153.312 126.192 152.549 126.192 151.696C126.192 150.843 126.394 150.08 126.8 149.408C127.205 148.736 127.765 148.213 128.48 147.84C129.205 147.456 130.021 147.264 130.928 147.264C131.834 147.264 132.645 147.456 133.36 147.84C134.074 148.213 134.634 148.736 135.04 149.408C135.445 150.08 135.648 150.843 135.648 151.696C135.648 152.549 135.445 153.312 135.04 153.984C134.634 154.656 134.074 155.184 133.36 155.568C132.645 155.941 131.834 156.128 130.928 156.128ZM130.928 154.08C131.568 154.08 132.09 153.867 132.496 153.44C132.912 153.003 133.12 152.421 133.12 151.696C133.12 150.971 132.912 150.395 132.496 149.968C132.09 149.531 131.568 149.312 130.928 149.312C130.288 149.312 129.76 149.531 129.344 149.968C128.928 150.395 128.72 150.971 128.72 151.696C128.72 152.421 128.928 153.003 129.344 153.44C129.76 153.867 130.288 154.08 130.928 154.08Z" fill="#333333"/>
</g>
<defs>
<filter id="filter0_d" x="0" y="0" width="180" height="184" filterUnits="userSpaceOnUse" color-interpolation-filters="sRGB">
<feFlood flood-opacity="0" result="BackgroundImageFix"/>
<feColorMatrix in="SourceAlpha" type="matrix" values="0 0 0 0 0 0 0 0 0 0 0 0 0 0 0 0 0 0 127 0" result="hardAlpha"/>
<feOffset dy="4"/>
<feColorMatrix type="matrix" values="0 0 0 0 0 0 0 0 0 0 0 0 0 0 0 0 0 0 0.25 0"/>
<feBlend mode="normal" in2="BackgroundImageFix" result="effect1_dropShadow"/>
<feBlend mode="normal" in="SourceGraphic" in2="effect1_dropShadow" result="shape"/>
</filter>
<linearGradient id="paint0_linear" x1="118.205" y1="-5.84552" x2="62.2569" y2="125.96" gradientUnits="userSpaceOnUse">
<stop stop-color="#D1D3D4"/>
<stop offset="0.7" stop-color="#E5E6E7"/>
<stop offset="0.8" stop-color="#F9F9F9"/>
<stop offset="1" stop-color="white"/>
</linearGradient>
<linearGradient id="paint1_linear" x1="64.6327" y1="112.345" x2="109.721" y2="15.6531" gradientUnits="userSpaceOnUse">
<stop stop-color="white"/>
<stop offset="0.1" stop-color="white"/>
<stop offset="1" stop-color="#BCBDBF"/>
</linearGradient>
</defs>
</svg>
