<svg width="180" height="184" viewBox="0 0 180 184" fill="none" xmlns="http://www.w3.org/2000/svg">
<g filter="url(#filter0_d_8_399)">
<rect width="180" height="180" rx="20" fill="#00D8CC"/>
<path fill-rule="evenodd" clip-rule="evenodd" d="M15.2565 89.5831L116.967 31.4773C118.629 30.5271 120.517 30.5349 122.186 31.4734L171.065 58.9699C171.659 59.3044 172 59.8929 172 60.576C172.001 61.2576 171.661 61.8445 171.068 62.1821L133.681 83.5662C133.257 83.8084 133.015 84.2284 133.016 84.7166C133.018 85.2042 133.264 85.6226 133.688 85.8617L136.418 87.3972C137.013 87.731 137.353 88.3194 137.353 89.0025C137.354 89.6841 137.014 90.2709 136.421 90.6086L97.0715 112.904C95.8163 113.615 94.3887 113.609 93.1389 112.887L89.8739 111.001C87.1747 109.441 85.4188 111.105 87.5489 112.336L90.7627 114.193C91.1842 114.436 91.4249 114.855 91.4226 115.342C91.421 115.827 91.1765 116.244 90.7534 116.483L85.4599 119.483C83.7941 120.427 81.9023 120.434 80.2364 119.487L76.1734 117.198C75.7573 116.964 75.2853 116.965 74.8707 117.203L69.384 120.341C67.7213 121.292 65.8264 121.292 64.1605 120.345L15.2582 92.7954C14.6635 92.4601 14.3236 91.8724 14.3228 91.19C14.3228 90.5077 14.6627 89.9208 15.2566 89.5831H15.2565Z" fill="#0D3A4E"/>
<path fill-rule="evenodd" clip-rule="evenodd" d="M90.5494 114.064V116.585L85.4524 119.473C83.7865 120.417 81.8947 120.424 80.2288 119.477L77.4194 117.895L77.4202 116.543L87.22 112.115C87.3155 112.186 87.4226 112.257 87.5413 112.326L90.5494 114.064V114.064ZM90.5494 111.385L89.8663 110.991L89.6831 110.89V109.538L90.5494 109.098V111.385V111.385ZM90.5494 116.585V114.064L90.7551 114.183C91.1766 114.426 91.4173 114.845 91.415 115.332C91.4134 115.817 91.1689 116.234 90.7458 116.473L90.5494 116.585ZM134.922 86.5503L136.41 87.3871C137.005 87.7209 137.345 88.3094 137.346 88.9925C137.346 89.6741 137.006 90.2609 136.413 90.5986L97.0639 112.894C95.8087 113.605 94.3811 113.599 93.1313 112.877L90.5494 111.385V109.098L134.922 86.5503V86.5503Z" fill="#6A603B"/>
<path fill-rule="evenodd" clip-rule="evenodd" d="M14.8466 87.9852L116.557 29.8794C118.219 28.9292 120.107 28.937 121.776 29.8755L170.655 57.3727C171.249 57.7066 171.59 58.295 171.59 58.9774C171.591 59.6597 171.251 60.2458 170.659 60.5842L133.272 81.9683C132.848 82.2105 132.605 82.6305 132.607 83.1188C132.609 83.607 132.854 84.0247 133.279 84.2646L136.008 85.7993C136.603 86.1331 136.943 86.7215 136.943 87.4046C136.944 88.0862 136.604 88.673 136.012 89.0107L96.6623 111.306C95.4064 112.017 93.9788 112.011 92.7289 111.289L89.4647 109.403C86.7649 107.842 85.0089 109.507 87.139 110.738L90.3535 112.595C90.7743 112.839 91.015 113.257 91.0126 113.743C91.0111 114.23 90.7666 114.646 90.3435 114.886L85.0508 117.885C83.3841 118.829 81.4924 118.836 79.8265 117.89L75.7642 115.6C75.3473 115.366 74.8754 115.368 74.4609 115.605L68.9741 118.743C67.3114 119.694 65.4165 119.694 63.7506 118.748L14.8491 91.1975C14.2536 90.8622 13.9136 90.2745 13.9128 89.5921C13.9128 88.909 14.2536 88.3229 14.8466 87.9852H14.8466Z" fill="#397184"/>
<path fill-rule="evenodd" clip-rule="evenodd" d="M90.3351 112.602V114.878L90.318 114.888L85.0254 117.887C83.3587 118.831 81.4669 118.838 79.801 117.892L77.4194 116.55L87.3511 110.877L90.3281 112.597L90.3351 112.602ZM90.3351 109.923L89.6823 109.545L90.3351 109.173V109.923ZM90.3351 114.878V112.602C90.752 112.845 90.9895 113.261 90.9872 113.745C90.9857 114.225 90.7481 114.638 90.3351 114.878V114.878ZM133.599 84.4607L135.982 85.8013C136.577 86.1351 136.918 86.7235 136.918 87.4067C136.919 88.0882 136.579 88.6751 135.986 89.0128L96.6369 111.308C95.3809 112.019 93.9534 112.013 92.7035 111.291L90.3351 109.923V109.173L133.599 84.4607Z" fill="#D6CC70"/>
<path fill-rule="evenodd" clip-rule="evenodd" d="M23.8085 79.0237L26.7319 77.3578V75.5638H29.8813L79.7455 47.156H99.2284L58.8411 119.798L17.7644 96.3354V79.0237H23.8085V79.0237Z" fill="#58595B"/>
<path d="M17.6824 79.0035L124.513 18.3538L136.933 16.5295L167.431 33.7249L165.702 41.5629L58.8507 102.214L17.6824 79.0035V79.0035Z" fill="#828282"/>
<path fill-rule="evenodd" clip-rule="evenodd" d="M24.0948 82.68L23.9512 80.813L61.3692 61.4907L64.5543 55.2945L84.0994 44.1829L95.4191 42.2135L101.743 38.6231L105.057 32.2484L125.556 20.6974L136.18 19.1371L138.879 17.6357L164.754 30.4389L164.897 32.3059L162.267 33.846L160.788 40.5499L139.626 52.5147L127.688 53.2699L121.012 57.0597L119.238 64.1378L99.788 75.1555L86.908 76.3137L49.6311 97.4828L24.0948 82.68V82.68Z" fill="#414042"/>
<path fill-rule="evenodd" clip-rule="evenodd" d="M24.0956 82.6843L23.9512 80.8174L38.001 73.5623H49.5932V97.4653L24.0956 82.6843V82.6843Z" fill="#58595B"/>
<path fill-rule="evenodd" clip-rule="evenodd" d="M165.634 41.5222V59.8811L58.8184 119.788V102.204L165.634 41.5222Z" fill="#414042"/>
<path d="M23.9512 80.8149L61.2256 59.6265L64.4107 53.4294L83.9558 42.3178L95.2754 40.3484L101.599 36.7582L104.914 30.3841L125.412 18.8324L136.036 17.2728L138.736 15.7715L164.754 30.4408L162.125 31.9809L160.644 38.6856L139.483 50.6496L127.544 51.4049L120.869 55.1947L119.095 62.2728L99.6451 73.2913L86.7643 74.4487L49.4875 95.6178L23.9512 80.8149V80.8149Z" fill="#4F4F4F"/>
<path fill-rule="evenodd" clip-rule="evenodd" d="M167.397 33.7173L165.632 41.5553V59.8832L167.278 51.9404L167.397 33.7173V33.7173Z" fill="#58595B"/>
<path fill-rule="evenodd" clip-rule="evenodd" d="M90.9263 46.2861C101.6 46.5694 110.115 52.1749 109.939 58.8043C109.763 65.4337 100.963 70.5797 90.2889 70.2963C79.6143 70.013 71.1002 64.4067 71.2764 57.7773C71.4518 51.1487 80.2516 46.0028 90.9263 46.2861V46.2861Z" fill="#414042"/>
<path fill-rule="evenodd" clip-rule="evenodd" d="M90.8945 47.1663C100.773 47.4287 108.653 52.6158 108.49 58.7499C108.327 64.8856 100.183 69.6473 90.3053 69.3849C80.4265 69.1225 72.5472 63.9354 72.7102 57.8006C72.8732 51.6656 81.0164 46.904 90.8945 47.1663V47.1663Z" fill="#414042"/>
<path d="M104.224 51.2615C102.985 52.1418 101.489 53.0764 99.8624 54.0242C97.844 55.2003 95.5959 56.4137 93.3859 57.5718C95.8428 57.5967 98.3649 57.5959 100.689 57.5168C103.841 57.4096 106.602 57.1643 108.268 56.6737C108.423 57.2458 108.512 57.8311 108.523 58.4266C106.677 58.9187 103.881 59.1663 100.743 59.2727C98.4301 59.3511 95.9212 59.3534 93.4736 59.3277C95.2024 60.2314 96.9272 61.0938 98.5924 61.8864L98.6226 61.9019C101.077 63.0694 103.38 64.0731 105.343 64.8401C104.844 65.2787 104.295 65.6917 103.699 66.0783C101.938 65.361 99.9648 64.4877 97.889 63.501L97.8355 63.477C95.8397 62.5276 93.7321 61.4625 91.6082 60.3284C92.5032 62.5105 93.4371 64.6453 94.3608 66.6357C94.7475 67.4679 95.1333 68.2721 95.5121 69.0468C94.9097 69.1438 94.2941 69.2191 93.6685 69.2758C93.3688 68.6571 93.0652 68.0229 92.7633 67.3723C91.772 65.2384 90.7729 62.9382 89.8189 60.5907C88.7507 62.8753 87.7555 65.1475 86.8799 67.2869L86.8791 67.2892L86.8799 67.2909C86.6478 67.8591 86.425 68.4187 86.2076 68.9691C85.613 68.8659 85.0308 68.744 84.4626 68.6051C84.7164 67.9561 84.9788 67.2962 85.2551 66.6217L85.2567 66.6225C86.0819 64.6041 87.001 62.495 87.9729 60.3921C85.9514 61.4758 83.9767 62.5951 82.1361 63.6897C80.7543 64.511 79.4494 65.3175 78.2554 66.0907C77.6988 65.7507 77.1765 65.3889 76.6936 65.0086C78.0699 64.1034 79.6038 63.1478 81.2402 62.1751C82.8673 61.2071 84.6054 60.219 86.3924 59.2486C84.3966 59.2571 82.4303 59.3045 80.5618 59.3844C77.7477 59.5047 75.162 59.6996 73.0249 59.9511C72.8626 59.3836 72.7695 58.8046 72.7485 58.2154C74.9547 57.9538 77.6127 57.752 80.4927 57.6285C82.3868 57.5486 84.3865 57.4997 86.4196 57.4919C84.2608 56.3197 82.0251 55.1444 79.9299 54.1251C78.3113 53.3388 76.7852 52.6471 75.4562 52.1371C75.9173 51.6853 76.4312 51.26 76.9924 50.8586C78.1445 51.3344 79.3927 51.9089 80.6945 52.5416C83.1033 53.713 85.7085 55.097 88.1739 56.4462C87.1493 53.8659 86.0408 51.1707 84.9431 48.7502C84.7855 48.4048 84.6302 48.0663 84.475 47.7333C85.0603 47.6091 85.6588 47.5051 86.2705 47.4197L86.5476 48.0268C87.7113 50.5908 88.8897 53.4684 89.9702 56.1979C91.2201 53.5872 92.5149 50.8027 93.6001 48.217C93.7158 47.9421 93.8299 47.6719 93.9402 47.4019C94.544 47.4818 95.1387 47.5796 95.7194 47.696C95.561 48.0912 95.3949 48.4925 95.2248 48.8986C94.2141 51.3057 93.0063 53.9187 91.8186 56.409C94.2227 55.1569 96.7231 53.8186 98.982 52.5027C100.327 51.7187 101.576 50.9486 102.64 50.2252C103.202 50.5504 103.731 50.8959 104.224 51.2615V51.2615Z" fill="#808285"/>
<path fill-rule="evenodd" clip-rule="evenodd" d="M90.7617 52.5286C95.8727 52.6636 99.9482 55.348 99.8652 58.5214C99.7805 61.6956 95.5677 64.1595 90.4567 64.0236C85.3457 63.8878 81.2694 61.2043 81.3541 58.0301C81.4379 54.8566 85.6507 52.3927 90.7617 52.5286Z" fill="#5E8228"/>
<path fill-rule="evenodd" clip-rule="evenodd" d="M130.014 23.1371C140.689 23.4205 149.203 29.026 149.027 35.6547C148.851 42.2841 140.052 47.43 129.376 47.1467C118.702 46.8633 110.188 41.2578 110.364 34.6284C110.54 27.9997 119.34 22.8538 130.014 23.1371V23.1371Z" fill="#414042"/>
<path fill-rule="evenodd" clip-rule="evenodd" d="M129.981 24.0172C139.86 24.2795 147.739 29.4667 147.576 35.6016C147.414 41.7365 139.27 46.4981 129.392 46.2358C119.513 45.9734 111.634 40.7864 111.797 34.6514C111.96 28.5172 120.103 23.7548 129.981 24.0172V24.0172Z" fill="#414042"/>
<path d="M143.27 28.1326C142.032 29.0121 140.535 29.9475 138.908 30.8953C136.89 32.0714 134.642 33.2848 132.432 34.4422C134.889 34.4678 137.41 34.4663 139.735 34.387C142.887 34.2799 145.648 34.0347 147.313 33.5448C147.469 34.1161 147.557 34.7014 147.569 35.2969C145.723 35.789 142.927 36.0367 139.79 36.143C137.476 36.2214 134.967 36.2237 132.519 36.1981C134.248 37.1025 135.973 37.9649 137.638 38.7567L137.669 38.773C140.124 39.9398 142.427 40.9443 144.389 41.7112C143.89 42.1498 143.34 42.562 142.744 42.9486C140.983 42.2321 139.01 41.358 136.935 40.3721L136.881 40.3473C134.886 39.3979 132.778 38.3328 130.654 37.1988C131.549 39.3816 132.483 41.5156 133.407 43.5068C133.794 44.339 134.179 45.1424 134.558 45.9179C133.956 46.0142 133.34 46.0902 132.714 46.1461C132.415 45.5274 132.111 44.894 131.809 44.2426C130.818 42.1087 129.819 39.8086 128.864 37.4611C127.797 39.7457 126.801 42.0179 125.926 44.1573L125.924 44.1604L125.926 44.1611C125.693 44.7302 125.47 45.2891 125.253 45.8402C124.658 45.7362 124.077 45.6144 123.509 45.4754C123.763 44.8264 124.025 44.1666 124.301 43.4928L124.303 43.4936C125.128 41.4752 126.046 39.3653 127.018 37.2624C124.997 38.3469 123.023 39.4662 121.181 40.5608C119.8 41.3821 118.496 42.1886 117.301 42.961C116.745 42.6218 116.223 42.26 115.74 41.8789C117.115 40.9746 118.65 40.0189 120.286 39.0455C121.913 38.0782 123.651 37.0892 125.438 36.119C123.442 36.1275 121.476 36.1756 119.608 36.2555C116.794 36.3751 114.208 36.5707 112.07 36.8215C111.908 36.2548 111.816 35.6749 111.795 35.0865C114.001 34.8241 116.659 34.6223 119.539 34.4996C121.433 34.4188 123.433 34.37 125.466 34.3622C123.307 33.1908 121.07 32.0148 118.976 30.9963C117.357 30.2092 115.831 29.5182 114.502 29.0074C114.963 28.5565 115.477 28.1302 116.038 27.7289C117.19 28.2048 118.439 28.7792 119.74 29.4119C122.149 30.5833 124.754 31.9681 127.22 33.3166C126.195 30.737 125.087 28.0417 123.988 25.6213C123.832 25.2759 123.676 24.9375 123.52 24.6044C124.106 24.4802 124.704 24.3762 125.317 24.2908L125.594 24.8978C126.757 27.4619 127.936 30.3395 129.016 33.069C130.265 30.4583 131.56 27.673 132.646 25.0881C132.761 24.8132 132.875 24.5423 132.985 24.2729C133.589 24.3521 134.184 24.4508 134.765 24.5671C134.607 24.9615 134.441 25.3628 134.27 25.7688C133.26 28.1769 132.052 30.7898 130.864 33.2793C133.268 32.028 135.768 30.6897 138.027 29.3731C139.373 28.589 140.622 27.819 141.687 27.0955C142.248 27.4207 142.777 27.767 143.27 28.1326V28.1326Z" fill="#808285"/>
<path fill-rule="evenodd" clip-rule="evenodd" d="M129.849 29.3796C134.961 29.5156 139.037 32.1991 138.952 35.3733C138.868 38.5475 134.655 41.0106 129.544 40.8748C124.433 40.7397 120.357 38.0553 120.441 34.8819C120.526 31.7077 124.738 29.2438 129.849 29.3796Z" fill="#5E8228"/>
<path d="M65.3865 106.146V123.729L64.5862 124.15L14.2307 94.2367L8.47536 97.4683L7.93115 97.1741V79.8833C9.83774 78.7771 11.721 77.6197 13.6726 76.5942L65.3865 106.146V106.146Z" fill="url(#paint0_linear_8_399)"/>
<path fill-rule="evenodd" clip-rule="evenodd" d="M65.4048 106.176V123.73L64.6045 124.15L61.1943 122.125V108.242L65.4048 106.176V106.176Z" fill="#D1D3D4"/>
<path fill-rule="evenodd" clip-rule="evenodd" d="M9.86254 96.6853L8.47536 97.464L7.93115 97.1697V79.9131L9.86254 81.017V96.6853V96.6853Z" fill="#A7A9AC"/>
<path fill-rule="evenodd" clip-rule="evenodd" d="M64.5772 106.572V124.156L13.4214 94.664V77.3523L64.5772 106.572V106.572Z" fill="#A7A9AC"/>
<path fill-rule="evenodd" clip-rule="evenodd" d="M8.46387 80.1841V97.4741L13.4196 94.664V77.3523L8.46387 80.1841Z" fill="#828487"/>
<path fill-rule="evenodd" clip-rule="evenodd" d="M66.4744 66.0426L32.0923 85.5225L29.8101 84.1997L64.2891 64.8354L66.4744 66.0426V66.0426Z" fill="#90C440"/>
<path fill-rule="evenodd" clip-rule="evenodd" d="M70.6538 68.1729L36.0264 87.7918L33.7434 86.4682L68.4686 66.9658L70.6538 68.1729Z" fill="#90C440"/>
<path fill-rule="evenodd" clip-rule="evenodd" d="M74.793 70.3036L39.9203 90.0614L37.6357 88.737L72.6078 69.0964L74.793 70.3036V70.3036Z" fill="#90C440"/>
<path fill-rule="evenodd" clip-rule="evenodd" d="M78.9714 72.4342L43.8542 92.3309L41.5688 91.0058L76.7869 71.2271L78.9714 72.4342V72.4342Z" fill="#90C440"/>
<path fill-rule="evenodd" clip-rule="evenodd" d="M19.8419 91.4814C20.3939 92.2577 20.4506 93.1652 19.9693 93.5082C19.4872 93.8506 18.648 93.4997 18.0961 92.7234C17.5442 91.9472 17.4867 91.0397 17.9688 90.6966C18.4508 90.3542 19.29 90.7051 19.8419 91.4814Z" fill="#808285"/>
<path fill-rule="evenodd" clip-rule="evenodd" d="M19.6671 91.6173C20.1034 92.2306 20.1483 92.9479 19.768 93.2188C19.3868 93.4897 18.7238 93.2118 18.2876 92.5985C17.8513 91.9853 17.8063 91.268 18.1867 90.9971C18.5679 90.7262 19.2308 91.0041 19.6671 91.6173Z" fill="#D1D3D4"/>
<path fill-rule="evenodd" clip-rule="evenodd" d="M19.5857 91.6985C20.0219 92.3117 20.0669 93.0298 19.6858 93.3007C19.3046 93.5716 18.6425 93.2937 18.2054 92.6804C17.7692 92.0672 17.7241 91.3499 18.1053 91.079C18.4865 90.808 19.1494 91.0852 19.5857 91.6985Z" fill="#A7A9AC"/>
<path d="M18.8204 93.0411C18.7125 93.0411 18.6248 92.9533 18.6248 92.8455V91.6011C18.6248 91.4932 18.7125 91.4055 18.8204 91.4055C18.9283 91.4055 19.016 91.4932 19.016 91.6011V92.8455C19.016 92.9533 18.9283 93.0411 18.8204 93.0411Z" fill="#6D6E71"/>
<path d="M19.3384 92.7214L19.2437 92.6973L18.153 92.1004C18.0583 92.0483 18.0234 91.9297 18.0754 91.8349C18.1266 91.7402 18.2462 91.7053 18.3408 91.7572L19.4323 92.3543C19.5262 92.4062 19.5611 92.525 19.5099 92.6197L19.3384 92.7214Z" fill="#6D6E71"/>
<path fill-rule="evenodd" clip-rule="evenodd" d="M22.2306 96.7845V97.5164C22.2306 97.7353 22.1219 97.9225 21.9333 98.0311C21.7439 98.1405 21.5281 98.1405 21.3387 98.0319L15.6959 94.7778C15.3179 94.5604 15.1013 94.1862 15.1013 93.75V93.0475C15.1013 92.8293 15.2092 92.6423 15.3978 92.5327C15.5865 92.4233 15.8023 92.4226 15.9917 92.5312L21.6321 95.7535C22.0125 95.9709 22.2306 96.3466 22.2306 96.7845Z" fill="#D1D3D4"/>
<path fill-rule="evenodd" clip-rule="evenodd" d="M22.2578 96.7834V97.5162C22.2578 97.6326 22.2275 97.7389 22.1701 97.8313C22.0684 97.8313 21.9659 97.8042 21.8712 97.7506L16.23 94.4965C15.8511 94.2799 15.6338 93.9042 15.6338 93.4687V92.7654C15.6338 92.6489 15.6657 92.5426 15.7239 92.4502C15.8248 92.4502 15.9249 92.4766 16.0189 92.5302L21.66 95.7517C22.0396 95.9691 22.2578 96.3456 22.2578 96.7834V96.7834Z" fill="#414042"/>
<path fill-rule="evenodd" clip-rule="evenodd" d="M22.1463 96.9762V97.0361L22.0578 97.1882H21.8823L15.9733 93.7773C15.8615 93.7128 15.7979 93.6018 15.7979 93.4729V93.4225L15.8848 93.2703L16.061 93.2695L21.9693 96.672C22.0818 96.7364 22.1463 96.8474 22.1463 96.9762V96.9762Z" fill="#A7A9AC"/>
<path fill-rule="evenodd" clip-rule="evenodd" d="M28.7329 96.5213C29.2847 97.2968 29.3414 98.2042 28.8594 98.5474C28.3773 98.8905 27.539 98.5388 26.987 97.7633C26.4343 96.9863 26.3776 96.0788 26.8597 95.7365C27.3417 95.3933 28.1801 95.745 28.7329 96.5213V96.5213Z" fill="#808285"/>
<path fill-rule="evenodd" clip-rule="evenodd" d="M28.5176 96.6566C28.9538 97.2698 28.9988 97.9871 28.6177 98.258C28.2365 98.5297 27.5736 98.2518 27.1373 97.6386C26.7011 97.0245 26.656 96.308 27.0372 96.0371C27.4184 95.7654 28.0805 96.0433 28.5176 96.6566Z" fill="#D1D3D4"/>
<path fill-rule="evenodd" clip-rule="evenodd" d="M28.4348 96.7184C28.8718 97.3317 28.9168 98.049 28.5357 98.3198C28.1545 98.5907 27.4916 98.3128 27.0553 97.6996C26.619 97.0863 26.574 96.3691 26.9552 96.0982C27.3356 95.8272 27.9985 96.1052 28.4348 96.7184Z" fill="#A7A9AC"/>
<path d="M27.6702 98.0807C27.5623 98.0807 27.4746 97.993 27.4746 97.8851V96.6407C27.4746 96.5328 27.5623 96.4451 27.6702 96.4451C27.7781 96.4451 27.8658 96.5328 27.8658 96.6407V97.8851C27.8658 97.993 27.7781 98.0807 27.6702 98.0807Z" fill="#6D6E71"/>
<path d="M28.1879 97.7609L28.0947 97.7369L27.0025 97.1399C26.9078 97.0879 26.8737 96.9691 26.9249 96.8752C26.9769 96.7797 27.0972 96.7448 27.1904 96.7968L28.2818 97.3938C28.3765 97.4458 28.4114 97.5645 28.3602 97.6593L28.1879 97.7609V97.7609Z" fill="#6D6E71"/>
<path fill-rule="evenodd" clip-rule="evenodd" d="M31.0797 101.823V102.555C31.0797 102.774 30.9718 102.961 30.7824 103.071C30.5938 103.18 30.3772 103.18 30.1878 103.071L24.545 99.8175C24.1677 99.5993 23.9512 99.2251 23.9512 98.7889V98.0871C23.9512 97.8689 24.0591 97.6819 24.247 97.5724C24.4355 97.463 24.6514 97.4622 24.8408 97.5701L30.4819 100.793C30.8615 101.01 31.0797 101.386 31.0797 101.823Z" fill="#D1D3D4"/>
<path fill-rule="evenodd" clip-rule="evenodd" d="M31.1076 101.824V102.556C31.1076 102.672 31.0766 102.779 31.0191 102.871C30.9174 102.871 30.815 102.845 30.721 102.79L25.0791 99.5368C24.701 99.3194 24.4836 98.9445 24.4836 98.509V97.8049C24.4836 97.6893 24.5155 97.5821 24.5729 97.4897C24.6739 97.4897 24.7748 97.517 24.8687 97.5697L30.5099 100.792C30.8895 101.009 31.1076 101.385 31.1076 101.824Z" fill="#414042"/>
<path fill-rule="evenodd" clip-rule="evenodd" d="M30.9961 101.996V102.055L30.9084 102.207H30.733L24.8239 98.7957C24.7121 98.7313 24.6477 98.6211 24.6477 98.4922V98.441L24.7355 98.2896L24.9109 98.2888L30.8191 101.69C30.9324 101.755 30.9961 101.866 30.9961 101.996V101.996Z" fill="#A7A9AC"/>
<path fill-rule="evenodd" clip-rule="evenodd" d="M104.146 79.4868L106.587 78.1306C106.881 77.9668 107.229 78.0018 107.485 78.2207C107.742 78.4388 107.832 78.7773 107.716 79.094L103.363 91.0549C103.024 91.9872 102.433 92.6804 101.565 93.1617L99.124 94.5179C98.8291 94.6816 98.4821 94.6467 98.2259 94.4285C97.9697 94.2089 97.8805 93.8712 97.9962 93.5553L102.348 81.5937C102.686 80.6621 103.279 79.9688 104.146 79.4868Z" fill="#808285"/>
<path fill-rule="evenodd" clip-rule="evenodd" d="M104.146 79.4909L106.587 78.1347C106.662 78.0936 106.739 78.0649 106.818 78.0486C106.945 78.2505 106.972 78.4981 106.887 78.7348L102.534 90.6957C102.195 91.628 101.602 92.3212 100.735 92.8025L98.2948 94.1587C98.2203 94.2006 98.1427 94.2285 98.0642 94.2448C97.9377 94.043 97.9098 93.7954 97.996 93.5594L102.348 81.5978C102.686 80.6662 103.279 79.973 104.146 79.4909Z" fill="#231F20"/>
<path fill-rule="evenodd" clip-rule="evenodd" d="M112.422 74.8166L114.864 73.4597C115.158 73.2959 115.506 73.3309 115.762 73.5498C116.019 73.7686 116.108 74.1064 115.992 74.4231L111.64 86.3839C111.3 87.3163 110.71 88.0095 109.842 88.4908L107.4 89.8477C107.106 90.0107 106.759 89.9758 106.502 89.7576C106.246 89.5387 106.157 89.2002 106.272 88.8843L110.624 76.9235C110.964 75.9911 111.555 75.2979 112.422 74.8166Z" fill="#808285"/>
<path fill-rule="evenodd" clip-rule="evenodd" d="M112.422 74.8005L114.864 73.4436C114.938 73.4024 115.016 73.3737 115.095 73.3574C115.221 73.5592 115.249 73.8068 115.163 74.0436L110.811 86.0045C110.471 86.9368 109.881 87.6301 109.013 88.1121L106.571 89.4675C106.497 89.5094 106.419 89.5374 106.341 89.5536C106.213 89.3518 106.186 89.1042 106.272 88.8682L110.624 76.9073C110.964 75.975 111.555 75.2818 112.422 74.8005Z" fill="#231F20"/>
<path fill-rule="evenodd" clip-rule="evenodd" d="M120.699 70.1252L123.14 68.7683C123.435 68.6046 123.782 68.6394 124.039 68.8584C124.295 69.0772 124.384 69.4149 124.269 69.7317L119.916 81.6934C119.577 82.6249 118.986 83.3181 118.118 83.8001L115.677 85.1563C115.383 85.3193 115.035 85.2844 114.779 85.0655C114.523 84.8473 114.433 84.5097 114.548 84.1929L118.901 72.2321C119.24 71.2997 119.832 70.6073 120.699 70.1252Z" fill="#808285"/>
<path fill-rule="evenodd" clip-rule="evenodd" d="M120.698 70.1296L123.14 68.7727C123.214 68.7315 123.292 68.7028 123.371 68.6865C123.498 68.8883 123.526 69.136 123.439 69.3727L119.087 81.3336C118.748 82.2667 118.157 82.9599 117.289 83.4412L114.847 84.7974C114.774 84.8393 114.696 84.8672 114.617 84.8827C114.49 84.6817 114.462 84.434 114.548 84.1973L118.9 72.2364C119.24 71.3041 119.831 70.6116 120.698 70.1296Z" fill="#231F20"/>
<path fill-rule="evenodd" clip-rule="evenodd" d="M143.806 56.399L146.248 55.0428C146.543 54.879 146.89 54.9139 147.147 55.132C147.403 55.351 147.492 55.6886 147.376 56.0053L143.024 67.967C142.685 68.8993 142.094 69.5925 141.227 70.0738L138.785 71.4307C138.49 71.5937 138.143 71.5588 137.887 71.3399C137.63 71.1217 137.542 70.7833 137.657 70.4674L142.009 58.5057C142.348 57.5735 142.939 56.881 143.806 56.399V56.399Z" fill="#808285"/>
<path fill-rule="evenodd" clip-rule="evenodd" d="M143.806 56.4033L146.248 55.0471C146.323 55.0051 146.4 54.9772 146.479 54.9609C146.606 55.1619 146.634 55.4104 146.547 55.6471L142.195 67.608C141.856 68.5403 141.265 69.2335 140.397 69.7148L137.956 71.0717C137.882 71.1129 137.804 71.1408 137.725 71.1572C137.599 70.9554 137.57 70.7077 137.657 70.4717L142.009 58.5101C142.348 57.5778 142.939 56.8853 143.806 56.4033V56.4033Z" fill="#231F20"/>
<path fill-rule="evenodd" clip-rule="evenodd" d="M152.083 51.7078L154.525 50.3516C154.819 50.1878 155.167 50.2228 155.423 50.4409C155.68 50.6598 155.768 50.9983 155.653 51.315L151.301 63.2759C150.961 64.2082 150.37 64.9014 149.503 65.3835L147.062 66.7389C146.767 66.9027 146.419 66.8677 146.163 66.6496C145.907 66.4307 145.818 66.093 145.933 65.7762L150.286 53.8147C150.624 52.8823 151.215 52.1899 152.083 51.7078V51.7078Z" fill="#808285"/>
<path fill-rule="evenodd" clip-rule="evenodd" d="M152.083 51.7121L154.525 50.3559C154.599 50.3141 154.676 50.2861 154.755 50.2698C154.882 50.4717 154.91 50.7193 154.824 50.956L150.471 62.9169C150.132 63.8492 149.541 64.5424 148.674 65.0237L146.232 66.3806C146.158 66.4218 146.081 66.4505 146.001 66.4661C145.876 66.2642 145.847 66.0166 145.933 65.7805L150.286 53.819C150.624 52.8866 151.216 52.1942 152.083 51.7121Z" fill="#231F20"/>
<path fill-rule="evenodd" clip-rule="evenodd" d="M160.359 47.0166L162.8 45.6604C163.095 45.4966 163.443 45.5316 163.699 45.7504C163.955 45.9694 164.044 46.3071 163.929 46.6238L159.577 58.5846C159.237 59.517 158.646 60.2102 157.779 60.6923L155.338 62.0484C155.043 62.2114 154.695 62.1772 154.439 61.9583C154.183 61.7395 154.094 61.4017 154.209 61.085L158.562 49.1242C158.901 48.1911 159.492 47.4986 160.359 47.0166Z" fill="#808285"/>
<path fill-rule="evenodd" clip-rule="evenodd" d="M160.36 47.0207L162.8 45.6645C162.876 45.6234 162.953 45.5946 163.032 45.5784C163.158 45.7802 163.186 46.0279 163.1 46.2646L158.748 58.2255C158.408 59.1577 157.818 59.851 156.95 60.3331L154.509 61.6892C154.434 61.7304 154.357 61.759 154.278 61.7746C154.151 61.5736 154.123 61.3252 154.209 61.0891L158.562 49.1283C158.901 48.1952 159.492 47.5028 160.36 47.0207V47.0207Z" fill="#231F20"/>
<path fill-rule="evenodd" clip-rule="evenodd" d="M79.3252 117.621L80.1915 118.091C80.8793 118.415 81.5981 118.582 82.3185 118.594L77.969 116.234L77.4194 116.547L79.3252 117.621V117.621Z" fill="#AAA576"/>
<path fill-rule="evenodd" clip-rule="evenodd" d="M78.7305 115.79L83.6141 118.44C83.8663 118.379 84.1171 118.297 84.3639 118.196L79.315 115.456L78.7305 115.79Z" fill="#AAA576"/>
<path fill-rule="evenodd" clip-rule="evenodd" d="M80.0825 115.032L85.1834 117.8L85.7703 117.467L80.6663 114.698L80.0825 115.032Z" fill="#AAA576"/>
<path fill-rule="evenodd" clip-rule="evenodd" d="M81.4346 114.253L86.5409 117.025L87.127 116.693L82.0183 113.92L81.4346 114.253Z" fill="#AAA576"/>
<path fill-rule="evenodd" clip-rule="evenodd" d="M82.7866 113.495L87.8984 116.27L88.4853 115.938L83.3704 113.162L82.7866 113.495V113.495Z" fill="#AAA576"/>
<path fill-rule="evenodd" clip-rule="evenodd" d="M84.1387 112.717L89.2566 115.494L89.8435 115.161L84.7232 112.383L84.1387 112.717Z" fill="#AAA576"/>
<path fill-rule="evenodd" clip-rule="evenodd" d="M85.4907 111.959L90.5808 114.722C90.7282 114.59 90.8401 114.43 90.913 114.251L86.0745 111.625L85.4907 111.959V111.959Z" fill="#AAA576"/>
<path fill-rule="evenodd" clip-rule="evenodd" d="M86.8428 111.174L90.9796 113.419C90.8996 113.07 90.6815 112.776 90.3554 112.587L87.3784 110.867L86.8428 111.174V111.174Z" fill="#AAA576"/>
<path fill-rule="evenodd" clip-rule="evenodd" d="M94.7762 111.836L90.1224 109.31L89.7109 109.545L92.7322 111.291C93.382 111.667 94.0791 111.848 94.7762 111.836V111.836Z" fill="#AAA576"/>
<path fill-rule="evenodd" clip-rule="evenodd" d="M90.8582 108.866L95.9296 111.618C96.1532 111.541 96.3744 111.444 96.5894 111.326L91.4419 108.532L90.8582 108.866Z" fill="#AAA576"/>
<path fill-rule="evenodd" clip-rule="evenodd" d="M92.2102 108.107L97.3624 110.903L97.9485 110.571L92.7948 107.774L92.2102 108.107Z" fill="#AAA576"/>
<path fill-rule="evenodd" clip-rule="evenodd" d="M93.5623 107.328L98.719 110.128L99.3059 109.795L94.1468 106.995L93.5623 107.328Z" fill="#AAA576"/>
<path fill-rule="evenodd" clip-rule="evenodd" d="M94.9143 106.571L100.077 109.373L100.663 109.04L95.4989 106.237L94.9143 106.571Z" fill="#AAA576"/>
<path fill-rule="evenodd" clip-rule="evenodd" d="M96.2664 105.793L101.434 108.597L102.02 108.265L96.8509 105.459L96.2664 105.793Z" fill="#AAA576"/>
<path fill-rule="evenodd" clip-rule="evenodd" d="M97.6184 105.034L102.792 107.843L103.379 107.51L98.203 104.701L97.6184 105.034Z" fill="#AAA576"/>
<path fill-rule="evenodd" clip-rule="evenodd" d="M98.9297 104.256L104.109 107.067L104.696 106.735L99.5126 103.922L98.9297 104.256Z" fill="#AAA576"/>
<path fill-rule="evenodd" clip-rule="evenodd" d="M100.282 103.478L105.467 106.292L106.053 105.96L100.866 103.144L100.282 103.478Z" fill="#AAA576"/>
<path fill-rule="evenodd" clip-rule="evenodd" d="M101.634 102.72L106.824 105.537L107.41 105.205L102.218 102.386L101.634 102.72Z" fill="#AAA576"/>
<path fill-rule="evenodd" clip-rule="evenodd" d="M102.986 101.941L108.181 104.761L108.769 104.429L103.57 101.607L102.986 101.941Z" fill="#AAA576"/>
<path fill-rule="evenodd" clip-rule="evenodd" d="M104.338 101.183L109.54 104.006L110.127 103.673L104.922 100.849L104.338 101.183Z" fill="#AAA576"/>
<path fill-rule="evenodd" clip-rule="evenodd" d="M105.69 100.404L110.897 103.23L111.484 102.898L106.274 100.071L105.69 100.404Z" fill="#AAA576"/>
<path fill-rule="evenodd" clip-rule="evenodd" d="M107.042 99.6468L112.255 102.476L112.842 102.143L107.626 99.313L107.042 99.6468Z" fill="#AAA576"/>
<path fill-rule="evenodd" clip-rule="evenodd" d="M108.394 98.8685L113.613 101.701L114.2 101.368L108.979 98.5347L108.394 98.8685Z" fill="#AAA576"/>
<path fill-rule="evenodd" clip-rule="evenodd" d="M109.746 98.1097L114.97 100.945L115.557 100.613L110.33 97.7766L109.746 98.1097Z" fill="#AAA576"/>
<path fill-rule="evenodd" clip-rule="evenodd" d="M111.057 97.3318L116.287 100.171L116.874 99.8376L111.642 96.998L111.057 97.3318Z" fill="#AAA576"/>
<path fill-rule="evenodd" clip-rule="evenodd" d="M112.409 96.5535L117.645 99.3947L118.231 99.0625L112.993 96.2197L112.409 96.5535Z" fill="#AAA576"/>
<path fill-rule="evenodd" clip-rule="evenodd" d="M113.761 95.7947L119.003 98.639L119.59 98.3075L114.346 95.4617L113.761 95.7947Z" fill="#AAA576"/>
<path fill-rule="evenodd" clip-rule="evenodd" d="M115.114 95.0171L120.36 97.8645L120.946 97.5323L115.698 94.6833L115.114 95.0171Z" fill="#AAA576"/>
<path fill-rule="evenodd" clip-rule="evenodd" d="M116.466 94.2591L121.718 97.1096L122.305 96.7774L117.05 93.9253L116.466 94.2591Z" fill="#AAA576"/>
<path fill-rule="evenodd" clip-rule="evenodd" d="M117.818 93.4798L123.075 96.3333L123.661 96.0011L118.401 93.1467L117.818 93.4798Z" fill="#AAA576"/>
<path fill-rule="evenodd" clip-rule="evenodd" d="M119.17 92.7233L124.434 95.5792L125.02 95.2469L119.754 92.3887L119.17 92.7233Z" fill="#AAA576"/>
<path fill-rule="evenodd" clip-rule="evenodd" d="M120.522 91.9441L125.79 94.8039L126.377 94.4717L121.105 91.6104L120.522 91.9441Z" fill="#AAA576"/>
<path fill-rule="evenodd" clip-rule="evenodd" d="M121.833 91.1658L127.108 94.0279L127.695 93.6958L122.418 90.832L121.833 91.1658Z" fill="#AAA576"/>
<path fill-rule="evenodd" clip-rule="evenodd" d="M123.185 90.4078L128.465 93.273L129.051 92.9408L123.77 90.074L123.185 90.4078Z" fill="#AAA576"/>
<path fill-rule="evenodd" clip-rule="evenodd" d="M124.537 89.6293L129.824 92.4976L130.41 92.1653L125.122 89.2954L124.537 89.6293Z" fill="#AAA576"/>
<path fill-rule="evenodd" clip-rule="evenodd" d="M125.889 88.8712L131.18 91.7426L131.767 91.4104L126.473 88.5374L125.889 88.8712Z" fill="#AAA576"/>
<path fill-rule="evenodd" clip-rule="evenodd" d="M127.241 88.0929L132.538 90.9674L133.125 90.6352L127.826 87.759L127.241 88.0929Z" fill="#AAA576"/>
<path fill-rule="evenodd" clip-rule="evenodd" d="M128.593 87.3348L133.896 90.2125L134.482 89.8803L129.177 87.001L128.593 87.3348V87.3348Z" fill="#AAA576"/>
<path fill-rule="evenodd" clip-rule="evenodd" d="M129.945 86.5565L135.253 89.4373L135.84 89.105L130.529 86.2227L129.945 86.5565Z" fill="#AAA576"/>
<path fill-rule="evenodd" clip-rule="evenodd" d="M131.297 85.7779L136.501 88.602C136.627 88.456 136.729 88.293 136.802 88.1152L131.882 85.4441L131.297 85.7779V85.7779Z" fill="#AAA576"/>
<path fill-rule="evenodd" clip-rule="evenodd" d="M132.649 85.0191L136.945 87.351C136.938 87.0832 136.878 86.8317 136.771 86.605L133.234 84.686L132.649 85.0191V85.0191Z" fill="#AAA576"/>
<path fill-rule="evenodd" clip-rule="evenodd" d="M33.4126 96.2607L34.5661 96.9113L34.8581 97.5758L35.1492 98.2395L34.8643 98.5787L34.5785 98.9172L34.0018 98.592L33.4251 98.2667L33.1331 97.603L32.842 96.9385L33.1269 96.5992L33.4126 96.2607V96.2607Z" fill="#808285"/>
<path fill-rule="evenodd" clip-rule="evenodd" d="M38.5388 96.2769L35.1458 98.237L34.5627 96.9088L37.9535 94.9495L38.5388 96.2769V96.2769Z" fill="#A7A9AC"/>
<path fill-rule="evenodd" clip-rule="evenodd" d="M37.9561 96.9574L34.563 98.9175L35.1336 98.2398L38.5243 96.2812L37.9561 96.9574Z" fill="#808285"/>
<path fill-rule="evenodd" clip-rule="evenodd" d="M34.459 97.2584C34.7517 97.6706 34.782 98.1511 34.5265 98.3327C34.2711 98.5152 33.8263 98.3281 33.5337 97.9174C33.241 97.506 33.2107 97.0247 33.4661 96.8423C33.7216 96.6606 34.1663 96.847 34.459 97.2584V97.2584Z" fill="#414042"/>
<path d="M53.8814 103.807V105.307C53.8814 105.699 53.7114 106.042 53.4078 106.271H53.4071L53.2727 106.361L53.1252 106.434L49.9674 108.252L36.4478 97.0764L39.9689 95.0379L39.9813 95.0488C40.3439 94.8756 40.7459 94.8904 41.1023 95.0938L52.6564 101.694C53.435 102.139 53.8814 102.91 53.8814 103.807V103.807Z" fill="url(#paint1_linear_8_399)"/>
<path fill-rule="evenodd" clip-rule="evenodd" d="M50.5993 105.712V107.212C50.5993 107.66 50.3774 108.043 49.9908 108.267C49.6034 108.49 49.1601 108.49 48.7728 108.267L37.2148 101.603C36.4401 101.157 35.9968 100.39 35.9968 99.4961V98.0578C35.9968 97.6114 36.2173 97.2279 36.6038 97.0036C36.9897 96.7792 37.4322 96.7777 37.8195 96.9997L49.3736 103.6C50.153 104.045 50.5993 104.815 50.5993 105.712Z" fill="#808285"/>
<path fill-rule="evenodd" clip-rule="evenodd" d="M50.1982 105.688V106.924C50.1982 107.292 50.0158 107.608 49.6959 107.792C49.3777 107.976 49.012 107.977 48.693 107.793L37.3694 101.255C36.7313 100.888 36.3657 100.255 36.3657 99.5195V98.3342C36.3657 97.9662 36.5482 97.6502 36.8656 97.4655C37.184 97.2807 37.5488 97.2792 37.8678 97.4624L49.1883 103.947C49.8295 104.315 50.1982 104.949 50.1982 105.688V105.688Z" fill="#414042"/>
<path fill-rule="evenodd" clip-rule="evenodd" d="M38.5598 99.1909L37.7269 98.7198L37.7175 97.7766L38.5489 98.247L38.5598 99.1909V99.1909Z" fill="#231F20"/>
<path fill-rule="evenodd" clip-rule="evenodd" d="M38.56 100.4L37.7263 99.9283L37.7178 98.9851L38.5491 99.4548L38.56 100.4Z" fill="#231F20"/>
<path fill-rule="evenodd" clip-rule="evenodd" d="M39.5842 99.7646L38.7513 99.2935L38.7419 98.3503L39.5733 98.82L39.5842 99.7646Z" fill="#231F20"/>
<path fill-rule="evenodd" clip-rule="evenodd" d="M40.6086 100.337L39.7749 99.8662L39.7664 98.9238L40.5977 99.3935L40.6086 100.337Z" fill="#231F20"/>
<path fill-rule="evenodd" clip-rule="evenodd" d="M41.633 100.912L40.7993 100.44L40.7908 99.4973L41.6221 99.9669L41.633 100.912Z" fill="#231F20"/>
<path fill-rule="evenodd" clip-rule="evenodd" d="M42.698 101.485L41.865 101.013L41.8557 100.071L42.6871 100.541L42.698 101.485Z" fill="#231F20"/>
<path fill-rule="evenodd" clip-rule="evenodd" d="M43.7225 102.059L42.8895 101.588L42.8801 100.645L43.7124 101.115L43.7225 102.059V102.059Z" fill="#231F20"/>
<path fill-rule="evenodd" clip-rule="evenodd" d="M44.7469 102.632L43.9139 102.161L43.9045 101.218L44.736 101.688L44.7469 102.632V102.632Z" fill="#231F20"/>
<path fill-rule="evenodd" clip-rule="evenodd" d="M45.7713 103.206L44.9383 102.735L44.929 101.792L45.7603 102.262L45.7713 103.206V103.206Z" fill="#231F20"/>
<path fill-rule="evenodd" clip-rule="evenodd" d="M39.5844 100.972L38.7507 100.501L38.7422 99.5588L39.5736 100.028L39.5844 100.972Z" fill="#231F20"/>
<path fill-rule="evenodd" clip-rule="evenodd" d="M40.6494 101.547L39.8157 101.076L39.8071 100.133L40.6385 100.602L40.6494 101.547Z" fill="#231F20"/>
<path fill-rule="evenodd" clip-rule="evenodd" d="M41.6738 102.12L40.8408 101.649L40.8315 100.706L41.6629 101.176L41.6738 102.12Z" fill="#231F20"/>
<path fill-rule="evenodd" clip-rule="evenodd" d="M42.6982 102.694L41.8652 102.223L41.856 101.28L42.6873 101.75L42.6982 102.694Z" fill="#231F20"/>
<path fill-rule="evenodd" clip-rule="evenodd" d="M43.7224 103.267L42.8894 102.796L42.8801 101.853L43.7115 102.323L43.7224 103.267Z" fill="#231F20"/>
<path fill-rule="evenodd" clip-rule="evenodd" d="M44.7876 103.841L43.9547 103.37L43.9453 102.427L44.7768 102.897L44.7876 103.841Z" fill="#231F20"/>
<path fill-rule="evenodd" clip-rule="evenodd" d="M45.812 104.415L44.9791 103.944L44.9697 103L45.8012 103.47L45.812 104.415Z" fill="#231F20"/>
<path fill-rule="evenodd" clip-rule="evenodd" d="M38.56 101.566L37.7263 101.095L37.7178 100.153L38.5491 100.622L38.56 101.566Z" fill="#231F20"/>
<path fill-rule="evenodd" clip-rule="evenodd" d="M39.5844 102.141L38.7507 101.67L38.7422 100.727L39.5736 101.196L39.5844 102.141Z" fill="#231F20"/>
<path fill-rule="evenodd" clip-rule="evenodd" d="M40.6494 102.714L39.8157 102.243L39.8071 101.3L40.6385 101.77L40.6494 102.714Z" fill="#231F20"/>
<path fill-rule="evenodd" clip-rule="evenodd" d="M41.6738 103.288L40.8408 102.817L40.8315 101.874L41.6629 102.344L41.6738 103.288Z" fill="#231F20"/>
<path fill-rule="evenodd" clip-rule="evenodd" d="M42.6982 103.862L41.8652 103.39L41.856 102.447L42.6873 102.917L42.6982 103.862Z" fill="#231F20"/>
<path fill-rule="evenodd" clip-rule="evenodd" d="M43.7224 104.435L42.8894 103.964L42.8801 103.021L43.7115 103.491L43.7224 104.435Z" fill="#231F20"/>
<path fill-rule="evenodd" clip-rule="evenodd" d="M44.7876 105.009L43.9547 104.538L43.9453 103.594L44.7768 104.064L44.7876 105.009Z" fill="#231F20"/>
<path fill-rule="evenodd" clip-rule="evenodd" d="M45.812 105.582L44.9791 105.111L44.9697 104.168L45.8012 104.638L45.812 105.582Z" fill="#231F20"/>
<path fill-rule="evenodd" clip-rule="evenodd" d="M47.082 103.964L46.2483 103.493L46.2397 102.55L47.0711 103.019L47.082 103.964Z" fill="#231F20"/>
<path fill-rule="evenodd" clip-rule="evenodd" d="M49.1716 105.111L48.3387 104.64L48.3293 103.697L49.1615 104.167L49.1716 105.111Z" fill="#231F20"/>
<path fill-rule="evenodd" clip-rule="evenodd" d="M47.123 106.32L46.2901 105.849L46.2808 104.906L47.1122 105.375L47.123 106.32Z" fill="#231F20"/>
<path fill-rule="evenodd" clip-rule="evenodd" d="M49.1708 107.467L48.3379 106.996L48.3293 106.053L49.1607 106.523L49.1708 107.467Z" fill="#231F20"/>
<path d="M56.6956 105.309L53.3033 107.269L52.1396 106.599L55.5296 104.639L56.6956 105.309Z" fill="url(#paint2_linear_8_399)"/>
<path fill-rule="evenodd" clip-rule="evenodd" d="M52.1375 106.606L52.7142 106.932L53.291 107.257L53.5829 107.921L53.8748 108.585L53.5891 108.924L53.3042 109.263L52.7267 108.938L52.1499 108.613L51.858 107.948L51.5662 107.284L51.8518 106.945L52.1375 106.606Z" fill="#808285"/>
<path fill-rule="evenodd" clip-rule="evenodd" d="M57.2637 106.622L53.8707 108.582L53.2869 107.254L56.6777 105.295L57.2637 106.622Z" fill="#A7A9AC"/>
<path fill-rule="evenodd" clip-rule="evenodd" d="M56.681 107.303L53.2871 109.263L53.8585 108.586L57.2485 106.626L56.681 107.303Z" fill="#808285"/>
<path fill-rule="evenodd" clip-rule="evenodd" d="M53.1831 107.604C53.4758 108.015 53.506 108.497 53.2506 108.678C52.9952 108.86 52.5504 108.674 52.2578 108.262C51.9651 107.851 51.9348 107.369 52.1902 107.188C52.4464 107.006 52.8904 107.192 53.1831 107.604Z" fill="#414042"/>
<path d="M37.9715 94.9631L34.5784 96.924L33.4155 96.2525L36.8055 94.2939L37.9715 94.9631V94.9631Z" fill="url(#paint3_linear_8_399)"/>
<path fill-rule="evenodd" clip-rule="evenodd" d="M32.9619 105.315L33.5387 105.641L34.1155 105.966L34.4073 106.63L34.6992 107.294L34.4136 107.633L34.1279 107.972L32.9743 107.321L32.6825 106.658L32.3914 105.993L32.6763 105.654L32.9619 105.315Z" fill="#808285"/>
<path fill-rule="evenodd" clip-rule="evenodd" d="M38.0881 105.331L34.6958 107.291L34.1121 105.963L37.5029 104.004L38.0881 105.331V105.331Z" fill="#A7A9AC"/>
<path fill-rule="evenodd" clip-rule="evenodd" d="M37.5054 106.012L34.1123 107.972L34.6837 107.294L38.0737 105.336L37.5054 106.012Z" fill="#808285"/>
<path fill-rule="evenodd" clip-rule="evenodd" d="M33.9675 106.313C34.2601 106.724 34.2904 107.206 34.0351 107.387C33.7796 107.569 33.3349 107.383 33.0422 106.972C32.7495 106.56 32.7192 106.079 32.9747 105.898C33.23 105.715 33.6749 105.902 33.9675 106.313V106.313Z" fill="#414042"/>
<path d="M53.4307 112.861V114.36C53.4307 114.753 53.2607 115.097 52.9572 115.326H52.9565L52.8221 115.415L52.6746 115.489L49.5168 117.306L35.9971 106.131L39.5183 104.093L39.5307 104.103C39.8933 103.93 40.2953 103.945 40.6517 104.148L52.2058 110.749C52.9844 111.194 53.4307 111.964 53.4307 112.861V112.861Z" fill="url(#paint4_linear_8_399)"/>
<path fill-rule="evenodd" clip-rule="evenodd" d="M50.1487 114.767V116.266C50.1487 116.713 49.9275 117.098 49.5402 117.321C49.1527 117.545 48.7095 117.545 48.3222 117.322L36.7641 110.658C35.9894 110.211 35.5461 109.444 35.5461 108.551V107.112C35.5461 106.666 35.7666 106.283 36.1532 106.058C36.5391 105.834 36.9815 105.832 37.3689 106.054L48.9237 112.655C49.7023 113.1 50.1487 113.87 50.1487 114.767Z" fill="#808285"/>
<path fill-rule="evenodd" clip-rule="evenodd" d="M49.7475 114.742V115.978C49.7475 116.346 49.5651 116.663 49.2453 116.847C48.9269 117.031 48.5613 117.031 48.2423 116.848L36.9187 110.31C36.2806 109.942 35.915 109.31 35.915 108.574V107.389C35.915 107.021 36.0974 106.705 36.415 106.52C36.7332 106.335 37.0981 106.334 37.4179 106.517L48.7375 113.002C49.3788 113.369 49.7475 114.003 49.7475 114.742Z" fill="#414042"/>
<path fill-rule="evenodd" clip-rule="evenodd" d="M38.1091 108.246L37.2762 107.775L37.2668 106.831L38.0982 107.302L38.1091 108.246Z" fill="#231F20"/>
<path fill-rule="evenodd" clip-rule="evenodd" d="M38.1093 109.454L37.2756 108.983L37.2671 108.04L38.0985 108.51L38.1093 109.454Z" fill="#231F20"/>
<path fill-rule="evenodd" clip-rule="evenodd" d="M39.1335 108.819L38.3005 108.348L38.2913 107.405L39.1226 107.875L39.1335 108.819Z" fill="#231F20"/>
<path fill-rule="evenodd" clip-rule="evenodd" d="M40.1579 109.393L39.3242 108.922L39.3157 107.979L40.147 108.449L40.1579 109.393Z" fill="#231F20"/>
<path fill-rule="evenodd" clip-rule="evenodd" d="M41.1823 109.967L40.3494 109.495L40.3401 108.552L41.1715 109.022L41.1823 109.967Z" fill="#231F20"/>
<path fill-rule="evenodd" clip-rule="evenodd" d="M42.2474 110.539L41.4144 110.068L41.405 109.126L42.2365 109.595L42.2474 110.539Z" fill="#231F20"/>
<path fill-rule="evenodd" clip-rule="evenodd" d="M43.2717 111.114L42.4388 110.643L42.4294 109.699L43.2616 110.169L43.2717 111.114Z" fill="#231F20"/>
<path fill-rule="evenodd" clip-rule="evenodd" d="M44.295 111.687L43.4621 111.216L43.4536 110.273L44.285 110.743L44.295 111.687Z" fill="#231F20"/>
<path fill-rule="evenodd" clip-rule="evenodd" d="M45.3203 112.261L44.4866 111.79L44.478 110.847L45.3094 111.317L45.3203 112.261Z" fill="#231F20"/>
<path fill-rule="evenodd" clip-rule="evenodd" d="M39.1337 110.028L38.3 109.557L38.2915 108.614L39.1229 109.084L39.1337 110.028Z" fill="#231F20"/>
<path fill-rule="evenodd" clip-rule="evenodd" d="M40.1987 110.602L39.365 110.13L39.3564 109.187L40.1878 109.657L40.1987 110.602Z" fill="#231F20"/>
<path fill-rule="evenodd" clip-rule="evenodd" d="M41.2231 111.174L40.3901 110.703L40.3809 109.761L41.2122 110.23L41.2231 111.174Z" fill="#231F20"/>
<path fill-rule="evenodd" clip-rule="evenodd" d="M42.2473 111.749L41.4143 111.278L41.405 110.334L42.2364 110.805L42.2473 111.749Z" fill="#231F20"/>
<path fill-rule="evenodd" clip-rule="evenodd" d="M43.2718 112.322L42.4388 111.851L42.4294 110.908L43.2609 111.378L43.2718 112.322V112.322Z" fill="#231F20"/>
<path fill-rule="evenodd" clip-rule="evenodd" d="M44.3369 112.896L43.504 112.425L43.4946 111.482L44.3261 111.952L44.3369 112.896Z" fill="#231F20"/>
<path fill-rule="evenodd" clip-rule="evenodd" d="M45.3613 113.47L44.5284 112.998L44.519 112.055L45.3504 112.525L45.3613 113.47Z" fill="#231F20"/>
<path fill-rule="evenodd" clip-rule="evenodd" d="M38.1093 110.621L37.2756 110.15L37.2671 109.208L38.0985 109.677L38.1093 110.621V110.621Z" fill="#231F20"/>
<path fill-rule="evenodd" clip-rule="evenodd" d="M39.1337 111.196L38.3 110.724L38.2915 109.781L39.1229 110.251L39.1337 111.196Z" fill="#231F20"/>
<path fill-rule="evenodd" clip-rule="evenodd" d="M40.1987 111.769L39.365 111.297L39.3564 110.355L40.1878 110.825L40.1987 111.769Z" fill="#231F20"/>
<path fill-rule="evenodd" clip-rule="evenodd" d="M41.2231 112.343L40.3901 111.872L40.3809 110.928L41.2122 111.399L41.2231 112.343V112.343Z" fill="#231F20"/>
<path fill-rule="evenodd" clip-rule="evenodd" d="M42.2473 112.916L41.4143 112.445L41.405 111.502L42.2364 111.972L42.2473 112.916Z" fill="#231F20"/>
<path fill-rule="evenodd" clip-rule="evenodd" d="M43.2718 113.49L42.4388 113.019L42.4294 112.076L43.2609 112.546L43.2718 113.49Z" fill="#231F20"/>
<path fill-rule="evenodd" clip-rule="evenodd" d="M44.3369 114.063L43.504 113.593L43.4946 112.649L44.3261 113.119L44.3369 114.063V114.063Z" fill="#231F20"/>
<path fill-rule="evenodd" clip-rule="evenodd" d="M45.3613 114.636L44.5284 114.165L44.519 113.223L45.3504 113.693L45.3613 114.636Z" fill="#231F20"/>
<path fill-rule="evenodd" clip-rule="evenodd" d="M46.6313 113.019L45.7976 112.548L45.7891 111.605L46.6204 112.074L46.6313 113.019Z" fill="#231F20"/>
<path fill-rule="evenodd" clip-rule="evenodd" d="M48.7209 114.165L47.8871 113.695L47.8787 112.752L48.71 113.221L48.7209 114.165V114.165Z" fill="#231F20"/>
<path fill-rule="evenodd" clip-rule="evenodd" d="M46.6723 115.395L45.8394 114.924L45.8301 113.981L46.6614 114.451L46.6723 115.395Z" fill="#231F20"/>
<path fill-rule="evenodd" clip-rule="evenodd" d="M48.7202 116.543L47.8872 116.071L47.8787 115.128L48.7101 115.598L48.7202 116.543Z" fill="#231F20"/>
<path d="M56.2049 114.363L52.8118 116.324L51.6482 115.653L55.0389 113.694L56.2049 114.363Z" fill="url(#paint5_linear_8_399)"/>
<path fill-rule="evenodd" clip-rule="evenodd" d="M51.6868 115.661L52.2636 115.987L52.8404 116.311L53.1323 116.976L53.4241 117.64L53.1385 117.979L52.8536 118.318L52.2768 117.993L51.6993 117.667L51.4074 117.003L51.1155 116.339L51.4012 116L51.6868 115.661Z" fill="#808285"/>
<path fill-rule="evenodd" clip-rule="evenodd" d="M56.8131 115.676L53.4199 117.637L52.8362 116.308L56.227 114.35L56.8131 115.676Z" fill="#A7A9AC"/>
<path fill-rule="evenodd" clip-rule="evenodd" d="M56.2304 116.358L52.8364 118.318L53.4078 117.641L56.7986 115.681L56.2304 116.358Z" fill="#808285"/>
<path fill-rule="evenodd" clip-rule="evenodd" d="M52.6916 116.659C52.9843 117.07 53.0146 117.552 52.7592 117.733C52.5038 117.915 52.059 117.729 51.7663 117.317C51.4737 116.906 51.4434 116.424 51.6988 116.243C51.955 116.061 52.399 116.247 52.6916 116.659Z" fill="#414042"/>
<path d="M37.5209 104.018L34.1277 105.979L32.9648 105.307L36.3548 103.349L37.5209 104.018Z" fill="url(#paint6_linear_8_399)"/>
<path d="M129.813 29.2559C134.214 29.3723 137.724 31.6833 137.651 34.4165C137.579 37.1498 133.951 39.2714 129.55 39.1541C125.149 39.0377 121.638 36.7267 121.711 33.9935C121.784 31.2602 125.412 29.1386 129.813 29.2559V29.2559Z" fill="url(#paint7_linear_8_399)"/>
<path d="M90.7666 52.405C95.1673 52.5221 98.6777 54.8331 98.6055 57.5656C98.5325 60.2989 94.9049 62.4205 90.5042 62.304C86.1027 62.1868 82.5924 59.8758 82.6647 57.1426C82.7376 54.41 86.3652 52.2885 90.7666 52.405Z" fill="url(#paint8_linear_8_399)"/>
<path d="M78.5094 156.192C77.6241 156.192 76.8081 156.053 76.0614 155.776C75.3254 155.488 74.6801 155.083 74.1254 154.56C73.5814 154.037 73.1548 153.424 72.8454 152.72C72.5468 152.016 72.3974 151.243 72.3974 150.4C72.3974 149.557 72.5468 148.784 72.8454 148.08C73.1548 147.376 73.5868 146.763 74.1414 146.24C74.6961 145.717 75.3468 145.317 76.0934 145.04C76.8401 144.752 77.6614 144.608 78.5574 144.608C79.5494 144.608 80.4401 144.773 81.2294 145.104C82.0294 145.435 82.7014 145.915 83.2454 146.544L81.5814 148.08C81.1761 147.653 80.7334 147.339 80.2534 147.136C79.7734 146.923 79.2508 146.816 78.6854 146.816C78.1414 146.816 77.6454 146.901 77.1974 147.072C76.7494 147.243 76.3601 147.488 76.0294 147.808C75.7094 148.128 75.4588 148.507 75.2774 148.944C75.1068 149.381 75.0214 149.867 75.0214 150.4C75.0214 150.923 75.1068 151.403 75.2774 151.84C75.4588 152.277 75.7094 152.661 76.0294 152.992C76.3601 153.312 76.7441 153.557 77.1814 153.728C77.6294 153.899 78.1201 153.984 78.6534 153.984C79.1654 153.984 79.6614 153.904 80.1414 153.744C80.6321 153.573 81.1068 153.291 81.5654 152.896L83.0374 154.768C82.4294 155.227 81.7201 155.579 80.9094 155.824C80.1094 156.069 79.3094 156.192 78.5094 156.192ZM80.6694 154.432V150.224H83.0374V154.768L80.6694 154.432ZM85.4452 156V144.8H90.2932C91.2959 144.8 92.1599 144.965 92.8852 145.296C93.6105 145.616 94.1705 146.08 94.5652 146.688C94.9599 147.296 95.1572 148.021 95.1572 148.864C95.1572 149.696 94.9599 150.416 94.5652 151.024C94.1705 151.632 93.6105 152.101 92.8852 152.432C92.1599 152.752 91.2959 152.912 90.2932 152.912H86.8852L88.0372 151.744V156H85.4452ZM88.0372 152.032L86.8852 150.8H90.1492C90.9492 150.8 91.5465 150.629 91.9412 150.288C92.3359 149.947 92.5332 149.472 92.5332 148.864C92.5332 148.245 92.3359 147.765 91.9412 147.424C91.5465 147.083 90.9492 146.912 90.1492 146.912H86.8852L88.0372 145.68V152.032ZM101.921 156.192C100.332 156.192 99.0892 155.749 98.1932 154.864C97.2972 153.979 96.8492 152.715 96.8492 151.072V144.8H99.4412V150.976C99.4412 152.043 99.6599 152.811 100.097 153.28C100.535 153.749 101.148 153.984 101.937 153.984C102.727 153.984 103.34 153.749 103.777 153.28C104.215 152.811 104.433 152.043 104.433 150.976V144.8H106.993V151.072C106.993 152.715 106.545 153.979 105.649 154.864C104.753 155.749 103.511 156.192 101.921 156.192Z" fill="#333333"/>
</g>
<defs>
<filter id="filter0_d_8_399" x="0" y="0" width="180" height="184" filterUnits="userSpaceOnUse" color-interpolation-filters="sRGB">
<feFlood flood-opacity="0" result="BackgroundImageFix"/>
<feColorMatrix in="SourceAlpha" type="matrix" values="0 0 0 0 0 0 0 0 0 0 0 0 0 0 0 0 0 0 127 0" result="hardAlpha"/>
<feOffset dy="4"/>
<feColorMatrix type="matrix" values="0 0 0 0 0 0 0 0 0 0 0 0 0 0 0 0 0 0 0.25 0"/>
<feBlend mode="normal" in2="BackgroundImageFix" result="effect1_dropShadow_8_399"/>
<feBlend mode="normal" in="SourceGraphic" in2="effect1_dropShadow_8_399" result="shape"/>
</filter>
<linearGradient id="paint0_linear_8_399" x1="1.23425" y1="63.6715" x2="72.2243" y2="139.799" gradientUnits="userSpaceOnUse">
<stop stop-color="#D1D3D4"/>
<stop offset="1" stop-color="white"/>
</linearGradient>
<linearGradient id="paint1_linear_8_399" x1="39.018" y1="91.2717" x2="52.6821" y2="110.786" gradientUnits="userSpaceOnUse">
<stop stop-color="#CFD1D1"/>
<stop offset="0.1" stop-color="#F7F7F7"/>
<stop offset="0.6" stop-color="#D4D6D6"/>
<stop offset="0.7" stop-color="#C0C2C3"/>
<stop offset="0.8" stop-color="#9A9C9F"/>
<stop offset="1" stop-color="#808285"/>
</linearGradient>
<linearGradient id="paint2_linear_8_399" x1="56.2563" y1="103.423" x2="52.5789" y2="108.484" gradientUnits="userSpaceOnUse">
<stop stop-color="#CFD1D1"/>
<stop offset="1" stop-color="white"/>
</linearGradient>
<linearGradient id="paint3_linear_8_399" x1="37.262" y1="93.4484" x2="34.124" y2="97.7674" gradientUnits="userSpaceOnUse">
<stop stop-color="#CFD1D1"/>
<stop offset="1" stop-color="white"/>
</linearGradient>
<linearGradient id="paint4_linear_8_399" x1="38.5674" y1="100.326" x2="52.2315" y2="119.84" gradientUnits="userSpaceOnUse">
<stop stop-color="#CFD1D1"/>
<stop offset="0.1" stop-color="#F7F7F7"/>
<stop offset="0.6" stop-color="#D4D6D6"/>
<stop offset="0.7" stop-color="#C0C2C3"/>
<stop offset="0.8" stop-color="#9A9C9F"/>
<stop offset="1" stop-color="#808285"/>
</linearGradient>
<linearGradient id="paint5_linear_8_399" x1="55.7648" y1="112.477" x2="52.0873" y2="117.539" gradientUnits="userSpaceOnUse">
<stop stop-color="#CFD1D1"/>
<stop offset="1" stop-color="white"/>
</linearGradient>
<linearGradient id="paint6_linear_8_399" x1="36.8121" y1="102.503" x2="33.6742" y2="106.822" gradientUnits="userSpaceOnUse">
<stop stop-color="#CFD1D1"/>
<stop offset="1" stop-color="white"/>
</linearGradient>
<linearGradient id="paint7_linear_8_399" x1="132.082" y1="28.2621" x2="127.28" y2="40.1459" gradientUnits="userSpaceOnUse">
<stop stop-color="#ACC842"/>
<stop offset="0.4" stop-color="#ACC842"/>
<stop offset="0.5" stop-color="#B3CC50"/>
<stop offset="1" stop-color="white"/>
</linearGradient>
<linearGradient id="paint8_linear_8_399" x1="93.6447" y1="49.9071" x2="87.6271" y2="64.8011" gradientUnits="userSpaceOnUse">
<stop stop-color="#ACC842"/>
<stop offset="0.4" stop-color="#ACC842"/>
<stop offset="0.5" stop-color="#B3CC50"/>
<stop offset="1" stop-color="white"/>
</linearGradient>
</defs>
</svg>
