<svg width="180" height="184" viewBox="0 0 180 184" fill="none" xmlns="http://www.w3.org/2000/svg">
<g id="Procesador 2" filter="url(#filter0_d)">
<rect id="bg" width="180" height="180" rx="20"/>
<g id="Procesador">
<path id="Vector" fill-rule="evenodd" clip-rule="evenodd" d="M19.4259 75.1416H90.1529V117.519L19.4259 76.9839V75.1416Z" fill="#4A6028"/>
<path id="Vector_2" fill-rule="evenodd" clip-rule="evenodd" d="M160.88 75.1416H90.1525V117.519L160.88 76.9839V75.1416Z" fill="#7BA142"/>
<path id="Vector_3" fill-rule="evenodd" clip-rule="evenodd" d="M90.1529 34.6021L19.4259 75.1375L90.1529 115.673L160.88 75.1375L90.1529 34.6021Z" fill="#57742B"/>
<path id="Vector_4" fill-rule="evenodd" clip-rule="evenodd" d="M33.8228 67.5L85.9772 37.876H94.4188L146.485 67.4789L146.484 74.7816L94.7194 103.892H85.4675L33.8245 74.7746L33.8228 67.5Z" fill="#58595B"/>
<path id="Vector_5" fill-rule="evenodd" clip-rule="evenodd" d="M33.8228 63.521L85.9772 33.8989H94.4188L146.485 63.5017L146.484 70.8027L94.7194 99.9135H85.4675L33.8245 70.7975L33.8228 63.521Z" fill="#414042"/>
<path id="Vector_6" fill-rule="evenodd" clip-rule="evenodd" d="M33.8228 62.0508L85.9772 32.4268H94.4188L146.485 62.0296L146.484 69.3342L94.7194 98.4432H85.4675L33.8245 69.3254L33.8228 62.0508Z" fill="#58595B"/>
<path id="Vector_7" d="M33.8228 58.072L85.9772 28.4497H94.4188L146.485 58.0526L146.484 65.3554L94.7194 94.4644H85.4675L33.8245 65.3483L33.8228 58.072Z" fill="url(#paint0_linear)"/>
<path id="Vector_8" fill-rule="evenodd" clip-rule="evenodd" d="M54.0246 59.2923L87.4749 40.2929H92.89L126.282 59.2782V63.9622L93.0833 82.633H87.148L54.0264 63.9587L54.0246 59.2923Z" fill="#90C440"/>
<path id="Vector_9" fill-rule="evenodd" clip-rule="evenodd" d="M59.6716 59.6197L87.893 43.5889H92.4627L120.635 59.6092V63.5603L92.6244 79.3116H87.6189L59.6716 63.5567V59.6197Z" fill="#E6E7E8"/>
</g>
<path id="Procesador (CPU)" d="M22.676 144.8C23.668 144.8 24.5267 144.965 25.252 145.296C25.988 145.627 26.5533 146.096 26.948 146.704C27.3427 147.312 27.54 148.032 27.54 148.864C27.54 149.685 27.3427 150.405 26.948 151.024C26.5533 151.632 25.988 152.101 25.252 152.432C24.5267 152.752 23.668 152.912 22.676 152.912H20.42V156H17.828V144.8H22.676ZM22.532 150.8C23.3107 150.8 23.9027 150.635 24.308 150.304C24.7133 149.963 24.916 149.483 24.916 148.864C24.916 148.235 24.7133 147.755 24.308 147.424C23.9027 147.083 23.3107 146.912 22.532 146.912H20.42V150.8H22.532ZM31.5985 148.528C31.8972 148.112 32.2972 147.797 32.7985 147.584C33.3105 147.371 33.8972 147.264 34.5585 147.264V149.568C34.2812 149.547 34.0945 149.536 33.9985 149.536C33.2838 149.536 32.7238 149.739 32.3185 150.144C31.9132 150.539 31.7105 151.136 31.7105 151.936V156H29.2145V147.392H31.5985V148.528ZM40.0605 156.128C39.1538 156.128 38.3378 155.941 37.6125 155.568C36.8978 155.184 36.3378 154.656 35.9325 153.984C35.5272 153.312 35.3245 152.549 35.3245 151.696C35.3245 150.843 35.5272 150.08 35.9325 149.408C36.3378 148.736 36.8978 148.213 37.6125 147.84C38.3378 147.456 39.1538 147.264 40.0605 147.264C40.9672 147.264 41.7778 147.456 42.4925 147.84C43.2072 148.213 43.7672 148.736 44.1725 149.408C44.5778 150.08 44.7805 150.843 44.7805 151.696C44.7805 152.549 44.5778 153.312 44.1725 153.984C43.7672 154.656 43.2072 155.184 42.4925 155.568C41.7778 155.941 40.9672 156.128 40.0605 156.128ZM40.0605 154.08C40.7005 154.08 41.2232 153.867 41.6285 153.44C42.0445 153.003 42.2525 152.421 42.2525 151.696C42.2525 150.971 42.0445 150.395 41.6285 149.968C41.2232 149.531 40.7005 149.312 40.0605 149.312C39.4205 149.312 38.8925 149.531 38.4765 149.968C38.0605 150.395 37.8525 150.971 37.8525 151.696C37.8525 152.421 38.0605 153.003 38.4765 153.44C38.8925 153.867 39.4205 154.08 40.0605 154.08ZM50.6089 156.128C49.6915 156.128 48.8649 155.941 48.1289 155.568C47.4035 155.184 46.8329 154.656 46.4169 153.984C46.0115 153.312 45.8089 152.549 45.8089 151.696C45.8089 150.843 46.0115 150.08 46.4169 149.408C46.8329 148.736 47.4035 148.213 48.1289 147.84C48.8649 147.456 49.6915 147.264 50.6089 147.264C51.5155 147.264 52.3049 147.456 52.9769 147.84C53.6595 148.213 54.1555 148.752 54.4649 149.456L52.5289 150.496C52.0809 149.707 51.4355 149.312 50.5929 149.312C49.9422 149.312 49.4035 149.525 48.9769 149.952C48.5502 150.379 48.3369 150.96 48.3369 151.696C48.3369 152.432 48.5502 153.013 48.9769 153.44C49.4035 153.867 49.9422 154.08 50.5929 154.08C51.4462 154.08 52.0915 153.685 52.5289 152.896L54.4649 153.952C54.1555 154.635 53.6595 155.168 52.9769 155.552C52.3049 155.936 51.5155 156.128 50.6089 156.128ZM64.2246 151.728C64.2246 151.76 64.2086 151.984 64.1766 152.4H57.6646C57.782 152.933 58.0593 153.355 58.4966 153.664C58.934 153.973 59.478 154.128 60.1286 154.128C60.5766 154.128 60.9713 154.064 61.3126 153.936C61.6646 153.797 61.99 153.584 62.2886 153.296L63.6166 154.736C62.806 155.664 61.622 156.128 60.0646 156.128C59.094 156.128 58.2353 155.941 57.4886 155.568C56.742 155.184 56.166 154.656 55.7606 153.984C55.3553 153.312 55.1526 152.549 55.1526 151.696C55.1526 150.853 55.35 150.096 55.7446 149.424C56.15 148.741 56.6993 148.213 57.3926 147.84C58.0966 147.456 58.8806 147.264 59.7446 147.264C60.5873 147.264 61.35 147.445 62.0326 147.808C62.7153 148.171 63.2486 148.693 63.6326 149.376C64.0273 150.048 64.2246 150.832 64.2246 151.728ZM59.7606 149.152C59.1953 149.152 58.7206 149.312 58.3366 149.632C57.9526 149.952 57.718 150.389 57.6326 150.944H61.8726C61.7873 150.4 61.5526 149.968 61.1686 149.648C60.7846 149.317 60.3153 149.152 59.7606 149.152ZM68.7824 156.128C68.0677 156.128 67.369 156.043 66.6864 155.872C66.0037 155.691 65.4597 155.467 65.0544 155.2L65.8864 153.408C66.2704 153.653 66.7344 153.856 67.2784 154.016C67.8224 154.165 68.3557 154.24 68.8784 154.24C69.9344 154.24 70.4624 153.979 70.4624 153.456C70.4624 153.211 70.3184 153.035 70.0304 152.928C69.7424 152.821 69.2997 152.731 68.7024 152.656C67.9984 152.549 67.417 152.427 66.9584 152.288C66.4997 152.149 66.0997 151.904 65.7584 151.552C65.4277 151.2 65.2624 150.699 65.2624 150.048C65.2624 149.504 65.417 149.024 65.7264 148.608C66.0464 148.181 66.505 147.851 67.1024 147.616C67.7104 147.381 68.425 147.264 69.2464 147.264C69.8544 147.264 70.457 147.333 71.0544 147.472C71.6624 147.6 72.1637 147.781 72.5584 148.016L71.7264 149.792C70.969 149.365 70.1424 149.152 69.2464 149.152C68.713 149.152 68.313 149.227 68.0464 149.376C67.7797 149.525 67.6464 149.717 67.6464 149.952C67.6464 150.219 67.7904 150.405 68.0784 150.512C68.3664 150.619 68.825 150.72 69.4544 150.816C70.1584 150.933 70.7344 151.061 71.1824 151.2C71.6304 151.328 72.0197 151.568 72.3504 151.92C72.681 152.272 72.8464 152.763 72.8464 153.392C72.8464 153.925 72.6864 154.4 72.3664 154.816C72.0464 155.232 71.577 155.557 70.9584 155.792C70.3504 156.016 69.625 156.128 68.7824 156.128ZM77.8584 147.264C79.1917 147.264 80.2157 147.584 80.9304 148.224C81.645 148.853 82.0024 149.808 82.0024 151.088V156H79.6664V154.928C79.197 155.728 78.3224 156.128 77.0424 156.128C76.381 156.128 75.805 156.016 75.3144 155.792C74.8344 155.568 74.4664 155.259 74.2104 154.864C73.9544 154.469 73.8264 154.021 73.8264 153.52C73.8264 152.72 74.125 152.091 74.7224 151.632C75.3304 151.173 76.2637 150.944 77.5224 150.944H79.5064C79.5064 150.4 79.341 149.984 79.0104 149.696C78.6797 149.397 78.1837 149.248 77.5224 149.248C77.0637 149.248 76.6104 149.323 76.1624 149.472C75.725 149.611 75.3517 149.803 75.0424 150.048L74.1464 148.304C74.6157 147.973 75.1757 147.717 75.8264 147.536C76.4877 147.355 77.165 147.264 77.8584 147.264ZM77.6664 154.448C78.093 154.448 78.4717 154.352 78.8024 154.16C79.133 153.957 79.3677 153.664 79.5064 153.28V152.4H77.7944C76.7704 152.4 76.2584 152.736 76.2584 153.408C76.2584 153.728 76.381 153.984 76.6264 154.176C76.8824 154.357 77.229 154.448 77.6664 154.448ZM93.1231 144.128V156H90.7391V155.008C90.1205 155.755 89.2245 156.128 88.0511 156.128C87.2405 156.128 86.5045 155.947 85.8431 155.584C85.1925 155.221 84.6805 154.704 84.3071 154.032C83.9338 153.36 83.7471 152.581 83.7471 151.696C83.7471 150.811 83.9338 150.032 84.3071 149.36C84.6805 148.688 85.1925 148.171 85.8431 147.808C86.5045 147.445 87.2405 147.264 88.0511 147.264C89.1498 147.264 90.0085 147.611 90.6271 148.304V144.128H93.1231ZM88.4831 154.08C89.1125 154.08 89.6351 153.867 90.0511 153.44C90.4671 153.003 90.6751 152.421 90.6751 151.696C90.6751 150.971 90.4671 150.395 90.0511 149.968C89.6351 149.531 89.1125 149.312 88.4831 149.312C87.8431 149.312 87.3151 149.531 86.8991 149.968C86.4831 150.395 86.2751 150.971 86.2751 151.696C86.2751 152.421 86.4831 153.003 86.8991 153.44C87.3151 153.867 87.8431 154.08 88.4831 154.08ZM99.5293 156.128C98.6226 156.128 97.8066 155.941 97.0813 155.568C96.3666 155.184 95.8066 154.656 95.4013 153.984C94.9959 153.312 94.7933 152.549 94.7933 151.696C94.7933 150.843 94.9959 150.08 95.4013 149.408C95.8066 148.736 96.3666 148.213 97.0813 147.84C97.8066 147.456 98.6226 147.264 99.5293 147.264C100.436 147.264 101.247 147.456 101.961 147.84C102.676 148.213 103.236 148.736 103.641 149.408C104.047 150.08 104.249 150.843 104.249 151.696C104.249 152.549 104.047 153.312 103.641 153.984C103.236 154.656 102.676 155.184 101.961 155.568C101.247 155.941 100.436 156.128 99.5293 156.128ZM99.5293 154.08C100.169 154.08 100.692 153.867 101.097 153.44C101.513 153.003 101.721 152.421 101.721 151.696C101.721 150.971 101.513 150.395 101.097 149.968C100.692 149.531 100.169 149.312 99.5293 149.312C98.8893 149.312 98.3613 149.531 97.9453 149.968C97.5293 150.395 97.3213 150.971 97.3213 151.696C97.3213 152.421 97.5293 153.003 97.9453 153.44C98.3613 153.867 98.8893 154.08 99.5293 154.08ZM108.302 148.528C108.6 148.112 109 147.797 109.502 147.584C110.014 147.371 110.6 147.264 111.262 147.264V149.568C110.984 149.547 110.798 149.536 110.702 149.536C109.987 149.536 109.427 149.739 109.022 150.144C108.616 150.539 108.414 151.136 108.414 151.936V156H105.918V147.392H108.302V148.528ZM119.356 159.104C118.716 158.133 118.22 157.008 117.868 155.728C117.526 154.448 117.356 153.077 117.356 151.616C117.356 150.155 117.526 148.784 117.868 147.504C118.22 146.213 118.716 145.088 119.356 144.128H121.74C121.068 145.312 120.577 146.517 120.268 147.744C119.958 148.96 119.804 150.251 119.804 151.616C119.804 152.981 119.958 154.277 120.268 155.504C120.577 156.72 121.068 157.92 121.74 159.104H119.356ZM128.594 156.192C127.453 156.192 126.418 155.947 125.49 155.456C124.573 154.955 123.848 154.267 123.314 153.392C122.792 152.507 122.53 151.509 122.53 150.4C122.53 149.291 122.792 148.299 123.314 147.424C123.848 146.539 124.573 145.851 125.49 145.36C126.418 144.859 127.458 144.608 128.61 144.608C129.581 144.608 130.456 144.779 131.234 145.12C132.024 145.461 132.685 145.952 133.218 146.592L131.554 148.128C130.797 147.253 129.858 146.816 128.738 146.816C128.045 146.816 127.426 146.971 126.882 147.28C126.338 147.579 125.912 148 125.602 148.544C125.304 149.088 125.154 149.707 125.154 150.4C125.154 151.093 125.304 151.712 125.602 152.256C125.912 152.8 126.338 153.227 126.882 153.536C127.426 153.835 128.045 153.984 128.738 153.984C129.858 153.984 130.797 153.541 131.554 152.656L133.218 154.192C132.685 154.843 132.024 155.339 131.234 155.68C130.445 156.021 129.565 156.192 128.594 156.192ZM139.817 144.8C140.809 144.8 141.667 144.965 142.393 145.296C143.129 145.627 143.694 146.096 144.089 146.704C144.483 147.312 144.681 148.032 144.681 148.864C144.681 149.685 144.483 150.405 144.089 151.024C143.694 151.632 143.129 152.101 142.393 152.432C141.667 152.752 140.809 152.912 139.817 152.912H137.561V156H134.969V144.8H139.817ZM139.673 150.8C140.451 150.8 141.043 150.635 141.449 150.304C141.854 149.963 142.057 149.483 142.057 148.864C142.057 148.235 141.854 147.755 141.449 147.424C141.043 147.083 140.451 146.912 139.673 146.912H137.561V150.8H139.673ZM151.46 156.192C149.86 156.192 148.612 155.749 147.716 154.864C146.831 153.979 146.388 152.715 146.388 151.072V144.8H148.98V150.976C148.98 152.981 149.812 153.984 151.476 153.984C152.287 153.984 152.906 153.744 153.332 153.264C153.759 152.773 153.972 152.011 153.972 150.976V144.8H156.532V151.072C156.532 152.715 156.084 153.979 155.188 154.864C154.303 155.749 153.06 156.192 151.46 156.192ZM157.926 159.104C158.598 157.92 159.088 156.72 159.398 155.504C159.718 154.277 159.878 152.981 159.878 151.616C159.878 150.251 159.718 148.96 159.398 147.744C159.088 146.517 158.598 145.312 157.926 144.128H160.31C160.96 145.077 161.456 146.197 161.798 147.488C162.15 148.768 162.326 150.144 162.326 151.616C162.326 153.088 162.155 154.464 161.814 155.744C161.472 157.013 160.971 158.133 160.31 159.104H157.926Z" fill="#333333"/>
</g>
<defs>
<filter id="filter0_d" x="0" y="0" width="180" height="184" filterUnits="userSpaceOnUse" color-interpolation-filters="sRGB">
<feFlood flood-opacity="0" result="BackgroundImageFix"/>
<feColorMatrix in="SourceAlpha" type="matrix" values="0 0 0 0 0 0 0 0 0 0 0 0 0 0 0 0 0 0 127 0" result="hardAlpha"/>
<feOffset dy="4"/>
<feColorMatrix type="matrix" values="0 0 0 0 0 0 0 0 0 0 0 0 0 0 0 0 0 0 0.25 0"/>
<feBlend mode="normal" in2="BackgroundImageFix" result="effect1_dropShadow"/>
<feBlend mode="normal" in="SourceGraphic" in2="effect1_dropShadow" result="shape"/>
</filter>
<linearGradient id="paint0_linear" x1="85.3404" y1="22.4898" x2="94.9163" y2="100.48" gradientUnits="userSpaceOnUse">
<stop stop-color="#808285"/>
<stop offset="0.6" stop-color="#808285"/>
<stop offset="1" stop-color="white"/>
</linearGradient>
</defs>
</svg>
