<svg width="180" height="184" viewBox="0 0 180 184" fill="none" xmlns="http://www.w3.org/2000/svg">
<g id="RAM 3" filter="url(#filter0_d)">
<rect id="bg" width="180" height="180" rx="20"/>
<g id="RAM">
<path id="Vector" fill-rule="evenodd" clip-rule="evenodd" d="M26.3208 77.3042L22.9352 75.3293V90.6253L26.3208 92.6001V77.3042Z" fill="#7BAB33"/>
<path id="Vector_2" fill-rule="evenodd" clip-rule="evenodd" d="M26.3208 103.853L22.9352 101.878V107.74L26.3208 109.715V103.853Z" fill="#7BAB33"/>
<path id="Vector_3" fill-rule="evenodd" clip-rule="evenodd" d="M26.3208 109.704L22.9352 107.729L26.4716 112.194L29.8572 114.169L26.3208 109.704Z" fill="#57742B"/>
<path id="Vector_4" fill-rule="evenodd" clip-rule="evenodd" d="M26.3208 116.074L22.9352 114.099V120.579L26.3208 122.553V116.074Z" fill="#7BAB33"/>
<path id="Vector_5" fill-rule="evenodd" clip-rule="evenodd" d="M29.8484 86.6496L26.4628 84.6748V99.9707L29.8484 101.946V86.6496Z" fill="#7BAB33"/>
<path id="Vector_6" fill-rule="evenodd" clip-rule="evenodd" d="M29.0291 121.089L25.6436 119.115V133.165L29.0291 135.14V121.089Z" fill="#7BAB33"/>
<path id="Vector_7" fill-rule="evenodd" clip-rule="evenodd" d="M156.992 6.80307L153.606 4.82825L22.9352 75.3318L26.3208 77.3066L156.992 6.80307H156.992Z" fill="#AFCA49"/>
<path id="Vector_8" fill-rule="evenodd" clip-rule="evenodd" d="M29.8517 101.947L26.4661 99.972L22.9352 101.884L26.3208 103.859L29.8517 101.947Z" fill="#AFCA49"/>
<path id="Vector_9" fill-rule="evenodd" clip-rule="evenodd" d="M156.994 33.335L153.609 31.3602L150.078 33.2719L153.463 35.2467L156.994 33.335Z" fill="#AFCA49"/>
<path id="Vector_10" fill-rule="evenodd" clip-rule="evenodd" d="M156.994 45.5728L153.609 43.598L150.078 45.5097L153.463 47.4845L156.994 45.5728Z" fill="#AFCA49"/>
<path id="Vector_11" fill-rule="evenodd" clip-rule="evenodd" d="M29.8517 114.168L26.4661 112.193L22.9352 114.105L26.3208 116.08L29.8517 114.168Z" fill="#AFCA49"/>
<path id="Vector_12" d="M26.329 122.549L29.0358 121.089V135.134L154.292 67.5513V53.5063L157 52.0453V45.5627L153.467 47.4689L157 39.2096V33.3408L153.467 35.2469V24.0061L157 22.1V6.80103L26.329 77.3046V92.6036L29.86 90.6984V101.939L26.329 103.844V109.713L29.86 114.161L26.329 116.066V122.549L26.329 122.549Z" fill="#5E8228"/>
<g id="Group">
<path id="Vector_13" d="M45.7318 109.009L34.9055 114.85V85.3167L45.7318 79.4753V109.009Z" fill="#4E4C4F"/>
<path id="Vector_14" d="M58.3197 102.221L47.4944 108.062V78.5286L58.3197 72.6877V102.221Z" fill="#4E4C4F"/>
<path id="Vector_15" d="M70.8918 95.4334L60.0665 101.274V71.741L70.8918 65.9001V95.4334Z" fill="#4E4C4F"/>
<path id="Vector_16" d="M83.4817 88.6458L72.6554 94.4872V64.9538L83.4817 59.1125V88.6458Z" fill="#4E4C4F"/>
<path id="Vector_17" d="M109.946 74.3684L99.1205 80.2092V50.6759L109.946 44.8351V74.3684Z" fill="#4E4C4F"/>
<path id="Vector_18" d="M122.537 67.5808L111.709 73.4226V43.8893L122.537 38.0474V67.5808Z" fill="#4E4C4F"/>
<path id="Vector_19" d="M135.107 60.7931L124.281 66.6339V37.1006L135.107 31.2598V60.7931Z" fill="#4E4C4F"/>
<path id="Vector_20" d="M147.695 54.0056L136.87 59.8459V30.3125L147.695 24.4722V54.0056Z" fill="#4E4C4F"/>
<path id="Vector_21" d="M33.1097 125.601L30.4751 127.023V134.353L33.1097 132.931V125.601Z" fill="#EBCF6D"/>
<path id="Vector_22" d="M36.7367 123.645L34.103 125.066V132.396L36.7367 130.975V123.645Z" fill="#EBCF6D"/>
<path id="Vector_23" d="M40.3497 121.689L37.7141 123.111V130.441L40.3497 129.019V121.689Z" fill="#EBCF6D"/>
<path id="Vector_24" d="M43.9776 119.733L41.342 121.155V128.485L43.9776 127.063V119.733Z" fill="#EBCF6D"/>
<path id="Vector_25" d="M47.6035 117.794L44.9698 119.215V126.545L47.6035 125.124V117.794Z" fill="#EBCF6D"/>
<path id="Vector_26" d="M51.2157 115.838L48.5811 117.259V124.589L51.2157 123.168V115.838Z" fill="#EBCF6D"/>
<path id="Vector_27" d="M54.8435 113.882L52.2089 115.303V122.633L54.8435 121.212V113.882Z" fill="#EBCF6D"/>
<path id="Vector_28" d="M58.4705 111.926L55.8368 113.347V120.677L58.4705 119.256V111.926Z" fill="#EBCF6D"/>
<path id="Vector_29" d="M62.0806 109.97L59.4479 111.39V118.72L62.0806 117.3V109.97Z" fill="#EBCF6D"/>
<path id="Vector_30" d="M65.7095 108.013L63.0758 109.435V116.765L65.7095 115.344V108.013Z" fill="#EBCF6D"/>
<path id="Vector_31" d="M69.3392 106.057L66.7036 107.479V114.81L69.3392 113.388V106.057Z" fill="#EBCF6D"/>
<path id="Vector_32" d="M72.9485 104.101L70.3148 105.522V112.853L72.9485 111.432V104.101Z" fill="#EBCF6D"/>
<path id="Vector_33" d="M76.5745 102.145L73.9427 103.565V110.895L76.5745 109.475V102.145Z" fill="#EBCF6D"/>
<path id="Vector_34" d="M80.2042 100.206L77.5706 101.627V108.957L80.2042 107.536V100.206Z" fill="#EBCF6D"/>
<path id="Vector_35" d="M91.0721 94.338L88.4375 95.7594V103.09L91.0721 101.668V94.338Z" fill="#EBCF6D"/>
<path id="Vector_36" d="M94.6842 92.3819L92.0486 93.8039V101.134L94.6842 99.712V92.3819Z" fill="#EBCF6D"/>
<path id="Vector_37" d="M98.3121 90.4258L95.6765 91.8479V99.178L98.3121 97.756V90.4258Z" fill="#EBCF6D"/>
<path id="Vector_38" d="M101.939 88.4698L99.3043 89.8913V97.2214L101.939 95.7999V88.4698Z" fill="#EBCF6D"/>
<path id="Vector_39" d="M105.547 86.5138L102.916 87.9338V95.2639L105.547 93.8438V86.5138Z" fill="#EBCF6D"/>
<path id="Vector_40" d="M109.178 84.5577L106.543 85.9793V93.3093L109.178 91.8879V84.5577Z" fill="#EBCF6D"/>
<path id="Vector_41" d="M112.807 82.6017L110.171 84.0238V91.3538L112.807 89.9318V82.6017Z" fill="#EBCF6D"/>
<path id="Vector_42" d="M116.416 80.6624L113.782 82.0834V89.4135L116.416 87.9925V80.6624Z" fill="#EBCF6D"/>
<path id="Vector_43" d="M120.044 78.7063L117.41 80.1272V87.4574L120.044 86.0363V78.7063Z" fill="#EBCF6D"/>
<path id="Vector_44" d="M123.657 76.7503L121.021 78.1723V85.5024L123.657 84.0804V76.7503Z" fill="#EBCF6D"/>
<path id="Vector_45" d="M127.285 74.7943L124.649 76.2163V83.5464L127.285 82.1244V74.7943Z" fill="#EBCF6D"/>
<path id="Vector_46" d="M130.912 72.8382L128.277 74.2597V81.5898L130.912 80.1683V72.8382Z" fill="#EBCF6D"/>
<path id="Vector_47" d="M134.522 70.8821L131.888 72.3032V79.6332L134.522 78.2123V70.8821Z" fill="#EBCF6D"/>
<path id="Vector_48" d="M138.152 68.9261L135.516 70.3482V77.6783L138.152 76.2563V68.9261Z" fill="#EBCF6D"/>
<path id="Vector_49" d="M141.78 66.9701L139.144 68.3922V75.7222L141.78 74.3002V66.9701Z" fill="#EBCF6D"/>
<path id="Vector_50" d="M145.404 65.014L142.772 66.4341V73.7642L145.404 72.3442V65.014Z" fill="#EBCF6D"/>
<path id="Vector_51" d="M149.018 63.058L146.383 64.4795V71.8096L149.018 70.3881V63.058Z" fill="#EBCF6D"/>
<path id="Vector_52" d="M152.646 61.1186L150.011 62.5406V69.8707L152.646 68.4487V61.1186Z" fill="#EBCF6D"/>
<path id="Vector_53" d="M33.2671 89.038L35.5014 87.8325V85.9788L33.2671 87.1842V89.038Z" fill="#BFBFBF"/>
<path id="Vector_54" d="M33.2671 93.1355L35.5014 91.9299V90.0748L33.2671 91.2803V93.1355Z" fill="#BFBFBF"/>
<path id="Vector_55" d="M33.2671 97.23L35.5014 96.0246V94.1708L33.2671 95.3763V97.23Z" fill="#BFBFBF"/>
<path id="Vector_56" d="M33.2671 101.326L35.5014 100.12V98.2667L33.2671 99.4722V101.326Z" fill="#BFBFBF"/>
<path id="Vector_57" d="M33.2671 105.423L35.5014 104.218V102.363L33.2671 103.568V105.423Z" fill="#BFBFBF"/>
<path id="Vector_58" d="M33.2671 109.519L35.5014 108.314V106.459L33.2671 107.664V109.519Z" fill="#BFBFBF"/>
<path id="Vector_59" d="M33.2671 113.614L35.5014 112.408V110.555L33.2671 111.76V113.614Z" fill="#BFBFBF"/>
<path id="Vector_60" d="M82.8201 62.3049L85.0533 61.1V59.2462L82.8201 60.4512V62.3049Z" fill="#BFBFBF"/>
<path id="Vector_61" d="M82.8201 66.4023L85.0533 65.1974V63.3422L82.8201 64.5472V66.4023Z" fill="#BFBFBF"/>
<path id="Vector_62" d="M82.8201 70.4969L85.0533 69.2919V67.4382L82.8201 68.6432V70.4969Z" fill="#BFBFBF"/>
<path id="Vector_63" d="M82.8201 74.5762L85.0533 73.3712V71.5175L82.8201 72.7225V74.5762Z" fill="#BFBFBF"/>
<path id="Vector_64" d="M82.8201 78.6902L85.0533 77.4852V75.6301L82.8201 76.8351V78.6902Z" fill="#BFBFBF"/>
<path id="Vector_65" d="M82.8201 82.7863L85.0533 81.5813V79.7261L82.8201 80.9311V82.7863Z" fill="#BFBFBF"/>
<path id="Vector_66" d="M82.8201 86.8809L85.0533 85.6759V83.8221L82.8201 85.0272V86.8809Z" fill="#BFBFBF"/>
<path id="Vector_67" d="M45.254 82.5686L48.078 81.0449V79.1912L45.254 80.7149V82.5686Z" fill="#BFBFBF"/>
<path id="Vector_68" d="M45.254 86.6659L48.078 85.1423V83.2871L45.254 84.8108V86.6659Z" fill="#BFBFBF"/>
<path id="Vector_69" d="M45.254 90.7606L48.078 89.2369V87.3831L45.254 88.9068V90.7606Z" fill="#BFBFBF"/>
<path id="Vector_70" d="M45.254 94.8566L48.078 93.3329V91.4791L45.254 93.0029V94.8566Z" fill="#BFBFBF"/>
<path id="Vector_71" d="M45.254 98.9539L48.078 97.4302V95.5751L45.254 97.0987V98.9539Z" fill="#BFBFBF"/>
<path id="Vector_72" d="M45.254 103.05L48.078 101.526V99.671L45.254 101.195V103.05Z" fill="#BFBFBF"/>
<path id="Vector_73" d="M45.254 107.144L48.078 105.621V103.767L45.254 105.291V107.144Z" fill="#BFBFBF"/>
<path id="Vector_74" d="M57.7761 75.8149L60.6011 74.2907V72.437L57.7761 73.9612V75.8149Z" fill="#BFBFBF"/>
<path id="Vector_75" d="M57.7761 79.9123L60.6011 78.3881V76.533L57.7761 78.0572V79.9123Z" fill="#BFBFBF"/>
<path id="Vector_76" d="M57.7761 84.0069L60.6011 82.4827V80.6289L57.7761 82.1531V84.0069Z" fill="#BFBFBF"/>
<path id="Vector_77" d="M57.7761 88.1029L60.6011 86.5787V84.7249L57.7761 86.2491V88.1029Z" fill="#BFBFBF"/>
<path id="Vector_78" d="M57.7761 92.2003L60.6011 90.6761V88.8209L57.7761 90.3451V92.2003Z" fill="#BFBFBF"/>
<path id="Vector_79" d="M57.7761 96.2962L60.6011 94.772V92.9169L57.7761 94.4411V96.2962Z" fill="#BFBFBF"/>
<path id="Vector_80" d="M57.7761 100.391L60.6011 98.8666V97.0129L57.7761 98.5371V100.391Z" fill="#BFBFBF"/>
<path id="Vector_81" d="M70.3984 68.9944L73.2243 67.4697V65.6159L70.3984 67.1406V68.9944Z" fill="#BFBFBF"/>
<path id="Vector_82" d="M70.3984 73.0917L73.2243 71.567V69.7119L70.3984 71.2366V73.0917Z" fill="#BFBFBF"/>
<path id="Vector_83" d="M70.3984 77.2031L73.2243 75.6784V73.8246L70.3984 75.3493V77.2031Z" fill="#BFBFBF"/>
<path id="Vector_84" d="M70.3984 81.2823L73.2243 79.7576V77.9038L70.3984 79.4285V81.2823Z" fill="#BFBFBF"/>
<path id="Vector_85" d="M70.3984 85.3797L73.2243 83.855V81.9998L70.3984 83.5245V85.3797Z" fill="#BFBFBF"/>
<path id="Vector_86" d="M70.3984 89.4924L73.2243 87.9676V86.1125L70.3984 87.6372V89.4924Z" fill="#BFBFBF"/>
<path id="Vector_87" d="M70.3984 93.5869L73.2243 92.0623V90.2085L70.3984 91.7332V93.5869Z" fill="#BFBFBF"/>
<path id="Vector_88" d="M97.4821 54.3972L99.7154 53.1922V51.3385L97.4821 52.5435V54.3972Z" fill="#BFBFBF"/>
<path id="Vector_89" d="M97.4821 58.4945L99.7154 57.2896V55.4344L97.4821 56.6394V58.4945Z" fill="#BFBFBF"/>
<path id="Vector_90" d="M97.4821 62.5892L99.7154 61.3842V59.5305L97.4821 60.7355V62.5892Z" fill="#BFBFBF"/>
<path id="Vector_91" d="M97.4821 66.6851L99.7154 65.4801V63.6264L97.4821 64.8314V66.6851Z" fill="#BFBFBF"/>
<path id="Vector_92" d="M97.4821 70.7826L99.7154 69.5776V67.7224L97.4821 68.9274V70.7826Z" fill="#BFBFBF"/>
<path id="Vector_93" d="M97.4821 74.8785L99.7154 73.6735V71.8184L97.4821 73.0234V74.8785Z" fill="#BFBFBF"/>
<path id="Vector_94" d="M97.4821 78.9732L99.7154 77.7681V75.9144L97.4821 77.1194V78.9732Z" fill="#BFBFBF"/>
<path id="Vector_95" d="M147.035 27.649L149.27 26.443V24.5892L147.035 25.7952V27.649Z" fill="#BFBFBF"/>
<path id="Vector_96" d="M147.035 31.7463L149.27 30.5403V28.6852L147.035 29.8912V31.7463Z" fill="#BFBFBF"/>
<path id="Vector_97" d="M147.035 35.841L149.27 34.635V32.7812L147.035 33.9872V35.841Z" fill="#BFBFBF"/>
<path id="Vector_98" d="M147.035 39.9369L149.27 38.7309V36.8771L147.035 38.0831V39.9369Z" fill="#BFBFBF"/>
<path id="Vector_99" d="M147.035 44.0343L149.27 42.8283V40.9731L147.035 42.1791V44.0343Z" fill="#BFBFBF"/>
<path id="Vector_100" d="M147.035 48.1302L149.27 46.9242V45.0691L147.035 46.2751V48.1302Z" fill="#BFBFBF"/>
<path id="Vector_101" d="M147.035 52.2415L149.27 51.0355V49.1818L147.035 50.3878V52.2415Z" fill="#BFBFBF"/>
<path id="Vector_102" d="M109.469 47.9273L112.291 46.4046V44.5508L109.469 46.0735V47.9273Z" fill="#BFBFBF"/>
<path id="Vector_103" d="M109.469 52.0247L112.291 50.502V48.6469L109.469 50.1695V52.0247Z" fill="#BFBFBF"/>
<path id="Vector_104" d="M109.469 56.1192L112.291 54.5965V52.7428L109.469 54.2655V56.1192Z" fill="#BFBFBF"/>
<path id="Vector_105" d="M109.469 60.2152L112.291 58.6926V56.8388L109.469 58.3615V60.2152Z" fill="#BFBFBF"/>
<path id="Vector_106" d="M109.469 64.3126L112.291 62.7899V60.9348L109.469 62.4574V64.3126Z" fill="#BFBFBF"/>
<path id="Vector_107" d="M109.469 68.4085L112.291 66.8858V65.0308L109.469 66.5534V68.4085Z" fill="#BFBFBF"/>
<path id="Vector_108" d="M109.469 72.5032L112.291 70.9805V69.1267L109.469 70.6494V72.5032Z" fill="#BFBFBF"/>
<path id="Vector_109" d="M121.991 41.1574L124.815 39.6337V37.78L121.991 39.3037V41.1574Z" fill="#BFBFBF"/>
<path id="Vector_110" d="M121.991 45.2548L124.815 43.7311V41.8759L121.991 43.3997V45.2548Z" fill="#BFBFBF"/>
<path id="Vector_111" d="M121.991 49.3661L124.815 47.8424V45.9886L121.991 47.5123V49.3661Z" fill="#BFBFBF"/>
<path id="Vector_112" d="M121.991 53.4453L124.815 51.9216V50.0679L121.991 51.5916V53.4453Z" fill="#BFBFBF"/>
<path id="Vector_113" d="M121.991 57.5427L124.815 56.019V54.1639L121.991 55.6876V57.5427Z" fill="#BFBFBF"/>
<path id="Vector_114" d="M121.991 61.6386L124.815 60.115V58.2598L121.991 59.7835V61.6386Z" fill="#BFBFBF"/>
<path id="Vector_115" d="M121.991 65.75L124.815 64.2263V62.3726L121.991 63.8962V65.75Z" fill="#BFBFBF"/>
<path id="Vector_116" d="M134.613 34.3536L137.438 32.8294V30.9756L134.613 32.4999V34.3536Z" fill="#BFBFBF"/>
<path id="Vector_117" d="M134.613 38.4509L137.438 36.9267V35.0716L134.613 36.5958V38.4509Z" fill="#BFBFBF"/>
<path id="Vector_118" d="M134.613 42.5455L137.438 41.0213V39.1675L134.613 40.6917V42.5455Z" fill="#BFBFBF"/>
<path id="Vector_119" d="M134.613 46.6415L137.438 45.1173V43.2635L134.613 44.7878V46.6415Z" fill="#BFBFBF"/>
<path id="Vector_120" d="M134.613 50.7389L137.438 49.2147V47.3595L134.613 48.8837V50.7389Z" fill="#BFBFBF"/>
<path id="Vector_121" d="M134.613 54.8348L137.438 53.3107V51.4555L134.613 52.9797V54.8348Z" fill="#BFBFBF"/>
<path id="Vector_122" d="M134.613 58.9294L137.438 57.4052V55.5515L134.613 57.0756V58.9294Z" fill="#BFBFBF"/>
</g>
</g>
<path id="Memoria RAM" d="M42.4809 156L42.4649 149.28L39.1689 154.816H38.0009L34.7209 149.424V156H32.2889V144.8H34.4329L38.6249 151.76L42.7529 144.8H44.8809L44.9129 156H42.4809ZM55.8262 151.728C55.8262 151.76 55.8102 151.984 55.7782 152.4H49.2662C49.3835 152.933 49.6609 153.355 50.0982 153.664C50.5355 153.973 51.0795 154.128 51.7302 154.128C52.1782 154.128 52.5729 154.064 52.9142 153.936C53.2662 153.797 53.5915 153.584 53.8902 153.296L55.2182 154.736C54.4075 155.664 53.2235 156.128 51.6662 156.128C50.6955 156.128 49.8369 155.941 49.0902 155.568C48.3435 155.184 47.7675 154.656 47.3622 153.984C46.9569 153.312 46.7542 152.549 46.7542 151.696C46.7542 150.853 46.9515 150.096 47.3462 149.424C47.7515 148.741 48.3009 148.213 48.9942 147.84C49.6982 147.456 50.4822 147.264 51.3462 147.264C52.1889 147.264 52.9515 147.445 53.6342 147.808C54.3169 148.171 54.8502 148.693 55.2342 149.376C55.6289 150.048 55.8262 150.832 55.8262 151.728ZM51.3622 149.152C50.7969 149.152 50.3222 149.312 49.9382 149.632C49.5542 149.952 49.3195 150.389 49.2342 150.944H53.4742C53.3889 150.4 53.1542 149.968 52.7702 149.648C52.3862 149.317 51.9169 149.152 51.3622 149.152ZM68.5119 147.264C69.5893 147.264 70.4426 147.584 71.0719 148.224C71.7119 148.853 72.0319 149.803 72.0319 151.072V156H69.5359V151.456C69.5359 150.773 69.3919 150.267 69.1039 149.936C68.8266 149.595 68.4266 149.424 67.9039 149.424C67.3173 149.424 66.8533 149.616 66.5119 150C66.1706 150.373 65.9999 150.933 65.9999 151.68V156H63.5039V151.456C63.5039 150.101 62.9599 149.424 61.8719 149.424C61.2959 149.424 60.8373 149.616 60.4959 150C60.1546 150.373 59.9839 150.933 59.9839 151.68V156H57.4879V147.392H59.8719V148.384C60.1919 148.021 60.5813 147.744 61.0399 147.552C61.5093 147.36 62.0213 147.264 62.5759 147.264C63.1839 147.264 63.7333 147.387 64.2239 147.632C64.7146 147.867 65.1093 148.213 65.4079 148.672C65.7599 148.224 66.2026 147.877 66.7359 147.632C67.2799 147.387 67.8719 147.264 68.5119 147.264ZM78.4589 156.128C77.5523 156.128 76.7363 155.941 76.0109 155.568C75.2963 155.184 74.7363 154.656 74.3309 153.984C73.9256 153.312 73.7229 152.549 73.7229 151.696C73.7229 150.843 73.9256 150.08 74.3309 149.408C74.7363 148.736 75.2963 148.213 76.0109 147.84C76.7363 147.456 77.5523 147.264 78.4589 147.264C79.3656 147.264 80.1763 147.456 80.8909 147.84C81.6056 148.213 82.1656 148.736 82.5709 149.408C82.9763 150.08 83.1789 150.843 83.1789 151.696C83.1789 152.549 82.9763 153.312 82.5709 153.984C82.1656 154.656 81.6056 155.184 80.8909 155.568C80.1763 155.941 79.3656 156.128 78.4589 156.128ZM78.4589 154.08C79.0989 154.08 79.6216 153.867 80.0269 153.44C80.4429 153.003 80.6509 152.421 80.6509 151.696C80.6509 150.971 80.4429 150.395 80.0269 149.968C79.6216 149.531 79.0989 149.312 78.4589 149.312C77.8189 149.312 77.2909 149.531 76.8749 149.968C76.4589 150.395 76.2509 150.971 76.2509 151.696C76.2509 152.421 76.4589 153.003 76.8749 153.44C77.2909 153.867 77.8189 154.08 78.4589 154.08ZM87.2313 148.528C87.53 148.112 87.93 147.797 88.4313 147.584C88.9433 147.371 89.53 147.264 90.1913 147.264V149.568C89.914 149.547 89.7273 149.536 89.6313 149.536C88.9166 149.536 88.3566 149.739 87.9513 150.144C87.546 150.539 87.3433 151.136 87.3433 151.936V156H84.8473V147.392H87.2313V148.528ZM91.6754 147.392H94.1714V156H91.6754V147.392ZM92.9234 146.192C92.4648 146.192 92.0914 146.059 91.8034 145.792C91.5154 145.525 91.3714 145.195 91.3714 144.8C91.3714 144.405 91.5154 144.075 91.8034 143.808C92.0914 143.541 92.4648 143.408 92.9234 143.408C93.3821 143.408 93.7554 143.536 94.0434 143.792C94.3314 144.048 94.4754 144.368 94.4754 144.752C94.4754 145.168 94.3314 145.515 94.0434 145.792C93.7554 146.059 93.3821 146.192 92.9234 146.192ZM99.9599 147.264C101.293 147.264 102.317 147.584 103.032 148.224C103.747 148.853 104.104 149.808 104.104 151.088V156H101.768V154.928C101.299 155.728 100.424 156.128 99.1439 156.128C98.4826 156.128 97.9066 156.016 97.4159 155.792C96.9359 155.568 96.5679 155.259 96.3119 154.864C96.0559 154.469 95.9279 154.021 95.9279 153.52C95.9279 152.72 96.2266 152.091 96.8239 151.632C97.4319 151.173 98.3653 150.944 99.6239 150.944H101.608C101.608 150.4 101.443 149.984 101.112 149.696C100.781 149.397 100.285 149.248 99.6239 149.248C99.1653 149.248 98.7119 149.323 98.2639 149.472C97.8266 149.611 97.4533 149.803 97.1439 150.048L96.2479 148.304C96.7173 147.973 97.2773 147.717 97.9279 147.536C98.5893 147.355 99.2666 147.264 99.9599 147.264ZM99.7679 154.448C100.195 154.448 100.573 154.352 100.904 154.16C101.235 153.957 101.469 153.664 101.608 153.28V152.4H99.8959C98.8719 152.4 98.3599 152.736 98.3599 153.408C98.3599 153.728 98.4826 153.984 98.7279 154.176C98.9839 154.357 99.3306 154.448 99.7679 154.448ZM118.206 156L116.046 152.88H115.918H113.662V156H111.07V144.8H115.918C116.91 144.8 117.769 144.965 118.494 145.296C119.23 145.627 119.796 146.096 120.19 146.704C120.585 147.312 120.782 148.032 120.782 148.864C120.782 149.696 120.58 150.416 120.174 151.024C119.78 151.621 119.214 152.08 118.478 152.4L120.99 156H118.206ZM118.158 148.864C118.158 148.235 117.956 147.755 117.55 147.424C117.145 147.083 116.553 146.912 115.774 146.912H113.662V150.816H115.774C116.553 150.816 117.145 150.645 117.55 150.304C117.956 149.963 118.158 149.483 118.158 148.864ZM130.212 153.6H125.012L124.02 156H121.364L126.356 144.8H128.916L133.924 156H131.204L130.212 153.6ZM129.396 151.632L127.62 147.344L125.844 151.632H129.396ZM145.278 156L145.262 149.28L141.966 154.816H140.798L137.518 149.424V156H135.086V144.8H137.23L141.422 151.76L145.55 144.8H147.678L147.71 156H145.278Z" fill="#333333"/>
</g>
<defs>
<filter id="filter0_d" x="0" y="0" width="180" height="184" filterUnits="userSpaceOnUse" color-interpolation-filters="sRGB">
<feFlood flood-opacity="0" result="BackgroundImageFix"/>
<feColorMatrix in="SourceAlpha" type="matrix" values="0 0 0 0 0 0 0 0 0 0 0 0 0 0 0 0 0 0 127 0" result="hardAlpha"/>
<feOffset dy="4"/>
<feColorMatrix type="matrix" values="0 0 0 0 0 0 0 0 0 0 0 0 0 0 0 0 0 0 0.25 0"/>
<feBlend mode="normal" in2="BackgroundImageFix" result="effect1_dropShadow"/>
<feBlend mode="normal" in="SourceGraphic" in2="effect1_dropShadow" result="shape"/>
</filter>
</defs>
</svg>
