<svg width="180" height="139" viewBox="0 0 180 139" fill="none" xmlns="http://www.w3.org/2000/svg">
<path d="M34.0645 0H160.258L128.903 34.0645H0L34.0645 0Z" fill="#595959"/>
<path d="M128.903 34.0645L160.258 0V107.613L128.903 138.968V34.0645Z" fill="#333333"/>
<rect y="34.0645" width="128.903" height="104.903" fill="#474747"/>
<ellipse cx="145.355" cy="68.7098" rx="5.6129" ry="21.871" fill="#2E2D2D"/>
<path d="M145.161 46.8388L174.34 40.7547V96.2264L145.161 90.5807V46.8388Z" fill="#2E2D2D"/>
<ellipse cx="174.34" cy="68.4906" rx="5.66038" ry="27.7358" fill="#161616"/>
<g filter="url(#filter0_i)">
<rect x="7.74194" y="109.161" width="113.419" height="24.3871" rx="12.1935" fill="#333333"/>
</g>
<path d="M37.708 118.354V120.574H41.596V122.134H37.708V125.194H35.764V116.794H42.112V118.354H37.708ZM47.1601 125.338C45.9601 125.338 45.0241 125.006 44.3521 124.342C43.6881 123.678 43.3561 122.73 43.3561 121.498V116.794H45.3001V121.426C45.3001 122.93 45.9241 123.682 47.1721 123.682C47.7801 123.682 48.2441 123.502 48.5641 123.142C48.8841 122.774 49.0441 122.202 49.0441 121.426V116.794H50.9641V121.498C50.9641 122.73 50.6281 123.678 49.9561 124.342C49.2921 125.006 48.3601 125.338 47.1601 125.338ZM60.5891 116.794V125.194H58.9931L54.8051 120.094V125.194H52.8851V116.794H54.4931L58.6691 121.894V116.794H60.5891ZM66.5965 125.338C65.7405 125.338 64.9645 125.154 64.2685 124.786C63.5805 124.41 63.0365 123.894 62.6365 123.238C62.2445 122.574 62.0485 121.826 62.0485 120.994C62.0485 120.162 62.2445 119.418 62.6365 118.762C63.0365 118.098 63.5805 117.582 64.2685 117.214C64.9645 116.838 65.7445 116.65 66.6085 116.65C67.3365 116.65 67.9925 116.778 68.5765 117.034C69.1685 117.29 69.6645 117.658 70.0645 118.138L68.8165 119.29C68.2485 118.634 67.5445 118.306 66.7045 118.306C66.1845 118.306 65.7205 118.422 65.3125 118.654C64.9045 118.878 64.5845 119.194 64.3525 119.602C64.1285 120.01 64.0165 120.474 64.0165 120.994C64.0165 121.514 64.1285 121.978 64.3525 122.386C64.5845 122.794 64.9045 123.114 65.3125 123.346C65.7205 123.57 66.1845 123.682 66.7045 123.682C67.5445 123.682 68.2485 123.35 68.8165 122.686L70.0645 123.838C69.6645 124.326 69.1685 124.698 68.5765 124.954C67.9845 125.21 67.3245 125.338 66.5965 125.338ZM71.3773 116.794H73.3213V125.194H71.3773V116.794ZM79.3828 125.338C78.5108 125.338 77.7228 125.15 77.0188 124.774C76.3228 124.398 75.7748 123.882 75.3748 123.226C74.9828 122.562 74.7868 121.818 74.7868 120.994C74.7868 120.17 74.9828 119.43 75.3748 118.774C75.7748 118.11 76.3228 117.59 77.0188 117.214C77.7228 116.838 78.5108 116.65 79.3828 116.65C80.2548 116.65 81.0388 116.838 81.7348 117.214C82.4308 117.59 82.9788 118.11 83.3788 118.774C83.7788 119.43 83.9788 120.17 83.9788 120.994C83.9788 121.818 83.7788 122.562 83.3788 123.226C82.9788 123.882 82.4308 124.398 81.7348 124.774C81.0388 125.15 80.2548 125.338 79.3828 125.338ZM79.3828 123.682C79.8788 123.682 80.3268 123.57 80.7268 123.346C81.1268 123.114 81.4388 122.794 81.6628 122.386C81.8948 121.978 82.0108 121.514 82.0108 120.994C82.0108 120.474 81.8948 120.01 81.6628 119.602C81.4388 119.194 81.1268 118.878 80.7268 118.654C80.3268 118.422 79.8788 118.306 79.3828 118.306C78.8868 118.306 78.4388 118.422 78.0388 118.654C77.6388 118.878 77.3228 119.194 77.0908 119.602C76.8668 120.01 76.7548 120.474 76.7548 120.994C76.7548 121.514 76.8668 121.978 77.0908 122.386C77.3228 122.794 77.6388 123.114 78.0388 123.346C78.4388 123.57 78.8868 123.682 79.3828 123.682ZM79.9108 114.382H81.9268L79.7548 116.11H78.2908L79.9108 114.382ZM93.1438 116.794V125.194H91.5478L87.3598 120.094V125.194H85.4398V116.794H87.0478L91.2238 121.894V116.794H93.1438Z" fill="#848484"/>
<defs>
<filter id="filter0_i" x="7.74194" y="109.161" width="113.419" height="28.3871" filterUnits="userSpaceOnUse" color-interpolation-filters="sRGB">
<feFlood flood-opacity="0" result="BackgroundImageFix"/>
<feBlend mode="normal" in="SourceGraphic" in2="BackgroundImageFix" result="shape"/>
<feColorMatrix in="SourceAlpha" type="matrix" values="0 0 0 0 0 0 0 0 0 0 0 0 0 0 0 0 0 0 127 0" result="hardAlpha"/>
<feMorphology radius="3" operator="erode" in="SourceAlpha" result="effect1_innerShadow"/>
<feOffset dy="4"/>
<feGaussianBlur stdDeviation="3"/>
<feComposite in2="hardAlpha" operator="arithmetic" k2="-1" k3="1"/>
<feColorMatrix type="matrix" values="0 0 0 0 0 0 0 0 0 0 0 0 0 0 0 0 0 0 0.25 0"/>
<feBlend mode="normal" in2="shape" result="effect1_innerShadow"/>
</filter>
</defs>
</svg>
