<svg width="66" height="66" viewBox="0 0 66 66" fill="none" xmlns="http://www.w3.org/2000/svg">
<path d="M3 3L3 0.5C2.10127 0.5 1.27169 0.982407 0.827188 1.76352C0.382681 2.54463 0.391652 3.50423 0.850686 4.27689L3 3ZM3 63L0.939895 61.5837C0.41393 62.3487 0.355229 63.3422 0.787444 64.1639C1.21966 64.9855 2.0716 65.5 3 65.5L3 63ZM3 65.5C3.01216 65.5 3.02434 65.5 3.03654 65.5C3.04875 65.5 3.06097 65.5 3.07321 65.5C3.08545 65.5 3.09771 65.5 3.11 65.5C3.12228 65.5 3.13458 65.5 3.1469 65.5C3.15923 65.5 3.17157 65.5 3.18393 65.5C3.1963 65.5 3.20868 65.5 3.22108 65.5C3.23349 65.5 3.24591 65.5 3.25835 65.5C3.2708 65.5 3.28326 65.5 3.29574 65.5C3.30823 65.5 3.32073 65.5 3.33325 65.5C3.34578 65.5 3.35832 65.5 3.37088 65.5C3.38345 65.5 3.39603 65.5 3.40863 65.5C3.42124 65.5 3.43386 65.5 3.4465 65.5C3.45915 65.5 3.47181 65.5 3.48449 65.5C3.49718 65.5 3.50988 65.5 3.5226 65.5C3.53532 65.5 3.54807 65.5 3.56083 65.5C3.57359 65.5 3.58637 65.5 3.59917 65.5C3.61197 65.5 3.6248 65.5 3.63764 65.5C3.65048 65.5 3.66334 65.5 3.67622 65.5C3.6891 65.5 3.702 65.5 3.71492 65.5C3.72784 65.5 3.74078 65.5 3.75374 65.5C3.7667 65.5 3.77968 65.5 3.79267 65.5C3.80567 65.5 3.81869 65.5 3.83173 65.5C3.84476 65.5 3.85782 65.5 3.8709 65.5C3.88397 65.5 3.89707 65.5 3.91018 65.5C3.9233 65.5 3.93644 65.5 3.94959 65.5C3.96274 65.5 3.97592 65.5 3.98911 65.5C4.0023 65.5 4.01552 65.5 4.02875 65.5C4.04198 65.5 4.05523 65.5 4.0685 65.5C4.08177 65.5 4.09506 65.5 4.10837 65.5C4.12168 65.5 4.13501 65.5 4.14836 65.5C4.1617 65.5 4.17507 65.5 4.18846 65.5C4.20184 65.5 4.21525 65.5 4.22867 65.5C4.2421 65.5 4.25554 65.5 4.269 65.5C4.28247 65.5 4.29595 65.5 4.30945 65.5C4.32295 65.5 4.33647 65.5 4.35001 65.5C4.36355 65.5 4.37711 65.5 4.39069 65.5C4.40426 65.5 4.41786 65.5 4.43148 65.5C4.44509 65.5 4.45873 65.5 4.47238 65.5C4.48603 65.5 4.49971 65.5 4.5134 65.5C4.52709 65.5 4.5408 65.5 4.55453 65.5C4.56826 65.5 4.58201 65.5 4.59577 65.5C4.60954 65.5 4.62333 65.5 4.63713 65.5C4.65094 65.5 4.66476 65.5 4.6786 65.5C4.69245 65.5 4.70631 65.5 4.72019 65.5C4.73407 65.5 4.74797 65.5 4.76188 65.5C4.7758 65.5 4.78974 65.5 4.80369 65.5C4.81765 65.5 4.83162 65.5 4.84561 65.5C4.85961 65.5 4.87362 65.5 4.88765 65.5C4.90168 65.5 4.91573 65.5 4.92979 65.5C4.94386 65.5 4.95795 65.5 4.97205 65.5C4.98615 65.5 5.00028 65.5 5.01442 65.5C5.02856 65.5 5.04272 65.5 5.0569 65.5C5.07108 65.5 5.08527 65.5 5.09949 65.5C5.1137 65.5 5.12794 65.5 5.14219 65.5C5.15644 65.5 5.17071 65.5 5.185 65.5C5.19929 65.5 5.2136 65.5 5.22792 65.5C5.24225 65.5 5.25659 65.5 5.27096 65.5C5.28532 65.5 5.2997 65.5 5.3141 65.5C5.3285 65.5 5.34292 65.5 5.35735 65.5C5.37179 65.5 5.38624 65.5 5.40071 65.5C5.41518 65.5 5.42968 65.5 5.44418 65.5C5.45869 65.5 5.47322 65.5 5.48776 65.5C5.50231 65.5 5.51687 65.5 5.53145 65.5C5.54603 65.5 5.56063 65.5 5.57525 65.5C5.58987 65.5 5.6045 65.5 5.61916 65.5C5.63381 65.5 5.64848 65.5 5.66317 65.5C5.67786 65.5 5.69257 65.5 5.70729 65.5C5.72202 65.5 5.73676 65.5 5.75152 65.5C5.76629 65.5 5.78107 65.5 5.79586 65.5C5.81066 65.5 5.82548 65.5 5.84031 65.5C5.85514 65.5 5.86999 65.5 5.88486 65.5C5.89973 65.5 5.91462 65.5 5.92952 65.5C5.94443 65.5 5.95935 65.5 5.97429 65.5C5.98923 65.5 6.00419 65.5 6.01916 65.5C6.03414 65.5 6.04913 65.5 6.06414 65.5C6.07915 65.5 6.09418 65.5 6.10923 65.5C6.12427 65.5 6.13934 65.5 6.15442 65.5C6.1695 65.5 6.1846 65.5 6.19972 65.5C6.21483 65.5 6.22997 65.5 6.24512 65.5C6.26027 65.5 6.27544 65.5 6.29063 65.5C6.30582 65.5 6.32102 65.5 6.33624 65.5C6.35147 65.5 6.36671 65.5 6.38196 65.5C6.39722 65.5 6.41249 65.5 6.42779 65.5C6.44308 65.5 6.45839 65.5 6.47372 65.5C6.48904 65.5 6.50439 65.5 6.51975 65.5C6.53511 65.5 6.55049 65.5 6.56589 65.5C6.58128 65.5 6.59669 65.5 6.61213 65.5C6.62756 65.5 6.643 65.5 6.65847 65.5C6.67394 65.5 6.68942 65.5 6.70492 65.5C6.72042 65.5 6.73594 65.5 6.75147 65.5C6.767 65.5 6.78256 65.5 6.79812 65.5C6.81369 65.5 6.82928 65.5 6.84488 65.5C6.86048 65.5 6.8761 65.5 6.89174 65.5C6.90738 65.5 6.92303 65.5 6.9387 65.5C6.95438 65.5 6.97006 65.5 6.98577 65.5C7.00147 65.5 7.0172 65.5 7.03294 65.5C7.04868 65.5 7.06443 65.5 7.0802 65.5C7.09598 65.5 7.11177 65.5 7.12758 65.5C7.14338 65.5 7.15921 65.5 7.17505 65.5C7.19089 65.5 7.20675 65.5 7.22262 65.5C7.23849 65.5 7.25439 65.5 7.27029 65.5C7.2862 65.5 7.30213 65.5 7.31807 65.5C7.33401 65.5 7.34997 65.5 7.36595 65.5C7.38192 65.5 7.39791 65.5 7.41392 65.5C7.42993 65.5 7.44596 65.5 7.462 65.5C7.47804 65.5 7.4941 65.5 7.51017 65.5C7.52625 65.5 7.54234 65.5 7.55845 65.5C7.57456 65.5 7.59068 65.5 7.60683 65.5C7.62297 65.5 7.63913 65.5 7.6553 65.5C7.67147 65.5 7.68767 65.5 7.70387 65.5C7.72008 65.5 7.73631 65.5 7.75255 65.5C7.76879 65.5 7.78505 65.5 7.80132 65.5C7.81759 65.5 7.83388 65.5 7.85019 65.5C7.8665 65.5 7.88282 65.5 7.89916 65.5C7.9155 65.5 7.93185 65.5 7.94823 65.5C7.9646 65.5 7.98099 65.5 7.99739 65.5C8.01379 65.5 8.03022 65.5 8.04665 65.5C8.06309 65.5 8.07954 65.5 8.09601 65.5C8.11248 65.5 8.12897 65.5 8.14547 65.5C8.16197 65.5 8.17849 65.5 8.19502 65.5C8.21156 65.5 8.22811 65.5 8.24468 65.5C8.26124 65.5 8.27782 65.5 8.29442 65.5C8.31102 65.5 8.32764 65.5 8.34427 65.5C8.3609 65.5 8.37755 65.5 8.39421 65.5C8.41087 65.5 8.42755 65.5 8.44424 65.5C8.46094 65.5 8.47765 65.5 8.49438 65.5C8.5111 65.5 8.52785 65.5 8.54461 65.5C8.56136 65.5 8.57814 65.5 8.59493 65.5C8.61172 65.5 8.62853 65.5 8.64535 65.5C8.66217 65.5 8.67901 65.5 8.69586 65.5C8.71272 65.5 8.72959 65.5 8.74647 65.5C8.76336 65.5 8.78026 65.5 8.79717 65.5C8.81409 65.5 8.83102 65.5 8.84797 65.5C8.86492 65.5 8.88188 65.5 8.89886 65.5C8.91584 65.5 8.93284 65.5 8.94985 65.5C8.96686 65.5 8.98389 65.5 9.00093 65.5C9.01797 65.5 9.03503 65.5 9.0521 65.5C9.06918 65.5 9.08626 65.5 9.10337 65.5C9.12047 65.5 9.13759 65.5 9.15473 65.5C9.17186 65.5 9.18901 65.5 9.20618 65.5C9.22335 65.5 9.24053 65.5 9.25773 65.5C9.27492 65.5 9.29214 65.5 9.30936 65.5C9.32659 65.5 9.34384 65.5 9.36109 65.5C9.37835 65.5 9.39563 65.5 9.41292 65.5C9.43021 65.5 9.44751 65.5 9.46483 65.5C9.48215 65.5 9.49949 65.5 9.51684 65.5C9.53419 65.5 9.55155 65.5 9.56893 65.5C9.58632 65.5 9.60371 65.5 9.62112 65.5C9.63853 65.5 9.65596 65.5 9.6734 65.5C9.69084 65.5 9.7083 65.5 9.72577 65.5C9.74325 65.5 9.76073 65.5 9.77823 65.5C9.79574 65.5 9.81325 65.5 9.83079 65.5C9.84832 65.5 9.86587 65.5 9.88343 65.5C9.90099 65.5 9.91857 65.5 9.93616 65.5C9.95375 65.5 9.97136 65.5 9.98898 65.5C10.0066 65.5 10.0242 65.5 10.0419 65.5C10.0595 65.5 10.0772 65.5 10.0949 65.5C10.1126 65.5 10.1303 65.5 10.148 65.5C10.1657 65.5 10.1834 65.5 10.2012 65.5C10.2189 65.5 10.2367 65.5 10.2544 65.5C10.2722 65.5 10.29 65.5 10.3078 65.5C10.3256 65.5 10.3434 65.5 10.3612 65.5C10.3791 65.5 10.3969 65.5 10.4148 65.5C10.4326 65.5 10.4505 65.5 10.4684 65.5C10.4863 65.5 10.5042 65.5 10.5221 65.5C10.54 65.5 10.5579 65.5 10.5759 65.5C10.5938 65.5 10.6118 65.5 10.6298 65.5C10.6478 65.5 10.6657 65.5 10.6837 65.5C10.7018 65.5 10.7198 65.5 10.7378 65.5C10.7558 65.5 10.7739 65.5 10.7919 65.5C10.81 65.5 10.8281 65.5 10.8462 65.5C10.8643 65.5 10.8824 65.5 10.9005 65.5C10.9186 65.5 10.9368 65.5 10.9549 65.5C10.973 65.5 10.9912 65.5 11.0094 65.5C11.0276 65.5 11.0458 65.5 11.064 65.5C11.0822 65.5 11.1004 65.5 11.1186 65.5C11.1369 65.5 11.1551 65.5 11.1734 65.5C11.1916 65.5 11.2099 65.5 11.2282 65.5C11.2465 65.5 11.2648 65.5 11.2831 65.5C11.3014 65.5 11.3198 65.5 11.3381 65.5C11.3565 65.5 11.3748 65.5 11.3932 65.5C11.4116 65.5 11.43 65.5 11.4484 65.5C11.4668 65.5 11.4852 65.5 11.5036 65.5C11.5221 65.5 11.5405 65.5 11.559 65.5C11.5774 65.5 11.5959 65.5 11.6144 65.5C11.6329 65.5 11.6514 65.5 11.6699 65.5C11.6884 65.5 11.7069 65.5 11.7255 65.5C11.744 65.5 11.7626 65.5 11.7811 65.5C11.7997 65.5 11.8183 65.5 11.8369 65.5C11.8555 65.5 11.8741 65.5 11.8927 65.5C11.9114 65.5 11.93 65.5 11.9486 65.5C11.9673 65.5 11.986 65.5 12.0046 65.5C12.0233 65.5 12.042 65.5 12.0607 65.5C12.0794 65.5 12.0982 65.5 12.1169 65.5C12.1356 65.5 12.1544 65.5 12.1731 65.5C12.1919 65.5 12.2107 65.5 12.2295 65.5C12.2482 65.5 12.2671 65.5 12.2859 65.5C12.3047 65.5 12.3235 65.5 12.3424 65.5C12.3612 65.5 12.3801 65.5 12.3989 65.5C12.4178 65.5 12.4367 65.5 12.4556 65.5C12.4745 65.5 12.4934 65.5 12.5123 65.5C12.5312 65.5 12.5502 65.5 12.5691 65.5C12.5881 65.5 12.607 65.5 12.626 65.5C12.645 65.5 12.664 65.5 12.683 65.5C12.702 65.5 12.721 65.5 12.74 65.5C12.759 65.5 12.7781 65.5 12.7971 65.5C12.8162 65.5 12.8353 65.5 12.8544 65.5C12.8734 65.5 12.8925 65.5 12.9116 65.5C12.9307 65.5 12.9499 65.5 12.969 65.5C12.9881 65.5 13.0073 65.5 13.0264 65.5C13.0456 65.5 13.0648 65.5 13.084 65.5C13.1032 65.5 13.1224 65.5 13.1416 65.5C13.1608 65.5 13.18 65.5 13.1992 65.5C13.2185 65.5 13.2377 65.5 13.257 65.5C13.2763 65.5 13.2955 65.5 13.3148 65.5C13.3341 65.5 13.3534 65.5 13.3727 65.5C13.3921 65.5 13.4114 65.5 13.4307 65.5C13.4501 65.5 13.4694 65.5 13.4888 65.5C13.5082 65.5 13.5275 65.5 13.5469 65.5C13.5663 65.5 13.5857 65.5 13.6051 65.5C13.6246 65.5 13.644 65.5 13.6634 65.5C13.6829 65.5 13.7023 65.5 13.7218 65.5C13.7413 65.5 13.7608 65.5 13.7802 65.5C13.7997 65.5 13.8192 65.5 13.8388 65.5C13.8583 65.5 13.8778 65.5 13.8974 65.5C13.9169 65.5 13.9365 65.5 13.956 65.5C13.9756 65.5 13.9952 65.5 14.0148 65.5C14.0344 65.5 14.054 65.5 14.0736 65.5C14.0932 65.5 14.1128 65.5 14.1325 65.5C14.1521 65.5 14.1718 65.5 14.1915 65.5C14.2111 65.5 14.2308 65.5 14.2505 65.5C14.2702 65.5 14.2899 65.5 14.3096 65.5C14.3293 65.5 14.3491 65.5 14.3688 65.5C14.3885 65.5 14.4083 65.5 14.4281 65.5C14.4478 65.5 14.4676 65.5 14.4874 65.5C14.5072 65.5 14.527 65.5 14.5468 65.5C14.5666 65.5 14.5865 65.5 14.6063 65.5C14.6261 65.5 14.646 65.5 14.6658 65.5C14.6857 65.5 14.7056 65.5 14.7255 65.5C14.7454 65.5 14.7653 65.5 14.7852 65.5C14.8051 65.5 14.825 65.5 14.8449 65.5C14.8649 65.5 14.8848 65.5 14.9048 65.5C14.9247 65.5 14.9447 65.5 14.9647 65.5C14.9847 65.5 15.0047 65.5 15.0247 65.5C15.0447 65.5 15.0647 65.5 15.0847 65.5C15.1048 65.5 15.1248 65.5 15.1449 65.5C15.1649 65.5 15.185 65.5 15.2051 65.5C15.2251 65.5 15.2452 65.5 15.2653 65.5C15.2854 65.5 15.3055 65.5 15.3257 65.5C15.3458 65.5 15.3659 65.5 15.3861 65.5C15.4062 65.5 15.4264 65.5 15.4466 65.5C15.4667 65.5 15.4869 65.5 15.5071 65.5C15.5273 65.5 15.5475 65.5 15.5677 65.5C15.5879 65.5 15.6082 65.5 15.6284 65.5C15.6487 65.5 15.6689 65.5 15.6892 65.5C15.7094 65.5 15.7297 65.5 15.75 65.5C15.7703 65.5 15.7906 65.5 15.8109 65.5C15.8312 65.5 15.8515 65.5 15.8719 65.5C15.8922 65.5 15.9125 65.5 15.9329 65.5C15.9532 65.5 15.9736 65.5 15.994 65.5C16.0144 65.5 16.0348 65.5 16.0552 65.5C16.0756 65.5 16.096 65.5 16.1164 65.5C16.1368 65.5 16.1572 65.5 16.1777 65.5C16.1981 65.5 16.2186 65.5 16.2391 65.5C16.2595 65.5 16.28 65.5 16.3005 65.5C16.321 65.5 16.3415 65.5 16.362 65.5C16.3825 65.5 16.403 65.5 16.4236 65.5C16.4441 65.5 16.4646 65.5 16.4852 65.5C16.5058 65.5 16.5263 65.5 16.5469 65.5C16.5675 65.5 16.5881 65.5 16.6087 65.5C16.6293 65.5 16.6499 65.5 16.6705 65.5C16.6911 65.5 16.7118 65.5 16.7324 65.5C16.7531 65.5 16.7737 65.5 16.7944 65.5C16.815 65.5 16.8357 65.5 16.8564 65.5C16.8771 65.5 16.8978 65.5 16.9185 65.5C16.9392 65.5 16.9599 65.5 16.9807 65.5C17.0014 65.5 17.0221 65.5 17.0429 65.5C17.0636 65.5 17.0844 65.5 17.1052 65.5C17.1259 65.5 17.1467 65.5 17.1675 65.5C17.1883 65.5 17.2091 65.5 17.2299 65.5C17.2508 65.5 17.2716 65.5 17.2924 65.5C17.3133 65.5 17.3341 65.5 17.355 65.5C17.3758 65.5 17.3967 65.5 17.4176 65.5C17.4385 65.5 17.4593 65.5 17.4802 65.5C17.5011 65.5 17.5221 65.5 17.543 65.5C17.5639 65.5 17.5848 65.5 17.6058 65.5C17.6267 65.5 17.6477 65.5 17.6686 65.5C17.6896 65.5 17.7106 65.5 17.7315 65.5C17.7525 65.5 17.7735 65.5 17.7945 65.5C17.8155 65.5 17.8365 65.5 17.8576 65.5C17.8786 65.5 17.8996 65.5 17.9207 65.5C17.9417 65.5 17.9628 65.5 17.9838 65.5C18.0049 65.5 18.026 65.5 18.0471 65.5C18.0682 65.5 18.0893 65.5 18.1104 65.5C18.1315 65.5 18.1526 65.5 18.1737 65.5C18.1948 65.5 18.216 65.5 18.2371 65.5C18.2583 65.5 18.2794 65.5 18.3006 65.5C18.3218 65.5 18.3429 65.5 18.3641 65.5C18.3853 65.5 18.4065 65.5 18.4277 65.5C18.4489 65.5 18.4701 65.5 18.4914 65.5C18.5126 65.5 18.5338 65.5 18.5551 65.5C18.5763 65.5 18.5976 65.5 18.6188 65.5C18.6401 65.5 18.6614 65.5 18.6827 65.5C18.704 65.5 18.7253 65.5 18.7466 65.5C18.7679 65.5 18.7892 65.5 18.8105 65.5C18.8318 65.5 18.8532 65.5 18.8745 65.5C18.8959 65.5 18.9172 65.5 18.9386 65.5C18.9599 65.5 18.9813 65.5 19.0027 65.5C19.0241 65.5 19.0455 65.5 19.0669 65.5C19.0883 65.5 19.1097 65.5 19.1311 65.5C19.1525 65.5 19.174 65.5 19.1954 65.5C19.2169 65.5 19.2383 65.5 19.2598 65.5C19.2812 65.5 19.3027 65.5 19.3242 65.5C19.3456 65.5 19.3671 65.5 19.3886 65.5C19.4101 65.5 19.4316 65.5 19.4532 65.5C19.4747 65.5 19.4962 65.5 19.5177 65.5C19.5393 65.5 19.5608 65.5 19.5824 65.5C19.6039 65.5 19.6255 65.5 19.6471 65.5C19.6686 65.5 19.6902 65.5 19.7118 65.5C19.7334 65.5 19.755 65.5 19.7766 65.5C19.7982 65.5 19.8198 65.5 19.8415 65.5C19.8631 65.5 19.8847 65.5 19.9064 65.5C19.928 65.5 19.9497 65.5 19.9713 65.5C19.993 65.5 20.0147 65.5 20.0364 65.5C20.0581 65.5 20.0797 65.5 20.1014 65.5C20.1231 65.5 20.1449 65.5 20.1666 65.5C20.1883 65.5 20.21 65.5 20.2318 65.5C20.2535 65.5 20.2752 65.5 20.297 65.5C20.3188 65.5 20.3405 65.5 20.3623 65.5C20.3841 65.5 20.4058 65.5 20.4276 65.5C20.4494 65.5 20.4712 65.5 20.493 65.5C20.5148 65.5 20.5367 65.5 20.5585 65.5C20.5803 65.5 20.6022 65.5 20.624 65.5C20.6458 65.5 20.6677 65.5 20.6896 65.5C20.7114 65.5 20.7333 65.5 20.7552 65.5C20.777 65.5 20.7989 65.5 20.8208 65.5C20.8427 65.5 20.8646 65.5 20.8865 65.5C20.9085 65.5 20.9304 65.5 20.9523 65.5C20.9742 65.5 20.9962 65.5 21.0181 65.5C21.0401 65.5 21.062 65.5 21.084 65.5C21.106 65.5 21.1279 65.5 21.1499 65.5C21.1719 65.5 21.1939 65.5 21.2159 65.5C21.2379 65.5 21.2599 65.5 21.2819 65.5C21.3039 65.5 21.326 65.5 21.348 65.5C21.37 65.5 21.3921 65.5 21.4141 65.5C21.4362 65.5 21.4582 65.5 21.4803 65.5C21.5024 65.5 21.5244 65.5 21.5465 65.5C21.5686 65.5 21.5907 65.5 21.6128 65.5C21.6349 65.5 21.657 65.5 21.6791 65.5C21.7012 65.5 21.7234 65.5 21.7455 65.5C21.7676 65.5 21.7898 65.5 21.8119 65.5C21.8341 65.5 21.8562 65.5 21.8784 65.5C21.9005 65.5 21.9227 65.5 21.9449 65.5C21.9671 65.5 21.9893 65.5 22.0115 65.5C22.0337 65.5 22.0559 65.5 22.0781 65.5C22.1003 65.5 22.1225 65.5 22.1448 65.5C22.167 65.5 22.1892 65.5 22.2115 65.5C22.2337 65.5 22.256 65.5 22.2782 65.5C22.3005 65.5 22.3228 65.5 22.345 65.5C22.3673 65.5 22.3896 65.5 22.4119 65.5C22.4342 65.5 22.4565 65.5 22.4788 65.5C22.5011 65.5 22.5234 65.5 22.5457 65.5C22.5681 65.5 22.5904 65.5 22.6127 65.5C22.6351 65.5 22.6574 65.5 22.6798 65.5C22.7021 65.5 22.7245 65.5 22.7469 65.5C22.7692 65.5 22.7916 65.5 22.814 65.5C22.8364 65.5 22.8588 65.5 22.8812 65.5C22.9036 65.5 22.926 65.5 22.9484 65.5C22.9708 65.5 22.9933 65.5 23.0157 65.5C23.0381 65.5 23.0606 65.5 23.083 65.5C23.1054 65.5 23.1279 65.5 23.1504 65.5C23.1728 65.5 23.1953 65.5 23.2178 65.5C23.2402 65.5 23.2627 65.5 23.2852 65.5C23.3077 65.5 23.3302 65.5 23.3527 65.5C23.3752 65.5 23.3977 65.5 23.4203 65.5C23.4428 65.5 23.4653 65.5 23.4878 65.5C23.5104 65.5 23.5329 65.5 23.5555 65.5C23.578 65.5 23.6006 65.5 23.6231 65.5C23.6457 65.5 23.6683 65.5 23.6909 65.5C23.7134 65.5 23.736 65.5 23.7586 65.5C23.7812 65.5 23.8038 65.5 23.8264 65.5C23.849 65.5 23.8716 65.5 23.8943 65.5C23.9169 65.5 23.9395 65.5 23.9621 65.5C23.9848 65.5 24.0074 65.5 24.0301 65.5C24.0527 65.5 24.0754 65.5 24.098 65.5C24.1207 65.5 24.1434 65.5 24.1661 65.5C24.1887 65.5 24.2114 65.5 24.2341 65.5C24.2568 65.5 24.2795 65.5 24.3022 65.5C24.3249 65.5 24.3476 65.5 24.3703 65.5C24.3931 65.5 24.4158 65.5 24.4385 65.5C24.4613 65.5 24.484 65.5 24.5067 65.5C24.5295 65.5 24.5522 65.5 24.575 65.5C24.5978 65.5 24.6205 65.5 24.6433 65.5C24.6661 65.5 24.6889 65.5 24.7116 65.5C24.7344 65.5 24.7572 65.5 24.78 65.5C24.8028 65.5 24.8256 65.5 24.8484 65.5C24.8713 65.5 24.8941 65.5 24.9169 65.5C24.9397 65.5 24.9626 65.5 24.9854 65.5C25.0082 65.5 25.0311 65.5 25.0539 65.5C25.0768 65.5 25.0996 65.5 25.1225 65.5C25.1454 65.5 25.1682 65.5 25.1911 65.5C25.214 65.5 25.2369 65.5 25.2598 65.5C25.2827 65.5 25.3056 65.5 25.3285 65.5C25.3514 65.5 25.3743 65.5 25.3972 65.5C25.4201 65.5 25.443 65.5 25.466 65.5C25.4889 65.5 25.5118 65.5 25.5348 65.5C25.5577 65.5 25.5807 65.5 25.6036 65.5C25.6266 65.5 25.6495 65.5 25.6725 65.5C25.6955 65.5 25.7184 65.5 25.7414 65.5C25.7644 65.5 25.7874 65.5 25.8104 65.5C25.8334 65.5 25.8564 65.5 25.8794 65.5C25.9024 65.5 25.9254 65.5 25.9484 65.5C25.9714 65.5 25.9944 65.5 26.0175 65.5C26.0405 65.5 26.0635 65.5 26.0866 65.5C26.1096 65.5 26.1327 65.5 26.1557 65.5C26.1788 65.5 26.2018 65.5 26.2249 65.5C26.2479 65.5 26.271 65.5 26.2941 65.5C26.3172 65.5 26.3402 65.5 26.3633 65.5C26.3864 65.5 26.4095 65.5 26.4326 65.5C26.4557 65.5 26.4788 65.5 26.5019 65.5C26.525 65.5 26.5481 65.5 26.5713 65.5C26.5944 65.5 26.6175 65.5 26.6407 65.5C26.6638 65.5 26.6869 65.5 26.7101 65.5C26.7332 65.5 26.7564 65.5 26.7795 65.5C26.8027 65.5 26.8258 65.5 26.849 65.5C26.8722 65.5 26.8953 65.5 26.9185 65.5C26.9417 65.5 26.9649 65.5 26.9881 65.5C27.0113 65.5 27.0345 65.5 27.0577 65.5C27.0809 65.5 27.1041 65.5 27.1273 65.5C27.1505 65.5 27.1737 65.5 27.1969 65.5C27.2201 65.5 27.2434 65.5 27.2666 65.5C27.2898 65.5 27.3131 65.5 27.3363 65.5C27.3596 65.5 27.3828 65.5 27.4061 65.5C27.4293 65.5 27.4526 65.5 27.4759 65.5C27.4991 65.5 27.5224 65.5 27.5457 65.5C27.5689 65.5 27.5922 65.5 27.6155 65.5C27.6388 65.5 27.6621 65.5 27.6854 65.5C27.7087 65.5 27.732 65.5 27.7553 65.5C27.7786 65.5 27.8019 65.5 27.8252 65.5C27.8485 65.5 27.8719 65.5 27.8952 65.5C27.9185 65.5 27.9418 65.5 27.9652 65.5C27.9885 65.5 28.0119 65.5 28.0352 65.5C28.0586 65.5 28.0819 65.5 28.1053 65.5C28.1286 65.5 28.152 65.5 28.1754 65.5C28.1987 65.5 28.2221 65.5 28.2455 65.5C28.2689 65.5 28.2922 65.5 28.3156 65.5C28.339 65.5 28.3624 65.5 28.3858 65.5C28.4092 65.5 28.4326 65.5 28.456 65.5C28.4794 65.5 28.5028 65.5 28.5262 65.5C28.5497 65.5 28.5731 65.5 28.5965 65.5C28.6199 65.5 28.6434 65.5 28.6668 65.5C28.6902 65.5 28.7137 65.5 28.7371 65.5C28.7605 65.5 28.784 65.5 28.8075 65.5C28.8309 65.5 28.8544 65.5 28.8778 65.5C28.9013 65.5 28.9248 65.5 28.9482 65.5C28.9717 65.5 28.9952 65.5 29.0187 65.5C29.0421 65.5 29.0656 65.5 29.0891 65.5C29.1126 65.5 29.1361 65.5 29.1596 65.5C29.1831 65.5 29.2066 65.5 29.2301 65.5C29.2536 65.5 29.2771 65.5 29.3006 65.5C29.3242 65.5 29.3477 65.5 29.3712 65.5C29.3947 65.5 29.4183 65.5 29.4418 65.5C29.4653 65.5 29.4889 65.5 29.5124 65.5C29.536 65.5 29.5595 65.5 29.5831 65.5C29.6066 65.5 29.6302 65.5 29.6537 65.5C29.6773 65.5 29.7008 65.5 29.7244 65.5C29.748 65.5 29.7716 65.5 29.7951 65.5C29.8187 65.5 29.8423 65.5 29.8659 65.5C29.8895 65.5 29.913 65.5 29.9366 65.5C29.9602 65.5 29.9838 65.5 30.0074 65.5C30.031 65.5 30.0546 65.5 30.0782 65.5C30.1019 65.5 30.1255 65.5 30.1491 65.5C30.1727 65.5 30.1963 65.5 30.2199 65.5C30.2436 65.5 30.2672 65.5 30.2908 65.5C30.3145 65.5 30.3381 65.5 30.3617 65.5C30.3854 65.5 30.409 65.5 30.4327 65.5C30.4563 65.5 30.48 65.5 30.5036 65.5C30.5273 65.5 30.551 65.5 30.5746 65.5C30.5983 65.5 30.6219 65.5 30.6456 65.5C30.6693 65.5 30.693 65.5 30.7166 65.5C30.7403 65.5 30.764 65.5 30.7877 65.5C30.8114 65.5 30.8351 65.5 30.8588 65.5C30.8825 65.5 30.9061 65.5 30.9298 65.5C30.9535 65.5 30.9773 65.5 31.001 65.5C31.0247 65.5 31.0484 65.5 31.0721 65.5C31.0958 65.5 31.1195 65.5 31.1432 65.5C31.167 65.5 31.1907 65.5 31.2144 65.5C31.2381 65.5 31.2619 65.5 31.2856 65.5C31.3094 65.5 31.3331 65.5 31.3568 65.5C31.3806 65.5 31.4043 65.5 31.4281 65.5C31.4518 65.5 31.4756 65.5 31.4993 65.5C31.5231 65.5 31.5468 65.5 31.5706 65.5C31.5944 65.5 31.6181 65.5 31.6419 65.5C31.6657 65.5 31.6894 65.5 31.7132 65.5C31.737 65.5 31.7608 65.5 31.7846 65.5C31.8083 65.5 31.8321 65.5 31.8559 65.5C31.8797 65.5 31.9035 65.5 31.9273 65.5C31.9511 65.5 31.9749 65.5 31.9987 65.5C32.0225 65.5 32.0463 65.5 32.0701 65.5C32.0939 65.5 32.1177 65.5 32.1415 65.5C32.1653 65.5 32.1891 65.5 32.213 65.5C32.2368 65.5 32.2606 65.5 32.2844 65.5C32.3082 65.5 32.3321 65.5 32.3559 65.5C32.3797 65.5 32.4036 65.5 32.4274 65.5C32.4512 65.5 32.4751 65.5 32.4989 65.5C32.5228 65.5 32.5466 65.5 32.5705 65.5C32.5943 65.5 32.6182 65.5 32.642 65.5C32.6659 65.5 32.6897 65.5 32.7136 65.5C32.7374 65.5 32.7613 65.5 32.7852 65.5C32.809 65.5 32.8329 65.5 32.8568 65.5C32.8806 65.5 32.9045 65.5 32.9284 65.5C32.9522 65.5 32.9761 65.5 33 65.5V60.5C32.9761 60.5 32.9522 60.5 32.9284 60.5C32.9045 60.5 32.8806 60.5 32.8568 60.5C32.8329 60.5 32.809 60.5 32.7852 60.5C32.7613 60.5 32.7374 60.5 32.7136 60.5C32.6897 60.5 32.6659 60.5 32.642 60.5C32.6182 60.5 32.5943 60.5 32.5705 60.5C32.5466 60.5 32.5228 60.5 32.4989 60.5C32.4751 60.5 32.4512 60.5 32.4274 60.5C32.4036 60.5 32.3797 60.5 32.3559 60.5C32.3321 60.5 32.3082 60.5 32.2844 60.5C32.2606 60.5 32.2368 60.5 32.213 60.5C32.1891 60.5 32.1653 60.5 32.1415 60.5C32.1177 60.5 32.0939 60.5 32.0701 60.5C32.0463 60.5 32.0225 60.5 31.9987 60.5C31.9749 60.5 31.9511 60.5 31.9273 60.5C31.9035 60.5 31.8797 60.5 31.8559 60.5C31.8321 60.5 31.8083 60.5 31.7846 60.5C31.7608 60.5 31.737 60.5 31.7132 60.5C31.6894 60.5 31.6657 60.5 31.6419 60.5C31.6181 60.5 31.5944 60.5 31.5706 60.5C31.5468 60.5 31.5231 60.5 31.4993 60.5C31.4756 60.5 31.4518 60.5 31.4281 60.5C31.4043 60.5 31.3806 60.5 31.3568 60.5C31.3331 60.5 31.3094 60.5 31.2856 60.5C31.2619 60.5 31.2381 60.5 31.2144 60.5C31.1907 60.5 31.167 60.5 31.1432 60.5C31.1195 60.5 31.0958 60.5 31.0721 60.5C31.0484 60.5 31.0247 60.5 31.001 60.5C30.9773 60.5 30.9535 60.5 30.9298 60.5C30.9061 60.5 30.8825 60.5 30.8588 60.5C30.8351 60.5 30.8114 60.5 30.7877 60.5C30.764 60.5 30.7403 60.5 30.7166 60.5C30.693 60.5 30.6693 60.5 30.6456 60.5C30.6219 60.5 30.5983 60.5 30.5746 60.5C30.551 60.5 30.5273 60.5 30.5036 60.5C30.48 60.5 30.4563 60.5 30.4327 60.5C30.409 60.5 30.3854 60.5 30.3617 60.5C30.3381 60.5 30.3145 60.5 30.2908 60.5C30.2672 60.5 30.2436 60.5 30.2199 60.5C30.1963 60.5 30.1727 60.5 30.1491 60.5C30.1255 60.5 30.1019 60.5 30.0782 60.5C30.0546 60.5 30.031 60.5 30.0074 60.5C29.9838 60.5 29.9602 60.5 29.9366 60.5C29.913 60.5 29.8895 60.5 29.8659 60.5C29.8423 60.5 29.8187 60.5 29.7951 60.5C29.7716 60.5 29.748 60.5 29.7244 60.5C29.7008 60.5 29.6773 60.5 29.6537 60.5C29.6302 60.5 29.6066 60.5 29.5831 60.5C29.5595 60.5 29.536 60.5 29.5124 60.5C29.4889 60.5 29.4653 60.5 29.4418 60.5C29.4183 60.5 29.3947 60.5 29.3712 60.5C29.3477 60.5 29.3242 60.5 29.3006 60.5C29.2771 60.5 29.2536 60.5 29.2301 60.5C29.2066 60.5 29.1831 60.5 29.1596 60.5C29.1361 60.5 29.1126 60.5 29.0891 60.5C29.0656 60.5 29.0421 60.5 29.0187 60.5C28.9952 60.5 28.9717 60.5 28.9482 60.5C28.9248 60.5 28.9013 60.5 28.8778 60.5C28.8544 60.5 28.8309 60.5 28.8075 60.5C28.784 60.5 28.7605 60.5 28.7371 60.5C28.7137 60.5 28.6902 60.5 28.6668 60.5C28.6434 60.5 28.6199 60.5 28.5965 60.5C28.5731 60.5 28.5497 60.5 28.5262 60.5C28.5028 60.5 28.4794 60.5 28.456 60.5C28.4326 60.5 28.4092 60.5 28.3858 60.5C28.3624 60.5 28.339 60.5 28.3156 60.5C28.2922 60.5 28.2689 60.5 28.2455 60.5C28.2221 60.5 28.1987 60.5 28.1754 60.5C28.152 60.5 28.1286 60.5 28.1053 60.5C28.0819 60.5 28.0586 60.5 28.0352 60.5C28.0119 60.5 27.9885 60.5 27.9652 60.5C27.9418 60.5 27.9185 60.5 27.8952 60.5C27.8719 60.5 27.8485 60.5 27.8252 60.5C27.8019 60.5 27.7786 60.5 27.7553 60.5C27.732 60.5 27.7087 60.5 27.6854 60.5C27.6621 60.5 27.6388 60.5 27.6155 60.5C27.5922 60.5 27.5689 60.5 27.5457 60.5C27.5224 60.5 27.4991 60.5 27.4759 60.5C27.4526 60.5 27.4293 60.5 27.4061 60.5C27.3828 60.5 27.3596 60.5 27.3363 60.5C27.3131 60.5 27.2898 60.5 27.2666 60.5C27.2434 60.5 27.2201 60.5 27.1969 60.5C27.1737 60.5 27.1505 60.5 27.1273 60.5C27.1041 60.5 27.0809 60.5 27.0577 60.5C27.0345 60.5 27.0113 60.5 26.9881 60.5C26.9649 60.5 26.9417 60.5 26.9185 60.5C26.8953 60.5 26.8722 60.5 26.849 60.5C26.8258 60.5 26.8027 60.5 26.7795 60.5C26.7564 60.5 26.7332 60.5 26.7101 60.5C26.6869 60.5 26.6638 60.5 26.6407 60.5C26.6175 60.5 26.5944 60.5 26.5713 60.5C26.5481 60.5 26.525 60.5 26.5019 60.5C26.4788 60.5 26.4557 60.5 26.4326 60.5C26.4095 60.5 26.3864 60.5 26.3633 60.5C26.3402 60.5 26.3172 60.5 26.2941 60.5C26.271 60.5 26.2479 60.5 26.2249 60.5C26.2018 60.5 26.1788 60.5 26.1557 60.5C26.1327 60.5 26.1096 60.5 26.0866 60.5C26.0635 60.5 26.0405 60.5 26.0175 60.5C25.9944 60.5 25.9714 60.5 25.9484 60.5C25.9254 60.5 25.9024 60.5 25.8794 60.5C25.8564 60.5 25.8334 60.5 25.8104 60.5C25.7874 60.5 25.7644 60.5 25.7414 60.5C25.7184 60.5 25.6955 60.5 25.6725 60.5C25.6495 60.5 25.6266 60.5 25.6036 60.5C25.5807 60.5 25.5577 60.5 25.5348 60.5C25.5118 60.5 25.4889 60.5 25.466 60.5C25.443 60.5 25.4201 60.5 25.3972 60.5C25.3743 60.5 25.3514 60.5 25.3285 60.5C25.3056 60.5 25.2827 60.5 25.2598 60.5C25.2369 60.5 25.214 60.5 25.1911 60.5C25.1682 60.5 25.1454 60.5 25.1225 60.5C25.0996 60.5 25.0768 60.5 25.0539 60.5C25.0311 60.5 25.0082 60.5 24.9854 60.5C24.9626 60.5 24.9397 60.5 24.9169 60.5C24.8941 60.5 24.8713 60.5 24.8484 60.5C24.8256 60.5 24.8028 60.5 24.78 60.5C24.7572 60.5 24.7344 60.5 24.7116 60.5C24.6889 60.5 24.6661 60.5 24.6433 60.5C24.6205 60.5 24.5978 60.5 24.575 60.5C24.5522 60.5 24.5295 60.5 24.5067 60.5C24.484 60.5 24.4613 60.5 24.4385 60.5C24.4158 60.5 24.3931 60.5 24.3703 60.5C24.3476 60.5 24.3249 60.5 24.3022 60.5C24.2795 60.5 24.2568 60.5 24.2341 60.5C24.2114 60.5 24.1887 60.5 24.1661 60.5C24.1434 60.5 24.1207 60.5 24.098 60.5C24.0754 60.5 24.0527 60.5 24.0301 60.5C24.0074 60.5 23.9848 60.5 23.9621 60.5C23.9395 60.5 23.9169 60.5 23.8943 60.5C23.8716 60.5 23.849 60.5 23.8264 60.5C23.8038 60.5 23.7812 60.5 23.7586 60.5C23.736 60.5 23.7134 60.5 23.6909 60.5C23.6683 60.5 23.6457 60.5 23.6231 60.5C23.6006 60.5 23.578 60.5 23.5555 60.5C23.5329 60.5 23.5104 60.5 23.4878 60.5C23.4653 60.5 23.4428 60.5 23.4203 60.5C23.3977 60.5 23.3752 60.5 23.3527 60.5C23.3302 60.5 23.3077 60.5 23.2852 60.5C23.2627 60.5 23.2402 60.5 23.2178 60.5C23.1953 60.5 23.1728 60.5 23.1504 60.5C23.1279 60.5 23.1054 60.5 23.083 60.5C23.0606 60.5 23.0381 60.5 23.0157 60.5C22.9933 60.5 22.9708 60.5 22.9484 60.5C22.926 60.5 22.9036 60.5 22.8812 60.5C22.8588 60.5 22.8364 60.5 22.814 60.5C22.7916 60.5 22.7692 60.5 22.7469 60.5C22.7245 60.5 22.7021 60.5 22.6798 60.5C22.6574 60.5 22.6351 60.5 22.6127 60.5C22.5904 60.5 22.5681 60.5 22.5457 60.5C22.5234 60.5 22.5011 60.5 22.4788 60.5C22.4565 60.5 22.4342 60.5 22.4119 60.5C22.3896 60.5 22.3673 60.5 22.345 60.5C22.3228 60.5 22.3005 60.5 22.2782 60.5C22.256 60.5 22.2337 60.5 22.2115 60.5C22.1892 60.5 22.167 60.5 22.1448 60.5C22.1225 60.5 22.1003 60.5 22.0781 60.5C22.0559 60.5 22.0337 60.5 22.0115 60.5C21.9893 60.5 21.9671 60.5 21.9449 60.5C21.9227 60.5 21.9005 60.5 21.8784 60.5C21.8562 60.5 21.8341 60.5 21.8119 60.5C21.7898 60.5 21.7676 60.5 21.7455 60.5C21.7234 60.5 21.7012 60.5 21.6791 60.5C21.657 60.5 21.6349 60.5 21.6128 60.5C21.5907 60.5 21.5686 60.5 21.5465 60.5C21.5244 60.5 21.5024 60.5 21.4803 60.5C21.4582 60.5 21.4362 60.5 21.4141 60.5C21.3921 60.5 21.37 60.5 21.348 60.5C21.326 60.5 21.3039 60.5 21.2819 60.5C21.2599 60.5 21.2379 60.5 21.2159 60.5C21.1939 60.5 21.1719 60.5 21.1499 60.5C21.1279 60.5 21.106 60.5 21.084 60.5C21.062 60.5 21.0401 60.5 21.0181 60.5C20.9962 60.5 20.9742 60.5 20.9523 60.5C20.9304 60.5 20.9085 60.5 20.8865 60.5C20.8646 60.5 20.8427 60.5 20.8208 60.5C20.7989 60.5 20.777 60.5 20.7552 60.5C20.7333 60.5 20.7114 60.5 20.6896 60.5C20.6677 60.5 20.6458 60.5 20.624 60.5C20.6022 60.5 20.5803 60.5 20.5585 60.5C20.5367 60.5 20.5148 60.5 20.493 60.5C20.4712 60.5 20.4494 60.5 20.4276 60.5C20.4058 60.5 20.3841 60.5 20.3623 60.5C20.3405 60.5 20.3188 60.5 20.297 60.5C20.2752 60.5 20.2535 60.5 20.2318 60.5C20.21 60.5 20.1883 60.5 20.1666 60.5C20.1449 60.5 20.1231 60.5 20.1014 60.5C20.0797 60.5 20.0581 60.5 20.0364 60.5C20.0147 60.5 19.993 60.5 19.9713 60.5C19.9497 60.5 19.928 60.5 19.9064 60.5C19.8847 60.5 19.8631 60.5 19.8415 60.5C19.8198 60.5 19.7982 60.5 19.7766 60.5C19.755 60.5 19.7334 60.5 19.7118 60.5C19.6902 60.5 19.6686 60.5 19.6471 60.5C19.6255 60.5 19.6039 60.5 19.5824 60.5C19.5608 60.5 19.5393 60.5 19.5177 60.5C19.4962 60.5 19.4747 60.5 19.4532 60.5C19.4316 60.5 19.4101 60.5 19.3886 60.5C19.3671 60.5 19.3456 60.5 19.3242 60.5C19.3027 60.5 19.2812 60.5 19.2598 60.5C19.2383 60.5 19.2169 60.5 19.1954 60.5C19.174 60.5 19.1525 60.5 19.1311 60.5C19.1097 60.5 19.0883 60.5 19.0669 60.5C19.0455 60.5 19.0241 60.5 19.0027 60.5C18.9813 60.5 18.9599 60.5 18.9386 60.5C18.9172 60.5 18.8959 60.5 18.8745 60.5C18.8532 60.5 18.8318 60.5 18.8105 60.5C18.7892 60.5 18.7679 60.5 18.7466 60.5C18.7253 60.5 18.704 60.5 18.6827 60.5C18.6614 60.5 18.6401 60.5 18.6188 60.5C18.5976 60.5 18.5763 60.5 18.5551 60.5C18.5338 60.5 18.5126 60.5 18.4914 60.5C18.4701 60.5 18.4489 60.5 18.4277 60.5C18.4065 60.5 18.3853 60.5 18.3641 60.5C18.3429 60.5 18.3218 60.5 18.3006 60.5C18.2794 60.5 18.2583 60.5 18.2371 60.5C18.216 60.5 18.1948 60.5 18.1737 60.5C18.1526 60.5 18.1315 60.5 18.1104 60.5C18.0893 60.5 18.0682 60.5 18.0471 60.5C18.026 60.5 18.0049 60.5 17.9838 60.5C17.9628 60.5 17.9417 60.5 17.9207 60.5C17.8996 60.5 17.8786 60.5 17.8576 60.5C17.8365 60.5 17.8155 60.5 17.7945 60.5C17.7735 60.5 17.7525 60.5 17.7315 60.5C17.7106 60.5 17.6896 60.5 17.6686 60.5C17.6477 60.5 17.6267 60.5 17.6058 60.5C17.5848 60.5 17.5639 60.5 17.543 60.5C17.5221 60.5 17.5011 60.5 17.4802 60.5C17.4593 60.5 17.4385 60.5 17.4176 60.5C17.3967 60.5 17.3758 60.5 17.355 60.5C17.3341 60.5 17.3133 60.5 17.2924 60.5C17.2716 60.5 17.2508 60.5 17.2299 60.5C17.2091 60.5 17.1883 60.5 17.1675 60.5C17.1467 60.5 17.1259 60.5 17.1052 60.5C17.0844 60.5 17.0636 60.5 17.0429 60.5C17.0221 60.5 17.0014 60.5 16.9807 60.5C16.9599 60.5 16.9392 60.5 16.9185 60.5C16.8978 60.5 16.8771 60.5 16.8564 60.5C16.8357 60.5 16.815 60.5 16.7944 60.5C16.7737 60.5 16.7531 60.5 16.7324 60.5C16.7118 60.5 16.6911 60.5 16.6705 60.5C16.6499 60.5 16.6293 60.5 16.6087 60.5C16.5881 60.5 16.5675 60.5 16.5469 60.5C16.5263 60.5 16.5058 60.5 16.4852 60.5C16.4646 60.5 16.4441 60.5 16.4236 60.5C16.403 60.5 16.3825 60.5 16.362 60.5C16.3415 60.5 16.321 60.5 16.3005 60.5C16.28 60.5 16.2595 60.5 16.2391 60.5C16.2186 60.5 16.1981 60.5 16.1777 60.5C16.1572 60.5 16.1368 60.5 16.1164 60.5C16.096 60.5 16.0756 60.5 16.0552 60.5C16.0348 60.5 16.0144 60.5 15.994 60.5C15.9736 60.5 15.9532 60.5 15.9329 60.5C15.9125 60.5 15.8922 60.5 15.8719 60.5C15.8515 60.5 15.8312 60.5 15.8109 60.5C15.7906 60.5 15.7703 60.5 15.75 60.5C15.7297 60.5 15.7094 60.5 15.6892 60.5C15.6689 60.5 15.6487 60.5 15.6284 60.5C15.6082 60.5 15.5879 60.5 15.5677 60.5C15.5475 60.5 15.5273 60.5 15.5071 60.5C15.4869 60.5 15.4667 60.5 15.4466 60.5C15.4264 60.5 15.4062 60.5 15.3861 60.5C15.3659 60.5 15.3458 60.5 15.3257 60.5C15.3055 60.5 15.2854 60.5 15.2653 60.5C15.2452 60.5 15.2251 60.5 15.2051 60.5C15.185 60.5 15.1649 60.5 15.1449 60.5C15.1248 60.5 15.1048 60.5 15.0847 60.5C15.0647 60.5 15.0447 60.5 15.0247 60.5C15.0047 60.5 14.9847 60.5 14.9647 60.5C14.9447 60.5 14.9247 60.5 14.9048 60.5C14.8848 60.5 14.8649 60.5 14.8449 60.5C14.825 60.5 14.8051 60.5 14.7852 60.5C14.7653 60.5 14.7454 60.5 14.7255 60.5C14.7056 60.5 14.6857 60.5 14.6658 60.5C14.646 60.5 14.6261 60.5 14.6063 60.5C14.5865 60.5 14.5666 60.5 14.5468 60.5C14.527 60.5 14.5072 60.5 14.4874 60.5C14.4676 60.5 14.4478 60.5 14.4281 60.5C14.4083 60.5 14.3885 60.5 14.3688 60.5C14.3491 60.5 14.3293 60.5 14.3096 60.5C14.2899 60.5 14.2702 60.5 14.2505 60.5C14.2308 60.5 14.2111 60.5 14.1915 60.5C14.1718 60.5 14.1521 60.5 14.1325 60.5C14.1128 60.5 14.0932 60.5 14.0736 60.5C14.054 60.5 14.0344 60.5 14.0148 60.5C13.9952 60.5 13.9756 60.5 13.956 60.5C13.9365 60.5 13.9169 60.5 13.8974 60.5C13.8778 60.5 13.8583 60.5 13.8388 60.5C13.8192 60.5 13.7997 60.5 13.7802 60.5C13.7608 60.5 13.7413 60.5 13.7218 60.5C13.7023 60.5 13.6829 60.5 13.6634 60.5C13.644 60.5 13.6246 60.5 13.6051 60.5C13.5857 60.5 13.5663 60.5 13.5469 60.5C13.5275 60.5 13.5082 60.5 13.4888 60.5C13.4694 60.5 13.4501 60.5 13.4307 60.5C13.4114 60.5 13.3921 60.5 13.3727 60.5C13.3534 60.5 13.3341 60.5 13.3148 60.5C13.2955 60.5 13.2763 60.5 13.257 60.5C13.2377 60.5 13.2185 60.5 13.1992 60.5C13.18 60.5 13.1608 60.5 13.1416 60.5C13.1224 60.5 13.1032 60.5 13.084 60.5C13.0648 60.5 13.0456 60.5 13.0264 60.5C13.0073 60.5 12.9881 60.5 12.969 60.5C12.9499 60.5 12.9307 60.5 12.9116 60.5C12.8925 60.5 12.8734 60.5 12.8544 60.5C12.8353 60.5 12.8162 60.5 12.7971 60.5C12.7781 60.5 12.759 60.5 12.74 60.5C12.721 60.5 12.702 60.5 12.683 60.5C12.664 60.5 12.645 60.5 12.626 60.5C12.607 60.5 12.5881 60.5 12.5691 60.5C12.5502 60.5 12.5312 60.5 12.5123 60.5C12.4934 60.5 12.4745 60.5 12.4556 60.5C12.4367 60.5 12.4178 60.5 12.3989 60.5C12.3801 60.5 12.3612 60.5 12.3424 60.5C12.3235 60.5 12.3047 60.5 12.2859 60.5C12.2671 60.5 12.2482 60.5 12.2295 60.5C12.2107 60.5 12.1919 60.5 12.1731 60.5C12.1544 60.5 12.1356 60.5 12.1169 60.5C12.0982 60.5 12.0794 60.5 12.0607 60.5C12.042 60.5 12.0233 60.5 12.0046 60.5C11.986 60.5 11.9673 60.5 11.9486 60.5C11.93 60.5 11.9114 60.5 11.8927 60.5C11.8741 60.5 11.8555 60.5 11.8369 60.5C11.8183 60.5 11.7997 60.5 11.7811 60.5C11.7626 60.5 11.744 60.5 11.7255 60.5C11.7069 60.5 11.6884 60.5 11.6699 60.5C11.6514 60.5 11.6329 60.5 11.6144 60.5C11.5959 60.5 11.5774 60.5 11.559 60.5C11.5405 60.5 11.5221 60.5 11.5036 60.5C11.4852 60.5 11.4668 60.5 11.4484 60.5C11.43 60.5 11.4116 60.5 11.3932 60.5C11.3748 60.5 11.3565 60.5 11.3381 60.5C11.3198 60.5 11.3014 60.5 11.2831 60.5C11.2648 60.5 11.2465 60.5 11.2282 60.5C11.2099 60.5 11.1916 60.5 11.1734 60.5C11.1551 60.5 11.1369 60.5 11.1186 60.5C11.1004 60.5 11.0822 60.5 11.064 60.5C11.0458 60.5 11.0276 60.5 11.0094 60.5C10.9912 60.5 10.973 60.5 10.9549 60.5C10.9368 60.5 10.9186 60.5 10.9005 60.5C10.8824 60.5 10.8643 60.5 10.8462 60.5C10.8281 60.5 10.81 60.5 10.7919 60.5C10.7739 60.5 10.7558 60.5 10.7378 60.5C10.7198 60.5 10.7018 60.5 10.6837 60.5C10.6657 60.5 10.6478 60.5 10.6298 60.5C10.6118 60.5 10.5938 60.5 10.5759 60.5C10.5579 60.5 10.54 60.5 10.5221 60.5C10.5042 60.5 10.4863 60.5 10.4684 60.5C10.4505 60.5 10.4326 60.5 10.4148 60.5C10.3969 60.5 10.3791 60.5 10.3612 60.5C10.3434 60.5 10.3256 60.5 10.3078 60.5C10.29 60.5 10.2722 60.5 10.2544 60.5C10.2367 60.5 10.2189 60.5 10.2012 60.5C10.1834 60.5 10.1657 60.5 10.148 60.5C10.1303 60.5 10.1126 60.5 10.0949 60.5C10.0772 60.5 10.0595 60.5 10.0419 60.5C10.0242 60.5 10.0066 60.5 9.98898 60.5C9.97136 60.5 9.95375 60.5 9.93616 60.5C9.91857 60.5 9.90099 60.5 9.88343 60.5C9.86587 60.5 9.84832 60.5 9.83079 60.5C9.81325 60.5 9.79574 60.5 9.77823 60.5C9.76073 60.5 9.74325 60.5 9.72577 60.5C9.7083 60.5 9.69084 60.5 9.6734 60.5C9.65596 60.5 9.63853 60.5 9.62112 60.5C9.60371 60.5 9.58632 60.5 9.56893 60.5C9.55155 60.5 9.53419 60.5 9.51684 60.5C9.49949 60.5 9.48215 60.5 9.46483 60.5C9.44751 60.5 9.43021 60.5 9.41292 60.5C9.39563 60.5 9.37835 60.5 9.36109 60.5C9.34384 60.5 9.32659 60.5 9.30936 60.5C9.29214 60.5 9.27492 60.5 9.25773 60.5C9.24053 60.5 9.22335 60.5 9.20618 60.5C9.18901 60.5 9.17186 60.5 9.15473 60.5C9.13759 60.5 9.12047 60.5 9.10337 60.5C9.08626 60.5 9.06918 60.5 9.0521 60.5C9.03503 60.5 9.01797 60.5 9.00093 60.5C8.98389 60.5 8.96686 60.5 8.94985 60.5C8.93284 60.5 8.91584 60.5 8.89886 60.5C8.88188 60.5 8.86492 60.5 8.84797 60.5C8.83102 60.5 8.81409 60.5 8.79717 60.5C8.78026 60.5 8.76336 60.5 8.74647 60.5C8.72959 60.5 8.71272 60.5 8.69586 60.5C8.67901 60.5 8.66217 60.5 8.64535 60.5C8.62853 60.5 8.61172 60.5 8.59493 60.5C8.57814 60.5 8.56136 60.5 8.54461 60.5C8.52785 60.5 8.5111 60.5 8.49438 60.5C8.47765 60.5 8.46094 60.5 8.44424 60.5C8.42755 60.5 8.41087 60.5 8.39421 60.5C8.37755 60.5 8.3609 60.5 8.34427 60.5C8.32764 60.5 8.31102 60.5 8.29442 60.5C8.27782 60.5 8.26124 60.5 8.24468 60.5C8.22811 60.5 8.21156 60.5 8.19502 60.5C8.17849 60.5 8.16197 60.5 8.14547 60.5C8.12897 60.5 8.11248 60.5 8.09601 60.5C8.07954 60.5 8.06309 60.5 8.04665 60.5C8.03022 60.5 8.01379 60.5 7.99739 60.5C7.98099 60.5 7.9646 60.5 7.94823 60.5C7.93185 60.5 7.9155 60.5 7.89916 60.5C7.88282 60.5 7.8665 60.5 7.85019 60.5C7.83388 60.5 7.81759 60.5 7.80132 60.5C7.78505 60.5 7.76879 60.5 7.75255 60.5C7.73631 60.5 7.72008 60.5 7.70387 60.5C7.68767 60.5 7.67147 60.5 7.6553 60.5C7.63913 60.5 7.62297 60.5 7.60683 60.5C7.59068 60.5 7.57456 60.5 7.55845 60.5C7.54234 60.5 7.52625 60.5 7.51017 60.5C7.4941 60.5 7.47804 60.5 7.462 60.5C7.44596 60.5 7.42993 60.5 7.41392 60.5C7.39791 60.5 7.38192 60.5 7.36595 60.5C7.34997 60.5 7.33401 60.5 7.31807 60.5C7.30213 60.5 7.2862 60.5 7.27029 60.5C7.25439 60.5 7.23849 60.5 7.22262 60.5C7.20675 60.5 7.19089 60.5 7.17505 60.5C7.15921 60.5 7.14338 60.5 7.12758 60.5C7.11177 60.5 7.09598 60.5 7.0802 60.5C7.06443 60.5 7.04868 60.5 7.03294 60.5C7.0172 60.5 7.00147 60.5 6.98577 60.5C6.97006 60.5 6.95438 60.5 6.9387 60.5C6.92303 60.5 6.90738 60.5 6.89174 60.5C6.8761 60.5 6.86048 60.5 6.84488 60.5C6.82928 60.5 6.81369 60.5 6.79812 60.5C6.78256 60.5 6.767 60.5 6.75147 60.5C6.73594 60.5 6.72042 60.5 6.70492 60.5C6.68942 60.5 6.67394 60.5 6.65847 60.5C6.643 60.5 6.62756 60.5 6.61213 60.5C6.59669 60.5 6.58128 60.5 6.56589 60.5C6.55049 60.5 6.53511 60.5 6.51975 60.5C6.50439 60.5 6.48904 60.5 6.47372 60.5C6.45839 60.5 6.44308 60.5 6.42779 60.5C6.41249 60.5 6.39722 60.5 6.38196 60.5C6.36671 60.5 6.35147 60.5 6.33624 60.5C6.32102 60.5 6.30582 60.5 6.29063 60.5C6.27544 60.5 6.26027 60.5 6.24512 60.5C6.22997 60.5 6.21483 60.5 6.19972 60.5C6.1846 60.5 6.1695 60.5 6.15442 60.5C6.13934 60.5 6.12427 60.5 6.10923 60.5C6.09418 60.5 6.07915 60.5 6.06414 60.5C6.04913 60.5 6.03414 60.5 6.01916 60.5C6.00419 60.5 5.98923 60.5 5.97429 60.5C5.95935 60.5 5.94443 60.5 5.92952 60.5C5.91462 60.5 5.89973 60.5 5.88486 60.5C5.86999 60.5 5.85514 60.5 5.84031 60.5C5.82548 60.5 5.81066 60.5 5.79586 60.5C5.78107 60.5 5.76629 60.5 5.75152 60.5C5.73676 60.5 5.72202 60.5 5.70729 60.5C5.69257 60.5 5.67786 60.5 5.66317 60.5C5.64848 60.5 5.63381 60.5 5.61916 60.5C5.6045 60.5 5.58987 60.5 5.57525 60.5C5.56063 60.5 5.54603 60.5 5.53145 60.5C5.51687 60.5 5.50231 60.5 5.48776 60.5C5.47322 60.5 5.45869 60.5 5.44418 60.5C5.42968 60.5 5.41518 60.5 5.40071 60.5C5.38624 60.5 5.37179 60.5 5.35735 60.5C5.34292 60.5 5.3285 60.5 5.3141 60.5C5.2997 60.5 5.28532 60.5 5.27096 60.5C5.25659 60.5 5.24225 60.5 5.22792 60.5C5.2136 60.5 5.19929 60.5 5.185 60.5C5.17071 60.5 5.15644 60.5 5.14219 60.5C5.12794 60.5 5.1137 60.5 5.09949 60.5C5.08527 60.5 5.07108 60.5 5.0569 60.5C5.04272 60.5 5.02856 60.5 5.01442 60.5C5.00028 60.5 4.98615 60.5 4.97205 60.5C4.95795 60.5 4.94386 60.5 4.92979 60.5C4.91573 60.5 4.90168 60.5 4.88765 60.5C4.87362 60.5 4.85961 60.5 4.84561 60.5C4.83162 60.5 4.81765 60.5 4.80369 60.5C4.78974 60.5 4.7758 60.5 4.76188 60.5C4.74797 60.5 4.73407 60.5 4.72019 60.5C4.70631 60.5 4.69245 60.5 4.6786 60.5C4.66476 60.5 4.65094 60.5 4.63713 60.5C4.62333 60.5 4.60954 60.5 4.59577 60.5C4.58201 60.5 4.56826 60.5 4.55453 60.5C4.5408 60.5 4.52709 60.5 4.5134 60.5C4.49971 60.5 4.48603 60.5 4.47238 60.5C4.45873 60.5 4.44509 60.5 4.43148 60.5C4.41786 60.5 4.40426 60.5 4.39069 60.5C4.37711 60.5 4.36355 60.5 4.35001 60.5C4.33647 60.5 4.32295 60.5 4.30945 60.5C4.29595 60.5 4.28247 60.5 4.269 60.5C4.25554 60.5 4.2421 60.5 4.22867 60.5C4.21525 60.5 4.20184 60.5 4.18846 60.5C4.17507 60.5 4.1617 60.5 4.14836 60.5C4.13501 60.5 4.12168 60.5 4.10837 60.5C4.09506 60.5 4.08177 60.5 4.0685 60.5C4.05523 60.5 4.04198 60.5 4.02875 60.5C4.01552 60.5 4.0023 60.5 3.98911 60.5C3.97592 60.5 3.96274 60.5 3.94959 60.5C3.93644 60.5 3.9233 60.5 3.91018 60.5C3.89707 60.5 3.88397 60.5 3.8709 60.5C3.85782 60.5 3.84476 60.5 3.83173 60.5C3.81869 60.5 3.80567 60.5 3.79267 60.5C3.77968 60.5 3.7667 60.5 3.75374 60.5C3.74078 60.5 3.72784 60.5 3.71492 60.5C3.702 60.5 3.6891 60.5 3.67622 60.5C3.66334 60.5 3.65048 60.5 3.63764 60.5C3.6248 60.5 3.61197 60.5 3.59917 60.5C3.58637 60.5 3.57359 60.5 3.56083 60.5C3.54807 60.5 3.53532 60.5 3.5226 60.5C3.50988 60.5 3.49718 60.5 3.48449 60.5C3.47181 60.5 3.45915 60.5 3.4465 60.5C3.43386 60.5 3.42124 60.5 3.40863 60.5C3.39603 60.5 3.38345 60.5 3.37088 60.5C3.35832 60.5 3.34578 60.5 3.33325 60.5C3.32073 60.5 3.30823 60.5 3.29574 60.5C3.28326 60.5 3.2708 60.5 3.25835 60.5C3.24591 60.5 3.23349 60.5 3.22108 60.5C3.20868 60.5 3.1963 60.5 3.18393 60.5C3.17157 60.5 3.15923 60.5 3.1469 60.5C3.13458 60.5 3.12228 60.5 3.11 60.5C3.09771 60.5 3.08545 60.5 3.07321 60.5C3.06097 60.5 3.04875 60.5 3.03654 60.5C3.02434 60.5 3.01216 60.5 3 60.5V65.5ZM33 65.5C37.4042 65.5 41.6261 63.567 45.3487 60.9098C49.0943 58.2362 52.5449 54.6804 55.4628 51.0719C58.3877 47.4549 60.8384 43.7088 62.5687 40.5869C63.433 39.0275 64.135 37.5924 64.629 36.3826C65.0734 35.2945 65.5 34.0416 65.5 33H60.5C60.5 32.9584 60.4491 33.393 60.0001 34.4924C59.6008 35.4701 58.9939 36.7225 58.1955 38.1631C56.6003 41.0412 54.3104 44.5451 51.5749 47.9281C48.8324 51.3196 45.7029 54.5138 42.4438 56.8402C39.1616 59.183 35.9543 60.5 33 60.5V65.5ZM65.5 33C65.5 31.9949 65.1159 30.7683 64.6963 29.6702C64.2346 28.4616 63.575 27.026 62.755 25.4633C61.1139 22.336 58.7672 18.5805 55.9066 14.9522C53.0525 11.3321 49.6273 7.76284 45.8118 5.07995C42.0048 2.40306 37.6513 0.5 33 0.5V5.5C36.2733 5.5 39.632 6.84694 42.9358 9.17005C46.2312 11.4872 49.3154 14.6679 51.9802 18.0478C54.6384 21.4195 56.8201 24.914 58.3276 27.7867C59.0818 29.224 59.6517 30.4759 60.0257 31.4548C60.4419 32.5442 60.5 33.0051 60.5 33H65.5ZM33 0.5C23.5366 0.5 10.3125 0.5 3 0.5L3 5.5C10.3125 5.5 23.5366 5.5 33 5.5V0.5ZM0.850686 4.27689C6.42757 13.6641 11.5 19.8311 11.5 33H16.5C16.5 18.1689 10.4899 10.7127 5.14931 1.72311L0.850686 4.27689ZM11.5 33C11.5 39.4343 8.94487 46.5255 6.24467 52.1714C4.9109 54.9601 3.57561 57.3274 2.57502 58.995C2.07533 59.8278 1.66074 60.4835 1.37373 60.927C1.23027 61.1487 1.11882 61.3173 1.04471 61.4282C1.00765 61.4837 0.979946 61.5247 0.962252 61.5508C0.953405 61.5639 0.947063 61.5732 0.943309 61.5787C0.941432 61.5814 0.940202 61.5832 0.939629 61.5841C0.939343 61.5845 0.939221 61.5847 0.939265 61.5846C0.939287 61.5846 0.939445 61.5843 0.939455 61.5843C0.939654 61.584 0.939895 61.5837 3 63C5.0601 64.4163 5.06043 64.4159 5.0608 64.4153C5.06097 64.4151 5.06138 64.4145 5.06174 64.4139C5.06245 64.4129 5.06333 64.4116 5.06438 64.4101C5.06647 64.407 5.06923 64.403 5.07264 64.398C5.07946 64.388 5.08889 64.3742 5.10086 64.3565C5.12479 64.3212 5.15885 64.2707 5.20237 64.2056C5.28938 64.0753 5.41426 63.8864 5.57158 63.6433C5.88614 63.1572 6.33092 62.4534 6.86248 61.5675C7.92439 59.7976 9.3391 57.2899 10.7553 54.3286C13.5551 48.4745 16.5 40.5657 16.5 33H11.5Z" fill="#333333"/>
</svg>
