<svg width="66" height="66" viewBox="0 0 66 66" fill="none" xmlns="http://www.w3.org/2000/svg">
<path d="M3 3C8.59873 12.1884 15.8205 19 15.8205 33C15.8205 47 3 63 3 63" stroke="#333333" stroke-width="5" stroke-linecap="round" stroke-linejoin="round"/>
<path d="M15.3077 3L15.3077 0.5C14.404 0.5 13.5706 0.987743 13.128 1.77569C12.6855 2.56363 12.7026 3.52909 13.1728 4.30085L15.3077 3ZM15.3077 63L13.2646 61.5593C12.7265 62.3224 12.6585 63.3218 13.0883 64.1507C13.5181 64.9797 14.374 65.5 15.3077 65.5V63ZM15.3077 65.5C15.3202 65.5 15.3327 65.5 15.3451 65.5C15.3575 65.5 15.3698 65.5 15.3822 65.5C15.3945 65.5 15.4069 65.5 15.4191 65.5C15.4314 65.5 15.4437 65.5 15.4559 65.5C15.4681 65.5 15.4803 65.5 15.4925 65.5C15.5046 65.5 15.5167 65.5 15.5288 65.5C15.5409 65.5 15.553 65.5 15.565 65.5C15.5771 65.5 15.5891 65.5 15.601 65.5C15.613 65.5 15.6249 65.5 15.6369 65.5C15.6488 65.5 15.6606 65.5 15.6725 65.5C15.6843 65.5 15.6962 65.5 15.708 65.5C15.7197 65.5 15.7315 65.5 15.7432 65.5C15.755 65.5 15.7667 65.5 15.7783 65.5C15.79 65.5 15.8016 65.5 15.8132 65.5C15.8249 65.5 15.8364 65.5 15.848 65.5C15.8595 65.5 15.8711 65.5 15.8826 65.5C15.894 65.5 15.9055 65.5 15.9169 65.5C15.9284 65.5 15.9398 65.5 15.9512 65.5C15.9625 65.5 15.9739 65.5 15.9852 65.5C15.9965 65.5 16.0078 65.5 16.0191 65.5C16.0303 65.5 16.0416 65.5 16.0528 65.5C16.064 65.5 16.0751 65.5 16.0863 65.5C16.0974 65.5 16.1086 65.5 16.1197 65.5C16.1307 65.5 16.1418 65.5 16.1528 65.5C16.1639 65.5 16.1749 65.5 16.1859 65.5C16.1968 65.5 16.2078 65.5 16.2187 65.5C16.2296 65.5 16.2405 65.5 16.2514 65.5C16.2623 65.5 16.2731 65.5 16.2839 65.5C16.2948 65.5 16.3055 65.5 16.3163 65.5C16.3271 65.5 16.3378 65.5 16.3485 65.5C16.3592 65.5 16.3699 65.5 16.3805 65.5C16.3912 65.5 16.4018 65.5 16.4124 65.5C16.423 65.5 16.4336 65.5 16.4441 65.5C16.4547 65.5 16.4652 65.5 16.4757 65.5C16.4862 65.5 16.4967 65.5 16.5071 65.5C16.5175 65.5 16.528 65.5 16.5384 65.5C16.5487 65.5 16.5591 65.5 16.5694 65.5C16.5798 65.5 16.5901 65.5 16.6004 65.5C16.6107 65.5 16.6209 65.5 16.6312 65.5C16.6414 65.5 16.6516 65.5 16.6618 65.5C16.672 65.5 16.6821 65.5 16.6923 65.5C16.7024 65.5 16.7125 65.5 16.7226 65.5C16.7327 65.5 16.7428 65.5 16.7528 65.5C16.7628 65.5 16.7728 65.5 16.7828 65.5C16.7928 65.5 16.8028 65.5 16.8127 65.5C16.8227 65.5 16.8326 65.5 16.8425 65.5C16.8524 65.5 16.8622 65.5 16.8721 65.5C16.8819 65.5 16.8917 65.5 16.9015 65.5C16.9113 65.5 16.9211 65.5 16.9308 65.5C16.9406 65.5 16.9503 65.5 16.96 65.5C16.9697 65.5 16.9794 65.5 16.989 65.5C16.9987 65.5 17.0083 65.5 17.0179 65.5C17.0275 65.5 17.0371 65.5 17.0467 65.5C17.0562 65.5 17.0658 65.5 17.0753 65.5C17.0848 65.5 17.0943 65.5 17.1038 65.5C17.1132 65.5 17.1227 65.5 17.1321 65.5C17.1415 65.5 17.1509 65.5 17.1603 65.5C17.1697 65.5 17.179 65.5 17.1884 65.5C17.1977 65.5 17.207 65.5 17.2163 65.5C17.2256 65.5 17.2349 65.5 17.2441 65.5C17.2534 65.5 17.2626 65.5 17.2718 65.5C17.281 65.5 17.2902 65.5 17.2994 65.5C17.3085 65.5 17.3177 65.5 17.3268 65.5C17.3359 65.5 17.345 65.5 17.3541 65.5C17.3631 65.5 17.3722 65.5 17.3812 65.5C17.3903 65.5 17.3993 65.5 17.4083 65.5C17.4173 65.5 17.4262 65.5 17.4352 65.5C17.4441 65.5 17.4531 65.5 17.462 65.5C17.4709 65.5 17.4798 65.5 17.4887 65.5C17.4975 65.5 17.5064 65.5 17.5152 65.5C17.524 65.5 17.5328 65.5 17.5416 65.5C17.5504 65.5 17.5592 65.5 17.5679 65.5C17.5767 65.5 17.5854 65.5 17.5941 65.5C17.6028 65.5 17.6115 65.5 17.6202 65.5C17.6289 65.5 17.6375 65.5 17.6462 65.5C17.6548 65.5 17.6634 65.5 17.672 65.5C17.6806 65.5 17.6892 65.5 17.6977 65.5C17.7063 65.5 17.7148 65.5 17.7234 65.5C17.7319 65.5 17.7404 65.5 17.7489 65.5C17.7573 65.5 17.7658 65.5 17.7743 65.5C17.7827 65.5 17.7911 65.5 17.7995 65.5C17.808 65.5 17.8163 65.5 17.8247 65.5C17.8331 65.5 17.8414 65.5 17.8498 65.5C17.8581 65.5 17.8664 65.5 17.8747 65.5C17.883 65.5 17.8913 65.5 17.8996 65.5C17.9079 65.5 17.9161 65.5 17.9243 65.5C17.9326 65.5 17.9408 65.5 17.949 65.5C17.9572 65.5 17.9654 65.5 17.9735 65.5C17.9817 65.5 17.9898 65.5 17.998 65.5C18.0061 65.5 18.0142 65.5 18.0223 65.5C18.0304 65.5 18.0385 65.5 18.0466 65.5C18.0546 65.5 18.0627 65.5 18.0707 65.5C18.0787 65.5 18.0867 65.5 18.0947 65.5C18.1027 65.5 18.1107 65.5 18.1187 65.5C18.1266 65.5 18.1346 65.5 18.1425 65.5C18.1505 65.5 18.1584 65.5 18.1663 65.5C18.1742 65.5 18.1821 65.5 18.19 65.5C18.1978 65.5 18.2057 65.5 18.2135 65.5C18.2214 65.5 18.2292 65.5 18.237 65.5C18.2448 65.5 18.2526 65.5 18.2604 65.5C18.2682 65.5 18.2759 65.5 18.2837 65.5C18.2914 65.5 18.2992 65.5 18.3069 65.5C18.3146 65.5 18.3223 65.5 18.33 65.5C18.3377 65.5 18.3454 65.5 18.3531 65.5C18.3607 65.5 18.3684 65.5 18.376 65.5C18.3836 65.5 18.3913 65.5 18.3989 65.5C18.4065 65.5 18.4141 65.5 18.4217 65.5C18.4292 65.5 18.4368 65.5 18.4444 65.5C18.4519 65.5 18.4595 65.5 18.467 65.5C18.4745 65.5 18.482 65.5 18.4895 65.5C18.497 65.5 18.5045 65.5 18.512 65.5C18.5195 65.5 18.5269 65.5 18.5344 65.5C18.5418 65.5 18.5492 65.5 18.5567 65.5C18.5641 65.5 18.5715 65.5 18.5789 65.5C18.5863 65.5 18.5937 65.5 18.601 65.5C18.6084 65.5 18.6158 65.5 18.6231 65.5C18.6305 65.5 18.6378 65.5 18.6451 65.5C18.6525 65.5 18.6598 65.5 18.6671 65.5C18.6744 65.5 18.6817 65.5 18.6889 65.5C18.6962 65.5 18.7035 65.5 18.7107 65.5C18.718 65.5 18.7252 65.5 18.7324 65.5C18.7397 65.5 18.7469 65.5 18.7541 65.5C18.7613 65.5 18.7685 65.5 18.7757 65.5C18.7829 65.5 18.79 65.5 18.7972 65.5C18.8044 65.5 18.8115 65.5 18.8187 65.5C18.8258 65.5 18.8329 65.5 18.8401 65.5C18.8472 65.5 18.8543 65.5 18.8614 65.5C18.8685 65.5 18.8756 65.5 18.8827 65.5C18.8897 65.5 18.8968 65.5 18.9039 65.5C18.9109 65.5 18.918 65.5 18.925 65.5C18.9321 65.5 18.9391 65.5 18.9461 65.5C18.9531 65.5 18.9601 65.5 18.9671 65.5C18.9741 65.5 18.9811 65.5 18.9881 65.5C18.9951 65.5 19.0021 65.5 19.009 65.5C19.016 65.5 19.023 65.5 19.0299 65.5C19.0369 65.5 19.0438 65.5 19.0507 65.5C19.0577 65.5 19.0646 65.5 19.0715 65.5C19.0784 65.5 19.0853 65.5 19.0922 65.5C19.0991 65.5 19.106 65.5 19.1128 65.5C19.1197 65.5 19.1266 65.5 19.1335 65.5C19.1403 65.5 19.1472 65.5 19.154 65.5C19.1609 65.5 19.1677 65.5 19.1745 65.5C19.1814 65.5 19.1882 65.5 19.195 65.5C19.2018 65.5 19.2086 65.5 19.2154 65.5C19.2222 65.5 19.229 65.5 19.2358 65.5C19.2426 65.5 19.2493 65.5 19.2561 65.5C19.2629 65.5 19.2697 65.5 19.2764 65.5C19.2832 65.5 19.2899 65.5 19.2967 65.5C19.3034 65.5 19.3101 65.5 19.3169 65.5C19.3236 65.5 19.3303 65.5 19.337 65.5C19.3438 65.5 19.3505 65.5 19.3572 65.5C19.3639 65.5 19.3706 65.5 19.3773 65.5C19.384 65.5 19.3906 65.5 19.3973 65.5C19.404 65.5 19.4107 65.5 19.4173 65.5C19.424 65.5 19.4307 65.5 19.4373 65.5C19.444 65.5 19.4506 65.5 19.4573 65.5C19.4639 65.5 19.4706 65.5 19.4772 65.5C19.4838 65.5 19.4905 65.5 19.4971 65.5C19.5037 65.5 19.5103 65.5 19.517 65.5C19.5236 65.5 19.5302 65.5 19.5368 65.5C19.5434 65.5 19.55 65.5 19.5566 65.5C19.5632 65.5 19.5698 65.5 19.5764 65.5C19.583 65.5 19.5895 65.5 19.5961 65.5C19.6027 65.5 19.6093 65.5 19.6159 65.5C19.6224 65.5 19.629 65.5 19.6356 65.5C19.6421 65.5 19.6487 65.5 19.6552 65.5C19.6618 65.5 19.6683 65.5 19.6749 65.5C19.6814 65.5 19.688 65.5 19.6945 65.5C19.7011 65.5 19.7076 65.5 19.7142 65.5C19.7207 65.5 19.7272 65.5 19.7338 65.5C19.7403 65.5 19.7468 65.5 19.7533 65.5C19.7599 65.5 19.7664 65.5 19.7729 65.5C19.7794 65.5 19.7859 65.5 19.7924 65.5C19.799 65.5 19.8055 65.5 19.812 65.5C19.8185 65.5 19.825 65.5 19.8315 65.5C19.838 65.5 19.8445 65.5 19.851 65.5C19.8575 65.5 19.864 65.5 19.8705 65.5C19.877 65.5 19.8835 65.5 19.89 65.5C19.8965 65.5 19.903 65.5 19.9095 65.5C19.916 65.5 19.9224 65.5 19.9289 65.5C19.9354 65.5 19.9419 65.5 19.9484 65.5C19.9549 65.5 19.9614 65.5 19.9679 65.5C19.9743 65.5 19.9808 65.5 19.9873 65.5C19.9938 65.5 20.0003 65.5 20.0067 65.5C20.0132 65.5 20.0197 65.5 20.0262 65.5C20.0327 65.5 20.0391 65.5 20.0456 65.5C20.0521 65.5 20.0586 65.5 20.0651 65.5C20.0715 65.5 20.078 65.5 20.0845 65.5C20.091 65.5 20.0975 65.5 20.1039 65.5C20.1104 65.5 20.1169 65.5 20.1234 65.5C20.1299 65.5 20.1363 65.5 20.1428 65.5C20.1493 65.5 20.1558 65.5 20.1623 65.5C20.1687 65.5 20.1752 65.5 20.1817 65.5C20.1882 65.5 20.1947 65.5 20.2012 65.5C20.2077 65.5 20.2141 65.5 20.2206 65.5C20.2271 65.5 20.2336 65.5 20.2401 65.5C20.2466 65.5 20.2531 65.5 20.2596 65.5C20.2661 65.5 20.2726 65.5 20.2791 65.5C20.2856 65.5 20.2921 65.5 20.2986 65.5C20.3051 65.5 20.3116 65.5 20.3181 65.5C20.3246 65.5 20.3311 65.5 20.3376 65.5C20.3441 65.5 20.3506 65.5 20.3572 65.5C20.3637 65.5 20.3702 65.5 20.3767 65.5C20.3832 65.5 20.3898 65.5 20.3963 65.5C20.4028 65.5 20.4093 65.5 20.4159 65.5C20.4224 65.5 20.4289 65.5 20.4355 65.5C20.442 65.5 20.4486 65.5 20.4551 65.5C20.4616 65.5 20.4682 65.5 20.4747 65.5C20.4813 65.5 20.4879 65.5 20.4944 65.5C20.501 65.5 20.5075 65.5 20.5141 65.5C20.5207 65.5 20.5272 65.5 20.5338 65.5C20.5404 65.5 20.547 65.5 20.5535 65.5C20.5601 65.5 20.5667 65.5 20.5733 65.5C20.5799 65.5 20.5865 65.5 20.5931 65.5C20.5997 65.5 20.6063 65.5 20.6129 65.5C20.6195 65.5 20.6261 65.5 20.6328 65.5C20.6394 65.5 20.646 65.5 20.6526 65.5C20.6593 65.5 20.6659 65.5 20.6725 65.5C20.6792 65.5 20.6858 65.5 20.6925 65.5C20.6991 65.5 20.7058 65.5 20.7124 65.5C20.7191 65.5 20.7258 65.5 20.7324 65.5C20.7391 65.5 20.7458 65.5 20.7525 65.5C20.7592 65.5 20.7659 65.5 20.7726 65.5C20.7792 65.5 20.786 65.5 20.7927 65.5C20.7994 65.5 20.8061 65.5 20.8128 65.5C20.8195 65.5 20.8263 65.5 20.833 65.5C20.8397 65.5 20.8465 65.5 20.8532 65.5C20.86 65.5 20.8667 65.5 20.8735 65.5C20.8802 65.5 20.887 65.5 20.8938 65.5C20.9006 65.5 20.9073 65.5 20.9141 65.5C20.9209 65.5 20.9277 65.5 20.9345 65.5C20.9413 65.5 20.9481 65.5 20.955 65.5C20.9618 65.5 20.9686 65.5 20.9755 65.5C20.9823 65.5 20.9891 65.5 20.996 65.5C21.0028 65.5 21.0097 65.5 21.0166 65.5C21.0234 65.5 21.0303 65.5 21.0372 65.5C21.0441 65.5 21.051 65.5 21.0579 65.5C21.0648 65.5 21.0717 65.5 21.0786 65.5C21.0855 65.5 21.0924 65.5 21.0994 65.5C21.1063 65.5 21.1133 65.5 21.1202 65.5C21.1272 65.5 21.1341 65.5 21.1411 65.5C21.1481 65.5 21.155 65.5 21.162 65.5C21.169 65.5 21.176 65.5 21.183 65.5C21.19 65.5 21.1971 65.5 21.2041 65.5C21.2111 65.5 21.2182 65.5 21.2252 65.5C21.2323 65.5 21.2393 65.5 21.2464 65.5C21.2534 65.5 21.2605 65.5 21.2676 65.5C21.2747 65.5 21.2818 65.5 21.2889 65.5C21.296 65.5 21.3031 65.5 21.3103 65.5C21.3174 65.5 21.3245 65.5 21.3317 65.5C21.3388 65.5 21.346 65.5 21.3532 65.5C21.3603 65.5 21.3675 65.5 21.3747 65.5C21.3819 65.5 21.3891 65.5 21.3963 65.5C21.4035 65.5 21.4108 65.5 21.418 65.5C21.4253 65.5 21.4325 65.5 21.4398 65.5C21.447 65.5 21.4543 65.5 21.4616 65.5C21.4689 65.5 21.4762 65.5 21.4835 65.5C21.4908 65.5 21.4981 65.5 21.5054 65.5C21.5128 65.5 21.5201 65.5 21.5275 65.5C21.5348 65.5 21.5422 65.5 21.5496 65.5C21.557 65.5 21.5644 65.5 21.5718 65.5C21.5792 65.5 21.5866 65.5 21.594 65.5C21.6015 65.5 21.6089 65.5 21.6164 65.5C21.6238 65.5 21.6313 65.5 21.6388 65.5C21.6463 65.5 21.6538 65.5 21.6613 65.5C21.6688 65.5 21.6763 65.5 21.6838 65.5C21.6914 65.5 21.6989 65.5 21.7065 65.5C21.714 65.5 21.7216 65.5 21.7292 65.5C21.7368 65.5 21.7444 65.5 21.752 65.5C21.7597 65.5 21.7673 65.5 21.7749 65.5C21.7826 65.5 21.7902 65.5 21.7979 65.5C21.8056 65.5 21.8133 65.5 21.821 65.5C21.8287 65.5 21.8364 65.5 21.8441 65.5C21.8519 65.5 21.8596 65.5 21.8674 65.5C21.8752 65.5 21.8829 65.5 21.8907 65.5C21.8985 65.5 21.9063 65.5 21.9142 65.5C21.922 65.5 21.9298 65.5 21.9377 65.5C21.9455 65.5 21.9534 65.5 21.9613 65.5C21.9692 65.5 21.9771 65.5 21.985 65.5C21.9929 65.5 22.0008 65.5 22.0088 65.5C22.0167 65.5 22.0247 65.5 22.0327 65.5C22.0406 65.5 22.0486 65.5 22.0566 65.5C22.0647 65.5 22.0727 65.5 22.0807 65.5C22.0888 65.5 22.0968 65.5 22.1049 65.5C22.113 65.5 22.1211 65.5 22.1292 65.5C22.1373 65.5 22.1454 65.5 22.1536 65.5C22.1617 65.5 22.1699 65.5 22.178 65.5C22.1862 65.5 22.1944 65.5 22.2026 65.5C22.2108 65.5 22.2191 65.5 22.2273 65.5C22.2356 65.5 22.2438 65.5 22.2521 65.5C22.2604 65.5 22.2687 65.5 22.277 65.5C22.2853 65.5 22.2936 65.5 22.302 65.5C22.3103 65.5 22.3187 65.5 22.3271 65.5C22.3355 65.5 22.3439 65.5 22.3523 65.5C22.3607 65.5 22.3692 65.5 22.3777 65.5C22.3861 65.5 22.3946 65.5 22.4031 65.5C22.4116 65.5 22.4201 65.5 22.4286 65.5C22.4372 65.5 22.4457 65.5 22.4543 65.5C22.4629 65.5 22.4715 65.5 22.4801 65.5C22.4887 65.5 22.4973 65.5 22.506 65.5C22.5146 65.5 22.5233 65.5 22.532 65.5C22.5407 65.5 22.5494 65.5 22.5581 65.5C22.5668 65.5 22.5756 65.5 22.5843 65.5C22.5931 65.5 22.6019 65.5 22.6107 65.5C22.6195 65.5 22.6283 65.5 22.6372 65.5C22.646 65.5 22.6549 65.5 22.6638 65.5C22.6726 65.5 22.6816 65.5 22.6905 65.5C22.6994 65.5 22.7084 65.5 22.7173 65.5C22.7263 65.5 22.7353 65.5 22.7443 65.5C22.7533 65.5 22.7623 65.5 22.7714 65.5C22.7804 65.5 22.7895 65.5 22.7986 65.5C22.8077 65.5 22.8168 65.5 22.8259 65.5C22.8351 65.5 22.8442 65.5 22.8534 65.5C22.8626 65.5 22.8718 65.5 22.881 65.5C22.8902 65.5 22.8995 65.5 22.9087 65.5C22.918 65.5 22.9273 65.5 22.9366 65.5C22.9459 65.5 22.9552 65.5 22.9646 65.5C22.9739 65.5 22.9833 65.5 22.9927 65.5C23.0021 65.5 23.0115 65.5 23.021 65.5C23.0304 65.5 23.0399 65.5 23.0494 65.5C23.0589 65.5 23.0684 65.5 23.0779 65.5C23.0874 65.5 23.097 65.5 23.1066 65.5C23.1161 65.5 23.1257 65.5 23.1354 65.5C23.145 65.5 23.1546 65.5 23.1643 65.5C23.174 65.5 23.1837 65.5 23.1934 65.5C23.2031 65.5 23.2129 65.5 23.2226 65.5C23.2324 65.5 23.2422 65.5 23.252 65.5C23.2618 65.5 23.2716 65.5 23.2815 65.5C23.2914 65.5 23.3013 65.5 23.3112 65.5C23.3211 65.5 23.331 65.5 23.341 65.5C23.3509 65.5 23.3609 65.5 23.3709 65.5C23.3809 65.5 23.391 65.5 23.401 65.5C23.4111 65.5 23.4211 65.5 23.4313 65.5C23.4414 65.5 23.4515 65.5 23.4616 65.5C23.4718 65.5 23.482 65.5 23.4922 65.5C23.5024 65.5 23.5126 65.5 23.5229 65.5C23.5331 65.5 23.5434 65.5 23.5537 65.5C23.564 65.5 23.5744 65.5 23.5847 65.5C23.5951 65.5 23.6055 65.5 23.6159 65.5C23.6263 65.5 23.6367 65.5 23.6472 65.5C23.6577 65.5 23.6681 65.5 23.6787 65.5C23.6892 65.5 23.6997 65.5 23.7103 65.5C23.7208 65.5 23.7314 65.5 23.7421 65.5C23.7527 65.5 23.7633 65.5 23.774 65.5C23.7847 65.5 23.7954 65.5 23.8061 65.5C23.8168 65.5 23.8276 65.5 23.8384 65.5C23.8492 65.5 23.86 65.5 23.8708 65.5C23.8816 65.5 23.8925 65.5 23.9034 65.5C23.9143 65.5 23.9252 65.5 23.9361 65.5C23.9471 65.5 23.9581 65.5 23.9691 65.5C23.9801 65.5 23.9911 65.5 24.0022 65.5C24.0132 65.5 24.0243 65.5 24.0354 65.5C24.0465 65.5 24.0577 65.5 24.0688 65.5C24.08 65.5 24.0912 65.5 24.1024 65.5C24.1137 65.5 24.1249 65.5 24.1362 65.5C24.1475 65.5 24.1588 65.5 24.1701 65.5C24.1815 65.5 24.1928 65.5 24.2042 65.5C24.2156 65.5 24.2271 65.5 24.2385 65.5C24.25 65.5 24.2615 65.5 24.273 65.5C24.2845 65.5 24.2961 65.5 24.3076 65.5C24.3192 65.5 24.3308 65.5 24.3424 65.5C24.3541 65.5 24.3657 65.5 24.3774 65.5C24.3891 65.5 24.4008 65.5 24.4126 65.5C24.4244 65.5 24.4361 65.5 24.4479 65.5C24.4598 65.5 24.4716 65.5 24.4835 65.5C24.4954 65.5 24.5073 65.5 24.5192 65.5C24.5311 65.5 24.5431 65.5 24.5551 65.5C24.5671 65.5 24.5791 65.5 24.5912 65.5C24.6032 65.5 24.6153 65.5 24.6274 65.5C24.6396 65.5 24.6517 65.5 24.6639 65.5C24.6761 65.5 24.6883 65.5 24.7005 65.5C24.7128 65.5 24.725 65.5 24.7374 65.5C24.7497 65.5 24.762 65.5 24.7744 65.5C24.7867 65.5 24.7991 65.5 24.8116 65.5C24.824 65.5 24.8365 65.5 24.849 65.5C24.8615 65.5 24.874 65.5 24.8866 65.5C24.8991 65.5 24.9117 65.5 24.9244 65.5C24.937 65.5 24.9496 65.5 24.9623 65.5C24.975 65.5 24.9878 65.5 25.0005 65.5C25.0133 65.5 25.0261 65.5 25.0389 65.5C25.0517 65.5 25.0646 65.5 25.0774 65.5C25.0903 65.5 25.1033 65.5 25.1162 65.5C25.1292 65.5 25.1422 65.5 25.1552 65.5C25.1682 65.5 25.1813 65.5 25.1943 65.5C25.2074 65.5 25.2206 65.5 25.2337 65.5C25.2469 65.5 25.2601 65.5 25.2733 65.5C25.2865 65.5 25.2998 65.5 25.3131 65.5C25.3264 65.5 25.3397 65.5 25.353 65.5C25.3664 65.5 25.3798 65.5 25.3932 65.5C25.4067 65.5 25.4201 65.5 25.4336 65.5C25.4471 65.5 25.4607 65.5 25.4742 65.5C25.4878 65.5 25.5014 65.5 25.515 65.5C25.5287 65.5 25.5423 65.5 25.5561 65.5C25.5698 65.5 25.5835 65.5 25.5973 65.5C25.6111 65.5 25.6249 65.5 25.6387 65.5C25.6526 65.5 25.6665 65.5 25.6804 65.5C25.6943 65.5 25.7083 65.5 25.7222 65.5C25.7362 65.5 25.7503 65.5 25.7643 65.5C25.7784 65.5 25.7925 65.5 25.8066 65.5C25.8208 65.5 25.8349 65.5 25.8491 65.5C25.8634 65.5 25.8776 65.5 25.8919 65.5C25.9062 65.5 25.9205 65.5 25.9348 65.5C25.9492 65.5 25.9636 65.5 25.978 65.5C25.9924 65.5 26.0069 65.5 26.0214 65.5C26.0359 65.5 26.0504 65.5 26.065 65.5C26.0796 65.5 26.0942 65.5 26.1089 65.5C26.1235 65.5 26.1382 65.5 26.1529 65.5C26.1677 65.5 26.1824 65.5 26.1972 65.5C26.212 65.5 26.2269 65.5 26.2417 65.5C26.2566 65.5 26.2715 65.5 26.2865 65.5C26.3014 65.5 26.3164 65.5 26.3314 65.5C26.3465 65.5 26.3615 65.5 26.3766 65.5C26.3918 65.5 26.4069 65.5 26.4221 65.5C26.4373 65.5 26.4525 65.5 26.4677 65.5C26.483 65.5 26.4983 65.5 26.5136 65.5C26.529 65.5 26.5443 65.5 26.5598 65.5C26.5752 65.5 26.5906 65.5 26.6061 65.5C26.6216 65.5 26.6372 65.5 26.6527 65.5C26.6683 65.5 26.6839 65.5 26.6996 65.5C26.7152 65.5 26.7309 65.5 26.7466 65.5C26.7624 65.5 26.7781 65.5 26.7939 65.5C26.8098 65.5 26.8256 65.5 26.8415 65.5C26.8574 65.5 26.8733 65.5 26.8893 65.5C26.9053 65.5 26.9213 65.5 26.9373 65.5C26.9534 65.5 26.9695 65.5 26.9856 65.5C27.0017 65.5 27.0179 65.5 27.0341 65.5C27.0503 65.5 27.0666 65.5 27.0829 65.5C27.0992 65.5 27.1155 65.5 27.1319 65.5C27.1483 65.5 27.1647 65.5 27.1811 65.5C27.1976 65.5 27.2141 65.5 27.2306 65.5C27.2472 65.5 27.2638 65.5 27.2804 65.5C27.297 65.5 27.3137 65.5 27.3304 65.5C27.3471 65.5 27.3639 65.5 27.3807 65.5C27.3974 65.5 27.4143 65.5 27.4312 65.5C27.448 65.5 27.465 65.5 27.4819 65.5C27.4989 65.5 27.5159 65.5 27.5329 65.5C27.55 65.5 27.5671 65.5 27.5842 65.5C27.6013 65.5 27.6185 65.5 27.6357 65.5C27.6529 65.5 27.6702 65.5 27.6875 65.5C27.7048 65.5 27.7221 65.5 27.7395 65.5C27.7569 65.5 27.7744 65.5 27.7918 65.5C27.8093 65.5 27.8268 65.5 27.8444 65.5C27.862 65.5 27.8796 65.5 27.8972 65.5C27.9149 65.5 27.9326 65.5 27.9503 65.5C27.968 65.5 27.9858 65.5 28.0036 65.5C28.0215 65.5 28.0393 65.5 28.0572 65.5C28.0752 65.5 28.0931 65.5 28.1111 65.5C28.1291 65.5 28.1472 65.5 28.1653 65.5C28.1833 65.5 28.2015 65.5 28.2197 65.5C28.2378 65.5 28.2561 65.5 28.2743 65.5C28.2926 65.5 28.3109 65.5 28.3293 65.5C28.3476 65.5 28.366 65.5 28.3845 65.5C28.4029 65.5 28.4214 65.5 28.44 65.5C28.4585 65.5 28.4771 65.5 28.4957 65.5C28.5144 65.5 28.533 65.5 28.5518 65.5C28.5705 65.5 28.5893 65.5 28.6081 65.5C28.6269 65.5 28.6457 65.5 28.6647 65.5C28.6836 65.5 28.7025 65.5 28.7215 65.5C28.7405 65.5 28.7596 65.5 28.7786 65.5C28.7977 65.5 28.8169 65.5 28.8361 65.5C28.8552 65.5 28.8745 65.5 28.8938 65.5C28.913 65.5 28.9324 65.5 28.9517 65.5C28.9711 65.5 28.9905 65.5 29.01 65.5C29.0294 65.5 29.049 65.5 29.0685 65.5C29.0881 65.5 29.1077 65.5 29.1273 65.5C29.147 65.5 29.1667 65.5 29.1864 65.5C29.2062 65.5 29.226 65.5 29.2458 65.5C29.2657 65.5 29.2856 65.5 29.3055 65.5C29.3255 65.5 29.3455 65.5 29.3655 65.5C29.3855 65.5 29.4056 65.5 29.4257 65.5C29.4459 65.5 29.4661 65.5 29.4863 65.5C29.5065 65.5 29.5268 65.5 29.5471 65.5C29.5675 65.5 29.5878 65.5 29.6083 65.5C29.6287 65.5 29.6491 65.5 29.6697 65.5C29.6902 65.5 29.7108 65.5 29.7314 65.5C29.752 65.5 29.7727 65.5 29.7934 65.5C29.8141 65.5 29.8349 65.5 29.8557 65.5C29.8765 65.5 29.8974 65.5 29.9183 65.5C29.9392 65.5 29.9602 65.5 29.9812 65.5C30.0022 65.5 30.0233 65.5 30.0444 65.5C30.0655 65.5 30.0867 65.5 30.1079 65.5C30.1291 65.5 30.1504 65.5 30.1717 65.5C30.193 65.5 30.2144 65.5 30.2358 65.5C30.2572 65.5 30.2787 65.5 30.3002 65.5C30.3217 65.5 30.3433 65.5 30.3649 65.5C30.3865 65.5 30.4082 65.5 30.4299 65.5C30.4517 65.5 30.4734 65.5 30.4953 65.5C30.5171 65.5 30.539 65.5 30.5609 65.5C30.5828 65.5 30.6048 65.5 30.6268 65.5C30.6489 65.5 30.6709 65.5 30.6931 65.5C30.7152 65.5 30.7374 65.5 30.7596 65.5C30.7819 65.5 30.8042 65.5 30.8265 65.5C30.8488 65.5 30.8712 65.5 30.8937 65.5C30.9161 65.5 30.9386 65.5 30.9612 65.5C30.9837 65.5 31.0063 65.5 31.029 65.5C31.0516 65.5 31.0743 65.5 31.0971 65.5C31.1199 65.5 31.1427 65.5 31.1655 65.5C31.1884 65.5 31.2113 65.5 31.2343 65.5C31.2573 65.5 31.2803 65.5 31.3034 65.5C31.3265 65.5 31.3496 65.5 31.3728 65.5C31.396 65.5 31.4192 65.5 31.4425 65.5C31.4658 65.5 31.4891 65.5 31.5125 65.5C31.5359 65.5 31.5594 65.5 31.5829 65.5C31.6064 65.5 31.63 65.5 31.6536 65.5C31.6772 65.5 31.7009 65.5 31.7246 65.5C31.7483 65.5 31.7721 65.5 31.7959 65.5C31.8197 65.5 31.8436 65.5 31.8676 65.5C31.8915 65.5 31.9155 65.5 31.9396 65.5C31.9636 65.5 31.9877 65.5 32.0119 65.5C32.036 65.5 32.0603 65.5 32.0845 65.5C32.1088 65.5 32.1331 65.5 32.1575 65.5C32.1819 65.5 32.2063 65.5 32.2308 65.5V60.5C32.2063 60.5 32.1819 60.5 32.1575 60.5C32.1331 60.5 32.1088 60.5 32.0845 60.5C32.0603 60.5 32.036 60.5 32.0119 60.5C31.9877 60.5 31.9636 60.5 31.9396 60.5C31.9155 60.5 31.8915 60.5 31.8676 60.5C31.8436 60.5 31.8197 60.5 31.7959 60.5C31.7721 60.5 31.7483 60.5 31.7246 60.5C31.7009 60.5 31.6772 60.5 31.6536 60.5C31.63 60.5 31.6064 60.5 31.5829 60.5C31.5594 60.5 31.5359 60.5 31.5125 60.5C31.4891 60.5 31.4658 60.5 31.4425 60.5C31.4192 60.5 31.396 60.5 31.3728 60.5C31.3496 60.5 31.3265 60.5 31.3034 60.5C31.2803 60.5 31.2573 60.5 31.2343 60.5C31.2113 60.5 31.1884 60.5 31.1655 60.5C31.1427 60.5 31.1199 60.5 31.0971 60.5C31.0743 60.5 31.0516 60.5 31.029 60.5C31.0063 60.5 30.9837 60.5 30.9612 60.5C30.9386 60.5 30.9161 60.5 30.8937 60.5C30.8712 60.5 30.8488 60.5 30.8265 60.5C30.8042 60.5 30.7819 60.5 30.7596 60.5C30.7374 60.5 30.7152 60.5 30.6931 60.5C30.6709 60.5 30.6489 60.5 30.6268 60.5C30.6048 60.5 30.5828 60.5 30.5609 60.5C30.539 60.5 30.5171 60.5 30.4953 60.5C30.4734 60.5 30.4517 60.5 30.4299 60.5C30.4082 60.5 30.3865 60.5 30.3649 60.5C30.3433 60.5 30.3217 60.5 30.3002 60.5C30.2787 60.5 30.2572 60.5 30.2358 60.5C30.2144 60.5 30.193 60.5 30.1717 60.5C30.1504 60.5 30.1291 60.5 30.1079 60.5C30.0867 60.5 30.0655 60.5 30.0444 60.5C30.0233 60.5 30.0022 60.5 29.9812 60.5C29.9602 60.5 29.9392 60.5 29.9183 60.5C29.8974 60.5 29.8765 60.5 29.8557 60.5C29.8349 60.5 29.8141 60.5 29.7934 60.5C29.7727 60.5 29.752 60.5 29.7314 60.5C29.7108 60.5 29.6902 60.5 29.6697 60.5C29.6491 60.5 29.6287 60.5 29.6083 60.5C29.5878 60.5 29.5675 60.5 29.5471 60.5C29.5268 60.5 29.5065 60.5 29.4863 60.5C29.4661 60.5 29.4459 60.5 29.4257 60.5C29.4056 60.5 29.3855 60.5 29.3655 60.5C29.3455 60.5 29.3255 60.5 29.3055 60.5C29.2856 60.5 29.2657 60.5 29.2458 60.5C29.226 60.5 29.2062 60.5 29.1864 60.5C29.1667 60.5 29.147 60.5 29.1273 60.5C29.1077 60.5 29.0881 60.5 29.0685 60.5C29.049 60.5 29.0294 60.5 29.01 60.5C28.9905 60.5 28.9711 60.5 28.9517 60.5C28.9324 60.5 28.913 60.5 28.8938 60.5C28.8745 60.5 28.8552 60.5 28.8361 60.5C28.8169 60.5 28.7977 60.5 28.7786 60.5C28.7596 60.5 28.7405 60.5 28.7215 60.5C28.7025 60.5 28.6836 60.5 28.6647 60.5C28.6457 60.5 28.6269 60.5 28.6081 60.5C28.5893 60.5 28.5705 60.5 28.5518 60.5C28.533 60.5 28.5144 60.5 28.4957 60.5C28.4771 60.5 28.4585 60.5 28.44 60.5C28.4214 60.5 28.4029 60.5 28.3845 60.5C28.366 60.5 28.3476 60.5 28.3293 60.5C28.3109 60.5 28.2926 60.5 28.2743 60.5C28.2561 60.5 28.2378 60.5 28.2197 60.5C28.2015 60.5 28.1833 60.5 28.1653 60.5C28.1472 60.5 28.1291 60.5 28.1111 60.5C28.0931 60.5 28.0752 60.5 28.0572 60.5C28.0393 60.5 28.0215 60.5 28.0036 60.5C27.9858 60.5 27.968 60.5 27.9503 60.5C27.9326 60.5 27.9149 60.5 27.8972 60.5C27.8796 60.5 27.862 60.5 27.8444 60.5C27.8268 60.5 27.8093 60.5 27.7918 60.5C27.7744 60.5 27.7569 60.5 27.7395 60.5C27.7221 60.5 27.7048 60.5 27.6875 60.5C27.6702 60.5 27.6529 60.5 27.6357 60.5C27.6185 60.5 27.6013 60.5 27.5842 60.5C27.5671 60.5 27.55 60.5 27.5329 60.5C27.5159 60.5 27.4989 60.5 27.4819 60.5C27.465 60.5 27.448 60.5 27.4312 60.5C27.4143 60.5 27.3974 60.5 27.3807 60.5C27.3639 60.5 27.3471 60.5 27.3304 60.5C27.3137 60.5 27.297 60.5 27.2804 60.5C27.2638 60.5 27.2472 60.5 27.2306 60.5C27.2141 60.5 27.1976 60.5 27.1811 60.5C27.1647 60.5 27.1483 60.5 27.1319 60.5C27.1155 60.5 27.0992 60.5 27.0829 60.5C27.0666 60.5 27.0503 60.5 27.0341 60.5C27.0179 60.5 27.0017 60.5 26.9856 60.5C26.9695 60.5 26.9534 60.5 26.9373 60.5C26.9213 60.5 26.9053 60.5 26.8893 60.5C26.8733 60.5 26.8574 60.5 26.8415 60.5C26.8256 60.5 26.8098 60.5 26.7939 60.5C26.7781 60.5 26.7624 60.5 26.7466 60.5C26.7309 60.5 26.7152 60.5 26.6996 60.5C26.6839 60.5 26.6683 60.5 26.6527 60.5C26.6372 60.5 26.6216 60.5 26.6061 60.5C26.5906 60.5 26.5752 60.5 26.5598 60.5C26.5443 60.5 26.529 60.5 26.5136 60.5C26.4983 60.5 26.483 60.5 26.4677 60.5C26.4525 60.5 26.4373 60.5 26.4221 60.5C26.4069 60.5 26.3918 60.5 26.3766 60.5C26.3615 60.5 26.3465 60.5 26.3314 60.5C26.3164 60.5 26.3014 60.5 26.2865 60.5C26.2715 60.5 26.2566 60.5 26.2417 60.5C26.2269 60.5 26.212 60.5 26.1972 60.5C26.1824 60.5 26.1677 60.5 26.1529 60.5C26.1382 60.5 26.1235 60.5 26.1089 60.5C26.0942 60.5 26.0796 60.5 26.065 60.5C26.0504 60.5 26.0359 60.5 26.0214 60.5C26.0069 60.5 25.9924 60.5 25.978 60.5C25.9636 60.5 25.9492 60.5 25.9348 60.5C25.9205 60.5 25.9062 60.5 25.8919 60.5C25.8776 60.5 25.8634 60.5 25.8491 60.5C25.8349 60.5 25.8208 60.5 25.8066 60.5C25.7925 60.5 25.7784 60.5 25.7643 60.5C25.7503 60.5 25.7362 60.5 25.7222 60.5C25.7083 60.5 25.6943 60.5 25.6804 60.5C25.6665 60.5 25.6526 60.5 25.6387 60.5C25.6249 60.5 25.6111 60.5 25.5973 60.5C25.5835 60.5 25.5698 60.5 25.5561 60.5C25.5423 60.5 25.5287 60.5 25.515 60.5C25.5014 60.5 25.4878 60.5 25.4742 60.5C25.4607 60.5 25.4471 60.5 25.4336 60.5C25.4201 60.5 25.4067 60.5 25.3932 60.5C25.3798 60.5 25.3664 60.5 25.353 60.5C25.3397 60.5 25.3264 60.5 25.3131 60.5C25.2998 60.5 25.2865 60.5 25.2733 60.5C25.2601 60.5 25.2469 60.5 25.2337 60.5C25.2206 60.5 25.2074 60.5 25.1943 60.5C25.1813 60.5 25.1682 60.5 25.1552 60.5C25.1422 60.5 25.1292 60.5 25.1162 60.5C25.1033 60.5 25.0903 60.5 25.0774 60.5C25.0646 60.5 25.0517 60.5 25.0389 60.5C25.0261 60.5 25.0133 60.5 25.0005 60.5C24.9878 60.5 24.975 60.5 24.9623 60.5C24.9496 60.5 24.937 60.5 24.9244 60.5C24.9117 60.5 24.8991 60.5 24.8866 60.5C24.874 60.5 24.8615 60.5 24.849 60.5C24.8365 60.5 24.824 60.5 24.8116 60.5C24.7991 60.5 24.7867 60.5 24.7744 60.5C24.762 60.5 24.7497 60.5 24.7374 60.5C24.725 60.5 24.7128 60.5 24.7005 60.5C24.6883 60.5 24.6761 60.5 24.6639 60.5C24.6517 60.5 24.6396 60.5 24.6274 60.5C24.6153 60.5 24.6032 60.5 24.5912 60.5C24.5791 60.5 24.5671 60.5 24.5551 60.5C24.5431 60.5 24.5311 60.5 24.5192 60.5C24.5073 60.5 24.4954 60.5 24.4835 60.5C24.4716 60.5 24.4598 60.5 24.4479 60.5C24.4361 60.5 24.4244 60.5 24.4126 60.5C24.4008 60.5 24.3891 60.5 24.3774 60.5C24.3657 60.5 24.3541 60.5 24.3424 60.5C24.3308 60.5 24.3192 60.5 24.3076 60.5C24.2961 60.5 24.2845 60.5 24.273 60.5C24.2615 60.5 24.25 60.5 24.2385 60.5C24.2271 60.5 24.2156 60.5 24.2042 60.5C24.1928 60.5 24.1815 60.5 24.1701 60.5C24.1588 60.5 24.1475 60.5 24.1362 60.5C24.1249 60.5 24.1137 60.5 24.1024 60.5C24.0912 60.5 24.08 60.5 24.0688 60.5C24.0577 60.5 24.0465 60.5 24.0354 60.5C24.0243 60.5 24.0132 60.5 24.0022 60.5C23.9911 60.5 23.9801 60.5 23.9691 60.5C23.9581 60.5 23.9471 60.5 23.9361 60.5C23.9252 60.5 23.9143 60.5 23.9034 60.5C23.8925 60.5 23.8816 60.5 23.8708 60.5C23.86 60.5 23.8492 60.5 23.8384 60.5C23.8276 60.5 23.8168 60.5 23.8061 60.5C23.7954 60.5 23.7847 60.5 23.774 60.5C23.7633 60.5 23.7527 60.5 23.7421 60.5C23.7314 60.5 23.7208 60.5 23.7103 60.5C23.6997 60.5 23.6892 60.5 23.6787 60.5C23.6681 60.5 23.6577 60.5 23.6472 60.5C23.6367 60.5 23.6263 60.5 23.6159 60.5C23.6055 60.5 23.5951 60.5 23.5847 60.5C23.5744 60.5 23.564 60.5 23.5537 60.5C23.5434 60.5 23.5331 60.5 23.5229 60.5C23.5126 60.5 23.5024 60.5 23.4922 60.5C23.482 60.5 23.4718 60.5 23.4616 60.5C23.4515 60.5 23.4414 60.5 23.4313 60.5C23.4211 60.5 23.4111 60.5 23.401 60.5C23.391 60.5 23.3809 60.5 23.3709 60.5C23.3609 60.5 23.3509 60.5 23.341 60.5C23.331 60.5 23.3211 60.5 23.3112 60.5C23.3013 60.5 23.2914 60.5 23.2815 60.5C23.2716 60.5 23.2618 60.5 23.252 60.5C23.2422 60.5 23.2324 60.5 23.2226 60.5C23.2129 60.5 23.2031 60.5 23.1934 60.5C23.1837 60.5 23.174 60.5 23.1643 60.5C23.1546 60.5 23.145 60.5 23.1354 60.5C23.1257 60.5 23.1161 60.5 23.1066 60.5C23.097 60.5 23.0874 60.5 23.0779 60.5C23.0684 60.5 23.0589 60.5 23.0494 60.5C23.0399 60.5 23.0304 60.5 23.021 60.5C23.0115 60.5 23.0021 60.5 22.9927 60.5C22.9833 60.5 22.9739 60.5 22.9646 60.5C22.9552 60.5 22.9459 60.5 22.9366 60.5C22.9273 60.5 22.918 60.5 22.9087 60.5C22.8995 60.5 22.8902 60.5 22.881 60.5C22.8718 60.5 22.8626 60.5 22.8534 60.5C22.8442 60.5 22.8351 60.5 22.8259 60.5C22.8168 60.5 22.8077 60.5 22.7986 60.5C22.7895 60.5 22.7804 60.5 22.7714 60.5C22.7623 60.5 22.7533 60.5 22.7443 60.5C22.7353 60.5 22.7263 60.5 22.7173 60.5C22.7084 60.5 22.6994 60.5 22.6905 60.5C22.6816 60.5 22.6726 60.5 22.6638 60.5C22.6549 60.5 22.646 60.5 22.6372 60.5C22.6283 60.5 22.6195 60.5 22.6107 60.5C22.6019 60.5 22.5931 60.5 22.5843 60.5C22.5756 60.5 22.5668 60.5 22.5581 60.5C22.5494 60.5 22.5407 60.5 22.532 60.5C22.5233 60.5 22.5146 60.5 22.506 60.5C22.4973 60.5 22.4887 60.5 22.4801 60.5C22.4715 60.5 22.4629 60.5 22.4543 60.5C22.4457 60.5 22.4372 60.5 22.4286 60.5C22.4201 60.5 22.4116 60.5 22.4031 60.5C22.3946 60.5 22.3861 60.5 22.3777 60.5C22.3692 60.5 22.3607 60.5 22.3523 60.5C22.3439 60.5 22.3355 60.5 22.3271 60.5C22.3187 60.5 22.3103 60.5 22.302 60.5C22.2936 60.5 22.2853 60.5 22.277 60.5C22.2687 60.5 22.2604 60.5 22.2521 60.5C22.2438 60.5 22.2356 60.5 22.2273 60.5C22.2191 60.5 22.2108 60.5 22.2026 60.5C22.1944 60.5 22.1862 60.5 22.178 60.5C22.1699 60.5 22.1617 60.5 22.1536 60.5C22.1454 60.5 22.1373 60.5 22.1292 60.5C22.1211 60.5 22.113 60.5 22.1049 60.5C22.0968 60.5 22.0888 60.5 22.0807 60.5C22.0727 60.5 22.0647 60.5 22.0566 60.5C22.0486 60.5 22.0406 60.5 22.0327 60.5C22.0247 60.5 22.0167 60.5 22.0088 60.5C22.0008 60.5 21.9929 60.5 21.985 60.5C21.9771 60.5 21.9692 60.5 21.9613 60.5C21.9534 60.5 21.9455 60.5 21.9377 60.5C21.9298 60.5 21.922 60.5 21.9142 60.5C21.9063 60.5 21.8985 60.5 21.8907 60.5C21.8829 60.5 21.8752 60.5 21.8674 60.5C21.8596 60.5 21.8519 60.5 21.8441 60.5C21.8364 60.5 21.8287 60.5 21.821 60.5C21.8133 60.5 21.8056 60.5 21.7979 60.5C21.7902 60.5 21.7826 60.5 21.7749 60.5C21.7673 60.5 21.7597 60.5 21.752 60.5C21.7444 60.5 21.7368 60.5 21.7292 60.5C21.7216 60.5 21.714 60.5 21.7065 60.5C21.6989 60.5 21.6914 60.5 21.6838 60.5C21.6763 60.5 21.6688 60.5 21.6613 60.5C21.6538 60.5 21.6463 60.5 21.6388 60.5C21.6313 60.5 21.6238 60.5 21.6164 60.5C21.6089 60.5 21.6015 60.5 21.594 60.5C21.5866 60.5 21.5792 60.5 21.5718 60.5C21.5644 60.5 21.557 60.5 21.5496 60.5C21.5422 60.5 21.5348 60.5 21.5275 60.5C21.5201 60.5 21.5128 60.5 21.5054 60.5C21.4981 60.5 21.4908 60.5 21.4835 60.5C21.4762 60.5 21.4689 60.5 21.4616 60.5C21.4543 60.5 21.447 60.5 21.4398 60.5C21.4325 60.5 21.4253 60.5 21.418 60.5C21.4108 60.5 21.4035 60.5 21.3963 60.5C21.3891 60.5 21.3819 60.5 21.3747 60.5C21.3675 60.5 21.3603 60.5 21.3532 60.5C21.346 60.5 21.3388 60.5 21.3317 60.5C21.3245 60.5 21.3174 60.5 21.3103 60.5C21.3031 60.5 21.296 60.5 21.2889 60.5C21.2818 60.5 21.2747 60.5 21.2676 60.5C21.2605 60.5 21.2534 60.5 21.2464 60.5C21.2393 60.5 21.2323 60.5 21.2252 60.5C21.2182 60.5 21.2111 60.5 21.2041 60.5C21.1971 60.5 21.19 60.5 21.183 60.5C21.176 60.5 21.169 60.5 21.162 60.5C21.155 60.5 21.1481 60.5 21.1411 60.5C21.1341 60.5 21.1272 60.5 21.1202 60.5C21.1133 60.5 21.1063 60.5 21.0994 60.5C21.0924 60.5 21.0855 60.5 21.0786 60.5C21.0717 60.5 21.0648 60.5 21.0579 60.5C21.051 60.5 21.0441 60.5 21.0372 60.5C21.0303 60.5 21.0234 60.5 21.0166 60.5C21.0097 60.5 21.0028 60.5 20.996 60.5C20.9891 60.5 20.9823 60.5 20.9755 60.5C20.9686 60.5 20.9618 60.5 20.955 60.5C20.9481 60.5 20.9413 60.5 20.9345 60.5C20.9277 60.5 20.9209 60.5 20.9141 60.5C20.9073 60.5 20.9006 60.5 20.8938 60.5C20.887 60.5 20.8802 60.5 20.8735 60.5C20.8667 60.5 20.86 60.5 20.8532 60.5C20.8465 60.5 20.8397 60.5 20.833 60.5C20.8263 60.5 20.8195 60.5 20.8128 60.5C20.8061 60.5 20.7994 60.5 20.7927 60.5C20.786 60.5 20.7792 60.5 20.7726 60.5C20.7659 60.5 20.7592 60.5 20.7525 60.5C20.7458 60.5 20.7391 60.5 20.7324 60.5C20.7258 60.5 20.7191 60.5 20.7124 60.5C20.7058 60.5 20.6991 60.5 20.6925 60.5C20.6858 60.5 20.6792 60.5 20.6725 60.5C20.6659 60.5 20.6593 60.5 20.6526 60.5C20.646 60.5 20.6394 60.5 20.6328 60.5C20.6261 60.5 20.6195 60.5 20.6129 60.5C20.6063 60.5 20.5997 60.5 20.5931 60.5C20.5865 60.5 20.5799 60.5 20.5733 60.5C20.5667 60.5 20.5601 60.5 20.5535 60.5C20.547 60.5 20.5404 60.5 20.5338 60.5C20.5272 60.5 20.5207 60.5 20.5141 60.5C20.5075 60.5 20.501 60.5 20.4944 60.5C20.4879 60.5 20.4813 60.5 20.4747 60.5C20.4682 60.5 20.4616 60.5 20.4551 60.5C20.4486 60.5 20.442 60.5 20.4355 60.5C20.4289 60.5 20.4224 60.5 20.4159 60.5C20.4093 60.5 20.4028 60.5 20.3963 60.5C20.3898 60.5 20.3832 60.5 20.3767 60.5C20.3702 60.5 20.3637 60.5 20.3572 60.5C20.3506 60.5 20.3441 60.5 20.3376 60.5C20.3311 60.5 20.3246 60.5 20.3181 60.5C20.3116 60.5 20.3051 60.5 20.2986 60.5C20.2921 60.5 20.2856 60.5 20.2791 60.5C20.2726 60.5 20.2661 60.5 20.2596 60.5C20.2531 60.5 20.2466 60.5 20.2401 60.5C20.2336 60.5 20.2271 60.5 20.2206 60.5C20.2141 60.5 20.2077 60.5 20.2012 60.5C20.1947 60.5 20.1882 60.5 20.1817 60.5C20.1752 60.5 20.1687 60.5 20.1623 60.5C20.1558 60.5 20.1493 60.5 20.1428 60.5C20.1363 60.5 20.1299 60.5 20.1234 60.5C20.1169 60.5 20.1104 60.5 20.1039 60.5C20.0975 60.5 20.091 60.5 20.0845 60.5C20.078 60.5 20.0715 60.5 20.0651 60.5C20.0586 60.5 20.0521 60.5 20.0456 60.5C20.0391 60.5 20.0327 60.5 20.0262 60.5C20.0197 60.5 20.0132 60.5 20.0067 60.5C20.0003 60.5 19.9938 60.5 19.9873 60.5C19.9808 60.5 19.9743 60.5 19.9679 60.5C19.9614 60.5 19.9549 60.5 19.9484 60.5C19.9419 60.5 19.9354 60.5 19.9289 60.5C19.9224 60.5 19.916 60.5 19.9095 60.5C19.903 60.5 19.8965 60.5 19.89 60.5C19.8835 60.5 19.877 60.5 19.8705 60.5C19.864 60.5 19.8575 60.5 19.851 60.5C19.8445 60.5 19.838 60.5 19.8315 60.5C19.825 60.5 19.8185 60.5 19.812 60.5C19.8055 60.5 19.799 60.5 19.7924 60.5C19.7859 60.5 19.7794 60.5 19.7729 60.5C19.7664 60.5 19.7599 60.5 19.7533 60.5C19.7468 60.5 19.7403 60.5 19.7338 60.5C19.7272 60.5 19.7207 60.5 19.7142 60.5C19.7076 60.5 19.7011 60.5 19.6945 60.5C19.688 60.5 19.6814 60.5 19.6749 60.5C19.6683 60.5 19.6618 60.5 19.6552 60.5C19.6487 60.5 19.6421 60.5 19.6356 60.5C19.629 60.5 19.6224 60.5 19.6159 60.5C19.6093 60.5 19.6027 60.5 19.5961 60.5C19.5895 60.5 19.583 60.5 19.5764 60.5C19.5698 60.5 19.5632 60.5 19.5566 60.5C19.55 60.5 19.5434 60.5 19.5368 60.5C19.5302 60.5 19.5236 60.5 19.517 60.5C19.5103 60.5 19.5037 60.5 19.4971 60.5C19.4905 60.5 19.4838 60.5 19.4772 60.5C19.4706 60.5 19.4639 60.5 19.4573 60.5C19.4506 60.5 19.444 60.5 19.4373 60.5C19.4307 60.5 19.424 60.5 19.4173 60.5C19.4107 60.5 19.404 60.5 19.3973 60.5C19.3906 60.5 19.384 60.5 19.3773 60.5C19.3706 60.5 19.3639 60.5 19.3572 60.5C19.3505 60.5 19.3438 60.5 19.337 60.5C19.3303 60.5 19.3236 60.5 19.3169 60.5C19.3101 60.5 19.3034 60.5 19.2967 60.5C19.2899 60.5 19.2832 60.5 19.2764 60.5C19.2697 60.5 19.2629 60.5 19.2561 60.5C19.2493 60.5 19.2426 60.5 19.2358 60.5C19.229 60.5 19.2222 60.5 19.2154 60.5C19.2086 60.5 19.2018 60.5 19.195 60.5C19.1882 60.5 19.1814 60.5 19.1745 60.5C19.1677 60.5 19.1609 60.5 19.154 60.5C19.1472 60.5 19.1403 60.5 19.1335 60.5C19.1266 60.5 19.1197 60.5 19.1128 60.5C19.106 60.5 19.0991 60.5 19.0922 60.5C19.0853 60.5 19.0784 60.5 19.0715 60.5C19.0646 60.5 19.0577 60.5 19.0507 60.5C19.0438 60.5 19.0369 60.5 19.0299 60.5C19.023 60.5 19.016 60.5 19.009 60.5C19.0021 60.5 18.9951 60.5 18.9881 60.5C18.9811 60.5 18.9741 60.5 18.9671 60.5C18.9601 60.5 18.9531 60.5 18.9461 60.5C18.9391 60.5 18.9321 60.5 18.925 60.5C18.918 60.5 18.9109 60.5 18.9039 60.5C18.8968 60.5 18.8897 60.5 18.8827 60.5C18.8756 60.5 18.8685 60.5 18.8614 60.5C18.8543 60.5 18.8472 60.5 18.8401 60.5C18.8329 60.5 18.8258 60.5 18.8187 60.5C18.8115 60.5 18.8044 60.5 18.7972 60.5C18.79 60.5 18.7829 60.5 18.7757 60.5C18.7685 60.5 18.7613 60.5 18.7541 60.5C18.7469 60.5 18.7397 60.5 18.7324 60.5C18.7252 60.5 18.718 60.5 18.7107 60.5C18.7035 60.5 18.6962 60.5 18.6889 60.5C18.6817 60.5 18.6744 60.5 18.6671 60.5C18.6598 60.5 18.6525 60.5 18.6451 60.5C18.6378 60.5 18.6305 60.5 18.6231 60.5C18.6158 60.5 18.6084 60.5 18.601 60.5C18.5937 60.5 18.5863 60.5 18.5789 60.5C18.5715 60.5 18.5641 60.5 18.5567 60.5C18.5492 60.5 18.5418 60.5 18.5344 60.5C18.5269 60.5 18.5195 60.5 18.512 60.5C18.5045 60.5 18.497 60.5 18.4895 60.5C18.482 60.5 18.4745 60.5 18.467 60.5C18.4595 60.5 18.4519 60.5 18.4444 60.5C18.4368 60.5 18.4292 60.5 18.4217 60.5C18.4141 60.5 18.4065 60.5 18.3989 60.5C18.3913 60.5 18.3836 60.5 18.376 60.5C18.3684 60.5 18.3607 60.5 18.3531 60.5C18.3454 60.5 18.3377 60.5 18.33 60.5C18.3223 60.5 18.3146 60.5 18.3069 60.5C18.2992 60.5 18.2914 60.5 18.2837 60.5C18.2759 60.5 18.2682 60.5 18.2604 60.5C18.2526 60.5 18.2448 60.5 18.237 60.5C18.2292 60.5 18.2214 60.5 18.2135 60.5C18.2057 60.5 18.1978 60.5 18.19 60.5C18.1821 60.5 18.1742 60.5 18.1663 60.5C18.1584 60.5 18.1505 60.5 18.1425 60.5C18.1346 60.5 18.1266 60.5 18.1187 60.5C18.1107 60.5 18.1027 60.5 18.0947 60.5C18.0867 60.5 18.0787 60.5 18.0707 60.5C18.0627 60.5 18.0546 60.5 18.0466 60.5C18.0385 60.5 18.0304 60.5 18.0223 60.5C18.0142 60.5 18.0061 60.5 17.998 60.5C17.9898 60.5 17.9817 60.5 17.9735 60.5C17.9654 60.5 17.9572 60.5 17.949 60.5C17.9408 60.5 17.9326 60.5 17.9243 60.5C17.9161 60.5 17.9079 60.5 17.8996 60.5C17.8913 60.5 17.883 60.5 17.8747 60.5C17.8664 60.5 17.8581 60.5 17.8498 60.5C17.8414 60.5 17.8331 60.5 17.8247 60.5C17.8163 60.5 17.808 60.5 17.7995 60.5C17.7911 60.5 17.7827 60.5 17.7743 60.5C17.7658 60.5 17.7573 60.5 17.7489 60.5C17.7404 60.5 17.7319 60.5 17.7234 60.5C17.7148 60.5 17.7063 60.5 17.6977 60.5C17.6892 60.5 17.6806 60.5 17.672 60.5C17.6634 60.5 17.6548 60.5 17.6462 60.5C17.6375 60.5 17.6289 60.5 17.6202 60.5C17.6115 60.5 17.6028 60.5 17.5941 60.5C17.5854 60.5 17.5767 60.5 17.5679 60.5C17.5592 60.5 17.5504 60.5 17.5416 60.5C17.5328 60.5 17.524 60.5 17.5152 60.5C17.5064 60.5 17.4975 60.5 17.4887 60.5C17.4798 60.5 17.4709 60.5 17.462 60.5C17.4531 60.5 17.4441 60.5 17.4352 60.5C17.4262 60.5 17.4173 60.5 17.4083 60.5C17.3993 60.5 17.3903 60.5 17.3812 60.5C17.3722 60.5 17.3631 60.5 17.3541 60.5C17.345 60.5 17.3359 60.5 17.3268 60.5C17.3177 60.5 17.3085 60.5 17.2994 60.5C17.2902 60.5 17.281 60.5 17.2718 60.5C17.2626 60.5 17.2534 60.5 17.2441 60.5C17.2349 60.5 17.2256 60.5 17.2163 60.5C17.207 60.5 17.1977 60.5 17.1884 60.5C17.179 60.5 17.1697 60.5 17.1603 60.5C17.1509 60.5 17.1415 60.5 17.1321 60.5C17.1227 60.5 17.1132 60.5 17.1038 60.5C17.0943 60.5 17.0848 60.5 17.0753 60.5C17.0658 60.5 17.0562 60.5 17.0467 60.5C17.0371 60.5 17.0275 60.5 17.0179 60.5C17.0083 60.5 16.9987 60.5 16.989 60.5C16.9794 60.5 16.9697 60.5 16.96 60.5C16.9503 60.5 16.9406 60.5 16.9308 60.5C16.9211 60.5 16.9113 60.5 16.9015 60.5C16.8917 60.5 16.8819 60.5 16.8721 60.5C16.8622 60.5 16.8524 60.5 16.8425 60.5C16.8326 60.5 16.8227 60.5 16.8127 60.5C16.8028 60.5 16.7928 60.5 16.7828 60.5C16.7728 60.5 16.7628 60.5 16.7528 60.5C16.7428 60.5 16.7327 60.5 16.7226 60.5C16.7125 60.5 16.7024 60.5 16.6923 60.5C16.6821 60.5 16.672 60.5 16.6618 60.5C16.6516 60.5 16.6414 60.5 16.6312 60.5C16.6209 60.5 16.6107 60.5 16.6004 60.5C16.5901 60.5 16.5798 60.5 16.5694 60.5C16.5591 60.5 16.5487 60.5 16.5384 60.5C16.528 60.5 16.5175 60.5 16.5071 60.5C16.4967 60.5 16.4862 60.5 16.4757 60.5C16.4652 60.5 16.4547 60.5 16.4441 60.5C16.4336 60.5 16.423 60.5 16.4124 60.5C16.4018 60.5 16.3912 60.5 16.3805 60.5C16.3699 60.5 16.3592 60.5 16.3485 60.5C16.3378 60.5 16.3271 60.5 16.3163 60.5C16.3055 60.5 16.2948 60.5 16.2839 60.5C16.2731 60.5 16.2623 60.5 16.2514 60.5C16.2405 60.5 16.2296 60.5 16.2187 60.5C16.2078 60.5 16.1968 60.5 16.1859 60.5C16.1749 60.5 16.1639 60.5 16.1528 60.5C16.1418 60.5 16.1307 60.5 16.1197 60.5C16.1086 60.5 16.0974 60.5 16.0863 60.5C16.0751 60.5 16.064 60.5 16.0528 60.5C16.0416 60.5 16.0303 60.5 16.0191 60.5C16.0078 60.5 15.9965 60.5 15.9852 60.5C15.9739 60.5 15.9625 60.5 15.9512 60.5C15.9398 60.5 15.9284 60.5 15.9169 60.5C15.9055 60.5 15.894 60.5 15.8826 60.5C15.8711 60.5 15.8595 60.5 15.848 60.5C15.8364 60.5 15.8249 60.5 15.8132 60.5C15.8016 60.5 15.79 60.5 15.7783 60.5C15.7667 60.5 15.755 60.5 15.7432 60.5C15.7315 60.5 15.7197 60.5 15.708 60.5C15.6962 60.5 15.6843 60.5 15.6725 60.5C15.6606 60.5 15.6488 60.5 15.6369 60.5C15.6249 60.5 15.613 60.5 15.601 60.5C15.5891 60.5 15.5771 60.5 15.565 60.5C15.553 60.5 15.5409 60.5 15.5288 60.5C15.5167 60.5 15.5046 60.5 15.4925 60.5C15.4803 60.5 15.4681 60.5 15.4559 60.5C15.4437 60.5 15.4314 60.5 15.4191 60.5C15.4069 60.5 15.3945 60.5 15.3822 60.5C15.3698 60.5 15.3575 60.5 15.3451 60.5C15.3327 60.5 15.3202 60.5 15.3077 60.5V65.5ZM32.2308 65.5C36.7111 65.5 41.0198 63.5819 44.8345 60.927C48.6705 58.2573 52.2073 54.7045 55.2001 51.0959C58.1995 47.4794 60.7132 43.7332 62.4884 40.6105C63.375 39.0507 64.0956 37.6146 64.603 36.4033C65.0579 35.317 65.5 34.0551 65.5 33H60.5C60.5 32.9449 60.4523 33.3705 59.9911 34.4717C59.5823 35.4479 58.9603 36.6993 58.1416 38.1395C56.506 41.0168 54.1576 44.5206 51.3515 47.9041C48.5388 51.2955 45.3267 54.4927 41.9783 56.823C38.6088 59.1681 35.2977 60.5 32.2308 60.5V65.5ZM65.5 33C65.5 31.9823 65.1021 30.7471 64.6723 29.6504C64.198 28.44 63.521 27.0033 62.6797 25.4402C60.9959 22.3117 58.5888 18.5559 55.6552 14.9281C52.7277 11.3078 49.2171 7.74171 45.3099 5.06304C41.41 2.38939 36.9661 0.5 32.2308 0.5V5.5C35.6232 5.5 39.0893 6.86061 42.4826 9.18696C45.8686 11.5083 49.0343 14.6922 51.7673 18.0719C54.494 21.4441 56.7314 24.9383 58.2769 27.8098C59.0502 29.2467 59.6341 30.4975 60.017 31.4746C60.4444 32.5654 60.5 33.0177 60.5 33H65.5ZM32.2308 0.5C22.5247 0.5 22.8077 0.5 15.3077 0.5L15.3077 5.5C22.8077 5.5 22.5247 5.5 32.2308 5.5V0.5ZM13.1728 4.30085C18.8968 13.6948 24.0898 19.8503 24.0898 33H29.0898C29.0898 18.1497 22.9161 10.682 17.4426 1.69915L13.1728 4.30085ZM24.0898 33C24.0898 39.42 21.474 46.5026 18.7043 52.149C17.3367 54.9369 15.9675 57.3036 14.9414 58.971C14.429 59.8037 14.0038 60.4593 13.7095 60.9028C13.5624 61.1244 13.4481 61.2929 13.3721 61.4039C13.3341 61.4593 13.3057 61.5004 13.2875 61.5265C13.2784 61.5395 13.2719 61.5488 13.2681 61.5543C13.2662 61.5571 13.2649 61.5589 13.2643 61.5597C13.264 61.5601 13.2639 61.5603 13.2639 61.5602C13.264 61.5602 13.2641 61.56 13.2641 61.56C13.2643 61.5597 13.2646 61.5593 15.3077 63C17.3509 64.4407 17.3512 64.4402 17.3516 64.4397C17.3518 64.4394 17.3522 64.4388 17.3526 64.4383C17.3533 64.4373 17.3542 64.436 17.3553 64.4344C17.3574 64.4314 17.3602 64.4274 17.3637 64.4224C17.3707 64.4124 17.3804 64.3985 17.3927 64.3809C17.4172 64.3456 17.4522 64.2951 17.4968 64.2299C17.5861 64.0996 17.7142 63.9107 17.8755 63.6676C18.1982 63.1814 18.6544 62.4776 19.1997 61.5915C20.289 59.8214 21.7403 57.3131 23.1933 54.351C26.0646 48.4974 29.0898 40.58 29.0898 33H24.0898Z" fill="#333333"/>
</svg>
