<svg width="580" height="280" viewBox="0 0 580 280" fill="none" xmlns="http://www.w3.org/2000/svg">
<g clip-path="url(#clip0_5436_197169)">
<rect width="580" height="280" rx="17.0588" fill="#F2F2F2"/>
<path d="M21.5761 256.252C20.8392 256.252 20.1796 256.056 19.5973 255.665C19.0241 255.274 18.5738 254.714 18.2463 253.986C17.9278 253.249 17.7686 252.385 17.7686 251.393C17.7686 250.402 17.9278 249.542 18.2463 248.814C18.5738 248.077 19.0241 247.513 19.5973 247.122C20.1796 246.73 20.8392 246.535 21.5761 246.535C22.3131 246.535 22.9681 246.73 23.5413 247.122C24.1236 247.513 24.5785 248.077 24.906 248.814C25.2335 249.542 25.3973 250.402 25.3973 251.393C25.3973 252.385 25.2335 253.249 24.906 253.986C24.5785 254.714 24.1236 255.274 23.5413 255.665C22.9681 256.056 22.3131 256.252 21.5761 256.252ZM21.5761 255.351C22.1311 255.351 22.6179 255.196 23.0364 254.887C23.464 254.578 23.7961 254.127 24.0326 253.536C24.2692 252.944 24.3874 252.23 24.3874 251.393C24.3874 250.556 24.2692 249.842 24.0326 249.251C23.7961 248.659 23.464 248.209 23.0364 247.9C22.6179 247.59 22.1311 247.436 21.5761 247.436C21.0212 247.436 20.5299 247.59 20.1023 247.9C19.6837 248.209 19.3562 248.659 19.1197 249.251C18.8831 249.842 18.7648 250.556 18.7648 251.393C18.7648 252.23 18.8831 252.944 19.1197 253.536C19.3562 254.127 19.6837 254.578 20.1023 254.887C20.5299 255.196 21.0212 255.351 21.5761 255.351Z" fill="#828282"/>
<path d="M54.5337 246.617V256.17H53.5511V247.49H51.2993V246.617H54.5337Z" fill="#828282"/>
<path d="M92.5271 255.296V256.17H85.8264V255.474L89.7977 251.584C90.2981 251.093 90.6347 250.67 90.8076 250.315C90.9896 249.951 91.0805 249.587 91.0805 249.223C91.0805 248.659 90.8849 248.223 90.4937 247.913C90.1116 247.595 89.5612 247.436 88.8424 247.436C87.7234 247.436 86.8545 247.79 86.2358 248.5L85.5398 247.9C85.9129 247.463 86.386 247.126 86.9591 246.89C87.5414 246.653 88.1965 246.535 88.9243 246.535C89.8978 246.535 90.6666 246.767 91.2307 247.231C91.8038 247.686 92.0904 248.314 92.0904 249.114C92.0904 249.605 91.9812 250.079 91.7629 250.533C91.5445 250.988 91.1306 251.511 90.521 252.103L87.273 255.296H92.5271Z" fill="#828282"/>
<path d="M123.37 250.711C124.37 250.765 125.13 251.038 125.649 251.53C126.176 252.012 126.44 252.644 126.44 253.427C126.44 253.973 126.308 254.459 126.044 254.887C125.78 255.305 125.389 255.637 124.871 255.883C124.352 256.129 123.72 256.252 122.974 256.252C122.282 256.252 121.627 256.142 121.009 255.924C120.399 255.697 119.908 255.396 119.535 255.023L120.012 254.245C120.331 254.573 120.754 254.841 121.282 255.051C121.809 255.251 122.373 255.351 122.974 255.351C123.756 255.351 124.361 255.183 124.789 254.846C125.216 254.5 125.43 254.027 125.43 253.427C125.43 252.835 125.216 252.371 124.789 252.035C124.361 251.698 123.715 251.53 122.851 251.53H122.169V250.806L124.816 247.49H119.93V246.617H126.072V247.313L123.37 250.711Z" fill="#828282"/>
<path d="M162.359 253.659H160.449V256.17H159.466V253.659H154.075V252.949L159.138 246.617H160.23L155.345 252.785H159.493V250.574H160.449V252.785H162.359V253.659Z" fill="#828282"/>
<path d="M190.868 250.533C192.251 250.533 193.256 250.784 193.884 251.284C194.521 251.775 194.839 252.467 194.839 253.358C194.839 253.913 194.707 254.409 194.443 254.846C194.189 255.283 193.802 255.628 193.283 255.883C192.765 256.129 192.128 256.252 191.373 256.252C190.691 256.252 190.04 256.142 189.421 255.924C188.812 255.697 188.32 255.396 187.947 255.023L188.425 254.245C188.744 254.573 189.162 254.841 189.681 255.051C190.199 255.251 190.759 255.351 191.359 255.351C192.151 255.351 192.76 255.173 193.188 254.819C193.625 254.464 193.843 253.991 193.843 253.399C193.843 252.744 193.597 252.248 193.106 251.912C192.624 251.575 191.805 251.407 190.65 251.407H188.616L189.107 246.617H194.334V247.49H189.967L189.64 250.533H190.868Z" fill="#828282"/>
<path d="M226.432 250.452C227.06 250.452 227.615 250.57 228.097 250.806C228.588 251.043 228.971 251.38 229.243 251.816C229.516 252.244 229.653 252.744 229.653 253.317C229.653 253.9 229.512 254.414 229.23 254.86C228.948 255.305 228.557 255.651 228.056 255.897C227.565 256.133 227.01 256.252 226.391 256.252C225.127 256.252 224.158 255.838 223.484 255.01C222.811 254.173 222.475 252.994 222.475 251.475C222.475 250.411 222.657 249.51 223.02 248.773C223.384 248.036 223.894 247.481 224.549 247.108C225.204 246.726 225.968 246.535 226.842 246.535C227.788 246.535 228.543 246.708 229.107 247.053L228.711 247.845C228.256 247.545 227.638 247.395 226.855 247.395C225.8 247.395 224.972 247.731 224.371 248.405C223.771 249.069 223.471 250.038 223.471 251.311C223.471 251.539 223.484 251.798 223.512 252.089C223.748 251.571 224.126 251.17 224.644 250.888C225.163 250.597 225.759 250.452 226.432 250.452ZM226.35 255.419C227.042 255.419 227.601 255.233 228.029 254.86C228.466 254.477 228.684 253.973 228.684 253.345C228.684 252.717 228.466 252.217 228.029 251.844C227.601 251.471 227.019 251.284 226.282 251.284C225.8 251.284 225.372 251.375 224.999 251.557C224.635 251.739 224.349 251.989 224.139 252.308C223.93 252.626 223.826 252.981 223.826 253.372C223.826 253.736 223.921 254.073 224.112 254.382C224.312 254.691 224.603 254.941 224.986 255.133C225.368 255.324 225.823 255.419 226.35 255.419Z" fill="#828282"/>
<path d="M263.334 246.617V247.313L259.335 256.17H258.271L262.201 247.49H257.288V249.278H256.319V246.617H263.334Z" fill="#828282"/>
<path d="M296.182 251.161C296.783 251.361 297.242 251.662 297.561 252.062C297.888 252.462 298.052 252.944 298.052 253.509C298.052 254.063 297.902 254.55 297.602 254.969C297.301 255.378 296.869 255.697 296.305 255.924C295.75 256.142 295.095 256.252 294.34 256.252C293.194 256.252 292.293 256.006 291.638 255.515C290.983 255.023 290.655 254.355 290.655 253.509C290.655 252.935 290.81 252.453 291.119 252.062C291.438 251.662 291.897 251.361 292.498 251.161C292.006 250.97 291.633 250.697 291.378 250.342C291.124 249.978 290.996 249.551 290.996 249.06C290.996 248.286 291.297 247.672 291.897 247.217C292.507 246.762 293.321 246.535 294.34 246.535C295.013 246.535 295.6 246.639 296.1 246.849C296.61 247.049 297.006 247.34 297.288 247.722C297.57 248.104 297.711 248.55 297.711 249.06C297.711 249.551 297.579 249.978 297.315 250.342C297.051 250.697 296.674 250.97 296.182 251.161ZM291.979 249.087C291.979 249.615 292.188 250.033 292.607 250.342C293.025 250.652 293.603 250.806 294.34 250.806C295.077 250.806 295.655 250.652 296.073 250.342C296.501 250.033 296.714 249.619 296.714 249.101C296.714 248.564 296.496 248.141 296.059 247.831C295.632 247.522 295.059 247.367 294.34 247.367C293.612 247.367 293.034 247.522 292.607 247.831C292.188 248.141 291.979 248.559 291.979 249.087ZM294.34 255.419C295.186 255.419 295.846 255.246 296.319 254.901C296.801 254.555 297.042 254.086 297.042 253.495C297.042 252.903 296.801 252.439 296.319 252.103C295.846 251.757 295.186 251.584 294.34 251.584C293.503 251.584 292.843 251.757 292.361 252.103C291.888 252.439 291.651 252.903 291.651 253.495C291.651 254.095 291.888 254.568 292.361 254.914C292.834 255.251 293.494 255.419 294.34 255.419Z" fill="#828282"/>
<path d="M327.802 246.535C329.067 246.535 330.036 246.953 330.709 247.79C331.382 248.618 331.719 249.792 331.719 251.311C331.719 252.376 331.537 253.277 331.173 254.013C330.809 254.75 330.3 255.31 329.645 255.692C328.99 256.065 328.225 256.252 327.352 256.252C326.406 256.252 325.651 256.079 325.087 255.733L325.482 254.941C325.937 255.242 326.556 255.392 327.338 255.392C328.394 255.392 329.222 255.06 329.822 254.396C330.423 253.722 330.723 252.749 330.723 251.475C330.723 251.239 330.709 250.979 330.682 250.697C330.445 251.216 330.068 251.621 329.549 251.912C329.031 252.194 328.435 252.335 327.761 252.335C327.134 252.335 326.574 252.217 326.083 251.98C325.601 251.743 325.223 251.411 324.95 250.984C324.677 250.547 324.541 250.042 324.541 249.469C324.541 248.887 324.682 248.373 324.964 247.927C325.246 247.481 325.632 247.14 326.124 246.903C326.624 246.658 327.184 246.535 327.802 246.535ZM327.912 251.502C328.394 251.502 328.817 251.411 329.181 251.229C329.554 251.047 329.845 250.797 330.054 250.479C330.263 250.16 330.368 249.806 330.368 249.414C330.368 249.05 330.268 248.714 330.068 248.405C329.877 248.095 329.59 247.845 329.208 247.654C328.826 247.463 328.371 247.367 327.843 247.367C327.152 247.367 326.588 247.558 326.151 247.941C325.723 248.314 325.51 248.814 325.51 249.442C325.51 250.069 325.723 250.57 326.151 250.943C326.588 251.316 327.175 251.502 327.912 251.502Z" fill="#828282"/>
<path d="M361.593 246.617V256.17H360.61V247.49H358.358V246.617H361.593ZM367.684 256.252C366.947 256.252 366.287 256.056 365.705 255.665C365.132 255.274 364.681 254.714 364.354 253.986C364.035 253.249 363.876 252.385 363.876 251.393C363.876 250.402 364.035 249.542 364.354 248.814C364.681 248.077 365.132 247.513 365.705 247.122C366.287 246.73 366.947 246.535 367.684 246.535C368.421 246.535 369.076 246.73 369.649 247.122C370.231 247.513 370.686 248.077 371.014 248.814C371.341 249.542 371.505 250.402 371.505 251.393C371.505 252.385 371.341 253.249 371.014 253.986C370.686 254.714 370.231 255.274 369.649 255.665C369.076 256.056 368.421 256.252 367.684 256.252ZM367.684 255.351C368.239 255.351 368.725 255.196 369.144 254.887C369.572 254.578 369.904 254.127 370.14 253.536C370.377 252.944 370.495 252.23 370.495 251.393C370.495 250.556 370.377 249.842 370.14 249.251C369.904 248.659 369.572 248.209 369.144 247.9C368.725 247.59 368.239 247.436 367.684 247.436C367.129 247.436 366.637 247.59 366.21 247.9C365.791 248.209 365.464 248.659 365.227 249.251C364.991 249.842 364.872 250.556 364.872 251.393C364.872 252.23 364.991 252.944 365.227 253.536C365.464 254.127 365.791 254.578 366.21 254.887C366.637 255.196 367.129 255.351 367.684 255.351Z" fill="#828282"/>
<path d="M395.71 246.617V256.17H394.728V247.49H392.476V246.617H395.71ZM400.641 246.617V256.17H399.659V247.49H397.407V246.617H400.641Z" fill="#828282"/>
<path d="M429.828 246.617V256.17H428.845V247.49H426.594V246.617H429.828ZM438.635 255.296V256.17H431.934V255.474L435.905 251.584C436.406 251.093 436.742 250.67 436.915 250.315C437.097 249.951 437.188 249.587 437.188 249.223C437.188 248.659 436.993 248.223 436.601 247.913C436.219 247.595 435.669 247.436 434.95 247.436C433.831 247.436 432.962 247.79 432.343 248.5L431.647 247.9C432.02 247.463 432.494 247.126 433.067 246.89C433.649 246.653 434.304 246.535 435.032 246.535C436.005 246.535 436.774 246.767 437.338 247.231C437.911 247.686 438.198 248.314 438.198 249.114C438.198 249.605 438.089 250.079 437.87 250.533C437.652 250.988 437.238 251.511 436.629 252.103L433.381 255.296H438.635Z" fill="#828282"/>
<path d="M463.946 246.617V256.17H462.963V247.49H460.711V246.617H463.946ZM469.477 250.711C470.478 250.765 471.238 251.038 471.756 251.53C472.284 252.012 472.548 252.644 472.548 253.427C472.548 253.973 472.416 254.459 472.152 254.887C471.888 255.305 471.497 255.637 470.978 255.883C470.46 256.129 469.827 256.252 469.081 256.252C468.39 256.252 467.735 256.142 467.116 255.924C466.507 255.697 466.015 255.396 465.642 255.023L466.12 254.245C466.438 254.573 466.861 254.841 467.389 255.051C467.917 255.251 468.481 255.351 469.081 255.351C469.864 255.351 470.469 255.183 470.896 254.846C471.324 254.5 471.538 254.027 471.538 253.427C471.538 252.835 471.324 252.371 470.896 252.035C470.469 251.698 469.823 251.53 468.959 251.53H468.276V250.806L470.924 247.49H466.038V246.617H472.179V247.313L469.477 250.711Z" fill="#828282"/>
<path d="M498.063 246.617V256.17H497.081V247.49H494.829V246.617H498.063ZM508.467 253.659H506.556V256.17H505.574V253.659H500.183V252.949L505.246 246.617H506.338L501.452 252.785H505.601V250.574H506.556V252.785H508.467V253.659Z" fill="#828282"/>
<path d="M532.181 246.617V256.17H531.198V247.49H528.946V246.617H532.181ZM536.975 250.533C538.358 250.533 539.363 250.784 539.991 251.284C540.628 251.775 540.947 252.467 540.947 253.358C540.947 253.913 540.815 254.409 540.551 254.846C540.296 255.283 539.909 255.628 539.391 255.883C538.872 256.129 538.235 256.252 537.48 256.252C536.798 256.252 536.147 256.142 535.529 255.924C534.919 255.697 534.428 255.396 534.055 255.023L534.532 254.245C534.851 254.573 535.269 254.841 535.788 255.051C536.307 255.251 536.866 255.351 537.467 255.351C538.258 255.351 538.868 255.173 539.295 254.819C539.732 254.464 539.95 253.991 539.95 253.399C539.95 252.744 539.705 252.248 539.213 251.912C538.731 251.575 537.912 251.407 536.757 251.407H534.723L535.215 246.617H540.442V247.49H536.075L535.747 250.533H536.975Z" fill="#828282"/>
<path d="M566.298 246.617V256.17H565.316V247.49H563.064V246.617H566.298ZM572.54 250.452C573.167 250.452 573.722 250.57 574.204 250.806C574.696 251.043 575.078 251.38 575.351 251.816C575.624 252.244 575.76 252.744 575.76 253.317C575.76 253.9 575.619 254.414 575.337 254.86C575.055 255.305 574.664 255.651 574.164 255.897C573.672 256.133 573.117 256.252 572.499 256.252C571.234 256.252 570.265 255.838 569.592 255.01C568.919 254.173 568.582 252.994 568.582 251.475C568.582 250.411 568.764 249.51 569.128 248.773C569.492 248.036 570.001 247.481 570.656 247.108C571.311 246.726 572.076 246.535 572.949 246.535C573.895 246.535 574.65 246.708 575.214 247.053L574.819 247.845C574.364 247.545 573.745 247.395 572.963 247.395C571.907 247.395 571.079 247.731 570.479 248.405C569.878 249.069 569.578 250.038 569.578 251.311C569.578 251.539 569.592 251.798 569.619 252.089C569.856 251.571 570.233 251.17 570.752 250.888C571.27 250.597 571.866 250.452 572.54 250.452ZM572.458 255.419C573.149 255.419 573.709 255.233 574.136 254.86C574.573 254.477 574.791 253.973 574.791 253.345C574.791 252.717 574.573 252.217 574.136 251.844C573.709 251.471 573.126 251.284 572.389 251.284C571.907 251.284 571.48 251.375 571.107 251.557C570.743 251.739 570.456 251.989 570.247 252.308C570.038 252.626 569.933 252.981 569.933 253.372C569.933 253.736 570.028 254.073 570.22 254.382C570.42 254.691 570.711 254.941 571.093 255.133C571.475 255.324 571.93 255.419 572.458 255.419Z" fill="#828282"/>
<rect x="16.7308" y="238.577" width="547.654" height="4.46154" fill="#BDBDBD"/>
<rect x="16.7308" y="37.8077" width="547.654" height="4.46154" fill="#BDBDBD"/>
<rect x="16.7308" y="243.17" width="204.706" height="2.23077" transform="rotate(-90 16.7308 243.17)" fill="#E0E0E0"/>
<rect x="50.8485" y="243.17" width="204.706" height="2.23077" transform="rotate(-90 50.8485 243.17)" fill="#E0E0E0"/>
<rect x="84.9662" y="243.17" width="204.706" height="2.23077" transform="rotate(-90 84.9662 243.17)" fill="#E0E0E0"/>
<rect x="119.084" y="243.17" width="204.706" height="2.23077" transform="rotate(-90 119.084 243.17)" fill="#E0E0E0"/>
<rect x="153.202" y="243.17" width="204.706" height="2.23077" transform="rotate(-90 153.202 243.17)" fill="#E0E0E0"/>
<rect x="187.319" y="243.17" width="204.706" height="2.23077" transform="rotate(-90 187.319 243.17)" fill="#E0E0E0"/>
<rect x="221.437" y="243.17" width="204.706" height="2.23077" transform="rotate(-90 221.437 243.17)" fill="#E0E0E0"/>
<rect x="255.554" y="243.17" width="204.706" height="2.23077" transform="rotate(-90 255.554 243.17)" fill="#E0E0E0"/>
<rect x="289.672" y="243.17" width="204.706" height="2.23077" transform="rotate(-90 289.672 243.17)" fill="#E0E0E0"/>
<rect x="323.79" y="243.17" width="204.706" height="2.23077" transform="rotate(-90 323.79 243.17)" fill="#E0E0E0"/>
<rect x="357.907" y="243.17" width="204.706" height="2.23077" transform="rotate(-90 357.907 243.17)" fill="#E0E0E0"/>
<rect x="392.025" y="243.17" width="204.706" height="2.23077" transform="rotate(-90 392.025 243.17)" fill="#E0E0E0"/>
<rect x="426.143" y="243.17" width="204.706" height="2.23077" transform="rotate(-90 426.143 243.17)" fill="#E0E0E0"/>
<rect x="460.26" y="243.17" width="204.706" height="2.23077" transform="rotate(-90 460.26 243.17)" fill="#E0E0E0"/>
<rect x="494.378" y="243.17" width="204.706" height="2.23077" transform="rotate(-90 494.378 243.17)" fill="#E0E0E0"/>
<rect x="528.496" y="243.17" width="204.706" height="2.23077" transform="rotate(-90 528.496 243.17)" fill="#E0E0E0"/>
<rect x="562.613" y="243.17" width="204.706" height="2.23077" transform="rotate(-90 562.613 243.17)" fill="#E0E0E0"/>
<path d="M17.9119 40.1697L119.412 40.1697V241.464H187.647V40.1697L324.118 40.1697V241.464H529.677V40.1697H564.647" stroke="#F97D61" stroke-width="6.69231"/>
<path d="M21.2758 24.8521V34.405H19.065V26.6262H17.1544V24.8521H21.2758Z" fill="#00635D"/>
<path d="M55.3935 24.8521V34.405H53.1826V26.6262H51.272V24.8521H55.3935Z" fill="#00635D"/>
<path d="M89.5111 24.8521V34.405H87.3003V26.6262H85.3897V24.8521H89.5111Z" fill="#00635D"/>
<path d="M191.864 24.8521V34.405H189.653V26.6262H187.743V24.8521H191.864Z" fill="#00635D"/>
<path d="M225.982 24.8521V34.405H223.771V26.6262H221.86V24.8521H225.982Z" fill="#00635D"/>
<path d="M260.099 24.8521V34.405H257.889V26.6262H255.978V24.8521H260.099Z" fill="#00635D"/>
<path d="M294.217 24.8521V34.405H292.006V26.6262H290.096V24.8521H294.217Z" fill="#00635D"/>
<path d="M533.04 24.8521V34.405H530.83V26.6262H528.919V24.8521H533.04Z" fill="#00635D"/>
<path d="M568.864 24.8521V34.405H566.653V26.6262H564.743V24.8521H568.864Z" fill="#00635D"/>
<path d="M124.038 235.863C123.247 235.863 122.542 235.667 121.923 235.276C121.304 234.885 120.818 234.321 120.463 233.584C120.117 232.838 119.944 231.951 119.944 230.923C119.944 229.895 120.117 229.012 120.463 228.275C120.818 227.529 121.304 226.96 121.923 226.569C122.542 226.178 123.247 225.982 124.038 225.982C124.83 225.982 125.535 226.178 126.154 226.569C126.772 226.96 127.254 227.529 127.6 228.275C127.955 229.012 128.132 229.895 128.132 230.923C128.132 231.951 127.955 232.838 127.6 233.584C127.254 234.321 126.772 234.885 126.154 235.276C125.535 235.667 124.83 235.863 124.038 235.863ZM124.038 233.993C124.62 233.993 125.075 233.743 125.403 233.243C125.74 232.742 125.908 231.969 125.908 230.923C125.908 229.876 125.74 229.103 125.403 228.603C125.075 228.102 124.62 227.852 124.038 227.852C123.465 227.852 123.01 228.102 122.674 228.603C122.346 229.103 122.182 229.876 122.182 230.923C122.182 231.969 122.346 232.742 122.674 233.243C123.01 233.743 123.465 233.993 124.038 233.993Z" fill="#00635D"/>
<path d="M158.156 235.863C157.364 235.863 156.659 235.667 156.041 235.276C155.422 234.885 154.935 234.321 154.58 233.584C154.235 232.838 154.062 231.951 154.062 230.923C154.062 229.895 154.235 229.012 154.58 228.275C154.935 227.529 155.422 226.96 156.041 226.569C156.659 226.178 157.364 225.982 158.156 225.982C158.947 225.982 159.653 226.178 160.271 226.569C160.89 226.96 161.372 227.529 161.718 228.275C162.073 229.012 162.25 229.895 162.25 230.923C162.25 231.951 162.073 232.838 161.718 233.584C161.372 234.321 160.89 234.885 160.271 235.276C159.653 235.667 158.947 235.863 158.156 235.863ZM158.156 233.993C158.738 233.993 159.193 233.743 159.521 233.243C159.857 232.742 160.026 231.969 160.026 230.923C160.026 229.876 159.857 229.103 159.521 228.603C159.193 228.102 158.738 227.852 158.156 227.852C157.583 227.852 157.128 228.102 156.791 228.603C156.464 229.103 156.3 229.876 156.3 230.923C156.3 231.969 156.464 232.742 156.791 233.243C157.128 233.743 157.583 233.993 158.156 233.993Z" fill="#00635D"/>
<path d="M328.744 235.863C327.952 235.863 327.247 235.667 326.629 235.276C326.01 234.885 325.523 234.321 325.168 233.584C324.823 232.838 324.65 231.951 324.65 230.923C324.65 229.895 324.823 229.012 325.168 228.275C325.523 227.529 326.01 226.96 326.629 226.569C327.247 226.178 327.952 225.982 328.744 225.982C329.536 225.982 330.241 226.178 330.859 226.569C331.478 226.96 331.96 227.529 332.306 228.275C332.661 229.012 332.838 229.895 332.838 230.923C332.838 231.951 332.661 232.838 332.306 233.584C331.96 234.321 331.478 234.885 330.859 235.276C330.241 235.667 329.536 235.863 328.744 235.863ZM328.744 233.993C329.326 233.993 329.781 233.743 330.109 233.243C330.445 232.742 330.614 231.969 330.614 230.923C330.614 229.876 330.445 229.103 330.109 228.603C329.781 228.102 329.326 227.852 328.744 227.852C328.171 227.852 327.716 228.102 327.379 228.603C327.052 229.103 326.888 229.876 326.888 230.923C326.888 231.969 327.052 232.742 327.379 233.243C327.716 233.743 328.171 233.993 328.744 233.993Z" fill="#00635D"/>
<path d="M362.862 235.863C362.07 235.863 361.365 235.667 360.747 235.276C360.128 234.885 359.641 234.321 359.286 233.584C358.941 232.838 358.768 231.951 358.768 230.923C358.768 229.895 358.941 229.012 359.286 228.275C359.641 227.529 360.128 226.96 360.747 226.569C361.365 226.178 362.07 225.982 362.862 225.982C363.653 225.982 364.358 226.178 364.977 226.569C365.596 226.96 366.078 227.529 366.424 228.275C366.779 229.012 366.956 229.895 366.956 230.923C366.956 231.951 366.779 232.838 366.424 233.584C366.078 234.321 365.596 234.885 364.977 235.276C364.358 235.667 363.653 235.863 362.862 235.863ZM362.862 233.993C363.444 233.993 363.899 233.743 364.227 233.243C364.563 232.742 364.731 231.969 364.731 230.923C364.731 229.876 364.563 229.103 364.227 228.603C363.899 228.102 363.444 227.852 362.862 227.852C362.289 227.852 361.834 228.102 361.497 228.603C361.17 229.103 361.006 229.876 361.006 230.923C361.006 231.969 361.17 232.742 361.497 233.243C361.834 233.743 362.289 233.993 362.862 233.993Z" fill="#00635D"/>
<path d="M396.979 235.863C396.188 235.863 395.483 235.667 394.864 235.276C394.245 234.885 393.759 234.321 393.404 233.584C393.058 232.838 392.885 231.951 392.885 230.923C392.885 229.895 393.058 229.012 393.404 228.275C393.759 227.529 394.245 226.96 394.864 226.569C395.483 226.178 396.188 225.982 396.979 225.982C397.771 225.982 398.476 226.178 399.095 226.569C399.713 226.96 400.196 227.529 400.541 228.275C400.896 229.012 401.073 229.895 401.073 230.923C401.073 231.951 400.896 232.838 400.541 233.584C400.196 234.321 399.713 234.885 399.095 235.276C398.476 235.667 397.771 235.863 396.979 235.863ZM396.979 233.993C397.562 233.993 398.017 233.743 398.344 233.243C398.681 232.742 398.849 231.969 398.849 230.923C398.849 229.876 398.681 229.103 398.344 228.603C398.017 228.102 397.562 227.852 396.979 227.852C396.406 227.852 395.951 228.102 395.615 228.603C395.287 229.103 395.123 229.876 395.123 230.923C395.123 231.969 395.287 232.742 395.615 233.243C395.951 233.743 396.406 233.993 396.979 233.993Z" fill="#00635D"/>
<path d="M431.097 235.863C430.306 235.863 429.6 235.667 428.982 235.276C428.363 234.885 427.876 234.321 427.522 233.584C427.176 232.838 427.003 231.951 427.003 230.923C427.003 229.895 427.176 229.012 427.522 228.275C427.876 227.529 428.363 226.96 428.982 226.569C429.6 226.178 430.306 225.982 431.097 225.982C431.889 225.982 432.594 226.178 433.212 226.569C433.831 226.96 434.313 227.529 434.659 228.275C435.014 229.012 435.191 229.895 435.191 230.923C435.191 231.951 435.014 232.838 434.659 233.584C434.313 234.321 433.831 234.885 433.212 235.276C432.594 235.667 431.889 235.863 431.097 235.863ZM431.097 233.993C431.679 233.993 432.134 233.743 432.462 233.243C432.798 232.742 432.967 231.969 432.967 230.923C432.967 229.876 432.798 229.103 432.462 228.603C432.134 228.102 431.679 227.852 431.097 227.852C430.524 227.852 430.069 228.102 429.732 228.603C429.405 229.103 429.241 229.876 429.241 230.923C429.241 231.969 429.405 232.742 429.732 233.243C430.069 233.743 430.524 233.993 431.097 233.993Z" fill="#00635D"/>
<path d="M465.215 235.863C464.423 235.863 463.718 235.667 463.099 235.276C462.481 234.885 461.994 234.321 461.639 233.584C461.293 232.838 461.121 231.951 461.121 230.923C461.121 229.895 461.293 229.012 461.639 228.275C461.994 227.529 462.481 226.96 463.099 226.569C463.718 226.178 464.423 225.982 465.215 225.982C466.006 225.982 466.711 226.178 467.33 226.569C467.949 226.96 468.431 227.529 468.777 228.275C469.131 229.012 469.309 229.895 469.309 230.923C469.309 231.951 469.131 232.838 468.777 233.584C468.431 234.321 467.949 234.885 467.33 235.276C466.711 235.667 466.006 235.863 465.215 235.863ZM465.215 233.993C465.797 233.993 466.252 233.743 466.579 233.243C466.916 232.742 467.084 231.969 467.084 230.923C467.084 229.876 466.916 229.103 466.579 228.603C466.252 228.102 465.797 227.852 465.215 227.852C464.642 227.852 464.187 228.102 463.85 228.603C463.522 229.103 463.359 229.876 463.359 230.923C463.359 231.969 463.522 232.742 463.85 233.243C464.187 233.743 464.642 233.993 465.215 233.993Z" fill="#00635D"/>
<path d="M499.332 235.863C498.541 235.863 497.836 235.667 497.217 235.276C496.598 234.885 496.112 234.321 495.757 233.584C495.411 232.838 495.238 231.951 495.238 230.923C495.238 229.895 495.411 229.012 495.757 228.275C496.112 227.529 496.598 226.96 497.217 226.569C497.836 226.178 498.541 225.982 499.332 225.982C500.124 225.982 500.829 226.178 501.448 226.569C502.066 226.96 502.549 227.529 502.894 228.275C503.249 229.012 503.427 229.895 503.427 230.923C503.427 231.951 503.249 232.838 502.894 233.584C502.549 234.321 502.066 234.885 501.448 235.276C500.829 235.667 500.124 235.863 499.332 235.863ZM499.332 233.993C499.915 233.993 500.37 233.743 500.697 233.243C501.034 232.742 501.202 231.969 501.202 230.923C501.202 229.876 501.034 229.103 500.697 228.603C500.37 228.102 499.915 227.852 499.332 227.852C498.759 227.852 498.304 228.102 497.968 228.603C497.64 229.103 497.476 229.876 497.476 230.923C497.476 231.969 497.64 232.742 497.968 233.243C498.304 233.743 498.759 233.993 499.332 233.993Z" fill="#00635D"/>
</g>
<defs>
<clipPath id="clip0_5436_197169">
<rect width="580" height="280" rx="17.0588" fill="white"/>
</clipPath>
</defs>
</svg>
