<svg width="340" height="160" viewBox="0 0 340 160" fill="none" xmlns="http://www.w3.org/2000/svg">
<rect width="340" height="160" rx="10" fill="#F2F2F2"/>
<path d="M12.648 148.048C12.216 148.048 11.8293 147.933 11.488 147.704C11.152 147.475 10.888 147.147 10.696 146.72C10.5093 146.288 10.416 145.781 10.416 145.2C10.416 144.619 10.5093 144.115 10.696 143.688C10.888 143.256 11.152 142.925 11.488 142.696C11.8293 142.467 12.216 142.352 12.648 142.352C13.08 142.352 13.464 142.467 13.8 142.696C14.1413 142.925 14.408 143.256 14.6 143.688C14.792 144.115 14.888 144.619 14.888 145.2C14.888 145.781 14.792 146.288 14.6 146.72C14.408 147.147 14.1413 147.475 13.8 147.704C13.464 147.933 13.08 148.048 12.648 148.048ZM12.648 147.52C12.9733 147.52 13.2587 147.429 13.504 147.248C13.7547 147.067 13.9493 146.803 14.088 146.456C14.2267 146.109 14.296 145.691 14.296 145.2C14.296 144.709 14.2267 144.291 14.088 143.944C13.9493 143.597 13.7547 143.333 13.504 143.152C13.2587 142.971 12.9733 142.88 12.648 142.88C12.3227 142.88 12.0347 142.971 11.784 143.152C11.5387 143.333 11.3467 143.597 11.208 143.944C11.0693 144.291 11 144.709 11 145.2C11 145.691 11.0693 146.109 11.208 146.456C11.3467 146.803 11.5387 147.067 11.784 147.248C12.0347 147.429 12.3227 147.52 12.648 147.52Z" fill="#828282"/>
<path d="M31.968 142.4V148H31.392V142.912H30.072V142.4H31.968Z" fill="#828282"/>
<path d="M54.24 147.488V148H50.312V147.592L52.64 145.312C52.9333 145.024 53.1307 144.776 53.232 144.568C53.3387 144.355 53.392 144.141 53.392 143.928C53.392 143.597 53.2773 143.341 53.048 143.16C52.824 142.973 52.5013 142.88 52.08 142.88C51.424 142.88 50.9147 143.088 50.552 143.504L50.144 143.152C50.3627 142.896 50.64 142.699 50.976 142.56C51.3173 142.421 51.7013 142.352 52.128 142.352C52.6987 142.352 53.1493 142.488 53.48 142.76C53.816 143.027 53.984 143.395 53.984 143.864C53.984 144.152 53.92 144.429 53.792 144.696C53.664 144.963 53.4213 145.269 53.064 145.616L51.16 147.488H54.24Z" fill="#828282"/>
<path d="M72.32 144.8C72.9067 144.832 73.352 144.992 73.656 145.28C73.9653 145.563 74.12 145.933 74.12 146.392C74.12 146.712 74.0427 146.997 73.888 147.248C73.7333 147.493 73.504 147.688 73.2 147.832C72.896 147.976 72.5253 148.048 72.088 148.048C71.6827 148.048 71.2987 147.984 70.936 147.856C70.5787 147.723 70.2907 147.547 70.072 147.328L70.352 146.872C70.5387 147.064 70.7867 147.221 71.096 147.344C71.4053 147.461 71.736 147.52 72.088 147.52C72.5467 147.52 72.9013 147.421 73.152 147.224C73.4027 147.021 73.528 146.744 73.528 146.392C73.528 146.045 73.4027 145.773 73.152 145.576C72.9013 145.379 72.5227 145.28 72.016 145.28H71.616V144.856L73.168 142.912H70.304V142.4H73.904V142.808L72.32 144.8Z" fill="#828282"/>
<path d="M95.176 146.528H94.056V148H93.48V146.528H90.32V146.112L93.288 142.4H93.928L91.064 146.016H93.496V144.72H94.056V146.016H95.176V146.528Z" fill="#828282"/>
<path d="M111.888 144.696C112.699 144.696 113.288 144.843 113.656 145.136C114.029 145.424 114.216 145.829 114.216 146.352C114.216 146.677 114.139 146.968 113.984 147.224C113.835 147.48 113.608 147.683 113.304 147.832C113 147.976 112.627 148.048 112.184 148.048C111.784 148.048 111.403 147.984 111.04 147.856C110.683 147.723 110.395 147.547 110.176 147.328L110.456 146.872C110.643 147.064 110.888 147.221 111.192 147.344C111.496 147.461 111.824 147.52 112.176 147.52C112.64 147.52 112.997 147.416 113.248 147.208C113.504 147 113.632 146.723 113.632 146.376C113.632 145.992 113.488 145.701 113.2 145.504C112.917 145.307 112.437 145.208 111.76 145.208H110.568L110.856 142.4H113.92V142.912H111.36L111.168 144.696H111.888Z" fill="#828282"/>
<path d="M132.736 144.648C133.104 144.648 133.429 144.717 133.712 144.856C134 144.995 134.224 145.192 134.384 145.448C134.544 145.699 134.624 145.992 134.624 146.328C134.624 146.669 134.541 146.971 134.376 147.232C134.211 147.493 133.981 147.696 133.688 147.84C133.4 147.979 133.075 148.048 132.712 148.048C131.971 148.048 131.403 147.805 131.008 147.32C130.613 146.829 130.416 146.139 130.416 145.248C130.416 144.624 130.523 144.096 130.736 143.664C130.949 143.232 131.248 142.907 131.632 142.688C132.016 142.464 132.464 142.352 132.976 142.352C133.531 142.352 133.973 142.453 134.304 142.656L134.072 143.12C133.805 142.944 133.443 142.856 132.984 142.856C132.365 142.856 131.88 143.053 131.528 143.448C131.176 143.837 131 144.405 131 145.152C131 145.285 131.008 145.437 131.024 145.608C131.163 145.304 131.384 145.069 131.688 144.904C131.992 144.733 132.341 144.648 132.736 144.648ZM132.688 147.56C133.093 147.56 133.421 147.451 133.672 147.232C133.928 147.008 134.056 146.712 134.056 146.344C134.056 145.976 133.928 145.683 133.672 145.464C133.421 145.245 133.08 145.136 132.648 145.136C132.365 145.136 132.115 145.189 131.896 145.296C131.683 145.403 131.515 145.549 131.392 145.736C131.269 145.923 131.208 146.131 131.208 146.36C131.208 146.573 131.264 146.771 131.376 146.952C131.493 147.133 131.664 147.28 131.888 147.392C132.112 147.504 132.379 147.56 132.688 147.56Z" fill="#828282"/>
<path d="M154.368 142.4V142.808L152.024 148H151.4L153.704 142.912H150.824V143.96H150.256V142.4H154.368Z" fill="#828282"/>
<path d="M173.624 145.064C173.976 145.181 174.245 145.357 174.432 145.592C174.624 145.827 174.72 146.109 174.72 146.44C174.72 146.765 174.632 147.051 174.456 147.296C174.28 147.536 174.027 147.723 173.696 147.856C173.371 147.984 172.987 148.048 172.544 148.048C171.872 148.048 171.344 147.904 170.96 147.616C170.576 147.328 170.384 146.936 170.384 146.44C170.384 146.104 170.475 145.821 170.656 145.592C170.843 145.357 171.112 145.181 171.464 145.064C171.176 144.952 170.957 144.792 170.808 144.584C170.659 144.371 170.584 144.12 170.584 143.832C170.584 143.379 170.76 143.019 171.112 142.752C171.469 142.485 171.947 142.352 172.544 142.352C172.939 142.352 173.283 142.413 173.576 142.536C173.875 142.653 174.107 142.824 174.272 143.048C174.437 143.272 174.52 143.533 174.52 143.832C174.52 144.12 174.443 144.371 174.288 144.584C174.133 144.792 173.912 144.952 173.624 145.064ZM171.16 143.848C171.16 144.157 171.283 144.403 171.528 144.584C171.773 144.765 172.112 144.856 172.544 144.856C172.976 144.856 173.315 144.765 173.56 144.584C173.811 144.403 173.936 144.16 173.936 143.856C173.936 143.541 173.808 143.293 173.552 143.112C173.301 142.931 172.965 142.84 172.544 142.84C172.117 142.84 171.779 142.931 171.528 143.112C171.283 143.293 171.16 143.539 171.16 143.848ZM172.544 147.56C173.04 147.56 173.427 147.459 173.704 147.256C173.987 147.053 174.128 146.779 174.128 146.432C174.128 146.085 173.987 145.813 173.704 145.616C173.427 145.413 173.04 145.312 172.544 145.312C172.053 145.312 171.667 145.413 171.384 145.616C171.107 145.813 170.968 146.085 170.968 146.432C170.968 146.784 171.107 147.061 171.384 147.264C171.661 147.461 172.048 147.56 172.544 147.56Z" fill="#828282"/>
<path d="M192.16 142.352C192.901 142.352 193.469 142.597 193.864 143.088C194.259 143.573 194.456 144.261 194.456 145.152C194.456 145.776 194.349 146.304 194.136 146.736C193.923 147.168 193.624 147.496 193.24 147.72C192.856 147.939 192.408 148.048 191.896 148.048C191.341 148.048 190.899 147.947 190.568 147.744L190.8 147.28C191.067 147.456 191.429 147.544 191.888 147.544C192.507 147.544 192.992 147.349 193.344 146.96C193.696 146.565 193.872 145.995 193.872 145.248C193.872 145.109 193.864 144.957 193.848 144.792C193.709 145.096 193.488 145.333 193.184 145.504C192.88 145.669 192.531 145.752 192.136 145.752C191.768 145.752 191.44 145.683 191.152 145.544C190.869 145.405 190.648 145.211 190.488 144.96C190.328 144.704 190.248 144.408 190.248 144.072C190.248 143.731 190.331 143.429 190.496 143.168C190.661 142.907 190.888 142.707 191.176 142.568C191.469 142.424 191.797 142.352 192.16 142.352ZM192.224 145.264C192.507 145.264 192.755 145.211 192.968 145.104C193.187 144.997 193.357 144.851 193.48 144.664C193.603 144.477 193.664 144.269 193.664 144.04C193.664 143.827 193.605 143.629 193.488 143.448C193.376 143.267 193.208 143.12 192.984 143.008C192.76 142.896 192.493 142.84 192.184 142.84C191.779 142.84 191.448 142.952 191.192 143.176C190.941 143.395 190.816 143.688 190.816 144.056C190.816 144.424 190.941 144.717 191.192 144.936C191.448 145.155 191.792 145.264 192.224 145.264Z" fill="#828282"/>
<path d="M211.968 142.4V148H211.392V142.912H210.072V142.4H211.968ZM215.539 148.048C215.107 148.048 214.72 147.933 214.379 147.704C214.043 147.475 213.779 147.147 213.587 146.72C213.4 146.288 213.307 145.781 213.307 145.2C213.307 144.619 213.4 144.115 213.587 143.688C213.779 143.256 214.043 142.925 214.379 142.696C214.72 142.467 215.107 142.352 215.539 142.352C215.971 142.352 216.355 142.467 216.691 142.696C217.032 142.925 217.299 143.256 217.491 143.688C217.683 144.115 217.779 144.619 217.779 145.2C217.779 145.781 217.683 146.288 217.491 146.72C217.299 147.147 217.032 147.475 216.691 147.704C216.355 147.933 215.971 148.048 215.539 148.048ZM215.539 147.52C215.864 147.52 216.149 147.429 216.395 147.248C216.645 147.067 216.84 146.803 216.979 146.456C217.117 146.109 217.187 145.691 217.187 145.2C217.187 144.709 217.117 144.291 216.979 143.944C216.84 143.597 216.645 143.333 216.395 143.152C216.149 142.971 215.864 142.88 215.539 142.88C215.213 142.88 214.925 142.971 214.675 143.152C214.429 143.333 214.237 143.597 214.099 143.944C213.96 144.291 213.891 144.709 213.891 145.2C213.891 145.691 213.96 146.109 214.099 146.456C214.237 146.803 214.429 147.067 214.675 147.248C214.925 147.429 215.213 147.52 215.539 147.52Z" fill="#828282"/>
<path d="M231.968 142.4V148H231.392V142.912H230.072V142.4H231.968ZM234.859 142.4V148H234.283V142.912H232.963V142.4H234.859Z" fill="#828282"/>
<path d="M251.968 142.4V148H251.392V142.912H250.072V142.4H251.968ZM257.131 147.488V148H253.203V147.592L255.531 145.312C255.824 145.024 256.021 144.776 256.123 144.568C256.229 144.355 256.283 144.141 256.283 143.928C256.283 143.597 256.168 143.341 255.939 143.16C255.715 142.973 255.392 142.88 254.971 142.88C254.315 142.88 253.805 143.088 253.443 143.504L253.035 143.152C253.253 142.896 253.531 142.699 253.867 142.56C254.208 142.421 254.592 142.352 255.019 142.352C255.589 142.352 256.04 142.488 256.371 142.76C256.707 143.027 256.875 143.395 256.875 143.864C256.875 144.152 256.811 144.429 256.683 144.696C256.555 144.963 256.312 145.269 255.955 145.616L254.051 147.488H257.131Z" fill="#828282"/>
<path d="M271.968 142.4V148H271.392V142.912H270.072V142.4H271.968ZM275.211 144.8C275.797 144.832 276.243 144.992 276.547 145.28C276.856 145.563 277.011 145.933 277.011 146.392C277.011 146.712 276.933 146.997 276.779 147.248C276.624 147.493 276.395 147.688 276.091 147.832C275.787 147.976 275.416 148.048 274.979 148.048C274.573 148.048 274.189 147.984 273.827 147.856C273.469 147.723 273.181 147.547 272.963 147.328L273.243 146.872C273.429 147.064 273.677 147.221 273.987 147.344C274.296 147.461 274.627 147.52 274.979 147.52C275.437 147.52 275.792 147.421 276.043 147.224C276.293 147.021 276.419 146.744 276.419 146.392C276.419 146.045 276.293 145.773 276.043 145.576C275.792 145.379 275.413 145.28 274.907 145.28H274.507V144.856L276.059 142.912H273.195V142.4H276.795V142.808L275.211 144.8Z" fill="#828282"/>
<path d="M291.968 142.4V148H291.392V142.912H290.072V142.4H291.968ZM298.067 146.528H296.947V148H296.371V146.528H293.211V146.112L296.179 142.4H296.819L293.955 146.016H296.387V144.72H296.947V146.016H298.067V146.528Z" fill="#828282"/>
<path d="M311.968 142.4V148H311.392V142.912H310.072V142.4H311.968ZM314.779 144.696C315.589 144.696 316.179 144.843 316.547 145.136C316.92 145.424 317.107 145.829 317.107 146.352C317.107 146.677 317.029 146.968 316.875 147.224C316.725 147.48 316.499 147.683 316.195 147.832C315.891 147.976 315.517 148.048 315.075 148.048C314.675 148.048 314.293 147.984 313.931 147.856C313.573 147.723 313.285 147.547 313.067 147.328L313.347 146.872C313.533 147.064 313.779 147.221 314.083 147.344C314.387 147.461 314.715 147.52 315.067 147.52C315.531 147.52 315.888 147.416 316.139 147.208C316.395 147 316.523 146.723 316.523 146.376C316.523 145.992 316.379 145.701 316.091 145.504C315.808 145.307 315.328 145.208 314.651 145.208H313.459L313.747 142.4H316.811V142.912H314.251L314.059 144.696H314.779Z" fill="#828282"/>
<path d="M331.968 142.4V148H331.392V142.912H330.072V142.4H331.968ZM335.627 144.648C335.995 144.648 336.32 144.717 336.603 144.856C336.891 144.995 337.115 145.192 337.275 145.448C337.435 145.699 337.515 145.992 337.515 146.328C337.515 146.669 337.432 146.971 337.267 147.232C337.101 147.493 336.872 147.696 336.579 147.84C336.291 147.979 335.965 148.048 335.603 148.048C334.861 148.048 334.293 147.805 333.899 147.32C333.504 146.829 333.307 146.139 333.307 145.248C333.307 144.624 333.413 144.096 333.627 143.664C333.84 143.232 334.139 142.907 334.523 142.688C334.907 142.464 335.355 142.352 335.867 142.352C336.421 142.352 336.864 142.453 337.195 142.656L336.963 143.12C336.696 142.944 336.333 142.856 335.875 142.856C335.256 142.856 334.771 143.053 334.419 143.448C334.067 143.837 333.891 144.405 333.891 145.152C333.891 145.285 333.899 145.437 333.915 145.608C334.053 145.304 334.275 145.069 334.579 144.904C334.883 144.733 335.232 144.648 335.627 144.648ZM335.579 147.56C335.984 147.56 336.312 147.451 336.563 147.232C336.819 147.008 336.947 146.712 336.947 146.344C336.947 145.976 336.819 145.683 336.563 145.464C336.312 145.245 335.971 145.136 335.539 145.136C335.256 145.136 335.005 145.189 334.787 145.296C334.573 145.403 334.405 145.549 334.283 145.736C334.16 145.923 334.099 146.131 334.099 146.36C334.099 146.573 334.155 146.771 334.267 146.952C334.384 147.133 334.555 147.28 334.779 147.392C335.003 147.504 335.269 147.56 335.579 147.56Z" fill="#828282"/>
<rect x="10" y="138" width="320" height="2" fill="#BDBDBD"/>
<rect x="10" y="20" width="320" height="2" fill="#BDBDBD"/>
<rect x="10" y="140" width="120" height="1.00001" transform="rotate(-90 10 140)" fill="#E0E0E0"/>
<rect x="30" y="140" width="120" height="1.00001" transform="rotate(-90 30 140)" fill="#E0E0E0"/>
<rect x="50" y="140" width="120" height="1.00001" transform="rotate(-90 50 140)" fill="#E0E0E0"/>
<rect x="70" y="140" width="120" height="1.00001" transform="rotate(-90 70 140)" fill="#E0E0E0"/>
<rect x="90" y="140" width="120" height="1.00001" transform="rotate(-90 90 140)" fill="#E0E0E0"/>
<rect x="110" y="140" width="120" height="1.00001" transform="rotate(-90 110 140)" fill="#E0E0E0"/>
<rect x="130" y="140" width="120" height="1.00001" transform="rotate(-90 130 140)" fill="#E0E0E0"/>
<rect x="150" y="140" width="120" height="1.00001" transform="rotate(-90 150 140)" fill="#E0E0E0"/>
<rect x="170" y="140" width="120" height="1.00001" transform="rotate(-90 170 140)" fill="#E0E0E0"/>
<rect x="190" y="140" width="120" height="1.00001" transform="rotate(-90 190 140)" fill="#E0E0E0"/>
<rect x="210" y="140" width="120" height="1.00001" transform="rotate(-90 210 140)" fill="#E0E0E0"/>
<rect x="230" y="140" width="120" height="1.00001" transform="rotate(-90 230 140)" fill="#E0E0E0"/>
<rect x="250" y="140" width="120" height="1.00001" transform="rotate(-90 250 140)" fill="#E0E0E0"/>
<rect x="270" y="140" width="120" height="1.00001" transform="rotate(-90 270 140)" fill="#E0E0E0"/>
<rect x="290" y="140" width="120" height="1.00001" transform="rotate(-90 290 140)" fill="#E0E0E0"/>
<rect x="310" y="140" width="120" height="1.00001" transform="rotate(-90 310 140)" fill="#E0E0E0"/>
<rect x="330" y="140" width="120" height="1.00001" transform="rotate(-90 330 140)" fill="#E0E0E0"/>
<path d="M10.5 21H70V139H110V21H170V139H210V21H331" stroke="#F97D61" stroke-width="4"/>
<path d="M12.472 12.4V18H11.176V13.44H10.056V12.4H12.472Z" fill="#00635D"/>
<path d="M32.472 12.4V18H31.176V13.44H30.056V12.4H32.472Z" fill="#00635D"/>
<path d="M52.472 12.4V18H51.176V13.44H50.056V12.4H52.472Z" fill="#00635D"/>
<path d="M112.472 12.4V18H111.176V13.44H110.056V12.4H112.472Z" fill="#00635D"/>
<path d="M132.472 12.4V18H131.176V13.44H130.056V12.4H132.472Z" fill="#00635D"/>
<path d="M152.472 12.4V18H151.176V13.44H150.056V12.4H152.472Z" fill="#00635D"/>
<path d="M212.472 12.4V18H211.176V13.44H210.056V12.4H212.472Z" fill="#00635D"/>
<path d="M232.472 12.4V18H231.176V13.44H230.056V12.4H232.472Z" fill="#00635D"/>
<path d="M252.472 12.4V18H251.176V13.44H250.056V12.4H252.472Z" fill="#00635D"/>
<path d="M272.472 12.4V18H271.176V13.44H270.056V12.4H272.472Z" fill="#00635D"/>
<path d="M292.472 12.4V18H291.176V13.44H290.056V12.4H292.472Z" fill="#00635D"/>
<path d="M312.472 12.4V18H311.176V13.44H310.056V12.4H312.472Z" fill="#00635D"/>
<path d="M332.472 12.4V18H331.176V13.44H330.056V12.4H332.472Z" fill="#00635D"/>
<path d="M72.712 136.096C72.248 136.096 71.8347 135.981 71.472 135.752C71.1093 135.523 70.824 135.192 70.616 134.76C70.4133 134.323 70.312 133.803 70.312 133.2C70.312 132.597 70.4133 132.08 70.616 131.648C70.824 131.211 71.1093 130.877 71.472 130.648C71.8347 130.419 72.248 130.304 72.712 130.304C73.176 130.304 73.5893 130.419 73.952 130.648C74.3147 130.877 74.5973 131.211 74.8 131.648C75.008 132.08 75.112 132.597 75.112 133.2C75.112 133.803 75.008 134.323 74.8 134.76C74.5973 135.192 74.3147 135.523 73.952 135.752C73.5893 135.981 73.176 136.096 72.712 136.096ZM72.712 135C73.0533 135 73.32 134.853 73.512 134.56C73.7093 134.267 73.808 133.813 73.808 133.2C73.808 132.587 73.7093 132.133 73.512 131.84C73.32 131.547 73.0533 131.4 72.712 131.4C72.376 131.4 72.1093 131.547 71.912 131.84C71.72 132.133 71.624 132.587 71.624 133.2C71.624 133.813 71.72 134.267 71.912 134.56C72.1093 134.853 72.376 135 72.712 135Z" fill="#00635D"/>
<path d="M92.712 136.096C92.248 136.096 91.8347 135.981 91.472 135.752C91.1093 135.523 90.824 135.192 90.616 134.76C90.4133 134.323 90.312 133.803 90.312 133.2C90.312 132.597 90.4133 132.08 90.616 131.648C90.824 131.211 91.1093 130.877 91.472 130.648C91.8347 130.419 92.248 130.304 92.712 130.304C93.176 130.304 93.5893 130.419 93.952 130.648C94.3147 130.877 94.5973 131.211 94.8 131.648C95.008 132.08 95.112 132.597 95.112 133.2C95.112 133.803 95.008 134.323 94.8 134.76C94.5973 135.192 94.3147 135.523 93.952 135.752C93.5893 135.981 93.176 136.096 92.712 136.096ZM92.712 135C93.0533 135 93.32 134.853 93.512 134.56C93.7093 134.267 93.808 133.813 93.808 133.2C93.808 132.587 93.7093 132.133 93.512 131.84C93.32 131.547 93.0533 131.4 92.712 131.4C92.376 131.4 92.1093 131.547 91.912 131.84C91.72 132.133 91.624 132.587 91.624 133.2C91.624 133.813 91.72 134.267 91.912 134.56C92.1093 134.853 92.376 135 92.712 135Z" fill="#00635D"/>
<path d="M172.712 136.096C172.248 136.096 171.835 135.981 171.472 135.752C171.109 135.523 170.824 135.192 170.616 134.76C170.413 134.323 170.312 133.803 170.312 133.2C170.312 132.597 170.413 132.08 170.616 131.648C170.824 131.211 171.109 130.877 171.472 130.648C171.835 130.419 172.248 130.304 172.712 130.304C173.176 130.304 173.589 130.419 173.952 130.648C174.315 130.877 174.597 131.211 174.8 131.648C175.008 132.08 175.112 132.597 175.112 133.2C175.112 133.803 175.008 134.323 174.8 134.76C174.597 135.192 174.315 135.523 173.952 135.752C173.589 135.981 173.176 136.096 172.712 136.096ZM172.712 135C173.053 135 173.32 134.853 173.512 134.56C173.709 134.267 173.808 133.813 173.808 133.2C173.808 132.587 173.709 132.133 173.512 131.84C173.32 131.547 173.053 131.4 172.712 131.4C172.376 131.4 172.109 131.547 171.912 131.84C171.72 132.133 171.624 132.587 171.624 133.2C171.624 133.813 171.72 134.267 171.912 134.56C172.109 134.853 172.376 135 172.712 135Z" fill="#00635D"/>
<path d="M192.712 136.096C192.248 136.096 191.835 135.981 191.472 135.752C191.109 135.523 190.824 135.192 190.616 134.76C190.413 134.323 190.312 133.803 190.312 133.2C190.312 132.597 190.413 132.08 190.616 131.648C190.824 131.211 191.109 130.877 191.472 130.648C191.835 130.419 192.248 130.304 192.712 130.304C193.176 130.304 193.589 130.419 193.952 130.648C194.315 130.877 194.597 131.211 194.8 131.648C195.008 132.08 195.112 132.597 195.112 133.2C195.112 133.803 195.008 134.323 194.8 134.76C194.597 135.192 194.315 135.523 193.952 135.752C193.589 135.981 193.176 136.096 192.712 136.096ZM192.712 135C193.053 135 193.32 134.853 193.512 134.56C193.709 134.267 193.808 133.813 193.808 133.2C193.808 132.587 193.709 132.133 193.512 131.84C193.32 131.547 193.053 131.4 192.712 131.4C192.376 131.4 192.109 131.547 191.912 131.84C191.72 132.133 191.624 132.587 191.624 133.2C191.624 133.813 191.72 134.267 191.912 134.56C192.109 134.853 192.376 135 192.712 135Z" fill="#00635D"/>
</svg>
