<svg width="170" height="171" viewBox="0 0 170 171" fill="none" xmlns="http://www.w3.org/2000/svg">
<path fill-rule="evenodd" clip-rule="evenodd" d="M168.402 149.279C152.702 117.878 115.545 43.5652 98.4079 9.28968C95.8672 4.20833 90.6737 0.998535 84.9926 0.998535C79.3114 0.998535 74.1179 4.20833 71.5772 9.28968C54.4395 43.5651 17.283 117.878 1.58301 149.279C-0.741734 153.928 -0.493305 159.45 2.2396 163.872C4.97245 168.294 9.80005 170.985 14.9983 170.985H154.987C160.186 170.985 165.013 168.294 167.746 163.872C170.479 159.45 170.727 153.928 168.403 149.279H168.402ZM159.459 153.75C160.234 155.3 160.151 157.141 159.24 158.615C158.329 160.089 156.72 160.986 154.987 160.986C122.117 160.986 47.8676 160.986 14.9979 160.986C13.2651 160.986 11.6559 160.089 10.745 158.615C9.83403 157.141 9.75119 155.3 10.5261 153.75C26.2263 122.35 63.3829 48.037 80.5204 13.7615C81.3673 12.0677 83.0984 10.9978 84.9921 10.9978C86.8859 10.9978 88.617 12.0677 89.4639 13.7615C106.602 48.0369 143.758 122.35 159.458 153.75H159.459Z" fill="#FF7171"/>
<path d="M75.5811 54.8395H94.6616L91.4386 115.175H78.6753L75.5811 54.8395ZM85.1214 145.988C82.1132 145.988 79.6207 145.021 77.6439 143.087C75.6671 141.153 74.6787 138.768 74.6787 135.932C74.6787 133.095 75.6671 130.732 77.6439 128.841C79.6207 126.95 82.1132 126.005 85.1214 126.005C88.0436 126.005 90.4717 126.95 92.4055 128.841C94.3393 130.732 95.3063 133.095 95.3063 135.932C95.3063 138.768 94.3393 141.153 92.4055 143.087C90.4717 145.021 88.0436 145.988 85.1214 145.988Z" fill="#FF7171"/>
</svg>
