<svg width="91" height="171" viewBox="0 0 91 171" fill="none" xmlns="http://www.w3.org/2000/svg">
<path fill-rule="evenodd" clip-rule="evenodd" d="M20.994 41.4955C9.58409 43.8112 0.995605 53.8993 0.995605 65.9934C0.995605 88.1874 0.995605 123.793 0.995605 145.987C0.995605 159.793 12.1876 170.985 25.9936 170.985C38.209 170.985 53.7751 170.985 65.9904 170.985C79.7964 170.985 90.9884 159.793 90.9884 145.987V65.9934C90.9884 53.8993 82.4 43.8112 70.99 41.4955V5.99821C70.99 3.23699 68.7516 0.998596 65.9904 0.998596H25.9936C23.2324 0.998596 20.994 3.23699 20.994 5.99821V41.4955ZM80.9892 65.9934V145.987C80.9892 154.271 74.274 160.986 65.9904 160.986H25.9936C17.71 160.986 10.9948 154.271 10.9948 145.987C10.9948 145.987 10.9948 65.9934 10.9948 65.9934C10.9948 57.7098 17.71 50.9946 25.9936 50.9946C25.9936 50.9946 65.9904 50.9946 65.9904 50.9946C74.274 50.9946 80.9892 57.7098 80.9892 65.9934ZM60.9908 10.9979V40.9955H30.9932C30.9932 40.9955 30.9932 20.6691 30.9932 10.9979H60.9908Z" fill="#008E86"/>
<path d="M55.9913 22.6637H49.3252V29.3298H55.9913V22.6637Z" fill="#008E86"/>
<path d="M42.6589 22.6637H35.9928V29.3298H42.6589V22.6637Z" fill="#008E86"/>
<path fill-rule="evenodd" clip-rule="evenodd" d="M43.9923 75.9928H40.9925L45.9921 65.9936L50.9917 75.9928H47.992V112.619L63.9907 103.882V90.9916H60.9909V80.9924H70.9901V90.9916H67.9904V105.069C67.9904 105.8 67.591 106.474 66.949 106.824L47.992 117.176V125.973C47.9921 125.985 47.9921 125.997 47.992 126.009V145.987C47.992 147.091 47.0959 147.987 45.9921 147.987C44.8884 147.987 43.9923 147.091 43.9923 145.987V127.175L25.0353 116.823C24.3933 116.473 23.9939 115.8 23.9939 115.068V100.574C22.2289 99.8021 20.9941 98.0397 20.9941 95.9912C20.9941 93.2319 23.2344 90.9916 25.9938 90.9916C28.7531 90.9916 30.9933 93.2319 30.9933 95.9912C30.9933 98.0397 29.7586 99.8021 27.9936 100.574V113.882L43.9923 122.618V116.01C43.9922 115.998 43.9922 115.986 43.9923 115.974V75.9928Z" fill="#008E86"/>
</svg>
