<svg width="38" height="36" viewBox="0 0 38 36" fill="none" xmlns="http://www.w3.org/2000/svg">
<path d="M13.7529 12.3857C8.02842 -10.031 -12.3255 19.7854 10.7846 16.9561C16.461 16.2611 14.6009 21.6645 10.7846 21.0912C-6.60102 18.4796 11.2842 45.902 15.025 25.8793C15.7879 21.7957 21.0745 21.0066 19.4774 27.838C15.6611 44.1609 41.5275 31.9732 26.262 25.8793C20.8464 23.7174 21.5979 18.4697 27.7461 21.0912C48.1001 29.77 33.2587 -4.37241 24.9899 15.6503C23.5831 19.0567 17.8559 15.9043 22.4457 12.3857C39.1953 -0.454948 2.3039 -6.98408 17.3572 11.2975C20.362 14.9467 15.1954 18.0347 13.7529 12.3857Z" fill="#7300A9"/>
</svg>
