<svg width="60" height="60" viewBox="0 0 60 60" fill="none" xmlns="http://www.w3.org/2000/svg">
<g clip-path="url(#clip0)">
<path d="M60 30C60 13.4315 46.5685 -5.85027e-06 30 -5.12604e-06C13.4315 -4.4018e-06 -2.03558e-06 13.4315 -1.31134e-06 30C-5.87108e-07 46.5685 13.4315 60 30 60C46.5685 60 60 46.5685 60 30Z" fill="#454545"/>
<path d="M57.4158 30.003C57.4158 14.86 45.14 2.58421 29.997 2.58421C14.854 2.58421 2.57818 14.86 2.57818 30.003C2.57819 45.146 14.854 57.4218 29.997 57.4218C45.14 57.4218 57.4158 45.146 57.4158 30.003Z" fill="#B1B1B1"/>
<path d="M54.9142 30.0014C54.9142 16.2409 43.7591 5.08579 29.9986 5.08579C16.2381 5.08579 5.08301 16.2409 5.08301 30.0014C5.08301 43.7619 16.2381 54.917 29.9986 54.917C43.7591 54.917 54.9142 43.7619 54.9142 30.0014Z" fill="#808080"/>
<path fill-rule="evenodd" clip-rule="evenodd" d="M2.436 41.8506C0.8688 38.2158 -3.34077e-07 34.2078 -5.18032e-07 29.9994C-7.01987e-07 25.791 0.868799 21.783 2.436 18.1482L30 18.1482C36.5412 18.1482 41.8512 23.4582 41.8512 29.9994C41.8512 36.5406 36.5412 41.8506 30 41.8506L2.436 41.8506Z" fill="#222222"/>
<path d="M39.1166 29.9974C39.1166 24.9639 35.0361 20.8834 30.0026 20.8834C24.9691 20.8834 20.8886 24.9639 20.8886 29.9974C20.8886 35.0309 24.9691 39.1114 30.0026 39.1114C35.0361 39.1114 39.1166 35.0309 39.1166 29.9974Z" fill="#3F3F3F"/>
<path d="M36.8487 29.9961C36.8487 26.2158 33.7842 23.1513 30.0039 23.1513C26.2236 23.1513 23.1591 26.2158 23.1591 29.9961C23.1591 33.7764 26.2236 36.8409 30.0039 36.8409C33.7842 36.8409 36.8487 33.7764 36.8487 29.9961Z" fill="#F7F7F7"/>
<path d="M36.2137 30.0059C36.2137 26.5709 33.4291 23.7863 29.9941 23.7863C26.5591 23.7863 23.7745 26.5709 23.7745 30.0059C23.7745 33.4409 26.5591 36.2255 29.9941 36.2255C33.4291 36.2255 36.2137 33.4409 36.2137 30.0059Z" fill="#262626"/>
<path d="M17.8463 30.005C17.8463 29.2555 17.2387 28.6478 16.4891 28.6478C15.7395 28.6478 15.1319 29.2555 15.1319 30.005C15.1319 30.7546 15.7395 31.3622 16.4891 31.3622C17.2387 31.3622 17.8463 30.7546 17.8463 30.005Z" fill="#00FF85"/>
<path fill-rule="evenodd" clip-rule="evenodd" d="M3.83778 28.2419C3.56298 28.2419 3.33978 28.4651 3.33978 28.7411L3.33978 31.2731C3.33978 31.5491 3.56298 31.7723 3.83778 31.7723C4.11378 31.7723 4.33698 31.5491 4.33698 31.2731L4.33698 28.7411C4.33698 28.4651 4.11378 28.2419 3.83778 28.2419Z" fill="#B1B1B1"/>
</g>
<defs>
<clipPath id="clip0">
<rect width="60" height="60" fill="white" transform="translate(0 60) rotate(-90)"/>
</clipPath>
</defs>
</svg>
