<svg width="160" height="166" viewBox="0 0 160 166" fill="none" xmlns="http://www.w3.org/2000/svg">
<path fill-rule="evenodd" clip-rule="evenodd" d="M2 112H17V110.009C17 107.357 18.0338 104.813 19.874 102.938C21.7142 101.063 24.2101 100.009 26.8125 100.009H41.6818L46 104H62.5L66.8182 100.009C66.8182 100.009 125.057 100.026 149.185 100.032C151.788 100.033 154.284 98.9798 156.125 97.1042C157.966 95.2287 159 92.6846 159 90.0319C159 90.0212 159 90.0103 159 89.9996C159 84.477 154.607 80.0001 149.187 80.0001C125.062 80.0001 67 79.9912 67 79.9912L63 83.9912L46 83.9912L42 80.0001H11.8125C9.21006 80.0001 6.71423 81.0537 4.87404 82.9291C3.03384 84.8044 2 87.3479 2 90.0001V112Z" fill="#FFDE6C"/>
<path fill-rule="evenodd" clip-rule="evenodd" d="M158.999 89.9992C158.999 87.3473 157.966 84.8039 156.126 82.9287C154.286 81.0535 151.79 80 149.188 80C125.063 80 67 80 67 80L62.9814 83.9911H45.9629L42 80H11.8277C9.22117 80 6.72149 81.0552 4.87846 82.9335C3.03544 84.8117 2 87.3592 2 90.0155C2 99.4023 2 112 2 112H4.355V90.014C4.355 85.684 7.79923 82.1739 12.048 82.1739C22.604 82.1739 41.0362 82.1739 41.0362 82.1739L45 86.165H63.9597L67.9814 82.1739H148.966C151.002 82.1739 152.956 82.9984 154.396 84.466C155.836 85.9336 156.645 87.924 156.645 89.9996L158.999 89.9992Z" fill="#FFF0BD"/>
<path fill-rule="evenodd" clip-rule="evenodd" d="M158.997 90.0022H156.642C156.642 92.079 155.832 94.0713 154.391 95.5398C152.95 97.0083 150.996 97.8332 148.958 97.8332C126.711 97.8332 66 97.8332 66 97.8332L61.5 101.821H46.9756L42.4756 97.83H26.7765C20.0765 97.83 14.645 103.365 14.645 110.193C14.645 111.291 14.645 111.998 14.645 111.998H17V110.007C17 107.354 18.0338 104.811 19.874 102.936C21.7142 101.06 24.2101 100.007 26.8125 100.007C33.2755 100.007 41.5001 100.007 41.5001 100.007L46.0001 103.998H62.4754L66.9754 100.01C66.9754 100.01 125.054 100.025 149.182 100.031C151.784 100.032 154.281 98.9787 156.122 97.1033C157.962 95.228 158.996 92.6841 158.997 90.0316C158.997 90.0122 158.997 90.0022 158.997 90.0022Z" fill="#EBC541"/>
<path d="M10.664 95V89.4H13.088C13.5893 89.4 14.0213 89.4827 14.384 89.648C14.7467 89.808 15.0267 90.04 15.224 90.344C15.4213 90.648 15.52 91.0107 15.52 91.432C15.52 91.848 15.4213 92.208 15.224 92.512C15.0267 92.8107 14.7467 93.04 14.384 93.2C14.0213 93.36 13.5893 93.44 13.088 93.44H11.384L11.96 92.872V95H10.664ZM14.224 95L12.824 92.968H14.208L15.624 95H14.224ZM11.96 93.016L11.384 92.408H13.016C13.416 92.408 13.7147 92.3227 13.912 92.152C14.1093 91.976 14.208 91.736 14.208 91.432C14.208 91.1227 14.1093 90.8827 13.912 90.712C13.7147 90.5413 13.416 90.456 13.016 90.456H11.384L11.96 89.84V93.016ZM18.5948 95.064C18.1041 95.064 17.6721 94.968 17.2988 94.776C16.9308 94.584 16.6455 94.3227 16.4428 93.992C16.2401 93.656 16.1388 93.2747 16.1388 92.848C16.1388 92.416 16.2375 92.0347 16.4348 91.704C16.6375 91.368 16.9121 91.1067 17.2588 90.92C17.6055 90.728 17.9975 90.632 18.4348 90.632C18.8561 90.632 19.2348 90.7227 19.5708 90.904C19.9121 91.08 20.1815 91.336 20.3788 91.672C20.5761 92.0027 20.6748 92.4 20.6748 92.864C20.6748 92.912 20.6721 92.968 20.6668 93.032C20.6615 93.0907 20.6561 93.1467 20.6508 93.2H17.1548V92.472H19.9948L19.5148 92.688C19.5148 92.464 19.4695 92.2693 19.3788 92.104C19.2881 91.9387 19.1628 91.8107 19.0028 91.72C18.8428 91.624 18.6561 91.576 18.4428 91.576C18.2295 91.576 18.0401 91.624 17.8748 91.72C17.7148 91.8107 17.5895 91.9413 17.4988 92.112C17.4081 92.2773 17.3628 92.4747 17.3628 92.704V92.896C17.3628 93.1307 17.4135 93.3387 17.5148 93.52C17.6215 93.696 17.7681 93.832 17.9548 93.928C18.1468 94.0187 18.3708 94.064 18.6268 94.064C18.8561 94.064 19.0561 94.0293 19.2268 93.96C19.4028 93.8907 19.5628 93.7867 19.7068 93.648L20.3708 94.368C20.1735 94.592 19.9255 94.7653 19.6268 94.888C19.3281 95.0053 18.9841 95.064 18.5948 95.064ZM24.0497 95.064C23.687 95.064 23.3697 94.984 23.0977 94.824C22.8257 94.664 22.6124 94.4213 22.4577 94.096C22.3084 93.7653 22.2337 93.3493 22.2337 92.848C22.2337 92.3413 22.3057 91.9253 22.4497 91.6C22.5937 91.2747 22.8017 91.032 23.0737 90.872C23.3457 90.712 23.671 90.632 24.0497 90.632C24.455 90.632 24.8177 90.7253 25.1377 90.912C25.463 91.0933 25.719 91.3493 25.9057 91.68C26.0977 92.0107 26.1937 92.4 26.1937 92.848C26.1937 93.3013 26.0977 93.6933 25.9057 94.024C25.719 94.3547 25.463 94.6107 25.1377 94.792C24.8177 94.9733 24.455 95.064 24.0497 95.064ZM21.5057 96.552V90.696H22.6977V91.576L22.6737 92.856L22.7537 94.128V96.552H21.5057ZM23.8337 94.04C24.0417 94.04 24.2257 93.992 24.3857 93.896C24.551 93.8 24.6817 93.664 24.7777 93.488C24.879 93.3067 24.9297 93.0933 24.9297 92.848C24.9297 92.5973 24.879 92.384 24.7777 92.208C24.6817 92.032 24.551 91.896 24.3857 91.8C24.2257 91.704 24.0417 91.656 23.8337 91.656C23.6257 91.656 23.439 91.704 23.2737 91.8C23.1084 91.896 22.9777 92.032 22.8817 92.208C22.7857 92.384 22.7377 92.5973 22.7377 92.848C22.7377 93.0933 22.7857 93.3067 22.8817 93.488C22.9777 93.664 23.1084 93.8 23.2737 93.896C23.439 93.992 23.6257 94.04 23.8337 94.04ZM29.1651 95.064C28.6745 95.064 28.2425 94.968 27.8691 94.776C27.5011 94.584 27.2158 94.3227 27.0131 93.992C26.8105 93.656 26.7091 93.2747 26.7091 92.848C26.7091 92.416 26.8078 92.0347 27.0051 91.704C27.2078 91.368 27.4825 91.1067 27.8291 90.92C28.1758 90.728 28.5678 90.632 29.0051 90.632C29.4265 90.632 29.8051 90.7227 30.1411 90.904C30.4825 91.08 30.7518 91.336 30.9491 91.672C31.1465 92.0027 31.2451 92.4 31.2451 92.864C31.2451 92.912 31.2425 92.968 31.2371 93.032C31.2318 93.0907 31.2265 93.1467 31.2211 93.2H27.7251V92.472H30.5651L30.0851 92.688C30.0851 92.464 30.0398 92.2693 29.9491 92.104C29.8585 91.9387 29.7331 91.8107 29.5731 91.72C29.4131 91.624 29.2265 91.576 29.0131 91.576C28.7998 91.576 28.6105 91.624 28.4451 91.72C28.2851 91.8107 28.1598 91.9413 28.0691 92.112C27.9785 92.2773 27.9331 92.4747 27.9331 92.704V92.896C27.9331 93.1307 27.9838 93.3387 28.0851 93.52C28.1918 93.696 28.3385 93.832 28.5251 93.928C28.7171 94.0187 28.9411 94.064 29.1971 94.064C29.4265 94.064 29.6265 94.0293 29.7971 93.96C29.9731 93.8907 30.1331 93.7867 30.2771 93.648L30.9411 94.368C30.7438 94.592 30.4958 94.7653 30.1971 94.888C29.8985 95.0053 29.5545 95.064 29.1651 95.064ZM34.5988 95V94.16L34.5188 93.976V92.472C34.5188 92.2053 34.4361 91.9973 34.2708 91.848C34.1108 91.6987 33.8628 91.624 33.5268 91.624C33.2975 91.624 33.0708 91.6613 32.8468 91.736C32.6281 91.8053 32.4415 91.9013 32.2868 92.024L31.8388 91.152C32.0735 90.9867 32.3561 90.8587 32.6868 90.768C33.0175 90.6773 33.3535 90.632 33.6948 90.632C34.3508 90.632 34.8601 90.7867 35.2228 91.096C35.5855 91.4053 35.7668 91.888 35.7668 92.544V95H34.5988ZM33.2868 95.064C32.9508 95.064 32.6628 95.008 32.4228 94.896C32.1828 94.7787 31.9988 94.6213 31.8708 94.424C31.7428 94.2267 31.6788 94.0053 31.6788 93.76C31.6788 93.504 31.7401 93.28 31.8628 93.088C31.9908 92.896 32.1908 92.7467 32.4628 92.64C32.7348 92.528 33.0895 92.472 33.5268 92.472H34.6708V93.2H33.6628C33.3695 93.2 33.1668 93.248 33.0548 93.344C32.9481 93.44 32.8948 93.56 32.8948 93.704C32.8948 93.864 32.9561 93.992 33.0788 94.088C33.2068 94.1787 33.3801 94.224 33.5988 94.224C33.8068 94.224 33.9935 94.176 34.1588 94.08C34.3241 93.9787 34.4441 93.832 34.5188 93.64L34.7108 94.216C34.6201 94.4933 34.4548 94.704 34.2148 94.848C33.9748 94.992 33.6655 95.064 33.2868 95.064ZM38.6563 95.064C38.1496 95.064 37.755 94.936 37.4723 94.68C37.1896 94.4187 37.0483 94.032 37.0483 93.52V89.744H38.2963V93.504C38.2963 93.6853 38.3443 93.8267 38.4403 93.928C38.5363 94.024 38.667 94.072 38.8323 94.072C39.0296 94.072 39.1976 94.0187 39.3363 93.912L39.6723 94.792C39.5443 94.8827 39.3896 94.952 39.2083 95C39.0323 95.0427 38.8483 95.064 38.6563 95.064ZM36.3843 91.752V90.792H39.3683V91.752H36.3843Z" fill="#333333"/>
<rect x="48" y="86" width="13" height="13" rx="5" fill="#F2F2F2"/>
<path d="M54.4871 97.144C53.7831 97.144 53.1671 97.04 52.6391 96.832C52.1111 96.616 51.6991 96.316 51.4031 95.932C51.1071 95.54 50.9591 95.084 50.9591 94.564C50.9591 94.044 51.1031 93.604 51.3911 93.244C51.6871 92.876 52.0991 92.6 52.6271 92.416C53.1551 92.224 53.7751 92.128 54.4871 92.128C55.2071 92.128 55.8311 92.224 56.3591 92.416C56.8951 92.6 57.3071 92.876 57.5951 93.244C57.8911 93.604 58.0391 94.044 58.0391 94.564C58.0391 95.084 57.8911 95.54 57.5951 95.932C57.2991 96.316 56.8831 96.616 56.3471 96.832C55.8191 97.04 55.1991 97.144 54.4871 97.144ZM54.4871 95.716C54.9751 95.716 55.3591 95.608 55.6391 95.392C55.9271 95.176 56.0711 94.88 56.0711 94.504C56.0711 94.128 55.9271 93.836 55.6391 93.628C55.3591 93.412 54.9751 93.304 54.4871 93.304C54.0071 93.304 53.6271 93.412 53.3471 93.628C53.0671 93.836 52.9271 94.128 52.9271 94.504C52.9271 94.88 53.0671 95.176 53.3471 95.392C53.6271 95.608 54.0071 95.716 54.4871 95.716ZM54.4871 93.112C53.8391 93.112 53.2711 93.024 52.7831 92.848C52.3031 92.672 51.9271 92.416 51.6551 92.08C51.3911 91.736 51.2591 91.328 51.2591 90.856C51.2591 90.36 51.3951 89.936 51.6671 89.584C51.9391 89.224 52.3191 88.948 52.8071 88.756C53.2951 88.556 53.8551 88.456 54.4871 88.456C55.1351 88.456 55.6991 88.556 56.1791 88.756C56.6671 88.948 57.0471 89.224 57.3191 89.584C57.5991 89.936 57.7391 90.36 57.7391 90.856C57.7391 91.328 57.6031 91.736 57.3311 92.08C57.0671 92.416 56.6911 92.672 56.2031 92.848C55.7151 93.024 55.1431 93.112 54.4871 93.112ZM54.4871 91.972C54.8951 91.972 55.2151 91.88 55.4471 91.696C55.6871 91.512 55.8071 91.26 55.8071 90.94C55.8071 90.604 55.6831 90.344 55.4351 90.16C55.1951 89.976 54.8791 89.884 54.4871 89.884C54.1031 89.884 53.7911 89.976 53.5511 90.16C53.3111 90.344 53.1911 90.604 53.1911 90.94C53.1911 91.26 53.3071 91.512 53.5391 91.696C53.7711 91.88 54.0871 91.972 54.4871 91.972Z" fill="#008E86"/>
<path d="M69.336 95.064C68.8293 95.064 68.4347 94.936 68.152 94.68C67.8693 94.4187 67.728 94.032 67.728 93.52V89.744H68.976V93.504C68.976 93.6853 69.024 93.8267 69.12 93.928C69.216 94.024 69.3467 94.072 69.512 94.072C69.7093 94.072 69.8773 94.0187 70.016 93.912L70.352 94.792C70.224 94.8827 70.0693 94.952 69.888 95C69.712 95.0427 69.528 95.064 69.336 95.064ZM67.064 91.752V90.792H70.048V91.752H67.064ZM71.0526 95V90.696H72.3006V95H71.0526ZM71.6766 90.096C71.4472 90.096 71.2606 90.0293 71.1166 89.896C70.9726 89.7627 70.9006 89.5973 70.9006 89.4C70.9006 89.2027 70.9726 89.0373 71.1166 88.904C71.2606 88.7707 71.4472 88.704 71.6766 88.704C71.9059 88.704 72.0926 88.768 72.2366 88.896C72.3806 89.0187 72.4526 89.1787 72.4526 89.376C72.4526 89.584 72.3806 89.7573 72.2366 89.896C72.0979 90.0293 71.9112 90.096 71.6766 90.096ZM78.9708 90.632C79.3121 90.632 79.6135 90.7013 79.8748 90.84C80.1415 90.9733 80.3495 91.1813 80.4988 91.464C80.6535 91.7413 80.7308 92.0987 80.7308 92.536V95H79.4828V92.728C79.4828 92.3813 79.4108 92.1253 79.2668 91.96C79.1228 91.7947 78.9201 91.712 78.6588 91.712C78.4775 91.712 78.3148 91.7547 78.1708 91.84C78.0268 91.92 77.9148 92.0427 77.8348 92.208C77.7548 92.3733 77.7148 92.584 77.7148 92.84V95H76.4668V92.728C76.4668 92.3813 76.3948 92.1253 76.2508 91.96C76.1121 91.7947 75.9121 91.712 75.6508 91.712C75.4695 91.712 75.3068 91.7547 75.1628 91.84C75.0188 91.92 74.9068 92.0427 74.8268 92.208C74.7468 92.3733 74.7068 92.584 74.7068 92.84V95H73.4588V90.696H74.6508V91.872L74.4268 91.528C74.5761 91.2347 74.7868 91.0133 75.0588 90.864C75.3361 90.7093 75.6508 90.632 76.0028 90.632C76.3975 90.632 76.7415 90.7333 77.0348 90.936C77.3335 91.1333 77.5308 91.4373 77.6268 91.848L77.1868 91.728C77.3308 91.392 77.5601 91.1253 77.8748 90.928C78.1948 90.7307 78.5601 90.632 78.9708 90.632ZM84.0167 95.064C83.526 95.064 83.094 94.968 82.7207 94.776C82.3527 94.584 82.0674 94.3227 81.8647 93.992C81.662 93.656 81.5607 93.2747 81.5607 92.848C81.5607 92.416 81.6594 92.0347 81.8567 91.704C82.0594 91.368 82.334 91.1067 82.6807 90.92C83.0274 90.728 83.4194 90.632 83.8567 90.632C84.278 90.632 84.6567 90.7227 84.9927 90.904C85.334 91.08 85.6034 91.336 85.8007 91.672C85.998 92.0027 86.0967 92.4 86.0967 92.864C86.0967 92.912 86.094 92.968 86.0887 93.032C86.0834 93.0907 86.078 93.1467 86.0727 93.2H82.5767V92.472H85.4167L84.9367 92.688C84.9367 92.464 84.8914 92.2693 84.8007 92.104C84.71 91.9387 84.5847 91.8107 84.4247 91.72C84.2647 91.624 84.078 91.576 83.8647 91.576C83.6514 91.576 83.462 91.624 83.2967 91.72C83.1367 91.8107 83.0114 91.9413 82.9207 92.112C82.83 92.2773 82.7847 92.4747 82.7847 92.704V92.896C82.7847 93.1307 82.8354 93.3387 82.9367 93.52C83.0434 93.696 83.19 93.832 83.3767 93.928C83.5687 94.0187 83.7927 94.064 84.0487 94.064C84.278 94.064 84.478 94.0293 84.6487 93.96C84.8247 93.8907 84.9847 93.7867 85.1287 93.648L85.7927 94.368C85.5954 94.592 85.3474 94.7653 85.0487 94.888C84.75 95.0053 84.406 95.064 84.0167 95.064ZM88.3756 95.064C88.0076 95.064 87.6529 95.0213 87.3116 94.936C86.9756 94.8453 86.7089 94.7333 86.5116 94.6L86.9276 93.704C87.1249 93.8267 87.3569 93.928 87.6236 94.008C87.8956 94.0827 88.1622 94.12 88.4236 94.12C88.7116 94.12 88.9142 94.0853 89.0316 94.016C89.1542 93.9467 89.2156 93.8507 89.2156 93.728C89.2156 93.6267 89.1676 93.552 89.0716 93.504C88.9809 93.4507 88.8582 93.4107 88.7036 93.384C88.5489 93.3573 88.3782 93.3307 88.1916 93.304C88.0102 93.2773 87.8262 93.2427 87.6396 93.2C87.4529 93.152 87.2822 93.0827 87.1276 92.992C86.9729 92.9013 86.8476 92.7787 86.7516 92.624C86.6609 92.4693 86.6156 92.2693 86.6156 92.024C86.6156 91.752 86.6929 91.512 86.8476 91.304C87.0076 91.096 87.2369 90.9333 87.5356 90.816C87.8342 90.6933 88.1916 90.632 88.6076 90.632C88.9009 90.632 89.1996 90.664 89.5036 90.728C89.8076 90.792 90.0609 90.8853 90.2636 91.008L89.8476 91.896C89.6396 91.7733 89.4289 91.6907 89.2156 91.648C89.0076 91.6 88.8049 91.576 88.6076 91.576C88.3302 91.576 88.1276 91.6133 87.9996 91.688C87.8716 91.7627 87.8076 91.8587 87.8076 91.976C87.8076 92.0827 87.8529 92.1627 87.9436 92.216C88.0396 92.2693 88.1649 92.312 88.3196 92.344C88.4742 92.376 88.6422 92.4053 88.8236 92.432C89.0102 92.4533 89.1969 92.488 89.3836 92.536C89.5702 92.584 89.7382 92.6533 89.8876 92.744C90.0422 92.8293 90.1676 92.9493 90.2636 93.104C90.3596 93.2533 90.4076 93.4507 90.4076 93.696C90.4076 93.9627 90.3276 94.2 90.1676 94.408C90.0076 94.6107 89.7756 94.7707 89.4716 94.888C89.1729 95.0053 88.8076 95.064 88.3756 95.064Z" fill="#333333"/>
<path fill-rule="evenodd" clip-rule="evenodd" d="M17 130H2V151.971C2 157.488 6.38557 161.964 11.8 161.971C23.4255 161.986 42 162.009 42 162.009L46.3182 166H62.6819L67.0001 162.009H149.187C151.79 162.009 154.286 160.955 156.126 159.08C157.966 157.204 159 154.661 159 152.008C159 152.005 159 152.002 159 151.999C159 146.477 154.607 142 149.187 142C125.062 142 67 142 67 142L62.6849 145.991H46.3182L42 142H26.8125C24.2101 142 21.7142 140.946 19.874 139.071C18.0338 137.196 17 134.652 17 132V130Z" fill="#FFDE6C"/>
<path fill-rule="evenodd" clip-rule="evenodd" d="M158.996 151.999C158.996 149.347 157.962 146.804 156.122 144.929C154.282 143.053 151.787 142 149.184 142C125.059 142 67.0001 142 67.0001 142L62.6818 145.991H46.3183L42.0001 142L26.9302 142C21.5109 142 17.1177 137.523 17.1177 132C17.1177 130.806 17.1177 130 17.1177 130H14.7627C14.7627 130 14.7627 130.879 14.7627 132.198C14.7627 138.804 20.0177 144.16 26.5 144.16C32.9699 144.16 41.0363 144.16 41.0363 144.16L45.3545 148.165H63.6632L67.9814 144.174C67.9814 144.174 127.049 144.177 148.958 144.178C153.198 144.179 156.637 147.679 156.642 152L158.996 151.999Z" fill="#FFF0BD"/>
<path fill-rule="evenodd" clip-rule="evenodd" d="M159 152H156.645C156.645 154.077 155.835 156.069 154.394 157.538C152.953 159.007 150.998 159.832 148.96 159.832C126.712 159.832 66.0053 159.832 66.0053 159.832L61.6871 163.823H46.5436L42.2254 159.832H12.0402C7.79574 159.832 4.355 156.326 4.355 152C4.355 143.161 4.355 130 4.355 130H2C2 130 2 142.623 2 152.016C2 154.669 3.03384 157.212 4.87404 159.088C6.71423 160.963 9.21006 162.016 11.8125 162.016C23.4326 162.016 41.2308 162.016 41.2308 162.016L45.5681 166H62.6626L67 162.016H149.187C154.606 162.016 159 157.54 159 152.017C159 152.006 159 152 159 152Z" fill="#EBC541"/>
<path d="M17 111H2V130.988H17V111Z" fill="#FFDE6C"/>
<path d="M4.5 111L2 111V120.994L4.5 120.994V111Z" fill="#FFF0BD"/>
<path d="M16.9968 121.006H14.7468V131H16.9968V121.006Z" fill="#FFF0BD"/>
<path d="M4.25001 121.006H2V131H4.25001V121.006Z" fill="#EBC541"/>
<path d="M16.9968 111H14.5V120.994H16.9968V111Z" fill="#EBC541"/>
<path fill-rule="evenodd" clip-rule="evenodd" d="M159.22 24.3182C159.22 18.5922 154.531 13.9505 148.747 13.9505C130.439 13.9505 101.658 13.9505 88.5207 13.9505C85.8392 13.9504 83.2599 12.932 81.3143 11.1053C76.9544 7.01868 65.9488 0 41.8916 0C7.97493 0 0 13.9505 0 13.9505C0 13.9505 0.00020108 20.7144 0.00030162 26.9667C0.00040216 32.6928 4.68928 37.3346 10.4732 37.3346C22.8812 37.3346 41.8913 37.3346 41.8913 37.3346L46.5001 41.4728H62.4206L67.0263 37.3346C67.0263 37.3346 122.997 37.3346 148.747 37.3346C151.525 37.3346 154.189 36.2422 156.153 34.2977C158.117 32.3532 159.22 29.7158 159.22 26.966C159.22 26.0867 159.22 25.1974 159.22 24.3182Z" fill="#FC79FF"/>
<path fill-rule="evenodd" clip-rule="evenodd" d="M159.22 25.4395H156.707V25.8785C156.707 28.2592 155.751 30.5423 154.051 32.2257C152.351 33.9092 150.044 34.8548 147.64 34.8548H65.9852L61.3794 38.9929H47.5413L42.9325 34.8548C42.9325 34.8548 23.4971 34.8548 11.5805 34.8548C9.17578 34.8548 6.86959 33.9092 5.16916 32.2257C3.46883 30.5423 2.5135 28.2592 2.5135 25.8785V25.4395H0V26.9827C0 29.7325 1.10343 32.3697 3.06747 34.3142C5.03152 36.2586 7.69533 37.3509 10.4729 37.3509C22.8811 37.3509 41.8913 37.3509 41.8913 37.3509L46.5001 41.489H62.4206L67.0263 37.3509H148.747C154.531 37.3509 159.22 32.7091 159.22 26.9829C159.22 26.0449 159.22 25.4395 159.22 25.4395Z" fill="#CD5ACF"/>
<path fill-rule="evenodd" clip-rule="evenodd" d="M0 25.4232H2.5135V15.1985C2.5135 15.1985 9.36419 2.49603 41.8819 2.49603C63.9643 2.49603 75.0076 8.96538 79.6736 12.8874C81.9226 14.7793 84.7717 15.8281 87.7227 15.8506C101.426 15.9617 130.331 16.2455 147.64 16.3774C152.659 16.4156 156.707 20.4541 156.707 25.4224V25.4232H159.22V24.3187C159.22 18.5925 154.531 13.9505 148.747 13.9505C130.442 13.9505 101.671 13.9505 88.5276 13.9505C85.8436 13.9504 83.2621 12.9301 81.3159 11.1003C76.9616 7.01301 65.967 0 41.8916 0C7.93562 0 0.00030162 13.9505 0.00030162 13.9505L0 25.4232Z" fill="#FDACFF"/>
<path d="M12.4831 27.855L10.6511 22.255H11.9951L13.5871 27.215H12.9151L14.5791 22.255H15.7791L17.3791 27.215H16.7311L18.3631 22.255H19.6031L17.7711 27.855H16.3791L14.9631 23.503H15.3311L13.8751 27.855H12.4831ZM22.9718 23.487C23.3131 23.487 23.6171 23.5563 23.8838 23.695C24.1558 23.8283 24.3691 24.0363 24.5238 24.319C24.6785 24.5963 24.7558 24.9536 24.7558 25.391V27.855H23.5078V25.583C23.5078 25.2363 23.4305 24.9803 23.2758 24.815C23.1265 24.6496 22.9131 24.567 22.6358 24.567C22.4385 24.567 22.2598 24.6096 22.0998 24.695C21.9451 24.775 21.8225 24.9003 21.7318 25.071C21.6465 25.2416 21.6038 25.4603 21.6038 25.727V27.855H20.3558V21.919H21.6038V24.743L21.3238 24.383C21.4785 24.095 21.6998 23.8736 21.9878 23.719C22.2758 23.5643 22.6038 23.487 22.9718 23.487ZM28.0543 27.919C27.5636 27.919 27.1316 27.823 26.7583 27.631C26.3903 27.439 26.105 27.1776 25.9023 26.847C25.6996 26.511 25.5983 26.1296 25.5983 25.703C25.5983 25.271 25.697 24.8896 25.8943 24.559C26.097 24.223 26.3716 23.9616 26.7183 23.775C27.065 23.583 27.457 23.487 27.8943 23.487C28.3156 23.487 28.6943 23.5776 29.0303 23.759C29.3716 23.935 29.641 24.191 29.8383 24.527C30.0356 24.8576 30.1343 25.255 30.1343 25.719C30.1343 25.767 30.1316 25.823 30.1263 25.887C30.121 25.9456 30.1156 26.0016 30.1103 26.055H26.6143V25.327H29.4543L28.9743 25.543C28.9743 25.319 28.929 25.1243 28.8383 24.959C28.7476 24.7936 28.6223 24.6656 28.4623 24.575C28.3023 24.479 28.1156 24.431 27.9023 24.431C27.689 24.431 27.4996 24.479 27.3343 24.575C27.1743 24.6656 27.049 24.7963 26.9583 24.967C26.8676 25.1323 26.8223 25.3296 26.8223 25.559V25.751C26.8223 25.9856 26.873 26.1936 26.9743 26.375C27.081 26.551 27.2276 26.687 27.4143 26.783C27.6063 26.8736 27.8303 26.919 28.0863 26.919C28.3156 26.919 28.5156 26.8843 28.6863 26.815C28.8623 26.7456 29.0223 26.6416 29.1663 26.503L29.8303 27.223C29.633 27.447 29.385 27.6203 29.0863 27.743C28.7876 27.8603 28.4436 27.919 28.0543 27.919ZM33.5812 23.487C33.9225 23.487 34.2265 23.5563 34.4932 23.695C34.7652 23.8283 34.9785 24.0363 35.1332 24.319C35.2878 24.5963 35.3652 24.9536 35.3652 25.391V27.855H34.1172V25.583C34.1172 25.2363 34.0398 24.9803 33.8852 24.815C33.7358 24.6496 33.5225 24.567 33.2452 24.567C33.0478 24.567 32.8692 24.6096 32.7092 24.695C32.5545 24.775 32.4318 24.9003 32.3412 25.071C32.2558 25.2416 32.2132 25.4603 32.2132 25.727V27.855H30.9652V23.551H32.1572V24.743L31.9332 24.383C32.0878 24.095 32.3092 23.8736 32.5972 23.719C32.8852 23.5643 33.2132 23.487 33.5812 23.487ZM36.9684 25.047C36.7551 25.047 36.5711 24.975 36.4164 24.831C36.2671 24.6816 36.1924 24.4923 36.1924 24.263C36.1924 24.0336 36.2671 23.8496 36.4164 23.711C36.5711 23.567 36.7551 23.495 36.9684 23.495C37.1871 23.495 37.3711 23.567 37.5204 23.711C37.6697 23.8496 37.7444 24.0336 37.7444 24.263C37.7444 24.4923 37.6697 24.6816 37.5204 24.831C37.3711 24.975 37.1871 25.047 36.9684 25.047ZM36.9684 27.919C36.7551 27.919 36.5711 27.847 36.4164 27.703C36.2671 27.5536 36.1924 27.3643 36.1924 27.135C36.1924 26.9056 36.2671 26.7216 36.4164 26.583C36.5711 26.439 36.7551 26.367 36.9684 26.367C37.1871 26.367 37.3711 26.439 37.5204 26.583C37.6697 26.7216 37.7444 26.9056 37.7444 27.135C37.7444 27.3643 37.6697 27.5536 37.5204 27.703C37.3711 27.847 37.1871 27.919 36.9684 27.919ZM43.3998 27.919C43.0371 27.919 42.7198 27.839 42.4478 27.679C42.1758 27.519 41.9625 27.2763 41.8078 26.951C41.6585 26.6203 41.5838 26.2043 41.5838 25.703C41.5838 25.1963 41.6558 24.7803 41.7998 24.455C41.9438 24.1296 42.1518 23.887 42.4238 23.727C42.6958 23.567 43.0211 23.487 43.3998 23.487C43.8051 23.487 44.1678 23.5803 44.4878 23.767C44.8131 23.9483 45.0691 24.2043 45.2558 24.535C45.4478 24.8656 45.5438 25.255 45.5438 25.703C45.5438 26.1563 45.4478 26.5483 45.2558 26.879C45.0691 27.2096 44.8131 27.4656 44.4878 27.647C44.1678 27.8283 43.8051 27.919 43.3998 27.919ZM40.8558 29.407V23.551H42.0478V24.431L42.0238 25.711L42.1038 26.983V29.407H40.8558ZM43.1838 26.895C43.3918 26.895 43.5758 26.847 43.7358 26.751C43.9011 26.655 44.0318 26.519 44.1278 26.343C44.2291 26.1616 44.2798 25.9483 44.2798 25.703C44.2798 25.4523 44.2291 25.239 44.1278 25.063C44.0318 24.887 43.9011 24.751 43.7358 24.655C43.5758 24.559 43.3918 24.511 43.1838 24.511C42.9758 24.511 42.7891 24.559 42.6238 24.655C42.4585 24.751 42.3278 24.887 42.2318 25.063C42.1358 25.239 42.0878 25.4523 42.0878 25.703C42.0878 25.9483 42.1358 26.1616 42.2318 26.343C42.3278 26.519 42.4585 26.655 42.6238 26.751C42.7891 26.847 42.9758 26.895 43.1838 26.895ZM46.3792 27.855V23.551H47.5712V24.767L47.4032 24.415C47.5312 24.111 47.7366 23.8816 48.0192 23.727C48.3019 23.567 48.6459 23.487 49.0512 23.487V24.639C48.9979 24.6336 48.9499 24.631 48.9072 24.631C48.8646 24.6256 48.8192 24.623 48.7712 24.623C48.4299 24.623 48.1526 24.7216 47.9392 24.919C47.7312 25.111 47.6272 25.4123 47.6272 25.823V27.855H46.3792ZM51.898 27.919C51.4074 27.919 50.9754 27.823 50.602 27.631C50.234 27.439 49.9487 27.1776 49.746 26.847C49.5434 26.511 49.442 26.1296 49.442 25.703C49.442 25.271 49.5407 24.8896 49.738 24.559C49.9407 24.223 50.2154 23.9616 50.562 23.775C50.9087 23.583 51.3007 23.487 51.738 23.487C52.1594 23.487 52.538 23.5776 52.874 23.759C53.2154 23.935 53.4847 24.191 53.682 24.527C53.8794 24.8576 53.978 25.255 53.978 25.719C53.978 25.767 53.9754 25.823 53.97 25.887C53.9647 25.9456 53.9594 26.0016 53.954 26.055H50.458V25.327H53.298L52.818 25.543C52.818 25.319 52.7727 25.1243 52.682 24.959C52.5914 24.7936 52.466 24.6656 52.306 24.575C52.146 24.479 51.9594 24.431 51.746 24.431C51.5327 24.431 51.3434 24.479 51.178 24.575C51.018 24.6656 50.8927 24.7963 50.802 24.967C50.7114 25.1323 50.666 25.3296 50.666 25.559V25.751C50.666 25.9856 50.7167 26.1936 50.818 26.375C50.9247 26.551 51.0714 26.687 51.258 26.783C51.45 26.8736 51.674 26.919 51.93 26.919C52.1594 26.919 52.3594 26.8843 52.53 26.815C52.706 26.7456 52.866 26.6416 53.01 26.503L53.674 27.223C53.4767 27.447 53.2287 27.6203 52.93 27.743C52.6314 27.8603 52.2874 27.919 51.898 27.919ZM56.2569 27.919C55.8889 27.919 55.5342 27.8763 55.1929 27.791C54.8569 27.7003 54.5902 27.5883 54.3929 27.455L54.8089 26.559C55.0062 26.6816 55.2382 26.783 55.5049 26.863C55.7769 26.9376 56.0436 26.975 56.3049 26.975C56.5929 26.975 56.7956 26.9403 56.9129 26.871C57.0356 26.8016 57.0969 26.7056 57.0969 26.583C57.0969 26.4816 57.0489 26.407 56.9529 26.359C56.8622 26.3056 56.7396 26.2656 56.5849 26.239C56.4302 26.2123 56.2596 26.1856 56.0729 26.159C55.8916 26.1323 55.7076 26.0976 55.5209 26.055C55.3342 26.007 55.1636 25.9376 55.0089 25.847C54.8542 25.7563 54.7289 25.6336 54.6329 25.479C54.5422 25.3243 54.4969 25.1243 54.4969 24.879C54.4969 24.607 54.5742 24.367 54.7289 24.159C54.8889 23.951 55.1182 23.7883 55.4169 23.671C55.7156 23.5483 56.0729 23.487 56.4889 23.487C56.7822 23.487 57.0809 23.519 57.3849 23.583C57.6889 23.647 57.9422 23.7403 58.1449 23.863L57.7289 24.751C57.5209 24.6283 57.3102 24.5456 57.0969 24.503C56.8889 24.455 56.6862 24.431 56.4889 24.431C56.2116 24.431 56.0089 24.4683 55.8809 24.543C55.7529 24.6176 55.6889 24.7136 55.6889 24.831C55.6889 24.9376 55.7342 25.0176 55.8249 25.071C55.9209 25.1243 56.0462 25.167 56.2009 25.199C56.3556 25.231 56.5236 25.2603 56.7049 25.287C56.8916 25.3083 57.0782 25.343 57.2649 25.391C57.4516 25.439 57.6196 25.5083 57.7689 25.599C57.9236 25.6843 58.0489 25.8043 58.1449 25.959C58.2409 26.1083 58.2889 26.3056 58.2889 26.551C58.2889 26.8176 58.2089 27.055 58.0489 27.263C57.8889 27.4656 57.6569 27.6256 57.3529 27.743C57.0542 27.8603 56.6889 27.919 56.2569 27.919ZM60.5069 27.919C60.1389 27.919 59.7842 27.8763 59.4429 27.791C59.1069 27.7003 58.8402 27.5883 58.6429 27.455L59.0589 26.559C59.2562 26.6816 59.4882 26.783 59.7549 26.863C60.0269 26.9376 60.2936 26.975 60.5549 26.975C60.8429 26.975 61.0456 26.9403 61.1629 26.871C61.2856 26.8016 61.3469 26.7056 61.3469 26.583C61.3469 26.4816 61.2989 26.407 61.2029 26.359C61.1122 26.3056 60.9896 26.2656 60.8349 26.239C60.6802 26.2123 60.5096 26.1856 60.3229 26.159C60.1416 26.1323 59.9576 26.0976 59.7709 26.055C59.5842 26.007 59.4136 25.9376 59.2589 25.847C59.1042 25.7563 58.9789 25.6336 58.8829 25.479C58.7922 25.3243 58.7469 25.1243 58.7469 24.879C58.7469 24.607 58.8242 24.367 58.9789 24.159C59.1389 23.951 59.3682 23.7883 59.6669 23.671C59.9656 23.5483 60.3229 23.487 60.7389 23.487C61.0322 23.487 61.3309 23.519 61.6349 23.583C61.9389 23.647 62.1922 23.7403 62.3949 23.863L61.9789 24.751C61.7709 24.6283 61.5602 24.5456 61.3469 24.503C61.1389 24.455 60.9362 24.431 60.7389 24.431C60.4616 24.431 60.2589 24.4683 60.1309 24.543C60.0029 24.6176 59.9389 24.7136 59.9389 24.831C59.9389 24.9376 59.9842 25.0176 60.0749 25.071C60.1709 25.1243 60.2962 25.167 60.4509 25.199C60.6056 25.231 60.7736 25.2603 60.9549 25.287C61.1416 25.3083 61.3282 25.343 61.5149 25.391C61.7016 25.439 61.8696 25.5083 62.0189 25.599C62.1736 25.6843 62.2989 25.8043 62.3949 25.959C62.4909 26.1083 62.5389 26.3056 62.5389 26.551C62.5389 26.8176 62.4589 27.055 62.2989 27.263C62.1389 27.4656 61.9069 27.6256 61.6029 27.743C61.3042 27.8603 60.9389 27.919 60.5069 27.919ZM68.2145 27.855V27.015L68.1345 26.831V25.327C68.1345 25.0603 68.0519 24.8523 67.8865 24.703C67.7265 24.5536 67.4785 24.479 67.1425 24.479C66.9132 24.479 66.6865 24.5163 66.4625 24.591C66.2439 24.6603 66.0572 24.7563 65.9025 24.879L65.4545 24.007C65.6892 23.8416 65.9719 23.7136 66.3025 23.623C66.6332 23.5323 66.9692 23.487 67.3105 23.487C67.9665 23.487 68.4759 23.6416 68.8385 23.951C69.2012 24.2603 69.3825 24.743 69.3825 25.399V27.855H68.2145ZM66.9025 27.919C66.5665 27.919 66.2785 27.863 66.0385 27.751C65.7985 27.6336 65.6145 27.4763 65.4865 27.279C65.3585 27.0816 65.2945 26.8603 65.2945 26.615C65.2945 26.359 65.3559 26.135 65.4785 25.943C65.6065 25.751 65.8065 25.6016 66.0785 25.495C66.3505 25.383 66.7052 25.327 67.1425 25.327H68.2865V26.055H67.2785C66.9852 26.055 66.7825 26.103 66.6705 26.199C66.5639 26.295 66.5105 26.415 66.5105 26.559C66.5105 26.719 66.5719 26.847 66.6945 26.943C66.8225 27.0336 66.9959 27.079 67.2145 27.079C67.4225 27.079 67.6092 27.031 67.7745 26.935C67.9399 26.8336 68.0599 26.687 68.1345 26.495L68.3265 27.071C68.2359 27.3483 68.0705 27.559 67.8305 27.703C67.5905 27.847 67.2812 27.919 66.9025 27.919ZM73.128 23.487C73.4694 23.487 73.7734 23.5563 74.04 23.695C74.312 23.8283 74.5254 24.0363 74.68 24.319C74.8347 24.5963 74.912 24.9536 74.912 25.391V27.855H73.664V25.583C73.664 25.2363 73.5867 24.9803 73.432 24.815C73.2827 24.6496 73.0694 24.567 72.792 24.567C72.5947 24.567 72.416 24.6096 72.256 24.695C72.1014 24.775 71.9787 24.9003 71.888 25.071C71.8027 25.2416 71.76 25.4603 71.76 25.727V27.855H70.512V23.551H71.704V24.743L71.48 24.383C71.6347 24.095 71.856 23.8736 72.144 23.719C72.432 23.5643 72.76 23.487 73.128 23.487ZM76.0433 27.855V23.551H77.2913V27.855H76.0433ZM76.6673 22.951C76.438 22.951 76.2513 22.8843 76.1073 22.751C75.9633 22.6176 75.8913 22.4523 75.8913 22.255C75.8913 22.0576 75.9633 21.8923 76.1073 21.759C76.2513 21.6256 76.438 21.559 76.6673 21.559C76.8966 21.559 77.0833 21.623 77.2273 21.751C77.3713 21.8736 77.4433 22.0336 77.4433 22.231C77.4433 22.439 77.3713 22.6123 77.2273 22.751C77.0886 22.8843 76.902 22.951 76.6673 22.951ZM83.9615 23.487C84.3029 23.487 84.6042 23.5563 84.8655 23.695C85.1322 23.8283 85.3402 24.0363 85.4895 24.319C85.6442 24.5963 85.7215 24.9536 85.7215 25.391V27.855H84.4735V25.583C84.4735 25.2363 84.4015 24.9803 84.2575 24.815C84.1135 24.6496 83.9109 24.567 83.6495 24.567C83.4682 24.567 83.3055 24.6096 83.1615 24.695C83.0175 24.775 82.9055 24.8976 82.8255 25.063C82.7455 25.2283 82.7055 25.439 82.7055 25.695V27.855H81.4575V25.583C81.4575 25.2363 81.3855 24.9803 81.2415 24.815C81.1029 24.6496 80.9029 24.567 80.6415 24.567C80.4602 24.567 80.2975 24.6096 80.1535 24.695C80.0095 24.775 79.8975 24.8976 79.8175 25.063C79.7375 25.2283 79.6975 25.439 79.6975 25.695V27.855H78.4495V23.551H79.6415V24.727L79.4175 24.383C79.5669 24.0896 79.7775 23.8683 80.0495 23.719C80.3269 23.5643 80.6415 23.487 80.9935 23.487C81.3882 23.487 81.7322 23.5883 82.0255 23.791C82.3242 23.9883 82.5215 24.2923 82.6175 24.703L82.1775 24.583C82.3215 24.247 82.5509 23.9803 82.8655 23.783C83.1855 23.5856 83.5509 23.487 83.9615 23.487ZM89.4802 27.855V27.015L89.4002 26.831V25.327C89.4002 25.0603 89.3175 24.8523 89.1522 24.703C88.9922 24.5536 88.7442 24.479 88.4082 24.479C88.1788 24.479 87.9522 24.5163 87.7282 24.591C87.5095 24.6603 87.3228 24.7563 87.1682 24.879L86.7202 24.007C86.9548 23.8416 87.2375 23.7136 87.5682 23.623C87.8988 23.5323 88.2348 23.487 88.5762 23.487C89.2322 23.487 89.7415 23.6416 90.1042 23.951C90.4668 24.2603 90.6482 24.743 90.6482 25.399V27.855H89.4802ZM88.1682 27.919C87.8322 27.919 87.5442 27.863 87.3042 27.751C87.0642 27.6336 86.8802 27.4763 86.7522 27.279C86.6242 27.0816 86.5602 26.8603 86.5602 26.615C86.5602 26.359 86.6215 26.135 86.7442 25.943C86.8722 25.751 87.0722 25.6016 87.3442 25.495C87.6162 25.383 87.9708 25.327 88.4082 25.327H89.5522V26.055H88.5442C88.2508 26.055 88.0482 26.103 87.9362 26.199C87.8295 26.295 87.7762 26.415 87.7762 26.559C87.7762 26.719 87.8375 26.847 87.9602 26.943C88.0882 27.0336 88.2615 27.079 88.4802 27.079C88.6882 27.079 88.8748 27.031 89.0402 26.935C89.2055 26.8336 89.3255 26.687 89.4002 26.495L89.5922 27.071C89.5015 27.3483 89.3362 27.559 89.0962 27.703C88.8562 27.847 88.5468 27.919 88.1682 27.919ZM93.5377 27.919C93.031 27.919 92.6363 27.791 92.3537 27.535C92.071 27.2736 91.9297 26.887 91.9297 26.375V22.599H93.1777V26.359C93.1777 26.5403 93.2257 26.6816 93.3217 26.783C93.4177 26.879 93.5483 26.927 93.7137 26.927C93.911 26.927 94.079 26.8736 94.2177 26.767L94.5537 27.647C94.4257 27.7376 94.271 27.807 94.0897 27.855C93.9137 27.8976 93.7297 27.919 93.5377 27.919ZM91.2657 24.607V23.647H94.2497V24.607H91.2657ZM97.2574 27.919C96.7667 27.919 96.3347 27.823 95.9614 27.631C95.5934 27.439 95.3081 27.1776 95.1054 26.847C94.9027 26.511 94.8014 26.1296 94.8014 25.703C94.8014 25.271 94.9001 24.8896 95.0974 24.559C95.3001 24.223 95.5747 23.9616 95.9214 23.775C96.2681 23.583 96.6601 23.487 97.0974 23.487C97.5187 23.487 97.8974 23.5776 98.2334 23.759C98.5747 23.935 98.8441 24.191 99.0414 24.527C99.2387 24.8576 99.3374 25.255 99.3374 25.719C99.3374 25.767 99.3347 25.823 99.3294 25.887C99.3241 25.9456 99.3187 26.0016 99.3134 26.055H95.8174V25.327H98.6574L98.1774 25.543C98.1774 25.319 98.1321 25.1243 98.0414 24.959C97.9507 24.7936 97.8254 24.6656 97.6654 24.575C97.5054 24.479 97.3187 24.431 97.1054 24.431C96.8921 24.431 96.7027 24.479 96.5374 24.575C96.3774 24.6656 96.2521 24.7963 96.1614 24.967C96.0707 25.1323 96.0254 25.3296 96.0254 25.559V25.751C96.0254 25.9856 96.0761 26.1936 96.1774 26.375C96.2841 26.551 96.4307 26.687 96.6174 26.783C96.8094 26.8736 97.0334 26.919 97.2894 26.919C97.5187 26.919 97.7187 26.8843 97.8894 26.815C98.0654 26.7456 98.2254 26.6416 98.3694 26.503L99.0334 27.223C98.8361 27.447 98.5881 27.6203 98.2894 27.743C97.9907 27.8603 97.6467 27.919 97.2574 27.919ZM104.978 27.919C104.599 27.919 104.274 27.839 104.002 27.679C103.73 27.519 103.522 27.2763 103.378 26.951C103.234 26.6203 103.162 26.2043 103.162 25.703C103.162 25.1963 103.237 24.7803 103.386 24.455C103.541 24.1296 103.754 23.887 104.026 23.727C104.298 23.567 104.615 23.487 104.978 23.487C105.383 23.487 105.746 23.5776 106.066 23.759C106.391 23.9403 106.647 24.1963 106.834 24.527C107.026 24.8576 107.122 25.2496 107.122 25.703C107.122 26.151 107.026 26.5403 106.834 26.871C106.647 27.2016 106.391 27.4603 106.066 27.647C105.746 27.8283 105.383 27.919 104.978 27.919ZM102.434 27.855V21.919H103.682V24.423L103.602 25.695L103.626 26.975V27.855H102.434ZM104.762 26.895C104.97 26.895 105.154 26.847 105.314 26.751C105.479 26.655 105.61 26.519 105.706 26.343C105.807 26.1616 105.858 25.9483 105.858 25.703C105.858 25.4523 105.807 25.239 105.706 25.063C105.61 24.887 105.479 24.751 105.314 24.655C105.154 24.559 104.97 24.511 104.762 24.511C104.554 24.511 104.367 24.559 104.202 24.655C104.037 24.751 103.906 24.887 103.81 25.063C103.714 25.239 103.666 25.4523 103.666 25.703C103.666 25.9483 103.714 26.1616 103.81 26.343C103.906 26.519 104.037 26.655 104.202 26.751C104.367 26.847 104.554 26.895 104.762 26.895ZM109.773 27.919C109.416 27.919 109.096 27.8496 108.813 27.711C108.536 27.5723 108.32 27.3616 108.165 27.079C108.011 26.791 107.933 26.4256 107.933 25.983V23.551H109.181V25.799C109.181 26.1563 109.256 26.4203 109.405 26.591C109.56 26.7563 109.776 26.839 110.053 26.839C110.245 26.839 110.416 26.799 110.565 26.719C110.715 26.6336 110.832 26.5056 110.917 26.335C111.003 26.159 111.045 25.9403 111.045 25.679V23.551H112.293V27.855H111.109V26.671L111.325 27.015C111.181 27.3136 110.968 27.5403 110.685 27.695C110.408 27.8443 110.104 27.919 109.773 27.919ZM115.21 27.919C114.703 27.919 114.308 27.791 114.026 27.535C113.743 27.2736 113.602 26.887 113.602 26.375V22.599H114.85V26.359C114.85 26.5403 114.898 26.6816 114.994 26.783C115.09 26.879 115.22 26.927 115.386 26.927C115.583 26.927 115.751 26.8736 115.89 26.767L116.226 27.647C116.098 27.7376 115.943 27.807 115.762 27.855C115.586 27.8976 115.402 27.919 115.21 27.919ZM112.938 24.607V23.647H115.922V24.607H112.938ZM118.592 27.919C118.086 27.919 117.691 27.791 117.408 27.535C117.126 27.2736 116.984 26.887 116.984 26.375V22.599H118.232V26.359C118.232 26.5403 118.28 26.6816 118.376 26.783C118.472 26.879 118.603 26.927 118.768 26.927C118.966 26.927 119.134 26.8736 119.272 26.767L119.608 27.647C119.48 27.7376 119.326 27.807 119.144 27.855C118.968 27.8976 118.784 27.919 118.592 27.919ZM116.32 24.607V23.647H119.304V24.607H116.32ZM122.224 27.919C121.765 27.919 121.357 27.823 121 27.631C120.648 27.439 120.368 27.1776 120.16 26.847C119.957 26.511 119.856 26.1296 119.856 25.703C119.856 25.271 119.957 24.8896 120.16 24.559C120.368 24.223 120.648 23.9616 121 23.775C121.357 23.583 121.765 23.487 122.224 23.487C122.677 23.487 123.083 23.583 123.44 23.775C123.797 23.9616 124.077 24.2203 124.28 24.551C124.483 24.8816 124.584 25.2656 124.584 25.703C124.584 26.1296 124.483 26.511 124.28 26.847C124.077 27.1776 123.797 27.439 123.44 27.631C123.083 27.823 122.677 27.919 122.224 27.919ZM122.224 26.895C122.432 26.895 122.619 26.847 122.784 26.751C122.949 26.655 123.08 26.519 123.176 26.343C123.272 26.1616 123.32 25.9483 123.32 25.703C123.32 25.4523 123.272 25.239 123.176 25.063C123.08 24.887 122.949 24.751 122.784 24.655C122.619 24.559 122.432 24.511 122.224 24.511C122.016 24.511 121.829 24.559 121.664 24.655C121.499 24.751 121.365 24.887 121.264 25.063C121.168 25.239 121.12 25.4523 121.12 25.703C121.12 25.9483 121.168 26.1616 121.264 26.343C121.365 26.519 121.499 26.655 121.664 26.751C121.829 26.847 122.016 26.895 122.224 26.895ZM128.034 23.487C128.376 23.487 128.68 23.5563 128.946 23.695C129.218 23.8283 129.432 24.0363 129.586 24.319C129.741 24.5963 129.818 24.9536 129.818 25.391V27.855H128.57V25.583C128.57 25.2363 128.493 24.9803 128.338 24.815C128.189 24.6496 127.976 24.567 127.698 24.567C127.501 24.567 127.322 24.6096 127.162 24.695C127.008 24.775 126.885 24.9003 126.794 25.071C126.709 25.2416 126.666 25.4603 126.666 25.727V27.855H125.418V23.551H126.61V24.743L126.386 24.383C126.541 24.095 126.762 23.8736 127.05 23.719C127.338 23.5643 127.666 23.487 128.034 23.487ZM131.422 27.919C131.208 27.919 131.024 27.847 130.87 27.703C130.72 27.5536 130.646 27.3643 130.646 27.135C130.646 26.9056 130.72 26.7216 130.87 26.583C131.024 26.439 131.208 26.367 131.422 26.367C131.64 26.367 131.824 26.439 131.974 26.583C132.123 26.7216 132.198 26.9056 132.198 27.135C132.198 27.3643 132.123 27.5536 131.974 27.703C131.824 27.847 131.64 27.919 131.422 27.919Z" fill="#333333"/>
<path fill-rule="evenodd" clip-rule="evenodd" d="M158.801 47.6464C158.801 44.822 157.701 42.1132 155.742 40.116C153.783 38.1189 151.127 36.9968 148.357 36.9968C122.678 36.9968 66.8921 36.9998 66.8921 36.9998L62.2991 41.2502H46.4223L41.8261 36.9998H27.2042C24.4342 36.9998 21.7777 38.1218 19.8191 40.119C17.8604 42.1162 16.76 44.825 16.76 47.6494C16.76 47.6525 16.76 47.6557 16.76 47.6588C16.76 50.4833 17.8604 53.192 19.8191 55.1892C21.7777 57.1863 24.4342 58.3084 27.2042 58.3084C34.0833 58.3084 41.8261 58.3084 41.8261 58.3084L46.4223 62.5587H62.2959L66.8921 58.3084L148.357 58.3055C151.127 58.3055 153.783 57.1834 155.742 55.1862C157.701 53.1891 158.801 50.4803 158.801 47.6558C158.801 47.6527 158.801 47.6495 158.801 47.6464Z" fill="#30DCFF"/>
<path fill-rule="evenodd" clip-rule="evenodd" d="M158.801 47.6496C158.801 44.8251 157.701 42.1164 155.742 40.1192C153.783 38.122 151.127 37 148.357 37C122.678 37 66.8921 37 66.8921 37L62.2991 41.2504H46.4223L41.8261 37H27.2042C24.4342 37 21.7777 38.122 19.8191 40.1192C17.8604 42.1164 16.76 44.8251 16.76 47.6496C16.76 47.6527 16.76 47.6543 16.76 47.6543H19.2666C19.2666 43.0488 22.9282 39.3151 27.4449 39.3151C33.5352 39.3151 40.8003 39.3151 40.8003 39.3151L45.3965 43.5655H63.3405L67.9367 39.3151H148.117C152.633 39.3151 156.295 43.0487 156.295 47.6542L158.801 47.6543V47.6496Z" fill="#93EDFF"/>
<path fill-rule="evenodd" clip-rule="evenodd" d="M158.801 47.6519H156.294V47.6525C156.294 49.8632 155.433 51.9835 153.9 53.5467C152.367 55.11 150.288 55.9882 148.12 55.9882C124.444 55.9882 65.8539 55.9882 65.8539 55.9882L61.2577 60.2385H47.4606L42.8644 55.9882H27.4416C22.9267 55.9882 19.2666 52.2562 19.2666 47.6525V47.6519H16.76V47.6566C16.76 50.481 17.8604 53.1898 19.8191 55.187C21.7777 57.1841 24.4342 58.3062 27.2042 58.3062C34.0833 58.3062 41.8261 58.3062 41.8261 58.3062L46.4223 62.5565H62.2959L66.8921 58.3062H148.357C154.125 58.3062 158.801 53.5384 158.801 47.6569C158.801 47.6535 158.801 47.6519 158.801 47.6519Z" fill="#08A0BF"/>
<path d="M25.664 51.3352V45.7352H28.088C28.5893 45.7352 29.0213 45.8179 29.384 45.9832C29.7467 46.1432 30.0267 46.3752 30.224 46.6792C30.4213 46.9832 30.52 47.3459 30.52 47.7672C30.52 48.1832 30.4213 48.5432 30.224 48.8472C30.0267 49.1459 29.7467 49.3752 29.384 49.5352C29.0213 49.6952 28.5893 49.7752 28.088 49.7752H26.384L26.96 49.2072V51.3352H25.664ZM29.224 51.3352L27.824 49.3032H29.208L30.624 51.3352H29.224ZM26.96 49.3512L26.384 48.7432H28.016C28.416 48.7432 28.7147 48.6579 28.912 48.4872C29.1093 48.3112 29.208 48.0712 29.208 47.7672C29.208 47.4579 29.1093 47.2179 28.912 47.0472C28.7147 46.8765 28.416 46.7912 28.016 46.7912H26.384L26.96 46.1752V49.3512ZM31.4588 51.3352V47.0312H32.7068V51.3352H31.4588ZM32.0828 46.4312C31.8535 46.4312 31.6668 46.3645 31.5228 46.2312C31.3788 46.0979 31.3068 45.9325 31.3068 45.7352C31.3068 45.5379 31.3788 45.3725 31.5228 45.2392C31.6668 45.1059 31.8535 45.0392 32.0828 45.0392C32.3121 45.0392 32.4988 45.1032 32.6428 45.2312C32.7868 45.3539 32.8588 45.5139 32.8588 45.7112C32.8588 45.9192 32.7868 46.0925 32.6428 46.2312C32.5041 46.3645 32.3175 46.4312 32.0828 46.4312ZM35.8891 52.9512C35.4837 52.9512 35.0917 52.9005 34.7131 52.7992C34.3397 52.7032 34.0277 52.5565 33.7771 52.3592L34.2731 51.4632C34.4544 51.6125 34.6837 51.7299 34.9611 51.8152C35.2437 51.9059 35.5211 51.9512 35.7931 51.9512C36.2357 51.9512 36.5557 51.8525 36.7531 51.6552C36.9557 51.4579 37.0571 51.1645 37.0571 50.7752V50.1272L37.1371 49.0472L37.1211 47.9592V47.0312H38.3051V50.6152C38.3051 51.4152 38.0971 52.0045 37.6811 52.3832C37.2651 52.7619 36.6677 52.9512 35.8891 52.9512ZM35.6971 51.1272C35.2971 51.1272 34.9344 51.0419 34.6091 50.8712C34.2891 50.6952 34.0304 50.4525 33.8331 50.1432C33.6411 49.8285 33.5451 49.4632 33.5451 49.0472C33.5451 48.6259 33.6411 48.2605 33.8331 47.9512C34.0304 47.6365 34.2891 47.3939 34.6091 47.2232C34.9344 47.0525 35.2971 46.9672 35.6971 46.9672C36.0597 46.9672 36.3797 47.0419 36.6571 47.1912C36.9344 47.3352 37.1504 47.5619 37.3051 47.8712C37.4597 48.1752 37.5371 48.5672 37.5371 49.0472C37.5371 49.5219 37.4597 49.9139 37.3051 50.2232C37.1504 50.5272 36.9344 50.7539 36.6571 50.9032C36.3797 51.0525 36.0597 51.1272 35.6971 51.1272ZM35.9451 50.1032C36.1637 50.1032 36.3584 50.0605 36.5291 49.9752C36.6997 49.8845 36.8331 49.7592 36.9291 49.5992C37.0251 49.4392 37.0731 49.2552 37.0731 49.0472C37.0731 48.8339 37.0251 48.6499 36.9291 48.4952C36.8331 48.3352 36.6997 48.2125 36.5291 48.1272C36.3584 48.0365 36.1637 47.9912 35.9451 47.9912C35.7264 47.9912 35.5317 48.0365 35.3611 48.1272C35.1904 48.2125 35.0544 48.3352 34.9531 48.4952C34.8571 48.6499 34.8091 48.8339 34.8091 49.0472C34.8091 49.2552 34.8571 49.4392 34.9531 49.5992C35.0544 49.7592 35.1904 49.8845 35.3611 49.9752C35.5317 50.0605 35.7264 50.1032 35.9451 50.1032ZM42.0826 46.9672C42.424 46.9672 42.728 47.0365 42.9946 47.1752C43.2666 47.3085 43.48 47.5165 43.6346 47.7992C43.7893 48.0765 43.8666 48.4339 43.8666 48.8712V51.3352H42.6186V49.0632C42.6186 48.7165 42.5413 48.4605 42.3866 48.2952C42.2373 48.1299 42.024 48.0472 41.7466 48.0472C41.5493 48.0472 41.3706 48.0899 41.2106 48.1752C41.056 48.2552 40.9333 48.3805 40.8426 48.5512C40.7573 48.7219 40.7146 48.9405 40.7146 49.2072V51.3352H39.4666V45.3992H40.7146V48.2232L40.4346 47.8632C40.5893 47.5752 40.8106 47.3539 41.0986 47.1992C41.3866 47.0445 41.7146 46.9672 42.0826 46.9672ZM46.7579 51.3992C46.2512 51.3992 45.8565 51.2712 45.5739 51.0152C45.2912 50.7539 45.1499 50.3672 45.1499 49.8552V46.0792H46.3979V49.8392C46.3979 50.0205 46.4459 50.1619 46.5419 50.2632C46.6379 50.3592 46.7685 50.4072 46.9339 50.4072C47.1312 50.4072 47.2992 50.3539 47.4379 50.2472L47.7739 51.1272C47.6459 51.2179 47.4912 51.2872 47.3099 51.3352C47.1339 51.3779 46.9499 51.3992 46.7579 51.3992ZM44.4859 48.0872V47.1272H47.4699V48.0872H44.4859ZM53.3801 51.3352V50.4952L53.3001 50.3112V48.8072C53.3001 48.5405 53.2174 48.3325 53.0521 48.1832C52.8921 48.0339 52.6441 47.9592 52.3081 47.9592C52.0787 47.9592 51.8521 47.9965 51.6281 48.0712C51.4094 48.1405 51.2227 48.2365 51.0681 48.3592L50.6201 47.4872C50.8547 47.3219 51.1374 47.1939 51.4681 47.1032C51.7987 47.0125 52.1347 46.9672 52.4761 46.9672C53.1321 46.9672 53.6414 47.1219 54.0041 47.4312C54.3667 47.7405 54.5481 48.2232 54.5481 48.8792V51.3352H53.3801ZM52.0681 51.3992C51.7321 51.3992 51.4441 51.3432 51.2041 51.2312C50.9641 51.1139 50.7801 50.9565 50.6521 50.7592C50.5241 50.5619 50.4601 50.3405 50.4601 50.0952C50.4601 49.8392 50.5214 49.6152 50.6441 49.4232C50.7721 49.2312 50.9721 49.0819 51.2441 48.9752C51.5161 48.8632 51.8707 48.8072 52.3081 48.8072H53.4521V49.5352H52.4441C52.1507 49.5352 51.9481 49.5832 51.8361 49.6792C51.7294 49.7752 51.6761 49.8952 51.6761 50.0392C51.6761 50.1992 51.7374 50.3272 51.8601 50.4232C51.9881 50.5139 52.1614 50.5592 52.3801 50.5592C52.5881 50.5592 52.7747 50.5112 52.9401 50.4152C53.1054 50.3139 53.2254 50.1672 53.3001 49.9752L53.4921 50.5512C53.4014 50.8285 53.2361 51.0392 52.9961 51.1832C52.7561 51.3272 52.4467 51.3992 52.0681 51.3992ZM55.6776 51.3352V47.0312H56.8696V48.2472L56.7016 47.8952C56.8296 47.5912 57.0349 47.3619 57.3176 47.2072C57.6002 47.0472 57.9442 46.9672 58.3496 46.9672V48.1192C58.2962 48.1139 58.2482 48.1112 58.2056 48.1112C58.1629 48.1059 58.1176 48.1032 58.0696 48.1032C57.7282 48.1032 57.4509 48.2019 57.2376 48.3992C57.0296 48.5912 56.9256 48.8925 56.9256 49.3032V51.3352H55.6776ZM64.6114 46.9672C64.9528 46.9672 65.2541 47.0365 65.5154 47.1752C65.7821 47.3085 65.9901 47.5165 66.1394 47.7992C66.2941 48.0765 66.3714 48.4339 66.3714 48.8712V51.3352H65.1234V49.0632C65.1234 48.7165 65.0514 48.4605 64.9074 48.2952C64.7634 48.1299 64.5608 48.0472 64.2994 48.0472C64.1181 48.0472 63.9554 48.0899 63.8114 48.1752C63.6674 48.2552 63.5554 48.3779 63.4754 48.5432C63.3954 48.7085 63.3554 48.9192 63.3554 49.1752V51.3352H62.1074V49.0632C62.1074 48.7165 62.0354 48.4605 61.8914 48.2952C61.7528 48.1299 61.5528 48.0472 61.2914 48.0472C61.1101 48.0472 60.9474 48.0899 60.8034 48.1752C60.6594 48.2552 60.5474 48.3779 60.4674 48.5432C60.3874 48.7085 60.3474 48.9192 60.3474 49.1752V51.3352H59.0994V47.0312H60.2914V48.2072L60.0674 47.8632C60.2168 47.5699 60.4274 47.3485 60.6994 47.1992C60.9768 47.0445 61.2914 46.9672 61.6434 46.9672C62.0381 46.9672 62.3821 47.0685 62.6754 47.2712C62.9741 47.4685 63.1714 47.7725 63.2674 48.1832L62.8274 48.0632C62.9714 47.7272 63.2008 47.4605 63.5154 47.2632C63.8354 47.0659 64.2008 46.9672 64.6114 46.9672ZM71.5717 51.3992C71.2144 51.3992 70.8944 51.3299 70.6117 51.1912C70.3344 51.0525 70.1184 50.8419 69.9637 50.5592C69.809 50.2712 69.7317 49.9059 69.7317 49.4632V47.0312H70.9797V49.2792C70.9797 49.6365 71.0544 49.9005 71.2037 50.0712C71.3584 50.2365 71.5744 50.3192 71.8517 50.3192C72.0437 50.3192 72.2144 50.2792 72.3637 50.1992C72.513 50.1139 72.6304 49.9859 72.7157 49.8152C72.801 49.6392 72.8437 49.4205 72.8437 49.1592V47.0312H74.0917V51.3352H72.9077V50.1512L73.1237 50.4952C72.9797 50.7939 72.7664 51.0205 72.4837 51.1752C72.2064 51.3245 71.9024 51.3992 71.5717 51.3992ZM77.7919 51.3992C77.4292 51.3992 77.1119 51.3192 76.8399 51.1592C76.5679 50.9992 76.3545 50.7565 76.1999 50.4312C76.0505 50.1005 75.9759 49.6845 75.9759 49.1832C75.9759 48.6765 76.0479 48.2605 76.1919 47.9352C76.3359 47.6099 76.5439 47.3672 76.8159 47.2072C77.0879 47.0472 77.4132 46.9672 77.7919 46.9672C78.1972 46.9672 78.5599 47.0605 78.8799 47.2472C79.2052 47.4285 79.4612 47.6845 79.6479 48.0152C79.8399 48.3459 79.9359 48.7352 79.9359 49.1832C79.9359 49.6365 79.8399 50.0285 79.6479 50.3592C79.4612 50.6899 79.2052 50.9459 78.8799 51.1272C78.5599 51.3085 78.1972 51.3992 77.7919 51.3992ZM75.2479 52.8872V47.0312H76.4399V47.9112L76.4159 49.1912L76.4959 50.4632V52.8872H75.2479ZM77.5759 50.3752C77.7839 50.3752 77.9679 50.3272 78.1279 50.2312C78.2932 50.1352 78.4239 49.9992 78.5199 49.8232C78.6212 49.6419 78.6719 49.4285 78.6719 49.1832C78.6719 48.9325 78.6212 48.7192 78.5199 48.5432C78.4239 48.3672 78.2932 48.2312 78.1279 48.1352C77.9679 48.0392 77.7839 47.9912 77.5759 47.9912C77.3679 47.9912 77.1812 48.0392 77.0159 48.1352C76.8505 48.2312 76.7199 48.3672 76.6239 48.5432C76.5279 48.7192 76.4799 48.9325 76.4799 49.1832C76.4799 49.4285 76.5279 49.6419 76.6239 49.8232C76.7199 49.9992 76.8505 50.1352 77.0159 50.2312C77.1812 50.3272 77.3679 50.3752 77.5759 50.3752Z" fill="#333333"/>
<path fill-rule="evenodd" clip-rule="evenodd" d="M159.041 68.9816C159.041 66.1572 157.941 63.4484 155.982 61.4513C154.023 59.4541 151.367 58.332 148.597 58.332C122.918 58.332 67.1321 58.335 67.1321 58.335L62.5391 62.5854H46.6623L42.0661 58.335H27.4442C24.6742 58.335 22.0177 59.457 20.0591 61.4542C18.1004 63.4514 17 66.1602 17 68.9846C17 68.9877 17 68.9909 17 68.994C17 71.8185 18.1004 74.5272 20.0591 76.5244C22.0177 78.5215 24.6742 79.6436 27.4442 79.6436C34.3233 79.6436 42.0661 79.6436 42.0661 79.6436L46.6623 83.8939H62.5359L67.1321 79.6436L148.597 79.6407C151.367 79.6407 154.023 78.5186 155.982 76.5215C157.941 74.5243 159.041 71.8155 159.041 68.9911C159.041 68.9879 159.041 68.9847 159.041 68.9816Z" fill="#30DCFF"/>
<path fill-rule="evenodd" clip-rule="evenodd" d="M159.041 68.9848C159.041 66.1604 157.941 63.4516 155.982 61.4544C154.023 59.4572 151.367 58.3352 148.597 58.3352C122.918 58.3352 67.1321 58.3352 67.1321 58.3352L62.5391 62.5856H46.6623L42.0661 58.3352H27.4442C24.6742 58.3352 22.0177 59.4572 20.0591 61.4544C18.1004 63.4516 17 66.1604 17 68.9848C17 68.9879 17 68.9895 17 68.9895H19.5066C19.5066 64.384 23.1682 60.6503 27.6849 60.6503C33.7752 60.6503 41.0403 60.6503 41.0403 60.6503L45.6365 64.9007H63.5804L68.1767 60.6503H148.357C152.873 60.6503 156.535 64.3839 156.535 68.9894L159.041 68.9895V68.9848Z" fill="#93EDFF"/>
<path fill-rule="evenodd" clip-rule="evenodd" d="M159.041 68.9871H156.534V68.9877C156.534 71.1984 155.673 73.3187 154.14 74.8819C152.607 76.4452 150.528 77.3234 148.36 77.3234C124.684 77.3234 66.0939 77.3234 66.0939 77.3234L61.4977 81.5737H47.7006L43.1044 77.3234H27.6815C23.1667 77.3234 19.5066 73.5914 19.5066 68.9877V68.9871H17V68.9918C17 71.8162 18.1004 74.525 20.0591 76.5222C22.0177 78.5193 24.6742 79.6414 27.4442 79.6414C34.3233 79.6414 42.0661 79.6414 42.0661 79.6414L46.6623 83.8917H62.5359L67.1321 79.6414H148.597C154.365 79.6414 159.041 74.8736 159.041 68.9921C159.041 68.9887 159.041 68.9871 159.041 68.9871Z" fill="#08A0BF"/>
<path d="M25.904 72.6704V67.0704H27.2V71.6144H30.008V72.6704H25.904ZM32.7567 72.7344C32.266 72.7344 31.834 72.6384 31.4607 72.4464C31.0927 72.2544 30.8073 71.9931 30.6047 71.6624C30.402 71.3264 30.3007 70.9451 30.3007 70.5184C30.3007 70.0864 30.3993 69.7051 30.5967 69.3744C30.7993 69.0384 31.074 68.7771 31.4207 68.5904C31.7673 68.3984 32.1593 68.3024 32.5967 68.3024C33.018 68.3024 33.3967 68.3931 33.7327 68.5744C34.074 68.7504 34.3433 69.0064 34.5407 69.3424C34.738 69.6731 34.8367 70.0704 34.8367 70.5344C34.8367 70.5824 34.834 70.6384 34.8287 70.7024C34.8233 70.7611 34.818 70.8171 34.8127 70.8704H31.3167V70.1424H34.1567L33.6767 70.3584C33.6767 70.1344 33.6313 69.9397 33.5407 69.7744C33.45 69.6091 33.3247 69.4811 33.1647 69.3904C33.0047 69.2944 32.818 69.2464 32.6047 69.2464C32.3913 69.2464 32.202 69.2944 32.0367 69.3904C31.8767 69.4811 31.7513 69.6117 31.6607 69.7824C31.57 69.9477 31.5247 70.1451 31.5247 70.3744V70.5664C31.5247 70.8011 31.5753 71.0091 31.6767 71.1904C31.7833 71.3664 31.93 71.5024 32.1167 71.5984C32.3087 71.6891 32.5327 71.7344 32.7887 71.7344C33.018 71.7344 33.218 71.6997 33.3887 71.6304C33.5647 71.5611 33.7247 71.4571 33.8687 71.3184L34.5327 72.0384C34.3353 72.2624 34.0873 72.4357 33.7887 72.5584C33.49 72.6757 33.146 72.7344 32.7567 72.7344ZM35.8196 72.6704V68.2704C35.8196 67.7851 35.9636 67.3984 36.2516 67.1104C36.5396 66.8171 36.9502 66.6704 37.4836 66.6704C37.6649 66.6704 37.8382 66.6891 38.0036 66.7264C38.1742 66.7637 38.3182 66.8224 38.4356 66.9024L38.1076 67.8064C38.0382 67.7584 37.9609 67.7211 37.8756 67.6944C37.7902 67.6677 37.6996 67.6544 37.6036 67.6544C37.4222 67.6544 37.2809 67.7077 37.1796 67.8144C37.0836 67.9157 37.0356 68.0704 37.0356 68.2784V68.6784L37.0676 69.2144V72.6704H35.8196ZM35.1556 69.4224V68.4624H38.1396V69.4224H35.1556ZM40.5213 72.7344C40.0146 72.7344 39.62 72.6064 39.3373 72.3504C39.0546 72.0891 38.9133 71.7024 38.9133 71.1904V67.4144H40.1613V71.1744C40.1613 71.3557 40.2093 71.4971 40.3053 71.5984C40.4013 71.6944 40.532 71.7424 40.6973 71.7424C40.8946 71.7424 41.0626 71.6891 41.2013 71.5824L41.5373 72.4624C41.4093 72.5531 41.2546 72.6224 41.0733 72.6704C40.8973 72.7131 40.7133 72.7344 40.5213 72.7344ZM38.2493 69.4224V68.4624H41.2333V69.4224H38.2493ZM47.1435 72.6704V71.8304L47.0635 71.6464V70.1424C47.0635 69.8757 46.9808 69.6677 46.8155 69.5184C46.6555 69.3691 46.4075 69.2944 46.0715 69.2944C45.8422 69.2944 45.6155 69.3317 45.3915 69.4064C45.1728 69.4757 44.9862 69.5717 44.8315 69.6944L44.3835 68.8224C44.6182 68.6571 44.9008 68.5291 45.2315 68.4384C45.5622 68.3477 45.8982 68.3024 46.2395 68.3024C46.8955 68.3024 47.4048 68.4571 47.7675 68.7664C48.1302 69.0757 48.3115 69.5584 48.3115 70.2144V72.6704H47.1435ZM45.8315 72.7344C45.4955 72.7344 45.2075 72.6784 44.9675 72.5664C44.7275 72.4491 44.5435 72.2917 44.4155 72.0944C44.2875 71.8971 44.2235 71.6757 44.2235 71.4304C44.2235 71.1744 44.2848 70.9504 44.4075 70.7584C44.5355 70.5664 44.7355 70.4171 45.0075 70.3104C45.2795 70.1984 45.6342 70.1424 46.0715 70.1424H47.2155V70.8704H46.2075C45.9142 70.8704 45.7115 70.9184 45.5995 71.0144C45.4928 71.1104 45.4395 71.2304 45.4395 71.3744C45.4395 71.5344 45.5008 71.6624 45.6235 71.7584C45.7515 71.8491 45.9248 71.8944 46.1435 71.8944C46.3515 71.8944 46.5382 71.8464 46.7035 71.7504C46.8688 71.6491 46.9888 71.5024 47.0635 71.3104L47.2555 71.8864C47.1648 72.1637 46.9995 72.3744 46.7595 72.5184C46.5195 72.6624 46.2102 72.7344 45.8315 72.7344ZM49.441 72.6704V68.3664H50.633V69.5824L50.465 69.2304C50.593 68.9264 50.7983 68.6971 51.081 68.5424C51.3637 68.3824 51.7077 68.3024 52.113 68.3024V69.4544C52.0597 69.4491 52.0117 69.4464 51.969 69.4464C51.9263 69.4411 51.881 69.4384 51.833 69.4384C51.4917 69.4384 51.2143 69.5371 51.001 69.7344C50.793 69.9264 50.689 70.2277 50.689 70.6384V72.6704H49.441ZM58.3749 68.3024C58.7162 68.3024 59.0175 68.3717 59.2789 68.5104C59.5455 68.6437 59.7535 68.8517 59.9029 69.1344C60.0575 69.4117 60.1349 69.7691 60.1349 70.2064V72.6704H58.8869V70.3984C58.8869 70.0517 58.8149 69.7957 58.6709 69.6304C58.5269 69.4651 58.3242 69.3824 58.0629 69.3824C57.8815 69.3824 57.7189 69.4251 57.5749 69.5104C57.4309 69.5904 57.3189 69.7131 57.2389 69.8784C57.1589 70.0437 57.1189 70.2544 57.1189 70.5104V72.6704H55.8709V70.3984C55.8709 70.0517 55.7989 69.7957 55.6549 69.6304C55.5162 69.4651 55.3162 69.3824 55.0549 69.3824C54.8735 69.3824 54.7109 69.4251 54.5669 69.5104C54.4229 69.5904 54.3109 69.7131 54.2309 69.8784C54.1509 70.0437 54.1109 70.2544 54.1109 70.5104V72.6704H52.8629V68.3664H54.0549V69.5424L53.8309 69.1984C53.9802 68.9051 54.1909 68.6837 54.4629 68.5344C54.7402 68.3797 55.0549 68.3024 55.4069 68.3024C55.8015 68.3024 56.1455 68.4037 56.4389 68.6064C56.7375 68.8037 56.9349 69.1077 57.0309 69.5184L56.5909 69.3984C56.7349 69.0624 56.9642 68.7957 57.2789 68.5984C57.5989 68.4011 57.9642 68.3024 58.3749 68.3024ZM65.3351 72.7344C64.9778 72.7344 64.6578 72.6651 64.3751 72.5264C64.0978 72.3877 63.8818 72.1771 63.7271 71.8944C63.5724 71.6064 63.4951 71.2411 63.4951 70.7984V68.3664H64.7431V70.6144C64.7431 70.9717 64.8178 71.2357 64.9671 71.4064C65.1218 71.5717 65.3378 71.6544 65.6151 71.6544C65.8071 71.6544 65.9778 71.6144 66.1271 71.5344C66.2764 71.4491 66.3938 71.3211 66.4791 71.1504C66.5644 70.9744 66.6071 70.7557 66.6071 70.4944V68.3664H67.8551V72.6704H66.6711V71.4864L66.8871 71.8304C66.7431 72.1291 66.5298 72.3557 66.2471 72.5104C65.9698 72.6597 65.6658 72.7344 65.3351 72.7344ZM71.5553 72.7344C71.1926 72.7344 70.8753 72.6544 70.6033 72.4944C70.3313 72.3344 70.118 72.0917 69.9633 71.7664C69.814 71.4357 69.7393 71.0197 69.7393 70.5184C69.7393 70.0117 69.8113 69.5957 69.9553 69.2704C70.0993 68.9451 70.3073 68.7024 70.5793 68.5424C70.8513 68.3824 71.1766 68.3024 71.5553 68.3024C71.9606 68.3024 72.3233 68.3957 72.6433 68.5824C72.9686 68.7637 73.2246 69.0197 73.4113 69.3504C73.6033 69.6811 73.6993 70.0704 73.6993 70.5184C73.6993 70.9717 73.6033 71.3637 73.4113 71.6944C73.2246 72.0251 72.9686 72.2811 72.6433 72.4624C72.3233 72.6437 71.9606 72.7344 71.5553 72.7344ZM69.0113 74.2224V68.3664H70.2033V69.2464L70.1793 70.5264L70.2593 71.7984V74.2224H69.0113ZM71.3393 71.7104C71.5473 71.7104 71.7313 71.6624 71.8913 71.5664C72.0566 71.4704 72.1873 71.3344 72.2833 71.1584C72.3846 70.9771 72.4353 70.7637 72.4353 70.5184C72.4353 70.2677 72.3846 70.0544 72.2833 69.8784C72.1873 69.7024 72.0566 69.5664 71.8913 69.4704C71.7313 69.3744 71.5473 69.3264 71.3393 69.3264C71.1313 69.3264 70.9446 69.3744 70.7793 69.4704C70.614 69.5664 70.4833 69.7024 70.3873 69.8784C70.2913 70.0544 70.2433 70.2677 70.2433 70.5184C70.2433 70.7637 70.2913 70.9771 70.3873 71.1584C70.4833 71.3344 70.614 71.4704 70.7793 71.5664C70.9446 71.6624 71.1313 71.7104 71.3393 71.7104Z" fill="#333333"/>
<path fill-rule="evenodd" clip-rule="evenodd" d="M158.801 131.646C158.801 128.822 157.701 126.113 155.742 124.116C153.783 122.119 151.127 120.997 148.357 120.997C122.678 120.997 66.8921 121 66.8921 121L62.2991 125.25H46.4223L41.8261 121H27.2042C24.4342 121 21.7777 122.122 19.8191 124.119C17.8604 126.116 16.76 128.825 16.76 131.649C16.76 131.652 16.76 131.656 16.76 131.659C16.76 134.483 17.8604 137.192 19.8191 139.189C21.7777 141.186 24.4342 142.308 27.2042 142.308C34.0833 142.308 41.8261 142.308 41.8261 142.308L46.4223 146.559H62.2959L66.8921 142.308L148.357 142.305C151.127 142.305 153.783 141.183 155.742 139.186C157.701 137.189 158.801 134.48 158.801 131.656C158.801 131.653 158.801 131.65 158.801 131.646Z" fill="#30DCFF"/>
<path fill-rule="evenodd" clip-rule="evenodd" d="M158.801 131.65C158.801 128.825 157.701 126.116 155.742 124.119C153.783 122.122 151.127 121 148.357 121C122.678 121 66.8921 121 66.8921 121L62.2991 125.25H46.4223L41.8261 121H27.2042C24.4342 121 21.7777 122.122 19.8191 124.119C17.8604 126.116 16.76 128.825 16.76 131.65C16.76 131.653 16.76 131.654 16.76 131.654H19.2666C19.2666 127.049 22.9282 123.315 27.4449 123.315C33.5352 123.315 40.8003 123.315 40.8003 123.315L45.3965 127.565H63.3405L67.9367 123.315H148.117C152.633 123.315 156.295 127.049 156.295 131.654L158.801 131.654V131.65Z" fill="#93EDFF"/>
<path fill-rule="evenodd" clip-rule="evenodd" d="M158.801 131.652H156.294V131.652C156.294 133.863 155.433 135.983 153.9 137.547C152.367 139.11 150.288 139.988 148.12 139.988C124.444 139.988 65.8539 139.988 65.8539 139.988L61.2577 144.239H47.4606L42.8644 139.988H27.4416C22.9267 139.988 19.2666 136.256 19.2666 131.652V131.652H16.76V131.657C16.76 134.481 17.8604 137.19 19.8191 139.187C21.7777 141.184 24.4342 142.306 27.2042 142.306C34.0833 142.306 41.8261 142.306 41.8261 142.306L46.4223 146.557H62.2959L66.8921 142.306H148.357C154.125 142.306 158.801 137.538 158.801 131.657C158.801 131.653 158.801 131.652 158.801 131.652Z" fill="#08A0BF"/>
<path d="M29.504 129.735H30.8V135.335H29.504V129.735ZM26.96 135.335H25.664V129.735H26.96V135.335ZM29.6 133.039H26.864V131.943H29.6V133.039ZM32.0369 135.335V131.031H33.2849V135.335H32.0369ZM32.6609 130.431C32.4316 130.431 32.2449 130.365 32.1009 130.231C31.9569 130.098 31.8849 129.933 31.8849 129.735C31.8849 129.538 31.9569 129.373 32.1009 129.239C32.2449 129.106 32.4316 129.039 32.6609 129.039C32.8903 129.039 33.0769 129.103 33.2209 129.231C33.3649 129.354 33.4369 129.514 33.4369 129.711C33.4369 129.919 33.3649 130.093 33.2209 130.231C33.0823 130.365 32.8956 130.431 32.6609 130.431ZM36.9872 135.399C36.6245 135.399 36.3072 135.319 36.0352 135.159C35.7632 134.999 35.5499 134.757 35.3952 134.431C35.2459 134.101 35.1712 133.685 35.1712 133.183C35.1712 132.677 35.2432 132.261 35.3872 131.935C35.5312 131.61 35.7392 131.367 36.0112 131.207C36.2832 131.047 36.6085 130.967 36.9872 130.967C37.3925 130.967 37.7552 131.061 38.0752 131.247C38.4005 131.429 38.6565 131.685 38.8432 132.015C39.0352 132.346 39.1312 132.735 39.1312 133.183C39.1312 133.637 39.0352 134.029 38.8432 134.359C38.6565 134.69 38.4005 134.946 38.0752 135.127C37.7552 135.309 37.3925 135.399 36.9872 135.399ZM34.4432 136.887V131.031H35.6352V131.911L35.6112 133.191L35.6912 134.463V136.887H34.4432ZM36.7712 134.375C36.9792 134.375 37.1632 134.327 37.3232 134.231C37.4885 134.135 37.6192 133.999 37.7152 133.823C37.8165 133.642 37.8672 133.429 37.8672 133.183C37.8672 132.933 37.8165 132.719 37.7152 132.543C37.6192 132.367 37.4885 132.231 37.3232 132.135C37.1632 132.039 36.9792 131.991 36.7712 131.991C36.5632 131.991 36.3765 132.039 36.2112 132.135C36.0459 132.231 35.9152 132.367 35.8192 132.543C35.7232 132.719 35.6752 132.933 35.6752 133.183C35.6752 133.429 35.7232 133.642 35.8192 133.823C35.9152 133.999 36.0459 134.135 36.2112 134.231C36.3765 134.327 36.5632 134.375 36.7712 134.375ZM43.9923 135.399C43.4856 135.399 43.0909 135.271 42.8083 135.015C42.5256 134.754 42.3843 134.367 42.3843 133.855V130.079H43.6323V133.839C43.6323 134.021 43.6803 134.162 43.7763 134.263C43.8723 134.359 44.0029 134.407 44.1683 134.407C44.3656 134.407 44.5336 134.354 44.6723 134.247L45.0083 135.127C44.8803 135.218 44.7256 135.287 44.5443 135.335C44.3683 135.378 44.1843 135.399 43.9923 135.399ZM41.7203 132.087V131.127H44.7043V132.087H41.7203ZM47.624 135.399C47.1653 135.399 46.7573 135.303 46.4 135.111C46.048 134.919 45.768 134.658 45.56 134.327C45.3573 133.991 45.256 133.61 45.256 133.183C45.256 132.751 45.3573 132.37 45.56 132.039C45.768 131.703 46.048 131.442 46.4 131.255C46.7573 131.063 47.1653 130.967 47.624 130.967C48.0773 130.967 48.4827 131.063 48.84 131.255C49.1973 131.442 49.4773 131.701 49.68 132.031C49.8827 132.362 49.984 132.746 49.984 133.183C49.984 133.61 49.8827 133.991 49.68 134.327C49.4773 134.658 49.1973 134.919 48.84 135.111C48.4827 135.303 48.0773 135.399 47.624 135.399ZM47.624 134.375C47.832 134.375 48.0187 134.327 48.184 134.231C48.3493 134.135 48.48 133.999 48.576 133.823C48.672 133.642 48.72 133.429 48.72 133.183C48.72 132.933 48.672 132.719 48.576 132.543C48.48 132.367 48.3493 132.231 48.184 132.135C48.0187 132.039 47.832 131.991 47.624 131.991C47.416 131.991 47.2293 132.039 47.064 132.135C46.8987 132.231 46.7653 132.367 46.664 132.543C46.568 132.719 46.52 132.933 46.52 133.183C46.52 133.429 46.568 133.642 46.664 133.823C46.7653 133.999 46.8987 134.135 47.064 134.231C47.2293 134.327 47.416 134.375 47.624 134.375ZM54.8438 135.399C54.3371 135.399 53.9425 135.271 53.6598 135.015C53.3771 134.754 53.2358 134.367 53.2358 133.855V130.079H54.4838V133.839C54.4838 134.021 54.5318 134.162 54.6278 134.263C54.7238 134.359 54.8545 134.407 55.0198 134.407C55.2171 134.407 55.3851 134.354 55.5238 134.247L55.8598 135.127C55.7318 135.218 55.5771 135.287 55.3958 135.335C55.2198 135.378 55.0358 135.399 54.8438 135.399ZM52.5718 132.087V131.127H55.5558V132.087H52.5718ZM59.1764 130.967C59.5177 130.967 59.8217 131.037 60.0884 131.175C60.3604 131.309 60.5737 131.517 60.7284 131.799C60.883 132.077 60.9604 132.434 60.9604 132.871V135.335H59.7124V133.063C59.7124 132.717 59.635 132.461 59.4804 132.295C59.331 132.13 59.1177 132.047 58.8404 132.047C58.643 132.047 58.4644 132.09 58.3044 132.175C58.1497 132.255 58.027 132.381 57.9364 132.551C57.851 132.722 57.8084 132.941 57.8084 133.207V135.335H56.5604V129.399H57.8084V132.223L57.5284 131.863C57.683 131.575 57.9044 131.354 58.1924 131.199C58.4804 131.045 58.8084 130.967 59.1764 130.967ZM64.2589 135.399C63.7682 135.399 63.3362 135.303 62.9629 135.111C62.5949 134.919 62.3095 134.658 62.1069 134.327C61.9042 133.991 61.8029 133.61 61.8029 133.183C61.8029 132.751 61.9015 132.37 62.0989 132.039C62.3015 131.703 62.5762 131.442 62.9229 131.255C63.2695 131.063 63.6615 130.967 64.0989 130.967C64.5202 130.967 64.8989 131.058 65.2349 131.239C65.5762 131.415 65.8455 131.671 66.0429 132.007C66.2402 132.338 66.3389 132.735 66.3389 133.199C66.3389 133.247 66.3362 133.303 66.3309 133.367C66.3255 133.426 66.3202 133.482 66.3149 133.535H62.8189V132.807H65.6589L65.1789 133.023C65.1789 132.799 65.1335 132.605 65.0429 132.439C64.9522 132.274 64.8269 132.146 64.6669 132.055C64.5069 131.959 64.3202 131.911 64.1069 131.911C63.8935 131.911 63.7042 131.959 63.5389 132.055C63.3789 132.146 63.2535 132.277 63.1629 132.447C63.0722 132.613 63.0269 132.81 63.0269 133.039V133.231C63.0269 133.466 63.0775 133.674 63.1789 133.855C63.2855 134.031 63.4322 134.167 63.6189 134.263C63.8109 134.354 64.0349 134.399 64.2909 134.399C64.5202 134.399 64.7202 134.365 64.8909 134.295C65.0669 134.226 65.2269 134.122 65.3709 133.983L66.0349 134.703C65.8375 134.927 65.5895 135.101 65.2909 135.223C64.9922 135.341 64.6482 135.399 64.2589 135.399ZM69.4354 135.335V131.031H70.6274V132.247L70.4594 131.895C70.5874 131.591 70.7927 131.362 71.0754 131.207C71.358 131.047 71.702 130.967 72.1074 130.967V132.119C72.054 132.114 72.006 132.111 71.9634 132.111C71.9207 132.106 71.8754 132.103 71.8274 132.103C71.486 132.103 71.2087 132.202 70.9954 132.399C70.7874 132.591 70.6834 132.893 70.6834 133.303V135.335H69.4354ZM72.8573 135.335V131.031H74.1053V135.335H72.8573ZM73.4813 130.431C73.2519 130.431 73.0653 130.365 72.9213 130.231C72.7773 130.098 72.7053 129.933 72.7053 129.735C72.7053 129.538 72.7773 129.373 72.9213 129.239C73.0653 129.106 73.2519 129.039 73.4813 129.039C73.7106 129.039 73.8973 129.103 74.0413 129.231C74.1853 129.354 74.2573 129.514 74.2573 129.711C74.2573 129.919 74.1853 130.093 74.0413 130.231C73.9026 130.365 73.7159 130.431 73.4813 130.431ZM77.2875 136.951C76.8822 136.951 76.4902 136.901 76.1115 136.799C75.7382 136.703 75.4262 136.557 75.1755 136.359L75.6715 135.463C75.8528 135.613 76.0822 135.73 76.3595 135.815C76.6422 135.906 76.9195 135.951 77.1915 135.951C77.6342 135.951 77.9542 135.853 78.1515 135.655C78.3542 135.458 78.4555 135.165 78.4555 134.775V134.127L78.5355 133.047L78.5195 131.959V131.031H79.7035V134.615C79.7035 135.415 79.4955 136.005 79.0795 136.383C78.6635 136.762 78.0662 136.951 77.2875 136.951ZM77.0955 135.127C76.6955 135.127 76.3328 135.042 76.0075 134.871C75.6875 134.695 75.4288 134.453 75.2315 134.143C75.0395 133.829 74.9435 133.463 74.9435 133.047C74.9435 132.626 75.0395 132.261 75.2315 131.951C75.4288 131.637 75.6875 131.394 76.0075 131.223C76.3328 131.053 76.6955 130.967 77.0955 130.967C77.4582 130.967 77.7782 131.042 78.0555 131.191C78.3328 131.335 78.5488 131.562 78.7035 131.871C78.8582 132.175 78.9355 132.567 78.9355 133.047C78.9355 133.522 78.8582 133.914 78.7035 134.223C78.5488 134.527 78.3328 134.754 78.0555 134.903C77.7782 135.053 77.4582 135.127 77.0955 135.127ZM77.3435 134.103C77.5622 134.103 77.7568 134.061 77.9275 133.975C78.0982 133.885 78.2315 133.759 78.3275 133.599C78.4235 133.439 78.4715 133.255 78.4715 133.047C78.4715 132.834 78.4235 132.65 78.3275 132.495C78.2315 132.335 78.0982 132.213 77.9275 132.127C77.7568 132.037 77.5622 131.991 77.3435 131.991C77.1248 131.991 76.9302 132.037 76.7595 132.127C76.5888 132.213 76.4528 132.335 76.3515 132.495C76.2555 132.65 76.2075 132.834 76.2075 133.047C76.2075 133.255 76.2555 133.439 76.3515 133.599C76.4528 133.759 76.5888 133.885 76.7595 133.975C76.9302 134.061 77.1248 134.103 77.3435 134.103ZM83.4811 130.967C83.8224 130.967 84.1264 131.037 84.3931 131.175C84.6651 131.309 84.8784 131.517 85.0331 131.799C85.1877 132.077 85.2651 132.434 85.2651 132.871V135.335H84.0171V133.063C84.0171 132.717 83.9397 132.461 83.7851 132.295C83.6357 132.13 83.4224 132.047 83.1451 132.047C82.9477 132.047 82.7691 132.09 82.6091 132.175C82.4544 132.255 82.3317 132.381 82.2411 132.551C82.1557 132.722 82.1131 132.941 82.1131 133.207V135.335H80.8651V129.399H82.1131V132.223L81.8331 131.863C81.9877 131.575 82.2091 131.354 82.4971 131.199C82.7851 131.045 83.1131 130.967 83.4811 130.967ZM88.1563 135.399C87.6496 135.399 87.255 135.271 86.9723 135.015C86.6896 134.754 86.5483 134.367 86.5483 133.855V130.079H87.7963V133.839C87.7963 134.021 87.8443 134.162 87.9403 134.263C88.0363 134.359 88.167 134.407 88.3323 134.407C88.5296 134.407 88.6976 134.354 88.8363 134.247L89.1723 135.127C89.0443 135.218 88.8896 135.287 88.7083 135.335C88.5323 135.378 88.3483 135.399 88.1563 135.399ZM85.8843 132.087V131.127H88.8683V132.087H85.8843Z" fill="#333333"/>
<path fill-rule="evenodd" clip-rule="evenodd" d="M158.801 110.646C158.801 107.822 157.701 105.113 155.742 103.116C153.783 101.119 151.127 99.9968 148.357 99.9968C122.678 99.9968 66.8921 99.9998 66.8921 99.9998L62.2991 104.25H46.4223L41.8261 99.9998H27.2042C24.4342 99.9998 21.7777 101.122 19.8191 103.119C17.8604 105.116 16.76 107.825 16.76 110.649C16.76 110.652 16.76 110.656 16.76 110.659C16.76 113.483 17.8604 116.192 19.8191 118.189C21.7777 120.186 24.4342 121.308 27.2042 121.308C34.0833 121.308 41.8261 121.308 41.8261 121.308L46.4223 125.559H62.2959L66.8921 121.308L148.357 121.305C151.127 121.305 153.783 120.183 155.742 118.186C157.701 116.189 158.801 113.48 158.801 110.656C158.801 110.653 158.801 110.65 158.801 110.646Z" fill="#30DCFF"/>
<path fill-rule="evenodd" clip-rule="evenodd" d="M158.801 110.65C158.801 107.825 157.701 105.116 155.742 103.119C153.783 101.122 151.127 100 148.357 100C122.678 100 66.8921 100 66.8921 100L62.2991 104.25H46.4223L41.8261 100H27.2042C24.4342 100 21.7777 101.122 19.8191 103.119C17.8604 105.116 16.76 107.825 16.76 110.65C16.76 110.653 16.76 110.654 16.76 110.654H19.2666C19.2666 106.049 22.9282 102.315 27.4449 102.315C33.5352 102.315 40.8003 102.315 40.8003 102.315L45.3965 106.565H63.3405L67.9367 102.315H148.117C152.633 102.315 156.295 106.049 156.295 110.654L158.801 110.654V110.65Z" fill="#93EDFF"/>
<path fill-rule="evenodd" clip-rule="evenodd" d="M158.801 110.652H156.294V110.652C156.294 112.863 155.433 114.983 153.9 116.547C152.367 118.11 150.288 118.988 148.12 118.988C124.444 118.988 65.8539 118.988 65.8539 118.988L61.2577 123.239H47.4606L42.8644 118.988H27.4416C22.9267 118.988 19.2666 115.256 19.2666 110.652V110.652H16.76V110.657C16.76 113.481 17.8604 116.19 19.8191 118.187C21.7777 120.184 24.4342 121.306 27.2042 121.306C34.0833 121.306 41.8261 121.306 41.8261 121.306L46.4223 125.557H62.2959L66.8921 121.306H148.357C154.125 121.306 158.801 116.538 158.801 110.657C158.801 110.653 158.801 110.652 158.801 110.652Z" fill="#08A0BF"/>
<path d="M29.504 108.735H30.8V114.335H29.504V108.735ZM26.96 114.335H25.664V108.735H26.96V114.335ZM29.6 112.039H26.864V110.943H29.6V112.039ZM32.0369 114.335V110.031H33.2849V114.335H32.0369ZM32.6609 109.431C32.4316 109.431 32.2449 109.365 32.1009 109.231C31.9569 109.098 31.8849 108.933 31.8849 108.735C31.8849 108.538 31.9569 108.373 32.1009 108.239C32.2449 108.106 32.4316 108.039 32.6609 108.039C32.8903 108.039 33.0769 108.103 33.2209 108.231C33.3649 108.354 33.4369 108.514 33.4369 108.711C33.4369 108.919 33.3649 109.093 33.2209 109.231C33.0823 109.365 32.8956 109.431 32.6609 109.431ZM36.9872 114.399C36.6245 114.399 36.3072 114.319 36.0352 114.159C35.7632 113.999 35.5499 113.757 35.3952 113.431C35.2459 113.101 35.1712 112.685 35.1712 112.183C35.1712 111.677 35.2432 111.261 35.3872 110.935C35.5312 110.61 35.7392 110.367 36.0112 110.207C36.2832 110.047 36.6085 109.967 36.9872 109.967C37.3925 109.967 37.7552 110.061 38.0752 110.247C38.4005 110.429 38.6565 110.685 38.8432 111.015C39.0352 111.346 39.1312 111.735 39.1312 112.183C39.1312 112.637 39.0352 113.029 38.8432 113.359C38.6565 113.69 38.4005 113.946 38.0752 114.127C37.7552 114.309 37.3925 114.399 36.9872 114.399ZM34.4432 115.887V110.031H35.6352V110.911L35.6112 112.191L35.6912 113.463V115.887H34.4432ZM36.7712 113.375C36.9792 113.375 37.1632 113.327 37.3232 113.231C37.4885 113.135 37.6192 112.999 37.7152 112.823C37.8165 112.642 37.8672 112.429 37.8672 112.183C37.8672 111.933 37.8165 111.719 37.7152 111.543C37.6192 111.367 37.4885 111.231 37.3232 111.135C37.1632 111.039 36.9792 110.991 36.7712 110.991C36.5632 110.991 36.3765 111.039 36.2112 111.135C36.0459 111.231 35.9152 111.367 35.8192 111.543C35.7232 111.719 35.6752 111.933 35.6752 112.183C35.6752 112.429 35.7232 112.642 35.8192 112.823C35.9152 112.999 36.0459 113.135 36.2112 113.231C36.3765 113.327 36.5632 113.375 36.7712 113.375ZM43.9923 114.399C43.4856 114.399 43.0909 114.271 42.8083 114.015C42.5256 113.754 42.3843 113.367 42.3843 112.855V109.079H43.6323V112.839C43.6323 113.021 43.6803 113.162 43.7763 113.263C43.8723 113.359 44.0029 113.407 44.1683 113.407C44.3656 113.407 44.5336 113.354 44.6723 113.247L45.0083 114.127C44.8803 114.218 44.7256 114.287 44.5443 114.335C44.3683 114.378 44.1843 114.399 43.9923 114.399ZM41.7203 111.087V110.127H44.7043V111.087H41.7203ZM47.624 114.399C47.1653 114.399 46.7573 114.303 46.4 114.111C46.048 113.919 45.768 113.658 45.56 113.327C45.3573 112.991 45.256 112.61 45.256 112.183C45.256 111.751 45.3573 111.37 45.56 111.039C45.768 110.703 46.048 110.442 46.4 110.255C46.7573 110.063 47.1653 109.967 47.624 109.967C48.0773 109.967 48.4827 110.063 48.84 110.255C49.1973 110.442 49.4773 110.701 49.68 111.031C49.8827 111.362 49.984 111.746 49.984 112.183C49.984 112.61 49.8827 112.991 49.68 113.327C49.4773 113.658 49.1973 113.919 48.84 114.111C48.4827 114.303 48.0773 114.399 47.624 114.399ZM47.624 113.375C47.832 113.375 48.0187 113.327 48.184 113.231C48.3493 113.135 48.48 112.999 48.576 112.823C48.672 112.642 48.72 112.429 48.72 112.183C48.72 111.933 48.672 111.719 48.576 111.543C48.48 111.367 48.3493 111.231 48.184 111.135C48.0187 111.039 47.832 110.991 47.624 110.991C47.416 110.991 47.2293 111.039 47.064 111.135C46.8987 111.231 46.7653 111.367 46.664 111.543C46.568 111.719 46.52 111.933 46.52 112.183C46.52 112.429 46.568 112.642 46.664 112.823C46.7653 112.999 46.8987 113.135 47.064 113.231C47.2293 113.327 47.416 113.375 47.624 113.375ZM54.8438 114.399C54.3371 114.399 53.9425 114.271 53.6598 114.015C53.3771 113.754 53.2358 113.367 53.2358 112.855V109.079H54.4838V112.839C54.4838 113.021 54.5318 113.162 54.6278 113.263C54.7238 113.359 54.8545 113.407 55.0198 113.407C55.2171 113.407 55.3851 113.354 55.5238 113.247L55.8598 114.127C55.7318 114.218 55.5771 114.287 55.3958 114.335C55.2198 114.378 55.0358 114.399 54.8438 114.399ZM52.5718 111.087V110.127H55.5558V111.087H52.5718ZM59.1764 109.967C59.5177 109.967 59.8217 110.037 60.0884 110.175C60.3604 110.309 60.5737 110.517 60.7284 110.799C60.883 111.077 60.9604 111.434 60.9604 111.871V114.335H59.7124V112.063C59.7124 111.717 59.635 111.461 59.4804 111.295C59.331 111.13 59.1177 111.047 58.8404 111.047C58.643 111.047 58.4644 111.09 58.3044 111.175C58.1497 111.255 58.027 111.381 57.9364 111.551C57.851 111.722 57.8084 111.941 57.8084 112.207V114.335H56.5604V108.399H57.8084V111.223L57.5284 110.863C57.683 110.575 57.9044 110.354 58.1924 110.199C58.4804 110.045 58.8084 109.967 59.1764 109.967ZM64.2589 114.399C63.7682 114.399 63.3362 114.303 62.9629 114.111C62.5949 113.919 62.3095 113.658 62.1069 113.327C61.9042 112.991 61.8029 112.61 61.8029 112.183C61.8029 111.751 61.9015 111.37 62.0989 111.039C62.3015 110.703 62.5762 110.442 62.9229 110.255C63.2695 110.063 63.6615 109.967 64.0989 109.967C64.5202 109.967 64.8989 110.058 65.2349 110.239C65.5762 110.415 65.8455 110.671 66.0429 111.007C66.2402 111.338 66.3389 111.735 66.3389 112.199C66.3389 112.247 66.3362 112.303 66.3309 112.367C66.3255 112.426 66.3202 112.482 66.3149 112.535H62.8189V111.807H65.6589L65.1789 112.023C65.1789 111.799 65.1335 111.605 65.0429 111.439C64.9522 111.274 64.8269 111.146 64.6669 111.055C64.5069 110.959 64.3202 110.911 64.1069 110.911C63.8935 110.911 63.7042 110.959 63.5389 111.055C63.3789 111.146 63.2535 111.277 63.1629 111.447C63.0722 111.613 63.0269 111.81 63.0269 112.039V112.231C63.0269 112.466 63.0775 112.674 63.1789 112.855C63.2855 113.031 63.4322 113.167 63.6189 113.263C63.8109 113.354 64.0349 113.399 64.2909 113.399C64.5202 113.399 64.7202 113.365 64.8909 113.295C65.0669 113.226 65.2269 113.122 65.3709 112.983L66.0349 113.703C65.8375 113.927 65.5895 114.101 65.2909 114.223C64.9922 114.341 64.6482 114.399 64.2589 114.399ZM69.4354 114.335V108.399H70.6834V114.335H69.4354ZM73.9776 114.399C73.487 114.399 73.055 114.303 72.6816 114.111C72.3136 113.919 72.0283 113.658 71.8256 113.327C71.623 112.991 71.5216 112.61 71.5216 112.183C71.5216 111.751 71.6203 111.37 71.8176 111.039C72.0203 110.703 72.295 110.442 72.6416 110.255C72.9883 110.063 73.3803 109.967 73.8176 109.967C74.239 109.967 74.6176 110.058 74.9536 110.239C75.295 110.415 75.5643 110.671 75.7616 111.007C75.959 111.338 76.0576 111.735 76.0576 112.199C76.0576 112.247 76.055 112.303 76.0496 112.367C76.0443 112.426 76.039 112.482 76.0336 112.535H72.5376V111.807H75.3776L74.8976 112.023C74.8976 111.799 74.8523 111.605 74.7616 111.439C74.671 111.274 74.5456 111.146 74.3856 111.055C74.2256 110.959 74.039 110.911 73.8256 110.911C73.6123 110.911 73.423 110.959 73.2576 111.055C73.0976 111.146 72.9723 111.277 72.8816 111.447C72.791 111.613 72.7456 111.81 72.7456 112.039V112.231C72.7456 112.466 72.7963 112.674 72.8976 112.855C73.0043 113.031 73.151 113.167 73.3376 113.263C73.5296 113.354 73.7536 113.399 74.0096 113.399C74.239 113.399 74.439 113.365 74.6096 113.295C74.7856 113.226 74.9456 113.122 75.0896 112.983L75.7536 113.703C75.5563 113.927 75.3083 114.101 75.0096 114.223C74.711 114.341 74.367 114.399 73.9776 114.399ZM77.0405 114.335V109.935C77.0405 109.45 77.1845 109.063 77.4725 108.775C77.7605 108.482 78.1712 108.335 78.7045 108.335C78.8858 108.335 79.0592 108.354 79.2245 108.391C79.3952 108.429 79.5392 108.487 79.6565 108.567L79.3285 109.471C79.2592 109.423 79.1818 109.386 79.0965 109.359C79.0112 109.333 78.9205 109.319 78.8245 109.319C78.6432 109.319 78.5018 109.373 78.4005 109.479C78.3045 109.581 78.2565 109.735 78.2565 109.943V110.343L78.2885 110.879V114.335H77.0405ZM76.3765 111.087V110.127H79.3605V111.087H76.3765ZM81.7423 114.399C81.2356 114.399 80.8409 114.271 80.5583 114.015C80.2756 113.754 80.1343 113.367 80.1343 112.855V109.079H81.3823V112.839C81.3823 113.021 81.4303 113.162 81.5263 113.263C81.6223 113.359 81.7529 113.407 81.9183 113.407C82.1156 113.407 82.2836 113.354 82.4223 113.247L82.7583 114.127C82.6303 114.218 82.4756 114.287 82.2943 114.335C82.1183 114.378 81.9343 114.399 81.7423 114.399ZM79.4703 111.087V110.127H82.4543V111.087H79.4703Z" fill="#333333"/>
</svg>
