<svg width="160" height="166" viewBox="0 0 160 166" fill="none" xmlns="http://www.w3.org/2000/svg">
<path fill-rule="evenodd" clip-rule="evenodd" d="M2 112H17V110.009C17 107.357 18.0338 104.813 19.874 102.938C21.7142 101.063 24.2101 100.009 26.8125 100.009H41.6818L46 104H62.5L66.8182 100.009C66.8182 100.009 125.057 100.026 149.185 100.032C151.788 100.033 154.284 98.9798 156.125 97.1042C157.966 95.2287 159 92.6846 159 90.0319C159 90.0212 159 90.0103 159 89.9996C159 84.477 154.607 80.0001 149.187 80.0001C125.062 80.0001 67 79.9912 67 79.9912L63 83.9912L46 83.9912L42 80.0001H11.8125C9.21006 80.0001 6.71423 81.0537 4.87404 82.9291C3.03384 84.8044 2 87.3479 2 90.0001V112Z" fill="#FFDE6C"/>
<path fill-rule="evenodd" clip-rule="evenodd" d="M158.999 89.9992C158.999 87.3473 157.966 84.8039 156.126 82.9287C154.286 81.0535 151.79 80 149.188 80C125.063 80 67 80 67 80L62.9814 83.9911H45.9629L42 80H11.8277C9.22117 80 6.72149 81.0552 4.87846 82.9335C3.03544 84.8117 2 87.3592 2 90.0155C2 99.4023 2 112 2 112H4.355V90.014C4.355 85.684 7.79923 82.1739 12.048 82.1739C22.604 82.1739 41.0362 82.1739 41.0362 82.1739L45 86.165H63.9597L67.9814 82.1739H148.966C151.002 82.1739 152.956 82.9984 154.396 84.466C155.836 85.9336 156.645 87.924 156.645 89.9996L158.999 89.9992Z" fill="#FFF0BD"/>
<path fill-rule="evenodd" clip-rule="evenodd" d="M158.997 90.0022H156.642C156.642 92.079 155.832 94.0713 154.391 95.5398C152.95 97.0083 150.996 97.8332 148.958 97.8332C126.711 97.8332 66 97.8332 66 97.8332L61.5 101.821H46.9756L42.4756 97.83H26.7765C20.0765 97.83 14.645 103.365 14.645 110.193C14.645 111.291 14.645 111.998 14.645 111.998H17V110.007C17 107.354 18.0338 104.811 19.874 102.936C21.7142 101.06 24.2101 100.007 26.8125 100.007C33.2755 100.007 41.5001 100.007 41.5001 100.007L46.0001 103.998H62.4754L66.9754 100.01C66.9754 100.01 125.054 100.025 149.182 100.031C151.784 100.032 154.281 98.9787 156.122 97.1033C157.962 95.228 158.996 92.6841 158.997 90.0316C158.997 90.0122 158.997 90.0022 158.997 90.0022Z" fill="#EBC541"/>
<path d="M10.664 95V89.4H13.088C13.5893 89.4 14.0213 89.4827 14.384 89.648C14.7467 89.808 15.0267 90.04 15.224 90.344C15.4213 90.648 15.52 91.0107 15.52 91.432C15.52 91.848 15.4213 92.208 15.224 92.512C15.0267 92.8107 14.7467 93.04 14.384 93.2C14.0213 93.36 13.5893 93.44 13.088 93.44H11.384L11.96 92.872V95H10.664ZM14.224 95L12.824 92.968H14.208L15.624 95H14.224ZM11.96 93.016L11.384 92.408H13.016C13.416 92.408 13.7147 92.3227 13.912 92.152C14.1093 91.976 14.208 91.736 14.208 91.432C14.208 91.1227 14.1093 90.8827 13.912 90.712C13.7147 90.5413 13.416 90.456 13.016 90.456H11.384L11.96 89.84V93.016ZM18.5948 95.064C18.1041 95.064 17.6721 94.968 17.2988 94.776C16.9308 94.584 16.6455 94.3227 16.4428 93.992C16.2401 93.656 16.1388 93.2747 16.1388 92.848C16.1388 92.416 16.2375 92.0347 16.4348 91.704C16.6375 91.368 16.9121 91.1067 17.2588 90.92C17.6055 90.728 17.9975 90.632 18.4348 90.632C18.8561 90.632 19.2348 90.7227 19.5708 90.904C19.9121 91.08 20.1815 91.336 20.3788 91.672C20.5761 92.0027 20.6748 92.4 20.6748 92.864C20.6748 92.912 20.6721 92.968 20.6668 93.032C20.6615 93.0907 20.6561 93.1467 20.6508 93.2H17.1548V92.472H19.9948L19.5148 92.688C19.5148 92.464 19.4695 92.2693 19.3788 92.104C19.2881 91.9387 19.1628 91.8107 19.0028 91.72C18.8428 91.624 18.6561 91.576 18.4428 91.576C18.2295 91.576 18.0401 91.624 17.8748 91.72C17.7148 91.8107 17.5895 91.9413 17.4988 92.112C17.4081 92.2773 17.3628 92.4747 17.3628 92.704V92.896C17.3628 93.1307 17.4135 93.3387 17.5148 93.52C17.6215 93.696 17.7681 93.832 17.9548 93.928C18.1468 94.0187 18.3708 94.064 18.6268 94.064C18.8561 94.064 19.0561 94.0293 19.2268 93.96C19.4028 93.8907 19.5628 93.7867 19.7068 93.648L20.3708 94.368C20.1735 94.592 19.9255 94.7653 19.6268 94.888C19.3281 95.0053 18.9841 95.064 18.5948 95.064ZM24.0497 95.064C23.687 95.064 23.3697 94.984 23.0977 94.824C22.8257 94.664 22.6124 94.4213 22.4577 94.096C22.3084 93.7653 22.2337 93.3493 22.2337 92.848C22.2337 92.3413 22.3057 91.9253 22.4497 91.6C22.5937 91.2747 22.8017 91.032 23.0737 90.872C23.3457 90.712 23.671 90.632 24.0497 90.632C24.455 90.632 24.8177 90.7253 25.1377 90.912C25.463 91.0933 25.719 91.3493 25.9057 91.68C26.0977 92.0107 26.1937 92.4 26.1937 92.848C26.1937 93.3013 26.0977 93.6933 25.9057 94.024C25.719 94.3547 25.463 94.6107 25.1377 94.792C24.8177 94.9733 24.455 95.064 24.0497 95.064ZM21.5057 96.552V90.696H22.6977V91.576L22.6737 92.856L22.7537 94.128V96.552H21.5057ZM23.8337 94.04C24.0417 94.04 24.2257 93.992 24.3857 93.896C24.551 93.8 24.6817 93.664 24.7777 93.488C24.879 93.3067 24.9297 93.0933 24.9297 92.848C24.9297 92.5973 24.879 92.384 24.7777 92.208C24.6817 92.032 24.551 91.896 24.3857 91.8C24.2257 91.704 24.0417 91.656 23.8337 91.656C23.6257 91.656 23.439 91.704 23.2737 91.8C23.1084 91.896 22.9777 92.032 22.8817 92.208C22.7857 92.384 22.7377 92.5973 22.7377 92.848C22.7377 93.0933 22.7857 93.3067 22.8817 93.488C22.9777 93.664 23.1084 93.8 23.2737 93.896C23.439 93.992 23.6257 94.04 23.8337 94.04ZM29.1651 95.064C28.6745 95.064 28.2425 94.968 27.8691 94.776C27.5011 94.584 27.2158 94.3227 27.0131 93.992C26.8105 93.656 26.7091 93.2747 26.7091 92.848C26.7091 92.416 26.8078 92.0347 27.0051 91.704C27.2078 91.368 27.4825 91.1067 27.8291 90.92C28.1758 90.728 28.5678 90.632 29.0051 90.632C29.4265 90.632 29.8051 90.7227 30.1411 90.904C30.4825 91.08 30.7518 91.336 30.9491 91.672C31.1465 92.0027 31.2451 92.4 31.2451 92.864C31.2451 92.912 31.2425 92.968 31.2371 93.032C31.2318 93.0907 31.2265 93.1467 31.2211 93.2H27.7251V92.472H30.5651L30.0851 92.688C30.0851 92.464 30.0398 92.2693 29.9491 92.104C29.8585 91.9387 29.7331 91.8107 29.5731 91.72C29.4131 91.624 29.2265 91.576 29.0131 91.576C28.7998 91.576 28.6105 91.624 28.4451 91.72C28.2851 91.8107 28.1598 91.9413 28.0691 92.112C27.9785 92.2773 27.9331 92.4747 27.9331 92.704V92.896C27.9331 93.1307 27.9838 93.3387 28.0851 93.52C28.1918 93.696 28.3385 93.832 28.5251 93.928C28.7171 94.0187 28.9411 94.064 29.1971 94.064C29.4265 94.064 29.6265 94.0293 29.7971 93.96C29.9731 93.8907 30.1331 93.7867 30.2771 93.648L30.9411 94.368C30.7438 94.592 30.4958 94.7653 30.1971 94.888C29.8985 95.0053 29.5545 95.064 29.1651 95.064ZM34.5988 95V94.16L34.5188 93.976V92.472C34.5188 92.2053 34.4361 91.9973 34.2708 91.848C34.1108 91.6987 33.8628 91.624 33.5268 91.624C33.2975 91.624 33.0708 91.6613 32.8468 91.736C32.6281 91.8053 32.4415 91.9013 32.2868 92.024L31.8388 91.152C32.0735 90.9867 32.3561 90.8587 32.6868 90.768C33.0175 90.6773 33.3535 90.632 33.6948 90.632C34.3508 90.632 34.8601 90.7867 35.2228 91.096C35.5855 91.4053 35.7668 91.888 35.7668 92.544V95H34.5988ZM33.2868 95.064C32.9508 95.064 32.6628 95.008 32.4228 94.896C32.1828 94.7787 31.9988 94.6213 31.8708 94.424C31.7428 94.2267 31.6788 94.0053 31.6788 93.76C31.6788 93.504 31.7401 93.28 31.8628 93.088C31.9908 92.896 32.1908 92.7467 32.4628 92.64C32.7348 92.528 33.0895 92.472 33.5268 92.472H34.6708V93.2H33.6628C33.3695 93.2 33.1668 93.248 33.0548 93.344C32.9481 93.44 32.8948 93.56 32.8948 93.704C32.8948 93.864 32.9561 93.992 33.0788 94.088C33.2068 94.1787 33.3801 94.224 33.5988 94.224C33.8068 94.224 33.9935 94.176 34.1588 94.08C34.3241 93.9787 34.4441 93.832 34.5188 93.64L34.7108 94.216C34.6201 94.4933 34.4548 94.704 34.2148 94.848C33.9748 94.992 33.6655 95.064 33.2868 95.064ZM38.6563 95.064C38.1496 95.064 37.755 94.936 37.4723 94.68C37.1896 94.4187 37.0483 94.032 37.0483 93.52V89.744H38.2963V93.504C38.2963 93.6853 38.3443 93.8267 38.4403 93.928C38.5363 94.024 38.667 94.072 38.8323 94.072C39.0296 94.072 39.1976 94.0187 39.3363 93.912L39.6723 94.792C39.5443 94.8827 39.3896 94.952 39.2083 95C39.0323 95.0427 38.8483 95.064 38.6563 95.064ZM36.3843 91.752V90.792H39.3683V91.752H36.3843Z" fill="#333333"/>
<rect x="48" y="86" width="13" height="13" rx="5" fill="#F2F2F2"/>
<path d="M57.7049 95.416V97H51.3569V95.74L54.5969 92.68C54.9409 92.352 55.1729 92.072 55.2929 91.84C55.4129 91.6 55.4729 91.364 55.4729 91.132C55.4729 90.796 55.3569 90.54 55.1249 90.364C54.9009 90.18 54.5689 90.088 54.1289 90.088C53.7609 90.088 53.4289 90.16 53.1329 90.304C52.8369 90.44 52.5889 90.648 52.3889 90.928L50.9729 90.016C51.3009 89.528 51.7529 89.148 52.3289 88.876C52.9049 88.596 53.5649 88.456 54.3089 88.456C54.9329 88.456 55.4769 88.56 55.9409 88.768C56.4129 88.968 56.7769 89.256 57.0329 89.632C57.2969 90 57.4289 90.436 57.4289 90.94C57.4289 91.396 57.3329 91.824 57.1409 92.224C56.9489 92.624 56.5769 93.08 56.0249 93.592L54.0929 95.416H57.7049Z" fill="#008E86"/>
<path d="M69.336 95.064C68.8293 95.064 68.4347 94.936 68.152 94.68C67.8693 94.4187 67.728 94.032 67.728 93.52V89.744H68.976V93.504C68.976 93.6853 69.024 93.8267 69.12 93.928C69.216 94.024 69.3467 94.072 69.512 94.072C69.7093 94.072 69.8773 94.0187 70.016 93.912L70.352 94.792C70.224 94.8827 70.0693 94.952 69.888 95C69.712 95.0427 69.528 95.064 69.336 95.064ZM67.064 91.752V90.792H70.048V91.752H67.064ZM71.0526 95V90.696H72.3006V95H71.0526ZM71.6766 90.096C71.4472 90.096 71.2606 90.0293 71.1166 89.896C70.9726 89.7627 70.9006 89.5973 70.9006 89.4C70.9006 89.2027 70.9726 89.0373 71.1166 88.904C71.2606 88.7707 71.4472 88.704 71.6766 88.704C71.9059 88.704 72.0926 88.768 72.2366 88.896C72.3806 89.0187 72.4526 89.1787 72.4526 89.376C72.4526 89.584 72.3806 89.7573 72.2366 89.896C72.0979 90.0293 71.9112 90.096 71.6766 90.096ZM78.9708 90.632C79.3121 90.632 79.6135 90.7013 79.8748 90.84C80.1415 90.9733 80.3495 91.1813 80.4988 91.464C80.6535 91.7413 80.7308 92.0987 80.7308 92.536V95H79.4828V92.728C79.4828 92.3813 79.4108 92.1253 79.2668 91.96C79.1228 91.7947 78.9201 91.712 78.6588 91.712C78.4775 91.712 78.3148 91.7547 78.1708 91.84C78.0268 91.92 77.9148 92.0427 77.8348 92.208C77.7548 92.3733 77.7148 92.584 77.7148 92.84V95H76.4668V92.728C76.4668 92.3813 76.3948 92.1253 76.2508 91.96C76.1121 91.7947 75.9121 91.712 75.6508 91.712C75.4695 91.712 75.3068 91.7547 75.1628 91.84C75.0188 91.92 74.9068 92.0427 74.8268 92.208C74.7468 92.3733 74.7068 92.584 74.7068 92.84V95H73.4588V90.696H74.6508V91.872L74.4268 91.528C74.5761 91.2347 74.7868 91.0133 75.0588 90.864C75.3361 90.7093 75.6508 90.632 76.0028 90.632C76.3975 90.632 76.7415 90.7333 77.0348 90.936C77.3335 91.1333 77.5308 91.4373 77.6268 91.848L77.1868 91.728C77.3308 91.392 77.5601 91.1253 77.8748 90.928C78.1948 90.7307 78.5601 90.632 78.9708 90.632ZM84.0167 95.064C83.526 95.064 83.094 94.968 82.7207 94.776C82.3527 94.584 82.0674 94.3227 81.8647 93.992C81.662 93.656 81.5607 93.2747 81.5607 92.848C81.5607 92.416 81.6594 92.0347 81.8567 91.704C82.0594 91.368 82.334 91.1067 82.6807 90.92C83.0274 90.728 83.4194 90.632 83.8567 90.632C84.278 90.632 84.6567 90.7227 84.9927 90.904C85.334 91.08 85.6034 91.336 85.8007 91.672C85.998 92.0027 86.0967 92.4 86.0967 92.864C86.0967 92.912 86.094 92.968 86.0887 93.032C86.0834 93.0907 86.078 93.1467 86.0727 93.2H82.5767V92.472H85.4167L84.9367 92.688C84.9367 92.464 84.8914 92.2693 84.8007 92.104C84.71 91.9387 84.5847 91.8107 84.4247 91.72C84.2647 91.624 84.078 91.576 83.8647 91.576C83.6514 91.576 83.462 91.624 83.2967 91.72C83.1367 91.8107 83.0114 91.9413 82.9207 92.112C82.83 92.2773 82.7847 92.4747 82.7847 92.704V92.896C82.7847 93.1307 82.8354 93.3387 82.9367 93.52C83.0434 93.696 83.19 93.832 83.3767 93.928C83.5687 94.0187 83.7927 94.064 84.0487 94.064C84.278 94.064 84.478 94.0293 84.6487 93.96C84.8247 93.8907 84.9847 93.7867 85.1287 93.648L85.7927 94.368C85.5954 94.592 85.3474 94.7653 85.0487 94.888C84.75 95.0053 84.406 95.064 84.0167 95.064ZM88.3756 95.064C88.0076 95.064 87.6529 95.0213 87.3116 94.936C86.9756 94.8453 86.7089 94.7333 86.5116 94.6L86.9276 93.704C87.1249 93.8267 87.3569 93.928 87.6236 94.008C87.8956 94.0827 88.1622 94.12 88.4236 94.12C88.7116 94.12 88.9142 94.0853 89.0316 94.016C89.1542 93.9467 89.2156 93.8507 89.2156 93.728C89.2156 93.6267 89.1676 93.552 89.0716 93.504C88.9809 93.4507 88.8582 93.4107 88.7036 93.384C88.5489 93.3573 88.3782 93.3307 88.1916 93.304C88.0102 93.2773 87.8262 93.2427 87.6396 93.2C87.4529 93.152 87.2822 93.0827 87.1276 92.992C86.9729 92.9013 86.8476 92.7787 86.7516 92.624C86.6609 92.4693 86.6156 92.2693 86.6156 92.024C86.6156 91.752 86.6929 91.512 86.8476 91.304C87.0076 91.096 87.2369 90.9333 87.5356 90.816C87.8342 90.6933 88.1916 90.632 88.6076 90.632C88.9009 90.632 89.1996 90.664 89.5036 90.728C89.8076 90.792 90.0609 90.8853 90.2636 91.008L89.8476 91.896C89.6396 91.7733 89.4289 91.6907 89.2156 91.648C89.0076 91.6 88.8049 91.576 88.6076 91.576C88.3302 91.576 88.1276 91.6133 87.9996 91.688C87.8716 91.7627 87.8076 91.8587 87.8076 91.976C87.8076 92.0827 87.8529 92.1627 87.9436 92.216C88.0396 92.2693 88.1649 92.312 88.3196 92.344C88.4742 92.376 88.6422 92.4053 88.8236 92.432C89.0102 92.4533 89.1969 92.488 89.3836 92.536C89.5702 92.584 89.7382 92.6533 89.8876 92.744C90.0422 92.8293 90.1676 92.9493 90.2636 93.104C90.3596 93.2533 90.4076 93.4507 90.4076 93.696C90.4076 93.9627 90.3276 94.2 90.1676 94.408C90.0076 94.6107 89.7756 94.7707 89.4716 94.888C89.1729 95.0053 88.8076 95.064 88.3756 95.064Z" fill="#333333"/>
<path fill-rule="evenodd" clip-rule="evenodd" d="M17 130H2V151.971C2 157.488 6.38557 161.964 11.8 161.971C23.4255 161.986 42 162.009 42 162.009L46.3182 166H62.6819L67.0001 162.009H149.187C151.79 162.009 154.286 160.955 156.126 159.08C157.966 157.204 159 154.661 159 152.008C159 152.005 159 152.002 159 151.999C159 146.477 154.607 142 149.187 142C125.062 142 67 142 67 142L62.6849 145.991H46.3182L42 142H26.8125C24.2101 142 21.7142 140.946 19.874 139.071C18.0338 137.196 17 134.652 17 132V130Z" fill="#FFDE6C"/>
<path fill-rule="evenodd" clip-rule="evenodd" d="M158.996 151.999C158.996 149.347 157.962 146.804 156.122 144.929C154.282 143.053 151.787 142 149.184 142C125.059 142 67.0001 142 67.0001 142L62.6818 145.991H46.3183L42.0001 142L26.9302 142C21.5109 142 17.1177 137.523 17.1177 132C17.1177 130.806 17.1177 130 17.1177 130H14.7627C14.7627 130 14.7627 130.879 14.7627 132.198C14.7627 138.804 20.0177 144.16 26.5 144.16C32.9699 144.16 41.0363 144.16 41.0363 144.16L45.3545 148.165H63.6632L67.9814 144.174C67.9814 144.174 127.049 144.177 148.958 144.178C153.198 144.179 156.637 147.679 156.642 152L158.996 151.999Z" fill="#FFF0BD"/>
<path fill-rule="evenodd" clip-rule="evenodd" d="M159 152H156.645C156.645 154.077 155.835 156.069 154.394 157.538C152.953 159.007 150.998 159.832 148.96 159.832C126.712 159.832 66.0053 159.832 66.0053 159.832L61.6871 163.823H46.5436L42.2254 159.832H12.0402C7.79574 159.832 4.355 156.326 4.355 152C4.355 143.161 4.355 130 4.355 130H2C2 130 2 142.623 2 152.016C2 154.669 3.03384 157.212 4.87404 159.088C6.71423 160.963 9.21006 162.016 11.8125 162.016C23.4326 162.016 41.2308 162.016 41.2308 162.016L45.5681 166H62.6626L67 162.016H149.187C154.606 162.016 159 157.54 159 152.017C159 152.006 159 152 159 152Z" fill="#EBC541"/>
<path d="M17 111H2V130.988H17V111Z" fill="#FFDE6C"/>
<path d="M4.5 111L2 111V120.994L4.5 120.994V111Z" fill="#FFF0BD"/>
<path d="M16.9968 121.006H14.7468V131H16.9968V121.006Z" fill="#FFF0BD"/>
<path d="M4.25001 121.006H2V131H4.25001V121.006Z" fill="#EBC541"/>
<path d="M16.9968 111H14.5V120.994H16.9968V111Z" fill="#EBC541"/>
<path fill-rule="evenodd" clip-rule="evenodd" d="M159.22 24.3182C159.22 18.5922 154.531 13.9505 148.747 13.9505C130.439 13.9505 101.658 13.9505 88.5207 13.9505C85.8392 13.9504 83.2599 12.932 81.3143 11.1053C76.9544 7.01868 65.9488 0 41.8916 0C7.97493 0 0 13.9505 0 13.9505C0 13.9505 0.00020108 20.7144 0.00030162 26.9667C0.00040216 32.6928 4.68928 37.3346 10.4732 37.3346C22.8812 37.3346 41.8913 37.3346 41.8913 37.3346L46.5001 41.4728H62.4206L67.0263 37.3346C67.0263 37.3346 122.997 37.3346 148.747 37.3346C151.525 37.3346 154.189 36.2422 156.153 34.2977C158.117 32.3532 159.22 29.7158 159.22 26.966C159.22 26.0867 159.22 25.1974 159.22 24.3182Z" fill="#FC79FF"/>
<path fill-rule="evenodd" clip-rule="evenodd" d="M159.22 25.4395H156.707V25.8785C156.707 28.2592 155.751 30.5423 154.051 32.2257C152.351 33.9092 150.044 34.8548 147.64 34.8548H65.9852L61.3794 38.9929H47.5413L42.9325 34.8548C42.9325 34.8548 23.4971 34.8548 11.5805 34.8548C9.17578 34.8548 6.86959 33.9092 5.16916 32.2257C3.46883 30.5423 2.5135 28.2592 2.5135 25.8785V25.4395H0V26.9827C0 29.7325 1.10343 32.3697 3.06747 34.3142C5.03152 36.2586 7.69533 37.3509 10.4729 37.3509C22.8811 37.3509 41.8913 37.3509 41.8913 37.3509L46.5001 41.489H62.4206L67.0263 37.3509H148.747C154.531 37.3509 159.22 32.7091 159.22 26.9829C159.22 26.0449 159.22 25.4395 159.22 25.4395Z" fill="#CD5ACF"/>
<path fill-rule="evenodd" clip-rule="evenodd" d="M0 25.4232H2.5135V15.1985C2.5135 15.1985 9.36419 2.49603 41.8819 2.49603C63.9643 2.49603 75.0076 8.96538 79.6736 12.8874C81.9226 14.7793 84.7717 15.8281 87.7227 15.8506C101.426 15.9617 130.331 16.2455 147.64 16.3774C152.659 16.4156 156.707 20.4541 156.707 25.4224V25.4232H159.22V24.3187C159.22 18.5925 154.531 13.9505 148.747 13.9505C130.442 13.9505 101.671 13.9505 88.5276 13.9505C85.8436 13.9504 83.2621 12.9301 81.3159 11.1003C76.9616 7.01301 65.967 0 41.8916 0C7.93562 0 0.00030162 13.9505 0.00030162 13.9505L0 25.4232Z" fill="#FDACFF"/>
<path d="M12.4831 27.855L10.6511 22.255H11.9951L13.5871 27.215H12.9151L14.5791 22.255H15.7791L17.3791 27.215H16.7311L18.3631 22.255H19.6031L17.7711 27.855H16.3791L14.9631 23.503H15.3311L13.8751 27.855H12.4831ZM22.9718 23.487C23.3131 23.487 23.6171 23.5563 23.8838 23.695C24.1558 23.8283 24.3691 24.0363 24.5238 24.319C24.6785 24.5963 24.7558 24.9536 24.7558 25.391V27.855H23.5078V25.583C23.5078 25.2363 23.4305 24.9803 23.2758 24.815C23.1265 24.6496 22.9131 24.567 22.6358 24.567C22.4385 24.567 22.2598 24.6096 22.0998 24.695C21.9451 24.775 21.8225 24.9003 21.7318 25.071C21.6465 25.2416 21.6038 25.4603 21.6038 25.727V27.855H20.3558V21.919H21.6038V24.743L21.3238 24.383C21.4785 24.095 21.6998 23.8736 21.9878 23.719C22.2758 23.5643 22.6038 23.487 22.9718 23.487ZM28.0543 27.919C27.5636 27.919 27.1316 27.823 26.7583 27.631C26.3903 27.439 26.105 27.1776 25.9023 26.847C25.6996 26.511 25.5983 26.1296 25.5983 25.703C25.5983 25.271 25.697 24.8896 25.8943 24.559C26.097 24.223 26.3716 23.9616 26.7183 23.775C27.065 23.583 27.457 23.487 27.8943 23.487C28.3156 23.487 28.6943 23.5776 29.0303 23.759C29.3716 23.935 29.641 24.191 29.8383 24.527C30.0356 24.8576 30.1343 25.255 30.1343 25.719C30.1343 25.767 30.1316 25.823 30.1263 25.887C30.121 25.9456 30.1156 26.0016 30.1103 26.055H26.6143V25.327H29.4543L28.9743 25.543C28.9743 25.319 28.929 25.1243 28.8383 24.959C28.7476 24.7936 28.6223 24.6656 28.4623 24.575C28.3023 24.479 28.1156 24.431 27.9023 24.431C27.689 24.431 27.4996 24.479 27.3343 24.575C27.1743 24.6656 27.049 24.7963 26.9583 24.967C26.8676 25.1323 26.8223 25.3296 26.8223 25.559V25.751C26.8223 25.9856 26.873 26.1936 26.9743 26.375C27.081 26.551 27.2276 26.687 27.4143 26.783C27.6063 26.8736 27.8303 26.919 28.0863 26.919C28.3156 26.919 28.5156 26.8843 28.6863 26.815C28.8623 26.7456 29.0223 26.6416 29.1663 26.503L29.8303 27.223C29.633 27.447 29.385 27.6203 29.0863 27.743C28.7876 27.8603 28.4436 27.919 28.0543 27.919ZM33.5812 23.487C33.9225 23.487 34.2265 23.5563 34.4932 23.695C34.7652 23.8283 34.9785 24.0363 35.1332 24.319C35.2878 24.5963 35.3652 24.9536 35.3652 25.391V27.855H34.1172V25.583C34.1172 25.2363 34.0398 24.9803 33.8852 24.815C33.7358 24.6496 33.5225 24.567 33.2452 24.567C33.0478 24.567 32.8692 24.6096 32.7092 24.695C32.5545 24.775 32.4318 24.9003 32.3412 25.071C32.2558 25.2416 32.2132 25.4603 32.2132 25.727V27.855H30.9652V23.551H32.1572V24.743L31.9332 24.383C32.0878 24.095 32.3092 23.8736 32.5972 23.719C32.8852 23.5643 33.2132 23.487 33.5812 23.487ZM36.9684 25.047C36.7551 25.047 36.5711 24.975 36.4164 24.831C36.2671 24.6816 36.1924 24.4923 36.1924 24.263C36.1924 24.0336 36.2671 23.8496 36.4164 23.711C36.5711 23.567 36.7551 23.495 36.9684 23.495C37.1871 23.495 37.3711 23.567 37.5204 23.711C37.6697 23.8496 37.7444 24.0336 37.7444 24.263C37.7444 24.4923 37.6697 24.6816 37.5204 24.831C37.3711 24.975 37.1871 25.047 36.9684 25.047ZM36.9684 27.919C36.7551 27.919 36.5711 27.847 36.4164 27.703C36.2671 27.5536 36.1924 27.3643 36.1924 27.135C36.1924 26.9056 36.2671 26.7216 36.4164 26.583C36.5711 26.439 36.7551 26.367 36.9684 26.367C37.1871 26.367 37.3711 26.439 37.5204 26.583C37.6697 26.7216 37.7444 26.9056 37.7444 27.135C37.7444 27.3643 37.6697 27.5536 37.5204 27.703C37.3711 27.847 37.1871 27.919 36.9684 27.919ZM43.3998 27.919C43.0371 27.919 42.7198 27.839 42.4478 27.679C42.1758 27.519 41.9625 27.2763 41.8078 26.951C41.6585 26.6203 41.5838 26.2043 41.5838 25.703C41.5838 25.1963 41.6558 24.7803 41.7998 24.455C41.9438 24.1296 42.1518 23.887 42.4238 23.727C42.6958 23.567 43.0211 23.487 43.3998 23.487C43.8051 23.487 44.1678 23.5803 44.4878 23.767C44.8131 23.9483 45.0691 24.2043 45.2558 24.535C45.4478 24.8656 45.5438 25.255 45.5438 25.703C45.5438 26.1563 45.4478 26.5483 45.2558 26.879C45.0691 27.2096 44.8131 27.4656 44.4878 27.647C44.1678 27.8283 43.8051 27.919 43.3998 27.919ZM40.8558 29.407V23.551H42.0478V24.431L42.0238 25.711L42.1038 26.983V29.407H40.8558ZM43.1838 26.895C43.3918 26.895 43.5758 26.847 43.7358 26.751C43.9011 26.655 44.0318 26.519 44.1278 26.343C44.2291 26.1616 44.2798 25.9483 44.2798 25.703C44.2798 25.4523 44.2291 25.239 44.1278 25.063C44.0318 24.887 43.9011 24.751 43.7358 24.655C43.5758 24.559 43.3918 24.511 43.1838 24.511C42.9758 24.511 42.7891 24.559 42.6238 24.655C42.4585 24.751 42.3278 24.887 42.2318 25.063C42.1358 25.239 42.0878 25.4523 42.0878 25.703C42.0878 25.9483 42.1358 26.1616 42.2318 26.343C42.3278 26.519 42.4585 26.655 42.6238 26.751C42.7891 26.847 42.9758 26.895 43.1838 26.895ZM46.3792 27.855V23.551H47.5712V24.767L47.4032 24.415C47.5312 24.111 47.7366 23.8816 48.0192 23.727C48.3019 23.567 48.6459 23.487 49.0512 23.487V24.639C48.9979 24.6336 48.9499 24.631 48.9072 24.631C48.8646 24.6256 48.8192 24.623 48.7712 24.623C48.4299 24.623 48.1526 24.7216 47.9392 24.919C47.7312 25.111 47.6272 25.4123 47.6272 25.823V27.855H46.3792ZM51.898 27.919C51.4074 27.919 50.9754 27.823 50.602 27.631C50.234 27.439 49.9487 27.1776 49.746 26.847C49.5434 26.511 49.442 26.1296 49.442 25.703C49.442 25.271 49.5407 24.8896 49.738 24.559C49.9407 24.223 50.2154 23.9616 50.562 23.775C50.9087 23.583 51.3007 23.487 51.738 23.487C52.1594 23.487 52.538 23.5776 52.874 23.759C53.2154 23.935 53.4847 24.191 53.682 24.527C53.8794 24.8576 53.978 25.255 53.978 25.719C53.978 25.767 53.9754 25.823 53.97 25.887C53.9647 25.9456 53.9594 26.0016 53.954 26.055H50.458V25.327H53.298L52.818 25.543C52.818 25.319 52.7727 25.1243 52.682 24.959C52.5914 24.7936 52.466 24.6656 52.306 24.575C52.146 24.479 51.9594 24.431 51.746 24.431C51.5327 24.431 51.3434 24.479 51.178 24.575C51.018 24.6656 50.8927 24.7963 50.802 24.967C50.7114 25.1323 50.666 25.3296 50.666 25.559V25.751C50.666 25.9856 50.7167 26.1936 50.818 26.375C50.9247 26.551 51.0714 26.687 51.258 26.783C51.45 26.8736 51.674 26.919 51.93 26.919C52.1594 26.919 52.3594 26.8843 52.53 26.815C52.706 26.7456 52.866 26.6416 53.01 26.503L53.674 27.223C53.4767 27.447 53.2287 27.6203 52.93 27.743C52.6314 27.8603 52.2874 27.919 51.898 27.919ZM56.2569 27.919C55.8889 27.919 55.5342 27.8763 55.1929 27.791C54.8569 27.7003 54.5902 27.5883 54.3929 27.455L54.8089 26.559C55.0062 26.6816 55.2382 26.783 55.5049 26.863C55.7769 26.9376 56.0436 26.975 56.3049 26.975C56.5929 26.975 56.7956 26.9403 56.9129 26.871C57.0356 26.8016 57.0969 26.7056 57.0969 26.583C57.0969 26.4816 57.0489 26.407 56.9529 26.359C56.8622 26.3056 56.7396 26.2656 56.5849 26.239C56.4302 26.2123 56.2596 26.1856 56.0729 26.159C55.8916 26.1323 55.7076 26.0976 55.5209 26.055C55.3342 26.007 55.1636 25.9376 55.0089 25.847C54.8542 25.7563 54.7289 25.6336 54.6329 25.479C54.5422 25.3243 54.4969 25.1243 54.4969 24.879C54.4969 24.607 54.5742 24.367 54.7289 24.159C54.8889 23.951 55.1182 23.7883 55.4169 23.671C55.7156 23.5483 56.0729 23.487 56.4889 23.487C56.7822 23.487 57.0809 23.519 57.3849 23.583C57.6889 23.647 57.9422 23.7403 58.1449 23.863L57.7289 24.751C57.5209 24.6283 57.3102 24.5456 57.0969 24.503C56.8889 24.455 56.6862 24.431 56.4889 24.431C56.2116 24.431 56.0089 24.4683 55.8809 24.543C55.7529 24.6176 55.6889 24.7136 55.6889 24.831C55.6889 24.9376 55.7342 25.0176 55.8249 25.071C55.9209 25.1243 56.0462 25.167 56.2009 25.199C56.3556 25.231 56.5236 25.2603 56.7049 25.287C56.8916 25.3083 57.0782 25.343 57.2649 25.391C57.4516 25.439 57.6196 25.5083 57.7689 25.599C57.9236 25.6843 58.0489 25.8043 58.1449 25.959C58.2409 26.1083 58.2889 26.3056 58.2889 26.551C58.2889 26.8176 58.2089 27.055 58.0489 27.263C57.8889 27.4656 57.6569 27.6256 57.3529 27.743C57.0542 27.8603 56.6889 27.919 56.2569 27.919ZM60.5069 27.919C60.1389 27.919 59.7842 27.8763 59.4429 27.791C59.1069 27.7003 58.8402 27.5883 58.6429 27.455L59.0589 26.559C59.2562 26.6816 59.4882 26.783 59.7549 26.863C60.0269 26.9376 60.2936 26.975 60.5549 26.975C60.8429 26.975 61.0456 26.9403 61.1629 26.871C61.2856 26.8016 61.3469 26.7056 61.3469 26.583C61.3469 26.4816 61.2989 26.407 61.2029 26.359C61.1122 26.3056 60.9896 26.2656 60.8349 26.239C60.6802 26.2123 60.5096 26.1856 60.3229 26.159C60.1416 26.1323 59.9576 26.0976 59.7709 26.055C59.5842 26.007 59.4136 25.9376 59.2589 25.847C59.1042 25.7563 58.9789 25.6336 58.8829 25.479C58.7922 25.3243 58.7469 25.1243 58.7469 24.879C58.7469 24.607 58.8242 24.367 58.9789 24.159C59.1389 23.951 59.3682 23.7883 59.6669 23.671C59.9656 23.5483 60.3229 23.487 60.7389 23.487C61.0322 23.487 61.3309 23.519 61.6349 23.583C61.9389 23.647 62.1922 23.7403 62.3949 23.863L61.9789 24.751C61.7709 24.6283 61.5602 24.5456 61.3469 24.503C61.1389 24.455 60.9362 24.431 60.7389 24.431C60.4616 24.431 60.2589 24.4683 60.1309 24.543C60.0029 24.6176 59.9389 24.7136 59.9389 24.831C59.9389 24.9376 59.9842 25.0176 60.0749 25.071C60.1709 25.1243 60.2962 25.167 60.4509 25.199C60.6056 25.231 60.7736 25.2603 60.9549 25.287C61.1416 25.3083 61.3282 25.343 61.5149 25.391C61.7016 25.439 61.8696 25.5083 62.0189 25.599C62.1736 25.6843 62.2989 25.8043 62.3949 25.959C62.4909 26.1083 62.5389 26.3056 62.5389 26.551C62.5389 26.8176 62.4589 27.055 62.2989 27.263C62.1389 27.4656 61.9069 27.6256 61.6029 27.743C61.3042 27.8603 60.9389 27.919 60.5069 27.919ZM68.2145 27.855V27.015L68.1345 26.831V25.327C68.1345 25.0603 68.0519 24.8523 67.8865 24.703C67.7265 24.5536 67.4785 24.479 67.1425 24.479C66.9132 24.479 66.6865 24.5163 66.4625 24.591C66.2439 24.6603 66.0572 24.7563 65.9025 24.879L65.4545 24.007C65.6892 23.8416 65.9719 23.7136 66.3025 23.623C66.6332 23.5323 66.9692 23.487 67.3105 23.487C67.9665 23.487 68.4759 23.6416 68.8385 23.951C69.2012 24.2603 69.3825 24.743 69.3825 25.399V27.855H68.2145ZM66.9025 27.919C66.5665 27.919 66.2785 27.863 66.0385 27.751C65.7985 27.6336 65.6145 27.4763 65.4865 27.279C65.3585 27.0816 65.2945 26.8603 65.2945 26.615C65.2945 26.359 65.3559 26.135 65.4785 25.943C65.6065 25.751 65.8065 25.6016 66.0785 25.495C66.3505 25.383 66.7052 25.327 67.1425 25.327H68.2865V26.055H67.2785C66.9852 26.055 66.7825 26.103 66.6705 26.199C66.5639 26.295 66.5105 26.415 66.5105 26.559C66.5105 26.719 66.5719 26.847 66.6945 26.943C66.8225 27.0336 66.9959 27.079 67.2145 27.079C67.4225 27.079 67.6092 27.031 67.7745 26.935C67.9399 26.8336 68.0599 26.687 68.1345 26.495L68.3265 27.071C68.2359 27.3483 68.0705 27.559 67.8305 27.703C67.5905 27.847 67.2812 27.919 66.9025 27.919ZM73.128 23.487C73.4694 23.487 73.7734 23.5563 74.04 23.695C74.312 23.8283 74.5254 24.0363 74.68 24.319C74.8347 24.5963 74.912 24.9536 74.912 25.391V27.855H73.664V25.583C73.664 25.2363 73.5867 24.9803 73.432 24.815C73.2827 24.6496 73.0694 24.567 72.792 24.567C72.5947 24.567 72.416 24.6096 72.256 24.695C72.1014 24.775 71.9787 24.9003 71.888 25.071C71.8027 25.2416 71.76 25.4603 71.76 25.727V27.855H70.512V23.551H71.704V24.743L71.48 24.383C71.6347 24.095 71.856 23.8736 72.144 23.719C72.432 23.5643 72.76 23.487 73.128 23.487ZM76.0433 27.855V23.551H77.2913V27.855H76.0433ZM76.6673 22.951C76.438 22.951 76.2513 22.8843 76.1073 22.751C75.9633 22.6176 75.8913 22.4523 75.8913 22.255C75.8913 22.0576 75.9633 21.8923 76.1073 21.759C76.2513 21.6256 76.438 21.559 76.6673 21.559C76.8966 21.559 77.0833 21.623 77.2273 21.751C77.3713 21.8736 77.4433 22.0336 77.4433 22.231C77.4433 22.439 77.3713 22.6123 77.2273 22.751C77.0886 22.8843 76.902 22.951 76.6673 22.951ZM83.9615 23.487C84.3029 23.487 84.6042 23.5563 84.8655 23.695C85.1322 23.8283 85.3402 24.0363 85.4895 24.319C85.6442 24.5963 85.7215 24.9536 85.7215 25.391V27.855H84.4735V25.583C84.4735 25.2363 84.4015 24.9803 84.2575 24.815C84.1135 24.6496 83.9109 24.567 83.6495 24.567C83.4682 24.567 83.3055 24.6096 83.1615 24.695C83.0175 24.775 82.9055 24.8976 82.8255 25.063C82.7455 25.2283 82.7055 25.439 82.7055 25.695V27.855H81.4575V25.583C81.4575 25.2363 81.3855 24.9803 81.2415 24.815C81.1029 24.6496 80.9029 24.567 80.6415 24.567C80.4602 24.567 80.2975 24.6096 80.1535 24.695C80.0095 24.775 79.8975 24.8976 79.8175 25.063C79.7375 25.2283 79.6975 25.439 79.6975 25.695V27.855H78.4495V23.551H79.6415V24.727L79.4175 24.383C79.5669 24.0896 79.7775 23.8683 80.0495 23.719C80.3269 23.5643 80.6415 23.487 80.9935 23.487C81.3882 23.487 81.7322 23.5883 82.0255 23.791C82.3242 23.9883 82.5215 24.2923 82.6175 24.703L82.1775 24.583C82.3215 24.247 82.5509 23.9803 82.8655 23.783C83.1855 23.5856 83.5509 23.487 83.9615 23.487ZM89.4802 27.855V27.015L89.4002 26.831V25.327C89.4002 25.0603 89.3175 24.8523 89.1522 24.703C88.9922 24.5536 88.7442 24.479 88.4082 24.479C88.1788 24.479 87.9522 24.5163 87.7282 24.591C87.5095 24.6603 87.3228 24.7563 87.1682 24.879L86.7202 24.007C86.9548 23.8416 87.2375 23.7136 87.5682 23.623C87.8988 23.5323 88.2348 23.487 88.5762 23.487C89.2322 23.487 89.7415 23.6416 90.1042 23.951C90.4668 24.2603 90.6482 24.743 90.6482 25.399V27.855H89.4802ZM88.1682 27.919C87.8322 27.919 87.5442 27.863 87.3042 27.751C87.0642 27.6336 86.8802 27.4763 86.7522 27.279C86.6242 27.0816 86.5602 26.8603 86.5602 26.615C86.5602 26.359 86.6215 26.135 86.7442 25.943C86.8722 25.751 87.0722 25.6016 87.3442 25.495C87.6162 25.383 87.9708 25.327 88.4082 25.327H89.5522V26.055H88.5442C88.2508 26.055 88.0482 26.103 87.9362 26.199C87.8295 26.295 87.7762 26.415 87.7762 26.559C87.7762 26.719 87.8375 26.847 87.9602 26.943C88.0882 27.0336 88.2615 27.079 88.4802 27.079C88.6882 27.079 88.8748 27.031 89.0402 26.935C89.2055 26.8336 89.3255 26.687 89.4002 26.495L89.5922 27.071C89.5015 27.3483 89.3362 27.559 89.0962 27.703C88.8562 27.847 88.5468 27.919 88.1682 27.919ZM93.5377 27.919C93.031 27.919 92.6363 27.791 92.3537 27.535C92.071 27.2736 91.9297 26.887 91.9297 26.375V22.599H93.1777V26.359C93.1777 26.5403 93.2257 26.6816 93.3217 26.783C93.4177 26.879 93.5483 26.927 93.7137 26.927C93.911 26.927 94.079 26.8736 94.2177 26.767L94.5537 27.647C94.4257 27.7376 94.271 27.807 94.0897 27.855C93.9137 27.8976 93.7297 27.919 93.5377 27.919ZM91.2657 24.607V23.647H94.2497V24.607H91.2657ZM97.2574 27.919C96.7667 27.919 96.3347 27.823 95.9614 27.631C95.5934 27.439 95.3081 27.1776 95.1054 26.847C94.9027 26.511 94.8014 26.1296 94.8014 25.703C94.8014 25.271 94.9001 24.8896 95.0974 24.559C95.3001 24.223 95.5747 23.9616 95.9214 23.775C96.2681 23.583 96.6601 23.487 97.0974 23.487C97.5187 23.487 97.8974 23.5776 98.2334 23.759C98.5747 23.935 98.8441 24.191 99.0414 24.527C99.2387 24.8576 99.3374 25.255 99.3374 25.719C99.3374 25.767 99.3347 25.823 99.3294 25.887C99.3241 25.9456 99.3187 26.0016 99.3134 26.055H95.8174V25.327H98.6574L98.1774 25.543C98.1774 25.319 98.1321 25.1243 98.0414 24.959C97.9507 24.7936 97.8254 24.6656 97.6654 24.575C97.5054 24.479 97.3187 24.431 97.1054 24.431C96.8921 24.431 96.7027 24.479 96.5374 24.575C96.3774 24.6656 96.2521 24.7963 96.1614 24.967C96.0707 25.1323 96.0254 25.3296 96.0254 25.559V25.751C96.0254 25.9856 96.0761 26.1936 96.1774 26.375C96.2841 26.551 96.4307 26.687 96.6174 26.783C96.8094 26.8736 97.0334 26.919 97.2894 26.919C97.5187 26.919 97.7187 26.8843 97.8894 26.815C98.0654 26.7456 98.2254 26.6416 98.3694 26.503L99.0334 27.223C98.8361 27.447 98.5881 27.6203 98.2894 27.743C97.9907 27.8603 97.6467 27.919 97.2574 27.919ZM104.978 27.919C104.599 27.919 104.274 27.839 104.002 27.679C103.73 27.519 103.522 27.2763 103.378 26.951C103.234 26.6203 103.162 26.2043 103.162 25.703C103.162 25.1963 103.237 24.7803 103.386 24.455C103.541 24.1296 103.754 23.887 104.026 23.727C104.298 23.567 104.615 23.487 104.978 23.487C105.383 23.487 105.746 23.5776 106.066 23.759C106.391 23.9403 106.647 24.1963 106.834 24.527C107.026 24.8576 107.122 25.2496 107.122 25.703C107.122 26.151 107.026 26.5403 106.834 26.871C106.647 27.2016 106.391 27.4603 106.066 27.647C105.746 27.8283 105.383 27.919 104.978 27.919ZM102.434 27.855V21.919H103.682V24.423L103.602 25.695L103.626 26.975V27.855H102.434ZM104.762 26.895C104.97 26.895 105.154 26.847 105.314 26.751C105.479 26.655 105.61 26.519 105.706 26.343C105.807 26.1616 105.858 25.9483 105.858 25.703C105.858 25.4523 105.807 25.239 105.706 25.063C105.61 24.887 105.479 24.751 105.314 24.655C105.154 24.559 104.97 24.511 104.762 24.511C104.554 24.511 104.367 24.559 104.202 24.655C104.037 24.751 103.906 24.887 103.81 25.063C103.714 25.239 103.666 25.4523 103.666 25.703C103.666 25.9483 103.714 26.1616 103.81 26.343C103.906 26.519 104.037 26.655 104.202 26.751C104.367 26.847 104.554 26.895 104.762 26.895ZM109.773 27.919C109.416 27.919 109.096 27.8496 108.813 27.711C108.536 27.5723 108.32 27.3616 108.165 27.079C108.011 26.791 107.933 26.4256 107.933 25.983V23.551H109.181V25.799C109.181 26.1563 109.256 26.4203 109.405 26.591C109.56 26.7563 109.776 26.839 110.053 26.839C110.245 26.839 110.416 26.799 110.565 26.719C110.715 26.6336 110.832 26.5056 110.917 26.335C111.003 26.159 111.045 25.9403 111.045 25.679V23.551H112.293V27.855H111.109V26.671L111.325 27.015C111.181 27.3136 110.968 27.5403 110.685 27.695C110.408 27.8443 110.104 27.919 109.773 27.919ZM115.21 27.919C114.703 27.919 114.308 27.791 114.026 27.535C113.743 27.2736 113.602 26.887 113.602 26.375V22.599H114.85V26.359C114.85 26.5403 114.898 26.6816 114.994 26.783C115.09 26.879 115.22 26.927 115.386 26.927C115.583 26.927 115.751 26.8736 115.89 26.767L116.226 27.647C116.098 27.7376 115.943 27.807 115.762 27.855C115.586 27.8976 115.402 27.919 115.21 27.919ZM112.938 24.607V23.647H115.922V24.607H112.938ZM118.592 27.919C118.086 27.919 117.691 27.791 117.408 27.535C117.126 27.2736 116.984 26.887 116.984 26.375V22.599H118.232V26.359C118.232 26.5403 118.28 26.6816 118.376 26.783C118.472 26.879 118.603 26.927 118.768 26.927C118.966 26.927 119.134 26.8736 119.272 26.767L119.608 27.647C119.48 27.7376 119.326 27.807 119.144 27.855C118.968 27.8976 118.784 27.919 118.592 27.919ZM116.32 24.607V23.647H119.304V24.607H116.32ZM122.224 27.919C121.765 27.919 121.357 27.823 121 27.631C120.648 27.439 120.368 27.1776 120.16 26.847C119.957 26.511 119.856 26.1296 119.856 25.703C119.856 25.271 119.957 24.8896 120.16 24.559C120.368 24.223 120.648 23.9616 121 23.775C121.357 23.583 121.765 23.487 122.224 23.487C122.677 23.487 123.083 23.583 123.44 23.775C123.797 23.9616 124.077 24.2203 124.28 24.551C124.483 24.8816 124.584 25.2656 124.584 25.703C124.584 26.1296 124.483 26.511 124.28 26.847C124.077 27.1776 123.797 27.439 123.44 27.631C123.083 27.823 122.677 27.919 122.224 27.919ZM122.224 26.895C122.432 26.895 122.619 26.847 122.784 26.751C122.949 26.655 123.08 26.519 123.176 26.343C123.272 26.1616 123.32 25.9483 123.32 25.703C123.32 25.4523 123.272 25.239 123.176 25.063C123.08 24.887 122.949 24.751 122.784 24.655C122.619 24.559 122.432 24.511 122.224 24.511C122.016 24.511 121.829 24.559 121.664 24.655C121.499 24.751 121.365 24.887 121.264 25.063C121.168 25.239 121.12 25.4523 121.12 25.703C121.12 25.9483 121.168 26.1616 121.264 26.343C121.365 26.519 121.499 26.655 121.664 26.751C121.829 26.847 122.016 26.895 122.224 26.895ZM128.034 23.487C128.376 23.487 128.68 23.5563 128.946 23.695C129.218 23.8283 129.432 24.0363 129.586 24.319C129.741 24.5963 129.818 24.9536 129.818 25.391V27.855H128.57V25.583C128.57 25.2363 128.493 24.9803 128.338 24.815C128.189 24.6496 127.976 24.567 127.698 24.567C127.501 24.567 127.322 24.6096 127.162 24.695C127.008 24.775 126.885 24.9003 126.794 25.071C126.709 25.2416 126.666 25.4603 126.666 25.727V27.855H125.418V23.551H126.61V24.743L126.386 24.383C126.541 24.095 126.762 23.8736 127.05 23.719C127.338 23.5643 127.666 23.487 128.034 23.487ZM131.422 27.919C131.208 27.919 131.024 27.847 130.87 27.703C130.72 27.5536 130.646 27.3643 130.646 27.135C130.646 26.9056 130.72 26.7216 130.87 26.583C131.024 26.439 131.208 26.367 131.422 26.367C131.64 26.367 131.824 26.439 131.974 26.583C132.123 26.7216 132.198 26.9056 132.198 27.135C132.198 27.3643 132.123 27.5536 131.974 27.703C131.824 27.847 131.64 27.919 131.422 27.919Z" fill="#333333"/>
<path fill-rule="evenodd" clip-rule="evenodd" d="M158.801 47.6464C158.801 44.822 157.701 42.1132 155.742 40.116C153.783 38.1189 151.127 36.9968 148.357 36.9968C122.678 36.9968 66.8921 36.9998 66.8921 36.9998L62.2991 41.2502H46.4223L41.8261 36.9998H27.2042C24.4342 36.9998 21.7777 38.1218 19.8191 40.119C17.8604 42.1162 16.76 44.825 16.76 47.6494C16.76 47.6525 16.76 47.6557 16.76 47.6588C16.76 50.4833 17.8604 53.192 19.8191 55.1892C21.7777 57.1863 24.4342 58.3084 27.2042 58.3084C34.0833 58.3084 41.8261 58.3084 41.8261 58.3084L46.4223 62.5587H62.2959L66.8921 58.3084L148.357 58.3055C151.127 58.3055 153.783 57.1834 155.742 55.1862C157.701 53.1891 158.801 50.4803 158.801 47.6558C158.801 47.6527 158.801 47.6495 158.801 47.6464Z" fill="#30DCFF"/>
<path fill-rule="evenodd" clip-rule="evenodd" d="M158.801 47.6496C158.801 44.8251 157.701 42.1164 155.742 40.1192C153.783 38.122 151.127 37 148.357 37C122.678 37 66.8921 37 66.8921 37L62.2991 41.2504H46.4223L41.8261 37H27.2042C24.4342 37 21.7777 38.122 19.8191 40.1192C17.8604 42.1164 16.76 44.8251 16.76 47.6496C16.76 47.6527 16.76 47.6543 16.76 47.6543H19.2666C19.2666 43.0488 22.9282 39.3151 27.4449 39.3151C33.5352 39.3151 40.8003 39.3151 40.8003 39.3151L45.3965 43.5655H63.3405L67.9367 39.3151H148.117C152.633 39.3151 156.295 43.0487 156.295 47.6542L158.801 47.6543V47.6496Z" fill="#93EDFF"/>
<path fill-rule="evenodd" clip-rule="evenodd" d="M158.801 47.6519H156.294V47.6525C156.294 49.8632 155.433 51.9835 153.9 53.5467C152.367 55.11 150.288 55.9882 148.12 55.9882C124.444 55.9882 65.8539 55.9882 65.8539 55.9882L61.2577 60.2385H47.4606L42.8644 55.9882H27.4416C22.9267 55.9882 19.2666 52.2562 19.2666 47.6525V47.6519H16.76V47.6566C16.76 50.481 17.8604 53.1898 19.8191 55.187C21.7777 57.1841 24.4342 58.3062 27.2042 58.3062C34.0833 58.3062 41.8261 58.3062 41.8261 58.3062L46.4223 62.5565H62.2959L66.8921 58.3062H148.357C154.125 58.3062 158.801 53.5384 158.801 47.6569C158.801 47.6535 158.801 47.6519 158.801 47.6519Z" fill="#08A0BF"/>
<path d="M25.664 51.3352V45.7352H28.088C28.5893 45.7352 29.0213 45.8179 29.384 45.9832C29.7467 46.1432 30.0267 46.3752 30.224 46.6792C30.4213 46.9832 30.52 47.3459 30.52 47.7672C30.52 48.1832 30.4213 48.5432 30.224 48.8472C30.0267 49.1512 29.7467 49.3859 29.384 49.5512C29.0213 49.7112 28.5893 49.7912 28.088 49.7912H26.384L26.96 49.2072V51.3352H25.664ZM26.96 49.3512L26.384 48.7352H28.016C28.416 48.7352 28.7147 48.6499 28.912 48.4792C29.1093 48.3085 29.208 48.0712 29.208 47.7672C29.208 47.4579 29.1093 47.2179 28.912 47.0472C28.7147 46.8765 28.416 46.7912 28.016 46.7912H26.384L26.96 46.1752V49.3512ZM33.2514 51.3992C32.894 51.3992 32.574 51.3299 32.2914 51.1912C32.014 51.0525 31.798 50.8419 31.6434 50.5592C31.4887 50.2712 31.4114 49.9059 31.4114 49.4632V47.0312H32.6594V49.2792C32.6594 49.6365 32.734 49.9005 32.8834 50.0712C33.038 50.2365 33.254 50.3192 33.5314 50.3192C33.7234 50.3192 33.894 50.2792 34.0434 50.1992C34.1927 50.1139 34.31 49.9859 34.3954 49.8152C34.4807 49.6392 34.5234 49.4205 34.5234 49.1592V47.0312H35.7714V51.3352H34.5874V50.1512L34.8034 50.4952C34.6594 50.7939 34.446 51.0205 34.1634 51.1752C33.886 51.3245 33.582 51.3992 33.2514 51.3992ZM38.6876 51.3992C38.1809 51.3992 37.7862 51.2712 37.5036 51.0152C37.2209 50.7539 37.0796 50.3672 37.0796 49.8552V46.0792H38.3276V49.8392C38.3276 50.0205 38.3756 50.1619 38.4716 50.2632C38.5676 50.3592 38.6982 50.4072 38.8636 50.4072C39.0609 50.4072 39.2289 50.3539 39.3676 50.2472L39.7036 51.1272C39.5756 51.2179 39.4209 51.2872 39.2396 51.3352C39.0636 51.3779 38.8796 51.3992 38.6876 51.3992ZM36.4156 48.0872V47.1272H39.3996V48.0872H36.4156ZM45.2858 46.9672C45.6271 46.9672 45.9311 47.0365 46.1978 47.1752C46.4698 47.3085 46.6831 47.5165 46.8378 47.7992C46.9924 48.0765 47.0698 48.4339 47.0698 48.8712V51.3352H45.8218V49.0632C45.8218 48.7165 45.7444 48.4605 45.5898 48.2952C45.4404 48.1299 45.2271 48.0472 44.9498 48.0472C44.7524 48.0472 44.5738 48.0899 44.4138 48.1752C44.2591 48.2552 44.1364 48.3805 44.0458 48.5512C43.9604 48.7219 43.9178 48.9405 43.9178 49.2072V51.3352H42.6698V45.3992H43.9178V48.2232L43.6378 47.8632C43.7924 47.5752 44.0138 47.3539 44.3018 47.1992C44.5898 47.0445 44.9178 46.9672 45.2858 46.9672ZM50.841 51.3352V50.4952L50.761 50.3112V48.8072C50.761 48.5405 50.6783 48.3325 50.513 48.1832C50.353 48.0339 50.105 47.9592 49.769 47.9592C49.5397 47.9592 49.313 47.9965 49.089 48.0712C48.8703 48.1405 48.6837 48.2365 48.529 48.3592L48.081 47.4872C48.3157 47.3219 48.5983 47.1939 48.929 47.1032C49.2597 47.0125 49.5957 46.9672 49.937 46.9672C50.593 46.9672 51.1023 47.1219 51.465 47.4312C51.8277 47.7405 52.009 48.2232 52.009 48.8792V51.3352H50.841ZM49.529 51.3992C49.193 51.3992 48.905 51.3432 48.665 51.2312C48.425 51.1139 48.241 50.9565 48.113 50.7592C47.985 50.5619 47.921 50.3405 47.921 50.0952C47.921 49.8392 47.9823 49.6152 48.105 49.4232C48.233 49.2312 48.433 49.0819 48.705 48.9752C48.977 48.8632 49.3317 48.8072 49.769 48.8072H50.913V49.5352H49.905C49.6117 49.5352 49.409 49.5832 49.297 49.6792C49.1903 49.7752 49.137 49.8952 49.137 50.0392C49.137 50.1992 49.1983 50.3272 49.321 50.4232C49.449 50.5139 49.6223 50.5592 49.841 50.5592C50.049 50.5592 50.2357 50.5112 50.401 50.4152C50.5663 50.3139 50.6863 50.1672 50.761 49.9752L50.953 50.5512C50.8623 50.8285 50.697 51.0392 50.457 51.1832C50.217 51.3272 49.9077 51.3992 49.529 51.3992ZM55.7545 46.9672C56.0958 46.9672 56.3998 47.0365 56.6665 47.1752C56.9385 47.3085 57.1518 47.5165 57.3065 47.7992C57.4612 48.0765 57.5385 48.4339 57.5385 48.8712V51.3352H56.2905V49.0632C56.2905 48.7165 56.2132 48.4605 56.0585 48.2952C55.9092 48.1299 55.6958 48.0472 55.4185 48.0472C55.2212 48.0472 55.0425 48.0899 54.8825 48.1752C54.7278 48.2552 54.6052 48.3805 54.5145 48.5512C54.4292 48.7219 54.3865 48.9405 54.3865 49.2072V51.3352H53.1385V47.0312H54.3305V48.2232L54.1065 47.8632C54.2612 47.5752 54.4825 47.3539 54.7705 47.1992C55.0585 47.0445 55.3865 46.9672 55.7545 46.9672ZM60.549 51.3992C60.1437 51.3992 59.7783 51.3085 59.453 51.1272C59.1277 50.9405 58.869 50.6819 58.677 50.3512C58.4903 50.0205 58.397 49.6312 58.397 49.1832C58.397 48.7299 58.4903 48.3379 58.677 48.0072C58.869 47.6765 59.1277 47.4205 59.453 47.2392C59.7783 47.0579 60.1437 46.9672 60.549 46.9672C60.9117 46.9672 61.229 47.0472 61.501 47.2072C61.773 47.3672 61.9837 47.6099 62.133 47.9352C62.2823 48.2605 62.357 48.6765 62.357 49.1832C62.357 49.6845 62.285 50.1005 62.141 50.4312C61.997 50.7565 61.789 50.9992 61.517 51.1592C61.2503 51.3192 60.9277 51.3992 60.549 51.3992ZM60.765 50.3752C60.9677 50.3752 61.1517 50.3272 61.317 50.2312C61.4823 50.1352 61.613 49.9992 61.709 49.8232C61.8103 49.6419 61.861 49.4285 61.861 49.1832C61.861 48.9325 61.8103 48.7192 61.709 48.5432C61.613 48.3672 61.4823 48.2312 61.317 48.1352C61.1517 48.0392 60.9677 47.9912 60.765 47.9912C60.557 47.9912 60.3703 48.0392 60.205 48.1352C60.0397 48.2312 59.9063 48.3672 59.805 48.5432C59.709 48.7192 59.661 48.9325 59.661 49.1832C59.661 49.4285 59.709 49.6419 59.805 49.8232C59.9063 49.9992 60.0397 50.1352 60.205 50.2312C60.3703 50.3272 60.557 50.3752 60.765 50.3752ZM61.893 51.3352V50.4552L61.917 49.1752L61.837 47.9032V45.3992H63.085V51.3352H61.893ZM65.6881 51.3992C65.3201 51.3992 64.9654 51.3565 64.6241 51.2712C64.2881 51.1805 64.0214 51.0685 63.8241 50.9352L64.2401 50.0392C64.4374 50.1619 64.6694 50.2632 64.9361 50.3432C65.2081 50.4179 65.4747 50.4552 65.7361 50.4552C66.0241 50.4552 66.2267 50.4205 66.3441 50.3512C66.4667 50.2819 66.5281 50.1859 66.5281 50.0632C66.5281 49.9619 66.4801 49.8872 66.3841 49.8392C66.2934 49.7859 66.1707 49.7459 66.0161 49.7192C65.8614 49.6925 65.6907 49.6659 65.5041 49.6392C65.3227 49.6125 65.1387 49.5779 64.9521 49.5352C64.7654 49.4872 64.5947 49.4179 64.4401 49.3272C64.2854 49.2365 64.1601 49.1139 64.0641 48.9592C63.9734 48.8045 63.9281 48.6045 63.9281 48.3592C63.9281 48.0872 64.0054 47.8472 64.1601 47.6392C64.3201 47.4312 64.5494 47.2685 64.8481 47.1512C65.1467 47.0285 65.5041 46.9672 65.9201 46.9672C66.2134 46.9672 66.5121 46.9992 66.8161 47.0632C67.1201 47.1272 67.3734 47.2205 67.5761 47.3432L67.1601 48.2312C66.9521 48.1085 66.7414 48.0259 66.5281 47.9832C66.3201 47.9352 66.1174 47.9112 65.9201 47.9112C65.6427 47.9112 65.4401 47.9485 65.3121 48.0232C65.1841 48.0979 65.1201 48.1939 65.1201 48.3112C65.1201 48.4179 65.1654 48.4979 65.2561 48.5512C65.3521 48.6045 65.4774 48.6472 65.6321 48.6792C65.7867 48.7112 65.9547 48.7405 66.1361 48.7672C66.3227 48.7885 66.5094 48.8232 66.6961 48.8712C66.8827 48.9192 67.0507 48.9885 67.2001 49.0792C67.3547 49.1645 67.4801 49.2845 67.5761 49.4392C67.6721 49.5885 67.7201 49.7859 67.7201 50.0312C67.7201 50.2979 67.6401 50.5352 67.4801 50.7432C67.3201 50.9459 67.0881 51.1059 66.7841 51.2232C66.4854 51.3405 66.1201 51.3992 65.6881 51.3992ZM72.8037 51.3992C72.345 51.3992 71.937 51.3032 71.5797 51.1112C71.2277 50.9192 70.9477 50.6579 70.7397 50.3272C70.537 49.9912 70.4357 49.6099 70.4357 49.1832C70.4357 48.7512 70.537 48.3699 70.7397 48.0392C70.9477 47.7032 71.2277 47.4419 71.5797 47.2552C71.937 47.0632 72.345 46.9672 72.8037 46.9672C73.257 46.9672 73.6624 47.0632 74.0197 47.2552C74.377 47.4419 74.657 47.7005 74.8597 48.0312C75.0624 48.3619 75.1637 48.7459 75.1637 49.1832C75.1637 49.6099 75.0624 49.9912 74.8597 50.3272C74.657 50.6579 74.377 50.9192 74.0197 51.1112C73.6624 51.3032 73.257 51.3992 72.8037 51.3992ZM72.8037 50.3752C73.0117 50.3752 73.1984 50.3272 73.3637 50.2312C73.529 50.1352 73.6597 49.9992 73.7557 49.8232C73.8517 49.6419 73.8997 49.4285 73.8997 49.1832C73.8997 48.9325 73.8517 48.7192 73.7557 48.5432C73.6597 48.3672 73.529 48.2312 73.3637 48.1352C73.1984 48.0392 73.0117 47.9912 72.8037 47.9912C72.5957 47.9912 72.409 48.0392 72.2437 48.1352C72.0784 48.2312 71.945 48.3672 71.8437 48.5432C71.7477 48.7192 71.6997 48.9325 71.6997 49.1832C71.6997 49.4285 71.7477 49.6419 71.8437 49.8232C71.945 49.9992 72.0784 50.1352 72.2437 50.2312C72.409 50.3272 72.5957 50.3752 72.8037 50.3752ZM78.6139 46.9672C78.9552 46.9672 79.2592 47.0365 79.5259 47.1752C79.7979 47.3085 80.0112 47.5165 80.1659 47.7992C80.3205 48.0765 80.3979 48.4339 80.3979 48.8712V51.3352H79.1499V49.0632C79.1499 48.7165 79.0725 48.4605 78.9179 48.2952C78.7685 48.1299 78.5552 48.0472 78.2779 48.0472C78.0805 48.0472 77.9019 48.0899 77.7419 48.1752C77.5872 48.2552 77.4645 48.3805 77.3739 48.5512C77.2885 48.7219 77.2459 48.9405 77.2459 49.2072V51.3352H75.9979V47.0312H77.1899V48.2232L76.9659 47.8632C77.1205 47.5752 77.3419 47.3539 77.6299 47.1992C77.9179 47.0445 78.2459 46.9672 78.6139 46.9672ZM86.4108 46.9672C86.7521 46.9672 87.0561 47.0365 87.3228 47.1752C87.5948 47.3085 87.8081 47.5165 87.9628 47.7992C88.1174 48.0765 88.1948 48.4339 88.1948 48.8712V51.3352H86.9468V49.0632C86.9468 48.7165 86.8694 48.4605 86.7148 48.2952C86.5654 48.1299 86.3521 48.0472 86.0748 48.0472C85.8774 48.0472 85.6988 48.0899 85.5388 48.1752C85.3841 48.2552 85.2614 48.3805 85.1708 48.5512C85.0854 48.7219 85.0428 48.9405 85.0428 49.2072V51.3352H83.7948V45.3992H85.0428V48.2232L84.7628 47.8632C84.9174 47.5752 85.1388 47.3539 85.4268 47.1992C85.7148 47.0445 86.0428 46.9672 86.4108 46.9672ZM89.326 51.3352V47.0312H90.574V51.3352H89.326ZM89.95 46.4312C89.7207 46.4312 89.534 46.3645 89.39 46.2312C89.246 46.0979 89.174 45.9325 89.174 45.7352C89.174 45.5379 89.246 45.3725 89.39 45.2392C89.534 45.1059 89.7207 45.0392 89.95 45.0392C90.1793 45.0392 90.366 45.1032 90.51 45.2312C90.654 45.3539 90.726 45.5139 90.726 45.7112C90.726 45.9192 90.654 46.0925 90.51 46.2312C90.3713 46.3645 90.1847 46.4312 89.95 46.4312ZM94.2763 51.3992C93.9136 51.3992 93.5963 51.3192 93.3243 51.1592C93.0523 50.9992 92.8389 50.7565 92.6843 50.4312C92.5349 50.1005 92.4603 49.6845 92.4603 49.1832C92.4603 48.6765 92.5323 48.2605 92.6763 47.9352C92.8203 47.6099 93.0283 47.3672 93.3003 47.2072C93.5723 47.0472 93.8976 46.9672 94.2763 46.9672C94.6816 46.9672 95.0443 47.0605 95.3643 47.2472C95.6896 47.4285 95.9456 47.6845 96.1323 48.0152C96.3243 48.3459 96.4203 48.7352 96.4203 49.1832C96.4203 49.6365 96.3243 50.0285 96.1323 50.3592C95.9456 50.6899 95.6896 50.9459 95.3643 51.1272C95.0443 51.3085 94.6816 51.3992 94.2763 51.3992ZM91.7323 52.8872V47.0312H92.9243V47.9112L92.9003 49.1912L92.9803 50.4632V52.8872H91.7323ZM94.0603 50.3752C94.2683 50.3752 94.4523 50.3272 94.6123 50.2312C94.7776 50.1352 94.9083 49.9992 95.0043 49.8232C95.1056 49.6419 95.1562 49.4285 95.1562 49.1832C95.1562 48.9325 95.1056 48.7192 95.0043 48.5432C94.9083 48.3672 94.7776 48.2312 94.6123 48.1352C94.4523 48.0392 94.2683 47.9912 94.0603 47.9912C93.8523 47.9912 93.6656 48.0392 93.5003 48.1352C93.3349 48.2312 93.2043 48.3672 93.1083 48.5432C93.0123 48.7192 92.9643 48.9325 92.9643 49.1832C92.9643 49.4285 93.0123 49.6419 93.1083 49.8232C93.2043 49.9992 93.3349 50.1352 93.5003 50.2312C93.6656 50.3272 93.8523 50.3752 94.0603 50.3752ZM98.7037 51.3992C98.3357 51.3992 97.981 51.3565 97.6397 51.2712C97.3037 51.1805 97.037 51.0685 96.8397 50.9352L97.2557 50.0392C97.453 50.1619 97.685 50.2632 97.9517 50.3432C98.2237 50.4179 98.4904 50.4552 98.7517 50.4552C99.0397 50.4552 99.2424 50.4205 99.3597 50.3512C99.4824 50.2819 99.5437 50.1859 99.5437 50.0632C99.5437 49.9619 99.4957 49.8872 99.3997 49.8392C99.309 49.7859 99.1864 49.7459 99.0317 49.7192C98.877 49.6925 98.7064 49.6659 98.5197 49.6392C98.3384 49.6125 98.1544 49.5779 97.9677 49.5352C97.781 49.4872 97.6104 49.4179 97.4557 49.3272C97.301 49.2365 97.1757 49.1139 97.0797 48.9592C96.989 48.8045 96.9437 48.6045 96.9437 48.3592C96.9437 48.0872 97.021 47.8472 97.1757 47.6392C97.3357 47.4312 97.565 47.2685 97.8637 47.1512C98.1624 47.0285 98.5197 46.9672 98.9357 46.9672C99.229 46.9672 99.5277 46.9992 99.8317 47.0632C100.136 47.1272 100.389 47.2205 100.592 47.3432L100.176 48.2312C99.9677 48.1085 99.757 48.0259 99.5437 47.9832C99.3357 47.9352 99.133 47.9112 98.9357 47.9112C98.6584 47.9112 98.4557 47.9485 98.3277 48.0232C98.1997 48.0979 98.1357 48.1939 98.1357 48.3112C98.1357 48.4179 98.181 48.4979 98.2717 48.5512C98.3677 48.6045 98.493 48.6472 98.6477 48.6792C98.8024 48.7112 98.9704 48.7405 99.1517 48.7672C99.3384 48.7885 99.525 48.8232 99.7117 48.8712C99.8984 48.9192 100.066 48.9885 100.216 49.0792C100.37 49.1645 100.496 49.2845 100.592 49.4392C100.688 49.5885 100.736 49.7859 100.736 50.0312C100.736 50.2979 100.656 50.5352 100.496 50.7432C100.336 50.9459 100.104 51.1059 99.7997 51.2232C99.501 51.3405 99.1357 51.3992 98.7037 51.3992Z" fill="#333333"/>
<path fill-rule="evenodd" clip-rule="evenodd" d="M159.041 68.9814C159.041 66.1569 157.941 63.4482 155.982 61.451C154.023 59.4538 151.367 58.3318 148.597 58.3318C122.918 58.3318 67.1321 58.3348 67.1321 58.3348L62.5391 62.5851H46.6623L42.0661 58.3348H27.4442C24.6742 58.3348 22.0177 59.4568 20.0591 61.454C18.1004 63.4512 17 66.1599 17 68.9844C17 68.9875 17 68.9906 17 68.9938C17 71.8183 18.1004 74.5269 20.0591 76.5241C22.0177 78.5213 24.6742 79.6433 27.4442 79.6433C34.3233 79.6433 42.0661 79.6433 42.0661 79.6433L46.6623 83.8937H62.5359L67.1321 79.6433L148.597 79.6404C151.367 79.6404 154.023 78.5184 155.982 76.5212C157.941 74.524 159.041 71.8153 159.041 68.9908C159.041 68.9876 159.041 68.9845 159.041 68.9814Z" fill="#30DCFF"/>
<path fill-rule="evenodd" clip-rule="evenodd" d="M159.041 68.9846C159.041 66.1601 157.941 63.4514 155.982 61.4542C154.023 59.457 151.367 58.335 148.597 58.335C122.918 58.335 67.1321 58.335 67.1321 58.335L62.5391 62.5853H46.6623L42.0661 58.335H27.4442C24.6742 58.335 22.0177 59.457 20.0591 61.4542C18.1004 63.4514 17 66.1601 17 68.9846C17 68.9876 17 68.9893 17 68.9893H19.5066C19.5066 64.3838 23.1682 60.6501 27.6849 60.6501C33.7752 60.6501 41.0403 60.6501 41.0403 60.6501L45.6365 64.9005H63.5804L68.1767 60.6501H148.357C152.873 60.6501 156.535 64.3837 156.535 68.9892L159.041 68.9893V68.9846Z" fill="#93EDFF"/>
<path fill-rule="evenodd" clip-rule="evenodd" d="M159.041 68.9868H156.534V68.9874C156.534 71.1982 155.673 73.3185 154.14 74.8816C152.607 76.4449 150.528 77.3231 148.36 77.3231C124.684 77.3231 66.0939 77.3231 66.0939 77.3231L61.4977 81.5735H47.7006L43.1044 77.3231H27.6815C23.1667 77.3231 19.5066 73.5911 19.5066 68.9874V68.9868H17V68.9915C17 71.816 18.1004 74.5247 20.0591 76.5219C22.0177 78.5191 24.6742 79.6411 27.4442 79.6411C34.3233 79.6411 42.0661 79.6411 42.0661 79.6411L46.6623 83.8915H62.5359L67.1321 79.6411H148.597C154.365 79.6411 159.041 74.8734 159.041 68.9918C159.041 68.9885 159.041 68.9868 159.041 68.9868Z" fill="#08A0BF"/>
<path d="M28.584 72.7662C28.152 72.7662 27.7493 72.6968 27.376 72.5582C27.008 72.4142 26.688 72.2115 26.416 71.9502C26.144 71.6888 25.9307 71.3822 25.776 71.0302C25.6267 70.6782 25.552 70.2915 25.552 69.8702C25.552 69.4488 25.6267 69.0622 25.776 68.7102C25.9307 68.3582 26.144 68.0515 26.416 67.7902C26.6933 67.5288 27.016 67.3288 27.384 67.1902C27.752 67.0462 28.1547 66.9742 28.592 66.9742C29.0773 66.9742 29.5147 67.0595 29.904 67.2302C30.2987 67.3955 30.6293 67.6408 30.896 67.9662L30.064 68.7342C29.872 68.5155 29.6587 68.3528 29.424 68.2462C29.1893 68.1342 28.9333 68.0782 28.656 68.0782C28.3947 68.0782 28.1547 68.1208 27.936 68.2062C27.7173 68.2915 27.528 68.4142 27.368 68.5742C27.208 68.7342 27.0827 68.9235 26.992 69.1422C26.9067 69.3608 26.864 69.6035 26.864 69.8702C26.864 70.1368 26.9067 70.3795 26.992 70.5982C27.0827 70.8168 27.208 71.0062 27.368 71.1662C27.528 71.3262 27.7173 71.4488 27.936 71.5342C28.1547 71.6195 28.3947 71.6622 28.656 71.6622C28.9333 71.6622 29.1893 71.6088 29.424 71.5022C29.6587 71.3902 29.872 71.2222 30.064 70.9982L30.896 71.7662C30.6293 72.0915 30.2987 72.3395 29.904 72.5102C29.5147 72.6808 29.0747 72.7662 28.584 72.7662ZM31.6832 72.6702V66.7342H32.9312V72.6702H31.6832ZM36.1374 72.7342C35.6788 72.7342 35.2708 72.6382 34.9134 72.4462C34.5614 72.2542 34.2814 71.9928 34.0734 71.6622C33.8708 71.3262 33.7694 70.9448 33.7694 70.5182C33.7694 70.0862 33.8708 69.7048 34.0734 69.3742C34.2814 69.0382 34.5614 68.7768 34.9134 68.5902C35.2708 68.3982 35.6788 68.3022 36.1374 68.3022C36.5908 68.3022 36.9961 68.3982 37.3534 68.5902C37.7108 68.7768 37.9908 69.0355 38.1934 69.3662C38.3961 69.6968 38.4974 70.0808 38.4974 70.5182C38.4974 70.9448 38.3961 71.3262 38.1934 71.6622C37.9908 71.9928 37.7108 72.2542 37.3534 72.4462C36.9961 72.6382 36.5908 72.7342 36.1374 72.7342ZM36.1374 71.7102C36.3454 71.7102 36.5321 71.6622 36.6974 71.5662C36.8628 71.4702 36.9934 71.3342 37.0894 71.1582C37.1854 70.9768 37.2334 70.7635 37.2334 70.5182C37.2334 70.2675 37.1854 70.0542 37.0894 69.8782C36.9934 69.7022 36.8628 69.5662 36.6974 69.4702C36.5321 69.3742 36.3454 69.3262 36.1374 69.3262C35.9294 69.3262 35.7428 69.3742 35.5774 69.4702C35.4121 69.5662 35.2788 69.7022 35.1774 69.8782C35.0814 70.0542 35.0334 70.2675 35.0334 70.5182C35.0334 70.7635 35.0814 70.9768 35.1774 71.1582C35.2788 71.3342 35.4121 71.4702 35.5774 71.5662C35.7428 71.6622 35.9294 71.7102 36.1374 71.7102ZM40.7796 72.7342C40.4116 72.7342 40.0569 72.6915 39.7156 72.6062C39.3796 72.5155 39.1129 72.4035 38.9156 72.2702L39.3316 71.3742C39.5289 71.4968 39.7609 71.5982 40.0276 71.6782C40.2996 71.7528 40.5663 71.7902 40.8276 71.7902C41.1156 71.7902 41.3183 71.7555 41.4356 71.6862C41.5583 71.6168 41.6196 71.5208 41.6196 71.3982C41.6196 71.2968 41.5716 71.2222 41.4756 71.1742C41.3849 71.1208 41.2623 71.0808 41.1076 71.0542C40.9529 71.0275 40.7823 71.0008 40.5956 70.9742C40.4143 70.9475 40.2303 70.9128 40.0436 70.8702C39.8569 70.8222 39.6863 70.7528 39.5316 70.6622C39.3769 70.5715 39.2516 70.4488 39.1556 70.2942C39.0649 70.1395 39.0196 69.9395 39.0196 69.6942C39.0196 69.4222 39.0969 69.1822 39.2516 68.9742C39.4116 68.7662 39.6409 68.6035 39.9396 68.4862C40.2383 68.3635 40.5956 68.3022 41.0116 68.3022C41.3049 68.3022 41.6036 68.3342 41.9076 68.3982C42.2116 68.4622 42.4649 68.5555 42.6676 68.6782L42.2516 69.5662C42.0436 69.4435 41.8329 69.3608 41.6196 69.3182C41.4116 69.2702 41.2089 69.2462 41.0116 69.2462C40.7343 69.2462 40.5316 69.2835 40.4036 69.3582C40.2756 69.4328 40.2116 69.5288 40.2116 69.6462C40.2116 69.7528 40.2569 69.8328 40.3476 69.8862C40.4436 69.9395 40.5689 69.9822 40.7236 70.0142C40.8783 70.0462 41.0463 70.0755 41.2276 70.1022C41.4143 70.1235 41.6009 70.1582 41.7876 70.2062C41.9743 70.2542 42.1423 70.3235 42.2916 70.4142C42.4463 70.4995 42.5716 70.6195 42.6676 70.7742C42.7636 70.9235 42.8116 71.1208 42.8116 71.3662C42.8116 71.6328 42.7316 71.8702 42.5716 72.0782C42.4116 72.2808 42.1796 72.4408 41.8756 72.5582C41.5769 72.6755 41.2116 72.7342 40.7796 72.7342ZM45.7176 72.7342C45.2269 72.7342 44.7949 72.6382 44.4216 72.4462C44.0536 72.2542 43.7683 71.9928 43.5656 71.6622C43.3629 71.3262 43.2616 70.9448 43.2616 70.5182C43.2616 70.0862 43.3603 69.7048 43.5576 69.3742C43.7603 69.0382 44.0349 68.7768 44.3816 68.5902C44.7283 68.3982 45.1203 68.3022 45.5576 68.3022C45.9789 68.3022 46.3576 68.3928 46.6936 68.5742C47.0349 68.7502 47.3043 69.0062 47.5016 69.3422C47.6989 69.6728 47.7976 70.0702 47.7976 70.5342C47.7976 70.5822 47.7949 70.6382 47.7896 70.7022C47.7843 70.7608 47.7789 70.8168 47.7736 70.8702H44.2776V70.1422H47.1176L46.6376 70.3582C46.6376 70.1342 46.5923 69.9395 46.5016 69.7742C46.4109 69.6088 46.2856 69.4808 46.1256 69.3902C45.9656 69.2942 45.7789 69.2462 45.5656 69.2462C45.3523 69.2462 45.1629 69.2942 44.9976 69.3902C44.8376 69.4808 44.7123 69.6115 44.6216 69.7822C44.5309 69.9475 44.4856 70.1448 44.4856 70.3742V70.5662C44.4856 70.8008 44.5363 71.0088 44.6376 71.1902C44.7443 71.3662 44.8909 71.5022 45.0776 71.5982C45.2696 71.6888 45.4936 71.7342 45.7496 71.7342C45.9789 71.7342 46.1789 71.6995 46.3496 71.6302C46.5256 71.5608 46.6856 71.4568 46.8296 71.3182L47.4936 72.0382C47.2963 72.2622 47.0483 72.4355 46.7496 72.5582C46.4509 72.6755 46.1069 72.7342 45.7176 72.7342ZM52.6541 72.7342C52.1474 72.7342 51.7528 72.6062 51.4701 72.3502C51.1874 72.0888 51.0461 71.7022 51.0461 71.1902V67.4142H52.2941V71.1742C52.2941 71.3555 52.3421 71.4968 52.4381 71.5982C52.5341 71.6942 52.6648 71.7422 52.8301 71.7422C53.0274 71.7422 53.1954 71.6888 53.3341 71.5822L53.6701 72.4622C53.5421 72.5528 53.3874 72.6222 53.2061 72.6702C53.0301 72.7128 52.8461 72.7342 52.6541 72.7342ZM50.3821 69.4222V68.4622H53.3661V69.4222H50.3821ZM56.9867 68.3022C57.328 68.3022 57.632 68.3715 57.8987 68.5102C58.1707 68.6435 58.384 68.8515 58.5387 69.1342C58.6933 69.4115 58.7707 69.7688 58.7707 70.2062V72.6702H57.5227V70.3982C57.5227 70.0515 57.4453 69.7955 57.2907 69.6302C57.1413 69.4648 56.928 69.3822 56.6507 69.3822C56.4533 69.3822 56.2747 69.4248 56.1147 69.5102C55.96 69.5902 55.8373 69.7155 55.7467 69.8862C55.6613 70.0568 55.6187 70.2755 55.6187 70.5422V72.6702H54.3707V66.7342H55.6187V69.5582L55.3387 69.1982C55.4933 68.9102 55.7147 68.6888 56.0027 68.5342C56.2907 68.3795 56.6187 68.3022 56.9867 68.3022ZM62.0692 72.7342C61.5785 72.7342 61.1465 72.6382 60.7732 72.4462C60.4052 72.2542 60.1198 71.9928 59.9172 71.6622C59.7145 71.3262 59.6132 70.9448 59.6132 70.5182C59.6132 70.0862 59.7118 69.7048 59.9092 69.3742C60.1118 69.0382 60.3865 68.7768 60.7332 68.5902C61.0798 68.3982 61.4718 68.3022 61.9092 68.3022C62.3305 68.3022 62.7092 68.3928 63.0452 68.5742C63.3865 68.7502 63.6558 69.0062 63.8532 69.3422C64.0505 69.6728 64.1492 70.0702 64.1492 70.5342C64.1492 70.5822 64.1465 70.6382 64.1412 70.7022C64.1358 70.7608 64.1305 70.8168 64.1252 70.8702H60.6292V70.1422H63.4692L62.9892 70.3582C62.9892 70.1342 62.9438 69.9395 62.8532 69.7742C62.7625 69.6088 62.6372 69.4808 62.4772 69.3902C62.3172 69.2942 62.1305 69.2462 61.9172 69.2462C61.7038 69.2462 61.5145 69.2942 61.3492 69.3902C61.1892 69.4808 61.0638 69.6115 60.9732 69.7822C60.8825 69.9475 60.8372 70.1448 60.8372 70.3742V70.5662C60.8372 70.8008 60.8878 71.0088 60.9892 71.1902C61.0958 71.3662 61.2425 71.5022 61.4292 71.5982C61.6212 71.6888 61.8452 71.7342 62.1012 71.7342C62.3305 71.7342 62.5305 71.6995 62.7012 71.6302C62.8772 71.5608 63.0372 71.4568 63.1812 71.3182L63.8452 72.0382C63.6478 72.2622 63.3998 72.4355 63.1012 72.5582C62.8025 72.6755 62.4585 72.7342 62.0692 72.7342ZM69.3817 72.7342C68.891 72.7342 68.459 72.6382 68.0857 72.4462C67.7177 72.2542 67.4323 71.9928 67.2297 71.6622C67.027 71.3262 66.9257 70.9448 66.9257 70.5182C66.9257 70.0862 67.0243 69.7048 67.2217 69.3742C67.4243 69.0382 67.699 68.7768 68.0457 68.5902C68.3923 68.3982 68.7843 68.3022 69.2217 68.3022C69.643 68.3022 70.0217 68.3928 70.3577 68.5742C70.699 68.7502 70.9683 69.0062 71.1657 69.3422C71.363 69.6728 71.4617 70.0702 71.4617 70.5342C71.4617 70.5822 71.459 70.6382 71.4537 70.7022C71.4483 70.7608 71.443 70.8168 71.4377 70.8702H67.9417V70.1422H70.7817L70.3017 70.3582C70.3017 70.1342 70.2563 69.9395 70.1657 69.7742C70.075 69.6088 69.9497 69.4808 69.7897 69.3902C69.6297 69.2942 69.443 69.2462 69.2297 69.2462C69.0163 69.2462 68.827 69.2942 68.6617 69.3902C68.5017 69.4808 68.3763 69.6115 68.2857 69.7822C68.195 69.9475 68.1497 70.1448 68.1497 70.3742V70.5662C68.1497 70.8008 68.2003 71.0088 68.3017 71.1902C68.4083 71.3662 68.555 71.5022 68.7417 71.5982C68.9337 71.6888 69.1577 71.7342 69.4137 71.7342C69.643 71.7342 69.843 71.6995 70.0137 71.6302C70.1897 71.5608 70.3497 71.4568 70.4937 71.3182L71.1577 72.0382C70.9603 72.2622 70.7123 72.4355 70.4137 72.5582C70.115 72.6755 69.771 72.7342 69.3817 72.7342ZM72.7584 74.2862C72.5344 74.2862 72.3131 74.2515 72.0944 74.1822C71.8758 74.1128 71.6971 74.0168 71.5584 73.8942L72.0144 73.0062C72.1104 73.0915 72.2198 73.1582 72.3424 73.2062C72.4704 73.2542 72.5958 73.2782 72.7184 73.2782C72.8944 73.2782 73.0331 73.2355 73.1344 73.1502C73.2411 73.0702 73.3371 72.9342 73.4224 72.7422L73.6464 72.2142L73.7424 72.0782L75.2864 68.3662H76.4864L74.5424 72.9342C74.4038 73.2808 74.2438 73.5528 74.0624 73.7502C73.8864 73.9475 73.6891 74.0862 73.4704 74.1662C73.2571 74.2462 73.0198 74.2862 72.7584 74.2862ZM73.4944 72.8382L71.5744 68.3662H72.8624L74.3504 71.9662L73.4944 72.8382ZM79.0145 72.7342C78.5238 72.7342 78.0918 72.6382 77.7185 72.4462C77.3505 72.2542 77.0652 71.9928 76.8625 71.6622C76.6598 71.3262 76.5585 70.9448 76.5585 70.5182C76.5585 70.0862 76.6572 69.7048 76.8545 69.3742C77.0572 69.0382 77.3318 68.7768 77.6785 68.5902C78.0252 68.3982 78.4172 68.3022 78.8545 68.3022C79.2758 68.3022 79.6545 68.3928 79.9905 68.5742C80.3318 68.7502 80.6012 69.0062 80.7985 69.3422C80.9958 69.6728 81.0945 70.0702 81.0945 70.5342C81.0945 70.5822 81.0918 70.6382 81.0865 70.7022C81.0812 70.7608 81.0758 70.8168 81.0705 70.8702H77.5745V70.1422H80.4145L79.9345 70.3582C79.9345 70.1342 79.8892 69.9395 79.7985 69.7742C79.7078 69.6088 79.5825 69.4808 79.4225 69.3902C79.2625 69.2942 79.0758 69.2462 78.8625 69.2462C78.6492 69.2462 78.4598 69.2942 78.2945 69.3902C78.1345 69.4808 78.0092 69.6115 77.9185 69.7822C77.8278 69.9475 77.7825 70.1448 77.7825 70.3742V70.5662C77.7825 70.8008 77.8332 71.0088 77.9345 71.1902C78.0412 71.3662 78.1878 71.5022 78.3745 71.5982C78.5665 71.6888 78.7905 71.7342 79.0465 71.7342C79.2758 71.7342 79.4758 71.6995 79.6465 71.6302C79.8225 71.5608 79.9825 71.4568 80.1265 71.3182L80.7905 72.0382C80.5932 72.2622 80.3452 72.4355 80.0465 72.5582C79.7478 72.6755 79.4038 72.7342 79.0145 72.7342ZM83.3734 72.7342C83.0054 72.7342 82.6507 72.6915 82.3094 72.6062C81.9734 72.5155 81.7067 72.4035 81.5094 72.2702L81.9254 71.3742C82.1227 71.4968 82.3547 71.5982 82.6214 71.6782C82.8934 71.7528 83.16 71.7902 83.4214 71.7902C83.7094 71.7902 83.912 71.7555 84.0294 71.6862C84.152 71.6168 84.2134 71.5208 84.2134 71.3982C84.2134 71.2968 84.1654 71.2222 84.0694 71.1742C83.9787 71.1208 83.856 71.0808 83.7014 71.0542C83.5467 71.0275 83.376 71.0008 83.1894 70.9742C83.008 70.9475 82.824 70.9128 82.6374 70.8702C82.4507 70.8222 82.28 70.7528 82.1254 70.6622C81.9707 70.5715 81.8454 70.4488 81.7494 70.2942C81.6587 70.1395 81.6134 69.9395 81.6134 69.6942C81.6134 69.4222 81.6907 69.1822 81.8454 68.9742C82.0054 68.7662 82.2347 68.6035 82.5334 68.4862C82.832 68.3635 83.1894 68.3022 83.6054 68.3022C83.8987 68.3022 84.1974 68.3342 84.5014 68.3982C84.8054 68.4622 85.0587 68.5555 85.2614 68.6782L84.8454 69.5662C84.6374 69.4435 84.4267 69.3608 84.2134 69.3182C84.0054 69.2702 83.8027 69.2462 83.6054 69.2462C83.328 69.2462 83.1254 69.2835 82.9974 69.3582C82.8694 69.4328 82.8054 69.5288 82.8054 69.6462C82.8054 69.7528 82.8507 69.8328 82.9414 69.8862C83.0374 69.9395 83.1627 69.9822 83.3174 70.0142C83.472 70.0462 83.64 70.0755 83.8214 70.1022C84.008 70.1235 84.1947 70.1582 84.3814 70.2062C84.568 70.2542 84.736 70.3235 84.8854 70.4142C85.04 70.4995 85.1654 70.6195 85.2614 70.7742C85.3574 70.9235 85.4054 71.1208 85.4054 71.3662C85.4054 71.6328 85.3254 71.8702 85.1654 72.0782C85.0054 72.2808 84.7734 72.4408 84.4694 72.5582C84.1707 72.6755 83.8054 72.7342 83.3734 72.7342Z" fill="#333333"/>
<path fill-rule="evenodd" clip-rule="evenodd" d="M158.801 131.647C158.801 128.822 157.701 126.113 155.742 124.116C153.783 122.119 151.127 120.997 148.357 120.997C122.678 120.997 66.8921 121 66.8921 121L62.2991 125.25H46.4223L41.8261 121H27.2042C24.4342 121 21.7777 122.122 19.8191 124.119C17.8604 126.116 16.76 128.825 16.76 131.65C16.76 131.653 16.76 131.656 16.76 131.659C16.76 134.484 17.8604 137.192 19.8191 139.189C21.7777 141.187 24.4342 142.309 27.2042 142.309C34.0833 142.309 41.8261 142.309 41.8261 142.309L46.4223 146.559H62.2959L66.8921 142.309L148.357 142.306C151.127 142.306 153.783 141.184 155.742 139.186C157.701 137.189 158.801 134.481 158.801 131.656C158.801 131.653 158.801 131.65 158.801 131.647Z" fill="#30DCFF"/>
<path fill-rule="evenodd" clip-rule="evenodd" d="M158.801 131.65C158.801 128.826 157.701 126.117 155.742 124.12C153.783 122.123 151.127 121 148.357 121C122.678 121 66.8921 121 66.8921 121L62.2991 125.251H46.4223L41.8261 121H27.2042C24.4342 121 21.7777 122.123 19.8191 124.12C17.8604 126.117 16.76 128.826 16.76 131.65C16.76 131.653 16.76 131.655 16.76 131.655H19.2666C19.2666 127.049 22.9282 123.316 27.4449 123.316C33.5352 123.316 40.8003 123.316 40.8003 123.316L45.3965 127.566H63.3405L67.9367 123.316H148.117C152.633 123.316 156.295 127.049 156.295 131.655L158.801 131.655V131.65Z" fill="#93EDFF"/>
<path fill-rule="evenodd" clip-rule="evenodd" d="M158.801 131.652H156.294V131.652C156.294 133.863 155.433 135.983 153.9 137.547C152.367 139.11 150.288 139.988 148.12 139.988C124.444 139.988 65.8539 139.988 65.8539 139.988L61.2577 144.239H47.4606L42.8644 139.988H27.4416C22.9267 139.988 19.2666 136.256 19.2666 131.652V131.652H16.76V131.657C16.76 134.481 17.8604 137.19 19.8191 139.187C21.7777 141.184 24.4342 142.306 27.2042 142.306C34.0833 142.306 41.8261 142.306 41.8261 142.306L46.4223 146.557H62.2959L66.8921 142.306H148.357C154.125 142.306 158.801 137.538 158.801 131.657C158.801 131.653 158.801 131.652 158.801 131.652Z" fill="#08A0BF"/>
<path d="M26.824 135.335V130.791H25.032V129.735H29.912V130.791H28.12V135.335H26.824ZM32.2436 135.399C31.8862 135.399 31.5662 135.33 31.2836 135.191C31.0062 135.052 30.7902 134.842 30.6356 134.559C30.4809 134.271 30.4036 133.906 30.4036 133.463V131.031H31.6516V133.279C31.6516 133.636 31.7262 133.9 31.8756 134.071C32.0302 134.236 32.2462 134.319 32.5236 134.319C32.7156 134.319 32.8862 134.279 33.0356 134.199C33.1849 134.114 33.3022 133.986 33.3876 133.815C33.4729 133.639 33.5156 133.42 33.5156 133.159V131.031H34.7636V135.335H33.5796V134.151L33.7956 134.495C33.6516 134.794 33.4382 135.02 33.1556 135.175C32.8782 135.324 32.5742 135.399 32.2436 135.399ZM35.9198 135.335V131.031H37.1118V132.247L36.9438 131.895C37.0718 131.591 37.2771 131.362 37.5598 131.207C37.8424 131.047 38.1864 130.967 38.5918 130.967V132.119C38.5384 132.114 38.4904 132.111 38.4478 132.111C38.4051 132.106 38.3598 132.103 38.3118 132.103C37.9704 132.103 37.6931 132.202 37.4798 132.399C37.2718 132.591 37.1678 132.892 37.1678 133.303V135.335H35.9198ZM41.9576 130.967C42.299 130.967 42.603 131.036 42.8696 131.175C43.1416 131.308 43.355 131.516 43.5096 131.799C43.6643 132.076 43.7416 132.434 43.7416 132.871V135.335H42.4936V133.063C42.4936 132.716 42.4163 132.46 42.2616 132.295C42.1123 132.13 41.899 132.047 41.6216 132.047C41.4243 132.047 41.2456 132.09 41.0856 132.175C40.931 132.255 40.8083 132.38 40.7176 132.551C40.6323 132.722 40.5896 132.94 40.5896 133.207V135.335H39.3416V131.031H40.5336V132.223L40.3096 131.863C40.4643 131.575 40.6856 131.354 40.9736 131.199C41.2616 131.044 41.5896 130.967 41.9576 130.967ZM49.7545 130.967C50.0958 130.967 50.3998 131.036 50.6665 131.175C50.9385 131.308 51.1518 131.516 51.3065 131.799C51.4612 132.076 51.5385 132.434 51.5385 132.871V135.335H50.2905V133.063C50.2905 132.716 50.2132 132.46 50.0585 132.295C49.9092 132.13 49.6958 132.047 49.4185 132.047C49.2212 132.047 49.0425 132.09 48.8825 132.175C48.7278 132.255 48.6052 132.38 48.5145 132.551C48.4292 132.722 48.3865 132.94 48.3865 133.207V135.335H47.1385V129.399H48.3865V132.223L48.1065 131.863C48.2612 131.575 48.4825 131.354 48.7705 131.199C49.0585 131.044 49.3865 130.967 49.7545 130.967ZM54.837 135.399C54.3463 135.399 53.9143 135.303 53.541 135.111C53.173 134.919 52.8877 134.658 52.685 134.327C52.4823 133.991 52.381 133.61 52.381 133.183C52.381 132.751 52.4797 132.37 52.677 132.039C52.8797 131.703 53.1543 131.442 53.501 131.255C53.8477 131.063 54.2397 130.967 54.677 130.967C55.0983 130.967 55.477 131.058 55.813 131.239C56.1543 131.415 56.4237 131.671 56.621 132.007C56.8183 132.338 56.917 132.735 56.917 133.199C56.917 133.247 56.9143 133.303 56.909 133.367C56.9037 133.426 56.8983 133.482 56.893 133.535H53.397V132.807H56.237L55.757 133.023C55.757 132.799 55.7117 132.604 55.621 132.439C55.5303 132.274 55.405 132.146 55.245 132.055C55.085 131.959 54.8983 131.911 54.685 131.911C54.4717 131.911 54.2823 131.959 54.117 132.055C53.957 132.146 53.8317 132.276 53.741 132.447C53.6503 132.612 53.605 132.81 53.605 133.039V133.231C53.605 133.466 53.6557 133.674 53.757 133.855C53.8637 134.031 54.0103 134.167 54.197 134.263C54.389 134.354 54.613 134.399 54.869 134.399C55.0983 134.399 55.2983 134.364 55.469 134.295C55.645 134.226 55.805 134.122 55.949 133.983L56.613 134.703C56.4157 134.927 56.1677 135.1 55.869 135.223C55.5703 135.34 55.2263 135.399 54.837 135.399ZM60.2707 135.335V134.495L60.1907 134.311V132.807C60.1907 132.54 60.108 132.332 59.9427 132.183C59.7827 132.034 59.5347 131.959 59.1987 131.959C58.9694 131.959 58.7427 131.996 58.5187 132.071C58.3 132.14 58.1134 132.236 57.9587 132.359L57.5107 131.487C57.7454 131.322 58.028 131.194 58.3587 131.103C58.6894 131.012 59.0254 130.967 59.3667 130.967C60.0227 130.967 60.532 131.122 60.8947 131.431C61.2574 131.74 61.4387 132.223 61.4387 132.879V135.335H60.2707ZM58.9587 135.399C58.6227 135.399 58.3347 135.343 58.0947 135.231C57.8547 135.114 57.6707 134.956 57.5427 134.759C57.4147 134.562 57.3507 134.34 57.3507 134.095C57.3507 133.839 57.412 133.615 57.5347 133.423C57.6627 133.231 57.8627 133.082 58.1347 132.975C58.4067 132.863 58.7614 132.807 59.1987 132.807H60.3427V133.535H59.3347C59.0414 133.535 58.8387 133.583 58.7267 133.679C58.62 133.775 58.5667 133.895 58.5667 134.039C58.5667 134.199 58.628 134.327 58.7507 134.423C58.8787 134.514 59.052 134.559 59.2707 134.559C59.4787 134.559 59.6654 134.511 59.8307 134.415C59.996 134.314 60.116 134.167 60.1907 133.975L60.3827 134.551C60.292 134.828 60.1267 135.039 59.8867 135.183C59.6467 135.327 59.3374 135.399 58.9587 135.399ZM64.4474 135.399C64.0421 135.399 63.6768 135.308 63.3514 135.127C63.0261 134.94 62.7674 134.682 62.5754 134.351C62.3888 134.02 62.2954 133.631 62.2954 133.183C62.2954 132.73 62.3888 132.338 62.5754 132.007C62.7674 131.676 63.0261 131.42 63.3514 131.239C63.6768 131.058 64.0421 130.967 64.4474 130.967C64.8101 130.967 65.1274 131.047 65.3994 131.207C65.6714 131.367 65.8821 131.61 66.0314 131.935C66.1808 132.26 66.2554 132.676 66.2554 133.183C66.2554 133.684 66.1834 134.1 66.0394 134.431C65.8954 134.756 65.6874 134.999 65.4154 135.159C65.1488 135.319 64.8261 135.399 64.4474 135.399ZM64.6634 134.375C64.8661 134.375 65.0501 134.327 65.2154 134.231C65.3808 134.135 65.5114 133.999 65.6074 133.823C65.7088 133.642 65.7594 133.428 65.7594 133.183C65.7594 132.932 65.7088 132.719 65.6074 132.543C65.5114 132.367 65.3808 132.231 65.2154 132.135C65.0501 132.039 64.8661 131.991 64.6634 131.991C64.4554 131.991 64.2688 132.039 64.1034 132.135C63.9381 132.231 63.8048 132.367 63.7034 132.543C63.6074 132.719 63.5594 132.932 63.5594 133.183C63.5594 133.428 63.6074 133.642 63.7034 133.823C63.8048 133.999 63.9381 134.135 64.1034 134.231C64.2688 134.327 64.4554 134.375 64.6634 134.375ZM65.7914 135.335V134.455L65.8154 133.175L65.7354 131.903V129.399H66.9834V135.335H65.7914ZM72.1641 135.399C71.6575 135.399 71.2628 135.271 70.9801 135.015C70.6975 134.754 70.5561 134.367 70.5561 133.855V130.079H71.8041V133.839C71.8041 134.02 71.8521 134.162 71.9481 134.263C72.0441 134.359 72.1748 134.407 72.3401 134.407C72.5375 134.407 72.7055 134.354 72.8441 134.247L73.1801 135.127C73.0521 135.218 72.8975 135.287 72.7161 135.335C72.5401 135.378 72.3561 135.399 72.1641 135.399ZM69.8921 132.087V131.127H72.8761V132.087H69.8921ZM75.7959 135.399C75.3372 135.399 74.9292 135.303 74.5719 135.111C74.2199 134.919 73.9399 134.658 73.7319 134.327C73.5292 133.991 73.4279 133.61 73.4279 133.183C73.4279 132.751 73.5292 132.37 73.7319 132.039C73.9399 131.703 74.2199 131.442 74.5719 131.255C74.9292 131.063 75.3372 130.967 75.7959 130.967C76.2492 130.967 76.6545 131.063 77.0119 131.255C77.3692 131.442 77.6492 131.7 77.8519 132.031C78.0545 132.362 78.1559 132.746 78.1559 133.183C78.1559 133.61 78.0545 133.991 77.8519 134.327C77.6492 134.658 77.3692 134.919 77.0119 135.111C76.6545 135.303 76.2492 135.399 75.7959 135.399ZM75.7959 134.375C76.0039 134.375 76.1905 134.327 76.3559 134.231C76.5212 134.135 76.6519 133.999 76.7479 133.823C76.8439 133.642 76.8919 133.428 76.8919 133.183C76.8919 132.932 76.8439 132.719 76.7479 132.543C76.6519 132.367 76.5212 132.231 76.3559 132.135C76.1905 132.039 76.0039 131.991 75.7959 131.991C75.5879 131.991 75.4012 132.039 75.2359 132.135C75.0705 132.231 74.9372 132.367 74.8359 132.543C74.7399 132.719 74.6919 132.932 74.6919 133.183C74.6919 133.428 74.7399 133.642 74.8359 133.823C74.9372 133.999 75.0705 134.135 75.2359 134.231C75.4012 134.327 75.5879 134.375 75.7959 134.375ZM83.0157 135.399C82.509 135.399 82.1144 135.271 81.8317 135.015C81.549 134.754 81.4077 134.367 81.4077 133.855V130.079H82.6557V133.839C82.6557 134.02 82.7037 134.162 82.7997 134.263C82.8957 134.359 83.0264 134.407 83.1917 134.407C83.389 134.407 83.557 134.354 83.6957 134.247L84.0317 135.127C83.9037 135.218 83.749 135.287 83.5677 135.335C83.3917 135.378 83.2077 135.399 83.0157 135.399ZM80.7437 132.087V131.127H83.7277V132.087H80.7437ZM87.3483 130.967C87.6896 130.967 87.9936 131.036 88.2603 131.175C88.5323 131.308 88.7456 131.516 88.9003 131.799C89.0549 132.076 89.1323 132.434 89.1323 132.871V135.335H87.8843V133.063C87.8843 132.716 87.8069 132.46 87.6523 132.295C87.5029 132.13 87.2896 132.047 87.0123 132.047C86.8149 132.047 86.6363 132.09 86.4763 132.175C86.3216 132.255 86.1989 132.38 86.1083 132.551C86.0229 132.722 85.9803 132.94 85.9803 133.207V135.335H84.7323V129.399H85.9803V132.223L85.7003 131.863C85.8549 131.575 86.0763 131.354 86.3643 131.199C86.6523 131.044 86.9803 130.967 87.3483 130.967ZM92.4308 135.399C91.9401 135.399 91.5081 135.303 91.1348 135.111C90.7668 134.919 90.4814 134.658 90.2788 134.327C90.0761 133.991 89.9748 133.61 89.9748 133.183C89.9748 132.751 90.0734 132.37 90.2708 132.039C90.4734 131.703 90.7481 131.442 91.0948 131.255C91.4414 131.063 91.8334 130.967 92.2708 130.967C92.6921 130.967 93.0708 131.058 93.4068 131.239C93.7481 131.415 94.0174 131.671 94.2148 132.007C94.4121 132.338 94.5108 132.735 94.5108 133.199C94.5108 133.247 94.5081 133.303 94.5028 133.367C94.4974 133.426 94.4921 133.482 94.4868 133.535H90.9908V132.807H93.8307L93.3508 133.023C93.3508 132.799 93.3054 132.604 93.2148 132.439C93.1241 132.274 92.9988 132.146 92.8388 132.055C92.6788 131.959 92.4921 131.911 92.2788 131.911C92.0654 131.911 91.8761 131.959 91.7108 132.055C91.5508 132.146 91.4254 132.276 91.3348 132.447C91.2441 132.612 91.1988 132.81 91.1988 133.039V133.231C91.1988 133.466 91.2494 133.674 91.3508 133.855C91.4574 134.031 91.6041 134.167 91.7908 134.263C91.9828 134.354 92.2068 134.399 92.4628 134.399C92.6921 134.399 92.8921 134.364 93.0628 134.295C93.2388 134.226 93.3988 134.122 93.5428 133.983L94.2068 134.703C94.0094 134.927 93.7614 135.1 93.4628 135.223C93.1641 135.34 92.8201 135.399 92.4308 135.399ZM97.6073 135.335V129.399H98.8553V135.335H97.6073ZM102.15 135.399C101.659 135.399 101.227 135.303 100.854 135.111C100.486 134.919 100.2 134.658 99.9975 134.327C99.7948 133.991 99.6935 133.61 99.6935 133.183C99.6935 132.751 99.7922 132.37 99.9895 132.039C100.192 131.703 100.467 131.442 100.814 131.255C101.16 131.063 101.552 130.967 101.99 130.967C102.411 130.967 102.79 131.058 103.126 131.239C103.467 131.415 103.736 131.671 103.934 132.007C104.131 132.338 104.23 132.735 104.23 133.199C104.23 133.247 104.227 133.303 104.222 133.367C104.216 133.426 104.211 133.482 104.206 133.535H100.71V132.807H103.549L103.07 133.023C103.07 132.799 103.024 132.604 102.934 132.439C102.843 132.274 102.718 132.146 102.558 132.055C102.398 131.959 102.211 131.911 101.998 131.911C101.784 131.911 101.595 131.959 101.43 132.055C101.27 132.146 101.144 132.276 101.054 132.447C100.963 132.612 100.918 132.81 100.918 133.039V133.231C100.918 133.466 100.968 133.674 101.07 133.855C101.176 134.031 101.323 134.167 101.51 134.263C101.702 134.354 101.926 134.399 102.182 134.399C102.411 134.399 102.611 134.364 102.782 134.295C102.958 134.226 103.118 134.122 103.262 133.983L103.926 134.703C103.728 134.927 103.48 135.1 103.182 135.223C102.883 135.34 102.539 135.399 102.15 135.399ZM105.212 135.335V130.935C105.212 130.45 105.356 130.063 105.644 129.775C105.932 129.482 106.343 129.335 106.876 129.335C107.058 129.335 107.231 129.354 107.396 129.391C107.567 129.428 107.711 129.487 107.828 129.567L107.5 130.471C107.431 130.423 107.354 130.386 107.268 130.359C107.183 130.332 107.092 130.319 106.996 130.319C106.815 130.319 106.674 130.372 106.572 130.479C106.476 130.58 106.428 130.735 106.428 130.943V131.343L106.46 131.879V135.335H105.212ZM104.548 132.087V131.127H107.532V132.087H104.548ZM109.914 135.399C109.407 135.399 109.013 135.271 108.73 135.015C108.447 134.754 108.306 134.367 108.306 133.855V130.079H109.554V133.839C109.554 134.02 109.602 134.162 109.698 134.263C109.794 134.359 109.925 134.407 110.09 134.407C110.287 134.407 110.455 134.354 110.594 134.247L110.93 135.127C110.802 135.218 110.647 135.287 110.466 135.335C110.29 135.378 110.106 135.399 109.914 135.399ZM107.642 132.087V131.127H110.626V132.087H107.642Z" fill="#333333"/>
<path fill-rule="evenodd" clip-rule="evenodd" d="M158.801 110.647C158.801 107.822 157.701 105.113 155.742 103.116C153.783 101.119 151.127 99.9971 148.357 99.9971C122.678 99.9971 66.8921 100 66.8921 100L62.2991 104.25H46.4223L41.8261 100H27.2042C24.4342 100 21.7777 101.122 19.8191 103.119C17.8604 105.116 16.76 107.825 16.76 110.65C16.76 110.653 16.76 110.656 16.76 110.659C16.76 113.484 17.8604 116.192 19.8191 118.189C21.7777 120.187 24.4342 121.309 27.2042 121.309C34.0833 121.309 41.8261 121.309 41.8261 121.309L46.4223 125.559H62.2959L66.8921 121.309L148.357 121.306C151.127 121.306 153.783 120.184 155.742 118.186C157.701 116.189 158.801 113.481 158.801 110.656C158.801 110.653 158.801 110.65 158.801 110.647Z" fill="#30DCFF"/>
<path fill-rule="evenodd" clip-rule="evenodd" d="M158.801 110.65C158.801 107.826 157.701 105.117 155.742 103.12C153.783 101.123 151.127 100 148.357 100C122.678 100 66.8921 100 66.8921 100L62.2991 104.251H46.4223L41.8261 100H27.2042C24.4342 100 21.7777 101.123 19.8191 103.12C17.8604 105.117 16.76 107.826 16.76 110.65C16.76 110.653 16.76 110.655 16.76 110.655H19.2666C19.2666 106.049 22.9282 102.316 27.4449 102.316C33.5352 102.316 40.8003 102.316 40.8003 102.316L45.3965 106.566H63.3405L67.9367 102.316H148.117C152.633 102.316 156.295 106.049 156.295 110.655L158.801 110.655V110.65Z" fill="#93EDFF"/>
<path fill-rule="evenodd" clip-rule="evenodd" d="M158.801 110.652H156.294V110.652C156.294 112.863 155.433 114.983 153.9 116.547C152.367 118.11 150.288 118.988 148.12 118.988C124.444 118.988 65.8539 118.988 65.8539 118.988L61.2577 123.239H47.4606L42.8644 118.988H27.4416C22.9267 118.988 19.2666 115.256 19.2666 110.652V110.652H16.76V110.657C16.76 113.481 17.8604 116.19 19.8191 118.187C21.7777 120.184 24.4342 121.306 27.2042 121.306C34.0833 121.306 41.8261 121.306 41.8261 121.306L46.4223 125.557H62.2959L66.8921 121.306H148.357C154.125 121.306 158.801 116.538 158.801 110.657C158.801 110.653 158.801 110.652 158.801 110.652Z" fill="#08A0BF"/>
<path d="M26.824 114.335V109.791H25.032V108.735H29.912V109.791H28.12V114.335H26.824ZM32.2436 114.399C31.8862 114.399 31.5662 114.33 31.2836 114.191C31.0062 114.052 30.7902 113.842 30.6356 113.559C30.4809 113.271 30.4036 112.906 30.4036 112.463V110.031H31.6516V112.279C31.6516 112.636 31.7262 112.9 31.8756 113.071C32.0302 113.236 32.2462 113.319 32.5236 113.319C32.7156 113.319 32.8862 113.279 33.0356 113.199C33.1849 113.114 33.3022 112.986 33.3876 112.815C33.4729 112.639 33.5156 112.42 33.5156 112.159V110.031H34.7636V114.335H33.5796V113.151L33.7956 113.495C33.6516 113.794 33.4382 114.02 33.1556 114.175C32.8782 114.324 32.5742 114.399 32.2436 114.399ZM35.9198 114.335V110.031H37.1118V111.247L36.9438 110.895C37.0718 110.591 37.2771 110.362 37.5598 110.207C37.8424 110.047 38.1864 109.967 38.5918 109.967V111.119C38.5384 111.114 38.4904 111.111 38.4478 111.111C38.4051 111.106 38.3598 111.103 38.3118 111.103C37.9704 111.103 37.6931 111.202 37.4798 111.399C37.2718 111.591 37.1678 111.892 37.1678 112.303V114.335H35.9198ZM41.9576 109.967C42.299 109.967 42.603 110.036 42.8696 110.175C43.1416 110.308 43.355 110.516 43.5096 110.799C43.6643 111.076 43.7416 111.434 43.7416 111.871V114.335H42.4936V112.063C42.4936 111.716 42.4163 111.46 42.2616 111.295C42.1123 111.13 41.899 111.047 41.6216 111.047C41.4243 111.047 41.2456 111.09 41.0856 111.175C40.931 111.255 40.8083 111.38 40.7176 111.551C40.6323 111.722 40.5896 111.94 40.5896 112.207V114.335H39.3416V110.031H40.5336V111.223L40.3096 110.863C40.4643 110.575 40.6856 110.354 40.9736 110.199C41.2616 110.044 41.5896 109.967 41.9576 109.967ZM49.7545 109.967C50.0958 109.967 50.3998 110.036 50.6665 110.175C50.9385 110.308 51.1518 110.516 51.3065 110.799C51.4612 111.076 51.5385 111.434 51.5385 111.871V114.335H50.2905V112.063C50.2905 111.716 50.2132 111.46 50.0585 111.295C49.9092 111.13 49.6958 111.047 49.4185 111.047C49.2212 111.047 49.0425 111.09 48.8825 111.175C48.7278 111.255 48.6052 111.38 48.5145 111.551C48.4292 111.722 48.3865 111.94 48.3865 112.207V114.335H47.1385V108.399H48.3865V111.223L48.1065 110.863C48.2612 110.575 48.4825 110.354 48.7705 110.199C49.0585 110.044 49.3865 109.967 49.7545 109.967ZM54.837 114.399C54.3463 114.399 53.9143 114.303 53.541 114.111C53.173 113.919 52.8877 113.658 52.685 113.327C52.4823 112.991 52.381 112.61 52.381 112.183C52.381 111.751 52.4797 111.37 52.677 111.039C52.8797 110.703 53.1543 110.442 53.501 110.255C53.8477 110.063 54.2397 109.967 54.677 109.967C55.0983 109.967 55.477 110.058 55.813 110.239C56.1543 110.415 56.4237 110.671 56.621 111.007C56.8183 111.338 56.917 111.735 56.917 112.199C56.917 112.247 56.9143 112.303 56.909 112.367C56.9037 112.426 56.8983 112.482 56.893 112.535H53.397V111.807H56.237L55.757 112.023C55.757 111.799 55.7117 111.604 55.621 111.439C55.5303 111.274 55.405 111.146 55.245 111.055C55.085 110.959 54.8983 110.911 54.685 110.911C54.4717 110.911 54.2823 110.959 54.117 111.055C53.957 111.146 53.8317 111.276 53.741 111.447C53.6503 111.612 53.605 111.81 53.605 112.039V112.231C53.605 112.466 53.6557 112.674 53.757 112.855C53.8637 113.031 54.0103 113.167 54.197 113.263C54.389 113.354 54.613 113.399 54.869 113.399C55.0983 113.399 55.2983 113.364 55.469 113.295C55.645 113.226 55.805 113.122 55.949 112.983L56.613 113.703C56.4157 113.927 56.1677 114.1 55.869 114.223C55.5703 114.34 55.2263 114.399 54.837 114.399ZM60.2707 114.335V113.495L60.1907 113.311V111.807C60.1907 111.54 60.108 111.332 59.9427 111.183C59.7827 111.034 59.5347 110.959 59.1987 110.959C58.9694 110.959 58.7427 110.996 58.5187 111.071C58.3 111.14 58.1134 111.236 57.9587 111.359L57.5107 110.487C57.7454 110.322 58.028 110.194 58.3587 110.103C58.6894 110.012 59.0254 109.967 59.3667 109.967C60.0227 109.967 60.532 110.122 60.8947 110.431C61.2574 110.74 61.4387 111.223 61.4387 111.879V114.335H60.2707ZM58.9587 114.399C58.6227 114.399 58.3347 114.343 58.0947 114.231C57.8547 114.114 57.6707 113.956 57.5427 113.759C57.4147 113.562 57.3507 113.34 57.3507 113.095C57.3507 112.839 57.412 112.615 57.5347 112.423C57.6627 112.231 57.8627 112.082 58.1347 111.975C58.4067 111.863 58.7614 111.807 59.1987 111.807H60.3427V112.535H59.3347C59.0414 112.535 58.8387 112.583 58.7267 112.679C58.62 112.775 58.5667 112.895 58.5667 113.039C58.5667 113.199 58.628 113.327 58.7507 113.423C58.8787 113.514 59.052 113.559 59.2707 113.559C59.4787 113.559 59.6654 113.511 59.8307 113.415C59.996 113.314 60.116 113.167 60.1907 112.975L60.3827 113.551C60.292 113.828 60.1267 114.039 59.8867 114.183C59.6467 114.327 59.3374 114.399 58.9587 114.399ZM64.4474 114.399C64.0421 114.399 63.6768 114.308 63.3514 114.127C63.0261 113.94 62.7674 113.682 62.5754 113.351C62.3888 113.02 62.2954 112.631 62.2954 112.183C62.2954 111.73 62.3888 111.338 62.5754 111.007C62.7674 110.676 63.0261 110.42 63.3514 110.239C63.6768 110.058 64.0421 109.967 64.4474 109.967C64.8101 109.967 65.1274 110.047 65.3994 110.207C65.6714 110.367 65.8821 110.61 66.0314 110.935C66.1808 111.26 66.2554 111.676 66.2554 112.183C66.2554 112.684 66.1834 113.1 66.0394 113.431C65.8954 113.756 65.6874 113.999 65.4154 114.159C65.1488 114.319 64.8261 114.399 64.4474 114.399ZM64.6634 113.375C64.8661 113.375 65.0501 113.327 65.2154 113.231C65.3808 113.135 65.5114 112.999 65.6074 112.823C65.7088 112.642 65.7594 112.428 65.7594 112.183C65.7594 111.932 65.7088 111.719 65.6074 111.543C65.5114 111.367 65.3808 111.231 65.2154 111.135C65.0501 111.039 64.8661 110.991 64.6634 110.991C64.4554 110.991 64.2688 111.039 64.1034 111.135C63.9381 111.231 63.8048 111.367 63.7034 111.543C63.6074 111.719 63.5594 111.932 63.5594 112.183C63.5594 112.428 63.6074 112.642 63.7034 112.823C63.8048 112.999 63.9381 113.135 64.1034 113.231C64.2688 113.327 64.4554 113.375 64.6634 113.375ZM65.7914 114.335V113.455L65.8154 112.175L65.7354 110.903V108.399H66.9834V114.335H65.7914ZM72.1641 114.399C71.6575 114.399 71.2628 114.271 70.9801 114.015C70.6975 113.754 70.5561 113.367 70.5561 112.855V109.079H71.8041V112.839C71.8041 113.02 71.8521 113.162 71.9481 113.263C72.0441 113.359 72.1748 113.407 72.3401 113.407C72.5375 113.407 72.7055 113.354 72.8441 113.247L73.1801 114.127C73.0521 114.218 72.8975 114.287 72.7161 114.335C72.5401 114.378 72.3561 114.399 72.1641 114.399ZM69.8921 111.087V110.127H72.8761V111.087H69.8921ZM75.7959 114.399C75.3372 114.399 74.9292 114.303 74.5719 114.111C74.2199 113.919 73.9399 113.658 73.7319 113.327C73.5292 112.991 73.4279 112.61 73.4279 112.183C73.4279 111.751 73.5292 111.37 73.7319 111.039C73.9399 110.703 74.2199 110.442 74.5719 110.255C74.9292 110.063 75.3372 109.967 75.7959 109.967C76.2492 109.967 76.6545 110.063 77.0119 110.255C77.3692 110.442 77.6492 110.7 77.8519 111.031C78.0545 111.362 78.1559 111.746 78.1559 112.183C78.1559 112.61 78.0545 112.991 77.8519 113.327C77.6492 113.658 77.3692 113.919 77.0119 114.111C76.6545 114.303 76.2492 114.399 75.7959 114.399ZM75.7959 113.375C76.0039 113.375 76.1905 113.327 76.3559 113.231C76.5212 113.135 76.6519 112.999 76.7479 112.823C76.8439 112.642 76.8919 112.428 76.8919 112.183C76.8919 111.932 76.8439 111.719 76.7479 111.543C76.6519 111.367 76.5212 111.231 76.3559 111.135C76.1905 111.039 76.0039 110.991 75.7959 110.991C75.5879 110.991 75.4012 111.039 75.2359 111.135C75.0705 111.231 74.9372 111.367 74.8359 111.543C74.7399 111.719 74.6919 111.932 74.6919 112.183C74.6919 112.428 74.7399 112.642 74.8359 112.823C74.9372 112.999 75.0705 113.135 75.2359 113.231C75.4012 113.327 75.5879 113.375 75.7959 113.375ZM83.0157 114.399C82.509 114.399 82.1144 114.271 81.8317 114.015C81.549 113.754 81.4077 113.367 81.4077 112.855V109.079H82.6557V112.839C82.6557 113.02 82.7037 113.162 82.7997 113.263C82.8957 113.359 83.0264 113.407 83.1917 113.407C83.389 113.407 83.557 113.354 83.6957 113.247L84.0317 114.127C83.9037 114.218 83.749 114.287 83.5677 114.335C83.3917 114.378 83.2077 114.399 83.0157 114.399ZM80.7437 111.087V110.127H83.7277V111.087H80.7437ZM87.3483 109.967C87.6896 109.967 87.9936 110.036 88.2603 110.175C88.5323 110.308 88.7456 110.516 88.9003 110.799C89.0549 111.076 89.1323 111.434 89.1323 111.871V114.335H87.8843V112.063C87.8843 111.716 87.8069 111.46 87.6523 111.295C87.5029 111.13 87.2896 111.047 87.0123 111.047C86.8149 111.047 86.6363 111.09 86.4763 111.175C86.3216 111.255 86.1989 111.38 86.1083 111.551C86.0229 111.722 85.9803 111.94 85.9803 112.207V114.335H84.7323V108.399H85.9803V111.223L85.7003 110.863C85.8549 110.575 86.0763 110.354 86.3643 110.199C86.6523 110.044 86.9803 109.967 87.3483 109.967ZM92.4308 114.399C91.9401 114.399 91.5081 114.303 91.1348 114.111C90.7668 113.919 90.4814 113.658 90.2788 113.327C90.0761 112.991 89.9748 112.61 89.9748 112.183C89.9748 111.751 90.0734 111.37 90.2708 111.039C90.4734 110.703 90.7481 110.442 91.0948 110.255C91.4414 110.063 91.8334 109.967 92.2708 109.967C92.6921 109.967 93.0708 110.058 93.4068 110.239C93.7481 110.415 94.0174 110.671 94.2148 111.007C94.4121 111.338 94.5108 111.735 94.5108 112.199C94.5108 112.247 94.5081 112.303 94.5028 112.367C94.4974 112.426 94.4921 112.482 94.4868 112.535H90.9908V111.807H93.8307L93.3508 112.023C93.3508 111.799 93.3054 111.604 93.2148 111.439C93.1241 111.274 92.9988 111.146 92.8388 111.055C92.6788 110.959 92.4921 110.911 92.2788 110.911C92.0654 110.911 91.8761 110.959 91.7108 111.055C91.5508 111.146 91.4254 111.276 91.3348 111.447C91.2441 111.612 91.1988 111.81 91.1988 112.039V112.231C91.1988 112.466 91.2494 112.674 91.3508 112.855C91.4574 113.031 91.6041 113.167 91.7908 113.263C91.9828 113.354 92.2068 113.399 92.4628 113.399C92.6921 113.399 92.8921 113.364 93.0628 113.295C93.2388 113.226 93.3988 113.122 93.5428 112.983L94.2068 113.703C94.0094 113.927 93.7614 114.1 93.4628 114.223C93.1641 114.34 92.8201 114.399 92.4308 114.399ZM97.6073 114.335V110.031H98.7993V111.247L98.6313 110.895C98.7593 110.591 98.9646 110.362 99.2473 110.207C99.5299 110.047 99.8739 109.967 100.279 109.967V111.119C100.226 111.114 100.178 111.111 100.135 111.111C100.093 111.106 100.047 111.103 99.9993 111.103C99.6579 111.103 99.3806 111.202 99.1673 111.399C98.9593 111.591 98.8553 111.892 98.8553 112.303V114.335H97.6073ZM101.029 114.335V110.031H102.277V114.335H101.029ZM101.653 109.431C101.424 109.431 101.237 109.364 101.093 109.231C100.949 109.098 100.877 108.932 100.877 108.735C100.877 108.538 100.949 108.372 101.093 108.239C101.237 108.106 101.424 108.039 101.653 108.039C101.882 108.039 102.069 108.103 102.213 108.231C102.357 108.354 102.429 108.514 102.429 108.711C102.429 108.919 102.357 109.092 102.213 109.231C102.074 109.364 101.888 109.431 101.653 109.431ZM105.459 115.951C105.054 115.951 104.662 115.9 104.283 115.799C103.91 115.703 103.598 115.556 103.347 115.359L103.843 114.463C104.025 114.612 104.254 114.73 104.531 114.815C104.814 114.906 105.091 114.951 105.363 114.951C105.806 114.951 106.126 114.852 106.323 114.655C106.526 114.458 106.627 114.164 106.627 113.775V113.127L106.707 112.047L106.691 110.959V110.031H107.875V113.615C107.875 114.415 107.667 115.004 107.251 115.383C106.835 115.762 106.238 115.951 105.459 115.951ZM105.267 114.127C104.867 114.127 104.505 114.042 104.179 113.871C103.859 113.695 103.601 113.452 103.403 113.143C103.211 112.828 103.115 112.463 103.115 112.047C103.115 111.626 103.211 111.26 103.403 110.951C103.601 110.636 103.859 110.394 104.179 110.223C104.505 110.052 104.867 109.967 105.267 109.967C105.63 109.967 105.95 110.042 106.227 110.191C106.505 110.335 106.721 110.562 106.875 110.871C107.03 111.175 107.107 111.567 107.107 112.047C107.107 112.522 107.03 112.914 106.875 113.223C106.721 113.527 106.505 113.754 106.227 113.903C105.95 114.052 105.63 114.127 105.267 114.127ZM105.515 113.103C105.734 113.103 105.929 113.06 106.099 112.975C106.27 112.884 106.403 112.759 106.499 112.599C106.595 112.439 106.643 112.255 106.643 112.047C106.643 111.834 106.595 111.65 106.499 111.495C106.403 111.335 106.27 111.212 106.099 111.127C105.929 111.036 105.734 110.991 105.515 110.991C105.297 110.991 105.102 111.036 104.931 111.127C104.761 111.212 104.625 111.335 104.523 111.495C104.427 111.65 104.379 111.834 104.379 112.047C104.379 112.255 104.427 112.439 104.523 112.599C104.625 112.759 104.761 112.884 104.931 112.975C105.102 113.06 105.297 113.103 105.515 113.103ZM111.653 109.967C111.994 109.967 112.298 110.036 112.565 110.175C112.837 110.308 113.05 110.516 113.205 110.799C113.36 111.076 113.437 111.434 113.437 111.871V114.335H112.189V112.063C112.189 111.716 112.112 111.46 111.957 111.295C111.808 111.13 111.594 111.047 111.317 111.047C111.12 111.047 110.941 111.09 110.781 111.175C110.626 111.255 110.504 111.38 110.413 111.551C110.328 111.722 110.285 111.94 110.285 112.207V114.335H109.037V108.399H110.285V111.223L110.005 110.863C110.16 110.575 110.381 110.354 110.669 110.199C110.957 110.044 111.285 109.967 111.653 109.967ZM116.328 114.399C115.822 114.399 115.427 114.271 115.144 114.015C114.862 113.754 114.72 113.367 114.72 112.855V109.079H115.968V112.839C115.968 113.02 116.016 113.162 116.112 113.263C116.208 113.359 116.339 113.407 116.504 113.407C116.702 113.407 116.87 113.354 117.008 113.247L117.344 114.127C117.216 114.218 117.062 114.287 116.88 114.335C116.704 114.378 116.52 114.399 116.328 114.399ZM114.056 111.087V110.127H117.04V111.087H114.056Z" fill="#333333"/>
</svg>
