<svg width="160" height="105" viewBox="0 0 160 105" fill="none" xmlns="http://www.w3.org/2000/svg">
<path fill-rule="evenodd" clip-rule="evenodd" d="M159.22 24.3182C159.22 18.5922 154.531 13.9505 148.747 13.9505C130.439 13.9505 101.658 13.9505 88.5207 13.9505C85.8392 13.9504 83.2599 12.932 81.3143 11.1053C76.9544 7.01868 65.9488 0 41.8916 0C7.97493 0 0 13.9505 0 13.9505C0 13.9505 0.00020108 20.7144 0.00030162 26.9667C0.00040216 32.6928 4.68928 37.3346 10.4732 37.3346C22.8812 37.3346 41.8913 37.3346 41.8913 37.3346L46.5001 41.4728H62.4206L67.0263 37.3346C67.0263 37.3346 122.997 37.3346 148.747 37.3346C151.525 37.3346 154.189 36.2422 156.153 34.2977C158.117 32.3532 159.22 29.7158 159.22 26.966C159.22 26.0867 159.22 25.1974 159.22 24.3182Z" fill="#FC79FF"/>
<path fill-rule="evenodd" clip-rule="evenodd" d="M159.22 25.4395H156.707V25.8785C156.707 28.2592 155.751 30.5423 154.051 32.2257C152.351 33.9092 150.044 34.8548 147.64 34.8548H65.9852L61.3794 38.9929H47.5413L42.9325 34.8548C42.9325 34.8548 23.4971 34.8548 11.5805 34.8548C9.17578 34.8548 6.86959 33.9092 5.16916 32.2257C3.46883 30.5423 2.5135 28.2592 2.5135 25.8785V25.4395H0V26.9827C0 29.7325 1.10343 32.3697 3.06747 34.3142C5.03152 36.2586 7.69533 37.3509 10.4729 37.3509C22.8811 37.3509 41.8913 37.3509 41.8913 37.3509L46.5001 41.489H62.4206L67.0263 37.3509H148.747C154.531 37.3509 159.22 32.7091 159.22 26.9829C159.22 26.0449 159.22 25.4395 159.22 25.4395Z" fill="#CD5ACF"/>
<path fill-rule="evenodd" clip-rule="evenodd" d="M0 25.4232H2.5135V15.1985C2.5135 15.1985 9.36419 2.49603 41.8819 2.49603C63.9643 2.49603 75.0076 8.96538 79.6736 12.8874C81.9226 14.7793 84.7717 15.8281 87.7227 15.8506C101.426 15.9617 130.331 16.2455 147.64 16.3774C152.659 16.4156 156.707 20.4541 156.707 25.4224V25.4232H159.22V24.3187C159.22 18.5925 154.531 13.9505 148.747 13.9505C130.442 13.9505 101.671 13.9505 88.5276 13.9505C85.8436 13.9504 83.2621 12.9301 81.3159 11.1003C76.9616 7.01301 65.967 0 41.8916 0C7.93562 0 0.00030162 13.9505 0.00030162 13.9505L0 25.4232Z" fill="#FDACFF"/>
<path d="M12.4831 27.855L10.6511 22.255H11.9951L13.5871 27.215H12.9151L14.5791 22.255H15.7791L17.3791 27.215H16.7311L18.3631 22.255H19.6031L17.7711 27.855H16.3791L14.9631 23.503H15.3311L13.8751 27.855H12.4831ZM22.9718 23.487C23.3131 23.487 23.6171 23.5563 23.8838 23.695C24.1558 23.8283 24.3691 24.0363 24.5238 24.319C24.6785 24.5963 24.7558 24.9536 24.7558 25.391V27.855H23.5078V25.583C23.5078 25.2363 23.4305 24.9803 23.2758 24.815C23.1265 24.6496 22.9131 24.567 22.6358 24.567C22.4385 24.567 22.2598 24.6096 22.0998 24.695C21.9451 24.775 21.8225 24.9003 21.7318 25.071C21.6465 25.2416 21.6038 25.4603 21.6038 25.727V27.855H20.3558V21.919H21.6038V24.743L21.3238 24.383C21.4785 24.095 21.6998 23.8736 21.9878 23.719C22.2758 23.5643 22.6038 23.487 22.9718 23.487ZM28.0543 27.919C27.5636 27.919 27.1316 27.823 26.7583 27.631C26.3903 27.439 26.105 27.1776 25.9023 26.847C25.6996 26.511 25.5983 26.1296 25.5983 25.703C25.5983 25.271 25.697 24.8896 25.8943 24.559C26.097 24.223 26.3716 23.9616 26.7183 23.775C27.065 23.583 27.457 23.487 27.8943 23.487C28.3156 23.487 28.6943 23.5776 29.0303 23.759C29.3716 23.935 29.641 24.191 29.8383 24.527C30.0356 24.8576 30.1343 25.255 30.1343 25.719C30.1343 25.767 30.1316 25.823 30.1263 25.887C30.121 25.9456 30.1156 26.0016 30.1103 26.055H26.6143V25.327H29.4543L28.9743 25.543C28.9743 25.319 28.929 25.1243 28.8383 24.959C28.7476 24.7936 28.6223 24.6656 28.4623 24.575C28.3023 24.479 28.1156 24.431 27.9023 24.431C27.689 24.431 27.4996 24.479 27.3343 24.575C27.1743 24.6656 27.049 24.7963 26.9583 24.967C26.8676 25.1323 26.8223 25.3296 26.8223 25.559V25.751C26.8223 25.9856 26.873 26.1936 26.9743 26.375C27.081 26.551 27.2276 26.687 27.4143 26.783C27.6063 26.8736 27.8303 26.919 28.0863 26.919C28.3156 26.919 28.5156 26.8843 28.6863 26.815C28.8623 26.7456 29.0223 26.6416 29.1663 26.503L29.8303 27.223C29.633 27.447 29.385 27.6203 29.0863 27.743C28.7876 27.8603 28.4436 27.919 28.0543 27.919ZM33.5812 23.487C33.9225 23.487 34.2265 23.5563 34.4932 23.695C34.7652 23.8283 34.9785 24.0363 35.1332 24.319C35.2878 24.5963 35.3652 24.9536 35.3652 25.391V27.855H34.1172V25.583C34.1172 25.2363 34.0398 24.9803 33.8852 24.815C33.7358 24.6496 33.5225 24.567 33.2452 24.567C33.0478 24.567 32.8692 24.6096 32.7092 24.695C32.5545 24.775 32.4318 24.9003 32.3412 25.071C32.2558 25.2416 32.2132 25.4603 32.2132 25.727V27.855H30.9652V23.551H32.1572V24.743L31.9332 24.383C32.0878 24.095 32.3092 23.8736 32.5972 23.719C32.8852 23.5643 33.2132 23.487 33.5812 23.487ZM36.9684 25.047C36.7551 25.047 36.5711 24.975 36.4164 24.831C36.2671 24.6816 36.1924 24.4923 36.1924 24.263C36.1924 24.0336 36.2671 23.8496 36.4164 23.711C36.5711 23.567 36.7551 23.495 36.9684 23.495C37.1871 23.495 37.3711 23.567 37.5204 23.711C37.6697 23.8496 37.7444 24.0336 37.7444 24.263C37.7444 24.4923 37.6697 24.6816 37.5204 24.831C37.3711 24.975 37.1871 25.047 36.9684 25.047ZM36.9684 27.919C36.7551 27.919 36.5711 27.847 36.4164 27.703C36.2671 27.5536 36.1924 27.3643 36.1924 27.135C36.1924 26.9056 36.2671 26.7216 36.4164 26.583C36.5711 26.439 36.7551 26.367 36.9684 26.367C37.1871 26.367 37.3711 26.439 37.5204 26.583C37.6697 26.7216 37.7444 26.9056 37.7444 27.135C37.7444 27.3643 37.6697 27.5536 37.5204 27.703C37.3711 27.847 37.1871 27.919 36.9684 27.919ZM43.3998 27.919C43.0371 27.919 42.7198 27.839 42.4478 27.679C42.1758 27.519 41.9625 27.2763 41.8078 26.951C41.6585 26.6203 41.5838 26.2043 41.5838 25.703C41.5838 25.1963 41.6558 24.7803 41.7998 24.455C41.9438 24.1296 42.1518 23.887 42.4238 23.727C42.6958 23.567 43.0211 23.487 43.3998 23.487C43.8051 23.487 44.1678 23.5803 44.4878 23.767C44.8131 23.9483 45.0691 24.2043 45.2558 24.535C45.4478 24.8656 45.5438 25.255 45.5438 25.703C45.5438 26.1563 45.4478 26.5483 45.2558 26.879C45.0691 27.2096 44.8131 27.4656 44.4878 27.647C44.1678 27.8283 43.8051 27.919 43.3998 27.919ZM40.8558 29.407V23.551H42.0478V24.431L42.0238 25.711L42.1038 26.983V29.407H40.8558ZM43.1838 26.895C43.3918 26.895 43.5758 26.847 43.7358 26.751C43.9011 26.655 44.0318 26.519 44.1278 26.343C44.2291 26.1616 44.2798 25.9483 44.2798 25.703C44.2798 25.4523 44.2291 25.239 44.1278 25.063C44.0318 24.887 43.9011 24.751 43.7358 24.655C43.5758 24.559 43.3918 24.511 43.1838 24.511C42.9758 24.511 42.7891 24.559 42.6238 24.655C42.4585 24.751 42.3278 24.887 42.2318 25.063C42.1358 25.239 42.0878 25.4523 42.0878 25.703C42.0878 25.9483 42.1358 26.1616 42.2318 26.343C42.3278 26.519 42.4585 26.655 42.6238 26.751C42.7891 26.847 42.9758 26.895 43.1838 26.895ZM46.3792 27.855V23.551H47.5712V24.767L47.4032 24.415C47.5312 24.111 47.7366 23.8816 48.0192 23.727C48.3019 23.567 48.6459 23.487 49.0512 23.487V24.639C48.9979 24.6336 48.9499 24.631 48.9072 24.631C48.8646 24.6256 48.8192 24.623 48.7712 24.623C48.4299 24.623 48.1526 24.7216 47.9392 24.919C47.7312 25.111 47.6272 25.4123 47.6272 25.823V27.855H46.3792ZM51.898 27.919C51.4074 27.919 50.9754 27.823 50.602 27.631C50.234 27.439 49.9487 27.1776 49.746 26.847C49.5434 26.511 49.442 26.1296 49.442 25.703C49.442 25.271 49.5407 24.8896 49.738 24.559C49.9407 24.223 50.2154 23.9616 50.562 23.775C50.9087 23.583 51.3007 23.487 51.738 23.487C52.1594 23.487 52.538 23.5776 52.874 23.759C53.2154 23.935 53.4847 24.191 53.682 24.527C53.8794 24.8576 53.978 25.255 53.978 25.719C53.978 25.767 53.9754 25.823 53.97 25.887C53.9647 25.9456 53.9594 26.0016 53.954 26.055H50.458V25.327H53.298L52.818 25.543C52.818 25.319 52.7727 25.1243 52.682 24.959C52.5914 24.7936 52.466 24.6656 52.306 24.575C52.146 24.479 51.9594 24.431 51.746 24.431C51.5327 24.431 51.3434 24.479 51.178 24.575C51.018 24.6656 50.8927 24.7963 50.802 24.967C50.7114 25.1323 50.666 25.3296 50.666 25.559V25.751C50.666 25.9856 50.7167 26.1936 50.818 26.375C50.9247 26.551 51.0714 26.687 51.258 26.783C51.45 26.8736 51.674 26.919 51.93 26.919C52.1594 26.919 52.3594 26.8843 52.53 26.815C52.706 26.7456 52.866 26.6416 53.01 26.503L53.674 27.223C53.4767 27.447 53.2287 27.6203 52.93 27.743C52.6314 27.8603 52.2874 27.919 51.898 27.919ZM56.2569 27.919C55.8889 27.919 55.5342 27.8763 55.1929 27.791C54.8569 27.7003 54.5902 27.5883 54.3929 27.455L54.8089 26.559C55.0062 26.6816 55.2382 26.783 55.5049 26.863C55.7769 26.9376 56.0436 26.975 56.3049 26.975C56.5929 26.975 56.7956 26.9403 56.9129 26.871C57.0356 26.8016 57.0969 26.7056 57.0969 26.583C57.0969 26.4816 57.0489 26.407 56.9529 26.359C56.8622 26.3056 56.7396 26.2656 56.5849 26.239C56.4302 26.2123 56.2596 26.1856 56.0729 26.159C55.8916 26.1323 55.7076 26.0976 55.5209 26.055C55.3342 26.007 55.1636 25.9376 55.0089 25.847C54.8542 25.7563 54.7289 25.6336 54.6329 25.479C54.5422 25.3243 54.4969 25.1243 54.4969 24.879C54.4969 24.607 54.5742 24.367 54.7289 24.159C54.8889 23.951 55.1182 23.7883 55.4169 23.671C55.7156 23.5483 56.0729 23.487 56.4889 23.487C56.7822 23.487 57.0809 23.519 57.3849 23.583C57.6889 23.647 57.9422 23.7403 58.1449 23.863L57.7289 24.751C57.5209 24.6283 57.3102 24.5456 57.0969 24.503C56.8889 24.455 56.6862 24.431 56.4889 24.431C56.2116 24.431 56.0089 24.4683 55.8809 24.543C55.7529 24.6176 55.6889 24.7136 55.6889 24.831C55.6889 24.9376 55.7342 25.0176 55.8249 25.071C55.9209 25.1243 56.0462 25.167 56.2009 25.199C56.3556 25.231 56.5236 25.2603 56.7049 25.287C56.8916 25.3083 57.0782 25.343 57.2649 25.391C57.4516 25.439 57.6196 25.5083 57.7689 25.599C57.9236 25.6843 58.0489 25.8043 58.1449 25.959C58.2409 26.1083 58.2889 26.3056 58.2889 26.551C58.2889 26.8176 58.2089 27.055 58.0489 27.263C57.8889 27.4656 57.6569 27.6256 57.3529 27.743C57.0542 27.8603 56.6889 27.919 56.2569 27.919ZM60.5069 27.919C60.1389 27.919 59.7842 27.8763 59.4429 27.791C59.1069 27.7003 58.8402 27.5883 58.6429 27.455L59.0589 26.559C59.2562 26.6816 59.4882 26.783 59.7549 26.863C60.0269 26.9376 60.2936 26.975 60.5549 26.975C60.8429 26.975 61.0456 26.9403 61.1629 26.871C61.2856 26.8016 61.3469 26.7056 61.3469 26.583C61.3469 26.4816 61.2989 26.407 61.2029 26.359C61.1122 26.3056 60.9896 26.2656 60.8349 26.239C60.6802 26.2123 60.5096 26.1856 60.3229 26.159C60.1416 26.1323 59.9576 26.0976 59.7709 26.055C59.5842 26.007 59.4136 25.9376 59.2589 25.847C59.1042 25.7563 58.9789 25.6336 58.8829 25.479C58.7922 25.3243 58.7469 25.1243 58.7469 24.879C58.7469 24.607 58.8242 24.367 58.9789 24.159C59.1389 23.951 59.3682 23.7883 59.6669 23.671C59.9656 23.5483 60.3229 23.487 60.7389 23.487C61.0322 23.487 61.3309 23.519 61.6349 23.583C61.9389 23.647 62.1922 23.7403 62.3949 23.863L61.9789 24.751C61.7709 24.6283 61.5602 24.5456 61.3469 24.503C61.1389 24.455 60.9362 24.431 60.7389 24.431C60.4616 24.431 60.2589 24.4683 60.1309 24.543C60.0029 24.6176 59.9389 24.7136 59.9389 24.831C59.9389 24.9376 59.9842 25.0176 60.0749 25.071C60.1709 25.1243 60.2962 25.167 60.4509 25.199C60.6056 25.231 60.7736 25.2603 60.9549 25.287C61.1416 25.3083 61.3282 25.343 61.5149 25.391C61.7016 25.439 61.8696 25.5083 62.0189 25.599C62.1736 25.6843 62.2989 25.8043 62.3949 25.959C62.4909 26.1083 62.5389 26.3056 62.5389 26.551C62.5389 26.8176 62.4589 27.055 62.2989 27.263C62.1389 27.4656 61.9069 27.6256 61.6029 27.743C61.3042 27.8603 60.9389 27.919 60.5069 27.919ZM68.2145 27.855V27.015L68.1345 26.831V25.327C68.1345 25.0603 68.0519 24.8523 67.8865 24.703C67.7265 24.5536 67.4785 24.479 67.1425 24.479C66.9132 24.479 66.6865 24.5163 66.4625 24.591C66.2439 24.6603 66.0572 24.7563 65.9025 24.879L65.4545 24.007C65.6892 23.8416 65.9719 23.7136 66.3025 23.623C66.6332 23.5323 66.9692 23.487 67.3105 23.487C67.9665 23.487 68.4759 23.6416 68.8385 23.951C69.2012 24.2603 69.3825 24.743 69.3825 25.399V27.855H68.2145ZM66.9025 27.919C66.5665 27.919 66.2785 27.863 66.0385 27.751C65.7985 27.6336 65.6145 27.4763 65.4865 27.279C65.3585 27.0816 65.2945 26.8603 65.2945 26.615C65.2945 26.359 65.3559 26.135 65.4785 25.943C65.6065 25.751 65.8065 25.6016 66.0785 25.495C66.3505 25.383 66.7052 25.327 67.1425 25.327H68.2865V26.055H67.2785C66.9852 26.055 66.7825 26.103 66.6705 26.199C66.5639 26.295 66.5105 26.415 66.5105 26.559C66.5105 26.719 66.5719 26.847 66.6945 26.943C66.8225 27.0336 66.9959 27.079 67.2145 27.079C67.4225 27.079 67.6092 27.031 67.7745 26.935C67.9399 26.8336 68.0599 26.687 68.1345 26.495L68.3265 27.071C68.2359 27.3483 68.0705 27.559 67.8305 27.703C67.5905 27.847 67.2812 27.919 66.9025 27.919ZM73.128 23.487C73.4694 23.487 73.7734 23.5563 74.04 23.695C74.312 23.8283 74.5254 24.0363 74.68 24.319C74.8347 24.5963 74.912 24.9536 74.912 25.391V27.855H73.664V25.583C73.664 25.2363 73.5867 24.9803 73.432 24.815C73.2827 24.6496 73.0694 24.567 72.792 24.567C72.5947 24.567 72.416 24.6096 72.256 24.695C72.1014 24.775 71.9787 24.9003 71.888 25.071C71.8027 25.2416 71.76 25.4603 71.76 25.727V27.855H70.512V23.551H71.704V24.743L71.48 24.383C71.6347 24.095 71.856 23.8736 72.144 23.719C72.432 23.5643 72.76 23.487 73.128 23.487ZM76.0433 27.855V23.551H77.2913V27.855H76.0433ZM76.6673 22.951C76.438 22.951 76.2513 22.8843 76.1073 22.751C75.9633 22.6176 75.8913 22.4523 75.8913 22.255C75.8913 22.0576 75.9633 21.8923 76.1073 21.759C76.2513 21.6256 76.438 21.559 76.6673 21.559C76.8966 21.559 77.0833 21.623 77.2273 21.751C77.3713 21.8736 77.4433 22.0336 77.4433 22.231C77.4433 22.439 77.3713 22.6123 77.2273 22.751C77.0886 22.8843 76.902 22.951 76.6673 22.951ZM83.9615 23.487C84.3029 23.487 84.6042 23.5563 84.8655 23.695C85.1322 23.8283 85.3402 24.0363 85.4895 24.319C85.6442 24.5963 85.7215 24.9536 85.7215 25.391V27.855H84.4735V25.583C84.4735 25.2363 84.4015 24.9803 84.2575 24.815C84.1135 24.6496 83.9109 24.567 83.6495 24.567C83.4682 24.567 83.3055 24.6096 83.1615 24.695C83.0175 24.775 82.9055 24.8976 82.8255 25.063C82.7455 25.2283 82.7055 25.439 82.7055 25.695V27.855H81.4575V25.583C81.4575 25.2363 81.3855 24.9803 81.2415 24.815C81.1029 24.6496 80.9029 24.567 80.6415 24.567C80.4602 24.567 80.2975 24.6096 80.1535 24.695C80.0095 24.775 79.8975 24.8976 79.8175 25.063C79.7375 25.2283 79.6975 25.439 79.6975 25.695V27.855H78.4495V23.551H79.6415V24.727L79.4175 24.383C79.5669 24.0896 79.7775 23.8683 80.0495 23.719C80.3269 23.5643 80.6415 23.487 80.9935 23.487C81.3882 23.487 81.7322 23.5883 82.0255 23.791C82.3242 23.9883 82.5215 24.2923 82.6175 24.703L82.1775 24.583C82.3215 24.247 82.5509 23.9803 82.8655 23.783C83.1855 23.5856 83.5509 23.487 83.9615 23.487ZM89.4802 27.855V27.015L89.4002 26.831V25.327C89.4002 25.0603 89.3175 24.8523 89.1522 24.703C88.9922 24.5536 88.7442 24.479 88.4082 24.479C88.1788 24.479 87.9522 24.5163 87.7282 24.591C87.5095 24.6603 87.3228 24.7563 87.1682 24.879L86.7202 24.007C86.9548 23.8416 87.2375 23.7136 87.5682 23.623C87.8988 23.5323 88.2348 23.487 88.5762 23.487C89.2322 23.487 89.7415 23.6416 90.1042 23.951C90.4668 24.2603 90.6482 24.743 90.6482 25.399V27.855H89.4802ZM88.1682 27.919C87.8322 27.919 87.5442 27.863 87.3042 27.751C87.0642 27.6336 86.8802 27.4763 86.7522 27.279C86.6242 27.0816 86.5602 26.8603 86.5602 26.615C86.5602 26.359 86.6215 26.135 86.7442 25.943C86.8722 25.751 87.0722 25.6016 87.3442 25.495C87.6162 25.383 87.9708 25.327 88.4082 25.327H89.5522V26.055H88.5442C88.2508 26.055 88.0482 26.103 87.9362 26.199C87.8295 26.295 87.7762 26.415 87.7762 26.559C87.7762 26.719 87.8375 26.847 87.9602 26.943C88.0882 27.0336 88.2615 27.079 88.4802 27.079C88.6882 27.079 88.8748 27.031 89.0402 26.935C89.2055 26.8336 89.3255 26.687 89.4002 26.495L89.5922 27.071C89.5015 27.3483 89.3362 27.559 89.0962 27.703C88.8562 27.847 88.5468 27.919 88.1682 27.919ZM93.5377 27.919C93.031 27.919 92.6363 27.791 92.3537 27.535C92.071 27.2736 91.9297 26.887 91.9297 26.375V22.599H93.1777V26.359C93.1777 26.5403 93.2257 26.6816 93.3217 26.783C93.4177 26.879 93.5483 26.927 93.7137 26.927C93.911 26.927 94.079 26.8736 94.2177 26.767L94.5537 27.647C94.4257 27.7376 94.271 27.807 94.0897 27.855C93.9137 27.8976 93.7297 27.919 93.5377 27.919ZM91.2657 24.607V23.647H94.2497V24.607H91.2657ZM97.2574 27.919C96.7667 27.919 96.3347 27.823 95.9614 27.631C95.5934 27.439 95.3081 27.1776 95.1054 26.847C94.9027 26.511 94.8014 26.1296 94.8014 25.703C94.8014 25.271 94.9001 24.8896 95.0974 24.559C95.3001 24.223 95.5747 23.9616 95.9214 23.775C96.2681 23.583 96.6601 23.487 97.0974 23.487C97.5187 23.487 97.8974 23.5776 98.2334 23.759C98.5747 23.935 98.8441 24.191 99.0414 24.527C99.2387 24.8576 99.3374 25.255 99.3374 25.719C99.3374 25.767 99.3347 25.823 99.3294 25.887C99.3241 25.9456 99.3187 26.0016 99.3134 26.055H95.8174V25.327H98.6574L98.1774 25.543C98.1774 25.319 98.1321 25.1243 98.0414 24.959C97.9507 24.7936 97.8254 24.6656 97.6654 24.575C97.5054 24.479 97.3187 24.431 97.1054 24.431C96.8921 24.431 96.7027 24.479 96.5374 24.575C96.3774 24.6656 96.2521 24.7963 96.1614 24.967C96.0707 25.1323 96.0254 25.3296 96.0254 25.559V25.751C96.0254 25.9856 96.0761 26.1936 96.1774 26.375C96.2841 26.551 96.4307 26.687 96.6174 26.783C96.8094 26.8736 97.0334 26.919 97.2894 26.919C97.5187 26.919 97.7187 26.8843 97.8894 26.815C98.0654 26.7456 98.2254 26.6416 98.3694 26.503L99.0334 27.223C98.8361 27.447 98.5881 27.6203 98.2894 27.743C97.9907 27.8603 97.6467 27.919 97.2574 27.919ZM104.978 27.919C104.599 27.919 104.274 27.839 104.002 27.679C103.73 27.519 103.522 27.2763 103.378 26.951C103.234 26.6203 103.162 26.2043 103.162 25.703C103.162 25.1963 103.237 24.7803 103.386 24.455C103.541 24.1296 103.754 23.887 104.026 23.727C104.298 23.567 104.615 23.487 104.978 23.487C105.383 23.487 105.746 23.5776 106.066 23.759C106.391 23.9403 106.647 24.1963 106.834 24.527C107.026 24.8576 107.122 25.2496 107.122 25.703C107.122 26.151 107.026 26.5403 106.834 26.871C106.647 27.2016 106.391 27.4603 106.066 27.647C105.746 27.8283 105.383 27.919 104.978 27.919ZM102.434 27.855V21.919H103.682V24.423L103.602 25.695L103.626 26.975V27.855H102.434ZM104.762 26.895C104.97 26.895 105.154 26.847 105.314 26.751C105.479 26.655 105.61 26.519 105.706 26.343C105.807 26.1616 105.858 25.9483 105.858 25.703C105.858 25.4523 105.807 25.239 105.706 25.063C105.61 24.887 105.479 24.751 105.314 24.655C105.154 24.559 104.97 24.511 104.762 24.511C104.554 24.511 104.367 24.559 104.202 24.655C104.037 24.751 103.906 24.887 103.81 25.063C103.714 25.239 103.666 25.4523 103.666 25.703C103.666 25.9483 103.714 26.1616 103.81 26.343C103.906 26.519 104.037 26.655 104.202 26.751C104.367 26.847 104.554 26.895 104.762 26.895ZM109.773 27.919C109.416 27.919 109.096 27.8496 108.813 27.711C108.536 27.5723 108.32 27.3616 108.165 27.079C108.011 26.791 107.933 26.4256 107.933 25.983V23.551H109.181V25.799C109.181 26.1563 109.256 26.4203 109.405 26.591C109.56 26.7563 109.776 26.839 110.053 26.839C110.245 26.839 110.416 26.799 110.565 26.719C110.715 26.6336 110.832 26.5056 110.917 26.335C111.003 26.159 111.045 25.9403 111.045 25.679V23.551H112.293V27.855H111.109V26.671L111.325 27.015C111.181 27.3136 110.968 27.5403 110.685 27.695C110.408 27.8443 110.104 27.919 109.773 27.919ZM115.21 27.919C114.703 27.919 114.308 27.791 114.026 27.535C113.743 27.2736 113.602 26.887 113.602 26.375V22.599H114.85V26.359C114.85 26.5403 114.898 26.6816 114.994 26.783C115.09 26.879 115.22 26.927 115.386 26.927C115.583 26.927 115.751 26.8736 115.89 26.767L116.226 27.647C116.098 27.7376 115.943 27.807 115.762 27.855C115.586 27.8976 115.402 27.919 115.21 27.919ZM112.938 24.607V23.647H115.922V24.607H112.938ZM118.592 27.919C118.086 27.919 117.691 27.791 117.408 27.535C117.126 27.2736 116.984 26.887 116.984 26.375V22.599H118.232V26.359C118.232 26.5403 118.28 26.6816 118.376 26.783C118.472 26.879 118.603 26.927 118.768 26.927C118.966 26.927 119.134 26.8736 119.272 26.767L119.608 27.647C119.48 27.7376 119.326 27.807 119.144 27.855C118.968 27.8976 118.784 27.919 118.592 27.919ZM116.32 24.607V23.647H119.304V24.607H116.32ZM122.224 27.919C121.765 27.919 121.357 27.823 121 27.631C120.648 27.439 120.368 27.1776 120.16 26.847C119.957 26.511 119.856 26.1296 119.856 25.703C119.856 25.271 119.957 24.8896 120.16 24.559C120.368 24.223 120.648 23.9616 121 23.775C121.357 23.583 121.765 23.487 122.224 23.487C122.677 23.487 123.083 23.583 123.44 23.775C123.797 23.9616 124.077 24.2203 124.28 24.551C124.483 24.8816 124.584 25.2656 124.584 25.703C124.584 26.1296 124.483 26.511 124.28 26.847C124.077 27.1776 123.797 27.439 123.44 27.631C123.083 27.823 122.677 27.919 122.224 27.919ZM122.224 26.895C122.432 26.895 122.619 26.847 122.784 26.751C122.949 26.655 123.08 26.519 123.176 26.343C123.272 26.1616 123.32 25.9483 123.32 25.703C123.32 25.4523 123.272 25.239 123.176 25.063C123.08 24.887 122.949 24.751 122.784 24.655C122.619 24.559 122.432 24.511 122.224 24.511C122.016 24.511 121.829 24.559 121.664 24.655C121.499 24.751 121.365 24.887 121.264 25.063C121.168 25.239 121.12 25.4523 121.12 25.703C121.12 25.9483 121.168 26.1616 121.264 26.343C121.365 26.519 121.499 26.655 121.664 26.751C121.829 26.847 122.016 26.895 122.224 26.895ZM128.034 23.487C128.376 23.487 128.68 23.5563 128.946 23.695C129.218 23.8283 129.432 24.0363 129.586 24.319C129.741 24.5963 129.818 24.9536 129.818 25.391V27.855H128.57V25.583C128.57 25.2363 128.493 24.9803 128.338 24.815C128.189 24.6496 127.976 24.567 127.698 24.567C127.501 24.567 127.322 24.6096 127.162 24.695C127.008 24.775 126.885 24.9003 126.794 25.071C126.709 25.2416 126.666 25.4603 126.666 25.727V27.855H125.418V23.551H126.61V24.743L126.386 24.383C126.541 24.095 126.762 23.8736 127.05 23.719C127.338 23.5643 127.666 23.487 128.034 23.487ZM131.422 27.919C131.208 27.919 131.024 27.847 130.87 27.703C130.72 27.5536 130.646 27.3643 130.646 27.135C130.646 26.9056 130.72 26.7216 130.87 26.583C131.024 26.439 131.208 26.367 131.422 26.367C131.64 26.367 131.824 26.439 131.974 26.583C132.123 26.7216 132.198 26.9056 132.198 27.135C132.198 27.3643 132.123 27.5536 131.974 27.703C131.824 27.847 131.64 27.919 131.422 27.919Z" fill="#333333"/>
<path fill-rule="evenodd" clip-rule="evenodd" d="M158.801 47.6467C158.801 44.8222 157.701 42.1135 155.742 40.1163C153.783 38.1191 151.127 36.9971 148.357 36.9971C122.678 36.9971 66.8921 37 66.8921 37L62.2991 41.2504H46.4223L41.8261 37H27.2042C24.4342 37 21.7777 38.1221 19.8191 40.1193C17.8604 42.1164 16.76 44.8252 16.76 47.6497C16.76 47.6527 16.76 47.6559 16.76 47.6591C16.76 50.4835 17.8604 53.1922 19.8191 55.1894C21.7777 57.1866 24.4342 58.3086 27.2042 58.3086C34.0833 58.3086 41.8261 58.3086 41.8261 58.3086L46.4223 62.559H62.2959L66.8921 58.3086L148.357 58.3057C151.127 58.3057 153.783 57.1837 155.742 55.1865C157.701 53.1893 158.801 50.4806 158.801 47.6561C158.801 47.6529 158.801 47.6498 158.801 47.6467Z" fill="#30DCFF"/>
<path fill-rule="evenodd" clip-rule="evenodd" d="M158.801 47.6501C158.801 44.8256 157.701 42.1169 155.742 40.1197C153.783 38.1225 151.127 37.0005 148.357 37.0005C122.678 37.0005 66.8921 37.0005 66.8921 37.0005L62.2991 41.2508H46.4223L41.8261 37.0005H27.2042C24.4342 37.0005 21.7777 38.1225 19.8191 40.1197C17.8604 42.1169 16.76 44.8256 16.76 47.6501C16.76 47.6532 16.76 47.6548 16.76 47.6548H19.2666C19.2666 43.0493 22.9282 39.3156 27.4449 39.3156C33.5352 39.3156 40.8003 39.3156 40.8003 39.3156L45.3965 43.566H63.3405L67.9367 39.3156H148.117C152.633 39.3156 156.295 43.0492 156.295 47.6547L158.801 47.6548V47.6501Z" fill="#93EDFF"/>
<path fill-rule="evenodd" clip-rule="evenodd" d="M158.801 47.6519H156.294V47.6525C156.294 49.8632 155.433 51.9835 153.9 53.5467C152.367 55.11 150.288 55.9882 148.12 55.9882C124.444 55.9882 65.8539 55.9882 65.8539 55.9882L61.2577 60.2385H47.4606L42.8644 55.9882H27.4416C22.9267 55.9882 19.2666 52.2562 19.2666 47.6525V47.6519H16.76V47.6566C16.76 50.481 17.8604 53.1898 19.8191 55.187C21.7777 57.1841 24.4342 58.3062 27.2042 58.3062C34.0833 58.3062 41.8261 58.3062 41.8261 58.3062L46.4223 62.5565H62.2959L66.8921 58.3062H148.357C154.125 58.3062 158.801 53.5384 158.801 47.6569C158.801 47.6535 158.801 47.6519 158.801 47.6519Z" fill="#08A0BF"/>
<path d="M28.384 51.431C27.9413 51.431 27.5307 51.359 27.152 51.215C26.7787 51.071 26.4533 50.8683 26.176 50.607C25.904 50.3456 25.6907 50.039 25.536 49.687C25.3867 49.335 25.312 48.951 25.312 48.535C25.312 48.119 25.3867 47.735 25.536 47.383C25.6907 47.031 25.9067 46.7243 26.184 46.463C26.4613 46.2016 26.7867 45.999 27.16 45.855C27.5333 45.711 27.9387 45.639 28.376 45.639C28.8187 45.639 29.224 45.711 29.592 45.855C29.9653 45.999 30.288 46.2016 30.56 46.463C30.8373 46.7243 31.0533 47.031 31.208 47.383C31.3627 47.7296 31.44 48.1136 31.44 48.535C31.44 48.951 31.3627 49.3376 31.208 49.695C31.0533 50.047 30.8373 50.3536 30.56 50.615C30.288 50.871 29.9653 51.071 29.592 51.215C29.224 51.359 28.8213 51.431 28.384 51.431ZM28.376 50.327C28.6267 50.327 28.856 50.2843 29.064 50.199C29.2773 50.1136 29.464 49.991 29.624 49.831C29.784 49.671 29.9067 49.4816 29.992 49.263C30.0827 49.0443 30.128 48.8016 30.128 48.535C30.128 48.2683 30.0827 48.0256 29.992 47.807C29.9067 47.5883 29.784 47.399 29.624 47.239C29.4693 47.079 29.2853 46.9563 29.072 46.871C28.8587 46.7856 28.6267 46.743 28.376 46.743C28.1253 46.743 27.8933 46.7856 27.68 46.871C27.472 46.9563 27.288 47.079 27.128 47.239C26.968 47.399 26.8427 47.5883 26.752 47.807C26.6667 48.0256 26.624 48.2683 26.624 48.535C26.624 48.7963 26.6667 49.039 26.752 49.263C26.8427 49.4816 26.9653 49.671 27.12 49.831C27.28 49.991 27.4667 50.1136 27.68 50.199C27.8933 50.2843 28.1253 50.327 28.376 50.327ZM34.87 51.399C34.5073 51.399 34.19 51.319 33.918 51.159C33.646 50.999 33.4327 50.7563 33.278 50.431C33.1287 50.1003 33.054 49.6843 33.054 49.183C33.054 48.6763 33.126 48.2603 33.27 47.935C33.414 47.6096 33.622 47.367 33.894 47.207C34.166 47.047 34.4913 46.967 34.87 46.967C35.2753 46.967 35.638 47.0603 35.958 47.247C36.2833 47.4283 36.5393 47.6843 36.726 48.015C36.918 48.3456 37.014 48.735 37.014 49.183C37.014 49.6363 36.918 50.0283 36.726 50.359C36.5393 50.6896 36.2833 50.9456 35.958 51.127C35.638 51.3083 35.2753 51.399 34.87 51.399ZM32.326 52.887V47.031H33.518V47.911L33.494 49.191L33.574 50.463V52.887H32.326ZM34.654 50.375C34.862 50.375 35.046 50.327 35.206 50.231C35.3713 50.135 35.502 49.999 35.598 49.823C35.6993 49.6416 35.75 49.4283 35.75 49.183C35.75 48.9323 35.6993 48.719 35.598 48.543C35.502 48.367 35.3713 48.231 35.206 48.135C35.046 48.039 34.862 47.991 34.654 47.991C34.446 47.991 34.2593 48.039 34.094 48.135C33.9287 48.231 33.798 48.367 33.702 48.543C33.606 48.719 33.558 48.9323 33.558 49.183C33.558 49.4283 33.606 49.6416 33.702 49.823C33.798 49.999 33.9287 50.135 34.094 50.231C34.2593 50.327 34.446 50.375 34.654 50.375ZM39.9854 51.399C39.4948 51.399 39.0628 51.303 38.6894 51.111C38.3214 50.919 38.0361 50.6576 37.8334 50.327C37.6308 49.991 37.5294 49.6096 37.5294 49.183C37.5294 48.751 37.6281 48.3696 37.8254 48.039C38.0281 47.703 38.3028 47.4416 38.6494 47.255C38.9961 47.063 39.3881 46.967 39.8254 46.967C40.2468 46.967 40.6254 47.0576 40.9614 47.239C41.3028 47.415 41.5721 47.671 41.7694 48.007C41.9668 48.3376 42.0654 48.735 42.0654 49.199C42.0654 49.247 42.0628 49.303 42.0574 49.367C42.0521 49.4256 42.0468 49.4816 42.0414 49.535H38.5454V48.807H41.3854L40.9054 49.023C40.9054 48.799 40.8601 48.6043 40.7694 48.439C40.6788 48.2736 40.5534 48.1456 40.3934 48.055C40.2334 47.959 40.0468 47.911 39.8334 47.911C39.6201 47.911 39.4308 47.959 39.2654 48.055C39.1054 48.1456 38.9801 48.2763 38.8894 48.447C38.7988 48.6123 38.7534 48.8096 38.7534 49.039V49.231C38.7534 49.4656 38.8041 49.6736 38.9054 49.855C39.0121 50.031 39.1588 50.167 39.3454 50.263C39.5374 50.3536 39.7614 50.399 40.0174 50.399C40.2468 50.399 40.4468 50.3643 40.6174 50.295C40.7934 50.2256 40.9534 50.1216 41.0974 49.983L41.7614 50.703C41.5641 50.927 41.3161 51.1003 41.0174 51.223C40.7188 51.3403 40.3748 51.399 39.9854 51.399ZM45.5123 46.967C45.8536 46.967 46.1576 47.0363 46.4243 47.175C46.6963 47.3083 46.9096 47.5163 47.0643 47.799C47.219 48.0763 47.2963 48.4336 47.2963 48.871V51.335H46.0483V49.063C46.0483 48.7163 45.971 48.4603 45.8163 48.295C45.667 48.1296 45.4536 48.047 45.1763 48.047C44.979 48.047 44.8003 48.0896 44.6403 48.175C44.4856 48.255 44.363 48.3803 44.2723 48.551C44.187 48.7216 44.1443 48.9403 44.1443 49.207V51.335H42.8963V47.031H44.0883V48.223L43.8643 47.863C44.019 47.575 44.2403 47.3536 44.5283 47.199C44.8163 47.0443 45.1443 46.967 45.5123 46.967ZM52.4532 51.399C51.9465 51.399 51.5519 51.271 51.2692 51.015C50.9865 50.7536 50.8452 50.367 50.8452 49.855V46.079H52.0932V49.839C52.0932 50.0203 52.1412 50.1616 52.2372 50.263C52.3332 50.359 52.4639 50.407 52.6292 50.407C52.8265 50.407 52.9945 50.3536 53.1332 50.247L53.4692 51.127C53.3412 51.2176 53.1865 51.287 53.0052 51.335C52.8292 51.3776 52.6452 51.399 52.4532 51.399ZM50.1812 48.087V47.127H53.1652V48.087H50.1812ZM56.7858 46.967C57.1271 46.967 57.4311 47.0363 57.6978 47.175C57.9698 47.3083 58.1831 47.5163 58.3378 47.799C58.4924 48.0763 58.5698 48.4336 58.5698 48.871V51.335H57.3218V49.063C57.3218 48.7163 57.2444 48.4603 57.0898 48.295C56.9404 48.1296 56.7271 48.047 56.4498 48.047C56.2524 48.047 56.0738 48.0896 55.9138 48.175C55.7591 48.255 55.6364 48.3803 55.5458 48.551C55.4604 48.7216 55.4178 48.9403 55.4178 49.207V51.335H54.1698V45.399H55.4178V48.223L55.1378 47.863C55.2924 47.575 55.5138 47.3536 55.8018 47.199C56.0898 47.0443 56.4178 46.967 56.7858 46.967ZM61.8683 51.399C61.3776 51.399 60.9456 51.303 60.5723 51.111C60.2043 50.919 59.9189 50.6576 59.7163 50.327C59.5136 49.991 59.4123 49.6096 59.4123 49.183C59.4123 48.751 59.5109 48.3696 59.7083 48.039C59.9109 47.703 60.1856 47.4416 60.5323 47.255C60.8789 47.063 61.2709 46.967 61.7083 46.967C62.1296 46.967 62.5083 47.0576 62.8443 47.239C63.1856 47.415 63.4549 47.671 63.6523 48.007C63.8496 48.3376 63.9483 48.735 63.9483 49.199C63.9483 49.247 63.9456 49.303 63.9403 49.367C63.9349 49.4256 63.9296 49.4816 63.9243 49.535H60.4283V48.807H63.2682L62.7883 49.023C62.7883 48.799 62.7429 48.6043 62.6523 48.439C62.5616 48.2736 62.4363 48.1456 62.2763 48.055C62.1163 47.959 61.9296 47.911 61.7163 47.911C61.5029 47.911 61.3136 47.959 61.1483 48.055C60.9883 48.1456 60.8629 48.2763 60.7723 48.447C60.6816 48.6123 60.6363 48.8096 60.6363 49.039V49.231C60.6363 49.4656 60.6869 49.6736 60.7883 49.855C60.8949 50.031 61.0416 50.167 61.2283 50.263C61.4203 50.3536 61.6443 50.399 61.9003 50.399C62.1296 50.399 62.3296 50.3643 62.5003 50.295C62.6763 50.2256 62.8363 50.1216 62.9803 49.983L63.6443 50.703C63.4469 50.927 63.1989 51.1003 62.9003 51.223C62.6016 51.3403 62.2576 51.399 61.8683 51.399ZM69.1808 51.399C68.6901 51.399 68.2581 51.303 67.8848 51.111C67.5168 50.919 67.2314 50.6576 67.0288 50.327C66.8261 49.991 66.7248 49.6096 66.7248 49.183C66.7248 48.751 66.8234 48.3696 67.0208 48.039C67.2234 47.703 67.4981 47.4416 67.8448 47.255C68.1914 47.063 68.5834 46.967 69.0208 46.967C69.4421 46.967 69.8208 47.0576 70.1568 47.239C70.4981 47.415 70.7674 47.671 70.9648 48.007C71.1621 48.3376 71.2608 48.735 71.2608 49.199C71.2608 49.247 71.2581 49.303 71.2528 49.367C71.2474 49.4256 71.2421 49.4816 71.2368 49.535H67.7408V48.807H70.5807L70.1008 49.023C70.1008 48.799 70.0554 48.6043 69.9648 48.439C69.8741 48.2736 69.7488 48.1456 69.5888 48.055C69.4288 47.959 69.2421 47.911 69.0288 47.911C68.8154 47.911 68.6261 47.959 68.4608 48.055C68.3008 48.1456 68.1754 48.2763 68.0848 48.447C67.9941 48.6123 67.9488 48.8096 67.9488 49.039V49.231C67.9488 49.4656 67.9994 49.6736 68.1008 49.855C68.2074 50.031 68.3541 50.167 68.5408 50.263C68.7328 50.3536 68.9568 50.399 69.2128 50.399C69.4421 50.399 69.6421 50.3643 69.8128 50.295C69.9888 50.2256 70.1488 50.1216 70.2928 49.983L70.9568 50.703C70.7594 50.927 70.5114 51.1003 70.2128 51.223C69.9141 51.3403 69.5701 51.399 69.1808 51.399ZM72.5575 52.951C72.3335 52.951 72.1122 52.9163 71.8935 52.847C71.6748 52.7776 71.4962 52.6816 71.3575 52.559L71.8135 51.671C71.9095 51.7563 72.0188 51.823 72.1415 51.871C72.2695 51.919 72.3948 51.943 72.5175 51.943C72.6935 51.943 72.8322 51.9003 72.9335 51.815C73.0402 51.735 73.1362 51.599 73.2215 51.407L73.4455 50.879L73.5415 50.743L75.0855 47.031H76.2855L74.3415 51.599C74.2028 51.9456 74.0428 52.2176 73.8615 52.415C73.6855 52.6123 73.4882 52.751 73.2695 52.831C73.0562 52.911 72.8188 52.951 72.5575 52.951ZM73.2935 51.503L71.3735 47.031H72.6615L74.1495 50.631L73.2935 51.503ZM78.8136 51.399C78.3229 51.399 77.8909 51.303 77.5176 51.111C77.1496 50.919 76.8642 50.6576 76.6616 50.327C76.4589 49.991 76.3576 49.6096 76.3576 49.183C76.3576 48.751 76.4562 48.3696 76.6536 48.039C76.8562 47.703 77.1309 47.4416 77.4776 47.255C77.8242 47.063 78.2162 46.967 78.6536 46.967C79.0749 46.967 79.4536 47.0576 79.7896 47.239C80.1309 47.415 80.4002 47.671 80.5976 48.007C80.7949 48.3376 80.8936 48.735 80.8936 49.199C80.8936 49.247 80.8909 49.303 80.8856 49.367C80.8802 49.4256 80.8749 49.4816 80.8696 49.535H77.3736V48.807H80.2136L79.7336 49.023C79.7336 48.799 79.6882 48.6043 79.5976 48.439C79.5069 48.2736 79.3816 48.1456 79.2216 48.055C79.0616 47.959 78.8749 47.911 78.6616 47.911C78.4482 47.911 78.2589 47.959 78.0936 48.055C77.9336 48.1456 77.8082 48.2763 77.7176 48.447C77.6269 48.6123 77.5816 48.8096 77.5816 49.039V49.231C77.5816 49.4656 77.6322 49.6736 77.7336 49.855C77.8402 50.031 77.9869 50.167 78.1736 50.263C78.3656 50.3536 78.5896 50.399 78.8456 50.399C79.0749 50.399 79.2749 50.3643 79.4456 50.295C79.6216 50.2256 79.7816 50.1216 79.9256 49.983L80.5896 50.703C80.3922 50.927 80.1442 51.1003 79.8456 51.223C79.5469 51.3403 79.2029 51.399 78.8136 51.399ZM83.1724 51.399C82.8044 51.399 82.4498 51.3563 82.1084 51.271C81.7724 51.1803 81.5058 51.0683 81.3084 50.935L81.7244 50.039C81.9218 50.1616 82.1538 50.263 82.4204 50.343C82.6924 50.4176 82.9591 50.455 83.2204 50.455C83.5084 50.455 83.7111 50.4203 83.8284 50.351C83.9511 50.2816 84.0124 50.1856 84.0124 50.063C84.0124 49.9616 83.9644 49.887 83.8684 49.839C83.7778 49.7856 83.6551 49.7456 83.5004 49.719C83.3458 49.6923 83.1751 49.6656 82.9884 49.639C82.8071 49.6123 82.6231 49.5776 82.4364 49.535C82.2498 49.487 82.0791 49.4176 81.9244 49.327C81.7698 49.2363 81.6444 49.1136 81.5484 48.959C81.4578 48.8043 81.4124 48.6043 81.4124 48.359C81.4124 48.087 81.4898 47.847 81.6444 47.639C81.8044 47.431 82.0338 47.2683 82.3324 47.151C82.6311 47.0283 82.9884 46.967 83.4044 46.967C83.6978 46.967 83.9964 46.999 84.3004 47.063C84.6044 47.127 84.8578 47.2203 85.0604 47.343L84.6444 48.231C84.4364 48.1083 84.2258 48.0256 84.0124 47.983C83.8044 47.935 83.6018 47.911 83.4044 47.911C83.1271 47.911 82.9244 47.9483 82.7964 48.023C82.6684 48.0976 82.6044 48.1936 82.6044 48.311C82.6044 48.4176 82.6498 48.4976 82.7404 48.551C82.8364 48.6043 82.9618 48.647 83.1164 48.679C83.2711 48.711 83.4391 48.7403 83.6204 48.767C83.8071 48.7883 83.9938 48.823 84.1804 48.871C84.3671 48.919 84.5351 48.9883 84.6844 49.079C84.8391 49.1643 84.9644 49.2843 85.0604 49.439C85.1564 49.5883 85.2044 49.7856 85.2044 50.031C85.2044 50.2976 85.1244 50.535 84.9644 50.743C84.8044 50.9456 84.5724 51.1056 84.2684 51.223C83.9698 51.3403 83.6044 51.399 83.1724 51.399Z" fill="#333333"/>
<path fill-rule="evenodd" clip-rule="evenodd" d="M159.041 68.9816C159.041 66.1572 157.941 63.4484 155.982 61.4513C154.023 59.4541 151.367 58.332 148.597 58.332C122.918 58.332 67.1321 58.335 67.1321 58.335L62.5391 62.5854H46.6623L42.0661 58.335H27.4442C24.6742 58.335 22.0177 59.457 20.0591 61.4542C18.1004 63.4514 17 66.1602 17 68.9846C17 68.9877 17 68.9909 17 68.994C17 71.8185 18.1004 74.5272 20.0591 76.5244C22.0177 78.5215 24.6742 79.6436 27.4442 79.6436C34.3233 79.6436 42.0661 79.6436 42.0661 79.6436L46.6623 83.8939H62.5359L67.1321 79.6436L148.597 79.6407C151.367 79.6407 154.023 78.5186 155.982 76.5215C157.941 74.5243 159.041 71.8155 159.041 68.9911C159.041 68.9879 159.041 68.9847 159.041 68.9816Z" fill="#30DCFF"/>
<path fill-rule="evenodd" clip-rule="evenodd" d="M159.041 68.9851C159.041 66.1606 157.941 63.4519 155.982 61.4547C154.023 59.4575 151.367 58.3354 148.597 58.3354C122.918 58.3354 67.1321 58.3354 67.1321 58.3354L62.5391 62.5858H46.6623L42.0661 58.3354H27.4442C24.6742 58.3354 22.0177 59.4575 20.0591 61.4547C18.1004 63.4519 17 66.1606 17 68.9851C17 68.9881 17 68.9898 17 68.9898H19.5066C19.5066 64.3842 23.1682 60.6506 27.6849 60.6506C33.7752 60.6506 41.0403 60.6506 41.0403 60.6506L45.6365 64.9009H63.5804L68.1767 60.6506H148.357C152.873 60.6506 156.535 64.3841 156.535 68.9897L159.041 68.9898V68.9851Z" fill="#93EDFF"/>
<path fill-rule="evenodd" clip-rule="evenodd" d="M159.041 68.9868H156.534V68.9874C156.534 71.1982 155.673 73.3185 154.14 74.8816C152.607 76.4449 150.528 77.3231 148.36 77.3231C124.684 77.3231 66.0939 77.3231 66.0939 77.3231L61.4977 81.5735H47.7006L43.1044 77.3231H27.6815C23.1667 77.3231 19.5066 73.5911 19.5066 68.9874V68.9868H17V68.9915C17 71.816 18.1004 74.5247 20.0591 76.5219C22.0177 78.5191 24.6742 79.6411 27.4442 79.6411C34.3233 79.6411 42.0661 79.6411 42.0661 79.6411L46.6623 83.8915H62.5359L67.1321 79.6411H148.597C154.365 79.6411 159.041 74.8734 159.041 68.9918C159.041 68.9885 159.041 68.9868 159.041 68.9868Z" fill="#08A0BF"/>
<path d="M25.904 72.6699V67.0699H28.328C28.8293 67.0699 29.2613 67.1526 29.624 67.3179C29.9867 67.4779 30.2667 67.7099 30.464 68.0139C30.6613 68.3179 30.76 68.6806 30.76 69.1019C30.76 69.5179 30.6613 69.8779 30.464 70.1819C30.2667 70.4806 29.9867 70.7099 29.624 70.8699C29.2613 71.0299 28.8293 71.1099 28.328 71.1099H26.624L27.2 70.5419V72.6699H25.904ZM29.464 72.6699L28.064 70.6379H29.448L30.864 72.6699H29.464ZM27.2 70.6859L26.624 70.0779H28.256C28.656 70.0779 28.9547 69.9926 29.152 69.8219C29.3493 69.6459 29.448 69.4059 29.448 69.1019C29.448 68.7926 29.3493 68.5526 29.152 68.3819C28.9547 68.2113 28.656 68.1259 28.256 68.1259H26.624L27.2 67.5099V70.6859ZM34.2997 72.6699V71.8299L34.2197 71.6459V70.1419C34.2197 69.8753 34.1371 69.6673 33.9717 69.5179C33.8117 69.3686 33.5637 69.2939 33.2277 69.2939C32.9984 69.2939 32.7717 69.3313 32.5477 69.4059C32.3291 69.4753 32.1424 69.5713 31.9877 69.6939L31.5397 68.8219C31.7744 68.6566 32.0571 68.5286 32.3877 68.4379C32.7184 68.3473 33.0544 68.3019 33.3957 68.3019C34.0517 68.3019 34.5611 68.4566 34.9237 68.7659C35.2864 69.0753 35.4677 69.5579 35.4677 70.2139V72.6699H34.2997ZM32.9877 72.7339C32.6517 72.7339 32.3637 72.6779 32.1237 72.5659C31.8837 72.4486 31.6997 72.2913 31.5717 72.0939C31.4437 71.8966 31.3797 71.6753 31.3797 71.4299C31.3797 71.1739 31.4411 70.9499 31.5637 70.7579C31.6917 70.5659 31.8917 70.4166 32.1637 70.3099C32.4357 70.1979 32.7904 70.1419 33.2277 70.1419H34.3717V70.8699H33.3637C33.0704 70.8699 32.8677 70.9179 32.7557 71.0139C32.6491 71.1099 32.5957 71.2299 32.5957 71.3739C32.5957 71.5339 32.6571 71.6619 32.7797 71.7579C32.9077 71.8486 33.0811 71.8939 33.2997 71.8939C33.5077 71.8939 33.6944 71.8459 33.8597 71.7499C34.0251 71.6486 34.1451 71.5019 34.2197 71.3099L34.4117 71.8859C34.3211 72.1633 34.1557 72.3739 33.9157 72.5179C33.6757 72.6619 33.3664 72.7339 32.9877 72.7339ZM36.5972 72.6699V68.3659H37.8452V72.6699H36.5972ZM37.2212 67.7659C36.9919 67.7659 36.8052 67.6993 36.6612 67.5659C36.5172 67.4326 36.4452 67.2673 36.4452 67.0699C36.4452 66.8726 36.5172 66.7073 36.6612 66.5739C36.8052 66.4406 36.9919 66.3739 37.2212 66.3739C37.4506 66.3739 37.6372 66.4379 37.7812 66.5659C37.9252 66.6886 37.9972 66.8486 37.9972 67.0459C37.9972 67.2539 37.9252 67.4273 37.7812 67.5659C37.6426 67.6993 37.4559 67.7659 37.2212 67.7659ZM40.4515 72.7339C40.0835 72.7339 39.7288 72.6913 39.3875 72.6059C39.0515 72.5153 38.7848 72.4033 38.5875 72.2699L39.0035 71.3739C39.2008 71.4966 39.4328 71.5979 39.6995 71.6779C39.9715 71.7526 40.2382 71.7899 40.4995 71.7899C40.7875 71.7899 40.9902 71.7553 41.1075 71.6859C41.2302 71.6166 41.2915 71.5206 41.2915 71.3979C41.2915 71.2966 41.2435 71.2219 41.1475 71.1739C41.0568 71.1206 40.9342 71.0806 40.7795 71.0539C40.6248 71.0273 40.4542 71.0006 40.2675 70.9739C40.0862 70.9473 39.9022 70.9126 39.7155 70.8699C39.5288 70.8219 39.3582 70.7526 39.2035 70.6619C39.0488 70.5713 38.9235 70.4486 38.8275 70.2939C38.7368 70.1393 38.6915 69.9393 38.6915 69.6939C38.6915 69.4219 38.7688 69.1819 38.9235 68.9739C39.0835 68.7659 39.3128 68.6033 39.6115 68.4859C39.9102 68.3633 40.2675 68.3019 40.6835 68.3019C40.9768 68.3019 41.2755 68.3339 41.5795 68.3979C41.8835 68.4619 42.1368 68.5553 42.3395 68.6779L41.9235 69.5659C41.7155 69.4433 41.5048 69.3606 41.2915 69.3179C41.0835 69.2699 40.8808 69.2459 40.6835 69.2459C40.4062 69.2459 40.2035 69.2833 40.0755 69.3579C39.9475 69.4326 39.8835 69.5286 39.8835 69.6459C39.8835 69.7526 39.9288 69.8326 40.0195 69.8859C40.1155 69.9393 40.2408 69.9819 40.3955 70.0139C40.5502 70.0459 40.7182 70.0753 40.8995 70.1019C41.0862 70.1233 41.2728 70.1579 41.4595 70.2059C41.6462 70.2539 41.8142 70.3233 41.9635 70.4139C42.1182 70.4993 42.2435 70.6193 42.3395 70.7739C42.4355 70.9233 42.4835 71.1206 42.4835 71.3659C42.4835 71.6326 42.4035 71.8699 42.2435 72.0779C42.0835 72.2806 41.8515 72.4406 41.5475 72.5579C41.2488 72.6753 40.8835 72.7339 40.4515 72.7339ZM45.3895 72.7339C44.8988 72.7339 44.4668 72.6379 44.0935 72.4459C43.7255 72.2539 43.4402 71.9926 43.2375 71.6619C43.0348 71.3259 42.9335 70.9446 42.9335 70.5179C42.9335 70.0859 43.0322 69.7046 43.2295 69.3739C43.4322 69.0379 43.7068 68.7766 44.0535 68.5899C44.4002 68.3979 44.7922 68.3019 45.2295 68.3019C45.6508 68.3019 46.0295 68.3926 46.3655 68.5739C46.7068 68.7499 46.9762 69.0059 47.1735 69.3419C47.3708 69.6726 47.4695 70.0699 47.4695 70.5339C47.4695 70.5819 47.4668 70.6379 47.4615 70.7019C47.4562 70.7606 47.4508 70.8166 47.4455 70.8699H43.9495V70.1419H46.7895L46.3095 70.3579C46.3095 70.1339 46.2642 69.9393 46.1735 69.7739C46.0828 69.6086 45.9575 69.4806 45.7975 69.3899C45.6375 69.2939 45.4508 69.2459 45.2375 69.2459C45.0242 69.2459 44.8348 69.2939 44.6695 69.3899C44.5095 69.4806 44.3842 69.6113 44.2935 69.7819C44.2028 69.9473 44.1575 70.1446 44.1575 70.3739V70.5659C44.1575 70.8006 44.2082 71.0086 44.3095 71.1899C44.4162 71.3659 44.5628 71.5019 44.7495 71.5979C44.9415 71.6886 45.1655 71.7339 45.4215 71.7339C45.6508 71.7339 45.8508 71.6993 46.0215 71.6299C46.1975 71.5606 46.3575 71.4566 46.5015 71.3179L47.1655 72.0379C46.9682 72.2619 46.7202 72.4353 46.4215 72.5579C46.1228 72.6753 45.7788 72.7339 45.3895 72.7339ZM51.11 74.2859C50.886 74.2859 50.6647 74.2513 50.446 74.1819C50.2273 74.1126 50.0487 74.0166 49.91 73.8939L50.366 73.0059C50.462 73.0913 50.5713 73.1579 50.694 73.2059C50.822 73.2539 50.9473 73.2779 51.07 73.2779C51.246 73.2779 51.3847 73.2353 51.486 73.1499C51.5927 73.0699 51.6887 72.9339 51.774 72.7419L51.998 72.2139L52.094 72.0779L53.638 68.3659H54.838L52.894 72.9339C52.7553 73.2806 52.5953 73.5526 52.414 73.7499C52.238 73.9473 52.0407 74.0859 51.822 74.1659C51.6087 74.2459 51.3713 74.2859 51.11 74.2859ZM51.846 72.8379L49.926 68.3659H51.214L52.702 71.9659L51.846 72.8379ZM57.2781 72.7339C56.8194 72.7339 56.4114 72.6379 56.0541 72.4459C55.7021 72.2539 55.4221 71.9926 55.2141 71.6619C55.0114 71.3259 54.9101 70.9446 54.9101 70.5179C54.9101 70.0859 55.0114 69.7046 55.2141 69.3739C55.4221 69.0379 55.7021 68.7766 56.0541 68.5899C56.4114 68.3979 56.8194 68.3019 57.2781 68.3019C57.7314 68.3019 58.1367 68.3979 58.4941 68.5899C58.8514 68.7766 59.1314 69.0353 59.3341 69.3659C59.5367 69.6966 59.6381 70.0806 59.6381 70.5179C59.6381 70.9446 59.5367 71.3259 59.3341 71.6619C59.1314 71.9926 58.8514 72.2539 58.4941 72.4459C58.1367 72.6379 57.7314 72.7339 57.2781 72.7339ZM57.2781 71.7099C57.4861 71.7099 57.6727 71.6619 57.8381 71.5659C58.0034 71.4699 58.1341 71.3339 58.2301 71.1579C58.3261 70.9766 58.3741 70.7633 58.3741 70.5179C58.3741 70.2673 58.3261 70.0539 58.2301 69.8779C58.1341 69.7019 58.0034 69.5659 57.8381 69.4699C57.6727 69.3739 57.4861 69.3259 57.2781 69.3259C57.0701 69.3259 56.8834 69.3739 56.7181 69.4699C56.5527 69.5659 56.4194 69.7019 56.3181 69.8779C56.2221 70.0539 56.1741 70.2673 56.1741 70.5179C56.1741 70.7633 56.2221 70.9766 56.3181 71.1579C56.4194 71.3339 56.5527 71.4699 56.7181 71.5659C56.8834 71.6619 57.0701 71.7099 57.2781 71.7099ZM62.2882 72.7339C61.9309 72.7339 61.6109 72.6646 61.3282 72.5259C61.0509 72.3873 60.8349 72.1766 60.6802 71.8939C60.5256 71.6059 60.4482 71.2406 60.4482 70.7979V68.3659H61.6962V70.6139C61.6962 70.9713 61.7709 71.2353 61.9202 71.4059C62.0749 71.5713 62.2909 71.6539 62.5682 71.6539C62.7602 71.6539 62.9309 71.6139 63.0802 71.5339C63.2296 71.4486 63.3469 71.3206 63.4322 71.1499C63.5176 70.9739 63.5602 70.7553 63.5602 70.4939V68.3659H64.8082V72.6699H63.6242V71.4859L63.8402 71.8299C63.6962 72.1286 63.4829 72.3553 63.2002 72.5099C62.9229 72.6593 62.6189 72.7339 62.2882 72.7339ZM65.9644 72.6699V68.3659H67.1564V69.5819L66.9884 69.2299C67.1164 68.9259 67.3218 68.6966 67.6044 68.5419C67.8871 68.3819 68.2311 68.3019 68.6364 68.3019V69.4539C68.5831 69.4486 68.5351 69.4459 68.4924 69.4459C68.4498 69.4406 68.4044 69.4379 68.3564 69.4379C68.0151 69.4379 67.7378 69.5366 67.5244 69.7339C67.3164 69.9259 67.2124 70.2273 67.2124 70.6379V72.6699H65.9644ZM73.8114 72.7339C73.3207 72.7339 72.8887 72.6379 72.5154 72.4459C72.1474 72.2539 71.862 71.9926 71.6594 71.6619C71.4567 71.3259 71.3554 70.9446 71.3554 70.5179C71.3554 70.0859 71.454 69.7046 71.6514 69.3739C71.854 69.0379 72.1287 68.7766 72.4754 68.5899C72.822 68.3979 73.214 68.3019 73.6514 68.3019C74.0727 68.3019 74.4514 68.3926 74.7874 68.5739C75.1287 68.7499 75.398 69.0059 75.5954 69.3419C75.7927 69.6726 75.8914 70.0699 75.8914 70.5339C75.8914 70.5819 75.8887 70.6379 75.8834 70.7019C75.878 70.7606 75.8727 70.8166 75.8674 70.8699H72.3714V70.1419H75.2114L74.7314 70.3579C74.7314 70.1339 74.686 69.9393 74.5954 69.7739C74.5047 69.6086 74.3794 69.4806 74.2194 69.3899C74.0594 69.2939 73.8727 69.2459 73.6594 69.2459C73.446 69.2459 73.2567 69.2939 73.0914 69.3899C72.9314 69.4806 72.806 69.6113 72.7154 69.7819C72.6247 69.9473 72.5794 70.1446 72.5794 70.3739V70.5659C72.5794 70.8006 72.63 71.0086 72.7314 71.1899C72.838 71.3659 72.9847 71.5019 73.1714 71.5979C73.3634 71.6886 73.5874 71.7339 73.8434 71.7339C74.0727 71.7339 74.2727 71.6993 74.4434 71.6299C74.6194 71.5606 74.7794 71.4566 74.9234 71.3179L75.5874 72.0379C75.39 72.2619 75.142 72.4353 74.8434 72.5579C74.5447 72.6753 74.2007 72.7339 73.8114 72.7339ZM79.2451 72.6699V71.8299L79.1651 71.6459V70.1419C79.1651 69.8753 79.0824 69.6673 78.9171 69.5179C78.7571 69.3686 78.5091 69.2939 78.1731 69.2939C77.9437 69.2939 77.7171 69.3313 77.4931 69.4059C77.2744 69.4753 77.0877 69.5713 76.9331 69.6939L76.4851 68.8219C76.7197 68.6566 77.0024 68.5286 77.3331 68.4379C77.6637 68.3473 77.9997 68.3019 78.3411 68.3019C78.9971 68.3019 79.5064 68.4566 79.8691 68.7659C80.2317 69.0753 80.4131 69.5579 80.4131 70.2139V72.6699H79.2451ZM77.9331 72.7339C77.5971 72.7339 77.3091 72.6779 77.0691 72.5659C76.8291 72.4486 76.6451 72.2913 76.5171 72.0939C76.3891 71.8966 76.3251 71.6753 76.3251 71.4299C76.3251 71.1739 76.3864 70.9499 76.5091 70.7579C76.6371 70.5659 76.8371 70.4166 77.1091 70.3099C77.3811 70.1979 77.7357 70.1419 78.1731 70.1419H79.3171V70.8699H78.3091C78.0157 70.8699 77.8131 70.9179 77.7011 71.0139C77.5944 71.1099 77.5411 71.2299 77.5411 71.3739C77.5411 71.5339 77.6024 71.6619 77.7251 71.7579C77.8531 71.8486 78.0264 71.8939 78.2451 71.8939C78.4531 71.8939 78.6397 71.8459 78.8051 71.7499C78.9704 71.6486 79.0904 71.5019 79.1651 71.3099L79.3571 71.8859C79.2664 72.1633 79.1011 72.3739 78.8611 72.5179C78.6211 72.6619 78.3117 72.7339 77.9331 72.7339ZM81.5426 72.6699V68.3659H82.7346V69.5819L82.5666 69.2299C82.6946 68.9259 82.8999 68.6966 83.1826 68.5419C83.4652 68.3819 83.8092 68.3019 84.2146 68.3019V69.4539C84.1612 69.4486 84.1132 69.4459 84.0706 69.4459C84.0279 69.4406 83.9826 69.4379 83.9346 69.4379C83.5932 69.4379 83.3159 69.5366 83.1026 69.7339C82.8946 69.9259 82.7906 70.2273 82.7906 70.6379V72.6699H81.5426ZM86.4359 72.7339C86.0679 72.7339 85.7132 72.6913 85.3719 72.6059C85.0359 72.5153 84.7692 72.4033 84.5719 72.2699L84.9879 71.3739C85.1852 71.4966 85.4172 71.5979 85.6839 71.6779C85.9559 71.7526 86.2225 71.7899 86.4839 71.7899C86.7719 71.7899 86.9745 71.7553 87.0919 71.6859C87.2145 71.6166 87.2759 71.5206 87.2759 71.3979C87.2759 71.2966 87.2279 71.2219 87.1319 71.1739C87.0412 71.1206 86.9185 71.0806 86.7639 71.0539C86.6092 71.0273 86.4385 71.0006 86.2519 70.9739C86.0705 70.9473 85.8865 70.9126 85.6999 70.8699C85.5132 70.8219 85.3425 70.7526 85.1879 70.6619C85.0332 70.5713 84.9079 70.4486 84.8119 70.2939C84.7212 70.1393 84.6759 69.9393 84.6759 69.6939C84.6759 69.4219 84.7532 69.1819 84.9079 68.9739C85.0679 68.7659 85.2972 68.6033 85.5959 68.4859C85.8945 68.3633 86.2519 68.3019 86.6679 68.3019C86.9612 68.3019 87.2599 68.3339 87.5639 68.3979C87.8679 68.4619 88.1212 68.5553 88.3239 68.6779L87.9079 69.5659C87.6999 69.4433 87.4892 69.3606 87.2759 69.3179C87.0679 69.2699 86.8652 69.2459 86.6679 69.2459C86.3905 69.2459 86.1879 69.2833 86.0599 69.3579C85.9319 69.4326 85.8679 69.5286 85.8679 69.6459C85.8679 69.7526 85.9132 69.8326 86.0039 69.8859C86.0999 69.9393 86.2252 69.9819 86.3799 70.0139C86.5345 70.0459 86.7025 70.0753 86.8839 70.1019C87.0705 70.1233 87.2572 70.1579 87.4439 70.2059C87.6305 70.2539 87.7985 70.3233 87.9479 70.4139C88.1025 70.4993 88.2279 70.6193 88.3239 70.7739C88.4199 70.9233 88.4679 71.1206 88.4679 71.3659C88.4679 71.6326 88.3879 71.8699 88.2279 72.0779C88.0679 72.2806 87.8359 72.4406 87.5319 72.5579C87.2332 72.6753 86.8679 72.7339 86.4359 72.7339Z" fill="#333333"/>
<path fill-rule="evenodd" clip-rule="evenodd" d="M159.041 89.6467C159.041 86.8222 157.941 84.1135 155.982 82.1163C154.023 80.1191 151.367 78.9971 148.597 78.9971C122.918 78.9971 67.1321 79 67.1321 79L62.5391 83.2504H46.6623L42.0661 79H27.4442C24.6742 79 22.0177 80.1221 20.0591 82.1193C18.1004 84.1164 17 86.8252 17 89.6497C17 89.6527 17 89.6559 17 89.6591C17 92.4835 18.1004 95.1922 20.0591 97.1894C22.0177 99.1866 24.6742 100.309 27.4442 100.309C34.3233 100.309 42.0661 100.309 42.0661 100.309L46.6623 104.559H62.5359L67.1321 100.309L148.597 100.306C151.367 100.306 154.023 99.1837 155.982 97.1865C157.941 95.1893 159.041 92.4806 159.041 89.6561C159.041 89.6529 159.041 89.6498 159.041 89.6467Z" fill="#30DCFF"/>
<path fill-rule="evenodd" clip-rule="evenodd" d="M159.041 89.6501C159.041 86.8256 157.941 84.1169 155.982 82.1197C154.023 80.1225 151.367 79.0005 148.597 79.0005C122.918 79.0005 67.1321 79.0005 67.1321 79.0005L62.5391 83.2508H46.6623L42.0661 79.0005H27.4442C24.6742 79.0005 22.0177 80.1225 20.0591 82.1197C18.1004 84.1169 17 86.8256 17 89.6501C17 89.6532 17 89.6548 17 89.6548H19.5066C19.5066 85.0493 23.1682 81.3156 27.6849 81.3156C33.7752 81.3156 41.0403 81.3156 41.0403 81.3156L45.6365 85.566H63.5804L68.1767 81.3156H148.357C152.873 81.3156 156.535 85.0492 156.535 89.6547L159.041 89.6548V89.6501Z" fill="#93EDFF"/>
<path fill-rule="evenodd" clip-rule="evenodd" d="M159.041 89.6519H156.534V89.6525C156.534 91.8632 155.673 93.9835 154.14 95.5467C152.607 97.11 150.528 97.9882 148.36 97.9882C124.684 97.9882 66.0939 97.9882 66.0939 97.9882L61.4977 102.239H47.7006L43.1044 97.9882H27.6815C23.1667 97.9882 19.5066 94.2562 19.5066 89.6525V89.6519H17V89.6566C17 92.481 18.1004 95.1898 20.0591 97.187C22.0177 99.1841 24.6742 100.306 27.4442 100.306C34.3233 100.306 42.0661 100.306 42.0661 100.306L46.6623 104.557H62.5359L67.1321 100.306H148.597C154.365 100.306 159.041 95.5384 159.041 89.6569C159.041 89.6535 159.041 89.6519 159.041 89.6519Z" fill="#08A0BF"/>
<path d="M29.744 87.735H31.04V93.335H29.744V87.735ZM27.2 93.335H25.904V87.735H27.2V93.335ZM29.84 91.039H27.104V89.943H29.84V91.039ZM34.9169 93.335V92.495L34.8369 92.311V90.807C34.8369 90.5403 34.7543 90.3323 34.5889 90.183C34.4289 90.0336 34.1809 89.959 33.8449 89.959C33.6156 89.959 33.3889 89.9963 33.1649 90.071C32.9463 90.1403 32.7596 90.2363 32.6049 90.359L32.1569 89.487C32.3916 89.3216 32.6743 89.1936 33.0049 89.103C33.3356 89.0123 33.6716 88.967 34.0129 88.967C34.6689 88.967 35.1783 89.1216 35.5409 89.431C35.9036 89.7403 36.0849 90.223 36.0849 90.879V93.335H34.9169ZM33.6049 93.399C33.2689 93.399 32.9809 93.343 32.7409 93.231C32.5009 93.1136 32.3169 92.9563 32.1889 92.759C32.0609 92.5616 31.9969 92.3403 31.9969 92.095C31.9969 91.839 32.0583 91.615 32.1809 91.423C32.3089 91.231 32.5089 91.0816 32.7809 90.975C33.0529 90.863 33.4076 90.807 33.8449 90.807H34.9889V91.535H33.9809C33.6876 91.535 33.4849 91.583 33.3729 91.679C33.2663 91.775 33.2129 91.895 33.2129 92.039C33.2129 92.199 33.2743 92.327 33.3969 92.423C33.5249 92.5136 33.6983 92.559 33.9169 92.559C34.1249 92.559 34.3116 92.511 34.4769 92.415C34.6423 92.3136 34.7623 92.167 34.8369 91.975L35.0289 92.551C34.9383 92.8283 34.7729 93.039 34.5329 93.183C34.2929 93.327 33.9836 93.399 33.6049 93.399ZM39.8304 88.967C40.1718 88.967 40.4758 89.0363 40.7424 89.175C41.0144 89.3083 41.2278 89.5163 41.3824 89.799C41.5371 90.0763 41.6144 90.4336 41.6144 90.871V93.335H40.3664V91.063C40.3664 90.7163 40.2891 90.4603 40.1344 90.295C39.9851 90.1296 39.7718 90.047 39.4944 90.047C39.2971 90.047 39.1184 90.0896 38.9584 90.175C38.8038 90.255 38.6811 90.3803 38.5904 90.551C38.5051 90.7216 38.4624 90.9403 38.4624 91.207V93.335H37.2144V89.031H38.4064V90.223L38.1824 89.863C38.3371 89.575 38.5584 89.3536 38.8464 89.199C39.1344 89.0443 39.4624 88.967 39.8304 88.967ZM44.6249 93.399C44.2196 93.399 43.8543 93.3083 43.5289 93.127C43.2036 92.9403 42.9449 92.6816 42.7529 92.351C42.5663 92.0203 42.4729 91.631 42.4729 91.183C42.4729 90.7296 42.5663 90.3376 42.7529 90.007C42.9449 89.6763 43.2036 89.4203 43.5289 89.239C43.8543 89.0576 44.2196 88.967 44.6249 88.967C44.9876 88.967 45.3049 89.047 45.5769 89.207C45.8489 89.367 46.0596 89.6096 46.2089 89.935C46.3583 90.2603 46.4329 90.6763 46.4329 91.183C46.4329 91.6843 46.3609 92.1003 46.2169 92.431C46.0729 92.7563 45.8649 92.999 45.5929 93.159C45.3263 93.319 45.0036 93.399 44.6249 93.399ZM44.8409 92.375C45.0436 92.375 45.2276 92.327 45.3929 92.231C45.5583 92.135 45.6889 91.999 45.7849 91.823C45.8863 91.6416 45.9369 91.4283 45.9369 91.183C45.9369 90.9323 45.8863 90.719 45.7849 90.543C45.6889 90.367 45.5583 90.231 45.3929 90.135C45.2276 90.039 45.0436 89.991 44.8409 89.991C44.6329 89.991 44.4463 90.039 44.2809 90.135C44.1156 90.231 43.9823 90.367 43.8809 90.543C43.7849 90.719 43.7369 90.9323 43.7369 91.183C43.7369 91.4283 43.7849 91.6416 43.8809 91.823C43.9823 91.999 44.1156 92.135 44.2809 92.231C44.4463 92.327 44.6329 92.375 44.8409 92.375ZM45.9689 93.335V92.455L45.9929 91.175L45.9129 89.903V87.399H47.1609V93.335H45.9689ZM49.764 93.399C49.396 93.399 49.0413 93.3563 48.7 93.271C48.364 93.1803 48.0973 93.0683 47.9 92.935L48.316 92.039C48.5133 92.1616 48.7453 92.263 49.012 92.343C49.284 92.4176 49.5507 92.455 49.812 92.455C50.1 92.455 50.3027 92.4203 50.42 92.351C50.5427 92.2816 50.604 92.1856 50.604 92.063C50.604 91.9616 50.556 91.887 50.46 91.839C50.3693 91.7856 50.2467 91.7456 50.092 91.719C49.9373 91.6923 49.7667 91.6656 49.58 91.639C49.3987 91.6123 49.2147 91.5776 49.028 91.535C48.8413 91.487 48.6707 91.4176 48.516 91.327C48.3613 91.2363 48.236 91.1136 48.14 90.959C48.0493 90.8043 48.004 90.6043 48.004 90.359C48.004 90.087 48.0813 89.847 48.236 89.639C48.396 89.431 48.6253 89.2683 48.924 89.151C49.2227 89.0283 49.58 88.967 49.996 88.967C50.2893 88.967 50.588 88.999 50.892 89.063C51.196 89.127 51.4493 89.2203 51.652 89.343L51.236 90.231C51.028 90.1083 50.8173 90.0256 50.604 89.983C50.396 89.935 50.1933 89.911 49.996 89.911C49.7187 89.911 49.516 89.9483 49.388 90.023C49.26 90.0976 49.196 90.1936 49.196 90.311C49.196 90.4176 49.2413 90.4976 49.332 90.551C49.428 90.6043 49.5533 90.647 49.708 90.679C49.8627 90.711 50.0307 90.7403 50.212 90.767C50.3987 90.7883 50.5853 90.823 50.772 90.871C50.9587 90.919 51.1267 90.9883 51.276 91.079C51.4307 91.1643 51.556 91.2843 51.652 91.439C51.748 91.5883 51.796 91.7856 51.796 92.031C51.796 92.2976 51.716 92.535 51.556 92.743C51.396 92.9456 51.164 93.1056 50.86 93.223C50.5613 93.3403 50.196 93.399 49.764 93.399ZM56.8796 93.399C56.4209 93.399 56.0129 93.303 55.6556 93.111C55.3036 92.919 55.0236 92.6576 54.8156 92.327C54.6129 91.991 54.5116 91.6096 54.5116 91.183C54.5116 90.751 54.6129 90.3696 54.8156 90.039C55.0236 89.703 55.3036 89.4416 55.6556 89.255C56.0129 89.063 56.4209 88.967 56.8796 88.967C57.3329 88.967 57.7383 89.063 58.0956 89.255C58.4529 89.4416 58.7329 89.7003 58.9356 90.031C59.1383 90.3616 59.2396 90.7456 59.2396 91.183C59.2396 91.6096 59.1383 91.991 58.9356 92.327C58.7329 92.6576 58.4529 92.919 58.0956 93.111C57.7383 93.303 57.3329 93.399 56.8796 93.399ZM56.8796 92.375C57.0876 92.375 57.2743 92.327 57.4396 92.231C57.6049 92.135 57.7356 91.999 57.8316 91.823C57.9276 91.6416 57.9756 91.4283 57.9756 91.183C57.9756 90.9323 57.9276 90.719 57.8316 90.543C57.7356 90.367 57.6049 90.231 57.4396 90.135C57.2743 90.039 57.0876 89.991 56.8796 89.991C56.6716 89.991 56.4849 90.039 56.3196 90.135C56.1543 90.231 56.0209 90.367 55.9196 90.543C55.8236 90.719 55.7756 90.9323 55.7756 91.183C55.7756 91.4283 55.8236 91.6416 55.9196 91.823C56.0209 91.999 56.1543 92.135 56.3196 92.231C56.4849 92.327 56.6716 92.375 56.8796 92.375ZM62.6898 88.967C63.0311 88.967 63.3351 89.0363 63.6018 89.175C63.8738 89.3083 64.0871 89.5163 64.2418 89.799C64.3965 90.0763 64.4738 90.4336 64.4738 90.871V93.335H63.2258V91.063C63.2258 90.7163 63.1485 90.4603 62.9938 90.295C62.8445 90.1296 62.6311 90.047 62.3538 90.047C62.1565 90.047 61.9778 90.0896 61.8178 90.175C61.6631 90.255 61.5405 90.3803 61.4498 90.551C61.3645 90.7216 61.3218 90.9403 61.3218 91.207V93.335H60.0738V89.031H61.2658V90.223L61.0418 89.863C61.1965 89.575 61.4178 89.3536 61.7058 89.199C61.9938 89.0443 62.3218 88.967 62.6898 88.967ZM69.9507 93.399C69.4867 93.399 69.0733 93.3056 68.7107 93.119C68.348 92.927 68.0627 92.663 67.8547 92.327C67.652 91.991 67.5507 91.6096 67.5507 91.183C67.5507 90.751 67.652 90.3696 67.8547 90.039C68.0627 89.703 68.348 89.4416 68.7107 89.255C69.0733 89.063 69.4867 88.967 69.9507 88.967C70.404 88.967 70.7987 89.063 71.1347 89.255C71.4707 89.4416 71.7187 89.711 71.8787 90.063L70.9107 90.583C70.7987 90.3803 70.6573 90.231 70.4867 90.135C70.3213 90.039 70.14 89.991 69.9427 89.991C69.7293 89.991 69.5373 90.039 69.3667 90.135C69.196 90.231 69.06 90.367 68.9587 90.543C68.8627 90.719 68.8147 90.9323 68.8147 91.183C68.8147 91.4336 68.8627 91.647 68.9587 91.823C69.06 91.999 69.196 92.135 69.3667 92.231C69.5373 92.327 69.7293 92.375 69.9427 92.375C70.14 92.375 70.3213 92.3296 70.4867 92.239C70.6573 92.143 70.7987 91.991 70.9107 91.783L71.8787 92.311C71.7187 92.6576 71.4707 92.927 71.1347 93.119C70.7987 93.3056 70.404 93.399 69.9507 93.399ZM75.1898 88.967C75.5311 88.967 75.8351 89.0363 76.1018 89.175C76.3738 89.3083 76.5871 89.5163 76.7418 89.799C76.8965 90.0763 76.9738 90.4336 76.9738 90.871V93.335H75.7258V91.063C75.7258 90.7163 75.6485 90.4603 75.4938 90.295C75.3445 90.1296 75.1311 90.047 74.8538 90.047C74.6565 90.047 74.4778 90.0896 74.3178 90.175C74.1631 90.255 74.0405 90.3803 73.9498 90.551C73.8645 90.7216 73.8218 90.9403 73.8218 91.207V93.335H72.5738V87.399H73.8218V90.223L73.5418 89.863C73.6965 89.575 73.9178 89.3536 74.2058 89.199C74.4938 89.0443 74.8218 88.967 75.1898 88.967ZM80.2723 93.399C79.7816 93.399 79.3496 93.303 78.9763 93.111C78.6083 92.919 78.323 92.6576 78.1203 92.327C77.9176 91.991 77.8163 91.6096 77.8163 91.183C77.8163 90.751 77.915 90.3696 78.1123 90.039C78.315 89.703 78.5896 89.4416 78.9363 89.255C79.283 89.063 79.675 88.967 80.1123 88.967C80.5336 88.967 80.9123 89.0576 81.2483 89.239C81.5896 89.415 81.859 89.671 82.0563 90.007C82.2536 90.3376 82.3523 90.735 82.3523 91.199C82.3523 91.247 82.3496 91.303 82.3443 91.367C82.339 91.4256 82.3336 91.4816 82.3283 91.535H78.8323V90.807H81.6723L81.1923 91.023C81.1923 90.799 81.147 90.6043 81.0563 90.439C80.9656 90.2736 80.8403 90.1456 80.6803 90.055C80.5203 89.959 80.3336 89.911 80.1203 89.911C79.907 89.911 79.7176 89.959 79.5523 90.055C79.3923 90.1456 79.267 90.2763 79.1763 90.447C79.0856 90.6123 79.0403 90.8096 79.0403 91.039V91.231C79.0403 91.4656 79.091 91.6736 79.1923 91.855C79.299 92.031 79.4456 92.167 79.6323 92.263C79.8243 92.3536 80.0483 92.399 80.3043 92.399C80.5336 92.399 80.7336 92.3643 80.9043 92.295C81.0803 92.2256 81.2403 92.1216 81.3843 91.983L82.0483 92.703C81.851 92.927 81.603 93.1003 81.3043 93.223C81.0056 93.3403 80.6616 93.399 80.2723 93.399ZM85.3192 93.399C84.8285 93.399 84.3965 93.303 84.0232 93.111C83.6552 92.919 83.3698 92.6576 83.1672 92.327C82.9645 91.991 82.8632 91.6096 82.8632 91.183C82.8632 90.751 82.9618 90.3696 83.1592 90.039C83.3618 89.703 83.6365 89.4416 83.9832 89.255C84.3298 89.063 84.7218 88.967 85.1592 88.967C85.5805 88.967 85.9592 89.0576 86.2952 89.239C86.6365 89.415 86.9058 89.671 87.1032 90.007C87.3005 90.3376 87.3992 90.735 87.3992 91.199C87.3992 91.247 87.3965 91.303 87.3912 91.367C87.3858 91.4256 87.3805 91.4816 87.3752 91.535H83.8792V90.807H86.7192L86.2392 91.023C86.2392 90.799 86.1938 90.6043 86.1032 90.439C86.0125 90.2736 85.8872 90.1456 85.7272 90.055C85.5672 89.959 85.3805 89.911 85.1672 89.911C84.9538 89.911 84.7645 89.959 84.5992 90.055C84.4392 90.1456 84.3138 90.2763 84.2232 90.447C84.1325 90.6123 84.0872 90.8096 84.0872 91.039V91.231C84.0872 91.4656 84.1378 91.6736 84.2392 91.855C84.3458 92.031 84.4925 92.167 84.6792 92.263C84.8712 92.3536 85.0952 92.399 85.3512 92.399C85.5805 92.399 85.7805 92.3643 85.9512 92.295C86.1272 92.2256 86.2872 92.1216 86.4312 91.983L87.0952 92.703C86.8978 92.927 86.6498 93.1003 86.3512 93.223C86.0525 93.3403 85.7085 93.399 85.3192 93.399ZM89.2621 92.455L89.2941 90.935L91.3021 89.031H92.7901L90.8621 90.991L90.2141 91.519L89.2621 92.455ZM88.2301 93.335V87.399H89.4781V93.335H88.2301ZM91.4381 93.335L89.9821 91.527L90.7661 90.559L92.9501 93.335H91.4381ZM94.8187 93.399C94.4507 93.399 94.096 93.3563 93.7547 93.271C93.4187 93.1803 93.152 93.0683 92.9547 92.935L93.3707 92.039C93.568 92.1616 93.8 92.263 94.0667 92.343C94.3387 92.4176 94.6053 92.455 94.8667 92.455C95.1547 92.455 95.3573 92.4203 95.4747 92.351C95.5973 92.2816 95.6587 92.1856 95.6587 92.063C95.6587 91.9616 95.6107 91.887 95.5147 91.839C95.424 91.7856 95.3013 91.7456 95.1467 91.719C94.992 91.6923 94.8213 91.6656 94.6347 91.639C94.4533 91.6123 94.2693 91.5776 94.0827 91.535C93.896 91.487 93.7253 91.4176 93.5707 91.327C93.416 91.2363 93.2907 91.1136 93.1947 90.959C93.104 90.8043 93.0587 90.6043 93.0587 90.359C93.0587 90.087 93.136 89.847 93.2907 89.639C93.4507 89.431 93.68 89.2683 93.9787 89.151C94.2773 89.0283 94.6347 88.967 95.0507 88.967C95.344 88.967 95.6427 88.999 95.9467 89.063C96.2507 89.127 96.504 89.2203 96.7067 89.343L96.2907 90.231C96.0827 90.1083 95.872 90.0256 95.6587 89.983C95.4507 89.935 95.248 89.911 95.0507 89.911C94.7733 89.911 94.5707 89.9483 94.4427 90.023C94.3147 90.0976 94.2507 90.1936 94.2507 90.311C94.2507 90.4176 94.296 90.4976 94.3867 90.551C94.4827 90.6043 94.608 90.647 94.7627 90.679C94.9173 90.711 95.0853 90.7403 95.2667 90.767C95.4533 90.7883 95.64 90.823 95.8267 90.871C96.0133 90.919 96.1813 90.9883 96.3307 91.079C96.4853 91.1643 96.6107 91.2843 96.7067 91.439C96.8027 91.5883 96.8507 91.7856 96.8507 92.031C96.8507 92.2976 96.7707 92.535 96.6107 92.743C96.4507 92.9456 96.2187 93.1056 95.9147 93.223C95.616 93.3403 95.2507 93.399 94.8187 93.399Z" fill="#333333"/>
</svg>
