<svg width="180" height="184" viewBox="0 0 180 184" fill="none" xmlns="http://www.w3.org/2000/svg">
<g id="TomarSaltar">
<rect id="bg" width="180" height="180" rx="10"/>
<g id="Cuando">
<g id="&#195;&#129;tomo_IDE_Cabezote3">
<g id="&#195;&#129;tomo_IDE_Cabezote1">
<g id="1">
<path id="Vector" fill-rule="evenodd" clip-rule="evenodd" d="M169.22 30.3182C169.22 24.5922 164.531 19.9505 158.747 19.9505C140.439 19.9505 111.658 19.9505 98.5207 19.9505C95.8392 19.9504 93.2599 18.932 91.3143 17.1053C86.9544 13.0187 75.9488 6 51.8916 6C17.9749 6 10 19.9505 10 19.9505C10 19.9505 10.0002 26.7144 10.0003 32.9667C10.0004 38.6928 14.6893 43.3346 20.4732 43.3346C32.8812 43.3346 51.8913 43.3346 51.8913 43.3346L56.5001 47.4728H72.4206L77.0263 43.3346C77.0263 43.3346 132.997 43.3346 158.747 43.3346C161.525 43.3346 164.189 42.2422 166.153 40.2977C168.117 38.3532 169.22 35.7158 169.22 32.966C169.22 32.0867 169.22 31.1974 169.22 30.3182Z" fill="#FC79FF"/>
<path id="Vector_2" fill-rule="evenodd" clip-rule="evenodd" d="M169.22 31.4395H166.707V31.8785C166.707 34.2592 165.751 36.5423 164.051 38.2257C162.351 39.9092 160.044 40.8548 157.64 40.8548H75.9852L71.3794 44.9929H57.5413L52.9325 40.8548C52.9325 40.8548 33.4971 40.8548 21.5805 40.8548C19.1758 40.8548 16.8696 39.9092 15.1692 38.2257C13.4688 36.5423 12.5135 34.2592 12.5135 31.8785V31.4395H10V32.9827C10 35.7325 11.1034 38.3698 13.0675 40.3142C15.0315 42.2586 17.6953 43.3509 20.4729 43.3509C32.8811 43.3509 51.8913 43.3509 51.8913 43.3509L56.5001 47.489H72.4206L77.0263 43.3509H158.747C164.531 43.3509 169.22 38.7091 169.22 32.9829C169.22 32.0449 169.22 31.4395 169.22 31.4395Z" fill="#CD5ACF"/>
<path id="Vector_3" fill-rule="evenodd" clip-rule="evenodd" d="M10 31.4232H12.5135V21.1985C12.5135 21.1985 19.3642 8.49603 51.8819 8.49603C73.9643 8.49603 85.0076 14.9654 89.6736 18.8874C91.9226 20.7793 94.7717 21.8281 97.7227 21.8506C111.426 21.9617 140.331 22.2455 157.64 22.3774C162.659 22.4156 166.707 26.4541 166.707 31.4224V31.4232H169.22V30.3187C169.22 24.5925 164.531 19.9505 158.747 19.9505C140.442 19.9505 111.671 19.9505 98.5276 19.9505C95.8436 19.9504 93.2621 18.9301 91.3159 17.1003C86.9616 13.013 75.967 6 51.8916 6C17.9356 6 10.0003 19.9505 10.0003 19.9505L10 31.4232Z" fill="#FDACFF"/>
</g>
</g>
</g>
<path id="Cuando: presionar bot&#195;&#179;n animar." d="M23.8191 33.951C23.2484 33.951 22.7311 33.8284 22.2671 33.583C21.8084 33.3324 21.4458 32.9884 21.1791 32.551C20.9178 32.1084 20.7871 31.6097 20.7871 31.055C20.7871 30.5004 20.9178 30.0044 21.1791 29.567C21.4458 29.1244 21.8084 28.7804 22.2671 28.535C22.7311 28.2844 23.2511 28.159 23.8271 28.159C24.3124 28.159 24.7498 28.2444 25.1391 28.415C25.5338 28.5857 25.8644 28.831 26.1311 29.151L25.2991 29.919C24.9204 29.4817 24.4511 29.263 23.8911 29.263C23.5444 29.263 23.2351 29.3404 22.9631 29.495C22.6911 29.6444 22.4778 29.855 22.3231 30.127C22.1738 30.399 22.0991 30.7084 22.0991 31.055C22.0991 31.4017 22.1738 31.711 22.3231 31.983C22.4778 32.255 22.6911 32.4684 22.9631 32.623C23.2351 32.7724 23.5444 32.847 23.8911 32.847C24.4511 32.847 24.9204 32.6257 25.2991 32.183L26.1311 32.951C25.8644 33.2764 25.5338 33.5244 25.1391 33.695C24.7444 33.8657 24.3044 33.951 23.8191 33.951ZM31.1449 29.551V33.855H29.9609V33.343C29.7956 33.5297 29.5982 33.6737 29.3689 33.775C29.1396 33.871 28.8916 33.919 28.6249 33.919C28.0596 33.919 27.6116 33.7564 27.2809 33.431C26.9502 33.1057 26.7849 32.623 26.7849 31.983V29.551H28.0329V31.799C28.0329 32.4924 28.3236 32.839 28.9049 32.839C29.2036 32.839 29.4436 32.743 29.6249 32.551C29.8062 32.3537 29.8969 32.063 29.8969 31.679V29.551H31.1449ZM34.0371 29.487C34.7038 29.487 35.2158 29.647 35.5731 29.967C35.9304 30.2817 36.1091 30.759 36.1091 31.399V33.855H34.9411V33.319C34.7064 33.719 34.2691 33.919 33.6291 33.919C33.2984 33.919 33.0104 33.863 32.7651 33.751C32.5251 33.639 32.3411 33.4844 32.2131 33.287C32.0851 33.0897 32.0211 32.8657 32.0211 32.615C32.0211 32.215 32.1704 31.9004 32.4691 31.671C32.7731 31.4417 33.2398 31.327 33.8691 31.327H34.8611C34.8611 31.055 34.7784 30.847 34.6131 30.703C34.4478 30.5537 34.1998 30.479 33.8691 30.479C33.6398 30.479 33.4131 30.5164 33.1891 30.591C32.9704 30.6604 32.7838 30.7564 32.6291 30.879L32.1811 30.007C32.4158 29.8417 32.6958 29.7137 33.0211 29.623C33.3518 29.5324 33.6904 29.487 34.0371 29.487ZM33.9411 33.079C34.1544 33.079 34.3438 33.031 34.5091 32.935C34.6744 32.8337 34.7918 32.687 34.8611 32.495V32.055H34.0051C33.4931 32.055 33.2371 32.223 33.2371 32.559C33.2371 32.719 33.2984 32.847 33.4211 32.943C33.5491 33.0337 33.7224 33.079 33.9411 33.079ZM39.8546 29.487C40.3879 29.487 40.8173 29.647 41.1426 29.967C41.4733 30.287 41.6386 30.7617 41.6386 31.391V33.855H40.3906V31.583C40.3906 31.2417 40.3159 30.9884 40.1666 30.823C40.0173 30.6524 39.8013 30.567 39.5186 30.567C39.2039 30.567 38.9533 30.6657 38.7666 30.863C38.5799 31.055 38.4866 31.343 38.4866 31.727V33.855H37.2386V29.551H38.4306V30.055C38.5959 29.8737 38.8013 29.735 39.0466 29.639C39.2919 29.5377 39.5613 29.487 39.8546 29.487ZM47.2007 27.919V33.855H46.0087V33.359C45.6994 33.7324 45.2514 33.919 44.6647 33.919C44.2594 33.919 43.8914 33.8284 43.5607 33.647C43.2354 33.4657 42.9794 33.207 42.7927 32.871C42.6061 32.535 42.5127 32.1457 42.5127 31.703C42.5127 31.2604 42.6061 30.871 42.7927 30.535C42.9794 30.199 43.2354 29.9404 43.5607 29.759C43.8914 29.5777 44.2594 29.487 44.6647 29.487C45.2141 29.487 45.6434 29.6604 45.9527 30.007V27.919H47.2007ZM44.8807 32.895C45.1954 32.895 45.4567 32.7884 45.6647 32.575C45.8727 32.3564 45.9767 32.0657 45.9767 31.703C45.9767 31.3404 45.8727 31.0524 45.6647 30.839C45.4567 30.6204 45.1954 30.511 44.8807 30.511C44.5607 30.511 44.2967 30.6204 44.0887 30.839C43.8807 31.0524 43.7767 31.3404 43.7767 31.703C43.7767 32.0657 43.8807 32.3564 44.0887 32.575C44.2967 32.7884 44.5607 32.895 44.8807 32.895ZM50.4038 33.919C49.9505 33.919 49.5425 33.8257 49.1798 33.639C48.8225 33.447 48.5425 33.183 48.3398 32.847C48.1371 32.511 48.0358 32.1297 48.0358 31.703C48.0358 31.2764 48.1371 30.895 48.3398 30.559C48.5425 30.223 48.8225 29.9617 49.1798 29.775C49.5425 29.583 49.9505 29.487 50.4038 29.487C50.8571 29.487 51.2625 29.583 51.6198 29.775C51.9771 29.9617 52.2571 30.223 52.4598 30.559C52.6625 30.895 52.7638 31.2764 52.7638 31.703C52.7638 32.1297 52.6625 32.511 52.4598 32.847C52.2571 33.183 51.9771 33.447 51.6198 33.639C51.2625 33.8257 50.8571 33.919 50.4038 33.919ZM50.4038 32.895C50.7238 32.895 50.9851 32.7884 51.1878 32.575C51.3958 32.3564 51.4998 32.0657 51.4998 31.703C51.4998 31.3404 51.3958 31.0524 51.1878 30.839C50.9851 30.6204 50.7238 30.511 50.4038 30.511C50.0838 30.511 49.8198 30.6204 49.6118 30.839C49.4038 31.0524 49.2998 31.3404 49.2998 31.703C49.2998 32.0657 49.4038 32.3564 49.6118 32.575C49.8198 32.7884 50.0838 32.895 50.4038 32.895ZM54.07 31.047C53.8513 31.047 53.6673 30.9724 53.518 30.823C53.3686 30.6737 53.294 30.487 53.294 30.263C53.294 30.0337 53.3686 29.8497 53.518 29.711C53.6673 29.567 53.8513 29.495 54.07 29.495C54.2886 29.495 54.4726 29.567 54.622 29.711C54.7713 29.8497 54.846 30.0337 54.846 30.263C54.846 30.487 54.7713 30.6737 54.622 30.823C54.4726 30.9724 54.2886 31.047 54.07 31.047ZM54.07 33.919C53.8513 33.919 53.6673 33.8444 53.518 33.695C53.3686 33.5457 53.294 33.359 53.294 33.135C53.294 32.9057 53.3686 32.7217 53.518 32.583C53.6673 32.439 53.8513 32.367 54.07 32.367C54.2886 32.367 54.4726 32.439 54.622 32.583C54.7713 32.7217 54.846 32.9057 54.846 33.135C54.846 33.359 54.7713 33.5457 54.622 33.695C54.4726 33.8444 54.2886 33.919 54.07 33.919ZM60.5013 29.487C60.9013 29.487 61.264 29.5804 61.5893 29.767C61.92 29.9484 62.1787 30.207 62.3653 30.543C62.552 30.8737 62.6453 31.2604 62.6453 31.703C62.6453 32.1457 62.552 32.535 62.3653 32.871C62.1787 33.2017 61.92 33.4604 61.5893 33.647C61.264 33.8284 60.9013 33.919 60.5013 33.919C59.952 33.919 59.52 33.7457 59.2053 33.399V35.407H57.9573V29.551H59.1493V30.047C59.4587 29.6737 59.9093 29.487 60.5013 29.487ZM60.2853 32.895C60.6053 32.895 60.8667 32.7884 61.0693 32.575C61.2773 32.3564 61.3813 32.0657 61.3813 31.703C61.3813 31.3404 61.2773 31.0524 61.0693 30.839C60.8667 30.6204 60.6053 30.511 60.2853 30.511C59.9653 30.511 59.7013 30.6204 59.4933 30.839C59.2907 31.0524 59.1893 31.3404 59.1893 31.703C59.1893 32.0657 59.2907 32.3564 59.4933 32.575C59.7013 32.7884 59.9653 32.895 60.2853 32.895ZM64.6728 30.119C64.8221 29.911 65.0221 29.7537 65.2728 29.647C65.5288 29.5404 65.8221 29.487 66.1528 29.487V30.639C66.0141 30.6284 65.9208 30.623 65.8728 30.623C65.5155 30.623 65.2355 30.7244 65.0328 30.927C64.8301 31.1244 64.7288 31.423 64.7288 31.823V33.855H63.4808V29.551H64.6728V30.119ZM71.0718 31.719C71.0718 31.735 71.0638 31.847 71.0478 32.055H67.7918C67.8505 32.3217 67.9891 32.5324 68.2078 32.687C68.4265 32.8417 68.6985 32.919 69.0238 32.919C69.2478 32.919 69.4451 32.887 69.6158 32.823C69.7918 32.7537 69.9545 32.647 70.1038 32.503L70.7678 33.223C70.3625 33.687 69.7705 33.919 68.9918 33.919C68.5065 33.919 68.0771 33.8257 67.7038 33.639C67.3305 33.447 67.0425 33.183 66.8398 32.847C66.6371 32.511 66.5358 32.1297 66.5358 31.703C66.5358 31.2817 66.6345 30.903 66.8318 30.567C67.0345 30.2257 67.3091 29.9617 67.6558 29.775C68.0078 29.583 68.3998 29.487 68.8318 29.487C69.2531 29.487 69.6345 29.5777 69.9758 29.759C70.3171 29.9404 70.5838 30.2017 70.7758 30.543C70.9731 30.879 71.0718 31.271 71.0718 31.719ZM68.8398 30.431C68.5571 30.431 68.3198 30.511 68.1278 30.671C67.9358 30.831 67.8185 31.0497 67.7758 31.327H69.8958C69.8531 31.055 69.7358 30.839 69.5438 30.679C69.3518 30.5137 69.1171 30.431 68.8398 30.431ZM73.3507 33.919C72.9933 33.919 72.644 33.8764 72.3027 33.791C71.9613 33.7004 71.6893 33.5884 71.4867 33.455L71.9027 32.559C72.0947 32.6817 72.3267 32.783 72.5987 32.863C72.8707 32.9377 73.1373 32.975 73.3987 32.975C73.9267 32.975 74.1907 32.8444 74.1907 32.583C74.1907 32.4604 74.1187 32.3724 73.9747 32.319C73.8307 32.2657 73.6093 32.2204 73.3107 32.183C72.9587 32.1297 72.668 32.0684 72.4387 31.999C72.2093 31.9297 72.0093 31.807 71.8387 31.631C71.6733 31.455 71.5907 31.2044 71.5907 30.879C71.5907 30.607 71.668 30.367 71.8227 30.159C71.9827 29.9457 72.212 29.7804 72.5107 29.663C72.8147 29.5457 73.172 29.487 73.5827 29.487C73.8867 29.487 74.188 29.5217 74.4867 29.591C74.7907 29.655 75.0413 29.7457 75.2387 29.863L74.8227 30.751C74.444 30.5377 74.0307 30.431 73.5827 30.431C73.316 30.431 73.116 30.4684 72.9827 30.543C72.8493 30.6177 72.7827 30.7137 72.7827 30.831C72.7827 30.9644 72.8547 31.0577 72.9987 31.111C73.1427 31.1644 73.372 31.215 73.6867 31.263C74.0387 31.3217 74.3267 31.3857 74.5507 31.455C74.7747 31.519 74.9693 31.639 75.1347 31.815C75.3 31.991 75.3827 32.2364 75.3827 32.551C75.3827 32.8177 75.3027 33.055 75.1427 33.263C74.9827 33.471 74.748 33.6337 74.4387 33.751C74.1347 33.863 73.772 33.919 73.3507 33.919ZM76.1527 29.551H77.4007V33.855H76.1527V29.551ZM76.7767 28.951C76.5473 28.951 76.3607 28.8844 76.2167 28.751C76.0727 28.6177 76.0007 28.4524 76.0007 28.255C76.0007 28.0577 76.0727 27.8924 76.2167 27.759C76.3607 27.6257 76.5473 27.559 76.7767 27.559C77.006 27.559 77.1927 27.623 77.3367 27.751C77.4807 27.879 77.5527 28.039 77.5527 28.231C77.5527 28.439 77.4807 28.6124 77.3367 28.751C77.1927 28.8844 77.006 28.951 76.7767 28.951ZM80.6069 33.919C80.1536 33.919 79.7456 33.8257 79.3829 33.639C79.0256 33.447 78.7456 33.183 78.5429 32.847C78.3402 32.511 78.2389 32.1297 78.2389 31.703C78.2389 31.2764 78.3402 30.895 78.5429 30.559C78.7456 30.223 79.0256 29.9617 79.3829 29.775C79.7456 29.583 80.1536 29.487 80.6069 29.487C81.0602 29.487 81.4656 29.583 81.8229 29.775C82.1802 29.9617 82.4602 30.223 82.6629 30.559C82.8656 30.895 82.9669 31.2764 82.9669 31.703C82.9669 32.1297 82.8656 32.511 82.6629 32.847C82.4602 33.183 82.1802 33.447 81.8229 33.639C81.4656 33.8257 81.0602 33.919 80.6069 33.919ZM80.6069 32.895C80.9269 32.895 81.1882 32.7884 81.3909 32.575C81.5989 32.3564 81.7029 32.0657 81.7029 31.703C81.7029 31.3404 81.5989 31.0524 81.3909 30.839C81.1882 30.6204 80.9269 30.511 80.6069 30.511C80.2869 30.511 80.0229 30.6204 79.8149 30.839C79.6069 31.0524 79.5029 31.3404 79.5029 31.703C79.5029 32.0657 79.6069 32.3564 79.8149 32.575C80.0229 32.7884 80.2869 32.895 80.6069 32.895ZM86.4171 29.487C86.9504 29.487 87.3798 29.647 87.7051 29.967C88.0358 30.287 88.2011 30.7617 88.2011 31.391V33.855H86.9531V31.583C86.9531 31.2417 86.8784 30.9884 86.7291 30.823C86.5798 30.6524 86.3638 30.567 86.0811 30.567C85.7664 30.567 85.5158 30.6657 85.3291 30.863C85.1424 31.055 85.0491 31.343 85.0491 31.727V33.855H83.8011V29.551H84.9931V30.055C85.1584 29.8737 85.3638 29.735 85.6091 29.639C85.8544 29.5377 86.1238 29.487 86.4171 29.487ZM91.0683 29.487C91.735 29.487 92.247 29.647 92.6043 29.967C92.9617 30.2817 93.1403 30.759 93.1403 31.399V33.855H91.9723V33.319C91.7377 33.719 91.3003 33.919 90.6603 33.919C90.3297 33.919 90.0417 33.863 89.7963 33.751C89.5563 33.639 89.3723 33.4844 89.2443 33.287C89.1163 33.0897 89.0523 32.8657 89.0523 32.615C89.0523 32.215 89.2017 31.9004 89.5003 31.671C89.8043 31.4417 90.271 31.327 90.9003 31.327H91.8923C91.8923 31.055 91.8097 30.847 91.6443 30.703C91.479 30.5537 91.231 30.479 90.9003 30.479C90.671 30.479 90.4443 30.5164 90.2203 30.591C90.0017 30.6604 89.815 30.7564 89.6603 30.879L89.2123 30.007C89.447 29.8417 89.727 29.7137 90.0523 29.623C90.383 29.5324 90.7217 29.487 91.0683 29.487ZM90.9723 33.079C91.1857 33.079 91.375 33.031 91.5403 32.935C91.7057 32.8337 91.823 32.687 91.8923 32.495V32.055H91.0363C90.5243 32.055 90.2683 32.223 90.2683 32.559C90.2683 32.719 90.3297 32.847 90.4523 32.943C90.5803 33.0337 90.7537 33.079 90.9723 33.079ZM95.4618 30.119C95.6112 29.911 95.8112 29.7537 96.0618 29.647C96.3178 29.5404 96.6112 29.487 96.9418 29.487V30.639C96.8032 30.6284 96.7098 30.623 96.6618 30.623C96.3045 30.623 96.0245 30.7244 95.8218 30.927C95.6192 31.1244 95.5178 31.423 95.5178 31.823V33.855H94.2698V29.551H95.4618V30.119ZM102.525 29.487C102.925 29.487 103.287 29.5804 103.613 29.767C103.943 29.9484 104.202 30.207 104.389 30.543C104.575 30.8737 104.669 31.2604 104.669 31.703C104.669 32.1457 104.575 32.535 104.389 32.871C104.202 33.2017 103.943 33.4604 103.613 33.647C103.287 33.8284 102.925 33.919 102.525 33.919C101.933 33.919 101.482 33.7324 101.173 33.359V33.855H99.9808V27.919H101.229V30.007C101.543 29.6604 101.975 29.487 102.525 29.487ZM102.309 32.895C102.629 32.895 102.89 32.7884 103.093 32.575C103.301 32.3564 103.405 32.0657 103.405 31.703C103.405 31.3404 103.301 31.0524 103.093 30.839C102.89 30.6204 102.629 30.511 102.309 30.511C101.989 30.511 101.725 30.6204 101.517 30.839C101.314 31.0524 101.213 31.3404 101.213 31.703C101.213 32.0657 101.314 32.3564 101.517 32.575C101.725 32.7884 101.989 32.895 102.309 32.895ZM107.552 33.919C107.099 33.919 106.691 33.8257 106.328 33.639C105.971 33.447 105.691 33.183 105.488 32.847C105.286 32.511 105.184 32.1297 105.184 31.703C105.184 31.2764 105.286 30.895 105.488 30.559C105.691 30.223 105.971 29.9617 106.328 29.775C106.691 29.583 107.099 29.487 107.552 29.487C108.006 29.487 108.411 29.583 108.768 29.775C109.126 29.9617 109.406 30.223 109.608 30.559C109.811 30.895 109.912 31.2764 109.912 31.703C109.912 32.1297 109.811 32.511 109.608 32.847C109.406 33.183 109.126 33.447 108.768 33.639C108.411 33.8257 108.006 33.919 107.552 33.919ZM107.552 32.895C107.872 32.895 108.134 32.7884 108.336 32.575C108.544 32.3564 108.648 32.0657 108.648 31.703C108.648 31.3404 108.544 31.0524 108.336 30.839C108.134 30.6204 107.872 30.511 107.552 30.511C107.232 30.511 106.968 30.6204 106.76 30.839C106.552 31.0524 106.448 31.3404 106.448 31.703C106.448 32.0657 106.552 32.3564 106.76 32.575C106.968 32.7884 107.232 32.895 107.552 32.895ZM113.522 33.647C113.4 33.7377 113.248 33.807 113.066 33.855C112.89 33.8977 112.704 33.919 112.506 33.919C111.994 33.919 111.597 33.7884 111.314 33.527C111.037 33.2657 110.898 32.8817 110.898 32.375V30.607H110.234V29.647H110.898V28.599H112.146V29.647H113.218V30.607H112.146V32.359C112.146 32.5404 112.192 32.6817 112.282 32.783C112.378 32.879 112.512 32.927 112.682 32.927C112.88 32.927 113.048 32.8737 113.186 32.767L113.522 33.647ZM116.138 33.919C115.685 33.919 115.277 33.8257 114.914 33.639C114.557 33.447 114.277 33.183 114.074 32.847C113.871 32.511 113.77 32.1297 113.77 31.703C113.77 31.2764 113.871 30.895 114.074 30.559C114.277 30.223 114.557 29.9617 114.914 29.775C115.277 29.583 115.685 29.487 116.138 29.487C116.591 29.487 116.997 29.583 117.354 29.775C117.711 29.9617 117.991 30.223 118.194 30.559C118.397 30.895 118.498 31.2764 118.498 31.703C118.498 32.1297 118.397 32.511 118.194 32.847C117.991 33.183 117.711 33.447 117.354 33.639C116.997 33.8257 116.591 33.919 116.138 33.919ZM116.138 32.895C116.458 32.895 116.719 32.7884 116.922 32.575C117.13 32.3564 117.234 32.0657 117.234 31.703C117.234 31.3404 117.13 31.0524 116.922 30.839C116.719 30.6204 116.458 30.511 116.138 30.511C115.818 30.511 115.554 30.6204 115.346 30.839C115.138 31.0524 115.034 31.3404 115.034 31.703C115.034 32.0657 115.138 32.3564 115.346 32.575C115.554 32.7884 115.818 32.895 116.138 32.895ZM116.474 27.847H117.818L116.37 28.999H115.394L116.474 27.847ZM121.948 29.487C122.482 29.487 122.911 29.647 123.236 29.967C123.567 30.287 123.732 30.7617 123.732 31.391V33.855H122.484V31.583C122.484 31.2417 122.41 30.9884 122.26 30.823C122.111 30.6524 121.895 30.567 121.612 30.567C121.298 30.567 121.047 30.6657 120.86 30.863C120.674 31.055 120.58 31.343 120.58 31.727V33.855H119.332V29.551H120.524V30.055C120.69 29.8737 120.895 29.735 121.14 29.639C121.386 29.5377 121.655 29.487 121.948 29.487ZM128.865 29.487C129.532 29.487 130.044 29.647 130.401 29.967C130.759 30.2817 130.937 30.759 130.937 31.399V33.855H129.769V33.319C129.535 33.719 129.097 33.919 128.457 33.919C128.127 33.919 127.839 33.863 127.593 33.751C127.353 33.639 127.169 33.4844 127.041 33.287C126.913 33.0897 126.849 32.8657 126.849 32.615C126.849 32.215 126.999 31.9004 127.297 31.671C127.601 31.4417 128.068 31.327 128.697 31.327H129.689C129.689 31.055 129.607 30.847 129.441 30.703C129.276 30.5537 129.028 30.479 128.697 30.479C128.468 30.479 128.241 30.5164 128.017 30.591C127.799 30.6604 127.612 30.7564 127.457 30.879L127.009 30.007C127.244 29.8417 127.524 29.7137 127.849 29.623C128.18 29.5324 128.519 29.487 128.865 29.487ZM128.769 33.079C128.983 33.079 129.172 33.031 129.337 32.935C129.503 32.8337 129.62 32.687 129.689 32.495V32.055H128.833C128.321 32.055 128.065 32.223 128.065 32.559C128.065 32.719 128.127 32.847 128.249 32.943C128.377 33.0337 128.551 33.079 128.769 33.079ZM134.683 29.487C135.216 29.487 135.645 29.647 135.971 29.967C136.301 30.287 136.467 30.7617 136.467 31.391V33.855H135.219V31.583C135.219 31.2417 135.144 30.9884 134.995 30.823C134.845 30.6524 134.629 30.567 134.347 30.567C134.032 30.567 133.781 30.6657 133.595 30.863C133.408 31.055 133.315 31.343 133.315 31.727V33.855H132.067V29.551H133.259V30.055C133.424 29.8737 133.629 29.735 133.875 29.639C134.12 29.5377 134.389 29.487 134.683 29.487ZM137.598 29.551H138.846V33.855H137.598V29.551ZM138.222 28.951C137.993 28.951 137.806 28.8844 137.662 28.751C137.518 28.6177 137.446 28.4524 137.446 28.255C137.446 28.0577 137.518 27.8924 137.662 27.759C137.806 27.6257 137.993 27.559 138.222 27.559C138.451 27.559 138.638 27.623 138.782 27.751C138.926 27.879 138.998 28.039 138.998 28.231C138.998 28.439 138.926 28.6124 138.782 28.751C138.638 28.8844 138.451 28.951 138.222 28.951ZM145.516 29.487C146.055 29.487 146.482 29.647 146.796 29.967C147.116 30.2817 147.276 30.7564 147.276 31.391V33.855H146.028V31.583C146.028 31.2417 145.956 30.9884 145.812 30.823C145.674 30.6524 145.474 30.567 145.212 30.567C144.919 30.567 144.687 30.663 144.516 30.855C144.346 31.0417 144.26 31.3217 144.26 31.695V33.855H143.012V31.583C143.012 30.9057 142.74 30.567 142.196 30.567C141.908 30.567 141.679 30.663 141.508 30.855C141.338 31.0417 141.252 31.3217 141.252 31.695V33.855H140.004V29.551H141.196V30.047C141.356 29.8657 141.551 29.727 141.78 29.631C142.015 29.535 142.271 29.487 142.548 29.487C142.852 29.487 143.127 29.5484 143.372 29.671C143.618 29.7884 143.815 29.9617 143.964 30.191C144.14 29.967 144.362 29.7937 144.628 29.671C144.9 29.5484 145.196 29.487 145.516 29.487ZM150.131 29.487C150.798 29.487 151.31 29.647 151.667 29.967C152.024 30.2817 152.203 30.759 152.203 31.399V33.855H151.035V33.319C150.8 33.719 150.363 33.919 149.723 33.919C149.392 33.919 149.104 33.863 148.859 33.751C148.619 33.639 148.435 33.4844 148.307 33.287C148.179 33.0897 148.115 32.8657 148.115 32.615C148.115 32.215 148.264 31.9004 148.563 31.671C148.867 31.4417 149.334 31.327 149.963 31.327H150.955C150.955 31.055 150.872 30.847 150.707 30.703C150.542 30.5537 150.294 30.479 149.963 30.479C149.734 30.479 149.507 30.5164 149.283 30.591C149.064 30.6604 148.878 30.7564 148.723 30.879L148.275 30.007C148.51 29.8417 148.79 29.7137 149.115 29.623C149.446 29.5324 149.784 29.487 150.131 29.487ZM150.035 33.079C150.248 33.079 150.438 33.031 150.603 32.935C150.768 32.8337 150.886 32.687 150.955 32.495V32.055H150.099C149.587 32.055 149.331 32.223 149.331 32.559C149.331 32.719 149.392 32.847 149.515 32.943C149.643 33.0337 149.816 33.079 150.035 33.079ZM154.524 30.119C154.674 29.911 154.874 29.7537 155.124 29.647C155.38 29.5404 155.674 29.487 156.004 29.487V30.639C155.866 30.6284 155.772 30.623 155.724 30.623C155.367 30.623 155.087 30.7244 154.884 30.927C154.682 31.1244 154.58 31.423 154.58 31.823V33.855H153.332V29.551H154.524V30.119ZM157.172 33.919C156.953 33.919 156.769 33.8444 156.62 33.695C156.47 33.5457 156.396 33.359 156.396 33.135C156.396 32.9057 156.47 32.7217 156.62 32.583C156.769 32.439 156.953 32.367 157.172 32.367C157.39 32.367 157.574 32.439 157.724 32.583C157.873 32.7217 157.948 32.9057 157.948 33.135C157.948 33.359 157.873 33.5457 157.724 33.695C157.574 33.8444 157.39 33.919 157.172 33.919Z" fill="#333333"/>
</g>
<g id="Dibujar">
<g id="&#195;&#129;tomo_IDE_Bloque3">
<g id="&#195;&#129;tomo_IDE_Bloque1">
<g id="2">
<path id="Vector_4" fill-rule="evenodd" clip-rule="evenodd" d="M168.801 53.6466C168.801 50.8221 167.701 48.1133 165.742 46.1162C163.783 44.119 161.127 42.9969 158.357 42.9969C132.678 42.9969 76.8921 42.9999 76.8921 42.9999L72.2991 47.2503H56.4223L51.8261 42.9999H37.2042C34.4342 42.9999 31.7777 44.122 29.8191 46.1191C27.8604 48.1163 26.76 50.8251 26.76 53.6495C26.76 53.6526 26.76 53.6558 26.76 53.659C26.76 56.4834 27.8604 59.1921 29.8191 61.1893C31.7777 63.1865 34.4342 64.3085 37.2042 64.3085C44.0833 64.3085 51.8261 64.3085 51.8261 64.3085L56.4223 68.5589H72.2959L76.8921 64.3085L158.357 64.3056C161.127 64.3056 163.783 63.1835 165.742 61.1864C167.701 59.1892 168.801 56.4804 168.801 53.656C168.801 53.6528 168.801 53.6496 168.801 53.6466Z" fill="#30DCFF"/>
<path id="Vector_5" fill-rule="evenodd" clip-rule="evenodd" d="M168.801 53.65C168.801 50.8255 167.701 48.1168 165.742 46.1196C163.783 44.1224 161.127 43.0004 158.357 43.0004C132.678 43.0004 76.8921 43.0004 76.8921 43.0004L72.2991 47.2508H56.4223L51.8261 43.0004H37.2042C34.4342 43.0004 31.7777 44.1224 29.8191 46.1196C27.8604 48.1168 26.76 50.8255 26.76 53.65C26.76 53.6531 26.76 53.6547 26.76 53.6547H29.2666C29.2666 49.0492 32.9282 45.3155 37.4449 45.3155C43.5352 45.3155 50.8003 45.3155 50.8003 45.3155L55.3965 49.5659H73.3405L77.9367 45.3155H158.117C162.633 45.3155 166.295 49.0491 166.295 53.6546L168.801 53.6547V53.65Z" fill="#93EDFF"/>
<path id="Vector_6" fill-rule="evenodd" clip-rule="evenodd" d="M168.801 53.652H166.294V53.6526C166.294 55.8633 165.433 57.9836 163.9 59.5468C162.367 61.1101 160.288 61.9883 158.12 61.9883C134.444 61.9883 75.8539 61.9883 75.8539 61.9883L71.2577 66.2387H57.4606L52.8644 61.9883H37.4416C32.9267 61.9883 29.2666 58.2563 29.2666 53.6526V53.652H26.76V53.6567C26.76 56.4812 27.8604 59.1899 29.8191 61.1871C31.7777 63.1843 34.4342 64.3063 37.2042 64.3063C44.0833 64.3063 51.8261 64.3063 51.8261 64.3063L56.4223 68.5567H72.2959L76.8921 64.3063H158.357C164.125 64.3063 168.801 59.5385 168.801 53.657C168.801 53.6536 168.801 53.652 168.801 53.652Z" fill="#08A0BF"/>
</g>
</g>
</g>
<path id="Doblar las piernas" d="M35.664 51.7352H38.208C38.816 51.7352 39.352 51.8525 39.816 52.0872C40.2853 52.3165 40.648 52.6419 40.904 53.0632C41.1653 53.4845 41.296 53.9752 41.296 54.5352C41.296 55.0952 41.1653 55.5859 40.904 56.0072C40.648 56.4285 40.2853 56.7565 39.816 56.9912C39.352 57.2205 38.816 57.3352 38.208 57.3352H35.664V51.7352ZM38.144 56.2712C38.704 56.2712 39.1493 56.1165 39.48 55.8072C39.816 55.4925 39.984 55.0685 39.984 54.5352C39.984 54.0019 39.816 53.5805 39.48 53.2712C39.1493 52.9565 38.704 52.7992 38.144 52.7992H36.96V56.2712H38.144ZM44.2334 57.3992C43.78 57.3992 43.372 57.3059 43.0094 57.1192C42.652 56.9272 42.372 56.6632 42.1694 56.3272C41.9667 55.9912 41.8654 55.6099 41.8654 55.1832C41.8654 54.7565 41.9667 54.3752 42.1694 54.0392C42.372 53.7032 42.652 53.4419 43.0094 53.2552C43.372 53.0632 43.78 52.9672 44.2334 52.9672C44.6867 52.9672 45.092 53.0632 45.4494 53.2552C45.8067 53.4419 46.0867 53.7032 46.2894 54.0392C46.492 54.3752 46.5934 54.7565 46.5934 55.1832C46.5934 55.6099 46.492 55.9912 46.2894 56.3272C46.0867 56.6632 45.8067 56.9272 45.4494 57.1192C45.092 57.3059 44.6867 57.3992 44.2334 57.3992ZM44.2334 56.3752C44.5534 56.3752 44.8147 56.2685 45.0174 56.0552C45.2254 55.8365 45.3294 55.5459 45.3294 55.1832C45.3294 54.8205 45.2254 54.5325 45.0174 54.3192C44.8147 54.1005 44.5534 53.9912 44.2334 53.9912C43.9134 53.9912 43.6494 54.1005 43.4414 54.3192C43.2334 54.5325 43.1294 54.8205 43.1294 55.1832C43.1294 55.5459 43.2334 55.8365 43.4414 56.0552C43.6494 56.2685 43.9134 56.3752 44.2334 56.3752ZM49.9716 52.9672C50.3716 52.9672 50.7342 53.0605 51.0596 53.2472C51.3902 53.4285 51.6489 53.6872 51.8356 54.0232C52.0222 54.3539 52.1156 54.7405 52.1156 55.1832C52.1156 55.6259 52.0222 56.0152 51.8356 56.3512C51.6489 56.6819 51.3902 56.9405 51.0596 57.1272C50.7342 57.3085 50.3716 57.3992 49.9716 57.3992C49.3796 57.3992 48.9289 57.2125 48.6196 56.8392V57.3352H47.4276V51.3992H48.6756V53.4872C48.9902 53.1405 49.4222 52.9672 49.9716 52.9672ZM49.7556 56.3752C50.0756 56.3752 50.3369 56.2685 50.5396 56.0552C50.7476 55.8365 50.8516 55.5459 50.8516 55.1832C50.8516 54.8205 50.7476 54.5325 50.5396 54.3192C50.3369 54.1005 50.0756 53.9912 49.7556 53.9912C49.4356 53.9912 49.1716 54.1005 48.9636 54.3192C48.7609 54.5325 48.6596 54.8205 48.6596 55.1832C48.6596 55.5459 48.7609 55.8365 48.9636 56.0552C49.1716 56.2685 49.4356 56.3752 49.7556 56.3752ZM52.951 51.3992H54.199V57.3352H52.951V51.3992ZM57.0933 52.9672C57.7599 52.9672 58.2719 53.1272 58.6293 53.4472C58.9866 53.7619 59.1653 54.2392 59.1653 54.8792V57.3352H57.9973V56.7992C57.7626 57.1992 57.3253 57.3992 56.6853 57.3992C56.3546 57.3992 56.0666 57.3432 55.8213 57.2312C55.5813 57.1192 55.3973 56.9645 55.2693 56.7672C55.1413 56.5699 55.0773 56.3459 55.0773 56.0952C55.0773 55.6952 55.2266 55.3805 55.5253 55.1512C55.8293 54.9219 56.2959 54.8072 56.9253 54.8072H57.9173C57.9173 54.5352 57.8346 54.3272 57.6693 54.1832C57.5039 54.0339 57.2559 53.9592 56.9253 53.9592C56.6959 53.9592 56.4693 53.9965 56.2453 54.0712C56.0266 54.1405 55.8399 54.2365 55.6853 54.3592L55.2373 53.4872C55.4719 53.3219 55.7519 53.1939 56.0773 53.1032C56.4079 53.0125 56.7466 52.9672 57.0933 52.9672ZM56.9973 56.5592C57.2106 56.5592 57.3999 56.5112 57.5653 56.4152C57.7306 56.3139 57.8479 56.1672 57.9173 55.9752V55.5352H57.0613C56.5493 55.5352 56.2933 55.7032 56.2933 56.0392C56.2933 56.1992 56.3546 56.3272 56.4773 56.4232C56.6053 56.5139 56.7786 56.5592 56.9973 56.5592ZM61.4868 53.5992C61.6361 53.3912 61.8361 53.2339 62.0868 53.1272C62.3428 53.0205 62.6361 52.9672 62.9668 52.9672V54.1192C62.8281 54.1085 62.7348 54.1032 62.6868 54.1032C62.3294 54.1032 62.0494 54.2045 61.8468 54.4072C61.6441 54.6045 61.5428 54.9032 61.5428 55.3032V57.3352H60.2948V53.0312H61.4868V53.5992ZM66.0057 51.3992H67.2537V57.3352H66.0057V51.3992ZM70.1479 52.9672C70.8146 52.9672 71.3266 53.1272 71.6839 53.4472C72.0413 53.7619 72.2199 54.2392 72.2199 54.8792V57.3352H71.0519V56.7992C70.8173 57.1992 70.3799 57.3992 69.7399 57.3992C69.4093 57.3992 69.1213 57.3432 68.8759 57.2312C68.6359 57.1192 68.4519 56.9645 68.3239 56.7672C68.1959 56.5699 68.1319 56.3459 68.1319 56.0952C68.1319 55.6952 68.2813 55.3805 68.5799 55.1512C68.8839 54.9219 69.3506 54.8072 69.9799 54.8072H70.9719C70.9719 54.5352 70.8893 54.3272 70.7239 54.1832C70.5586 54.0339 70.3106 53.9592 69.9799 53.9592C69.7506 53.9592 69.5239 53.9965 69.2999 54.0712C69.0813 54.1405 68.8946 54.2365 68.7399 54.3592L68.2919 53.4872C68.5266 53.3219 68.8066 53.1939 69.1319 53.1032C69.4626 53.0125 69.8013 52.9672 70.1479 52.9672ZM70.0519 56.5592C70.2653 56.5592 70.4546 56.5112 70.6199 56.4152C70.7853 56.3139 70.9026 56.1672 70.9719 55.9752V55.5352H70.1159C69.6039 55.5352 69.3479 55.7032 69.3479 56.0392C69.3479 56.1992 69.4093 56.3272 69.5319 56.4232C69.6599 56.5139 69.8333 56.5592 70.0519 56.5592ZM74.7974 57.3992C74.4401 57.3992 74.0908 57.3565 73.7494 57.2712C73.4081 57.1805 73.1361 57.0685 72.9334 56.9352L73.3494 56.0392C73.5414 56.1619 73.7734 56.2632 74.0454 56.3432C74.3174 56.4179 74.5841 56.4552 74.8454 56.4552C75.3734 56.4552 75.6374 56.3245 75.6374 56.0632C75.6374 55.9405 75.5654 55.8525 75.4214 55.7992C75.2774 55.7459 75.0561 55.7005 74.7574 55.6632C74.4054 55.6099 74.1148 55.5485 73.8854 55.4792C73.6561 55.4099 73.4561 55.2872 73.2854 55.1112C73.1201 54.9352 73.0374 54.6845 73.0374 54.3592C73.0374 54.0872 73.1148 53.8472 73.2694 53.6392C73.4294 53.4259 73.6588 53.2605 73.9574 53.1432C74.2614 53.0259 74.6188 52.9672 75.0294 52.9672C75.3334 52.9672 75.6348 53.0019 75.9334 53.0712C76.2374 53.1352 76.4881 53.2259 76.6854 53.3432L76.2694 54.2312C75.8908 54.0179 75.4774 53.9112 75.0294 53.9112C74.7628 53.9112 74.5628 53.9485 74.4294 54.0232C74.2961 54.0979 74.2294 54.1939 74.2294 54.3112C74.2294 54.4445 74.3014 54.5379 74.4454 54.5912C74.5894 54.6445 74.8188 54.6952 75.1334 54.7432C75.4854 54.8019 75.7734 54.8659 75.9974 54.9352C76.2214 54.9992 76.4161 55.1192 76.5814 55.2952C76.7468 55.4712 76.8294 55.7165 76.8294 56.0312C76.8294 56.2979 76.7494 56.5352 76.5894 56.7432C76.4294 56.9512 76.1948 57.1139 75.8854 57.2312C75.5814 57.3432 75.2188 57.3992 74.7974 57.3992ZM82.4091 52.9672C82.8091 52.9672 83.1717 53.0605 83.4971 53.2472C83.8277 53.4285 84.0864 53.6872 84.2731 54.0232C84.4597 54.3539 84.5531 54.7405 84.5531 55.1832C84.5531 55.6259 84.4597 56.0152 84.2731 56.3512C84.0864 56.6819 83.8277 56.9405 83.4971 57.1272C83.1717 57.3085 82.8091 57.3992 82.4091 57.3992C81.8597 57.3992 81.4277 57.2259 81.1131 56.8792V58.8872H79.8651V53.0312H81.0571V53.5272C81.3664 53.1539 81.8171 52.9672 82.4091 52.9672ZM82.1931 56.3752C82.5131 56.3752 82.7744 56.2685 82.9771 56.0552C83.1851 55.8365 83.2891 55.5459 83.2891 55.1832C83.2891 54.8205 83.1851 54.5325 82.9771 54.3192C82.7744 54.1005 82.5131 53.9912 82.1931 53.9912C81.8731 53.9912 81.6091 54.1005 81.4011 54.3192C81.1984 54.5325 81.0971 54.8205 81.0971 55.1832C81.0971 55.5459 81.1984 55.8365 81.4011 56.0552C81.6091 56.2685 81.8731 56.3752 82.1931 56.3752ZM85.3885 53.0312H86.6365V57.3352H85.3885V53.0312ZM86.0125 52.4312C85.7832 52.4312 85.5965 52.3645 85.4525 52.2312C85.3085 52.0979 85.2365 51.9325 85.2365 51.7352C85.2365 51.5379 85.3085 51.3725 85.4525 51.2392C85.5965 51.1059 85.7832 51.0392 86.0125 51.0392C86.2418 51.0392 86.4285 51.1032 86.5725 51.2312C86.7165 51.3592 86.7885 51.5192 86.7885 51.7112C86.7885 51.9192 86.7165 52.0925 86.5725 52.2312C86.4285 52.3645 86.2418 52.4312 86.0125 52.4312ZM92.0108 55.1992C92.0108 55.2152 92.0028 55.3272 91.9868 55.5352H88.7308C88.7894 55.8019 88.9281 56.0125 89.1468 56.1672C89.3654 56.3219 89.6374 56.3992 89.9628 56.3992C90.1868 56.3992 90.3841 56.3672 90.5548 56.3032C90.7308 56.2339 90.8934 56.1272 91.0428 55.9832L91.7068 56.7032C91.3014 57.1672 90.7094 57.3992 89.9308 57.3992C89.4454 57.3992 89.0161 57.3059 88.6428 57.1192C88.2694 56.9272 87.9814 56.6632 87.7788 56.3272C87.5761 55.9912 87.4748 55.6099 87.4748 55.1832C87.4748 54.7619 87.5734 54.3832 87.7708 54.0472C87.9734 53.7059 88.2481 53.4419 88.5948 53.2552C88.9468 53.0632 89.3388 52.9672 89.7708 52.9672C90.1921 52.9672 90.5734 53.0579 90.9148 53.2392C91.2561 53.4205 91.5228 53.6819 91.7148 54.0232C91.9121 54.3592 92.0108 54.7512 92.0108 55.1992ZM89.7788 53.9112C89.4961 53.9112 89.2588 53.9912 89.0668 54.1512C88.8748 54.3112 88.7574 54.5299 88.7148 54.8072H90.8348C90.7921 54.5352 90.6748 54.3192 90.4828 54.1592C90.2908 53.9939 90.0561 53.9112 89.7788 53.9112ZM94.0336 53.5992C94.183 53.3912 94.383 53.2339 94.6336 53.1272C94.8896 53.0205 95.183 52.9672 95.5136 52.9672V54.1192C95.375 54.1085 95.2816 54.1032 95.2336 54.1032C94.8763 54.1032 94.5963 54.2045 94.3936 54.4072C94.191 54.6045 94.0896 54.9032 94.0896 55.3032V57.3352H92.8416V53.0312H94.0336V53.5992ZM98.8717 52.9672C99.405 52.9672 99.8344 53.1272 100.16 53.4472C100.49 53.7672 100.656 54.2419 100.656 54.8712V57.3352H99.4077V55.0632C99.4077 54.7219 99.333 54.4685 99.1837 54.3032C99.0344 54.1325 98.8184 54.0472 98.5357 54.0472C98.221 54.0472 97.9704 54.1459 97.7837 54.3432C97.597 54.5352 97.5037 54.8232 97.5037 55.2072V57.3352H96.2557V53.0312H97.4477V53.5352C97.613 53.3539 97.8184 53.2152 98.0637 53.1192C98.309 53.0179 98.5784 52.9672 98.8717 52.9672ZM103.523 52.9672C104.19 52.9672 104.702 53.1272 105.059 53.4472C105.416 53.7619 105.595 54.2392 105.595 54.8792V57.3352H104.427V56.7992C104.192 57.1992 103.755 57.3992 103.115 57.3992C102.784 57.3992 102.496 57.3432 102.251 57.2312C102.011 57.1192 101.827 56.9645 101.699 56.7672C101.571 56.5699 101.507 56.3459 101.507 56.0952C101.507 55.6952 101.656 55.3805 101.955 55.1512C102.259 54.9219 102.726 54.8072 103.355 54.8072H104.347C104.347 54.5352 104.264 54.3272 104.099 54.1832C103.934 54.0339 103.686 53.9592 103.355 53.9592C103.126 53.9592 102.899 53.9965 102.675 54.0712C102.456 54.1405 102.27 54.2365 102.115 54.3592L101.667 53.4872C101.902 53.3219 102.182 53.1939 102.507 53.1032C102.838 53.0125 103.176 52.9672 103.523 52.9672ZM103.427 56.5592C103.64 56.5592 103.83 56.5112 103.995 56.4152C104.16 56.3139 104.278 56.1672 104.347 55.9752V55.5352H103.491C102.979 55.5352 102.723 55.7032 102.723 56.0392C102.723 56.1992 102.784 56.3272 102.907 56.4232C103.035 56.5139 103.208 56.5592 103.427 56.5592ZM108.172 57.3992C107.815 57.3992 107.466 57.3565 107.124 57.2712C106.783 57.1805 106.511 57.0685 106.308 56.9352L106.724 56.0392C106.916 56.1619 107.148 56.2632 107.42 56.3432C107.692 56.4179 107.959 56.4552 108.22 56.4552C108.748 56.4552 109.012 56.3245 109.012 56.0632C109.012 55.9405 108.94 55.8525 108.796 55.7992C108.652 55.7459 108.431 55.7005 108.132 55.6632C107.78 55.6099 107.49 55.5485 107.26 55.4792C107.031 55.4099 106.831 55.2872 106.66 55.1112C106.495 54.9352 106.412 54.6845 106.412 54.3592C106.412 54.0872 106.49 53.8472 106.644 53.6392C106.804 53.4259 107.034 53.2605 107.332 53.1432C107.636 53.0259 107.994 52.9672 108.404 52.9672C108.708 52.9672 109.01 53.0019 109.308 53.0712C109.612 53.1352 109.863 53.2259 110.06 53.3432L109.644 54.2312C109.266 54.0179 108.852 53.9112 108.404 53.9112C108.138 53.9112 107.938 53.9485 107.804 54.0232C107.671 54.0979 107.604 54.1939 107.604 54.3112C107.604 54.4445 107.676 54.5379 107.82 54.5912C107.964 54.6445 108.194 54.6952 108.508 54.7432C108.86 54.8019 109.148 54.8659 109.372 54.9352C109.596 54.9992 109.791 55.1192 109.956 55.2952C110.122 55.4712 110.204 55.7165 110.204 56.0312C110.204 56.2979 110.124 56.5352 109.964 56.7432C109.804 56.9512 109.57 57.1139 109.26 57.2312C108.956 57.3432 108.594 57.3992 108.172 57.3992Z" fill="#333333"/>
</g>
<g id="Dibujar_2">
<g id="&#195;&#129;tomo_IDE_Bloque3_2">
<g id="&#195;&#129;tomo_IDE_Bloque1_2">
<g id="2_2">
<path id="Vector_7" fill-rule="evenodd" clip-rule="evenodd" d="M169.041 74.9818C169.041 72.1573 167.941 69.4486 165.982 67.4514C164.023 65.4542 161.367 64.3322 158.597 64.3322C132.918 64.3322 77.1321 64.3351 77.1321 64.3351L72.5391 68.5855H56.6623L52.0661 64.3351H37.4442C34.6742 64.3351 32.0177 65.4572 30.0591 67.4543C28.1004 69.4515 27 72.1603 27 74.9848C27 74.9878 27 74.991 27 74.9942C27 77.8186 28.1004 80.5273 30.0591 82.5245C32.0177 84.5217 34.6742 85.6437 37.4442 85.6437C44.3233 85.6437 52.0661 85.6437 52.0661 85.6437L56.6623 89.8941H72.5359L77.1321 85.6437L158.597 85.6408C161.367 85.6408 164.023 84.5188 165.982 82.5216C167.941 80.5244 169.041 77.8157 169.041 74.9912C169.041 74.988 169.041 74.9848 169.041 74.9818Z" fill="#30DCFF"/>
<path id="Vector_8" fill-rule="evenodd" clip-rule="evenodd" d="M169.041 74.9852C169.041 72.1607 167.941 69.452 165.982 67.4548C164.023 65.4576 161.367 64.3356 158.597 64.3356C132.918 64.3356 77.1321 64.3356 77.1321 64.3356L72.5391 68.586H56.6623L52.0661 64.3356H37.4442C34.6742 64.3356 32.0177 65.4576 30.0591 67.4548C28.1004 69.452 27 72.1607 27 74.9852C27 74.9883 27 74.9899 27 74.9899H29.5066C29.5066 70.3844 33.1682 66.6507 37.6849 66.6507C43.7752 66.6507 51.0403 66.6507 51.0403 66.6507L55.6365 70.9011H73.5804L78.1767 66.6507H158.357C162.873 66.6507 166.535 70.3843 166.535 74.9898L169.041 74.9899V74.9852Z" fill="#93EDFF"/>
<path id="Vector_9" fill-rule="evenodd" clip-rule="evenodd" d="M169.041 74.9872H166.534V74.9878C166.534 77.1985 165.673 79.3188 164.14 80.882C162.607 82.4453 160.528 83.3235 158.36 83.3235C134.684 83.3235 76.0939 83.3235 76.0939 83.3235L71.4977 87.5739H57.7006L53.1044 83.3235H37.6815C33.1667 83.3235 29.5066 79.5915 29.5066 74.9878V74.9872H27V74.9919C27 77.8164 28.1004 80.5251 30.0591 82.5223C32.0177 84.5195 34.6742 85.6415 37.4442 85.6415C44.3233 85.6415 52.0661 85.6415 52.0661 85.6415L56.6623 89.8919H72.5359L77.1321 85.6415H158.597C164.365 85.6415 169.041 80.8737 169.041 74.9922C169.041 74.9888 169.041 74.9872 169.041 74.9872Z" fill="#08A0BF"/>
</g>
</g>
</g>
<path id="Tomar impulso" d="M37.064 74.1264H35.272V73.0704H40.152V74.1264H38.36V78.6704H37.064V74.1264ZM42.3718 78.7344C41.9185 78.7344 41.5105 78.6411 41.1478 78.4544C40.7905 78.2624 40.5105 77.9984 40.3078 77.6624C40.1051 77.3264 40.0038 76.9451 40.0038 76.5184C40.0038 76.0917 40.1051 75.7104 40.3078 75.3744C40.5105 75.0384 40.7905 74.7771 41.1478 74.5904C41.5105 74.3984 41.9185 74.3024 42.3718 74.3024C42.8251 74.3024 43.2305 74.3984 43.5878 74.5904C43.9451 74.7771 44.2251 75.0384 44.4278 75.3744C44.6305 75.7104 44.7318 76.0917 44.7318 76.5184C44.7318 76.9451 44.6305 77.3264 44.4278 77.6624C44.2251 77.9984 43.9451 78.2624 43.5878 78.4544C43.2305 78.6411 42.8251 78.7344 42.3718 78.7344ZM42.3718 77.7104C42.6918 77.7104 42.9531 77.6037 43.1558 77.3904C43.3638 77.1717 43.4678 76.8811 43.4678 76.5184C43.4678 76.1557 43.3638 75.8677 43.1558 75.6544C42.9531 75.4357 42.6918 75.3264 42.3718 75.3264C42.0518 75.3264 41.7878 75.4357 41.5798 75.6544C41.3718 75.8677 41.2678 76.1557 41.2678 76.5184C41.2678 76.8811 41.3718 77.1717 41.5798 77.3904C41.7878 77.6037 42.0518 77.7104 42.3718 77.7104ZM51.078 74.3024C51.6167 74.3024 52.0433 74.4624 52.358 74.7824C52.678 75.0971 52.838 75.5717 52.838 76.2064V78.6704H51.59V76.3984C51.59 76.0571 51.518 75.8037 51.374 75.6384C51.2353 75.4677 51.0353 75.3824 50.774 75.3824C50.4807 75.3824 50.2487 75.4784 50.078 75.6704C49.9073 75.8571 49.822 76.1371 49.822 76.5104V78.6704H48.574V76.3984C48.574 75.7211 48.302 75.3824 47.758 75.3824C47.47 75.3824 47.2407 75.4784 47.07 75.6704C46.8993 75.8571 46.814 76.1371 46.814 76.5104V78.6704H45.566V74.3664H46.758V74.8624C46.918 74.6811 47.1127 74.5424 47.342 74.4464C47.5767 74.3504 47.8327 74.3024 48.11 74.3024C48.414 74.3024 48.6887 74.3637 48.934 74.4864C49.1793 74.6037 49.3767 74.7771 49.526 75.0064C49.702 74.7824 49.9233 74.6091 50.19 74.4864C50.462 74.3637 50.758 74.3024 51.078 74.3024ZM55.6926 74.3024C56.3593 74.3024 56.8713 74.4624 57.2286 74.7824C57.5859 75.0971 57.7646 75.5744 57.7646 76.2144V78.6704H56.5966V78.1344C56.3619 78.5344 55.9246 78.7344 55.2846 78.7344C54.9539 78.7344 54.6659 78.6784 54.4206 78.5664C54.1806 78.4544 53.9966 78.2997 53.8686 78.1024C53.7406 77.9051 53.6766 77.6811 53.6766 77.4304C53.6766 77.0304 53.8259 76.7157 54.1246 76.4864C54.4286 76.2571 54.8953 76.1424 55.5246 76.1424H56.5166C56.5166 75.8704 56.4339 75.6624 56.2686 75.5184C56.1033 75.3691 55.8553 75.2944 55.5246 75.2944C55.2953 75.2944 55.0686 75.3317 54.8446 75.4064C54.6259 75.4757 54.4393 75.5717 54.2846 75.6944L53.8366 74.8224C54.0713 74.6571 54.3513 74.5291 54.6766 74.4384C55.0073 74.3477 55.3459 74.3024 55.6926 74.3024ZM55.5966 77.8944C55.8099 77.8944 55.9993 77.8464 56.1646 77.7504C56.3299 77.6491 56.4473 77.5024 56.5166 77.3104V76.8704H55.6606C55.1486 76.8704 54.8926 77.0384 54.8926 77.3744C54.8926 77.5344 54.9539 77.6624 55.0766 77.7584C55.2046 77.8491 55.3779 77.8944 55.5966 77.8944ZM60.0861 74.9344C60.2354 74.7264 60.4354 74.5691 60.6861 74.4624C60.9421 74.3557 61.2354 74.3024 61.5661 74.3024V75.4544C61.4274 75.4437 61.3341 75.4384 61.2861 75.4384C60.9288 75.4384 60.6488 75.5397 60.4461 75.7424C60.2434 75.9397 60.1421 76.2384 60.1421 76.6384V78.6704H58.8941V74.3664H60.0861V74.9344ZM64.6051 74.3664H65.8531V78.6704H64.6051V74.3664ZM65.2291 73.7664C64.9997 73.7664 64.8131 73.6997 64.6691 73.5664C64.5251 73.4331 64.4531 73.2677 64.4531 73.0704C64.4531 72.8731 64.5251 72.7077 64.6691 72.5744C64.8131 72.4411 64.9997 72.3744 65.2291 72.3744C65.4584 72.3744 65.6451 72.4384 65.7891 72.5664C65.9331 72.6944 66.0051 72.8544 66.0051 73.0464C66.0051 73.2544 65.9331 73.4277 65.7891 73.5664C65.6451 73.6997 65.4584 73.7664 65.2291 73.7664ZM72.5233 74.3024C73.062 74.3024 73.4886 74.4624 73.8033 74.7824C74.1233 75.0971 74.2833 75.5717 74.2833 76.2064V78.6704H73.0353V76.3984C73.0353 76.0571 72.9633 75.8037 72.8193 75.6384C72.6806 75.4677 72.4806 75.3824 72.2193 75.3824C71.926 75.3824 71.694 75.4784 71.5233 75.6704C71.3526 75.8571 71.2673 76.1371 71.2673 76.5104V78.6704H70.0193V76.3984C70.0193 75.7211 69.7473 75.3824 69.2033 75.3824C68.9153 75.3824 68.686 75.4784 68.5153 75.6704C68.3446 75.8571 68.2593 76.1371 68.2593 76.5104V78.6704H67.0113V74.3664H68.2033V74.8624C68.3633 74.6811 68.558 74.5424 68.7873 74.4464C69.022 74.3504 69.278 74.3024 69.5553 74.3024C69.8593 74.3024 70.134 74.3637 70.3793 74.4864C70.6246 74.6037 70.822 74.7771 70.9713 75.0064C71.1473 74.7824 71.3686 74.6091 71.6353 74.4864C71.9073 74.3637 72.2033 74.3024 72.5233 74.3024ZM77.9459 74.3024C78.3459 74.3024 78.7086 74.3957 79.0339 74.5824C79.3646 74.7637 79.6233 75.0224 79.8099 75.3584C79.9966 75.6891 80.0899 76.0757 80.0899 76.5184C80.0899 76.9611 79.9966 77.3504 79.8099 77.6864C79.6233 78.0171 79.3646 78.2757 79.0339 78.4624C78.7086 78.6437 78.3459 78.7344 77.9459 78.7344C77.3966 78.7344 76.9646 78.5611 76.6499 78.2144V80.2224H75.4019V74.3664H76.5939V74.8624C76.9033 74.4891 77.3539 74.3024 77.9459 74.3024ZM77.7299 77.7104C78.0499 77.7104 78.3113 77.6037 78.5139 77.3904C78.7219 77.1717 78.8259 76.8811 78.8259 76.5184C78.8259 76.1557 78.7219 75.8677 78.5139 75.6544C78.3113 75.4357 78.0499 75.3264 77.7299 75.3264C77.4099 75.3264 77.1459 75.4357 76.9379 75.6544C76.7353 75.8677 76.6339 76.1557 76.6339 76.5184C76.6339 76.8811 76.7353 77.1717 76.9379 77.3904C77.1459 77.6037 77.4099 77.7104 77.7299 77.7104ZM85.2614 74.3664V78.6704H84.0774V78.1584C83.912 78.3451 83.7147 78.4891 83.4854 78.5904C83.256 78.6864 83.008 78.7344 82.7414 78.7344C82.176 78.7344 81.728 78.5717 81.3974 78.2464C81.0667 77.9211 80.9014 77.4384 80.9014 76.7984V74.3664H82.1494V76.6144C82.1494 77.3077 82.44 77.6544 83.0214 77.6544C83.32 77.6544 83.56 77.5584 83.7414 77.3664C83.9227 77.1691 84.0134 76.8784 84.0134 76.4944V74.3664H85.2614ZM86.4176 72.7344H87.6656V78.6704H86.4176V72.7344ZM90.2718 78.7344C89.9145 78.7344 89.5651 78.6917 89.2238 78.6064C88.8825 78.5157 88.6105 78.4037 88.4078 78.2704L88.8238 77.3744C89.0158 77.4971 89.2478 77.5984 89.5198 77.6784C89.7918 77.7531 90.0585 77.7904 90.3198 77.7904C90.8478 77.7904 91.1118 77.6597 91.1118 77.3984C91.1118 77.2757 91.0398 77.1877 90.8958 77.1344C90.7518 77.0811 90.5305 77.0357 90.2318 76.9984C89.8798 76.9451 89.5891 76.8837 89.3598 76.8144C89.1305 76.7451 88.9305 76.6224 88.7598 76.4464C88.5945 76.2704 88.5118 76.0197 88.5118 75.6944C88.5118 75.4224 88.5891 75.1824 88.7438 74.9744C88.9038 74.7611 89.1331 74.5957 89.4318 74.4784C89.7358 74.3611 90.0931 74.3024 90.5038 74.3024C90.8078 74.3024 91.1091 74.3371 91.4078 74.4064C91.7118 74.4704 91.9625 74.5611 92.1598 74.6784L91.7438 75.5664C91.3651 75.3531 90.9518 75.2464 90.5038 75.2464C90.2371 75.2464 90.0371 75.2837 89.9038 75.3584C89.7705 75.4331 89.7038 75.5291 89.7038 75.6464C89.7038 75.7797 89.7758 75.8731 89.9198 75.9264C90.0638 75.9797 90.2931 76.0304 90.6078 76.0784C90.9598 76.1371 91.2478 76.2011 91.4718 76.2704C91.6958 76.3344 91.8905 76.4544 92.0558 76.6304C92.2211 76.8064 92.3038 77.0517 92.3038 77.3664C92.3038 77.6331 92.2238 77.8704 92.0638 78.0784C91.9038 78.2864 91.6691 78.4491 91.3598 78.5664C91.0558 78.6784 90.6931 78.7344 90.2718 78.7344ZM95.1218 78.7344C94.6685 78.7344 94.2605 78.6411 93.8978 78.4544C93.5405 78.2624 93.2605 77.9984 93.0578 77.6624C92.8551 77.3264 92.7538 76.9451 92.7538 76.5184C92.7538 76.0917 92.8551 75.7104 93.0578 75.3744C93.2605 75.0384 93.5405 74.7771 93.8978 74.5904C94.2605 74.3984 94.6685 74.3024 95.1218 74.3024C95.5751 74.3024 95.9805 74.3984 96.3378 74.5904C96.6951 74.7771 96.9751 75.0384 97.1778 75.3744C97.3805 75.7104 97.4818 76.0917 97.4818 76.5184C97.4818 76.9451 97.3805 77.3264 97.1778 77.6624C96.9751 77.9984 96.6951 78.2624 96.3378 78.4544C95.9805 78.6411 95.5751 78.7344 95.1218 78.7344ZM95.1218 77.7104C95.4418 77.7104 95.7031 77.6037 95.9058 77.3904C96.1138 77.1717 96.2178 76.8811 96.2178 76.5184C96.2178 76.1557 96.1138 75.8677 95.9058 75.6544C95.7031 75.4357 95.4418 75.3264 95.1218 75.3264C94.8018 75.3264 94.5378 75.4357 94.3298 75.6544C94.1218 75.8677 94.0178 76.1557 94.0178 76.5184C94.0178 76.8811 94.1218 77.1717 94.3298 77.3904C94.5378 77.6037 94.8018 77.7104 95.1218 77.7104Z" fill="#333333"/>
</g>
<g id="Dibujar_3">
<g id="&#195;&#129;tomo_IDE_Bloque3_3">
<g id="&#195;&#129;tomo_IDE_Bloque1_3">
<g id="2_3">
<path id="Vector_10" fill-rule="evenodd" clip-rule="evenodd" d="M168.801 95.6466C168.801 92.8221 167.701 90.1133 165.742 88.1162C163.783 86.119 161.127 84.9969 158.357 84.9969C132.678 84.9969 76.8921 84.9999 76.8921 84.9999L72.2991 89.2503H56.4223L51.8261 84.9999H37.2042C34.4342 84.9999 31.7777 86.122 29.8191 88.1191C27.8604 90.1163 26.76 92.8251 26.76 95.6495C26.76 95.6526 26.76 95.6558 26.76 95.659C26.76 98.4834 27.8604 101.192 29.8191 103.189C31.7777 105.186 34.4342 106.309 37.2042 106.309C44.0833 106.309 51.8261 106.309 51.8261 106.309L56.4223 110.559H72.2959L76.8921 106.309L158.357 106.306C161.127 106.306 163.783 105.184 165.742 103.186C167.701 101.189 168.801 98.4804 168.801 95.656C168.801 95.6528 168.801 95.6496 168.801 95.6466Z" fill="#30DCFF"/>
<path id="Vector_11" fill-rule="evenodd" clip-rule="evenodd" d="M168.801 95.65C168.801 92.8255 167.701 90.1168 165.742 88.1196C163.783 86.1224 161.127 85.0004 158.357 85.0004C132.678 85.0004 76.8921 85.0004 76.8921 85.0004L72.2991 89.2508H56.4223L51.8261 85.0004H37.2042C34.4342 85.0004 31.7777 86.1224 29.8191 88.1196C27.8604 90.1168 26.76 92.8255 26.76 95.65C26.76 95.6531 26.76 95.6547 26.76 95.6547H29.2666C29.2666 91.0492 32.9282 87.3155 37.4449 87.3155C43.5352 87.3155 50.8003 87.3155 50.8003 87.3155L55.3965 91.5659H73.3405L77.9367 87.3155H158.117C162.633 87.3155 166.295 91.0491 166.295 95.6546L168.801 95.6547V95.65Z" fill="#93EDFF"/>
<path id="Vector_12" fill-rule="evenodd" clip-rule="evenodd" d="M168.801 95.652H166.294V95.6526C166.294 97.8633 165.433 99.9836 163.9 101.547C162.367 103.11 160.288 103.988 158.12 103.988C134.444 103.988 75.8539 103.988 75.8539 103.988L71.2577 108.239H57.4606L52.8644 103.988H37.4416C32.9267 103.988 29.2666 100.256 29.2666 95.6526V95.652H26.76V95.6567C26.76 98.4812 27.8604 101.19 29.8191 103.187C31.7777 105.184 34.4342 106.306 37.2042 106.306C44.0833 106.306 51.8261 106.306 51.8261 106.306L56.4223 110.557H72.2959L76.8921 106.306H158.357C164.125 106.306 168.801 101.539 168.801 95.657C168.801 95.6536 168.801 95.652 168.801 95.652Z" fill="#08A0BF"/>
</g>
</g>
</g>
<path id="Saltar" d="M37.504 99.4312C37.0613 99.4312 36.632 99.3725 36.216 99.2552C35.8053 99.1325 35.4747 98.9752 35.224 98.7832L35.664 97.8072C35.904 97.9832 36.1893 98.1245 36.52 98.2312C36.8507 98.3379 37.1813 98.3912 37.512 98.3912C37.88 98.3912 38.152 98.3379 38.328 98.2312C38.504 98.1192 38.592 97.9725 38.592 97.7912C38.592 97.6579 38.5387 97.5485 38.432 97.4632C38.3307 97.3725 38.1973 97.3005 38.032 97.2472C37.872 97.1939 37.6533 97.1352 37.376 97.0712C36.9493 96.9699 36.6 96.8685 36.328 96.7672C36.056 96.6659 35.8213 96.5032 35.624 96.2792C35.432 96.0552 35.336 95.7565 35.336 95.3832C35.336 95.0579 35.424 94.7645 35.6 94.5032C35.776 94.2365 36.04 94.0259 36.392 93.8712C36.7493 93.7165 37.184 93.6392 37.696 93.6392C38.0533 93.6392 38.4027 93.6819 38.744 93.7672C39.0853 93.8525 39.384 93.9752 39.64 94.1352L39.24 95.1192C38.7227 94.8259 38.2053 94.6792 37.688 94.6792C37.3253 94.6792 37.056 94.7379 36.88 94.8552C36.7093 94.9725 36.624 95.1272 36.624 95.3192C36.624 95.5112 36.7227 95.6552 36.92 95.7512C37.1227 95.8419 37.4293 95.9325 37.84 96.0232C38.2667 96.1245 38.616 96.2259 38.888 96.3272C39.16 96.4285 39.392 96.5885 39.584 96.8072C39.7813 97.0259 39.88 97.3219 39.88 97.6952C39.88 98.0152 39.7893 98.3085 39.608 98.5752C39.432 98.8365 39.1653 99.0445 38.808 99.1992C38.4507 99.3539 38.016 99.4312 37.504 99.4312ZM42.4136 94.9672C43.0802 94.9672 43.5922 95.1272 43.9496 95.4472C44.3069 95.7619 44.4856 96.2392 44.4856 96.8792V99.3352H43.3176V98.7992C43.0829 99.1992 42.6456 99.3992 42.0056 99.3992C41.6749 99.3992 41.3869 99.3432 41.1416 99.2312C40.9016 99.1192 40.7176 98.9645 40.5896 98.7672C40.4616 98.5699 40.3976 98.3459 40.3976 98.0952C40.3976 97.6952 40.5469 97.3805 40.8456 97.1512C41.1496 96.9219 41.6162 96.8072 42.2456 96.8072H43.2376C43.2376 96.5352 43.1549 96.3272 42.9896 96.1832C42.8242 96.0339 42.5762 95.9592 42.2456 95.9592C42.0162 95.9592 41.7896 95.9965 41.5656 96.0712C41.3469 96.1405 41.1602 96.2365 41.0056 96.3592L40.5576 95.4872C40.7922 95.3219 41.0722 95.1939 41.3976 95.1032C41.7282 95.0125 42.0669 94.9672 42.4136 94.9672ZM42.3176 98.5592C42.5309 98.5592 42.7202 98.5112 42.8856 98.4152C43.0509 98.3139 43.1682 98.1672 43.2376 97.9752V97.5352H42.3816C41.8696 97.5352 41.6136 97.7032 41.6136 98.0392C41.6136 98.1992 41.6749 98.3272 41.7976 98.4232C41.9256 98.5139 42.0989 98.5592 42.3176 98.5592ZM45.6151 93.3992H46.8631V99.3352H45.6151V93.3992ZM51.1098 99.1272C50.9871 99.2179 50.8351 99.2872 50.6538 99.3352C50.4778 99.3779 50.2911 99.3992 50.0938 99.3992C49.5818 99.3992 49.1845 99.2685 48.9018 99.0072C48.6245 98.7459 48.4858 98.3619 48.4858 97.8552V96.0872H47.8218V95.1272H48.4858V94.0792H49.7338V95.1272H50.8058V96.0872H49.7338V97.8392C49.7338 98.0205 49.7791 98.1619 49.8698 98.2632C49.9658 98.3592 50.0991 98.4072 50.2698 98.4072C50.4671 98.4072 50.6351 98.3539 50.7738 98.2472L51.1098 99.1272ZM53.5464 94.9672C54.213 94.9672 54.725 95.1272 55.0824 95.4472C55.4397 95.7619 55.6184 96.2392 55.6184 96.8792V99.3352H54.4504V98.7992C54.2157 99.1992 53.7784 99.3992 53.1384 99.3992C52.8077 99.3992 52.5197 99.3432 52.2744 99.2312C52.0344 99.1192 51.8504 98.9645 51.7224 98.7672C51.5944 98.5699 51.5304 98.3459 51.5304 98.0952C51.5304 97.6952 51.6797 97.3805 51.9784 97.1512C52.2824 96.9219 52.749 96.8072 53.3784 96.8072H54.3704C54.3704 96.5352 54.2877 96.3272 54.1224 96.1832C53.957 96.0339 53.709 95.9592 53.3784 95.9592C53.149 95.9592 52.9224 95.9965 52.6984 96.0712C52.4797 96.1405 52.293 96.2365 52.1384 96.3592L51.6904 95.4872C51.925 95.3219 52.205 95.1939 52.5304 95.1032C52.861 95.0125 53.1997 94.9672 53.5464 94.9672ZM53.4504 98.5592C53.6637 98.5592 53.853 98.5112 54.0184 98.4152C54.1837 98.3139 54.301 98.1672 54.3704 97.9752V97.5352H53.5144C53.0024 97.5352 52.7464 97.7032 52.7464 98.0392C52.7464 98.1992 52.8077 98.3272 52.9304 98.4232C53.0584 98.5139 53.2317 98.5592 53.4504 98.5592ZM57.9399 95.5992C58.0892 95.3912 58.2892 95.2339 58.5399 95.1272C58.7959 95.0205 59.0892 94.9672 59.4199 94.9672V96.1192C59.2812 96.1085 59.1879 96.1032 59.1399 96.1032C58.7825 96.1032 58.5025 96.2045 58.2999 96.4072C58.0972 96.6045 57.9959 96.9032 57.9959 97.3032V99.3352H56.7479V95.0312H57.9399V95.5992Z" fill="#333333"/>
</g>
<g id="Dibujar_4">
<g id="&#195;&#129;tomo_IDE_Bloque3_4">
<g id="&#195;&#129;tomo_IDE_Bloque1_4">
<g id="2_4">
<path id="Vector_13" fill-rule="evenodd" clip-rule="evenodd" d="M168.801 116.647C168.801 113.822 167.701 111.113 165.742 109.116C163.783 107.119 161.127 105.997 158.357 105.997C132.678 105.997 76.8921 106 76.8921 106L72.2991 110.25H56.4223L51.8261 106H37.2042C34.4342 106 31.7777 107.122 29.8191 109.119C27.8604 111.116 26.76 113.825 26.76 116.65C26.76 116.653 26.76 116.656 26.76 116.659C26.76 119.483 27.8604 122.192 29.8191 124.189C31.7777 126.186 34.4342 127.309 37.2042 127.309C44.0833 127.309 51.8261 127.309 51.8261 127.309L56.4223 131.559H72.2959L76.8921 127.309L158.357 127.306C161.127 127.306 163.783 126.184 165.742 124.186C167.701 122.189 168.801 119.48 168.801 116.656C168.801 116.653 168.801 116.65 168.801 116.647Z" fill="#30DCFF"/>
<path id="Vector_14" fill-rule="evenodd" clip-rule="evenodd" d="M168.801 116.65C168.801 113.826 167.701 111.117 165.742 109.12C163.783 107.122 161.127 106 158.357 106C132.678 106 76.8921 106 76.8921 106L72.2991 110.251H56.4223L51.8261 106H37.2042C34.4342 106 31.7777 107.122 29.8191 109.12C27.8604 111.117 26.76 113.826 26.76 116.65C26.76 116.653 26.76 116.655 26.76 116.655H29.2666C29.2666 112.049 32.9282 108.316 37.4449 108.316C43.5352 108.316 50.8003 108.316 50.8003 108.316L55.3965 112.566H73.3405L77.9367 108.316H158.117C162.633 108.316 166.295 112.049 166.295 116.655L168.801 116.655V116.65Z" fill="#93EDFF"/>
<path id="Vector_15" fill-rule="evenodd" clip-rule="evenodd" d="M168.801 116.652H166.294V116.653C166.294 118.863 165.433 120.984 163.9 122.547C162.367 124.11 160.288 124.988 158.12 124.988C134.444 124.988 75.8539 124.988 75.8539 124.988L71.2577 129.239H57.4606L52.8644 124.988H37.4416C32.9267 124.988 29.2666 121.256 29.2666 116.653V116.652H26.76V116.657C26.76 119.481 27.8604 122.19 29.8191 124.187C31.7777 126.184 34.4342 127.306 37.2042 127.306C44.0833 127.306 51.8261 127.306 51.8261 127.306L56.4223 131.557H72.2959L76.8921 127.306H158.357C164.125 127.306 168.801 122.539 168.801 116.657C168.801 116.654 168.801 116.652 168.801 116.652Z" fill="#08A0BF"/>
</g>
</g>
</g>
<path id="Saltar_2" d="M37.504 120.431C37.0613 120.431 36.632 120.373 36.216 120.255C35.8053 120.133 35.4747 119.975 35.224 119.783L35.664 118.807C35.904 118.983 36.1893 119.125 36.52 119.231C36.8507 119.338 37.1813 119.391 37.512 119.391C37.88 119.391 38.152 119.338 38.328 119.231C38.504 119.119 38.592 118.973 38.592 118.791C38.592 118.658 38.5387 118.549 38.432 118.463C38.3307 118.373 38.1973 118.301 38.032 118.247C37.872 118.194 37.6533 118.135 37.376 118.071C36.9493 117.97 36.6 117.869 36.328 117.767C36.056 117.666 35.8213 117.503 35.624 117.279C35.432 117.055 35.336 116.757 35.336 116.383C35.336 116.058 35.424 115.765 35.6 115.503C35.776 115.237 36.04 115.026 36.392 114.871C36.7493 114.717 37.184 114.639 37.696 114.639C38.0533 114.639 38.4027 114.682 38.744 114.767C39.0853 114.853 39.384 114.975 39.64 115.135L39.24 116.119C38.7227 115.826 38.2053 115.679 37.688 115.679C37.3253 115.679 37.056 115.738 36.88 115.855C36.7093 115.973 36.624 116.127 36.624 116.319C36.624 116.511 36.7227 116.655 36.92 116.751C37.1227 116.842 37.4293 116.933 37.84 117.023C38.2667 117.125 38.616 117.226 38.888 117.327C39.16 117.429 39.392 117.589 39.584 117.807C39.7813 118.026 39.88 118.322 39.88 118.695C39.88 119.015 39.7893 119.309 39.608 119.575C39.432 119.837 39.1653 120.045 38.808 120.199C38.4507 120.354 38.016 120.431 37.504 120.431ZM42.4136 115.967C43.0802 115.967 43.5922 116.127 43.9496 116.447C44.3069 116.762 44.4856 117.239 44.4856 117.879V120.335H43.3176V119.799C43.0829 120.199 42.6456 120.399 42.0056 120.399C41.6749 120.399 41.3869 120.343 41.1416 120.231C40.9016 120.119 40.7176 119.965 40.5896 119.767C40.4616 119.57 40.3976 119.346 40.3976 119.095C40.3976 118.695 40.5469 118.381 40.8456 118.151C41.1496 117.922 41.6162 117.807 42.2456 117.807H43.2376C43.2376 117.535 43.1549 117.327 42.9896 117.183C42.8242 117.034 42.5762 116.959 42.2456 116.959C42.0162 116.959 41.7896 116.997 41.5656 117.071C41.3469 117.141 41.1602 117.237 41.0056 117.359L40.5576 116.487C40.7922 116.322 41.0722 116.194 41.3976 116.103C41.7282 116.013 42.0669 115.967 42.4136 115.967ZM42.3176 119.559C42.5309 119.559 42.7202 119.511 42.8856 119.415C43.0509 119.314 43.1682 119.167 43.2376 118.975V118.535H42.3816C41.8696 118.535 41.6136 118.703 41.6136 119.039C41.6136 119.199 41.6749 119.327 41.7976 119.423C41.9256 119.514 42.0989 119.559 42.3176 119.559ZM45.6151 114.399H46.8631V120.335H45.6151V114.399ZM51.1098 120.127C50.9871 120.218 50.8351 120.287 50.6538 120.335C50.4778 120.378 50.2911 120.399 50.0938 120.399C49.5818 120.399 49.1845 120.269 48.9018 120.007C48.6245 119.746 48.4858 119.362 48.4858 118.855V117.087H47.8218V116.127H48.4858V115.079H49.7338V116.127H50.8058V117.087H49.7338V118.839C49.7338 119.021 49.7791 119.162 49.8698 119.263C49.9658 119.359 50.0991 119.407 50.2698 119.407C50.4671 119.407 50.6351 119.354 50.7738 119.247L51.1098 120.127ZM53.5464 115.967C54.213 115.967 54.725 116.127 55.0824 116.447C55.4397 116.762 55.6184 117.239 55.6184 117.879V120.335H54.4504V119.799C54.2157 120.199 53.7784 120.399 53.1384 120.399C52.8077 120.399 52.5197 120.343 52.2744 120.231C52.0344 120.119 51.8504 119.965 51.7224 119.767C51.5944 119.57 51.5304 119.346 51.5304 119.095C51.5304 118.695 51.6797 118.381 51.9784 118.151C52.2824 117.922 52.749 117.807 53.3784 117.807H54.3704C54.3704 117.535 54.2877 117.327 54.1224 117.183C53.957 117.034 53.709 116.959 53.3784 116.959C53.149 116.959 52.9224 116.997 52.6984 117.071C52.4797 117.141 52.293 117.237 52.1384 117.359L51.6904 116.487C51.925 116.322 52.205 116.194 52.5304 116.103C52.861 116.013 53.1997 115.967 53.5464 115.967ZM53.4504 119.559C53.6637 119.559 53.853 119.511 54.0184 119.415C54.1837 119.314 54.301 119.167 54.3704 118.975V118.535H53.5144C53.0024 118.535 52.7464 118.703 52.7464 119.039C52.7464 119.199 52.8077 119.327 52.9304 119.423C53.0584 119.514 53.2317 119.559 53.4504 119.559ZM57.9399 116.599C58.0892 116.391 58.2892 116.234 58.5399 116.127C58.7959 116.021 59.0892 115.967 59.4199 115.967V117.119C59.2812 117.109 59.1879 117.103 59.1399 117.103C58.7825 117.103 58.5025 117.205 58.2999 117.407C58.0972 117.605 57.9959 117.903 57.9959 118.303V120.335H56.7479V116.031H57.9399V116.599Z" fill="#333333"/>
</g>
<g id="Dibujar_5">
<g id="&#195;&#129;tomo_IDE_Bloque3_5">
<g id="&#195;&#129;tomo_IDE_Bloque1_5">
<g id="2_5">
<path id="Vector_16" fill-rule="evenodd" clip-rule="evenodd" d="M168.801 137.647C168.801 134.822 167.701 132.113 165.742 130.116C163.783 128.119 161.127 126.997 158.357 126.997C132.678 126.997 76.8921 127 76.8921 127L72.2991 131.25H56.4223L51.8261 127H37.2042C34.4342 127 31.7777 128.122 29.8191 130.119C27.8604 132.116 26.76 134.825 26.76 137.65C26.76 137.653 26.76 137.656 26.76 137.659C26.76 140.483 27.8604 143.192 29.8191 145.189C31.7777 147.186 34.4342 148.309 37.2042 148.309C44.0833 148.309 51.8261 148.309 51.8261 148.309L56.4223 152.559H72.2959L76.8921 148.309L158.357 148.306C161.127 148.306 163.783 147.184 165.742 145.186C167.701 143.189 168.801 140.48 168.801 137.656C168.801 137.653 168.801 137.65 168.801 137.647Z" fill="#30DCFF"/>
<path id="Vector_17" fill-rule="evenodd" clip-rule="evenodd" d="M168.801 137.65C168.801 134.826 167.701 132.117 165.742 130.12C163.783 128.122 161.127 127 158.357 127C132.678 127 76.8921 127 76.8921 127L72.2991 131.251H56.4223L51.8261 127H37.2042C34.4342 127 31.7777 128.122 29.8191 130.12C27.8604 132.117 26.76 134.826 26.76 137.65C26.76 137.653 26.76 137.655 26.76 137.655H29.2666C29.2666 133.049 32.9282 129.316 37.4449 129.316C43.5352 129.316 50.8003 129.316 50.8003 129.316L55.3965 133.566H73.3405L77.9367 129.316H158.117C162.633 129.316 166.295 133.049 166.295 137.655L168.801 137.655V137.65Z" fill="#93EDFF"/>
<path id="Vector_18" fill-rule="evenodd" clip-rule="evenodd" d="M168.801 137.652H166.294V137.653C166.294 139.863 165.433 141.984 163.9 143.547C162.367 145.11 160.288 145.988 158.12 145.988C134.444 145.988 75.8539 145.988 75.8539 145.988L71.2577 150.239H57.4606L52.8644 145.988H37.4416C32.9267 145.988 29.2666 142.256 29.2666 137.653V137.652H26.76V137.657C26.76 140.481 27.8604 143.19 29.8191 145.187C31.7777 147.184 34.4342 148.306 37.2042 148.306C44.0833 148.306 51.8261 148.306 51.8261 148.306L56.4223 152.557H72.2959L76.8921 148.306H158.357C164.125 148.306 168.801 143.539 168.801 137.657C168.801 137.654 168.801 137.652 168.801 137.652Z" fill="#08A0BF"/>
</g>
</g>
</g>
<path id="Subir los brazos" d="M37.504 141.431C37.0613 141.431 36.632 141.373 36.216 141.255C35.8053 141.133 35.4747 140.975 35.224 140.783L35.664 139.807C35.904 139.983 36.1893 140.125 36.52 140.231C36.8507 140.338 37.1813 140.391 37.512 140.391C37.88 140.391 38.152 140.338 38.328 140.231C38.504 140.119 38.592 139.973 38.592 139.791C38.592 139.658 38.5387 139.549 38.432 139.463C38.3307 139.373 38.1973 139.301 38.032 139.247C37.872 139.194 37.6533 139.135 37.376 139.071C36.9493 138.97 36.6 138.869 36.328 138.767C36.056 138.666 35.8213 138.503 35.624 138.279C35.432 138.055 35.336 137.757 35.336 137.383C35.336 137.058 35.424 136.765 35.6 136.503C35.776 136.237 36.04 136.026 36.392 135.871C36.7493 135.717 37.184 135.639 37.696 135.639C38.0533 135.639 38.4027 135.682 38.744 135.767C39.0853 135.853 39.384 135.975 39.64 136.135L39.24 137.119C38.7227 136.826 38.2053 136.679 37.688 136.679C37.3253 136.679 37.056 136.738 36.88 136.855C36.7093 136.973 36.624 137.127 36.624 137.319C36.624 137.511 36.7227 137.655 36.92 137.751C37.1227 137.842 37.4293 137.933 37.84 138.023C38.2667 138.125 38.616 138.226 38.888 138.327C39.16 138.429 39.392 138.589 39.584 138.807C39.7813 139.026 39.88 139.322 39.88 139.695C39.88 140.015 39.7893 140.309 39.608 140.575C39.432 140.837 39.1653 141.045 38.808 141.199C38.4507 141.354 38.016 141.431 37.504 141.431ZM45.0136 137.031V141.335H43.8296V140.823C43.6642 141.01 43.4669 141.154 43.2376 141.255C43.0082 141.351 42.7602 141.399 42.4936 141.399C41.9282 141.399 41.4802 141.237 41.1496 140.911C40.8189 140.586 40.6536 140.103 40.6536 139.463V137.031H41.9016V139.279C41.9016 139.973 42.1922 140.319 42.7736 140.319C43.0722 140.319 43.3122 140.223 43.4936 140.031C43.6749 139.834 43.7656 139.543 43.7656 139.159V137.031H45.0136ZM48.7138 136.967C49.1138 136.967 49.4764 137.061 49.8018 137.247C50.1324 137.429 50.3911 137.687 50.5778 138.023C50.7644 138.354 50.8578 138.741 50.8578 139.183C50.8578 139.626 50.7644 140.015 50.5778 140.351C50.3911 140.682 50.1324 140.941 49.8018 141.127C49.4764 141.309 49.1138 141.399 48.7138 141.399C48.1218 141.399 47.6711 141.213 47.3618 140.839V141.335H46.1698V135.399H47.4178V137.487C47.7324 137.141 48.1644 136.967 48.7138 136.967ZM48.4978 140.375C48.8178 140.375 49.0791 140.269 49.2818 140.055C49.4898 139.837 49.5938 139.546 49.5938 139.183C49.5938 138.821 49.4898 138.533 49.2818 138.319C49.0791 138.101 48.8178 137.991 48.4978 137.991C48.1778 137.991 47.9138 138.101 47.7057 138.319C47.5031 138.533 47.4018 138.821 47.4018 139.183C47.4018 139.546 47.5031 139.837 47.7057 140.055C47.9138 140.269 48.1778 140.375 48.4978 140.375ZM51.6932 137.031H52.9412V141.335H51.6932V137.031ZM52.3172 136.431C52.0879 136.431 51.9012 136.365 51.7572 136.231C51.6132 136.098 51.5412 135.933 51.5412 135.735C51.5412 135.538 51.6132 135.373 51.7572 135.239C51.9012 135.106 52.0879 135.039 52.3172 135.039C52.5465 135.039 52.7332 135.103 52.8772 135.231C53.0212 135.359 53.0932 135.519 53.0932 135.711C53.0932 135.919 53.0212 136.093 52.8772 136.231C52.7332 136.365 52.5465 136.431 52.3172 136.431ZM55.2914 137.599C55.4408 137.391 55.6408 137.234 55.8914 137.127C56.1474 137.021 56.4408 136.967 56.7714 136.967V138.119C56.6328 138.109 56.5394 138.103 56.4914 138.103C56.1341 138.103 55.8541 138.205 55.6514 138.407C55.4488 138.605 55.3474 138.903 55.3474 139.303V141.335H54.0994V137.031H55.2914V137.599ZM59.8104 135.399H61.0584V141.335H59.8104V135.399ZM64.2646 141.399C63.8113 141.399 63.4033 141.306 63.0406 141.119C62.6833 140.927 62.4033 140.663 62.2006 140.327C61.998 139.991 61.8966 139.61 61.8966 139.183C61.8966 138.757 61.998 138.375 62.2006 138.039C62.4033 137.703 62.6833 137.442 63.0406 137.255C63.4033 137.063 63.8113 136.967 64.2646 136.967C64.718 136.967 65.1233 137.063 65.4806 137.255C65.838 137.442 66.118 137.703 66.3206 138.039C66.5233 138.375 66.6246 138.757 66.6246 139.183C66.6246 139.61 66.5233 139.991 66.3206 140.327C66.118 140.663 65.838 140.927 65.4806 141.119C65.1233 141.306 64.718 141.399 64.2646 141.399ZM64.2646 140.375C64.5846 140.375 64.846 140.269 65.0486 140.055C65.2566 139.837 65.3606 139.546 65.3606 139.183C65.3606 138.821 65.2566 138.533 65.0486 138.319C64.846 138.101 64.5846 137.991 64.2646 137.991C63.9446 137.991 63.6806 138.101 63.4726 138.319C63.2646 138.533 63.1606 138.821 63.1606 139.183C63.1606 139.546 63.2646 139.837 63.4726 140.055C63.6806 140.269 63.9446 140.375 64.2646 140.375ZM68.9068 141.399C68.5495 141.399 68.2001 141.357 67.8588 141.271C67.5175 141.181 67.2455 141.069 67.0428 140.935L67.4588 140.039C67.6508 140.162 67.8828 140.263 68.1548 140.343C68.4268 140.418 68.6935 140.455 68.9548 140.455C69.4828 140.455 69.7468 140.325 69.7468 140.063C69.7468 139.941 69.6748 139.853 69.5308 139.799C69.3868 139.746 69.1655 139.701 68.8668 139.663C68.5148 139.61 68.2241 139.549 67.9948 139.479C67.7655 139.41 67.5655 139.287 67.3948 139.111C67.2295 138.935 67.1468 138.685 67.1468 138.359C67.1468 138.087 67.2241 137.847 67.3788 137.639C67.5388 137.426 67.7681 137.261 68.0668 137.143C68.3708 137.026 68.7281 136.967 69.1388 136.967C69.4428 136.967 69.7441 137.002 70.0428 137.071C70.3468 137.135 70.5975 137.226 70.7948 137.343L70.3788 138.231C70.0001 138.018 69.5868 137.911 69.1388 137.911C68.8721 137.911 68.6721 137.949 68.5388 138.023C68.4055 138.098 68.3388 138.194 68.3388 138.311C68.3388 138.445 68.4108 138.538 68.5548 138.591C68.6988 138.645 68.9281 138.695 69.2428 138.743C69.5948 138.802 69.8828 138.866 70.1068 138.935C70.3308 138.999 70.5255 139.119 70.6908 139.295C70.8561 139.471 70.9388 139.717 70.9388 140.031C70.9388 140.298 70.8588 140.535 70.6988 140.743C70.5388 140.951 70.3041 141.114 69.9948 141.231C69.6908 141.343 69.3281 141.399 68.9068 141.399ZM76.5184 136.967C76.9184 136.967 77.2811 137.061 77.6064 137.247C77.9371 137.429 78.1958 137.687 78.3824 138.023C78.5691 138.354 78.6624 138.741 78.6624 139.183C78.6624 139.626 78.5691 140.015 78.3824 140.351C78.1958 140.682 77.9371 140.941 77.6064 141.127C77.2811 141.309 76.9184 141.399 76.5184 141.399C75.9264 141.399 75.4758 141.213 75.1664 140.839V141.335H73.9744V135.399H75.2224V137.487C75.5371 137.141 75.9691 136.967 76.5184 136.967ZM76.3024 140.375C76.6224 140.375 76.8838 140.269 77.0864 140.055C77.2944 139.837 77.3984 139.546 77.3984 139.183C77.3984 138.821 77.2944 138.533 77.0864 138.319C76.8838 138.101 76.6224 137.991 76.3024 137.991C75.9824 137.991 75.7184 138.101 75.5104 138.319C75.3078 138.533 75.2064 138.821 75.2064 139.183C75.2064 139.546 75.3078 139.837 75.5104 140.055C75.7184 140.269 75.9824 140.375 76.3024 140.375ZM80.6899 137.599C80.8392 137.391 81.0392 137.234 81.2899 137.127C81.5459 137.021 81.8392 136.967 82.1699 136.967V138.119C82.0312 138.109 81.9379 138.103 81.8899 138.103C81.5325 138.103 81.2525 138.205 81.0499 138.407C80.8472 138.605 80.7459 138.903 80.7459 139.303V141.335H79.4979V137.031H80.6899V137.599ZM84.6245 136.967C85.2912 136.967 85.8032 137.127 86.1605 137.447C86.5178 137.762 86.6965 138.239 86.6965 138.879V141.335H85.5285V140.799C85.2938 141.199 84.8565 141.399 84.2165 141.399C83.8858 141.399 83.5978 141.343 83.3525 141.231C83.1125 141.119 82.9285 140.965 82.8005 140.767C82.6725 140.57 82.6085 140.346 82.6085 140.095C82.6085 139.695 82.7578 139.381 83.0565 139.151C83.3605 138.922 83.8272 138.807 84.4565 138.807H85.4485C85.4485 138.535 85.3658 138.327 85.2005 138.183C85.0352 138.034 84.7872 137.959 84.4565 137.959C84.2272 137.959 84.0005 137.997 83.7765 138.071C83.5578 138.141 83.3712 138.237 83.2165 138.359L82.7685 137.487C83.0032 137.322 83.2832 137.194 83.6085 137.103C83.9392 137.013 84.2778 136.967 84.6245 136.967ZM84.5285 140.559C84.7418 140.559 84.9312 140.511 85.0965 140.415C85.2618 140.314 85.3792 140.167 85.4485 139.975V139.535H84.5925C84.0805 139.535 83.8245 139.703 83.8245 140.039C83.8245 140.199 83.8858 140.327 84.0085 140.423C84.1365 140.514 84.3098 140.559 84.5285 140.559ZM91.37 140.375V141.335H87.53V140.583L89.722 137.991H87.586V137.031H91.298V137.783L89.106 140.375H91.37ZM94.1631 141.399C93.7097 141.399 93.3017 141.306 92.9391 141.119C92.5817 140.927 92.3017 140.663 92.0991 140.327C91.8964 139.991 91.7951 139.61 91.7951 139.183C91.7951 138.757 91.8964 138.375 92.0991 138.039C92.3017 137.703 92.5817 137.442 92.9391 137.255C93.3017 137.063 93.7097 136.967 94.1631 136.967C94.6164 136.967 95.0217 137.063 95.3791 137.255C95.7364 137.442 96.0164 137.703 96.2191 138.039C96.4217 138.375 96.5231 138.757 96.5231 139.183C96.5231 139.61 96.4217 139.991 96.2191 140.327C96.0164 140.663 95.7364 140.927 95.3791 141.119C95.0217 141.306 94.6164 141.399 94.1631 141.399ZM94.1631 140.375C94.4831 140.375 94.7444 140.269 94.9471 140.055C95.1551 139.837 95.2591 139.546 95.2591 139.183C95.2591 138.821 95.1551 138.533 94.9471 138.319C94.7444 138.101 94.4831 137.991 94.1631 137.991C93.8431 137.991 93.5791 138.101 93.3711 138.319C93.1631 138.533 93.0591 138.821 93.0591 139.183C93.0591 139.546 93.1631 139.837 93.3711 140.055C93.5791 140.269 93.8431 140.375 94.1631 140.375ZM98.8053 141.399C98.4479 141.399 98.0986 141.357 97.7573 141.271C97.4159 141.181 97.1439 141.069 96.9413 140.935L97.3573 140.039C97.5493 140.162 97.7813 140.263 98.0533 140.343C98.3253 140.418 98.5919 140.455 98.8533 140.455C99.3813 140.455 99.6453 140.325 99.6453 140.063C99.6453 139.941 99.5733 139.853 99.4293 139.799C99.2853 139.746 99.0639 139.701 98.7653 139.663C98.4133 139.61 98.1226 139.549 97.8933 139.479C97.6639 139.41 97.4639 139.287 97.2933 139.111C97.1279 138.935 97.0452 138.685 97.0452 138.359C97.0452 138.087 97.1226 137.847 97.2773 137.639C97.4373 137.426 97.6666 137.261 97.9653 137.143C98.2693 137.026 98.6266 136.967 99.0373 136.967C99.3413 136.967 99.6426 137.002 99.9413 137.071C100.245 137.135 100.496 137.226 100.693 137.343L100.277 138.231C99.8986 138.018 99.4853 137.911 99.0373 137.911C98.7706 137.911 98.5706 137.949 98.4373 138.023C98.3039 138.098 98.2373 138.194 98.2373 138.311C98.2373 138.445 98.3093 138.538 98.4533 138.591C98.5973 138.645 98.8266 138.695 99.1413 138.743C99.4933 138.802 99.7813 138.866 100.005 138.935C100.229 138.999 100.424 139.119 100.589 139.295C100.755 139.471 100.837 139.717 100.837 140.031C100.837 140.298 100.757 140.535 100.597 140.743C100.437 140.951 100.203 141.114 99.8933 141.231C99.5893 141.343 99.2266 141.399 98.8053 141.399Z" fill="#333333"/>
</g>
<g id="Dibujar_6">
<g id="&#195;&#129;tomo_IDE_Bloque3_6">
<g id="&#195;&#129;tomo_IDE_Bloque1_6">
<g id="2_6">
<path id="Vector_19" fill-rule="evenodd" clip-rule="evenodd" d="M168.801 158.647C168.801 155.822 167.701 153.113 165.742 151.116C163.783 149.119 161.127 147.997 158.357 147.997C132.678 147.997 76.8921 148 76.8921 148L72.2991 152.25H56.4223L51.8261 148H37.2042C34.4342 148 31.7777 149.122 29.8191 151.119C27.8604 153.116 26.76 155.825 26.76 158.65C26.76 158.653 26.76 158.656 26.76 158.659C26.76 161.483 27.8604 164.192 29.8191 166.189C31.7777 168.186 34.4342 169.309 37.2042 169.309C44.0833 169.309 51.8261 169.309 51.8261 169.309L56.4223 173.559H72.2959L76.8921 169.309L158.357 169.306C161.127 169.306 163.783 168.184 165.742 166.186C167.701 164.189 168.801 161.48 168.801 158.656C168.801 158.653 168.801 158.65 168.801 158.647Z" fill="#30DCFF"/>
<path id="Vector_20" fill-rule="evenodd" clip-rule="evenodd" d="M168.801 158.65C168.801 155.826 167.701 153.117 165.742 151.12C163.783 149.122 161.127 148 158.357 148C132.678 148 76.8921 148 76.8921 148L72.2991 152.251H56.4223L51.8261 148H37.2042C34.4342 148 31.7777 149.122 29.8191 151.12C27.8604 153.117 26.76 155.826 26.76 158.65C26.76 158.653 26.76 158.655 26.76 158.655H29.2666C29.2666 154.049 32.9282 150.316 37.4449 150.316C43.5352 150.316 50.8003 150.316 50.8003 150.316L55.3965 154.566H73.3405L77.9367 150.316H158.117C162.633 150.316 166.295 154.049 166.295 158.655L168.801 158.655V158.65Z" fill="#93EDFF"/>
<path id="Vector_21" fill-rule="evenodd" clip-rule="evenodd" d="M168.801 158.652H166.294V158.653C166.294 160.863 165.433 162.984 163.9 164.547C162.367 166.11 160.288 166.988 158.12 166.988C134.444 166.988 75.8539 166.988 75.8539 166.988L71.2577 171.239H57.4606L52.8644 166.988H37.4416C32.9267 166.988 29.2666 163.256 29.2666 158.653V158.652H26.76V158.657C26.76 161.481 27.8604 164.19 29.8191 166.187C31.7777 168.184 34.4342 169.306 37.2042 169.306C44.0833 169.306 51.8261 169.306 51.8261 169.306L56.4223 173.557H72.2959L76.8921 169.306H158.357C164.125 169.306 168.801 164.539 168.801 158.657C168.801 158.654 168.801 158.652 168.801 158.652Z" fill="#08A0BF"/>
</g>
</g>
</g>
<path id="Caer" d="M38.344 162.431C37.7733 162.431 37.256 162.309 36.792 162.063C36.3333 161.813 35.9707 161.469 35.704 161.031C35.4427 160.589 35.312 160.09 35.312 159.535C35.312 158.981 35.4427 158.485 35.704 158.047C35.9707 157.605 36.3333 157.261 36.792 157.015C37.256 156.765 37.776 156.639 38.352 156.639C38.8373 156.639 39.2747 156.725 39.664 156.895C40.0587 157.066 40.3893 157.311 40.656 157.631L39.824 158.399C39.4453 157.962 38.976 157.743 38.416 157.743C38.0693 157.743 37.76 157.821 37.488 157.975C37.216 158.125 37.0027 158.335 36.848 158.607C36.6987 158.879 36.624 159.189 36.624 159.535C36.624 159.882 36.6987 160.191 36.848 160.463C37.0027 160.735 37.216 160.949 37.488 161.103C37.76 161.253 38.0693 161.327 38.416 161.327C38.976 161.327 39.4453 161.106 39.824 160.663L40.656 161.431C40.3893 161.757 40.0587 162.005 39.664 162.175C39.2693 162.346 38.8293 162.431 38.344 162.431ZM43.1479 157.967C43.8146 157.967 44.3266 158.127 44.6839 158.447C45.0413 158.762 45.2199 159.239 45.2199 159.879V162.335H44.0519V161.799C43.8173 162.199 43.3799 162.399 42.7399 162.399C42.4093 162.399 42.1213 162.343 41.8759 162.231C41.6359 162.119 41.4519 161.965 41.3239 161.767C41.1959 161.57 41.1319 161.346 41.1319 161.095C41.1319 160.695 41.2813 160.381 41.5799 160.151C41.8839 159.922 42.3506 159.807 42.9799 159.807H43.9719C43.9719 159.535 43.8893 159.327 43.7239 159.183C43.5586 159.034 43.3106 158.959 42.9799 158.959C42.7506 158.959 42.5239 158.997 42.2999 159.071C42.0813 159.141 41.8946 159.237 41.7399 159.359L41.2919 158.487C41.5266 158.322 41.8066 158.194 42.1319 158.103C42.4626 158.013 42.8013 157.967 43.1479 157.967ZM43.0519 161.559C43.2653 161.559 43.4546 161.511 43.6199 161.415C43.7853 161.314 43.9026 161.167 43.9719 160.975V160.535H43.1159C42.6039 160.535 42.3479 160.703 42.3479 161.039C42.3479 161.199 42.4093 161.327 42.5319 161.423C42.6599 161.514 42.8333 161.559 43.0519 161.559ZM50.6123 160.199C50.6123 160.215 50.6043 160.327 50.5883 160.535H47.3323C47.391 160.802 47.5296 161.013 47.7483 161.167C47.967 161.322 48.239 161.399 48.5643 161.399C48.7883 161.399 48.9856 161.367 49.1563 161.303C49.3323 161.234 49.495 161.127 49.6443 160.983L50.3083 161.703C49.903 162.167 49.311 162.399 48.5323 162.399C48.047 162.399 47.6176 162.306 47.2443 162.119C46.871 161.927 46.583 161.663 46.3803 161.327C46.1776 160.991 46.0763 160.61 46.0763 160.183C46.0763 159.762 46.175 159.383 46.3723 159.047C46.575 158.706 46.8496 158.442 47.1963 158.255C47.5483 158.063 47.9403 157.967 48.3723 157.967C48.7936 157.967 49.175 158.058 49.5163 158.239C49.8576 158.421 50.1243 158.682 50.3163 159.023C50.5136 159.359 50.6123 159.751 50.6123 160.199ZM48.3803 158.911C48.0976 158.911 47.8603 158.991 47.6683 159.151C47.4763 159.311 47.359 159.53 47.3163 159.807H49.4363C49.3936 159.535 49.2763 159.319 49.0843 159.159C48.8923 158.994 48.6576 158.911 48.3803 158.911ZM52.6352 158.599C52.7845 158.391 52.9845 158.234 53.2352 158.127C53.4912 158.021 53.7845 157.967 54.1152 157.967V159.119C53.9765 159.109 53.8832 159.103 53.8352 159.103C53.4779 159.103 53.1979 159.205 52.9952 159.407C52.7925 159.605 52.6912 159.903 52.6912 160.303V162.335H51.4432V158.031H52.6352V158.599Z" fill="#333333"/>
</g>
</g>
<defs>
<filter id="filter0_d_3618:107737" x="0" y="0" width="180" height="184" filterUnits="userSpaceOnUse" color-interpolation-filters="sRGB">
<feFlood flood-opacity="0" result="BackgroundImageFix"/>
<feColorMatrix in="SourceAlpha" type="matrix" values="0 0 0 0 0 0 0 0 0 0 0 0 0 0 0 0 0 0 127 0" result="hardAlpha"/>
<feOffset dy="4"/>
<feColorMatrix type="matrix" values="0 0 0 0 0 0 0 0 0 0 0 0 0 0 0 0 0 0 0.25 0"/>
<feBlend mode="normal" in2="BackgroundImageFix" result="effect1_dropShadow_3618:107737"/>
<feBlend mode="normal" in="SourceGraphic" in2="effect1_dropShadow_3618:107737" result="shape"/>
</filter>
</defs>
</svg>
