<svg width="180" height="184" viewBox="0 0 180 184" fill="none" xmlns="http://www.w3.org/2000/svg">
<g id="Sorpresa">
<rect id="bg" width="180" height="180" rx="10"/>
<g id="Cuando">
<g id="&#195;&#129;tomo_IDE_Cabezote3">
<g id="&#195;&#129;tomo_IDE_Cabezote1">
<g id="1">
<path id="Vector" fill-rule="evenodd" clip-rule="evenodd" d="M169.22 62.3182C169.22 56.5922 164.531 51.9505 158.747 51.9505C140.439 51.9505 111.658 51.9505 98.5207 51.9505C95.8392 51.9504 93.2599 50.932 91.3143 49.1053C86.9544 45.0187 75.9488 38 51.8916 38C17.9749 38 10 51.9505 10 51.9505C10 51.9505 10.0002 58.7144 10.0003 64.9667C10.0004 70.6928 14.6893 75.3346 20.4732 75.3346C32.8812 75.3346 51.8913 75.3346 51.8913 75.3346L56.5001 79.4728H72.4206L77.0263 75.3346C77.0263 75.3346 132.997 75.3346 158.747 75.3346C161.525 75.3346 164.189 74.2422 166.153 72.2977C168.117 70.3532 169.22 67.7158 169.22 64.966C169.22 64.0867 169.22 63.1974 169.22 62.3182Z" fill="#FC79FF"/>
<path id="Vector_2" fill-rule="evenodd" clip-rule="evenodd" d="M169.22 63.4394H166.707V63.8785C166.707 66.2592 165.751 68.5423 164.051 70.2257C162.351 71.9091 160.044 72.8548 157.64 72.8548H75.9852L71.3794 76.9929H57.5413L52.9325 72.8548C52.9325 72.8548 33.4971 72.8548 21.5805 72.8548C19.1758 72.8548 16.8696 71.9091 15.1692 70.2257C13.4688 68.5423 12.5135 66.2592 12.5135 63.8785V63.4394H10V64.9827C10 67.7325 11.1034 70.3697 13.0675 72.3142C15.0315 74.2586 17.6953 75.3509 20.4729 75.3509C32.8811 75.3509 51.8913 75.3509 51.8913 75.3509L56.5001 79.489H72.4206L77.0263 75.3509H158.747C164.531 75.3509 169.22 70.7091 169.22 64.9829C169.22 64.0449 169.22 63.4394 169.22 63.4394Z" fill="#CD5ACF"/>
<path id="Vector_3" fill-rule="evenodd" clip-rule="evenodd" d="M10 63.4232H12.5135V53.1985C12.5135 53.1985 19.3642 40.496 51.8819 40.496C73.9643 40.496 85.0076 46.9654 89.6736 50.8874C91.9226 52.7793 94.7717 53.8281 97.7227 53.8506C111.426 53.9617 140.331 54.2455 157.64 54.3774C162.659 54.4156 166.707 58.4541 166.707 63.4224V63.4232H169.22V62.3187C169.22 56.5925 164.531 51.9505 158.747 51.9505C140.442 51.9505 111.671 51.9505 98.5276 51.9505C95.8436 51.9504 93.2621 50.9301 91.3159 49.1003C86.9616 45.013 75.967 38 51.8916 38C17.9356 38 10.0003 51.9505 10.0003 51.9505L10 63.4232Z" fill="#FDACFF"/>
</g>
</g>
</g>
<path id="Cuando: presionar bot&#195;&#179;n animar." d="M23.8191 65.951C23.2484 65.951 22.7311 65.8284 22.2671 65.583C21.8084 65.3324 21.4458 64.9884 21.1791 64.551C20.9178 64.1084 20.7871 63.6097 20.7871 63.055C20.7871 62.5004 20.9178 62.0044 21.1791 61.567C21.4458 61.1244 21.8084 60.7804 22.2671 60.535C22.7311 60.2844 23.2511 60.159 23.8271 60.159C24.3124 60.159 24.7498 60.2444 25.1391 60.415C25.5338 60.5857 25.8644 60.831 26.1311 61.151L25.2991 61.919C24.9204 61.4817 24.4511 61.263 23.8911 61.263C23.5444 61.263 23.2351 61.3404 22.9631 61.495C22.6911 61.6444 22.4778 61.855 22.3231 62.127C22.1738 62.399 22.0991 62.7084 22.0991 63.055C22.0991 63.4017 22.1738 63.711 22.3231 63.983C22.4778 64.255 22.6911 64.4684 22.9631 64.623C23.2351 64.7724 23.5444 64.847 23.8911 64.847C24.4511 64.847 24.9204 64.6257 25.2991 64.183L26.1311 64.951C25.8644 65.2764 25.5338 65.5244 25.1391 65.695C24.7444 65.8657 24.3044 65.951 23.8191 65.951ZM31.1449 61.551V65.855H29.9609V65.343C29.7956 65.5297 29.5982 65.6737 29.3689 65.775C29.1396 65.871 28.8916 65.919 28.6249 65.919C28.0596 65.919 27.6116 65.7564 27.2809 65.431C26.9502 65.1057 26.7849 64.623 26.7849 63.983V61.551H28.0329V63.799C28.0329 64.4924 28.3236 64.839 28.9049 64.839C29.2036 64.839 29.4436 64.743 29.6249 64.551C29.8062 64.3537 29.8969 64.063 29.8969 63.679V61.551H31.1449ZM34.0371 61.487C34.7038 61.487 35.2158 61.647 35.5731 61.967C35.9304 62.2817 36.1091 62.759 36.1091 63.399V65.855H34.9411V65.319C34.7064 65.719 34.2691 65.919 33.6291 65.919C33.2984 65.919 33.0104 65.863 32.7651 65.751C32.5251 65.639 32.3411 65.4844 32.2131 65.287C32.0851 65.0897 32.0211 64.8657 32.0211 64.615C32.0211 64.215 32.1704 63.9004 32.4691 63.671C32.7731 63.4417 33.2398 63.327 33.8691 63.327H34.8611C34.8611 63.055 34.7784 62.847 34.6131 62.703C34.4478 62.5537 34.1998 62.479 33.8691 62.479C33.6398 62.479 33.4131 62.5164 33.1891 62.591C32.9704 62.6604 32.7838 62.7564 32.6291 62.879L32.1811 62.007C32.4158 61.8417 32.6958 61.7137 33.0211 61.623C33.3518 61.5324 33.6904 61.487 34.0371 61.487ZM33.9411 65.079C34.1544 65.079 34.3438 65.031 34.5091 64.935C34.6744 64.8337 34.7918 64.687 34.8611 64.495V64.055H34.0051C33.4931 64.055 33.2371 64.223 33.2371 64.559C33.2371 64.719 33.2984 64.847 33.4211 64.943C33.5491 65.0337 33.7224 65.079 33.9411 65.079ZM39.8546 61.487C40.3879 61.487 40.8173 61.647 41.1426 61.967C41.4733 62.287 41.6386 62.7617 41.6386 63.391V65.855H40.3906V63.583C40.3906 63.2417 40.3159 62.9884 40.1666 62.823C40.0173 62.6524 39.8013 62.567 39.5186 62.567C39.2039 62.567 38.9533 62.6657 38.7666 62.863C38.5799 63.055 38.4866 63.343 38.4866 63.727V65.855H37.2386V61.551H38.4306V62.055C38.5959 61.8737 38.8013 61.735 39.0466 61.639C39.2919 61.5377 39.5613 61.487 39.8546 61.487ZM47.2007 59.919V65.855H46.0087V65.359C45.6994 65.7324 45.2514 65.919 44.6647 65.919C44.2594 65.919 43.8914 65.8284 43.5607 65.647C43.2354 65.4657 42.9794 65.207 42.7927 64.871C42.6061 64.535 42.5127 64.1457 42.5127 63.703C42.5127 63.2604 42.6061 62.871 42.7927 62.535C42.9794 62.199 43.2354 61.9404 43.5607 61.759C43.8914 61.5777 44.2594 61.487 44.6647 61.487C45.2141 61.487 45.6434 61.6604 45.9527 62.007V59.919H47.2007ZM44.8807 64.895C45.1954 64.895 45.4567 64.7884 45.6647 64.575C45.8727 64.3564 45.9767 64.0657 45.9767 63.703C45.9767 63.3404 45.8727 63.0524 45.6647 62.839C45.4567 62.6204 45.1954 62.511 44.8807 62.511C44.5607 62.511 44.2967 62.6204 44.0887 62.839C43.8807 63.0524 43.7767 63.3404 43.7767 63.703C43.7767 64.0657 43.8807 64.3564 44.0887 64.575C44.2967 64.7884 44.5607 64.895 44.8807 64.895ZM50.4038 65.919C49.9505 65.919 49.5425 65.8257 49.1798 65.639C48.8225 65.447 48.5425 65.183 48.3398 64.847C48.1371 64.511 48.0358 64.1297 48.0358 63.703C48.0358 63.2764 48.1371 62.895 48.3398 62.559C48.5425 62.223 48.8225 61.9617 49.1798 61.775C49.5425 61.583 49.9505 61.487 50.4038 61.487C50.8571 61.487 51.2625 61.583 51.6198 61.775C51.9771 61.9617 52.2571 62.223 52.4598 62.559C52.6625 62.895 52.7638 63.2764 52.7638 63.703C52.7638 64.1297 52.6625 64.511 52.4598 64.847C52.2571 65.183 51.9771 65.447 51.6198 65.639C51.2625 65.8257 50.8571 65.919 50.4038 65.919ZM50.4038 64.895C50.7238 64.895 50.9851 64.7884 51.1878 64.575C51.3958 64.3564 51.4998 64.0657 51.4998 63.703C51.4998 63.3404 51.3958 63.0524 51.1878 62.839C50.9851 62.6204 50.7238 62.511 50.4038 62.511C50.0838 62.511 49.8198 62.6204 49.6118 62.839C49.4038 63.0524 49.2998 63.3404 49.2998 63.703C49.2998 64.0657 49.4038 64.3564 49.6118 64.575C49.8198 64.7884 50.0838 64.895 50.4038 64.895ZM54.07 63.047C53.8513 63.047 53.6673 62.9724 53.518 62.823C53.3686 62.6737 53.294 62.487 53.294 62.263C53.294 62.0337 53.3686 61.8497 53.518 61.711C53.6673 61.567 53.8513 61.495 54.07 61.495C54.2886 61.495 54.4726 61.567 54.622 61.711C54.7713 61.8497 54.846 62.0337 54.846 62.263C54.846 62.487 54.7713 62.6737 54.622 62.823C54.4726 62.9724 54.2886 63.047 54.07 63.047ZM54.07 65.919C53.8513 65.919 53.6673 65.8444 53.518 65.695C53.3686 65.5457 53.294 65.359 53.294 65.135C53.294 64.9057 53.3686 64.7217 53.518 64.583C53.6673 64.439 53.8513 64.367 54.07 64.367C54.2886 64.367 54.4726 64.439 54.622 64.583C54.7713 64.7217 54.846 64.9057 54.846 65.135C54.846 65.359 54.7713 65.5457 54.622 65.695C54.4726 65.8444 54.2886 65.919 54.07 65.919ZM60.5013 61.487C60.9013 61.487 61.264 61.5804 61.5893 61.767C61.92 61.9484 62.1787 62.207 62.3653 62.543C62.552 62.8737 62.6453 63.2604 62.6453 63.703C62.6453 64.1457 62.552 64.535 62.3653 64.871C62.1787 65.2017 61.92 65.4604 61.5893 65.647C61.264 65.8284 60.9013 65.919 60.5013 65.919C59.952 65.919 59.52 65.7457 59.2053 65.399V67.407H57.9573V61.551H59.1493V62.047C59.4587 61.6737 59.9093 61.487 60.5013 61.487ZM60.2853 64.895C60.6053 64.895 60.8667 64.7884 61.0693 64.575C61.2773 64.3564 61.3813 64.0657 61.3813 63.703C61.3813 63.3404 61.2773 63.0524 61.0693 62.839C60.8667 62.6204 60.6053 62.511 60.2853 62.511C59.9653 62.511 59.7013 62.6204 59.4933 62.839C59.2907 63.0524 59.1893 63.3404 59.1893 63.703C59.1893 64.0657 59.2907 64.3564 59.4933 64.575C59.7013 64.7884 59.9653 64.895 60.2853 64.895ZM64.6728 62.119C64.8221 61.911 65.0221 61.7537 65.2728 61.647C65.5288 61.5404 65.8221 61.487 66.1528 61.487V62.639C66.0141 62.6284 65.9208 62.623 65.8728 62.623C65.5155 62.623 65.2355 62.7244 65.0328 62.927C64.8301 63.1244 64.7288 63.423 64.7288 63.823V65.855H63.4808V61.551H64.6728V62.119ZM71.0718 63.719C71.0718 63.735 71.0638 63.847 71.0478 64.055H67.7918C67.8505 64.3217 67.9891 64.5324 68.2078 64.687C68.4265 64.8417 68.6985 64.919 69.0238 64.919C69.2478 64.919 69.4451 64.887 69.6158 64.823C69.7918 64.7537 69.9545 64.647 70.1038 64.503L70.7678 65.223C70.3625 65.687 69.7705 65.919 68.9918 65.919C68.5065 65.919 68.0771 65.8257 67.7038 65.639C67.3305 65.447 67.0425 65.183 66.8398 64.847C66.6371 64.511 66.5358 64.1297 66.5358 63.703C66.5358 63.2817 66.6345 62.903 66.8318 62.567C67.0345 62.2257 67.3091 61.9617 67.6558 61.775C68.0078 61.583 68.3998 61.487 68.8318 61.487C69.2531 61.487 69.6345 61.5777 69.9758 61.759C70.3171 61.9404 70.5838 62.2017 70.7758 62.543C70.9731 62.879 71.0718 63.271 71.0718 63.719ZM68.8398 62.431C68.5571 62.431 68.3198 62.511 68.1278 62.671C67.9358 62.831 67.8185 63.0497 67.7758 63.327H69.8958C69.8531 63.055 69.7358 62.839 69.5438 62.679C69.3518 62.5137 69.1171 62.431 68.8398 62.431ZM73.3507 65.919C72.9933 65.919 72.644 65.8764 72.3027 65.791C71.9613 65.7004 71.6893 65.5884 71.4867 65.455L71.9027 64.559C72.0947 64.6817 72.3267 64.783 72.5987 64.863C72.8707 64.9377 73.1373 64.975 73.3987 64.975C73.9267 64.975 74.1907 64.8444 74.1907 64.583C74.1907 64.4604 74.1187 64.3724 73.9747 64.319C73.8307 64.2657 73.6093 64.2204 73.3107 64.183C72.9587 64.1297 72.668 64.0684 72.4387 63.999C72.2093 63.9297 72.0093 63.807 71.8387 63.631C71.6733 63.455 71.5907 63.2044 71.5907 62.879C71.5907 62.607 71.668 62.367 71.8227 62.159C71.9827 61.9457 72.212 61.7804 72.5107 61.663C72.8147 61.5457 73.172 61.487 73.5827 61.487C73.8867 61.487 74.188 61.5217 74.4867 61.591C74.7907 61.655 75.0413 61.7457 75.2387 61.863L74.8227 62.751C74.444 62.5377 74.0307 62.431 73.5827 62.431C73.316 62.431 73.116 62.4684 72.9827 62.543C72.8493 62.6177 72.7827 62.7137 72.7827 62.831C72.7827 62.9644 72.8547 63.0577 72.9987 63.111C73.1427 63.1644 73.372 63.215 73.6867 63.263C74.0387 63.3217 74.3267 63.3857 74.5507 63.455C74.7747 63.519 74.9693 63.639 75.1347 63.815C75.3 63.991 75.3827 64.2364 75.3827 64.551C75.3827 64.8177 75.3027 65.055 75.1427 65.263C74.9827 65.471 74.748 65.6337 74.4387 65.751C74.1347 65.863 73.772 65.919 73.3507 65.919ZM76.1527 61.551H77.4007V65.855H76.1527V61.551ZM76.7767 60.951C76.5473 60.951 76.3607 60.8844 76.2167 60.751C76.0727 60.6177 76.0007 60.4524 76.0007 60.255C76.0007 60.0577 76.0727 59.8924 76.2167 59.759C76.3607 59.6257 76.5473 59.559 76.7767 59.559C77.006 59.559 77.1927 59.623 77.3367 59.751C77.4807 59.879 77.5527 60.039 77.5527 60.231C77.5527 60.439 77.4807 60.6124 77.3367 60.751C77.1927 60.8844 77.006 60.951 76.7767 60.951ZM80.6069 65.919C80.1536 65.919 79.7456 65.8257 79.3829 65.639C79.0256 65.447 78.7456 65.183 78.5429 64.847C78.3402 64.511 78.2389 64.1297 78.2389 63.703C78.2389 63.2764 78.3402 62.895 78.5429 62.559C78.7456 62.223 79.0256 61.9617 79.3829 61.775C79.7456 61.583 80.1536 61.487 80.6069 61.487C81.0602 61.487 81.4656 61.583 81.8229 61.775C82.1802 61.9617 82.4602 62.223 82.6629 62.559C82.8656 62.895 82.9669 63.2764 82.9669 63.703C82.9669 64.1297 82.8656 64.511 82.6629 64.847C82.4602 65.183 82.1802 65.447 81.8229 65.639C81.4656 65.8257 81.0602 65.919 80.6069 65.919ZM80.6069 64.895C80.9269 64.895 81.1882 64.7884 81.3909 64.575C81.5989 64.3564 81.7029 64.0657 81.7029 63.703C81.7029 63.3404 81.5989 63.0524 81.3909 62.839C81.1882 62.6204 80.9269 62.511 80.6069 62.511C80.2869 62.511 80.0229 62.6204 79.8149 62.839C79.6069 63.0524 79.5029 63.3404 79.5029 63.703C79.5029 64.0657 79.6069 64.3564 79.8149 64.575C80.0229 64.7884 80.2869 64.895 80.6069 64.895ZM86.4171 61.487C86.9504 61.487 87.3798 61.647 87.7051 61.967C88.0358 62.287 88.2011 62.7617 88.2011 63.391V65.855H86.9531V63.583C86.9531 63.2417 86.8784 62.9884 86.7291 62.823C86.5798 62.6524 86.3638 62.567 86.0811 62.567C85.7664 62.567 85.5158 62.6657 85.3291 62.863C85.1424 63.055 85.0491 63.343 85.0491 63.727V65.855H83.8011V61.551H84.9931V62.055C85.1584 61.8737 85.3638 61.735 85.6091 61.639C85.8544 61.5377 86.1238 61.487 86.4171 61.487ZM91.0683 61.487C91.735 61.487 92.247 61.647 92.6043 61.967C92.9617 62.2817 93.1403 62.759 93.1403 63.399V65.855H91.9723V65.319C91.7377 65.719 91.3003 65.919 90.6603 65.919C90.3297 65.919 90.0417 65.863 89.7963 65.751C89.5563 65.639 89.3723 65.4844 89.2443 65.287C89.1163 65.0897 89.0523 64.8657 89.0523 64.615C89.0523 64.215 89.2017 63.9004 89.5003 63.671C89.8043 63.4417 90.271 63.327 90.9003 63.327H91.8923C91.8923 63.055 91.8097 62.847 91.6443 62.703C91.479 62.5537 91.231 62.479 90.9003 62.479C90.671 62.479 90.4443 62.5164 90.2203 62.591C90.0017 62.6604 89.815 62.7564 89.6603 62.879L89.2123 62.007C89.447 61.8417 89.727 61.7137 90.0523 61.623C90.383 61.5324 90.7217 61.487 91.0683 61.487ZM90.9723 65.079C91.1857 65.079 91.375 65.031 91.5403 64.935C91.7057 64.8337 91.823 64.687 91.8923 64.495V64.055H91.0363C90.5243 64.055 90.2683 64.223 90.2683 64.559C90.2683 64.719 90.3297 64.847 90.4523 64.943C90.5803 65.0337 90.7537 65.079 90.9723 65.079ZM95.4618 62.119C95.6112 61.911 95.8112 61.7537 96.0618 61.647C96.3178 61.5404 96.6112 61.487 96.9418 61.487V62.639C96.8032 62.6284 96.7098 62.623 96.6618 62.623C96.3045 62.623 96.0245 62.7244 95.8218 62.927C95.6192 63.1244 95.5178 63.423 95.5178 63.823V65.855H94.2698V61.551H95.4618V62.119ZM102.525 61.487C102.925 61.487 103.287 61.5804 103.613 61.767C103.943 61.9484 104.202 62.207 104.389 62.543C104.575 62.8737 104.669 63.2604 104.669 63.703C104.669 64.1457 104.575 64.535 104.389 64.871C104.202 65.2017 103.943 65.4604 103.613 65.647C103.287 65.8284 102.925 65.919 102.525 65.919C101.933 65.919 101.482 65.7324 101.173 65.359V65.855H99.9808V59.919H101.229V62.007C101.543 61.6604 101.975 61.487 102.525 61.487ZM102.309 64.895C102.629 64.895 102.89 64.7884 103.093 64.575C103.301 64.3564 103.405 64.0657 103.405 63.703C103.405 63.3404 103.301 63.0524 103.093 62.839C102.89 62.6204 102.629 62.511 102.309 62.511C101.989 62.511 101.725 62.6204 101.517 62.839C101.314 63.0524 101.213 63.3404 101.213 63.703C101.213 64.0657 101.314 64.3564 101.517 64.575C101.725 64.7884 101.989 64.895 102.309 64.895ZM107.552 65.919C107.099 65.919 106.691 65.8257 106.328 65.639C105.971 65.447 105.691 65.183 105.488 64.847C105.286 64.511 105.184 64.1297 105.184 63.703C105.184 63.2764 105.286 62.895 105.488 62.559C105.691 62.223 105.971 61.9617 106.328 61.775C106.691 61.583 107.099 61.487 107.552 61.487C108.006 61.487 108.411 61.583 108.768 61.775C109.126 61.9617 109.406 62.223 109.608 62.559C109.811 62.895 109.912 63.2764 109.912 63.703C109.912 64.1297 109.811 64.511 109.608 64.847C109.406 65.183 109.126 65.447 108.768 65.639C108.411 65.8257 108.006 65.919 107.552 65.919ZM107.552 64.895C107.872 64.895 108.134 64.7884 108.336 64.575C108.544 64.3564 108.648 64.0657 108.648 63.703C108.648 63.3404 108.544 63.0524 108.336 62.839C108.134 62.6204 107.872 62.511 107.552 62.511C107.232 62.511 106.968 62.6204 106.76 62.839C106.552 63.0524 106.448 63.3404 106.448 63.703C106.448 64.0657 106.552 64.3564 106.76 64.575C106.968 64.7884 107.232 64.895 107.552 64.895ZM113.522 65.647C113.4 65.7377 113.248 65.807 113.066 65.855C112.89 65.8977 112.704 65.919 112.506 65.919C111.994 65.919 111.597 65.7884 111.314 65.527C111.037 65.2657 110.898 64.8817 110.898 64.375V62.607H110.234V61.647H110.898V60.599H112.146V61.647H113.218V62.607H112.146V64.359C112.146 64.5404 112.192 64.6817 112.282 64.783C112.378 64.879 112.512 64.927 112.682 64.927C112.88 64.927 113.048 64.8737 113.186 64.767L113.522 65.647ZM116.138 65.919C115.685 65.919 115.277 65.8257 114.914 65.639C114.557 65.447 114.277 65.183 114.074 64.847C113.871 64.511 113.77 64.1297 113.77 63.703C113.77 63.2764 113.871 62.895 114.074 62.559C114.277 62.223 114.557 61.9617 114.914 61.775C115.277 61.583 115.685 61.487 116.138 61.487C116.591 61.487 116.997 61.583 117.354 61.775C117.711 61.9617 117.991 62.223 118.194 62.559C118.397 62.895 118.498 63.2764 118.498 63.703C118.498 64.1297 118.397 64.511 118.194 64.847C117.991 65.183 117.711 65.447 117.354 65.639C116.997 65.8257 116.591 65.919 116.138 65.919ZM116.138 64.895C116.458 64.895 116.719 64.7884 116.922 64.575C117.13 64.3564 117.234 64.0657 117.234 63.703C117.234 63.3404 117.13 63.0524 116.922 62.839C116.719 62.6204 116.458 62.511 116.138 62.511C115.818 62.511 115.554 62.6204 115.346 62.839C115.138 63.0524 115.034 63.3404 115.034 63.703C115.034 64.0657 115.138 64.3564 115.346 64.575C115.554 64.7884 115.818 64.895 116.138 64.895ZM116.474 59.847H117.818L116.37 60.999H115.394L116.474 59.847ZM121.948 61.487C122.482 61.487 122.911 61.647 123.236 61.967C123.567 62.287 123.732 62.7617 123.732 63.391V65.855H122.484V63.583C122.484 63.2417 122.41 62.9884 122.26 62.823C122.111 62.6524 121.895 62.567 121.612 62.567C121.298 62.567 121.047 62.6657 120.86 62.863C120.674 63.055 120.58 63.343 120.58 63.727V65.855H119.332V61.551H120.524V62.055C120.69 61.8737 120.895 61.735 121.14 61.639C121.386 61.5377 121.655 61.487 121.948 61.487ZM128.865 61.487C129.532 61.487 130.044 61.647 130.401 61.967C130.759 62.2817 130.937 62.759 130.937 63.399V65.855H129.769V65.319C129.535 65.719 129.097 65.919 128.457 65.919C128.127 65.919 127.839 65.863 127.593 65.751C127.353 65.639 127.169 65.4844 127.041 65.287C126.913 65.0897 126.849 64.8657 126.849 64.615C126.849 64.215 126.999 63.9004 127.297 63.671C127.601 63.4417 128.068 63.327 128.697 63.327H129.689C129.689 63.055 129.607 62.847 129.441 62.703C129.276 62.5537 129.028 62.479 128.697 62.479C128.468 62.479 128.241 62.5164 128.017 62.591C127.799 62.6604 127.612 62.7564 127.457 62.879L127.009 62.007C127.244 61.8417 127.524 61.7137 127.849 61.623C128.18 61.5324 128.519 61.487 128.865 61.487ZM128.769 65.079C128.983 65.079 129.172 65.031 129.337 64.935C129.503 64.8337 129.62 64.687 129.689 64.495V64.055H128.833C128.321 64.055 128.065 64.223 128.065 64.559C128.065 64.719 128.127 64.847 128.249 64.943C128.377 65.0337 128.551 65.079 128.769 65.079ZM134.683 61.487C135.216 61.487 135.645 61.647 135.971 61.967C136.301 62.287 136.467 62.7617 136.467 63.391V65.855H135.219V63.583C135.219 63.2417 135.144 62.9884 134.995 62.823C134.845 62.6524 134.629 62.567 134.347 62.567C134.032 62.567 133.781 62.6657 133.595 62.863C133.408 63.055 133.315 63.343 133.315 63.727V65.855H132.067V61.551H133.259V62.055C133.424 61.8737 133.629 61.735 133.875 61.639C134.12 61.5377 134.389 61.487 134.683 61.487ZM137.598 61.551H138.846V65.855H137.598V61.551ZM138.222 60.951C137.993 60.951 137.806 60.8844 137.662 60.751C137.518 60.6177 137.446 60.4524 137.446 60.255C137.446 60.0577 137.518 59.8924 137.662 59.759C137.806 59.6257 137.993 59.559 138.222 59.559C138.451 59.559 138.638 59.623 138.782 59.751C138.926 59.879 138.998 60.039 138.998 60.231C138.998 60.439 138.926 60.6124 138.782 60.751C138.638 60.8844 138.451 60.951 138.222 60.951ZM145.516 61.487C146.055 61.487 146.482 61.647 146.796 61.967C147.116 62.2817 147.276 62.7564 147.276 63.391V65.855H146.028V63.583C146.028 63.2417 145.956 62.9884 145.812 62.823C145.674 62.6524 145.474 62.567 145.212 62.567C144.919 62.567 144.687 62.663 144.516 62.855C144.346 63.0417 144.26 63.3217 144.26 63.695V65.855H143.012V63.583C143.012 62.9057 142.74 62.567 142.196 62.567C141.908 62.567 141.679 62.663 141.508 62.855C141.338 63.0417 141.252 63.3217 141.252 63.695V65.855H140.004V61.551H141.196V62.047C141.356 61.8657 141.551 61.727 141.78 61.631C142.015 61.535 142.271 61.487 142.548 61.487C142.852 61.487 143.127 61.5484 143.372 61.671C143.618 61.7884 143.815 61.9617 143.964 62.191C144.14 61.967 144.362 61.7937 144.628 61.671C144.9 61.5484 145.196 61.487 145.516 61.487ZM150.131 61.487C150.798 61.487 151.31 61.647 151.667 61.967C152.024 62.2817 152.203 62.759 152.203 63.399V65.855H151.035V65.319C150.8 65.719 150.363 65.919 149.723 65.919C149.392 65.919 149.104 65.863 148.859 65.751C148.619 65.639 148.435 65.4844 148.307 65.287C148.179 65.0897 148.115 64.8657 148.115 64.615C148.115 64.215 148.264 63.9004 148.563 63.671C148.867 63.4417 149.334 63.327 149.963 63.327H150.955C150.955 63.055 150.872 62.847 150.707 62.703C150.542 62.5537 150.294 62.479 149.963 62.479C149.734 62.479 149.507 62.5164 149.283 62.591C149.064 62.6604 148.878 62.7564 148.723 62.879L148.275 62.007C148.51 61.8417 148.79 61.7137 149.115 61.623C149.446 61.5324 149.784 61.487 150.131 61.487ZM150.035 65.079C150.248 65.079 150.438 65.031 150.603 64.935C150.768 64.8337 150.886 64.687 150.955 64.495V64.055H150.099C149.587 64.055 149.331 64.223 149.331 64.559C149.331 64.719 149.392 64.847 149.515 64.943C149.643 65.0337 149.816 65.079 150.035 65.079ZM154.524 62.119C154.674 61.911 154.874 61.7537 155.124 61.647C155.38 61.5404 155.674 61.487 156.004 61.487V62.639C155.866 62.6284 155.772 62.623 155.724 62.623C155.367 62.623 155.087 62.7244 154.884 62.927C154.682 63.1244 154.58 63.423 154.58 63.823V65.855H153.332V61.551H154.524V62.119ZM157.172 65.919C156.953 65.919 156.769 65.8444 156.62 65.695C156.47 65.5457 156.396 65.359 156.396 65.135C156.396 64.9057 156.47 64.7217 156.62 64.583C156.769 64.439 156.953 64.367 157.172 64.367C157.39 64.367 157.574 64.439 157.724 64.583C157.873 64.7217 157.948 64.9057 157.948 65.135C157.948 65.359 157.873 65.5457 157.724 65.695C157.574 65.8444 157.39 65.919 157.172 65.919Z" fill="#333333"/>
</g>
<g id="Dibujar">
<g id="&#195;&#129;tomo_IDE_Bloque3">
<g id="&#195;&#129;tomo_IDE_Bloque1">
<g id="2">
<path id="Vector_4" fill-rule="evenodd" clip-rule="evenodd" d="M168.801 85.6466C168.801 82.8221 167.701 80.1134 165.742 78.1162C163.783 76.119 161.127 74.997 158.357 74.997C132.678 74.997 76.8921 74.9999 76.8921 74.9999L72.2991 79.2503H56.4223L51.8261 74.9999H37.2042C34.4342 74.9999 31.7777 76.122 29.8191 78.1191C27.8604 80.1163 26.76 82.8251 26.76 85.6496C26.76 85.6526 26.76 85.6558 26.76 85.659C26.76 88.4834 27.8604 91.1921 29.8191 93.1893C31.7777 95.1865 34.4342 96.3085 37.2042 96.3085C44.0833 96.3085 51.8261 96.3085 51.8261 96.3085L56.4223 100.559H72.2959L76.8921 96.3085L158.357 96.3056C161.127 96.3056 163.783 95.1836 165.742 93.1864C167.701 91.1892 168.801 88.4805 168.801 85.656C168.801 85.6528 168.801 85.6496 168.801 85.6466Z" fill="#30DCFF"/>
<path id="Vector_5" fill-rule="evenodd" clip-rule="evenodd" d="M168.801 85.65C168.801 82.8255 167.701 80.1168 165.742 78.1196C163.783 76.1224 161.127 75.0004 158.357 75.0004C132.678 75.0004 76.8921 75.0004 76.8921 75.0004L72.2991 79.2508H56.4223L51.8261 75.0004H37.2042C34.4342 75.0004 31.7777 76.1224 29.8191 78.1196C27.8604 80.1168 26.76 82.8255 26.76 85.65C26.76 85.6531 26.76 85.6547 26.76 85.6547H29.2666C29.2666 81.0492 32.9282 77.3155 37.4449 77.3155C43.5352 77.3155 50.8003 77.3155 50.8003 77.3155L55.3965 81.5659H73.3405L77.9367 77.3155H158.117C162.633 77.3155 166.295 81.0491 166.295 85.6546L168.801 85.6547V85.65Z" fill="#93EDFF"/>
<path id="Vector_6" fill-rule="evenodd" clip-rule="evenodd" d="M168.801 85.652H166.294V85.6526C166.294 87.8633 165.433 89.9836 163.9 91.5468C162.367 93.1101 160.288 93.9883 158.12 93.9883C134.444 93.9883 75.8539 93.9883 75.8539 93.9883L71.2577 98.2387H57.4606L52.8644 93.9883H37.4416C32.9267 93.9883 29.2666 90.2563 29.2666 85.6526V85.652H26.76V85.6567C26.76 88.4812 27.8604 91.1899 29.8191 93.1871C31.7777 95.1843 34.4342 96.3063 37.2042 96.3063C44.0833 96.3063 51.8261 96.3063 51.8261 96.3063L56.4223 100.557H72.2959L76.8921 96.3063H158.357C164.125 96.3063 168.801 91.5385 168.801 85.657C168.801 85.6536 168.801 85.652 168.801 85.652Z" fill="#08A0BF"/>
</g>
</g>
</g>
<path id="Abrir los ojos" d="M39.352 88.1352H36.752L36.256 89.3352H34.928L37.424 83.7352H38.704L41.208 89.3352H39.848L39.352 88.1352ZM38.944 87.1512L38.056 85.0072L37.168 87.1512H38.944ZM44.245 84.9672C44.645 84.9672 45.0077 85.0605 45.333 85.2472C45.6637 85.4285 45.9223 85.6872 46.109 86.0232C46.2957 86.3539 46.389 86.7405 46.389 87.1832C46.389 87.6259 46.2957 88.0152 46.109 88.3512C45.9223 88.6819 45.6637 88.9405 45.333 89.1272C45.0077 89.3085 44.645 89.3992 44.245 89.3992C43.653 89.3992 43.2023 89.2125 42.893 88.8392V89.3352H41.701V83.3992H42.949V85.4872C43.2637 85.1405 43.6957 84.9672 44.245 84.9672ZM44.029 88.3752C44.349 88.3752 44.6103 88.2685 44.813 88.0552C45.021 87.8365 45.125 87.5459 45.125 87.1832C45.125 86.8205 45.021 86.5325 44.813 86.3192C44.6103 86.1005 44.349 85.9912 44.029 85.9912C43.709 85.9912 43.445 86.1005 43.237 86.3192C43.0343 86.5325 42.933 86.8205 42.933 87.1832C42.933 87.5459 43.0343 87.8365 43.237 88.0552C43.445 88.2685 43.709 88.3752 44.029 88.3752ZM48.4164 85.5992C48.5658 85.3912 48.7658 85.2339 49.0164 85.1272C49.2724 85.0205 49.5658 84.9672 49.8964 84.9672V86.1192C49.7578 86.1085 49.6644 86.1032 49.6164 86.1032C49.2591 86.1032 48.9791 86.2045 48.7764 86.4072C48.5738 86.6045 48.4724 86.9032 48.4724 87.3032V89.3352H47.2244V85.0312H48.4164V85.5992ZM50.6385 85.0312H51.8865V89.3352H50.6385V85.0312ZM51.2625 84.4312C51.0332 84.4312 50.8465 84.3645 50.7025 84.2312C50.5585 84.0979 50.4865 83.9325 50.4865 83.7352C50.4865 83.5379 50.5585 83.3725 50.7025 83.2392C50.8465 83.1059 51.0332 83.0392 51.2625 83.0392C51.4918 83.0392 51.6785 83.1032 51.8225 83.2312C51.9665 83.3592 52.0385 83.5192 52.0385 83.7112C52.0385 83.9192 51.9665 84.0925 51.8225 84.2312C51.6785 84.3645 51.4918 84.4312 51.2625 84.4312ZM54.2368 85.5992C54.3861 85.3912 54.5861 85.2339 54.8368 85.1272C55.0928 85.0205 55.3861 84.9672 55.7168 84.9672V86.1192C55.5781 86.1085 55.4848 86.1032 55.4368 86.1032C55.0794 86.1032 54.7994 86.2045 54.5968 86.4072C54.3941 86.6045 54.2928 86.9032 54.2928 87.3032V89.3352H53.0448V85.0312H54.2368V85.5992ZM58.7557 83.3992H60.0037V89.3352H58.7557V83.3992ZM63.2099 89.3992C62.7566 89.3992 62.3486 89.3059 61.9859 89.1192C61.6286 88.9272 61.3486 88.6632 61.1459 88.3272C60.9433 87.9912 60.8419 87.6099 60.8419 87.1832C60.8419 86.7565 60.9433 86.3752 61.1459 86.0392C61.3486 85.7032 61.6286 85.4419 61.9859 85.2552C62.3486 85.0632 62.7566 84.9672 63.2099 84.9672C63.6633 84.9672 64.0686 85.0632 64.4259 85.2552C64.7833 85.4419 65.0633 85.7032 65.2659 86.0392C65.4686 86.3752 65.5699 86.7565 65.5699 87.1832C65.5699 87.6099 65.4686 87.9912 65.2659 88.3272C65.0633 88.6632 64.7833 88.9272 64.4259 89.1192C64.0686 89.3059 63.6633 89.3992 63.2099 89.3992ZM63.2099 88.3752C63.5299 88.3752 63.7913 88.2685 63.9939 88.0552C64.2019 87.8365 64.3059 87.5459 64.3059 87.1832C64.3059 86.8205 64.2019 86.5325 63.9939 86.3192C63.7913 86.1005 63.5299 85.9912 63.2099 85.9912C62.8899 85.9912 62.6259 86.1005 62.4179 86.3192C62.2099 86.5325 62.1059 86.8205 62.1059 87.1832C62.1059 87.5459 62.2099 87.8365 62.4179 88.0552C62.6259 88.2685 62.8899 88.3752 63.2099 88.3752ZM67.8521 89.3992C67.4948 89.3992 67.1455 89.3565 66.8041 89.2712C66.4628 89.1805 66.1908 89.0685 65.9881 88.9352L66.4041 88.0392C66.5961 88.1619 66.8281 88.2632 67.1001 88.3432C67.3721 88.4179 67.6388 88.4552 67.9001 88.4552C68.4281 88.4552 68.6921 88.3245 68.6921 88.0632C68.6921 87.9405 68.6201 87.8525 68.4761 87.7992C68.3321 87.7459 68.1108 87.7005 67.8121 87.6632C67.4601 87.6099 67.1695 87.5485 66.9401 87.4792C66.7108 87.4099 66.5108 87.2872 66.3401 87.1112C66.1748 86.9352 66.0921 86.6845 66.0921 86.3592C66.0921 86.0872 66.1695 85.8472 66.3241 85.6392C66.4841 85.4259 66.7135 85.2605 67.0121 85.1432C67.3161 85.0259 67.6735 84.9672 68.0841 84.9672C68.3881 84.9672 68.6895 85.0019 68.9881 85.0712C69.2921 85.1352 69.5428 85.2259 69.7401 85.3432L69.3241 86.2312C68.9455 86.0179 68.5321 85.9112 68.0841 85.9112C67.8175 85.9112 67.6175 85.9485 67.4841 86.0232C67.3508 86.0979 67.2841 86.1939 67.2841 86.3112C67.2841 86.4445 67.3561 86.5379 67.5001 86.5912C67.6441 86.6445 67.8735 86.6952 68.1881 86.7432C68.5401 86.8019 68.8281 86.8659 69.0521 86.9352C69.2761 86.9992 69.4708 87.1192 69.6361 87.2952C69.8015 87.4712 69.8841 87.7165 69.8841 88.0312C69.8841 88.2979 69.8041 88.5352 69.6441 88.7432C69.4841 88.9512 69.2495 89.1139 68.9401 89.2312C68.6361 89.3432 68.2735 89.3992 67.8521 89.3992ZM74.9678 89.3992C74.5144 89.3992 74.1064 89.3059 73.7438 89.1192C73.3864 88.9272 73.1064 88.6632 72.9038 88.3272C72.7011 87.9912 72.5998 87.6099 72.5998 87.1832C72.5998 86.7565 72.7011 86.3752 72.9038 86.0392C73.1064 85.7032 73.3864 85.4419 73.7438 85.2552C74.1064 85.0632 74.5144 84.9672 74.9678 84.9672C75.4211 84.9672 75.8264 85.0632 76.1838 85.2552C76.5411 85.4419 76.8211 85.7032 77.0238 86.0392C77.2264 86.3752 77.3278 86.7565 77.3278 87.1832C77.3278 87.6099 77.2264 87.9912 77.0238 88.3272C76.8211 88.6632 76.5411 88.9272 76.1838 89.1192C75.8264 89.3059 75.4211 89.3992 74.9678 89.3992ZM74.9678 88.3752C75.2878 88.3752 75.5491 88.2685 75.7518 88.0552C75.9598 87.8365 76.0638 87.5459 76.0638 87.1832C76.0638 86.8205 75.9598 86.5325 75.7518 86.3192C75.5491 86.1005 75.2878 85.9912 74.9678 85.9912C74.6478 85.9912 74.3838 86.1005 74.1758 86.3192C73.9678 86.5325 73.8638 86.8205 73.8638 87.1832C73.8638 87.5459 73.9678 87.8365 74.1758 88.0552C74.3838 88.2685 74.6478 88.3752 74.9678 88.3752ZM77.8419 90.9512C77.4046 90.9512 77.0713 90.8712 76.8419 90.7112L77.1779 89.8072C77.3219 89.9085 77.4979 89.9592 77.7059 89.9592C77.8659 89.9592 77.9913 89.9059 78.0819 89.7992C78.1726 89.6979 78.2179 89.5432 78.2179 89.3352V85.0312H79.4659V89.3272C79.4659 89.8285 79.3219 90.2232 79.0339 90.5112C78.7513 90.8045 78.3539 90.9512 77.8419 90.9512ZM78.8419 84.4312C78.6126 84.4312 78.4259 84.3645 78.2819 84.2312C78.1379 84.0979 78.0659 83.9325 78.0659 83.7352C78.0659 83.5379 78.1379 83.3725 78.2819 83.2392C78.4259 83.1059 78.6126 83.0392 78.8419 83.0392C79.0713 83.0392 79.2579 83.1032 79.4019 83.2312C79.5459 83.3592 79.6179 83.5192 79.6179 83.7112C79.6179 83.9192 79.5459 84.0925 79.4019 84.2312C79.2579 84.3645 79.0713 84.4312 78.8419 84.4312ZM82.6631 89.3992C82.2097 89.3992 81.8017 89.3059 81.4391 89.1192C81.0817 88.9272 80.8017 88.6632 80.5991 88.3272C80.3964 87.9912 80.2951 87.6099 80.2951 87.1832C80.2951 86.7565 80.3964 86.3752 80.5991 86.0392C80.8017 85.7032 81.0817 85.4419 81.4391 85.2552C81.8017 85.0632 82.2097 84.9672 82.6631 84.9672C83.1164 84.9672 83.5217 85.0632 83.8791 85.2552C84.2364 85.4419 84.5164 85.7032 84.7191 86.0392C84.9217 86.3752 85.0231 86.7565 85.0231 87.1832C85.0231 87.6099 84.9217 87.9912 84.7191 88.3272C84.5164 88.6632 84.2364 88.9272 83.8791 89.1192C83.5217 89.3059 83.1164 89.3992 82.6631 89.3992ZM82.6631 88.3752C82.9831 88.3752 83.2444 88.2685 83.4471 88.0552C83.6551 87.8365 83.7591 87.5459 83.7591 87.1832C83.7591 86.8205 83.6551 86.5325 83.4471 86.3192C83.2444 86.1005 82.9831 85.9912 82.6631 85.9912C82.3431 85.9912 82.0791 86.1005 81.8711 86.3192C81.6631 86.5325 81.5591 86.8205 81.5591 87.1832C81.5591 87.5459 81.6631 87.8365 81.8711 88.0552C82.0791 88.2685 82.3431 88.3752 82.6631 88.3752ZM87.3053 89.3992C86.9479 89.3992 86.5986 89.3565 86.2573 89.2712C85.9159 89.1805 85.6439 89.0685 85.4413 88.9352L85.8573 88.0392C86.0493 88.1619 86.2813 88.2632 86.5533 88.3432C86.8253 88.4179 87.0919 88.4552 87.3533 88.4552C87.8813 88.4552 88.1453 88.3245 88.1453 88.0632C88.1453 87.9405 88.0733 87.8525 87.9293 87.7992C87.7853 87.7459 87.5639 87.7005 87.2653 87.6632C86.9133 87.6099 86.6226 87.5485 86.3933 87.4792C86.1639 87.4099 85.9639 87.2872 85.7933 87.1112C85.6279 86.9352 85.5452 86.6845 85.5452 86.3592C85.5452 86.0872 85.6226 85.8472 85.7773 85.6392C85.9373 85.4259 86.1666 85.2605 86.4653 85.1432C86.7693 85.0259 87.1266 84.9672 87.5373 84.9672C87.8413 84.9672 88.1426 85.0019 88.4413 85.0712C88.7453 85.1352 88.9959 85.2259 89.1933 85.3432L88.7773 86.2312C88.3986 86.0179 87.9853 85.9112 87.5373 85.9112C87.2706 85.9112 87.0706 85.9485 86.9373 86.0232C86.8039 86.0979 86.7373 86.1939 86.7373 86.3112C86.7373 86.4445 86.8093 86.5379 86.9533 86.5912C87.0973 86.6445 87.3266 86.6952 87.6413 86.7432C87.9933 86.8019 88.2813 86.8659 88.5053 86.9352C88.7293 86.9992 88.9239 87.1192 89.0893 87.2952C89.2546 87.4712 89.3373 87.7165 89.3373 88.0312C89.3373 88.2979 89.2573 88.5352 89.0973 88.7432C88.9373 88.9512 88.7026 89.1139 88.3933 89.2312C88.0893 89.3432 87.7266 89.3992 87.3053 89.3992Z" fill="#333333"/>
</g>
<g id="Dibujar_2">
<g id="&#195;&#129;tomo_IDE_Bloque3_2">
<g id="&#195;&#129;tomo_IDE_Bloque1_2">
<g id="2_2">
<path id="Vector_7" fill-rule="evenodd" clip-rule="evenodd" d="M169.041 106.982C169.041 104.157 167.941 101.449 165.982 99.4514C164.023 97.4542 161.367 96.3322 158.597 96.3322C132.918 96.3322 77.1321 96.3351 77.1321 96.3351L72.5391 100.585H56.6623L52.0661 96.3351H37.4442C34.6742 96.3351 32.0177 97.4572 30.0591 99.4543C28.1004 101.452 27 104.16 27 106.985C27 106.988 27 106.991 27 106.994C27 109.819 28.1004 112.527 30.0591 114.524C32.0177 116.522 34.6742 117.644 37.4442 117.644C44.3233 117.644 52.0661 117.644 52.0661 117.644L56.6623 121.894H72.5359L77.1321 117.644L158.597 117.641C161.367 117.641 164.023 116.519 165.982 114.522C167.941 112.524 169.041 109.816 169.041 106.991C169.041 106.988 169.041 106.985 169.041 106.982Z" fill="#30DCFF"/>
<path id="Vector_8" fill-rule="evenodd" clip-rule="evenodd" d="M169.041 106.985C169.041 104.161 167.941 101.452 165.982 99.4548C164.023 97.4576 161.367 96.3356 158.597 96.3356C132.918 96.3356 77.1321 96.3356 77.1321 96.3356L72.5391 100.586H56.6623L52.0661 96.3356H37.4442C34.6742 96.3356 32.0177 97.4576 30.0591 99.4548C28.1004 101.452 27 104.161 27 106.985C27 106.988 27 106.99 27 106.99H29.5066C29.5066 102.384 33.1682 98.6507 37.6849 98.6507C43.7752 98.6507 51.0403 98.6507 51.0403 98.6507L55.6365 102.901H73.5804L78.1767 98.6507H158.357C162.873 98.6507 166.535 102.384 166.535 106.99L169.041 106.99V106.985Z" fill="#93EDFF"/>
<path id="Vector_9" fill-rule="evenodd" clip-rule="evenodd" d="M169.041 106.987H166.534V106.988C166.534 109.199 165.673 111.319 164.14 112.882C162.607 114.445 160.528 115.324 158.36 115.324C134.684 115.324 76.0939 115.324 76.0939 115.324L71.4977 119.574H57.7006L53.1044 115.324H37.6815C33.1667 115.324 29.5066 111.591 29.5066 106.988V106.987H27V106.992C27 109.816 28.1004 112.525 30.0591 114.522C32.0177 116.519 34.6742 117.642 37.4442 117.642C44.3233 117.642 52.0661 117.642 52.0661 117.642L56.6623 121.892H72.5359L77.1321 117.642H158.597C164.365 117.642 169.041 112.874 169.041 106.992C169.041 106.989 169.041 106.987 169.041 106.987Z" fill="#08A0BF"/>
</g>
</g>
</g>
<path id="Subir las orejas" d="M37.744 110.766C37.3013 110.766 36.872 110.708 36.456 110.59C36.0453 110.468 35.7147 110.31 35.464 110.118L35.904 109.142C36.144 109.318 36.4293 109.46 36.76 109.566C37.0907 109.673 37.4213 109.726 37.752 109.726C38.12 109.726 38.392 109.673 38.568 109.566C38.744 109.454 38.832 109.308 38.832 109.126C38.832 108.993 38.7787 108.884 38.672 108.798C38.5707 108.708 38.4373 108.636 38.272 108.582C38.112 108.529 37.8933 108.47 37.616 108.406C37.1893 108.305 36.84 108.204 36.568 108.102C36.296 108.001 36.0613 107.838 35.864 107.614C35.672 107.39 35.576 107.092 35.576 106.718C35.576 106.393 35.664 106.1 35.84 105.838C36.016 105.572 36.28 105.361 36.632 105.206C36.9893 105.052 37.424 104.974 37.936 104.974C38.2933 104.974 38.6427 105.017 38.984 105.102C39.3253 105.188 39.624 105.31 39.88 105.47L39.48 106.454C38.9627 106.161 38.4453 106.014 37.928 106.014C37.5653 106.014 37.296 106.073 37.12 106.19C36.9493 106.308 36.864 106.462 36.864 106.654C36.864 106.846 36.9627 106.99 37.16 107.086C37.3627 107.177 37.6693 107.268 38.08 107.358C38.5067 107.46 38.856 107.561 39.128 107.662C39.4 107.764 39.632 107.924 39.824 108.142C40.0213 108.361 40.12 108.657 40.12 109.03C40.12 109.35 40.0293 109.644 39.848 109.91C39.672 110.172 39.4053 110.38 39.048 110.534C38.6907 110.689 38.256 110.766 37.744 110.766ZM45.2536 106.366V110.67H44.0696V110.158C43.9042 110.345 43.7069 110.489 43.4776 110.59C43.2482 110.686 43.0002 110.734 42.7336 110.734C42.1682 110.734 41.7202 110.572 41.3896 110.246C41.0589 109.921 40.8936 109.438 40.8936 108.798V106.366H42.1416V108.614C42.1416 109.308 42.4322 109.654 43.0136 109.654C43.3122 109.654 43.5522 109.558 43.7336 109.366C43.9149 109.169 44.0056 108.878 44.0056 108.494V106.366H45.2536ZM48.9537 106.302C49.3537 106.302 49.7164 106.396 50.0417 106.582C50.3724 106.764 50.6311 107.022 50.8177 107.358C51.0044 107.689 51.0977 108.076 51.0977 108.518C51.0977 108.961 51.0044 109.35 50.8177 109.686C50.6311 110.017 50.3724 110.276 50.0417 110.462C49.7164 110.644 49.3537 110.734 48.9537 110.734C48.3617 110.734 47.9111 110.548 47.6017 110.174V110.67H46.4097V104.734H47.6577V106.822C47.9724 106.476 48.4044 106.302 48.9537 106.302ZM48.7377 109.71C49.0577 109.71 49.3191 109.604 49.5217 109.39C49.7297 109.172 49.8337 108.881 49.8337 108.518C49.8337 108.156 49.7297 107.868 49.5217 107.654C49.3191 107.436 49.0577 107.326 48.7377 107.326C48.4177 107.326 48.1537 107.436 47.9457 107.654C47.7431 107.868 47.6417 108.156 47.6417 108.518C47.6417 108.881 47.7431 109.172 47.9457 109.39C48.1537 109.604 48.4177 109.71 48.7377 109.71ZM51.9332 106.366H53.1812V110.67H51.9332V106.366ZM52.5572 105.766C52.3278 105.766 52.1412 105.7 51.9972 105.566C51.8532 105.433 51.7812 105.268 51.7812 105.07C51.7812 104.873 51.8532 104.708 51.9972 104.574C52.1412 104.441 52.3278 104.374 52.5572 104.374C52.7865 104.374 52.9732 104.438 53.1172 104.566C53.2612 104.694 53.3332 104.854 53.3332 105.046C53.3332 105.254 53.2612 105.428 53.1172 105.566C52.9732 105.7 52.7865 105.766 52.5572 105.766ZM55.5314 106.934C55.6808 106.726 55.8808 106.569 56.1314 106.462C56.3874 106.356 56.6808 106.302 57.0114 106.302V107.454C56.8728 107.444 56.7794 107.438 56.7314 107.438C56.3741 107.438 56.0941 107.54 55.8914 107.742C55.6888 107.94 55.5874 108.238 55.5874 108.638V110.67H54.3394V106.366H55.5314V106.934ZM60.0504 104.734H61.2984V110.67H60.0504V104.734ZM64.1926 106.302C64.8593 106.302 65.3713 106.462 65.7286 106.782C66.0859 107.097 66.2646 107.574 66.2646 108.214V110.67H65.0966V110.134C64.8619 110.534 64.4246 110.734 63.7846 110.734C63.4539 110.734 63.1659 110.678 62.9206 110.566C62.6806 110.454 62.4966 110.3 62.3686 110.102C62.2406 109.905 62.1766 109.681 62.1766 109.43C62.1766 109.03 62.3259 108.716 62.6246 108.486C62.9286 108.257 63.3953 108.142 64.0246 108.142H65.0166C65.0166 107.87 64.9339 107.662 64.7686 107.518C64.6033 107.369 64.3553 107.294 64.0246 107.294C63.7953 107.294 63.5686 107.332 63.3446 107.406C63.1259 107.476 62.9393 107.572 62.7846 107.694L62.3366 106.822C62.5713 106.657 62.8513 106.529 63.1766 106.438C63.5073 106.348 63.8459 106.302 64.1926 106.302ZM64.0966 109.894C64.3099 109.894 64.4993 109.846 64.6646 109.75C64.8299 109.649 64.9473 109.502 65.0166 109.31V108.87H64.1606C63.6486 108.87 63.3926 109.038 63.3926 109.374C63.3926 109.534 63.4539 109.662 63.5766 109.758C63.7046 109.849 63.8779 109.894 64.0966 109.894ZM68.8421 110.734C68.4848 110.734 68.1354 110.692 67.7941 110.606C67.4528 110.516 67.1808 110.404 66.9781 110.27L67.3941 109.374C67.5861 109.497 67.8181 109.598 68.0901 109.678C68.3621 109.753 68.6288 109.79 68.8901 109.79C69.4181 109.79 69.6821 109.66 69.6821 109.398C69.6821 109.276 69.6101 109.188 69.4661 109.134C69.3221 109.081 69.1008 109.036 68.8021 108.998C68.4501 108.945 68.1594 108.884 67.9301 108.814C67.7008 108.745 67.5008 108.622 67.3301 108.446C67.1648 108.27 67.0821 108.02 67.0821 107.694C67.0821 107.422 67.1594 107.182 67.3141 106.974C67.4741 106.761 67.7034 106.596 68.0021 106.478C68.3061 106.361 68.6634 106.302 69.0741 106.302C69.3781 106.302 69.6794 106.337 69.9781 106.406C70.2821 106.47 70.5328 106.561 70.7301 106.678L70.3141 107.566C69.9354 107.353 69.5221 107.246 69.0741 107.246C68.8074 107.246 68.6074 107.284 68.4741 107.358C68.3408 107.433 68.2741 107.529 68.2741 107.646C68.2741 107.78 68.3461 107.873 68.4901 107.926C68.6341 107.98 68.8634 108.03 69.1781 108.078C69.5301 108.137 69.8181 108.201 70.0421 108.27C70.2661 108.334 70.4608 108.454 70.6261 108.63C70.7914 108.806 70.8741 109.052 70.8741 109.366C70.8741 109.633 70.7941 109.87 70.6341 110.078C70.4741 110.286 70.2394 110.449 69.9301 110.566C69.6261 110.678 69.2634 110.734 68.8421 110.734ZM75.9577 110.734C75.5044 110.734 75.0964 110.641 74.7337 110.454C74.3764 110.262 74.0964 109.998 73.8937 109.662C73.6911 109.326 73.5897 108.945 73.5897 108.518C73.5897 108.092 73.6911 107.71 73.8937 107.374C74.0964 107.038 74.3764 106.777 74.7337 106.59C75.0964 106.398 75.5044 106.302 75.9577 106.302C76.4111 106.302 76.8164 106.398 77.1737 106.59C77.5311 106.777 77.8111 107.038 78.0137 107.374C78.2164 107.71 78.3177 108.092 78.3177 108.518C78.3177 108.945 78.2164 109.326 78.0137 109.662C77.8111 109.998 77.5311 110.262 77.1737 110.454C76.8164 110.641 76.4111 110.734 75.9577 110.734ZM75.9577 109.71C76.2777 109.71 76.5391 109.604 76.7417 109.39C76.9497 109.172 77.0537 108.881 77.0537 108.518C77.0537 108.156 76.9497 107.868 76.7417 107.654C76.5391 107.436 76.2777 107.326 75.9577 107.326C75.6377 107.326 75.3737 107.436 75.1657 107.654C74.9577 107.868 74.8537 108.156 74.8537 108.518C74.8537 108.881 74.9577 109.172 75.1657 109.39C75.3737 109.604 75.6377 109.71 75.9577 109.71ZM80.3439 106.934C80.4933 106.726 80.6933 106.569 80.9439 106.462C81.1999 106.356 81.4933 106.302 81.8239 106.302V107.454C81.6853 107.444 81.5919 107.438 81.5439 107.438C81.1866 107.438 80.9066 107.54 80.7039 107.742C80.5013 107.94 80.3999 108.238 80.3999 108.638V110.67H79.1519V106.366H80.3439V106.934ZM86.7429 108.534C86.7429 108.55 86.7349 108.662 86.7189 108.87H83.4629C83.5216 109.137 83.6603 109.348 83.8789 109.502C84.0976 109.657 84.3696 109.734 84.6949 109.734C84.9189 109.734 85.1163 109.702 85.2869 109.638C85.4629 109.569 85.6256 109.462 85.7749 109.318L86.4389 110.038C86.0336 110.502 85.4416 110.734 84.6629 110.734C84.1776 110.734 83.7483 110.641 83.3749 110.454C83.0016 110.262 82.7136 109.998 82.5109 109.662C82.3083 109.326 82.2069 108.945 82.2069 108.518C82.2069 108.097 82.3056 107.718 82.5029 107.382C82.7056 107.041 82.9803 106.777 83.3269 106.59C83.6789 106.398 84.0709 106.302 84.5029 106.302C84.9243 106.302 85.3056 106.393 85.6469 106.574C85.9883 106.756 86.2549 107.017 86.4469 107.358C86.6443 107.694 86.7429 108.086 86.7429 108.534ZM84.5109 107.246C84.2283 107.246 83.9909 107.326 83.7989 107.486C83.6069 107.646 83.4896 107.865 83.4469 108.142H85.5669C85.5243 107.87 85.4069 107.654 85.2149 107.494C85.0229 107.329 84.7883 107.246 84.5109 107.246ZM87.2538 112.286C86.8165 112.286 86.4831 112.206 86.2538 112.046L86.5898 111.142C86.7338 111.244 86.9098 111.294 87.1178 111.294C87.2778 111.294 87.4031 111.241 87.4938 111.134C87.5845 111.033 87.6298 110.878 87.6298 110.67V106.366H88.8778V110.662C88.8778 111.164 88.7338 111.558 88.4458 111.846C88.1631 112.14 87.7658 112.286 87.2538 112.286ZM88.2538 105.766C88.0245 105.766 87.8378 105.7 87.6938 105.566C87.5498 105.433 87.4778 105.268 87.4778 105.07C87.4778 104.873 87.5498 104.708 87.6938 104.574C87.8378 104.441 88.0245 104.374 88.2538 104.374C88.4831 104.374 88.6698 104.438 88.8138 104.566C88.9578 104.694 89.0298 104.854 89.0298 105.046C89.0298 105.254 88.9578 105.428 88.8138 105.566C88.6698 105.7 88.4831 105.766 88.2538 105.766ZM91.7629 106.302C92.4296 106.302 92.9416 106.462 93.2989 106.782C93.6563 107.097 93.8349 107.574 93.8349 108.214V110.67H92.6669V110.134C92.4323 110.534 91.9949 110.734 91.3549 110.734C91.0243 110.734 90.7363 110.678 90.4909 110.566C90.2509 110.454 90.0669 110.3 89.9389 110.102C89.8109 109.905 89.7469 109.681 89.7469 109.43C89.7469 109.03 89.8963 108.716 90.1949 108.486C90.4989 108.257 90.9656 108.142 91.5949 108.142H92.5869C92.5869 107.87 92.5043 107.662 92.3389 107.518C92.1736 107.369 91.9256 107.294 91.5949 107.294C91.3656 107.294 91.1389 107.332 90.9149 107.406C90.6963 107.476 90.5096 107.572 90.3549 107.694L89.9069 106.822C90.1416 106.657 90.4216 106.529 90.7469 106.438C91.0776 106.348 91.4163 106.302 91.7629 106.302ZM91.6669 109.894C91.8803 109.894 92.0696 109.846 92.2349 109.75C92.4003 109.649 92.5176 109.502 92.5869 109.31V108.87H91.7309C91.2189 108.87 90.9629 109.038 90.9629 109.374C90.9629 109.534 91.0243 109.662 91.1469 109.758C91.2749 109.849 91.4483 109.894 91.6669 109.894ZM96.4124 110.734C96.0551 110.734 95.7058 110.692 95.3644 110.606C95.0231 110.516 94.7511 110.404 94.5484 110.27L94.9644 109.374C95.1564 109.497 95.3884 109.598 95.6604 109.678C95.9324 109.753 96.1991 109.79 96.4604 109.79C96.9884 109.79 97.2524 109.66 97.2524 109.398C97.2524 109.276 97.1804 109.188 97.0364 109.134C96.8924 109.081 96.6711 109.036 96.3724 108.998C96.0204 108.945 95.7298 108.884 95.5004 108.814C95.2711 108.745 95.0711 108.622 94.9004 108.446C94.7351 108.27 94.6524 108.02 94.6524 107.694C94.6524 107.422 94.7298 107.182 94.8844 106.974C95.0444 106.761 95.2738 106.596 95.5724 106.478C95.8764 106.361 96.2338 106.302 96.6444 106.302C96.9484 106.302 97.2498 106.337 97.5484 106.406C97.8524 106.47 98.1031 106.561 98.3004 106.678L97.8844 107.566C97.5058 107.353 97.0924 107.246 96.6444 107.246C96.3778 107.246 96.1778 107.284 96.0444 107.358C95.9111 107.433 95.8444 107.529 95.8444 107.646C95.8444 107.78 95.9164 107.873 96.0604 107.926C96.2044 107.98 96.4338 108.03 96.7484 108.078C97.1004 108.137 97.3884 108.201 97.6124 108.27C97.8364 108.334 98.0311 108.454 98.1964 108.63C98.3618 108.806 98.4444 109.052 98.4444 109.366C98.4444 109.633 98.3644 109.87 98.2044 110.078C98.0444 110.286 97.8098 110.449 97.5004 110.566C97.1964 110.678 96.8338 110.734 96.4124 110.734Z" fill="#333333"/>
</g>
<g id="Dibujar_3">
<g id="&#195;&#129;tomo_IDE_Bloque3_3">
<g id="&#195;&#129;tomo_IDE_Bloque1_3">
<g id="2_3">
<path id="Vector_10" fill-rule="evenodd" clip-rule="evenodd" d="M169.041 127.647C169.041 124.822 167.941 122.113 165.982 120.116C164.023 118.119 161.367 116.997 158.597 116.997C132.918 116.997 77.1321 117 77.1321 117L72.5391 121.25H56.6623L52.0661 117H37.4442C34.6742 117 32.0177 118.122 30.0591 120.119C28.1004 122.116 27 124.825 27 127.65C27 127.653 27 127.656 27 127.659C27 130.483 28.1004 133.192 30.0591 135.189C32.0177 137.186 34.6742 138.309 37.4442 138.309C44.3233 138.309 52.0661 138.309 52.0661 138.309L56.6623 142.559H72.5359L77.1321 138.309L158.597 138.306C161.367 138.306 164.023 137.184 165.982 135.186C167.941 133.189 169.041 130.48 169.041 127.656C169.041 127.653 169.041 127.65 169.041 127.647Z" fill="#30DCFF"/>
<path id="Vector_11" fill-rule="evenodd" clip-rule="evenodd" d="M169.041 127.65C169.041 124.826 167.941 122.117 165.982 120.12C164.023 118.122 161.367 117 158.597 117C132.918 117 77.1321 117 77.1321 117L72.5391 121.251H56.6623L52.0661 117H37.4442C34.6742 117 32.0177 118.122 30.0591 120.12C28.1004 122.117 27 124.826 27 127.65C27 127.653 27 127.655 27 127.655H29.5066C29.5066 123.049 33.1682 119.316 37.6849 119.316C43.7752 119.316 51.0403 119.316 51.0403 119.316L55.6365 123.566H73.5804L78.1767 119.316H158.357C162.873 119.316 166.535 123.049 166.535 127.655L169.041 127.655V127.65Z" fill="#93EDFF"/>
<path id="Vector_12" fill-rule="evenodd" clip-rule="evenodd" d="M169.041 127.652H166.534V127.653C166.534 129.863 165.673 131.984 164.14 133.547C162.607 135.11 160.528 135.988 158.36 135.988C134.684 135.988 76.0939 135.988 76.0939 135.988L71.4977 140.239H57.7006L53.1044 135.988H37.6815C33.1667 135.988 29.5066 132.256 29.5066 127.653V127.652H27V127.657C27 130.481 28.1004 133.19 30.0591 135.187C32.0177 137.184 34.6742 138.306 37.4442 138.306C44.3233 138.306 52.0661 138.306 52.0661 138.306L56.6623 142.557H72.5359L77.1321 138.306H158.597C164.365 138.306 169.041 133.539 169.041 127.657C169.041 127.654 169.041 127.652 169.041 127.652Z" fill="#08A0BF"/>
</g>
</g>
</g>
<path id="Manos a los cachetes" d="M41 131.335L40.992 127.975L39.344 130.743H38.76L37.12 128.047V131.335H35.904V125.735H36.976L39.072 129.215L41.136 125.735H42.2L42.216 131.335H41ZM45.1926 126.967C45.8593 126.967 46.3713 127.127 46.7286 127.447C47.0859 127.762 47.2646 128.239 47.2646 128.879V131.335H46.0966V130.799C45.8619 131.199 45.4246 131.399 44.7846 131.399C44.4539 131.399 44.1659 131.343 43.9206 131.231C43.6806 131.119 43.4966 130.965 43.3686 130.767C43.2406 130.57 43.1766 130.346 43.1766 130.095C43.1766 129.695 43.3259 129.381 43.6246 129.151C43.9286 128.922 44.3953 128.807 45.0246 128.807H46.0166C46.0166 128.535 45.9339 128.327 45.7686 128.183C45.6033 128.034 45.3553 127.959 45.0246 127.959C44.7953 127.959 44.5686 127.997 44.3446 128.071C44.1259 128.141 43.9393 128.237 43.7846 128.359L43.3366 127.487C43.5713 127.322 43.8513 127.194 44.1766 127.103C44.5073 127.013 44.8459 126.967 45.1926 126.967ZM45.0966 130.559C45.3099 130.559 45.4993 130.511 45.6646 130.415C45.8299 130.314 45.9473 130.167 46.0166 129.975V129.535H45.1606C44.6486 129.535 44.3926 129.703 44.3926 130.039C44.3926 130.199 44.4539 130.327 44.5766 130.423C44.7046 130.514 44.8779 130.559 45.0966 130.559ZM51.0101 126.967C51.5434 126.967 51.9728 127.127 52.2981 127.447C52.6288 127.767 52.7941 128.242 52.7941 128.871V131.335H51.5461V129.063C51.5461 128.722 51.4714 128.469 51.3221 128.303C51.1728 128.133 50.9568 128.047 50.6741 128.047C50.3594 128.047 50.1088 128.146 49.9221 128.343C49.7354 128.535 49.6421 128.823 49.6421 129.207V131.335H48.3941V127.031H49.5861V127.535C49.7514 127.354 49.9568 127.215 50.2021 127.119C50.4474 127.018 50.7168 126.967 51.0101 126.967ZM56.0202 131.399C55.5669 131.399 55.1589 131.306 54.7962 131.119C54.4389 130.927 54.1589 130.663 53.9562 130.327C53.7536 129.991 53.6522 129.61 53.6522 129.183C53.6522 128.757 53.7536 128.375 53.9562 128.039C54.1589 127.703 54.4389 127.442 54.7962 127.255C55.1589 127.063 55.5669 126.967 56.0202 126.967C56.4736 126.967 56.8789 127.063 57.2362 127.255C57.5936 127.442 57.8736 127.703 58.0762 128.039C58.2789 128.375 58.3802 128.757 58.3802 129.183C58.3802 129.61 58.2789 129.991 58.0762 130.327C57.8736 130.663 57.5936 130.927 57.2362 131.119C56.8789 131.306 56.4736 131.399 56.0202 131.399ZM56.0202 130.375C56.3402 130.375 56.6016 130.269 56.8042 130.055C57.0122 129.837 57.1162 129.546 57.1162 129.183C57.1162 128.821 57.0122 128.533 56.8042 128.319C56.6016 128.101 56.3402 127.991 56.0202 127.991C55.7002 127.991 55.4362 128.101 55.2282 128.319C55.0202 128.533 54.9162 128.821 54.9162 129.183C54.9162 129.546 55.0202 129.837 55.2282 130.055C55.4362 130.269 55.7002 130.375 56.0202 130.375ZM60.6624 131.399C60.3051 131.399 59.9558 131.357 59.6144 131.271C59.2731 131.181 59.0011 131.069 58.7984 130.935L59.2144 130.039C59.4064 130.162 59.6384 130.263 59.9104 130.343C60.1824 130.418 60.4491 130.455 60.7104 130.455C61.2384 130.455 61.5024 130.325 61.5024 130.063C61.5024 129.941 61.4304 129.853 61.2864 129.799C61.1424 129.746 60.9211 129.701 60.6224 129.663C60.2704 129.61 59.9798 129.549 59.7504 129.479C59.5211 129.41 59.3211 129.287 59.1504 129.111C58.9851 128.935 58.9024 128.685 58.9024 128.359C58.9024 128.087 58.9798 127.847 59.1344 127.639C59.2944 127.426 59.5238 127.261 59.8224 127.143C60.1264 127.026 60.4838 126.967 60.8944 126.967C61.1984 126.967 61.4998 127.002 61.7984 127.071C62.1024 127.135 62.3531 127.226 62.5504 127.343L62.1344 128.231C61.7558 128.018 61.3424 127.911 60.8944 127.911C60.6278 127.911 60.4278 127.949 60.2944 128.023C60.1611 128.098 60.0944 128.194 60.0944 128.311C60.0944 128.445 60.1664 128.538 60.3104 128.591C60.4544 128.645 60.6838 128.695 60.9984 128.743C61.3504 128.802 61.6384 128.866 61.8624 128.935C62.0864 128.999 62.2811 129.119 62.4464 129.295C62.6118 129.471 62.6944 129.717 62.6944 130.031C62.6944 130.298 62.6144 130.535 62.4544 130.743C62.2944 130.951 62.0598 131.114 61.7504 131.231C61.4464 131.343 61.0838 131.399 60.6624 131.399ZM67.4661 126.967C68.1327 126.967 68.6447 127.127 69.0021 127.447C69.3594 127.762 69.5381 128.239 69.5381 128.879V131.335H68.3701V130.799C68.1354 131.199 67.6981 131.399 67.0581 131.399C66.7274 131.399 66.4394 131.343 66.1941 131.231C65.9541 131.119 65.7701 130.965 65.6421 130.767C65.5141 130.57 65.4501 130.346 65.4501 130.095C65.4501 129.695 65.5994 129.381 65.8981 129.151C66.2021 128.922 66.6687 128.807 67.2981 128.807H68.2901C68.2901 128.535 68.2074 128.327 68.0421 128.183C67.8767 128.034 67.6287 127.959 67.2981 127.959C67.0687 127.959 66.8421 127.997 66.6181 128.071C66.3994 128.141 66.2127 128.237 66.0581 128.359L65.6101 127.487C65.8447 127.322 66.1247 127.194 66.4501 127.103C66.7807 127.013 67.1194 126.967 67.4661 126.967ZM67.3701 130.559C67.5834 130.559 67.7727 130.511 67.9381 130.415C68.1034 130.314 68.2207 130.167 68.2901 129.975V129.535H67.4341C66.9221 129.535 66.6661 129.703 66.6661 130.039C66.6661 130.199 66.7274 130.327 66.8501 130.423C66.9781 130.514 67.1514 130.559 67.3701 130.559ZM72.9332 125.399H74.1812V131.335H72.9332V125.399ZM77.3874 131.399C76.9341 131.399 76.5261 131.306 76.1634 131.119C75.8061 130.927 75.5261 130.663 75.3234 130.327C75.1208 129.991 75.0194 129.61 75.0194 129.183C75.0194 128.757 75.1208 128.375 75.3234 128.039C75.5261 127.703 75.8061 127.442 76.1634 127.255C76.5261 127.063 76.9341 126.967 77.3874 126.967C77.8408 126.967 78.2461 127.063 78.6034 127.255C78.9608 127.442 79.2408 127.703 79.4434 128.039C79.6461 128.375 79.7474 128.757 79.7474 129.183C79.7474 129.61 79.6461 129.991 79.4434 130.327C79.2408 130.663 78.9608 130.927 78.6034 131.119C78.2461 131.306 77.8408 131.399 77.3874 131.399ZM77.3874 130.375C77.7074 130.375 77.9688 130.269 78.1714 130.055C78.3794 129.837 78.4834 129.546 78.4834 129.183C78.4834 128.821 78.3794 128.533 78.1714 128.319C77.9688 128.101 77.7074 127.991 77.3874 127.991C77.0674 127.991 76.8034 128.101 76.5954 128.319C76.3874 128.533 76.2834 128.821 76.2834 129.183C76.2834 129.546 76.3874 129.837 76.5954 130.055C76.8034 130.269 77.0674 130.375 77.3874 130.375ZM82.0296 131.399C81.6723 131.399 81.3229 131.357 80.9816 131.271C80.6403 131.181 80.3683 131.069 80.1656 130.935L80.5816 130.039C80.7736 130.162 81.0056 130.263 81.2776 130.343C81.5496 130.418 81.8163 130.455 82.0776 130.455C82.6056 130.455 82.8696 130.325 82.8696 130.063C82.8696 129.941 82.7976 129.853 82.6536 129.799C82.5096 129.746 82.2883 129.701 81.9896 129.663C81.6376 129.61 81.3469 129.549 81.1176 129.479C80.8883 129.41 80.6883 129.287 80.5176 129.111C80.3523 128.935 80.2696 128.685 80.2696 128.359C80.2696 128.087 80.3469 127.847 80.5016 127.639C80.6616 127.426 80.8909 127.261 81.1896 127.143C81.4936 127.026 81.8509 126.967 82.2616 126.967C82.5656 126.967 82.8669 127.002 83.1656 127.071C83.4696 127.135 83.7203 127.226 83.9176 127.343L83.5016 128.231C83.1229 128.018 82.7096 127.911 82.2616 127.911C81.9949 127.911 81.7949 127.949 81.6616 128.023C81.5283 128.098 81.4616 128.194 81.4616 128.311C81.4616 128.445 81.5336 128.538 81.6776 128.591C81.8216 128.645 82.0509 128.695 82.3656 128.743C82.7176 128.802 83.0056 128.866 83.2296 128.935C83.4536 128.999 83.6483 129.119 83.8136 129.295C83.9789 129.471 84.0616 129.717 84.0616 130.031C84.0616 130.298 83.9816 130.535 83.8216 130.743C83.6616 130.951 83.4269 131.114 83.1176 131.231C82.8136 131.343 82.4509 131.399 82.0296 131.399ZM89.1772 131.399C88.7186 131.399 88.3052 131.306 87.9372 131.119C87.5746 130.927 87.2892 130.663 87.0812 130.327C86.8786 129.991 86.7772 129.61 86.7772 129.183C86.7772 128.757 86.8786 128.375 87.0812 128.039C87.2892 127.703 87.5746 127.442 87.9372 127.255C88.3052 127.063 88.7186 126.967 89.1772 126.967C89.6306 126.967 90.0252 127.063 90.3612 127.255C90.7026 127.442 90.9506 127.711 91.1052 128.063L90.1372 128.583C89.9132 128.189 89.5906 127.991 89.1692 127.991C88.8439 127.991 88.5746 128.098 88.3612 128.311C88.1479 128.525 88.0412 128.815 88.0412 129.183C88.0412 129.551 88.1479 129.842 88.3612 130.055C88.5746 130.269 88.8439 130.375 89.1692 130.375C89.5959 130.375 89.9186 130.178 90.1372 129.783L91.1052 130.311C90.9506 130.653 90.7026 130.919 90.3612 131.111C90.0252 131.303 89.6306 131.399 89.1772 131.399ZM93.5598 126.967C94.2265 126.967 94.7385 127.127 95.0958 127.447C95.4531 127.762 95.6318 128.239 95.6318 128.879V131.335H94.4638V130.799C94.2291 131.199 93.7918 131.399 93.1518 131.399C92.8211 131.399 92.5331 131.343 92.2878 131.231C92.0478 131.119 91.8638 130.965 91.7358 130.767C91.6078 130.57 91.5438 130.346 91.5438 130.095C91.5438 129.695 91.6931 129.381 91.9918 129.151C92.2958 128.922 92.7625 128.807 93.3918 128.807H94.3838C94.3838 128.535 94.3011 128.327 94.1358 128.183C93.9705 128.034 93.7225 127.959 93.3918 127.959C93.1625 127.959 92.9358 127.997 92.7118 128.071C92.4931 128.141 92.3065 128.237 92.1518 128.359L91.7038 127.487C91.9385 127.322 92.2185 127.194 92.5438 127.103C92.8745 127.013 93.2131 126.967 93.5598 126.967ZM93.4638 130.559C93.6771 130.559 93.8665 130.511 94.0318 130.415C94.1971 130.314 94.3145 130.167 94.3838 129.975V129.535H93.5278C93.0158 129.535 92.7598 129.703 92.7598 130.039C92.7598 130.199 92.8211 130.327 92.9438 130.423C93.0718 130.514 93.2451 130.559 93.4638 130.559ZM98.8882 131.399C98.4295 131.399 98.0162 131.306 97.6482 131.119C97.2855 130.927 97.0002 130.663 96.7922 130.327C96.5895 129.991 96.4882 129.61 96.4882 129.183C96.4882 128.757 96.5895 128.375 96.7922 128.039C97.0002 127.703 97.2855 127.442 97.6482 127.255C98.0162 127.063 98.4295 126.967 98.8882 126.967C99.3415 126.967 99.7362 127.063 100.072 127.255C100.414 127.442 100.662 127.711 100.816 128.063L99.8482 128.583C99.6242 128.189 99.3015 127.991 98.8802 127.991C98.5548 127.991 98.2855 128.098 98.0722 128.311C97.8588 128.525 97.7522 128.815 97.7522 129.183C97.7522 129.551 97.8588 129.842 98.0722 130.055C98.2855 130.269 98.5548 130.375 98.8802 130.375C99.3068 130.375 99.6295 130.178 99.8482 129.783L100.816 130.311C100.662 130.653 100.414 130.919 100.072 131.111C99.7362 131.303 99.3415 131.399 98.8882 131.399ZM104.119 126.967C104.653 126.967 105.082 127.127 105.407 127.447C105.738 127.767 105.903 128.242 105.903 128.871V131.335H104.655V129.063C104.655 128.722 104.581 128.469 104.431 128.303C104.282 128.133 104.066 128.047 103.783 128.047C103.469 128.047 103.218 128.146 103.031 128.343C102.845 128.535 102.751 128.823 102.751 129.207V131.335H101.503V125.399H102.751V127.479C102.917 127.314 103.117 127.189 103.351 127.103C103.586 127.013 103.842 126.967 104.119 126.967ZM111.298 129.199C111.298 129.215 111.29 129.327 111.274 129.535H108.018C108.076 129.802 108.215 130.013 108.434 130.167C108.652 130.322 108.924 130.399 109.25 130.399C109.474 130.399 109.671 130.367 109.842 130.303C110.018 130.234 110.18 130.127 110.33 129.983L110.994 130.703C110.588 131.167 109.996 131.399 109.218 131.399C108.732 131.399 108.303 131.306 107.93 131.119C107.556 130.927 107.268 130.663 107.066 130.327C106.863 129.991 106.762 129.61 106.762 129.183C106.762 128.762 106.86 128.383 107.058 128.047C107.26 127.706 107.535 127.442 107.882 127.255C108.234 127.063 108.626 126.967 109.058 126.967C109.479 126.967 109.86 127.058 110.202 127.239C110.543 127.421 110.81 127.682 111.002 128.023C111.199 128.359 111.298 128.751 111.298 129.199ZM109.066 127.911C108.783 127.911 108.546 127.991 108.354 128.151C108.162 128.311 108.044 128.53 108.002 128.807H110.122C110.079 128.535 109.962 128.319 109.77 128.159C109.578 127.994 109.343 127.911 109.066 127.911ZM114.904 131.127C114.782 131.218 114.63 131.287 114.448 131.335C114.272 131.378 114.086 131.399 113.888 131.399C113.376 131.399 112.979 131.269 112.696 131.007C112.419 130.746 112.28 130.362 112.28 129.855V128.087H111.616V127.127H112.28V126.079H113.528V127.127H114.6V128.087H113.528V129.839C113.528 130.021 113.574 130.162 113.664 130.263C113.76 130.359 113.894 130.407 114.064 130.407C114.262 130.407 114.43 130.354 114.568 130.247L114.904 131.127ZM119.688 129.199C119.688 129.215 119.68 129.327 119.664 129.535H116.408C116.467 129.802 116.606 130.013 116.824 130.167C117.043 130.322 117.315 130.399 117.64 130.399C117.864 130.399 118.062 130.367 118.232 130.303C118.408 130.234 118.571 130.127 118.72 129.983L119.384 130.703C118.979 131.167 118.387 131.399 117.608 131.399C117.123 131.399 116.694 131.306 116.32 131.119C115.947 130.927 115.659 130.663 115.456 130.327C115.254 129.991 115.152 129.61 115.152 129.183C115.152 128.762 115.251 128.383 115.448 128.047C115.651 127.706 115.926 127.442 116.272 127.255C116.624 127.063 117.016 126.967 117.448 126.967C117.87 126.967 118.251 127.058 118.592 127.239C118.934 127.421 119.2 127.682 119.392 128.023C119.59 128.359 119.688 128.751 119.688 129.199ZM117.456 127.911C117.174 127.911 116.936 127.991 116.744 128.151C116.552 128.311 116.435 128.53 116.392 128.807H118.512C118.47 128.535 118.352 128.319 118.16 128.159C117.968 127.994 117.734 127.911 117.456 127.911ZM121.967 131.399C121.61 131.399 121.26 131.357 120.919 131.271C120.578 131.181 120.306 131.069 120.103 130.935L120.519 130.039C120.711 130.162 120.943 130.263 121.215 130.343C121.487 130.418 121.754 130.455 122.015 130.455C122.543 130.455 122.807 130.325 122.807 130.063C122.807 129.941 122.735 129.853 122.591 129.799C122.447 129.746 122.226 129.701 121.927 129.663C121.575 129.61 121.284 129.549 121.055 129.479C120.826 129.41 120.626 129.287 120.455 129.111C120.29 128.935 120.207 128.685 120.207 128.359C120.207 128.087 120.284 127.847 120.439 127.639C120.599 127.426 120.828 127.261 121.127 127.143C121.431 127.026 121.788 126.967 122.199 126.967C122.503 126.967 122.804 127.002 123.103 127.071C123.407 127.135 123.658 127.226 123.855 127.343L123.439 128.231C123.06 128.018 122.647 127.911 122.199 127.911C121.932 127.911 121.732 127.949 121.599 128.023C121.466 128.098 121.399 128.194 121.399 128.311C121.399 128.445 121.471 128.538 121.615 128.591C121.759 128.645 121.988 128.695 122.303 128.743C122.655 128.802 122.943 128.866 123.167 128.935C123.391 128.999 123.586 129.119 123.751 129.295C123.916 129.471 123.999 129.717 123.999 130.031C123.999 130.298 123.919 130.535 123.759 130.743C123.599 130.951 123.364 131.114 123.055 131.231C122.751 131.343 122.388 131.399 121.967 131.399Z" fill="#333333"/>
</g>
</g>
<defs>
<filter id="filter0_d_3618:107978" x="0" y="0" width="180" height="184" filterUnits="userSpaceOnUse" color-interpolation-filters="sRGB">
<feFlood flood-opacity="0" result="BackgroundImageFix"/>
<feColorMatrix in="SourceAlpha" type="matrix" values="0 0 0 0 0 0 0 0 0 0 0 0 0 0 0 0 0 0 127 0" result="hardAlpha"/>
<feOffset dy="4"/>
<feColorMatrix type="matrix" values="0 0 0 0 0 0 0 0 0 0 0 0 0 0 0 0 0 0 0.25 0"/>
<feBlend mode="normal" in2="BackgroundImageFix" result="effect1_dropShadow_3618:107978"/>
<feBlend mode="normal" in="SourceGraphic" in2="effect1_dropShadow_3618:107978" result="shape"/>
</filter>
</defs>
</svg>
