<svg width="180" height="183" viewBox="0 0 180 183" fill="none" xmlns="http://www.w3.org/2000/svg">
<g filter="url(#filter0_d_1_12)">
<rect width="180" height="180" rx="12.8571" fill="#F2F2F2"/>
<path fill-rule="evenodd" clip-rule="evenodd" d="M170.357 45C170.357 37.9286 165.857 33.4286 158.786 33.4286C133.661 33.4286 149.172 33.4286 131.143 33.4286C126.174 33.4286 123.933 31.9908 121.179 29.25C115.195 23.6698 100.146 14.7857 67.1318 14.7857C20.5871 14.7857 9.64289 33.4286 9.64289 33.4286C9.64289 33.4286 9.64317 36.4626 9.6433 45C9.6433 51.4286 14.7857 56.5714 21.2143 56.5714C38.2421 56.5714 66.8572 56.5714 66.8572 56.5714L72.6429 61.7143H96.4286L101.571 56.5714C101.571 56.5714 123.448 56.5714 158.786 56.5714C165.857 56.5714 170.357 52.0714 170.357 45C170.357 46.2005 170.357 43.1565 170.357 45Z" fill="#FC79FF"/>
<path fill-rule="evenodd" clip-rule="evenodd" d="M167.143 45C167.143 50.1428 164.571 53.3571 158.786 53.3571L100.286 53.3571L95.1429 58.5H73.9286L68.1429 53.3571C68.1429 53.3571 37.5386 53.3571 21.2143 53.3571C16.0485 53.3571 12.8571 49.5 12.8571 45H9.64282C9.64282 51.4286 14.7857 56.5714 21.2143 56.5714C38.2119 56.5714 66.8571 56.5714 66.8571 56.5714L72.6603 61.7143H96.4286L101.571 56.5714L158.786 56.5714C165.857 56.5714 170.357 52.0714 170.357 45C169.393 45 168.429 44.9999 167.143 45Z" fill="black" fill-opacity="0.25"/>
<path fill-rule="evenodd" clip-rule="evenodd" d="M9.64277 45H12.8571V34.7143C12.8571 34.7143 22.4954 18 67.0408 18C97.291 18 112.858 26.129 119.25 31.5C122.331 34.0908 126.457 36.6121 130.5 36.6429C135.964 36.6429 148.798 36.6429 158.786 36.6429C163.906 36.6429 167.143 40.1786 167.143 44.3571V45H169.714H170.357C170.357 37.9286 165.857 33.4286 158.786 33.4286C133.71 33.4286 148.505 33.4286 130.5 33.4286C126 33.4286 123.537 31.6026 120.995 29.0614C115.03 23.4642 100.01 14.7857 67.0292 14.7857C20.5137 14.7857 9.64277 33.4286 9.64277 33.4286L9.64277 45Z" fill="white" fill-opacity="0.5"/>
<path d="M19.4155 46.3817C18.8448 46.3817 18.3275 46.259 17.8635 46.0137C17.4048 45.763 17.0421 45.419 16.7755 44.9817C16.5141 44.539 16.3835 44.0403 16.3835 43.4857C16.3835 42.931 16.5141 42.435 16.7755 41.9977C17.0421 41.555 17.4048 41.211 17.8635 40.9657C18.3275 40.715 18.8475 40.5897 19.4235 40.5897C19.9088 40.5897 20.3461 40.675 20.7355 40.8457C21.1301 41.0163 21.4608 41.2617 21.7275 41.5817L20.8955 42.3497C20.5168 41.9123 20.0475 41.6937 19.4875 41.6937C19.1408 41.6937 18.8315 41.771 18.5595 41.9257C18.2875 42.075 18.0741 42.2857 17.9195 42.5577C17.7701 42.8297 17.6955 43.139 17.6955 43.4857C17.6955 43.8323 17.7701 44.1417 17.9195 44.4137C18.0741 44.6857 18.2875 44.899 18.5595 45.0537C18.8315 45.203 19.1408 45.2777 19.4875 45.2777C20.0475 45.2777 20.5168 45.0563 20.8955 44.6137L21.7275 45.3817C21.4608 45.707 21.1301 45.955 20.7355 46.1257C20.3408 46.2963 19.9008 46.3817 19.4155 46.3817ZM26.7413 41.9817V46.2857H25.5573V45.7737C25.3919 45.9603 25.1946 46.1043 24.9653 46.2057C24.7359 46.3017 24.4879 46.3497 24.2213 46.3497C23.6559 46.3497 23.2079 46.187 22.8773 45.8617C22.5466 45.5363 22.3813 45.0537 22.3813 44.4137V41.9817H23.6293V44.2297C23.6293 44.923 23.9199 45.2697 24.5013 45.2697C24.7999 45.2697 25.0399 45.1737 25.2213 44.9817C25.4026 44.7843 25.4933 44.4937 25.4933 44.1097V41.9817H26.7413ZM29.6335 41.9177C30.3001 41.9177 30.8121 42.0777 31.1695 42.3977C31.5268 42.7123 31.7055 43.1897 31.7055 43.8297V46.2857H30.5375V45.7497C30.3028 46.1497 29.8655 46.3497 29.2255 46.3497C28.8948 46.3497 28.6068 46.2937 28.3615 46.1817C28.1215 46.0697 27.9375 45.915 27.8095 45.7177C27.6815 45.5203 27.6175 45.2963 27.6175 45.0457C27.6175 44.6457 27.7668 44.331 28.0655 44.1017C28.3695 43.8723 28.8361 43.7577 29.4655 43.7577H30.4575C30.4575 43.4857 30.3748 43.2777 30.2095 43.1337C30.0441 42.9843 29.7961 42.9097 29.4655 42.9097C29.2361 42.9097 29.0095 42.947 28.7855 43.0217C28.5668 43.091 28.3801 43.187 28.2255 43.3097L27.7775 42.4377C28.0121 42.2723 28.2921 42.1443 28.6175 42.0537C28.9481 41.963 29.2868 41.9177 29.6335 41.9177ZM29.5375 45.5097C29.7508 45.5097 29.9401 45.4617 30.1055 45.3657C30.2708 45.2643 30.3881 45.1177 30.4575 44.9257V44.4857H29.6015C29.0895 44.4857 28.8335 44.6537 28.8335 44.9897C28.8335 45.1497 28.8948 45.2777 29.0175 45.3737C29.1455 45.4643 29.3188 45.5097 29.5375 45.5097ZM35.451 41.9177C35.9843 41.9177 36.4136 42.0777 36.739 42.3977C37.0696 42.7177 37.235 43.1923 37.235 43.8217V46.2857H35.987V44.0137C35.987 43.6723 35.9123 43.419 35.763 43.2537C35.6136 43.083 35.3976 42.9977 35.115 42.9977C34.8003 42.9977 34.5496 43.0963 34.363 43.2937C34.1763 43.4857 34.083 43.7737 34.083 44.1577V46.2857H32.835V41.9817H34.027V42.4857C34.1923 42.3043 34.3976 42.1657 34.643 42.0697C34.8883 41.9683 35.1576 41.9177 35.451 41.9177ZM42.7971 40.3497V46.2857H41.6051V45.7897C41.2958 46.163 40.8478 46.3497 40.2611 46.3497C39.8558 46.3497 39.4878 46.259 39.1571 46.0777C38.8318 45.8963 38.5758 45.6377 38.3891 45.3017C38.2024 44.9657 38.1091 44.5763 38.1091 44.1337C38.1091 43.691 38.2024 43.3017 38.3891 42.9657C38.5758 42.6297 38.8318 42.371 39.1571 42.1897C39.4878 42.0083 39.8558 41.9177 40.2611 41.9177C40.8104 41.9177 41.2398 42.091 41.5491 42.4377V40.3497H42.7971ZM40.4771 45.3257C40.7918 45.3257 41.0531 45.219 41.2611 45.0057C41.4691 44.787 41.5731 44.4963 41.5731 44.1337C41.5731 43.771 41.4691 43.483 41.2611 43.2697C41.0531 43.051 40.7918 42.9417 40.4771 42.9417C40.1571 42.9417 39.8931 43.051 39.6851 43.2697C39.4771 43.483 39.3731 43.771 39.3731 44.1337C39.3731 44.4963 39.4771 44.787 39.6851 45.0057C39.8931 45.219 40.1571 45.3257 40.4771 45.3257ZM46.0002 46.3497C45.5468 46.3497 45.1388 46.2563 44.7762 46.0697C44.4188 45.8777 44.1388 45.6137 43.9362 45.2777C43.7335 44.9417 43.6322 44.5603 43.6322 44.1337C43.6322 43.707 43.7335 43.3257 43.9362 42.9897C44.1388 42.6537 44.4188 42.3923 44.7762 42.2057C45.1388 42.0137 45.5468 41.9177 46.0002 41.9177C46.4535 41.9177 46.8588 42.0137 47.2162 42.2057C47.5735 42.3923 47.8535 42.6537 48.0562 42.9897C48.2588 43.3257 48.3602 43.707 48.3602 44.1337C48.3602 44.5603 48.2588 44.9417 48.0562 45.2777C47.8535 45.6137 47.5735 45.8777 47.2162 46.0697C46.8588 46.2563 46.4535 46.3497 46.0002 46.3497ZM46.0002 45.3257C46.3202 45.3257 46.5815 45.219 46.7842 45.0057C46.9922 44.787 47.0962 44.4963 47.0962 44.1337C47.0962 43.771 46.9922 43.483 46.7842 43.2697C46.5815 43.051 46.3202 42.9417 46.0002 42.9417C45.6802 42.9417 45.4162 43.051 45.2082 43.2697C45.0002 43.483 44.8962 43.771 44.8962 44.1337C44.8962 44.4963 45.0002 44.787 45.2082 45.0057C45.4162 45.219 45.6802 45.3257 46.0002 45.3257ZM49.6663 43.4777C49.4477 43.4777 49.2637 43.403 49.1143 43.2537C48.965 43.1043 48.8903 42.9177 48.8903 42.6937C48.8903 42.4643 48.965 42.2803 49.1143 42.1417C49.2637 41.9977 49.4477 41.9257 49.6663 41.9257C49.885 41.9257 50.069 41.9977 50.2183 42.1417C50.3677 42.2803 50.4423 42.4643 50.4423 42.6937C50.4423 42.9177 50.3677 43.1043 50.2183 43.2537C50.069 43.403 49.885 43.4777 49.6663 43.4777ZM49.6663 46.3497C49.4477 46.3497 49.2637 46.275 49.1143 46.1257C48.965 45.9763 48.8903 45.7897 48.8903 45.5657C48.8903 45.3363 48.965 45.1523 49.1143 45.0137C49.2637 44.8697 49.4477 44.7977 49.6663 44.7977C49.885 44.7977 50.069 44.8697 50.2183 45.0137C50.3677 45.1523 50.4423 45.3363 50.4423 45.5657C50.4423 45.7897 50.3677 45.9763 50.2183 46.1257C50.069 46.275 49.885 46.3497 49.6663 46.3497ZM56.0977 41.9177C56.4977 41.9177 56.8604 42.011 57.1857 42.1977C57.5164 42.379 57.775 42.6377 57.9617 42.9737C58.1484 43.3043 58.2417 43.691 58.2417 44.1337C58.2417 44.5763 58.1484 44.9657 57.9617 45.3017C57.775 45.6323 57.5164 45.891 57.1857 46.0777C56.8604 46.259 56.4977 46.3497 56.0977 46.3497C55.5484 46.3497 55.1164 46.1763 54.8017 45.8297V47.8377H53.5537V41.9817H54.7457V42.4777C55.055 42.1043 55.5057 41.9177 56.0977 41.9177ZM55.8817 45.3257C56.2017 45.3257 56.463 45.219 56.6657 45.0057C56.8737 44.787 56.9777 44.4963 56.9777 44.1337C56.9777 43.771 56.8737 43.483 56.6657 43.2697C56.463 43.051 56.2017 42.9417 55.8817 42.9417C55.5617 42.9417 55.2977 43.051 55.0897 43.2697C54.887 43.483 54.7857 43.771 54.7857 44.1337C54.7857 44.4963 54.887 44.787 55.0897 45.0057C55.2977 45.219 55.5617 45.3257 55.8817 45.3257ZM60.2692 42.5497C60.4185 42.3417 60.6185 42.1843 60.8692 42.0777C61.1252 41.971 61.4185 41.9177 61.7492 41.9177V43.0697C61.6105 43.059 61.5172 43.0537 61.4692 43.0537C61.1118 43.0537 60.8318 43.155 60.6292 43.3577C60.4265 43.555 60.3252 43.8537 60.3252 44.2537V46.2857H59.0772V41.9817H60.2692V42.5497ZM66.6682 44.1497C66.6682 44.1657 66.6602 44.2777 66.6442 44.4857H63.3882C63.4468 44.7523 63.5855 44.963 63.8042 45.1177C64.0228 45.2723 64.2948 45.3497 64.6202 45.3497C64.8442 45.3497 65.0415 45.3177 65.2122 45.2537C65.3882 45.1843 65.5508 45.0777 65.7002 44.9337L66.3642 45.6537C65.9588 46.1177 65.3668 46.3497 64.5882 46.3497C64.1028 46.3497 63.6735 46.2563 63.3002 46.0697C62.9268 45.8777 62.6388 45.6137 62.4362 45.2777C62.2335 44.9417 62.1322 44.5603 62.1322 44.1337C62.1322 43.7123 62.2308 43.3337 62.4282 42.9977C62.6308 42.6563 62.9055 42.3923 63.2522 42.2057C63.6042 42.0137 63.9962 41.9177 64.4282 41.9177C64.8495 41.9177 65.2308 42.0083 65.5722 42.1897C65.9135 42.371 66.1802 42.6323 66.3722 42.9737C66.5695 43.3097 66.6682 43.7017 66.6682 44.1497ZM64.4362 42.8617C64.1535 42.8617 63.9162 42.9417 63.7242 43.1017C63.5322 43.2617 63.4148 43.4803 63.3722 43.7577H65.4922C65.4495 43.4857 65.3322 43.2697 65.1402 43.1097C64.9482 42.9443 64.7135 42.8617 64.4362 42.8617ZM68.947 46.3497C68.5897 46.3497 68.2404 46.307 67.899 46.2217C67.5577 46.131 67.2857 46.019 67.083 45.8857L67.499 44.9897C67.691 45.1123 67.923 45.2137 68.195 45.2937C68.467 45.3683 68.7337 45.4057 68.995 45.4057C69.523 45.4057 69.787 45.275 69.787 45.0137C69.787 44.891 69.715 44.803 69.571 44.7497C69.427 44.6963 69.2057 44.651 68.907 44.6137C68.555 44.5603 68.2644 44.499 68.035 44.4297C67.8057 44.3603 67.6057 44.2377 67.435 44.0617C67.2697 43.8857 67.187 43.635 67.187 43.3097C67.187 43.0377 67.2644 42.7977 67.419 42.5897C67.579 42.3763 67.8084 42.211 68.107 42.0937C68.411 41.9763 68.7684 41.9177 69.179 41.9177C69.483 41.9177 69.7844 41.9523 70.083 42.0217C70.387 42.0857 70.6377 42.1763 70.835 42.2937L70.419 43.1817C70.0404 42.9683 69.627 42.8617 69.179 42.8617C68.9124 42.8617 68.7124 42.899 68.579 42.9737C68.4457 43.0483 68.379 43.1443 68.379 43.2617C68.379 43.395 68.451 43.4883 68.595 43.5417C68.739 43.595 68.9684 43.6457 69.283 43.6937C69.635 43.7523 69.923 43.8163 70.147 43.8857C70.371 43.9497 70.5657 44.0697 70.731 44.2457C70.8964 44.4217 70.979 44.667 70.979 44.9817C70.979 45.2483 70.899 45.4857 70.739 45.6937C70.579 45.9017 70.3444 46.0643 70.035 46.1817C69.731 46.2937 69.3684 46.3497 68.947 46.3497ZM71.749 41.9817H72.997V46.2857H71.749V41.9817ZM72.373 41.3817C72.1437 41.3817 71.957 41.315 71.813 41.1817C71.669 41.0483 71.597 40.883 71.597 40.6857C71.597 40.4883 71.669 40.323 71.813 40.1897C71.957 40.0563 72.1437 39.9897 72.373 39.9897C72.6024 39.9897 72.789 40.0537 72.933 40.1817C73.077 40.3097 73.149 40.4697 73.149 40.6617C73.149 40.8697 73.077 41.043 72.933 41.1817C72.789 41.315 72.6024 41.3817 72.373 41.3817ZM76.2033 46.3497C75.7499 46.3497 75.3419 46.2563 74.9793 46.0697C74.6219 45.8777 74.3419 45.6137 74.1393 45.2777C73.9366 44.9417 73.8353 44.5603 73.8353 44.1337C73.8353 43.707 73.9366 43.3257 74.1393 42.9897C74.3419 42.6537 74.6219 42.3923 74.9793 42.2057C75.3419 42.0137 75.7499 41.9177 76.2033 41.9177C76.6566 41.9177 77.0619 42.0137 77.4193 42.2057C77.7766 42.3923 78.0566 42.6537 78.2593 42.9897C78.4619 43.3257 78.5633 43.707 78.5633 44.1337C78.5633 44.5603 78.4619 44.9417 78.2593 45.2777C78.0566 45.6137 77.7766 45.8777 77.4193 46.0697C77.0619 46.2563 76.6566 46.3497 76.2033 46.3497ZM76.2033 45.3257C76.5233 45.3257 76.7846 45.219 76.9873 45.0057C77.1953 44.787 77.2993 44.4963 77.2993 44.1337C77.2993 43.771 77.1953 43.483 76.9873 43.2697C76.7846 43.051 76.5233 42.9417 76.2033 42.9417C75.8833 42.9417 75.6193 43.051 75.4113 43.2697C75.2033 43.483 75.0993 43.771 75.0993 44.1337C75.0993 44.4963 75.2033 44.787 75.4113 45.0057C75.6193 45.219 75.8833 45.3257 76.2033 45.3257ZM82.0135 41.9177C82.5468 41.9177 82.9761 42.0777 83.3015 42.3977C83.6321 42.7177 83.7975 43.1923 83.7975 43.8217V46.2857H82.5495V44.0137C82.5495 43.6723 82.4748 43.419 82.3255 43.2537C82.1761 43.083 81.9601 42.9977 81.6775 42.9977C81.3628 42.9977 81.1121 43.0963 80.9255 43.2937C80.7388 43.4857 80.6455 43.7737 80.6455 44.1577V46.2857H79.3975V41.9817H80.5895V42.4857C80.7548 42.3043 80.9601 42.1657 81.2055 42.0697C81.4508 41.9683 81.7201 41.9177 82.0135 41.9177ZM86.6647 41.9177C87.3314 41.9177 87.8434 42.0777 88.2007 42.3977C88.558 42.7123 88.7367 43.1897 88.7367 43.8297V46.2857H87.5687V45.7497C87.334 46.1497 86.8967 46.3497 86.2567 46.3497C85.926 46.3497 85.638 46.2937 85.3927 46.1817C85.1527 46.0697 84.9687 45.915 84.8407 45.7177C84.7127 45.5203 84.6487 45.2963 84.6487 45.0457C84.6487 44.6457 84.798 44.331 85.0967 44.1017C85.4007 43.8723 85.8674 43.7577 86.4967 43.7577H87.4887C87.4887 43.4857 87.406 43.2777 87.2407 43.1337C87.0754 42.9843 86.8274 42.9097 86.4967 42.9097C86.2674 42.9097 86.0407 42.947 85.8167 43.0217C85.598 43.091 85.4114 43.187 85.2567 43.3097L84.8087 42.4377C85.0434 42.2723 85.3234 42.1443 85.6487 42.0537C85.9794 41.963 86.318 41.9177 86.6647 41.9177ZM86.5687 45.5097C86.782 45.5097 86.9714 45.4617 87.1367 45.3657C87.302 45.2643 87.4194 45.1177 87.4887 44.9257V44.4857H86.6327C86.1207 44.4857 85.8647 44.6537 85.8647 44.9897C85.8647 45.1497 85.926 45.2777 86.0487 45.3737C86.1767 45.4643 86.35 45.5097 86.5687 45.5097ZM91.0582 42.5497C91.2075 42.3417 91.4075 42.1843 91.6582 42.0777C91.9142 41.971 92.2075 41.9177 92.5382 41.9177V43.0697C92.3995 43.059 92.3062 43.0537 92.2582 43.0537C91.9009 43.0537 91.6209 43.155 91.4182 43.3577C91.2155 43.555 91.1142 43.8537 91.1142 44.2537V46.2857H89.8662V41.9817H91.0582V42.5497ZM98.1212 41.9177C98.5212 41.9177 98.8838 42.011 99.2092 42.1977C99.5398 42.379 99.7985 42.6377 99.9852 42.9737C100.172 43.3043 100.265 43.691 100.265 44.1337C100.265 44.5763 100.172 44.9657 99.9852 45.3017C99.7985 45.6323 99.5398 45.891 99.2092 46.0777C98.8838 46.259 98.5212 46.3497 98.1212 46.3497C97.5292 46.3497 97.0785 46.163 96.7692 45.7897V46.2857H95.5772V40.3497H96.8252V42.4377C97.1398 42.091 97.5718 41.9177 98.1212 41.9177ZM97.9052 45.3257C98.2252 45.3257 98.4865 45.219 98.6892 45.0057C98.8972 44.787 99.0012 44.4963 99.0012 44.1337C99.0012 43.771 98.8972 43.483 98.6892 43.2697C98.4865 43.051 98.2252 42.9417 97.9052 42.9417C97.5852 42.9417 97.3212 43.051 97.1132 43.2697C96.9105 43.483 96.8092 43.771 96.8092 44.1337C96.8092 44.4963 96.9105 44.787 97.1132 45.0057C97.3212 45.219 97.5852 45.3257 97.9052 45.3257ZM103.149 46.3497C102.695 46.3497 102.287 46.2563 101.925 46.0697C101.567 45.8777 101.287 45.6137 101.085 45.2777C100.882 44.9417 100.781 44.5603 100.781 44.1337C100.781 43.707 100.882 43.3257 101.085 42.9897C101.287 42.6537 101.567 42.3923 101.925 42.2057C102.287 42.0137 102.695 41.9177 103.149 41.9177C103.602 41.9177 104.007 42.0137 104.365 42.2057C104.722 42.3923 105.002 42.6537 105.205 42.9897C105.407 43.3257 105.509 43.707 105.509 44.1337C105.509 44.5603 105.407 44.9417 105.205 45.2777C105.002 45.6137 104.722 45.8777 104.365 46.0697C104.007 46.2563 103.602 46.3497 103.149 46.3497ZM103.149 45.3257C103.469 45.3257 103.73 45.219 103.933 45.0057C104.141 44.787 104.245 44.4963 104.245 44.1337C104.245 43.771 104.141 43.483 103.933 43.2697C103.73 43.051 103.469 42.9417 103.149 42.9417C102.829 42.9417 102.565 43.051 102.357 43.2697C102.149 43.483 102.045 43.771 102.045 44.1337C102.045 44.4963 102.149 44.787 102.357 45.0057C102.565 45.219 102.829 45.3257 103.149 45.3257ZM109.119 46.0777C108.996 46.1683 108.844 46.2377 108.663 46.2857C108.487 46.3283 108.3 46.3497 108.103 46.3497C107.591 46.3497 107.193 46.219 106.911 45.9577C106.633 45.6963 106.495 45.3123 106.495 44.8057V43.0377H105.831V42.0777H106.495V41.0297H107.743V42.0777H108.815V43.0377H107.743V44.7897C107.743 44.971 107.788 45.1123 107.879 45.2137C107.975 45.3097 108.108 45.3577 108.279 45.3577C108.476 45.3577 108.644 45.3043 108.783 45.1977L109.119 46.0777ZM111.735 46.3497C111.281 46.3497 110.873 46.2563 110.511 46.0697C110.153 45.8777 109.873 45.6137 109.671 45.2777C109.468 44.9417 109.367 44.5603 109.367 44.1337C109.367 43.707 109.468 43.3257 109.671 42.9897C109.873 42.6537 110.153 42.3923 110.511 42.2057C110.873 42.0137 111.281 41.9177 111.735 41.9177C112.188 41.9177 112.593 42.0137 112.951 42.2057C113.308 42.3923 113.588 42.6537 113.791 42.9897C113.993 43.3257 114.095 43.707 114.095 44.1337C114.095 44.5603 113.993 44.9417 113.791 45.2777C113.588 45.6137 113.308 45.8777 112.951 46.0697C112.593 46.2563 112.188 46.3497 111.735 46.3497ZM111.735 45.3257C112.055 45.3257 112.316 45.219 112.519 45.0057C112.727 44.787 112.831 44.4963 112.831 44.1337C112.831 43.771 112.727 43.483 112.519 43.2697C112.316 43.051 112.055 42.9417 111.735 42.9417C111.415 42.9417 111.151 43.051 110.943 43.2697C110.735 43.483 110.631 43.771 110.631 44.1337C110.631 44.4963 110.735 44.787 110.943 45.0057C111.151 45.219 111.415 45.3257 111.735 45.3257ZM112.071 40.2777H113.415L111.967 41.4297H110.991L112.071 40.2777ZM117.545 41.9177C118.078 41.9177 118.507 42.0777 118.833 42.3977C119.163 42.7177 119.329 43.1923 119.329 43.8217V46.2857H118.081V44.0137C118.081 43.6723 118.006 43.419 117.857 43.2537C117.707 43.083 117.491 42.9977 117.209 42.9977C116.894 42.9977 116.643 43.0963 116.457 43.2937C116.27 43.4857 116.177 43.7737 116.177 44.1577V46.2857H114.929V41.9817H116.121V42.4857C116.286 42.3043 116.491 42.1657 116.737 42.0697C116.982 41.9683 117.251 41.9177 117.545 41.9177ZM122.726 41.9817H123.974V46.2857H122.726V41.9817ZM123.35 41.3817C123.12 41.3817 122.934 41.315 122.79 41.1817C122.646 41.0483 122.574 40.883 122.574 40.6857C122.574 40.4883 122.646 40.323 122.79 40.1897C122.934 40.0563 123.12 39.9897 123.35 39.9897C123.579 39.9897 123.766 40.0537 123.91 40.1817C124.054 40.3097 124.126 40.4697 124.126 40.6617C124.126 40.8697 124.054 41.043 123.91 41.1817C123.766 41.315 123.579 41.3817 123.35 41.3817ZM127.748 41.9177C128.281 41.9177 128.711 42.0777 129.036 42.3977C129.367 42.7177 129.532 43.1923 129.532 43.8217V46.2857H128.284V44.0137C128.284 43.6723 128.209 43.419 128.06 43.2537C127.911 43.083 127.695 42.9977 127.412 42.9977C127.097 42.9977 126.847 43.0963 126.66 43.2937C126.473 43.4857 126.38 43.7737 126.38 44.1577V46.2857H125.132V41.9817H126.324V42.4857C126.489 42.3043 126.695 42.1657 126.94 42.0697C127.185 41.9683 127.455 41.9177 127.748 41.9177ZM130.663 41.9817H131.911V46.2857H130.663V41.9817ZM131.287 41.3817C131.058 41.3817 130.871 41.315 130.727 41.1817C130.583 41.0483 130.511 40.883 130.511 40.6857C130.511 40.4883 130.583 40.323 130.727 40.1897C130.871 40.0563 131.058 39.9897 131.287 39.9897C131.516 39.9897 131.703 40.0537 131.847 40.1817C131.991 40.3097 132.063 40.4697 132.063 40.6617C132.063 40.8697 131.991 41.043 131.847 41.1817C131.703 41.315 131.516 41.3817 131.287 41.3817ZM135.149 46.3497C134.691 46.3497 134.277 46.2563 133.909 46.0697C133.547 45.8777 133.261 45.6137 133.053 45.2777C132.851 44.9417 132.749 44.5603 132.749 44.1337C132.749 43.707 132.851 43.3257 133.053 42.9897C133.261 42.6537 133.547 42.3923 133.909 42.2057C134.277 42.0137 134.691 41.9177 135.149 41.9177C135.603 41.9177 135.997 42.0137 136.333 42.2057C136.675 42.3923 136.923 42.6617 137.077 43.0137L136.109 43.5337C135.885 43.139 135.563 42.9417 135.141 42.9417C134.816 42.9417 134.547 43.0483 134.333 43.2617C134.12 43.475 134.013 43.7657 134.013 44.1337C134.013 44.5017 134.12 44.7923 134.333 45.0057C134.547 45.219 134.816 45.3257 135.141 45.3257C135.568 45.3257 135.891 45.1283 136.109 44.7337L137.077 45.2617C136.923 45.603 136.675 45.8697 136.333 46.0617C135.997 46.2537 135.603 46.3497 135.149 46.3497ZM137.796 41.9817H139.044V46.2857H137.796V41.9817ZM138.42 41.3817C138.191 41.3817 138.004 41.315 137.86 41.1817C137.716 41.0483 137.644 40.883 137.644 40.6857C137.644 40.4883 137.716 40.323 137.86 40.1897C138.004 40.0563 138.191 39.9897 138.42 39.9897C138.649 39.9897 138.836 40.0537 138.98 40.1817C139.124 40.3097 139.196 40.4697 139.196 40.6617C139.196 40.8697 139.124 41.043 138.98 41.1817C138.836 41.315 138.649 41.3817 138.42 41.3817ZM141.938 41.9177C142.605 41.9177 143.117 42.0777 143.474 42.3977C143.831 42.7123 144.01 43.1897 144.01 43.8297V46.2857H142.842V45.7497C142.607 46.1497 142.17 46.3497 141.53 46.3497C141.199 46.3497 140.911 46.2937 140.666 46.1817C140.426 46.0697 140.242 45.915 140.114 45.7177C139.986 45.5203 139.922 45.2963 139.922 45.0457C139.922 44.6457 140.071 44.331 140.37 44.1017C140.674 43.8723 141.141 43.7577 141.77 43.7577H142.762C142.762 43.4857 142.679 43.2777 142.514 43.1337C142.349 42.9843 142.101 42.9097 141.77 42.9097C141.541 42.9097 141.314 42.947 141.09 43.0217C140.871 43.091 140.685 43.187 140.53 43.3097L140.082 42.4377C140.317 42.2723 140.597 42.1443 140.922 42.0537C141.253 41.963 141.591 41.9177 141.938 41.9177ZM141.842 45.5097C142.055 45.5097 142.245 45.4617 142.41 45.3657C142.575 45.2643 142.693 45.1177 142.762 44.9257V44.4857H141.906C141.394 44.4857 141.138 44.6537 141.138 44.9897C141.138 45.1497 141.199 45.2777 141.322 45.3737C141.45 45.4643 141.623 45.5097 141.842 45.5097ZM146.332 42.5497C146.481 42.3417 146.681 42.1843 146.932 42.0777C147.188 41.971 147.481 41.9177 147.812 41.9177V43.0697C147.673 43.059 147.58 43.0537 147.532 43.0537C147.174 43.0537 146.894 43.155 146.692 43.3577C146.489 43.555 146.388 43.8537 146.388 44.2537V46.2857H145.14V41.9817H146.332V42.5497ZM148.979 46.3497C148.76 46.3497 148.576 46.275 148.427 46.1257C148.278 45.9763 148.203 45.7897 148.203 45.5657C148.203 45.3363 148.278 45.1523 148.427 45.0137C148.576 44.8697 148.76 44.7977 148.979 44.7977C149.198 44.7977 149.382 44.8697 149.531 45.0137C149.68 45.1523 149.755 45.3363 149.755 45.5657C149.755 45.7897 149.68 45.9763 149.531 46.1257C149.382 46.275 149.198 46.3497 148.979 46.3497Z" fill="#333333"/>
<path fill-rule="evenodd" clip-rule="evenodd" d="M170.357 69.419C170.357 62.3571 164.571 56.5667 157.5 56.5667C117.753 56.5667 101.571 56.5714 101.571 56.5714L96.4285 61.7143H72.6428L66.8571 56.5713H44.4515C37.3801 56.5713 31.5944 62.3572 31.5944 69.4237C31.5944 69.4284 31.5944 69.4332 31.5944 69.4381C31.5944 76.5 37.3801 82.2857 44.4515 82.2857C55.0992 82.2857 66.8572 82.2857 66.8572 82.2857L72.6429 87.4286H96.4286L101.571 82.2857H157.594C164.571 82.2857 170.357 76.5 170.357 69.4334C170.357 69.4286 170.357 69.75 170.357 69.419Z" fill="#30DCFF"/>
<path fill-rule="evenodd" clip-rule="evenodd" d="M170.357 69.4214C170.357 62.3571 164.571 56.5714 157.406 56.5714C117.659 56.5714 101.571 56.5715 101.571 56.5715L96.4286 61.7143H72.6429L66.8571 56.5715H44.3571C37.2857 56.5715 31.5 62.3572 31.5 69.4214C31.5 69.4261 31.5 69.4286 31.5 69.4286H34.7143C34.7143 63 39.2143 59.7858 44.3571 59.7858C53.784 59.7858 65.5714 59.7857 65.5714 59.7857L71.3571 64.9286H97.7143L102.857 59.7857H157.5C163.286 59.7857 167.143 63.6429 167.143 69.4284L170.357 69.4286V69.4214Z" fill="white" fill-opacity="0.5"/>
<path fill-rule="evenodd" clip-rule="evenodd" d="M170.357 69.4285L167.143 69.4285C167.143 75.1957 163.412 79.0714 157.5 79.0714C120.854 79.0714 100.286 79.0714 100.286 79.0714L95.1429 84.2143H73.9286L68.1429 79.0714H44.3571C37.6047 79.0714 34.7143 75.2143 34.7143 69.4295L31.5 69.4285V69.4358C31.5 76.5 37.2857 82.2857 44.3571 82.2857C55.0048 82.2857 66.8571 82.2857 66.8571 82.2857L72.6429 87.4285H96.4286L101.571 82.2857H157.5C164.571 82.2857 170.357 76.5 170.357 69.4285Z" fill="black" fill-opacity="0.25"/>
<path d="M37.8566 74.5714L40.3526 68.9714H41.6326L44.1366 74.5714H42.7766L40.7286 69.6274H41.2406L39.1846 74.5714H37.8566ZM39.1046 73.3714L39.4486 72.3874H42.3286L42.6806 73.3714H39.1046ZM46.0385 74.6354C45.6705 74.6354 45.3158 74.5928 44.9745 74.5074C44.6385 74.4168 44.3718 74.3048 44.1745 74.1714L44.5905 73.2754C44.7878 73.3981 45.0198 73.4994 45.2865 73.5794C45.5585 73.6541 45.8252 73.6914 46.0865 73.6914C46.3745 73.6914 46.5772 73.6568 46.6945 73.5874C46.8172 73.5181 46.8785 73.4221 46.8785 73.2994C46.8785 73.1981 46.8305 73.1234 46.7345 73.0754C46.6438 73.0221 46.5212 72.9821 46.3665 72.9554C46.2118 72.9288 46.0412 72.9021 45.8545 72.8754C45.6732 72.8488 45.4892 72.8141 45.3025 72.7714C45.1158 72.7234 44.9452 72.6541 44.7905 72.5634C44.6358 72.4728 44.5105 72.3501 44.4145 72.1954C44.3238 72.0408 44.2785 71.8408 44.2785 71.5954C44.2785 71.3234 44.3558 71.0834 44.5105 70.8754C44.6705 70.6674 44.8998 70.5048 45.1985 70.3874C45.4972 70.2648 45.8545 70.2034 46.2705 70.2034C46.5638 70.2034 46.8625 70.2354 47.1665 70.2994C47.4705 70.3634 47.7238 70.4568 47.9265 70.5794L47.5105 71.4674C47.3025 71.3448 47.0918 71.2621 46.8785 71.2194C46.6705 71.1714 46.4678 71.1474 46.2705 71.1474C45.9932 71.1474 45.7905 71.1848 45.6625 71.2594C45.5345 71.3341 45.4705 71.4301 45.4705 71.5474C45.4705 71.6541 45.5158 71.7341 45.6065 71.7874C45.7025 71.8408 45.8278 71.8834 45.9825 71.9154C46.1372 71.9474 46.3052 71.9768 46.4865 72.0034C46.6732 72.0248 46.8598 72.0594 47.0465 72.1074C47.2332 72.1554 47.4012 72.2248 47.5505 72.3154C47.7052 72.4008 47.8305 72.5208 47.9265 72.6754C48.0225 72.8248 48.0705 73.0221 48.0705 73.2674C48.0705 73.5341 47.9905 73.7714 47.8305 73.9794C47.6705 74.1821 47.4385 74.3421 47.1345 74.4594C46.8358 74.5768 46.4705 74.6354 46.0385 74.6354ZM48.8405 74.5714V70.2674H50.0885V74.5714H48.8405ZM49.4645 69.6674C49.2352 69.6674 49.0485 69.6008 48.9045 69.4674C48.7605 69.3341 48.6885 69.1688 48.6885 68.9714C48.6885 68.7741 48.7605 68.6088 48.9045 68.4754C49.0485 68.3421 49.2352 68.2754 49.4645 68.2754C49.6938 68.2754 49.8805 68.3394 50.0245 68.4674C50.1685 68.5901 50.2405 68.7501 50.2405 68.9474C50.2405 69.1554 50.1685 69.3288 50.0245 69.4674C49.8858 69.6008 49.6992 69.6674 49.4645 69.6674ZM53.2708 76.1874C52.8654 76.1874 52.4734 76.1368 52.0948 76.0354C51.7214 75.9394 51.4094 75.7928 51.1588 75.5954L51.6548 74.6994C51.8361 74.8488 52.0654 74.9661 52.3428 75.0514C52.6254 75.1421 52.9028 75.1874 53.1748 75.1874C53.6174 75.1874 53.9374 75.0888 54.1348 74.8914C54.3374 74.6941 54.4388 74.4008 54.4388 74.0114V73.3634L54.5188 72.2834L54.5028 71.1954V70.2674H55.6868V73.8514C55.6868 74.6514 55.4788 75.2408 55.0628 75.6194C54.6468 75.9981 54.0494 76.1874 53.2708 76.1874ZM53.0788 74.3634C52.6788 74.3634 52.3161 74.2781 51.9908 74.1074C51.6708 73.9314 51.4121 73.6888 51.2148 73.3794C51.0228 73.0648 50.9268 72.6994 50.9268 72.2834C50.9268 71.8621 51.0228 71.4968 51.2148 71.1874C51.4121 70.8728 51.6708 70.6301 51.9908 70.4594C52.3161 70.2888 52.6788 70.2034 53.0788 70.2034C53.4414 70.2034 53.7614 70.2781 54.0388 70.4274C54.3161 70.5714 54.5321 70.7981 54.6868 71.1074C54.8414 71.4114 54.9188 71.8034 54.9188 72.2834C54.9188 72.7581 54.8414 73.1501 54.6868 73.4594C54.5321 73.7634 54.3161 73.9901 54.0388 74.1394C53.7614 74.2888 53.4414 74.3634 53.0788 74.3634ZM53.3268 73.3394C53.5454 73.3394 53.7401 73.2968 53.9108 73.2114C54.0814 73.1208 54.2148 72.9954 54.3108 72.8354C54.4068 72.6754 54.4548 72.4914 54.4548 72.2834C54.4548 72.0701 54.4068 71.8861 54.3108 71.7314C54.2148 71.5714 54.0814 71.4488 53.9108 71.3634C53.7401 71.2728 53.5454 71.2274 53.3268 71.2274C53.1081 71.2274 52.9134 71.2728 52.7428 71.3634C52.5721 71.4488 52.4361 71.5714 52.3348 71.7314C52.2388 71.8861 52.1908 72.0701 52.1908 72.2834C52.1908 72.4914 52.2388 72.6754 52.3348 72.8354C52.4361 72.9954 52.5721 73.1208 52.7428 73.2114C52.9134 73.2968 53.1081 73.3394 53.3268 73.3394ZM59.4643 70.2034C59.8057 70.2034 60.1097 70.2728 60.3763 70.4114C60.6483 70.5448 60.8617 70.7528 61.0163 71.0354C61.171 71.3128 61.2483 71.6701 61.2483 72.1074V74.5714H60.0003V72.2994C60.0003 71.9528 59.923 71.6968 59.7683 71.5314C59.619 71.3661 59.4057 71.2834 59.1283 71.2834C58.931 71.2834 58.7523 71.3261 58.5923 71.4114C58.4377 71.4914 58.315 71.6168 58.2243 71.7874C58.139 71.9581 58.0963 72.1768 58.0963 72.4434V74.5714H56.8483V70.2674H58.0403V71.4594L57.8163 71.0994C57.971 70.8114 58.1923 70.5901 58.4803 70.4354C58.7683 70.2808 59.0963 70.2034 59.4643 70.2034ZM65.0196 74.5714V73.7314L64.9396 73.5474V72.0434C64.9396 71.7768 64.8569 71.5688 64.6916 71.4194C64.5316 71.2701 64.2836 71.1954 63.9476 71.1954C63.7182 71.1954 63.4916 71.2328 63.2676 71.3074C63.0489 71.3768 62.8622 71.4728 62.7076 71.5954L62.2596 70.7234C62.4942 70.5581 62.7769 70.4301 63.1076 70.3394C63.4382 70.2488 63.7742 70.2034 64.1156 70.2034C64.7716 70.2034 65.2809 70.3581 65.6436 70.6674C66.0062 70.9768 66.1876 71.4594 66.1876 72.1154V74.5714H65.0196ZM63.7076 74.6354C63.3716 74.6354 63.0836 74.5794 62.8436 74.4674C62.6036 74.3501 62.4196 74.1928 62.2916 73.9954C62.1636 73.7981 62.0996 73.5768 62.0996 73.3314C62.0996 73.0754 62.1609 72.8514 62.2836 72.6594C62.4116 72.4674 62.6116 72.3181 62.8836 72.2114C63.1556 72.0994 63.5102 72.0434 63.9476 72.0434H65.0916V72.7714H64.0836C63.7902 72.7714 63.5876 72.8194 63.4756 72.9154C63.3689 73.0114 63.3156 73.1314 63.3156 73.2754C63.3156 73.4354 63.3769 73.5634 63.4996 73.6594C63.6276 73.7501 63.8009 73.7954 64.0196 73.7954C64.2276 73.7954 64.4142 73.7474 64.5796 73.6514C64.7449 73.5501 64.8649 73.4034 64.9396 73.2114L65.1316 73.7874C65.0409 74.0648 64.8756 74.2754 64.6356 74.4194C64.3956 74.5634 64.0862 74.6354 63.7076 74.6354ZM67.3171 74.5714V70.2674H68.5091V71.4834L68.3411 71.1314C68.4691 70.8274 68.6744 70.5981 68.9571 70.4434C69.2397 70.2834 69.5837 70.2034 69.9891 70.2034V71.3554C69.9357 71.3501 69.8877 71.3474 69.8451 71.3474C69.8024 71.3421 69.7571 71.3394 69.7091 71.3394C69.3677 71.3394 69.0904 71.4381 68.8771 71.6354C68.6691 71.8274 68.5651 72.1288 68.5651 72.5394V74.5714H67.3171ZM73.628 74.5714V69.4514L74.188 70.0114H72.508V68.9714H74.924V74.5714H73.628ZM78.2968 74.6674C77.8382 74.6674 77.4275 74.5554 77.0648 74.3314C76.7022 74.1021 76.4168 73.7714 76.2088 73.3394C76.0008 72.9074 75.8968 72.3848 75.8968 71.7714C75.8968 71.1581 76.0008 70.6354 76.2088 70.2034C76.4168 69.7714 76.7022 69.4434 77.0648 69.2194C77.4275 68.9901 77.8382 68.8754 78.2968 68.8754C78.7608 68.8754 79.1715 68.9901 79.5288 69.2194C79.8915 69.4434 80.1768 69.7714 80.3848 70.2034C80.5928 70.6354 80.6968 71.1581 80.6968 71.7714C80.6968 72.3848 80.5928 72.9074 80.3848 73.3394C80.1768 73.7714 79.8915 74.1021 79.5288 74.3314C79.1715 74.5554 78.7608 74.6674 78.2968 74.6674ZM78.2968 73.5714C78.5155 73.5714 78.7048 73.5101 78.8648 73.3874C79.0302 73.2648 79.1582 73.0701 79.2488 72.8034C79.3448 72.5368 79.3928 72.1928 79.3928 71.7714C79.3928 71.3501 79.3448 71.0061 79.2488 70.7394C79.1582 70.4728 79.0302 70.2781 78.8648 70.1554C78.7048 70.0328 78.5155 69.9714 78.2968 69.9714C78.0835 69.9714 77.8942 70.0328 77.7288 70.1554C77.5688 70.2781 77.4408 70.4728 77.3448 70.7394C77.2542 71.0061 77.2088 71.3501 77.2088 71.7714C77.2088 72.1928 77.2542 72.5368 77.3448 72.8034C77.4408 73.0701 77.5688 73.2648 77.7288 73.3874C77.8942 73.5101 78.0835 73.5714 78.2968 73.5714ZM86.4961 74.5714V73.7314L86.4161 73.5474V72.0434C86.4161 71.7768 86.3335 71.5688 86.1681 71.4194C86.0081 71.2701 85.7601 71.1954 85.4241 71.1954C85.1948 71.1954 84.9681 71.2328 84.7441 71.3074C84.5255 71.3768 84.3388 71.4728 84.1841 71.5954L83.7361 70.7234C83.9708 70.5581 84.2535 70.4301 84.5841 70.3394C84.9148 70.2488 85.2508 70.2034 85.5921 70.2034C86.2481 70.2034 86.7575 70.3581 87.1201 70.6674C87.4828 70.9768 87.6641 71.4594 87.6641 72.1154V74.5714H86.4961ZM85.1841 74.6354C84.8481 74.6354 84.5601 74.5794 84.3201 74.4674C84.0801 74.3501 83.8961 74.1928 83.7681 73.9954C83.6401 73.7981 83.5761 73.5768 83.5761 73.3314C83.5761 73.0754 83.6375 72.8514 83.7601 72.6594C83.8881 72.4674 84.0881 72.3181 84.3601 72.2114C84.6321 72.0994 84.9868 72.0434 85.4241 72.0434H86.5681V72.7714H85.5601C85.2668 72.7714 85.0641 72.8194 84.9521 72.9154C84.8455 73.0114 84.7921 73.1314 84.7921 73.2754C84.7921 73.4354 84.8535 73.5634 84.9761 73.6594C85.1041 73.7501 85.2775 73.7954 85.4961 73.7954C85.7041 73.7954 85.8908 73.7474 86.0561 73.6514C86.2215 73.5501 86.3415 73.4034 86.4161 73.2114L86.6081 73.7874C86.5175 74.0648 86.3521 74.2754 86.1121 74.4194C85.8721 74.5634 85.5628 74.6354 85.1841 74.6354ZM90.5073 74.5714L92.9153 71.2514V72.1954L90.6113 68.9714H92.0833L93.6753 71.2194L93.0593 71.2274L94.6273 68.9714H96.0353L93.7473 72.1394V71.2114L96.1713 74.5714H94.6753L93.0273 72.1954H93.6193L91.9953 74.5714H90.5073Z" fill="#333333"/>
<path fill-rule="evenodd" clip-rule="evenodd" d="M170.357 95.1333C170.357 88.0714 164.571 82.281 157.5 82.281C117.753 82.281 101.571 82.2857 101.571 82.2857L96.4285 87.4286H72.6428L66.8571 82.2856H44.4515C37.3801 82.2856 31.5944 88.0714 31.5944 95.1379C31.5944 95.1426 31.5944 95.1475 31.5944 95.1524C31.5944 102.214 37.3801 108 44.4515 108C55.0992 108 66.8572 108 66.8572 108L72.6429 113.143H96.4286L101.571 108H157.594C164.571 108 170.357 102.214 170.357 95.1477C170.357 95.1428 170.357 95.4643 170.357 95.1333Z" fill="#30DCFF"/>
<path fill-rule="evenodd" clip-rule="evenodd" d="M170.357 95.1356C170.357 88.0714 164.571 82.2857 157.406 82.2857C117.659 82.2857 101.571 82.2858 101.571 82.2858L96.4286 87.4286H72.6429L66.8571 82.2857H44.3571C37.2857 82.2857 31.5 88.0715 31.5 95.1357C31.5 95.1404 31.5 95.1429 31.5 95.1429H34.7143C34.7143 88.7143 39.2143 85.5 44.3571 85.5C53.784 85.5 65.5714 85.5 65.5714 85.5L71.3571 90.6429H97.7143L102.857 85.5H157.5C163.286 85.5 167.143 89.3571 167.143 95.1427L170.357 95.1429V95.1356Z" fill="white" fill-opacity="0.5"/>
<path fill-rule="evenodd" clip-rule="evenodd" d="M170.357 95.1428L167.143 95.1428C167.143 100.91 163.412 104.786 157.5 104.786C120.854 104.786 100.286 104.786 100.286 104.786L95.1429 109.929H73.9286L68.1429 104.786H44.3571C37.6047 104.786 34.7143 100.929 34.7143 95.1438L31.5 95.1428V95.15C31.5 102.214 37.2857 108 44.3571 108C55.0048 108 66.8571 108 66.8571 108L72.6429 113.143H96.4286L101.571 108H157.5C164.571 108 170.357 102.214 170.357 95.1428Z" fill="black" fill-opacity="0.25"/>
<path d="M38.664 100V94.4H39.96V100H38.664ZM43.817 95.632C44.1583 95.632 44.4623 95.7013 44.729 95.84C45.001 95.9733 45.2143 96.1813 45.369 96.464C45.5237 96.7413 45.601 97.0987 45.601 97.536V100H44.353V97.728C44.353 97.3813 44.2757 97.1253 44.121 96.96C43.9717 96.7947 43.7583 96.712 43.481 96.712C43.2837 96.712 43.105 96.7547 42.945 96.84C42.7903 96.92 42.6677 97.0453 42.577 97.216C42.4917 97.3867 42.449 97.6053 42.449 97.872V100H41.201V95.696H42.393V96.888L42.169 96.528C42.3237 96.24 42.545 96.0187 42.833 95.864C43.121 95.7093 43.449 95.632 43.817 95.632ZM48.8435 100.064C48.3795 100.064 47.9662 99.9707 47.6035 99.784C47.2408 99.592 46.9555 99.328 46.7475 98.992C46.5448 98.656 46.4435 98.2747 46.4435 97.848C46.4435 97.416 46.5448 97.0347 46.7475 96.704C46.9555 96.368 47.2408 96.1067 47.6035 95.92C47.9662 95.728 48.3795 95.632 48.8435 95.632C49.2968 95.632 49.6915 95.728 50.0275 95.92C50.3635 96.1067 50.6115 96.376 50.7715 96.728L49.8035 97.248C49.6915 97.0453 49.5502 96.896 49.3795 96.8C49.2142 96.704 49.0328 96.656 48.8355 96.656C48.6222 96.656 48.4302 96.704 48.2595 96.8C48.0888 96.896 47.9528 97.032 47.8515 97.208C47.7555 97.384 47.7075 97.5973 47.7075 97.848C47.7075 98.0987 47.7555 98.312 47.8515 98.488C47.9528 98.664 48.0888 98.8 48.2595 98.896C48.4302 98.992 48.6222 99.04 48.8355 99.04C49.0328 99.04 49.2142 98.9947 49.3795 98.904C49.5502 98.808 49.6915 98.656 49.8035 98.448L50.7715 98.976C50.6115 99.3227 50.3635 99.592 50.0275 99.784C49.6915 99.9707 49.2968 100.064 48.8435 100.064ZM51.4901 100V95.696H52.6821V96.912L52.5141 96.56C52.6421 96.256 52.8474 96.0267 53.1301 95.872C53.4127 95.712 53.7567 95.632 54.1621 95.632V96.784C54.1087 96.7787 54.0607 96.776 54.0181 96.776C53.9754 96.7707 53.9301 96.768 53.8821 96.768C53.5407 96.768 53.2634 96.8667 53.0501 97.064C52.8421 97.256 52.7381 97.5573 52.7381 97.968V100H51.4901ZM57.0089 100.064C56.5182 100.064 56.0862 99.968 55.7129 99.776C55.3449 99.584 55.0595 99.3227 54.8569 98.992C54.6542 98.656 54.5529 98.2747 54.5529 97.848C54.5529 97.416 54.6515 97.0347 54.8489 96.704C55.0515 96.368 55.3262 96.1067 55.6729 95.92C56.0195 95.728 56.4115 95.632 56.8489 95.632C57.2702 95.632 57.6489 95.7227 57.9849 95.904C58.3262 96.08 58.5955 96.336 58.7929 96.672C58.9902 97.0027 59.0889 97.4 59.0889 97.864C59.0889 97.912 59.0862 97.968 59.0809 98.032C59.0755 98.0907 59.0702 98.1467 59.0649 98.2H55.5689V97.472H58.4089L57.9289 97.688C57.9289 97.464 57.8835 97.2693 57.7929 97.104C57.7022 96.9387 57.5769 96.8107 57.4169 96.72C57.2569 96.624 57.0702 96.576 56.8569 96.576C56.6435 96.576 56.4542 96.624 56.2889 96.72C56.1289 96.8107 56.0035 96.9413 55.9129 97.112C55.8222 97.2773 55.7769 97.4747 55.7769 97.704V97.896C55.7769 98.1307 55.8275 98.3387 55.9289 98.52C56.0355 98.696 56.1822 98.832 56.3689 98.928C56.5609 99.0187 56.7849 99.064 57.0409 99.064C57.2702 99.064 57.4702 99.0293 57.6409 98.96C57.8169 98.8907 57.9769 98.7867 58.1209 98.648L58.7849 99.368C58.5875 99.592 58.3395 99.7653 58.0409 99.888C57.7422 100.005 57.3982 100.064 57.0089 100.064ZM65.4318 95.632C65.7731 95.632 66.0744 95.7013 66.3358 95.84C66.6024 95.9733 66.8104 96.1813 66.9598 96.464C67.1144 96.7413 67.1918 97.0987 67.1918 97.536V100H65.9438V97.728C65.9438 97.3813 65.8718 97.1253 65.7278 96.96C65.5838 96.7947 65.3811 96.712 65.1198 96.712C64.9384 96.712 64.7758 96.7547 64.6318 96.84C64.4878 96.92 64.3758 97.0427 64.2958 97.208C64.2158 97.3733 64.1758 97.584 64.1758 97.84V100H62.9278V97.728C62.9278 97.3813 62.8558 97.1253 62.7118 96.96C62.5731 96.7947 62.3731 96.712 62.1118 96.712C61.9304 96.712 61.7678 96.7547 61.6238 96.84C61.4798 96.92 61.3678 97.0427 61.2878 97.208C61.2078 97.3733 61.1678 97.584 61.1678 97.84V100H59.9198V95.696H61.1118V96.872L60.8878 96.528C61.0371 96.2347 61.2478 96.0133 61.5198 95.864C61.7971 95.7093 62.1118 95.632 62.4638 95.632C62.8584 95.632 63.2024 95.7333 63.4958 95.936C63.7944 96.1333 63.9918 96.4373 64.0878 96.848L63.6478 96.728C63.7918 96.392 64.0211 96.1253 64.3358 95.928C64.6558 95.7307 65.0211 95.632 65.4318 95.632ZM70.4776 100.064C69.987 100.064 69.555 99.968 69.1816 99.776C68.8136 99.584 68.5283 99.3227 68.3256 98.992C68.123 98.656 68.0216 98.2747 68.0216 97.848C68.0216 97.416 68.1203 97.0347 68.3176 96.704C68.5203 96.368 68.795 96.1067 69.1416 95.92C69.4883 95.728 69.8803 95.632 70.3176 95.632C70.739 95.632 71.1176 95.7227 71.4536 95.904C71.795 96.08 72.0643 96.336 72.2616 96.672C72.459 97.0027 72.5576 97.4 72.5576 97.864C72.5576 97.912 72.555 97.968 72.5496 98.032C72.5443 98.0907 72.539 98.1467 72.5336 98.2H69.0376V97.472H71.8776L71.3976 97.688C71.3976 97.464 71.3523 97.2693 71.2616 97.104C71.171 96.9387 71.0456 96.8107 70.8856 96.72C70.7256 96.624 70.539 96.576 70.3256 96.576C70.1123 96.576 69.923 96.624 69.7576 96.72C69.5976 96.8107 69.4723 96.9413 69.3816 97.112C69.291 97.2773 69.2456 97.4747 69.2456 97.704V97.896C69.2456 98.1307 69.2963 98.3387 69.3976 98.52C69.5043 98.696 69.651 98.832 69.8376 98.928C70.0296 99.0187 70.2536 99.064 70.5096 99.064C70.739 99.064 70.939 99.0293 71.1096 98.96C71.2856 98.8907 71.4456 98.7867 71.5896 98.648L72.2536 99.368C72.0563 99.592 71.8083 99.7653 71.5096 99.888C71.211 100.005 70.867 100.064 70.4776 100.064ZM76.0045 95.632C76.3458 95.632 76.6498 95.7013 76.9165 95.84C77.1885 95.9733 77.4018 96.1813 77.5565 96.464C77.7112 96.7413 77.7885 97.0987 77.7885 97.536V100H76.5405V97.728C76.5405 97.3813 76.4632 97.1253 76.3085 96.96C76.1592 96.7947 75.9458 96.712 75.6685 96.712C75.4712 96.712 75.2925 96.7547 75.1325 96.84C74.9778 96.92 74.8552 97.0453 74.7645 97.216C74.6792 97.3867 74.6365 97.6053 74.6365 97.872V100H73.3885V95.696H74.5805V96.888L74.3565 96.528C74.5112 96.24 74.7325 96.0187 75.0205 95.864C75.3085 95.7093 75.6365 95.632 76.0045 95.632ZM80.6798 100.064C80.1731 100.064 79.7784 99.936 79.4958 99.68C79.2131 99.4187 79.0718 99.032 79.0718 98.52V94.744H80.3198V98.504C80.3198 98.6853 80.3678 98.8267 80.4638 98.928C80.5598 99.024 80.6904 99.072 80.8558 99.072C81.0531 99.072 81.2211 99.0187 81.3598 98.912L81.6958 99.792C81.5678 99.8827 81.4131 99.952 81.2318 100C81.0558 100.043 80.8718 100.064 80.6798 100.064ZM78.4078 96.752V95.792H81.3918V96.752H78.4078ZM85.0363 100V99.16L84.9563 98.976V97.472C84.9563 97.2053 84.8736 96.9973 84.7083 96.848C84.5483 96.6987 84.3003 96.624 83.9643 96.624C83.735 96.624 83.5083 96.6613 83.2843 96.736C83.0656 96.8053 82.879 96.9013 82.7243 97.024L82.2763 96.152C82.511 95.9867 82.7936 95.8587 83.1243 95.768C83.455 95.6773 83.791 95.632 84.1323 95.632C84.7883 95.632 85.2976 95.7867 85.6603 96.096C86.023 96.4053 86.2043 96.888 86.2043 97.544V100H85.0363ZM83.7243 100.064C83.3883 100.064 83.1003 100.008 82.8603 99.896C82.6203 99.7787 82.4363 99.6213 82.3083 99.424C82.1803 99.2267 82.1163 99.0053 82.1163 98.76C82.1163 98.504 82.1776 98.28 82.3003 98.088C82.4283 97.896 82.6283 97.7467 82.9003 97.64C83.1723 97.528 83.527 97.472 83.9643 97.472H85.1083V98.2H84.1003C83.807 98.2 83.6043 98.248 83.4923 98.344C83.3856 98.44 83.3323 98.56 83.3323 98.704C83.3323 98.864 83.3936 98.992 83.5163 99.088C83.6443 99.1787 83.8176 99.224 84.0363 99.224C84.2443 99.224 84.431 99.176 84.5963 99.08C84.7616 98.9787 84.8816 98.832 84.9563 98.64L85.1483 99.216C85.0576 99.4933 84.8923 99.704 84.6523 99.848C84.4123 99.992 84.103 100.064 83.7243 100.064ZM87.3338 100V95.696H88.5258V96.912L88.3578 96.56C88.4858 96.256 88.6911 96.0267 88.9738 95.872C89.2565 95.712 89.6005 95.632 90.0058 95.632V96.784C89.9525 96.7787 89.9045 96.776 89.8618 96.776C89.8191 96.7707 89.7738 96.768 89.7258 96.768C89.3845 96.768 89.1071 96.8667 88.8938 97.064C88.6858 97.256 88.5818 97.5573 88.5818 97.968V100H87.3338ZM93.6447 100V94.88L94.2048 95.44H92.5248V94.4H94.9408V100H93.6447ZM101.083 100V99.16L101.003 98.976V97.472C101.003 97.2053 100.921 96.9973 100.755 96.848C100.595 96.6987 100.347 96.624 100.011 96.624C99.7819 96.624 99.5552 96.6613 99.3312 96.736C99.1125 96.8053 98.9259 96.9013 98.7712 97.024L98.3232 96.152C98.5579 95.9867 98.8405 95.8587 99.1712 95.768C99.5019 95.6773 99.8379 95.632 100.179 95.632C100.835 95.632 101.345 95.7867 101.707 96.096C102.07 96.4053 102.251 96.888 102.251 97.544V100H101.083ZM99.7712 100.064C99.4352 100.064 99.1472 100.008 98.9072 99.896C98.6672 99.7787 98.4832 99.6213 98.3552 99.424C98.2272 99.2267 98.1632 99.0053 98.1632 98.76C98.1632 98.504 98.2245 98.28 98.3472 98.088C98.4752 97.896 98.6752 97.7467 98.9472 97.64C99.2192 97.528 99.5739 97.472 100.011 97.472H101.155V98.2H100.147C99.8539 98.2 99.6512 98.248 99.5392 98.344C99.4325 98.44 99.3792 98.56 99.3792 98.704C99.3792 98.864 99.4405 98.992 99.5632 99.088C99.6912 99.1787 99.8645 99.224 100.083 99.224C100.291 99.224 100.478 99.176 100.643 99.08C100.809 98.9787 100.929 98.832 101.003 98.64L101.195 99.216C101.105 99.4933 100.939 99.704 100.699 99.848C100.459 99.992 100.15 100.064 99.7712 100.064ZM105.094 100L107.502 96.68V97.624L105.198 94.4H106.67L108.262 96.648L107.646 96.656L109.214 94.4H110.622L108.334 97.568V96.64L110.758 100H109.262L107.614 97.624H108.206L106.582 100H105.094Z" fill="#333333"/>
<path fill-rule="evenodd" clip-rule="evenodd" d="M170.357 120.848C170.357 113.786 164.571 107.995 157.5 107.995C117.753 107.995 101.571 108 101.571 108L96.4285 113.143H72.6428L66.8571 108H44.4515C37.3801 108 31.5944 113.786 31.5944 120.852C31.5944 120.857 31.5944 120.862 31.5944 120.867C31.5944 127.929 37.3801 133.714 44.4515 133.714C55.0992 133.714 66.8572 133.714 66.8572 133.714L72.6429 138.857H96.4286L101.571 133.714H157.594C164.571 133.714 170.357 127.929 170.357 120.862C170.357 120.857 170.357 121.179 170.357 120.848Z" fill="#30DCFF"/>
<path fill-rule="evenodd" clip-rule="evenodd" d="M170.357 120.85C170.357 113.786 164.571 108 157.406 108C117.659 108 101.571 108 101.571 108L96.4286 113.143H72.6429L66.8571 108H44.3571C37.2857 108 31.5 113.786 31.5 120.85C31.5 120.855 31.5 120.857 31.5 120.857H34.7143C34.7143 114.429 39.2143 111.214 44.3571 111.214C53.784 111.214 65.5714 111.214 65.5714 111.214L71.3571 116.357H97.7143L102.857 111.214H157.5C163.286 111.214 167.143 115.071 167.143 120.857L170.357 120.857V120.85Z" fill="white" fill-opacity="0.5"/>
<path fill-rule="evenodd" clip-rule="evenodd" d="M170.357 120.857L167.143 120.857C167.143 126.624 163.412 130.5 157.5 130.5C120.854 130.5 100.286 130.5 100.286 130.5L95.1429 135.643H73.9286L68.1429 130.5H44.3571C37.6047 130.5 34.7143 126.643 34.7143 120.858L31.5 120.857V120.864C31.5 127.929 37.2857 133.714 44.3571 133.714C55.0048 133.714 66.8571 133.714 66.8571 133.714L72.6429 138.857H96.4286L101.571 133.714H157.5C164.571 133.714 170.357 127.929 170.357 120.857Z" fill="black" fill-opacity="0.25"/>
<path d="M38.664 126V120.4H41.208C41.816 120.4 42.352 120.517 42.816 120.752C43.28 120.981 43.6427 121.304 43.904 121.72C44.1653 122.136 44.296 122.629 44.296 123.2C44.296 123.765 44.1653 124.259 43.904 124.68C43.6427 125.096 43.28 125.421 42.816 125.656C42.352 125.885 41.816 126 41.208 126H38.664ZM39.96 124.936H41.144C41.5173 124.936 41.84 124.867 42.112 124.728C42.3893 124.584 42.6027 124.381 42.752 124.12C42.9067 123.859 42.984 123.552 42.984 123.2C42.984 122.843 42.9067 122.536 42.752 122.28C42.6027 122.019 42.3893 121.819 42.112 121.68C41.84 121.536 41.5173 121.464 41.144 121.464H39.96V124.936ZM47.0014 126.064C46.644 126.064 46.324 125.995 46.0414 125.856C45.764 125.717 45.548 125.507 45.3934 125.224C45.2387 124.936 45.1614 124.571 45.1614 124.128V121.696H46.4094V123.944C46.4094 124.301 46.484 124.565 46.6334 124.736C46.788 124.901 47.004 124.984 47.2814 124.984C47.4734 124.984 47.644 124.944 47.7934 124.864C47.9427 124.779 48.06 124.651 48.1454 124.48C48.2307 124.304 48.2734 124.085 48.2734 123.824V121.696H49.5214V126H48.3374V124.816L48.5534 125.16C48.4094 125.459 48.196 125.685 47.9134 125.84C47.636 125.989 47.332 126.064 47.0014 126.064ZM53.2216 126.064C52.8589 126.064 52.5416 125.984 52.2696 125.824C51.9976 125.664 51.7842 125.421 51.6296 125.096C51.4802 124.765 51.4056 124.349 51.4056 123.848C51.4056 123.341 51.4776 122.925 51.6216 122.6C51.7656 122.275 51.9736 122.032 52.2456 121.872C52.5176 121.712 52.8429 121.632 53.2216 121.632C53.6269 121.632 53.9896 121.725 54.3096 121.912C54.6349 122.093 54.8909 122.349 55.0776 122.68C55.2696 123.011 55.3656 123.4 55.3656 123.848C55.3656 124.301 55.2696 124.693 55.0776 125.024C54.8909 125.355 54.6349 125.611 54.3096 125.792C53.9896 125.973 53.6269 126.064 53.2216 126.064ZM50.6776 127.552V121.696H51.8696V122.576L51.8456 123.856L51.9256 125.128V127.552H50.6776ZM53.0056 125.04C53.2136 125.04 53.3976 124.992 53.5576 124.896C53.7229 124.8 53.8536 124.664 53.9496 124.488C54.0509 124.307 54.1016 124.093 54.1016 123.848C54.1016 123.597 54.0509 123.384 53.9496 123.208C53.8536 123.032 53.7229 122.896 53.5576 122.8C53.3976 122.704 53.2136 122.656 53.0056 122.656C52.7976 122.656 52.6109 122.704 52.4456 122.8C52.2802 122.896 52.1496 123.032 52.0536 123.208C51.9576 123.384 51.9096 123.597 51.9096 123.848C51.9096 124.093 51.9576 124.307 52.0536 124.488C52.1496 124.664 52.2802 124.8 52.4456 124.896C52.6109 124.992 52.7976 125.04 53.0056 125.04ZM56.201 126V120.064H57.449V126H56.201ZM58.6073 126V121.696H59.8553V126H58.6073ZM59.2313 121.096C59.0019 121.096 58.8153 121.029 58.6713 120.896C58.5273 120.763 58.4553 120.597 58.4553 120.4C58.4553 120.203 58.5273 120.037 58.6713 119.904C58.8153 119.771 59.0019 119.704 59.2313 119.704C59.4606 119.704 59.6473 119.768 59.7913 119.896C59.9353 120.019 60.0073 120.179 60.0073 120.376C60.0073 120.584 59.9353 120.757 59.7913 120.896C59.6526 121.029 59.4659 121.096 59.2313 121.096ZM63.0935 126.064C62.6295 126.064 62.2162 125.971 61.8535 125.784C61.4908 125.592 61.2055 125.328 60.9975 124.992C60.7948 124.656 60.6935 124.275 60.6935 123.848C60.6935 123.416 60.7948 123.035 60.9975 122.704C61.2055 122.368 61.4908 122.107 61.8535 121.92C62.2162 121.728 62.6295 121.632 63.0935 121.632C63.5468 121.632 63.9415 121.728 64.2775 121.92C64.6135 122.107 64.8615 122.376 65.0215 122.728L64.0535 123.248C63.9415 123.045 63.8002 122.896 63.6295 122.8C63.4642 122.704 63.2828 122.656 63.0855 122.656C62.8722 122.656 62.6802 122.704 62.5095 122.8C62.3388 122.896 62.2028 123.032 62.1015 123.208C62.0055 123.384 61.9575 123.597 61.9575 123.848C61.9575 124.099 62.0055 124.312 62.1015 124.488C62.2028 124.664 62.3388 124.8 62.5095 124.896C62.6802 124.992 62.8722 125.04 63.0855 125.04C63.2828 125.04 63.4642 124.995 63.6295 124.904C63.8002 124.808 63.9415 124.656 64.0535 124.448L65.0215 124.976C64.8615 125.323 64.6135 125.592 64.2775 125.784C63.9415 125.971 63.5468 126.064 63.0935 126.064ZM68.3801 126V125.16L68.3001 124.976V123.472C68.3001 123.205 68.2174 122.997 68.0521 122.848C67.8921 122.699 67.6441 122.624 67.3081 122.624C67.0787 122.624 66.8521 122.661 66.6281 122.736C66.4094 122.805 66.2227 122.901 66.0681 123.024L65.6201 122.152C65.8547 121.987 66.1374 121.859 66.4681 121.768C66.7987 121.677 67.1347 121.632 67.4761 121.632C68.1321 121.632 68.6414 121.787 69.0041 122.096C69.3667 122.405 69.5481 122.888 69.5481 123.544V126H68.3801ZM67.0681 126.064C66.7321 126.064 66.4441 126.008 66.2041 125.896C65.9641 125.779 65.7801 125.621 65.6521 125.424C65.5241 125.227 65.4601 125.005 65.4601 124.76C65.4601 124.504 65.5214 124.28 65.6441 124.088C65.7721 123.896 65.9721 123.747 66.2441 123.64C66.5161 123.528 66.8707 123.472 67.3081 123.472H68.4521V124.2H67.4441C67.1507 124.2 66.9481 124.248 66.8361 124.344C66.7294 124.44 66.6761 124.56 66.6761 124.704C66.6761 124.864 66.7374 124.992 66.8601 125.088C66.9881 125.179 67.1614 125.224 67.3801 125.224C67.5881 125.224 67.7747 125.176 67.9401 125.08C68.1054 124.979 68.2254 124.832 68.3001 124.64L68.4921 125.216C68.4014 125.493 68.2361 125.704 67.9961 125.848C67.7561 125.992 67.4467 126.064 67.0681 126.064ZM70.6776 126V121.696H71.8696V122.912L71.7016 122.56C71.8296 122.256 72.0349 122.027 72.3176 121.872C72.6002 121.712 72.9442 121.632 73.3496 121.632V122.784C73.2962 122.779 73.2482 122.776 73.2056 122.776C73.1629 122.771 73.1176 122.768 73.0696 122.768C72.7282 122.768 72.4509 122.867 72.2376 123.064C72.0296 123.256 71.9256 123.557 71.9256 123.968V126H70.6776ZM75.8365 126L78.2445 122.68V123.624L75.9405 120.4H77.4125L79.0045 122.648L78.3885 122.656L79.9565 120.4H81.3645L79.0765 123.568V122.64L81.5005 126H80.0045L78.3565 123.624H78.9485L77.3245 126H75.8365Z" fill="#333333"/>
<path fill-rule="evenodd" clip-rule="evenodd" d="M170.357 146.562C170.357 139.5 164.571 133.71 157.5 133.71C117.753 133.71 101.571 133.714 101.571 133.714L96.4285 138.857H72.6428L66.8571 133.714H44.4515C37.3801 133.714 31.5944 139.5 31.5944 146.567C31.5944 146.571 31.5944 146.576 31.5944 146.581C31.5944 153.643 37.3801 159.429 44.4515 159.429C55.0992 159.429 66.8572 159.429 66.8572 159.429L72.6429 164.571H96.4286L101.571 159.429H157.594C164.571 159.429 170.357 153.643 170.357 146.576C170.357 146.571 170.357 146.893 170.357 146.562Z" fill="#30DCFF"/>
<path fill-rule="evenodd" clip-rule="evenodd" d="M170.357 146.564C170.357 139.5 164.571 133.714 157.406 133.714C117.659 133.714 101.571 133.714 101.571 133.714L96.4286 138.857H72.6429L66.8571 133.714H44.3571C37.2857 133.714 31.5 139.5 31.5 146.564C31.5 146.569 31.5 146.571 31.5 146.571H34.7143C34.7143 140.143 39.2143 136.929 44.3571 136.929C53.784 136.929 65.5714 136.929 65.5714 136.929L71.3571 142.071H97.7143L102.857 136.929H157.5C163.286 136.929 167.143 140.786 167.143 146.571L170.357 146.571V146.564Z" fill="white" fill-opacity="0.5"/>
<path fill-rule="evenodd" clip-rule="evenodd" d="M170.357 146.571L167.143 146.571C167.143 152.339 163.412 156.214 157.5 156.214C120.854 156.214 100.286 156.214 100.286 156.214L95.1429 161.357H73.9286L68.1429 156.214H44.3571C37.6047 156.214 34.7143 152.357 34.7143 146.572L31.5 146.571V146.579C31.5 153.643 37.2857 159.429 44.3571 159.429C55.0048 159.429 66.8571 159.429 66.8571 159.429L72.6429 164.571H96.4286L101.571 159.429H157.5C164.571 159.429 170.357 153.643 170.357 146.571Z" fill="black" fill-opacity="0.25"/>
<path d="M37.928 151L40.424 145.4H41.704L44.208 151H42.848L40.8 146.056H41.312L39.256 151H37.928ZM39.176 149.8L39.52 148.816H42.4L42.752 149.8H39.176ZM46.1099 151.064C45.7419 151.064 45.3873 151.021 45.0459 150.936C44.7099 150.845 44.4433 150.733 44.2459 150.6L44.6619 149.704C44.8593 149.827 45.0913 149.928 45.3579 150.008C45.6299 150.083 45.8966 150.12 46.1579 150.12C46.4459 150.12 46.6486 150.085 46.7659 150.016C46.8886 149.947 46.9499 149.851 46.9499 149.728C46.9499 149.627 46.9019 149.552 46.8059 149.504C46.7153 149.451 46.5926 149.411 46.4379 149.384C46.2833 149.357 46.1126 149.331 45.9259 149.304C45.7446 149.277 45.5606 149.243 45.3739 149.2C45.1873 149.152 45.0166 149.083 44.8619 148.992C44.7073 148.901 44.5819 148.779 44.4859 148.624C44.3953 148.469 44.3499 148.269 44.3499 148.024C44.3499 147.752 44.4273 147.512 44.5819 147.304C44.7419 147.096 44.9713 146.933 45.2699 146.816C45.5686 146.693 45.9259 146.632 46.3419 146.632C46.6353 146.632 46.9339 146.664 47.2379 146.728C47.5419 146.792 47.7953 146.885 47.9979 147.008L47.5819 147.896C47.3739 147.773 47.1633 147.691 46.9499 147.648C46.7419 147.6 46.5393 147.576 46.3419 147.576C46.0646 147.576 45.8619 147.613 45.7339 147.688C45.6059 147.763 45.5419 147.859 45.5419 147.976C45.5419 148.083 45.5873 148.163 45.6779 148.216C45.7739 148.269 45.8993 148.312 46.0539 148.344C46.2086 148.376 46.3766 148.405 46.5579 148.432C46.7446 148.453 46.9313 148.488 47.1179 148.536C47.3046 148.584 47.4726 148.653 47.6219 148.744C47.7766 148.829 47.9019 148.949 47.9979 149.104C48.0939 149.253 48.1419 149.451 48.1419 149.696C48.1419 149.963 48.0619 150.2 47.9019 150.408C47.7419 150.611 47.5099 150.771 47.2059 150.888C46.9073 151.005 46.5419 151.064 46.1099 151.064ZM48.9119 151V146.696H50.1599V151H48.9119ZM49.5359 146.096C49.3066 146.096 49.1199 146.029 48.9759 145.896C48.8319 145.763 48.7599 145.597 48.7599 145.4C48.7599 145.203 48.8319 145.037 48.9759 144.904C49.1199 144.771 49.3066 144.704 49.5359 144.704C49.7653 144.704 49.9519 144.768 50.0959 144.896C50.2399 145.019 50.3119 145.179 50.3119 145.376C50.3119 145.584 50.2399 145.757 50.0959 145.896C49.9573 146.029 49.7706 146.096 49.5359 146.096ZM53.3422 152.616C52.9369 152.616 52.5449 152.565 52.1662 152.464C51.7929 152.368 51.4809 152.221 51.2302 152.024L51.7262 151.128C51.9075 151.277 52.1369 151.395 52.4142 151.48C52.6969 151.571 52.9742 151.616 53.2462 151.616C53.6889 151.616 54.0089 151.517 54.2062 151.32C54.4089 151.123 54.5102 150.829 54.5102 150.44V149.792L54.5902 148.712L54.5742 147.624V146.696H55.7582V150.28C55.7582 151.08 55.5502 151.669 55.1342 152.048C54.7182 152.427 54.1209 152.616 53.3422 152.616ZM53.1502 150.792C52.7502 150.792 52.3875 150.707 52.0622 150.536C51.7422 150.36 51.4835 150.117 51.2862 149.808C51.0942 149.493 50.9982 149.128 50.9982 148.712C50.9982 148.291 51.0942 147.925 51.2862 147.616C51.4835 147.301 51.7422 147.059 52.0622 146.888C52.3875 146.717 52.7502 146.632 53.1502 146.632C53.5129 146.632 53.8329 146.707 54.1102 146.856C54.3875 147 54.6035 147.227 54.7582 147.536C54.9129 147.84 54.9902 148.232 54.9902 148.712C54.9902 149.187 54.9129 149.579 54.7582 149.888C54.6035 150.192 54.3875 150.419 54.1102 150.568C53.8329 150.717 53.5129 150.792 53.1502 150.792ZM53.3982 149.768C53.6169 149.768 53.8115 149.725 53.9822 149.64C54.1529 149.549 54.2862 149.424 54.3822 149.264C54.4782 149.104 54.5262 148.92 54.5262 148.712C54.5262 148.499 54.4782 148.315 54.3822 148.16C54.2862 148 54.1529 147.877 53.9822 147.792C53.8115 147.701 53.6169 147.656 53.3982 147.656C53.1795 147.656 52.9849 147.701 52.8142 147.792C52.6435 147.877 52.5075 148 52.4062 148.16C52.3102 148.315 52.2622 148.499 52.2622 148.712C52.2622 148.92 52.3102 149.104 52.4062 149.264C52.5075 149.424 52.6435 149.549 52.8142 149.64C52.9849 149.725 53.1795 149.768 53.3982 149.768ZM59.5358 146.632C59.8771 146.632 60.1811 146.701 60.4478 146.84C60.7198 146.973 60.9331 147.181 61.0878 147.464C61.2424 147.741 61.3198 148.099 61.3198 148.536V151H60.0718V148.728C60.0718 148.381 59.9944 148.125 59.8398 147.96C59.6904 147.795 59.4771 147.712 59.1998 147.712C59.0024 147.712 58.8238 147.755 58.6638 147.84C58.5091 147.92 58.3864 148.045 58.2958 148.216C58.2104 148.387 58.1678 148.605 58.1678 148.872V151H56.9198V146.696H58.1118V147.888L57.8878 147.528C58.0424 147.24 58.2638 147.019 58.5518 146.864C58.8398 146.709 59.1678 146.632 59.5358 146.632ZM65.091 151V150.16L65.011 149.976V148.472C65.011 148.205 64.9283 147.997 64.763 147.848C64.603 147.699 64.355 147.624 64.019 147.624C63.7897 147.624 63.563 147.661 63.339 147.736C63.1203 147.805 62.9337 147.901 62.779 148.024L62.331 147.152C62.5657 146.987 62.8483 146.859 63.179 146.768C63.5097 146.677 63.8457 146.632 64.187 146.632C64.843 146.632 65.3523 146.787 65.715 147.096C66.0777 147.405 66.259 147.888 66.259 148.544V151H65.091ZM63.779 151.064C63.443 151.064 63.155 151.008 62.915 150.896C62.675 150.779 62.491 150.621 62.363 150.424C62.235 150.227 62.171 150.005 62.171 149.76C62.171 149.504 62.2323 149.28 62.355 149.088C62.483 148.896 62.683 148.747 62.955 148.64C63.227 148.528 63.5817 148.472 64.019 148.472H65.163V149.2H64.155C63.8617 149.2 63.659 149.248 63.547 149.344C63.4403 149.44 63.387 149.56 63.387 149.704C63.387 149.864 63.4483 149.992 63.571 150.088C63.699 150.179 63.8723 150.224 64.091 150.224C64.299 150.224 64.4857 150.176 64.651 150.08C64.8163 149.979 64.9363 149.832 65.011 149.64L65.203 150.216C65.1123 150.493 64.947 150.704 64.707 150.848C64.467 150.992 64.1577 151.064 63.779 151.064ZM67.3885 151V146.696H68.5805V147.912L68.4125 147.56C68.5405 147.256 68.7458 147.027 69.0285 146.872C69.3112 146.712 69.6552 146.632 70.0605 146.632V147.784C70.0072 147.779 69.9592 147.776 69.9165 147.776C69.8738 147.771 69.8285 147.768 69.7805 147.768C69.4392 147.768 69.1618 147.867 68.9485 148.064C68.7405 148.256 68.6365 148.557 68.6365 148.968V151H67.3885ZM72.5474 151L74.9554 147.68V148.624L72.6514 145.4H74.1234L75.7154 147.648L75.0994 147.656L76.6674 145.4H78.0754L75.7874 148.568V147.64L78.2114 151H76.7154L75.0674 148.624H75.6594L74.0354 151H72.5474ZM83.716 151V150.16L83.636 149.976V148.472C83.636 148.205 83.5533 147.997 83.388 147.848C83.228 147.699 82.98 147.624 82.644 147.624C82.4147 147.624 82.188 147.661 81.964 147.736C81.7453 147.805 81.5587 147.901 81.404 148.024L80.956 147.152C81.1907 146.987 81.4733 146.859 81.804 146.768C82.1347 146.677 82.4707 146.632 82.812 146.632C83.468 146.632 83.9773 146.787 84.34 147.096C84.7027 147.405 84.884 147.888 84.884 148.544V151H83.716ZM82.404 151.064C82.068 151.064 81.78 151.008 81.54 150.896C81.3 150.779 81.116 150.621 80.988 150.424C80.86 150.227 80.796 150.005 80.796 149.76C80.796 149.504 80.8573 149.28 80.98 149.088C81.108 148.896 81.308 148.747 81.58 148.64C81.852 148.528 82.2067 148.472 82.644 148.472H83.788V149.2H82.78C82.4867 149.2 82.284 149.248 82.172 149.344C82.0653 149.44 82.012 149.56 82.012 149.704C82.012 149.864 82.0733 149.992 82.196 150.088C82.324 150.179 82.4973 150.224 82.716 150.224C82.924 150.224 83.1107 150.176 83.276 150.08C83.4413 149.979 83.5613 149.832 83.636 149.64L83.828 150.216C83.7373 150.493 83.572 150.704 83.332 150.848C83.092 150.992 82.7827 151.064 82.404 151.064ZM89.7591 151V148.712L90.0551 149.496L87.5911 145.4H88.9671L90.8551 148.544H90.0631L91.9591 145.4H93.2311L90.7671 149.496L91.0551 148.712V151H89.7591Z" fill="#333333"/>
</g>
<defs>
<filter id="filter0_d_1_12" x="0" y="0" width="180" height="182.571" filterUnits="userSpaceOnUse" color-interpolation-filters="sRGB">
<feFlood flood-opacity="0" result="BackgroundImageFix"/>
<feColorMatrix in="SourceAlpha" type="matrix" values="0 0 0 0 0 0 0 0 0 0 0 0 0 0 0 0 0 0 127 0" result="hardAlpha"/>
<feOffset dy="2.57143"/>
<feColorMatrix type="matrix" values="0 0 0 0 0 0 0 0 0 0 0 0 0 0 0 0 0 0 0.25 0"/>
<feBlend mode="normal" in2="BackgroundImageFix" result="effect1_dropShadow_1_12"/>
<feBlend mode="normal" in="SourceGraphic" in2="effect1_dropShadow_1_12" result="shape"/>
</filter>
</defs>
</svg>
