<svg width="180" height="183" viewBox="0 0 180 183" fill="none" xmlns="http://www.w3.org/2000/svg">
<g filter="url(#filter0_d_1_12)">
<rect width="180" height="180" rx="12.8571" fill="#F2F2F2"/>
<path fill-rule="evenodd" clip-rule="evenodd" d="M170.357 45C170.357 37.9286 165.857 33.4286 158.786 33.4286C133.661 33.4286 149.172 33.4286 131.143 33.4286C126.174 33.4286 123.933 31.9908 121.179 29.25C115.195 23.6698 100.146 14.7857 67.1318 14.7857C20.5871 14.7857 9.64289 33.4286 9.64289 33.4286C9.64289 33.4286 9.64317 36.4626 9.6433 45C9.6433 51.4286 14.7857 56.5714 21.2143 56.5714C38.2421 56.5714 66.8572 56.5714 66.8572 56.5714L72.6429 61.7143H96.4286L101.571 56.5714C101.571 56.5714 123.448 56.5714 158.786 56.5714C165.857 56.5714 170.357 52.0714 170.357 45C170.357 46.2005 170.357 43.1565 170.357 45Z" fill="#FC79FF"/>
<path fill-rule="evenodd" clip-rule="evenodd" d="M167.143 45C167.143 50.1428 164.571 53.3571 158.786 53.3571L100.286 53.3571L95.1429 58.5H73.9286L68.1429 53.3571C68.1429 53.3571 37.5386 53.3571 21.2143 53.3571C16.0485 53.3571 12.8571 49.5 12.8571 45H9.64282C9.64282 51.4286 14.7857 56.5714 21.2143 56.5714C38.2119 56.5714 66.8571 56.5714 66.8571 56.5714L72.6603 61.7143H96.4286L101.571 56.5714L158.786 56.5714C165.857 56.5714 170.357 52.0714 170.357 45C169.393 45 168.429 44.9999 167.143 45Z" fill="black" fill-opacity="0.25"/>
<path fill-rule="evenodd" clip-rule="evenodd" d="M9.64277 45H12.8571V34.7143C12.8571 34.7143 22.4954 18 67.0408 18C97.291 18 112.858 26.129 119.25 31.5C122.331 34.0908 126.457 36.6121 130.5 36.6429C135.964 36.6429 148.798 36.6429 158.786 36.6429C163.906 36.6429 167.143 40.1786 167.143 44.3571V45H169.714H170.357C170.357 37.9286 165.857 33.4286 158.786 33.4286C133.71 33.4286 148.505 33.4286 130.5 33.4286C126 33.4286 123.537 31.6026 120.995 29.0614C115.03 23.4642 100.01 14.7857 67.0292 14.7857C20.5137 14.7857 9.64277 33.4286 9.64277 33.4286L9.64277 45Z" fill="white" fill-opacity="0.5"/>
<path d="M19.4155 46.3817C18.8448 46.3817 18.3275 46.259 17.8635 46.0137C17.4048 45.763 17.0421 45.419 16.7755 44.9817C16.5141 44.539 16.3835 44.0403 16.3835 43.4857C16.3835 42.931 16.5141 42.435 16.7755 41.9977C17.0421 41.555 17.4048 41.211 17.8635 40.9657C18.3275 40.715 18.8475 40.5897 19.4235 40.5897C19.9088 40.5897 20.3461 40.675 20.7355 40.8457C21.1301 41.0163 21.4608 41.2617 21.7275 41.5817L20.8955 42.3497C20.5168 41.9123 20.0475 41.6937 19.4875 41.6937C19.1408 41.6937 18.8315 41.771 18.5595 41.9257C18.2875 42.075 18.0741 42.2857 17.9195 42.5577C17.7701 42.8297 17.6955 43.139 17.6955 43.4857C17.6955 43.8323 17.7701 44.1417 17.9195 44.4137C18.0741 44.6857 18.2875 44.899 18.5595 45.0537C18.8315 45.203 19.1408 45.2777 19.4875 45.2777C20.0475 45.2777 20.5168 45.0563 20.8955 44.6137L21.7275 45.3817C21.4608 45.707 21.1301 45.955 20.7355 46.1257C20.3408 46.2963 19.9008 46.3817 19.4155 46.3817ZM26.7413 41.9817V46.2857H25.5573V45.7737C25.3919 45.9603 25.1946 46.1043 24.9653 46.2057C24.7359 46.3017 24.4879 46.3497 24.2213 46.3497C23.6559 46.3497 23.2079 46.187 22.8773 45.8617C22.5466 45.5363 22.3813 45.0537 22.3813 44.4137V41.9817H23.6293V44.2297C23.6293 44.923 23.9199 45.2697 24.5013 45.2697C24.7999 45.2697 25.0399 45.1737 25.2213 44.9817C25.4026 44.7843 25.4933 44.4937 25.4933 44.1097V41.9817H26.7413ZM29.6335 41.9177C30.3001 41.9177 30.8121 42.0777 31.1695 42.3977C31.5268 42.7123 31.7055 43.1897 31.7055 43.8297V46.2857H30.5375V45.7497C30.3028 46.1497 29.8655 46.3497 29.2255 46.3497C28.8948 46.3497 28.6068 46.2937 28.3615 46.1817C28.1215 46.0697 27.9375 45.915 27.8095 45.7177C27.6815 45.5203 27.6175 45.2963 27.6175 45.0457C27.6175 44.6457 27.7668 44.331 28.0655 44.1017C28.3695 43.8723 28.8361 43.7577 29.4655 43.7577H30.4575C30.4575 43.4857 30.3748 43.2777 30.2095 43.1337C30.0441 42.9843 29.7961 42.9097 29.4655 42.9097C29.2361 42.9097 29.0095 42.947 28.7855 43.0217C28.5668 43.091 28.3801 43.187 28.2255 43.3097L27.7775 42.4377C28.0121 42.2723 28.2921 42.1443 28.6175 42.0537C28.9481 41.963 29.2868 41.9177 29.6335 41.9177ZM29.5375 45.5097C29.7508 45.5097 29.9401 45.4617 30.1055 45.3657C30.2708 45.2643 30.3881 45.1177 30.4575 44.9257V44.4857H29.6015C29.0895 44.4857 28.8335 44.6537 28.8335 44.9897C28.8335 45.1497 28.8948 45.2777 29.0175 45.3737C29.1455 45.4643 29.3188 45.5097 29.5375 45.5097ZM35.451 41.9177C35.9843 41.9177 36.4136 42.0777 36.739 42.3977C37.0696 42.7177 37.235 43.1923 37.235 43.8217V46.2857H35.987V44.0137C35.987 43.6723 35.9123 43.419 35.763 43.2537C35.6136 43.083 35.3976 42.9977 35.115 42.9977C34.8003 42.9977 34.5496 43.0963 34.363 43.2937C34.1763 43.4857 34.083 43.7737 34.083 44.1577V46.2857H32.835V41.9817H34.027V42.4857C34.1923 42.3043 34.3976 42.1657 34.643 42.0697C34.8883 41.9683 35.1576 41.9177 35.451 41.9177ZM42.7971 40.3497V46.2857H41.6051V45.7897C41.2958 46.163 40.8478 46.3497 40.2611 46.3497C39.8558 46.3497 39.4878 46.259 39.1571 46.0777C38.8318 45.8963 38.5758 45.6377 38.3891 45.3017C38.2024 44.9657 38.1091 44.5763 38.1091 44.1337C38.1091 43.691 38.2024 43.3017 38.3891 42.9657C38.5758 42.6297 38.8318 42.371 39.1571 42.1897C39.4878 42.0083 39.8558 41.9177 40.2611 41.9177C40.8104 41.9177 41.2398 42.091 41.5491 42.4377V40.3497H42.7971ZM40.4771 45.3257C40.7918 45.3257 41.0531 45.219 41.2611 45.0057C41.4691 44.787 41.5731 44.4963 41.5731 44.1337C41.5731 43.771 41.4691 43.483 41.2611 43.2697C41.0531 43.051 40.7918 42.9417 40.4771 42.9417C40.1571 42.9417 39.8931 43.051 39.6851 43.2697C39.4771 43.483 39.3731 43.771 39.3731 44.1337C39.3731 44.4963 39.4771 44.787 39.6851 45.0057C39.8931 45.219 40.1571 45.3257 40.4771 45.3257ZM46.0002 46.3497C45.5468 46.3497 45.1388 46.2563 44.7762 46.0697C44.4188 45.8777 44.1388 45.6137 43.9362 45.2777C43.7335 44.9417 43.6322 44.5603 43.6322 44.1337C43.6322 43.707 43.7335 43.3257 43.9362 42.9897C44.1388 42.6537 44.4188 42.3923 44.7762 42.2057C45.1388 42.0137 45.5468 41.9177 46.0002 41.9177C46.4535 41.9177 46.8588 42.0137 47.2162 42.2057C47.5735 42.3923 47.8535 42.6537 48.0562 42.9897C48.2588 43.3257 48.3602 43.707 48.3602 44.1337C48.3602 44.5603 48.2588 44.9417 48.0562 45.2777C47.8535 45.6137 47.5735 45.8777 47.2162 46.0697C46.8588 46.2563 46.4535 46.3497 46.0002 46.3497ZM46.0002 45.3257C46.3202 45.3257 46.5815 45.219 46.7842 45.0057C46.9922 44.787 47.0962 44.4963 47.0962 44.1337C47.0962 43.771 46.9922 43.483 46.7842 43.2697C46.5815 43.051 46.3202 42.9417 46.0002 42.9417C45.6802 42.9417 45.4162 43.051 45.2082 43.2697C45.0002 43.483 44.8962 43.771 44.8962 44.1337C44.8962 44.4963 45.0002 44.787 45.2082 45.0057C45.4162 45.219 45.6802 45.3257 46.0002 45.3257ZM49.6663 43.4777C49.4477 43.4777 49.2637 43.403 49.1143 43.2537C48.965 43.1043 48.8903 42.9177 48.8903 42.6937C48.8903 42.4643 48.965 42.2803 49.1143 42.1417C49.2637 41.9977 49.4477 41.9257 49.6663 41.9257C49.885 41.9257 50.069 41.9977 50.2183 42.1417C50.3677 42.2803 50.4423 42.4643 50.4423 42.6937C50.4423 42.9177 50.3677 43.1043 50.2183 43.2537C50.069 43.403 49.885 43.4777 49.6663 43.4777ZM49.6663 46.3497C49.4477 46.3497 49.2637 46.275 49.1143 46.1257C48.965 45.9763 48.8903 45.7897 48.8903 45.5657C48.8903 45.3363 48.965 45.1523 49.1143 45.0137C49.2637 44.8697 49.4477 44.7977 49.6663 44.7977C49.885 44.7977 50.069 44.8697 50.2183 45.0137C50.3677 45.1523 50.4423 45.3363 50.4423 45.5657C50.4423 45.7897 50.3677 45.9763 50.2183 46.1257C50.069 46.275 49.885 46.3497 49.6663 46.3497ZM56.0977 41.9177C56.4977 41.9177 56.8604 42.011 57.1857 42.1977C57.5164 42.379 57.775 42.6377 57.9617 42.9737C58.1484 43.3043 58.2417 43.691 58.2417 44.1337C58.2417 44.5763 58.1484 44.9657 57.9617 45.3017C57.775 45.6323 57.5164 45.891 57.1857 46.0777C56.8604 46.259 56.4977 46.3497 56.0977 46.3497C55.5484 46.3497 55.1164 46.1763 54.8017 45.8297V47.8377H53.5537V41.9817H54.7457V42.4777C55.055 42.1043 55.5057 41.9177 56.0977 41.9177ZM55.8817 45.3257C56.2017 45.3257 56.463 45.219 56.6657 45.0057C56.8737 44.787 56.9777 44.4963 56.9777 44.1337C56.9777 43.771 56.8737 43.483 56.6657 43.2697C56.463 43.051 56.2017 42.9417 55.8817 42.9417C55.5617 42.9417 55.2977 43.051 55.0897 43.2697C54.887 43.483 54.7857 43.771 54.7857 44.1337C54.7857 44.4963 54.887 44.787 55.0897 45.0057C55.2977 45.219 55.5617 45.3257 55.8817 45.3257ZM60.2692 42.5497C60.4185 42.3417 60.6185 42.1843 60.8692 42.0777C61.1252 41.971 61.4185 41.9177 61.7492 41.9177V43.0697C61.6105 43.059 61.5172 43.0537 61.4692 43.0537C61.1118 43.0537 60.8318 43.155 60.6292 43.3577C60.4265 43.555 60.3252 43.8537 60.3252 44.2537V46.2857H59.0772V41.9817H60.2692V42.5497ZM66.6682 44.1497C66.6682 44.1657 66.6602 44.2777 66.6442 44.4857H63.3882C63.4468 44.7523 63.5855 44.963 63.8042 45.1177C64.0228 45.2723 64.2948 45.3497 64.6202 45.3497C64.8442 45.3497 65.0415 45.3177 65.2122 45.2537C65.3882 45.1843 65.5508 45.0777 65.7002 44.9337L66.3642 45.6537C65.9588 46.1177 65.3668 46.3497 64.5882 46.3497C64.1028 46.3497 63.6735 46.2563 63.3002 46.0697C62.9268 45.8777 62.6388 45.6137 62.4362 45.2777C62.2335 44.9417 62.1322 44.5603 62.1322 44.1337C62.1322 43.7123 62.2308 43.3337 62.4282 42.9977C62.6308 42.6563 62.9055 42.3923 63.2522 42.2057C63.6042 42.0137 63.9962 41.9177 64.4282 41.9177C64.8495 41.9177 65.2308 42.0083 65.5722 42.1897C65.9135 42.371 66.1802 42.6323 66.3722 42.9737C66.5695 43.3097 66.6682 43.7017 66.6682 44.1497ZM64.4362 42.8617C64.1535 42.8617 63.9162 42.9417 63.7242 43.1017C63.5322 43.2617 63.4148 43.4803 63.3722 43.7577H65.4922C65.4495 43.4857 65.3322 43.2697 65.1402 43.1097C64.9482 42.9443 64.7135 42.8617 64.4362 42.8617ZM68.947 46.3497C68.5897 46.3497 68.2404 46.307 67.899 46.2217C67.5577 46.131 67.2857 46.019 67.083 45.8857L67.499 44.9897C67.691 45.1123 67.923 45.2137 68.195 45.2937C68.467 45.3683 68.7337 45.4057 68.995 45.4057C69.523 45.4057 69.787 45.275 69.787 45.0137C69.787 44.891 69.715 44.803 69.571 44.7497C69.427 44.6963 69.2057 44.651 68.907 44.6137C68.555 44.5603 68.2644 44.499 68.035 44.4297C67.8057 44.3603 67.6057 44.2377 67.435 44.0617C67.2697 43.8857 67.187 43.635 67.187 43.3097C67.187 43.0377 67.2644 42.7977 67.419 42.5897C67.579 42.3763 67.8084 42.211 68.107 42.0937C68.411 41.9763 68.7684 41.9177 69.179 41.9177C69.483 41.9177 69.7844 41.9523 70.083 42.0217C70.387 42.0857 70.6377 42.1763 70.835 42.2937L70.419 43.1817C70.0404 42.9683 69.627 42.8617 69.179 42.8617C68.9124 42.8617 68.7124 42.899 68.579 42.9737C68.4457 43.0483 68.379 43.1443 68.379 43.2617C68.379 43.395 68.451 43.4883 68.595 43.5417C68.739 43.595 68.9684 43.6457 69.283 43.6937C69.635 43.7523 69.923 43.8163 70.147 43.8857C70.371 43.9497 70.5657 44.0697 70.731 44.2457C70.8964 44.4217 70.979 44.667 70.979 44.9817C70.979 45.2483 70.899 45.4857 70.739 45.6937C70.579 45.9017 70.3444 46.0643 70.035 46.1817C69.731 46.2937 69.3684 46.3497 68.947 46.3497ZM71.749 41.9817H72.997V46.2857H71.749V41.9817ZM72.373 41.3817C72.1437 41.3817 71.957 41.315 71.813 41.1817C71.669 41.0483 71.597 40.883 71.597 40.6857C71.597 40.4883 71.669 40.323 71.813 40.1897C71.957 40.0563 72.1437 39.9897 72.373 39.9897C72.6024 39.9897 72.789 40.0537 72.933 40.1817C73.077 40.3097 73.149 40.4697 73.149 40.6617C73.149 40.8697 73.077 41.043 72.933 41.1817C72.789 41.315 72.6024 41.3817 72.373 41.3817ZM76.2033 46.3497C75.7499 46.3497 75.3419 46.2563 74.9793 46.0697C74.6219 45.8777 74.3419 45.6137 74.1393 45.2777C73.9366 44.9417 73.8353 44.5603 73.8353 44.1337C73.8353 43.707 73.9366 43.3257 74.1393 42.9897C74.3419 42.6537 74.6219 42.3923 74.9793 42.2057C75.3419 42.0137 75.7499 41.9177 76.2033 41.9177C76.6566 41.9177 77.0619 42.0137 77.4193 42.2057C77.7766 42.3923 78.0566 42.6537 78.2593 42.9897C78.4619 43.3257 78.5633 43.707 78.5633 44.1337C78.5633 44.5603 78.4619 44.9417 78.2593 45.2777C78.0566 45.6137 77.7766 45.8777 77.4193 46.0697C77.0619 46.2563 76.6566 46.3497 76.2033 46.3497ZM76.2033 45.3257C76.5233 45.3257 76.7846 45.219 76.9873 45.0057C77.1953 44.787 77.2993 44.4963 77.2993 44.1337C77.2993 43.771 77.1953 43.483 76.9873 43.2697C76.7846 43.051 76.5233 42.9417 76.2033 42.9417C75.8833 42.9417 75.6193 43.051 75.4113 43.2697C75.2033 43.483 75.0993 43.771 75.0993 44.1337C75.0993 44.4963 75.2033 44.787 75.4113 45.0057C75.6193 45.219 75.8833 45.3257 76.2033 45.3257ZM82.0135 41.9177C82.5468 41.9177 82.9761 42.0777 83.3015 42.3977C83.6321 42.7177 83.7975 43.1923 83.7975 43.8217V46.2857H82.5495V44.0137C82.5495 43.6723 82.4748 43.419 82.3255 43.2537C82.1761 43.083 81.9601 42.9977 81.6775 42.9977C81.3628 42.9977 81.1121 43.0963 80.9255 43.2937C80.7388 43.4857 80.6455 43.7737 80.6455 44.1577V46.2857H79.3975V41.9817H80.5895V42.4857C80.7548 42.3043 80.9601 42.1657 81.2055 42.0697C81.4508 41.9683 81.7201 41.9177 82.0135 41.9177ZM86.6647 41.9177C87.3314 41.9177 87.8434 42.0777 88.2007 42.3977C88.558 42.7123 88.7367 43.1897 88.7367 43.8297V46.2857H87.5687V45.7497C87.334 46.1497 86.8967 46.3497 86.2567 46.3497C85.926 46.3497 85.638 46.2937 85.3927 46.1817C85.1527 46.0697 84.9687 45.915 84.8407 45.7177C84.7127 45.5203 84.6487 45.2963 84.6487 45.0457C84.6487 44.6457 84.798 44.331 85.0967 44.1017C85.4007 43.8723 85.8674 43.7577 86.4967 43.7577H87.4887C87.4887 43.4857 87.406 43.2777 87.2407 43.1337C87.0754 42.9843 86.8274 42.9097 86.4967 42.9097C86.2674 42.9097 86.0407 42.947 85.8167 43.0217C85.598 43.091 85.4114 43.187 85.2567 43.3097L84.8087 42.4377C85.0434 42.2723 85.3234 42.1443 85.6487 42.0537C85.9794 41.963 86.318 41.9177 86.6647 41.9177ZM86.5687 45.5097C86.782 45.5097 86.9714 45.4617 87.1367 45.3657C87.302 45.2643 87.4194 45.1177 87.4887 44.9257V44.4857H86.6327C86.1207 44.4857 85.8647 44.6537 85.8647 44.9897C85.8647 45.1497 85.926 45.2777 86.0487 45.3737C86.1767 45.4643 86.35 45.5097 86.5687 45.5097ZM91.0582 42.5497C91.2075 42.3417 91.4075 42.1843 91.6582 42.0777C91.9142 41.971 92.2075 41.9177 92.5382 41.9177V43.0697C92.3995 43.059 92.3062 43.0537 92.2582 43.0537C91.9009 43.0537 91.6209 43.155 91.4182 43.3577C91.2155 43.555 91.1142 43.8537 91.1142 44.2537V46.2857H89.8662V41.9817H91.0582V42.5497ZM98.1212 41.9177C98.5212 41.9177 98.8838 42.011 99.2092 42.1977C99.5398 42.379 99.7985 42.6377 99.9852 42.9737C100.172 43.3043 100.265 43.691 100.265 44.1337C100.265 44.5763 100.172 44.9657 99.9852 45.3017C99.7985 45.6323 99.5398 45.891 99.2092 46.0777C98.8838 46.259 98.5212 46.3497 98.1212 46.3497C97.5292 46.3497 97.0785 46.163 96.7692 45.7897V46.2857H95.5772V40.3497H96.8252V42.4377C97.1398 42.091 97.5718 41.9177 98.1212 41.9177ZM97.9052 45.3257C98.2252 45.3257 98.4865 45.219 98.6892 45.0057C98.8972 44.787 99.0012 44.4963 99.0012 44.1337C99.0012 43.771 98.8972 43.483 98.6892 43.2697C98.4865 43.051 98.2252 42.9417 97.9052 42.9417C97.5852 42.9417 97.3212 43.051 97.1132 43.2697C96.9105 43.483 96.8092 43.771 96.8092 44.1337C96.8092 44.4963 96.9105 44.787 97.1132 45.0057C97.3212 45.219 97.5852 45.3257 97.9052 45.3257ZM103.149 46.3497C102.695 46.3497 102.287 46.2563 101.925 46.0697C101.567 45.8777 101.287 45.6137 101.085 45.2777C100.882 44.9417 100.781 44.5603 100.781 44.1337C100.781 43.707 100.882 43.3257 101.085 42.9897C101.287 42.6537 101.567 42.3923 101.925 42.2057C102.287 42.0137 102.695 41.9177 103.149 41.9177C103.602 41.9177 104.007 42.0137 104.365 42.2057C104.722 42.3923 105.002 42.6537 105.205 42.9897C105.407 43.3257 105.509 43.707 105.509 44.1337C105.509 44.5603 105.407 44.9417 105.205 45.2777C105.002 45.6137 104.722 45.8777 104.365 46.0697C104.007 46.2563 103.602 46.3497 103.149 46.3497ZM103.149 45.3257C103.469 45.3257 103.73 45.219 103.933 45.0057C104.141 44.787 104.245 44.4963 104.245 44.1337C104.245 43.771 104.141 43.483 103.933 43.2697C103.73 43.051 103.469 42.9417 103.149 42.9417C102.829 42.9417 102.565 43.051 102.357 43.2697C102.149 43.483 102.045 43.771 102.045 44.1337C102.045 44.4963 102.149 44.787 102.357 45.0057C102.565 45.219 102.829 45.3257 103.149 45.3257ZM109.119 46.0777C108.996 46.1683 108.844 46.2377 108.663 46.2857C108.487 46.3283 108.3 46.3497 108.103 46.3497C107.591 46.3497 107.193 46.219 106.911 45.9577C106.633 45.6963 106.495 45.3123 106.495 44.8057V43.0377H105.831V42.0777H106.495V41.0297H107.743V42.0777H108.815V43.0377H107.743V44.7897C107.743 44.971 107.788 45.1123 107.879 45.2137C107.975 45.3097 108.108 45.3577 108.279 45.3577C108.476 45.3577 108.644 45.3043 108.783 45.1977L109.119 46.0777ZM111.735 46.3497C111.281 46.3497 110.873 46.2563 110.511 46.0697C110.153 45.8777 109.873 45.6137 109.671 45.2777C109.468 44.9417 109.367 44.5603 109.367 44.1337C109.367 43.707 109.468 43.3257 109.671 42.9897C109.873 42.6537 110.153 42.3923 110.511 42.2057C110.873 42.0137 111.281 41.9177 111.735 41.9177C112.188 41.9177 112.593 42.0137 112.951 42.2057C113.308 42.3923 113.588 42.6537 113.791 42.9897C113.993 43.3257 114.095 43.707 114.095 44.1337C114.095 44.5603 113.993 44.9417 113.791 45.2777C113.588 45.6137 113.308 45.8777 112.951 46.0697C112.593 46.2563 112.188 46.3497 111.735 46.3497ZM111.735 45.3257C112.055 45.3257 112.316 45.219 112.519 45.0057C112.727 44.787 112.831 44.4963 112.831 44.1337C112.831 43.771 112.727 43.483 112.519 43.2697C112.316 43.051 112.055 42.9417 111.735 42.9417C111.415 42.9417 111.151 43.051 110.943 43.2697C110.735 43.483 110.631 43.771 110.631 44.1337C110.631 44.4963 110.735 44.787 110.943 45.0057C111.151 45.219 111.415 45.3257 111.735 45.3257ZM112.071 40.2777H113.415L111.967 41.4297H110.991L112.071 40.2777ZM117.545 41.9177C118.078 41.9177 118.507 42.0777 118.833 42.3977C119.163 42.7177 119.329 43.1923 119.329 43.8217V46.2857H118.081V44.0137C118.081 43.6723 118.006 43.419 117.857 43.2537C117.707 43.083 117.491 42.9977 117.209 42.9977C116.894 42.9977 116.643 43.0963 116.457 43.2937C116.27 43.4857 116.177 43.7737 116.177 44.1577V46.2857H114.929V41.9817H116.121V42.4857C116.286 42.3043 116.491 42.1657 116.737 42.0697C116.982 41.9683 117.251 41.9177 117.545 41.9177ZM122.726 41.9817H123.974V46.2857H122.726V41.9817ZM123.35 41.3817C123.12 41.3817 122.934 41.315 122.79 41.1817C122.646 41.0483 122.574 40.883 122.574 40.6857C122.574 40.4883 122.646 40.323 122.79 40.1897C122.934 40.0563 123.12 39.9897 123.35 39.9897C123.579 39.9897 123.766 40.0537 123.91 40.1817C124.054 40.3097 124.126 40.4697 124.126 40.6617C124.126 40.8697 124.054 41.043 123.91 41.1817C123.766 41.315 123.579 41.3817 123.35 41.3817ZM127.748 41.9177C128.281 41.9177 128.711 42.0777 129.036 42.3977C129.367 42.7177 129.532 43.1923 129.532 43.8217V46.2857H128.284V44.0137C128.284 43.6723 128.209 43.419 128.06 43.2537C127.911 43.083 127.695 42.9977 127.412 42.9977C127.097 42.9977 126.847 43.0963 126.66 43.2937C126.473 43.4857 126.38 43.7737 126.38 44.1577V46.2857H125.132V41.9817H126.324V42.4857C126.489 42.3043 126.695 42.1657 126.94 42.0697C127.185 41.9683 127.455 41.9177 127.748 41.9177ZM130.663 41.9817H131.911V46.2857H130.663V41.9817ZM131.287 41.3817C131.058 41.3817 130.871 41.315 130.727 41.1817C130.583 41.0483 130.511 40.883 130.511 40.6857C130.511 40.4883 130.583 40.323 130.727 40.1897C130.871 40.0563 131.058 39.9897 131.287 39.9897C131.516 39.9897 131.703 40.0537 131.847 40.1817C131.991 40.3097 132.063 40.4697 132.063 40.6617C132.063 40.8697 131.991 41.043 131.847 41.1817C131.703 41.315 131.516 41.3817 131.287 41.3817ZM135.149 46.3497C134.691 46.3497 134.277 46.2563 133.909 46.0697C133.547 45.8777 133.261 45.6137 133.053 45.2777C132.851 44.9417 132.749 44.5603 132.749 44.1337C132.749 43.707 132.851 43.3257 133.053 42.9897C133.261 42.6537 133.547 42.3923 133.909 42.2057C134.277 42.0137 134.691 41.9177 135.149 41.9177C135.603 41.9177 135.997 42.0137 136.333 42.2057C136.675 42.3923 136.923 42.6617 137.077 43.0137L136.109 43.5337C135.885 43.139 135.563 42.9417 135.141 42.9417C134.816 42.9417 134.547 43.0483 134.333 43.2617C134.12 43.475 134.013 43.7657 134.013 44.1337C134.013 44.5017 134.12 44.7923 134.333 45.0057C134.547 45.219 134.816 45.3257 135.141 45.3257C135.568 45.3257 135.891 45.1283 136.109 44.7337L137.077 45.2617C136.923 45.603 136.675 45.8697 136.333 46.0617C135.997 46.2537 135.603 46.3497 135.149 46.3497ZM137.796 41.9817H139.044V46.2857H137.796V41.9817ZM138.42 41.3817C138.191 41.3817 138.004 41.315 137.86 41.1817C137.716 41.0483 137.644 40.883 137.644 40.6857C137.644 40.4883 137.716 40.323 137.86 40.1897C138.004 40.0563 138.191 39.9897 138.42 39.9897C138.649 39.9897 138.836 40.0537 138.98 40.1817C139.124 40.3097 139.196 40.4697 139.196 40.6617C139.196 40.8697 139.124 41.043 138.98 41.1817C138.836 41.315 138.649 41.3817 138.42 41.3817ZM141.938 41.9177C142.605 41.9177 143.117 42.0777 143.474 42.3977C143.831 42.7123 144.01 43.1897 144.01 43.8297V46.2857H142.842V45.7497C142.607 46.1497 142.17 46.3497 141.53 46.3497C141.199 46.3497 140.911 46.2937 140.666 46.1817C140.426 46.0697 140.242 45.915 140.114 45.7177C139.986 45.5203 139.922 45.2963 139.922 45.0457C139.922 44.6457 140.071 44.331 140.37 44.1017C140.674 43.8723 141.141 43.7577 141.77 43.7577H142.762C142.762 43.4857 142.679 43.2777 142.514 43.1337C142.349 42.9843 142.101 42.9097 141.77 42.9097C141.541 42.9097 141.314 42.947 141.09 43.0217C140.871 43.091 140.685 43.187 140.53 43.3097L140.082 42.4377C140.317 42.2723 140.597 42.1443 140.922 42.0537C141.253 41.963 141.591 41.9177 141.938 41.9177ZM141.842 45.5097C142.055 45.5097 142.245 45.4617 142.41 45.3657C142.575 45.2643 142.693 45.1177 142.762 44.9257V44.4857H141.906C141.394 44.4857 141.138 44.6537 141.138 44.9897C141.138 45.1497 141.199 45.2777 141.322 45.3737C141.45 45.4643 141.623 45.5097 141.842 45.5097ZM146.332 42.5497C146.481 42.3417 146.681 42.1843 146.932 42.0777C147.188 41.971 147.481 41.9177 147.812 41.9177V43.0697C147.673 43.059 147.58 43.0537 147.532 43.0537C147.174 43.0537 146.894 43.155 146.692 43.3577C146.489 43.555 146.388 43.8537 146.388 44.2537V46.2857H145.14V41.9817H146.332V42.5497ZM148.979 46.3497C148.76 46.3497 148.576 46.275 148.427 46.1257C148.278 45.9763 148.203 45.7897 148.203 45.5657C148.203 45.3363 148.278 45.1523 148.427 45.0137C148.576 44.8697 148.76 44.7977 148.979 44.7977C149.198 44.7977 149.382 44.8697 149.531 45.0137C149.68 45.1523 149.755 45.3363 149.755 45.5657C149.755 45.7897 149.68 45.9763 149.531 46.1257C149.382 46.275 149.198 46.3497 148.979 46.3497Z" fill="#333333"/>
<path fill-rule="evenodd" clip-rule="evenodd" d="M170.357 69.419C170.357 62.3571 164.571 56.5667 157.5 56.5667C117.753 56.5667 101.571 56.5714 101.571 56.5714L96.4285 61.7143H72.6428L66.8571 56.5713H44.4515C37.3801 56.5713 31.5944 62.3572 31.5944 69.4237C31.5944 69.4284 31.5944 69.4332 31.5944 69.4381C31.5944 76.5 37.3801 82.2857 44.4515 82.2857C55.0992 82.2857 66.8572 82.2857 66.8572 82.2857L72.6429 87.4286H96.4286L101.571 82.2857H157.594C164.571 82.2857 170.357 76.5 170.357 69.4334C170.357 69.4286 170.357 69.75 170.357 69.419Z" fill="#30DCFF"/>
<path fill-rule="evenodd" clip-rule="evenodd" d="M170.357 69.4214C170.357 62.3571 164.571 56.5714 157.406 56.5714C117.659 56.5714 101.571 56.5715 101.571 56.5715L96.4286 61.7143H72.6429L66.8571 56.5715H44.3571C37.2857 56.5715 31.5 62.3572 31.5 69.4214C31.5 69.4261 31.5 69.4286 31.5 69.4286H34.7143C34.7143 63 39.2143 59.7858 44.3571 59.7858C53.784 59.7858 65.5714 59.7857 65.5714 59.7857L71.3571 64.9286H97.7143L102.857 59.7857H157.5C163.286 59.7857 167.143 63.6429 167.143 69.4284L170.357 69.4286V69.4214Z" fill="white" fill-opacity="0.5"/>
<path fill-rule="evenodd" clip-rule="evenodd" d="M170.357 69.4285L167.143 69.4285C167.143 75.1957 163.412 79.0714 157.5 79.0714C120.854 79.0714 100.286 79.0714 100.286 79.0714L95.1429 84.2143H73.9286L68.1429 79.0714H44.3571C37.6047 79.0714 34.7143 75.2143 34.7143 69.4295L31.5 69.4285V69.4358C31.5 76.5 37.2857 82.2857 44.3571 82.2857C55.0048 82.2857 66.8571 82.2857 66.8571 82.2857L72.6429 87.4285H96.4286L101.571 82.2857H157.5C164.571 82.2857 170.357 76.5 170.357 69.4285Z" fill="black" fill-opacity="0.25"/>
<path d="M37.928 75L40.424 69.4H41.704L44.208 75H42.848L40.8 70.056H41.312L39.256 75H37.928ZM39.176 73.8L39.52 72.816H42.4L42.752 73.8H39.176ZM46.1099 75.064C45.7419 75.064 45.3873 75.0213 45.0459 74.936C44.7099 74.8453 44.4433 74.7333 44.2459 74.6L44.6619 73.704C44.8593 73.8267 45.0913 73.928 45.3579 74.008C45.6299 74.0827 45.8966 74.12 46.1579 74.12C46.4459 74.12 46.6486 74.0853 46.7659 74.016C46.8886 73.9467 46.9499 73.8507 46.9499 73.728C46.9499 73.6267 46.9019 73.552 46.8059 73.504C46.7153 73.4507 46.5926 73.4107 46.4379 73.384C46.2833 73.3573 46.1126 73.3307 45.9259 73.304C45.7446 73.2773 45.5606 73.2427 45.3739 73.2C45.1873 73.152 45.0166 73.0827 44.8619 72.992C44.7073 72.9013 44.5819 72.7787 44.4859 72.624C44.3953 72.4693 44.3499 72.2693 44.3499 72.024C44.3499 71.752 44.4273 71.512 44.5819 71.304C44.7419 71.096 44.9713 70.9333 45.2699 70.816C45.5686 70.6933 45.9259 70.632 46.3419 70.632C46.6353 70.632 46.9339 70.664 47.2379 70.728C47.5419 70.792 47.7953 70.8853 47.9979 71.008L47.5819 71.896C47.3739 71.7733 47.1633 71.6907 46.9499 71.648C46.7419 71.6 46.5393 71.576 46.3419 71.576C46.0646 71.576 45.8619 71.6133 45.7339 71.688C45.6059 71.7627 45.5419 71.8587 45.5419 71.976C45.5419 72.0827 45.5873 72.1627 45.6779 72.216C45.7739 72.2693 45.8993 72.312 46.0539 72.344C46.2086 72.376 46.3766 72.4053 46.5579 72.432C46.7446 72.4533 46.9313 72.488 47.1179 72.536C47.3046 72.584 47.4726 72.6533 47.6219 72.744C47.7766 72.8293 47.9019 72.9493 47.9979 73.104C48.0939 73.2533 48.1419 73.4507 48.1419 73.696C48.1419 73.9627 48.0619 74.2 47.9019 74.408C47.7419 74.6107 47.5099 74.7707 47.2059 74.888C46.9073 75.0053 46.5419 75.064 46.1099 75.064ZM48.9119 75V70.696H50.1599V75H48.9119ZM49.5359 70.096C49.3066 70.096 49.1199 70.0293 48.9759 69.896C48.8319 69.7627 48.7599 69.5973 48.7599 69.4C48.7599 69.2027 48.8319 69.0373 48.9759 68.904C49.1199 68.7707 49.3066 68.704 49.5359 68.704C49.7653 68.704 49.9519 68.768 50.0959 68.896C50.2399 69.0187 50.3119 69.1787 50.3119 69.376C50.3119 69.584 50.2399 69.7573 50.0959 69.896C49.9573 70.0293 49.7706 70.096 49.5359 70.096ZM53.3422 76.616C52.9369 76.616 52.5449 76.5653 52.1662 76.464C51.7929 76.368 51.4809 76.2213 51.2302 76.024L51.7262 75.128C51.9075 75.2773 52.1369 75.3947 52.4142 75.48C52.6969 75.5707 52.9742 75.616 53.2462 75.616C53.6889 75.616 54.0089 75.5173 54.2062 75.32C54.4089 75.1227 54.5102 74.8293 54.5102 74.44V73.792L54.5902 72.712L54.5742 71.624V70.696H55.7582V74.28C55.7582 75.08 55.5502 75.6693 55.1342 76.048C54.7182 76.4267 54.1209 76.616 53.3422 76.616ZM53.1502 74.792C52.7502 74.792 52.3875 74.7067 52.0622 74.536C51.7422 74.36 51.4835 74.1173 51.2862 73.808C51.0942 73.4933 50.9982 73.128 50.9982 72.712C50.9982 72.2907 51.0942 71.9253 51.2862 71.616C51.4835 71.3013 51.7422 71.0587 52.0622 70.888C52.3875 70.7173 52.7502 70.632 53.1502 70.632C53.5129 70.632 53.8329 70.7067 54.1102 70.856C54.3875 71 54.6035 71.2267 54.7582 71.536C54.9129 71.84 54.9902 72.232 54.9902 72.712C54.9902 73.1867 54.9129 73.5787 54.7582 73.888C54.6035 74.192 54.3875 74.4187 54.1102 74.568C53.8329 74.7173 53.5129 74.792 53.1502 74.792ZM53.3982 73.768C53.6169 73.768 53.8115 73.7253 53.9822 73.64C54.1529 73.5493 54.2862 73.424 54.3822 73.264C54.4782 73.104 54.5262 72.92 54.5262 72.712C54.5262 72.4987 54.4782 72.3147 54.3822 72.16C54.2862 72 54.1529 71.8773 53.9822 71.792C53.8115 71.7013 53.6169 71.656 53.3982 71.656C53.1795 71.656 52.9849 71.7013 52.8142 71.792C52.6435 71.8773 52.5075 72 52.4062 72.16C52.3102 72.3147 52.2622 72.4987 52.2622 72.712C52.2622 72.92 52.3102 73.104 52.4062 73.264C52.5075 73.424 52.6435 73.5493 52.8142 73.64C52.9849 73.7253 53.1795 73.768 53.3982 73.768ZM59.5358 70.632C59.8771 70.632 60.1811 70.7013 60.4478 70.84C60.7198 70.9733 60.9331 71.1813 61.0878 71.464C61.2424 71.7413 61.3198 72.0987 61.3198 72.536V75H60.0718V72.728C60.0718 72.3813 59.9944 72.1253 59.8398 71.96C59.6904 71.7947 59.4771 71.712 59.1998 71.712C59.0024 71.712 58.8238 71.7547 58.6638 71.84C58.5091 71.92 58.3864 72.0453 58.2958 72.216C58.2104 72.3867 58.1678 72.6053 58.1678 72.872V75H56.9198V70.696H58.1118V71.888L57.8878 71.528C58.0424 71.24 58.2638 71.0187 58.5518 70.864C58.8398 70.7093 59.1678 70.632 59.5358 70.632ZM65.091 75V74.16L65.011 73.976V72.472C65.011 72.2053 64.9283 71.9973 64.763 71.848C64.603 71.6987 64.355 71.624 64.019 71.624C63.7897 71.624 63.563 71.6613 63.339 71.736C63.1203 71.8053 62.9337 71.9013 62.779 72.024L62.331 71.152C62.5657 70.9867 62.8483 70.8587 63.179 70.768C63.5097 70.6773 63.8457 70.632 64.187 70.632C64.843 70.632 65.3523 70.7867 65.715 71.096C66.0777 71.4053 66.259 71.888 66.259 72.544V75H65.091ZM63.779 75.064C63.443 75.064 63.155 75.008 62.915 74.896C62.675 74.7787 62.491 74.6213 62.363 74.424C62.235 74.2267 62.171 74.0053 62.171 73.76C62.171 73.504 62.2323 73.28 62.355 73.088C62.483 72.896 62.683 72.7467 62.955 72.64C63.227 72.528 63.5817 72.472 64.019 72.472H65.163V73.2H64.155C63.8617 73.2 63.659 73.248 63.547 73.344C63.4403 73.44 63.387 73.56 63.387 73.704C63.387 73.864 63.4483 73.992 63.571 74.088C63.699 74.1787 63.8723 74.224 64.091 74.224C64.299 74.224 64.4857 74.176 64.651 74.08C64.8163 73.9787 64.9363 73.832 65.011 73.64L65.203 74.216C65.1123 74.4933 64.947 74.704 64.707 74.848C64.467 74.992 64.1577 75.064 63.779 75.064ZM67.3885 75V70.696H68.5805V71.912L68.4125 71.56C68.5405 71.256 68.7458 71.0267 69.0285 70.872C69.3112 70.712 69.6552 70.632 70.0605 70.632V71.784C70.0072 71.7787 69.9592 71.776 69.9165 71.776C69.8738 71.7707 69.8285 71.768 69.7805 71.768C69.4392 71.768 69.1618 71.8667 68.9485 72.064C68.7405 72.256 68.6365 72.5573 68.6365 72.968V75H67.3885ZM74.2674 75L72.4594 70.696H73.7474L75.2514 74.4H74.6114L76.1714 70.696H77.3714L75.5554 75H74.2674ZM79.8995 75.064C79.4088 75.064 78.9768 74.968 78.6035 74.776C78.2355 74.584 77.9502 74.3227 77.7475 73.992C77.5448 73.656 77.4435 73.2747 77.4435 72.848C77.4435 72.416 77.5422 72.0347 77.7395 71.704C77.9422 71.368 78.2168 71.1067 78.5635 70.92C78.9102 70.728 79.3022 70.632 79.7395 70.632C80.1608 70.632 80.5395 70.7227 80.8755 70.904C81.2168 71.08 81.4862 71.336 81.6835 71.672C81.8808 72.0027 81.9795 72.4 81.9795 72.864C81.9795 72.912 81.9768 72.968 81.9715 73.032C81.9662 73.0907 81.9608 73.1467 81.9555 73.2H78.4595V72.472H81.2995L80.8195 72.688C80.8195 72.464 80.7742 72.2693 80.6835 72.104C80.5928 71.9387 80.4675 71.8107 80.3075 71.72C80.1475 71.624 79.9608 71.576 79.7475 71.576C79.5342 71.576 79.3448 71.624 79.1795 71.72C79.0195 71.8107 78.8942 71.9413 78.8035 72.112C78.7128 72.2773 78.6675 72.4747 78.6675 72.704V72.896C78.6675 73.1307 78.7182 73.3387 78.8195 73.52C78.9262 73.696 79.0728 73.832 79.2595 73.928C79.4515 74.0187 79.6755 74.064 79.9315 74.064C80.1608 74.064 80.3608 74.0293 80.5315 73.96C80.7075 73.8907 80.8675 73.7867 81.0115 73.648L81.6755 74.368C81.4782 74.592 81.2302 74.7653 80.9315 74.888C80.6328 75.0053 80.2888 75.064 79.8995 75.064ZM82.8104 75V70.696H84.0024V71.912L83.8344 71.56C83.9624 71.256 84.1677 71.0267 84.4504 70.872C84.733 70.712 85.077 70.632 85.4824 70.632V71.784C85.429 71.7787 85.381 71.776 85.3384 71.776C85.2957 71.7707 85.2504 71.768 85.2024 71.768C84.861 71.768 84.5837 71.8667 84.3704 72.064C84.1624 72.256 84.0584 72.5573 84.0584 72.968V75H82.8104ZM88.0412 75.064C87.6359 75.064 87.2705 74.9733 86.9452 74.792C86.6199 74.6053 86.3612 74.3467 86.1692 74.016C85.9825 73.6853 85.8892 73.296 85.8892 72.848C85.8892 72.3947 85.9825 72.0027 86.1692 71.672C86.3612 71.3413 86.6199 71.0853 86.9452 70.904C87.2705 70.7227 87.6359 70.632 88.0412 70.632C88.4039 70.632 88.7212 70.712 88.9932 70.872C89.2652 71.032 89.4759 71.2747 89.6252 71.6C89.7745 71.9253 89.8492 72.3413 89.8492 72.848C89.8492 73.3493 89.7772 73.7653 89.6332 74.096C89.4892 74.4213 89.2812 74.664 89.0092 74.824C88.7425 74.984 88.4199 75.064 88.0412 75.064ZM88.2572 74.04C88.4599 74.04 88.6439 73.992 88.8092 73.896C88.9745 73.8 89.1052 73.664 89.2012 73.488C89.3025 73.3067 89.3532 73.0933 89.3532 72.848C89.3532 72.5973 89.3025 72.384 89.2012 72.208C89.1052 72.032 88.9745 71.896 88.8092 71.8C88.6439 71.704 88.4599 71.656 88.2572 71.656C88.0492 71.656 87.8625 71.704 87.6972 71.8C87.5319 71.896 87.3985 72.032 87.2972 72.208C87.2012 72.384 87.1532 72.5973 87.1532 72.848C87.1532 73.0933 87.2012 73.3067 87.2972 73.488C87.3985 73.664 87.5319 73.8 87.6972 73.896C87.8625 73.992 88.0492 74.04 88.2572 74.04ZM89.3852 75V74.12L89.4092 72.84L89.3292 71.568V69.064H90.5772V75H89.3852ZM94.3723 75V74.16L94.2923 73.976V72.472C94.2923 72.2053 94.2096 71.9973 94.0443 71.848C93.8843 71.6987 93.6363 71.624 93.3003 71.624C93.0709 71.624 92.8443 71.6613 92.6203 71.736C92.4016 71.8053 92.2149 71.9013 92.0603 72.024L91.6123 71.152C91.8469 70.9867 92.1296 70.8587 92.4603 70.768C92.7909 70.6773 93.1269 70.632 93.4683 70.632C94.1243 70.632 94.6336 70.7867 94.9963 71.096C95.3589 71.4053 95.5403 71.888 95.5403 72.544V75H94.3723ZM93.0603 75.064C92.7243 75.064 92.4363 75.008 92.1963 74.896C91.9563 74.7787 91.7723 74.6213 91.6443 74.424C91.5163 74.2267 91.4523 74.0053 91.4523 73.76C91.4523 73.504 91.5136 73.28 91.6363 73.088C91.7643 72.896 91.9643 72.7467 92.2363 72.64C92.5083 72.528 92.8629 72.472 93.3003 72.472H94.4443V73.2H93.4363C93.1429 73.2 92.9403 73.248 92.8283 73.344C92.7216 73.44 92.6683 73.56 92.6683 73.704C92.6683 73.864 92.7296 73.992 92.8523 74.088C92.9803 74.1787 93.1536 74.224 93.3723 74.224C93.5803 74.224 93.7669 74.176 93.9323 74.08C94.0976 73.9787 94.2176 73.832 94.2923 73.64L94.4843 74.216C94.3936 74.4933 94.2283 74.704 93.9883 74.848C93.7483 74.992 93.4389 75.064 93.0603 75.064ZM98.549 75.064C98.1437 75.064 97.7783 74.9733 97.453 74.792C97.1277 74.6053 96.869 74.3467 96.677 74.016C96.4903 73.6853 96.397 73.296 96.397 72.848C96.397 72.3947 96.4903 72.0027 96.677 71.672C96.869 71.3413 97.1277 71.0853 97.453 70.904C97.7783 70.7227 98.1437 70.632 98.549 70.632C98.9117 70.632 99.229 70.712 99.501 70.872C99.773 71.032 99.9837 71.2747 100.133 71.6C100.282 71.9253 100.357 72.3413 100.357 72.848C100.357 73.3493 100.285 73.7653 100.141 74.096C99.997 74.4213 99.789 74.664 99.517 74.824C99.2503 74.984 98.9277 75.064 98.549 75.064ZM98.765 74.04C98.9677 74.04 99.1517 73.992 99.317 73.896C99.4823 73.8 99.613 73.664 99.709 73.488C99.8103 73.3067 99.861 73.0933 99.861 72.848C99.861 72.5973 99.8103 72.384 99.709 72.208C99.613 72.032 99.4823 71.896 99.317 71.8C99.1517 71.704 98.9677 71.656 98.765 71.656C98.557 71.656 98.3703 71.704 98.205 71.8C98.0397 71.896 97.9063 72.032 97.805 72.208C97.709 72.384 97.661 72.5973 97.661 72.848C97.661 73.0933 97.709 73.3067 97.805 73.488C97.9063 73.664 98.0397 73.8 98.205 73.896C98.3703 73.992 98.557 74.04 98.765 74.04ZM99.893 75V74.12L99.917 72.84L99.837 71.568V69.064H101.085V75H99.893ZM104.376 75.064C103.885 75.064 103.453 74.968 103.08 74.776C102.712 74.584 102.427 74.3227 102.224 73.992C102.021 73.656 101.92 73.2747 101.92 72.848C101.92 72.416 102.019 72.0347 102.216 71.704C102.419 71.368 102.693 71.1067 103.04 70.92C103.387 70.728 103.779 70.632 104.216 70.632C104.637 70.632 105.016 70.7227 105.352 70.904C105.693 71.08 105.963 71.336 106.16 71.672C106.357 72.0027 106.456 72.4 106.456 72.864C106.456 72.912 106.453 72.968 106.448 73.032C106.443 73.0907 106.437 73.1467 106.432 73.2H102.936V72.472H105.776L105.296 72.688C105.296 72.464 105.251 72.2693 105.16 72.104C105.069 71.9387 104.944 71.8107 104.784 71.72C104.624 71.624 104.437 71.576 104.224 71.576C104.011 71.576 103.821 71.624 103.656 71.72C103.496 71.8107 103.371 71.9413 103.28 72.112C103.189 72.2773 103.144 72.4747 103.144 72.704V72.896C103.144 73.1307 103.195 73.3387 103.296 73.52C103.403 73.696 103.549 73.832 103.736 73.928C103.928 74.0187 104.152 74.064 104.408 74.064C104.637 74.064 104.837 74.0293 105.008 73.96C105.184 73.8907 105.344 73.7867 105.488 73.648L106.152 74.368C105.955 74.592 105.707 74.7653 105.408 74.888C105.109 75.0053 104.765 75.064 104.376 75.064ZM107.287 75V70.696H108.479V71.912L108.311 71.56C108.439 71.256 108.644 71.0267 108.927 70.872C109.21 70.712 109.554 70.632 109.959 70.632V71.784C109.906 71.7787 109.858 71.776 109.815 71.776C109.772 71.7707 109.727 71.768 109.679 71.768C109.338 71.768 109.06 71.8667 108.847 72.064C108.639 72.256 108.535 72.5573 108.535 72.968V75H107.287ZM112.718 75.064C112.259 75.064 111.851 74.968 111.494 74.776C111.142 74.584 110.862 74.3227 110.654 73.992C110.451 73.656 110.35 73.2747 110.35 72.848C110.35 72.416 110.451 72.0347 110.654 71.704C110.862 71.368 111.142 71.1067 111.494 70.92C111.851 70.728 112.259 70.632 112.718 70.632C113.171 70.632 113.576 70.728 113.934 70.92C114.291 71.1067 114.571 71.3653 114.774 71.696C114.976 72.0267 115.078 72.4107 115.078 72.848C115.078 73.2747 114.976 73.656 114.774 73.992C114.571 74.3227 114.291 74.584 113.934 74.776C113.576 74.968 113.171 75.064 112.718 75.064ZM112.718 74.04C112.926 74.04 113.112 73.992 113.278 73.896C113.443 73.8 113.574 73.664 113.67 73.488C113.766 73.3067 113.814 73.0933 113.814 72.848C113.814 72.5973 113.766 72.384 113.67 72.208C113.574 72.032 113.443 71.896 113.278 71.8C113.112 71.704 112.926 71.656 112.718 71.656C112.51 71.656 112.323 71.704 112.158 71.8C111.992 71.896 111.859 72.032 111.758 72.208C111.662 72.384 111.614 72.5973 111.614 72.848C111.614 73.0933 111.662 73.3067 111.758 73.488C111.859 73.664 111.992 73.8 112.158 73.896C112.323 73.992 112.51 74.04 112.718 74.04ZM120.818 75V74.16L120.738 73.976V72.472C120.738 72.2053 120.655 71.9973 120.49 71.848C120.33 71.6987 120.082 71.624 119.746 71.624C119.516 71.624 119.29 71.6613 119.066 71.736C118.847 71.8053 118.66 71.9013 118.506 72.024L118.058 71.152C118.292 70.9867 118.575 70.8587 118.906 70.768C119.236 70.6773 119.572 70.632 119.914 70.632C120.57 70.632 121.079 70.7867 121.442 71.096C121.804 71.4053 121.986 71.888 121.986 72.544V75H120.818ZM119.506 75.064C119.17 75.064 118.882 75.008 118.642 74.896C118.402 74.7787 118.218 74.6213 118.09 74.424C117.962 74.2267 117.898 74.0053 117.898 73.76C117.898 73.504 117.959 73.28 118.082 73.088C118.21 72.896 118.41 72.7467 118.682 72.64C118.954 72.528 119.308 72.472 119.746 72.472H120.89V73.2H119.882C119.588 73.2 119.386 73.248 119.274 73.344C119.167 73.44 119.114 73.56 119.114 73.704C119.114 73.864 119.175 73.992 119.298 74.088C119.426 74.1787 119.599 74.224 119.818 74.224C120.026 74.224 120.212 74.176 120.378 74.08C120.543 73.9787 120.663 73.832 120.738 73.64L120.93 74.216C120.839 74.4933 120.674 74.704 120.434 74.848C120.194 74.992 119.884 75.064 119.506 75.064ZM124.829 75L127.237 71.68V72.624L124.933 69.4H126.405L127.997 71.648L127.381 71.656L128.949 69.4H130.357L128.069 72.568V71.64L130.493 75H128.997L127.349 72.624H127.941L126.317 75H124.829Z" fill="#333333"/>
<path fill-rule="evenodd" clip-rule="evenodd" d="M170.357 95.1333C170.357 88.0714 164.571 82.281 157.5 82.281C117.753 82.281 101.571 82.2857 101.571 82.2857L96.4285 87.4286H72.6428L66.8571 82.2856H44.4515C37.3801 82.2856 31.5944 88.0714 31.5944 95.1379C31.5944 95.1426 31.5944 95.1475 31.5944 95.1524C31.5944 102.214 37.3801 108 44.4515 108C55.0992 108 66.8572 108 66.8572 108L72.6429 113.143H96.4286L101.571 108H157.594C164.571 108 170.357 102.214 170.357 95.1477C170.357 95.1428 170.357 95.4643 170.357 95.1333Z" fill="#30DCFF"/>
<path fill-rule="evenodd" clip-rule="evenodd" d="M170.357 95.1356C170.357 88.0714 164.571 82.2857 157.406 82.2857C117.659 82.2857 101.571 82.2858 101.571 82.2858L96.4286 87.4286H72.6429L66.8571 82.2857H44.3571C37.2857 82.2857 31.5 88.0715 31.5 95.1357C31.5 95.1404 31.5 95.1429 31.5 95.1429H34.7143C34.7143 88.7143 39.2143 85.5 44.3571 85.5C53.784 85.5 65.5714 85.5 65.5714 85.5L71.3571 90.6429H97.7143L102.857 85.5H157.5C163.286 85.5 167.143 89.3571 167.143 95.1427L170.357 95.1429V95.1356Z" fill="white" fill-opacity="0.5"/>
<path fill-rule="evenodd" clip-rule="evenodd" d="M170.357 95.1428L167.143 95.1428C167.143 100.91 163.412 104.786 157.5 104.786C120.854 104.786 100.286 104.786 100.286 104.786L95.1429 109.929H73.9286L68.1429 104.786H44.3571C37.6047 104.786 34.7143 100.929 34.7143 95.1438L31.5 95.1428V95.15C31.5 102.214 37.2857 108 44.3571 108C55.0048 108 66.8571 108 66.8571 108L72.6429 113.143H96.4286L101.571 108H157.5C164.571 108 170.357 102.214 170.357 95.1428Z" fill="black" fill-opacity="0.25"/>
<path d="M37.928 100L40.424 94.4H41.704L44.208 100H42.848L40.8 95.056H41.312L39.256 100H37.928ZM39.176 98.8L39.52 97.816H42.4L42.752 98.8H39.176ZM46.1099 100.064C45.7419 100.064 45.3873 100.021 45.0459 99.936C44.7099 99.8453 44.4433 99.7333 44.2459 99.6L44.6619 98.704C44.8593 98.8267 45.0913 98.928 45.3579 99.008C45.6299 99.0827 45.8966 99.12 46.1579 99.12C46.4459 99.12 46.6486 99.0853 46.7659 99.016C46.8886 98.9467 46.9499 98.8507 46.9499 98.728C46.9499 98.6267 46.9019 98.552 46.8059 98.504C46.7153 98.4507 46.5926 98.4107 46.4379 98.384C46.2833 98.3573 46.1126 98.3307 45.9259 98.304C45.7446 98.2773 45.5606 98.2427 45.3739 98.2C45.1873 98.152 45.0166 98.0827 44.8619 97.992C44.7073 97.9013 44.5819 97.7787 44.4859 97.624C44.3953 97.4693 44.3499 97.2693 44.3499 97.024C44.3499 96.752 44.4273 96.512 44.5819 96.304C44.7419 96.096 44.9713 95.9333 45.2699 95.816C45.5686 95.6933 45.9259 95.632 46.3419 95.632C46.6353 95.632 46.9339 95.664 47.2379 95.728C47.5419 95.792 47.7953 95.8853 47.9979 96.008L47.5819 96.896C47.3739 96.7733 47.1633 96.6907 46.9499 96.648C46.7419 96.6 46.5393 96.576 46.3419 96.576C46.0646 96.576 45.8619 96.6133 45.7339 96.688C45.6059 96.7627 45.5419 96.8587 45.5419 96.976C45.5419 97.0827 45.5873 97.1627 45.6779 97.216C45.7739 97.2693 45.8993 97.312 46.0539 97.344C46.2086 97.376 46.3766 97.4053 46.5579 97.432C46.7446 97.4533 46.9313 97.488 47.1179 97.536C47.3046 97.584 47.4726 97.6533 47.6219 97.744C47.7766 97.8293 47.9019 97.9493 47.9979 98.104C48.0939 98.2533 48.1419 98.4507 48.1419 98.696C48.1419 98.9627 48.0619 99.2 47.9019 99.408C47.7419 99.6107 47.5099 99.7707 47.2059 99.888C46.9073 100.005 46.5419 100.064 46.1099 100.064ZM48.9119 100V95.696H50.1599V100H48.9119ZM49.5359 95.096C49.3066 95.096 49.1199 95.0293 48.9759 94.896C48.8319 94.7627 48.7599 94.5973 48.7599 94.4C48.7599 94.2027 48.8319 94.0373 48.9759 93.904C49.1199 93.7707 49.3066 93.704 49.5359 93.704C49.7653 93.704 49.9519 93.768 50.0959 93.896C50.2399 94.0187 50.3119 94.1787 50.3119 94.376C50.3119 94.584 50.2399 94.7573 50.0959 94.896C49.9573 95.0293 49.7706 95.096 49.5359 95.096ZM53.3422 101.616C52.9369 101.616 52.5449 101.565 52.1662 101.464C51.7929 101.368 51.4809 101.221 51.2302 101.024L51.7262 100.128C51.9075 100.277 52.1369 100.395 52.4142 100.48C52.6969 100.571 52.9742 100.616 53.2462 100.616C53.6889 100.616 54.0089 100.517 54.2062 100.32C54.4089 100.123 54.5102 99.8293 54.5102 99.44V98.792L54.5902 97.712L54.5742 96.624V95.696H55.7582V99.28C55.7582 100.08 55.5502 100.669 55.1342 101.048C54.7182 101.427 54.1209 101.616 53.3422 101.616ZM53.1502 99.792C52.7502 99.792 52.3875 99.7067 52.0622 99.536C51.7422 99.36 51.4835 99.1173 51.2862 98.808C51.0942 98.4933 50.9982 98.128 50.9982 97.712C50.9982 97.2907 51.0942 96.9253 51.2862 96.616C51.4835 96.3013 51.7422 96.0587 52.0622 95.888C52.3875 95.7173 52.7502 95.632 53.1502 95.632C53.5129 95.632 53.8329 95.7067 54.1102 95.856C54.3875 96 54.6035 96.2267 54.7582 96.536C54.9129 96.84 54.9902 97.232 54.9902 97.712C54.9902 98.1867 54.9129 98.5787 54.7582 98.888C54.6035 99.192 54.3875 99.4187 54.1102 99.568C53.8329 99.7173 53.5129 99.792 53.1502 99.792ZM53.3982 98.768C53.6169 98.768 53.8115 98.7253 53.9822 98.64C54.1529 98.5493 54.2862 98.424 54.3822 98.264C54.4782 98.104 54.5262 97.92 54.5262 97.712C54.5262 97.4987 54.4782 97.3147 54.3822 97.16C54.2862 97 54.1529 96.8773 53.9822 96.792C53.8115 96.7013 53.6169 96.656 53.3982 96.656C53.1795 96.656 52.9849 96.7013 52.8142 96.792C52.6435 96.8773 52.5075 97 52.4062 97.16C52.3102 97.3147 52.2622 97.4987 52.2622 97.712C52.2622 97.92 52.3102 98.104 52.4062 98.264C52.5075 98.424 52.6435 98.5493 52.8142 98.64C52.9849 98.7253 53.1795 98.768 53.3982 98.768ZM59.5358 95.632C59.8771 95.632 60.1811 95.7013 60.4478 95.84C60.7198 95.9733 60.9331 96.1813 61.0878 96.464C61.2424 96.7413 61.3198 97.0987 61.3198 97.536V100H60.0718V97.728C60.0718 97.3813 59.9944 97.1253 59.8398 96.96C59.6904 96.7947 59.4771 96.712 59.1998 96.712C59.0024 96.712 58.8238 96.7547 58.6638 96.84C58.5091 96.92 58.3864 97.0453 58.2958 97.216C58.2104 97.3867 58.1678 97.6053 58.1678 97.872V100H56.9198V95.696H58.1118V96.888L57.8878 96.528C58.0424 96.24 58.2638 96.0187 58.5518 95.864C58.8398 95.7093 59.1678 95.632 59.5358 95.632ZM65.091 100V99.16L65.011 98.976V97.472C65.011 97.2053 64.9283 96.9973 64.763 96.848C64.603 96.6987 64.355 96.624 64.019 96.624C63.7897 96.624 63.563 96.6613 63.339 96.736C63.1203 96.8053 62.9337 96.9013 62.779 97.024L62.331 96.152C62.5657 95.9867 62.8483 95.8587 63.179 95.768C63.5097 95.6773 63.8457 95.632 64.187 95.632C64.843 95.632 65.3523 95.7867 65.715 96.096C66.0777 96.4053 66.259 96.888 66.259 97.544V100H65.091ZM63.779 100.064C63.443 100.064 63.155 100.008 62.915 99.896C62.675 99.7787 62.491 99.6213 62.363 99.424C62.235 99.2267 62.171 99.0053 62.171 98.76C62.171 98.504 62.2323 98.28 62.355 98.088C62.483 97.896 62.683 97.7467 62.955 97.64C63.227 97.528 63.5817 97.472 64.019 97.472H65.163V98.2H64.155C63.8617 98.2 63.659 98.248 63.547 98.344C63.4403 98.44 63.387 98.56 63.387 98.704C63.387 98.864 63.4483 98.992 63.571 99.088C63.699 99.1787 63.8723 99.224 64.091 99.224C64.299 99.224 64.4857 99.176 64.651 99.08C64.8163 98.9787 64.9363 98.832 65.011 98.64L65.203 99.216C65.1123 99.4933 64.947 99.704 64.707 99.848C64.467 99.992 64.1577 100.064 63.779 100.064ZM67.3885 100V95.696H68.5805V96.912L68.4125 96.56C68.5405 96.256 68.7458 96.0267 69.0285 95.872C69.3112 95.712 69.6552 95.632 70.0605 95.632V96.784C70.0072 96.7787 69.9592 96.776 69.9165 96.776C69.8738 96.7707 69.8285 96.768 69.7805 96.768C69.4392 96.768 69.1618 96.8667 68.9485 97.064C68.7405 97.256 68.6365 97.5573 68.6365 97.968V100H67.3885ZM74.8034 94.304C75.3208 94.304 75.7661 94.4107 76.1394 94.624C76.5128 94.8373 76.8008 95.1493 77.0034 95.56C77.2061 95.9653 77.3074 96.472 77.3074 97.08C77.3074 97.7253 77.1848 98.272 76.9394 98.72C76.6994 99.168 76.3661 99.5093 75.9394 99.744C75.5128 99.9787 75.0168 100.096 74.4514 100.096C74.1581 100.096 73.8754 100.064 73.6034 100C73.3314 99.936 73.0968 99.84 72.8994 99.712L73.3794 98.76C73.5341 98.8667 73.6994 98.9413 73.8754 98.984C74.0514 99.0213 74.2354 99.04 74.4274 99.04C74.9074 99.04 75.2888 98.8933 75.5714 98.6C75.8594 98.3067 76.0034 97.872 76.0034 97.296C76.0034 97.2 76.0008 97.0933 75.9954 96.976C75.9901 96.8587 75.9768 96.7413 75.9554 96.624L76.3074 96.96C76.2168 97.168 76.0888 97.344 75.9234 97.488C75.7581 97.6267 75.5661 97.7333 75.3474 97.808C75.1288 97.8773 74.8834 97.912 74.6114 97.912C74.2541 97.912 73.9288 97.84 73.6354 97.696C73.3474 97.552 73.1154 97.3493 72.9394 97.088C72.7688 96.8267 72.6834 96.52 72.6834 96.168C72.6834 95.784 72.7768 95.4533 72.9634 95.176C73.1554 94.8987 73.4114 94.6853 73.7314 94.536C74.0568 94.3813 74.4141 94.304 74.8034 94.304ZM74.8834 95.272C74.6968 95.272 74.5341 95.3067 74.3954 95.376C74.2568 95.44 74.1474 95.536 74.0674 95.664C73.9874 95.7867 73.9474 95.9333 73.9474 96.104C73.9474 96.36 74.0328 96.5653 74.2034 96.72C74.3794 96.8693 74.6114 96.944 74.8994 96.944C75.0861 96.944 75.2514 96.9093 75.3954 96.84C75.5448 96.7653 75.6594 96.664 75.7394 96.536C75.8194 96.408 75.8594 96.264 75.8594 96.104C75.8594 95.944 75.8194 95.8027 75.7394 95.68C75.6648 95.552 75.5554 95.4533 75.4114 95.384C75.2674 95.3093 75.0914 95.272 74.8834 95.272ZM80.3292 100.096C79.8705 100.096 79.4599 99.984 79.0972 99.76C78.7345 99.5307 78.4492 99.2 78.2412 98.768C78.0332 98.336 77.9292 97.8133 77.9292 97.2C77.9292 96.5867 78.0332 96.064 78.2412 95.632C78.4492 95.2 78.7345 94.872 79.0972 94.648C79.4599 94.4187 79.8705 94.304 80.3292 94.304C80.7932 94.304 81.2039 94.4187 81.5612 94.648C81.9239 94.872 82.2092 95.2 82.4172 95.632C82.6252 96.064 82.7292 96.5867 82.7292 97.2C82.7292 97.8133 82.6252 98.336 82.4172 98.768C82.2092 99.2 81.9239 99.5307 81.5612 99.76C81.2039 99.984 80.7932 100.096 80.3292 100.096ZM80.3292 99C80.5479 99 80.7372 98.9387 80.8972 98.816C81.0625 98.6933 81.1905 98.4987 81.2812 98.232C81.3772 97.9653 81.4252 97.6213 81.4252 97.2C81.4252 96.7787 81.3772 96.4347 81.2812 96.168C81.1905 95.9013 81.0625 95.7067 80.8972 95.584C80.7372 95.4613 80.5479 95.4 80.3292 95.4C80.1159 95.4 79.9265 95.4613 79.7612 95.584C79.6012 95.7067 79.4732 95.9013 79.3772 96.168C79.2865 96.4347 79.2412 96.7787 79.2412 97.2C79.2412 97.6213 79.2865 97.9653 79.3772 98.232C79.4732 98.4987 79.6012 98.6933 79.7612 98.816C79.9265 98.9387 80.1159 99 80.3292 99ZM88.5285 100V99.16L88.4485 98.976V97.472C88.4485 97.2053 88.3658 96.9973 88.2005 96.848C88.0405 96.6987 87.7925 96.624 87.4565 96.624C87.2272 96.624 87.0005 96.6613 86.7765 96.736C86.5578 96.8053 86.3712 96.9013 86.2165 97.024L85.7685 96.152C86.0032 95.9867 86.2858 95.8587 86.6165 95.768C86.9472 95.6773 87.2832 95.632 87.6245 95.632C88.2805 95.632 88.7898 95.7867 89.1525 96.096C89.5152 96.4053 89.6965 96.888 89.6965 97.544V100H88.5285ZM87.2165 100.064C86.8805 100.064 86.5925 100.008 86.3525 99.896C86.1125 99.7787 85.9285 99.6213 85.8005 99.424C85.6725 99.2267 85.6085 99.0053 85.6085 98.76C85.6085 98.504 85.6698 98.28 85.7925 98.088C85.9205 97.896 86.1205 97.7467 86.3925 97.64C86.6645 97.528 87.0192 97.472 87.4565 97.472H88.6005V98.2H87.5925C87.2992 98.2 87.0965 98.248 86.9845 98.344C86.8778 98.44 86.8245 98.56 86.8245 98.704C86.8245 98.864 86.8858 98.992 87.0085 99.088C87.1365 99.1787 87.3098 99.224 87.5285 99.224C87.7365 99.224 87.9232 99.176 88.0885 99.08C88.2538 98.9787 88.3738 98.832 88.4485 98.64L88.6405 99.216C88.5498 99.4933 88.3845 99.704 88.1445 99.848C87.9045 99.992 87.5952 100.064 87.2165 100.064ZM94.5716 100V97.712L94.8676 98.496L92.4036 94.4H93.7796L95.6676 97.544H94.8756L96.7716 94.4H98.0436L95.5796 98.496L95.8676 97.712V100H94.5716Z" fill="#333333"/>
<path fill-rule="evenodd" clip-rule="evenodd" d="M170.357 120.848C170.357 113.786 164.571 107.995 157.5 107.995C117.753 107.995 101.571 108 101.571 108L96.4285 113.143H72.6428L66.8571 108H44.4515C37.3801 108 31.5944 113.786 31.5944 120.852C31.5944 120.857 31.5944 120.862 31.5944 120.867C31.5944 127.929 37.3801 133.714 44.4515 133.714C55.0992 133.714 66.8572 133.714 66.8572 133.714L72.6429 138.857H96.4286L101.571 133.714H157.594C164.571 133.714 170.357 127.929 170.357 120.862C170.357 120.857 170.357 121.179 170.357 120.848Z" fill="#30DCFF"/>
<path fill-rule="evenodd" clip-rule="evenodd" d="M170.357 120.85C170.357 113.786 164.571 108 157.406 108C117.659 108 101.571 108 101.571 108L96.4286 113.143H72.6429L66.8571 108H44.3571C37.2857 108 31.5 113.786 31.5 120.85C31.5 120.855 31.5 120.857 31.5 120.857H34.7143C34.7143 114.429 39.2143 111.214 44.3571 111.214C53.784 111.214 65.5714 111.214 65.5714 111.214L71.3571 116.357H97.7143L102.857 111.214H157.5C163.286 111.214 167.143 115.071 167.143 120.857L170.357 120.857V120.85Z" fill="white" fill-opacity="0.5"/>
<path fill-rule="evenodd" clip-rule="evenodd" d="M170.357 120.857L167.143 120.857C167.143 126.624 163.412 130.5 157.5 130.5C120.854 130.5 100.286 130.5 100.286 130.5L95.1429 135.643H73.9286L68.1429 130.5H44.3571C37.6047 130.5 34.7143 126.643 34.7143 120.858L31.5 120.857V120.864C31.5 127.929 37.2857 133.714 44.3571 133.714C55.0048 133.714 66.8571 133.714 66.8571 133.714L72.6429 138.857H96.4286L101.571 133.714H157.5C164.571 133.714 170.357 127.929 170.357 120.857Z" fill="black" fill-opacity="0.25"/>
<path d="M40.504 126.096C40.056 126.096 39.6267 126.037 39.216 125.92C38.8053 125.797 38.4747 125.64 38.224 125.448L38.664 124.472C38.904 124.643 39.1867 124.784 39.512 124.896C39.8427 125.003 40.176 125.056 40.512 125.056C40.768 125.056 40.9733 125.032 41.128 124.984C41.288 124.931 41.4053 124.859 41.48 124.768C41.5547 124.677 41.592 124.573 41.592 124.456C41.592 124.307 41.5333 124.189 41.416 124.104C41.2987 124.013 41.144 123.941 40.952 123.888C40.76 123.829 40.5467 123.776 40.312 123.728C40.0827 123.675 39.8507 123.611 39.616 123.536C39.3867 123.461 39.176 123.365 38.984 123.248C38.792 123.131 38.6347 122.976 38.512 122.784C38.3947 122.592 38.336 122.347 38.336 122.048C38.336 121.728 38.4213 121.437 38.592 121.176C38.768 120.909 39.0293 120.699 39.376 120.544C39.728 120.384 40.168 120.304 40.696 120.304C41.048 120.304 41.3947 120.347 41.736 120.432C42.0773 120.512 42.3787 120.635 42.64 120.8L42.24 121.784C41.9787 121.635 41.7173 121.525 41.456 121.456C41.1947 121.381 40.9387 121.344 40.688 121.344C40.4373 121.344 40.232 121.373 40.072 121.432C39.912 121.491 39.7973 121.568 39.728 121.664C39.6587 121.755 39.624 121.861 39.624 121.984C39.624 122.128 39.6827 122.245 39.8 122.336C39.9173 122.421 40.072 122.491 40.264 122.544C40.456 122.597 40.6667 122.651 40.896 122.704C41.1307 122.757 41.3627 122.819 41.592 122.888C41.8267 122.957 42.04 123.051 42.232 123.168C42.424 123.285 42.5787 123.44 42.696 123.632C42.8187 123.824 42.88 124.067 42.88 124.36C42.88 124.675 42.792 124.963 42.616 125.224C42.44 125.485 42.176 125.696 41.824 125.856C41.4773 126.016 41.0373 126.096 40.504 126.096ZM45.4936 126.064C45.1362 126.064 44.8162 125.995 44.5336 125.856C44.2562 125.717 44.0402 125.507 43.8856 125.224C43.7309 124.936 43.6536 124.571 43.6536 124.128V121.696H44.9016V123.944C44.9016 124.301 44.9762 124.565 45.1256 124.736C45.2802 124.901 45.4962 124.984 45.7736 124.984C45.9656 124.984 46.1362 124.944 46.2856 124.864C46.4349 124.779 46.5522 124.651 46.6376 124.48C46.7229 124.304 46.7656 124.085 46.7656 123.824V121.696H48.0136V126H46.8296V124.816L47.0456 125.16C46.9016 125.459 46.6882 125.685 46.4056 125.84C46.1282 125.989 45.8242 126.064 45.4936 126.064ZM54.6818 121.632C55.0231 121.632 55.3244 121.701 55.5858 121.84C55.8524 121.973 56.0604 122.181 56.2098 122.464C56.3644 122.741 56.4418 123.099 56.4418 123.536V126H55.1938V123.728C55.1938 123.381 55.1218 123.125 54.9778 122.96C54.8338 122.795 54.6311 122.712 54.3698 122.712C54.1884 122.712 54.0258 122.755 53.8818 122.84C53.7378 122.92 53.6258 123.043 53.5458 123.208C53.4658 123.373 53.4258 123.584 53.4258 123.84V126H52.1778V123.728C52.1778 123.381 52.1058 123.125 51.9618 122.96C51.8231 122.795 51.6231 122.712 51.3618 122.712C51.1804 122.712 51.0178 122.755 50.8738 122.84C50.7298 122.92 50.6178 123.043 50.5378 123.208C50.4578 123.373 50.4178 123.584 50.4178 123.84V126H49.1698V121.696H50.3618V122.872L50.1378 122.528C50.2871 122.235 50.4978 122.013 50.7698 121.864C51.0471 121.709 51.3618 121.632 51.7138 121.632C52.1084 121.632 52.4524 121.733 52.7458 121.936C53.0444 122.133 53.2418 122.437 53.3378 122.848L52.8978 122.728C53.0418 122.392 53.2711 122.125 53.5858 121.928C53.9058 121.731 54.2711 121.632 54.6818 121.632ZM60.2004 126V125.16L60.1204 124.976V123.472C60.1204 123.205 60.0377 122.997 59.8724 122.848C59.7124 122.699 59.4644 122.624 59.1284 122.624C58.899 122.624 58.6724 122.661 58.4484 122.736C58.2297 122.805 58.043 122.901 57.8884 123.024L57.4404 122.152C57.675 121.987 57.9577 121.859 58.2884 121.768C58.619 121.677 58.955 121.632 59.2964 121.632C59.9524 121.632 60.4617 121.787 60.8244 122.096C61.187 122.405 61.3684 122.888 61.3684 123.544V126H60.2004ZM58.8884 126.064C58.5524 126.064 58.2644 126.008 58.0244 125.896C57.7844 125.779 57.6004 125.621 57.4724 125.424C57.3444 125.227 57.2804 125.005 57.2804 124.76C57.2804 124.504 57.3417 124.28 57.4644 124.088C57.5924 123.896 57.7924 123.747 58.0644 123.64C58.3364 123.528 58.691 123.472 59.1284 123.472H60.2724V124.2H59.2644C58.971 124.2 58.7684 124.248 58.6564 124.344C58.5497 124.44 58.4964 124.56 58.4964 124.704C58.4964 124.864 58.5577 124.992 58.6804 125.088C58.8084 125.179 58.9817 125.224 59.2004 125.224C59.4084 125.224 59.595 125.176 59.7604 125.08C59.9257 124.979 60.0457 124.832 60.1204 124.64L60.3124 125.216C60.2217 125.493 60.0564 125.704 59.8164 125.848C59.5764 125.992 59.267 126.064 58.8884 126.064ZM62.4979 126V121.696H63.6899V122.912L63.5219 122.56C63.6499 122.256 63.8552 122.027 64.1379 121.872C64.4205 121.712 64.7645 121.632 65.1699 121.632V122.784C65.1165 122.779 65.0685 122.776 65.0259 122.776C64.9832 122.771 64.9379 122.768 64.8899 122.768C64.5485 122.768 64.2712 122.867 64.0579 123.064C63.8499 123.256 63.7459 123.557 63.7459 123.968V126H62.4979ZM67.8968 126V125.16L70.0568 123.12C70.2275 122.965 70.3528 122.827 70.4328 122.704C70.5128 122.581 70.5661 122.469 70.5928 122.368C70.6248 122.267 70.6408 122.173 70.6408 122.088C70.6408 121.864 70.5635 121.693 70.4088 121.576C70.2595 121.453 70.0381 121.392 69.7448 121.392C69.5101 121.392 69.2915 121.437 69.0888 121.528C68.8915 121.619 68.7235 121.76 68.5848 121.952L67.6408 121.344C67.8541 121.024 68.1528 120.771 68.5368 120.584C68.9208 120.397 69.3635 120.304 69.8648 120.304C70.2808 120.304 70.6435 120.373 70.9528 120.512C71.2675 120.645 71.5101 120.835 71.6808 121.08C71.8568 121.325 71.9448 121.619 71.9448 121.96C71.9448 122.141 71.9208 122.323 71.8728 122.504C71.8301 122.68 71.7395 122.867 71.6008 123.064C71.4675 123.261 71.2701 123.483 71.0088 123.728L69.2168 125.416L68.9688 124.944H72.1288V126H67.8968ZM77.8332 126V125.16L77.7532 124.976V123.472C77.7532 123.205 77.6705 122.997 77.5052 122.848C77.3452 122.699 77.0972 122.624 76.7612 122.624C76.5319 122.624 76.3052 122.661 76.0812 122.736C75.8625 122.805 75.6759 122.901 75.5212 123.024L75.0732 122.152C75.3079 121.987 75.5905 121.859 75.9212 121.768C76.2519 121.677 76.5879 121.632 76.9292 121.632C77.5852 121.632 78.0945 121.787 78.4572 122.096C78.8199 122.405 79.0012 122.888 79.0012 123.544V126H77.8332ZM76.5212 126.064C76.1852 126.064 75.8972 126.008 75.6572 125.896C75.4172 125.779 75.2332 125.621 75.1052 125.424C74.9772 125.227 74.9132 125.005 74.9132 124.76C74.9132 124.504 74.9745 124.28 75.0972 124.088C75.2252 123.896 75.4252 123.747 75.6972 123.64C75.9692 123.528 76.3239 123.472 76.7612 123.472H77.9052V124.2H76.8972C76.6039 124.2 76.4012 124.248 76.2892 124.344C76.1825 124.44 76.1292 124.56 76.1292 124.704C76.1292 124.864 76.1905 124.992 76.3132 125.088C76.4412 125.179 76.6145 125.224 76.8332 125.224C77.0412 125.224 77.2279 125.176 77.3932 125.08C77.5585 124.979 77.6785 124.832 77.7532 124.64L77.9452 125.216C77.8545 125.493 77.6892 125.704 77.4492 125.848C77.2092 125.992 76.8999 126.064 76.5212 126.064ZM83.8763 126V123.712L84.1723 124.496L81.7083 120.4H83.0843L84.9723 123.544H84.1803L86.0763 120.4H87.3483L84.8843 124.496L85.1723 123.712V126H83.8763Z" fill="#333333"/>
<path fill-rule="evenodd" clip-rule="evenodd" d="M170.357 146.562C170.357 139.5 164.571 133.71 157.5 133.71C117.753 133.71 101.571 133.714 101.571 133.714L96.4285 138.857H72.6428L66.8571 133.714H44.4515C37.3801 133.714 31.5944 139.5 31.5944 146.567C31.5944 146.571 31.5944 146.576 31.5944 146.581C31.5944 153.643 37.3801 159.429 44.4515 159.429C55.0992 159.429 66.8572 159.429 66.8572 159.429L72.6429 164.571H96.4286L101.571 159.429H157.594C164.571 159.429 170.357 153.643 170.357 146.576C170.357 146.571 170.357 146.893 170.357 146.562Z" fill="#30DCFF"/>
<path fill-rule="evenodd" clip-rule="evenodd" d="M170.357 146.564C170.357 139.5 164.571 133.714 157.406 133.714C117.659 133.714 101.571 133.714 101.571 133.714L96.4286 138.857H72.6429L66.8571 133.714H44.3571C37.2857 133.714 31.5 139.5 31.5 146.564C31.5 146.569 31.5 146.571 31.5 146.571H34.7143C34.7143 140.143 39.2143 136.929 44.3571 136.929C53.784 136.929 65.5714 136.929 65.5714 136.929L71.3571 142.071H97.7143L102.857 136.929H157.5C163.286 136.929 167.143 140.786 167.143 146.571L170.357 146.571V146.564Z" fill="white" fill-opacity="0.5"/>
<path fill-rule="evenodd" clip-rule="evenodd" d="M170.357 146.571L167.143 146.571C167.143 152.339 163.412 156.214 157.5 156.214C120.854 156.214 100.286 156.214 100.286 156.214L95.1429 161.357H73.9286L68.1429 156.214H44.3571C37.6047 156.214 34.7143 152.357 34.7143 146.572L31.5 146.571V146.579C31.5 153.643 37.2857 159.429 44.3571 159.429C55.0048 159.429 66.8571 159.429 66.8571 159.429L72.6429 164.571H96.4286L101.571 159.429H157.5C164.571 159.429 170.357 153.643 170.357 146.571Z" fill="black" fill-opacity="0.25"/>
<path d="M37.928 151L40.424 145.4H41.704L44.208 151H42.848L40.8 146.056H41.312L39.256 151H37.928ZM39.176 149.8L39.52 148.816H42.4L42.752 149.8H39.176ZM46.1099 151.064C45.7419 151.064 45.3873 151.021 45.0459 150.936C44.7099 150.845 44.4433 150.733 44.2459 150.6L44.6619 149.704C44.8593 149.827 45.0913 149.928 45.3579 150.008C45.6299 150.083 45.8966 150.12 46.1579 150.12C46.4459 150.12 46.6486 150.085 46.7659 150.016C46.8886 149.947 46.9499 149.851 46.9499 149.728C46.9499 149.627 46.9019 149.552 46.8059 149.504C46.7153 149.451 46.5926 149.411 46.4379 149.384C46.2833 149.357 46.1126 149.331 45.9259 149.304C45.7446 149.277 45.5606 149.243 45.3739 149.2C45.1873 149.152 45.0166 149.083 44.8619 148.992C44.7073 148.901 44.5819 148.779 44.4859 148.624C44.3953 148.469 44.3499 148.269 44.3499 148.024C44.3499 147.752 44.4273 147.512 44.5819 147.304C44.7419 147.096 44.9713 146.933 45.2699 146.816C45.5686 146.693 45.9259 146.632 46.3419 146.632C46.6353 146.632 46.9339 146.664 47.2379 146.728C47.5419 146.792 47.7953 146.885 47.9979 147.008L47.5819 147.896C47.3739 147.773 47.1633 147.691 46.9499 147.648C46.7419 147.6 46.5393 147.576 46.3419 147.576C46.0646 147.576 45.8619 147.613 45.7339 147.688C45.6059 147.763 45.5419 147.859 45.5419 147.976C45.5419 148.083 45.5873 148.163 45.6779 148.216C45.7739 148.269 45.8993 148.312 46.0539 148.344C46.2086 148.376 46.3766 148.405 46.5579 148.432C46.7446 148.453 46.9313 148.488 47.1179 148.536C47.3046 148.584 47.4726 148.653 47.6219 148.744C47.7766 148.829 47.9019 148.949 47.9979 149.104C48.0939 149.253 48.1419 149.451 48.1419 149.696C48.1419 149.963 48.0619 150.2 47.9019 150.408C47.7419 150.611 47.5099 150.771 47.2059 150.888C46.9073 151.005 46.5419 151.064 46.1099 151.064ZM48.9119 151V146.696H50.1599V151H48.9119ZM49.5359 146.096C49.3066 146.096 49.1199 146.029 48.9759 145.896C48.8319 145.763 48.7599 145.597 48.7599 145.4C48.7599 145.203 48.8319 145.037 48.9759 144.904C49.1199 144.771 49.3066 144.704 49.5359 144.704C49.7653 144.704 49.9519 144.768 50.0959 144.896C50.2399 145.019 50.3119 145.179 50.3119 145.376C50.3119 145.584 50.2399 145.757 50.0959 145.896C49.9573 146.029 49.7706 146.096 49.5359 146.096ZM53.3422 152.616C52.9369 152.616 52.5449 152.565 52.1662 152.464C51.7929 152.368 51.4809 152.221 51.2302 152.024L51.7262 151.128C51.9075 151.277 52.1369 151.395 52.4142 151.48C52.6969 151.571 52.9742 151.616 53.2462 151.616C53.6889 151.616 54.0089 151.517 54.2062 151.32C54.4089 151.123 54.5102 150.829 54.5102 150.44V149.792L54.5902 148.712L54.5742 147.624V146.696H55.7582V150.28C55.7582 151.08 55.5502 151.669 55.1342 152.048C54.7182 152.427 54.1209 152.616 53.3422 152.616ZM53.1502 150.792C52.7502 150.792 52.3875 150.707 52.0622 150.536C51.7422 150.36 51.4835 150.117 51.2862 149.808C51.0942 149.493 50.9982 149.128 50.9982 148.712C50.9982 148.291 51.0942 147.925 51.2862 147.616C51.4835 147.301 51.7422 147.059 52.0622 146.888C52.3875 146.717 52.7502 146.632 53.1502 146.632C53.5129 146.632 53.8329 146.707 54.1102 146.856C54.3875 147 54.6035 147.227 54.7582 147.536C54.9129 147.84 54.9902 148.232 54.9902 148.712C54.9902 149.187 54.9129 149.579 54.7582 149.888C54.6035 150.192 54.3875 150.419 54.1102 150.568C53.8329 150.717 53.5129 150.792 53.1502 150.792ZM53.3982 149.768C53.6169 149.768 53.8115 149.725 53.9822 149.64C54.1529 149.549 54.2862 149.424 54.3822 149.264C54.4782 149.104 54.5262 148.92 54.5262 148.712C54.5262 148.499 54.4782 148.315 54.3822 148.16C54.2862 148 54.1529 147.877 53.9822 147.792C53.8115 147.701 53.6169 147.656 53.3982 147.656C53.1795 147.656 52.9849 147.701 52.8142 147.792C52.6435 147.877 52.5075 148 52.4062 148.16C52.3102 148.315 52.2622 148.499 52.2622 148.712C52.2622 148.92 52.3102 149.104 52.4062 149.264C52.5075 149.424 52.6435 149.549 52.8142 149.64C52.9849 149.725 53.1795 149.768 53.3982 149.768ZM59.5358 146.632C59.8771 146.632 60.1811 146.701 60.4478 146.84C60.7198 146.973 60.9331 147.181 61.0878 147.464C61.2424 147.741 61.3198 148.099 61.3198 148.536V151H60.0718V148.728C60.0718 148.381 59.9944 148.125 59.8398 147.96C59.6904 147.795 59.4771 147.712 59.1998 147.712C59.0024 147.712 58.8238 147.755 58.6638 147.84C58.5091 147.92 58.3864 148.045 58.2958 148.216C58.2104 148.387 58.1678 148.605 58.1678 148.872V151H56.9198V146.696H58.1118V147.888L57.8878 147.528C58.0424 147.24 58.2638 147.019 58.5518 146.864C58.8398 146.709 59.1678 146.632 59.5358 146.632ZM65.091 151V150.16L65.011 149.976V148.472C65.011 148.205 64.9283 147.997 64.763 147.848C64.603 147.699 64.355 147.624 64.019 147.624C63.7897 147.624 63.563 147.661 63.339 147.736C63.1203 147.805 62.9337 147.901 62.779 148.024L62.331 147.152C62.5657 146.987 62.8483 146.859 63.179 146.768C63.5097 146.677 63.8457 146.632 64.187 146.632C64.843 146.632 65.3523 146.787 65.715 147.096C66.0777 147.405 66.259 147.888 66.259 148.544V151H65.091ZM63.779 151.064C63.443 151.064 63.155 151.008 62.915 150.896C62.675 150.779 62.491 150.621 62.363 150.424C62.235 150.227 62.171 150.005 62.171 149.76C62.171 149.504 62.2323 149.28 62.355 149.088C62.483 148.896 62.683 148.747 62.955 148.64C63.227 148.528 63.5817 148.472 64.019 148.472H65.163V149.2H64.155C63.8617 149.2 63.659 149.248 63.547 149.344C63.4403 149.44 63.387 149.56 63.387 149.704C63.387 149.864 63.4483 149.992 63.571 150.088C63.699 150.179 63.8723 150.224 64.091 150.224C64.299 150.224 64.4857 150.176 64.651 150.08C64.8163 149.979 64.9363 149.832 65.011 149.64L65.203 150.216C65.1123 150.493 64.947 150.704 64.707 150.848C64.467 150.992 64.1577 151.064 63.779 151.064ZM67.3885 151V146.696H68.5805V147.912L68.4125 147.56C68.5405 147.256 68.7458 147.027 69.0285 146.872C69.3112 146.712 69.6552 146.632 70.0605 146.632V147.784C70.0072 147.779 69.9592 147.776 69.9165 147.776C69.8738 147.771 69.8285 147.768 69.7805 147.768C69.4392 147.768 69.1618 147.867 68.9485 148.064C68.7405 148.256 68.6365 148.557 68.6365 148.968V151H67.3885ZM73.2514 151V146.6C73.2514 146.115 73.3954 145.728 73.6834 145.44C73.9714 145.147 74.3821 145 74.9154 145C75.0968 145 75.2701 145.019 75.4354 145.056C75.6061 145.093 75.7501 145.152 75.8674 145.232L75.5394 146.136C75.4701 146.088 75.3928 146.051 75.3074 146.024C75.2221 145.997 75.1314 145.984 75.0354 145.984C74.8541 145.984 74.7128 146.037 74.6114 146.144C74.5154 146.245 74.4674 146.4 74.4674 146.608V147.008L74.4994 147.544V151H73.2514ZM72.5874 147.752V146.792H75.5714V147.752H72.5874ZM78.7551 151V150.16L78.6751 149.976V148.472C78.6751 148.205 78.5924 147.997 78.4271 147.848C78.2671 147.699 78.0191 147.624 77.6831 147.624C77.4537 147.624 77.2271 147.661 77.0031 147.736C76.7844 147.805 76.5977 147.901 76.4431 148.024L75.9951 147.152C76.2297 146.987 76.5124 146.859 76.8431 146.768C77.1737 146.677 77.5097 146.632 77.8511 146.632C78.5071 146.632 79.0164 146.787 79.3791 147.096C79.7417 147.405 79.9231 147.888 79.9231 148.544V151H78.7551ZM77.4431 151.064C77.1071 151.064 76.8191 151.008 76.5791 150.896C76.3391 150.779 76.1551 150.621 76.0271 150.424C75.8991 150.227 75.8351 150.005 75.8351 149.76C75.8351 149.504 75.8964 149.28 76.0191 149.088C76.1471 148.896 76.3471 148.747 76.6191 148.64C76.8911 148.528 77.2457 148.472 77.6831 148.472H78.8271V149.2H77.8191C77.5257 149.2 77.3231 149.248 77.2111 149.344C77.1044 149.44 77.0511 149.56 77.0511 149.704C77.0511 149.864 77.1124 149.992 77.2351 150.088C77.3631 150.179 77.5364 150.224 77.7551 150.224C77.9631 150.224 78.1497 150.176 78.3151 150.08C78.4804 149.979 78.6004 149.832 78.6751 149.64L78.8671 150.216C78.7764 150.493 78.6111 150.704 78.3711 150.848C78.1311 150.992 77.8217 151.064 77.4431 151.064ZM81.0526 151V145.064H82.3006V151H81.0526ZM84.9068 151.064C84.5388 151.064 84.1841 151.021 83.8428 150.936C83.5068 150.845 83.2401 150.733 83.0428 150.6L83.4588 149.704C83.6561 149.827 83.8881 149.928 84.1548 150.008C84.4268 150.083 84.6935 150.12 84.9548 150.12C85.2428 150.12 85.4455 150.085 85.5628 150.016C85.6855 149.947 85.7468 149.851 85.7468 149.728C85.7468 149.627 85.6988 149.552 85.6028 149.504C85.5121 149.451 85.3895 149.411 85.2348 149.384C85.0801 149.357 84.9095 149.331 84.7228 149.304C84.5415 149.277 84.3575 149.243 84.1708 149.2C83.9841 149.152 83.8135 149.083 83.6588 148.992C83.5041 148.901 83.3788 148.779 83.2828 148.624C83.1921 148.469 83.1468 148.269 83.1468 148.024C83.1468 147.752 83.2241 147.512 83.3788 147.304C83.5388 147.096 83.7681 146.933 84.0668 146.816C84.3655 146.693 84.7228 146.632 85.1388 146.632C85.4321 146.632 85.7308 146.664 86.0348 146.728C86.3388 146.792 86.5921 146.885 86.7948 147.008L86.3788 147.896C86.1708 147.773 85.9601 147.691 85.7468 147.648C85.5388 147.6 85.3361 147.576 85.1388 147.576C84.8615 147.576 84.6588 147.613 84.5308 147.688C84.4028 147.763 84.3388 147.859 84.3388 147.976C84.3388 148.083 84.3841 148.163 84.4748 148.216C84.5708 148.269 84.6961 148.312 84.8508 148.344C85.0055 148.376 85.1735 148.405 85.3548 148.432C85.5415 148.453 85.7281 148.488 85.9148 148.536C86.1015 148.584 86.2695 148.653 86.4188 148.744C86.5735 148.829 86.6988 148.949 86.7948 149.104C86.8908 149.253 86.9388 149.451 86.9388 149.696C86.9388 149.963 86.8588 150.2 86.6988 150.408C86.5388 150.611 86.3068 150.771 86.0028 150.888C85.7041 151.005 85.3388 151.064 84.9068 151.064ZM89.7568 151.064C89.2981 151.064 88.8901 150.968 88.5328 150.776C88.1808 150.584 87.9008 150.323 87.6928 149.992C87.4901 149.656 87.3888 149.275 87.3888 148.848C87.3888 148.416 87.4901 148.035 87.6928 147.704C87.9008 147.368 88.1808 147.107 88.5328 146.92C88.8901 146.728 89.2981 146.632 89.7568 146.632C90.2101 146.632 90.6155 146.728 90.9728 146.92C91.3301 147.107 91.6101 147.365 91.8128 147.696C92.0155 148.027 92.1168 148.411 92.1168 148.848C92.1168 149.275 92.0155 149.656 91.8128 149.992C91.6101 150.323 91.3301 150.584 90.9728 150.776C90.6155 150.968 90.2101 151.064 89.7568 151.064ZM89.7568 150.04C89.9648 150.04 90.1515 149.992 90.3168 149.896C90.4821 149.8 90.6128 149.664 90.7088 149.488C90.8048 149.307 90.8528 149.093 90.8528 148.848C90.8528 148.597 90.8048 148.384 90.7088 148.208C90.6128 148.032 90.4821 147.896 90.3168 147.8C90.1515 147.704 89.9648 147.656 89.7568 147.656C89.5488 147.656 89.3621 147.704 89.1968 147.8C89.0315 147.896 88.8981 148.032 88.7968 148.208C88.7008 148.384 88.6528 148.597 88.6528 148.848C88.6528 149.093 88.7008 149.307 88.7968 149.488C88.8981 149.664 89.0315 149.8 89.1968 149.896C89.3621 149.992 89.5488 150.04 89.7568 150.04ZM97.8566 151V150.16L97.7766 149.976V148.472C97.7766 148.205 97.694 147.997 97.5286 147.848C97.3686 147.699 97.1206 147.624 96.7846 147.624C96.5553 147.624 96.3286 147.661 96.1046 147.736C95.886 147.805 95.6993 147.901 95.5446 148.024L95.0966 147.152C95.3313 146.987 95.614 146.859 95.9446 146.768C96.2753 146.677 96.6113 146.632 96.9526 146.632C97.6086 146.632 98.118 146.787 98.4806 147.096C98.8433 147.405 99.0246 147.888 99.0246 148.544V151H97.8566ZM96.5446 151.064C96.2086 151.064 95.9206 151.008 95.6806 150.896C95.4406 150.779 95.2566 150.621 95.1286 150.424C95.0006 150.227 94.9366 150.005 94.9366 149.76C94.9366 149.504 94.998 149.28 95.1206 149.088C95.2486 148.896 95.4486 148.747 95.7206 148.64C95.9926 148.528 96.3473 148.472 96.7846 148.472H97.9286V149.2H96.9206C96.6273 149.2 96.4246 149.248 96.3126 149.344C96.206 149.44 96.1526 149.56 96.1526 149.704C96.1526 149.864 96.214 149.992 96.3366 150.088C96.4646 150.179 96.638 150.224 96.8566 150.224C97.0646 150.224 97.2513 150.176 97.4166 150.08C97.582 149.979 97.702 149.832 97.7766 149.64L97.9686 150.216C97.878 150.493 97.7126 150.704 97.4726 150.848C97.2326 150.992 96.9233 151.064 96.5446 151.064ZM101.868 151L104.276 147.68V148.624L101.972 145.4H103.444L105.036 147.648L104.42 147.656L105.988 145.4H107.396L105.108 148.568V147.64L107.532 151H106.036L104.388 148.624H104.98L103.356 151H101.868Z" fill="#333333"/>
</g>
<defs>
<filter id="filter0_d_1_12" x="0" y="0" width="180" height="182.571" filterUnits="userSpaceOnUse" color-interpolation-filters="sRGB">
<feFlood flood-opacity="0" result="BackgroundImageFix"/>
<feColorMatrix in="SourceAlpha" type="matrix" values="0 0 0 0 0 0 0 0 0 0 0 0 0 0 0 0 0 0 127 0" result="hardAlpha"/>
<feOffset dy="2.57143"/>
<feColorMatrix type="matrix" values="0 0 0 0 0 0 0 0 0 0 0 0 0 0 0 0 0 0 0.25 0"/>
<feBlend mode="normal" in2="BackgroundImageFix" result="effect1_dropShadow_1_12"/>
<feBlend mode="normal" in="SourceGraphic" in2="effect1_dropShadow_1_12" result="shape"/>
</filter>
</defs>
</svg>
