<svg width="80" height="84" viewBox="0 0 80 84" fill="none" xmlns="http://www.w3.org/2000/svg">
<style>

</style>
<g  filter="url(#filter0_d)">
<rect id="BG" width="80" height="80" rx="10" fill="#F2F2F2"/>
<path id="And_2" d="M10 10L10 7.5C9.33696 7.5 8.70107 7.76339 8.23223 8.23223C7.76339 8.70107 7.5 9.33696 7.5 10H10ZM10 70H7.5C7.5 71.3807 8.61929 72.5 10 72.5V70ZM7.5 10V70H12.5V10H7.5ZM10 72.5C10.0122 72.5 10.0243 72.5 10.0365 72.5C10.0487 72.5 10.061 72.5 10.0732 72.5C10.0855 72.5 10.0977 72.5 10.11 72.5C10.1223 72.5 10.1346 72.5 10.1469 72.5C10.1592 72.5 10.1716 72.5 10.1839 72.5C10.1963 72.5 10.2087 72.5 10.2211 72.5C10.2335 72.5 10.2459 72.5 10.2584 72.5C10.2708 72.5 10.2833 72.5 10.2957 72.5C10.3082 72.5 10.3207 72.5 10.3333 72.5C10.3458 72.5 10.3583 72.5 10.3709 72.5C10.3834 72.5 10.396 72.5 10.4086 72.5C10.4212 72.5 10.4339 72.5 10.4465 72.5C10.4591 72.5 10.4718 72.5 10.4845 72.5C10.4972 72.5 10.5099 72.5 10.5226 72.5C10.5353 72.5 10.5481 72.5 10.5608 72.5C10.5736 72.5 10.5864 72.5 10.5992 72.5C10.612 72.5 10.6248 72.5 10.6376 72.5C10.6505 72.5 10.6633 72.5 10.6762 72.5C10.6891 72.5 10.702 72.5 10.7149 72.5C10.7278 72.5 10.7408 72.5 10.7537 72.5C10.7667 72.5 10.7797 72.5 10.7927 72.5C10.8057 72.5 10.8187 72.5 10.8317 72.5C10.8448 72.5 10.8578 72.5 10.8709 72.5C10.884 72.5 10.8971 72.5 10.9102 72.5C10.9233 72.5 10.9364 72.5 10.9496 72.5C10.9627 72.5 10.9759 72.5 10.9891 72.5C11.0023 72.5 11.0155 72.5 11.0287 72.5C11.042 72.5 11.0552 72.5 11.0685 72.5C11.0818 72.5 11.0951 72.5 11.1084 72.5C11.1217 72.5 11.135 72.5 11.1484 72.5C11.1617 72.5 11.1751 72.5 11.1885 72.5C11.2018 72.5 11.2152 72.5 11.2287 72.5C11.2421 72.5 11.2555 72.5 11.269 72.5C11.2825 72.5 11.2959 72.5 11.3094 72.5C11.323 72.5 11.3365 72.5 11.35 72.5C11.3635 72.5 11.3771 72.5 11.3907 72.5C11.4043 72.5 11.4179 72.5 11.4315 72.5C11.4451 72.5 11.4587 72.5 11.4724 72.5C11.486 72.5 11.4997 72.5 11.5134 72.5C11.5271 72.5 11.5408 72.5 11.5545 72.5C11.5683 72.5 11.582 72.5 11.5958 72.5C11.6095 72.5 11.6233 72.5 11.6371 72.5C11.6509 72.5 11.6648 72.5 11.6786 72.5C11.6924 72.5 11.7063 72.5 11.7202 72.5C11.7341 72.5 11.748 72.5 11.7619 72.5C11.7758 72.5 11.7897 72.5 11.8037 72.5C11.8176 72.5 11.8316 72.5 11.8456 72.5C11.8596 72.5 11.8736 72.5 11.8876 72.5C11.9017 72.5 11.9157 72.5 11.9298 72.5C11.9439 72.5 11.9579 72.5 11.9721 72.5C11.9862 72.5 12.0003 72.5 12.0144 72.5C12.0286 72.5 12.0427 72.5 12.0569 72.5C12.0711 72.5 12.0853 72.5 12.0995 72.5C12.1137 72.5 12.1279 72.5 12.1422 72.5C12.1564 72.5 12.1707 72.5 12.185 72.5C12.1993 72.5 12.2136 72.5 12.2279 72.5C12.2422 72.5 12.2566 72.5 12.271 72.5C12.2853 72.5 12.2997 72.5 12.3141 72.5C12.3285 72.5 12.3429 72.5 12.3574 72.5C12.3718 72.5 12.3862 72.5 12.4007 72.5C12.4152 72.5 12.4297 72.5 12.4442 72.5C12.4587 72.5 12.4732 72.5 12.4878 72.5C12.5023 72.5 12.5169 72.5 12.5315 72.5C12.546 72.5 12.5606 72.5 12.5753 72.5C12.5899 72.5 12.6045 72.5 12.6192 72.5C12.6338 72.5 12.6485 72.5 12.6632 72.5C12.6779 72.5 12.6926 72.5 12.7073 72.5C12.722 72.5 12.7368 72.5 12.7515 72.5C12.7663 72.5 12.7811 72.5 12.7959 72.5C12.8107 72.5 12.8255 72.5 12.8403 72.5C12.8551 72.5 12.87 72.5 12.8849 72.5C12.8997 72.5 12.9146 72.5 12.9295 72.5C12.9444 72.5 12.9593 72.5 12.9743 72.5C12.9892 72.5 13.0042 72.5 13.0192 72.5C13.0341 72.5 13.0491 72.5 13.0641 72.5C13.0792 72.5 13.0942 72.5 13.1092 72.5C13.1243 72.5 13.1393 72.5 13.1544 72.5C13.1695 72.5 13.1846 72.5 13.1997 72.5C13.2148 72.5 13.23 72.5 13.2451 72.5C13.2603 72.5 13.2754 72.5 13.2906 72.5C13.3058 72.5 13.321 72.5 13.3362 72.5C13.3515 72.5 13.3667 72.5 13.382 72.5C13.3972 72.5 13.4125 72.5 13.4278 72.5C13.4431 72.5 13.4584 72.5 13.4737 72.5C13.489 72.5 13.5044 72.5 13.5197 72.5C13.5351 72.5 13.5505 72.5 13.5659 72.5C13.5813 72.5 13.5967 72.5 13.6121 72.5C13.6276 72.5 13.643 72.5 13.6585 72.5C13.6739 72.5 13.6894 72.5 13.7049 72.5C13.7204 72.5 13.7359 72.5 13.7515 72.5C13.767 72.5 13.7826 72.5 13.7981 72.5C13.8137 72.5 13.8293 72.5 13.8449 72.5C13.8605 72.5 13.8761 72.5 13.8917 72.5C13.9074 72.5 13.923 72.5 13.9387 72.5C13.9544 72.5 13.9701 72.5 13.9858 72.5C14.0015 72.5 14.0172 72.5 14.0329 72.5C14.0487 72.5 14.0644 72.5 14.0802 72.5C14.096 72.5 14.1118 72.5 14.1276 72.5C14.1434 72.5 14.1592 72.5 14.175 72.5C14.1909 72.5 14.2067 72.5 14.2226 72.5C14.2385 72.5 14.2544 72.5 14.2703 72.5C14.2862 72.5 14.3021 72.5 14.3181 72.5C14.334 72.5 14.35 72.5 14.3659 72.5C14.3819 72.5 14.3979 72.5 14.4139 72.5C14.4299 72.5 14.446 72.5 14.462 72.5C14.478 72.5 14.4941 72.5 14.5102 72.5C14.5262 72.5 14.5423 72.5 14.5584 72.5C14.5746 72.5 14.5907 72.5 14.6068 72.5C14.623 72.5 14.6391 72.5 14.6553 72.5C14.6715 72.5 14.6877 72.5 14.7039 72.5C14.7201 72.5 14.7363 72.5 14.7525 72.5C14.7688 72.5 14.785 72.5 14.8013 72.5C14.8176 72.5 14.8339 72.5 14.8502 72.5C14.8665 72.5 14.8828 72.5 14.8992 72.5C14.9155 72.5 14.9319 72.5 14.9482 72.5C14.9646 72.5 14.981 72.5 14.9974 72.5C15.0138 72.5 15.0302 72.5 15.0467 72.5C15.0631 72.5 15.0795 72.5 15.096 72.5C15.1125 72.5 15.129 72.5 15.1455 72.5C15.162 72.5 15.1785 72.5 15.195 72.5C15.2116 72.5 15.2281 72.5 15.2447 72.5C15.2612 72.5 15.2778 72.5 15.2944 72.5C15.311 72.5 15.3276 72.5 15.3443 72.5C15.3609 72.5 15.3775 72.5 15.3942 72.5C15.4109 72.5 15.4275 72.5 15.4442 72.5C15.4609 72.5 15.4777 72.5 15.4944 72.5C15.5111 72.5 15.5278 72.5 15.5446 72.5C15.5614 72.5 15.5781 72.5 15.5949 72.5C15.6117 72.5 15.6285 72.5 15.6453 72.5C15.6622 72.5 15.679 72.5 15.6959 72.5C15.7127 72.5 15.7296 72.5 15.7465 72.5C15.7634 72.5 15.7803 72.5 15.7972 72.5C15.8141 72.5 15.831 72.5 15.848 72.5C15.8649 72.5 15.8819 72.5 15.8989 72.5C15.9158 72.5 15.9328 72.5 15.9498 72.5C15.9669 72.5 15.9839 72.5 16.0009 72.5C16.018 72.5 16.035 72.5 16.0521 72.5C16.0692 72.5 16.0863 72.5 16.1034 72.5C16.1205 72.5 16.1376 72.5 16.1547 72.5C16.1719 72.5 16.189 72.5 16.2062 72.5C16.2233 72.5 16.2405 72.5 16.2577 72.5C16.2749 72.5 16.2921 72.5 16.3094 72.5C16.3266 72.5 16.3438 72.5 16.3611 72.5C16.3784 72.5 16.3956 72.5 16.4129 72.5C16.4302 72.5 16.4475 72.5 16.4648 72.5C16.4822 72.5 16.4995 72.5 16.5168 72.5C16.5342 72.5 16.5516 72.5 16.5689 72.5C16.5863 72.5 16.6037 72.5 16.6211 72.5C16.6385 72.5 16.656 72.5 16.6734 72.5C16.6908 72.5 16.7083 72.5 16.7258 72.5C16.7432 72.5 16.7607 72.5 16.7782 72.5C16.7957 72.5 16.8133 72.5 16.8308 72.5C16.8483 72.5 16.8659 72.5 16.8834 72.5C16.901 72.5 16.9186 72.5 16.9362 72.5C16.9538 72.5 16.9714 72.5 16.989 72.5C17.0066 72.5 17.0242 72.5 17.0419 72.5C17.0595 72.5 17.0772 72.5 17.0949 72.5C17.1126 72.5 17.1303 72.5 17.148 72.5C17.1657 72.5 17.1834 72.5 17.2012 72.5C17.2189 72.5 17.2367 72.5 17.2544 72.5C17.2722 72.5 17.29 72.5 17.3078 72.5C17.3256 72.5 17.3434 72.5 17.3612 72.5C17.3791 72.5 17.3969 72.5 17.4148 72.5C17.4326 72.5 17.4505 72.5 17.4684 72.5C17.4863 72.5 17.5042 72.5 17.5221 72.5C17.54 72.5 17.5579 72.5 17.5759 72.5C17.5938 72.5 17.6118 72.5 17.6298 72.5C17.6478 72.5 17.6657 72.5 17.6837 72.5C17.7018 72.5 17.7198 72.5 17.7378 72.5C17.7558 72.5 17.7739 72.5 17.7919 72.5C17.81 72.5 17.8281 72.5 17.8462 72.5C17.8643 72.5 17.8824 72.5 17.9005 72.5C17.9186 72.5 17.9367 72.5 17.9549 72.5C17.973 72.5 17.9912 72.5 18.0094 72.5C18.0276 72.5 18.0458 72.5 18.064 72.5C18.0822 72.5 18.1004 72.5 18.1186 72.5C18.1369 72.5 18.1551 72.5 18.1734 72.5C18.1916 72.5 18.2099 72.5 18.2282 72.5C18.2465 72.5 18.2648 72.5 18.2831 72.5C18.3014 72.5 18.3198 72.5 18.3381 72.5C18.3565 72.5 18.3748 72.5 18.3932 72.5C18.4116 72.5 18.43 72.5 18.4484 72.5C18.4668 72.5 18.4852 72.5 18.5036 72.5C18.5221 72.5 18.5405 72.5 18.559 72.5C18.5774 72.5 18.5959 72.5 18.6144 72.5C18.6329 72.5 18.6514 72.5 18.6699 72.5C18.6884 72.5 18.7069 72.5 18.7255 72.5C18.744 72.5 18.7626 72.5 18.7811 72.5C18.7997 72.5 18.8183 72.5 18.8369 72.5C18.8555 72.5 18.8741 72.5 18.8927 72.5C18.9114 72.5 18.93 72.5 18.9486 72.5C18.9673 72.5 18.986 72.5 19.0046 72.5C19.0233 72.5 19.042 72.5 19.0607 72.5C19.0794 72.5 19.0982 72.5 19.1169 72.5C19.1356 72.5 19.1544 72.5 19.1731 72.5C19.1919 72.5 19.2107 72.5 19.2295 72.5C19.2482 72.5 19.267 72.5 19.2859 72.5C19.3047 72.5 19.3235 72.5 19.3424 72.5C19.3612 72.5 19.3801 72.5 19.3989 72.5C19.4178 72.5 19.4367 72.5 19.4556 72.5C19.4745 72.5 19.4934 72.5 19.5123 72.5C19.5312 72.5 19.5502 72.5 19.5691 72.5C19.5881 72.5 19.607 72.5 19.626 72.5C19.645 72.5 19.664 72.5 19.683 72.5C19.702 72.5 19.721 72.5 19.74 72.5C19.759 72.5 19.7781 72.5 19.7971 72.5C19.8162 72.5 19.8353 72.5 19.8544 72.5C19.8734 72.5 19.8925 72.5 19.9116 72.5C19.9307 72.5 19.9499 72.5 19.969 72.5C19.9881 72.5 20.0073 72.5 20.0264 72.5C20.0456 72.5 20.0648 72.5 20.084 72.5C20.1032 72.5 20.1224 72.5 20.1416 72.5C20.1608 72.5 20.18 72.5 20.1992 72.5C20.2185 72.5 20.2377 72.5 20.257 72.5C20.2763 72.5 20.2955 72.5 20.3148 72.5C20.3341 72.5 20.3534 72.5 20.3727 72.5C20.3921 72.5 20.4114 72.5 20.4307 72.5C20.4501 72.5 20.4694 72.5 20.4888 72.5C20.5082 72.5 20.5275 72.5 20.5469 72.5C20.5663 72.5 20.5857 72.5 20.6051 72.5C20.6246 72.5 20.644 72.5 20.6634 72.5C20.6829 72.5 20.7023 72.5 20.7218 72.5C20.7413 72.5 20.7608 72.5 20.7802 72.5C20.7997 72.5 20.8192 72.5 20.8388 72.5C20.8583 72.5 20.8778 72.5 20.8974 72.5C20.9169 72.5 20.9365 72.5 20.956 72.5C20.9756 72.5 20.9952 72.5 21.0148 72.5C21.0344 72.5 21.054 72.5 21.0736 72.5C21.0932 72.5 21.1128 72.5 21.1325 72.5C21.1521 72.5 21.1718 72.5 21.1915 72.5C21.2111 72.5 21.2308 72.5 21.2505 72.5C21.2702 72.5 21.2899 72.5 21.3096 72.5C21.3293 72.5 21.3491 72.5 21.3688 72.5C21.3885 72.5 21.4083 72.5 21.4281 72.5C21.4478 72.5 21.4676 72.5 21.4874 72.5C21.5072 72.5 21.527 72.5 21.5468 72.5C21.5666 72.5 21.5864 72.5 21.6063 72.5C21.6261 72.5 21.646 72.5 21.6658 72.5C21.6857 72.5 21.7056 72.5 21.7255 72.5C21.7454 72.5 21.7653 72.5 21.7852 72.5C21.8051 72.5 21.825 72.5 21.8449 72.5C21.8649 72.5 21.8848 72.5 21.9048 72.5C21.9247 72.5 21.9447 72.5 21.9647 72.5C21.9847 72.5 22.0047 72.5 22.0247 72.5C22.0447 72.5 22.0647 72.5 22.0847 72.5C22.1048 72.5 22.1248 72.5 22.1449 72.5C22.1649 72.5 22.185 72.5 22.2051 72.5C22.2251 72.5 22.2452 72.5 22.2653 72.5C22.2854 72.5 22.3055 72.5 22.3257 72.5C22.3458 72.5 22.3659 72.5 22.3861 72.5C22.4062 72.5 22.4264 72.5 22.4466 72.5C22.4667 72.5 22.4869 72.5 22.5071 72.5C22.5273 72.5 22.5475 72.5 22.5677 72.5C22.5879 72.5 22.6082 72.5 22.6284 72.5C22.6487 72.5 22.6689 72.5 22.6892 72.5C22.7094 72.5 22.7297 72.5 22.75 72.5C22.7703 72.5 22.7906 72.5 22.8109 72.5C22.8312 72.5 22.8515 72.5 22.8719 72.5C22.8922 72.5 22.9125 72.5 22.9329 72.5C22.9532 72.5 22.9736 72.5 22.994 72.5C23.0144 72.5 23.0348 72.5 23.0552 72.5C23.0756 72.5 23.096 72.5 23.1164 72.5C23.1368 72.5 23.1572 72.5 23.1777 72.5C23.1981 72.5 23.2186 72.5 23.2391 72.5C23.2595 72.5 23.28 72.5 23.3005 72.5C23.321 72.5 23.3415 72.5 23.362 72.5C23.3825 72.5 23.403 72.5 23.4236 72.5C23.4441 72.5 23.4646 72.5 23.4852 72.5C23.5058 72.5 23.5263 72.5 23.5469 72.5C23.5675 72.5 23.5881 72.5 23.6087 72.5C23.6293 72.5 23.6499 72.5 23.6705 72.5C23.6911 72.5 23.7118 72.5 23.7324 72.5C23.7531 72.5 23.7737 72.5 23.7944 72.5C23.815 72.5 23.8357 72.5 23.8564 72.5C23.8771 72.5 23.8978 72.5 23.9185 72.5C23.9392 72.5 23.9599 72.5 23.9807 72.5C24.0014 72.5 24.0221 72.5 24.0429 72.5C24.0636 72.5 24.0844 72.5 24.1052 72.5C24.1259 72.5 24.1467 72.5 24.1675 72.5C24.1883 72.5 24.2091 72.5 24.2299 72.5C24.2508 72.5 24.2716 72.5 24.2924 72.5C24.3133 72.5 24.3341 72.5 24.355 72.5C24.3758 72.5 24.3967 72.5 24.4176 72.5C24.4384 72.5 24.4593 72.5 24.4802 72.5C24.5011 72.5 24.5221 72.5 24.543 72.5C24.5639 72.5 24.5848 72.5 24.6058 72.5C24.6267 72.5 24.6477 72.5 24.6686 72.5C24.6896 72.5 24.7106 72.5 24.7315 72.5C24.7525 72.5 24.7735 72.5 24.7945 72.5C24.8155 72.5 24.8365 72.5 24.8576 72.5C24.8786 72.5 24.8996 72.5 24.9207 72.5C24.9417 72.5 24.9628 72.5 24.9838 72.5C25.0049 72.5 25.026 72.5 25.0471 72.5C25.0682 72.5 25.0893 72.5 25.1104 72.5C25.1315 72.5 25.1526 72.5 25.1737 72.5C25.1948 72.5 25.216 72.5 25.2371 72.5C25.2583 72.5 25.2794 72.5 25.3006 72.5C25.3218 72.5 25.3429 72.5 25.3641 72.5C25.3853 72.5 25.4065 72.5 25.4277 72.5C25.4489 72.5 25.4701 72.5 25.4914 72.5C25.5126 72.5 25.5338 72.5 25.5551 72.5C25.5763 72.5 25.5976 72.5 25.6188 72.5C25.6401 72.5 25.6614 72.5 25.6827 72.5C25.704 72.5 25.7253 72.5 25.7466 72.5C25.7679 72.5 25.7892 72.5 25.8105 72.5C25.8318 72.5 25.8532 72.5 25.8745 72.5C25.8959 72.5 25.9172 72.5 25.9386 72.5C25.9599 72.5 25.9813 72.5 26.0027 72.5C26.0241 72.5 26.0455 72.5 26.0669 72.5C26.0883 72.5 26.1097 72.5 26.1311 72.5C26.1525 72.5 26.174 72.5 26.1954 72.5C26.2168 72.5 26.2383 72.5 26.2598 72.5C26.2812 72.5 26.3027 72.5 26.3242 72.5C26.3456 72.5 26.3671 72.5 26.3886 72.5C26.4101 72.5 26.4316 72.5 26.4532 72.5C26.4747 72.5 26.4962 72.5 26.5177 72.5C26.5393 72.5 26.5608 72.5 26.5824 72.5C26.6039 72.5 26.6255 72.5 26.6471 72.5C26.6686 72.5 26.6902 72.5 26.7118 72.5C26.7334 72.5 26.755 72.5 26.7766 72.5C26.7982 72.5 26.8198 72.5 26.8415 72.5C26.8631 72.5 26.8847 72.5 26.9064 72.5C26.928 72.5 26.9497 72.5 26.9713 72.5C26.993 72.5 27.0147 72.5 27.0364 72.5C27.058 72.5 27.0797 72.5 27.1014 72.5C27.1231 72.5 27.1449 72.5 27.1666 72.5C27.1883 72.5 27.21 72.5 27.2318 72.5C27.2535 72.5 27.2752 72.5 27.297 72.5C27.3188 72.5 27.3405 72.5 27.3623 72.5C27.3841 72.5 27.4058 72.5 27.4276 72.5C27.4494 72.5 27.4712 72.5 27.493 72.5C27.5148 72.5 27.5367 72.5 27.5585 72.5C27.5803 72.5 27.6022 72.5 27.624 72.5C27.6458 72.5 27.6677 72.5 27.6896 72.5C27.7114 72.5 27.7333 72.5 27.7552 72.5C27.777 72.5 27.7989 72.5 27.8208 72.5C27.8427 72.5 27.8646 72.5 27.8865 72.5C27.9085 72.5 27.9304 72.5 27.9523 72.5C27.9742 72.5 27.9962 72.5 28.0181 72.5C28.0401 72.5 28.062 72.5 28.084 72.5C28.106 72.5 28.1279 72.5 28.1499 72.5C28.1719 72.5 28.1939 72.5 28.2159 72.5C28.2379 72.5 28.2599 72.5 28.2819 72.5C28.3039 72.5 28.326 72.5 28.348 72.5C28.37 72.5 28.3921 72.5 28.4141 72.5C28.4362 72.5 28.4582 72.5 28.4803 72.5C28.5024 72.5 28.5244 72.5 28.5465 72.5C28.5686 72.5 28.5907 72.5 28.6128 72.5C28.6349 72.5 28.657 72.5 28.6791 72.5C28.7012 72.5 28.7234 72.5 28.7455 72.5C28.7676 72.5 28.7898 72.5 28.8119 72.5C28.8341 72.5 28.8562 72.5 28.8784 72.5C28.9005 72.5 28.9227 72.5 28.9449 72.5C28.9671 72.5 28.9893 72.5 29.0115 72.5C29.0337 72.5 29.0559 72.5 29.0781 72.5C29.1003 72.5 29.1225 72.5 29.1448 72.5C29.167 72.5 29.1892 72.5 29.2115 72.5C29.2337 72.5 29.256 72.5 29.2782 72.5C29.3005 72.5 29.3228 72.5 29.345 72.5C29.3673 72.5 29.3896 72.5 29.4119 72.5C29.4342 72.5 29.4565 72.5 29.4788 72.5C29.5011 72.5 29.5234 72.5 29.5457 72.5C29.5681 72.5 29.5904 72.5 29.6127 72.5C29.6351 72.5 29.6574 72.5 29.6798 72.5C29.7021 72.5 29.7245 72.5 29.7469 72.5C29.7692 72.5 29.7916 72.5 29.814 72.5C29.8364 72.5 29.8588 72.5 29.8812 72.5C29.9036 72.5 29.926 72.5 29.9484 72.5C29.9708 72.5 29.9933 72.5 30.0157 72.5C30.0381 72.5 30.0606 72.5 30.083 72.5C30.1054 72.5 30.1279 72.5 30.1504 72.5C30.1728 72.5 30.1953 72.5 30.2178 72.5C30.2402 72.5 30.2627 72.5 30.2852 72.5C30.3077 72.5 30.3302 72.5 30.3527 72.5C30.3752 72.5 30.3977 72.5 30.4203 72.5C30.4428 72.5 30.4653 72.5 30.4878 72.5C30.5104 72.5 30.5329 72.5 30.5555 72.5C30.578 72.5 30.6006 72.5 30.6231 72.5C30.6457 72.5 30.6683 72.5 30.6909 72.5C30.7134 72.5 30.736 72.5 30.7586 72.5C30.7812 72.5 30.8038 72.5 30.8264 72.5C30.849 72.5 30.8716 72.5 30.8943 72.5C30.9169 72.5 30.9395 72.5 30.9621 72.5C30.9848 72.5 31.0074 72.5 31.0301 72.5C31.0527 72.5 31.0754 72.5 31.098 72.5C31.1207 72.5 31.1434 72.5 31.1661 72.5C31.1887 72.5 31.2114 72.5 31.2341 72.5C31.2568 72.5 31.2795 72.5 31.3022 72.5C31.3249 72.5 31.3476 72.5 31.3703 72.5C31.3931 72.5 31.4158 72.5 31.4385 72.5C31.4613 72.5 31.484 72.5 31.5067 72.5C31.5295 72.5 31.5522 72.5 31.575 72.5C31.5978 72.5 31.6205 72.5 31.6433 72.5C31.6661 72.5 31.6888 72.5 31.7116 72.5C31.7344 72.5 31.7572 72.5 31.78 72.5C31.8028 72.5 31.8256 72.5 31.8484 72.5C31.8712 72.5 31.8941 72.5 31.9169 72.5C31.9397 72.5 31.9626 72.5 31.9854 72.5C32.0082 72.5 32.0311 72.5 32.0539 72.5C32.0768 72.5 32.0996 72.5 32.1225 72.5C32.1454 72.5 32.1682 72.5 32.1911 72.5C32.214 72.5 32.2369 72.5 32.2598 72.5C32.2827 72.5 32.3056 72.5 32.3285 72.5C32.3514 72.5 32.3743 72.5 32.3972 72.5C32.4201 72.5 32.443 72.5 32.466 72.5C32.4889 72.5 32.5118 72.5 32.5348 72.5C32.5577 72.5 32.5807 72.5 32.6036 72.5C32.6266 72.5 32.6495 72.5 32.6725 72.5C32.6955 72.5 32.7184 72.5 32.7414 72.5C32.7644 72.5 32.7874 72.5 32.8104 72.5C32.8334 72.5 32.8564 72.5 32.8794 72.5C32.9024 72.5 32.9254 72.5 32.9484 72.5C32.9714 72.5 32.9944 72.5 33.0175 72.5C33.0405 72.5 33.0635 72.5 33.0866 72.5C33.1096 72.5 33.1327 72.5 33.1557 72.5C33.1788 72.5 33.2018 72.5 33.2249 72.5C33.2479 72.5 33.271 72.5 33.2941 72.5C33.3172 72.5 33.3402 72.5 33.3633 72.5C33.3864 72.5 33.4095 72.5 33.4326 72.5C33.4557 72.5 33.4788 72.5 33.5019 72.5C33.525 72.5 33.5481 72.5 33.5713 72.5C33.5944 72.5 33.6175 72.5 33.6406 72.5C33.6638 72.5 33.6869 72.5 33.7101 72.5C33.7332 72.5 33.7564 72.5 33.7795 72.5C33.8027 72.5 33.8258 72.5 33.849 72.5C33.8722 72.5 33.8953 72.5 33.9185 72.5C33.9417 72.5 33.9649 72.5 33.9881 72.5C34.0113 72.5 34.0345 72.5 34.0577 72.5C34.0809 72.5 34.1041 72.5 34.1273 72.5C34.1505 72.5 34.1737 72.5 34.1969 72.5C34.2201 72.5 34.2434 72.5 34.2666 72.5C34.2898 72.5 34.3131 72.5 34.3363 72.5C34.3596 72.5 34.3828 72.5 34.4061 72.5C34.4293 72.5 34.4526 72.5 34.4758 72.5C34.4991 72.5 34.5224 72.5 34.5457 72.5C34.5689 72.5 34.5922 72.5 34.6155 72.5C34.6388 72.5 34.6621 72.5 34.6854 72.5C34.7087 72.5 34.732 72.5 34.7553 72.5C34.7786 72.5 34.8019 72.5 34.8252 72.5C34.8485 72.5 34.8719 72.5 34.8952 72.5C34.9185 72.5 34.9418 72.5 34.9652 72.5C34.9885 72.5 35.0119 72.5 35.0352 72.5C35.0586 72.5 35.0819 72.5 35.1053 72.5C35.1286 72.5 35.152 72.5 35.1754 72.5C35.1987 72.5 35.2221 72.5 35.2455 72.5C35.2688 72.5 35.2922 72.5 35.3156 72.5C35.339 72.5 35.3624 72.5 35.3858 72.5C35.4092 72.5 35.4326 72.5 35.456 72.5C35.4794 72.5 35.5028 72.5 35.5262 72.5C35.5496 72.5 35.5731 72.5 35.5965 72.5C35.6199 72.5 35.6434 72.5 35.6668 72.5C35.6902 72.5 35.7137 72.5 35.7371 72.5C35.7605 72.5 35.784 72.5 35.8075 72.5C35.8309 72.5 35.8544 72.5 35.8778 72.5C35.9013 72.5 35.9248 72.5 35.9482 72.5C35.9717 72.5 35.9952 72.5 36.0187 72.5C36.0421 72.5 36.0656 72.5 36.0891 72.5C36.1126 72.5 36.1361 72.5 36.1596 72.5C36.1831 72.5 36.2066 72.5 36.2301 72.5C36.2536 72.5 36.2771 72.5 36.3006 72.5C36.3242 72.5 36.3477 72.5 36.3712 72.5C36.3947 72.5 36.4183 72.5 36.4418 72.5C36.4653 72.5 36.4889 72.5 36.5124 72.5C36.536 72.5 36.5595 72.5 36.5831 72.5C36.6066 72.5 36.6302 72.5 36.6537 72.5C36.6773 72.5 36.7008 72.5 36.7244 72.5C36.748 72.5 36.7716 72.5 36.7951 72.5C36.8187 72.5 36.8423 72.5 36.8659 72.5C36.8895 72.5 36.913 72.5 36.9366 72.5C36.9602 72.5 36.9838 72.5 37.0074 72.5C37.031 72.5 37.0546 72.5 37.0782 72.5C37.1019 72.5 37.1255 72.5 37.1491 72.5C37.1727 72.5 37.1963 72.5 37.2199 72.5C37.2436 72.5 37.2672 72.5 37.2908 72.5C37.3145 72.5 37.3381 72.5 37.3617 72.5C37.3854 72.5 37.409 72.5 37.4327 72.5C37.4563 72.5 37.48 72.5 37.5036 72.5C37.5273 72.5 37.5509 72.5 37.5746 72.5C37.5983 72.5 37.6219 72.5 37.6456 72.5C37.6693 72.5 37.693 72.5 37.7166 72.5C37.7403 72.5 37.764 72.5 37.7877 72.5C37.8114 72.5 37.8351 72.5 37.8588 72.5C37.8824 72.5 37.9061 72.5 37.9298 72.5C37.9535 72.5 37.9772 72.5 38.001 72.5C38.0247 72.5 38.0484 72.5 38.0721 72.5C38.0958 72.5 38.1195 72.5 38.1432 72.5C38.167 72.5 38.1907 72.5 38.2144 72.5C38.2381 72.5 38.2619 72.5 38.2856 72.5C38.3094 72.5 38.3331 72.5 38.3568 72.5C38.3806 72.5 38.4043 72.5 38.4281 72.5C38.4518 72.5 38.4756 72.5 38.4993 72.5C38.5231 72.5 38.5468 72.5 38.5706 72.5C38.5944 72.5 38.6181 72.5 38.6419 72.5C38.6657 72.5 38.6894 72.5 38.7132 72.5C38.737 72.5 38.7608 72.5 38.7845 72.5C38.8083 72.5 38.8321 72.5 38.8559 72.5C38.8797 72.5 38.9035 72.5 38.9273 72.5C38.9511 72.5 38.9749 72.5 38.9987 72.5C39.0225 72.5 39.0463 72.5 39.0701 72.5C39.0939 72.5 39.1177 72.5 39.1415 72.5C39.1653 72.5 39.1891 72.5 39.213 72.5C39.2368 72.5 39.2606 72.5 39.2844 72.5C39.3082 72.5 39.3321 72.5 39.3559 72.5C39.3797 72.5 39.4036 72.5 39.4274 72.5C39.4512 72.5 39.4751 72.5 39.4989 72.5C39.5228 72.5 39.5466 72.5 39.5705 72.5C39.5943 72.5 39.6181 72.5 39.642 72.5C39.6659 72.5 39.6897 72.5 39.7136 72.5C39.7374 72.5 39.7613 72.5 39.7852 72.5C39.809 72.5 39.8329 72.5 39.8568 72.5C39.8806 72.5 39.9045 72.5 39.9284 72.5C39.9522 72.5 39.9761 72.5 40 72.5V67.5C39.9761 67.5 39.9522 67.5 39.9284 67.5C39.9045 67.5 39.8806 67.5 39.8568 67.5C39.8329 67.5 39.809 67.5 39.7852 67.5C39.7613 67.5 39.7374 67.5 39.7136 67.5C39.6897 67.5 39.6659 67.5 39.642 67.5C39.6181 67.5 39.5943 67.5 39.5705 67.5C39.5466 67.5 39.5228 67.5 39.4989 67.5C39.4751 67.5 39.4512 67.5 39.4274 67.5C39.4036 67.5 39.3797 67.5 39.3559 67.5C39.3321 67.5 39.3082 67.5 39.2844 67.5C39.2606 67.5 39.2368 67.5 39.213 67.5C39.1891 67.5 39.1653 67.5 39.1415 67.5C39.1177 67.5 39.0939 67.5 39.0701 67.5C39.0463 67.5 39.0225 67.5 38.9987 67.5C38.9749 67.5 38.9511 67.5 38.9273 67.5C38.9035 67.5 38.8797 67.5 38.8559 67.5C38.8321 67.5 38.8083 67.5 38.7845 67.5C38.7608 67.5 38.737 67.5 38.7132 67.5C38.6894 67.5 38.6657 67.5 38.6419 67.5C38.6181 67.5 38.5944 67.5 38.5706 67.5C38.5468 67.5 38.5231 67.5 38.4993 67.5C38.4756 67.5 38.4518 67.5 38.4281 67.5C38.4043 67.5 38.3806 67.5 38.3568 67.5C38.3331 67.5 38.3094 67.5 38.2856 67.5C38.2619 67.5 38.2381 67.5 38.2144 67.5C38.1907 67.5 38.167 67.5 38.1432 67.5C38.1195 67.5 38.0958 67.5 38.0721 67.5C38.0484 67.5 38.0247 67.5 38.001 67.5C37.9772 67.5 37.9535 67.5 37.9298 67.5C37.9061 67.5 37.8824 67.5 37.8588 67.5C37.8351 67.5 37.8114 67.5 37.7877 67.5C37.764 67.5 37.7403 67.5 37.7166 67.5C37.693 67.5 37.6693 67.5 37.6456 67.5C37.6219 67.5 37.5983 67.5 37.5746 67.5C37.5509 67.5 37.5273 67.5 37.5036 67.5C37.48 67.5 37.4563 67.5 37.4327 67.5C37.409 67.5 37.3854 67.5 37.3617 67.5C37.3381 67.5 37.3145 67.5 37.2908 67.5C37.2672 67.5 37.2436 67.5 37.2199 67.5C37.1963 67.5 37.1727 67.5 37.1491 67.5C37.1255 67.5 37.1019 67.5 37.0782 67.5C37.0546 67.5 37.031 67.5 37.0074 67.5C36.9838 67.5 36.9602 67.5 36.9366 67.5C36.913 67.5 36.8895 67.5 36.8659 67.5C36.8423 67.5 36.8187 67.5 36.7951 67.5C36.7716 67.5 36.748 67.5 36.7244 67.5C36.7008 67.5 36.6773 67.5 36.6537 67.5C36.6302 67.5 36.6066 67.5 36.5831 67.5C36.5595 67.5 36.536 67.5 36.5124 67.5C36.4889 67.5 36.4653 67.5 36.4418 67.5C36.4183 67.5 36.3947 67.5 36.3712 67.5C36.3477 67.5 36.3242 67.5 36.3006 67.5C36.2771 67.5 36.2536 67.5 36.2301 67.5C36.2066 67.5 36.1831 67.5 36.1596 67.5C36.1361 67.5 36.1126 67.5 36.0891 67.5C36.0656 67.5 36.0421 67.5 36.0187 67.5C35.9952 67.5 35.9717 67.5 35.9482 67.5C35.9248 67.5 35.9013 67.5 35.8778 67.5C35.8544 67.5 35.8309 67.5 35.8075 67.5C35.784 67.5 35.7605 67.5 35.7371 67.5C35.7137 67.5 35.6902 67.5 35.6668 67.5C35.6434 67.5 35.6199 67.5 35.5965 67.5C35.5731 67.5 35.5496 67.5 35.5262 67.5C35.5028 67.5 35.4794 67.5 35.456 67.5C35.4326 67.5 35.4092 67.5 35.3858 67.5C35.3624 67.5 35.339 67.5 35.3156 67.5C35.2922 67.5 35.2688 67.5 35.2455 67.5C35.2221 67.5 35.1987 67.5 35.1754 67.5C35.152 67.5 35.1286 67.5 35.1053 67.5C35.0819 67.5 35.0586 67.5 35.0352 67.5C35.0119 67.5 34.9885 67.5 34.9652 67.5C34.9418 67.5 34.9185 67.5 34.8952 67.5C34.8719 67.5 34.8485 67.5 34.8252 67.5C34.8019 67.5 34.7786 67.5 34.7553 67.5C34.732 67.5 34.7087 67.5 34.6854 67.5C34.6621 67.5 34.6388 67.5 34.6155 67.5C34.5922 67.5 34.5689 67.5 34.5457 67.5C34.5224 67.5 34.4991 67.5 34.4758 67.5C34.4526 67.5 34.4293 67.5 34.4061 67.5C34.3828 67.5 34.3596 67.5 34.3363 67.5C34.3131 67.5 34.2898 67.5 34.2666 67.5C34.2434 67.5 34.2201 67.5 34.1969 67.5C34.1737 67.5 34.1505 67.5 34.1273 67.5C34.1041 67.5 34.0809 67.5 34.0577 67.5C34.0345 67.5 34.0113 67.5 33.9881 67.5C33.9649 67.5 33.9417 67.5 33.9185 67.5C33.8953 67.5 33.8722 67.5 33.849 67.5C33.8258 67.5 33.8027 67.5 33.7795 67.5C33.7564 67.5 33.7332 67.5 33.7101 67.5C33.6869 67.5 33.6638 67.5 33.6406 67.5C33.6175 67.5 33.5944 67.5 33.5713 67.5C33.5481 67.5 33.525 67.5 33.5019 67.5C33.4788 67.5 33.4557 67.5 33.4326 67.5C33.4095 67.5 33.3864 67.5 33.3633 67.5C33.3402 67.5 33.3172 67.5 33.2941 67.5C33.271 67.5 33.2479 67.5 33.2249 67.5C33.2018 67.5 33.1788 67.5 33.1557 67.5C33.1327 67.5 33.1096 67.5 33.0866 67.5C33.0635 67.5 33.0405 67.5 33.0175 67.5C32.9944 67.5 32.9714 67.5 32.9484 67.5C32.9254 67.5 32.9024 67.5 32.8794 67.5C32.8564 67.5 32.8334 67.5 32.8104 67.5C32.7874 67.5 32.7644 67.5 32.7414 67.5C32.7184 67.5 32.6955 67.5 32.6725 67.5C32.6495 67.5 32.6266 67.5 32.6036 67.5C32.5807 67.5 32.5577 67.5 32.5348 67.5C32.5118 67.5 32.4889 67.5 32.466 67.5C32.443 67.5 32.4201 67.5 32.3972 67.5C32.3743 67.5 32.3514 67.5 32.3285 67.5C32.3056 67.5 32.2827 67.5 32.2598 67.5C32.2369 67.5 32.214 67.5 32.1911 67.5C32.1682 67.5 32.1454 67.5 32.1225 67.5C32.0996 67.5 32.0768 67.5 32.0539 67.5C32.0311 67.5 32.0082 67.5 31.9854 67.5C31.9626 67.5 31.9397 67.5 31.9169 67.5C31.8941 67.5 31.8712 67.5 31.8484 67.5C31.8256 67.5 31.8028 67.5 31.78 67.5C31.7572 67.5 31.7344 67.5 31.7116 67.5C31.6888 67.5 31.6661 67.5 31.6433 67.5C31.6205 67.5 31.5978 67.5 31.575 67.5C31.5522 67.5 31.5295 67.5 31.5067 67.5C31.484 67.5 31.4613 67.5 31.4385 67.5C31.4158 67.5 31.3931 67.5 31.3703 67.5C31.3476 67.5 31.3249 67.5 31.3022 67.5C31.2795 67.5 31.2568 67.5 31.2341 67.5C31.2114 67.5 31.1887 67.5 31.1661 67.5C31.1434 67.5 31.1207 67.5 31.098 67.5C31.0754 67.5 31.0527 67.5 31.0301 67.5C31.0074 67.5 30.9848 67.5 30.9621 67.5C30.9395 67.5 30.9169 67.5 30.8943 67.5C30.8716 67.5 30.849 67.5 30.8264 67.5C30.8038 67.5 30.7812 67.5 30.7586 67.5C30.736 67.5 30.7134 67.5 30.6909 67.5C30.6683 67.5 30.6457 67.5 30.6231 67.5C30.6006 67.5 30.578 67.5 30.5555 67.5C30.5329 67.5 30.5104 67.5 30.4878 67.5C30.4653 67.5 30.4428 67.5 30.4203 67.5C30.3977 67.5 30.3752 67.5 30.3527 67.5C30.3302 67.5 30.3077 67.5 30.2852 67.5C30.2627 67.5 30.2402 67.5 30.2178 67.5C30.1953 67.5 30.1728 67.5 30.1504 67.5C30.1279 67.5 30.1054 67.5 30.083 67.5C30.0606 67.5 30.0381 67.5 30.0157 67.5C29.9933 67.5 29.9708 67.5 29.9484 67.5C29.926 67.5 29.9036 67.5 29.8812 67.5C29.8588 67.5 29.8364 67.5 29.814 67.5C29.7916 67.5 29.7692 67.5 29.7469 67.5C29.7245 67.5 29.7021 67.5 29.6798 67.5C29.6574 67.5 29.6351 67.5 29.6127 67.5C29.5904 67.5 29.5681 67.5 29.5457 67.5C29.5234 67.5 29.5011 67.5 29.4788 67.5C29.4565 67.5 29.4342 67.5 29.4119 67.5C29.3896 67.5 29.3673 67.5 29.345 67.5C29.3228 67.5 29.3005 67.5 29.2782 67.5C29.256 67.5 29.2337 67.5 29.2115 67.5C29.1892 67.5 29.167 67.5 29.1448 67.5C29.1225 67.5 29.1003 67.5 29.0781 67.5C29.0559 67.5 29.0337 67.5 29.0115 67.5C28.9893 67.5 28.9671 67.5 28.9449 67.5C28.9227 67.5 28.9005 67.5 28.8784 67.5C28.8562 67.5 28.8341 67.5 28.8119 67.5C28.7898 67.5 28.7676 67.5 28.7455 67.5C28.7234 67.5 28.7012 67.5 28.6791 67.5C28.657 67.5 28.6349 67.5 28.6128 67.5C28.5907 67.5 28.5686 67.5 28.5465 67.5C28.5244 67.5 28.5024 67.5 28.4803 67.5C28.4582 67.5 28.4362 67.5 28.4141 67.5C28.3921 67.5 28.37 67.5 28.348 67.5C28.326 67.5 28.3039 67.5 28.2819 67.5C28.2599 67.5 28.2379 67.5 28.2159 67.5C28.1939 67.5 28.1719 67.5 28.1499 67.5C28.1279 67.5 28.106 67.5 28.084 67.5C28.062 67.5 28.0401 67.5 28.0181 67.5C27.9962 67.5 27.9742 67.5 27.9523 67.5C27.9304 67.5 27.9085 67.5 27.8865 67.5C27.8646 67.5 27.8427 67.5 27.8208 67.5C27.7989 67.5 27.777 67.5 27.7552 67.5C27.7333 67.5 27.7114 67.5 27.6896 67.5C27.6677 67.5 27.6458 67.5 27.624 67.5C27.6022 67.5 27.5803 67.5 27.5585 67.5C27.5367 67.5 27.5148 67.5 27.493 67.5C27.4712 67.5 27.4494 67.5 27.4276 67.5C27.4058 67.5 27.3841 67.5 27.3623 67.5C27.3405 67.5 27.3188 67.5 27.297 67.5C27.2752 67.5 27.2535 67.5 27.2318 67.5C27.21 67.5 27.1883 67.5 27.1666 67.5C27.1449 67.5 27.1231 67.5 27.1014 67.5C27.0797 67.5 27.058 67.5 27.0364 67.5C27.0147 67.5 26.993 67.5 26.9713 67.5C26.9497 67.5 26.928 67.5 26.9064 67.5C26.8847 67.5 26.8631 67.5 26.8415 67.5C26.8198 67.5 26.7982 67.5 26.7766 67.5C26.755 67.5 26.7334 67.5 26.7118 67.5C26.6902 67.5 26.6686 67.5 26.6471 67.5C26.6255 67.5 26.6039 67.5 26.5824 67.5C26.5608 67.5 26.5393 67.5 26.5177 67.5C26.4962 67.5 26.4747 67.5 26.4532 67.5C26.4316 67.5 26.4101 67.5 26.3886 67.5C26.3671 67.5 26.3456 67.5 26.3242 67.5C26.3027 67.5 26.2812 67.5 26.2598 67.5C26.2383 67.5 26.2168 67.5 26.1954 67.5C26.174 67.5 26.1525 67.5 26.1311 67.5C26.1097 67.5 26.0883 67.5 26.0669 67.5C26.0455 67.5 26.0241 67.5 26.0027 67.5C25.9813 67.5 25.9599 67.5 25.9386 67.5C25.9172 67.5 25.8959 67.5 25.8745 67.5C25.8532 67.5 25.8318 67.5 25.8105 67.5C25.7892 67.5 25.7679 67.5 25.7466 67.5C25.7253 67.5 25.704 67.5 25.6827 67.5C25.6614 67.5 25.6401 67.5 25.6188 67.5C25.5976 67.5 25.5763 67.5 25.5551 67.5C25.5338 67.5 25.5126 67.5 25.4914 67.5C25.4701 67.5 25.4489 67.5 25.4277 67.5C25.4065 67.5 25.3853 67.5 25.3641 67.5C25.3429 67.5 25.3218 67.5 25.3006 67.5C25.2794 67.5 25.2583 67.5 25.2371 67.5C25.216 67.5 25.1948 67.5 25.1737 67.5C25.1526 67.5 25.1315 67.5 25.1104 67.5C25.0893 67.5 25.0682 67.5 25.0471 67.5C25.026 67.5 25.0049 67.5 24.9838 67.5C24.9628 67.5 24.9417 67.5 24.9207 67.5C24.8996 67.5 24.8786 67.5 24.8576 67.5C24.8365 67.5 24.8155 67.5 24.7945 67.5C24.7735 67.5 24.7525 67.5 24.7315 67.5C24.7106 67.5 24.6896 67.5 24.6686 67.5C24.6477 67.5 24.6267 67.5 24.6058 67.5C24.5848 67.5 24.5639 67.5 24.543 67.5C24.5221 67.5 24.5011 67.5 24.4802 67.5C24.4593 67.5 24.4384 67.5 24.4176 67.5C24.3967 67.5 24.3758 67.5 24.355 67.5C24.3341 67.5 24.3133 67.5 24.2924 67.5C24.2716 67.5 24.2508 67.5 24.2299 67.5C24.2091 67.5 24.1883 67.5 24.1675 67.5C24.1467 67.5 24.1259 67.5 24.1052 67.5C24.0844 67.5 24.0636 67.5 24.0429 67.5C24.0221 67.5 24.0014 67.5 23.9807 67.5C23.9599 67.5 23.9392 67.5 23.9185 67.5C23.8978 67.5 23.8771 67.5 23.8564 67.5C23.8357 67.5 23.815 67.5 23.7944 67.5C23.7737 67.5 23.7531 67.5 23.7324 67.5C23.7118 67.5 23.6911 67.5 23.6705 67.5C23.6499 67.5 23.6293 67.5 23.6087 67.5C23.5881 67.5 23.5675 67.5 23.5469 67.5C23.5263 67.5 23.5058 67.5 23.4852 67.5C23.4646 67.5 23.4441 67.5 23.4236 67.5C23.403 67.5 23.3825 67.5 23.362 67.5C23.3415 67.5 23.321 67.5 23.3005 67.5C23.28 67.5 23.2595 67.5 23.2391 67.5C23.2186 67.5 23.1981 67.5 23.1777 67.5C23.1572 67.5 23.1368 67.5 23.1164 67.5C23.096 67.5 23.0756 67.5 23.0552 67.5C23.0348 67.5 23.0144 67.5 22.994 67.5C22.9736 67.5 22.9532 67.5 22.9329 67.5C22.9125 67.5 22.8922 67.5 22.8719 67.5C22.8515 67.5 22.8312 67.5 22.8109 67.5C22.7906 67.5 22.7703 67.5 22.75 67.5C22.7297 67.5 22.7094 67.5 22.6892 67.5C22.6689 67.5 22.6487 67.5 22.6284 67.5C22.6082 67.5 22.5879 67.5 22.5677 67.5C22.5475 67.5 22.5273 67.5 22.5071 67.5C22.4869 67.5 22.4667 67.5 22.4466 67.5C22.4264 67.5 22.4062 67.5 22.3861 67.5C22.3659 67.5 22.3458 67.5 22.3257 67.5C22.3055 67.5 22.2854 67.5 22.2653 67.5C22.2452 67.5 22.2251 67.5 22.2051 67.5C22.185 67.5 22.1649 67.5 22.1449 67.5C22.1248 67.5 22.1048 67.5 22.0847 67.5C22.0647 67.5 22.0447 67.5 22.0247 67.5C22.0047 67.5 21.9847 67.5 21.9647 67.5C21.9447 67.5 21.9247 67.5 21.9048 67.5C21.8848 67.5 21.8649 67.5 21.8449 67.5C21.825 67.5 21.8051 67.5 21.7852 67.5C21.7653 67.5 21.7454 67.5 21.7255 67.5C21.7056 67.5 21.6857 67.5 21.6658 67.5C21.646 67.5 21.6261 67.5 21.6063 67.5C21.5864 67.5 21.5666 67.5 21.5468 67.5C21.527 67.5 21.5072 67.5 21.4874 67.5C21.4676 67.5 21.4478 67.5 21.4281 67.5C21.4083 67.5 21.3885 67.5 21.3688 67.5C21.3491 67.5 21.3293 67.5 21.3096 67.5C21.2899 67.5 21.2702 67.5 21.2505 67.5C21.2308 67.5 21.2111 67.5 21.1915 67.5C21.1718 67.5 21.1521 67.5 21.1325 67.5C21.1128 67.5 21.0932 67.5 21.0736 67.5C21.054 67.5 21.0344 67.5 21.0148 67.5C20.9952 67.5 20.9756 67.5 20.956 67.5C20.9365 67.5 20.9169 67.5 20.8974 67.5C20.8778 67.5 20.8583 67.5 20.8388 67.5C20.8192 67.5 20.7997 67.5 20.7802 67.5C20.7608 67.5 20.7413 67.5 20.7218 67.5C20.7023 67.5 20.6829 67.5 20.6634 67.5C20.644 67.5 20.6246 67.5 20.6051 67.5C20.5857 67.5 20.5663 67.5 20.5469 67.5C20.5275 67.5 20.5082 67.5 20.4888 67.5C20.4694 67.5 20.4501 67.5 20.4307 67.5C20.4114 67.5 20.3921 67.5 20.3727 67.5C20.3534 67.5 20.3341 67.5 20.3148 67.5C20.2955 67.5 20.2763 67.5 20.257 67.5C20.2377 67.5 20.2185 67.5 20.1992 67.5C20.18 67.5 20.1608 67.5 20.1416 67.5C20.1224 67.5 20.1032 67.5 20.084 67.5C20.0648 67.5 20.0456 67.5 20.0264 67.5C20.0073 67.5 19.9881 67.5 19.969 67.5C19.9499 67.5 19.9307 67.5 19.9116 67.5C19.8925 67.5 19.8734 67.5 19.8544 67.5C19.8353 67.5 19.8162 67.5 19.7971 67.5C19.7781 67.5 19.759 67.5 19.74 67.5C19.721 67.5 19.702 67.5 19.683 67.5C19.664 67.5 19.645 67.5 19.626 67.5C19.607 67.5 19.5881 67.5 19.5691 67.5C19.5502 67.5 19.5312 67.5 19.5123 67.5C19.4934 67.5 19.4745 67.5 19.4556 67.5C19.4367 67.5 19.4178 67.5 19.3989 67.5C19.3801 67.5 19.3612 67.5 19.3424 67.5C19.3235 67.5 19.3047 67.5 19.2859 67.5C19.267 67.5 19.2482 67.5 19.2295 67.5C19.2107 67.5 19.1919 67.5 19.1731 67.5C19.1544 67.5 19.1356 67.5 19.1169 67.5C19.0982 67.5 19.0794 67.5 19.0607 67.5C19.042 67.5 19.0233 67.5 19.0046 67.5C18.986 67.5 18.9673 67.5 18.9486 67.5C18.93 67.5 18.9114 67.5 18.8927 67.5C18.8741 67.5 18.8555 67.5 18.8369 67.5C18.8183 67.5 18.7997 67.5 18.7811 67.5C18.7626 67.5 18.744 67.5 18.7255 67.5C18.7069 67.5 18.6884 67.5 18.6699 67.5C18.6514 67.5 18.6329 67.5 18.6144 67.5C18.5959 67.5 18.5774 67.5 18.559 67.5C18.5405 67.5 18.5221 67.5 18.5036 67.5C18.4852 67.5 18.4668 67.5 18.4484 67.5C18.43 67.5 18.4116 67.5 18.3932 67.5C18.3748 67.5 18.3565 67.5 18.3381 67.5C18.3198 67.5 18.3014 67.5 18.2831 67.5C18.2648 67.5 18.2465 67.5 18.2282 67.5C18.2099 67.5 18.1916 67.5 18.1734 67.5C18.1551 67.5 18.1369 67.5 18.1186 67.5C18.1004 67.5 18.0822 67.5 18.064 67.5C18.0458 67.5 18.0276 67.5 18.0094 67.5C17.9912 67.5 17.973 67.5 17.9549 67.5C17.9367 67.5 17.9186 67.5 17.9005 67.5C17.8824 67.5 17.8643 67.5 17.8462 67.5C17.8281 67.5 17.81 67.5 17.7919 67.5C17.7739 67.5 17.7558 67.5 17.7378 67.5C17.7198 67.5 17.7018 67.5 17.6837 67.5C17.6657 67.5 17.6478 67.5 17.6298 67.5C17.6118 67.5 17.5938 67.5 17.5759 67.5C17.5579 67.5 17.54 67.5 17.5221 67.5C17.5042 67.5 17.4863 67.5 17.4684 67.5C17.4505 67.5 17.4326 67.5 17.4148 67.5C17.3969 67.5 17.3791 67.5 17.3612 67.5C17.3434 67.5 17.3256 67.5 17.3078 67.5C17.29 67.5 17.2722 67.5 17.2544 67.5C17.2367 67.5 17.2189 67.5 17.2012 67.5C17.1834 67.5 17.1657 67.5 17.148 67.5C17.1303 67.5 17.1126 67.5 17.0949 67.5C17.0772 67.5 17.0595 67.5 17.0419 67.5C17.0242 67.5 17.0066 67.5 16.989 67.5C16.9714 67.5 16.9538 67.5 16.9362 67.5C16.9186 67.5 16.901 67.5 16.8834 67.5C16.8659 67.5 16.8483 67.5 16.8308 67.5C16.8133 67.5 16.7957 67.5 16.7782 67.5C16.7607 67.5 16.7432 67.5 16.7258 67.5C16.7083 67.5 16.6908 67.5 16.6734 67.5C16.656 67.5 16.6385 67.5 16.6211 67.5C16.6037 67.5 16.5863 67.5 16.5689 67.5C16.5516 67.5 16.5342 67.5 16.5168 67.5C16.4995 67.5 16.4822 67.5 16.4648 67.5C16.4475 67.5 16.4302 67.5 16.4129 67.5C16.3956 67.5 16.3784 67.5 16.3611 67.5C16.3438 67.5 16.3266 67.5 16.3094 67.5C16.2921 67.5 16.2749 67.5 16.2577 67.5C16.2405 67.5 16.2233 67.5 16.2062 67.5C16.189 67.5 16.1719 67.5 16.1547 67.5C16.1376 67.5 16.1205 67.5 16.1034 67.5C16.0863 67.5 16.0692 67.5 16.0521 67.5C16.035 67.5 16.018 67.5 16.0009 67.5C15.9839 67.5 15.9669 67.5 15.9498 67.5C15.9328 67.5 15.9158 67.5 15.8989 67.5C15.8819 67.5 15.8649 67.5 15.848 67.5C15.831 67.5 15.8141 67.5 15.7972 67.5C15.7803 67.5 15.7634 67.5 15.7465 67.5C15.7296 67.5 15.7127 67.5 15.6959 67.5C15.679 67.5 15.6622 67.5 15.6453 67.5C15.6285 67.5 15.6117 67.5 15.5949 67.5C15.5781 67.5 15.5614 67.5 15.5446 67.5C15.5278 67.5 15.5111 67.5 15.4944 67.5C15.4777 67.5 15.4609 67.5 15.4442 67.5C15.4275 67.5 15.4109 67.5 15.3942 67.5C15.3775 67.5 15.3609 67.5 15.3443 67.5C15.3276 67.5 15.311 67.5 15.2944 67.5C15.2778 67.5 15.2612 67.5 15.2447 67.5C15.2281 67.5 15.2116 67.5 15.195 67.5C15.1785 67.5 15.162 67.5 15.1455 67.5C15.129 67.5 15.1125 67.5 15.096 67.5C15.0795 67.5 15.0631 67.5 15.0467 67.5C15.0302 67.5 15.0138 67.5 14.9974 67.5C14.981 67.5 14.9646 67.5 14.9482 67.5C14.9319 67.5 14.9155 67.5 14.8992 67.5C14.8828 67.5 14.8665 67.5 14.8502 67.5C14.8339 67.5 14.8176 67.5 14.8013 67.5C14.785 67.5 14.7688 67.5 14.7525 67.5C14.7363 67.5 14.7201 67.5 14.7039 67.5C14.6877 67.5 14.6715 67.5 14.6553 67.5C14.6391 67.5 14.623 67.5 14.6068 67.5C14.5907 67.5 14.5746 67.5 14.5584 67.5C14.5423 67.5 14.5262 67.5 14.5102 67.5C14.4941 67.5 14.478 67.5 14.462 67.5C14.446 67.5 14.4299 67.5 14.4139 67.5C14.3979 67.5 14.3819 67.5 14.3659 67.5C14.35 67.5 14.334 67.5 14.3181 67.5C14.3021 67.5 14.2862 67.5 14.2703 67.5C14.2544 67.5 14.2385 67.5 14.2226 67.5C14.2067 67.5 14.1909 67.5 14.175 67.5C14.1592 67.5 14.1434 67.5 14.1276 67.5C14.1118 67.5 14.096 67.5 14.0802 67.5C14.0644 67.5 14.0487 67.5 14.0329 67.5C14.0172 67.5 14.0015 67.5 13.9858 67.5C13.9701 67.5 13.9544 67.5 13.9387 67.5C13.923 67.5 13.9074 67.5 13.8917 67.5C13.8761 67.5 13.8605 67.5 13.8449 67.5C13.8293 67.5 13.8137 67.5 13.7981 67.5C13.7826 67.5 13.767 67.5 13.7515 67.5C13.7359 67.5 13.7204 67.5 13.7049 67.5C13.6894 67.5 13.6739 67.5 13.6585 67.5C13.643 67.5 13.6276 67.5 13.6121 67.5C13.5967 67.5 13.5813 67.5 13.5659 67.5C13.5505 67.5 13.5351 67.5 13.5197 67.5C13.5044 67.5 13.489 67.5 13.4737 67.5C13.4584 67.5 13.4431 67.5 13.4278 67.5C13.4125 67.5 13.3972 67.5 13.382 67.5C13.3667 67.5 13.3515 67.5 13.3362 67.5C13.321 67.5 13.3058 67.5 13.2906 67.5C13.2754 67.5 13.2603 67.5 13.2451 67.5C13.23 67.5 13.2148 67.5 13.1997 67.5C13.1846 67.5 13.1695 67.5 13.1544 67.5C13.1393 67.5 13.1243 67.5 13.1092 67.5C13.0942 67.5 13.0792 67.5 13.0641 67.5C13.0491 67.5 13.0341 67.5 13.0192 67.5C13.0042 67.5 12.9892 67.5 12.9743 67.5C12.9593 67.5 12.9444 67.5 12.9295 67.5C12.9146 67.5 12.8997 67.5 12.8849 67.5C12.87 67.5 12.8551 67.5 12.8403 67.5C12.8255 67.5 12.8107 67.5 12.7959 67.5C12.7811 67.5 12.7663 67.5 12.7515 67.5C12.7368 67.5 12.722 67.5 12.7073 67.5C12.6926 67.5 12.6779 67.5 12.6632 67.5C12.6485 67.5 12.6338 67.5 12.6192 67.5C12.6045 67.5 12.5899 67.5 12.5753 67.5C12.5606 67.5 12.546 67.5 12.5315 67.5C12.5169 67.5 12.5023 67.5 12.4878 67.5C12.4732 67.5 12.4587 67.5 12.4442 67.5C12.4297 67.5 12.4152 67.5 12.4007 67.5C12.3862 67.5 12.3718 67.5 12.3574 67.5C12.3429 67.5 12.3285 67.5 12.3141 67.5C12.2997 67.5 12.2853 67.5 12.271 67.5C12.2566 67.5 12.2422 67.5 12.2279 67.5C12.2136 67.5 12.1993 67.5 12.185 67.5C12.1707 67.5 12.1564 67.5 12.1422 67.5C12.1279 67.5 12.1137 67.5 12.0995 67.5C12.0853 67.5 12.0711 67.5 12.0569 67.5C12.0427 67.5 12.0286 67.5 12.0144 67.5C12.0003 67.5 11.9862 67.5 11.9721 67.5C11.9579 67.5 11.9439 67.5 11.9298 67.5C11.9157 67.5 11.9017 67.5 11.8876 67.5C11.8736 67.5 11.8596 67.5 11.8456 67.5C11.8316 67.5 11.8176 67.5 11.8037 67.5C11.7897 67.5 11.7758 67.5 11.7619 67.5C11.748 67.5 11.7341 67.5 11.7202 67.5C11.7063 67.5 11.6924 67.5 11.6786 67.5C11.6648 67.5 11.6509 67.5 11.6371 67.5C11.6233 67.5 11.6095 67.5 11.5958 67.5C11.582 67.5 11.5683 67.5 11.5545 67.5C11.5408 67.5 11.5271 67.5 11.5134 67.5C11.4997 67.5 11.486 67.5 11.4724 67.5C11.4587 67.5 11.4451 67.5 11.4315 67.5C11.4179 67.5 11.4043 67.5 11.3907 67.5C11.3771 67.5 11.3635 67.5 11.35 67.5C11.3365 67.5 11.323 67.5 11.3094 67.5C11.2959 67.5 11.2825 67.5 11.269 67.5C11.2555 67.5 11.2421 67.5 11.2287 67.5C11.2152 67.5 11.2018 67.5 11.1885 67.5C11.1751 67.5 11.1617 67.5 11.1484 67.5C11.135 67.5 11.1217 67.5 11.1084 67.5C11.0951 67.5 11.0818 67.5 11.0685 67.5C11.0552 67.5 11.042 67.5 11.0287 67.5C11.0155 67.5 11.0023 67.5 10.9891 67.5C10.9759 67.5 10.9627 67.5 10.9496 67.5C10.9364 67.5 10.9233 67.5 10.9102 67.5C10.8971 67.5 10.884 67.5 10.8709 67.5C10.8578 67.5 10.8448 67.5 10.8317 67.5C10.8187 67.5 10.8057 67.5 10.7927 67.5C10.7797 67.5 10.7667 67.5 10.7537 67.5C10.7408 67.5 10.7278 67.5 10.7149 67.5C10.702 67.5 10.6891 67.5 10.6762 67.5C10.6633 67.5 10.6505 67.5 10.6376 67.5C10.6248 67.5 10.612 67.5 10.5992 67.5C10.5864 67.5 10.5736 67.5 10.5608 67.5C10.5481 67.5 10.5353 67.5 10.5226 67.5C10.5099 67.5 10.4972 67.5 10.4845 67.5C10.4718 67.5 10.4591 67.5 10.4465 67.5C10.4339 67.5 10.4212 67.5 10.4086 67.5C10.396 67.5 10.3834 67.5 10.3709 67.5C10.3583 67.5 10.3458 67.5 10.3333 67.5C10.3207 67.5 10.3082 67.5 10.2957 67.5C10.2833 67.5 10.2708 67.5 10.2584 67.5C10.2459 67.5 10.2335 67.5 10.2211 67.5C10.2087 67.5 10.1963 67.5 10.1839 67.5C10.1716 67.5 10.1592 67.5 10.1469 67.5C10.1346 67.5 10.1223 67.5 10.11 67.5C10.0977 67.5 10.0855 67.5 10.0732 67.5C10.061 67.5 10.0487 67.5 10.0365 67.5C10.0243 67.5 10.0122 67.5 10 67.5V72.5ZM40 72.5C55.8773 72.5 72.5 60.2705 72.5 40H67.5C67.5 57.088 53.5566 67.5 40 67.5V72.5ZM72.5 40C72.5 19.7866 57.0712 7.5 40 7.5V12.5C54.6269 12.5 67.5 22.8549 67.5 40H72.5ZM40 7.5C30.5366 7.5 17.3125 7.5 10 7.5L10 12.5C17.3125 12.5 30.5366 12.5 40 12.5V7.5Z" fill="#333333"/>
</g>
<defs>
<filter id="filter0_d" x="0" y="0" width="80" height="84" filterUnits="userSpaceOnUse" color-interpolation-filters="sRGB">
<feFlood flood-opacity="0" result="BackgroundImageFix"/>
<feColorMatrix in="SourceAlpha" type="matrix" values="0 0 0 0 0 0 0 0 0 0 0 0 0 0 0 0 0 0 127 0" result="hardAlpha"/>
<feOffset dy="4"/>
<feColorMatrix type="matrix" values="0 0 0 0 0 0 0 0 0 0 0 0 0 0 0 0 0 0 0.25 0"/>
<feBlend mode="normal" in2="BackgroundImageFix" result="effect1_dropShadow"/>
<feBlend mode="normal" in="SourceGraphic" in2="effect1_dropShadow" result="shape"/>
</filter>
</defs>
</svg>
