<svg width="80" height="84" viewBox="0 0 80 84" fill="none" xmlns="http://www.w3.org/2000/svg">
<g filter="url(#filter0_d)">
<rect id="BG" width="80" height="80" rx="10" fill="#F2F2F2"/>
<path d="M10 10L10 7.5C9.33696 7.5 8.70107 7.76339 8.23223 8.23223C7.76339 8.70107 7.5 9.33696 7.5 10H10ZM10 70H7.5C7.5 71.3807 8.61929 72.5 10 72.5V70ZM7.5 10V70H12.5V10H7.5ZM10 72.5C10.0122 72.5 10.0243 72.5 10.0365 72.5C10.0486 72.5 10.0607 72.5 10.0729 72.5C10.085 72.5 10.0971 72.5 10.1092 72.5C10.1213 72.5 10.1334 72.5 10.1455 72.5C10.1576 72.5 10.1697 72.5 10.1818 72.5C10.1939 72.5 10.206 72.5 10.218 72.5C10.2301 72.5 10.2421 72.5 10.2542 72.5C10.2662 72.5 10.2783 72.5 10.2903 72.5C10.3023 72.5 10.3144 72.5 10.3264 72.5C10.3384 72.5 10.3504 72.5 10.3624 72.5C10.3744 72.5 10.3864 72.5 10.3984 72.5C10.4104 72.5 10.4224 72.5 10.4343 72.5C10.4463 72.5 10.4583 72.5 10.4702 72.5C10.4822 72.5 10.4941 72.5 10.5061 72.5C10.518 72.5 10.53 72.5 10.5419 72.5C10.5538 72.5 10.5657 72.5 10.5777 72.5C10.5896 72.5 10.6015 72.5 10.6134 72.5C10.6253 72.5 10.6372 72.5 10.6491 72.5C10.6609 72.5 10.6728 72.5 10.6847 72.5C10.6966 72.5 10.7084 72.5 10.7203 72.5C10.7322 72.5 10.744 72.5 10.7559 72.5C10.7677 72.5 10.7795 72.5 10.7914 72.5C10.8032 72.5 10.815 72.5 10.8269 72.5C10.8387 72.5 10.8505 72.5 10.8623 72.5C10.8741 72.5 10.8859 72.5 10.8977 72.5C10.9095 72.5 10.9213 72.5 10.9331 72.5C10.9448 72.5 10.9566 72.5 10.9684 72.5C10.9801 72.5 10.9919 72.5 11.0037 72.5C11.0154 72.5 11.0272 72.5 11.0389 72.5C11.0507 72.5 11.0624 72.5 11.0741 72.5C11.0859 72.5 11.0976 72.5 11.1093 72.5C11.121 72.5 11.1327 72.5 11.1444 72.5C11.1562 72.5 11.1679 72.5 11.1796 72.5C11.1912 72.5 11.2029 72.5 11.2146 72.5C11.2263 72.5 11.238 72.5 11.2497 72.5C11.2613 72.5 11.273 72.5 11.2847 72.5C11.2963 72.5 11.308 72.5 11.3196 72.5C11.3313 72.5 11.3429 72.5 11.3546 72.5C11.3662 72.5 11.3778 72.5 11.3895 72.5C11.4011 72.5 11.4127 72.5 11.4244 72.5C11.436 72.5 11.4476 72.5 11.4592 72.5C11.4708 72.5 11.4824 72.5 11.494 72.5C11.5056 72.5 11.5172 72.5 11.5288 72.5C11.5404 72.5 11.552 72.5 11.5635 72.5C11.5751 72.5 11.5867 72.5 11.5983 72.5C11.6098 72.5 11.6214 72.5 11.633 72.5C11.6445 72.5 11.6561 72.5 11.6676 72.5C11.6792 72.5 11.6907 72.5 11.7023 72.5C11.7138 72.5 11.7253 72.5 11.7369 72.5C11.7484 72.5 11.7599 72.5 11.7714 72.5C11.783 72.5 11.7945 72.5 11.806 72.5C11.8175 72.5 11.829 72.5 11.8405 72.5C11.852 72.5 11.8635 72.5 11.875 72.5C11.8865 72.5 11.898 72.5 11.9095 72.5C11.921 72.5 11.9325 72.5 11.944 72.5C11.9554 72.5 11.9669 72.5 11.9784 72.5C11.9899 72.5 12.0013 72.5 12.0128 72.5C12.0243 72.5 12.0357 72.5 12.0472 72.5C12.0586 72.5 12.0701 72.5 12.0815 72.5C12.093 72.5 12.1044 72.5 12.1159 72.5C12.1273 72.5 12.1387 72.5 12.1502 72.5C12.1616 72.5 12.173 72.5 12.1845 72.5C12.1959 72.5 12.2073 72.5 12.2187 72.5C12.2302 72.5 12.2416 72.5 12.253 72.5C12.2644 72.5 12.2758 72.5 12.2872 72.5C12.2986 72.5 12.31 72.5 12.3214 72.5C12.3328 72.5 12.3442 72.5 12.3556 72.5C12.367 72.5 12.3784 72.5 12.3898 72.5C12.4012 72.5 12.4126 72.5 12.4239 72.5C12.4353 72.5 12.4467 72.5 12.4581 72.5C12.4694 72.5 12.4808 72.5 12.4922 72.5C12.5036 72.5 12.5149 72.5 12.5263 72.5C12.5377 72.5 12.549 72.5 12.5604 72.5C12.5717 72.5 12.5831 72.5 12.5944 72.5C12.6058 72.5 12.6171 72.5 12.6285 72.5C12.6398 72.5 12.6512 72.5 12.6625 72.5C12.6739 72.5 12.6852 72.5 12.6966 72.5C12.7079 72.5 12.7192 72.5 12.7306 72.5C12.7419 72.5 12.7532 72.5 12.7646 72.5C12.7759 72.5 12.7872 72.5 12.7985 72.5C12.8099 72.5 12.8212 72.5 12.8325 72.5C12.8438 72.5 12.8551 72.5 12.8665 72.5C12.8778 72.5 12.8891 72.5 12.9004 72.5C12.9117 72.5 12.923 72.5 12.9343 72.5C12.9456 72.5 12.9569 72.5 12.9683 72.5C12.9796 72.5 12.9909 72.5 13.0022 72.5C13.0135 72.5 13.0248 72.5 13.0361 72.5C13.0474 72.5 13.0587 72.5 13.07 72.5C13.0813 72.5 13.0925 72.5 13.1038 72.5C13.1151 72.5 13.1264 72.5 13.1377 72.5C13.149 72.5 13.1603 72.5 13.1716 72.5C13.1829 72.5 13.1942 72.5 13.2054 72.5C13.2167 72.5 13.228 72.5 13.2393 72.5C13.2506 72.5 13.2618 72.5 13.2731 72.5C13.2844 72.5 13.2957 72.5 13.307 72.5C13.3182 72.5 13.3295 72.5 13.3408 72.5C13.3521 72.5 13.3633 72.5 13.3746 72.5C13.3859 72.5 13.3972 72.5 13.4084 72.5C13.4197 72.5 13.431 72.5 13.4423 72.5C13.4535 72.5 13.4648 72.5 13.4761 72.5C13.4873 72.5 13.4986 72.5 13.5099 72.5C13.5211 72.5 13.5324 72.5 13.5437 72.5C13.555 72.5 13.5662 72.5 13.5775 72.5C13.5888 72.5 13.6 72.5 13.6113 72.5C13.6226 72.5 13.6338 72.5 13.6451 72.5C13.6564 72.5 13.6676 72.5 13.6789 72.5C13.6902 72.5 13.7014 72.5 13.7127 72.5C13.7239 72.5 13.7352 72.5 13.7465 72.5C13.7577 72.5 13.769 72.5 13.7803 72.5C13.7915 72.5 13.8028 72.5 13.8141 72.5C13.8253 72.5 13.8366 72.5 13.8479 72.5C13.8591 72.5 13.8704 72.5 13.8817 72.5C13.8929 72.5 13.9042 72.5 13.9155 72.5C13.9267 72.5 13.938 72.5 13.9493 72.5C13.9605 72.5 13.9718 72.5 13.9831 72.5C13.9944 72.5 14.0056 72.5 14.0169 72.5C14.0282 72.5 14.0394 72.5 14.0507 72.5C14.062 72.5 14.0733 72.5 14.0845 72.5C14.0958 72.5 14.1071 72.5 14.1184 72.5C14.1296 72.5 14.1409 72.5 14.1522 72.5C14.1635 72.5 14.1747 72.5 14.186 72.5C14.1973 72.5 14.2086 72.5 14.2199 72.5C14.2311 72.5 14.2424 72.5 14.2537 72.5C14.265 72.5 14.2763 72.5 14.2876 72.5C14.2988 72.5 14.3101 72.5 14.3214 72.5C14.3327 72.5 14.344 72.5 14.3553 72.5C14.3666 72.5 14.3779 72.5 14.3892 72.5C14.4005 72.5 14.4118 72.5 14.4231 72.5C14.4344 72.5 14.4457 72.5 14.457 72.5C14.4683 72.5 14.4796 72.5 14.4909 72.5C14.5022 72.5 14.5135 72.5 14.5248 72.5C14.5361 72.5 14.5474 72.5 14.5587 72.5C14.57 72.5 14.5813 72.5 14.5926 72.5C14.604 72.5 14.6153 72.5 14.6266 72.5C14.6379 72.5 14.6492 72.5 14.6606 72.5C14.6719 72.5 14.6832 72.5 14.6945 72.5C14.7059 72.5 14.7172 72.5 14.7285 72.5C14.7398 72.5 14.7512 72.5 14.7625 72.5C14.7739 72.5 14.7852 72.5 14.7965 72.5C14.8079 72.5 14.8192 72.5 14.8306 72.5C14.8419 72.5 14.8533 72.5 14.8646 72.5C14.876 72.5 14.8873 72.5 14.8987 72.5C14.91 72.5 14.9214 72.5 14.9327 72.5C14.9441 72.5 14.9555 72.5 14.9668 72.5C14.9782 72.5 14.9896 72.5 15.001 72.5C15.0123 72.5 15.0237 72.5 15.0351 72.5C15.0465 72.5 15.0578 72.5 15.0692 72.5C15.0806 72.5 15.092 72.5 15.1034 72.5C15.1148 72.5 15.1262 72.5 15.1376 72.5C15.149 72.5 15.1604 72.5 15.1718 72.5C15.1832 72.5 15.1946 72.5 15.206 72.5C15.2174 72.5 15.2288 72.5 15.2402 72.5C15.2516 72.5 15.2631 72.5 15.2745 72.5C15.2859 72.5 15.2973 72.5 15.3088 72.5C15.3202 72.5 15.3316 72.5 15.3431 72.5C15.3545 72.5 15.366 72.5 15.3774 72.5C15.3888 72.5 15.4003 72.5 15.4117 72.5C15.4232 72.5 15.4347 72.5 15.4461 72.5C15.4576 72.5 15.469 72.5 15.4805 72.5C15.492 72.5 15.5035 72.5 15.5149 72.5C15.5264 72.5 15.5379 72.5 15.5494 72.5C15.5609 72.5 15.5723 72.5 15.5838 72.5C15.5953 72.5 15.6068 72.5 15.6183 72.5C15.6298 72.5 15.6413 72.5 15.6528 72.5C15.6644 72.5 15.6759 72.5 15.6874 72.5C15.6989 72.5 15.7104 72.5 15.722 72.5C15.7335 72.5 15.745 72.5 15.7566 72.5C15.7681 72.5 15.7796 72.5 15.7912 72.5C15.8027 72.5 15.8143 72.5 15.8258 72.5C15.8374 72.5 15.8489 72.5 15.8605 72.5C15.8721 72.5 15.8836 72.5 15.8952 72.5C15.9068 72.5 15.9184 72.5 15.93 72.5C15.9415 72.5 15.9531 72.5 15.9647 72.5C15.9763 72.5 15.9879 72.5 15.9995 72.5C16.0111 72.5 16.0227 72.5 16.0344 72.5C16.046 72.5 16.0576 72.5 16.0692 72.5C16.0808 72.5 16.0925 72.5 16.1041 72.5C16.1157 72.5 16.1274 72.5 16.139 72.5C16.1507 72.5 16.1623 72.5 16.174 72.5C16.1856 72.5 16.1973 72.5 16.209 72.5C16.2206 72.5 16.2323 72.5 16.244 72.5C16.2557 72.5 16.2674 72.5 16.2791 72.5C16.2907 72.5 16.3024 72.5 16.3141 72.5C16.3259 72.5 16.3376 72.5 16.3493 72.5C16.361 72.5 16.3727 72.5 16.3844 72.5C16.3962 72.5 16.4079 72.5 16.4196 72.5C16.4314 72.5 16.4431 72.5 16.4549 72.5C16.4666 72.5 16.4784 72.5 16.4901 72.5C16.5019 72.5 16.5137 72.5 16.5254 72.5C16.5372 72.5 16.549 72.5 16.5608 72.5C16.5726 72.5 16.5844 72.5 16.5962 72.5C16.608 72.5 16.6198 72.5 16.6316 72.5C16.6434 72.5 16.6552 72.5 16.6671 72.5C16.6789 72.5 16.6907 72.5 16.7026 72.5C16.7144 72.5 16.7262 72.5 16.7381 72.5C16.75 72.5 16.7618 72.5 16.7737 72.5C16.7855 72.5 16.7974 72.5 16.8093 72.5C16.8212 72.5 16.8331 72.5 16.845 72.5C16.8569 72.5 16.8688 72.5 16.8807 72.5C16.8926 72.5 16.9045 72.5 16.9164 72.5C16.9283 72.5 16.9403 72.5 16.9522 72.5C16.9641 72.5 16.9761 72.5 16.988 72.5C17 72.5 17.0119 72.5 17.0239 72.5C17.0359 72.5 17.0479 72.5 17.0598 72.5C17.0718 72.5 17.0838 72.5 17.0958 72.5C17.1078 72.5 17.1198 72.5 17.1318 72.5C17.1438 72.5 17.1558 72.5 17.1679 72.5C17.1799 72.5 17.1919 72.5 17.204 72.5C17.216 72.5 17.2281 72.5 17.2401 72.5C17.2522 72.5 17.2642 72.5 17.2763 72.5C17.2884 72.5 17.3005 72.5 17.3126 72.5C17.3246 72.5 17.3367 72.5 17.3488 72.5C17.3609 72.5 17.3731 72.5 17.3852 72.5C17.3973 72.5 17.4094 72.5 17.4216 72.5C17.4337 72.5 17.4459 72.5 17.458 72.5C17.4702 72.5 17.4823 72.5 17.4945 72.5C17.5067 72.5 17.5188 72.5 17.531 72.5C17.5432 72.5 17.5554 72.5 17.5676 72.5C17.5798 72.5 17.592 72.5 17.6043 72.5C17.6165 72.5 17.6287 72.5 17.6409 72.5C17.6532 72.5 17.6654 72.5 17.6777 72.5C17.6899 72.5 17.7022 72.5 17.7145 72.5C17.7268 72.5 17.739 72.5 17.7513 72.5C17.7636 72.5 17.7759 72.5 17.7882 72.5C17.8005 72.5 17.8129 72.5 17.8252 72.5C17.8375 72.5 17.8498 72.5 17.8622 72.5C17.8745 72.5 17.8869 72.5 17.8993 72.5C17.9116 72.5 17.924 72.5 17.9364 72.5C17.9488 72.5 17.9611 72.5 17.9735 72.5C17.9859 72.5 17.9984 72.5 18.0108 72.5C18.0232 72.5 18.0356 72.5 18.0481 72.5C18.0605 72.5 18.073 72.5 18.0854 72.5C18.0979 72.5 18.1103 72.5 18.1228 72.5C18.1353 72.5 18.1478 72.5 18.1603 72.5C18.1728 72.5 18.1853 72.5 18.1978 72.5C18.2103 72.5 18.2228 72.5 18.2354 72.5C18.2479 72.5 18.2604 72.5 18.273 72.5C18.2856 72.5 18.2981 72.5 18.3107 72.5C18.3233 72.5 18.3359 72.5 18.3485 72.5C18.3611 72.5 18.3737 72.5 18.3863 72.5C18.3989 72.5 18.4115 72.5 18.4242 72.5C18.4368 72.5 18.4494 72.5 18.4621 72.5C18.4747 72.5 18.4874 72.5 18.5001 72.5C18.5128 72.5 18.5255 72.5 18.5382 72.5C18.5509 72.5 18.5636 72.5 18.5763 72.5C18.589 72.5 18.6017 72.5 18.6145 72.5C18.6272 72.5 18.64 72.5 18.6527 72.5C18.6655 72.5 18.6783 72.5 18.6911 72.5C18.7038 72.5 18.7166 72.5 18.7294 72.5C18.7422 72.5 18.7551 72.5 18.7679 72.5C18.7807 72.5 18.7936 72.5 18.8064 72.5C18.8193 72.5 18.8321 72.5 18.845 72.5C18.8579 72.5 18.8707 72.5 18.8836 72.5C18.8965 72.5 18.9094 72.5 18.9224 72.5C18.9353 72.5 18.9482 72.5 18.9611 72.5C18.9741 72.5 18.987 72.5 19 72.5C19.013 72.5 19.0259 72.5 19.0389 72.5C19.0519 72.5 19.0649 72.5 19.0779 72.5C19.0909 72.5 19.1039 72.5 19.117 72.5C19.13 72.5 19.143 72.5 19.1561 72.5C19.1692 72.5 19.1822 72.5 19.1953 72.5C19.2084 72.5 19.2215 72.5 19.2346 72.5C19.2477 72.5 19.2608 72.5 19.2739 72.5C19.287 72.5 19.3002 72.5 19.3133 72.5C19.3265 72.5 19.3396 72.5 19.3528 72.5C19.366 72.5 19.3792 72.5 19.3924 72.5C19.4056 72.5 19.4188 72.5 19.432 72.5C19.4452 72.5 19.4585 72.5 19.4717 72.5C19.485 72.5 19.4982 72.5 19.5115 72.5C19.5248 72.5 19.5381 72.5 19.5514 72.5C19.5647 72.5 19.578 72.5 19.5913 72.5C19.6046 72.5 19.618 72.5 19.6313 72.5C19.6447 72.5 19.658 72.5 19.6714 72.5C19.6848 72.5 19.6981 72.5 19.7115 72.5C19.7249 72.5 19.7384 72.5 19.7518 72.5C19.7652 72.5 19.7786 72.5 19.7921 72.5C19.8056 72.5 19.819 72.5 19.8325 72.5C19.846 72.5 19.8595 72.5 19.873 72.5C19.8865 72.5 19.9 72.5 19.9135 72.5C19.927 72.5 19.9406 72.5 19.9541 72.5C19.9677 72.5 19.9813 72.5 19.9948 72.5C20.0084 72.5 20.022 72.5 20.0356 72.5C20.0492 72.5 20.0629 72.5 20.0765 72.5C20.0901 72.5 20.1038 72.5 20.1175 72.5C20.1311 72.5 20.1448 72.5 20.1585 72.5C20.1722 72.5 20.1859 72.5 20.1996 72.5C20.2133 72.5 20.2271 72.5 20.2408 72.5C20.2545 72.5 20.2683 72.5 20.2821 72.5C20.2959 72.5 20.3096 72.5 20.3234 72.5C20.3372 72.5 20.3511 72.5 20.3649 72.5C20.3787 72.5 20.3926 72.5 20.4064 72.5C20.4203 72.5 20.4342 72.5 20.448 72.5C20.4619 72.5 20.4758 72.5 20.4897 72.5C20.5037 72.5 20.5176 72.5 20.5315 72.5C20.5455 72.5 20.5594 72.5 20.5734 72.5C20.5874 72.5 20.6014 72.5 20.6154 72.5C20.6294 72.5 20.6434 72.5 20.6574 72.5C20.6714 72.5 20.6855 72.5 20.6996 72.5C20.7136 72.5 20.7277 72.5 20.7418 72.5C20.7559 72.5 20.77 72.5 20.7841 72.5C20.7982 72.5 20.8123 72.5 20.8265 72.5C20.8406 72.5 20.8548 72.5 20.869 72.5C20.8832 72.5 20.8974 72.5 20.9116 72.5C20.9258 72.5 20.94 72.5 20.9542 72.5C20.9685 72.5 20.9827 72.5 20.997 72.5C21.0113 72.5 21.0256 72.5 21.0399 72.5C21.0542 72.5 21.0685 72.5 21.0828 72.5C21.0971 72.5 21.1115 72.5 21.1258 72.5C21.1402 72.5 21.1546 72.5 21.169 72.5C21.1834 72.5 21.1978 72.5 21.2122 72.5C21.2266 72.5 21.2411 72.5 21.2555 72.5C21.27 72.5 21.2844 72.5 21.2989 72.5C21.3134 72.5 21.3279 72.5 21.3424 72.5C21.3569 72.5 21.3715 72.5 21.386 72.5C21.4006 72.5 21.4151 72.5 21.4297 72.5C21.4443 72.5 21.4589 72.5 21.4735 72.5C21.4881 72.5 21.5028 72.5 21.5174 72.5C21.532 72.5 21.5467 72.5 21.5614 72.5C21.5761 72.5 21.5908 72.5 21.6055 72.5C21.6202 72.5 21.6349 72.5 21.6497 72.5C21.6644 72.5 21.6792 72.5 21.6939 72.5C21.7087 72.5 21.7235 72.5 21.7383 72.5C21.7531 72.5 21.7679 72.5 21.7828 72.5C21.7976 72.5 21.8125 72.5 21.8274 72.5C21.8422 72.5 21.8571 72.5 21.872 72.5C21.887 72.5 21.9019 72.5 21.9168 72.5C21.9318 72.5 21.9467 72.5 21.9617 72.5C21.9767 72.5 21.9917 72.5 22.0067 72.5C22.0217 72.5 22.0367 72.5 22.0518 72.5C22.0668 72.5 22.0819 72.5 22.0969 72.5C22.112 72.5 22.1271 72.5 22.1422 72.5C22.1574 72.5 22.1725 72.5 22.1876 72.5C22.2028 72.5 22.2179 72.5 22.2331 72.5C22.2483 72.5 22.2635 72.5 22.2787 72.5C22.2939 72.5 22.3092 72.5 22.3244 72.5C22.3397 72.5 22.3549 72.5 22.3702 72.5C22.3855 72.5 22.4008 72.5 22.4162 72.5C22.4315 72.5 22.4468 72.5 22.4622 72.5C22.4775 72.5 22.4929 72.5 22.5083 72.5C22.5237 72.5 22.5391 72.5 22.5545 72.5C22.57 72.5 22.5854 72.5 22.6009 72.5C22.6163 72.5 22.6318 72.5 22.6473 72.5C22.6628 72.5 22.6784 72.5 22.6939 72.5C22.7094 72.5 22.725 72.5 22.7406 72.5C22.7561 72.5 22.7717 72.5 22.7873 72.5C22.8029 72.5 22.8186 72.5 22.8342 72.5C22.8499 72.5 22.8655 72.5 22.8812 72.5C22.8969 72.5 22.9126 72.5 22.9283 72.5C22.9441 72.5 22.9598 72.5 22.9756 72.5C22.9913 72.5 23.0071 72.5 23.0229 72.5C23.0387 72.5 23.0545 72.5 23.0703 72.5C23.0862 72.5 23.102 72.5 23.1179 72.5C23.1338 72.5 23.1496 72.5 23.1656 72.5C23.1815 72.5 23.1974 72.5 23.2133 72.5C23.2293 72.5 23.2452 72.5 23.2612 72.5C23.2772 72.5 23.2932 72.5 23.3092 72.5C23.3253 72.5 23.3413 72.5 23.3574 72.5C23.3734 72.5 23.3895 72.5 23.4056 72.5C23.4217 72.5 23.4378 72.5 23.454 72.5C23.4701 72.5 23.4863 72.5 23.5024 72.5C23.5186 72.5 23.5348 72.5 23.551 72.5C23.5673 72.5 23.5835 72.5 23.5997 72.5C23.616 72.5 23.6323 72.5 23.6486 72.5C23.6649 72.5 23.6812 72.5 23.6975 72.5C23.7139 72.5 23.7302 72.5 23.7466 72.5C23.763 72.5 23.7793 72.5 23.7958 72.5C23.8122 72.5 23.8286 72.5 23.8451 72.5C23.8615 72.5 23.878 72.5 23.8945 72.5C23.911 72.5 23.9275 72.5 23.944 72.5C23.9606 72.5 23.9771 72.5 23.9937 72.5C24.0103 72.5 24.0269 72.5 24.0435 72.5C24.0601 72.5 24.0767 72.5 24.0934 72.5C24.11 72.5 24.1267 72.5 24.1434 72.5C24.1601 72.5 24.1768 72.5 24.1936 72.5C24.2103 72.5 24.2271 72.5 24.2438 72.5C24.2606 72.5 24.2774 72.5 24.2942 72.5C24.3111 72.5 24.3279 72.5 24.3448 72.5C24.3616 72.5 24.3785 72.5 24.3954 72.5C24.4123 72.5 24.4292 72.5 24.4462 72.5C24.4631 72.5 24.4801 72.5 24.4971 72.5C24.5141 72.5 24.5311 72.5 24.5481 72.5C24.5651 72.5 24.5822 72.5 24.5993 72.5C24.6163 72.5 24.6334 72.5 24.6505 72.5C24.6677 72.5 24.6848 72.5 24.7019 72.5C24.7191 72.5 24.7363 72.5 24.7535 72.5C24.7707 72.5 24.7879 72.5 24.8051 72.5C24.8224 72.5 24.8396 72.5 24.8569 72.5C24.8742 72.5 24.8915 72.5 24.9089 72.5C24.9262 72.5 24.9435 72.5 24.9609 72.5C24.9783 72.5 24.9957 72.5 25.0131 72.5C25.0305 72.5 25.0479 72.5 25.0654 72.5C25.0829 72.5 25.1003 72.5 25.1178 72.5C25.1353 72.5 25.1529 72.5 25.1704 72.5C25.188 72.5 25.2055 72.5 25.2231 72.5C25.2407 72.5 25.2583 72.5 25.276 72.5C25.2936 72.5 25.3112 72.5 25.3289 72.5C25.3466 72.5 25.3643 72.5 25.382 72.5C25.3998 72.5 25.4175 72.5 25.4353 72.5C25.453 72.5 25.4708 72.5 25.4886 72.5C25.5065 72.5 25.5243 72.5 25.5422 72.5C25.56 72.5 25.5779 72.5 25.5958 72.5C25.6137 72.5 25.6316 72.5 25.6496 72.5C25.6675 72.5 25.6855 72.5 25.7035 72.5C25.7215 72.5 25.7395 72.5 25.7575 72.5C25.7756 72.5 25.7937 72.5 25.8117 72.5C25.8298 72.5 25.8479 72.5 25.8661 72.5C25.8842 72.5 25.9024 72.5 25.9205 72.5C25.9387 72.5 25.9569 72.5 25.9751 72.5C25.9934 72.5 26.0116 72.5 26.0299 72.5C26.0482 72.5 26.0664 72.5 26.0848 72.5C26.1031 72.5 26.1214 72.5 26.1398 72.5C26.1581 72.5 26.1765 72.5 26.1949 72.5C26.2134 72.5 26.2318 72.5 26.2503 72.5C26.2687 72.5 26.2872 72.5 26.3057 72.5C26.3242 72.5 26.3427 72.5 26.3613 72.5C26.3798 72.5 26.3984 72.5 26.417 72.5C26.4356 72.5 26.4542 72.5 26.4729 72.5C26.4915 72.5 26.5102 72.5 26.5289 72.5C26.5476 72.5 26.5663 72.5 26.5851 72.5C26.6038 72.5 26.6226 72.5 26.6414 72.5C26.6602 72.5 26.679 72.5 26.6978 72.5C26.7167 72.5 26.7355 72.5 26.7544 72.5C26.7733 72.5 26.7922 72.5 26.8111 72.5C26.8301 72.5 26.849 72.5 26.868 72.5C26.887 72.5 26.906 72.5 26.9251 72.5C26.9441 72.5 26.9632 72.5 26.9822 72.5C27.0013 72.5 27.0204 72.5 27.0396 72.5C27.0587 72.5 27.0779 72.5 27.097 72.5C27.1162 72.5 27.1354 72.5 27.1547 72.5C27.1739 72.5 27.1931 72.5 27.2124 72.5C27.2317 72.5 27.251 72.5 27.2703 72.5C27.2897 72.5 27.309 72.5 27.3284 72.5C27.3478 72.5 27.3672 72.5 27.3866 72.5C27.4061 72.5 27.4255 72.5 27.445 72.5C27.4645 72.5 27.484 72.5 27.5035 72.5C27.5231 72.5 27.5426 72.5 27.5622 72.5C27.5818 72.5 27.6014 72.5 27.621 72.5C27.6407 72.5 27.6603 72.5 27.68 72.5C27.6997 72.5 27.7194 72.5 27.7391 72.5C27.7589 72.5 27.7786 72.5 27.7984 72.5C27.8182 72.5 27.838 72.5 27.8579 72.5C27.8777 72.5 27.8976 72.5 27.9174 72.5C27.9373 72.5 27.9573 72.5 27.9772 72.5C27.9971 72.5 28.0171 72.5 28.0371 72.5C28.0571 72.5 28.0771 72.5 28.0972 72.5C28.1172 72.5 28.1373 72.5 28.1574 72.5C28.1775 72.5 28.1976 72.5 28.2177 72.5C28.2379 72.5 28.2581 72.5 28.2783 72.5C28.2985 72.5 28.3187 72.5 28.3389 72.5C28.3592 72.5 28.3795 72.5 28.3998 72.5C28.4201 72.5 28.4404 72.5 28.4608 72.5C28.4812 72.5 28.5015 72.5 28.522 72.5C28.5424 72.5 28.5628 72.5 28.5833 72.5C28.6037 72.5 28.6242 72.5 28.6448 72.5C28.6653 72.5 28.6858 72.5 28.7064 72.5C28.727 72.5 28.7476 72.5 28.7682 72.5C28.7888 72.5 28.8095 72.5 28.8302 72.5C28.8508 72.5 28.8715 72.5 28.8923 72.5C28.913 72.5 28.9338 72.5 28.9546 72.5C28.9754 72.5 28.9962 72.5 29.017 72.5C29.0379 72.5 29.0587 72.5 29.0796 72.5C29.1005 72.5 29.1215 72.5 29.1424 72.5C29.1634 72.5 29.1843 72.5 29.2053 72.5C29.2264 72.5 29.2474 72.5 29.2684 72.5C29.2895 72.5 29.3106 72.5 29.3317 72.5C29.3528 72.5 29.374 72.5 29.3952 72.5C29.4163 72.5 29.4375 72.5 29.4588 72.5C29.48 72.5 29.5012 72.5 29.5225 72.5C29.5438 72.5 29.5651 72.5 29.5865 72.5C29.6078 72.5 29.6292 72.5 29.6506 72.5C29.6719 72.5 29.6934 72.5 29.7148 72.5C29.7363 72.5 29.7578 72.5 29.7793 72.5C29.8008 72.5 29.8223 72.5 29.8439 72.5C29.8654 72.5 29.887 72.5 29.9086 72.5C29.9303 72.5 29.9519 72.5 29.9736 72.5C29.9953 72.5 30.017 72.5 30.0387 72.5C30.0604 72.5 30.0822 72.5 30.104 72.5C30.1258 72.5 30.1476 72.5 30.1694 72.5C30.1913 72.5 30.2132 72.5 30.2351 72.5C30.257 72.5 30.2789 72.5 30.3009 72.5C30.3228 72.5 30.3448 72.5 30.3668 72.5C30.3889 72.5 30.4109 72.5 30.433 72.5C30.4551 72.5 30.4772 72.5 30.4993 72.5C30.5214 72.5 30.5436 72.5 30.5658 72.5C30.588 72.5 30.6102 72.5 30.6325 72.5C30.6547 72.5 30.677 72.5 30.6993 72.5C30.7216 72.5 30.7439 72.5 30.7663 72.5C30.7887 72.5 30.8111 72.5 30.8335 72.5C30.8559 72.5 30.8784 72.5 30.9009 72.5C30.9234 72.5 30.9459 72.5 30.9684 72.5C30.991 72.5 31.0135 72.5 31.0361 72.5C31.0587 72.5 31.0814 72.5 31.104 72.5C31.1267 72.5 31.1494 72.5 31.1721 72.5C31.1948 72.5 31.2176 72.5 31.2404 72.5C31.2632 72.5 31.286 72.5 31.3088 72.5C31.3316 72.5 31.3545 72.5 31.3774 72.5C31.4003 72.5 31.4233 72.5 31.4462 72.5C31.4692 72.5 31.4922 72.5 31.5152 72.5C31.5382 72.5 31.5613 72.5 31.5843 72.5C31.6074 72.5 31.6305 72.5 31.6537 72.5C31.6768 72.5 31.7 72.5 31.7232 72.5C31.7464 72.5 31.7696 72.5 31.7929 72.5C31.8162 72.5 31.8394 72.5 31.8628 72.5C31.8861 72.5 31.9095 72.5 31.9328 72.5C31.9562 72.5 31.9796 72.5 32.0031 72.5C32.0265 72.5 32.05 72.5 32.0735 72.5C32.097 72.5 32.1206 72.5 32.1441 72.5C32.1677 72.5 32.1913 72.5 32.2149 72.5C32.2386 72.5 32.2622 72.5 32.2859 72.5C32.3096 72.5 32.3333 72.5 32.3571 72.5C32.3808 72.5 32.4046 72.5 32.4285 72.5C32.4523 72.5 32.4761 72.5 32.5 72.5V67.5C32.4761 67.5 32.4523 67.5 32.4285 67.5C32.4046 67.5 32.3808 67.5 32.3571 67.5C32.3333 67.5 32.3096 67.5 32.2859 67.5C32.2622 67.5 32.2386 67.5 32.2149 67.5C32.1913 67.5 32.1677 67.5 32.1441 67.5C32.1206 67.5 32.097 67.5 32.0735 67.5C32.05 67.5 32.0265 67.5 32.0031 67.5C31.9796 67.5 31.9562 67.5 31.9328 67.5C31.9095 67.5 31.8861 67.5 31.8628 67.5C31.8394 67.5 31.8162 67.5 31.7929 67.5C31.7696 67.5 31.7464 67.5 31.7232 67.5C31.7 67.5 31.6768 67.5 31.6537 67.5C31.6305 67.5 31.6074 67.5 31.5843 67.5C31.5613 67.5 31.5382 67.5 31.5152 67.5C31.4922 67.5 31.4692 67.5 31.4462 67.5C31.4233 67.5 31.4003 67.5 31.3774 67.5C31.3545 67.5 31.3316 67.5 31.3088 67.5C31.286 67.5 31.2632 67.5 31.2404 67.5C31.2176 67.5 31.1948 67.5 31.1721 67.5C31.1494 67.5 31.1267 67.5 31.104 67.5C31.0814 67.5 31.0587 67.5 31.0361 67.5C31.0135 67.5 30.991 67.5 30.9684 67.5C30.9459 67.5 30.9234 67.5 30.9009 67.5C30.8784 67.5 30.8559 67.5 30.8335 67.5C30.8111 67.5 30.7887 67.5 30.7663 67.5C30.7439 67.5 30.7216 67.5 30.6993 67.5C30.677 67.5 30.6547 67.5 30.6325 67.5C30.6102 67.5 30.588 67.5 30.5658 67.5C30.5436 67.5 30.5214 67.5 30.4993 67.5C30.4772 67.5 30.4551 67.5 30.433 67.5C30.4109 67.5 30.3889 67.5 30.3668 67.5C30.3448 67.5 30.3228 67.5 30.3009 67.5C30.2789 67.5 30.257 67.5 30.2351 67.5C30.2132 67.5 30.1913 67.5 30.1694 67.5C30.1476 67.5 30.1258 67.5 30.104 67.5C30.0822 67.5 30.0604 67.5 30.0387 67.5C30.017 67.5 29.9953 67.5 29.9736 67.5C29.9519 67.5 29.9303 67.5 29.9086 67.5C29.887 67.5 29.8654 67.5 29.8439 67.5C29.8223 67.5 29.8008 67.5 29.7793 67.5C29.7578 67.5 29.7363 67.5 29.7148 67.5C29.6934 67.5 29.6719 67.5 29.6506 67.5C29.6292 67.5 29.6078 67.5 29.5865 67.5C29.5651 67.5 29.5438 67.5 29.5225 67.5C29.5012 67.5 29.48 67.5 29.4588 67.5C29.4375 67.5 29.4163 67.5 29.3952 67.5C29.374 67.5 29.3528 67.5 29.3317 67.5C29.3106 67.5 29.2895 67.5 29.2684 67.5C29.2474 67.5 29.2264 67.5 29.2053 67.5C29.1843 67.5 29.1634 67.5 29.1424 67.5C29.1215 67.5 29.1005 67.5 29.0796 67.5C29.0587 67.5 29.0379 67.5 29.017 67.5C28.9962 67.5 28.9754 67.5 28.9546 67.5C28.9338 67.5 28.913 67.5 28.8923 67.5C28.8715 67.5 28.8508 67.5 28.8302 67.5C28.8095 67.5 28.7888 67.5 28.7682 67.5C28.7476 67.5 28.727 67.5 28.7064 67.5C28.6858 67.5 28.6653 67.5 28.6448 67.5C28.6242 67.5 28.6037 67.5 28.5833 67.5C28.5628 67.5 28.5424 67.5 28.522 67.5C28.5015 67.5 28.4812 67.5 28.4608 67.5C28.4404 67.5 28.4201 67.5 28.3998 67.5C28.3795 67.5 28.3592 67.5 28.3389 67.5C28.3187 67.5 28.2985 67.5 28.2783 67.5C28.2581 67.5 28.2379 67.5 28.2177 67.5C28.1976 67.5 28.1775 67.5 28.1574 67.5C28.1373 67.5 28.1172 67.5 28.0972 67.5C28.0771 67.5 28.0571 67.5 28.0371 67.5C28.0171 67.5 27.9971 67.5 27.9772 67.5C27.9573 67.5 27.9373 67.5 27.9174 67.5C27.8976 67.5 27.8777 67.5 27.8579 67.5C27.838 67.5 27.8182 67.5 27.7984 67.5C27.7786 67.5 27.7589 67.5 27.7391 67.5C27.7194 67.5 27.6997 67.5 27.68 67.5C27.6603 67.5 27.6407 67.5 27.621 67.5C27.6014 67.5 27.5818 67.5 27.5622 67.5C27.5426 67.5 27.5231 67.5 27.5035 67.5C27.484 67.5 27.4645 67.5 27.445 67.5C27.4255 67.5 27.4061 67.5 27.3866 67.5C27.3672 67.5 27.3478 67.5 27.3284 67.5C27.309 67.5 27.2897 67.5 27.2703 67.5C27.251 67.5 27.2317 67.5 27.2124 67.5C27.1931 67.5 27.1739 67.5 27.1547 67.5C27.1354 67.5 27.1162 67.5 27.097 67.5C27.0779 67.5 27.0587 67.5 27.0396 67.5C27.0204 67.5 27.0013 67.5 26.9822 67.5C26.9632 67.5 26.9441 67.5 26.9251 67.5C26.906 67.5 26.887 67.5 26.868 67.5C26.849 67.5 26.8301 67.5 26.8111 67.5C26.7922 67.5 26.7733 67.5 26.7544 67.5C26.7355 67.5 26.7167 67.5 26.6978 67.5C26.679 67.5 26.6602 67.5 26.6414 67.5C26.6226 67.5 26.6038 67.5 26.5851 67.5C26.5663 67.5 26.5476 67.5 26.5289 67.5C26.5102 67.5 26.4915 67.5 26.4729 67.5C26.4542 67.5 26.4356 67.5 26.417 67.5C26.3984 67.5 26.3798 67.5 26.3613 67.5C26.3427 67.5 26.3242 67.5 26.3057 67.5C26.2872 67.5 26.2687 67.5 26.2503 67.5C26.2318 67.5 26.2134 67.5 26.1949 67.5C26.1765 67.5 26.1581 67.5 26.1398 67.5C26.1214 67.5 26.1031 67.5 26.0848 67.5C26.0664 67.5 26.0482 67.5 26.0299 67.5C26.0116 67.5 25.9934 67.5 25.9751 67.5C25.9569 67.5 25.9387 67.5 25.9205 67.5C25.9024 67.5 25.8842 67.5 25.8661 67.5C25.8479 67.5 25.8298 67.5 25.8117 67.5C25.7937 67.5 25.7756 67.5 25.7575 67.5C25.7395 67.5 25.7215 67.5 25.7035 67.5C25.6855 67.5 25.6675 67.5 25.6496 67.5C25.6316 67.5 25.6137 67.5 25.5958 67.5C25.5779 67.5 25.56 67.5 25.5422 67.5C25.5243 67.5 25.5065 67.5 25.4886 67.5C25.4708 67.5 25.453 67.5 25.4353 67.5C25.4175 67.5 25.3998 67.5 25.382 67.5C25.3643 67.5 25.3466 67.5 25.3289 67.5C25.3112 67.5 25.2936 67.5 25.276 67.5C25.2583 67.5 25.2407 67.5 25.2231 67.5C25.2055 67.5 25.188 67.5 25.1704 67.5C25.1529 67.5 25.1353 67.5 25.1178 67.5C25.1003 67.5 25.0829 67.5 25.0654 67.5C25.0479 67.5 25.0305 67.5 25.0131 67.5C24.9957 67.5 24.9783 67.5 24.9609 67.5C24.9435 67.5 24.9262 67.5 24.9089 67.5C24.8915 67.5 24.8742 67.5 24.8569 67.5C24.8396 67.5 24.8224 67.5 24.8051 67.5C24.7879 67.5 24.7707 67.5 24.7535 67.5C24.7363 67.5 24.7191 67.5 24.7019 67.5C24.6848 67.5 24.6677 67.5 24.6505 67.5C24.6334 67.5 24.6163 67.5 24.5993 67.5C24.5822 67.5 24.5651 67.5 24.5481 67.5C24.5311 67.5 24.5141 67.5 24.4971 67.5C24.4801 67.5 24.4631 67.5 24.4462 67.5C24.4292 67.5 24.4123 67.5 24.3954 67.5C24.3785 67.5 24.3616 67.5 24.3448 67.5C24.3279 67.5 24.3111 67.5 24.2942 67.5C24.2774 67.5 24.2606 67.5 24.2438 67.5C24.2271 67.5 24.2103 67.5 24.1936 67.5C24.1768 67.5 24.1601 67.5 24.1434 67.5C24.1267 67.5 24.11 67.5 24.0934 67.5C24.0767 67.5 24.0601 67.5 24.0435 67.5C24.0269 67.5 24.0103 67.5 23.9937 67.5C23.9771 67.5 23.9606 67.5 23.944 67.5C23.9275 67.5 23.911 67.5 23.8945 67.5C23.878 67.5 23.8615 67.5 23.8451 67.5C23.8286 67.5 23.8122 67.5 23.7958 67.5C23.7793 67.5 23.763 67.5 23.7466 67.5C23.7302 67.5 23.7139 67.5 23.6975 67.5C23.6812 67.5 23.6649 67.5 23.6486 67.5C23.6323 67.5 23.616 67.5 23.5997 67.5C23.5835 67.5 23.5673 67.5 23.551 67.5C23.5348 67.5 23.5186 67.5 23.5024 67.5C23.4863 67.5 23.4701 67.5 23.454 67.5C23.4378 67.5 23.4217 67.5 23.4056 67.5C23.3895 67.5 23.3734 67.5 23.3574 67.5C23.3413 67.5 23.3253 67.5 23.3092 67.5C23.2932 67.5 23.2772 67.5 23.2612 67.5C23.2452 67.5 23.2293 67.5 23.2133 67.5C23.1974 67.5 23.1815 67.5 23.1656 67.5C23.1496 67.5 23.1338 67.5 23.1179 67.5C23.102 67.5 23.0862 67.5 23.0703 67.5C23.0545 67.5 23.0387 67.5 23.0229 67.5C23.0071 67.5 22.9913 67.5 22.9756 67.5C22.9598 67.5 22.9441 67.5 22.9283 67.5C22.9126 67.5 22.8969 67.5 22.8812 67.5C22.8655 67.5 22.8499 67.5 22.8342 67.5C22.8186 67.5 22.8029 67.5 22.7873 67.5C22.7717 67.5 22.7561 67.5 22.7406 67.5C22.725 67.5 22.7094 67.5 22.6939 67.5C22.6784 67.5 22.6628 67.5 22.6473 67.5C22.6318 67.5 22.6163 67.5 22.6009 67.5C22.5854 67.5 22.57 67.5 22.5545 67.5C22.5391 67.5 22.5237 67.5 22.5083 67.5C22.4929 67.5 22.4775 67.5 22.4622 67.5C22.4468 67.5 22.4315 67.5 22.4162 67.5C22.4008 67.5 22.3855 67.5 22.3702 67.5C22.3549 67.5 22.3397 67.5 22.3244 67.5C22.3092 67.5 22.2939 67.5 22.2787 67.5C22.2635 67.5 22.2483 67.5 22.2331 67.5C22.2179 67.5 22.2028 67.5 22.1876 67.5C22.1725 67.5 22.1574 67.5 22.1422 67.5C22.1271 67.5 22.112 67.5 22.0969 67.5C22.0819 67.5 22.0668 67.5 22.0518 67.5C22.0367 67.5 22.0217 67.5 22.0067 67.5C21.9917 67.5 21.9767 67.5 21.9617 67.5C21.9467 67.5 21.9318 67.5 21.9168 67.5C21.9019 67.5 21.887 67.5 21.872 67.5C21.8571 67.5 21.8422 67.5 21.8274 67.5C21.8125 67.5 21.7976 67.5 21.7828 67.5C21.7679 67.5 21.7531 67.5 21.7383 67.5C21.7235 67.5 21.7087 67.5 21.6939 67.5C21.6792 67.5 21.6644 67.5 21.6497 67.5C21.6349 67.5 21.6202 67.5 21.6055 67.5C21.5908 67.5 21.5761 67.5 21.5614 67.5C21.5467 67.5 21.532 67.5 21.5174 67.5C21.5028 67.5 21.4881 67.5 21.4735 67.5C21.4589 67.5 21.4443 67.5 21.4297 67.5C21.4151 67.5 21.4006 67.5 21.386 67.5C21.3715 67.5 21.3569 67.5 21.3424 67.5C21.3279 67.5 21.3134 67.5 21.2989 67.5C21.2844 67.5 21.27 67.5 21.2555 67.5C21.2411 67.5 21.2266 67.5 21.2122 67.5C21.1978 67.5 21.1834 67.5 21.169 67.5C21.1546 67.5 21.1402 67.5 21.1258 67.5C21.1115 67.5 21.0971 67.5 21.0828 67.5C21.0685 67.5 21.0542 67.5 21.0399 67.5C21.0256 67.5 21.0113 67.5 20.997 67.5C20.9827 67.5 20.9685 67.5 20.9542 67.5C20.94 67.5 20.9258 67.5 20.9116 67.5C20.8974 67.5 20.8832 67.5 20.869 67.5C20.8548 67.5 20.8406 67.5 20.8265 67.5C20.8123 67.5 20.7982 67.5 20.7841 67.5C20.77 67.5 20.7559 67.5 20.7418 67.5C20.7277 67.5 20.7136 67.5 20.6996 67.5C20.6855 67.5 20.6714 67.5 20.6574 67.5C20.6434 67.5 20.6294 67.5 20.6154 67.5C20.6014 67.5 20.5874 67.5 20.5734 67.5C20.5594 67.5 20.5455 67.5 20.5315 67.5C20.5176 67.5 20.5037 67.5 20.4897 67.5C20.4758 67.5 20.4619 67.5 20.448 67.5C20.4342 67.5 20.4203 67.5 20.4064 67.5C20.3926 67.5 20.3787 67.5 20.3649 67.5C20.3511 67.5 20.3372 67.5 20.3234 67.5C20.3096 67.5 20.2959 67.5 20.2821 67.5C20.2683 67.5 20.2545 67.5 20.2408 67.5C20.2271 67.5 20.2133 67.5 20.1996 67.5C20.1859 67.5 20.1722 67.5 20.1585 67.5C20.1448 67.5 20.1311 67.5 20.1175 67.5C20.1038 67.5 20.0901 67.5 20.0765 67.5C20.0629 67.5 20.0492 67.5 20.0356 67.5C20.022 67.5 20.0084 67.5 19.9948 67.5C19.9813 67.5 19.9677 67.5 19.9541 67.5C19.9406 67.5 19.927 67.5 19.9135 67.5C19.9 67.5 19.8865 67.5 19.873 67.5C19.8595 67.5 19.846 67.5 19.8325 67.5C19.819 67.5 19.8056 67.5 19.7921 67.5C19.7786 67.5 19.7652 67.5 19.7518 67.5C19.7384 67.5 19.7249 67.5 19.7115 67.5C19.6981 67.5 19.6848 67.5 19.6714 67.5C19.658 67.5 19.6447 67.5 19.6313 67.5C19.618 67.5 19.6046 67.5 19.5913 67.5C19.578 67.5 19.5647 67.5 19.5514 67.5C19.5381 67.5 19.5248 67.5 19.5115 67.5C19.4982 67.5 19.485 67.5 19.4717 67.5C19.4585 67.5 19.4452 67.5 19.432 67.5C19.4188 67.5 19.4056 67.5 19.3924 67.5C19.3792 67.5 19.366 67.5 19.3528 67.5C19.3396 67.5 19.3265 67.5 19.3133 67.5C19.3002 67.5 19.287 67.5 19.2739 67.5C19.2608 67.5 19.2477 67.5 19.2346 67.5C19.2215 67.5 19.2084 67.5 19.1953 67.5C19.1822 67.5 19.1692 67.5 19.1561 67.5C19.143 67.5 19.13 67.5 19.117 67.5C19.1039 67.5 19.0909 67.5 19.0779 67.5C19.0649 67.5 19.0519 67.5 19.0389 67.5C19.0259 67.5 19.013 67.5 19 67.5C18.987 67.5 18.9741 67.5 18.9611 67.5C18.9482 67.5 18.9353 67.5 18.9224 67.5C18.9094 67.5 18.8965 67.5 18.8836 67.5C18.8707 67.5 18.8579 67.5 18.845 67.5C18.8321 67.5 18.8193 67.5 18.8064 67.5C18.7936 67.5 18.7807 67.5 18.7679 67.5C18.7551 67.5 18.7422 67.5 18.7294 67.5C18.7166 67.5 18.7038 67.5 18.6911 67.5C18.6783 67.5 18.6655 67.5 18.6527 67.5C18.64 67.5 18.6272 67.5 18.6145 67.5C18.6017 67.5 18.589 67.5 18.5763 67.5C18.5636 67.5 18.5509 67.5 18.5382 67.5C18.5255 67.5 18.5128 67.5 18.5001 67.5C18.4874 67.5 18.4747 67.5 18.4621 67.5C18.4494 67.5 18.4368 67.5 18.4242 67.5C18.4115 67.5 18.3989 67.5 18.3863 67.5C18.3737 67.5 18.3611 67.5 18.3485 67.5C18.3359 67.5 18.3233 67.5 18.3107 67.5C18.2981 67.5 18.2856 67.5 18.273 67.5C18.2604 67.5 18.2479 67.5 18.2354 67.5C18.2228 67.5 18.2103 67.5 18.1978 67.5C18.1853 67.5 18.1728 67.5 18.1603 67.5C18.1478 67.5 18.1353 67.5 18.1228 67.5C18.1103 67.5 18.0979 67.5 18.0854 67.5C18.073 67.5 18.0605 67.5 18.0481 67.5C18.0356 67.5 18.0232 67.5 18.0108 67.5C17.9984 67.5 17.9859 67.5 17.9735 67.5C17.9611 67.5 17.9488 67.5 17.9364 67.5C17.924 67.5 17.9116 67.5 17.8993 67.5C17.8869 67.5 17.8745 67.5 17.8622 67.5C17.8498 67.5 17.8375 67.5 17.8252 67.5C17.8129 67.5 17.8005 67.5 17.7882 67.5C17.7759 67.5 17.7636 67.5 17.7513 67.5C17.739 67.5 17.7268 67.5 17.7145 67.5C17.7022 67.5 17.6899 67.5 17.6777 67.5C17.6654 67.5 17.6532 67.5 17.6409 67.5C17.6287 67.5 17.6165 67.5 17.6043 67.5C17.592 67.5 17.5798 67.5 17.5676 67.5C17.5554 67.5 17.5432 67.5 17.531 67.5C17.5188 67.5 17.5067 67.5 17.4945 67.5C17.4823 67.5 17.4702 67.5 17.458 67.5C17.4459 67.5 17.4337 67.5 17.4216 67.5C17.4094 67.5 17.3973 67.5 17.3852 67.5C17.3731 67.5 17.3609 67.5 17.3488 67.5C17.3367 67.5 17.3246 67.5 17.3126 67.5C17.3005 67.5 17.2884 67.5 17.2763 67.5C17.2642 67.5 17.2522 67.5 17.2401 67.5C17.2281 67.5 17.216 67.5 17.204 67.5C17.1919 67.5 17.1799 67.5 17.1679 67.5C17.1558 67.5 17.1438 67.5 17.1318 67.5C17.1198 67.5 17.1078 67.5 17.0958 67.5C17.0838 67.5 17.0718 67.5 17.0598 67.5C17.0479 67.5 17.0359 67.5 17.0239 67.5C17.0119 67.5 17 67.5 16.988 67.5C16.9761 67.5 16.9641 67.5 16.9522 67.5C16.9403 67.5 16.9283 67.5 16.9164 67.5C16.9045 67.5 16.8926 67.5 16.8807 67.5C16.8688 67.5 16.8569 67.5 16.845 67.5C16.8331 67.5 16.8212 67.5 16.8093 67.5C16.7974 67.5 16.7855 67.5 16.7737 67.5C16.7618 67.5 16.75 67.5 16.7381 67.5C16.7262 67.5 16.7144 67.5 16.7026 67.5C16.6907 67.5 16.6789 67.5 16.6671 67.5C16.6552 67.5 16.6434 67.5 16.6316 67.5C16.6198 67.5 16.608 67.5 16.5962 67.5C16.5844 67.5 16.5726 67.5 16.5608 67.5C16.549 67.5 16.5372 67.5 16.5254 67.5C16.5137 67.5 16.5019 67.5 16.4901 67.5C16.4784 67.5 16.4666 67.5 16.4549 67.5C16.4431 67.5 16.4314 67.5 16.4196 67.5C16.4079 67.5 16.3962 67.5 16.3844 67.5C16.3727 67.5 16.361 67.5 16.3493 67.5C16.3376 67.5 16.3259 67.5 16.3141 67.5C16.3024 67.5 16.2907 67.5 16.2791 67.5C16.2674 67.5 16.2557 67.5 16.244 67.5C16.2323 67.5 16.2206 67.5 16.209 67.5C16.1973 67.5 16.1856 67.5 16.174 67.5C16.1623 67.5 16.1507 67.5 16.139 67.5C16.1274 67.5 16.1157 67.5 16.1041 67.5C16.0925 67.5 16.0808 67.5 16.0692 67.5C16.0576 67.5 16.046 67.5 16.0344 67.5C16.0227 67.5 16.0111 67.5 15.9995 67.5C15.9879 67.5 15.9763 67.5 15.9647 67.5C15.9531 67.5 15.9415 67.5 15.93 67.5C15.9184 67.5 15.9068 67.5 15.8952 67.5C15.8836 67.5 15.8721 67.5 15.8605 67.5C15.8489 67.5 15.8374 67.5 15.8258 67.5C15.8143 67.5 15.8027 67.5 15.7912 67.5C15.7796 67.5 15.7681 67.5 15.7566 67.5C15.745 67.5 15.7335 67.5 15.722 67.5C15.7104 67.5 15.6989 67.5 15.6874 67.5C15.6759 67.5 15.6644 67.5 15.6528 67.5C15.6413 67.5 15.6298 67.5 15.6183 67.5C15.6068 67.5 15.5953 67.5 15.5838 67.5C15.5723 67.5 15.5609 67.5 15.5494 67.5C15.5379 67.5 15.5264 67.5 15.5149 67.5C15.5035 67.5 15.492 67.5 15.4805 67.5C15.469 67.5 15.4576 67.5 15.4461 67.5C15.4347 67.5 15.4232 67.5 15.4117 67.5C15.4003 67.5 15.3888 67.5 15.3774 67.5C15.366 67.5 15.3545 67.5 15.3431 67.5C15.3316 67.5 15.3202 67.5 15.3088 67.5C15.2973 67.5 15.2859 67.5 15.2745 67.5C15.2631 67.5 15.2516 67.5 15.2402 67.5C15.2288 67.5 15.2174 67.5 15.206 67.5C15.1946 67.5 15.1832 67.5 15.1718 67.5C15.1604 67.5 15.149 67.5 15.1376 67.5C15.1262 67.5 15.1148 67.5 15.1034 67.5C15.092 67.5 15.0806 67.5 15.0692 67.5C15.0578 67.5 15.0465 67.5 15.0351 67.5C15.0237 67.5 15.0123 67.5 15.001 67.5C14.9896 67.5 14.9782 67.5 14.9668 67.5C14.9555 67.5 14.9441 67.5 14.9327 67.5C14.9214 67.5 14.91 67.5 14.8987 67.5C14.8873 67.5 14.876 67.5 14.8646 67.5C14.8533 67.5 14.8419 67.5 14.8306 67.5C14.8192 67.5 14.8079 67.5 14.7965 67.5C14.7852 67.5 14.7739 67.5 14.7625 67.5C14.7512 67.5 14.7398 67.5 14.7285 67.5C14.7172 67.5 14.7059 67.5 14.6945 67.5C14.6832 67.5 14.6719 67.5 14.6606 67.5C14.6492 67.5 14.6379 67.5 14.6266 67.5C14.6153 67.5 14.604 67.5 14.5926 67.5C14.5813 67.5 14.57 67.5 14.5587 67.5C14.5474 67.5 14.5361 67.5 14.5248 67.5C14.5135 67.5 14.5022 67.5 14.4909 67.5C14.4796 67.5 14.4683 67.5 14.457 67.5C14.4457 67.5 14.4344 67.5 14.4231 67.5C14.4118 67.5 14.4005 67.5 14.3892 67.5C14.3779 67.5 14.3666 67.5 14.3553 67.5C14.344 67.5 14.3327 67.5 14.3214 67.5C14.3101 67.5 14.2988 67.5 14.2876 67.5C14.2763 67.5 14.265 67.5 14.2537 67.5C14.2424 67.5 14.2311 67.5 14.2199 67.5C14.2086 67.5 14.1973 67.5 14.186 67.5C14.1747 67.5 14.1635 67.5 14.1522 67.5C14.1409 67.5 14.1296 67.5 14.1184 67.5C14.1071 67.5 14.0958 67.5 14.0845 67.5C14.0733 67.5 14.062 67.5 14.0507 67.5C14.0394 67.5 14.0282 67.5 14.0169 67.5C14.0056 67.5 13.9944 67.5 13.9831 67.5C13.9718 67.5 13.9605 67.5 13.9493 67.5C13.938 67.5 13.9267 67.5 13.9155 67.5C13.9042 67.5 13.8929 67.5 13.8817 67.5C13.8704 67.5 13.8591 67.5 13.8479 67.5C13.8366 67.5 13.8253 67.5 13.8141 67.5C13.8028 67.5 13.7915 67.5 13.7803 67.5C13.769 67.5 13.7577 67.5 13.7465 67.5C13.7352 67.5 13.7239 67.5 13.7127 67.5C13.7014 67.5 13.6902 67.5 13.6789 67.5C13.6676 67.5 13.6564 67.5 13.6451 67.5C13.6338 67.5 13.6226 67.5 13.6113 67.5C13.6 67.5 13.5888 67.5 13.5775 67.5C13.5662 67.5 13.555 67.5 13.5437 67.5C13.5324 67.5 13.5211 67.5 13.5099 67.5C13.4986 67.5 13.4873 67.5 13.4761 67.5C13.4648 67.5 13.4535 67.5 13.4423 67.5C13.431 67.5 13.4197 67.5 13.4084 67.5C13.3972 67.5 13.3859 67.5 13.3746 67.5C13.3633 67.5 13.3521 67.5 13.3408 67.5C13.3295 67.5 13.3182 67.5 13.307 67.5C13.2957 67.5 13.2844 67.5 13.2731 67.5C13.2618 67.5 13.2506 67.5 13.2393 67.5C13.228 67.5 13.2167 67.5 13.2054 67.5C13.1942 67.5 13.1829 67.5 13.1716 67.5C13.1603 67.5 13.149 67.5 13.1377 67.5C13.1264 67.5 13.1151 67.5 13.1038 67.5C13.0925 67.5 13.0813 67.5 13.07 67.5C13.0587 67.5 13.0474 67.5 13.0361 67.5C13.0248 67.5 13.0135 67.5 13.0022 67.5C12.9909 67.5 12.9796 67.5 12.9683 67.5C12.9569 67.5 12.9456 67.5 12.9343 67.5C12.923 67.5 12.9117 67.5 12.9004 67.5C12.8891 67.5 12.8778 67.5 12.8665 67.5C12.8551 67.5 12.8438 67.5 12.8325 67.5C12.8212 67.5 12.8099 67.5 12.7985 67.5C12.7872 67.5 12.7759 67.5 12.7646 67.5C12.7532 67.5 12.7419 67.5 12.7306 67.5C12.7192 67.5 12.7079 67.5 12.6966 67.5C12.6852 67.5 12.6739 67.5 12.6625 67.5C12.6512 67.5 12.6398 67.5 12.6285 67.5C12.6171 67.5 12.6058 67.5 12.5944 67.5C12.5831 67.5 12.5717 67.5 12.5604 67.5C12.549 67.5 12.5377 67.5 12.5263 67.5C12.5149 67.5 12.5036 67.5 12.4922 67.5C12.4808 67.5 12.4694 67.5 12.4581 67.5C12.4467 67.5 12.4353 67.5 12.4239 67.5C12.4126 67.5 12.4012 67.5 12.3898 67.5C12.3784 67.5 12.367 67.5 12.3556 67.5C12.3442 67.5 12.3328 67.5 12.3214 67.5C12.31 67.5 12.2986 67.5 12.2872 67.5C12.2758 67.5 12.2644 67.5 12.253 67.5C12.2416 67.5 12.2302 67.5 12.2187 67.5C12.2073 67.5 12.1959 67.5 12.1845 67.5C12.173 67.5 12.1616 67.5 12.1502 67.5C12.1387 67.5 12.1273 67.5 12.1159 67.5C12.1044 67.5 12.093 67.5 12.0815 67.5C12.0701 67.5 12.0586 67.5 12.0472 67.5C12.0357 67.5 12.0243 67.5 12.0128 67.5C12.0013 67.5 11.9899 67.5 11.9784 67.5C11.9669 67.5 11.9554 67.5 11.944 67.5C11.9325 67.5 11.921 67.5 11.9095 67.5C11.898 67.5 11.8865 67.5 11.875 67.5C11.8635 67.5 11.852 67.5 11.8405 67.5C11.829 67.5 11.8175 67.5 11.806 67.5C11.7945 67.5 11.783 67.5 11.7714 67.5C11.7599 67.5 11.7484 67.5 11.7369 67.5C11.7253 67.5 11.7138 67.5 11.7023 67.5C11.6907 67.5 11.6792 67.5 11.6676 67.5C11.6561 67.5 11.6445 67.5 11.633 67.5C11.6214 67.5 11.6098 67.5 11.5983 67.5C11.5867 67.5 11.5751 67.5 11.5635 67.5C11.552 67.5 11.5404 67.5 11.5288 67.5C11.5172 67.5 11.5056 67.5 11.494 67.5C11.4824 67.5 11.4708 67.5 11.4592 67.5C11.4476 67.5 11.436 67.5 11.4244 67.5C11.4127 67.5 11.4011 67.5 11.3895 67.5C11.3778 67.5 11.3662 67.5 11.3546 67.5C11.3429 67.5 11.3313 67.5 11.3196 67.5C11.308 67.5 11.2963 67.5 11.2847 67.5C11.273 67.5 11.2613 67.5 11.2497 67.5C11.238 67.5 11.2263 67.5 11.2146 67.5C11.2029 67.5 11.1912 67.5 11.1796 67.5C11.1679 67.5 11.1562 67.5 11.1444 67.5C11.1327 67.5 11.121 67.5 11.1093 67.5C11.0976 67.5 11.0859 67.5 11.0741 67.5C11.0624 67.5 11.0507 67.5 11.0389 67.5C11.0272 67.5 11.0154 67.5 11.0037 67.5C10.9919 67.5 10.9801 67.5 10.9684 67.5C10.9566 67.5 10.9448 67.5 10.9331 67.5C10.9213 67.5 10.9095 67.5 10.8977 67.5C10.8859 67.5 10.8741 67.5 10.8623 67.5C10.8505 67.5 10.8387 67.5 10.8269 67.5C10.815 67.5 10.8032 67.5 10.7914 67.5C10.7795 67.5 10.7677 67.5 10.7559 67.5C10.744 67.5 10.7322 67.5 10.7203 67.5C10.7084 67.5 10.6966 67.5 10.6847 67.5C10.6728 67.5 10.6609 67.5 10.6491 67.5C10.6372 67.5 10.6253 67.5 10.6134 67.5C10.6015 67.5 10.5896 67.5 10.5777 67.5C10.5657 67.5 10.5538 67.5 10.5419 67.5C10.53 67.5 10.518 67.5 10.5061 67.5C10.4941 67.5 10.4822 67.5 10.4702 67.5C10.4583 67.5 10.4463 67.5 10.4343 67.5C10.4224 67.5 10.4104 67.5 10.3984 67.5C10.3864 67.5 10.3744 67.5 10.3624 67.5C10.3504 67.5 10.3384 67.5 10.3264 67.5C10.3144 67.5 10.3023 67.5 10.2903 67.5C10.2783 67.5 10.2662 67.5 10.2542 67.5C10.2421 67.5 10.2301 67.5 10.218 67.5C10.206 67.5 10.1939 67.5 10.1818 67.5C10.1697 67.5 10.1576 67.5 10.1455 67.5C10.1334 67.5 10.1213 67.5 10.1092 67.5C10.0971 67.5 10.085 67.5 10.0729 67.5C10.0607 67.5 10.0486 67.5 10.0365 67.5C10.0243 67.5 10.0122 67.5 10 67.5V72.5ZM32.5 72.5C48.3773 72.5 65 60.2705 65 40H60C60 57.088 46.0566 67.5 32.5 67.5V72.5ZM65 40C65 19.7866 49.5712 7.5 32.5 7.5V12.5C47.1269 12.5 60 22.8549 60 40H65ZM32.5 7.5C23.0366 7.5 17.3125 7.5 10 7.5L10 12.5C17.3125 12.5 23.0366 12.5 32.5 12.5V7.5Z" fill="#333333"/>
<circle cx="66.25" cy="40" r="3.75" stroke="#333333" stroke-width="5"/>
</g>
<defs>
<filter id="filter0_d" x="0" y="0" width="80" height="84" filterUnits="userSpaceOnUse" color-interpolation-filters="sRGB">
<feFlood flood-opacity="0" result="BackgroundImageFix"/>
<feColorMatrix in="SourceAlpha" type="matrix" values="0 0 0 0 0 0 0 0 0 0 0 0 0 0 0 0 0 0 127 0" result="hardAlpha"/>
<feOffset dy="4"/>
<feColorMatrix type="matrix" values="0 0 0 0 0 0 0 0 0 0 0 0 0 0 0 0 0 0 0.25 0"/>
<feBlend mode="normal" in2="BackgroundImageFix" result="effect1_dropShadow"/>
<feBlend mode="normal" in="SourceGraphic" in2="effect1_dropShadow" result="shape"/>
</filter>
</defs>
</svg>
