<svg width="80" height="84" viewBox="0 0 80 84" fill="none" xmlns="http://www.w3.org/2000/svg">
<g filter="url(#filter0_d)">
<rect id="BG" width="80" height="80" rx="10" fill="#F2F2F2"/>
<path d="M10 10C15.5987 19.1884 22.8205 26 22.8205 40C22.8205 54 10 70 10 70" stroke="#333333" stroke-width="5" stroke-linecap="round" stroke-linejoin="round"/>
<path d="M22.3077 10L22.3077 7.5C21.4039 7.5 20.5706 7.98774 20.128 8.77569C19.6854 9.56363 19.7025 10.5291 20.1728 11.3008L22.3077 10ZM22.3077 70L20.2645 68.5593C19.7264 69.3224 19.6585 70.3218 20.0883 71.1507C20.518 71.9797 21.3739 72.5 22.3077 72.5V70ZM22.3077 72.5C22.3202 72.5 22.3326 72.5 22.3449 72.5C22.3573 72.5 22.3696 72.5 22.3818 72.5C22.394 72.5 22.4062 72.5 22.4183 72.5C22.4304 72.5 22.4424 72.5 22.4544 72.5C22.4664 72.5 22.4783 72.5 22.4902 72.5C22.5021 72.5 22.5139 72.5 22.5256 72.5C22.5374 72.5 22.5491 72.5 22.5607 72.5C22.5723 72.5 22.5839 72.5 22.5954 72.5C22.6069 72.5 22.6184 72.5 22.6297 72.5C22.6411 72.5 22.6525 72.5 22.6637 72.5C22.675 72.5 22.6862 72.5 22.6974 72.5C22.7085 72.5 22.7196 72.5 22.7307 72.5C22.7417 72.5 22.7527 72.5 22.7636 72.5C22.7746 72.5 22.7854 72.5 22.7962 72.5C22.8071 72.5 22.8178 72.5 22.8285 72.5C22.8392 72.5 22.8498 72.5 22.8604 72.5C22.871 72.5 22.8815 72.5 22.892 72.5C22.9025 72.5 22.9129 72.5 22.9232 72.5C22.9336 72.5 22.9439 72.5 22.9541 72.5C22.9644 72.5 22.9746 72.5 22.9847 72.5C22.9948 72.5 23.0049 72.5 23.0149 72.5C23.025 72.5 23.0349 72.5 23.0448 72.5C23.0548 72.5 23.0646 72.5 23.0744 72.5C23.0842 72.5 23.094 72.5 23.1037 72.5C23.1134 72.5 23.123 72.5 23.1326 72.5C23.1422 72.5 23.1517 72.5 23.1612 72.5C23.1706 72.5 23.1801 72.5 23.1894 72.5C23.1988 72.5 23.2081 72.5 23.2174 72.5C23.2266 72.5 23.2358 72.5 23.245 72.5C23.2542 72.5 23.2633 72.5 23.2723 72.5C23.2814 72.5 23.2904 72.5 23.2993 72.5C23.3082 72.5 23.3171 72.5 23.326 72.5C23.3348 72.5 23.3436 72.5 23.3523 72.5C23.3611 72.5 23.3697 72.5 23.3784 72.5C23.387 72.5 23.3956 72.5 23.4041 72.5C23.4126 72.5 23.4211 72.5 23.4295 72.5C23.438 72.5 23.4463 72.5 23.4547 72.5C23.463 72.5 23.4713 72.5 23.4795 72.5C23.4877 72.5 23.4959 72.5 23.504 72.5C23.5121 72.5 23.5202 72.5 23.5282 72.5C23.5362 72.5 23.5442 72.5 23.5521 72.5C23.5601 72.5 23.5679 72.5 23.5758 72.5C23.5836 72.5 23.5914 72.5 23.5991 72.5C23.6068 72.5 23.6145 72.5 23.6221 72.5C23.6297 72.5 23.6373 72.5 23.6448 72.5C23.6524 72.5 23.6599 72.5 23.6673 72.5C23.6747 72.5 23.6821 72.5 23.6894 72.5C23.6968 72.5 23.7041 72.5 23.7113 72.5C23.7186 72.5 23.7257 72.5 23.7329 72.5C23.74 72.5 23.7471 72.5 23.7542 72.5C23.7612 72.5 23.7682 72.5 23.7752 72.5C23.7822 72.5 23.7891 72.5 23.7959 72.5C23.8028 72.5 23.8096 72.5 23.8164 72.5C23.8232 72.5 23.8299 72.5 23.8366 72.5C23.8433 72.5 23.8499 72.5 23.8565 72.5C23.8631 72.5 23.8696 72.5 23.8761 72.5C23.8826 72.5 23.8891 72.5 23.8955 72.5C23.9019 72.5 23.9082 72.5 23.9145 72.5C23.9209 72.5 23.9271 72.5 23.9334 72.5C23.9396 72.5 23.9458 72.5 23.9519 72.5C23.9581 72.5 23.9641 72.5 23.9702 72.5C23.9763 72.5 23.9823 72.5 23.9882 72.5C23.9942 72.5 24.0001 72.5 24.006 72.5C24.0119 72.5 24.0177 72.5 24.0235 72.5C24.0293 72.5 24.035 72.5 24.0407 72.5C24.0464 72.5 24.0521 72.5 24.0577 72.5C24.0633 72.5 24.0689 72.5 24.0744 72.5C24.08 72.5 24.0855 72.5 24.0909 72.5C24.0964 72.5 24.1018 72.5 24.1071 72.5C24.1125 72.5 24.1178 72.5 24.1231 72.5C24.1284 72.5 24.1336 72.5 24.1388 72.5C24.144 72.5 24.1492 72.5 24.1543 72.5C24.1594 72.5 24.1645 72.5 24.1695 72.5C24.1746 72.5 24.1796 72.5 24.1845 72.5C24.1895 72.5 24.1944 72.5 24.1993 72.5C24.2042 72.5 24.209 72.5 24.2138 72.5C24.2186 72.5 24.2234 72.5 24.2281 72.5C24.2328 72.5 24.2375 72.5 24.2421 72.5C24.2468 72.5 24.2514 72.5 24.2559 72.5C24.2605 72.5 24.265 72.5 24.2695 72.5C24.274 72.5 24.2784 72.5 24.2828 72.5C24.2872 72.5 24.2916 72.5 24.2959 72.5C24.3003 72.5 24.3046 72.5 24.3088 72.5C24.3131 72.5 24.3173 72.5 24.3215 72.5C24.3257 72.5 24.3298 72.5 24.3339 72.5C24.338 72.5 24.3421 72.5 24.3461 72.5C24.3501 72.5 24.3541 72.5 24.3581 72.5C24.3621 72.5 24.366 72.5 24.3699 72.5C24.3738 72.5 24.3776 72.5 24.3814 72.5C24.3852 72.5 24.389 72.5 24.3928 72.5C24.3965 72.5 24.4002 72.5 24.4039 72.5C24.4076 72.5 24.4112 72.5 24.4148 72.5C24.4184 72.5 24.422 72.5 24.4255 72.5C24.429 72.5 24.4325 72.5 24.436 72.5C24.4394 72.5 24.4429 72.5 24.4463 72.5C24.4497 72.5 24.453 72.5 24.4563 72.5C24.4597 72.5 24.463 72.5 24.4662 72.5C24.4695 72.5 24.4727 72.5 24.4759 72.5C24.4791 72.5 24.4822 72.5 24.4854 72.5C24.4885 72.5 24.4916 72.5 24.4946 72.5C24.4977 72.5 24.5007 72.5 24.5037 72.5C24.5067 72.5 24.5097 72.5 24.5126 72.5C24.5155 72.5 24.5184 72.5 24.5213 72.5C24.5242 72.5 24.527 72.5 24.5298 72.5C24.5326 72.5 24.5354 72.5 24.5381 72.5C24.5408 72.5 24.5435 72.5 24.5462 72.5C24.5489 72.5 24.5515 72.5 24.5541 72.5C24.5568 72.5 24.5593 72.5 24.5619 72.5C24.5644 72.5 24.567 72.5 24.5695 72.5C24.5719 72.5 24.5744 72.5 24.5768 72.5C24.5793 72.5 24.5817 72.5 24.584 72.5C24.5864 72.5 24.5888 72.5 24.5911 72.5C24.5934 72.5 24.5957 72.5 24.5979 72.5C24.6002 72.5 24.6024 72.5 24.6046 72.5C24.6068 72.5 24.609 72.5 24.6111 72.5C24.6132 72.5 24.6153 72.5 24.6174 72.5C24.6195 72.5 24.6216 72.5 24.6236 72.5C24.6256 72.5 24.6276 72.5 24.6296 72.5C24.6316 72.5 24.6335 72.5 24.6354 72.5C24.6373 72.5 24.6392 72.5 24.6411 72.5C24.6429 72.5 24.6448 72.5 24.6466 72.5C24.6484 72.5 24.6502 72.5 24.6519 72.5C24.6537 72.5 24.6554 72.5 24.6571 72.5C24.6588 72.5 24.6605 72.5 24.6621 72.5C24.6638 72.5 24.6654 72.5 24.667 72.5C24.6686 72.5 24.6702 72.5 24.6717 72.5C24.6733 72.5 24.6748 72.5 24.6763 72.5C24.6778 72.5 24.6792 72.5 24.6807 72.5C24.6821 72.5 24.6835 72.5 24.6849 72.5C24.6863 72.5 24.6877 72.5 24.6891 72.5C24.6904 72.5 24.6917 72.5 24.693 72.5C24.6943 72.5 24.6956 72.5 24.6969 72.5C24.6981 72.5 24.6993 72.5 24.7005 72.5C24.7017 72.5 24.7029 72.5 24.7041 72.5C24.7052 72.5 24.7064 72.5 24.7075 72.5C24.7086 72.5 24.7097 72.5 24.7108 72.5C24.7118 72.5 24.7129 72.5 24.7139 72.5C24.7149 72.5 24.7159 72.5 24.7169 72.5C24.7179 72.5 24.7188 72.5 24.7198 72.5C24.7207 72.5 24.7216 72.5 24.7225 72.5C24.7234 72.5 24.7243 72.5 24.7251 72.5C24.726 72.5 24.7268 72.5 24.7276 72.5C24.7284 72.5 24.7292 72.5 24.73 72.5C24.7307 72.5 24.7315 72.5 24.7322 72.5C24.7329 72.5 24.7336 72.5 24.7343 72.5C24.735 72.5 24.7357 72.5 24.7363 72.5C24.737 72.5 24.7376 72.5 24.7382 72.5C24.7388 72.5 24.7394 72.5 24.7399 72.5C24.7405 72.5 24.7411 72.5 24.7416 72.5C24.7421 72.5 24.7426 72.5 24.7431 72.5C24.7436 72.5 24.7441 72.5 24.7445 72.5C24.745 72.5 24.7454 72.5 24.7459 72.5C24.7463 72.5 24.7467 72.5 24.7471 72.5C24.7474 72.5 24.7478 72.5 24.7482 72.5C24.7485 72.5 24.7488 72.5 24.7492 72.5C24.7495 72.5 24.7498 72.5 24.75 72.5C24.7503 72.5 24.7506 72.5 24.7508 72.5C24.7511 72.5 24.7513 72.5 24.7515 72.5C24.7517 72.5 24.7519 72.5 24.7521 72.5C24.7523 72.5 24.7525 72.5 24.7526 72.5C24.7528 72.5 24.7529 72.5 24.753 72.5C24.7532 72.5 24.7533 72.5 24.7533 72.5C24.7534 72.5 24.7535 72.5 24.7536 72.5C24.7536 72.5 24.7537 72.5 24.7537 72.5C24.7537 72.5 24.7537 72.5 24.7537 72.5C24.7537 70 24.7537 67.5 24.7537 67.5C24.7537 67.5 24.7536 67.5 24.7536 67.5C24.7535 67.5 24.7535 67.5 24.7534 67.5C24.7533 67.5 24.7532 67.5 24.7531 67.5C24.753 67.5 24.7529 67.5 24.7527 67.5C24.7526 67.5 24.7524 67.5 24.7523 67.5C24.7521 67.5 24.752 67.5 24.7518 67.5C24.7516 67.5 24.7514 67.5 24.7512 67.5C24.751 67.5 24.7508 67.5 24.7505 67.5C24.7503 67.5 24.75 67.5 24.7498 67.5C24.7495 67.5 24.7493 67.5 24.749 67.5C24.7487 67.5 24.7484 67.5 24.7481 67.5C24.7478 67.5 24.7475 67.5 24.7472 67.5C24.7469 67.5 24.7465 67.5 24.7462 67.5C24.7459 67.5 24.7455 67.5 24.7451 67.5C24.7448 67.5 24.7444 67.5 24.744 67.5C24.7436 67.5 24.7433 67.5 24.7429 67.5C24.7425 67.5 24.742 67.5 24.7416 67.5C24.7412 67.5 24.7408 67.5 24.7403 67.5C24.7399 67.5 24.7395 67.5 24.739 67.5C24.7385 67.5 24.7381 67.5 24.7376 67.5C24.7371 67.5 24.7367 67.5 24.7362 67.5C24.7357 67.5 24.7352 67.5 24.7347 67.5C24.7342 67.5 24.7337 67.5 24.7332 67.5C24.7326 67.5 24.7321 67.5 24.7316 67.5C24.7311 67.5 24.7305 67.5 24.73 67.5C24.7294 67.5 24.7289 67.5 24.7283 67.5C24.7277 67.5 24.7272 67.5 24.7266 67.5C24.726 67.5 24.7255 67.5 24.7249 67.5C24.7243 67.5 24.7237 67.5 24.7231 67.5C24.7225 67.5 24.7219 67.5 24.7213 67.5C24.7207 67.5 24.7201 67.5 24.7195 67.5C24.7188 67.5 24.7182 67.5 24.7176 67.5C24.717 67.5 24.7163 67.5 24.7157 67.5C24.715 67.5 24.7144 67.5 24.7138 67.5C24.7131 67.5 24.7125 67.5 24.7118 67.5C24.7112 67.5 24.7105 67.5 24.7098 67.5C24.7092 67.5 24.7085 67.5 24.7078 67.5C24.7072 67.5 24.7065 67.5 24.7058 67.5C24.7051 67.5 24.7045 67.5 24.7038 67.5C24.7031 67.5 24.7024 67.5 24.7017 67.5C24.701 67.5 24.7004 67.5 24.6997 67.5C24.699 67.5 24.6983 67.5 24.6976 67.5C24.6969 67.5 24.6962 67.5 24.6955 67.5C24.6948 67.5 24.6941 67.5 24.6934 67.5C24.6927 67.5 24.692 67.5 24.6913 67.5C24.6906 67.5 24.6899 67.5 24.6892 67.5C24.6885 67.5 24.6877 67.5 24.687 67.5C24.6863 67.5 24.6856 67.5 24.6849 67.5C24.6842 67.5 24.6835 67.5 24.6828 67.5C24.6821 67.5 24.6814 67.5 24.6807 67.5C24.6799 67.5 24.6792 67.5 24.6785 67.5C24.6778 67.5 24.6771 67.5 24.6764 67.5C24.6757 67.5 24.675 67.5 24.6743 67.5C24.6736 67.5 24.6729 67.5 24.6722 67.5C24.6715 67.5 24.6708 67.5 24.6701 67.5C24.6694 67.5 24.6687 67.5 24.668 67.5C24.6673 67.5 24.6666 67.5 24.6659 67.5C24.6652 67.5 24.6645 67.5 24.6638 67.5C24.6632 67.5 24.6625 67.5 24.6618 67.5C24.6611 67.5 24.6604 67.5 24.6598 67.5C24.6591 67.5 24.6584 67.5 24.6578 67.5C24.6571 67.5 24.6564 67.5 24.6558 67.5C24.6551 67.5 24.6544 67.5 24.6538 67.5C24.6531 67.5 24.6525 67.5 24.6518 67.5C24.6512 67.5 24.6506 67.5 24.6499 67.5C24.6493 67.5 24.6487 67.5 24.648 67.5C24.6474 67.5 24.6468 67.5 24.6462 67.5C24.6456 67.5 24.6449 67.5 24.6443 67.5C24.6437 67.5 24.6431 67.5 24.6425 67.5C24.6419 67.5 24.6414 67.5 24.6408 67.5C24.6402 67.5 24.6396 67.5 24.639 67.5C24.6385 67.5 24.6379 67.5 24.6374 67.5C24.6368 67.5 24.6363 67.5 24.6357 67.5C24.6352 67.5 24.6346 67.5 24.6341 67.5C24.6336 67.5 24.633 67.5 24.6325 67.5C24.632 67.5 24.6315 67.5 24.631 67.5C24.6305 67.5 24.63 67.5 24.6295 67.5C24.6291 67.5 24.6286 67.5 24.6281 67.5C24.6276 67.5 24.6272 67.5 24.6267 67.5C24.6263 67.5 24.6258 67.5 24.6254 67.5C24.625 67.5 24.6246 67.5 24.6241 67.5C24.6237 67.5 24.6233 67.5 24.6229 67.5C24.6225 67.5 24.6221 67.5 24.6218 67.5C24.6214 67.5 24.621 67.5 24.6207 67.5C24.6203 67.5 24.62 67.5 24.6196 67.5C24.6193 67.5 24.619 67.5 24.6186 67.5C24.6183 67.5 24.618 67.5 24.6177 67.5C24.6174 67.5 24.6171 67.5 24.6169 67.5C24.6166 67.5 24.6163 67.5 24.6161 67.5C24.6158 67.5 24.6156 67.5 24.6154 67.5C24.6151 67.5 24.6149 67.5 24.6147 67.5C24.6145 67.5 24.6143 67.5 24.6142 67.5C24.614 67.5 24.6138 67.5 24.6137 67.5C24.6135 67.5 24.6134 67.5 24.6132 67.5C24.6131 67.5 24.613 67.5 24.6129 67.5C24.6128 67.5 24.6127 67.5 24.6126 67.5C24.6125 67.5 24.6125 67.5 24.6124 67.5C24.6124 67.5 24.6123 67.5 24.6123 67.5C24.6123 67.5 24.6123 70 24.6123 72.5C24.6123 72.5 24.6123 72.5 24.6124 72.5C24.6124 72.5 24.6125 72.5 24.6125 72.5C24.6126 72.5 24.6127 72.5 24.6128 72.5C24.6129 72.5 24.613 72.5 24.6131 72.5C24.6132 72.5 24.6134 72.5 24.6135 72.5C24.6137 72.5 24.6139 72.5 24.6141 72.5C24.6142 72.5 24.6144 72.5 24.6147 72.5C24.6149 72.5 24.6151 72.5 24.6154 72.5C24.6156 72.5 24.6159 72.5 24.6162 72.5C24.6165 72.5 24.6168 72.5 24.6171 72.5C24.6174 72.5 24.6178 72.5 24.6181 72.5C24.6185 72.5 24.6189 72.5 24.6193 72.5C24.6196 72.5 24.6201 72.5 24.6205 72.5C24.6209 72.5 24.6214 72.5 24.6218 72.5C24.6223 72.5 24.6228 72.5 24.6233 72.5C24.6238 72.5 24.6243 72.5 24.6248 72.5C24.6254 72.5 24.6259 72.5 24.6265 72.5C24.6271 72.5 24.6277 72.5 24.6283 72.5C24.6289 72.5 24.6295 72.5 24.6302 72.5C24.6308 72.5 24.6315 72.5 24.6322 72.5C24.6329 72.5 24.6336 72.5 24.6344 72.5C24.6351 72.5 24.6358 72.5 24.6366 72.5C24.6374 72.5 24.6382 72.5 24.639 72.5C24.6398 72.5 24.6407 72.5 24.6415 72.5C24.6424 72.5 24.6433 72.5 24.6442 72.5C24.6451 72.5 24.646 72.5 24.6469 72.5C24.6479 72.5 24.6488 72.5 24.6498 72.5C24.6508 72.5 24.6518 72.5 24.6529 72.5C24.6539 72.5 24.655 72.5 24.656 72.5C24.6571 72.5 24.6582 72.5 24.6593 72.5C24.6605 72.5 24.6616 72.5 24.6628 72.5C24.6639 72.5 24.6651 72.5 24.6663 72.5C24.6676 72.5 24.6688 72.5 24.6701 72.5C24.6713 72.5 24.6726 72.5 24.6739 72.5C24.6752 72.5 24.6766 72.5 24.6779 72.5C24.6793 72.5 24.6807 72.5 24.6821 72.5C24.6835 72.5 24.6849 72.5 24.6864 72.5C24.6878 72.5 24.6893 72.5 24.6908 72.5C24.6923 72.5 24.6939 72.5 24.6954 72.5C24.697 72.5 24.6986 72.5 24.7002 72.5C24.7018 72.5 24.7034 72.5 24.7051 72.5C24.7067 72.5 24.7084 72.5 24.7101 72.5C24.7118 72.5 24.7136 72.5 24.7153 72.5C24.7171 72.5 24.7189 72.5 24.7207 72.5C24.7225 72.5 24.7244 72.5 24.7263 72.5C24.7281 72.5 24.73 72.5 24.732 72.5C24.7339 72.5 24.7358 72.5 24.7378 72.5C24.7398 72.5 24.7418 72.5 24.7439 72.5C24.7459 72.5 24.748 72.5 24.7501 72.5C24.7522 72.5 24.7543 72.5 24.7564 72.5C24.7586 72.5 24.7608 72.5 24.763 72.5C24.7652 72.5 24.7674 72.5 24.7697 72.5C24.772 72.5 24.7743 72.5 24.7766 72.5C24.7789 72.5 24.7813 72.5 24.7837 72.5C24.786 72.5 24.7885 72.5 24.7909 72.5C24.7933 72.5 24.7958 72.5 24.7983 72.5C24.8008 72.5 24.8034 72.5 24.8059 72.5C24.8085 72.5 24.8111 72.5 24.8137 72.5C24.8163 72.5 24.819 72.5 24.8217 72.5C24.8244 72.5 24.8271 72.5 24.8299 72.5C24.8326 72.5 24.8354 72.5 24.8382 72.5C24.841 72.5 24.8439 72.5 24.8467 72.5C24.8496 72.5 24.8525 72.5 24.8555 72.5C24.8584 72.5 24.8614 72.5 24.8644 72.5C24.8674 72.5 24.8705 72.5 24.8735 72.5C24.8766 72.5 24.8797 72.5 24.8829 72.5C24.886 72.5 24.8892 72.5 24.8924 72.5C24.8956 72.5 24.8988 72.5 24.9021 72.5C24.9054 72.5 24.9087 72.5 24.912 72.5C24.9154 72.5 24.9187 72.5 24.9221 72.5C24.9255 72.5 24.929 72.5 24.9325 72.5C24.9359 72.5 24.9395 72.5 24.943 72.5C24.9466 72.5 24.9501 72.5 24.9538 72.5C24.9574 72.5 24.961 72.5 24.9647 72.5C24.9684 72.5 24.9721 72.5 24.9759 72.5C24.9796 72.5 24.9834 72.5 24.9873 72.5C24.9911 72.5 24.995 72.5 24.9989 72.5C25.0028 72.5 25.0067 72.5 25.0107 72.5C25.0147 72.5 25.0187 72.5 25.0227 72.5C25.0268 72.5 25.0309 72.5 25.035 72.5C25.0391 72.5 25.0433 72.5 25.0475 72.5C25.0517 72.5 25.0559 72.5 25.0602 72.5C25.0645 72.5 25.0688 72.5 25.0731 72.5C25.0775 72.5 25.0819 72.5 25.0863 72.5C25.0907 72.5 25.0952 72.5 25.0997 72.5C25.1042 72.5 25.1087 72.5 25.1133 72.5C25.1179 72.5 25.1225 72.5 25.1272 72.5C25.1318 72.5 25.1365 72.5 25.1412 72.5C25.146 72.5 25.1508 72.5 25.1556 72.5C25.1604 72.5 25.1652 72.5 25.1701 72.5C25.175 72.5 25.18 72.5 25.1849 72.5C25.1899 72.5 25.1949 72.5 25.2 72.5C25.205 72.5 25.2101 72.5 25.2153 72.5C25.2204 72.5 25.2256 72.5 25.2308 72.5C25.236 72.5 25.2413 72.5 25.2466 72.5C25.2519 72.5 25.2572 72.5 25.2626 72.5C25.268 72.5 25.2734 72.5 25.2789 72.5C25.2844 72.5 25.2899 72.5 25.2954 72.5C25.301 72.5 25.3066 72.5 25.3122 72.5C25.3179 72.5 25.3236 72.5 25.3293 72.5C25.335 72.5 25.3408 72.5 25.3466 72.5C25.3524 72.5 25.3582 72.5 25.3641 72.5C25.37 72.5 25.376 72.5 25.382 72.5C25.3879 72.5 25.394 72.5 25.4 72.5C25.4061 72.5 25.4122 72.5 25.4184 72.5C25.4245 72.5 25.4307 72.5 25.437 72.5C25.4432 72.5 25.4495 72.5 25.4559 72.5C25.4622 72.5 25.4686 72.5 25.475 72.5C25.4815 72.5 25.4879 72.5 25.4944 72.5C25.501 72.5 25.5075 72.5 25.5141 72.5C25.5207 72.5 25.5274 72.5 25.5341 72.5C25.5408 72.5 25.5475 72.5 25.5543 72.5C25.5611 72.5 25.568 72.5 25.5749 72.5C25.5817 72.5 25.5887 72.5 25.5957 72.5C25.6026 72.5 25.6097 72.5 25.6167 72.5C25.6238 72.5 25.6309 72.5 25.6381 72.5C25.6453 72.5 25.6525 72.5 25.6597 72.5C25.667 72.5 25.6743 72.5 25.6817 72.5C25.689 72.5 25.6964 72.5 25.7039 72.5C25.7114 72.5 25.7189 72.5 25.7264 72.5C25.734 72.5 25.7416 72.5 25.7492 72.5C25.7569 72.5 25.7646 72.5 25.7723 72.5C25.7801 72.5 25.7879 72.5 25.7957 72.5C25.8035 72.5 25.8114 72.5 25.8194 72.5C25.8273 72.5 25.8353 72.5 25.8434 72.5C25.8514 72.5 25.8595 72.5 25.8677 72.5C25.8758 72.5 25.884 72.5 25.8922 72.5C25.9005 72.5 25.9088 72.5 25.9171 72.5C25.9255 72.5 25.9339 72.5 25.9423 72.5C25.9508 72.5 25.9593 72.5 25.9678 72.5C25.9764 72.5 25.985 72.5 25.9936 72.5C26.0023 72.5 26.011 72.5 26.0198 72.5C26.0285 72.5 26.0373 72.5 26.0462 72.5C26.0551 72.5 26.064 72.5 26.0729 72.5C26.0819 72.5 26.0909 72.5 26.1 72.5C26.1091 72.5 26.1182 72.5 26.1274 72.5C26.1366 72.5 26.1458 72.5 26.1551 72.5C26.1644 72.5 26.1737 72.5 26.1831 72.5C26.1925 72.5 26.2019 72.5 26.2114 72.5C26.2209 72.5 26.2305 72.5 26.2401 72.5C26.2497 72.5 26.2594 72.5 26.2691 72.5C26.2788 72.5 26.2886 72.5 26.2984 72.5C26.3082 72.5 26.3181 72.5 26.3281 72.5C26.338 72.5 26.348 72.5 26.358 72.5C26.3681 72.5 26.3782 72.5 26.3883 72.5C26.3985 72.5 26.4087 72.5 26.419 72.5C26.4293 72.5 26.4396 72.5 26.45 72.5C26.4604 72.5 26.4708 72.5 26.4813 72.5C26.4918 72.5 26.5023 72.5 26.5129 72.5C26.5236 72.5 26.5342 72.5 26.5449 72.5C26.5557 72.5 26.5664 72.5 26.5773 72.5C26.5881 72.5 26.599 72.5 26.61 72.5C26.6209 72.5 26.6319 72.5 26.643 72.5C26.6541 72.5 26.6652 72.5 26.6764 72.5C26.6876 72.5 26.6988 72.5 26.7101 72.5C26.7214 72.5 26.7328 72.5 26.7442 72.5C26.7556 72.5 26.7671 72.5 26.7786 72.5C26.7902 72.5 26.8018 72.5 26.8134 72.5C26.8251 72.5 26.8368 72.5 26.8486 72.5C26.8603 72.5 26.8722 72.5 26.8841 72.5C26.8959 72.5 26.9079 72.5 26.9199 72.5C26.9319 72.5 26.944 72.5 26.9561 72.5C26.9683 72.5 26.9805 72.5 26.9927 72.5C27.005 72.5 27.0173 72.5 27.0297 72.5C27.0421 72.5 27.0545 72.5 27.067 72.5C27.0795 72.5 27.0921 72.5 27.1047 72.5C27.1173 72.5 27.13 72.5 27.1427 72.5C27.1555 72.5 27.1683 72.5 27.1812 72.5C27.194 72.5 27.207 72.5 27.22 72.5C27.233 72.5 27.246 72.5 27.2592 72.5C27.2723 72.5 27.2855 72.5 27.2987 72.5C27.312 72.5 27.3253 72.5 27.3386 72.5C27.352 72.5 27.3655 72.5 27.379 72.5C27.3925 72.5 27.406 72.5 27.4197 72.5C27.4333 72.5 27.447 72.5 27.4607 72.5C27.4745 72.5 27.4883 72.5 27.5022 72.5C27.5161 72.5 27.53 72.5 27.5441 72.5C27.5581 72.5 27.5722 72.5 27.5863 72.5C27.6004 72.5 27.6147 72.5 27.6289 72.5C27.6432 72.5 27.6576 72.5 27.672 72.5C27.6864 72.5 27.7008 72.5 27.7154 72.5C27.7299 72.5 27.7445 72.5 27.7592 72.5C27.7739 72.5 27.7886 72.5 27.8034 72.5C27.8182 72.5 27.8331 72.5 27.848 72.5C27.863 72.5 27.878 72.5 27.893 72.5C27.9081 72.5 27.9233 72.5 27.9385 72.5C27.9537 72.5 27.9689 72.5 27.9843 72.5C27.9996 72.5 28.015 72.5 28.0305 72.5C28.046 72.5 28.0615 72.5 28.0771 72.5C28.0928 72.5 28.1084 72.5 28.1242 72.5C28.1399 72.5 28.1558 72.5 28.1716 72.5C28.1875 72.5 28.2035 72.5 28.2195 72.5C28.2355 72.5 28.2516 72.5 28.2678 72.5C28.284 72.5 28.3002 72.5 28.3165 72.5C28.3328 72.5 28.3492 72.5 28.3656 72.5C28.3821 72.5 28.3986 72.5 28.4152 72.5C28.4317 72.5 28.4484 72.5 28.4651 72.5C28.4818 72.5 28.4986 72.5 28.5155 72.5C28.5324 72.5 28.5493 72.5 28.5663 72.5C28.5833 72.5 28.6004 72.5 28.6175 72.5C28.6347 72.5 28.6519 72.5 28.6692 72.5C28.6865 72.5 28.7039 72.5 28.7213 72.5C28.7387 72.5 28.7562 72.5 28.7738 72.5C28.7914 72.5 28.8091 72.5 28.8268 72.5C28.8445 72.5 28.8623 72.5 28.8802 72.5C28.898 72.5 28.916 72.5 28.934 72.5C28.952 72.5 28.9701 72.5 28.9883 72.5C29.0064 72.5 29.0247 72.5 29.043 72.5C29.0613 72.5 29.0797 72.5 29.0981 72.5C29.1166 72.5 29.1351 72.5 29.1537 72.5C29.1723 72.5 29.191 72.5 29.2098 72.5C29.2285 72.5 29.2474 72.5 29.2663 72.5C29.2852 72.5 29.3041 72.5 29.3232 72.5C29.3423 72.5 29.3614 72.5 29.3806 72.5C29.3998 72.5 29.4191 72.5 29.4384 72.5C29.4578 72.5 29.4772 72.5 29.4967 72.5C29.5162 72.5 29.5358 72.5 29.5555 72.5C29.5751 72.5 29.5949 72.5 29.6147 72.5C29.6345 72.5 29.6544 72.5 29.6743 72.5C29.6943 72.5 29.7144 72.5 29.7345 72.5C29.7546 72.5 29.7748 72.5 29.7951 72.5C29.8153 72.5 29.8357 72.5 29.8561 72.5C29.8766 72.5 29.8971 72.5 29.9176 72.5C29.9382 72.5 29.9589 72.5 29.9796 72.5C30.0004 72.5 30.0212 72.5 30.0421 72.5C30.063 72.5 30.084 72.5 30.105 72.5C30.1261 72.5 30.1472 72.5 30.1684 72.5C30.1896 72.5 30.2109 72.5 30.2323 72.5C30.2537 72.5 30.2751 72.5 30.2967 72.5C30.3182 72.5 30.3398 72.5 30.3615 72.5C30.3832 72.5 30.405 72.5 30.4268 72.5C30.4487 72.5 30.4706 72.5 30.4926 72.5C30.5146 72.5 30.5367 72.5 30.5589 72.5C30.581 72.5 30.6033 72.5 30.6256 72.5C30.648 72.5 30.6704 72.5 30.6929 72.5C30.7154 72.5 30.738 72.5 30.7606 72.5C30.7833 72.5 30.806 72.5 30.8288 72.5C30.8517 72.5 30.8746 72.5 30.8976 72.5C30.9206 72.5 30.9436 72.5 30.9668 72.5C30.9899 72.5 31.0132 72.5 31.0365 72.5C31.0598 72.5 31.0832 72.5 31.1067 72.5C31.1302 72.5 31.1537 72.5 31.1774 72.5C31.201 72.5 31.2248 72.5 31.2486 72.5C31.2724 72.5 31.2963 72.5 31.3203 72.5C31.3443 72.5 31.3684 72.5 31.3925 72.5C31.4167 72.5 31.4409 72.5 31.4652 72.5C31.4895 72.5 31.514 72.5 31.5384 72.5V67.5C31.514 67.5 31.4895 67.5 31.4652 67.5C31.4409 67.5 31.4167 67.5 31.3925 67.5C31.3684 67.5 31.3443 67.5 31.3203 67.5C31.2963 67.5 31.2724 67.5 31.2486 67.5C31.2248 67.5 31.201 67.5 31.1774 67.5C31.1537 67.5 31.1302 67.5 31.1067 67.5C31.0832 67.5 31.0598 67.5 31.0365 67.5C31.0132 67.5 30.9899 67.5 30.9668 67.5C30.9436 67.5 30.9206 67.5 30.8976 67.5C30.8746 67.5 30.8517 67.5 30.8288 67.5C30.806 67.5 30.7833 67.5 30.7606 67.5C30.738 67.5 30.7154 67.5 30.6929 67.5C30.6704 67.5 30.648 67.5 30.6256 67.5C30.6033 67.5 30.581 67.5 30.5589 67.5C30.5367 67.5 30.5146 67.5 30.4926 67.5C30.4706 67.5 30.4487 67.5 30.4268 67.5C30.405 67.5 30.3832 67.5 30.3615 67.5C30.3398 67.5 30.3182 67.5 30.2967 67.5C30.2751 67.5 30.2537 67.5 30.2323 67.5C30.2109 67.5 30.1896 67.5 30.1684 67.5C30.1472 67.5 30.1261 67.5 30.105 67.5C30.084 67.5 30.063 67.5 30.0421 67.5C30.0212 67.5 30.0004 67.5 29.9796 67.5C29.9589 67.5 29.9382 67.5 29.9176 67.5C29.8971 67.5 29.8766 67.5 29.8561 67.5C29.8357 67.5 29.8153 67.5 29.7951 67.5C29.7748 67.5 29.7546 67.5 29.7345 67.5C29.7144 67.5 29.6943 67.5 29.6743 67.5C29.6544 67.5 29.6345 67.5 29.6147 67.5C29.5949 67.5 29.5751 67.5 29.5555 67.5C29.5358 67.5 29.5162 67.5 29.4967 67.5C29.4772 67.5 29.4578 67.5 29.4384 67.5C29.4191 67.5 29.3998 67.5 29.3806 67.5C29.3614 67.5 29.3423 67.5 29.3232 67.5C29.3041 67.5 29.2852 67.5 29.2663 67.5C29.2474 67.5 29.2285 67.5 29.2098 67.5C29.191 67.5 29.1723 67.5 29.1537 67.5C29.1351 67.5 29.1166 67.5 29.0981 67.5C29.0797 67.5 29.0613 67.5 29.043 67.5C29.0247 67.5 29.0064 67.5 28.9883 67.5C28.9701 67.5 28.952 67.5 28.934 67.5C28.916 67.5 28.898 67.5 28.8802 67.5C28.8623 67.5 28.8445 67.5 28.8268 67.5C28.8091 67.5 28.7914 67.5 28.7738 67.5C28.7562 67.5 28.7387 67.5 28.7213 67.5C28.7039 67.5 28.6865 67.5 28.6692 67.5C28.6519 67.5 28.6347 67.5 28.6175 67.5C28.6004 67.5 28.5833 67.5 28.5663 67.5C28.5493 67.5 28.5324 67.5 28.5155 67.5C28.4986 67.5 28.4818 67.5 28.4651 67.5C28.4484 67.5 28.4317 67.5 28.4152 67.5C28.3986 67.5 28.3821 67.5 28.3656 67.5C28.3492 67.5 28.3328 67.5 28.3165 67.5C28.3002 67.5 28.284 67.5 28.2678 67.5C28.2516 67.5 28.2355 67.5 28.2195 67.5C28.2035 67.5 28.1875 67.5 28.1716 67.5C28.1558 67.5 28.1399 67.5 28.1242 67.5C28.1084 67.5 28.0928 67.5 28.0771 67.5C28.0615 67.5 28.046 67.5 28.0305 67.5C28.015 67.5 27.9996 67.5 27.9843 67.5C27.9689 67.5 27.9537 67.5 27.9385 67.5C27.9233 67.5 27.9081 67.5 27.893 67.5C27.878 67.5 27.863 67.5 27.848 67.5C27.8331 67.5 27.8182 67.5 27.8034 67.5C27.7886 67.5 27.7739 67.5 27.7592 67.5C27.7445 67.5 27.7299 67.5 27.7154 67.5C27.7008 67.5 27.6864 67.5 27.672 67.5C27.6576 67.5 27.6432 67.5 27.6289 67.5C27.6147 67.5 27.6004 67.5 27.5863 67.5C27.5722 67.5 27.5581 67.5 27.5441 67.5C27.53 67.5 27.5161 67.5 27.5022 67.5C27.4883 67.5 27.4745 67.5 27.4607 67.5C27.447 67.5 27.4333 67.5 27.4197 67.5C27.406 67.5 27.3925 67.5 27.379 67.5C27.3655 67.5 27.352 67.5 27.3386 67.5C27.3253 67.5 27.312 67.5 27.2987 67.5C27.2855 67.5 27.2723 67.5 27.2592 67.5C27.246 67.5 27.233 67.5 27.22 67.5C27.207 67.5 27.194 67.5 27.1812 67.5C27.1683 67.5 27.1555 67.5 27.1427 67.5C27.13 67.5 27.1173 67.5 27.1047 67.5C27.0921 67.5 27.0795 67.5 27.067 67.5C27.0545 67.5 27.0421 67.5 27.0297 67.5C27.0173 67.5 27.005 67.5 26.9927 67.5C26.9805 67.5 26.9683 67.5 26.9561 67.5C26.944 67.5 26.9319 67.5 26.9199 67.5C26.9079 67.5 26.8959 67.5 26.8841 67.5C26.8722 67.5 26.8603 67.5 26.8486 67.5C26.8368 67.5 26.8251 67.5 26.8134 67.5C26.8018 67.5 26.7902 67.5 26.7786 67.5C26.7671 67.5 26.7556 67.5 26.7442 67.5C26.7328 67.5 26.7214 67.5 26.7101 67.5C26.6988 67.5 26.6876 67.5 26.6764 67.5C26.6652 67.5 26.6541 67.5 26.643 67.5C26.6319 67.5 26.6209 67.5 26.61 67.5C26.599 67.5 26.5881 67.5 26.5773 67.5C26.5664 67.5 26.5557 67.5 26.5449 67.5C26.5342 67.5 26.5236 67.5 26.5129 67.5C26.5023 67.5 26.4918 67.5 26.4813 67.5C26.4708 67.5 26.4604 67.5 26.45 67.5C26.4396 67.5 26.4293 67.5 26.419 67.5C26.4087 67.5 26.3985 67.5 26.3883 67.5C26.3782 67.5 26.3681 67.5 26.358 67.5C26.348 67.5 26.338 67.5 26.3281 67.5C26.3181 67.5 26.3082 67.5 26.2984 67.5C26.2886 67.5 26.2788 67.5 26.2691 67.5C26.2594 67.5 26.2497 67.5 26.2401 67.5C26.2305 67.5 26.2209 67.5 26.2114 67.5C26.2019 67.5 26.1925 67.5 26.1831 67.5C26.1737 67.5 26.1644 67.5 26.1551 67.5C26.1458 67.5 26.1366 67.5 26.1274 67.5C26.1182 67.5 26.1091 67.5 26.1 67.5C26.0909 67.5 26.0819 67.5 26.0729 67.5C26.064 67.5 26.0551 67.5 26.0462 67.5C26.0373 67.5 26.0285 67.5 26.0198 67.5C26.011 67.5 26.0023 67.5 25.9936 67.5C25.985 67.5 25.9764 67.5 25.9678 67.5C25.9593 67.5 25.9508 67.5 25.9423 67.5C25.9339 67.5 25.9255 67.5 25.9171 67.5C25.9088 67.5 25.9005 67.5 25.8922 67.5C25.884 67.5 25.8758 67.5 25.8677 67.5C25.8595 67.5 25.8514 67.5 25.8434 67.5C25.8353 67.5 25.8273 67.5 25.8194 67.5C25.8114 67.5 25.8035 67.5 25.7957 67.5C25.7879 67.5 25.7801 67.5 25.7723 67.5C25.7646 67.5 25.7569 67.5 25.7492 67.5C25.7416 67.5 25.734 67.5 25.7264 67.5C25.7189 67.5 25.7114 67.5 25.7039 67.5C25.6964 67.5 25.689 67.5 25.6817 67.5C25.6743 67.5 25.667 67.5 25.6597 67.5C25.6525 67.5 25.6453 67.5 25.6381 67.5C25.6309 67.5 25.6238 67.5 25.6167 67.5C25.6097 67.5 25.6026 67.5 25.5957 67.5C25.5887 67.5 25.5817 67.5 25.5749 67.5C25.568 67.5 25.5611 67.5 25.5543 67.5C25.5475 67.5 25.5408 67.5 25.5341 67.5C25.5274 67.5 25.5207 67.5 25.5141 67.5C25.5075 67.5 25.501 67.5 25.4944 67.5C25.4879 67.5 25.4815 67.5 25.475 67.5C25.4686 67.5 25.4622 67.5 25.4559 67.5C25.4495 67.5 25.4432 67.5 25.437 67.5C25.4307 67.5 25.4245 67.5 25.4184 67.5C25.4122 67.5 25.4061 67.5 25.4 67.5C25.394 67.5 25.3879 67.5 25.382 67.5C25.376 67.5 25.37 67.5 25.3641 67.5C25.3582 67.5 25.3524 67.5 25.3466 67.5C25.3408 67.5 25.335 67.5 25.3293 67.5C25.3236 67.5 25.3179 67.5 25.3122 67.5C25.3066 67.5 25.301 67.5 25.2954 67.5C25.2899 67.5 25.2844 67.5 25.2789 67.5C25.2734 67.5 25.268 67.5 25.2626 67.5C25.2572 67.5 25.2519 67.5 25.2466 67.5C25.2413 67.5 25.236 67.5 25.2308 67.5C25.2256 67.5 25.2204 67.5 25.2153 67.5C25.2101 67.5 25.205 67.5 25.2 67.5C25.1949 67.5 25.1899 67.5 25.1849 67.5C25.18 67.5 25.175 67.5 25.1701 67.5C25.1652 67.5 25.1604 67.5 25.1556 67.5C25.1508 67.5 25.146 67.5 25.1412 67.5C25.1365 67.5 25.1318 67.5 25.1272 67.5C25.1225 67.5 25.1179 67.5 25.1133 67.5C25.1087 67.5 25.1042 67.5 25.0997 67.5C25.0952 67.5 25.0907 67.5 25.0863 67.5C25.0819 67.5 25.0775 67.5 25.0731 67.5C25.0688 67.5 25.0645 67.5 25.0602 67.5C25.0559 67.5 25.0517 67.5 25.0475 67.5C25.0433 67.5 25.0391 67.5 25.035 67.5C25.0309 67.5 25.0268 67.5 25.0227 67.5C25.0187 67.5 25.0147 67.5 25.0107 67.5C25.0067 67.5 25.0028 67.5 24.9989 67.5C24.995 67.5 24.9911 67.5 24.9873 67.5C24.9834 67.5 24.9796 67.5 24.9759 67.5C24.9721 67.5 24.9684 67.5 24.9647 67.5C24.961 67.5 24.9574 67.5 24.9538 67.5C24.9501 67.5 24.9466 67.5 24.943 67.5C24.9395 67.5 24.9359 67.5 24.9325 67.5C24.929 67.5 24.9255 67.5 24.9221 67.5C24.9187 67.5 24.9154 67.5 24.912 67.5C24.9087 67.5 24.9054 67.5 24.9021 67.5C24.8988 67.5 24.8956 67.5 24.8924 67.5C24.8892 67.5 24.886 67.5 24.8829 67.5C24.8797 67.5 24.8766 67.5 24.8735 67.5C24.8705 67.5 24.8674 67.5 24.8644 67.5C24.8614 67.5 24.8584 67.5 24.8555 67.5C24.8525 67.5 24.8496 67.5 24.8467 67.5C24.8439 67.5 24.841 67.5 24.8382 67.5C24.8354 67.5 24.8326 67.5 24.8299 67.5C24.8271 67.5 24.8244 67.5 24.8217 67.5C24.819 67.5 24.8163 67.5 24.8137 67.5C24.8111 67.5 24.8085 67.5 24.8059 67.5C24.8034 67.5 24.8008 67.5 24.7983 67.5C24.7958 67.5 24.7933 67.5 24.7909 67.5C24.7885 67.5 24.786 67.5 24.7837 67.5C24.7813 67.5 24.7789 67.5 24.7766 67.5C24.7743 67.5 24.772 67.5 24.7697 67.5C24.7674 67.5 24.7652 67.5 24.763 67.5C24.7608 67.5 24.7586 67.5 24.7564 67.5C24.7543 67.5 24.7522 67.5 24.7501 67.5C24.748 67.5 24.7459 67.5 24.7439 67.5C24.7418 67.5 24.7398 67.5 24.7378 67.5C24.7358 67.5 24.7339 67.5 24.732 67.5C24.73 67.5 24.7281 67.5 24.7263 67.5C24.7244 67.5 24.7225 67.5 24.7207 67.5C24.7189 67.5 24.7171 67.5 24.7153 67.5C24.7136 67.5 24.7118 67.5 24.7101 67.5C24.7084 67.5 24.7067 67.5 24.7051 67.5C24.7034 67.5 24.7018 67.5 24.7002 67.5C24.6986 67.5 24.697 67.5 24.6954 67.5C24.6939 67.5 24.6923 67.5 24.6908 67.5C24.6893 67.5 24.6878 67.5 24.6864 67.5C24.6849 67.5 24.6835 67.5 24.6821 67.5C24.6807 67.5 24.6793 67.5 24.6779 67.5C24.6766 67.5 24.6752 67.5 24.6739 67.5C24.6726 67.5 24.6713 67.5 24.6701 67.5C24.6688 67.5 24.6676 67.5 24.6663 67.5C24.6651 67.5 24.6639 67.5 24.6628 67.5C24.6616 67.5 24.6605 67.5 24.6593 67.5C24.6582 67.5 24.6571 67.5 24.656 67.5C24.655 67.5 24.6539 67.5 24.6529 67.5C24.6518 67.5 24.6508 67.5 24.6498 67.5C24.6488 67.5 24.6479 67.5 24.6469 67.5C24.646 67.5 24.6451 67.5 24.6442 67.5C24.6433 67.5 24.6424 67.5 24.6415 67.5C24.6407 67.5 24.6398 67.5 24.639 67.5C24.6382 67.5 24.6374 67.5 24.6366 67.5C24.6358 67.5 24.6351 67.5 24.6344 67.5C24.6336 67.5 24.6329 67.5 24.6322 67.5C24.6315 67.5 24.6308 67.5 24.6302 67.5C24.6295 67.5 24.6289 67.5 24.6283 67.5C24.6277 67.5 24.6271 67.5 24.6265 67.5C24.6259 67.5 24.6254 67.5 24.6248 67.5C24.6243 67.5 24.6238 67.5 24.6233 67.5C24.6228 67.5 24.6223 67.5 24.6218 67.5C24.6214 67.5 24.6209 67.5 24.6205 67.5C24.6201 67.5 24.6196 67.5 24.6193 67.5C24.6189 67.5 24.6185 67.5 24.6181 67.5C24.6178 67.5 24.6174 67.5 24.6171 67.5C24.6168 67.5 24.6165 67.5 24.6162 67.5C24.6159 67.5 24.6156 67.5 24.6154 67.5C24.6151 67.5 24.6149 67.5 24.6147 67.5C24.6144 67.5 24.6142 67.5 24.6141 67.5C24.6139 67.5 24.6137 67.5 24.6135 67.5C24.6134 67.5 24.6132 67.5 24.6131 67.5C24.613 67.5 24.6129 67.5 24.6128 67.5C24.6127 67.5 24.6126 67.5 24.6125 67.5C24.6125 67.5 24.6124 67.5 24.6124 67.5C24.6123 67.5 24.6123 67.5 24.6123 67.5C24.6123 70 24.6123 72.5 24.6123 72.5C24.6123 72.5 24.6124 72.5 24.6124 72.5C24.6125 72.5 24.6125 72.5 24.6126 72.5C24.6127 72.5 24.6128 72.5 24.6129 72.5C24.613 72.5 24.6131 72.5 24.6132 72.5C24.6134 72.5 24.6135 72.5 24.6137 72.5C24.6138 72.5 24.614 72.5 24.6142 72.5C24.6143 72.5 24.6145 72.5 24.6147 72.5C24.6149 72.5 24.6151 72.5 24.6154 72.5C24.6156 72.5 24.6158 72.5 24.6161 72.5C24.6163 72.5 24.6166 72.5 24.6169 72.5C24.6171 72.5 24.6174 72.5 24.6177 72.5C24.618 72.5 24.6183 72.5 24.6186 72.5C24.619 72.5 24.6193 72.5 24.6196 72.5C24.62 72.5 24.6203 72.5 24.6207 72.5C24.621 72.5 24.6214 72.5 24.6218 72.5C24.6221 72.5 24.6225 72.5 24.6229 72.5C24.6233 72.5 24.6237 72.5 24.6241 72.5C24.6246 72.5 24.625 72.5 24.6254 72.5C24.6258 72.5 24.6263 72.5 24.6267 72.5C24.6272 72.5 24.6276 72.5 24.6281 72.5C24.6286 72.5 24.6291 72.5 24.6295 72.5C24.63 72.5 24.6305 72.5 24.631 72.5C24.6315 72.5 24.632 72.5 24.6325 72.5C24.633 72.5 24.6336 72.5 24.6341 72.5C24.6346 72.5 24.6352 72.5 24.6357 72.5C24.6363 72.5 24.6368 72.5 24.6374 72.5C24.6379 72.5 24.6385 72.5 24.639 72.5C24.6396 72.5 24.6402 72.5 24.6408 72.5C24.6414 72.5 24.6419 72.5 24.6425 72.5C24.6431 72.5 24.6437 72.5 24.6443 72.5C24.6449 72.5 24.6456 72.5 24.6462 72.5C24.6468 72.5 24.6474 72.5 24.648 72.5C24.6487 72.5 24.6493 72.5 24.6499 72.5C24.6506 72.5 24.6512 72.5 24.6518 72.5C24.6525 72.5 24.6531 72.5 24.6538 72.5C24.6544 72.5 24.6551 72.5 24.6558 72.5C24.6564 72.5 24.6571 72.5 24.6578 72.5C24.6584 72.5 24.6591 72.5 24.6598 72.5C24.6604 72.5 24.6611 72.5 24.6618 72.5C24.6625 72.5 24.6632 72.5 24.6638 72.5C24.6645 72.5 24.6652 72.5 24.6659 72.5C24.6666 72.5 24.6673 72.5 24.668 72.5C24.6687 72.5 24.6694 72.5 24.6701 72.5C24.6708 72.5 24.6715 72.5 24.6722 72.5C24.6729 72.5 24.6736 72.5 24.6743 72.5C24.675 72.5 24.6757 72.5 24.6764 72.5C24.6771 72.5 24.6778 72.5 24.6785 72.5C24.6792 72.5 24.6799 72.5 24.6807 72.5C24.6814 72.5 24.6821 72.5 24.6828 72.5C24.6835 72.5 24.6842 72.5 24.6849 72.5C24.6856 72.5 24.6863 72.5 24.687 72.5C24.6877 72.5 24.6885 72.5 24.6892 72.5C24.6899 72.5 24.6906 72.5 24.6913 72.5C24.692 72.5 24.6927 72.5 24.6934 72.5C24.6941 72.5 24.6948 72.5 24.6955 72.5C24.6962 72.5 24.6969 72.5 24.6976 72.5C24.6983 72.5 24.699 72.5 24.6997 72.5C24.7004 72.5 24.701 72.5 24.7017 72.5C24.7024 72.5 24.7031 72.5 24.7038 72.5C24.7045 72.5 24.7051 72.5 24.7058 72.5C24.7065 72.5 24.7072 72.5 24.7078 72.5C24.7085 72.5 24.7092 72.5 24.7098 72.5C24.7105 72.5 24.7112 72.5 24.7118 72.5C24.7125 72.5 24.7131 72.5 24.7138 72.5C24.7144 72.5 24.715 72.5 24.7157 72.5C24.7163 72.5 24.717 72.5 24.7176 72.5C24.7182 72.5 24.7188 72.5 24.7195 72.5C24.7201 72.5 24.7207 72.5 24.7213 72.5C24.7219 72.5 24.7225 72.5 24.7231 72.5C24.7237 72.5 24.7243 72.5 24.7249 72.5C24.7255 72.5 24.726 72.5 24.7266 72.5C24.7272 72.5 24.7277 72.5 24.7283 72.5C24.7289 72.5 24.7294 72.5 24.73 72.5C24.7305 72.5 24.7311 72.5 24.7316 72.5C24.7321 72.5 24.7326 72.5 24.7332 72.5C24.7337 72.5 24.7342 72.5 24.7347 72.5C24.7352 72.5 24.7357 72.5 24.7362 72.5C24.7367 72.5 24.7371 72.5 24.7376 72.5C24.7381 72.5 24.7385 72.5 24.739 72.5C24.7395 72.5 24.7399 72.5 24.7403 72.5C24.7408 72.5 24.7412 72.5 24.7416 72.5C24.742 72.5 24.7425 72.5 24.7429 72.5C24.7433 72.5 24.7436 72.5 24.744 72.5C24.7444 72.5 24.7448 72.5 24.7451 72.5C24.7455 72.5 24.7459 72.5 24.7462 72.5C24.7465 72.5 24.7469 72.5 24.7472 72.5C24.7475 72.5 24.7478 72.5 24.7481 72.5C24.7484 72.5 24.7487 72.5 24.749 72.5C24.7493 72.5 24.7495 72.5 24.7498 72.5C24.75 72.5 24.7503 72.5 24.7505 72.5C24.7508 72.5 24.751 72.5 24.7512 72.5C24.7514 72.5 24.7516 72.5 24.7518 72.5C24.752 72.5 24.7521 72.5 24.7523 72.5C24.7524 72.5 24.7526 72.5 24.7527 72.5C24.7529 72.5 24.753 72.5 24.7531 72.5C24.7532 72.5 24.7533 72.5 24.7534 72.5C24.7535 72.5 24.7535 72.5 24.7536 72.5C24.7536 72.5 24.7537 72.5 24.7537 72.5C24.7537 72.5 24.7537 70 24.7537 67.5C24.7537 67.5 24.7537 67.5 24.7537 67.5C24.7537 67.5 24.7536 67.5 24.7536 67.5C24.7535 67.5 24.7534 67.5 24.7533 67.5C24.7533 67.5 24.7532 67.5 24.753 67.5C24.7529 67.5 24.7528 67.5 24.7526 67.5C24.7525 67.5 24.7523 67.5 24.7521 67.5C24.7519 67.5 24.7517 67.5 24.7515 67.5C24.7513 67.5 24.7511 67.5 24.7508 67.5C24.7506 67.5 24.7503 67.5 24.75 67.5C24.7498 67.5 24.7495 67.5 24.7492 67.5C24.7488 67.5 24.7485 67.5 24.7482 67.5C24.7478 67.5 24.7474 67.5 24.7471 67.5C24.7467 67.5 24.7463 67.5 24.7459 67.5C24.7454 67.5 24.745 67.5 24.7445 67.5C24.7441 67.5 24.7436 67.5 24.7431 67.5C24.7426 67.5 24.7421 67.5 24.7416 67.5C24.7411 67.5 24.7405 67.5 24.7399 67.5C24.7394 67.5 24.7388 67.5 24.7382 67.5C24.7376 67.5 24.737 67.5 24.7363 67.5C24.7357 67.5 24.735 67.5 24.7343 67.5C24.7336 67.5 24.7329 67.5 24.7322 67.5C24.7315 67.5 24.7307 67.5 24.73 67.5C24.7292 67.5 24.7284 67.5 24.7276 67.5C24.7268 67.5 24.726 67.5 24.7251 67.5C24.7243 67.5 24.7234 67.5 24.7225 67.5C24.7216 67.5 24.7207 67.5 24.7198 67.5C24.7188 67.5 24.7179 67.5 24.7169 67.5C24.7159 67.5 24.7149 67.5 24.7139 67.5C24.7129 67.5 24.7118 67.5 24.7108 67.5C24.7097 67.5 24.7086 67.5 24.7075 67.5C24.7064 67.5 24.7052 67.5 24.7041 67.5C24.7029 67.5 24.7017 67.5 24.7005 67.5C24.6993 67.5 24.6981 67.5 24.6969 67.5C24.6956 67.5 24.6943 67.5 24.693 67.5C24.6917 67.5 24.6904 67.5 24.6891 67.5C24.6877 67.5 24.6863 67.5 24.6849 67.5C24.6835 67.5 24.6821 67.5 24.6807 67.5C24.6792 67.5 24.6778 67.5 24.6763 67.5C24.6748 67.5 24.6733 67.5 24.6717 67.5C24.6702 67.5 24.6686 67.5 24.667 67.5C24.6654 67.5 24.6638 67.5 24.6621 67.5C24.6605 67.5 24.6588 67.5 24.6571 67.5C24.6554 67.5 24.6537 67.5 24.6519 67.5C24.6502 67.5 24.6484 67.5 24.6466 67.5C24.6448 67.5 24.6429 67.5 24.6411 67.5C24.6392 67.5 24.6373 67.5 24.6354 67.5C24.6335 67.5 24.6316 67.5 24.6296 67.5C24.6276 67.5 24.6256 67.5 24.6236 67.5C24.6216 67.5 24.6195 67.5 24.6174 67.5C24.6153 67.5 24.6132 67.5 24.6111 67.5C24.609 67.5 24.6068 67.5 24.6046 67.5C24.6024 67.5 24.6002 67.5 24.5979 67.5C24.5957 67.5 24.5934 67.5 24.5911 67.5C24.5888 67.5 24.5864 67.5 24.584 67.5C24.5817 67.5 24.5793 67.5 24.5768 67.5C24.5744 67.5 24.5719 67.5 24.5695 67.5C24.567 67.5 24.5644 67.5 24.5619 67.5C24.5593 67.5 24.5568 67.5 24.5541 67.5C24.5515 67.5 24.5489 67.5 24.5462 67.5C24.5435 67.5 24.5408 67.5 24.5381 67.5C24.5354 67.5 24.5326 67.5 24.5298 67.5C24.527 67.5 24.5242 67.5 24.5213 67.5C24.5184 67.5 24.5155 67.5 24.5126 67.5C24.5097 67.5 24.5067 67.5 24.5037 67.5C24.5007 67.5 24.4977 67.5 24.4946 67.5C24.4916 67.5 24.4885 67.5 24.4854 67.5C24.4822 67.5 24.4791 67.5 24.4759 67.5C24.4727 67.5 24.4695 67.5 24.4662 67.5C24.463 67.5 24.4597 67.5 24.4563 67.5C24.453 67.5 24.4497 67.5 24.4463 67.5C24.4429 67.5 24.4394 67.5 24.436 67.5C24.4325 67.5 24.429 67.5 24.4255 67.5C24.422 67.5 24.4184 67.5 24.4148 67.5C24.4112 67.5 24.4076 67.5 24.4039 67.5C24.4002 67.5 24.3965 67.5 24.3928 67.5C24.389 67.5 24.3852 67.5 24.3814 67.5C24.3776 67.5 24.3738 67.5 24.3699 67.5C24.366 67.5 24.3621 67.5 24.3581 67.5C24.3541 67.5 24.3501 67.5 24.3461 67.5C24.3421 67.5 24.338 67.5 24.3339 67.5C24.3298 67.5 24.3257 67.5 24.3215 67.5C24.3173 67.5 24.3131 67.5 24.3088 67.5C24.3046 67.5 24.3003 67.5 24.2959 67.5C24.2916 67.5 24.2872 67.5 24.2828 67.5C24.2784 67.5 24.274 67.5 24.2695 67.5C24.265 67.5 24.2605 67.5 24.2559 67.5C24.2514 67.5 24.2468 67.5 24.2421 67.5C24.2375 67.5 24.2328 67.5 24.2281 67.5C24.2234 67.5 24.2186 67.5 24.2138 67.5C24.209 67.5 24.2042 67.5 24.1993 67.5C24.1944 67.5 24.1895 67.5 24.1845 67.5C24.1796 67.5 24.1746 67.5 24.1695 67.5C24.1645 67.5 24.1594 67.5 24.1543 67.5C24.1492 67.5 24.144 67.5 24.1388 67.5C24.1336 67.5 24.1284 67.5 24.1231 67.5C24.1178 67.5 24.1125 67.5 24.1071 67.5C24.1018 67.5 24.0964 67.5 24.0909 67.5C24.0855 67.5 24.08 67.5 24.0744 67.5C24.0689 67.5 24.0633 67.5 24.0577 67.5C24.0521 67.5 24.0464 67.5 24.0407 67.5C24.035 67.5 24.0293 67.5 24.0235 67.5C24.0177 67.5 24.0119 67.5 24.006 67.5C24.0001 67.5 23.9942 67.5 23.9882 67.5C23.9823 67.5 23.9763 67.5 23.9702 67.5C23.9641 67.5 23.9581 67.5 23.9519 67.5C23.9458 67.5 23.9396 67.5 23.9334 67.5C23.9271 67.5 23.9209 67.5 23.9145 67.5C23.9082 67.5 23.9019 67.5 23.8955 67.5C23.8891 67.5 23.8826 67.5 23.8761 67.5C23.8696 67.5 23.8631 67.5 23.8565 67.5C23.8499 67.5 23.8433 67.5 23.8366 67.5C23.8299 67.5 23.8232 67.5 23.8164 67.5C23.8096 67.5 23.8028 67.5 23.7959 67.5C23.7891 67.5 23.7822 67.5 23.7752 67.5C23.7682 67.5 23.7612 67.5 23.7542 67.5C23.7471 67.5 23.74 67.5 23.7329 67.5C23.7257 67.5 23.7186 67.5 23.7113 67.5C23.7041 67.5 23.6968 67.5 23.6894 67.5C23.6821 67.5 23.6747 67.5 23.6673 67.5C23.6599 67.5 23.6524 67.5 23.6448 67.5C23.6373 67.5 23.6297 67.5 23.6221 67.5C23.6145 67.5 23.6068 67.5 23.5991 67.5C23.5914 67.5 23.5836 67.5 23.5758 67.5C23.5679 67.5 23.5601 67.5 23.5521 67.5C23.5442 67.5 23.5362 67.5 23.5282 67.5C23.5202 67.5 23.5121 67.5 23.504 67.5C23.4959 67.5 23.4877 67.5 23.4795 67.5C23.4713 67.5 23.463 67.5 23.4547 67.5C23.4463 67.5 23.438 67.5 23.4295 67.5C23.4211 67.5 23.4126 67.5 23.4041 67.5C23.3956 67.5 23.387 67.5 23.3784 67.5C23.3697 67.5 23.3611 67.5 23.3523 67.5C23.3436 67.5 23.3348 67.5 23.326 67.5C23.3171 67.5 23.3082 67.5 23.2993 67.5C23.2904 67.5 23.2814 67.5 23.2723 67.5C23.2633 67.5 23.2542 67.5 23.245 67.5C23.2358 67.5 23.2266 67.5 23.2174 67.5C23.2081 67.5 23.1988 67.5 23.1894 67.5C23.1801 67.5 23.1706 67.5 23.1612 67.5C23.1517 67.5 23.1422 67.5 23.1326 67.5C23.123 67.5 23.1134 67.5 23.1037 67.5C23.094 67.5 23.0842 67.5 23.0744 67.5C23.0646 67.5 23.0548 67.5 23.0448 67.5C23.0349 67.5 23.025 67.5 23.0149 67.5C23.0049 67.5 22.9948 67.5 22.9847 67.5C22.9746 67.5 22.9644 67.5 22.9541 67.5C22.9439 67.5 22.9336 67.5 22.9232 67.5C22.9129 67.5 22.9025 67.5 22.892 67.5C22.8815 67.5 22.871 67.5 22.8604 67.5C22.8498 67.5 22.8392 67.5 22.8285 67.5C22.8178 67.5 22.8071 67.5 22.7962 67.5C22.7854 67.5 22.7746 67.5 22.7636 67.5C22.7527 67.5 22.7417 67.5 22.7307 67.5C22.7196 67.5 22.7085 67.5 22.6974 67.5C22.6862 67.5 22.675 67.5 22.6637 67.5C22.6525 67.5 22.6411 67.5 22.6297 67.5C22.6184 67.5 22.6069 67.5 22.5954 67.5C22.5839 67.5 22.5723 67.5 22.5607 67.5C22.5491 67.5 22.5374 67.5 22.5256 67.5C22.5139 67.5 22.5021 67.5 22.4902 67.5C22.4783 67.5 22.4664 67.5 22.4544 67.5C22.4424 67.5 22.4304 67.5 22.4183 67.5C22.4062 67.5 22.394 67.5 22.3818 67.5C22.3696 67.5 22.3573 67.5 22.3449 67.5C22.3326 67.5 22.3202 67.5 22.3077 67.5V72.5ZM31.5384 72.5C36.0188 72.5 40.3274 70.5819 44.1421 67.927C47.9781 65.2573 51.515 61.7045 54.5077 58.0959C57.5071 54.4794 60.0209 50.7332 61.796 47.6105C62.6827 46.0507 63.4032 44.6146 63.9106 43.4033C64.3655 42.317 64.8077 41.0551 64.8077 40H59.8077C59.8077 39.9449 59.76 40.3705 59.2987 41.4717C58.8899 42.4479 58.268 43.6993 57.4492 45.1395C55.8137 48.0168 53.4653 51.5206 50.6591 54.9041C47.8464 58.2955 44.6343 61.4927 41.286 63.823C37.9164 66.1681 34.6053 67.5 31.5384 67.5V72.5ZM64.8077 40C64.8077 38.9823 64.4097 37.7471 63.9799 36.6504C63.5056 35.44 62.8286 34.0033 61.9873 32.4402C60.3035 29.3117 57.8964 25.5559 54.9628 21.9281C52.0354 18.3078 48.5247 14.7417 44.6175 12.063C40.7176 9.38939 36.2737 7.5 31.5384 7.5V12.5C34.9309 12.5 38.397 13.8606 41.7903 16.187C45.1763 18.5083 48.342 21.6922 51.0749 25.0719C53.8017 28.4441 56.039 31.9383 57.5845 34.8098C58.3578 36.2467 58.9417 37.4975 59.3246 38.4746C59.7521 39.5654 59.8077 40.0177 59.8077 40H64.8077ZM31.5384 7.5C21.8324 7.5 29.8077 7.5 22.3077 7.5L22.3077 12.5C29.8077 12.5 21.8324 12.5 31.5384 12.5V7.5ZM20.1728 11.3008C25.8968 20.6948 31.0897 26.8503 31.0897 40H36.0897C36.0897 25.1497 29.916 17.682 24.4426 8.69915L20.1728 11.3008ZM31.0897 40C31.0897 46.42 28.4739 53.5026 25.7042 59.149C24.3367 61.9369 22.9675 64.3036 21.9414 65.971C21.4289 66.8037 21.0038 67.4593 20.7094 67.9028C20.5623 68.1244 20.448 68.2929 20.372 68.4039C20.334 68.4593 20.3056 68.5004 20.2875 68.5265C20.2784 68.5395 20.2719 68.5488 20.268 68.5543C20.2661 68.5571 20.2648 68.5589 20.2643 68.5597C20.264 68.5601 20.2638 68.5603 20.2639 68.5602C20.2639 68.5602 20.2641 68.56 20.2641 68.56C20.2643 68.5597 20.2645 68.5593 22.3077 70C24.3508 71.4407 24.3512 71.4402 24.3515 71.4397C24.3517 71.4394 24.3521 71.4388 24.3525 71.4383C24.3532 71.4373 24.3541 71.436 24.3552 71.4344C24.3574 71.4314 24.3602 71.4274 24.3637 71.4224C24.3707 71.4124 24.3804 71.3985 24.3926 71.3809C24.4172 71.3456 24.4521 71.2951 24.4968 71.2299C24.586 71.0996 24.7141 70.9107 24.8755 70.6676C25.1981 70.1814 25.6544 69.4776 26.1996 68.5915C27.2889 66.8214 28.7402 64.3131 30.1932 61.351C33.0645 55.4974 36.0897 47.58 36.0897 40H31.0897Z" fill="#333333"/>
<ellipse cx="66.1538" cy="40" rx="3.84615" ry="3.75" stroke="#333333" stroke-width="5"/>
</g>
<defs>
<filter id="filter0_d" x="0" y="0" width="80" height="84" filterUnits="userSpaceOnUse" color-interpolation-filters="sRGB">
<feFlood flood-opacity="0" result="BackgroundImageFix"/>
<feColorMatrix in="SourceAlpha" type="matrix" values="0 0 0 0 0 0 0 0 0 0 0 0 0 0 0 0 0 0 127 0" result="hardAlpha"/>
<feOffset dy="4"/>
<feColorMatrix type="matrix" values="0 0 0 0 0 0 0 0 0 0 0 0 0 0 0 0 0 0 0.25 0"/>
<feBlend mode="normal" in2="BackgroundImageFix" result="effect1_dropShadow"/>
<feBlend mode="normal" in="SourceGraphic" in2="effect1_dropShadow" result="shape"/>
</filter>
</defs>
</svg>
