<svg width="180" height="180" viewBox="0 0 180 180" fill="none" xmlns="http://www.w3.org/2000/svg">
<g clip-path="url(#clip0_5693_197639)">
<rect width="180" height="180" rx="20" fill="#F2F2F2"/>
<g clip-path="url(#clip1_5693_197639)">
<path d="M0 30L-1.31134e-06 0L30 -1.31134e-06L30 10C30 21.0457 21.0457 30 10 30L0 30Z" fill="#333333"/>
<path d="M16.1216 14.36C17.103 14.52 17.855 14.888 18.3776 15.464C18.9003 16.0293 19.1616 16.7333 19.1616 17.576C19.1616 18.2267 18.991 18.8293 18.6496 19.384C18.3083 19.928 17.7856 20.3653 17.0816 20.696C16.3883 21.0267 15.535 21.192 14.5216 21.192C13.7323 21.192 12.9536 21.0907 12.1856 20.888C11.4283 20.6747 10.783 20.376 10.2496 19.992L11.2576 18.008C11.6843 18.328 12.175 18.5787 12.7296 18.76C13.295 18.9307 13.871 19.016 14.4576 19.016C15.1083 19.016 15.6203 18.8933 15.9936 18.648C16.367 18.392 16.5536 18.0347 16.5536 17.576C16.5536 16.6587 15.855 16.2 14.4576 16.2H13.2736V14.488L15.5776 11.88H10.8096V9.8H18.6496V11.48L16.1216 14.36Z" fill="#F2F2F2"/>
</g>
<path d="M32.6135 128.6H36.1535C37.0415 128.6 37.8295 128.776 38.5175 129.128C39.2055 129.48 39.7375 129.976 40.1135 130.616C40.4975 131.248 40.6895 131.976 40.6895 132.8C40.6895 133.624 40.4975 134.356 40.1135 134.996C39.7375 135.628 39.2055 136.12 38.5175 136.472C37.8295 136.824 37.0415 137 36.1535 137H32.6135V128.6ZM36.0815 135.956C36.7615 135.956 37.3575 135.824 37.8695 135.56C38.3895 135.296 38.7895 134.928 39.0695 134.456C39.3495 133.976 39.4895 133.424 39.4895 132.8C39.4895 132.176 39.3495 131.628 39.0695 131.156C38.7895 130.676 38.3895 130.304 37.8695 130.04C37.3575 129.776 36.7615 129.644 36.0815 129.644H33.8135V135.956H36.0815ZM45.0836 137.072C44.4516 137.072 43.8836 136.932 43.3796 136.652C42.8756 136.372 42.4796 135.988 42.1916 135.5C41.9116 135.004 41.7716 134.444 41.7716 133.82C41.7716 133.196 41.9116 132.64 42.1916 132.152C42.4796 131.656 42.8756 131.272 43.3796 131C43.8836 130.72 44.4516 130.58 45.0836 130.58C45.7156 130.58 46.2796 130.72 46.7756 131C47.2796 131.272 47.6716 131.656 47.9516 132.152C48.2396 132.64 48.3836 133.196 48.3836 133.82C48.3836 134.444 48.2396 135.004 47.9516 135.5C47.6716 135.988 47.2796 136.372 46.7756 136.652C46.2796 136.932 45.7156 137.072 45.0836 137.072ZM45.0836 136.064C45.4916 136.064 45.8556 135.972 46.1756 135.788C46.5036 135.596 46.7596 135.332 46.9436 134.996C47.1276 134.652 47.2196 134.26 47.2196 133.82C47.2196 133.38 47.1276 132.992 46.9436 132.656C46.7596 132.312 46.5036 132.048 46.1756 131.864C45.8556 131.68 45.4916 131.588 45.0836 131.588C44.6756 131.588 44.3076 131.68 43.9796 131.864C43.6596 132.048 43.4036 132.312 43.2116 132.656C43.0276 132.992 42.9356 133.38 42.9356 133.82C42.9356 134.26 43.0276 134.652 43.2116 134.996C43.4036 135.332 43.6596 135.596 43.9796 135.788C44.3076 135.972 44.6756 136.064 45.0836 136.064ZM53.3488 130.58C53.9648 130.58 54.5168 130.716 55.0048 130.988C55.4928 131.26 55.8728 131.64 56.1448 132.128C56.4248 132.616 56.5648 133.18 56.5648 133.82C56.5648 134.46 56.4248 135.028 56.1448 135.524C55.8728 136.012 55.4928 136.392 55.0048 136.664C54.5168 136.936 53.9648 137.072 53.3488 137.072C52.8768 137.072 52.4448 136.98 52.0528 136.796C51.6608 136.612 51.3368 136.344 51.0808 135.992V137H49.9768V128.096H51.1288V131.6C51.3848 131.264 51.7048 131.012 52.0888 130.844C52.4728 130.668 52.8928 130.58 53.3488 130.58ZM53.2528 136.064C53.6608 136.064 54.0248 135.972 54.3448 135.788C54.6728 135.596 54.9288 135.332 55.1128 134.996C55.3048 134.652 55.4008 134.26 55.4008 133.82C55.4008 133.38 55.3048 132.992 55.1128 132.656C54.9288 132.312 54.6728 132.048 54.3448 131.864C54.0248 131.68 53.6608 131.588 53.2528 131.588C52.8528 131.588 52.4888 131.68 52.1608 131.864C51.8328 132.048 51.5768 132.312 51.3928 132.656C51.2088 132.992 51.1168 133.38 51.1168 133.82C51.1168 134.26 51.2088 134.652 51.3928 134.996C51.5768 135.332 51.8328 135.596 52.1608 135.788C52.4888 135.972 52.8528 136.064 53.2528 136.064ZM58.1565 128.096H59.3085V137H58.1565V128.096ZM63.824 130.58C64.704 130.58 65.376 130.796 65.84 131.228C66.312 131.66 66.548 132.304 66.548 133.16V137H65.456V136.16C65.264 136.456 64.988 136.684 64.628 136.844C64.276 136.996 63.856 137.072 63.368 137.072C62.656 137.072 62.084 136.9 61.652 136.556C61.228 136.212 61.016 135.76 61.016 135.2C61.016 134.64 61.22 134.192 61.628 133.856C62.036 133.512 62.684 133.34 63.572 133.34H65.396V133.112C65.396 132.616 65.252 132.236 64.964 131.972C64.676 131.708 64.252 131.576 63.692 131.576C63.316 131.576 62.948 131.64 62.588 131.768C62.228 131.888 61.924 132.052 61.676 132.26L61.196 131.396C61.524 131.132 61.916 130.932 62.372 130.796C62.828 130.652 63.312 130.58 63.824 130.58ZM63.56 136.184C64 136.184 64.38 136.088 64.7 135.896C65.02 135.696 65.252 135.416 65.396 135.056V134.168H63.62C62.644 134.168 62.156 134.496 62.156 135.152C62.156 135.472 62.28 135.724 62.528 135.908C62.776 136.092 63.12 136.184 63.56 136.184ZM71.9025 128.096H73.0545V137H71.9025V128.096ZM77.5701 130.58C78.4501 130.58 79.1221 130.796 79.5861 131.228C80.0581 131.66 80.2941 132.304 80.2941 133.16V137H79.2021V136.16C79.0101 136.456 78.7341 136.684 78.3741 136.844C78.0221 136.996 77.6021 137.072 77.1141 137.072C76.4021 137.072 75.8301 136.9 75.3981 136.556C74.9741 136.212 74.7621 135.76 74.7621 135.2C74.7621 134.64 74.9661 134.192 75.3741 133.856C75.7821 133.512 76.4301 133.34 77.3181 133.34H79.1421V133.112C79.1421 132.616 78.9981 132.236 78.7101 131.972C78.4221 131.708 77.9981 131.576 77.4381 131.576C77.0621 131.576 76.6941 131.64 76.3341 131.768C75.9741 131.888 75.6701 132.052 75.4221 132.26L74.9421 131.396C75.2701 131.132 75.6621 130.932 76.1181 130.796C76.5741 130.652 77.0581 130.58 77.5701 130.58ZM77.3061 136.184C77.7461 136.184 78.1261 136.088 78.4461 135.896C78.7661 135.696 78.9981 135.416 79.1421 135.056V134.168H77.3661C76.3901 134.168 75.9021 134.496 75.9021 135.152C75.9021 135.472 76.0261 135.724 76.2741 135.908C76.5221 136.092 76.8661 136.184 77.3061 136.184ZM89.0446 130.58C89.8526 130.58 90.4926 130.816 90.9646 131.288C91.4446 131.752 91.6846 132.436 91.6846 133.34V137H90.5326V133.472C90.5326 132.856 90.3846 132.392 90.0886 132.08C89.7926 131.768 89.3686 131.612 88.8166 131.612C88.1926 131.612 87.7006 131.796 87.3406 132.164C86.9806 132.524 86.8006 133.044 86.8006 133.724V137H85.6486V128.096H86.8006V131.54C87.0406 131.236 87.3526 131 87.7366 130.832C88.1286 130.664 88.5646 130.58 89.0446 130.58ZM96.5758 137.072C95.9438 137.072 95.3758 136.932 94.8718 136.652C94.3678 136.372 93.9718 135.988 93.6838 135.5C93.4038 135.004 93.2638 134.444 93.2638 133.82C93.2638 133.196 93.4038 132.64 93.6838 132.152C93.9718 131.656 94.3678 131.272 94.8718 131C95.3758 130.72 95.9438 130.58 96.5758 130.58C97.2078 130.58 97.7718 130.72 98.2678 131C98.7718 131.272 99.1638 131.656 99.4438 132.152C99.7318 132.64 99.8758 133.196 99.8758 133.82C99.8758 134.444 99.7318 135.004 99.4438 135.5C99.1638 135.988 98.7718 136.372 98.2678 136.652C97.7718 136.932 97.2078 137.072 96.5758 137.072ZM96.5758 136.064C96.9838 136.064 97.3478 135.972 97.6678 135.788C97.9958 135.596 98.2518 135.332 98.4358 134.996C98.6198 134.652 98.7118 134.26 98.7118 133.82C98.7118 133.38 98.6198 132.992 98.4358 132.656C98.2518 132.312 97.9958 132.048 97.6678 131.864C97.3478 131.68 96.9838 131.588 96.5758 131.588C96.1678 131.588 95.7998 131.68 95.4718 131.864C95.1518 132.048 94.8958 132.312 94.7038 132.656C94.5198 132.992 94.4278 133.38 94.4278 133.82C94.4278 134.26 94.5198 134.652 94.7038 134.996C94.8958 135.332 95.1518 135.596 95.4718 135.788C95.7998 135.972 96.1678 136.064 96.5758 136.064ZM100.653 139.4C100.373 139.4 100.113 139.368 99.873 139.304C99.633 139.24 99.433 139.144 99.273 139.016L99.645 138.128C99.885 138.328 100.197 138.428 100.581 138.428C100.885 138.428 101.117 138.332 101.277 138.14C101.445 137.956 101.529 137.68 101.529 137.312V130.64H102.681V137.288C102.681 137.944 102.505 138.46 102.153 138.836C101.801 139.212 101.301 139.4 100.653 139.4ZM102.105 129.416C101.881 129.416 101.693 129.344 101.541 129.2C101.397 129.056 101.325 128.88 101.325 128.672C101.325 128.464 101.397 128.288 101.541 128.144C101.693 127.992 101.881 127.916 102.105 127.916C102.329 127.916 102.513 127.988 102.657 128.132C102.809 128.268 102.885 128.44 102.885 128.648C102.885 128.864 102.809 129.048 102.657 129.2C102.513 129.344 102.329 129.416 102.105 129.416ZM107.195 130.58C108.075 130.58 108.747 130.796 109.211 131.228C109.683 131.66 109.919 132.304 109.919 133.16V137H108.827V136.16C108.635 136.456 108.359 136.684 107.999 136.844C107.647 136.996 107.227 137.072 106.739 137.072C106.027 137.072 105.455 136.9 105.023 136.556C104.599 136.212 104.387 135.76 104.387 135.2C104.387 134.64 104.591 134.192 104.999 133.856C105.407 133.512 106.055 133.34 106.943 133.34H108.767V133.112C108.767 132.616 108.623 132.236 108.335 131.972C108.047 131.708 107.623 131.576 107.063 131.576C106.687 131.576 106.319 131.64 105.959 131.768C105.599 131.888 105.295 132.052 105.047 132.26L104.567 131.396C104.895 131.132 105.287 130.932 105.743 130.796C106.199 130.652 106.683 130.58 107.195 130.58ZM106.931 136.184C107.371 136.184 107.751 136.088 108.071 135.896C108.391 135.696 108.623 135.416 108.767 135.056V134.168H106.991C106.015 134.168 105.527 134.496 105.527 135.152C105.527 135.472 105.651 135.724 105.899 135.908C106.147 136.092 106.491 136.184 106.931 136.184ZM118.646 130.58C119.262 130.58 119.814 130.716 120.302 130.988C120.79 131.26 121.17 131.64 121.442 132.128C121.722 132.616 121.862 133.18 121.862 133.82C121.862 134.46 121.722 135.028 121.442 135.524C121.17 136.012 120.79 136.392 120.302 136.664C119.814 136.936 119.262 137.072 118.646 137.072C118.19 137.072 117.77 136.984 117.386 136.808C117.01 136.632 116.69 136.376 116.426 136.04V139.328H115.274V130.64H116.378V131.648C116.634 131.296 116.958 131.032 117.35 130.856C117.742 130.672 118.174 130.58 118.646 130.58ZM118.55 136.064C118.958 136.064 119.322 135.972 119.642 135.788C119.97 135.596 120.226 135.332 120.41 134.996C120.602 134.652 120.698 134.26 120.698 133.82C120.698 133.38 120.602 132.992 120.41 132.656C120.226 132.312 119.97 132.048 119.642 131.864C119.322 131.68 118.958 131.588 118.55 131.588C118.15 131.588 117.786 131.684 117.458 131.876C117.138 132.06 116.882 132.32 116.69 132.656C116.506 132.992 116.414 133.38 116.414 133.82C116.414 134.26 116.506 134.652 116.69 134.996C116.874 135.332 117.13 135.596 117.458 135.788C117.786 135.972 118.15 136.064 118.55 136.064ZM126.177 137.072C125.545 137.072 124.977 136.932 124.473 136.652C123.969 136.372 123.573 135.988 123.285 135.5C123.005 135.004 122.865 134.444 122.865 133.82C122.865 133.196 123.005 132.64 123.285 132.152C123.573 131.656 123.969 131.272 124.473 131C124.977 130.72 125.545 130.58 126.177 130.58C126.809 130.58 127.373 130.72 127.869 131C128.373 131.272 128.765 131.656 129.045 132.152C129.333 132.64 129.477 133.196 129.477 133.82C129.477 134.444 129.333 135.004 129.045 135.5C128.765 135.988 128.373 136.372 127.869 136.652C127.373 136.932 126.809 137.072 126.177 137.072ZM126.177 136.064C126.585 136.064 126.949 135.972 127.269 135.788C127.597 135.596 127.853 135.332 128.037 134.996C128.221 134.652 128.313 134.26 128.313 133.82C128.313 133.38 128.221 132.992 128.037 132.656C127.853 132.312 127.597 132.048 127.269 131.864C126.949 131.68 126.585 131.588 126.177 131.588C125.769 131.588 125.401 131.68 125.073 131.864C124.753 132.048 124.497 132.312 124.305 132.656C124.121 132.992 124.029 133.38 124.029 133.82C124.029 134.26 124.121 134.652 124.305 134.996C124.497 135.332 124.753 135.596 125.073 135.788C125.401 135.972 125.769 136.064 126.177 136.064ZM132.175 131.708C132.375 131.34 132.671 131.06 133.063 130.868C133.455 130.676 133.931 130.58 134.491 130.58V131.696C134.427 131.688 134.339 131.684 134.227 131.684C133.603 131.684 133.111 131.872 132.751 132.248C132.399 132.616 132.223 133.144 132.223 133.832V137H131.071V130.64H132.175V131.708ZM139.215 128.096H140.367V137H139.215V128.096ZM144.883 130.58C145.763 130.58 146.435 130.796 146.899 131.228C147.371 131.66 147.607 132.304 147.607 133.16V137H146.515V136.16C146.323 136.456 146.047 136.684 145.687 136.844C145.335 136.996 144.915 137.072 144.427 137.072C143.715 137.072 143.143 136.9 142.711 136.556C142.287 136.212 142.075 135.76 142.075 135.2C142.075 134.64 142.279 134.192 142.687 133.856C143.095 133.512 143.743 133.34 144.631 133.34H146.455V133.112C146.455 132.616 146.311 132.236 146.023 131.972C145.735 131.708 145.311 131.576 144.751 131.576C144.375 131.576 144.007 131.64 143.647 131.768C143.287 131.888 142.983 132.052 142.735 132.26L142.255 131.396C142.583 131.132 142.975 130.932 143.431 130.796C143.887 130.652 144.371 130.58 144.883 130.58ZM144.619 136.184C145.059 136.184 145.439 136.088 145.759 135.896C146.079 135.696 146.311 135.416 146.455 135.056V134.168H144.679C143.703 134.168 143.215 134.496 143.215 135.152C143.215 135.472 143.339 135.724 143.587 135.908C143.835 136.092 144.179 136.184 144.619 136.184ZM80.8546 145.58C81.6546 145.58 82.2866 145.812 82.7506 146.276C83.2226 146.74 83.4586 147.428 83.4586 148.34V152H82.3066V148.472C82.3066 147.856 82.1626 147.392 81.8746 147.08C81.5946 146.768 81.1906 146.612 80.6626 146.612C80.0786 146.612 79.6146 146.796 79.2706 147.164C78.9266 147.524 78.7546 148.044 78.7546 148.724V152H77.6026V148.472C77.6026 147.856 77.4586 147.392 77.1706 147.08C76.8906 146.768 76.4866 146.612 75.9586 146.612C75.3746 146.612 74.9106 146.796 74.5666 147.164C74.2226 147.524 74.0506 148.044 74.0506 148.724V152H72.8986V145.64H74.0026V146.588C74.2346 146.26 74.5386 146.012 74.9146 145.844C75.2906 145.668 75.7186 145.58 76.1986 145.58C76.6946 145.58 77.1346 145.68 77.5186 145.88C77.9026 146.08 78.1986 146.372 78.4066 146.756C78.6466 146.388 78.9786 146.1 79.4026 145.892C79.8346 145.684 80.3186 145.58 80.8546 145.58ZM85.5783 145.64H86.7303V152H85.5783V145.64ZM86.1543 144.416C85.9303 144.416 85.7423 144.344 85.5903 144.2C85.4463 144.056 85.3743 143.88 85.3743 143.672C85.3743 143.464 85.4463 143.288 85.5903 143.144C85.7423 142.992 85.9303 142.916 86.1543 142.916C86.3783 142.916 86.5623 142.988 86.7063 143.132C86.8583 143.268 86.9343 143.44 86.9343 143.648C86.9343 143.864 86.8583 144.048 86.7063 144.2C86.5623 144.344 86.3783 144.416 86.1543 144.416ZM92.5059 151.628C92.3379 151.772 92.1299 151.884 91.8819 151.964C91.6339 152.036 91.3779 152.072 91.1139 152.072C90.4739 152.072 89.9779 151.9 89.6259 151.556C89.2739 151.212 89.0979 150.72 89.0979 150.08V146.588H88.0179V145.64H89.0979V144.248H90.2499V145.64H92.0739V146.588H90.2499V150.032C90.2499 150.376 90.3339 150.64 90.5019 150.824C90.6779 151.008 90.9259 151.1 91.2459 151.1C91.5979 151.1 91.8979 151 92.1459 150.8L92.5059 151.628ZM96.2146 145.58C97.0946 145.58 97.7666 145.796 98.2306 146.228C98.7026 146.66 98.9386 147.304 98.9386 148.16V152H97.8466V151.16C97.6546 151.456 97.3786 151.684 97.0186 151.844C96.6666 151.996 96.2466 152.072 95.7586 152.072C95.0466 152.072 94.4746 151.9 94.0426 151.556C93.6186 151.212 93.4066 150.76 93.4066 150.2C93.4066 149.64 93.6106 149.192 94.0186 148.856C94.4266 148.512 95.0746 148.34 95.9626 148.34H97.7866V148.112C97.7866 147.616 97.6426 147.236 97.3546 146.972C97.0666 146.708 96.6426 146.576 96.0826 146.576C95.7066 146.576 95.3386 146.64 94.9786 146.768C94.6186 146.888 94.3146 147.052 94.0666 147.26L93.5866 146.396C93.9146 146.132 94.3066 145.932 94.7626 145.796C95.2186 145.652 95.7026 145.58 96.2146 145.58ZM95.9506 151.184C96.3906 151.184 96.7706 151.088 97.0906 150.896C97.4106 150.696 97.6426 150.416 97.7866 150.056V149.168H96.0106C95.0346 149.168 94.5466 149.496 94.5466 150.152C94.5466 150.472 94.6706 150.724 94.9186 150.908C95.1666 151.092 95.5106 151.184 95.9506 151.184ZM107.106 143.096V152H106.002V150.992C105.746 151.344 105.422 151.612 105.03 151.796C104.638 151.98 104.206 152.072 103.734 152.072C103.118 152.072 102.566 151.936 102.078 151.664C101.59 151.392 101.206 151.012 100.926 150.524C100.654 150.028 100.518 149.46 100.518 148.82C100.518 148.18 100.654 147.616 100.926 147.128C101.206 146.64 101.59 146.26 102.078 145.988C102.566 145.716 103.118 145.58 103.734 145.58C104.19 145.58 104.61 145.668 104.994 145.844C105.378 146.012 105.698 146.264 105.954 146.6V143.096H107.106ZM103.83 151.064C104.23 151.064 104.594 150.972 104.922 150.788C105.25 150.596 105.506 150.332 105.69 149.996C105.874 149.652 105.966 149.26 105.966 148.82C105.966 148.38 105.874 147.992 105.69 147.656C105.506 147.312 105.25 147.048 104.922 146.864C104.594 146.68 104.23 146.588 103.83 146.588C103.422 146.588 103.054 146.68 102.726 146.864C102.406 147.048 102.15 147.312 101.958 147.656C101.774 147.992 101.682 148.38 101.682 148.82C101.682 149.26 101.774 149.652 101.958 149.996C102.15 150.332 102.406 150.596 102.726 150.788C103.054 150.972 103.422 151.064 103.83 151.064Z" fill="#008E86"/>
<path d="M62.9832 73.2518L89.7315 9.99999L116.48 73.2518L89.7315 99.9999L62.9832 73.2518Z" fill="#008E86" stroke="#00635D" stroke-width="2" stroke-linejoin="round"/>
<path d="M62.9832 73.2518L89.7315 9.99999V73.2518H62.9832Z" fill="#00D8CC" stroke="#00635D" stroke-width="2" stroke-linejoin="round"/>
<path d="M89.7313 73.2519L89.7314 10L116.48 73.2519L89.7313 73.2519Z" fill="#00D8CC" stroke="#00635D" stroke-width="2" stroke-linejoin="round"/>
<path d="M89.9561 72.8127L89.9561 96.2628" stroke="#00635D" stroke-width="2" stroke-dasharray="4 6"/>
<path d="M107.837 68.7117C108.228 69.1023 108.228 69.7354 107.837 70.1259C107.446 70.5165 106.813 70.5165 106.423 70.126L107.837 68.7117ZM72.6174 70.4188C72.0651 70.4188 71.6174 69.9711 71.6174 69.4188L71.6174 60.4188C71.6174 59.8665 72.0651 59.4188 72.6174 59.4188C73.1697 59.4188 73.6174 59.8665 73.6174 60.4188L73.6174 68.4188L81.6174 68.4187C82.1697 68.4187 82.6174 68.8665 82.6174 69.4187C82.6174 69.971 82.1697 70.4187 81.6174 70.4187L72.6174 70.4188ZM106.423 70.126C101.415 65.1178 95.7588 62.5272 90.0986 62.4519C84.4443 62.3767 78.641 64.8094 73.3245 70.1259L71.9103 68.7117C77.5339 63.088 83.8344 60.3684 90.1252 60.4521C96.4099 60.5357 102.54 63.4151 107.837 68.7117L106.423 70.126Z" fill="black"/>
</g>
<defs>
<clipPath id="clip0_5693_197639">
<rect width="180" height="180" rx="20" fill="white"/>
</clipPath>
<clipPath id="clip1_5693_197639">
<path d="M0 30L-1.31134e-06 0L30 -1.31134e-06L30 10C30 21.0457 21.0457 30 10 30L0 30Z" fill="white"/>
</clipPath>
</defs>
</svg>
