<svg width="180" height="180" viewBox="0 0 180 180" fill="none" xmlns="http://www.w3.org/2000/svg">
<g clip-path="url(#clip0_5693_197619)">
<rect width="180" height="180" rx="20" fill="#F2F2F2"/>
<g clip-path="url(#clip1_5693_197619)">
<path d="M0 30L-1.31134e-06 0L30 -1.31134e-06L30 10C30 21.0457 21.0457 30 10 30L0 30Z" fill="#333333"/>
<path d="M14.7062 14.008C16.2849 14.008 17.4475 14.3227 18.1942 14.952C18.9515 15.5813 19.3302 16.424 19.3302 17.48C19.3302 18.1627 19.1595 18.7867 18.8182 19.352C18.4769 19.9067 17.9542 20.3547 17.2502 20.696C16.5569 21.0267 15.6982 21.192 14.6742 21.192C13.8849 21.192 13.1062 21.0907 12.3382 20.888C11.5809 20.6747 10.9355 20.376 10.4022 19.992L11.4262 18.008C11.8529 18.328 12.3435 18.5787 12.8982 18.76C13.4529 18.9307 14.0235 19.016 14.6102 19.016C15.2609 19.016 15.7729 18.888 16.1462 18.632C16.5195 18.376 16.7062 18.0187 16.7062 17.56C16.7062 17.08 16.5089 16.7173 16.1142 16.472C15.7302 16.2267 15.0582 16.104 14.0982 16.104H11.2342L11.8102 9.8H18.6422V11.88H13.9702L13.7942 14.008H14.7062Z" fill="#F2F2F2"/>
</g>
<path d="M25.2541 120.6H28.7941C29.6821 120.6 30.4701 120.776 31.1581 121.128C31.8461 121.48 32.3781 121.976 32.7541 122.616C33.1381 123.248 33.3301 123.976 33.3301 124.8C33.3301 125.624 33.1381 126.356 32.7541 126.996C32.3781 127.628 31.8461 128.12 31.1581 128.472C30.4701 128.824 29.6821 129 28.7941 129H25.2541V120.6ZM28.7221 127.956C29.4021 127.956 29.9981 127.824 30.5101 127.56C31.0301 127.296 31.4301 126.928 31.7101 126.456C31.9901 125.976 32.1301 125.424 32.1301 124.8C32.1301 124.176 31.9901 123.628 31.7101 123.156C31.4301 122.676 31.0301 122.304 30.5101 122.04C29.9981 121.776 29.4021 121.644 28.7221 121.644H26.4541V127.956H28.7221ZM37.7242 129.072C37.0922 129.072 36.5242 128.932 36.0202 128.652C35.5162 128.372 35.1202 127.988 34.8322 127.5C34.5522 127.004 34.4122 126.444 34.4122 125.82C34.4122 125.196 34.5522 124.64 34.8322 124.152C35.1202 123.656 35.5162 123.272 36.0202 123C36.5242 122.72 37.0922 122.58 37.7242 122.58C38.3562 122.58 38.9202 122.72 39.4162 123C39.9202 123.272 40.3122 123.656 40.5922 124.152C40.8802 124.64 41.0242 125.196 41.0242 125.82C41.0242 126.444 40.8802 127.004 40.5922 127.5C40.3122 127.988 39.9202 128.372 39.4162 128.652C38.9202 128.932 38.3562 129.072 37.7242 129.072ZM37.7242 128.064C38.1322 128.064 38.4962 127.972 38.8162 127.788C39.1442 127.596 39.4002 127.332 39.5842 126.996C39.7682 126.652 39.8602 126.26 39.8602 125.82C39.8602 125.38 39.7682 124.992 39.5842 124.656C39.4002 124.312 39.1442 124.048 38.8162 123.864C38.4962 123.68 38.1322 123.588 37.7242 123.588C37.3162 123.588 36.9482 123.68 36.6202 123.864C36.3002 124.048 36.0442 124.312 35.8522 124.656C35.6682 124.992 35.5762 125.38 35.5762 125.82C35.5762 126.26 35.6682 126.652 35.8522 126.996C36.0442 127.332 36.3002 127.596 36.6202 127.788C36.9482 127.972 37.3162 128.064 37.7242 128.064ZM45.9894 122.58C46.6054 122.58 47.1574 122.716 47.6454 122.988C48.1334 123.26 48.5134 123.64 48.7854 124.128C49.0654 124.616 49.2054 125.18 49.2054 125.82C49.2054 126.46 49.0654 127.028 48.7854 127.524C48.5134 128.012 48.1334 128.392 47.6454 128.664C47.1574 128.936 46.6054 129.072 45.9894 129.072C45.5174 129.072 45.0854 128.98 44.6934 128.796C44.3014 128.612 43.9774 128.344 43.7214 127.992V129H42.6174V120.096H43.7694V123.6C44.0254 123.264 44.3454 123.012 44.7294 122.844C45.1134 122.668 45.5334 122.58 45.9894 122.58ZM45.8934 128.064C46.3014 128.064 46.6654 127.972 46.9854 127.788C47.3134 127.596 47.5694 127.332 47.7534 126.996C47.9454 126.652 48.0414 126.26 48.0414 125.82C48.0414 125.38 47.9454 124.992 47.7534 124.656C47.5694 124.312 47.3134 124.048 46.9854 123.864C46.6654 123.68 46.3014 123.588 45.8934 123.588C45.4934 123.588 45.1294 123.68 44.8014 123.864C44.4734 124.048 44.2174 124.312 44.0334 124.656C43.8494 124.992 43.7574 125.38 43.7574 125.82C43.7574 126.26 43.8494 126.652 44.0334 126.996C44.2174 127.332 44.4734 127.596 44.8014 127.788C45.1294 127.972 45.4934 128.064 45.8934 128.064ZM50.7971 120.096H51.9491V129H50.7971V120.096ZM56.4646 122.58C57.3446 122.58 58.0166 122.796 58.4806 123.228C58.9526 123.66 59.1886 124.304 59.1886 125.16V129H58.0966V128.16C57.9046 128.456 57.6286 128.684 57.2686 128.844C56.9166 128.996 56.4966 129.072 56.0086 129.072C55.2966 129.072 54.7246 128.9 54.2926 128.556C53.8686 128.212 53.6566 127.76 53.6566 127.2C53.6566 126.64 53.8606 126.192 54.2686 125.856C54.6766 125.512 55.3246 125.34 56.2126 125.34H58.0366V125.112C58.0366 124.616 57.8926 124.236 57.6046 123.972C57.3166 123.708 56.8926 123.576 56.3326 123.576C55.9566 123.576 55.5886 123.64 55.2286 123.768C54.8686 123.888 54.5646 124.052 54.3166 124.26L53.8366 123.396C54.1646 123.132 54.5566 122.932 55.0126 122.796C55.4686 122.652 55.9526 122.58 56.4646 122.58ZM56.2006 128.184C56.6406 128.184 57.0206 128.088 57.3406 127.896C57.6606 127.696 57.8926 127.416 58.0366 127.056V126.168H56.2606C55.2846 126.168 54.7966 126.496 54.7966 127.152C54.7966 127.472 54.9206 127.724 55.1686 127.908C55.4166 128.092 55.7606 128.184 56.2006 128.184ZM64.5432 120.096H65.6952V129H64.5432V120.096ZM70.2107 122.58C71.0907 122.58 71.7627 122.796 72.2267 123.228C72.6987 123.66 72.9347 124.304 72.9347 125.16V129H71.8427V128.16C71.6507 128.456 71.3747 128.684 71.0147 128.844C70.6627 128.996 70.2427 129.072 69.7547 129.072C69.0427 129.072 68.4707 128.9 68.0387 128.556C67.6147 128.212 67.4027 127.76 67.4027 127.2C67.4027 126.64 67.6067 126.192 68.0147 125.856C68.4227 125.512 69.0707 125.34 69.9587 125.34H71.7827V125.112C71.7827 124.616 71.6387 124.236 71.3507 123.972C71.0627 123.708 70.6387 123.576 70.0787 123.576C69.7027 123.576 69.3347 123.64 68.9747 123.768C68.6147 123.888 68.3107 124.052 68.0627 124.26L67.5827 123.396C67.9107 123.132 68.3027 122.932 68.7587 122.796C69.2147 122.652 69.6987 122.58 70.2107 122.58ZM69.9467 128.184C70.3867 128.184 70.7667 128.088 71.0867 127.896C71.4067 127.696 71.6387 127.416 71.7827 127.056V126.168H70.0067C69.0307 126.168 68.5427 126.496 68.5427 127.152C68.5427 127.472 68.6667 127.724 68.9147 127.908C69.1627 128.092 69.5067 128.184 69.9467 128.184ZM81.6613 122.58C82.2773 122.58 82.8293 122.716 83.3173 122.988C83.8053 123.26 84.1853 123.64 84.4573 124.128C84.7373 124.616 84.8773 125.18 84.8773 125.82C84.8773 126.46 84.7373 127.028 84.4573 127.524C84.1853 128.012 83.8053 128.392 83.3173 128.664C82.8293 128.936 82.2773 129.072 81.6613 129.072C81.2053 129.072 80.7853 128.984 80.4013 128.808C80.0253 128.632 79.7053 128.376 79.4413 128.04V131.328H78.2893V122.64H79.3933V123.648C79.6493 123.296 79.9733 123.032 80.3653 122.856C80.7573 122.672 81.1893 122.58 81.6613 122.58ZM81.5653 128.064C81.9733 128.064 82.3373 127.972 82.6573 127.788C82.9853 127.596 83.2413 127.332 83.4253 126.996C83.6173 126.652 83.7133 126.26 83.7133 125.82C83.7133 125.38 83.6173 124.992 83.4253 124.656C83.2413 124.312 82.9853 124.048 82.6573 123.864C82.3373 123.68 81.9733 123.588 81.5653 123.588C81.1653 123.588 80.8013 123.684 80.4733 123.876C80.1533 124.06 79.8973 124.32 79.7053 124.656C79.5213 124.992 79.4293 125.38 79.4293 125.82C79.4293 126.26 79.5213 126.652 79.7053 126.996C79.8893 127.332 80.1453 127.596 80.4733 127.788C80.8013 127.972 81.1653 128.064 81.5653 128.064ZM92.397 122.64V129H91.305V128.04C91.073 128.368 90.765 128.624 90.381 128.808C90.005 128.984 89.593 129.072 89.145 129.072C88.297 129.072 87.629 128.84 87.141 128.376C86.653 127.904 86.409 127.212 86.409 126.3V122.64H87.561V126.168C87.561 126.784 87.709 127.252 88.005 127.572C88.301 127.884 88.725 128.04 89.277 128.04C89.885 128.04 90.365 127.856 90.717 127.488C91.069 127.12 91.245 126.6 91.245 125.928V122.64H92.397ZM97.986 122.58C98.794 122.58 99.434 122.816 99.906 123.288C100.386 123.752 100.626 124.436 100.626 125.34V129H99.474V125.472C99.474 124.856 99.326 124.392 99.03 124.08C98.734 123.768 98.31 123.612 97.758 123.612C97.134 123.612 96.642 123.796 96.282 124.164C95.922 124.524 95.742 125.044 95.742 125.724V129H94.59V122.64H95.694V123.6C95.926 123.272 96.238 123.02 96.63 122.844C97.03 122.668 97.482 122.58 97.986 122.58ZM106.334 128.628C106.166 128.772 105.958 128.884 105.71 128.964C105.462 129.036 105.206 129.072 104.942 129.072C104.302 129.072 103.806 128.9 103.454 128.556C103.102 128.212 102.926 127.72 102.926 127.08V123.588H101.846V122.64H102.926V121.248H104.078V122.64H105.902V123.588H104.078V127.032C104.078 127.376 104.162 127.64 104.33 127.824C104.506 128.008 104.754 128.1 105.074 128.1C105.426 128.1 105.726 128 105.974 127.8L106.334 128.628ZM110.043 122.58C110.923 122.58 111.595 122.796 112.059 123.228C112.531 123.66 112.767 124.304 112.767 125.16V129H111.675V128.16C111.483 128.456 111.207 128.684 110.847 128.844C110.495 128.996 110.075 129.072 109.587 129.072C108.875 129.072 108.303 128.9 107.871 128.556C107.447 128.212 107.235 127.76 107.235 127.2C107.235 126.64 107.439 126.192 107.847 125.856C108.255 125.512 108.903 125.34 109.791 125.34H111.615V125.112C111.615 124.616 111.471 124.236 111.183 123.972C110.895 123.708 110.471 123.576 109.911 123.576C109.535 123.576 109.167 123.64 108.807 123.768C108.447 123.888 108.143 124.052 107.895 124.26L107.415 123.396C107.743 123.132 108.135 122.932 108.591 122.796C109.047 122.652 109.531 122.58 110.043 122.58ZM109.779 128.184C110.219 128.184 110.599 128.088 110.919 127.896C111.239 127.696 111.471 127.416 111.615 127.056V126.168H109.839C108.863 126.168 108.375 126.496 108.375 127.152C108.375 127.472 108.499 127.724 108.747 127.908C108.995 128.092 109.339 128.184 109.779 128.184ZM124.121 122.64V131.328H122.969V128.04C122.705 128.376 122.381 128.632 121.997 128.808C121.621 128.984 121.205 129.072 120.749 129.072C120.133 129.072 119.581 128.936 119.093 128.664C118.605 128.392 118.221 128.012 117.941 127.524C117.669 127.028 117.533 126.46 117.533 125.82C117.533 125.18 117.669 124.616 117.941 124.128C118.221 123.64 118.605 123.26 119.093 122.988C119.581 122.716 120.133 122.58 120.749 122.58C121.221 122.58 121.653 122.672 122.045 122.856C122.437 123.032 122.761 123.296 123.017 123.648V122.64H124.121ZM120.845 128.064C121.245 128.064 121.609 127.972 121.937 127.788C122.265 127.596 122.521 127.332 122.705 126.996C122.889 126.652 122.981 126.26 122.981 125.82C122.981 125.38 122.885 124.992 122.693 124.656C122.509 124.32 122.253 124.06 121.925 123.876C121.605 123.684 121.245 123.588 120.845 123.588C120.437 123.588 120.069 123.68 119.741 123.864C119.421 124.048 119.165 124.312 118.973 124.656C118.789 124.992 118.697 125.38 118.697 125.82C118.697 126.26 118.789 126.652 118.973 126.996C119.165 127.332 119.421 127.596 119.741 127.788C120.069 127.972 120.437 128.064 120.845 128.064ZM132.229 122.64V129H131.137V128.04C130.905 128.368 130.597 128.624 130.213 128.808C129.837 128.984 129.425 129.072 128.977 129.072C128.129 129.072 127.461 128.84 126.973 128.376C126.485 127.904 126.241 127.212 126.241 126.3V122.64H127.393V126.168C127.393 126.784 127.541 127.252 127.837 127.572C128.133 127.884 128.557 128.04 129.109 128.04C129.717 128.04 130.197 127.856 130.549 127.488C130.901 127.12 131.077 126.6 131.077 125.928V122.64H132.229ZM140.17 125.856C140.17 125.944 140.162 126.06 140.146 126.204H134.986C135.058 126.764 135.302 127.216 135.718 127.56C136.142 127.896 136.666 128.064 137.29 128.064C138.05 128.064 138.662 127.808 139.126 127.296L139.762 128.04C139.474 128.376 139.114 128.632 138.682 128.808C138.258 128.984 137.782 129.072 137.254 129.072C136.582 129.072 135.986 128.936 135.466 128.664C134.946 128.384 134.542 127.996 134.254 127.5C133.974 127.004 133.834 126.444 133.834 125.82C133.834 125.204 133.97 124.648 134.242 124.152C134.522 123.656 134.902 123.272 135.382 123C135.87 122.72 136.418 122.58 137.026 122.58C137.634 122.58 138.174 122.72 138.646 123C139.126 123.272 139.498 123.656 139.762 124.152C140.034 124.648 140.17 125.216 140.17 125.856ZM137.026 123.552C136.474 123.552 136.01 123.72 135.634 124.056C135.266 124.392 135.05 124.832 134.986 125.376H139.066C139.002 124.84 138.782 124.404 138.406 124.068C138.038 123.724 137.578 123.552 137.026 123.552ZM148.568 128.628C148.4 128.772 148.192 128.884 147.944 128.964C147.696 129.036 147.44 129.072 147.176 129.072C146.536 129.072 146.04 128.9 145.688 128.556C145.336 128.212 145.16 127.72 145.16 127.08V123.588H144.08V122.64H145.16V121.248H146.312V122.64H148.136V123.588H146.312V127.032C146.312 127.376 146.396 127.64 146.564 127.824C146.74 128.008 146.988 128.1 147.308 128.1C147.66 128.1 147.96 128 148.208 127.8L148.568 128.628ZM155.498 125.856C155.498 125.944 155.49 126.06 155.474 126.204H150.314C150.386 126.764 150.63 127.216 151.046 127.56C151.47 127.896 151.994 128.064 152.618 128.064C153.378 128.064 153.99 127.808 154.454 127.296L155.09 128.04C154.802 128.376 154.442 128.632 154.01 128.808C153.586 128.984 153.11 129.072 152.582 129.072C151.91 129.072 151.314 128.936 150.794 128.664C150.274 128.384 149.87 127.996 149.582 127.5C149.302 127.004 149.162 126.444 149.162 125.82C149.162 125.204 149.298 124.648 149.57 124.152C149.85 123.656 150.23 123.272 150.71 123C151.198 122.72 151.746 122.58 152.354 122.58C152.962 122.58 153.502 122.72 153.974 123C154.454 123.272 154.826 123.656 155.09 124.152C155.362 124.648 155.498 125.216 155.498 125.856ZM152.354 123.552C151.802 123.552 151.338 123.72 150.962 124.056C150.594 124.392 150.378 124.832 150.314 125.376H154.394C154.33 124.84 154.11 124.404 153.734 124.068C153.366 123.724 152.906 123.552 152.354 123.552ZM23.5158 137.64H24.6678V144H23.5158V137.64ZM24.0918 136.416C23.8678 136.416 23.6798 136.344 23.5278 136.2C23.3838 136.056 23.3118 135.88 23.3118 135.672C23.3118 135.464 23.3838 135.288 23.5278 135.144C23.6798 134.992 23.8678 134.916 24.0918 134.916C24.3158 134.916 24.4998 134.988 24.6438 135.132C24.7958 135.268 24.8718 135.44 24.8718 135.648C24.8718 135.864 24.7958 136.048 24.6438 136.2C24.4998 136.344 24.3158 136.416 24.0918 136.416ZM30.2634 137.58C31.0714 137.58 31.7114 137.816 32.1834 138.288C32.6634 138.752 32.9034 139.436 32.9034 140.34V144H31.7514V140.472C31.7514 139.856 31.6034 139.392 31.3074 139.08C31.0114 138.768 30.5874 138.612 30.0354 138.612C29.4114 138.612 28.9194 138.796 28.5594 139.164C28.1994 139.524 28.0194 140.044 28.0194 140.724V144H26.8674V137.64H27.9714V138.6C28.2034 138.272 28.5154 138.02 28.9074 137.844C29.3074 137.668 29.7594 137.58 30.2634 137.58ZM41.0705 135.096V144H39.9665V142.992C39.7105 143.344 39.3865 143.612 38.9945 143.796C38.6025 143.98 38.1705 144.072 37.6985 144.072C37.0825 144.072 36.5305 143.936 36.0425 143.664C35.5545 143.392 35.1705 143.012 34.8905 142.524C34.6185 142.028 34.4825 141.46 34.4825 140.82C34.4825 140.18 34.6185 139.616 34.8905 139.128C35.1705 138.64 35.5545 138.26 36.0425 137.988C36.5305 137.716 37.0825 137.58 37.6985 137.58C38.1545 137.58 38.5745 137.668 38.9585 137.844C39.3425 138.012 39.6625 138.264 39.9185 138.6V135.096H41.0705ZM37.7945 143.064C38.1945 143.064 38.5585 142.972 38.8865 142.788C39.2145 142.596 39.4705 142.332 39.6545 141.996C39.8385 141.652 39.9305 141.26 39.9305 140.82C39.9305 140.38 39.8385 139.992 39.6545 139.656C39.4705 139.312 39.2145 139.048 38.8865 138.864C38.5585 138.68 38.1945 138.588 37.7945 138.588C37.3865 138.588 37.0185 138.68 36.6905 138.864C36.3705 139.048 36.1145 139.312 35.9225 139.656C35.7385 139.992 35.6465 140.38 35.6465 140.82C35.6465 141.26 35.7385 141.652 35.9225 141.996C36.1145 142.332 36.3705 142.596 36.6905 142.788C37.0185 142.972 37.3865 143.064 37.7945 143.064ZM43.2502 137.64H44.4022V144H43.2502V137.64ZM43.8262 136.416C43.6022 136.416 43.4142 136.344 43.2622 136.2C43.1182 136.056 43.0462 135.88 43.0462 135.672C43.0462 135.464 43.1182 135.288 43.2622 135.144C43.4142 134.992 43.6022 134.916 43.8262 134.916C44.0502 134.916 44.2342 134.988 44.3782 135.132C44.5302 135.268 44.6062 135.44 44.6062 135.648C44.6062 135.864 44.5302 136.048 44.3782 136.2C44.2342 136.344 44.0502 136.416 43.8262 136.416ZM49.3738 144.072C48.7258 144.072 48.1458 143.932 47.6338 143.652C47.1298 143.372 46.7338 142.988 46.4458 142.5C46.1578 142.004 46.0138 141.444 46.0138 140.82C46.0138 140.196 46.1578 139.64 46.4458 139.152C46.7338 138.656 47.1298 138.272 47.6338 138C48.1458 137.72 48.7258 137.58 49.3738 137.58C49.9498 137.58 50.4618 137.696 50.9098 137.928C51.3658 138.16 51.7178 138.496 51.9658 138.936L51.0898 139.5C50.8898 139.196 50.6418 138.968 50.3458 138.816C50.0498 138.664 49.7218 138.588 49.3618 138.588C48.9458 138.588 48.5698 138.68 48.2338 138.864C47.9058 139.048 47.6458 139.312 47.4538 139.656C47.2698 139.992 47.1778 140.38 47.1778 140.82C47.1778 141.268 47.2698 141.664 47.4538 142.008C47.6458 142.344 47.9058 142.604 48.2338 142.788C48.5698 142.972 48.9458 143.064 49.3618 143.064C49.7218 143.064 50.0498 142.988 50.3458 142.836C50.6418 142.684 50.8898 142.456 51.0898 142.152L51.9658 142.704C51.7178 143.144 51.3658 143.484 50.9098 143.724C50.4618 143.956 49.9498 144.072 49.3738 144.072ZM55.7732 137.58C56.6532 137.58 57.3252 137.796 57.7892 138.228C58.2612 138.66 58.4972 139.304 58.4972 140.16V144H57.4052V143.16C57.2132 143.456 56.9372 143.684 56.5772 143.844C56.2252 143.996 55.8052 144.072 55.3172 144.072C54.6052 144.072 54.0332 143.9 53.6012 143.556C53.1772 143.212 52.9652 142.76 52.9652 142.2C52.9652 141.64 53.1692 141.192 53.5772 140.856C53.9852 140.512 54.6332 140.34 55.5212 140.34H57.3452V140.112C57.3452 139.616 57.2012 139.236 56.9132 138.972C56.6252 138.708 56.2012 138.576 55.6412 138.576C55.2652 138.576 54.8972 138.64 54.5372 138.768C54.1772 138.888 53.8732 139.052 53.6252 139.26L53.1452 138.396C53.4732 138.132 53.8652 137.932 54.3212 137.796C54.7772 137.652 55.2612 137.58 55.7732 137.58ZM55.5092 143.184C55.9492 143.184 56.3292 143.088 56.6492 142.896C56.9692 142.696 57.2012 142.416 57.3452 142.056V141.168H55.5692C54.5932 141.168 54.1052 141.496 54.1052 142.152C54.1052 142.472 54.2292 142.724 54.4772 142.908C54.7252 143.092 55.0692 143.184 55.5092 143.184ZM69.5998 140.856C69.5998 140.944 69.5918 141.06 69.5758 141.204H64.4158C64.4878 141.764 64.7318 142.216 65.1478 142.56C65.5718 142.896 66.0958 143.064 66.7198 143.064C67.4798 143.064 68.0918 142.808 68.5558 142.296L69.1918 143.04C68.9038 143.376 68.5438 143.632 68.1118 143.808C67.6878 143.984 67.2118 144.072 66.6838 144.072C66.0118 144.072 65.4158 143.936 64.8958 143.664C64.3758 143.384 63.9718 142.996 63.6838 142.5C63.4038 142.004 63.2638 141.444 63.2638 140.82C63.2638 140.204 63.3998 139.648 63.6718 139.152C63.9518 138.656 64.3318 138.272 64.8118 138C65.2998 137.72 65.8478 137.58 66.4558 137.58C67.0638 137.58 67.6038 137.72 68.0758 138C68.5558 138.272 68.9278 138.656 69.1918 139.152C69.4638 139.648 69.5998 140.216 69.5998 140.856ZM66.4558 138.552C65.9038 138.552 65.4398 138.72 65.0638 139.056C64.6958 139.392 64.4798 139.832 64.4158 140.376H68.4958C68.4318 139.84 68.2118 139.404 67.8358 139.068C67.4678 138.724 67.0078 138.552 66.4558 138.552ZM71.1994 135.096H72.3514V144H71.1994V135.096ZM83.8576 137.64V143.136C83.8576 144.248 83.5816 145.068 83.0296 145.596C82.4776 146.132 81.6536 146.4 80.5576 146.4C79.9576 146.4 79.3856 146.316 78.8416 146.148C78.2976 145.988 77.8576 145.756 77.5216 145.452L78.0736 144.564C78.3696 144.82 78.7336 145.02 79.1656 145.164C79.6056 145.316 80.0576 145.392 80.5216 145.392C81.2656 145.392 81.8136 145.216 82.1656 144.864C82.5256 144.512 82.7056 143.976 82.7056 143.256V142.752C82.4336 143.08 82.0976 143.328 81.6976 143.496C81.3056 143.656 80.8776 143.736 80.4136 143.736C79.8056 143.736 79.2536 143.608 78.7576 143.352C78.2696 143.088 77.8856 142.724 77.6056 142.26C77.3256 141.788 77.1856 141.252 77.1856 140.652C77.1856 140.052 77.3256 139.52 77.6056 139.056C77.8856 138.584 78.2696 138.22 78.7576 137.964C79.2536 137.708 79.8056 137.58 80.4136 137.58C80.8936 137.58 81.3376 137.668 81.7456 137.844C82.1616 138.02 82.5016 138.28 82.7656 138.624V137.64H83.8576ZM80.5456 142.728C80.9616 142.728 81.3336 142.64 81.6616 142.464C81.9976 142.288 82.2576 142.044 82.4416 141.732C82.6336 141.412 82.7296 141.052 82.7296 140.652C82.7296 140.036 82.5256 139.54 82.1176 139.164C81.7096 138.78 81.1856 138.588 80.5456 138.588C79.8976 138.588 79.3696 138.78 78.9616 139.164C78.5536 139.54 78.3496 140.036 78.3496 140.652C78.3496 141.052 78.4416 141.412 78.6256 141.732C78.8176 142.044 79.0776 142.288 79.4056 142.464C79.7416 142.64 80.1216 142.728 80.5456 142.728ZM87.1628 138.708C87.3628 138.34 87.6588 138.06 88.0508 137.868C88.4428 137.676 88.9188 137.58 89.4788 137.58V138.696C89.4148 138.688 89.3268 138.684 89.2148 138.684C88.5908 138.684 88.0988 138.872 87.7388 139.248C87.3868 139.616 87.2108 140.144 87.2108 140.832V144H86.0588V137.64H87.1628V138.708ZM93.2029 137.58C94.0829 137.58 94.7549 137.796 95.2189 138.228C95.6909 138.66 95.9269 139.304 95.9269 140.16V144H94.8349V143.16C94.6429 143.456 94.3669 143.684 94.0069 143.844C93.6549 143.996 93.2349 144.072 92.7469 144.072C92.0349 144.072 91.4629 143.9 91.0309 143.556C90.6069 143.212 90.3949 142.76 90.3949 142.2C90.3949 141.64 90.5989 141.192 91.0069 140.856C91.4149 140.512 92.0629 140.34 92.9509 140.34H94.7749V140.112C94.7749 139.616 94.6309 139.236 94.3429 138.972C94.0549 138.708 93.6309 138.576 93.0709 138.576C92.6949 138.576 92.3269 138.64 91.9669 138.768C91.6069 138.888 91.3029 139.052 91.0549 139.26L90.5749 138.396C90.9029 138.132 91.2949 137.932 91.7509 137.796C92.2069 137.652 92.6909 137.58 93.2029 137.58ZM92.9389 143.184C93.3789 143.184 93.7589 143.088 94.0789 142.896C94.3989 142.696 94.6309 142.416 94.7749 142.056V141.168H92.9989C92.0229 141.168 91.5349 141.496 91.5349 142.152C91.5349 142.472 91.6589 142.724 91.9069 142.908C92.1549 143.092 92.4989 143.184 92.9389 143.184ZM94.0189 135.156H95.4829L93.4669 136.716H92.3869L94.0189 135.156ZM100.387 135.972C99.6988 135.972 99.3548 136.344 99.3548 137.088V137.64H101.203V138.588H99.3788V144H98.2268V138.588H97.1468V137.64H98.2268V137.076C98.2268 136.444 98.4108 135.944 98.7788 135.576C99.1468 135.208 99.6628 135.024 100.327 135.024C100.583 135.024 100.823 135.056 101.047 135.12C101.271 135.184 101.463 135.276 101.623 135.396L101.275 136.272C101.011 136.072 100.715 135.972 100.387 135.972ZM103.255 137.64H104.407V144H103.255V137.64ZM103.831 136.416C103.607 136.416 103.419 136.344 103.267 136.2C103.123 136.056 103.051 135.88 103.051 135.672C103.051 135.464 103.123 135.288 103.267 135.144C103.419 134.992 103.607 134.916 103.831 134.916C104.055 134.916 104.239 134.988 104.383 135.132C104.535 135.268 104.611 135.44 104.611 135.648C104.611 135.864 104.535 136.048 104.383 136.2C104.239 136.344 104.055 136.416 103.831 136.416ZM109.374 144.072C108.726 144.072 108.146 143.932 107.634 143.652C107.13 143.372 106.734 142.988 106.446 142.5C106.158 142.004 106.014 141.444 106.014 140.82C106.014 140.196 106.158 139.64 106.446 139.152C106.734 138.656 107.13 138.272 107.634 138C108.146 137.72 108.726 137.58 109.374 137.58C109.95 137.58 110.462 137.696 110.91 137.928C111.366 138.16 111.718 138.496 111.966 138.936L111.09 139.5C110.89 139.196 110.642 138.968 110.346 138.816C110.05 138.664 109.722 138.588 109.362 138.588C108.946 138.588 108.57 138.68 108.234 138.864C107.906 139.048 107.646 139.312 107.454 139.656C107.27 139.992 107.178 140.38 107.178 140.82C107.178 141.268 107.27 141.664 107.454 142.008C107.646 142.344 107.906 142.604 108.234 142.788C108.57 142.972 108.946 143.064 109.362 143.064C109.722 143.064 110.05 142.988 110.346 142.836C110.642 142.684 110.89 142.456 111.09 142.152L111.966 142.704C111.718 143.144 111.366 143.484 110.91 143.724C110.462 143.956 109.95 144.072 109.374 144.072ZM116.087 144.072C115.455 144.072 114.887 143.932 114.383 143.652C113.879 143.372 113.483 142.988 113.195 142.5C112.915 142.004 112.775 141.444 112.775 140.82C112.775 140.196 112.915 139.64 113.195 139.152C113.483 138.656 113.879 138.272 114.383 138C114.887 137.72 115.455 137.58 116.087 137.58C116.719 137.58 117.283 137.72 117.779 138C118.283 138.272 118.675 138.656 118.955 139.152C119.243 139.64 119.387 140.196 119.387 140.82C119.387 141.444 119.243 142.004 118.955 142.5C118.675 142.988 118.283 143.372 117.779 143.652C117.283 143.932 116.719 144.072 116.087 144.072ZM116.087 143.064C116.495 143.064 116.859 142.972 117.179 142.788C117.507 142.596 117.763 142.332 117.947 141.996C118.131 141.652 118.223 141.26 118.223 140.82C118.223 140.38 118.131 139.992 117.947 139.656C117.763 139.312 117.507 139.048 117.179 138.864C116.859 138.68 116.495 138.588 116.087 138.588C115.679 138.588 115.311 138.68 114.983 138.864C114.663 139.048 114.407 139.312 114.215 139.656C114.031 139.992 113.939 140.38 113.939 140.82C113.939 141.26 114.031 141.652 114.215 141.996C114.407 142.332 114.663 142.596 114.983 142.788C115.311 142.972 115.679 143.064 116.087 143.064ZM127.575 137.58C128.191 137.58 128.743 137.716 129.231 137.988C129.719 138.26 130.099 138.64 130.371 139.128C130.651 139.616 130.791 140.18 130.791 140.82C130.791 141.46 130.651 142.028 130.371 142.524C130.099 143.012 129.719 143.392 129.231 143.664C128.743 143.936 128.191 144.072 127.575 144.072C127.119 144.072 126.699 143.984 126.315 143.808C125.939 143.632 125.619 143.376 125.355 143.04V146.328H124.203V137.64H125.307V138.648C125.563 138.296 125.887 138.032 126.279 137.856C126.671 137.672 127.103 137.58 127.575 137.58ZM127.479 143.064C127.887 143.064 128.251 142.972 128.571 142.788C128.899 142.596 129.155 142.332 129.339 141.996C129.531 141.652 129.627 141.26 129.627 140.82C129.627 140.38 129.531 139.992 129.339 139.656C129.155 139.312 128.899 139.048 128.571 138.864C128.251 138.68 127.887 138.588 127.479 138.588C127.079 138.588 126.715 138.684 126.387 138.876C126.067 139.06 125.811 139.32 125.619 139.656C125.435 139.992 125.343 140.38 125.343 140.82C125.343 141.26 125.435 141.652 125.619 141.996C125.803 142.332 126.059 142.596 126.387 142.788C126.715 142.972 127.079 143.064 127.479 143.064ZM135.107 144.072C134.475 144.072 133.907 143.932 133.403 143.652C132.899 143.372 132.503 142.988 132.215 142.5C131.935 142.004 131.795 141.444 131.795 140.82C131.795 140.196 131.935 139.64 132.215 139.152C132.503 138.656 132.899 138.272 133.403 138C133.907 137.72 134.475 137.58 135.107 137.58C135.739 137.58 136.303 137.72 136.799 138C137.303 138.272 137.695 138.656 137.975 139.152C138.263 139.64 138.407 140.196 138.407 140.82C138.407 141.444 138.263 142.004 137.975 142.5C137.695 142.988 137.303 143.372 136.799 143.652C136.303 143.932 135.739 144.072 135.107 144.072ZM135.107 143.064C135.515 143.064 135.879 142.972 136.199 142.788C136.527 142.596 136.783 142.332 136.967 141.996C137.151 141.652 137.243 141.26 137.243 140.82C137.243 140.38 137.151 139.992 136.967 139.656C136.783 139.312 136.527 139.048 136.199 138.864C135.879 138.68 135.515 138.588 135.107 138.588C134.699 138.588 134.331 138.68 134.003 138.864C133.683 139.048 133.427 139.312 133.235 139.656C133.051 139.992 132.959 140.38 132.959 140.82C132.959 141.26 133.051 141.652 133.235 141.996C133.427 142.332 133.683 142.596 134.003 142.788C134.331 142.972 134.699 143.064 135.107 143.064ZM141.104 138.708C141.304 138.34 141.6 138.06 141.992 137.868C142.384 137.676 142.86 137.58 143.42 137.58V138.696C143.356 138.688 143.268 138.684 143.156 138.684C142.532 138.684 142.04 138.872 141.68 139.248C141.328 139.616 141.152 140.144 141.152 140.832V144H140V137.64H141.104V138.708ZM148.145 135.096H149.297V144H148.145V135.096ZM153.812 137.58C154.692 137.58 155.364 137.796 155.828 138.228C156.3 138.66 156.536 139.304 156.536 140.16V144H155.444V143.16C155.252 143.456 154.976 143.684 154.616 143.844C154.264 143.996 153.844 144.072 153.356 144.072C152.644 144.072 152.072 143.9 151.64 143.556C151.216 143.212 151.004 142.76 151.004 142.2C151.004 141.64 151.208 141.192 151.616 140.856C152.024 140.512 152.672 140.34 153.56 140.34H155.384V140.112C155.384 139.616 155.24 139.236 154.952 138.972C154.664 138.708 154.24 138.576 153.68 138.576C153.304 138.576 152.936 138.64 152.576 138.768C152.216 138.888 151.912 139.052 151.664 139.26L151.184 138.396C151.512 138.132 151.904 137.932 152.36 137.796C152.816 137.652 153.3 137.58 153.812 137.58ZM153.548 143.184C153.988 143.184 154.368 143.088 154.688 142.896C155.008 142.696 155.24 142.416 155.384 142.056V141.168H153.608C152.632 141.168 152.144 141.496 152.144 142.152C152.144 142.472 152.268 142.724 152.516 142.908C152.764 143.092 153.108 143.184 153.548 143.184ZM44.0178 150.096H45.1698V159H44.0178V150.096ZM47.3693 152.64H48.5213V159H47.3693V152.64ZM48.6773 150.156H50.1413L48.1253 151.716H47.0453L48.6773 150.156ZM54.1169 152.58C54.9249 152.58 55.5649 152.816 56.0369 153.288C56.5169 153.752 56.7569 154.436 56.7569 155.34V159H55.6049V155.472C55.6049 154.856 55.4569 154.392 55.1609 154.08C54.8649 153.768 54.4409 153.612 53.8889 153.612C53.2649 153.612 52.7729 153.796 52.4129 154.164C52.0529 154.524 51.8729 155.044 51.8729 155.724V159H50.7209V152.64H51.8249V153.6C52.0569 153.272 52.3689 153.02 52.7609 152.844C53.1609 152.668 53.6129 152.58 54.1169 152.58ZM64.672 155.856C64.672 155.944 64.664 156.06 64.648 156.204H59.488C59.56 156.764 59.804 157.216 60.22 157.56C60.644 157.896 61.168 158.064 61.792 158.064C62.552 158.064 63.164 157.808 63.628 157.296L64.264 158.04C63.976 158.376 63.616 158.632 63.184 158.808C62.76 158.984 62.284 159.072 61.756 159.072C61.084 159.072 60.488 158.936 59.968 158.664C59.448 158.384 59.044 157.996 58.756 157.5C58.476 157.004 58.336 156.444 58.336 155.82C58.336 155.204 58.472 154.648 58.744 154.152C59.024 153.656 59.404 153.272 59.884 153C60.372 152.72 60.92 152.58 61.528 152.58C62.136 152.58 62.676 152.72 63.148 153C63.628 153.272 64 153.656 64.264 154.152C64.536 154.648 64.672 155.216 64.672 155.856ZM61.528 153.552C60.976 153.552 60.512 153.72 60.136 154.056C59.768 154.392 59.552 154.832 59.488 155.376H63.568C63.504 154.84 63.284 154.404 62.908 154.068C62.54 153.724 62.08 153.552 61.528 153.552ZM68.4119 152.58C69.2919 152.58 69.9639 152.796 70.4279 153.228C70.8999 153.66 71.1359 154.304 71.1359 155.16V159H70.0439V158.16C69.8519 158.456 69.5759 158.684 69.2159 158.844C68.8639 158.996 68.4439 159.072 67.9559 159.072C67.2439 159.072 66.6719 158.9 66.2399 158.556C65.8159 158.212 65.6039 157.76 65.6039 157.2C65.6039 156.64 65.8079 156.192 66.2159 155.856C66.6239 155.512 67.2719 155.34 68.1599 155.34H69.9839V155.112C69.9839 154.616 69.8399 154.236 69.5519 153.972C69.2639 153.708 68.8399 153.576 68.2799 153.576C67.9039 153.576 67.5359 153.64 67.1759 153.768C66.8159 153.888 66.5119 154.052 66.2639 154.26L65.7839 153.396C66.1119 153.132 66.5039 152.932 66.9599 152.796C67.4159 152.652 67.8999 152.58 68.4119 152.58ZM68.1479 158.184C68.5879 158.184 68.9679 158.088 69.2879 157.896C69.6079 157.696 69.8399 157.416 69.9839 157.056V156.168H68.2079C67.2319 156.168 66.7439 156.496 66.7439 157.152C66.7439 157.472 66.8679 157.724 67.1159 157.908C67.3639 158.092 67.7079 158.184 68.1479 158.184ZM79.8624 152.58C80.4784 152.58 81.0304 152.716 81.5184 152.988C82.0064 153.26 82.3864 153.64 82.6584 154.128C82.9384 154.616 83.0784 155.18 83.0784 155.82C83.0784 156.46 82.9384 157.028 82.6584 157.524C82.3864 158.012 82.0064 158.392 81.5184 158.664C81.0304 158.936 80.4784 159.072 79.8624 159.072C79.4064 159.072 78.9864 158.984 78.6024 158.808C78.2264 158.632 77.9064 158.376 77.6424 158.04V161.328H76.4904V152.64H77.5944V153.648C77.8504 153.296 78.1744 153.032 78.5664 152.856C78.9584 152.672 79.3904 152.58 79.8624 152.58ZM79.7664 158.064C80.1744 158.064 80.5384 157.972 80.8584 157.788C81.1864 157.596 81.4424 157.332 81.6264 156.996C81.8184 156.652 81.9144 156.26 81.9144 155.82C81.9144 155.38 81.8184 154.992 81.6264 154.656C81.4424 154.312 81.1864 154.048 80.8584 153.864C80.5384 153.68 80.1744 153.588 79.7664 153.588C79.3664 153.588 79.0024 153.684 78.6744 153.876C78.3544 154.06 78.0984 154.32 77.9064 154.656C77.7224 154.992 77.6304 155.38 77.6304 155.82C77.6304 156.26 77.7224 156.652 77.9064 156.996C78.0904 157.332 78.3464 157.596 78.6744 157.788C79.0024 157.972 79.3664 158.064 79.7664 158.064ZM90.5981 152.64V159H89.5061V158.04C89.2741 158.368 88.9661 158.624 88.5821 158.808C88.2061 158.984 87.7941 159.072 87.3461 159.072C86.4981 159.072 85.8301 158.84 85.3421 158.376C84.8541 157.904 84.6101 157.212 84.6101 156.3V152.64H85.7621V156.168C85.7621 156.784 85.9101 157.252 86.2061 157.572C86.5021 157.884 86.9261 158.04 87.4781 158.04C88.0861 158.04 88.5661 157.856 88.9181 157.488C89.2701 157.12 89.4461 156.6 89.4461 155.928V152.64H90.5981ZM96.1872 152.58C96.9952 152.58 97.6352 152.816 98.1072 153.288C98.5872 153.752 98.8272 154.436 98.8272 155.34V159H97.6752V155.472C97.6752 154.856 97.5272 154.392 97.2312 154.08C96.9352 153.768 96.5112 153.612 95.9592 153.612C95.3352 153.612 94.8432 153.796 94.4832 154.164C94.1232 154.524 93.9432 155.044 93.9432 155.724V159H92.7912V152.64H93.8952V153.6C94.1272 153.272 94.4392 153.02 94.8312 152.844C95.2312 152.668 95.6832 152.58 96.1872 152.58ZM104.535 158.628C104.367 158.772 104.159 158.884 103.911 158.964C103.663 159.036 103.407 159.072 103.143 159.072C102.503 159.072 102.007 158.9 101.655 158.556C101.303 158.212 101.127 157.72 101.127 157.08V153.588H100.047V152.64H101.127V151.248H102.279V152.64H104.103V153.588H102.279V157.032C102.279 157.376 102.363 157.64 102.531 157.824C102.707 158.008 102.955 158.1 103.275 158.1C103.627 158.1 103.927 158 104.175 157.8L104.535 158.628ZM111.465 155.856C111.465 155.944 111.457 156.06 111.441 156.204H106.281C106.353 156.764 106.597 157.216 107.013 157.56C107.437 157.896 107.961 158.064 108.585 158.064C109.345 158.064 109.957 157.808 110.421 157.296L111.057 158.04C110.769 158.376 110.409 158.632 109.977 158.808C109.553 158.984 109.077 159.072 108.549 159.072C107.877 159.072 107.281 158.936 106.761 158.664C106.241 158.384 105.837 157.996 105.549 157.5C105.269 157.004 105.129 156.444 105.129 155.82C105.129 155.204 105.265 154.648 105.537 154.152C105.817 153.656 106.197 153.272 106.677 153C107.165 152.72 107.713 152.58 108.321 152.58C108.929 152.58 109.469 152.72 109.941 153C110.421 153.272 110.793 153.656 111.057 154.152C111.329 154.648 111.465 155.216 111.465 155.856ZM108.321 153.552C107.769 153.552 107.305 153.72 106.929 154.056C106.561 154.392 106.345 154.832 106.281 155.376H110.361C110.297 154.84 110.077 154.404 109.701 154.068C109.333 153.724 108.873 153.552 108.321 153.552ZM115.205 152.58C116.085 152.58 116.757 152.796 117.221 153.228C117.693 153.66 117.929 154.304 117.929 155.16V159H116.837V158.16C116.645 158.456 116.369 158.684 116.009 158.844C115.657 158.996 115.237 159.072 114.749 159.072C114.037 159.072 113.465 158.9 113.033 158.556C112.609 158.212 112.397 157.76 112.397 157.2C112.397 156.64 112.601 156.192 113.009 155.856C113.417 155.512 114.065 155.34 114.953 155.34H116.777V155.112C116.777 154.616 116.633 154.236 116.345 153.972C116.057 153.708 115.633 153.576 115.073 153.576C114.697 153.576 114.329 153.64 113.969 153.768C113.609 153.888 113.305 154.052 113.057 154.26L112.577 153.396C112.905 153.132 113.297 152.932 113.753 152.796C114.209 152.652 114.693 152.58 115.205 152.58ZM114.941 158.184C115.381 158.184 115.761 158.088 116.081 157.896C116.401 157.696 116.633 157.416 116.777 157.056V156.168H115.001C114.025 156.168 113.537 156.496 113.537 157.152C113.537 157.472 113.661 157.724 113.909 157.908C114.157 158.092 114.501 158.184 114.941 158.184ZM126.096 150.096V159H124.992V157.992C124.736 158.344 124.412 158.612 124.02 158.796C123.628 158.98 123.196 159.072 122.724 159.072C122.108 159.072 121.556 158.936 121.068 158.664C120.58 158.392 120.196 158.012 119.916 157.524C119.644 157.028 119.508 156.46 119.508 155.82C119.508 155.18 119.644 154.616 119.916 154.128C120.196 153.64 120.58 153.26 121.068 152.988C121.556 152.716 122.108 152.58 122.724 152.58C123.18 152.58 123.6 152.668 123.984 152.844C124.368 153.012 124.688 153.264 124.944 153.6V150.096H126.096ZM122.82 158.064C123.22 158.064 123.584 157.972 123.912 157.788C124.24 157.596 124.496 157.332 124.68 156.996C124.864 156.652 124.956 156.26 124.956 155.82C124.956 155.38 124.864 154.992 124.68 154.656C124.496 154.312 124.24 154.048 123.912 153.864C123.584 153.68 123.22 153.588 122.82 153.588C122.412 153.588 122.044 153.68 121.716 153.864C121.396 154.048 121.14 154.312 120.948 154.656C120.764 154.992 120.672 155.38 120.672 155.82C120.672 156.26 120.764 156.652 120.948 156.996C121.14 157.332 121.396 157.596 121.716 157.788C122.044 157.972 122.412 158.064 122.82 158.064ZM130.592 152.58C131.472 152.58 132.144 152.796 132.608 153.228C133.08 153.66 133.316 154.304 133.316 155.16V159H132.224V158.16C132.032 158.456 131.756 158.684 131.396 158.844C131.044 158.996 130.624 159.072 130.136 159.072C129.424 159.072 128.852 158.9 128.42 158.556C127.996 158.212 127.784 157.76 127.784 157.2C127.784 156.64 127.988 156.192 128.396 155.856C128.804 155.512 129.452 155.34 130.34 155.34H132.164V155.112C132.164 154.616 132.02 154.236 131.732 153.972C131.444 153.708 131.02 153.576 130.46 153.576C130.084 153.576 129.716 153.64 129.356 153.768C128.996 153.888 128.692 154.052 128.444 154.26L127.964 153.396C128.292 153.132 128.684 152.932 129.14 152.796C129.596 152.652 130.08 152.58 130.592 152.58ZM130.328 158.184C130.768 158.184 131.148 158.088 131.468 157.896C131.788 157.696 132.02 157.416 132.164 157.056V156.168H130.388C129.412 156.168 128.924 156.496 128.924 157.152C128.924 157.472 129.048 157.724 129.296 157.908C129.544 158.092 129.888 158.184 130.328 158.184ZM135.723 159.072C135.499 159.072 135.307 158.996 135.147 158.844C134.987 158.684 134.907 158.484 134.907 158.244C134.907 158.012 134.987 157.82 135.147 157.668C135.307 157.508 135.499 157.428 135.723 157.428C135.947 157.428 136.135 157.504 136.287 157.656C136.439 157.808 136.515 158.004 136.515 158.244C136.515 158.484 136.435 158.684 136.275 158.844C136.123 158.996 135.939 159.072 135.723 159.072Z" fill="#008E86"/>
<path d="M60.7471 50.093C61.296 50.032 61.7905 50.4275 61.8515 50.9764C61.9125 51.5253 61.5169 52.0197 60.968 52.0807L60.7471 50.093ZM79.2225 24.4902C79.7498 24.6544 80.0442 25.2149 79.8801 25.7423L77.2053 34.3356C77.0412 34.8629 76.4806 35.1573 75.9533 34.9932C75.426 34.8291 75.1315 34.2685 75.2957 33.7412L77.6733 26.1027L70.0347 23.7251C69.5074 23.5609 69.213 23.0004 69.3771 22.4731C69.5413 21.9457 70.1018 21.6513 70.6291 21.8155L79.2225 24.4902ZM60.968 52.0807C56.9997 52.5217 53.602 52.4017 51.3762 51.5362C50.2496 51.0982 49.2955 50.4184 48.8104 49.3944C48.3155 48.3499 48.4112 47.1679 48.9256 45.9599C49.9238 43.6158 52.6785 40.7299 57.381 37.2523C62.1289 33.7411 69.0057 29.5257 78.4603 24.5597L79.3903 26.3304C69.9836 31.2712 63.2047 35.433 58.5702 38.8604C53.8902 42.3213 51.5357 44.9353 50.7657 46.7435C50.396 47.6117 50.4428 48.1689 50.6178 48.5381C50.8024 48.9278 51.2369 49.3362 52.101 49.6722C53.8566 50.3548 56.849 50.5262 60.7471 50.093L60.968 52.0807Z" fill="black"/>
<path d="M75.0904 96.5162L46.0581 10L134.302 98.2436L75.0904 96.5162Z" fill="#008E86" stroke="#00635D" stroke-width="2" stroke-linejoin="round"/>
<path d="M82.6388 100L46.0581 10L133.026 97.3966L82.6388 100Z" fill="#00D8CC" stroke="#00635D" stroke-width="2" stroke-linejoin="round"/>
<path d="M72.7471 38.5291L72.7471 72.5801" stroke="#00635D" stroke-width="2" stroke-dasharray="2 2"/>
<path d="M59.217 54.7337C59.4604 54.238 60.0597 54.0334 60.5554 54.2768C61.0512 54.5202 61.2557 55.1195 61.0123 55.6152L59.217 54.7337ZM89.7269 33.9125C90.2577 33.7601 90.8116 34.0669 90.9641 34.5977L93.4478 43.2482C93.6003 43.7791 93.2935 44.3329 92.7627 44.4854C92.2318 44.6378 91.6779 44.331 91.5255 43.8002L89.3177 36.1109L81.6284 38.3187C81.0975 38.4711 80.5437 38.1643 80.3912 37.6335C80.2388 37.1026 80.5456 36.5488 81.0764 36.3963L89.7269 33.9125ZM61.0123 55.6152C59.5507 58.5919 58.6212 61.0398 58.1363 62.9733C57.6442 64.9355 57.6407 66.2492 57.8876 67.0303C58.0049 67.4014 58.1683 67.6212 58.336 67.7556C58.5026 67.8892 58.7387 67.9908 59.0903 68.0174C59.8368 68.074 60.9821 67.7803 62.5254 66.9363C65.5779 65.2669 69.6967 61.7184 74.3412 56.2532C78.9716 50.8045 84.0807 43.5026 89.1281 34.3892L90.8777 35.3582C85.7747 44.5719 80.5922 51.9859 75.8652 57.5484C71.1521 63.0943 66.8472 66.8523 63.4851 68.691C61.821 69.6011 60.2612 70.1119 58.9392 70.0117C58.2566 69.96 57.6175 69.7429 57.085 69.3161C56.5535 68.89 56.1938 68.3075 55.9806 67.6331C55.5666 66.3233 55.6731 64.5731 56.1964 62.4868C56.7269 60.3717 57.7181 57.7865 59.217 54.7337L61.0123 55.6152Z" fill="black"/>
</g>
<defs>
<clipPath id="clip0_5693_197619">
<rect width="180" height="180" rx="20" fill="white"/>
</clipPath>
<clipPath id="clip1_5693_197619">
<path d="M0 30L-1.31134e-06 0L30 -1.31134e-06L30 10C30 21.0457 21.0457 30 10 30L0 30Z" fill="white"/>
</clipPath>
</defs>
</svg>
