<svg width="180" height="180" viewBox="0 0 180 180" fill="none" xmlns="http://www.w3.org/2000/svg">
<g clip-path="url(#clip0_5693_197647)">
<rect width="180" height="180" rx="20" fill="#F2F2F2"/>

<path d="M28.292 129L26.48 126.42C26.256 126.436 26.08 126.444 25.952 126.444H23.876V129H22.676V120.6H25.952C27.04 120.6 27.896 120.86 28.52 121.38C29.144 121.9 29.456 122.616 29.456 123.528C29.456 124.176 29.296 124.728 28.976 125.184C28.656 125.64 28.2 125.972 27.608 126.18L29.6 129H28.292ZM25.916 125.424C26.676 125.424 27.256 125.26 27.656 124.932C28.056 124.604 28.256 124.136 28.256 123.528C28.256 122.92 28.056 122.456 27.656 122.136C27.256 121.808 26.676 121.644 25.916 121.644H23.876V125.424H25.916ZM36.9748 125.856C36.9748 125.944 36.9668 126.06 36.9508 126.204H31.7908C31.8628 126.764 32.1068 127.216 32.5228 127.56C32.9468 127.896 33.4708 128.064 34.0948 128.064C34.8548 128.064 35.4668 127.808 35.9308 127.296L36.5668 128.04C36.2788 128.376 35.9188 128.632 35.4868 128.808C35.0628 128.984 34.5868 129.072 34.0588 129.072C33.3868 129.072 32.7908 128.936 32.2708 128.664C31.7508 128.384 31.3468 127.996 31.0588 127.5C30.7788 127.004 30.6388 126.444 30.6388 125.82C30.6388 125.204 30.7748 124.648 31.0468 124.152C31.3268 123.656 31.7068 123.272 32.1868 123C32.6748 122.72 33.2228 122.58 33.8308 122.58C34.4388 122.58 34.9788 122.72 35.4508 123C35.9308 123.272 36.3028 123.656 36.5668 124.152C36.8388 124.648 36.9748 125.216 36.9748 125.856ZM33.8308 123.552C33.2788 123.552 32.8148 123.72 32.4388 124.056C32.0708 124.392 31.8548 124.832 31.7908 125.376H35.8708C35.8068 124.84 35.5868 124.404 35.2108 124.068C34.8428 123.724 34.3828 123.552 33.8308 123.552ZM41.9464 122.58C42.5624 122.58 43.1144 122.716 43.6024 122.988C44.0904 123.26 44.4704 123.64 44.7424 124.128C45.0224 124.616 45.1624 125.18 45.1624 125.82C45.1624 126.46 45.0224 127.028 44.7424 127.524C44.4704 128.012 44.0904 128.392 43.6024 128.664C43.1144 128.936 42.5624 129.072 41.9464 129.072C41.4904 129.072 41.0704 128.984 40.6864 128.808C40.3104 128.632 39.9904 128.376 39.7264 128.04V131.328H38.5744V122.64H39.6784V123.648C39.9344 123.296 40.2584 123.032 40.6504 122.856C41.0424 122.672 41.4744 122.58 41.9464 122.58ZM41.8504 128.064C42.2584 128.064 42.6224 127.972 42.9424 127.788C43.2704 127.596 43.5264 127.332 43.7104 126.996C43.9024 126.652 43.9984 126.26 43.9984 125.82C43.9984 125.38 43.9024 124.992 43.7104 124.656C43.5264 124.312 43.2704 124.048 42.9424 123.864C42.6224 123.68 42.2584 123.588 41.8504 123.588C41.4504 123.588 41.0864 123.684 40.7584 123.876C40.4384 124.06 40.1824 124.32 39.9904 124.656C39.8064 124.992 39.7144 125.38 39.7144 125.82C39.7144 126.26 39.8064 126.652 39.9904 126.996C40.1744 127.332 40.4304 127.596 40.7584 127.788C41.0864 127.972 41.4504 128.064 41.8504 128.064ZM46.7541 122.64H47.9061V129H46.7541V122.64ZM47.3301 121.416C47.1061 121.416 46.9181 121.344 46.7661 121.2C46.6221 121.056 46.5501 120.88 46.5501 120.672C46.5501 120.464 46.6221 120.288 46.7661 120.144C46.9181 119.992 47.1061 119.916 47.3301 119.916C47.5541 119.916 47.7381 119.988 47.8821 120.132C48.0341 120.268 48.1101 120.44 48.1101 120.648C48.1101 120.864 48.0341 121.048 47.8821 121.2C47.7381 121.344 47.5541 121.416 47.3301 121.416ZM53.6817 128.628C53.5137 128.772 53.3057 128.884 53.0577 128.964C52.8097 129.036 52.5537 129.072 52.2897 129.072C51.6497 129.072 51.1537 128.9 50.8017 128.556C50.4497 128.212 50.2737 127.72 50.2737 127.08V123.588H49.1937V122.64H50.2737V121.248H51.4257V122.64H53.2497V123.588H51.4257V127.032C51.4257 127.376 51.5097 127.64 51.6777 127.824C51.8537 128.008 52.1017 128.1 52.4217 128.1C52.7737 128.1 53.0737 128 53.3217 127.8L53.6817 128.628ZM60.6115 125.856C60.6115 125.944 60.6035 126.06 60.5875 126.204H55.4275C55.4995 126.764 55.7435 127.216 56.1595 127.56C56.5835 127.896 57.1075 128.064 57.7315 128.064C58.4915 128.064 59.1035 127.808 59.5675 127.296L60.2035 128.04C59.9155 128.376 59.5555 128.632 59.1235 128.808C58.6995 128.984 58.2235 129.072 57.6955 129.072C57.0235 129.072 56.4275 128.936 55.9075 128.664C55.3875 128.384 54.9835 127.996 54.6955 127.5C54.4155 127.004 54.2755 126.444 54.2755 125.82C54.2755 125.204 54.4115 124.648 54.6835 124.152C54.9635 123.656 55.3435 123.272 55.8235 123C56.3115 122.72 56.8595 122.58 57.4675 122.58C58.0755 122.58 58.6155 122.72 59.0875 123C59.5675 123.272 59.9395 123.656 60.2035 124.152C60.4755 124.648 60.6115 125.216 60.6115 125.856ZM57.4675 123.552C56.9155 123.552 56.4515 123.72 56.0755 124.056C55.7075 124.392 55.4915 124.832 55.4275 125.376H59.5075C59.4435 124.84 59.2235 124.404 58.8475 124.068C58.4795 123.724 58.0195 123.552 57.4675 123.552ZM71.1818 125.856C71.1818 125.944 71.1738 126.06 71.1578 126.204H65.9978C66.0698 126.764 66.3138 127.216 66.7298 127.56C67.1538 127.896 67.6778 128.064 68.3018 128.064C69.0618 128.064 69.6738 127.808 70.1378 127.296L70.7738 128.04C70.4858 128.376 70.1258 128.632 69.6938 128.808C69.2698 128.984 68.7938 129.072 68.2658 129.072C67.5938 129.072 66.9978 128.936 66.4778 128.664C65.9578 128.384 65.5538 127.996 65.2658 127.5C64.9858 127.004 64.8458 126.444 64.8458 125.82C64.8458 125.204 64.9818 124.648 65.2538 124.152C65.5338 123.656 65.9138 123.272 66.3938 123C66.8818 122.72 67.4298 122.58 68.0378 122.58C68.6458 122.58 69.1858 122.72 69.6578 123C70.1378 123.272 70.5098 123.656 70.7738 124.152C71.0458 124.648 71.1818 125.216 71.1818 125.856ZM68.0378 123.552C67.4858 123.552 67.0218 123.72 66.6458 124.056C66.2778 124.392 66.0618 124.832 65.9978 125.376H70.0778C70.0138 124.84 69.7938 124.404 69.4178 124.068C69.0498 123.724 68.5898 123.552 68.0378 123.552ZM72.7815 120.096H73.9335V129H72.7815V120.096ZM82.7277 122.58C83.3437 122.58 83.8957 122.716 84.3837 122.988C84.8717 123.26 85.2517 123.64 85.5237 124.128C85.8037 124.616 85.9437 125.18 85.9437 125.82C85.9437 126.46 85.8037 127.028 85.5237 127.524C85.2517 128.012 84.8717 128.392 84.3837 128.664C83.8957 128.936 83.3437 129.072 82.7277 129.072C82.2717 129.072 81.8517 128.984 81.4677 128.808C81.0917 128.632 80.7717 128.376 80.5077 128.04V131.328H79.3557V122.64H80.4597V123.648C80.7157 123.296 81.0397 123.032 81.4317 122.856C81.8237 122.672 82.2557 122.58 82.7277 122.58ZM82.6317 128.064C83.0397 128.064 83.4037 127.972 83.7237 127.788C84.0517 127.596 84.3077 127.332 84.4917 126.996C84.6837 126.652 84.7797 126.26 84.7797 125.82C84.7797 125.38 84.6837 124.992 84.4917 124.656C84.3077 124.312 84.0517 124.048 83.7237 123.864C83.4037 123.68 83.0397 123.588 82.6317 123.588C82.2317 123.588 81.8677 123.684 81.5397 123.876C81.2197 124.06 80.9637 124.32 80.7717 124.656C80.5877 124.992 80.4957 125.38 80.4957 125.82C80.4957 126.26 80.5877 126.652 80.7717 126.996C80.9557 127.332 81.2117 127.596 81.5397 127.788C81.8677 127.972 82.2317 128.064 82.6317 128.064ZM89.7928 122.58C90.6728 122.58 91.3448 122.796 91.8088 123.228C92.2808 123.66 92.5168 124.304 92.5168 125.16V129H91.4248V128.16C91.2328 128.456 90.9568 128.684 90.5968 128.844C90.2448 128.996 89.8248 129.072 89.3368 129.072C88.6248 129.072 88.0528 128.9 87.6208 128.556C87.1968 128.212 86.9848 127.76 86.9848 127.2C86.9848 126.64 87.1888 126.192 87.5968 125.856C88.0048 125.512 88.6528 125.34 89.5408 125.34H91.3648V125.112C91.3648 124.616 91.2208 124.236 90.9328 123.972C90.6448 123.708 90.2208 123.576 89.6608 123.576C89.2848 123.576 88.9168 123.64 88.5568 123.768C88.1968 123.888 87.8928 124.052 87.6448 124.26L87.1648 123.396C87.4928 123.132 87.8848 122.932 88.3408 122.796C88.7968 122.652 89.2808 122.58 89.7928 122.58ZM89.5288 128.184C89.9688 128.184 90.3488 128.088 90.6688 127.896C90.9888 127.696 91.2208 127.416 91.3648 127.056V126.168H89.5888C88.6128 126.168 88.1248 126.496 88.1248 127.152C88.1248 127.472 88.2488 127.724 88.4968 127.908C88.7448 128.092 89.0888 128.184 89.5288 128.184ZM96.4726 129.072C95.9526 129.072 95.4526 129.004 94.9726 128.868C94.4926 128.724 94.1166 128.544 93.8446 128.328L94.3246 127.416C94.6046 127.616 94.9446 127.776 95.3446 127.896C95.7446 128.016 96.1486 128.076 96.5566 128.076C97.5646 128.076 98.0686 127.788 98.0686 127.212C98.0686 127.02 98.0006 126.868 97.8646 126.756C97.7286 126.644 97.5566 126.564 97.3486 126.516C97.1486 126.46 96.8606 126.4 96.4846 126.336C95.9726 126.256 95.5526 126.164 95.2246 126.06C94.9046 125.956 94.6286 125.78 94.3966 125.532C94.1646 125.284 94.0486 124.936 94.0486 124.488C94.0486 123.912 94.2886 123.452 94.7686 123.108C95.2486 122.756 95.8926 122.58 96.7006 122.58C97.1246 122.58 97.5486 122.632 97.9726 122.736C98.3966 122.84 98.7446 122.98 99.0166 123.156L98.5246 124.068C98.0046 123.732 97.3926 123.564 96.6886 123.564C96.2006 123.564 95.8286 123.644 95.5726 123.804C95.3166 123.964 95.1886 124.176 95.1886 124.44C95.1886 124.648 95.2606 124.812 95.4046 124.932C95.5486 125.052 95.7246 125.14 95.9326 125.196C96.1486 125.252 96.4486 125.316 96.8326 125.388C97.3446 125.476 97.7566 125.572 98.0686 125.676C98.3886 125.772 98.6606 125.94 98.8846 126.18C99.1086 126.42 99.2206 126.756 99.2206 127.188C99.2206 127.764 98.9726 128.224 98.4766 128.568C97.9886 128.904 97.3206 129.072 96.4726 129.072ZM103.384 129.072C102.752 129.072 102.184 128.932 101.68 128.652C101.176 128.372 100.78 127.988 100.492 127.5C100.212 127.004 100.072 126.444 100.072 125.82C100.072 125.196 100.212 124.64 100.492 124.152C100.78 123.656 101.176 123.272 101.68 123C102.184 122.72 102.752 122.58 103.384 122.58C104.016 122.58 104.58 122.72 105.076 123C105.58 123.272 105.972 123.656 106.252 124.152C106.54 124.64 106.684 125.196 106.684 125.82C106.684 126.444 106.54 127.004 106.252 127.5C105.972 127.988 105.58 128.372 105.076 128.652C104.58 128.932 104.016 129.072 103.384 129.072ZM103.384 128.064C103.792 128.064 104.156 127.972 104.476 127.788C104.804 127.596 105.06 127.332 105.244 126.996C105.428 126.652 105.52 126.26 105.52 125.82C105.52 125.38 105.428 124.992 105.244 124.656C105.06 124.312 104.804 124.048 104.476 123.864C104.156 123.68 103.792 123.588 103.384 123.588C102.976 123.588 102.608 123.68 102.28 123.864C101.96 124.048 101.704 124.312 101.512 124.656C101.328 124.992 101.236 125.38 101.236 125.82C101.236 126.26 101.328 126.652 101.512 126.996C101.704 127.332 101.96 127.596 102.28 127.788C102.608 127.972 102.976 128.064 103.384 128.064ZM113.816 122.58C114.696 122.58 115.368 122.796 115.832 123.228C116.304 123.66 116.54 124.304 116.54 125.16V129H115.448V128.16C115.256 128.456 114.98 128.684 114.62 128.844C114.268 128.996 113.848 129.072 113.36 129.072C112.648 129.072 112.076 128.9 111.644 128.556C111.22 128.212 111.008 127.76 111.008 127.2C111.008 126.64 111.212 126.192 111.62 125.856C112.028 125.512 112.676 125.34 113.564 125.34H115.388V125.112C115.388 124.616 115.244 124.236 114.956 123.972C114.668 123.708 114.244 123.576 113.684 123.576C113.308 123.576 112.94 123.64 112.58 123.768C112.22 123.888 111.916 124.052 111.668 124.26L111.188 123.396C111.516 123.132 111.908 122.932 112.364 122.796C112.82 122.652 113.304 122.58 113.816 122.58ZM113.552 128.184C113.992 128.184 114.372 128.088 114.692 127.896C115.012 127.696 115.244 127.416 115.388 127.056V126.168H113.612C112.636 126.168 112.148 126.496 112.148 127.152C112.148 127.472 112.272 127.724 112.52 127.908C112.768 128.092 113.112 128.184 113.552 128.184ZM122.068 122.58C122.876 122.58 123.516 122.816 123.988 123.288C124.468 123.752 124.708 124.436 124.708 125.34V129H123.556V125.472C123.556 124.856 123.408 124.392 123.112 124.08C122.816 123.768 122.392 123.612 121.84 123.612C121.216 123.612 120.724 123.796 120.364 124.164C120.004 124.524 119.824 125.044 119.824 125.724V129H118.672V122.64H119.776V123.6C120.008 123.272 120.32 123.02 120.712 122.844C121.112 122.668 121.564 122.58 122.068 122.58ZM130.416 128.628C130.248 128.772 130.04 128.884 129.792 128.964C129.544 129.036 129.288 129.072 129.024 129.072C128.384 129.072 127.888 128.9 127.536 128.556C127.184 128.212 127.008 127.72 127.008 127.08V123.588H125.928V122.64H127.008V121.248H128.16V122.64H129.984V123.588H128.16V127.032C128.16 127.376 128.244 127.64 128.412 127.824C128.588 128.008 128.836 128.1 129.156 128.1C129.508 128.1 129.808 128 130.056 127.8L130.416 128.628ZM137.346 125.856C137.346 125.944 137.338 126.06 137.322 126.204H132.162C132.234 126.764 132.478 127.216 132.894 127.56C133.318 127.896 133.842 128.064 134.466 128.064C135.226 128.064 135.838 127.808 136.302 127.296L136.938 128.04C136.65 128.376 136.29 128.632 135.858 128.808C135.434 128.984 134.958 129.072 134.43 129.072C133.758 129.072 133.162 128.936 132.642 128.664C132.122 128.384 131.718 127.996 131.43 127.5C131.15 127.004 131.01 126.444 131.01 125.82C131.01 125.204 131.146 124.648 131.418 124.152C131.698 123.656 132.078 123.272 132.558 123C133.046 122.72 133.594 122.58 134.202 122.58C134.81 122.58 135.35 122.72 135.822 123C136.302 123.272 136.674 123.656 136.938 124.152C137.21 124.648 137.346 125.216 137.346 125.856ZM134.202 123.552C133.65 123.552 133.186 123.72 132.81 124.056C132.442 124.392 132.226 124.832 132.162 125.376H136.242C136.178 124.84 135.958 124.404 135.582 124.068C135.214 123.724 134.754 123.552 134.202 123.552ZM140.05 123.708C140.25 123.34 140.546 123.06 140.938 122.868C141.33 122.676 141.806 122.58 142.366 122.58V123.696C142.302 123.688 142.214 123.684 142.102 123.684C141.478 123.684 140.986 123.872 140.626 124.248C140.274 124.616 140.098 125.144 140.098 125.832V129H138.946V122.64H140.05V123.708ZM143.785 122.64H144.937V129H143.785V122.64ZM144.361 121.416C144.137 121.416 143.949 121.344 143.797 121.2C143.653 121.056 143.581 120.88 143.581 120.672C143.581 120.464 143.653 120.288 143.797 120.144C143.949 119.992 144.137 119.916 144.361 119.916C144.585 119.916 144.769 119.988 144.913 120.132C145.065 120.268 145.141 120.44 145.141 120.648C145.141 120.864 145.065 121.048 144.913 121.2C144.769 121.344 144.585 121.416 144.361 121.416ZM149.861 129.072C149.229 129.072 148.661 128.932 148.157 128.652C147.653 128.372 147.257 127.988 146.969 127.5C146.689 127.004 146.549 126.444 146.549 125.82C146.549 125.196 146.689 124.64 146.969 124.152C147.257 123.656 147.653 123.272 148.157 123C148.661 122.72 149.229 122.58 149.861 122.58C150.493 122.58 151.057 122.72 151.553 123C152.057 123.272 152.449 123.656 152.729 124.152C153.017 124.64 153.161 125.196 153.161 125.82C153.161 126.444 153.017 127.004 152.729 127.5C152.449 127.988 152.057 128.372 151.553 128.652C151.057 128.932 150.493 129.072 149.861 129.072ZM149.861 128.064C150.269 128.064 150.633 127.972 150.953 127.788C151.281 127.596 151.537 127.332 151.721 126.996C151.905 126.652 151.997 126.26 151.997 125.82C151.997 125.38 151.905 124.992 151.721 124.656C151.537 124.312 151.281 124.048 150.953 123.864C150.633 123.68 150.269 123.588 149.861 123.588C149.453 123.588 149.085 123.68 148.757 123.864C148.437 124.048 148.181 124.312 147.989 124.656C147.805 124.992 147.713 125.38 147.713 125.82C147.713 126.26 147.805 126.652 147.989 126.996C148.181 127.332 148.437 127.596 148.757 127.788C149.085 127.972 149.453 128.064 149.861 128.064ZM155.858 123.708C156.058 123.34 156.354 123.06 156.746 122.868C157.138 122.676 157.614 122.58 158.174 122.58V123.696C158.11 123.688 158.022 123.684 157.91 123.684C157.286 123.684 156.794 123.872 156.434 124.248C156.082 124.616 155.906 125.144 155.906 125.832V129H154.754V122.64H155.858V123.708ZM29.9753 138.708C30.1753 138.34 30.4713 138.06 30.8633 137.868C31.2553 137.676 31.7313 137.58 32.2913 137.58V138.696C32.2273 138.688 32.1393 138.684 32.0273 138.684C31.4033 138.684 30.9113 138.872 30.5513 139.248C30.1993 139.616 30.0233 140.144 30.0233 140.832V144H28.8713V137.64H29.9753V138.708ZM39.4005 140.856C39.4005 140.944 39.3925 141.06 39.3765 141.204H34.2165C34.2885 141.764 34.5325 142.216 34.9485 142.56C35.3725 142.896 35.8965 143.064 36.5205 143.064C37.2805 143.064 37.8925 142.808 38.3565 142.296L38.9925 143.04C38.7045 143.376 38.3445 143.632 37.9125 143.808C37.4885 143.984 37.0125 144.072 36.4845 144.072C35.8125 144.072 35.2165 143.936 34.6965 143.664C34.1765 143.384 33.7725 142.996 33.4845 142.5C33.2045 142.004 33.0645 141.444 33.0645 140.82C33.0645 140.204 33.2005 139.648 33.4725 139.152C33.7525 138.656 34.1325 138.272 34.6125 138C35.1005 137.72 35.6485 137.58 36.2565 137.58C36.8645 137.58 37.4045 137.72 37.8765 138C38.3565 138.272 38.7285 138.656 38.9925 139.152C39.2645 139.648 39.4005 140.216 39.4005 140.856ZM36.2565 138.552C35.7045 138.552 35.2405 138.72 34.8645 139.056C34.4965 139.392 34.2805 139.832 34.2165 140.376H38.2965C38.2325 139.84 38.0125 139.404 37.6365 139.068C37.2685 138.724 36.8085 138.552 36.2565 138.552ZM43.1404 137.58C44.0204 137.58 44.6924 137.796 45.1564 138.228C45.6284 138.66 45.8644 139.304 45.8644 140.16V144H44.7724V143.16C44.5804 143.456 44.3044 143.684 43.9444 143.844C43.5924 143.996 43.1724 144.072 42.6844 144.072C41.9724 144.072 41.4004 143.9 40.9684 143.556C40.5444 143.212 40.3324 142.76 40.3324 142.2C40.3324 141.64 40.5364 141.192 40.9444 140.856C41.3524 140.512 42.0004 140.34 42.8884 140.34H44.7124V140.112C44.7124 139.616 44.5684 139.236 44.2804 138.972C43.9924 138.708 43.5684 138.576 43.0084 138.576C42.6324 138.576 42.2644 138.64 41.9044 138.768C41.5444 138.888 41.2404 139.052 40.9924 139.26L40.5124 138.396C40.8404 138.132 41.2324 137.932 41.6884 137.796C42.1444 137.652 42.6284 137.58 43.1404 137.58ZM42.8764 143.184C43.3164 143.184 43.6964 143.088 44.0164 142.896C44.3364 142.696 44.5684 142.416 44.7124 142.056V141.168H42.9364C41.9604 141.168 41.4724 141.496 41.4724 142.152C41.4724 142.472 41.5964 142.724 41.8444 142.908C42.0924 143.092 42.4364 143.184 42.8764 143.184ZM47.9963 135.096H49.1483V144H47.9963V135.096ZM51.3479 137.64H52.4999V144H51.3479V137.64ZM51.9239 136.416C51.6999 136.416 51.5119 136.344 51.3599 136.2C51.2159 136.056 51.1439 135.88 51.1439 135.672C51.1439 135.464 51.2159 135.288 51.3599 135.144C51.5119 134.992 51.6999 134.916 51.9239 134.916C52.1479 134.916 52.3319 134.988 52.4759 135.132C52.6279 135.268 52.7039 135.44 52.7039 135.648C52.7039 135.864 52.6279 136.048 52.4759 136.2C52.3319 136.344 52.1479 136.416 51.9239 136.416ZM59.4154 143.052V144H54.0874V143.256L57.8434 138.588H54.1594V137.64H59.3194V138.396L55.5634 143.052H59.4154ZM63.2732 137.58C64.1532 137.58 64.8252 137.796 65.2892 138.228C65.7612 138.66 65.9972 139.304 65.9972 140.16V144H64.9052V143.16C64.7132 143.456 64.4372 143.684 64.0772 143.844C63.7252 143.996 63.3052 144.072 62.8172 144.072C62.1052 144.072 61.5332 143.9 61.1012 143.556C60.6772 143.212 60.4652 142.76 60.4652 142.2C60.4652 141.64 60.6692 141.192 61.0772 140.856C61.4852 140.512 62.1332 140.34 63.0212 140.34H64.8452V140.112C64.8452 139.616 64.7012 139.236 64.4132 138.972C64.1252 138.708 63.7012 138.576 63.1412 138.576C62.7652 138.576 62.3972 138.64 62.0372 138.768C61.6772 138.888 61.3732 139.052 61.1252 139.26L60.6452 138.396C60.9732 138.132 61.3652 137.932 61.8212 137.796C62.2772 137.652 62.7612 137.58 63.2732 137.58ZM63.0092 143.184C63.4492 143.184 63.8292 143.088 64.1492 142.896C64.4692 142.696 64.7012 142.416 64.8452 142.056V141.168H63.0692C62.0932 141.168 61.6052 141.496 61.6052 142.152C61.6052 142.472 61.7292 142.724 61.9772 142.908C62.2252 143.092 62.5692 143.184 63.0092 143.184ZM71.5251 137.58C72.3331 137.58 72.9731 137.816 73.4451 138.288C73.9251 138.752 74.1651 139.436 74.1651 140.34V144H73.0131V140.472C73.0131 139.856 72.8651 139.392 72.5691 139.08C72.2731 138.768 71.8491 138.612 71.2971 138.612C70.6731 138.612 70.1811 138.796 69.8211 139.164C69.4611 139.524 69.2811 140.044 69.2811 140.724V144H68.1291V137.64H69.2331V138.6C69.4651 138.272 69.7771 138.02 70.1691 137.844C70.5691 137.668 71.0211 137.58 71.5251 137.58ZM82.3322 135.096V144H81.2282V142.992C80.9722 143.344 80.6482 143.612 80.2562 143.796C79.8642 143.98 79.4322 144.072 78.9602 144.072C78.3442 144.072 77.7922 143.936 77.3042 143.664C76.8162 143.392 76.4322 143.012 76.1522 142.524C75.8802 142.028 75.7442 141.46 75.7442 140.82C75.7442 140.18 75.8802 139.616 76.1522 139.128C76.4322 138.64 76.8162 138.26 77.3042 137.988C77.7922 137.716 78.3442 137.58 78.9602 137.58C79.4162 137.58 79.8362 137.668 80.2202 137.844C80.6042 138.012 80.9242 138.264 81.1802 138.6V135.096H82.3322ZM79.0562 143.064C79.4562 143.064 79.8202 142.972 80.1482 142.788C80.4762 142.596 80.7322 142.332 80.9162 141.996C81.1002 141.652 81.1922 141.26 81.1922 140.82C81.1922 140.38 81.1002 139.992 80.9162 139.656C80.7322 139.312 80.4762 139.048 80.1482 138.864C79.8202 138.68 79.4562 138.588 79.0562 138.588C78.6482 138.588 78.2802 138.68 77.9522 138.864C77.6322 139.048 77.3762 139.312 77.1842 139.656C77.0002 139.992 76.9082 140.38 76.9082 140.82C76.9082 141.26 77.0002 141.652 77.1842 141.996C77.3762 142.332 77.6322 142.596 77.9522 142.788C78.2802 142.972 78.6482 143.064 79.0562 143.064ZM87.2359 144.072C86.6039 144.072 86.0359 143.932 85.5319 143.652C85.0279 143.372 84.6319 142.988 84.3439 142.5C84.0639 142.004 83.9239 141.444 83.9239 140.82C83.9239 140.196 84.0639 139.64 84.3439 139.152C84.6319 138.656 85.0279 138.272 85.5319 138C86.0359 137.72 86.6039 137.58 87.2359 137.58C87.8679 137.58 88.4319 137.72 88.9279 138C89.4319 138.272 89.8239 138.656 90.1039 139.152C90.3919 139.64 90.5359 140.196 90.5359 140.82C90.5359 141.444 90.3919 142.004 90.1039 142.5C89.8239 142.988 89.4319 143.372 88.9279 143.652C88.4319 143.932 87.8679 144.072 87.2359 144.072ZM87.2359 143.064C87.6439 143.064 88.0079 142.972 88.3279 142.788C88.6559 142.596 88.9119 142.332 89.0959 141.996C89.2799 141.652 89.3719 141.26 89.3719 140.82C89.3719 140.38 89.2799 139.992 89.0959 139.656C88.9119 139.312 88.6559 139.048 88.3279 138.864C88.0079 138.68 87.6439 138.588 87.2359 138.588C86.8279 138.588 86.4599 138.68 86.1319 138.864C85.8119 139.048 85.5559 139.312 85.3639 139.656C85.1799 139.992 85.0879 140.38 85.0879 140.82C85.0879 141.26 85.1799 141.652 85.3639 141.996C85.5559 142.332 85.8119 142.596 86.1319 142.788C86.4599 142.972 86.8279 143.064 87.2359 143.064ZM101.1 140.856C101.1 140.944 101.092 141.06 101.076 141.204H95.9158C95.9878 141.764 96.2318 142.216 96.6478 142.56C97.0718 142.896 97.5958 143.064 98.2198 143.064C98.9798 143.064 99.5918 142.808 100.056 142.296L100.692 143.04C100.404 143.376 100.044 143.632 99.6118 143.808C99.1878 143.984 98.7118 144.072 98.1838 144.072C97.5118 144.072 96.9158 143.936 96.3958 143.664C95.8758 143.384 95.4718 142.996 95.1838 142.5C94.9038 142.004 94.7638 141.444 94.7638 140.82C94.7638 140.204 94.8998 139.648 95.1718 139.152C95.4518 138.656 95.8318 138.272 96.3118 138C96.7998 137.72 97.3478 137.58 97.9558 137.58C98.5638 137.58 99.1038 137.72 99.5758 138C100.056 138.272 100.428 138.656 100.692 139.152C100.964 139.648 101.1 140.216 101.1 140.856ZM97.9558 138.552C97.4038 138.552 96.9398 138.72 96.5638 139.056C96.1958 139.392 95.9798 139.832 95.9158 140.376H99.9958C99.9318 139.84 99.7118 139.404 99.3358 139.068C98.9678 138.724 98.5078 138.552 97.9558 138.552ZM102.699 135.096H103.851V144H102.699V135.096ZM115.274 135.096V144H114.17V142.992C113.914 143.344 113.59 143.612 113.198 143.796C112.806 143.98 112.374 144.072 111.902 144.072C111.286 144.072 110.734 143.936 110.246 143.664C109.758 143.392 109.374 143.012 109.094 142.524C108.822 142.028 108.686 141.46 108.686 140.82C108.686 140.18 108.822 139.616 109.094 139.128C109.374 138.64 109.758 138.26 110.246 137.988C110.734 137.716 111.286 137.58 111.902 137.58C112.358 137.58 112.778 137.668 113.162 137.844C113.546 138.012 113.866 138.264 114.122 138.6V135.096H115.274ZM111.998 143.064C112.398 143.064 112.762 142.972 113.09 142.788C113.418 142.596 113.674 142.332 113.858 141.996C114.042 141.652 114.134 141.26 114.134 140.82C114.134 140.38 114.042 139.992 113.858 139.656C113.674 139.312 113.418 139.048 113.09 138.864C112.762 138.68 112.398 138.588 111.998 138.588C111.59 138.588 111.222 138.68 110.894 138.864C110.574 139.048 110.318 139.312 110.126 139.656C109.942 139.992 109.85 140.38 109.85 140.82C109.85 141.26 109.942 141.652 110.126 141.996C110.318 142.332 110.574 142.596 110.894 142.788C111.222 142.972 111.59 143.064 111.998 143.064ZM117.453 137.64H118.605V144H117.453V137.64ZM118.029 136.416C117.805 136.416 117.617 136.344 117.465 136.2C117.321 136.056 117.249 135.88 117.249 135.672C117.249 135.464 117.321 135.288 117.465 135.144C117.617 134.992 117.805 134.916 118.029 134.916C118.253 134.916 118.437 134.988 118.581 135.132C118.733 135.268 118.809 135.44 118.809 135.648C118.809 135.864 118.733 136.048 118.581 136.2C118.437 136.344 118.253 136.416 118.029 136.416ZM123.529 144.072C122.897 144.072 122.329 143.932 121.825 143.652C121.321 143.372 120.925 142.988 120.637 142.5C120.357 142.004 120.217 141.444 120.217 140.82C120.217 140.196 120.357 139.64 120.637 139.152C120.925 138.656 121.321 138.272 121.825 138C122.329 137.72 122.897 137.58 123.529 137.58C124.161 137.58 124.725 137.72 125.221 138C125.725 138.272 126.117 138.656 126.397 139.152C126.685 139.64 126.829 140.196 126.829 140.82C126.829 141.444 126.685 142.004 126.397 142.5C126.117 142.988 125.725 143.372 125.221 143.652C124.725 143.932 124.161 144.072 123.529 144.072ZM123.529 143.064C123.937 143.064 124.301 142.972 124.621 142.788C124.949 142.596 125.205 142.332 125.389 141.996C125.573 141.652 125.665 141.26 125.665 140.82C125.665 140.38 125.573 139.992 125.389 139.656C125.205 139.312 124.949 139.048 124.621 138.864C124.301 138.68 123.937 138.588 123.529 138.588C123.121 138.588 122.753 138.68 122.425 138.864C122.105 139.048 121.849 139.312 121.657 139.656C121.473 139.992 121.381 140.38 121.381 140.82C121.381 141.26 121.473 141.652 121.657 141.996C121.849 142.332 122.105 142.596 122.425 142.788C122.753 142.972 123.121 143.064 123.529 143.064ZM131.794 137.58C132.41 137.58 132.962 137.716 133.45 137.988C133.938 138.26 134.318 138.64 134.59 139.128C134.87 139.616 135.01 140.18 135.01 140.82C135.01 141.46 134.87 142.028 134.59 142.524C134.318 143.012 133.938 143.392 133.45 143.664C132.962 143.936 132.41 144.072 131.794 144.072C131.322 144.072 130.89 143.98 130.498 143.796C130.106 143.612 129.782 143.344 129.526 142.992V144H128.422V135.096H129.574V138.6C129.83 138.264 130.15 138.012 130.534 137.844C130.918 137.668 131.338 137.58 131.794 137.58ZM131.698 143.064C132.106 143.064 132.47 142.972 132.79 142.788C133.118 142.596 133.374 142.332 133.558 141.996C133.75 141.652 133.846 141.26 133.846 140.82C133.846 140.38 133.75 139.992 133.558 139.656C133.374 139.312 133.118 139.048 132.79 138.864C132.47 138.68 132.106 138.588 131.698 138.588C131.298 138.588 130.934 138.68 130.606 138.864C130.278 139.048 130.022 139.312 129.838 139.656C129.654 139.992 129.562 140.38 129.562 140.82C129.562 141.26 129.654 141.652 129.838 141.996C130.022 142.332 130.278 142.596 130.606 142.788C130.934 142.972 131.298 143.064 131.698 143.064ZM136.602 135.096H137.754V144H136.602V135.096ZM145.701 140.856C145.701 140.944 145.693 141.06 145.677 141.204H140.517C140.589 141.764 140.833 142.216 141.249 142.56C141.673 142.896 142.197 143.064 142.821 143.064C143.581 143.064 144.193 142.808 144.657 142.296L145.293 143.04C145.005 143.376 144.645 143.632 144.213 143.808C143.789 143.984 143.313 144.072 142.785 144.072C142.113 144.072 141.517 143.936 140.997 143.664C140.477 143.384 140.073 142.996 139.785 142.5C139.505 142.004 139.365 141.444 139.365 140.82C139.365 140.204 139.501 139.648 139.773 139.152C140.053 138.656 140.433 138.272 140.913 138C141.401 137.72 141.949 137.58 142.557 137.58C143.165 137.58 143.705 137.72 144.177 138C144.657 138.272 145.029 138.656 145.293 139.152C145.565 139.648 145.701 140.216 145.701 140.856ZM142.557 138.552C142.005 138.552 141.541 138.72 141.165 139.056C140.797 139.392 140.581 139.832 140.517 140.376H144.597C144.533 139.84 144.313 139.404 143.937 139.068C143.569 138.724 143.109 138.552 142.557 138.552ZM143.277 135.156H144.741L142.725 136.716H141.645L143.277 135.156ZM149.125 144.072C148.605 144.072 148.105 144.004 147.625 143.868C147.145 143.724 146.769 143.544 146.497 143.328L146.977 142.416C147.257 142.616 147.597 142.776 147.997 142.896C148.397 143.016 148.801 143.076 149.209 143.076C150.217 143.076 150.721 142.788 150.721 142.212C150.721 142.02 150.653 141.868 150.517 141.756C150.381 141.644 150.209 141.564 150.001 141.516C149.801 141.46 149.513 141.4 149.137 141.336C148.625 141.256 148.205 141.164 147.877 141.06C147.557 140.956 147.281 140.78 147.049 140.532C146.817 140.284 146.701 139.936 146.701 139.488C146.701 138.912 146.941 138.452 147.421 138.108C147.901 137.756 148.545 137.58 149.353 137.58C149.777 137.58 150.201 137.632 150.625 137.736C151.049 137.84 151.397 137.98 151.669 138.156L151.177 139.068C150.657 138.732 150.045 138.564 149.341 138.564C148.853 138.564 148.481 138.644 148.225 138.804C147.969 138.964 147.841 139.176 147.841 139.44C147.841 139.648 147.913 139.812 148.057 139.932C148.201 140.052 148.377 140.14 148.585 140.196C148.801 140.252 149.101 140.316 149.485 140.388C149.997 140.476 150.409 140.572 150.721 140.676C151.041 140.772 151.313 140.94 151.537 141.18C151.761 141.42 151.873 141.756 151.873 142.188C151.873 142.764 151.625 143.224 151.129 143.568C150.641 143.904 149.973 144.072 149.125 144.072ZM32.1495 152.58C32.7655 152.58 33.3175 152.716 33.8055 152.988C34.2935 153.26 34.6735 153.64 34.9455 154.128C35.2255 154.616 35.3655 155.18 35.3655 155.82C35.3655 156.46 35.2255 157.028 34.9455 157.524C34.6735 158.012 34.2935 158.392 33.8055 158.664C33.3175 158.936 32.7655 159.072 32.1495 159.072C31.6935 159.072 31.2735 158.984 30.8895 158.808C30.5135 158.632 30.1935 158.376 29.9295 158.04V161.328H28.7775V152.64H29.8815V153.648C30.1375 153.296 30.4615 153.032 30.8535 152.856C31.2455 152.672 31.6775 152.58 32.1495 152.58ZM32.0535 158.064C32.4615 158.064 32.8255 157.972 33.1455 157.788C33.4735 157.596 33.7295 157.332 33.9135 156.996C34.1055 156.652 34.2015 156.26 34.2015 155.82C34.2015 155.38 34.1055 154.992 33.9135 154.656C33.7295 154.312 33.4735 154.048 33.1455 153.864C32.8255 153.68 32.4615 153.588 32.0535 153.588C31.6535 153.588 31.2895 153.684 30.9615 153.876C30.6415 154.06 30.3855 154.32 30.1935 154.656C30.0095 154.992 29.9175 155.38 29.9175 155.82C29.9175 156.26 30.0095 156.652 30.1935 156.996C30.3775 157.332 30.6335 157.596 30.9615 157.788C31.2895 157.972 31.6535 158.064 32.0535 158.064ZM39.6812 159.072C39.0492 159.072 38.4812 158.932 37.9772 158.652C37.4732 158.372 37.0772 157.988 36.7892 157.5C36.5092 157.004 36.3692 156.444 36.3692 155.82C36.3692 155.196 36.5092 154.64 36.7892 154.152C37.0772 153.656 37.4732 153.272 37.9772 153C38.4812 152.72 39.0492 152.58 39.6812 152.58C40.3132 152.58 40.8772 152.72 41.3732 153C41.8772 153.272 42.2692 153.656 42.5492 154.152C42.8372 154.64 42.9812 155.196 42.9812 155.82C42.9812 156.444 42.8372 157.004 42.5492 157.5C42.2692 157.988 41.8772 158.372 41.3732 158.652C40.8772 158.932 40.3132 159.072 39.6812 159.072ZM39.6812 158.064C40.0892 158.064 40.4532 157.972 40.7732 157.788C41.1012 157.596 41.3572 157.332 41.5412 156.996C41.7252 156.652 41.8172 156.26 41.8172 155.82C41.8172 155.38 41.7252 154.992 41.5412 154.656C41.3572 154.312 41.1012 154.048 40.7732 153.864C40.4532 153.68 40.0892 153.588 39.6812 153.588C39.2732 153.588 38.9052 153.68 38.5772 153.864C38.2572 154.048 38.0012 154.312 37.8092 154.656C37.6252 154.992 37.5332 155.38 37.5332 155.82C37.5332 156.26 37.6252 156.652 37.8092 156.996C38.0012 157.332 38.2572 157.596 38.5772 157.788C38.9052 157.972 39.2732 158.064 39.6812 158.064ZM45.6784 153.708C45.8784 153.34 46.1744 153.06 46.5664 152.868C46.9584 152.676 47.4344 152.58 47.9944 152.58V153.696C47.9304 153.688 47.8424 153.684 47.7304 153.684C47.1064 153.684 46.6144 153.872 46.2544 154.248C45.9024 154.616 45.7264 155.144 45.7264 155.832V159H44.5744V152.64H45.6784V153.708ZM52.719 150.096H53.871V159H52.719V150.096ZM58.3865 152.58C59.2665 152.58 59.9385 152.796 60.4025 153.228C60.8745 153.66 61.1105 154.304 61.1105 155.16V159H60.0185V158.16C59.8265 158.456 59.5505 158.684 59.1905 158.844C58.8385 158.996 58.4185 159.072 57.9305 159.072C57.2185 159.072 56.6465 158.9 56.2145 158.556C55.7905 158.212 55.5785 157.76 55.5785 157.2C55.5785 156.64 55.7825 156.192 56.1905 155.856C56.5985 155.512 57.2465 155.34 58.1345 155.34H59.9585V155.112C59.9585 154.616 59.8145 154.236 59.5265 153.972C59.2385 153.708 58.8145 153.576 58.2545 153.576C57.8785 153.576 57.5105 153.64 57.1505 153.768C56.7905 153.888 56.4865 154.052 56.2385 154.26L55.7585 153.396C56.0865 153.132 56.4785 152.932 56.9345 152.796C57.3905 152.652 57.8745 152.58 58.3865 152.58ZM58.1225 158.184C58.5625 158.184 58.9425 158.088 59.2625 157.896C59.5825 157.696 59.8145 157.416 59.9585 157.056V156.168H58.1825C57.2065 156.168 56.7185 156.496 56.7185 157.152C56.7185 157.472 56.8425 157.724 57.0905 157.908C57.3385 158.092 57.6825 158.184 58.1225 158.184ZM66.465 150.096H67.617V159H66.465V150.096ZM69.8166 152.64H70.9686V159H69.8166V152.64ZM71.1246 150.156H72.5886L70.5726 151.716H69.4926L71.1246 150.156ZM76.5642 152.58C77.3722 152.58 78.0122 152.816 78.4842 153.288C78.9642 153.752 79.2042 154.436 79.2042 155.34V159H78.0522V155.472C78.0522 154.856 77.9042 154.392 77.6082 154.08C77.3122 153.768 76.8882 153.612 76.3362 153.612C75.7122 153.612 75.2202 153.796 74.8602 154.164C74.5002 154.524 74.3202 155.044 74.3202 155.724V159H73.1682V152.64H74.2722V153.6C74.5042 153.272 74.8162 153.02 75.2082 152.844C75.6082 152.668 76.0602 152.58 76.5642 152.58ZM83.6521 152.58C84.5321 152.58 85.2041 152.796 85.6681 153.228C86.1401 153.66 86.3761 154.304 86.3761 155.16V159H85.2841V158.16C85.0921 158.456 84.8161 158.684 84.4561 158.844C84.1041 158.996 83.6841 159.072 83.1961 159.072C82.4841 159.072 81.9121 158.9 81.4801 158.556C81.0561 158.212 80.8441 157.76 80.8441 157.2C80.8441 156.64 81.0481 156.192 81.4561 155.856C81.8641 155.512 82.5121 155.34 83.4001 155.34H85.2241V155.112C85.2241 154.616 85.0801 154.236 84.7921 153.972C84.5041 153.708 84.0801 153.576 83.5201 153.576C83.1441 153.576 82.7761 153.64 82.4161 153.768C82.0561 153.888 81.7521 154.052 81.5041 154.26L81.0241 153.396C81.3521 153.132 81.7441 152.932 82.2001 152.796C82.6561 152.652 83.1401 152.58 83.6521 152.58ZM83.3881 158.184C83.8281 158.184 84.2081 158.088 84.5281 157.896C84.8481 157.696 85.0801 157.416 85.2241 157.056V156.168H83.4481C82.4721 156.168 81.9841 156.496 81.9841 157.152C81.9841 157.472 82.1081 157.724 82.3561 157.908C82.6041 158.092 82.9481 158.184 83.3881 158.184ZM95.1027 152.58C95.7187 152.58 96.2707 152.716 96.7587 152.988C97.2467 153.26 97.6267 153.64 97.8987 154.128C98.1787 154.616 98.3187 155.18 98.3187 155.82C98.3187 156.46 98.1787 157.028 97.8987 157.524C97.6267 158.012 97.2467 158.392 96.7587 158.664C96.2707 158.936 95.7187 159.072 95.1027 159.072C94.6467 159.072 94.2267 158.984 93.8427 158.808C93.4667 158.632 93.1467 158.376 92.8827 158.04V161.328H91.7307V152.64H92.8347V153.648C93.0907 153.296 93.4147 153.032 93.8067 152.856C94.1987 152.672 94.6307 152.58 95.1027 152.58ZM95.0067 158.064C95.4147 158.064 95.7787 157.972 96.0987 157.788C96.4267 157.596 96.6827 157.332 96.8667 156.996C97.0587 156.652 97.1547 156.26 97.1547 155.82C97.1547 155.38 97.0587 154.992 96.8667 154.656C96.6827 154.312 96.4267 154.048 96.0987 153.864C95.7787 153.68 95.4147 153.588 95.0067 153.588C94.6067 153.588 94.2427 153.684 93.9147 153.876C93.5947 154.06 93.3387 154.32 93.1467 154.656C92.9627 154.992 92.8707 155.38 92.8707 155.82C92.8707 156.26 92.9627 156.652 93.1467 156.996C93.3307 157.332 93.5867 157.596 93.9147 157.788C94.2427 157.972 94.6067 158.064 95.0067 158.064ZM105.838 152.64V159H104.746V158.04C104.514 158.368 104.206 158.624 103.822 158.808C103.446 158.984 103.034 159.072 102.586 159.072C101.738 159.072 101.07 158.84 100.582 158.376C100.094 157.904 99.8504 157.212 99.8504 156.3V152.64H101.002V156.168C101.002 156.784 101.15 157.252 101.446 157.572C101.742 157.884 102.166 158.04 102.718 158.04C103.326 158.04 103.806 157.856 104.158 157.488C104.51 157.12 104.686 156.6 104.686 155.928V152.64H105.838ZM111.427 152.58C112.235 152.58 112.875 152.816 113.347 153.288C113.827 153.752 114.067 154.436 114.067 155.34V159H112.915V155.472C112.915 154.856 112.767 154.392 112.471 154.08C112.175 153.768 111.751 153.612 111.199 153.612C110.575 153.612 110.083 153.796 109.723 154.164C109.363 154.524 109.183 155.044 109.183 155.724V159H108.031V152.64H109.135V153.6C109.367 153.272 109.679 153.02 110.071 152.844C110.471 152.668 110.923 152.58 111.427 152.58ZM119.775 158.628C119.607 158.772 119.399 158.884 119.151 158.964C118.903 159.036 118.647 159.072 118.383 159.072C117.743 159.072 117.247 158.9 116.895 158.556C116.543 158.212 116.367 157.72 116.367 157.08V153.588H115.287V152.64H116.367V151.248H117.519V152.64H119.343V153.588H117.519V157.032C117.519 157.376 117.603 157.64 117.771 157.824C117.947 158.008 118.195 158.1 118.515 158.1C118.867 158.1 119.167 158 119.415 157.8L119.775 158.628ZM126.705 155.856C126.705 155.944 126.697 156.06 126.681 156.204H121.521C121.593 156.764 121.837 157.216 122.253 157.56C122.677 157.896 123.201 158.064 123.825 158.064C124.585 158.064 125.197 157.808 125.661 157.296L126.297 158.04C126.009 158.376 125.649 158.632 125.217 158.808C124.793 158.984 124.317 159.072 123.789 159.072C123.117 159.072 122.521 158.936 122.001 158.664C121.481 158.384 121.077 157.996 120.789 157.5C120.509 157.004 120.369 156.444 120.369 155.82C120.369 155.204 120.505 154.648 120.777 154.152C121.057 153.656 121.437 153.272 121.917 153C122.405 152.72 122.953 152.58 123.561 152.58C124.169 152.58 124.709 152.72 125.181 153C125.661 153.272 126.033 153.656 126.297 154.152C126.569 154.648 126.705 155.216 126.705 155.856ZM123.561 153.552C123.009 153.552 122.545 153.72 122.169 154.056C121.801 154.392 121.585 154.832 121.521 155.376H125.601C125.537 154.84 125.317 154.404 124.941 154.068C124.573 153.724 124.113 153.552 123.561 153.552ZM130.445 152.58C131.325 152.58 131.997 152.796 132.461 153.228C132.933 153.66 133.169 154.304 133.169 155.16V159H132.077V158.16C131.885 158.456 131.609 158.684 131.249 158.844C130.897 158.996 130.477 159.072 129.989 159.072C129.277 159.072 128.705 158.9 128.273 158.556C127.849 158.212 127.637 157.76 127.637 157.2C127.637 156.64 127.841 156.192 128.249 155.856C128.657 155.512 129.305 155.34 130.193 155.34H132.017V155.112C132.017 154.616 131.873 154.236 131.585 153.972C131.297 153.708 130.873 153.576 130.313 153.576C129.937 153.576 129.569 153.64 129.209 153.768C128.849 153.888 128.545 154.052 128.297 154.26L127.817 153.396C128.145 153.132 128.537 152.932 128.993 152.796C129.449 152.652 129.933 152.58 130.445 152.58ZM130.181 158.184C130.621 158.184 131.001 158.088 131.321 157.896C131.641 157.696 131.873 157.416 132.017 157.056V156.168H130.241C129.265 156.168 128.777 156.496 128.777 157.152C128.777 157.472 128.901 157.724 129.149 157.908C129.397 158.092 129.741 158.184 130.181 158.184ZM141.336 150.096V159H140.232V157.992C139.976 158.344 139.652 158.612 139.26 158.796C138.868 158.98 138.436 159.072 137.964 159.072C137.348 159.072 136.796 158.936 136.308 158.664C135.82 158.392 135.436 158.012 135.156 157.524C134.884 157.028 134.748 156.46 134.748 155.82C134.748 155.18 134.884 154.616 135.156 154.128C135.436 153.64 135.82 153.26 136.308 152.988C136.796 152.716 137.348 152.58 137.964 152.58C138.42 152.58 138.84 152.668 139.224 152.844C139.608 153.012 139.928 153.264 140.184 153.6V150.096H141.336ZM138.06 158.064C138.46 158.064 138.824 157.972 139.152 157.788C139.48 157.596 139.736 157.332 139.92 156.996C140.104 156.652 140.196 156.26 140.196 155.82C140.196 155.38 140.104 154.992 139.92 154.656C139.736 154.312 139.48 154.048 139.152 153.864C138.824 153.68 138.46 153.588 138.06 153.588C137.652 153.588 137.284 153.68 136.956 153.864C136.636 154.048 136.38 154.312 136.188 154.656C136.004 154.992 135.912 155.38 135.912 155.82C135.912 156.26 136.004 156.652 136.188 156.996C136.38 157.332 136.636 157.596 136.956 157.788C137.284 157.972 137.652 158.064 138.06 158.064ZM145.832 152.58C146.712 152.58 147.384 152.796 147.848 153.228C148.32 153.66 148.556 154.304 148.556 155.16V159H147.464V158.16C147.272 158.456 146.996 158.684 146.636 158.844C146.284 158.996 145.864 159.072 145.376 159.072C144.664 159.072 144.092 158.9 143.66 158.556C143.236 158.212 143.024 157.76 143.024 157.2C143.024 156.64 143.228 156.192 143.636 155.856C144.044 155.512 144.692 155.34 145.58 155.34H147.404V155.112C147.404 154.616 147.26 154.236 146.972 153.972C146.684 153.708 146.26 153.576 145.7 153.576C145.324 153.576 144.956 153.64 144.596 153.768C144.236 153.888 143.932 154.052 143.684 154.26L143.204 153.396C143.532 153.132 143.924 152.932 144.38 152.796C144.836 152.652 145.32 152.58 145.832 152.58ZM145.568 158.184C146.008 158.184 146.388 158.088 146.708 157.896C147.028 157.696 147.26 157.416 147.404 157.056V156.168H145.628C144.652 156.168 144.164 156.496 144.164 157.152C144.164 157.472 144.288 157.724 144.536 157.908C144.784 158.092 145.128 158.184 145.568 158.184ZM150.964 159.072C150.74 159.072 150.548 158.996 150.388 158.844C150.228 158.684 150.148 158.484 150.148 158.244C150.148 158.012 150.228 157.82 150.388 157.668C150.548 157.508 150.74 157.428 150.964 157.428C151.188 157.428 151.376 157.504 151.528 157.656C151.68 157.808 151.756 158.004 151.756 158.244C151.756 158.484 151.676 158.684 151.516 158.844C151.364 158.996 151.18 159.072 150.964 159.072Z" fill="#008E86"/>
<path d="M87.9391 25.3556C87.3902 25.2946 86.8958 25.6901 86.8348 26.239C86.7738 26.788 87.1693 27.2824 87.7182 27.3434L87.9391 25.3556ZM78.1253 12.0453C77.5979 12.2094 77.3035 12.77 77.4676 13.2973L80.1424 21.8906C80.3066 22.418 80.8671 22.7124 81.3944 22.5483C81.9218 22.3841 82.2162 21.8236 82.0521 21.2963L79.6745 13.6577L87.313 11.2801C87.8403 11.116 88.1348 10.5555 87.9706 10.0281C87.8065 9.5008 87.2459 9.20637 86.7186 9.37051L78.1253 12.0453ZM87.7182 27.3434C89.801 27.5748 91.667 27.5246 92.9385 27.0303C93.588 26.7777 94.2092 26.3588 94.5338 25.6737C94.8682 24.968 94.7842 24.2029 94.4817 23.4925C93.9073 22.1438 92.3772 20.5761 89.9237 18.7617C87.4247 16.9136 83.8211 14.7062 78.8875 12.1148L77.9574 13.8854C82.8432 16.4517 86.3489 18.6055 88.7345 20.3697C91.1656 22.1675 92.2954 23.4632 92.6416 24.2761C92.7994 24.6467 92.7408 24.787 92.7264 24.8173C92.7023 24.8682 92.6007 25.0158 92.2137 25.1662C91.4125 25.4777 89.9517 25.5793 87.9391 25.3556L87.7182 27.3434Z" fill="black"/>
<path d="M59.4028 77.5296L64.7529 42.219L120.75 100L67.2496 98.2166L59.4028 77.5296Z" fill="#008E86" stroke="#00635D" stroke-width="2" stroke-linejoin="round"/>
<path d="M64.0395 41.5057L90.0766 15.4687L64.3962 79.313L64.0395 41.5057Z" fill="#00D8CC" stroke="#00635D" stroke-width="2" stroke-linejoin="round"/>
<path d="M64.3965 79.313L75.4533 52.5626L120.751 99.6433L72.5999 99.6433L64.3965 79.313Z" fill="#00D8CC" stroke="#00635D" stroke-width="2" stroke-linejoin="round"/>
<path d="M81.5166 25.8123L81.5166 33.659" stroke="#00635D" stroke-width="2" stroke-dasharray="2 2"/>
<path d="M86.848 32.1509C86.6046 31.6552 86.0054 31.4506 85.5097 31.694C85.0139 31.9374 84.8094 32.5366 85.0528 33.0324L86.848 32.1509ZM70.3766 20.865C69.8458 20.7126 69.2919 21.0193 69.1395 21.5502L66.6557 30.2006C66.5033 30.7315 66.8101 31.2854 67.3409 31.4378C67.8717 31.5902 68.4256 31.2834 68.578 30.7526L70.7859 23.0633L78.4752 25.2711C79.006 25.4235 79.5599 25.1167 79.7123 24.5859C79.8647 24.0551 79.558 23.5012 79.0271 23.3488L70.3766 20.865ZM85.0528 33.0324C85.8191 34.5931 86.2975 35.859 86.5439 36.8417C86.7976 37.853 86.7753 38.4472 86.6836 38.7373C86.6439 38.8628 86.6033 38.8941 86.5999 38.8969C86.5974 38.8989 86.5669 38.9257 86.4581 38.9339C86.1974 38.9537 85.6874 38.8489 84.8974 38.4168C83.3513 37.5713 81.2109 35.7388 78.764 32.8595C76.3312 29.9968 73.6391 26.1509 70.9755 21.3416L69.2259 22.3106C71.9451 27.2203 74.7105 31.1782 77.24 34.1547C79.7555 37.1147 82.082 39.1567 83.9377 40.1716C84.8485 40.6697 85.773 40.9916 86.6093 40.9282C87.049 40.8949 87.4825 40.7527 87.8508 40.4574C88.2181 40.163 88.455 39.7689 88.5906 39.34C88.8494 38.5213 88.7687 37.4907 88.4839 36.3551C88.1919 35.1909 87.6517 33.7877 86.848 32.1509L85.0528 33.0324Z" fill="black"/>
</g>
<defs>
<clipPath id="clip0_5693_197647">
<rect width="180" height="180" rx="20" fill="white"/>
</clipPath>
<clipPath id="clip1_5693_197647">
<path d="M0 30L-1.31134e-06 0L30 -1.31134e-06L30 10C30 21.0457 21.0457 30 10 30L0 30Z" fill="white"/>
</clipPath>
</defs>
</svg>
