<svg width="180" height="180" viewBox="0 0 180 180" fill="none" xmlns="http://www.w3.org/2000/svg">
<g clip-path="url(#clip0_5693_197623)">
<rect width="180" height="180" rx="20" fill="#F2F2F2"/>

<path d="M46.3538 113.6H49.8938C50.7818 113.6 51.5698 113.776 52.2578 114.128C52.9458 114.48 53.4778 114.976 53.8538 115.616C54.2378 116.248 54.4298 116.976 54.4298 117.8C54.4298 118.624 54.2378 119.356 53.8538 119.996C53.4778 120.628 52.9458 121.12 52.2578 121.472C51.5698 121.824 50.7818 122 49.8938 122H46.3538V113.6ZM49.8218 120.956C50.5018 120.956 51.0978 120.824 51.6098 120.56C52.1298 120.296 52.5298 119.928 52.8098 119.456C53.0898 118.976 53.2298 118.424 53.2298 117.8C53.2298 117.176 53.0898 116.628 52.8098 116.156C52.5298 115.676 52.1298 115.304 51.6098 115.04C51.0978 114.776 50.5018 114.644 49.8218 114.644H47.5538V120.956H49.8218ZM58.8238 122.072C58.1918 122.072 57.6238 121.932 57.1198 121.652C56.6158 121.372 56.2198 120.988 55.9318 120.5C55.6518 120.004 55.5118 119.444 55.5118 118.82C55.5118 118.196 55.6518 117.64 55.9318 117.152C56.2198 116.656 56.6158 116.272 57.1198 116C57.6238 115.72 58.1918 115.58 58.8238 115.58C59.4558 115.58 60.0198 115.72 60.5158 116C61.0198 116.272 61.4118 116.656 61.6918 117.152C61.9798 117.64 62.1238 118.196 62.1238 118.82C62.1238 119.444 61.9798 120.004 61.6918 120.5C61.4118 120.988 61.0198 121.372 60.5158 121.652C60.0198 121.932 59.4558 122.072 58.8238 122.072ZM58.8238 121.064C59.2318 121.064 59.5958 120.972 59.9158 120.788C60.2438 120.596 60.4998 120.332 60.6838 119.996C60.8678 119.652 60.9598 119.26 60.9598 118.82C60.9598 118.38 60.8678 117.992 60.6838 117.656C60.4998 117.312 60.2438 117.048 59.9158 116.864C59.5958 116.68 59.2318 116.588 58.8238 116.588C58.4158 116.588 58.0478 116.68 57.7198 116.864C57.3998 117.048 57.1438 117.312 56.9518 117.656C56.7678 117.992 56.6758 118.38 56.6758 118.82C56.6758 119.26 56.7678 119.652 56.9518 119.996C57.1438 120.332 57.3998 120.596 57.7198 120.788C58.0478 120.972 58.4158 121.064 58.8238 121.064ZM67.089 115.58C67.705 115.58 68.257 115.716 68.745 115.988C69.233 116.26 69.613 116.64 69.885 117.128C70.165 117.616 70.305 118.18 70.305 118.82C70.305 119.46 70.165 120.028 69.885 120.524C69.613 121.012 69.233 121.392 68.745 121.664C68.257 121.936 67.705 122.072 67.089 122.072C66.617 122.072 66.185 121.98 65.793 121.796C65.401 121.612 65.077 121.344 64.821 120.992V122H63.717V113.096H64.869V116.6C65.125 116.264 65.445 116.012 65.829 115.844C66.213 115.668 66.633 115.58 67.089 115.58ZM66.993 121.064C67.401 121.064 67.765 120.972 68.085 120.788C68.413 120.596 68.669 120.332 68.853 119.996C69.045 119.652 69.141 119.26 69.141 118.82C69.141 118.38 69.045 117.992 68.853 117.656C68.669 117.312 68.413 117.048 68.085 116.864C67.765 116.68 67.401 116.588 66.993 116.588C66.593 116.588 66.229 116.68 65.901 116.864C65.573 117.048 65.317 117.312 65.133 117.656C64.949 117.992 64.857 118.38 64.857 118.82C64.857 119.26 64.949 119.652 65.133 119.996C65.317 120.332 65.573 120.596 65.901 120.788C66.229 120.972 66.593 121.064 66.993 121.064ZM71.8967 113.096H73.0487V122H71.8967V113.096ZM77.5643 115.58C78.4443 115.58 79.1163 115.796 79.5803 116.228C80.0523 116.66 80.2883 117.304 80.2883 118.16V122H79.1963V121.16C79.0043 121.456 78.7283 121.684 78.3683 121.844C78.0163 121.996 77.5963 122.072 77.1083 122.072C76.3963 122.072 75.8243 121.9 75.3923 121.556C74.9683 121.212 74.7563 120.76 74.7563 120.2C74.7563 119.64 74.9603 119.192 75.3683 118.856C75.7763 118.512 76.4243 118.34 77.3123 118.34H79.1363V118.112C79.1363 117.616 78.9923 117.236 78.7043 116.972C78.4163 116.708 77.9923 116.576 77.4323 116.576C77.0563 116.576 76.6883 116.64 76.3283 116.768C75.9683 116.888 75.6643 117.052 75.4163 117.26L74.9363 116.396C75.2643 116.132 75.6563 115.932 76.1123 115.796C76.5683 115.652 77.0523 115.58 77.5643 115.58ZM77.3003 121.184C77.7403 121.184 78.1203 121.088 78.4403 120.896C78.7603 120.696 78.9923 120.416 79.1363 120.056V119.168H77.3603C76.3843 119.168 75.8963 119.496 75.8963 120.152C75.8963 120.472 76.0203 120.724 76.2683 120.908C76.5163 121.092 76.8603 121.184 77.3003 121.184ZM85.6428 113.096H86.7948V122H85.6428V113.096ZM91.3103 115.58C92.1903 115.58 92.8623 115.796 93.3263 116.228C93.7983 116.66 94.0343 117.304 94.0343 118.16V122H92.9423V121.16C92.7503 121.456 92.4743 121.684 92.1143 121.844C91.7623 121.996 91.3423 122.072 90.8543 122.072C90.1423 122.072 89.5703 121.9 89.1383 121.556C88.7143 121.212 88.5023 120.76 88.5023 120.2C88.5023 119.64 88.7063 119.192 89.1143 118.856C89.5223 118.512 90.1703 118.34 91.0583 118.34H92.8823V118.112C92.8823 117.616 92.7383 117.236 92.4503 116.972C92.1623 116.708 91.7383 116.576 91.1783 116.576C90.8023 116.576 90.4343 116.64 90.0743 116.768C89.7143 116.888 89.4103 117.052 89.1623 117.26L88.6823 116.396C89.0103 116.132 89.4023 115.932 89.8583 115.796C90.3143 115.652 90.7983 115.58 91.3103 115.58ZM91.0463 121.184C91.4863 121.184 91.8663 121.088 92.1863 120.896C92.5063 120.696 92.7383 120.416 92.8823 120.056V119.168H91.1063C90.1303 119.168 89.6423 119.496 89.6423 120.152C89.6423 120.472 89.7663 120.724 90.0143 120.908C90.2623 121.092 90.6063 121.184 91.0463 121.184ZM102.761 115.58C103.377 115.58 103.929 115.716 104.417 115.988C104.905 116.26 105.285 116.64 105.557 117.128C105.837 117.616 105.977 118.18 105.977 118.82C105.977 119.46 105.837 120.028 105.557 120.524C105.285 121.012 104.905 121.392 104.417 121.664C103.929 121.936 103.377 122.072 102.761 122.072C102.305 122.072 101.885 121.984 101.501 121.808C101.125 121.632 100.805 121.376 100.541 121.04V124.328H99.3889V115.64H100.493V116.648C100.749 116.296 101.073 116.032 101.465 115.856C101.857 115.672 102.289 115.58 102.761 115.58ZM102.665 121.064C103.073 121.064 103.437 120.972 103.757 120.788C104.085 120.596 104.341 120.332 104.525 119.996C104.717 119.652 104.813 119.26 104.813 118.82C104.813 118.38 104.717 117.992 104.525 117.656C104.341 117.312 104.085 117.048 103.757 116.864C103.437 116.68 103.073 116.588 102.665 116.588C102.265 116.588 101.901 116.684 101.573 116.876C101.253 117.06 100.997 117.32 100.805 117.656C100.621 117.992 100.529 118.38 100.529 118.82C100.529 119.26 100.621 119.652 100.805 119.996C100.989 120.332 101.245 120.596 101.573 120.788C101.901 120.972 102.265 121.064 102.665 121.064ZM113.497 115.64V122H112.405V121.04C112.173 121.368 111.865 121.624 111.481 121.808C111.105 121.984 110.693 122.072 110.245 122.072C109.397 122.072 108.729 121.84 108.241 121.376C107.753 120.904 107.509 120.212 107.509 119.3V115.64H108.661V119.168C108.661 119.784 108.809 120.252 109.105 120.572C109.401 120.884 109.825 121.04 110.377 121.04C110.985 121.04 111.465 120.856 111.817 120.488C112.169 120.12 112.345 119.6 112.345 118.928V115.64H113.497ZM119.086 115.58C119.894 115.58 120.534 115.816 121.006 116.288C121.486 116.752 121.726 117.436 121.726 118.34V122H120.574V118.472C120.574 117.856 120.426 117.392 120.13 117.08C119.834 116.768 119.41 116.612 118.858 116.612C118.234 116.612 117.742 116.796 117.382 117.164C117.022 117.524 116.842 118.044 116.842 118.724V122H115.69V115.64H116.794V116.6C117.026 116.272 117.338 116.02 117.73 115.844C118.13 115.668 118.582 115.58 119.086 115.58ZM127.434 121.628C127.266 121.772 127.058 121.884 126.81 121.964C126.562 122.036 126.306 122.072 126.042 122.072C125.402 122.072 124.906 121.9 124.554 121.556C124.202 121.212 124.026 120.72 124.026 120.08V116.588H122.946V115.64H124.026V114.248H125.178V115.64H127.002V116.588H125.178V120.032C125.178 120.376 125.262 120.64 125.43 120.824C125.606 121.008 125.854 121.1 126.174 121.1C126.526 121.1 126.826 121 127.074 120.8L127.434 121.628ZM131.142 115.58C132.022 115.58 132.694 115.796 133.158 116.228C133.63 116.66 133.866 117.304 133.866 118.16V122H132.774V121.16C132.582 121.456 132.306 121.684 131.946 121.844C131.594 121.996 131.174 122.072 130.686 122.072C129.974 122.072 129.402 121.9 128.97 121.556C128.546 121.212 128.334 120.76 128.334 120.2C128.334 119.64 128.538 119.192 128.946 118.856C129.354 118.512 130.002 118.34 130.89 118.34H132.714V118.112C132.714 117.616 132.57 117.236 132.282 116.972C131.994 116.708 131.57 116.576 131.01 116.576C130.634 116.576 130.266 116.64 129.906 116.768C129.546 116.888 129.242 117.052 128.994 117.26L128.514 116.396C128.842 116.132 129.234 115.932 129.69 115.796C130.146 115.652 130.63 115.58 131.142 115.58ZM130.878 121.184C131.318 121.184 131.698 121.088 132.018 120.896C132.338 120.696 132.57 120.416 132.714 120.056V119.168H130.938C129.962 119.168 129.474 119.496 129.474 120.152C129.474 120.472 129.598 120.724 129.846 120.908C130.094 121.092 130.438 121.184 130.878 121.184ZM36.6601 137.072C36.1401 137.072 35.6401 137.004 35.1601 136.868C34.6801 136.724 34.3041 136.544 34.0321 136.328L34.5121 135.416C34.7921 135.616 35.1321 135.776 35.5321 135.896C35.9321 136.016 36.3361 136.076 36.7441 136.076C37.7521 136.076 38.2561 135.788 38.2561 135.212C38.2561 135.02 38.1881 134.868 38.0521 134.756C37.9161 134.644 37.7441 134.564 37.5361 134.516C37.3361 134.46 37.0481 134.4 36.6721 134.336C36.1601 134.256 35.7401 134.164 35.4121 134.06C35.0921 133.956 34.8161 133.78 34.5841 133.532C34.3521 133.284 34.2361 132.936 34.2361 132.488C34.2361 131.912 34.4761 131.452 34.9561 131.108C35.4361 130.756 36.0801 130.58 36.8881 130.58C37.3121 130.58 37.7361 130.632 38.1601 130.736C38.5841 130.84 38.9321 130.98 39.2041 131.156L38.7121 132.068C38.1921 131.732 37.5801 131.564 36.8761 131.564C36.3881 131.564 36.0161 131.644 35.7601 131.804C35.5041 131.964 35.3761 132.176 35.3761 132.44C35.3761 132.648 35.4481 132.812 35.5921 132.932C35.7361 133.052 35.9121 133.14 36.1201 133.196C36.3361 133.252 36.6361 133.316 37.0201 133.388C37.5321 133.476 37.9441 133.572 38.2561 133.676C38.5761 133.772 38.8481 133.94 39.0721 134.18C39.2961 134.42 39.4081 134.756 39.4081 135.188C39.4081 135.764 39.1601 136.224 38.6641 136.568C38.1761 136.904 37.5081 137.072 36.6601 137.072ZM46.7759 130.64V137H45.6839V136.04C45.4519 136.368 45.1439 136.624 44.7599 136.808C44.3839 136.984 43.9719 137.072 43.5239 137.072C42.6759 137.072 42.0079 136.84 41.5199 136.376C41.0319 135.904 40.7879 135.212 40.7879 134.3V130.64H41.9399V134.168C41.9399 134.784 42.0879 135.252 42.3839 135.572C42.6799 135.884 43.1039 136.04 43.6559 136.04C44.2639 136.04 44.7439 135.856 45.0959 135.488C45.4479 135.12 45.6239 134.6 45.6239 133.928V130.64H46.7759ZM52.341 130.58C52.957 130.58 53.509 130.716 53.997 130.988C54.485 131.26 54.865 131.64 55.137 132.128C55.417 132.616 55.557 133.18 55.557 133.82C55.557 134.46 55.417 135.028 55.137 135.524C54.865 136.012 54.485 136.392 53.997 136.664C53.509 136.936 52.957 137.072 52.341 137.072C51.885 137.072 51.465 136.984 51.081 136.808C50.705 136.632 50.385 136.376 50.121 136.04V139.328H48.969V130.64H50.073V131.648C50.329 131.296 50.653 131.032 51.045 130.856C51.437 130.672 51.869 130.58 52.341 130.58ZM52.245 136.064C52.653 136.064 53.017 135.972 53.337 135.788C53.665 135.596 53.921 135.332 54.105 134.996C54.297 134.652 54.393 134.26 54.393 133.82C54.393 133.38 54.297 132.992 54.105 132.656C53.921 132.312 53.665 132.048 53.337 131.864C53.017 131.68 52.653 131.588 52.245 131.588C51.845 131.588 51.481 131.684 51.153 131.876C50.833 132.06 50.577 132.32 50.385 132.656C50.201 132.992 50.109 133.38 50.109 133.82C50.109 134.26 50.201 134.652 50.385 134.996C50.569 135.332 50.825 135.596 51.153 135.788C51.481 135.972 51.845 136.064 52.245 136.064ZM62.8966 133.856C62.8966 133.944 62.8886 134.06 62.8726 134.204H57.7126C57.7846 134.764 58.0286 135.216 58.4446 135.56C58.8686 135.896 59.3926 136.064 60.0166 136.064C60.7766 136.064 61.3886 135.808 61.8526 135.296L62.4886 136.04C62.2006 136.376 61.8406 136.632 61.4086 136.808C60.9846 136.984 60.5086 137.072 59.9806 137.072C59.3086 137.072 58.7126 136.936 58.1926 136.664C57.6726 136.384 57.2686 135.996 56.9806 135.5C56.7006 135.004 56.5606 134.444 56.5606 133.82C56.5606 133.204 56.6966 132.648 56.9686 132.152C57.2486 131.656 57.6286 131.272 58.1086 131C58.5966 130.72 59.1446 130.58 59.7526 130.58C60.3606 130.58 60.9006 130.72 61.3726 131C61.8526 131.272 62.2246 131.656 62.4886 132.152C62.7606 132.648 62.8966 133.216 62.8966 133.856ZM59.7526 131.552C59.2006 131.552 58.7366 131.72 58.3606 132.056C57.9926 132.392 57.7766 132.832 57.7126 133.376H61.7926C61.7286 132.84 61.5086 132.404 61.1326 132.068C60.7646 131.724 60.3046 131.552 59.7526 131.552ZM65.6003 131.708C65.8003 131.34 66.0963 131.06 66.4883 130.868C66.8803 130.676 67.3563 130.58 67.9163 130.58V131.696C67.8523 131.688 67.7643 131.684 67.6523 131.684C67.0283 131.684 66.5363 131.872 66.1763 132.248C65.8243 132.616 65.6483 133.144 65.6483 133.832V137H64.4963V130.64H65.6003V131.708ZM69.3361 130.64H70.4881V137H69.3361V130.64ZM69.9121 129.416C69.6881 129.416 69.5001 129.344 69.3481 129.2C69.2041 129.056 69.1321 128.88 69.1321 128.672C69.1321 128.464 69.2041 128.288 69.3481 128.144C69.5001 127.992 69.6881 127.916 69.9121 127.916C70.1361 127.916 70.3201 127.988 70.4641 128.132C70.6161 128.268 70.6921 128.44 70.6921 128.648C70.6921 128.864 70.6161 129.048 70.4641 129.2C70.3201 129.344 70.1361 129.416 69.9121 129.416ZM75.4117 137.072C74.7797 137.072 74.2117 136.932 73.7077 136.652C73.2037 136.372 72.8077 135.988 72.5197 135.5C72.2397 135.004 72.0997 134.444 72.0997 133.82C72.0997 133.196 72.2397 132.64 72.5197 132.152C72.8077 131.656 73.2037 131.272 73.7077 131C74.2117 130.72 74.7797 130.58 75.4117 130.58C76.0437 130.58 76.6077 130.72 77.1037 131C77.6077 131.272 77.9997 131.656 78.2797 132.152C78.5677 132.64 78.7117 133.196 78.7117 133.82C78.7117 134.444 78.5677 135.004 78.2797 135.5C77.9997 135.988 77.6077 136.372 77.1037 136.652C76.6077 136.932 76.0437 137.072 75.4117 137.072ZM75.4117 136.064C75.8197 136.064 76.1837 135.972 76.5037 135.788C76.8317 135.596 77.0877 135.332 77.2717 134.996C77.4557 134.652 77.5477 134.26 77.5477 133.82C77.5477 133.38 77.4557 132.992 77.2717 132.656C77.0877 132.312 76.8317 132.048 76.5037 131.864C76.1837 131.68 75.8197 131.588 75.4117 131.588C75.0037 131.588 74.6357 131.68 74.3077 131.864C73.9877 132.048 73.7317 132.312 73.5397 132.656C73.3557 132.992 73.2637 133.38 73.2637 133.82C73.2637 134.26 73.3557 134.652 73.5397 134.996C73.7317 135.332 73.9877 135.596 74.3077 135.788C74.6357 135.972 75.0037 136.064 75.4117 136.064ZM81.4089 131.708C81.6089 131.34 81.9049 131.06 82.2969 130.868C82.6889 130.676 83.1649 130.58 83.7249 130.58V131.696C83.6609 131.688 83.5729 131.684 83.4609 131.684C82.8369 131.684 82.3449 131.872 81.9849 132.248C81.6329 132.616 81.4569 133.144 81.4569 133.832V137H80.3049V130.64H81.4089V131.708ZM94.4494 128.096V137H93.3454V135.992C93.0894 136.344 92.7654 136.612 92.3734 136.796C91.9814 136.98 91.5494 137.072 91.0774 137.072C90.4614 137.072 89.9094 136.936 89.4214 136.664C88.9334 136.392 88.5494 136.012 88.2694 135.524C87.9974 135.028 87.8614 134.46 87.8614 133.82C87.8614 133.18 87.9974 132.616 88.2694 132.128C88.5494 131.64 88.9334 131.26 89.4214 130.988C89.9094 130.716 90.4614 130.58 91.0774 130.58C91.5334 130.58 91.9534 130.668 92.3374 130.844C92.7214 131.012 93.0414 131.264 93.2974 131.6V128.096H94.4494ZM91.1734 136.064C91.5734 136.064 91.9374 135.972 92.2654 135.788C92.5934 135.596 92.8494 135.332 93.0334 134.996C93.2174 134.652 93.3094 134.26 93.3094 133.82C93.3094 133.38 93.2174 132.992 93.0334 132.656C92.8494 132.312 92.5934 132.048 92.2654 131.864C91.9374 131.68 91.5734 131.588 91.1734 131.588C90.7654 131.588 90.3974 131.68 90.0694 131.864C89.7494 132.048 89.4934 132.312 89.3014 132.656C89.1174 132.992 89.0254 133.38 89.0254 133.82C89.0254 134.26 89.1174 134.652 89.3014 134.996C89.4934 135.332 89.7494 135.596 90.0694 135.788C90.3974 135.972 90.7654 136.064 91.1734 136.064ZM102.377 133.856C102.377 133.944 102.369 134.06 102.353 134.204H97.1931C97.2651 134.764 97.5091 135.216 97.9251 135.56C98.3491 135.896 98.8731 136.064 99.4971 136.064C100.257 136.064 100.869 135.808 101.333 135.296L101.969 136.04C101.681 136.376 101.321 136.632 100.889 136.808C100.465 136.984 99.9891 137.072 99.4611 137.072C98.7891 137.072 98.1931 136.936 97.6731 136.664C97.1531 136.384 96.7491 135.996 96.4611 135.5C96.1811 135.004 96.0411 134.444 96.0411 133.82C96.0411 133.204 96.1771 132.648 96.4491 132.152C96.7291 131.656 97.1091 131.272 97.5891 131C98.0771 130.72 98.6251 130.58 99.2331 130.58C99.8411 130.58 100.381 130.72 100.853 131C101.333 131.272 101.705 131.656 101.969 132.152C102.241 132.648 102.377 133.216 102.377 133.856ZM99.2331 131.552C98.6811 131.552 98.2171 131.72 97.8411 132.056C97.4731 132.392 97.2571 132.832 97.1931 133.376H101.273C101.209 132.84 100.989 132.404 100.613 132.068C100.245 131.724 99.7851 131.552 99.2331 131.552ZM107.199 128.096H108.351V137H107.199V128.096ZM112.867 130.58C113.747 130.58 114.419 130.796 114.883 131.228C115.355 131.66 115.591 132.304 115.591 133.16V137H114.499V136.16C114.307 136.456 114.031 136.684 113.671 136.844C113.319 136.996 112.899 137.072 112.411 137.072C111.699 137.072 111.127 136.9 110.695 136.556C110.271 136.212 110.059 135.76 110.059 135.2C110.059 134.64 110.263 134.192 110.671 133.856C111.079 133.512 111.727 133.34 112.615 133.34H114.439V133.112C114.439 132.616 114.295 132.236 114.007 131.972C113.719 131.708 113.295 131.576 112.735 131.576C112.359 131.576 111.991 131.64 111.631 131.768C111.271 131.888 110.967 132.052 110.719 132.26L110.239 131.396C110.567 131.132 110.959 130.932 111.415 130.796C111.871 130.652 112.355 130.58 112.867 130.58ZM112.603 136.184C113.043 136.184 113.423 136.088 113.743 135.896C114.063 135.696 114.295 135.416 114.439 135.056V134.168H112.663C111.687 134.168 111.199 134.496 111.199 135.152C111.199 135.472 111.323 135.724 111.571 135.908C111.819 136.092 112.163 136.184 112.603 136.184ZM124.342 130.58C125.15 130.58 125.79 130.816 126.262 131.288C126.742 131.752 126.982 132.436 126.982 133.34V137H125.83V133.472C125.83 132.856 125.682 132.392 125.386 132.08C125.09 131.768 124.666 131.612 124.114 131.612C123.49 131.612 122.998 131.796 122.638 132.164C122.278 132.524 122.098 133.044 122.098 133.724V137H120.946V128.096H122.098V131.54C122.338 131.236 122.65 131 123.034 130.832C123.426 130.664 123.862 130.58 124.342 130.58ZM131.873 137.072C131.241 137.072 130.673 136.932 130.169 136.652C129.665 136.372 129.269 135.988 128.981 135.5C128.701 135.004 128.561 134.444 128.561 133.82C128.561 133.196 128.701 132.64 128.981 132.152C129.269 131.656 129.665 131.272 130.169 131C130.673 130.72 131.241 130.58 131.873 130.58C132.505 130.58 133.069 130.72 133.565 131C134.069 131.272 134.461 131.656 134.741 132.152C135.029 132.64 135.173 133.196 135.173 133.82C135.173 134.444 135.029 135.004 134.741 135.5C134.461 135.988 134.069 136.372 133.565 136.652C133.069 136.932 132.505 137.072 131.873 137.072ZM131.873 136.064C132.281 136.064 132.645 135.972 132.965 135.788C133.293 135.596 133.549 135.332 133.733 134.996C133.917 134.652 134.009 134.26 134.009 133.82C134.009 133.38 133.917 132.992 133.733 132.656C133.549 132.312 133.293 132.048 132.965 131.864C132.645 131.68 132.281 131.588 131.873 131.588C131.465 131.588 131.097 131.68 130.769 131.864C130.449 132.048 130.193 132.312 130.001 132.656C129.817 132.992 129.725 133.38 129.725 133.82C129.725 134.26 129.817 134.652 130.001 134.996C130.193 135.332 130.449 135.596 130.769 135.788C131.097 135.972 131.465 136.064 131.873 136.064ZM135.95 139.4C135.67 139.4 135.41 139.368 135.17 139.304C134.93 139.24 134.73 139.144 134.57 139.016L134.942 138.128C135.182 138.328 135.494 138.428 135.878 138.428C136.182 138.428 136.414 138.332 136.574 138.14C136.742 137.956 136.826 137.68 136.826 137.312V130.64H137.978V137.288C137.978 137.944 137.802 138.46 137.45 138.836C137.098 139.212 136.598 139.4 135.95 139.4ZM137.402 129.416C137.178 129.416 136.99 129.344 136.838 129.2C136.694 129.056 136.622 128.88 136.622 128.672C136.622 128.464 136.694 128.288 136.838 128.144C136.99 127.992 137.178 127.916 137.402 127.916C137.626 127.916 137.81 127.988 137.954 128.132C138.106 128.268 138.182 128.44 138.182 128.648C138.182 128.864 138.106 129.048 137.954 129.2C137.81 129.344 137.626 129.416 137.402 129.416ZM142.492 130.58C143.372 130.58 144.044 130.796 144.508 131.228C144.98 131.66 145.216 132.304 145.216 133.16V137H144.124V136.16C143.932 136.456 143.656 136.684 143.296 136.844C142.944 136.996 142.524 137.072 142.036 137.072C141.324 137.072 140.752 136.9 140.32 136.556C139.896 136.212 139.684 135.76 139.684 135.2C139.684 134.64 139.888 134.192 140.296 133.856C140.704 133.512 141.352 133.34 142.24 133.34H144.064V133.112C144.064 132.616 143.92 132.236 143.632 131.972C143.344 131.708 142.92 131.576 142.36 131.576C141.984 131.576 141.616 131.64 141.256 131.768C140.896 131.888 140.592 132.052 140.344 132.26L139.864 131.396C140.192 131.132 140.584 130.932 141.04 130.796C141.496 130.652 141.98 130.58 142.492 130.58ZM142.228 136.184C142.668 136.184 143.048 136.088 143.368 135.896C143.688 135.696 143.92 135.416 144.064 135.056V134.168H142.288C141.312 134.168 140.824 134.496 140.824 135.152C140.824 135.472 140.948 135.724 141.196 135.908C141.444 136.092 141.788 136.184 142.228 136.184ZM37.986 145.58C38.794 145.58 39.434 145.816 39.906 146.288C40.386 146.752 40.626 147.436 40.626 148.34V152H39.474V148.472C39.474 147.856 39.326 147.392 39.03 147.08C38.734 146.768 38.31 146.612 37.758 146.612C37.134 146.612 36.642 146.796 36.282 147.164C35.922 147.524 35.742 148.044 35.742 148.724V152H34.59V143.096H35.742V146.54C35.982 146.236 36.294 146 36.678 145.832C37.07 145.664 37.506 145.58 37.986 145.58ZM45.074 145.58C45.954 145.58 46.626 145.796 47.09 146.228C47.562 146.66 47.798 147.304 47.798 148.16V152H46.706V151.16C46.514 151.456 46.238 151.684 45.878 151.844C45.526 151.996 45.106 152.072 44.618 152.072C43.906 152.072 43.334 151.9 42.902 151.556C42.478 151.212 42.266 150.76 42.266 150.2C42.266 149.64 42.47 149.192 42.878 148.856C43.286 148.512 43.934 148.34 44.822 148.34H46.646V148.112C46.646 147.616 46.502 147.236 46.214 146.972C45.926 146.708 45.502 146.576 44.942 146.576C44.566 146.576 44.198 146.64 43.838 146.768C43.478 146.888 43.174 147.052 42.926 147.26L42.446 146.396C42.774 146.132 43.166 145.932 43.622 145.796C44.078 145.652 44.562 145.58 45.074 145.58ZM44.81 151.184C45.25 151.184 45.63 151.088 45.95 150.896C46.27 150.696 46.502 150.416 46.646 150.056V149.168H44.87C43.894 149.168 43.406 149.496 43.406 150.152C43.406 150.472 43.53 150.724 43.778 150.908C44.026 151.092 44.37 151.184 44.81 151.184ZM52.737 152.072C52.089 152.072 51.509 151.932 50.997 151.652C50.493 151.372 50.097 150.988 49.809 150.5C49.521 150.004 49.377 149.444 49.377 148.82C49.377 148.196 49.521 147.64 49.809 147.152C50.097 146.656 50.493 146.272 50.997 146C51.509 145.72 52.089 145.58 52.737 145.58C53.313 145.58 53.825 145.696 54.273 145.928C54.729 146.16 55.081 146.496 55.329 146.936L54.453 147.5C54.253 147.196 54.005 146.968 53.709 146.816C53.413 146.664 53.085 146.588 52.725 146.588C52.309 146.588 51.933 146.68 51.597 146.864C51.269 147.048 51.009 147.312 50.817 147.656C50.633 147.992 50.541 148.38 50.541 148.82C50.541 149.268 50.633 149.664 50.817 150.008C51.009 150.344 51.269 150.604 51.597 150.788C51.933 150.972 52.309 151.064 52.725 151.064C53.085 151.064 53.413 150.988 53.709 150.836C54.005 150.684 54.253 150.456 54.453 150.152L55.329 150.704C55.081 151.144 54.729 151.484 54.273 151.724C53.825 151.956 53.313 152.072 52.737 152.072ZM56.8205 145.64H57.9725V152H56.8205V145.64ZM57.3965 144.416C57.1725 144.416 56.9845 144.344 56.8325 144.2C56.6885 144.056 56.6165 143.88 56.6165 143.672C56.6165 143.464 56.6885 143.288 56.8325 143.144C56.9845 142.992 57.1725 142.916 57.3965 142.916C57.6205 142.916 57.8045 142.988 57.9485 143.132C58.1005 143.268 58.1765 143.44 58.1765 143.648C58.1765 143.864 58.1005 144.048 57.9485 144.2C57.8045 144.344 57.6205 144.416 57.3965 144.416ZM62.4881 145.58C63.3681 145.58 64.0401 145.796 64.5041 146.228C64.9761 146.66 65.2121 147.304 65.2121 148.16V152H64.1201V151.16C63.9281 151.456 63.6521 151.684 63.2921 151.844C62.9401 151.996 62.5201 152.072 62.0321 152.072C61.3201 152.072 60.7481 151.9 60.3161 151.556C59.8921 151.212 59.6801 150.76 59.6801 150.2C59.6801 149.64 59.8841 149.192 60.2921 148.856C60.7001 148.512 61.3481 148.34 62.2361 148.34H64.0601V148.112C64.0601 147.616 63.9161 147.236 63.6281 146.972C63.3401 146.708 62.9161 146.576 62.3561 146.576C61.9801 146.576 61.6121 146.64 61.2521 146.768C60.8921 146.888 60.5881 147.052 60.3401 147.26L59.8601 146.396C60.1881 146.132 60.5801 145.932 61.0361 145.796C61.4921 145.652 61.9761 145.58 62.4881 145.58ZM62.2241 151.184C62.6641 151.184 63.0441 151.088 63.3641 150.896C63.6841 150.696 63.9161 150.416 64.0601 150.056V149.168H62.2841C61.3081 149.168 60.8201 149.496 60.8201 150.152C60.8201 150.472 60.9441 150.724 61.1921 150.908C61.4401 151.092 61.7841 151.184 62.2241 151.184ZM76.3146 148.856C76.3146 148.944 76.3066 149.06 76.2906 149.204H71.1306C71.2026 149.764 71.4466 150.216 71.8626 150.56C72.2866 150.896 72.8106 151.064 73.4346 151.064C74.1946 151.064 74.8066 150.808 75.2706 150.296L75.9066 151.04C75.6186 151.376 75.2586 151.632 74.8266 151.808C74.4026 151.984 73.9266 152.072 73.3986 152.072C72.7266 152.072 72.1306 151.936 71.6106 151.664C71.0906 151.384 70.6866 150.996 70.3986 150.5C70.1186 150.004 69.9786 149.444 69.9786 148.82C69.9786 148.204 70.1146 147.648 70.3866 147.152C70.6666 146.656 71.0466 146.272 71.5266 146C72.0146 145.72 72.5626 145.58 73.1706 145.58C73.7786 145.58 74.3186 145.72 74.7906 146C75.2706 146.272 75.6426 146.656 75.9066 147.152C76.1786 147.648 76.3146 148.216 76.3146 148.856ZM73.1706 146.552C72.6186 146.552 72.1546 146.72 71.7786 147.056C71.4106 147.392 71.1946 147.832 71.1306 148.376H75.2106C75.1466 147.84 74.9266 147.404 74.5506 147.068C74.1826 146.724 73.7226 146.552 73.1706 146.552ZM77.9143 143.096H79.0663V152H77.9143V143.096ZM84.4885 145.64H85.6405V152H84.4885V145.64ZM85.0645 144.416C84.8405 144.416 84.6525 144.344 84.5005 144.2C84.3565 144.056 84.2845 143.88 84.2845 143.672C84.2845 143.464 84.3565 143.288 84.5005 143.144C84.6525 142.992 84.8405 142.916 85.0645 142.916C85.2885 142.916 85.4725 142.988 85.6165 143.132C85.7685 143.268 85.8445 143.44 85.8445 143.648C85.8445 143.864 85.7685 144.048 85.6165 144.2C85.4725 144.344 85.2885 144.416 85.0645 144.416ZM91.236 145.58C92.044 145.58 92.684 145.816 93.156 146.288C93.636 146.752 93.876 147.436 93.876 148.34V152H92.724V148.472C92.724 147.856 92.576 147.392 92.28 147.08C91.984 146.768 91.56 146.612 91.008 146.612C90.384 146.612 89.892 146.796 89.532 147.164C89.172 147.524 88.992 148.044 88.992 148.724V152H87.84V145.64H88.944V146.6C89.176 146.272 89.488 146.02 89.88 145.844C90.28 145.668 90.732 145.58 91.236 145.58ZM99.584 151.628C99.416 151.772 99.208 151.884 98.96 151.964C98.712 152.036 98.456 152.072 98.192 152.072C97.552 152.072 97.056 151.9 96.704 151.556C96.352 151.212 96.176 150.72 96.176 150.08V146.588H95.096V145.64H96.176V144.248H97.328V145.64H99.152V146.588H97.328V150.032C97.328 150.376 97.412 150.64 97.58 150.824C97.756 151.008 98.004 151.1 98.324 151.1C98.676 151.1 98.976 151 99.224 150.8L99.584 151.628ZM106.514 148.856C106.514 148.944 106.506 149.06 106.49 149.204H101.33C101.402 149.764 101.646 150.216 102.062 150.56C102.486 150.896 103.01 151.064 103.634 151.064C104.394 151.064 105.006 150.808 105.47 150.296L106.106 151.04C105.818 151.376 105.458 151.632 105.026 151.808C104.602 151.984 104.126 152.072 103.598 152.072C102.926 152.072 102.33 151.936 101.81 151.664C101.29 151.384 100.886 150.996 100.598 150.5C100.318 150.004 100.178 149.444 100.178 148.82C100.178 148.204 100.314 147.648 100.586 147.152C100.866 146.656 101.246 146.272 101.726 146C102.214 145.72 102.762 145.58 103.37 145.58C103.978 145.58 104.518 145.72 104.99 146C105.47 146.272 105.842 146.656 106.106 147.152C106.378 147.648 106.514 148.216 106.514 148.856ZM103.37 146.552C102.818 146.552 102.354 146.72 101.978 147.056C101.61 147.392 101.394 147.832 101.33 148.376H105.41C105.346 147.84 105.126 147.404 104.75 147.068C104.382 146.724 103.922 146.552 103.37 146.552ZM109.217 146.708C109.417 146.34 109.713 146.06 110.105 145.868C110.497 145.676 110.973 145.58 111.533 145.58V146.696C111.469 146.688 111.381 146.684 111.269 146.684C110.645 146.684 110.153 146.872 109.793 147.248C109.441 147.616 109.265 148.144 109.265 148.832V152H108.113V145.64H109.217V146.708ZM112.953 145.64H114.105V152H112.953V145.64ZM113.529 144.416C113.305 144.416 113.117 144.344 112.965 144.2C112.821 144.056 112.749 143.88 112.749 143.672C112.749 143.464 112.821 143.288 112.965 143.144C113.117 142.992 113.305 142.916 113.529 142.916C113.753 142.916 113.937 142.988 114.081 143.132C114.233 143.268 114.309 143.44 114.309 143.648C114.309 143.864 114.233 144.048 114.081 144.2C113.937 144.344 113.753 144.416 113.529 144.416ZM119.029 152.072C118.397 152.072 117.829 151.932 117.325 151.652C116.821 151.372 116.425 150.988 116.137 150.5C115.857 150.004 115.717 149.444 115.717 148.82C115.717 148.196 115.857 147.64 116.137 147.152C116.425 146.656 116.821 146.272 117.325 146C117.829 145.72 118.397 145.58 119.029 145.58C119.661 145.58 120.225 145.72 120.721 146C121.225 146.272 121.617 146.656 121.897 147.152C122.185 147.64 122.329 148.196 122.329 148.82C122.329 149.444 122.185 150.004 121.897 150.5C121.617 150.988 121.225 151.372 120.721 151.652C120.225 151.932 119.661 152.072 119.029 152.072ZM119.029 151.064C119.437 151.064 119.801 150.972 120.121 150.788C120.449 150.596 120.705 150.332 120.889 149.996C121.073 149.652 121.165 149.26 121.165 148.82C121.165 148.38 121.073 147.992 120.889 147.656C120.705 147.312 120.449 147.048 120.121 146.864C119.801 146.68 119.437 146.588 119.029 146.588C118.621 146.588 118.253 146.68 117.925 146.864C117.605 147.048 117.349 147.312 117.157 147.656C116.973 147.992 116.881 148.38 116.881 148.82C116.881 149.26 116.973 149.652 117.157 149.996C117.349 150.332 117.605 150.596 117.925 150.788C118.253 150.972 118.621 151.064 119.029 151.064ZM125.026 146.708C125.226 146.34 125.522 146.06 125.914 145.868C126.306 145.676 126.782 145.58 127.342 145.58V146.696C127.278 146.688 127.19 146.684 127.078 146.684C126.454 146.684 125.962 146.872 125.602 147.248C125.25 147.616 125.074 148.144 125.074 148.832V152H123.922V145.64H125.026V146.708ZM138.067 143.096V152H136.963V150.992C136.707 151.344 136.383 151.612 135.991 151.796C135.599 151.98 135.167 152.072 134.695 152.072C134.079 152.072 133.527 151.936 133.039 151.664C132.551 151.392 132.167 151.012 131.887 150.524C131.615 150.028 131.479 149.46 131.479 148.82C131.479 148.18 131.615 147.616 131.887 147.128C132.167 146.64 132.551 146.26 133.039 145.988C133.527 145.716 134.079 145.58 134.695 145.58C135.151 145.58 135.571 145.668 135.955 145.844C136.339 146.012 136.659 146.264 136.915 146.6V143.096H138.067ZM134.791 151.064C135.191 151.064 135.555 150.972 135.883 150.788C136.211 150.596 136.467 150.332 136.651 149.996C136.835 149.652 136.927 149.26 136.927 148.82C136.927 148.38 136.835 147.992 136.651 147.656C136.467 147.312 136.211 147.048 135.883 146.864C135.555 146.68 135.191 146.588 134.791 146.588C134.383 146.588 134.015 146.68 133.687 146.864C133.367 147.048 133.111 147.312 132.919 147.656C132.735 147.992 132.643 148.38 132.643 148.82C132.643 149.26 132.735 149.652 132.919 149.996C133.111 150.332 133.367 150.596 133.687 150.788C134.015 150.972 134.383 151.064 134.791 151.064ZM145.994 148.856C145.994 148.944 145.986 149.06 145.97 149.204H140.81C140.882 149.764 141.126 150.216 141.542 150.56C141.966 150.896 142.49 151.064 143.114 151.064C143.874 151.064 144.486 150.808 144.95 150.296L145.586 151.04C145.298 151.376 144.938 151.632 144.506 151.808C144.082 151.984 143.606 152.072 143.078 152.072C142.406 152.072 141.81 151.936 141.29 151.664C140.77 151.384 140.366 150.996 140.078 150.5C139.798 150.004 139.658 149.444 139.658 148.82C139.658 148.204 139.794 147.648 140.066 147.152C140.346 146.656 140.726 146.272 141.206 146C141.694 145.72 142.242 145.58 142.85 145.58C143.458 145.58 143.998 145.72 144.47 146C144.95 146.272 145.322 146.656 145.586 147.152C145.858 147.648 145.994 148.216 145.994 148.856ZM142.85 146.552C142.298 146.552 141.834 146.72 141.458 147.056C141.09 147.392 140.874 147.832 140.81 148.376H144.89C144.826 147.84 144.606 147.404 144.23 147.068C143.862 146.724 143.402 146.552 142.85 146.552ZM64.385 158.096H65.537V167H64.385V158.096ZM70.0525 160.58C70.9325 160.58 71.6045 160.796 72.0685 161.228C72.5405 161.66 72.7765 162.304 72.7765 163.16V167H71.6845V166.16C71.4925 166.456 71.2165 166.684 70.8565 166.844C70.5045 166.996 70.0845 167.072 69.5965 167.072C68.8845 167.072 68.3125 166.9 67.8805 166.556C67.4565 166.212 67.2445 165.76 67.2445 165.2C67.2445 164.64 67.4485 164.192 67.8565 163.856C68.2645 163.512 68.9125 163.34 69.8005 163.34H71.6245V163.112C71.6245 162.616 71.4805 162.236 71.1925 161.972C70.9045 161.708 70.4805 161.576 69.9205 161.576C69.5445 161.576 69.1765 161.64 68.8165 161.768C68.4565 161.888 68.1525 162.052 67.9045 162.26L67.4245 161.396C67.7525 161.132 68.1445 160.932 68.6005 160.796C69.0565 160.652 69.5405 160.58 70.0525 160.58ZM69.7885 166.184C70.2285 166.184 70.6085 166.088 70.9285 165.896C71.2485 165.696 71.4805 165.416 71.6245 165.056V164.168H69.8485C68.8725 164.168 68.3845 164.496 68.3845 165.152C68.3845 165.472 68.5085 165.724 68.7565 165.908C69.0045 166.092 69.3485 166.184 69.7885 166.184ZM80.4591 158.972C79.7711 158.972 79.4271 159.344 79.4271 160.088V160.64H81.2751V161.588H79.4511V167H78.2991V161.588H77.2191V160.64H78.2991V160.076C78.2991 159.444 78.4831 158.944 78.8511 158.576C79.2191 158.208 79.7351 158.024 80.3991 158.024C80.6551 158.024 80.8951 158.056 81.1191 158.12C81.3431 158.184 81.5351 158.276 81.6951 158.396L81.3471 159.272C81.0831 159.072 80.7871 158.972 80.4591 158.972ZM83.3271 160.64H84.4791V167H83.3271V160.64ZM83.9031 159.416C83.6791 159.416 83.4911 159.344 83.3391 159.2C83.1951 159.056 83.1231 158.88 83.1231 158.672C83.1231 158.464 83.1951 158.288 83.3391 158.144C83.4911 157.992 83.6791 157.916 83.9031 157.916C84.1271 157.916 84.3111 157.988 84.4551 158.132C84.6071 158.268 84.6831 158.44 84.6831 158.648C84.6831 158.864 84.6071 159.048 84.4551 159.2C84.3111 159.344 84.1271 159.416 83.9031 159.416ZM92.758 160.64V166.136C92.758 167.248 92.482 168.068 91.93 168.596C91.378 169.132 90.554 169.4 89.458 169.4C88.858 169.4 88.286 169.316 87.742 169.148C87.198 168.988 86.758 168.756 86.422 168.452L86.974 167.564C87.27 167.82 87.634 168.02 88.066 168.164C88.506 168.316 88.958 168.392 89.422 168.392C90.166 168.392 90.714 168.216 91.066 167.864C91.426 167.512 91.606 166.976 91.606 166.256V165.752C91.334 166.08 90.998 166.328 90.598 166.496C90.206 166.656 89.778 166.736 89.314 166.736C88.706 166.736 88.154 166.608 87.658 166.352C87.17 166.088 86.786 165.724 86.506 165.26C86.226 164.788 86.086 164.252 86.086 163.652C86.086 163.052 86.226 162.52 86.506 162.056C86.786 161.584 87.17 161.22 87.658 160.964C88.154 160.708 88.706 160.58 89.314 160.58C89.794 160.58 90.238 160.668 90.646 160.844C91.062 161.02 91.402 161.28 91.666 161.624V160.64H92.758ZM89.446 165.728C89.862 165.728 90.234 165.64 90.562 165.464C90.898 165.288 91.158 165.044 91.342 164.732C91.534 164.412 91.63 164.052 91.63 163.652C91.63 163.036 91.426 162.54 91.018 162.164C90.61 161.78 90.086 161.588 89.446 161.588C88.798 161.588 88.27 161.78 87.862 162.164C87.454 162.54 87.25 163.036 87.25 163.652C87.25 164.052 87.342 164.412 87.526 164.732C87.718 165.044 87.978 165.288 88.306 165.464C88.642 165.64 89.022 165.728 89.446 165.728ZM100.887 160.64V167H99.7952V166.04C99.5632 166.368 99.2552 166.624 98.8712 166.808C98.4952 166.984 98.0832 167.072 97.6352 167.072C96.7872 167.072 96.1192 166.84 95.6312 166.376C95.1432 165.904 94.8992 165.212 94.8992 164.3V160.64H96.0512V164.168C96.0512 164.784 96.1992 165.252 96.4952 165.572C96.7912 165.884 97.2152 166.04 97.7672 166.04C98.3752 166.04 98.8552 165.856 99.2072 165.488C99.5592 165.12 99.7352 164.6 99.7352 163.928V160.64H100.887ZM104.184 161.708C104.384 161.34 104.68 161.06 105.072 160.868C105.464 160.676 105.94 160.58 106.5 160.58V161.696C106.436 161.688 106.348 161.684 106.236 161.684C105.612 161.684 105.12 161.872 104.76 162.248C104.408 162.616 104.232 163.144 104.232 163.832V167H103.08V160.64H104.184V161.708ZM110.224 160.58C111.104 160.58 111.776 160.796 112.24 161.228C112.712 161.66 112.948 162.304 112.948 163.16V167H111.856V166.16C111.664 166.456 111.388 166.684 111.028 166.844C110.676 166.996 110.256 167.072 109.768 167.072C109.056 167.072 108.484 166.9 108.052 166.556C107.628 166.212 107.416 165.76 107.416 165.2C107.416 164.64 107.62 164.192 108.028 163.856C108.436 163.512 109.084 163.34 109.972 163.34H111.796V163.112C111.796 162.616 111.652 162.236 111.364 161.972C111.076 161.708 110.652 161.576 110.092 161.576C109.716 161.576 109.348 161.64 108.988 161.768C108.628 161.888 108.324 162.052 108.076 162.26L107.596 161.396C107.924 161.132 108.316 160.932 108.772 160.796C109.228 160.652 109.712 160.58 110.224 160.58ZM109.96 166.184C110.4 166.184 110.78 166.088 111.1 165.896C111.42 165.696 111.652 165.416 111.796 165.056V164.168H110.02C109.044 164.168 108.556 164.496 108.556 165.152C108.556 165.472 108.68 165.724 108.928 165.908C109.176 166.092 109.52 166.184 109.96 166.184ZM115.356 167.072C115.132 167.072 114.94 166.996 114.78 166.844C114.62 166.684 114.54 166.484 114.54 166.244C114.54 166.012 114.62 165.82 114.78 165.668C114.94 165.508 115.132 165.428 115.356 165.428C115.58 165.428 115.768 165.504 115.92 165.656C116.072 165.808 116.148 166.004 116.148 166.244C116.148 166.484 116.068 166.684 115.908 166.844C115.756 166.996 115.572 167.072 115.356 167.072Z" fill="#008E86"/>
<path d="M59.8047 77.219L65.2287 41.4205L122 100L67.7599 98.192L59.8047 77.219Z" fill="#008E86" stroke="#00635D" stroke-width="2" stroke-linejoin="round"/>
<path d="M64.5049 40.6973L80.777 24.0636L84.393 29.126L64.8665 79.0271L64.5049 40.6973Z" fill="#00D8CC" stroke="#00635D" stroke-width="2" stroke-linejoin="round"/>
<path d="M71.0146 13.2155L83.3091 19.7243L84.3939 29.126L71.0146 13.2155Z" fill="#00D8CC" stroke="#00635D" stroke-width="2" stroke-linejoin="round"/>
<path d="M64.8672 79.0269L76.0768 51.9067L122 99.6382L73.184 99.6382L64.8672 79.0269Z" fill="#00D8CC" stroke="#00635D" stroke-width="2" stroke-linejoin="round"/>
<path d="M58.8089 10.1246C58.7401 9.57662 59.1286 9.07665 59.6766 9.00789C60.2246 8.93914 60.7246 9.32763 60.7933 9.87562L58.8089 10.1246ZM75.4988 22.7358C75.883 23.1325 75.8729 23.7656 75.4762 24.1498L69.0116 30.4115C68.6148 30.7957 67.9818 30.7856 67.5975 30.3889C67.2133 29.9922 67.2234 29.3591 67.6201 28.9749L73.3664 23.409L67.8005 17.6626C67.4163 17.2659 67.4264 16.6328 67.8231 16.2486C68.2198 15.8643 68.8528 15.8744 69.2371 16.2711L75.4988 22.7358ZM60.7933 9.87562C61.2631 13.6194 62.803 16.7151 65.1714 18.8887C67.5369 21.0595 70.7908 22.3678 74.7964 22.4317L74.7645 24.4314C70.325 24.3606 66.5845 22.9 63.8191 20.3623C61.0568 17.8272 59.3296 14.2746 58.8089 10.1246L60.7933 9.87562Z" fill="black"/>
<path d="M79.3311 14.6619L73.5454 20.4475" stroke="#00635D" stroke-width="2" stroke-linecap="round"/>
</g>
<defs>
<clipPath id="clip0_5693_197623">
<rect width="180" height="180" rx="20" fill="white"/>
</clipPath>
<clipPath id="clip1_5693_197623">
<path d="M0 30L-1.31134e-06 0L30 -1.31134e-06L30 10C30 21.0457 21.0457 30 10 30L0 30Z" fill="white"/>
</clipPath>
</defs>
</svg>
