<svg width="180" height="180" viewBox="0 0 180 180" fill="none" xmlns="http://www.w3.org/2000/svg">
<g clip-path="url(#clip0_5706_201384)">
<rect width="180" height="180" rx="20" fill="#F2F2F2"/>

<path d="M24.2346 128.6H27.7746C28.6626 128.6 29.4506 128.776 30.1386 129.128C30.8266 129.48 31.3586 129.976 31.7346 130.616C32.1186 131.248 32.3106 131.976 32.3106 132.8C32.3106 133.624 32.1186 134.356 31.7346 134.996C31.3586 135.628 30.8266 136.12 30.1386 136.472C29.4506 136.824 28.6626 137 27.7746 137H24.2346V128.6ZM27.7026 135.956C28.3826 135.956 28.9786 135.824 29.4906 135.56C30.0106 135.296 30.4106 134.928 30.6906 134.456C30.9706 133.976 31.1106 133.424 31.1106 132.8C31.1106 132.176 30.9706 131.628 30.6906 131.156C30.4106 130.676 30.0106 130.304 29.4906 130.04C28.9786 129.776 28.3826 129.644 27.7026 129.644H25.4346V135.956H27.7026ZM36.7047 137.072C36.0727 137.072 35.5047 136.932 35.0007 136.652C34.4967 136.372 34.1007 135.988 33.8127 135.5C33.5327 135.004 33.3927 134.444 33.3927 133.82C33.3927 133.196 33.5327 132.64 33.8127 132.152C34.1007 131.656 34.4967 131.272 35.0007 131C35.5047 130.72 36.0727 130.58 36.7047 130.58C37.3367 130.58 37.9007 130.72 38.3967 131C38.9007 131.272 39.2927 131.656 39.5727 132.152C39.8607 132.64 40.0047 133.196 40.0047 133.82C40.0047 134.444 39.8607 135.004 39.5727 135.5C39.2927 135.988 38.9007 136.372 38.3967 136.652C37.9007 136.932 37.3367 137.072 36.7047 137.072ZM36.7047 136.064C37.1127 136.064 37.4767 135.972 37.7967 135.788C38.1247 135.596 38.3807 135.332 38.5647 134.996C38.7487 134.652 38.8407 134.26 38.8407 133.82C38.8407 133.38 38.7487 132.992 38.5647 132.656C38.3807 132.312 38.1247 132.048 37.7967 131.864C37.4767 131.68 37.1127 131.588 36.7047 131.588C36.2967 131.588 35.9287 131.68 35.6007 131.864C35.2807 132.048 35.0247 132.312 34.8327 132.656C34.6487 132.992 34.5567 133.38 34.5567 133.82C34.5567 134.26 34.6487 134.652 34.8327 134.996C35.0247 135.332 35.2807 135.596 35.6007 135.788C35.9287 135.972 36.2967 136.064 36.7047 136.064ZM44.9699 130.58C45.5859 130.58 46.1379 130.716 46.6259 130.988C47.1139 131.26 47.4939 131.64 47.7659 132.128C48.0459 132.616 48.1859 133.18 48.1859 133.82C48.1859 134.46 48.0459 135.028 47.7659 135.524C47.4939 136.012 47.1139 136.392 46.6259 136.664C46.1379 136.936 45.5859 137.072 44.9699 137.072C44.4979 137.072 44.0659 136.98 43.6739 136.796C43.2819 136.612 42.9579 136.344 42.7019 135.992V137H41.5979V128.096H42.7499V131.6C43.0059 131.264 43.3259 131.012 43.7099 130.844C44.0939 130.668 44.5139 130.58 44.9699 130.58ZM44.8739 136.064C45.2819 136.064 45.6459 135.972 45.9659 135.788C46.2939 135.596 46.5499 135.332 46.7339 134.996C46.9259 134.652 47.0219 134.26 47.0219 133.82C47.0219 133.38 46.9259 132.992 46.7339 132.656C46.5499 132.312 46.2939 132.048 45.9659 131.864C45.6459 131.68 45.2819 131.588 44.8739 131.588C44.4739 131.588 44.1099 131.68 43.7819 131.864C43.4539 132.048 43.1979 132.312 43.0139 132.656C42.8299 132.992 42.7379 133.38 42.7379 133.82C42.7379 134.26 42.8299 134.652 43.0139 134.996C43.1979 135.332 43.4539 135.596 43.7819 135.788C44.1099 135.972 44.4739 136.064 44.8739 136.064ZM49.7775 128.096H50.9295V137H49.7775V128.096ZM55.4451 130.58C56.3251 130.58 56.9971 130.796 57.4611 131.228C57.9331 131.66 58.1691 132.304 58.1691 133.16V137H57.0771V136.16C56.8851 136.456 56.6091 136.684 56.2491 136.844C55.8971 136.996 55.4771 137.072 54.9891 137.072C54.2771 137.072 53.7051 136.9 53.2731 136.556C52.8491 136.212 52.6371 135.76 52.6371 135.2C52.6371 134.64 52.8411 134.192 53.2491 133.856C53.6571 133.512 54.3051 133.34 55.1931 133.34H57.0171V133.112C57.0171 132.616 56.8731 132.236 56.5851 131.972C56.2971 131.708 55.8731 131.576 55.3131 131.576C54.9371 131.576 54.5691 131.64 54.2091 131.768C53.8491 131.888 53.5451 132.052 53.2971 132.26L52.8171 131.396C53.1451 131.132 53.5371 130.932 53.9931 130.796C54.4491 130.652 54.9331 130.58 55.4451 130.58ZM55.1811 136.184C55.6211 136.184 56.0011 136.088 56.3211 135.896C56.6411 135.696 56.8731 135.416 57.0171 135.056V134.168H55.2411C54.2651 134.168 53.7771 134.496 53.7771 135.152C53.7771 135.472 53.9011 135.724 54.1491 135.908C54.3971 136.092 54.7411 136.184 55.1811 136.184ZM63.5236 128.096H64.6756V137H63.5236V128.096ZM69.1912 130.58C70.0712 130.58 70.7432 130.796 71.2072 131.228C71.6792 131.66 71.9152 132.304 71.9152 133.16V137H70.8232V136.16C70.6312 136.456 70.3552 136.684 69.9952 136.844C69.6432 136.996 69.2232 137.072 68.7352 137.072C68.0232 137.072 67.4512 136.9 67.0192 136.556C66.5952 136.212 66.3832 135.76 66.3832 135.2C66.3832 134.64 66.5872 134.192 66.9952 133.856C67.4032 133.512 68.0512 133.34 68.9392 133.34H70.7632V133.112C70.7632 132.616 70.6192 132.236 70.3312 131.972C70.0432 131.708 69.6192 131.576 69.0592 131.576C68.6832 131.576 68.3152 131.64 67.9552 131.768C67.5952 131.888 67.2912 132.052 67.0432 132.26L66.5632 131.396C66.8912 131.132 67.2832 130.932 67.7392 130.796C68.1952 130.652 68.6792 130.58 69.1912 130.58ZM68.9272 136.184C69.3672 136.184 69.7472 136.088 70.0672 135.896C70.3872 135.696 70.6192 135.416 70.7632 135.056V134.168H68.9872C68.0112 134.168 67.5232 134.496 67.5232 135.152C67.5232 135.472 67.6472 135.724 67.8952 135.908C68.1432 136.092 68.4872 136.184 68.9272 136.184ZM83.0177 133.856C83.0177 133.944 83.0097 134.06 82.9937 134.204H77.8337C77.9057 134.764 78.1497 135.216 78.5657 135.56C78.9897 135.896 79.5137 136.064 80.1377 136.064C80.8977 136.064 81.5097 135.808 81.9737 135.296L82.6097 136.04C82.3217 136.376 81.9617 136.632 81.5297 136.808C81.1057 136.984 80.6297 137.072 80.1017 137.072C79.4297 137.072 78.8337 136.936 78.3137 136.664C77.7937 136.384 77.3897 135.996 77.1017 135.5C76.8217 135.004 76.6817 134.444 76.6817 133.82C76.6817 133.204 76.8177 132.648 77.0897 132.152C77.3697 131.656 77.7497 131.272 78.2297 131C78.7177 130.72 79.2657 130.58 79.8737 130.58C80.4817 130.58 81.0217 130.72 81.4937 131C81.9737 131.272 82.3457 131.656 82.6097 132.152C82.8817 132.648 83.0177 133.216 83.0177 133.856ZM79.8737 131.552C79.3217 131.552 78.8577 131.72 78.4817 132.056C78.1137 132.392 77.8977 132.832 77.8337 133.376H81.9137C81.8497 132.84 81.6297 132.404 81.2537 132.068C80.8857 131.724 80.4257 131.552 79.8737 131.552ZM86.4414 137.072C85.9214 137.072 85.4214 137.004 84.9414 136.868C84.4614 136.724 84.0854 136.544 83.8134 136.328L84.2934 135.416C84.5734 135.616 84.9134 135.776 85.3134 135.896C85.7134 136.016 86.1174 136.076 86.5254 136.076C87.5334 136.076 88.0374 135.788 88.0374 135.212C88.0374 135.02 87.9694 134.868 87.8334 134.756C87.6974 134.644 87.5254 134.564 87.3174 134.516C87.1174 134.46 86.8294 134.4 86.4534 134.336C85.9414 134.256 85.5214 134.164 85.1934 134.06C84.8734 133.956 84.5974 133.78 84.3654 133.532C84.1334 133.284 84.0174 132.936 84.0174 132.488C84.0174 131.912 84.2574 131.452 84.7374 131.108C85.2174 130.756 85.8614 130.58 86.6694 130.58C87.0934 130.58 87.5174 130.632 87.9414 130.736C88.3654 130.84 88.7134 130.98 88.9854 131.156L88.4934 132.068C87.9734 131.732 87.3614 131.564 86.6574 131.564C86.1694 131.564 85.7974 131.644 85.5414 131.804C85.2854 131.964 85.1574 132.176 85.1574 132.44C85.1574 132.648 85.2294 132.812 85.3734 132.932C85.5174 133.052 85.6934 133.14 85.9014 133.196C86.1174 133.252 86.4174 133.316 86.8014 133.388C87.3134 133.476 87.7254 133.572 88.0374 133.676C88.3574 133.772 88.6294 133.94 88.8534 134.18C89.0774 134.42 89.1894 134.756 89.1894 135.188C89.1894 135.764 88.9414 136.224 88.4454 136.568C87.9574 136.904 87.2894 137.072 86.4414 137.072ZM96.6291 130.64V139.328H95.4771V136.04C95.2131 136.376 94.8891 136.632 94.5051 136.808C94.1291 136.984 93.7131 137.072 93.2571 137.072C92.6411 137.072 92.0891 136.936 91.6011 136.664C91.1131 136.392 90.7291 136.012 90.4491 135.524C90.1771 135.028 90.0411 134.46 90.0411 133.82C90.0411 133.18 90.1771 132.616 90.4491 132.128C90.7291 131.64 91.1131 131.26 91.6011 130.988C92.0891 130.716 92.6411 130.58 93.2571 130.58C93.7291 130.58 94.1611 130.672 94.5531 130.856C94.9451 131.032 95.2691 131.296 95.5251 131.648V130.64H96.6291ZM93.3531 136.064C93.7531 136.064 94.1171 135.972 94.4451 135.788C94.7731 135.596 95.0291 135.332 95.2131 134.996C95.3971 134.652 95.4891 134.26 95.4891 133.82C95.4891 133.38 95.3931 132.992 95.2011 132.656C95.0171 132.32 94.7611 132.06 94.4331 131.876C94.1131 131.684 93.7531 131.588 93.3531 131.588C92.9451 131.588 92.5771 131.68 92.2491 131.864C91.9291 132.048 91.6731 132.312 91.4811 132.656C91.2971 132.992 91.2051 133.38 91.2051 133.82C91.2051 134.26 91.2971 134.652 91.4811 134.996C91.6731 135.332 91.9291 135.596 92.2491 135.788C92.5771 135.972 92.9451 136.064 93.3531 136.064ZM104.737 130.64V137H103.645V136.04C103.413 136.368 103.105 136.624 102.721 136.808C102.345 136.984 101.933 137.072 101.485 137.072C100.637 137.072 99.9688 136.84 99.4808 136.376C98.9928 135.904 98.7488 135.212 98.7488 134.3V130.64H99.9008V134.168C99.9008 134.784 100.049 135.252 100.345 135.572C100.641 135.884 101.065 136.04 101.617 136.04C102.225 136.04 102.705 135.856 103.057 135.488C103.409 135.12 103.585 134.6 103.585 133.928V130.64H104.737ZM106.93 130.64H108.082V137H106.93V130.64ZM107.506 129.416C107.282 129.416 107.094 129.344 106.942 129.2C106.798 129.056 106.726 128.88 106.726 128.672C106.726 128.464 106.798 128.288 106.942 128.144C107.094 127.992 107.282 127.916 107.506 127.916C107.73 127.916 107.914 127.988 108.058 128.132C108.21 128.268 108.286 128.44 108.286 128.648C108.286 128.864 108.21 129.048 108.058 129.2C107.914 129.344 107.73 129.416 107.506 129.416ZM113.677 130.58C114.485 130.58 115.125 130.816 115.597 131.288C116.077 131.752 116.317 132.436 116.317 133.34V137H115.165V133.472C115.165 132.856 115.017 132.392 114.721 132.08C114.425 131.768 114.001 131.612 113.449 131.612C112.825 131.612 112.333 131.796 111.973 132.164C111.613 132.524 111.433 133.044 111.433 133.724V137H110.281V130.64H111.385V131.6C111.617 131.272 111.929 131.02 112.321 130.844C112.721 130.668 113.173 130.58 113.677 130.58ZM120.765 130.58C121.645 130.58 122.317 130.796 122.781 131.228C123.253 131.66 123.489 132.304 123.489 133.16V137H122.397V136.16C122.205 136.456 121.929 136.684 121.569 136.844C121.217 136.996 120.797 137.072 120.309 137.072C119.597 137.072 119.025 136.9 118.593 136.556C118.169 136.212 117.957 135.76 117.957 135.2C117.957 134.64 118.161 134.192 118.569 133.856C118.977 133.512 119.625 133.34 120.513 133.34H122.337V133.112C122.337 132.616 122.193 132.236 121.905 131.972C121.617 131.708 121.193 131.576 120.633 131.576C120.257 131.576 119.889 131.64 119.529 131.768C119.169 131.888 118.865 132.052 118.617 132.26L118.137 131.396C118.465 131.132 118.857 130.932 119.313 130.796C119.769 130.652 120.253 130.58 120.765 130.58ZM120.501 136.184C120.941 136.184 121.321 136.088 121.641 135.896C121.961 135.696 122.193 135.416 122.337 135.056V134.168H120.561C119.585 134.168 119.097 134.496 119.097 135.152C119.097 135.472 119.221 135.724 119.469 135.908C119.717 136.092 120.061 136.184 120.501 136.184ZM134.844 128.096V137H133.74V135.992C133.484 136.344 133.16 136.612 132.768 136.796C132.376 136.98 131.944 137.072 131.472 137.072C130.856 137.072 130.304 136.936 129.816 136.664C129.328 136.392 128.944 136.012 128.664 135.524C128.392 135.028 128.256 134.46 128.256 133.82C128.256 133.18 128.392 132.616 128.664 132.128C128.944 131.64 129.328 131.26 129.816 130.988C130.304 130.716 130.856 130.58 131.472 130.58C131.928 130.58 132.348 130.668 132.732 130.844C133.116 131.012 133.436 131.264 133.692 131.6V128.096H134.844ZM131.568 136.064C131.968 136.064 132.332 135.972 132.66 135.788C132.988 135.596 133.244 135.332 133.428 134.996C133.612 134.652 133.704 134.26 133.704 133.82C133.704 133.38 133.612 132.992 133.428 132.656C133.244 132.312 132.988 132.048 132.66 131.864C132.332 131.68 131.968 131.588 131.568 131.588C131.16 131.588 130.792 131.68 130.464 131.864C130.144 132.048 129.888 132.312 129.696 132.656C129.512 132.992 129.42 133.38 129.42 133.82C129.42 134.26 129.512 134.652 129.696 134.996C129.888 135.332 130.144 135.596 130.464 135.788C130.792 135.972 131.16 136.064 131.568 136.064ZM142.772 133.856C142.772 133.944 142.764 134.06 142.748 134.204H137.588C137.66 134.764 137.904 135.216 138.32 135.56C138.744 135.896 139.268 136.064 139.892 136.064C140.652 136.064 141.264 135.808 141.728 135.296L142.364 136.04C142.076 136.376 141.716 136.632 141.284 136.808C140.86 136.984 140.384 137.072 139.856 137.072C139.184 137.072 138.588 136.936 138.068 136.664C137.548 136.384 137.144 135.996 136.856 135.5C136.576 135.004 136.436 134.444 136.436 133.82C136.436 133.204 136.572 132.648 136.844 132.152C137.124 131.656 137.504 131.272 137.984 131C138.472 130.72 139.02 130.58 139.628 130.58C140.236 130.58 140.776 130.72 141.248 131C141.728 131.272 142.1 131.656 142.364 132.152C142.636 132.648 142.772 133.216 142.772 133.856ZM139.628 131.552C139.076 131.552 138.612 131.72 138.236 132.056C137.868 132.392 137.652 132.832 137.588 133.376H141.668C141.604 132.84 141.384 132.404 141.008 132.068C140.64 131.724 140.18 131.552 139.628 131.552ZM147.594 128.096H148.746V137H147.594V128.096ZM153.262 130.58C154.142 130.58 154.814 130.796 155.278 131.228C155.75 131.66 155.986 132.304 155.986 133.16V137H154.894V136.16C154.702 136.456 154.426 136.684 154.066 136.844C153.714 136.996 153.294 137.072 152.806 137.072C152.094 137.072 151.522 136.9 151.09 136.556C150.666 136.212 150.454 135.76 150.454 135.2C150.454 134.64 150.658 134.192 151.066 133.856C151.474 133.512 152.122 133.34 153.01 133.34H154.834V133.112C154.834 132.616 154.69 132.236 154.402 131.972C154.114 131.708 153.69 131.576 153.13 131.576C152.754 131.576 152.386 131.64 152.026 131.768C151.666 131.888 151.362 132.052 151.114 132.26L150.634 131.396C150.962 131.132 151.354 130.932 151.81 130.796C152.266 130.652 152.75 130.58 153.262 130.58ZM152.998 136.184C153.438 136.184 153.818 136.088 154.138 135.896C154.458 135.696 154.69 135.416 154.834 135.056V134.168H153.058C152.082 134.168 151.594 134.496 151.594 135.152C151.594 135.472 151.718 135.724 151.966 135.908C152.214 136.092 152.558 136.184 152.998 136.184ZM36.3894 152.072C35.7414 152.072 35.1614 151.932 34.6494 151.652C34.1454 151.372 33.7494 150.988 33.4614 150.5C33.1734 150.004 33.0294 149.444 33.0294 148.82C33.0294 148.196 33.1734 147.64 33.4614 147.152C33.7494 146.656 34.1454 146.272 34.6494 146C35.1614 145.72 35.7414 145.58 36.3894 145.58C36.9654 145.58 37.4774 145.696 37.9254 145.928C38.3814 146.16 38.7334 146.496 38.9814 146.936L38.1054 147.5C37.9054 147.196 37.6574 146.968 37.3614 146.816C37.0654 146.664 36.7374 146.588 36.3774 146.588C35.9614 146.588 35.5854 146.68 35.2494 146.864C34.9214 147.048 34.6614 147.312 34.4694 147.656C34.2854 147.992 34.1934 148.38 34.1934 148.82C34.1934 149.268 34.2854 149.664 34.4694 150.008C34.6614 150.344 34.9214 150.604 35.2494 150.788C35.5854 150.972 35.9614 151.064 36.3774 151.064C36.7374 151.064 37.0654 150.988 37.3614 150.836C37.6574 150.684 37.9054 150.456 38.1054 150.152L38.9814 150.704C38.7334 151.144 38.3814 151.484 37.9254 151.724C37.4774 151.956 36.9654 152.072 36.3894 152.072ZM43.1031 152.072C42.4711 152.072 41.9031 151.932 41.3991 151.652C40.8951 151.372 40.4991 150.988 40.2111 150.5C39.9311 150.004 39.7911 149.444 39.7911 148.82C39.7911 148.196 39.9311 147.64 40.2111 147.152C40.4991 146.656 40.8951 146.272 41.3991 146C41.9031 145.72 42.4711 145.58 43.1031 145.58C43.7351 145.58 44.2991 145.72 44.7951 146C45.2991 146.272 45.6911 146.656 45.9711 147.152C46.2591 147.64 46.4031 148.196 46.4031 148.82C46.4031 149.444 46.2591 150.004 45.9711 150.5C45.6911 150.988 45.2991 151.372 44.7951 151.652C44.2991 151.932 43.7351 152.072 43.1031 152.072ZM43.1031 151.064C43.5111 151.064 43.8751 150.972 44.1951 150.788C44.5231 150.596 44.7791 150.332 44.9631 149.996C45.1471 149.652 45.2391 149.26 45.2391 148.82C45.2391 148.38 45.1471 147.992 44.9631 147.656C44.7791 147.312 44.5231 147.048 44.1951 146.864C43.8751 146.68 43.5111 146.588 43.1031 146.588C42.6951 146.588 42.3271 146.68 41.9991 146.864C41.6791 147.048 41.4231 147.312 41.2311 147.656C41.0471 147.992 40.9551 148.38 40.9551 148.82C40.9551 149.26 41.0471 149.652 41.2311 149.996C41.4231 150.332 41.6791 150.596 41.9991 150.788C42.3271 150.972 42.6951 151.064 43.1031 151.064ZM47.9963 143.096H49.1483V152H47.9963V143.096ZM53.6639 145.58C54.5439 145.58 55.2159 145.796 55.6799 146.228C56.1519 146.66 56.3879 147.304 56.3879 148.16V152H55.2959V151.16C55.1039 151.456 54.8279 151.684 54.4679 151.844C54.1159 151.996 53.6959 152.072 53.2079 152.072C52.4959 152.072 51.9239 151.9 51.4919 151.556C51.0679 151.212 50.8559 150.76 50.8559 150.2C50.8559 149.64 51.0599 149.192 51.4679 148.856C51.8759 148.512 52.5239 148.34 53.4119 148.34H55.2359V148.112C55.2359 147.616 55.0919 147.236 54.8039 146.972C54.5159 146.708 54.0919 146.576 53.5319 146.576C53.1559 146.576 52.7879 146.64 52.4279 146.768C52.0679 146.888 51.7639 147.052 51.5159 147.26L51.0359 146.396C51.3639 146.132 51.7559 145.932 52.2119 145.796C52.6679 145.652 53.1519 145.58 53.6639 145.58ZM53.3999 151.184C53.8399 151.184 54.2199 151.088 54.5399 150.896C54.8599 150.696 55.0919 150.416 55.2359 150.056V149.168H53.4599C52.4839 149.168 51.9959 149.496 51.9959 150.152C51.9959 150.472 52.1199 150.724 52.3679 150.908C52.6159 151.092 52.9599 151.184 53.3999 151.184ZM65.1384 145.58C65.9464 145.58 66.5864 145.816 67.0584 146.288C67.5384 146.752 67.7784 147.436 67.7784 148.34V152H66.6264V148.472C66.6264 147.856 66.4784 147.392 66.1824 147.08C65.8864 146.768 65.4624 146.612 64.9104 146.612C64.2864 146.612 63.7944 146.796 63.4344 147.164C63.0744 147.524 62.8944 148.044 62.8944 148.724V152H61.7424V143.096H62.8944V146.54C63.1344 146.236 63.4464 146 63.8304 145.832C64.2224 145.664 64.6584 145.58 65.1384 145.58ZM72.2264 145.58C73.1064 145.58 73.7784 145.796 74.2424 146.228C74.7144 146.66 74.9504 147.304 74.9504 148.16V152H73.8584V151.16C73.6664 151.456 73.3904 151.684 73.0304 151.844C72.6784 151.996 72.2584 152.072 71.7704 152.072C71.0584 152.072 70.4864 151.9 70.0544 151.556C69.6304 151.212 69.4184 150.76 69.4184 150.2C69.4184 149.64 69.6224 149.192 70.0304 148.856C70.4384 148.512 71.0864 148.34 71.9744 148.34H73.7984V148.112C73.7984 147.616 73.6544 147.236 73.3664 146.972C73.0784 146.708 72.6544 146.576 72.0944 146.576C71.7184 146.576 71.3504 146.64 70.9904 146.768C70.6304 146.888 70.3264 147.052 70.0784 147.26L69.5984 146.396C69.9264 146.132 70.3184 145.932 70.7744 145.796C71.2304 145.652 71.7144 145.58 72.2264 145.58ZM71.9624 151.184C72.4024 151.184 72.7824 151.088 73.1024 150.896C73.4224 150.696 73.6544 150.416 73.7984 150.056V149.168H72.0224C71.0464 149.168 70.5584 149.496 70.5584 150.152C70.5584 150.472 70.6824 150.724 70.9304 150.908C71.1784 151.092 71.5224 151.184 71.9624 151.184ZM79.8894 152.072C79.2414 152.072 78.6614 151.932 78.1494 151.652C77.6454 151.372 77.2494 150.988 76.9614 150.5C76.6734 150.004 76.5294 149.444 76.5294 148.82C76.5294 148.196 76.6734 147.64 76.9614 147.152C77.2494 146.656 77.6454 146.272 78.1494 146C78.6614 145.72 79.2414 145.58 79.8894 145.58C80.4654 145.58 80.9774 145.696 81.4254 145.928C81.8814 146.16 82.2334 146.496 82.4814 146.936L81.6054 147.5C81.4054 147.196 81.1574 146.968 80.8614 146.816C80.5654 146.664 80.2374 146.588 79.8774 146.588C79.4614 146.588 79.0854 146.68 78.7494 146.864C78.4214 147.048 78.1614 147.312 77.9694 147.656C77.7854 147.992 77.6934 148.38 77.6934 148.82C77.6934 149.268 77.7854 149.664 77.9694 150.008C78.1614 150.344 78.4214 150.604 78.7494 150.788C79.0854 150.972 79.4614 151.064 79.8774 151.064C80.2374 151.064 80.5654 150.988 80.8614 150.836C81.1574 150.684 81.4054 150.456 81.6054 150.152L82.4814 150.704C82.2334 151.144 81.8814 151.484 81.4254 151.724C80.9774 151.956 80.4654 152.072 79.8894 152.072ZM83.9729 145.64H85.1249V152H83.9729V145.64ZM84.5489 144.416C84.3249 144.416 84.1369 144.344 83.9849 144.2C83.8409 144.056 83.7689 143.88 83.7689 143.672C83.7689 143.464 83.8409 143.288 83.9849 143.144C84.1369 142.992 84.3249 142.916 84.5489 142.916C84.7729 142.916 84.9569 142.988 85.1009 143.132C85.2529 143.268 85.3289 143.44 85.3289 143.648C85.3289 143.864 85.2529 144.048 85.1009 144.2C84.9569 144.344 84.7729 144.416 84.5489 144.416ZM89.6404 145.58C90.5204 145.58 91.1924 145.796 91.6564 146.228C92.1284 146.66 92.3644 147.304 92.3644 148.16V152H91.2724V151.16C91.0804 151.456 90.8044 151.684 90.4444 151.844C90.0924 151.996 89.6724 152.072 89.1844 152.072C88.4724 152.072 87.9004 151.9 87.4684 151.556C87.0444 151.212 86.8324 150.76 86.8324 150.2C86.8324 149.64 87.0364 149.192 87.4444 148.856C87.8524 148.512 88.5004 148.34 89.3884 148.34H91.2124V148.112C91.2124 147.616 91.0684 147.236 90.7804 146.972C90.4924 146.708 90.0684 146.576 89.5084 146.576C89.1324 146.576 88.7644 146.64 88.4044 146.768C88.0444 146.888 87.7404 147.052 87.4924 147.26L87.0124 146.396C87.3404 146.132 87.7324 145.932 88.1884 145.796C88.6444 145.652 89.1284 145.58 89.6404 145.58ZM89.3764 151.184C89.8164 151.184 90.1964 151.088 90.5164 150.896C90.8364 150.696 91.0684 150.416 91.2124 150.056V149.168H89.4364C88.4604 149.168 87.9724 149.496 87.9724 150.152C87.9724 150.472 88.0964 150.724 88.3444 150.908C88.5924 151.092 88.9364 151.184 89.3764 151.184ZM100.035 145.58C100.915 145.58 101.587 145.796 102.051 146.228C102.523 146.66 102.759 147.304 102.759 148.16V152H101.667V151.16C101.475 151.456 101.199 151.684 100.839 151.844C100.487 151.996 100.067 152.072 99.579 152.072C98.867 152.072 98.295 151.9 97.863 151.556C97.439 151.212 97.227 150.76 97.227 150.2C97.227 149.64 97.431 149.192 97.839 148.856C98.247 148.512 98.895 148.34 99.783 148.34H101.607V148.112C101.607 147.616 101.463 147.236 101.175 146.972C100.887 146.708 100.463 146.576 99.903 146.576C99.527 146.576 99.159 146.64 98.799 146.768C98.439 146.888 98.135 147.052 97.887 147.26L97.407 146.396C97.735 146.132 98.127 145.932 98.583 145.796C99.039 145.652 99.523 145.58 100.035 145.58ZM99.771 151.184C100.211 151.184 100.591 151.088 100.911 150.896C101.231 150.696 101.463 150.416 101.607 150.056V149.168H99.831C98.855 149.168 98.367 149.496 98.367 150.152C98.367 150.472 98.491 150.724 98.739 150.908C98.987 151.092 99.331 151.184 99.771 151.184ZM110.926 143.096V152H109.822V150.992C109.566 151.344 109.242 151.612 108.85 151.796C108.458 151.98 108.026 152.072 107.554 152.072C106.938 152.072 106.386 151.936 105.898 151.664C105.41 151.392 105.026 151.012 104.746 150.524C104.474 150.028 104.338 149.46 104.338 148.82C104.338 148.18 104.474 147.616 104.746 147.128C105.026 146.64 105.41 146.26 105.898 145.988C106.386 145.716 106.938 145.58 107.554 145.58C108.01 145.58 108.43 145.668 108.814 145.844C109.198 146.012 109.518 146.264 109.774 146.6V143.096H110.926ZM107.65 151.064C108.05 151.064 108.414 150.972 108.742 150.788C109.07 150.596 109.326 150.332 109.51 149.996C109.694 149.652 109.786 149.26 109.786 148.82C109.786 148.38 109.694 147.992 109.51 147.656C109.326 147.312 109.07 147.048 108.742 146.864C108.414 146.68 108.05 146.588 107.65 146.588C107.242 146.588 106.874 146.68 106.546 146.864C106.226 147.048 105.97 147.312 105.778 147.656C105.594 147.992 105.502 148.38 105.502 148.82C105.502 149.26 105.594 149.652 105.778 149.996C105.97 150.332 106.226 150.596 106.546 150.788C106.874 150.972 107.242 151.064 107.65 151.064ZM118.854 148.856C118.854 148.944 118.846 149.06 118.83 149.204H113.67C113.742 149.764 113.986 150.216 114.402 150.56C114.826 150.896 115.35 151.064 115.974 151.064C116.734 151.064 117.346 150.808 117.81 150.296L118.446 151.04C118.158 151.376 117.798 151.632 117.366 151.808C116.942 151.984 116.466 152.072 115.938 152.072C115.266 152.072 114.67 151.936 114.15 151.664C113.63 151.384 113.226 150.996 112.938 150.5C112.658 150.004 112.518 149.444 112.518 148.82C112.518 148.204 112.654 147.648 112.926 147.152C113.206 146.656 113.586 146.272 114.066 146C114.554 145.72 115.102 145.58 115.71 145.58C116.318 145.58 116.858 145.72 117.33 146C117.81 146.272 118.182 146.656 118.446 147.152C118.718 147.648 118.854 148.216 118.854 148.856ZM115.71 146.552C115.158 146.552 114.694 146.72 114.318 147.056C113.95 147.392 113.734 147.832 113.67 148.376H117.75C117.686 147.84 117.466 147.404 117.09 147.068C116.722 146.724 116.262 146.552 115.71 146.552ZM123.849 145.58C124.657 145.58 125.297 145.816 125.769 146.288C126.249 146.752 126.489 147.436 126.489 148.34V152H125.337V148.472C125.337 147.856 125.189 147.392 124.893 147.08C124.597 146.768 124.173 146.612 123.621 146.612C122.997 146.612 122.505 146.796 122.145 147.164C121.785 147.524 121.605 148.044 121.605 148.724V152H120.453V145.64H121.557V146.6C121.789 146.272 122.101 146.02 122.493 145.844C122.893 145.668 123.345 145.58 123.849 145.58ZM132.197 151.628C132.029 151.772 131.821 151.884 131.573 151.964C131.325 152.036 131.069 152.072 130.805 152.072C130.165 152.072 129.669 151.9 129.317 151.556C128.965 151.212 128.789 150.72 128.789 150.08V146.588H127.709V145.64H128.789V144.248H129.941V145.64H131.765V146.588H129.941V150.032C129.941 150.376 130.025 150.64 130.193 150.824C130.369 151.008 130.617 151.1 130.937 151.1C131.289 151.1 131.589 151 131.837 150.8L132.197 151.628ZM134.694 146.708C134.894 146.34 135.19 146.06 135.582 145.868C135.974 145.676 136.45 145.58 137.01 145.58V146.696C136.946 146.688 136.858 146.684 136.746 146.684C136.122 146.684 135.63 146.872 135.27 147.248C134.918 147.616 134.742 148.144 134.742 148.832V152H133.59V145.64H134.694V146.708ZM141.095 152.072C140.463 152.072 139.895 151.932 139.391 151.652C138.887 151.372 138.491 150.988 138.203 150.5C137.923 150.004 137.783 149.444 137.783 148.82C137.783 148.196 137.923 147.64 138.203 147.152C138.491 146.656 138.887 146.272 139.391 146C139.895 145.72 140.463 145.58 141.095 145.58C141.727 145.58 142.291 145.72 142.787 146C143.291 146.272 143.683 146.656 143.963 147.152C144.251 147.64 144.395 148.196 144.395 148.82C144.395 149.444 144.251 150.004 143.963 150.5C143.683 150.988 143.291 151.372 142.787 151.652C142.291 151.932 141.727 152.072 141.095 152.072ZM141.095 151.064C141.503 151.064 141.867 150.972 142.187 150.788C142.515 150.596 142.771 150.332 142.955 149.996C143.139 149.652 143.231 149.26 143.231 148.82C143.231 148.38 143.139 147.992 142.955 147.656C142.771 147.312 142.515 147.048 142.187 146.864C141.867 146.68 141.503 146.588 141.095 146.588C140.687 146.588 140.319 146.68 139.991 146.864C139.671 147.048 139.415 147.312 139.223 147.656C139.039 147.992 138.947 148.38 138.947 148.82C138.947 149.26 139.039 149.652 139.223 149.996C139.415 150.332 139.671 150.596 139.991 150.788C140.319 150.972 140.687 151.064 141.095 151.064ZM146.124 152.072C145.9 152.072 145.708 151.996 145.548 151.844C145.388 151.684 145.308 151.484 145.308 151.244C145.308 151.012 145.388 150.82 145.548 150.668C145.708 150.508 145.9 150.428 146.124 150.428C146.348 150.428 146.536 150.504 146.688 150.656C146.84 150.808 146.916 151.004 146.916 151.244C146.916 151.484 146.836 151.684 146.676 151.844C146.524 151.996 146.34 152.072 146.124 152.072Z" fill="#008E86"/>
<path d="M45.1776 61.6671L59.6486 34.2428L49.2369 26.4559L50.888 19.6561L69.5518 19.007L77.9345 34.2428L75.6491 68.5232L64.2223 77.6647L45.1776 61.6671Z" fill="#008E86" stroke="#00635D" stroke-width="2" stroke-linejoin="round"/>
<path d="M59.6501 34.243L49.2384 26.4561L50.8895 19.6564L66.4314 20.7273L59.6501 34.243Z" fill="#00D8CC" stroke="#00635D" stroke-width="2" stroke-linejoin="round"/>
<path d="M59.6487 34.2428L51.5769 27.9475L54.8776 21.7586L66.4301 20.7271L59.6487 34.2428Z" fill="#008E86" stroke="#00635D" stroke-width="2" stroke-linejoin="round"/>
<path d="M61.9347 35.7662L68.029 22.8158L54.6977 21.6732L51.6505 28.1483L61.9347 35.7662Z" fill="#00D8CC" stroke="#00635D" stroke-width="2" stroke-linejoin="round"/>
<path d="M50.5102 60.9055L68.0284 22.8161L77.9316 34.2429L75.6492 68.5234L50.5102 60.9055Z" fill="#008E86" stroke="#00635D" stroke-width="2" stroke-linejoin="round"/>
<path d="M50.9714 60.8774L68.1771 23.4671L77.9038 34.6902L75.6621 68.3594L50.9714 60.8774Z" fill="#008E86" stroke="#00635D" stroke-width="2" stroke-linejoin="round"/>
<path d="M68.9288 54.1432L145.246 78.8341L74.9144 78.834L68.9288 54.1432Z" fill="#008E86" stroke="#00635D" stroke-width="2" stroke-linejoin="round"/>
<path d="M50.971 60.8774L68.928 54.1433L77.9049 79.5828L64.4387 77.3379L50.971 60.8774Z" fill="#008E86" stroke="#00635D" stroke-width="2" stroke-linejoin="round"/>
<path d="M68.9282 54.1433L77.9051 79.5828L53.9632 99.7844L68.9282 54.1433Z" fill="#00D8CC" stroke="#00635D" stroke-width="2" stroke-linejoin="round"/>
<path d="M94.3663 78.8345L112.323 68.3596" stroke="#333333" stroke-width="2" stroke-dasharray="4 6"/>
<path d="M146.847 69.3541C147.397 69.4043 147.803 69.8909 147.752 70.4409C147.702 70.9909 147.216 71.3961 146.666 71.3458L146.847 69.3541ZM128.861 37.97C129.339 37.6938 129.951 37.8577 130.227 38.336L134.727 46.1302C135.003 46.6085 134.839 47.2201 134.361 47.4963C133.883 47.7724 133.271 47.6085 132.995 47.1302L128.995 40.202L122.067 44.202C121.589 44.4782 120.977 44.3143 120.701 43.836C120.425 43.3577 120.589 42.7461 121.067 42.47L128.861 37.97ZM146.666 71.3458C139.182 70.6625 133.393 66.8611 130.098 60.9718C126.816 55.1057 126.065 47.2748 128.395 38.5772L130.327 39.0948C128.098 47.4151 128.873 54.6863 131.843 59.9953C134.8 65.2811 139.988 68.7278 146.847 69.3541L146.666 71.3458Z" fill="black"/>
</g>
<defs>
<clipPath id="clip0_5706_201384">
<rect width="180" height="180" rx="20" fill="white"/>
</clipPath>
<clipPath id="clip1_5706_201384">
<path d="M0 30L-1.31134e-06 0L30 -1.31134e-06L30 10C30 21.0457 21.0457 30 10 30L0 30Z" fill="white"/>
</clipPath>
</defs>
</svg>
