<svg width="180" height="180" viewBox="0 0 180 180" fill="none" xmlns="http://www.w3.org/2000/svg">
<g clip-path="url(#clip0_5698_200152)">
<rect width="180" height="180" rx="20" fill="#F2F2F2"/>
<g clip-path="url(#clip1_5698_200152)">
<path d="M0 30L-1.31134e-06 0L30 -1.31134e-06L30 10C30 21.0457 21.0457 30 10 30L0 30Z" fill="#333333"/>
<path d="M16.1216 14.36C17.103 14.52 17.855 14.888 18.3776 15.464C18.9003 16.0293 19.1616 16.7333 19.1616 17.576C19.1616 18.2267 18.991 18.8293 18.6496 19.384C18.3083 19.928 17.7856 20.3653 17.0816 20.696C16.3883 21.0267 15.535 21.192 14.5216 21.192C13.7323 21.192 12.9536 21.0907 12.1856 20.888C11.4283 20.6747 10.783 20.376 10.2496 19.992L11.2576 18.008C11.6843 18.328 12.175 18.5787 12.7296 18.76C13.295 18.9307 13.871 19.016 14.4576 19.016C15.1083 19.016 15.6203 18.8933 15.9936 18.648C16.367 18.392 16.5536 18.0347 16.5536 17.576C16.5536 16.6587 15.855 16.2 14.4576 16.2H13.2736V14.488L15.5776 11.88H10.8096V9.8H18.6496V11.48L16.1216 14.36Z" fill="#F2F2F2"/>
</g>
<path d="M33.4163 120.6H36.9563C37.8443 120.6 38.6323 120.776 39.3203 121.128C40.0083 121.48 40.5403 121.976 40.9163 122.616C41.3003 123.248 41.4923 123.976 41.4923 124.8C41.4923 125.624 41.3003 126.356 40.9163 126.996C40.5403 127.628 40.0083 128.12 39.3203 128.472C38.6323 128.824 37.8443 129 36.9563 129H33.4163V120.6ZM36.8843 127.956C37.5643 127.956 38.1603 127.824 38.6723 127.56C39.1923 127.296 39.5923 126.928 39.8723 126.456C40.1523 125.976 40.2923 125.424 40.2923 124.8C40.2923 124.176 40.1523 123.628 39.8723 123.156C39.5923 122.676 39.1923 122.304 38.6723 122.04C38.1603 121.776 37.5643 121.644 36.8843 121.644H34.6163V127.956H36.8843ZM45.8863 129.072C45.2543 129.072 44.6863 128.932 44.1823 128.652C43.6783 128.372 43.2823 127.988 42.9943 127.5C42.7143 127.004 42.5743 126.444 42.5743 125.82C42.5743 125.196 42.7143 124.64 42.9943 124.152C43.2823 123.656 43.6783 123.272 44.1823 123C44.6863 122.72 45.2543 122.58 45.8863 122.58C46.5183 122.58 47.0823 122.72 47.5783 123C48.0823 123.272 48.4743 123.656 48.7543 124.152C49.0423 124.64 49.1863 125.196 49.1863 125.82C49.1863 126.444 49.0423 127.004 48.7543 127.5C48.4743 127.988 48.0823 128.372 47.5783 128.652C47.0823 128.932 46.5183 129.072 45.8863 129.072ZM45.8863 128.064C46.2943 128.064 46.6583 127.972 46.9783 127.788C47.3063 127.596 47.5623 127.332 47.7463 126.996C47.9303 126.652 48.0223 126.26 48.0223 125.82C48.0223 125.38 47.9303 124.992 47.7463 124.656C47.5623 124.312 47.3063 124.048 46.9783 123.864C46.6583 123.68 46.2943 123.588 45.8863 123.588C45.4783 123.588 45.1103 123.68 44.7823 123.864C44.4623 124.048 44.2063 124.312 44.0143 124.656C43.8303 124.992 43.7383 125.38 43.7383 125.82C43.7383 126.26 43.8303 126.652 44.0143 126.996C44.2063 127.332 44.4623 127.596 44.7823 127.788C45.1103 127.972 45.4783 128.064 45.8863 128.064ZM54.1515 122.58C54.7675 122.58 55.3195 122.716 55.8075 122.988C56.2955 123.26 56.6755 123.64 56.9475 124.128C57.2275 124.616 57.3675 125.18 57.3675 125.82C57.3675 126.46 57.2275 127.028 56.9475 127.524C56.6755 128.012 56.2955 128.392 55.8075 128.664C55.3195 128.936 54.7675 129.072 54.1515 129.072C53.6795 129.072 53.2475 128.98 52.8555 128.796C52.4635 128.612 52.1395 128.344 51.8835 127.992V129H50.7795V120.096H51.9315V123.6C52.1875 123.264 52.5075 123.012 52.8915 122.844C53.2755 122.668 53.6955 122.58 54.1515 122.58ZM54.0555 128.064C54.4635 128.064 54.8275 127.972 55.1475 127.788C55.4755 127.596 55.7315 127.332 55.9155 126.996C56.1075 126.652 56.2035 126.26 56.2035 125.82C56.2035 125.38 56.1075 124.992 55.9155 124.656C55.7315 124.312 55.4755 124.048 55.1475 123.864C54.8275 123.68 54.4635 123.588 54.0555 123.588C53.6555 123.588 53.2915 123.68 52.9635 123.864C52.6355 124.048 52.3795 124.312 52.1955 124.656C52.0115 124.992 51.9195 125.38 51.9195 125.82C51.9195 126.26 52.0115 126.652 52.1955 126.996C52.3795 127.332 52.6355 127.596 52.9635 127.788C53.2915 127.972 53.6555 128.064 54.0555 128.064ZM58.9592 120.096H60.1112V129H58.9592V120.096ZM64.6268 122.58C65.5068 122.58 66.1788 122.796 66.6428 123.228C67.1148 123.66 67.3508 124.304 67.3508 125.16V129H66.2588V128.16C66.0668 128.456 65.7908 128.684 65.4308 128.844C65.0788 128.996 64.6588 129.072 64.1708 129.072C63.4588 129.072 62.8868 128.9 62.4548 128.556C62.0308 128.212 61.8188 127.76 61.8188 127.2C61.8188 126.64 62.0228 126.192 62.4308 125.856C62.8388 125.512 63.4868 125.34 64.3748 125.34H66.1988V125.112C66.1988 124.616 66.0548 124.236 65.7668 123.972C65.4788 123.708 65.0548 123.576 64.4948 123.576C64.1188 123.576 63.7508 123.64 63.3908 123.768C63.0308 123.888 62.7268 124.052 62.4788 124.26L61.9988 123.396C62.3268 123.132 62.7188 122.932 63.1748 122.796C63.6308 122.652 64.1148 122.58 64.6268 122.58ZM64.3628 128.184C64.8028 128.184 65.1828 128.088 65.5028 127.896C65.8228 127.696 66.0548 127.416 66.1988 127.056V126.168H64.4228C63.4468 126.168 62.9588 126.496 62.9588 127.152C62.9588 127.472 63.0828 127.724 63.3308 127.908C63.5788 128.092 63.9228 128.184 64.3628 128.184ZM72.7053 120.096H73.8573V129H72.7053V120.096ZM78.7808 129.072C78.1488 129.072 77.5808 128.932 77.0768 128.652C76.5728 128.372 76.1768 127.988 75.8888 127.5C75.6088 127.004 75.4688 126.444 75.4688 125.82C75.4688 125.196 75.6088 124.64 75.8888 124.152C76.1768 123.656 76.5728 123.272 77.0768 123C77.5808 122.72 78.1488 122.58 78.7808 122.58C79.4128 122.58 79.9768 122.72 80.4728 123C80.9768 123.272 81.3688 123.656 81.6488 124.152C81.9368 124.64 82.0808 125.196 82.0808 125.82C82.0808 126.444 81.9368 127.004 81.6488 127.5C81.3688 127.988 80.9768 128.372 80.4728 128.652C79.9768 128.932 79.4128 129.072 78.7808 129.072ZM78.7808 128.064C79.1888 128.064 79.5528 127.972 79.8728 127.788C80.2008 127.596 80.4568 127.332 80.6408 126.996C80.8248 126.652 80.9168 126.26 80.9168 125.82C80.9168 125.38 80.8248 124.992 80.6408 124.656C80.4568 124.312 80.2008 124.048 79.8728 123.864C79.5528 123.68 79.1888 123.588 78.7808 123.588C78.3728 123.588 78.0048 123.68 77.6768 123.864C77.3568 124.048 77.1008 124.312 76.9088 124.656C76.7248 124.992 76.6328 125.38 76.6328 125.82C76.6328 126.26 76.7248 126.652 76.9088 126.996C77.1008 127.332 77.3568 127.596 77.6768 127.788C78.0048 127.972 78.3728 128.064 78.7808 128.064ZM85.498 129.072C84.978 129.072 84.478 129.004 83.998 128.868C83.518 128.724 83.142 128.544 82.87 128.328L83.35 127.416C83.63 127.616 83.97 127.776 84.37 127.896C84.77 128.016 85.174 128.076 85.582 128.076C86.59 128.076 87.094 127.788 87.094 127.212C87.094 127.02 87.026 126.868 86.89 126.756C86.754 126.644 86.582 126.564 86.374 126.516C86.174 126.46 85.886 126.4 85.51 126.336C84.998 126.256 84.578 126.164 84.25 126.06C83.93 125.956 83.654 125.78 83.422 125.532C83.19 125.284 83.074 124.936 83.074 124.488C83.074 123.912 83.314 123.452 83.794 123.108C84.274 122.756 84.918 122.58 85.726 122.58C86.15 122.58 86.574 122.632 86.998 122.736C87.422 122.84 87.77 122.98 88.042 123.156L87.55 124.068C87.03 123.732 86.418 123.564 85.714 123.564C85.226 123.564 84.854 123.644 84.598 123.804C84.342 123.964 84.214 124.176 84.214 124.44C84.214 124.648 84.286 124.812 84.43 124.932C84.574 125.052 84.75 125.14 84.958 125.196C85.174 125.252 85.474 125.316 85.858 125.388C86.37 125.476 86.782 125.572 87.094 125.676C87.414 125.772 87.686 125.94 87.91 126.18C88.134 126.42 88.246 126.756 88.246 127.188C88.246 127.764 87.998 128.224 87.502 128.568C87.014 128.904 86.346 129.072 85.498 129.072ZM95.6324 129.072C95.0004 129.072 94.4324 128.932 93.9284 128.652C93.4244 128.372 93.0284 127.988 92.7404 127.5C92.4604 127.004 92.3204 126.444 92.3204 125.82C92.3204 125.196 92.4604 124.64 92.7404 124.152C93.0284 123.656 93.4244 123.272 93.9284 123C94.4324 122.72 95.0004 122.58 95.6324 122.58C96.2644 122.58 96.8284 122.72 97.3244 123C97.8284 123.272 98.2204 123.656 98.5004 124.152C98.7884 124.64 98.9324 125.196 98.9324 125.82C98.9324 126.444 98.7884 127.004 98.5004 127.5C98.2204 127.988 97.8284 128.372 97.3244 128.652C96.8284 128.932 96.2644 129.072 95.6324 129.072ZM95.6324 128.064C96.0404 128.064 96.4044 127.972 96.7244 127.788C97.0524 127.596 97.3084 127.332 97.4924 126.996C97.6764 126.652 97.7684 126.26 97.7684 125.82C97.7684 125.38 97.6764 124.992 97.4924 124.656C97.3084 124.312 97.0524 124.048 96.7244 123.864C96.4044 123.68 96.0404 123.588 95.6324 123.588C95.2244 123.588 94.8564 123.68 94.5284 123.864C94.2084 124.048 93.9524 124.312 93.7604 124.656C93.5764 124.992 93.4844 125.38 93.4844 125.82C93.4844 126.26 93.5764 126.652 93.7604 126.996C93.9524 127.332 94.2084 127.596 94.5284 127.788C94.8564 127.972 95.2244 128.064 95.6324 128.064ZM104.102 128.628C103.934 128.772 103.726 128.884 103.478 128.964C103.23 129.036 102.974 129.072 102.71 129.072C102.07 129.072 101.574 128.9 101.222 128.556C100.87 128.212 100.694 127.72 100.694 127.08V123.588H99.6136V122.64H100.694V121.248H101.846V122.64H103.67V123.588H101.846V127.032C101.846 127.376 101.93 127.64 102.098 127.824C102.274 128.008 102.522 128.1 102.842 128.1C103.194 128.1 103.494 128 103.742 127.8L104.102 128.628ZM106.598 123.708C106.798 123.34 107.094 123.06 107.486 122.868C107.878 122.676 108.354 122.58 108.914 122.58V123.696C108.85 123.688 108.762 123.684 108.65 123.684C108.026 123.684 107.534 123.872 107.174 124.248C106.822 124.616 106.646 125.144 106.646 125.832V129H105.494V122.64H106.598V123.708ZM113 129.072C112.368 129.072 111.8 128.932 111.296 128.652C110.792 128.372 110.396 127.988 110.108 127.5C109.828 127.004 109.688 126.444 109.688 125.82C109.688 125.196 109.828 124.64 110.108 124.152C110.396 123.656 110.792 123.272 111.296 123C111.8 122.72 112.368 122.58 113 122.58C113.632 122.58 114.196 122.72 114.692 123C115.196 123.272 115.588 123.656 115.868 124.152C116.156 124.64 116.3 125.196 116.3 125.82C116.3 126.444 116.156 127.004 115.868 127.5C115.588 127.988 115.196 128.372 114.692 128.652C114.196 128.932 113.632 129.072 113 129.072ZM113 128.064C113.408 128.064 113.772 127.972 114.092 127.788C114.42 127.596 114.676 127.332 114.86 126.996C115.044 126.652 115.136 126.26 115.136 125.82C115.136 125.38 115.044 124.992 114.86 124.656C114.676 124.312 114.42 124.048 114.092 123.864C113.772 123.68 113.408 123.588 113 123.588C112.592 123.588 112.224 123.68 111.896 123.864C111.576 124.048 111.32 124.312 111.128 124.656C110.944 124.992 110.852 125.38 110.852 125.82C110.852 126.26 110.944 126.652 111.128 126.996C111.32 127.332 111.576 127.596 111.896 127.788C112.224 127.972 112.592 128.064 113 128.064ZM119.717 129.072C119.197 129.072 118.697 129.004 118.217 128.868C117.737 128.724 117.361 128.544 117.089 128.328L117.569 127.416C117.849 127.616 118.189 127.776 118.589 127.896C118.989 128.016 119.393 128.076 119.801 128.076C120.809 128.076 121.313 127.788 121.313 127.212C121.313 127.02 121.245 126.868 121.109 126.756C120.973 126.644 120.801 126.564 120.593 126.516C120.393 126.46 120.105 126.4 119.729 126.336C119.217 126.256 118.797 126.164 118.469 126.06C118.149 125.956 117.873 125.78 117.641 125.532C117.409 125.284 117.293 124.936 117.293 124.488C117.293 123.912 117.533 123.452 118.013 123.108C118.493 122.756 119.137 122.58 119.945 122.58C120.369 122.58 120.793 122.632 121.217 122.736C121.641 122.84 121.989 122.98 122.261 123.156L121.769 124.068C121.249 123.732 120.637 123.564 119.933 123.564C119.445 123.564 119.073 123.644 118.817 123.804C118.561 123.964 118.433 124.176 118.433 124.44C118.433 124.648 118.505 124.812 118.649 124.932C118.793 125.052 118.969 125.14 119.177 125.196C119.393 125.252 119.693 125.316 120.077 125.388C120.589 125.476 121.001 125.572 121.313 125.676C121.633 125.772 121.905 125.94 122.129 126.18C122.353 126.42 122.465 126.756 122.465 127.188C122.465 127.764 122.217 128.224 121.721 128.568C121.233 128.904 120.565 129.072 119.717 129.072ZM133.127 120.096V129H132.023V127.992C131.767 128.344 131.443 128.612 131.051 128.796C130.659 128.98 130.227 129.072 129.755 129.072C129.139 129.072 128.587 128.936 128.099 128.664C127.611 128.392 127.227 128.012 126.947 127.524C126.675 127.028 126.539 126.46 126.539 125.82C126.539 125.18 126.675 124.616 126.947 124.128C127.227 123.64 127.611 123.26 128.099 122.988C128.587 122.716 129.139 122.58 129.755 122.58C130.211 122.58 130.631 122.668 131.015 122.844C131.399 123.012 131.719 123.264 131.975 123.6V120.096H133.127ZM129.851 128.064C130.251 128.064 130.615 127.972 130.943 127.788C131.271 127.596 131.527 127.332 131.711 126.996C131.895 126.652 131.987 126.26 131.987 125.82C131.987 125.38 131.895 124.992 131.711 124.656C131.527 124.312 131.271 124.048 130.943 123.864C130.615 123.68 130.251 123.588 129.851 123.588C129.443 123.588 129.075 123.68 128.747 123.864C128.427 124.048 128.171 124.312 127.979 124.656C127.795 124.992 127.703 125.38 127.703 125.82C127.703 126.26 127.795 126.652 127.979 126.996C128.171 127.332 128.427 127.596 128.747 127.788C129.075 127.972 129.443 128.064 129.851 128.064ZM138.031 129.072C137.399 129.072 136.831 128.932 136.327 128.652C135.823 128.372 135.427 127.988 135.139 127.5C134.859 127.004 134.719 126.444 134.719 125.82C134.719 125.196 134.859 124.64 135.139 124.152C135.427 123.656 135.823 123.272 136.327 123C136.831 122.72 137.399 122.58 138.031 122.58C138.663 122.58 139.227 122.72 139.723 123C140.227 123.272 140.619 123.656 140.899 124.152C141.187 124.64 141.331 125.196 141.331 125.82C141.331 126.444 141.187 127.004 140.899 127.5C140.619 127.988 140.227 128.372 139.723 128.652C139.227 128.932 138.663 129.072 138.031 129.072ZM138.031 128.064C138.439 128.064 138.803 127.972 139.123 127.788C139.451 127.596 139.707 127.332 139.891 126.996C140.075 126.652 140.167 126.26 140.167 125.82C140.167 125.38 140.075 124.992 139.891 124.656C139.707 124.312 139.451 124.048 139.123 123.864C138.803 123.68 138.439 123.588 138.031 123.588C137.623 123.588 137.255 123.68 136.927 123.864C136.607 124.048 136.351 124.312 136.159 124.656C135.975 124.992 135.883 125.38 135.883 125.82C135.883 126.26 135.975 126.652 136.159 126.996C136.351 127.332 136.607 127.596 136.927 127.788C137.255 127.972 137.623 128.064 138.031 128.064ZM144.748 129.072C144.228 129.072 143.728 129.004 143.248 128.868C142.768 128.724 142.392 128.544 142.12 128.328L142.6 127.416C142.88 127.616 143.22 127.776 143.62 127.896C144.02 128.016 144.424 128.076 144.832 128.076C145.84 128.076 146.344 127.788 146.344 127.212C146.344 127.02 146.276 126.868 146.14 126.756C146.004 126.644 145.832 126.564 145.624 126.516C145.424 126.46 145.136 126.4 144.76 126.336C144.248 126.256 143.828 126.164 143.5 126.06C143.18 125.956 142.904 125.78 142.672 125.532C142.44 125.284 142.324 124.936 142.324 124.488C142.324 123.912 142.564 123.452 143.044 123.108C143.524 122.756 144.168 122.58 144.976 122.58C145.4 122.58 145.824 122.632 146.248 122.736C146.672 122.84 147.02 122.98 147.292 123.156L146.8 124.068C146.28 123.732 145.668 123.564 144.964 123.564C144.476 123.564 144.104 123.644 143.848 123.804C143.592 123.964 143.464 124.176 143.464 124.44C143.464 124.648 143.536 124.812 143.68 124.932C143.824 125.052 144 125.14 144.208 125.196C144.424 125.252 144.724 125.316 145.108 125.388C145.62 125.476 146.032 125.572 146.344 125.676C146.664 125.772 146.936 125.94 147.16 126.18C147.384 126.42 147.496 126.756 147.496 127.188C147.496 127.764 147.248 128.224 146.752 128.568C146.264 128.904 145.596 129.072 144.748 129.072ZM35.616 144.072C34.968 144.072 34.388 143.932 33.876 143.652C33.372 143.372 32.976 142.988 32.688 142.5C32.4 142.004 32.256 141.444 32.256 140.82C32.256 140.196 32.4 139.64 32.688 139.152C32.976 138.656 33.372 138.272 33.876 138C34.388 137.72 34.968 137.58 35.616 137.58C36.192 137.58 36.704 137.696 37.152 137.928C37.608 138.16 37.96 138.496 38.208 138.936L37.332 139.5C37.132 139.196 36.884 138.968 36.588 138.816C36.292 138.664 35.964 138.588 35.604 138.588C35.188 138.588 34.812 138.68 34.476 138.864C34.148 139.048 33.888 139.312 33.696 139.656C33.512 139.992 33.42 140.38 33.42 140.82C33.42 141.268 33.512 141.664 33.696 142.008C33.888 142.344 34.148 142.604 34.476 142.788C34.812 142.972 35.188 143.064 35.604 143.064C35.964 143.064 36.292 142.988 36.588 142.836C36.884 142.684 37.132 142.456 37.332 142.152L38.208 142.704C37.96 143.144 37.608 143.484 37.152 143.724C36.704 143.956 36.192 144.072 35.616 144.072ZM42.3297 144.072C41.6977 144.072 41.1297 143.932 40.6257 143.652C40.1217 143.372 39.7257 142.988 39.4377 142.5C39.1577 142.004 39.0177 141.444 39.0177 140.82C39.0177 140.196 39.1577 139.64 39.4377 139.152C39.7257 138.656 40.1217 138.272 40.6257 138C41.1297 137.72 41.6977 137.58 42.3297 137.58C42.9617 137.58 43.5257 137.72 44.0217 138C44.5257 138.272 44.9177 138.656 45.1977 139.152C45.4857 139.64 45.6297 140.196 45.6297 140.82C45.6297 141.444 45.4857 142.004 45.1977 142.5C44.9177 142.988 44.5257 143.372 44.0217 143.652C43.5257 143.932 42.9617 144.072 42.3297 144.072ZM42.3297 143.064C42.7377 143.064 43.1017 142.972 43.4217 142.788C43.7497 142.596 44.0057 142.332 44.1897 141.996C44.3737 141.652 44.4657 141.26 44.4657 140.82C44.4657 140.38 44.3737 139.992 44.1897 139.656C44.0057 139.312 43.7497 139.048 43.4217 138.864C43.1017 138.68 42.7377 138.588 42.3297 138.588C41.9217 138.588 41.5537 138.68 41.2257 138.864C40.9057 139.048 40.6497 139.312 40.4577 139.656C40.2737 139.992 40.1817 140.38 40.1817 140.82C40.1817 141.26 40.2737 141.652 40.4577 141.996C40.6497 142.332 40.9057 142.596 41.2257 142.788C41.5537 142.972 41.9217 143.064 42.3297 143.064ZM49.0469 144.072C48.5269 144.072 48.0269 144.004 47.5469 143.868C47.0669 143.724 46.6909 143.544 46.4189 143.328L46.8989 142.416C47.1789 142.616 47.5189 142.776 47.9189 142.896C48.3189 143.016 48.7229 143.076 49.1309 143.076C50.1389 143.076 50.6429 142.788 50.6429 142.212C50.6429 142.02 50.5749 141.868 50.4389 141.756C50.3029 141.644 50.1309 141.564 49.9229 141.516C49.7229 141.46 49.4349 141.4 49.0589 141.336C48.5469 141.256 48.1269 141.164 47.7989 141.06C47.4789 140.956 47.2029 140.78 46.9709 140.532C46.7389 140.284 46.6229 139.936 46.6229 139.488C46.6229 138.912 46.8629 138.452 47.3429 138.108C47.8229 137.756 48.4669 137.58 49.2749 137.58C49.6989 137.58 50.1229 137.632 50.5469 137.736C50.9709 137.84 51.3189 137.98 51.5909 138.156L51.0989 139.068C50.5789 138.732 49.9669 138.564 49.2629 138.564C48.7749 138.564 48.4029 138.644 48.1469 138.804C47.8909 138.964 47.7629 139.176 47.7629 139.44C47.7629 139.648 47.8349 139.812 47.9789 139.932C48.1229 140.052 48.2989 140.14 48.5069 140.196C48.7229 140.252 49.0229 140.316 49.4069 140.388C49.9189 140.476 50.3309 140.572 50.6429 140.676C50.9629 140.772 51.2349 140.94 51.4589 141.18C51.6829 141.42 51.7949 141.756 51.7949 142.188C51.7949 142.764 51.5469 143.224 51.0509 143.568C50.5629 143.904 49.8949 144.072 49.0469 144.072ZM56.8106 143.628C56.6426 143.772 56.4346 143.884 56.1866 143.964C55.9386 144.036 55.6826 144.072 55.4186 144.072C54.7786 144.072 54.2826 143.9 53.9306 143.556C53.5786 143.212 53.4026 142.72 53.4026 142.08V138.588H52.3226V137.64H53.4026V136.248H54.5546V137.64H56.3786V138.588H54.5546V142.032C54.5546 142.376 54.6386 142.64 54.8066 142.824C54.9826 143.008 55.2306 143.1 55.5506 143.1C55.9026 143.1 56.2026 143 56.4506 142.8L56.8106 143.628ZM60.5193 137.58C61.3993 137.58 62.0713 137.796 62.5353 138.228C63.0073 138.66 63.2433 139.304 63.2433 140.16V144H62.1513V143.16C61.9593 143.456 61.6833 143.684 61.3233 143.844C60.9713 143.996 60.5513 144.072 60.0633 144.072C59.3513 144.072 58.7793 143.9 58.3473 143.556C57.9233 143.212 57.7113 142.76 57.7113 142.2C57.7113 141.64 57.9153 141.192 58.3233 140.856C58.7313 140.512 59.3793 140.34 60.2673 140.34H62.0913V140.112C62.0913 139.616 61.9473 139.236 61.6593 138.972C61.3713 138.708 60.9473 138.576 60.3873 138.576C60.0113 138.576 59.6433 138.64 59.2833 138.768C58.9233 138.888 58.6193 139.052 58.3713 139.26L57.8913 138.396C58.2193 138.132 58.6113 137.932 59.0673 137.796C59.5233 137.652 60.0073 137.58 60.5193 137.58ZM60.2553 143.184C60.6953 143.184 61.0753 143.088 61.3953 142.896C61.7153 142.696 61.9473 142.416 62.0913 142.056V141.168H60.3153C59.3393 141.168 58.8513 141.496 58.8513 142.152C58.8513 142.472 58.9753 142.724 59.2233 142.908C59.4713 143.092 59.8153 143.184 60.2553 143.184ZM71.4104 135.096V144H70.3064V142.992C70.0504 143.344 69.7264 143.612 69.3344 143.796C68.9424 143.98 68.5104 144.072 68.0384 144.072C67.4224 144.072 66.8704 143.936 66.3824 143.664C65.8944 143.392 65.5104 143.012 65.2304 142.524C64.9584 142.028 64.8224 141.46 64.8224 140.82C64.8224 140.18 64.9584 139.616 65.2304 139.128C65.5104 138.64 65.8944 138.26 66.3824 137.988C66.8704 137.716 67.4224 137.58 68.0384 137.58C68.4944 137.58 68.9144 137.668 69.2984 137.844C69.6824 138.012 70.0024 138.264 70.2584 138.6V135.096H71.4104ZM68.1344 143.064C68.5344 143.064 68.8984 142.972 69.2264 142.788C69.5544 142.596 69.8104 142.332 69.9944 141.996C70.1784 141.652 70.2704 141.26 70.2704 140.82C70.2704 140.38 70.1784 139.992 69.9944 139.656C69.8104 139.312 69.5544 139.048 69.2264 138.864C68.8984 138.68 68.5344 138.588 68.1344 138.588C67.7264 138.588 67.3584 138.68 67.0304 138.864C66.7104 139.048 66.4544 139.312 66.2624 139.656C66.0784 139.992 65.9864 140.38 65.9864 140.82C65.9864 141.26 66.0784 141.652 66.2624 141.996C66.4544 142.332 66.7104 142.596 67.0304 142.788C67.3584 142.972 67.7264 143.064 68.1344 143.064ZM76.314 144.072C75.682 144.072 75.114 143.932 74.61 143.652C74.106 143.372 73.71 142.988 73.422 142.5C73.142 142.004 73.002 141.444 73.002 140.82C73.002 140.196 73.142 139.64 73.422 139.152C73.71 138.656 74.106 138.272 74.61 138C75.114 137.72 75.682 137.58 76.314 137.58C76.946 137.58 77.51 137.72 78.006 138C78.51 138.272 78.902 138.656 79.182 139.152C79.47 139.64 79.614 140.196 79.614 140.82C79.614 141.444 79.47 142.004 79.182 142.5C78.902 142.988 78.51 143.372 78.006 143.652C77.51 143.932 76.946 144.072 76.314 144.072ZM76.314 143.064C76.722 143.064 77.086 142.972 77.406 142.788C77.734 142.596 77.99 142.332 78.174 141.996C78.358 141.652 78.45 141.26 78.45 140.82C78.45 140.38 78.358 139.992 78.174 139.656C77.99 139.312 77.734 139.048 77.406 138.864C77.086 138.68 76.722 138.588 76.314 138.588C75.906 138.588 75.538 138.68 75.21 138.864C74.89 139.048 74.634 139.312 74.442 139.656C74.258 139.992 74.166 140.38 74.166 140.82C74.166 141.26 74.258 141.652 74.442 141.996C74.634 142.332 74.89 142.596 75.21 142.788C75.538 142.972 75.906 143.064 76.314 143.064ZM83.0312 144.072C82.5112 144.072 82.0112 144.004 81.5312 143.868C81.0512 143.724 80.6752 143.544 80.4032 143.328L80.8832 142.416C81.1632 142.616 81.5032 142.776 81.9032 142.896C82.3032 143.016 82.7072 143.076 83.1152 143.076C84.1232 143.076 84.6272 142.788 84.6272 142.212C84.6272 142.02 84.5592 141.868 84.4232 141.756C84.2872 141.644 84.1152 141.564 83.9072 141.516C83.7072 141.46 83.4192 141.4 83.0432 141.336C82.5312 141.256 82.1112 141.164 81.7832 141.06C81.4632 140.956 81.1872 140.78 80.9552 140.532C80.7232 140.284 80.6072 139.936 80.6072 139.488C80.6072 138.912 80.8472 138.452 81.3272 138.108C81.8072 137.756 82.4512 137.58 83.2592 137.58C83.6832 137.58 84.1072 137.632 84.5312 137.736C84.9552 137.84 85.3032 137.98 85.5752 138.156L85.0832 139.068C84.5632 138.732 83.9512 138.564 83.2472 138.564C82.7592 138.564 82.3872 138.644 82.1312 138.804C81.8752 138.964 81.7472 139.176 81.7472 139.44C81.7472 139.648 81.8192 139.812 81.9632 139.932C82.1072 140.052 82.2832 140.14 82.4912 140.196C82.7072 140.252 83.0072 140.316 83.3912 140.388C83.9032 140.476 84.3152 140.572 84.6272 140.676C84.9472 140.772 85.2192 140.94 85.4432 141.18C85.6672 141.42 85.7792 141.756 85.7792 142.188C85.7792 142.764 85.5312 143.224 85.0352 143.568C84.5472 143.904 83.8792 144.072 83.0312 144.072ZM96.4416 135.096V144H95.3376V142.992C95.0816 143.344 94.7576 143.612 94.3656 143.796C93.9736 143.98 93.5416 144.072 93.0696 144.072C92.4536 144.072 91.9016 143.936 91.4136 143.664C90.9256 143.392 90.5416 143.012 90.2616 142.524C89.9896 142.028 89.8536 141.46 89.8536 140.82C89.8536 140.18 89.9896 139.616 90.2616 139.128C90.5416 138.64 90.9256 138.26 91.4136 137.988C91.9016 137.716 92.4536 137.58 93.0696 137.58C93.5256 137.58 93.9456 137.668 94.3296 137.844C94.7136 138.012 95.0336 138.264 95.2896 138.6V135.096H96.4416ZM93.1656 143.064C93.5656 143.064 93.9296 142.972 94.2576 142.788C94.5856 142.596 94.8416 142.332 95.0256 141.996C95.2096 141.652 95.3016 141.26 95.3016 140.82C95.3016 140.38 95.2096 139.992 95.0256 139.656C94.8416 139.312 94.5856 139.048 94.2576 138.864C93.9296 138.68 93.5656 138.588 93.1656 138.588C92.7576 138.588 92.3896 138.68 92.0616 138.864C91.7416 139.048 91.4856 139.312 91.2936 139.656C91.1096 139.992 91.0176 140.38 91.0176 140.82C91.0176 141.26 91.1096 141.652 91.2936 141.996C91.4856 142.332 91.7416 142.596 92.0616 142.788C92.3896 142.972 92.7576 143.064 93.1656 143.064ZM104.369 140.856C104.369 140.944 104.361 141.06 104.345 141.204H99.1853C99.2573 141.764 99.5013 142.216 99.9173 142.56C100.341 142.896 100.865 143.064 101.489 143.064C102.249 143.064 102.861 142.808 103.325 142.296L103.961 143.04C103.673 143.376 103.313 143.632 102.881 143.808C102.457 143.984 101.981 144.072 101.453 144.072C100.781 144.072 100.185 143.936 99.6653 143.664C99.1453 143.384 98.7413 142.996 98.4533 142.5C98.1733 142.004 98.0333 141.444 98.0333 140.82C98.0333 140.204 98.1693 139.648 98.4413 139.152C98.7213 138.656 99.1013 138.272 99.5813 138C100.069 137.72 100.617 137.58 101.225 137.58C101.833 137.58 102.373 137.72 102.845 138C103.325 138.272 103.697 138.656 103.961 139.152C104.233 139.648 104.369 140.216 104.369 140.856ZM101.225 138.552C100.673 138.552 100.209 138.72 99.8333 139.056C99.4653 139.392 99.2493 139.832 99.1853 140.376H103.265C103.201 139.84 102.981 139.404 102.605 139.068C102.237 138.724 101.777 138.552 101.225 138.552ZM109.192 135.096H110.344V144H109.192V135.096ZM114.859 137.58C115.739 137.58 116.411 137.796 116.875 138.228C117.347 138.66 117.583 139.304 117.583 140.16V144H116.491V143.16C116.299 143.456 116.023 143.684 115.663 143.844C115.311 143.996 114.891 144.072 114.403 144.072C113.691 144.072 113.119 143.9 112.687 143.556C112.263 143.212 112.051 142.76 112.051 142.2C112.051 141.64 112.255 141.192 112.663 140.856C113.071 140.512 113.719 140.34 114.607 140.34H116.431V140.112C116.431 139.616 116.287 139.236 115.999 138.972C115.711 138.708 115.287 138.576 114.727 138.576C114.351 138.576 113.983 138.64 113.623 138.768C113.263 138.888 112.959 139.052 112.711 139.26L112.231 138.396C112.559 138.132 112.951 137.932 113.407 137.796C113.863 137.652 114.347 137.58 114.859 137.58ZM114.595 143.184C115.035 143.184 115.415 143.088 115.735 142.896C116.055 142.696 116.287 142.416 116.431 142.056V141.168H114.655C113.679 141.168 113.191 141.496 113.191 142.152C113.191 142.472 113.315 142.724 113.563 142.908C113.811 143.092 114.155 143.184 114.595 143.184ZM126.334 137.58C127.142 137.58 127.782 137.816 128.254 138.288C128.734 138.752 128.974 139.436 128.974 140.34V144H127.822V140.472C127.822 139.856 127.674 139.392 127.378 139.08C127.082 138.768 126.658 138.612 126.106 138.612C125.482 138.612 124.99 138.796 124.63 139.164C124.27 139.524 124.09 140.044 124.09 140.724V144H122.938V135.096H124.09V138.54C124.33 138.236 124.642 138 125.026 137.832C125.418 137.664 125.854 137.58 126.334 137.58ZM133.865 144.072C133.233 144.072 132.665 143.932 132.161 143.652C131.657 143.372 131.261 142.988 130.973 142.5C130.693 142.004 130.553 141.444 130.553 140.82C130.553 140.196 130.693 139.64 130.973 139.152C131.261 138.656 131.657 138.272 132.161 138C132.665 137.72 133.233 137.58 133.865 137.58C134.497 137.58 135.061 137.72 135.557 138C136.061 138.272 136.453 138.656 136.733 139.152C137.021 139.64 137.165 140.196 137.165 140.82C137.165 141.444 137.021 142.004 136.733 142.5C136.453 142.988 136.061 143.372 135.557 143.652C135.061 143.932 134.497 144.072 133.865 144.072ZM133.865 143.064C134.273 143.064 134.637 142.972 134.957 142.788C135.285 142.596 135.541 142.332 135.725 141.996C135.909 141.652 136.001 141.26 136.001 140.82C136.001 140.38 135.909 139.992 135.725 139.656C135.541 139.312 135.285 139.048 134.957 138.864C134.637 138.68 134.273 138.588 133.865 138.588C133.457 138.588 133.089 138.68 132.761 138.864C132.441 139.048 132.185 139.312 131.993 139.656C131.809 139.992 131.717 140.38 131.717 140.82C131.717 141.26 131.809 141.652 131.993 141.996C132.185 142.332 132.441 142.596 132.761 142.788C133.089 142.972 133.457 143.064 133.865 143.064ZM137.942 146.4C137.662 146.4 137.402 146.368 137.162 146.304C136.922 146.24 136.722 146.144 136.562 146.016L136.934 145.128C137.174 145.328 137.486 145.428 137.87 145.428C138.174 145.428 138.406 145.332 138.566 145.14C138.734 144.956 138.818 144.68 138.818 144.312V137.64H139.97V144.288C139.97 144.944 139.794 145.46 139.442 145.836C139.09 146.212 138.59 146.4 137.942 146.4ZM139.394 136.416C139.17 136.416 138.982 136.344 138.83 136.2C138.686 136.056 138.614 135.88 138.614 135.672C138.614 135.464 138.686 135.288 138.83 135.144C138.982 134.992 139.17 134.916 139.394 134.916C139.618 134.916 139.802 134.988 139.946 135.132C140.098 135.268 140.174 135.44 140.174 135.648C140.174 135.864 140.098 136.048 139.946 136.2C139.802 136.344 139.618 136.416 139.394 136.416ZM144.484 137.58C145.364 137.58 146.036 137.796 146.5 138.228C146.972 138.66 147.208 139.304 147.208 140.16V144H146.116V143.16C145.924 143.456 145.648 143.684 145.288 143.844C144.936 143.996 144.516 144.072 144.028 144.072C143.316 144.072 142.744 143.9 142.312 143.556C141.888 143.212 141.676 142.76 141.676 142.2C141.676 141.64 141.88 141.192 142.288 140.856C142.696 140.512 143.344 140.34 144.232 140.34H146.056V140.112C146.056 139.616 145.912 139.236 145.624 138.972C145.336 138.708 144.912 138.576 144.352 138.576C143.976 138.576 143.608 138.64 143.248 138.768C142.888 138.888 142.584 139.052 142.336 139.26L141.856 138.396C142.184 138.132 142.576 137.932 143.032 137.796C143.488 137.652 143.972 137.58 144.484 137.58ZM144.22 143.184C144.66 143.184 145.04 143.088 145.36 142.896C145.68 142.696 145.912 142.416 146.056 142.056V141.168H144.28C143.304 141.168 142.816 141.496 142.816 142.152C142.816 142.472 142.94 142.724 143.188 142.908C143.436 143.092 143.78 143.184 144.22 143.184ZM48.4275 152.58C49.2355 152.58 49.8755 152.816 50.3475 153.288C50.8275 153.752 51.0675 154.436 51.0675 155.34V159H49.9155V155.472C49.9155 154.856 49.7675 154.392 49.4715 154.08C49.1755 153.768 48.7515 153.612 48.1995 153.612C47.5755 153.612 47.0835 153.796 46.7235 154.164C46.3635 154.524 46.1835 155.044 46.1835 155.724V159H45.0315V150.096H46.1835V153.54C46.4235 153.236 46.7355 153 47.1195 152.832C47.5115 152.664 47.9475 152.58 48.4275 152.58ZM55.5154 152.58C56.3954 152.58 57.0674 152.796 57.5314 153.228C58.0034 153.66 58.2394 154.304 58.2394 155.16V159H57.1474V158.16C56.9554 158.456 56.6794 158.684 56.3194 158.844C55.9674 158.996 55.5474 159.072 55.0594 159.072C54.3474 159.072 53.7754 158.9 53.3434 158.556C52.9194 158.212 52.7074 157.76 52.7074 157.2C52.7074 156.64 52.9114 156.192 53.3194 155.856C53.7274 155.512 54.3754 155.34 55.2634 155.34H57.0874V155.112C57.0874 154.616 56.9434 154.236 56.6554 153.972C56.3674 153.708 55.9434 153.576 55.3834 153.576C55.0074 153.576 54.6394 153.64 54.2794 153.768C53.9194 153.888 53.6154 154.052 53.3674 154.26L52.8874 153.396C53.2154 153.132 53.6074 152.932 54.0634 152.796C54.5194 152.652 55.0034 152.58 55.5154 152.58ZM55.2514 158.184C55.6914 158.184 56.0714 158.088 56.3914 157.896C56.7114 157.696 56.9434 157.416 57.0874 157.056V156.168H55.3114C54.3354 156.168 53.8474 156.496 53.8474 157.152C53.8474 157.472 53.9714 157.724 54.2194 157.908C54.4674 158.092 54.8114 158.184 55.2514 158.184ZM63.1785 159.072C62.5305 159.072 61.9505 158.932 61.4385 158.652C60.9345 158.372 60.5385 157.988 60.2505 157.5C59.9625 157.004 59.8185 156.444 59.8185 155.82C59.8185 155.196 59.9625 154.64 60.2505 154.152C60.5385 153.656 60.9345 153.272 61.4385 153C61.9505 152.72 62.5305 152.58 63.1785 152.58C63.7545 152.58 64.2665 152.696 64.7145 152.928C65.1705 153.16 65.5225 153.496 65.7705 153.936L64.8945 154.5C64.6945 154.196 64.4465 153.968 64.1505 153.816C63.8545 153.664 63.5265 153.588 63.1665 153.588C62.7505 153.588 62.3745 153.68 62.0385 153.864C61.7105 154.048 61.4505 154.312 61.2585 154.656C61.0745 154.992 60.9825 155.38 60.9825 155.82C60.9825 156.268 61.0745 156.664 61.2585 157.008C61.4505 157.344 61.7105 157.604 62.0385 157.788C62.3745 157.972 62.7505 158.064 63.1665 158.064C63.5265 158.064 63.8545 157.988 64.1505 157.836C64.4465 157.684 64.6945 157.456 64.8945 157.152L65.7705 157.704C65.5225 158.144 65.1705 158.484 64.7145 158.724C64.2665 158.956 63.7545 159.072 63.1785 159.072ZM67.2619 152.64H68.4139V159H67.2619V152.64ZM67.8379 151.416C67.6139 151.416 67.4259 151.344 67.2739 151.2C67.1299 151.056 67.0579 150.88 67.0579 150.672C67.0579 150.464 67.1299 150.288 67.2739 150.144C67.4259 149.992 67.6139 149.916 67.8379 149.916C68.0619 149.916 68.2459 149.988 68.3899 150.132C68.5419 150.268 68.6179 150.44 68.6179 150.648C68.6179 150.864 68.5419 151.048 68.3899 151.2C68.2459 151.344 68.0619 151.416 67.8379 151.416ZM72.9295 152.58C73.8095 152.58 74.4815 152.796 74.9455 153.228C75.4175 153.66 75.6535 154.304 75.6535 155.16V159H74.5615V158.16C74.3695 158.456 74.0935 158.684 73.7335 158.844C73.3815 158.996 72.9615 159.072 72.4735 159.072C71.7615 159.072 71.1895 158.9 70.7575 158.556C70.3335 158.212 70.1215 157.76 70.1215 157.2C70.1215 156.64 70.3255 156.192 70.7335 155.856C71.1415 155.512 71.7895 155.34 72.6775 155.34H74.5015V155.112C74.5015 154.616 74.3575 154.236 74.0695 153.972C73.7815 153.708 73.3575 153.576 72.7975 153.576C72.4215 153.576 72.0535 153.64 71.6935 153.768C71.3335 153.888 71.0295 154.052 70.7815 154.26L70.3015 153.396C70.6295 153.132 71.0215 152.932 71.4775 152.796C71.9335 152.652 72.4175 152.58 72.9295 152.58ZM72.6655 158.184C73.1055 158.184 73.4855 158.088 73.8055 157.896C74.1255 157.696 74.3575 157.416 74.5015 157.056V156.168H72.7255C71.7495 156.168 71.2615 156.496 71.2615 157.152C71.2615 157.472 71.3855 157.724 71.6335 157.908C71.8815 158.092 72.2255 158.184 72.6655 158.184ZM86.756 155.856C86.756 155.944 86.748 156.06 86.732 156.204H81.572C81.644 156.764 81.888 157.216 82.304 157.56C82.728 157.896 83.252 158.064 83.876 158.064C84.636 158.064 85.248 157.808 85.712 157.296L86.348 158.04C86.06 158.376 85.7 158.632 85.268 158.808C84.844 158.984 84.368 159.072 83.84 159.072C83.168 159.072 82.572 158.936 82.052 158.664C81.532 158.384 81.128 157.996 80.84 157.5C80.56 157.004 80.42 156.444 80.42 155.82C80.42 155.204 80.556 154.648 80.828 154.152C81.108 153.656 81.488 153.272 81.968 153C82.456 152.72 83.004 152.58 83.612 152.58C84.22 152.58 84.76 152.72 85.232 153C85.712 153.272 86.084 153.656 86.348 154.152C86.62 154.648 86.756 155.216 86.756 155.856ZM83.612 153.552C83.06 153.552 82.596 153.72 82.22 154.056C81.852 154.392 81.636 154.832 81.572 155.376H85.652C85.588 154.84 85.368 154.404 84.992 154.068C84.624 153.724 84.164 153.552 83.612 153.552ZM88.3557 150.096H89.5077V159H88.3557V150.096ZM97.7019 159.072C97.0539 159.072 96.4739 158.932 95.9619 158.652C95.4579 158.372 95.0619 157.988 94.7739 157.5C94.4859 157.004 94.3419 156.444 94.3419 155.82C94.3419 155.196 94.4859 154.64 94.7739 154.152C95.0619 153.656 95.4579 153.272 95.9619 153C96.4739 152.72 97.0539 152.58 97.7019 152.58C98.2779 152.58 98.7899 152.696 99.2379 152.928C99.6939 153.16 100.046 153.496 100.294 153.936L99.4179 154.5C99.2179 154.196 98.9699 153.968 98.6739 153.816C98.3779 153.664 98.0499 153.588 97.6899 153.588C97.2739 153.588 96.8979 153.68 96.5619 153.864C96.2339 154.048 95.9739 154.312 95.7819 154.656C95.5979 154.992 95.5059 155.38 95.5059 155.82C95.5059 156.268 95.5979 156.664 95.7819 157.008C95.9739 157.344 96.2339 157.604 96.5619 157.788C96.8979 157.972 97.2739 158.064 97.6899 158.064C98.0499 158.064 98.3779 157.988 98.6739 157.836C98.9699 157.684 99.2179 157.456 99.4179 157.152L100.294 157.704C100.046 158.144 99.6939 158.484 99.2379 158.724C98.7899 158.956 98.2779 159.072 97.7019 159.072ZM107.44 155.856C107.44 155.944 107.432 156.06 107.416 156.204H102.256C102.328 156.764 102.572 157.216 102.988 157.56C103.412 157.896 103.936 158.064 104.56 158.064C105.32 158.064 105.932 157.808 106.396 157.296L107.032 158.04C106.744 158.376 106.384 158.632 105.952 158.808C105.528 158.984 105.052 159.072 104.524 159.072C103.852 159.072 103.256 158.936 102.736 158.664C102.216 158.384 101.812 157.996 101.524 157.5C101.244 157.004 101.104 156.444 101.104 155.82C101.104 155.204 101.24 154.648 101.512 154.152C101.792 153.656 102.172 153.272 102.652 153C103.14 152.72 103.688 152.58 104.296 152.58C104.904 152.58 105.444 152.72 105.916 153C106.396 153.272 106.768 153.656 107.032 154.152C107.304 154.648 107.44 155.216 107.44 155.856ZM104.296 153.552C103.744 153.552 103.28 153.72 102.904 154.056C102.536 154.392 102.32 154.832 102.256 155.376H106.336C106.272 154.84 106.052 154.404 105.676 154.068C105.308 153.724 104.848 153.552 104.296 153.552ZM112.435 152.58C113.243 152.58 113.883 152.816 114.355 153.288C114.835 153.752 115.075 154.436 115.075 155.34V159H113.923V155.472C113.923 154.856 113.775 154.392 113.479 154.08C113.183 153.768 112.759 153.612 112.207 153.612C111.583 153.612 111.091 153.796 110.731 154.164C110.371 154.524 110.191 155.044 110.191 155.724V159H109.039V152.64H110.143V153.6C110.375 153.272 110.687 153.02 111.079 152.844C111.479 152.668 111.931 152.58 112.435 152.58ZM120.783 158.628C120.615 158.772 120.407 158.884 120.159 158.964C119.911 159.036 119.655 159.072 119.391 159.072C118.751 159.072 118.255 158.9 117.903 158.556C117.551 158.212 117.375 157.72 117.375 157.08V153.588H116.295V152.64H117.375V151.248H118.527V152.64H120.351V153.588H118.527V157.032C118.527 157.376 118.611 157.64 118.779 157.824C118.955 158.008 119.203 158.1 119.523 158.1C119.875 158.1 120.175 158 120.423 157.8L120.783 158.628ZM123.28 153.708C123.48 153.34 123.776 153.06 124.168 152.868C124.56 152.676 125.036 152.58 125.596 152.58V153.696C125.532 153.688 125.444 153.684 125.332 153.684C124.708 153.684 124.216 153.872 123.856 154.248C123.504 154.616 123.328 155.144 123.328 155.832V159H122.176V152.64H123.28V153.708ZM129.681 159.072C129.049 159.072 128.481 158.932 127.977 158.652C127.473 158.372 127.077 157.988 126.789 157.5C126.509 157.004 126.369 156.444 126.369 155.82C126.369 155.196 126.509 154.64 126.789 154.152C127.077 153.656 127.473 153.272 127.977 153C128.481 152.72 129.049 152.58 129.681 152.58C130.313 152.58 130.877 152.72 131.373 153C131.877 153.272 132.269 153.656 132.549 154.152C132.837 154.64 132.981 155.196 132.981 155.82C132.981 156.444 132.837 157.004 132.549 157.5C132.269 157.988 131.877 158.372 131.373 158.652C130.877 158.932 130.313 159.072 129.681 159.072ZM129.681 158.064C130.089 158.064 130.453 157.972 130.773 157.788C131.101 157.596 131.357 157.332 131.541 156.996C131.725 156.652 131.817 156.26 131.817 155.82C131.817 155.38 131.725 154.992 131.541 154.656C131.357 154.312 131.101 154.048 130.773 153.864C130.453 153.68 130.089 153.588 129.681 153.588C129.273 153.588 128.905 153.68 128.577 153.864C128.257 154.048 128.001 154.312 127.809 154.656C127.625 154.992 127.533 155.38 127.533 155.82C127.533 156.26 127.625 156.652 127.809 156.996C128.001 157.332 128.257 157.596 128.577 157.788C128.905 157.972 129.273 158.064 129.681 158.064ZM134.71 159.072C134.486 159.072 134.294 158.996 134.134 158.844C133.974 158.684 133.894 158.484 133.894 158.244C133.894 158.012 133.974 157.82 134.134 157.668C134.294 157.508 134.486 157.428 134.71 157.428C134.934 157.428 135.122 157.504 135.274 157.656C135.426 157.808 135.502 158.004 135.502 158.244C135.502 158.484 135.422 158.684 135.262 158.844C135.11 158.996 134.926 159.072 134.71 159.072Z" fill="#008E86"/>
<path d="M44 55L108 29V81L44 55Z" fill="#008E86" stroke="#00635D" stroke-width="2" stroke-linejoin="round"/>
<path d="M108 29L134 55L108 81V29Z" fill="#00D8CC" stroke="#00635D" stroke-width="2" stroke-linejoin="round"/>
<path d="M82.7891 39.0001L133.789 55.0001" stroke="#333333" stroke-width="2" stroke-dasharray="4 6"/>
<path d="M82.7891 71L132.652 55" stroke="#333333" stroke-width="2" stroke-dasharray="4 6"/>
<path opacity="0.5" d="M134 55L44 55" stroke="#00635D" stroke-width="2"/>
<path d="M110.268 75.6003C110.813 75.6923 111.329 75.3254 111.421 74.7808C111.513 74.2363 111.146 73.7202 110.601 73.6283L110.268 75.6003ZM102.605 59.0611C102.375 58.5589 101.781 58.3381 101.279 58.5678L93.0952 62.3125C92.593 62.5423 92.3721 63.1357 92.6019 63.6379C92.8317 64.1401 93.4251 64.3609 93.9273 64.1311L101.202 60.8026L104.531 68.0772C104.76 68.5794 105.354 68.8003 105.856 68.5705C106.358 68.3407 106.579 67.7473 106.349 67.2451L102.605 59.0611ZM110.601 73.6283C106.895 73.0023 104.411 71.202 103.043 68.8327L101.311 69.8327C103.015 72.7836 106.053 74.8884 110.268 75.6003L110.601 73.6283ZM103.043 68.8327C102.388 67.6975 102.035 66.0879 101.984 64.386C101.934 62.6917 102.186 61.0257 102.632 59.826L100.758 59.1284C100.204 60.6176 99.9288 62.5493 99.9853 64.4456C100.042 66.3342 100.43 68.3079 101.311 69.8327L103.043 68.8327Z" fill="black"/>
<path d="M110.268 34.2464C110.813 34.1544 111.329 34.5213 111.421 35.0658C111.513 35.6104 111.146 36.1264 110.601 36.2184L110.268 34.2464ZM102.605 50.7856C102.375 51.2878 101.781 51.5086 101.279 51.2788L93.0952 47.5342C92.593 47.3044 92.3721 46.711 92.6019 46.2088C92.8317 45.7066 93.4251 45.4857 93.9273 45.7155L101.202 49.0441L104.531 41.7694C104.76 41.2672 105.354 41.0464 105.856 41.2762C106.358 41.506 106.579 42.0994 106.349 42.6016L102.605 50.7856ZM110.601 36.2184C106.895 36.8444 104.411 38.6447 103.043 41.0139L101.311 40.0139C103.015 37.063 106.053 34.9583 110.268 34.2464L110.601 36.2184ZM103.043 41.0139C102.388 42.1491 102.035 43.7588 101.984 45.4607C101.934 47.155 102.186 48.821 102.632 50.0207L100.758 50.7183C100.204 49.229 99.9288 47.2973 99.9853 45.4011C100.042 43.5125 100.43 41.5388 101.311 40.0139L103.043 41.0139Z" fill="black"/>
</g>
<defs>
<clipPath id="clip0_5698_200152">
<rect width="180" height="180" rx="20" fill="white"/>
</clipPath>
<clipPath id="clip1_5698_200152">
<path d="M0 30L-1.31134e-06 0L30 -1.31134e-06L30 10C30 21.0457 21.0457 30 10 30L0 30Z" fill="white"/>
</clipPath>
</defs>
</svg>
