<svg width="180" height="180" viewBox="0 0 180 180" fill="none" xmlns="http://www.w3.org/2000/svg">
<g clip-path="url(#clip0_5698_200160)">
<rect width="180" height="180" rx="20" fill="#F2F2F2"/>

<path d="M43.3602 113.6C44.4482 113.6 45.3042 113.86 45.9282 114.38C46.5522 114.9 46.8642 115.616 46.8642 116.528C46.8642 117.44 46.5522 118.156 45.9282 118.676C45.3042 119.196 44.4482 119.456 43.3602 119.456H41.2842V122H40.0842V113.6H43.3602ZM43.3242 118.412C44.0842 118.412 44.6642 118.252 45.0642 117.932C45.4642 117.604 45.6642 117.136 45.6642 116.528C45.6642 115.92 45.4642 115.456 45.0642 115.136C44.6642 114.808 44.0842 114.644 43.3242 114.644H41.2842V118.412H43.3242ZM49.4577 116.708C49.6577 116.34 49.9537 116.06 50.3457 115.868C50.7377 115.676 51.2137 115.58 51.7737 115.58V116.696C51.7097 116.688 51.6217 116.684 51.5097 116.684C50.8857 116.684 50.3937 116.872 50.0337 117.248C49.6817 117.616 49.5057 118.144 49.5057 118.832V122H48.3537V115.64H49.4577V116.708ZM58.883 118.856C58.883 118.944 58.875 119.06 58.859 119.204H53.699C53.771 119.764 54.015 120.216 54.431 120.56C54.855 120.896 55.379 121.064 56.003 121.064C56.763 121.064 57.375 120.808 57.839 120.296L58.475 121.04C58.187 121.376 57.827 121.632 57.395 121.808C56.971 121.984 56.495 122.072 55.967 122.072C55.295 122.072 54.699 121.936 54.179 121.664C53.659 121.384 53.255 120.996 52.967 120.5C52.687 120.004 52.547 119.444 52.547 118.82C52.547 118.204 52.683 117.648 52.955 117.152C53.235 116.656 53.615 116.272 54.095 116C54.583 115.72 55.131 115.58 55.739 115.58C56.347 115.58 56.887 115.72 57.359 116C57.839 116.272 58.211 116.656 58.475 117.152C58.747 117.648 58.883 118.216 58.883 118.856ZM55.739 116.552C55.187 116.552 54.723 116.72 54.347 117.056C53.979 117.392 53.763 117.832 53.699 118.376H57.779C57.715 117.84 57.495 117.404 57.119 117.068C56.751 116.724 56.291 116.552 55.739 116.552ZM62.3066 122.072C61.7866 122.072 61.2866 122.004 60.8066 121.868C60.3266 121.724 59.9506 121.544 59.6786 121.328L60.1586 120.416C60.4386 120.616 60.7786 120.776 61.1786 120.896C61.5786 121.016 61.9826 121.076 62.3906 121.076C63.3986 121.076 63.9026 120.788 63.9026 120.212C63.9026 120.02 63.8346 119.868 63.6986 119.756C63.5626 119.644 63.3906 119.564 63.1826 119.516C62.9826 119.46 62.6946 119.4 62.3186 119.336C61.8066 119.256 61.3866 119.164 61.0586 119.06C60.7386 118.956 60.4626 118.78 60.2306 118.532C59.9986 118.284 59.8826 117.936 59.8826 117.488C59.8826 116.912 60.1226 116.452 60.6026 116.108C61.0826 115.756 61.7266 115.58 62.5346 115.58C62.9586 115.58 63.3826 115.632 63.8066 115.736C64.2306 115.84 64.5786 115.98 64.8506 116.156L64.3586 117.068C63.8386 116.732 63.2266 116.564 62.5226 116.564C62.0346 116.564 61.6626 116.644 61.4066 116.804C61.1506 116.964 61.0226 117.176 61.0226 117.44C61.0226 117.648 61.0946 117.812 61.2386 117.932C61.3826 118.052 61.5586 118.14 61.7666 118.196C61.9826 118.252 62.2826 118.316 62.6666 118.388C63.1786 118.476 63.5906 118.572 63.9026 118.676C64.2226 118.772 64.4946 118.94 64.7186 119.18C64.9426 119.42 65.0546 119.756 65.0546 120.188C65.0546 120.764 64.8066 121.224 64.3106 121.568C63.8226 121.904 63.1546 122.072 62.3066 122.072ZM66.4943 115.64H67.6463V122H66.4943V115.64ZM67.0703 114.416C66.8463 114.416 66.6583 114.344 66.5063 114.2C66.3623 114.056 66.2903 113.88 66.2903 113.672C66.2903 113.464 66.3623 113.288 66.5063 113.144C66.6583 112.992 66.8463 112.916 67.0703 112.916C67.2943 112.916 67.4783 112.988 67.6223 113.132C67.7743 113.268 67.8503 113.44 67.8503 113.648C67.8503 113.864 67.7743 114.048 67.6223 114.2C67.4783 114.344 67.2943 114.416 67.0703 114.416ZM72.5699 122.072C71.9379 122.072 71.3699 121.932 70.8659 121.652C70.3619 121.372 69.9659 120.988 69.6779 120.5C69.3979 120.004 69.2579 119.444 69.2579 118.82C69.2579 118.196 69.3979 117.64 69.6779 117.152C69.9659 116.656 70.3619 116.272 70.8659 116C71.3699 115.72 71.9379 115.58 72.5699 115.58C73.2019 115.58 73.7659 115.72 74.2619 116C74.7659 116.272 75.1579 116.656 75.4379 117.152C75.7259 117.64 75.8699 118.196 75.8699 118.82C75.8699 119.444 75.7259 120.004 75.4379 120.5C75.1579 120.988 74.7659 121.372 74.2619 121.652C73.7659 121.932 73.2019 122.072 72.5699 122.072ZM72.5699 121.064C72.9779 121.064 73.3419 120.972 73.6619 120.788C73.9899 120.596 74.2459 120.332 74.4299 119.996C74.6139 119.652 74.7059 119.26 74.7059 118.82C74.7059 118.38 74.6139 117.992 74.4299 117.656C74.2459 117.312 73.9899 117.048 73.6619 116.864C73.3419 116.68 72.9779 116.588 72.5699 116.588C72.1619 116.588 71.7939 116.68 71.4659 116.864C71.1459 117.048 70.8899 117.312 70.6979 117.656C70.5139 117.992 70.4219 118.38 70.4219 118.82C70.4219 119.26 70.5139 119.652 70.6979 119.996C70.8899 120.332 71.1459 120.596 71.4659 120.788C71.7939 120.972 72.1619 121.064 72.5699 121.064ZM80.8591 115.58C81.6671 115.58 82.3071 115.816 82.7791 116.288C83.2591 116.752 83.4991 117.436 83.4991 118.34V122H82.3471V118.472C82.3471 117.856 82.1991 117.392 81.9031 117.08C81.6071 116.768 81.1831 116.612 80.6311 116.612C80.0071 116.612 79.5151 116.796 79.1551 117.164C78.7951 117.524 78.6151 118.044 78.6151 118.724V122H77.4631V115.64H78.5671V116.6C78.7991 116.272 79.1111 116.02 79.5031 115.844C79.9031 115.668 80.3551 115.58 80.8591 115.58ZM87.9471 115.58C88.8271 115.58 89.4991 115.796 89.9631 116.228C90.4351 116.66 90.6711 117.304 90.6711 118.16V122H89.5791V121.16C89.3871 121.456 89.1111 121.684 88.7511 121.844C88.3991 121.996 87.9791 122.072 87.4911 122.072C86.7791 122.072 86.2071 121.9 85.7751 121.556C85.3511 121.212 85.1391 120.76 85.1391 120.2C85.1391 119.64 85.3431 119.192 85.7511 118.856C86.1591 118.512 86.8071 118.34 87.6951 118.34H89.5191V118.112C89.5191 117.616 89.3751 117.236 89.0871 116.972C88.7991 116.708 88.3751 116.576 87.8151 116.576C87.4391 116.576 87.0711 116.64 86.7111 116.768C86.3511 116.888 86.0471 117.052 85.7991 117.26L85.3191 116.396C85.6471 116.132 86.0391 115.932 86.4951 115.796C86.9511 115.652 87.4351 115.58 87.9471 115.58ZM87.6831 121.184C88.1231 121.184 88.5031 121.088 88.8231 120.896C89.1431 120.696 89.3751 120.416 89.5191 120.056V119.168H87.7431C86.7671 119.168 86.2791 119.496 86.2791 120.152C86.2791 120.472 86.4031 120.724 86.6511 120.908C86.8991 121.092 87.2431 121.184 87.6831 121.184ZM96.0256 113.096H97.1776V122H96.0256V113.096ZM101.693 115.58C102.573 115.58 103.245 115.796 103.709 116.228C104.181 116.66 104.417 117.304 104.417 118.16V122H103.325V121.16C103.133 121.456 102.857 121.684 102.497 121.844C102.145 121.996 101.725 122.072 101.237 122.072C100.525 122.072 99.9532 121.9 99.5212 121.556C99.0972 121.212 98.8852 120.76 98.8852 120.2C98.8852 119.64 99.0892 119.192 99.4972 118.856C99.9052 118.512 100.553 118.34 101.441 118.34H103.265V118.112C103.265 117.616 103.121 117.236 102.833 116.972C102.545 116.708 102.121 116.576 101.561 116.576C101.185 116.576 100.817 116.64 100.457 116.768C100.097 116.888 99.7932 117.052 99.5452 117.26L99.0652 116.396C99.3932 116.132 99.7852 115.932 100.241 115.796C100.697 115.652 101.181 115.58 101.693 115.58ZM101.429 121.184C101.869 121.184 102.249 121.088 102.569 120.896C102.889 120.696 103.121 120.416 103.265 120.056V119.168H101.489C100.513 119.168 100.025 119.496 100.025 120.152C100.025 120.472 100.149 120.724 100.397 120.908C100.645 121.092 100.989 121.184 101.429 121.184ZM113.144 115.58C113.76 115.58 114.312 115.716 114.8 115.988C115.288 116.26 115.668 116.64 115.94 117.128C116.22 117.616 116.36 118.18 116.36 118.82C116.36 119.46 116.22 120.028 115.94 120.524C115.668 121.012 115.288 121.392 114.8 121.664C114.312 121.936 113.76 122.072 113.144 122.072C112.688 122.072 112.268 121.984 111.884 121.808C111.508 121.632 111.188 121.376 110.924 121.04V124.328H109.772V115.64H110.876V116.648C111.132 116.296 111.456 116.032 111.848 115.856C112.24 115.672 112.672 115.58 113.144 115.58ZM113.048 121.064C113.456 121.064 113.82 120.972 114.14 120.788C114.468 120.596 114.724 120.332 114.908 119.996C115.1 119.652 115.196 119.26 115.196 118.82C115.196 118.38 115.1 117.992 114.908 117.656C114.724 117.312 114.468 117.048 114.14 116.864C113.82 116.68 113.456 116.588 113.048 116.588C112.648 116.588 112.284 116.684 111.956 116.876C111.636 117.06 111.38 117.32 111.188 117.656C111.004 117.992 110.912 118.38 110.912 118.82C110.912 119.26 111.004 119.652 111.188 119.996C111.372 120.332 111.628 120.596 111.956 120.788C112.284 120.972 112.648 121.064 113.048 121.064ZM120.209 115.58C121.089 115.58 121.761 115.796 122.225 116.228C122.697 116.66 122.933 117.304 122.933 118.16V122H121.841V121.16C121.649 121.456 121.373 121.684 121.013 121.844C120.661 121.996 120.241 122.072 119.753 122.072C119.041 122.072 118.469 121.9 118.037 121.556C117.613 121.212 117.401 120.76 117.401 120.2C117.401 119.64 117.605 119.192 118.013 118.856C118.421 118.512 119.069 118.34 119.957 118.34H121.781V118.112C121.781 117.616 121.637 117.236 121.349 116.972C121.061 116.708 120.637 116.576 120.077 116.576C119.701 116.576 119.333 116.64 118.973 116.768C118.613 116.888 118.309 117.052 118.061 117.26L117.581 116.396C117.909 116.132 118.301 115.932 118.757 115.796C119.213 115.652 119.697 115.58 120.209 115.58ZM119.945 121.184C120.385 121.184 120.765 121.088 121.085 120.896C121.405 120.696 121.637 120.416 121.781 120.056V119.168H120.005C119.029 119.168 118.541 119.496 118.541 120.152C118.541 120.472 118.665 120.724 118.913 120.908C119.161 121.092 119.505 121.184 119.945 121.184ZM126.169 116.708C126.369 116.34 126.665 116.06 127.057 115.868C127.449 115.676 127.925 115.58 128.485 115.58V116.696C128.421 116.688 128.333 116.684 128.221 116.684C127.597 116.684 127.105 116.872 126.745 117.248C126.393 117.616 126.217 118.144 126.217 118.832V122H125.065V115.64H126.169V116.708ZM133.738 121.628C133.57 121.772 133.362 121.884 133.114 121.964C132.866 122.036 132.61 122.072 132.346 122.072C131.706 122.072 131.21 121.9 130.858 121.556C130.506 121.212 130.33 120.72 130.33 120.08V116.588H129.25V115.64H130.33V114.248H131.482V115.64H133.306V116.588H131.482V120.032C131.482 120.376 131.566 120.64 131.734 120.824C131.91 121.008 132.158 121.1 132.478 121.1C132.83 121.1 133.13 121 133.378 120.8L133.738 121.628ZM140.668 118.856C140.668 118.944 140.66 119.06 140.644 119.204H135.484C135.556 119.764 135.8 120.216 136.216 120.56C136.64 120.896 137.164 121.064 137.788 121.064C138.548 121.064 139.16 120.808 139.624 120.296L140.26 121.04C139.972 121.376 139.612 121.632 139.18 121.808C138.756 121.984 138.28 122.072 137.752 122.072C137.08 122.072 136.484 121.936 135.964 121.664C135.444 121.384 135.04 120.996 134.752 120.5C134.472 120.004 134.332 119.444 134.332 118.82C134.332 118.204 134.468 117.648 134.74 117.152C135.02 116.656 135.4 116.272 135.88 116C136.368 115.72 136.916 115.58 137.524 115.58C138.132 115.58 138.672 115.72 139.144 116C139.624 116.272 139.996 116.656 140.26 117.152C140.532 117.648 140.668 118.216 140.668 118.856ZM137.524 116.552C136.972 116.552 136.508 116.72 136.132 117.056C135.764 117.392 135.548 117.832 135.484 118.376H139.564C139.5 117.84 139.28 117.404 138.904 117.068C138.536 116.724 138.076 116.552 137.524 116.552ZM24.2072 128.096H25.3592V137H24.2072V128.096ZM27.5588 130.64H28.7108V137H27.5588V130.64ZM28.1348 129.416C27.9108 129.416 27.7228 129.344 27.5708 129.2C27.4268 129.056 27.3548 128.88 27.3548 128.672C27.3548 128.464 27.4268 128.288 27.5708 128.144C27.7228 127.992 27.9108 127.916 28.1348 127.916C28.3588 127.916 28.5428 127.988 28.6868 128.132C28.8388 128.268 28.9148 128.44 28.9148 128.648C28.9148 128.864 28.8388 129.048 28.6868 129.2C28.5428 129.344 28.3588 129.416 28.1348 129.416ZM34.2824 130.58C34.8984 130.58 35.4504 130.716 35.9384 130.988C36.4264 131.26 36.8064 131.64 37.0784 132.128C37.3584 132.616 37.4984 133.18 37.4984 133.82C37.4984 134.46 37.3584 135.028 37.0784 135.524C36.8064 136.012 36.4264 136.392 35.9384 136.664C35.4504 136.936 34.8984 137.072 34.2824 137.072C33.8104 137.072 33.3784 136.98 32.9864 136.796C32.5944 136.612 32.2704 136.344 32.0144 135.992V137H30.9104V128.096H32.0624V131.6C32.3184 131.264 32.6384 131.012 33.0224 130.844C33.4064 130.668 33.8264 130.58 34.2824 130.58ZM34.1864 136.064C34.5944 136.064 34.9584 135.972 35.2784 135.788C35.6064 135.596 35.8624 135.332 36.0464 134.996C36.2384 134.652 36.3344 134.26 36.3344 133.82C36.3344 133.38 36.2384 132.992 36.0464 132.656C35.8624 132.312 35.6064 132.048 35.2784 131.864C34.9584 131.68 34.5944 131.588 34.1864 131.588C33.7864 131.588 33.4224 131.68 33.0944 131.864C32.7664 132.048 32.5104 132.312 32.3264 132.656C32.1424 132.992 32.0504 133.38 32.0504 133.82C32.0504 134.26 32.1424 134.652 32.3264 134.996C32.5104 135.332 32.7664 135.596 33.0944 135.788C33.4224 135.972 33.7864 136.064 34.1864 136.064ZM44.838 133.856C44.838 133.944 44.83 134.06 44.814 134.204H39.654C39.726 134.764 39.97 135.216 40.386 135.56C40.81 135.896 41.334 136.064 41.958 136.064C42.718 136.064 43.33 135.808 43.794 135.296L44.43 136.04C44.142 136.376 43.782 136.632 43.35 136.808C42.926 136.984 42.45 137.072 41.922 137.072C41.25 137.072 40.654 136.936 40.134 136.664C39.614 136.384 39.21 135.996 38.922 135.5C38.642 135.004 38.502 134.444 38.502 133.82C38.502 133.204 38.638 132.648 38.91 132.152C39.19 131.656 39.57 131.272 40.05 131C40.538 130.72 41.086 130.58 41.694 130.58C42.302 130.58 42.842 130.72 43.314 131C43.794 131.272 44.166 131.656 44.43 132.152C44.702 132.648 44.838 133.216 44.838 133.856ZM41.694 131.552C41.142 131.552 40.678 131.72 40.302 132.056C39.934 132.392 39.718 132.832 39.654 133.376H43.734C43.67 132.84 43.45 132.404 43.074 132.068C42.706 131.724 42.246 131.552 41.694 131.552ZM47.5417 131.708C47.7417 131.34 48.0377 131.06 48.4297 130.868C48.8217 130.676 49.2977 130.58 49.8577 130.58V131.696C49.7937 131.688 49.7057 131.684 49.5937 131.684C48.9697 131.684 48.4777 131.872 48.1177 132.248C47.7657 132.616 47.5897 133.144 47.5897 133.832V137H46.4377V130.64H47.5417V131.708ZM53.5818 130.58C54.4618 130.58 55.1338 130.796 55.5978 131.228C56.0698 131.66 56.3058 132.304 56.3058 133.16V137H55.2138V136.16C55.0218 136.456 54.7458 136.684 54.3858 136.844C54.0338 136.996 53.6138 137.072 53.1258 137.072C52.4138 137.072 51.8418 136.9 51.4098 136.556C50.9858 136.212 50.7738 135.76 50.7738 135.2C50.7738 134.64 50.9778 134.192 51.3858 133.856C51.7938 133.512 52.4418 133.34 53.3298 133.34H55.1538V133.112C55.1538 132.616 55.0098 132.236 54.7218 131.972C54.4338 131.708 54.0098 131.576 53.4498 131.576C53.0738 131.576 52.7058 131.64 52.3458 131.768C51.9858 131.888 51.6818 132.052 51.4338 132.26L50.9538 131.396C51.2818 131.132 51.6738 130.932 52.1298 130.796C52.5858 130.652 53.0698 130.58 53.5818 130.58ZM53.3178 136.184C53.7578 136.184 54.1378 136.088 54.4578 135.896C54.7778 135.696 55.0098 135.416 55.1538 135.056V134.168H53.3778C52.4018 134.168 51.9138 134.496 51.9138 135.152C51.9138 135.472 52.0378 135.724 52.2858 135.908C52.5338 136.092 52.8778 136.184 53.3178 136.184ZM64.4729 128.096V137H63.3689V135.992C63.1129 136.344 62.7889 136.612 62.3969 136.796C62.0049 136.98 61.5729 137.072 61.1009 137.072C60.4849 137.072 59.9329 136.936 59.4449 136.664C58.9569 136.392 58.5729 136.012 58.2929 135.524C58.0209 135.028 57.8849 134.46 57.8849 133.82C57.8849 133.18 58.0209 132.616 58.2929 132.128C58.5729 131.64 58.9569 131.26 59.4449 130.988C59.9329 130.716 60.4849 130.58 61.1009 130.58C61.5569 130.58 61.9769 130.668 62.3609 130.844C62.7449 131.012 63.0649 131.264 63.3209 131.6V128.096H64.4729ZM61.1969 136.064C61.5969 136.064 61.9609 135.972 62.2889 135.788C62.6169 135.596 62.8729 135.332 63.0569 134.996C63.2409 134.652 63.3329 134.26 63.3329 133.82C63.3329 133.38 63.2409 132.992 63.0569 132.656C62.8729 132.312 62.6169 132.048 62.2889 131.864C61.9609 131.68 61.5969 131.588 61.1969 131.588C60.7889 131.588 60.4209 131.68 60.0929 131.864C59.7729 132.048 59.5169 132.312 59.3249 132.656C59.1409 132.992 59.0489 133.38 59.0489 133.82C59.0489 134.26 59.1409 134.652 59.3249 134.996C59.5169 135.332 59.7729 135.596 60.0929 135.788C60.4209 135.972 60.7889 136.064 61.1969 136.064ZM68.9685 130.58C69.8485 130.58 70.5205 130.796 70.9845 131.228C71.4565 131.66 71.6925 132.304 71.6925 133.16V137H70.6005V136.16C70.4085 136.456 70.1325 136.684 69.7725 136.844C69.4205 136.996 69.0005 137.072 68.5125 137.072C67.8005 137.072 67.2285 136.9 66.7965 136.556C66.3725 136.212 66.1605 135.76 66.1605 135.2C66.1605 134.64 66.3645 134.192 66.7725 133.856C67.1805 133.512 67.8285 133.34 68.7165 133.34H70.5405V133.112C70.5405 132.616 70.3965 132.236 70.1085 131.972C69.8205 131.708 69.3965 131.576 68.8365 131.576C68.4605 131.576 68.0925 131.64 67.7325 131.768C67.3725 131.888 67.0685 132.052 66.8205 132.26L66.3405 131.396C66.6685 131.132 67.0605 130.932 67.5165 130.796C67.9725 130.652 68.4565 130.58 68.9685 130.58ZM68.7045 136.184C69.1445 136.184 69.5245 136.088 69.8445 135.896C70.1645 135.696 70.3965 135.416 70.5405 135.056V134.168H68.7645C67.7885 134.168 67.3005 134.496 67.3005 135.152C67.3005 135.472 67.4245 135.724 67.6725 135.908C67.9205 136.092 68.2645 136.184 68.7045 136.184ZM80.4191 130.58C81.0351 130.58 81.5871 130.716 82.0751 130.988C82.5631 131.26 82.9431 131.64 83.2151 132.128C83.4951 132.616 83.6351 133.18 83.6351 133.82C83.6351 134.46 83.4951 135.028 83.2151 135.524C82.9431 136.012 82.5631 136.392 82.0751 136.664C81.5871 136.936 81.0351 137.072 80.4191 137.072C79.9631 137.072 79.5431 136.984 79.1591 136.808C78.7831 136.632 78.4631 136.376 78.1991 136.04V139.328H77.0471V130.64H78.1511V131.648C78.4071 131.296 78.7311 131.032 79.1231 130.856C79.5151 130.672 79.9471 130.58 80.4191 130.58ZM80.3231 136.064C80.7311 136.064 81.0951 135.972 81.4151 135.788C81.7431 135.596 81.9991 135.332 82.1831 134.996C82.3751 134.652 82.4711 134.26 82.4711 133.82C82.4711 133.38 82.3751 132.992 82.1831 132.656C81.9991 132.312 81.7431 132.048 81.4151 131.864C81.0951 131.68 80.7311 131.588 80.3231 131.588C79.9231 131.588 79.5591 131.684 79.2311 131.876C78.9111 132.06 78.6551 132.32 78.4631 132.656C78.2791 132.992 78.1871 133.38 78.1871 133.82C78.1871 134.26 78.2791 134.652 78.4631 134.996C78.6471 135.332 78.9031 135.596 79.2311 135.788C79.5591 135.972 79.9231 136.064 80.3231 136.064ZM87.4842 130.58C88.3642 130.58 89.0362 130.796 89.5002 131.228C89.9722 131.66 90.2082 132.304 90.2082 133.16V137H89.1162V136.16C88.9242 136.456 88.6482 136.684 88.2882 136.844C87.9362 136.996 87.5162 137.072 87.0282 137.072C86.3162 137.072 85.7442 136.9 85.3122 136.556C84.8882 136.212 84.6762 135.76 84.6762 135.2C84.6762 134.64 84.8802 134.192 85.2882 133.856C85.6962 133.512 86.3442 133.34 87.2322 133.34H89.0562V133.112C89.0562 132.616 88.9122 132.236 88.6242 131.972C88.3362 131.708 87.9122 131.576 87.3522 131.576C86.9762 131.576 86.6082 131.64 86.2482 131.768C85.8882 131.888 85.5842 132.052 85.3362 132.26L84.8562 131.396C85.1842 131.132 85.5762 130.932 86.0322 130.796C86.4882 130.652 86.9722 130.58 87.4842 130.58ZM87.2202 136.184C87.6602 136.184 88.0402 136.088 88.3602 135.896C88.6802 135.696 88.9122 135.416 89.0562 135.056V134.168H87.2802C86.3042 134.168 85.8162 134.496 85.8162 135.152C85.8162 135.472 85.9402 135.724 86.1882 135.908C86.4362 136.092 86.7802 136.184 87.2202 136.184ZM93.444 131.708C93.644 131.34 93.94 131.06 94.332 130.868C94.724 130.676 95.2 130.58 95.76 130.58V131.696C95.696 131.688 95.608 131.684 95.496 131.684C94.872 131.684 94.38 131.872 94.02 132.248C93.668 132.616 93.492 133.144 93.492 133.832V137H92.34V130.64H93.444V131.708ZM99.4842 130.58C100.364 130.58 101.036 130.796 101.5 131.228C101.972 131.66 102.208 132.304 102.208 133.16V137H101.116V136.16C100.924 136.456 100.648 136.684 100.288 136.844C99.9362 136.996 99.5162 137.072 99.0282 137.072C98.3162 137.072 97.7442 136.9 97.3122 136.556C96.8882 136.212 96.6762 135.76 96.6762 135.2C96.6762 134.64 96.8802 134.192 97.2882 133.856C97.6962 133.512 98.3442 133.34 99.2322 133.34H101.056V133.112C101.056 132.616 100.912 132.236 100.624 131.972C100.336 131.708 99.9122 131.576 99.3522 131.576C98.9762 131.576 98.6082 131.64 98.2482 131.768C97.8882 131.888 97.5842 132.052 97.3362 132.26L96.8562 131.396C97.1842 131.132 97.5762 130.932 98.0322 130.796C98.4882 130.652 98.9722 130.58 99.4842 130.58ZM99.2202 136.184C99.6602 136.184 100.04 136.088 100.36 135.896C100.68 135.696 100.912 135.416 101.056 135.056V134.168H99.2802C98.3042 134.168 97.8162 134.496 97.8162 135.152C97.8162 135.472 97.9402 135.724 98.1882 135.908C98.4362 136.092 98.7802 136.184 99.2202 136.184ZM110.335 137.072C109.687 137.072 109.107 136.932 108.595 136.652C108.091 136.372 107.695 135.988 107.407 135.5C107.119 135.004 106.975 134.444 106.975 133.82C106.975 133.196 107.119 132.64 107.407 132.152C107.695 131.656 108.091 131.272 108.595 131C109.107 130.72 109.687 130.58 110.335 130.58C110.911 130.58 111.423 130.696 111.871 130.928C112.327 131.16 112.679 131.496 112.927 131.936L112.051 132.5C111.851 132.196 111.603 131.968 111.307 131.816C111.011 131.664 110.683 131.588 110.323 131.588C109.907 131.588 109.531 131.68 109.195 131.864C108.867 132.048 108.607 132.312 108.415 132.656C108.231 132.992 108.139 133.38 108.139 133.82C108.139 134.268 108.231 134.664 108.415 135.008C108.607 135.344 108.867 135.604 109.195 135.788C109.531 135.972 109.907 136.064 110.323 136.064C110.683 136.064 111.011 135.988 111.307 135.836C111.603 135.684 111.851 135.456 112.051 135.152L112.927 135.704C112.679 136.144 112.327 136.484 111.871 136.724C111.423 136.956 110.911 137.072 110.335 137.072ZM115.522 131.708C115.722 131.34 116.018 131.06 116.41 130.868C116.802 130.676 117.278 130.58 117.838 130.58V131.696C117.774 131.688 117.686 131.684 117.574 131.684C116.95 131.684 116.458 131.872 116.098 132.248C115.746 132.616 115.57 133.144 115.57 133.832V137H114.418V130.64H115.522V131.708ZM124.947 133.856C124.947 133.944 124.939 134.06 124.923 134.204H119.763C119.835 134.764 120.079 135.216 120.495 135.56C120.919 135.896 121.443 136.064 122.067 136.064C122.827 136.064 123.439 135.808 123.903 135.296L124.539 136.04C124.251 136.376 123.891 136.632 123.459 136.808C123.035 136.984 122.559 137.072 122.031 137.072C121.359 137.072 120.763 136.936 120.243 136.664C119.723 136.384 119.319 135.996 119.031 135.5C118.751 135.004 118.611 134.444 118.611 133.82C118.611 133.204 118.747 132.648 119.019 132.152C119.299 131.656 119.679 131.272 120.159 131C120.647 130.72 121.195 130.58 121.803 130.58C122.411 130.58 122.951 130.72 123.423 131C123.903 131.272 124.275 131.656 124.539 132.152C124.811 132.648 124.947 133.216 124.947 133.856ZM121.803 131.552C121.251 131.552 120.787 131.72 120.411 132.056C120.043 132.392 119.827 132.832 119.763 133.376H123.843C123.779 132.84 123.559 132.404 123.183 132.068C122.815 131.724 122.355 131.552 121.803 131.552ZM128.687 130.58C129.567 130.58 130.239 130.796 130.703 131.228C131.175 131.66 131.411 132.304 131.411 133.16V137H130.319V136.16C130.127 136.456 129.851 136.684 129.491 136.844C129.139 136.996 128.719 137.072 128.231 137.072C127.519 137.072 126.947 136.9 126.515 136.556C126.091 136.212 125.879 135.76 125.879 135.2C125.879 134.64 126.083 134.192 126.491 133.856C126.899 133.512 127.547 133.34 128.435 133.34H130.259V133.112C130.259 132.616 130.115 132.236 129.827 131.972C129.539 131.708 129.115 131.576 128.555 131.576C128.179 131.576 127.811 131.64 127.451 131.768C127.091 131.888 126.787 132.052 126.539 132.26L126.059 131.396C126.387 131.132 126.779 130.932 127.235 130.796C127.691 130.652 128.175 130.58 128.687 130.58ZM128.423 136.184C128.863 136.184 129.243 136.088 129.563 135.896C129.883 135.696 130.115 135.416 130.259 135.056V134.168H128.483C127.507 134.168 127.019 134.496 127.019 135.152C127.019 135.472 127.143 135.724 127.391 135.908C127.639 136.092 127.983 136.184 128.423 136.184ZM134.647 131.708C134.847 131.34 135.143 131.06 135.535 130.868C135.927 130.676 136.403 130.58 136.963 130.58V131.696C136.899 131.688 136.811 131.684 136.699 131.684C136.075 131.684 135.583 131.872 135.223 132.248C134.871 132.616 134.695 133.144 134.695 133.832V137H133.543V130.64H134.647V131.708ZM147.616 130.64V137H146.524V136.04C146.292 136.368 145.984 136.624 145.6 136.808C145.224 136.984 144.812 137.072 144.364 137.072C143.516 137.072 142.848 136.84 142.36 136.376C141.872 135.904 141.628 135.212 141.628 134.3V130.64H142.78V134.168C142.78 134.784 142.928 135.252 143.224 135.572C143.52 135.884 143.944 136.04 144.496 136.04C145.104 136.04 145.584 135.856 145.936 135.488C146.288 135.12 146.464 134.6 146.464 133.928V130.64H147.616ZM153.205 130.58C154.013 130.58 154.653 130.816 155.125 131.288C155.605 131.752 155.845 132.436 155.845 133.34V137H154.693V133.472C154.693 132.856 154.545 132.392 154.249 132.08C153.953 131.768 153.529 131.612 152.977 131.612C152.353 131.612 151.861 131.796 151.501 132.164C151.141 132.524 150.961 133.044 150.961 133.724V137H149.809V130.64H150.913V131.6C151.145 131.272 151.457 131.02 151.849 130.844C152.249 130.668 152.701 130.58 153.205 130.58ZM33.7229 143.096V152H32.6189V150.992C32.3629 151.344 32.0389 151.612 31.6469 151.796C31.2549 151.98 30.8229 152.072 30.3509 152.072C29.7349 152.072 29.1829 151.936 28.6949 151.664C28.2069 151.392 27.8229 151.012 27.5429 150.524C27.2709 150.028 27.1349 149.46 27.1349 148.82C27.1349 148.18 27.2709 147.616 27.5429 147.128C27.8229 146.64 28.2069 146.26 28.6949 145.988C29.1829 145.716 29.7349 145.58 30.3509 145.58C30.8069 145.58 31.2269 145.668 31.6109 145.844C31.9949 146.012 32.3149 146.264 32.5709 146.6V143.096H33.7229ZM30.4469 151.064C30.8469 151.064 31.2109 150.972 31.5389 150.788C31.8669 150.596 32.1229 150.332 32.3069 149.996C32.4909 149.652 32.5829 149.26 32.5829 148.82C32.5829 148.38 32.4909 147.992 32.3069 147.656C32.1229 147.312 31.8669 147.048 31.5389 146.864C31.2109 146.68 30.8469 146.588 30.4469 146.588C30.0389 146.588 29.6709 146.68 29.3429 146.864C29.0229 147.048 28.7669 147.312 28.5749 147.656C28.3909 147.992 28.2989 148.38 28.2989 148.82C28.2989 149.26 28.3909 149.652 28.5749 149.996C28.7669 150.332 29.0229 150.596 29.3429 150.788C29.6709 150.972 30.0389 151.064 30.4469 151.064ZM38.6265 152.072C37.9945 152.072 37.4265 151.932 36.9225 151.652C36.4185 151.372 36.0225 150.988 35.7345 150.5C35.4545 150.004 35.3145 149.444 35.3145 148.82C35.3145 148.196 35.4545 147.64 35.7345 147.152C36.0225 146.656 36.4185 146.272 36.9225 146C37.4265 145.72 37.9945 145.58 38.6265 145.58C39.2585 145.58 39.8225 145.72 40.3185 146C40.8225 146.272 41.2145 146.656 41.4945 147.152C41.7825 147.64 41.9265 148.196 41.9265 148.82C41.9265 149.444 41.7825 150.004 41.4945 150.5C41.2145 150.988 40.8225 151.372 40.3185 151.652C39.8225 151.932 39.2585 152.072 38.6265 152.072ZM38.6265 151.064C39.0345 151.064 39.3985 150.972 39.7185 150.788C40.0465 150.596 40.3025 150.332 40.4865 149.996C40.6705 149.652 40.7625 149.26 40.7625 148.82C40.7625 148.38 40.6705 147.992 40.4865 147.656C40.3025 147.312 40.0465 147.048 39.7185 146.864C39.3985 146.68 39.0345 146.588 38.6265 146.588C38.2185 146.588 37.8505 146.68 37.5225 146.864C37.2025 147.048 36.9465 147.312 36.7545 147.656C36.5705 147.992 36.4785 148.38 36.4785 148.82C36.4785 149.26 36.5705 149.652 36.7545 149.996C36.9465 150.332 37.2025 150.596 37.5225 150.788C37.8505 150.972 38.2185 151.064 38.6265 151.064ZM46.8917 145.58C47.5077 145.58 48.0597 145.716 48.5477 145.988C49.0357 146.26 49.4157 146.64 49.6877 147.128C49.9677 147.616 50.1077 148.18 50.1077 148.82C50.1077 149.46 49.9677 150.028 49.6877 150.524C49.4157 151.012 49.0357 151.392 48.5477 151.664C48.0597 151.936 47.5077 152.072 46.8917 152.072C46.4197 152.072 45.9877 151.98 45.5957 151.796C45.2037 151.612 44.8797 151.344 44.6237 150.992V152H43.5197V143.096H44.6717V146.6C44.9277 146.264 45.2477 146.012 45.6317 145.844C46.0157 145.668 46.4357 145.58 46.8917 145.58ZM46.7957 151.064C47.2037 151.064 47.5677 150.972 47.8877 150.788C48.2157 150.596 48.4717 150.332 48.6557 149.996C48.8477 149.652 48.9437 149.26 48.9437 148.82C48.9437 148.38 48.8477 147.992 48.6557 147.656C48.4717 147.312 48.2157 147.048 47.8877 146.864C47.5677 146.68 47.2037 146.588 46.7957 146.588C46.3957 146.588 46.0317 146.68 45.7037 146.864C45.3757 147.048 45.1197 147.312 44.9357 147.656C44.7517 147.992 44.6597 148.38 44.6597 148.82C44.6597 149.26 44.7517 149.652 44.9357 149.996C45.1197 150.332 45.3757 150.596 45.7037 150.788C46.0317 150.972 46.3957 151.064 46.7957 151.064ZM51.6994 143.096H52.8514V152H51.6994V143.096ZM60.799 148.856C60.799 148.944 60.791 149.06 60.775 149.204H55.615C55.687 149.764 55.931 150.216 56.347 150.56C56.771 150.896 57.295 151.064 57.919 151.064C58.679 151.064 59.291 150.808 59.755 150.296L60.391 151.04C60.103 151.376 59.743 151.632 59.311 151.808C58.887 151.984 58.411 152.072 57.883 152.072C57.211 152.072 56.615 151.936 56.095 151.664C55.575 151.384 55.171 150.996 54.883 150.5C54.603 150.004 54.463 149.444 54.463 148.82C54.463 148.204 54.599 147.648 54.871 147.152C55.151 146.656 55.531 146.272 56.011 146C56.499 145.72 57.047 145.58 57.655 145.58C58.263 145.58 58.803 145.72 59.275 146C59.755 146.272 60.127 146.656 60.391 147.152C60.663 147.648 60.799 148.216 60.799 148.856ZM57.655 146.552C57.103 146.552 56.639 146.72 56.263 147.056C55.895 147.392 55.679 147.832 55.615 148.376H59.695C59.631 147.84 59.411 147.404 59.035 147.068C58.667 146.724 58.207 146.552 57.655 146.552ZM58.375 143.156H59.839L57.823 144.716H56.743L58.375 143.156ZM64.2226 152.072C63.7026 152.072 63.2026 152.004 62.7226 151.868C62.2426 151.724 61.8666 151.544 61.5946 151.328L62.0746 150.416C62.3546 150.616 62.6946 150.776 63.0946 150.896C63.4946 151.016 63.8986 151.076 64.3066 151.076C65.3146 151.076 65.8186 150.788 65.8186 150.212C65.8186 150.02 65.7506 149.868 65.6146 149.756C65.4786 149.644 65.3066 149.564 65.0986 149.516C64.8986 149.46 64.6106 149.4 64.2346 149.336C63.7226 149.256 63.3026 149.164 62.9746 149.06C62.6546 148.956 62.3786 148.78 62.1466 148.532C61.9146 148.284 61.7986 147.936 61.7986 147.488C61.7986 146.912 62.0386 146.452 62.5186 146.108C62.9986 145.756 63.6426 145.58 64.4506 145.58C64.8746 145.58 65.2986 145.632 65.7226 145.736C66.1466 145.84 66.4946 145.98 66.7666 146.156L66.2746 147.068C65.7546 146.732 65.1426 146.564 64.4386 146.564C63.9506 146.564 63.5786 146.644 63.3226 146.804C63.0666 146.964 62.9386 147.176 62.9386 147.44C62.9386 147.648 63.0106 147.812 63.1546 147.932C63.2986 148.052 63.4746 148.14 63.6826 148.196C63.8986 148.252 64.1986 148.316 64.5826 148.388C65.0946 148.476 65.5066 148.572 65.8186 148.676C66.1386 148.772 66.4106 148.94 66.6346 149.18C66.8586 149.42 66.9706 149.756 66.9706 150.188C66.9706 150.764 66.7226 151.224 66.2266 151.568C65.7386 151.904 65.0706 152.072 64.2226 152.072ZM68.6864 152.072C68.4624 152.072 68.2704 151.996 68.1104 151.844C67.9504 151.684 67.8704 151.484 67.8704 151.244C67.8704 151.012 67.9504 150.82 68.1104 150.668C68.2704 150.508 68.4624 150.428 68.6864 150.428C68.9104 150.428 69.0984 150.504 69.2504 150.656C69.4024 150.808 69.4784 151.004 69.4784 151.244C69.4784 151.484 69.3984 151.684 69.2384 151.844C69.0864 151.996 68.9024 152.072 68.6864 152.072ZM81.7438 143.6V152H80.5438V148.256H75.7198V152H74.5198V143.6H75.7198V147.212H80.5438V143.6H81.7438ZM86.406 145.58C87.286 145.58 87.958 145.796 88.422 146.228C88.894 146.66 89.13 147.304 89.13 148.16V152H88.038V151.16C87.846 151.456 87.57 151.684 87.21 151.844C86.858 151.996 86.438 152.072 85.95 152.072C85.238 152.072 84.666 151.9 84.234 151.556C83.81 151.212 83.598 150.76 83.598 150.2C83.598 149.64 83.802 149.192 84.21 148.856C84.618 148.512 85.266 148.34 86.154 148.34H87.978V148.112C87.978 147.616 87.834 147.236 87.546 146.972C87.258 146.708 86.834 146.576 86.274 146.576C85.898 146.576 85.53 146.64 85.17 146.768C84.81 146.888 84.506 147.052 84.258 147.26L83.778 146.396C84.106 146.132 84.498 145.932 84.954 145.796C85.41 145.652 85.894 145.58 86.406 145.58ZM86.142 151.184C86.582 151.184 86.962 151.088 87.282 150.896C87.602 150.696 87.834 150.416 87.978 150.056V149.168H86.202C85.226 149.168 84.738 149.496 84.738 150.152C84.738 150.472 84.862 150.724 85.11 150.908C85.358 151.092 85.702 151.184 86.142 151.184ZM95.9779 151.052V152H90.6499V151.256L94.4059 146.588H90.7219V145.64H95.8819V146.396L92.1259 151.052H95.9779ZM97.5197 143.096H98.6717V152H97.5197V143.096ZM103.595 152.072C102.963 152.072 102.395 151.932 101.891 151.652C101.387 151.372 100.991 150.988 100.703 150.5C100.423 150.004 100.283 149.444 100.283 148.82C100.283 148.196 100.423 147.64 100.703 147.152C100.991 146.656 101.387 146.272 101.891 146C102.395 145.72 102.963 145.58 103.595 145.58C104.227 145.58 104.791 145.72 105.287 146C105.791 146.272 106.183 146.656 106.463 147.152C106.751 147.64 106.895 148.196 106.895 148.82C106.895 149.444 106.751 150.004 106.463 150.5C106.183 150.988 105.791 151.372 105.287 151.652C104.791 151.932 104.227 152.072 103.595 152.072ZM103.595 151.064C104.003 151.064 104.367 150.972 104.687 150.788C105.015 150.596 105.271 150.332 105.455 149.996C105.639 149.652 105.731 149.26 105.731 148.82C105.731 148.38 105.639 147.992 105.455 147.656C105.271 147.312 105.015 147.048 104.687 146.864C104.367 146.68 104.003 146.588 103.595 146.588C103.187 146.588 102.819 146.68 102.491 146.864C102.171 147.048 101.915 147.312 101.723 147.656C101.539 147.992 101.447 148.38 101.447 148.82C101.447 149.26 101.539 149.652 101.723 149.996C101.915 150.332 102.171 150.596 102.491 150.788C102.819 150.972 103.187 151.064 103.595 151.064ZM114.483 152.072C113.835 152.072 113.255 151.932 112.743 151.652C112.239 151.372 111.843 150.988 111.555 150.5C111.267 150.004 111.123 149.444 111.123 148.82C111.123 148.196 111.267 147.64 111.555 147.152C111.843 146.656 112.239 146.272 112.743 146C113.255 145.72 113.835 145.58 114.483 145.58C115.059 145.58 115.571 145.696 116.019 145.928C116.475 146.16 116.827 146.496 117.075 146.936L116.199 147.5C115.999 147.196 115.751 146.968 115.455 146.816C115.159 146.664 114.831 146.588 114.471 146.588C114.055 146.588 113.679 146.68 113.343 146.864C113.015 147.048 112.755 147.312 112.563 147.656C112.379 147.992 112.287 148.38 112.287 148.82C112.287 149.268 112.379 149.664 112.563 150.008C112.755 150.344 113.015 150.604 113.343 150.788C113.679 150.972 114.055 151.064 114.471 151.064C114.831 151.064 115.159 150.988 115.455 150.836C115.751 150.684 115.999 150.456 116.199 150.152L117.075 150.704C116.827 151.144 116.475 151.484 116.019 151.724C115.571 151.956 115.059 152.072 114.483 152.072ZM121.197 152.072C120.565 152.072 119.997 151.932 119.493 151.652C118.989 151.372 118.593 150.988 118.305 150.5C118.025 150.004 117.885 149.444 117.885 148.82C117.885 148.196 118.025 147.64 118.305 147.152C118.593 146.656 118.989 146.272 119.493 146C119.997 145.72 120.565 145.58 121.197 145.58C121.829 145.58 122.393 145.72 122.889 146C123.393 146.272 123.785 146.656 124.065 147.152C124.353 147.64 124.497 148.196 124.497 148.82C124.497 149.444 124.353 150.004 124.065 150.5C123.785 150.988 123.393 151.372 122.889 151.652C122.393 151.932 121.829 152.072 121.197 152.072ZM121.197 151.064C121.605 151.064 121.969 150.972 122.289 150.788C122.617 150.596 122.873 150.332 123.057 149.996C123.241 149.652 123.333 149.26 123.333 148.82C123.333 148.38 123.241 147.992 123.057 147.656C122.873 147.312 122.617 147.048 122.289 146.864C121.969 146.68 121.605 146.588 121.197 146.588C120.789 146.588 120.421 146.68 120.093 146.864C119.773 147.048 119.517 147.312 119.325 147.656C119.141 147.992 119.049 148.38 119.049 148.82C119.049 149.26 119.141 149.652 119.325 149.996C119.517 150.332 119.773 150.596 120.093 150.788C120.421 150.972 120.789 151.064 121.197 151.064ZM129.486 145.58C130.294 145.58 130.934 145.816 131.406 146.288C131.886 146.752 132.126 147.436 132.126 148.34V152H130.974V148.472C130.974 147.856 130.826 147.392 130.53 147.08C130.234 146.768 129.81 146.612 129.258 146.612C128.634 146.612 128.142 146.796 127.782 147.164C127.422 147.524 127.242 148.044 127.242 148.724V152H126.09V145.64H127.194V146.6C127.426 146.272 127.738 146.02 128.13 145.844C128.53 145.668 128.982 145.58 129.486 145.58ZM137.481 143.096H138.633V152H137.481V143.096ZM143.556 152.072C142.924 152.072 142.356 151.932 141.852 151.652C141.348 151.372 140.952 150.988 140.664 150.5C140.384 150.004 140.244 149.444 140.244 148.82C140.244 148.196 140.384 147.64 140.664 147.152C140.952 146.656 141.348 146.272 141.852 146C142.356 145.72 142.924 145.58 143.556 145.58C144.188 145.58 144.752 145.72 145.248 146C145.752 146.272 146.144 146.656 146.424 147.152C146.712 147.64 146.856 148.196 146.856 148.82C146.856 149.444 146.712 150.004 146.424 150.5C146.144 150.988 145.752 151.372 145.248 151.652C144.752 151.932 144.188 152.072 143.556 152.072ZM143.556 151.064C143.964 151.064 144.328 150.972 144.648 150.788C144.976 150.596 145.232 150.332 145.416 149.996C145.6 149.652 145.692 149.26 145.692 148.82C145.692 148.38 145.6 147.992 145.416 147.656C145.232 147.312 144.976 147.048 144.648 146.864C144.328 146.68 143.964 146.588 143.556 146.588C143.148 146.588 142.78 146.68 142.452 146.864C142.132 147.048 141.876 147.312 141.684 147.656C141.5 147.992 141.408 148.38 141.408 148.82C141.408 149.26 141.5 149.652 141.684 149.996C141.876 150.332 142.132 150.596 142.452 150.788C142.78 150.972 143.148 151.064 143.556 151.064ZM150.273 152.072C149.753 152.072 149.253 152.004 148.773 151.868C148.293 151.724 147.917 151.544 147.645 151.328L148.125 150.416C148.405 150.616 148.745 150.776 149.145 150.896C149.545 151.016 149.949 151.076 150.357 151.076C151.365 151.076 151.869 150.788 151.869 150.212C151.869 150.02 151.801 149.868 151.665 149.756C151.529 149.644 151.357 149.564 151.149 149.516C150.949 149.46 150.661 149.4 150.285 149.336C149.773 149.256 149.353 149.164 149.025 149.06C148.705 148.956 148.429 148.78 148.197 148.532C147.965 148.284 147.849 147.936 147.849 147.488C147.849 146.912 148.089 146.452 148.569 146.108C149.049 145.756 149.693 145.58 150.501 145.58C150.925 145.58 151.349 145.632 151.773 145.736C152.197 145.84 152.545 145.98 152.817 146.156L152.325 147.068C151.805 146.732 151.193 146.564 150.489 146.564C150.001 146.564 149.629 146.644 149.373 146.804C149.117 146.964 148.989 147.176 148.989 147.44C148.989 147.648 149.061 147.812 149.205 147.932C149.349 148.052 149.525 148.14 149.733 148.196C149.949 148.252 150.249 148.316 150.633 148.388C151.145 148.476 151.557 148.572 151.869 148.676C152.189 148.772 152.461 148.94 152.685 149.18C152.909 149.42 153.021 149.756 153.021 150.188C153.021 150.764 152.773 151.224 152.277 151.568C151.789 151.904 151.121 152.072 150.273 152.072ZM56.0295 158.096V167H54.9255V165.992C54.6695 166.344 54.3455 166.612 53.9535 166.796C53.5615 166.98 53.1295 167.072 52.6575 167.072C52.0415 167.072 51.4895 166.936 51.0015 166.664C50.5135 166.392 50.1295 166.012 49.8495 165.524C49.5775 165.028 49.4415 164.46 49.4415 163.82C49.4415 163.18 49.5775 162.616 49.8495 162.128C50.1295 161.64 50.5135 161.26 51.0015 160.988C51.4895 160.716 52.0415 160.58 52.6575 160.58C53.1135 160.58 53.5335 160.668 53.9175 160.844C54.3015 161.012 54.6215 161.264 54.8775 161.6V158.096H56.0295ZM52.7535 166.064C53.1535 166.064 53.5175 165.972 53.8455 165.788C54.1735 165.596 54.4295 165.332 54.6135 164.996C54.7975 164.652 54.8895 164.26 54.8895 163.82C54.8895 163.38 54.7975 162.992 54.6135 162.656C54.4295 162.312 54.1735 162.048 53.8455 161.864C53.5175 161.68 53.1535 161.588 52.7535 161.588C52.3455 161.588 51.9775 161.68 51.6495 161.864C51.3295 162.048 51.0735 162.312 50.8815 162.656C50.6975 162.992 50.6055 163.38 50.6055 163.82C50.6055 164.26 50.6975 164.652 50.8815 164.996C51.0735 165.332 51.3295 165.596 51.6495 165.788C51.9775 165.972 52.3455 166.064 52.7535 166.064ZM60.9332 167.072C60.3012 167.072 59.7332 166.932 59.2292 166.652C58.7252 166.372 58.3292 165.988 58.0412 165.5C57.7612 165.004 57.6212 164.444 57.6212 163.82C57.6212 163.196 57.7612 162.64 58.0412 162.152C58.3292 161.656 58.7252 161.272 59.2292 161C59.7332 160.72 60.3012 160.58 60.9332 160.58C61.5652 160.58 62.1292 160.72 62.6252 161C63.1292 161.272 63.5212 161.656 63.8012 162.152C64.0892 162.64 64.2332 163.196 64.2332 163.82C64.2332 164.444 64.0892 165.004 63.8012 165.5C63.5212 165.988 63.1292 166.372 62.6252 166.652C62.1292 166.932 61.5652 167.072 60.9332 167.072ZM60.9332 166.064C61.3412 166.064 61.7052 165.972 62.0252 165.788C62.3532 165.596 62.6092 165.332 62.7932 164.996C62.9772 164.652 63.0692 164.26 63.0692 163.82C63.0692 163.38 62.9772 162.992 62.7932 162.656C62.6092 162.312 62.3532 162.048 62.0252 161.864C61.7052 161.68 61.3412 161.588 60.9332 161.588C60.5252 161.588 60.1572 161.68 59.8292 161.864C59.5092 162.048 59.2532 162.312 59.0612 162.656C58.8772 162.992 58.7852 163.38 58.7852 163.82C58.7852 164.26 58.8772 164.652 59.0612 164.996C59.2532 165.332 59.5092 165.596 59.8292 165.788C60.1572 165.972 60.5252 166.064 60.9332 166.064ZM67.6504 167.072C67.1304 167.072 66.6304 167.004 66.1504 166.868C65.6704 166.724 65.2944 166.544 65.0224 166.328L65.5024 165.416C65.7824 165.616 66.1224 165.776 66.5224 165.896C66.9224 166.016 67.3264 166.076 67.7344 166.076C68.7424 166.076 69.2464 165.788 69.2464 165.212C69.2464 165.02 69.1784 164.868 69.0424 164.756C68.9064 164.644 68.7344 164.564 68.5264 164.516C68.3264 164.46 68.0384 164.4 67.6624 164.336C67.1504 164.256 66.7304 164.164 66.4024 164.06C66.0824 163.956 65.8064 163.78 65.5744 163.532C65.3424 163.284 65.2264 162.936 65.2264 162.488C65.2264 161.912 65.4664 161.452 65.9464 161.108C66.4264 160.756 67.0704 160.58 67.8784 160.58C68.3024 160.58 68.7264 160.632 69.1504 160.736C69.5744 160.84 69.9224 160.98 70.1944 161.156L69.7024 162.068C69.1824 161.732 68.5704 161.564 67.8664 161.564C67.3784 161.564 67.0064 161.644 66.7504 161.804C66.4944 161.964 66.3664 162.176 66.3664 162.44C66.3664 162.648 66.4384 162.812 66.5824 162.932C66.7264 163.052 66.9024 163.14 67.1104 163.196C67.3264 163.252 67.6264 163.316 68.0104 163.388C68.5224 163.476 68.9344 163.572 69.2464 163.676C69.5664 163.772 69.8384 163.94 70.0624 164.18C70.2864 164.42 70.3984 164.756 70.3984 165.188C70.3984 165.764 70.1504 166.224 69.6544 166.568C69.1664 166.904 68.4984 167.072 67.6504 167.072ZM77.8328 167.072C77.1848 167.072 76.6048 166.932 76.0928 166.652C75.5888 166.372 75.1928 165.988 74.9048 165.5C74.6168 165.004 74.4728 164.444 74.4728 163.82C74.4728 163.196 74.6168 162.64 74.9048 162.152C75.1928 161.656 75.5888 161.272 76.0928 161C76.6048 160.72 77.1848 160.58 77.8328 160.58C78.4088 160.58 78.9208 160.696 79.3688 160.928C79.8248 161.16 80.1768 161.496 80.4248 161.936L79.5488 162.5C79.3488 162.196 79.1008 161.968 78.8048 161.816C78.5088 161.664 78.1808 161.588 77.8208 161.588C77.4048 161.588 77.0288 161.68 76.6928 161.864C76.3648 162.048 76.1048 162.312 75.9128 162.656C75.7288 162.992 75.6368 163.38 75.6368 163.82C75.6368 164.268 75.7288 164.664 75.9128 165.008C76.1048 165.344 76.3648 165.604 76.6928 165.788C77.0288 165.972 77.4048 166.064 77.8208 166.064C78.1808 166.064 78.5088 165.988 78.8048 165.836C79.1008 165.684 79.3488 165.456 79.5488 165.152L80.4248 165.704C80.1768 166.144 79.8248 166.484 79.3688 166.724C78.9208 166.956 78.4088 167.072 77.8328 167.072ZM84.5465 167.072C83.9145 167.072 83.3465 166.932 82.8425 166.652C82.3385 166.372 81.9425 165.988 81.6545 165.5C81.3745 165.004 81.2345 164.444 81.2345 163.82C81.2345 163.196 81.3745 162.64 81.6545 162.152C81.9425 161.656 82.3385 161.272 82.8425 161C83.3465 160.72 83.9145 160.58 84.5465 160.58C85.1785 160.58 85.7425 160.72 86.2385 161C86.7425 161.272 87.1345 161.656 87.4145 162.152C87.7025 162.64 87.8465 163.196 87.8465 163.82C87.8465 164.444 87.7025 165.004 87.4145 165.5C87.1345 165.988 86.7425 166.372 86.2385 166.652C85.7425 166.932 85.1785 167.072 84.5465 167.072ZM84.5465 166.064C84.9545 166.064 85.3185 165.972 85.6385 165.788C85.9665 165.596 86.2225 165.332 86.4065 164.996C86.5905 164.652 86.6825 164.26 86.6825 163.82C86.6825 163.38 86.5905 162.992 86.4065 162.656C86.2225 162.312 85.9665 162.048 85.6385 161.864C85.3185 161.68 84.9545 161.588 84.5465 161.588C84.1385 161.588 83.7705 161.68 83.4425 161.864C83.1225 162.048 82.8665 162.312 82.6745 162.656C82.4905 162.992 82.3985 163.38 82.3985 163.82C82.3985 164.26 82.4905 164.652 82.6745 164.996C82.8665 165.332 83.1225 165.596 83.4425 165.788C83.7705 165.972 84.1385 166.064 84.5465 166.064ZM91.2637 167.072C90.7437 167.072 90.2437 167.004 89.7637 166.868C89.2837 166.724 88.9077 166.544 88.6357 166.328L89.1157 165.416C89.3957 165.616 89.7357 165.776 90.1357 165.896C90.5357 166.016 90.9397 166.076 91.3477 166.076C92.3557 166.076 92.8597 165.788 92.8597 165.212C92.8597 165.02 92.7917 164.868 92.6557 164.756C92.5197 164.644 92.3477 164.564 92.1397 164.516C91.9397 164.46 91.6517 164.4 91.2757 164.336C90.7637 164.256 90.3437 164.164 90.0157 164.06C89.6957 163.956 89.4197 163.78 89.1877 163.532C88.9557 163.284 88.8397 162.936 88.8397 162.488C88.8397 161.912 89.0797 161.452 89.5597 161.108C90.0397 160.756 90.6837 160.58 91.4917 160.58C91.9157 160.58 92.3397 160.632 92.7637 160.736C93.1877 160.84 93.5357 160.98 93.8077 161.156L93.3157 162.068C92.7957 161.732 92.1837 161.564 91.4797 161.564C90.9917 161.564 90.6197 161.644 90.3637 161.804C90.1077 161.964 89.9797 162.176 89.9797 162.44C89.9797 162.648 90.0517 162.812 90.1957 162.932C90.3397 163.052 90.5157 163.14 90.7237 163.196C90.9397 163.252 91.2397 163.316 91.6237 163.388C92.1357 163.476 92.5477 163.572 92.8597 163.676C93.1797 163.772 93.4517 163.94 93.6757 164.18C93.8997 164.42 94.0117 164.756 94.0117 165.188C94.0117 165.764 93.7637 166.224 93.2677 166.568C92.7797 166.904 92.1117 167.072 91.2637 167.072ZM99.0274 166.628C98.8594 166.772 98.6514 166.884 98.4034 166.964C98.1554 167.036 97.8994 167.072 97.6354 167.072C96.9954 167.072 96.4994 166.9 96.1474 166.556C95.7954 166.212 95.6194 165.72 95.6194 165.08V161.588H94.5394V160.64H95.6194V159.248H96.7714V160.64H98.5954V161.588H96.7714V165.032C96.7714 165.376 96.8554 165.64 97.0234 165.824C97.1994 166.008 97.4474 166.1 97.7674 166.1C98.1194 166.1 98.4194 166 98.6674 165.8L99.0274 166.628ZM102.736 160.58C103.616 160.58 104.288 160.796 104.752 161.228C105.224 161.66 105.46 162.304 105.46 163.16V167H104.368V166.16C104.176 166.456 103.9 166.684 103.54 166.844C103.188 166.996 102.768 167.072 102.28 167.072C101.568 167.072 100.996 166.9 100.564 166.556C100.14 166.212 99.9281 165.76 99.9281 165.2C99.9281 164.64 100.132 164.192 100.54 163.856C100.948 163.512 101.596 163.34 102.484 163.34H104.308V163.112C104.308 162.616 104.164 162.236 103.876 161.972C103.588 161.708 103.164 161.576 102.604 161.576C102.228 161.576 101.86 161.64 101.5 161.768C101.14 161.888 100.836 162.052 100.588 162.26L100.108 161.396C100.436 161.132 100.828 160.932 101.284 160.796C101.74 160.652 102.224 160.58 102.736 160.58ZM102.472 166.184C102.912 166.184 103.292 166.088 103.612 165.896C103.932 165.696 104.164 165.416 104.308 165.056V164.168H102.532C101.556 164.168 101.068 164.496 101.068 165.152C101.068 165.472 101.192 165.724 101.44 165.908C101.688 166.092 102.032 166.184 102.472 166.184ZM113.627 158.096V167H112.523V165.992C112.267 166.344 111.943 166.612 111.551 166.796C111.159 166.98 110.727 167.072 110.255 167.072C109.639 167.072 109.087 166.936 108.599 166.664C108.111 166.392 107.727 166.012 107.447 165.524C107.175 165.028 107.039 164.46 107.039 163.82C107.039 163.18 107.175 162.616 107.447 162.128C107.727 161.64 108.111 161.26 108.599 160.988C109.087 160.716 109.639 160.58 110.255 160.58C110.711 160.58 111.131 160.668 111.515 160.844C111.899 161.012 112.219 161.264 112.475 161.6V158.096H113.627ZM110.351 166.064C110.751 166.064 111.115 165.972 111.443 165.788C111.771 165.596 112.027 165.332 112.211 164.996C112.395 164.652 112.487 164.26 112.487 163.82C112.487 163.38 112.395 162.992 112.211 162.656C112.027 162.312 111.771 162.048 111.443 161.864C111.115 161.68 110.751 161.588 110.351 161.588C109.943 161.588 109.575 161.68 109.247 161.864C108.927 162.048 108.671 162.312 108.479 162.656C108.295 162.992 108.203 163.38 108.203 163.82C108.203 164.26 108.295 164.652 108.479 164.996C108.671 165.332 108.927 165.596 109.247 165.788C109.575 165.972 109.943 166.064 110.351 166.064ZM118.531 167.072C117.899 167.072 117.331 166.932 116.827 166.652C116.323 166.372 115.927 165.988 115.639 165.5C115.359 165.004 115.219 164.444 115.219 163.82C115.219 163.196 115.359 162.64 115.639 162.152C115.927 161.656 116.323 161.272 116.827 161C117.331 160.72 117.899 160.58 118.531 160.58C119.163 160.58 119.727 160.72 120.223 161C120.727 161.272 121.119 161.656 121.399 162.152C121.687 162.64 121.831 163.196 121.831 163.82C121.831 164.444 121.687 165.004 121.399 165.5C121.119 165.988 120.727 166.372 120.223 166.652C119.727 166.932 119.163 167.072 118.531 167.072ZM118.531 166.064C118.939 166.064 119.303 165.972 119.623 165.788C119.951 165.596 120.207 165.332 120.391 164.996C120.575 164.652 120.667 164.26 120.667 163.82C120.667 163.38 120.575 162.992 120.391 162.656C120.207 162.312 119.951 162.048 119.623 161.864C119.303 161.68 118.939 161.588 118.531 161.588C118.123 161.588 117.755 161.68 117.427 161.864C117.107 162.048 116.851 162.312 116.659 162.656C116.475 162.992 116.383 163.38 116.383 163.82C116.383 164.26 116.475 164.652 116.659 164.996C116.851 165.332 117.107 165.596 117.427 165.788C117.755 165.972 118.123 166.064 118.531 166.064ZM125.248 167.072C124.728 167.072 124.228 167.004 123.748 166.868C123.268 166.724 122.892 166.544 122.62 166.328L123.1 165.416C123.38 165.616 123.72 165.776 124.12 165.896C124.52 166.016 124.924 166.076 125.332 166.076C126.34 166.076 126.844 165.788 126.844 165.212C126.844 165.02 126.776 164.868 126.64 164.756C126.504 164.644 126.332 164.564 126.124 164.516C125.924 164.46 125.636 164.4 125.26 164.336C124.748 164.256 124.328 164.164 124 164.06C123.68 163.956 123.404 163.78 123.172 163.532C122.94 163.284 122.824 162.936 122.824 162.488C122.824 161.912 123.064 161.452 123.544 161.108C124.024 160.756 124.668 160.58 125.476 160.58C125.9 160.58 126.324 160.632 126.748 160.736C127.172 160.84 127.52 160.98 127.792 161.156L127.3 162.068C126.78 161.732 126.168 161.564 125.464 161.564C124.976 161.564 124.604 161.644 124.348 161.804C124.092 161.964 123.964 162.176 123.964 162.44C123.964 162.648 124.036 162.812 124.18 162.932C124.324 163.052 124.5 163.14 124.708 163.196C124.924 163.252 125.224 163.316 125.608 163.388C126.12 163.476 126.532 163.572 126.844 163.676C127.164 163.772 127.436 163.94 127.66 164.18C127.884 164.42 127.996 164.756 127.996 165.188C127.996 165.764 127.748 166.224 127.252 166.568C126.764 166.904 126.096 167.072 125.248 167.072ZM129.712 167.072C129.488 167.072 129.296 166.996 129.136 166.844C128.976 166.684 128.896 166.484 128.896 166.244C128.896 166.012 128.976 165.82 129.136 165.668C129.296 165.508 129.488 165.428 129.712 165.428C129.936 165.428 130.124 165.504 130.276 165.656C130.428 165.808 130.504 166.004 130.504 166.244C130.504 166.484 130.424 166.684 130.264 166.844C130.112 166.996 129.928 167.072 129.712 167.072Z" fill="#008E86"/>
<path d="M29.5527 54.9998L73.881 55.1796L81.9407 76.8519L29.5527 54.9998Z" fill="#008E86" stroke="#00635D" stroke-width="2" stroke-linejoin="round"/>
<path d="M81.9409 33.5071L150.448 54.9996L81.9406 76.4921L73.8811 54.9996L81.9409 33.5071Z" fill="#008E86" stroke="#00635D" stroke-width="2" stroke-linejoin="round"/>
<path d="M29.5527 54.9998L81.9407 33.5073L102.09 44.9253L29.5527 54.9998Z" fill="#008E86" stroke="#00635D" stroke-width="2" stroke-linejoin="round"/>
<path d="M29.5527 54.9998C75.8959 48.9551 118.209 33.9992 98.7317 54.9998H29.5527Z" fill="#00D8CC" stroke="#00635D" stroke-width="2" stroke-linejoin="round"/>
<path d="M150.448 54.9998L29.5529 54.9998" stroke="#00635D" stroke-width="2"/>
<path d="M114.887 50.3338C114.496 50.7244 113.863 50.7243 113.473 50.3338L107.109 43.9695C106.718 43.579 106.718 42.9458 107.109 42.5553C107.499 42.1648 108.133 42.1648 108.523 42.5554L114.18 48.2125L119.837 42.5559C120.227 42.1654 120.861 42.1654 121.251 42.556C121.642 42.9465 121.642 43.5797 121.251 43.9702L114.887 50.3338ZM57.1259 36.5216C56.574 36.5413 56.1106 36.1099 56.0909 35.5579L55.7699 26.5637C55.7502 26.0117 56.1816 25.5483 56.7336 25.5286C57.2855 25.5089 57.7489 25.9404 57.7686 26.4923L58.0539 34.4872L66.0488 34.2019C66.6008 34.1822 67.0642 34.6137 67.0839 35.1656C67.1036 35.7175 66.6721 36.1809 66.1202 36.2006L57.1259 36.5216ZM113.18 49.6267C113.18 38.5208 103.968 30.3895 92.1919 27.4249C80.4435 24.4673 66.5801 26.7974 57.8221 36.2037L56.3584 34.8408C65.7354 24.7697 80.4174 22.3983 92.6802 25.4854C104.915 28.5655 115.18 37.2252 115.18 49.6268L113.18 49.6267Z" fill="black"/>
</g>
<defs>
<clipPath id="clip0_5698_200160">
<rect width="180" height="180" rx="20" fill="white"/>
</clipPath>
<clipPath id="clip1_5698_200160">
<path d="M0 30L-1.31134e-06 0L30 -1.31134e-06L30 10C30 21.0457 21.0457 30 10 30L0 30Z" fill="white"/>
</clipPath>
</defs>
</svg>
