<svg width="180" height="180" viewBox="0 0 180 180" fill="none" xmlns="http://www.w3.org/2000/svg">
<g clip-path="url(#clip0_5717_200115)">
<rect width="180" height="180" rx="20" fill="#F2F2F2"/>
<g clip-path="url(#clip1_5717_200115)">
<path d="M0 30L-1.31134e-06 0L30 -1.31134e-06L30 10C30 21.0457 21.0457 30 10 30L0 30Z" fill="#333333"/>
<path d="M19.4311 9.8V11.48L15.2711 21H12.4551L16.4711 11.912H12.7591V13.736H10.4551V9.8H19.4311Z" fill="#F2F2F2"/>
</g>
<path d="M30.5241 126.9H26.0601L25.1361 129H23.9001L27.7041 120.6H28.8921L32.7081 129H31.4481L30.5241 126.9ZM30.1041 125.94L28.2921 121.824L26.4801 125.94H30.1041ZM37.1652 122.58C37.7812 122.58 38.3332 122.716 38.8212 122.988C39.3092 123.26 39.6892 123.64 39.9612 124.128C40.2412 124.616 40.3812 125.18 40.3812 125.82C40.3812 126.46 40.2412 127.028 39.9612 127.524C39.6892 128.012 39.3092 128.392 38.8212 128.664C38.3332 128.936 37.7812 129.072 37.1652 129.072C36.6932 129.072 36.2612 128.98 35.8692 128.796C35.4772 128.612 35.1532 128.344 34.8972 127.992V129H33.7932V120.096H34.9452V123.6C35.2012 123.264 35.5212 123.012 35.9052 122.844C36.2892 122.668 36.7092 122.58 37.1652 122.58ZM37.0692 128.064C37.4772 128.064 37.8412 127.972 38.1612 127.788C38.4892 127.596 38.7452 127.332 38.9292 126.996C39.1212 126.652 39.2172 126.26 39.2172 125.82C39.2172 125.38 39.1212 124.992 38.9292 124.656C38.7452 124.312 38.4892 124.048 38.1612 123.864C37.8412 123.68 37.4772 123.588 37.0692 123.588C36.6692 123.588 36.3052 123.68 35.9772 123.864C35.6492 124.048 35.3932 124.312 35.2092 124.656C35.0252 124.992 34.9332 125.38 34.9332 125.82C34.9332 126.26 35.0252 126.652 35.2092 126.996C35.3932 127.332 35.6492 127.596 35.9772 127.788C36.3052 127.972 36.6692 128.064 37.0692 128.064ZM43.0769 123.708C43.2769 123.34 43.5729 123.06 43.9649 122.868C44.3569 122.676 44.8329 122.58 45.3929 122.58V123.696C45.3289 123.688 45.2409 123.684 45.1289 123.684C44.5049 123.684 44.0129 123.872 43.6529 124.248C43.3009 124.616 43.1249 125.144 43.1249 125.832V129H41.9729V122.64H43.0769V123.708ZM52.5021 125.856C52.5021 125.944 52.4941 126.06 52.4781 126.204H47.3181C47.3901 126.764 47.6341 127.216 48.0501 127.56C48.4741 127.896 48.9981 128.064 49.6221 128.064C50.3821 128.064 50.9941 127.808 51.4581 127.296L52.0941 128.04C51.8061 128.376 51.4461 128.632 51.0141 128.808C50.5901 128.984 50.1141 129.072 49.5861 129.072C48.9141 129.072 48.3181 128.936 47.7981 128.664C47.2781 128.384 46.8741 127.996 46.5861 127.5C46.3061 127.004 46.1661 126.444 46.1661 125.82C46.1661 125.204 46.3021 124.648 46.5741 124.152C46.8541 123.656 47.2341 123.272 47.7141 123C48.2021 122.72 48.7501 122.58 49.3581 122.58C49.9661 122.58 50.5061 122.72 50.9781 123C51.4581 123.272 51.8301 123.656 52.0941 124.152C52.3661 124.648 52.5021 125.216 52.5021 125.856ZM49.3581 123.552C48.8061 123.552 48.3421 123.72 47.9661 124.056C47.5981 124.392 47.3821 124.832 47.3181 125.376H51.3981C51.3341 124.84 51.1141 124.404 50.7381 124.068C50.3701 123.724 49.9101 123.552 49.3581 123.552ZM57.3244 120.096H58.4764V129H57.3244V120.096ZM62.992 122.58C63.872 122.58 64.544 122.796 65.008 123.228C65.48 123.66 65.716 124.304 65.716 125.16V129H64.624V128.16C64.432 128.456 64.156 128.684 63.796 128.844C63.444 128.996 63.024 129.072 62.536 129.072C61.824 129.072 61.252 128.9 60.82 128.556C60.396 128.212 60.184 127.76 60.184 127.2C60.184 126.64 60.388 126.192 60.796 125.856C61.204 125.512 61.852 125.34 62.74 125.34H64.564V125.112C64.564 124.616 64.42 124.236 64.132 123.972C63.844 123.708 63.42 123.576 62.86 123.576C62.484 123.576 62.116 123.64 61.756 123.768C61.396 123.888 61.092 124.052 60.844 124.26L60.364 123.396C60.692 123.132 61.084 122.932 61.54 122.796C61.996 122.652 62.48 122.58 62.992 122.58ZM62.728 128.184C63.168 128.184 63.548 128.088 63.868 127.896C64.188 127.696 64.42 127.416 64.564 127.056V126.168H62.788C61.812 126.168 61.324 126.496 61.324 127.152C61.324 127.472 61.448 127.724 61.696 127.908C61.944 128.092 62.288 128.184 62.728 128.184ZM74.4425 122.58C75.0585 122.58 75.6105 122.716 76.0985 122.988C76.5865 123.26 76.9665 123.64 77.2385 124.128C77.5185 124.616 77.6585 125.18 77.6585 125.82C77.6585 126.46 77.5185 127.028 77.2385 127.524C76.9665 128.012 76.5865 128.392 76.0985 128.664C75.6105 128.936 75.0585 129.072 74.4425 129.072C73.9865 129.072 73.5665 128.984 73.1825 128.808C72.8065 128.632 72.4865 128.376 72.2225 128.04V131.328H71.0705V122.64H72.1745V123.648C72.4305 123.296 72.7545 123.032 73.1465 122.856C73.5385 122.672 73.9705 122.58 74.4425 122.58ZM74.3465 128.064C74.7545 128.064 75.1185 127.972 75.4385 127.788C75.7665 127.596 76.0225 127.332 76.2065 126.996C76.3985 126.652 76.4945 126.26 76.4945 125.82C76.4945 125.38 76.3985 124.992 76.2065 124.656C76.0225 124.312 75.7665 124.048 75.4385 123.864C75.1185 123.68 74.7545 123.588 74.3465 123.588C73.9465 123.588 73.5825 123.684 73.2545 123.876C72.9345 124.06 72.6785 124.32 72.4865 124.656C72.3025 124.992 72.2105 125.38 72.2105 125.82C72.2105 126.26 72.3025 126.652 72.4865 126.996C72.6705 127.332 72.9265 127.596 73.2545 127.788C73.5825 127.972 73.9465 128.064 74.3465 128.064ZM81.5076 122.58C82.3876 122.58 83.0596 122.796 83.5236 123.228C83.9956 123.66 84.2316 124.304 84.2316 125.16V129H83.1396V128.16C82.9476 128.456 82.6716 128.684 82.3116 128.844C81.9596 128.996 81.5396 129.072 81.0516 129.072C80.3396 129.072 79.7676 128.9 79.3356 128.556C78.9116 128.212 78.6996 127.76 78.6996 127.2C78.6996 126.64 78.9036 126.192 79.3116 125.856C79.7196 125.512 80.3676 125.34 81.2556 125.34H83.0796V125.112C83.0796 124.616 82.9356 124.236 82.6476 123.972C82.3596 123.708 81.9356 123.576 81.3756 123.576C80.9996 123.576 80.6316 123.64 80.2716 123.768C79.9116 123.888 79.6076 124.052 79.3596 124.26L78.8796 123.396C79.2076 123.132 79.5996 122.932 80.0556 122.796C80.5116 122.652 80.9956 122.58 81.5076 122.58ZM81.2436 128.184C81.6836 128.184 82.0636 128.088 82.3836 127.896C82.7036 127.696 82.9356 127.416 83.0796 127.056V126.168H81.3036C80.3276 126.168 79.8396 126.496 79.8396 127.152C79.8396 127.472 79.9636 127.724 80.2116 127.908C80.4596 128.092 80.8036 128.184 81.2436 128.184ZM87.4675 123.708C87.6675 123.34 87.9635 123.06 88.3555 122.868C88.7475 122.676 89.2235 122.58 89.7835 122.58V123.696C89.7195 123.688 89.6315 123.684 89.5195 123.684C88.8955 123.684 88.4035 123.872 88.0435 124.248C87.6915 124.616 87.5155 125.144 87.5155 125.832V129H86.3635V122.64H87.4675V123.708ZM95.0371 128.628C94.8691 128.772 94.6611 128.884 94.4131 128.964C94.1651 129.036 93.9091 129.072 93.6451 129.072C93.0051 129.072 92.5091 128.9 92.1571 128.556C91.8051 128.212 91.6291 127.72 91.6291 127.08V123.588H90.5491V122.64H91.6291V121.248H92.7811V122.64H94.6051V123.588H92.7811V127.032C92.7811 127.376 92.8651 127.64 93.0331 127.824C93.2091 128.008 93.4571 128.1 93.7771 128.1C94.1291 128.1 94.4291 128 94.6771 127.8L95.0371 128.628ZM101.967 125.856C101.967 125.944 101.959 126.06 101.943 126.204H96.783C96.855 126.764 97.099 127.216 97.515 127.56C97.939 127.896 98.463 128.064 99.087 128.064C99.847 128.064 100.459 127.808 100.923 127.296L101.559 128.04C101.271 128.376 100.911 128.632 100.479 128.808C100.055 128.984 99.579 129.072 99.051 129.072C98.379 129.072 97.783 128.936 97.263 128.664C96.743 128.384 96.339 127.996 96.051 127.5C95.771 127.004 95.631 126.444 95.631 125.82C95.631 125.204 95.767 124.648 96.039 124.152C96.319 123.656 96.699 123.272 97.179 123C97.667 122.72 98.215 122.58 98.823 122.58C99.431 122.58 99.971 122.72 100.443 123C100.923 123.272 101.295 123.656 101.559 124.152C101.831 124.648 101.967 125.216 101.967 125.856ZM98.823 123.552C98.271 123.552 97.807 123.72 97.431 124.056C97.063 124.392 96.847 124.832 96.783 125.376H100.863C100.799 124.84 100.579 124.404 100.203 124.068C99.835 123.724 99.375 123.552 98.823 123.552ZM108.613 129.072C108.093 129.072 107.593 129.004 107.113 128.868C106.633 128.724 106.257 128.544 105.985 128.328L106.465 127.416C106.745 127.616 107.085 127.776 107.485 127.896C107.885 128.016 108.289 128.076 108.697 128.076C109.705 128.076 110.209 127.788 110.209 127.212C110.209 127.02 110.141 126.868 110.005 126.756C109.869 126.644 109.697 126.564 109.489 126.516C109.289 126.46 109.001 126.4 108.625 126.336C108.113 126.256 107.693 126.164 107.365 126.06C107.045 125.956 106.769 125.78 106.537 125.532C106.305 125.284 106.189 124.936 106.189 124.488C106.189 123.912 106.429 123.452 106.909 123.108C107.389 122.756 108.033 122.58 108.841 122.58C109.265 122.58 109.689 122.632 110.113 122.736C110.537 122.84 110.885 122.98 111.157 123.156L110.665 124.068C110.145 123.732 109.533 123.564 108.829 123.564C108.341 123.564 107.969 123.644 107.713 123.804C107.457 123.964 107.329 124.176 107.329 124.44C107.329 124.648 107.401 124.812 107.545 124.932C107.689 125.052 107.865 125.14 108.073 125.196C108.289 125.252 108.589 125.316 108.973 125.388C109.485 125.476 109.897 125.572 110.209 125.676C110.529 125.772 110.801 125.94 111.025 126.18C111.249 126.42 111.361 126.756 111.361 127.188C111.361 127.764 111.113 128.224 110.617 128.568C110.129 128.904 109.461 129.072 108.613 129.072ZM118.729 122.64V129H117.637V128.04C117.405 128.368 117.097 128.624 116.713 128.808C116.337 128.984 115.925 129.072 115.477 129.072C114.629 129.072 113.961 128.84 113.473 128.376C112.985 127.904 112.741 127.212 112.741 126.3V122.64H113.893V126.168C113.893 126.784 114.041 127.252 114.337 127.572C114.633 127.884 115.057 128.04 115.609 128.04C116.217 128.04 116.697 127.856 117.049 127.488C117.401 127.12 117.577 126.6 117.577 125.928V122.64H118.729ZM124.294 122.58C124.91 122.58 125.462 122.716 125.95 122.988C126.438 123.26 126.818 123.64 127.09 124.128C127.37 124.616 127.51 125.18 127.51 125.82C127.51 126.46 127.37 127.028 127.09 127.524C126.818 128.012 126.438 128.392 125.95 128.664C125.462 128.936 124.91 129.072 124.294 129.072C123.838 129.072 123.418 128.984 123.034 128.808C122.658 128.632 122.338 128.376 122.074 128.04V131.328H120.922V122.64H122.026V123.648C122.282 123.296 122.606 123.032 122.998 122.856C123.39 122.672 123.822 122.58 124.294 122.58ZM124.198 128.064C124.606 128.064 124.97 127.972 125.29 127.788C125.618 127.596 125.874 127.332 126.058 126.996C126.25 126.652 126.346 126.26 126.346 125.82C126.346 125.38 126.25 124.992 126.058 124.656C125.874 124.312 125.618 124.048 125.29 123.864C124.97 123.68 124.606 123.588 124.198 123.588C123.798 123.588 123.434 123.684 123.106 123.876C122.786 124.06 122.53 124.32 122.338 124.656C122.154 124.992 122.062 125.38 122.062 125.82C122.062 126.26 122.154 126.652 122.338 126.996C122.522 127.332 122.778 127.596 123.106 127.788C123.434 127.972 123.798 128.064 124.198 128.064ZM134.85 125.856C134.85 125.944 134.842 126.06 134.826 126.204H129.666C129.738 126.764 129.982 127.216 130.398 127.56C130.822 127.896 131.346 128.064 131.97 128.064C132.73 128.064 133.342 127.808 133.806 127.296L134.442 128.04C134.154 128.376 133.794 128.632 133.362 128.808C132.938 128.984 132.462 129.072 131.934 129.072C131.262 129.072 130.666 128.936 130.146 128.664C129.626 128.384 129.222 127.996 128.934 127.5C128.654 127.004 128.514 126.444 128.514 125.82C128.514 125.204 128.65 124.648 128.922 124.152C129.202 123.656 129.582 123.272 130.062 123C130.55 122.72 131.098 122.58 131.706 122.58C132.314 122.58 132.854 122.72 133.326 123C133.806 123.272 134.178 123.656 134.442 124.152C134.714 124.648 134.85 125.216 134.85 125.856ZM131.706 123.552C131.154 123.552 130.69 123.72 130.314 124.056C129.946 124.392 129.73 124.832 129.666 125.376H133.746C133.682 124.84 133.462 124.404 133.086 124.068C132.718 123.724 132.258 123.552 131.706 123.552ZM137.553 123.708C137.753 123.34 138.049 123.06 138.441 122.868C138.833 122.676 139.309 122.58 139.869 122.58V123.696C139.805 123.688 139.717 123.684 139.605 123.684C138.981 123.684 138.489 123.872 138.129 124.248C137.777 124.616 137.601 125.144 137.601 125.832V129H136.449V122.64H137.553V123.708ZM141.289 122.64H142.441V129H141.289V122.64ZM141.865 121.416C141.641 121.416 141.453 121.344 141.301 121.2C141.157 121.056 141.085 120.88 141.085 120.672C141.085 120.464 141.157 120.288 141.301 120.144C141.453 119.992 141.641 119.916 141.865 119.916C142.089 119.916 142.273 119.988 142.417 120.132C142.569 120.268 142.645 120.44 142.645 120.648C142.645 120.864 142.569 121.048 142.417 121.2C142.273 121.344 142.089 121.416 141.865 121.416ZM147.365 129.072C146.733 129.072 146.165 128.932 145.661 128.652C145.157 128.372 144.761 127.988 144.473 127.5C144.193 127.004 144.053 126.444 144.053 125.82C144.053 125.196 144.193 124.64 144.473 124.152C144.761 123.656 145.157 123.272 145.661 123C146.165 122.72 146.733 122.58 147.365 122.58C147.997 122.58 148.561 122.72 149.057 123C149.561 123.272 149.953 123.656 150.233 124.152C150.521 124.64 150.665 125.196 150.665 125.82C150.665 126.444 150.521 127.004 150.233 127.5C149.953 127.988 149.561 128.372 149.057 128.652C148.561 128.932 147.997 129.072 147.365 129.072ZM147.365 128.064C147.773 128.064 148.137 127.972 148.457 127.788C148.785 127.596 149.041 127.332 149.225 126.996C149.409 126.652 149.501 126.26 149.501 125.82C149.501 125.38 149.409 124.992 149.225 124.656C149.041 124.312 148.785 124.048 148.457 123.864C148.137 123.68 147.773 123.588 147.365 123.588C146.957 123.588 146.589 123.68 146.261 123.864C145.941 124.048 145.685 124.312 145.493 124.656C145.309 124.992 145.217 125.38 145.217 125.82C145.217 126.26 145.309 126.652 145.493 126.996C145.685 127.332 145.941 127.596 146.261 127.788C146.589 127.972 146.957 128.064 147.365 128.064ZM153.362 123.708C153.562 123.34 153.858 123.06 154.25 122.868C154.642 122.676 155.118 122.58 155.678 122.58V123.696C155.614 123.688 155.526 123.684 155.414 123.684C154.79 123.684 154.298 123.872 153.938 124.248C153.586 124.616 153.41 125.144 153.41 125.832V129H152.258V122.64H153.362V123.708ZM42.6145 137.64L39.5305 144.636C39.2585 145.284 38.9385 145.74 38.5705 146.004C38.2105 146.268 37.7745 146.4 37.2625 146.4C36.9505 146.4 36.6465 146.348 36.3505 146.244C36.0625 146.148 35.8225 146.004 35.6305 145.812L36.1225 144.948C36.4505 145.26 36.8305 145.416 37.2625 145.416C37.5425 145.416 37.7745 145.34 37.9585 145.188C38.1505 145.044 38.3225 144.792 38.4745 144.432L38.6785 143.988L35.8705 137.64H37.0705L39.2905 142.728L41.4865 137.64H42.6145ZM52.9123 135.096V144H51.8083V142.992C51.5523 143.344 51.2283 143.612 50.8363 143.796C50.4443 143.98 50.0123 144.072 49.5403 144.072C48.9243 144.072 48.3723 143.936 47.8843 143.664C47.3963 143.392 47.0123 143.012 46.7323 142.524C46.4603 142.028 46.3243 141.46 46.3243 140.82C46.3243 140.18 46.4603 139.616 46.7323 139.128C47.0123 138.64 47.3963 138.26 47.8843 137.988C48.3723 137.716 48.9243 137.58 49.5403 137.58C49.9963 137.58 50.4163 137.668 50.8003 137.844C51.1843 138.012 51.5043 138.264 51.7603 138.6V135.096H52.9123ZM49.6363 143.064C50.0363 143.064 50.4003 142.972 50.7283 142.788C51.0563 142.596 51.3123 142.332 51.4963 141.996C51.6803 141.652 51.7723 141.26 51.7723 140.82C51.7723 140.38 51.6803 139.992 51.4963 139.656C51.3123 139.312 51.0563 139.048 50.7283 138.864C50.4003 138.68 50.0363 138.588 49.6363 138.588C49.2283 138.588 48.8603 138.68 48.5323 138.864C48.2123 139.048 47.9563 139.312 47.7643 139.656C47.5803 139.992 47.4883 140.38 47.4883 140.82C47.4883 141.26 47.5803 141.652 47.7643 141.996C47.9563 142.332 48.2123 142.596 48.5323 142.788C48.8603 142.972 49.2283 143.064 49.6363 143.064ZM57.816 144.072C57.184 144.072 56.616 143.932 56.112 143.652C55.608 143.372 55.212 142.988 54.924 142.5C54.644 142.004 54.504 141.444 54.504 140.82C54.504 140.196 54.644 139.64 54.924 139.152C55.212 138.656 55.608 138.272 56.112 138C56.616 137.72 57.184 137.58 57.816 137.58C58.448 137.58 59.012 137.72 59.508 138C60.012 138.272 60.404 138.656 60.684 139.152C60.972 139.64 61.116 140.196 61.116 140.82C61.116 141.444 60.972 142.004 60.684 142.5C60.404 142.988 60.012 143.372 59.508 143.652C59.012 143.932 58.448 144.072 57.816 144.072ZM57.816 143.064C58.224 143.064 58.588 142.972 58.908 142.788C59.236 142.596 59.492 142.332 59.676 141.996C59.86 141.652 59.952 141.26 59.952 140.82C59.952 140.38 59.86 139.992 59.676 139.656C59.492 139.312 59.236 139.048 58.908 138.864C58.588 138.68 58.224 138.588 57.816 138.588C57.408 138.588 57.04 138.68 56.712 138.864C56.392 139.048 56.136 139.312 55.944 139.656C55.76 139.992 55.668 140.38 55.668 140.82C55.668 141.26 55.76 141.652 55.944 141.996C56.136 142.332 56.392 142.596 56.712 142.788C57.04 142.972 57.408 143.064 57.816 143.064ZM66.0812 137.58C66.6972 137.58 67.2492 137.716 67.7372 137.988C68.2252 138.26 68.6052 138.64 68.8772 139.128C69.1572 139.616 69.2972 140.18 69.2972 140.82C69.2972 141.46 69.1572 142.028 68.8772 142.524C68.6052 143.012 68.2252 143.392 67.7372 143.664C67.2492 143.936 66.6972 144.072 66.0812 144.072C65.6092 144.072 65.1772 143.98 64.7852 143.796C64.3932 143.612 64.0692 143.344 63.8132 142.992V144H62.7092V135.096H63.8612V138.6C64.1172 138.264 64.4372 138.012 64.8212 137.844C65.2052 137.668 65.6252 137.58 66.0812 137.58ZM65.9852 143.064C66.3932 143.064 66.7572 142.972 67.0772 142.788C67.4052 142.596 67.6612 142.332 67.8452 141.996C68.0372 141.652 68.1332 141.26 68.1332 140.82C68.1332 140.38 68.0372 139.992 67.8452 139.656C67.6612 139.312 67.4052 139.048 67.0772 138.864C66.7572 138.68 66.3932 138.588 65.9852 138.588C65.5852 138.588 65.2212 138.68 64.8932 138.864C64.5652 139.048 64.3092 139.312 64.1252 139.656C63.9412 139.992 63.8492 140.38 63.8492 140.82C63.8492 141.26 63.9412 141.652 64.1252 141.996C64.3092 142.332 64.5652 142.596 64.8932 142.788C65.2212 142.972 65.5852 143.064 65.9852 143.064ZM70.8889 135.096H72.0409V144H70.8889V135.096ZM76.5564 137.58C77.4364 137.58 78.1084 137.796 78.5724 138.228C79.0444 138.66 79.2804 139.304 79.2804 140.16V144H78.1884V143.16C77.9964 143.456 77.7204 143.684 77.3604 143.844C77.0084 143.996 76.5884 144.072 76.1004 144.072C75.3884 144.072 74.8164 143.9 74.3844 143.556C73.9604 143.212 73.7484 142.76 73.7484 142.2C73.7484 141.64 73.9524 141.192 74.3604 140.856C74.7684 140.512 75.4164 140.34 76.3044 140.34H78.1284V140.112C78.1284 139.616 77.9844 139.236 77.6964 138.972C77.4084 138.708 76.9844 138.576 76.4244 138.576C76.0484 138.576 75.6804 138.64 75.3204 138.768C74.9604 138.888 74.6564 139.052 74.4084 139.26L73.9284 138.396C74.2564 138.132 74.6484 137.932 75.1044 137.796C75.5604 137.652 76.0444 137.58 76.5564 137.58ZM76.2924 143.184C76.7324 143.184 77.1124 143.088 77.4324 142.896C77.7524 142.696 77.9844 142.416 78.1284 142.056V141.168H76.3524C75.3764 141.168 74.8884 141.496 74.8884 142.152C74.8884 142.472 75.0124 142.724 75.2604 142.908C75.5084 143.092 75.8524 143.184 76.2924 143.184ZM81.4123 135.096H82.5643V144H81.4123V135.096ZM87.0799 137.58C87.9599 137.58 88.6319 137.796 89.0959 138.228C89.5679 138.66 89.8039 139.304 89.8039 140.16V144H88.7119V143.16C88.5199 143.456 88.2439 143.684 87.8839 143.844C87.5319 143.996 87.1119 144.072 86.6239 144.072C85.9119 144.072 85.3399 143.9 84.9079 143.556C84.4839 143.212 84.2719 142.76 84.2719 142.2C84.2719 141.64 84.4759 141.192 84.8839 140.856C85.2919 140.512 85.9399 140.34 86.8279 140.34H88.6519V140.112C88.6519 139.616 88.5079 139.236 88.2199 138.972C87.9319 138.708 87.5079 138.576 86.9479 138.576C86.5719 138.576 86.2039 138.64 85.8439 138.768C85.4839 138.888 85.1799 139.052 84.9319 139.26L84.4519 138.396C84.7799 138.132 85.1719 137.932 85.6279 137.796C86.0839 137.652 86.5679 137.58 87.0799 137.58ZM86.8159 143.184C87.2559 143.184 87.6359 143.088 87.9559 142.896C88.2759 142.696 88.5079 142.416 88.6519 142.056V141.168H86.8759C85.8999 141.168 85.4119 141.496 85.4119 142.152C85.4119 142.472 85.5359 142.724 85.7839 142.908C86.0319 143.092 86.3759 143.184 86.8159 143.184ZM97.9304 144.072C97.2824 144.072 96.7024 143.932 96.1904 143.652C95.6864 143.372 95.2904 142.988 95.0024 142.5C94.7144 142.004 94.5704 141.444 94.5704 140.82C94.5704 140.196 94.7144 139.64 95.0024 139.152C95.2904 138.656 95.6864 138.272 96.1904 138C96.7024 137.72 97.2824 137.58 97.9304 137.58C98.5064 137.58 99.0184 137.696 99.4664 137.928C99.9224 138.16 100.274 138.496 100.522 138.936L99.6464 139.5C99.4464 139.196 99.1984 138.968 98.9024 138.816C98.6064 138.664 98.2784 138.588 97.9184 138.588C97.5024 138.588 97.1264 138.68 96.7904 138.864C96.4624 139.048 96.2024 139.312 96.0104 139.656C95.8264 139.992 95.7344 140.38 95.7344 140.82C95.7344 141.268 95.8264 141.664 96.0104 142.008C96.2024 142.344 96.4624 142.604 96.7904 142.788C97.1264 142.972 97.5024 143.064 97.9184 143.064C98.2784 143.064 98.6064 142.988 98.9024 142.836C99.1984 142.684 99.4464 142.456 99.6464 142.152L100.522 142.704C100.274 143.144 99.9224 143.484 99.4664 143.724C99.0184 143.956 98.5064 144.072 97.9304 144.072ZM104.644 144.072C104.012 144.072 103.444 143.932 102.94 143.652C102.436 143.372 102.04 142.988 101.752 142.5C101.472 142.004 101.332 141.444 101.332 140.82C101.332 140.196 101.472 139.64 101.752 139.152C102.04 138.656 102.436 138.272 102.94 138C103.444 137.72 104.012 137.58 104.644 137.58C105.276 137.58 105.84 137.72 106.336 138C106.84 138.272 107.232 138.656 107.512 139.152C107.8 139.64 107.944 140.196 107.944 140.82C107.944 141.444 107.8 142.004 107.512 142.5C107.232 142.988 106.84 143.372 106.336 143.652C105.84 143.932 105.276 144.072 104.644 144.072ZM104.644 143.064C105.052 143.064 105.416 142.972 105.736 142.788C106.064 142.596 106.32 142.332 106.504 141.996C106.688 141.652 106.78 141.26 106.78 140.82C106.78 140.38 106.688 139.992 106.504 139.656C106.32 139.312 106.064 139.048 105.736 138.864C105.416 138.68 105.052 138.588 104.644 138.588C104.236 138.588 103.868 138.68 103.54 138.864C103.22 139.048 102.964 139.312 102.772 139.656C102.588 139.992 102.496 140.38 102.496 140.82C102.496 141.26 102.588 141.652 102.772 141.996C102.964 142.332 103.22 142.596 103.54 142.788C103.868 142.972 104.236 143.064 104.644 143.064ZM117.493 137.58C118.293 137.58 118.925 137.812 119.389 138.276C119.861 138.74 120.097 139.428 120.097 140.34V144H118.945V140.472C118.945 139.856 118.801 139.392 118.513 139.08C118.233 138.768 117.829 138.612 117.301 138.612C116.717 138.612 116.253 138.796 115.909 139.164C115.565 139.524 115.393 140.044 115.393 140.724V144H114.241V140.472C114.241 139.856 114.097 139.392 113.809 139.08C113.529 138.768 113.125 138.612 112.597 138.612C112.013 138.612 111.549 138.796 111.205 139.164C110.861 139.524 110.689 140.044 110.689 140.724V144H109.537V137.64H110.641V138.588C110.873 138.26 111.177 138.012 111.553 137.844C111.929 137.668 112.357 137.58 112.837 137.58C113.333 137.58 113.773 137.68 114.157 137.88C114.541 138.08 114.837 138.372 115.045 138.756C115.285 138.388 115.617 138.1 116.041 137.892C116.473 137.684 116.957 137.58 117.493 137.58ZM124.976 144.072C124.344 144.072 123.776 143.932 123.272 143.652C122.768 143.372 122.372 142.988 122.084 142.5C121.804 142.004 121.664 141.444 121.664 140.82C121.664 140.196 121.804 139.64 122.084 139.152C122.372 138.656 122.768 138.272 123.272 138C123.776 137.72 124.344 137.58 124.976 137.58C125.608 137.58 126.172 137.72 126.668 138C127.172 138.272 127.564 138.656 127.844 139.152C128.132 139.64 128.276 140.196 128.276 140.82C128.276 141.444 128.132 142.004 127.844 142.5C127.564 142.988 127.172 143.372 126.668 143.652C126.172 143.932 125.608 144.072 124.976 144.072ZM124.976 143.064C125.384 143.064 125.748 142.972 126.068 142.788C126.396 142.596 126.652 142.332 126.836 141.996C127.02 141.652 127.112 141.26 127.112 140.82C127.112 140.38 127.02 139.992 126.836 139.656C126.652 139.312 126.396 139.048 126.068 138.864C125.748 138.68 125.384 138.588 124.976 138.588C124.568 138.588 124.2 138.68 123.872 138.864C123.552 139.048 123.296 139.312 123.104 139.656C122.92 139.992 122.828 140.38 122.828 140.82C122.828 141.26 122.92 141.652 123.104 141.996C123.296 142.332 123.552 142.596 123.872 142.788C124.2 142.972 124.568 143.064 124.976 143.064ZM136.668 143.628C136.5 143.772 136.292 143.884 136.044 143.964C135.796 144.036 135.54 144.072 135.276 144.072C134.636 144.072 134.14 143.9 133.788 143.556C133.436 143.212 133.26 142.72 133.26 142.08V138.588H132.18V137.64H133.26V136.248H134.412V137.64H136.236V138.588H134.412V142.032C134.412 142.376 134.496 142.64 134.664 142.824C134.84 143.008 135.088 143.1 135.408 143.1C135.76 143.1 136.06 143 136.308 142.8L136.668 143.628ZM143.598 140.856C143.598 140.944 143.59 141.06 143.574 141.204H138.414C138.486 141.764 138.73 142.216 139.146 142.56C139.57 142.896 140.094 143.064 140.718 143.064C141.478 143.064 142.09 142.808 142.554 142.296L143.19 143.04C142.902 143.376 142.542 143.632 142.11 143.808C141.686 143.984 141.21 144.072 140.682 144.072C140.01 144.072 139.414 143.936 138.894 143.664C138.374 143.384 137.97 142.996 137.682 142.5C137.402 142.004 137.262 141.444 137.262 140.82C137.262 140.204 137.398 139.648 137.67 139.152C137.95 138.656 138.33 138.272 138.81 138C139.298 137.72 139.846 137.58 140.454 137.58C141.062 137.58 141.602 137.72 142.074 138C142.554 138.272 142.926 138.656 143.19 139.152C143.462 139.648 143.598 140.216 143.598 140.856ZM140.454 138.552C139.902 138.552 139.438 138.72 139.062 139.056C138.694 139.392 138.478 139.832 138.414 140.376H142.494C142.43 139.84 142.21 139.404 141.834 139.068C141.466 138.724 141.006 138.552 140.454 138.552ZM41.0705 152.64H42.2225V159H41.0705V152.64ZM41.6465 151.416C41.4225 151.416 41.2345 151.344 41.0825 151.2C40.9385 151.056 40.8665 150.88 40.8665 150.672C40.8665 150.464 40.9385 150.288 41.0825 150.144C41.2345 149.992 41.4225 149.916 41.6465 149.916C41.8705 149.916 42.0545 149.988 42.1985 150.132C42.3505 150.268 42.4265 150.44 42.4265 150.648C42.4265 150.864 42.3505 151.048 42.1985 151.2C42.0545 151.344 41.8705 151.416 41.6465 151.416ZM47.8181 152.58C48.6261 152.58 49.2661 152.816 49.7381 153.288C50.2181 153.752 50.4581 154.436 50.4581 155.34V159H49.3061V155.472C49.3061 154.856 49.1581 154.392 48.8621 154.08C48.5661 153.768 48.1421 153.612 47.5901 153.612C46.9661 153.612 46.4741 153.796 46.1141 154.164C45.7541 154.524 45.5741 155.044 45.5741 155.724V159H44.4221V152.64H45.5261V153.6C45.7581 153.272 46.0701 153.02 46.4621 152.844C46.8621 152.668 47.3141 152.58 47.8181 152.58ZM58.6252 150.096V159H57.5212V157.992C57.2652 158.344 56.9412 158.612 56.5492 158.796C56.1572 158.98 55.7252 159.072 55.2532 159.072C54.6372 159.072 54.0852 158.936 53.5972 158.664C53.1092 158.392 52.7252 158.012 52.4452 157.524C52.1732 157.028 52.0372 156.46 52.0372 155.82C52.0372 155.18 52.1732 154.616 52.4452 154.128C52.7252 153.64 53.1092 153.26 53.5972 152.988C54.0852 152.716 54.6372 152.58 55.2532 152.58C55.7092 152.58 56.1292 152.668 56.5132 152.844C56.8972 153.012 57.2172 153.264 57.4732 153.6V150.096H58.6252ZM55.3492 158.064C55.7492 158.064 56.1132 157.972 56.4412 157.788C56.7692 157.596 57.0252 157.332 57.2092 156.996C57.3932 156.652 57.4852 156.26 57.4852 155.82C57.4852 155.38 57.3932 154.992 57.2092 154.656C57.0252 154.312 56.7692 154.048 56.4412 153.864C56.1132 153.68 55.7492 153.588 55.3492 153.588C54.9412 153.588 54.5732 153.68 54.2452 153.864C53.9252 154.048 53.6692 154.312 53.4772 154.656C53.2932 154.992 53.2012 155.38 53.2012 155.82C53.2012 156.26 53.2932 156.652 53.4772 156.996C53.6692 157.332 53.9252 157.596 54.2452 157.788C54.5732 157.972 54.9412 158.064 55.3492 158.064ZM60.8049 152.64H61.9569V159H60.8049V152.64ZM61.3809 151.416C61.1569 151.416 60.9689 151.344 60.8169 151.2C60.6729 151.056 60.6009 150.88 60.6009 150.672C60.6009 150.464 60.6729 150.288 60.8169 150.144C60.9689 149.992 61.1569 149.916 61.3809 149.916C61.6049 149.916 61.7889 149.988 61.9329 150.132C62.0849 150.268 62.1609 150.44 62.1609 150.648C62.1609 150.864 62.0849 151.048 61.9329 151.2C61.7889 151.344 61.6049 151.416 61.3809 151.416ZM66.9285 159.072C66.2805 159.072 65.7005 158.932 65.1885 158.652C64.6845 158.372 64.2885 157.988 64.0005 157.5C63.7125 157.004 63.5685 156.444 63.5685 155.82C63.5685 155.196 63.7125 154.64 64.0005 154.152C64.2885 153.656 64.6845 153.272 65.1885 153C65.7005 152.72 66.2805 152.58 66.9285 152.58C67.5045 152.58 68.0165 152.696 68.4645 152.928C68.9205 153.16 69.2725 153.496 69.5205 153.936L68.6445 154.5C68.4445 154.196 68.1965 153.968 67.9005 153.816C67.6045 153.664 67.2765 153.588 66.9165 153.588C66.5005 153.588 66.1245 153.68 65.7885 153.864C65.4605 154.048 65.2005 154.312 65.0085 154.656C64.8245 154.992 64.7325 155.38 64.7325 155.82C64.7325 156.268 64.8245 156.664 65.0085 157.008C65.2005 157.344 65.4605 157.604 65.7885 157.788C66.1245 157.972 66.5005 158.064 66.9165 158.064C67.2765 158.064 67.6045 157.988 67.9005 157.836C68.1965 157.684 68.4445 157.456 68.6445 157.152L69.5205 157.704C69.2725 158.144 68.9205 158.484 68.4645 158.724C68.0165 158.956 67.5045 159.072 66.9285 159.072ZM73.3279 152.58C74.2079 152.58 74.8799 152.796 75.3439 153.228C75.8159 153.66 76.0519 154.304 76.0519 155.16V159H74.9599V158.16C74.7679 158.456 74.4919 158.684 74.1319 158.844C73.7799 158.996 73.3599 159.072 72.8719 159.072C72.1599 159.072 71.5879 158.9 71.1559 158.556C70.7319 158.212 70.5199 157.76 70.5199 157.2C70.5199 156.64 70.7239 156.192 71.1319 155.856C71.5399 155.512 72.1879 155.34 73.0759 155.34H74.8999V155.112C74.8999 154.616 74.7559 154.236 74.4679 153.972C74.1799 153.708 73.7559 153.576 73.1959 153.576C72.8199 153.576 72.4519 153.64 72.0919 153.768C71.7319 153.888 71.4279 154.052 71.1799 154.26L70.6999 153.396C71.0279 153.132 71.4199 152.932 71.8759 152.796C72.3319 152.652 72.8159 152.58 73.3279 152.58ZM73.0639 158.184C73.5039 158.184 73.8839 158.088 74.2039 157.896C74.5239 157.696 74.7559 157.416 74.8999 157.056V156.168H73.1239C72.1479 156.168 71.6599 156.496 71.6599 157.152C71.6599 157.472 71.7839 157.724 72.0319 157.908C72.2799 158.092 72.6239 158.184 73.0639 158.184ZM87.1545 155.856C87.1545 155.944 87.1465 156.06 87.1305 156.204H81.9705C82.0425 156.764 82.2865 157.216 82.7025 157.56C83.1265 157.896 83.6505 158.064 84.2745 158.064C85.0345 158.064 85.6465 157.808 86.1105 157.296L86.7465 158.04C86.4585 158.376 86.0985 158.632 85.6665 158.808C85.2425 158.984 84.7665 159.072 84.2385 159.072C83.5665 159.072 82.9705 158.936 82.4505 158.664C81.9305 158.384 81.5265 157.996 81.2385 157.5C80.9585 157.004 80.8185 156.444 80.8185 155.82C80.8185 155.204 80.9545 154.648 81.2265 154.152C81.5065 153.656 81.8865 153.272 82.3665 153C82.8545 152.72 83.4025 152.58 84.0105 152.58C84.6185 152.58 85.1585 152.72 85.6305 153C86.1105 153.272 86.4825 153.656 86.7465 154.152C87.0185 154.648 87.1545 155.216 87.1545 155.856ZM84.0105 153.552C83.4585 153.552 82.9945 153.72 82.6185 154.056C82.2505 154.392 82.0345 154.832 81.9705 155.376H86.0505C85.9865 154.84 85.7665 154.404 85.3905 154.068C85.0225 153.724 84.5625 153.552 84.0105 153.552ZM88.7541 150.096H89.9061V159H88.7541V150.096ZM101.412 152.64V158.136C101.412 159.248 101.136 160.068 100.584 160.596C100.032 161.132 99.2083 161.4 98.1123 161.4C97.5123 161.4 96.9403 161.316 96.3963 161.148C95.8523 160.988 95.4123 160.756 95.0763 160.452L95.6283 159.564C95.9243 159.82 96.2883 160.02 96.7203 160.164C97.1603 160.316 97.6123 160.392 98.0763 160.392C98.8203 160.392 99.3683 160.216 99.7203 159.864C100.08 159.512 100.26 158.976 100.26 158.256V157.752C99.9883 158.08 99.6523 158.328 99.2523 158.496C98.8603 158.656 98.4323 158.736 97.9683 158.736C97.3603 158.736 96.8083 158.608 96.3123 158.352C95.8243 158.088 95.4403 157.724 95.1603 157.26C94.8803 156.788 94.7403 156.252 94.7403 155.652C94.7403 155.052 94.8803 154.52 95.1603 154.056C95.4403 153.584 95.8243 153.22 96.3123 152.964C96.8083 152.708 97.3603 152.58 97.9683 152.58C98.4483 152.58 98.8923 152.668 99.3003 152.844C99.7163 153.02 100.056 153.28 100.32 153.624V152.64H101.412ZM98.1003 157.728C98.5163 157.728 98.8883 157.64 99.2163 157.464C99.5523 157.288 99.8123 157.044 99.9963 156.732C100.188 156.412 100.284 156.052 100.284 155.652C100.284 155.036 100.08 154.54 99.6723 154.164C99.2643 153.78 98.7403 153.588 98.1003 153.588C97.4523 153.588 96.9243 153.78 96.5163 154.164C96.1083 154.54 95.9043 155.036 95.9043 155.652C95.9043 156.052 95.9963 156.412 96.1803 156.732C96.3723 157.044 96.6323 157.288 96.9603 157.464C97.2963 157.64 97.6763 157.728 98.1003 157.728ZM104.717 153.708C104.917 153.34 105.213 153.06 105.605 152.868C105.997 152.676 106.473 152.58 107.033 152.58V153.696C106.969 153.688 106.881 153.684 106.769 153.684C106.145 153.684 105.653 153.872 105.293 154.248C104.941 154.616 104.765 155.144 104.765 155.832V159H103.613V152.64H104.717V153.708ZM110.758 152.58C111.638 152.58 112.31 152.796 112.774 153.228C113.246 153.66 113.482 154.304 113.482 155.16V159H112.39V158.16C112.198 158.456 111.922 158.684 111.562 158.844C111.21 158.996 110.79 159.072 110.302 159.072C109.59 159.072 109.018 158.9 108.586 158.556C108.162 158.212 107.95 157.76 107.95 157.2C107.95 156.64 108.154 156.192 108.562 155.856C108.97 155.512 109.618 155.34 110.506 155.34H112.33V155.112C112.33 154.616 112.186 154.236 111.898 153.972C111.61 153.708 111.186 153.576 110.626 153.576C110.25 153.576 109.882 153.64 109.522 153.768C109.162 153.888 108.858 154.052 108.61 154.26L108.13 153.396C108.458 153.132 108.85 152.932 109.306 152.796C109.762 152.652 110.246 152.58 110.758 152.58ZM110.494 158.184C110.934 158.184 111.314 158.088 111.634 157.896C111.954 157.696 112.186 157.416 112.33 157.056V156.168H110.554C109.578 156.168 109.09 156.496 109.09 157.152C109.09 157.472 109.214 157.724 109.462 157.908C109.71 158.092 110.054 158.184 110.494 158.184ZM111.574 150.156H113.038L111.022 151.716H109.942L111.574 150.156ZM117.941 150.972C117.253 150.972 116.909 151.344 116.909 152.088V152.64H118.757V153.588H116.933V159H115.781V153.588H114.701V152.64H115.781V152.076C115.781 151.444 115.965 150.944 116.333 150.576C116.701 150.208 117.217 150.024 117.881 150.024C118.137 150.024 118.377 150.056 118.601 150.12C118.825 150.184 119.017 150.276 119.177 150.396L118.829 151.272C118.565 151.072 118.269 150.972 117.941 150.972ZM120.809 152.64H121.961V159H120.809V152.64ZM121.385 151.416C121.161 151.416 120.973 151.344 120.821 151.2C120.677 151.056 120.605 150.88 120.605 150.672C120.605 150.464 120.677 150.288 120.821 150.144C120.973 149.992 121.161 149.916 121.385 149.916C121.609 149.916 121.793 149.988 121.937 150.132C122.089 150.268 122.165 150.44 122.165 150.648C122.165 150.864 122.089 151.048 121.937 151.2C121.793 151.344 121.609 151.416 121.385 151.416ZM126.928 159.072C126.28 159.072 125.7 158.932 125.188 158.652C124.684 158.372 124.288 157.988 124 157.5C123.712 157.004 123.568 156.444 123.568 155.82C123.568 155.196 123.712 154.64 124 154.152C124.288 153.656 124.684 153.272 125.188 153C125.7 152.72 126.28 152.58 126.928 152.58C127.504 152.58 128.016 152.696 128.464 152.928C128.92 153.16 129.272 153.496 129.52 153.936L128.644 154.5C128.444 154.196 128.196 153.968 127.9 153.816C127.604 153.664 127.276 153.588 126.916 153.588C126.5 153.588 126.124 153.68 125.788 153.864C125.46 154.048 125.2 154.312 125.008 154.656C124.824 154.992 124.732 155.38 124.732 155.82C124.732 156.268 124.824 156.664 125.008 157.008C125.2 157.344 125.46 157.604 125.788 157.788C126.124 157.972 126.5 158.064 126.916 158.064C127.276 158.064 127.604 157.988 127.9 157.836C128.196 157.684 128.444 157.456 128.644 157.152L129.52 157.704C129.272 158.144 128.92 158.484 128.464 158.724C128.016 158.956 127.504 159.072 126.928 159.072ZM133.642 159.072C133.01 159.072 132.442 158.932 131.938 158.652C131.434 158.372 131.038 157.988 130.75 157.5C130.47 157.004 130.33 156.444 130.33 155.82C130.33 155.196 130.47 154.64 130.75 154.152C131.038 153.656 131.434 153.272 131.938 153C132.442 152.72 133.01 152.58 133.642 152.58C134.274 152.58 134.838 152.72 135.334 153C135.838 153.272 136.23 153.656 136.51 154.152C136.798 154.64 136.942 155.196 136.942 155.82C136.942 156.444 136.798 157.004 136.51 157.5C136.23 157.988 135.838 158.372 135.334 158.652C134.838 158.932 134.274 159.072 133.642 159.072ZM133.642 158.064C134.05 158.064 134.414 157.972 134.734 157.788C135.062 157.596 135.318 157.332 135.502 156.996C135.686 156.652 135.778 156.26 135.778 155.82C135.778 155.38 135.686 154.992 135.502 154.656C135.318 154.312 135.062 154.048 134.734 153.864C134.414 153.68 134.05 153.588 133.642 153.588C133.234 153.588 132.866 153.68 132.538 153.864C132.218 154.048 131.962 154.312 131.77 154.656C131.586 154.992 131.494 155.38 131.494 155.82C131.494 156.26 131.586 156.652 131.77 156.996C131.962 157.332 132.218 157.596 132.538 157.788C132.866 157.972 133.234 158.064 133.642 158.064ZM138.671 159.072C138.447 159.072 138.255 158.996 138.095 158.844C137.935 158.684 137.855 158.484 137.855 158.244C137.855 158.012 137.935 157.82 138.095 157.668C138.255 157.508 138.447 157.428 138.671 157.428C138.895 157.428 139.083 157.504 139.235 157.656C139.387 157.808 139.463 158.004 139.463 158.244C139.463 158.484 139.383 158.684 139.223 158.844C139.071 158.996 138.887 159.072 138.671 159.072Z" fill="#008E86"/>
<path d="M72.7479 93.9975L85.7483 98.9975L72.748 98.9975L72.7479 93.9975Z" fill="#00D8CC" stroke="#00635D" stroke-width="2" stroke-linejoin="round"/>
<path d="M34.748 87L56.748 40L56.748 92.5L34.748 87Z" fill="#00D8CC" stroke="#00635D" stroke-width="2" stroke-linejoin="round"/>
<path d="M45.249 98.9975L34.7484 87.0002L50.2484 81.4975L60.2617 101L45.249 98.9975Z" fill="#008E86" stroke="#00635D" stroke-width="2" stroke-linejoin="round"/>
<g clip-path="url(#clip2_5717_200115)">
<path d="M82.25 97L109 57.5L117.25 25.5L129.75 74V99L82.25 97Z" fill="#008E86" stroke="#00635D" stroke-width="1.60526" stroke-linejoin="round"/>
<path d="M82.25 97L102.5 67L129.5 74L129.75 99L82.25 97Z" fill="#00D8CC" stroke="#00635D" stroke-width="1.60526" stroke-linejoin="round"/>
<path d="M102.5 67.5L109 57.5L129.5 74L102.5 67.5Z" fill="#008E86" stroke="#00635D" stroke-width="1.60526" stroke-linejoin="round"/>
<path d="M102.5 67.5L115 59.5L129.5 74L102.5 67.5Z" fill="#008E86" stroke="#00635D" stroke-width="1.60526" stroke-linejoin="round"/>
<path d="M115 60L117.25 26L129.75 75L115 60Z" fill="#00D8CC" stroke="#00635D" stroke-width="1.60526" stroke-linejoin="round"/>
</g>
<rect x="86.6118" y="21.6118" width="58.7763" height="58.7763" rx="29.3882" stroke="#333333" stroke-width="1.22369"/>
<path d="M69.7819 48.3693C69.4336 47.9407 68.8038 47.8756 68.3752 48.2239C67.9466 48.5722 67.8815 49.202 68.2298 49.6306L69.7819 48.3693ZM60.0503 79.2909C59.8878 79.8187 60.184 80.3784 60.7118 80.5409L69.3133 83.1894C69.8411 83.3519 70.4007 83.0558 70.5633 82.5279C70.7258 82.0001 70.4296 81.4405 69.9018 81.2779L62.2561 78.9237L64.6103 71.278C64.7728 70.7501 64.4767 70.1905 63.9488 70.028C63.421 69.8654 62.8614 70.1616 62.6988 70.6894L60.0503 79.2909ZM68.2298 49.6306C71.2291 53.3215 72.1102 59.1 70.7824 64.7831C69.4597 70.4448 65.9845 75.8194 60.5383 78.7013L61.4738 80.469C67.5274 77.2657 71.3026 71.3478 72.73 65.2381C74.1524 59.1499 73.2835 52.6784 69.7819 48.3693L68.2298 49.6306Z" fill="black"/>
<path d="M50.2481 81.4973L72.7481 90.4973L72.7481 98.9973L59.2481 98.9973L50.2481 81.4973Z" fill="#00D8CC" stroke="#00635D" stroke-width="2" stroke-linejoin="round"/>
<path d="M47.2617 59L56.2617 69L44 66.5" stroke="#333333" stroke-width="2" stroke-linejoin="bevel" stroke-dasharray="4 4"/>
</g>
<defs>
<clipPath id="clip0_5717_200115">
<rect width="180" height="180" rx="20" fill="white"/>
</clipPath>
<clipPath id="clip1_5717_200115">
<path d="M0 30L-1.31134e-06 0L30 -1.31134e-06L30 10C30 21.0457 21.0457 30 10 30L0 30Z" fill="white"/>
</clipPath>
<clipPath id="clip2_5717_200115">
<rect x="86" y="21" width="60" height="60" rx="30" fill="white"/>
</clipPath>
</defs>
</svg>
