<svg width="180" height="180" viewBox="0 0 180 180" fill="none" xmlns="http://www.w3.org/2000/svg">
<g clip-path="url(#clip0_5717_206353)">
<rect width="180" height="180" rx="20" fill="#F2F2F2"/>

<path d="M34.2131 113.6H37.7531C38.6411 113.6 39.4291 113.776 40.1171 114.128C40.8051 114.48 41.3371 114.976 41.7131 115.616C42.0971 116.248 42.2891 116.976 42.2891 117.8C42.2891 118.624 42.0971 119.356 41.7131 119.996C41.3371 120.628 40.8051 121.12 40.1171 121.472C39.4291 121.824 38.6411 122 37.7531 122H34.2131V113.6ZM37.6811 120.956C38.3611 120.956 38.9571 120.824 39.4691 120.56C39.9891 120.296 40.3891 119.928 40.6691 119.456C40.9491 118.976 41.0891 118.424 41.0891 117.8C41.0891 117.176 40.9491 116.628 40.6691 116.156C40.3891 115.676 39.9891 115.304 39.4691 115.04C38.9571 114.776 38.3611 114.644 37.6811 114.644H35.4131V120.956H37.6811ZM46.6832 122.072C46.0512 122.072 45.4832 121.932 44.9792 121.652C44.4752 121.372 44.0792 120.988 43.7912 120.5C43.5112 120.004 43.3712 119.444 43.3712 118.82C43.3712 118.196 43.5112 117.64 43.7912 117.152C44.0792 116.656 44.4752 116.272 44.9792 116C45.4832 115.72 46.0512 115.58 46.6832 115.58C47.3152 115.58 47.8792 115.72 48.3752 116C48.8792 116.272 49.2712 116.656 49.5512 117.152C49.8392 117.64 49.9832 118.196 49.9832 118.82C49.9832 119.444 49.8392 120.004 49.5512 120.5C49.2712 120.988 48.8792 121.372 48.3752 121.652C47.8792 121.932 47.3152 122.072 46.6832 122.072ZM46.6832 121.064C47.0912 121.064 47.4552 120.972 47.7752 120.788C48.1032 120.596 48.3592 120.332 48.5432 119.996C48.7272 119.652 48.8192 119.26 48.8192 118.82C48.8192 118.38 48.7272 117.992 48.5432 117.656C48.3592 117.312 48.1032 117.048 47.7752 116.864C47.4552 116.68 47.0912 116.588 46.6832 116.588C46.2752 116.588 45.9072 116.68 45.5792 116.864C45.2592 117.048 45.0032 117.312 44.8112 117.656C44.6272 117.992 44.5352 118.38 44.5352 118.82C44.5352 119.26 44.6272 119.652 44.8112 119.996C45.0032 120.332 45.2592 120.596 45.5792 120.788C45.9072 120.972 46.2752 121.064 46.6832 121.064ZM54.9484 115.58C55.5644 115.58 56.1164 115.716 56.6044 115.988C57.0924 116.26 57.4724 116.64 57.7444 117.128C58.0244 117.616 58.1644 118.18 58.1644 118.82C58.1644 119.46 58.0244 120.028 57.7444 120.524C57.4724 121.012 57.0924 121.392 56.6044 121.664C56.1164 121.936 55.5644 122.072 54.9484 122.072C54.4764 122.072 54.0444 121.98 53.6524 121.796C53.2604 121.612 52.9364 121.344 52.6804 120.992V122H51.5764V113.096H52.7284V116.6C52.9844 116.264 53.3044 116.012 53.6884 115.844C54.0724 115.668 54.4924 115.58 54.9484 115.58ZM54.8524 121.064C55.2604 121.064 55.6244 120.972 55.9444 120.788C56.2724 120.596 56.5284 120.332 56.7124 119.996C56.9044 119.652 57.0004 119.26 57.0004 118.82C57.0004 118.38 56.9044 117.992 56.7124 117.656C56.5284 117.312 56.2724 117.048 55.9444 116.864C55.6244 116.68 55.2604 116.588 54.8524 116.588C54.4524 116.588 54.0884 116.68 53.7604 116.864C53.4324 117.048 53.1764 117.312 52.9924 117.656C52.8084 117.992 52.7164 118.38 52.7164 118.82C52.7164 119.26 52.8084 119.652 52.9924 119.996C53.1764 120.332 53.4324 120.596 53.7604 120.788C54.0884 120.972 54.4524 121.064 54.8524 121.064ZM59.7561 113.096H60.9081V122H59.7561V113.096ZM65.4236 115.58C66.3036 115.58 66.9756 115.796 67.4396 116.228C67.9116 116.66 68.1476 117.304 68.1476 118.16V122H67.0556V121.16C66.8636 121.456 66.5876 121.684 66.2276 121.844C65.8756 121.996 65.4556 122.072 64.9676 122.072C64.2556 122.072 63.6836 121.9 63.2516 121.556C62.8276 121.212 62.6156 120.76 62.6156 120.2C62.6156 119.64 62.8196 119.192 63.2276 118.856C63.6356 118.512 64.2836 118.34 65.1716 118.34H66.9956V118.112C66.9956 117.616 66.8516 117.236 66.5636 116.972C66.2756 116.708 65.8516 116.576 65.2916 116.576C64.9156 116.576 64.5476 116.64 64.1876 116.768C63.8276 116.888 63.5236 117.052 63.2756 117.26L62.7956 116.396C63.1236 116.132 63.5156 115.932 63.9716 115.796C64.4276 115.652 64.9116 115.58 65.4236 115.58ZM65.1596 121.184C65.5996 121.184 65.9796 121.088 66.2996 120.896C66.6196 120.696 66.8516 120.416 66.9956 120.056V119.168H65.2196C64.2436 119.168 63.7556 119.496 63.7556 120.152C63.7556 120.472 63.8796 120.724 64.1276 120.908C64.3756 121.092 64.7196 121.184 65.1596 121.184ZM73.5022 113.096H74.6542V122H73.5022V113.096ZM79.1697 115.58C80.0497 115.58 80.7217 115.796 81.1857 116.228C81.6577 116.66 81.8937 117.304 81.8937 118.16V122H80.8017V121.16C80.6097 121.456 80.3337 121.684 79.9737 121.844C79.6217 121.996 79.2017 122.072 78.7137 122.072C78.0017 122.072 77.4297 121.9 76.9977 121.556C76.5737 121.212 76.3617 120.76 76.3617 120.2C76.3617 119.64 76.5657 119.192 76.9737 118.856C77.3817 118.512 78.0297 118.34 78.9177 118.34H80.7417V118.112C80.7417 117.616 80.5977 117.236 80.3097 116.972C80.0217 116.708 79.5977 116.576 79.0377 116.576C78.6617 116.576 78.2937 116.64 77.9337 116.768C77.5737 116.888 77.2697 117.052 77.0217 117.26L76.5417 116.396C76.8697 116.132 77.2617 115.932 77.7177 115.796C78.1737 115.652 78.6577 115.58 79.1697 115.58ZM78.9057 121.184C79.3457 121.184 79.7257 121.088 80.0457 120.896C80.3657 120.696 80.5977 120.416 80.7417 120.056V119.168H78.9657C77.9897 119.168 77.5017 119.496 77.5017 120.152C77.5017 120.472 77.6257 120.724 77.8737 120.908C78.1217 121.092 78.4657 121.184 78.9057 121.184ZM89.5763 113.972C88.8883 113.972 88.5443 114.344 88.5443 115.088V115.64H90.3923V116.588H88.5683V122H87.4163V116.588H86.3363V115.64H87.4163V115.076C87.4163 114.444 87.6003 113.944 87.9683 113.576C88.3363 113.208 88.8523 113.024 89.5163 113.024C89.7723 113.024 90.0123 113.056 90.2363 113.12C90.4603 113.184 90.6523 113.276 90.8123 113.396L90.4643 114.272C90.2003 114.072 89.9043 113.972 89.5763 113.972ZM92.4443 115.64H93.5963V122H92.4443V115.64ZM93.0203 114.416C92.7963 114.416 92.6083 114.344 92.4563 114.2C92.3123 114.056 92.2403 113.88 92.2403 113.672C92.2403 113.464 92.3123 113.288 92.4563 113.144C92.6083 112.992 92.7963 112.916 93.0203 112.916C93.2443 112.916 93.4283 112.988 93.5723 113.132C93.7243 113.268 93.8003 113.44 93.8003 113.648C93.8003 113.864 93.7243 114.048 93.5723 114.2C93.4283 114.344 93.2443 114.416 93.0203 114.416ZM101.875 115.64V121.136C101.875 122.248 101.599 123.068 101.047 123.596C100.495 124.132 99.6712 124.4 98.5752 124.4C97.9752 124.4 97.4032 124.316 96.8592 124.148C96.3152 123.988 95.8752 123.756 95.5392 123.452L96.0912 122.564C96.3872 122.82 96.7512 123.02 97.1832 123.164C97.6232 123.316 98.0752 123.392 98.5392 123.392C99.2832 123.392 99.8312 123.216 100.183 122.864C100.543 122.512 100.723 121.976 100.723 121.256V120.752C100.451 121.08 100.115 121.328 99.7152 121.496C99.3232 121.656 98.8952 121.736 98.4312 121.736C97.8232 121.736 97.2712 121.608 96.7752 121.352C96.2872 121.088 95.9032 120.724 95.6232 120.26C95.3432 119.788 95.2032 119.252 95.2032 118.652C95.2032 118.052 95.3432 117.52 95.6232 117.056C95.9032 116.584 96.2872 116.22 96.7752 115.964C97.2712 115.708 97.8232 115.58 98.4312 115.58C98.9112 115.58 99.3552 115.668 99.7632 115.844C100.179 116.02 100.519 116.28 100.783 116.624V115.64H101.875ZM98.5632 120.728C98.9792 120.728 99.3512 120.64 99.6792 120.464C100.015 120.288 100.275 120.044 100.459 119.732C100.651 119.412 100.747 119.052 100.747 118.652C100.747 118.036 100.543 117.54 100.135 117.164C99.7272 116.78 99.2032 116.588 98.5632 116.588C97.9152 116.588 97.3872 116.78 96.9792 117.164C96.5712 117.54 96.3672 118.036 96.3672 118.652C96.3672 119.052 96.4592 119.412 96.6432 119.732C96.8352 120.044 97.0952 120.288 97.4232 120.464C97.7592 120.64 98.1392 120.728 98.5632 120.728ZM110.004 115.64V122H108.912V121.04C108.68 121.368 108.372 121.624 107.988 121.808C107.612 121.984 107.2 122.072 106.752 122.072C105.904 122.072 105.236 121.84 104.748 121.376C104.26 120.904 104.016 120.212 104.016 119.3V115.64H105.168V119.168C105.168 119.784 105.316 120.252 105.612 120.572C105.908 120.884 106.332 121.04 106.884 121.04C107.492 121.04 107.972 120.856 108.324 120.488C108.676 120.12 108.852 119.6 108.852 118.928V115.64H110.004ZM113.301 116.708C113.501 116.34 113.797 116.06 114.189 115.868C114.581 115.676 115.057 115.58 115.617 115.58V116.696C115.553 116.688 115.465 116.684 115.353 116.684C114.729 116.684 114.237 116.872 113.877 117.248C113.525 117.616 113.349 118.144 113.349 118.832V122H112.197V115.64H113.301V116.708ZM119.342 115.58C120.222 115.58 120.894 115.796 121.358 116.228C121.83 116.66 122.066 117.304 122.066 118.16V122H120.974V121.16C120.782 121.456 120.506 121.684 120.146 121.844C119.794 121.996 119.374 122.072 118.886 122.072C118.174 122.072 117.602 121.9 117.17 121.556C116.746 121.212 116.534 120.76 116.534 120.2C116.534 119.64 116.738 119.192 117.146 118.856C117.554 118.512 118.202 118.34 119.09 118.34H120.914V118.112C120.914 117.616 120.77 117.236 120.482 116.972C120.194 116.708 119.77 116.576 119.21 116.576C118.834 116.576 118.466 116.64 118.106 116.768C117.746 116.888 117.442 117.052 117.194 117.26L116.714 116.396C117.042 116.132 117.434 115.932 117.89 115.796C118.346 115.652 118.83 115.58 119.342 115.58ZM119.078 121.184C119.518 121.184 119.898 121.088 120.218 120.896C120.538 120.696 120.77 120.416 120.914 120.056V119.168H119.138C118.162 119.168 117.674 119.496 117.674 120.152C117.674 120.472 117.798 120.724 118.046 120.908C118.294 121.092 118.638 121.184 119.078 121.184ZM130.792 115.58C131.408 115.58 131.96 115.716 132.448 115.988C132.936 116.26 133.316 116.64 133.588 117.128C133.868 117.616 134.008 118.18 134.008 118.82C134.008 119.46 133.868 120.028 133.588 120.524C133.316 121.012 132.936 121.392 132.448 121.664C131.96 121.936 131.408 122.072 130.792 122.072C130.336 122.072 129.916 121.984 129.532 121.808C129.156 121.632 128.836 121.376 128.572 121.04V124.328H127.42V115.64H128.524V116.648C128.78 116.296 129.104 116.032 129.496 115.856C129.888 115.672 130.32 115.58 130.792 115.58ZM130.696 121.064C131.104 121.064 131.468 120.972 131.788 120.788C132.116 120.596 132.372 120.332 132.556 119.996C132.748 119.652 132.844 119.26 132.844 118.82C132.844 118.38 132.748 117.992 132.556 117.656C132.372 117.312 132.116 117.048 131.788 116.864C131.468 116.68 131.104 116.588 130.696 116.588C130.296 116.588 129.932 116.684 129.604 116.876C129.284 117.06 129.028 117.32 128.836 117.656C128.652 117.992 128.56 118.38 128.56 118.82C128.56 119.26 128.652 119.652 128.836 119.996C129.02 120.332 129.276 120.596 129.604 120.788C129.932 120.972 130.296 121.064 130.696 121.064ZM138.324 122.072C137.692 122.072 137.124 121.932 136.62 121.652C136.116 121.372 135.72 120.988 135.432 120.5C135.152 120.004 135.012 119.444 135.012 118.82C135.012 118.196 135.152 117.64 135.432 117.152C135.72 116.656 136.116 116.272 136.62 116C137.124 115.72 137.692 115.58 138.324 115.58C138.956 115.58 139.52 115.72 140.016 116C140.52 116.272 140.912 116.656 141.192 117.152C141.48 117.64 141.624 118.196 141.624 118.82C141.624 119.444 141.48 120.004 141.192 120.5C140.912 120.988 140.52 121.372 140.016 121.652C139.52 121.932 138.956 122.072 138.324 122.072ZM138.324 121.064C138.732 121.064 139.096 120.972 139.416 120.788C139.744 120.596 140 120.332 140.184 119.996C140.368 119.652 140.46 119.26 140.46 118.82C140.46 118.38 140.368 117.992 140.184 117.656C140 117.312 139.744 117.048 139.416 116.864C139.096 116.68 138.732 116.588 138.324 116.588C137.916 116.588 137.548 116.68 137.22 116.864C136.9 117.048 136.644 117.312 136.452 117.656C136.268 117.992 136.176 118.38 136.176 118.82C136.176 119.26 136.268 119.652 136.452 119.996C136.644 120.332 136.9 120.596 137.22 120.788C137.548 120.972 137.916 121.064 138.324 121.064ZM144.321 116.708C144.521 116.34 144.817 116.06 145.209 115.868C145.601 115.676 146.077 115.58 146.637 115.58V116.696C146.573 116.688 146.485 116.684 146.373 116.684C145.749 116.684 145.257 116.872 144.897 117.248C144.545 117.616 144.369 118.144 144.369 118.832V122H143.217V115.64H144.321V116.708ZM39.3596 128.096H40.5116V137H39.3596V128.096ZM45.0271 130.58C45.9071 130.58 46.5791 130.796 47.0431 131.228C47.5151 131.66 47.7511 132.304 47.7511 133.16V137H46.6591V136.16C46.4671 136.456 46.1911 136.684 45.8311 136.844C45.4791 136.996 45.0591 137.072 44.5711 137.072C43.8591 137.072 43.2871 136.9 42.8551 136.556C42.4311 136.212 42.2191 135.76 42.2191 135.2C42.2191 134.64 42.4231 134.192 42.8311 133.856C43.2391 133.512 43.8871 133.34 44.7751 133.34H46.5991V133.112C46.5991 132.616 46.4551 132.236 46.1671 131.972C45.8791 131.708 45.4551 131.576 44.8951 131.576C44.5191 131.576 44.1511 131.64 43.7911 131.768C43.4311 131.888 43.1271 132.052 42.8791 132.26L42.3991 131.396C42.7271 131.132 43.1191 130.932 43.5751 130.796C44.0311 130.652 44.5151 130.58 45.0271 130.58ZM44.7631 136.184C45.2031 136.184 45.5831 136.088 45.9031 135.896C46.2231 135.696 46.4551 135.416 46.5991 135.056V134.168H44.8231C43.8471 134.168 43.3591 134.496 43.3591 135.152C43.3591 135.472 43.4831 135.724 43.7311 135.908C43.9791 136.092 44.3231 136.184 44.7631 136.184ZM61.0617 130.58C61.8617 130.58 62.4937 130.812 62.9577 131.276C63.4297 131.74 63.6657 132.428 63.6657 133.34V137H62.5137V133.472C62.5137 132.856 62.3697 132.392 62.0817 132.08C61.8017 131.768 61.3977 131.612 60.8697 131.612C60.2857 131.612 59.8217 131.796 59.4777 132.164C59.1337 132.524 58.9617 133.044 58.9617 133.724V137H57.8097V133.472C57.8097 132.856 57.6657 132.392 57.3777 132.08C57.0977 131.768 56.6937 131.612 56.1657 131.612C55.5817 131.612 55.1177 131.796 54.7737 132.164C54.4297 132.524 54.2577 133.044 54.2577 133.724V137H53.1057V130.64H54.2097V131.588C54.4417 131.26 54.7457 131.012 55.1217 130.844C55.4977 130.668 55.9257 130.58 56.4057 130.58C56.9017 130.58 57.3417 130.68 57.7257 130.88C58.1097 131.08 58.4057 131.372 58.6137 131.756C58.8537 131.388 59.1857 131.1 59.6097 130.892C60.0417 130.684 60.5257 130.58 61.0617 130.58ZM65.7854 130.64H66.9374V137H65.7854V130.64ZM66.3614 129.416C66.1374 129.416 65.9494 129.344 65.7974 129.2C65.6534 129.056 65.5814 128.88 65.5814 128.672C65.5814 128.464 65.6534 128.288 65.7974 128.144C65.9494 127.992 66.1374 127.916 66.3614 127.916C66.5854 127.916 66.7694 127.988 66.9134 128.132C67.0654 128.268 67.1414 128.44 67.1414 128.648C67.1414 128.864 67.0654 129.048 66.9134 129.2C66.7694 129.344 66.5854 129.416 66.3614 129.416ZM72.7129 136.628C72.5449 136.772 72.3369 136.884 72.0889 136.964C71.8409 137.036 71.5849 137.072 71.3209 137.072C70.6809 137.072 70.1849 136.9 69.8329 136.556C69.4809 136.212 69.3049 135.72 69.3049 135.08V131.588H68.2249V130.64H69.3049V129.248H70.4569V130.64H72.2809V131.588H70.4569V135.032C70.4569 135.376 70.5409 135.64 70.7089 135.824C70.8849 136.008 71.1329 136.1 71.4529 136.1C71.8049 136.1 72.1049 136 72.3529 135.8L72.7129 136.628ZM76.4217 130.58C77.3017 130.58 77.9737 130.796 78.4377 131.228C78.9097 131.66 79.1457 132.304 79.1457 133.16V137H78.0537V136.16C77.8617 136.456 77.5857 136.684 77.2257 136.844C76.8737 136.996 76.4537 137.072 75.9657 137.072C75.2537 137.072 74.6817 136.9 74.2497 136.556C73.8257 136.212 73.6137 135.76 73.6137 135.2C73.6137 134.64 73.8177 134.192 74.2257 133.856C74.6337 133.512 75.2817 133.34 76.1697 133.34H77.9937V133.112C77.9937 132.616 77.8497 132.236 77.5617 131.972C77.2737 131.708 76.8497 131.576 76.2897 131.576C75.9137 131.576 75.5457 131.64 75.1857 131.768C74.8257 131.888 74.5217 132.052 74.2737 132.26L73.7937 131.396C74.1217 131.132 74.5137 130.932 74.9697 130.796C75.4257 130.652 75.9097 130.58 76.4217 130.58ZM76.1577 136.184C76.5977 136.184 76.9777 136.088 77.2977 135.896C77.6177 135.696 77.8497 135.416 77.9937 135.056V134.168H76.2177C75.2417 134.168 74.7537 134.496 74.7537 135.152C74.7537 135.472 74.8777 135.724 75.1257 135.908C75.3737 136.092 75.7177 136.184 76.1577 136.184ZM87.3127 128.096V137H86.2087V135.992C85.9527 136.344 85.6287 136.612 85.2367 136.796C84.8447 136.98 84.4127 137.072 83.9407 137.072C83.3247 137.072 82.7727 136.936 82.2847 136.664C81.7967 136.392 81.4127 136.012 81.1327 135.524C80.8607 135.028 80.7247 134.46 80.7247 133.82C80.7247 133.18 80.8607 132.616 81.1327 132.128C81.4127 131.64 81.7967 131.26 82.2847 130.988C82.7727 130.716 83.3247 130.58 83.9407 130.58C84.3967 130.58 84.8167 130.668 85.2007 130.844C85.5847 131.012 85.9047 131.264 86.1607 131.6V128.096H87.3127ZM84.0367 136.064C84.4367 136.064 84.8007 135.972 85.1287 135.788C85.4567 135.596 85.7127 135.332 85.8967 134.996C86.0807 134.652 86.1727 134.26 86.1727 133.82C86.1727 133.38 86.0807 132.992 85.8967 132.656C85.7127 132.312 85.4567 132.048 85.1287 131.864C84.8007 131.68 84.4367 131.588 84.0367 131.588C83.6287 131.588 83.2607 131.68 82.9327 131.864C82.6127 132.048 82.3567 132.312 82.1647 132.656C81.9807 132.992 81.8887 133.38 81.8887 133.82C81.8887 134.26 81.9807 134.652 82.1647 134.996C82.3567 135.332 82.6127 135.596 82.9327 135.788C83.2607 135.972 83.6287 136.064 84.0367 136.064ZM98.715 128.096V137H97.611V135.992C97.355 136.344 97.031 136.612 96.639 136.796C96.247 136.98 95.815 137.072 95.343 137.072C94.727 137.072 94.175 136.936 93.687 136.664C93.199 136.392 92.815 136.012 92.535 135.524C92.263 135.028 92.127 134.46 92.127 133.82C92.127 133.18 92.263 132.616 92.535 132.128C92.815 131.64 93.199 131.26 93.687 130.988C94.175 130.716 94.727 130.58 95.343 130.58C95.799 130.58 96.219 130.668 96.603 130.844C96.987 131.012 97.307 131.264 97.563 131.6V128.096H98.715ZM95.439 136.064C95.839 136.064 96.203 135.972 96.531 135.788C96.859 135.596 97.115 135.332 97.299 134.996C97.483 134.652 97.575 134.26 97.575 133.82C97.575 133.38 97.483 132.992 97.299 132.656C97.115 132.312 96.859 132.048 96.531 131.864C96.203 131.68 95.839 131.588 95.439 131.588C95.031 131.588 94.663 131.68 94.335 131.864C94.015 132.048 93.759 132.312 93.567 132.656C93.383 132.992 93.291 133.38 93.291 133.82C93.291 134.26 93.383 134.652 93.567 134.996C93.759 135.332 94.015 135.596 94.335 135.788C94.663 135.972 95.031 136.064 95.439 136.064ZM106.643 133.856C106.643 133.944 106.635 134.06 106.619 134.204H101.459C101.531 134.764 101.775 135.216 102.191 135.56C102.615 135.896 103.139 136.064 103.763 136.064C104.523 136.064 105.135 135.808 105.599 135.296L106.235 136.04C105.947 136.376 105.587 136.632 105.155 136.808C104.731 136.984 104.255 137.072 103.727 137.072C103.055 137.072 102.459 136.936 101.939 136.664C101.419 136.384 101.015 135.996 100.727 135.5C100.447 135.004 100.307 134.444 100.307 133.82C100.307 133.204 100.443 132.648 100.715 132.152C100.995 131.656 101.375 131.272 101.855 131C102.343 130.72 102.891 130.58 103.499 130.58C104.107 130.58 104.647 130.72 105.119 131C105.599 131.272 105.971 131.656 106.235 132.152C106.507 132.648 106.643 133.216 106.643 133.856ZM103.499 131.552C102.947 131.552 102.483 131.72 102.107 132.056C101.739 132.392 101.523 132.832 101.459 133.376H105.539C105.475 132.84 105.255 132.404 104.879 132.068C104.511 131.724 104.051 131.552 103.499 131.552ZM107.426 139.4C107.146 139.4 106.886 139.368 106.646 139.304C106.406 139.24 106.206 139.144 106.046 139.016L106.418 138.128C106.658 138.328 106.97 138.428 107.354 138.428C107.658 138.428 107.89 138.332 108.05 138.14C108.218 137.956 108.302 137.68 108.302 137.312V130.64H109.454V137.288C109.454 137.944 109.278 138.46 108.926 138.836C108.574 139.212 108.074 139.4 107.426 139.4ZM108.878 129.416C108.654 129.416 108.466 129.344 108.314 129.2C108.17 129.056 108.098 128.88 108.098 128.672C108.098 128.464 108.17 128.288 108.314 128.144C108.466 127.992 108.654 127.916 108.878 127.916C109.102 127.916 109.286 127.988 109.43 128.132C109.582 128.268 109.658 128.44 109.658 128.648C109.658 128.864 109.582 129.048 109.43 129.2C109.286 129.344 109.102 129.416 108.878 129.416ZM113.969 130.58C114.849 130.58 115.521 130.796 115.985 131.228C116.457 131.66 116.693 132.304 116.693 133.16V137H115.601V136.16C115.409 136.456 115.133 136.684 114.773 136.844C114.421 136.996 114.001 137.072 113.513 137.072C112.801 137.072 112.229 136.9 111.797 136.556C111.373 136.212 111.161 135.76 111.161 135.2C111.161 134.64 111.365 134.192 111.773 133.856C112.181 133.512 112.829 133.34 113.717 133.34H115.541V133.112C115.541 132.616 115.397 132.236 115.109 131.972C114.821 131.708 114.397 131.576 113.837 131.576C113.461 131.576 113.093 131.64 112.733 131.768C112.373 131.888 112.069 132.052 111.821 132.26L111.341 131.396C111.669 131.132 112.061 130.932 112.517 130.796C112.973 130.652 113.457 130.58 113.969 130.58ZM113.705 136.184C114.145 136.184 114.525 136.088 114.845 135.896C115.165 135.696 115.397 135.416 115.541 135.056V134.168H113.765C112.789 134.168 112.301 134.496 112.301 135.152C112.301 135.472 112.425 135.724 112.673 135.908C112.921 136.092 113.265 136.184 113.705 136.184ZM122.22 130.58C123.028 130.58 123.668 130.816 124.14 131.288C124.62 131.752 124.86 132.436 124.86 133.34V137H123.708V133.472C123.708 132.856 123.56 132.392 123.264 132.08C122.968 131.768 122.544 131.612 121.992 131.612C121.368 131.612 120.876 131.796 120.516 132.164C120.156 132.524 119.976 133.044 119.976 133.724V137H118.824V130.64H119.928V131.6C120.16 131.272 120.472 131.02 120.864 130.844C121.264 130.668 121.716 130.58 122.22 130.58ZM133.028 128.096V137H131.924V135.992C131.668 136.344 131.344 136.612 130.952 136.796C130.56 136.98 130.128 137.072 129.656 137.072C129.04 137.072 128.488 136.936 128 136.664C127.512 136.392 127.128 136.012 126.848 135.524C126.576 135.028 126.44 134.46 126.44 133.82C126.44 133.18 126.576 132.616 126.848 132.128C127.128 131.64 127.512 131.26 128 130.988C128.488 130.716 129.04 130.58 129.656 130.58C130.112 130.58 130.532 130.668 130.916 130.844C131.3 131.012 131.62 131.264 131.876 131.6V128.096H133.028ZM129.752 136.064C130.152 136.064 130.516 135.972 130.844 135.788C131.172 135.596 131.428 135.332 131.612 134.996C131.796 134.652 131.888 134.26 131.888 133.82C131.888 133.38 131.796 132.992 131.612 132.656C131.428 132.312 131.172 132.048 130.844 131.864C130.516 131.68 130.152 131.588 129.752 131.588C129.344 131.588 128.976 131.68 128.648 131.864C128.328 132.048 128.072 132.312 127.88 132.656C127.696 132.992 127.604 133.38 127.604 133.82C127.604 134.26 127.696 134.652 127.88 134.996C128.072 135.332 128.328 135.596 128.648 135.788C128.976 135.972 129.344 136.064 129.752 136.064ZM137.931 137.072C137.299 137.072 136.731 136.932 136.227 136.652C135.723 136.372 135.327 135.988 135.039 135.5C134.759 135.004 134.619 134.444 134.619 133.82C134.619 133.196 134.759 132.64 135.039 132.152C135.327 131.656 135.723 131.272 136.227 131C136.731 130.72 137.299 130.58 137.931 130.58C138.563 130.58 139.127 130.72 139.623 131C140.127 131.272 140.519 131.656 140.799 132.152C141.087 132.64 141.231 133.196 141.231 133.82C141.231 134.444 141.087 135.004 140.799 135.5C140.519 135.988 140.127 136.372 139.623 136.652C139.127 136.932 138.563 137.072 137.931 137.072ZM137.931 136.064C138.339 136.064 138.703 135.972 139.023 135.788C139.351 135.596 139.607 135.332 139.791 134.996C139.975 134.652 140.067 134.26 140.067 133.82C140.067 133.38 139.975 132.992 139.791 132.656C139.607 132.312 139.351 132.048 139.023 131.864C138.703 131.68 138.339 131.588 137.931 131.588C137.523 131.588 137.155 131.68 136.827 131.864C136.507 132.048 136.251 132.312 136.059 132.656C135.875 132.992 135.783 133.38 135.783 133.82C135.783 134.26 135.875 134.652 136.059 134.996C136.251 135.332 136.507 135.596 136.827 135.788C137.155 135.972 137.523 136.064 137.931 136.064ZM37.3498 143.096H38.5018V152H37.3498V143.096ZM43.4254 152.072C42.7934 152.072 42.2254 151.932 41.7214 151.652C41.2174 151.372 40.8214 150.988 40.5334 150.5C40.2534 150.004 40.1134 149.444 40.1134 148.82C40.1134 148.196 40.2534 147.64 40.5334 147.152C40.8214 146.656 41.2174 146.272 41.7214 146C42.2254 145.72 42.7934 145.58 43.4254 145.58C44.0574 145.58 44.6214 145.72 45.1174 146C45.6214 146.272 46.0134 146.656 46.2934 147.152C46.5814 147.64 46.7254 148.196 46.7254 148.82C46.7254 149.444 46.5814 150.004 46.2934 150.5C46.0134 150.988 45.6214 151.372 45.1174 151.652C44.6214 151.932 44.0574 152.072 43.4254 152.072ZM43.4254 151.064C43.8334 151.064 44.1974 150.972 44.5174 150.788C44.8454 150.596 45.1014 150.332 45.2854 149.996C45.4694 149.652 45.5614 149.26 45.5614 148.82C45.5614 148.38 45.4694 147.992 45.2854 147.656C45.1014 147.312 44.8454 147.048 44.5174 146.864C44.1974 146.68 43.8334 146.588 43.4254 146.588C43.0174 146.588 42.6494 146.68 42.3214 146.864C42.0014 147.048 41.7454 147.312 41.5534 147.656C41.3694 147.992 41.2774 148.38 41.2774 148.82C41.2774 149.26 41.3694 149.652 41.5534 149.996C41.7454 150.332 42.0014 150.596 42.3214 150.788C42.6494 150.972 43.0174 151.064 43.4254 151.064ZM50.1426 152.072C49.6226 152.072 49.1226 152.004 48.6426 151.868C48.1626 151.724 47.7866 151.544 47.5146 151.328L47.9946 150.416C48.2746 150.616 48.6146 150.776 49.0146 150.896C49.4146 151.016 49.8186 151.076 50.2266 151.076C51.2346 151.076 51.7386 150.788 51.7386 150.212C51.7386 150.02 51.6706 149.868 51.5346 149.756C51.3986 149.644 51.2266 149.564 51.0186 149.516C50.8186 149.46 50.5306 149.4 50.1546 149.336C49.6426 149.256 49.2226 149.164 48.8946 149.06C48.5746 148.956 48.2986 148.78 48.0666 148.532C47.8346 148.284 47.7186 147.936 47.7186 147.488C47.7186 146.912 47.9586 146.452 48.4386 146.108C48.9186 145.756 49.5626 145.58 50.3706 145.58C50.7946 145.58 51.2186 145.632 51.6426 145.736C52.0666 145.84 52.4146 145.98 52.6866 146.156L52.1946 147.068C51.6746 146.732 51.0626 146.564 50.3586 146.564C49.8706 146.564 49.4986 146.644 49.2426 146.804C48.9866 146.964 48.8586 147.176 48.8586 147.44C48.8586 147.648 48.9306 147.812 49.0746 147.932C49.2186 148.052 49.3946 148.14 49.6026 148.196C49.8186 148.252 50.1186 148.316 50.5026 148.388C51.0146 148.476 51.4266 148.572 51.7386 148.676C52.0586 148.772 52.3306 148.94 52.5546 149.18C52.7786 149.42 52.8906 149.756 52.8906 150.188C52.8906 150.764 52.6426 151.224 52.1466 151.568C51.6586 151.904 50.9906 152.072 50.1426 152.072ZM63.5529 143.096V152H62.4489V150.992C62.1929 151.344 61.8689 151.612 61.4769 151.796C61.0849 151.98 60.6529 152.072 60.1809 152.072C59.5649 152.072 59.0129 151.936 58.5249 151.664C58.0369 151.392 57.6529 151.012 57.3729 150.524C57.1009 150.028 56.9649 149.46 56.9649 148.82C56.9649 148.18 57.1009 147.616 57.3729 147.128C57.6529 146.64 58.0369 146.26 58.5249 145.988C59.0129 145.716 59.5649 145.58 60.1809 145.58C60.6369 145.58 61.0569 145.668 61.4409 145.844C61.8249 146.012 62.1449 146.264 62.4009 146.6V143.096H63.5529ZM60.2769 151.064C60.6769 151.064 61.0409 150.972 61.3689 150.788C61.6969 150.596 61.9529 150.332 62.1369 149.996C62.3209 149.652 62.4129 149.26 62.4129 148.82C62.4129 148.38 62.3209 147.992 62.1369 147.656C61.9529 147.312 61.6969 147.048 61.3689 146.864C61.0409 146.68 60.6769 146.588 60.2769 146.588C59.8689 146.588 59.5009 146.68 59.1729 146.864C58.8529 147.048 58.5969 147.312 58.4049 147.656C58.2209 147.992 58.1289 148.38 58.1289 148.82C58.1289 149.26 58.2209 149.652 58.4049 149.996C58.5969 150.332 58.8529 150.596 59.1729 150.788C59.5009 150.972 59.8689 151.064 60.2769 151.064ZM68.4566 152.072C67.8246 152.072 67.2566 151.932 66.7526 151.652C66.2486 151.372 65.8526 150.988 65.5646 150.5C65.2846 150.004 65.1446 149.444 65.1446 148.82C65.1446 148.196 65.2846 147.64 65.5646 147.152C65.8526 146.656 66.2486 146.272 66.7526 146C67.2566 145.72 67.8246 145.58 68.4566 145.58C69.0886 145.58 69.6526 145.72 70.1486 146C70.6526 146.272 71.0446 146.656 71.3246 147.152C71.6126 147.64 71.7566 148.196 71.7566 148.82C71.7566 149.444 71.6126 150.004 71.3246 150.5C71.0446 150.988 70.6526 151.372 70.1486 151.652C69.6526 151.932 69.0886 152.072 68.4566 152.072ZM68.4566 151.064C68.8646 151.064 69.2286 150.972 69.5486 150.788C69.8766 150.596 70.1326 150.332 70.3166 149.996C70.5006 149.652 70.5926 149.26 70.5926 148.82C70.5926 148.38 70.5006 147.992 70.3166 147.656C70.1326 147.312 69.8766 147.048 69.5486 146.864C69.2286 146.68 68.8646 146.588 68.4566 146.588C68.0486 146.588 67.6806 146.68 67.3526 146.864C67.0326 147.048 66.7766 147.312 66.5846 147.656C66.4006 147.992 66.3086 148.38 66.3086 148.82C66.3086 149.26 66.4006 149.652 66.5846 149.996C66.7766 150.332 67.0326 150.596 67.3526 150.788C67.6806 150.972 68.0486 151.064 68.4566 151.064ZM76.7218 145.58C77.3378 145.58 77.8898 145.716 78.3778 145.988C78.8658 146.26 79.2458 146.64 79.5178 147.128C79.7978 147.616 79.9378 148.18 79.9378 148.82C79.9378 149.46 79.7978 150.028 79.5178 150.524C79.2458 151.012 78.8658 151.392 78.3778 151.664C77.8898 151.936 77.3378 152.072 76.7218 152.072C76.2498 152.072 75.8178 151.98 75.4258 151.796C75.0338 151.612 74.7098 151.344 74.4538 150.992V152H73.3498V143.096H74.5018V146.6C74.7578 146.264 75.0778 146.012 75.4618 145.844C75.8458 145.668 76.2658 145.58 76.7218 145.58ZM76.6258 151.064C77.0338 151.064 77.3978 150.972 77.7178 150.788C78.0458 150.596 78.3018 150.332 78.4858 149.996C78.6778 149.652 78.7738 149.26 78.7738 148.82C78.7738 148.38 78.6778 147.992 78.4858 147.656C78.3018 147.312 78.0458 147.048 77.7178 146.864C77.3978 146.68 77.0338 146.588 76.6258 146.588C76.2258 146.588 75.8618 146.68 75.5338 146.864C75.2058 147.048 74.9498 147.312 74.7658 147.656C74.5818 147.992 74.4898 148.38 74.4898 148.82C74.4898 149.26 74.5818 149.652 74.7658 149.996C74.9498 150.332 75.2058 150.596 75.5338 150.788C75.8618 150.972 76.2258 151.064 76.6258 151.064ZM81.5295 143.096H82.6815V152H81.5295V143.096ZM90.6291 148.856C90.6291 148.944 90.6211 149.06 90.6051 149.204H85.4451C85.5171 149.764 85.7611 150.216 86.1771 150.56C86.6011 150.896 87.1251 151.064 87.7491 151.064C88.5091 151.064 89.1211 150.808 89.5851 150.296L90.2211 151.04C89.9331 151.376 89.5731 151.632 89.1411 151.808C88.7171 151.984 88.2411 152.072 87.7131 152.072C87.0411 152.072 86.4451 151.936 85.9251 151.664C85.4051 151.384 85.0011 150.996 84.7131 150.5C84.4331 150.004 84.2931 149.444 84.2931 148.82C84.2931 148.204 84.4291 147.648 84.7011 147.152C84.9811 146.656 85.3611 146.272 85.8411 146C86.3291 145.72 86.8771 145.58 87.4851 145.58C88.0931 145.58 88.6331 145.72 89.1051 146C89.5851 146.272 89.9571 146.656 90.2211 147.152C90.4931 147.648 90.6291 148.216 90.6291 148.856ZM87.4851 146.552C86.9331 146.552 86.4691 146.72 86.0931 147.056C85.7251 147.392 85.5091 147.832 85.4451 148.376H89.5251C89.4611 147.84 89.2411 147.404 88.8651 147.068C88.4971 146.724 88.0371 146.552 87.4851 146.552ZM95.0007 152.072C94.3527 152.072 93.7727 151.932 93.2607 151.652C92.7567 151.372 92.3607 150.988 92.0727 150.5C91.7847 150.004 91.6407 149.444 91.6407 148.82C91.6407 148.196 91.7847 147.64 92.0727 147.152C92.3607 146.656 92.7567 146.272 93.2607 146C93.7727 145.72 94.3527 145.58 95.0007 145.58C95.5767 145.58 96.0887 145.696 96.5367 145.928C96.9927 146.16 97.3447 146.496 97.5927 146.936L96.7167 147.5C96.5167 147.196 96.2687 146.968 95.9727 146.816C95.6767 146.664 95.3487 146.588 94.9887 146.588C94.5727 146.588 94.1967 146.68 93.8607 146.864C93.5327 147.048 93.2727 147.312 93.0807 147.656C92.8967 147.992 92.8047 148.38 92.8047 148.82C92.8047 149.268 92.8967 149.664 93.0807 150.008C93.2727 150.344 93.5327 150.604 93.8607 150.788C94.1967 150.972 94.5727 151.064 94.9887 151.064C95.3487 151.064 95.6767 150.988 95.9727 150.836C96.2687 150.684 96.5167 150.456 96.7167 150.152L97.5927 150.704C97.3447 151.144 96.9927 151.484 96.5367 151.724C96.0887 151.956 95.5767 152.072 95.0007 152.072ZM104.738 148.856C104.738 148.944 104.73 149.06 104.714 149.204H99.5544C99.6264 149.764 99.8704 150.216 100.286 150.56C100.71 150.896 101.234 151.064 101.858 151.064C102.618 151.064 103.23 150.808 103.694 150.296L104.33 151.04C104.042 151.376 103.682 151.632 103.25 151.808C102.826 151.984 102.35 152.072 101.822 152.072C101.15 152.072 100.554 151.936 100.034 151.664C99.5144 151.384 99.1104 150.996 98.8224 150.5C98.5424 150.004 98.4024 149.444 98.4024 148.82C98.4024 148.204 98.5384 147.648 98.8104 147.152C99.0904 146.656 99.4704 146.272 99.9504 146C100.438 145.72 100.986 145.58 101.594 145.58C102.202 145.58 102.742 145.72 103.214 146C103.694 146.272 104.066 146.656 104.33 147.152C104.602 147.648 104.738 148.216 104.738 148.856ZM101.594 146.552C101.042 146.552 100.578 146.72 100.202 147.056C99.8344 147.392 99.6184 147.832 99.5544 148.376H103.634C103.57 147.84 103.35 147.404 102.974 147.068C102.606 146.724 102.146 146.552 101.594 146.552ZM108.162 152.072C107.642 152.072 107.142 152.004 106.662 151.868C106.182 151.724 105.806 151.544 105.534 151.328L106.014 150.416C106.294 150.616 106.634 150.776 107.034 150.896C107.434 151.016 107.838 151.076 108.246 151.076C109.254 151.076 109.758 150.788 109.758 150.212C109.758 150.02 109.69 149.868 109.554 149.756C109.418 149.644 109.246 149.564 109.038 149.516C108.838 149.46 108.55 149.4 108.174 149.336C107.662 149.256 107.242 149.164 106.914 149.06C106.594 148.956 106.318 148.78 106.086 148.532C105.854 148.284 105.738 147.936 105.738 147.488C105.738 146.912 105.978 146.452 106.458 146.108C106.938 145.756 107.582 145.58 108.39 145.58C108.814 145.58 109.238 145.632 109.662 145.736C110.086 145.84 110.434 145.98 110.706 146.156L110.214 147.068C109.694 146.732 109.082 146.564 108.378 146.564C107.89 146.564 107.518 146.644 107.262 146.804C107.006 146.964 106.878 147.176 106.878 147.44C106.878 147.648 106.95 147.812 107.094 147.932C107.238 148.052 107.414 148.14 107.622 148.196C107.838 148.252 108.138 148.316 108.522 148.388C109.034 148.476 109.446 148.572 109.758 148.676C110.078 148.772 110.35 148.94 110.574 149.18C110.798 149.42 110.91 149.756 110.91 150.188C110.91 150.764 110.662 151.224 110.166 151.568C109.678 151.904 109.01 152.072 108.162 152.072ZM121.32 148.856C121.32 148.944 121.312 149.06 121.296 149.204H116.136C116.208 149.764 116.452 150.216 116.868 150.56C117.292 150.896 117.816 151.064 118.44 151.064C119.2 151.064 119.812 150.808 120.276 150.296L120.912 151.04C120.624 151.376 120.264 151.632 119.832 151.808C119.408 151.984 118.932 152.072 118.404 152.072C117.732 152.072 117.136 151.936 116.616 151.664C116.096 151.384 115.692 150.996 115.404 150.5C115.124 150.004 114.984 149.444 114.984 148.82C114.984 148.204 115.12 147.648 115.392 147.152C115.672 146.656 116.052 146.272 116.532 146C117.02 145.72 117.568 145.58 118.176 145.58C118.784 145.58 119.324 145.72 119.796 146C120.276 146.272 120.648 146.656 120.912 147.152C121.184 147.648 121.32 148.216 121.32 148.856ZM118.176 146.552C117.624 146.552 117.16 146.72 116.784 147.056C116.416 147.392 116.2 147.832 116.136 148.376H120.216C120.152 147.84 119.932 147.404 119.556 147.068C119.188 146.724 118.728 146.552 118.176 146.552ZM126.316 145.58C127.124 145.58 127.764 145.816 128.236 146.288C128.716 146.752 128.956 147.436 128.956 148.34V152H127.804V148.472C127.804 147.856 127.656 147.392 127.36 147.08C127.064 146.768 126.64 146.612 126.088 146.612C125.464 146.612 124.972 146.796 124.612 147.164C124.252 147.524 124.072 148.044 124.072 148.724V152H122.92V145.64H124.024V146.6C124.256 146.272 124.568 146.02 124.96 145.844C125.36 145.668 125.812 145.58 126.316 145.58ZM134.311 143.096H135.463V152H134.311V143.096ZM139.978 145.58C140.858 145.58 141.53 145.796 141.994 146.228C142.466 146.66 142.702 147.304 142.702 148.16V152H141.61V151.16C141.418 151.456 141.142 151.684 140.782 151.844C140.43 151.996 140.01 152.072 139.522 152.072C138.81 152.072 138.238 151.9 137.806 151.556C137.382 151.212 137.17 150.76 137.17 150.2C137.17 149.64 137.374 149.192 137.782 148.856C138.19 148.512 138.838 148.34 139.726 148.34H141.55V148.112C141.55 147.616 141.406 147.236 141.118 146.972C140.83 146.708 140.406 146.576 139.846 146.576C139.47 146.576 139.102 146.64 138.742 146.768C138.382 146.888 138.078 147.052 137.83 147.26L137.35 146.396C137.678 146.132 138.07 145.932 138.526 145.796C138.982 145.652 139.466 145.58 139.978 145.58ZM139.714 151.184C140.154 151.184 140.534 151.088 140.854 150.896C141.174 150.696 141.406 150.416 141.55 150.056V149.168H139.774C138.798 149.168 138.31 149.496 138.31 150.152C138.31 150.472 138.434 150.724 138.682 150.908C138.93 151.092 139.274 151.184 139.714 151.184ZM51.9894 160.58C52.6054 160.58 53.1574 160.716 53.6454 160.988C54.1334 161.26 54.5134 161.64 54.7854 162.128C55.0654 162.616 55.2054 163.18 55.2054 163.82C55.2054 164.46 55.0654 165.028 54.7854 165.524C54.5134 166.012 54.1334 166.392 53.6454 166.664C53.1574 166.936 52.6054 167.072 51.9894 167.072C51.5334 167.072 51.1134 166.984 50.7294 166.808C50.3534 166.632 50.0334 166.376 49.7694 166.04V169.328H48.6174V160.64H49.7214V161.648C49.9774 161.296 50.3014 161.032 50.6934 160.856C51.0854 160.672 51.5174 160.58 51.9894 160.58ZM51.8934 166.064C52.3014 166.064 52.6654 165.972 52.9854 165.788C53.3134 165.596 53.5694 165.332 53.7534 164.996C53.9454 164.652 54.0414 164.26 54.0414 163.82C54.0414 163.38 53.9454 162.992 53.7534 162.656C53.5694 162.312 53.3134 162.048 52.9854 161.864C52.6654 161.68 52.3014 161.588 51.8934 161.588C51.4934 161.588 51.1294 161.684 50.8014 161.876C50.4814 162.06 50.2254 162.32 50.0334 162.656C49.8494 162.992 49.7574 163.38 49.7574 163.82C49.7574 164.26 49.8494 164.652 50.0334 164.996C50.2174 165.332 50.4734 165.596 50.8014 165.788C51.1294 165.972 51.4934 166.064 51.8934 166.064ZM59.0545 160.58C59.9345 160.58 60.6065 160.796 61.0705 161.228C61.5425 161.66 61.7785 162.304 61.7785 163.16V167H60.6865V166.16C60.4945 166.456 60.2185 166.684 59.8585 166.844C59.5065 166.996 59.0865 167.072 58.5985 167.072C57.8865 167.072 57.3145 166.9 56.8825 166.556C56.4585 166.212 56.2465 165.76 56.2465 165.2C56.2465 164.64 56.4505 164.192 56.8585 163.856C57.2665 163.512 57.9145 163.34 58.8025 163.34H60.6265V163.112C60.6265 162.616 60.4825 162.236 60.1945 161.972C59.9065 161.708 59.4825 161.576 58.9225 161.576C58.5465 161.576 58.1785 161.64 57.8185 161.768C57.4585 161.888 57.1545 162.052 56.9065 162.26L56.4265 161.396C56.7545 161.132 57.1465 160.932 57.6025 160.796C58.0585 160.652 58.5425 160.58 59.0545 160.58ZM58.7905 166.184C59.2305 166.184 59.6105 166.088 59.9305 165.896C60.2505 165.696 60.4825 165.416 60.6265 165.056V164.168H58.8505C57.8745 164.168 57.3865 164.496 57.3865 165.152C57.3865 165.472 57.5105 165.724 57.7585 165.908C58.0065 166.092 58.3505 166.184 58.7905 166.184ZM65.0144 161.708C65.2144 161.34 65.5104 161.06 65.9024 160.868C66.2944 160.676 66.7704 160.58 67.3304 160.58V161.696C67.2664 161.688 67.1784 161.684 67.0664 161.684C66.4424 161.684 65.9504 161.872 65.5904 162.248C65.2384 162.616 65.0624 163.144 65.0624 163.832V167H63.9104V160.64H65.0144V161.708ZM72.584 166.628C72.416 166.772 72.208 166.884 71.96 166.964C71.712 167.036 71.456 167.072 71.192 167.072C70.552 167.072 70.056 166.9 69.704 166.556C69.352 166.212 69.176 165.72 69.176 165.08V161.588H68.096V160.64H69.176V159.248H70.328V160.64H72.152V161.588H70.328V165.032C70.328 165.376 70.412 165.64 70.58 165.824C70.756 166.008 71.004 166.1 71.324 166.1C71.676 166.1 71.976 166 72.224 165.8L72.584 166.628ZM79.5138 163.856C79.5138 163.944 79.5058 164.06 79.4898 164.204H74.3298C74.4018 164.764 74.6458 165.216 75.0618 165.56C75.4858 165.896 76.0098 166.064 76.6338 166.064C77.3938 166.064 78.0058 165.808 78.4698 165.296L79.1058 166.04C78.8178 166.376 78.4578 166.632 78.0258 166.808C77.6018 166.984 77.1258 167.072 76.5978 167.072C75.9258 167.072 75.3298 166.936 74.8098 166.664C74.2898 166.384 73.8858 165.996 73.5978 165.5C73.3178 165.004 73.1778 164.444 73.1778 163.82C73.1778 163.204 73.3138 162.648 73.5858 162.152C73.8658 161.656 74.2458 161.272 74.7258 161C75.2138 160.72 75.7618 160.58 76.3698 160.58C76.9778 160.58 77.5178 160.72 77.9898 161C78.4698 161.272 78.8418 161.656 79.1058 162.152C79.3778 162.648 79.5138 163.216 79.5138 163.856ZM76.3698 161.552C75.8178 161.552 75.3538 161.72 74.9778 162.056C74.6098 162.392 74.3938 162.832 74.3298 163.376H78.4098C78.3458 162.84 78.1258 162.404 77.7498 162.068C77.3818 161.724 76.9218 161.552 76.3698 161.552ZM90.0841 163.856C90.0841 163.944 90.0761 164.06 90.0601 164.204H84.9001C84.9721 164.764 85.2161 165.216 85.6321 165.56C86.0561 165.896 86.5801 166.064 87.2041 166.064C87.9641 166.064 88.5761 165.808 89.0401 165.296L89.6761 166.04C89.3881 166.376 89.0281 166.632 88.5961 166.808C88.1721 166.984 87.6961 167.072 87.1681 167.072C86.4961 167.072 85.9001 166.936 85.3801 166.664C84.8601 166.384 84.4561 165.996 84.1681 165.5C83.8881 165.004 83.7481 164.444 83.7481 163.82C83.7481 163.204 83.8841 162.648 84.1561 162.152C84.4361 161.656 84.8161 161.272 85.2961 161C85.7841 160.72 86.3321 160.58 86.9401 160.58C87.5481 160.58 88.0881 160.72 88.5601 161C89.0401 161.272 89.4121 161.656 89.6761 162.152C89.9481 162.648 90.0841 163.216 90.0841 163.856ZM86.9401 161.552C86.3881 161.552 85.9241 161.72 85.5481 162.056C85.1801 162.392 84.9641 162.832 84.9001 163.376H88.9801C88.9161 162.84 88.6961 162.404 88.3201 162.068C87.9521 161.724 87.4921 161.552 86.9401 161.552ZM95.564 167L93.728 164.564L91.868 167H90.584L93.092 163.748L90.704 160.64H91.988L93.74 162.932L95.48 160.64H96.74L94.34 163.748L96.872 167H95.564ZM101.705 166.628C101.537 166.772 101.329 166.884 101.081 166.964C100.833 167.036 100.577 167.072 100.313 167.072C99.6731 167.072 99.1771 166.9 98.8251 166.556C98.4731 166.212 98.2971 165.72 98.2971 165.08V161.588H97.2171V160.64H98.2971V159.248H99.4491V160.64H101.273V161.588H99.4491V165.032C99.4491 165.376 99.5331 165.64 99.7011 165.824C99.8771 166.008 100.125 166.1 100.445 166.1C100.797 166.1 101.097 166 101.345 165.8L101.705 166.628ZM108.635 163.856C108.635 163.944 108.627 164.06 108.611 164.204H103.451C103.523 164.764 103.767 165.216 104.183 165.56C104.607 165.896 105.131 166.064 105.755 166.064C106.515 166.064 107.127 165.808 107.591 165.296L108.227 166.04C107.939 166.376 107.579 166.632 107.147 166.808C106.723 166.984 106.247 167.072 105.719 167.072C105.047 167.072 104.451 166.936 103.931 166.664C103.411 166.384 103.007 165.996 102.719 165.5C102.439 165.004 102.299 164.444 102.299 163.82C102.299 163.204 102.435 162.648 102.707 162.152C102.987 161.656 103.367 161.272 103.847 161C104.335 160.72 104.883 160.58 105.491 160.58C106.099 160.58 106.639 160.72 107.111 161C107.591 161.272 107.963 161.656 108.227 162.152C108.499 162.648 108.635 163.216 108.635 163.856ZM105.491 161.552C104.939 161.552 104.475 161.72 104.099 162.056C103.731 162.392 103.515 162.832 103.451 163.376H107.531C107.467 162.84 107.247 162.404 106.871 162.068C106.503 161.724 106.043 161.552 105.491 161.552ZM111.339 161.708C111.539 161.34 111.835 161.06 112.227 160.868C112.619 160.676 113.095 160.58 113.655 160.58V161.696C113.591 161.688 113.503 161.684 113.391 161.684C112.767 161.684 112.275 161.872 111.915 162.248C111.563 162.616 111.387 163.144 111.387 163.832V167H110.235V160.64H111.339V161.708ZM115.074 160.64H116.226V167H115.074V160.64ZM115.65 159.416C115.426 159.416 115.238 159.344 115.086 159.2C114.942 159.056 114.87 158.88 114.87 158.672C114.87 158.464 114.942 158.288 115.086 158.144C115.238 157.992 115.426 157.916 115.65 157.916C115.874 157.916 116.058 157.988 116.202 158.132C116.354 158.268 116.43 158.44 116.43 158.648C116.43 158.864 116.354 159.048 116.202 159.2C116.058 159.344 115.874 159.416 115.65 159.416ZM121.15 167.072C120.518 167.072 119.95 166.932 119.446 166.652C118.942 166.372 118.546 165.988 118.258 165.5C117.978 165.004 117.838 164.444 117.838 163.82C117.838 163.196 117.978 162.64 118.258 162.152C118.546 161.656 118.942 161.272 119.446 161C119.95 160.72 120.518 160.58 121.15 160.58C121.782 160.58 122.346 160.72 122.842 161C123.346 161.272 123.738 161.656 124.018 162.152C124.306 162.64 124.45 163.196 124.45 163.82C124.45 164.444 124.306 165.004 124.018 165.5C123.738 165.988 123.346 166.372 122.842 166.652C122.346 166.932 121.782 167.072 121.15 167.072ZM121.15 166.064C121.558 166.064 121.922 165.972 122.242 165.788C122.57 165.596 122.826 165.332 123.01 164.996C123.194 164.652 123.286 164.26 123.286 163.82C123.286 163.38 123.194 162.992 123.01 162.656C122.826 162.312 122.57 162.048 122.242 161.864C121.922 161.68 121.558 161.588 121.15 161.588C120.742 161.588 120.374 161.68 120.046 161.864C119.726 162.048 119.47 162.312 119.278 162.656C119.094 162.992 119.002 163.38 119.002 163.82C119.002 164.26 119.094 164.652 119.278 164.996C119.47 165.332 119.726 165.596 120.046 165.788C120.374 165.972 120.742 166.064 121.15 166.064ZM127.147 161.708C127.347 161.34 127.643 161.06 128.035 160.868C128.427 160.676 128.903 160.58 129.463 160.58V161.696C129.399 161.688 129.311 161.684 129.199 161.684C128.575 161.684 128.083 161.872 127.723 162.248C127.371 162.616 127.195 163.144 127.195 163.832V167H126.043V160.64H127.147V161.708ZM131.124 167.072C130.9 167.072 130.708 166.996 130.548 166.844C130.388 166.684 130.308 166.484 130.308 166.244C130.308 166.012 130.388 165.82 130.548 165.668C130.708 165.508 130.9 165.428 131.124 165.428C131.348 165.428 131.536 165.504 131.688 165.656C131.84 165.808 131.916 166.004 131.916 166.244C131.916 166.484 131.836 166.684 131.676 166.844C131.524 166.996 131.34 167.072 131.124 167.072Z" fill="#008E86"/>
<path d="M111.636 100.769C111.928 101.238 112.544 101.382 113.013 101.09L120.654 96.3344C121.123 96.0426 121.267 95.4259 120.975 94.957C120.683 94.4882 120.066 94.3446 119.598 94.6364L112.806 98.8636L108.578 92.0716C108.287 91.6027 107.67 91.4592 107.201 91.751C106.732 92.0428 106.589 92.6595 106.88 93.1284L111.636 100.769ZM94.0072 61.5366C93.8943 62.0772 94.241 62.607 94.7816 62.7199C95.3223 62.8328 95.8521 62.4861 95.965 61.9455L94.0072 61.5366ZM110.984 23.7817L110.701 24.7406L110.984 23.7817ZM113.459 100.468C117.766 81.9617 119.238 63.3025 118.707 48.9764C118.442 41.8181 117.675 35.7021 116.494 31.2122C115.905 28.9705 115.2 27.0896 114.376 25.677C113.565 24.2882 112.549 23.2019 111.268 22.8228L110.701 24.7406C111.259 24.9058 111.936 25.466 112.648 26.6854C113.347 27.8812 113.995 29.5705 114.56 31.721C115.69 36.0153 116.446 41.9709 116.709 49.0504C117.233 63.2001 115.778 81.6819 111.511 100.014L113.459 100.468ZM111.268 22.8228C109.704 22.3597 108.186 23.0575 106.836 24.4307C105.486 25.8034 104.124 28.0107 102.747 31.0732C99.9828 37.2159 97.0219 47.1024 94.0072 61.5366L95.965 61.9455C98.9703 47.5562 101.896 37.8376 104.57 31.8938C105.912 28.9131 107.157 26.9568 108.262 25.8331C109.367 24.7098 110.153 24.5784 110.701 24.7406L111.268 22.8228Z" fill="black"/>
<path d="M34.4844 66.4824L91.9668 33.4821L124.484 66.4824L91.9668 99.4821L34.4844 66.4824Z" fill="#00D8CC" stroke="#00635D" stroke-width="2" stroke-linejoin="round"/>
<path d="M94.9863 61.741C101.006 32.9175 106.76 22.531 110.985 23.7817" stroke="black" stroke-width="2" stroke-linecap="round"/>
<path d="M124.484 66.241H34.4844" stroke="#333333" stroke-width="2" stroke-dasharray="4 6"/>
<path d="M34 66.2415L91.4824 33.2411L94.4844 43.2411L74.9844 54.7411L34 66.2415Z" fill="#008E86" stroke="#00635D" stroke-width="2" stroke-linejoin="round"/>
<path d="M34.4844 65.9829L91.9668 98.9833L94.9687 88.9833L75.4687 77.4833L34.4844 65.9829Z" fill="#008E86" stroke="#00635D" stroke-width="2" stroke-linejoin="round"/>
<path d="M75.103 47.6224L93.603 43.3596L75.103 54.8596L75.103 47.6224Z" fill="#00D8CC" stroke="#00635D" stroke-width="2" stroke-linejoin="round"/>
<path d="M75.5874 84.602L94.0874 88.8648L75.5874 77.3648L75.5874 84.602Z" fill="#00D8CC" stroke="#00635D" stroke-width="2" stroke-linejoin="round"/>
<path d="M75.1035 47.6223L93.6035 43.3595L91.1035 51.8595L75.1035 47.6223Z" fill="#008E86" stroke="#00635D" stroke-width="2" stroke-linejoin="round"/>
<path d="M75.5879 84.6021L94.0879 88.8648L91.5879 80.3648L75.5879 84.6021Z" fill="#008E86" stroke="#00635D" stroke-width="2" stroke-linejoin="round"/>
</g>
<defs>
<clipPath id="clip0_5717_206353">
<rect width="180" height="180" rx="20" fill="white"/>
</clipPath>
<clipPath id="clip1_5717_206353">
<path d="M0 30L-1.31134e-06 0L30 -1.31134e-06L30 10C30 21.0457 21.0457 30 10 30L0 30Z" fill="white"/>
</clipPath>
</defs>
</svg>
