<svg width="180" height="180" viewBox="0 0 180 180" fill="none" xmlns="http://www.w3.org/2000/svg">
<g clip-path="url(#clip0_5717_206365)">
<rect width="180" height="180" rx="20" fill="#F2F2F2"/>
<g clip-path="url(#clip1_5717_206365)">
<path d="M0 30L-1.31134e-06 0L30 -1.31134e-06L30 10C30 21.0457 21.0457 30 10 30L0 30Z" fill="#333333"/>
<path d="M19.4311 9.8V11.48L15.2711 21H12.4551L16.4711 11.912H12.7591V13.736H10.4551V9.8H19.4311Z" fill="#F2F2F2"/>
</g>
<path d="M46.3538 113.6H49.8938C50.7818 113.6 51.5698 113.776 52.2578 114.128C52.9458 114.48 53.4778 114.976 53.8538 115.616C54.2378 116.248 54.4298 116.976 54.4298 117.8C54.4298 118.624 54.2378 119.356 53.8538 119.996C53.4778 120.628 52.9458 121.12 52.2578 121.472C51.5698 121.824 50.7818 122 49.8938 122H46.3538V113.6ZM49.8218 120.956C50.5018 120.956 51.0978 120.824 51.6098 120.56C52.1298 120.296 52.5298 119.928 52.8098 119.456C53.0898 118.976 53.2298 118.424 53.2298 117.8C53.2298 117.176 53.0898 116.628 52.8098 116.156C52.5298 115.676 52.1298 115.304 51.6098 115.04C51.0978 114.776 50.5018 114.644 49.8218 114.644H47.5538V120.956H49.8218ZM58.8238 122.072C58.1918 122.072 57.6238 121.932 57.1198 121.652C56.6158 121.372 56.2198 120.988 55.9318 120.5C55.6518 120.004 55.5118 119.444 55.5118 118.82C55.5118 118.196 55.6518 117.64 55.9318 117.152C56.2198 116.656 56.6158 116.272 57.1198 116C57.6238 115.72 58.1918 115.58 58.8238 115.58C59.4558 115.58 60.0198 115.72 60.5158 116C61.0198 116.272 61.4118 116.656 61.6918 117.152C61.9798 117.64 62.1238 118.196 62.1238 118.82C62.1238 119.444 61.9798 120.004 61.6918 120.5C61.4118 120.988 61.0198 121.372 60.5158 121.652C60.0198 121.932 59.4558 122.072 58.8238 122.072ZM58.8238 121.064C59.2318 121.064 59.5958 120.972 59.9158 120.788C60.2438 120.596 60.4998 120.332 60.6838 119.996C60.8678 119.652 60.9598 119.26 60.9598 118.82C60.9598 118.38 60.8678 117.992 60.6838 117.656C60.4998 117.312 60.2438 117.048 59.9158 116.864C59.5958 116.68 59.2318 116.588 58.8238 116.588C58.4158 116.588 58.0478 116.68 57.7198 116.864C57.3998 117.048 57.1438 117.312 56.9518 117.656C56.7678 117.992 56.6758 118.38 56.6758 118.82C56.6758 119.26 56.7678 119.652 56.9518 119.996C57.1438 120.332 57.3998 120.596 57.7198 120.788C58.0478 120.972 58.4158 121.064 58.8238 121.064ZM67.089 115.58C67.705 115.58 68.257 115.716 68.745 115.988C69.233 116.26 69.613 116.64 69.885 117.128C70.165 117.616 70.305 118.18 70.305 118.82C70.305 119.46 70.165 120.028 69.885 120.524C69.613 121.012 69.233 121.392 68.745 121.664C68.257 121.936 67.705 122.072 67.089 122.072C66.617 122.072 66.185 121.98 65.793 121.796C65.401 121.612 65.077 121.344 64.821 120.992V122H63.717V113.096H64.869V116.6C65.125 116.264 65.445 116.012 65.829 115.844C66.213 115.668 66.633 115.58 67.089 115.58ZM66.993 121.064C67.401 121.064 67.765 120.972 68.085 120.788C68.413 120.596 68.669 120.332 68.853 119.996C69.045 119.652 69.141 119.26 69.141 118.82C69.141 118.38 69.045 117.992 68.853 117.656C68.669 117.312 68.413 117.048 68.085 116.864C67.765 116.68 67.401 116.588 66.993 116.588C66.593 116.588 66.229 116.68 65.901 116.864C65.573 117.048 65.317 117.312 65.133 117.656C64.949 117.992 64.857 118.38 64.857 118.82C64.857 119.26 64.949 119.652 65.133 119.996C65.317 120.332 65.573 120.596 65.901 120.788C66.229 120.972 66.593 121.064 66.993 121.064ZM71.8967 113.096H73.0487V122H71.8967V113.096ZM77.5643 115.58C78.4443 115.58 79.1163 115.796 79.5803 116.228C80.0523 116.66 80.2883 117.304 80.2883 118.16V122H79.1963V121.16C79.0043 121.456 78.7283 121.684 78.3683 121.844C78.0163 121.996 77.5963 122.072 77.1083 122.072C76.3963 122.072 75.8243 121.9 75.3923 121.556C74.9683 121.212 74.7563 120.76 74.7563 120.2C74.7563 119.64 74.9603 119.192 75.3683 118.856C75.7763 118.512 76.4243 118.34 77.3123 118.34H79.1363V118.112C79.1363 117.616 78.9923 117.236 78.7043 116.972C78.4163 116.708 77.9923 116.576 77.4323 116.576C77.0563 116.576 76.6883 116.64 76.3283 116.768C75.9683 116.888 75.6643 117.052 75.4163 117.26L74.9363 116.396C75.2643 116.132 75.6563 115.932 76.1123 115.796C76.5683 115.652 77.0523 115.58 77.5643 115.58ZM77.3003 121.184C77.7403 121.184 78.1203 121.088 78.4403 120.896C78.7603 120.696 78.9923 120.416 79.1363 120.056V119.168H77.3603C76.3843 119.168 75.8963 119.496 75.8963 120.152C75.8963 120.472 76.0203 120.724 76.2683 120.908C76.5163 121.092 76.8603 121.184 77.3003 121.184ZM85.6428 113.096H86.7948V122H85.6428V113.096ZM91.3103 115.58C92.1903 115.58 92.8623 115.796 93.3263 116.228C93.7983 116.66 94.0343 117.304 94.0343 118.16V122H92.9423V121.16C92.7503 121.456 92.4743 121.684 92.1143 121.844C91.7623 121.996 91.3423 122.072 90.8543 122.072C90.1423 122.072 89.5703 121.9 89.1383 121.556C88.7143 121.212 88.5023 120.76 88.5023 120.2C88.5023 119.64 88.7063 119.192 89.1143 118.856C89.5223 118.512 90.1703 118.34 91.0583 118.34H92.8823V118.112C92.8823 117.616 92.7383 117.236 92.4503 116.972C92.1623 116.708 91.7383 116.576 91.1783 116.576C90.8023 116.576 90.4343 116.64 90.0743 116.768C89.7143 116.888 89.4103 117.052 89.1623 117.26L88.6823 116.396C89.0103 116.132 89.4023 115.932 89.8583 115.796C90.3143 115.652 90.7983 115.58 91.3103 115.58ZM91.0463 121.184C91.4863 121.184 91.8663 121.088 92.1863 120.896C92.5063 120.696 92.7383 120.416 92.8823 120.056V119.168H91.1063C90.1303 119.168 89.6423 119.496 89.6423 120.152C89.6423 120.472 89.7663 120.724 90.0143 120.908C90.2623 121.092 90.6063 121.184 91.0463 121.184ZM102.761 115.58C103.377 115.58 103.929 115.716 104.417 115.988C104.905 116.26 105.285 116.64 105.557 117.128C105.837 117.616 105.977 118.18 105.977 118.82C105.977 119.46 105.837 120.028 105.557 120.524C105.285 121.012 104.905 121.392 104.417 121.664C103.929 121.936 103.377 122.072 102.761 122.072C102.305 122.072 101.885 121.984 101.501 121.808C101.125 121.632 100.805 121.376 100.541 121.04V124.328H99.3889V115.64H100.493V116.648C100.749 116.296 101.073 116.032 101.465 115.856C101.857 115.672 102.289 115.58 102.761 115.58ZM102.665 121.064C103.073 121.064 103.437 120.972 103.757 120.788C104.085 120.596 104.341 120.332 104.525 119.996C104.717 119.652 104.813 119.26 104.813 118.82C104.813 118.38 104.717 117.992 104.525 117.656C104.341 117.312 104.085 117.048 103.757 116.864C103.437 116.68 103.073 116.588 102.665 116.588C102.265 116.588 101.901 116.684 101.573 116.876C101.253 117.06 100.997 117.32 100.805 117.656C100.621 117.992 100.529 118.38 100.529 118.82C100.529 119.26 100.621 119.652 100.805 119.996C100.989 120.332 101.245 120.596 101.573 120.788C101.901 120.972 102.265 121.064 102.665 121.064ZM113.497 115.64V122H112.405V121.04C112.173 121.368 111.865 121.624 111.481 121.808C111.105 121.984 110.693 122.072 110.245 122.072C109.397 122.072 108.729 121.84 108.241 121.376C107.753 120.904 107.509 120.212 107.509 119.3V115.64H108.661V119.168C108.661 119.784 108.809 120.252 109.105 120.572C109.401 120.884 109.825 121.04 110.377 121.04C110.985 121.04 111.465 120.856 111.817 120.488C112.169 120.12 112.345 119.6 112.345 118.928V115.64H113.497ZM119.086 115.58C119.894 115.58 120.534 115.816 121.006 116.288C121.486 116.752 121.726 117.436 121.726 118.34V122H120.574V118.472C120.574 117.856 120.426 117.392 120.13 117.08C119.834 116.768 119.41 116.612 118.858 116.612C118.234 116.612 117.742 116.796 117.382 117.164C117.022 117.524 116.842 118.044 116.842 118.724V122H115.69V115.64H116.794V116.6C117.026 116.272 117.338 116.02 117.73 115.844C118.13 115.668 118.582 115.58 119.086 115.58ZM127.434 121.628C127.266 121.772 127.058 121.884 126.81 121.964C126.562 122.036 126.306 122.072 126.042 122.072C125.402 122.072 124.906 121.9 124.554 121.556C124.202 121.212 124.026 120.72 124.026 120.08V116.588H122.946V115.64H124.026V114.248H125.178V115.64H127.002V116.588H125.178V120.032C125.178 120.376 125.262 120.64 125.43 120.824C125.606 121.008 125.854 121.1 126.174 121.1C126.526 121.1 126.826 121 127.074 120.8L127.434 121.628ZM131.142 115.58C132.022 115.58 132.694 115.796 133.158 116.228C133.63 116.66 133.866 117.304 133.866 118.16V122H132.774V121.16C132.582 121.456 132.306 121.684 131.946 121.844C131.594 121.996 131.174 122.072 130.686 122.072C129.974 122.072 129.402 121.9 128.97 121.556C128.546 121.212 128.334 120.76 128.334 120.2C128.334 119.64 128.538 119.192 128.946 118.856C129.354 118.512 130.002 118.34 130.89 118.34H132.714V118.112C132.714 117.616 132.57 117.236 132.282 116.972C131.994 116.708 131.57 116.576 131.01 116.576C130.634 116.576 130.266 116.64 129.906 116.768C129.546 116.888 129.242 117.052 128.994 117.26L128.514 116.396C128.842 116.132 129.234 115.932 129.69 115.796C130.146 115.652 130.63 115.58 131.142 115.58ZM130.878 121.184C131.318 121.184 131.698 121.088 132.018 120.896C132.338 120.696 132.57 120.416 132.714 120.056V119.168H130.938C129.962 119.168 129.474 119.496 129.474 120.152C129.474 120.472 129.598 120.724 129.846 120.908C130.094 121.092 130.438 121.184 130.878 121.184ZM41.1467 128.096V137H40.0427V135.992C39.7867 136.344 39.4627 136.612 39.0707 136.796C38.6787 136.98 38.2467 137.072 37.7747 137.072C37.1587 137.072 36.6067 136.936 36.1187 136.664C35.6307 136.392 35.2467 136.012 34.9667 135.524C34.6947 135.028 34.5587 134.46 34.5587 133.82C34.5587 133.18 34.6947 132.616 34.9667 132.128C35.2467 131.64 35.6307 131.26 36.1187 130.988C36.6067 130.716 37.1587 130.58 37.7747 130.58C38.2307 130.58 38.6507 130.668 39.0347 130.844C39.4187 131.012 39.7387 131.264 39.9947 131.6V128.096H41.1467ZM37.8707 136.064C38.2707 136.064 38.6347 135.972 38.9627 135.788C39.2907 135.596 39.5467 135.332 39.7307 134.996C39.9147 134.652 40.0067 134.26 40.0067 133.82C40.0067 133.38 39.9147 132.992 39.7307 132.656C39.5467 132.312 39.2907 132.048 38.9627 131.864C38.6347 131.68 38.2707 131.588 37.8707 131.588C37.4627 131.588 37.0947 131.68 36.7667 131.864C36.4467 132.048 36.1907 132.312 35.9987 132.656C35.8147 132.992 35.7227 133.38 35.7227 133.82C35.7227 134.26 35.8147 134.652 35.9987 134.996C36.1907 135.332 36.4467 135.596 36.7667 135.788C37.0947 135.972 37.4627 136.064 37.8707 136.064ZM49.0744 133.856C49.0744 133.944 49.0664 134.06 49.0504 134.204H43.8904C43.9624 134.764 44.2064 135.216 44.6224 135.56C45.0464 135.896 45.5704 136.064 46.1944 136.064C46.9544 136.064 47.5664 135.808 48.0304 135.296L48.6664 136.04C48.3784 136.376 48.0184 136.632 47.5864 136.808C47.1624 136.984 46.6864 137.072 46.1584 137.072C45.4864 137.072 44.8904 136.936 44.3704 136.664C43.8504 136.384 43.4464 135.996 43.1584 135.5C42.8784 135.004 42.7384 134.444 42.7384 133.82C42.7384 133.204 42.8744 132.648 43.1464 132.152C43.4264 131.656 43.8064 131.272 44.2864 131C44.7744 130.72 45.3224 130.58 45.9304 130.58C46.5384 130.58 47.0784 130.72 47.5504 131C48.0304 131.272 48.4024 131.656 48.6664 132.152C48.9384 132.648 49.0744 133.216 49.0744 133.856ZM45.9304 131.552C45.3784 131.552 44.9144 131.72 44.5384 132.056C44.1704 132.392 43.9544 132.832 43.8904 133.376H47.9704C47.9064 132.84 47.6864 132.404 47.3104 132.068C46.9424 131.724 46.4824 131.552 45.9304 131.552ZM51.778 131.708C51.978 131.34 52.274 131.06 52.666 130.868C53.058 130.676 53.534 130.58 54.094 130.58V131.696C54.03 131.688 53.942 131.684 53.83 131.684C53.206 131.684 52.714 131.872 52.354 132.248C52.002 132.616 51.826 133.144 51.826 133.832V137H50.674V130.64H51.778V131.708ZM61.2033 133.856C61.2033 133.944 61.1953 134.06 61.1793 134.204H56.0193C56.0913 134.764 56.3353 135.216 56.7513 135.56C57.1753 135.896 57.6993 136.064 58.3233 136.064C59.0833 136.064 59.6953 135.808 60.1593 135.296L60.7953 136.04C60.5073 136.376 60.1473 136.632 59.7153 136.808C59.2913 136.984 58.8153 137.072 58.2873 137.072C57.6153 137.072 57.0193 136.936 56.4993 136.664C55.9793 136.384 55.5753 135.996 55.2873 135.5C55.0073 135.004 54.8673 134.444 54.8673 133.82C54.8673 133.204 55.0033 132.648 55.2753 132.152C55.5553 131.656 55.9353 131.272 56.4153 131C56.9033 130.72 57.4513 130.58 58.0593 130.58C58.6673 130.58 59.2073 130.72 59.6793 131C60.1593 131.272 60.5313 131.656 60.7953 132.152C61.0673 132.648 61.2033 133.216 61.2033 133.856ZM58.0593 131.552C57.5073 131.552 57.0433 131.72 56.6673 132.056C56.2993 132.392 56.0833 132.832 56.0193 133.376H60.0993C60.0353 132.84 59.8153 132.404 59.4393 132.068C59.0713 131.724 58.6113 131.552 58.0593 131.552ZM65.5749 137.072C64.9269 137.072 64.3469 136.932 63.8349 136.652C63.3309 136.372 62.9349 135.988 62.6469 135.5C62.3589 135.004 62.2149 134.444 62.2149 133.82C62.2149 133.196 62.3589 132.64 62.6469 132.152C62.9349 131.656 63.3309 131.272 63.8349 131C64.3469 130.72 64.9269 130.58 65.5749 130.58C66.1509 130.58 66.6629 130.696 67.1109 130.928C67.5669 131.16 67.9189 131.496 68.1669 131.936L67.2909 132.5C67.0909 132.196 66.8429 131.968 66.5469 131.816C66.2509 131.664 65.9229 131.588 65.5629 131.588C65.1469 131.588 64.7709 131.68 64.4349 131.864C64.1069 132.048 63.8469 132.312 63.6549 132.656C63.4709 132.992 63.3789 133.38 63.3789 133.82C63.3789 134.268 63.4709 134.664 63.6549 135.008C63.8469 135.344 64.1069 135.604 64.4349 135.788C64.7709 135.972 65.1469 136.064 65.5629 136.064C65.9229 136.064 66.2509 135.988 66.5469 135.836C66.8429 135.684 67.0909 135.456 67.2909 135.152L68.1669 135.704C67.9189 136.144 67.5669 136.484 67.1109 136.724C66.6629 136.956 66.1509 137.072 65.5749 137.072ZM72.9724 130.58C73.7804 130.58 74.4204 130.816 74.8924 131.288C75.3724 131.752 75.6124 132.436 75.6124 133.34V137H74.4604V133.472C74.4604 132.856 74.3124 132.392 74.0164 132.08C73.7204 131.768 73.2964 131.612 72.7444 131.612C72.1204 131.612 71.6284 131.796 71.2684 132.164C70.9084 132.524 70.7284 133.044 70.7284 133.724V137H69.5764V128.096H70.7284V131.54C70.9684 131.236 71.2804 131 71.6644 130.832C72.0564 130.664 72.4924 130.58 72.9724 130.58ZM80.0603 130.58C80.9403 130.58 81.6123 130.796 82.0763 131.228C82.5483 131.66 82.7843 132.304 82.7843 133.16V137H81.6923V136.16C81.5003 136.456 81.2243 136.684 80.8643 136.844C80.5123 136.996 80.0923 137.072 79.6043 137.072C78.8923 137.072 78.3203 136.9 77.8883 136.556C77.4643 136.212 77.2523 135.76 77.2523 135.2C77.2523 134.64 77.4563 134.192 77.8643 133.856C78.2723 133.512 78.9203 133.34 79.8083 133.34H81.6323V133.112C81.6323 132.616 81.4883 132.236 81.2003 131.972C80.9123 131.708 80.4883 131.576 79.9283 131.576C79.5523 131.576 79.1843 131.64 78.8243 131.768C78.4643 131.888 78.1603 132.052 77.9123 132.26L77.4323 131.396C77.7603 131.132 78.1523 130.932 78.6083 130.796C79.0643 130.652 79.5483 130.58 80.0603 130.58ZM79.7963 136.184C80.2363 136.184 80.6163 136.088 80.9363 135.896C81.2563 135.696 81.4883 135.416 81.6323 135.056V134.168H79.8563C78.8803 134.168 78.3923 134.496 78.3923 135.152C78.3923 135.472 78.5163 135.724 78.7643 135.908C79.0123 136.092 79.3563 136.184 79.7963 136.184ZM94.1389 128.096V137H93.0349V135.992C92.7789 136.344 92.4549 136.612 92.0629 136.796C91.6709 136.98 91.2389 137.072 90.7669 137.072C90.1509 137.072 89.5989 136.936 89.1109 136.664C88.6229 136.392 88.2389 136.012 87.9589 135.524C87.6869 135.028 87.5509 134.46 87.5509 133.82C87.5509 133.18 87.6869 132.616 87.9589 132.128C88.2389 131.64 88.6229 131.26 89.1109 130.988C89.5989 130.716 90.1509 130.58 90.7669 130.58C91.2229 130.58 91.6429 130.668 92.0269 130.844C92.4109 131.012 92.7309 131.264 92.9869 131.6V128.096H94.1389ZM90.8629 136.064C91.2629 136.064 91.6269 135.972 91.9549 135.788C92.2829 135.596 92.5389 135.332 92.7229 134.996C92.9069 134.652 92.9989 134.26 92.9989 133.82C92.9989 133.38 92.9069 132.992 92.7229 132.656C92.5389 132.312 92.2829 132.048 91.9549 131.864C91.6269 131.68 91.2629 131.588 90.8629 131.588C90.4549 131.588 90.0869 131.68 89.7589 131.864C89.4389 132.048 89.1829 132.312 88.9909 132.656C88.8069 132.992 88.7149 133.38 88.7149 133.82C88.7149 134.26 88.8069 134.652 88.9909 134.996C89.1829 135.332 89.4389 135.596 89.7589 135.788C90.0869 135.972 90.4549 136.064 90.8629 136.064ZM102.067 133.856C102.067 133.944 102.059 134.06 102.043 134.204H96.8826C96.9546 134.764 97.1986 135.216 97.6146 135.56C98.0386 135.896 98.5626 136.064 99.1866 136.064C99.9466 136.064 100.559 135.808 101.023 135.296L101.659 136.04C101.371 136.376 101.011 136.632 100.579 136.808C100.155 136.984 99.6786 137.072 99.1506 137.072C98.4786 137.072 97.8826 136.936 97.3626 136.664C96.8426 136.384 96.4386 135.996 96.1506 135.5C95.8706 135.004 95.7306 134.444 95.7306 133.82C95.7306 133.204 95.8666 132.648 96.1386 132.152C96.4186 131.656 96.7986 131.272 97.2786 131C97.7666 130.72 98.3146 130.58 98.9226 130.58C99.5306 130.58 100.071 130.72 100.543 131C101.023 131.272 101.395 131.656 101.659 132.152C101.931 132.648 102.067 133.216 102.067 133.856ZM98.9226 131.552C98.3706 131.552 97.9066 131.72 97.5306 132.056C97.1626 132.392 96.9466 132.832 96.8826 133.376H100.963C100.899 132.84 100.679 132.404 100.303 132.068C99.9346 131.724 99.4746 131.552 98.9226 131.552ZM106.889 128.096H108.041V137H106.889V128.096ZM112.556 130.58C113.436 130.58 114.108 130.796 114.572 131.228C115.044 131.66 115.28 132.304 115.28 133.16V137H114.188V136.16C113.996 136.456 113.72 136.684 113.36 136.844C113.008 136.996 112.588 137.072 112.1 137.072C111.388 137.072 110.816 136.9 110.384 136.556C109.96 136.212 109.748 135.76 109.748 135.2C109.748 134.64 109.952 134.192 110.36 133.856C110.768 133.512 111.416 133.34 112.304 133.34H114.128V133.112C114.128 132.616 113.984 132.236 113.696 131.972C113.408 131.708 112.984 131.576 112.424 131.576C112.048 131.576 111.68 131.64 111.32 131.768C110.96 131.888 110.656 132.052 110.408 132.26L109.928 131.396C110.256 131.132 110.648 130.932 111.104 130.796C111.56 130.652 112.044 130.58 112.556 130.58ZM112.292 136.184C112.732 136.184 113.112 136.088 113.432 135.896C113.752 135.696 113.984 135.416 114.128 135.056V134.168H112.352C111.376 134.168 110.888 134.496 110.888 135.152C110.888 135.472 111.012 135.724 111.26 135.908C111.508 136.092 111.852 136.184 112.292 136.184ZM124.031 130.58C124.839 130.58 125.479 130.816 125.951 131.288C126.431 131.752 126.671 132.436 126.671 133.34V137H125.519V133.472C125.519 132.856 125.371 132.392 125.075 132.08C124.779 131.768 124.355 131.612 123.803 131.612C123.179 131.612 122.687 131.796 122.327 132.164C121.967 132.524 121.787 133.044 121.787 133.724V137H120.635V128.096H121.787V131.54C122.027 131.236 122.339 131 122.723 130.832C123.115 130.664 123.551 130.58 124.031 130.58ZM131.562 137.072C130.93 137.072 130.362 136.932 129.858 136.652C129.354 136.372 128.958 135.988 128.67 135.5C128.39 135.004 128.25 134.444 128.25 133.82C128.25 133.196 128.39 132.64 128.67 132.152C128.958 131.656 129.354 131.272 129.858 131C130.362 130.72 130.93 130.58 131.562 130.58C132.194 130.58 132.758 130.72 133.254 131C133.758 131.272 134.15 131.656 134.43 132.152C134.718 132.64 134.862 133.196 134.862 133.82C134.862 134.444 134.718 135.004 134.43 135.5C134.15 135.988 133.758 136.372 133.254 136.652C132.758 136.932 132.194 137.072 131.562 137.072ZM131.562 136.064C131.97 136.064 132.334 135.972 132.654 135.788C132.982 135.596 133.238 135.332 133.422 134.996C133.606 134.652 133.698 134.26 133.698 133.82C133.698 133.38 133.606 132.992 133.422 132.656C133.238 132.312 132.982 132.048 132.654 131.864C132.334 131.68 131.97 131.588 131.562 131.588C131.154 131.588 130.786 131.68 130.458 131.864C130.138 132.048 129.882 132.312 129.69 132.656C129.506 132.992 129.414 133.38 129.414 133.82C129.414 134.26 129.506 134.652 129.69 134.996C129.882 135.332 130.138 135.596 130.458 135.788C130.786 135.972 131.154 136.064 131.562 136.064ZM135.639 139.4C135.359 139.4 135.099 139.368 134.859 139.304C134.619 139.24 134.419 139.144 134.259 139.016L134.631 138.128C134.871 138.328 135.183 138.428 135.567 138.428C135.871 138.428 136.103 138.332 136.263 138.14C136.431 137.956 136.515 137.68 136.515 137.312V130.64H137.667V137.288C137.667 137.944 137.491 138.46 137.139 138.836C136.787 139.212 136.287 139.4 135.639 139.4ZM137.091 129.416C136.867 129.416 136.679 129.344 136.527 129.2C136.383 129.056 136.311 128.88 136.311 128.672C136.311 128.464 136.383 128.288 136.527 128.144C136.679 127.992 136.867 127.916 137.091 127.916C137.315 127.916 137.499 127.988 137.643 128.132C137.795 128.268 137.871 128.44 137.871 128.648C137.871 128.864 137.795 129.048 137.643 129.2C137.499 129.344 137.315 129.416 137.091 129.416ZM142.181 130.58C143.061 130.58 143.733 130.796 144.197 131.228C144.669 131.66 144.905 132.304 144.905 133.16V137H143.813V136.16C143.621 136.456 143.345 136.684 142.985 136.844C142.633 136.996 142.213 137.072 141.725 137.072C141.013 137.072 140.441 136.9 140.009 136.556C139.585 136.212 139.373 135.76 139.373 135.2C139.373 134.64 139.577 134.192 139.985 133.856C140.393 133.512 141.041 133.34 141.929 133.34H143.753V133.112C143.753 132.616 143.609 132.236 143.321 131.972C143.033 131.708 142.609 131.576 142.049 131.576C141.673 131.576 141.305 131.64 140.945 131.768C140.585 131.888 140.281 132.052 140.033 132.26L139.553 131.396C139.881 131.132 140.273 130.932 140.729 130.796C141.185 130.652 141.669 130.58 142.181 130.58ZM141.917 136.184C142.357 136.184 142.737 136.088 143.057 135.896C143.377 135.696 143.609 135.416 143.753 135.056V134.168H141.977C141.001 134.168 140.513 134.496 140.513 135.152C140.513 135.472 140.637 135.724 140.885 135.908C141.133 136.092 141.477 136.184 141.917 136.184ZM28.4294 145.58C29.2374 145.58 29.8774 145.816 30.3494 146.288C30.8294 146.752 31.0694 147.436 31.0694 148.34V152H29.9174V148.472C29.9174 147.856 29.7694 147.392 29.4734 147.08C29.1774 146.768 28.7534 146.612 28.2014 146.612C27.5774 146.612 27.0854 146.796 26.7254 147.164C26.3654 147.524 26.1854 148.044 26.1854 148.724V152H25.0334V143.096H26.1854V146.54C26.4254 146.236 26.7374 146 27.1214 145.832C27.5134 145.664 27.9494 145.58 28.4294 145.58ZM35.5174 145.58C36.3974 145.58 37.0694 145.796 37.5334 146.228C38.0054 146.66 38.2414 147.304 38.2414 148.16V152H37.1494V151.16C36.9574 151.456 36.6814 151.684 36.3214 151.844C35.9694 151.996 35.5494 152.072 35.0614 152.072C34.3494 152.072 33.7774 151.9 33.3454 151.556C32.9214 151.212 32.7094 150.76 32.7094 150.2C32.7094 149.64 32.9134 149.192 33.3214 148.856C33.7294 148.512 34.3774 148.34 35.2654 148.34H37.0894V148.112C37.0894 147.616 36.9454 147.236 36.6574 146.972C36.3694 146.708 35.9454 146.576 35.3854 146.576C35.0094 146.576 34.6414 146.64 34.2814 146.768C33.9214 146.888 33.6174 147.052 33.3694 147.26L32.8894 146.396C33.2174 146.132 33.6094 145.932 34.0654 145.796C34.5214 145.652 35.0054 145.58 35.5174 145.58ZM35.2534 151.184C35.6934 151.184 36.0734 151.088 36.3934 150.896C36.7134 150.696 36.9454 150.416 37.0894 150.056V149.168H35.3134C34.3374 149.168 33.8494 149.496 33.8494 150.152C33.8494 150.472 33.9734 150.724 34.2214 150.908C34.4694 151.092 34.8134 151.184 35.2534 151.184ZM43.1804 152.072C42.5324 152.072 41.9524 151.932 41.4404 151.652C40.9364 151.372 40.5404 150.988 40.2524 150.5C39.9644 150.004 39.8204 149.444 39.8204 148.82C39.8204 148.196 39.9644 147.64 40.2524 147.152C40.5404 146.656 40.9364 146.272 41.4404 146C41.9524 145.72 42.5324 145.58 43.1804 145.58C43.7564 145.58 44.2684 145.696 44.7164 145.928C45.1724 146.16 45.5244 146.496 45.7724 146.936L44.8964 147.5C44.6964 147.196 44.4484 146.968 44.1524 146.816C43.8564 146.664 43.5284 146.588 43.1684 146.588C42.7524 146.588 42.3764 146.68 42.0404 146.864C41.7124 147.048 41.4524 147.312 41.2604 147.656C41.0764 147.992 40.9844 148.38 40.9844 148.82C40.9844 149.268 41.0764 149.664 41.2604 150.008C41.4524 150.344 41.7124 150.604 42.0404 150.788C42.3764 150.972 42.7524 151.064 43.1684 151.064C43.5284 151.064 43.8564 150.988 44.1524 150.836C44.4484 150.684 44.6964 150.456 44.8964 150.152L45.7724 150.704C45.5244 151.144 45.1724 151.484 44.7164 151.724C44.2684 151.956 43.7564 152.072 43.1804 152.072ZM47.2639 145.64H48.4159V152H47.2639V145.64ZM47.8399 144.416C47.6159 144.416 47.4279 144.344 47.2759 144.2C47.1319 144.056 47.0599 143.88 47.0599 143.672C47.0599 143.464 47.1319 143.288 47.2759 143.144C47.4279 142.992 47.6159 142.916 47.8399 142.916C48.0639 142.916 48.2479 142.988 48.3919 143.132C48.5439 143.268 48.6199 143.44 48.6199 143.648C48.6199 143.864 48.5439 144.048 48.3919 144.2C48.2479 144.344 48.0639 144.416 47.8399 144.416ZM52.9314 145.58C53.8114 145.58 54.4834 145.796 54.9474 146.228C55.4194 146.66 55.6554 147.304 55.6554 148.16V152H54.5634V151.16C54.3714 151.456 54.0954 151.684 53.7354 151.844C53.3834 151.996 52.9634 152.072 52.4754 152.072C51.7634 152.072 51.1914 151.9 50.7594 151.556C50.3354 151.212 50.1234 150.76 50.1234 150.2C50.1234 149.64 50.3274 149.192 50.7354 148.856C51.1434 148.512 51.7914 148.34 52.6794 148.34H54.5034V148.112C54.5034 147.616 54.3594 147.236 54.0714 146.972C53.7834 146.708 53.3594 146.576 52.7994 146.576C52.4234 146.576 52.0554 146.64 51.6954 146.768C51.3354 146.888 51.0314 147.052 50.7834 147.26L50.3034 146.396C50.6314 146.132 51.0234 145.932 51.4794 145.796C51.9354 145.652 52.4194 145.58 52.9314 145.58ZM52.6674 151.184C53.1074 151.184 53.4874 151.088 53.8074 150.896C54.1274 150.696 54.3594 150.416 54.5034 150.056V149.168H52.7274C51.7514 149.168 51.2634 149.496 51.2634 150.152C51.2634 150.472 51.3874 150.724 51.6354 150.908C51.8834 151.092 52.2274 151.184 52.6674 151.184ZM63.326 145.58C64.206 145.58 64.878 145.796 65.342 146.228C65.814 146.66 66.05 147.304 66.05 148.16V152H64.958V151.16C64.766 151.456 64.49 151.684 64.13 151.844C63.778 151.996 63.358 152.072 62.87 152.072C62.158 152.072 61.586 151.9 61.154 151.556C60.73 151.212 60.518 150.76 60.518 150.2C60.518 149.64 60.722 149.192 61.13 148.856C61.538 148.512 62.186 148.34 63.074 148.34H64.898V148.112C64.898 147.616 64.754 147.236 64.466 146.972C64.178 146.708 63.754 146.576 63.194 146.576C62.818 146.576 62.45 146.64 62.09 146.768C61.73 146.888 61.426 147.052 61.178 147.26L60.698 146.396C61.026 146.132 61.418 145.932 61.874 145.796C62.33 145.652 62.814 145.58 63.326 145.58ZM63.062 151.184C63.502 151.184 63.882 151.088 64.202 150.896C64.522 150.696 64.754 150.416 64.898 150.056V149.168H63.122C62.146 149.168 61.658 149.496 61.658 150.152C61.658 150.472 61.782 150.724 62.03 150.908C62.278 151.092 62.622 151.184 63.062 151.184ZM74.217 143.096V152H73.113V150.992C72.857 151.344 72.533 151.612 72.141 151.796C71.749 151.98 71.317 152.072 70.845 152.072C70.229 152.072 69.677 151.936 69.189 151.664C68.701 151.392 68.317 151.012 68.037 150.524C67.765 150.028 67.629 149.46 67.629 148.82C67.629 148.18 67.765 147.616 68.037 147.128C68.317 146.64 68.701 146.26 69.189 145.988C69.677 145.716 70.229 145.58 70.845 145.58C71.301 145.58 71.721 145.668 72.105 145.844C72.489 146.012 72.809 146.264 73.065 146.6V143.096H74.217ZM70.941 151.064C71.341 151.064 71.705 150.972 72.033 150.788C72.361 150.596 72.617 150.332 72.801 149.996C72.985 149.652 73.077 149.26 73.077 148.82C73.077 148.38 72.985 147.992 72.801 147.656C72.617 147.312 72.361 147.048 72.033 146.864C71.705 146.68 71.341 146.588 70.941 146.588C70.533 146.588 70.165 146.68 69.837 146.864C69.517 147.048 69.261 147.312 69.069 147.656C68.885 147.992 68.793 148.38 68.793 148.82C68.793 149.26 68.885 149.652 69.069 149.996C69.261 150.332 69.517 150.596 69.837 150.788C70.165 150.972 70.533 151.064 70.941 151.064ZM82.1447 148.856C82.1447 148.944 82.1367 149.06 82.1207 149.204H76.9607C77.0327 149.764 77.2767 150.216 77.6927 150.56C78.1167 150.896 78.6407 151.064 79.2647 151.064C80.0247 151.064 80.6367 150.808 81.1007 150.296L81.7367 151.04C81.4487 151.376 81.0887 151.632 80.6567 151.808C80.2327 151.984 79.7567 152.072 79.2287 152.072C78.5567 152.072 77.9607 151.936 77.4407 151.664C76.9207 151.384 76.5167 150.996 76.2287 150.5C75.9487 150.004 75.8087 149.444 75.8087 148.82C75.8087 148.204 75.9447 147.648 76.2167 147.152C76.4967 146.656 76.8767 146.272 77.3567 146C77.8447 145.72 78.3927 145.58 79.0007 145.58C79.6087 145.58 80.1487 145.72 80.6207 146C81.1007 146.272 81.4727 146.656 81.7367 147.152C82.0087 147.648 82.1447 148.216 82.1447 148.856ZM79.0007 146.552C78.4487 146.552 77.9847 146.72 77.6087 147.056C77.2407 147.392 77.0247 147.832 76.9607 148.376H81.0407C80.9767 147.84 80.7567 147.404 80.3807 147.068C80.0127 146.724 79.5527 146.552 79.0007 146.552ZM87.1403 145.58C87.9483 145.58 88.5883 145.816 89.0603 146.288C89.5403 146.752 89.7803 147.436 89.7803 148.34V152H88.6283V148.472C88.6283 147.856 88.4803 147.392 88.1843 147.08C87.8883 146.768 87.4643 146.612 86.9123 146.612C86.2883 146.612 85.7963 146.796 85.4363 147.164C85.0763 147.524 84.8963 148.044 84.8963 148.724V152H83.7443V145.64H84.8483V146.6C85.0803 146.272 85.3923 146.02 85.7843 145.844C86.1843 145.668 86.6363 145.58 87.1403 145.58ZM95.4883 151.628C95.3203 151.772 95.1123 151.884 94.8643 151.964C94.6163 152.036 94.3603 152.072 94.0963 152.072C93.4563 152.072 92.9603 151.9 92.6083 151.556C92.2563 151.212 92.0803 150.72 92.0803 150.08V146.588H91.0003V145.64H92.0803V144.248H93.2323V145.64H95.0563V146.588H93.2323V150.032C93.2323 150.376 93.3163 150.64 93.4843 150.824C93.6603 151.008 93.9083 151.1 94.2283 151.1C94.5803 151.1 94.8803 151 95.1283 150.8L95.4883 151.628ZM97.9851 146.708C98.1851 146.34 98.4811 146.06 98.8731 145.868C99.2651 145.676 99.7411 145.58 100.301 145.58V146.696C100.237 146.688 100.149 146.684 100.037 146.684C99.4131 146.684 98.9211 146.872 98.5611 147.248C98.2091 147.616 98.0331 148.144 98.0331 148.832V152H96.8811V145.64H97.9851V146.708ZM104.386 152.072C103.754 152.072 103.186 151.932 102.682 151.652C102.178 151.372 101.782 150.988 101.494 150.5C101.214 150.004 101.074 149.444 101.074 148.82C101.074 148.196 101.214 147.64 101.494 147.152C101.782 146.656 102.178 146.272 102.682 146C103.186 145.72 103.754 145.58 104.386 145.58C105.018 145.58 105.582 145.72 106.078 146C106.582 146.272 106.974 146.656 107.254 147.152C107.542 147.64 107.686 148.196 107.686 148.82C107.686 149.444 107.542 150.004 107.254 150.5C106.974 150.988 106.582 151.372 106.078 151.652C105.582 151.932 105.018 152.072 104.386 152.072ZM104.386 151.064C104.794 151.064 105.158 150.972 105.478 150.788C105.806 150.596 106.062 150.332 106.246 149.996C106.43 149.652 106.522 149.26 106.522 148.82C106.522 148.38 106.43 147.992 106.246 147.656C106.062 147.312 105.806 147.048 105.478 146.864C105.158 146.68 104.794 146.588 104.386 146.588C103.978 146.588 103.61 146.68 103.282 146.864C102.962 147.048 102.706 147.312 102.514 147.656C102.33 147.992 102.238 148.38 102.238 148.82C102.238 149.26 102.33 149.652 102.514 149.996C102.706 150.332 102.962 150.596 103.282 150.788C103.61 150.972 103.978 151.064 104.386 151.064ZM118.13 145.64L115.046 152.636C114.774 153.284 114.454 153.74 114.086 154.004C113.726 154.268 113.29 154.4 112.778 154.4C112.466 154.4 112.162 154.348 111.866 154.244C111.578 154.148 111.338 154.004 111.146 153.812L111.638 152.948C111.966 153.26 112.346 153.416 112.778 153.416C113.058 153.416 113.29 153.34 113.474 153.188C113.666 153.044 113.838 152.792 113.99 152.432L114.194 151.988L111.386 145.64H112.586L114.806 150.728L117.002 145.64H118.13ZM122.428 143.096H123.58V152H122.428V143.096ZM131.708 145.64V152H130.616V151.04C130.384 151.368 130.076 151.624 129.692 151.808C129.316 151.984 128.904 152.072 128.456 152.072C127.608 152.072 126.94 151.84 126.451 151.376C125.964 150.904 125.72 150.212 125.72 149.3V145.64H126.872V149.168C126.872 149.784 127.02 150.252 127.316 150.572C127.612 150.884 128.036 151.04 128.588 151.04C129.196 151.04 129.676 150.856 130.028 150.488C130.38 150.12 130.556 149.6 130.556 148.928V145.64H131.708ZM139.649 148.856C139.649 148.944 139.641 149.06 139.625 149.204H134.465C134.537 149.764 134.781 150.216 135.197 150.56C135.621 150.896 136.145 151.064 136.769 151.064C137.529 151.064 138.141 150.808 138.605 150.296L139.241 151.04C138.953 151.376 138.593 151.632 138.161 151.808C137.737 151.984 137.261 152.072 136.733 152.072C136.061 152.072 135.465 151.936 134.945 151.664C134.425 151.384 134.021 150.996 133.733 150.5C133.453 150.004 133.313 149.444 133.313 148.82C133.313 148.204 133.449 147.648 133.721 147.152C134.001 146.656 134.381 146.272 134.861 146C135.349 145.72 135.897 145.58 136.505 145.58C137.113 145.58 137.653 145.72 138.125 146C138.605 146.272 138.977 146.656 139.241 147.152C139.513 147.648 139.649 148.216 139.649 148.856ZM136.505 146.552C135.953 146.552 135.489 146.72 135.113 147.056C134.745 147.392 134.529 147.832 134.465 148.376H138.545C138.481 147.84 138.261 147.404 137.885 147.068C137.517 146.724 137.057 146.552 136.505 146.552ZM147.332 145.64V151.136C147.332 152.248 147.056 153.068 146.504 153.596C145.952 154.132 145.128 154.4 144.032 154.4C143.432 154.4 142.86 154.316 142.316 154.148C141.772 153.988 141.332 153.756 140.996 153.452L141.548 152.564C141.844 152.82 142.208 153.02 142.64 153.164C143.08 153.316 143.532 153.392 143.996 153.392C144.74 153.392 145.288 153.216 145.64 152.864C146 152.512 146.18 151.976 146.18 151.256V150.752C145.908 151.08 145.572 151.328 145.172 151.496C144.78 151.656 144.352 151.736 143.888 151.736C143.28 151.736 142.728 151.608 142.232 151.352C141.744 151.088 141.36 150.724 141.08 150.26C140.8 149.788 140.66 149.252 140.66 148.652C140.66 148.052 140.8 147.52 141.08 147.056C141.36 146.584 141.744 146.22 142.232 145.964C142.728 145.708 143.28 145.58 143.888 145.58C144.368 145.58 144.812 145.668 145.22 145.844C145.636 146.02 145.976 146.28 146.24 146.624V145.64H147.332ZM144.02 150.728C144.436 150.728 144.808 150.64 145.136 150.464C145.472 150.288 145.732 150.044 145.916 149.732C146.108 149.412 146.204 149.052 146.204 148.652C146.204 148.036 146 147.54 145.592 147.164C145.184 146.78 144.66 146.588 144.02 146.588C143.372 146.588 142.844 146.78 142.436 147.164C142.028 147.54 141.824 148.036 141.824 148.652C141.824 149.052 141.916 149.412 142.1 149.732C142.292 150.044 142.552 150.288 142.88 150.464C143.216 150.64 143.596 150.728 144.02 150.728ZM152.257 152.072C151.625 152.072 151.057 151.932 150.553 151.652C150.049 151.372 149.653 150.988 149.365 150.5C149.085 150.004 148.945 149.444 148.945 148.82C148.945 148.196 149.085 147.64 149.365 147.152C149.653 146.656 150.049 146.272 150.553 146C151.057 145.72 151.625 145.58 152.257 145.58C152.889 145.58 153.453 145.72 153.949 146C154.453 146.272 154.845 146.656 155.125 147.152C155.413 147.64 155.557 148.196 155.557 148.82C155.557 149.444 155.413 150.004 155.125 150.5C154.845 150.988 154.453 151.372 153.949 151.652C153.453 151.932 152.889 152.072 152.257 152.072ZM152.257 151.064C152.665 151.064 153.029 150.972 153.349 150.788C153.677 150.596 153.933 150.332 154.117 149.996C154.301 149.652 154.393 149.26 154.393 148.82C154.393 148.38 154.301 147.992 154.117 147.656C153.933 147.312 153.677 147.048 153.349 146.864C153.029 146.68 152.665 146.588 152.257 146.588C151.849 146.588 151.481 146.68 151.153 146.864C150.833 147.048 150.577 147.312 150.385 147.656C150.201 147.992 150.109 148.38 150.109 148.82C150.109 149.26 150.201 149.652 150.385 149.996C150.577 150.332 150.833 150.596 151.153 150.788C151.481 150.972 151.849 151.064 152.257 151.064ZM55.7048 160.58C56.5128 160.58 57.1528 160.816 57.6248 161.288C58.1048 161.752 58.3448 162.436 58.3448 163.34V167H57.1928V163.472C57.1928 162.856 57.0448 162.392 56.7488 162.08C56.4528 161.768 56.0288 161.612 55.4768 161.612C54.8528 161.612 54.3608 161.796 54.0008 162.164C53.6408 162.524 53.4608 163.044 53.4608 163.724V167H52.3088V158.096H53.4608V161.54C53.7008 161.236 54.0128 161 54.3968 160.832C54.7888 160.664 55.2248 160.58 55.7048 160.58ZM62.7928 160.58C63.6728 160.58 64.3448 160.796 64.8088 161.228C65.2808 161.66 65.5168 162.304 65.5168 163.16V167H64.4248V166.16C64.2328 166.456 63.9568 166.684 63.5968 166.844C63.2448 166.996 62.8248 167.072 62.3368 167.072C61.6248 167.072 61.0528 166.9 60.6208 166.556C60.1968 166.212 59.9848 165.76 59.9848 165.2C59.9848 164.64 60.1888 164.192 60.5968 163.856C61.0048 163.512 61.6528 163.34 62.5408 163.34H64.3648V163.112C64.3648 162.616 64.2208 162.236 63.9328 161.972C63.6448 161.708 63.2208 161.576 62.6608 161.576C62.2848 161.576 61.9168 161.64 61.5568 161.768C61.1968 161.888 60.8928 162.052 60.6448 162.26L60.1648 161.396C60.4928 161.132 60.8848 160.932 61.3408 160.796C61.7968 160.652 62.2808 160.58 62.7928 160.58ZM62.5288 166.184C62.9688 166.184 63.3488 166.088 63.6688 165.896C63.9888 165.696 64.2208 165.416 64.3648 165.056V164.168H62.5888C61.6128 164.168 61.1248 164.496 61.1248 165.152C61.1248 165.472 61.2488 165.724 61.4968 165.908C61.7448 166.092 62.0888 166.184 62.5288 166.184ZM70.4558 167.072C69.8078 167.072 69.2278 166.932 68.7158 166.652C68.2118 166.372 67.8158 165.988 67.5278 165.5C67.2398 165.004 67.0958 164.444 67.0958 163.82C67.0958 163.196 67.2398 162.64 67.5278 162.152C67.8158 161.656 68.2118 161.272 68.7158 161C69.2278 160.72 69.8078 160.58 70.4558 160.58C71.0318 160.58 71.5438 160.696 71.9918 160.928C72.4478 161.16 72.7998 161.496 73.0478 161.936L72.1718 162.5C71.9718 162.196 71.7238 161.968 71.4278 161.816C71.1318 161.664 70.8038 161.588 70.4438 161.588C70.0278 161.588 69.6518 161.68 69.3158 161.864C68.9878 162.048 68.7278 162.312 68.5358 162.656C68.3518 162.992 68.2598 163.38 68.2598 163.82C68.2598 164.268 68.3518 164.664 68.5358 165.008C68.7278 165.344 68.9878 165.604 69.3158 165.788C69.6518 165.972 70.0278 166.064 70.4438 166.064C70.8038 166.064 71.1318 165.988 71.4278 165.836C71.7238 165.684 71.9718 165.456 72.1718 165.152L73.0478 165.704C72.7998 166.144 72.4478 166.484 71.9918 166.724C71.5438 166.956 71.0318 167.072 70.4558 167.072ZM74.5393 160.64H75.6913V167H74.5393V160.64ZM75.1153 159.416C74.8913 159.416 74.7033 159.344 74.5513 159.2C74.4073 159.056 74.3353 158.88 74.3353 158.672C74.3353 158.464 74.4073 158.288 74.5513 158.144C74.7033 157.992 74.8913 157.916 75.1153 157.916C75.3393 157.916 75.5233 157.988 75.6673 158.132C75.8193 158.268 75.8953 158.44 75.8953 158.648C75.8953 158.864 75.8193 159.048 75.6673 159.2C75.5233 159.344 75.3393 159.416 75.1153 159.416ZM80.2068 160.58C81.0868 160.58 81.7588 160.796 82.2228 161.228C82.6948 161.66 82.9308 162.304 82.9308 163.16V167H81.8388V166.16C81.6468 166.456 81.3708 166.684 81.0108 166.844C80.6588 166.996 80.2388 167.072 79.7508 167.072C79.0388 167.072 78.4668 166.9 78.0348 166.556C77.6108 166.212 77.3988 165.76 77.3988 165.2C77.3988 164.64 77.6028 164.192 78.0108 163.856C78.4188 163.512 79.0668 163.34 79.9548 163.34H81.7788V163.112C81.7788 162.616 81.6348 162.236 81.3468 161.972C81.0588 161.708 80.6348 161.576 80.0748 161.576C79.6988 161.576 79.3308 161.64 78.9708 161.768C78.6108 161.888 78.3068 162.052 78.0588 162.26L77.5788 161.396C77.9068 161.132 78.2988 160.932 78.7548 160.796C79.2108 160.652 79.6948 160.58 80.2068 160.58ZM79.9428 166.184C80.3828 166.184 80.7628 166.088 81.0828 165.896C81.4028 165.696 81.6348 165.416 81.7788 165.056V164.168H80.0028C79.0268 164.168 78.5388 164.496 78.5388 165.152C78.5388 165.472 78.6628 165.724 78.9108 165.908C79.1588 166.092 79.5028 166.184 79.9428 166.184ZM90.6014 160.58C91.4814 160.58 92.1534 160.796 92.6174 161.228C93.0894 161.66 93.3254 162.304 93.3254 163.16V167H92.2334V166.16C92.0414 166.456 91.7654 166.684 91.4054 166.844C91.0534 166.996 90.6334 167.072 90.1454 167.072C89.4334 167.072 88.8614 166.9 88.4294 166.556C88.0054 166.212 87.7934 165.76 87.7934 165.2C87.7934 164.64 87.9974 164.192 88.4054 163.856C88.8134 163.512 89.4614 163.34 90.3494 163.34H92.1734V163.112C92.1734 162.616 92.0294 162.236 91.7414 161.972C91.4534 161.708 91.0294 161.576 90.4694 161.576C90.0934 161.576 89.7254 161.64 89.3654 161.768C89.0054 161.888 88.7014 162.052 88.4534 162.26L87.9734 161.396C88.3014 161.132 88.6934 160.932 89.1494 160.796C89.6054 160.652 90.0894 160.58 90.6014 160.58ZM90.3374 166.184C90.7774 166.184 91.1574 166.088 91.4774 165.896C91.7974 165.696 92.0294 165.416 92.1734 165.056V164.168H90.3974C89.4214 164.168 88.9334 164.496 88.9334 165.152C88.9334 165.472 89.0574 165.724 89.3054 165.908C89.5534 166.092 89.8974 166.184 90.3374 166.184ZM97.7852 158.972C97.0972 158.972 96.7532 159.344 96.7532 160.088V160.64H98.6012V161.588H96.7772V167H95.6252V161.588H94.5452V160.64H95.6252V160.076C95.6252 159.444 95.8092 158.944 96.1772 158.576C96.5452 158.208 97.0612 158.024 97.7252 158.024C97.9812 158.024 98.2212 158.056 98.4452 158.12C98.6692 158.184 98.8612 158.276 99.0212 158.396L98.6732 159.272C98.4092 159.072 98.1132 158.972 97.7852 158.972ZM105.616 160.64V167H104.524V166.04C104.292 166.368 103.984 166.624 103.6 166.808C103.224 166.984 102.812 167.072 102.364 167.072C101.516 167.072 100.848 166.84 100.36 166.376C99.8717 165.904 99.6277 165.212 99.6277 164.3V160.64H100.78V164.168C100.78 164.784 100.928 165.252 101.224 165.572C101.52 165.884 101.944 166.04 102.496 166.04C103.104 166.04 103.584 165.856 103.936 165.488C104.288 165.12 104.464 164.6 104.464 163.928V160.64H105.616ZM113.557 163.856C113.557 163.944 113.549 164.06 113.533 164.204H108.373C108.445 164.764 108.689 165.216 109.105 165.56C109.529 165.896 110.053 166.064 110.677 166.064C111.437 166.064 112.049 165.808 112.513 165.296L113.149 166.04C112.861 166.376 112.501 166.632 112.069 166.808C111.645 166.984 111.169 167.072 110.641 167.072C109.969 167.072 109.373 166.936 108.853 166.664C108.333 166.384 107.929 165.996 107.641 165.5C107.361 165.004 107.221 164.444 107.221 163.82C107.221 163.204 107.357 162.648 107.629 162.152C107.909 161.656 108.289 161.272 108.769 161C109.257 160.72 109.805 160.58 110.413 160.58C111.021 160.58 111.561 160.72 112.033 161C112.513 161.272 112.885 161.656 113.149 162.152C113.421 162.648 113.557 163.216 113.557 163.856ZM110.413 161.552C109.861 161.552 109.397 161.72 109.021 162.056C108.653 162.392 108.437 162.832 108.373 163.376H112.453C112.389 162.84 112.169 162.404 111.793 162.068C111.425 161.724 110.965 161.552 110.413 161.552ZM116.26 161.708C116.46 161.34 116.756 161.06 117.148 160.868C117.54 160.676 118.016 160.58 118.576 160.58V161.696C118.512 161.688 118.424 161.684 118.312 161.684C117.688 161.684 117.196 161.872 116.836 162.248C116.484 162.616 116.308 163.144 116.308 163.832V167H115.156V160.64H116.26V161.708ZM122.301 160.58C123.181 160.58 123.853 160.796 124.317 161.228C124.789 161.66 125.025 162.304 125.025 163.16V167H123.933V166.16C123.741 166.456 123.465 166.684 123.105 166.844C122.753 166.996 122.333 167.072 121.845 167.072C121.133 167.072 120.561 166.9 120.129 166.556C119.705 166.212 119.493 165.76 119.493 165.2C119.493 164.64 119.697 164.192 120.105 163.856C120.513 163.512 121.161 163.34 122.049 163.34H123.873V163.112C123.873 162.616 123.729 162.236 123.441 161.972C123.153 161.708 122.729 161.576 122.169 161.576C121.793 161.576 121.425 161.64 121.065 161.768C120.705 161.888 120.401 162.052 120.153 162.26L119.673 161.396C120.001 161.132 120.393 160.932 120.849 160.796C121.305 160.652 121.789 160.58 122.301 160.58ZM122.037 166.184C122.477 166.184 122.857 166.088 123.177 165.896C123.497 165.696 123.729 165.416 123.873 165.056V164.168H122.097C121.121 164.168 120.633 164.496 120.633 165.152C120.633 165.472 120.757 165.724 121.005 165.908C121.253 166.092 121.597 166.184 122.037 166.184ZM127.432 167.072C127.208 167.072 127.016 166.996 126.856 166.844C126.696 166.684 126.616 166.484 126.616 166.244C126.616 166.012 126.696 165.82 126.856 165.668C127.016 165.508 127.208 165.428 127.432 165.428C127.656 165.428 127.844 165.504 127.996 165.656C128.148 165.808 128.224 166.004 128.224 166.244C128.224 166.484 128.144 166.684 127.984 166.844C127.832 166.996 127.648 167.072 127.432 167.072Z" fill="#008E86"/>
<path d="M58 45.5L64.5 74L80.3138 71.8617L74.6569 49.9414L70.5 30L58 45.5Z" fill="#008E86" stroke="#00635D" stroke-width="2" stroke-linejoin="round"/>
<path d="M70.5003 30L117.095 76.8218L70.7673 77.1627L62.5 47L70.5003 30Z" fill="#00D8CC" stroke="#00635D" stroke-width="2" stroke-linejoin="round"/>
<path d="M93.5 53L93.5 77" stroke="#333333" stroke-width="2" stroke-dasharray="4 4"/>
<path d="M99.5 60L99.5 77" stroke="#333333" stroke-width="2" stroke-dasharray="4 4"/>
<path d="M88.8541 78.5368C88.3044 78.4836 87.8156 78.8861 87.7624 79.4359C87.7092 79.9856 88.1118 80.4743 88.6615 80.5275L88.8541 78.5368ZM122.189 86.6328C122.615 86.2817 122.676 85.6515 122.325 85.2252L116.603 78.278C116.252 77.8517 115.622 77.7907 115.196 78.1418C114.769 78.4929 114.708 79.1231 115.059 79.5495L120.145 85.7247L113.97 90.8106C113.544 91.1617 113.483 91.7919 113.834 92.2182C114.185 92.6445 114.815 92.7055 115.241 92.3544L122.189 86.6328ZM106.381 81.2371L106.893 82.0956C107.264 81.8741 107.451 81.4394 107.356 81.0179C107.262 80.5964 106.907 80.2833 106.477 80.2417L106.381 81.2371ZM102.252 83.9937L101.74 83.1352C101.369 83.3567 101.182 83.7914 101.277 84.2129C101.371 84.6344 101.726 84.9475 102.156 84.9891L102.252 83.9937ZM88.6615 80.5275C92.175 80.8674 99.9432 81.6189 106.284 82.2324L106.477 80.2417C100.136 79.6282 92.3676 78.8767 88.8541 78.5368L88.6615 80.5275ZM105.868 80.3785C104.689 81.0829 104.286 81.4001 103.847 81.739C103.464 82.0349 103.034 82.3624 101.74 83.1352L102.765 84.8523C104.124 84.0407 104.621 83.6688 105.07 83.322C105.463 83.0182 105.799 82.7493 106.893 82.0956L105.868 80.3785ZM102.156 84.9891C105.932 85.3544 118.59 86.5789 121.457 86.8563L121.649 84.8655C118.782 84.5882 106.125 83.3637 102.349 82.9984L102.156 84.9891Z" fill="black"/>
<path d="M62.5 46.5L71.12 76.8101L80.3138 71.8617L74.6569 49.9414L67.5 37L62.5 46.5Z" fill="#008E86" stroke="#00635D" stroke-width="2" stroke-linejoin="round"/>
<path d="M62.5 47L93.5 30.5L70.5 30L62.5 47Z" fill="#008E86" stroke="#00635D" stroke-width="2" stroke-linejoin="round"/>
<path d="M69.707 55.0589L79.7743 71.1546L74.8245 49.9414L69.707 55.0589Z" fill="#00D8CC" stroke="#00635D" stroke-width="2" stroke-linejoin="round"/>
<path d="M69.707 55.0593L79.7743 71.155L84.0169 63.3769L69.707 55.0593Z" fill="#008E86" stroke="#00635D" stroke-width="2" stroke-linejoin="round"/>
</g>
<defs>
<clipPath id="clip0_5717_206365">
<rect width="180" height="180" rx="20" fill="white"/>
</clipPath>
<clipPath id="clip1_5717_206365">
<path d="M0 30L-1.31134e-06 0L30 -1.31134e-06L30 10C30 21.0457 21.0457 30 10 30L0 30Z" fill="white"/>
</clipPath>
</defs>
</svg>
