<svg width="180" height="180" viewBox="0 0 180 180" fill="none" xmlns="http://www.w3.org/2000/svg">
<g clip-path="url(#clip0_5726_207355)">
<rect width="180" height="180" rx="20" fill="#F2F2F2"/>
<g clip-path="url(#clip1_5726_207355)">
<path d="M0 30L-1.31134e-06 0L30 -1.31134e-06L30 10C30 21.0457 21.0457 30 10 30L0 30Z" fill="#333333"/>
<path d="M20.3644 18.648H18.5404V21H16.0124V18.648H9.98038V16.904L15.2604 9.8H17.9804L13.0844 16.536H16.0924V14.44H18.5404V16.536H20.3644V18.648Z" fill="#F2F2F2"/>
</g>
<path d="M15.2756 128.6H18.8156C19.7036 128.6 20.4916 128.776 21.1796 129.128C21.8676 129.48 22.3996 129.976 22.7756 130.616C23.1596 131.248 23.3516 131.976 23.3516 132.8C23.3516 133.624 23.1596 134.356 22.7756 134.996C22.3996 135.628 21.8676 136.12 21.1796 136.472C20.4916 136.824 19.7036 137 18.8156 137H15.2756V128.6ZM18.7436 135.956C19.4236 135.956 20.0196 135.824 20.5316 135.56C21.0516 135.296 21.4516 134.928 21.7316 134.456C22.0116 133.976 22.1516 133.424 22.1516 132.8C22.1516 132.176 22.0116 131.628 21.7316 131.156C21.4516 130.676 21.0516 130.304 20.5316 130.04C20.0196 129.776 19.4236 129.644 18.7436 129.644H16.4756V135.956H18.7436ZM27.7457 137.072C27.1137 137.072 26.5457 136.932 26.0417 136.652C25.5377 136.372 25.1417 135.988 24.8537 135.5C24.5737 135.004 24.4337 134.444 24.4337 133.82C24.4337 133.196 24.5737 132.64 24.8537 132.152C25.1417 131.656 25.5377 131.272 26.0417 131C26.5457 130.72 27.1137 130.58 27.7457 130.58C28.3777 130.58 28.9417 130.72 29.4377 131C29.9417 131.272 30.3337 131.656 30.6137 132.152C30.9017 132.64 31.0457 133.196 31.0457 133.82C31.0457 134.444 30.9017 135.004 30.6137 135.5C30.3337 135.988 29.9417 136.372 29.4377 136.652C28.9417 136.932 28.3777 137.072 27.7457 137.072ZM27.7457 136.064C28.1537 136.064 28.5177 135.972 28.8377 135.788C29.1657 135.596 29.4217 135.332 29.6057 134.996C29.7897 134.652 29.8817 134.26 29.8817 133.82C29.8817 133.38 29.7897 132.992 29.6057 132.656C29.4217 132.312 29.1657 132.048 28.8377 131.864C28.5177 131.68 28.1537 131.588 27.7457 131.588C27.3377 131.588 26.9697 131.68 26.6417 131.864C26.3217 132.048 26.0657 132.312 25.8737 132.656C25.6897 132.992 25.5977 133.38 25.5977 133.82C25.5977 134.26 25.6897 134.652 25.8737 134.996C26.0657 135.332 26.3217 135.596 26.6417 135.788C26.9697 135.972 27.3377 136.064 27.7457 136.064ZM36.0109 130.58C36.6269 130.58 37.1789 130.716 37.6669 130.988C38.1549 131.26 38.5349 131.64 38.8069 132.128C39.0869 132.616 39.2269 133.18 39.2269 133.82C39.2269 134.46 39.0869 135.028 38.8069 135.524C38.5349 136.012 38.1549 136.392 37.6669 136.664C37.1789 136.936 36.6269 137.072 36.0109 137.072C35.5389 137.072 35.1069 136.98 34.7149 136.796C34.3229 136.612 33.9989 136.344 33.7429 135.992V137H32.6389V128.096H33.7909V131.6C34.0469 131.264 34.3669 131.012 34.7509 130.844C35.1349 130.668 35.5549 130.58 36.0109 130.58ZM35.9149 136.064C36.3229 136.064 36.6869 135.972 37.0069 135.788C37.3349 135.596 37.5909 135.332 37.7749 134.996C37.9669 134.652 38.0629 134.26 38.0629 133.82C38.0629 133.38 37.9669 132.992 37.7749 132.656C37.5909 132.312 37.3349 132.048 37.0069 131.864C36.6869 131.68 36.3229 131.588 35.9149 131.588C35.5149 131.588 35.1509 131.68 34.8229 131.864C34.4949 132.048 34.2389 132.312 34.0549 132.656C33.8709 132.992 33.7789 133.38 33.7789 133.82C33.7789 134.26 33.8709 134.652 34.0549 134.996C34.2389 135.332 34.4949 135.596 34.8229 135.788C35.1509 135.972 35.5149 136.064 35.9149 136.064ZM40.8186 128.096H41.9706V137H40.8186V128.096ZM46.4861 130.58C47.3661 130.58 48.0381 130.796 48.5021 131.228C48.9741 131.66 49.2101 132.304 49.2101 133.16V137H48.1181V136.16C47.9261 136.456 47.6501 136.684 47.2901 136.844C46.9381 136.996 46.5181 137.072 46.0301 137.072C45.3181 137.072 44.7461 136.9 44.3141 136.556C43.8901 136.212 43.6781 135.76 43.6781 135.2C43.6781 134.64 43.8821 134.192 44.2901 133.856C44.6981 133.512 45.3461 133.34 46.2341 133.34H48.0581V133.112C48.0581 132.616 47.9141 132.236 47.6261 131.972C47.3381 131.708 46.9141 131.576 46.3541 131.576C45.9781 131.576 45.6101 131.64 45.2501 131.768C44.8901 131.888 44.5861 132.052 44.3381 132.26L43.8581 131.396C44.1861 131.132 44.5781 130.932 45.0341 130.796C45.4901 130.652 45.9741 130.58 46.4861 130.58ZM46.2221 136.184C46.6621 136.184 47.0421 136.088 47.3621 135.896C47.6821 135.696 47.9141 135.416 48.0581 135.056V134.168H46.2821C45.3061 134.168 44.8181 134.496 44.8181 135.152C44.8181 135.472 44.9421 135.724 45.1901 135.908C45.4381 136.092 45.7821 136.184 46.2221 136.184ZM54.5647 128.096H55.7167V137H54.5647V128.096ZM60.6402 137.072C60.0082 137.072 59.4402 136.932 58.9362 136.652C58.4322 136.372 58.0362 135.988 57.7482 135.5C57.4682 135.004 57.3282 134.444 57.3282 133.82C57.3282 133.196 57.4682 132.64 57.7482 132.152C58.0362 131.656 58.4322 131.272 58.9362 131C59.4402 130.72 60.0082 130.58 60.6402 130.58C61.2722 130.58 61.8362 130.72 62.3322 131C62.8362 131.272 63.2282 131.656 63.5082 132.152C63.7962 132.64 63.9402 133.196 63.9402 133.82C63.9402 134.444 63.7962 135.004 63.5082 135.5C63.2282 135.988 62.8362 136.372 62.3322 136.652C61.8362 136.932 61.2722 137.072 60.6402 137.072ZM60.6402 136.064C61.0482 136.064 61.4122 135.972 61.7322 135.788C62.0602 135.596 62.3162 135.332 62.5002 134.996C62.6842 134.652 62.7762 134.26 62.7762 133.82C62.7762 133.38 62.6842 132.992 62.5002 132.656C62.3162 132.312 62.0602 132.048 61.7322 131.864C61.4122 131.68 61.0482 131.588 60.6402 131.588C60.2322 131.588 59.8642 131.68 59.5362 131.864C59.2162 132.048 58.9602 132.312 58.7682 132.656C58.5842 132.992 58.4922 133.38 58.4922 133.82C58.4922 134.26 58.5842 134.652 58.7682 134.996C58.9602 135.332 59.2162 135.596 59.5362 135.788C59.8642 135.972 60.2322 136.064 60.6402 136.064ZM67.3574 137.072C66.8374 137.072 66.3374 137.004 65.8574 136.868C65.3774 136.724 65.0014 136.544 64.7294 136.328L65.2094 135.416C65.4894 135.616 65.8294 135.776 66.2294 135.896C66.6294 136.016 67.0334 136.076 67.4414 136.076C68.4494 136.076 68.9534 135.788 68.9534 135.212C68.9534 135.02 68.8854 134.868 68.7494 134.756C68.6134 134.644 68.4414 134.564 68.2334 134.516C68.0334 134.46 67.7454 134.4 67.3694 134.336C66.8574 134.256 66.4374 134.164 66.1094 134.06C65.7894 133.956 65.5134 133.78 65.2814 133.532C65.0494 133.284 64.9334 132.936 64.9334 132.488C64.9334 131.912 65.1734 131.452 65.6534 131.108C66.1334 130.756 66.7774 130.58 67.5854 130.58C68.0094 130.58 68.4334 130.632 68.8574 130.736C69.2814 130.84 69.6294 130.98 69.9014 131.156L69.4094 132.068C68.8894 131.732 68.2774 131.564 67.5734 131.564C67.0854 131.564 66.7134 131.644 66.4574 131.804C66.2014 131.964 66.0734 132.176 66.0734 132.44C66.0734 132.648 66.1454 132.812 66.2894 132.932C66.4334 133.052 66.6094 133.14 66.8174 133.196C67.0334 133.252 67.3334 133.316 67.7174 133.388C68.2294 133.476 68.6414 133.572 68.9534 133.676C69.2734 133.772 69.5454 133.94 69.7694 134.18C69.9934 134.42 70.1054 134.756 70.1054 135.188C70.1054 135.764 69.8574 136.224 69.3614 136.568C68.8734 136.904 68.2054 137.072 67.3574 137.072ZM77.5398 137.072C76.8918 137.072 76.3118 136.932 75.7998 136.652C75.2958 136.372 74.8998 135.988 74.6118 135.5C74.3238 135.004 74.1798 134.444 74.1798 133.82C74.1798 133.196 74.3238 132.64 74.6118 132.152C74.8998 131.656 75.2958 131.272 75.7998 131C76.3118 130.72 76.8918 130.58 77.5398 130.58C78.1158 130.58 78.6278 130.696 79.0758 130.928C79.5318 131.16 79.8838 131.496 80.1318 131.936L79.2558 132.5C79.0558 132.196 78.8078 131.968 78.5118 131.816C78.2158 131.664 77.8878 131.588 77.5278 131.588C77.1118 131.588 76.7358 131.68 76.3998 131.864C76.0718 132.048 75.8118 132.312 75.6198 132.656C75.4358 132.992 75.3438 133.38 75.3438 133.82C75.3438 134.268 75.4358 134.664 75.6198 135.008C75.8118 135.344 76.0718 135.604 76.3998 135.788C76.7358 135.972 77.1118 136.064 77.5278 136.064C77.8878 136.064 78.2158 135.988 78.5118 135.836C78.8078 135.684 79.0558 135.456 79.2558 135.152L80.1318 135.704C79.8838 136.144 79.5318 136.484 79.0758 136.724C78.6278 136.956 78.1158 137.072 77.5398 137.072ZM84.2535 137.072C83.6215 137.072 83.0535 136.932 82.5495 136.652C82.0455 136.372 81.6495 135.988 81.3615 135.5C81.0815 135.004 80.9415 134.444 80.9415 133.82C80.9415 133.196 81.0815 132.64 81.3615 132.152C81.6495 131.656 82.0455 131.272 82.5495 131C83.0535 130.72 83.6215 130.58 84.2535 130.58C84.8855 130.58 85.4495 130.72 85.9455 131C86.4495 131.272 86.8415 131.656 87.1215 132.152C87.4095 132.64 87.5535 133.196 87.5535 133.82C87.5535 134.444 87.4095 135.004 87.1215 135.5C86.8415 135.988 86.4495 136.372 85.9455 136.652C85.4495 136.932 84.8855 137.072 84.2535 137.072ZM84.2535 136.064C84.6615 136.064 85.0255 135.972 85.3455 135.788C85.6735 135.596 85.9295 135.332 86.1135 134.996C86.2975 134.652 86.3895 134.26 86.3895 133.82C86.3895 133.38 86.2975 132.992 86.1135 132.656C85.9295 132.312 85.6735 132.048 85.3455 131.864C85.0255 131.68 84.6615 131.588 84.2535 131.588C83.8455 131.588 83.4775 131.68 83.1495 131.864C82.8295 132.048 82.5735 132.312 82.3815 132.656C82.1975 132.992 82.1055 133.38 82.1055 133.82C82.1055 134.26 82.1975 134.652 82.3815 134.996C82.5735 135.332 82.8295 135.596 83.1495 135.788C83.4775 135.972 83.8455 136.064 84.2535 136.064ZM90.9707 137.072C90.4507 137.072 89.9507 137.004 89.4707 136.868C88.9907 136.724 88.6147 136.544 88.3427 136.328L88.8227 135.416C89.1027 135.616 89.4427 135.776 89.8427 135.896C90.2427 136.016 90.6467 136.076 91.0547 136.076C92.0627 136.076 92.5667 135.788 92.5667 135.212C92.5667 135.02 92.4987 134.868 92.3627 134.756C92.2267 134.644 92.0547 134.564 91.8467 134.516C91.6467 134.46 91.3587 134.4 90.9827 134.336C90.4707 134.256 90.0507 134.164 89.7227 134.06C89.4027 133.956 89.1267 133.78 88.8947 133.532C88.6627 133.284 88.5467 132.936 88.5467 132.488C88.5467 131.912 88.7867 131.452 89.2667 131.108C89.7467 130.756 90.3907 130.58 91.1987 130.58C91.6227 130.58 92.0467 130.632 92.4707 130.736C92.8947 130.84 93.2427 130.98 93.5147 131.156L93.0227 132.068C92.5027 131.732 91.8907 131.564 91.1867 131.564C90.6987 131.564 90.3267 131.644 90.0707 131.804C89.8147 131.964 89.6867 132.176 89.6867 132.44C89.6867 132.648 89.7587 132.812 89.9027 132.932C90.0467 133.052 90.2227 133.14 90.4307 133.196C90.6467 133.252 90.9467 133.316 91.3307 133.388C91.8427 133.476 92.2547 133.572 92.5667 133.676C92.8867 133.772 93.1587 133.94 93.3827 134.18C93.6067 134.42 93.7187 134.756 93.7187 135.188C93.7187 135.764 93.4707 136.224 92.9747 136.568C92.4867 136.904 91.8187 137.072 90.9707 137.072ZM98.7344 136.628C98.5664 136.772 98.3584 136.884 98.1104 136.964C97.8624 137.036 97.6064 137.072 97.3424 137.072C96.7024 137.072 96.2064 136.9 95.8544 136.556C95.5024 136.212 95.3264 135.72 95.3264 135.08V131.588H94.2464V130.64H95.3264V129.248H96.4784V130.64H98.3024V131.588H96.4784V135.032C96.4784 135.376 96.5624 135.64 96.7304 135.824C96.9064 136.008 97.1544 136.1 97.4744 136.1C97.8264 136.1 98.1264 136 98.3744 135.8L98.7344 136.628ZM102.443 130.58C103.323 130.58 103.995 130.796 104.459 131.228C104.931 131.66 105.167 132.304 105.167 133.16V137H104.075V136.16C103.883 136.456 103.607 136.684 103.247 136.844C102.895 136.996 102.475 137.072 101.987 137.072C101.275 137.072 100.703 136.9 100.271 136.556C99.8472 136.212 99.6352 135.76 99.6352 135.2C99.6352 134.64 99.8392 134.192 100.247 133.856C100.655 133.512 101.303 133.34 102.191 133.34H104.015V133.112C104.015 132.616 103.871 132.236 103.583 131.972C103.295 131.708 102.871 131.576 102.311 131.576C101.935 131.576 101.567 131.64 101.207 131.768C100.847 131.888 100.543 132.052 100.295 132.26L99.8152 131.396C100.143 131.132 100.535 130.932 100.991 130.796C101.447 130.652 101.931 130.58 102.443 130.58ZM102.179 136.184C102.619 136.184 102.999 136.088 103.319 135.896C103.639 135.696 103.871 135.416 104.015 135.056V134.168H102.239C101.263 134.168 100.775 134.496 100.775 135.152C100.775 135.472 100.899 135.724 101.147 135.908C101.395 136.092 101.739 136.184 102.179 136.184ZM113.334 128.096V137H112.23V135.992C111.974 136.344 111.65 136.612 111.258 136.796C110.866 136.98 110.434 137.072 109.962 137.072C109.346 137.072 108.794 136.936 108.306 136.664C107.818 136.392 107.434 136.012 107.154 135.524C106.882 135.028 106.746 134.46 106.746 133.82C106.746 133.18 106.882 132.616 107.154 132.128C107.434 131.64 107.818 131.26 108.306 130.988C108.794 130.716 109.346 130.58 109.962 130.58C110.418 130.58 110.838 130.668 111.222 130.844C111.606 131.012 111.926 131.264 112.182 131.6V128.096H113.334ZM110.058 136.064C110.458 136.064 110.822 135.972 111.15 135.788C111.478 135.596 111.734 135.332 111.918 134.996C112.102 134.652 112.194 134.26 112.194 133.82C112.194 133.38 112.102 132.992 111.918 132.656C111.734 132.312 111.478 132.048 111.15 131.864C110.822 131.68 110.458 131.588 110.058 131.588C109.65 131.588 109.282 131.68 108.954 131.864C108.634 132.048 108.378 132.312 108.186 132.656C108.002 132.992 107.91 133.38 107.91 133.82C107.91 134.26 108.002 134.652 108.186 134.996C108.378 135.332 108.634 135.596 108.954 135.788C109.282 135.972 109.65 136.064 110.058 136.064ZM118.238 137.072C117.606 137.072 117.038 136.932 116.534 136.652C116.03 136.372 115.634 135.988 115.346 135.5C115.066 135.004 114.926 134.444 114.926 133.82C114.926 133.196 115.066 132.64 115.346 132.152C115.634 131.656 116.03 131.272 116.534 131C117.038 130.72 117.606 130.58 118.238 130.58C118.87 130.58 119.434 130.72 119.93 131C120.434 131.272 120.826 131.656 121.106 132.152C121.394 132.64 121.538 133.196 121.538 133.82C121.538 134.444 121.394 135.004 121.106 135.5C120.826 135.988 120.434 136.372 119.93 136.652C119.434 136.932 118.87 137.072 118.238 137.072ZM118.238 136.064C118.646 136.064 119.01 135.972 119.33 135.788C119.658 135.596 119.914 135.332 120.098 134.996C120.282 134.652 120.374 134.26 120.374 133.82C120.374 133.38 120.282 132.992 120.098 132.656C119.914 132.312 119.658 132.048 119.33 131.864C119.01 131.68 118.646 131.588 118.238 131.588C117.83 131.588 117.462 131.68 117.134 131.864C116.814 132.048 116.558 132.312 116.366 132.656C116.182 132.992 116.09 133.38 116.09 133.82C116.09 134.26 116.182 134.652 116.366 134.996C116.558 135.332 116.814 135.596 117.134 135.788C117.462 135.972 117.83 136.064 118.238 136.064ZM124.955 137.072C124.435 137.072 123.935 137.004 123.455 136.868C122.975 136.724 122.599 136.544 122.327 136.328L122.807 135.416C123.087 135.616 123.427 135.776 123.827 135.896C124.227 136.016 124.631 136.076 125.039 136.076C126.047 136.076 126.551 135.788 126.551 135.212C126.551 135.02 126.483 134.868 126.347 134.756C126.211 134.644 126.039 134.564 125.831 134.516C125.631 134.46 125.343 134.4 124.967 134.336C124.455 134.256 124.035 134.164 123.707 134.06C123.387 133.956 123.111 133.78 122.879 133.532C122.647 133.284 122.531 132.936 122.531 132.488C122.531 131.912 122.771 131.452 123.251 131.108C123.731 130.756 124.375 130.58 125.183 130.58C125.607 130.58 126.031 130.632 126.455 130.736C126.879 130.84 127.227 130.98 127.499 131.156L127.007 132.068C126.487 131.732 125.875 131.564 125.171 131.564C124.683 131.564 124.311 131.644 124.055 131.804C123.799 131.964 123.671 132.176 123.671 132.44C123.671 132.648 123.743 132.812 123.887 132.932C124.031 133.052 124.207 133.14 124.415 133.196C124.631 133.252 124.931 133.316 125.315 133.388C125.827 133.476 126.239 133.572 126.551 133.676C126.871 133.772 127.143 133.94 127.367 134.18C127.591 134.42 127.703 134.756 127.703 135.188C127.703 135.764 127.455 136.224 126.959 136.568C126.471 136.904 125.803 137.072 124.955 137.072ZM135.137 137.072C134.489 137.072 133.909 136.932 133.397 136.652C132.893 136.372 132.497 135.988 132.209 135.5C131.921 135.004 131.777 134.444 131.777 133.82C131.777 133.196 131.921 132.64 132.209 132.152C132.497 131.656 132.893 131.272 133.397 131C133.909 130.72 134.489 130.58 135.137 130.58C135.713 130.58 136.225 130.696 136.673 130.928C137.129 131.16 137.481 131.496 137.729 131.936L136.853 132.5C136.653 132.196 136.405 131.968 136.109 131.816C135.813 131.664 135.485 131.588 135.125 131.588C134.709 131.588 134.333 131.68 133.997 131.864C133.669 132.048 133.409 132.312 133.217 132.656C133.033 132.992 132.941 133.38 132.941 133.82C132.941 134.268 133.033 134.664 133.217 135.008C133.409 135.344 133.669 135.604 133.997 135.788C134.333 135.972 134.709 136.064 135.125 136.064C135.485 136.064 135.813 135.988 136.109 135.836C136.405 135.684 136.653 135.456 136.853 135.152L137.729 135.704C137.481 136.144 137.129 136.484 136.673 136.724C136.225 136.956 135.713 137.072 135.137 137.072ZM141.851 137.072C141.219 137.072 140.651 136.932 140.147 136.652C139.643 136.372 139.247 135.988 138.959 135.5C138.679 135.004 138.539 134.444 138.539 133.82C138.539 133.196 138.679 132.64 138.959 132.152C139.247 131.656 139.643 131.272 140.147 131C140.651 130.72 141.219 130.58 141.851 130.58C142.483 130.58 143.047 130.72 143.543 131C144.047 131.272 144.439 131.656 144.719 132.152C145.007 132.64 145.151 133.196 145.151 133.82C145.151 134.444 145.007 135.004 144.719 135.5C144.439 135.988 144.047 136.372 143.543 136.652C143.047 136.932 142.483 137.072 141.851 137.072ZM141.851 136.064C142.259 136.064 142.623 135.972 142.943 135.788C143.271 135.596 143.527 135.332 143.711 134.996C143.895 134.652 143.987 134.26 143.987 133.82C143.987 133.38 143.895 132.992 143.711 132.656C143.527 132.312 143.271 132.048 142.943 131.864C142.623 131.68 142.259 131.588 141.851 131.588C141.443 131.588 141.075 131.68 140.747 131.864C140.427 132.048 140.171 132.312 139.979 132.656C139.795 132.992 139.703 133.38 139.703 133.82C139.703 134.26 139.795 134.652 139.979 134.996C140.171 135.332 140.427 135.596 140.747 135.788C141.075 135.972 141.443 136.064 141.851 136.064ZM154.7 130.58C155.5 130.58 156.132 130.812 156.596 131.276C157.068 131.74 157.304 132.428 157.304 133.34V137H156.152V133.472C156.152 132.856 156.008 132.392 155.72 132.08C155.44 131.768 155.036 131.612 154.508 131.612C153.924 131.612 153.46 131.796 153.116 132.164C152.772 132.524 152.6 133.044 152.6 133.724V137H151.448V133.472C151.448 132.856 151.304 132.392 151.016 132.08C150.736 131.768 150.332 131.612 149.804 131.612C149.22 131.612 148.756 131.796 148.412 132.164C148.068 132.524 147.896 133.044 147.896 133.724V137H146.744V130.64H147.848V131.588C148.08 131.26 148.384 131.012 148.76 130.844C149.136 130.668 149.564 130.58 150.044 130.58C150.54 130.58 150.98 130.68 151.364 130.88C151.748 131.08 152.044 131.372 152.252 131.756C152.492 131.388 152.824 131.1 153.248 130.892C153.68 130.684 154.164 130.58 154.7 130.58ZM162.183 137.072C161.551 137.072 160.983 136.932 160.479 136.652C159.975 136.372 159.579 135.988 159.291 135.5C159.011 135.004 158.871 134.444 158.871 133.82C158.871 133.196 159.011 132.64 159.291 132.152C159.579 131.656 159.975 131.272 160.479 131C160.983 130.72 161.551 130.58 162.183 130.58C162.815 130.58 163.379 130.72 163.875 131C164.379 131.272 164.771 131.656 165.051 132.152C165.339 132.64 165.483 133.196 165.483 133.82C165.483 134.444 165.339 135.004 165.051 135.5C164.771 135.988 164.379 136.372 163.875 136.652C163.379 136.932 162.815 137.072 162.183 137.072ZM162.183 136.064C162.591 136.064 162.955 135.972 163.275 135.788C163.603 135.596 163.859 135.332 164.043 134.996C164.227 134.652 164.319 134.26 164.319 133.82C164.319 133.38 164.227 132.992 164.043 132.656C163.859 132.312 163.603 132.048 163.275 131.864C162.955 131.68 162.591 131.588 162.183 131.588C161.775 131.588 161.407 131.68 161.079 131.864C160.759 132.048 160.503 132.312 160.311 132.656C160.127 132.992 160.035 133.38 160.035 133.82C160.035 134.26 160.127 134.652 160.311 134.996C160.503 135.332 160.759 135.596 161.079 135.788C161.407 135.972 161.775 136.064 162.183 136.064ZM36.9825 151.628C36.8145 151.772 36.6065 151.884 36.3585 151.964C36.1105 152.036 35.8545 152.072 35.5905 152.072C34.9505 152.072 34.4545 151.9 34.1025 151.556C33.7505 151.212 33.5745 150.72 33.5745 150.08V146.588H32.4945V145.64H33.5745V144.248H34.7265V145.64H36.5505V146.588H34.7265V150.032C34.7265 150.376 34.8105 150.64 34.9785 150.824C35.1545 151.008 35.4025 151.1 35.7225 151.1C36.0745 151.1 36.3745 151 36.6225 150.8L36.9825 151.628ZM43.9123 148.856C43.9123 148.944 43.9043 149.06 43.8883 149.204H38.7283C38.8003 149.764 39.0443 150.216 39.4603 150.56C39.8843 150.896 40.4083 151.064 41.0323 151.064C41.7923 151.064 42.4043 150.808 42.8683 150.296L43.5043 151.04C43.2163 151.376 42.8563 151.632 42.4243 151.808C42.0003 151.984 41.5243 152.072 40.9963 152.072C40.3243 152.072 39.7283 151.936 39.2083 151.664C38.6883 151.384 38.2843 150.996 37.9963 150.5C37.7163 150.004 37.5763 149.444 37.5763 148.82C37.5763 148.204 37.7123 147.648 37.9843 147.152C38.2643 146.656 38.6443 146.272 39.1243 146C39.6123 145.72 40.1603 145.58 40.7683 145.58C41.3763 145.58 41.9163 145.72 42.3883 146C42.8683 146.272 43.2403 146.656 43.5043 147.152C43.7763 147.648 43.9123 148.216 43.9123 148.856ZM40.7683 146.552C40.2163 146.552 39.7523 146.72 39.3763 147.056C39.0083 147.392 38.7923 147.832 38.7283 148.376H42.8083C42.7443 147.84 42.5243 147.404 42.1483 147.068C41.7803 146.724 41.3203 146.552 40.7683 146.552ZM48.7346 145.64H49.8866V152H48.7346V145.64ZM49.3106 144.416C49.0866 144.416 48.8986 144.344 48.7466 144.2C48.6026 144.056 48.5306 143.88 48.5306 143.672C48.5306 143.464 48.6026 143.288 48.7466 143.144C48.8986 142.992 49.0866 142.916 49.3106 142.916C49.5346 142.916 49.7186 142.988 49.8626 143.132C50.0146 143.268 50.0906 143.44 50.0906 143.648C50.0906 143.864 50.0146 144.048 49.8626 144.2C49.7186 144.344 49.5346 144.416 49.3106 144.416ZM55.4821 145.58C56.2901 145.58 56.9301 145.816 57.4021 146.288C57.8821 146.752 58.1221 147.436 58.1221 148.34V152H56.9701V148.472C56.9701 147.856 56.8221 147.392 56.5261 147.08C56.2301 146.768 55.8061 146.612 55.2541 146.612C54.6301 146.612 54.1381 146.796 53.7781 147.164C53.4181 147.524 53.2381 148.044 53.2381 148.724V152H52.0861V145.64H53.1901V146.6C53.4221 146.272 53.7341 146.02 54.1261 145.844C54.5261 145.668 54.9781 145.58 55.4821 145.58ZM66.2893 143.096V152H65.1853V150.992C64.9293 151.344 64.6053 151.612 64.2133 151.796C63.8213 151.98 63.3893 152.072 62.9173 152.072C62.3013 152.072 61.7493 151.936 61.2613 151.664C60.7733 151.392 60.3893 151.012 60.1093 150.524C59.8373 150.028 59.7013 149.46 59.7013 148.82C59.7013 148.18 59.8373 147.616 60.1093 147.128C60.3893 146.64 60.7733 146.26 61.2613 145.988C61.7493 145.716 62.3013 145.58 62.9173 145.58C63.3733 145.58 63.7933 145.668 64.1773 145.844C64.5613 146.012 64.8813 146.264 65.1373 146.6V143.096H66.2893ZM63.0133 151.064C63.4133 151.064 63.7773 150.972 64.1053 150.788C64.4333 150.596 64.6893 150.332 64.8733 149.996C65.0573 149.652 65.1493 149.26 65.1493 148.82C65.1493 148.38 65.0573 147.992 64.8733 147.656C64.6893 147.312 64.4333 147.048 64.1053 146.864C63.7773 146.68 63.4133 146.588 63.0133 146.588C62.6053 146.588 62.2373 146.68 61.9093 146.864C61.5893 147.048 61.3333 147.312 61.1413 147.656C60.9573 147.992 60.8653 148.38 60.8653 148.82C60.8653 149.26 60.9573 149.652 61.1413 149.996C61.3333 150.332 61.5893 150.596 61.9093 150.788C62.2373 150.972 62.6053 151.064 63.0133 151.064ZM68.469 145.64H69.621V152H68.469V145.64ZM69.045 144.416C68.821 144.416 68.633 144.344 68.481 144.2C68.337 144.056 68.265 143.88 68.265 143.672C68.265 143.464 68.337 143.288 68.481 143.144C68.633 142.992 68.821 142.916 69.045 142.916C69.269 142.916 69.453 142.988 69.597 143.132C69.749 143.268 69.825 143.44 69.825 143.648C69.825 143.864 69.749 144.048 69.597 144.2C69.453 144.344 69.269 144.416 69.045 144.416ZM74.5925 152.072C73.9445 152.072 73.3645 151.932 72.8525 151.652C72.3485 151.372 71.9525 150.988 71.6645 150.5C71.3765 150.004 71.2325 149.444 71.2325 148.82C71.2325 148.196 71.3765 147.64 71.6645 147.152C71.9525 146.656 72.3485 146.272 72.8525 146C73.3645 145.72 73.9445 145.58 74.5925 145.58C75.1685 145.58 75.6805 145.696 76.1285 145.928C76.5845 146.16 76.9365 146.496 77.1845 146.936L76.3085 147.5C76.1085 147.196 75.8605 146.968 75.5645 146.816C75.2685 146.664 74.9405 146.588 74.5805 146.588C74.1645 146.588 73.7885 146.68 73.4525 146.864C73.1245 147.048 72.8645 147.312 72.6725 147.656C72.4885 147.992 72.3965 148.38 72.3965 148.82C72.3965 149.268 72.4885 149.664 72.6725 150.008C72.8645 150.344 73.1245 150.604 73.4525 150.788C73.7885 150.972 74.1645 151.064 74.5805 151.064C74.9405 151.064 75.2685 150.988 75.5645 150.836C75.8605 150.684 76.1085 150.456 76.3085 150.152L77.1845 150.704C76.9365 151.144 76.5845 151.484 76.1285 151.724C75.6805 151.956 75.1685 152.072 74.5925 152.072ZM80.992 145.58C81.872 145.58 82.544 145.796 83.008 146.228C83.48 146.66 83.716 147.304 83.716 148.16V152H82.624V151.16C82.432 151.456 82.156 151.684 81.796 151.844C81.444 151.996 81.024 152.072 80.536 152.072C79.824 152.072 79.252 151.9 78.82 151.556C78.396 151.212 78.184 150.76 78.184 150.2C78.184 149.64 78.388 149.192 78.796 148.856C79.204 148.512 79.852 148.34 80.74 148.34H82.564V148.112C82.564 147.616 82.42 147.236 82.132 146.972C81.844 146.708 81.42 146.576 80.86 146.576C80.484 146.576 80.116 146.64 79.756 146.768C79.396 146.888 79.092 147.052 78.844 147.26L78.364 146.396C78.692 146.132 79.084 145.932 79.54 145.796C79.996 145.652 80.48 145.58 80.992 145.58ZM80.728 151.184C81.168 151.184 81.548 151.088 81.868 150.896C82.188 150.696 82.42 150.416 82.564 150.056V149.168H80.788C79.812 149.168 79.324 149.496 79.324 150.152C79.324 150.472 79.448 150.724 79.696 150.908C79.944 151.092 80.288 151.184 80.728 151.184ZM94.8185 148.856C94.8185 148.944 94.8105 149.06 94.7945 149.204H89.6345C89.7065 149.764 89.9505 150.216 90.3665 150.56C90.7905 150.896 91.3145 151.064 91.9385 151.064C92.6985 151.064 93.3105 150.808 93.7745 150.296L94.4105 151.04C94.1225 151.376 93.7625 151.632 93.3305 151.808C92.9065 151.984 92.4305 152.072 91.9025 152.072C91.2305 152.072 90.6345 151.936 90.1145 151.664C89.5945 151.384 89.1905 150.996 88.9025 150.5C88.6225 150.004 88.4825 149.444 88.4825 148.82C88.4825 148.204 88.6185 147.648 88.8905 147.152C89.1705 146.656 89.5505 146.272 90.0305 146C90.5185 145.72 91.0665 145.58 91.6745 145.58C92.2825 145.58 92.8225 145.72 93.2945 146C93.7745 146.272 94.1465 146.656 94.4105 147.152C94.6825 147.648 94.8185 148.216 94.8185 148.856ZM91.6745 146.552C91.1225 146.552 90.6585 146.72 90.2825 147.056C89.9145 147.392 89.6985 147.832 89.6345 148.376H93.7145C93.6505 147.84 93.4305 147.404 93.0545 147.068C92.6865 146.724 92.2265 146.552 91.6745 146.552ZM96.4182 143.096H97.5702V152H96.4182V143.096ZM109.076 145.64V151.136C109.076 152.248 108.8 153.068 108.248 153.596C107.696 154.132 106.872 154.4 105.776 154.4C105.176 154.4 104.604 154.316 104.06 154.148C103.516 153.988 103.076 153.756 102.74 153.452L103.292 152.564C103.588 152.82 103.952 153.02 104.384 153.164C104.824 153.316 105.276 153.392 105.74 153.392C106.484 153.392 107.032 153.216 107.384 152.864C107.744 152.512 107.924 151.976 107.924 151.256V150.752C107.652 151.08 107.316 151.328 106.916 151.496C106.524 151.656 106.096 151.736 105.632 151.736C105.024 151.736 104.472 151.608 103.976 151.352C103.488 151.088 103.104 150.724 102.824 150.26C102.544 149.788 102.404 149.252 102.404 148.652C102.404 148.052 102.544 147.52 102.824 147.056C103.104 146.584 103.488 146.22 103.976 145.964C104.472 145.708 105.024 145.58 105.632 145.58C106.112 145.58 106.556 145.668 106.964 145.844C107.38 146.02 107.72 146.28 107.984 146.624V145.64H109.076ZM105.764 150.728C106.18 150.728 106.552 150.64 106.88 150.464C107.216 150.288 107.476 150.044 107.66 149.732C107.852 149.412 107.948 149.052 107.948 148.652C107.948 148.036 107.744 147.54 107.336 147.164C106.928 146.78 106.404 146.588 105.764 146.588C105.116 146.588 104.588 146.78 104.18 147.164C103.772 147.54 103.568 148.036 103.568 148.652C103.568 149.052 103.66 149.412 103.844 149.732C104.036 150.044 104.296 150.288 104.624 150.464C104.96 150.64 105.34 150.728 105.764 150.728ZM112.382 146.708C112.582 146.34 112.878 146.06 113.27 145.868C113.662 145.676 114.138 145.58 114.698 145.58V146.696C114.634 146.688 114.546 146.684 114.434 146.684C113.81 146.684 113.318 146.872 112.958 147.248C112.606 147.616 112.43 148.144 112.43 148.832V152H111.278V145.64H112.382V146.708ZM118.422 145.58C119.302 145.58 119.974 145.796 120.438 146.228C120.91 146.66 121.146 147.304 121.146 148.16V152H120.054V151.16C119.862 151.456 119.586 151.684 119.226 151.844C118.874 151.996 118.454 152.072 117.966 152.072C117.254 152.072 116.682 151.9 116.25 151.556C115.826 151.212 115.614 150.76 115.614 150.2C115.614 149.64 115.818 149.192 116.226 148.856C116.634 148.512 117.282 148.34 118.17 148.34H119.994V148.112C119.994 147.616 119.85 147.236 119.562 146.972C119.274 146.708 118.85 146.576 118.29 146.576C117.914 146.576 117.546 146.64 117.186 146.768C116.826 146.888 116.522 147.052 116.274 147.26L115.794 146.396C116.122 146.132 116.514 145.932 116.97 145.796C117.426 145.652 117.91 145.58 118.422 145.58ZM118.158 151.184C118.598 151.184 118.978 151.088 119.298 150.896C119.618 150.696 119.85 150.416 119.994 150.056V149.168H118.218C117.242 149.168 116.754 149.496 116.754 150.152C116.754 150.472 116.878 150.724 117.126 150.908C117.374 151.092 117.718 151.184 118.158 151.184ZM119.238 143.156H120.702L118.686 144.716H117.606L119.238 143.156ZM125.606 143.972C124.918 143.972 124.574 144.344 124.574 145.088V145.64H126.422V146.588H124.598V152H123.446V146.588H122.366V145.64H123.446V145.076C123.446 144.444 123.63 143.944 123.998 143.576C124.366 143.208 124.882 143.024 125.546 143.024C125.802 143.024 126.042 143.056 126.266 143.12C126.49 143.184 126.682 143.276 126.842 143.396L126.494 144.272C126.23 144.072 125.934 143.972 125.606 143.972ZM128.474 145.64H129.626V152H128.474V145.64ZM129.05 144.416C128.826 144.416 128.638 144.344 128.486 144.2C128.342 144.056 128.27 143.88 128.27 143.672C128.27 143.464 128.342 143.288 128.486 143.144C128.638 142.992 128.826 142.916 129.05 142.916C129.274 142.916 129.458 142.988 129.602 143.132C129.754 143.268 129.83 143.44 129.83 143.648C129.83 143.864 129.754 144.048 129.602 144.2C129.458 144.344 129.274 144.416 129.05 144.416ZM134.593 152.072C133.945 152.072 133.365 151.932 132.853 151.652C132.349 151.372 131.953 150.988 131.665 150.5C131.377 150.004 131.233 149.444 131.233 148.82C131.233 148.196 131.377 147.64 131.665 147.152C131.953 146.656 132.349 146.272 132.853 146C133.365 145.72 133.945 145.58 134.593 145.58C135.169 145.58 135.681 145.696 136.129 145.928C136.585 146.16 136.937 146.496 137.185 146.936L136.309 147.5C136.109 147.196 135.861 146.968 135.565 146.816C135.269 146.664 134.941 146.588 134.581 146.588C134.165 146.588 133.789 146.68 133.453 146.864C133.125 147.048 132.865 147.312 132.673 147.656C132.489 147.992 132.397 148.38 132.397 148.82C132.397 149.268 132.489 149.664 132.673 150.008C132.865 150.344 133.125 150.604 133.453 150.788C133.789 150.972 134.165 151.064 134.581 151.064C134.941 151.064 135.269 150.988 135.565 150.836C135.861 150.684 136.109 150.456 136.309 150.152L137.185 150.704C136.937 151.144 136.585 151.484 136.129 151.724C135.681 151.956 135.169 152.072 134.593 152.072ZM141.306 152.072C140.674 152.072 140.106 151.932 139.602 151.652C139.098 151.372 138.702 150.988 138.414 150.5C138.134 150.004 137.994 149.444 137.994 148.82C137.994 148.196 138.134 147.64 138.414 147.152C138.702 146.656 139.098 146.272 139.602 146C140.106 145.72 140.674 145.58 141.306 145.58C141.938 145.58 142.502 145.72 142.998 146C143.502 146.272 143.894 146.656 144.174 147.152C144.462 147.64 144.606 148.196 144.606 148.82C144.606 149.444 144.462 150.004 144.174 150.5C143.894 150.988 143.502 151.372 142.998 151.652C142.502 151.932 141.938 152.072 141.306 152.072ZM141.306 151.064C141.714 151.064 142.078 150.972 142.398 150.788C142.726 150.596 142.982 150.332 143.166 149.996C143.35 149.652 143.442 149.26 143.442 148.82C143.442 148.38 143.35 147.992 143.166 147.656C142.982 147.312 142.726 147.048 142.398 146.864C142.078 146.68 141.714 146.588 141.306 146.588C140.898 146.588 140.53 146.68 140.202 146.864C139.882 147.048 139.626 147.312 139.434 147.656C139.25 147.992 139.158 148.38 139.158 148.82C139.158 149.26 139.25 149.652 139.434 149.996C139.626 150.332 139.882 150.596 140.202 150.788C140.53 150.972 140.898 151.064 141.306 151.064ZM146.335 152.072C146.111 152.072 145.919 151.996 145.759 151.844C145.599 151.684 145.519 151.484 145.519 151.244C145.519 151.012 145.599 150.82 145.759 150.668C145.919 150.508 146.111 150.428 146.335 150.428C146.559 150.428 146.747 150.504 146.899 150.656C147.051 150.808 147.127 151.004 147.127 151.244C147.127 151.484 147.047 151.684 146.887 151.844C146.735 151.996 146.551 152.072 146.335 152.072Z" fill="#008E86"/>
<path d="M45 66L90 21L135 66L69 89.2586L45 66Z" fill="#00D8CC" stroke="#00635D" stroke-width="2" stroke-linejoin="round"/>
<path d="M135 65.7585L58 77.7586" stroke="#333333" stroke-width="2" stroke-dasharray="4 6"/>
<path d="M134.502 65.7585L70 40.2585" stroke="#333333" stroke-width="2" stroke-dasharray="4 6"/>
<path opacity="0.25" d="M135 65.7588H45" stroke="#333333" stroke-width="2"/>
<path d="M85.0435 57.8333C85.5319 58.0911 86.1368 57.9041 86.3946 57.4156L90.595 49.4559C90.8527 48.9675 90.6657 48.3626 90.1773 48.1048C89.6888 47.847 89.0839 48.0341 88.8261 48.5225L85.0925 55.5978L78.0172 51.8642C77.5287 51.6064 76.9238 51.7934 76.6661 52.2819C76.4083 52.7703 76.5953 53.3752 77.0838 53.633L85.0435 57.8333ZM97.0403 38.3377C97.5788 38.2151 97.916 37.6792 97.7934 37.1407C97.6709 36.6022 97.135 36.265 96.5965 36.3875L97.0403 38.3377ZM86.4656 56.6536C85.1041 52.2497 85.6559 48.2807 87.4965 45.0928L85.7644 44.0928C83.6305 47.7888 83.0379 52.3376 84.5548 57.2443L86.4656 56.6536ZM87.4965 45.0928C88.3898 43.5455 89.9605 42.0326 91.7611 40.8022C93.5591 39.5737 95.4944 38.6895 97.0403 38.3377L96.5965 36.3875C94.7485 36.8081 92.5835 37.818 90.6328 39.1509C88.6847 40.4821 86.8583 42.1982 85.7644 44.0928L87.4965 45.0928Z" fill="black"/>
<path d="M86.1929 83.6302C86.5683 83.2251 86.5442 82.5924 86.1391 82.217L79.5378 76.0997C79.1327 75.7243 78.5 75.7483 78.1246 76.1534C77.7492 76.5585 77.7733 77.1912 78.1783 77.5666L84.0462 83.0043L78.6086 88.8722C78.2332 89.2772 78.2573 89.91 78.6624 90.2853C79.0674 90.6607 79.7002 90.6367 80.0755 90.2316L86.1929 83.6302ZM72.2668 68.7966C72.2878 68.2447 71.8574 67.7803 71.3055 67.7593C70.7536 67.7383 70.2892 68.1687 70.2682 68.7206L72.2668 68.7966ZM85.4214 81.9512C81.3633 82.1057 78.1188 80.7317 75.8322 78.4451L74.418 79.8593C77.1194 82.5607 80.9134 84.1242 85.4974 83.9498L85.4214 81.9512ZM75.8322 78.4451C74.727 77.3399 73.7983 75.6629 73.1606 73.8463C72.5239 72.0328 72.2139 70.1851 72.2668 68.7966L70.2682 68.7206C70.2036 70.4186 70.5755 72.5207 71.2735 74.5089C71.9704 76.494 73.0293 78.4706 74.418 79.8593L75.8322 78.4451Z" fill="black"/>
</g>
<defs>
<clipPath id="clip0_5726_207355">
<rect width="180" height="180" rx="20" fill="white"/>
</clipPath>
<clipPath id="clip1_5726_207355">
<path d="M0 30L-1.31134e-06 0L30 -1.31134e-06L30 10C30 21.0457 21.0457 30 10 30L0 30Z" fill="white"/>
</clipPath>
</defs>
</svg>
