<svg width="180" height="180" viewBox="0 0 180 180" fill="none" xmlns="http://www.w3.org/2000/svg">
<g clip-path="url(#clip0_5726_207363)">
<rect width="180" height="180" rx="20" fill="#F2F2F2"/>
<g clip-path="url(#clip1_5726_207363)">
<path d="M0 30L-1.31134e-06 0L30 -1.31134e-06L30 10C30 21.0457 21.0457 30 10 30L0 30Z" fill="#333333"/>
<path d="M15.9223 13.976C16.6369 13.976 17.2876 14.12 17.8743 14.408C18.4609 14.696 18.9249 15.1067 19.2663 15.64C19.6076 16.1627 19.7783 16.7707 19.7783 17.464C19.7783 18.2107 19.5916 18.8667 19.2183 19.432C18.8449 19.9973 18.3329 20.4347 17.6823 20.744C17.0423 21.0427 16.3276 21.192 15.5383 21.192C13.9703 21.192 12.7436 20.712 11.8583 19.752C10.9729 18.792 10.5303 17.4213 10.5303 15.64C10.5303 14.3707 10.7703 13.2827 11.2503 12.376C11.7303 11.4693 12.3969 10.7813 13.2503 10.312C14.1143 9.84267 15.1116 9.608 16.2423 9.608C16.8396 9.608 17.4103 9.67733 17.9543 9.816C18.5089 9.944 18.9783 10.1307 19.3623 10.376L18.4023 12.28C17.8476 11.9067 17.1489 11.72 16.3063 11.72C15.3569 11.72 14.6049 11.9973 14.0503 12.552C13.4956 13.1067 13.1969 13.912 13.1543 14.968C13.8156 14.3067 14.7383 13.976 15.9223 13.976ZM15.3943 19.256C15.9489 19.256 16.3969 19.1067 16.7383 18.808C17.0903 18.5093 17.2663 18.104 17.2663 17.592C17.2663 17.08 17.0903 16.6747 16.7383 16.376C16.3969 16.0667 15.9383 15.912 15.3623 15.912C14.7969 15.912 14.3329 16.072 13.9703 16.392C13.6076 16.7013 13.4263 17.1013 13.4263 17.592C13.4263 18.0827 13.6023 18.4827 13.9543 18.792C14.3063 19.1013 14.7863 19.256 15.3943 19.256Z" fill="#F2F2F2"/>
</g>
<path d="M27.387 120.6H30.927C31.815 120.6 32.603 120.776 33.291 121.128C33.979 121.48 34.511 121.976 34.887 122.616C35.271 123.248 35.463 123.976 35.463 124.8C35.463 125.624 35.271 126.356 34.887 126.996C34.511 127.628 33.979 128.12 33.291 128.472C32.603 128.824 31.815 129 30.927 129H27.387V120.6ZM30.855 127.956C31.535 127.956 32.131 127.824 32.643 127.56C33.163 127.296 33.563 126.928 33.843 126.456C34.123 125.976 34.263 125.424 34.263 124.8C34.263 124.176 34.123 123.628 33.843 123.156C33.563 122.676 33.163 122.304 32.643 122.04C32.131 121.776 31.535 121.644 30.855 121.644H28.587V127.956H30.855ZM39.857 129.072C39.225 129.072 38.657 128.932 38.153 128.652C37.649 128.372 37.253 127.988 36.965 127.5C36.685 127.004 36.545 126.444 36.545 125.82C36.545 125.196 36.685 124.64 36.965 124.152C37.253 123.656 37.649 123.272 38.153 123C38.657 122.72 39.225 122.58 39.857 122.58C40.489 122.58 41.053 122.72 41.549 123C42.053 123.272 42.445 123.656 42.725 124.152C43.013 124.64 43.157 125.196 43.157 125.82C43.157 126.444 43.013 127.004 42.725 127.5C42.445 127.988 42.053 128.372 41.549 128.652C41.053 128.932 40.489 129.072 39.857 129.072ZM39.857 128.064C40.265 128.064 40.629 127.972 40.949 127.788C41.277 127.596 41.533 127.332 41.717 126.996C41.901 126.652 41.993 126.26 41.993 125.82C41.993 125.38 41.901 124.992 41.717 124.656C41.533 124.312 41.277 124.048 40.949 123.864C40.629 123.68 40.265 123.588 39.857 123.588C39.449 123.588 39.081 123.68 38.753 123.864C38.433 124.048 38.177 124.312 37.985 124.656C37.801 124.992 37.709 125.38 37.709 125.82C37.709 126.26 37.801 126.652 37.985 126.996C38.177 127.332 38.433 127.596 38.753 127.788C39.081 127.972 39.449 128.064 39.857 128.064ZM48.1222 122.58C48.7382 122.58 49.2902 122.716 49.7782 122.988C50.2662 123.26 50.6462 123.64 50.9182 124.128C51.1982 124.616 51.3382 125.18 51.3382 125.82C51.3382 126.46 51.1982 127.028 50.9182 127.524C50.6462 128.012 50.2662 128.392 49.7782 128.664C49.2902 128.936 48.7382 129.072 48.1222 129.072C47.6502 129.072 47.2182 128.98 46.8262 128.796C46.4342 128.612 46.1102 128.344 45.8542 127.992V129H44.7502V120.096H45.9022V123.6C46.1582 123.264 46.4782 123.012 46.8622 122.844C47.2462 122.668 47.6662 122.58 48.1222 122.58ZM48.0262 128.064C48.4342 128.064 48.7982 127.972 49.1182 127.788C49.4462 127.596 49.7022 127.332 49.8862 126.996C50.0782 126.652 50.1742 126.26 50.1742 125.82C50.1742 125.38 50.0782 124.992 49.8862 124.656C49.7022 124.312 49.4462 124.048 49.1182 123.864C48.7982 123.68 48.4342 123.588 48.0262 123.588C47.6262 123.588 47.2622 123.68 46.9342 123.864C46.6062 124.048 46.3502 124.312 46.1662 124.656C45.9822 124.992 45.8902 125.38 45.8902 125.82C45.8902 126.26 45.9822 126.652 46.1662 126.996C46.3502 127.332 46.6062 127.596 46.9342 127.788C47.2622 127.972 47.6262 128.064 48.0262 128.064ZM52.9299 120.096H54.0819V129H52.9299V120.096ZM58.5975 122.58C59.4775 122.58 60.1495 122.796 60.6135 123.228C61.0855 123.66 61.3215 124.304 61.3215 125.16V129H60.2295V128.16C60.0375 128.456 59.7615 128.684 59.4015 128.844C59.0495 128.996 58.6295 129.072 58.1415 129.072C57.4295 129.072 56.8575 128.9 56.4255 128.556C56.0015 128.212 55.7895 127.76 55.7895 127.2C55.7895 126.64 55.9935 126.192 56.4015 125.856C56.8095 125.512 57.4575 125.34 58.3455 125.34H60.1695V125.112C60.1695 124.616 60.0255 124.236 59.7375 123.972C59.4495 123.708 59.0255 123.576 58.4655 123.576C58.0895 123.576 57.7215 123.64 57.3615 123.768C57.0015 123.888 56.6975 124.052 56.4495 124.26L55.9695 123.396C56.2975 123.132 56.6895 122.932 57.1455 122.796C57.6015 122.652 58.0855 122.58 58.5975 122.58ZM58.3335 128.184C58.7735 128.184 59.1535 128.088 59.4735 127.896C59.7935 127.696 60.0255 127.416 60.1695 127.056V126.168H58.3935C57.4175 126.168 56.9295 126.496 56.9295 127.152C56.9295 127.472 57.0535 127.724 57.3015 127.908C57.5495 128.092 57.8935 128.184 58.3335 128.184ZM66.676 120.096H67.828V129H66.676V120.096ZM72.3435 122.58C73.2235 122.58 73.8955 122.796 74.3595 123.228C74.8315 123.66 75.0675 124.304 75.0675 125.16V129H73.9755V128.16C73.7835 128.456 73.5075 128.684 73.1475 128.844C72.7955 128.996 72.3755 129.072 71.8875 129.072C71.1755 129.072 70.6035 128.9 70.1715 128.556C69.7475 128.212 69.5355 127.76 69.5355 127.2C69.5355 126.64 69.7395 126.192 70.1475 125.856C70.5555 125.512 71.2035 125.34 72.0915 125.34H73.9155V125.112C73.9155 124.616 73.7715 124.236 73.4835 123.972C73.1955 123.708 72.7715 123.576 72.2115 123.576C71.8355 123.576 71.4675 123.64 71.1075 123.768C70.7475 123.888 70.4435 124.052 70.1955 124.26L69.7155 123.396C70.0435 123.132 70.4355 122.932 70.8915 122.796C71.3475 122.652 71.8315 122.58 72.3435 122.58ZM72.0795 128.184C72.5195 128.184 72.8995 128.088 73.2195 127.896C73.5395 127.696 73.7715 127.416 73.9155 127.056V126.168H72.1395C71.1635 126.168 70.6755 126.496 70.6755 127.152C70.6755 127.472 70.7995 127.724 71.0475 127.908C71.2955 128.092 71.6395 128.184 72.0795 128.184ZM83.7941 122.58C84.4101 122.58 84.9621 122.716 85.4501 122.988C85.9381 123.26 86.3181 123.64 86.5901 124.128C86.8701 124.616 87.0101 125.18 87.0101 125.82C87.0101 126.46 86.8701 127.028 86.5901 127.524C86.3181 128.012 85.9381 128.392 85.4501 128.664C84.9621 128.936 84.4101 129.072 83.7941 129.072C83.3381 129.072 82.9181 128.984 82.5341 128.808C82.1581 128.632 81.8381 128.376 81.5741 128.04V131.328H80.4221V122.64H81.5261V123.648C81.7821 123.296 82.1061 123.032 82.4981 122.856C82.8901 122.672 83.3221 122.58 83.7941 122.58ZM83.6981 128.064C84.1061 128.064 84.4701 127.972 84.7901 127.788C85.1181 127.596 85.3741 127.332 85.5581 126.996C85.7501 126.652 85.8461 126.26 85.8461 125.82C85.8461 125.38 85.7501 124.992 85.5581 124.656C85.3741 124.312 85.1181 124.048 84.7901 123.864C84.4701 123.68 84.1061 123.588 83.6981 123.588C83.2981 123.588 82.9341 123.684 82.6061 123.876C82.2861 124.06 82.0301 124.32 81.8381 124.656C81.6541 124.992 81.5621 125.38 81.5621 125.82C81.5621 126.26 81.6541 126.652 81.8381 126.996C82.0221 127.332 82.2781 127.596 82.6061 127.788C82.9341 127.972 83.2981 128.064 83.6981 128.064ZM94.5298 122.64V129H93.4378V128.04C93.2058 128.368 92.8978 128.624 92.5138 128.808C92.1378 128.984 91.7258 129.072 91.2778 129.072C90.4298 129.072 89.7618 128.84 89.2738 128.376C88.7858 127.904 88.5418 127.212 88.5418 126.3V122.64H89.6938V126.168C89.6938 126.784 89.8418 127.252 90.1378 127.572C90.4338 127.884 90.8578 128.04 91.4098 128.04C92.0178 128.04 92.4978 127.856 92.8498 127.488C93.2018 127.12 93.3778 126.6 93.3778 125.928V122.64H94.5298ZM100.119 122.58C100.927 122.58 101.567 122.816 102.039 123.288C102.519 123.752 102.759 124.436 102.759 125.34V129H101.607V125.472C101.607 124.856 101.459 124.392 101.163 124.08C100.867 123.768 100.443 123.612 99.8909 123.612C99.2669 123.612 98.7749 123.796 98.4149 124.164C98.0549 124.524 97.8749 125.044 97.8749 125.724V129H96.7229V122.64H97.8269V123.6C98.0589 123.272 98.3709 123.02 98.7629 122.844C99.1629 122.668 99.6149 122.58 100.119 122.58ZM108.467 128.628C108.299 128.772 108.091 128.884 107.843 128.964C107.595 129.036 107.339 129.072 107.075 129.072C106.435 129.072 105.939 128.9 105.587 128.556C105.235 128.212 105.059 127.72 105.059 127.08V123.588H103.979V122.64H105.059V121.248H106.211V122.64H108.035V123.588H106.211V127.032C106.211 127.376 106.295 127.64 106.463 127.824C106.639 128.008 106.887 128.1 107.207 128.1C107.559 128.1 107.859 128 108.107 127.8L108.467 128.628ZM112.176 122.58C113.056 122.58 113.728 122.796 114.192 123.228C114.664 123.66 114.9 124.304 114.9 125.16V129H113.808V128.16C113.616 128.456 113.34 128.684 112.98 128.844C112.628 128.996 112.208 129.072 111.72 129.072C111.008 129.072 110.436 128.9 110.004 128.556C109.58 128.212 109.368 127.76 109.368 127.2C109.368 126.64 109.572 126.192 109.98 125.856C110.388 125.512 111.036 125.34 111.924 125.34H113.748V125.112C113.748 124.616 113.604 124.236 113.316 123.972C113.028 123.708 112.604 123.576 112.044 123.576C111.668 123.576 111.3 123.64 110.94 123.768C110.58 123.888 110.276 124.052 110.028 124.26L109.548 123.396C109.876 123.132 110.268 122.932 110.724 122.796C111.18 122.652 111.664 122.58 112.176 122.58ZM111.912 128.184C112.352 128.184 112.732 128.088 113.052 127.896C113.372 127.696 113.604 127.416 113.748 127.056V126.168H111.972C110.996 126.168 110.508 126.496 110.508 127.152C110.508 127.472 110.632 127.724 110.88 127.908C111.128 128.092 111.472 128.184 111.912 128.184ZM123.026 129.072C122.378 129.072 121.798 128.932 121.286 128.652C120.782 128.372 120.386 127.988 120.098 127.5C119.81 127.004 119.666 126.444 119.666 125.82C119.666 125.196 119.81 124.64 120.098 124.152C120.386 123.656 120.782 123.272 121.286 123C121.798 122.72 122.378 122.58 123.026 122.58C123.602 122.58 124.114 122.696 124.562 122.928C125.018 123.16 125.37 123.496 125.618 123.936L124.742 124.5C124.542 124.196 124.294 123.968 123.998 123.816C123.702 123.664 123.374 123.588 123.014 123.588C122.598 123.588 122.222 123.68 121.886 123.864C121.558 124.048 121.298 124.312 121.106 124.656C120.922 124.992 120.83 125.38 120.83 125.82C120.83 126.268 120.922 126.664 121.106 127.008C121.298 127.344 121.558 127.604 121.886 127.788C122.222 127.972 122.598 128.064 123.014 128.064C123.374 128.064 123.702 127.988 123.998 127.836C124.294 127.684 124.542 127.456 124.742 127.152L125.618 127.704C125.37 128.144 125.018 128.484 124.562 128.724C124.114 128.956 123.602 129.072 123.026 129.072ZM129.74 129.072C129.108 129.072 128.54 128.932 128.036 128.652C127.532 128.372 127.136 127.988 126.848 127.5C126.568 127.004 126.428 126.444 126.428 125.82C126.428 125.196 126.568 124.64 126.848 124.152C127.136 123.656 127.532 123.272 128.036 123C128.54 122.72 129.108 122.58 129.74 122.58C130.372 122.58 130.936 122.72 131.432 123C131.936 123.272 132.328 123.656 132.608 124.152C132.896 124.64 133.04 125.196 133.04 125.82C133.04 126.444 132.896 127.004 132.608 127.5C132.328 127.988 131.936 128.372 131.432 128.652C130.936 128.932 130.372 129.072 129.74 129.072ZM129.74 128.064C130.148 128.064 130.512 127.972 130.832 127.788C131.16 127.596 131.416 127.332 131.6 126.996C131.784 126.652 131.876 126.26 131.876 125.82C131.876 125.38 131.784 124.992 131.6 124.656C131.416 124.312 131.16 124.048 130.832 123.864C130.512 123.68 130.148 123.588 129.74 123.588C129.332 123.588 128.964 123.68 128.636 123.864C128.316 124.048 128.06 124.312 127.868 124.656C127.684 124.992 127.592 125.38 127.592 125.82C127.592 126.26 127.684 126.652 127.868 126.996C128.06 127.332 128.316 127.596 128.636 127.788C128.964 127.972 129.332 128.064 129.74 128.064ZM142.589 122.58C143.389 122.58 144.021 122.812 144.485 123.276C144.957 123.74 145.193 124.428 145.193 125.34V129H144.041V125.472C144.041 124.856 143.897 124.392 143.609 124.08C143.329 123.768 142.925 123.612 142.397 123.612C141.813 123.612 141.349 123.796 141.005 124.164C140.661 124.524 140.489 125.044 140.489 125.724V129H139.337V125.472C139.337 124.856 139.193 124.392 138.905 124.08C138.625 123.768 138.221 123.612 137.693 123.612C137.109 123.612 136.645 123.796 136.301 124.164C135.957 124.524 135.785 125.044 135.785 125.724V129H134.633V122.64H135.737V123.588C135.969 123.26 136.273 123.012 136.649 122.844C137.025 122.668 137.453 122.58 137.933 122.58C138.429 122.58 138.869 122.68 139.253 122.88C139.637 123.08 139.933 123.372 140.141 123.756C140.381 123.388 140.713 123.1 141.137 122.892C141.569 122.684 142.053 122.58 142.589 122.58ZM150.072 129.072C149.44 129.072 148.872 128.932 148.368 128.652C147.864 128.372 147.468 127.988 147.18 127.5C146.9 127.004 146.76 126.444 146.76 125.82C146.76 125.196 146.9 124.64 147.18 124.152C147.468 123.656 147.864 123.272 148.368 123C148.872 122.72 149.44 122.58 150.072 122.58C150.704 122.58 151.268 122.72 151.764 123C152.268 123.272 152.66 123.656 152.94 124.152C153.228 124.64 153.372 125.196 153.372 125.82C153.372 126.444 153.228 127.004 152.94 127.5C152.66 127.988 152.268 128.372 151.764 128.652C151.268 128.932 150.704 129.072 150.072 129.072ZM150.072 128.064C150.48 128.064 150.844 127.972 151.164 127.788C151.492 127.596 151.748 127.332 151.932 126.996C152.116 126.652 152.208 126.26 152.208 125.82C152.208 125.38 152.116 124.992 151.932 124.656C151.748 124.312 151.492 124.048 151.164 123.864C150.844 123.68 150.48 123.588 150.072 123.588C149.664 123.588 149.296 123.68 148.968 123.864C148.648 124.048 148.392 124.312 148.2 124.656C148.016 124.992 147.924 125.38 147.924 125.82C147.924 126.26 148.016 126.652 148.2 126.996C148.392 127.332 148.648 127.596 148.968 127.788C149.296 127.972 149.664 128.064 150.072 128.064ZM26.2305 143.628C26.0625 143.772 25.8545 143.884 25.6065 143.964C25.3585 144.036 25.1025 144.072 24.8385 144.072C24.1985 144.072 23.7025 143.9 23.3505 143.556C22.9985 143.212 22.8225 142.72 22.8225 142.08V138.588H21.7425V137.64H22.8225V136.248H23.9745V137.64H25.7985V138.588H23.9745V142.032C23.9745 142.376 24.0585 142.64 24.2265 142.824C24.4025 143.008 24.6505 143.1 24.9705 143.1C25.3225 143.1 25.6225 143 25.8705 142.8L26.2305 143.628ZM33.1603 140.856C33.1603 140.944 33.1523 141.06 33.1363 141.204H27.9763C28.0483 141.764 28.2923 142.216 28.7083 142.56C29.1323 142.896 29.6563 143.064 30.2803 143.064C31.0403 143.064 31.6523 142.808 32.1163 142.296L32.7523 143.04C32.4643 143.376 32.1043 143.632 31.6723 143.808C31.2483 143.984 30.7723 144.072 30.2443 144.072C29.5723 144.072 28.9763 143.936 28.4563 143.664C27.9363 143.384 27.5323 142.996 27.2443 142.5C26.9643 142.004 26.8243 141.444 26.8243 140.82C26.8243 140.204 26.9603 139.648 27.2323 139.152C27.5123 138.656 27.8923 138.272 28.3723 138C28.8603 137.72 29.4083 137.58 30.0163 137.58C30.6243 137.58 31.1643 137.72 31.6363 138C32.1163 138.272 32.4883 138.656 32.7523 139.152C33.0243 139.648 33.1603 140.216 33.1603 140.856ZM30.0163 138.552C29.4643 138.552 29.0003 138.72 28.6243 139.056C28.2563 139.392 28.0403 139.832 27.9763 140.376H32.0563C31.9923 139.84 31.7723 139.404 31.3963 139.068C31.0283 138.724 30.5683 138.552 30.0163 138.552ZM37.9826 137.64H39.1346V144H37.9826V137.64ZM38.5586 136.416C38.3346 136.416 38.1466 136.344 37.9946 136.2C37.8506 136.056 37.7786 135.88 37.7786 135.672C37.7786 135.464 37.8506 135.288 37.9946 135.144C38.1466 134.992 38.3346 134.916 38.5586 134.916C38.7826 134.916 38.9666 134.988 39.1106 135.132C39.2626 135.268 39.3386 135.44 39.3386 135.648C39.3386 135.864 39.2626 136.048 39.1106 136.2C38.9666 136.344 38.7826 136.416 38.5586 136.416ZM44.7302 137.58C45.5382 137.58 46.1782 137.816 46.6502 138.288C47.1302 138.752 47.3702 139.436 47.3702 140.34V144H46.2182V140.472C46.2182 139.856 46.0702 139.392 45.7742 139.08C45.4782 138.768 45.0542 138.612 44.5022 138.612C43.8782 138.612 43.3862 138.796 43.0262 139.164C42.6662 139.524 42.4862 140.044 42.4862 140.724V144H41.3342V137.64H42.4382V138.6C42.6702 138.272 42.9822 138.02 43.3742 137.844C43.7742 137.668 44.2262 137.58 44.7302 137.58ZM55.5373 135.096V144H54.4333V142.992C54.1773 143.344 53.8533 143.612 53.4613 143.796C53.0693 143.98 52.6373 144.072 52.1653 144.072C51.5493 144.072 50.9973 143.936 50.5093 143.664C50.0213 143.392 49.6373 143.012 49.3573 142.524C49.0853 142.028 48.9493 141.46 48.9493 140.82C48.9493 140.18 49.0853 139.616 49.3573 139.128C49.6373 138.64 50.0213 138.26 50.5093 137.988C50.9973 137.716 51.5493 137.58 52.1653 137.58C52.6213 137.58 53.0413 137.668 53.4253 137.844C53.8093 138.012 54.1293 138.264 54.3853 138.6V135.096H55.5373ZM52.2613 143.064C52.6613 143.064 53.0253 142.972 53.3533 142.788C53.6813 142.596 53.9373 142.332 54.1213 141.996C54.3053 141.652 54.3973 141.26 54.3973 140.82C54.3973 140.38 54.3053 139.992 54.1213 139.656C53.9373 139.312 53.6813 139.048 53.3533 138.864C53.0253 138.68 52.6613 138.588 52.2613 138.588C51.8533 138.588 51.4853 138.68 51.1573 138.864C50.8373 139.048 50.5813 139.312 50.3893 139.656C50.2053 139.992 50.1133 140.38 50.1133 140.82C50.1133 141.26 50.2053 141.652 50.3893 141.996C50.5813 142.332 50.8373 142.596 51.1573 142.788C51.4853 142.972 51.8533 143.064 52.2613 143.064ZM57.717 137.64H58.869V144H57.717V137.64ZM58.293 136.416C58.069 136.416 57.881 136.344 57.729 136.2C57.585 136.056 57.513 135.88 57.513 135.672C57.513 135.464 57.585 135.288 57.729 135.144C57.881 134.992 58.069 134.916 58.293 134.916C58.517 134.916 58.701 134.988 58.845 135.132C58.997 135.268 59.073 135.44 59.073 135.648C59.073 135.864 58.997 136.048 58.845 136.2C58.701 136.344 58.517 136.416 58.293 136.416ZM63.8406 144.072C63.1926 144.072 62.6126 143.932 62.1006 143.652C61.5966 143.372 61.2006 142.988 60.9126 142.5C60.6246 142.004 60.4806 141.444 60.4806 140.82C60.4806 140.196 60.6246 139.64 60.9126 139.152C61.2006 138.656 61.5966 138.272 62.1006 138C62.6126 137.72 63.1926 137.58 63.8406 137.58C64.4166 137.58 64.9286 137.696 65.3766 137.928C65.8326 138.16 66.1846 138.496 66.4326 138.936L65.5566 139.5C65.3566 139.196 65.1086 138.968 64.8126 138.816C64.5166 138.664 64.1886 138.588 63.8286 138.588C63.4126 138.588 63.0366 138.68 62.7006 138.864C62.3726 139.048 62.1126 139.312 61.9206 139.656C61.7366 139.992 61.6446 140.38 61.6446 140.82C61.6446 141.268 61.7366 141.664 61.9206 142.008C62.1126 142.344 62.3726 142.604 62.7006 142.788C63.0366 142.972 63.4126 143.064 63.8286 143.064C64.1886 143.064 64.5166 142.988 64.8126 142.836C65.1086 142.684 65.3566 142.456 65.5566 142.152L66.4326 142.704C66.1846 143.144 65.8326 143.484 65.3766 143.724C64.9286 143.956 64.4166 144.072 63.8406 144.072ZM70.24 137.58C71.12 137.58 71.792 137.796 72.256 138.228C72.728 138.66 72.964 139.304 72.964 140.16V144H71.872V143.16C71.68 143.456 71.404 143.684 71.044 143.844C70.692 143.996 70.272 144.072 69.784 144.072C69.072 144.072 68.5 143.9 68.068 143.556C67.644 143.212 67.432 142.76 67.432 142.2C67.432 141.64 67.636 141.192 68.044 140.856C68.452 140.512 69.1 140.34 69.988 140.34H71.812V140.112C71.812 139.616 71.668 139.236 71.38 138.972C71.092 138.708 70.668 138.576 70.108 138.576C69.732 138.576 69.364 138.64 69.004 138.768C68.644 138.888 68.34 139.052 68.092 139.26L67.612 138.396C67.94 138.132 68.332 137.932 68.788 137.796C69.244 137.652 69.728 137.58 70.24 137.58ZM69.976 143.184C70.416 143.184 70.796 143.088 71.116 142.896C71.436 142.696 71.668 142.416 71.812 142.056V141.168H70.036C69.06 141.168 68.572 141.496 68.572 142.152C68.572 142.472 68.696 142.724 68.944 142.908C69.192 143.092 69.536 143.184 69.976 143.184ZM78.3186 135.096H79.4706V144H78.3186V135.096ZM83.9861 137.58C84.8661 137.58 85.5381 137.796 86.0021 138.228C86.4741 138.66 86.7101 139.304 86.7101 140.16V144H85.6181V143.16C85.4261 143.456 85.1501 143.684 84.7901 143.844C84.4381 143.996 84.0181 144.072 83.5301 144.072C82.8181 144.072 82.2461 143.9 81.8141 143.556C81.3901 143.212 81.1781 142.76 81.1781 142.2C81.1781 141.64 81.3821 141.192 81.7901 140.856C82.1981 140.512 82.8461 140.34 83.7341 140.34H85.5581V140.112C85.5581 139.616 85.4141 139.236 85.1261 138.972C84.8381 138.708 84.4141 138.576 83.8541 138.576C83.4781 138.576 83.1101 138.64 82.7501 138.768C82.3901 138.888 82.0861 139.052 81.8381 139.26L81.3581 138.396C81.6861 138.132 82.0781 137.932 82.5341 137.796C82.9901 137.652 83.4741 137.58 83.9861 137.58ZM83.7221 143.184C84.1621 143.184 84.5421 143.088 84.8621 142.896C85.1821 142.696 85.4141 142.416 85.5581 142.056V141.168H83.7821C82.8061 141.168 82.3181 141.496 82.3181 142.152C82.3181 142.472 82.4421 142.724 82.6901 142.908C82.9381 143.092 83.2821 143.184 83.7221 143.184ZM94.3927 135.972C93.7047 135.972 93.3607 136.344 93.3607 137.088V137.64H95.2087V138.588H93.3847V144H92.2327V138.588H91.1527V137.64H92.2327V137.076C92.2327 136.444 92.4167 135.944 92.7847 135.576C93.1527 135.208 93.6687 135.024 94.3327 135.024C94.5887 135.024 94.8287 135.056 95.0527 135.12C95.2767 135.184 95.4687 135.276 95.6287 135.396L95.2807 136.272C95.0167 136.072 94.7207 135.972 94.3927 135.972ZM97.2607 137.64H98.4127V144H97.2607V137.64ZM97.8367 136.416C97.6127 136.416 97.4247 136.344 97.2727 136.2C97.1287 136.056 97.0567 135.88 97.0567 135.672C97.0567 135.464 97.1287 135.288 97.2727 135.144C97.4247 134.992 97.6127 134.916 97.8367 134.916C98.0607 134.916 98.2447 134.988 98.3887 135.132C98.5407 135.268 98.6167 135.44 98.6167 135.648C98.6167 135.864 98.5407 136.048 98.3887 136.2C98.2447 136.344 98.0607 136.416 97.8367 136.416ZM106.692 137.64V143.136C106.692 144.248 106.416 145.068 105.864 145.596C105.312 146.132 104.488 146.4 103.392 146.4C102.792 146.4 102.22 146.316 101.676 146.148C101.132 145.988 100.692 145.756 100.356 145.452L100.908 144.564C101.204 144.82 101.568 145.02 102 145.164C102.44 145.316 102.892 145.392 103.356 145.392C104.1 145.392 104.648 145.216 105 144.864C105.36 144.512 105.54 143.976 105.54 143.256V142.752C105.268 143.08 104.932 143.328 104.532 143.496C104.14 143.656 103.712 143.736 103.248 143.736C102.64 143.736 102.088 143.608 101.592 143.352C101.104 143.088 100.72 142.724 100.44 142.26C100.16 141.788 100.02 141.252 100.02 140.652C100.02 140.052 100.16 139.52 100.44 139.056C100.72 138.584 101.104 138.22 101.592 137.964C102.088 137.708 102.64 137.58 103.248 137.58C103.728 137.58 104.172 137.668 104.58 137.844C104.996 138.02 105.336 138.28 105.6 138.624V137.64H106.692ZM103.38 142.728C103.796 142.728 104.168 142.64 104.496 142.464C104.832 142.288 105.092 142.044 105.276 141.732C105.468 141.412 105.564 141.052 105.564 140.652C105.564 140.036 105.36 139.54 104.952 139.164C104.544 138.78 104.02 138.588 103.38 138.588C102.732 138.588 102.204 138.78 101.796 139.164C101.388 139.54 101.184 140.036 101.184 140.652C101.184 141.052 101.276 141.412 101.46 141.732C101.652 142.044 101.912 142.288 102.24 142.464C102.576 142.64 102.956 142.728 103.38 142.728ZM114.821 137.64V144H113.729V143.04C113.497 143.368 113.189 143.624 112.805 143.808C112.429 143.984 112.017 144.072 111.569 144.072C110.721 144.072 110.053 143.84 109.565 143.376C109.077 142.904 108.833 142.212 108.833 141.3V137.64H109.985V141.168C109.985 141.784 110.133 142.252 110.429 142.572C110.725 142.884 111.149 143.04 111.701 143.04C112.309 143.04 112.789 142.856 113.141 142.488C113.493 142.12 113.669 141.6 113.669 140.928V137.64H114.821ZM118.118 138.708C118.318 138.34 118.614 138.06 119.006 137.868C119.398 137.676 119.874 137.58 120.434 137.58V138.696C120.37 138.688 120.282 138.684 120.17 138.684C119.546 138.684 119.054 138.872 118.694 139.248C118.342 139.616 118.166 140.144 118.166 140.832V144H117.014V137.64H118.118V138.708ZM124.158 137.58C125.038 137.58 125.71 137.796 126.174 138.228C126.646 138.66 126.882 139.304 126.882 140.16V144H125.79V143.16C125.598 143.456 125.322 143.684 124.962 143.844C124.61 143.996 124.19 144.072 123.702 144.072C122.99 144.072 122.418 143.9 121.986 143.556C121.562 143.212 121.35 142.76 121.35 142.2C121.35 141.64 121.554 141.192 121.962 140.856C122.37 140.512 123.018 140.34 123.906 140.34H125.73V140.112C125.73 139.616 125.586 139.236 125.298 138.972C125.01 138.708 124.586 138.576 124.026 138.576C123.65 138.576 123.282 138.64 122.922 138.768C122.562 138.888 122.258 139.052 122.01 139.26L121.53 138.396C121.858 138.132 122.25 137.932 122.706 137.796C123.162 137.652 123.646 137.58 124.158 137.58ZM123.894 143.184C124.334 143.184 124.714 143.088 125.034 142.896C125.354 142.696 125.586 142.416 125.73 142.056V141.168H123.954C122.978 141.168 122.49 141.496 122.49 142.152C122.49 142.472 122.614 142.724 122.862 142.908C123.11 143.092 123.454 143.184 123.894 143.184ZM135.609 137.58C136.225 137.58 136.777 137.716 137.265 137.988C137.753 138.26 138.133 138.64 138.405 139.128C138.685 139.616 138.825 140.18 138.825 140.82C138.825 141.46 138.685 142.028 138.405 142.524C138.133 143.012 137.753 143.392 137.265 143.664C136.777 143.936 136.225 144.072 135.609 144.072C135.153 144.072 134.733 143.984 134.349 143.808C133.973 143.632 133.653 143.376 133.389 143.04V146.328H132.237V137.64H133.341V138.648C133.597 138.296 133.921 138.032 134.313 137.856C134.705 137.672 135.137 137.58 135.609 137.58ZM135.513 143.064C135.921 143.064 136.285 142.972 136.605 142.788C136.933 142.596 137.189 142.332 137.373 141.996C137.565 141.652 137.661 141.26 137.661 140.82C137.661 140.38 137.565 139.992 137.373 139.656C137.189 139.312 136.933 139.048 136.605 138.864C136.285 138.68 135.921 138.588 135.513 138.588C135.113 138.588 134.749 138.684 134.421 138.876C134.101 139.06 133.845 139.32 133.653 139.656C133.469 139.992 133.377 140.38 133.377 140.82C133.377 141.26 133.469 141.652 133.653 141.996C133.837 142.332 134.093 142.596 134.421 142.788C134.749 142.972 135.113 143.064 135.513 143.064ZM142.674 137.58C143.554 137.58 144.226 137.796 144.69 138.228C145.162 138.66 145.398 139.304 145.398 140.16V144H144.306V143.16C144.114 143.456 143.838 143.684 143.478 143.844C143.126 143.996 142.706 144.072 142.218 144.072C141.506 144.072 140.934 143.9 140.502 143.556C140.078 143.212 139.866 142.76 139.866 142.2C139.866 141.64 140.07 141.192 140.478 140.856C140.886 140.512 141.534 140.34 142.422 140.34H144.246V140.112C144.246 139.616 144.102 139.236 143.814 138.972C143.526 138.708 143.102 138.576 142.542 138.576C142.166 138.576 141.798 138.64 141.438 138.768C141.078 138.888 140.774 139.052 140.526 139.26L140.046 138.396C140.374 138.132 140.766 137.932 141.222 137.796C141.678 137.652 142.162 137.58 142.674 137.58ZM142.41 143.184C142.85 143.184 143.23 143.088 143.55 142.896C143.87 142.696 144.102 142.416 144.246 142.056V141.168H142.47C141.494 141.168 141.006 141.496 141.006 142.152C141.006 142.472 141.13 142.724 141.378 142.908C141.626 143.092 141.97 143.184 142.41 143.184ZM148.634 138.708C148.834 138.34 149.13 138.06 149.521 137.868C149.914 137.676 150.39 137.58 150.95 137.58V138.696C150.886 138.688 150.798 138.684 150.686 138.684C150.062 138.684 149.57 138.872 149.21 139.248C148.858 139.616 148.682 140.144 148.682 140.832V144H147.53V137.64H148.634V138.708ZM154.674 137.58C155.554 137.58 156.226 137.796 156.69 138.228C157.162 138.66 157.398 139.304 157.398 140.16V144H156.306V143.16C156.114 143.456 155.838 143.684 155.478 143.844C155.126 143.996 154.706 144.072 154.218 144.072C153.506 144.072 152.934 143.9 152.502 143.556C152.078 143.212 151.866 142.76 151.866 142.2C151.866 141.64 152.07 141.192 152.478 140.856C152.886 140.512 153.534 140.34 154.422 140.34H156.246V140.112C156.246 139.616 156.102 139.236 155.814 138.972C155.526 138.708 155.102 138.576 154.542 138.576C154.166 138.576 153.798 138.64 153.438 138.768C153.078 138.888 152.774 139.052 152.526 139.26L152.046 138.396C152.374 138.132 152.766 137.932 153.222 137.796C153.678 137.652 154.162 137.58 154.674 137.58ZM154.41 143.184C154.85 143.184 155.23 143.088 155.55 142.896C155.87 142.696 156.102 142.416 156.246 142.056V141.168H154.47C153.494 141.168 153.006 141.496 153.006 142.152C153.006 142.472 153.13 142.724 153.378 142.908C153.626 143.092 153.97 143.184 154.41 143.184ZM50.4415 150.972C49.7535 150.972 49.4095 151.344 49.4095 152.088V152.64H51.2575V153.588H49.4335V159H48.2815V153.588H47.2015V152.64H48.2815V152.076C48.2815 151.444 48.4655 150.944 48.8335 150.576C49.2015 150.208 49.7175 150.024 50.3815 150.024C50.6375 150.024 50.8775 150.056 51.1015 150.12C51.3255 150.184 51.5175 150.276 51.6775 150.396L51.3295 151.272C51.0655 151.072 50.7695 150.972 50.4415 150.972ZM54.9742 159.072C54.3422 159.072 53.7742 158.932 53.2702 158.652C52.7662 158.372 52.3702 157.988 52.0822 157.5C51.8022 157.004 51.6622 156.444 51.6622 155.82C51.6622 155.196 51.8022 154.64 52.0822 154.152C52.3702 153.656 52.7662 153.272 53.2702 153C53.7742 152.72 54.3422 152.58 54.9742 152.58C55.6062 152.58 56.1702 152.72 56.6662 153C57.1702 153.272 57.5622 153.656 57.8422 154.152C58.1302 154.64 58.2742 155.196 58.2742 155.82C58.2742 156.444 58.1302 157.004 57.8422 157.5C57.5622 157.988 57.1702 158.372 56.6662 158.652C56.1702 158.932 55.6062 159.072 54.9742 159.072ZM54.9742 158.064C55.3822 158.064 55.7462 157.972 56.0662 157.788C56.3942 157.596 56.6502 157.332 56.8342 156.996C57.0182 156.652 57.1102 156.26 57.1102 155.82C57.1102 155.38 57.0182 154.992 56.8342 154.656C56.6502 154.312 56.3942 154.048 56.0662 153.864C55.7462 153.68 55.3822 153.588 54.9742 153.588C54.5662 153.588 54.1982 153.68 53.8702 153.864C53.5502 154.048 53.2942 154.312 53.1022 154.656C52.9182 154.992 52.8262 155.38 52.8262 155.82C52.8262 156.26 52.9182 156.652 53.1022 156.996C53.2942 157.332 53.5502 157.596 53.8702 157.788C54.1982 157.972 54.5662 158.064 54.9742 158.064ZM60.9714 153.708C61.1714 153.34 61.4674 153.06 61.8594 152.868C62.2514 152.676 62.7274 152.58 63.2874 152.58V153.696C63.2234 153.688 63.1354 153.684 63.0234 153.684C62.3994 153.684 61.9074 153.872 61.5474 154.248C61.1954 154.616 61.0194 155.144 61.0194 155.832V159H59.8674V152.64H60.9714V153.708ZM72.6632 152.58C73.4632 152.58 74.0952 152.812 74.5592 153.276C75.0312 153.74 75.2672 154.428 75.2672 155.34V159H74.1152V155.472C74.1152 154.856 73.9712 154.392 73.6832 154.08C73.4032 153.768 72.9992 153.612 72.4712 153.612C71.8872 153.612 71.4232 153.796 71.0792 154.164C70.7352 154.524 70.5632 155.044 70.5632 155.724V159H69.4112V155.472C69.4112 154.856 69.2672 154.392 68.9792 154.08C68.6992 153.768 68.2952 153.612 67.7672 153.612C67.1832 153.612 66.7192 153.796 66.3752 154.164C66.0312 154.524 65.8592 155.044 65.8592 155.724V159H64.7072V152.64H65.8112V153.588C66.0432 153.26 66.3472 153.012 66.7232 152.844C67.0992 152.668 67.5272 152.58 68.0072 152.58C68.5032 152.58 68.9432 152.68 69.3272 152.88C69.7112 153.08 70.0072 153.372 70.2152 153.756C70.4552 153.388 70.7872 153.1 71.2112 152.892C71.6432 152.684 72.1272 152.58 72.6632 152.58ZM79.7029 152.58C80.5829 152.58 81.2549 152.796 81.7189 153.228C82.1909 153.66 82.4269 154.304 82.4269 155.16V159H81.3349V158.16C81.1429 158.456 80.8669 158.684 80.5069 158.844C80.1549 158.996 79.7349 159.072 79.2469 159.072C78.5349 159.072 77.9629 158.9 77.5309 158.556C77.1069 158.212 76.8949 157.76 76.8949 157.2C76.8949 156.64 77.0989 156.192 77.5069 155.856C77.9149 155.512 78.5629 155.34 79.4509 155.34H81.2749V155.112C81.2749 154.616 81.1309 154.236 80.8429 153.972C80.5549 153.708 80.1309 153.576 79.5709 153.576C79.1949 153.576 78.8269 153.64 78.4669 153.768C78.1069 153.888 77.8029 154.052 77.5549 154.26L77.0749 153.396C77.4029 153.132 77.7949 152.932 78.2509 152.796C78.7069 152.652 79.1909 152.58 79.7029 152.58ZM79.4389 158.184C79.8789 158.184 80.2589 158.088 80.5789 157.896C80.8989 157.696 81.1309 157.416 81.2749 157.056V156.168H79.4989C78.5229 156.168 78.0349 156.496 78.0349 157.152C78.0349 157.472 78.1589 157.724 78.4069 157.908C78.6549 158.092 78.9989 158.184 79.4389 158.184ZM85.6628 153.708C85.8628 153.34 86.1588 153.06 86.5508 152.868C86.9428 152.676 87.4188 152.58 87.9788 152.58V153.696C87.9148 153.688 87.8268 153.684 87.7148 153.684C87.0908 153.684 86.5988 153.872 86.2388 154.248C85.8868 154.616 85.7108 155.144 85.7108 155.832V159H84.5588V152.64H85.6628V153.708ZM92.7033 150.096H93.8553V159H92.7033V150.096ZM98.3709 152.58C99.2509 152.58 99.9229 152.796 100.387 153.228C100.859 153.66 101.095 154.304 101.095 155.16V159H100.003V158.16C99.8109 158.456 99.5349 158.684 99.1749 158.844C98.8229 158.996 98.4029 159.072 97.9149 159.072C97.2029 159.072 96.6309 158.9 96.1989 158.556C95.7749 158.212 95.5629 157.76 95.5629 157.2C95.5629 156.64 95.7669 156.192 96.1749 155.856C96.5829 155.512 97.2309 155.34 98.1189 155.34H99.9429V155.112C99.9429 154.616 99.7989 154.236 99.5109 153.972C99.2229 153.708 98.7989 153.576 98.2389 153.576C97.8629 153.576 97.4949 153.64 97.1349 153.768C96.7749 153.888 96.4709 154.052 96.2229 154.26L95.7429 153.396C96.0709 153.132 96.4629 152.932 96.9189 152.796C97.3749 152.652 97.8589 152.58 98.3709 152.58ZM98.1069 158.184C98.5469 158.184 98.9269 158.088 99.2469 157.896C99.5669 157.696 99.7989 157.416 99.9429 157.056V156.168H98.1669C97.1909 156.168 96.7029 156.496 96.7029 157.152C96.7029 157.472 96.8269 157.724 97.0749 157.908C97.3229 158.092 97.6669 158.184 98.1069 158.184ZM109.221 159.072C108.573 159.072 107.993 158.932 107.481 158.652C106.977 158.372 106.581 157.988 106.293 157.5C106.005 157.004 105.861 156.444 105.861 155.82C105.861 155.196 106.005 154.64 106.293 154.152C106.581 153.656 106.977 153.272 107.481 153C107.993 152.72 108.573 152.58 109.221 152.58C109.797 152.58 110.309 152.696 110.757 152.928C111.213 153.16 111.565 153.496 111.813 153.936L110.937 154.5C110.737 154.196 110.489 153.968 110.193 153.816C109.897 153.664 109.569 153.588 109.209 153.588C108.793 153.588 108.417 153.68 108.081 153.864C107.753 154.048 107.493 154.312 107.301 154.656C107.117 154.992 107.025 155.38 107.025 155.82C107.025 156.268 107.117 156.664 107.301 157.008C107.493 157.344 107.753 157.604 108.081 157.788C108.417 157.972 108.793 158.064 109.209 158.064C109.569 158.064 109.897 157.988 110.193 157.836C110.489 157.684 110.737 157.456 110.937 157.152L111.813 157.704C111.565 158.144 111.213 158.484 110.757 158.724C110.309 158.956 109.797 159.072 109.221 159.072ZM115.935 159.072C115.303 159.072 114.735 158.932 114.231 158.652C113.727 158.372 113.331 157.988 113.043 157.5C112.763 157.004 112.623 156.444 112.623 155.82C112.623 155.196 112.763 154.64 113.043 154.152C113.331 153.656 113.727 153.272 114.231 153C114.735 152.72 115.303 152.58 115.935 152.58C116.567 152.58 117.131 152.72 117.627 153C118.131 153.272 118.523 153.656 118.803 154.152C119.091 154.64 119.235 155.196 119.235 155.82C119.235 156.444 119.091 157.004 118.803 157.5C118.523 157.988 118.131 158.372 117.627 158.652C117.131 158.932 116.567 159.072 115.935 159.072ZM115.935 158.064C116.343 158.064 116.707 157.972 117.027 157.788C117.355 157.596 117.611 157.332 117.795 156.996C117.979 156.652 118.071 156.26 118.071 155.82C118.071 155.38 117.979 154.992 117.795 154.656C117.611 154.312 117.355 154.048 117.027 153.864C116.707 153.68 116.343 153.588 115.935 153.588C115.527 153.588 115.159 153.68 114.831 153.864C114.511 154.048 114.255 154.312 114.063 154.656C113.879 154.992 113.787 155.38 113.787 155.82C113.787 156.26 113.879 156.652 114.063 156.996C114.255 157.332 114.511 157.596 114.831 157.788C115.159 157.972 115.527 158.064 115.935 158.064ZM120.828 150.096H121.98V159H120.828V150.096ZM126.496 152.58C127.376 152.58 128.048 152.796 128.512 153.228C128.984 153.66 129.22 154.304 129.22 155.16V159H128.128V158.16C127.936 158.456 127.66 158.684 127.3 158.844C126.948 158.996 126.528 159.072 126.04 159.072C125.328 159.072 124.756 158.9 124.324 158.556C123.9 158.212 123.688 157.76 123.688 157.2C123.688 156.64 123.892 156.192 124.3 155.856C124.708 155.512 125.356 155.34 126.244 155.34H128.068V155.112C128.068 154.616 127.924 154.236 127.636 153.972C127.348 153.708 126.924 153.576 126.364 153.576C125.988 153.576 125.62 153.64 125.26 153.768C124.9 153.888 124.596 154.052 124.348 154.26L123.868 153.396C124.196 153.132 124.588 152.932 125.044 152.796C125.5 152.652 125.984 152.58 126.496 152.58ZM126.232 158.184C126.672 158.184 127.052 158.088 127.372 157.896C127.692 157.696 127.924 157.416 128.068 157.056V156.168H126.292C125.316 156.168 124.828 156.496 124.828 157.152C124.828 157.472 124.952 157.724 125.2 157.908C125.448 158.092 125.792 158.184 126.232 158.184ZM131.628 159.072C131.404 159.072 131.212 158.996 131.052 158.844C130.892 158.684 130.812 158.484 130.812 158.244C130.812 158.012 130.892 157.82 131.052 157.668C131.212 157.508 131.404 157.428 131.628 157.428C131.852 157.428 132.04 157.504 132.192 157.656C132.344 157.808 132.42 158.004 132.42 158.244C132.42 158.484 132.34 158.684 132.18 158.844C132.028 158.996 131.844 159.072 131.628 159.072Z" fill="#008E86"/>
<path d="M126 69.0002L126 51.0003L114 39.0003L91.5 39.0003L44.9999 60.0002L122.001 73.4409L126 69.0002Z" fill="#008E86" stroke="#00635D" stroke-width="2" stroke-linejoin="round"/>
<path d="M45 60.0002L107 60.0002L107 70.5002L45 60.0002Z" fill="#00D8CC" stroke="#00635D" stroke-width="2" stroke-linejoin="round"/>
<path d="M61 53.0002L70 64.0002" stroke="#333333" stroke-width="2" stroke-dasharray="4 4"/>
<path opacity="0.25" d="M45 60.0002L126 60.0003" stroke="#333333" stroke-width="2"/>
<path d="M79.227 67.4676C78.9328 67.0002 78.3155 66.8597 77.848 67.1538L70.2305 71.947C69.7631 72.2411 69.6226 72.8585 69.9167 73.3259C70.2109 73.7934 70.8282 73.9339 71.2957 73.6397L78.0668 69.3792L82.3273 76.1502C82.6215 76.6177 83.2388 76.7582 83.7063 76.4641C84.1737 76.1699 84.3142 75.5526 84.0201 75.0851L79.227 67.4676ZM61.2945 77.08C60.7668 76.9169 60.2068 77.2124 60.0437 77.74C59.8806 78.2677 60.1761 78.8277 60.7037 78.9908L61.2945 77.08ZM77.4055 67.7783C76.5044 71.7381 74.3375 74.5164 71.537 76.1333L72.537 77.8653C75.8455 75.9551 78.3377 72.6951 79.3556 68.2221L77.4055 67.7783ZM71.537 76.1333C70.1834 76.9148 68.3232 77.3778 66.4035 77.5236C64.4869 77.6693 62.6219 77.4904 61.2945 77.08L60.7037 78.9908C62.3272 79.4927 64.4539 79.6775 66.555 79.5179C68.6529 79.3585 70.8361 78.8473 72.537 77.8653L71.537 76.1333Z" fill="black"/>
</g>
<defs>
<clipPath id="clip0_5726_207363">
<rect width="180" height="180" rx="20" fill="white"/>
</clipPath>
<clipPath id="clip1_5726_207363">
<path d="M0 30L-1.31134e-06 0L30 -1.31134e-06L30 10C30 21.0457 21.0457 30 10 30L0 30Z" fill="white"/>
</clipPath>
</defs>
</svg>
