<svg width="380" height="380" viewBox="0 0 380 380" fill="none" xmlns="http://www.w3.org/2000/svg">
<g clip-path="url(#clip0_5726_207801)">
<rect width="380" height="380" rx="20" fill="#F2F2F2"/>
<path d="M179.201 40.224H181.569V44.768C180.961 45.2267 180.257 45.5787 179.457 45.824C178.657 46.0693 177.851 46.192 177.041 46.192C175.878 46.192 174.833 45.9467 173.905 45.456C172.977 44.9547 172.246 44.2667 171.713 43.392C171.19 42.5067 170.929 41.5093 170.929 40.4C170.929 39.2907 171.19 38.2987 171.713 37.424C172.246 36.5387 172.982 35.8507 173.921 35.36C174.859 34.8587 175.915 34.608 177.089 34.608C178.07 34.608 178.961 34.7733 179.761 35.104C180.561 35.4347 181.233 35.9147 181.777 36.544L180.113 38.08C179.313 37.2373 178.347 36.816 177.217 36.816C176.502 36.816 175.867 36.9653 175.313 37.264C174.758 37.5627 174.326 37.984 174.017 38.528C173.707 39.072 173.553 39.696 173.553 40.4C173.553 41.0933 173.707 41.712 174.017 42.256C174.326 42.8 174.753 43.2267 175.297 43.536C175.851 43.8347 176.481 43.984 177.185 43.984C177.931 43.984 178.603 43.824 179.201 43.504V40.224ZM187.272 37.264C188.606 37.264 189.63 37.584 190.344 38.224C191.059 38.8533 191.416 39.808 191.416 41.088V46H189.08V44.928C188.611 45.728 187.736 46.128 186.456 46.128C185.795 46.128 185.219 46.016 184.728 45.792C184.248 45.568 183.88 45.2587 183.624 44.864C183.368 44.4693 183.24 44.0213 183.24 43.52C183.24 42.72 183.539 42.0907 184.136 41.632C184.744 41.1733 185.678 40.944 186.936 40.944H188.92C188.92 40.4 188.755 39.984 188.424 39.696C188.094 39.3973 187.598 39.248 186.936 39.248C186.478 39.248 186.024 39.3227 185.576 39.472C185.139 39.6107 184.766 39.8027 184.456 40.048L183.56 38.304C184.03 37.9733 184.59 37.7173 185.24 37.536C185.902 37.3547 186.579 37.264 187.272 37.264ZM187.08 44.448C187.507 44.448 187.886 44.352 188.216 44.16C188.547 43.9573 188.782 43.664 188.92 43.28V42.4H187.208C186.184 42.4 185.672 42.736 185.672 43.408C185.672 43.728 185.795 43.984 186.04 44.176C186.296 44.3573 186.643 44.448 187.08 44.448ZM199.227 45.584C198.982 45.7653 198.678 45.904 198.315 46C197.963 46.0853 197.59 46.128 197.195 46.128C196.171 46.128 195.377 45.8667 194.811 45.344C194.257 44.8213 193.979 44.0533 193.979 43.04V39.504H192.651V37.584H193.979V35.488H196.475V37.584H198.619V39.504H196.475V43.008C196.475 43.3707 196.566 43.6533 196.747 43.856C196.939 44.048 197.206 44.144 197.547 44.144C197.942 44.144 198.278 44.0373 198.555 43.824L199.227 45.584ZM204.459 46.128C203.552 46.128 202.736 45.9413 202.011 45.568C201.296 45.184 200.736 44.656 200.331 43.984C199.926 43.312 199.723 42.5493 199.723 41.696C199.723 40.8427 199.926 40.08 200.331 39.408C200.736 38.736 201.296 38.2133 202.011 37.84C202.736 37.456 203.552 37.264 204.459 37.264C205.366 37.264 206.176 37.456 206.891 37.84C207.606 38.2133 208.166 38.736 208.571 39.408C208.976 40.08 209.179 40.8427 209.179 41.696C209.179 42.5493 208.976 43.312 208.571 43.984C208.166 44.656 207.606 45.184 206.891 45.568C206.176 45.9413 205.366 46.128 204.459 46.128ZM204.459 44.08C205.099 44.08 205.622 43.8667 206.027 43.44C206.443 43.0027 206.651 42.4213 206.651 41.696C206.651 40.9707 206.443 40.3947 206.027 39.968C205.622 39.5307 205.099 39.312 204.459 39.312C203.819 39.312 203.291 39.5307 202.875 39.968C202.459 40.3947 202.251 40.9707 202.251 41.696C202.251 42.4213 202.459 43.0027 202.875 43.44C203.291 43.8667 203.819 44.08 204.459 44.08Z" fill="#00635D"/>
<path d="M38.6409 324.8H43.3609C44.5449 324.8 45.5956 325.035 46.5129 325.504C47.4303 325.973 48.1396 326.635 48.6409 327.488C49.1529 328.331 49.4089 329.301 49.4089 330.4C49.4089 331.499 49.1529 332.475 48.6409 333.328C48.1396 334.171 47.4303 334.827 46.5129 335.296C45.5956 335.765 44.5449 336 43.3609 336H38.6409V324.8ZM43.2649 334.608C44.1716 334.608 44.9663 334.432 45.6489 334.08C46.3423 333.728 46.8756 333.237 47.2489 332.608C47.6223 331.968 47.8089 331.232 47.8089 330.4C47.8089 329.568 47.6223 328.837 47.2489 328.208C46.8756 327.568 46.3423 327.072 45.6489 326.72C44.9663 326.368 44.1716 326.192 43.2649 326.192H40.2409V334.608H43.2649ZM51.6357 327.52H53.1717V336H51.6357V327.52ZM52.4037 325.888C52.105 325.888 51.8544 325.792 51.6517 325.6C51.4597 325.408 51.3637 325.173 51.3637 324.896C51.3637 324.619 51.4597 324.384 51.6517 324.192C51.8544 323.989 52.105 323.888 52.4037 323.888C52.7024 323.888 52.9477 323.984 53.1397 324.176C53.3424 324.357 53.4437 324.587 53.4437 324.864C53.4437 325.152 53.3424 325.397 53.1397 325.6C52.9477 325.792 52.7024 325.888 52.4037 325.888ZM60.6004 327.44C61.4218 327.44 62.1578 327.621 62.8084 327.984C63.4591 328.347 63.9658 328.853 64.3284 329.504C64.7018 330.155 64.8884 330.907 64.8884 331.76C64.8884 332.613 64.7018 333.371 64.3284 334.032C63.9658 334.683 63.4591 335.189 62.8084 335.552C62.1578 335.915 61.4218 336.096 60.6004 336.096C59.9711 336.096 59.3951 335.973 58.8724 335.728C58.3498 335.483 57.9178 335.125 57.5764 334.656V336H56.1044V324.128H57.6404V328.8C57.9818 328.352 58.4084 328.016 58.9204 327.792C59.4324 327.557 59.9924 327.44 60.6004 327.44ZM60.4724 334.752C61.0164 334.752 61.5018 334.629 61.9284 334.384C62.3658 334.128 62.7071 333.776 62.9524 333.328C63.2084 332.869 63.3364 332.347 63.3364 331.76C63.3364 331.173 63.2084 330.656 62.9524 330.208C62.7071 329.749 62.3658 329.397 61.9284 329.152C61.5018 328.907 61.0164 328.784 60.4724 328.784C59.9391 328.784 59.4538 328.907 59.0164 329.152C58.5791 329.397 58.2378 329.749 57.9924 330.208C57.7471 330.656 57.6244 331.173 57.6244 331.76C57.6244 332.347 57.7471 332.869 57.9924 333.328C58.2378 333.776 58.5791 334.128 59.0164 334.384C59.4538 334.629 59.9391 334.752 60.4724 334.752ZM74.9147 327.52V336H73.4587V334.72C73.1494 335.157 72.7387 335.499 72.2267 335.744C71.7254 335.979 71.176 336.096 70.5787 336.096C69.448 336.096 68.5574 335.787 67.9067 335.168C67.256 334.539 66.9307 333.616 66.9307 332.4V327.52H68.4667V332.224C68.4667 333.045 68.664 333.669 69.0587 334.096C69.4534 334.512 70.0187 334.72 70.7547 334.72C71.5654 334.72 72.2054 334.475 72.6747 333.984C73.144 333.493 73.3787 332.8 73.3787 331.904V327.52H74.9147ZM77.8388 324.128H79.3748V336H77.8388V324.128ZM85.3956 327.44C86.5689 327.44 87.4649 327.728 88.0836 328.304C88.7129 328.88 89.0276 329.739 89.0276 330.88V336H87.5716V334.88C87.3156 335.275 86.9476 335.579 86.4676 335.792C85.9982 335.995 85.4382 336.096 84.7876 336.096C83.8382 336.096 83.0756 335.867 82.4996 335.408C81.9342 334.949 81.6516 334.347 81.6516 333.6C81.6516 332.853 81.9236 332.256 82.4676 331.808C83.0116 331.349 83.8756 331.12 85.0596 331.12H87.4916V330.816C87.4916 330.155 87.2996 329.648 86.9156 329.296C86.5316 328.944 85.9662 328.768 85.2196 328.768C84.7182 328.768 84.2276 328.853 83.7476 329.024C83.2676 329.184 82.8622 329.403 82.5316 329.68L81.8916 328.528C82.3289 328.176 82.8516 327.909 83.4596 327.728C84.0676 327.536 84.7129 327.44 85.3956 327.44ZM85.0436 334.912C85.6302 334.912 86.1369 334.784 86.5636 334.528C86.9902 334.261 87.2996 333.888 87.4916 333.408V332.224H85.1236C83.8222 332.224 83.1716 332.661 83.1716 333.536C83.1716 333.963 83.3369 334.299 83.6676 334.544C83.9982 334.789 84.4569 334.912 85.0436 334.912ZM96.1669 324.128H97.7029V336H96.1669V324.128ZM104.268 336.096C103.425 336.096 102.668 335.909 101.996 335.536C101.324 335.163 100.796 334.651 100.412 334C100.038 333.339 99.8517 332.592 99.8517 331.76C99.8517 330.928 100.038 330.187 100.412 329.536C100.796 328.875 101.324 328.363 101.996 328C102.668 327.627 103.425 327.44 104.268 327.44C105.11 327.44 105.862 327.627 106.524 328C107.196 328.363 107.718 328.875 108.092 329.536C108.476 330.187 108.668 330.928 108.668 331.76C108.668 332.592 108.476 333.339 108.092 334C107.718 334.651 107.196 335.163 106.524 335.536C105.862 335.909 105.11 336.096 104.268 336.096ZM104.268 334.752C104.812 334.752 105.297 334.629 105.724 334.384C106.161 334.128 106.502 333.776 106.748 333.328C106.993 332.869 107.116 332.347 107.116 331.76C107.116 331.173 106.993 330.656 106.748 330.208C106.502 329.749 106.161 329.397 105.724 329.152C105.297 328.907 104.812 328.784 104.268 328.784C103.724 328.784 103.233 328.907 102.796 329.152C102.369 329.397 102.028 329.749 101.772 330.208C101.526 330.656 101.404 331.173 101.404 331.76C101.404 332.347 101.526 332.869 101.772 333.328C102.028 333.776 102.369 334.128 102.796 334.384C103.233 334.629 103.724 334.752 104.268 334.752ZM113.224 336.096C112.531 336.096 111.864 336.005 111.224 335.824C110.584 335.632 110.083 335.392 109.72 335.104L110.36 333.888C110.733 334.155 111.187 334.368 111.72 334.528C112.253 334.688 112.792 334.768 113.336 334.768C114.68 334.768 115.352 334.384 115.352 333.616C115.352 333.36 115.261 333.157 115.08 333.008C114.899 332.859 114.669 332.752 114.392 332.688C114.125 332.613 113.741 332.533 113.24 332.448C112.557 332.341 111.997 332.219 111.56 332.08C111.133 331.941 110.765 331.707 110.456 331.376C110.147 331.045 109.992 330.581 109.992 329.984C109.992 329.216 110.312 328.603 110.952 328.144C111.592 327.675 112.451 327.44 113.528 327.44C114.093 327.44 114.659 327.509 115.224 327.648C115.789 327.787 116.253 327.973 116.616 328.208L115.96 329.424C115.267 328.976 114.451 328.752 113.512 328.752C112.861 328.752 112.365 328.859 112.024 329.072C111.683 329.285 111.512 329.568 111.512 329.92C111.512 330.197 111.608 330.416 111.8 330.576C111.992 330.736 112.227 330.853 112.504 330.928C112.792 331.003 113.192 331.088 113.704 331.184C114.387 331.301 114.936 331.429 115.352 331.568C115.779 331.696 116.141 331.92 116.44 332.24C116.739 332.56 116.888 333.008 116.888 333.584C116.888 334.352 116.557 334.965 115.896 335.424C115.245 335.872 114.355 336.096 113.224 336.096ZM131.104 324.128V336H129.632V334.656C129.291 335.125 128.859 335.483 128.336 335.728C127.814 335.973 127.238 336.096 126.608 336.096C125.787 336.096 125.051 335.915 124.4 335.552C123.75 335.189 123.238 334.683 122.864 334.032C122.502 333.371 122.32 332.613 122.32 331.76C122.32 330.907 122.502 330.155 122.864 329.504C123.238 328.853 123.75 328.347 124.4 327.984C125.051 327.621 125.787 327.44 126.608 327.44C127.216 327.44 127.776 327.557 128.288 327.792C128.8 328.016 129.227 328.352 129.568 328.8V324.128H131.104ZM126.736 334.752C127.27 334.752 127.755 334.629 128.192 334.384C128.63 334.128 128.971 333.776 129.216 333.328C129.462 332.869 129.584 332.347 129.584 331.76C129.584 331.173 129.462 330.656 129.216 330.208C128.971 329.749 128.63 329.397 128.192 329.152C127.755 328.907 127.27 328.784 126.736 328.784C126.192 328.784 125.702 328.907 125.264 329.152C124.838 329.397 124.496 329.749 124.24 330.208C123.995 330.656 123.872 331.173 123.872 331.76C123.872 332.347 123.995 332.869 124.24 333.328C124.496 333.776 124.838 334.128 125.264 334.384C125.702 334.629 126.192 334.752 126.736 334.752ZM141.675 331.808C141.675 331.925 141.664 332.08 141.643 332.272H134.763C134.859 333.019 135.184 333.621 135.739 334.08C136.304 334.528 137.003 334.752 137.835 334.752C138.848 334.752 139.664 334.411 140.283 333.728L141.131 334.72C140.747 335.168 140.267 335.509 139.691 335.744C139.125 335.979 138.491 336.096 137.787 336.096C136.891 336.096 136.096 335.915 135.403 335.552C134.709 335.179 134.171 334.661 133.787 334C133.413 333.339 133.227 332.592 133.227 331.76C133.227 330.939 133.408 330.197 133.771 329.536C134.144 328.875 134.651 328.363 135.291 328C135.941 327.627 136.672 327.44 137.483 327.44C138.293 327.44 139.013 327.627 139.643 328C140.283 328.363 140.779 328.875 141.131 329.536C141.493 330.197 141.675 330.955 141.675 331.808ZM137.483 328.736C136.747 328.736 136.128 328.96 135.627 329.408C135.136 329.856 134.848 330.443 134.763 331.168H140.203C140.117 330.453 139.824 329.872 139.323 329.424C138.832 328.965 138.219 328.736 137.483 328.736ZM148.576 335.504C148.352 335.696 148.074 335.845 147.744 335.952C147.413 336.048 147.072 336.096 146.72 336.096C145.866 336.096 145.205 335.867 144.736 335.408C144.266 334.949 144.032 334.293 144.032 333.44V328.784H142.592V327.52H144.032V325.664H145.568V327.52H148V328.784H145.568V333.376C145.568 333.835 145.68 334.187 145.904 334.432C146.138 334.677 146.469 334.8 146.896 334.8C147.365 334.8 147.765 334.667 148.096 334.4L148.576 335.504ZM153.521 327.44C154.694 327.44 155.59 327.728 156.209 328.304C156.838 328.88 157.153 329.739 157.153 330.88V336H155.697V334.88C155.441 335.275 155.073 335.579 154.593 335.792C154.123 335.995 153.563 336.096 152.913 336.096C151.963 336.096 151.201 335.867 150.625 335.408C150.059 334.949 149.777 334.347 149.777 333.6C149.777 332.853 150.049 332.256 150.593 331.808C151.137 331.349 152.001 331.12 153.185 331.12H155.617V330.816C155.617 330.155 155.425 329.648 155.041 329.296C154.657 328.944 154.091 328.768 153.345 328.768C152.843 328.768 152.353 328.853 151.873 329.024C151.393 329.184 150.987 329.403 150.657 329.68L150.017 328.528C150.454 328.176 150.977 327.909 151.585 327.728C152.193 327.536 152.838 327.44 153.521 327.44ZM153.169 334.912C153.755 334.912 154.262 334.784 154.689 334.528C155.115 334.261 155.425 333.888 155.617 333.408V332.224H153.249C151.947 332.224 151.297 332.661 151.297 333.536C151.297 333.963 151.462 334.299 151.793 334.544C152.123 334.789 152.582 334.912 153.169 334.912ZM159.995 324.128H161.531V336H159.995V324.128ZM164.464 324.128H166V336H164.464V324.128ZM176.597 331.808C176.597 331.925 176.586 332.08 176.565 332.272H169.685C169.781 333.019 170.106 333.621 170.661 334.08C171.226 334.528 171.925 334.752 172.757 334.752C173.77 334.752 174.586 334.411 175.205 333.728L176.053 334.72C175.669 335.168 175.189 335.509 174.613 335.744C174.047 335.979 173.413 336.096 172.709 336.096C171.813 336.096 171.018 335.915 170.325 335.552C169.631 335.179 169.093 334.661 168.709 334C168.335 333.339 168.149 332.592 168.149 331.76C168.149 330.939 168.33 330.197 168.693 329.536C169.066 328.875 169.573 328.363 170.213 328C170.863 327.627 171.594 327.44 172.405 327.44C173.215 327.44 173.935 327.627 174.565 328C175.205 328.363 175.701 328.875 176.053 329.536C176.415 330.197 176.597 330.955 176.597 331.808ZM172.405 328.736C171.669 328.736 171.05 328.96 170.549 329.408C170.058 329.856 169.77 330.443 169.685 331.168H175.125C175.039 330.453 174.746 329.872 174.245 329.424C173.754 328.965 173.141 328.736 172.405 328.736ZM181.161 336.096C180.468 336.096 179.801 336.005 179.161 335.824C178.521 335.632 178.02 335.392 177.657 335.104L178.297 333.888C178.671 334.155 179.124 334.368 179.657 334.528C180.191 334.688 180.729 334.768 181.273 334.768C182.617 334.768 183.289 334.384 183.289 333.616C183.289 333.36 183.199 333.157 183.017 333.008C182.836 332.859 182.607 332.752 182.329 332.688C182.063 332.613 181.679 332.533 181.177 332.448C180.495 332.341 179.935 332.219 179.497 332.08C179.071 331.941 178.703 331.707 178.393 331.376C178.084 331.045 177.929 330.581 177.929 329.984C177.929 329.216 178.249 328.603 178.889 328.144C179.529 327.675 180.388 327.44 181.465 327.44C182.031 327.44 182.596 327.509 183.161 327.648C183.727 327.787 184.191 327.973 184.553 328.208L183.897 329.424C183.204 328.976 182.388 328.752 181.449 328.752C180.799 328.752 180.303 328.859 179.961 329.072C179.62 329.285 179.449 329.568 179.449 329.92C179.449 330.197 179.545 330.416 179.737 330.576C179.929 330.736 180.164 330.853 180.441 330.928C180.729 331.003 181.129 331.088 181.641 331.184C182.324 331.301 182.873 331.429 183.289 331.568C183.716 331.696 184.079 331.92 184.377 332.24C184.676 332.56 184.825 333.008 184.825 333.584C184.825 334.352 184.495 334.965 183.833 335.424C183.183 335.872 182.292 336.096 181.161 336.096ZM199.042 327.52V339.104H197.506V334.72C197.154 335.168 196.722 335.509 196.21 335.744C195.709 335.979 195.154 336.096 194.546 336.096C193.725 336.096 192.989 335.915 192.338 335.552C191.687 335.189 191.175 334.683 190.802 334.032C190.439 333.371 190.258 332.613 190.258 331.76C190.258 330.907 190.439 330.155 190.802 329.504C191.175 328.853 191.687 328.347 192.338 327.984C192.989 327.621 193.725 327.44 194.546 327.44C195.175 327.44 195.751 327.563 196.274 327.808C196.797 328.043 197.229 328.395 197.57 328.864V327.52H199.042ZM194.674 334.752C195.207 334.752 195.693 334.629 196.13 334.384C196.567 334.128 196.909 333.776 197.154 333.328C197.399 332.869 197.522 332.347 197.522 331.76C197.522 331.173 197.394 330.656 197.138 330.208C196.893 329.76 196.551 329.413 196.114 329.168C195.687 328.912 195.207 328.784 194.674 328.784C194.13 328.784 193.639 328.907 193.202 329.152C192.775 329.397 192.434 329.749 192.178 330.208C191.933 330.656 191.81 331.173 191.81 331.76C191.81 332.347 191.933 332.869 192.178 333.328C192.434 333.776 192.775 334.128 193.202 334.384C193.639 334.629 194.13 334.752 194.674 334.752ZM209.852 327.52V336H208.396V334.72C208.087 335.157 207.676 335.499 207.164 335.744C206.663 335.979 206.114 336.096 205.516 336.096C204.386 336.096 203.495 335.787 202.844 335.168C202.194 334.539 201.868 333.616 201.868 332.4V327.52H203.404V332.224C203.404 333.045 203.602 333.669 203.996 334.096C204.391 334.512 204.956 334.72 205.692 334.72C206.503 334.72 207.143 334.475 207.612 333.984C208.082 333.493 208.316 332.8 208.316 331.904V327.52H209.852ZM220.44 331.808C220.44 331.925 220.43 332.08 220.408 332.272H213.528C213.624 333.019 213.95 333.621 214.504 334.08C215.07 334.528 215.768 334.752 216.6 334.752C217.614 334.752 218.43 334.411 219.048 333.728L219.896 334.72C219.512 335.168 219.032 335.509 218.456 335.744C217.891 335.979 217.256 336.096 216.552 336.096C215.656 336.096 214.862 335.915 214.168 335.552C213.475 335.179 212.936 334.661 212.552 334C212.179 333.339 211.992 332.592 211.992 331.76C211.992 330.939 212.174 330.197 212.536 329.536C212.91 328.875 213.416 328.363 214.056 328C214.707 327.627 215.438 327.44 216.248 327.44C217.059 327.44 217.779 327.627 218.408 328C219.048 328.363 219.544 328.875 219.896 329.536C220.259 330.197 220.44 330.955 220.44 331.808ZM216.248 328.736C215.512 328.736 214.894 328.96 214.392 329.408C213.902 329.856 213.614 330.443 213.528 331.168H218.968C218.883 330.453 218.59 329.872 218.088 329.424C217.598 328.965 216.984 328.736 216.248 328.736ZM234.87 324.128V336H233.398V334.656C233.057 335.125 232.625 335.483 232.102 335.728C231.579 335.973 231.003 336.096 230.374 336.096C229.553 336.096 228.817 335.915 228.166 335.552C227.515 335.189 227.003 334.683 226.63 334.032C226.267 333.371 226.086 332.613 226.086 331.76C226.086 330.907 226.267 330.155 226.63 329.504C227.003 328.853 227.515 328.347 228.166 327.984C228.817 327.621 229.553 327.44 230.374 327.44C230.982 327.44 231.542 327.557 232.054 327.792C232.566 328.016 232.993 328.352 233.334 328.8V324.128H234.87ZM230.502 334.752C231.035 334.752 231.521 334.629 231.958 334.384C232.395 334.128 232.737 333.776 232.982 333.328C233.227 332.869 233.35 332.347 233.35 331.76C233.35 331.173 233.227 330.656 232.982 330.208C232.737 329.749 232.395 329.397 231.958 329.152C231.521 328.907 231.035 328.784 230.502 328.784C229.958 328.784 229.467 328.907 229.03 329.152C228.603 329.397 228.262 329.749 228.006 330.208C227.761 330.656 227.638 331.173 227.638 331.76C227.638 332.347 227.761 332.869 228.006 333.328C228.262 333.776 228.603 334.128 229.03 334.384C229.467 334.629 229.958 334.752 230.502 334.752ZM245.44 331.808C245.44 331.925 245.43 332.08 245.408 332.272H238.528C238.624 333.019 238.95 333.621 239.504 334.08C240.07 334.528 240.768 334.752 241.6 334.752C242.614 334.752 243.43 334.411 244.048 333.728L244.896 334.72C244.512 335.168 244.032 335.509 243.456 335.744C242.891 335.979 242.256 336.096 241.552 336.096C240.656 336.096 239.862 335.915 239.168 335.552C238.475 335.179 237.936 334.661 237.552 334C237.179 333.339 236.992 332.592 236.992 331.76C236.992 330.939 237.174 330.197 237.536 329.536C237.91 328.875 238.416 328.363 239.056 328C239.707 327.627 240.438 327.44 241.248 327.44C242.059 327.44 242.779 327.627 243.408 328C244.048 328.363 244.544 328.875 244.896 329.536C245.259 330.197 245.44 330.955 245.44 331.808ZM241.248 328.736C240.512 328.736 239.894 328.96 239.392 329.408C238.902 329.856 238.614 330.443 238.528 331.168H243.968C243.883 330.453 243.59 329.872 243.088 329.424C242.598 328.965 241.984 328.736 241.248 328.736ZM250.005 336.096C249.312 336.096 248.645 336.005 248.005 335.824C247.365 335.632 246.864 335.392 246.501 335.104L247.141 333.888C247.515 334.155 247.968 334.368 248.501 334.528C249.035 334.688 249.573 334.768 250.117 334.768C251.461 334.768 252.133 334.384 252.133 333.616C252.133 333.36 252.043 333.157 251.861 333.008C251.68 332.859 251.451 332.752 251.173 332.688C250.907 332.613 250.523 332.533 250.021 332.448C249.339 332.341 248.779 332.219 248.341 332.08C247.915 331.941 247.547 331.707 247.237 331.376C246.928 331.045 246.773 330.581 246.773 329.984C246.773 329.216 247.093 328.603 247.733 328.144C248.373 327.675 249.232 327.44 250.309 327.44C250.875 327.44 251.44 327.509 252.005 327.648C252.571 327.787 253.035 327.973 253.397 328.208L252.741 329.424C252.048 328.976 251.232 328.752 250.293 328.752C249.643 328.752 249.147 328.859 248.805 329.072C248.464 329.285 248.293 329.568 248.293 329.92C248.293 330.197 248.389 330.416 248.581 330.576C248.773 330.736 249.008 330.853 249.285 330.928C249.573 331.003 249.973 331.088 250.485 331.184C251.168 331.301 251.717 331.429 252.133 331.568C252.56 331.696 252.923 331.92 253.221 332.24C253.52 332.56 253.669 333.008 253.669 333.584C253.669 334.352 253.339 334.965 252.677 335.424C252.027 335.872 251.136 336.096 250.005 336.096ZM263.253 331.808C263.253 331.925 263.242 332.08 263.221 332.272H256.341C256.437 333.019 256.762 333.621 257.317 334.08C257.882 334.528 258.581 334.752 259.413 334.752C260.426 334.752 261.242 334.411 261.861 333.728L262.709 334.72C262.325 335.168 261.845 335.509 261.269 335.744C260.703 335.979 260.069 336.096 259.365 336.096C258.469 336.096 257.674 335.915 256.981 335.552C256.287 335.179 255.749 334.661 255.365 334C254.991 333.339 254.805 332.592 254.805 331.76C254.805 330.939 254.986 330.197 255.349 329.536C255.722 328.875 256.229 328.363 256.869 328C257.519 327.627 258.25 327.44 259.061 327.44C259.871 327.44 260.591 327.627 261.221 328C261.861 328.363 262.357 328.875 262.709 329.536C263.071 330.197 263.253 330.955 263.253 331.808ZM259.061 328.736C258.325 328.736 257.706 328.96 257.205 329.408C256.714 329.856 256.426 330.443 256.341 331.168H261.781C261.695 330.453 261.402 329.872 260.901 329.424C260.41 328.965 259.797 328.736 259.061 328.736ZM273.05 331.808C273.05 331.925 273.039 332.08 273.018 332.272H266.138C266.234 333.019 266.559 333.621 267.114 334.08C267.679 334.528 268.378 334.752 269.21 334.752C270.223 334.752 271.039 334.411 271.658 333.728L272.506 334.72C272.122 335.168 271.642 335.509 271.066 335.744C270.5 335.979 269.866 336.096 269.162 336.096C268.266 336.096 267.471 335.915 266.778 335.552C266.084 335.179 265.546 334.661 265.162 334C264.788 333.339 264.602 332.592 264.602 331.76C264.602 330.939 264.783 330.197 265.146 329.536C265.519 328.875 266.026 328.363 266.666 328C267.316 327.627 268.047 327.44 268.858 327.44C269.668 327.44 270.388 327.627 271.018 328C271.658 328.363 272.154 328.875 272.506 329.536C272.868 330.197 273.05 330.955 273.05 331.808ZM268.858 328.736C268.122 328.736 267.503 328.96 267.002 329.408C266.511 329.856 266.223 330.443 266.138 331.168H271.578C271.492 330.453 271.199 329.872 270.698 329.424C270.207 328.965 269.594 328.736 268.858 328.736ZM277.615 336.096C276.921 336.096 276.255 336.005 275.615 335.824C274.975 335.632 274.473 335.392 274.111 335.104L274.751 333.888C275.124 334.155 275.577 334.368 276.111 334.528C276.644 334.688 277.183 334.768 277.727 334.768C279.071 334.768 279.743 334.384 279.743 333.616C279.743 333.36 279.652 333.157 279.471 333.008C279.289 332.859 279.06 332.752 278.783 332.688C278.516 332.613 278.132 332.533 277.631 332.448C276.948 332.341 276.388 332.219 275.951 332.08C275.524 331.941 275.156 331.707 274.847 331.376C274.537 331.045 274.383 330.581 274.383 329.984C274.383 329.216 274.703 328.603 275.343 328.144C275.983 327.675 276.841 327.44 277.919 327.44C278.484 327.44 279.049 327.509 279.615 327.648C280.18 327.787 280.644 327.973 281.007 328.208L280.351 329.424C279.657 328.976 278.841 328.752 277.903 328.752C277.252 328.752 276.756 328.859 276.415 329.072C276.073 329.285 275.903 329.568 275.903 329.92C275.903 330.197 275.999 330.416 276.191 330.576C276.383 330.736 276.617 330.853 276.895 330.928C277.183 331.003 277.583 331.088 278.095 331.184C278.777 331.301 279.327 331.429 279.743 331.568C280.169 331.696 280.532 331.92 280.831 332.24C281.129 332.56 281.279 333.008 281.279 333.584C281.279 334.352 280.948 334.965 280.287 335.424C279.636 335.872 278.745 336.096 277.615 336.096ZM291.191 336.096C290.327 336.096 289.554 335.909 288.871 335.536C288.199 335.163 287.671 334.651 287.287 334C286.903 333.339 286.711 332.592 286.711 331.76C286.711 330.928 286.903 330.187 287.287 329.536C287.671 328.875 288.199 328.363 288.871 328C289.554 327.627 290.327 327.44 291.191 327.44C291.959 327.44 292.642 327.595 293.239 327.904C293.847 328.213 294.316 328.661 294.647 329.248L293.479 330C293.212 329.595 292.882 329.291 292.487 329.088C292.092 328.885 291.655 328.784 291.175 328.784C290.62 328.784 290.119 328.907 289.671 329.152C289.234 329.397 288.887 329.749 288.631 330.208C288.386 330.656 288.263 331.173 288.263 331.76C288.263 332.357 288.386 332.885 288.631 333.344C288.887 333.792 289.234 334.139 289.671 334.384C290.119 334.629 290.62 334.752 291.175 334.752C291.655 334.752 292.092 334.651 292.487 334.448C292.882 334.245 293.212 333.941 293.479 333.536L294.647 334.272C294.316 334.859 293.847 335.312 293.239 335.632C292.642 335.941 291.959 336.096 291.191 336.096ZM300.143 336.096C299.3 336.096 298.543 335.909 297.871 335.536C297.199 335.163 296.671 334.651 296.287 334C295.913 333.339 295.727 332.592 295.727 331.76C295.727 330.928 295.913 330.187 296.287 329.536C296.671 328.875 297.199 328.363 297.871 328C298.543 327.627 299.3 327.44 300.143 327.44C300.985 327.44 301.737 327.627 302.399 328C303.071 328.363 303.593 328.875 303.967 329.536C304.351 330.187 304.543 330.928 304.543 331.76C304.543 332.592 304.351 333.339 303.967 334C303.593 334.651 303.071 335.163 302.399 335.536C301.737 335.909 300.985 336.096 300.143 336.096ZM300.143 334.752C300.687 334.752 301.172 334.629 301.599 334.384C302.036 334.128 302.377 333.776 302.623 333.328C302.868 332.869 302.991 332.347 302.991 331.76C302.991 331.173 302.868 330.656 302.623 330.208C302.377 329.749 302.036 329.397 301.599 329.152C301.172 328.907 300.687 328.784 300.143 328.784C299.599 328.784 299.108 328.907 298.671 329.152C298.244 329.397 297.903 329.749 297.647 330.208C297.401 330.656 297.279 331.173 297.279 331.76C297.279 332.347 297.401 332.869 297.647 333.328C297.903 333.776 298.244 334.128 298.671 334.384C299.108 334.629 299.599 334.752 300.143 334.752ZM311.195 327.44C312.272 327.44 313.126 327.755 313.755 328.384C314.395 329.003 314.715 329.915 314.715 331.12V336H313.179V331.296C313.179 330.475 312.982 329.856 312.587 329.44C312.192 329.024 311.627 328.816 310.891 328.816C310.059 328.816 309.403 329.061 308.923 329.552C308.443 330.032 308.203 330.725 308.203 331.632V336H306.667V327.52H308.139V328.8C308.448 328.363 308.864 328.027 309.387 327.792C309.92 327.557 310.523 327.44 311.195 327.44ZM321.854 324.128H323.39V336H321.854V324.128ZM329.955 336.096C329.113 336.096 328.355 335.909 327.683 335.536C327.011 335.163 326.483 334.651 326.099 334C325.726 333.339 325.539 332.592 325.539 331.76C325.539 330.928 325.726 330.187 326.099 329.536C326.483 328.875 327.011 328.363 327.683 328C328.355 327.627 329.113 327.44 329.955 327.44C330.798 327.44 331.55 327.627 332.211 328C332.883 328.363 333.406 328.875 333.779 329.536C334.163 330.187 334.355 330.928 334.355 331.76C334.355 332.592 334.163 333.339 333.779 334C333.406 334.651 332.883 335.163 332.211 335.536C331.55 335.909 330.798 336.096 329.955 336.096ZM329.955 334.752C330.499 334.752 330.985 334.629 331.411 334.384C331.849 334.128 332.19 333.776 332.435 333.328C332.681 332.869 332.803 332.347 332.803 331.76C332.803 331.173 332.681 330.656 332.435 330.208C332.19 329.749 331.849 329.397 331.411 329.152C330.985 328.907 330.499 328.784 329.955 328.784C329.411 328.784 328.921 328.907 328.483 329.152C328.057 329.397 327.715 329.749 327.459 330.208C327.214 330.656 327.091 331.173 327.091 331.76C327.091 332.347 327.214 332.869 327.459 333.328C327.715 333.776 328.057 334.128 328.483 334.384C328.921 334.629 329.411 334.752 329.955 334.752ZM338.911 336.096C338.218 336.096 337.551 336.005 336.911 335.824C336.271 335.632 335.77 335.392 335.407 335.104L336.047 333.888C336.421 334.155 336.874 334.368 337.407 334.528C337.941 334.688 338.479 334.768 339.023 334.768C340.367 334.768 341.039 334.384 341.039 333.616C341.039 333.36 340.949 333.157 340.767 333.008C340.586 332.859 340.357 332.752 340.079 332.688C339.813 332.613 339.429 332.533 338.927 332.448C338.245 332.341 337.685 332.219 337.247 332.08C336.821 331.941 336.453 331.707 336.143 331.376C335.834 331.045 335.679 330.581 335.679 329.984C335.679 329.216 335.999 328.603 336.639 328.144C337.279 327.675 338.138 327.44 339.215 327.44C339.781 327.44 340.346 327.509 340.911 327.648C341.477 327.787 341.941 327.973 342.303 328.208L341.647 329.424C340.954 328.976 340.138 328.752 339.199 328.752C338.549 328.752 338.053 328.859 337.711 329.072C337.37 329.285 337.199 329.568 337.199 329.92C337.199 330.197 337.295 330.416 337.487 330.576C337.679 330.736 337.914 330.853 338.191 330.928C338.479 331.003 338.879 331.088 339.391 331.184C340.074 331.301 340.623 331.429 341.039 331.568C341.466 331.696 341.829 331.92 342.127 332.24C342.426 332.56 342.575 333.008 342.575 333.584C342.575 334.352 342.245 334.965 341.583 335.424C340.933 335.872 340.042 336.096 338.911 336.096ZM61.0015 347.44C62.0682 347.44 62.9108 347.749 63.5295 348.368C64.1588 348.987 64.4735 349.904 64.4735 351.12V356H62.9375V351.296C62.9375 350.475 62.7455 349.856 62.3615 349.44C61.9882 349.024 61.4495 348.816 60.7455 348.816C59.9668 348.816 59.3482 349.061 58.8895 349.552C58.4308 350.032 58.2015 350.725 58.2015 351.632V356H56.6655V351.296C56.6655 350.475 56.4735 349.856 56.0895 349.44C55.7162 349.024 55.1775 348.816 54.4735 348.816C53.6948 348.816 53.0762 349.061 52.6175 349.552C52.1588 350.032 51.9295 350.725 51.9295 351.632V356H50.3935V347.52H51.8655V348.784C52.1748 348.347 52.5802 348.016 53.0815 347.792C53.5828 347.557 54.1535 347.44 54.7935 347.44C55.4548 347.44 56.0415 347.573 56.5535 347.84C57.0655 348.107 57.4602 348.496 57.7375 349.008C58.0575 348.517 58.5002 348.133 59.0655 347.856C59.6415 347.579 60.2868 347.44 61.0015 347.44ZM70.3878 347.44C71.5611 347.44 72.4571 347.728 73.0758 348.304C73.7051 348.88 74.0198 349.739 74.0198 350.88V356H72.5638V354.88C72.3078 355.275 71.9398 355.579 71.4598 355.792C70.9904 355.995 70.4304 356.096 69.7798 356.096C68.8304 356.096 68.0678 355.867 67.4918 355.408C66.9264 354.949 66.6438 354.347 66.6438 353.6C66.6438 352.853 66.9158 352.256 67.4598 351.808C68.0038 351.349 68.8678 351.12 70.0518 351.12H72.4838V350.816C72.4838 350.155 72.2918 349.648 71.9078 349.296C71.5238 348.944 70.9584 348.768 70.2118 348.768C69.7104 348.768 69.2198 348.853 68.7398 349.024C68.2598 349.184 67.8544 349.403 67.5238 349.68L66.8838 348.528C67.3211 348.176 67.8438 347.909 68.4518 347.728C69.0598 347.536 69.7051 347.44 70.3878 347.44ZM70.0358 354.912C70.6224 354.912 71.1291 354.784 71.5558 354.528C71.9824 354.261 72.2918 353.888 72.4838 353.408V352.224H70.1158C68.8144 352.224 68.1638 352.661 68.1638 353.536C68.1638 353.963 68.3291 354.299 68.6598 354.544C68.9904 354.789 69.4491 354.912 70.0358 354.912ZM81.6303 355.504C81.4063 355.696 81.1289 355.845 80.7983 355.952C80.4676 356.048 80.1263 356.096 79.7743 356.096C78.9209 356.096 78.2596 355.867 77.7903 355.408C77.3209 354.949 77.0863 354.293 77.0863 353.44V348.784H75.6463V347.52H77.0863V345.664H78.6223V347.52H81.0543V348.784H78.6223V353.376C78.6223 353.835 78.7343 354.187 78.9583 354.432C79.1929 354.677 79.5236 354.8 79.9503 354.8C80.4196 354.8 80.8196 354.667 81.1503 354.4L81.6303 355.504ZM90.87 351.808C90.87 351.925 90.8593 352.08 90.838 352.272H83.958C84.054 353.019 84.3793 353.621 84.934 354.08C85.4993 354.528 86.198 354.752 87.03 354.752C88.0433 354.752 88.8593 354.411 89.478 353.728L90.326 354.72C89.942 355.168 89.462 355.509 88.886 355.744C88.3207 355.979 87.686 356.096 86.982 356.096C86.086 356.096 85.2913 355.915 84.598 355.552C83.9047 355.179 83.366 354.661 82.982 354C82.6087 353.339 82.422 352.592 82.422 351.76C82.422 350.939 82.6033 350.197 82.966 349.536C83.3393 348.875 83.846 348.363 84.486 348C85.1367 347.627 85.8673 347.44 86.678 347.44C87.4887 347.44 88.2087 347.627 88.838 348C89.478 348.363 89.974 348.875 90.326 349.536C90.6887 350.197 90.87 350.955 90.87 351.808ZM86.678 348.736C85.942 348.736 85.3233 348.96 84.822 349.408C84.3313 349.856 84.0433 350.443 83.958 351.168H89.398C89.3127 350.453 89.0193 349.872 88.518 349.424C88.0273 348.965 87.414 348.736 86.678 348.736ZM94.4749 348.944C94.7415 348.453 95.1362 348.08 95.6589 347.824C96.1815 347.568 96.8162 347.44 97.5629 347.44V348.928C97.4775 348.917 97.3602 348.912 97.2109 348.912C96.3789 348.912 95.7229 349.163 95.2429 349.664C94.7735 350.155 94.5389 350.859 94.5389 351.776V356H93.0029V347.52H94.4749V348.944ZM99.456 347.52H100.992V356H99.456V347.52ZM100.224 345.888C99.9253 345.888 99.6747 345.792 99.472 345.6C99.28 345.408 99.184 345.173 99.184 344.896C99.184 344.619 99.28 344.384 99.472 344.192C99.6747 343.989 99.9253 343.888 100.224 343.888C100.523 343.888 100.768 343.984 100.96 344.176C101.163 344.357 101.264 344.587 101.264 344.864C101.264 345.152 101.163 345.397 100.96 345.6C100.768 345.792 100.523 345.888 100.224 345.888ZM107.013 347.44C108.186 347.44 109.082 347.728 109.701 348.304C110.33 348.88 110.645 349.739 110.645 350.88V356H109.189V354.88C108.933 355.275 108.565 355.579 108.085 355.792C107.615 355.995 107.055 356.096 106.405 356.096C105.455 356.096 104.693 355.867 104.117 355.408C103.551 354.949 103.269 354.347 103.269 353.6C103.269 352.853 103.541 352.256 104.085 351.808C104.629 351.349 105.493 351.12 106.677 351.12H109.109V350.816C109.109 350.155 108.917 349.648 108.533 349.296C108.149 348.944 107.583 348.768 106.837 348.768C106.335 348.768 105.845 348.853 105.365 349.024C104.885 349.184 104.479 349.403 104.149 349.68L103.509 348.528C103.946 348.176 104.469 347.909 105.077 347.728C105.685 347.536 106.33 347.44 107.013 347.44ZM106.661 354.912C107.247 354.912 107.754 354.784 108.181 354.528C108.607 354.261 108.917 353.888 109.109 353.408V352.224H106.741C105.439 352.224 104.789 352.661 104.789 353.536C104.789 353.963 104.954 354.299 105.285 354.544C105.615 354.789 106.074 354.912 106.661 354.912ZM113.487 344.128H115.023V356H113.487V344.128ZM125.62 351.808C125.62 351.925 125.609 352.08 125.588 352.272H118.708C118.804 353.019 119.129 353.621 119.684 354.08C120.249 354.528 120.948 354.752 121.78 354.752C122.793 354.752 123.609 354.411 124.228 353.728L125.076 354.72C124.692 355.168 124.212 355.509 123.636 355.744C123.071 355.979 122.436 356.096 121.732 356.096C120.836 356.096 120.041 355.915 119.348 355.552C118.655 355.179 118.116 354.661 117.732 354C117.359 353.339 117.172 352.592 117.172 351.76C117.172 350.939 117.353 350.197 117.716 349.536C118.089 348.875 118.596 348.363 119.236 348C119.887 347.627 120.617 347.44 121.428 347.44C122.239 347.44 122.959 347.627 123.588 348C124.228 348.363 124.724 348.875 125.076 349.536C125.439 350.197 125.62 350.955 125.62 351.808ZM121.428 348.736C120.692 348.736 120.073 348.96 119.572 349.408C119.081 349.856 118.793 350.443 118.708 351.168H124.148C124.063 350.453 123.769 349.872 123.268 349.424C122.777 348.965 122.164 348.736 121.428 348.736ZM130.185 356.096C129.492 356.096 128.825 356.005 128.185 355.824C127.545 355.632 127.044 355.392 126.681 355.104L127.321 353.888C127.694 354.155 128.148 354.368 128.681 354.528C129.214 354.688 129.753 354.768 130.297 354.768C131.641 354.768 132.313 354.384 132.313 353.616C132.313 353.36 132.222 353.157 132.041 353.008C131.86 352.859 131.63 352.752 131.353 352.688C131.086 352.613 130.702 352.533 130.201 352.448C129.518 352.341 128.958 352.219 128.521 352.08C128.094 351.941 127.726 351.707 127.417 351.376C127.108 351.045 126.953 350.581 126.953 349.984C126.953 349.216 127.273 348.603 127.913 348.144C128.553 347.675 129.412 347.44 130.489 347.44C131.054 347.44 131.62 347.509 132.185 347.648C132.75 347.787 133.214 347.973 133.577 348.208L132.921 349.424C132.228 348.976 131.412 348.752 130.473 348.752C129.822 348.752 129.326 348.859 128.985 349.072C128.644 349.285 128.473 349.568 128.473 349.92C128.473 350.197 128.569 350.416 128.761 350.576C128.953 350.736 129.188 350.853 129.465 350.928C129.753 351.003 130.153 351.088 130.665 351.184C131.348 351.301 131.897 351.429 132.313 351.568C132.74 351.696 133.102 351.92 133.401 352.24C133.7 352.56 133.849 353.008 133.849 353.584C133.849 354.352 133.518 354.965 132.857 355.424C132.206 355.872 131.316 356.096 130.185 356.096ZM148.065 347.52V359.104H146.529V354.72C146.177 355.168 145.745 355.509 145.233 355.744C144.732 355.979 144.177 356.096 143.569 356.096C142.748 356.096 142.012 355.915 141.361 355.552C140.711 355.189 140.199 354.683 139.825 354.032C139.463 353.371 139.281 352.613 139.281 351.76C139.281 350.907 139.463 350.155 139.825 349.504C140.199 348.853 140.711 348.347 141.361 347.984C142.012 347.621 142.748 347.44 143.569 347.44C144.199 347.44 144.775 347.563 145.297 347.808C145.82 348.043 146.252 348.395 146.593 348.864V347.52H148.065ZM143.697 354.752C144.231 354.752 144.716 354.629 145.153 354.384C145.591 354.128 145.932 353.776 146.177 353.328C146.423 352.869 146.545 352.347 146.545 351.76C146.545 351.173 146.417 350.656 146.161 350.208C145.916 349.76 145.575 349.413 145.137 349.168C144.711 348.912 144.231 348.784 143.697 348.784C143.153 348.784 142.663 348.907 142.225 349.152C141.799 349.397 141.457 349.749 141.201 350.208C140.956 350.656 140.833 351.173 140.833 351.76C140.833 352.347 140.956 352.869 141.201 353.328C141.457 353.776 141.799 354.128 142.225 354.384C142.663 354.629 143.153 354.752 143.697 354.752ZM158.876 347.52V356H157.42V354.72C157.11 355.157 156.7 355.499 156.188 355.744C155.686 355.979 155.137 356.096 154.54 356.096C153.409 356.096 152.518 355.787 151.868 355.168C151.217 354.539 150.892 353.616 150.892 352.4V347.52H152.428V352.224C152.428 353.045 152.625 353.669 153.02 354.096C153.414 354.512 153.98 354.72 154.716 354.72C155.526 354.72 156.166 354.475 156.636 353.984C157.105 353.493 157.34 352.8 157.34 351.904V347.52H158.876ZM169.464 351.808C169.464 351.925 169.453 352.08 169.432 352.272H162.552C162.648 353.019 162.973 353.621 163.528 354.08C164.093 354.528 164.792 354.752 165.624 354.752C166.637 354.752 167.453 354.411 168.072 353.728L168.92 354.72C168.536 355.168 168.056 355.509 167.48 355.744C166.914 355.979 166.28 356.096 165.576 356.096C164.68 356.096 163.885 355.915 163.192 355.552C162.498 355.179 161.96 354.661 161.576 354C161.202 353.339 161.016 352.592 161.016 351.76C161.016 350.939 161.197 350.197 161.56 349.536C161.933 348.875 162.44 348.363 163.08 348C163.73 347.627 164.461 347.44 165.272 347.44C166.082 347.44 166.802 347.627 167.432 348C168.072 348.363 168.568 348.875 168.92 349.536C169.282 350.197 169.464 350.955 169.464 351.808ZM165.272 348.736C164.536 348.736 163.917 348.96 163.416 349.408C162.925 349.856 162.637 350.443 162.552 351.168H167.992C167.906 350.453 167.613 349.872 167.112 349.424C166.621 348.965 166.008 348.736 165.272 348.736ZM180.662 355.504C180.438 355.696 180.16 355.845 179.83 355.952C179.499 356.048 179.158 356.096 178.806 356.096C177.952 356.096 177.291 355.867 176.822 355.408C176.352 354.949 176.118 354.293 176.118 353.44V348.784H174.678V347.52H176.118V345.664H177.654V347.52H180.086V348.784H177.654V353.376C177.654 353.835 177.766 354.187 177.99 354.432C178.224 354.677 178.555 354.8 178.982 354.8C179.451 354.8 179.851 354.667 180.182 354.4L180.662 355.504ZM189.901 351.808C189.901 351.925 189.891 352.08 189.869 352.272H182.989C183.085 353.019 183.411 353.621 183.965 354.08C184.531 354.528 185.229 354.752 186.061 354.752C187.075 354.752 187.891 354.411 188.509 353.728L189.357 354.72C188.973 355.168 188.493 355.509 187.917 355.744C187.352 355.979 186.717 356.096 186.013 356.096C185.117 356.096 184.323 355.915 183.629 355.552C182.936 355.179 182.397 354.661 182.013 354C181.64 353.339 181.453 352.592 181.453 351.76C181.453 350.939 181.635 350.197 181.997 349.536C182.371 348.875 182.877 348.363 183.517 348C184.168 347.627 184.899 347.44 185.709 347.44C186.52 347.44 187.24 347.627 187.869 348C188.509 348.363 189.005 348.875 189.357 349.536C189.72 350.197 189.901 350.955 189.901 351.808ZM185.709 348.736C184.973 348.736 184.355 348.96 183.853 349.408C183.363 349.856 183.075 350.443 182.989 351.168H188.429C188.344 350.453 188.051 349.872 187.549 349.424C187.059 348.965 186.445 348.736 185.709 348.736ZM196.562 347.44C197.639 347.44 198.493 347.755 199.122 348.384C199.762 349.003 200.082 349.915 200.082 351.12V356H198.546V351.296C198.546 350.475 198.349 349.856 197.954 349.44C197.559 349.024 196.994 348.816 196.258 348.816C195.426 348.816 194.77 349.061 194.29 349.552C193.81 350.032 193.57 350.725 193.57 351.632V356H192.034V347.52H193.506V348.8C193.815 348.363 194.231 348.027 194.754 347.792C195.287 347.557 195.89 347.44 196.562 347.44ZM211.084 347.52V354.848C211.084 356.331 210.716 357.424 209.98 358.128C209.244 358.843 208.145 359.2 206.684 359.2C205.884 359.2 205.121 359.088 204.396 358.864C203.67 358.651 203.084 358.341 202.636 357.936L203.372 356.752C203.766 357.093 204.252 357.36 204.828 357.552C205.414 357.755 206.017 357.856 206.636 357.856C207.628 357.856 208.358 357.621 208.828 357.152C209.308 356.683 209.548 355.968 209.548 355.008V354.336C209.185 354.773 208.737 355.104 208.204 355.328C207.681 355.541 207.11 355.648 206.492 355.648C205.681 355.648 204.945 355.477 204.284 355.136C203.633 354.784 203.121 354.299 202.748 353.68C202.374 353.051 202.188 352.336 202.188 351.536C202.188 350.736 202.374 350.027 202.748 349.408C203.121 348.779 203.633 348.293 204.284 347.952C204.945 347.611 205.681 347.44 206.492 347.44C207.132 347.44 207.724 347.557 208.268 347.792C208.822 348.027 209.276 348.373 209.628 348.832V347.52H211.084ZM206.668 354.304C207.222 354.304 207.718 354.187 208.156 353.952C208.604 353.717 208.95 353.392 209.196 352.976C209.452 352.549 209.58 352.069 209.58 351.536C209.58 350.715 209.308 350.053 208.764 349.552C208.22 349.04 207.521 348.784 206.668 348.784C205.804 348.784 205.1 349.04 204.556 349.552C204.012 350.053 203.74 350.715 203.74 351.536C203.74 352.069 203.862 352.549 204.108 352.976C204.364 353.392 204.71 353.717 205.148 353.952C205.596 354.187 206.102 354.304 206.668 354.304ZM217.107 347.44C218.28 347.44 219.176 347.728 219.795 348.304C220.424 348.88 220.739 349.739 220.739 350.88V356H219.283V354.88C219.027 355.275 218.659 355.579 218.179 355.792C217.709 355.995 217.149 356.096 216.499 356.096C215.549 356.096 214.787 355.867 214.211 355.408C213.645 354.949 213.363 354.347 213.363 353.6C213.363 352.853 213.635 352.256 214.179 351.808C214.723 351.349 215.587 351.12 216.771 351.12H219.203V350.816C219.203 350.155 219.011 349.648 218.627 349.296C218.243 348.944 217.677 348.768 216.931 348.768C216.429 348.768 215.939 348.853 215.459 349.024C214.979 349.184 214.573 349.403 214.243 349.68L213.603 348.528C214.04 348.176 214.563 347.909 215.171 347.728C215.779 347.536 216.424 347.44 217.107 347.44ZM216.755 354.912C217.341 354.912 217.848 354.784 218.275 354.528C218.701 354.261 219.011 353.888 219.203 353.408V352.224H216.835C215.533 352.224 214.883 352.661 214.883 353.536C214.883 353.963 215.048 354.299 215.379 354.544C215.709 354.789 216.168 354.912 216.755 354.912ZM226.013 356.096C225.32 356.096 224.653 356.005 224.013 355.824C223.373 355.632 222.872 355.392 222.509 355.104L223.149 353.888C223.522 354.155 223.976 354.368 224.509 354.528C225.042 354.688 225.581 354.768 226.125 354.768C227.469 354.768 228.141 354.384 228.141 353.616C228.141 353.36 228.05 353.157 227.869 353.008C227.688 352.859 227.458 352.752 227.181 352.688C226.914 352.613 226.53 352.533 226.029 352.448C225.346 352.341 224.786 352.219 224.349 352.08C223.922 351.941 223.554 351.707 223.245 351.376C222.936 351.045 222.781 350.581 222.781 349.984C222.781 349.216 223.101 348.603 223.741 348.144C224.381 347.675 225.24 347.44 226.317 347.44C226.882 347.44 227.448 347.509 228.013 347.648C228.578 347.787 229.042 347.973 229.405 348.208L228.749 349.424C228.056 348.976 227.24 348.752 226.301 348.752C225.65 348.752 225.154 348.859 224.813 349.072C224.472 349.285 224.301 349.568 224.301 349.92C224.301 350.197 224.397 350.416 224.589 350.576C224.781 350.736 225.016 350.853 225.293 350.928C225.581 351.003 225.981 351.088 226.493 351.184C227.176 351.301 227.725 351.429 228.141 351.568C228.568 351.696 228.93 351.92 229.229 352.24C229.528 352.56 229.677 353.008 229.677 353.584C229.677 354.352 229.346 354.965 228.685 355.424C228.034 355.872 227.144 356.096 226.013 356.096ZM243.894 344.128V356H242.422V354.656C242.08 355.125 241.648 355.483 241.126 355.728C240.603 355.973 240.027 356.096 239.398 356.096C238.576 356.096 237.84 355.915 237.19 355.552C236.539 355.189 236.027 354.683 235.654 354.032C235.291 353.371 235.11 352.613 235.11 351.76C235.11 350.907 235.291 350.155 235.654 349.504C236.027 348.853 236.539 348.347 237.19 347.984C237.84 347.621 238.576 347.44 239.398 347.44C240.006 347.44 240.566 347.557 241.078 347.792C241.59 348.016 242.016 348.352 242.358 348.8V344.128H243.894ZM239.526 354.752C240.059 354.752 240.544 354.629 240.982 354.384C241.419 354.128 241.76 353.776 242.006 353.328C242.251 352.869 242.374 352.347 242.374 351.76C242.374 351.173 242.251 350.656 242.006 350.208C241.76 349.749 241.419 349.397 240.982 349.152C240.544 348.907 240.059 348.784 239.526 348.784C238.982 348.784 238.491 348.907 238.054 349.152C237.627 349.397 237.286 349.749 237.03 350.208C236.784 350.656 236.662 351.173 236.662 351.76C236.662 352.347 236.784 352.869 237.03 353.328C237.286 353.776 237.627 354.128 238.054 354.384C238.491 354.629 238.982 354.752 239.526 354.752ZM246.8 347.52H248.336V356H246.8V347.52ZM247.568 345.888C247.269 345.888 247.018 345.792 246.816 345.6C246.624 345.408 246.528 345.173 246.528 344.896C246.528 344.619 246.624 344.384 246.816 344.192C247.018 343.989 247.269 343.888 247.568 343.888C247.866 343.888 248.112 343.984 248.304 344.176C248.506 344.357 248.608 344.587 248.608 344.864C248.608 345.152 248.506 345.397 248.304 345.6C248.112 345.792 247.866 345.888 247.568 345.888ZM253.701 356.096C253.007 356.096 252.341 356.005 251.701 355.824C251.061 355.632 250.559 355.392 250.197 355.104L250.837 353.888C251.21 354.155 251.663 354.368 252.197 354.528C252.73 354.688 253.269 354.768 253.812 354.768C255.157 354.768 255.829 354.384 255.829 353.616C255.829 353.36 255.738 353.157 255.557 353.008C255.375 352.859 255.146 352.752 254.869 352.688C254.602 352.613 254.218 352.533 253.717 352.448C253.034 352.341 252.474 352.219 252.037 352.08C251.61 351.941 251.242 351.707 250.933 351.376C250.623 351.045 250.469 350.581 250.469 349.984C250.469 349.216 250.789 348.603 251.429 348.144C252.069 347.675 252.927 347.44 254.005 347.44C254.57 347.44 255.135 347.509 255.701 347.648C256.266 347.787 256.73 347.973 257.093 348.208L256.437 349.424C255.743 348.976 254.927 348.752 253.989 348.752C253.338 348.752 252.842 348.859 252.501 349.072C252.159 349.285 251.989 349.568 251.989 349.92C251.989 350.197 252.085 350.416 252.277 350.576C252.469 350.736 252.703 350.853 252.981 350.928C253.269 351.003 253.669 351.088 254.181 351.184C254.863 351.301 255.413 351.429 255.829 351.568C256.255 351.696 256.618 351.92 256.917 352.24C257.215 352.56 257.365 353.008 257.365 353.584C257.365 354.352 257.034 354.965 256.373 355.424C255.722 355.872 254.831 356.096 253.701 356.096ZM263.78 347.44C264.601 347.44 265.337 347.621 265.988 347.984C266.639 348.347 267.145 348.853 267.508 349.504C267.881 350.155 268.068 350.907 268.068 351.76C268.068 352.613 267.881 353.371 267.508 354.032C267.145 354.683 266.639 355.189 265.988 355.552C265.337 355.915 264.601 356.096 263.78 356.096C263.172 356.096 262.612 355.979 262.1 355.744C261.599 355.509 261.172 355.168 260.82 354.72V359.104H259.284V347.52H260.756V348.864C261.097 348.395 261.529 348.043 262.052 347.808C262.575 347.563 263.151 347.44 263.78 347.44ZM263.652 354.752C264.196 354.752 264.681 354.629 265.108 354.384C265.545 354.128 265.887 353.776 266.132 353.328C266.388 352.869 266.516 352.347 266.516 351.76C266.516 351.173 266.388 350.656 266.132 350.208C265.887 349.749 265.545 349.397 265.108 349.152C264.681 348.907 264.196 348.784 263.652 348.784C263.119 348.784 262.633 348.912 262.196 349.168C261.769 349.413 261.428 349.76 261.172 350.208C260.927 350.656 260.804 351.173 260.804 351.76C260.804 352.347 260.927 352.869 261.172 353.328C261.417 353.776 261.759 354.128 262.196 354.384C262.633 354.629 263.119 354.752 263.652 354.752ZM273.822 356.096C272.98 356.096 272.222 355.909 271.55 355.536C270.878 355.163 270.35 354.651 269.966 354C269.593 353.339 269.406 352.592 269.406 351.76C269.406 350.928 269.593 350.187 269.966 349.536C270.35 348.875 270.878 348.363 271.55 348C272.222 347.627 272.98 347.44 273.822 347.44C274.665 347.44 275.417 347.627 276.078 348C276.75 348.363 277.273 348.875 277.646 349.536C278.03 350.187 278.222 350.928 278.222 351.76C278.222 352.592 278.03 353.339 277.646 354C277.273 354.651 276.75 355.163 276.078 355.536C275.417 355.909 274.665 356.096 273.822 356.096ZM273.822 354.752C274.366 354.752 274.852 354.629 275.278 354.384C275.716 354.128 276.057 353.776 276.302 353.328C276.548 352.869 276.67 352.347 276.67 351.76C276.67 351.173 276.548 350.656 276.302 350.208C276.057 349.749 275.716 349.397 275.278 349.152C274.852 348.907 274.366 348.784 273.822 348.784C273.278 348.784 272.788 348.907 272.35 349.152C271.924 349.397 271.582 349.749 271.326 350.208C271.081 350.656 270.958 351.173 270.958 351.76C270.958 352.347 271.081 352.869 271.326 353.328C271.582 353.776 271.924 354.128 272.35 354.384C272.788 354.629 273.278 354.752 273.822 354.752ZM284.875 347.44C285.952 347.44 286.805 347.755 287.435 348.384C288.075 349.003 288.395 349.915 288.395 351.12V356H286.859V351.296C286.859 350.475 286.661 349.856 286.267 349.44C285.872 349.024 285.307 348.816 284.571 348.816C283.739 348.816 283.083 349.061 282.603 349.552C282.123 350.032 281.883 350.725 281.883 351.632V356H280.347V347.52H281.819V348.8C282.128 348.363 282.544 348.027 283.067 347.792C283.6 347.557 284.203 347.44 284.875 347.44ZM291.237 347.52H292.773V356H291.237V347.52ZM292.005 345.888C291.707 345.888 291.456 345.792 291.253 345.6C291.061 345.408 290.965 345.173 290.965 344.896C290.965 344.619 291.061 344.384 291.253 344.192C291.456 343.989 291.707 343.888 292.005 343.888C292.304 343.888 292.549 343.984 292.741 344.176C292.944 344.357 293.045 344.587 293.045 344.864C293.045 345.152 292.944 345.397 292.741 345.6C292.549 345.792 292.304 345.888 292.005 345.888ZM300.202 347.44C301.023 347.44 301.759 347.621 302.41 347.984C303.061 348.347 303.567 348.853 303.93 349.504C304.303 350.155 304.49 350.907 304.49 351.76C304.49 352.613 304.303 353.371 303.93 354.032C303.567 354.683 303.061 355.189 302.41 355.552C301.759 355.915 301.023 356.096 300.202 356.096C299.573 356.096 298.997 355.973 298.474 355.728C297.951 355.483 297.519 355.125 297.178 354.656V356H295.706V344.128H297.242V348.8C297.583 348.352 298.01 348.016 298.522 347.792C299.034 347.557 299.594 347.44 300.202 347.44ZM300.074 354.752C300.618 354.752 301.103 354.629 301.53 354.384C301.967 354.128 302.309 353.776 302.554 353.328C302.81 352.869 302.938 352.347 302.938 351.76C302.938 351.173 302.81 350.656 302.554 350.208C302.309 349.749 301.967 349.397 301.53 349.152C301.103 348.907 300.618 348.784 300.074 348.784C299.541 348.784 299.055 348.907 298.618 349.152C298.181 349.397 297.839 349.749 297.594 350.208C297.349 350.656 297.226 351.173 297.226 351.76C297.226 352.347 297.349 352.869 297.594 353.328C297.839 353.776 298.181 354.128 298.618 354.384C299.055 354.629 299.541 354.752 300.074 354.752ZM306.612 344.128H308.148V356H306.612V344.128ZM318.745 351.808C318.745 351.925 318.734 352.08 318.713 352.272H311.833C311.929 353.019 312.254 353.621 312.809 354.08C313.374 354.528 314.073 354.752 314.905 354.752C315.918 354.752 316.734 354.411 317.353 353.728L318.201 354.72C317.817 355.168 317.337 355.509 316.761 355.744C316.196 355.979 315.561 356.096 314.857 356.096C313.961 356.096 313.166 355.915 312.473 355.552C311.78 355.179 311.241 354.661 310.857 354C310.484 353.339 310.297 352.592 310.297 351.76C310.297 350.939 310.478 350.197 310.841 349.536C311.214 348.875 311.721 348.363 312.361 348C313.012 347.627 313.742 347.44 314.553 347.44C315.364 347.44 316.084 347.627 316.713 348C317.353 348.363 317.849 348.875 318.201 349.536C318.564 350.197 318.745 350.955 318.745 351.808ZM314.553 348.736C313.817 348.736 313.198 348.96 312.697 349.408C312.206 349.856 311.918 350.443 311.833 351.168H317.273C317.188 350.453 316.894 349.872 316.393 349.424C315.902 348.965 315.289 348.736 314.553 348.736ZM323.31 356.096C322.617 356.096 321.95 356.005 321.31 355.824C320.67 355.632 320.169 355.392 319.806 355.104L320.446 353.888C320.819 354.155 321.273 354.368 321.806 354.528C322.339 354.688 322.878 354.768 323.422 354.768C324.766 354.768 325.438 354.384 325.438 353.616C325.438 353.36 325.347 353.157 325.166 353.008C324.985 352.859 324.755 352.752 324.478 352.688C324.211 352.613 323.827 352.533 323.326 352.448C322.643 352.341 322.083 352.219 321.646 352.08C321.219 351.941 320.851 351.707 320.542 351.376C320.233 351.045 320.078 350.581 320.078 349.984C320.078 349.216 320.398 348.603 321.038 348.144C321.678 347.675 322.537 347.44 323.614 347.44C324.179 347.44 324.745 347.509 325.31 347.648C325.875 347.787 326.339 347.973 326.702 348.208L326.046 349.424C325.353 348.976 324.537 348.752 323.598 348.752C322.947 348.752 322.451 348.859 322.11 349.072C321.769 349.285 321.598 349.568 321.598 349.92C321.598 350.197 321.694 350.416 321.886 350.576C322.078 350.736 322.313 350.853 322.59 350.928C322.878 351.003 323.278 351.088 323.79 351.184C324.473 351.301 325.022 351.429 325.438 351.568C325.865 351.696 326.227 351.92 326.526 352.24C326.825 352.56 326.974 353.008 326.974 353.584C326.974 354.352 326.643 354.965 325.982 355.424C325.331 355.872 324.441 356.096 323.31 356.096ZM329.262 356.096C328.963 356.096 328.707 355.995 328.493 355.792C328.28 355.579 328.174 355.312 328.174 354.992C328.174 354.683 328.28 354.427 328.493 354.224C328.707 354.011 328.963 353.904 329.262 353.904C329.56 353.904 329.811 354.005 330.014 354.208C330.216 354.411 330.318 354.672 330.318 354.992C330.318 355.312 330.211 355.579 329.998 355.792C329.795 355.995 329.55 356.096 329.262 356.096Z" fill="#008E86"/>
<path d="M193.656 208.676L84.6619 245.008L84.662 99.682L193.656 208.676Z" fill="#00D8CC" stroke="#00635D" stroke-width="2" stroke-linejoin="round"/>
<path d="M293.757 248.354L184.763 208.995L293.757 100L293.757 248.354Z" fill="#00D8CC" stroke="#00635D" stroke-width="2" stroke-linejoin="round"/>
<path d="M54.3867 217.756L136.13 136.013L248.154 136.012L326.872 217.758L242.099 299.5L136.13 299.5L54.3867 217.756Z" fill="#00D8CC" stroke="#00635D" stroke-width="2" stroke-linejoin="round"/>
<path d="M208.796 261.657L242.098 299.499L136.129 299.499L170.947 261.657L208.796 261.657Z" fill="#00D8CC" stroke="#00635D" stroke-width="2" stroke-linejoin="round"/>
<path d="M208.796 261.657L190.627 279.822L170.947 261.657H208.796Z" fill="#008E86" stroke="#00635D" stroke-width="2" stroke-linejoin="round"/>
<path d="M191 280C190.999 299 164.5 300 164.5 280" stroke="black" stroke-width="2" stroke-linecap="round"/>
<path d="M217.607 280C217.607 299 191.107 300 191.108 280" stroke="black" stroke-width="2" stroke-linecap="round"/>
<circle cx="135" cy="217" r="33" fill="#F2F2F2" stroke="#333333" stroke-width="2"/>
<circle cx="247" cy="217" r="33" fill="#F2F2F2" stroke="#333333" stroke-width="2"/>
<circle cx="135" cy="218" r="27" fill="#333333"/>
<circle cx="247" cy="218" r="27" fill="#333333"/>
</g>
<defs>
<clipPath id="clip0_5726_207801">
<rect width="380" height="380" rx="20" fill="white"/>
</clipPath>
</defs>
</svg>
