<svg width="250" height="193" viewBox="0 0 250 193" fill="none" xmlns="http://www.w3.org/2000/svg">
<path fill-rule="evenodd" clip-rule="evenodd" d="M250 47C250 36 243 29 232 29C192.917 29 217.045 29 189 29C181.27 29 177.785 26.7635 173.5 22.5C164.193 13.8197 140.783 0 89.4273 0C17.0243 0 0 29 0 29C0 29 0.000429251 33.7195 0.000643877 47C0.000643877 57 8 65 18 65C44.4876 65 89 65 89 65L98 73H135L143 65C143 65 177.031 65 232 65C243 65 250 58 250 47C250 48.8675 250 44.1323 250 47Z" fill="#FC79FF"/>
<path fill-rule="evenodd" clip-rule="evenodd" d="M245 47C245 55 241 60 232 60L141 60L133 68H100L91 60C91 60 43.3934 60 18.0001 60C9.96434 60 4.99996 54 4.99996 47H0C0 57 8 65 18.0001 65C44.4408 65 89 65 89 65L98.0272 73H135L143 65L232 65C243 65 250 58 250 47C248.5 47 247 46.9999 245 47Z" fill="black" fill-opacity="0.25"/>
<path fill-rule="evenodd" clip-rule="evenodd" d="M0 47H5V31C5 31 19.993 5 89.2858 5C136.342 5 160.557 17.6452 170.5 26C175.292 30.0301 181.712 33.9521 188 34C196.5 34 216.464 34 232 34C239.964 34 245 39.5 245 46V47H249H250C250 36 243 29 232 29C192.993 29 216.008 29 188 29C181 29 177.169 26.1595 173.214 22.2066C163.936 13.4998 140.571 0 89.2678 0C16.9103 0 0 29 0 29L0 47Z" fill="white" fill-opacity="0.5"/>
<path d="M13.012 52L10.264 43.6H12.28L14.668 51.04H13.66L16.156 43.6H17.956L20.356 51.04H19.384L21.832 43.6H23.692L20.944 52H18.856L16.732 45.472H17.284L15.1 52H13.012ZM28.745 45.448C29.257 45.448 29.713 45.552 30.113 45.76C30.521 45.96 30.841 46.272 31.073 46.696C31.305 47.112 31.421 47.648 31.421 48.304V52H29.549V48.592C29.549 48.072 29.433 47.688 29.201 47.44C28.977 47.192 28.657 47.068 28.241 47.068C27.945 47.068 27.677 47.132 27.437 47.26C27.205 47.38 27.021 47.568 26.885 47.824C26.757 48.08 26.693 48.408 26.693 48.808V52H24.821V43.096H26.693V47.332L26.273 46.792C26.505 46.36 26.837 46.028 27.269 45.796C27.701 45.564 28.193 45.448 28.745 45.448ZM36.3688 52.096C35.6328 52.096 34.9848 51.952 34.4248 51.664C33.8728 51.376 33.4448 50.984 33.1408 50.488C32.8368 49.984 32.6848 49.412 32.6848 48.772C32.6848 48.124 32.8328 47.552 33.1288 47.056C33.4328 46.552 33.8448 46.16 34.3648 45.88C34.8848 45.592 35.4728 45.448 36.1288 45.448C36.7608 45.448 37.3288 45.584 37.8328 45.856C38.3448 46.12 38.7488 46.504 39.0448 47.008C39.3408 47.504 39.4888 48.1 39.4888 48.796C39.4888 48.868 39.4848 48.952 39.4768 49.048C39.4688 49.136 39.4608 49.22 39.4528 49.3H34.2088V48.208H38.4688L37.7488 48.532C37.7488 48.196 37.6808 47.904 37.5448 47.656C37.4088 47.408 37.2208 47.216 36.9808 47.08C36.7408 46.936 36.4608 46.864 36.1408 46.864C35.8208 46.864 35.5368 46.936 35.2888 47.08C35.0488 47.216 34.8608 47.412 34.7248 47.668C34.5888 47.916 34.5208 48.212 34.5208 48.556V48.844C34.5208 49.196 34.5968 49.508 34.7488 49.78C34.9088 50.044 35.1288 50.248 35.4088 50.392C35.6968 50.528 36.0328 50.596 36.4168 50.596C36.7608 50.596 37.0608 50.544 37.3168 50.44C37.5808 50.336 37.8208 50.18 38.0368 49.972L39.0328 51.052C38.7368 51.388 38.3648 51.648 37.9168 51.832C37.4688 52.008 36.9528 52.096 36.3688 52.096ZM44.6591 45.448C45.1711 45.448 45.6271 45.552 46.0271 45.76C46.4351 45.96 46.7551 46.272 46.9871 46.696C47.2191 47.112 47.3351 47.648 47.3351 48.304V52H45.4631V48.592C45.4631 48.072 45.3471 47.688 45.1151 47.44C44.8911 47.192 44.5711 47.068 44.1551 47.068C43.8591 47.068 43.5911 47.132 43.3511 47.26C43.1191 47.38 42.9351 47.568 42.7991 47.824C42.6711 48.08 42.6071 48.408 42.6071 48.808V52H40.7351V45.544H42.5231V47.332L42.1871 46.792C42.4191 46.36 42.7511 46.028 43.1831 45.796C43.6151 45.564 44.1071 45.448 44.6591 45.448ZM49.74 47.788C49.42 47.788 49.144 47.68 48.912 47.464C48.688 47.24 48.576 46.956 48.576 46.612C48.576 46.268 48.688 45.992 48.912 45.784C49.144 45.568 49.42 45.46 49.74 45.46C50.068 45.46 50.344 45.568 50.568 45.784C50.792 45.992 50.904 46.268 50.904 46.612C50.904 46.956 50.792 47.24 50.568 47.464C50.344 47.68 50.068 47.788 49.74 47.788ZM49.74 52.096C49.42 52.096 49.144 51.988 48.912 51.772C48.688 51.548 48.576 51.264 48.576 50.92C48.576 50.576 48.688 50.3 48.912 50.092C49.144 49.876 49.42 49.768 49.74 49.768C50.068 49.768 50.344 49.876 50.568 50.092C50.792 50.3 50.904 50.576 50.904 50.92C50.904 51.264 50.792 51.548 50.568 51.772C50.344 51.988 50.068 52.096 49.74 52.096ZM59.387 52.096C58.843 52.096 58.367 51.976 57.959 51.736C57.551 51.496 57.231 51.132 56.999 50.644C56.775 50.148 56.663 49.524 56.663 48.772C56.663 48.012 56.771 47.388 56.987 46.9C57.203 46.412 57.515 46.048 57.923 45.808C58.331 45.568 58.819 45.448 59.387 45.448C59.995 45.448 60.539 45.588 61.019 45.868C61.507 46.14 61.891 46.524 62.171 47.02C62.459 47.516 62.603 48.1 62.603 48.772C62.603 49.452 62.459 50.04 62.171 50.536C61.891 51.032 61.507 51.416 61.019 51.688C60.539 51.96 59.995 52.096 59.387 52.096ZM55.571 54.328V45.544H57.359V46.864L57.323 48.784L57.443 50.692V54.328H55.571ZM59.063 50.56C59.375 50.56 59.651 50.488 59.891 50.344C60.139 50.2 60.335 49.996 60.479 49.732C60.631 49.46 60.707 49.14 60.707 48.772C60.707 48.396 60.631 48.076 60.479 47.812C60.335 47.548 60.139 47.344 59.891 47.2C59.651 47.056 59.375 46.984 59.063 46.984C58.751 46.984 58.471 47.056 58.223 47.2C57.975 47.344 57.779 47.548 57.635 47.812C57.491 48.076 57.419 48.396 57.419 48.772C57.419 49.14 57.491 49.46 57.635 49.732C57.779 49.996 57.975 50.2 58.223 50.344C58.471 50.488 58.751 50.56 59.063 50.56ZM63.8562 52V45.544H65.6442V47.368L65.3922 46.84C65.5842 46.384 65.8922 46.04 66.3162 45.808C66.7402 45.568 67.2562 45.448 67.8642 45.448V47.176C67.7842 47.168 67.7122 47.164 67.6482 47.164C67.5842 47.156 67.5162 47.152 67.4442 47.152C66.9322 47.152 66.5162 47.3 66.1962 47.596C65.8842 47.884 65.7282 48.336 65.7282 48.952V52H63.8562ZM72.1344 52.096C71.3984 52.096 70.7504 51.952 70.1904 51.664C69.6384 51.376 69.2104 50.984 68.9064 50.488C68.6024 49.984 68.4504 49.412 68.4504 48.772C68.4504 48.124 68.5984 47.552 68.8944 47.056C69.1984 46.552 69.6104 46.16 70.1304 45.88C70.6504 45.592 71.2384 45.448 71.8944 45.448C72.5264 45.448 73.0944 45.584 73.5984 45.856C74.1104 46.12 74.5144 46.504 74.8104 47.008C75.1064 47.504 75.2544 48.1 75.2544 48.796C75.2544 48.868 75.2504 48.952 75.2424 49.048C75.2344 49.136 75.2264 49.22 75.2184 49.3H69.9744V48.208H74.2344L73.5144 48.532C73.5144 48.196 73.4464 47.904 73.3104 47.656C73.1744 47.408 72.9864 47.216 72.7464 47.08C72.5064 46.936 72.2264 46.864 71.9064 46.864C71.5864 46.864 71.3024 46.936 71.0544 47.08C70.8144 47.216 70.6264 47.412 70.4904 47.668C70.3544 47.916 70.2864 48.212 70.2864 48.556V48.844C70.2864 49.196 70.3624 49.508 70.5144 49.78C70.6744 50.044 70.8944 50.248 71.1744 50.392C71.4624 50.528 71.7984 50.596 72.1824 50.596C72.5264 50.596 72.8264 50.544 73.0824 50.44C73.3464 50.336 73.5864 50.18 73.8024 49.972L74.7984 51.052C74.5024 51.388 74.1304 51.648 73.6824 51.832C73.2344 52.008 72.7184 52.096 72.1344 52.096ZM78.6727 52.096C78.1207 52.096 77.5887 52.032 77.0767 51.904C76.5727 51.768 76.1727 51.6 75.8767 51.4L76.5007 50.056C76.7967 50.24 77.1447 50.392 77.5447 50.512C77.9527 50.624 78.3527 50.68 78.7447 50.68C79.1767 50.68 79.4807 50.628 79.6567 50.524C79.8407 50.42 79.9327 50.276 79.9327 50.092C79.9327 49.94 79.8607 49.828 79.7167 49.756C79.5807 49.676 79.3967 49.616 79.1647 49.576C78.9327 49.536 78.6767 49.496 78.3967 49.456C78.1247 49.416 77.8487 49.364 77.5687 49.3C77.2887 49.228 77.0327 49.124 76.8007 48.988C76.5687 48.852 76.3807 48.668 76.2367 48.436C76.1007 48.204 76.0327 47.904 76.0327 47.536C76.0327 47.128 76.1487 46.768 76.3807 46.456C76.6207 46.144 76.9647 45.9 77.4127 45.724C77.8607 45.54 78.3967 45.448 79.0207 45.448C79.4607 45.448 79.9087 45.496 80.3647 45.592C80.8207 45.688 81.2007 45.828 81.5047 46.012L80.8807 47.344C80.5687 47.16 80.2527 47.036 79.9327 46.972C79.6207 46.9 79.3167 46.864 79.0207 46.864C78.6047 46.864 78.3007 46.92 78.1087 47.032C77.9167 47.144 77.8207 47.288 77.8207 47.464C77.8207 47.624 77.8887 47.744 78.0247 47.824C78.1687 47.904 78.3567 47.968 78.5887 48.016C78.8207 48.064 79.0727 48.108 79.3447 48.148C79.6247 48.18 79.9047 48.232 80.1847 48.304C80.4647 48.376 80.7167 48.48 80.9407 48.616C81.1727 48.744 81.3607 48.924 81.5047 49.156C81.6487 49.38 81.7207 49.676 81.7207 50.044C81.7207 50.444 81.6007 50.8 81.3607 51.112C81.1207 51.416 80.7727 51.656 80.3167 51.832C79.8687 52.008 79.3207 52.096 78.6727 52.096ZM85.0477 52.096C84.4957 52.096 83.9637 52.032 83.4517 51.904C82.9477 51.768 82.5477 51.6 82.2517 51.4L82.8757 50.056C83.1717 50.24 83.5197 50.392 83.9197 50.512C84.3277 50.624 84.7277 50.68 85.1197 50.68C85.5517 50.68 85.8557 50.628 86.0317 50.524C86.2157 50.42 86.3077 50.276 86.3077 50.092C86.3077 49.94 86.2357 49.828 86.0917 49.756C85.9557 49.676 85.7717 49.616 85.5397 49.576C85.3077 49.536 85.0517 49.496 84.7717 49.456C84.4997 49.416 84.2237 49.364 83.9437 49.3C83.6637 49.228 83.4077 49.124 83.1757 48.988C82.9437 48.852 82.7557 48.668 82.6117 48.436C82.4757 48.204 82.4077 47.904 82.4077 47.536C82.4077 47.128 82.5237 46.768 82.7557 46.456C82.9957 46.144 83.3397 45.9 83.7877 45.724C84.2357 45.54 84.7717 45.448 85.3957 45.448C85.8357 45.448 86.2837 45.496 86.7397 45.592C87.1957 45.688 87.5757 45.828 87.8797 46.012L87.2557 47.344C86.9437 47.16 86.6277 47.036 86.3077 46.972C85.9957 46.9 85.6917 46.864 85.3957 46.864C84.9797 46.864 84.6757 46.92 84.4837 47.032C84.2917 47.144 84.1957 47.288 84.1957 47.464C84.1957 47.624 84.2637 47.744 84.3997 47.824C84.5437 47.904 84.7317 47.968 84.9637 48.016C85.1957 48.064 85.4477 48.108 85.7197 48.148C85.9997 48.18 86.2797 48.232 86.5597 48.304C86.8397 48.376 87.0917 48.48 87.3157 48.616C87.5477 48.744 87.7357 48.924 87.8797 49.156C88.0237 49.38 88.0957 49.676 88.0957 50.044C88.0957 50.444 87.9757 50.8 87.7357 51.112C87.4957 51.416 87.1477 51.656 86.6917 51.832C86.2437 52.008 85.6957 52.096 85.0477 52.096ZM94.8212 52.096C94.2692 52.096 93.7372 52.032 93.2252 51.904C92.7212 51.768 92.3212 51.6 92.0252 51.4L92.6492 50.056C92.9452 50.24 93.2932 50.392 93.6932 50.512C94.1012 50.624 94.5012 50.68 94.8932 50.68C95.3252 50.68 95.6292 50.628 95.8052 50.524C95.9892 50.42 96.0812 50.276 96.0812 50.092C96.0812 49.94 96.0092 49.828 95.8652 49.756C95.7292 49.676 95.5452 49.616 95.3132 49.576C95.0812 49.536 94.8252 49.496 94.5452 49.456C94.2732 49.416 93.9972 49.364 93.7172 49.3C93.4372 49.228 93.1812 49.124 92.9492 48.988C92.7172 48.852 92.5292 48.668 92.3852 48.436C92.2492 48.204 92.1812 47.904 92.1812 47.536C92.1812 47.128 92.2972 46.768 92.5292 46.456C92.7692 46.144 93.1132 45.9 93.5612 45.724C94.0092 45.54 94.5452 45.448 95.1692 45.448C95.6092 45.448 96.0572 45.496 96.5132 45.592C96.9692 45.688 97.3492 45.828 97.6532 46.012L97.0292 47.344C96.7172 47.16 96.4012 47.036 96.0812 46.972C95.7692 46.9 95.4652 46.864 95.1692 46.864C94.7532 46.864 94.4492 46.92 94.2572 47.032C94.0652 47.144 93.9692 47.288 93.9692 47.464C93.9692 47.624 94.0372 47.744 94.1732 47.824C94.3172 47.904 94.5052 47.968 94.7372 48.016C94.9692 48.064 95.2212 48.108 95.4932 48.148C95.7732 48.18 96.0532 48.232 96.3332 48.304C96.6132 48.376 96.8652 48.48 97.0892 48.616C97.3212 48.744 97.5092 48.924 97.6532 49.156C97.7972 49.38 97.8692 49.676 97.8692 50.044C97.8692 50.444 97.7492 50.8 97.5092 51.112C97.2692 51.416 96.9212 51.656 96.4652 51.832C96.0172 52.008 95.4692 52.096 94.8212 52.096ZM101.664 52.096C100.904 52.096 100.312 51.904 99.8882 51.52C99.4642 51.128 99.2522 50.548 99.2522 49.78V44.116H101.124V49.756C101.124 50.028 101.196 50.24 101.34 50.392C101.484 50.536 101.68 50.608 101.928 50.608C102.224 50.608 102.476 50.528 102.684 50.368L103.188 51.688C102.996 51.824 102.764 51.928 102.492 52C102.228 52.064 101.952 52.096 101.664 52.096ZM98.2562 47.128V45.688H102.732V47.128H98.2562ZM108.199 52V50.74L108.079 50.464V48.208C108.079 47.808 107.955 47.496 107.707 47.272C107.467 47.048 107.095 46.936 106.591 46.936C106.247 46.936 105.907 46.992 105.571 47.104C105.243 47.208 104.963 47.352 104.731 47.536L104.059 46.228C104.411 45.98 104.835 45.788 105.331 45.652C105.827 45.516 106.331 45.448 106.843 45.448C107.827 45.448 108.591 45.68 109.135 46.144C109.679 46.608 109.951 47.332 109.951 48.316V52H108.199ZM106.231 52.096C105.727 52.096 105.295 52.012 104.935 51.844C104.575 51.668 104.299 51.432 104.107 51.136C103.915 50.84 103.819 50.508 103.819 50.14C103.819 49.756 103.911 49.42 104.095 49.132C104.287 48.844 104.587 48.62 104.995 48.46C105.403 48.292 105.935 48.208 106.591 48.208H108.307V49.3H106.795C106.355 49.3 106.051 49.372 105.883 49.516C105.723 49.66 105.643 49.84 105.643 50.056C105.643 50.296 105.735 50.488 105.919 50.632C106.111 50.768 106.371 50.836 106.699 50.836C107.011 50.836 107.291 50.764 107.539 50.62C107.787 50.468 107.967 50.248 108.079 49.96L108.367 50.824C108.231 51.24 107.983 51.556 107.623 51.772C107.263 51.988 106.799 52.096 106.231 52.096ZM111.645 52V45.544H113.433V47.368L113.181 46.84C113.373 46.384 113.681 46.04 114.105 45.808C114.529 45.568 115.045 45.448 115.653 45.448V47.176C115.573 47.168 115.501 47.164 115.437 47.164C115.373 47.156 115.305 47.152 115.233 47.152C114.721 47.152 114.305 47.3 113.985 47.596C113.673 47.884 113.517 48.336 113.517 48.952V52H111.645ZM119.629 52.096C118.869 52.096 118.277 51.904 117.853 51.52C117.429 51.128 117.217 50.548 117.217 49.78V44.116H119.089V49.756C119.089 50.028 119.161 50.24 119.305 50.392C119.449 50.536 119.645 50.608 119.893 50.608C120.189 50.608 120.441 50.528 120.649 50.368L121.153 51.688C120.961 51.824 120.729 51.928 120.457 52C120.193 52.064 119.917 52.096 119.629 52.096ZM116.221 47.128V45.688H120.697V47.128H116.221ZM123.029 52.096C122.709 52.096 122.433 51.988 122.201 51.772C121.977 51.548 121.865 51.264 121.865 50.92C121.865 50.576 121.977 50.3 122.201 50.092C122.433 49.876 122.709 49.768 123.029 49.768C123.357 49.768 123.633 49.876 123.857 50.092C124.081 50.3 124.193 50.576 124.193 50.92C124.193 51.264 124.081 51.548 123.857 51.772C123.633 51.988 123.357 52.096 123.029 52.096Z" fill="#333333"/>
<path fill-rule="evenodd" clip-rule="evenodd" d="M250 124.985C250 114 241 104.993 230 104.993C168.172 104.993 143 105 143 105L135 113H97.9998L88.9998 105H54.1467C43.1467 105 34.1467 114 34.1467 124.992C34.1467 125 34.1467 125.007 34.1467 125.015C34.1467 136 43.1467 145 54.1467 145C70.7097 145 89 145 89 145L98 153H135L143 145H230.147C241 145 250 136 250 125.008C250 125 250 125.5 250 124.985Z" fill="#30DCFF"/>
<path fill-rule="evenodd" clip-rule="evenodd" d="M250 124.989C250 114 241 105 229.853 105C168.025 105 143 105 143 105L135 113H98L89 105H54C43 105 34 114 34 124.989C34 124.996 34 125 34 125H39C39 115 46 110 54 110C68.6641 110 87 110 87 110L96 118H137L145 110H230C239 110 245 116 245 125L250 125V124.989Z" fill="white" fill-opacity="0.5"/>
<path fill-rule="evenodd" clip-rule="evenodd" d="M250 125L245 125C245 133.971 239.197 140 230 140C172.995 140 141 140 141 140L133 148H100L91 140H54C43.4962 140 39 134 39 125.001L34 125V125.011C34 136 43 145 54 145C70.563 145 89 145 89 145L98 153H135L143 145H230C241 145 250 136 250 125Z" fill="black" fill-opacity="0.25"/>
<path d="M44.996 132V123.6H46.604L50.18 129.528H49.328L52.844 123.6H54.44L54.464 132H52.64L52.628 126.396H52.964L50.156 131.112H49.28L46.412 126.396H46.82V132H44.996ZM59.0489 132.096C58.5129 132.096 58.0329 131.992 57.6089 131.784C57.1929 131.576 56.8689 131.26 56.6369 130.836C56.4049 130.404 56.2889 129.856 56.2889 129.192V125.544H58.1609V128.916C58.1609 129.452 58.2729 129.848 58.4969 130.104C58.7289 130.352 59.0529 130.476 59.4689 130.476C59.7569 130.476 60.0129 130.416 60.2369 130.296C60.4609 130.168 60.6369 129.976 60.7649 129.72C60.8929 129.456 60.9569 129.128 60.9569 128.736V125.544H62.8289V132H61.0529V130.224L61.3769 130.74C61.1609 131.188 60.8409 131.528 60.4169 131.76C60.0009 131.984 59.5449 132.096 59.0489 132.096ZM64.5632 132V123.096H66.4352V132H64.5632ZM71.2931 132.096C70.5331 132.096 69.9411 131.904 69.5171 131.52C69.0931 131.128 68.8811 130.548 68.8811 129.78V124.116H70.7531V129.756C70.7531 130.028 70.8251 130.24 70.9691 130.392C71.1131 130.536 71.3091 130.608 71.5571 130.608C71.8531 130.608 72.1051 130.528 72.3131 130.368L72.8171 131.688C72.6251 131.824 72.3931 131.928 72.1211 132C71.8571 132.064 71.5811 132.096 71.2931 132.096ZM67.8851 127.128V125.688H72.3611V127.128H67.8851ZM73.8679 132V125.544H75.7399V132H73.8679ZM74.8039 124.644C74.4599 124.644 74.1799 124.544 73.9639 124.344C73.7479 124.144 73.6399 123.896 73.6399 123.6C73.6399 123.304 73.7479 123.056 73.9639 122.856C74.1799 122.656 74.4599 122.556 74.8039 122.556C75.1479 122.556 75.4279 122.652 75.6439 122.844C75.8599 123.028 75.9679 123.268 75.9679 123.564C75.9679 123.876 75.8599 124.136 75.6439 124.344C75.4359 124.544 75.1559 124.644 74.8039 124.644ZM81.2933 132.096C80.7493 132.096 80.2733 131.976 79.8653 131.736C79.4573 131.496 79.1373 131.132 78.9053 130.644C78.6813 130.148 78.5693 129.524 78.5693 128.772C78.5693 128.012 78.6773 127.388 78.8933 126.9C79.1093 126.412 79.4213 126.048 79.8293 125.808C80.2373 125.568 80.7253 125.448 81.2933 125.448C81.9013 125.448 82.4453 125.588 82.9253 125.868C83.4133 126.14 83.7973 126.524 84.0773 127.02C84.3653 127.516 84.5093 128.1 84.5093 128.772C84.5093 129.452 84.3653 130.04 84.0773 130.536C83.7973 131.032 83.4133 131.416 82.9253 131.688C82.4453 131.96 81.9013 132.096 81.2933 132.096ZM77.4773 134.328V125.544H79.2653V126.864L79.2293 128.784L79.3493 130.692V134.328H77.4773ZM80.9693 130.56C81.2813 130.56 81.5573 130.488 81.7973 130.344C82.0453 130.2 82.2413 129.996 82.3853 129.732C82.5373 129.46 82.6133 129.14 82.6133 128.772C82.6133 128.396 82.5373 128.076 82.3853 127.812C82.2413 127.548 82.0453 127.344 81.7973 127.2C81.5573 127.056 81.2813 126.984 80.9693 126.984C80.6573 126.984 80.3773 127.056 80.1293 127.2C79.8813 127.344 79.6853 127.548 79.5413 127.812C79.3973 128.076 79.3253 128.396 79.3253 128.772C79.3253 129.14 79.3973 129.46 79.5413 129.732C79.6853 129.996 79.8813 130.2 80.1293 130.344C80.3773 130.488 80.6573 130.56 80.9693 130.56ZM85.7624 132V123.096H87.6344V132H85.7624ZM90.1878 134.424C89.8518 134.424 89.5198 134.372 89.1918 134.268C88.8638 134.164 88.5958 134.02 88.3878 133.836L89.0718 132.504C89.2158 132.632 89.3798 132.732 89.5638 132.804C89.7558 132.876 89.9438 132.912 90.1278 132.912C90.3918 132.912 90.5998 132.848 90.7518 132.72C90.9118 132.6 91.0558 132.396 91.1838 132.108L91.5198 131.316L91.6638 131.112L93.9798 125.544H95.7798L92.8638 132.396C92.6558 132.916 92.4158 133.324 92.1438 133.62C91.8798 133.916 91.5838 134.124 91.2558 134.244C90.9358 134.364 90.5798 134.424 90.1878 134.424ZM91.2918 132.252L88.4118 125.544H90.3438L92.5758 130.944L91.2918 132.252Z" fill="#333333"/>
<path fill-rule="evenodd" clip-rule="evenodd" d="M250 164.985C250 154 241 144.993 230 144.993C168.172 144.993 143 145 143 145L135 153H97.9998L88.9998 145H54.1467C43.1467 145 34.1467 154 34.1467 164.992C34.1467 165 34.1467 165.007 34.1467 165.015C34.1467 176 43.1467 185 54.1467 185C70.7097 185 89 185 89 185L98 193H135L143 185H230.147C241 185 250 176 250 165.008C250 165 250 165.5 250 164.985Z" fill="#30DCFF"/>
<path fill-rule="evenodd" clip-rule="evenodd" d="M250 164.989C250 154 241 145 229.853 145C168.025 145 143 145 143 145L135 153H98L89 145H54C43 145 34 154 34 164.989C34 164.996 34 165 34 165H39C39 155 46 150 54 150C68.6641 150 87 150 87 150L96 158H137L145 150H230C239 150 245 156 245 165L250 165V164.989Z" fill="white" fill-opacity="0.5"/>
<path fill-rule="evenodd" clip-rule="evenodd" d="M250 165L245 165C245 173.971 239.197 180 230 180C172.995 180 141 180 141 180L133 188H100L91 180H54C43.4962 180 39 174 39 165.001L34 165V165.011C34 176 43 185 54 185C70.563 185 89 185 89 185L98 193H135L143 185H230C241 185 250 176 250 165Z" fill="black" fill-opacity="0.25"/>
<rect x="49" y="153" width="23" height="23" rx="5" fill="#F2F2F2"/>
<path d="M57.7861 160.6V169H55.8421V162.16H54.1621V160.6H57.7861ZM62.8453 169.144C62.1493 169.144 61.5293 168.972 60.9853 168.628C60.4413 168.284 60.0133 167.788 59.7013 167.14C59.3973 166.484 59.2453 165.704 59.2453 164.8C59.2453 163.896 59.3973 163.12 59.7013 162.472C60.0133 161.816 60.4413 161.316 60.9853 160.972C61.5293 160.628 62.1493 160.456 62.8453 160.456C63.5413 160.456 64.1613 160.628 64.7053 160.972C65.2493 161.316 65.6733 161.816 65.9773 162.472C66.2893 163.12 66.4453 163.896 66.4453 164.8C66.4453 165.704 66.2893 166.484 65.9773 167.14C65.6733 167.788 65.2493 168.284 64.7053 168.628C64.1613 168.972 63.5413 169.144 62.8453 169.144ZM62.8453 167.5C63.3573 167.5 63.7573 167.28 64.0453 166.84C64.3413 166.4 64.4893 165.72 64.4893 164.8C64.4893 163.88 64.3413 163.2 64.0453 162.76C63.7573 162.32 63.3573 162.1 62.8453 162.1C62.3413 162.1 61.9413 162.32 61.6453 162.76C61.3573 163.2 61.2133 163.88 61.2133 164.8C61.2133 165.72 61.3573 166.4 61.6453 166.84C61.9413 167.28 62.3413 167.5 62.8453 167.5Z" fill="#333333"/>
<path fill-rule="evenodd" clip-rule="evenodd" d="M250 84.9851C250 74 241 64.9927 230 64.9927C168.172 64.9927 143 65 143 65L135 73.0001H97.9998L88.9998 64.9998H54.1467C43.1467 64.9998 34.1467 74 34.1467 84.9924C34.1467 84.9997 34.1467 85.0072 34.1467 85.0148C34.1467 96 43.1467 105 54.1467 105C70.7097 105 89 105 89 105L98 113H135L143 105H230.147C241 105 250 96 250 85.0076C250 85 250 85.5 250 84.9851Z" fill="#30DCFF"/>
<path fill-rule="evenodd" clip-rule="evenodd" d="M250 84.9888C250 74 241 65 229.853 65C168.025 65 143 65.0001 143 65.0001L135 73H98L89 65.0001H54C43 65.0001 34 74.0001 34 84.9888C34 84.9962 34 85.0001 34 85.0001H39C39 75 46 70.0001 54 70.0001C68.6641 70.0001 87 70 87 70L96 78H137L145 70H230C239 70 245 76 245 84.9998L250 85V84.9888Z" fill="white" fill-opacity="0.5"/>
<path fill-rule="evenodd" clip-rule="evenodd" d="M250 85L245 85C245 93.9711 239.197 100 230 100C172.995 100 141 100 141 100L133 108H100L91 100H54C43.4962 100 39 94 39 85.0015L34 85V85.0112C34 96 43 105 54 105C70.563 105 89 105 89 105L98 113H135L143 105H230C241 105 250 96 250 85Z" fill="black" fill-opacity="0.25"/>
<rect x="49" y="73" width="23" height="23" rx="5" fill="#F2F2F2"/>
<path d="M60.0997 80.456C61.2757 80.456 62.1957 80.816 62.8597 81.536C63.5237 82.248 63.8557 83.276 63.8557 84.62C63.8557 85.572 63.6757 86.388 63.3157 87.068C62.9637 87.748 62.4637 88.264 61.8157 88.616C61.1677 88.968 60.4197 89.144 59.5717 89.144C59.1237 89.144 58.6957 89.096 58.2877 89C57.8797 88.896 57.5317 88.752 57.2437 88.568L57.9637 87.14C58.3717 87.42 58.8957 87.56 59.5357 87.56C60.2477 87.56 60.8117 87.352 61.2277 86.936C61.6437 86.512 61.8677 85.904 61.8997 85.112C61.3957 85.616 60.6997 85.868 59.8117 85.868C59.2757 85.868 58.7877 85.76 58.3477 85.544C57.9077 85.328 57.5597 85.024 57.3037 84.632C57.0477 84.232 56.9197 83.772 56.9197 83.252C56.9197 82.692 57.0597 82.2 57.3397 81.776C57.6197 81.352 57.9997 81.028 58.4797 80.804C58.9677 80.572 59.5077 80.456 60.0997 80.456ZM60.2437 84.416C60.6677 84.416 61.0117 84.3 61.2757 84.068C61.5477 83.828 61.6837 83.524 61.6837 83.156C61.6837 82.788 61.5517 82.488 61.2877 82.256C61.0317 82.024 60.6757 81.908 60.2197 81.908C59.8037 81.908 59.4637 82.02 59.1997 82.244C58.9437 82.468 58.8157 82.772 58.8157 83.156C58.8157 83.54 58.9437 83.848 59.1997 84.08C59.4637 84.304 59.8117 84.416 60.2437 84.416Z" fill="#333333"/>
</svg>
