<svg width="80" height="80" viewBox="0 0 80 80" fill="none" xmlns="http://www.w3.org/2000/svg">
<rect width="80" height="80" rx="20" fill="#00D8CC"/>
<path fill-rule="evenodd" clip-rule="evenodd" d="M8.22415 42.4243L13.6841 39.2628L8.79354 37.5151L7.49221 41.4005L8.22415 42.4243V42.4243Z" fill="#414042"/>
<path fill-rule="evenodd" clip-rule="evenodd" d="M27.8472 53.6086V50.5787L32.0573 48.5039L31.9777 51.365L27.8472 53.6086V53.6086Z" fill="#414042"/>
<path fill-rule="evenodd" clip-rule="evenodd" d="M7.08036 38.7375L27.8487 50.5792L29.8949 49.3675L8.87909 38.0423L7.08036 38.7375V38.7375Z" fill="#414042"/>
<path fill-rule="evenodd" clip-rule="evenodd" d="M27.8488 50.5759V53.6058L18.8558 48.4801V46.7396L18.5034 46.1831L8.60106 40.7103L8.22625 40.8648V42.4208L7.08036 41.768V38.7342L27.8488 50.5759V50.5759Z" fill="#808285"/>
<path fill-rule="evenodd" clip-rule="evenodd" d="M17.0708 31.6871L42.8967 17.0229C45.217 15.7053 47.8502 15.7011 50.1749 17.011L64.0308 24.819H72.8888V31.2098C72.8902 32.0996 72.4458 32.8635 71.6723 33.3027L36.5911 53.2151C35.431 53.8736 34.111 53.8817 32.9518 53.2203L7.66092 38.7993C7.30473 38.5962 7.09778 38.2457 7.09681 37.8356V31.6871H17.0707H17.0708Z" fill="#58595B"/>
<path fill-rule="evenodd" clip-rule="evenodd" d="M34.0323 53.6281C33.6637 53.5499 33.2999 53.4149 32.9518 53.2161L7.66092 38.7951C7.30473 38.592 7.09778 38.2415 7.09681 37.8314V31.6829H11.2235L34.0323 44.7887V53.6281V53.6281Z" fill="#808285"/>
<path fill-rule="evenodd" clip-rule="evenodd" d="M7.65811 30.7627L42.8967 10.7539C45.217 9.43638 47.8502 9.43256 50.1749 10.742L71.6657 22.8517C72.441 23.2885 72.8874 24.0515 72.8888 24.9408C72.8902 25.8306 72.4458 26.595 71.6723 27.0337L36.5911 46.9461C35.431 47.6047 34.1144 47.6066 32.9518 46.9514L7.66092 32.693C7.30379 32.4913 7.09779 32.1394 7.09681 31.7288C7.09633 31.3182 7.3014 30.9654 7.65807 30.7627H7.65811Z" fill="#414042"/>
<path fill-rule="evenodd" clip-rule="evenodd" d="M7.65811 29.881L42.8967 9.87274C45.217 8.55519 47.8502 8.55088 50.1749 9.86082L71.6657 21.9705C72.441 22.4068 72.8874 23.1698 72.8888 24.0596C72.8902 24.9489 72.4458 25.7133 71.6723 26.152L36.5911 46.0649C35.431 46.723 34.1144 46.7254 32.9518 46.0702L7.66092 31.8113C7.30379 31.6096 7.09779 31.2577 7.09681 30.8471C7.09633 30.4366 7.3014 30.0842 7.65807 29.881H7.65811Z" fill="#B1B3B6"/>
<path d="M7.65834 29L42.8969 8.99128C45.2173 7.67373 47.8504 7.66942 50.1751 8.97936L71.6659 21.089C72.4412 21.5258 72.8876 22.2888 72.889 23.1781C72.8905 24.0679 72.446 24.8323 71.6726 25.271L36.5914 45.1835C35.4312 45.842 34.1146 45.8439 32.952 45.1887L7.66116 30.9303C7.30403 30.7286 7.09802 30.3767 7.09705 29.9661C7.09656 29.5555 7.30163 29.2027 7.65831 29H7.65834Z" fill="url(#paint0_linear_1_707)"/>
<path fill-rule="evenodd" clip-rule="evenodd" d="M17.0642 26.1451L19.4952 24.7646C20.6077 24.1332 21.8556 24.1046 22.9952 24.6845C23.6343 25.0097 24.4392 25.2138 25.3166 25.2367C27.4376 25.2925 29.1872 24.2711 29.2225 22.954C29.2325 22.5725 29.0975 22.2082 28.8496 21.8815C28.5144 21.4404 28.3994 20.9293 28.5124 20.3871C28.6255 19.8449 28.9354 19.4224 29.4189 19.1521L33.8885 16.6505L53.685 14.6477C60.3953 17.5412 68.2214 23.6049 60.68 28.9208C59.7382 29.5846 58.6558 29.7696 57.5471 29.4573C57.1026 29.3319 56.6143 29.2566 56.1013 29.2427C53.9802 29.1869 52.2306 30.2083 52.1958 31.5264C52.191 31.7061 52.2187 31.8826 52.275 32.0528C52.5554 32.8983 52.2082 33.8019 51.4333 34.2421L37.1144 42.3691C36.1321 42.9269 35.0177 42.9289 34.0335 42.3738L29.0675 39.5742C28.5287 39.2705 28.2001 38.7693 28.1367 38.1532C28.0737 37.5376 28.2931 36.9801 28.7594 36.5729C29.182 36.2038 29.4351 35.7522 29.4481 35.2597C29.4823 33.9426 27.7905 32.8277 25.6695 32.7719C24.1693 32.7323 22.8546 33.2316 22.2018 33.9936C21.6215 34.6703 20.6677 34.8386 19.8914 34.4009L17.3608 32.9741C16.4957 32.4863 16.171 31.4019 16.6255 30.5188C16.7351 30.3052 16.7976 30.0777 16.8033 29.8407C16.8129 29.4807 16.6927 29.1354 16.4705 28.8231C16.1567 28.382 16.0552 27.8813 16.1725 27.3525C16.2893 26.8232 16.593 26.4126 17.0642 26.1451V26.1451Z" fill="#B1B3B6"/>
<path d="M17.0642 25.5433L19.4952 24.1628C20.6077 23.5315 21.8556 23.5029 22.9952 24.0827C23.6343 24.4079 24.4392 24.612 25.3166 24.6354C27.4376 24.6911 29.1872 23.6697 29.2225 22.3522C29.2325 21.9707 29.0975 21.6064 28.8496 21.2802C28.5144 20.8391 28.3994 20.3279 28.5124 19.7858C28.6255 19.2431 28.9354 18.8206 29.4189 18.5502L33.8885 16.0487L53.685 14.0464C60.3953 16.9394 68.2214 23.0036 60.68 28.319C59.7382 28.9828 58.6558 29.1678 57.5471 28.8555C57.1026 28.7301 56.6143 28.6548 56.1013 28.6414C53.9802 28.5856 52.2306 29.6066 52.1958 30.9246C52.191 31.1044 52.2187 31.2812 52.275 31.4515C52.5554 32.297 52.2082 33.2006 51.4333 33.6403L37.1144 41.7677C36.1321 42.3256 35.0177 42.3276 34.0335 41.772L29.0675 38.9724C28.5287 38.6687 28.2001 38.1675 28.1367 37.5519C28.0737 36.9363 28.2931 36.3783 28.7594 35.9711C29.182 35.602 29.4351 35.1509 29.4481 34.6583C29.4823 33.3408 27.7905 32.2259 25.6695 32.1701C24.1693 32.1305 22.8546 32.6298 22.2018 33.3918C21.6215 34.069 20.6677 34.2368 19.8914 33.799L17.3608 32.3723C16.4957 31.885 16.171 30.8001 16.6255 29.9175C16.7351 29.7038 16.7976 29.4759 16.8033 29.2389C16.8129 28.8789 16.6927 28.5341 16.4705 28.2218C16.1567 27.7802 16.0552 27.28 16.1725 26.7507C16.2893 26.2214 16.593 25.8108 17.0642 25.5433V25.5433Z" fill="url(#paint1_linear_1_707)"/>
<path fill-rule="evenodd" clip-rule="evenodd" d="M13.0655 27.6648C14.7955 27.7111 16.175 28.619 16.1464 29.6933C16.1178 30.7677 14.6921 31.6012 12.9625 31.5555C11.2325 31.5097 9.85294 30.6013 9.88154 29.5269C9.91016 28.4526 11.3359 27.6191 13.0655 27.6648V27.6648Z" fill="#414042"/>
<path fill-rule="evenodd" clip-rule="evenodd" d="M13.0655 27.4589C14.7955 27.5047 16.175 28.4131 16.1464 29.4874C16.1178 30.5613 14.6921 31.3953 12.9625 31.3491C11.2325 31.3033 9.85294 30.3949 9.88154 29.3205C9.91016 28.2466 11.3359 27.4131 13.0655 27.4589V27.4589Z" fill="#808285"/>
<path fill-rule="evenodd" clip-rule="evenodd" d="M25.3065 33.3569C27.0361 33.4027 28.4156 34.3111 28.3875 35.3854C28.3589 36.4593 26.9331 37.2933 25.2035 37.2471C23.4735 37.2013 22.094 36.2929 22.1226 35.2186C22.1507 34.1447 23.577 33.3112 25.3065 33.3569Z" fill="#414042"/>
<path fill-rule="evenodd" clip-rule="evenodd" d="M25.3065 33.151C27.0361 33.1973 28.4156 34.1052 28.3875 35.1796C28.3589 36.2539 26.9331 37.0874 25.2035 37.0417C23.4735 36.9959 22.094 36.0875 22.1226 35.0131C22.1507 33.9387 23.577 33.1052 25.3065 33.151Z" fill="#808285"/>
<path fill-rule="evenodd" clip-rule="evenodd" d="M25.5701 20.4404C27.3001 20.4862 28.6796 21.3946 28.651 22.469C28.6224 23.5428 27.1966 24.3768 25.4671 24.3311C23.7371 24.2848 22.3575 23.3769 22.3861 22.3026C22.4147 21.2282 23.8405 20.3946 25.5701 20.4404Z" fill="#414042"/>
<path fill-rule="evenodd" clip-rule="evenodd" d="M25.5701 20.2345C27.3001 20.2808 28.6796 21.1887 28.651 22.2631C28.6224 23.3374 27.1966 24.1714 25.4671 24.1252C23.7371 24.0794 22.3575 23.171 22.3861 22.0967C22.4147 21.0228 23.8405 20.1888 25.5701 20.2345Z" fill="#808285"/>
<path fill-rule="evenodd" clip-rule="evenodd" d="M43.4538 10.4895C45.1834 10.5353 46.5629 11.4437 46.5347 12.5181C46.5057 13.5919 45.0804 14.4259 43.3503 14.3802C41.6208 14.3339 40.2413 13.426 40.2698 12.3516C40.298 11.2773 41.7242 10.4437 43.4538 10.4895V10.4895Z" fill="#414042"/>
<path fill-rule="evenodd" clip-rule="evenodd" d="M43.4538 10.2754C45.1834 10.3216 46.5629 11.2296 46.5347 12.3039C46.5057 13.3783 45.0804 14.2123 43.3503 14.166C41.6208 14.1203 40.2413 13.2118 40.2698 12.1375C40.298 11.0636 41.7242 10.2296 43.4538 10.2754V10.2754Z" fill="#808285"/>
<path fill-rule="evenodd" clip-rule="evenodd" d="M55.9239 31.9286C55.3393 31.9563 54.851 31.685 54.8339 31.3221C54.8162 30.9587 55.2764 30.6421 55.8605 30.614C56.4451 30.5858 56.9335 30.8576 56.9506 31.2205C56.9678 31.5834 56.5081 31.9005 55.9239 31.9286Z" fill="#808285"/>
<path fill-rule="evenodd" clip-rule="evenodd" d="M55.9178 31.784C55.4557 31.8064 55.0699 31.5918 55.0561 31.3047C55.0427 31.0181 55.4056 30.7673 55.8677 30.7454C56.3298 30.7234 56.7151 30.938 56.7294 31.2246C56.7427 31.5112 56.3794 31.762 55.9178 31.784Z" fill="#A7A9AC"/>
<path fill-rule="evenodd" clip-rule="evenodd" d="M55.9173 31.7103C55.4553 31.7322 55.07 31.5176 55.0561 31.231C55.0423 30.944 55.4057 30.6937 55.8672 30.6712C56.3293 30.6493 56.7151 30.8639 56.7289 31.1504C56.7428 31.4375 56.3794 31.6879 55.9173 31.7103Z" fill="#D1D3D4"/>
<path d="M56.2147 31.4542L56.1499 31.4351L55.5066 31.0227C55.4508 30.9864 55.4341 30.9125 55.4704 30.8562C55.5061 30.8009 55.5805 30.7847 55.6358 30.8205L56.2796 31.233C56.3354 31.2692 56.3515 31.3431 56.3158 31.3994L56.2147 31.4542V31.4542Z" fill="#6D6E71"/>
<path d="M55.5549 31.4329L55.4495 31.3704C55.4175 31.3122 55.439 31.2393 55.4972 31.2073L56.1676 30.8411C56.2268 30.8091 56.2997 30.8306 56.3307 30.8892C56.3627 30.9474 56.3417 31.0204 56.283 31.0523L55.6126 31.4185L55.5549 31.4329V31.4329Z" fill="#6D6E71"/>
<path fill-rule="evenodd" clip-rule="evenodd" d="M35.1077 44.6063C34.5226 44.634 34.0348 44.3626 34.0176 43.9997C33.9999 43.6364 34.4596 43.3197 35.0443 43.2916C35.6289 43.2635 36.1167 43.5353 36.1343 43.8982C36.1515 44.2611 35.6919 44.5782 35.1077 44.6063Z" fill="#808285"/>
<path fill-rule="evenodd" clip-rule="evenodd" d="M35.0933 44.4698C34.6313 44.4922 34.2455 44.2776 34.2316 43.9905C34.2178 43.7039 34.5812 43.4531 35.0432 43.4312C35.5053 43.4088 35.8906 43.6238 35.9044 43.9104C35.9183 44.197 35.5549 44.4478 35.0933 44.4698V44.4698Z" fill="#A7A9AC"/>
<path fill-rule="evenodd" clip-rule="evenodd" d="M35.0928 44.3962C34.6308 44.4181 34.2455 44.2035 34.2316 43.9169C34.2178 43.6298 34.5812 43.3795 35.0428 43.3571C35.5048 43.3352 35.8906 43.5497 35.9044 43.8363C35.9183 44.1234 35.5549 44.3737 35.0928 44.3962V44.3962Z" fill="#D1D3D4"/>
<path d="M35.3905 44.1403L35.3256 44.1212L34.6824 43.7082C34.6261 43.6725 34.6099 43.5981 34.6456 43.5423C34.6819 43.4865 34.7563 43.4708 34.8116 43.5061L35.4553 43.919C35.5111 43.9548 35.5273 44.0292 35.4916 44.085L35.3905 44.1403V44.1403Z" fill="#6D6E71"/>
<path d="M34.7386 44.119L34.6332 44.0561C34.6013 43.9979 34.6227 43.9249 34.6809 43.8935L35.3514 43.5268C35.4105 43.4948 35.4825 43.5163 35.5144 43.5749C35.5464 43.6331 35.5249 43.7056 35.4667 43.7375L34.7963 44.1042L34.7386 44.119Z" fill="#6D6E71"/>
<path fill-rule="evenodd" clip-rule="evenodd" d="M65.8007 20.4456C65.2161 20.4737 64.7278 20.2019 64.7107 19.839C64.6935 19.4761 65.1532 19.159 65.7373 19.1309C66.3219 19.1028 66.8102 19.3746 66.8274 19.7375C66.845 20.1008 66.3849 20.4175 65.8007 20.4456Z" fill="#808285"/>
<path fill-rule="evenodd" clip-rule="evenodd" d="M65.7946 20.3096C65.3325 20.3315 64.9472 20.1174 64.9329 19.8303C64.9196 19.5433 65.2829 19.2929 65.7446 19.2705C66.2066 19.2486 66.5924 19.4631 66.6062 19.7502C66.62 20.0368 66.2562 20.2871 65.7946 20.3096V20.3096Z" fill="#A7A9AC"/>
<path fill-rule="evenodd" clip-rule="evenodd" d="M65.7942 20.2272C65.3326 20.2497 64.9468 20.0351 64.933 19.748C64.9191 19.461 65.283 19.2106 65.7446 19.1882C66.2067 19.1663 66.5924 19.3808 66.6058 19.6679C66.6196 19.955 66.2562 20.2053 65.7942 20.2272V20.2272Z" fill="#D1D3D4"/>
<path d="M66.0914 19.9798L66.0265 19.9603L65.3832 19.5478C65.3274 19.512 65.3112 19.4376 65.347 19.3818C65.3828 19.3261 65.4576 19.3098 65.5129 19.3456L66.1562 19.7585C66.212 19.7943 66.2282 19.8687 66.1924 19.9245L66.0914 19.9798Z" fill="#6D6E71"/>
<path d="M65.44 19.958L65.3346 19.8955C65.3026 19.8374 65.3241 19.7644 65.3823 19.7325L66.0532 19.3658C66.1123 19.3343 66.1848 19.3558 66.2163 19.4139C66.2482 19.4721 66.2268 19.5451 66.1686 19.577L65.4977 19.9432L65.44 19.958V19.958Z" fill="#6D6E71"/>
<path fill-rule="evenodd" clip-rule="evenodd" d="M23.5875 27.4492L34.9995 21.0275C35.4678 20.7643 35.9156 20.6231 36.4496 20.5706L48.8859 19.3466C49.6666 19.2698 50.3575 19.4133 51.0432 19.7943L57.3162 23.2806C57.7259 23.5081 57.96 23.9129 57.9605 24.3812C57.9614 24.8499 57.7273 25.2529 57.3196 25.4842L38.8334 35.9773C38.2221 36.324 37.5282 36.3254 36.916 35.9802L23.5889 28.4659C23.4006 28.36 23.2923 28.1746 23.2918 27.9581C23.2913 27.7421 23.3986 27.5551 23.5875 27.4492Z" fill="#E6E7E8"/>
<path fill-rule="evenodd" clip-rule="evenodd" d="M26.4624 25.8342L41.8299 34.2793L38.8334 35.9802C38.2221 36.3269 37.5282 36.3283 36.916 35.983L23.5889 28.4688C23.4006 28.3629 23.2923 28.1775 23.2918 27.961C23.2913 27.7449 23.3986 27.558 23.5875 27.4521L26.4624 25.8342V25.8342Z" fill="#90C440"/>
<path fill-rule="evenodd" clip-rule="evenodd" d="M54.9718 26.8203L42.5182 19.9741L48.8914 19.3466C49.672 19.2698 50.3629 19.4133 51.0487 19.7943L57.3217 23.2806C57.7313 23.508 57.9654 23.9129 57.9659 24.3812C57.9669 24.8499 57.7327 25.2529 57.325 25.4842L54.9718 26.8203V26.8203Z" fill="#90C440"/>
<path fill-rule="evenodd" clip-rule="evenodd" d="M27.4658 50.6233V52.9265L22.7564 50.2651V47.9767L27.4658 50.6233V50.6233Z" fill="#414042"/>
<path d="M24.4282 50.4561V50.746L24.3071 50.8175C24.2479 50.8524 24.1711 50.8328 24.1363 50.7737C24.1011 50.7145 24.1211 50.6378 24.1802 50.6025L24.4282 50.4561ZM24.4282 49.1862V49.4757L23.175 50.2148C23.1159 50.2501 23.0396 50.2305 23.0043 50.1709C22.9695 50.1118 22.989 50.035 23.0482 50.0002L24.4282 49.1862V49.1862ZM24.4282 49.4757V49.1862L24.5502 49.1142C24.6094 49.0794 24.6857 49.099 24.721 49.1581C24.7558 49.2172 24.7362 49.294 24.6771 49.3288L24.4282 49.4757ZM25.5602 51.0588V51.3483L25.4386 51.4198C25.3795 51.4546 25.3032 51.435 25.2679 51.3759C25.2331 51.3168 25.2527 51.24 25.3118 51.2052L25.5602 51.0588V51.0588ZM25.5602 49.7885V50.0784L24.4282 50.746V50.4561L25.5602 49.7885ZM25.5602 50.0784V49.7885L25.6818 49.7169C25.7409 49.6817 25.8177 49.7017 25.8525 49.7608C25.8878 49.82 25.8678 49.8962 25.8087 49.9315L25.5602 50.0784V50.0784ZM26.6918 50.3912V50.6807L25.5602 51.3483V51.0588L26.6918 50.3912ZM26.5707 52.0225C26.5115 52.0573 26.4348 52.0378 26.3999 51.9787C26.3651 51.9195 26.3847 51.8428 26.4438 51.8075L26.6918 51.6611V51.951L26.5707 52.0225ZM26.6918 50.6807V50.3912L26.8138 50.3192C26.873 50.2844 26.9498 50.3039 26.9846 50.3631C27.0198 50.4222 26.9998 50.499 26.9407 50.5338L26.6918 50.6807ZM26.6918 51.6611L27.4586 51.209V51.4985L26.6918 51.951V51.6611Z" fill="#81806F"/>
<path d="M26.0628 49.8353L26.3141 49.9769L25.5626 50.4199C25.5034 50.4552 25.4267 50.4357 25.3918 50.3765C25.357 50.3174 25.3766 50.2406 25.4357 50.2054L26.0628 49.8353ZM24.9617 49.2149L25.2125 49.3566L24.4305 49.8177C24.3714 49.8525 24.2951 49.8329 24.2598 49.7738C24.225 49.7147 24.2445 49.6379 24.3037 49.6031L24.9617 49.2149ZM23.8597 48.5945L24.111 48.7361L23.2989 49.2154C23.2398 49.2502 23.163 49.2307 23.1282 49.1715C23.0929 49.1124 23.1125 49.0356 23.1721 49.0003L23.8597 48.5945ZM26.6946 51.0227C26.6355 51.0575 26.5587 51.0379 26.5234 50.9788C26.4886 50.9197 26.5081 50.8429 26.5673 50.8081L27.1643 50.4557L27.4156 50.5973L26.6946 51.0227Z" fill="#81806F"/>
<path fill-rule="evenodd" clip-rule="evenodd" d="M22.4223 47.8114V50.1146L19.7744 48.6182V46.3293L22.4223 47.8114V47.8114Z" fill="#414042"/>
<path d="M9.54094 69V62H12.7209C13.4809 62 14.1509 62.1467 14.7309 62.44C15.3109 62.7267 15.7643 63.13 16.0909 63.65C16.4176 64.17 16.5809 64.7867 16.5809 65.5C16.5809 66.2067 16.4176 66.8233 16.0909 67.35C15.7643 67.87 15.3109 68.2767 14.7309 68.57C14.1509 68.8567 13.4809 69 12.7209 69H9.54094ZM11.1609 67.67H12.6409C13.1076 67.67 13.5109 67.5833 13.8509 67.41C14.1976 67.23 14.4643 66.9767 14.6509 66.65C14.8443 66.3233 14.9409 65.94 14.9409 65.5C14.9409 65.0533 14.8443 64.67 14.6509 64.35C14.4643 64.0233 14.1976 63.7733 13.8509 63.6C13.5109 63.42 13.1076 63.33 12.6409 63.33H11.1609V67.67ZM17.6927 69V63.62H19.2527V69H17.6927ZM18.4727 62.87C18.186 62.87 17.9527 62.7867 17.7727 62.62C17.5927 62.4533 17.5027 62.2467 17.5027 62C17.5027 61.7533 17.5927 61.5467 17.7727 61.38C17.9527 61.2133 18.186 61.13 18.4727 61.13C18.7593 61.13 18.9927 61.21 19.1727 61.37C19.3527 61.5233 19.4427 61.7233 19.4427 61.97C19.4427 62.23 19.3527 62.4467 19.1727 62.62C18.9993 62.7867 18.766 62.87 18.4727 62.87ZM22.5105 69.08C22.0505 69.08 21.6071 69.0267 21.1805 68.92C20.7605 68.8067 20.4271 68.6667 20.1805 68.5L20.7005 67.38C20.9471 67.5333 21.2371 67.66 21.5705 67.76C21.9105 67.8533 22.2438 67.9 22.5705 67.9C22.9305 67.9 23.1838 67.8567 23.3305 67.77C23.4838 67.6833 23.5605 67.5633 23.5605 67.41C23.5605 67.2833 23.5005 67.19 23.3805 67.13C23.2671 67.0633 23.1138 67.0133 22.9205 66.98C22.7271 66.9467 22.5138 66.9133 22.2805 66.88C22.0538 66.8467 21.8238 66.8033 21.5905 66.75C21.3571 66.69 21.1438 66.6033 20.9505 66.49C20.7571 66.3767 20.6005 66.2233 20.4805 66.03C20.3671 65.8367 20.3105 65.5867 20.3105 65.28C20.3105 64.94 20.4071 64.64 20.6005 64.38C20.8005 64.12 21.0871 63.9167 21.4605 63.77C21.8338 63.6167 22.2805 63.54 22.8005 63.54C23.1671 63.54 23.5405 63.58 23.9205 63.66C24.3005 63.74 24.6171 63.8567 24.8705 64.01L24.3505 65.12C24.0905 64.9667 23.8271 64.8633 23.5605 64.81C23.3005 64.75 23.0471 64.72 22.8005 64.72C22.4538 64.72 22.2005 64.7667 22.0405 64.86C21.8805 64.9533 21.8005 65.0733 21.8005 65.22C21.8005 65.3533 21.8571 65.4533 21.9705 65.52C22.0905 65.5867 22.2471 65.64 22.4405 65.68C22.6338 65.72 22.8438 65.7567 23.0705 65.79C23.3038 65.8167 23.5371 65.86 23.7705 65.92C24.0038 65.98 24.2138 66.0667 24.4005 66.18C24.5938 66.2867 24.7505 66.4367 24.8705 66.63C24.9905 66.8167 25.0505 67.0633 25.0505 67.37C25.0505 67.7033 24.9505 68 24.7505 68.26C24.5505 68.5133 24.2605 68.7133 23.8805 68.86C23.5071 69.0067 23.0505 69.08 22.5105 69.08ZM28.613 69.08C28.033 69.08 27.5163 68.9633 27.063 68.73C26.6096 68.49 26.253 68.16 25.993 67.74C25.7396 67.32 25.613 66.8433 25.613 66.31C25.613 65.77 25.7396 65.2933 25.993 64.88C26.253 64.46 26.6096 64.1333 27.063 63.9C27.5163 63.66 28.033 63.54 28.613 63.54C29.1796 63.54 29.673 63.66 30.093 63.9C30.513 64.1333 30.823 64.47 31.023 64.91L29.813 65.56C29.673 65.3067 29.4963 65.12 29.283 65C29.0763 64.88 28.8496 64.82 28.603 64.82C28.3363 64.82 28.0963 64.88 27.883 65C27.6696 65.12 27.4996 65.29 27.373 65.51C27.253 65.73 27.193 65.9967 27.193 66.31C27.193 66.6233 27.253 66.89 27.373 67.11C27.4996 67.33 27.6696 67.5 27.883 67.62C28.0963 67.74 28.3363 67.8 28.603 67.8C28.8496 67.8 29.0763 67.7433 29.283 67.63C29.4963 67.51 29.673 67.32 29.813 67.06L31.023 67.72C30.823 68.1533 30.513 68.49 30.093 68.73C29.673 68.9633 29.1796 69.08 28.613 69.08ZM34.4128 69.08C33.8395 69.08 33.3295 68.96 32.8828 68.72C32.4428 68.48 32.0928 68.1533 31.8328 67.74C31.5795 67.32 31.4528 66.8433 31.4528 66.31C31.4528 65.77 31.5795 65.2933 31.8328 64.88C32.0928 64.46 32.4428 64.1333 32.8828 63.9C33.3295 63.66 33.8395 63.54 34.4128 63.54C34.9795 63.54 35.4861 63.66 35.9328 63.9C36.3795 64.1333 36.7295 64.4567 36.9828 64.87C37.2361 65.2833 37.3628 65.7633 37.3628 66.31C37.3628 66.8433 37.2361 67.32 36.9828 67.74C36.7295 68.1533 36.3795 68.48 35.9328 68.72C35.4861 68.96 34.9795 69.08 34.4128 69.08ZM34.4128 67.8C34.6728 67.8 34.9061 67.74 35.1128 67.62C35.3195 67.5 35.4828 67.33 35.6028 67.11C35.7228 66.8833 35.7828 66.6167 35.7828 66.31C35.7828 65.9967 35.7228 65.73 35.6028 65.51C35.4828 65.29 35.3195 65.12 35.1128 65C34.9061 64.88 34.6728 64.82 34.4128 64.82C34.1528 64.82 33.9195 64.88 33.7128 65C33.5061 65.12 33.3395 65.29 33.2128 65.51C33.0928 65.73 33.0328 65.9967 33.0328 66.31C33.0328 66.6167 33.0928 66.8833 33.2128 67.11C33.3395 67.33 33.5061 67.5 33.7128 67.62C33.9195 67.74 34.1528 67.8 34.4128 67.8ZM41.2376 69V63.62H42.7276V65.14L42.5176 64.7C42.6776 64.32 42.9342 64.0333 43.2876 63.84C43.6409 63.64 44.0709 63.54 44.5776 63.54V64.98C44.5109 64.9733 44.4509 64.97 44.3976 64.97C44.3442 64.9633 44.2876 64.96 44.2276 64.96C43.8009 64.96 43.4542 65.0833 43.1876 65.33C42.9276 65.57 42.7976 65.9467 42.7976 66.46V69H41.2376ZM45.5149 69V63.62H47.0749V69H45.5149ZM45.3849 62.93L46.7349 61.49H48.4149L46.6049 62.93H45.3849ZM51.0527 71.02C50.5461 71.02 50.0561 70.9567 49.5827 70.83C49.1161 70.71 48.7261 70.5267 48.4127 70.28L49.0327 69.16C49.2594 69.3467 49.5461 69.4933 49.8927 69.6C50.2461 69.7133 50.5927 69.77 50.9327 69.77C51.4861 69.77 51.8861 69.6467 52.1327 69.4C52.3861 69.1533 52.5127 68.7867 52.5127 68.3V67.49L52.6127 66.14L52.5927 64.78V63.62H54.0727V68.1C54.0727 69.1 53.8127 69.8367 53.2927 70.31C52.7727 70.7833 52.0261 71.02 51.0527 71.02ZM50.8127 68.74C50.3127 68.74 49.8594 68.6333 49.4527 68.42C49.0527 68.2 48.7294 67.8967 48.4827 67.51C48.2427 67.1167 48.1227 66.66 48.1227 66.14C48.1227 65.6133 48.2427 65.1567 48.4827 64.77C48.7294 64.3767 49.0527 64.0733 49.4527 63.86C49.8594 63.6467 50.3127 63.54 50.8127 63.54C51.2661 63.54 51.6661 63.6333 52.0127 63.82C52.3594 64 52.6294 64.2833 52.8227 64.67C53.0161 65.05 53.1127 65.54 53.1127 66.14C53.1127 66.7333 53.0161 67.2233 52.8227 67.61C52.6294 67.99 52.3594 68.2733 52.0127 68.46C51.6661 68.6467 51.2661 68.74 50.8127 68.74ZM51.1227 67.46C51.3961 67.46 51.6394 67.4067 51.8527 67.3C52.0661 67.1867 52.2327 67.03 52.3527 66.83C52.4727 66.63 52.5327 66.4 52.5327 66.14C52.5327 65.8733 52.4727 65.6433 52.3527 65.45C52.2327 65.25 52.0661 65.0967 51.8527 64.99C51.6394 64.8767 51.3961 64.82 51.1227 64.82C50.8494 64.82 50.6061 64.8767 50.3927 64.99C50.1794 65.0967 50.0094 65.25 49.8827 65.45C49.7627 65.6433 49.7027 65.8733 49.7027 66.14C49.7027 66.4 49.7627 66.63 49.8827 66.83C50.0094 67.03 50.1794 67.1867 50.3927 67.3C50.6061 67.4067 50.8494 67.46 51.1227 67.46ZM55.5247 69V63.62H57.0847V69H55.5247ZM56.3047 62.87C56.018 62.87 55.7847 62.7867 55.6047 62.62C55.4247 62.4533 55.3347 62.2467 55.3347 62C55.3347 61.7533 55.4247 61.5467 55.6047 61.38C55.7847 61.2133 56.018 61.13 56.3047 61.13C56.5914 61.13 56.8247 61.21 57.0047 61.37C57.1847 61.5233 57.2747 61.7233 57.2747 61.97C57.2747 62.23 57.1847 62.4467 57.0047 62.62C56.8314 62.7867 56.598 62.87 56.3047 62.87ZM60.8425 69.08C60.3358 69.08 59.8792 68.9667 59.4725 68.74C59.0658 68.5067 58.7425 68.1833 58.5025 67.77C58.2692 67.3567 58.1525 66.87 58.1525 66.31C58.1525 65.7433 58.2692 65.2533 58.5025 64.84C58.7425 64.4267 59.0658 64.1067 59.4725 63.88C59.8792 63.6533 60.3358 63.54 60.8425 63.54C61.2958 63.54 61.6925 63.64 62.0325 63.84C62.3725 64.04 62.6358 64.3433 62.8225 64.75C63.0092 65.1567 63.1025 65.6767 63.1025 66.31C63.1025 66.9367 63.0125 67.4567 62.8325 67.87C62.6525 68.2767 62.3925 68.58 62.0525 68.78C61.7192 68.98 61.3158 69.08 60.8425 69.08ZM61.1125 67.8C61.3658 67.8 61.5958 67.74 61.8025 67.62C62.0092 67.5 62.1725 67.33 62.2925 67.11C62.4192 66.8833 62.4825 66.6167 62.4825 66.31C62.4825 65.9967 62.4192 65.73 62.2925 65.51C62.1725 65.29 62.0092 65.12 61.8025 65C61.5958 64.88 61.3658 64.82 61.1125 64.82C60.8525 64.82 60.6192 64.88 60.4125 65C60.2058 65.12 60.0392 65.29 59.9125 65.51C59.7925 65.73 59.7325 65.9967 59.7325 66.31C59.7325 66.6167 59.7925 66.8833 59.9125 67.11C60.0392 67.33 60.2058 67.5 60.4125 67.62C60.6192 67.74 60.8525 67.8 61.1125 67.8ZM62.5225 69V67.9L62.5525 66.3L62.4525 64.71V61.58H64.0125V69H62.5225ZM68.0163 69.08C67.443 69.08 66.933 68.96 66.4863 68.72C66.0463 68.48 65.6963 68.1533 65.4363 67.74C65.183 67.32 65.0563 66.8433 65.0563 66.31C65.0563 65.77 65.183 65.2933 65.4363 64.88C65.6963 64.46 66.0463 64.1333 66.4863 63.9C66.933 63.66 67.443 63.54 68.0163 63.54C68.583 63.54 69.0897 63.66 69.5363 63.9C69.983 64.1333 70.333 64.4567 70.5863 64.87C70.8397 65.2833 70.9663 65.7633 70.9663 66.31C70.9663 66.8433 70.8397 67.32 70.5863 67.74C70.333 68.1533 69.983 68.48 69.5363 68.72C69.0897 68.96 68.583 69.08 68.0163 69.08ZM68.0163 67.8C68.2763 67.8 68.5097 67.74 68.7163 67.62C68.923 67.5 69.0863 67.33 69.2063 67.11C69.3263 66.8833 69.3863 66.6167 69.3863 66.31C69.3863 65.9967 69.3263 65.73 69.2063 65.51C69.0863 65.29 68.923 65.12 68.7163 65C68.5097 64.88 68.2763 64.82 68.0163 64.82C67.7563 64.82 67.523 64.88 67.3163 65C67.1097 65.12 66.943 65.29 66.8163 65.51C66.6963 65.73 66.6363 65.9967 66.6363 66.31C66.6363 66.6167 66.6963 66.8833 66.8163 67.11C66.943 67.33 67.1097 67.5 67.3163 67.62C67.523 67.74 67.7563 67.8 68.0163 67.8Z" fill="#333333"/>
<defs>
<linearGradient id="paint0_linear_1_707" x1="52.5359" y1="-2.83965" x2="27.6699" y2="55.7407" gradientUnits="userSpaceOnUse">
<stop stop-color="#D1D3D4"/>
<stop offset="0.7" stop-color="#E5E6E7"/>
<stop offset="0.8" stop-color="#F9F9F9"/>
<stop offset="1" stop-color="white"/>
</linearGradient>
<linearGradient id="paint1_linear_1_707" x1="28.7256" y1="49.6893" x2="48.7647" y2="6.71528" gradientUnits="userSpaceOnUse">
<stop stop-color="white"/>
<stop offset="0.1" stop-color="white"/>
<stop offset="1" stop-color="#BCBDBF"/>
</linearGradient>
</defs>
</svg>
