<svg width="80" height="80" viewBox="0 0 80 80" fill="none" xmlns="http://www.w3.org/2000/svg">
<rect width="80" height="80" rx="20" fill="#00D8CC"/>
<path fill-rule="evenodd" clip-rule="evenodd" d="M8.63365 33.3233H40.0679V52.1579L8.63365 34.1422V33.3233V33.3233Z" fill="#4A6028"/>
<path fill-rule="evenodd" clip-rule="evenodd" d="M71.5019 33.3233H40.0677V52.1579L71.5019 34.1422V33.3233Z" fill="#7BA142"/>
<path fill-rule="evenodd" clip-rule="evenodd" d="M40.0679 15.3058L8.63365 33.3215L40.0679 51.3372L71.5021 33.3215L40.0679 15.3058Z" fill="#57742B"/>
<path fill-rule="evenodd" clip-rule="evenodd" d="M15.0323 29.9271L38.212 16.7609H41.9639L65.1045 29.9177L65.1038 33.1634L42.0974 46.1015H37.9855L15.0331 33.1603L15.0323 29.9271V29.9271Z" fill="#58595B"/>
<path fill-rule="evenodd" clip-rule="evenodd" d="M15.0323 28.1587L38.212 14.9933H41.9639L65.1045 28.1501L65.1038 31.395L42.0974 44.3331H37.9855L15.0331 31.3926L15.0323 28.1587V28.1587Z" fill="#414042"/>
<path fill-rule="evenodd" clip-rule="evenodd" d="M15.0323 27.5053L38.212 14.3391H41.9639L65.1045 27.4959L65.1038 30.7423L42.0974 43.6797H37.9855L15.0331 30.7384L15.0323 27.5053Z" fill="#58595B"/>
<path d="M15.0323 25.7369L38.212 12.5714H41.9639L65.1045 25.7283L65.1038 28.974L42.0974 41.9113H37.9855L15.0331 28.9708L15.0323 25.7369V25.7369Z" fill="url(#paint0_linear_1_877)"/>
<path fill-rule="evenodd" clip-rule="evenodd" d="M24.0108 26.2793L38.8776 17.8351H41.2843L56.1253 26.273V28.3548L41.3702 36.6529H38.7323L24.0116 28.3532L24.0108 26.2793Z" fill="#90C440"/>
<path fill-rule="evenodd" clip-rule="evenodd" d="M26.5206 26.4248L39.0635 19.3H41.0944L53.6154 26.4201V28.1761L41.1663 35.1767H38.9416L26.5206 28.1746V26.4248V26.4248Z" fill="#E6E7E8"/>
<path d="M8.44719 69V62H11.4772C12.1039 62 12.6439 62.1033 13.0972 62.31C13.5505 62.51 13.9005 62.8 14.1472 63.18C14.3939 63.56 14.5172 64.0133 14.5172 64.54C14.5172 65.06 14.3939 65.51 14.1472 65.89C13.9005 66.27 13.5505 66.5633 13.0972 66.77C12.6439 66.97 12.1039 67.07 11.4772 67.07H9.34719L10.0672 66.34V69H8.44719ZM10.0672 66.52L9.34719 65.75H11.3872C11.8872 65.75 12.2605 65.6433 12.5072 65.43C12.7539 65.2167 12.8772 64.92 12.8772 64.54C12.8772 64.1533 12.7539 63.8533 12.5072 63.64C12.2605 63.4267 11.8872 63.32 11.3872 63.32H9.34719L10.0672 62.55V66.52ZM15.554 69V63.62H17.044V65.14L16.834 64.7C16.994 64.32 17.2507 64.0333 17.604 63.84C17.9573 63.64 18.3873 63.54 18.894 63.54V64.98C18.8273 64.9733 18.7673 64.97 18.714 64.97C18.6607 64.9633 18.604 64.96 18.544 64.96C18.1173 64.96 17.7707 65.0833 17.504 65.33C17.244 65.57 17.114 65.9467 17.114 66.46V69H15.554ZM22.3425 69.08C21.7692 69.08 21.2592 68.96 20.8125 68.72C20.3725 68.48 20.0225 68.1533 19.7625 67.74C19.5092 67.32 19.3825 66.8433 19.3825 66.31C19.3825 65.77 19.5092 65.2933 19.7625 64.88C20.0225 64.46 20.3725 64.1333 20.8125 63.9C21.2592 63.66 21.7692 63.54 22.3425 63.54C22.9092 63.54 23.4158 63.66 23.8625 63.9C24.3092 64.1333 24.6592 64.4567 24.9125 64.87C25.1658 65.2833 25.2925 65.7633 25.2925 66.31C25.2925 66.8433 25.1658 67.32 24.9125 67.74C24.6592 68.1533 24.3092 68.48 23.8625 68.72C23.4158 68.96 22.9092 69.08 22.3425 69.08ZM22.3425 67.8C22.6025 67.8 22.8358 67.74 23.0425 67.62C23.2492 67.5 23.4125 67.33 23.5325 67.11C23.6525 66.8833 23.7125 66.6167 23.7125 66.31C23.7125 65.9967 23.6525 65.73 23.5325 65.51C23.4125 65.29 23.2492 65.12 23.0425 65C22.8358 64.88 22.6025 64.82 22.3425 64.82C22.0825 64.82 21.8492 64.88 21.6425 65C21.4358 65.12 21.2692 65.29 21.1425 65.51C21.0225 65.73 20.9625 65.9967 20.9625 66.31C20.9625 66.6167 21.0225 66.8833 21.1425 67.11C21.2692 67.33 21.4358 67.5 21.6425 67.62C21.8492 67.74 22.0825 67.8 22.3425 67.8ZM28.9352 69.08C28.3552 69.08 27.8386 68.9633 27.3852 68.73C26.9319 68.49 26.5752 68.16 26.3152 67.74C26.0619 67.32 25.9352 66.8433 25.9352 66.31C25.9352 65.77 26.0619 65.2933 26.3152 64.88C26.5752 64.46 26.9319 64.1333 27.3852 63.9C27.8386 63.66 28.3552 63.54 28.9352 63.54C29.5019 63.54 29.9952 63.66 30.4152 63.9C30.8352 64.1333 31.1452 64.47 31.3452 64.91L30.1352 65.56C29.9952 65.3067 29.8186 65.12 29.6052 65C29.3986 64.88 29.1719 64.82 28.9252 64.82C28.6586 64.82 28.4186 64.88 28.2052 65C27.9919 65.12 27.8219 65.29 27.6952 65.51C27.5752 65.73 27.5152 65.9967 27.5152 66.31C27.5152 66.6233 27.5752 66.89 27.6952 67.11C27.8219 67.33 27.9919 67.5 28.2052 67.62C28.4186 67.74 28.6586 67.8 28.9252 67.8C29.1719 67.8 29.3986 67.7433 29.6052 67.63C29.8186 67.51 29.9952 67.32 30.1352 67.06L31.3452 67.72C31.1452 68.1533 30.8352 68.49 30.4152 68.73C29.9952 68.9633 29.5019 69.08 28.9352 69.08ZM34.8451 69.08C34.2317 69.08 33.6917 68.96 33.2251 68.72C32.7651 68.48 32.4084 68.1533 32.1551 67.74C31.9017 67.32 31.7751 66.8433 31.7751 66.31C31.7751 65.77 31.8984 65.2933 32.1451 64.88C32.3984 64.46 32.7417 64.1333 33.1751 63.9C33.6084 63.66 34.0984 63.54 34.6451 63.54C35.1717 63.54 35.6451 63.6533 36.0651 63.88C36.4917 64.1 36.8284 64.42 37.0751 64.84C37.3217 65.2533 37.4451 65.75 37.4451 66.33C37.4451 66.39 37.4417 66.46 37.4351 66.54C37.4284 66.6133 37.4217 66.6833 37.4151 66.75H33.0451V65.84H36.5951L35.9951 66.11C35.9951 65.83 35.9384 65.5867 35.8251 65.38C35.7117 65.1733 35.5551 65.0133 35.3551 64.9C35.1551 64.78 34.9217 64.72 34.6551 64.72C34.3884 64.72 34.1517 64.78 33.9451 64.9C33.7451 65.0133 33.5884 65.1767 33.4751 65.39C33.3617 65.5967 33.3051 65.8433 33.3051 66.13V66.37C33.3051 66.6633 33.3684 66.9233 33.4951 67.15C33.6284 67.37 33.8117 67.54 34.0451 67.66C34.2851 67.7733 34.5651 67.83 34.8851 67.83C35.1717 67.83 35.4217 67.7867 35.6351 67.7C35.8551 67.6133 36.0551 67.4833 36.2351 67.31L37.0651 68.21C36.8184 68.49 36.5084 68.7067 36.1351 68.86C35.7617 69.0067 35.3317 69.08 34.8451 69.08ZM40.2937 69.08C39.8337 69.08 39.3903 69.0267 38.9637 68.92C38.5437 68.8067 38.2103 68.6667 37.9637 68.5L38.4837 67.38C38.7303 67.5333 39.0203 67.66 39.3537 67.76C39.6937 67.8533 40.027 67.9 40.3537 67.9C40.7137 67.9 40.967 67.8567 41.1137 67.77C41.267 67.6833 41.3437 67.5633 41.3437 67.41C41.3437 67.2833 41.2837 67.19 41.1637 67.13C41.0503 67.0633 40.897 67.0133 40.7037 66.98C40.5103 66.9467 40.297 66.9133 40.0637 66.88C39.837 66.8467 39.607 66.8033 39.3737 66.75C39.1403 66.69 38.927 66.6033 38.7337 66.49C38.5403 66.3767 38.3837 66.2233 38.2637 66.03C38.1503 65.8367 38.0937 65.5867 38.0937 65.28C38.0937 64.94 38.1903 64.64 38.3837 64.38C38.5837 64.12 38.8703 63.9167 39.2437 63.77C39.617 63.6167 40.0637 63.54 40.5837 63.54C40.9503 63.54 41.3237 63.58 41.7037 63.66C42.0837 63.74 42.4003 63.8567 42.6537 64.01L42.1337 65.12C41.8737 64.9667 41.6103 64.8633 41.3437 64.81C41.0837 64.75 40.8303 64.72 40.5837 64.72C40.237 64.72 39.9837 64.7667 39.8237 64.86C39.6637 64.9533 39.5837 65.0733 39.5837 65.22C39.5837 65.3533 39.6403 65.4533 39.7537 65.52C39.8737 65.5867 40.0303 65.64 40.2237 65.68C40.417 65.72 40.627 65.7567 40.8537 65.79C41.087 65.8167 41.3203 65.86 41.5537 65.92C41.787 65.98 41.997 66.0667 42.1837 66.18C42.377 66.2867 42.5337 66.4367 42.6537 66.63C42.7737 66.8167 42.8337 67.0633 42.8337 67.37C42.8337 67.7033 42.7337 68 42.5337 68.26C42.3337 68.5133 42.0437 68.7133 41.6637 68.86C41.2903 69.0067 40.8337 69.08 40.2937 69.08ZM45.6062 69.08C45.1462 69.08 44.7028 69.0267 44.2762 68.92C43.8562 68.8067 43.5228 68.6667 43.2762 68.5L43.7962 67.38C44.0428 67.5333 44.3328 67.66 44.6662 67.76C45.0062 67.8533 45.3395 67.9 45.6662 67.9C46.0262 67.9 46.2795 67.8567 46.4262 67.77C46.5795 67.6833 46.6562 67.5633 46.6562 67.41C46.6562 67.2833 46.5962 67.19 46.4762 67.13C46.3628 67.0633 46.2095 67.0133 46.0162 66.98C45.8228 66.9467 45.6095 66.9133 45.3762 66.88C45.1495 66.8467 44.9195 66.8033 44.6862 66.75C44.4528 66.69 44.2395 66.6033 44.0462 66.49C43.8528 66.3767 43.6962 66.2233 43.5762 66.03C43.4628 65.8367 43.4062 65.5867 43.4062 65.28C43.4062 64.94 43.5028 64.64 43.6962 64.38C43.8962 64.12 44.1828 63.9167 44.5562 63.77C44.9295 63.6167 45.3762 63.54 45.8962 63.54C46.2628 63.54 46.6362 63.58 47.0162 63.66C47.3962 63.74 47.7128 63.8567 47.9662 64.01L47.4462 65.12C47.1862 64.9667 46.9228 64.8633 46.6562 64.81C46.3962 64.75 46.1428 64.72 45.8962 64.72C45.5495 64.72 45.2962 64.7667 45.1362 64.86C44.9762 64.9533 44.8962 65.0733 44.8962 65.22C44.8962 65.3533 44.9528 65.4533 45.0662 65.52C45.1862 65.5867 45.3428 65.64 45.5362 65.68C45.7295 65.72 45.9395 65.7567 46.1662 65.79C46.3995 65.8167 46.6328 65.86 46.8662 65.92C47.0995 65.98 47.3095 66.0667 47.4962 66.18C47.6895 66.2867 47.8462 66.4367 47.9662 66.63C48.0862 66.8167 48.1462 67.0633 48.1462 67.37C48.1462 67.7033 48.0462 68 47.8462 68.26C47.6462 68.5133 47.3562 68.7133 46.9762 68.86C46.6028 69.0067 46.1462 69.08 45.6062 69.08ZM52.4087 69V67.95L52.3087 67.72V65.84C52.3087 65.5067 52.2053 65.2467 51.9987 65.06C51.7987 64.8733 51.4887 64.78 51.0687 64.78C50.782 64.78 50.4987 64.8267 50.2187 64.92C49.9453 65.0067 49.712 65.1267 49.5187 65.28L48.9587 64.19C49.252 63.9833 49.6053 63.8233 50.0187 63.71C50.432 63.5967 50.852 63.54 51.2787 63.54C52.0987 63.54 52.7353 63.7333 53.1887 64.12C53.642 64.5067 53.8687 65.11 53.8687 65.93V69H52.4087ZM50.7687 69.08C50.3487 69.08 49.9887 69.01 49.6887 68.87C49.3887 68.7233 49.1587 68.5267 48.9987 68.28C48.8387 68.0333 48.7587 67.7567 48.7587 67.45C48.7587 67.13 48.8353 66.85 48.9887 66.61C49.1487 66.37 49.3987 66.1833 49.7387 66.05C50.0787 65.91 50.522 65.84 51.0687 65.84H52.4987V66.75H51.2387C50.872 66.75 50.6187 66.81 50.4787 66.93C50.3453 67.05 50.2787 67.2 50.2787 67.38C50.2787 67.58 50.3553 67.74 50.5087 67.86C50.6687 67.9733 50.8853 68.03 51.1587 68.03C51.4187 68.03 51.652 67.97 51.8587 67.85C52.0653 67.7233 52.2153 67.54 52.3087 67.3L52.5487 68.02C52.4353 68.3667 52.2287 68.63 51.9287 68.81C51.6287 68.99 51.242 69.08 50.7687 69.08ZM57.6296 69.08C57.1229 69.08 56.6663 68.9667 56.2596 68.74C55.8529 68.5067 55.5296 68.1833 55.2896 67.77C55.0563 67.3567 54.9396 66.87 54.9396 66.31C54.9396 65.7433 55.0563 65.2533 55.2896 64.84C55.5296 64.4267 55.8529 64.1067 56.2596 63.88C56.6663 63.6533 57.1229 63.54 57.6296 63.54C58.0829 63.54 58.4796 63.64 58.8196 63.84C59.1596 64.04 59.4229 64.3433 59.6096 64.75C59.7963 65.1567 59.8896 65.6767 59.8896 66.31C59.8896 66.9367 59.7996 67.4567 59.6196 67.87C59.4396 68.2767 59.1796 68.58 58.8396 68.78C58.5063 68.98 58.1029 69.08 57.6296 69.08ZM57.8996 67.8C58.1529 67.8 58.3829 67.74 58.5896 67.62C58.7963 67.5 58.9596 67.33 59.0796 67.11C59.2063 66.8833 59.2696 66.6167 59.2696 66.31C59.2696 65.9967 59.2063 65.73 59.0796 65.51C58.9596 65.29 58.7963 65.12 58.5896 65C58.3829 64.88 58.1529 64.82 57.8996 64.82C57.6396 64.82 57.4063 64.88 57.1996 65C56.9929 65.12 56.8263 65.29 56.6996 65.51C56.5796 65.73 56.5196 65.9967 56.5196 66.31C56.5196 66.6167 56.5796 66.8833 56.6996 67.11C56.8263 67.33 56.9929 67.5 57.1996 67.62C57.4063 67.74 57.6396 67.8 57.8996 67.8ZM59.3096 69V67.9L59.3396 66.3L59.2396 64.71V61.58H60.7996V69H59.3096ZM64.8034 69.08C64.2301 69.08 63.7201 68.96 63.2734 68.72C62.8334 68.48 62.4834 68.1533 62.2234 67.74C61.9701 67.32 61.8434 66.8433 61.8434 66.31C61.8434 65.77 61.9701 65.2933 62.2234 64.88C62.4834 64.46 62.8334 64.1333 63.2734 63.9C63.7201 63.66 64.2301 63.54 64.8034 63.54C65.3701 63.54 65.8768 63.66 66.3234 63.9C66.7701 64.1333 67.1201 64.4567 67.3734 64.87C67.6268 65.2833 67.7534 65.7633 67.7534 66.31C67.7534 66.8433 67.6268 67.32 67.3734 67.74C67.1201 68.1533 66.7701 68.48 66.3234 68.72C65.8768 68.96 65.3701 69.08 64.8034 69.08ZM64.8034 67.8C65.0634 67.8 65.2968 67.74 65.5034 67.62C65.7101 67.5 65.8734 67.33 65.9934 67.11C66.1134 66.8833 66.1734 66.6167 66.1734 66.31C66.1734 65.9967 66.1134 65.73 65.9934 65.51C65.8734 65.29 65.7101 65.12 65.5034 65C65.2968 64.88 65.0634 64.82 64.8034 64.82C64.5434 64.82 64.3101 64.88 64.1034 65C63.8968 65.12 63.7301 65.29 63.6034 65.51C63.4834 65.73 63.4234 65.9967 63.4234 66.31C63.4234 66.6167 63.4834 66.8833 63.6034 67.11C63.7301 67.33 63.8968 67.5 64.1034 67.62C64.3101 67.74 64.5434 67.8 64.8034 67.8ZM68.7962 69V63.62H70.2862V65.14L70.0762 64.7C70.2362 64.32 70.4928 64.0333 70.8462 63.84C71.1995 63.64 71.6295 63.54 72.1362 63.54V64.98C72.0695 64.9733 72.0095 64.97 71.9562 64.97C71.9028 64.9633 71.8462 64.96 71.7862 64.96C71.3595 64.96 71.0128 65.0833 70.7462 65.33C70.4862 65.57 70.3562 65.9467 70.3562 66.46V69H68.7962Z" fill="#333333"/>
<defs>
<linearGradient id="paint0_linear_1_877" x1="37.929" y1="9.92256" x2="42.185" y2="44.5847" gradientUnits="userSpaceOnUse">
<stop stop-color="#808285"/>
<stop offset="0.6" stop-color="#808285"/>
<stop offset="1" stop-color="white"/>
</linearGradient>
</defs>
</svg>
