<svg width="80" height="76" viewBox="0 0 80 76" fill="none" xmlns="http://www.w3.org/2000/svg">
<path d="M0 76C0 70.4772 4.47715 66 10 66H70C75.5229 66 80 70.4772 80 76H0Z" fill="#828282"/>
<path d="M0 76C0 70.4772 4.47715 66 10 66H40V76H0Z" fill="#4F4F4F"/>
<path d="M10 60C10 57.7909 11.7909 56 14 56H66C68.2091 56 70 57.7909 70 60V66H10V60Z" fill="#BDBDBD"/>
<path d="M10 60C10 57.7909 11.7909 56 14 56H40V66H10V60Z" fill="#828282"/>
<path d="M20 50C20 47.7909 21.7909 46 24 46H56C58.2091 46 60 47.7909 60 50V56H20V50Z" fill="#E0E0E0"/>
<rect x="40" y="10" width="5" height="36" fill="#BDBDBD"/>
<rect x="35" y="10" width="5" height="36" fill="#828282"/>
<path d="M40 0H45C47.7614 0 50 2.23858 50 5C50 7.76142 47.7614 10 45 10H40V0Z" fill="#E0E0E0"/>
<path d="M40 10L35 10C32.2386 10 30 7.76142 30 5C30 2.23858 32.2386 -6.78525e-07 35 -4.37114e-07L40 0L40 10Z" fill="#BDBDBD"/>
<path d="M20 50C20 47.7909 21.7909 46 24 46H40V56H20V50Z" fill="#BDBDBD"/>
</svg>
