<svg width="40" height="50" viewBox="0 0 40 50" fill="none" xmlns="http://www.w3.org/2000/svg">
<path d="M7.77778 20C2.22222 25.5 0 31 0 37C0 43.5 5 49 12.2222 50C8.88889 48 8.33333 45.5 8.33333 43.5C8.33333 35 17.2222 35 22.2222 26C22.7778 33.5 17.7778 35.5 17.7778 38.5C17.7778 41.5 19.5529 43 22.2222 43C27.2222 43 28.8889 39 27.2222 34.5C33.3333 41 31.6667 46.5 27.7778 50C32.7778 48 40 45.5 40 37C40 21.5 17.7778 15 20 0C2.22222 15.5 16.6667 18.5 14.4444 27.5C12.7778 22.5 8.88889 24 7.77778 20Z" fill="#FF7171"/>
<path d="M26.1111 32C28.8889 35.3 30 38.6 30 42.2C30 46.1 27.5 49.4 23.8889 50C25.5556 48.8 25.8333 47.3 25.8333 46.1C25.8333 41 21.3889 41 18.8889 35.6C18.6111 40.1 21.1111 41.3 21.1111 43.1C21.1111 44.9 20.2236 45.8 18.8889 45.8C16.3889 45.8 15.5556 43.4 16.3889 40.7C13.3333 44.6 14.1667 47.9 16.1111 50C13.6111 48.8 10 47.3 10 42.2C10 32.9 21.1111 29 20 20C28.8889 29.3 21.6667 31.1 22.7778 36.5C23.6111 33.5 25.5556 34.4 26.1111 32Z" fill="#EDCA71"/>
</svg>
