<svg width="161" height="131" viewBox="0 0 161 131" fill="none" xmlns="http://www.w3.org/2000/svg">
<path d="M80.0905 97.066L65.2788 111.878C65.0316 116.203 66.5595 120.61 69.8623 123.914C76.012 130.058 85.9783 130.058 92.1272 123.914C98.2738 117.766 98.2738 107.797 92.1272 101.65C88.8228 98.3468 84.4159 96.8188 80.0905 97.066Z" fill="#FF7171"/>
<path d="M106.021 71.1356L92.3232 84.8337C96.0159 86.3301 99.4042 88.5677 102.303 91.4702C104.104 93.2703 106.468 94.168 108.82 94.168C111.183 94.168 113.534 93.2703 115.334 91.4702C118.935 87.8732 118.935 82.0399 115.334 78.4398C112.498 75.6009 109.371 73.1568 106.021 71.1356ZM77.4659 64.3384C65.8231 65.1697 54.9878 70.1022 46.6577 78.4398C43.0569 82.0391 43.0569 87.8732 46.6577 91.4702C47.2961 92.1087 48.0048 92.634 48.7585 93.0458L77.4659 64.3384Z" fill="#FF7171"/>
<path d="M88.9851 52.8193L104.417 37.3875C96.931 35.0713 89.0561 33.871 80.9953 33.871C59.9169 33.871 40.1009 42.0795 25.1984 56.9845C21.6005 60.5838 21.6005 66.4179 25.1984 70.0149C28.7992 73.6135 34.634 73.6135 38.228 70.0149C49.6489 58.5895 64.8403 52.2992 80.9954 52.2992C83.6905 52.2992 86.3589 52.4745 88.9852 52.8193H88.9851ZM127.87 49.287L114.649 62.508C117.887 64.686 120.937 67.1939 123.757 70.0149C125.554 71.815 127.919 72.7135 130.27 72.7135C132.633 72.7135 134.987 71.815 136.786 70.0149C140.383 66.4179 140.383 60.5838 136.786 56.9845C133.98 54.1779 131 51.6087 127.87 49.287Z" fill="#FF7171"/>
<path d="M149.546 27.6108L136.423 40.7337C139.505 43.1152 142.457 45.7118 145.258 48.5139C148.854 52.1132 154.684 52.1101 158.287 48.5177C161.884 44.9176 161.884 39.0828 158.293 35.4834C155.498 32.6872 152.578 30.0612 149.546 27.6108ZM113.828 27.9762L127.854 13.95C113.396 7.08243 97.475 3.46179 80.9951 3.46179C51.7911 3.46179 24.3409 14.8319 3.69729 35.4834C0.0987272 39.0828 0.0987272 44.9176 3.69729 48.5139C5.49887 50.3139 7.85721 51.2124 10.214 51.2124C12.5709 51.2124 14.9346 50.3139 16.7269 48.5139C33.8912 31.3442 56.7183 21.8901 80.9952 21.8901C92.4054 21.8901 103.494 23.9785 113.828 27.9762H113.828Z" fill="#FF7171"/>
<path fill-rule="evenodd" clip-rule="evenodd" d="M149.948 2.46152L29.958 122.452C28.0069 124.403 28.0069 127.571 29.958 129.522C31.9091 131.474 35.0774 131.474 37.0285 129.522L157.019 9.53203C158.97 7.58089 158.97 4.41271 157.019 2.46152C155.068 0.510384 151.9 0.510384 149.948 2.46152Z" fill="#FF7171"/>
</svg>
