<svg width="180" height="62" viewBox="0 0 180 62" fill="none" xmlns="http://www.w3.org/2000/svg">
<path fill-rule="evenodd" clip-rule="evenodd" d="M179.926 26.4094C179.926 19.6684 177.3 13.2036 172.626 8.43711C167.951 3.67057 161.611 0.992676 155 0.992676C93.7142 0.992676 120.147 0.999771 120.147 0.999771L109.185 11.1438H70.5L59.5305 0.999771H25.4265C18.8156 0.999771 12.4755 3.67765 7.80086 8.44419C3.12625 13.2107 0.5 19.6755 0.5 26.4165C0.5 26.4238 0.5 26.4314 0.5 26.439C0.5 33.18 3.12625 39.6446 7.80086 44.4111C12.4755 49.1776 18.8156 51.8555 25.4265 51.8555C41.8443 51.8555 60.3235 51.8555 60.3235 51.8555L71.293 61.9996H108.031L119 51.8555L155 51.8486C161.611 51.8486 167.951 49.1707 172.626 44.4041C177.3 39.6376 179.926 33.1728 179.926 26.4319C179.926 26.4243 179.926 26.4167 179.926 26.4094Z" fill="#30DCFF"/>
<path fill-rule="evenodd" clip-rule="evenodd" d="M180 26.4174C180 19.6764 177.374 13.2116 172.699 8.44511C168.025 3.67857 161.684 1.00067 155.074 1.00067C93.7879 1.00067 119.647 1.00067 119.647 1.00067L108.685 11.1447H70.793L59.8235 1.00067H24.9265C18.3156 1.00067 11.9755 3.67857 7.30086 8.44511C2.62625 13.2116 0 19.6764 0 26.4174C0 26.4247 0 26.4286 0 26.4286H5.98235C5.98235 15.4369 14.7211 6.52605 25.5008 6.52605C40.0363 6.52605 57.3753 6.52605 57.3753 6.52605L68.3447 16.6701H111.17L122.14 6.52605H154.5C165.28 6.52605 174.019 15.4367 174.019 26.4284L180 26.4286V26.4174Z" fill="#93EDFF"/>
<path fill-rule="evenodd" clip-rule="evenodd" d="M179.993 26.4221H174.011V26.4235C174.011 31.6998 171.955 36.7601 168.296 40.4908C164.637 44.2218 159.674 46.3178 154.5 46.3178C97.9953 46.3178 117.169 46.3178 117.169 46.3178L106.2 56.4618H73.2711L62.3016 46.3178H25.4929C14.7175 46.3178 5.98235 37.4108 5.98235 26.4235V26.4221H0V26.4333C0 33.1743 2.62625 39.639 7.30086 44.4056C11.9755 49.1721 18.3156 51.85 24.9265 51.85C41.3443 51.85 59.8235 51.85 59.8235 51.85L70.793 61.9941H108.678L119.647 51.85H155.066C168.832 51.85 179.992 40.4711 179.993 26.434C179.993 26.426 179.993 26.4221 179.993 26.4221Z" fill="#08A0BF"/>
</svg>
