<svg width="380" height="100" viewBox="0 0 380 100" fill="none" xmlns="http://www.w3.org/2000/svg">
<path fill-rule="evenodd" clip-rule="evenodd" d="M380 58.0386C380 44.3727 368.809 33.2946 355.005 33.2946C311.31 33.2946 242.621 33.2946 211.266 33.2946C204.867 33.2944 198.711 30.864 194.067 26.5042C183.662 16.751 157.396 0 99.9798 0C19.0332 0 0 33.2946 0 33.2946C0 33.2946 0.000479904 49.4378 0.000719856 64.3596C0.000959808 78.0258 11.1916 89.104 24.9958 89.104C54.609 89.104 99.9791 89.104 99.9791 89.104L110.979 98.9803H148.975L159.967 89.104C159.967 89.104 293.55 89.104 355.005 89.104C361.635 89.104 367.993 86.4969 372.68 81.8561C377.367 77.2152 380.001 70.9208 380 64.3579C380 62.2594 380 60.1369 380 58.0386Z" fill="#FC79FF"/>
<path fill-rule="evenodd" clip-rule="evenodd" d="M380 60.7148H374.001V61.7627C374.001 67.4445 371.721 72.8935 367.663 76.9112C363.605 80.9289 358.101 83.1859 352.361 83.1859H157.482L146.49 93.0619H113.464L102.464 83.1859C102.464 83.1859 56.0789 83.1859 27.6384 83.1859C21.8992 83.1859 16.3952 80.9289 12.3369 76.9112C8.27882 72.8935 5.9988 67.4445 5.9988 61.7627V60.7148H0V64.3981C0 70.9607 2.63347 77.2549 7.32094 81.8955C12.0084 86.5361 18.3659 89.143 24.9951 89.143C54.6088 89.143 99.9791 89.143 99.9791 89.143L110.979 99.0192H148.975L159.967 89.143H355.005C368.809 89.143 380 78.0647 380 64.3986C380 62.1599 380 60.7148 380 60.7148Z" fill="#CD5ACF"/>
<path fill-rule="evenodd" clip-rule="evenodd" d="M0 60.6759H5.9988V36.2733C5.9988 36.2733 22.3489 5.9571 99.9568 5.9571C152.659 5.9571 179.016 21.3971 190.152 30.7576C195.519 35.2727 202.319 37.7758 209.362 37.8295C242.066 38.0946 311.052 38.7721 352.363 39.0869C364.34 39.1781 374.001 48.8163 374.001 60.674V60.6759H380V58.0398C380 44.3734 368.809 33.2946 355.005 33.2946C311.317 33.2946 242.652 33.2946 211.283 33.2946C204.877 33.2944 198.716 30.8595 194.071 26.4923C183.679 16.7375 157.439 0 99.9798 0C18.9394 0 0.000719856 33.2946 0.000719856 33.2946L0 60.6759Z" fill="#FDACFF"/>
</svg>
