<svg width="180" height="80" viewBox="0 0 180 80" fill="none" xmlns="http://www.w3.org/2000/svg">
<g clip-path="url(#clip0)">
<path d="M46.5366 60.0018H44.8398V61.1362H46.732V61.7506H44.0742V57.7737H46.6368V58.3881H44.8398V59.3864H46.5366V60.0018Z" fill="#4D4D4D"/>
<path d="M47.709 57.8264C48.1463 57.7654 48.5875 57.735 49.0292 57.7356C49.8766 57.7356 50.4505 57.9049 50.8623 58.2384C51.2741 58.561 51.5235 59.0194 51.5235 59.6537C51.5235 60.3194 51.2686 60.8436 50.8655 61.202C50.418 61.5891 49.7023 61.7892 48.8347 61.7892C48.4587 61.7931 48.0827 61.7745 47.709 61.7334V57.8264ZM48.4736 61.1784C48.637 61.197 48.8016 61.2043 48.966 61.2002C50.0894 61.207 50.7108 60.6303 50.7108 59.6919C50.7159 58.8229 50.1224 58.3219 49.079 58.3219C48.8761 58.319 48.6733 58.3357 48.4736 58.3718V61.1784Z" fill="#4D4D4D"/>
<path d="M53.37 58.3949H52.0828V57.7737H55.4351V58.3949H54.1351V61.7497H53.37V58.3949Z" fill="#4D4D4D"/>
<path d="M56.7102 60.5254C56.734 61.0055 57.1755 61.2515 57.6876 61.2515C57.9913 61.2578 58.2937 61.2092 58.5799 61.1081L58.6948 61.6231C58.3422 61.7609 57.9658 61.8283 57.5869 61.8215C56.5802 61.8215 55.9812 61.2315 55.9812 60.3553C55.9812 59.6151 56.4745 58.8079 57.5105 58.8079C58.563 58.8079 58.8691 59.6492 58.8691 60.2318C58.8706 60.3308 58.8609 60.4295 58.8403 60.5263L56.7102 60.5254ZM58.1456 59.9995C58.1484 59.7989 58.0436 59.3116 57.4647 59.3116C56.9554 59.3116 56.7468 59.72 56.7079 59.9995H58.1456Z" fill="#4D4D4D"/>
<path d="M62.1214 61.6544C61.9489 61.7334 61.6075 61.8205 61.1943 61.8205C60.2128 61.8205 59.585 61.2188 59.585 60.3448C59.585 59.4826 60.2151 58.8069 61.3174 58.8069C61.5923 58.8055 61.8651 58.8554 62.1214 58.9539L61.9805 59.5153C61.8432 59.4477 61.6455 59.3868 61.3444 59.3868C60.7372 59.3868 60.3675 59.7803 60.3707 60.3062C60.3707 60.8961 60.8113 61.2269 61.3476 61.2269C61.5753 61.2288 61.8009 61.1851 62.0111 61.0985L62.1214 61.6544Z" fill="#4D4D4D"/>
<path d="M63.0371 57.5256H63.8031V59.2986H63.815C63.9174 59.1484 64.056 59.026 64.2182 58.9423C64.383 58.8533 64.5677 58.8066 64.7554 58.8062C65.2587 58.8062 65.8678 59.1121 65.8678 60.099V61.749H65.1018V60.198C65.1018 59.7469 64.9215 59.4193 64.4712 59.4193C64.3349 59.42 64.2019 59.4607 64.089 59.5363C63.976 59.6119 63.8882 59.7189 63.8365 59.844C63.8099 59.9142 63.7984 59.9892 63.8027 60.0641V61.749H63.0371V57.5256Z" fill="#4D4D4D"/>
<path d="M72.1176 61.7495V59.4466H71.7195V58.8775H72.1162V58.7618C72.1162 58.372 72.2311 57.9754 72.4919 57.7385C72.7207 57.5298 73.0268 57.4549 73.2886 57.4549C73.4515 57.4533 73.6136 57.4778 73.7686 57.5275L73.7274 58.1074C73.6203 58.0693 73.5071 58.0507 73.3934 58.0525C73.0067 58.0525 72.8749 58.3616 72.8749 58.7291V58.8775H73.5499V59.4466H72.8832V61.7495H72.1176Z" fill="#4D4D4D"/>
<path d="M77.3783 60.2778C77.3783 61.2998 76.5825 61.8207 75.7419 61.8207C74.8574 61.8207 74.1541 61.2448 74.1541 60.34C74.1541 59.4352 74.8171 58.8071 75.8014 58.8071C76.7473 58.8067 77.3783 59.4329 77.3783 60.2778ZM74.9466 60.3187C74.9466 60.8941 75.2898 61.2789 75.7666 61.2789C76.221 61.2789 76.5857 60.9317 76.5857 60.306C76.5857 59.8427 76.3414 59.348 75.7767 59.348C75.2047 59.348 74.9466 59.8191 74.9466 60.3187Z" fill="#4D4D4D"/>
<path d="M78.3199 59.8392C78.3199 59.4149 78.314 59.1372 78.2961 58.8776H78.9565L78.9821 59.4607H79.0031C79.156 59.0187 79.5266 58.8068 79.8643 58.8068C79.9259 58.8047 79.9874 58.8106 80.0474 58.8245V59.5265C79.9684 59.5089 79.8876 59.5004 79.8067 59.5011C79.4145 59.5011 79.166 59.7344 79.1006 60.0692C79.0896 60.1354 79.0843 60.2023 79.0846 60.2694V61.7496H78.3199V59.8392Z" fill="#4D4D4D"/>
<path d="M85.917 61.7494C85.9316 61.5629 85.9408 61.248 85.9408 60.9326V57.5256H86.7063V59.3004H86.7182C86.9068 59.0068 87.2623 58.8067 87.7488 58.8067C88.5198 58.8067 89.0959 59.3875 89.0891 60.2719C89.0891 61.3084 88.3482 61.8202 87.6403 61.8202C87.2321 61.8202 86.8468 61.6759 86.6139 61.2916H86.602L86.5709 61.7494H85.917ZM86.7063 60.5052C86.7061 60.5615 86.7114 60.6178 86.7224 60.6731C86.7684 60.8343 86.8666 60.976 87.0019 61.0764C87.1372 61.1768 87.302 61.2302 87.471 61.2285C87.9798 61.2285 88.3102 60.8786 88.3102 60.2973C88.3102 59.8009 88.0242 59.3816 87.4829 59.3816C87.3096 59.3804 87.1409 59.4373 87.0043 59.5431C86.8677 59.6488 86.7711 59.7972 86.7301 59.9643C86.7145 60.026 86.7065 60.0894 86.7063 60.153V60.5052Z" fill="#4D4D4D"/>
<path d="M90.5524 60.5254C90.5762 61.0055 91.0174 61.2515 91.5299 61.2515C91.8336 61.2578 92.136 61.2092 92.4222 61.1081L92.537 61.6231C92.1845 61.7609 91.808 61.8283 91.4292 61.8214C90.4225 61.8214 89.8235 61.2315 89.8235 60.3553C89.8235 59.6151 90.3168 58.8079 91.3528 58.8079C92.4053 58.8079 92.7109 59.6492 92.7109 60.2318C92.7126 60.3308 92.703 60.4296 92.6821 60.5263L90.5524 60.5254ZM91.9879 59.9995C91.9907 59.7989 91.8859 59.3116 91.307 59.3116C90.7977 59.3116 90.589 59.72 90.5497 59.9995H91.9879Z" fill="#4D4D4D"/>
<path d="M94.5024 58.0374V58.8778H95.2441V59.4468H94.5024V60.6402C94.5024 60.9915 94.5825 61.2002 94.9032 61.2002C95.0089 61.2023 95.1143 61.1901 95.2167 61.1639L95.2322 61.737C95.0476 61.797 94.854 61.8252 94.6598 61.8205C94.3697 61.8205 94.1308 61.7162 93.9917 61.5646C93.8288 61.3917 93.7574 61.1108 93.7574 60.7478V59.4454H93.3218V58.8778H93.7574V58.2134L94.5024 58.0374Z" fill="#4D4D4D"/>
<path d="M97.0187 58.0374V58.8778H97.7605V59.4468H97.0187V60.6402C97.0187 60.9915 97.0988 61.2002 97.4191 61.2002C97.525 61.2023 97.6306 61.1901 97.7331 61.1639L97.7486 61.737C97.564 61.797 97.3704 61.8252 97.1762 61.8205C96.886 61.8205 96.6472 61.7162 96.5081 61.5646C96.3452 61.3917 96.2738 61.1108 96.2738 60.7478V59.4454H95.8381V58.8778H96.2738V58.2134L97.0187 58.0374Z" fill="#4D4D4D"/>
<path d="M99.1901 60.5254C99.2134 61.0055 99.655 61.2515 100.167 61.2515C100.471 61.2578 100.773 61.2092 101.06 61.1081L101.174 61.6231C100.822 61.7609 100.445 61.8283 100.066 61.8215C99.0597 61.8215 98.4607 61.2315 98.4607 60.3553C98.4607 59.6151 98.9544 58.8079 99.99 58.8079C101.042 58.8079 101.349 59.6492 101.349 60.2318C101.35 60.3308 101.34 60.4295 101.32 60.5263L99.1901 60.5254ZM100.626 59.9995C100.626 59.7989 100.524 59.3116 99.9442 59.3116C99.4354 59.3116 99.2267 59.72 99.1874 59.9995H100.626Z" fill="#4D4D4D"/>
<path d="M102.276 59.8392C102.276 59.4149 102.27 59.1372 102.252 58.8776H102.913L102.938 59.4607H102.959C103.112 59.0187 103.482 58.8068 103.82 58.8068C103.881 58.8047 103.943 58.8107 104.003 58.8245V59.5265C103.924 59.5089 103.843 59.5003 103.762 59.5011C103.37 59.5011 103.121 59.7343 103.056 60.0692C103.045 60.1354 103.04 60.2023 103.04 60.2693V61.7496H102.275L102.276 59.8392Z" fill="#4D4D4D"/>
<path d="M109.897 57.5256H110.661V61.7495H109.897V57.5256Z" fill="#4D4D4D"/>
<path d="M112.337 60.5254C112.361 61.0055 112.802 61.2515 113.315 61.2515C113.618 61.2578 113.921 61.2092 114.207 61.1081L114.321 61.6231C113.969 61.7609 113.592 61.8283 113.214 61.8215C112.207 61.8215 111.608 61.2315 111.608 60.3553C111.608 59.6151 112.102 58.8079 113.138 58.8079C114.19 58.8079 114.496 59.6492 114.496 60.2318C114.498 60.3308 114.488 60.4296 114.467 60.5263L112.337 60.5254ZM113.773 59.9995C113.773 59.7989 113.671 59.3116 113.091 59.3116C112.583 59.3116 112.374 59.72 112.335 59.9995H113.773Z" fill="#4D4D4D"/>
<path d="M117.185 61.7497L117.131 61.4207H117.113C116.927 61.6476 116.595 61.8205 116.18 61.8205C115.535 61.8205 115.205 61.3804 115.205 60.9647C115.205 60.2441 115.864 59.8588 117.068 59.8665V59.8284C117.068 59.6769 117.006 59.3293 116.427 59.3293C116.125 59.3317 115.829 59.4119 115.568 59.5621L115.416 59.077C115.66 58.9308 116.056 58.8047 116.549 58.8047C117.539 58.8047 117.83 59.4105 117.83 60.0467V61.045C117.826 61.2808 117.841 61.5165 117.876 61.7497H117.185ZM117.086 60.3534C116.48 60.3435 115.97 60.4646 115.97 60.8812C115.97 61.148 116.16 61.2855 116.422 61.2855C116.559 61.2883 116.694 61.2496 116.809 61.1745C116.923 61.0994 117.012 60.9916 117.063 60.8653C117.078 60.8127 117.086 60.7581 117.085 60.7033L117.086 60.3534Z" fill="#4D4D4D"/>
<path d="M118.963 59.8389C118.963 59.4146 118.957 59.1369 118.939 58.8774H119.6L119.625 59.4605H119.646C119.799 59.0185 120.169 58.8066 120.507 58.8066C120.568 58.8045 120.63 58.8104 120.69 58.8243V59.5263C120.611 59.5086 120.53 59.5001 120.449 59.5009C120.057 59.5009 119.808 59.7341 119.743 60.069C119.732 60.1351 119.727 60.2021 119.727 60.2691V61.7494H118.962L118.963 59.8389Z" fill="#4D4D4D"/>
<path d="M121.544 59.7467C121.544 59.4127 121.535 59.1245 121.521 58.8777H122.193L122.23 59.3401H122.249C122.374 59.1195 122.711 58.8069 123.251 58.8069C123.764 58.8069 124.377 59.1127 124.377 60.102V61.7497H123.611V60.1964C123.611 59.7426 123.428 59.4172 122.987 59.4172C122.847 59.4187 122.71 59.4627 122.596 59.5433C122.481 59.6239 122.394 59.7373 122.346 59.8683C122.322 59.9391 122.311 60.0136 122.312 60.0884V61.7497H121.547L121.544 59.7467Z" fill="#4D4D4D"/>
<path d="M126.335 58.0566C126.335 58.2735 126.172 58.4578 125.896 58.4578C125.633 58.4578 125.47 58.2735 125.47 58.0566C125.47 57.8397 125.638 57.655 125.904 57.655C126.169 57.655 126.332 57.8334 126.335 58.0566ZM125.518 61.7495V58.8775H126.284V61.7495H125.518Z" fill="#4D4D4D"/>
<path d="M127.439 59.7467C127.439 59.4127 127.43 59.1245 127.416 58.8777H128.085L128.123 59.3401H128.141C128.267 59.1195 128.603 58.8069 129.144 58.8069C129.656 58.8069 130.27 59.1127 130.27 60.102V61.7497H129.504V60.1964C129.504 59.7426 129.321 59.4172 128.88 59.4172C128.74 59.4187 128.603 59.4627 128.489 59.5433C128.374 59.6239 128.287 59.7373 128.24 59.8683C128.215 59.9391 128.204 60.0136 128.205 60.0884V61.7497H127.44L127.439 59.7467Z" fill="#4D4D4D"/>
<path d="M134.283 58.8775C134.269 59.059 134.259 59.2813 134.259 59.6757V61.3093C134.259 61.8856 134.131 62.353 133.795 62.6407C133.46 62.9284 132.995 63.0037 132.589 63.0037C132.183 63.0037 131.744 62.913 131.474 62.7464L131.642 62.1706C131.928 62.337 132.254 62.4248 132.586 62.4251C133.094 62.4251 133.507 62.1737 133.507 61.5271V61.2757H133.495C133.309 61.543 132.985 61.7331 132.549 61.7331C131.788 61.7331 131.203 61.1604 131.203 60.3323C131.203 59.4025 131.875 58.8103 132.635 58.8103C133.138 58.8103 133.428 59.0372 133.579 59.2886H133.591L133.616 58.8802L134.283 58.8775ZM133.495 60.0732C133.497 60.0089 133.49 59.9446 133.474 59.8821C133.435 59.7317 133.346 59.5989 133.22 59.5056C133.095 59.4123 132.941 59.3639 132.785 59.3685C132.344 59.3685 131.984 59.7024 131.984 60.3032C131.984 60.7452 132.253 61.1745 132.783 61.1745C132.934 61.1747 133.081 61.1277 133.203 61.0402C133.325 60.9527 133.416 60.8291 133.463 60.6871C133.485 60.6024 133.496 60.5151 133.495 60.4276V60.0732Z" fill="#4D4D4D"/>
<path d="M39.1388 55.9481C40.1912 55.8002 41.2437 55.6622 42.3003 55.5279C43.3569 55.3936 44.4098 55.2688 45.4655 55.1458C47.5766 54.8987 49.6895 54.6668 51.8042 54.4502C56.0339 54.02 60.2694 53.6509 64.5107 53.343C68.7521 53.035 72.9978 52.7951 77.248 52.6233C79.3725 52.5404 81.4982 52.4771 83.6251 52.4336C85.752 52.39 87.8792 52.3691 90.0067 52.371C94.2624 52.3855 98.5153 52.5125 102.764 52.7072C104.888 52.807 107.011 52.9222 109.133 53.0525C111.255 53.1829 113.376 53.328 115.496 53.4877C117.615 53.6484 119.734 53.8191 121.852 54C123.97 54.1809 126.086 54.3755 128.201 54.5836C130.317 54.7917 132.431 55.0099 134.543 55.238C135.6 55.3526 136.656 55.4698 137.712 55.5896C138.768 55.7094 139.823 55.8354 140.877 55.9676C140.914 55.9724 140.947 55.9911 140.969 56.0198C140.992 56.0485 141.002 56.0848 140.998 56.121C140.994 56.1571 140.976 56.1902 140.947 56.2132C140.919 56.2361 140.882 56.247 140.846 56.2435C136.621 55.8064 132.392 55.408 128.158 55.0483C123.926 54.6825 119.691 54.3552 115.454 54.0663C113.335 53.9241 111.216 53.7922 109.096 53.6706C106.976 53.549 104.856 53.4431 102.735 53.3529C100.614 53.2676 98.4933 53.1841 96.3715 53.1333C95.8411 53.117 95.3103 53.1093 94.7799 53.0975C94.2496 53.0857 93.7192 53.0743 93.1889 53.0698L91.5973 53.0503L90.0063 53.0439C89.4759 53.0403 88.9451 53.0439 88.4147 53.0439C87.8844 53.0439 87.3536 53.0439 86.8232 53.0525C85.7621 53.0648 84.7009 53.0748 83.6402 53.0979C82.5795 53.1211 81.5178 53.146 80.4571 53.1737C79.9268 53.1873 79.3964 53.2073 78.8661 53.2241L77.275 53.2794L75.6839 53.3398L74.0933 53.4088L73.298 53.4437L72.5027 53.4832L70.9125 53.563C69.8527 53.6211 68.7925 53.6779 67.7331 53.7446C66.6738 53.8113 65.614 53.8748 64.5547 53.9424C62.436 54.0822 60.3182 54.2365 58.2014 54.4053C56.0845 54.5741 53.9689 54.7541 51.8545 54.9453C47.6245 55.3258 43.4011 55.7659 39.1845 56.2653C39.1635 56.268 39.1421 56.2666 39.1216 56.2611C39.1012 56.2557 39.082 56.2462 39.0652 56.2334C39.0484 56.2206 39.0343 56.2046 39.0237 56.1864C39.0131 56.1681 39.0063 56.148 39.0035 56.1271C39.0008 56.1063 39.0022 56.0851 39.0078 56.0648C39.0133 56.0445 39.0228 56.0255 39.0357 56.0088C39.0487 55.9921 39.0648 55.9782 39.0832 55.9677C39.1016 55.9572 39.1219 55.9504 39.1429 55.9477L39.1388 55.9481Z" fill="#FFA300"/>
<path d="M132.207 46.4192V48.8211H117.063V26.804H120.169C119.886 27.1933 119.735 27.6612 119.736 28.1411C119.737 28.621 119.891 29.0883 120.176 29.4763C120.46 29.8643 120.861 30.1533 121.322 30.3019C121.782 30.4505 122.277 30.4513 122.738 30.304V44.2034H129.652C129.484 44.5477 129.434 44.9373 129.511 45.3121C129.588 45.687 129.787 46.0264 130.077 46.2783C130.368 46.5301 130.734 46.6805 131.118 46.7062C131.503 46.7319 131.886 46.6315 132.208 46.4205L132.207 46.4192Z" fill="url(#paint0_linear)"/>
<g style="mix-blend-mode:multiply" opacity="0.2">
<path d="M132.207 46.4192V48.8211H117.063V26.804H120.169C119.886 27.1933 119.735 27.6612 119.736 28.1411C119.737 28.621 119.891 29.0883 120.176 29.4763C120.46 29.8643 120.861 30.1533 121.322 30.3019C121.782 30.4505 122.277 30.4513 122.738 30.304V44.2034H129.652C129.484 44.5477 129.434 44.9373 129.511 45.3121C129.588 45.687 129.787 46.0264 130.077 46.2783C130.368 46.5301 130.734 46.6805 131.118 46.7062C131.503 46.7319 131.886 46.6315 132.208 46.4205L132.207 46.4192Z" fill="#FFA300"/>
</g>
<path d="M111.943 32.5448V40.7224C111.943 45.68 108.117 49.1904 102.28 49.1904C96.3766 49.1904 92.5515 45.68 92.5515 40.7224V26.804H98.2257V40.7224C98.2257 43.0321 99.8145 44.2619 102.247 44.2619C104.679 44.2619 106.268 43.0303 106.268 40.7224V26.804H111.942V29.6297C111.879 29.6213 111.815 29.617 111.751 29.617C111.358 29.617 110.981 29.7719 110.703 30.0476C110.425 30.3233 110.268 30.6973 110.268 31.0872C110.268 31.4771 110.425 31.8511 110.703 32.1268C110.981 32.4026 111.358 32.5575 111.751 32.5575C111.815 32.5574 111.879 32.5532 111.943 32.5448Z" fill="url(#paint1_linear)"/>
<path d="M86.15 30.2603C85.755 30.5518 85.2759 30.7098 84.7835 30.7109C84.2911 30.712 83.8114 30.5561 83.415 30.2664C83.0186 29.9766 82.7266 29.5683 82.582 29.1015C82.4374 28.6347 82.4479 28.1342 82.6119 27.6737C80.9339 26.8791 78.9968 26.4326 76.8919 26.4326C69.8893 26.434 64.7642 31.3612 64.7642 37.6737C64.7642 40.401 65.6757 42.8764 67.2553 44.8276H67.2709C67.503 44.8238 67.7336 44.8653 67.9495 44.95C68.1654 45.0346 68.3624 45.1605 68.5292 45.3207C68.6959 45.4808 68.8292 45.672 68.9214 45.8833C69.0136 46.0946 69.0629 46.3218 69.0665 46.552C69.0665 46.5711 69.0665 46.5901 69.0665 46.6092C71.1376 48.2305 73.8361 49.1926 76.8914 49.1926C83.8954 49.1926 89.0178 44.1424 89.0178 37.676C89.0169 34.8058 87.9612 32.2233 86.15 30.2603ZM76.8905 44.2636C73.4206 44.2636 70.6319 41.4306 70.6319 37.6737C70.6329 34.0707 73.4215 31.3612 76.8905 31.3612C80.3596 31.3612 83.1486 34.0707 83.1486 37.6737C83.1496 41.4306 80.3605 44.2636 76.8905 44.2636Z" fill="url(#paint2_linear)"/>
<path d="M60.9854 38.5236C61.8782 39.4765 62.4634 40.7076 62.4634 42.3549C62.4634 46.0192 59.5124 49.1907 54.2916 49.1907C48.8462 49.1907 45.8284 46.05 45.8284 46.05L48.8119 41.9542C48.8119 41.9542 51.4385 44.2331 54.3571 44.2331C55.524 44.2331 56.7888 43.802 56.7888 42.4778C56.7888 39.8604 46.3473 39.953 46.3473 33.1785C46.3473 32.0186 46.6406 30.9717 47.1664 30.0678C47.5709 30.2522 48.0207 30.3161 48.4612 30.2517C48.9016 30.1873 49.3137 29.9974 49.6473 29.7051C49.981 29.4128 50.2218 29.0307 50.3405 28.6052C50.4592 28.1797 50.4507 27.7291 50.316 27.3083C51.5451 26.7429 52.9902 26.4343 54.5511 26.4343C59.5453 26.4343 62.01 28.9301 62.01 28.9301L59.6099 33.3318C59.6099 33.3318 57.2761 31.3919 54.4848 31.3919C53.3174 31.3919 52.0201 31.8843 52.0201 33.1163C52.0201 34.7345 55.5798 35.24 58.5423 36.7656C58.3294 37.0874 58.2496 37.4782 58.3196 37.8568C58.3895 38.2353 58.6037 38.5727 58.9178 38.7988C59.2319 39.0249 59.6217 39.1224 60.0063 39.0711C60.391 39.0198 60.7409 38.8235 60.9836 38.5231L60.9854 38.5236Z" fill="url(#paint3_linear)"/>
<g style="mix-blend-mode:multiply" opacity="0.2">
<path d="M56.7888 42.479C56.7888 43.8031 55.524 44.2342 54.3571 44.2342C51.4385 44.2342 48.8119 41.9553 48.8119 41.9553L45.8284 46.0512C45.8284 46.0512 48.8444 49.1918 54.2939 49.1918C59.5147 49.1918 62.4657 46.0199 62.4657 42.356C62.4657 40.7088 61.8805 39.479 60.9877 38.5247C60.7451 38.8251 60.3951 39.0214 60.0105 39.0727C59.6258 39.124 59.236 39.0265 58.9219 38.8004C58.6078 38.5743 58.3936 38.237 58.3237 37.8584C58.2538 37.4798 58.3335 37.089 58.5464 36.7672C57.8709 36.4265 57.1775 36.1216 56.4694 35.8538C53.7531 36.3983 51.147 37.0282 48.6687 37.7311C51.7456 40.1484 56.7888 40.6584 56.7888 42.479Z" fill="#CCCCCC"/>
</g>
<g style="mix-blend-mode:multiply" opacity="0.2">
<path d="M81.5091 33.3622C82.5286 34.4735 83.1496 35.9742 83.1496 37.6731C83.1496 41.43 80.3605 44.263 76.8914 44.263C73.4224 44.263 70.6329 41.4305 70.6329 37.6736C70.6329 36.1684 71.1198 34.8193 71.9398 33.7579C69.6606 33.9294 67.4276 34.1531 65.2405 34.429C64.9223 35.4816 64.7618 36.5748 64.7642 37.6736C64.7642 40.4008 65.6757 42.8762 67.2553 44.8275H67.2709C67.503 44.8237 67.7336 44.8652 67.9495 44.9498C68.1654 45.0344 68.3624 45.1604 68.5292 45.3206C68.6959 45.4807 68.8292 45.6719 68.9214 45.8832C69.0136 46.0945 69.0629 46.3217 69.0665 46.5519C69.0665 46.5709 69.0665 46.59 69.0665 46.609C71.1376 48.2304 73.8361 49.1924 76.8914 49.1924C83.8954 49.1924 89.0178 44.1423 89.0178 37.6759C89.0227 36.231 88.7429 34.7991 88.1941 33.4607C86.3967 33.392 84.5776 33.3577 82.7368 33.3577C82.3268 33.3577 81.9176 33.3592 81.5091 33.3622Z" fill="#CCCCCC"/>
</g>
<path d="M47.1663 30.0673C46.6405 30.9713 46.3472 32.0186 46.3472 33.178C46.3472 37.5729 50.7401 39.0772 53.8289 40.3074C54.0928 39.338 54.2269 38.3383 54.2279 37.3342C54.2273 36.5101 54.1364 35.6884 53.9566 34.8838C52.8126 34.3923 52.0218 33.8768 52.0218 33.114C52.0218 32.496 52.3486 32.064 52.8217 31.7872C52.2058 30.5919 51.3936 29.4275 50.4024 28.3003C50.3543 28.6532 50.2235 28.9901 50.0204 29.2838C49.8172 29.5775 49.5475 29.8198 49.2328 29.9915C48.9181 30.1631 48.5673 30.2591 48.2084 30.2719C47.8495 30.2847 47.4926 30.2138 47.1663 30.0651V30.0673Z" fill="url(#paint4_linear)"/>
<path d="M48.8119 41.9536L45.8284 46.0495C45.8284 46.0495 46.858 47.1208 48.7996 48.0121C50.2181 46.6893 51.3777 45.3066 52.2576 43.8758C50.2886 43.2346 48.8119 41.9536 48.8119 41.9536Z" fill="url(#paint5_linear)"/>
<g style="mix-blend-mode:multiply" opacity="0.2">
<path d="M117.063 37.8052V48.8212H132.207V46.4193C131.885 46.6295 131.503 46.7293 131.119 46.7034C130.734 46.6774 130.369 46.5272 130.079 46.2757C129.789 46.0242 129.59 45.6854 129.513 45.3111C129.436 44.9368 129.485 44.5477 129.652 44.2035H122.738V39.6457C120.935 38.9871 119.043 38.3736 117.063 37.8052Z" fill="#CCCCCC"/>
</g>
<g style="mix-blend-mode:multiply" opacity="0.2">
<path d="M106.268 35.3384V40.7221C106.268 43.0318 104.679 44.2616 102.247 44.2616C99.8152 44.2616 98.2265 43.03 98.2265 40.7221V34.1926C96.3677 33.9881 94.4763 33.8199 92.5522 33.688V40.7216C92.5522 45.6792 96.3791 49.1897 102.28 49.1897C108.117 49.1897 111.943 45.6792 111.943 40.7216V36.486C110.106 36.0643 108.214 35.6818 106.268 35.3384Z" fill="#CCCCCC"/>
</g>
<g style="mix-blend-mode:multiply" opacity="0.2">
<path d="M106.268 30.7287V40.7224C106.268 43.0321 104.68 44.2619 102.248 44.2619H102.185C102.715 45.8778 103.598 47.4461 104.8 48.9522C109.192 48.0864 111.943 44.9244 111.943 40.7215V32.5448C111.879 32.5532 111.816 32.5574 111.752 32.5575C111.359 32.5575 110.981 32.4026 110.703 32.1268C110.425 31.8511 110.269 31.4771 110.269 31.0872C110.269 30.6973 110.425 30.3233 110.703 30.0476C110.981 29.7719 111.359 29.617 111.752 29.617C111.816 29.617 111.879 29.6213 111.943 29.6297V26.804H111.097C109.235 28.0446 107.617 29.3569 106.268 30.7287Z" fill="#FFA300"/>
</g>
<path d="M59.252 18.6686H56.6071V19.6288H59.0378V21.1717H56.6071V22.3647H59.344V23.9076H54.7886V17.1167H59.2515L59.252 18.6686Z" fill="url(#paint6_linear)"/>
<path d="M64.6344 23.9067H61.9382V17.1167H64.6344C69.2918 17.1358 69.2918 23.8871 64.6344 23.9067ZM63.765 22.3252H64.6344C66.9119 22.3252 66.9119 18.6977 64.6344 18.6977H63.765V22.3252Z" fill="url(#paint7_linear)"/>
<path d="M74.3876 21.6173V17.1167H76.1342V21.6464C76.1342 23.1402 74.7761 24.0033 73.3054 24.0033C71.8447 24.0033 70.4683 23.1411 70.4683 21.6464V17.1167H72.2145V21.6173C72.2145 22.17 72.7764 22.4418 73.3077 22.4418C73.8389 22.4418 74.3876 22.17 74.3876 21.6173Z" fill="url(#paint8_linear)"/>
<path d="M82.1699 17.0388C83.6507 17.0388 85.2541 17.8048 85.5301 19.619H83.7326C83.4773 18.9302 82.9359 18.6207 82.1699 18.6207C81.0973 18.6207 80.3926 19.3871 80.3926 20.5121C80.3926 21.5104 81.0872 22.3844 82.1699 22.3939C82.9478 22.3939 83.5692 22.0254 83.7633 21.298H85.5607C85.2953 23.2184 83.6919 23.9753 82.1699 23.9753C80.3519 23.9853 78.5132 22.8214 78.5032 20.5125C78.5132 18.201 80.3519 17.0388 82.1699 17.0388Z" fill="url(#paint9_linear)"/>
<path d="M92.1071 23.0528H89.2883L88.8691 23.9063H87.0845V23.654L90.3014 17.0288H91.088L94.3155 23.654V23.9063H92.5281L92.1071 23.0528ZM90.6885 19.7855L89.8818 21.5703H91.5159L90.6885 19.7855Z" fill="url(#paint10_linear)"/>
<path d="M95.0886 18.6686V17.1167H100.4V18.6686H98.6533V23.9067H96.8453V18.6686H95.0886Z" fill="url(#paint11_linear)"/>
<path d="M105.588 22.3838V23.9067H101.962V22.3838H102.871V18.6296H102.034V17.1167H105.517V18.6296H104.679V22.3838H105.588Z" fill="url(#paint12_linear)"/>
<path d="M107.367 20.5208C107.367 15.8264 114.7 15.8264 114.7 20.5208C114.698 25.2256 107.367 25.2256 107.367 20.5208ZM112.831 20.5208C112.831 18.0767 109.246 18.0767 109.246 20.5208C109.243 22.9848 112.829 22.9848 112.829 20.5208H112.831Z" fill="url(#paint13_linear)"/>
<path d="M118.99 20.5692V23.9064H117.1V17.0869H117.764L121.379 20.4449V17.1164H123.245V23.9159H122.592L118.99 20.5692Z" fill="url(#paint14_linear)"/>
<path d="M109.925 34.0353C110.559 34.0353 111.072 33.5259 111.072 32.8976C111.072 32.2693 110.559 31.76 109.925 31.76C109.291 31.76 108.778 32.2693 108.778 32.8976C108.778 33.5259 109.291 34.0353 109.925 34.0353Z" fill="#FFA300"/>
<path d="M131.194 44.2935C131.807 44.2935 132.304 43.8007 132.304 43.1927C132.304 42.5847 131.807 42.0918 131.194 42.0918C130.581 42.0918 130.083 42.5847 130.083 43.1927C130.083 43.8007 130.581 44.2935 131.194 44.2935Z" fill="#FFA300"/>
<path d="M79.8698 37.8658C81.0948 37.8658 82.0878 36.881 82.0878 35.6663C82.0878 34.4515 81.0948 33.4668 79.8698 33.4668C78.6449 33.4668 77.6519 34.4515 77.6519 35.6663C77.6519 36.881 78.6449 37.8658 79.8698 37.8658Z" fill="#FFA300"/>
<path d="M112.969 31.6207C113.603 31.6207 114.116 31.1114 114.116 30.4831C114.116 29.8548 113.603 29.3455 112.969 29.3455C112.335 29.3455 111.822 29.8548 111.822 30.4831C111.822 31.1114 112.335 31.6207 112.969 31.6207Z" fill="#FFA300"/>
<path d="M122.406 28.6676C123.209 28.6676 123.859 28.0223 123.859 27.2264C123.859 26.4304 123.209 25.7852 122.406 25.7852C121.603 25.7852 120.953 26.4304 120.953 27.2264C120.953 28.0223 121.603 28.6676 122.406 28.6676Z" fill="#FFA300"/>
<path opacity="0.5" d="M125.448 29.2679C125.914 29.2679 126.291 28.8937 126.291 28.4321C126.291 27.9704 125.914 27.5962 125.448 27.5962C124.983 27.5962 124.605 27.9704 124.605 28.4321C124.605 28.8937 124.983 29.2679 125.448 29.2679Z" fill="#FFA300"/>
<path opacity="0.15" d="M127.442 27.5042C127.795 27.4476 128.035 27.1179 127.978 26.7679C127.921 26.4178 127.589 26.1798 127.236 26.2364C126.883 26.293 126.643 26.6227 126.7 26.9728C126.757 27.3228 127.089 27.5608 127.442 27.5042Z" fill="#FFA300"/>
<path d="M129.41 30.9334C130.156 30.7588 130.617 30.0178 130.441 29.2783C130.265 28.5387 129.518 28.0807 128.772 28.2552C128.027 28.4298 127.565 29.1708 127.741 29.9104C127.917 30.6499 128.664 31.108 129.41 30.9334Z" fill="#FFA300"/>
<path opacity="0.5" d="M130.134 26.8225C131.026 26.8225 131.748 26.1057 131.748 25.2216C131.748 24.3374 131.026 23.6206 130.134 23.6206C129.242 23.6206 128.52 24.3374 128.52 25.2216C128.52 26.1057 129.242 26.8225 130.134 26.8225Z" fill="#FFA300"/>
<path opacity="0.15" d="M133.668 30.4292C134.342 30.3207 134.8 29.6909 134.69 29.0224C134.581 28.354 133.946 27.9001 133.272 28.0086C132.598 28.1171 132.14 28.7469 132.249 29.4154C132.359 30.0838 132.994 30.5377 133.668 30.4292Z" fill="#FFA300"/>
<path opacity="0.6" d="M44.4528 29.2679C44.9183 29.2679 45.2957 28.8937 45.2957 28.4321C45.2957 27.9704 44.9183 27.5962 44.4528 27.5962C43.9872 27.5962 43.6099 27.9704 43.6099 28.4321C43.6099 28.8937 43.9872 29.2679 44.4528 29.2679Z" fill="#F15A24"/>
<path opacity="0.15" d="M46.1608 26.4215C46.2973 26.0948 46.1408 25.7202 45.8114 25.5849C45.4819 25.4496 45.1043 25.6047 44.9678 25.9314C44.8313 26.2581 44.9878 26.6327 45.3172 26.768C45.6467 26.9033 46.0244 26.7482 46.1608 26.4215Z" fill="#FFA300"/>
<path opacity="0.94" d="M59.9205 38.189C60.3926 38.189 60.7753 37.8095 60.7753 37.3413C60.7753 36.8732 60.3926 36.4937 59.9205 36.4937C59.4484 36.4937 59.0657 36.8732 59.0657 37.3413C59.0657 37.8095 59.4484 38.189 59.9205 38.189Z" fill="#F7931E"/>
<path opacity="0.94" d="M48.4091 29.191C49.0737 29.0354 49.4853 28.375 49.3285 27.716C49.1716 27.0569 48.5057 26.6487 47.8411 26.8043C47.1765 26.9598 46.7649 27.6202 46.9217 28.2793C47.0786 28.9383 47.7445 29.3465 48.4091 29.191Z" fill="#F15A24"/>
<path opacity="0.6" d="M84.7787 29.6583C85.4615 29.6583 86.0151 29.1093 86.0151 28.4322C86.0151 27.755 85.4615 27.2061 84.7787 27.2061C84.0958 27.2061 83.5422 27.755 83.5422 28.4322C83.5422 29.1093 84.0958 29.6583 84.7787 29.6583Z" fill="#FBB03B"/>
<path opacity="0.9" d="M87.5502 29.0531C88.0615 29.0531 88.476 28.642 88.476 28.135C88.476 27.628 88.0615 27.217 87.5502 27.217C87.039 27.217 86.6245 27.628 86.6245 28.135C86.6245 28.642 87.039 29.0531 87.5502 29.0531Z" fill="#FFA300"/>
<path opacity="0.94" d="M68.2276 46.7826C68.3414 46.2742 68.018 45.7706 67.5053 45.6578C66.9926 45.545 66.4848 45.8657 66.371 46.3741C66.2573 46.8825 66.5807 47.3861 67.0933 47.4989C67.606 47.6117 68.1139 47.291 68.2276 46.7826Z" fill="#F7931E"/>
</g>
<defs>
<linearGradient id="paint0_linear" x1="37.2402" y1="37.8123" x2="133.649" y2="37.8123" gradientUnits="userSpaceOnUse">
<stop stop-color="#F15A24"/>
<stop offset="0.02" stop-color="#F25F22"/>
<stop offset="0.14" stop-color="#F77815"/>
<stop offset="0.28" stop-color="#FA8B0C"/>
<stop offset="0.44" stop-color="#FD9905"/>
<stop offset="0.64" stop-color="#FFA101"/>
<stop offset="1" stop-color="#FFA300"/>
</linearGradient>
<linearGradient id="paint1_linear" x1="568.993" y1="11897" x2="41355.4" y2="11897" gradientUnits="userSpaceOnUse">
<stop stop-color="#F15A24"/>
<stop offset="0.02" stop-color="#F25F22"/>
<stop offset="0.14" stop-color="#F77815"/>
<stop offset="0.28" stop-color="#FA8B0C"/>
<stop offset="0.44" stop-color="#FD9905"/>
<stop offset="0.64" stop-color="#FFA101"/>
<stop offset="1" stop-color="#FFA300"/>
</linearGradient>
<linearGradient id="paint2_linear" x1="684.202" y1="12001.8" x2="51767.5" y2="12001.8" gradientUnits="userSpaceOnUse">
<stop stop-color="#F15A24"/>
<stop offset="0.02" stop-color="#F25F22"/>
<stop offset="0.14" stop-color="#F77815"/>
<stop offset="0.28" stop-color="#FA8B0C"/>
<stop offset="0.44" stop-color="#FD9905"/>
<stop offset="0.64" stop-color="#FFA101"/>
<stop offset="1" stop-color="#FFA300"/>
</linearGradient>
<linearGradient id="paint3_linear" x1="416.79" y1="11999.9" x2="35330.5" y2="11999.9" gradientUnits="userSpaceOnUse">
<stop stop-color="#F15A24"/>
<stop offset="0.02" stop-color="#F25F22"/>
<stop offset="0.14" stop-color="#F77815"/>
<stop offset="0.28" stop-color="#FA8B0C"/>
<stop offset="0.44" stop-color="#FD9905"/>
<stop offset="0.64" stop-color="#FFA101"/>
<stop offset="1" stop-color="#FFA300"/>
</linearGradient>
<linearGradient id="paint4_linear" x1="1086.53" y1="5417.93" x2="8922.43" y2="5417.93" gradientUnits="userSpaceOnUse">
<stop stop-color="#F15A24"/>
<stop offset="0.02" stop-color="#F25F22"/>
<stop offset="0.14" stop-color="#F77815"/>
<stop offset="0.28" stop-color="#FA8B0C"/>
<stop offset="0.44" stop-color="#FD9905"/>
<stop offset="0.64" stop-color="#FFA101"/>
<stop offset="1" stop-color="#FFA300"/>
</linearGradient>
<linearGradient id="paint5_linear" x1="926.38" y1="4187.09" x2="6141.6" y2="4187.09" gradientUnits="userSpaceOnUse">
<stop stop-color="#F15A24"/>
<stop offset="0.02" stop-color="#F25F22"/>
<stop offset="0.14" stop-color="#F77815"/>
<stop offset="0.28" stop-color="#FA8B0C"/>
<stop offset="0.44" stop-color="#FD9905"/>
<stop offset="0.64" stop-color="#FFA101"/>
<stop offset="1" stop-color="#FFA300"/>
</linearGradient>
<linearGradient id="paint6_linear" x1="57.0665" y1="24.0913" x2="57.0665" y2="15.5416" gradientUnits="userSpaceOnUse">
<stop stop-color="#666666"/>
<stop offset="1" stop-color="#999999"/>
</linearGradient>
<linearGradient id="paint7_linear" x1="3954.17" y1="1536.71" x2="3954.17" y2="257.413" gradientUnits="userSpaceOnUse">
<stop stop-color="#666666"/>
<stop offset="1" stop-color="#999999"/>
</linearGradient>
<linearGradient id="paint8_linear" x1="4657.25" y1="1558.34" x2="4657.25" y2="260.834" gradientUnits="userSpaceOnUse">
<stop stop-color="#666666"/>
<stop offset="1" stop-color="#999999"/>
</linearGradient>
<linearGradient id="paint9_linear" x1="7138.58" y1="1569.45" x2="7138.58" y2="262.525" gradientUnits="userSpaceOnUse">
<stop stop-color="#666666"/>
<stop offset="1" stop-color="#999999"/>
</linearGradient>
<linearGradient id="paint10_linear" x1="8690.02" y1="1556.22" x2="8690.02" y2="260.425" gradientUnits="userSpaceOnUse">
<stop stop-color="#666666"/>
<stop offset="1" stop-color="#999999"/>
</linearGradient>
<linearGradient id="paint11_linear" x1="7232.09" y1="1536.71" x2="7232.09" y2="257.413" gradientUnits="userSpaceOnUse">
<stop stop-color="#666666"/>
<stop offset="1" stop-color="#999999"/>
</linearGradient>
<linearGradient id="paint12_linear" x1="5451.44" y1="1536.71" x2="5451.44" y2="257.413" gradientUnits="userSpaceOnUse">
<stop stop-color="#666666"/>
<stop offset="1" stop-color="#999999"/>
</linearGradient>
<linearGradient id="paint13_linear" x1="12090.9" y1="1594.66" x2="12090.9" y2="266.479" gradientUnits="userSpaceOnUse">
<stop stop-color="#666666"/>
<stop offset="1" stop-color="#999999"/>
</linearGradient>
<linearGradient id="paint14_linear" x1="11386.3" y1="1545.41" x2="11386.3" y2="258.765" gradientUnits="userSpaceOnUse">
<stop stop-color="#666666"/>
<stop offset="1" stop-color="#999999"/>
</linearGradient>
<clipPath id="clip0">
<rect width="102" height="46" fill="white" transform="translate(39 17)"/>
</clipPath>
</defs>
</svg>
