<svg width="339" height="62" viewBox="0 0 339 62" fill="none" xmlns="http://www.w3.org/2000/svg">
<path fill-rule="evenodd" clip-rule="evenodd" d="M339 26.4094C339 19.6684 336.374 13.2036 331.699 8.43711C327.025 3.67057 320.684 0.992676 314.074 0.992676C252.788 0.992676 119.647 0.999769 119.647 0.999769L108.685 11.1438H70.793L59.8235 0.999769H24.9265C18.3156 0.999769 11.9755 3.67765 7.30086 8.44418C2.62625 13.2107 0 19.6755 0 26.4165C0 26.4238 0 26.4314 0 26.439C0 33.18 2.62625 39.6446 7.30086 44.4111C11.9755 49.1776 18.3156 51.8555 24.9265 51.8555C41.3443 51.8555 59.8235 51.8555 59.8235 51.8555L70.793 61.9996H108.677L119.647 51.8555L314.074 51.8486C320.684 51.8486 327.025 49.1707 331.699 44.4041C336.374 39.6376 339 33.1728 339 26.4319C339 26.4243 339 26.4167 339 26.4094Z" fill="#828282"/>
<path fill-rule="evenodd" clip-rule="evenodd" d="M339 26.4172C339 19.6762 336.374 13.2115 331.699 8.44493C327.025 3.67839 320.684 1.00049 314.074 1.00049C252.788 1.00049 119.647 1.00049 119.647 1.00049L108.685 11.1445H70.793L59.8235 1.00049H24.9265C18.3156 1.00049 11.9755 3.67839 7.30086 8.44493C2.62625 13.2115 0 19.6762 0 26.4172C0 26.4245 0 26.4284 0 26.4284H5.98235C5.98235 15.4367 14.7211 6.52587 25.5008 6.52587C40.0363 6.52587 57.3753 6.52587 57.3753 6.52587L68.3447 16.6699H111.17L122.14 6.52587H313.5C324.28 6.52587 333.019 15.4365 333.019 26.4282L339 26.4284V26.4172Z" fill="#BDBDBD"/>
<path fill-rule="evenodd" clip-rule="evenodd" d="M339 26.4219H333.018V26.4233C333.018 31.6996 330.962 36.7599 327.303 40.4907C323.644 44.2217 318.682 46.3176 313.507 46.3176C257.002 46.3176 117.169 46.3176 117.169 46.3176L106.2 56.4617H73.2711L62.3016 46.3176H25.4929C14.7175 46.3176 5.98235 37.4106 5.98235 26.4233V26.4219H0V26.4331C0 33.1741 2.62625 39.6389 7.30086 44.4054C11.9755 49.1719 18.3156 51.8498 24.9265 51.8498C41.3443 51.8498 59.8235 51.8498 59.8235 51.8498L70.793 61.9939H108.678L119.647 51.8498H314.073C327.84 51.8498 339 40.4709 339 26.4338C339 26.4258 339 26.4219 339 26.4219Z" fill="#4F4F4F"/>
</svg>
