<svg width="380" height="224" viewBox="0 0 380 224" fill="none" xmlns="http://www.w3.org/2000/svg">
<g filter="url(#filter0_d_4403_110212)">
<rect width="380" height="220" rx="20" fill="#F2F2F2"/>
<path fill-rule="evenodd" clip-rule="evenodd" d="M315 98.9851C315 88 306 78.9927 295 78.9927C233.172 78.9927 208 79 208 79L200 87.0001H163L154 78.9998H119.147C108.147 78.9998 99.1467 88 99.1467 98.9923C99.1467 98.9997 99.1467 99.0072 99.1467 99.0148C99.1467 110 108.147 119 119.147 119C135.71 119 154 119 154 119L163 127H200L208 119H295.147C306 119 315 110 315 99.0075C315 99 315 99.5 315 98.9851Z" fill="#30DCFF"/>
<path fill-rule="evenodd" clip-rule="evenodd" d="M315 98.9888C315 88 306 79 294.853 79C233.025 79 208 79.0001 208 79.0001L200 87H163L154 79.0001H119C108 79.0001 99 88.0001 99 98.9888C99 98.9962 99 99.0001 99 99.0001H104C104 89 111 84.0001 119 84.0001C133.664 84.0001 152 84 152 84L161 92H202L210 84H295C304 84 310 90 310 98.9998L315 99V98.9888Z" fill="white" fill-opacity="0.5"/>
<path fill-rule="evenodd" clip-rule="evenodd" d="M315 99L310 99C310 107.971 304.197 114 295 114C237.995 114 206 114 206 114L198 122H165L156 114H119C108.496 114 104 108 104 99.0014L99 99V99.0112C99 110 108 119 119 119C135.563 119 154 119 154 119L163 127H200L208 119H295C306 119 315 110 315 99Z" fill="black" fill-opacity="0.25"/>
<path d="M115.576 105.056H111.376L110.548 107H108.94L112.72 98.6H114.256L118.048 107H116.416L115.576 105.056ZM115.06 103.832L113.476 100.16L111.904 103.832H115.06ZM122.524 100.52C123.148 100.52 123.704 100.656 124.192 100.928C124.688 101.2 125.076 101.584 125.356 102.08C125.636 102.576 125.776 103.148 125.776 103.796C125.776 104.444 125.636 105.02 125.356 105.524C125.076 106.02 124.688 106.404 124.192 106.676C123.704 106.948 123.148 107.084 122.524 107.084C122.084 107.084 121.68 107.008 121.312 106.856C120.952 106.704 120.648 106.476 120.4 106.172V107H118.972V98.096H120.472V101.372C120.728 101.092 121.028 100.88 121.372 100.736C121.724 100.592 122.108 100.52 122.524 100.52ZM122.356 105.8C122.908 105.8 123.36 105.616 123.712 105.248C124.072 104.88 124.252 104.396 124.252 103.796C124.252 103.196 124.072 102.712 123.712 102.344C123.36 101.976 122.908 101.792 122.356 101.792C121.996 101.792 121.672 101.876 121.384 102.044C121.096 102.204 120.868 102.436 120.7 102.74C120.532 103.044 120.448 103.396 120.448 103.796C120.448 104.196 120.532 104.548 120.7 104.852C120.868 105.156 121.096 105.392 121.384 105.56C121.672 105.72 121.996 105.8 122.356 105.8ZM128.627 101.528C129.059 100.856 129.819 100.52 130.907 100.52V101.948C130.779 101.924 130.663 101.912 130.559 101.912C129.975 101.912 129.519 102.084 129.191 102.428C128.863 102.764 128.699 103.252 128.699 103.892V107H127.199V100.592H128.627V101.528ZM132.179 100.592H133.679V107H132.179V100.592ZM132.935 99.536C132.663 99.536 132.435 99.452 132.251 99.284C132.067 99.108 131.975 98.892 131.975 98.636C131.975 98.38 132.067 98.168 132.251 98C132.435 97.824 132.663 97.736 132.935 97.736C133.207 97.736 133.435 97.82 133.619 97.988C133.803 98.148 133.895 98.352 133.895 98.6C133.895 98.864 133.803 99.088 133.619 99.272C133.443 99.448 133.215 99.536 132.935 99.536ZM137.076 101.528C137.508 100.856 138.268 100.52 139.356 100.52V101.948C139.228 101.924 139.112 101.912 139.008 101.912C138.424 101.912 137.968 102.084 137.64 102.428C137.312 102.764 137.148 103.252 137.148 103.892V107H135.648V100.592H137.076V101.528ZM150.028 103.832C150.028 103.936 150.02 104.084 150.004 104.276H144.976C145.064 104.748 145.292 105.124 145.66 105.404C146.036 105.676 146.5 105.812 147.052 105.812C147.756 105.812 148.336 105.58 148.792 105.116L149.596 106.04C149.308 106.384 148.944 106.644 148.504 106.82C148.064 106.996 147.568 107.084 147.016 107.084C146.312 107.084 145.692 106.944 145.156 106.664C144.62 106.384 144.204 105.996 143.908 105.5C143.62 104.996 143.476 104.428 143.476 103.796C143.476 103.172 143.616 102.612 143.896 102.116C144.184 101.612 144.58 101.22 145.084 100.94C145.588 100.66 146.156 100.52 146.788 100.52C147.412 100.52 147.968 100.66 148.456 100.94C148.952 101.212 149.336 101.6 149.608 102.104C149.888 102.6 150.028 103.176 150.028 103.832ZM146.788 101.72C146.308 101.72 145.9 101.864 145.564 102.152C145.236 102.432 145.036 102.808 144.964 103.28H148.6C148.536 102.816 148.34 102.44 148.012 102.152C147.684 101.864 147.276 101.72 146.788 101.72ZM151.468 98.096H152.968V107H151.468V98.096ZM161.194 107.084C160.53 107.084 159.934 106.944 159.406 106.664C158.878 106.384 158.466 105.996 158.17 105.5C157.874 104.996 157.726 104.428 157.726 103.796C157.726 103.164 157.874 102.6 158.17 102.104C158.466 101.608 158.874 101.22 159.394 100.94C159.922 100.66 160.522 100.52 161.194 100.52C161.826 100.52 162.378 100.648 162.85 100.904C163.33 101.16 163.69 101.528 163.93 102.008L162.778 102.68C162.594 102.384 162.362 102.164 162.082 102.02C161.81 101.868 161.51 101.792 161.182 101.792C160.622 101.792 160.158 101.976 159.79 102.344C159.422 102.704 159.238 103.188 159.238 103.796C159.238 104.404 159.418 104.892 159.778 105.26C160.146 105.62 160.614 105.8 161.182 105.8C161.51 105.8 161.81 105.728 162.082 105.584C162.362 105.432 162.594 105.208 162.778 104.912L163.93 105.584C163.682 106.064 163.318 106.436 162.838 106.7C162.366 106.956 161.818 107.084 161.194 107.084ZM168.012 107.084C167.364 107.084 166.78 106.944 166.26 106.664C165.74 106.384 165.332 105.996 165.036 105.5C164.748 104.996 164.604 104.428 164.604 103.796C164.604 103.164 164.748 102.6 165.036 102.104C165.332 101.608 165.74 101.22 166.26 100.94C166.78 100.66 167.364 100.52 168.012 100.52C168.668 100.52 169.256 100.66 169.776 100.94C170.296 101.22 170.7 101.608 170.988 102.104C171.284 102.6 171.432 103.164 171.432 103.796C171.432 104.428 171.284 104.996 170.988 105.5C170.7 105.996 170.296 106.384 169.776 106.664C169.256 106.944 168.668 107.084 168.012 107.084ZM168.012 105.8C168.564 105.8 169.02 105.616 169.38 105.248C169.74 104.88 169.92 104.396 169.92 103.796C169.92 103.196 169.74 102.712 169.38 102.344C169.02 101.976 168.564 101.792 168.012 101.792C167.46 101.792 167.004 101.976 166.644 102.344C166.292 102.712 166.116 103.196 166.116 103.796C166.116 104.396 166.292 104.88 166.644 105.248C167.004 105.616 167.46 105.8 168.012 105.8ZM174.295 101.528C174.727 100.856 175.487 100.52 176.575 100.52V101.948C176.447 101.924 176.331 101.912 176.227 101.912C175.643 101.912 175.187 102.084 174.859 102.428C174.531 102.764 174.367 103.252 174.367 103.892V107H172.867V100.592H174.295V101.528ZM179.275 101.528C179.707 100.856 180.467 100.52 181.555 100.52V101.948C181.427 101.924 181.311 101.912 181.207 101.912C180.623 101.912 180.167 102.084 179.839 102.428C179.511 102.764 179.347 103.252 179.347 103.892V107H177.847V100.592H179.275V101.528ZM188.793 103.832C188.793 103.936 188.785 104.084 188.769 104.276H183.741C183.829 104.748 184.057 105.124 184.425 105.404C184.801 105.676 185.265 105.812 185.817 105.812C186.521 105.812 187.101 105.58 187.557 105.116L188.361 106.04C188.073 106.384 187.709 106.644 187.269 106.82C186.829 106.996 186.333 107.084 185.781 107.084C185.077 107.084 184.457 106.944 183.921 106.664C183.385 106.384 182.969 105.996 182.673 105.5C182.385 104.996 182.241 104.428 182.241 103.796C182.241 103.172 182.381 102.612 182.661 102.116C182.949 101.612 183.345 101.22 183.849 100.94C184.353 100.66 184.921 100.52 185.553 100.52C186.177 100.52 186.733 100.66 187.221 100.94C187.717 101.212 188.101 101.6 188.373 102.104C188.653 102.6 188.793 103.176 188.793 103.832ZM185.553 101.72C185.073 101.72 184.665 101.864 184.329 102.152C184.001 102.432 183.801 102.808 183.729 103.28H187.365C187.301 102.816 187.105 102.44 186.777 102.152C186.449 101.864 186.041 101.72 185.553 101.72ZM193.114 107.084C192.466 107.084 191.882 106.944 191.362 106.664C190.842 106.384 190.434 105.996 190.138 105.5C189.85 104.996 189.706 104.428 189.706 103.796C189.706 103.164 189.85 102.6 190.138 102.104C190.434 101.608 190.842 101.22 191.362 100.94C191.882 100.66 192.466 100.52 193.114 100.52C193.77 100.52 194.358 100.66 194.878 100.94C195.398 101.22 195.802 101.608 196.09 102.104C196.386 102.6 196.534 103.164 196.534 103.796C196.534 104.428 196.386 104.996 196.09 105.5C195.802 105.996 195.398 106.384 194.878 106.664C194.358 106.944 193.77 107.084 193.114 107.084ZM193.114 105.8C193.666 105.8 194.122 105.616 194.482 105.248C194.842 104.88 195.022 104.396 195.022 103.796C195.022 103.196 194.842 102.712 194.482 102.344C194.122 101.976 193.666 101.792 193.114 101.792C192.562 101.792 192.106 101.976 191.746 102.344C191.394 102.712 191.218 103.196 191.218 103.796C191.218 104.396 191.394 104.88 191.746 105.248C192.106 105.616 192.562 105.8 193.114 105.8Z" fill="#333333"/>
<path fill-rule="evenodd" clip-rule="evenodd" d="M315 138.985C315 128 306 118.993 295 118.993C233.172 118.993 208 119 208 119L200 127H163L154 119H119.147C108.147 119 99.1467 128 99.1467 138.992C99.1467 139 99.1467 139.007 99.1467 139.015C99.1467 150 108.147 159 119.147 159C135.71 159 154 159 154 159L163 167H200L208 159H295.147C306 159 315 150 315 139.008C315 139 315 139.5 315 138.985Z" fill="#30DCFF"/>
<path fill-rule="evenodd" clip-rule="evenodd" d="M315 138.989C315 128 306 119 294.853 119C233.025 119 208 119 208 119L200 127H163L154 119H119C108 119 99 128 99 138.989C99 138.996 99 139 99 139H104C104 129 111 124 119 124C133.664 124 152 124 152 124L161 132H202L210 124H295C304 124 310 130 310 139L315 139V138.989Z" fill="white" fill-opacity="0.5"/>
<path fill-rule="evenodd" clip-rule="evenodd" d="M315 139L310 139C310 147.971 304.197 154 295 154C237.995 154 206 154 206 154L198 162H165L156 154H119C108.496 154 104 148 104 139.001L99 139V139.011C99 150 108 159 119 159C135.563 159 154 159 154 159L163 167H200L208 159H295C306 159 315 150 315 139Z" fill="black" fill-opacity="0.25"/>
<path d="M113.74 147.12C112.58 147.12 111.676 146.796 111.028 146.148C110.38 145.492 110.056 144.556 110.056 143.34V138.6H111.616V143.28C111.616 144.928 112.328 145.752 113.752 145.752C115.168 145.752 115.876 144.928 115.876 143.28V138.6H117.412V143.34C117.412 144.556 117.088 145.492 116.44 146.148C115.8 146.796 114.9 147.12 113.74 147.12ZM121.433 147.084C120.913 147.084 120.405 147.016 119.909 146.88C119.413 146.744 119.017 146.572 118.721 146.364L119.297 145.224C119.585 145.416 119.929 145.572 120.329 145.692C120.737 145.804 121.137 145.86 121.529 145.86C122.425 145.86 122.873 145.624 122.873 145.152C122.873 144.928 122.757 144.772 122.525 144.684C122.301 144.596 121.937 144.512 121.433 144.432C120.905 144.352 120.473 144.26 120.137 144.156C119.809 144.052 119.521 143.872 119.273 143.616C119.033 143.352 118.913 142.988 118.913 142.524C118.913 141.916 119.165 141.432 119.669 141.072C120.181 140.704 120.869 140.52 121.733 140.52C122.173 140.52 122.613 140.572 123.053 140.676C123.493 140.772 123.853 140.904 124.133 141.072L123.557 142.212C123.013 141.892 122.401 141.732 121.721 141.732C121.281 141.732 120.945 141.8 120.713 141.936C120.489 142.064 120.377 142.236 120.377 142.452C120.377 142.692 120.497 142.864 120.737 142.968C120.985 143.064 121.365 143.156 121.877 143.244C122.389 143.324 122.809 143.416 123.137 143.52C123.465 143.624 123.745 143.8 123.977 144.048C124.217 144.296 124.337 144.648 124.337 145.104C124.337 145.704 124.077 146.184 123.557 146.544C123.037 146.904 122.329 147.084 121.433 147.084ZM128.077 140.52C129.021 140.52 129.741 140.748 130.237 141.204C130.741 141.652 130.993 142.332 130.993 143.244V147H129.577V146.22C129.393 146.5 129.129 146.716 128.785 146.868C128.449 147.012 128.041 147.084 127.561 147.084C127.081 147.084 126.661 147.004 126.301 146.844C125.941 146.676 125.661 146.448 125.461 146.16C125.269 145.864 125.173 145.532 125.173 145.164C125.173 144.588 125.385 144.128 125.809 143.784C126.241 143.432 126.917 143.256 127.837 143.256H129.493V143.16C129.493 142.712 129.357 142.368 129.085 142.128C128.821 141.888 128.425 141.768 127.897 141.768C127.537 141.768 127.181 141.824 126.829 141.936C126.485 142.048 126.193 142.204 125.953 142.404L125.365 141.312C125.701 141.056 126.105 140.86 126.577 140.724C127.049 140.588 127.549 140.52 128.077 140.52ZM127.873 145.992C128.249 145.992 128.581 145.908 128.869 145.74C129.165 145.564 129.373 145.316 129.493 144.996V144.252H127.945C127.081 144.252 126.649 144.536 126.649 145.104C126.649 145.376 126.757 145.592 126.973 145.752C127.189 145.912 127.489 145.992 127.873 145.992ZM134.346 141.528C134.778 140.856 135.538 140.52 136.626 140.52V141.948C136.498 141.924 136.382 141.912 136.278 141.912C135.694 141.912 135.238 142.084 134.91 142.428C134.582 142.764 134.418 143.252 134.418 143.892V147H132.918V140.592H134.346V141.528ZM144.825 140.52C145.449 140.52 146.005 140.656 146.493 140.928C146.989 141.2 147.377 141.584 147.657 142.08C147.937 142.576 148.077 143.148 148.077 143.796C148.077 144.444 147.937 145.02 147.657 145.524C147.377 146.02 146.989 146.404 146.493 146.676C146.005 146.948 145.449 147.084 144.825 147.084C144.385 147.084 143.981 147.008 143.613 146.856C143.253 146.704 142.949 146.476 142.701 146.172V147H141.273V138.096H142.773V141.372C143.029 141.092 143.329 140.88 143.673 140.736C144.025 140.592 144.409 140.52 144.825 140.52ZM144.657 145.8C145.209 145.8 145.661 145.616 146.013 145.248C146.373 144.88 146.553 144.396 146.553 143.796C146.553 143.196 146.373 142.712 146.013 142.344C145.661 141.976 145.209 141.792 144.657 141.792C144.297 141.792 143.973 141.876 143.685 142.044C143.397 142.204 143.169 142.436 143.001 142.74C142.833 143.044 142.749 143.396 142.749 143.796C142.749 144.196 142.833 144.548 143.001 144.852C143.169 145.156 143.397 145.392 143.685 145.56C143.973 145.72 144.297 145.8 144.657 145.8ZM152.38 147.084C151.732 147.084 151.148 146.944 150.628 146.664C150.108 146.384 149.7 145.996 149.404 145.5C149.116 144.996 148.972 144.428 148.972 143.796C148.972 143.164 149.116 142.6 149.404 142.104C149.7 141.608 150.108 141.22 150.628 140.94C151.148 140.66 151.732 140.52 152.38 140.52C153.036 140.52 153.624 140.66 154.144 140.94C154.664 141.22 155.068 141.608 155.356 142.104C155.652 142.6 155.8 143.164 155.8 143.796C155.8 144.428 155.652 144.996 155.356 145.5C155.068 145.996 154.664 146.384 154.144 146.664C153.624 146.944 153.036 147.084 152.38 147.084ZM152.38 145.8C152.932 145.8 153.388 145.616 153.748 145.248C154.108 144.88 154.288 144.396 154.288 143.796C154.288 143.196 154.108 142.712 153.748 142.344C153.388 141.976 152.932 141.792 152.38 141.792C151.828 141.792 151.372 141.976 151.012 142.344C150.66 142.712 150.484 143.196 150.484 143.796C150.484 144.396 150.66 144.88 151.012 145.248C151.372 145.616 151.828 145.8 152.38 145.8ZM161.086 146.652C160.91 146.796 160.694 146.904 160.438 146.976C160.19 147.048 159.926 147.084 159.646 147.084C158.942 147.084 158.398 146.9 158.014 146.532C157.63 146.164 157.438 145.628 157.438 144.924V141.84H156.382V140.64H157.438V139.176H158.938V140.64H160.654V141.84H158.938V144.888C158.938 145.2 159.014 145.44 159.166 145.608C159.318 145.768 159.538 145.848 159.826 145.848C160.162 145.848 160.442 145.76 160.666 145.584L161.086 146.652ZM164.989 147.084C164.341 147.084 163.757 146.944 163.237 146.664C162.717 146.384 162.309 145.996 162.013 145.5C161.725 144.996 161.581 144.428 161.581 143.796C161.581 143.164 161.725 142.6 162.013 142.104C162.309 141.608 162.717 141.22 163.237 140.94C163.757 140.66 164.341 140.52 164.989 140.52C165.645 140.52 166.233 140.66 166.753 140.94C167.273 141.22 167.677 141.608 167.965 142.104C168.261 142.6 168.409 143.164 168.409 143.796C168.409 144.428 168.261 144.996 167.965 145.5C167.677 145.996 167.273 146.384 166.753 146.664C166.233 146.944 165.645 147.084 164.989 147.084ZM164.989 145.8C165.541 145.8 165.997 145.616 166.357 145.248C166.717 144.88 166.897 144.396 166.897 143.796C166.897 143.196 166.717 142.712 166.357 142.344C165.997 141.976 165.541 141.792 164.989 141.792C164.437 141.792 163.981 141.976 163.621 142.344C163.269 142.712 163.093 143.196 163.093 143.796C163.093 144.396 163.269 144.88 163.621 145.248C163.981 145.616 164.437 145.8 164.989 145.8ZM165.589 138.072H167.353L165.265 139.716H163.969L165.589 138.072ZM173.479 140.52C174.287 140.52 174.935 140.756 175.423 141.228C175.911 141.7 176.155 142.4 176.155 143.328V147H174.655V143.52C174.655 142.96 174.523 142.54 174.259 142.26C173.995 141.972 173.619 141.828 173.131 141.828C172.579 141.828 172.143 141.996 171.823 142.332C171.503 142.66 171.343 143.136 171.343 143.76V147H169.843V140.592H171.271V141.42C171.519 141.124 171.831 140.9 172.207 140.748C172.583 140.596 173.007 140.52 173.479 140.52ZM187.651 138.096V147H186.211V146.172C185.963 146.476 185.655 146.704 185.287 146.856C184.927 147.008 184.527 147.084 184.087 147.084C183.471 147.084 182.915 146.948 182.419 146.676C181.931 146.404 181.547 146.02 181.267 145.524C180.987 145.02 180.847 144.444 180.847 143.796C180.847 143.148 180.987 142.576 181.267 142.08C181.547 141.584 181.931 141.2 182.419 140.928C182.915 140.656 183.471 140.52 184.087 140.52C184.511 140.52 184.899 140.592 185.251 140.736C185.603 140.88 185.903 141.096 186.151 141.384V138.096H187.651ZM184.267 145.8C184.627 145.8 184.951 145.72 185.239 145.56C185.527 145.392 185.755 145.156 185.923 144.852C186.091 144.548 186.175 144.196 186.175 143.796C186.175 143.396 186.091 143.044 185.923 142.74C185.755 142.436 185.527 142.204 185.239 142.044C184.951 141.876 184.627 141.792 184.267 141.792C183.907 141.792 183.583 141.876 183.295 142.044C183.007 142.204 182.779 142.436 182.611 142.74C182.443 143.044 182.359 143.396 182.359 143.796C182.359 144.196 182.443 144.548 182.611 144.852C182.779 145.156 183.007 145.392 183.295 145.56C183.583 145.72 183.907 145.8 184.267 145.8ZM195.637 143.832C195.637 143.936 195.629 144.084 195.613 144.276H190.585C190.673 144.748 190.901 145.124 191.269 145.404C191.645 145.676 192.109 145.812 192.661 145.812C193.365 145.812 193.945 145.58 194.401 145.116L195.205 146.04C194.917 146.384 194.553 146.644 194.113 146.82C193.673 146.996 193.177 147.084 192.625 147.084C191.921 147.084 191.301 146.944 190.765 146.664C190.229 146.384 189.813 145.996 189.517 145.5C189.229 144.996 189.085 144.428 189.085 143.796C189.085 143.172 189.225 142.612 189.505 142.116C189.793 141.612 190.189 141.22 190.693 140.94C191.197 140.66 191.765 140.52 192.397 140.52C193.021 140.52 193.577 140.66 194.065 140.94C194.561 141.212 194.945 141.6 195.217 142.104C195.497 142.6 195.637 143.176 195.637 143.832ZM192.397 141.72C191.917 141.72 191.509 141.864 191.173 142.152C190.845 142.432 190.645 142.808 190.573 143.28H194.209C194.145 142.816 193.949 142.44 193.621 142.152C193.293 141.864 192.885 141.72 192.397 141.72ZM199.058 147.084C198.538 147.084 198.03 147.016 197.534 146.88C197.038 146.744 196.642 146.572 196.346 146.364L196.922 145.224C197.21 145.416 197.554 145.572 197.954 145.692C198.362 145.804 198.762 145.86 199.154 145.86C200.05 145.86 200.498 145.624 200.498 145.152C200.498 144.928 200.382 144.772 200.15 144.684C199.926 144.596 199.562 144.512 199.058 144.432C198.53 144.352 198.098 144.26 197.762 144.156C197.434 144.052 197.146 143.872 196.898 143.616C196.658 143.352 196.538 142.988 196.538 142.524C196.538 141.916 196.79 141.432 197.294 141.072C197.806 140.704 198.494 140.52 199.358 140.52C199.798 140.52 200.238 140.572 200.678 140.676C201.118 140.772 201.478 140.904 201.758 141.072L201.182 142.212C200.638 141.892 200.026 141.732 199.346 141.732C198.906 141.732 198.57 141.8 198.338 141.936C198.114 142.064 198.002 142.236 198.002 142.452C198.002 142.692 198.122 142.864 198.362 142.968C198.61 143.064 198.99 143.156 199.502 143.244C200.014 143.324 200.434 143.416 200.762 143.52C201.09 143.624 201.37 143.8 201.602 144.048C201.842 144.296 201.962 144.648 201.962 145.104C201.962 145.704 201.702 146.184 201.182 146.544C200.662 146.904 199.954 147.084 199.058 147.084ZM206.194 147.084C205.53 147.084 204.934 146.944 204.406 146.664C203.878 146.384 203.466 145.996 203.17 145.5C202.874 144.996 202.726 144.428 202.726 143.796C202.726 143.164 202.874 142.6 203.17 142.104C203.466 141.608 203.874 141.22 204.394 140.94C204.922 140.66 205.522 140.52 206.194 140.52C206.826 140.52 207.378 140.648 207.85 140.904C208.33 141.16 208.69 141.528 208.93 142.008L207.778 142.68C207.594 142.384 207.362 142.164 207.082 142.02C206.81 141.868 206.51 141.792 206.182 141.792C205.622 141.792 205.158 141.976 204.79 142.344C204.422 142.704 204.238 143.188 204.238 143.796C204.238 144.404 204.418 144.892 204.778 145.26C205.146 145.62 205.614 145.8 206.182 145.8C206.51 145.8 206.81 145.728 207.082 145.584C207.362 145.432 207.594 145.208 207.778 144.912L208.93 145.584C208.682 146.064 208.318 146.436 207.838 146.7C207.366 146.956 206.818 147.084 206.194 147.084ZM212.674 140.52C213.618 140.52 214.338 140.748 214.834 141.204C215.338 141.652 215.59 142.332 215.59 143.244V147H214.174V146.22C213.99 146.5 213.726 146.716 213.382 146.868C213.046 147.012 212.638 147.084 212.158 147.084C211.678 147.084 211.258 147.004 210.898 146.844C210.538 146.676 210.258 146.448 210.058 146.16C209.866 145.864 209.77 145.532 209.77 145.164C209.77 144.588 209.982 144.128 210.406 143.784C210.838 143.432 211.514 143.256 212.434 143.256H214.09V143.16C214.09 142.712 213.954 142.368 213.682 142.128C213.418 141.888 213.022 141.768 212.494 141.768C212.134 141.768 211.778 141.824 211.426 141.936C211.082 142.048 210.79 142.204 210.55 142.404L209.962 141.312C210.298 141.056 210.702 140.86 211.174 140.724C211.646 140.588 212.146 140.52 212.674 140.52ZM212.47 145.992C212.846 145.992 213.178 145.908 213.466 145.74C213.762 145.564 213.97 145.316 214.09 144.996V144.252H212.542C211.678 144.252 211.246 144.536 211.246 145.104C211.246 145.376 211.354 145.592 211.57 145.752C211.786 145.912 212.086 145.992 212.47 145.992ZM218.943 141.528C219.375 140.856 220.135 140.52 221.223 140.52V141.948C221.095 141.924 220.979 141.912 220.875 141.912C220.291 141.912 219.835 142.084 219.507 142.428C219.179 142.764 219.015 143.252 219.015 143.892V147H217.515V140.592H218.943V141.528ZM228.797 140.592V146.028C228.797 148.284 227.645 149.412 225.341 149.412C224.725 149.412 224.141 149.332 223.589 149.172C223.037 149.02 222.581 148.796 222.221 148.5L222.893 147.372C223.173 147.604 223.525 147.788 223.949 147.924C224.381 148.068 224.817 148.14 225.257 148.14C225.961 148.14 226.477 147.98 226.805 147.66C227.133 147.34 227.297 146.852 227.297 146.196V145.86C227.041 146.14 226.729 146.352 226.361 146.496C225.993 146.64 225.589 146.712 225.149 146.712C224.541 146.712 223.989 146.584 223.493 146.328C223.005 146.064 222.617 145.696 222.329 145.224C222.049 144.752 221.909 144.212 221.909 143.604C221.909 142.996 222.049 142.46 222.329 141.996C222.617 141.524 223.005 141.16 223.493 140.904C223.989 140.648 224.541 140.52 225.149 140.52C225.613 140.52 226.033 140.596 226.409 140.748C226.793 140.9 227.113 141.132 227.369 141.444V140.592H228.797ZM225.377 145.44C225.945 145.44 226.409 145.272 226.769 144.936C227.137 144.592 227.321 144.148 227.321 143.604C227.321 143.068 227.137 142.632 226.769 142.296C226.409 141.96 225.945 141.792 225.377 141.792C224.801 141.792 224.329 141.96 223.961 142.296C223.601 142.632 223.421 143.068 223.421 143.604C223.421 144.148 223.601 144.592 223.961 144.936C224.329 145.272 224.801 145.44 225.377 145.44ZM233.217 140.52C234.161 140.52 234.881 140.748 235.377 141.204C235.881 141.652 236.133 142.332 236.133 143.244V147H234.717V146.22C234.533 146.5 234.269 146.716 233.925 146.868C233.589 147.012 233.181 147.084 232.701 147.084C232.221 147.084 231.801 147.004 231.441 146.844C231.081 146.676 230.801 146.448 230.601 146.16C230.409 145.864 230.313 145.532 230.313 145.164C230.313 144.588 230.525 144.128 230.949 143.784C231.381 143.432 232.057 143.256 232.977 143.256H234.633V143.16C234.633 142.712 234.497 142.368 234.225 142.128C233.961 141.888 233.565 141.768 233.037 141.768C232.677 141.768 232.321 141.824 231.969 141.936C231.625 142.048 231.333 142.204 231.093 142.404L230.505 141.312C230.841 141.056 231.245 140.86 231.717 140.724C232.189 140.588 232.689 140.52 233.217 140.52ZM233.013 145.992C233.389 145.992 233.721 145.908 234.009 145.74C234.305 145.564 234.513 145.316 234.633 144.996V144.252H233.085C232.221 144.252 231.789 144.536 231.789 145.104C231.789 145.376 231.897 145.592 232.113 145.752C232.329 145.912 232.629 145.992 233.013 145.992ZM239.486 141.528C239.918 140.856 240.678 140.52 241.766 140.52V141.948C241.638 141.924 241.522 141.912 241.418 141.912C240.834 141.912 240.378 142.084 240.05 142.428C239.722 142.764 239.558 143.252 239.558 143.892V147H238.058V140.592H239.486V141.528ZM248.862 140.52C249.806 140.52 250.526 140.748 251.022 141.204C251.526 141.652 251.778 142.332 251.778 143.244V147H250.362V146.22C250.178 146.5 249.914 146.716 249.57 146.868C249.234 147.012 248.826 147.084 248.346 147.084C247.866 147.084 247.446 147.004 247.086 146.844C246.726 146.676 246.446 146.448 246.246 146.16C246.054 145.864 245.958 145.532 245.958 145.164C245.958 144.588 246.17 144.128 246.594 143.784C247.026 143.432 247.702 143.256 248.622 143.256H250.278V143.16C250.278 142.712 250.142 142.368 249.87 142.128C249.606 141.888 249.21 141.768 248.682 141.768C248.322 141.768 247.966 141.824 247.614 141.936C247.27 142.048 246.978 142.204 246.738 142.404L246.15 141.312C246.486 141.056 246.89 140.86 247.362 140.724C247.834 140.588 248.334 140.52 248.862 140.52ZM248.658 145.992C249.034 145.992 249.366 145.908 249.654 145.74C249.95 145.564 250.158 145.316 250.278 144.996V144.252H248.73C247.866 144.252 247.434 144.536 247.434 145.104C247.434 145.376 247.542 145.592 247.758 145.752C247.974 145.912 248.274 145.992 248.658 145.992ZM255.131 141.528C255.563 140.856 256.323 140.52 257.411 140.52V141.948C257.283 141.924 257.167 141.912 257.063 141.912C256.479 141.912 256.023 142.084 255.695 142.428C255.367 142.764 255.203 143.252 255.203 143.892V147H253.703V140.592H255.131V141.528ZM261.565 147.084C260.901 147.084 260.305 146.944 259.777 146.664C259.249 146.384 258.837 145.996 258.541 145.5C258.245 144.996 258.097 144.428 258.097 143.796C258.097 143.164 258.245 142.6 258.541 142.104C258.837 141.608 259.245 141.22 259.765 140.94C260.293 140.66 260.893 140.52 261.565 140.52C262.197 140.52 262.749 140.648 263.221 140.904C263.701 141.16 264.061 141.528 264.301 142.008L263.149 142.68C262.965 142.384 262.733 142.164 262.453 142.02C262.181 141.868 261.881 141.792 261.553 141.792C260.993 141.792 260.529 141.976 260.161 142.344C259.793 142.704 259.609 143.188 259.609 143.796C259.609 144.404 259.789 144.892 260.149 145.26C260.517 145.62 260.985 145.8 261.553 145.8C261.881 145.8 262.181 145.728 262.453 145.584C262.733 145.432 262.965 145.208 263.149 144.912L264.301 145.584C264.053 146.064 263.689 146.436 263.209 146.7C262.737 146.956 262.189 147.084 261.565 147.084ZM269.175 140.52C269.983 140.52 270.631 140.756 271.119 141.228C271.607 141.7 271.851 142.4 271.851 143.328V147H270.351V143.52C270.351 142.96 270.219 142.54 269.955 142.26C269.691 141.972 269.315 141.828 268.827 141.828C268.275 141.828 267.839 141.996 267.519 142.332C267.199 142.66 267.039 143.136 267.039 143.76V147H265.539V138.096H267.039V141.336C267.287 141.072 267.591 140.872 267.951 140.736C268.319 140.592 268.727 140.52 269.175 140.52ZM273.754 140.592H275.254V147H273.754V140.592ZM274.51 139.536C274.238 139.536 274.01 139.452 273.826 139.284C273.642 139.108 273.55 138.892 273.55 138.636C273.55 138.38 273.642 138.168 273.826 138C274.01 137.824 274.238 137.736 274.51 137.736C274.782 137.736 275.01 137.82 275.194 137.988C275.378 138.148 275.47 138.352 275.47 138.6C275.47 138.864 275.378 139.088 275.194 139.272C275.018 139.448 274.79 139.536 274.51 139.536ZM283.222 140.592L280.474 147H278.926L276.178 140.592H277.738L279.73 145.344L281.782 140.592H283.222ZM286.864 147.084C286.216 147.084 285.632 146.944 285.112 146.664C284.592 146.384 284.184 145.996 283.888 145.5C283.6 144.996 283.456 144.428 283.456 143.796C283.456 143.164 283.6 142.6 283.888 142.104C284.184 141.608 284.592 141.22 285.112 140.94C285.632 140.66 286.216 140.52 286.864 140.52C287.52 140.52 288.108 140.66 288.628 140.94C289.148 141.22 289.552 141.608 289.84 142.104C290.136 142.6 290.284 143.164 290.284 143.796C290.284 144.428 290.136 144.996 289.84 145.5C289.552 145.996 289.148 146.384 288.628 146.664C288.108 146.944 287.52 147.084 286.864 147.084ZM286.864 145.8C287.416 145.8 287.872 145.616 288.232 145.248C288.592 144.88 288.772 144.396 288.772 143.796C288.772 143.196 288.592 142.712 288.232 142.344C287.872 141.976 287.416 141.792 286.864 141.792C286.312 141.792 285.856 141.976 285.496 142.344C285.144 142.712 284.968 143.196 284.968 143.796C284.968 144.396 285.144 144.88 285.496 145.248C285.856 145.616 286.312 145.8 286.864 145.8ZM293.698 147.084C293.178 147.084 292.67 147.016 292.174 146.88C291.678 146.744 291.282 146.572 290.986 146.364L291.562 145.224C291.85 145.416 292.194 145.572 292.594 145.692C293.002 145.804 293.402 145.86 293.794 145.86C294.69 145.86 295.138 145.624 295.138 145.152C295.138 144.928 295.022 144.772 294.79 144.684C294.566 144.596 294.202 144.512 293.698 144.432C293.17 144.352 292.738 144.26 292.402 144.156C292.074 144.052 291.786 143.872 291.538 143.616C291.298 143.352 291.178 142.988 291.178 142.524C291.178 141.916 291.43 141.432 291.934 141.072C292.446 140.704 293.134 140.52 293.998 140.52C294.438 140.52 294.878 140.572 295.318 140.676C295.758 140.772 296.118 140.904 296.398 141.072L295.822 142.212C295.278 141.892 294.666 141.732 293.986 141.732C293.546 141.732 293.21 141.8 292.978 141.936C292.754 142.064 292.642 142.236 292.642 142.452C292.642 142.692 292.762 142.864 293.002 142.968C293.25 143.064 293.63 143.156 294.142 143.244C294.654 143.324 295.074 143.416 295.402 143.52C295.73 143.624 296.01 143.8 296.242 144.048C296.482 144.296 296.602 144.648 296.602 145.104C296.602 145.704 296.342 146.184 295.822 146.544C295.302 146.904 294.594 147.084 293.698 147.084Z" fill="#333333"/>
<path fill-rule="evenodd" clip-rule="evenodd" d="M315 178.985C315 168 306 158.993 295 158.993C233.172 158.993 208 159 208 159L200 167H163L154 159H119.147C108.147 159 99.1467 168 99.1467 178.992C99.1467 179 99.1467 179.007 99.1467 179.015C99.1467 190 108.147 199 119.147 199C135.71 199 154 199 154 199L163 207H200L208 199H295.147C306 199 315 190 315 179.008C315 179 315 179.5 315 178.985Z" fill="#30DCFF"/>
<path fill-rule="evenodd" clip-rule="evenodd" d="M315 178.989C315 168 306 159 294.853 159C233.025 159 208 159 208 159L200 167H163L154 159H119C108 159 99 168 99 178.989C99 178.996 99 179 99 179H104C104 169 111 164 119 164C133.664 164 152 164 152 164L161 172H202L210 164H295C304 164 310 170 310 179L315 179V178.989Z" fill="white" fill-opacity="0.5"/>
<path fill-rule="evenodd" clip-rule="evenodd" d="M315 179L310 179C310 187.971 304.197 194 295 194C237.995 194 206 194 206 194L198 202H165L156 194H119C108.496 194 104 188 104 179.001L99 179V179.011C99 190 108 199 119 199C135.563 199 154 199 154 199L163 207H200L208 199H295C306 199 315 190 315 179Z" fill="black" fill-opacity="0.25"/>
<path d="M113.74 187.12C112.58 187.12 111.676 186.796 111.028 186.148C110.38 185.492 110.056 184.556 110.056 183.34V178.6H111.616V183.28C111.616 184.928 112.328 185.752 113.752 185.752C115.168 185.752 115.876 184.928 115.876 183.28V178.6H117.412V183.34C117.412 184.556 117.088 185.492 116.44 186.148C115.8 186.796 114.9 187.12 113.74 187.12ZM121.433 187.084C120.913 187.084 120.405 187.016 119.909 186.88C119.413 186.744 119.017 186.572 118.721 186.364L119.297 185.224C119.585 185.416 119.929 185.572 120.329 185.692C120.737 185.804 121.137 185.86 121.529 185.86C122.425 185.86 122.873 185.624 122.873 185.152C122.873 184.928 122.757 184.772 122.525 184.684C122.301 184.596 121.937 184.512 121.433 184.432C120.905 184.352 120.473 184.26 120.137 184.156C119.809 184.052 119.521 183.872 119.273 183.616C119.033 183.352 118.913 182.988 118.913 182.524C118.913 181.916 119.165 181.432 119.669 181.072C120.181 180.704 120.869 180.52 121.733 180.52C122.173 180.52 122.613 180.572 123.053 180.676C123.493 180.772 123.853 180.904 124.133 181.072L123.557 182.212C123.013 181.892 122.401 181.732 121.721 181.732C121.281 181.732 120.945 181.8 120.713 181.936C120.489 182.064 120.377 182.236 120.377 182.452C120.377 182.692 120.497 182.864 120.737 182.968C120.985 183.064 121.365 183.156 121.877 183.244C122.389 183.324 122.809 183.416 123.137 183.52C123.465 183.624 123.745 183.8 123.977 184.048C124.217 184.296 124.337 184.648 124.337 185.104C124.337 185.704 124.077 186.184 123.557 186.544C123.037 186.904 122.329 187.084 121.433 187.084ZM128.077 180.52C129.021 180.52 129.741 180.748 130.237 181.204C130.741 181.652 130.993 182.332 130.993 183.244V187H129.577V186.22C129.393 186.5 129.129 186.716 128.785 186.868C128.449 187.012 128.041 187.084 127.561 187.084C127.081 187.084 126.661 187.004 126.301 186.844C125.941 186.676 125.661 186.448 125.461 186.16C125.269 185.864 125.173 185.532 125.173 185.164C125.173 184.588 125.385 184.128 125.809 183.784C126.241 183.432 126.917 183.256 127.837 183.256H129.493V183.16C129.493 182.712 129.357 182.368 129.085 182.128C128.821 181.888 128.425 181.768 127.897 181.768C127.537 181.768 127.181 181.824 126.829 181.936C126.485 182.048 126.193 182.204 125.953 182.404L125.365 181.312C125.701 181.056 126.105 180.86 126.577 180.724C127.049 180.588 127.549 180.52 128.077 180.52ZM127.873 185.992C128.249 185.992 128.581 185.908 128.869 185.74C129.165 185.564 129.373 185.316 129.493 184.996V184.252H127.945C127.081 184.252 126.649 184.536 126.649 185.104C126.649 185.376 126.757 185.592 126.973 185.752C127.189 185.912 127.489 185.992 127.873 185.992ZM134.346 181.528C134.778 180.856 135.538 180.52 136.626 180.52V181.948C136.498 181.924 136.382 181.912 136.278 181.912C135.694 181.912 135.238 182.084 134.91 182.428C134.582 182.764 134.418 183.252 134.418 183.892V187H132.918V180.592H134.346V181.528ZM144.825 180.52C145.449 180.52 146.005 180.656 146.493 180.928C146.989 181.2 147.377 181.584 147.657 182.08C147.937 182.576 148.077 183.148 148.077 183.796C148.077 184.444 147.937 185.02 147.657 185.524C147.377 186.02 146.989 186.404 146.493 186.676C146.005 186.948 145.449 187.084 144.825 187.084C144.385 187.084 143.981 187.008 143.613 186.856C143.253 186.704 142.949 186.476 142.701 186.172V187H141.273V178.096H142.773V181.372C143.029 181.092 143.329 180.88 143.673 180.736C144.025 180.592 144.409 180.52 144.825 180.52ZM144.657 185.8C145.209 185.8 145.661 185.616 146.013 185.248C146.373 184.88 146.553 184.396 146.553 183.796C146.553 183.196 146.373 182.712 146.013 182.344C145.661 181.976 145.209 181.792 144.657 181.792C144.297 181.792 143.973 181.876 143.685 182.044C143.397 182.204 143.169 182.436 143.001 182.74C142.833 183.044 142.749 183.396 142.749 183.796C142.749 184.196 142.833 184.548 143.001 184.852C143.169 185.156 143.397 185.392 143.685 185.56C143.973 185.72 144.297 185.8 144.657 185.8ZM152.38 187.084C151.732 187.084 151.148 186.944 150.628 186.664C150.108 186.384 149.7 185.996 149.404 185.5C149.116 184.996 148.972 184.428 148.972 183.796C148.972 183.164 149.116 182.6 149.404 182.104C149.7 181.608 150.108 181.22 150.628 180.94C151.148 180.66 151.732 180.52 152.38 180.52C153.036 180.52 153.624 180.66 154.144 180.94C154.664 181.22 155.068 181.608 155.356 182.104C155.652 182.6 155.8 183.164 155.8 183.796C155.8 184.428 155.652 184.996 155.356 185.5C155.068 185.996 154.664 186.384 154.144 186.664C153.624 186.944 153.036 187.084 152.38 187.084ZM152.38 185.8C152.932 185.8 153.388 185.616 153.748 185.248C154.108 184.88 154.288 184.396 154.288 183.796C154.288 183.196 154.108 182.712 153.748 182.344C153.388 181.976 152.932 181.792 152.38 181.792C151.828 181.792 151.372 181.976 151.012 182.344C150.66 182.712 150.484 183.196 150.484 183.796C150.484 184.396 150.66 184.88 151.012 185.248C151.372 185.616 151.828 185.8 152.38 185.8ZM161.086 186.652C160.91 186.796 160.694 186.904 160.438 186.976C160.19 187.048 159.926 187.084 159.646 187.084C158.942 187.084 158.398 186.9 158.014 186.532C157.63 186.164 157.438 185.628 157.438 184.924V181.84H156.382V180.64H157.438V179.176H158.938V180.64H160.654V181.84H158.938V184.888C158.938 185.2 159.014 185.44 159.166 185.608C159.318 185.768 159.538 185.848 159.826 185.848C160.162 185.848 160.442 185.76 160.666 185.584L161.086 186.652ZM164.989 187.084C164.341 187.084 163.757 186.944 163.237 186.664C162.717 186.384 162.309 185.996 162.013 185.5C161.725 184.996 161.581 184.428 161.581 183.796C161.581 183.164 161.725 182.6 162.013 182.104C162.309 181.608 162.717 181.22 163.237 180.94C163.757 180.66 164.341 180.52 164.989 180.52C165.645 180.52 166.233 180.66 166.753 180.94C167.273 181.22 167.677 181.608 167.965 182.104C168.261 182.6 168.409 183.164 168.409 183.796C168.409 184.428 168.261 184.996 167.965 185.5C167.677 185.996 167.273 186.384 166.753 186.664C166.233 186.944 165.645 187.084 164.989 187.084ZM164.989 185.8C165.541 185.8 165.997 185.616 166.357 185.248C166.717 184.88 166.897 184.396 166.897 183.796C166.897 183.196 166.717 182.712 166.357 182.344C165.997 181.976 165.541 181.792 164.989 181.792C164.437 181.792 163.981 181.976 163.621 182.344C163.269 182.712 163.093 183.196 163.093 183.796C163.093 184.396 163.269 184.88 163.621 185.248C163.981 185.616 164.437 185.8 164.989 185.8ZM165.589 178.072H167.353L165.265 179.716H163.969L165.589 178.072ZM173.479 180.52C174.287 180.52 174.935 180.756 175.423 181.228C175.911 181.7 176.155 182.4 176.155 183.328V187H174.655V183.52C174.655 182.96 174.523 182.54 174.259 182.26C173.995 181.972 173.619 181.828 173.131 181.828C172.579 181.828 172.143 181.996 171.823 182.332C171.503 182.66 171.343 183.136 171.343 183.76V187H169.843V180.592H171.271V181.42C171.519 181.124 171.831 180.9 172.207 180.748C172.583 180.596 173.007 180.52 173.479 180.52ZM187.651 178.096V187H186.211V186.172C185.963 186.476 185.655 186.704 185.287 186.856C184.927 187.008 184.527 187.084 184.087 187.084C183.471 187.084 182.915 186.948 182.419 186.676C181.931 186.404 181.547 186.02 181.267 185.524C180.987 185.02 180.847 184.444 180.847 183.796C180.847 183.148 180.987 182.576 181.267 182.08C181.547 181.584 181.931 181.2 182.419 180.928C182.915 180.656 183.471 180.52 184.087 180.52C184.511 180.52 184.899 180.592 185.251 180.736C185.603 180.88 185.903 181.096 186.151 181.384V178.096H187.651ZM184.267 185.8C184.627 185.8 184.951 185.72 185.239 185.56C185.527 185.392 185.755 185.156 185.923 184.852C186.091 184.548 186.175 184.196 186.175 183.796C186.175 183.396 186.091 183.044 185.923 182.74C185.755 182.436 185.527 182.204 185.239 182.044C184.951 181.876 184.627 181.792 184.267 181.792C183.907 181.792 183.583 181.876 183.295 182.044C183.007 182.204 182.779 182.436 182.611 182.74C182.443 183.044 182.359 183.396 182.359 183.796C182.359 184.196 182.443 184.548 182.611 184.852C182.779 185.156 183.007 185.392 183.295 185.56C183.583 185.72 183.907 185.8 184.267 185.8ZM195.637 183.832C195.637 183.936 195.629 184.084 195.613 184.276H190.585C190.673 184.748 190.901 185.124 191.269 185.404C191.645 185.676 192.109 185.812 192.661 185.812C193.365 185.812 193.945 185.58 194.401 185.116L195.205 186.04C194.917 186.384 194.553 186.644 194.113 186.82C193.673 186.996 193.177 187.084 192.625 187.084C191.921 187.084 191.301 186.944 190.765 186.664C190.229 186.384 189.813 185.996 189.517 185.5C189.229 184.996 189.085 184.428 189.085 183.796C189.085 183.172 189.225 182.612 189.505 182.116C189.793 181.612 190.189 181.22 190.693 180.94C191.197 180.66 191.765 180.52 192.397 180.52C193.021 180.52 193.577 180.66 194.065 180.94C194.561 181.212 194.945 181.6 195.217 182.104C195.497 182.6 195.637 183.176 195.637 183.832ZM192.397 181.72C191.917 181.72 191.509 181.864 191.173 182.152C190.845 182.432 190.645 182.808 190.573 183.28H194.209C194.145 182.816 193.949 182.44 193.621 182.152C193.293 181.864 192.885 181.72 192.397 181.72ZM199.058 187.084C198.538 187.084 198.03 187.016 197.534 186.88C197.038 186.744 196.642 186.572 196.346 186.364L196.922 185.224C197.21 185.416 197.554 185.572 197.954 185.692C198.362 185.804 198.762 185.86 199.154 185.86C200.05 185.86 200.498 185.624 200.498 185.152C200.498 184.928 200.382 184.772 200.15 184.684C199.926 184.596 199.562 184.512 199.058 184.432C198.53 184.352 198.098 184.26 197.762 184.156C197.434 184.052 197.146 183.872 196.898 183.616C196.658 183.352 196.538 182.988 196.538 182.524C196.538 181.916 196.79 181.432 197.294 181.072C197.806 180.704 198.494 180.52 199.358 180.52C199.798 180.52 200.238 180.572 200.678 180.676C201.118 180.772 201.478 180.904 201.758 181.072L201.182 182.212C200.638 181.892 200.026 181.732 199.346 181.732C198.906 181.732 198.57 181.8 198.338 181.936C198.114 182.064 198.002 182.236 198.002 182.452C198.002 182.692 198.122 182.864 198.362 182.968C198.61 183.064 198.99 183.156 199.502 183.244C200.014 183.324 200.434 183.416 200.762 183.52C201.09 183.624 201.37 183.8 201.602 184.048C201.842 184.296 201.962 184.648 201.962 185.104C201.962 185.704 201.702 186.184 201.182 186.544C200.662 186.904 199.954 187.084 199.058 187.084ZM206.194 187.084C205.53 187.084 204.934 186.944 204.406 186.664C203.878 186.384 203.466 185.996 203.17 185.5C202.874 184.996 202.726 184.428 202.726 183.796C202.726 183.164 202.874 182.6 203.17 182.104C203.466 181.608 203.874 181.22 204.394 180.94C204.922 180.66 205.522 180.52 206.194 180.52C206.826 180.52 207.378 180.648 207.85 180.904C208.33 181.16 208.69 181.528 208.93 182.008L207.778 182.68C207.594 182.384 207.362 182.164 207.082 182.02C206.81 181.868 206.51 181.792 206.182 181.792C205.622 181.792 205.158 181.976 204.79 182.344C204.422 182.704 204.238 183.188 204.238 183.796C204.238 184.404 204.418 184.892 204.778 185.26C205.146 185.62 205.614 185.8 206.182 185.8C206.51 185.8 206.81 185.728 207.082 185.584C207.362 185.432 207.594 185.208 207.778 184.912L208.93 185.584C208.682 186.064 208.318 186.436 207.838 186.7C207.366 186.956 206.818 187.084 206.194 187.084ZM212.674 180.52C213.618 180.52 214.338 180.748 214.834 181.204C215.338 181.652 215.59 182.332 215.59 183.244V187H214.174V186.22C213.99 186.5 213.726 186.716 213.382 186.868C213.046 187.012 212.638 187.084 212.158 187.084C211.678 187.084 211.258 187.004 210.898 186.844C210.538 186.676 210.258 186.448 210.058 186.16C209.866 185.864 209.77 185.532 209.77 185.164C209.77 184.588 209.982 184.128 210.406 183.784C210.838 183.432 211.514 183.256 212.434 183.256H214.09V183.16C214.09 182.712 213.954 182.368 213.682 182.128C213.418 181.888 213.022 181.768 212.494 181.768C212.134 181.768 211.778 181.824 211.426 181.936C211.082 182.048 210.79 182.204 210.55 182.404L209.962 181.312C210.298 181.056 210.702 180.86 211.174 180.724C211.646 180.588 212.146 180.52 212.674 180.52ZM212.47 185.992C212.846 185.992 213.178 185.908 213.466 185.74C213.762 185.564 213.97 185.316 214.09 184.996V184.252H212.542C211.678 184.252 211.246 184.536 211.246 185.104C211.246 185.376 211.354 185.592 211.57 185.752C211.786 185.912 212.086 185.992 212.47 185.992ZM218.943 181.528C219.375 180.856 220.135 180.52 221.223 180.52V181.948C221.095 181.924 220.979 181.912 220.875 181.912C220.291 181.912 219.835 182.084 219.507 182.428C219.179 182.764 219.015 183.252 219.015 183.892V187H217.515V180.592H218.943V181.528ZM228.797 180.592V186.028C228.797 188.284 227.645 189.412 225.341 189.412C224.725 189.412 224.141 189.332 223.589 189.172C223.037 189.02 222.581 188.796 222.221 188.5L222.893 187.372C223.173 187.604 223.525 187.788 223.949 187.924C224.381 188.068 224.817 188.14 225.257 188.14C225.961 188.14 226.477 187.98 226.805 187.66C227.133 187.34 227.297 186.852 227.297 186.196V185.86C227.041 186.14 226.729 186.352 226.361 186.496C225.993 186.64 225.589 186.712 225.149 186.712C224.541 186.712 223.989 186.584 223.493 186.328C223.005 186.064 222.617 185.696 222.329 185.224C222.049 184.752 221.909 184.212 221.909 183.604C221.909 182.996 222.049 182.46 222.329 181.996C222.617 181.524 223.005 181.16 223.493 180.904C223.989 180.648 224.541 180.52 225.149 180.52C225.613 180.52 226.033 180.596 226.409 180.748C226.793 180.9 227.113 181.132 227.369 181.444V180.592H228.797ZM225.377 185.44C225.945 185.44 226.409 185.272 226.769 184.936C227.137 184.592 227.321 184.148 227.321 183.604C227.321 183.068 227.137 182.632 226.769 182.296C226.409 181.96 225.945 181.792 225.377 181.792C224.801 181.792 224.329 181.96 223.961 182.296C223.601 182.632 223.421 183.068 223.421 183.604C223.421 184.148 223.601 184.592 223.961 184.936C224.329 185.272 224.801 185.44 225.377 185.44ZM233.217 180.52C234.161 180.52 234.881 180.748 235.377 181.204C235.881 181.652 236.133 182.332 236.133 183.244V187H234.717V186.22C234.533 186.5 234.269 186.716 233.925 186.868C233.589 187.012 233.181 187.084 232.701 187.084C232.221 187.084 231.801 187.004 231.441 186.844C231.081 186.676 230.801 186.448 230.601 186.16C230.409 185.864 230.313 185.532 230.313 185.164C230.313 184.588 230.525 184.128 230.949 183.784C231.381 183.432 232.057 183.256 232.977 183.256H234.633V183.16C234.633 182.712 234.497 182.368 234.225 182.128C233.961 181.888 233.565 181.768 233.037 181.768C232.677 181.768 232.321 181.824 231.969 181.936C231.625 182.048 231.333 182.204 231.093 182.404L230.505 181.312C230.841 181.056 231.245 180.86 231.717 180.724C232.189 180.588 232.689 180.52 233.217 180.52ZM233.013 185.992C233.389 185.992 233.721 185.908 234.009 185.74C234.305 185.564 234.513 185.316 234.633 184.996V184.252H233.085C232.221 184.252 231.789 184.536 231.789 185.104C231.789 185.376 231.897 185.592 232.113 185.752C232.329 185.912 232.629 185.992 233.013 185.992ZM239.486 181.528C239.918 180.856 240.678 180.52 241.766 180.52V181.948C241.638 181.924 241.522 181.912 241.418 181.912C240.834 181.912 240.378 182.084 240.05 182.428C239.722 182.764 239.558 183.252 239.558 183.892V187H238.058V180.592H239.486V181.528ZM248.862 180.52C249.806 180.52 250.526 180.748 251.022 181.204C251.526 181.652 251.778 182.332 251.778 183.244V187H250.362V186.22C250.178 186.5 249.914 186.716 249.57 186.868C249.234 187.012 248.826 187.084 248.346 187.084C247.866 187.084 247.446 187.004 247.086 186.844C246.726 186.676 246.446 186.448 246.246 186.16C246.054 185.864 245.958 185.532 245.958 185.164C245.958 184.588 246.17 184.128 246.594 183.784C247.026 183.432 247.702 183.256 248.622 183.256H250.278V183.16C250.278 182.712 250.142 182.368 249.87 182.128C249.606 181.888 249.21 181.768 248.682 181.768C248.322 181.768 247.966 181.824 247.614 181.936C247.27 182.048 246.978 182.204 246.738 182.404L246.15 181.312C246.486 181.056 246.89 180.86 247.362 180.724C247.834 180.588 248.334 180.52 248.862 180.52ZM248.658 185.992C249.034 185.992 249.366 185.908 249.654 185.74C249.95 185.564 250.158 185.316 250.278 184.996V184.252H248.73C247.866 184.252 247.434 184.536 247.434 185.104C247.434 185.376 247.542 185.592 247.758 185.752C247.974 185.912 248.274 185.992 248.658 185.992ZM255.131 181.528C255.563 180.856 256.323 180.52 257.411 180.52V181.948C257.283 181.924 257.167 181.912 257.063 181.912C256.479 181.912 256.023 182.084 255.695 182.428C255.367 182.764 255.203 183.252 255.203 183.892V187H253.703V180.592H255.131V181.528ZM261.565 187.084C260.901 187.084 260.305 186.944 259.777 186.664C259.249 186.384 258.837 185.996 258.541 185.5C258.245 184.996 258.097 184.428 258.097 183.796C258.097 183.164 258.245 182.6 258.541 182.104C258.837 181.608 259.245 181.22 259.765 180.94C260.293 180.66 260.893 180.52 261.565 180.52C262.197 180.52 262.749 180.648 263.221 180.904C263.701 181.16 264.061 181.528 264.301 182.008L263.149 182.68C262.965 182.384 262.733 182.164 262.453 182.02C262.181 181.868 261.881 181.792 261.553 181.792C260.993 181.792 260.529 181.976 260.161 182.344C259.793 182.704 259.609 183.188 259.609 183.796C259.609 184.404 259.789 184.892 260.149 185.26C260.517 185.62 260.985 185.8 261.553 185.8C261.881 185.8 262.181 185.728 262.453 185.584C262.733 185.432 262.965 185.208 263.149 184.912L264.301 185.584C264.053 186.064 263.689 186.436 263.209 186.7C262.737 186.956 262.189 187.084 261.565 187.084ZM269.175 180.52C269.983 180.52 270.631 180.756 271.119 181.228C271.607 181.7 271.851 182.4 271.851 183.328V187H270.351V183.52C270.351 182.96 270.219 182.54 269.955 182.26C269.691 181.972 269.315 181.828 268.827 181.828C268.275 181.828 267.839 181.996 267.519 182.332C267.199 182.66 267.039 183.136 267.039 183.76V187H265.539V178.096H267.039V181.336C267.287 181.072 267.591 180.872 267.951 180.736C268.319 180.592 268.727 180.52 269.175 180.52ZM273.754 180.592H275.254V187H273.754V180.592ZM274.51 179.536C274.238 179.536 274.01 179.452 273.826 179.284C273.642 179.108 273.55 178.892 273.55 178.636C273.55 178.38 273.642 178.168 273.826 178C274.01 177.824 274.238 177.736 274.51 177.736C274.782 177.736 275.01 177.82 275.194 177.988C275.378 178.148 275.47 178.352 275.47 178.6C275.47 178.864 275.378 179.088 275.194 179.272C275.018 179.448 274.79 179.536 274.51 179.536ZM283.222 180.592L280.474 187H278.926L276.178 180.592H277.738L279.73 185.344L281.782 180.592H283.222ZM286.864 187.084C286.216 187.084 285.632 186.944 285.112 186.664C284.592 186.384 284.184 185.996 283.888 185.5C283.6 184.996 283.456 184.428 283.456 183.796C283.456 183.164 283.6 182.6 283.888 182.104C284.184 181.608 284.592 181.22 285.112 180.94C285.632 180.66 286.216 180.52 286.864 180.52C287.52 180.52 288.108 180.66 288.628 180.94C289.148 181.22 289.552 181.608 289.84 182.104C290.136 182.6 290.284 183.164 290.284 183.796C290.284 184.428 290.136 184.996 289.84 185.5C289.552 185.996 289.148 186.384 288.628 186.664C288.108 186.944 287.52 187.084 286.864 187.084ZM286.864 185.8C287.416 185.8 287.872 185.616 288.232 185.248C288.592 184.88 288.772 184.396 288.772 183.796C288.772 183.196 288.592 182.712 288.232 182.344C287.872 181.976 287.416 181.792 286.864 181.792C286.312 181.792 285.856 181.976 285.496 182.344C285.144 182.712 284.968 183.196 284.968 183.796C284.968 184.396 285.144 184.88 285.496 185.248C285.856 185.616 286.312 185.8 286.864 185.8ZM293.698 187.084C293.178 187.084 292.67 187.016 292.174 186.88C291.678 186.744 291.282 186.572 290.986 186.364L291.562 185.224C291.85 185.416 292.194 185.572 292.594 185.692C293.002 185.804 293.402 185.86 293.794 185.86C294.69 185.86 295.138 185.624 295.138 185.152C295.138 184.928 295.022 184.772 294.79 184.684C294.566 184.596 294.202 184.512 293.698 184.432C293.17 184.352 292.738 184.26 292.402 184.156C292.074 184.052 291.786 183.872 291.538 183.616C291.298 183.352 291.178 182.988 291.178 182.524C291.178 181.916 291.43 181.432 291.934 181.072C292.446 180.704 293.134 180.52 293.998 180.52C294.438 180.52 294.878 180.572 295.318 180.676C295.758 180.772 296.118 180.904 296.398 181.072L295.822 182.212C295.278 181.892 294.666 181.732 293.986 181.732C293.546 181.732 293.21 181.8 292.978 181.936C292.754 182.064 292.642 182.236 292.642 182.452C292.642 182.692 292.762 182.864 293.002 182.968C293.25 183.064 293.63 183.156 294.142 183.244C294.654 183.324 295.074 183.416 295.402 183.52C295.73 183.624 296.01 183.8 296.242 184.048C296.482 184.296 296.602 184.648 296.602 185.104C296.602 185.704 296.342 186.184 295.822 186.544C295.302 186.904 294.594 187.084 293.698 187.084Z" fill="#333333"/>
<path fill-rule="evenodd" clip-rule="evenodd" d="M315 61C315 50 308 43 297 43C257.917 43 282.045 43 254 43C246.27 43 242.785 40.7635 238.5 36.5C229.193 27.8197 205.783 14 154.427 14C82.0243 14 65 43 65 43C65 43 65.0004 47.7195 65.0006 61C65.0006 71 73 79 83 79C109.488 79 154 79 154 79L163 87H200L208 79C208 79 242.031 79 297 79C308 79 315 72 315 61C315 58.1323 315 62.8675 315 61Z" fill="#FC79FF"/>
<path fill-rule="evenodd" clip-rule="evenodd" d="M310 61C310 69 306 74 297 74L206 73.9999L198 82H165L156 73.9999C156 73.9999 108.393 73.9999 83.0001 73.9999C74.9643 73.9999 70 68 70 61H65C65 71 73 79 83.0001 79C109.441 79 154 79 154 79L163.027 87H200L208 79L297 79C308 79 315 72 315 61C313.5 61 312 60.9999 310 61Z" fill="black" fill-opacity="0.25"/>
<path fill-rule="evenodd" clip-rule="evenodd" d="M65 61H70V45C70 45 84.993 19 154.286 19C201.342 19 225.557 31.6452 235.5 40C240.292 44.0301 246.712 47.9521 253 48C261.5 48 281.464 48 297 48C304.964 48 310 53.5 310 60V61H314H315C315 50 308 43 297 43C257.993 43 281.008 43 253 43C246 43 242.169 40.1595 238.214 36.2066C228.936 27.4998 205.571 14 154.268 14C81.9103 14 65 43 65 43L65 61Z" fill="white" fill-opacity="0.5"/>
<path d="M80.016 68.144C79.16 68.144 78.384 67.96 77.688 67.592C77 67.216 76.456 66.7 76.056 66.044C75.664 65.38 75.468 64.632 75.468 63.8C75.468 62.968 75.664 62.224 76.056 61.568C76.456 60.904 77 60.388 77.688 60.02C78.384 59.644 79.164 59.456 80.028 59.456C80.756 59.456 81.412 59.584 81.996 59.84C82.588 60.096 83.084 60.464 83.484 60.944L82.236 62.096C81.668 61.44 80.964 61.112 80.124 61.112C79.604 61.112 79.14 61.228 78.732 61.46C78.324 61.684 78.004 62 77.772 62.408C77.548 62.816 77.436 63.28 77.436 63.8C77.436 64.32 77.548 64.784 77.772 65.192C78.004 65.6 78.324 65.92 78.732 66.152C79.14 66.376 79.604 66.488 80.124 66.488C80.964 66.488 81.668 66.156 82.236 65.492L83.484 66.644C83.084 67.132 82.588 67.504 81.996 67.76C81.404 68.016 80.744 68.144 80.016 68.144ZM91.0047 61.544V68H89.2287V67.232C88.9807 67.512 88.6847 67.728 88.3407 67.88C87.9967 68.024 87.6247 68.096 87.2247 68.096C86.3767 68.096 85.7047 67.852 85.2087 67.364C84.7127 66.876 84.4647 66.152 84.4647 65.192V61.544H86.3367V64.916C86.3367 65.956 86.7727 66.476 87.6447 66.476C88.0927 66.476 88.4527 66.332 88.7247 66.044C88.9967 65.748 89.1327 65.312 89.1327 64.736V61.544H91.0047ZM95.343 61.448C96.343 61.448 97.111 61.688 97.647 62.168C98.183 62.64 98.451 63.356 98.451 64.316V68H96.699V67.196C96.347 67.796 95.691 68.096 94.731 68.096C94.235 68.096 93.803 68.012 93.435 67.844C93.075 67.676 92.799 67.444 92.607 67.148C92.415 66.852 92.319 66.516 92.319 66.14C92.319 65.54 92.543 65.068 92.991 64.724C93.447 64.38 94.147 64.208 95.091 64.208H96.579C96.579 63.8 96.455 63.488 96.207 63.272C95.959 63.048 95.587 62.936 95.091 62.936C94.747 62.936 94.407 62.992 94.071 63.104C93.743 63.208 93.463 63.352 93.231 63.536L92.559 62.228C92.911 61.98 93.331 61.788 93.819 61.652C94.315 61.516 94.823 61.448 95.343 61.448ZM95.199 66.836C95.519 66.836 95.803 66.764 96.051 66.62C96.299 66.468 96.475 66.248 96.579 65.96V65.3H95.295C94.527 65.3 94.143 65.552 94.143 66.056C94.143 66.296 94.235 66.488 94.419 66.632C94.611 66.768 94.871 66.836 95.199 66.836ZM104.069 61.448C104.869 61.448 105.513 61.688 106.001 62.168C106.497 62.648 106.745 63.36 106.745 64.304V68H104.873V64.592C104.873 64.08 104.761 63.7 104.537 63.452C104.313 63.196 103.989 63.068 103.565 63.068C103.093 63.068 102.717 63.216 102.437 63.512C102.157 63.8 102.017 64.232 102.017 64.808V68H100.145V61.544H101.933V62.3C102.181 62.028 102.489 61.82 102.857 61.676C103.225 61.524 103.629 61.448 104.069 61.448ZM115.088 59.096V68H113.3V67.256C112.836 67.816 112.164 68.096 111.284 68.096C110.676 68.096 110.124 67.96 109.628 67.688C109.14 67.416 108.756 67.028 108.476 66.524C108.196 66.02 108.056 65.436 108.056 64.772C108.056 64.108 108.196 63.524 108.476 63.02C108.756 62.516 109.14 62.128 109.628 61.856C110.124 61.584 110.676 61.448 111.284 61.448C112.108 61.448 112.752 61.708 113.216 62.228V59.096H115.088ZM111.608 66.56C112.08 66.56 112.472 66.4 112.784 66.08C113.096 65.752 113.252 65.316 113.252 64.772C113.252 64.228 113.096 63.796 112.784 63.476C112.472 63.148 112.08 62.984 111.608 62.984C111.128 62.984 110.732 63.148 110.42 63.476C110.108 63.796 109.952 64.228 109.952 64.772C109.952 65.316 110.108 65.752 110.42 66.08C110.732 66.4 111.128 66.56 111.608 66.56ZM119.893 68.096C119.213 68.096 118.601 67.956 118.057 67.676C117.521 67.388 117.101 66.992 116.797 66.488C116.493 65.984 116.341 65.412 116.341 64.772C116.341 64.132 116.493 63.56 116.797 63.056C117.101 62.552 117.521 62.16 118.057 61.88C118.601 61.592 119.213 61.448 119.893 61.448C120.573 61.448 121.181 61.592 121.717 61.88C122.253 62.16 122.673 62.552 122.977 63.056C123.281 63.56 123.433 64.132 123.433 64.772C123.433 65.412 123.281 65.984 122.977 66.488C122.673 66.992 122.253 67.388 121.717 67.676C121.181 67.956 120.573 68.096 119.893 68.096ZM119.893 66.56C120.373 66.56 120.765 66.4 121.069 66.08C121.381 65.752 121.537 65.316 121.537 64.772C121.537 64.228 121.381 63.796 121.069 63.476C120.765 63.148 120.373 62.984 119.893 62.984C119.413 62.984 119.017 63.148 118.705 63.476C118.393 63.796 118.237 64.228 118.237 64.772C118.237 65.316 118.393 65.752 118.705 66.08C119.017 66.4 119.413 66.56 119.893 66.56ZM125.392 63.788C125.064 63.788 124.788 63.676 124.564 63.452C124.34 63.228 124.228 62.948 124.228 62.612C124.228 62.268 124.34 61.992 124.564 61.784C124.788 61.568 125.064 61.46 125.392 61.46C125.72 61.46 125.996 61.568 126.22 61.784C126.444 61.992 126.556 62.268 126.556 62.612C126.556 62.948 126.444 63.228 126.22 63.452C125.996 63.676 125.72 63.788 125.392 63.788ZM125.392 68.096C125.064 68.096 124.788 67.984 124.564 67.76C124.34 67.536 124.228 67.256 124.228 66.92C124.228 66.576 124.34 66.3 124.564 66.092C124.788 65.876 125.064 65.768 125.392 65.768C125.72 65.768 125.996 65.876 126.22 66.092C126.444 66.3 126.556 66.576 126.556 66.92C126.556 67.256 126.444 67.536 126.22 67.76C125.996 67.984 125.72 68.096 125.392 68.096ZM135.039 61.448C135.639 61.448 136.183 61.588 136.671 61.868C137.167 62.14 137.555 62.528 137.835 63.032C138.115 63.528 138.255 64.108 138.255 64.772C138.255 65.436 138.115 66.02 137.835 66.524C137.555 67.02 137.167 67.408 136.671 67.688C136.183 67.96 135.639 68.096 135.039 68.096C134.215 68.096 133.567 67.836 133.095 67.316V70.328H131.223V61.544H133.011V62.288C133.475 61.728 134.151 61.448 135.039 61.448ZM134.715 66.56C135.195 66.56 135.587 66.4 135.891 66.08C136.203 65.752 136.359 65.316 136.359 64.772C136.359 64.228 136.203 63.796 135.891 63.476C135.587 63.148 135.195 62.984 134.715 62.984C134.235 62.984 133.839 63.148 133.527 63.476C133.223 63.796 133.071 64.228 133.071 64.772C133.071 65.316 133.223 65.752 133.527 66.08C133.839 66.4 134.235 66.56 134.715 66.56ZM141.297 62.396C141.521 62.084 141.821 61.848 142.197 61.688C142.581 61.528 143.021 61.448 143.517 61.448V63.176C143.309 63.16 143.169 63.152 143.097 63.152C142.561 63.152 142.141 63.304 141.837 63.608C141.533 63.904 141.381 64.352 141.381 64.952V68H139.509V61.544H141.297V62.396ZM150.895 64.796C150.895 64.82 150.883 64.988 150.859 65.3H145.975C146.063 65.7 146.271 66.016 146.599 66.248C146.927 66.48 147.335 66.596 147.823 66.596C148.159 66.596 148.455 66.548 148.711 66.452C148.975 66.348 149.219 66.188 149.443 65.972L150.439 67.052C149.831 67.748 148.943 68.096 147.775 68.096C147.047 68.096 146.403 67.956 145.843 67.676C145.283 67.388 144.851 66.992 144.547 66.488C144.243 65.984 144.091 65.412 144.091 64.772C144.091 64.14 144.239 63.572 144.535 63.068C144.839 62.556 145.251 62.16 145.771 61.88C146.299 61.592 146.887 61.448 147.535 61.448C148.167 61.448 148.739 61.584 149.251 61.856C149.763 62.128 150.163 62.52 150.451 63.032C150.747 63.536 150.895 64.124 150.895 64.796ZM147.547 62.864C147.123 62.864 146.767 62.984 146.479 63.224C146.191 63.464 146.015 63.792 145.951 64.208H149.131C149.067 63.8 148.891 63.476 148.603 63.236C148.315 62.988 147.963 62.864 147.547 62.864ZM154.313 68.096C153.777 68.096 153.253 68.032 152.741 67.904C152.229 67.768 151.821 67.6 151.517 67.4L152.141 66.056C152.429 66.24 152.777 66.392 153.185 66.512C153.593 66.624 153.993 66.68 154.385 66.68C155.177 66.68 155.573 66.484 155.573 66.092C155.573 65.908 155.465 65.776 155.249 65.696C155.033 65.616 154.701 65.548 154.253 65.492C153.725 65.412 153.289 65.32 152.945 65.216C152.601 65.112 152.301 64.928 152.045 64.664C151.797 64.4 151.673 64.024 151.673 63.536C151.673 63.128 151.789 62.768 152.021 62.456C152.261 62.136 152.605 61.888 153.053 61.712C153.509 61.536 154.045 61.448 154.661 61.448C155.117 61.448 155.569 61.5 156.017 61.604C156.473 61.7 156.849 61.836 157.145 62.012L156.521 63.344C155.953 63.024 155.333 62.864 154.661 62.864C154.261 62.864 153.961 62.92 153.761 63.032C153.561 63.144 153.461 63.288 153.461 63.464C153.461 63.664 153.569 63.804 153.785 63.884C154.001 63.964 154.345 64.04 154.817 64.112C155.345 64.2 155.777 64.296 156.113 64.4C156.449 64.496 156.741 64.676 156.989 64.94C157.237 65.204 157.361 65.572 157.361 66.044C157.361 66.444 157.241 66.8 157.001 67.112C156.761 67.424 156.409 67.668 155.945 67.844C155.489 68.012 154.945 68.096 154.313 68.096ZM158.516 61.544H160.388V68H158.516V61.544ZM159.452 60.644C159.108 60.644 158.828 60.544 158.612 60.344C158.396 60.144 158.288 59.896 158.288 59.6C158.288 59.304 158.396 59.056 158.612 58.856C158.828 58.656 159.108 58.556 159.452 58.556C159.796 58.556 160.076 58.652 160.292 58.844C160.508 59.036 160.616 59.276 160.616 59.564C160.616 59.876 160.508 60.136 160.292 60.344C160.076 60.544 159.796 60.644 159.452 60.644ZM165.198 68.096C164.518 68.096 163.906 67.956 163.362 67.676C162.826 67.388 162.406 66.992 162.102 66.488C161.798 65.984 161.646 65.412 161.646 64.772C161.646 64.132 161.798 63.56 162.102 63.056C162.406 62.552 162.826 62.16 163.362 61.88C163.906 61.592 164.518 61.448 165.198 61.448C165.878 61.448 166.486 61.592 167.022 61.88C167.558 62.16 167.978 62.552 168.282 63.056C168.586 63.56 168.738 64.132 168.738 64.772C168.738 65.412 168.586 65.984 168.282 66.488C167.978 66.992 167.558 67.388 167.022 67.676C166.486 67.956 165.878 68.096 165.198 68.096ZM165.198 66.56C165.678 66.56 166.07 66.4 166.374 66.08C166.686 65.752 166.842 65.316 166.842 64.772C166.842 64.228 166.686 63.796 166.374 63.476C166.07 63.148 165.678 62.984 165.198 62.984C164.718 62.984 164.322 63.148 164.01 63.476C163.698 63.796 163.542 64.228 163.542 64.772C163.542 65.316 163.698 65.752 164.01 66.08C164.322 66.4 164.718 66.56 165.198 66.56ZM173.913 61.448C174.713 61.448 175.357 61.688 175.845 62.168C176.341 62.648 176.589 63.36 176.589 64.304V68H174.717V64.592C174.717 64.08 174.605 63.7 174.381 63.452C174.157 63.196 173.833 63.068 173.409 63.068C172.937 63.068 172.561 63.216 172.281 63.512C172.001 63.8 171.861 64.232 171.861 64.808V68H169.989V61.544H171.777V62.3C172.025 62.028 172.333 61.82 172.701 61.676C173.069 61.524 173.473 61.448 173.913 61.448ZM180.89 61.448C181.89 61.448 182.658 61.688 183.194 62.168C183.73 62.64 183.998 63.356 183.998 64.316V68H182.246V67.196C181.894 67.796 181.238 68.096 180.278 68.096C179.782 68.096 179.35 68.012 178.982 67.844C178.622 67.676 178.346 67.444 178.154 67.148C177.962 66.852 177.866 66.516 177.866 66.14C177.866 65.54 178.09 65.068 178.538 64.724C178.994 64.38 179.694 64.208 180.638 64.208H182.126C182.126 63.8 182.002 63.488 181.754 63.272C181.506 63.048 181.134 62.936 180.638 62.936C180.294 62.936 179.954 62.992 179.618 63.104C179.29 63.208 179.01 63.352 178.778 63.536L178.106 62.228C178.458 61.98 178.878 61.788 179.366 61.652C179.862 61.516 180.37 61.448 180.89 61.448ZM180.746 66.836C181.066 66.836 181.35 66.764 181.598 66.62C181.846 66.468 182.022 66.248 182.126 65.96V65.3H180.842C180.074 65.3 179.69 65.552 179.69 66.056C179.69 66.296 179.782 66.488 179.966 66.632C180.158 66.768 180.418 66.836 180.746 66.836ZM187.48 62.396C187.704 62.084 188.004 61.848 188.38 61.688C188.764 61.528 189.204 61.448 189.7 61.448V63.176C189.492 63.16 189.352 63.152 189.28 63.152C188.744 63.152 188.324 63.304 188.02 63.608C187.716 63.904 187.564 64.352 187.564 64.952V68H185.692V61.544H187.48V62.396ZM198.075 61.448C198.675 61.448 199.219 61.588 199.707 61.868C200.203 62.14 200.591 62.528 200.871 63.032C201.151 63.528 201.291 64.108 201.291 64.772C201.291 65.436 201.151 66.02 200.871 66.524C200.591 67.02 200.203 67.408 199.707 67.688C199.219 67.96 198.675 68.096 198.075 68.096C197.187 68.096 196.511 67.816 196.047 67.256V68H194.259V59.096H196.131V62.228C196.603 61.708 197.251 61.448 198.075 61.448ZM197.751 66.56C198.231 66.56 198.623 66.4 198.927 66.08C199.239 65.752 199.395 65.316 199.395 64.772C199.395 64.228 199.239 63.796 198.927 63.476C198.623 63.148 198.231 62.984 197.751 62.984C197.271 62.984 196.875 63.148 196.563 63.476C196.259 63.796 196.107 64.228 196.107 64.772C196.107 65.316 196.259 65.752 196.563 66.08C196.875 66.4 197.271 66.56 197.751 66.56ZM205.616 68.096C204.936 68.096 204.324 67.956 203.78 67.676C203.244 67.388 202.824 66.992 202.52 66.488C202.216 65.984 202.064 65.412 202.064 64.772C202.064 64.132 202.216 63.56 202.52 63.056C202.824 62.552 203.244 62.16 203.78 61.88C204.324 61.592 204.936 61.448 205.616 61.448C206.296 61.448 206.904 61.592 207.44 61.88C207.976 62.16 208.396 62.552 208.7 63.056C209.004 63.56 209.156 64.132 209.156 64.772C209.156 65.412 209.004 65.984 208.7 66.488C208.396 66.992 207.976 67.388 207.44 67.676C206.904 67.956 206.296 68.096 205.616 68.096ZM205.616 66.56C206.096 66.56 206.488 66.4 206.792 66.08C207.104 65.752 207.26 65.316 207.26 64.772C207.26 64.228 207.104 63.796 206.792 63.476C206.488 63.148 206.096 62.984 205.616 62.984C205.136 62.984 204.74 63.148 204.428 63.476C204.116 63.796 203.96 64.228 203.96 64.772C203.96 65.316 204.116 65.752 204.428 66.08C204.74 66.4 205.136 66.56 205.616 66.56ZM214.571 67.688C214.387 67.824 214.159 67.928 213.887 68C213.623 68.064 213.343 68.096 213.047 68.096C212.279 68.096 211.683 67.9 211.259 67.508C210.843 67.116 210.635 66.54 210.635 65.78V63.128H209.639V61.688H210.635V60.116H212.507V61.688H214.115V63.128H212.507V65.756C212.507 66.028 212.575 66.24 212.711 66.392C212.855 66.536 213.055 66.608 213.311 66.608C213.607 66.608 213.859 66.528 214.067 66.368L214.571 67.688ZM218.495 68.096C217.815 68.096 217.203 67.956 216.659 67.676C216.123 67.388 215.703 66.992 215.399 66.488C215.095 65.984 214.943 65.412 214.943 64.772C214.943 64.132 215.095 63.56 215.399 63.056C215.703 62.552 216.123 62.16 216.659 61.88C217.203 61.592 217.815 61.448 218.495 61.448C219.175 61.448 219.783 61.592 220.319 61.88C220.855 62.16 221.275 62.552 221.579 63.056C221.883 63.56 222.035 64.132 222.035 64.772C222.035 65.412 221.883 65.984 221.579 66.488C221.275 66.992 220.855 67.388 220.319 67.676C219.783 67.956 219.175 68.096 218.495 68.096ZM218.495 66.56C218.975 66.56 219.367 66.4 219.671 66.08C219.983 65.752 220.139 65.316 220.139 64.772C220.139 64.228 219.983 63.796 219.671 63.476C219.367 63.148 218.975 62.984 218.495 62.984C218.015 62.984 217.619 63.148 217.307 63.476C216.995 63.796 216.839 64.228 216.839 64.772C216.839 65.316 216.995 65.752 217.307 66.08C217.619 66.4 218.015 66.56 218.495 66.56ZM218.999 58.988H221.015L218.843 60.716H217.379L218.999 58.988ZM227.21 61.448C228.01 61.448 228.654 61.688 229.142 62.168C229.638 62.648 229.886 63.36 229.886 64.304V68H228.014V64.592C228.014 64.08 227.902 63.7 227.678 63.452C227.454 63.196 227.13 63.068 226.706 63.068C226.234 63.068 225.858 63.216 225.578 63.512C225.298 63.8 225.158 64.232 225.158 64.808V68H223.286V61.544H225.074V62.3C225.322 62.028 225.63 61.82 225.998 61.676C226.366 61.524 226.77 61.448 227.21 61.448ZM234.981 61.544H236.853V68H234.981V61.544ZM235.917 60.644C235.573 60.644 235.293 60.544 235.077 60.344C234.861 60.144 234.753 59.896 234.753 59.6C234.753 59.304 234.861 59.056 235.077 58.856C235.293 58.656 235.573 58.556 235.917 58.556C236.261 58.556 236.541 58.652 236.757 58.844C236.973 59.036 237.081 59.276 237.081 59.564C237.081 59.876 236.973 60.136 236.757 60.344C236.541 60.544 236.261 60.644 235.917 60.644ZM242.515 61.448C243.315 61.448 243.959 61.688 244.447 62.168C244.943 62.648 245.191 63.36 245.191 64.304V68H243.319V64.592C243.319 64.08 243.207 63.7 242.983 63.452C242.759 63.196 242.435 63.068 242.011 63.068C241.539 63.068 241.163 63.216 240.883 63.512C240.603 63.8 240.463 64.232 240.463 64.808V68H238.591V61.544H240.379V62.3C240.627 62.028 240.935 61.82 241.303 61.676C241.671 61.524 242.075 61.448 242.515 61.448ZM246.887 61.544H248.759V68H246.887V61.544ZM247.823 60.644C247.479 60.644 247.199 60.544 246.983 60.344C246.767 60.144 246.659 59.896 246.659 59.6C246.659 59.304 246.767 59.056 246.983 58.856C247.199 58.656 247.479 58.556 247.823 58.556C248.167 58.556 248.447 58.652 248.663 58.844C248.879 59.036 248.987 59.276 248.987 59.564C248.987 59.876 248.879 60.136 248.663 60.344C248.447 60.544 248.167 60.644 247.823 60.644ZM253.617 68.096C252.929 68.096 252.309 67.956 251.757 67.676C251.213 67.388 250.785 66.992 250.473 66.488C250.169 65.984 250.017 65.412 250.017 64.772C250.017 64.132 250.169 63.56 250.473 63.056C250.785 62.552 251.213 62.16 251.757 61.88C252.309 61.592 252.929 61.448 253.617 61.448C254.297 61.448 254.889 61.592 255.393 61.88C255.905 62.16 256.277 62.564 256.509 63.092L255.057 63.872C254.721 63.28 254.237 62.984 253.605 62.984C253.117 62.984 252.713 63.144 252.393 63.464C252.073 63.784 251.913 64.22 251.913 64.772C251.913 65.324 252.073 65.76 252.393 66.08C252.713 66.4 253.117 66.56 253.605 66.56C254.245 66.56 254.729 66.264 255.057 65.672L256.509 66.464C256.277 66.976 255.905 67.376 255.393 67.664C254.889 67.952 254.297 68.096 253.617 68.096ZM257.587 61.544H259.459V68H257.587V61.544ZM258.523 60.644C258.179 60.644 257.899 60.544 257.683 60.344C257.467 60.144 257.359 59.896 257.359 59.6C257.359 59.304 257.467 59.056 257.683 58.856C257.899 58.656 258.179 58.556 258.523 58.556C258.867 58.556 259.147 58.652 259.363 58.844C259.579 59.036 259.687 59.276 259.687 59.564C259.687 59.876 259.579 60.136 259.363 60.344C259.147 60.544 258.867 60.644 258.523 60.644ZM263.8 61.448C264.8 61.448 265.568 61.688 266.104 62.168C266.64 62.64 266.908 63.356 266.908 64.316V68H265.156V67.196C264.804 67.796 264.148 68.096 263.188 68.096C262.692 68.096 262.26 68.012 261.892 67.844C261.532 67.676 261.256 67.444 261.064 67.148C260.872 66.852 260.776 66.516 260.776 66.14C260.776 65.54 261 65.068 261.448 64.724C261.904 64.38 262.604 64.208 263.548 64.208H265.036C265.036 63.8 264.912 63.488 264.664 63.272C264.416 63.048 264.044 62.936 263.548 62.936C263.204 62.936 262.864 62.992 262.528 63.104C262.2 63.208 261.92 63.352 261.688 63.536L261.016 62.228C261.368 61.98 261.788 61.788 262.276 61.652C262.772 61.516 263.28 61.448 263.8 61.448ZM263.656 66.836C263.976 66.836 264.26 66.764 264.508 66.62C264.756 66.468 264.932 66.248 265.036 65.96V65.3H263.752C262.984 65.3 262.6 65.552 262.6 66.056C262.6 66.296 262.692 66.488 262.876 66.632C263.068 66.768 263.328 66.836 263.656 66.836ZM270.39 62.396C270.614 62.084 270.914 61.848 271.29 61.688C271.674 61.528 272.114 61.448 272.61 61.448V63.176C272.402 63.16 272.262 63.152 272.19 63.152C271.654 63.152 271.234 63.304 270.93 63.608C270.626 63.904 270.474 64.352 270.474 64.952V68H268.602V61.544H270.39V62.396ZM274.361 68.096C274.033 68.096 273.757 67.984 273.533 67.76C273.309 67.536 273.197 67.256 273.197 66.92C273.197 66.576 273.309 66.3 273.533 66.092C273.757 65.876 274.033 65.768 274.361 65.768C274.689 65.768 274.965 65.876 275.189 66.092C275.413 66.3 275.525 66.576 275.525 66.92C275.525 67.256 275.413 67.536 275.189 67.76C274.965 67.984 274.689 68.096 274.361 68.096Z" fill="#333333"/>
</g>
<defs>
<filter id="filter0_d_4403_110212" x="0" y="0" width="380" height="224" filterUnits="userSpaceOnUse" color-interpolation-filters="sRGB">
<feFlood flood-opacity="0" result="BackgroundImageFix"/>
<feColorMatrix in="SourceAlpha" type="matrix" values="0 0 0 0 0 0 0 0 0 0 0 0 0 0 0 0 0 0 127 0" result="hardAlpha"/>
<feOffset dy="4"/>
<feColorMatrix type="matrix" values="0 0 0 0 0 0 0 0 0 0 0 0 0 0 0 0 0 0 0.25 0"/>
<feBlend mode="normal" in2="BackgroundImageFix" result="effect1_dropShadow_4403_110212"/>
<feBlend mode="normal" in="SourceGraphic" in2="effect1_dropShadow_4403_110212" result="shape"/>
</filter>
</defs>
</svg>
