<svg width="380" height="480" viewBox="0 0 380 480" fill="none" xmlns="http://www.w3.org/2000/svg">
<g clip-path="url(#clip0_4970_153650)">
<rect width="380" height="480" rx="20" fill="#4F4F4F"/>
<path d="M23.504 17.312H20.064V14.8H30.096V17.312H26.672V26H23.504V17.312ZM31.2763 14.8H34.4443V26H31.2763V14.8ZM45.6901 23.552V26H36.6981V14.8H45.4821V17.248H39.8341V19.136H44.8101V21.504H39.8341V23.552H45.6901ZM57.5601 26L57.5281 20.064L54.6481 24.896H53.2401L50.3761 20.224V26H47.4481V14.8H50.0561L53.9921 21.264L57.8321 14.8H60.4401L60.4721 26H57.5601ZM67.8338 14.8C68.8471 14.8 69.7271 14.9707 70.4738 15.312C71.2204 15.6427 71.7964 16.1227 72.2018 16.752C72.6071 17.3707 72.8098 18.1013 72.8098 18.944C72.8098 19.7867 72.6071 20.5173 72.2018 21.136C71.7964 21.7547 71.2204 22.2347 70.4738 22.576C69.7271 22.9067 68.8471 23.072 67.8338 23.072H65.8818V26H62.7138V14.8H67.8338ZM67.6418 20.576C68.2924 20.576 68.7831 20.4373 69.1138 20.16C69.4444 19.872 69.6098 19.4667 69.6098 18.944C69.6098 18.4213 69.4444 18.016 69.1138 17.728C68.7831 17.44 68.2924 17.296 67.6418 17.296H65.8818V20.576H67.6418ZM80.1586 26.224C78.9746 26.224 77.908 25.9733 76.9586 25.472C76.02 24.9707 75.2786 24.2773 74.7346 23.392C74.2013 22.5067 73.9346 21.5093 73.9346 20.4C73.9346 19.2907 74.2013 18.2933 74.7346 17.408C75.2786 16.5227 76.02 15.8293 76.9586 15.328C77.908 14.8267 78.9746 14.576 80.1586 14.576C81.3426 14.576 82.404 14.8267 83.3426 15.328C84.292 15.8293 85.0333 16.5227 85.5666 17.408C86.1106 18.2933 86.3826 19.2907 86.3826 20.4C86.3826 21.5093 86.1106 22.5067 85.5666 23.392C85.0333 24.2773 84.292 24.9707 83.3426 25.472C82.404 25.9733 81.3426 26.224 80.1586 26.224ZM80.1586 23.6C80.724 23.6 81.236 23.4667 81.6946 23.2C82.1533 22.9333 82.516 22.56 82.7826 22.08C83.0493 21.5893 83.1826 21.0293 83.1826 20.4C83.1826 19.7707 83.0493 19.216 82.7826 18.736C82.516 18.2453 82.1533 17.8667 81.6946 17.6C81.236 17.3333 80.724 17.2 80.1586 17.2C79.5933 17.2 79.0813 17.3333 78.6226 17.6C78.164 17.8667 77.8013 18.2453 77.5346 18.736C77.268 19.216 77.1346 19.7707 77.1346 20.4C77.1346 21.0293 77.268 21.5893 77.5346 22.08C77.8013 22.56 78.164 22.9333 78.6226 23.2C79.0813 23.4667 79.5933 23.6 80.1586 23.6ZM92.6981 14.8H97.9941C99.2208 14.8 100.309 15.0293 101.258 15.488C102.207 15.9467 102.943 16.5973 103.466 17.44C103.989 18.2827 104.25 19.2693 104.25 20.4C104.25 21.5307 103.989 22.5173 103.466 23.36C102.943 24.2027 102.207 24.8533 101.258 25.312C100.309 25.7707 99.2208 26 97.9941 26H92.6981V14.8ZM97.8661 23.472C98.8261 23.472 99.5941 23.2 100.17 22.656C100.757 22.112 101.05 21.36 101.05 20.4C101.05 19.44 100.757 18.688 100.17 18.144C99.5941 17.6 98.8261 17.328 97.8661 17.328H95.8661V23.472H97.8661ZM114.909 23.552V26H105.917V14.8H114.701V17.248H109.053V19.136H114.029V21.504H109.053V23.552H114.909ZM126.491 26.224C124.827 26.224 123.531 25.7707 122.603 24.864C121.686 23.9573 121.227 22.672 121.227 21.008V14.8H124.395V20.912C124.395 22.704 125.104 23.6 126.523 23.6C127.931 23.6 128.635 22.704 128.635 20.912V14.8H131.755V21.008C131.755 22.672 131.291 23.9573 130.363 24.864C129.446 25.7707 128.155 26.224 126.491 26.224ZM137.837 26.224C136.931 26.224 136.051 26.112 135.197 25.888C134.344 25.664 133.651 25.3653 133.117 24.992L134.157 22.656C134.659 22.9867 135.24 23.2533 135.901 23.456C136.563 23.6587 137.213 23.76 137.853 23.76C139.069 23.76 139.677 23.456 139.677 22.848C139.677 22.528 139.501 22.2933 139.149 22.144C138.808 21.984 138.253 21.8187 137.485 21.648C136.643 21.4667 135.939 21.2747 135.373 21.072C134.808 20.8587 134.323 20.5227 133.917 20.064C133.512 19.6053 133.309 18.9867 133.309 18.208C133.309 17.5253 133.496 16.912 133.869 16.368C134.243 15.8133 134.797 15.376 135.533 15.056C136.28 14.736 137.192 14.576 138.269 14.576C139.005 14.576 139.731 14.6613 140.445 14.832C141.16 14.992 141.789 15.232 142.333 15.552L141.357 17.904C140.291 17.328 139.256 17.04 138.253 17.04C137.624 17.04 137.165 17.136 136.877 17.328C136.589 17.5093 136.445 17.7493 136.445 18.048C136.445 18.3467 136.616 18.5707 136.957 18.72C137.299 18.8693 137.848 19.024 138.605 19.184C139.459 19.3653 140.163 19.5627 140.717 19.776C141.283 19.9787 141.768 20.3093 142.173 20.768C142.589 21.216 142.797 21.8293 142.797 22.608C142.797 23.28 142.611 23.888 142.237 24.432C141.864 24.976 141.304 25.4133 140.557 25.744C139.811 26.064 138.904 26.224 137.837 26.224ZM149.909 26.224C148.725 26.224 147.658 25.9733 146.709 25.472C145.77 24.9707 145.029 24.2773 144.485 23.392C143.951 22.5067 143.685 21.5093 143.685 20.4C143.685 19.2907 143.951 18.2933 144.485 17.408C145.029 16.5227 145.77 15.8293 146.709 15.328C147.658 14.8267 148.725 14.576 149.909 14.576C151.093 14.576 152.154 14.8267 153.093 15.328C154.042 15.8293 154.783 16.5227 155.317 17.408C155.861 18.2933 156.133 19.2907 156.133 20.4C156.133 21.5093 155.861 22.5067 155.317 23.392C154.783 24.2773 154.042 24.9707 153.093 25.472C152.154 25.9733 151.093 26.224 149.909 26.224ZM149.909 23.6C150.474 23.6 150.986 23.4667 151.445 23.2C151.903 22.9333 152.266 22.56 152.533 22.08C152.799 21.5893 152.933 21.0293 152.933 20.4C152.933 19.7707 152.799 19.216 152.533 18.736C152.266 18.2453 151.903 17.8667 151.445 17.6C150.986 17.3333 150.474 17.2 149.909 17.2C149.343 17.2 148.831 17.3333 148.373 17.6C147.914 17.8667 147.551 18.2453 147.285 18.736C147.018 19.216 146.885 19.7707 146.885 20.4C146.885 21.0293 147.018 21.5893 147.285 22.08C147.551 22.56 147.914 22.9333 148.373 23.2C148.831 23.4667 149.343 23.6 149.909 23.6Z" fill="#F2F2F2"/>
<rect y="42" width="380" height="440" rx="20" fill="#333333"/>
<path d="M32.726 53.4V66H30.926V60.384H23.69V66H21.89V53.4H23.69V58.818H30.926V53.4H32.726ZM40.3314 66.108C39.3834 66.108 38.5314 65.898 37.7754 65.478C37.0194 65.058 36.4254 64.482 35.9934 63.75C35.5734 63.006 35.3634 62.166 35.3634 61.23C35.3634 60.294 35.5734 59.46 35.9934 58.728C36.4254 57.984 37.0194 57.408 37.7754 57C38.5314 56.58 39.3834 56.37 40.3314 56.37C41.2794 56.37 42.1254 56.58 42.8694 57C43.6254 57.408 44.2134 57.984 44.6334 58.728C45.0654 59.46 45.2814 60.294 45.2814 61.23C45.2814 62.166 45.0654 63.006 44.6334 63.75C44.2134 64.482 43.6254 65.058 42.8694 65.478C42.1254 65.898 41.2794 66.108 40.3314 66.108ZM40.3314 64.596C40.9434 64.596 41.4894 64.458 41.9694 64.182C42.4614 63.894 42.8454 63.498 43.1214 62.994C43.3974 62.478 43.5354 61.89 43.5354 61.23C43.5354 60.57 43.3974 59.988 43.1214 59.484C42.8454 58.968 42.4614 58.572 41.9694 58.296C41.4894 58.02 40.9434 57.882 40.3314 57.882C39.7194 57.882 39.1674 58.02 38.6754 58.296C38.1954 58.572 37.8114 58.968 37.5234 59.484C37.2474 59.988 37.1094 60.57 37.1094 61.23C37.1094 61.89 37.2474 62.478 37.5234 62.994C37.8114 63.498 38.1954 63.894 38.6754 64.182C39.1674 64.458 39.7194 64.596 40.3314 64.596ZM55.8495 56.46L51.2235 66.954C50.8155 67.926 50.3355 68.61 49.7835 69.006C49.2435 69.402 48.5895 69.6 47.8215 69.6C47.3535 69.6 46.8975 69.522 46.4535 69.366C46.0215 69.222 45.6615 69.006 45.3735 68.718L46.1115 67.422C46.6035 67.89 47.1735 68.124 47.8215 68.124C48.2415 68.124 48.5895 68.01 48.8655 67.782C49.1535 67.566 49.4115 67.188 49.6395 66.648L49.9455 65.982L45.7335 56.46H47.5335L50.8635 64.092L54.1575 56.46H55.8495ZM57.2966 63.642C57.6326 63.642 57.9086 63.762 58.1246 64.002C58.3526 64.23 58.4666 64.518 58.4666 64.866C58.4666 65.046 58.4426 65.22 58.3946 65.388C58.3586 65.556 58.2806 65.814 58.1606 66.162L57.3146 68.664H56.1806L56.8466 65.982C56.6186 65.898 56.4326 65.76 56.2886 65.568C56.1566 65.364 56.0906 65.13 56.0906 64.866C56.0906 64.506 56.2046 64.212 56.4326 63.984C56.6606 63.756 56.9486 63.642 57.2966 63.642ZM68.9087 53.4V66H67.1267V54.966H64.2827V53.4H68.9087ZM75.2648 58.422C77.0648 58.422 78.3848 58.764 79.2248 59.448C80.0768 60.12 80.5028 61.044 80.5028 62.22C80.5028 62.964 80.3228 63.636 79.9628 64.236C79.6148 64.824 79.0808 65.292 78.3608 65.64C77.6528 65.976 76.7768 66.144 75.7328 66.144C74.8448 66.144 73.9868 66.012 73.1588 65.748C72.3308 65.472 71.6468 65.094 71.1068 64.614L71.9348 63.192C72.3668 63.6 72.9188 63.93 73.5908 64.182C74.2628 64.422 74.9708 64.542 75.7148 64.542C76.6628 64.542 77.3948 64.344 77.9108 63.948C78.4388 63.54 78.7028 62.988 78.7028 62.292C78.7028 61.536 78.4148 60.966 77.8388 60.582C77.2628 60.186 76.2788 59.988 74.8868 59.988H72.0248L72.6908 53.4H79.8008V54.966H74.2028L73.8608 58.422H75.2648ZM96.6087 52.644V66H94.9527V64.488C94.5687 65.016 94.0827 65.418 93.4947 65.694C92.9067 65.97 92.2587 66.108 91.5507 66.108C90.6267 66.108 89.7987 65.904 89.0667 65.496C88.3347 65.088 87.7587 64.518 87.3387 63.786C86.9307 63.042 86.7267 62.19 86.7267 61.23C86.7267 60.27 86.9307 59.424 87.3387 58.692C87.7587 57.96 88.3347 57.39 89.0667 56.982C89.7987 56.574 90.6267 56.37 91.5507 56.37C92.2347 56.37 92.8647 56.502 93.4407 56.766C94.0167 57.018 94.4967 57.396 94.8807 57.9V52.644H96.6087ZM91.6947 64.596C92.2947 64.596 92.8407 64.458 93.3327 64.182C93.8247 63.894 94.2087 63.498 94.4847 62.994C94.7607 62.478 94.8987 61.89 94.8987 61.23C94.8987 60.57 94.7607 59.988 94.4847 59.484C94.2087 58.968 93.8247 58.572 93.3327 58.296C92.8407 58.02 92.2947 57.882 91.6947 57.882C91.0827 57.882 90.5307 58.02 90.0387 58.296C89.5587 58.572 89.1747 58.968 88.8867 59.484C88.6107 59.988 88.4727 60.57 88.4727 61.23C88.4727 61.89 88.6107 62.478 88.8867 62.994C89.1747 63.498 89.5587 63.894 90.0387 64.182C90.5307 64.458 91.0827 64.596 91.6947 64.596ZM108.5 61.284C108.5 61.416 108.488 61.59 108.464 61.806H100.724C100.832 62.646 101.198 63.324 101.822 63.84C102.458 64.344 103.244 64.596 104.18 64.596C105.32 64.596 106.238 64.212 106.934 63.444L107.888 64.56C107.456 65.064 106.916 65.448 106.268 65.712C105.632 65.976 104.918 66.108 104.126 66.108C103.118 66.108 102.224 65.904 101.444 65.496C100.664 65.076 100.058 64.494 99.6262 63.75C99.2062 63.006 98.9962 62.166 98.9962 61.23C98.9962 60.306 99.2002 59.472 99.6082 58.728C100.028 57.984 100.598 57.408 101.318 57C102.05 56.58 102.872 56.37 103.784 56.37C104.696 56.37 105.506 56.58 106.214 57C106.934 57.408 107.492 57.984 107.888 58.728C108.296 59.472 108.5 60.324 108.5 61.284ZM103.784 57.828C102.956 57.828 102.26 58.08 101.696 58.584C101.144 59.088 100.82 59.748 100.724 60.564H106.844C106.748 59.76 106.418 59.106 105.854 58.602C105.302 58.086 104.612 57.828 103.784 57.828ZM120.828 56.37C122.04 56.37 123 56.724 123.708 57.432C124.428 58.128 124.788 59.154 124.788 60.51V66H123.06V60.708C123.06 59.784 122.838 59.088 122.394 58.62C121.95 58.152 121.314 57.918 120.486 57.918C119.55 57.918 118.812 58.194 118.272 58.746C117.732 59.286 117.462 60.066 117.462 61.086V66H115.734V56.46H117.39V57.9C117.738 57.408 118.206 57.03 118.794 56.766C119.394 56.502 120.072 56.37 120.828 56.37ZM132.124 66.108C131.176 66.108 130.324 65.898 129.568 65.478C128.812 65.058 128.218 64.482 127.786 63.75C127.366 63.006 127.156 62.166 127.156 61.23C127.156 60.294 127.366 59.46 127.786 58.728C128.218 57.984 128.812 57.408 129.568 57C130.324 56.58 131.176 56.37 132.124 56.37C133.072 56.37 133.918 56.58 134.662 57C135.418 57.408 136.006 57.984 136.426 58.728C136.858 59.46 137.074 60.294 137.074 61.23C137.074 62.166 136.858 63.006 136.426 63.75C136.006 64.482 135.418 65.058 134.662 65.478C133.918 65.898 133.072 66.108 132.124 66.108ZM132.124 64.596C132.736 64.596 133.282 64.458 133.762 64.182C134.254 63.894 134.638 63.498 134.914 62.994C135.19 62.478 135.328 61.89 135.328 61.23C135.328 60.57 135.19 59.988 134.914 59.484C134.638 58.968 134.254 58.572 133.762 58.296C133.282 58.02 132.736 57.882 132.124 57.882C131.512 57.882 130.96 58.02 130.468 58.296C129.988 58.572 129.604 58.968 129.316 59.484C129.04 59.988 128.902 60.57 128.902 61.23C128.902 61.89 129.04 62.478 129.316 62.994C129.604 63.498 129.988 63.894 130.468 64.182C130.96 64.458 131.512 64.596 132.124 64.596ZM147.643 56.46L143.467 66H141.703L137.526 56.46H139.327L142.603 64.11L145.951 56.46H147.643ZM149.255 56.46H150.983V66H149.255V56.46ZM150.119 54.624C149.783 54.624 149.501 54.516 149.273 54.3C149.057 54.084 148.949 53.82 148.949 53.508C148.949 53.196 149.057 52.932 149.273 52.716C149.501 52.488 149.783 52.374 150.119 52.374C150.455 52.374 150.731 52.482 150.947 52.698C151.175 52.902 151.289 53.16 151.289 53.472C151.289 53.796 151.175 54.072 150.947 54.3C150.731 54.516 150.455 54.624 150.119 54.624ZM162.905 61.284C162.905 61.416 162.893 61.59 162.869 61.806H155.129C155.237 62.646 155.603 63.324 156.227 63.84C156.863 64.344 157.649 64.596 158.585 64.596C159.725 64.596 160.643 64.212 161.339 63.444L162.293 64.56C161.861 65.064 161.321 65.448 160.673 65.712C160.037 65.976 159.323 66.108 158.531 66.108C157.523 66.108 156.629 65.904 155.849 65.496C155.069 65.076 154.463 64.494 154.031 63.75C153.611 63.006 153.401 62.166 153.401 61.23C153.401 60.306 153.605 59.472 154.013 58.728C154.433 57.984 155.003 57.408 155.723 57C156.455 56.58 157.277 56.37 158.189 56.37C159.101 56.37 159.911 56.58 160.619 57C161.339 57.408 161.897 57.984 162.293 58.728C162.701 59.472 162.905 60.324 162.905 61.284ZM158.189 57.828C157.361 57.828 156.665 58.08 156.101 58.584C155.549 59.088 155.225 59.748 155.129 60.564H161.249C161.153 59.76 160.823 59.106 160.259 58.602C159.707 58.086 159.017 57.828 158.189 57.828ZM177.238 56.37C178.438 56.37 179.386 56.718 180.082 57.414C180.79 58.11 181.144 59.142 181.144 60.51V66H179.416V60.708C179.416 59.784 179.2 59.088 178.768 58.62C178.348 58.152 177.742 57.918 176.95 57.918C176.074 57.918 175.378 58.194 174.862 58.746C174.346 59.286 174.088 60.066 174.088 61.086V66H172.36V60.708C172.36 59.784 172.144 59.088 171.712 58.62C171.292 58.152 170.686 57.918 169.894 57.918C169.018 57.918 168.322 58.194 167.806 58.746C167.29 59.286 167.032 60.066 167.032 61.086V66H165.304V56.46H166.96V57.882C167.308 57.39 167.764 57.018 168.328 56.766C168.892 56.502 169.534 56.37 170.254 56.37C170.998 56.37 171.658 56.52 172.234 56.82C172.81 57.12 173.254 57.558 173.566 58.134C173.926 57.582 174.424 57.15 175.06 56.838C175.708 56.526 176.434 56.37 177.238 56.37ZM189.382 56.37C190.306 56.37 191.134 56.574 191.866 56.982C192.598 57.39 193.168 57.96 193.576 58.692C193.996 59.424 194.206 60.27 194.206 61.23C194.206 62.19 193.996 63.042 193.576 63.786C193.168 64.518 192.598 65.088 191.866 65.496C191.134 65.904 190.306 66.108 189.382 66.108C188.674 66.108 188.026 65.97 187.438 65.694C186.85 65.418 186.364 65.016 185.98 64.488V66H184.324V52.644H186.052V57.9C186.436 57.396 186.916 57.018 187.492 56.766C188.068 56.502 188.698 56.37 189.382 56.37ZM189.238 64.596C189.85 64.596 190.396 64.458 190.876 64.182C191.368 63.894 191.752 63.498 192.028 62.994C192.316 62.478 192.46 61.89 192.46 61.23C192.46 60.57 192.316 59.988 192.028 59.484C191.752 58.968 191.368 58.572 190.876 58.296C190.396 58.02 189.85 57.882 189.238 57.882C188.638 57.882 188.092 58.02 187.6 58.296C187.108 58.572 186.724 58.968 186.448 59.484C186.172 59.988 186.034 60.57 186.034 61.23C186.034 61.89 186.172 62.478 186.448 62.994C186.724 63.498 187.108 63.894 187.6 64.182C188.092 64.458 188.638 64.596 189.238 64.596ZM198.249 58.062C198.549 57.51 198.993 57.09 199.581 56.802C200.169 56.514 200.883 56.37 201.723 56.37V58.044C201.627 58.032 201.495 58.026 201.327 58.026C200.391 58.026 199.653 58.308 199.113 58.872C198.585 59.424 198.321 60.216 198.321 61.248V66H196.593V56.46H198.249V58.062ZM212.387 61.284C212.387 61.416 212.375 61.59 212.351 61.806H204.611C204.719 62.646 205.085 63.324 205.709 63.84C206.345 64.344 207.131 64.596 208.067 64.596C209.207 64.596 210.125 64.212 210.821 63.444L211.775 64.56C211.343 65.064 210.803 65.448 210.155 65.712C209.519 65.976 208.805 66.108 208.013 66.108C207.005 66.108 206.111 65.904 205.331 65.496C204.551 65.076 203.945 64.494 203.513 63.75C203.093 63.006 202.883 62.166 202.883 61.23C202.883 60.306 203.087 59.472 203.495 58.728C203.915 57.984 204.485 57.408 205.205 57C205.937 56.58 206.759 56.37 207.671 56.37C208.583 56.37 209.393 56.58 210.101 57C210.821 57.408 211.379 57.984 211.775 58.728C212.183 59.472 212.387 60.324 212.387 61.284ZM207.671 57.828C206.843 57.828 206.147 58.08 205.583 58.584C205.031 59.088 204.707 59.748 204.611 60.564H210.731C210.635 59.76 210.305 59.106 209.741 58.602C209.189 58.086 208.499 57.828 207.671 57.828Z" fill="#F2F2F2"/>
<path d="M23.732 434.12C23.084 434.12 22.456 434.028 21.848 433.844C21.248 433.66 20.772 433.416 20.42 433.112L20.96 431.9C21.304 432.172 21.724 432.396 22.22 432.572C22.724 432.74 23.228 432.824 23.732 432.824C24.356 432.824 24.82 432.724 25.124 432.524C25.436 432.324 25.592 432.06 25.592 431.732C25.592 431.492 25.504 431.296 25.328 431.144C25.16 430.984 24.944 430.86 24.68 430.772C24.416 430.684 24.056 430.584 23.6 430.472C22.96 430.32 22.44 430.168 22.04 430.016C21.648 429.864 21.308 429.628 21.02 429.308C20.74 428.98 20.6 428.54 20.6 427.988C20.6 427.524 20.724 427.104 20.972 426.728C21.228 426.344 21.608 426.04 22.112 425.816C22.624 425.592 23.248 425.48 23.984 425.48C24.496 425.48 25 425.544 25.496 425.672C25.992 425.8 26.42 425.984 26.78 426.224L26.288 427.436C25.92 427.22 25.536 427.056 25.136 426.944C24.736 426.832 24.348 426.776 23.972 426.776C23.356 426.776 22.896 426.88 22.592 427.088C22.296 427.296 22.148 427.572 22.148 427.916C22.148 428.156 22.232 428.352 22.4 428.504C22.576 428.656 22.796 428.776 23.06 428.864C23.324 428.952 23.684 429.052 24.14 429.164C24.764 429.308 25.276 429.46 25.676 429.62C26.076 429.772 26.416 430.008 26.696 430.328C26.984 430.648 27.128 431.08 27.128 431.624C27.128 432.088 27 432.508 26.744 432.884C26.496 433.26 26.116 433.56 25.604 433.784C25.092 434.008 24.468 434.12 23.732 434.12ZM31.4109 434.084C30.7629 434.084 30.1789 433.944 29.6589 433.664C29.1389 433.384 28.7309 432.996 28.4349 432.5C28.1469 431.996 28.0029 431.428 28.0029 430.796C28.0029 430.164 28.1469 429.6 28.4349 429.104C28.7309 428.608 29.1389 428.22 29.6589 427.94C30.1789 427.66 30.7629 427.52 31.4109 427.52C32.0669 427.52 32.6549 427.66 33.1749 427.94C33.6949 428.22 34.0989 428.608 34.3869 429.104C34.6829 429.6 34.8309 430.164 34.8309 430.796C34.8309 431.428 34.6829 431.996 34.3869 432.5C34.0989 432.996 33.6949 433.384 33.1749 433.664C32.6549 433.944 32.0669 434.084 31.4109 434.084ZM31.4109 432.8C31.9629 432.8 32.4189 432.616 32.7789 432.248C33.1389 431.88 33.3189 431.396 33.3189 430.796C33.3189 430.196 33.1389 429.712 32.7789 429.344C32.4189 428.976 31.9629 428.792 31.4109 428.792C30.8589 428.792 30.4029 428.976 30.0429 429.344C29.6909 429.712 29.5149 430.196 29.5149 430.796C29.5149 431.396 29.6909 431.88 30.0429 432.248C30.4029 432.616 30.8589 432.8 31.4109 432.8ZM39.2053 434.084C38.5413 434.084 37.9453 433.944 37.4173 433.664C36.8893 433.384 36.4773 432.996 36.1813 432.5C35.8853 431.996 35.7373 431.428 35.7373 430.796C35.7373 430.164 35.8853 429.6 36.1813 429.104C36.4773 428.608 36.8853 428.22 37.4053 427.94C37.9333 427.66 38.5333 427.52 39.2053 427.52C39.8373 427.52 40.3893 427.648 40.8613 427.904C41.3413 428.16 41.7013 428.528 41.9413 429.008L40.7893 429.68C40.6053 429.384 40.3733 429.164 40.0933 429.02C39.8213 428.868 39.5213 428.792 39.1933 428.792C38.6333 428.792 38.1693 428.976 37.8013 429.344C37.4333 429.704 37.2493 430.188 37.2493 430.796C37.2493 431.404 37.4293 431.892 37.7893 432.26C38.1573 432.62 38.6253 432.8 39.1933 432.8C39.5213 432.8 39.8213 432.728 40.0933 432.584C40.3733 432.432 40.6053 432.208 40.7893 431.912L41.9413 432.584C41.6933 433.064 41.3293 433.436 40.8493 433.7C40.3773 433.956 39.8293 434.084 39.2053 434.084ZM43.2379 427.592H44.7379V434H43.2379V427.592ZM43.9939 426.536C43.7219 426.536 43.4939 426.452 43.3099 426.284C43.1259 426.108 43.0339 425.892 43.0339 425.636C43.0339 425.38 43.1259 425.168 43.3099 425C43.4939 424.824 43.7219 424.736 43.9939 424.736C44.2659 424.736 44.4939 424.82 44.6779 424.988C44.8619 425.148 44.9539 425.352 44.9539 425.6C44.9539 425.864 44.8619 426.088 44.6779 426.272C44.5019 426.448 44.2739 426.536 43.9939 426.536ZM49.1547 427.52C50.0987 427.52 50.8187 427.748 51.3147 428.204C51.8187 428.652 52.0707 429.332 52.0707 430.244V434H50.6547V433.22C50.4707 433.5 50.2067 433.716 49.8627 433.868C49.5267 434.012 49.1187 434.084 48.6387 434.084C48.1587 434.084 47.7387 434.004 47.3787 433.844C47.0187 433.676 46.7387 433.448 46.5387 433.16C46.3467 432.864 46.2507 432.532 46.2507 432.164C46.2507 431.588 46.4627 431.128 46.8867 430.784C47.3187 430.432 47.9947 430.256 48.9147 430.256H50.5707V430.16C50.5707 429.712 50.4347 429.368 50.1627 429.128C49.8987 428.888 49.5027 428.768 48.9747 428.768C48.6147 428.768 48.2587 428.824 47.9067 428.936C47.5627 429.048 47.2707 429.204 47.0307 429.404L46.4427 428.312C46.7787 428.056 47.1827 427.86 47.6547 427.724C48.1267 427.588 48.6267 427.52 49.1547 427.52ZM48.9507 432.992C49.3267 432.992 49.6587 432.908 49.9467 432.74C50.2427 432.564 50.4507 432.316 50.5707 431.996V431.252H49.0227C48.1587 431.252 47.7267 431.536 47.7267 432.104C47.7267 432.376 47.8347 432.592 48.0507 432.752C48.2667 432.912 48.5667 432.992 48.9507 432.992ZM53.9957 425.096H55.4957V434H53.9957V425.096Z" fill="#008E86"/>
<path d="M142.428 432.692V434H136.128V425.6H142.26V426.908H137.688V429.092H141.744V430.376H137.688V432.692H142.428ZM147.659 427.52C148.467 427.52 149.115 427.756 149.603 428.228C150.091 428.7 150.335 429.4 150.335 430.328V434H148.835V430.52C148.835 429.96 148.703 429.54 148.439 429.26C148.175 428.972 147.799 428.828 147.311 428.828C146.759 428.828 146.323 428.996 146.003 429.332C145.683 429.66 145.523 430.136 145.523 430.76V434H144.023V427.592H145.451V428.42C145.699 428.124 146.011 427.9 146.387 427.748C146.763 427.596 147.187 427.52 147.659 427.52ZM156.09 433.652C155.914 433.796 155.698 433.904 155.442 433.976C155.194 434.048 154.93 434.084 154.65 434.084C153.946 434.084 153.402 433.9 153.018 433.532C152.634 433.164 152.442 432.628 152.442 431.924V428.84H151.386V427.64H152.442V426.176H153.942V427.64H155.658V428.84H153.942V431.888C153.942 432.2 154.018 432.44 154.17 432.608C154.322 432.768 154.542 432.848 154.83 432.848C155.166 432.848 155.446 432.76 155.67 432.584L156.09 433.652ZM158.752 428.528C159.184 427.856 159.944 427.52 161.032 427.52V428.948C160.904 428.924 160.788 428.912 160.684 428.912C160.1 428.912 159.644 429.084 159.316 429.428C158.988 429.764 158.824 430.252 158.824 430.892V434H157.324V427.592H158.752V428.528ZM168.27 430.832C168.27 430.936 168.262 431.084 168.246 431.276H163.218C163.306 431.748 163.534 432.124 163.902 432.404C164.278 432.676 164.742 432.812 165.294 432.812C165.998 432.812 166.578 432.58 167.034 432.116L167.838 433.04C167.55 433.384 167.186 433.644 166.746 433.82C166.306 433.996 165.81 434.084 165.258 434.084C164.554 434.084 163.934 433.944 163.398 433.664C162.862 433.384 162.446 432.996 162.15 432.5C161.862 431.996 161.718 431.428 161.718 430.796C161.718 430.172 161.858 429.612 162.138 429.116C162.426 428.612 162.822 428.22 163.326 427.94C163.83 427.66 164.398 427.52 165.03 427.52C165.654 427.52 166.21 427.66 166.698 427.94C167.194 428.212 167.578 428.6 167.85 429.104C168.13 429.6 168.27 430.176 168.27 430.832ZM165.03 428.72C164.55 428.72 164.142 428.864 163.806 429.152C163.478 429.432 163.278 429.808 163.206 430.28H166.842C166.778 429.816 166.582 429.44 166.254 429.152C165.926 428.864 165.518 428.72 165.03 428.72ZM173.563 433.652C173.387 433.796 173.171 433.904 172.915 433.976C172.667 434.048 172.403 434.084 172.123 434.084C171.419 434.084 170.875 433.9 170.491 433.532C170.107 433.164 169.915 432.628 169.915 431.924V428.84H168.859V427.64H169.915V426.176H171.415V427.64H173.131V428.84H171.415V431.888C171.415 432.2 171.491 432.44 171.643 432.608C171.795 432.768 172.015 432.848 172.303 432.848C172.639 432.848 172.919 432.76 173.143 432.584L173.563 433.652ZM180.61 430.832C180.61 430.936 180.602 431.084 180.586 431.276H175.558C175.646 431.748 175.874 432.124 176.242 432.404C176.618 432.676 177.082 432.812 177.634 432.812C178.338 432.812 178.918 432.58 179.374 432.116L180.178 433.04C179.89 433.384 179.526 433.644 179.086 433.82C178.646 433.996 178.15 434.084 177.598 434.084C176.894 434.084 176.274 433.944 175.738 433.664C175.202 433.384 174.786 432.996 174.49 432.5C174.202 431.996 174.058 431.428 174.058 430.796C174.058 430.172 174.198 429.612 174.478 429.116C174.766 428.612 175.162 428.22 175.666 427.94C176.17 427.66 176.738 427.52 177.37 427.52C177.994 427.52 178.55 427.66 179.038 427.94C179.534 428.212 179.918 428.6 180.19 429.104C180.47 429.6 180.61 430.176 180.61 430.832ZM177.37 428.72C176.89 428.72 176.482 428.864 176.146 429.152C175.818 429.432 175.618 429.808 175.546 430.28H179.182C179.118 429.816 178.922 429.44 178.594 429.152C178.266 428.864 177.858 428.72 177.37 428.72ZM185.686 427.52C186.494 427.52 187.142 427.756 187.63 428.228C188.118 428.7 188.362 429.4 188.362 430.328V434H186.862V430.52C186.862 429.96 186.73 429.54 186.466 429.26C186.202 428.972 185.826 428.828 185.338 428.828C184.786 428.828 184.35 428.996 184.03 429.332C183.71 429.66 183.55 430.136 183.55 430.76V434H182.05V427.592H183.478V428.42C183.726 428.124 184.038 427.9 184.414 427.748C184.79 427.596 185.214 427.52 185.686 427.52ZM190.265 427.592H191.765V434H190.265V427.592ZM191.021 426.536C190.749 426.536 190.521 426.452 190.337 426.284C190.153 426.108 190.061 425.892 190.061 425.636C190.061 425.38 190.153 425.168 190.337 425C190.521 424.824 190.749 424.736 191.021 424.736C191.293 424.736 191.521 424.82 191.705 424.988C191.889 425.148 191.981 425.352 191.981 425.6C191.981 425.864 191.889 426.088 191.705 426.272C191.529 426.448 191.301 426.536 191.021 426.536ZM201.822 427.52C202.63 427.52 203.27 427.756 203.742 428.228C204.214 428.692 204.45 429.392 204.45 430.328V434H202.95V430.52C202.95 429.96 202.826 429.54 202.578 429.26C202.33 428.972 201.974 428.828 201.51 428.828C201.006 428.828 200.602 428.996 200.298 429.332C199.994 429.66 199.842 430.132 199.842 430.748V434H198.342V430.52C198.342 429.96 198.218 429.54 197.97 429.26C197.722 428.972 197.366 428.828 196.902 428.828C196.39 428.828 195.982 428.992 195.678 429.32C195.382 429.648 195.234 430.124 195.234 430.748V434H193.734V427.592H195.162V428.408C195.402 428.12 195.702 427.9 196.062 427.748C196.422 427.596 196.822 427.52 197.262 427.52C197.742 427.52 198.166 427.612 198.534 427.796C198.91 427.972 199.206 428.236 199.422 428.588C199.686 428.252 200.026 427.992 200.442 427.808C200.858 427.616 201.318 427.52 201.822 427.52ZM206.367 427.592H207.867V434H206.367V427.592ZM207.123 426.536C206.851 426.536 206.623 426.452 206.439 426.284C206.255 426.108 206.163 425.892 206.163 425.636C206.163 425.38 206.255 425.168 206.439 425C206.623 424.824 206.851 424.736 207.123 424.736C207.395 424.736 207.623 424.82 207.807 424.988C207.991 425.148 208.083 425.352 208.083 425.6C208.083 425.864 207.991 426.088 207.807 426.272C207.631 426.448 207.403 426.536 207.123 426.536ZM215.86 430.832C215.86 430.936 215.852 431.084 215.836 431.276H210.808C210.896 431.748 211.124 432.124 211.492 432.404C211.868 432.676 212.332 432.812 212.884 432.812C213.588 432.812 214.168 432.58 214.624 432.116L215.428 433.04C215.14 433.384 214.776 433.644 214.336 433.82C213.896 433.996 213.4 434.084 212.848 434.084C212.144 434.084 211.524 433.944 210.988 433.664C210.452 433.384 210.036 432.996 209.74 432.5C209.452 431.996 209.308 431.428 209.308 430.796C209.308 430.172 209.448 429.612 209.728 429.116C210.016 428.612 210.412 428.22 210.916 427.94C211.42 427.66 211.988 427.52 212.62 427.52C213.244 427.52 213.8 427.66 214.288 427.94C214.784 428.212 215.168 428.6 215.44 429.104C215.72 429.6 215.86 430.176 215.86 430.832ZM212.62 428.72C212.14 428.72 211.732 428.864 211.396 429.152C211.068 429.432 210.868 429.808 210.796 430.28H214.432C214.368 429.816 214.172 429.44 213.844 429.152C213.516 428.864 213.108 428.72 212.62 428.72ZM220.936 427.52C221.744 427.52 222.392 427.756 222.88 428.228C223.368 428.7 223.612 429.4 223.612 430.328V434H222.112V430.52C222.112 429.96 221.98 429.54 221.716 429.26C221.452 428.972 221.076 428.828 220.588 428.828C220.036 428.828 219.6 428.996 219.28 429.332C218.96 429.66 218.8 430.136 218.8 430.76V434H217.3V427.592H218.728V428.42C218.976 428.124 219.288 427.9 219.664 427.748C220.04 427.596 220.464 427.52 220.936 427.52ZM229.367 433.652C229.191 433.796 228.975 433.904 228.719 433.976C228.471 434.048 228.207 434.084 227.927 434.084C227.223 434.084 226.679 433.9 226.295 433.532C225.911 433.164 225.719 432.628 225.719 431.924V428.84H224.663V427.64H225.719V426.176H227.219V427.64H228.935V428.84H227.219V431.888C227.219 432.2 227.295 432.44 227.447 432.608C227.599 432.768 227.819 432.848 228.107 432.848C228.443 432.848 228.723 432.76 228.947 432.584L229.367 433.652ZM233.27 434.084C232.622 434.084 232.038 433.944 231.518 433.664C230.998 433.384 230.59 432.996 230.294 432.5C230.006 431.996 229.862 431.428 229.862 430.796C229.862 430.164 230.006 429.6 230.294 429.104C230.59 428.608 230.998 428.22 231.518 427.94C232.038 427.66 232.622 427.52 233.27 427.52C233.926 427.52 234.514 427.66 235.034 427.94C235.554 428.22 235.958 428.608 236.246 429.104C236.542 429.6 236.69 430.164 236.69 430.796C236.69 431.428 236.542 431.996 236.246 432.5C235.958 432.996 235.554 433.384 235.034 433.664C234.514 433.944 233.926 434.084 233.27 434.084ZM233.27 432.8C233.822 432.8 234.278 432.616 234.638 432.248C234.998 431.88 235.178 431.396 235.178 430.796C235.178 430.196 234.998 429.712 234.638 429.344C234.278 428.976 233.822 428.792 233.27 428.792C232.718 428.792 232.262 428.976 231.902 429.344C231.55 429.712 231.374 430.196 231.374 430.796C231.374 431.396 231.55 431.88 231.902 432.248C232.262 432.616 232.718 432.8 233.27 432.8Z" fill="#3FDFE9"/>
<path d="M284.74 434.12C283.58 434.12 282.676 433.796 282.028 433.148C281.38 432.492 281.056 431.556 281.056 430.34V425.6H282.616V430.28C282.616 431.928 283.328 432.752 284.752 432.752C286.168 432.752 286.876 431.928 286.876 430.28V425.6H288.412V430.34C288.412 431.556 288.088 432.492 287.44 433.148C286.8 433.796 285.9 434.12 284.74 434.12ZM294.305 433.652C294.129 433.796 293.913 433.904 293.657 433.976C293.409 434.048 293.145 434.084 292.865 434.084C292.161 434.084 291.617 433.9 291.233 433.532C290.849 433.164 290.657 432.628 290.657 431.924V428.84H289.601V427.64H290.657V426.176H292.157V427.64H293.873V428.84H292.157V431.888C292.157 432.2 292.233 432.44 292.385 432.608C292.537 432.768 292.757 432.848 293.045 432.848C293.381 432.848 293.661 432.76 293.885 432.584L294.305 433.652ZM295.539 427.592H297.039V434H295.539V427.592ZM296.295 426.536C296.023 426.536 295.795 426.452 295.611 426.284C295.427 426.108 295.335 425.892 295.335 425.636C295.335 425.38 295.427 425.168 295.611 425C295.795 424.824 296.023 424.736 296.295 424.736C296.567 424.736 296.795 424.82 296.979 424.988C297.163 425.148 297.255 425.352 297.255 425.6C297.255 425.864 297.163 426.088 296.979 426.272C296.803 426.448 296.575 426.536 296.295 426.536ZM299.007 425.096H300.507V434H299.007V425.096ZM302.476 427.592H303.976V434H302.476V427.592ZM303.232 426.536C302.96 426.536 302.732 426.452 302.548 426.284C302.364 426.108 302.272 425.892 302.272 425.636C302.272 425.38 302.364 425.168 302.548 425C302.732 424.824 302.96 424.736 303.232 424.736C303.504 424.736 303.732 424.82 303.916 424.988C304.1 425.148 304.192 425.352 304.192 425.6C304.192 425.864 304.1 426.088 303.916 426.272C303.74 426.448 303.512 426.536 303.232 426.536ZM312.221 425.096V434H310.781V433.172C310.533 433.476 310.225 433.704 309.857 433.856C309.497 434.008 309.097 434.084 308.657 434.084C308.041 434.084 307.485 433.948 306.989 433.676C306.501 433.404 306.117 433.02 305.837 432.524C305.557 432.02 305.417 431.444 305.417 430.796C305.417 430.148 305.557 429.576 305.837 429.08C306.117 428.584 306.501 428.2 306.989 427.928C307.485 427.656 308.041 427.52 308.657 427.52C309.081 427.52 309.469 427.592 309.821 427.736C310.173 427.88 310.473 428.096 310.721 428.384V425.096H312.221ZM308.837 432.8C309.197 432.8 309.521 432.72 309.809 432.56C310.097 432.392 310.325 432.156 310.493 431.852C310.661 431.548 310.745 431.196 310.745 430.796C310.745 430.396 310.661 430.044 310.493 429.74C310.325 429.436 310.097 429.204 309.809 429.044C309.521 428.876 309.197 428.792 308.837 428.792C308.477 428.792 308.153 428.876 307.865 429.044C307.577 429.204 307.349 429.436 307.181 429.74C307.013 430.044 306.929 430.396 306.929 430.796C306.929 431.196 307.013 431.548 307.181 431.852C307.349 432.156 307.577 432.392 307.865 432.56C308.153 432.72 308.477 432.8 308.837 432.8ZM316.631 427.52C317.575 427.52 318.295 427.748 318.791 428.204C319.295 428.652 319.547 429.332 319.547 430.244V434H318.131V433.22C317.947 433.5 317.683 433.716 317.339 433.868C317.003 434.012 316.595 434.084 316.115 434.084C315.635 434.084 315.215 434.004 314.855 433.844C314.495 433.676 314.215 433.448 314.015 433.16C313.823 432.864 313.727 432.532 313.727 432.164C313.727 431.588 313.939 431.128 314.363 430.784C314.795 430.432 315.471 430.256 316.391 430.256H318.047V430.16C318.047 429.712 317.911 429.368 317.639 429.128C317.375 428.888 316.979 428.768 316.451 428.768C316.091 428.768 315.735 428.824 315.383 428.936C315.039 429.048 314.747 429.204 314.507 429.404L313.919 428.312C314.255 428.056 314.659 427.86 315.131 427.724C315.603 427.588 316.103 427.52 316.631 427.52ZM316.427 432.992C316.803 432.992 317.135 432.908 317.423 432.74C317.719 432.564 317.927 432.316 318.047 431.996V431.252H316.499C315.635 431.252 315.203 431.536 315.203 432.104C315.203 432.376 315.311 432.592 315.527 432.752C315.743 432.912 316.043 432.992 316.427 432.992ZM327.807 425.096V434H326.367V433.172C326.119 433.476 325.811 433.704 325.443 433.856C325.083 434.008 324.683 434.084 324.243 434.084C323.627 434.084 323.071 433.948 322.575 433.676C322.087 433.404 321.703 433.02 321.423 432.524C321.143 432.02 321.003 431.444 321.003 430.796C321.003 430.148 321.143 429.576 321.423 429.08C321.703 428.584 322.087 428.2 322.575 427.928C323.071 427.656 323.627 427.52 324.243 427.52C324.667 427.52 325.055 427.592 325.407 427.736C325.759 427.88 326.059 428.096 326.307 428.384V425.096H327.807ZM324.423 432.8C324.783 432.8 325.107 432.72 325.395 432.56C325.683 432.392 325.911 432.156 326.079 431.852C326.247 431.548 326.331 431.196 326.331 430.796C326.331 430.396 326.247 430.044 326.079 429.74C325.911 429.436 325.683 429.204 325.395 429.044C325.107 428.876 324.783 428.792 324.423 428.792C324.063 428.792 323.739 428.876 323.451 429.044C323.163 429.204 322.935 429.436 322.767 429.74C322.599 430.044 322.515 430.396 322.515 430.796C322.515 431.196 322.599 431.548 322.767 431.852C322.935 432.156 323.163 432.392 323.451 432.56C323.739 432.72 324.063 432.8 324.423 432.8ZM335.793 430.832C335.793 430.936 335.785 431.084 335.769 431.276H330.741C330.829 431.748 331.057 432.124 331.425 432.404C331.801 432.676 332.265 432.812 332.817 432.812C333.521 432.812 334.101 432.58 334.557 432.116L335.361 433.04C335.073 433.384 334.709 433.644 334.269 433.82C333.829 433.996 333.333 434.084 332.781 434.084C332.077 434.084 331.457 433.944 330.921 433.664C330.385 433.384 329.969 432.996 329.673 432.5C329.385 431.996 329.241 431.428 329.241 430.796C329.241 430.172 329.381 429.612 329.661 429.116C329.949 428.612 330.345 428.22 330.849 427.94C331.353 427.66 331.921 427.52 332.553 427.52C333.177 427.52 333.733 427.66 334.221 427.94C334.717 428.212 335.101 428.6 335.373 429.104C335.653 429.6 335.793 430.176 335.793 430.832ZM332.553 428.72C332.073 428.72 331.665 428.864 331.329 429.152C331.001 429.432 330.801 429.808 330.729 430.28H334.365C334.301 429.816 334.105 429.44 333.777 429.152C333.449 428.864 333.041 428.72 332.553 428.72ZM339.214 434.084C338.694 434.084 338.186 434.016 337.69 433.88C337.194 433.744 336.798 433.572 336.502 433.364L337.078 432.224C337.366 432.416 337.71 432.572 338.11 432.692C338.518 432.804 338.918 432.86 339.31 432.86C340.206 432.86 340.654 432.624 340.654 432.152C340.654 431.928 340.538 431.772 340.306 431.684C340.082 431.596 339.718 431.512 339.214 431.432C338.686 431.352 338.254 431.26 337.918 431.156C337.59 431.052 337.302 430.872 337.054 430.616C336.814 430.352 336.694 429.988 336.694 429.524C336.694 428.916 336.946 428.432 337.45 428.072C337.962 427.704 338.65 427.52 339.514 427.52C339.954 427.52 340.394 427.572 340.834 427.676C341.274 427.772 341.634 427.904 341.914 428.072L341.338 429.212C340.794 428.892 340.182 428.732 339.502 428.732C339.062 428.732 338.726 428.8 338.494 428.936C338.27 429.064 338.158 429.236 338.158 429.452C338.158 429.692 338.278 429.864 338.518 429.968C338.766 430.064 339.146 430.156 339.658 430.244C340.17 430.324 340.59 430.416 340.918 430.52C341.246 430.624 341.526 430.8 341.758 431.048C341.998 431.296 342.118 431.648 342.118 432.104C342.118 432.704 341.858 433.184 341.338 433.544C340.818 433.904 340.11 434.084 339.214 434.084Z" fill="#EDCA71"/>
<path d="M24.104 449.068C24.88 449.164 25.472 449.428 25.88 449.86C26.288 450.292 26.492 450.832 26.492 451.48C26.492 451.968 26.368 452.412 26.12 452.812C25.872 453.212 25.496 453.532 24.992 453.772C24.496 454.004 23.888 454.12 23.168 454.12C22.568 454.12 21.988 454.036 21.428 453.868C20.876 453.692 20.404 453.452 20.012 453.148L20.684 451.936C20.988 452.192 21.356 452.396 21.788 452.548C22.228 452.692 22.68 452.764 23.144 452.764C23.696 452.764 24.128 452.652 24.44 452.428C24.76 452.196 24.92 451.884 24.92 451.492C24.92 451.1 24.768 450.796 24.464 450.58C24.168 450.356 23.712 450.244 23.096 450.244H22.328V449.176L24.236 446.908H20.42V445.6H26.144V446.644L24.104 449.068ZM34.9208 447.52C35.7288 447.52 36.3768 447.756 36.8648 448.228C37.3528 448.7 37.5968 449.4 37.5968 450.328V454H36.0968V450.52C36.0968 449.96 35.9648 449.54 35.7008 449.26C35.4368 448.972 35.0608 448.828 34.5728 448.828C34.0208 448.828 33.5848 448.996 33.2648 449.332C32.9448 449.66 32.7848 450.136 32.7848 450.76V454H31.2848V445.096H32.7848V448.336C33.0328 448.072 33.3368 447.872 33.6968 447.736C34.0648 447.592 34.4728 447.52 34.9208 447.52ZM49.848 452.092H48.36V454H46.848V452.092H42.24V451.012L46.38 445.6H48.048L44.148 450.772H46.896V449.08H48.36V450.772H49.848V452.092ZM57.9926 452.092H56.5046V454H54.9926V452.092H50.3846V451.012L54.5246 445.6H56.1926L52.2926 450.772H55.0406V449.08H56.5046V450.772H57.9926V452.092ZM70.5095 447.52C71.3175 447.52 71.9575 447.756 72.4295 448.228C72.9015 448.692 73.1375 449.392 73.1375 450.328V454H71.6375V450.52C71.6375 449.96 71.5135 449.54 71.2655 449.26C71.0175 448.972 70.6615 448.828 70.1975 448.828C69.6935 448.828 69.2895 448.996 68.9855 449.332C68.6815 449.66 68.5295 450.132 68.5295 450.748V454H67.0295V450.52C67.0295 449.96 66.9055 449.54 66.6575 449.26C66.4095 448.972 66.0535 448.828 65.5895 448.828C65.0775 448.828 64.6695 448.992 64.3655 449.32C64.0695 449.648 63.9215 450.124 63.9215 450.748V454H62.4215V447.592H63.8495V448.408C64.0895 448.12 64.3895 447.9 64.7495 447.748C65.1095 447.596 65.5095 447.52 65.9495 447.52C66.4295 447.52 66.8535 447.612 67.2215 447.796C67.5975 447.972 67.8935 448.236 68.1095 448.588C68.3735 448.252 68.7135 447.992 69.1295 447.808C69.5455 447.616 70.0055 447.52 70.5095 447.52ZM75.0543 447.592H76.5543V454H75.0543V447.592ZM75.8103 446.536C75.5383 446.536 75.3103 446.452 75.1263 446.284C74.9423 446.108 74.8503 445.892 74.8503 445.636C74.8503 445.38 74.9423 445.168 75.1263 445C75.3103 444.824 75.5383 444.736 75.8103 444.736C76.0823 444.736 76.3103 444.82 76.4943 444.988C76.6783 445.148 76.7703 445.352 76.7703 445.6C76.7703 445.864 76.6783 446.088 76.4943 446.272C76.3183 446.448 76.0903 446.536 75.8103 446.536ZM82.1591 447.52C82.9671 447.52 83.6151 447.756 84.1031 448.228C84.5911 448.7 84.8351 449.4 84.8351 450.328V454H83.3351V450.52C83.3351 449.96 83.2031 449.54 82.9391 449.26C82.6751 448.972 82.2991 448.828 81.8111 448.828C81.2591 448.828 80.8231 448.996 80.5031 449.332C80.1831 449.66 80.0231 450.136 80.0231 450.76V454H78.5231V447.592H79.9511V448.42C80.1991 448.124 80.5111 447.9 80.8871 447.748C81.2631 447.596 81.6871 447.52 82.1591 447.52Z" fill="#F2F2F2"/>
<path d="M138.432 445.6V454H136.872V446.908H135.096V445.6H138.432ZM147.507 447.52C148.315 447.52 148.963 447.756 149.451 448.228C149.939 448.7 150.183 449.4 150.183 450.328V454H148.683V450.52C148.683 449.96 148.551 449.54 148.287 449.26C148.023 448.972 147.647 448.828 147.159 448.828C146.607 448.828 146.171 448.996 145.851 449.332C145.531 449.66 145.371 450.136 145.371 450.76V454H143.871V445.096H145.371V448.336C145.619 448.072 145.923 447.872 146.283 447.736C146.651 447.592 147.059 447.52 147.507 447.52ZM158.522 449.068C159.298 449.164 159.89 449.428 160.298 449.86C160.706 450.292 160.91 450.832 160.91 451.48C160.91 451.968 160.786 452.412 160.538 452.812C160.29 453.212 159.914 453.532 159.41 453.772C158.914 454.004 158.306 454.12 157.586 454.12C156.986 454.12 156.406 454.036 155.846 453.868C155.294 453.692 154.822 453.452 154.43 453.148L155.102 451.936C155.406 452.192 155.774 452.396 156.206 452.548C156.646 452.692 157.098 452.764 157.562 452.764C158.114 452.764 158.546 452.652 158.858 452.428C159.178 452.196 159.338 451.884 159.338 451.492C159.338 451.1 159.186 450.796 158.882 450.58C158.586 450.356 158.13 450.244 157.514 450.244H156.746V449.176L158.654 446.908H154.838V445.6H160.562V446.644L158.522 449.068ZM169.418 452.092H167.93V454H166.418V452.092H161.81V451.012L165.95 445.6H167.618L163.718 450.772H166.466V449.08H167.93V450.772H169.418V452.092ZM181.935 447.52C182.743 447.52 183.383 447.756 183.855 448.228C184.327 448.692 184.563 449.392 184.563 450.328V454H183.063V450.52C183.063 449.96 182.939 449.54 182.691 449.26C182.443 448.972 182.087 448.828 181.623 448.828C181.119 448.828 180.715 448.996 180.411 449.332C180.107 449.66 179.955 450.132 179.955 450.748V454H178.455V450.52C178.455 449.96 178.331 449.54 178.083 449.26C177.835 448.972 177.479 448.828 177.015 448.828C176.503 448.828 176.095 448.992 175.791 449.32C175.495 449.648 175.347 450.124 175.347 450.748V454H173.847V447.592H175.275V448.408C175.515 448.12 175.815 447.9 176.175 447.748C176.535 447.596 176.935 447.52 177.375 447.52C177.855 447.52 178.279 447.612 178.647 447.796C179.023 447.972 179.319 448.236 179.535 448.588C179.799 448.252 180.139 447.992 180.555 447.808C180.971 447.616 181.431 447.52 181.935 447.52ZM186.48 447.592H187.98V454H186.48V447.592ZM187.236 446.536C186.964 446.536 186.736 446.452 186.552 446.284C186.368 446.108 186.276 445.892 186.276 445.636C186.276 445.38 186.368 445.168 186.552 445C186.736 444.824 186.964 444.736 187.236 444.736C187.508 444.736 187.736 444.82 187.92 444.988C188.104 445.148 188.196 445.352 188.196 445.6C188.196 445.864 188.104 446.088 187.92 446.272C187.744 446.448 187.516 446.536 187.236 446.536ZM193.585 447.52C194.393 447.52 195.041 447.756 195.529 448.228C196.017 448.7 196.261 449.4 196.261 450.328V454H194.761V450.52C194.761 449.96 194.629 449.54 194.365 449.26C194.101 448.972 193.725 448.828 193.237 448.828C192.685 448.828 192.249 448.996 191.929 449.332C191.609 449.66 191.449 450.136 191.449 450.76V454H189.949V447.592H191.377V448.42C191.625 448.124 191.937 447.9 192.313 447.748C192.689 447.596 193.113 447.52 193.585 447.52Z" fill="#F2F2F2"/>
<path d="M286.612 452.68V454H280.42V452.956L283.756 449.788C284.132 449.428 284.384 449.116 284.512 448.852C284.648 448.58 284.716 448.312 284.716 448.048C284.716 447.656 284.584 447.356 284.32 447.148C284.056 446.94 283.668 446.836 283.156 446.836C282.3 446.836 281.644 447.128 281.188 447.712L280.096 446.872C280.424 446.432 280.864 446.092 281.416 445.852C281.976 445.604 282.6 445.48 283.288 445.48C284.2 445.48 284.928 445.696 285.472 446.128C286.016 446.56 286.288 447.148 286.288 447.892C286.288 448.348 286.192 448.776 286 449.176C285.808 449.576 285.44 450.032 284.896 450.544L282.652 452.68H286.612ZM293.813 445.6V446.644L290.549 454H288.881L292.037 446.92H288.737V448.348H287.285V445.6H293.813ZM306.638 447.52C307.446 447.52 308.086 447.756 308.558 448.228C309.03 448.692 309.266 449.392 309.266 450.328V454H307.766V450.52C307.766 449.96 307.642 449.54 307.394 449.26C307.146 448.972 306.79 448.828 306.326 448.828C305.822 448.828 305.418 448.996 305.114 449.332C304.81 449.66 304.658 450.132 304.658 450.748V454H303.158V450.52C303.158 449.96 303.034 449.54 302.786 449.26C302.538 448.972 302.182 448.828 301.718 448.828C301.206 448.828 300.798 448.992 300.494 449.32C300.198 449.648 300.05 450.124 300.05 450.748V454H298.55V447.592H299.978V448.408C300.218 448.12 300.518 447.9 300.878 447.748C301.238 447.596 301.638 447.52 302.078 447.52C302.558 447.52 302.982 447.612 303.35 447.796C303.726 447.972 304.022 448.236 304.238 448.588C304.502 448.252 304.842 447.992 305.258 447.808C305.674 447.616 306.134 447.52 306.638 447.52ZM311.183 447.592H312.683V454H311.183V447.592ZM311.939 446.536C311.667 446.536 311.439 446.452 311.255 446.284C311.071 446.108 310.979 445.892 310.979 445.636C310.979 445.38 311.071 445.168 311.255 445C311.439 444.824 311.667 444.736 311.939 444.736C312.211 444.736 312.439 444.82 312.623 444.988C312.807 445.148 312.899 445.352 312.899 445.6C312.899 445.864 312.807 446.088 312.623 446.272C312.447 446.448 312.219 446.536 311.939 446.536ZM318.288 447.52C319.096 447.52 319.744 447.756 320.232 448.228C320.72 448.7 320.964 449.4 320.964 450.328V454H319.464V450.52C319.464 449.96 319.332 449.54 319.068 449.26C318.804 448.972 318.428 448.828 317.94 448.828C317.388 448.828 316.952 448.996 316.632 449.332C316.312 449.66 316.152 450.136 316.152 450.76V454H314.652V447.592H316.08V448.42C316.328 448.124 316.64 447.9 317.016 447.748C317.392 447.596 317.816 447.52 318.288 447.52Z" fill="#F2F2F2"/>
<path d="M30.36 99.64C31.0533 99.9867 31.58 100.44 31.94 101C32.3133 101.56 32.5 102.207 32.5 102.94C32.5 103.807 32.2533 104.567 31.76 105.22C31.2667 105.86 30.5733 106.36 29.68 106.72C28.7867 107.067 27.7533 107.24 26.58 107.24C25.4067 107.24 24.3733 107.067 23.48 106.72C22.6 106.36 21.9133 105.86 21.42 105.22C20.94 104.567 20.7 103.807 20.7 102.94C20.7 102.207 20.88 101.56 21.24 101C21.6133 100.44 22.14 99.9867 22.82 99.64C22.3 99.32 21.9 98.92 21.62 98.44C21.34 97.9467 21.2 97.3867 21.2 96.76C21.2 95.9467 21.4267 95.24 21.88 94.64C22.3333 94.04 22.9667 93.58 23.78 93.26C24.5933 92.9267 25.5267 92.76 26.58 92.76C27.6467 92.76 28.5867 92.9267 29.4 93.26C30.2267 93.58 30.8667 94.04 31.32 94.64C31.7733 95.24 32 95.9467 32 96.76C32 97.3867 31.86 97.9467 31.58 98.44C31.3 98.92 30.8933 99.32 30.36 99.64ZM26.58 95.14C25.9267 95.14 25.4 95.3 25 95.62C24.6133 95.9267 24.42 96.3533 24.42 96.9C24.42 97.4333 24.6133 97.8533 25 98.16C25.3867 98.4667 25.9133 98.62 26.58 98.62C27.2467 98.62 27.78 98.4667 28.18 98.16C28.58 97.8533 28.78 97.4333 28.78 96.9C28.78 96.3533 28.58 95.9267 28.18 95.62C27.78 95.3 27.2467 95.14 26.58 95.14ZM26.58 104.86C27.3933 104.86 28.0333 104.68 28.5 104.32C28.98 103.947 29.22 103.453 29.22 102.84C29.22 102.227 28.98 101.74 28.5 101.38C28.0333 101.02 27.3933 100.84 26.58 100.84C25.78 100.84 25.1467 101.02 24.68 101.38C24.2133 101.74 23.98 102.227 23.98 102.84C23.98 103.467 24.2133 103.96 24.68 104.32C25.1467 104.68 25.78 104.86 26.58 104.86ZM46.8472 96.08C48.1805 96.08 49.2539 96.48 50.0672 97.28C50.8939 98.08 51.3072 99.2667 51.3072 100.84V107H48.1872V101.32C48.1872 100.467 48.0005 99.8333 47.6272 99.42C47.2539 98.9933 46.7139 98.78 46.0072 98.78C45.2205 98.78 44.5939 99.0267 44.1272 99.52C43.6605 100 43.4272 100.72 43.4272 101.68V107H40.3072V92.16H43.4272V97.36C43.8405 96.9467 44.3405 96.6333 44.9272 96.42C45.5139 96.1933 46.1539 96.08 46.8472 96.08ZM64.5394 93V107H61.2994V95.6H58.4994V93H64.5394ZM73.7114 98.22C74.6047 98.22 75.4181 98.4 76.1514 98.76C76.8847 99.12 77.4647 99.6333 77.8914 100.3C78.3181 100.953 78.5314 101.713 78.5314 102.58C78.5314 103.513 78.2981 104.333 77.8314 105.04C77.3647 105.747 76.7247 106.293 75.9114 106.68C75.1114 107.053 74.2181 107.24 73.2314 107.24C71.2714 107.24 69.7381 106.64 68.6314 105.44C67.5247 104.24 66.9714 102.527 66.9714 100.3C66.9714 98.7133 67.2714 97.3533 67.8714 96.22C68.4714 95.0867 69.3047 94.2267 70.3714 93.64C71.4514 93.0533 72.6981 92.76 74.1114 92.76C74.8581 92.76 75.5714 92.8467 76.2514 93.02C76.9447 93.18 77.5314 93.4133 78.0114 93.72L76.8114 96.1C76.1181 95.6333 75.2447 95.4 74.1914 95.4C73.0047 95.4 72.0647 95.7467 71.3714 96.44C70.6781 97.1333 70.3047 98.14 70.2514 99.46C71.0781 98.6333 72.2314 98.22 73.7114 98.22ZM73.0514 104.82C73.7447 104.82 74.3047 104.633 74.7314 104.26C75.1714 103.887 75.3914 103.38 75.3914 102.74C75.3914 102.1 75.1714 101.593 74.7314 101.22C74.3047 100.833 73.7314 100.64 73.0114 100.64C72.3047 100.64 71.7247 100.84 71.2714 101.24C70.8181 101.627 70.5914 102.127 70.5914 102.74C70.5914 103.353 70.8114 103.853 71.2514 104.24C71.6914 104.627 72.2914 104.82 73.0514 104.82ZM99.8098 96.08C101.157 96.08 102.223 96.48 103.01 97.28C103.81 98.0667 104.21 99.2533 104.21 100.84V107H101.09V101.32C101.09 100.467 100.91 99.8333 100.55 99.42C100.203 98.9933 99.7032 98.78 99.0498 98.78C98.3165 98.78 97.7365 99.02 97.3098 99.5C96.8832 99.9667 96.6698 100.667 96.6698 101.6V107H93.5498V101.32C93.5498 99.6267 92.8698 98.78 91.5098 98.78C90.7898 98.78 90.2165 99.02 89.7898 99.5C89.3632 99.9667 89.1498 100.667 89.1498 101.6V107H86.0298V96.24H89.0098V97.48C89.4098 97.0267 89.8965 96.68 90.4698 96.44C91.0565 96.2 91.6965 96.08 92.3898 96.08C93.1498 96.08 93.8365 96.2333 94.4498 96.54C95.0632 96.8333 95.5565 97.2667 95.9298 97.84C96.3698 97.28 96.9232 96.8467 97.5898 96.54C98.2698 96.2333 99.0098 96.08 99.8098 96.08ZM107.006 96.24H110.126V107H107.006V96.24ZM108.566 94.74C107.993 94.74 107.526 94.5733 107.166 94.24C106.806 93.9067 106.626 93.4933 106.626 93C106.626 92.5067 106.806 92.0933 107.166 91.76C107.526 91.4267 107.993 91.26 108.566 91.26C109.14 91.26 109.606 91.42 109.966 91.74C110.326 92.06 110.506 92.46 110.506 92.94C110.506 93.46 110.326 93.8933 109.966 94.24C109.606 94.5733 109.14 94.74 108.566 94.74ZM119.562 96.08C120.895 96.08 121.969 96.48 122.782 97.28C123.609 98.08 124.022 99.2667 124.022 100.84V107H120.902V101.32C120.902 100.467 120.715 99.8333 120.342 99.42C119.969 98.9933 119.429 98.78 118.722 98.78C117.935 98.78 117.309 99.0267 116.842 99.52C116.375 100 116.142 100.72 116.142 101.68V107H113.022V96.24H116.002V97.5C116.415 97.0467 116.929 96.7 117.542 96.46C118.155 96.2067 118.829 96.08 119.562 96.08Z" fill="#F2F2F2"/>
<rect x="20" y="280" width="70" height="20" stroke="#4F4F4F" stroke-width="2"/>
<rect x="90" y="280" width="70" height="20" stroke="#4F4F4F" stroke-width="2"/>
<rect x="160" y="280" width="70" height="20" stroke="#4F4F4F" stroke-width="2"/>
<rect x="230" y="280" width="70" height="20" stroke="#4F4F4F" stroke-width="2"/>
<rect x="20" y="300" width="70" height="20" stroke="#4F4F4F" stroke-width="2"/>
<rect x="90" y="300" width="70" height="20" stroke="#4F4F4F" stroke-width="2"/>
<rect x="160" y="300" width="70" height="20" stroke="#4F4F4F" stroke-width="2"/>
<rect x="230" y="300" width="70" height="20" stroke="#4F4F4F" stroke-width="2"/>
<rect x="20" y="320" width="70" height="20" stroke="#4F4F4F" stroke-width="2"/>
<rect x="90" y="320" width="70" height="20" stroke="#4F4F4F" stroke-width="2"/>
<rect x="160" y="320" width="70" height="20" stroke="#4F4F4F" stroke-width="2"/>
<rect x="230" y="320" width="70" height="20" stroke="#4F4F4F" stroke-width="2"/>
<rect x="20" y="340" width="70" height="20" stroke="#4F4F4F" stroke-width="2"/>
<rect x="90" y="340" width="70" height="20" stroke="#4F4F4F" stroke-width="2"/>
<rect x="160" y="340" width="70" height="20" stroke="#4F4F4F" stroke-width="2"/>
<rect x="230" y="340" width="70" height="20" stroke="#4F4F4F" stroke-width="2"/>
<rect x="20" y="360" width="70" height="20" stroke="#4F4F4F" stroke-width="2"/>
<rect x="90" y="360" width="70" height="20" stroke="#4F4F4F" stroke-width="2"/>
<rect x="160" y="360" width="70" height="20" stroke="#4F4F4F" stroke-width="2"/>
<rect x="230" y="360" width="70" height="20" stroke="#4F4F4F" stroke-width="2"/>
<path d="M33.18 365.6V374H31.992V366.644H30.096V365.6H33.18ZM40.9214 372.956V374H34.8854V373.184L38.3054 369.884C38.7214 369.484 39.0014 369.14 39.1454 368.852C39.2894 368.556 39.3614 368.26 39.3614 367.964C39.3614 367.524 39.2054 367.184 38.8934 366.944C38.5894 366.696 38.1494 366.572 37.5734 366.572C36.6454 366.572 35.9294 366.876 35.4254 367.484L34.6094 366.776C34.9374 366.376 35.3654 366.064 35.8934 365.84C36.4294 365.616 37.0254 365.504 37.6814 365.504C38.5614 365.504 39.2614 365.716 39.7814 366.14C40.3014 366.556 40.5614 367.124 40.5614 367.844C40.5614 368.292 40.4654 368.716 40.2734 369.116C40.0814 369.516 39.7174 369.972 39.1814 370.484L36.6134 372.956H40.9214ZM47.9627 367.58C48.8427 367.58 49.5147 367.796 49.9787 368.228C50.4507 368.66 50.6867 369.304 50.6867 370.16V374H49.5947V373.16C49.4027 373.456 49.1267 373.684 48.7667 373.844C48.4147 373.996 47.9947 374.072 47.5067 374.072C46.7947 374.072 46.2227 373.9 45.7907 373.556C45.3667 373.212 45.1547 372.76 45.1547 372.2C45.1547 371.64 45.3587 371.192 45.7667 370.856C46.1747 370.512 46.8227 370.34 47.7107 370.34H49.5347V370.112C49.5347 369.616 49.3907 369.236 49.1027 368.972C48.8147 368.708 48.3907 368.576 47.8307 368.576C47.4547 368.576 47.0867 368.64 46.7267 368.768C46.3667 368.888 46.0627 369.052 45.8147 369.26L45.3347 368.396C45.6627 368.132 46.0547 367.932 46.5107 367.796C46.9667 367.652 47.4507 367.58 47.9627 367.58ZM47.6987 373.184C48.1387 373.184 48.5187 373.088 48.8387 372.896C49.1587 372.696 49.3907 372.416 49.5347 372.056V371.168H47.7587C46.7827 371.168 46.2947 371.496 46.2947 372.152C46.2947 372.472 46.4187 372.724 46.6667 372.908C46.9147 373.092 47.2587 373.184 47.6987 373.184ZM53.0946 374.072C52.8706 374.072 52.6786 373.996 52.5186 373.844C52.3586 373.684 52.2786 373.484 52.2786 373.244C52.2786 373.012 52.3586 372.82 52.5186 372.668C52.6786 372.508 52.8706 372.428 53.0946 372.428C53.3186 372.428 53.5066 372.504 53.6586 372.656C53.8106 372.808 53.8866 373.004 53.8866 373.244C53.8866 373.484 53.8066 373.684 53.6466 373.844C53.4946 373.996 53.3106 374.072 53.0946 374.072ZM63.4933 367.58C64.2933 367.58 64.9253 367.812 65.3893 368.276C65.8613 368.74 66.0973 369.428 66.0973 370.34V374H64.9453V370.472C64.9453 369.856 64.8013 369.392 64.5133 369.08C64.2333 368.768 63.8293 368.612 63.3013 368.612C62.7173 368.612 62.2533 368.796 61.9093 369.164C61.5653 369.524 61.3933 370.044 61.3933 370.724V374H60.2413V370.472C60.2413 369.856 60.0973 369.392 59.8093 369.08C59.5293 368.768 59.1253 368.612 58.5973 368.612C58.0133 368.612 57.5493 368.796 57.2053 369.164C56.8613 369.524 56.6893 370.044 56.6893 370.724V374H55.5373V367.64H56.6413V368.588C56.8733 368.26 57.1773 368.012 57.5533 367.844C57.9293 367.668 58.3573 367.58 58.8373 367.58C59.3333 367.58 59.7733 367.68 60.1573 367.88C60.5413 368.08 60.8373 368.372 61.0453 368.756C61.2853 368.388 61.6173 368.1 62.0413 367.892C62.4733 367.684 62.9573 367.58 63.4933 367.58ZM68.493 374.072C68.269 374.072 68.077 373.996 67.917 373.844C67.757 373.684 67.677 373.484 67.677 373.244C67.677 373.012 67.757 372.82 67.917 372.668C68.077 372.508 68.269 372.428 68.493 372.428C68.717 372.428 68.905 372.504 69.057 372.656C69.209 372.808 69.285 373.004 69.285 373.244C69.285 373.484 69.205 373.684 69.045 373.844C68.893 373.996 68.709 374.072 68.493 374.072Z" fill="#828282"/>
<path d="M104.2 368.9C104.752 368.9 105.244 369.004 105.676 369.212C106.116 369.42 106.46 369.72 106.708 370.112C106.956 370.496 107.08 370.94 107.08 371.444C107.08 371.972 106.948 372.436 106.684 372.836C106.428 373.236 106.072 373.548 105.616 373.772C105.168 373.988 104.664 374.096 104.104 374.096C102.976 374.096 102.104 373.732 101.488 373.004C100.88 372.276 100.576 371.244 100.576 369.908C100.576 368.972 100.74 368.176 101.068 367.52C101.404 366.856 101.868 366.356 102.46 366.02C103.06 365.676 103.756 365.504 104.548 365.504C104.956 365.504 105.34 365.548 105.7 365.636C106.06 365.716 106.372 365.836 106.636 365.996L106.18 366.932C105.78 366.668 105.244 366.536 104.572 366.536C103.7 366.536 103.016 366.808 102.52 367.352C102.024 367.888 101.776 368.672 101.776 369.704C101.776 369.832 101.78 369.932 101.788 370.004C102.028 369.644 102.356 369.372 102.772 369.188C103.196 368.996 103.672 368.9 104.2 368.9ZM104.056 373.124C104.608 373.124 105.056 372.976 105.4 372.68C105.744 372.384 105.916 371.988 105.916 371.492C105.916 370.996 105.74 370.604 105.388 370.316C105.044 370.02 104.58 369.872 103.996 369.872C103.62 369.872 103.284 369.944 102.988 370.088C102.7 370.232 102.472 370.428 102.304 370.676C102.144 370.924 102.064 371.2 102.064 371.504C102.064 371.8 102.14 372.072 102.292 372.32C102.452 372.56 102.68 372.756 102.976 372.908C103.28 373.052 103.64 373.124 104.056 373.124ZM114.037 367.58C114.917 367.58 115.589 367.796 116.053 368.228C116.525 368.66 116.761 369.304 116.761 370.16V374H115.669V373.16C115.477 373.456 115.201 373.684 114.841 373.844C114.489 373.996 114.069 374.072 113.581 374.072C112.869 374.072 112.297 373.9 111.865 373.556C111.441 373.212 111.229 372.76 111.229 372.2C111.229 371.64 111.433 371.192 111.841 370.856C112.249 370.512 112.897 370.34 113.785 370.34H115.609V370.112C115.609 369.616 115.465 369.236 115.177 368.972C114.889 368.708 114.465 368.576 113.905 368.576C113.529 368.576 113.161 368.64 112.801 368.768C112.441 368.888 112.137 369.052 111.889 369.26L111.409 368.396C111.737 368.132 112.129 367.932 112.585 367.796C113.041 367.652 113.525 367.58 114.037 367.58ZM113.773 373.184C114.213 373.184 114.593 373.088 114.913 372.896C115.233 372.696 115.465 372.416 115.609 372.056V371.168H113.833C112.857 371.168 112.369 371.496 112.369 372.152C112.369 372.472 112.493 372.724 112.741 372.908C112.989 373.092 113.333 373.184 113.773 373.184ZM119.169 374.072C118.945 374.072 118.753 373.996 118.593 373.844C118.433 373.684 118.353 373.484 118.353 373.244C118.353 373.012 118.433 372.82 118.593 372.668C118.753 372.508 118.945 372.428 119.169 372.428C119.393 372.428 119.581 372.504 119.733 372.656C119.885 372.808 119.961 373.004 119.961 373.244C119.961 373.484 119.881 373.684 119.721 373.844C119.569 373.996 119.385 374.072 119.169 374.072ZM129.568 367.58C130.368 367.58 131 367.812 131.464 368.276C131.936 368.74 132.172 369.428 132.172 370.34V374H131.02V370.472C131.02 369.856 130.876 369.392 130.588 369.08C130.308 368.768 129.904 368.612 129.376 368.612C128.792 368.612 128.328 368.796 127.984 369.164C127.64 369.524 127.468 370.044 127.468 370.724V374H126.316V370.472C126.316 369.856 126.172 369.392 125.884 369.08C125.604 368.768 125.2 368.612 124.672 368.612C124.088 368.612 123.624 368.796 123.28 369.164C122.936 369.524 122.764 370.044 122.764 370.724V374H121.612V367.64H122.716V368.588C122.948 368.26 123.252 368.012 123.628 367.844C124.004 367.668 124.432 367.58 124.912 367.58C125.408 367.58 125.848 367.68 126.232 367.88C126.616 368.08 126.912 368.372 127.12 368.756C127.36 368.388 127.692 368.1 128.116 367.892C128.548 367.684 129.032 367.58 129.568 367.58ZM134.567 374.072C134.343 374.072 134.151 373.996 133.991 373.844C133.831 373.684 133.751 373.484 133.751 373.244C133.751 373.012 133.831 372.82 133.991 372.668C134.151 372.508 134.343 372.428 134.567 372.428C134.791 372.428 134.979 372.504 135.131 372.656C135.283 372.808 135.359 373.004 135.359 373.244C135.359 373.484 135.279 373.684 135.119 373.844C134.967 373.996 134.783 374.072 134.567 374.072Z" fill="#828282"/>
<path d="M173.18 365.6V374H171.992V366.644H170.096V365.6H173.18ZM180.921 372.956V374H174.885V373.184L178.305 369.884C178.721 369.484 179.001 369.14 179.145 368.852C179.289 368.556 179.361 368.26 179.361 367.964C179.361 367.524 179.205 367.184 178.893 366.944C178.589 366.696 178.149 366.572 177.573 366.572C176.645 366.572 175.929 366.876 175.425 367.484L174.609 366.776C174.937 366.376 175.365 366.064 175.893 365.84C176.429 365.616 177.025 365.504 177.681 365.504C178.561 365.504 179.261 365.716 179.781 366.14C180.301 366.556 180.561 367.124 180.561 367.844C180.561 368.292 180.465 368.716 180.273 369.116C180.081 369.516 179.717 369.972 179.181 370.484L176.613 372.956H180.921ZM189.019 367.58C189.635 367.58 190.187 367.716 190.675 367.988C191.163 368.26 191.543 368.64 191.815 369.128C192.095 369.616 192.235 370.18 192.235 370.82C192.235 371.46 192.095 372.028 191.815 372.524C191.543 373.012 191.163 373.392 190.675 373.664C190.187 373.936 189.635 374.072 189.019 374.072C188.563 374.072 188.143 373.984 187.759 373.808C187.383 373.632 187.063 373.376 186.799 373.04V376.328H185.647V367.64H186.751V368.648C187.007 368.296 187.331 368.032 187.723 367.856C188.115 367.672 188.547 367.58 189.019 367.58ZM188.923 373.064C189.331 373.064 189.695 372.972 190.015 372.788C190.343 372.596 190.599 372.332 190.783 371.996C190.975 371.652 191.071 371.26 191.071 370.82C191.071 370.38 190.975 369.992 190.783 369.656C190.599 369.312 190.343 369.048 190.015 368.864C189.695 368.68 189.331 368.588 188.923 368.588C188.523 368.588 188.159 368.684 187.831 368.876C187.511 369.06 187.255 369.32 187.063 369.656C186.879 369.992 186.787 370.38 186.787 370.82C186.787 371.26 186.879 371.652 187.063 371.996C187.247 372.332 187.503 372.596 187.831 372.788C188.159 372.972 188.523 373.064 188.923 373.064ZM193.962 374.072C193.738 374.072 193.546 373.996 193.386 373.844C193.226 373.684 193.146 373.484 193.146 373.244C193.146 373.012 193.226 372.82 193.386 372.668C193.546 372.508 193.738 372.428 193.962 372.428C194.186 372.428 194.374 372.504 194.526 372.656C194.678 372.808 194.754 373.004 194.754 373.244C194.754 373.484 194.674 373.684 194.514 373.844C194.362 373.996 194.178 374.072 193.962 374.072ZM204.361 367.58C205.161 367.58 205.793 367.812 206.257 368.276C206.729 368.74 206.965 369.428 206.965 370.34V374H205.813V370.472C205.813 369.856 205.669 369.392 205.381 369.08C205.101 368.768 204.697 368.612 204.169 368.612C203.585 368.612 203.121 368.796 202.777 369.164C202.433 369.524 202.261 370.044 202.261 370.724V374H201.109V370.472C201.109 369.856 200.965 369.392 200.677 369.08C200.397 368.768 199.993 368.612 199.465 368.612C198.881 368.612 198.417 368.796 198.073 369.164C197.729 369.524 197.557 370.044 197.557 370.724V374H196.405V367.64H197.509V368.588C197.741 368.26 198.045 368.012 198.421 367.844C198.797 367.668 199.225 367.58 199.705 367.58C200.201 367.58 200.641 367.68 201.025 367.88C201.409 368.08 201.705 368.372 201.913 368.756C202.153 368.388 202.485 368.1 202.909 367.892C203.341 367.684 203.825 367.58 204.361 367.58ZM209.36 374.072C209.136 374.072 208.944 373.996 208.784 373.844C208.624 373.684 208.544 373.484 208.544 373.244C208.544 373.012 208.624 372.82 208.784 372.668C208.944 372.508 209.136 372.428 209.36 372.428C209.584 372.428 209.772 372.504 209.924 372.656C210.076 372.808 210.152 373.004 210.152 373.244C210.152 373.484 210.072 373.684 209.912 373.844C209.76 373.996 209.576 374.072 209.36 374.072Z" fill="#828282"/>
<path d="M244.2 368.9C244.752 368.9 245.244 369.004 245.676 369.212C246.116 369.42 246.46 369.72 246.708 370.112C246.956 370.496 247.08 370.94 247.08 371.444C247.08 371.972 246.948 372.436 246.684 372.836C246.428 373.236 246.072 373.548 245.616 373.772C245.168 373.988 244.664 374.096 244.104 374.096C242.976 374.096 242.104 373.732 241.488 373.004C240.88 372.276 240.576 371.244 240.576 369.908C240.576 368.972 240.74 368.176 241.068 367.52C241.404 366.856 241.868 366.356 242.46 366.02C243.06 365.676 243.756 365.504 244.548 365.504C244.956 365.504 245.34 365.548 245.7 365.636C246.06 365.716 246.372 365.836 246.636 365.996L246.18 366.932C245.78 366.668 245.244 366.536 244.572 366.536C243.7 366.536 243.016 366.808 242.52 367.352C242.024 367.888 241.776 368.672 241.776 369.704C241.776 369.832 241.78 369.932 241.788 370.004C242.028 369.644 242.356 369.372 242.772 369.188C243.196 368.996 243.672 368.9 244.2 368.9ZM244.056 373.124C244.608 373.124 245.056 372.976 245.4 372.68C245.744 372.384 245.916 371.988 245.916 371.492C245.916 370.996 245.74 370.604 245.388 370.316C245.044 370.02 244.58 369.872 243.996 369.872C243.62 369.872 243.284 369.944 242.988 370.088C242.7 370.232 242.472 370.428 242.304 370.676C242.144 370.924 242.064 371.2 242.064 371.504C242.064 371.8 242.14 372.072 242.292 372.32C242.452 372.56 242.68 372.756 242.976 372.908C243.28 373.052 243.64 373.124 244.056 373.124ZM255.093 367.58C255.709 367.58 256.261 367.716 256.749 367.988C257.237 368.26 257.617 368.64 257.889 369.128C258.169 369.616 258.309 370.18 258.309 370.82C258.309 371.46 258.169 372.028 257.889 372.524C257.617 373.012 257.237 373.392 256.749 373.664C256.261 373.936 255.709 374.072 255.093 374.072C254.637 374.072 254.217 373.984 253.833 373.808C253.457 373.632 253.137 373.376 252.873 373.04V376.328H251.721V367.64H252.825V368.648C253.081 368.296 253.405 368.032 253.797 367.856C254.189 367.672 254.621 367.58 255.093 367.58ZM254.997 373.064C255.405 373.064 255.769 372.972 256.089 372.788C256.417 372.596 256.673 372.332 256.857 371.996C257.049 371.652 257.145 371.26 257.145 370.82C257.145 370.38 257.049 369.992 256.857 369.656C256.673 369.312 256.417 369.048 256.089 368.864C255.769 368.68 255.405 368.588 254.997 368.588C254.597 368.588 254.233 368.684 253.905 368.876C253.585 369.06 253.329 369.32 253.137 369.656C252.953 369.992 252.861 370.38 252.861 370.82C252.861 371.26 252.953 371.652 253.137 371.996C253.321 372.332 253.577 372.596 253.905 372.788C254.233 372.972 254.597 373.064 254.997 373.064ZM260.036 374.072C259.812 374.072 259.62 373.996 259.46 373.844C259.3 373.684 259.22 373.484 259.22 373.244C259.22 373.012 259.3 372.82 259.46 372.668C259.62 372.508 259.812 372.428 260.036 372.428C260.26 372.428 260.448 372.504 260.6 372.656C260.752 372.808 260.828 373.004 260.828 373.244C260.828 373.484 260.748 373.684 260.588 373.844C260.436 373.996 260.252 374.072 260.036 374.072ZM270.435 367.58C271.235 367.58 271.867 367.812 272.331 368.276C272.803 368.74 273.039 369.428 273.039 370.34V374H271.887V370.472C271.887 369.856 271.743 369.392 271.455 369.08C271.175 368.768 270.771 368.612 270.243 368.612C269.659 368.612 269.195 368.796 268.851 369.164C268.507 369.524 268.335 370.044 268.335 370.724V374H267.183V370.472C267.183 369.856 267.039 369.392 266.751 369.08C266.471 368.768 266.067 368.612 265.539 368.612C264.955 368.612 264.491 368.796 264.147 369.164C263.803 369.524 263.631 370.044 263.631 370.724V374H262.479V367.64H263.583V368.588C263.815 368.26 264.119 368.012 264.495 367.844C264.871 367.668 265.299 367.58 265.779 367.58C266.275 367.58 266.715 367.68 267.099 367.88C267.483 368.08 267.779 368.372 267.987 368.756C268.227 368.388 268.559 368.1 268.983 367.892C269.415 367.684 269.899 367.58 270.435 367.58ZM275.434 374.072C275.21 374.072 275.018 373.996 274.858 373.844C274.698 373.684 274.618 373.484 274.618 373.244C274.618 373.012 274.698 372.82 274.858 372.668C275.018 372.508 275.21 372.428 275.434 372.428C275.658 372.428 275.846 372.504 275.998 372.656C276.15 372.808 276.226 373.004 276.226 373.244C276.226 373.484 276.146 373.684 275.986 373.844C275.834 373.996 275.65 374.072 275.434 374.072Z" fill="#828282"/>
<path d="M314.2 288.9C314.752 288.9 315.244 289.004 315.676 289.212C316.116 289.42 316.46 289.72 316.708 290.112C316.956 290.496 317.08 290.94 317.08 291.444C317.08 291.972 316.948 292.436 316.684 292.836C316.428 293.236 316.072 293.548 315.616 293.772C315.168 293.988 314.664 294.096 314.104 294.096C312.976 294.096 312.104 293.732 311.488 293.004C310.88 292.276 310.576 291.244 310.576 289.908C310.576 288.972 310.74 288.176 311.068 287.52C311.404 286.856 311.868 286.356 312.46 286.02C313.06 285.676 313.756 285.504 314.548 285.504C314.956 285.504 315.34 285.548 315.7 285.636C316.06 285.716 316.372 285.836 316.636 285.996L316.18 286.932C315.78 286.668 315.244 286.536 314.572 286.536C313.7 286.536 313.016 286.808 312.52 287.352C312.024 287.888 311.776 288.672 311.776 289.704C311.776 289.832 311.78 289.932 311.788 290.004C312.028 289.644 312.356 289.372 312.772 289.188C313.196 288.996 313.672 288.9 314.2 288.9ZM314.056 293.124C314.608 293.124 315.056 292.976 315.4 292.68C315.744 292.384 315.916 291.988 315.916 291.492C315.916 290.996 315.74 290.604 315.388 290.316C315.044 290.02 314.58 289.872 313.996 289.872C313.62 289.872 313.284 289.944 312.988 290.088C312.7 290.232 312.472 290.428 312.304 290.676C312.144 290.924 312.064 291.2 312.064 291.504C312.064 291.8 312.14 292.072 312.292 292.32C312.452 292.56 312.68 292.756 312.976 292.908C313.28 293.052 313.64 293.124 314.056 293.124ZM321.414 294.096C320.75 294.096 320.158 293.928 319.638 293.592C319.126 293.248 318.722 292.752 318.426 292.104C318.13 291.456 317.982 290.688 317.982 289.8C317.982 288.912 318.13 288.144 318.426 287.496C318.722 286.848 319.126 286.356 319.638 286.02C320.158 285.676 320.75 285.504 321.414 285.504C322.07 285.504 322.654 285.676 323.166 286.02C323.686 286.356 324.094 286.848 324.39 287.496C324.686 288.144 324.834 288.912 324.834 289.8C324.834 290.688 324.686 291.456 324.39 292.104C324.094 292.752 323.686 293.248 323.166 293.592C322.654 293.928 322.07 294.096 321.414 294.096ZM321.414 293.028C322.086 293.028 322.622 292.752 323.022 292.2C323.43 291.648 323.634 290.848 323.634 289.8C323.634 288.752 323.43 287.952 323.022 287.4C322.622 286.848 322.086 286.572 321.414 286.572C320.734 286.572 320.19 286.848 319.782 287.4C319.382 287.952 319.182 288.752 319.182 289.8C319.182 290.848 319.382 291.648 319.782 292.2C320.19 292.752 320.734 293.028 321.414 293.028ZM337.681 287.58C338.481 287.58 339.113 287.812 339.577 288.276C340.049 288.74 340.285 289.428 340.285 290.34V294H339.133V290.472C339.133 289.856 338.989 289.392 338.701 289.08C338.421 288.768 338.017 288.612 337.489 288.612C336.905 288.612 336.441 288.796 336.097 289.164C335.753 289.524 335.581 290.044 335.581 290.724V294H334.429V290.472C334.429 289.856 334.285 289.392 333.997 289.08C333.717 288.768 333.313 288.612 332.785 288.612C332.201 288.612 331.737 288.796 331.393 289.164C331.049 289.524 330.877 290.044 330.877 290.724V294H329.725V287.64H330.829V288.588C331.061 288.26 331.365 288.012 331.741 287.844C332.117 287.668 332.545 287.58 333.025 287.58C333.521 287.58 333.961 287.68 334.345 287.88C334.729 288.08 335.025 288.372 335.233 288.756C335.473 288.388 335.805 288.1 336.229 287.892C336.661 287.684 337.145 287.58 337.681 287.58ZM342.405 287.64H343.557V294H342.405V287.64ZM342.981 286.416C342.757 286.416 342.569 286.344 342.417 286.2C342.273 286.056 342.201 285.88 342.201 285.672C342.201 285.464 342.273 285.288 342.417 285.144C342.569 284.992 342.757 284.916 342.981 284.916C343.205 284.916 343.389 284.988 343.533 285.132C343.685 285.268 343.761 285.44 343.761 285.648C343.761 285.864 343.685 286.048 343.533 286.2C343.389 286.344 343.205 286.416 342.981 286.416ZM349.152 287.58C349.96 287.58 350.6 287.816 351.072 288.288C351.552 288.752 351.792 289.436 351.792 290.34V294H350.64V290.472C350.64 289.856 350.492 289.392 350.196 289.08C349.9 288.768 349.476 288.612 348.924 288.612C348.3 288.612 347.808 288.796 347.448 289.164C347.088 289.524 346.908 290.044 346.908 290.724V294H345.756V287.64H346.86V288.6C347.092 288.272 347.404 288.02 347.796 287.844C348.196 287.668 348.648 287.58 349.152 287.58Z" fill="#828282"/>
<path d="M313.792 319.128C314.616 319.208 315.244 319.464 315.676 319.896C316.108 320.32 316.324 320.864 316.324 321.528C316.324 322.008 316.204 322.444 315.964 322.836C315.724 323.22 315.364 323.528 314.884 323.76C314.412 323.984 313.832 324.096 313.144 324.096C312.544 324.096 311.968 324.008 311.416 323.832C310.864 323.648 310.412 323.396 310.06 323.076L310.612 322.128C310.9 322.4 311.268 322.62 311.716 322.788C312.164 322.948 312.64 323.028 313.144 323.028C313.768 323.028 314.252 322.896 314.596 322.632C314.948 322.368 315.124 322.004 315.124 321.54C315.124 321.076 314.952 320.716 314.608 320.46C314.264 320.204 313.744 320.076 313.048 320.076H312.376V319.236L314.488 316.644H310.444V315.6H315.988V316.416L313.792 319.128ZM320.875 324.096C320.211 324.096 319.619 323.928 319.099 323.592C318.587 323.248 318.183 322.752 317.887 322.104C317.591 321.456 317.443 320.688 317.443 319.8C317.443 318.912 317.591 318.144 317.887 317.496C318.183 316.848 318.587 316.356 319.099 316.02C319.619 315.676 320.211 315.504 320.875 315.504C321.531 315.504 322.115 315.676 322.627 316.02C323.147 316.356 323.555 316.848 323.851 317.496C324.147 318.144 324.295 318.912 324.295 319.8C324.295 320.688 324.147 321.456 323.851 322.104C323.555 322.752 323.147 323.248 322.627 323.592C322.115 323.928 321.531 324.096 320.875 324.096ZM320.875 323.028C321.547 323.028 322.083 322.752 322.483 322.2C322.891 321.648 323.095 320.848 323.095 319.8C323.095 318.752 322.891 317.952 322.483 317.4C322.083 316.848 321.547 316.572 320.875 316.572C320.195 316.572 319.651 316.848 319.243 317.4C318.843 317.952 318.643 318.752 318.643 319.8C318.643 320.848 318.843 321.648 319.243 322.2C319.651 322.752 320.195 323.028 320.875 323.028ZM337.142 317.58C337.942 317.58 338.574 317.812 339.038 318.276C339.51 318.74 339.746 319.428 339.746 320.34V324H338.594V320.472C338.594 319.856 338.45 319.392 338.162 319.08C337.882 318.768 337.478 318.612 336.95 318.612C336.366 318.612 335.902 318.796 335.558 319.164C335.214 319.524 335.042 320.044 335.042 320.724V324H333.89V320.472C333.89 319.856 333.746 319.392 333.458 319.08C333.178 318.768 332.774 318.612 332.246 318.612C331.662 318.612 331.198 318.796 330.854 319.164C330.51 319.524 330.338 320.044 330.338 320.724V324H329.186V317.64H330.29V318.588C330.522 318.26 330.826 318.012 331.202 317.844C331.578 317.668 332.006 317.58 332.486 317.58C332.982 317.58 333.422 317.68 333.806 317.88C334.19 318.08 334.486 318.372 334.694 318.756C334.934 318.388 335.266 318.1 335.69 317.892C336.122 317.684 336.606 317.58 337.142 317.58ZM341.865 317.64H343.017V324H341.865V317.64ZM342.441 316.416C342.217 316.416 342.029 316.344 341.877 316.2C341.733 316.056 341.661 315.88 341.661 315.672C341.661 315.464 341.733 315.288 341.877 315.144C342.029 314.992 342.217 314.916 342.441 314.916C342.665 314.916 342.849 314.988 342.993 315.132C343.145 315.268 343.221 315.44 343.221 315.648C343.221 315.864 343.145 316.048 342.993 316.2C342.849 316.344 342.665 316.416 342.441 316.416ZM348.613 317.58C349.421 317.58 350.061 317.816 350.533 318.288C351.013 318.752 351.253 319.436 351.253 320.34V324H350.101V320.472C350.101 319.856 349.953 319.392 349.657 319.08C349.361 318.768 348.937 318.612 348.385 318.612C347.761 318.612 347.269 318.796 346.909 319.164C346.549 319.524 346.369 320.044 346.369 320.724V324H345.217V317.64H346.321V318.6C346.553 318.272 346.865 318.02 347.257 317.844C347.657 317.668 348.109 317.58 348.613 317.58Z" fill="#828282"/>
<path d="M314.008 364.096C313.344 364.096 312.752 363.928 312.232 363.592C311.72 363.248 311.316 362.752 311.02 362.104C310.724 361.456 310.576 360.688 310.576 359.8C310.576 358.912 310.724 358.144 311.02 357.496C311.316 356.848 311.72 356.356 312.232 356.02C312.752 355.676 313.344 355.504 314.008 355.504C314.664 355.504 315.248 355.676 315.76 356.02C316.28 356.356 316.688 356.848 316.984 357.496C317.28 358.144 317.428 358.912 317.428 359.8C317.428 360.688 317.28 361.456 316.984 362.104C316.688 362.752 316.28 363.248 315.76 363.592C315.248 363.928 314.664 364.096 314.008 364.096ZM314.008 363.028C314.68 363.028 315.216 362.752 315.616 362.2C316.024 361.648 316.228 360.848 316.228 359.8C316.228 358.752 316.024 357.952 315.616 357.4C315.216 356.848 314.68 356.572 314.008 356.572C313.328 356.572 312.784 356.848 312.376 357.4C311.976 357.952 311.776 358.752 311.776 359.8C311.776 360.848 311.976 361.648 312.376 362.2C312.784 362.752 313.328 363.028 314.008 363.028Z" fill="#828282"/>
<rect x="23" y="330" width="9" height="13" fill="#828282"/>
<rect x="23" y="343" width="9" height="2" fill="#EDCA71"/>
<rect x="23" y="345" width="9" height="1" fill="#3FDFE9"/>
<rect x="23" y="346" width="9" height="14" fill="#008E86"/>
<rect x="34" y="346" width="9" height="3" fill="#828282"/>
<rect x="34" y="349" width="9" height="11" fill="#008E86"/>
<rect x="45" y="329" width="9" height="9" fill="#828282"/>
<rect x="45" y="338" width="9" height="2" fill="#EDCA71"/>
<rect x="45" y="340" width="9" height="20" fill="#008E86"/>
<rect x="56" y="312" width="9" height="42" fill="#828282"/>
<rect x="56" y="354" width="9" height="6" fill="#008E86"/>
<rect x="67" y="285" width="9" height="18" fill="#828282"/>
<rect x="67" y="303" width="9" height="2" fill="#EDCA71"/>
<rect x="67" y="305" width="9" height="20" fill="#3FDFE9"/>
<rect x="67" y="325" width="9" height="35" fill="#008E86"/>
<rect x="78" y="322" width="9" height="18" fill="#828282"/>
<rect x="78" y="340" width="9" height="14" fill="#EDCA71"/>
<rect x="78" y="354" width="9" height="6" fill="#3FDFE9"/>
<rect width="9" height="2" transform="matrix(1 0 0 -1 115 360)" fill="#008E86"/>
<rect x="126" y="358" width="9" height="2" fill="#828282"/>
<rect x="137" y="294" width="9" height="9" fill="#828282"/>
<rect x="137" y="303" width="9" height="43" fill="#3FDFE9"/>
<rect x="137" y="346" width="9" height="14" fill="#008E86"/>
<rect x="148" y="322" width="9" height="3" fill="#828282"/>
<rect x="148" y="325" width="9" height="15" fill="#3FDFE9"/>
<rect x="148" y="340" width="9" height="20" fill="#008E86"/>
<rect x="163" y="307" width="9" height="7" fill="#828282"/>
<rect x="163" y="314" width="9" height="2" fill="#EDCA71"/>
<rect x="163" y="316" width="9" height="38" fill="#3FDFE9"/>
<rect x="163" y="354" width="9" height="6" fill="#008E86"/>
<rect x="174" y="344" width="9" height="9" fill="#828282"/>
<rect x="174" y="353" width="9" height="1" fill="#EDCA71"/>
<rect x="174" y="354" width="9" height="1" fill="#3FDFE9"/>
<rect x="174" y="355" width="9" height="5" fill="#008E86"/>
<rect x="185" y="320" width="9" height="9" fill="#828282"/>
<rect x="185" y="329" width="9" height="2" fill="#EDCA71"/>
<rect x="185" y="331" width="9" height="2" fill="#3FDFE9"/>
<rect x="185" y="333" width="9" height="27" fill="#008E86"/>
<rect x="196" y="312" width="9" height="10" fill="#828282"/>
<rect x="196" y="322" width="9" height="7" fill="#EDCA71"/>
<rect x="196" y="327" width="9" height="33" fill="#008E86"/>
<rect x="207" y="325" width="9" height="8" fill="#828282"/>
<rect x="207" y="333" width="9" height="10" fill="#EDCA71"/>
<rect x="207" y="343" width="9" height="3" fill="#3FDFE9"/>
<rect x="207" y="346" width="9" height="14" fill="#008E86"/>
<rect x="218" y="331" width="9" height="5" fill="#828282"/>
<rect x="218" y="336" width="9" height="24" fill="#008E86"/>
<rect x="233" y="344" width="9" height="2" fill="#828282"/>
<rect x="233" y="346" width="9" height="4" fill="#3FDFE9"/>
<rect x="233" y="350" width="9" height="10" fill="#008E86"/>
<rect x="244" y="338" width="9" height="4" fill="#828282"/>
<rect width="9" height="1" transform="matrix(1 0 0 -1 244 343)" fill="#3FDFE9"/>
<rect x="244" y="343" width="9" height="17" fill="#008E86"/>
<rect x="255" y="338" width="9" height="2" fill="#828282"/>
<rect x="255" y="340" width="9" height="20" fill="#008E86"/>
<rect x="277" y="346" width="9" height="9" fill="#828282"/>
<rect x="277" y="355" width="9" height="5" fill="#008E86"/>
<rect x="288" y="333" width="9" height="11" fill="#828282"/>
<rect x="288" y="344" width="9" height="16" fill="#008E86"/>
<rect x="20" y="148" width="40" height="20" stroke="#4F4F4F" stroke-width="2"/>
<rect x="60" y="148" width="40" height="20" stroke="#4F4F4F" stroke-width="2"/>
<rect x="100" y="148" width="40" height="20" stroke="#4F4F4F" stroke-width="2"/>
<rect x="140" y="148" width="40" height="20" stroke="#4F4F4F" stroke-width="2"/>
<rect x="180" y="148" width="40" height="20" stroke="#4F4F4F" stroke-width="2"/>
<rect x="220" y="148" width="40" height="20" stroke="#4F4F4F" stroke-width="2"/>
<rect x="260" y="148" width="40" height="20" stroke="#4F4F4F" stroke-width="2"/>
<rect x="20" y="168" width="40" height="20" stroke="#4F4F4F" stroke-width="2"/>
<rect x="60" y="168" width="40" height="20" stroke="#4F4F4F" stroke-width="2"/>
<rect x="100" y="168" width="40" height="20" stroke="#4F4F4F" stroke-width="2"/>
<rect x="140" y="168" width="40" height="20" stroke="#4F4F4F" stroke-width="2"/>
<rect x="180" y="168" width="40" height="20" stroke="#4F4F4F" stroke-width="2"/>
<rect x="220" y="168" width="40" height="20" stroke="#4F4F4F" stroke-width="2"/>
<rect x="260" y="168" width="40" height="20" stroke="#4F4F4F" stroke-width="2"/>
<rect x="20" y="188" width="40" height="20" stroke="#4F4F4F" stroke-width="2"/>
<rect x="60" y="188" width="40" height="20" stroke="#4F4F4F" stroke-width="2"/>
<rect x="100" y="188" width="40" height="20" stroke="#4F4F4F" stroke-width="2"/>
<rect x="140" y="188" width="40" height="20" stroke="#4F4F4F" stroke-width="2"/>
<rect x="180" y="188" width="40" height="20" stroke="#4F4F4F" stroke-width="2"/>
<rect x="220" y="188" width="40" height="20" stroke="#4F4F4F" stroke-width="2"/>
<rect x="260" y="188" width="40" height="20" stroke="#4F4F4F" stroke-width="2"/>
<rect x="20" y="208" width="40" height="20" stroke="#4F4F4F" stroke-width="2"/>
<rect x="60" y="208" width="40" height="20" stroke="#4F4F4F" stroke-width="2"/>
<rect x="100" y="208" width="40" height="20" stroke="#4F4F4F" stroke-width="2"/>
<rect x="140" y="208" width="40" height="20" stroke="#4F4F4F" stroke-width="2"/>
<rect x="180" y="208" width="40" height="20" stroke="#4F4F4F" stroke-width="2"/>
<rect x="220" y="208" width="40" height="20" stroke="#4F4F4F" stroke-width="2"/>
<rect x="260" y="208" width="40" height="20" stroke="#4F4F4F" stroke-width="2"/>
<rect x="20" y="228" width="40" height="20" stroke="#4F4F4F" stroke-width="2"/>
<rect x="60" y="228" width="40" height="20" stroke="#4F4F4F" stroke-width="2"/>
<rect x="100" y="228" width="40" height="20" stroke="#4F4F4F" stroke-width="2"/>
<rect x="140" y="228" width="40" height="20" stroke="#4F4F4F" stroke-width="2"/>
<rect x="180" y="228" width="40" height="20" stroke="#4F4F4F" stroke-width="2"/>
<rect x="220" y="228" width="40" height="20" stroke="#4F4F4F" stroke-width="2"/>
<rect x="260" y="228" width="40" height="20" stroke="#4F4F4F" stroke-width="2"/>
<path d="M43.0022 233.096V242H41.8982V240.992C41.6422 241.344 41.3182 241.612 40.9262 241.796C40.5342 241.98 40.1022 242.072 39.6302 242.072C39.0142 242.072 38.4622 241.936 37.9742 241.664C37.4862 241.392 37.1022 241.012 36.8222 240.524C36.5502 240.028 36.4142 239.46 36.4142 238.82C36.4142 238.18 36.5502 237.616 36.8222 237.128C37.1022 236.64 37.4862 236.26 37.9742 235.988C38.4622 235.716 39.0142 235.58 39.6302 235.58C40.0862 235.58 40.5062 235.668 40.8902 235.844C41.2742 236.012 41.5942 236.264 41.8502 236.6V233.096H43.0022ZM39.7262 241.064C40.1262 241.064 40.4902 240.972 40.8182 240.788C41.1462 240.596 41.4022 240.332 41.5862 239.996C41.7702 239.652 41.8622 239.26 41.8622 238.82C41.8622 238.38 41.7702 237.992 41.5862 237.656C41.4022 237.312 41.1462 237.048 40.8182 236.864C40.4902 236.68 40.1262 236.588 39.7262 236.588C39.3182 236.588 38.9502 236.68 38.6222 236.864C38.3022 237.048 38.0462 237.312 37.8542 237.656C37.6702 237.992 37.5782 238.38 37.5782 238.82C37.5782 239.26 37.6702 239.652 37.8542 239.996C38.0462 240.332 38.3022 240.596 38.6222 240.788C38.9502 240.972 39.3182 241.064 39.7262 241.064Z" fill="#828282"/>
<path d="M79.4162 233.096H80.5682V242H79.4162V233.096Z" fill="#828282"/>
<path d="M122.708 235.58C123.508 235.58 124.14 235.812 124.604 236.276C125.076 236.74 125.312 237.428 125.312 238.34V242H124.16V238.472C124.16 237.856 124.016 237.392 123.728 237.08C123.448 236.768 123.044 236.612 122.516 236.612C121.932 236.612 121.468 236.796 121.124 237.164C120.78 237.524 120.608 238.044 120.608 238.724V242H119.456V238.472C119.456 237.856 119.312 237.392 119.024 237.08C118.744 236.768 118.34 236.612 117.812 236.612C117.228 236.612 116.764 236.796 116.42 237.164C116.076 237.524 115.904 238.044 115.904 238.724V242H114.752V235.64H115.856V236.588C116.088 236.26 116.392 236.012 116.768 235.844C117.144 235.668 117.572 235.58 118.052 235.58C118.548 235.58 118.988 235.68 119.372 235.88C119.756 236.08 120.052 236.372 120.26 236.756C120.5 236.388 120.832 236.1 121.256 235.892C121.688 235.684 122.172 235.58 122.708 235.58Z" fill="#828282"/>
<path d="M162.708 235.58C163.508 235.58 164.14 235.812 164.604 236.276C165.076 236.74 165.312 237.428 165.312 238.34V242H164.16V238.472C164.16 237.856 164.016 237.392 163.728 237.08C163.448 236.768 163.044 236.612 162.516 236.612C161.932 236.612 161.468 236.796 161.124 237.164C160.78 237.524 160.608 238.044 160.608 238.724V242H159.456V238.472C159.456 237.856 159.312 237.392 159.024 237.08C158.744 236.768 158.34 236.612 157.812 236.612C157.228 236.612 156.764 236.796 156.42 237.164C156.076 237.524 155.904 238.044 155.904 238.724V242H154.752V235.64H155.856V236.588C156.088 236.26 156.392 236.012 156.768 235.844C157.144 235.668 157.572 235.58 158.052 235.58C158.548 235.58 158.988 235.68 159.372 235.88C159.756 236.08 160.052 236.372 160.26 236.756C160.5 236.388 160.832 236.1 161.256 235.892C161.688 235.684 162.172 235.58 162.708 235.58Z" fill="#828282"/>
<path d="M198.571 244.4C198.291 244.4 198.031 244.368 197.791 244.304C197.551 244.24 197.351 244.144 197.191 244.016L197.563 243.128C197.803 243.328 198.115 243.428 198.499 243.428C198.803 243.428 199.035 243.332 199.195 243.14C199.363 242.956 199.447 242.68 199.447 242.312V235.64H200.599V242.288C200.599 242.944 200.423 243.46 200.071 243.836C199.719 244.212 199.219 244.4 198.571 244.4ZM200.023 234.416C199.799 234.416 199.611 234.344 199.459 234.2C199.315 234.056 199.243 233.88 199.243 233.672C199.243 233.464 199.315 233.288 199.459 233.144C199.611 232.992 199.799 232.916 200.023 232.916C200.247 232.916 200.431 232.988 200.575 233.132C200.727 233.268 200.803 233.44 200.803 233.648C200.803 233.864 200.727 234.048 200.575 234.2C200.431 234.344 200.247 234.416 200.023 234.416Z" fill="#828282"/>
<path d="M243.368 235.64L240.584 242H239.408L236.624 235.64H237.824L240.008 240.74L242.24 235.64H243.368Z" fill="#828282"/>
<path d="M279.91 242.072C279.39 242.072 278.89 242.004 278.41 241.868C277.93 241.724 277.554 241.544 277.282 241.328L277.762 240.416C278.042 240.616 278.382 240.776 278.782 240.896C279.182 241.016 279.586 241.076 279.994 241.076C281.002 241.076 281.506 240.788 281.506 240.212C281.506 240.02 281.438 239.868 281.302 239.756C281.166 239.644 280.994 239.564 280.786 239.516C280.586 239.46 280.298 239.4 279.922 239.336C279.41 239.256 278.99 239.164 278.662 239.06C278.342 238.956 278.066 238.78 277.834 238.532C277.602 238.284 277.486 237.936 277.486 237.488C277.486 236.912 277.726 236.452 278.206 236.108C278.686 235.756 279.33 235.58 280.138 235.58C280.562 235.58 280.986 235.632 281.41 235.736C281.834 235.84 282.182 235.98 282.454 236.156L281.962 237.068C281.442 236.732 280.83 236.564 280.126 236.564C279.638 236.564 279.266 236.644 279.01 236.804C278.754 236.964 278.626 237.176 278.626 237.44C278.626 237.648 278.698 237.812 278.842 237.932C278.986 238.052 279.162 238.14 279.37 238.196C279.586 238.252 279.886 238.316 280.27 238.388C280.782 238.476 281.194 238.572 281.506 238.676C281.826 238.772 282.098 238.94 282.322 239.18C282.546 239.42 282.658 239.756 282.658 240.188C282.658 240.764 282.41 241.224 281.914 241.568C281.426 241.904 280.758 242.072 279.91 242.072Z" fill="#828282"/>
<path d="M313.18 143.6V152H311.992V144.644H310.096V143.6H313.18ZM318.449 152.096C317.785 152.096 317.193 151.928 316.673 151.592C316.161 151.248 315.757 150.752 315.461 150.104C315.165 149.456 315.017 148.688 315.017 147.8C315.017 146.912 315.165 146.144 315.461 145.496C315.757 144.848 316.161 144.356 316.673 144.02C317.193 143.676 317.785 143.504 318.449 143.504C319.105 143.504 319.689 143.676 320.201 144.02C320.721 144.356 321.129 144.848 321.425 145.496C321.721 146.144 321.869 146.912 321.869 147.8C321.869 148.688 321.721 149.456 321.425 150.104C321.129 150.752 320.721 151.248 320.201 151.592C319.689 151.928 319.105 152.096 318.449 152.096ZM318.449 151.028C319.121 151.028 319.657 150.752 320.057 150.2C320.465 149.648 320.669 148.848 320.669 147.8C320.669 146.752 320.465 145.952 320.057 145.4C319.657 144.848 319.121 144.572 318.449 144.572C317.769 144.572 317.225 144.848 316.817 145.4C316.417 145.952 316.217 146.752 316.217 147.8C316.217 148.848 316.417 149.648 316.817 150.2C317.225 150.752 317.769 151.028 318.449 151.028ZM330.156 145.58C330.964 145.58 331.604 145.816 332.076 146.288C332.556 146.752 332.796 147.436 332.796 148.34V152H331.644V148.472C331.644 147.856 331.496 147.392 331.2 147.08C330.904 146.768 330.48 146.612 329.928 146.612C329.304 146.612 328.812 146.796 328.452 147.164C328.092 147.524 327.912 148.044 327.912 148.724V152H326.76V143.096H327.912V146.54C328.152 146.236 328.464 146 328.848 145.832C329.24 145.664 329.676 145.58 330.156 145.58Z" fill="#828282"/>
<path d="M319.048 185.58C319.848 185.58 320.48 185.812 320.944 186.276C321.416 186.74 321.652 187.428 321.652 188.34V192H320.5V188.472C320.5 187.856 320.356 187.392 320.068 187.08C319.788 186.768 319.384 186.612 318.856 186.612C318.272 186.612 317.808 186.796 317.464 187.164C317.12 187.524 316.948 188.044 316.948 188.724V192H315.796V188.472C315.796 187.856 315.652 187.392 315.364 187.08C315.084 186.768 314.68 186.612 314.152 186.612C313.568 186.612 313.104 186.796 312.76 187.164C312.416 187.524 312.244 188.044 312.244 188.724V192H311.092V185.64H312.196V186.588C312.428 186.26 312.732 186.012 313.108 185.844C313.484 185.668 313.912 185.58 314.392 185.58C314.888 185.58 315.328 185.68 315.712 185.88C316.096 186.08 316.392 186.372 316.6 186.756C316.84 186.388 317.172 186.1 317.596 185.892C318.028 185.684 318.512 185.58 319.048 185.58ZM329.555 188.856C329.555 188.944 329.547 189.06 329.531 189.204H324.371C324.443 189.764 324.687 190.216 325.103 190.56C325.527 190.896 326.051 191.064 326.675 191.064C327.435 191.064 328.047 190.808 328.511 190.296L329.147 191.04C328.859 191.376 328.499 191.632 328.067 191.808C327.643 191.984 327.167 192.072 326.639 192.072C325.967 192.072 325.371 191.936 324.851 191.664C324.331 191.384 323.927 190.996 323.639 190.5C323.359 190.004 323.219 189.444 323.219 188.82C323.219 188.204 323.355 187.648 323.627 187.152C323.907 186.656 324.287 186.272 324.767 186C325.255 185.72 325.803 185.58 326.411 185.58C327.019 185.58 327.559 185.72 328.031 186C328.511 186.272 328.883 186.656 329.147 187.152C329.419 187.648 329.555 188.216 329.555 188.856ZM326.411 186.552C325.859 186.552 325.395 186.72 325.019 187.056C324.651 187.392 324.435 187.832 324.371 188.376H328.451C328.387 187.84 328.167 187.404 327.791 187.068C327.423 186.724 326.963 186.552 326.411 186.552ZM337.155 183.096V192H336.051V190.992C335.795 191.344 335.471 191.612 335.079 191.796C334.687 191.98 334.255 192.072 333.783 192.072C333.167 192.072 332.615 191.936 332.127 191.664C331.639 191.392 331.255 191.012 330.975 190.524C330.703 190.028 330.567 189.46 330.567 188.82C330.567 188.18 330.703 187.616 330.975 187.128C331.255 186.64 331.639 186.26 332.127 185.988C332.615 185.716 333.167 185.58 333.783 185.58C334.239 185.58 334.659 185.668 335.043 185.844C335.427 186.012 335.747 186.264 336.003 186.6V183.096H337.155ZM333.879 191.064C334.279 191.064 334.643 190.972 334.971 190.788C335.299 190.596 335.555 190.332 335.739 189.996C335.923 189.652 336.015 189.26 336.015 188.82C336.015 188.38 335.923 187.992 335.739 187.656C335.555 187.312 335.299 187.048 334.971 186.864C334.643 186.68 334.279 186.588 333.879 186.588C333.471 186.588 333.103 186.68 332.775 186.864C332.455 187.048 332.199 187.312 332.007 187.656C331.823 187.992 331.731 188.38 331.731 188.82C331.731 189.26 331.823 189.652 332.007 189.996C332.199 190.332 332.455 190.596 332.775 190.788C333.103 190.972 333.471 191.064 333.879 191.064ZM339.334 185.64H340.486V192H339.334V185.64ZM339.91 184.416C339.686 184.416 339.498 184.344 339.346 184.2C339.202 184.056 339.13 183.88 339.13 183.672C339.13 183.464 339.202 183.288 339.346 183.144C339.498 182.992 339.686 182.916 339.91 182.916C340.134 182.916 340.318 182.988 340.462 183.132C340.614 183.268 340.69 183.44 340.69 183.648C340.69 183.864 340.614 184.048 340.462 184.2C340.318 184.344 340.134 184.416 339.91 184.416ZM345.002 185.58C345.882 185.58 346.554 185.796 347.018 186.228C347.49 186.66 347.726 187.304 347.726 188.16V192H346.634V191.16C346.442 191.456 346.166 191.684 345.806 191.844C345.454 191.996 345.034 192.072 344.546 192.072C343.834 192.072 343.262 191.9 342.83 191.556C342.406 191.212 342.194 190.76 342.194 190.2C342.194 189.64 342.398 189.192 342.806 188.856C343.214 188.512 343.862 188.34 344.75 188.34H346.574V188.112C346.574 187.616 346.43 187.236 346.142 186.972C345.854 186.708 345.43 186.576 344.87 186.576C344.494 186.576 344.126 186.64 343.766 186.768C343.406 186.888 343.102 187.052 342.854 187.26L342.374 186.396C342.702 186.132 343.094 185.932 343.55 185.796C344.006 185.652 344.49 185.58 345.002 185.58ZM344.738 191.184C345.178 191.184 345.558 191.088 345.878 190.896C346.198 190.696 346.43 190.416 346.574 190.056V189.168H344.798C343.822 189.168 343.334 189.496 343.334 190.152C343.334 190.472 343.458 190.724 343.706 190.908C343.954 191.092 344.298 191.184 344.738 191.184Z" fill="#828282"/>
<path d="M314.008 232.096C313.344 232.096 312.752 231.928 312.232 231.592C311.72 231.248 311.316 230.752 311.02 230.104C310.724 229.456 310.576 228.688 310.576 227.8C310.576 226.912 310.724 226.144 311.02 225.496C311.316 224.848 311.72 224.356 312.232 224.02C312.752 223.676 313.344 223.504 314.008 223.504C314.664 223.504 315.248 223.676 315.76 224.02C316.28 224.356 316.688 224.848 316.984 225.496C317.28 226.144 317.428 226.912 317.428 227.8C317.428 228.688 317.28 229.456 316.984 230.104C316.688 230.752 316.28 231.248 315.76 231.592C315.248 231.928 314.664 232.096 314.008 232.096ZM314.008 231.028C314.68 231.028 315.216 230.752 315.616 230.2C316.024 229.648 316.228 228.848 316.228 227.8C316.228 226.752 316.024 225.952 315.616 225.4C315.216 224.848 314.68 224.572 314.008 224.572C313.328 224.572 312.784 224.848 312.376 225.4C311.976 225.952 311.776 226.752 311.776 227.8C311.776 228.848 311.976 229.648 312.376 230.2C312.784 230.752 313.328 231.028 314.008 231.028Z" fill="#828282"/>
<rect x="230" y="218" width="20" height="10" fill="#828282"/>
<rect x="270" y="157" width="20" height="21" fill="#828282"/>
<rect x="270" y="178" width="20" height="5" fill="#EDCA71"/>
<rect x="270" y="183" width="20" height="11" fill="#3FDFE9"/>
<rect x="270" y="194" width="20" height="34" fill="#008E86"/>
<path d="M300 188L20 188" stroke="#E0E0E0" stroke-dasharray="2 2"/>
</g>
<defs>
<clipPath id="clip0_4970_153650">
<rect width="380" height="480" rx="20" fill="white"/>
</clipPath>
</defs>
</svg>
