<svg width="380" height="224" viewBox="0 0 380 224" fill="none" xmlns="http://www.w3.org/2000/svg">
<g filter="url(#filter0_d_10_3264)">
<rect width="380" height="220" rx="20" fill="#F2F2F2"/>
<path fill-rule="evenodd" clip-rule="evenodd" d="M315 99.9846C315 88.9995 306 79.9922 295 79.9922C233.172 79.9922 208 79.9995 208 79.9995L200 87.9996H163L154 79.9993H119.147C108.147 79.9993 99.1467 88.9995 99.1467 99.9919C99.1467 99.9992 99.1467 100.007 99.1467 100.014C99.1467 111 108.147 120 119.147 120C135.71 120 154 120 154 120L163 128H200L208 120H295.147C306 120 315 111 315 100.007C315 99.9995 315 100.5 315 99.9846Z" fill="#30DCFF"/>
<path fill-rule="evenodd" clip-rule="evenodd" d="M315 99.9888C315 89 306 80 294.853 80C233.025 80 208 80.0001 208 80.0001L200 88H163L154 80.0001H119C108 80.0001 99 89.0001 99 99.9888C99 99.9962 99 100 99 100H104C104 90 111 85.0001 119 85.0001C133.664 85.0001 152 85 152 85L161 93H202L210 85H295C304 85 310 91 310 99.9998L315 100V99.9888Z" fill="white" fill-opacity="0.5"/>
<path fill-rule="evenodd" clip-rule="evenodd" d="M315 100L310 100C310 108.971 304.197 115 295 115C237.995 115 206 115 206 115L198 123H165L156 115H119C108.496 115 104 109 104 100.001L99 100V100.011C99 111 108 120 119 120C135.563 120 154 120 154 120L163 128H200L208 120H295C306 120 315 111 315 100Z" fill="black" fill-opacity="0.25"/>
<path d="M112.732 108.12C112.076 108.12 111.448 108.028 110.848 107.844C110.248 107.652 109.772 107.408 109.42 107.112L109.96 105.9C110.296 106.164 110.712 106.384 111.208 106.56C111.704 106.736 112.212 106.824 112.732 106.824C113.172 106.824 113.528 106.776 113.8 106.68C114.072 106.584 114.272 106.456 114.4 106.296C114.528 106.128 114.592 105.94 114.592 105.732C114.592 105.476 114.5 105.272 114.316 105.12C114.132 104.96 113.892 104.836 113.596 104.748C113.308 104.652 112.984 104.564 112.624 104.484C112.272 104.404 111.916 104.312 111.556 104.208C111.204 104.096 110.88 103.956 110.584 103.788C110.296 103.612 110.06 103.38 109.876 103.092C109.692 102.804 109.6 102.436 109.6 101.988C109.6 101.532 109.72 101.116 109.96 100.74C110.208 100.356 110.58 100.052 111.076 99.828C111.58 99.596 112.216 99.48 112.984 99.48C113.488 99.48 113.988 99.544 114.484 99.672C114.98 99.8 115.412 99.984 115.78 100.224L115.288 101.436C114.912 101.212 114.524 101.048 114.124 100.944C113.724 100.832 113.34 100.776 112.972 100.776C112.54 100.776 112.188 100.828 111.916 100.932C111.652 101.036 111.456 101.172 111.328 101.34C111.208 101.508 111.148 101.7 111.148 101.916C111.148 102.172 111.236 102.38 111.412 102.54C111.596 102.692 111.832 102.812 112.12 102.9C112.416 102.988 112.744 103.076 113.104 103.164C113.464 103.244 113.82 103.336 114.172 103.44C114.532 103.544 114.856 103.68 115.144 103.848C115.44 104.016 115.676 104.244 115.852 104.532C116.036 104.82 116.128 105.184 116.128 105.624C116.128 106.072 116.004 106.488 115.756 106.872C115.516 107.248 115.144 107.552 114.64 107.784C114.136 108.008 113.5 108.12 112.732 108.12ZM120.471 108.084C119.799 108.084 119.199 107.944 118.671 107.664C118.151 107.376 117.743 106.984 117.447 106.488C117.151 105.992 117.003 105.428 117.003 104.796C117.003 104.156 117.151 103.592 117.447 103.104C117.743 102.608 118.151 102.22 118.671 101.94C119.199 101.66 119.799 101.52 120.471 101.52C121.095 101.52 121.643 101.648 122.115 101.904C122.595 102.152 122.959 102.52 123.207 103.008L122.055 103.68C121.863 103.376 121.627 103.152 121.347 103.008C121.075 102.864 120.779 102.792 120.459 102.792C120.091 102.792 119.759 102.872 119.463 103.032C119.167 103.192 118.935 103.424 118.767 103.728C118.599 104.024 118.515 104.38 118.515 104.796C118.515 105.212 118.599 105.572 118.767 105.876C118.935 106.172 119.167 106.4 119.463 106.56C119.759 106.72 120.091 106.8 120.459 106.8C120.779 106.8 121.075 106.728 121.347 106.584C121.627 106.44 121.863 106.216 122.055 105.912L123.207 106.584C122.959 107.064 122.595 107.436 122.115 107.7C121.643 107.956 121.095 108.084 120.471 108.084ZM128.452 108V106.704L128.368 106.428V104.16C128.368 103.72 128.236 103.38 127.972 103.14C127.708 102.892 127.308 102.768 126.772 102.768C126.412 102.768 126.056 102.824 125.704 102.936C125.36 103.048 125.068 103.204 124.828 103.404L124.24 102.312C124.584 102.048 124.992 101.852 125.464 101.724C125.944 101.588 126.44 101.52 126.952 101.52C127.88 101.52 128.596 101.744 129.1 102.192C129.612 102.632 129.868 103.316 129.868 104.244V108H128.452ZM126.436 108.084C125.956 108.084 125.536 108.004 125.176 107.844C124.816 107.676 124.536 107.448 124.336 107.16C124.144 106.864 124.048 106.532 124.048 106.164C124.048 105.804 124.132 105.48 124.3 105.192C124.476 104.904 124.76 104.676 125.152 104.508C125.544 104.34 126.064 104.256 126.712 104.256H128.572V105.252H126.82C126.308 105.252 125.964 105.336 125.788 105.504C125.612 105.664 125.524 105.864 125.524 106.104C125.524 106.376 125.632 106.592 125.848 106.752C126.064 106.912 126.364 106.992 126.748 106.992C127.116 106.992 127.444 106.908 127.732 106.74C128.028 106.572 128.24 106.324 128.368 105.996L128.62 106.896C128.476 107.272 128.216 107.564 127.84 107.772C127.472 107.98 127.004 108.084 126.436 108.084ZM135.429 101.52C135.941 101.52 136.397 101.62 136.797 101.82C137.205 102.02 137.525 102.328 137.757 102.744C137.989 103.152 138.105 103.68 138.105 104.328V108H136.605V104.52C136.605 103.952 136.469 103.528 136.197 103.248C135.933 102.968 135.561 102.828 135.081 102.828C134.729 102.828 134.417 102.9 134.145 103.044C133.873 103.188 133.661 103.404 133.509 103.692C133.365 103.972 133.293 104.328 133.293 104.76V108H131.793V101.592H133.221V103.32L132.969 102.792C133.193 102.384 133.517 102.072 133.941 101.856C134.373 101.632 134.869 101.52 135.429 101.52ZM146.204 108.084C145.548 108.084 144.964 107.944 144.452 107.664C143.94 107.376 143.536 106.984 143.24 106.488C142.944 105.992 142.796 105.428 142.796 104.796C142.796 104.156 142.944 103.592 143.24 103.104C143.536 102.608 143.94 102.22 144.452 101.94C144.964 101.66 145.548 101.52 146.204 101.52C146.868 101.52 147.456 101.66 147.968 101.94C148.488 102.22 148.892 102.604 149.18 103.092C149.476 103.58 149.624 104.148 149.624 104.796C149.624 105.428 149.476 105.992 149.18 106.488C148.892 106.984 148.488 107.376 147.968 107.664C147.456 107.944 146.868 108.084 146.204 108.084ZM146.204 106.8C146.572 106.8 146.9 106.72 147.188 106.56C147.476 106.4 147.7 106.168 147.86 105.864C148.028 105.56 148.112 105.204 148.112 104.796C148.112 104.38 148.028 104.024 147.86 103.728C147.7 103.424 147.476 103.192 147.188 103.032C146.9 102.872 146.576 102.792 146.216 102.792C145.848 102.792 145.52 102.872 145.232 103.032C144.952 103.192 144.728 103.424 144.56 103.728C144.392 104.024 144.308 104.38 144.308 104.796C144.308 105.204 144.392 105.56 144.56 105.864C144.728 106.168 144.952 106.4 145.232 106.56C145.52 106.72 145.844 106.8 146.204 106.8ZM154.61 108.084C154.066 108.084 153.582 107.964 153.158 107.724C152.734 107.484 152.398 107.124 152.15 106.644C151.91 106.156 151.79 105.54 151.79 104.796C151.79 104.044 151.914 103.428 152.162 102.948C152.418 102.468 152.758 102.112 153.182 101.88C153.614 101.64 154.09 101.52 154.61 101.52C155.242 101.52 155.798 101.656 156.278 101.928C156.766 102.2 157.15 102.58 157.43 103.068C157.718 103.556 157.862 104.132 157.862 104.796C157.862 105.46 157.718 106.036 157.43 106.524C157.15 107.012 156.766 107.396 156.278 107.676C155.798 107.948 155.242 108.084 154.61 108.084ZM151.058 108V99.096H152.558V103.08L152.438 104.784L152.486 106.488V108H151.058ZM154.442 106.8C154.802 106.8 155.122 106.72 155.402 106.56C155.69 106.4 155.918 106.168 156.086 105.864C156.254 105.56 156.338 105.204 156.338 104.796C156.338 104.38 156.254 104.024 156.086 103.728C155.918 103.424 155.69 103.192 155.402 103.032C155.122 102.872 154.802 102.792 154.442 102.792C154.082 102.792 153.758 102.872 153.47 103.032C153.182 103.192 152.954 103.424 152.786 103.728C152.618 104.024 152.534 104.38 152.534 104.796C152.534 105.204 152.618 105.56 152.786 105.864C152.954 106.168 153.182 106.4 153.47 106.56C153.758 106.72 154.082 106.8 154.442 106.8ZM158.625 110.412C158.345 110.412 158.081 110.38 157.833 110.316C157.577 110.26 157.361 110.168 157.185 110.04L157.617 108.924C157.849 109.092 158.141 109.176 158.493 109.176C158.765 109.176 158.977 109.088 159.129 108.912C159.281 108.744 159.357 108.492 159.357 108.156V101.592H160.857V108.12C160.857 108.824 160.661 109.38 160.269 109.788C159.885 110.204 159.337 110.412 158.625 110.412ZM160.101 100.536C159.821 100.536 159.589 100.448 159.405 100.272C159.229 100.096 159.141 99.884 159.141 99.636C159.141 99.38 159.229 99.168 159.405 99C159.589 98.824 159.821 98.736 160.101 98.736C160.381 98.736 160.609 98.82 160.785 98.988C160.969 99.148 161.061 99.352 161.061 99.6C161.061 99.864 160.973 100.088 160.797 100.272C160.621 100.448 160.389 100.536 160.101 100.536ZM165.836 108.084C165.124 108.084 164.5 107.944 163.964 107.664C163.436 107.376 163.024 106.984 162.728 106.488C162.44 105.992 162.296 105.428 162.296 104.796C162.296 104.156 162.436 103.592 162.716 103.104C163.004 102.608 163.396 102.22 163.892 101.94C164.396 101.66 164.968 101.52 165.608 101.52C166.232 101.52 166.788 101.656 167.276 101.928C167.764 102.2 168.148 102.584 168.428 103.08C168.708 103.576 168.848 104.16 168.848 104.832C168.848 104.896 168.844 104.968 168.836 105.048C168.836 105.128 168.832 105.204 168.824 105.276H163.484V104.28H168.032L167.444 104.592C167.452 104.224 167.376 103.9 167.216 103.62C167.056 103.34 166.836 103.12 166.556 102.96C166.284 102.8 165.968 102.72 165.608 102.72C165.24 102.72 164.916 102.8 164.636 102.96C164.364 103.12 164.148 103.344 163.988 103.632C163.836 103.912 163.76 104.244 163.76 104.628V104.868C163.76 105.252 163.848 105.592 164.024 105.888C164.2 106.184 164.448 106.412 164.768 106.572C165.088 106.732 165.456 106.812 165.872 106.812C166.232 106.812 166.556 106.756 166.844 106.644C167.132 106.532 167.388 106.356 167.612 106.116L168.416 107.04C168.128 107.376 167.764 107.636 167.324 107.82C166.892 107.996 166.396 108.084 165.836 108.084ZM173.229 108.084C172.557 108.084 171.957 107.944 171.429 107.664C170.909 107.376 170.501 106.984 170.205 106.488C169.909 105.992 169.761 105.428 169.761 104.796C169.761 104.156 169.909 103.592 170.205 103.104C170.501 102.608 170.909 102.22 171.429 101.94C171.957 101.66 172.557 101.52 173.229 101.52C173.853 101.52 174.401 101.648 174.873 101.904C175.353 102.152 175.717 102.52 175.965 103.008L174.813 103.68C174.621 103.376 174.385 103.152 174.105 103.008C173.833 102.864 173.537 102.792 173.217 102.792C172.849 102.792 172.517 102.872 172.221 103.032C171.925 103.192 171.693 103.424 171.525 103.728C171.357 104.024 171.273 104.38 171.273 104.796C171.273 105.212 171.357 105.572 171.525 105.876C171.693 106.172 171.925 106.4 172.221 106.56C172.517 106.72 172.849 106.8 173.217 106.8C173.537 106.8 173.833 106.728 174.105 106.584C174.385 106.44 174.621 106.216 174.813 105.912L175.965 106.584C175.717 107.064 175.353 107.436 174.873 107.7C174.401 107.956 173.853 108.084 173.229 108.084ZM179.755 108.084C179.051 108.084 178.507 107.904 178.123 107.544C177.739 107.176 177.547 106.636 177.547 105.924V100.176H179.047V105.888C179.047 106.192 179.123 106.428 179.275 106.596C179.435 106.764 179.655 106.848 179.935 106.848C180.271 106.848 180.551 106.76 180.775 106.584L181.195 107.652C181.019 107.796 180.803 107.904 180.547 107.976C180.291 108.048 180.027 108.084 179.755 108.084ZM176.491 102.84V101.64H180.763V102.84H176.491Z" fill="#333333"/>
<path fill-rule="evenodd" clip-rule="evenodd" d="M315 138.985C315 128 306 118.992 295 118.992C233.172 118.992 208 119 208 119L200 127H163L154 118.999H119.147C108.147 118.999 99.1467 128 99.1467 138.992C99.1467 138.999 99.1467 139.007 99.1467 139.014C99.1467 150 108.147 159 119.147 159C135.71 159 154 159 154 159L163 167H200L208 159H295.147C306 159 315 150 315 139.007C315 139 315 139.5 315 138.985Z" fill="#30DCFF"/>
<path fill-rule="evenodd" clip-rule="evenodd" d="M315 138.989C315 128 306 119 294.853 119C233.025 119 208 119 208 119L200 127H163L154 119H119C108 119 99 128 99 138.989C99 138.996 99 139 99 139H104C104 129 111 124 119 124C133.664 124 152 124 152 124L161 132H202L210 124H295C304 124 310 130 310 139L315 139V138.989Z" fill="white" fill-opacity="0.5"/>
<path fill-rule="evenodd" clip-rule="evenodd" d="M315 139L310 139C310 147.971 304.197 154 295 154C237.995 154 206 154 206 154L198 162H165L156 154H119C108.496 154 104 148 104 139.001L99 139V139.011C99 150 108 159 119 159C135.563 159 154 159 154 159L163 167H200L208 159H295C306 159 315 150 315 139Z" fill="black" fill-opacity="0.25"/>
<path d="M120.077 147V138.6H121.637V147H120.077ZM123.969 147V140.232C123.969 139.56 124.165 139.024 124.557 138.624C124.957 138.216 125.525 138.012 126.261 138.012C126.525 138.012 126.773 138.04 127.005 138.096C127.245 138.152 127.445 138.24 127.605 138.36L127.197 139.488C127.085 139.4 126.957 139.336 126.813 139.296C126.669 139.248 126.521 139.224 126.369 139.224C126.057 139.224 125.821 139.312 125.661 139.488C125.501 139.656 125.421 139.912 125.421 140.256V140.976L125.469 141.648V147H123.969ZM122.913 141.84V140.64H127.185V141.84H122.913Z" fill="#333333"/>
<path d="M196.964 147.084C196.428 147.084 195.912 147.016 195.416 146.88C194.928 146.736 194.54 146.564 194.252 146.364L194.828 145.224C195.116 145.408 195.46 145.56 195.86 145.68C196.26 145.8 196.66 145.86 197.06 145.86C197.532 145.86 197.872 145.796 198.08 145.668C198.296 145.54 198.404 145.368 198.404 145.152C198.404 144.976 198.332 144.844 198.188 144.756C198.044 144.66 197.856 144.588 197.624 144.54C197.392 144.492 197.132 144.448 196.844 144.408C196.564 144.368 196.28 144.316 195.992 144.252C195.712 144.18 195.456 144.08 195.224 143.952C194.992 143.816 194.804 143.636 194.66 143.412C194.516 143.188 194.444 142.892 194.444 142.524C194.444 142.116 194.56 141.764 194.792 141.468C195.024 141.164 195.348 140.932 195.764 140.772C196.188 140.604 196.688 140.52 197.264 140.52C197.696 140.52 198.132 140.568 198.572 140.664C199.012 140.76 199.376 140.896 199.664 141.072L199.088 142.212C198.784 142.028 198.476 141.904 198.164 141.84C197.86 141.768 197.556 141.732 197.252 141.732C196.796 141.732 196.456 141.8 196.232 141.936C196.016 142.072 195.908 142.244 195.908 142.452C195.908 142.644 195.98 142.788 196.124 142.884C196.268 142.98 196.456 143.056 196.688 143.112C196.92 143.168 197.176 143.216 197.456 143.256C197.744 143.288 198.028 143.34 198.308 143.412C198.588 143.484 198.844 143.584 199.076 143.712C199.316 143.832 199.508 144.004 199.652 144.228C199.796 144.452 199.868 144.744 199.868 145.104C199.868 145.504 199.748 145.852 199.508 146.148C199.276 146.444 198.944 146.676 198.512 146.844C198.08 147.004 197.564 147.084 196.964 147.084ZM204.172 147.084C203.46 147.084 202.836 146.944 202.3 146.664C201.772 146.376 201.36 145.984 201.064 145.488C200.776 144.992 200.632 144.428 200.632 143.796C200.632 143.156 200.772 142.592 201.052 142.104C201.34 141.608 201.732 141.22 202.228 140.94C202.732 140.66 203.304 140.52 203.944 140.52C204.568 140.52 205.124 140.656 205.612 140.928C206.1 141.2 206.484 141.584 206.764 142.08C207.044 142.576 207.184 143.16 207.184 143.832C207.184 143.896 207.18 143.968 207.172 144.048C207.172 144.128 207.168 144.204 207.16 144.276H201.82V143.28H206.368L205.78 143.592C205.788 143.224 205.712 142.9 205.552 142.62C205.392 142.34 205.172 142.12 204.892 141.96C204.62 141.8 204.304 141.72 203.944 141.72C203.576 141.72 203.252 141.8 202.972 141.96C202.7 142.12 202.484 142.344 202.324 142.632C202.172 142.912 202.096 143.244 202.096 143.628V143.868C202.096 144.252 202.184 144.592 202.36 144.888C202.536 145.184 202.784 145.412 203.104 145.572C203.424 145.732 203.792 145.812 204.208 145.812C204.568 145.812 204.892 145.756 205.18 145.644C205.468 145.532 205.724 145.356 205.948 145.116L206.752 146.04C206.464 146.376 206.1 146.636 205.66 146.82C205.228 146.996 204.732 147.084 204.172 147.084ZM212.261 140.52C212.773 140.52 213.229 140.62 213.629 140.82C214.037 141.02 214.357 141.328 214.589 141.744C214.821 142.152 214.937 142.68 214.937 143.328V147H213.437V143.52C213.437 142.952 213.301 142.528 213.029 142.248C212.765 141.968 212.393 141.828 211.913 141.828C211.561 141.828 211.249 141.9 210.977 142.044C210.705 142.188 210.493 142.404 210.341 142.692C210.197 142.972 210.125 143.328 210.125 143.76V147H208.625V140.592H210.053V142.32L209.801 141.792C210.025 141.384 210.349 141.072 210.773 140.856C211.205 140.632 211.701 140.52 212.261 140.52ZM219.563 147.084C218.947 147.084 218.391 146.948 217.895 146.676C217.407 146.396 217.023 146.012 216.743 145.524C216.463 145.036 216.323 144.46 216.323 143.796C216.323 143.132 216.463 142.556 216.743 142.068C217.023 141.58 217.407 141.2 217.895 140.928C218.391 140.656 218.947 140.52 219.563 140.52C220.099 140.52 220.579 140.64 221.003 140.88C221.427 141.112 221.763 141.468 222.011 141.948C222.259 142.428 222.383 143.044 222.383 143.796C222.383 144.54 222.263 145.156 222.023 145.644C221.783 146.124 221.451 146.484 221.027 146.724C220.603 146.964 220.115 147.084 219.563 147.084ZM219.743 145.8C220.103 145.8 220.423 145.72 220.703 145.56C220.991 145.4 221.219 145.168 221.387 144.864C221.563 144.56 221.651 144.204 221.651 143.796C221.651 143.38 221.563 143.024 221.387 142.728C221.219 142.424 220.991 142.192 220.703 142.032C220.423 141.872 220.103 141.792 219.743 141.792C219.383 141.792 219.059 141.872 218.771 142.032C218.491 142.192 218.263 142.424 218.087 142.728C217.919 143.024 217.835 143.38 217.835 143.796C217.835 144.204 217.919 144.56 218.087 144.864C218.263 145.168 218.491 145.4 218.771 145.56C219.059 145.72 219.383 145.8 219.743 145.8ZM221.687 147V145.488L221.747 143.784L221.627 142.08V138.096H223.115V147H221.687ZM228.406 147V140.592H229.834V142.356L229.666 141.84C229.858 141.408 230.158 141.08 230.566 140.856C230.982 140.632 231.498 140.52 232.114 140.52V141.948C232.05 141.932 231.99 141.924 231.934 141.924C231.878 141.916 231.822 141.912 231.766 141.912C231.198 141.912 230.746 142.08 230.41 142.416C230.074 142.744 229.906 143.236 229.906 143.892V147H228.406ZM233.386 147V140.592H234.886V147H233.386ZM234.142 139.536C233.862 139.536 233.63 139.448 233.446 139.272C233.27 139.096 233.182 138.884 233.182 138.636C233.182 138.38 233.27 138.168 233.446 138C233.63 137.824 233.862 137.736 234.142 137.736C234.422 137.736 234.65 137.82 234.826 137.988C235.01 138.148 235.102 138.352 235.102 138.6C235.102 138.864 235.014 139.088 234.838 139.272C234.662 139.448 234.43 139.536 234.142 139.536ZM239.759 149.412C239.167 149.412 238.587 149.332 238.019 149.172C237.459 149.02 236.999 148.796 236.639 148.5L237.311 147.372C237.591 147.604 237.943 147.788 238.367 147.924C238.799 148.068 239.235 148.14 239.675 148.14C240.379 148.14 240.895 147.976 241.223 147.648C241.551 147.328 241.715 146.844 241.715 146.196V145.056L241.835 143.604L241.787 142.152V140.592H243.215V146.028C243.215 147.188 242.919 148.04 242.327 148.584C241.735 149.136 240.879 149.412 239.759 149.412ZM239.567 146.712C238.959 146.712 238.407 146.584 237.911 146.328C237.423 146.064 237.035 145.7 236.747 145.236C236.467 144.772 236.327 144.228 236.327 143.604C236.327 142.988 236.467 142.448 236.747 141.984C237.035 141.52 237.423 141.16 237.911 140.904C238.407 140.648 238.959 140.52 239.567 140.52C240.111 140.52 240.599 140.628 241.031 140.844C241.463 141.06 241.807 141.396 242.063 141.852C242.327 142.308 242.459 142.892 242.459 143.604C242.459 144.316 242.327 144.904 242.063 145.368C241.807 145.824 241.463 146.164 241.031 146.388C240.599 146.604 240.111 146.712 239.567 146.712ZM239.795 145.44C240.171 145.44 240.507 145.364 240.803 145.212C241.099 145.052 241.327 144.836 241.487 144.564C241.655 144.284 241.739 143.964 241.739 143.604C241.739 143.244 241.655 142.928 241.487 142.656C241.327 142.376 241.099 142.164 240.803 142.02C240.507 141.868 240.171 141.792 239.795 141.792C239.419 141.792 239.079 141.868 238.775 142.02C238.479 142.164 238.247 142.376 238.079 142.656C237.919 142.928 237.839 143.244 237.839 143.604C237.839 143.964 237.919 144.284 238.079 144.564C238.247 144.836 238.479 145.052 238.775 145.212C239.079 145.364 239.419 145.44 239.795 145.44ZM248.823 140.52C249.335 140.52 249.791 140.62 250.191 140.82C250.599 141.02 250.919 141.328 251.151 141.744C251.383 142.152 251.499 142.68 251.499 143.328V147H249.999V143.52C249.999 142.952 249.863 142.528 249.591 142.248C249.327 141.968 248.955 141.828 248.475 141.828C248.123 141.828 247.811 141.9 247.539 142.044C247.267 142.188 247.055 142.404 246.903 142.692C246.759 142.972 246.687 143.328 246.687 143.76V147H245.187V138.096H246.687V142.32L246.363 141.792C246.587 141.384 246.911 141.072 247.335 140.856C247.767 140.632 248.263 140.52 248.823 140.52ZM255.814 147.084C255.11 147.084 254.566 146.904 254.182 146.544C253.798 146.176 253.606 145.636 253.606 144.924V139.176H255.106V144.888C255.106 145.192 255.182 145.428 255.334 145.596C255.494 145.764 255.714 145.848 255.994 145.848C256.33 145.848 256.61 145.76 256.834 145.584L257.254 146.652C257.078 146.796 256.862 146.904 256.606 146.976C256.35 147.048 256.086 147.084 255.814 147.084ZM252.55 141.84V140.64H256.822V141.84H252.55Z" fill="#333333"/>
<rect x="140" y="133" width="34" height="20" rx="5" fill="#F2F2F2"/>
<path d="M147.828 147.096C147.26 147.096 146.772 146.976 146.364 146.736C145.956 146.496 145.644 146.132 145.428 145.644C145.212 145.148 145.104 144.524 145.104 143.772C145.104 143.012 145.216 142.388 145.44 141.9C145.672 141.412 145.992 141.048 146.4 140.808C146.808 140.568 147.284 140.448 147.828 140.448C148.436 140.448 148.98 140.584 149.46 140.856C149.948 141.128 150.332 141.512 150.612 142.008C150.9 142.504 151.044 143.092 151.044 143.772C151.044 144.444 150.9 145.028 150.612 145.524C150.332 146.02 149.948 146.408 149.46 146.688C148.98 146.96 148.436 147.096 147.828 147.096ZM144.012 147V138.096H145.884V141.852L145.764 143.76L145.8 145.68V147H144.012ZM147.504 145.56C147.816 145.56 148.092 145.488 148.332 145.344C148.58 145.2 148.776 144.996 148.92 144.732C149.072 144.46 149.148 144.14 149.148 143.772C149.148 143.396 149.072 143.076 148.92 142.812C148.776 142.548 148.58 142.344 148.332 142.2C148.092 142.056 147.816 141.984 147.504 141.984C147.192 141.984 146.912 142.056 146.664 142.2C146.416 142.344 146.22 142.548 146.076 142.812C145.932 143.076 145.86 143.396 145.86 143.772C145.86 144.14 145.932 144.46 146.076 144.732C146.22 144.996 146.416 145.2 146.664 145.344C146.912 145.488 147.192 145.56 147.504 145.56ZM152.298 147V138.096H154.17V147H152.298ZM158.631 147.096C158.095 147.096 157.615 146.992 157.191 146.784C156.775 146.576 156.451 146.26 156.219 145.836C155.987 145.404 155.871 144.856 155.871 144.192V140.544H157.743V143.916C157.743 144.452 157.855 144.848 158.079 145.104C158.311 145.352 158.635 145.476 159.051 145.476C159.339 145.476 159.595 145.416 159.819 145.296C160.043 145.168 160.219 144.976 160.347 144.72C160.475 144.456 160.539 144.128 160.539 143.736V140.544H162.411V147H160.635V145.224L160.959 145.74C160.743 146.188 160.423 146.528 159.999 146.76C159.583 146.984 159.127 147.096 158.631 147.096ZM167.349 147.096C166.613 147.096 165.965 146.952 165.405 146.664C164.853 146.376 164.425 145.984 164.121 145.488C163.817 144.984 163.665 144.412 163.665 143.772C163.665 143.124 163.813 142.552 164.109 142.056C164.413 141.552 164.825 141.16 165.345 140.88C165.865 140.592 166.453 140.448 167.109 140.448C167.741 140.448 168.309 140.584 168.813 140.856C169.325 141.12 169.729 141.504 170.025 142.008C170.321 142.504 170.469 143.1 170.469 143.796C170.469 143.868 170.465 143.952 170.457 144.048C170.449 144.136 170.441 144.22 170.433 144.3H165.189V143.208H169.449L168.729 143.532C168.729 143.196 168.661 142.904 168.525 142.656C168.389 142.408 168.201 142.216 167.961 142.08C167.721 141.936 167.441 141.864 167.121 141.864C166.801 141.864 166.517 141.936 166.269 142.08C166.029 142.216 165.841 142.412 165.705 142.668C165.569 142.916 165.501 143.212 165.501 143.556V143.844C165.501 144.196 165.577 144.508 165.729 144.78C165.889 145.044 166.109 145.248 166.389 145.392C166.677 145.528 167.013 145.596 167.397 145.596C167.741 145.596 168.041 145.544 168.297 145.44C168.561 145.336 168.801 145.18 169.017 144.972L170.013 146.052C169.717 146.388 169.345 146.648 168.897 146.832C168.449 147.008 167.933 147.096 167.349 147.096Z" fill="#333333"/>
<path fill-rule="evenodd" clip-rule="evenodd" d="M315 177.985C315 167 306 157.992 295 157.992C233.172 157.992 208 158 208 158L200 166H163L154 157.999H119.147C108.147 157.999 99.1467 167 99.1467 177.992C99.1467 177.999 99.1467 178.007 99.1467 178.014C99.1467 189 108.147 198 119.147 198C135.71 198 154 198 154 198L163 206H200L208 198H295.147C306 198 315 189 315 178.007C315 178 315 178.5 315 177.985Z" fill="#30DCFF"/>
<path fill-rule="evenodd" clip-rule="evenodd" d="M315 177.989C315 167 306 158 294.853 158C233.025 158 208 158 208 158L200 166H163L154 158H119C108 158 99 167 99 177.989C99 177.996 99 178 99 178H104C104 168 111 163 119 163C133.664 163 152 163 152 163L161 171H202L210 163H295C304 163 310 169 310 178L315 178V177.989Z" fill="white" fill-opacity="0.5"/>
<path fill-rule="evenodd" clip-rule="evenodd" d="M315 178L310 178C310 186.971 304.197 193 295 193C237.995 193 206 193 206 193L198 201H165L156 193H119C108.496 193 104 187 104 178.001L99 178V178.011C99 189 108 198 119 198C135.563 198 154 198 154 198L163 206H200L208 198H295C306 198 315 189 315 178Z" fill="black" fill-opacity="0.25"/>
<path d="M120.077 186V177.6H121.637V186H120.077ZM123.969 186V179.232C123.969 178.56 124.165 178.024 124.557 177.624C124.957 177.216 125.525 177.012 126.261 177.012C126.525 177.012 126.773 177.04 127.005 177.096C127.245 177.152 127.445 177.24 127.605 177.36L127.197 178.488C127.085 178.4 126.957 178.336 126.813 178.296C126.669 178.248 126.521 178.224 126.369 178.224C126.057 178.224 125.821 178.312 125.661 178.488C125.501 178.656 125.421 178.912 125.421 179.256V179.976L125.469 180.648V186H123.969ZM122.913 180.84V179.64H127.185V180.84H122.913Z" fill="#333333"/>
<path d="M196.964 186.084C196.428 186.084 195.912 186.016 195.416 185.88C194.928 185.736 194.54 185.564 194.252 185.364L194.828 184.224C195.116 184.408 195.46 184.56 195.86 184.68C196.26 184.8 196.66 184.86 197.06 184.86C197.532 184.86 197.872 184.796 198.08 184.668C198.296 184.54 198.404 184.368 198.404 184.152C198.404 183.976 198.332 183.844 198.188 183.756C198.044 183.66 197.856 183.588 197.624 183.54C197.392 183.492 197.132 183.448 196.844 183.408C196.564 183.368 196.28 183.316 195.992 183.252C195.712 183.18 195.456 183.08 195.224 182.952C194.992 182.816 194.804 182.636 194.66 182.412C194.516 182.188 194.444 181.892 194.444 181.524C194.444 181.116 194.56 180.764 194.792 180.468C195.024 180.164 195.348 179.932 195.764 179.772C196.188 179.604 196.688 179.52 197.264 179.52C197.696 179.52 198.132 179.568 198.572 179.664C199.012 179.76 199.376 179.896 199.664 180.072L199.088 181.212C198.784 181.028 198.476 180.904 198.164 180.84C197.86 180.768 197.556 180.732 197.252 180.732C196.796 180.732 196.456 180.8 196.232 180.936C196.016 181.072 195.908 181.244 195.908 181.452C195.908 181.644 195.98 181.788 196.124 181.884C196.268 181.98 196.456 182.056 196.688 182.112C196.92 182.168 197.176 182.216 197.456 182.256C197.744 182.288 198.028 182.34 198.308 182.412C198.588 182.484 198.844 182.584 199.076 182.712C199.316 182.832 199.508 183.004 199.652 183.228C199.796 183.452 199.868 183.744 199.868 184.104C199.868 184.504 199.748 184.852 199.508 185.148C199.276 185.444 198.944 185.676 198.512 185.844C198.08 186.004 197.564 186.084 196.964 186.084ZM204.172 186.084C203.46 186.084 202.836 185.944 202.3 185.664C201.772 185.376 201.36 184.984 201.064 184.488C200.776 183.992 200.632 183.428 200.632 182.796C200.632 182.156 200.772 181.592 201.052 181.104C201.34 180.608 201.732 180.22 202.228 179.94C202.732 179.66 203.304 179.52 203.944 179.52C204.568 179.52 205.124 179.656 205.612 179.928C206.1 180.2 206.484 180.584 206.764 181.08C207.044 181.576 207.184 182.16 207.184 182.832C207.184 182.896 207.18 182.968 207.172 183.048C207.172 183.128 207.168 183.204 207.16 183.276H201.82V182.28H206.368L205.78 182.592C205.788 182.224 205.712 181.9 205.552 181.62C205.392 181.34 205.172 181.12 204.892 180.96C204.62 180.8 204.304 180.72 203.944 180.72C203.576 180.72 203.252 180.8 202.972 180.96C202.7 181.12 202.484 181.344 202.324 181.632C202.172 181.912 202.096 182.244 202.096 182.628V182.868C202.096 183.252 202.184 183.592 202.36 183.888C202.536 184.184 202.784 184.412 203.104 184.572C203.424 184.732 203.792 184.812 204.208 184.812C204.568 184.812 204.892 184.756 205.18 184.644C205.468 184.532 205.724 184.356 205.948 184.116L206.752 185.04C206.464 185.376 206.1 185.636 205.66 185.82C205.228 185.996 204.732 186.084 204.172 186.084ZM212.261 179.52C212.773 179.52 213.229 179.62 213.629 179.82C214.037 180.02 214.357 180.328 214.589 180.744C214.821 181.152 214.937 181.68 214.937 182.328V186H213.437V182.52C213.437 181.952 213.301 181.528 213.029 181.248C212.765 180.968 212.393 180.828 211.913 180.828C211.561 180.828 211.249 180.9 210.977 181.044C210.705 181.188 210.493 181.404 210.341 181.692C210.197 181.972 210.125 182.328 210.125 182.76V186H208.625V179.592H210.053V181.32L209.801 180.792C210.025 180.384 210.349 180.072 210.773 179.856C211.205 179.632 211.701 179.52 212.261 179.52ZM219.563 186.084C218.947 186.084 218.391 185.948 217.895 185.676C217.407 185.396 217.023 185.012 216.743 184.524C216.463 184.036 216.323 183.46 216.323 182.796C216.323 182.132 216.463 181.556 216.743 181.068C217.023 180.58 217.407 180.2 217.895 179.928C218.391 179.656 218.947 179.52 219.563 179.52C220.099 179.52 220.579 179.64 221.003 179.88C221.427 180.112 221.763 180.468 222.011 180.948C222.259 181.428 222.383 182.044 222.383 182.796C222.383 183.54 222.263 184.156 222.023 184.644C221.783 185.124 221.451 185.484 221.027 185.724C220.603 185.964 220.115 186.084 219.563 186.084ZM219.743 184.8C220.103 184.8 220.423 184.72 220.703 184.56C220.991 184.4 221.219 184.168 221.387 183.864C221.563 183.56 221.651 183.204 221.651 182.796C221.651 182.38 221.563 182.024 221.387 181.728C221.219 181.424 220.991 181.192 220.703 181.032C220.423 180.872 220.103 180.792 219.743 180.792C219.383 180.792 219.059 180.872 218.771 181.032C218.491 181.192 218.263 181.424 218.087 181.728C217.919 182.024 217.835 182.38 217.835 182.796C217.835 183.204 217.919 183.56 218.087 183.864C218.263 184.168 218.491 184.4 218.771 184.56C219.059 184.72 219.383 184.8 219.743 184.8ZM221.687 186V184.488L221.747 182.784L221.627 181.08V177.096H223.115V186H221.687ZM228.406 186V177.096H229.906V186H228.406ZM234.887 186.084C234.175 186.084 233.551 185.944 233.015 185.664C232.487 185.376 232.075 184.984 231.779 184.488C231.491 183.992 231.347 183.428 231.347 182.796C231.347 182.156 231.487 181.592 231.767 181.104C232.055 180.608 232.447 180.22 232.943 179.94C233.447 179.66 234.019 179.52 234.659 179.52C235.283 179.52 235.839 179.656 236.327 179.928C236.815 180.2 237.199 180.584 237.479 181.08C237.759 181.576 237.899 182.16 237.899 182.832C237.899 182.896 237.895 182.968 237.887 183.048C237.887 183.128 237.883 183.204 237.875 183.276H232.535V182.28H237.083L236.495 182.592C236.503 182.224 236.427 181.9 236.267 181.62C236.107 181.34 235.887 181.12 235.607 180.96C235.335 180.8 235.019 180.72 234.659 180.72C234.291 180.72 233.967 180.8 233.687 180.96C233.415 181.12 233.199 181.344 233.039 181.632C232.887 181.912 232.811 182.244 232.811 182.628V182.868C232.811 183.252 232.899 183.592 233.075 183.888C233.251 184.184 233.499 184.412 233.819 184.572C234.139 184.732 234.507 184.812 234.923 184.812C235.283 184.812 235.607 184.756 235.895 184.644C236.183 184.532 236.439 184.356 236.663 184.116L237.467 185.04C237.179 185.376 236.815 185.636 236.375 185.82C235.943 185.996 235.447 186.084 234.887 186.084ZM239.543 186V179.232C239.543 178.56 239.739 178.024 240.131 177.624C240.531 177.216 241.099 177.012 241.835 177.012C242.099 177.012 242.347 177.04 242.579 177.096C242.819 177.152 243.019 177.24 243.179 177.36L242.771 178.488C242.659 178.4 242.531 178.336 242.387 178.296C242.243 178.248 242.095 178.224 241.943 178.224C241.631 178.224 241.395 178.312 241.235 178.488C241.075 178.656 240.995 178.912 240.995 179.256V179.976L241.043 180.648V186H239.543ZM238.487 180.84V179.64H242.759V180.84H238.487ZM246.181 186.084C245.477 186.084 244.933 185.904 244.549 185.544C244.165 185.176 243.973 184.636 243.973 183.924V178.176H245.473V183.888C245.473 184.192 245.549 184.428 245.701 184.596C245.861 184.764 246.081 184.848 246.361 184.848C246.697 184.848 246.977 184.76 247.201 184.584L247.621 185.652C247.445 185.796 247.229 185.904 246.973 185.976C246.717 186.048 246.453 186.084 246.181 186.084ZM242.917 180.84V179.64H247.189V180.84H242.917Z" fill="#333333"/>
<rect x="140" y="172" width="32" height="20" rx="5" fill="#F2F2F2"/>
<path d="M146.387 186V179.544H148.175V181.368L147.923 180.84C148.115 180.384 148.423 180.04 148.847 179.808C149.271 179.568 149.787 179.448 150.395 179.448V181.176C150.315 181.168 150.243 181.164 150.179 181.164C150.115 181.156 150.047 181.152 149.975 181.152C149.463 181.152 149.047 181.3 148.727 181.596C148.415 181.884 148.259 182.336 148.259 182.952V186H146.387ZM154.666 186.096C153.93 186.096 153.282 185.952 152.722 185.664C152.17 185.376 151.742 184.984 151.438 184.488C151.134 183.984 150.982 183.412 150.982 182.772C150.982 182.124 151.13 181.552 151.426 181.056C151.73 180.552 152.142 180.16 152.662 179.88C153.182 179.592 153.77 179.448 154.426 179.448C155.058 179.448 155.626 179.584 156.13 179.856C156.642 180.12 157.046 180.504 157.342 181.008C157.638 181.504 157.786 182.1 157.786 182.796C157.786 182.868 157.782 182.952 157.774 183.048C157.766 183.136 157.758 183.22 157.75 183.3H152.506V182.208H156.766L156.046 182.532C156.046 182.196 155.978 181.904 155.842 181.656C155.706 181.408 155.518 181.216 155.278 181.08C155.038 180.936 154.758 180.864 154.438 180.864C154.118 180.864 153.834 180.936 153.586 181.08C153.346 181.216 153.158 181.412 153.022 181.668C152.886 181.916 152.818 182.212 152.818 182.556V182.844C152.818 183.196 152.894 183.508 153.046 183.78C153.206 184.044 153.426 184.248 153.706 184.392C153.994 184.528 154.33 184.596 154.714 184.596C155.058 184.596 155.358 184.544 155.614 184.44C155.878 184.336 156.118 184.18 156.334 183.972L157.33 185.052C157.034 185.388 156.662 185.648 156.214 185.832C155.766 186.008 155.25 186.096 154.666 186.096ZM161.804 186.096C161.196 186.096 160.648 185.96 160.16 185.688C159.672 185.408 159.284 185.02 158.996 184.524C158.716 184.028 158.576 183.444 158.576 182.772C158.576 182.092 158.716 181.504 158.996 181.008C159.284 180.512 159.672 180.128 160.16 179.856C160.648 179.584 161.196 179.448 161.804 179.448C162.348 179.448 162.824 179.568 163.232 179.808C163.64 180.048 163.956 180.412 164.18 180.9C164.404 181.388 164.516 182.012 164.516 182.772C164.516 183.524 164.408 184.148 164.192 184.644C163.976 185.132 163.664 185.496 163.256 185.736C162.856 185.976 162.372 186.096 161.804 186.096ZM162.128 184.56C162.432 184.56 162.708 184.488 162.956 184.344C163.204 184.2 163.4 183.996 163.544 183.732C163.696 183.46 163.772 183.14 163.772 182.772C163.772 182.396 163.696 182.076 163.544 181.812C163.4 181.548 163.204 181.344 162.956 181.2C162.708 181.056 162.432 180.984 162.128 180.984C161.816 180.984 161.536 181.056 161.288 181.2C161.04 181.344 160.84 181.548 160.688 181.812C160.544 182.076 160.472 182.396 160.472 182.772C160.472 183.14 160.544 183.46 160.688 183.732C160.84 183.996 161.04 184.2 161.288 184.344C161.536 184.488 161.816 184.56 162.128 184.56ZM163.82 186V184.68L163.856 182.76L163.736 180.852V177.096H165.608V186H163.82Z" fill="#333333"/>
<path fill-rule="evenodd" clip-rule="evenodd" d="M315 62C315 51 308 44 297 44C257.917 44 282.045 44 254 44C246.27 44 242.785 41.7635 238.5 37.5C229.193 28.8197 205.783 15 154.427 15C82.0243 15 65 44 65 44C65 44 65.0004 48.7195 65.0006 62C65.0006 72 73 80 83 80C109.488 80 154 80 154 80L163 88H200L208 80C208 80 242.031 80 297 80C308 80 315 73 315 62C315 63.8675 315 59.1323 315 62Z" fill="#FC79FF"/>
<path fill-rule="evenodd" clip-rule="evenodd" d="M310 62C310 70 306 75 297 75L206 75L198 83H165L156 75C156 75 108.393 75 83.0001 75C74.9643 75 70 69 70 62H65C65 72 73 80 83.0001 80C109.441 80 154 80 154 80L163.027 88H200L208 80L297 80C308 80 315 73 315 62C313.5 62 312 61.9999 310 62Z" fill="black" fill-opacity="0.25"/>
<path fill-rule="evenodd" clip-rule="evenodd" d="M65 62H70V46C70 46 84.993 20 154.286 20C201.342 20 225.557 32.6452 235.5 41C240.292 45.0301 246.712 48.9521 253 49C261.5 49 281.464 49 297 49C304.964 49 310 54.5 310 61V62H314H315C315 51 308 44 297 44C257.993 44 281.008 44 253 44C246 44 242.169 41.1595 238.214 37.2066C228.936 28.4998 205.571 15 154.268 15C81.9103 15 65 44 65 44L65 62Z" fill="white" fill-opacity="0.5"/>
<path d="M78.012 69L75.264 60.6H77.28L79.668 68.04H78.66L81.156 60.6H82.956L85.356 68.04H84.384L86.832 60.6H88.692L85.944 69H83.856L81.732 62.472H82.284L80.1 69H78.012ZM93.745 62.448C94.257 62.448 94.713 62.552 95.113 62.76C95.521 62.96 95.841 63.272 96.073 63.696C96.305 64.112 96.421 64.648 96.421 65.304V69H94.549V65.592C94.549 65.072 94.433 64.688 94.201 64.44C93.977 64.192 93.657 64.068 93.241 64.068C92.945 64.068 92.677 64.132 92.437 64.26C92.205 64.38 92.021 64.568 91.885 64.824C91.757 65.08 91.693 65.408 91.693 65.808V69H89.821V60.096H91.693V64.332L91.273 63.792C91.505 63.36 91.837 63.028 92.269 62.796C92.701 62.564 93.193 62.448 93.745 62.448ZM101.369 69.096C100.633 69.096 99.9848 68.952 99.4248 68.664C98.8728 68.376 98.4448 67.984 98.1408 67.488C97.8368 66.984 97.6848 66.412 97.6848 65.772C97.6848 65.124 97.8328 64.552 98.1288 64.056C98.4328 63.552 98.8448 63.16 99.3648 62.88C99.8848 62.592 100.473 62.448 101.129 62.448C101.761 62.448 102.329 62.584 102.833 62.856C103.345 63.12 103.749 63.504 104.045 64.008C104.341 64.504 104.489 65.1 104.489 65.796C104.489 65.868 104.485 65.952 104.477 66.048C104.469 66.136 104.461 66.22 104.453 66.3H99.2088V65.208H103.469L102.749 65.532C102.749 65.196 102.681 64.904 102.545 64.656C102.409 64.408 102.221 64.216 101.981 64.08C101.741 63.936 101.461 63.864 101.141 63.864C100.821 63.864 100.537 63.936 100.289 64.08C100.049 64.216 99.8608 64.412 99.7248 64.668C99.5888 64.916 99.5208 65.212 99.5208 65.556V65.844C99.5208 66.196 99.5968 66.508 99.7488 66.78C99.9088 67.044 100.129 67.248 100.409 67.392C100.697 67.528 101.033 67.596 101.417 67.596C101.761 67.596 102.061 67.544 102.317 67.44C102.581 67.336 102.821 67.18 103.037 66.972L104.033 68.052C103.737 68.388 103.365 68.648 102.917 68.832C102.469 69.008 101.953 69.096 101.369 69.096ZM109.659 62.448C110.171 62.448 110.627 62.552 111.027 62.76C111.435 62.96 111.755 63.272 111.987 63.696C112.219 64.112 112.335 64.648 112.335 65.304V69H110.463V65.592C110.463 65.072 110.347 64.688 110.115 64.44C109.891 64.192 109.571 64.068 109.155 64.068C108.859 64.068 108.591 64.132 108.351 64.26C108.119 64.38 107.935 64.568 107.799 64.824C107.671 65.08 107.607 65.408 107.607 65.808V69H105.735V62.544H107.523V64.332L107.187 63.792C107.419 63.36 107.751 63.028 108.183 62.796C108.615 62.564 109.107 62.448 109.659 62.448ZM114.74 64.788C114.42 64.788 114.144 64.68 113.912 64.464C113.688 64.24 113.576 63.956 113.576 63.612C113.576 63.268 113.688 62.992 113.912 62.784C114.144 62.568 114.42 62.46 114.74 62.46C115.068 62.46 115.344 62.568 115.568 62.784C115.792 62.992 115.904 63.268 115.904 63.612C115.904 63.956 115.792 64.24 115.568 64.464C115.344 64.68 115.068 64.788 114.74 64.788ZM114.74 69.096C114.42 69.096 114.144 68.988 113.912 68.772C113.688 68.548 113.576 68.264 113.576 67.92C113.576 67.576 113.688 67.3 113.912 67.092C114.144 66.876 114.42 66.768 114.74 66.768C115.068 66.768 115.344 66.876 115.568 67.092C115.792 67.3 115.904 67.576 115.904 67.92C115.904 68.264 115.792 68.548 115.568 68.772C115.344 68.988 115.068 69.096 114.74 69.096ZM124.387 69.096C123.843 69.096 123.367 68.976 122.959 68.736C122.551 68.496 122.231 68.132 121.999 67.644C121.775 67.148 121.663 66.524 121.663 65.772C121.663 65.012 121.771 64.388 121.987 63.9C122.203 63.412 122.515 63.048 122.923 62.808C123.331 62.568 123.819 62.448 124.387 62.448C124.995 62.448 125.539 62.588 126.019 62.868C126.507 63.14 126.891 63.524 127.171 64.02C127.459 64.516 127.603 65.1 127.603 65.772C127.603 66.452 127.459 67.04 127.171 67.536C126.891 68.032 126.507 68.416 126.019 68.688C125.539 68.96 124.995 69.096 124.387 69.096ZM120.571 71.328V62.544H122.359V63.864L122.323 65.784L122.443 67.692V71.328H120.571ZM124.063 67.56C124.375 67.56 124.651 67.488 124.891 67.344C125.139 67.2 125.335 66.996 125.479 66.732C125.631 66.46 125.707 66.14 125.707 65.772C125.707 65.396 125.631 65.076 125.479 64.812C125.335 64.548 125.139 64.344 124.891 64.2C124.651 64.056 124.375 63.984 124.063 63.984C123.751 63.984 123.471 64.056 123.223 64.2C122.975 64.344 122.779 64.548 122.635 64.812C122.491 65.076 122.419 65.396 122.419 65.772C122.419 66.14 122.491 66.46 122.635 66.732C122.779 66.996 122.975 67.2 123.223 67.344C123.471 67.488 123.751 67.56 124.063 67.56ZM128.856 69V62.544H130.644V64.368L130.392 63.84C130.584 63.384 130.892 63.04 131.316 62.808C131.74 62.568 132.256 62.448 132.864 62.448V64.176C132.784 64.168 132.712 64.164 132.648 64.164C132.584 64.156 132.516 64.152 132.444 64.152C131.932 64.152 131.516 64.3 131.196 64.596C130.884 64.884 130.728 65.336 130.728 65.952V69H128.856ZM137.134 69.096C136.398 69.096 135.75 68.952 135.19 68.664C134.638 68.376 134.21 67.984 133.906 67.488C133.602 66.984 133.45 66.412 133.45 65.772C133.45 65.124 133.598 64.552 133.894 64.056C134.198 63.552 134.61 63.16 135.13 62.88C135.65 62.592 136.238 62.448 136.894 62.448C137.526 62.448 138.094 62.584 138.598 62.856C139.11 63.12 139.514 63.504 139.81 64.008C140.106 64.504 140.254 65.1 140.254 65.796C140.254 65.868 140.25 65.952 140.242 66.048C140.234 66.136 140.226 66.22 140.218 66.3H134.974V65.208H139.234L138.514 65.532C138.514 65.196 138.446 64.904 138.31 64.656C138.174 64.408 137.986 64.216 137.746 64.08C137.506 63.936 137.226 63.864 136.906 63.864C136.586 63.864 136.302 63.936 136.054 64.08C135.814 64.216 135.626 64.412 135.49 64.668C135.354 64.916 135.286 65.212 135.286 65.556V65.844C135.286 66.196 135.362 66.508 135.514 66.78C135.674 67.044 135.894 67.248 136.174 67.392C136.462 67.528 136.798 67.596 137.182 67.596C137.526 67.596 137.826 67.544 138.082 67.44C138.346 67.336 138.586 67.18 138.802 66.972L139.798 68.052C139.502 68.388 139.13 68.648 138.682 68.832C138.234 69.008 137.718 69.096 137.134 69.096ZM143.673 69.096C143.121 69.096 142.589 69.032 142.077 68.904C141.573 68.768 141.173 68.6 140.877 68.4L141.501 67.056C141.797 67.24 142.145 67.392 142.545 67.512C142.953 67.624 143.353 67.68 143.745 67.68C144.177 67.68 144.481 67.628 144.657 67.524C144.841 67.42 144.933 67.276 144.933 67.092C144.933 66.94 144.861 66.828 144.717 66.756C144.581 66.676 144.397 66.616 144.165 66.576C143.933 66.536 143.677 66.496 143.397 66.456C143.125 66.416 142.849 66.364 142.569 66.3C142.289 66.228 142.033 66.124 141.801 65.988C141.569 65.852 141.381 65.668 141.237 65.436C141.101 65.204 141.033 64.904 141.033 64.536C141.033 64.128 141.149 63.768 141.381 63.456C141.621 63.144 141.965 62.9 142.413 62.724C142.861 62.54 143.397 62.448 144.021 62.448C144.461 62.448 144.909 62.496 145.365 62.592C145.821 62.688 146.201 62.828 146.505 63.012L145.881 64.344C145.569 64.16 145.253 64.036 144.933 63.972C144.621 63.9 144.317 63.864 144.021 63.864C143.605 63.864 143.301 63.92 143.109 64.032C142.917 64.144 142.821 64.288 142.821 64.464C142.821 64.624 142.889 64.744 143.025 64.824C143.169 64.904 143.357 64.968 143.589 65.016C143.821 65.064 144.073 65.108 144.345 65.148C144.625 65.18 144.905 65.232 145.185 65.304C145.465 65.376 145.717 65.48 145.941 65.616C146.173 65.744 146.361 65.924 146.505 66.156C146.649 66.38 146.721 66.676 146.721 67.044C146.721 67.444 146.601 67.8 146.361 68.112C146.121 68.416 145.773 68.656 145.317 68.832C144.869 69.008 144.321 69.096 143.673 69.096ZM150.048 69.096C149.496 69.096 148.964 69.032 148.452 68.904C147.948 68.768 147.548 68.6 147.252 68.4L147.876 67.056C148.172 67.24 148.52 67.392 148.92 67.512C149.328 67.624 149.728 67.68 150.12 67.68C150.552 67.68 150.856 67.628 151.032 67.524C151.216 67.42 151.308 67.276 151.308 67.092C151.308 66.94 151.236 66.828 151.092 66.756C150.956 66.676 150.772 66.616 150.54 66.576C150.308 66.536 150.052 66.496 149.772 66.456C149.5 66.416 149.224 66.364 148.944 66.3C148.664 66.228 148.408 66.124 148.176 65.988C147.944 65.852 147.756 65.668 147.612 65.436C147.476 65.204 147.408 64.904 147.408 64.536C147.408 64.128 147.524 63.768 147.756 63.456C147.996 63.144 148.34 62.9 148.788 62.724C149.236 62.54 149.772 62.448 150.396 62.448C150.836 62.448 151.284 62.496 151.74 62.592C152.196 62.688 152.576 62.828 152.88 63.012L152.256 64.344C151.944 64.16 151.628 64.036 151.308 63.972C150.996 63.9 150.692 63.864 150.396 63.864C149.98 63.864 149.676 63.92 149.484 64.032C149.292 64.144 149.196 64.288 149.196 64.464C149.196 64.624 149.264 64.744 149.4 64.824C149.544 64.904 149.732 64.968 149.964 65.016C150.196 65.064 150.448 65.108 150.72 65.148C151 65.18 151.28 65.232 151.56 65.304C151.84 65.376 152.092 65.48 152.316 65.616C152.548 65.744 152.736 65.924 152.88 66.156C153.024 66.38 153.096 66.676 153.096 67.044C153.096 67.444 152.976 67.8 152.736 68.112C152.496 68.416 152.148 68.656 151.692 68.832C151.244 69.008 150.696 69.096 150.048 69.096ZM159.821 69.096C159.269 69.096 158.737 69.032 158.225 68.904C157.721 68.768 157.321 68.6 157.025 68.4L157.649 67.056C157.945 67.24 158.293 67.392 158.693 67.512C159.101 67.624 159.501 67.68 159.893 67.68C160.325 67.68 160.629 67.628 160.805 67.524C160.989 67.42 161.081 67.276 161.081 67.092C161.081 66.94 161.009 66.828 160.865 66.756C160.729 66.676 160.545 66.616 160.313 66.576C160.081 66.536 159.825 66.496 159.545 66.456C159.273 66.416 158.997 66.364 158.717 66.3C158.437 66.228 158.181 66.124 157.949 65.988C157.717 65.852 157.529 65.668 157.385 65.436C157.249 65.204 157.181 64.904 157.181 64.536C157.181 64.128 157.297 63.768 157.529 63.456C157.769 63.144 158.113 62.9 158.561 62.724C159.009 62.54 159.545 62.448 160.169 62.448C160.609 62.448 161.057 62.496 161.513 62.592C161.969 62.688 162.349 62.828 162.653 63.012L162.029 64.344C161.717 64.16 161.401 64.036 161.081 63.972C160.769 63.9 160.465 63.864 160.169 63.864C159.753 63.864 159.449 63.92 159.257 64.032C159.065 64.144 158.969 64.288 158.969 64.464C158.969 64.624 159.037 64.744 159.173 64.824C159.317 64.904 159.505 64.968 159.737 65.016C159.969 65.064 160.221 65.108 160.493 65.148C160.773 65.18 161.053 65.232 161.333 65.304C161.613 65.376 161.865 65.48 162.089 65.616C162.321 65.744 162.509 65.924 162.653 66.156C162.797 66.38 162.869 66.676 162.869 67.044C162.869 67.444 162.749 67.8 162.509 68.112C162.269 68.416 161.921 68.656 161.465 68.832C161.017 69.008 160.469 69.096 159.821 69.096ZM166.664 69.096C165.904 69.096 165.312 68.904 164.888 68.52C164.464 68.128 164.252 67.548 164.252 66.78V61.116H166.124V66.756C166.124 67.028 166.196 67.24 166.34 67.392C166.484 67.536 166.68 67.608 166.928 67.608C167.224 67.608 167.476 67.528 167.684 67.368L168.188 68.688C167.996 68.824 167.764 68.928 167.492 69C167.228 69.064 166.952 69.096 166.664 69.096ZM163.256 64.128V62.688H167.732V64.128H163.256ZM173.199 69V67.74L173.079 67.464V65.208C173.079 64.808 172.955 64.496 172.707 64.272C172.467 64.048 172.095 63.936 171.591 63.936C171.247 63.936 170.907 63.992 170.571 64.104C170.243 64.208 169.963 64.352 169.731 64.536L169.059 63.228C169.411 62.98 169.835 62.788 170.331 62.652C170.827 62.516 171.331 62.448 171.843 62.448C172.827 62.448 173.591 62.68 174.135 63.144C174.679 63.608 174.951 64.332 174.951 65.316V69H173.199ZM171.231 69.096C170.727 69.096 170.295 69.012 169.935 68.844C169.575 68.668 169.299 68.432 169.107 68.136C168.915 67.84 168.819 67.508 168.819 67.14C168.819 66.756 168.911 66.42 169.095 66.132C169.287 65.844 169.587 65.62 169.995 65.46C170.403 65.292 170.935 65.208 171.591 65.208H173.307V66.3H171.795C171.355 66.3 171.051 66.372 170.883 66.516C170.723 66.66 170.643 66.84 170.643 67.056C170.643 67.296 170.735 67.488 170.919 67.632C171.111 67.768 171.371 67.836 171.699 67.836C172.011 67.836 172.291 67.764 172.539 67.62C172.787 67.468 172.967 67.248 173.079 66.96L173.367 67.824C173.231 68.24 172.983 68.556 172.623 68.772C172.263 68.988 171.799 69.096 171.231 69.096ZM176.645 69V62.544H178.433V64.368L178.181 63.84C178.373 63.384 178.681 63.04 179.105 62.808C179.529 62.568 180.045 62.448 180.653 62.448V64.176C180.573 64.168 180.501 64.164 180.437 64.164C180.373 64.156 180.305 64.152 180.233 64.152C179.721 64.152 179.305 64.3 178.985 64.596C178.673 64.884 178.517 65.336 178.517 65.952V69H176.645ZM184.629 69.096C183.869 69.096 183.277 68.904 182.853 68.52C182.429 68.128 182.217 67.548 182.217 66.78V61.116H184.089V66.756C184.089 67.028 184.161 67.24 184.305 67.392C184.449 67.536 184.645 67.608 184.893 67.608C185.189 67.608 185.441 67.528 185.649 67.368L186.153 68.688C185.961 68.824 185.729 68.928 185.457 69C185.193 69.064 184.917 69.096 184.629 69.096ZM181.221 64.128V62.688H185.697V64.128H181.221ZM194.418 69.096C193.85 69.096 193.362 68.976 192.954 68.736C192.546 68.496 192.234 68.132 192.018 67.644C191.802 67.148 191.694 66.524 191.694 65.772C191.694 65.012 191.806 64.388 192.03 63.9C192.262 63.412 192.582 63.048 192.99 62.808C193.398 62.568 193.874 62.448 194.418 62.448C195.026 62.448 195.57 62.584 196.05 62.856C196.538 63.128 196.922 63.512 197.202 64.008C197.49 64.504 197.634 65.092 197.634 65.772C197.634 66.444 197.49 67.028 197.202 67.524C196.922 68.02 196.538 68.408 196.05 68.688C195.57 68.96 195.026 69.096 194.418 69.096ZM190.602 69V60.096H192.474V63.852L192.354 65.76L192.39 67.68V69H190.602ZM194.094 67.56C194.406 67.56 194.682 67.488 194.922 67.344C195.17 67.2 195.366 66.996 195.51 66.732C195.662 66.46 195.738 66.14 195.738 65.772C195.738 65.396 195.662 65.076 195.51 64.812C195.366 64.548 195.17 64.344 194.922 64.2C194.682 64.056 194.406 63.984 194.094 63.984C193.782 63.984 193.502 64.056 193.254 64.2C193.006 64.344 192.81 64.548 192.666 64.812C192.522 65.076 192.45 65.396 192.45 65.772C192.45 66.14 192.522 66.46 192.666 66.732C192.81 66.996 193.006 67.2 193.254 67.344C193.502 67.488 193.782 67.56 194.094 67.56ZM201.611 69.096C201.075 69.096 200.595 68.992 200.171 68.784C199.755 68.576 199.431 68.26 199.199 67.836C198.967 67.404 198.851 66.856 198.851 66.192V62.544H200.723V65.916C200.723 66.452 200.835 66.848 201.059 67.104C201.291 67.352 201.615 67.476 202.031 67.476C202.319 67.476 202.575 67.416 202.799 67.296C203.023 67.168 203.199 66.976 203.327 66.72C203.455 66.456 203.519 66.128 203.519 65.736V62.544H205.391V69H203.615V67.224L203.939 67.74C203.723 68.188 203.403 68.528 202.979 68.76C202.563 68.984 202.107 69.096 201.611 69.096ZM209.766 69.096C209.006 69.096 208.414 68.904 207.99 68.52C207.566 68.128 207.354 67.548 207.354 66.78V61.116H209.226V66.756C209.226 67.028 209.298 67.24 209.442 67.392C209.586 67.536 209.782 67.608 210.03 67.608C210.326 67.608 210.578 67.528 210.786 67.368L211.29 68.688C211.098 68.824 210.866 68.928 210.594 69C210.33 69.064 210.054 69.096 209.766 69.096ZM206.358 64.128V62.688H210.834V64.128H206.358ZM214.84 69.096C214.08 69.096 213.488 68.904 213.064 68.52C212.64 68.128 212.428 67.548 212.428 66.78V61.116H214.3V66.756C214.3 67.028 214.372 67.24 214.516 67.392C214.66 67.536 214.856 67.608 215.104 67.608C215.4 67.608 215.652 67.528 215.86 67.368L216.364 68.688C216.172 68.824 215.94 68.928 215.668 69C215.404 69.064 215.128 69.096 214.84 69.096ZM211.432 64.128V62.688H215.908V64.128H211.432ZM220.288 69.096C219.6 69.096 218.988 68.952 218.452 68.664C217.924 68.376 217.504 67.984 217.192 67.488C216.888 66.984 216.736 66.412 216.736 65.772C216.736 65.124 216.888 64.552 217.192 64.056C217.504 63.552 217.924 63.16 218.452 62.88C218.988 62.592 219.6 62.448 220.288 62.448C220.968 62.448 221.576 62.592 222.112 62.88C222.648 63.16 223.068 63.548 223.372 64.044C223.676 64.54 223.828 65.116 223.828 65.772C223.828 66.412 223.676 66.984 223.372 67.488C223.068 67.984 222.648 68.376 222.112 68.664C221.576 68.952 220.968 69.096 220.288 69.096ZM220.288 67.56C220.6 67.56 220.88 67.488 221.128 67.344C221.376 67.2 221.572 66.996 221.716 66.732C221.86 66.46 221.932 66.14 221.932 65.772C221.932 65.396 221.86 65.076 221.716 64.812C221.572 64.548 221.376 64.344 221.128 64.2C220.88 64.056 220.6 63.984 220.288 63.984C219.976 63.984 219.696 64.056 219.448 64.2C219.2 64.344 219 64.548 218.848 64.812C218.704 65.076 218.632 65.396 218.632 65.772C218.632 66.14 218.704 66.46 218.848 66.732C219 66.996 219.2 67.2 219.448 67.344C219.696 67.488 219.976 67.56 220.288 67.56ZM229.003 62.448C229.515 62.448 229.971 62.552 230.371 62.76C230.779 62.96 231.099 63.272 231.331 63.696C231.563 64.112 231.679 64.648 231.679 65.304V69H229.807V65.592C229.807 65.072 229.691 64.688 229.459 64.44C229.235 64.192 228.915 64.068 228.499 64.068C228.203 64.068 227.935 64.132 227.695 64.26C227.463 64.38 227.279 64.568 227.143 64.824C227.015 65.08 226.951 65.408 226.951 65.808V69H225.079V62.544H226.867V64.332L226.531 63.792C226.763 63.36 227.095 63.028 227.527 62.796C227.959 62.564 228.451 62.448 229.003 62.448ZM234.084 69.096C233.764 69.096 233.488 68.988 233.256 68.772C233.032 68.548 232.92 68.264 232.92 67.92C232.92 67.576 233.032 67.3 233.256 67.092C233.488 66.876 233.764 66.768 234.084 66.768C234.412 66.768 234.688 66.876 234.912 67.092C235.136 67.3 235.248 67.576 235.248 67.92C235.248 68.264 235.136 68.548 234.912 68.772C234.688 68.988 234.412 69.096 234.084 69.096Z" fill="#333333"/>
</g>
<defs>
<filter id="filter0_d_10_3264" x="0" y="0" width="380" height="224" filterUnits="userSpaceOnUse" color-interpolation-filters="sRGB">
<feFlood flood-opacity="0" result="BackgroundImageFix"/>
<feColorMatrix in="SourceAlpha" type="matrix" values="0 0 0 0 0 0 0 0 0 0 0 0 0 0 0 0 0 0 127 0" result="hardAlpha"/>
<feOffset dy="4"/>
<feColorMatrix type="matrix" values="0 0 0 0 0 0 0 0 0 0 0 0 0 0 0 0 0 0 0.25 0"/>
<feBlend mode="normal" in2="BackgroundImageFix" result="effect1_dropShadow_10_3264"/>
<feBlend mode="normal" in="SourceGraphic" in2="effect1_dropShadow_10_3264" result="shape"/>
</filter>
</defs>
</svg>
