<svg width="380" height="224" viewBox="0 0 380 224" fill="none" xmlns="http://www.w3.org/2000/svg">
<g filter="url(#filter0_d_10_3514)">
<rect width="380" height="220" rx="20" fill="#F2F2F2"/>
<path fill-rule="evenodd" clip-rule="evenodd" d="M315 118.985C315 108 306 98.9922 295 98.9922C233.172 98.9922 208 98.9995 208 98.9995L200 107H163L154 98.9993H119.147C108.147 98.9993 99.1467 108 99.1467 118.992C99.1467 118.999 99.1467 119.007 99.1467 119.014C99.1467 130 108.147 139 119.147 139C135.71 139 154 139 154 139L163 147H200L208 139H295.147C306 139 315 130 315 119.007C315 119 315 119.5 315 118.985Z" fill="#30DCFF"/>
<path fill-rule="evenodd" clip-rule="evenodd" d="M315 118.989C315 108 306 99 294.853 99C233.025 99 208 99.0001 208 99.0001L200 107H163L154 99.0001H119C108 99.0001 99 108 99 118.989C99 118.996 99 119 99 119H104C104 109 111 104 119 104C133.664 104 152 104 152 104L161 112H202L210 104H295C304 104 310 110 310 119L315 119V118.989Z" fill="white" fill-opacity="0.5"/>
<path fill-rule="evenodd" clip-rule="evenodd" d="M315 119L310 119C310 127.971 304.197 134 295 134C237.995 134 206 134 206 134L198 142H165L156 134H119C108.496 134 104 128 104 119.001L99 119V119.011C99 130 108 139 119 139C135.563 139 154 139 154 139L163 147H200L208 139H295C306 139 315 130 315 119Z" fill="black" fill-opacity="0.25"/>
<path d="M111.568 122.092H115.744V123.376H111.568V122.092ZM111.688 125.692H116.428V127H110.128V118.6H116.26V119.908H111.688V125.692ZM121.659 120.52C122.171 120.52 122.627 120.62 123.027 120.82C123.435 121.02 123.755 121.328 123.987 121.744C124.219 122.152 124.335 122.68 124.335 123.328V127H122.835V123.52C122.835 122.952 122.699 122.528 122.427 122.248C122.163 121.968 121.791 121.828 121.311 121.828C120.959 121.828 120.647 121.9 120.375 122.044C120.103 122.188 119.891 122.404 119.739 122.692C119.595 122.972 119.523 123.328 119.523 123.76V127H118.023V120.592H119.451V122.32L119.199 121.792C119.423 121.384 119.747 121.072 120.171 120.856C120.603 120.632 121.099 120.52 121.659 120.52ZM128.65 127.084C127.946 127.084 127.402 126.904 127.018 126.544C126.634 126.176 126.442 125.636 126.442 124.924V119.176H127.942V124.888C127.942 125.192 128.018 125.428 128.17 125.596C128.33 125.764 128.55 125.848 128.83 125.848C129.166 125.848 129.446 125.76 129.67 125.584L130.09 126.652C129.914 126.796 129.698 126.904 129.442 126.976C129.186 127.048 128.922 127.084 128.65 127.084ZM125.386 121.84V120.64H129.658V121.84H125.386ZM134.125 127.084C133.413 127.084 132.789 126.944 132.253 126.664C131.725 126.376 131.313 125.984 131.017 125.488C130.729 124.992 130.585 124.428 130.585 123.796C130.585 123.156 130.725 122.592 131.005 122.104C131.293 121.608 131.685 121.22 132.181 120.94C132.685 120.66 133.257 120.52 133.897 120.52C134.521 120.52 135.077 120.656 135.565 120.928C136.053 121.2 136.437 121.584 136.717 122.08C136.997 122.576 137.137 123.16 137.137 123.832C137.137 123.896 137.133 123.968 137.125 124.048C137.125 124.128 137.121 124.204 137.113 124.276H131.773V123.28H136.321L135.733 123.592C135.741 123.224 135.665 122.9 135.505 122.62C135.345 122.34 135.125 122.12 134.845 121.96C134.573 121.8 134.257 121.72 133.897 121.72C133.529 121.72 133.205 121.8 132.925 121.96C132.653 122.12 132.437 122.344 132.277 122.632C132.125 122.912 132.049 123.244 132.049 123.628V123.868C132.049 124.252 132.137 124.592 132.313 124.888C132.489 125.184 132.737 125.412 133.057 125.572C133.377 125.732 133.745 125.812 134.161 125.812C134.521 125.812 134.845 125.756 135.133 125.644C135.421 125.532 135.677 125.356 135.901 125.116L136.705 126.04C136.417 126.376 136.053 126.636 135.613 126.82C135.181 126.996 134.685 127.084 134.125 127.084ZM138.578 127V120.592H140.006V122.356L139.838 121.84C140.03 121.408 140.33 121.08 140.738 120.856C141.154 120.632 141.67 120.52 142.286 120.52V121.948C142.222 121.932 142.162 121.924 142.106 121.924C142.05 121.916 141.994 121.912 141.938 121.912C141.37 121.912 140.918 122.08 140.582 122.416C140.246 122.744 140.078 123.236 140.078 123.892V127H138.578ZM149.345 127.084C148.641 127.084 148.097 126.904 147.713 126.544C147.329 126.176 147.137 125.636 147.137 124.924V119.176H148.637V124.888C148.637 125.192 148.713 125.428 148.865 125.596C149.025 125.764 149.245 125.848 149.525 125.848C149.861 125.848 150.141 125.76 150.365 125.584L150.785 126.652C150.609 126.796 150.393 126.904 150.137 126.976C149.881 127.048 149.617 127.084 149.345 127.084ZM146.081 121.84V120.64H150.353V121.84H146.081ZM155.655 120.52C156.167 120.52 156.623 120.62 157.023 120.82C157.431 121.02 157.751 121.328 157.983 121.744C158.215 122.152 158.331 122.68 158.331 123.328V127H156.831V123.52C156.831 122.952 156.695 122.528 156.423 122.248C156.159 121.968 155.787 121.828 155.307 121.828C154.955 121.828 154.643 121.9 154.371 122.044C154.099 122.188 153.887 122.404 153.735 122.692C153.591 122.972 153.519 123.328 153.519 123.76V127H152.019V118.096H153.519V122.32L153.195 121.792C153.419 121.384 153.743 121.072 154.167 120.856C154.599 120.632 155.095 120.52 155.655 120.52ZM163.258 127.084C162.546 127.084 161.922 126.944 161.386 126.664C160.858 126.376 160.446 125.984 160.15 125.488C159.862 124.992 159.718 124.428 159.718 123.796C159.718 123.156 159.858 122.592 160.138 122.104C160.426 121.608 160.818 121.22 161.314 120.94C161.818 120.66 162.39 120.52 163.03 120.52C163.654 120.52 164.21 120.656 164.698 120.928C165.186 121.2 165.57 121.584 165.85 122.08C166.13 122.576 166.27 123.16 166.27 123.832C166.27 123.896 166.266 123.968 166.258 124.048C166.258 124.128 166.254 124.204 166.246 124.276H160.906V123.28H165.454L164.866 123.592C164.874 123.224 164.798 122.9 164.638 122.62C164.478 122.34 164.258 122.12 163.978 121.96C163.706 121.8 163.39 121.72 163.03 121.72C162.662 121.72 162.338 121.8 162.058 121.96C161.786 122.12 161.57 122.344 161.41 122.632C161.258 122.912 161.182 123.244 161.182 123.628V123.868C161.182 124.252 161.27 124.592 161.446 124.888C161.622 125.184 161.87 125.412 162.19 125.572C162.51 125.732 162.878 125.812 163.294 125.812C163.654 125.812 163.978 125.756 164.266 125.644C164.554 125.532 164.81 125.356 165.034 125.116L165.838 126.04C165.55 126.376 165.186 126.636 164.746 126.82C164.314 126.996 163.818 127.084 163.258 127.084ZM173.439 127.084C172.735 127.084 172.191 126.904 171.807 126.544C171.423 126.176 171.231 125.636 171.231 124.924V119.176H172.731V124.888C172.731 125.192 172.807 125.428 172.959 125.596C173.119 125.764 173.339 125.848 173.619 125.848C173.955 125.848 174.235 125.76 174.459 125.584L174.879 126.652C174.703 126.796 174.487 126.904 174.231 126.976C173.975 127.048 173.711 127.084 173.439 127.084ZM170.175 121.84V120.64H174.447V121.84H170.175ZM178.914 127.084C178.202 127.084 177.578 126.944 177.042 126.664C176.514 126.376 176.102 125.984 175.806 125.488C175.518 124.992 175.374 124.428 175.374 123.796C175.374 123.156 175.514 122.592 175.794 122.104C176.082 121.608 176.474 121.22 176.97 120.94C177.474 120.66 178.046 120.52 178.686 120.52C179.31 120.52 179.866 120.656 180.354 120.928C180.842 121.2 181.226 121.584 181.506 122.08C181.786 122.576 181.926 123.16 181.926 123.832C181.926 123.896 181.922 123.968 181.914 124.048C181.914 124.128 181.91 124.204 181.902 124.276H176.562V123.28H181.11L180.522 123.592C180.53 123.224 180.454 122.9 180.294 122.62C180.134 122.34 179.914 122.12 179.634 121.96C179.362 121.8 179.046 121.72 178.686 121.72C178.318 121.72 177.994 121.8 177.714 121.96C177.442 122.12 177.226 122.344 177.066 122.632C176.914 122.912 176.838 123.244 176.838 123.628V123.868C176.838 124.252 176.926 124.592 177.102 124.888C177.278 125.184 177.526 125.412 177.846 125.572C178.166 125.732 178.534 125.812 178.95 125.812C179.31 125.812 179.634 125.756 179.922 125.644C180.21 125.532 180.466 125.356 180.69 125.116L181.494 126.04C181.206 126.376 180.842 126.636 180.402 126.82C179.97 126.996 179.474 127.084 178.914 127.084ZM182.315 127L185.135 123.328L185.111 124.132L182.423 120.592H184.091L185.975 123.112H185.339L187.235 120.592H188.855L186.143 124.132L186.155 123.328L188.963 127H187.271L185.291 124.324L185.915 124.408L183.971 127H182.315ZM192.482 127.084C191.778 127.084 191.234 126.904 190.85 126.544C190.466 126.176 190.274 125.636 190.274 124.924V119.176H191.774V124.888C191.774 125.192 191.85 125.428 192.002 125.596C192.162 125.764 192.382 125.848 192.662 125.848C192.998 125.848 193.278 125.76 193.502 125.584L193.922 126.652C193.746 126.796 193.53 126.904 193.274 126.976C193.018 127.048 192.754 127.084 192.482 127.084ZM189.218 121.84V120.64H193.49V121.84H189.218ZM201.484 127.084C200.772 127.084 200.148 126.944 199.612 126.664C199.084 126.376 198.672 125.984 198.376 125.488C198.088 124.992 197.944 124.428 197.944 123.796C197.944 123.156 198.084 122.592 198.364 122.104C198.652 121.608 199.044 121.22 199.54 120.94C200.044 120.66 200.616 120.52 201.256 120.52C201.88 120.52 202.436 120.656 202.924 120.928C203.412 121.2 203.796 121.584 204.076 122.08C204.356 122.576 204.496 123.16 204.496 123.832C204.496 123.896 204.492 123.968 204.484 124.048C204.484 124.128 204.48 124.204 204.472 124.276H199.132V123.28H203.68L203.092 123.592C203.1 123.224 203.024 122.9 202.864 122.62C202.704 122.34 202.484 122.12 202.204 121.96C201.932 121.8 201.616 121.72 201.256 121.72C200.888 121.72 200.564 121.8 200.284 121.96C200.012 122.12 199.796 122.344 199.636 122.632C199.484 122.912 199.408 123.244 199.408 123.628V123.868C199.408 124.252 199.496 124.592 199.672 124.888C199.848 125.184 200.096 125.412 200.416 125.572C200.736 125.732 201.104 125.812 201.52 125.812C201.88 125.812 202.204 125.756 202.492 125.644C202.78 125.532 203.036 125.356 203.26 125.116L204.064 126.04C203.776 126.376 203.412 126.636 202.972 126.82C202.54 126.996 202.044 127.084 201.484 127.084ZM208.649 127.084C208.033 127.084 207.477 126.948 206.981 126.676C206.493 126.396 206.109 126.012 205.829 125.524C205.549 125.036 205.409 124.46 205.409 123.796C205.409 123.132 205.549 122.556 205.829 122.068C206.109 121.58 206.493 121.2 206.981 120.928C207.477 120.656 208.033 120.52 208.649 120.52C209.185 120.52 209.665 120.64 210.089 120.88C210.513 121.112 210.849 121.468 211.097 121.948C211.345 122.428 211.469 123.044 211.469 123.796C211.469 124.54 211.349 125.156 211.109 125.644C210.869 126.124 210.537 126.484 210.113 126.724C209.689 126.964 209.201 127.084 208.649 127.084ZM208.829 125.8C209.189 125.8 209.509 125.72 209.789 125.56C210.077 125.4 210.305 125.168 210.473 124.864C210.649 124.56 210.737 124.204 210.737 123.796C210.737 123.38 210.649 123.024 210.473 122.728C210.305 122.424 210.077 122.192 209.789 122.032C209.509 121.872 209.189 121.792 208.829 121.792C208.469 121.792 208.145 121.872 207.857 122.032C207.577 122.192 207.349 122.424 207.173 122.728C207.005 123.024 206.921 123.38 206.921 123.796C206.921 124.204 207.005 124.56 207.173 124.864C207.349 125.168 207.577 125.4 207.857 125.56C208.145 125.72 208.469 125.8 208.829 125.8ZM210.773 127V125.488L210.833 123.784L210.713 122.08V118.096H212.201V127H210.773ZM214.175 127V120.592H215.675V127H214.175ZM214.931 119.536C214.651 119.536 214.419 119.448 214.235 119.272C214.059 119.096 213.971 118.884 213.971 118.636C213.971 118.38 214.059 118.168 214.235 118C214.419 117.824 214.651 117.736 214.931 117.736C215.211 117.736 215.439 117.82 215.615 117.988C215.799 118.148 215.891 118.352 215.891 118.6C215.891 118.864 215.803 119.088 215.627 119.272C215.451 119.448 215.219 119.536 214.931 119.536ZM220.056 127.084C219.352 127.084 218.808 126.904 218.424 126.544C218.04 126.176 217.848 125.636 217.848 124.924V119.176H219.348V124.888C219.348 125.192 219.424 125.428 219.576 125.596C219.736 125.764 219.956 125.848 220.236 125.848C220.572 125.848 220.852 125.76 221.076 125.584L221.496 126.652C221.32 126.796 221.104 126.904 220.848 126.976C220.592 127.048 220.328 127.084 220.056 127.084ZM216.792 121.84V120.64H221.064V121.84H216.792ZM225.399 127.084C224.743 127.084 224.159 126.944 223.647 126.664C223.135 126.376 222.731 125.984 222.435 125.488C222.139 124.992 221.991 124.428 221.991 123.796C221.991 123.156 222.139 122.592 222.435 122.104C222.731 121.608 223.135 121.22 223.647 120.94C224.159 120.66 224.743 120.52 225.399 120.52C226.063 120.52 226.651 120.66 227.163 120.94C227.683 121.22 228.087 121.604 228.375 122.092C228.671 122.58 228.819 123.148 228.819 123.796C228.819 124.428 228.671 124.992 228.375 125.488C228.087 125.984 227.683 126.376 227.163 126.664C226.651 126.944 226.063 127.084 225.399 127.084ZM225.399 125.8C225.767 125.8 226.095 125.72 226.383 125.56C226.671 125.4 226.895 125.168 227.055 124.864C227.223 124.56 227.307 124.204 227.307 123.796C227.307 123.38 227.223 123.024 227.055 122.728C226.895 122.424 226.671 122.192 226.383 122.032C226.095 121.872 225.771 121.792 225.411 121.792C225.043 121.792 224.715 121.872 224.427 122.032C224.147 122.192 223.923 122.424 223.755 122.728C223.587 123.024 223.503 123.38 223.503 123.796C223.503 124.204 223.587 124.56 223.755 124.864C223.923 125.168 224.147 125.4 224.427 125.56C224.715 125.72 225.039 125.8 225.399 125.8ZM230.254 127V120.592H231.682V122.356L231.514 121.84C231.706 121.408 232.006 121.08 232.414 120.856C232.83 120.632 233.346 120.52 233.962 120.52V121.948C233.898 121.932 233.838 121.924 233.782 121.924C233.726 121.916 233.67 121.912 233.614 121.912C233.046 121.912 232.594 122.08 232.258 122.416C231.922 122.744 231.754 123.236 231.754 123.892V127H230.254Z" fill="#333333"/>
<path fill-rule="evenodd" clip-rule="evenodd" d="M315 157.985C315 147 306 137.992 295 137.992C233.172 137.992 208 138 208 138L200 146H163L154 137.999H119.147C108.147 137.999 99.1467 147 99.1467 157.992C99.1467 157.999 99.1467 158.007 99.1467 158.014C99.1467 169 108.147 178 119.147 178C135.71 178 154 178 154 178L163 186H200L208 178H295.147C306 178 315 169 315 158.007C315 158 315 158.5 315 157.985Z" fill="#30DCFF"/>
<path fill-rule="evenodd" clip-rule="evenodd" d="M315 157.989C315 147 306 138 294.853 138C233.025 138 208 138 208 138L200 146H163L154 138H119C108 138 99 147 99 157.989C99 157.996 99 158 99 158H104C104 148 111 143 119 143C133.664 143 152 143 152 143L161 151H202L210 143H295C304 143 310 149 310 158L315 158V157.989Z" fill="white" fill-opacity="0.5"/>
<path fill-rule="evenodd" clip-rule="evenodd" d="M315 158L310 158C310 166.971 304.197 173 295 173C237.995 173 206 173 206 173L198 181H165L156 173H119C108.496 173 104 167 104 158.001L99 158V158.011C99 169 108 178 119 178C135.563 178 154 178 154 178L163 186H200L208 178H295C306 178 315 169 315 158Z" fill="black" fill-opacity="0.25"/>
<path d="M112.108 166L109.324 157.6H110.944L113.428 165.196H112.624L115.204 157.6H116.644L119.152 165.196H118.372L120.916 157.6H122.404L119.62 166H117.964L115.672 159.148H116.104L113.776 166H112.108ZM123.285 166V159.592H124.713V161.356L124.545 160.84C124.737 160.408 125.037 160.08 125.445 159.856C125.861 159.632 126.377 159.52 126.993 159.52V160.948C126.929 160.932 126.869 160.924 126.813 160.924C126.757 160.916 126.701 160.912 126.645 160.912C126.077 160.912 125.625 161.08 125.289 161.416C124.953 161.744 124.785 162.236 124.785 162.892V166H123.285ZM128.265 166V159.592H129.765V166H128.265ZM129.021 158.536C128.741 158.536 128.509 158.448 128.325 158.272C128.149 158.096 128.061 157.884 128.061 157.636C128.061 157.38 128.149 157.168 128.325 157C128.509 156.824 128.741 156.736 129.021 156.736C129.301 156.736 129.529 156.82 129.705 156.988C129.889 157.148 129.981 157.352 129.981 157.6C129.981 157.864 129.893 158.088 129.717 158.272C129.541 158.448 129.309 158.536 129.021 158.536ZM134.146 166.084C133.442 166.084 132.898 165.904 132.514 165.544C132.13 165.176 131.938 164.636 131.938 163.924V158.176H133.438V163.888C133.438 164.192 133.514 164.428 133.666 164.596C133.826 164.764 134.046 164.848 134.326 164.848C134.662 164.848 134.942 164.76 135.166 164.584L135.586 165.652C135.41 165.796 135.194 165.904 134.938 165.976C134.682 166.048 134.418 166.084 134.146 166.084ZM130.882 160.84V159.64H135.154V160.84H130.882ZM139.621 166.084C138.909 166.084 138.285 165.944 137.749 165.664C137.221 165.376 136.809 164.984 136.513 164.488C136.225 163.992 136.081 163.428 136.081 162.796C136.081 162.156 136.221 161.592 136.501 161.104C136.789 160.608 137.181 160.22 137.677 159.94C138.181 159.66 138.753 159.52 139.393 159.52C140.017 159.52 140.573 159.656 141.061 159.928C141.549 160.2 141.933 160.584 142.213 161.08C142.493 161.576 142.633 162.16 142.633 162.832C142.633 162.896 142.629 162.968 142.621 163.048C142.621 163.128 142.617 163.204 142.609 163.276H137.269V162.28H141.817L141.229 162.592C141.237 162.224 141.161 161.9 141.001 161.62C140.841 161.34 140.621 161.12 140.341 160.96C140.069 160.8 139.753 160.72 139.393 160.72C139.025 160.72 138.701 160.8 138.421 160.96C138.149 161.12 137.933 161.344 137.773 161.632C137.621 161.912 137.545 162.244 137.545 162.628V162.868C137.545 163.252 137.633 163.592 137.809 163.888C137.985 164.184 138.233 164.412 138.553 164.572C138.873 164.732 139.241 164.812 139.657 164.812C140.017 164.812 140.341 164.756 140.629 164.644C140.917 164.532 141.173 164.356 141.397 164.116L142.201 165.04C141.913 165.376 141.549 165.636 141.109 165.82C140.677 165.996 140.181 166.084 139.621 166.084Z" fill="#333333"/>
<path fill-rule="evenodd" clip-rule="evenodd" d="M315 81C315 70 308 63 297 63C257.917 63 282.045 63 254 63C246.27 63 242.785 60.7635 238.5 56.5C229.193 47.8197 205.783 34 154.427 34C82.0243 34 65 63 65 63C65 63 65.0004 67.7195 65.0006 81C65.0006 91 73 99 83 99C109.488 99 154 99 154 99L163 107H200L208 99C208 99 242.031 99 297 99C308 99 315 92 315 81C315 82.8675 315 78.1323 315 81Z" fill="#FC79FF"/>
<path fill-rule="evenodd" clip-rule="evenodd" d="M310 81C310 89 306 94 297 94L206 94L198 102H165L156 94C156 94 108.393 94 83.0001 94C74.9643 94 70 88 70 81H65C65 91 73 99 83.0001 99C109.441 99 154 99 154 99L163.027 107H200L208 99L297 99C308 99 315 92 315 81C313.5 81 312 80.9999 310 81Z" fill="black" fill-opacity="0.25"/>
<path fill-rule="evenodd" clip-rule="evenodd" d="M65 81H70V65C70 65 84.993 39 154.286 39C201.342 39 225.557 51.6452 235.5 60C240.292 64.0301 246.712 67.9521 253 68C261.5 68 281.464 68 297 68C304.964 68 310 73.5 310 80V81H314H315C315 70 308 63 297 63C257.993 63 281.008 63 253 63C246 63 242.169 60.1595 238.214 56.2066C228.936 47.4998 205.571 34 154.268 34C81.9103 34 65 63 65 63L65 81Z" fill="white" fill-opacity="0.5"/>
<path d="M78.012 88L75.264 79.6H77.28L79.668 87.04H78.66L81.156 79.6H82.956L85.356 87.04H84.384L86.832 79.6H88.692L85.944 88H83.856L81.732 81.472H82.284L80.1 88H78.012ZM93.745 81.448C94.257 81.448 94.713 81.552 95.113 81.76C95.521 81.96 95.841 82.272 96.073 82.696C96.305 83.112 96.421 83.648 96.421 84.304V88H94.549V84.592C94.549 84.072 94.433 83.688 94.201 83.44C93.977 83.192 93.657 83.068 93.241 83.068C92.945 83.068 92.677 83.132 92.437 83.26C92.205 83.38 92.021 83.568 91.885 83.824C91.757 84.08 91.693 84.408 91.693 84.808V88H89.821V79.096H91.693V83.332L91.273 82.792C91.505 82.36 91.837 82.028 92.269 81.796C92.701 81.564 93.193 81.448 93.745 81.448ZM101.369 88.096C100.633 88.096 99.9848 87.952 99.4248 87.664C98.8728 87.376 98.4448 86.984 98.1408 86.488C97.8368 85.984 97.6848 85.412 97.6848 84.772C97.6848 84.124 97.8328 83.552 98.1288 83.056C98.4328 82.552 98.8448 82.16 99.3648 81.88C99.8848 81.592 100.473 81.448 101.129 81.448C101.761 81.448 102.329 81.584 102.833 81.856C103.345 82.12 103.749 82.504 104.045 83.008C104.341 83.504 104.489 84.1 104.489 84.796C104.489 84.868 104.485 84.952 104.477 85.048C104.469 85.136 104.461 85.22 104.453 85.3H99.2088V84.208H103.469L102.749 84.532C102.749 84.196 102.681 83.904 102.545 83.656C102.409 83.408 102.221 83.216 101.981 83.08C101.741 82.936 101.461 82.864 101.141 82.864C100.821 82.864 100.537 82.936 100.289 83.08C100.049 83.216 99.8608 83.412 99.7248 83.668C99.5888 83.916 99.5208 84.212 99.5208 84.556V84.844C99.5208 85.196 99.5968 85.508 99.7488 85.78C99.9088 86.044 100.129 86.248 100.409 86.392C100.697 86.528 101.033 86.596 101.417 86.596C101.761 86.596 102.061 86.544 102.317 86.44C102.581 86.336 102.821 86.18 103.037 85.972L104.033 87.052C103.737 87.388 103.365 87.648 102.917 87.832C102.469 88.008 101.953 88.096 101.369 88.096ZM109.659 81.448C110.171 81.448 110.627 81.552 111.027 81.76C111.435 81.96 111.755 82.272 111.987 82.696C112.219 83.112 112.335 83.648 112.335 84.304V88H110.463V84.592C110.463 84.072 110.347 83.688 110.115 83.44C109.891 83.192 109.571 83.068 109.155 83.068C108.859 83.068 108.591 83.132 108.351 83.26C108.119 83.38 107.935 83.568 107.799 83.824C107.671 84.08 107.607 84.408 107.607 84.808V88H105.735V81.544H107.523V83.332L107.187 82.792C107.419 82.36 107.751 82.028 108.183 81.796C108.615 81.564 109.107 81.448 109.659 81.448ZM114.74 83.788C114.42 83.788 114.144 83.68 113.912 83.464C113.688 83.24 113.576 82.956 113.576 82.612C113.576 82.268 113.688 81.992 113.912 81.784C114.144 81.568 114.42 81.46 114.74 81.46C115.068 81.46 115.344 81.568 115.568 81.784C115.792 81.992 115.904 82.268 115.904 82.612C115.904 82.956 115.792 83.24 115.568 83.464C115.344 83.68 115.068 83.788 114.74 83.788ZM114.74 88.096C114.42 88.096 114.144 87.988 113.912 87.772C113.688 87.548 113.576 87.264 113.576 86.92C113.576 86.576 113.688 86.3 113.912 86.092C114.144 85.876 114.42 85.768 114.74 85.768C115.068 85.768 115.344 85.876 115.568 86.092C115.792 86.3 115.904 86.576 115.904 86.92C115.904 87.264 115.792 87.548 115.568 87.772C115.344 87.988 115.068 88.096 114.74 88.096ZM124.387 88.096C123.843 88.096 123.367 87.976 122.959 87.736C122.551 87.496 122.231 87.132 121.999 86.644C121.775 86.148 121.663 85.524 121.663 84.772C121.663 84.012 121.771 83.388 121.987 82.9C122.203 82.412 122.515 82.048 122.923 81.808C123.331 81.568 123.819 81.448 124.387 81.448C124.995 81.448 125.539 81.588 126.019 81.868C126.507 82.14 126.891 82.524 127.171 83.02C127.459 83.516 127.603 84.1 127.603 84.772C127.603 85.452 127.459 86.04 127.171 86.536C126.891 87.032 126.507 87.416 126.019 87.688C125.539 87.96 124.995 88.096 124.387 88.096ZM120.571 90.328V81.544H122.359V82.864L122.323 84.784L122.443 86.692V90.328H120.571ZM124.063 86.56C124.375 86.56 124.651 86.488 124.891 86.344C125.139 86.2 125.335 85.996 125.479 85.732C125.631 85.46 125.707 85.14 125.707 84.772C125.707 84.396 125.631 84.076 125.479 83.812C125.335 83.548 125.139 83.344 124.891 83.2C124.651 83.056 124.375 82.984 124.063 82.984C123.751 82.984 123.471 83.056 123.223 83.2C122.975 83.344 122.779 83.548 122.635 83.812C122.491 84.076 122.419 84.396 122.419 84.772C122.419 85.14 122.491 85.46 122.635 85.732C122.779 85.996 122.975 86.2 123.223 86.344C123.471 86.488 123.751 86.56 124.063 86.56ZM128.856 88V81.544H130.644V83.368L130.392 82.84C130.584 82.384 130.892 82.04 131.316 81.808C131.74 81.568 132.256 81.448 132.864 81.448V83.176C132.784 83.168 132.712 83.164 132.648 83.164C132.584 83.156 132.516 83.152 132.444 83.152C131.932 83.152 131.516 83.3 131.196 83.596C130.884 83.884 130.728 84.336 130.728 84.952V88H128.856ZM137.134 88.096C136.398 88.096 135.75 87.952 135.19 87.664C134.638 87.376 134.21 86.984 133.906 86.488C133.602 85.984 133.45 85.412 133.45 84.772C133.45 84.124 133.598 83.552 133.894 83.056C134.198 82.552 134.61 82.16 135.13 81.88C135.65 81.592 136.238 81.448 136.894 81.448C137.526 81.448 138.094 81.584 138.598 81.856C139.11 82.12 139.514 82.504 139.81 83.008C140.106 83.504 140.254 84.1 140.254 84.796C140.254 84.868 140.25 84.952 140.242 85.048C140.234 85.136 140.226 85.22 140.218 85.3H134.974V84.208H139.234L138.514 84.532C138.514 84.196 138.446 83.904 138.31 83.656C138.174 83.408 137.986 83.216 137.746 83.08C137.506 82.936 137.226 82.864 136.906 82.864C136.586 82.864 136.302 82.936 136.054 83.08C135.814 83.216 135.626 83.412 135.49 83.668C135.354 83.916 135.286 84.212 135.286 84.556V84.844C135.286 85.196 135.362 85.508 135.514 85.78C135.674 86.044 135.894 86.248 136.174 86.392C136.462 86.528 136.798 86.596 137.182 86.596C137.526 86.596 137.826 86.544 138.082 86.44C138.346 86.336 138.586 86.18 138.802 85.972L139.798 87.052C139.502 87.388 139.13 87.648 138.682 87.832C138.234 88.008 137.718 88.096 137.134 88.096ZM143.673 88.096C143.121 88.096 142.589 88.032 142.077 87.904C141.573 87.768 141.173 87.6 140.877 87.4L141.501 86.056C141.797 86.24 142.145 86.392 142.545 86.512C142.953 86.624 143.353 86.68 143.745 86.68C144.177 86.68 144.481 86.628 144.657 86.524C144.841 86.42 144.933 86.276 144.933 86.092C144.933 85.94 144.861 85.828 144.717 85.756C144.581 85.676 144.397 85.616 144.165 85.576C143.933 85.536 143.677 85.496 143.397 85.456C143.125 85.416 142.849 85.364 142.569 85.3C142.289 85.228 142.033 85.124 141.801 84.988C141.569 84.852 141.381 84.668 141.237 84.436C141.101 84.204 141.033 83.904 141.033 83.536C141.033 83.128 141.149 82.768 141.381 82.456C141.621 82.144 141.965 81.9 142.413 81.724C142.861 81.54 143.397 81.448 144.021 81.448C144.461 81.448 144.909 81.496 145.365 81.592C145.821 81.688 146.201 81.828 146.505 82.012L145.881 83.344C145.569 83.16 145.253 83.036 144.933 82.972C144.621 82.9 144.317 82.864 144.021 82.864C143.605 82.864 143.301 82.92 143.109 83.032C142.917 83.144 142.821 83.288 142.821 83.464C142.821 83.624 142.889 83.744 143.025 83.824C143.169 83.904 143.357 83.968 143.589 84.016C143.821 84.064 144.073 84.108 144.345 84.148C144.625 84.18 144.905 84.232 145.185 84.304C145.465 84.376 145.717 84.48 145.941 84.616C146.173 84.744 146.361 84.924 146.505 85.156C146.649 85.38 146.721 85.676 146.721 86.044C146.721 86.444 146.601 86.8 146.361 87.112C146.121 87.416 145.773 87.656 145.317 87.832C144.869 88.008 144.321 88.096 143.673 88.096ZM150.048 88.096C149.496 88.096 148.964 88.032 148.452 87.904C147.948 87.768 147.548 87.6 147.252 87.4L147.876 86.056C148.172 86.24 148.52 86.392 148.92 86.512C149.328 86.624 149.728 86.68 150.12 86.68C150.552 86.68 150.856 86.628 151.032 86.524C151.216 86.42 151.308 86.276 151.308 86.092C151.308 85.94 151.236 85.828 151.092 85.756C150.956 85.676 150.772 85.616 150.54 85.576C150.308 85.536 150.052 85.496 149.772 85.456C149.5 85.416 149.224 85.364 148.944 85.3C148.664 85.228 148.408 85.124 148.176 84.988C147.944 84.852 147.756 84.668 147.612 84.436C147.476 84.204 147.408 83.904 147.408 83.536C147.408 83.128 147.524 82.768 147.756 82.456C147.996 82.144 148.34 81.9 148.788 81.724C149.236 81.54 149.772 81.448 150.396 81.448C150.836 81.448 151.284 81.496 151.74 81.592C152.196 81.688 152.576 81.828 152.88 82.012L152.256 83.344C151.944 83.16 151.628 83.036 151.308 82.972C150.996 82.9 150.692 82.864 150.396 82.864C149.98 82.864 149.676 82.92 149.484 83.032C149.292 83.144 149.196 83.288 149.196 83.464C149.196 83.624 149.264 83.744 149.4 83.824C149.544 83.904 149.732 83.968 149.964 84.016C150.196 84.064 150.448 84.108 150.72 84.148C151 84.18 151.28 84.232 151.56 84.304C151.84 84.376 152.092 84.48 152.316 84.616C152.548 84.744 152.736 84.924 152.88 85.156C153.024 85.38 153.096 85.676 153.096 86.044C153.096 86.444 152.976 86.8 152.736 87.112C152.496 87.416 152.148 87.656 151.692 87.832C151.244 88.008 150.696 88.096 150.048 88.096ZM159.821 88.096C159.269 88.096 158.737 88.032 158.225 87.904C157.721 87.768 157.321 87.6 157.025 87.4L157.649 86.056C157.945 86.24 158.293 86.392 158.693 86.512C159.101 86.624 159.501 86.68 159.893 86.68C160.325 86.68 160.629 86.628 160.805 86.524C160.989 86.42 161.081 86.276 161.081 86.092C161.081 85.94 161.009 85.828 160.865 85.756C160.729 85.676 160.545 85.616 160.313 85.576C160.081 85.536 159.825 85.496 159.545 85.456C159.273 85.416 158.997 85.364 158.717 85.3C158.437 85.228 158.181 85.124 157.949 84.988C157.717 84.852 157.529 84.668 157.385 84.436C157.249 84.204 157.181 83.904 157.181 83.536C157.181 83.128 157.297 82.768 157.529 82.456C157.769 82.144 158.113 81.9 158.561 81.724C159.009 81.54 159.545 81.448 160.169 81.448C160.609 81.448 161.057 81.496 161.513 81.592C161.969 81.688 162.349 81.828 162.653 82.012L162.029 83.344C161.717 83.16 161.401 83.036 161.081 82.972C160.769 82.9 160.465 82.864 160.169 82.864C159.753 82.864 159.449 82.92 159.257 83.032C159.065 83.144 158.969 83.288 158.969 83.464C158.969 83.624 159.037 83.744 159.173 83.824C159.317 83.904 159.505 83.968 159.737 84.016C159.969 84.064 160.221 84.108 160.493 84.148C160.773 84.18 161.053 84.232 161.333 84.304C161.613 84.376 161.865 84.48 162.089 84.616C162.321 84.744 162.509 84.924 162.653 85.156C162.797 85.38 162.869 85.676 162.869 86.044C162.869 86.444 162.749 86.8 162.509 87.112C162.269 87.416 161.921 87.656 161.465 87.832C161.017 88.008 160.469 88.096 159.821 88.096ZM166.664 88.096C165.904 88.096 165.312 87.904 164.888 87.52C164.464 87.128 164.252 86.548 164.252 85.78V80.116H166.124V85.756C166.124 86.028 166.196 86.24 166.34 86.392C166.484 86.536 166.68 86.608 166.928 86.608C167.224 86.608 167.476 86.528 167.684 86.368L168.188 87.688C167.996 87.824 167.764 87.928 167.492 88C167.228 88.064 166.952 88.096 166.664 88.096ZM163.256 83.128V81.688H167.732V83.128H163.256ZM173.199 88V86.74L173.079 86.464V84.208C173.079 83.808 172.955 83.496 172.707 83.272C172.467 83.048 172.095 82.936 171.591 82.936C171.247 82.936 170.907 82.992 170.571 83.104C170.243 83.208 169.963 83.352 169.731 83.536L169.059 82.228C169.411 81.98 169.835 81.788 170.331 81.652C170.827 81.516 171.331 81.448 171.843 81.448C172.827 81.448 173.591 81.68 174.135 82.144C174.679 82.608 174.951 83.332 174.951 84.316V88H173.199ZM171.231 88.096C170.727 88.096 170.295 88.012 169.935 87.844C169.575 87.668 169.299 87.432 169.107 87.136C168.915 86.84 168.819 86.508 168.819 86.14C168.819 85.756 168.911 85.42 169.095 85.132C169.287 84.844 169.587 84.62 169.995 84.46C170.403 84.292 170.935 84.208 171.591 84.208H173.307V85.3H171.795C171.355 85.3 171.051 85.372 170.883 85.516C170.723 85.66 170.643 85.84 170.643 86.056C170.643 86.296 170.735 86.488 170.919 86.632C171.111 86.768 171.371 86.836 171.699 86.836C172.011 86.836 172.291 86.764 172.539 86.62C172.787 86.468 172.967 86.248 173.079 85.96L173.367 86.824C173.231 87.24 172.983 87.556 172.623 87.772C172.263 87.988 171.799 88.096 171.231 88.096ZM176.645 88V81.544H178.433V83.368L178.181 82.84C178.373 82.384 178.681 82.04 179.105 81.808C179.529 81.568 180.045 81.448 180.653 81.448V83.176C180.573 83.168 180.501 83.164 180.437 83.164C180.373 83.156 180.305 83.152 180.233 83.152C179.721 83.152 179.305 83.3 178.985 83.596C178.673 83.884 178.517 84.336 178.517 84.952V88H176.645ZM184.629 88.096C183.869 88.096 183.277 87.904 182.853 87.52C182.429 87.128 182.217 86.548 182.217 85.78V80.116H184.089V85.756C184.089 86.028 184.161 86.24 184.305 86.392C184.449 86.536 184.645 86.608 184.893 86.608C185.189 86.608 185.441 86.528 185.649 86.368L186.153 87.688C185.961 87.824 185.729 87.928 185.457 88C185.193 88.064 184.917 88.096 184.629 88.096ZM181.221 83.128V81.688H185.697V83.128H181.221ZM194.418 88.096C193.85 88.096 193.362 87.976 192.954 87.736C192.546 87.496 192.234 87.132 192.018 86.644C191.802 86.148 191.694 85.524 191.694 84.772C191.694 84.012 191.806 83.388 192.03 82.9C192.262 82.412 192.582 82.048 192.99 81.808C193.398 81.568 193.874 81.448 194.418 81.448C195.026 81.448 195.57 81.584 196.05 81.856C196.538 82.128 196.922 82.512 197.202 83.008C197.49 83.504 197.634 84.092 197.634 84.772C197.634 85.444 197.49 86.028 197.202 86.524C196.922 87.02 196.538 87.408 196.05 87.688C195.57 87.96 195.026 88.096 194.418 88.096ZM190.602 88V79.096H192.474V82.852L192.354 84.76L192.39 86.68V88H190.602ZM194.094 86.56C194.406 86.56 194.682 86.488 194.922 86.344C195.17 86.2 195.366 85.996 195.51 85.732C195.662 85.46 195.738 85.14 195.738 84.772C195.738 84.396 195.662 84.076 195.51 83.812C195.366 83.548 195.17 83.344 194.922 83.2C194.682 83.056 194.406 82.984 194.094 82.984C193.782 82.984 193.502 83.056 193.254 83.2C193.006 83.344 192.81 83.548 192.666 83.812C192.522 84.076 192.45 84.396 192.45 84.772C192.45 85.14 192.522 85.46 192.666 85.732C192.81 85.996 193.006 86.2 193.254 86.344C193.502 86.488 193.782 86.56 194.094 86.56ZM201.611 88.096C201.075 88.096 200.595 87.992 200.171 87.784C199.755 87.576 199.431 87.26 199.199 86.836C198.967 86.404 198.851 85.856 198.851 85.192V81.544H200.723V84.916C200.723 85.452 200.835 85.848 201.059 86.104C201.291 86.352 201.615 86.476 202.031 86.476C202.319 86.476 202.575 86.416 202.799 86.296C203.023 86.168 203.199 85.976 203.327 85.72C203.455 85.456 203.519 85.128 203.519 84.736V81.544H205.391V88H203.615V86.224L203.939 86.74C203.723 87.188 203.403 87.528 202.979 87.76C202.563 87.984 202.107 88.096 201.611 88.096ZM209.766 88.096C209.006 88.096 208.414 87.904 207.99 87.52C207.566 87.128 207.354 86.548 207.354 85.78V80.116H209.226V85.756C209.226 86.028 209.298 86.24 209.442 86.392C209.586 86.536 209.782 86.608 210.03 86.608C210.326 86.608 210.578 86.528 210.786 86.368L211.29 87.688C211.098 87.824 210.866 87.928 210.594 88C210.33 88.064 210.054 88.096 209.766 88.096ZM206.358 83.128V81.688H210.834V83.128H206.358ZM214.84 88.096C214.08 88.096 213.488 87.904 213.064 87.52C212.64 87.128 212.428 86.548 212.428 85.78V80.116H214.3V85.756C214.3 86.028 214.372 86.24 214.516 86.392C214.66 86.536 214.856 86.608 215.104 86.608C215.4 86.608 215.652 86.528 215.86 86.368L216.364 87.688C216.172 87.824 215.94 87.928 215.668 88C215.404 88.064 215.128 88.096 214.84 88.096ZM211.432 83.128V81.688H215.908V83.128H211.432ZM220.288 88.096C219.6 88.096 218.988 87.952 218.452 87.664C217.924 87.376 217.504 86.984 217.192 86.488C216.888 85.984 216.736 85.412 216.736 84.772C216.736 84.124 216.888 83.552 217.192 83.056C217.504 82.552 217.924 82.16 218.452 81.88C218.988 81.592 219.6 81.448 220.288 81.448C220.968 81.448 221.576 81.592 222.112 81.88C222.648 82.16 223.068 82.548 223.372 83.044C223.676 83.54 223.828 84.116 223.828 84.772C223.828 85.412 223.676 85.984 223.372 86.488C223.068 86.984 222.648 87.376 222.112 87.664C221.576 87.952 220.968 88.096 220.288 88.096ZM220.288 86.56C220.6 86.56 220.88 86.488 221.128 86.344C221.376 86.2 221.572 85.996 221.716 85.732C221.86 85.46 221.932 85.14 221.932 84.772C221.932 84.396 221.86 84.076 221.716 83.812C221.572 83.548 221.376 83.344 221.128 83.2C220.88 83.056 220.6 82.984 220.288 82.984C219.976 82.984 219.696 83.056 219.448 83.2C219.2 83.344 219 83.548 218.848 83.812C218.704 84.076 218.632 84.396 218.632 84.772C218.632 85.14 218.704 85.46 218.848 85.732C219 85.996 219.2 86.2 219.448 86.344C219.696 86.488 219.976 86.56 220.288 86.56ZM229.003 81.448C229.515 81.448 229.971 81.552 230.371 81.76C230.779 81.96 231.099 82.272 231.331 82.696C231.563 83.112 231.679 83.648 231.679 84.304V88H229.807V84.592C229.807 84.072 229.691 83.688 229.459 83.44C229.235 83.192 228.915 83.068 228.499 83.068C228.203 83.068 227.935 83.132 227.695 83.26C227.463 83.38 227.279 83.568 227.143 83.824C227.015 84.08 226.951 84.408 226.951 84.808V88H225.079V81.544H226.867V83.332L226.531 82.792C226.763 82.36 227.095 82.028 227.527 81.796C227.959 81.564 228.451 81.448 229.003 81.448ZM234.084 88.096C233.764 88.096 233.488 87.988 233.256 87.772C233.032 87.548 232.92 87.264 232.92 86.92C232.92 86.576 233.032 86.3 233.256 86.092C233.488 85.876 233.764 85.768 234.084 85.768C234.412 85.768 234.688 85.876 234.912 86.092C235.136 86.3 235.248 86.576 235.248 86.92C235.248 87.264 235.136 87.548 234.912 87.772C234.688 87.988 234.412 88.096 234.084 88.096Z" fill="#333333"/>
</g>
<defs>
<filter id="filter0_d_10_3514" x="0" y="0" width="380" height="224" filterUnits="userSpaceOnUse" color-interpolation-filters="sRGB">
<feFlood flood-opacity="0" result="BackgroundImageFix"/>
<feColorMatrix in="SourceAlpha" type="matrix" values="0 0 0 0 0 0 0 0 0 0 0 0 0 0 0 0 0 0 127 0" result="hardAlpha"/>
<feOffset dy="4"/>
<feColorMatrix type="matrix" values="0 0 0 0 0 0 0 0 0 0 0 0 0 0 0 0 0 0 0.25 0"/>
<feBlend mode="normal" in2="BackgroundImageFix" result="effect1_dropShadow_10_3514"/>
<feBlend mode="normal" in="SourceGraphic" in2="effect1_dropShadow_10_3514" result="shape"/>
</filter>
</defs>
</svg>
