<svg width="380" height="224" viewBox="0 0 380 224" fill="none" xmlns="http://www.w3.org/2000/svg">
<g filter="url(#filter0_d_10_3320)">
<rect width="380" height="220" rx="20" fill="#F2F2F2"/>
<path fill-rule="evenodd" clip-rule="evenodd" d="M315 98.9846C315 87.9995 306 78.9922 295 78.9922C233.172 78.9922 208 78.9995 208 78.9995L200 86.9996H163L154 78.9993H119.147C108.147 78.9993 99.1467 87.9995 99.1467 98.9919C99.1467 98.9992 99.1467 99.0068 99.1467 99.0143C99.1467 110 108.147 119 119.147 119C135.71 119 154 119 154 119L163 127H200L208 119H295.147C306 119 315 110 315 99.0071C315 98.9995 315 99.4995 315 98.9846Z" fill="#30DCFF"/>
<path fill-rule="evenodd" clip-rule="evenodd" d="M315 98.9888C315 88 306 79 294.853 79C233.025 79 208 79.0001 208 79.0001L200 87H163L154 79.0001H119C108 79.0001 99 88.0001 99 98.9888C99 98.9962 99 99.0001 99 99.0001H104C104 89 111 84.0001 119 84.0001C133.664 84.0001 152 84 152 84L161 92H202L210 84H295C304 84 310 90 310 98.9998L315 99V98.9888Z" fill="white" fill-opacity="0.5"/>
<path fill-rule="evenodd" clip-rule="evenodd" d="M315 99L310 99C310 107.971 304.197 114 295 114C237.995 114 206 114 206 114L198 122H165L156 114H119C108.496 114 104 108 104 99.0015L99 99V99.0112C99 110 108 119 119 119C135.563 119 154 119 154 119L163 127H200L208 119H295C306 119 315 110 315 99Z" fill="black" fill-opacity="0.25"/>
<path d="M112.732 107.12C112.076 107.12 111.448 107.028 110.848 106.844C110.248 106.652 109.772 106.408 109.42 106.112L109.96 104.9C110.296 105.164 110.712 105.384 111.208 105.56C111.704 105.736 112.212 105.824 112.732 105.824C113.172 105.824 113.528 105.776 113.8 105.68C114.072 105.584 114.272 105.456 114.4 105.296C114.528 105.128 114.592 104.94 114.592 104.732C114.592 104.476 114.5 104.272 114.316 104.12C114.132 103.96 113.892 103.836 113.596 103.748C113.308 103.652 112.984 103.564 112.624 103.484C112.272 103.404 111.916 103.312 111.556 103.208C111.204 103.096 110.88 102.956 110.584 102.788C110.296 102.612 110.06 102.38 109.876 102.092C109.692 101.804 109.6 101.436 109.6 100.988C109.6 100.532 109.72 100.116 109.96 99.74C110.208 99.356 110.58 99.052 111.076 98.828C111.58 98.596 112.216 98.48 112.984 98.48C113.488 98.48 113.988 98.544 114.484 98.672C114.98 98.8 115.412 98.984 115.78 99.224L115.288 100.436C114.912 100.212 114.524 100.048 114.124 99.944C113.724 99.832 113.34 99.776 112.972 99.776C112.54 99.776 112.188 99.828 111.916 99.932C111.652 100.036 111.456 100.172 111.328 100.34C111.208 100.508 111.148 100.7 111.148 100.916C111.148 101.172 111.236 101.38 111.412 101.54C111.596 101.692 111.832 101.812 112.12 101.9C112.416 101.988 112.744 102.076 113.104 102.164C113.464 102.244 113.82 102.336 114.172 102.44C114.532 102.544 114.856 102.68 115.144 102.848C115.44 103.016 115.676 103.244 115.852 103.532C116.036 103.82 116.128 104.184 116.128 104.624C116.128 105.072 116.004 105.488 115.756 105.872C115.516 106.248 115.144 106.552 114.64 106.784C114.136 107.008 113.5 107.12 112.732 107.12ZM119.943 107.084C119.239 107.084 118.695 106.904 118.311 106.544C117.927 106.176 117.735 105.636 117.735 104.924V99.176H119.235V104.888C119.235 105.192 119.311 105.428 119.463 105.596C119.623 105.764 119.843 105.848 120.123 105.848C120.459 105.848 120.739 105.76 120.963 105.584L121.383 106.652C121.207 106.796 120.991 106.904 120.735 106.976C120.479 107.048 120.215 107.084 119.943 107.084ZM116.679 101.84V100.64H120.951V101.84H116.679ZM126.565 107V105.704L126.481 105.428V103.16C126.481 102.72 126.349 102.38 126.085 102.14C125.821 101.892 125.421 101.768 124.885 101.768C124.525 101.768 124.169 101.824 123.817 101.936C123.473 102.048 123.181 102.204 122.941 102.404L122.353 101.312C122.697 101.048 123.105 100.852 123.577 100.724C124.057 100.588 124.553 100.52 125.065 100.52C125.993 100.52 126.709 100.744 127.213 101.192C127.725 101.632 127.981 102.316 127.981 103.244V107H126.565ZM124.549 107.084C124.069 107.084 123.649 107.004 123.289 106.844C122.929 106.676 122.649 106.448 122.449 106.16C122.257 105.864 122.161 105.532 122.161 105.164C122.161 104.804 122.245 104.48 122.413 104.192C122.589 103.904 122.873 103.676 123.265 103.508C123.657 103.34 124.177 103.256 124.825 103.256H126.685V104.252H124.933C124.421 104.252 124.077 104.336 123.901 104.504C123.725 104.664 123.637 104.864 123.637 105.104C123.637 105.376 123.745 105.592 123.961 105.752C124.177 105.912 124.477 105.992 124.861 105.992C125.229 105.992 125.557 105.908 125.845 105.74C126.141 105.572 126.353 105.324 126.481 104.996L126.733 105.896C126.589 106.272 126.329 106.564 125.953 106.772C125.585 106.98 125.117 107.084 124.549 107.084ZM129.906 107V100.592H131.334V102.356L131.166 101.84C131.358 101.408 131.658 101.08 132.066 100.856C132.482 100.632 132.998 100.52 133.614 100.52V101.948C133.55 101.932 133.49 101.924 133.434 101.924C133.378 101.916 133.322 101.912 133.266 101.912C132.698 101.912 132.246 102.08 131.91 102.416C131.574 102.744 131.406 103.236 131.406 103.892V107H129.906ZM137.533 107.084C136.829 107.084 136.285 106.904 135.901 106.544C135.517 106.176 135.325 105.636 135.325 104.924V99.176H136.825V104.888C136.825 105.192 136.901 105.428 137.053 105.596C137.213 105.764 137.433 105.848 137.713 105.848C138.049 105.848 138.329 105.76 138.553 105.584L138.973 106.652C138.797 106.796 138.581 106.904 138.325 106.976C138.069 107.048 137.805 107.084 137.533 107.084ZM134.269 101.84V100.64H138.541V101.84H134.269ZM145.935 107.084C145.231 107.084 144.687 106.904 144.303 106.544C143.919 106.176 143.727 105.636 143.727 104.924V99.176H145.227V104.888C145.227 105.192 145.303 105.428 145.455 105.596C145.615 105.764 145.835 105.848 146.115 105.848C146.451 105.848 146.731 105.76 146.955 105.584L147.375 106.652C147.199 106.796 146.983 106.904 146.727 106.976C146.471 107.048 146.207 107.084 145.935 107.084ZM142.671 101.84V100.64H146.943V101.84H142.671ZM152.245 100.52C152.757 100.52 153.213 100.62 153.613 100.82C154.021 101.02 154.341 101.328 154.573 101.744C154.805 102.152 154.921 102.68 154.921 103.328V107H153.421V103.52C153.421 102.952 153.285 102.528 153.013 102.248C152.749 101.968 152.377 101.828 151.897 101.828C151.545 101.828 151.233 101.9 150.961 102.044C150.689 102.188 150.477 102.404 150.325 102.692C150.181 102.972 150.109 103.328 150.109 103.76V107H148.609V98.096H150.109V102.32L149.785 101.792C150.009 101.384 150.333 101.072 150.757 100.856C151.189 100.632 151.685 100.52 152.245 100.52ZM159.848 107.084C159.136 107.084 158.512 106.944 157.976 106.664C157.448 106.376 157.036 105.984 156.74 105.488C156.452 104.992 156.308 104.428 156.308 103.796C156.308 103.156 156.448 102.592 156.728 102.104C157.016 101.608 157.408 101.22 157.904 100.94C158.408 100.66 158.98 100.52 159.62 100.52C160.244 100.52 160.8 100.656 161.288 100.928C161.776 101.2 162.16 101.584 162.44 102.08C162.72 102.576 162.86 103.16 162.86 103.832C162.86 103.896 162.856 103.968 162.848 104.048C162.848 104.128 162.844 104.204 162.836 104.276H157.496V103.28H162.044L161.456 103.592C161.464 103.224 161.388 102.9 161.228 102.62C161.068 102.34 160.848 102.12 160.568 101.96C160.296 101.8 159.98 101.72 159.62 101.72C159.252 101.72 158.928 101.8 158.648 101.96C158.376 102.12 158.16 102.344 158 102.632C157.848 102.912 157.772 103.244 157.772 103.628V103.868C157.772 104.252 157.86 104.592 158.036 104.888C158.212 105.184 158.46 105.412 158.78 105.572C159.1 105.732 159.468 105.812 159.884 105.812C160.244 105.812 160.568 105.756 160.856 105.644C161.144 105.532 161.4 105.356 161.624 105.116L162.428 106.04C162.14 106.376 161.776 106.636 161.336 106.82C160.904 106.996 160.408 107.084 159.848 107.084ZM170.629 107.084C169.917 107.084 169.293 106.944 168.757 106.664C168.229 106.376 167.817 105.984 167.521 105.488C167.233 104.992 167.089 104.428 167.089 103.796C167.089 103.156 167.229 102.592 167.509 102.104C167.797 101.608 168.189 101.22 168.685 100.94C169.189 100.66 169.761 100.52 170.401 100.52C171.025 100.52 171.581 100.656 172.069 100.928C172.557 101.2 172.941 101.584 173.221 102.08C173.501 102.576 173.641 103.16 173.641 103.832C173.641 103.896 173.637 103.968 173.629 104.048C173.629 104.128 173.625 104.204 173.617 104.276H168.277V103.28H172.825L172.237 103.592C172.245 103.224 172.169 102.9 172.009 102.62C171.849 102.34 171.629 102.12 171.349 101.96C171.077 101.8 170.761 101.72 170.401 101.72C170.033 101.72 169.709 101.8 169.429 101.96C169.157 102.12 168.941 102.344 168.781 102.632C168.629 102.912 168.553 103.244 168.553 103.628V103.868C168.553 104.252 168.641 104.592 168.817 104.888C168.993 105.184 169.241 105.412 169.561 105.572C169.881 105.732 170.249 105.812 170.665 105.812C171.025 105.812 171.349 105.756 171.637 105.644C171.925 105.532 172.181 105.356 172.405 105.116L173.209 106.04C172.921 106.376 172.557 106.636 172.117 106.82C171.685 106.996 171.189 107.084 170.629 107.084ZM174.03 107L176.85 103.328L176.826 104.132L174.138 100.592H175.806L177.69 103.112H177.054L178.95 100.592H180.57L177.858 104.132L177.87 103.328L180.678 107H178.986L177.006 104.324L177.63 104.408L175.686 107H174.03ZM185.337 107.084C184.817 107.084 184.341 106.964 183.909 106.724C183.485 106.484 183.145 106.124 182.889 105.644C182.641 105.156 182.517 104.54 182.517 103.796C182.517 103.044 182.637 102.428 182.877 101.948C183.125 101.468 183.461 101.112 183.885 100.88C184.309 100.64 184.793 100.52 185.337 100.52C185.969 100.52 186.525 100.656 187.005 100.928C187.493 101.2 187.877 101.58 188.157 102.068C188.445 102.556 188.589 103.132 188.589 103.796C188.589 104.46 188.445 105.04 188.157 105.536C187.877 106.024 187.493 106.404 187.005 106.676C186.525 106.948 185.969 107.084 185.337 107.084ZM181.785 109.328V100.592H183.213V102.104L183.165 103.808L183.285 105.512V109.328H181.785ZM185.169 105.8C185.529 105.8 185.849 105.72 186.129 105.56C186.417 105.4 186.645 105.168 186.813 104.864C186.981 104.56 187.065 104.204 187.065 103.796C187.065 103.38 186.981 103.024 186.813 102.728C186.645 102.424 186.417 102.192 186.129 102.032C185.849 101.872 185.529 101.792 185.169 101.792C184.809 101.792 184.485 101.872 184.197 102.032C183.909 102.192 183.681 102.424 183.513 102.728C183.345 103.024 183.261 103.38 183.261 103.796C183.261 104.204 183.345 104.56 183.513 104.864C183.681 105.168 183.909 105.4 184.197 105.56C184.485 105.72 184.809 105.8 185.169 105.8ZM190.011 107V98.096H191.511V107H190.011ZM196.36 107.084C195.704 107.084 195.12 106.944 194.608 106.664C194.096 106.376 193.692 105.984 193.396 105.488C193.1 104.992 192.952 104.428 192.952 103.796C192.952 103.156 193.1 102.592 193.396 102.104C193.692 101.608 194.096 101.22 194.608 100.94C195.12 100.66 195.704 100.52 196.36 100.52C197.024 100.52 197.612 100.66 198.124 100.94C198.644 101.22 199.048 101.604 199.336 102.092C199.632 102.58 199.78 103.148 199.78 103.796C199.78 104.428 199.632 104.992 199.336 105.488C199.048 105.984 198.644 106.376 198.124 106.664C197.612 106.944 197.024 107.084 196.36 107.084ZM196.36 105.8C196.728 105.8 197.056 105.72 197.344 105.56C197.632 105.4 197.856 105.168 198.016 104.864C198.184 104.56 198.268 104.204 198.268 103.796C198.268 103.38 198.184 103.024 198.016 102.728C197.856 102.424 197.632 102.192 197.344 102.032C197.056 101.872 196.732 101.792 196.372 101.792C196.004 101.792 195.676 101.872 195.388 102.032C195.108 102.192 194.884 102.424 194.716 102.728C194.548 103.024 194.464 103.38 194.464 103.796C194.464 104.204 194.548 104.56 194.716 104.864C194.884 105.168 195.108 105.4 195.388 105.56C195.676 105.72 196 105.8 196.36 105.8ZM201.214 107V100.592H202.642V102.356L202.474 101.84C202.666 101.408 202.966 101.08 203.374 100.856C203.79 100.632 204.306 100.52 204.922 100.52V101.948C204.858 101.932 204.798 101.924 204.742 101.924C204.686 101.916 204.63 101.912 204.574 101.912C204.006 101.912 203.554 102.08 203.218 102.416C202.882 102.744 202.714 103.236 202.714 103.892V107H201.214ZM209.148 107.084C208.436 107.084 207.812 106.944 207.276 106.664C206.748 106.376 206.336 105.984 206.04 105.488C205.752 104.992 205.608 104.428 205.608 103.796C205.608 103.156 205.748 102.592 206.028 102.104C206.316 101.608 206.708 101.22 207.204 100.94C207.708 100.66 208.28 100.52 208.92 100.52C209.544 100.52 210.1 100.656 210.588 100.928C211.076 101.2 211.46 101.584 211.74 102.08C212.02 102.576 212.16 103.16 212.16 103.832C212.16 103.896 212.156 103.968 212.148 104.048C212.148 104.128 212.144 104.204 212.136 104.276H206.796V103.28H211.344L210.756 103.592C210.764 103.224 210.688 102.9 210.528 102.62C210.368 102.34 210.148 102.12 209.868 101.96C209.596 101.8 209.28 101.72 208.92 101.72C208.552 101.72 208.228 101.8 207.948 101.96C207.676 102.12 207.46 102.344 207.3 102.632C207.148 102.912 207.072 103.244 207.072 103.628V103.868C207.072 104.252 207.16 104.592 207.336 104.888C207.512 105.184 207.76 105.412 208.08 105.572C208.4 105.732 208.768 105.812 209.184 105.812C209.544 105.812 209.868 105.756 210.156 105.644C210.444 105.532 210.7 105.356 210.924 105.116L211.728 106.04C211.44 106.376 211.076 106.636 210.636 106.82C210.204 106.996 209.708 107.084 209.148 107.084ZM213.601 107V100.592H215.029V102.356L214.861 101.84C215.053 101.408 215.353 101.08 215.761 100.856C216.177 100.632 216.693 100.52 217.309 100.52V101.948C217.245 101.932 217.185 101.924 217.129 101.924C217.073 101.916 217.017 101.912 216.961 101.912C216.393 101.912 215.941 102.08 215.605 102.416C215.269 102.744 215.101 103.236 215.101 103.892V107H213.601Z" fill="#333333"/>
<path fill-rule="evenodd" clip-rule="evenodd" d="M315 137.985C315 127 306 117.992 295 117.992C233.172 117.992 208 118 208 118L200 126H163L154 117.999H119.147C108.147 117.999 99.1467 127 99.1467 137.992C99.1467 137.999 99.1467 138.007 99.1467 138.014C99.1467 149 108.147 158 119.147 158C135.71 158 154 158 154 158L163 166H200L208 158H295.147C306 158 315 149 315 138.007C315 138 315 138.5 315 137.985Z" fill="#30DCFF"/>
<path fill-rule="evenodd" clip-rule="evenodd" d="M315 137.989C315 127 306 118 294.853 118C233.025 118 208 118 208 118L200 126H163L154 118H119C108 118 99 127 99 137.989C99 137.996 99 138 99 138H104C104 128 111 123 119 123C133.664 123 152 123 152 123L161 131H202L210 123H295C304 123 310 129 310 138L315 138V137.989Z" fill="white" fill-opacity="0.5"/>
<path fill-rule="evenodd" clip-rule="evenodd" d="M315 138L310 138C310 146.971 304.197 153 295 153C237.995 153 206 153 206 153L198 161H165L156 153H119C108.496 153 104 147 104 138.001L99 138V138.011C99 149 108 158 119 158C135.563 158 154 158 154 158L163 166H200L208 158H295C306 158 315 149 315 138Z" fill="black" fill-opacity="0.25"/>
<path d="M111.568 141.092H115.744V142.376H111.568V141.092ZM111.688 144.692H116.428V146H110.128V137.6H116.26V138.908H111.688V144.692ZM121.659 139.52C122.171 139.52 122.627 139.62 123.027 139.82C123.435 140.02 123.755 140.328 123.987 140.744C124.219 141.152 124.335 141.68 124.335 142.328V146H122.835V142.52C122.835 141.952 122.699 141.528 122.427 141.248C122.163 140.968 121.791 140.828 121.311 140.828C120.959 140.828 120.647 140.9 120.375 141.044C120.103 141.188 119.891 141.404 119.739 141.692C119.595 141.972 119.523 142.328 119.523 142.76V146H118.023V139.592H119.451V141.32L119.199 140.792C119.423 140.384 119.747 140.072 120.171 139.856C120.603 139.632 121.099 139.52 121.659 139.52ZM128.65 146.084C127.946 146.084 127.402 145.904 127.018 145.544C126.634 145.176 126.442 144.636 126.442 143.924V138.176H127.942V143.888C127.942 144.192 128.018 144.428 128.17 144.596C128.33 144.764 128.55 144.848 128.83 144.848C129.166 144.848 129.446 144.76 129.67 144.584L130.09 145.652C129.914 145.796 129.698 145.904 129.442 145.976C129.186 146.048 128.922 146.084 128.65 146.084ZM125.386 140.84V139.64H129.658V140.84H125.386ZM134.125 146.084C133.413 146.084 132.789 145.944 132.253 145.664C131.725 145.376 131.313 144.984 131.017 144.488C130.729 143.992 130.585 143.428 130.585 142.796C130.585 142.156 130.725 141.592 131.005 141.104C131.293 140.608 131.685 140.22 132.181 139.94C132.685 139.66 133.257 139.52 133.897 139.52C134.521 139.52 135.077 139.656 135.565 139.928C136.053 140.2 136.437 140.584 136.717 141.08C136.997 141.576 137.137 142.16 137.137 142.832C137.137 142.896 137.133 142.968 137.125 143.048C137.125 143.128 137.121 143.204 137.113 143.276H131.773V142.28H136.321L135.733 142.592C135.741 142.224 135.665 141.9 135.505 141.62C135.345 141.34 135.125 141.12 134.845 140.96C134.573 140.8 134.257 140.72 133.897 140.72C133.529 140.72 133.205 140.8 132.925 140.96C132.653 141.12 132.437 141.344 132.277 141.632C132.125 141.912 132.049 142.244 132.049 142.628V142.868C132.049 143.252 132.137 143.592 132.313 143.888C132.489 144.184 132.737 144.412 133.057 144.572C133.377 144.732 133.745 144.812 134.161 144.812C134.521 144.812 134.845 144.756 135.133 144.644C135.421 144.532 135.677 144.356 135.901 144.116L136.705 145.04C136.417 145.376 136.053 145.636 135.613 145.82C135.181 145.996 134.685 146.084 134.125 146.084ZM138.578 146V139.592H140.006V141.356L139.838 140.84C140.03 140.408 140.33 140.08 140.738 139.856C141.154 139.632 141.67 139.52 142.286 139.52V140.948C142.222 140.932 142.162 140.924 142.106 140.924C142.05 140.916 141.994 140.912 141.938 140.912C141.37 140.912 140.918 141.08 140.582 141.416C140.246 141.744 140.078 142.236 140.078 142.892V146H138.578ZM149.345 146.084C148.641 146.084 148.097 145.904 147.713 145.544C147.329 145.176 147.137 144.636 147.137 143.924V138.176H148.637V143.888C148.637 144.192 148.713 144.428 148.865 144.596C149.025 144.764 149.245 144.848 149.525 144.848C149.861 144.848 150.141 144.76 150.365 144.584L150.785 145.652C150.609 145.796 150.393 145.904 150.137 145.976C149.881 146.048 149.617 146.084 149.345 146.084ZM146.081 140.84V139.64H150.353V140.84H146.081ZM155.655 139.52C156.167 139.52 156.623 139.62 157.023 139.82C157.431 140.02 157.751 140.328 157.983 140.744C158.215 141.152 158.331 141.68 158.331 142.328V146H156.831V142.52C156.831 141.952 156.695 141.528 156.423 141.248C156.159 140.968 155.787 140.828 155.307 140.828C154.955 140.828 154.643 140.9 154.371 141.044C154.099 141.188 153.887 141.404 153.735 141.692C153.591 141.972 153.519 142.328 153.519 142.76V146H152.019V137.096H153.519V141.32L153.195 140.792C153.419 140.384 153.743 140.072 154.167 139.856C154.599 139.632 155.095 139.52 155.655 139.52ZM163.258 146.084C162.546 146.084 161.922 145.944 161.386 145.664C160.858 145.376 160.446 144.984 160.15 144.488C159.862 143.992 159.718 143.428 159.718 142.796C159.718 142.156 159.858 141.592 160.138 141.104C160.426 140.608 160.818 140.22 161.314 139.94C161.818 139.66 162.39 139.52 163.03 139.52C163.654 139.52 164.21 139.656 164.698 139.928C165.186 140.2 165.57 140.584 165.85 141.08C166.13 141.576 166.27 142.16 166.27 142.832C166.27 142.896 166.266 142.968 166.258 143.048C166.258 143.128 166.254 143.204 166.246 143.276H160.906V142.28H165.454L164.866 142.592C164.874 142.224 164.798 141.9 164.638 141.62C164.478 141.34 164.258 141.12 163.978 140.96C163.706 140.8 163.39 140.72 163.03 140.72C162.662 140.72 162.338 140.8 162.058 140.96C161.786 141.12 161.57 141.344 161.41 141.632C161.258 141.912 161.182 142.244 161.182 142.628V142.868C161.182 143.252 161.27 143.592 161.446 143.888C161.622 144.184 161.87 144.412 162.19 144.572C162.51 144.732 162.878 144.812 163.294 144.812C163.654 144.812 163.978 144.756 164.266 144.644C164.554 144.532 164.81 144.356 165.034 144.116L165.838 145.04C165.55 145.376 165.186 145.636 164.746 145.82C164.314 145.996 163.818 146.084 163.258 146.084ZM173.007 146.084C172.471 146.084 171.955 146.016 171.459 145.88C170.971 145.736 170.583 145.564 170.295 145.364L170.871 144.224C171.159 144.408 171.503 144.56 171.903 144.68C172.303 144.8 172.703 144.86 173.103 144.86C173.575 144.86 173.915 144.796 174.123 144.668C174.339 144.54 174.447 144.368 174.447 144.152C174.447 143.976 174.375 143.844 174.231 143.756C174.087 143.66 173.899 143.588 173.667 143.54C173.435 143.492 173.175 143.448 172.887 143.408C172.607 143.368 172.323 143.316 172.035 143.252C171.755 143.18 171.499 143.08 171.267 142.952C171.035 142.816 170.847 142.636 170.703 142.412C170.559 142.188 170.487 141.892 170.487 141.524C170.487 141.116 170.603 140.764 170.835 140.468C171.067 140.164 171.391 139.932 171.807 139.772C172.231 139.604 172.731 139.52 173.307 139.52C173.739 139.52 174.175 139.568 174.615 139.664C175.055 139.76 175.419 139.896 175.707 140.072L175.131 141.212C174.827 141.028 174.519 140.904 174.207 140.84C173.903 140.768 173.599 140.732 173.295 140.732C172.839 140.732 172.499 140.8 172.275 140.936C172.059 141.072 171.951 141.244 171.951 141.452C171.951 141.644 172.023 141.788 172.167 141.884C172.311 141.98 172.499 142.056 172.731 142.112C172.963 142.168 173.219 142.216 173.499 142.256C173.787 142.288 174.071 142.34 174.351 142.412C174.631 142.484 174.887 142.584 175.119 142.712C175.359 142.832 175.551 143.004 175.695 143.228C175.839 143.452 175.911 143.744 175.911 144.104C175.911 144.504 175.791 144.852 175.551 145.148C175.319 145.444 174.987 145.676 174.555 145.844C174.123 146.004 173.607 146.084 173.007 146.084ZM180.215 146.084C179.503 146.084 178.879 145.944 178.343 145.664C177.815 145.376 177.403 144.984 177.107 144.488C176.819 143.992 176.675 143.428 176.675 142.796C176.675 142.156 176.815 141.592 177.095 141.104C177.383 140.608 177.775 140.22 178.271 139.94C178.775 139.66 179.347 139.52 179.987 139.52C180.611 139.52 181.167 139.656 181.655 139.928C182.143 140.2 182.527 140.584 182.807 141.08C183.087 141.576 183.227 142.16 183.227 142.832C183.227 142.896 183.223 142.968 183.215 143.048C183.215 143.128 183.211 143.204 183.203 143.276H177.863V142.28H182.411L181.823 142.592C181.831 142.224 181.755 141.9 181.595 141.62C181.435 141.34 181.215 141.12 180.935 140.96C180.663 140.8 180.347 140.72 179.987 140.72C179.619 140.72 179.295 140.8 179.015 140.96C178.743 141.12 178.527 141.344 178.367 141.632C178.215 141.912 178.139 142.244 178.139 142.628V142.868C178.139 143.252 178.227 143.592 178.403 143.888C178.579 144.184 178.827 144.412 179.147 144.572C179.467 144.732 179.835 144.812 180.251 144.812C180.611 144.812 180.935 144.756 181.223 144.644C181.511 144.532 181.767 144.356 181.991 144.116L182.795 145.04C182.507 145.376 182.143 145.636 181.703 145.82C181.271 145.996 180.775 146.084 180.215 146.084ZM188.44 146V144.704L188.356 144.428V142.16C188.356 141.72 188.224 141.38 187.96 141.14C187.696 140.892 187.296 140.768 186.76 140.768C186.4 140.768 186.044 140.824 185.692 140.936C185.348 141.048 185.056 141.204 184.816 141.404L184.228 140.312C184.572 140.048 184.98 139.852 185.452 139.724C185.932 139.588 186.428 139.52 186.94 139.52C187.868 139.52 188.584 139.744 189.088 140.192C189.6 140.632 189.856 141.316 189.856 142.244V146H188.44ZM186.424 146.084C185.944 146.084 185.524 146.004 185.164 145.844C184.804 145.676 184.524 145.448 184.324 145.16C184.132 144.864 184.036 144.532 184.036 144.164C184.036 143.804 184.12 143.48 184.288 143.192C184.464 142.904 184.748 142.676 185.14 142.508C185.532 142.34 186.052 142.256 186.7 142.256H188.56V143.252H186.808C186.296 143.252 185.952 143.336 185.776 143.504C185.6 143.664 185.512 143.864 185.512 144.104C185.512 144.376 185.62 144.592 185.836 144.752C186.052 144.912 186.352 144.992 186.736 144.992C187.104 144.992 187.432 144.908 187.72 144.74C188.016 144.572 188.228 144.324 188.356 143.996L188.608 144.896C188.464 145.272 188.204 145.564 187.828 145.772C187.46 145.98 186.992 146.084 186.424 146.084ZM191.781 146V139.592H193.209V141.356L193.041 140.84C193.233 140.408 193.533 140.08 193.941 139.856C194.357 139.632 194.873 139.52 195.489 139.52V140.948C195.425 140.932 195.365 140.924 195.309 140.924C195.253 140.916 195.197 140.912 195.141 140.912C194.573 140.912 194.121 141.08 193.785 141.416C193.449 141.744 193.281 142.236 193.281 142.892V146H191.781ZM199.643 146.084C198.971 146.084 198.371 145.944 197.843 145.664C197.323 145.376 196.915 144.984 196.619 144.488C196.323 143.992 196.175 143.428 196.175 142.796C196.175 142.156 196.323 141.592 196.619 141.104C196.915 140.608 197.323 140.22 197.843 139.94C198.371 139.66 198.971 139.52 199.643 139.52C200.267 139.52 200.815 139.648 201.287 139.904C201.767 140.152 202.131 140.52 202.379 141.008L201.227 141.68C201.035 141.376 200.799 141.152 200.519 141.008C200.247 140.864 199.951 140.792 199.631 140.792C199.263 140.792 198.931 140.872 198.635 141.032C198.339 141.192 198.107 141.424 197.939 141.728C197.771 142.024 197.687 142.38 197.687 142.796C197.687 143.212 197.771 143.572 197.939 143.876C198.107 144.172 198.339 144.4 198.635 144.56C198.931 144.72 199.263 144.8 199.631 144.8C199.951 144.8 200.247 144.728 200.519 144.584C200.799 144.44 201.035 144.216 201.227 143.912L202.379 144.584C202.131 145.064 201.767 145.436 201.287 145.7C200.815 145.956 200.267 146.084 199.643 146.084ZM207.253 139.52C207.765 139.52 208.221 139.62 208.621 139.82C209.029 140.02 209.349 140.328 209.581 140.744C209.813 141.152 209.929 141.68 209.929 142.328V146H208.429V142.52C208.429 141.952 208.293 141.528 208.021 141.248C207.757 140.968 207.385 140.828 206.905 140.828C206.553 140.828 206.241 140.9 205.969 141.044C205.697 141.188 205.485 141.404 205.333 141.692C205.189 141.972 205.117 142.328 205.117 142.76V146H203.617V137.096H205.117V141.32L204.793 140.792C205.017 140.384 205.341 140.072 205.765 139.856C206.197 139.632 206.693 139.52 207.253 139.52ZM218.16 146.084C217.448 146.084 216.824 145.944 216.288 145.664C215.76 145.376 215.348 144.984 215.052 144.488C214.764 143.992 214.62 143.428 214.62 142.796C214.62 142.156 214.76 141.592 215.04 141.104C215.328 140.608 215.72 140.22 216.216 139.94C216.72 139.66 217.292 139.52 217.932 139.52C218.556 139.52 219.112 139.656 219.6 139.928C220.088 140.2 220.472 140.584 220.752 141.08C221.032 141.576 221.172 142.16 221.172 142.832C221.172 142.896 221.168 142.968 221.16 143.048C221.16 143.128 221.156 143.204 221.148 143.276H215.808V142.28H220.356L219.768 142.592C219.776 142.224 219.7 141.9 219.54 141.62C219.38 141.34 219.16 141.12 218.88 140.96C218.608 140.8 218.292 140.72 217.932 140.72C217.564 140.72 217.24 140.8 216.96 140.96C216.688 141.12 216.472 141.344 216.312 141.632C216.16 141.912 216.084 142.244 216.084 142.628V142.868C216.084 143.252 216.172 143.592 216.348 143.888C216.524 144.184 216.772 144.412 217.092 144.572C217.412 144.732 217.78 144.812 218.196 144.812C218.556 144.812 218.88 144.756 219.168 144.644C219.456 144.532 219.712 144.356 219.936 144.116L220.74 145.04C220.452 145.376 220.088 145.636 219.648 145.82C219.216 145.996 218.72 146.084 218.16 146.084ZM226.249 139.52C226.761 139.52 227.217 139.62 227.617 139.82C228.025 140.02 228.345 140.328 228.577 140.744C228.809 141.152 228.925 141.68 228.925 142.328V146H227.425V142.52C227.425 141.952 227.289 141.528 227.017 141.248C226.753 140.968 226.381 140.828 225.901 140.828C225.549 140.828 225.237 140.9 224.965 141.044C224.693 141.188 224.481 141.404 224.329 141.692C224.185 141.972 224.113 142.328 224.113 142.76V146H222.613V139.592H224.041V141.32L223.789 140.792C224.013 140.384 224.337 140.072 224.761 139.856C225.193 139.632 225.689 139.52 226.249 139.52ZM233.743 148.412C233.151 148.412 232.571 148.332 232.003 148.172C231.443 148.02 230.983 147.796 230.623 147.5L231.295 146.372C231.575 146.604 231.927 146.788 232.351 146.924C232.783 147.068 233.219 147.14 233.659 147.14C234.363 147.14 234.879 146.976 235.207 146.648C235.535 146.328 235.699 145.844 235.699 145.196V144.056L235.819 142.604L235.771 141.152V139.592H237.199V145.028C237.199 146.188 236.903 147.04 236.311 147.584C235.719 148.136 234.863 148.412 233.743 148.412ZM233.551 145.712C232.943 145.712 232.391 145.584 231.895 145.328C231.407 145.064 231.019 144.7 230.731 144.236C230.451 143.772 230.311 143.228 230.311 142.604C230.311 141.988 230.451 141.448 230.731 140.984C231.019 140.52 231.407 140.16 231.895 139.904C232.391 139.648 232.943 139.52 233.551 139.52C234.095 139.52 234.583 139.628 235.015 139.844C235.447 140.06 235.791 140.396 236.047 140.852C236.311 141.308 236.443 141.892 236.443 142.604C236.443 143.316 236.311 143.904 236.047 144.368C235.791 144.824 235.447 145.164 235.015 145.388C234.583 145.604 234.095 145.712 233.551 145.712ZM233.779 144.44C234.155 144.44 234.491 144.364 234.787 144.212C235.083 144.052 235.311 143.836 235.471 143.564C235.639 143.284 235.723 142.964 235.723 142.604C235.723 142.244 235.639 141.928 235.471 141.656C235.311 141.376 235.083 141.164 234.787 141.02C234.491 140.868 234.155 140.792 233.779 140.792C233.403 140.792 233.063 140.868 232.759 141.02C232.463 141.164 232.231 141.376 232.063 141.656C231.903 141.928 231.823 142.244 231.823 142.604C231.823 142.964 231.903 143.284 232.063 143.564C232.231 143.836 232.463 144.052 232.759 144.212C233.063 144.364 233.403 144.44 233.779 144.44ZM239.172 146V139.592H240.672V146H239.172ZM239.928 138.536C239.648 138.536 239.416 138.448 239.232 138.272C239.056 138.096 238.968 137.884 238.968 137.636C238.968 137.38 239.056 137.168 239.232 137C239.416 136.824 239.648 136.736 239.928 136.736C240.208 136.736 240.436 136.82 240.612 136.988C240.796 137.148 240.888 137.352 240.888 137.6C240.888 137.864 240.8 138.088 240.624 138.272C240.448 138.448 240.216 138.536 239.928 138.536ZM246.276 139.52C246.788 139.52 247.244 139.62 247.644 139.82C248.052 140.02 248.372 140.328 248.604 140.744C248.836 141.152 248.952 141.68 248.952 142.328V146H247.452V142.52C247.452 141.952 247.316 141.528 247.044 141.248C246.78 140.968 246.408 140.828 245.928 140.828C245.576 140.828 245.264 140.9 244.992 141.044C244.72 141.188 244.508 141.404 244.356 141.692C244.212 141.972 244.14 142.328 244.14 142.76V146H242.64V139.592H244.068V141.32L243.816 140.792C244.04 140.384 244.364 140.072 244.788 139.856C245.22 139.632 245.716 139.52 246.276 139.52ZM253.879 146.084C253.167 146.084 252.543 145.944 252.007 145.664C251.479 145.376 251.067 144.984 250.771 144.488C250.483 143.992 250.339 143.428 250.339 142.796C250.339 142.156 250.479 141.592 250.759 141.104C251.047 140.608 251.439 140.22 251.935 139.94C252.439 139.66 253.011 139.52 253.651 139.52C254.275 139.52 254.831 139.656 255.319 139.928C255.807 140.2 256.191 140.584 256.471 141.08C256.751 141.576 256.891 142.16 256.891 142.832C256.891 142.896 256.887 142.968 256.879 143.048C256.879 143.128 256.875 143.204 256.867 143.276H251.527V142.28H256.075L255.487 142.592C255.495 142.224 255.419 141.9 255.259 141.62C255.099 141.34 254.879 141.12 254.599 140.96C254.327 140.8 254.011 140.72 253.651 140.72C253.283 140.72 252.959 140.8 252.679 140.96C252.407 141.12 252.191 141.344 252.031 141.632C251.879 141.912 251.803 142.244 251.803 142.628V142.868C251.803 143.252 251.891 143.592 252.067 143.888C252.243 144.184 252.491 144.412 252.811 144.572C253.131 144.732 253.499 144.812 253.915 144.812C254.275 144.812 254.599 144.756 254.887 144.644C255.175 144.532 255.431 144.356 255.655 144.116L256.459 145.04C256.171 145.376 255.807 145.636 255.367 145.82C254.935 145.996 254.439 146.084 253.879 146.084Z" fill="#333333"/>
<path fill-rule="evenodd" clip-rule="evenodd" d="M315 177.985C315 167 306 157.992 295 157.992C233.172 157.992 208 158 208 158L200 166H163L154 157.999H119.147C108.147 157.999 99.1467 167 99.1467 177.992C99.1467 177.999 99.1467 178.007 99.1467 178.014C99.1467 189 108.147 198 119.147 198C135.71 198 154 198 154 198L163 206H200L208 198H295.147C306 198 315 189 315 178.007C315 178 315 178.5 315 177.985Z" fill="#30DCFF"/>
<path fill-rule="evenodd" clip-rule="evenodd" d="M315 177.989C315 167 306 158 294.853 158C233.025 158 208 158 208 158L200 166H163L154 158H119C108 158 99 167 99 177.989C99 177.996 99 178 99 178H104C104 168 111 163 119 163C133.664 163 152 163 152 163L161 171H202L210 163H295C304 163 310 169 310 178L315 178V177.989Z" fill="white" fill-opacity="0.5"/>
<path fill-rule="evenodd" clip-rule="evenodd" d="M315 178L310 178C310 186.971 304.197 193 295 193C237.995 193 206 193 206 193L198 201H165L156 193H119C108.496 193 104 187 104 178.001L99 178V178.011C99 189 108 198 119 198C135.563 198 154 198 154 198L163 206H200L208 198H295C306 198 315 189 315 178Z" fill="black" fill-opacity="0.25"/>
<path d="M111.568 181.092H115.744V182.376H111.568V181.092ZM111.688 184.692H116.428V186H110.128V177.6H116.26V178.908H111.688V184.692ZM121.659 179.52C122.171 179.52 122.627 179.62 123.027 179.82C123.435 180.02 123.755 180.328 123.987 180.744C124.219 181.152 124.335 181.68 124.335 182.328V186H122.835V182.52C122.835 181.952 122.699 181.528 122.427 181.248C122.163 180.968 121.791 180.828 121.311 180.828C120.959 180.828 120.647 180.9 120.375 181.044C120.103 181.188 119.891 181.404 119.739 181.692C119.595 181.972 119.523 182.328 119.523 182.76V186H118.023V179.592H119.451V181.32L119.199 180.792C119.423 180.384 119.747 180.072 120.171 179.856C120.603 179.632 121.099 179.52 121.659 179.52ZM128.65 186.084C127.946 186.084 127.402 185.904 127.018 185.544C126.634 185.176 126.442 184.636 126.442 183.924V178.176H127.942V183.888C127.942 184.192 128.018 184.428 128.17 184.596C128.33 184.764 128.55 184.848 128.83 184.848C129.166 184.848 129.446 184.76 129.67 184.584L130.09 185.652C129.914 185.796 129.698 185.904 129.442 185.976C129.186 186.048 128.922 186.084 128.65 186.084ZM125.386 180.84V179.64H129.658V180.84H125.386ZM134.125 186.084C133.413 186.084 132.789 185.944 132.253 185.664C131.725 185.376 131.313 184.984 131.017 184.488C130.729 183.992 130.585 183.428 130.585 182.796C130.585 182.156 130.725 181.592 131.005 181.104C131.293 180.608 131.685 180.22 132.181 179.94C132.685 179.66 133.257 179.52 133.897 179.52C134.521 179.52 135.077 179.656 135.565 179.928C136.053 180.2 136.437 180.584 136.717 181.08C136.997 181.576 137.137 182.16 137.137 182.832C137.137 182.896 137.133 182.968 137.125 183.048C137.125 183.128 137.121 183.204 137.113 183.276H131.773V182.28H136.321L135.733 182.592C135.741 182.224 135.665 181.9 135.505 181.62C135.345 181.34 135.125 181.12 134.845 180.96C134.573 180.8 134.257 180.72 133.897 180.72C133.529 180.72 133.205 180.8 132.925 180.96C132.653 181.12 132.437 181.344 132.277 181.632C132.125 181.912 132.049 182.244 132.049 182.628V182.868C132.049 183.252 132.137 183.592 132.313 183.888C132.489 184.184 132.737 184.412 133.057 184.572C133.377 184.732 133.745 184.812 134.161 184.812C134.521 184.812 134.845 184.756 135.133 184.644C135.421 184.532 135.677 184.356 135.901 184.116L136.705 185.04C136.417 185.376 136.053 185.636 135.613 185.82C135.181 185.996 134.685 186.084 134.125 186.084ZM138.578 186V179.592H140.006V181.356L139.838 180.84C140.03 180.408 140.33 180.08 140.738 179.856C141.154 179.632 141.67 179.52 142.286 179.52V180.948C142.222 180.932 142.162 180.924 142.106 180.924C142.05 180.916 141.994 180.912 141.938 180.912C141.37 180.912 140.918 181.08 140.582 181.416C140.246 181.744 140.078 182.236 140.078 182.892V186H138.578ZM150.881 186V184.704L150.797 184.428V182.16C150.797 181.72 150.665 181.38 150.401 181.14C150.137 180.892 149.737 180.768 149.201 180.768C148.841 180.768 148.485 180.824 148.133 180.936C147.789 181.048 147.497 181.204 147.257 181.404L146.669 180.312C147.013 180.048 147.421 179.852 147.893 179.724C148.373 179.588 148.869 179.52 149.381 179.52C150.309 179.52 151.025 179.744 151.529 180.192C152.041 180.632 152.297 181.316 152.297 182.244V186H150.881ZM148.865 186.084C148.385 186.084 147.965 186.004 147.605 185.844C147.245 185.676 146.965 185.448 146.765 185.16C146.573 184.864 146.477 184.532 146.477 184.164C146.477 183.804 146.561 183.48 146.729 183.192C146.905 182.904 147.189 182.676 147.581 182.508C147.973 182.34 148.493 182.256 149.141 182.256H151.001V183.252H149.249C148.737 183.252 148.393 183.336 148.217 183.504C148.041 183.664 147.953 183.864 147.953 184.104C147.953 184.376 148.061 184.592 148.277 184.752C148.493 184.912 148.793 184.992 149.177 184.992C149.545 184.992 149.873 184.908 150.161 184.74C150.457 184.572 150.669 184.324 150.797 183.996L151.049 184.896C150.905 185.272 150.645 185.564 150.269 185.772C149.901 185.98 149.433 186.084 148.865 186.084ZM156.934 186.084C156.39 186.084 155.91 185.984 155.494 185.784C155.078 185.576 154.754 185.264 154.522 184.848C154.29 184.424 154.174 183.892 154.174 183.252V179.592H155.674V183.048C155.674 183.624 155.802 184.056 156.058 184.344C156.322 184.624 156.694 184.764 157.174 184.764C157.526 184.764 157.83 184.692 158.086 184.548C158.35 184.404 158.554 184.188 158.698 183.9C158.85 183.612 158.926 183.256 158.926 182.832V179.592H160.426V186H158.998V184.272L159.25 184.8C159.034 185.216 158.718 185.536 158.302 185.76C157.886 185.976 157.43 186.084 156.934 186.084ZM164.802 186.084C164.098 186.084 163.554 185.904 163.17 185.544C162.786 185.176 162.594 184.636 162.594 183.924V178.176H164.094V183.888C164.094 184.192 164.17 184.428 164.322 184.596C164.482 184.764 164.702 184.848 164.982 184.848C165.318 184.848 165.598 184.76 165.822 184.584L166.242 185.652C166.066 185.796 165.85 185.904 165.594 185.976C165.338 186.048 165.074 186.084 164.802 186.084ZM161.538 180.84V179.64H165.81V180.84H161.538ZM171.112 179.52C171.624 179.52 172.08 179.62 172.48 179.82C172.888 180.02 173.208 180.328 173.44 180.744C173.672 181.152 173.788 181.68 173.788 182.328V186H172.288V182.52C172.288 181.952 172.152 181.528 171.88 181.248C171.616 180.968 171.244 180.828 170.764 180.828C170.412 180.828 170.1 180.9 169.828 181.044C169.556 181.188 169.344 181.404 169.192 181.692C169.048 181.972 168.976 182.328 168.976 182.76V186H167.476V177.096H168.976V181.32L168.652 180.792C168.876 180.384 169.2 180.072 169.624 179.856C170.056 179.632 170.552 179.52 171.112 179.52ZM178.583 186.084C177.927 186.084 177.343 185.944 176.831 185.664C176.319 185.376 175.915 184.984 175.619 184.488C175.323 183.992 175.175 183.428 175.175 182.796C175.175 182.156 175.323 181.592 175.619 181.104C175.915 180.608 176.319 180.22 176.831 179.94C177.343 179.66 177.927 179.52 178.583 179.52C179.247 179.52 179.835 179.66 180.347 179.94C180.867 180.22 181.271 180.604 181.559 181.092C181.855 181.58 182.003 182.148 182.003 182.796C182.003 183.428 181.855 183.992 181.559 184.488C181.271 184.984 180.867 185.376 180.347 185.664C179.835 185.944 179.247 186.084 178.583 186.084ZM178.583 184.8C178.951 184.8 179.279 184.72 179.567 184.56C179.855 184.4 180.079 184.168 180.239 183.864C180.407 183.56 180.491 183.204 180.491 182.796C180.491 182.38 180.407 182.024 180.239 181.728C180.079 181.424 179.855 181.192 179.567 181.032C179.279 180.872 178.955 180.792 178.595 180.792C178.227 180.792 177.899 180.872 177.611 181.032C177.331 181.192 177.107 181.424 176.939 181.728C176.771 182.024 176.687 182.38 176.687 182.796C176.687 183.204 176.771 183.56 176.939 183.864C177.107 184.168 177.331 184.4 177.611 184.56C177.899 184.72 178.223 184.8 178.583 184.8ZM183.437 186V179.592H184.865V181.356L184.697 180.84C184.889 180.408 185.189 180.08 185.597 179.856C186.013 179.632 186.529 179.52 187.145 179.52V180.948C187.081 180.932 187.021 180.924 186.965 180.924C186.909 180.916 186.853 180.912 186.797 180.912C186.229 180.912 185.777 181.08 185.441 181.416C185.105 181.744 184.937 182.236 184.937 182.892V186H183.437ZM195.429 179.52C195.941 179.52 196.397 179.62 196.797 179.82C197.205 180.02 197.525 180.328 197.757 180.744C197.989 181.152 198.105 181.68 198.105 182.328V186H196.605V182.52C196.605 181.952 196.469 181.528 196.197 181.248C195.933 180.968 195.561 180.828 195.081 180.828C194.729 180.828 194.417 180.9 194.145 181.044C193.873 181.188 193.661 181.404 193.509 181.692C193.365 181.972 193.293 182.328 193.293 182.76V186H191.793V179.592H193.221V181.32L192.969 180.792C193.193 180.384 193.517 180.072 193.941 179.856C194.373 179.632 194.869 179.52 195.429 179.52ZM203.955 186V184.704L203.871 184.428V182.16C203.871 181.72 203.739 181.38 203.475 181.14C203.211 180.892 202.811 180.768 202.275 180.768C201.915 180.768 201.559 180.824 201.207 180.936C200.863 181.048 200.571 181.204 200.331 181.404L199.743 180.312C200.087 180.048 200.495 179.852 200.967 179.724C201.447 179.588 201.943 179.52 202.455 179.52C203.383 179.52 204.099 179.744 204.603 180.192C205.115 180.632 205.371 181.316 205.371 182.244V186H203.955ZM201.939 186.084C201.459 186.084 201.039 186.004 200.679 185.844C200.319 185.676 200.039 185.448 199.839 185.16C199.647 184.864 199.551 184.532 199.551 184.164C199.551 183.804 199.635 183.48 199.803 183.192C199.979 182.904 200.263 182.676 200.655 182.508C201.047 182.34 201.567 182.256 202.215 182.256H204.075V183.252H202.323C201.811 183.252 201.467 183.336 201.291 183.504C201.115 183.664 201.027 183.864 201.027 184.104C201.027 184.376 201.135 184.592 201.351 184.752C201.567 184.912 201.867 184.992 202.251 184.992C202.619 184.992 202.947 184.908 203.235 184.74C203.531 184.572 203.743 184.324 203.871 183.996L204.123 184.896C203.979 185.272 203.719 185.564 203.343 185.772C202.975 185.98 202.507 186.084 201.939 186.084ZM215.385 179.52C215.897 179.52 216.349 179.62 216.741 179.82C217.141 180.02 217.453 180.328 217.677 180.744C217.901 181.152 218.013 181.68 218.013 182.328V186H216.513V182.52C216.513 181.952 216.389 181.528 216.141 181.248C215.893 180.968 215.537 180.828 215.073 180.828C214.745 180.828 214.453 180.9 214.197 181.044C213.949 181.188 213.753 181.4 213.609 181.68C213.473 181.96 213.405 182.316 213.405 182.748V186H211.905V182.52C211.905 181.952 211.781 181.528 211.533 181.248C211.285 180.968 210.929 180.828 210.465 180.828C210.137 180.828 209.845 180.9 209.589 181.044C209.341 181.188 209.145 181.4 209.001 181.68C208.865 181.96 208.797 182.316 208.797 182.748V186H207.297V179.592H208.725V181.296L208.473 180.792C208.689 180.376 209.001 180.06 209.409 179.844C209.825 179.628 210.297 179.52 210.825 179.52C211.425 179.52 211.945 179.668 212.385 179.964C212.833 180.26 213.129 180.708 213.273 181.308L212.685 181.104C212.893 180.624 213.237 180.24 213.717 179.952C214.197 179.664 214.753 179.52 215.385 179.52ZM222.953 186.084C222.241 186.084 221.617 185.944 221.081 185.664C220.553 185.376 220.141 184.984 219.845 184.488C219.557 183.992 219.413 183.428 219.413 182.796C219.413 182.156 219.553 181.592 219.833 181.104C220.121 180.608 220.513 180.22 221.009 179.94C221.513 179.66 222.085 179.52 222.725 179.52C223.349 179.52 223.905 179.656 224.393 179.928C224.881 180.2 225.265 180.584 225.545 181.08C225.825 181.576 225.965 182.16 225.965 182.832C225.965 182.896 225.961 182.968 225.953 183.048C225.953 183.128 225.949 183.204 225.941 183.276H220.601V182.28H225.149L224.561 182.592C224.569 182.224 224.493 181.9 224.333 181.62C224.173 181.34 223.953 181.12 223.673 180.96C223.401 180.8 223.085 180.72 222.725 180.72C222.357 180.72 222.033 180.8 221.753 180.96C221.481 181.12 221.265 181.344 221.105 181.632C220.953 181.912 220.877 182.244 220.877 182.628V182.868C220.877 183.252 220.965 183.592 221.141 183.888C221.317 184.184 221.565 184.412 221.885 184.572C222.205 184.732 222.573 184.812 222.989 184.812C223.349 184.812 223.673 184.756 223.961 184.644C224.249 184.532 224.505 184.356 224.729 184.116L225.533 185.04C225.245 185.376 224.881 185.636 224.441 185.82C224.009 185.996 223.513 186.084 222.953 186.084Z" fill="#333333"/>
<path fill-rule="evenodd" clip-rule="evenodd" d="M315 61C315 50 308 43 297 43C257.917 43 282.045 43 254 43C246.27 43 242.785 40.7635 238.5 36.5C229.193 27.8197 205.783 14 154.427 14C82.0243 14 65 43 65 43C65 43 65.0004 47.7195 65.0006 61C65.0006 71 73 79 83 79C109.488 79 154 79 154 79L163 87H200L208 79C208 79 242.031 79 297 79C308 79 315 72 315 61C315 62.8675 315 58.1323 315 61Z" fill="#FC79FF"/>
<path fill-rule="evenodd" clip-rule="evenodd" d="M310 61C310 69 306 74 297 74L206 74L198 82H165L156 74C156 74 108.393 74 83.0001 74C74.9643 74 70 68 70 61H65C65 71 73 79 83.0001 79C109.441 79 154 79 154 79L163.027 87H200L208 79L297 79C308 79 315 72 315 61C313.5 61 312 60.9999 310 61Z" fill="black" fill-opacity="0.25"/>
<path fill-rule="evenodd" clip-rule="evenodd" d="M65 61H70V45C70 45 84.993 19 154.286 19C201.342 19 225.557 31.6452 235.5 40C240.292 44.0301 246.712 47.9521 253 48C261.5 48 281.464 48 297 48C304.964 48 310 53.5 310 60V61H314H315C315 50 308 43 297 43C257.993 43 281.008 43 253 43C246 43 242.169 40.1595 238.214 36.2066C228.936 27.4998 205.571 14 154.268 14C81.9103 14 65 43 65 43L65 61Z" fill="white" fill-opacity="0.5"/>
<path d="M78.012 68L75.264 59.6H77.28L79.668 67.04H78.66L81.156 59.6H82.956L85.356 67.04H84.384L86.832 59.6H88.692L85.944 68H83.856L81.732 61.472H82.284L80.1 68H78.012ZM93.745 61.448C94.257 61.448 94.713 61.552 95.113 61.76C95.521 61.96 95.841 62.272 96.073 62.696C96.305 63.112 96.421 63.648 96.421 64.304V68H94.549V64.592C94.549 64.072 94.433 63.688 94.201 63.44C93.977 63.192 93.657 63.068 93.241 63.068C92.945 63.068 92.677 63.132 92.437 63.26C92.205 63.38 92.021 63.568 91.885 63.824C91.757 64.08 91.693 64.408 91.693 64.808V68H89.821V59.096H91.693V63.332L91.273 62.792C91.505 62.36 91.837 62.028 92.269 61.796C92.701 61.564 93.193 61.448 93.745 61.448ZM101.369 68.096C100.633 68.096 99.9848 67.952 99.4248 67.664C98.8728 67.376 98.4448 66.984 98.1408 66.488C97.8368 65.984 97.6848 65.412 97.6848 64.772C97.6848 64.124 97.8328 63.552 98.1288 63.056C98.4328 62.552 98.8448 62.16 99.3648 61.88C99.8848 61.592 100.473 61.448 101.129 61.448C101.761 61.448 102.329 61.584 102.833 61.856C103.345 62.12 103.749 62.504 104.045 63.008C104.341 63.504 104.489 64.1 104.489 64.796C104.489 64.868 104.485 64.952 104.477 65.048C104.469 65.136 104.461 65.22 104.453 65.3H99.2088V64.208H103.469L102.749 64.532C102.749 64.196 102.681 63.904 102.545 63.656C102.409 63.408 102.221 63.216 101.981 63.08C101.741 62.936 101.461 62.864 101.141 62.864C100.821 62.864 100.537 62.936 100.289 63.08C100.049 63.216 99.8608 63.412 99.7248 63.668C99.5888 63.916 99.5208 64.212 99.5208 64.556V64.844C99.5208 65.196 99.5968 65.508 99.7488 65.78C99.9088 66.044 100.129 66.248 100.409 66.392C100.697 66.528 101.033 66.596 101.417 66.596C101.761 66.596 102.061 66.544 102.317 66.44C102.581 66.336 102.821 66.18 103.037 65.972L104.033 67.052C103.737 67.388 103.365 67.648 102.917 67.832C102.469 68.008 101.953 68.096 101.369 68.096ZM109.659 61.448C110.171 61.448 110.627 61.552 111.027 61.76C111.435 61.96 111.755 62.272 111.987 62.696C112.219 63.112 112.335 63.648 112.335 64.304V68H110.463V64.592C110.463 64.072 110.347 63.688 110.115 63.44C109.891 63.192 109.571 63.068 109.155 63.068C108.859 63.068 108.591 63.132 108.351 63.26C108.119 63.38 107.935 63.568 107.799 63.824C107.671 64.08 107.607 64.408 107.607 64.808V68H105.735V61.544H107.523V63.332L107.187 62.792C107.419 62.36 107.751 62.028 108.183 61.796C108.615 61.564 109.107 61.448 109.659 61.448ZM114.74 63.788C114.42 63.788 114.144 63.68 113.912 63.464C113.688 63.24 113.576 62.956 113.576 62.612C113.576 62.268 113.688 61.992 113.912 61.784C114.144 61.568 114.42 61.46 114.74 61.46C115.068 61.46 115.344 61.568 115.568 61.784C115.792 61.992 115.904 62.268 115.904 62.612C115.904 62.956 115.792 63.24 115.568 63.464C115.344 63.68 115.068 63.788 114.74 63.788ZM114.74 68.096C114.42 68.096 114.144 67.988 113.912 67.772C113.688 67.548 113.576 67.264 113.576 66.92C113.576 66.576 113.688 66.3 113.912 66.092C114.144 65.876 114.42 65.768 114.74 65.768C115.068 65.768 115.344 65.876 115.568 66.092C115.792 66.3 115.904 66.576 115.904 66.92C115.904 67.264 115.792 67.548 115.568 67.772C115.344 67.988 115.068 68.096 114.74 68.096ZM124.387 68.096C123.843 68.096 123.367 67.976 122.959 67.736C122.551 67.496 122.231 67.132 121.999 66.644C121.775 66.148 121.663 65.524 121.663 64.772C121.663 64.012 121.771 63.388 121.987 62.9C122.203 62.412 122.515 62.048 122.923 61.808C123.331 61.568 123.819 61.448 124.387 61.448C124.995 61.448 125.539 61.588 126.019 61.868C126.507 62.14 126.891 62.524 127.171 63.02C127.459 63.516 127.603 64.1 127.603 64.772C127.603 65.452 127.459 66.04 127.171 66.536C126.891 67.032 126.507 67.416 126.019 67.688C125.539 67.96 124.995 68.096 124.387 68.096ZM120.571 70.328V61.544H122.359V62.864L122.323 64.784L122.443 66.692V70.328H120.571ZM124.063 66.56C124.375 66.56 124.651 66.488 124.891 66.344C125.139 66.2 125.335 65.996 125.479 65.732C125.631 65.46 125.707 65.14 125.707 64.772C125.707 64.396 125.631 64.076 125.479 63.812C125.335 63.548 125.139 63.344 124.891 63.2C124.651 63.056 124.375 62.984 124.063 62.984C123.751 62.984 123.471 63.056 123.223 63.2C122.975 63.344 122.779 63.548 122.635 63.812C122.491 64.076 122.419 64.396 122.419 64.772C122.419 65.14 122.491 65.46 122.635 65.732C122.779 65.996 122.975 66.2 123.223 66.344C123.471 66.488 123.751 66.56 124.063 66.56ZM128.856 68V61.544H130.644V63.368L130.392 62.84C130.584 62.384 130.892 62.04 131.316 61.808C131.74 61.568 132.256 61.448 132.864 61.448V63.176C132.784 63.168 132.712 63.164 132.648 63.164C132.584 63.156 132.516 63.152 132.444 63.152C131.932 63.152 131.516 63.3 131.196 63.596C130.884 63.884 130.728 64.336 130.728 64.952V68H128.856ZM137.134 68.096C136.398 68.096 135.75 67.952 135.19 67.664C134.638 67.376 134.21 66.984 133.906 66.488C133.602 65.984 133.45 65.412 133.45 64.772C133.45 64.124 133.598 63.552 133.894 63.056C134.198 62.552 134.61 62.16 135.13 61.88C135.65 61.592 136.238 61.448 136.894 61.448C137.526 61.448 138.094 61.584 138.598 61.856C139.11 62.12 139.514 62.504 139.81 63.008C140.106 63.504 140.254 64.1 140.254 64.796C140.254 64.868 140.25 64.952 140.242 65.048C140.234 65.136 140.226 65.22 140.218 65.3H134.974V64.208H139.234L138.514 64.532C138.514 64.196 138.446 63.904 138.31 63.656C138.174 63.408 137.986 63.216 137.746 63.08C137.506 62.936 137.226 62.864 136.906 62.864C136.586 62.864 136.302 62.936 136.054 63.08C135.814 63.216 135.626 63.412 135.49 63.668C135.354 63.916 135.286 64.212 135.286 64.556V64.844C135.286 65.196 135.362 65.508 135.514 65.78C135.674 66.044 135.894 66.248 136.174 66.392C136.462 66.528 136.798 66.596 137.182 66.596C137.526 66.596 137.826 66.544 138.082 66.44C138.346 66.336 138.586 66.18 138.802 65.972L139.798 67.052C139.502 67.388 139.13 67.648 138.682 67.832C138.234 68.008 137.718 68.096 137.134 68.096ZM143.673 68.096C143.121 68.096 142.589 68.032 142.077 67.904C141.573 67.768 141.173 67.6 140.877 67.4L141.501 66.056C141.797 66.24 142.145 66.392 142.545 66.512C142.953 66.624 143.353 66.68 143.745 66.68C144.177 66.68 144.481 66.628 144.657 66.524C144.841 66.42 144.933 66.276 144.933 66.092C144.933 65.94 144.861 65.828 144.717 65.756C144.581 65.676 144.397 65.616 144.165 65.576C143.933 65.536 143.677 65.496 143.397 65.456C143.125 65.416 142.849 65.364 142.569 65.3C142.289 65.228 142.033 65.124 141.801 64.988C141.569 64.852 141.381 64.668 141.237 64.436C141.101 64.204 141.033 63.904 141.033 63.536C141.033 63.128 141.149 62.768 141.381 62.456C141.621 62.144 141.965 61.9 142.413 61.724C142.861 61.54 143.397 61.448 144.021 61.448C144.461 61.448 144.909 61.496 145.365 61.592C145.821 61.688 146.201 61.828 146.505 62.012L145.881 63.344C145.569 63.16 145.253 63.036 144.933 62.972C144.621 62.9 144.317 62.864 144.021 62.864C143.605 62.864 143.301 62.92 143.109 63.032C142.917 63.144 142.821 63.288 142.821 63.464C142.821 63.624 142.889 63.744 143.025 63.824C143.169 63.904 143.357 63.968 143.589 64.016C143.821 64.064 144.073 64.108 144.345 64.148C144.625 64.18 144.905 64.232 145.185 64.304C145.465 64.376 145.717 64.48 145.941 64.616C146.173 64.744 146.361 64.924 146.505 65.156C146.649 65.38 146.721 65.676 146.721 66.044C146.721 66.444 146.601 66.8 146.361 67.112C146.121 67.416 145.773 67.656 145.317 67.832C144.869 68.008 144.321 68.096 143.673 68.096ZM150.048 68.096C149.496 68.096 148.964 68.032 148.452 67.904C147.948 67.768 147.548 67.6 147.252 67.4L147.876 66.056C148.172 66.24 148.52 66.392 148.92 66.512C149.328 66.624 149.728 66.68 150.12 66.68C150.552 66.68 150.856 66.628 151.032 66.524C151.216 66.42 151.308 66.276 151.308 66.092C151.308 65.94 151.236 65.828 151.092 65.756C150.956 65.676 150.772 65.616 150.54 65.576C150.308 65.536 150.052 65.496 149.772 65.456C149.5 65.416 149.224 65.364 148.944 65.3C148.664 65.228 148.408 65.124 148.176 64.988C147.944 64.852 147.756 64.668 147.612 64.436C147.476 64.204 147.408 63.904 147.408 63.536C147.408 63.128 147.524 62.768 147.756 62.456C147.996 62.144 148.34 61.9 148.788 61.724C149.236 61.54 149.772 61.448 150.396 61.448C150.836 61.448 151.284 61.496 151.74 61.592C152.196 61.688 152.576 61.828 152.88 62.012L152.256 63.344C151.944 63.16 151.628 63.036 151.308 62.972C150.996 62.9 150.692 62.864 150.396 62.864C149.98 62.864 149.676 62.92 149.484 63.032C149.292 63.144 149.196 63.288 149.196 63.464C149.196 63.624 149.264 63.744 149.4 63.824C149.544 63.904 149.732 63.968 149.964 64.016C150.196 64.064 150.448 64.108 150.72 64.148C151 64.18 151.28 64.232 151.56 64.304C151.84 64.376 152.092 64.48 152.316 64.616C152.548 64.744 152.736 64.924 152.88 65.156C153.024 65.38 153.096 65.676 153.096 66.044C153.096 66.444 152.976 66.8 152.736 67.112C152.496 67.416 152.148 67.656 151.692 67.832C151.244 68.008 150.696 68.096 150.048 68.096ZM159.821 68.096C159.269 68.096 158.737 68.032 158.225 67.904C157.721 67.768 157.321 67.6 157.025 67.4L157.649 66.056C157.945 66.24 158.293 66.392 158.693 66.512C159.101 66.624 159.501 66.68 159.893 66.68C160.325 66.68 160.629 66.628 160.805 66.524C160.989 66.42 161.081 66.276 161.081 66.092C161.081 65.94 161.009 65.828 160.865 65.756C160.729 65.676 160.545 65.616 160.313 65.576C160.081 65.536 159.825 65.496 159.545 65.456C159.273 65.416 158.997 65.364 158.717 65.3C158.437 65.228 158.181 65.124 157.949 64.988C157.717 64.852 157.529 64.668 157.385 64.436C157.249 64.204 157.181 63.904 157.181 63.536C157.181 63.128 157.297 62.768 157.529 62.456C157.769 62.144 158.113 61.9 158.561 61.724C159.009 61.54 159.545 61.448 160.169 61.448C160.609 61.448 161.057 61.496 161.513 61.592C161.969 61.688 162.349 61.828 162.653 62.012L162.029 63.344C161.717 63.16 161.401 63.036 161.081 62.972C160.769 62.9 160.465 62.864 160.169 62.864C159.753 62.864 159.449 62.92 159.257 63.032C159.065 63.144 158.969 63.288 158.969 63.464C158.969 63.624 159.037 63.744 159.173 63.824C159.317 63.904 159.505 63.968 159.737 64.016C159.969 64.064 160.221 64.108 160.493 64.148C160.773 64.18 161.053 64.232 161.333 64.304C161.613 64.376 161.865 64.48 162.089 64.616C162.321 64.744 162.509 64.924 162.653 65.156C162.797 65.38 162.869 65.676 162.869 66.044C162.869 66.444 162.749 66.8 162.509 67.112C162.269 67.416 161.921 67.656 161.465 67.832C161.017 68.008 160.469 68.096 159.821 68.096ZM166.664 68.096C165.904 68.096 165.312 67.904 164.888 67.52C164.464 67.128 164.252 66.548 164.252 65.78V60.116H166.124V65.756C166.124 66.028 166.196 66.24 166.34 66.392C166.484 66.536 166.68 66.608 166.928 66.608C167.224 66.608 167.476 66.528 167.684 66.368L168.188 67.688C167.996 67.824 167.764 67.928 167.492 68C167.228 68.064 166.952 68.096 166.664 68.096ZM163.256 63.128V61.688H167.732V63.128H163.256ZM173.199 68V66.74L173.079 66.464V64.208C173.079 63.808 172.955 63.496 172.707 63.272C172.467 63.048 172.095 62.936 171.591 62.936C171.247 62.936 170.907 62.992 170.571 63.104C170.243 63.208 169.963 63.352 169.731 63.536L169.059 62.228C169.411 61.98 169.835 61.788 170.331 61.652C170.827 61.516 171.331 61.448 171.843 61.448C172.827 61.448 173.591 61.68 174.135 62.144C174.679 62.608 174.951 63.332 174.951 64.316V68H173.199ZM171.231 68.096C170.727 68.096 170.295 68.012 169.935 67.844C169.575 67.668 169.299 67.432 169.107 67.136C168.915 66.84 168.819 66.508 168.819 66.14C168.819 65.756 168.911 65.42 169.095 65.132C169.287 64.844 169.587 64.62 169.995 64.46C170.403 64.292 170.935 64.208 171.591 64.208H173.307V65.3H171.795C171.355 65.3 171.051 65.372 170.883 65.516C170.723 65.66 170.643 65.84 170.643 66.056C170.643 66.296 170.735 66.488 170.919 66.632C171.111 66.768 171.371 66.836 171.699 66.836C172.011 66.836 172.291 66.764 172.539 66.62C172.787 66.468 172.967 66.248 173.079 65.96L173.367 66.824C173.231 67.24 172.983 67.556 172.623 67.772C172.263 67.988 171.799 68.096 171.231 68.096ZM176.645 68V61.544H178.433V63.368L178.181 62.84C178.373 62.384 178.681 62.04 179.105 61.808C179.529 61.568 180.045 61.448 180.653 61.448V63.176C180.573 63.168 180.501 63.164 180.437 63.164C180.373 63.156 180.305 63.152 180.233 63.152C179.721 63.152 179.305 63.3 178.985 63.596C178.673 63.884 178.517 64.336 178.517 64.952V68H176.645ZM184.629 68.096C183.869 68.096 183.277 67.904 182.853 67.52C182.429 67.128 182.217 66.548 182.217 65.78V60.116H184.089V65.756C184.089 66.028 184.161 66.24 184.305 66.392C184.449 66.536 184.645 66.608 184.893 66.608C185.189 66.608 185.441 66.528 185.649 66.368L186.153 67.688C185.961 67.824 185.729 67.928 185.457 68C185.193 68.064 184.917 68.096 184.629 68.096ZM181.221 63.128V61.688H185.697V63.128H181.221ZM194.418 68.096C193.85 68.096 193.362 67.976 192.954 67.736C192.546 67.496 192.234 67.132 192.018 66.644C191.802 66.148 191.694 65.524 191.694 64.772C191.694 64.012 191.806 63.388 192.03 62.9C192.262 62.412 192.582 62.048 192.99 61.808C193.398 61.568 193.874 61.448 194.418 61.448C195.026 61.448 195.57 61.584 196.05 61.856C196.538 62.128 196.922 62.512 197.202 63.008C197.49 63.504 197.634 64.092 197.634 64.772C197.634 65.444 197.49 66.028 197.202 66.524C196.922 67.02 196.538 67.408 196.05 67.688C195.57 67.96 195.026 68.096 194.418 68.096ZM190.602 68V59.096H192.474V62.852L192.354 64.76L192.39 66.68V68H190.602ZM194.094 66.56C194.406 66.56 194.682 66.488 194.922 66.344C195.17 66.2 195.366 65.996 195.51 65.732C195.662 65.46 195.738 65.14 195.738 64.772C195.738 64.396 195.662 64.076 195.51 63.812C195.366 63.548 195.17 63.344 194.922 63.2C194.682 63.056 194.406 62.984 194.094 62.984C193.782 62.984 193.502 63.056 193.254 63.2C193.006 63.344 192.81 63.548 192.666 63.812C192.522 64.076 192.45 64.396 192.45 64.772C192.45 65.14 192.522 65.46 192.666 65.732C192.81 65.996 193.006 66.2 193.254 66.344C193.502 66.488 193.782 66.56 194.094 66.56ZM201.611 68.096C201.075 68.096 200.595 67.992 200.171 67.784C199.755 67.576 199.431 67.26 199.199 66.836C198.967 66.404 198.851 65.856 198.851 65.192V61.544H200.723V64.916C200.723 65.452 200.835 65.848 201.059 66.104C201.291 66.352 201.615 66.476 202.031 66.476C202.319 66.476 202.575 66.416 202.799 66.296C203.023 66.168 203.199 65.976 203.327 65.72C203.455 65.456 203.519 65.128 203.519 64.736V61.544H205.391V68H203.615V66.224L203.939 66.74C203.723 67.188 203.403 67.528 202.979 67.76C202.563 67.984 202.107 68.096 201.611 68.096ZM209.766 68.096C209.006 68.096 208.414 67.904 207.99 67.52C207.566 67.128 207.354 66.548 207.354 65.78V60.116H209.226V65.756C209.226 66.028 209.298 66.24 209.442 66.392C209.586 66.536 209.782 66.608 210.03 66.608C210.326 66.608 210.578 66.528 210.786 66.368L211.29 67.688C211.098 67.824 210.866 67.928 210.594 68C210.33 68.064 210.054 68.096 209.766 68.096ZM206.358 63.128V61.688H210.834V63.128H206.358ZM214.84 68.096C214.08 68.096 213.488 67.904 213.064 67.52C212.64 67.128 212.428 66.548 212.428 65.78V60.116H214.3V65.756C214.3 66.028 214.372 66.24 214.516 66.392C214.66 66.536 214.856 66.608 215.104 66.608C215.4 66.608 215.652 66.528 215.86 66.368L216.364 67.688C216.172 67.824 215.94 67.928 215.668 68C215.404 68.064 215.128 68.096 214.84 68.096ZM211.432 63.128V61.688H215.908V63.128H211.432ZM220.288 68.096C219.6 68.096 218.988 67.952 218.452 67.664C217.924 67.376 217.504 66.984 217.192 66.488C216.888 65.984 216.736 65.412 216.736 64.772C216.736 64.124 216.888 63.552 217.192 63.056C217.504 62.552 217.924 62.16 218.452 61.88C218.988 61.592 219.6 61.448 220.288 61.448C220.968 61.448 221.576 61.592 222.112 61.88C222.648 62.16 223.068 62.548 223.372 63.044C223.676 63.54 223.828 64.116 223.828 64.772C223.828 65.412 223.676 65.984 223.372 66.488C223.068 66.984 222.648 67.376 222.112 67.664C221.576 67.952 220.968 68.096 220.288 68.096ZM220.288 66.56C220.6 66.56 220.88 66.488 221.128 66.344C221.376 66.2 221.572 65.996 221.716 65.732C221.86 65.46 221.932 65.14 221.932 64.772C221.932 64.396 221.86 64.076 221.716 63.812C221.572 63.548 221.376 63.344 221.128 63.2C220.88 63.056 220.6 62.984 220.288 62.984C219.976 62.984 219.696 63.056 219.448 63.2C219.2 63.344 219 63.548 218.848 63.812C218.704 64.076 218.632 64.396 218.632 64.772C218.632 65.14 218.704 65.46 218.848 65.732C219 65.996 219.2 66.2 219.448 66.344C219.696 66.488 219.976 66.56 220.288 66.56ZM229.003 61.448C229.515 61.448 229.971 61.552 230.371 61.76C230.779 61.96 231.099 62.272 231.331 62.696C231.563 63.112 231.679 63.648 231.679 64.304V68H229.807V64.592C229.807 64.072 229.691 63.688 229.459 63.44C229.235 63.192 228.915 63.068 228.499 63.068C228.203 63.068 227.935 63.132 227.695 63.26C227.463 63.38 227.279 63.568 227.143 63.824C227.015 64.08 226.951 64.408 226.951 64.808V68H225.079V61.544H226.867V63.332L226.531 62.792C226.763 62.36 227.095 62.028 227.527 61.796C227.959 61.564 228.451 61.448 229.003 61.448ZM234.084 68.096C233.764 68.096 233.488 67.988 233.256 67.772C233.032 67.548 232.92 67.264 232.92 66.92C232.92 66.576 233.032 66.3 233.256 66.092C233.488 65.876 233.764 65.768 234.084 65.768C234.412 65.768 234.688 65.876 234.912 66.092C235.136 66.3 235.248 66.576 235.248 66.92C235.248 67.264 235.136 67.548 234.912 67.772C234.688 67.988 234.412 68.096 234.084 68.096Z" fill="#333333"/>
</g>
<defs>
<filter id="filter0_d_10_3320" x="0" y="0" width="380" height="224" filterUnits="userSpaceOnUse" color-interpolation-filters="sRGB">
<feFlood flood-opacity="0" result="BackgroundImageFix"/>
<feColorMatrix in="SourceAlpha" type="matrix" values="0 0 0 0 0 0 0 0 0 0 0 0 0 0 0 0 0 0 127 0" result="hardAlpha"/>
<feOffset dy="4"/>
<feColorMatrix type="matrix" values="0 0 0 0 0 0 0 0 0 0 0 0 0 0 0 0 0 0 0.25 0"/>
<feBlend mode="normal" in2="BackgroundImageFix" result="effect1_dropShadow_10_3320"/>
<feBlend mode="normal" in="SourceGraphic" in2="effect1_dropShadow_10_3320" result="shape"/>
</filter>
</defs>
</svg>
