<svg width="380" height="224" viewBox="0 0 380 224" fill="none" xmlns="http://www.w3.org/2000/svg">
<g filter="url(#filter0_d_10_3120)">
<rect width="380" height="220" rx="20" fill="#F2F2F2"/>
<path fill-rule="evenodd" clip-rule="evenodd" d="M315 98.9846C315 87.9995 306 78.9922 295 78.9922C233.172 78.9922 208 78.9995 208 78.9995L200 86.9996H163L154 78.9993H119.147C108.147 78.9993 99.1467 87.9995 99.1467 98.9919C99.1467 98.9992 99.1467 99.0068 99.1467 99.0143C99.1467 110 108.147 119 119.147 119C135.71 119 154 119 154 119L163 127H200L208 119H295.147C306 119 315 110 315 99.0071C315 98.9995 315 99.4995 315 98.9846Z" fill="#30DCFF"/>
<path fill-rule="evenodd" clip-rule="evenodd" d="M315 98.9888C315 88 306 79 294.853 79C233.025 79 208 79.0001 208 79.0001L200 87H163L154 79.0001H119C108 79.0001 99 88.0001 99 98.9888C99 98.9962 99 99.0001 99 99.0001H104C104 89 111 84.0001 119 84.0001C133.664 84.0001 152 84 152 84L161 92H202L210 84H295C304 84 310 90 310 98.9998L315 99V98.9888Z" fill="white" fill-opacity="0.5"/>
<path fill-rule="evenodd" clip-rule="evenodd" d="M315 99L310 99C310 107.971 304.197 114 295 114C237.995 114 206 114 206 114L198 122H165L156 114H119C108.496 114 104 108 104 99.0015L99 99V99.0112C99 110 108 119 119 119C135.563 119 154 119 154 119L163 127H200L208 119H295C306 119 315 110 315 99Z" fill="black" fill-opacity="0.25"/>
<path d="M112.732 107.12C112.076 107.12 111.448 107.028 110.848 106.844C110.248 106.652 109.772 106.408 109.42 106.112L109.96 104.9C110.296 105.164 110.712 105.384 111.208 105.56C111.704 105.736 112.212 105.824 112.732 105.824C113.172 105.824 113.528 105.776 113.8 105.68C114.072 105.584 114.272 105.456 114.4 105.296C114.528 105.128 114.592 104.94 114.592 104.732C114.592 104.476 114.5 104.272 114.316 104.12C114.132 103.96 113.892 103.836 113.596 103.748C113.308 103.652 112.984 103.564 112.624 103.484C112.272 103.404 111.916 103.312 111.556 103.208C111.204 103.096 110.88 102.956 110.584 102.788C110.296 102.612 110.06 102.38 109.876 102.092C109.692 101.804 109.6 101.436 109.6 100.988C109.6 100.532 109.72 100.116 109.96 99.74C110.208 99.356 110.58 99.052 111.076 98.828C111.58 98.596 112.216 98.48 112.984 98.48C113.488 98.48 113.988 98.544 114.484 98.672C114.98 98.8 115.412 98.984 115.78 99.224L115.288 100.436C114.912 100.212 114.524 100.048 114.124 99.944C113.724 99.832 113.34 99.776 112.972 99.776C112.54 99.776 112.188 99.828 111.916 99.932C111.652 100.036 111.456 100.172 111.328 100.34C111.208 100.508 111.148 100.7 111.148 100.916C111.148 101.172 111.236 101.38 111.412 101.54C111.596 101.692 111.832 101.812 112.12 101.9C112.416 101.988 112.744 102.076 113.104 102.164C113.464 102.244 113.82 102.336 114.172 102.44C114.532 102.544 114.856 102.68 115.144 102.848C115.44 103.016 115.676 103.244 115.852 103.532C116.036 103.82 116.128 104.184 116.128 104.624C116.128 105.072 116.004 105.488 115.756 105.872C115.516 106.248 115.144 106.552 114.64 106.784C114.136 107.008 113.5 107.12 112.732 107.12ZM120.543 107.084C119.831 107.084 119.207 106.944 118.671 106.664C118.143 106.376 117.731 105.984 117.435 105.488C117.147 104.992 117.003 104.428 117.003 103.796C117.003 103.156 117.143 102.592 117.423 102.104C117.711 101.608 118.103 101.22 118.599 100.94C119.103 100.66 119.675 100.52 120.315 100.52C120.939 100.52 121.495 100.656 121.983 100.928C122.471 101.2 122.855 101.584 123.135 102.08C123.415 102.576 123.555 103.16 123.555 103.832C123.555 103.896 123.551 103.968 123.543 104.048C123.543 104.128 123.539 104.204 123.531 104.276H118.191V103.28H122.739L122.151 103.592C122.159 103.224 122.083 102.9 121.923 102.62C121.763 102.34 121.543 102.12 121.263 101.96C120.991 101.8 120.675 101.72 120.315 101.72C119.947 101.72 119.623 101.8 119.343 101.96C119.071 102.12 118.855 102.344 118.695 102.632C118.543 102.912 118.467 103.244 118.467 103.628V103.868C118.467 104.252 118.555 104.592 118.731 104.888C118.907 105.184 119.155 105.412 119.475 105.572C119.795 105.732 120.163 105.812 120.579 105.812C120.939 105.812 121.263 105.756 121.551 105.644C121.839 105.532 122.095 105.356 122.319 105.116L123.123 106.04C122.835 106.376 122.471 106.636 122.031 106.82C121.599 106.996 121.103 107.084 120.543 107.084ZM124.996 107V98.096H126.496V107H124.996ZM131.476 107.084C130.764 107.084 130.14 106.944 129.604 106.664C129.076 106.376 128.664 105.984 128.368 105.488C128.08 104.992 127.936 104.428 127.936 103.796C127.936 103.156 128.076 102.592 128.356 102.104C128.644 101.608 129.036 101.22 129.532 100.94C130.036 100.66 130.608 100.52 131.248 100.52C131.872 100.52 132.428 100.656 132.916 100.928C133.404 101.2 133.788 101.584 134.068 102.08C134.348 102.576 134.488 103.16 134.488 103.832C134.488 103.896 134.484 103.968 134.476 104.048C134.476 104.128 134.472 104.204 134.464 104.276H129.124V103.28H133.672L133.084 103.592C133.092 103.224 133.016 102.9 132.856 102.62C132.696 102.34 132.476 102.12 132.196 101.96C131.924 101.8 131.608 101.72 131.248 101.72C130.88 101.72 130.556 101.8 130.276 101.96C130.004 102.12 129.788 102.344 129.628 102.632C129.476 102.912 129.4 103.244 129.4 103.628V103.868C129.4 104.252 129.488 104.592 129.664 104.888C129.84 105.184 130.088 105.412 130.408 105.572C130.728 105.732 131.096 105.812 131.512 105.812C131.872 105.812 132.196 105.756 132.484 105.644C132.772 105.532 133.028 105.356 133.252 105.116L134.056 106.04C133.768 106.376 133.404 106.636 132.964 106.82C132.532 106.996 132.036 107.084 131.476 107.084ZM138.869 107.084C138.197 107.084 137.597 106.944 137.069 106.664C136.549 106.376 136.141 105.984 135.845 105.488C135.549 104.992 135.401 104.428 135.401 103.796C135.401 103.156 135.549 102.592 135.845 102.104C136.141 101.608 136.549 101.22 137.069 100.94C137.597 100.66 138.197 100.52 138.869 100.52C139.493 100.52 140.041 100.648 140.513 100.904C140.993 101.152 141.357 101.52 141.605 102.008L140.453 102.68C140.261 102.376 140.025 102.152 139.745 102.008C139.473 101.864 139.177 101.792 138.857 101.792C138.489 101.792 138.157 101.872 137.861 102.032C137.565 102.192 137.333 102.424 137.165 102.728C136.997 103.024 136.913 103.38 136.913 103.796C136.913 104.212 136.997 104.572 137.165 104.876C137.333 105.172 137.565 105.4 137.861 105.56C138.157 105.72 138.489 105.8 138.857 105.8C139.177 105.8 139.473 105.728 139.745 105.584C140.025 105.44 140.261 105.216 140.453 104.912L141.605 105.584C141.357 106.064 140.993 106.436 140.513 106.7C140.041 106.956 139.493 107.084 138.869 107.084ZM145.396 107.084C144.692 107.084 144.148 106.904 143.764 106.544C143.38 106.176 143.188 105.636 143.188 104.924V99.176H144.688V104.888C144.688 105.192 144.764 105.428 144.916 105.596C145.076 105.764 145.296 105.848 145.576 105.848C145.912 105.848 146.192 105.76 146.416 105.584L146.836 106.652C146.66 106.796 146.444 106.904 146.188 106.976C145.932 107.048 145.668 107.084 145.396 107.084ZM142.132 101.84V100.64H146.404V101.84H142.132ZM154.938 107.084C154.394 107.084 153.91 106.964 153.486 106.724C153.062 106.484 152.726 106.124 152.478 105.644C152.238 105.156 152.118 104.54 152.118 103.796C152.118 103.044 152.242 102.428 152.49 101.948C152.746 101.468 153.086 101.112 153.51 100.88C153.942 100.64 154.418 100.52 154.938 100.52C155.57 100.52 156.126 100.656 156.606 100.928C157.094 101.2 157.478 101.58 157.758 102.068C158.046 102.556 158.19 103.132 158.19 103.796C158.19 104.46 158.046 105.036 157.758 105.524C157.478 106.012 157.094 106.396 156.606 106.676C156.126 106.948 155.57 107.084 154.938 107.084ZM151.386 107V98.096H152.886V102.08L152.766 103.784L152.814 105.488V107H151.386ZM154.77 105.8C155.13 105.8 155.45 105.72 155.73 105.56C156.018 105.4 156.246 105.168 156.414 104.864C156.582 104.56 156.666 104.204 156.666 103.796C156.666 103.38 156.582 103.024 156.414 102.728C156.246 102.424 156.018 102.192 155.73 102.032C155.45 101.872 155.13 101.792 154.77 101.792C154.41 101.792 154.086 101.872 153.798 102.032C153.51 102.192 153.282 102.424 153.114 102.728C152.946 103.024 152.862 103.38 152.862 103.796C152.862 104.204 152.946 104.56 153.114 104.864C153.282 105.168 153.51 105.4 153.798 105.56C154.086 105.72 154.41 105.8 154.77 105.8ZM163.479 107V105.704L163.395 105.428V103.16C163.395 102.72 163.263 102.38 162.999 102.14C162.735 101.892 162.335 101.768 161.799 101.768C161.439 101.768 161.083 101.824 160.731 101.936C160.387 102.048 160.095 102.204 159.855 102.404L159.267 101.312C159.611 101.048 160.019 100.852 160.491 100.724C160.971 100.588 161.467 100.52 161.979 100.52C162.907 100.52 163.623 100.744 164.127 101.192C164.639 101.632 164.895 102.316 164.895 103.244V107H163.479ZM161.463 107.084C160.983 107.084 160.563 107.004 160.203 106.844C159.843 106.676 159.563 106.448 159.363 106.16C159.171 105.864 159.075 105.532 159.075 105.164C159.075 104.804 159.159 104.48 159.327 104.192C159.503 103.904 159.787 103.676 160.179 103.508C160.571 103.34 161.091 103.256 161.739 103.256H163.599V104.252H161.847C161.335 104.252 160.991 104.336 160.815 104.504C160.639 104.664 160.551 104.864 160.551 105.104C160.551 105.376 160.659 105.592 160.875 105.752C161.091 105.912 161.391 105.992 161.775 105.992C162.143 105.992 162.471 105.908 162.759 105.74C163.055 105.572 163.267 105.324 163.395 104.996L163.647 105.896C163.503 106.272 163.243 106.564 162.867 106.772C162.499 106.98 162.031 107.084 161.463 107.084ZM169.772 107.084C169.1 107.084 168.5 106.944 167.972 106.664C167.452 106.376 167.044 105.984 166.748 105.488C166.452 104.992 166.304 104.428 166.304 103.796C166.304 103.156 166.452 102.592 166.748 102.104C167.044 101.608 167.452 101.22 167.972 100.94C168.5 100.66 169.1 100.52 169.772 100.52C170.396 100.52 170.944 100.648 171.416 100.904C171.896 101.152 172.26 101.52 172.508 102.008L171.356 102.68C171.164 102.376 170.928 102.152 170.648 102.008C170.376 101.864 170.08 101.792 169.76 101.792C169.392 101.792 169.06 101.872 168.764 102.032C168.468 102.192 168.236 102.424 168.068 102.728C167.9 103.024 167.816 103.38 167.816 103.796C167.816 104.212 167.9 104.572 168.068 104.876C168.236 105.172 168.468 105.4 168.764 105.56C169.06 105.72 169.392 105.8 169.76 105.8C170.08 105.8 170.376 105.728 170.648 105.584C170.928 105.44 171.164 105.216 171.356 104.912L172.508 105.584C172.26 106.064 171.896 106.436 171.416 106.7C170.944 106.956 170.396 107.084 169.772 107.084ZM174.97 105.572L175.006 103.688L178.354 100.592H180.154L177.31 103.448L176.518 104.108L174.97 105.572ZM173.746 107V98.096H175.246V107H173.746ZM178.582 107L176.242 104.108L177.19 102.908L180.406 107H178.582ZM184.021 109.412C183.429 109.412 182.849 109.332 182.281 109.172C181.721 109.02 181.261 108.796 180.901 108.5L181.573 107.372C181.853 107.604 182.205 107.788 182.629 107.924C183.061 108.068 183.497 108.14 183.937 108.14C184.641 108.14 185.157 107.976 185.485 107.648C185.813 107.328 185.977 106.844 185.977 106.196V105.056L186.097 103.604L186.049 102.152V100.592H187.477V106.028C187.477 107.188 187.181 108.04 186.589 108.584C185.997 109.136 185.141 109.412 184.021 109.412ZM183.829 106.712C183.221 106.712 182.669 106.584 182.173 106.328C181.685 106.064 181.297 105.7 181.009 105.236C180.729 104.772 180.589 104.228 180.589 103.604C180.589 102.988 180.729 102.448 181.009 101.984C181.297 101.52 181.685 101.16 182.173 100.904C182.669 100.648 183.221 100.52 183.829 100.52C184.373 100.52 184.861 100.628 185.293 100.844C185.725 101.06 186.069 101.396 186.325 101.852C186.589 102.308 186.721 102.892 186.721 103.604C186.721 104.316 186.589 104.904 186.325 105.368C186.069 105.824 185.725 106.164 185.293 106.388C184.861 106.604 184.373 106.712 183.829 106.712ZM184.057 105.44C184.433 105.44 184.769 105.364 185.065 105.212C185.361 105.052 185.589 104.836 185.749 104.564C185.917 104.284 186.001 103.964 186.001 103.604C186.001 103.244 185.917 102.928 185.749 102.656C185.589 102.376 185.361 102.164 185.065 102.02C184.769 101.868 184.433 101.792 184.057 101.792C183.681 101.792 183.341 101.868 183.037 102.02C182.741 102.164 182.509 102.376 182.341 102.656C182.181 102.928 182.101 103.244 182.101 103.604C182.101 103.964 182.181 104.284 182.341 104.564C182.509 104.836 182.741 105.052 183.037 105.212C183.341 105.364 183.681 105.44 184.057 105.44ZM189.449 107V100.592H190.877V102.356L190.709 101.84C190.901 101.408 191.201 101.08 191.609 100.856C192.025 100.632 192.541 100.52 193.157 100.52V101.948C193.093 101.932 193.033 101.924 192.977 101.924C192.921 101.916 192.865 101.912 192.809 101.912C192.241 101.912 191.789 102.08 191.453 102.416C191.117 102.744 190.949 103.236 190.949 103.892V107H189.449ZM197.251 107.084C196.595 107.084 196.011 106.944 195.499 106.664C194.987 106.376 194.583 105.984 194.287 105.488C193.991 104.992 193.843 104.428 193.843 103.796C193.843 103.156 193.991 102.592 194.287 102.104C194.583 101.608 194.987 101.22 195.499 100.94C196.011 100.66 196.595 100.52 197.251 100.52C197.915 100.52 198.503 100.66 199.015 100.94C199.535 101.22 199.939 101.604 200.227 102.092C200.523 102.58 200.671 103.148 200.671 103.796C200.671 104.428 200.523 104.992 200.227 105.488C199.939 105.984 199.535 106.376 199.015 106.664C198.503 106.944 197.915 107.084 197.251 107.084ZM197.251 105.8C197.619 105.8 197.947 105.72 198.235 105.56C198.523 105.4 198.747 105.168 198.907 104.864C199.075 104.56 199.159 104.204 199.159 103.796C199.159 103.38 199.075 103.024 198.907 102.728C198.747 102.424 198.523 102.192 198.235 102.032C197.947 101.872 197.623 101.792 197.263 101.792C196.895 101.792 196.567 101.872 196.279 102.032C195.999 102.192 195.775 102.424 195.607 102.728C195.439 103.024 195.355 103.38 195.355 103.796C195.355 104.204 195.439 104.56 195.607 104.864C195.775 105.168 195.999 105.4 196.279 105.56C196.567 105.72 196.891 105.8 197.251 105.8ZM204.817 107.084C204.273 107.084 203.793 106.984 203.377 106.784C202.961 106.576 202.637 106.264 202.405 105.848C202.173 105.424 202.057 104.892 202.057 104.252V100.592H203.557V104.048C203.557 104.624 203.685 105.056 203.941 105.344C204.205 105.624 204.577 105.764 205.057 105.764C205.409 105.764 205.713 105.692 205.969 105.548C206.233 105.404 206.437 105.188 206.581 104.9C206.733 104.612 206.809 104.256 206.809 103.832V100.592H208.309V107H206.881V105.272L207.133 105.8C206.917 106.216 206.601 106.536 206.185 106.76C205.769 106.976 205.313 107.084 204.817 107.084ZM213.909 100.52C214.421 100.52 214.877 100.62 215.277 100.82C215.685 101.02 216.005 101.328 216.237 101.744C216.469 102.152 216.585 102.68 216.585 103.328V107H215.085V103.52C215.085 102.952 214.949 102.528 214.677 102.248C214.413 101.968 214.041 101.828 213.561 101.828C213.209 101.828 212.897 101.9 212.625 102.044C212.353 102.188 212.141 102.404 211.989 102.692C211.845 102.972 211.773 103.328 211.773 103.76V107H210.273V100.592H211.701V102.32L211.449 101.792C211.673 101.384 211.997 101.072 212.421 100.856C212.853 100.632 213.349 100.52 213.909 100.52ZM221.212 107.084C220.596 107.084 220.04 106.948 219.544 106.676C219.056 106.396 218.672 106.012 218.392 105.524C218.112 105.036 217.972 104.46 217.972 103.796C217.972 103.132 218.112 102.556 218.392 102.068C218.672 101.58 219.056 101.2 219.544 100.928C220.04 100.656 220.596 100.52 221.212 100.52C221.748 100.52 222.228 100.64 222.652 100.88C223.076 101.112 223.412 101.468 223.66 101.948C223.908 102.428 224.032 103.044 224.032 103.796C224.032 104.54 223.912 105.156 223.672 105.644C223.432 106.124 223.1 106.484 222.676 106.724C222.252 106.964 221.764 107.084 221.212 107.084ZM221.392 105.8C221.752 105.8 222.072 105.72 222.352 105.56C222.64 105.4 222.868 105.168 223.036 104.864C223.212 104.56 223.3 104.204 223.3 103.796C223.3 103.38 223.212 103.024 223.036 102.728C222.868 102.424 222.64 102.192 222.352 102.032C222.072 101.872 221.752 101.792 221.392 101.792C221.032 101.792 220.708 101.872 220.42 102.032C220.14 102.192 219.912 102.424 219.736 102.728C219.568 103.024 219.484 103.38 219.484 103.796C219.484 104.204 219.568 104.56 219.736 104.864C219.912 105.168 220.14 105.4 220.42 105.56C220.708 105.72 221.032 105.8 221.392 105.8ZM223.336 107V105.488L223.396 103.784L223.276 102.08V98.096H224.764V107H223.336Z" fill="#333333"/>
<path fill-rule="evenodd" clip-rule="evenodd" d="M315 137.985C315 127 306 117.992 295 117.992C233.172 117.992 208 118 208 118L200 126H163L154 117.999H119.147C108.147 117.999 99.1467 127 99.1467 137.992C99.1467 137.999 99.1467 138.007 99.1467 138.014C99.1467 149 108.147 158 119.147 158C135.71 158 154 158 154 158L163 166H200L208 158H295.147C306 158 315 149 315 138.007C315 138 315 138.5 315 137.985Z" fill="#30DCFF"/>
<path fill-rule="evenodd" clip-rule="evenodd" d="M315 137.989C315 127 306 118 294.853 118C233.025 118 208 118 208 118L200 126H163L154 118H119C108 118 99 127 99 137.989C99 137.996 99 138 99 138H104C104 128 111 123 119 123C133.664 123 152 123 152 123L161 131H202L210 123H295C304 123 310 129 310 138L315 138V137.989Z" fill="white" fill-opacity="0.5"/>
<path fill-rule="evenodd" clip-rule="evenodd" d="M315 138L310 138C310 146.971 304.197 153 295 153C237.995 153 206 153 206 153L198 161H165L156 153H119C108.496 153 104 147 104 138.001L99 138V138.011C99 149 108 158 119 158C135.563 158 154 158 154 158L163 166H200L208 158H295C306 158 315 149 315 138Z" fill="black" fill-opacity="0.25"/>
<path d="M110.128 146V137.6H113.584C114.328 137.6 114.964 137.72 115.492 137.96C116.028 138.2 116.44 138.544 116.728 138.992C117.016 139.44 117.16 139.972 117.16 140.588C117.16 141.204 117.016 141.736 116.728 142.184C116.44 142.624 116.028 142.964 115.492 143.204C114.964 143.436 114.328 143.552 113.584 143.552H110.992L111.688 142.844V146H110.128ZM115.624 146L113.5 142.952H115.168L117.304 146H115.624ZM111.688 143.012L110.992 142.268H113.512C114.2 142.268 114.716 142.12 115.06 141.824C115.412 141.528 115.588 141.116 115.588 140.588C115.588 140.052 115.412 139.64 115.06 139.352C114.716 139.064 114.2 138.92 113.512 138.92H110.992L111.688 138.152V143.012ZM121.773 146.084C121.061 146.084 120.437 145.944 119.901 145.664C119.373 145.376 118.961 144.984 118.665 144.488C118.377 143.992 118.233 143.428 118.233 142.796C118.233 142.156 118.373 141.592 118.653 141.104C118.941 140.608 119.333 140.22 119.829 139.94C120.333 139.66 120.905 139.52 121.545 139.52C122.169 139.52 122.725 139.656 123.213 139.928C123.701 140.2 124.085 140.584 124.365 141.08C124.645 141.576 124.785 142.16 124.785 142.832C124.785 142.896 124.781 142.968 124.773 143.048C124.773 143.128 124.769 143.204 124.761 143.276H119.421V142.28H123.969L123.381 142.592C123.389 142.224 123.313 141.9 123.153 141.62C122.993 141.34 122.773 141.12 122.493 140.96C122.221 140.8 121.905 140.72 121.545 140.72C121.177 140.72 120.853 140.8 120.573 140.96C120.301 141.12 120.085 141.344 119.925 141.632C119.773 141.912 119.697 142.244 119.697 142.628V142.868C119.697 143.252 119.785 143.592 119.961 143.888C120.137 144.184 120.385 144.412 120.705 144.572C121.025 144.732 121.393 144.812 121.809 144.812C122.169 144.812 122.493 144.756 122.781 144.644C123.069 144.532 123.325 144.356 123.549 144.116L124.353 145.04C124.065 145.376 123.701 145.636 123.261 145.82C122.829 145.996 122.333 146.084 121.773 146.084ZM134.314 139.52C134.826 139.52 135.278 139.62 135.67 139.82C136.07 140.02 136.382 140.328 136.606 140.744C136.83 141.152 136.942 141.68 136.942 142.328V146H135.442V142.52C135.442 141.952 135.318 141.528 135.07 141.248C134.822 140.968 134.466 140.828 134.002 140.828C133.674 140.828 133.382 140.9 133.126 141.044C132.878 141.188 132.682 141.4 132.538 141.68C132.402 141.96 132.334 142.316 132.334 142.748V146H130.834V142.52C130.834 141.952 130.71 141.528 130.462 141.248C130.214 140.968 129.858 140.828 129.394 140.828C129.066 140.828 128.774 140.9 128.518 141.044C128.27 141.188 128.074 141.4 127.93 141.68C127.794 141.96 127.726 142.316 127.726 142.748V146H126.226V139.592H127.654V141.296L127.402 140.792C127.618 140.376 127.93 140.06 128.338 139.844C128.754 139.628 129.226 139.52 129.754 139.52C130.354 139.52 130.874 139.668 131.314 139.964C131.762 140.26 132.058 140.708 132.202 141.308L131.614 141.104C131.822 140.624 132.166 140.24 132.646 139.952C133.126 139.664 133.682 139.52 134.314 139.52ZM141.751 146.084C141.095 146.084 140.511 145.944 139.999 145.664C139.487 145.376 139.083 144.984 138.787 144.488C138.491 143.992 138.343 143.428 138.343 142.796C138.343 142.156 138.491 141.592 138.787 141.104C139.083 140.608 139.487 140.22 139.999 139.94C140.511 139.66 141.095 139.52 141.751 139.52C142.415 139.52 143.003 139.66 143.515 139.94C144.035 140.22 144.439 140.604 144.727 141.092C145.023 141.58 145.171 142.148 145.171 142.796C145.171 143.428 145.023 143.992 144.727 144.488C144.439 144.984 144.035 145.376 143.515 145.664C143.003 145.944 142.415 146.084 141.751 146.084ZM141.751 144.8C142.119 144.8 142.447 144.72 142.735 144.56C143.023 144.4 143.247 144.168 143.407 143.864C143.575 143.56 143.659 143.204 143.659 142.796C143.659 142.38 143.575 142.024 143.407 141.728C143.247 141.424 143.023 141.192 142.735 141.032C142.447 140.872 142.123 140.792 141.763 140.792C141.395 140.792 141.067 140.872 140.779 141.032C140.499 141.192 140.275 141.424 140.107 141.728C139.939 142.024 139.855 142.38 139.855 142.796C139.855 143.204 139.939 143.56 140.107 143.864C140.275 144.168 140.499 144.4 140.779 144.56C141.067 144.72 141.391 144.8 141.751 144.8ZM148.133 146L145.385 139.592H146.945L149.309 145.244H148.541L150.989 139.592H152.429L149.681 146H148.133ZM156.203 146.084C155.491 146.084 154.867 145.944 154.331 145.664C153.803 145.376 153.391 144.984 153.095 144.488C152.807 143.992 152.663 143.428 152.663 142.796C152.663 142.156 152.803 141.592 153.083 141.104C153.371 140.608 153.763 140.22 154.259 139.94C154.763 139.66 155.335 139.52 155.975 139.52C156.599 139.52 157.155 139.656 157.643 139.928C158.131 140.2 158.515 140.584 158.795 141.08C159.075 141.576 159.215 142.16 159.215 142.832C159.215 142.896 159.211 142.968 159.203 143.048C159.203 143.128 159.199 143.204 159.191 143.276H153.851V142.28H158.399L157.811 142.592C157.819 142.224 157.743 141.9 157.583 141.62C157.423 141.34 157.203 141.12 156.923 140.96C156.651 140.8 156.335 140.72 155.975 140.72C155.607 140.72 155.283 140.8 155.003 140.96C154.731 141.12 154.515 141.344 154.355 141.632C154.203 141.912 154.127 142.244 154.127 142.628V142.868C154.127 143.252 154.215 143.592 154.391 143.888C154.567 144.184 154.815 144.412 155.135 144.572C155.455 144.732 155.823 144.812 156.239 144.812C156.599 144.812 156.923 144.756 157.211 144.644C157.499 144.532 157.755 144.356 157.979 144.116L158.783 145.04C158.495 145.376 158.131 145.636 157.691 145.82C157.259 145.996 156.763 146.084 156.203 146.084ZM167.524 146.084C166.98 146.084 166.496 145.964 166.072 145.724C165.648 145.484 165.312 145.124 165.064 144.644C164.824 144.156 164.704 143.54 164.704 142.796C164.704 142.044 164.828 141.428 165.076 140.948C165.332 140.468 165.672 140.112 166.096 139.88C166.528 139.64 167.004 139.52 167.524 139.52C168.156 139.52 168.712 139.656 169.192 139.928C169.68 140.2 170.064 140.58 170.344 141.068C170.632 141.556 170.776 142.132 170.776 142.796C170.776 143.46 170.632 144.036 170.344 144.524C170.064 145.012 169.68 145.396 169.192 145.676C168.712 145.948 168.156 146.084 167.524 146.084ZM163.972 146V137.096H165.472V141.08L165.352 142.784L165.4 144.488V146H163.972ZM167.356 144.8C167.716 144.8 168.036 144.72 168.316 144.56C168.604 144.4 168.832 144.168 169 143.864C169.168 143.56 169.252 143.204 169.252 142.796C169.252 142.38 169.168 142.024 169 141.728C168.832 141.424 168.604 141.192 168.316 141.032C168.036 140.872 167.716 140.792 167.356 140.792C166.996 140.792 166.672 140.872 166.384 141.032C166.096 141.192 165.868 141.424 165.7 141.728C165.532 142.024 165.448 142.38 165.448 142.796C165.448 143.204 165.532 143.56 165.7 143.864C165.868 144.168 166.096 144.4 166.384 144.56C166.672 144.72 166.996 144.8 167.356 144.8ZM176.065 146V144.704L175.981 144.428V142.16C175.981 141.72 175.849 141.38 175.585 141.14C175.321 140.892 174.921 140.768 174.385 140.768C174.025 140.768 173.669 140.824 173.317 140.936C172.973 141.048 172.681 141.204 172.441 141.404L171.853 140.312C172.197 140.048 172.605 139.852 173.077 139.724C173.557 139.588 174.053 139.52 174.565 139.52C175.493 139.52 176.209 139.744 176.713 140.192C177.225 140.632 177.481 141.316 177.481 142.244V146H176.065ZM174.049 146.084C173.569 146.084 173.149 146.004 172.789 145.844C172.429 145.676 172.149 145.448 171.949 145.16C171.757 144.864 171.661 144.532 171.661 144.164C171.661 143.804 171.745 143.48 171.913 143.192C172.089 142.904 172.373 142.676 172.765 142.508C173.157 142.34 173.677 142.256 174.325 142.256H176.185V143.252H174.433C173.921 143.252 173.577 143.336 173.401 143.504C173.225 143.664 173.137 143.864 173.137 144.104C173.137 144.376 173.245 144.592 173.461 144.752C173.677 144.912 173.977 144.992 174.361 144.992C174.729 144.992 175.057 144.908 175.345 144.74C175.641 144.572 175.853 144.324 175.981 143.996L176.233 144.896C176.089 145.272 175.829 145.564 175.453 145.772C175.085 145.98 174.617 146.084 174.049 146.084ZM182.358 146.084C181.686 146.084 181.086 145.944 180.558 145.664C180.038 145.376 179.63 144.984 179.334 144.488C179.038 143.992 178.89 143.428 178.89 142.796C178.89 142.156 179.038 141.592 179.334 141.104C179.63 140.608 180.038 140.22 180.558 139.94C181.086 139.66 181.686 139.52 182.358 139.52C182.982 139.52 183.53 139.648 184.002 139.904C184.482 140.152 184.846 140.52 185.094 141.008L183.942 141.68C183.75 141.376 183.514 141.152 183.234 141.008C182.962 140.864 182.666 140.792 182.346 140.792C181.978 140.792 181.646 140.872 181.35 141.032C181.054 141.192 180.822 141.424 180.654 141.728C180.486 142.024 180.402 142.38 180.402 142.796C180.402 143.212 180.486 143.572 180.654 143.876C180.822 144.172 181.054 144.4 181.35 144.56C181.646 144.72 181.978 144.8 182.346 144.8C182.666 144.8 182.962 144.728 183.234 144.584C183.514 144.44 183.75 144.216 183.942 143.912L185.094 144.584C184.846 145.064 184.482 145.436 184.002 145.7C183.53 145.956 182.982 146.084 182.358 146.084ZM187.556 144.572L187.592 142.688L190.94 139.592H192.74L189.896 142.448L189.104 143.108L187.556 144.572ZM186.332 146V137.096H187.832V146H186.332ZM191.168 146L188.828 143.108L189.776 141.908L192.992 146H191.168ZM196.607 148.412C196.015 148.412 195.435 148.332 194.867 148.172C194.307 148.02 193.847 147.796 193.487 147.5L194.159 146.372C194.439 146.604 194.791 146.788 195.215 146.924C195.647 147.068 196.083 147.14 196.523 147.14C197.227 147.14 197.743 146.976 198.071 146.648C198.399 146.328 198.563 145.844 198.563 145.196V144.056L198.683 142.604L198.635 141.152V139.592H200.063V145.028C200.063 146.188 199.767 147.04 199.175 147.584C198.583 148.136 197.727 148.412 196.607 148.412ZM196.415 145.712C195.807 145.712 195.255 145.584 194.759 145.328C194.271 145.064 193.883 144.7 193.595 144.236C193.315 143.772 193.175 143.228 193.175 142.604C193.175 141.988 193.315 141.448 193.595 140.984C193.883 140.52 194.271 140.16 194.759 139.904C195.255 139.648 195.807 139.52 196.415 139.52C196.959 139.52 197.447 139.628 197.879 139.844C198.311 140.06 198.655 140.396 198.911 140.852C199.175 141.308 199.307 141.892 199.307 142.604C199.307 143.316 199.175 143.904 198.911 144.368C198.655 144.824 198.311 145.164 197.879 145.388C197.447 145.604 196.959 145.712 196.415 145.712ZM196.643 144.44C197.019 144.44 197.355 144.364 197.651 144.212C197.947 144.052 198.175 143.836 198.335 143.564C198.503 143.284 198.587 142.964 198.587 142.604C198.587 142.244 198.503 141.928 198.335 141.656C198.175 141.376 197.947 141.164 197.651 141.02C197.355 140.868 197.019 140.792 196.643 140.792C196.267 140.792 195.927 140.868 195.623 141.02C195.327 141.164 195.095 141.376 194.927 141.656C194.767 141.928 194.687 142.244 194.687 142.604C194.687 142.964 194.767 143.284 194.927 143.564C195.095 143.836 195.327 144.052 195.623 144.212C195.927 144.364 196.267 144.44 196.643 144.44ZM202.035 146V139.592H203.463V141.356L203.295 140.84C203.487 140.408 203.787 140.08 204.195 139.856C204.611 139.632 205.127 139.52 205.743 139.52V140.948C205.679 140.932 205.619 140.924 205.563 140.924C205.507 140.916 205.451 140.912 205.395 140.912C204.827 140.912 204.375 141.08 204.039 141.416C203.703 141.744 203.535 142.236 203.535 142.892V146H202.035ZM209.837 146.084C209.181 146.084 208.597 145.944 208.085 145.664C207.573 145.376 207.169 144.984 206.873 144.488C206.577 143.992 206.429 143.428 206.429 142.796C206.429 142.156 206.577 141.592 206.873 141.104C207.169 140.608 207.573 140.22 208.085 139.94C208.597 139.66 209.181 139.52 209.837 139.52C210.501 139.52 211.089 139.66 211.601 139.94C212.121 140.22 212.525 140.604 212.813 141.092C213.109 141.58 213.257 142.148 213.257 142.796C213.257 143.428 213.109 143.992 212.813 144.488C212.525 144.984 212.121 145.376 211.601 145.664C211.089 145.944 210.501 146.084 209.837 146.084ZM209.837 144.8C210.205 144.8 210.533 144.72 210.821 144.56C211.109 144.4 211.333 144.168 211.493 143.864C211.661 143.56 211.745 143.204 211.745 142.796C211.745 142.38 211.661 142.024 211.493 141.728C211.333 141.424 211.109 141.192 210.821 141.032C210.533 140.872 210.209 140.792 209.849 140.792C209.481 140.792 209.153 140.872 208.865 141.032C208.585 141.192 208.361 141.424 208.193 141.728C208.025 142.024 207.941 142.38 207.941 142.796C207.941 143.204 208.025 143.56 208.193 143.864C208.361 144.168 208.585 144.4 208.865 144.56C209.153 144.72 209.477 144.8 209.837 144.8ZM217.403 146.084C216.859 146.084 216.379 145.984 215.963 145.784C215.547 145.576 215.223 145.264 214.991 144.848C214.759 144.424 214.643 143.892 214.643 143.252V139.592H216.143V143.048C216.143 143.624 216.271 144.056 216.527 144.344C216.791 144.624 217.163 144.764 217.643 144.764C217.995 144.764 218.299 144.692 218.555 144.548C218.819 144.404 219.023 144.188 219.167 143.9C219.319 143.612 219.395 143.256 219.395 142.832V139.592H220.895V146H219.467V144.272L219.719 144.8C219.503 145.216 219.187 145.536 218.771 145.76C218.355 145.976 217.899 146.084 217.403 146.084ZM226.495 139.52C227.007 139.52 227.463 139.62 227.863 139.82C228.271 140.02 228.591 140.328 228.823 140.744C229.055 141.152 229.171 141.68 229.171 142.328V146H227.671V142.52C227.671 141.952 227.535 141.528 227.263 141.248C226.999 140.968 226.627 140.828 226.147 140.828C225.795 140.828 225.483 140.9 225.211 141.044C224.939 141.188 224.727 141.404 224.575 141.692C224.431 141.972 224.359 142.328 224.359 142.76V146H222.859V139.592H224.287V141.32L224.035 140.792C224.259 140.384 224.583 140.072 225.007 139.856C225.439 139.632 225.935 139.52 226.495 139.52ZM233.798 146.084C233.182 146.084 232.626 145.948 232.13 145.676C231.642 145.396 231.258 145.012 230.978 144.524C230.698 144.036 230.558 143.46 230.558 142.796C230.558 142.132 230.698 141.556 230.978 141.068C231.258 140.58 231.642 140.2 232.13 139.928C232.626 139.656 233.182 139.52 233.798 139.52C234.334 139.52 234.814 139.64 235.238 139.88C235.662 140.112 235.998 140.468 236.246 140.948C236.494 141.428 236.618 142.044 236.618 142.796C236.618 143.54 236.498 144.156 236.258 144.644C236.018 145.124 235.686 145.484 235.262 145.724C234.838 145.964 234.35 146.084 233.798 146.084ZM233.978 144.8C234.338 144.8 234.658 144.72 234.938 144.56C235.226 144.4 235.454 144.168 235.622 143.864C235.798 143.56 235.886 143.204 235.886 142.796C235.886 142.38 235.798 142.024 235.622 141.728C235.454 141.424 235.226 141.192 234.938 141.032C234.658 140.872 234.338 140.792 233.978 140.792C233.618 140.792 233.294 140.872 233.006 141.032C232.726 141.192 232.498 141.424 232.322 141.728C232.154 142.024 232.07 142.38 232.07 142.796C232.07 143.204 232.154 143.56 232.322 143.864C232.498 144.168 232.726 144.4 233.006 144.56C233.294 144.72 233.618 144.8 233.978 144.8ZM235.922 146V144.488L235.982 142.784L235.862 141.08V137.096H237.35V146H235.922Z" fill="#333333"/>
<path fill-rule="evenodd" clip-rule="evenodd" d="M315 177.985C315 167 306 157.992 295 157.992C233.172 157.992 208 158 208 158L200 166H163L154 157.999H119.147C108.147 157.999 99.1467 167 99.1467 177.992C99.1467 177.999 99.1467 178.007 99.1467 178.014C99.1467 189 108.147 198 119.147 198C135.71 198 154 198 154 198L163 206H200L208 198H295.147C306 198 315 189 315 178.007C315 178 315 178.5 315 177.985Z" fill="#30DCFF"/>
<path fill-rule="evenodd" clip-rule="evenodd" d="M315 177.989C315 167 306 158 294.853 158C233.025 158 208 158 208 158L200 166H163L154 158H119C108 158 99 167 99 177.989C99 177.996 99 178 99 178H104C104 168 111 163 119 163C133.664 163 152 163 152 163L161 171H202L210 163H295C304 163 310 169 310 178L315 178V177.989Z" fill="white" fill-opacity="0.5"/>
<path fill-rule="evenodd" clip-rule="evenodd" d="M315 178L310 178C310 186.971 304.197 193 295 193C237.995 193 206 193 206 193L198 201H165L156 193H119C108.496 193 104 187 104 178.001L99 178V178.011C99 189 108 198 119 198C135.563 198 154 198 154 198L163 206H200L208 198H295C306 198 315 189 315 178Z" fill="black" fill-opacity="0.25"/>
<path d="M108.94 186L112.72 177.6H114.256L118.048 186H116.416L113.164 178.428H113.788L110.548 186H108.94ZM110.68 184.056L111.1 182.832H115.636L116.056 184.056H110.68ZM121.626 186.084C121.01 186.084 120.454 185.948 119.958 185.676C119.47 185.396 119.086 185.012 118.806 184.524C118.526 184.036 118.386 183.46 118.386 182.796C118.386 182.132 118.526 181.556 118.806 181.068C119.086 180.58 119.47 180.2 119.958 179.928C120.454 179.656 121.01 179.52 121.626 179.52C122.162 179.52 122.642 179.64 123.066 179.88C123.49 180.112 123.826 180.468 124.074 180.948C124.322 181.428 124.446 182.044 124.446 182.796C124.446 183.54 124.326 184.156 124.086 184.644C123.846 185.124 123.514 185.484 123.09 185.724C122.666 185.964 122.178 186.084 121.626 186.084ZM121.806 184.8C122.166 184.8 122.486 184.72 122.766 184.56C123.054 184.4 123.282 184.168 123.45 183.864C123.626 183.56 123.714 183.204 123.714 182.796C123.714 182.38 123.626 182.024 123.45 181.728C123.282 181.424 123.054 181.192 122.766 181.032C122.486 180.872 122.166 180.792 121.806 180.792C121.446 180.792 121.122 180.872 120.834 181.032C120.554 181.192 120.326 181.424 120.15 181.728C119.982 182.024 119.898 182.38 119.898 182.796C119.898 183.204 119.982 183.56 120.15 183.864C120.326 184.168 120.554 184.4 120.834 184.56C121.122 184.72 121.446 184.8 121.806 184.8ZM123.75 186V184.488L123.81 182.784L123.69 181.08V177.096H125.178V186H123.75ZM129.864 186.084C129.248 186.084 128.692 185.948 128.196 185.676C127.708 185.396 127.324 185.012 127.044 184.524C126.764 184.036 126.624 183.46 126.624 182.796C126.624 182.132 126.764 181.556 127.044 181.068C127.324 180.58 127.708 180.2 128.196 179.928C128.692 179.656 129.248 179.52 129.864 179.52C130.4 179.52 130.88 179.64 131.304 179.88C131.728 180.112 132.064 180.468 132.312 180.948C132.56 181.428 132.684 182.044 132.684 182.796C132.684 183.54 132.564 184.156 132.324 184.644C132.084 185.124 131.752 185.484 131.328 185.724C130.904 185.964 130.416 186.084 129.864 186.084ZM130.044 184.8C130.404 184.8 130.724 184.72 131.004 184.56C131.292 184.4 131.52 184.168 131.688 183.864C131.864 183.56 131.952 183.204 131.952 182.796C131.952 182.38 131.864 182.024 131.688 181.728C131.52 181.424 131.292 181.192 131.004 181.032C130.724 180.872 130.404 180.792 130.044 180.792C129.684 180.792 129.36 180.872 129.072 181.032C128.792 181.192 128.564 181.424 128.388 181.728C128.22 182.024 128.136 182.38 128.136 182.796C128.136 183.204 128.22 183.56 128.388 183.864C128.564 184.168 128.792 184.4 129.072 184.56C129.36 184.72 129.684 184.8 130.044 184.8ZM131.988 186V184.488L132.048 182.784L131.928 181.08V177.096H133.416V186H131.988ZM142.343 179.52C142.855 179.52 143.311 179.62 143.711 179.82C144.119 180.02 144.439 180.328 144.671 180.744C144.903 181.152 145.019 181.68 145.019 182.328V186H143.519V182.52C143.519 181.952 143.383 181.528 143.111 181.248C142.847 180.968 142.475 180.828 141.995 180.828C141.643 180.828 141.331 180.9 141.059 181.044C140.787 181.188 140.575 181.404 140.423 181.692C140.279 181.972 140.207 182.328 140.207 182.76V186H138.707V179.592H140.135V181.32L139.883 180.792C140.107 180.384 140.431 180.072 140.855 179.856C141.287 179.632 141.783 179.52 142.343 179.52ZM149.945 186.084C149.233 186.084 148.609 185.944 148.073 185.664C147.545 185.376 147.133 184.984 146.837 184.488C146.549 183.992 146.405 183.428 146.405 182.796C146.405 182.156 146.545 181.592 146.825 181.104C147.113 180.608 147.505 180.22 148.001 179.94C148.505 179.66 149.077 179.52 149.717 179.52C150.341 179.52 150.897 179.656 151.385 179.928C151.873 180.2 152.257 180.584 152.537 181.08C152.817 181.576 152.957 182.16 152.957 182.832C152.957 182.896 152.953 182.968 152.945 183.048C152.945 183.128 152.941 183.204 152.933 183.276H147.593V182.28H152.141L151.553 182.592C151.561 182.224 151.485 181.9 151.325 181.62C151.165 181.34 150.945 181.12 150.665 180.96C150.393 180.8 150.077 180.72 149.717 180.72C149.349 180.72 149.025 180.8 148.745 180.96C148.473 181.12 148.257 181.344 148.097 181.632C147.945 181.912 147.869 182.244 147.869 182.628V182.868C147.869 183.252 147.957 183.592 148.133 183.888C148.309 184.184 148.557 184.412 148.877 184.572C149.197 184.732 149.565 184.812 149.981 184.812C150.341 184.812 150.665 184.756 150.953 184.644C151.241 184.532 151.497 184.356 151.721 184.116L152.525 185.04C152.237 185.376 151.873 185.636 151.433 185.82C151.001 185.996 150.505 186.084 149.945 186.084ZM155.697 186L153.345 179.592H154.761L156.777 185.244H156.105L158.217 179.592H159.477L161.529 185.244H160.869L162.945 179.592H164.277L161.913 186H160.473L158.601 180.996H159.045L157.137 186H155.697ZM172.177 186.084C171.633 186.084 171.149 185.964 170.725 185.724C170.301 185.484 169.965 185.124 169.717 184.644C169.477 184.156 169.357 183.54 169.357 182.796C169.357 182.044 169.481 181.428 169.729 180.948C169.985 180.468 170.325 180.112 170.749 179.88C171.181 179.64 171.657 179.52 172.177 179.52C172.809 179.52 173.365 179.656 173.845 179.928C174.333 180.2 174.717 180.58 174.997 181.068C175.285 181.556 175.429 182.132 175.429 182.796C175.429 183.46 175.285 184.036 174.997 184.524C174.717 185.012 174.333 185.396 173.845 185.676C173.365 185.948 172.809 186.084 172.177 186.084ZM168.625 186V177.096H170.125V181.08L170.005 182.784L170.053 184.488V186H168.625ZM172.009 184.8C172.369 184.8 172.689 184.72 172.969 184.56C173.257 184.4 173.485 184.168 173.653 183.864C173.821 183.56 173.905 183.204 173.905 182.796C173.905 182.38 173.821 182.024 173.653 181.728C173.485 181.424 173.257 181.192 172.969 181.032C172.689 180.872 172.369 180.792 172.009 180.792C171.649 180.792 171.325 180.872 171.037 181.032C170.749 181.192 170.521 181.424 170.353 181.728C170.185 182.024 170.101 182.38 170.101 182.796C170.101 183.204 170.185 183.56 170.353 183.864C170.521 184.168 170.749 184.4 171.037 184.56C171.325 184.72 171.649 184.8 172.009 184.8ZM180.717 186V184.704L180.633 184.428V182.16C180.633 181.72 180.501 181.38 180.237 181.14C179.973 180.892 179.573 180.768 179.037 180.768C178.677 180.768 178.321 180.824 177.969 180.936C177.625 181.048 177.333 181.204 177.093 181.404L176.505 180.312C176.849 180.048 177.257 179.852 177.729 179.724C178.209 179.588 178.705 179.52 179.217 179.52C180.145 179.52 180.861 179.744 181.365 180.192C181.877 180.632 182.133 181.316 182.133 182.244V186H180.717ZM178.701 186.084C178.221 186.084 177.801 186.004 177.441 185.844C177.081 185.676 176.801 185.448 176.601 185.16C176.409 184.864 176.313 184.532 176.313 184.164C176.313 183.804 176.397 183.48 176.565 183.192C176.741 182.904 177.025 182.676 177.417 182.508C177.809 182.34 178.329 182.256 178.977 182.256H180.837V183.252H179.085C178.573 183.252 178.229 183.336 178.053 183.504C177.877 183.664 177.789 183.864 177.789 184.104C177.789 184.376 177.897 184.592 178.113 184.752C178.329 184.912 178.629 184.992 179.013 184.992C179.381 184.992 179.709 184.908 179.997 184.74C180.293 184.572 180.505 184.324 180.633 183.996L180.885 184.896C180.741 185.272 180.481 185.564 180.105 185.772C179.737 185.98 179.269 186.084 178.701 186.084ZM187.01 186.084C186.338 186.084 185.738 185.944 185.21 185.664C184.69 185.376 184.282 184.984 183.986 184.488C183.69 183.992 183.542 183.428 183.542 182.796C183.542 182.156 183.69 181.592 183.986 181.104C184.282 180.608 184.69 180.22 185.21 179.94C185.738 179.66 186.338 179.52 187.01 179.52C187.634 179.52 188.182 179.648 188.654 179.904C189.134 180.152 189.498 180.52 189.746 181.008L188.594 181.68C188.402 181.376 188.166 181.152 187.886 181.008C187.614 180.864 187.318 180.792 186.998 180.792C186.63 180.792 186.298 180.872 186.002 181.032C185.706 181.192 185.474 181.424 185.306 181.728C185.138 182.024 185.054 182.38 185.054 182.796C185.054 183.212 185.138 183.572 185.306 183.876C185.474 184.172 185.706 184.4 186.002 184.56C186.298 184.72 186.63 184.8 186.998 184.8C187.318 184.8 187.614 184.728 187.886 184.584C188.166 184.44 188.402 184.216 188.594 183.912L189.746 184.584C189.498 185.064 189.134 185.436 188.654 185.7C188.182 185.956 187.634 186.084 187.01 186.084ZM192.208 184.572L192.244 182.688L195.592 179.592H197.392L194.548 182.448L193.756 183.108L192.208 184.572ZM190.984 186V177.096H192.484V186H190.984ZM195.82 186L193.48 183.108L194.428 181.908L197.644 186H195.82ZM201.259 188.412C200.667 188.412 200.087 188.332 199.519 188.172C198.959 188.02 198.499 187.796 198.139 187.5L198.811 186.372C199.091 186.604 199.443 186.788 199.867 186.924C200.299 187.068 200.735 187.14 201.175 187.14C201.879 187.14 202.395 186.976 202.723 186.648C203.051 186.328 203.215 185.844 203.215 185.196V184.056L203.335 182.604L203.287 181.152V179.592H204.715V185.028C204.715 186.188 204.419 187.04 203.827 187.584C203.235 188.136 202.379 188.412 201.259 188.412ZM201.067 185.712C200.459 185.712 199.907 185.584 199.411 185.328C198.923 185.064 198.535 184.7 198.247 184.236C197.967 183.772 197.827 183.228 197.827 182.604C197.827 181.988 197.967 181.448 198.247 180.984C198.535 180.52 198.923 180.16 199.411 179.904C199.907 179.648 200.459 179.52 201.067 179.52C201.611 179.52 202.099 179.628 202.531 179.844C202.963 180.06 203.307 180.396 203.563 180.852C203.827 181.308 203.959 181.892 203.959 182.604C203.959 183.316 203.827 183.904 203.563 184.368C203.307 184.824 202.963 185.164 202.531 185.388C202.099 185.604 201.611 185.712 201.067 185.712ZM201.295 184.44C201.671 184.44 202.007 184.364 202.303 184.212C202.599 184.052 202.827 183.836 202.987 183.564C203.155 183.284 203.239 182.964 203.239 182.604C203.239 182.244 203.155 181.928 202.987 181.656C202.827 181.376 202.599 181.164 202.303 181.02C202.007 180.868 201.671 180.792 201.295 180.792C200.919 180.792 200.579 180.868 200.275 181.02C199.979 181.164 199.747 181.376 199.579 181.656C199.419 181.928 199.339 182.244 199.339 182.604C199.339 182.964 199.419 183.284 199.579 183.564C199.747 183.836 199.979 184.052 200.275 184.212C200.579 184.364 200.919 184.44 201.295 184.44ZM206.687 186V179.592H208.115V181.356L207.947 180.84C208.139 180.408 208.439 180.08 208.847 179.856C209.263 179.632 209.779 179.52 210.395 179.52V180.948C210.331 180.932 210.271 180.924 210.215 180.924C210.159 180.916 210.103 180.912 210.047 180.912C209.479 180.912 209.027 181.08 208.691 181.416C208.355 181.744 208.187 182.236 208.187 182.892V186H206.687ZM214.489 186.084C213.833 186.084 213.249 185.944 212.737 185.664C212.225 185.376 211.821 184.984 211.525 184.488C211.229 183.992 211.081 183.428 211.081 182.796C211.081 182.156 211.229 181.592 211.525 181.104C211.821 180.608 212.225 180.22 212.737 179.94C213.249 179.66 213.833 179.52 214.489 179.52C215.153 179.52 215.741 179.66 216.253 179.94C216.773 180.22 217.177 180.604 217.465 181.092C217.761 181.58 217.909 182.148 217.909 182.796C217.909 183.428 217.761 183.992 217.465 184.488C217.177 184.984 216.773 185.376 216.253 185.664C215.741 185.944 215.153 186.084 214.489 186.084ZM214.489 184.8C214.857 184.8 215.185 184.72 215.473 184.56C215.761 184.4 215.985 184.168 216.145 183.864C216.313 183.56 216.397 183.204 216.397 182.796C216.397 182.38 216.313 182.024 216.145 181.728C215.985 181.424 215.761 181.192 215.473 181.032C215.185 180.872 214.861 180.792 214.501 180.792C214.133 180.792 213.805 180.872 213.517 181.032C213.237 181.192 213.013 181.424 212.845 181.728C212.677 182.024 212.593 182.38 212.593 182.796C212.593 183.204 212.677 183.56 212.845 183.864C213.013 184.168 213.237 184.4 213.517 184.56C213.805 184.72 214.129 184.8 214.489 184.8ZM222.055 186.084C221.511 186.084 221.031 185.984 220.615 185.784C220.199 185.576 219.875 185.264 219.643 184.848C219.411 184.424 219.295 183.892 219.295 183.252V179.592H220.795V183.048C220.795 183.624 220.923 184.056 221.179 184.344C221.443 184.624 221.815 184.764 222.295 184.764C222.647 184.764 222.951 184.692 223.207 184.548C223.471 184.404 223.675 184.188 223.819 183.9C223.971 183.612 224.047 183.256 224.047 182.832V179.592H225.547V186H224.119V184.272L224.371 184.8C224.155 185.216 223.839 185.536 223.423 185.76C223.007 185.976 222.551 186.084 222.055 186.084ZM231.147 179.52C231.659 179.52 232.115 179.62 232.515 179.82C232.923 180.02 233.243 180.328 233.475 180.744C233.707 181.152 233.823 181.68 233.823 182.328V186H232.323V182.52C232.323 181.952 232.187 181.528 231.915 181.248C231.651 180.968 231.279 180.828 230.799 180.828C230.447 180.828 230.135 180.9 229.863 181.044C229.591 181.188 229.379 181.404 229.227 181.692C229.083 181.972 229.011 182.328 229.011 182.76V186H227.511V179.592H228.939V181.32L228.687 180.792C228.911 180.384 229.235 180.072 229.659 179.856C230.091 179.632 230.587 179.52 231.147 179.52ZM238.45 186.084C237.834 186.084 237.278 185.948 236.782 185.676C236.294 185.396 235.91 185.012 235.63 184.524C235.35 184.036 235.21 183.46 235.21 182.796C235.21 182.132 235.35 181.556 235.63 181.068C235.91 180.58 236.294 180.2 236.782 179.928C237.278 179.656 237.834 179.52 238.45 179.52C238.986 179.52 239.466 179.64 239.89 179.88C240.314 180.112 240.65 180.468 240.898 180.948C241.146 181.428 241.27 182.044 241.27 182.796C241.27 183.54 241.15 184.156 240.91 184.644C240.67 185.124 240.338 185.484 239.914 185.724C239.49 185.964 239.002 186.084 238.45 186.084ZM238.63 184.8C238.99 184.8 239.31 184.72 239.59 184.56C239.878 184.4 240.106 184.168 240.274 183.864C240.45 183.56 240.538 183.204 240.538 182.796C240.538 182.38 240.45 182.024 240.274 181.728C240.106 181.424 239.878 181.192 239.59 181.032C239.31 180.872 238.99 180.792 238.63 180.792C238.27 180.792 237.946 180.872 237.658 181.032C237.378 181.192 237.15 181.424 236.974 181.728C236.806 182.024 236.722 182.38 236.722 182.796C236.722 183.204 236.806 183.56 236.974 183.864C237.15 184.168 237.378 184.4 237.658 184.56C237.946 184.72 238.27 184.8 238.63 184.8ZM240.574 186V184.488L240.634 182.784L240.514 181.08V177.096H242.002V186H240.574Z" fill="#333333"/>
<path fill-rule="evenodd" clip-rule="evenodd" d="M315 61C315 50 308 43 297 43C257.917 43 282.045 43 254 43C246.27 43 242.785 40.7635 238.5 36.5C229.193 27.8197 205.783 14 154.427 14C82.0243 14 65 43 65 43C65 43 65.0004 47.7195 65.0006 61C65.0006 71 73 79 83 79C109.488 79 154 79 154 79L163 87H200L208 79C208 79 242.031 79 297 79C308 79 315 72 315 61C315 62.8675 315 58.1323 315 61Z" fill="#FC79FF"/>
<path fill-rule="evenodd" clip-rule="evenodd" d="M310 61C310 69 306 74 297 74L206 74L198 82H165L156 74C156 74 108.393 74 83.0001 74C74.9643 74 70 68 70 61H65C65 71 73 79 83.0001 79C109.441 79 154 79 154 79L163.027 87H200L208 79L297 79C308 79 315 72 315 61C313.5 61 312 60.9999 310 61Z" fill="black" fill-opacity="0.25"/>
<path fill-rule="evenodd" clip-rule="evenodd" d="M65 61H70V45C70 45 84.993 19 154.286 19C201.342 19 225.557 31.6452 235.5 40C240.292 44.0301 246.712 47.9521 253 48C261.5 48 281.464 48 297 48C304.964 48 310 53.5 310 60V61H314H315C315 50 308 43 297 43C257.993 43 281.008 43 253 43C246 43 242.169 40.1595 238.214 36.2066C228.936 27.4998 205.571 14 154.268 14C81.9103 14 65 43 65 43L65 61Z" fill="white" fill-opacity="0.5"/>
<path d="M78.012 68L75.264 59.6H77.28L79.668 67.04H78.66L81.156 59.6H82.956L85.356 67.04H84.384L86.832 59.6H88.692L85.944 68H83.856L81.732 61.472H82.284L80.1 68H78.012ZM93.745 61.448C94.257 61.448 94.713 61.552 95.113 61.76C95.521 61.96 95.841 62.272 96.073 62.696C96.305 63.112 96.421 63.648 96.421 64.304V68H94.549V64.592C94.549 64.072 94.433 63.688 94.201 63.44C93.977 63.192 93.657 63.068 93.241 63.068C92.945 63.068 92.677 63.132 92.437 63.26C92.205 63.38 92.021 63.568 91.885 63.824C91.757 64.08 91.693 64.408 91.693 64.808V68H89.821V59.096H91.693V63.332L91.273 62.792C91.505 62.36 91.837 62.028 92.269 61.796C92.701 61.564 93.193 61.448 93.745 61.448ZM101.369 68.096C100.633 68.096 99.9848 67.952 99.4248 67.664C98.8728 67.376 98.4448 66.984 98.1408 66.488C97.8368 65.984 97.6848 65.412 97.6848 64.772C97.6848 64.124 97.8328 63.552 98.1288 63.056C98.4328 62.552 98.8448 62.16 99.3648 61.88C99.8848 61.592 100.473 61.448 101.129 61.448C101.761 61.448 102.329 61.584 102.833 61.856C103.345 62.12 103.749 62.504 104.045 63.008C104.341 63.504 104.489 64.1 104.489 64.796C104.489 64.868 104.485 64.952 104.477 65.048C104.469 65.136 104.461 65.22 104.453 65.3H99.2088V64.208H103.469L102.749 64.532C102.749 64.196 102.681 63.904 102.545 63.656C102.409 63.408 102.221 63.216 101.981 63.08C101.741 62.936 101.461 62.864 101.141 62.864C100.821 62.864 100.537 62.936 100.289 63.08C100.049 63.216 99.8608 63.412 99.7248 63.668C99.5888 63.916 99.5208 64.212 99.5208 64.556V64.844C99.5208 65.196 99.5968 65.508 99.7488 65.78C99.9088 66.044 100.129 66.248 100.409 66.392C100.697 66.528 101.033 66.596 101.417 66.596C101.761 66.596 102.061 66.544 102.317 66.44C102.581 66.336 102.821 66.18 103.037 65.972L104.033 67.052C103.737 67.388 103.365 67.648 102.917 67.832C102.469 68.008 101.953 68.096 101.369 68.096ZM109.659 61.448C110.171 61.448 110.627 61.552 111.027 61.76C111.435 61.96 111.755 62.272 111.987 62.696C112.219 63.112 112.335 63.648 112.335 64.304V68H110.463V64.592C110.463 64.072 110.347 63.688 110.115 63.44C109.891 63.192 109.571 63.068 109.155 63.068C108.859 63.068 108.591 63.132 108.351 63.26C108.119 63.38 107.935 63.568 107.799 63.824C107.671 64.08 107.607 64.408 107.607 64.808V68H105.735V61.544H107.523V63.332L107.187 62.792C107.419 62.36 107.751 62.028 108.183 61.796C108.615 61.564 109.107 61.448 109.659 61.448ZM114.74 63.788C114.42 63.788 114.144 63.68 113.912 63.464C113.688 63.24 113.576 62.956 113.576 62.612C113.576 62.268 113.688 61.992 113.912 61.784C114.144 61.568 114.42 61.46 114.74 61.46C115.068 61.46 115.344 61.568 115.568 61.784C115.792 61.992 115.904 62.268 115.904 62.612C115.904 62.956 115.792 63.24 115.568 63.464C115.344 63.68 115.068 63.788 114.74 63.788ZM114.74 68.096C114.42 68.096 114.144 67.988 113.912 67.772C113.688 67.548 113.576 67.264 113.576 66.92C113.576 66.576 113.688 66.3 113.912 66.092C114.144 65.876 114.42 65.768 114.74 65.768C115.068 65.768 115.344 65.876 115.568 66.092C115.792 66.3 115.904 66.576 115.904 66.92C115.904 67.264 115.792 67.548 115.568 67.772C115.344 67.988 115.068 68.096 114.74 68.096ZM124.387 68.096C123.843 68.096 123.367 67.976 122.959 67.736C122.551 67.496 122.231 67.132 121.999 66.644C121.775 66.148 121.663 65.524 121.663 64.772C121.663 64.012 121.771 63.388 121.987 62.9C122.203 62.412 122.515 62.048 122.923 61.808C123.331 61.568 123.819 61.448 124.387 61.448C124.995 61.448 125.539 61.588 126.019 61.868C126.507 62.14 126.891 62.524 127.171 63.02C127.459 63.516 127.603 64.1 127.603 64.772C127.603 65.452 127.459 66.04 127.171 66.536C126.891 67.032 126.507 67.416 126.019 67.688C125.539 67.96 124.995 68.096 124.387 68.096ZM120.571 70.328V61.544H122.359V62.864L122.323 64.784L122.443 66.692V70.328H120.571ZM124.063 66.56C124.375 66.56 124.651 66.488 124.891 66.344C125.139 66.2 125.335 65.996 125.479 65.732C125.631 65.46 125.707 65.14 125.707 64.772C125.707 64.396 125.631 64.076 125.479 63.812C125.335 63.548 125.139 63.344 124.891 63.2C124.651 63.056 124.375 62.984 124.063 62.984C123.751 62.984 123.471 63.056 123.223 63.2C122.975 63.344 122.779 63.548 122.635 63.812C122.491 64.076 122.419 64.396 122.419 64.772C122.419 65.14 122.491 65.46 122.635 65.732C122.779 65.996 122.975 66.2 123.223 66.344C123.471 66.488 123.751 66.56 124.063 66.56ZM128.856 68V61.544H130.644V63.368L130.392 62.84C130.584 62.384 130.892 62.04 131.316 61.808C131.74 61.568 132.256 61.448 132.864 61.448V63.176C132.784 63.168 132.712 63.164 132.648 63.164C132.584 63.156 132.516 63.152 132.444 63.152C131.932 63.152 131.516 63.3 131.196 63.596C130.884 63.884 130.728 64.336 130.728 64.952V68H128.856ZM137.134 68.096C136.398 68.096 135.75 67.952 135.19 67.664C134.638 67.376 134.21 66.984 133.906 66.488C133.602 65.984 133.45 65.412 133.45 64.772C133.45 64.124 133.598 63.552 133.894 63.056C134.198 62.552 134.61 62.16 135.13 61.88C135.65 61.592 136.238 61.448 136.894 61.448C137.526 61.448 138.094 61.584 138.598 61.856C139.11 62.12 139.514 62.504 139.81 63.008C140.106 63.504 140.254 64.1 140.254 64.796C140.254 64.868 140.25 64.952 140.242 65.048C140.234 65.136 140.226 65.22 140.218 65.3H134.974V64.208H139.234L138.514 64.532C138.514 64.196 138.446 63.904 138.31 63.656C138.174 63.408 137.986 63.216 137.746 63.08C137.506 62.936 137.226 62.864 136.906 62.864C136.586 62.864 136.302 62.936 136.054 63.08C135.814 63.216 135.626 63.412 135.49 63.668C135.354 63.916 135.286 64.212 135.286 64.556V64.844C135.286 65.196 135.362 65.508 135.514 65.78C135.674 66.044 135.894 66.248 136.174 66.392C136.462 66.528 136.798 66.596 137.182 66.596C137.526 66.596 137.826 66.544 138.082 66.44C138.346 66.336 138.586 66.18 138.802 65.972L139.798 67.052C139.502 67.388 139.13 67.648 138.682 67.832C138.234 68.008 137.718 68.096 137.134 68.096ZM143.673 68.096C143.121 68.096 142.589 68.032 142.077 67.904C141.573 67.768 141.173 67.6 140.877 67.4L141.501 66.056C141.797 66.24 142.145 66.392 142.545 66.512C142.953 66.624 143.353 66.68 143.745 66.68C144.177 66.68 144.481 66.628 144.657 66.524C144.841 66.42 144.933 66.276 144.933 66.092C144.933 65.94 144.861 65.828 144.717 65.756C144.581 65.676 144.397 65.616 144.165 65.576C143.933 65.536 143.677 65.496 143.397 65.456C143.125 65.416 142.849 65.364 142.569 65.3C142.289 65.228 142.033 65.124 141.801 64.988C141.569 64.852 141.381 64.668 141.237 64.436C141.101 64.204 141.033 63.904 141.033 63.536C141.033 63.128 141.149 62.768 141.381 62.456C141.621 62.144 141.965 61.9 142.413 61.724C142.861 61.54 143.397 61.448 144.021 61.448C144.461 61.448 144.909 61.496 145.365 61.592C145.821 61.688 146.201 61.828 146.505 62.012L145.881 63.344C145.569 63.16 145.253 63.036 144.933 62.972C144.621 62.9 144.317 62.864 144.021 62.864C143.605 62.864 143.301 62.92 143.109 63.032C142.917 63.144 142.821 63.288 142.821 63.464C142.821 63.624 142.889 63.744 143.025 63.824C143.169 63.904 143.357 63.968 143.589 64.016C143.821 64.064 144.073 64.108 144.345 64.148C144.625 64.18 144.905 64.232 145.185 64.304C145.465 64.376 145.717 64.48 145.941 64.616C146.173 64.744 146.361 64.924 146.505 65.156C146.649 65.38 146.721 65.676 146.721 66.044C146.721 66.444 146.601 66.8 146.361 67.112C146.121 67.416 145.773 67.656 145.317 67.832C144.869 68.008 144.321 68.096 143.673 68.096ZM150.048 68.096C149.496 68.096 148.964 68.032 148.452 67.904C147.948 67.768 147.548 67.6 147.252 67.4L147.876 66.056C148.172 66.24 148.52 66.392 148.92 66.512C149.328 66.624 149.728 66.68 150.12 66.68C150.552 66.68 150.856 66.628 151.032 66.524C151.216 66.42 151.308 66.276 151.308 66.092C151.308 65.94 151.236 65.828 151.092 65.756C150.956 65.676 150.772 65.616 150.54 65.576C150.308 65.536 150.052 65.496 149.772 65.456C149.5 65.416 149.224 65.364 148.944 65.3C148.664 65.228 148.408 65.124 148.176 64.988C147.944 64.852 147.756 64.668 147.612 64.436C147.476 64.204 147.408 63.904 147.408 63.536C147.408 63.128 147.524 62.768 147.756 62.456C147.996 62.144 148.34 61.9 148.788 61.724C149.236 61.54 149.772 61.448 150.396 61.448C150.836 61.448 151.284 61.496 151.74 61.592C152.196 61.688 152.576 61.828 152.88 62.012L152.256 63.344C151.944 63.16 151.628 63.036 151.308 62.972C150.996 62.9 150.692 62.864 150.396 62.864C149.98 62.864 149.676 62.92 149.484 63.032C149.292 63.144 149.196 63.288 149.196 63.464C149.196 63.624 149.264 63.744 149.4 63.824C149.544 63.904 149.732 63.968 149.964 64.016C150.196 64.064 150.448 64.108 150.72 64.148C151 64.18 151.28 64.232 151.56 64.304C151.84 64.376 152.092 64.48 152.316 64.616C152.548 64.744 152.736 64.924 152.88 65.156C153.024 65.38 153.096 65.676 153.096 66.044C153.096 66.444 152.976 66.8 152.736 67.112C152.496 67.416 152.148 67.656 151.692 67.832C151.244 68.008 150.696 68.096 150.048 68.096ZM159.821 68.096C159.269 68.096 158.737 68.032 158.225 67.904C157.721 67.768 157.321 67.6 157.025 67.4L157.649 66.056C157.945 66.24 158.293 66.392 158.693 66.512C159.101 66.624 159.501 66.68 159.893 66.68C160.325 66.68 160.629 66.628 160.805 66.524C160.989 66.42 161.081 66.276 161.081 66.092C161.081 65.94 161.009 65.828 160.865 65.756C160.729 65.676 160.545 65.616 160.313 65.576C160.081 65.536 159.825 65.496 159.545 65.456C159.273 65.416 158.997 65.364 158.717 65.3C158.437 65.228 158.181 65.124 157.949 64.988C157.717 64.852 157.529 64.668 157.385 64.436C157.249 64.204 157.181 63.904 157.181 63.536C157.181 63.128 157.297 62.768 157.529 62.456C157.769 62.144 158.113 61.9 158.561 61.724C159.009 61.54 159.545 61.448 160.169 61.448C160.609 61.448 161.057 61.496 161.513 61.592C161.969 61.688 162.349 61.828 162.653 62.012L162.029 63.344C161.717 63.16 161.401 63.036 161.081 62.972C160.769 62.9 160.465 62.864 160.169 62.864C159.753 62.864 159.449 62.92 159.257 63.032C159.065 63.144 158.969 63.288 158.969 63.464C158.969 63.624 159.037 63.744 159.173 63.824C159.317 63.904 159.505 63.968 159.737 64.016C159.969 64.064 160.221 64.108 160.493 64.148C160.773 64.18 161.053 64.232 161.333 64.304C161.613 64.376 161.865 64.48 162.089 64.616C162.321 64.744 162.509 64.924 162.653 65.156C162.797 65.38 162.869 65.676 162.869 66.044C162.869 66.444 162.749 66.8 162.509 67.112C162.269 67.416 161.921 67.656 161.465 67.832C161.017 68.008 160.469 68.096 159.821 68.096ZM166.664 68.096C165.904 68.096 165.312 67.904 164.888 67.52C164.464 67.128 164.252 66.548 164.252 65.78V60.116H166.124V65.756C166.124 66.028 166.196 66.24 166.34 66.392C166.484 66.536 166.68 66.608 166.928 66.608C167.224 66.608 167.476 66.528 167.684 66.368L168.188 67.688C167.996 67.824 167.764 67.928 167.492 68C167.228 68.064 166.952 68.096 166.664 68.096ZM163.256 63.128V61.688H167.732V63.128H163.256ZM173.199 68V66.74L173.079 66.464V64.208C173.079 63.808 172.955 63.496 172.707 63.272C172.467 63.048 172.095 62.936 171.591 62.936C171.247 62.936 170.907 62.992 170.571 63.104C170.243 63.208 169.963 63.352 169.731 63.536L169.059 62.228C169.411 61.98 169.835 61.788 170.331 61.652C170.827 61.516 171.331 61.448 171.843 61.448C172.827 61.448 173.591 61.68 174.135 62.144C174.679 62.608 174.951 63.332 174.951 64.316V68H173.199ZM171.231 68.096C170.727 68.096 170.295 68.012 169.935 67.844C169.575 67.668 169.299 67.432 169.107 67.136C168.915 66.84 168.819 66.508 168.819 66.14C168.819 65.756 168.911 65.42 169.095 65.132C169.287 64.844 169.587 64.62 169.995 64.46C170.403 64.292 170.935 64.208 171.591 64.208H173.307V65.3H171.795C171.355 65.3 171.051 65.372 170.883 65.516C170.723 65.66 170.643 65.84 170.643 66.056C170.643 66.296 170.735 66.488 170.919 66.632C171.111 66.768 171.371 66.836 171.699 66.836C172.011 66.836 172.291 66.764 172.539 66.62C172.787 66.468 172.967 66.248 173.079 65.96L173.367 66.824C173.231 67.24 172.983 67.556 172.623 67.772C172.263 67.988 171.799 68.096 171.231 68.096ZM176.645 68V61.544H178.433V63.368L178.181 62.84C178.373 62.384 178.681 62.04 179.105 61.808C179.529 61.568 180.045 61.448 180.653 61.448V63.176C180.573 63.168 180.501 63.164 180.437 63.164C180.373 63.156 180.305 63.152 180.233 63.152C179.721 63.152 179.305 63.3 178.985 63.596C178.673 63.884 178.517 64.336 178.517 64.952V68H176.645ZM184.629 68.096C183.869 68.096 183.277 67.904 182.853 67.52C182.429 67.128 182.217 66.548 182.217 65.78V60.116H184.089V65.756C184.089 66.028 184.161 66.24 184.305 66.392C184.449 66.536 184.645 66.608 184.893 66.608C185.189 66.608 185.441 66.528 185.649 66.368L186.153 67.688C185.961 67.824 185.729 67.928 185.457 68C185.193 68.064 184.917 68.096 184.629 68.096ZM181.221 63.128V61.688H185.697V63.128H181.221ZM194.418 68.096C193.85 68.096 193.362 67.976 192.954 67.736C192.546 67.496 192.234 67.132 192.018 66.644C191.802 66.148 191.694 65.524 191.694 64.772C191.694 64.012 191.806 63.388 192.03 62.9C192.262 62.412 192.582 62.048 192.99 61.808C193.398 61.568 193.874 61.448 194.418 61.448C195.026 61.448 195.57 61.584 196.05 61.856C196.538 62.128 196.922 62.512 197.202 63.008C197.49 63.504 197.634 64.092 197.634 64.772C197.634 65.444 197.49 66.028 197.202 66.524C196.922 67.02 196.538 67.408 196.05 67.688C195.57 67.96 195.026 68.096 194.418 68.096ZM190.602 68V59.096H192.474V62.852L192.354 64.76L192.39 66.68V68H190.602ZM194.094 66.56C194.406 66.56 194.682 66.488 194.922 66.344C195.17 66.2 195.366 65.996 195.51 65.732C195.662 65.46 195.738 65.14 195.738 64.772C195.738 64.396 195.662 64.076 195.51 63.812C195.366 63.548 195.17 63.344 194.922 63.2C194.682 63.056 194.406 62.984 194.094 62.984C193.782 62.984 193.502 63.056 193.254 63.2C193.006 63.344 192.81 63.548 192.666 63.812C192.522 64.076 192.45 64.396 192.45 64.772C192.45 65.14 192.522 65.46 192.666 65.732C192.81 65.996 193.006 66.2 193.254 66.344C193.502 66.488 193.782 66.56 194.094 66.56ZM201.611 68.096C201.075 68.096 200.595 67.992 200.171 67.784C199.755 67.576 199.431 67.26 199.199 66.836C198.967 66.404 198.851 65.856 198.851 65.192V61.544H200.723V64.916C200.723 65.452 200.835 65.848 201.059 66.104C201.291 66.352 201.615 66.476 202.031 66.476C202.319 66.476 202.575 66.416 202.799 66.296C203.023 66.168 203.199 65.976 203.327 65.72C203.455 65.456 203.519 65.128 203.519 64.736V61.544H205.391V68H203.615V66.224L203.939 66.74C203.723 67.188 203.403 67.528 202.979 67.76C202.563 67.984 202.107 68.096 201.611 68.096ZM209.766 68.096C209.006 68.096 208.414 67.904 207.99 67.52C207.566 67.128 207.354 66.548 207.354 65.78V60.116H209.226V65.756C209.226 66.028 209.298 66.24 209.442 66.392C209.586 66.536 209.782 66.608 210.03 66.608C210.326 66.608 210.578 66.528 210.786 66.368L211.29 67.688C211.098 67.824 210.866 67.928 210.594 68C210.33 68.064 210.054 68.096 209.766 68.096ZM206.358 63.128V61.688H210.834V63.128H206.358ZM214.84 68.096C214.08 68.096 213.488 67.904 213.064 67.52C212.64 67.128 212.428 66.548 212.428 65.78V60.116H214.3V65.756C214.3 66.028 214.372 66.24 214.516 66.392C214.66 66.536 214.856 66.608 215.104 66.608C215.4 66.608 215.652 66.528 215.86 66.368L216.364 67.688C216.172 67.824 215.94 67.928 215.668 68C215.404 68.064 215.128 68.096 214.84 68.096ZM211.432 63.128V61.688H215.908V63.128H211.432ZM220.288 68.096C219.6 68.096 218.988 67.952 218.452 67.664C217.924 67.376 217.504 66.984 217.192 66.488C216.888 65.984 216.736 65.412 216.736 64.772C216.736 64.124 216.888 63.552 217.192 63.056C217.504 62.552 217.924 62.16 218.452 61.88C218.988 61.592 219.6 61.448 220.288 61.448C220.968 61.448 221.576 61.592 222.112 61.88C222.648 62.16 223.068 62.548 223.372 63.044C223.676 63.54 223.828 64.116 223.828 64.772C223.828 65.412 223.676 65.984 223.372 66.488C223.068 66.984 222.648 67.376 222.112 67.664C221.576 67.952 220.968 68.096 220.288 68.096ZM220.288 66.56C220.6 66.56 220.88 66.488 221.128 66.344C221.376 66.2 221.572 65.996 221.716 65.732C221.86 65.46 221.932 65.14 221.932 64.772C221.932 64.396 221.86 64.076 221.716 63.812C221.572 63.548 221.376 63.344 221.128 63.2C220.88 63.056 220.6 62.984 220.288 62.984C219.976 62.984 219.696 63.056 219.448 63.2C219.2 63.344 219 63.548 218.848 63.812C218.704 64.076 218.632 64.396 218.632 64.772C218.632 65.14 218.704 65.46 218.848 65.732C219 65.996 219.2 66.2 219.448 66.344C219.696 66.488 219.976 66.56 220.288 66.56ZM229.003 61.448C229.515 61.448 229.971 61.552 230.371 61.76C230.779 61.96 231.099 62.272 231.331 62.696C231.563 63.112 231.679 63.648 231.679 64.304V68H229.807V64.592C229.807 64.072 229.691 63.688 229.459 63.44C229.235 63.192 228.915 63.068 228.499 63.068C228.203 63.068 227.935 63.132 227.695 63.26C227.463 63.38 227.279 63.568 227.143 63.824C227.015 64.08 226.951 64.408 226.951 64.808V68H225.079V61.544H226.867V63.332L226.531 62.792C226.763 62.36 227.095 62.028 227.527 61.796C227.959 61.564 228.451 61.448 229.003 61.448ZM234.084 68.096C233.764 68.096 233.488 67.988 233.256 67.772C233.032 67.548 232.92 67.264 232.92 66.92C232.92 66.576 233.032 66.3 233.256 66.092C233.488 65.876 233.764 65.768 234.084 65.768C234.412 65.768 234.688 65.876 234.912 66.092C235.136 66.3 235.248 66.576 235.248 66.92C235.248 67.264 235.136 67.548 234.912 67.772C234.688 67.988 234.412 68.096 234.084 68.096Z" fill="#333333"/>
</g>
<defs>
<filter id="filter0_d_10_3120" x="0" y="0" width="380" height="224" filterUnits="userSpaceOnUse" color-interpolation-filters="sRGB">
<feFlood flood-opacity="0" result="BackgroundImageFix"/>
<feColorMatrix in="SourceAlpha" type="matrix" values="0 0 0 0 0 0 0 0 0 0 0 0 0 0 0 0 0 0 127 0" result="hardAlpha"/>
<feOffset dy="4"/>
<feColorMatrix type="matrix" values="0 0 0 0 0 0 0 0 0 0 0 0 0 0 0 0 0 0 0.25 0"/>
<feBlend mode="normal" in2="BackgroundImageFix" result="effect1_dropShadow_10_3120"/>
<feBlend mode="normal" in="SourceGraphic" in2="effect1_dropShadow_10_3120" result="shape"/>
</filter>
</defs>
</svg>
