<svg width="580" height="580" viewBox="0 0 580 580" fill="none" xmlns="http://www.w3.org/2000/svg">
<path d="M360.823 381.262H219.022V461.085H360.823V381.262Z" fill="#3C3C3C"/>
<path d="M508.379 453.196H71.4556V469.073H508.379V453.196Z" fill="#5D5D5D"/>
<path d="M546.025 110.803H33.8074V397.157H546.025V110.803Z" fill="#212121"/>
<path d="M542.597 116.892H37.2236V391.126H542.597V116.892Z" fill="#E6E6E6"/>
<path d="M546.025 110.803H33.8074V184.564H546.025V110.803Z" fill="#0F7D40"/>
<path d="M537.207 194.065H42.6396V392.909H537.207V194.065Z" fill="white"/>
<path fill-rule="evenodd" clip-rule="evenodd" d="M200.066 248.184C200.066 247.543 199.547 247.024 198.906 247.024H76.7398C76.0994 247.024 75.5801 247.543 75.5801 248.184V275.234C75.5801 275.874 76.0994 276.394 76.7398 276.394H198.906C199.547 276.394 200.066 275.874 200.066 275.234V248.184ZM197.747 249.343V274.074H77.8995V249.343H197.747Z" fill="#D9D9D9"/>
<path fill-rule="evenodd" clip-rule="evenodd" d="M200.066 275.23C200.066 274.589 199.547 274.07 198.906 274.07H76.7398C76.0994 274.07 75.5801 274.589 75.5801 275.23V302.28C75.5801 302.92 76.0994 303.439 76.7398 303.439H198.906C199.547 303.439 200.066 302.92 200.066 302.28V275.23ZM197.747 276.389V301.12H77.8995V276.389H197.747Z" fill="#D9D9D9"/>
<path fill-rule="evenodd" clip-rule="evenodd" d="M200.066 302.275C200.066 301.635 199.547 301.116 198.906 301.116H76.7398C76.0994 301.116 75.5801 301.635 75.5801 302.275V329.326C75.5801 329.966 76.0994 330.485 76.7398 330.485H198.906C199.547 330.485 200.066 329.966 200.066 329.326V302.275ZM197.747 303.435V328.166H77.8995V303.435H197.747Z" fill="#D9D9D9"/>
<path fill-rule="evenodd" clip-rule="evenodd" d="M200.066 329.321C200.066 328.681 199.547 328.162 198.906 328.162H76.7398C76.0994 328.162 75.5801 328.681 75.5801 329.321V356.371C75.5801 357.012 76.0994 357.531 76.7398 357.531H198.906C199.547 357.531 200.066 357.012 200.066 356.371V329.321ZM197.747 330.481V355.212H77.8995V330.481H197.747Z" fill="#D9D9D9"/>
<path fill-rule="evenodd" clip-rule="evenodd" d="M200.066 356.367C200.066 355.727 199.547 355.208 198.906 355.208H76.7398C76.0994 355.208 75.5801 355.727 75.5801 356.367V383.417C75.5801 384.058 76.0994 384.577 76.7398 384.577H198.906C199.547 384.577 200.066 384.058 200.066 383.417V356.367ZM197.747 357.527V382.258H77.8995V357.527H197.747Z" fill="#D9D9D9"/>
<path fill-rule="evenodd" clip-rule="evenodd" d="M200.066 383.625C200.066 382.985 199.547 382.466 198.906 382.466H76.7398C76.0994 382.466 75.5801 382.985 75.5801 383.625V392.927C75.5801 393.568 76.0994 394.087 76.7398 394.087H198.906C199.547 394.087 200.066 393.568 200.066 392.927V383.625ZM197.747 384.785V391.768H77.8995V384.785H197.747Z" fill="#D9D9D9"/>
<path fill-rule="evenodd" clip-rule="evenodd" d="M322.091 221.138C322.091 220.497 321.572 219.978 320.932 219.978H198.765C198.125 219.978 197.605 220.497 197.605 221.138V248.188C197.605 248.828 198.125 249.348 198.765 249.348H320.932C321.572 249.348 322.091 248.828 322.091 248.188V221.138ZM319.772 222.297V247.028H199.925C199.925 247.028 199.925 222.297 199.925 222.297H319.772Z" fill="#D9D9D9"/>
<path fill-rule="evenodd" clip-rule="evenodd" d="M322.091 248.184C322.091 247.543 321.572 247.024 320.932 247.024H198.765C198.125 247.024 197.605 247.543 197.605 248.184V275.234C197.605 275.874 198.125 276.394 198.765 276.394H320.932C321.572 276.394 322.091 275.874 322.091 275.234V248.184ZM319.772 249.343V274.074H199.925V249.343H319.772Z" fill="#D9D9D9"/>
<path fill-rule="evenodd" clip-rule="evenodd" d="M322.091 275.23C322.091 274.589 321.572 274.07 320.932 274.07H198.765C198.125 274.07 197.605 274.589 197.605 275.23V302.28C197.605 302.92 198.125 303.439 198.765 303.439H320.932C321.572 303.439 322.091 302.92 322.091 302.28V275.23ZM319.772 276.389V301.12H199.925V276.389H319.772Z" fill="#D9D9D9"/>
<path fill-rule="evenodd" clip-rule="evenodd" d="M322.091 302.275C322.091 301.635 321.572 301.116 320.932 301.116H198.765C198.125 301.116 197.605 301.635 197.605 302.275V329.326C197.605 329.966 198.125 330.485 198.765 330.485H320.932C321.572 330.485 322.091 329.966 322.091 329.326V302.275ZM319.772 303.435V328.166H199.925V303.435H319.772Z" fill="#D9D9D9"/>
<path fill-rule="evenodd" clip-rule="evenodd" d="M322.091 329.321C322.091 328.681 321.572 328.162 320.932 328.162H198.765C198.125 328.162 197.605 328.681 197.605 329.321V356.371C197.605 357.012 198.125 357.531 198.765 357.531H320.932C321.572 357.531 322.091 357.012 322.091 356.371V329.321ZM319.772 330.481V355.212H199.925V330.481H319.772Z" fill="#D9D9D9"/>
<path fill-rule="evenodd" clip-rule="evenodd" d="M322.091 356.367C322.091 355.727 321.572 355.208 320.932 355.208H198.765C198.125 355.208 197.605 355.727 197.605 356.367V383.417C197.605 384.058 198.125 384.577 198.765 384.577H320.932C321.572 384.577 322.091 384.058 322.091 383.417V356.367ZM319.772 357.527V382.258H199.925V357.527H319.772Z" fill="#D9D9D9"/>
<path fill-rule="evenodd" clip-rule="evenodd" d="M322.091 383.625C322.091 382.985 321.572 382.466 320.932 382.466H198.765C198.125 382.466 197.605 382.985 197.605 383.625V392.927C197.605 393.568 198.125 394.087 198.765 394.087H320.932C321.572 394.087 322.091 393.568 322.091 392.927V383.625ZM319.772 384.785V391.768H199.925V384.785H319.772Z" fill="#D9D9D9"/>
<path fill-rule="evenodd" clip-rule="evenodd" d="M444.276 221.138C444.276 220.497 443.756 219.978 443.116 219.978H320.949C320.309 219.978 319.79 220.497 319.79 221.138V248.188C319.79 248.828 320.309 249.348 320.949 249.348H443.116C443.756 249.348 444.276 248.828 444.276 248.188V221.138ZM441.956 222.297V247.028H322.109C322.109 247.028 322.109 222.297 322.109 222.297H441.956Z" fill="#D9D9D9"/>
<path fill-rule="evenodd" clip-rule="evenodd" d="M444.276 248.184C444.276 247.543 443.756 247.024 443.116 247.024H320.949C320.309 247.024 319.79 247.543 319.79 248.184V275.234C319.79 275.874 320.309 276.394 320.949 276.394H443.116C443.756 276.394 444.276 275.874 444.276 275.234V248.184ZM441.956 249.343V274.074H322.109V249.343H441.956Z" fill="#D9D9D9"/>
<path fill-rule="evenodd" clip-rule="evenodd" d="M444.276 275.23C444.276 274.589 443.756 274.07 443.116 274.07H320.949C320.309 274.07 319.79 274.589 319.79 275.23V302.28C319.79 302.92 320.309 303.439 320.949 303.439H443.116C443.756 303.439 444.276 302.92 444.276 302.28V275.23ZM441.956 276.389V301.12H322.109V276.389H441.956Z" fill="#D9D9D9"/>
<path fill-rule="evenodd" clip-rule="evenodd" d="M444.276 302.275C444.276 301.635 443.756 301.116 443.116 301.116H320.949C320.309 301.116 319.79 301.635 319.79 302.275V329.326C319.79 329.966 320.309 330.485 320.949 330.485H443.116C443.756 330.485 444.276 329.966 444.276 329.326V302.275ZM441.956 303.435V328.166H322.109V303.435H441.956Z" fill="#D9D9D9"/>
<path fill-rule="evenodd" clip-rule="evenodd" d="M444.276 329.321C444.276 328.681 443.756 328.162 443.116 328.162H320.949C320.309 328.162 319.79 328.681 319.79 329.321V356.371C319.79 357.012 320.309 357.531 320.949 357.531H443.116C443.756 357.531 444.276 357.012 444.276 356.371V329.321ZM441.956 330.481V355.212H322.109V330.481H441.956Z" fill="#D9D9D9"/>
<path fill-rule="evenodd" clip-rule="evenodd" d="M444.276 356.367C444.276 355.727 443.756 355.208 443.116 355.208H320.949C320.309 355.208 319.79 355.727 319.79 356.367V383.417C319.79 384.058 320.309 384.577 320.949 384.577H443.116C443.756 384.577 444.276 384.058 444.276 383.417V356.367ZM441.956 357.527V382.258H322.109V357.527H441.956Z" fill="#D9D9D9"/>
<path fill-rule="evenodd" clip-rule="evenodd" d="M444.276 383.625C444.276 382.985 443.756 382.466 443.116 382.466H320.949C320.309 382.466 319.79 382.985 319.79 383.625V392.927C319.79 393.568 320.309 394.087 320.949 394.087H443.116C443.756 394.087 444.276 393.568 444.276 392.927V383.625ZM441.956 384.785V391.768H322.109V384.785H441.956Z" fill="#D9D9D9"/>
<path fill-rule="evenodd" clip-rule="evenodd" d="M538.367 221.138C538.367 220.497 537.848 219.978 537.208 219.978H443.116C442.476 219.978 441.957 220.497 441.957 221.138V248.188C441.957 248.828 442.476 249.348 443.116 249.348H537.208C537.848 249.348 538.367 248.828 538.367 248.188V221.138ZM536.048 222.297V247.028H444.276C444.276 247.028 444.276 222.297 444.276 222.297H536.048Z" fill="#D9D9D9"/>
<path fill-rule="evenodd" clip-rule="evenodd" d="M538.367 248.184C538.367 247.543 537.848 247.024 537.208 247.024H443.116C442.476 247.024 441.957 247.543 441.957 248.184V275.234C441.957 275.874 442.476 276.394 443.116 276.394H537.208C537.848 276.394 538.367 275.874 538.367 275.234V248.184ZM536.048 249.343V274.074H444.276V249.343H536.048Z" fill="#D9D9D9"/>
<path fill-rule="evenodd" clip-rule="evenodd" d="M538.367 275.23C538.367 274.589 537.848 274.07 537.208 274.07H443.116C442.476 274.07 441.957 274.589 441.957 275.23V302.28C441.957 302.92 442.476 303.439 443.116 303.439H537.208C537.848 303.439 538.367 302.92 538.367 302.28V275.23ZM536.048 276.389V301.12H444.276V276.389H536.048Z" fill="#D9D9D9"/>
<path fill-rule="evenodd" clip-rule="evenodd" d="M538.367 302.275C538.367 301.635 537.848 301.116 537.208 301.116H443.116C442.476 301.116 441.957 301.635 441.957 302.275V329.326C441.957 329.966 442.476 330.485 443.116 330.485H537.208C537.848 330.485 538.367 329.966 538.367 329.326V302.275ZM536.048 303.435V328.166H444.276V303.435H536.048Z" fill="#D9D9D9"/>
<path fill-rule="evenodd" clip-rule="evenodd" d="M538.367 329.321C538.367 328.681 537.848 328.162 537.208 328.162H443.116C442.476 328.162 441.957 328.681 441.957 329.321V356.371C441.957 357.012 442.476 357.531 443.116 357.531H537.208C537.848 357.531 538.367 357.012 538.367 356.371V329.321ZM536.048 330.481V355.212H444.276V330.481H536.048Z" fill="#D9D9D9"/>
<path fill-rule="evenodd" clip-rule="evenodd" d="M538.367 356.367C538.367 355.727 537.848 355.208 537.208 355.208H443.116C442.476 355.208 441.957 355.727 441.957 356.367V383.417C441.957 384.058 442.476 384.577 443.116 384.577H537.208C537.848 384.577 538.367 384.058 538.367 383.417V356.367ZM536.048 357.527V382.258H444.276V357.527H536.048Z" fill="#D9D9D9"/>
<path fill-rule="evenodd" clip-rule="evenodd" d="M538.367 383.625C538.367 382.985 537.848 382.466 537.208 382.466H443.116C442.476 382.466 441.957 382.985 441.957 383.625V392.927C441.957 393.568 442.476 394.087 443.116 394.087H537.208C537.848 394.087 538.367 393.568 538.367 392.927V383.625ZM536.048 384.785V391.768H444.276V384.785H536.048Z" fill="#D9D9D9"/>
<path fill-rule="evenodd" clip-rule="evenodd" d="M200.066 221.138C200.066 220.497 199.547 219.978 198.906 219.978H76.7398C76.0994 219.978 75.5801 220.497 75.5801 221.138V248.188C75.5801 248.828 76.0994 249.348 76.7398 249.348H198.906C199.547 249.348 200.066 248.828 200.066 248.188V221.138ZM197.747 222.297V247.028H77.8995C77.8995 247.028 77.8995 222.297 77.8995 222.297H197.747Z" fill="#8C8C8C"/>
<path d="M76.6158 194.065H42.6396V394.102H76.6158V194.065Z" fill="#B3B3B3"/>
<path d="M76.6161 221.111H42.6399V248.161H76.6161V221.111Z" fill="white"/>
<path fill-rule="evenodd" clip-rule="evenodd" d="M77.7673 221.138C77.7673 220.497 77.248 219.978 76.6076 219.978H42.6314C41.9907 219.978 41.4717 220.497 41.4717 221.138V248.188C41.4717 248.828 41.9907 249.348 42.6314 249.348H76.6076C77.248 249.348 77.7673 248.828 77.7673 248.188V221.138ZM75.4479 222.297V247.028H43.7908C43.7908 247.028 43.7908 222.297 43.7908 222.297H75.4479Z" fill="#B3B3B3"/>
<path d="M60.9295 239.68H59.7063V231.886C59.4119 232.167 59.0259 232.448 58.548 232.729C58.0701 233.009 57.641 233.22 57.2603 233.361V232.178C57.9443 231.857 58.5422 231.467 59.0542 231.009C59.5661 230.552 59.9284 230.108 60.1413 229.678H60.9295V239.68Z" fill="#B3B3B3"/>
<path d="M76.6161 248.157H42.6399V275.207H76.6161V248.157Z" fill="white"/>
<path fill-rule="evenodd" clip-rule="evenodd" d="M77.7673 248.184C77.7673 247.543 77.248 247.024 76.6076 247.024H42.6314C41.9907 247.024 41.4717 247.543 41.4717 248.184V275.234C41.4717 275.874 41.9907 276.394 42.6314 276.394H76.6076C77.248 276.394 77.7673 275.874 77.7673 275.234V248.184ZM75.4479 249.343V274.074H43.7908V249.343H75.4479Z" fill="#B3B3B3"/>
<path d="M62.7482 265.55V266.725H56.1642C56.155 266.431 56.2026 266.148 56.3067 265.876C56.4745 265.427 56.7428 264.986 57.1118 264.551C57.4812 264.116 58.0144 263.613 58.7121 263.043C59.7948 262.155 60.5262 261.452 60.9069 260.933C61.2874 260.414 61.4774 259.924 61.4774 259.462C61.4774 258.977 61.3043 258.568 60.9578 258.235C60.6113 257.902 60.1594 257.736 59.6022 257.736C59.0133 257.736 58.5424 257.913 58.1889 258.266C57.8357 258.619 57.6568 259.108 57.6521 259.734L56.3952 259.604C56.4812 258.667 56.8052 257.952 57.3668 257.461C57.9284 256.969 58.6826 256.724 59.6295 256.724C60.5852 256.724 61.3416 256.989 61.8988 257.518C62.456 258.048 62.7346 258.705 62.7346 259.489C62.7346 259.887 62.653 260.279 62.4899 260.664C62.3268 261.049 62.0563 261.455 61.6781 261.881C61.2999 262.306 60.6712 262.891 59.7925 263.634C59.0586 264.25 58.5875 264.668 58.3793 264.887C58.1708 265.107 57.9985 265.328 57.8627 265.55H62.7482Z" fill="#B3B3B3"/>
<path d="M76.6161 275.203H42.6399V302.253H76.6161V275.203Z" fill="white"/>
<path fill-rule="evenodd" clip-rule="evenodd" d="M77.7673 275.23C77.7673 274.589 77.248 274.07 76.6076 274.07H42.6314C41.9907 274.07 41.4717 274.589 41.4717 275.23V302.28C41.4717 302.92 41.9907 303.439 42.6314 303.439H76.6076C77.248 303.439 77.7673 302.92 77.7673 302.28V275.23ZM75.4479 276.389V301.12H43.7908V276.389H75.4479Z" fill="#B3B3B3"/>
<path d="M56.3398 291.142L57.5627 290.979C57.7033 291.672 57.9421 292.171 58.2797 292.477C58.617 292.783 59.028 292.936 59.5129 292.936C60.0881 292.936 60.5741 292.736 60.9704 292.338C61.3667 291.939 61.5649 291.445 61.5649 290.856C61.5649 290.295 61.3814 289.831 61.0144 289.467C60.6475 289.102 60.1811 288.92 59.6147 288.92C59.3837 288.92 59.0962 288.965 58.752 289.056L58.8878 287.982C58.9693 287.991 59.035 287.996 59.0848 287.996C59.6058 287.996 60.0745 287.86 60.4914 287.588C60.908 287.316 61.1165 286.897 61.1165 286.331C61.1165 285.883 60.9645 285.511 60.6612 285.217C60.3575 284.922 59.966 284.775 59.4856 284.775C59.01 284.775 58.6136 284.924 58.2966 285.224C57.9797 285.523 57.7757 285.971 57.6852 286.569L56.462 286.351C56.6115 285.531 56.9513 284.896 57.4812 284.445C58.0111 283.995 58.6704 283.769 59.4586 283.769C60.0021 283.769 60.5025 283.886 60.9601 284.119C61.4176 284.353 61.7675 284.671 62.0099 285.074C62.2523 285.477 62.3733 285.905 62.3733 286.358C62.3733 286.789 62.2579 287.18 62.0269 287.534C61.7959 287.887 61.4538 288.168 61.001 288.376C61.5899 288.512 62.0472 288.794 62.3733 289.222C62.6995 289.65 62.8626 290.186 62.8626 290.829C62.8626 291.699 62.5456 292.436 61.9114 293.041C61.2771 293.646 60.4755 293.948 59.5062 293.948C58.6317 293.948 57.9059 293.687 57.3284 293.167C56.7509 292.646 56.4214 291.971 56.3398 291.142Z" fill="#B3B3B3"/>
<path d="M76.6161 302.249H42.6399V329.299H76.6161V302.249Z" fill="white"/>
<path fill-rule="evenodd" clip-rule="evenodd" d="M77.7673 302.275C77.7673 301.635 77.248 301.116 76.6076 301.116H42.6314C41.9907 301.116 41.4717 301.635 41.4717 302.275V329.326C41.4717 329.966 41.9907 330.485 42.6314 330.485H76.6076C77.248 330.485 77.7673 329.966 77.7673 329.326V302.275ZM75.4479 303.435V328.166H43.7908V303.435H75.4479Z" fill="#B3B3B3"/>
<path d="M60.2539 320.776V318.392H55.9326V317.27L60.4783 310.815H61.4771V317.27H62.8225V318.392H61.4771V320.776H60.2539ZM60.2539 317.27V312.779L57.1352 317.27H60.2539Z" fill="#B3B3B3"/>
<path d="M76.6161 329.294H42.6399V356.345H76.6161V329.294Z" fill="white"/>
<path fill-rule="evenodd" clip-rule="evenodd" d="M77.7673 329.321C77.7673 328.681 77.248 328.162 76.6076 328.162H42.6314C41.9907 328.162 41.4717 328.681 41.4717 329.321V356.371C41.4717 357.012 41.9907 357.531 42.6314 357.531H76.6076C77.248 357.531 77.7673 357.012 77.7673 356.371V329.321ZM75.4479 330.481V355.212H43.7908V330.481H75.4479Z" fill="#B3B3B3"/>
<path d="M56.3223 345.219L57.6064 345.11C57.7016 345.735 57.9226 346.205 58.2691 346.52C58.6156 346.835 59.0333 346.992 59.5226 346.992C60.1115 346.992 60.6096 346.77 61.0174 346.326C61.4251 345.882 61.6291 345.294 61.6291 344.56C61.6291 343.862 61.4332 343.312 61.0413 342.909C60.6494 342.505 60.1365 342.304 59.5022 342.304C59.1082 342.304 58.7525 342.393 58.4355 342.572C58.1185 342.751 57.8691 342.983 57.6879 343.269L56.5396 343.119L57.5045 338.003H62.4579V339.172H58.4831L57.9462 341.849C58.5443 341.432 59.1716 341.224 59.8284 341.224C60.6982 341.224 61.4321 341.525 62.0299 342.127C62.6277 342.73 62.9269 343.504 62.9269 344.451C62.9269 345.353 62.6641 346.132 62.1387 346.788C61.5 347.595 60.628 347.998 59.5226 347.998C58.6167 347.998 57.8772 347.744 57.3042 347.237C56.7311 346.729 56.4038 346.057 56.3223 345.219Z" fill="#B3B3B3"/>
<path d="M76.6161 356.34H42.6399V383.391H76.6161V356.34Z" fill="white"/>
<path fill-rule="evenodd" clip-rule="evenodd" d="M77.7673 356.367C77.7673 355.727 77.248 355.208 76.6076 355.208H42.6314C41.9907 355.208 41.4717 355.727 41.4717 356.367V383.417C41.4717 384.058 41.9907 384.577 42.6314 384.577H76.6076C77.248 384.577 77.7673 384.058 77.7673 383.417V356.367ZM75.4479 357.527V382.258H43.7908V357.527H75.4479Z" fill="#B3B3B3"/>
<path d="M62.6696 367.387L61.4534 367.482C61.3446 367.002 61.1907 366.654 60.9914 366.436C60.6605 366.087 60.2531 365.913 59.7682 365.913C59.3786 365.913 59.0368 366.022 58.7424 366.239C58.3572 366.52 58.0539 366.93 57.8318 367.469C57.6099 368.008 57.4944 368.776 57.4853 369.772C57.7797 369.324 58.1398 368.991 58.5657 368.774C58.9915 368.556 59.4376 368.447 59.9041 368.447C60.7195 368.447 61.4136 368.747 61.9867 369.348C62.5597 369.948 62.8464 370.724 62.8464 371.675C62.8464 372.3 62.7114 372.881 62.442 373.418C62.1726 373.955 61.8021 374.366 61.331 374.651C60.8601 374.936 60.3254 375.079 59.7276 375.079C58.7084 375.079 57.8771 374.704 57.2339 373.955C56.5905 373.205 56.269 371.969 56.269 370.248C56.269 368.323 56.6247 366.923 57.3358 366.049C57.9564 365.288 58.7922 364.907 59.8431 364.907C60.6266 364.907 61.2689 365.127 61.7693 365.567C62.27 366.006 62.57 366.613 62.6696 367.387ZM57.6756 371.682C57.6756 372.103 57.765 372.506 57.9439 372.891C58.1229 373.276 58.3731 373.569 58.6948 373.771C59.0163 373.973 59.3538 374.073 59.707 374.073C60.2236 374.073 60.6675 373.865 61.039 373.448C61.4103 373.031 61.5962 372.465 61.5962 371.75C61.5962 371.061 61.4125 370.519 61.0457 370.122C60.6789 369.726 60.2166 369.528 59.6594 369.528C59.107 369.528 58.638 369.726 58.2531 370.122C57.8679 370.519 57.6756 371.038 57.6756 371.682Z" fill="#B3B3B3"/>
<path d="M76.6161 383.386H42.6399V394.072H76.6161V383.386Z" fill="white"/>
<path fill-rule="evenodd" clip-rule="evenodd" d="M77.7673 383.413C77.7673 382.773 77.248 382.253 76.6076 382.253H42.6314C41.9907 382.253 41.4717 382.773 41.4717 383.413V394.098C41.4717 394.739 41.9907 395.258 42.6314 395.258H76.6076C77.248 395.258 77.7673 394.739 77.7673 394.098V383.413ZM75.4479 384.573V392.939H43.7908V384.573H75.4479Z" fill="#B3B3B3"/>
<path fill-rule="evenodd" clip-rule="evenodd" d="M199.942 194.092C199.942 193.451 199.423 192.932 198.783 192.932H76.6158C75.9754 192.932 75.4561 193.451 75.4561 194.092V221.142C75.4561 221.782 75.9754 222.301 76.6158 222.301H198.783C199.423 222.301 199.942 221.782 199.942 221.142V194.092ZM197.623 195.251V219.982H77.7755V195.251H197.623Z" fill="#B3B3B3"/>
<path d="M133.035 212.593L136.86 202.632H138.28L142.357 212.593H140.855L139.694 209.576H135.528L134.434 212.593H133.035ZM135.909 208.503H139.286L138.246 205.744C137.929 204.906 137.694 204.217 137.539 203.678C137.413 204.317 137.234 204.951 137.003 205.581L135.909 208.503Z" fill="#B3B3B3"/>
<path d="M320.958 194.065H198.791V221.115H320.958V194.065Z" fill="white"/>
<path fill-rule="evenodd" clip-rule="evenodd" d="M322.109 194.092C322.109 193.451 321.59 192.932 320.949 192.932H198.783C198.142 192.932 197.623 193.451 197.623 194.092V221.142C197.623 221.782 198.142 222.301 198.783 222.301H320.949C321.59 222.301 322.109 221.782 322.109 221.142V194.092ZM319.79 195.251V219.982H199.942V195.251H319.79Z" fill="#B3B3B3"/>
<path d="M256.246 212.593V202.632H259.983C260.744 202.632 261.354 202.733 261.814 202.934C262.274 203.136 262.634 203.446 262.895 203.865C263.155 204.284 263.285 204.722 263.285 205.18C263.285 205.606 263.17 206.007 262.939 206.383C262.708 206.759 262.359 207.062 261.892 207.293C262.495 207.47 262.958 207.771 263.282 208.197C263.606 208.622 263.768 209.125 263.768 209.705C263.768 210.172 263.669 210.605 263.472 211.006C263.275 211.407 263.032 211.716 262.742 211.934C262.452 212.151 262.088 212.315 261.651 212.426C261.214 212.537 260.678 212.593 260.044 212.593H256.246ZM257.564 206.817H259.718C260.302 206.817 260.721 206.779 260.975 206.702C261.31 206.602 261.563 206.437 261.733 206.206C261.902 205.975 261.987 205.685 261.987 205.336C261.987 205.006 261.908 204.714 261.75 204.463C261.591 204.212 261.365 204.04 261.07 203.947C260.776 203.854 260.271 203.807 259.555 203.807H257.564V206.817ZM257.564 211.418H260.044C260.47 211.418 260.769 211.402 260.941 211.37C261.245 211.315 261.498 211.225 261.702 211.098C261.906 210.971 262.074 210.787 262.205 210.544C262.336 210.302 262.402 210.022 262.402 209.705C262.402 209.334 262.307 209.011 262.117 208.737C261.926 208.463 261.663 208.27 261.325 208.159C260.988 208.048 260.502 207.993 259.867 207.993H257.564V211.418Z" fill="#B3B3B3"/>
<path d="M443.107 194.065H320.94V221.115H443.107V194.065Z" fill="white"/>
<path fill-rule="evenodd" clip-rule="evenodd" d="M444.276 194.092C444.276 193.451 443.756 192.932 443.116 192.932H320.949C320.309 192.932 319.79 193.451 319.79 194.092V221.142C319.79 221.782 320.309 222.301 320.949 222.301H443.116C443.756 222.301 444.276 221.782 444.276 221.142V194.092ZM441.956 195.251V219.982H322.109V195.251H441.956Z" fill="#B3B3B3"/>
<path d="M385.192 209.129L386.51 209.462C386.234 210.544 385.737 211.37 385.019 211.938C384.301 212.507 383.423 212.791 382.386 212.791C381.313 212.791 380.44 212.572 379.767 212.135C379.094 211.698 378.582 211.065 378.231 210.236C377.88 209.407 377.705 208.517 377.705 207.566C377.705 206.529 377.903 205.624 378.299 204.851C378.695 204.079 379.26 203.492 379.991 203.091C380.723 202.691 381.528 202.49 382.406 202.49C383.403 202.49 384.241 202.744 384.921 203.251C385.6 203.759 386.073 204.472 386.341 205.392L385.043 205.697C384.812 204.972 384.477 204.445 384.037 204.114C383.598 203.784 383.045 203.618 382.379 203.618C381.614 203.618 380.974 203.802 380.46 204.168C379.946 204.535 379.584 205.028 379.376 205.646C379.168 206.265 379.064 206.902 379.064 207.559C379.064 208.406 379.187 209.145 379.434 209.778C379.681 210.409 380.065 210.882 380.585 211.194C381.106 211.507 381.671 211.663 382.278 211.663C383.016 211.663 383.641 211.45 384.153 211.024C384.665 210.599 385.011 209.967 385.192 209.129Z" fill="#B3B3B3"/>
<path d="M537.198 194.065H443.106V221.115H537.198V194.065Z" fill="white"/>
<path fill-rule="evenodd" clip-rule="evenodd" d="M538.367 194.092C538.367 193.451 537.848 192.932 537.207 192.932H443.116C442.475 192.932 441.956 193.451 441.956 194.092V221.142C441.956 221.782 442.475 222.301 443.116 222.301H537.207C537.848 222.301 538.367 221.782 538.367 221.142V194.092ZM536.048 195.251V219.982H444.275V195.251H536.048Z" fill="#B3B3B3"/>
<path d="M500.243 212.593V202.632H503.674C504.449 202.632 505.04 202.679 505.447 202.775C506.018 202.906 506.505 203.144 506.908 203.488C507.434 203.932 507.827 204.499 508.087 205.19C508.347 205.881 508.478 206.67 508.478 207.558C508.478 208.314 508.389 208.985 508.213 209.569C508.036 210.154 507.81 210.637 507.533 211.02C507.257 211.403 506.955 211.704 506.626 211.924C506.298 212.143 505.901 212.31 505.437 212.423C504.973 212.536 504.439 212.593 503.837 212.593H500.243ZM501.561 211.418H503.687C504.344 211.418 504.86 211.356 505.233 211.234C505.607 211.112 505.905 210.939 506.127 210.718C506.439 210.405 506.683 209.985 506.857 209.457C507.032 208.929 507.119 208.29 507.119 207.538C507.119 206.496 506.948 205.695 506.606 205.136C506.264 204.576 505.848 204.202 505.359 204.011C505.006 203.875 504.437 203.807 503.653 203.807H501.561V211.418Z" fill="#B3B3B3"/>
<path fill-rule="evenodd" clip-rule="evenodd" d="M196.182 130.09C196.182 127.104 193.757 124.68 190.772 124.68H143.631C140.645 124.68 138.221 127.104 138.221 130.09V146.32C138.221 149.306 140.645 151.73 143.631 151.73H190.772C193.757 151.73 196.182 149.306 196.182 146.32V130.09Z" fill="#19A366"/>
<path fill-rule="evenodd" clip-rule="evenodd" d="M253.2 130.09C253.2 127.104 250.776 124.68 247.79 124.68H212.414C209.428 124.68 207.003 127.104 207.003 130.09V146.32C207.003 149.306 209.428 151.73 212.414 151.73H247.79C250.776 151.73 253.2 149.306 253.2 146.32V130.09Z" fill="#19A366"/>
<path fill-rule="evenodd" clip-rule="evenodd" d="M329.659 130.09C329.659 127.104 327.235 124.68 324.249 124.68H269.409C266.423 124.68 263.999 127.104 263.999 130.09V146.32C263.999 149.306 266.423 151.73 269.409 151.73H324.249C327.235 151.73 329.659 149.306 329.659 146.32V130.09Z" fill="#19A366"/>
<path fill-rule="evenodd" clip-rule="evenodd" d="M478.01 130.09C478.01 127.104 475.586 124.68 472.6 124.68H345.891C342.905 124.68 340.481 127.104 340.481 130.09V146.32C340.481 149.306 342.905 151.73 345.891 151.73H472.6C475.586 151.73 478.01 149.306 478.01 146.32V130.09Z" fill="#19A366"/>
<path fill-rule="evenodd" clip-rule="evenodd" d="M511.592 133.173L523.348 144.929C523.8 145.382 524.535 145.382 524.988 144.929C525.441 144.477 525.441 143.742 524.988 143.289L513.232 131.533C512.779 131.081 512.045 131.081 511.592 131.533C511.139 131.986 511.139 132.721 511.592 133.173Z" fill="#E6E6E6"/>
<path fill-rule="evenodd" clip-rule="evenodd" d="M513.232 144.929L524.988 133.173C525.441 132.721 525.441 131.986 524.988 131.533C524.535 131.081 523.8 131.081 523.348 131.533L511.592 143.289C511.139 143.742 511.139 144.477 511.592 144.929C512.045 145.382 512.779 145.382 513.232 144.929Z" fill="#E6E6E6"/>
<path fill-rule="evenodd" clip-rule="evenodd" d="M132.38 168.178C132.38 164.608 129.481 161.709 125.911 161.709H89.3946C85.8239 161.709 82.9253 164.608 82.9253 168.178V187.586C82.9253 191.157 85.8239 194.056 89.3946 194.056H125.911C129.481 194.056 132.38 191.157 132.38 187.586V168.178Z" fill="#E6E6E6"/>
<path fill-rule="evenodd" clip-rule="evenodd" d="M78.097 168.356C78.097 164.688 75.1185 161.709 71.4501 161.709H49.2863C45.6179 161.709 42.6396 164.688 42.6396 168.356V174.053C42.6396 177.721 45.6179 180.7 49.2863 180.7H71.4501C75.1185 180.7 78.097 177.721 78.097 174.053V168.356Z" fill="#175C37"/>
<path fill-rule="evenodd" clip-rule="evenodd" d="M124.613 170.208C124.613 168.917 123.565 167.869 122.274 167.869H91.4952C90.2039 167.869 89.1558 168.917 89.1558 170.208V172.213C89.1558 173.505 90.2039 174.553 91.4952 174.553H122.274C123.565 174.553 124.613 173.505 124.613 172.213V170.208Z" fill="#175C37"/>
<path fill-rule="evenodd" clip-rule="evenodd" d="M73.7468 170.208C73.7468 168.917 72.6987 167.869 71.4073 167.869H49.3158C48.0247 167.869 46.9763 168.917 46.9763 170.208V172.213C46.9763 173.505 48.0247 174.553 49.3158 174.553H71.4073C72.6987 174.553 73.7468 173.505 73.7468 172.213V170.208Z" fill="#0F7D40"/>
<path fill-rule="evenodd" clip-rule="evenodd" d="M212.328 168.356C212.328 164.688 209.35 161.709 205.682 161.709H143.859C140.19 161.709 137.212 164.688 137.212 168.356V174.053C137.212 177.721 140.19 180.7 143.859 180.7H205.682C209.35 180.7 212.328 177.721 212.328 174.053V168.356Z" fill="#175C37"/>
<path fill-rule="evenodd" clip-rule="evenodd" d="M242.636 168.356C242.636 164.688 239.657 161.709 235.989 161.709H223.793C220.124 161.709 217.146 164.688 217.146 168.356V174.053C217.146 177.721 220.124 180.7 223.793 180.7H235.989C239.657 180.7 242.636 177.721 242.636 174.053V168.356Z" fill="#175C37"/>
<path fill-rule="evenodd" clip-rule="evenodd" d="M313.039 168.356C313.039 164.688 310.061 161.709 306.393 161.709H254.113C250.445 161.709 247.466 164.688 247.466 168.356V174.053C247.466 177.721 250.445 180.7 254.113 180.7H306.393C310.061 180.7 313.039 177.721 313.039 174.053V168.356Z" fill="#175C37"/>
<path fill-rule="evenodd" clip-rule="evenodd" d="M362.596 168.356C362.596 164.688 359.618 161.709 355.949 161.709H324.525C320.856 161.709 317.878 164.688 317.878 168.356V174.053C317.878 177.721 320.856 180.7 324.525 180.7H355.949C359.618 180.7 362.596 177.721 362.596 174.053V168.356Z" fill="#175C37"/>
<path fill-rule="evenodd" clip-rule="evenodd" d="M482.419 168.356C482.419 164.688 479.441 161.709 475.772 161.709H374.067C370.399 161.709 367.42 164.688 367.42 168.356V174.053C367.42 177.721 370.399 180.7 374.067 180.7H475.772C479.441 180.7 482.419 177.721 482.419 174.053V168.356Z" fill="#175C37"/>
<path fill-rule="evenodd" clip-rule="evenodd" d="M205.711 170.208C205.711 168.917 204.663 167.869 203.372 167.869H146.171C144.88 167.869 143.832 168.917 143.832 170.208V172.213C143.832 173.505 144.88 174.553 146.171 174.553H203.372C204.663 174.553 205.711 173.505 205.711 172.213V170.208Z" fill="#0F7D40"/>
<path fill-rule="evenodd" clip-rule="evenodd" d="M239.114 170.208C239.114 168.917 238.066 167.869 236.775 167.869H223.008C221.717 167.869 220.668 168.917 220.668 170.208V172.213C220.668 173.505 221.717 174.553 223.008 174.553H236.775C238.066 174.553 239.114 173.505 239.114 172.213V170.208Z" fill="#0F7D40"/>
<path fill-rule="evenodd" clip-rule="evenodd" d="M356.696 170.208C356.696 168.917 355.647 167.869 354.356 167.869H326.111C324.82 167.869 323.772 168.917 323.772 170.208V172.213C323.772 173.505 324.82 174.553 326.111 174.553H354.356C355.647 174.553 356.696 173.505 356.696 172.213V170.208Z" fill="#0F7D40"/>
<path fill-rule="evenodd" clip-rule="evenodd" d="M307.762 170.208C307.762 168.917 306.713 167.869 305.422 167.869H255.098C253.807 167.869 252.759 168.917 252.759 170.208V172.213C252.759 173.505 253.807 174.553 255.098 174.553H305.422C306.713 174.553 307.762 173.505 307.762 172.213V170.208Z" fill="#0F7D40"/>
<path fill-rule="evenodd" clip-rule="evenodd" d="M477.067 170.208C477.067 168.917 476.019 167.869 474.728 167.869H375.088C373.797 167.869 372.749 168.917 372.749 170.208V172.213C372.749 173.505 373.797 174.553 375.088 174.553H474.728C476.019 174.553 477.067 173.505 477.067 172.213V170.208Z" fill="#0F7D40"/>
<path fill-rule="evenodd" clip-rule="evenodd" d="M126.424 130.09C126.424 127.104 124 124.68 121.014 124.68H48.0495C45.0637 124.68 42.6396 127.104 42.6396 130.09V146.32C42.6396 149.306 45.0637 151.73 48.0495 151.73H121.014C124 151.73 126.424 149.306 126.424 146.32V130.09Z" fill="white"/>
<path d="M81.0414 134.823L81.032 129.961L78.6198 134.013H78.1812L75.7691 129.989V134.823H74.854V128.149H75.6358L78.4197 132.84L81.1653 128.149H81.947L81.9568 134.823H81.0414Z" fill="#175C37"/>
<path d="M83.8307 129.747H84.7458V134.8H83.8307V129.747ZM84.2883 128.775C84.1104 128.775 83.9626 128.718 83.8449 128.603C83.7275 128.489 83.6685 128.349 83.6685 128.184C83.6685 128.018 83.7275 127.877 83.8449 127.759C83.9626 127.642 84.1104 127.583 84.2883 127.583C84.4661 127.583 84.6139 127.639 84.7316 127.75C84.8491 127.861 84.9081 127.999 84.9081 128.165C84.9081 128.336 84.8491 128.481 84.7316 128.598C84.6139 128.716 84.4661 128.775 84.2883 128.775Z" fill="#175C37"/>
<path d="M88.6922 134.865C88.1774 134.865 87.7181 134.754 87.3146 134.531C86.911 134.309 86.5949 134.002 86.3661 133.611C86.1373 133.22 86.0229 132.777 86.0229 132.281C86.0229 131.785 86.1373 131.342 86.3661 130.951C86.5949 130.56 86.911 130.255 87.3146 130.036C87.7181 129.817 88.1774 129.707 88.6922 129.707C89.15 129.707 89.5583 129.799 89.9174 129.983C90.2764 130.168 90.5547 130.435 90.7517 130.784L90.0557 131.232C89.8968 130.991 89.6997 130.81 89.4645 130.689C89.2294 130.568 88.9689 130.508 88.6828 130.508C88.3521 130.508 88.0552 130.581 87.7913 130.727C87.5275 130.873 87.321 131.082 87.1715 131.352C87.0224 131.622 86.9475 131.932 86.9475 132.281C86.9475 132.637 87.0224 132.95 87.1715 133.22C87.321 133.49 87.5275 133.699 87.7913 133.845C88.0552 133.991 88.3521 134.064 88.6828 134.064C88.9689 134.064 89.2294 134.004 89.4645 133.883C89.6997 133.762 89.8968 133.581 90.0557 133.339L90.7517 133.778C90.5547 134.127 90.2764 134.396 89.9174 134.584C89.5583 134.771 89.15 134.865 88.6922 134.865Z" fill="#175C37"/>
<path d="M92.8118 130.603C92.9707 130.311 93.2059 130.088 93.5173 129.936C93.8288 129.783 94.207 129.707 94.6517 129.707V130.594C94.6011 130.587 94.5309 130.584 94.4422 130.584C93.9462 130.584 93.5571 130.732 93.2741 131.027C92.9913 131.323 92.8499 131.744 92.8499 132.291V134.808H91.9346V129.755H92.8118V130.603Z" fill="#175C37"/>
<path d="M97.8934 134.865C97.3913 134.865 96.9401 134.754 96.5397 134.531C96.1392 134.309 95.8261 134.002 95.6006 133.611C95.3749 133.22 95.2622 132.777 95.2622 132.281C95.2622 131.785 95.3749 131.342 95.6006 130.951C95.8261 130.56 96.1392 130.255 96.5397 130.036C96.9401 129.817 97.3913 129.707 97.8934 129.707C98.3954 129.707 98.8452 129.817 99.2426 130.036C99.6398 130.255 99.9512 130.56 100.177 130.951C100.402 131.342 100.515 131.785 100.515 132.281C100.515 132.777 100.402 133.22 100.177 133.611C99.9512 134.002 99.6398 134.309 99.2426 134.531C98.8452 134.754 98.3954 134.865 97.8934 134.865ZM97.8934 134.064C98.2176 134.064 98.5084 133.989 98.7659 133.84C99.0233 133.69 99.2251 133.481 99.3712 133.211C99.5173 132.94 99.5905 132.631 99.5905 132.281C99.5905 131.932 99.5173 131.622 99.3712 131.352C99.2251 131.082 99.0233 130.873 98.7659 130.727C98.5084 130.581 98.2176 130.508 97.8934 130.508C97.5694 130.508 97.2786 130.581 97.0211 130.727C96.7637 130.873 96.5602 131.082 96.4111 131.352C96.2616 131.622 96.187 131.932 96.187 132.281C96.187 132.631 96.2616 132.94 96.4111 133.211C96.5602 133.481 96.7637 133.69 97.0211 133.84C97.2786 133.989 97.5694 134.064 97.8934 134.064Z" fill="#175C37"/>
<path d="M103.227 134.865C102.813 134.865 102.416 134.809 102.035 134.698C101.653 134.587 101.355 134.445 101.139 134.274L101.52 133.549C101.742 133.708 102.013 133.835 102.33 133.93C102.648 134.026 102.969 134.073 103.293 134.073C104.094 134.073 104.495 133.845 104.495 133.387C104.495 133.235 104.441 133.114 104.332 133.025C104.224 132.936 104.089 132.871 103.927 132.829C103.765 132.788 103.535 132.742 103.236 132.691C102.829 132.628 102.497 132.554 102.24 132.472C101.982 132.389 101.762 132.249 101.577 132.052C101.393 131.855 101.301 131.579 101.301 131.223C101.301 130.765 101.491 130.398 101.873 130.122C102.254 129.845 102.766 129.707 103.408 129.707C103.744 129.707 104.081 129.748 104.418 129.831C104.755 129.914 105.032 130.025 105.248 130.165L104.857 130.889C104.444 130.622 103.957 130.489 103.398 130.489C103.01 130.489 102.715 130.552 102.512 130.679C102.308 130.807 102.206 130.975 102.206 131.185C102.206 131.35 102.264 131.48 102.378 131.576C102.492 131.671 102.634 131.741 102.802 131.785C102.971 131.83 103.207 131.881 103.512 131.938C103.919 132.008 104.248 132.082 104.499 132.162C104.75 132.241 104.965 132.377 105.143 132.567C105.321 132.758 105.41 133.025 105.41 133.368C105.41 133.826 105.214 134.19 104.824 134.46C104.432 134.73 103.9 134.865 103.227 134.865Z" fill="#175C37"/>
<path d="M108.726 134.865C108.224 134.865 107.773 134.754 107.372 134.531C106.972 134.309 106.659 134.002 106.433 133.611C106.207 133.22 106.095 132.777 106.095 132.281C106.095 131.785 106.207 131.342 106.433 130.951C106.659 130.56 106.972 130.255 107.372 130.036C107.773 129.817 108.224 129.707 108.726 129.707C109.228 129.707 109.678 129.817 110.075 130.036C110.472 130.255 110.784 130.56 111.009 130.951C111.235 131.342 111.348 131.785 111.348 132.281C111.348 132.777 111.235 133.22 111.009 133.611C110.784 134.002 110.472 134.309 110.075 134.531C109.678 134.754 109.228 134.865 108.726 134.865ZM108.726 134.064C109.05 134.064 109.341 133.989 109.598 133.84C109.856 133.69 110.058 133.481 110.204 133.211C110.35 132.94 110.423 132.631 110.423 132.281C110.423 131.932 110.35 131.622 110.204 131.352C110.058 131.082 109.856 130.873 109.598 130.727C109.341 130.581 109.05 130.508 108.726 130.508C108.402 130.508 108.111 130.581 107.854 130.727C107.596 130.873 107.393 131.082 107.243 131.352C107.094 131.622 107.019 131.932 107.019 132.281C107.019 132.631 107.094 132.94 107.243 133.211C107.393 133.481 107.596 133.69 107.854 133.84C108.111 133.989 108.402 134.064 108.726 134.064Z" fill="#175C37"/>
<path d="M114.457 128.407C113.91 128.407 113.637 128.703 113.637 129.294V129.732H115.105V130.485H113.656V134.785H112.741V130.485H111.883V129.732H112.741V129.284C112.741 128.782 112.887 128.385 113.179 128.092C113.472 127.8 113.882 127.654 114.409 127.654C114.613 127.654 114.803 127.679 114.981 127.73C115.159 127.781 115.312 127.854 115.439 127.949L115.162 128.645C114.953 128.487 114.718 128.407 114.457 128.407Z" fill="#175C37"/>
<path d="M118.812 134.508C118.678 134.623 118.513 134.71 118.316 134.77C118.119 134.831 117.915 134.861 117.706 134.861C117.197 134.861 116.803 134.724 116.524 134.451C116.244 134.178 116.104 133.787 116.104 133.278V130.504H115.246V129.751H116.104V128.645H117.019V129.751H118.468V130.504H117.019V133.24C117.019 133.514 117.088 133.723 117.224 133.869C117.361 134.016 117.556 134.089 117.81 134.089C118.09 134.089 118.329 134.009 118.526 133.85L118.812 134.508Z" fill="#175C37"/>
<path d="M82.3831 147.512V148.723H75.314V138.982H82.1882V140.193H76.7055V143.184H81.5899V144.367H76.7055V147.512H82.3831Z" fill="#175C37"/>
<path d="M88.9834 148.694L86.8544 145.869L84.6975 148.694H83.2085L86.1168 144.923L83.3477 141.318H84.8366L86.8683 143.976L88.886 141.318H90.3472L87.5641 144.923L90.5002 148.694H88.9834Z" fill="#175C37"/>
<path d="M94.9281 148.776C94.1767 148.776 93.5065 148.614 92.9173 148.289C92.3281 147.964 91.8667 147.517 91.5327 146.946C91.1987 146.375 91.0317 145.728 91.0317 145.005C91.0317 144.281 91.1987 143.634 91.5327 143.064C91.8667 142.493 92.3281 142.048 92.9173 141.728C93.5065 141.408 94.1767 141.248 94.9281 141.248C95.596 141.248 96.1922 141.382 96.7162 141.651C97.2403 141.92 97.6464 142.31 97.9338 142.82L96.918 143.474C96.6862 143.121 96.3984 142.857 96.0552 142.681C95.7121 142.505 95.3316 142.417 94.9142 142.417C94.4319 142.417 93.998 142.523 93.6131 142.737C93.2282 142.95 92.9265 143.254 92.7086 143.648C92.4906 144.042 92.3815 144.495 92.3815 145.005C92.3815 145.524 92.4906 145.981 92.7086 146.375C92.9265 146.77 93.2282 147.073 93.6131 147.287C93.998 147.5 94.4319 147.607 94.9142 147.607C95.3316 147.607 95.7121 147.519 96.0552 147.343C96.3984 147.166 96.6862 146.902 96.918 146.549L97.9338 147.19C97.6464 147.7 97.2403 148.092 96.7162 148.365C96.1922 148.639 95.596 148.776 94.9281 148.776Z" fill="#175C37"/>
<path d="M106.203 145.047C106.203 145.149 106.194 145.283 106.175 145.45H100.191C100.275 146.099 100.56 146.621 101.047 147.016C101.534 147.41 102.14 147.607 102.863 147.607C103.745 147.607 104.454 147.31 104.992 146.716L105.73 147.579C105.396 147.969 104.981 148.266 104.484 148.47C103.988 148.674 103.434 148.776 102.821 148.776C102.042 148.776 101.351 148.616 100.748 148.296C100.145 147.976 99.6787 147.528 99.3495 146.953C99.0202 146.378 98.8555 145.728 98.8555 145.005C98.8555 144.29 99.0155 143.646 99.3356 143.071C99.6556 142.495 100.096 142.048 100.658 141.728C101.219 141.408 101.852 141.248 102.557 141.248C103.262 141.248 103.891 141.408 104.443 141.728C104.994 142.048 105.426 142.495 105.737 143.071C106.048 143.646 106.203 144.304 106.203 145.047ZM102.557 142.375C101.917 142.375 101.381 142.57 100.95 142.959C100.518 143.349 100.266 143.859 100.191 144.49H104.923C104.848 143.868 104.596 143.361 104.164 142.966C103.733 142.572 103.197 142.375 102.557 142.375Z" fill="#175C37"/>
<path d="M109.395 138.415H108.06V148.741H109.395V138.415Z" fill="#175C37"/>
<path d="M53.2568 128.787H66.9616C67.1918 128.786 67.4117 128.88 67.5689 129.047C67.7295 129.219 67.8188 129.446 67.8188 129.681V146.665C67.8183 146.9 67.7289 147.126 67.5689 147.298C67.4117 147.466 67.1918 147.561 66.9616 147.559H53.2623C52.7834 147.551 52.4018 147.155 52.4104 146.676V129.681C52.3985 129.201 52.7767 128.801 53.2568 128.787Z" fill="#19A366"/>
<path d="M52.4114 138.203V146.722C52.3855 147.201 52.7832 147.608 53.3 147.632L53.3081 147.633H68.1128C68.6333 147.624 69.0474 147.226 69.0376 146.744V138.219L52.4114 138.203Z" fill="#175C37"/>
<path d="M67.8186 133.46H52.4102V138.155H67.8186V133.46Z" fill="#0F7D40"/>
<path d="M68.0571 128.787H60.1274V142.869H69.0495V129.681C69.049 129.446 68.9454 129.22 68.7601 129.048C68.5772 128.88 68.3229 128.786 68.0571 128.787Z" fill="#45BA7F"/>
<path d="M69.0495 133.46H60.1274V138.155H69.0495V133.46Z" fill="#19A366"/>
<path d="M69.0495 138.203H60.1274V142.899H69.0495V138.203Z" fill="#0F7D40"/>
<path d="M57.874 132.61H57.437C57.4779 132.674 57.5077 132.746 57.5244 132.823H57.624V132.822H57.629C57.6349 132.822 57.6399 132.823 57.6457 132.823C57.9959 132.835 58.2717 133.124 58.2686 133.472H58.5132V133.281C58.5221 132.919 58.2363 132.619 57.874 132.61ZM58.5132 138.168H58.268V138.169L58.5132 138.169V138.168Z" fill="#1C9E64"/>
<path d="M58.2606 138.203V143.304C58.2617 143.37 58.2531 143.434 58.2356 143.494C58.2353 143.548 58.2286 143.6 58.2158 143.65C58.3953 143.53 58.5111 143.323 58.5058 143.09V138.203L58.2606 138.203Z" fill="#155935"/>
<path d="M58.5142 133.46H58.2696C58.2693 133.465 58.2693 133.47 58.269 133.475V138.155H58.5142V133.46Z" fill="#11783F"/>
<path d="M52.4277 143.655V145.166H56.6876C57.1574 145.164 57.5378 144.788 57.5495 144.32C57.5194 144.335 57.4883 144.347 57.4557 144.356C57.3132 144.636 57.0229 144.829 56.6876 144.831H52.4277V143.655Z" fill="#155733"/>
<path d="M57.63 132.822H57.625V132.823H57.5254C57.536 132.872 57.541 132.924 57.5396 132.977V133.094H57.62C57.8719 133.104 58.0848 133.257 58.1839 133.472H58.2696C58.2727 133.124 57.9969 132.835 57.6467 132.823C57.6409 132.823 57.6359 132.822 57.63 132.822ZM58.269 138.168H58.2429V138.169H58.269V138.168Z" fill="#1C935D"/>
<path d="M58.2659 133.46H58.1802C58.2211 133.548 58.2425 133.648 58.2392 133.752V138.155H58.2653V133.475C58.2656 133.47 58.2656 133.465 58.2659 133.46Z" fill="#12703C"/>
<path d="M58.2143 143.655C58.1899 143.671 58.1643 143.686 58.1375 143.699C58.0788 143.781 58.0014 143.85 57.9115 143.897C57.8943 143.969 57.8653 144.037 57.8267 144.098C58.0181 144.021 58.1637 143.856 58.2143 143.655Z" fill="#155733"/>
<path d="M58.2416 143.442C58.221 143.515 58.1879 143.583 58.145 143.643C58.1717 143.629 58.1973 143.615 58.2218 143.598C58.2346 143.548 58.2413 143.496 58.2416 143.442Z" fill="#145432"/>
<path d="M58.141 143.655C58.0767 143.686 58.0069 143.707 57.9328 143.716C57.9315 143.763 57.9256 143.809 57.915 143.853C58.0049 143.805 58.0823 143.737 58.141 143.655Z" fill="#135030"/>
<path d="M57.6058 133.105H57.5254V133.141C57.5257 133.152 57.5257 133.163 57.5254 133.174V133.311C57.5257 133.322 57.5257 133.333 57.5254 133.345V133.447C57.5883 133.451 57.6487 133.463 57.7055 133.483H58.1697C58.0706 133.268 57.8577 133.115 57.6058 133.105ZM58.2287 138.179H58.1377V138.18H58.2287V138.179Z" fill="#178B56"/>
<path d="M58.1452 138.203V143.251C58.15 143.448 58.0673 143.626 57.9326 143.75C57.9326 143.752 57.9326 143.754 57.9326 143.756C58.0066 143.747 58.0765 143.726 58.1408 143.695C58.1837 143.635 58.2168 143.567 58.2374 143.494C58.2376 143.485 58.2374 143.475 58.2368 143.465L58.2363 143.453V138.203H58.1452Z" fill="#124E2E"/>
<path d="M58.1844 133.46H57.7202C57.971 133.548 58.1505 133.787 58.1524 134.067V138.155H58.2434V133.752C58.2468 133.648 58.2253 133.548 58.1844 133.46Z" fill="#116A37"/>
<path d="M56.8885 132.327H52.4102V132.933V132.513H56.8885C57.0218 132.516 57.1448 132.559 57.2466 132.63H57.4253C57.312 132.452 57.115 132.332 56.8885 132.327Z" fill="#1AA365"/>
<path d="M57.4209 132.61H57.2422C57.3221 132.666 57.3886 132.738 57.437 132.823H57.5083C57.4916 132.746 57.4618 132.674 57.4209 132.61Z" fill="#1E9C63"/>
<path d="M57.5258 132.822H57.4546C57.5011 132.904 57.5306 132.996 57.5381 133.094H57.54V132.976C57.5414 132.924 57.5364 132.872 57.5258 132.822Z" fill="#1A935C"/>
<path d="M57.4557 144.363C57.4025 144.379 57.3469 144.388 57.289 144.39H57.1688C57.0313 144.483 56.8657 144.538 56.6876 144.539H52.4277V144.837H56.6876C57.0229 144.835 57.3132 144.643 57.4557 144.363Z" fill="#124C2D"/>
<path d="M52.4277 143.655V144.532H56.6876C56.8657 144.531 57.0313 144.476 57.1688 144.383H52.8104C52.7319 144.381 52.661 144.351 52.6059 144.303H52.4277V143.655Z" fill="#0F4227"/>
<path d="M52.4948 144.08H52.4277V144.282H52.6059C52.5471 144.231 52.5065 144.16 52.4948 144.08Z" fill="#0E3A23"/>
<path d="M52.4277 143.655V144.101H52.4948C52.492 144.082 52.4909 144.063 52.4915 144.042V143.658C52.4878 143.658 52.4842 143.658 52.4806 143.658C52.4628 143.658 52.4453 143.657 52.4277 143.655Z" fill="#0D321F"/>
<path d="M57.5254 133.459V133.488C57.529 133.49 57.5324 133.493 57.536 133.496H57.7055C57.6487 133.476 57.5883 133.463 57.5254 133.459ZM58.1377 138.192H57.9253V138.192L58.1377 138.192V138.192Z" fill="#138150"/>
<path d="M57.9329 138.203V143.734C57.9329 143.739 57.9329 143.745 57.9326 143.75C58.0673 143.627 58.15 143.448 58.1452 143.251V138.203L57.9329 138.203Z" fill="#124A2B"/>
<path d="M57.7125 133.46H57.543C57.6618 133.551 57.7459 133.656 57.7459 133.779V134.071C57.8652 134.193 57.9368 134.362 57.9323 134.546V138.155H58.1447V134.067C58.1427 133.787 57.9632 133.548 57.7125 133.46Z" fill="#116233"/>
<path d="M52.4327 143.584H52.4277V143.584C52.4453 143.584 52.4628 143.584 52.4806 143.584C52.4842 143.584 52.4878 143.584 52.4915 143.584V143.584H52.4327V143.584Z" fill="#0D2E1D"/>
<path d="M52.4865 143.584H52.4277V143.584H52.4865V143.584Z" fill="#0B291A"/>
<path d="M52.4277 143.23V143.613H52.4865V143.266C52.4656 143.256 52.4461 143.244 52.4277 143.23Z" fill="#0B2618"/>
<path d="M52.4103 132.893C52.3438 132.954 52.3028 133.041 52.3042 133.138V142.941C52.3042 143.036 52.3449 143.123 52.4103 143.183V142.975C52.368 142.918 52.344 142.847 52.3465 142.77V142.637C52.3463 142.63 52.3463 142.623 52.3465 142.616V142.435C52.3463 142.431 52.3463 142.428 52.3465 142.424V141.05H52.4103V132.893Z" fill="#CBCBCB"/>
<path d="M52.4209 141.106H52.3571V142.48C52.3569 142.483 52.3569 142.487 52.3571 142.49V141.298H52.4209V141.106Z" fill="#CACACA"/>
<path d="M57.536 133.46H57.5254V133.657C57.5972 133.753 57.6428 133.87 57.652 133.997C57.6832 134.019 57.7124 134.044 57.7389 134.071V133.779C57.7389 133.656 57.6548 133.551 57.536 133.46Z" fill="#0D512A"/>
<path d="M57.5254 133.672V133.777C57.5382 133.833 57.5454 133.891 57.5468 133.95C57.5841 133.967 57.6192 133.988 57.652 134.011C57.6428 133.885 57.5972 133.768 57.5254 133.672Z" fill="#0C4A27"/>
<path d="M52.4277 143.018V143.218C52.4461 143.233 52.4656 143.245 52.4865 143.255V143.068C52.465 143.054 52.4453 143.037 52.4277 143.018Z" fill="#0B2417"/>
<path d="M57.8366 144.08C57.7692 144.107 57.6963 144.123 57.62 144.126H57.5613V144.301C57.5613 144.308 57.561 144.315 57.561 144.323C57.6743 144.269 57.7698 144.184 57.8366 144.08Z" fill="#155733"/>
<path d="M57.5487 144.15H57.5339C57.5186 144.232 57.4916 144.311 57.4546 144.383C57.4872 144.374 57.5183 144.362 57.5484 144.347C57.5484 144.34 57.5487 144.333 57.5487 144.325V144.15Z" fill="#135030"/>
<path d="M57.9212 143.867C57.8327 143.914 57.7319 143.942 57.6248 143.943H57.561V144.114H57.6198C57.696 144.111 57.7689 144.095 57.8363 144.068C57.875 144.007 57.9039 143.94 57.9212 143.867Z" fill="#135030"/>
<path d="M57.939 143.726C57.9359 143.726 57.9331 143.726 57.9304 143.727C57.8302 143.815 57.7024 143.874 57.561 143.887V143.938H57.6248C57.7319 143.937 57.8327 143.909 57.9212 143.862C57.9317 143.818 57.9376 143.772 57.939 143.726Z" fill="#124C2D"/>
<path d="M57.5376 144.15H57.4213C57.357 144.253 57.2719 144.342 57.1714 144.41H57.2916C57.3495 144.408 57.4052 144.399 57.4583 144.383C57.4953 144.311 57.5223 144.232 57.5376 144.15Z" fill="#0F462A"/>
<path d="M57.4178 144.15H57.2068C57.0624 144.261 56.8823 144.328 56.6867 144.33H52.605C52.6601 144.378 52.7311 144.408 52.8095 144.41H57.1679C57.2684 144.342 57.3535 144.253 57.4178 144.15Z" fill="#0F3E26"/>
<path d="M57.5505 143.938H57.5015C57.4804 143.998 57.4528 144.055 57.4194 144.109H57.5358C57.545 144.058 57.5502 144.007 57.5505 143.954V143.938Z" fill="#0F4227"/>
<path d="M57.5001 143.938H57.3757C57.3275 144.002 57.2708 144.06 57.207 144.109H57.418C57.4514 144.055 57.4789 143.998 57.5001 143.938Z" fill="#103B24"/>
<path d="M57.5238 143.867C57.5188 143.867 57.5138 143.867 57.5088 143.867H57.4172C57.4063 143.867 57.3955 143.867 57.3838 143.867H57.5082C57.5138 143.867 57.5191 143.867 57.5238 143.867Z" fill="#0E3821"/>
<path d="M53.029 144.08H52.4985C52.5102 144.16 52.5509 144.231 52.6096 144.282H56.6913C56.8869 144.279 57.067 144.213 57.2114 144.102H53.1345C53.0972 144.1 53.0618 144.092 53.029 144.08Z" fill="#0D3821"/>
<path d="M57.3809 143.938H57.18C57.0422 144.032 56.876 144.087 56.6971 144.087H53.0298C53.0626 144.099 53.098 144.107 53.1353 144.109H57.2122C57.276 144.06 57.3328 144.002 57.3809 143.938Z" fill="#0D3520"/>
<path d="M57.4057 143.867H57.2348C57.2145 143.867 57.1931 143.867 57.1714 143.867H57.3723C57.384 143.867 57.3949 143.867 57.4057 143.867Z" fill="#0E331E"/>
<path d="M52.7208 143.655H52.5465C52.5307 143.657 52.5148 143.658 52.4987 143.658V144.043C52.4981 144.063 52.4992 144.083 52.502 144.102H53.0325C52.9161 144.057 52.8318 143.948 52.8196 143.82C52.772 143.776 52.7369 143.719 52.7208 143.655Z" fill="#0E2F1E"/>
<path d="M52.8174 143.796C52.8296 143.925 52.914 144.033 53.0303 144.078H56.6976C56.8765 144.078 57.0427 144.023 57.1805 143.93H53.1402C53.077 143.927 53.0186 143.907 52.9699 143.875C52.912 143.862 52.8597 143.835 52.8174 143.796Z" fill="#0D2E1D"/>
<path d="M52.9766 143.867C53.0253 143.867 53.0837 143.867 53.1469 143.867H57.1871C57.2088 143.867 57.2303 143.867 57.2506 143.867H53.0403C53.0186 143.867 52.9972 143.867 52.9766 143.867Z" fill="#0D2D1C"/>
<path d="M57.9304 143.726C57.912 143.728 57.8936 143.729 57.8747 143.729H57.561V143.886C57.7024 143.873 57.8302 143.814 57.9304 143.726Z" fill="#10462A"/>
<path d="M57.7528 138.203V142.659C57.7547 142.781 57.7236 142.895 57.6676 142.994V143.001C57.6707 143.138 57.6312 143.267 57.561 143.375V143.761H57.8747C57.8936 143.761 57.912 143.76 57.9303 143.758C57.9331 143.755 57.9362 143.753 57.939 143.75C57.9393 143.745 57.9393 143.739 57.9393 143.734V138.203L57.7528 138.203Z" fill="#0F4429"/>
<path d="M57.7378 134.097V138.181H57.9243V134.571C57.9287 134.387 57.8572 134.219 57.7378 134.097Z" fill="#105C30"/>
<path d="M57.5558 143.726H57.501C57.4793 143.782 57.4517 143.836 57.4194 143.886H57.511C57.516 143.885 57.521 143.885 57.526 143.885C57.5405 143.834 57.5508 143.78 57.5558 143.726Z" fill="#0D3520"/>
<path d="M57.5487 143.442C57.5487 143.553 57.5278 143.659 57.4902 143.757H57.5451C57.5473 143.732 57.5484 143.707 57.5487 143.682V143.442Z" fill="#0D341F"/>
<path d="M57.4946 143.726H57.3919C57.3488 143.785 57.2987 143.839 57.2422 143.886H57.4131C57.4454 143.836 57.4729 143.782 57.4946 143.726Z" fill="#0E301E"/>
<path d="M57.5449 143.372C57.5419 143.376 57.5385 143.381 57.5355 143.385C57.5149 143.523 57.4614 143.65 57.3838 143.758H57.4865C57.5241 143.661 57.5449 143.555 57.5449 143.444V143.372Z" fill="#0E2F1E"/>
<path d="M52.8083 143.655H52.7109C52.7271 143.719 52.7621 143.776 52.8097 143.82C52.8089 143.81 52.8083 143.799 52.8083 143.788V143.655Z" fill="#0D2E1D"/>
<path d="M52.8285 143.655H52.8174V143.788C52.8174 143.799 52.8179 143.81 52.8188 143.82C52.8611 143.858 52.9134 143.886 52.9713 143.898C52.8911 143.844 52.8369 143.756 52.8285 143.655Z" fill="#0D2D1C"/>
<path d="M53.1639 143.655H52.8174C52.8257 143.756 52.88 143.844 52.9602 143.898C52.9808 143.902 53.0022 143.905 53.0239 143.905H57.2342C57.2907 143.859 57.3408 143.805 57.3839 143.745H53.3804C53.2964 143.742 53.2204 143.708 53.1639 143.655Z" fill="#0C2B1B"/>
<path d="M57.5431 143.372C57.4279 143.538 57.2378 143.649 57.0199 143.654H53.1714C53.2279 143.708 53.3039 143.742 53.3879 143.745H57.3914C57.4691 143.637 57.5225 143.51 57.5431 143.372Z" fill="#0C2B1B"/>
<path d="M52.7145 143.584H52.4985V143.584H52.7206C52.7181 143.584 52.7159 143.584 52.7145 143.584Z" fill="#0B2819"/>
<path d="M52.4985 143.301V143.648H52.7145C52.712 143.63 52.7109 143.612 52.7109 143.595V143.334H52.6318C52.5843 143.332 52.5392 143.32 52.4985 143.301Z" fill="#0D2518"/>
<path d="M57.6676 142.947C57.6384 142.998 57.6025 143.045 57.561 143.087V143.328C57.6312 143.22 57.6707 143.091 57.6676 142.954V142.947Z" fill="#0F3D24"/>
<path d="M57.551 143.088C57.5196 143.12 57.4851 143.148 57.4478 143.172C57.3031 143.441 57.02 143.624 56.6938 143.626H57.0184C57.2363 143.621 57.4264 143.51 57.5416 143.343C57.5474 143.304 57.5508 143.262 57.551 143.221V143.088Z" fill="#0B2819"/>
<path d="M52.8145 143.584H52.7109C52.7123 143.584 52.7146 143.584 52.7171 143.584H52.8145V143.584Z" fill="#0B2719"/>
<path d="M53.1356 143.584H52.8175C52.8172 143.584 52.8175 143.584 52.8183 143.584H53.1648C53.1545 143.584 53.1445 143.584 53.1356 143.584Z" fill="#0C2618"/>
<path d="M57.4429 143.159C57.4334 143.166 57.4237 143.172 57.4137 143.178C57.2609 143.42 56.9912 143.581 56.6839 143.581H53.1357C53.1446 143.592 53.1547 143.603 53.165 143.613H56.6889C57.0151 143.61 57.2982 143.428 57.4429 143.159Z" fill="#0D2518"/>
<path d="M52.8181 143.301H52.7109V143.562C52.7109 143.579 52.7121 143.597 52.7146 143.614H52.8181V143.301Z" fill="#0C2417"/>
<path d="M53.0623 143.301H52.8174V143.609C52.8174 143.611 52.8174 143.613 52.8174 143.614H53.1355C53.0873 143.555 53.0598 143.479 53.0623 143.396V143.301Z" fill="#0C2417"/>
<path d="M57.4162 143.23C57.3235 143.284 57.2164 143.316 57.1014 143.319H53.0651V143.415C53.0626 143.497 53.0901 143.573 53.1383 143.633H56.6865C56.9937 143.633 57.2634 143.472 57.4162 143.23Z" fill="#0C2417"/>
<path d="M57.667 138.203V142.994C57.7229 142.895 57.7541 142.781 57.7522 142.659V138.203H57.667Z" fill="#0D3922"/>
<path d="M57.6494 134.026C57.6511 134.049 57.6516 134.072 57.6511 134.096V138.185H57.7362V134.1C57.7098 134.073 57.6806 134.048 57.6494 134.026Z" fill="#0D4D28"/>
<path d="M52.4985 143.088V143.275C52.5392 143.295 52.5843 143.307 52.6318 143.309H52.7109V143.136L52.6739 143.143H52.6683C52.6054 143.141 52.5472 143.121 52.4985 143.088Z" fill="#0C2417"/>
<path d="M57.561 138.203V143.134C57.6025 143.092 57.6384 143.045 57.6676 142.994V138.203L57.561 138.203Z" fill="#0D341F"/>
<path d="M57.561 133.955C57.561 133.961 57.5613 133.968 57.5613 133.975V138.175H57.6679V134.086C57.6685 134.063 57.6679 134.04 57.6662 134.017C57.6334 133.993 57.5983 133.972 57.561 133.955Z" fill="#0C4625"/>
<path d="M57.5578 142.805C57.5578 142.953 57.5205 143.093 57.4546 143.214C57.4919 143.19 57.5264 143.161 57.5578 143.13V142.805Z" fill="#0D2518"/>
<path d="M57.5519 142.734C57.5519 142.903 57.5032 143.061 57.4194 143.194C57.4295 143.188 57.4392 143.182 57.4487 143.175C57.5146 143.054 57.5519 142.914 57.5519 142.766V142.734Z" fill="#0C2417"/>
<path d="M52.8181 143.088L52.7109 143.109V143.282H52.8181V143.088Z" fill="#0C2417"/>
<path d="M53.0623 143.088L52.8174 143.135V143.33H53.0623V143.088Z" fill="#0C2215"/>
<path d="M57.5268 138.203V141.792C57.5268 142.159 56.5792 142.478 56.2227 142.478L53.0649 143.084V143.326H57.1013C57.2162 143.323 57.3234 143.291 57.4161 143.236C57.4998 143.103 57.5485 142.946 57.5485 142.777V138.203H57.5268Z" fill="#0C2215"/>
<path d="M56.8885 132.468H52.4102V132.888V132.639H53.2156C53.2643 132.607 53.3222 132.588 53.3845 132.585H57.2466C57.1448 132.515 57.0218 132.472 56.8885 132.468Z" fill="#1E9861"/>
<path d="M57.2552 132.61H53.3931C53.3307 132.612 53.2728 132.631 53.2241 132.663H56.897C57.0554 132.667 57.1992 132.727 57.31 132.823H57.45C57.4016 132.738 57.3351 132.666 57.2552 132.61Z" fill="#1A935C"/>
<path d="M57.453 132.822H57.313C57.3965 132.895 57.4613 132.988 57.4997 133.094H57.5365C57.529 132.996 57.4995 132.904 57.453 132.822Z" fill="#158955"/>
<path d="M52.4207 141.248H52.3569V142.44V141.407H52.4207V141.248Z" fill="#BFBEBE"/>
<path d="M52.3571 142.664V142.797C52.3546 142.873 52.3785 142.944 52.4208 143.001V142.847C52.3824 142.795 52.3591 142.732 52.3571 142.664Z" fill="#B9B9BA"/>
<path d="M52.4277 142.876V143.03C52.4453 143.049 52.465 143.066 52.4865 143.081V142.926C52.465 142.912 52.4453 142.895 52.4277 142.876Z" fill="#0C2417"/>
<path d="M52.4985 142.947V143.101C52.5472 143.134 52.6054 143.154 52.6683 143.156H52.6739L52.7109 143.148V142.994L52.6739 143.001H52.6683C52.6054 142.999 52.5472 142.979 52.4985 142.947Z" fill="#0C2215"/>
<path d="M52.8181 142.947L52.7109 142.967V143.122L52.8181 143.101V142.947Z" fill="#0C2215"/>
<path d="M53.0623 142.876L52.8174 142.923V143.078L53.0623 143.031V142.876Z" fill="#0C2216"/>
<path d="M57.5268 138.203V141.632C57.5268 142 56.5792 142.319 56.2227 142.319L53.0649 142.929V143.084L56.2227 142.478C56.5792 142.478 57.5268 142.159 57.5268 141.792V138.203Z" fill="#0C2216"/>
<path d="M53.2156 132.681H52.4102V132.93C52.4667 132.879 52.5412 132.847 52.6236 132.846H53.0845C53.1093 132.778 53.1555 132.72 53.2156 132.681Z" fill="#158955"/>
<path d="M56.887 132.681H53.2141C53.154 132.72 53.1078 132.778 53.083 132.846H53.0897C53.1056 132.843 53.1217 132.841 53.1381 132.841H57.3C57.1892 132.744 57.0453 132.685 56.887 132.681Z" fill="#0F8454"/>
<path d="M57.3109 132.822H53.149C53.1326 132.823 53.1164 132.824 53.1006 132.827H55.8915C56.2035 132.829 56.511 132.908 56.7863 133.056C56.7954 133.068 56.8113 133.081 56.833 133.094H57.4976C57.4592 132.988 57.3944 132.895 57.3109 132.822Z" fill="#137C4E"/>
<path d="M57.4996 133.105H56.835C56.8517 133.116 56.8717 133.127 56.8945 133.138C56.9502 133.151 57.0039 133.17 57.0551 133.193C57.1113 133.219 57.1645 133.25 57.2135 133.287C57.3106 133.334 57.4105 133.387 57.4973 133.446H57.5121C57.5207 133.446 57.5296 133.447 57.5382 133.447V133.311C57.5363 133.239 57.5229 133.17 57.4996 133.105Z" fill="#147549"/>
<path d="M56.8882 133.106C56.8882 133.106 56.8885 133.106 56.8885 133.106C56.9441 133.106 56.9978 133.106 57.0488 133.106C56.9976 133.106 56.9438 133.106 56.8882 133.106Z" fill="#12623D"/>
<path d="M57.0479 133.176C57.1041 133.202 57.1569 133.234 57.2059 133.27C57.2059 133.27 57.2062 133.27 57.2062 133.27C57.1572 133.234 57.1041 133.202 57.0479 133.176Z" fill="#12623D"/>
<path d="M56.8882 133.106C56.9697 133.147 57.0861 133.196 57.2066 133.254C57.1576 133.217 57.1047 133.186 57.0485 133.16C56.9976 133.137 56.9438 133.118 56.8882 133.106Z" fill="#125535"/>
<path d="M52.3569 142.451V142.654C52.3589 142.722 52.3823 142.785 52.4207 142.837V142.639C52.3814 142.586 52.3578 142.522 52.3569 142.451Z" fill="#AFAFB0"/>
<path d="M52.4207 141.46H52.3569V142.493C52.3578 142.563 52.3814 142.628 52.4207 142.681V141.46Z" fill="#AFAFAE"/>
<path d="M53.0845 132.822H52.6236C52.5412 132.824 52.4667 132.855 52.4102 132.907V142.637C52.4102 142.637 52.4104 142.637 52.4107 142.637V133.467H52.421V133.43C52.4227 133.429 52.4246 133.428 52.4266 133.428V133.099H52.8237C52.8438 132.962 52.9484 132.851 53.084 132.824C53.0842 132.823 53.0842 132.823 53.0845 132.822Z" fill="#136F47"/>
<path d="M53.0952 132.822C52.9596 132.85 52.855 132.96 52.835 133.098H53.0685C53.0712 133.097 53.0738 133.096 53.0763 133.096V132.938C53.0757 132.898 53.0824 132.858 53.0952 132.822Z" fill="#136A42"/>
<path d="M55.882 132.822H53.0911C53.0886 132.823 53.0864 132.823 53.0839 132.824C53.0711 132.86 53.0644 132.899 53.065 132.94V133.097C53.0858 133.093 53.1073 133.09 53.1295 133.089H56.8236C56.8019 133.076 56.786 133.063 56.7768 133.051C56.5016 132.903 56.194 132.824 55.882 132.822Z" fill="#146740"/>
<path d="M56.8235 133.105H53.1295C53.1072 133.105 53.0858 133.105 53.0649 133.105V133.105H56.6913C56.7573 133.105 56.8216 133.106 56.8831 133.106C56.8603 133.106 56.8402 133.105 56.8235 133.105Z" fill="#12623D"/>
<path d="M56.6989 133.105H56.6934C56.7613 133.105 56.8275 133.105 56.891 133.106C56.891 133.106 56.8907 133.106 56.8907 133.106C56.8292 133.105 56.7649 133.105 56.6989 133.105Z" fill="#125535"/>
<path d="M57.207 133.318C57.268 133.363 57.3228 133.417 57.3696 133.477H57.4909C57.4041 133.417 57.3042 133.365 57.207 133.318Z" fill="#12623D"/>
<path d="M52.8249 133.105H52.4277V133.434V133.318H52.4327V133.105H52.8249Z" fill="#125E3B"/>
<path d="M57.207 133.318C57.268 133.364 57.3228 133.417 57.3698 133.477C57.3231 133.417 57.2683 133.364 57.2073 133.318C57.2073 133.318 57.207 133.318 57.207 133.318Z" fill="#125535"/>
<path d="M52.8199 133.105H52.4277V133.318H52.8163V133.154C52.8163 133.137 52.8174 133.121 52.8199 133.105Z" fill="#115333"/>
<path d="M53.0545 133.105H52.821C52.8185 133.121 52.8174 133.137 52.8174 133.154V133.318H52.8246C52.8602 133.214 52.9465 133.133 53.0545 133.105Z" fill="#0F5032"/>
<path d="M53.0726 133.105H53.0648C52.9569 133.133 52.8706 133.214 52.835 133.318H53.0726V133.105Z" fill="#0F4E30"/>
<path d="M56.6858 133.105H53.0649V133.318H56.6858C56.8255 133.319 56.9574 133.353 57.0743 133.413C57.1144 133.417 57.1533 133.425 57.1909 133.436H57.3646C57.3175 133.376 57.2627 133.323 57.2018 133.277C57.0812 133.219 56.9649 133.169 56.8834 133.128C56.8199 133.113 56.7537 133.105 56.6858 133.105Z" fill="#0F4C2F"/>
<path d="M52.8163 133.318H52.4277V133.432C52.4436 133.428 52.4597 133.426 52.4756 133.426C52.4954 133.426 52.5154 133.429 52.5343 133.435H52.806C52.8051 133.403 52.8087 133.372 52.8163 133.342V133.318Z" fill="#0F4A2E"/>
<path d="M53.0623 133.318H52.8246C52.8221 133.326 52.8196 133.334 52.8174 133.342V133.435H53.0623V133.318Z" fill="#0C462C"/>
<path d="M56.6858 133.318H53.0649V133.435H57.0053L57.0164 133.409H57.0273C57.0431 133.41 57.0587 133.411 57.0743 133.412C56.9574 133.353 56.8255 133.319 56.6858 133.318Z" fill="#0C442B"/>
<path d="M57.4876 133.459H57.3662C57.3757 133.459 57.3849 133.46 57.3938 133.46H57.5285V133.46C57.5151 133.46 57.5018 133.459 57.4876 133.459Z" fill="#125D3A"/>
<path d="M57.5361 133.46H57.4014C57.4298 133.5 57.4545 133.542 57.4757 133.587C57.4974 133.609 57.5177 133.632 57.5361 133.657V133.46Z" fill="#0C4726"/>
<path d="M57.4014 133.46C57.4295 133.5 57.4542 133.542 57.4754 133.587C57.4754 133.587 57.4754 133.587 57.4757 133.587C57.4545 133.542 57.4298 133.5 57.4014 133.46Z" fill="#0A3E21"/>
<path d="M57.3631 133.459H57.1895C57.2226 133.459 57.2549 133.46 57.2855 133.46H57.3907C57.3818 133.46 57.3726 133.459 57.3631 133.459Z" fill="#0E492E"/>
<path d="M57.4006 133.46H57.2954C57.3625 133.492 57.4229 133.535 57.4746 133.587C57.4535 133.542 57.4287 133.5 57.4006 133.46Z" fill="#0A371E"/>
<path d="M57.083 133.389C57.0972 133.389 57.1114 133.389 57.1253 133.389H57.1996C57.162 133.389 57.1231 133.389 57.083 133.389Z" fill="#0C472C"/>
<path d="M52.4756 133.459C52.4597 133.459 52.4436 133.459 52.4277 133.459V133.459H52.806V133.459H52.5343C52.5154 133.459 52.4954 133.459 52.4756 133.459Z" fill="#0C462C"/>
<path d="M52.806 133.46H52.4277V133.46H52.8051C52.8054 133.46 52.8057 133.46 52.806 133.46V133.46Z" fill="#09361D"/>
<path d="M53.0623 133.459H52.8174V133.46H52.8744C52.9195 133.459 52.971 133.459 53.0253 133.459H53.0623Z" fill="#0B4229"/>
<path d="M57.0273 133.389H57.0164L57.0053 133.389H53.0649H57.1166C57.1027 133.389 57.0885 133.389 57.0743 133.389C57.0587 133.389 57.0431 133.389 57.0273 133.389Z" fill="#0B4229"/>
<path d="M52.8051 133.53H52.4277V133.759H52.6991C52.7024 133.669 52.7425 133.587 52.8051 133.53Z" fill="#0C311C"/>
<path d="M52.6991 133.743H52.4277V134.041H52.536C52.5736 133.98 52.6306 133.931 52.6988 133.904V133.754C52.6991 133.75 52.6991 133.746 52.6991 133.743Z" fill="#0C301B"/>
<path d="M52.4277 142.664V142.861C52.4453 142.88 52.465 142.897 52.4865 142.912V142.714C52.465 142.699 52.4453 142.682 52.4277 142.664Z" fill="#0C2215"/>
<path d="M52.536 134.026H52.4277V134.35H52.4865V134.201C52.4865 134.137 52.5046 134.077 52.536 134.026Z" fill="#0C2F1B"/>
<path d="M52.4865 138.203H52.4277V142.703C52.4453 142.722 52.465 142.739 52.4865 142.754V138.203Z" fill="#0C2215"/>
<path d="M52.4865 134.38H52.4277V138.176H52.4865V134.38Z" fill="#0D2D1A"/>
<path d="M57.4722 133.601C57.4983 133.656 57.5186 133.715 57.5326 133.776V133.671C57.5142 133.646 57.4939 133.623 57.4722 133.601Z" fill="#094122"/>
<path d="M57.4722 133.601C57.4983 133.656 57.5189 133.715 57.5328 133.776V133.776C57.5189 133.715 57.4986 133.656 57.4724 133.601C57.4722 133.601 57.4722 133.601 57.4722 133.601Z" fill="#0A3A20"/>
<path d="M57.193 133.459H57.1187C57.1384 133.459 57.1579 133.46 57.1768 133.46H57.289C57.2584 133.46 57.2261 133.459 57.193 133.459Z" fill="#0C462B"/>
<path d="M57.2835 133.46H57.1714C57.3297 133.569 57.45 133.731 57.5076 133.919C57.5129 133.921 57.5182 133.923 57.5234 133.926V133.762C57.5095 133.701 57.4889 133.642 57.4628 133.587C57.411 133.535 57.3506 133.492 57.2835 133.46Z" fill="#09351D"/>
<path d="M53.076 133.459H53.039C52.9848 133.459 52.9333 133.459 52.8882 133.46H53.076V133.459Z" fill="#0A4128"/>
<path d="M53.0623 133.46H52.8744C52.8541 133.46 52.8349 133.46 52.8174 133.46V133.46H53.0623V133.46Z" fill="#0B311C"/>
<path d="M57.1166 133.459H53.0649V133.46H57.1748C57.1558 133.46 57.1364 133.459 57.1166 133.459Z" fill="#0A4128"/>
<path d="M57.1748 133.46H53.0649V133.507H56.6858C56.9827 133.507 57.2455 133.658 57.4007 133.887C57.4389 133.895 57.4756 133.905 57.511 133.919C57.4534 133.731 57.3331 133.569 57.1748 133.46Z" fill="#0B311C"/>
<path d="M52.8178 133.53H52.817C52.7544 133.587 52.7143 133.669 52.7109 133.759H52.8178V133.53Z" fill="#0B311C"/>
<path d="M52.8181 133.743H52.7112C52.7112 133.746 52.7112 133.75 52.7109 133.754V133.904C52.7443 133.891 52.7805 133.883 52.8181 133.881V133.743Z" fill="#0C2F1B"/>
<path d="M53.0623 133.53H52.8174V133.759H53.0623V133.53Z" fill="#0C2F1B"/>
<path d="M56.6858 133.53H53.0649V133.759H56.6858C56.8569 133.76 57.0167 133.811 57.1508 133.898H57.2933C57.3301 133.899 57.366 133.903 57.4007 133.91C57.2454 133.681 56.9827 133.53 56.6858 133.53Z" fill="#0C2F1B"/>
<path d="M53.0623 133.743H52.8174V133.881H53.0623V133.743Z" fill="#0D2D1A"/>
<path d="M56.6858 133.743H53.0649V133.881H57.1508C57.0167 133.794 56.8569 133.744 56.6858 133.743Z" fill="#0D2D1A"/>
<path d="M52.7146 133.955C52.6464 133.982 52.5893 134.03 52.5518 134.092H52.7146V133.955Z" fill="#0C2F1B"/>
<path d="M52.4985 142.734V142.932C52.5472 142.965 52.6054 142.984 52.6683 142.987H52.6739L52.7109 142.979V142.782L52.6739 142.789C52.609 142.788 52.5489 142.768 52.4985 142.734Z" fill="#0C2215"/>
<path d="M52.7109 134.026H52.5481C52.5166 134.077 52.4985 134.137 52.4985 134.201V134.35H52.7109V134.026Z" fill="#0D2D1A"/>
<path d="M52.7109 138.203H52.4985V142.754C52.5489 142.787 52.609 142.808 52.6739 142.809L52.7109 142.802V138.203Z" fill="#0C2215"/>
<path d="M52.7109 134.38H52.4985V138.176H52.7109V134.38Z" fill="#0D2D1A"/>
<path d="M57.4019 133.884C57.4606 133.971 57.5037 134.068 57.5279 134.173V133.976C57.5232 133.956 57.5179 133.936 57.5121 133.916C57.4767 133.903 57.44 133.892 57.4019 133.884Z" fill="#0C301B"/>
<path d="M52.8181 133.884C52.7805 133.886 52.7443 133.894 52.7109 133.907V134.044H52.8181V133.884Z" fill="#0C2F1B"/>
<path d="M57.2963 133.884H57.1538C57.3408 134.005 57.4786 134.196 57.5298 134.42V134.185C57.5056 134.08 57.4625 133.983 57.4037 133.897C57.3689 133.89 57.333 133.885 57.2963 133.884Z" fill="#0C2F1B"/>
<path d="M53.0623 133.884H52.8174V134.044H53.0623V133.884Z" fill="#0D2D1A"/>
<path d="M57.1508 133.884H53.0649V134.044H56.6858C57.0954 134.047 57.4389 134.333 57.5268 134.718V134.42C57.4756 134.196 57.3378 134.005 57.1508 133.884Z" fill="#0C2D1A"/>
<path d="M52.8181 142.734L52.7109 142.755V142.952L52.8181 142.931V142.734Z" fill="#0C2215"/>
<path d="M53.0623 142.734L52.8174 142.781V142.978L53.0623 142.931V142.734Z" fill="#0C2216"/>
<path d="M57.5268 138.203V141.44C57.5268 141.807 56.5792 142.127 56.2227 142.127L53.0649 142.732V142.929L56.2227 142.319C56.5792 142.319 57.5268 142 57.5268 141.632V138.203Z" fill="#0C2216"/>
<path d="M52.8181 134.026H52.7109V134.35H52.8181V134.026Z" fill="#0D2D1A"/>
<path d="M52.8181 138.203H52.7109V142.802L52.8181 142.781V138.203Z" fill="#0C2215"/>
<path d="M52.8181 134.38H52.7109V138.176H52.8181V134.38Z" fill="#0C2D1A"/>
<path d="M53.0623 134.026H52.8174V134.35H53.0623V134.026Z" fill="#0D2D1A"/>
<path d="M56.6858 134.026H53.0649V134.35H56.6858C57.096 134.353 57.4392 134.64 57.5268 135.025V134.7C57.4389 134.315 57.0954 134.028 56.6858 134.026Z" fill="#0C2C1A"/>
<path d="M53.0623 138.203H52.8174V142.779L53.0623 142.732V138.203Z" fill="#0C2216"/>
<path d="M53.0623 134.38H52.8174V138.176H53.0623V134.38Z" fill="#0C2C1A"/>
<path d="M57.347 138.203H53.0649V142.732L56.2227 142.127C56.5792 142.127 57.5268 141.807 57.5268 141.44V138.203H57.347Z" fill="#0C2216"/>
<path d="M56.6858 134.38H53.0649V138.176H57.5268V135.054C57.4392 134.67 57.096 134.382 56.6858 134.38Z" fill="#0C2C1A"/>
<path d="M48.1345 132.822H56.6959C57.1798 132.836 57.5622 133.238 57.5531 133.722V142.662C57.5711 143.146 57.196 143.555 56.7117 143.578H48.1345C47.6519 143.569 47.2681 143.171 47.2773 142.689V133.722C47.2681 133.238 47.6502 132.836 48.1345 132.822Z" fill="#0F7D40"/>
<path d="M49.6135 141.555L51.6313 138.265L49.7786 135.017H51.2698L52.2761 137.094C52.3479 137.243 52.4117 137.396 52.4682 137.551C52.5319 137.397 52.6065 137.237 52.6811 137.094L53.7462 135.033H55.1149L53.2352 138.264L55.1786 141.55H53.72L52.5483 139.287C52.4949 139.188 52.447 139.087 52.405 138.983C52.3696 139.086 52.3234 139.184 52.2664 139.276L51.0688 141.56L49.6135 141.555Z" fill="white"/>
<path d="M546.025 110.803H33.8074V116.864H546.025V110.803Z" fill="#212121"/>
<path d="M546.025 391.104H33.8074V397.164H546.025V391.104Z" fill="#212121"/>
<path d="M37.2292 110.803H33.8074V397.157H37.2292V110.803Z" fill="#212121"/>
<path d="M546.021 110.803H542.6V397.157H546.021V110.803Z" fill="#212121"/>
</svg>
