<svg width="580" height="580" viewBox="0 0 580 580" fill="none" xmlns="http://www.w3.org/2000/svg">
<path d="M360.824 381.262H219.022V461.085H360.824V381.262Z" fill="#3C3C3C"/>
<path d="M508.379 453.196H71.4557V469.073H508.379V453.196Z" fill="#5D5D5D"/>
<path d="M546.025 110.803H33.8074V397.157H546.025V110.803Z" fill="#212121"/>
<path d="M542.597 116.892H37.2235V391.126H542.597V116.892Z" fill="#E6E6E6"/>
<path d="M542.597 116.821H37.2235V391.055H542.597V116.821Z" fill="#E6E6E6"/>
<path d="M232.98 201.667H206.841V209.424H225.379C224.463 220.3 215.414 224.939 206.872 224.939C195.943 224.939 186.407 216.341 186.407 204.289C186.407 192.548 195.498 183.506 206.896 183.506C215.69 183.506 220.872 189.112 220.872 189.112L226.303 183.488C226.303 183.488 219.332 175.728 206.618 175.728C190.429 175.728 177.905 189.391 177.905 204.15C177.905 218.612 189.686 232.714 207.031 232.714C222.286 232.714 233.453 222.263 233.453 206.809C233.453 203.549 232.98 201.665 232.98 201.665V201.667Z" fill="#547DBF"/>
<path d="M254.499 203.242C259.773 203.242 264.771 207.507 264.771 214.378C264.771 221.103 259.795 225.489 254.475 225.489C248.629 225.489 244.017 220.808 244.017 214.325C244.017 207.98 248.572 203.242 254.499 203.242ZM254.392 196.047C243.666 196.047 235.979 204.433 235.979 214.212C235.979 224.137 243.435 232.678 254.518 232.678C264.551 232.678 272.77 225.01 272.77 214.426C272.77 202.295 263.21 196.047 254.392 196.047Z" fill="#EB4335"/>
<path d="M294.536 203.242C299.81 203.242 304.809 207.507 304.809 214.378C304.809 221.103 299.831 225.489 294.511 225.489C288.666 225.489 284.055 220.808 284.055 214.325C284.055 207.98 288.609 203.242 294.536 203.242ZM294.43 196.047C283.704 196.047 276.017 204.433 276.017 214.212C276.017 224.137 283.472 232.678 294.555 232.678C304.589 232.678 312.807 225.01 312.807 214.426C312.807 202.295 303.246 196.047 294.43 196.047Z" fill="#FABC13"/>
<path d="M334.421 203.227C339.248 203.227 344.205 207.348 344.205 214.387C344.205 221.541 339.259 225.484 334.315 225.484C329.066 225.484 324.183 221.222 324.183 214.455C324.183 207.423 329.255 203.227 334.42 203.227H334.421ZM333.709 196.047C323.864 196.047 316.125 204.67 316.125 214.348C316.125 225.372 325.097 232.682 333.539 232.682C338.759 232.682 341.535 230.61 343.584 228.232V231.844C343.584 238.163 339.747 241.947 333.956 241.947C328.362 241.947 325.556 237.787 324.581 235.427L317.542 238.369C320.039 243.649 325.065 249.155 334.015 249.155C343.804 249.155 351.264 242.99 351.264 230.06V197.148H343.584V200.251C341.224 197.706 337.994 196.047 333.709 196.047Z" fill="#547DBF"/>
<path d="M385.727 203.092C389.074 203.092 391.482 204.87 392.505 207.004L376.104 213.858C375.397 208.552 380.425 203.092 385.727 203.092ZM385.407 196.047C376.12 196.047 368.323 203.436 368.323 214.339C368.323 225.875 377.015 232.717 386.299 232.717C394.049 232.717 398.804 228.478 401.643 224.679L395.312 220.466C393.669 223.016 390.922 225.508 386.338 225.508C381.189 225.508 378.821 222.688 377.355 219.958L401.913 209.767L400.639 206.781C398.266 200.933 392.732 196.048 385.408 196.048L385.407 196.047Z" fill="#EB4335"/>
<path d="M364.69 177.639H356.624V231.625H364.69V177.639Z" fill="#30A851"/>
<path fill-rule="evenodd" clip-rule="evenodd" d="M487.921 279.941C487.921 274.473 483.482 270.034 478.014 270.034H101.788C96.3208 270.034 91.8817 274.473 91.8817 279.941V299.753C91.8817 305.221 96.3208 309.66 101.788 309.66H478.014C483.482 309.66 487.921 305.221 487.921 299.753V279.941Z" fill="white"/>
<path fill-rule="evenodd" clip-rule="evenodd" d="M115.939 276.902C110.437 276.902 105.971 281.368 105.971 286.87C105.971 292.371 110.437 296.838 115.939 296.838C121.44 296.838 125.907 292.371 125.907 286.87C125.907 281.368 121.44 276.902 115.939 276.902ZM115.939 279.221C120.16 279.221 123.587 282.648 123.587 286.87C123.587 291.091 120.16 294.518 115.939 294.518C111.718 294.518 108.29 291.091 108.29 286.87C108.29 282.648 111.718 279.221 115.939 279.221Z" fill="#BFBFBF"/>
<path fill-rule="evenodd" clip-rule="evenodd" d="M121.356 293.891L129.881 302.417C130.334 302.869 131.069 302.869 131.521 302.417C131.974 301.964 131.974 301.23 131.521 300.777L122.996 292.251C122.543 291.799 121.808 291.799 121.356 292.251C120.903 292.704 120.903 293.439 121.356 293.891Z" fill="#BFBFBF"/>
<path fill-rule="evenodd" clip-rule="evenodd" d="M284.831 326.409C284.831 323.781 282.698 321.648 280.07 321.648H214.685C212.058 321.648 209.924 323.781 209.924 326.409V335.931C209.924 338.559 212.058 340.692 214.685 340.692H280.07C282.698 340.692 284.831 338.559 284.831 335.931V326.409Z" fill="#CCCCCC"/>
<path fill-rule="evenodd" clip-rule="evenodd" d="M369.899 326.409C369.899 323.781 367.765 321.648 365.138 321.648H299.753C297.125 321.648 294.991 323.781 294.991 326.409V335.931C294.991 338.559 297.125 340.692 299.753 340.692H365.138C367.765 340.692 369.899 338.559 369.899 335.931V326.409Z" fill="#CCCCCC"/>
<path d="M546.025 110.803H33.8074V116.864H546.025V110.803Z" fill="#212121"/>
<path d="M546.025 391.104H33.8074V397.164H546.025V391.104Z" fill="#212121"/>
<path d="M37.2292 110.803H33.8074V397.157H37.2292V110.803Z" fill="#212121"/>
<path d="M546.021 110.803H542.599V397.157H546.021V110.803Z" fill="#212121"/>
</svg>
