<svg width="180" height="184" viewBox="0 0 180 184" fill="none" xmlns="http://www.w3.org/2000/svg">
<g id="UnidadLectora 3" filter="url(#filter0_d)">
<rect id="bg" width="180" height="180" rx="20"/>
<g id="Unidad lectora">
<path id="Vector" fill-rule="evenodd" clip-rule="evenodd" d="M14.6992 93.6469L113.783 37.3904L164.501 67.5884L66.8817 122.551L14.6994 93.6469H14.6992Z" fill="#414042"/>
<path id="Vector_2" fill-rule="evenodd" clip-rule="evenodd" d="M165.579 44.7787V67.9442L159.648 71.5807L159.284 71.4595V67.7576L159.057 67.627L154.066 70.4633V74.3732L81.7707 115.067L81.4062 114.945V111.284L81.1793 111.154L76.189 113.991V117.859L66.5118 123.263V101.075L165.578 44.7787H165.579Z" fill="#939598"/>
<path id="Vector_3" d="M14.9443 71.9154L114.029 15.6589L166 44.9432L66.8885 101.201L14.9442 71.9154H14.9443Z" fill="url(#paint0_linear)"/>
<path id="Vector_4" fill-rule="evenodd" clip-rule="evenodd" d="M165.956 44.9107V68.0761L159.661 71.5907V67.6446L154.443 70.5954V74.5044L81.7841 115.077V111.177L76.5661 114.122V117.99L66.8888 123.394V101.208L165.955 44.9107H165.956Z" fill="#B1B3B6"/>
<path id="Vector_5" d="M70.3384 100.275V122.463L66.8805 124.299L14.956 93.0091L13.9453 71.6959L17.3369 69.884L70.3384 100.275Z" fill="url(#paint1_linear)"/>
<path id="Vector_6" fill-rule="evenodd" clip-rule="evenodd" d="M70.3393 100.277V122.465L66.8814 124.3L51.6597 115.128V110.72L70.1889 100.191L70.3393 100.277Z" fill="#414042"/>
<path id="Vector_7" fill-rule="evenodd" clip-rule="evenodd" d="M66.8805 102.111V124.297L13.9453 93.5378V71.6934L66.8805 102.111Z" fill="#58595B"/>
<path id="Vector_8" fill-rule="evenodd" clip-rule="evenodd" d="M109.326 22.4086L110.465 21.7605C112.034 20.8666 113.817 20.8624 115.39 21.7493L155.308 44.2426C155.845 44.5451 156.156 45.0738 156.157 45.6909C156.158 46.3072 155.849 46.8366 155.313 47.1417L154.157 47.7976C152.588 48.688 150.809 48.6906 149.238 47.8045L109.333 25.3069C108.797 25.0043 108.488 24.4757 108.486 23.8603C108.484 23.2432 108.791 22.7137 109.326 22.4086Z" fill="#BCBEC0"/>
<path id="Vector_9" d="M111.649 24.5001L112.284 24.1391C113.158 23.6406 114.151 23.638 115.028 24.1331L153.201 45.3491C153.501 45.5158 153.673 45.8124 153.673 46.1562C153.674 46.5 153.503 46.7948 153.204 46.965L152.56 47.3303C151.685 47.8262 150.693 47.8271 149.818 47.3346L111.653 26.1142C111.353 25.9483 111.182 25.6518 111.181 25.3089C111.18 24.9659 111.351 24.6703 111.649 24.5001Z" fill="url(#paint2_linear)"/>
<path id="Vector_10" fill-rule="evenodd" clip-rule="evenodd" d="M27.5091 68.605L28.6471 67.9569C30.2165 67.0621 31.9991 67.0587 33.572 67.9448L73.4909 90.4381C74.0281 90.7407 74.3376 91.2701 74.3384 91.8872C74.3392 92.5035 74.0316 93.033 73.4952 93.3372L72.3392 93.9931C70.7706 94.8835 68.9906 94.886 67.4194 94.0008L27.5151 71.5023C26.9788 71.1998 26.6693 70.672 26.6676 70.0558C26.6659 69.4395 26.9736 68.9101 27.5091 68.605Z" fill="#BCBEC0"/>
<path id="Vector_11" d="M29.8313 70.6954L30.4655 70.3344C31.3405 69.8367 32.3332 69.8342 33.2099 70.3283L71.3832 91.5453C71.684 91.712 71.8551 92.0086 71.8559 92.3524C71.8559 92.6961 71.6849 92.991 71.3857 93.1603L70.742 93.5264C69.8679 94.0224 68.876 94.0232 68.0002 93.5298L29.8356 72.3104C29.5356 72.1437 29.3636 71.848 29.3628 71.505C29.3619 71.1612 29.533 70.8656 29.8313 70.6954Z" fill="url(#paint3_linear)"/>
<path id="Vector_12" fill-rule="evenodd" clip-rule="evenodd" d="M37.2903 62.7428L38.4282 62.0948C39.9976 61.2009 41.7803 61.1966 43.3541 62.0836L83.2721 84.5769C83.8093 84.8794 84.1196 85.408 84.1196 86.0252C84.1204 86.6414 83.8128 87.1709 83.2764 87.476L82.1204 88.1318C80.5518 89.0223 78.7717 89.0248 77.2014 88.1387L37.2971 65.6411C36.7599 65.3385 36.4514 64.81 36.4496 64.1945C36.448 63.5774 36.7548 63.048 37.2903 62.7428Z" fill="#BCBEC0"/>
<path id="Vector_13" d="M39.6132 64.8344L40.2475 64.4734C41.1216 63.9749 42.1152 63.9723 42.9918 64.4674L81.1651 85.6834C81.4651 85.8502 81.637 86.1467 81.637 86.4905C81.6378 86.8343 81.4659 87.1291 81.1677 87.2993L80.5231 87.6645C79.649 88.1605 78.6572 88.1622 77.7813 87.6688L39.6167 66.4486C39.3166 66.2827 39.1456 65.9861 39.1448 65.6432C39.143 65.3003 39.315 65.0046 39.6132 64.8344Z" fill="url(#paint4_linear)"/>
<path id="Vector_14" fill-rule="evenodd" clip-rule="evenodd" d="M89.2799 39.0869L109.502 27.6838L144.263 47.2711L124.022 58.675L89.2799 39.0869Z" fill="#E6E7E8"/>
<path id="Vector_15" fill-rule="evenodd" clip-rule="evenodd" d="M63.5607 104.244L63.7386 111.286C63.748 111.653 63.5555 111.969 63.2367 112.152C62.9187 112.335 62.5524 112.334 62.2371 112.151L18.6678 86.7995C17.7198 86.2478 16.9987 84.6413 16.9987 83.5446V77.4455C16.9987 77.0786 17.18 76.764 17.4972 76.5809C17.8152 76.3978 18.1779 76.3969 18.4959 76.5792L62.0566 101.644C63.0114 102.193 63.5341 103.142 63.5607 104.244Z" fill="#231F20"/>
<path id="Vector_16" d="M62.9105 104.35V109.976C62.9105 110.3 62.7498 110.579 62.4687 110.741C62.1876 110.901 61.8671 110.9 61.5869 110.739L19.2381 86.1242C18.4018 85.6378 17.9222 84.8066 17.9222 83.838V78.4583C17.9222 78.1343 18.0821 77.8576 18.3623 77.696C18.6425 77.5344 18.9622 77.5327 19.2433 77.6942L61.5843 102.056C62.4267 102.541 62.9105 103.377 62.9105 104.35Z" fill="url(#paint5_linear)"/>
<path id="Vector_17" fill-rule="evenodd" clip-rule="evenodd" d="M62.4024 104.633V110.259C62.4024 110.582 62.2408 110.862 61.9598 111.023C61.6787 111.184 61.3581 111.184 61.0779 111.022L18.7292 86.407C17.8937 85.9206 17.4133 85.0893 17.4133 84.1207V78.741C17.4133 78.4171 17.5731 78.1403 17.8533 77.9787C18.1336 77.8171 18.4533 77.8154 18.7344 77.977L61.0754 102.339C61.9186 102.824 62.4024 103.661 62.4024 104.633Z" fill="#58595B"/>
<path id="Vector_18" fill-rule="evenodd" clip-rule="evenodd" d="M60.9142 118.381C59.8897 118.697 58.4999 117.642 57.8089 116.022C57.1186 114.403 57.3903 112.834 58.4148 112.517C59.4393 112.201 60.8292 113.257 61.5202 114.876C62.2103 116.495 61.9397 118.064 60.9142 118.381Z" fill="#231F20"/>
<path id="Vector_19" d="M60.6414 117.746C59.8412 117.992 58.7548 117.168 58.2159 115.903C57.6761 114.638 57.8884 113.412 58.6886 113.164C59.4888 112.918 60.5752 113.743 61.1141 115.007C61.654 116.272 61.4416 117.498 60.6414 117.746Z" fill="url(#paint6_linear)"/>
<path id="Vector_20" fill-rule="evenodd" clip-rule="evenodd" d="M60.246 117.953C59.4458 118.2 58.3594 117.375 57.8196 116.11C57.2807 114.845 57.4921 113.619 58.2924 113.372C59.0934 113.124 60.1798 113.95 60.7187 115.215C61.2576 116.479 61.0462 117.706 60.246 117.953Z" fill="#58595B"/>
<path id="Vector_21" fill-rule="evenodd" clip-rule="evenodd" d="M27.0738 98.4625C26.7661 98.558 26.3492 98.2408 26.1413 97.7543C25.9341 97.2687 26.0157 96.7977 26.3234 96.7022C26.6312 96.6077 27.048 96.924 27.256 97.4105C27.4631 97.8969 27.3815 98.368 27.0738 98.4625Z" fill="#231F20"/>
<path id="Vector_22" fill-rule="evenodd" clip-rule="evenodd" d="M27.3091 98.2074C27.0659 98.2831 26.735 98.0312 26.5699 97.6462C26.4058 97.2603 26.4703 96.8864 26.7143 96.8116L26.7891 96.7987C26.9748 96.9242 27.1484 97.1374 27.2601 97.4021C27.3891 97.703 27.4062 97.9978 27.3289 98.2006L27.3091 98.2074Z" fill="#6E9830"/>
<path id="Vector_23" fill-rule="evenodd" clip-rule="evenodd" d="M103.906 43.9829L109.545 40.8019L129.86 51.966L124.214 55.147L103.906 43.9829Z" fill="#90C440"/>
<path id="Vector_24" fill-rule="evenodd" clip-rule="evenodd" d="M90.8026 104.545C90.2577 105.311 90.2018 106.208 90.6771 106.546C91.1533 106.885 91.9818 106.538 92.5268 105.772C93.0726 105.005 93.1285 104.109 92.6522 103.77C92.1769 103.432 91.3483 103.779 90.8026 104.545Z" fill="#808285"/>
<path id="Vector_25" fill-rule="evenodd" clip-rule="evenodd" d="M90.9367 104.659C90.55 105.203 90.5095 105.839 90.8474 106.079C91.1852 106.319 91.773 106.073 92.1598 105.529C92.5466 104.985 92.587 104.35 92.2483 104.109C91.9106 103.869 91.3236 104.115 90.9367 104.659Z" fill="#58595B"/>
<path id="Vector_26" fill-rule="evenodd" clip-rule="evenodd" d="M90.8166 106.054C91.1475 106.078 91.5669 105.835 91.8661 105.415C92.2408 104.888 92.2898 104.276 91.9864 104.019C91.6555 103.996 91.236 104.238 90.937 104.659C90.5622 105.185 90.5123 105.798 90.8166 106.054Z" fill="#414042"/>
<path id="Vector_27" fill-rule="evenodd" clip-rule="evenodd" d="M90.8026 91.1825C90.2577 91.9483 90.2018 92.8447 90.6771 93.1834C91.1533 93.5221 91.9818 93.1748 92.5268 92.4089C93.0726 91.6423 93.1285 90.7458 92.6522 90.4072C92.1769 90.0686 91.3483 90.4149 90.8026 91.1825Z" fill="#808285"/>
<path id="Vector_28" fill-rule="evenodd" clip-rule="evenodd" d="M90.9367 91.2774C90.55 91.8206 90.5095 92.4566 90.8474 92.6973C91.1852 92.9371 91.773 92.6913 92.1598 92.1472C92.5466 91.6032 92.587 90.9679 92.2483 90.7273C91.9106 90.4875 91.3236 90.7333 90.9367 91.2774Z" fill="#58595B"/>
<path id="Vector_29" fill-rule="evenodd" clip-rule="evenodd" d="M90.8166 92.6723C91.1475 92.6955 91.5669 92.4531 91.8661 92.0328C92.2408 91.506 92.2898 90.894 91.9864 90.637C91.6555 90.6138 91.236 90.8561 90.937 91.2773C90.5622 91.8033 90.5123 92.4161 90.8166 92.6723Z" fill="#414042"/>
<path id="Vector_30" fill-rule="evenodd" clip-rule="evenodd" d="M140.411 76.8391C139.865 77.6058 139.809 78.5023 140.285 78.8401C140.761 79.1796 141.589 78.8324 142.135 78.0657C142.68 77.299 142.736 76.4025 142.26 76.0639C141.784 75.7252 140.956 76.0725 140.411 76.8391Z" fill="#808285"/>
<path id="Vector_31" fill-rule="evenodd" clip-rule="evenodd" d="M140.544 76.9339C140.157 77.478 140.117 78.114 140.454 78.3538C140.792 78.5944 141.38 78.3486 141.767 77.8046C142.154 77.2605 142.194 76.6245 141.856 76.3847C141.518 76.144 140.93 76.3898 140.544 76.9339Z" fill="#58595B"/>
<path id="Vector_32" fill-rule="evenodd" clip-rule="evenodd" d="M140.424 78.3291C140.754 78.3523 141.175 78.11 141.474 77.6888C141.848 77.1628 141.898 76.5499 141.594 76.2938C141.263 76.2706 140.843 76.513 140.544 76.9333C140.169 77.4602 140.12 78.0722 140.424 78.3291Z" fill="#414042"/>
<path id="Vector_33" fill-rule="evenodd" clip-rule="evenodd" d="M140.411 63.4572C139.865 64.2239 139.809 65.1204 140.285 65.4582C140.761 65.7968 141.589 65.4505 142.135 64.6838C142.68 63.9171 142.736 63.0206 142.26 62.682C141.784 62.3433 140.956 62.6906 140.411 63.4572Z" fill="#808285"/>
<path id="Vector_34" fill-rule="evenodd" clip-rule="evenodd" d="M140.544 63.5711C140.157 64.1152 140.117 64.7512 140.454 64.991C140.792 65.2317 141.38 64.985 141.767 64.4418C142.154 63.8978 142.194 63.2617 141.856 63.0211C141.518 62.7812 140.93 63.0271 140.544 63.5711Z" fill="#58595B"/>
<path id="Vector_35" fill-rule="evenodd" clip-rule="evenodd" d="M140.424 64.966C140.754 64.9892 141.175 64.7469 141.474 64.3257C141.848 63.7997 141.898 63.1869 141.594 62.9307C141.263 62.9075 140.843 63.1491 140.544 63.5702C140.169 64.0971 140.12 64.7091 140.424 64.966Z" fill="#414042"/>
<path id="Vector_36" fill-rule="evenodd" clip-rule="evenodd" d="M80.8418 101.04V108.975C80.8418 109.817 80.4078 110.539 79.6643 110.933L77.7906 111.929C77.4374 112.117 77.042 112.106 76.699 111.899C76.3561 111.693 76.1619 111.35 76.1619 110.95V103.048C76.1619 102.216 76.5838 101.504 77.3127 101.104L79.1994 100.068C79.5526 99.8742 79.9505 99.881 80.2978 100.086C80.6451 100.291 80.8418 100.637 80.8418 101.04Z" fill="#939598"/>
<path id="Vector_37" fill-rule="evenodd" clip-rule="evenodd" d="M79.814 102.208V107.984C79.814 108.596 79.4977 109.122 78.9562 109.409L77.593 110.133C77.3352 110.27 77.0481 110.262 76.7988 110.112C76.5487 109.962 76.4069 109.711 76.4069 109.421V103.669C76.4069 103.064 76.7137 102.545 77.2441 102.254L78.6184 101.501C78.8754 101.359 79.1651 101.364 79.4178 101.513C79.6705 101.662 79.814 101.915 79.814 102.208Z" fill="#B1B3B6"/>
<path id="Vector_38" fill-rule="evenodd" clip-rule="evenodd" d="M78.9746 102.176V108.536L77.0665 109.591V103.219L78.9317 102.151L78.9746 102.176Z" fill="#414042"/>
<path id="Vector_39" fill-rule="evenodd" clip-rule="evenodd" d="M86.2636 45.1705C100.462 45.5478 111.787 53.004 111.552 61.8209C111.318 70.6385 99.6135 77.4836 85.4152 77.1063C71.2171 76.729 59.8922 69.2736 60.126 60.4551C60.3606 51.6383 72.0645 44.794 86.2636 45.1705Z" fill="#BCBEC0"/>
<path id="Vector_40" d="M86.2636 43.5496C100.462 43.9269 111.787 51.3832 111.552 60.2C111.318 69.0185 99.6135 75.8628 85.4152 75.4854C71.2171 75.109 59.8922 67.6528 60.126 58.8342C60.3606 50.0174 72.0645 43.1732 86.2636 43.5496Z" fill="url(#paint7_linear)"/>
</g>
<path id="Unidad lectora_2" d="M34.5774 156.192C32.9774 156.192 31.7294 155.749 30.8334 154.864C29.9481 153.979 29.5054 152.715 29.5054 151.072V144.8H32.0974V150.976C32.0974 152.981 32.9294 153.984 34.5934 153.984C35.4041 153.984 36.0228 153.744 36.4494 153.264C36.8761 152.773 37.0894 152.011 37.0894 150.976V144.8H39.6494V151.072C39.6494 152.715 39.2014 153.979 38.3054 154.864C37.4201 155.749 36.1774 156.192 34.5774 156.192ZM47.2668 147.264C48.3335 147.264 49.1921 147.584 49.8428 148.224C50.5041 148.864 50.8348 149.813 50.8348 151.072V156H48.3388V151.456C48.3388 150.773 48.1895 150.267 47.8908 149.936C47.5921 149.595 47.1601 149.424 46.5948 149.424C45.9655 149.424 45.4641 149.621 45.0908 150.016C44.7175 150.4 44.5308 150.976 44.5308 151.744V156H42.0348V147.392H44.4188V148.4C44.7495 148.037 45.1601 147.76 45.6508 147.568C46.1415 147.365 46.6801 147.264 47.2668 147.264ZM53.0973 147.392H55.5933V156H53.0973V147.392ZM54.3453 146.192C53.8866 146.192 53.5133 146.059 53.2253 145.792C52.9373 145.525 52.7933 145.195 52.7933 144.8C52.7933 144.405 52.9373 144.075 53.2253 143.808C53.5133 143.541 53.8866 143.408 54.3453 143.408C54.804 143.408 55.1773 143.536 55.4653 143.792C55.7533 144.048 55.8973 144.368 55.8973 144.752C55.8973 145.168 55.7533 145.515 55.4653 145.792C55.1773 146.059 54.804 146.192 54.3453 146.192ZM66.6778 144.128V156H64.2938V155.008C63.6751 155.755 62.7791 156.128 61.6058 156.128C60.7951 156.128 60.0591 155.947 59.3978 155.584C58.7471 155.221 58.2351 154.704 57.8618 154.032C57.4885 153.36 57.3018 152.581 57.3018 151.696C57.3018 150.811 57.4885 150.032 57.8618 149.36C58.2351 148.688 58.7471 148.171 59.3978 147.808C60.0591 147.445 60.7951 147.264 61.6058 147.264C62.7045 147.264 63.5631 147.611 64.1818 148.304V144.128H66.6778ZM62.0378 154.08C62.6671 154.08 63.1898 153.867 63.6058 153.44C64.0218 153.003 64.2298 152.421 64.2298 151.696C64.2298 150.971 64.0218 150.395 63.6058 149.968C63.1898 149.531 62.6671 149.312 62.0378 149.312C61.3978 149.312 60.8698 149.531 60.4538 149.968C60.0378 150.395 59.8298 150.971 59.8298 151.696C59.8298 152.421 60.0378 153.003 60.4538 153.44C60.8698 153.867 61.3978 154.08 62.0378 154.08ZM72.4599 147.264C73.7933 147.264 74.8173 147.584 75.5319 148.224C76.2466 148.853 76.6039 149.808 76.6039 151.088V156H74.2679V154.928C73.7986 155.728 72.9239 156.128 71.6439 156.128C70.9826 156.128 70.4066 156.016 69.9159 155.792C69.4359 155.568 69.0679 155.259 68.8119 154.864C68.5559 154.469 68.4279 154.021 68.4279 153.52C68.4279 152.72 68.7266 152.091 69.3239 151.632C69.9319 151.173 70.8653 150.944 72.1239 150.944H74.1079C74.1079 150.4 73.9426 149.984 73.6119 149.696C73.2813 149.397 72.7853 149.248 72.1239 149.248C71.6653 149.248 71.2119 149.323 70.7639 149.472C70.3266 149.611 69.9533 149.803 69.6439 150.048L68.7479 148.304C69.2173 147.973 69.7773 147.717 70.4279 147.536C71.0893 147.355 71.7666 147.264 72.4599 147.264ZM72.2679 154.448C72.6946 154.448 73.0733 154.352 73.4039 154.16C73.7346 153.957 73.9693 153.664 74.1079 153.28V152.4H72.3959C71.3719 152.4 70.8599 152.736 70.8599 153.408C70.8599 153.728 70.9826 153.984 71.2279 154.176C71.4839 154.357 71.8306 154.448 72.2679 154.448ZM87.7247 144.128V156H85.3407V155.008C84.722 155.755 83.826 156.128 82.6527 156.128C81.842 156.128 81.106 155.947 80.4447 155.584C79.794 155.221 79.282 154.704 78.9087 154.032C78.5354 153.36 78.3487 152.581 78.3487 151.696C78.3487 150.811 78.5354 150.032 78.9087 149.36C79.282 148.688 79.794 148.171 80.4447 147.808C81.106 147.445 81.842 147.264 82.6527 147.264C83.7514 147.264 84.61 147.611 85.2287 148.304V144.128H87.7247ZM83.0847 154.08C83.714 154.08 84.2367 153.867 84.6527 153.44C85.0687 153.003 85.2767 152.421 85.2767 151.696C85.2767 150.971 85.0687 150.395 84.6527 149.968C84.2367 149.531 83.714 149.312 83.0847 149.312C82.4447 149.312 81.9167 149.531 81.5007 149.968C81.0847 150.395 80.8767 150.971 80.8767 151.696C80.8767 152.421 81.0847 153.003 81.5007 153.44C81.9167 153.867 82.4447 154.08 83.0847 154.08ZM94.5661 144.128H97.0621V156H94.5661V144.128ZM107.811 151.728C107.811 151.76 107.795 151.984 107.763 152.4H101.251C101.368 152.933 101.645 153.355 102.083 153.664C102.52 153.973 103.064 154.128 103.715 154.128C104.163 154.128 104.557 154.064 104.899 153.936C105.251 153.797 105.576 153.584 105.875 153.296L107.203 154.736C106.392 155.664 105.208 156.128 103.651 156.128C102.68 156.128 101.821 155.941 101.075 155.568C100.328 155.184 99.7519 154.656 99.3466 153.984C98.9412 153.312 98.7386 152.549 98.7386 151.696C98.7386 150.853 98.9359 150.096 99.3306 149.424C99.7359 148.741 100.285 148.213 100.979 147.84C101.683 147.456 102.467 147.264 103.331 147.264C104.173 147.264 104.936 147.445 105.619 147.808C106.301 148.171 106.835 148.693 107.219 149.376C107.613 150.048 107.811 150.832 107.811 151.728ZM103.347 149.152C102.781 149.152 102.307 149.312 101.923 149.632C101.539 149.952 101.304 150.389 101.219 150.944H105.459C105.373 150.4 105.139 149.968 104.755 149.648C104.371 149.317 103.901 149.152 103.347 149.152ZM113.632 156.128C112.715 156.128 111.888 155.941 111.152 155.568C110.427 155.184 109.856 154.656 109.44 153.984C109.035 153.312 108.832 152.549 108.832 151.696C108.832 150.843 109.035 150.08 109.44 149.408C109.856 148.736 110.427 148.213 111.152 147.84C111.888 147.456 112.715 147.264 113.632 147.264C114.539 147.264 115.328 147.456 116 147.84C116.683 148.213 117.179 148.752 117.488 149.456L115.552 150.496C115.104 149.707 114.459 149.312 113.616 149.312C112.966 149.312 112.427 149.525 112 149.952C111.574 150.379 111.36 150.96 111.36 151.696C111.36 152.432 111.574 153.013 112 153.44C112.427 153.867 112.966 154.08 113.616 154.08C114.47 154.08 115.115 153.685 115.552 152.896L117.488 153.952C117.179 154.635 116.683 155.168 116 155.552C115.328 155.936 114.539 156.128 113.632 156.128ZM124.602 155.584C124.357 155.765 124.053 155.904 123.69 156C123.338 156.085 122.965 156.128 122.57 156.128C121.546 156.128 120.752 155.867 120.186 155.344C119.632 154.821 119.354 154.053 119.354 153.04V149.504H118.026V147.584H119.354V145.488H121.85V147.584H123.994V149.504H121.85V153.008C121.85 153.371 121.941 153.653 122.122 153.856C122.314 154.048 122.581 154.144 122.922 154.144C123.317 154.144 123.653 154.037 123.93 153.824L124.602 155.584ZM129.834 156.128C128.927 156.128 128.111 155.941 127.386 155.568C126.671 155.184 126.111 154.656 125.706 153.984C125.301 153.312 125.098 152.549 125.098 151.696C125.098 150.843 125.301 150.08 125.706 149.408C126.111 148.736 126.671 148.213 127.386 147.84C128.111 147.456 128.927 147.264 129.834 147.264C130.741 147.264 131.551 147.456 132.266 147.84C132.981 148.213 133.541 148.736 133.946 149.408C134.351 150.08 134.554 150.843 134.554 151.696C134.554 152.549 134.351 153.312 133.946 153.984C133.541 154.656 132.981 155.184 132.266 155.568C131.551 155.941 130.741 156.128 129.834 156.128ZM129.834 154.08C130.474 154.08 130.997 153.867 131.402 153.44C131.818 153.003 132.026 152.421 132.026 151.696C132.026 150.971 131.818 150.395 131.402 149.968C130.997 149.531 130.474 149.312 129.834 149.312C129.194 149.312 128.666 149.531 128.25 149.968C127.834 150.395 127.626 150.971 127.626 151.696C127.626 152.421 127.834 153.003 128.25 153.44C128.666 153.867 129.194 154.08 129.834 154.08ZM138.606 148.528C138.905 148.112 139.305 147.797 139.806 147.584C140.318 147.371 140.905 147.264 141.566 147.264V149.568C141.289 149.547 141.102 149.536 141.006 149.536C140.292 149.536 139.732 149.739 139.326 150.144C138.921 150.539 138.718 151.136 138.718 151.936V156H136.222V147.392H138.606V148.528ZM146.476 147.264C147.809 147.264 148.833 147.584 149.548 148.224C150.262 148.853 150.62 149.808 150.62 151.088V156H148.284V154.928C147.814 155.728 146.94 156.128 145.66 156.128C144.998 156.128 144.422 156.016 143.932 155.792C143.452 155.568 143.084 155.259 142.828 154.864C142.572 154.469 142.444 154.021 142.444 153.52C142.444 152.72 142.742 152.091 143.34 151.632C143.948 151.173 144.881 150.944 146.14 150.944H148.124C148.124 150.4 147.958 149.984 147.628 149.696C147.297 149.397 146.801 149.248 146.14 149.248C145.681 149.248 145.228 149.323 144.78 149.472C144.342 149.611 143.969 149.803 143.66 150.048L142.764 148.304C143.233 147.973 143.793 147.717 144.444 147.536C145.105 147.355 145.782 147.264 146.476 147.264ZM146.284 154.448C146.71 154.448 147.089 154.352 147.42 154.16C147.75 153.957 147.985 153.664 148.124 153.28V152.4H146.412C145.388 152.4 144.876 152.736 144.876 153.408C144.876 153.728 144.998 153.984 145.244 154.176C145.5 154.357 145.846 154.448 146.284 154.448Z" fill="#333333"/>
</g>
<defs>
<filter id="filter0_d" x="0" y="0" width="180" height="184" filterUnits="userSpaceOnUse" color-interpolation-filters="sRGB">
<feFlood flood-opacity="0" result="BackgroundImageFix"/>
<feColorMatrix in="SourceAlpha" type="matrix" values="0 0 0 0 0 0 0 0 0 0 0 0 0 0 0 0 0 0 127 0" result="hardAlpha"/>
<feOffset dy="4"/>
<feColorMatrix type="matrix" values="0 0 0 0 0 0 0 0 0 0 0 0 0 0 0 0 0 0 0.25 0"/>
<feBlend mode="normal" in2="BackgroundImageFix" result="effect1_dropShadow"/>
<feBlend mode="normal" in="SourceGraphic" in2="effect1_dropShadow" result="shape"/>
</filter>
<linearGradient id="paint0_linear" x1="97.7207" y1="-45.2354" x2="83.2226" y2="162.097" gradientUnits="userSpaceOnUse">
<stop stop-color="#D1D3D4"/>
<stop offset="0.6" stop-color="#D2D4D5"/>
<stop offset="0.9" stop-color="#F9F9FA"/>
<stop offset="1" stop-color="white"/>
</linearGradient>
<linearGradient id="paint1_linear" x1="15.3042" y1="21.5185" x2="70.1522" y2="172.212" gradientUnits="userSpaceOnUse">
<stop stop-color="#808285"/>
<stop offset="0.4" stop-color="#808285"/>
<stop offset="0.7" stop-color="#ECECED"/>
<stop offset="0.8" stop-color="white"/>
<stop offset="1" stop-color="white"/>
</linearGradient>
<linearGradient id="paint2_linear" x1="137.887" y1="-42.3437" x2="126.968" y2="113.813" gradientUnits="userSpaceOnUse">
<stop stop-color="#D1D3D4"/>
<stop offset="0.6" stop-color="#D2D4D5"/>
<stop offset="0.9" stop-color="#F9F9FA"/>
<stop offset="1" stop-color="white"/>
</linearGradient>
<linearGradient id="paint3_linear" x1="55.8863" y1="6.45987" x2="45.3314" y2="157.402" gradientUnits="userSpaceOnUse">
<stop stop-color="#D1D3D4"/>
<stop offset="0.6" stop-color="#D2D4D5"/>
<stop offset="0.9" stop-color="#F9F9FA"/>
<stop offset="1" stop-color="white"/>
</linearGradient>
<linearGradient id="paint4_linear" x1="65.6682" y1="0.599189" x2="55.1133" y2="151.541" gradientUnits="userSpaceOnUse">
<stop stop-color="#D1D3D4"/>
<stop offset="0.6" stop-color="#D2D4D5"/>
<stop offset="0.9" stop-color="#F9F9FA"/>
<stop offset="1" stop-color="white"/>
</linearGradient>
<linearGradient id="paint5_linear" x1="-3.11505" y1="15.5606" x2="84.0505" y2="172.81" gradientUnits="userSpaceOnUse">
<stop stop-color="#808285"/>
<stop offset="0.3" stop-color="#808285"/>
<stop offset="0.4" stop-color="#8C8D90"/>
<stop offset="0.7" stop-color="#E6E7E7"/>
<stop offset="0.8" stop-color="#E4E4E5"/>
<stop offset="0.9" stop-color="#6D6E70"/>
<stop offset="1" stop-color="#6D6E70"/>
</linearGradient>
<linearGradient id="paint6_linear" x1="58.4608" y1="113.282" x2="60.8695" y2="117.628" gradientUnits="userSpaceOnUse">
<stop stop-color="#808285"/>
<stop offset="0.1" stop-color="#808285"/>
<stop offset="0.2" stop-color="#A2A4A6"/>
<stop offset="0.3" stop-color="#DCDCDD"/>
<stop offset="0.4" stop-color="#EEEEEF"/>
<stop offset="0.7" stop-color="#757678"/>
<stop offset="1" stop-color="#6D6E70"/>
</linearGradient>
<linearGradient id="paint7_linear" x1="87.0314" y1="42.4735" x2="84.6475" y2="76.565" gradientUnits="userSpaceOnUse">
<stop stop-color="#D1D3D4"/>
<stop offset="0.7" stop-color="#D1D3D4"/>
<stop offset="1" stop-color="white"/>
</linearGradient>
</defs>
</svg>
