<svg width="20" height="20" viewBox="0 0 20 20" fill="none" xmlns="http://www.w3.org/2000/svg">
<path fill-rule="evenodd" clip-rule="evenodd" d="M20 10C20 15.5 15.5 20 10 20C4.5 20 0 15.5 0 10C0 4.5 4.5 0 10 0C15.5 0 20 4.5 20 10Z" fill="url(#paint0_linear)"/>
<path fill-rule="evenodd" clip-rule="evenodd" d="M20 10C20 15.5 15.5 20 10 20C4.5 20 0 15.5 0 10C0 4.5 4.5 0 10 0C15.5 0 20 4.5 20 10Z" fill="url(#paint1_radial)"/>
<path fill-rule="evenodd" clip-rule="evenodd" d="M20 10C20 15.5 15.5 20 10 20C4.5 20 0 15.5 0 10C0 4.5 4.5 0 10 0C15.5 0 20 4.5 20 10Z" fill="url(#paint2_radial)"/>
<path fill-rule="evenodd" clip-rule="evenodd" d="M20 10C20 15.5 15.5 20 10 20C4.5 20 0 15.5 0 10C0 4.5 4.5 0 10 0C15.5 0 20 4.5 20 10Z" fill="url(#paint3_radial)"/>
<path fill-rule="evenodd" clip-rule="evenodd" d="M20 10C20 15.5 15.5 20 10 20C4.5 20 0 15.5 0 10C0 4.5 4.5 0 10 0C15.5 0 20 4.5 20 10Z" fill="url(#paint4_radial)"/>
<path fill-rule="evenodd" clip-rule="evenodd" d="M20 10C20 15.5 15.5 20 10 20C4.5 20 0 15.5 0 10C0 4.5 4.5 0 10 0C15.5 0 20 4.5 20 10Z" fill="url(#paint5_radial)"/>
<path fill-rule="evenodd" clip-rule="evenodd" d="M12.125 7.375C12 7 8 7 7.875 7.375C7.75 7.75 8.625 8.25 10 8.25C11.375 8.25 12.25 7.75 12.125 7.375Z" fill="url(#paint6_linear)"/>
<path fill-rule="evenodd" clip-rule="evenodd" d="M7.5 5.125C7.5 6 7 6.25 6.25 6.375C5.5 6.5 4.875 6.125 4.875 5.125C4.875 4.375 5.25 3.375 6.25 3.375C7.125 3.375 7.5 4.375 7.5 5.125Z" fill="url(#paint7_radial)"/>
<path fill-rule="evenodd" clip-rule="evenodd" d="M6.125 3.875C6.25 4 6.25 4.375 6 4.5C5.875 4.625 5.625 4.75 5.5 4.5C5.375 4.25 5.375 4.125 5.5 3.875C5.75 3.75 6 3.75 6.125 3.875Z" fill="#4E506A"/>
<path fill-rule="evenodd" clip-rule="evenodd" d="M12.5 5.125C12.5 6 13 6.25 13.875 6.375C14.625 6.5 15.25 6.125 15.25 5.125C15.25 4.375 14.875 3.375 13.875 3.375C12.875 3.375 12.5 4.375 12.5 5.125Z" fill="url(#paint8_radial)"/>
<path fill-rule="evenodd" clip-rule="evenodd" d="M13.75 3.875C13.875 4 13.75 4.25 13.625 4.5C13.5 4.625 13.25 4.625 13.125 4.5C13 4.375 13.125 4.125 13.25 3.875C13.5 3.625 13.625 3.625 13.75 3.875Z" fill="#4E506A"/>
<path fill-rule="evenodd" clip-rule="evenodd" d="M4.25005 2.625C4.00005 2.875 4.25005 3.25 4.62505 3.125C5.37505 2.75 6.87505 2.375 8.12505 2.5C8.50005 2.5 8.62505 2.5 8.50005 2C8.50005 1.625 8.00005 1.375 7.00005 1.5C5.50005 1.625 4.50005 2.375 4.25005 2.625Z" fill="url(#paint9_radial)"/>
<path fill-rule="evenodd" clip-rule="evenodd" d="M13 1.5C12 1.375 11.5 1.625 11.5 2C11.375 2.5 11.5 2.5 11.875 2.5C13.25 2.375 14.75 2.75 15.375 3.125C15.875 3.375 16 2.875 15.75 2.625C15.5 2.375 14.5 1.625 13 1.5Z" fill="url(#paint10_radial)"/>
<path fill-rule="evenodd" clip-rule="evenodd" d="M12.125 10.625C9.5 9.875 8.625 11.625 8.625 11.625C8.625 11.625 8.875 9.625 6.25 8.75C3.75 8 2.25 10.375 2.125 11.75C1.875 14.875 4.625 18.375 5.625 19.625C5.75 20 6.125 20 6.5 20C8 19.625 12.25 18.25 13.875 15.5C14.5 14.125 14.625 11.375 12.125 10.625Z" fill="url(#paint11_linear)"/>
<path fill-rule="evenodd" clip-rule="evenodd" d="M12.125 10.625C9.5 9.875 8.625 11.625 8.625 11.625C8.625 11.625 8.875 9.625 6.25 8.75C3.75 8 2.25 10.375 2.125 11.75C1.875 14.875 4.625 18.375 5.625 19.625C5.75 20 6.125 20 6.5 20C8 19.625 12.25 18.25 13.875 15.5C14.5 14.125 14.625 11.375 12.125 10.625Z" fill="url(#paint12_radial)"/>
<path fill-rule="evenodd" clip-rule="evenodd" d="M12.125 10.625C9.5 9.875 8.625 11.625 8.625 11.625C8.625 11.625 8.875 9.625 6.25 8.75C3.75 8 2.25 10.375 2.125 11.75C1.875 14.875 4.625 18.375 5.625 19.625C5.75 20 6.125 20 6.5 20C8 19.625 12.25 18.25 13.875 15.5C14.5 14.125 14.625 11.375 12.125 10.625Z" fill="url(#paint13_radial)"/>
<path fill-rule="evenodd" clip-rule="evenodd" d="M12.125 10.625C9.5 9.875 8.625 11.625 8.625 11.625C8.625 11.625 8.875 9.625 6.25 8.75C3.75 8 2.25 10.375 2.125 11.75C1.875 14.875 4.625 18.375 5.625 19.625C5.75 20 6.125 20 6.5 20C8 19.625 12.25 18.25 13.875 15.5C14.5 14.125 14.625 11.375 12.125 10.625Z" fill="url(#paint14_radial)"/>
<path fill-rule="evenodd" clip-rule="evenodd" d="M12.125 10.625C9.5 9.875 8.625 11.625 8.625 11.625C8.625 11.625 8.875 9.625 6.25 8.75C3.75 8 2.25 10.375 2.125 11.75C1.875 14.875 4.625 18.375 5.625 19.625C5.75 20 6.125 20 6.5 20C8 19.625 12.25 18.25 13.875 15.5C14.5 14.125 14.625 11.375 12.125 10.625Z" fill="url(#paint15_radial)"/>
<path fill-rule="evenodd" clip-rule="evenodd" d="M12.125 10.625C9.5 9.875 8.625 11.625 8.625 11.625C8.625 11.625 8.875 9.625 6.25 8.75C3.75 8 2.25 10.375 2.125 11.75C1.875 14.875 4.625 18.375 5.625 19.625C5.75 20 6.125 20 6.5 20C8 19.625 12.25 18.25 13.875 15.5C14.5 14.125 14.625 11.375 12.125 10.625Z" fill="url(#paint16_radial)"/>
<path fill-rule="evenodd" clip-rule="evenodd" d="M12.125 10.625C9.5 9.875 8.625 11.625 8.625 11.625C8.625 11.625 8.875 9.625 6.25 8.75C3.75 8 2.25 10.375 2.125 11.75C1.875 14.875 4.625 18.375 5.625 19.625C5.75 20 6.125 20 6.5 20C8 19.625 12.25 18.25 13.875 15.5C14.5 14.125 14.625 11.375 12.125 10.625Z" fill="url(#paint17_radial)"/>
<mask id="mask0" mask-type="alpha" maskUnits="userSpaceOnUse" x="0" y="0" width="20" height="20">
<path fill-rule="evenodd" clip-rule="evenodd" d="M20 10C20 15.5 15.5 20 10 20C4.5 20 0 15.5 0 10C0 4.5 4.5 0 10 0C15.5 0 20 4.5 20 10Z" fill="white"/>
</mask>
<g mask="url(#mask0)">
<path fill-rule="evenodd" clip-rule="evenodd" d="M1.62495 9.625C0.999952 9 -0.125047 8.625 -0.250047 10.125C-0.375047 11.25 0.124952 13.25 1.49995 14.375C4.99995 17.125 8.12495 15.625 8.24995 13.625C8.37495 12.125 6.49995 12.25 5.99995 12.25C5.99995 12.25 5.99995 12.25 5.99995 12.125C6.12495 12 6.37495 11.875 6.49995 11.75C6.99995 11.375 6.74995 10.75 6.12495 10.875C5.99995 10.875 4.49995 11.375 3.49995 11C2.49995 10.625 2.37495 10.25 1.62495 9.625Z" fill="url(#paint18_radial)"/>
<path d="M17.875 9.75C18.25 9 18.875 9.25 19.25 9.375C19.75 9.5 20.125 9.875 20.125 10.625C20.125 12.5 19.875 14.25 18.25 16C15.375 19.25 10.5 18.75 10 16.75C9.625 15.25 11.375 15 12 15V14.875C11.75 14.75 11.625 14.625 11.375 14.5C10.875 14.125 11 13.375 11.625 13.5C12.375 13.625 13.375 13.875 14.125 13.75C16.5 13.5 16.875 11.625 17.875 9.75Z" fill="url(#paint19_radial)"/>
</g>
<defs>
<linearGradient id="paint0_linear" x1="9.99" y1="19.01" x2="9.99" y2="1.49" gradientUnits="userSpaceOnUse">
<stop stop-color="#F28A2D"/>
<stop offset="1" stop-color="#FDE86F"/>
</linearGradient>
<radialGradient id="paint1_radial" cx="0" cy="0" r="1" gradientUnits="userSpaceOnUse" gradientTransform="translate(9.99 9.99) scale(10)">
<stop stop-color="#F28A2D" stop-opacity="0"/>
<stop offset="1" stop-color="#F08423" stop-opacity="0.34"/>
</radialGradient>
<radialGradient id="paint2_radial" cx="0" cy="0" r="1" gradientUnits="userSpaceOnUse" gradientTransform="translate(2.16335 10.4008) rotate(24.1484) scale(2.02 1.56245)">
<stop stop-color="#F28A2D" stop-opacity="0.5"/>
<stop offset="1" stop-color="#F28A2D" stop-opacity="0"/>
</radialGradient>
<radialGradient id="paint3_radial" cx="0" cy="0" r="1" gradientUnits="userSpaceOnUse" gradientTransform="translate(14.8346 14.717) rotate(-38.243) scale(5.66001 2.05916)">
<stop stop-color="#F28A2D" stop-opacity="0.5"/>
<stop offset="1" stop-color="#F28A2D" stop-opacity="0"/>
</radialGradient>
<radialGradient id="paint4_radial" cx="0" cy="0" r="1" gradientUnits="userSpaceOnUse" gradientTransform="translate(6.36713 2.5372) rotate(-10.3559) scale(2.14001 0.425557)">
<stop stop-color="#D45F00" stop-opacity="0.15"/>
<stop offset="1" stop-color="#F28A2D" stop-opacity="0"/>
</radialGradient>
<radialGradient id="paint5_radial" cx="0" cy="0" r="1" gradientUnits="userSpaceOnUse" gradientTransform="translate(13.6143 2.6838) rotate(11.5352) scale(2.12 0.421598)">
<stop stop-color="#D45F00" stop-opacity="0.15"/>
<stop offset="1" stop-color="#D45F00" stop-opacity="0"/>
</radialGradient>
<linearGradient id="paint6_linear" x1="9.99967" y1="6.63665" x2="9.99967" y2="8.41654" gradientUnits="userSpaceOnUse">
<stop stop-color="#482314"/>
<stop offset="1" stop-color="#9A4111"/>
</linearGradient>
<radialGradient id="paint7_radial" cx="0" cy="0" r="1" gradientUnits="userSpaceOnUse" gradientTransform="translate(6.24098 5.33893) rotate(-90) scale(2.32453 2.32464)">
<stop stop-color="#3B446B"/>
<stop offset="0.688" stop-color="#202340"/>
</radialGradient>
<radialGradient id="paint8_radial" cx="0" cy="0" r="1" gradientUnits="userSpaceOnUse" gradientTransform="translate(13.7585 5.3375) rotate(-90) scale(2.32453 2.32464)">
<stop stop-color="#3B446B"/>
<stop offset="0.688" stop-color="#202340"/>
</radialGradient>
<radialGradient id="paint9_radial" cx="0" cy="0" r="1" gradientUnits="userSpaceOnUse" gradientTransform="translate(6.25193 2.13831) rotate(-104.427) scale(0.506826 2.34935)">
<stop stop-color="#E38200"/>
<stop offset="1" stop-color="#CD6700"/>
</radialGradient>
<radialGradient id="paint10_radial" cx="0" cy="0" r="1" gradientUnits="userSpaceOnUse" gradientTransform="translate(13.6685 1.91405) rotate(-79.0815) scale(0.534008 3.16903)">
<stop stop-color="#E38200"/>
<stop offset="1" stop-color="#CD6700"/>
</radialGradient>
<linearGradient id="paint11_linear" x1="8.44171" y1="12.1846" x2="5.90334" y2="20.3622" gradientUnits="userSpaceOnUse">
<stop stop-color="#F34462"/>
<stop offset="1" stop-color="#CC0820"/>
</linearGradient>
<radialGradient id="paint12_radial" cx="0" cy="0" r="1" gradientUnits="userSpaceOnUse" gradientTransform="translate(11.0507 13.6688) rotate(20.3927) scale(3.29114)">
<stop stop-color="#FF7091" stop-opacity="0.7"/>
<stop offset="1" stop-color="#FE6D8E" stop-opacity="0"/>
</radialGradient>
<radialGradient id="paint13_radial" cx="0" cy="0" r="1" gradientUnits="userSpaceOnUse" gradientTransform="translate(5.3353 12.011) rotate(20.3927) scale(3.29114)">
<stop stop-color="#FF7091" stop-opacity="0.7"/>
<stop offset="1" stop-color="#FE6D8E" stop-opacity="0"/>
</radialGradient>
<radialGradient id="paint14_radial" cx="0" cy="0" r="1" gradientUnits="userSpaceOnUse" gradientTransform="translate(4.98048 14.703) rotate(101.61) scale(2.82582 3.89117)">
<stop stop-color="#9C0600"/>
<stop offset="1" stop-color="#9C0600" stop-opacity="0"/>
</radialGradient>
<radialGradient id="paint15_radial" cx="0" cy="0" r="1" gradientUnits="userSpaceOnUse" gradientTransform="translate(14.2676 14.9909) rotate(30.6331) scale(1.70231 2.13645)">
<stop stop-color="#9C0600" stop-opacity="0.5"/>
<stop offset="1" stop-color="#9C0600" stop-opacity="0"/>
</radialGradient>
<radialGradient id="paint16_radial" cx="0" cy="0" r="1" gradientUnits="userSpaceOnUse" gradientTransform="translate(2.57091 11.3918) rotate(-20.1593) scale(1.47534 1.90121)">
<stop stop-color="#9C0600" stop-opacity="0.5"/>
<stop offset="1" stop-color="#9C0600" stop-opacity="0"/>
</radialGradient>
<radialGradient id="paint17_radial" cx="0" cy="0" r="1" gradientUnits="userSpaceOnUse" gradientTransform="translate(11.1688 17.3933) rotate(34.0715) scale(1.98603 2.15099)">
<stop stop-color="#9C0600" stop-opacity="0.999"/>
<stop offset="1" stop-color="#9C0600" stop-opacity="0"/>
</radialGradient>
<radialGradient id="paint18_radial" cx="0" cy="0" r="1" gradientUnits="userSpaceOnUse" gradientTransform="translate(-0.101154 9.33644) rotate(36.5187) scale(8.31063)">
<stop stop-color="#EDA83A"/>
<stop offset="1" stop-color="#FFDC5E"/>
</radialGradient>
<radialGradient id="paint19_radial" cx="0" cy="0" r="1" gradientUnits="userSpaceOnUse" gradientTransform="translate(19.5675 9.67125) scale(11.0575)">
<stop stop-color="#EDA83A"/>
<stop offset="1" stop-color="#FFDC5E"/>
</radialGradient>
</defs>
</svg>
