<svg width="20" height="20" viewBox="0 0 20 20" fill="none" xmlns="http://www.w3.org/2000/svg">
<path d="M20 10C20 12.6521 18.9464 15.1958 17.0711 17.0711C15.1958 18.9464 12.6521 20 10 20C7.34784 20 4.8043 18.9464 2.92894 17.0711C1.05357 15.1958 0 12.6521 0 10C0 7.34784 1.05357 4.8043 2.92894 2.92894C4.8043 1.05357 7.34784 0 10 0C12.6521 0 15.1958 1.05357 17.0711 2.92894C18.9464 4.8043 20 7.34784 20 10Z" fill="url(#paint0_linear)"/>
<path d="M7.05387 13.61C6.85637 15.9162 7.96137 17.5 10.0001 17.5C12.0376 17.5 13.1439 15.9162 12.9464 13.61C12.7501 11.3025 11.5526 10 10.0001 10C8.44762 10 7.25012 11.3025 7.05387 13.61Z" fill="url(#paint1_linear)"/>
<path d="M4.375 6.875C4.375 5.84 5.07375 5 5.9375 5C6.80125 5 7.5 5.84 7.5 6.875C7.5 7.91125 6.80125 8.75 5.9375 8.75C5.07375 8.75 4.375 7.91125 4.375 6.875ZM12.5 6.875C12.5 5.84 13.2 5 14.0625 5C14.9263 5 15.625 5.84 15.625 6.875C15.625 7.91125 14.9263 8.75 14.0625 8.75C13.2 8.75 12.5 7.91125 12.5 6.875Z" fill="url(#paint2_linear)"/>
<g filter="url(#filter0_i)">
<path d="M4.375 6.875C4.375 5.84 5.07375 5 5.9375 5C6.80125 5 7.5 5.84 7.5 6.875C7.5 7.91125 6.80125 8.75 5.9375 8.75C5.07375 8.75 4.375 7.91125 4.375 6.875ZM12.5 6.875C12.5 5.84 13.2 5 14.0625 5C14.9263 5 15.625 5.84 15.625 6.875C15.625 7.91125 14.9263 8.75 14.0625 8.75C13.2 8.75 12.5 7.91125 12.5 6.875Z" fill="black"/>
</g>
<path d="M5.60182 5.70896C5.83432 5.76146 5.96432 6.02396 5.89182 6.29521C5.82057 6.56771 5.57432 6.74521 5.34182 6.69271C5.10932 6.64021 4.97932 6.37771 5.05182 6.10521C5.12307 5.83521 5.36932 5.65521 5.60182 5.70896ZM13.9244 5.78771C14.1819 5.84646 14.3269 6.13771 14.2469 6.43771C14.1669 6.74146 13.8944 6.93771 13.6356 6.88021C13.3781 6.82271 13.2331 6.53021 13.3131 6.22896C13.3919 5.92646 13.6656 5.72896 13.9256 5.78771H13.9244Z" fill="#4E506A"/>
<g filter="url(#filter1_d)">
<path d="M13.8353 2.11978C13.9003 2.11353 13.9653 2.11103 14.0315 2.11103C14.6403 2.11103 15.269 2.36603 15.7465 2.81353C15.8326 2.89561 15.8836 3.00787 15.8888 3.12673C15.8939 3.24561 15.8528 3.36185 15.774 3.45103C15.736 3.49477 15.6894 3.53037 15.6373 3.55567C15.5851 3.58097 15.5284 3.59546 15.4704 3.59826C15.4125 3.60106 15.3546 3.59212 15.3003 3.57197C15.2459 3.55183 15.1961 3.5209 15.154 3.48103C14.8103 3.15728 14.334 2.98103 13.914 3.01978C13.7684 3.03068 13.6268 3.07338 13.4994 3.14486C13.372 3.21635 13.2618 3.31488 13.1765 3.43353C13.1423 3.48003 13.099 3.51921 13.0494 3.54875C12.9998 3.57828 12.9448 3.59758 12.8876 3.60551C12.8304 3.61342 12.7721 3.60981 12.7164 3.59487C12.6606 3.57993 12.6084 3.55398 12.5628 3.51853C12.4694 3.44436 12.4084 3.33681 12.3928 3.21858C12.3772 3.10035 12.4081 2.98067 12.479 2.88478C12.6365 2.66696 12.8393 2.4858 13.0734 2.35375C13.3075 2.2217 13.5674 2.14188 13.8353 2.11978ZM4.25402 2.81353C4.71748 2.37277 5.32953 2.12206 5.96902 2.11103C6.27113 2.10448 6.57032 2.17148 6.84077 2.30628C7.11123 2.44107 7.34486 2.63961 7.52152 2.88478C7.59227 2.98062 7.62319 3.10012 7.60782 3.21826C7.59243 3.3364 7.53194 3.444 7.43902 3.51853C7.39332 3.55401 7.34099 3.58 7.28511 3.59495C7.22923 3.6099 7.17092 3.61352 7.11361 3.6056C7.05631 3.59768 7.00116 3.57838 6.95143 3.54882C6.90169 3.51927 6.85837 3.48007 6.82402 3.43353C6.73872 3.31493 6.62849 3.21645 6.50109 3.14497C6.37369 3.0735 6.23218 3.03077 6.08652 3.01978C5.66777 2.98103 5.19027 3.15728 4.84652 3.48103C4.80441 3.5209 4.75467 3.55183 4.70029 3.57197C4.64592 3.59212 4.58803 3.60106 4.53012 3.59826C4.47221 3.59546 4.41544 3.58097 4.36327 3.55567C4.31109 3.53037 4.26458 3.49477 4.22652 3.45103C4.14777 3.36185 4.10663 3.24561 4.11176 3.12673C4.11689 3.00787 4.16788 2.89561 4.25402 2.81353Z" fill="black"/>
</g>
<path d="M13.8353 2.11978C13.9003 2.11353 13.9653 2.11103 14.0315 2.11103C14.6403 2.11103 15.269 2.36603 15.7465 2.81353C15.8326 2.89561 15.8836 3.00787 15.8888 3.12673C15.8939 3.24561 15.8528 3.36185 15.774 3.45103C15.736 3.49477 15.6894 3.53037 15.6373 3.55567C15.5851 3.58097 15.5284 3.59546 15.4704 3.59826C15.4125 3.60106 15.3546 3.59212 15.3003 3.57197C15.2459 3.55183 15.1961 3.5209 15.154 3.48103C14.8103 3.15728 14.334 2.98103 13.914 3.01978C13.7684 3.03068 13.6268 3.07338 13.4994 3.14486C13.372 3.21635 13.2618 3.31488 13.1765 3.43353C13.1423 3.48003 13.099 3.51921 13.0494 3.54875C12.9998 3.57828 12.9448 3.59758 12.8876 3.60551C12.8304 3.61342 12.7721 3.60981 12.7164 3.59487C12.6606 3.57993 12.6084 3.55398 12.5628 3.51853C12.4694 3.44436 12.4084 3.33681 12.3928 3.21858C12.3772 3.10035 12.4081 2.98067 12.479 2.88478C12.6365 2.66696 12.8393 2.4858 13.0734 2.35375C13.3075 2.2217 13.5674 2.14188 13.8353 2.11978ZM4.25402 2.81353C4.71748 2.37277 5.32953 2.12206 5.96902 2.11103C6.27113 2.10448 6.57032 2.17148 6.84077 2.30628C7.11123 2.44107 7.34486 2.63961 7.52152 2.88478C7.59227 2.98062 7.62319 3.10012 7.60782 3.21826C7.59243 3.3364 7.53194 3.444 7.43902 3.51853C7.39332 3.55401 7.34099 3.58 7.28511 3.59495C7.22923 3.6099 7.17092 3.61352 7.11361 3.6056C7.05631 3.59768 7.00116 3.57838 6.95143 3.54882C6.90169 3.51927 6.85837 3.48007 6.82402 3.43353C6.73872 3.31493 6.62849 3.21645 6.50109 3.14497C6.37369 3.0735 6.23218 3.03077 6.08652 3.01978C5.66777 2.98103 5.19027 3.15728 4.84652 3.48103C4.80441 3.5209 4.75467 3.55183 4.70029 3.57197C4.64592 3.59212 4.58803 3.60106 4.53012 3.59826C4.47221 3.59546 4.41544 3.58097 4.36327 3.55567C4.31109 3.53037 4.26458 3.49477 4.22652 3.45103C4.14777 3.36185 4.10663 3.24561 4.11176 3.12673C4.11689 3.00787 4.16788 2.89561 4.25402 2.81353Z" fill="url(#paint3_linear)"/>
<defs>
<filter id="filter0_i" x="4.375" y="5" width="11.25" height="3.75" filterUnits="userSpaceOnUse" color-interpolation-filters="sRGB">
<feFlood flood-opacity="0" result="BackgroundImageFix"/>
<feBlend mode="normal" in="SourceGraphic" in2="BackgroundImageFix" result="shape"/>
<feColorMatrix in="SourceAlpha" type="matrix" values="0 0 0 0 0 0 0 0 0 0 0 0 0 0 0 0 0 0 127 0" result="hardAlpha"/>
<feOffset/>
<feGaussianBlur stdDeviation="0.5"/>
<feComposite in2="hardAlpha" operator="arithmetic" k2="-1" k3="1"/>
<feColorMatrix type="matrix" values="0 0 0 0 0.0980392 0 0 0 0 0.101961 0 0 0 0 0.2 0 0 0 0.819684 0"/>
<feBlend mode="normal" in2="shape" result="effect1_innerShadow"/>
</filter>
<filter id="filter1_d" x="1.11133" y="0.110596" width="17.7779" height="7.49909" filterUnits="userSpaceOnUse" color-interpolation-filters="sRGB">
<feFlood flood-opacity="0" result="BackgroundImageFix"/>
<feColorMatrix in="SourceAlpha" type="matrix" values="0 0 0 0 0 0 0 0 0 0 0 0 0 0 0 0 0 0 127 0" result="hardAlpha"/>
<feOffset dy="1"/>
<feGaussianBlur stdDeviation="1.5"/>
<feColorMatrix type="matrix" values="0 0 0 0 0.803922 0 0 0 0 0.388235 0 0 0 0 0.00392157 0 0 0 0.145679 0"/>
<feBlend mode="normal" in2="BackgroundImageFix" result="effect1_dropShadow"/>
<feBlend mode="normal" in="SourceGraphic" in2="effect1_dropShadow" result="shape"/>
</filter>
<linearGradient id="paint0_linear" x1="10" y1="2.05" x2="10" y2="20" gradientUnits="userSpaceOnUse">
<stop stop-color="#FEEA70"/>
<stop offset="1" stop-color="#F69B30"/>
</linearGradient>
<linearGradient id="paint1_linear" x1="10" y1="10" x2="10" y2="17.5" gradientUnits="userSpaceOnUse">
<stop stop-color="#472315"/>
<stop offset="1" stop-color="#8B3A0E"/>
</linearGradient>
<linearGradient id="paint2_linear" x1="10" y1="5" x2="10" y2="8.75" gradientUnits="userSpaceOnUse">
<stop stop-color="#191A33"/>
<stop offset="0.872" stop-color="#3B426A"/>
</linearGradient>
<linearGradient id="paint3_linear" x1="10" y1="2.11" x2="10" y2="3.61" gradientUnits="userSpaceOnUse">
<stop stop-color="#E78E0D"/>
<stop offset="1" stop-color="#CB6000"/>
</linearGradient>
</defs>
</svg>
