<svg width="680" height="580" viewBox="0 0 680 580" fill="none" xmlns="http://www.w3.org/2000/svg">
<g clip-path="url(#clip0_4251_106871)">
<rect width="680" height="580" rx="20" fill="#006C8E"/>
<rect x="680" y="580" width="680" height="580" rx="20" transform="rotate(-180 680 580)" fill="url(#paint0_linear_4251_106871)" fill-opacity="0.5"/>
<path fill-rule="evenodd" clip-rule="evenodd" d="M482.173 232.557C449.983 174.139 386.37 111.5 352.793 152.609C310.605 204.26 238.726 203.017 269.826 231.151C310.605 268.042 328.288 241.342 358.066 252.84C387.843 264.338 500.93 266.596 482.173 232.557Z" fill="#FAE7B6"/>
<path fill-rule="evenodd" clip-rule="evenodd" d="M442.759 409.152C399.99 415.887 346.822 453.93 289.374 429.058C262.059 417.232 256.775 370.477 279.437 376.761C338.811 393.223 356.473 349.99 373.171 343.542C389.87 337.095 464.288 405.762 442.759 409.152Z" fill="#B6925C"/>
<path fill-rule="evenodd" clip-rule="evenodd" d="M463.936 225.298C514.398 234.189 549.199 333.54 549.199 354.282C549.199 375.023 521.597 422.925 415.548 405.39C337.273 392.447 303.699 315.898 288.488 315.898C273.278 315.898 267.055 284.094 291.945 284.094C353.12 284.094 350.522 205.315 463.936 225.298Z" fill="#EDCA71"/>
<path fill-rule="evenodd" clip-rule="evenodd" d="M401.576 340.204C383.524 372.963 319.951 401.566 295.137 385.126C270.322 368.687 259.627 346.481 282.495 340.992C305.364 335.503 317.337 339.93 334.036 333.482C350.734 327.034 412.095 321.115 401.576 340.204Z" fill="#FAE7B6"/>
<path fill-rule="evenodd" clip-rule="evenodd" d="M288.309 284.339C257.429 286.079 217.425 205.773 182.911 260.199C148.396 314.626 105.766 314 108.572 346.927C114.5 416.5 236.615 301.964 282.634 301.964C287.305 301.964 283.309 298.184 283.832 294.699C284.711 288.842 292.851 284.083 288.309 284.339Z" fill="#FAE7B6"/>
<path fill-rule="evenodd" clip-rule="evenodd" d="M282.916 301.923C251.988 301.923 191.441 269.542 182.447 333.359C173.154 399.29 132.854 408.125 162 417C269.5 444 241.263 315.805 287.282 315.805C289.872 315.805 286.684 312.038 286.309 308.663C285.721 303.375 285.628 301.923 282.916 301.923Z" fill="#B6925C"/>
<path d="M442.407 329.247C455.623 329.247 466.337 318.533 466.337 305.317C466.337 292.1 455.623 281.387 442.407 281.387C429.19 281.387 418.477 292.1 418.477 305.317C418.477 318.533 429.19 329.247 442.407 329.247Z" fill="#400C00"/>
<path fill-rule="evenodd" clip-rule="evenodd" d="M419.452 298.508C413.369 304.172 399.236 306.403 391.162 304.257C383.088 302.11 389.684 310.392 418.476 307.834C427.365 307.044 422.416 295.749 419.452 298.508Z" fill="#400C00"/>
<path fill-rule="evenodd" clip-rule="evenodd" d="M421.199 294.352C415.116 300.015 404.38 301.366 396.306 299.22C388.231 297.074 394.828 305.356 423.62 302.797C432.509 302.008 424.163 291.592 421.199 294.352Z" fill="#400C00"/>
<path fill-rule="evenodd" clip-rule="evenodd" d="M425.076 288.86C418.993 294.524 410.131 294.599 402.056 292.453C393.982 290.307 400.858 298.591 426.51 298.133C435.433 297.973 428.04 286.101 425.076 288.86Z" fill="#400C00"/>
<path d="M444.314 328.516C456.073 328.516 465.605 318.983 465.605 307.224C465.605 295.465 456.073 285.933 444.314 285.933C432.555 285.933 423.022 295.465 423.022 307.224C423.022 318.983 432.555 328.516 444.314 328.516Z" fill="white"/>
<path d="M444.345 324.091C453.61 324.091 461.121 316.58 461.121 307.314C461.121 298.049 453.61 290.538 444.345 290.538C435.079 290.538 427.568 298.049 427.568 307.314C427.568 316.58 435.079 324.091 444.345 324.091Z" fill="#008A9A"/>
<path d="M444.375 321.699C452.336 321.699 458.789 315.246 458.789 307.285C458.789 299.324 452.336 292.871 444.375 292.871C436.414 292.871 429.961 299.324 429.961 307.285C429.961 315.246 436.414 321.699 444.375 321.699Z" fill="#400C00"/>
<path d="M516.935 329.247C530.152 329.247 540.865 318.533 540.865 305.317C540.865 292.1 530.152 281.387 516.935 281.387C503.719 281.387 493.005 292.1 493.005 305.317C493.005 318.533 503.719 329.247 516.935 329.247Z" fill="#400C00"/>
<path fill-rule="evenodd" clip-rule="evenodd" d="M539.906 298.508C545.99 304.172 560.122 306.403 568.196 304.257C576.271 302.11 569.674 310.392 540.882 307.834C531.993 307.044 536.942 295.749 539.906 298.508Z" fill="#400C00"/>
<path fill-rule="evenodd" clip-rule="evenodd" d="M538.168 294.352C544.251 300.015 554.988 301.366 563.062 299.22C571.136 297.074 564.539 305.356 535.747 302.797C526.858 302.008 535.204 291.592 538.168 294.352Z" fill="#400C00"/>
<path fill-rule="evenodd" clip-rule="evenodd" d="M534.231 288.86C540.315 294.524 549.177 294.599 557.251 292.453C565.326 290.307 558.45 298.591 532.797 298.133C523.875 297.973 531.267 286.101 534.231 288.86Z" fill="#400C00"/>
<path d="M515.015 328.516C526.774 328.516 536.306 318.983 536.306 307.224C536.306 295.465 526.774 285.933 515.015 285.933C503.256 285.933 493.723 295.465 493.723 307.224C493.723 318.983 503.256 328.516 515.015 328.516Z" fill="white"/>
<path d="M514.926 324.091C524.191 324.091 531.702 316.58 531.702 307.314C531.702 298.049 524.191 290.538 514.926 290.538C505.66 290.538 498.149 298.049 498.149 307.314C498.149 316.58 505.66 324.091 514.926 324.091Z" fill="#008A9A"/>
<path d="M514.956 321.699C522.917 321.699 529.37 315.246 529.37 307.285C529.37 299.324 522.917 292.871 514.956 292.871C506.995 292.871 500.542 299.324 500.542 307.285C500.542 315.246 506.995 321.699 514.956 321.699Z" fill="#400C00"/>
<path fill-rule="evenodd" clip-rule="evenodd" d="M540.019 356.9C536.592 353.473 535.345 374.573 491.511 374.573C433.626 374.573 423.281 348.043 421.148 350.176C419.016 352.308 438.014 380.314 491.716 380.314C527.251 380.314 543.447 360.328 540.019 356.9Z" fill="#B6925C"/>
</g>
<rect x="5" y="5" width="670" height="570" rx="15" stroke="#333333" stroke-width="10"/>
<defs>
<linearGradient id="paint0_linear_4251_106871" x1="1020" y1="580" x2="1020" y2="1160" gradientUnits="userSpaceOnUse">
<stop stop-color="#333333"/>
<stop offset="1" stop-color="#333333" stop-opacity="0"/>
</linearGradient>
<clipPath id="clip0_4251_106871">
<rect width="680" height="580" rx="20" fill="white"/>
</clipPath>
</defs>
</svg>
