<svg width="40" height="40" viewBox="0 0 40 40" fill="none" xmlns="http://www.w3.org/2000/svg">
<path d="M20 40C8.95431 40 -3.91405e-07 31.0457 -8.74228e-07 20C-1.35705e-06 8.95431 8.9543 -3.91405e-07 20 -8.74228e-07C31.0457 -1.35705e-06 40 8.9543 40 20C40 31.0457 31.0457 40 20 40Z" fill="white"/>
<path d="M12.3666 22.6833L22.6584 27.8292C24.6531 28.8265 27 27.376 27 25.1459L27 14.8541C27 12.624 24.6531 11.1735 22.6584 12.1708L12.3666 17.3167C10.1554 18.4223 10.1554 21.5777 12.3666 22.6833Z" fill="#00635D"/>
</svg>
