<svg width="40" height="44" viewBox="0 0 40 44" fill="none" xmlns="http://www.w3.org/2000/svg">
<g filter="url(#filter0_d_3785_107663)">
<path d="M20 2.38498e-07C31.0457 1.06779e-07 40 8.95431 40 20C40 31.0457 31.0457 40 20 40C8.95431 40 3.70216e-07 31.0457 2.38498e-07 20C1.06779e-07 8.95431 8.95431 3.70216e-07 20 2.38498e-07Z" fill="white"/>
<path d="M28.6334 18.3167L18.3416 13.1708C16.3469 12.1735 14 13.624 14 15.8541L14 26.1459C14 28.376 16.3469 29.8265 18.3416 28.8292L28.6334 23.6833C30.8446 22.5777 30.8446 19.4223 28.6334 18.3167Z" fill="#008E86"/>
</g>
<defs>
<filter id="filter0_d_3785_107663" x="0" y="0" width="40" height="44" filterUnits="userSpaceOnUse" color-interpolation-filters="sRGB">
<feFlood flood-opacity="0" result="BackgroundImageFix"/>
<feColorMatrix in="SourceAlpha" type="matrix" values="0 0 0 0 0 0 0 0 0 0 0 0 0 0 0 0 0 0 127 0" result="hardAlpha"/>
<feOffset dy="4"/>
<feColorMatrix type="matrix" values="0 0 0 0 0 0 0 0 0 0 0 0 0 0 0 0 0 0 0.25 0"/>
<feBlend mode="normal" in2="BackgroundImageFix" result="effect1_dropShadow_3785_107663"/>
<feBlend mode="normal" in="SourceGraphic" in2="effect1_dropShadow_3785_107663" result="shape"/>
</filter>
</defs>
</svg>
