<svg width="380" height="380" viewBox="0 0 380 380" fill="none" xmlns="http://www.w3.org/2000/svg">
<g clip-path="url(#clip0_4415_112991)">
<rect width="380" height="380" rx="20" fill="#333333"/>
<path d="M170.304 171.559L71.4467 129.191C63.3656 125.728 63.3656 114.272 71.4467 110.809L170.304 68.4411C182.881 63.0508 197.119 63.0508 209.696 68.4411L308.553 110.809C316.634 114.272 316.634 125.728 308.553 129.191L209.696 171.559C197.118 176.949 182.881 176.949 170.304 171.559Z" fill="#EDCA71"/>
<path d="M189.404 114.8L185.74 126H182.956L180.492 118.416L177.948 126H175.18L171.5 114.8H174.188L176.716 122.672L179.356 114.8H181.756L184.316 122.736L186.924 114.8H189.404ZM190.75 117.44H198.366V119.392H190.75V117.44ZM190.75 121.408H198.366V123.36H190.75V121.408ZM203.8 119.008C205.379 119.008 206.541 119.323 207.288 119.952C208.045 120.581 208.424 121.424 208.424 122.48C208.424 123.163 208.253 123.787 207.912 124.352C207.571 124.907 207.048 125.355 206.344 125.696C205.651 126.027 204.792 126.192 203.768 126.192C202.979 126.192 202.2 126.091 201.432 125.888C200.675 125.675 200.029 125.376 199.496 124.992L200.52 123.008C200.947 123.328 201.437 123.579 201.992 123.76C202.547 123.931 203.117 124.016 203.704 124.016C204.355 124.016 204.867 123.888 205.24 123.632C205.613 123.376 205.8 123.019 205.8 122.56C205.8 122.08 205.603 121.717 205.208 121.472C204.824 121.227 204.152 121.104 203.192 121.104H200.328L200.904 114.8H207.736V116.88H203.064L202.888 119.008H203.8Z" fill="#4F4F4F"/>
<path d="M10 119C9.44772 119 9 119.448 9 120C9 120.552 9.44772 121 10 121L10 119ZM50 120L40 114.226L40 125.774L50 120ZM10 121L41 121L41 119L10 119L10 121Z" fill="white"/>
<path d="M191 186C191 185.448 190.552 185 190 185C189.448 185 189 185.448 189 186L191 186ZM190 216L195.774 206H184.226L190 216ZM189 186V207H191V186L189 186Z" fill="white"/>
<path d="M191 236C191 235.448 190.552 235 190 235C189.448 235 189 235.448 189 236L191 236ZM190 266L195.774 256H184.226L190 266ZM189 236V257H191V236L189 236Z" fill="white"/>
<path d="M330 119C329.448 119 329 119.448 329 120C329 120.552 329.448 121 330 121L330 119ZM348.5 120L348.5 121C349.052 121 349.5 120.552 349.5 120L348.5 120ZM348.5 37.5L342.726 47.5L354.274 47.5L348.5 37.5ZM330 121L348.5 121L348.5 119L330 119L330 121ZM349.5 120L349.5 46.5L347.5 46.5L347.5 120L349.5 120Z" fill="white"/>
<path d="M312 21C312.552 21 313 20.5523 313 20C313 19.4477 312.552 19 312 19L312 21ZM190 20L190 19C189.735 19 189.48 19.1054 189.293 19.2929C189.105 19.4804 189 19.7348 189 20L190 20ZM190 61.5L195.774 51.5L184.226 51.5L190 61.5ZM312 19L190 19L190 21L312 21L312 19ZM189 20L189 52.5L191 52.5L191 20L189 20Z" fill="white"/>
<rect x="50" y="280" width="280" height="80" rx="20" fill="#69E485"/>
<path d="M132.633 314.8H135.225V326H132.633V314.8ZM148.155 314.8V326H146.027L140.443 319.2V326H137.883V314.8H140.027L145.595 321.6V314.8H148.155ZM154.485 326.192C153.599 326.192 152.741 326.075 151.909 325.84C151.087 325.595 150.426 325.28 149.925 324.896L150.805 322.944C151.285 323.296 151.855 323.579 152.517 323.792C153.178 324.005 153.839 324.112 154.501 324.112C155.237 324.112 155.781 324.005 156.133 323.792C156.485 323.568 156.661 323.275 156.661 322.912C156.661 322.645 156.554 322.427 156.341 322.256C156.138 322.075 155.871 321.931 155.541 321.824C155.221 321.717 154.783 321.6 154.229 321.472C153.375 321.269 152.677 321.067 152.133 320.864C151.589 320.661 151.119 320.336 150.725 319.888C150.341 319.44 150.149 318.843 150.149 318.096C150.149 317.445 150.325 316.859 150.677 316.336C151.029 315.803 151.557 315.381 152.261 315.072C152.975 314.763 153.845 314.608 154.869 314.608C155.583 314.608 156.282 314.693 156.965 314.864C157.647 315.035 158.245 315.28 158.757 315.6L157.957 317.568C156.922 316.981 155.887 316.688 154.853 316.688C154.127 316.688 153.589 316.805 153.237 317.04C152.895 317.275 152.725 317.584 152.725 317.968C152.725 318.352 152.922 318.64 153.317 318.832C153.722 319.013 154.335 319.195 155.157 319.376C156.01 319.579 156.709 319.781 157.253 319.984C157.797 320.187 158.261 320.507 158.645 320.944C159.039 321.381 159.237 321.973 159.237 322.72C159.237 323.36 159.055 323.947 158.693 324.48C158.341 325.003 157.807 325.419 157.093 325.728C156.378 326.037 155.509 326.192 154.485 326.192ZM163.171 316.912H159.587V314.8H169.347V316.912H165.763V326H163.171V316.912ZM177.878 326L175.718 322.88H175.59H173.334V326H170.742V314.8H175.59C176.582 314.8 177.441 314.965 178.166 315.296C178.902 315.627 179.467 316.096 179.862 316.704C180.257 317.312 180.454 318.032 180.454 318.864C180.454 319.696 180.251 320.416 179.846 321.024C179.451 321.621 178.886 322.08 178.15 322.4L180.662 326H177.878ZM177.83 318.864C177.83 318.235 177.627 317.755 177.222 317.424C176.817 317.083 176.225 316.912 175.446 316.912H173.334V320.816H175.446C176.225 320.816 176.817 320.645 177.222 320.304C177.627 319.963 177.83 319.483 177.83 318.864ZM187.484 326.192C185.884 326.192 184.636 325.749 183.74 324.864C182.854 323.979 182.412 322.715 182.412 321.072V314.8H185.004V320.976C185.004 322.981 185.836 323.984 187.5 323.984C188.31 323.984 188.929 323.744 189.356 323.264C189.782 322.773 189.996 322.011 189.996 320.976V314.8H192.556V321.072C192.556 322.715 192.108 323.979 191.212 324.864C190.326 325.749 189.084 326.192 187.484 326.192ZM200.477 326.192C199.336 326.192 198.301 325.947 197.373 325.456C196.456 324.955 195.73 324.267 195.197 323.392C194.674 322.507 194.413 321.509 194.413 320.4C194.413 319.291 194.674 318.299 195.197 317.424C195.73 316.539 196.456 315.851 197.373 315.36C198.301 314.859 199.341 314.608 200.493 314.608C201.464 314.608 202.338 314.779 203.117 315.12C203.906 315.461 204.568 315.952 205.101 316.592L203.437 318.128C202.68 317.253 201.741 316.816 200.621 316.816C199.928 316.816 199.309 316.971 198.765 317.28C198.221 317.579 197.794 318 197.485 318.544C197.186 319.088 197.037 319.707 197.037 320.4C197.037 321.093 197.186 321.712 197.485 322.256C197.794 322.8 198.221 323.227 198.765 323.536C199.309 323.835 199.928 323.984 200.621 323.984C201.741 323.984 202.68 323.541 203.437 322.656L205.101 324.192C204.568 324.843 203.906 325.339 203.117 325.68C202.328 326.021 201.448 326.192 200.477 326.192ZM211.977 326.192C210.836 326.192 209.801 325.947 208.873 325.456C207.956 324.955 207.23 324.267 206.697 323.392C206.174 322.507 205.913 321.509 205.913 320.4C205.913 319.291 206.174 318.299 206.697 317.424C207.23 316.539 207.956 315.851 208.873 315.36C209.801 314.859 210.841 314.608 211.993 314.608C212.964 314.608 213.838 314.779 214.617 315.12C215.406 315.461 216.068 315.952 216.601 316.592L214.937 318.128C214.18 317.253 213.241 316.816 212.121 316.816C211.428 316.816 210.809 316.971 210.265 317.28C209.721 317.579 209.294 318 208.985 318.544C208.686 319.088 208.537 319.707 208.537 320.4C208.537 321.093 208.686 321.712 208.985 322.256C209.294 322.8 209.721 323.227 210.265 323.536C210.809 323.835 211.428 323.984 212.121 323.984C213.241 323.984 214.18 323.541 214.937 322.656L216.601 324.192C216.068 324.843 215.406 325.339 214.617 325.68C213.828 326.021 212.948 326.192 211.977 326.192ZM218.351 314.8H220.943V326H218.351V314.8ZM229.025 326.192C227.863 326.192 226.812 325.941 225.873 325.44C224.945 324.939 224.215 324.251 223.681 323.376C223.159 322.491 222.897 321.499 222.897 320.4C222.897 319.301 223.159 318.315 223.681 317.44C224.215 316.555 224.945 315.861 225.873 315.36C226.812 314.859 227.863 314.608 229.025 314.608C230.188 314.608 231.233 314.859 232.161 315.36C233.089 315.861 233.82 316.555 234.353 317.44C234.887 318.315 235.153 319.301 235.153 320.4C235.153 321.499 234.887 322.491 234.353 323.376C233.82 324.251 233.089 324.939 232.161 325.44C231.233 325.941 230.188 326.192 229.025 326.192ZM229.025 323.984C229.687 323.984 230.284 323.835 230.817 323.536C231.351 323.227 231.767 322.8 232.065 322.256C232.375 321.712 232.529 321.093 232.529 320.4C232.529 319.707 232.375 319.088 232.065 318.544C231.767 318 231.351 317.579 230.817 317.28C230.284 316.971 229.687 316.816 229.025 316.816C228.364 316.816 227.767 316.971 227.233 317.28C226.7 317.579 226.279 318 225.969 318.544C225.671 319.088 225.521 319.707 225.521 320.4C225.521 321.093 225.671 321.712 225.969 322.256C226.279 322.8 226.7 323.227 227.233 323.536C227.767 323.835 228.364 323.984 229.025 323.984ZM229.729 311.584H232.417L229.521 313.888H227.569L229.729 311.584ZM247.373 314.8V326H245.245L239.661 319.2V326H237.101V314.8H239.245L244.813 321.6V314.8H247.373Z" fill="#4F4F4F"/>
<path d="M337.889 14.8V26H335.761L330.177 19.2V26H327.617V14.8H329.761L335.329 21.6V14.8H337.889ZM345.963 26.192C344.8 26.192 343.75 25.9413 342.811 25.44C341.883 24.9387 341.152 24.2507 340.619 23.376C340.096 22.4907 339.835 21.4987 339.835 20.4C339.835 19.3013 340.096 18.3147 340.619 17.44C341.152 16.5547 341.883 15.8613 342.811 15.36C343.75 14.8587 344.8 14.608 345.963 14.608C347.126 14.608 348.171 14.8587 349.099 15.36C350.027 15.8613 350.758 16.5547 351.291 17.44C351.824 18.3147 352.091 19.3013 352.091 20.4C352.091 21.4987 351.824 22.4907 351.291 23.376C350.758 24.2507 350.027 24.9387 349.099 25.44C348.171 25.9413 347.126 26.192 345.963 26.192ZM345.963 23.984C346.624 23.984 347.222 23.8347 347.755 23.536C348.288 23.2267 348.704 22.8 349.003 22.256C349.312 21.712 349.467 21.0933 349.467 20.4C349.467 19.7067 349.312 19.088 349.003 18.544C348.704 18 348.288 17.5787 347.755 17.28C347.222 16.9707 346.624 16.816 345.963 16.816C345.302 16.816 344.704 16.9707 344.171 17.28C343.638 17.5787 343.216 18 342.907 18.544C342.608 19.088 342.459 19.7067 342.459 20.4C342.459 21.0933 342.608 21.712 342.907 22.256C343.216 22.8 343.638 23.2267 344.171 23.536C344.704 23.8347 345.302 23.984 345.963 23.984Z" fill="white"/>
<path d="M187.281 232.192C186.396 232.192 185.537 232.075 184.705 231.84C183.884 231.595 183.223 231.28 182.721 230.896L183.601 228.944C184.081 229.296 184.652 229.579 185.313 229.792C185.975 230.005 186.636 230.112 187.297 230.112C188.033 230.112 188.577 230.005 188.929 229.792C189.281 229.568 189.457 229.275 189.457 228.912C189.457 228.645 189.351 228.427 189.137 228.256C188.935 228.075 188.668 227.931 188.337 227.824C188.017 227.717 187.58 227.6 187.025 227.472C186.172 227.269 185.473 227.067 184.929 226.864C184.385 226.661 183.916 226.336 183.521 225.888C183.137 225.44 182.945 224.843 182.945 224.096C182.945 223.445 183.121 222.859 183.473 222.336C183.825 221.803 184.353 221.381 185.057 221.072C185.772 220.763 186.641 220.608 187.665 220.608C188.38 220.608 189.079 220.693 189.761 220.864C190.444 221.035 191.041 221.28 191.553 221.6L190.753 223.568C189.719 222.981 188.684 222.688 187.649 222.688C186.924 222.688 186.385 222.805 186.033 223.04C185.692 223.275 185.521 223.584 185.521 223.968C185.521 224.352 185.719 224.64 186.113 224.832C186.519 225.013 187.132 225.195 187.953 225.376C188.807 225.579 189.505 225.781 190.049 225.984C190.593 226.187 191.057 226.507 191.441 226.944C191.836 227.381 192.033 227.973 192.033 228.72C192.033 229.36 191.852 229.947 191.489 230.48C191.137 231.003 190.604 231.419 189.889 231.728C189.175 232.037 188.305 232.192 187.281 232.192ZM193.805 220.8H196.397V232H193.805V220.8ZM195.805 217.584H198.493L195.597 219.888H193.645L195.805 217.584Z" fill="white"/>
</g>
<defs>
<clipPath id="clip0_4415_112991">
<rect width="380" height="380" rx="20" fill="white"/>
</clipPath>
</defs>
</svg>
