<svg width="380" height="224" viewBox="0 0 380 224" fill="none" xmlns="http://www.w3.org/2000/svg">
<g>
<rect width="380" height="220" rx="20" fill="#F2F2F2"/>
<path fill-rule="evenodd" clip-rule="evenodd" d="M330 60.6125C330 50.5789 321.783 42.4453 311.649 42.4453C279.567 42.4453 229.135 42.4453 206.114 42.4453C201.415 42.4451 196.896 40.6607 193.486 37.4597C185.846 30.2988 166.561 18 124.406 18C64.9744 18 51 42.4453 51 42.4453C51 42.4453 51.0004 54.2977 51.0005 65.2535C51.0007 75.2873 59.217 83.4211 69.3522 83.4211C91.0945 83.4211 124.406 83.4211 124.406 83.4211L132.482 90.6724H160.379L168.45 83.4211C168.45 83.4211 266.527 83.4211 311.649 83.4211C316.516 83.4211 321.184 81.5069 324.626 78.0996C328.067 74.6922 330.001 70.0708 330 65.2523C330 63.7115 330 62.1531 330 60.6125Z" fill="#FC79FF"/>
<path fill-rule="evenodd" clip-rule="evenodd" d="M330 62.5774H325.596V63.3467C325.596 67.5184 323.922 71.5191 320.942 74.4689C317.962 77.4188 313.921 79.0759 309.707 79.0759H166.625L158.555 86.3269H134.306L126.23 79.0759C126.23 79.0759 92.1738 79.0759 71.2924 79.0759C67.0786 79.0759 63.0375 77.4188 60.0579 74.4689C57.0784 71.5191 55.4044 67.5184 55.4044 63.3467V62.5774H51V65.2817C51 70.1 52.9335 74.7213 56.3751 78.1285C59.8167 81.5356 64.4845 83.4496 69.3517 83.4496C91.0943 83.4496 124.406 83.4496 124.406 83.4496L132.482 90.7009H160.379L168.45 83.4496H311.648C321.783 83.4496 330 75.3159 330 65.282C330 63.6384 330 62.5774 330 62.5774Z" fill="#CD5ACF"/>
<path fill-rule="evenodd" clip-rule="evenodd" d="M51 62.5489H55.4044V44.6323C55.4044 44.6323 67.4088 22.3738 124.389 22.3738C163.084 22.3738 182.435 33.71 190.611 40.5825C194.552 43.8976 199.545 45.7354 204.716 45.7748C228.728 45.9695 279.378 46.4669 309.709 46.698C318.503 46.765 325.596 53.8415 325.596 62.5475V62.5489H330V60.6134C330 50.5794 321.784 42.4453 311.648 42.4453C279.572 42.4453 229.158 42.4453 206.126 42.4453C201.423 42.4451 196.899 40.6574 193.489 37.451C185.859 30.2888 166.593 18 124.406 18C64.9055 18 51.0005 42.4453 51.0005 42.4453L51 62.5489Z" fill="#FDACFF"/>
<path d="M75.2072 67.2075C74.2086 67.2075 73.3032 66.9928 72.4912 66.5635C71.6886 66.1248 71.0539 65.5228 70.5872 64.7575C70.1299 63.9828 69.9012 63.1102 69.9012 62.1395C69.9012 61.1688 70.1299 60.3008 70.5872 59.5355C71.0539 58.7608 71.6886 58.1588 72.4912 57.7295C73.3032 57.2908 74.2132 57.0715 75.2212 57.0715C76.0706 57.0715 76.8359 57.2208 77.5172 57.5195C78.2079 57.8182 78.7866 58.2475 79.2532 58.8075L77.7972 60.1515C77.1346 59.3862 76.3132 59.0035 75.3332 59.0035C74.7266 59.0035 74.1852 59.1388 73.7092 59.4095C73.2332 59.6708 72.8599 60.0395 72.5892 60.5155C72.3279 60.9915 72.1972 61.5328 72.1972 62.1395C72.1972 62.7462 72.3279 63.2875 72.5892 63.7635C72.8599 64.2395 73.2332 64.6128 73.7092 64.8835C74.1852 65.1448 74.7266 65.2755 75.3332 65.2755C76.3132 65.2755 77.1346 64.8882 77.7972 64.1135L79.2532 65.4575C78.7866 66.0268 78.2079 66.4608 77.5172 66.7595C76.8266 67.0582 76.0566 67.2075 75.2072 67.2075ZM88.0274 59.5075V67.0395H85.9554V66.1435C85.6661 66.4702 85.3207 66.7222 84.9194 66.8995C84.5181 67.0675 84.0841 67.1515 83.6174 67.1515C82.6281 67.1515 81.8441 66.8668 81.2654 66.2975C80.6867 65.7282 80.3974 64.8835 80.3974 63.7635V59.5075H82.5814V63.4415C82.5814 64.6548 83.0901 65.2615 84.1074 65.2615C84.6301 65.2615 85.0501 65.0935 85.3674 64.7575C85.6847 64.4122 85.8434 63.9035 85.8434 63.2315V59.5075H88.0274ZM93.0887 59.3955C94.2554 59.3955 95.1514 59.6755 95.7767 60.2355C96.4021 60.7862 96.7147 61.6215 96.7147 62.7415V67.0395H94.6707V66.1015C94.2601 66.8015 93.4947 67.1515 92.3747 67.1515C91.7961 67.1515 91.2921 67.0535 90.8627 66.8575C90.4427 66.6615 90.1207 66.3908 89.8967 66.0455C89.6727 65.7002 89.5607 65.3082 89.5607 64.8695C89.5607 64.1695 89.8221 63.6188 90.3447 63.2175C90.8767 62.8162 91.6934 62.6155 92.7947 62.6155H94.5307C94.5307 62.1395 94.3861 61.7755 94.0967 61.5235C93.8074 61.2622 93.3734 61.1315 92.7947 61.1315C92.3934 61.1315 91.9967 61.1968 91.6047 61.3275C91.2221 61.4488 90.8954 61.6168 90.6247 61.8315L89.8407 60.3055C90.2514 60.0162 90.7414 59.7922 91.3107 59.6335C91.8894 59.4748 92.4821 59.3955 93.0887 59.3955ZM92.9207 65.6815C93.2941 65.6815 93.6254 65.5975 93.9147 65.4295C94.2041 65.2522 94.4094 64.9955 94.5307 64.6595V63.8895H93.0327C92.1367 63.8895 91.6887 64.1835 91.6887 64.7715C91.6887 65.0515 91.7961 65.2755 92.0107 65.4435C92.2347 65.6022 92.5381 65.6815 92.9207 65.6815ZM103.269 59.3955C104.203 59.3955 104.954 59.6755 105.523 60.2355C106.102 60.7955 106.391 61.6262 106.391 62.7275V67.0395H104.207V63.0635C104.207 62.4662 104.077 62.0228 103.815 61.7335C103.554 61.4348 103.176 61.2855 102.681 61.2855C102.131 61.2855 101.692 61.4582 101.365 61.8035C101.039 62.1395 100.875 62.6435 100.875 63.3155V67.0395H98.6913V59.5075H100.777V60.3895C101.067 60.0722 101.426 59.8295 101.855 59.6615C102.285 59.4842 102.756 59.3955 103.269 59.3955ZM116.125 56.6515V67.0395H114.039V66.1715C113.498 66.8248 112.714 67.1515 111.687 67.1515C110.978 67.1515 110.334 66.9928 109.755 66.6755C109.186 66.3582 108.738 65.9055 108.411 65.3175C108.084 64.7295 107.921 64.0482 107.921 63.2735C107.921 62.4988 108.084 61.8175 108.411 61.2295C108.738 60.6415 109.186 60.1888 109.755 59.8715C110.334 59.5542 110.978 59.3955 111.687 59.3955C112.648 59.3955 113.4 59.6988 113.941 60.3055V56.6515H116.125ZM112.065 65.3595C112.616 65.3595 113.073 65.1728 113.437 64.7995C113.801 64.4168 113.983 63.9082 113.983 63.2735C113.983 62.6388 113.801 62.1348 113.437 61.7615C113.073 61.3788 112.616 61.1875 112.065 61.1875C111.505 61.1875 111.043 61.3788 110.679 61.7615C110.315 62.1348 110.133 62.6388 110.133 63.2735C110.133 63.9082 110.315 64.4168 110.679 64.7995C111.043 65.1728 111.505 65.3595 112.065 65.3595ZM121.73 67.1515C120.937 67.1515 120.223 66.9882 119.588 66.6615C118.963 66.3255 118.473 65.8635 118.118 65.2755C117.764 64.6875 117.586 64.0202 117.586 63.2735C117.586 62.5268 117.764 61.8595 118.118 61.2715C118.473 60.6835 118.963 60.2262 119.588 59.8995C120.223 59.5635 120.937 59.3955 121.73 59.3955C122.524 59.3955 123.233 59.5635 123.858 59.8995C124.484 60.2262 124.974 60.6835 125.328 61.2715C125.683 61.8595 125.86 62.5268 125.86 63.2735C125.86 64.0202 125.683 64.6875 125.328 65.2755C124.974 65.8635 124.484 66.3255 123.858 66.6615C123.233 66.9882 122.524 67.1515 121.73 67.1515ZM121.73 65.3595C122.29 65.3595 122.748 65.1728 123.102 64.7995C123.466 64.4168 123.648 63.9082 123.648 63.2735C123.648 62.6388 123.466 62.1348 123.102 61.7615C122.748 61.3788 122.29 61.1875 121.73 61.1875C121.17 61.1875 120.708 61.3788 120.344 61.7615C119.98 62.1348 119.798 62.6388 119.798 63.2735C119.798 63.9082 119.98 64.4168 120.344 64.7995C120.708 65.1728 121.17 65.3595 121.73 65.3595ZM128.146 62.1255C127.764 62.1255 127.442 61.9948 127.18 61.7335C126.919 61.4722 126.788 61.1455 126.788 60.7535C126.788 60.3522 126.919 60.0302 127.18 59.7875C127.442 59.5355 127.764 59.4095 128.146 59.4095C128.529 59.4095 128.851 59.5355 129.112 59.7875C129.374 60.0302 129.504 60.3522 129.504 60.7535C129.504 61.1455 129.374 61.4722 129.112 61.7335C128.851 61.9948 128.529 62.1255 128.146 62.1255ZM128.146 67.1515C127.764 67.1515 127.442 67.0208 127.18 66.7595C126.919 66.4982 126.788 66.1715 126.788 65.7795C126.788 65.3782 126.919 65.0562 127.18 64.8135C127.442 64.5615 127.764 64.4355 128.146 64.4355C128.529 64.4355 128.851 64.5615 129.112 64.8135C129.374 65.0562 129.504 65.3782 129.504 65.7795C129.504 66.1715 129.374 66.4982 129.112 66.7595C128.851 67.0208 128.529 67.1515 128.146 67.1515ZM139.401 59.3955C140.101 59.3955 140.736 59.5588 141.305 59.8855C141.884 60.2028 142.336 60.6555 142.663 61.2435C142.99 61.8222 143.153 62.4988 143.153 63.2735C143.153 64.0482 142.99 64.7295 142.663 65.3175C142.336 65.8962 141.884 66.3488 141.305 66.6755C140.736 66.9928 140.101 67.1515 139.401 67.1515C138.44 67.1515 137.684 66.8482 137.133 66.2415V69.7555H134.949V59.5075H137.035V60.3755C137.576 59.7222 138.365 59.3955 139.401 59.3955ZM139.023 65.3595C139.583 65.3595 140.04 65.1728 140.395 64.7995C140.759 64.4168 140.941 63.9082 140.941 63.2735C140.941 62.6388 140.759 62.1348 140.395 61.7615C140.04 61.3788 139.583 61.1875 139.023 61.1875C138.463 61.1875 138.001 61.3788 137.637 61.7615C137.282 62.1348 137.105 62.6388 137.105 63.2735C137.105 63.9082 137.282 64.4168 137.637 64.7995C138.001 65.1728 138.463 65.3595 139.023 65.3595ZM146.701 60.5015C146.963 60.1375 147.313 59.8622 147.751 59.6755C148.199 59.4888 148.713 59.3955 149.291 59.3955V61.4115C149.049 61.3928 148.885 61.3835 148.801 61.3835C148.176 61.3835 147.686 61.5608 147.331 61.9155C146.977 62.2608 146.799 62.7835 146.799 63.4835V67.0395H144.615V59.5075H146.701V60.5015ZM157.899 63.3015C157.899 63.3295 157.885 63.5255 157.857 63.8895H152.159C152.262 64.3562 152.505 64.7248 152.887 64.9955C153.27 65.2662 153.746 65.4015 154.315 65.4015C154.707 65.4015 155.053 65.3455 155.351 65.2335C155.659 65.1122 155.944 64.9255 156.205 64.6735L157.367 65.9335C156.658 66.7455 155.622 67.1515 154.259 67.1515C153.41 67.1515 152.659 66.9882 152.005 66.6615C151.352 66.3255 150.848 65.8635 150.493 65.2755C150.139 64.6875 149.961 64.0202 149.961 63.2735C149.961 62.5362 150.134 61.8735 150.479 61.2855C150.834 60.6882 151.315 60.2262 151.921 59.8995C152.537 59.5635 153.223 59.3955 153.979 59.3955C154.717 59.3955 155.384 59.5542 155.981 59.8715C156.579 60.1888 157.045 60.6462 157.381 61.2435C157.727 61.8315 157.899 62.5175 157.899 63.3015ZM153.993 61.0475C153.499 61.0475 153.083 61.1875 152.747 61.4675C152.411 61.7475 152.206 62.1302 152.131 62.6155H155.841C155.767 62.1395 155.561 61.7615 155.225 61.4815C154.889 61.1922 154.479 61.0475 153.993 61.0475ZM161.887 67.1515C161.262 67.1515 160.651 67.0768 160.053 66.9275C159.456 66.7688 158.98 66.5728 158.625 66.3395L159.353 64.7715C159.689 64.9862 160.095 65.1635 160.571 65.3035C161.047 65.4342 161.514 65.4995 161.971 65.4995C162.895 65.4995 163.357 65.2708 163.357 64.8135C163.357 64.5988 163.231 64.4448 162.979 64.3515C162.727 64.2582 162.34 64.1788 161.817 64.1135C161.201 64.0202 160.693 63.9128 160.291 63.7915C159.89 63.6702 159.54 63.4555 159.241 63.1475C158.952 62.8395 158.807 62.4008 158.807 61.8315C158.807 61.3555 158.943 60.9355 159.213 60.5715C159.493 60.1982 159.895 59.9088 160.417 59.7035C160.949 59.4982 161.575 59.3955 162.293 59.3955C162.825 59.3955 163.353 59.4562 163.875 59.5775C164.407 59.6895 164.846 59.8482 165.191 60.0535L164.463 61.6075C163.801 61.2342 163.077 61.0475 162.293 61.0475C161.827 61.0475 161.477 61.1128 161.243 61.2435C161.01 61.3742 160.893 61.5422 160.893 61.7475C160.893 61.9808 161.019 62.1442 161.271 62.2375C161.523 62.3308 161.925 62.4195 162.475 62.5035C163.091 62.6062 163.595 62.7182 163.987 62.8395C164.379 62.9515 164.72 63.1615 165.009 63.4695C165.299 63.7775 165.443 64.2068 165.443 64.7575C165.443 65.2242 165.303 65.6395 165.023 66.0035C164.743 66.3675 164.333 66.6522 163.791 66.8575C163.259 67.0535 162.625 67.1515 161.887 67.1515ZM166.791 59.5075H168.975V67.0395H166.791V59.5075ZM167.883 58.4575C167.482 58.4575 167.155 58.3408 166.903 58.1075C166.651 57.8742 166.525 57.5848 166.525 57.2395C166.525 56.8942 166.651 56.6048 166.903 56.3715C167.155 56.1382 167.482 56.0215 167.883 56.0215C168.284 56.0215 168.611 56.1335 168.863 56.3575C169.115 56.5815 169.241 56.8615 169.241 57.1975C169.241 57.5615 169.115 57.8648 168.863 58.1075C168.611 58.3408 168.284 58.4575 167.883 58.4575ZM174.586 67.1515C173.793 67.1515 173.079 66.9882 172.444 66.6615C171.819 66.3255 171.329 65.8635 170.974 65.2755C170.619 64.6875 170.442 64.0202 170.442 63.2735C170.442 62.5268 170.619 61.8595 170.974 61.2715C171.329 60.6835 171.819 60.2262 172.444 59.8995C173.079 59.5635 173.793 59.3955 174.586 59.3955C175.379 59.3955 176.089 59.5635 176.714 59.8995C177.339 60.2262 177.829 60.6835 178.184 61.2715C178.539 61.8595 178.716 62.5268 178.716 63.2735C178.716 64.0202 178.539 64.6875 178.184 65.2755C177.829 65.8635 177.339 66.3255 176.714 66.6615C176.089 66.9882 175.379 67.1515 174.586 67.1515ZM174.586 65.3595C175.146 65.3595 175.603 65.1728 175.958 64.7995C176.322 64.4168 176.504 63.9082 176.504 63.2735C176.504 62.6388 176.322 62.1348 175.958 61.7615C175.603 61.3788 175.146 61.1875 174.586 61.1875C174.026 61.1875 173.564 61.3788 173.2 61.7615C172.836 62.1348 172.654 62.6388 172.654 63.2735C172.654 63.9082 172.836 64.4168 173.2 64.7995C173.564 65.1728 174.026 65.3595 174.586 65.3595ZM184.754 59.3955C185.687 59.3955 186.438 59.6755 187.008 60.2355C187.586 60.7955 187.876 61.6262 187.876 62.7275V67.0395H185.692V63.0635C185.692 62.4662 185.561 62.0228 185.3 61.7335C185.038 61.4348 184.66 61.2855 184.166 61.2855C183.615 61.2855 183.176 61.4582 182.85 61.8035C182.523 62.1395 182.36 62.6435 182.36 63.3155V67.0395H180.176V59.5075H182.262V60.3895C182.551 60.0722 182.91 59.8295 183.34 59.6615C183.769 59.4842 184.24 59.3955 184.754 59.3955ZM192.893 59.3955C194.06 59.3955 194.956 59.6755 195.581 60.2355C196.207 60.7862 196.519 61.6215 196.519 62.7415V67.0395H194.475V66.1015C194.065 66.8015 193.299 67.1515 192.179 67.1515C191.601 67.1515 191.097 67.0535 190.667 66.8575C190.247 66.6615 189.925 66.3908 189.701 66.0455C189.477 65.7002 189.365 65.3082 189.365 64.8695C189.365 64.1695 189.627 63.6188 190.149 63.2175C190.681 62.8162 191.498 62.6155 192.599 62.6155H194.335C194.335 62.1395 194.191 61.7755 193.901 61.5235C193.612 61.2622 193.178 61.1315 192.599 61.1315C192.198 61.1315 191.801 61.1968 191.409 61.3275C191.027 61.4488 190.7 61.6168 190.429 61.8315L189.645 60.3055C190.056 60.0162 190.546 59.7922 191.115 59.6335C191.694 59.4748 192.287 59.3955 192.893 59.3955ZM192.725 65.6815C193.099 65.6815 193.43 65.5975 193.719 65.4295C194.009 65.2522 194.214 64.9955 194.335 64.6595V63.8895H192.837C191.941 63.8895 191.493 64.1835 191.493 64.7715C191.493 65.0515 191.601 65.2755 191.815 65.4435C192.039 65.6022 192.343 65.6815 192.725 65.6815ZM200.582 60.5015C200.843 60.1375 201.193 59.8622 201.632 59.6755C202.08 59.4888 202.593 59.3955 203.172 59.3955V61.4115C202.929 61.3928 202.766 61.3835 202.682 61.3835C202.057 61.3835 201.567 61.5608 201.212 61.9155C200.857 62.2608 200.68 62.7835 200.68 63.4835V67.0395H198.496V59.5075H200.582V60.5015ZM212.942 59.3955C213.642 59.3955 214.277 59.5588 214.846 59.8855C215.425 60.2028 215.878 60.6555 216.204 61.2435C216.531 61.8222 216.694 62.4988 216.694 63.2735C216.694 64.0482 216.531 64.7295 216.204 65.3175C215.878 65.8962 215.425 66.3488 214.846 66.6755C214.277 66.9928 213.642 67.1515 212.942 67.1515C211.906 67.1515 211.118 66.8248 210.576 66.1715V67.0395H208.49V56.6515H210.674V60.3055C211.225 59.6988 211.981 59.3955 212.942 59.3955ZM212.564 65.3595C213.124 65.3595 213.582 65.1728 213.936 64.7995C214.3 64.4168 214.482 63.9082 214.482 63.2735C214.482 62.6388 214.3 62.1348 213.936 61.7615C213.582 61.3788 213.124 61.1875 212.564 61.1875C212.004 61.1875 211.542 61.3788 211.178 61.7615C210.824 62.1348 210.646 62.6388 210.646 63.2735C210.646 63.9082 210.824 64.4168 211.178 64.7995C211.542 65.1728 212.004 65.3595 212.564 65.3595ZM221.74 67.1515C220.947 67.1515 220.233 66.9882 219.598 66.6615C218.973 66.3255 218.483 65.8635 218.128 65.2755C217.774 64.6875 217.596 64.0202 217.596 63.2735C217.596 62.5268 217.774 61.8595 218.128 61.2715C218.483 60.6835 218.973 60.2262 219.598 59.8995C220.233 59.5635 220.947 59.3955 221.74 59.3955C222.534 59.3955 223.243 59.5635 223.868 59.8995C224.494 60.2262 224.984 60.6835 225.338 61.2715C225.693 61.8595 225.87 62.5268 225.87 63.2735C225.87 64.0202 225.693 64.6875 225.338 65.2755C224.984 65.8635 224.494 66.3255 223.868 66.6615C223.243 66.9882 222.534 67.1515 221.74 67.1515ZM221.74 65.3595C222.3 65.3595 222.758 65.1728 223.112 64.7995C223.476 64.4168 223.658 63.9082 223.658 63.2735C223.658 62.6388 223.476 62.1348 223.112 61.7615C222.758 61.3788 222.3 61.1875 221.74 61.1875C221.18 61.1875 220.718 61.3788 220.354 61.7615C219.99 62.1348 219.808 62.6388 219.808 63.2735C219.808 63.9082 219.99 64.4168 220.354 64.7995C220.718 65.1728 221.18 65.3595 221.74 65.3595ZM232.188 66.6755C231.973 66.8342 231.707 66.9555 231.39 67.0395C231.082 67.1142 230.755 67.1515 230.41 67.1515C229.514 67.1515 228.819 66.9228 228.324 66.4655C227.839 66.0082 227.596 65.3362 227.596 64.4495V61.3555H226.434V59.6755H227.596V57.8415H229.78V59.6755H231.656V61.3555H229.78V64.4215C229.78 64.7388 229.859 64.9862 230.018 65.1635C230.186 65.3315 230.419 65.4155 230.718 65.4155C231.063 65.4155 231.357 65.3222 231.6 65.1355L232.188 66.6755ZM236.766 67.1515C235.972 67.1515 235.258 66.9882 234.624 66.6615C233.998 66.3255 233.508 65.8635 233.154 65.2755C232.799 64.6875 232.622 64.0202 232.622 63.2735C232.622 62.5268 232.799 61.8595 233.154 61.2715C233.508 60.6835 233.998 60.2262 234.624 59.8995C235.258 59.5635 235.972 59.3955 236.766 59.3955C237.559 59.3955 238.268 59.5635 238.894 59.8995C239.519 60.2262 240.009 60.6835 240.364 61.2715C240.718 61.8595 240.896 62.5268 240.896 63.2735C240.896 64.0202 240.718 64.6875 240.364 65.2755C240.009 65.8635 239.519 66.3255 238.894 66.6615C238.268 66.9882 237.559 67.1515 236.766 67.1515ZM236.766 65.3595C237.326 65.3595 237.783 65.1728 238.138 64.7995C238.502 64.4168 238.684 63.9082 238.684 63.2735C238.684 62.6388 238.502 62.1348 238.138 61.7615C237.783 61.3788 237.326 61.1875 236.766 61.1875C236.206 61.1875 235.744 61.3788 235.38 61.7615C235.016 62.1348 234.834 62.6388 234.834 63.2735C234.834 63.9082 235.016 64.4168 235.38 64.7995C235.744 65.1728 236.206 65.3595 236.766 65.3595ZM237.354 56.5255H239.706L237.172 58.5415H235.464L237.354 56.5255ZM246.933 59.3955C247.867 59.3955 248.618 59.6755 249.187 60.2355C249.766 60.7955 250.055 61.6262 250.055 62.7275V67.0395H247.871V63.0635C247.871 62.4662 247.741 62.0228 247.479 61.7335C247.218 61.4348 246.84 61.2855 246.345 61.2855C245.795 61.2855 245.356 61.4582 245.029 61.8035C244.703 62.1395 244.539 62.6435 244.539 63.3155V67.0395H242.355V59.5075H244.441V60.3895C244.731 60.0722 245.09 59.8295 245.519 59.6615C245.949 59.4842 246.42 59.3955 246.933 59.3955ZM256 59.5075H258.184V67.0395H256V59.5075ZM257.092 58.4575C256.691 58.4575 256.364 58.3408 256.112 58.1075C255.86 57.8742 255.734 57.5848 255.734 57.2395C255.734 56.8942 255.86 56.6048 256.112 56.3715C256.364 56.1382 256.691 56.0215 257.092 56.0215C257.493 56.0215 257.82 56.1335 258.072 56.3575C258.324 56.5815 258.45 56.8615 258.45 57.1975C258.45 57.5615 258.324 57.8648 258.072 58.1075C257.82 58.3408 257.493 58.4575 257.092 58.4575ZM264.789 59.3955C265.722 59.3955 266.474 59.6755 267.043 60.2355C267.622 60.7955 267.911 61.6262 267.911 62.7275V67.0395H265.727V63.0635C265.727 62.4662 265.596 62.0228 265.335 61.7335C265.074 61.4348 264.696 61.2855 264.201 61.2855C263.65 61.2855 263.212 61.4582 262.885 61.8035C262.558 62.1395 262.395 62.6435 262.395 63.3155V67.0395H260.211V59.5075H262.297V60.3895C262.586 60.0722 262.946 59.8295 263.375 59.6615C263.804 59.4842 264.276 59.3955 264.789 59.3955ZM269.891 59.5075H272.075V67.0395H269.891V59.5075ZM270.983 58.4575C270.581 58.4575 270.255 58.3408 270.003 58.1075C269.751 57.8742 269.625 57.5848 269.625 57.2395C269.625 56.8942 269.751 56.6048 270.003 56.3715C270.255 56.1382 270.581 56.0215 270.983 56.0215C271.384 56.0215 271.711 56.1335 271.963 56.3575C272.215 56.5815 272.341 56.8615 272.341 57.1975C272.341 57.5615 272.215 57.8648 271.963 58.1075C271.711 58.3408 271.384 58.4575 270.983 58.4575ZM277.742 67.1515C276.939 67.1515 276.216 66.9882 275.572 66.6615C274.937 66.3255 274.438 65.8635 274.074 65.2755C273.719 64.6875 273.542 64.0202 273.542 63.2735C273.542 62.5268 273.719 61.8595 274.074 61.2715C274.438 60.6835 274.937 60.2262 275.572 59.8995C276.216 59.5635 276.939 59.3955 277.742 59.3955C278.535 59.3955 279.226 59.5635 279.814 59.8995C280.411 60.2262 280.845 60.6975 281.116 61.3135L279.422 62.2235C279.03 61.5328 278.465 61.1875 277.728 61.1875C277.158 61.1875 276.687 61.3742 276.314 61.7475C275.94 62.1208 275.754 62.6295 275.754 63.2735C275.754 63.9175 275.94 64.4262 276.314 64.7995C276.687 65.1728 277.158 65.3595 277.728 65.3595C278.474 65.3595 279.039 65.0142 279.422 64.3235L281.116 65.2475C280.845 65.8448 280.411 66.3115 279.814 66.6475C279.226 66.9835 278.535 67.1515 277.742 67.1515ZM282.373 59.5075H284.557V67.0395H282.373V59.5075ZM283.465 58.4575C283.064 58.4575 282.737 58.3408 282.485 58.1075C282.233 57.8742 282.107 57.5848 282.107 57.2395C282.107 56.8942 282.233 56.6048 282.485 56.3715C282.737 56.1382 283.064 56.0215 283.465 56.0215C283.866 56.0215 284.193 56.1335 284.445 56.3575C284.697 56.5815 284.823 56.8615 284.823 57.1975C284.823 57.5615 284.697 57.8648 284.445 58.1075C284.193 58.3408 283.866 58.4575 283.465 58.4575ZM289.622 59.3955C290.789 59.3955 291.685 59.6755 292.31 60.2355C292.935 60.7862 293.248 61.6215 293.248 62.7415V67.0395H291.204V66.1015C290.793 66.8015 290.028 67.1515 288.908 67.1515C288.329 67.1515 287.825 67.0535 287.396 66.8575C286.976 66.6615 286.654 66.3908 286.43 66.0455C286.206 65.7002 286.094 65.3082 286.094 64.8695C286.094 64.1695 286.355 63.6188 286.878 63.2175C287.41 62.8162 288.227 62.6155 289.328 62.6155H291.064C291.064 62.1395 290.919 61.7755 290.63 61.5235C290.341 61.2622 289.907 61.1315 289.328 61.1315C288.927 61.1315 288.53 61.1968 288.138 61.3275C287.755 61.4488 287.429 61.6168 287.158 61.8315L286.374 60.3055C286.785 60.0162 287.275 59.7922 287.844 59.6335C288.423 59.4748 289.015 59.3955 289.622 59.3955ZM289.454 65.6815C289.827 65.6815 290.159 65.5975 290.448 65.4295C290.737 65.2522 290.943 64.9955 291.064 64.6595V63.8895H289.566C288.67 63.8895 288.222 64.1835 288.222 64.7715C288.222 65.0515 288.329 65.2755 288.544 65.4435C288.768 65.6022 289.071 65.6815 289.454 65.6815ZM297.311 60.5015C297.572 60.1375 297.922 59.8622 298.361 59.6755C298.809 59.4888 299.322 59.3955 299.901 59.3955V61.4115C299.658 61.3928 299.495 61.3835 299.411 61.3835C298.785 61.3835 298.295 61.5608 297.941 61.9155C297.586 62.2608 297.409 62.7835 297.409 63.4835V67.0395H295.225V59.5075H297.311V60.5015ZM301.943 67.1515C301.56 67.1515 301.238 67.0208 300.977 66.7595C300.716 66.4982 300.585 66.1715 300.585 65.7795C300.585 65.3782 300.716 65.0562 300.977 64.8135C301.238 64.5615 301.56 64.4355 301.943 64.4355C302.326 64.4355 302.648 64.5615 302.909 64.8135C303.17 65.0562 303.301 65.3782 303.301 65.7795C303.301 66.1715 303.17 66.4982 302.909 66.7595C302.648 67.0208 302.326 67.1515 301.943 67.1515Z" fill="#333333"/>
<path fill-rule="evenodd" clip-rule="evenodd" d="M329.266 102.656C329.266 97.7066 327.338 92.9601 323.906 89.4604C320.473 85.9608 315.818 83.9946 310.965 83.9946C265.968 83.9946 168.214 83.9998 168.214 83.9998L160.166 91.4477H132.345L124.291 83.9998H98.6697C93.8159 83.9998 89.1609 85.966 85.7288 89.4656C82.2966 92.9652 80.3684 97.7118 80.3684 102.661C80.3684 102.666 80.3684 102.672 80.3684 102.678C80.3684 107.627 82.2966 112.373 85.7288 115.873C89.1609 119.373 93.8159 121.339 98.6697 121.339C110.724 121.339 124.291 121.339 124.291 121.339L132.345 128.787H160.161L168.214 121.339L310.965 121.334C315.818 121.334 320.473 119.367 323.906 115.868C327.338 112.368 329.266 107.622 329.266 102.672C329.266 102.667 329.266 102.661 329.266 102.656Z" fill="#30DCFF"/>
<path fill-rule="evenodd" clip-rule="evenodd" d="M329.266 102.662C329.266 97.7125 327.338 92.966 323.906 89.4663C320.473 85.9667 315.818 84.0005 310.965 84.0005C265.968 84.0005 168.214 84.0005 168.214 84.0005L160.166 91.4484H132.345L124.291 84.0005H98.6697C93.8159 84.0005 89.1609 85.9667 85.7288 89.4663C82.2966 92.966 80.3684 97.7125 80.3684 102.662C80.3684 102.667 80.3684 102.67 80.3684 102.67H84.7607C84.7607 94.5998 91.1768 88.0573 99.0914 88.0573C109.763 88.0573 122.494 88.0573 122.494 88.0573L130.548 95.5052H161.991L170.045 88.0573H310.543C318.458 88.0573 324.874 94.5996 324.874 102.67L329.266 102.67V102.662Z" fill="#93EDFF"/>
<path fill-rule="evenodd" clip-rule="evenodd" d="M329.266 102.665H324.873V102.666C324.873 106.54 323.364 110.256 320.678 112.995C317.991 115.734 314.348 117.273 310.549 117.273C269.062 117.273 166.395 117.273 166.395 117.273L158.341 124.721H134.165L126.111 117.273H99.0856C91.1742 117.273 84.7607 110.733 84.7607 102.666V102.665H80.3684V102.673C80.3684 107.623 82.2966 112.369 85.7288 115.869C89.1609 119.369 93.8159 121.335 98.6697 121.335C110.724 121.335 124.291 121.335 124.291 121.335L132.345 128.783H160.161L168.214 121.335H310.964C321.072 121.335 329.265 112.98 329.266 102.674C329.266 102.668 329.266 102.665 329.266 102.665Z" fill="#08A0BF"/>
<path d="M100.061 111.471C99.1754 111.471 98.3167 111.354 97.4847 111.119C96.6634 110.874 96.0021 110.559 95.5007 110.175L96.3807 108.223C96.8607 108.575 97.4314 108.858 98.0927 109.071C98.7541 109.284 99.4154 109.391 100.077 109.391C100.813 109.391 101.357 109.284 101.709 109.071C102.061 108.847 102.237 108.554 102.237 108.191C102.237 107.924 102.13 107.706 101.917 107.535C101.714 107.354 101.447 107.21 101.117 107.103C100.797 106.996 100.359 106.879 99.8047 106.751C98.9514 106.548 98.2527 106.346 97.7087 106.143C97.1647 105.94 96.6954 105.615 96.3007 105.167C95.9167 104.719 95.7247 104.122 95.7247 103.375C95.7247 102.724 95.9007 102.138 96.2527 101.615C96.6047 101.082 97.1327 100.66 97.8367 100.351C98.5514 100.042 99.4207 99.8869 100.445 99.8869C101.159 99.8869 101.858 99.9723 102.541 100.143C103.223 100.314 103.821 100.559 104.333 100.879L103.533 102.847C102.498 102.26 101.463 101.967 100.429 101.967C99.7034 101.967 99.1647 102.084 98.8127 102.319C98.4714 102.554 98.3007 102.863 98.3007 103.247C98.3007 103.631 98.4981 103.919 98.8927 104.111C99.2981 104.292 99.9114 104.474 100.733 104.655C101.586 104.858 102.285 105.06 102.829 105.263C103.373 105.466 103.837 105.786 104.221 106.223C104.615 106.66 104.813 107.252 104.813 107.999C104.813 108.639 104.631 109.226 104.269 109.759C103.917 110.282 103.383 110.698 102.669 111.007C101.954 111.316 101.085 111.471 100.061 111.471ZM114.84 107.007C114.84 107.039 114.824 107.263 114.792 107.679H108.28C108.397 108.212 108.675 108.634 109.112 108.943C109.549 109.252 110.093 109.407 110.744 109.407C111.192 109.407 111.587 109.343 111.928 109.215C112.28 109.076 112.605 108.863 112.904 108.575L114.232 110.015C113.421 110.943 112.237 111.407 110.68 111.407C109.709 111.407 108.851 111.22 108.104 110.847C107.357 110.463 106.781 109.935 106.376 109.263C105.971 108.591 105.768 107.828 105.768 106.975C105.768 106.132 105.965 105.375 106.36 104.703C106.765 104.02 107.315 103.492 108.008 103.119C108.712 102.735 109.496 102.543 110.36 102.543C111.203 102.543 111.965 102.724 112.648 103.087C113.331 103.45 113.864 103.972 114.248 104.655C114.643 105.327 114.84 106.111 114.84 107.007ZM110.376 104.431C109.811 104.431 109.336 104.591 108.952 104.911C108.568 105.231 108.333 105.668 108.248 106.223H112.488C112.403 105.679 112.168 105.247 111.784 104.927C111.4 104.596 110.931 104.431 110.376 104.431ZM116.502 99.4069H118.998V111.279H116.502V99.4069ZM129.746 107.007C129.746 107.039 129.73 107.263 129.698 107.679H123.186C123.303 108.212 123.581 108.634 124.018 108.943C124.455 109.252 124.999 109.407 125.65 109.407C126.098 109.407 126.493 109.343 126.834 109.215C127.186 109.076 127.511 108.863 127.81 108.575L129.138 110.015C128.327 110.943 127.143 111.407 125.586 111.407C124.615 111.407 123.757 111.22 123.01 110.847C122.263 110.463 121.687 109.935 121.282 109.263C120.877 108.591 120.674 107.828 120.674 106.975C120.674 106.132 120.871 105.375 121.266 104.703C121.671 104.02 122.221 103.492 122.914 103.119C123.618 102.735 124.402 102.543 125.266 102.543C126.109 102.543 126.871 102.724 127.554 103.087C128.237 103.45 128.77 103.972 129.154 104.655C129.549 105.327 129.746 106.111 129.746 107.007ZM125.282 104.431C124.717 104.431 124.242 104.591 123.858 104.911C123.474 105.231 123.239 105.668 123.154 106.223H127.394C127.309 105.679 127.074 105.247 126.69 104.927C126.306 104.596 125.837 104.431 125.282 104.431ZM135.568 111.407C134.651 111.407 133.824 111.22 133.088 110.847C132.363 110.463 131.792 109.935 131.376 109.263C130.971 108.591 130.768 107.828 130.768 106.975C130.768 106.122 130.971 105.359 131.376 104.687C131.792 104.015 132.363 103.492 133.088 103.119C133.824 102.735 134.651 102.543 135.568 102.543C136.475 102.543 137.264 102.735 137.936 103.119C138.619 103.492 139.115 104.031 139.424 104.735L137.488 105.775C137.04 104.986 136.395 104.591 135.552 104.591C134.901 104.591 134.363 104.804 133.936 105.231C133.509 105.658 133.296 106.239 133.296 106.975C133.296 107.711 133.509 108.292 133.936 108.719C134.363 109.146 134.901 109.359 135.552 109.359C136.405 109.359 137.051 108.964 137.488 108.175L139.424 109.231C139.115 109.914 138.619 110.447 137.936 110.831C137.264 111.215 136.475 111.407 135.568 111.407ZM144.912 111.407C143.994 111.407 143.168 111.22 142.432 110.847C141.706 110.463 141.136 109.935 140.72 109.263C140.314 108.591 140.112 107.828 140.112 106.975C140.112 106.122 140.314 105.359 140.72 104.687C141.136 104.015 141.706 103.492 142.432 103.119C143.168 102.735 143.994 102.543 144.912 102.543C145.818 102.543 146.608 102.735 147.28 103.119C147.962 103.492 148.458 104.031 148.768 104.735L146.832 105.775C146.384 104.986 145.738 104.591 144.896 104.591C144.245 104.591 143.706 104.804 143.28 105.231C142.853 105.658 142.64 106.239 142.64 106.975C142.64 107.711 142.853 108.292 143.28 108.719C143.706 109.146 144.245 109.359 144.896 109.359C145.749 109.359 146.394 108.964 146.832 108.175L148.768 109.231C148.458 109.914 147.962 110.447 147.28 110.831C146.608 111.215 145.818 111.407 144.912 111.407ZM150.205 102.671H152.701V111.279H150.205V102.671ZM151.453 101.471C150.994 101.471 150.621 101.338 150.333 101.071C150.045 100.804 149.901 100.474 149.901 100.079C149.901 99.6843 150.045 99.3536 150.333 99.0869C150.621 98.8203 150.994 98.6869 151.453 98.6869C151.911 98.6869 152.285 98.8149 152.573 99.0709C152.861 99.3269 153.005 99.6469 153.005 100.031C153.005 100.447 152.861 100.794 152.573 101.071C152.285 101.338 151.911 101.471 151.453 101.471ZM159.113 111.407C158.207 111.407 157.391 111.22 156.665 110.847C155.951 110.463 155.391 109.935 154.985 109.263C154.58 108.591 154.377 107.828 154.377 106.975C154.377 106.122 154.58 105.359 154.985 104.687C155.391 104.015 155.951 103.492 156.665 103.119C157.391 102.735 158.207 102.543 159.113 102.543C160.02 102.543 160.831 102.735 161.545 103.119C162.26 103.492 162.82 104.015 163.225 104.687C163.631 105.359 163.833 106.122 163.833 106.975C163.833 107.828 163.631 108.591 163.225 109.263C162.82 109.935 162.26 110.463 161.545 110.847C160.831 111.22 160.02 111.407 159.113 111.407ZM159.113 109.359C159.753 109.359 160.276 109.146 160.681 108.719C161.097 108.282 161.305 107.7 161.305 106.975C161.305 106.25 161.097 105.674 160.681 105.247C160.276 104.81 159.753 104.591 159.113 104.591C158.473 104.591 157.945 104.81 157.529 105.247C157.113 105.674 156.905 106.25 156.905 106.975C156.905 107.7 157.113 108.282 157.529 108.719C157.945 109.146 158.473 109.359 159.113 109.359ZM170.734 102.543C171.8 102.543 172.659 102.863 173.31 103.503C173.971 104.143 174.302 105.092 174.302 106.351V111.279H171.806V106.735C171.806 106.052 171.656 105.546 171.358 105.215C171.059 104.874 170.627 104.703 170.062 104.703C169.432 104.703 168.931 104.9 168.558 105.295C168.184 105.679 167.998 106.255 167.998 107.023V111.279H165.502V102.671H167.886V103.679C168.216 103.316 168.627 103.039 169.118 102.847C169.608 102.644 170.147 102.543 170.734 102.543ZM180.036 102.543C181.369 102.543 182.393 102.863 183.108 103.503C183.823 104.132 184.18 105.087 184.18 106.367V111.279H181.844V110.207C181.375 111.007 180.5 111.407 179.22 111.407C178.559 111.407 177.983 111.295 177.492 111.071C177.012 110.847 176.644 110.538 176.388 110.143C176.132 109.748 176.004 109.3 176.004 108.799C176.004 107.999 176.303 107.37 176.9 106.911C177.508 106.452 178.441 106.223 179.7 106.223H181.684C181.684 105.679 181.519 105.263 181.188 104.975C180.857 104.676 180.361 104.527 179.7 104.527C179.241 104.527 178.788 104.602 178.34 104.751C177.903 104.89 177.529 105.082 177.22 105.327L176.324 103.583C176.793 103.252 177.353 102.996 178.004 102.815C178.665 102.634 179.343 102.543 180.036 102.543ZM179.844 109.727C180.271 109.727 180.649 109.631 180.98 109.439C181.311 109.236 181.545 108.943 181.684 108.559V107.679H179.972C178.948 107.679 178.436 108.015 178.436 108.687C178.436 109.007 178.559 109.263 178.804 109.455C179.06 109.636 179.407 109.727 179.844 109.727ZM188.823 103.807C189.122 103.391 189.522 103.076 190.023 102.863C190.535 102.65 191.122 102.543 191.783 102.543V104.847C191.506 104.826 191.319 104.815 191.223 104.815C190.508 104.815 189.948 105.018 189.543 105.423C189.138 105.818 188.935 106.415 188.935 107.215V111.279H186.439V102.671H188.823V103.807ZM200.597 102.863H202.805V104.783H200.661V111.279H198.165V104.783H196.837V102.863H198.165V102.479C198.165 101.498 198.453 100.719 199.029 100.143C199.616 99.5669 200.437 99.2789 201.493 99.2789C201.866 99.2789 202.218 99.3216 202.549 99.4069C202.89 99.4816 203.173 99.5936 203.397 99.7429L202.741 101.551C202.453 101.348 202.117 101.247 201.733 101.247C200.976 101.247 200.597 101.663 200.597 102.495V102.863ZM208.035 111.407C207.128 111.407 206.312 111.22 205.587 110.847C204.872 110.463 204.312 109.935 203.907 109.263C203.502 108.591 203.299 107.828 203.299 106.975C203.299 106.122 203.502 105.359 203.907 104.687C204.312 104.015 204.872 103.492 205.587 103.119C206.312 102.735 207.128 102.543 208.035 102.543C208.942 102.543 209.752 102.735 210.467 103.119C211.182 103.492 211.742 104.015 212.147 104.687C212.552 105.359 212.755 106.122 212.755 106.975C212.755 107.828 212.552 108.591 212.147 109.263C211.742 109.935 211.182 110.463 210.467 110.847C209.752 111.22 208.942 111.407 208.035 111.407ZM208.035 109.359C208.675 109.359 209.198 109.146 209.603 108.719C210.019 108.282 210.227 107.7 210.227 106.975C210.227 106.25 210.019 105.674 209.603 105.247C209.198 104.81 208.675 104.591 208.035 104.591C207.395 104.591 206.867 104.81 206.451 105.247C206.035 105.674 205.827 106.25 205.827 106.975C205.827 107.7 206.035 108.282 206.451 108.719C206.867 109.146 207.395 109.359 208.035 109.359ZM219.655 102.543C220.722 102.543 221.581 102.863 222.231 103.503C222.893 104.143 223.223 105.092 223.223 106.351V111.279H220.727V106.735C220.727 106.052 220.578 105.546 220.279 105.215C219.981 104.874 219.549 104.703 218.983 104.703C218.354 104.703 217.853 104.9 217.479 105.295C217.106 105.679 216.919 106.255 216.919 107.023V111.279H214.423V102.671H216.807V103.679C217.138 103.316 217.549 103.039 218.039 102.847C218.53 102.644 219.069 102.543 219.655 102.543ZM234.348 99.4069V111.279H231.964V110.287C231.345 111.034 230.449 111.407 229.276 111.407C228.465 111.407 227.729 111.226 227.068 110.863C226.417 110.5 225.905 109.983 225.532 109.311C225.158 108.639 224.972 107.86 224.972 106.975C224.972 106.09 225.158 105.311 225.532 104.639C225.905 103.967 226.417 103.45 227.068 103.087C227.729 102.724 228.465 102.543 229.276 102.543C230.374 102.543 231.233 102.89 231.852 103.583V99.4069H234.348ZM229.708 109.359C230.337 109.359 230.86 109.146 231.276 108.719C231.692 108.282 231.9 107.7 231.9 106.975C231.9 106.25 231.692 105.674 231.276 105.247C230.86 104.81 230.337 104.591 229.708 104.591C229.068 104.591 228.54 104.81 228.124 105.247C227.708 105.674 227.5 106.25 227.5 106.975C227.5 107.7 227.708 108.282 228.124 108.719C228.54 109.146 229.068 109.359 229.708 109.359ZM240.754 111.407C239.847 111.407 239.031 111.22 238.306 110.847C237.591 110.463 237.031 109.935 236.626 109.263C236.221 108.591 236.018 107.828 236.018 106.975C236.018 106.122 236.221 105.359 236.626 104.687C237.031 104.015 237.591 103.492 238.306 103.119C239.031 102.735 239.847 102.543 240.754 102.543C241.661 102.543 242.471 102.735 243.186 103.119C243.901 103.492 244.461 104.015 244.866 104.687C245.271 105.359 245.474 106.122 245.474 106.975C245.474 107.828 245.271 108.591 244.866 109.263C244.461 109.935 243.901 110.463 243.186 110.847C242.471 111.22 241.661 111.407 240.754 111.407ZM240.754 109.359C241.394 109.359 241.917 109.146 242.322 108.719C242.738 108.282 242.946 107.7 242.946 106.975C242.946 106.25 242.738 105.674 242.322 105.247C241.917 104.81 241.394 104.591 240.754 104.591C240.114 104.591 239.586 104.81 239.17 105.247C238.754 105.674 238.546 106.25 238.546 106.975C238.546 107.7 238.754 108.282 239.17 108.719C239.586 109.146 240.114 109.359 240.754 109.359Z" fill="#333333"/>
<path fill-rule="evenodd" clip-rule="evenodd" d="M329.266 139.656C329.266 134.707 327.338 129.96 323.906 126.46C320.473 122.961 315.818 120.995 310.965 120.995C265.968 120.995 168.214 121 168.214 121L160.166 128.448H132.345L124.291 121H98.6697C93.8159 121 89.1609 122.966 85.7288 126.466C82.2966 129.965 80.3684 134.712 80.3684 139.661C80.3684 139.666 80.3684 139.672 80.3684 139.678C80.3684 144.627 82.2966 149.373 85.7288 152.873C89.1609 156.373 93.8159 158.339 98.6697 158.339C110.724 158.339 124.291 158.339 124.291 158.339L132.345 165.787H160.161L168.214 158.339L310.965 158.334C315.818 158.334 320.473 156.367 323.906 152.868C327.338 149.368 329.266 144.622 329.266 139.672C329.266 139.667 329.266 139.661 329.266 139.656Z" fill="#30DCFF"/>
<path fill-rule="evenodd" clip-rule="evenodd" d="M329.266 139.662C329.266 134.712 327.338 129.966 323.906 126.466C320.473 122.967 315.818 121.001 310.965 121.001C265.968 121.001 168.214 121.001 168.214 121.001L160.166 128.448H132.345L124.291 121.001H98.6697C93.8159 121.001 89.1609 122.967 85.7288 126.466C82.2966 129.966 80.3684 134.712 80.3684 139.662C80.3684 139.667 80.3684 139.67 80.3684 139.67H84.7607C84.7607 131.6 91.1768 125.057 99.0914 125.057C109.763 125.057 122.494 125.057 122.494 125.057L130.548 132.505H161.991L170.045 125.057H310.543C318.458 125.057 324.874 131.6 324.874 139.67L329.266 139.67V139.662Z" fill="#93EDFF"/>
<path fill-rule="evenodd" clip-rule="evenodd" d="M329.266 139.665H324.873V139.666C324.873 143.54 323.364 147.256 320.678 149.995C317.991 152.734 314.348 154.273 310.549 154.273C269.062 154.273 166.395 154.273 166.395 154.273L158.341 161.721H134.165L126.111 154.273H99.0856C91.1742 154.273 84.7607 147.733 84.7607 139.666V139.665H80.3684V139.673C80.3684 144.623 82.2966 149.369 85.7288 152.869C89.1609 156.369 93.8159 158.335 98.6697 158.335C110.724 158.335 124.291 158.335 124.291 158.335L132.345 165.783H160.161L168.214 158.335H310.964C321.072 158.335 329.265 149.98 329.266 139.674C329.266 139.668 329.266 139.665 329.266 139.665Z" fill="#08A0BF"/>
<path d="M105.053 146.199V148.279H96.3807V137.079H104.845V139.159H98.9567V141.591H104.157V143.607H98.9567V146.199H105.053ZM106.939 136.407H109.435V148.279H106.939V136.407ZM111.752 139.671H114.248V148.279H111.752V139.671ZM113 138.471C112.541 138.471 112.168 138.338 111.88 138.071C111.592 137.804 111.448 137.474 111.448 137.079C111.448 136.684 111.592 136.354 111.88 136.087C112.168 135.82 112.541 135.687 113 135.687C113.458 135.687 113.832 135.815 114.12 136.071C114.408 136.327 114.552 136.647 114.552 137.031C114.552 137.447 114.408 137.794 114.12 138.071C113.832 138.338 113.458 138.471 113 138.471ZM127.588 139.543C128.665 139.543 129.519 139.863 130.148 140.503C130.788 141.132 131.108 142.082 131.108 143.351V148.279H128.612V143.735C128.612 143.052 128.468 142.546 128.18 142.215C127.903 141.874 127.503 141.703 126.98 141.703C126.393 141.703 125.929 141.895 125.588 142.279C125.247 142.652 125.076 143.212 125.076 143.959V148.279H122.58V143.735C122.58 142.38 122.036 141.703 120.948 141.703C120.372 141.703 119.913 141.895 119.572 142.279C119.231 142.652 119.06 143.212 119.06 143.959V148.279H116.564V139.671H118.948V140.663C119.268 140.3 119.657 140.023 120.116 139.831C120.585 139.639 121.097 139.543 121.652 139.543C122.26 139.543 122.809 139.666 123.3 139.911C123.791 140.146 124.185 140.492 124.484 140.951C124.836 140.503 125.279 140.156 125.812 139.911C126.356 139.666 126.948 139.543 127.588 139.543ZM133.345 139.671H135.841V148.279H133.345V139.671ZM134.593 138.471C134.135 138.471 133.761 138.338 133.473 138.071C133.185 137.804 133.041 137.474 133.041 137.079C133.041 136.684 133.185 136.354 133.473 136.087C133.761 135.82 134.135 135.687 134.593 135.687C135.052 135.687 135.425 135.815 135.713 136.071C136.001 136.327 136.145 136.647 136.145 137.031C136.145 137.447 136.001 137.794 135.713 138.071C135.425 138.338 135.052 138.471 134.593 138.471ZM143.39 139.543C144.457 139.543 145.315 139.863 145.966 140.503C146.627 141.143 146.958 142.092 146.958 143.351V148.279H144.462V143.735C144.462 143.052 144.313 142.546 144.014 142.215C143.715 141.874 143.283 141.703 142.718 141.703C142.089 141.703 141.587 141.9 141.214 142.295C140.841 142.679 140.654 143.255 140.654 144.023V148.279H138.158V139.671H140.542V140.679C140.873 140.316 141.283 140.039 141.774 139.847C142.265 139.644 142.803 139.543 143.39 139.543ZM152.692 139.543C154.026 139.543 155.05 139.863 155.764 140.503C156.479 141.132 156.836 142.087 156.836 143.367V148.279H154.5V147.207C154.031 148.007 153.156 148.407 151.876 148.407C151.215 148.407 150.639 148.295 150.148 148.071C149.668 147.847 149.3 147.538 149.044 147.143C148.788 146.748 148.66 146.3 148.66 145.799C148.66 144.999 148.959 144.37 149.556 143.911C150.164 143.452 151.098 143.223 152.356 143.223H154.34C154.34 142.679 154.175 142.263 153.844 141.975C153.514 141.676 153.018 141.527 152.356 141.527C151.898 141.527 151.444 141.602 150.996 141.751C150.559 141.89 150.186 142.082 149.876 142.327L148.98 140.583C149.45 140.252 150.01 139.996 150.66 139.815C151.322 139.634 151.999 139.543 152.692 139.543ZM152.5 146.727C152.927 146.727 153.306 146.631 153.636 146.439C153.967 146.236 154.202 145.943 154.34 145.559V144.679H152.628C151.604 144.679 151.092 145.015 151.092 145.687C151.092 146.007 151.215 146.263 151.46 146.455C151.716 146.636 152.063 146.727 152.5 146.727ZM161.479 140.807C161.778 140.391 162.178 140.076 162.679 139.863C163.191 139.65 163.778 139.543 164.439 139.543V141.847C164.162 141.826 163.975 141.815 163.879 141.815C163.165 141.815 162.605 142.018 162.199 142.423C161.794 142.818 161.591 143.415 161.591 144.215V148.279H159.095V139.671H161.479V140.807ZM173.253 139.863H175.461V141.783H173.317V148.279H170.821V141.783H169.493V139.863H170.821V139.479C170.821 138.498 171.109 137.719 171.685 137.143C172.272 136.567 173.093 136.279 174.149 136.279C174.523 136.279 174.875 136.322 175.205 136.407C175.547 136.482 175.829 136.594 176.053 136.743L175.397 138.551C175.109 138.348 174.773 138.247 174.389 138.247C173.632 138.247 173.253 138.663 173.253 139.495V139.863ZM180.691 148.407C179.785 148.407 178.969 148.22 178.243 147.847C177.529 147.463 176.969 146.935 176.563 146.263C176.158 145.591 175.955 144.828 175.955 143.975C175.955 143.122 176.158 142.359 176.563 141.687C176.969 141.015 177.529 140.492 178.243 140.119C178.969 139.735 179.785 139.543 180.691 139.543C181.598 139.543 182.409 139.735 183.123 140.119C183.838 140.492 184.398 141.015 184.803 141.687C185.209 142.359 185.411 143.122 185.411 143.975C185.411 144.828 185.209 145.591 184.803 146.263C184.398 146.935 183.838 147.463 183.123 147.847C182.409 148.22 181.598 148.407 180.691 148.407ZM180.691 146.359C181.331 146.359 181.854 146.146 182.259 145.719C182.675 145.282 182.883 144.7 182.883 143.975C182.883 143.25 182.675 142.674 182.259 142.247C181.854 141.81 181.331 141.591 180.691 141.591C180.051 141.591 179.523 141.81 179.107 142.247C178.691 142.674 178.483 143.25 178.483 143.975C178.483 144.7 178.691 145.282 179.107 145.719C179.523 146.146 180.051 146.359 180.691 146.359ZM192.312 139.543C193.378 139.543 194.237 139.863 194.888 140.503C195.549 141.143 195.88 142.092 195.88 143.351V148.279H193.384V143.735C193.384 143.052 193.234 142.546 192.936 142.215C192.637 141.874 192.205 141.703 191.64 141.703C191.01 141.703 190.509 141.9 190.136 142.295C189.762 142.679 189.576 143.255 189.576 144.023V148.279H187.08V139.671H189.464V140.679C189.794 140.316 190.205 140.039 190.696 139.847C191.186 139.644 191.725 139.543 192.312 139.543ZM207.004 136.407V148.279H204.62V147.287C204.001 148.034 203.105 148.407 201.932 148.407C201.121 148.407 200.385 148.226 199.724 147.863C199.073 147.5 198.561 146.983 198.188 146.311C197.815 145.639 197.628 144.86 197.628 143.975C197.628 143.09 197.815 142.311 198.188 141.639C198.561 140.967 199.073 140.45 199.724 140.087C200.385 139.724 201.121 139.543 201.932 139.543C203.031 139.543 203.889 139.89 204.508 140.583V136.407H207.004ZM202.364 146.359C202.993 146.359 203.516 146.146 203.932 145.719C204.348 145.282 204.556 144.7 204.556 143.975C204.556 143.25 204.348 142.674 203.932 142.247C203.516 141.81 202.993 141.591 202.364 141.591C201.724 141.591 201.196 141.81 200.78 142.247C200.364 142.674 200.156 143.25 200.156 143.975C200.156 144.7 200.364 145.282 200.78 145.719C201.196 146.146 201.724 146.359 202.364 146.359ZM213.41 148.407C212.503 148.407 211.687 148.22 210.962 147.847C210.247 147.463 209.687 146.935 209.282 146.263C208.877 145.591 208.674 144.828 208.674 143.975C208.674 143.122 208.877 142.359 209.282 141.687C209.687 141.015 210.247 140.492 210.962 140.119C211.687 139.735 212.503 139.543 213.41 139.543C214.317 139.543 215.127 139.735 215.842 140.119C216.557 140.492 217.117 141.015 217.522 141.687C217.927 142.359 218.13 143.122 218.13 143.975C218.13 144.828 217.927 145.591 217.522 146.263C217.117 146.935 216.557 147.463 215.842 147.847C215.127 148.22 214.317 148.407 213.41 148.407ZM213.41 146.359C214.05 146.359 214.573 146.146 214.978 145.719C215.394 145.282 215.602 144.7 215.602 143.975C215.602 143.25 215.394 142.674 214.978 142.247C214.573 141.81 214.05 141.591 213.41 141.591C212.77 141.591 212.242 141.81 211.826 142.247C211.41 142.674 211.202 143.25 211.202 143.975C211.202 144.7 211.41 145.282 211.826 145.719C212.242 146.146 212.77 146.359 213.41 146.359Z" fill="#333333"/>
<path fill-rule="evenodd" clip-rule="evenodd" d="M329.266 176.656C329.266 171.707 327.338 166.96 323.906 163.46C320.473 159.961 315.818 157.995 310.965 157.995C265.968 157.995 168.214 158 168.214 158L160.166 165.448H132.345L124.291 158H98.6697C93.8159 158 89.1609 159.966 85.7288 163.466C82.2966 166.965 80.3684 171.712 80.3684 176.661C80.3684 176.666 80.3684 176.672 80.3684 176.678C80.3684 181.627 82.2966 186.373 85.7288 189.873C89.1609 193.373 93.8159 195.339 98.6697 195.339C110.724 195.339 124.291 195.339 124.291 195.339L132.345 202.787H160.161L168.214 195.339L310.965 195.334C315.818 195.334 320.473 193.367 323.906 189.868C327.338 186.368 329.266 181.622 329.266 176.672C329.266 176.667 329.266 176.661 329.266 176.656Z" fill="#30DCFF"/>
<path fill-rule="evenodd" clip-rule="evenodd" d="M329.266 176.662C329.266 171.712 327.338 166.966 323.906 163.466C320.473 159.967 315.818 158.001 310.965 158.001C265.968 158.001 168.214 158.001 168.214 158.001L160.166 165.448H132.345L124.291 158.001H98.6697C93.8159 158.001 89.1609 159.967 85.7288 163.466C82.2966 166.966 80.3684 171.712 80.3684 176.662C80.3684 176.667 80.3684 176.67 80.3684 176.67H84.7607C84.7607 168.6 91.1768 162.057 99.0914 162.057C109.763 162.057 122.494 162.057 122.494 162.057L130.548 169.505H161.991L170.045 162.057H310.543C318.458 162.057 324.874 168.6 324.874 176.67L329.266 176.67V176.662Z" fill="#93EDFF"/>
<path fill-rule="evenodd" clip-rule="evenodd" d="M329.266 176.665H324.873V176.666C324.873 180.54 323.364 184.256 320.678 186.995C317.991 189.734 314.348 191.273 310.549 191.273C269.062 191.273 166.395 191.273 166.395 191.273L158.341 198.721H134.165L126.111 191.273H99.0856C91.1742 191.273 84.7607 184.733 84.7607 176.666V176.665H80.3684V176.673C80.3684 181.623 82.2966 186.369 85.7288 189.869C89.1609 193.369 93.8159 195.335 98.6697 195.335C110.724 195.335 124.291 195.335 124.291 195.335L132.345 202.783H160.161L168.214 195.335H310.964C321.072 195.335 329.265 186.98 329.266 176.674C329.266 176.668 329.266 176.665 329.266 176.665Z" fill="#08A0BF"/>
<path d="M103.757 182.879H98.5567L97.5647 185.279H94.9087L99.9007 174.079H102.461L107.469 185.279H104.749L103.757 182.879ZM102.941 180.911L101.165 176.623L99.3887 180.911H102.941ZM117.257 176.671V183.839C117.257 185.418 116.846 186.591 116.025 187.359C115.203 188.127 114.003 188.511 112.425 188.511C111.593 188.511 110.803 188.41 110.057 188.207C109.31 188.004 108.691 187.711 108.201 187.327L109.193 185.535C109.555 185.834 110.014 186.068 110.569 186.239C111.123 186.42 111.678 186.511 112.233 186.511C113.097 186.511 113.731 186.314 114.137 185.919C114.553 185.535 114.761 184.948 114.761 184.159V183.791C114.11 184.506 113.203 184.863 112.041 184.863C111.251 184.863 110.526 184.692 109.865 184.351C109.214 183.999 108.697 183.508 108.313 182.879C107.929 182.25 107.737 181.524 107.737 180.703C107.737 179.882 107.929 179.156 108.313 178.527C108.697 177.898 109.214 177.412 109.865 177.071C110.526 176.719 111.251 176.543 112.041 176.543C113.289 176.543 114.238 176.954 114.889 177.775V176.671H117.257ZM112.537 182.815C113.198 182.815 113.737 182.623 114.153 182.239C114.579 181.844 114.793 181.332 114.793 180.703C114.793 180.074 114.579 179.567 114.153 179.183C113.737 178.788 113.198 178.591 112.537 178.591C111.875 178.591 111.331 178.788 110.905 179.183C110.478 179.567 110.265 180.074 110.265 180.703C110.265 181.332 110.478 181.844 110.905 182.239C111.331 182.623 111.875 182.815 112.537 182.815ZM121.964 177.807C122.262 177.391 122.662 177.076 123.164 176.863C123.676 176.65 124.262 176.543 124.924 176.543V178.847C124.646 178.826 124.46 178.815 124.364 178.815C123.649 178.815 123.089 179.018 122.684 179.423C122.278 179.818 122.076 180.415 122.076 181.215V185.279H119.58V176.671H121.964V177.807ZM134.762 181.007C134.762 181.039 134.746 181.263 134.714 181.679H128.202C128.319 182.212 128.596 182.634 129.034 182.943C129.471 183.252 130.015 183.407 130.666 183.407C131.114 183.407 131.508 183.343 131.85 183.215C132.202 183.076 132.527 182.863 132.826 182.575L134.154 184.015C133.343 184.943 132.159 185.407 130.602 185.407C129.631 185.407 128.772 185.22 128.026 184.847C127.279 184.463 126.703 183.935 126.298 183.263C125.892 182.591 125.69 181.828 125.69 180.975C125.69 180.132 125.887 179.375 126.282 178.703C126.687 178.02 127.236 177.492 127.93 177.119C128.634 176.735 129.418 176.543 130.282 176.543C131.124 176.543 131.887 176.724 132.57 177.087C133.252 177.45 133.786 177.972 134.17 178.655C134.564 179.327 134.762 180.111 134.762 181.007ZM130.298 178.431C129.732 178.431 129.258 178.591 128.874 178.911C128.49 179.231 128.255 179.668 128.17 180.223H132.41C132.324 179.679 132.09 179.247 131.706 178.927C131.322 178.596 130.852 178.431 130.298 178.431ZM145.303 176.671V183.839C145.303 185.418 144.893 186.591 144.071 187.359C143.25 188.127 142.05 188.511 140.471 188.511C139.639 188.511 138.85 188.41 138.103 188.207C137.357 188.004 136.738 187.711 136.247 187.327L137.239 185.535C137.602 185.834 138.061 186.068 138.615 186.239C139.17 186.42 139.725 186.511 140.279 186.511C141.143 186.511 141.778 186.314 142.183 185.919C142.599 185.535 142.807 184.948 142.807 184.159V183.791C142.157 184.506 141.25 184.863 140.087 184.863C139.298 184.863 138.573 184.692 137.911 184.351C137.261 183.999 136.743 183.508 136.359 182.879C135.975 182.25 135.783 181.524 135.783 180.703C135.783 179.882 135.975 179.156 136.359 178.527C136.743 177.898 137.261 177.412 137.911 177.071C138.573 176.719 139.298 176.543 140.087 176.543C141.335 176.543 142.285 176.954 142.935 177.775V176.671H145.303ZM140.583 182.815C141.245 182.815 141.783 182.623 142.199 182.239C142.626 181.844 142.839 181.332 142.839 180.703C142.839 180.074 142.626 179.567 142.199 179.183C141.783 178.788 141.245 178.591 140.583 178.591C139.922 178.591 139.378 178.788 138.951 179.183C138.525 179.567 138.311 180.074 138.311 180.703C138.311 181.332 138.525 181.844 138.951 182.239C139.378 182.623 139.922 182.815 140.583 182.815ZM151.099 176.543C152.432 176.543 153.456 176.863 154.171 177.503C154.885 178.132 155.243 179.087 155.243 180.367V185.279H152.907V184.207C152.437 185.007 151.563 185.407 150.283 185.407C149.621 185.407 149.045 185.295 148.555 185.071C148.075 184.847 147.707 184.538 147.451 184.143C147.195 183.748 147.067 183.3 147.067 182.799C147.067 181.999 147.365 181.37 147.963 180.911C148.571 180.452 149.504 180.223 150.763 180.223H152.747C152.747 179.679 152.581 179.263 152.251 178.975C151.92 178.676 151.424 178.527 150.763 178.527C150.304 178.527 149.851 178.602 149.403 178.751C148.965 178.89 148.592 179.082 148.283 179.327L147.387 177.583C147.856 177.252 148.416 176.996 149.067 176.815C149.728 176.634 150.405 176.543 151.099 176.543ZM150.907 183.727C151.333 183.727 151.712 183.631 152.043 183.439C152.373 183.236 152.608 182.943 152.747 182.559V181.679H151.035C150.011 181.679 149.499 182.015 149.499 182.687C149.499 183.007 149.621 183.263 149.867 183.455C150.123 183.636 150.469 183.727 150.907 183.727ZM159.886 177.807C160.184 177.391 160.584 177.076 161.086 176.863C161.598 176.65 162.184 176.543 162.846 176.543V178.847C162.568 178.826 162.382 178.815 162.286 178.815C161.571 178.815 161.011 179.018 160.606 179.423C160.2 179.818 159.998 180.415 159.998 181.215V185.279H157.502V176.671H159.886V177.807ZM174.155 176.543C175.222 176.543 176.081 176.863 176.731 177.503C177.393 178.143 177.723 179.092 177.723 180.351V185.279H175.227V180.735C175.227 180.052 175.078 179.546 174.779 179.215C174.481 178.874 174.049 178.703 173.483 178.703C172.854 178.703 172.353 178.9 171.979 179.295C171.606 179.679 171.419 180.255 171.419 181.023V185.279H168.923V176.671H171.307V177.679C171.638 177.316 172.049 177.039 172.539 176.847C173.03 176.644 173.569 176.543 174.155 176.543ZM188.658 176.671V185.279H186.29V184.255C185.959 184.628 185.565 184.916 185.106 185.119C184.647 185.311 184.151 185.407 183.618 185.407C182.487 185.407 181.591 185.082 180.93 184.431C180.269 183.78 179.938 182.815 179.938 181.535V176.671H182.434V181.167C182.434 182.554 183.015 183.247 184.178 183.247C184.775 183.247 185.255 183.055 185.618 182.671C185.981 182.276 186.162 181.695 186.162 180.927V176.671H188.658ZM199.402 181.007C199.402 181.039 199.386 181.263 199.354 181.679H192.842C192.96 182.212 193.237 182.634 193.674 182.943C194.112 183.252 194.656 183.407 195.306 183.407C195.754 183.407 196.149 183.343 196.49 183.215C196.842 183.076 197.168 182.863 197.466 182.575L198.794 184.015C197.984 184.943 196.8 185.407 195.242 185.407C194.272 185.407 193.413 185.22 192.666 184.847C191.92 184.463 191.344 183.935 190.938 183.263C190.533 182.591 190.33 181.828 190.33 180.975C190.33 180.132 190.528 179.375 190.922 178.703C191.328 178.02 191.877 177.492 192.57 177.119C193.274 176.735 194.058 176.543 194.922 176.543C195.765 176.543 196.528 176.724 197.21 177.087C197.893 177.45 198.426 177.972 198.81 178.655C199.205 179.327 199.402 180.111 199.402 181.007ZM194.938 178.431C194.373 178.431 193.898 178.591 193.514 178.911C193.13 179.231 192.896 179.668 192.81 180.223H197.05C196.965 179.679 196.73 179.247 196.346 178.927C195.962 178.596 195.493 178.431 194.938 178.431ZM209.452 176.671L205.82 185.279H203.244L199.628 176.671H202.204L204.588 182.527L207.052 176.671H209.452ZM214.332 185.407C213.425 185.407 212.609 185.22 211.884 184.847C211.169 184.463 210.609 183.935 210.204 183.263C209.799 182.591 209.596 181.828 209.596 180.975C209.596 180.122 209.799 179.359 210.204 178.687C210.609 178.015 211.169 177.492 211.884 177.119C212.609 176.735 213.425 176.543 214.332 176.543C215.239 176.543 216.049 176.735 216.764 177.119C217.479 177.492 218.039 178.015 218.444 178.687C218.849 179.359 219.052 180.122 219.052 180.975C219.052 181.828 218.849 182.591 218.444 183.263C218.039 183.935 217.479 184.463 216.764 184.847C216.049 185.22 215.239 185.407 214.332 185.407ZM214.332 183.359C214.972 183.359 215.495 183.146 215.9 182.719C216.316 182.282 216.524 181.7 216.524 180.975C216.524 180.25 216.316 179.674 215.9 179.247C215.495 178.81 214.972 178.591 214.332 178.591C213.692 178.591 213.164 178.81 212.748 179.247C212.332 179.674 212.124 180.25 212.124 180.975C212.124 181.7 212.332 182.282 212.748 182.719C213.164 183.146 213.692 183.359 214.332 183.359ZM227.988 176.863H230.196V178.783H228.052V185.279H225.556V178.783H224.228V176.863H225.556V176.479C225.556 175.498 225.844 174.719 226.42 174.143C227.006 173.567 227.828 173.279 228.884 173.279C229.257 173.279 229.609 173.322 229.94 173.407C230.281 173.482 230.564 173.594 230.788 173.743L230.132 175.551C229.844 175.348 229.508 175.247 229.124 175.247C228.366 175.247 227.988 175.663 227.988 176.495V176.863ZM235.426 185.407C234.519 185.407 233.703 185.22 232.978 184.847C232.263 184.463 231.703 183.935 231.298 183.263C230.892 182.591 230.69 181.828 230.69 180.975C230.69 180.122 230.892 179.359 231.298 178.687C231.703 178.015 232.263 177.492 232.978 177.119C233.703 176.735 234.519 176.543 235.426 176.543C236.332 176.543 237.143 176.735 237.858 177.119C238.572 177.492 239.132 178.015 239.538 178.687C239.943 179.359 240.146 180.122 240.146 180.975C240.146 181.828 239.943 182.591 239.538 183.263C239.132 183.935 238.572 184.463 237.858 184.847C237.143 185.22 236.332 185.407 235.426 185.407ZM235.426 183.359C236.066 183.359 236.588 183.146 236.994 182.719C237.41 182.282 237.618 181.7 237.618 180.975C237.618 180.25 237.41 179.674 236.994 179.247C236.588 178.81 236.066 178.591 235.426 178.591C234.786 178.591 234.258 178.81 233.842 179.247C233.426 179.674 233.218 180.25 233.218 180.975C233.218 181.7 233.426 182.282 233.842 182.719C234.258 183.146 234.786 183.359 235.426 183.359ZM247.046 176.543C248.113 176.543 248.971 176.863 249.622 177.503C250.283 178.143 250.614 179.092 250.614 180.351V185.279H248.118V180.735C248.118 180.052 247.969 179.546 247.67 179.215C247.371 178.874 246.939 178.703 246.374 178.703C245.745 178.703 245.243 178.9 244.87 179.295C244.497 179.679 244.31 180.255 244.31 181.023V185.279H241.814V176.671H244.198V177.679C244.529 177.316 244.939 177.039 245.43 176.847C245.921 176.644 246.459 176.543 247.046 176.543ZM261.738 173.407V185.279H259.354V184.287C258.736 185.034 257.84 185.407 256.666 185.407C255.856 185.407 255.12 185.226 254.458 184.863C253.808 184.5 253.296 183.983 252.922 183.311C252.549 182.639 252.362 181.86 252.362 180.975C252.362 180.09 252.549 179.311 252.922 178.639C253.296 177.967 253.808 177.45 254.458 177.087C255.12 176.724 255.856 176.543 256.666 176.543C257.765 176.543 258.624 176.89 259.242 177.583V173.407H261.738ZM257.098 183.359C257.728 183.359 258.25 183.146 258.666 182.719C259.082 182.282 259.29 181.7 259.29 180.975C259.29 180.25 259.082 179.674 258.666 179.247C258.25 178.81 257.728 178.591 257.098 178.591C256.458 178.591 255.93 178.81 255.514 179.247C255.098 179.674 254.89 180.25 254.89 180.975C254.89 181.7 255.098 182.282 255.514 182.719C255.93 183.146 256.458 183.359 257.098 183.359ZM268.144 185.407C267.238 185.407 266.422 185.22 265.696 184.847C264.982 184.463 264.422 183.935 264.016 183.263C263.611 182.591 263.408 181.828 263.408 180.975C263.408 180.122 263.611 179.359 264.016 178.687C264.422 178.015 264.982 177.492 265.696 177.119C266.422 176.735 267.238 176.543 268.144 176.543C269.051 176.543 269.862 176.735 270.576 177.119C271.291 177.492 271.851 178.015 272.256 178.687C272.662 179.359 272.864 180.122 272.864 180.975C272.864 181.828 272.662 182.591 272.256 183.263C271.851 183.935 271.291 184.463 270.576 184.847C269.862 185.22 269.051 185.407 268.144 185.407ZM268.144 183.359C268.784 183.359 269.307 183.146 269.712 182.719C270.128 182.282 270.336 181.7 270.336 180.975C270.336 180.25 270.128 179.674 269.712 179.247C269.307 178.81 268.784 178.591 268.144 178.591C267.504 178.591 266.976 178.81 266.56 179.247C266.144 179.674 265.936 180.25 265.936 180.975C265.936 181.7 266.144 182.282 266.56 182.719C266.976 183.146 267.504 183.359 268.144 183.359Z" fill="#333333"/>
</g>
<defs>
<filter id="filter0_d_3353:107774" x="0" y="0" width="380" height="224" filterUnits="userSpaceOnUse" color-interpolation-filters="sRGB">
<feFlood flood-opacity="0" result="BackgroundImageFix"/>
<feColorMatrix in="SourceAlpha" type="matrix" values="0 0 0 0 0 0 0 0 0 0 0 0 0 0 0 0 0 0 127 0" result="hardAlpha"/>
<feOffset dy="4"/>
<feColorMatrix type="matrix" values="0 0 0 0 0 0 0 0 0 0 0 0 0 0 0 0 0 0 0.25 0"/>
<feBlend mode="normal" in2="BackgroundImageFix" result="effect1_dropShadow_3353:107774"/>
<feBlend mode="normal" in="SourceGraphic" in2="effect1_dropShadow_3353:107774" result="shape"/>
</filter>
</defs>
</svg>
