<svg width="380" height="224" viewBox="0 0 380 224" fill="none" xmlns="http://www.w3.org/2000/svg">
<g filter="url(#filter0_d_4403_110238)">
<rect width="380" height="220" rx="20" fill="#F2F2F2"/>
<path fill-rule="evenodd" clip-rule="evenodd" d="M315 98.9851C315 88 306 78.9927 295 78.9927C233.172 78.9927 208 79 208 79L200 87.0001H163L154 78.9998H119.147C108.147 78.9998 99.1467 88 99.1467 98.9923C99.1467 98.9997 99.1467 99.0072 99.1467 99.0148C99.1467 110 108.147 119 119.147 119C135.71 119 154 119 154 119L163 127H200L208 119H295.147C306 119 315 110 315 99.0075C315 99 315 99.5 315 98.9851Z" fill="#30DCFF"/>
<path fill-rule="evenodd" clip-rule="evenodd" d="M315 98.9888C315 88 306 79 294.853 79C233.025 79 208 79.0001 208 79.0001L200 87H163L154 79.0001H119C108 79.0001 99 88.0001 99 98.9888C99 98.9962 99 99.0001 99 99.0001H104C104 89 111 84.0001 119 84.0001C133.664 84.0001 152 84 152 84L161 92H202L210 84H295C304 84 310 90 310 98.9998L315 99V98.9888Z" fill="white" fill-opacity="0.5"/>
<path fill-rule="evenodd" clip-rule="evenodd" d="M315 99L310 99C310 107.971 304.197 114 295 114C237.995 114 206 114 206 114L198 122H165L156 114H119C108.496 114 104 108 104 99.0014L99 99V99.0112C99 110 108 119 119 119C135.563 119 154 119 154 119L163 127H200L208 119H295C306 119 315 110 315 99Z" fill="black" fill-opacity="0.25"/>
<path d="M110.128 98.6H111.688V107H110.128V98.6ZM117.452 100.52C118.26 100.52 118.908 100.756 119.396 101.228C119.884 101.7 120.128 102.4 120.128 103.328V107H118.628V103.52C118.628 102.96 118.496 102.54 118.232 102.26C117.968 101.972 117.592 101.828 117.104 101.828C116.552 101.828 116.116 101.996 115.796 102.332C115.476 102.66 115.316 103.136 115.316 103.76V107H113.816V100.592H115.244V101.42C115.492 101.124 115.804 100.9 116.18 100.748C116.556 100.596 116.98 100.52 117.452 100.52ZM128.449 100.592V106.028C128.449 108.284 127.297 109.412 124.993 109.412C124.377 109.412 123.793 109.332 123.241 109.172C122.689 109.02 122.233 108.796 121.873 108.5L122.545 107.372C122.825 107.604 123.177 107.788 123.601 107.924C124.033 108.068 124.469 108.14 124.909 108.14C125.613 108.14 126.129 107.98 126.457 107.66C126.785 107.34 126.949 106.852 126.949 106.196V105.86C126.693 106.14 126.381 106.352 126.013 106.496C125.645 106.64 125.241 106.712 124.801 106.712C124.193 106.712 123.641 106.584 123.145 106.328C122.657 106.064 122.269 105.696 121.981 105.224C121.701 104.752 121.561 104.212 121.561 103.604C121.561 102.996 121.701 102.46 121.981 101.996C122.269 101.524 122.657 101.16 123.145 100.904C123.641 100.648 124.193 100.52 124.801 100.52C125.265 100.52 125.685 100.596 126.061 100.748C126.445 100.9 126.765 101.132 127.021 101.444V100.592H128.449ZM125.029 105.44C125.597 105.44 126.061 105.272 126.421 104.936C126.789 104.592 126.973 104.148 126.973 103.604C126.973 103.068 126.789 102.632 126.421 102.296C126.061 101.96 125.597 101.792 125.029 101.792C124.453 101.792 123.981 101.96 123.613 102.296C123.253 102.632 123.073 103.068 123.073 103.604C123.073 104.148 123.253 104.592 123.613 104.936C123.981 105.272 124.453 105.44 125.029 105.44ZM131.85 101.528C132.282 100.856 133.042 100.52 134.13 100.52V101.948C134.002 101.924 133.886 101.912 133.782 101.912C133.198 101.912 132.742 102.084 132.414 102.428C132.086 102.764 131.922 103.252 131.922 103.892V107H130.422V100.592H131.85V101.528ZM141.367 103.832C141.367 103.936 141.359 104.084 141.343 104.276H136.315C136.403 104.748 136.631 105.124 136.999 105.404C137.375 105.676 137.839 105.812 138.391 105.812C139.095 105.812 139.675 105.58 140.131 105.116L140.935 106.04C140.647 106.384 140.283 106.644 139.843 106.82C139.403 106.996 138.907 107.084 138.355 107.084C137.651 107.084 137.031 106.944 136.495 106.664C135.959 106.384 135.543 105.996 135.247 105.5C134.959 104.996 134.815 104.428 134.815 103.796C134.815 103.172 134.955 102.612 135.235 102.116C135.523 101.612 135.919 101.22 136.423 100.94C136.927 100.66 137.495 100.52 138.127 100.52C138.751 100.52 139.307 100.66 139.795 100.94C140.291 101.212 140.675 101.6 140.947 102.104C141.227 102.6 141.367 103.176 141.367 103.832ZM138.127 101.72C137.647 101.72 137.239 101.864 136.903 102.152C136.575 102.432 136.375 102.808 136.303 103.28H139.939C139.875 102.816 139.679 102.44 139.351 102.152C139.023 101.864 138.615 101.72 138.127 101.72ZM144.788 107.084C144.268 107.084 143.76 107.016 143.264 106.88C142.768 106.744 142.372 106.572 142.076 106.364L142.652 105.224C142.94 105.416 143.284 105.572 143.684 105.692C144.092 105.804 144.492 105.86 144.884 105.86C145.78 105.86 146.228 105.624 146.228 105.152C146.228 104.928 146.112 104.772 145.88 104.684C145.656 104.596 145.292 104.512 144.788 104.432C144.26 104.352 143.828 104.26 143.492 104.156C143.164 104.052 142.876 103.872 142.628 103.616C142.388 103.352 142.268 102.988 142.268 102.524C142.268 101.916 142.52 101.432 143.024 101.072C143.536 100.704 144.224 100.52 145.088 100.52C145.528 100.52 145.968 100.572 146.408 100.676C146.848 100.772 147.208 100.904 147.488 101.072L146.912 102.212C146.368 101.892 145.756 101.732 145.076 101.732C144.636 101.732 144.3 101.8 144.068 101.936C143.844 102.064 143.732 102.236 143.732 102.452C143.732 102.692 143.852 102.864 144.092 102.968C144.34 103.064 144.72 103.156 145.232 103.244C145.744 103.324 146.164 103.416 146.492 103.52C146.82 103.624 147.1 103.8 147.332 104.048C147.572 104.296 147.692 104.648 147.692 105.104C147.692 105.704 147.432 106.184 146.912 106.544C146.392 106.904 145.684 107.084 144.788 107.084ZM151.432 100.52C152.376 100.52 153.096 100.748 153.592 101.204C154.096 101.652 154.348 102.332 154.348 103.244V107H152.932V106.22C152.748 106.5 152.484 106.716 152.14 106.868C151.804 107.012 151.396 107.084 150.916 107.084C150.436 107.084 150.016 107.004 149.656 106.844C149.296 106.676 149.016 106.448 148.816 106.16C148.624 105.864 148.528 105.532 148.528 105.164C148.528 104.588 148.74 104.128 149.164 103.784C149.596 103.432 150.272 103.256 151.192 103.256H152.848V103.16C152.848 102.712 152.712 102.368 152.44 102.128C152.176 101.888 151.78 101.768 151.252 101.768C150.892 101.768 150.536 101.824 150.184 101.936C149.84 102.048 149.548 102.204 149.308 102.404L148.72 101.312C149.056 101.056 149.46 100.86 149.932 100.724C150.404 100.588 150.904 100.52 151.432 100.52ZM151.228 105.992C151.604 105.992 151.936 105.908 152.224 105.74C152.52 105.564 152.728 105.316 152.848 104.996V104.252H151.3C150.436 104.252 150.004 104.536 150.004 105.104C150.004 105.376 150.112 105.592 150.328 105.752C150.544 105.912 150.844 105.992 151.228 105.992ZM157.701 101.528C158.133 100.856 158.893 100.52 159.981 100.52V101.948C159.853 101.924 159.737 101.912 159.633 101.912C159.049 101.912 158.593 102.084 158.265 102.428C157.937 102.764 157.773 103.252 157.773 103.892V107H156.273V100.592H157.701V101.528ZM167.077 100.52C168.021 100.52 168.741 100.748 169.237 101.204C169.741 101.652 169.993 102.332 169.993 103.244V107H168.577V106.22C168.393 106.5 168.129 106.716 167.785 106.868C167.449 107.012 167.041 107.084 166.561 107.084C166.081 107.084 165.661 107.004 165.301 106.844C164.941 106.676 164.661 106.448 164.461 106.16C164.269 105.864 164.173 105.532 164.173 105.164C164.173 104.588 164.385 104.128 164.809 103.784C165.241 103.432 165.917 103.256 166.837 103.256H168.493V103.16C168.493 102.712 168.357 102.368 168.085 102.128C167.821 101.888 167.425 101.768 166.897 101.768C166.537 101.768 166.181 101.824 165.829 101.936C165.485 102.048 165.193 102.204 164.953 102.404L164.365 101.312C164.701 101.056 165.105 100.86 165.577 100.724C166.049 100.588 166.549 100.52 167.077 100.52ZM166.873 105.992C167.249 105.992 167.581 105.908 167.869 105.74C168.165 105.564 168.373 105.316 168.493 104.996V104.252H166.945C166.081 104.252 165.649 104.536 165.649 105.104C165.649 105.376 165.757 105.592 165.973 105.752C166.189 105.912 166.489 105.992 166.873 105.992ZM171.918 98.096H173.418V107H171.918V98.096ZM182.555 106.652C182.379 106.796 182.163 106.904 181.907 106.976C181.659 107.048 181.395 107.084 181.115 107.084C180.411 107.084 179.867 106.9 179.483 106.532C179.099 106.164 178.907 105.628 178.907 104.924V101.84H177.851V100.64H178.907V99.176H180.407V100.64H182.123V101.84H180.407V104.888C180.407 105.2 180.483 105.44 180.635 105.608C180.787 105.768 181.007 105.848 181.295 105.848C181.631 105.848 181.911 105.76 182.135 105.584L182.555 106.652ZM185.217 101.528C185.649 100.856 186.409 100.52 187.497 100.52V101.948C187.369 101.924 187.253 101.912 187.149 101.912C186.565 101.912 186.109 102.084 185.781 102.428C185.453 102.764 185.289 103.252 185.289 103.892V107H183.789V100.592H185.217V101.528ZM191.182 100.52C192.126 100.52 192.846 100.748 193.342 101.204C193.846 101.652 194.098 102.332 194.098 103.244V107H192.682V106.22C192.498 106.5 192.234 106.716 191.89 106.868C191.554 107.012 191.146 107.084 190.666 107.084C190.186 107.084 189.766 107.004 189.406 106.844C189.046 106.676 188.766 106.448 188.566 106.16C188.374 105.864 188.278 105.532 188.278 105.164C188.278 104.588 188.49 104.128 188.914 103.784C189.346 103.432 190.022 103.256 190.942 103.256H192.598V103.16C192.598 102.712 192.462 102.368 192.19 102.128C191.926 101.888 191.53 101.768 191.002 101.768C190.642 101.768 190.286 101.824 189.934 101.936C189.59 102.048 189.298 102.204 189.058 102.404L188.47 101.312C188.806 101.056 189.21 100.86 189.682 100.724C190.154 100.588 190.654 100.52 191.182 100.52ZM190.978 105.992C191.354 105.992 191.686 105.908 191.974 105.74C192.27 105.564 192.478 105.316 192.598 104.996V104.252H191.05C190.186 104.252 189.754 104.536 189.754 105.104C189.754 105.376 189.862 105.592 190.078 105.752C190.294 105.912 190.594 105.992 190.978 105.992ZM202.358 98.096V107H200.918V106.172C200.67 106.476 200.362 106.704 199.994 106.856C199.634 107.008 199.234 107.084 198.794 107.084C198.178 107.084 197.622 106.948 197.126 106.676C196.638 106.404 196.254 106.02 195.974 105.524C195.694 105.02 195.554 104.444 195.554 103.796C195.554 103.148 195.694 102.576 195.974 102.08C196.254 101.584 196.638 101.2 197.126 100.928C197.622 100.656 198.178 100.52 198.794 100.52C199.218 100.52 199.606 100.592 199.958 100.736C200.31 100.88 200.61 101.096 200.858 101.384V98.096H202.358ZM198.974 105.8C199.334 105.8 199.658 105.72 199.946 105.56C200.234 105.392 200.462 105.156 200.63 104.852C200.798 104.548 200.882 104.196 200.882 103.796C200.882 103.396 200.798 103.044 200.63 102.74C200.462 102.436 200.234 102.204 199.946 102.044C199.658 101.876 199.334 101.792 198.974 101.792C198.614 101.792 198.29 101.876 198.002 102.044C197.714 102.204 197.486 102.436 197.318 102.74C197.15 103.044 197.066 103.396 197.066 103.796C197.066 104.196 197.15 104.548 197.318 104.852C197.486 105.156 197.714 105.392 198.002 105.56C198.29 105.72 198.614 105.8 198.974 105.8ZM210.524 100.592V107H209.096V106.184C208.856 106.472 208.556 106.696 208.196 106.856C207.836 107.008 207.448 107.084 207.032 107.084C206.176 107.084 205.5 106.848 205.004 106.376C204.516 105.896 204.272 105.188 204.272 104.252V100.592H205.772V104.048C205.772 104.624 205.9 105.056 206.156 105.344C206.42 105.624 206.792 105.764 207.272 105.764C207.808 105.764 208.232 105.6 208.544 105.272C208.864 104.936 209.024 104.456 209.024 103.832V100.592H210.524ZM215.428 107.084C214.764 107.084 214.168 106.944 213.64 106.664C213.112 106.384 212.7 105.996 212.404 105.5C212.108 104.996 211.96 104.428 211.96 103.796C211.96 103.164 212.108 102.6 212.404 102.104C212.7 101.608 213.108 101.22 213.628 100.94C214.156 100.66 214.756 100.52 215.428 100.52C216.06 100.52 216.612 100.648 217.084 100.904C217.564 101.16 217.924 101.528 218.164 102.008L217.012 102.68C216.828 102.384 216.596 102.164 216.316 102.02C216.044 101.868 215.744 101.792 215.416 101.792C214.856 101.792 214.392 101.976 214.024 102.344C213.656 102.704 213.472 103.188 213.472 103.796C213.472 104.404 213.652 104.892 214.012 105.26C214.38 105.62 214.848 105.8 215.416 105.8C215.744 105.8 216.044 105.728 216.316 105.584C216.596 105.432 216.828 105.208 217.012 104.912L218.164 105.584C217.916 106.064 217.552 106.436 217.072 106.7C216.6 106.956 216.052 107.084 215.428 107.084ZM223.395 106.652C223.219 106.796 223.003 106.904 222.747 106.976C222.499 107.048 222.235 107.084 221.955 107.084C221.251 107.084 220.707 106.9 220.323 106.532C219.939 106.164 219.747 105.628 219.747 104.924V101.84H218.691V100.64H219.747V99.176H221.247V100.64H222.963V101.84H221.247V104.888C221.247 105.2 221.323 105.44 221.475 105.608C221.627 105.768 221.847 105.848 222.135 105.848C222.471 105.848 222.751 105.76 222.975 105.584L223.395 106.652ZM227.298 107.084C226.65 107.084 226.066 106.944 225.546 106.664C225.026 106.384 224.618 105.996 224.322 105.5C224.034 104.996 223.89 104.428 223.89 103.796C223.89 103.164 224.034 102.6 224.322 102.104C224.618 101.608 225.026 101.22 225.546 100.94C226.066 100.66 226.65 100.52 227.298 100.52C227.954 100.52 228.542 100.66 229.062 100.94C229.582 101.22 229.986 101.608 230.274 102.104C230.57 102.6 230.718 103.164 230.718 103.796C230.718 104.428 230.57 104.996 230.274 105.5C229.986 105.996 229.582 106.384 229.062 106.664C228.542 106.944 227.954 107.084 227.298 107.084ZM227.298 105.8C227.85 105.8 228.306 105.616 228.666 105.248C229.026 104.88 229.206 104.396 229.206 103.796C229.206 103.196 229.026 102.712 228.666 102.344C228.306 101.976 227.85 101.792 227.298 101.792C226.746 101.792 226.29 101.976 225.93 102.344C225.578 102.712 225.402 103.196 225.402 103.796C225.402 104.396 225.578 104.88 225.93 105.248C226.29 105.616 226.746 105.8 227.298 105.8ZM233.58 101.528C234.012 100.856 234.772 100.52 235.86 100.52V101.948C235.732 101.924 235.616 101.912 235.512 101.912C234.928 101.912 234.472 102.084 234.144 102.428C233.816 102.764 233.652 103.252 233.652 103.892V107H232.152V100.592H233.58V101.528Z" fill="#333333"/>
<path fill-rule="evenodd" clip-rule="evenodd" d="M315 137.985C315 127 306 117.993 295 117.993C233.172 117.993 208 118 208 118L200 126H163L154 118H119.147C108.147 118 99.1467 127 99.1467 137.992C99.1467 138 99.1467 138.007 99.1467 138.015C99.1467 149 108.147 158 119.147 158C135.71 158 154 158 154 158L163 166H200L208 158H295.147C306 158 315 149 315 138.008C315 138 315 138.5 315 137.985Z" fill="#30DCFF"/>
<path fill-rule="evenodd" clip-rule="evenodd" d="M315 137.989C315 127 306 118 294.853 118C233.025 118 208 118 208 118L200 126H163L154 118H119C108 118 99 127 99 137.989C99 137.996 99 138 99 138H104C104 128 111 123 119 123C133.664 123 152 123 152 123L161 131H202L210 123H295C304 123 310 129 310 138L315 138V137.989Z" fill="white" fill-opacity="0.5"/>
<path fill-rule="evenodd" clip-rule="evenodd" d="M315 138L310 138C310 146.971 304.197 153 295 153C237.995 153 206 153 206 153L198 161H165L156 153H119C108.496 153 104 147 104 138.001L99 138V138.011C99 149 108 158 119 158C135.563 158 154 158 154 158L163 166H200L208 158H295C306 158 315 149 315 138Z" fill="black" fill-opacity="0.25"/>
<path d="M110.128 137.6H111.688V146H110.128V137.6ZM117.452 139.52C118.26 139.52 118.908 139.756 119.396 140.228C119.884 140.7 120.128 141.4 120.128 142.328V146H118.628V142.52C118.628 141.96 118.496 141.54 118.232 141.26C117.968 140.972 117.592 140.828 117.104 140.828C116.552 140.828 116.116 140.996 115.796 141.332C115.476 141.66 115.316 142.136 115.316 142.76V146H113.816V139.592H115.244V140.42C115.492 140.124 115.804 139.9 116.18 139.748C116.556 139.596 116.98 139.52 117.452 139.52ZM128.449 139.592V145.028C128.449 147.284 127.297 148.412 124.993 148.412C124.377 148.412 123.793 148.332 123.241 148.172C122.689 148.02 122.233 147.796 121.873 147.5L122.545 146.372C122.825 146.604 123.177 146.788 123.601 146.924C124.033 147.068 124.469 147.14 124.909 147.14C125.613 147.14 126.129 146.98 126.457 146.66C126.785 146.34 126.949 145.852 126.949 145.196V144.86C126.693 145.14 126.381 145.352 126.013 145.496C125.645 145.64 125.241 145.712 124.801 145.712C124.193 145.712 123.641 145.584 123.145 145.328C122.657 145.064 122.269 144.696 121.981 144.224C121.701 143.752 121.561 143.212 121.561 142.604C121.561 141.996 121.701 141.46 121.981 140.996C122.269 140.524 122.657 140.16 123.145 139.904C123.641 139.648 124.193 139.52 124.801 139.52C125.265 139.52 125.685 139.596 126.061 139.748C126.445 139.9 126.765 140.132 127.021 140.444V139.592H128.449ZM125.029 144.44C125.597 144.44 126.061 144.272 126.421 143.936C126.789 143.592 126.973 143.148 126.973 142.604C126.973 142.068 126.789 141.632 126.421 141.296C126.061 140.96 125.597 140.792 125.029 140.792C124.453 140.792 123.981 140.96 123.613 141.296C123.253 141.632 123.073 142.068 123.073 142.604C123.073 143.148 123.253 143.592 123.613 143.936C123.981 144.272 124.453 144.44 125.029 144.44ZM131.85 140.528C132.282 139.856 133.042 139.52 134.13 139.52V140.948C134.002 140.924 133.886 140.912 133.782 140.912C133.198 140.912 132.742 141.084 132.414 141.428C132.086 141.764 131.922 142.252 131.922 142.892V146H130.422V139.592H131.85V140.528ZM141.367 142.832C141.367 142.936 141.359 143.084 141.343 143.276H136.315C136.403 143.748 136.631 144.124 136.999 144.404C137.375 144.676 137.839 144.812 138.391 144.812C139.095 144.812 139.675 144.58 140.131 144.116L140.935 145.04C140.647 145.384 140.283 145.644 139.843 145.82C139.403 145.996 138.907 146.084 138.355 146.084C137.651 146.084 137.031 145.944 136.495 145.664C135.959 145.384 135.543 144.996 135.247 144.5C134.959 143.996 134.815 143.428 134.815 142.796C134.815 142.172 134.955 141.612 135.235 141.116C135.523 140.612 135.919 140.22 136.423 139.94C136.927 139.66 137.495 139.52 138.127 139.52C138.751 139.52 139.307 139.66 139.795 139.94C140.291 140.212 140.675 140.6 140.947 141.104C141.227 141.6 141.367 142.176 141.367 142.832ZM138.127 140.72C137.647 140.72 137.239 140.864 136.903 141.152C136.575 141.432 136.375 141.808 136.303 142.28H139.939C139.875 141.816 139.679 141.44 139.351 141.152C139.023 140.864 138.615 140.72 138.127 140.72ZM144.788 146.084C144.268 146.084 143.76 146.016 143.264 145.88C142.768 145.744 142.372 145.572 142.076 145.364L142.652 144.224C142.94 144.416 143.284 144.572 143.684 144.692C144.092 144.804 144.492 144.86 144.884 144.86C145.78 144.86 146.228 144.624 146.228 144.152C146.228 143.928 146.112 143.772 145.88 143.684C145.656 143.596 145.292 143.512 144.788 143.432C144.26 143.352 143.828 143.26 143.492 143.156C143.164 143.052 142.876 142.872 142.628 142.616C142.388 142.352 142.268 141.988 142.268 141.524C142.268 140.916 142.52 140.432 143.024 140.072C143.536 139.704 144.224 139.52 145.088 139.52C145.528 139.52 145.968 139.572 146.408 139.676C146.848 139.772 147.208 139.904 147.488 140.072L146.912 141.212C146.368 140.892 145.756 140.732 145.076 140.732C144.636 140.732 144.3 140.8 144.068 140.936C143.844 141.064 143.732 141.236 143.732 141.452C143.732 141.692 143.852 141.864 144.092 141.968C144.34 142.064 144.72 142.156 145.232 142.244C145.744 142.324 146.164 142.416 146.492 142.52C146.82 142.624 147.1 142.8 147.332 143.048C147.572 143.296 147.692 143.648 147.692 144.104C147.692 144.704 147.432 145.184 146.912 145.544C146.392 145.904 145.684 146.084 144.788 146.084ZM151.432 139.52C152.376 139.52 153.096 139.748 153.592 140.204C154.096 140.652 154.348 141.332 154.348 142.244V146H152.932V145.22C152.748 145.5 152.484 145.716 152.14 145.868C151.804 146.012 151.396 146.084 150.916 146.084C150.436 146.084 150.016 146.004 149.656 145.844C149.296 145.676 149.016 145.448 148.816 145.16C148.624 144.864 148.528 144.532 148.528 144.164C148.528 143.588 148.74 143.128 149.164 142.784C149.596 142.432 150.272 142.256 151.192 142.256H152.848V142.16C152.848 141.712 152.712 141.368 152.44 141.128C152.176 140.888 151.78 140.768 151.252 140.768C150.892 140.768 150.536 140.824 150.184 140.936C149.84 141.048 149.548 141.204 149.308 141.404L148.72 140.312C149.056 140.056 149.46 139.86 149.932 139.724C150.404 139.588 150.904 139.52 151.432 139.52ZM151.228 144.992C151.604 144.992 151.936 144.908 152.224 144.74C152.52 144.564 152.728 144.316 152.848 143.996V143.252H151.3C150.436 143.252 150.004 143.536 150.004 144.104C150.004 144.376 150.112 144.592 150.328 144.752C150.544 144.912 150.844 144.992 151.228 144.992ZM157.701 140.528C158.133 139.856 158.893 139.52 159.981 139.52V140.948C159.853 140.924 159.737 140.912 159.633 140.912C159.049 140.912 158.593 141.084 158.265 141.428C157.937 141.764 157.773 142.252 157.773 142.892V146H156.273V139.592H157.701V140.528ZM170.653 142.832C170.653 142.936 170.645 143.084 170.629 143.276H165.601C165.689 143.748 165.917 144.124 166.285 144.404C166.661 144.676 167.125 144.812 167.677 144.812C168.381 144.812 168.961 144.58 169.417 144.116L170.221 145.04C169.933 145.384 169.569 145.644 169.129 145.82C168.689 145.996 168.193 146.084 167.641 146.084C166.937 146.084 166.317 145.944 165.781 145.664C165.245 145.384 164.829 144.996 164.533 144.5C164.245 143.996 164.101 143.428 164.101 142.796C164.101 142.172 164.241 141.612 164.521 141.116C164.809 140.612 165.205 140.22 165.709 139.94C166.213 139.66 166.781 139.52 167.413 139.52C168.037 139.52 168.593 139.66 169.081 139.94C169.577 140.212 169.961 140.6 170.233 141.104C170.513 141.6 170.653 142.176 170.653 142.832ZM167.413 140.72C166.933 140.72 166.525 140.864 166.189 141.152C165.861 141.432 165.661 141.808 165.589 142.28H169.225C169.161 141.816 168.965 141.44 168.637 141.152C168.309 140.864 167.901 140.72 167.413 140.72ZM172.093 137.096H173.593V146H172.093V137.096ZM182.731 145.652C182.555 145.796 182.339 145.904 182.083 145.976C181.835 146.048 181.571 146.084 181.291 146.084C180.587 146.084 180.043 145.9 179.659 145.532C179.275 145.164 179.083 144.628 179.083 143.924V140.84H178.027V139.64H179.083V138.176H180.583V139.64H182.299V140.84H180.583V143.888C180.583 144.2 180.659 144.44 180.811 144.608C180.963 144.768 181.183 144.848 181.471 144.848C181.807 144.848 182.087 144.76 182.311 144.584L182.731 145.652ZM189.778 142.832C189.778 142.936 189.77 143.084 189.754 143.276H184.726C184.814 143.748 185.042 144.124 185.41 144.404C185.786 144.676 186.25 144.812 186.802 144.812C187.506 144.812 188.086 144.58 188.542 144.116L189.346 145.04C189.058 145.384 188.694 145.644 188.254 145.82C187.814 145.996 187.318 146.084 186.766 146.084C186.062 146.084 185.442 145.944 184.906 145.664C184.37 145.384 183.954 144.996 183.658 144.5C183.37 143.996 183.226 143.428 183.226 142.796C183.226 142.172 183.366 141.612 183.646 141.116C183.934 140.612 184.33 140.22 184.834 139.94C185.338 139.66 185.906 139.52 186.538 139.52C187.162 139.52 187.718 139.66 188.206 139.94C188.702 140.212 189.086 140.6 189.358 141.104C189.638 141.6 189.778 142.176 189.778 142.832ZM186.538 140.72C186.058 140.72 185.65 140.864 185.314 141.152C184.986 141.432 184.786 141.808 184.714 142.28H188.35C188.286 141.816 188.09 141.44 187.762 141.152C187.434 140.864 187.026 140.72 186.538 140.72ZM195.123 146L193.479 143.78L191.823 146H190.167L192.663 142.748L190.275 139.592H191.943L193.515 141.692L195.087 139.592H196.707L194.307 142.724L196.815 146H195.123ZM201.774 145.652C201.598 145.796 201.382 145.904 201.126 145.976C200.878 146.048 200.614 146.084 200.334 146.084C199.63 146.084 199.086 145.9 198.701 145.532C198.318 145.164 198.126 144.628 198.126 143.924V140.84H197.07V139.64H198.126V138.176H199.626V139.64H201.342V140.84H199.626V143.888C199.626 144.2 199.702 144.44 199.854 144.608C200.006 144.768 200.226 144.848 200.514 144.848C200.85 144.848 201.13 144.76 201.354 144.584L201.774 145.652ZM205.677 146.084C205.029 146.084 204.445 145.944 203.925 145.664C203.405 145.384 202.997 144.996 202.701 144.5C202.413 143.996 202.269 143.428 202.269 142.796C202.269 142.164 202.413 141.6 202.701 141.104C202.997 140.608 203.405 140.22 203.925 139.94C204.445 139.66 205.029 139.52 205.677 139.52C206.333 139.52 206.921 139.66 207.441 139.94C207.961 140.22 208.365 140.608 208.653 141.104C208.949 141.6 209.097 142.164 209.097 142.796C209.097 143.428 208.949 143.996 208.653 144.5C208.365 144.996 207.961 145.384 207.441 145.664C206.921 145.944 206.333 146.084 205.677 146.084ZM205.677 144.8C206.229 144.8 206.685 144.616 207.045 144.248C207.405 143.88 207.585 143.396 207.585 142.796C207.585 142.196 207.405 141.712 207.045 141.344C206.685 140.976 206.229 140.792 205.677 140.792C205.125 140.792 204.669 140.976 204.309 141.344C203.957 141.712 203.781 142.196 203.781 142.796C203.781 143.396 203.957 143.88 204.309 144.248C204.669 144.616 205.125 144.8 205.677 144.8ZM216.295 139.52C217.239 139.52 217.959 139.748 218.455 140.204C218.959 140.652 219.211 141.332 219.211 142.244V146H217.795V145.22C217.611 145.5 217.347 145.716 217.003 145.868C216.667 146.012 216.259 146.084 215.779 146.084C215.299 146.084 214.879 146.004 214.519 145.844C214.159 145.676 213.879 145.448 213.679 145.16C213.487 144.864 213.391 144.532 213.391 144.164C213.391 143.588 213.603 143.128 214.027 142.784C214.459 142.432 215.135 142.256 216.055 142.256H217.711V142.16C217.711 141.712 217.575 141.368 217.303 141.128C217.039 140.888 216.643 140.768 216.115 140.768C215.755 140.768 215.399 140.824 215.047 140.936C214.703 141.048 214.411 141.204 214.171 141.404L213.583 140.312C213.919 140.056 214.323 139.86 214.795 139.724C215.267 139.588 215.767 139.52 216.295 139.52ZM216.091 144.992C216.467 144.992 216.799 144.908 217.087 144.74C217.383 144.564 217.591 144.316 217.711 143.996V143.252H216.163C215.299 143.252 214.867 143.536 214.867 144.104C214.867 144.376 214.975 144.592 215.191 144.752C215.407 144.912 215.707 144.992 216.091 144.992ZM228.305 145.652C228.129 145.796 227.913 145.904 227.657 145.976C227.409 146.048 227.145 146.084 226.865 146.084C226.161 146.084 225.617 145.9 225.233 145.532C224.849 145.164 224.657 144.628 224.657 143.924V140.84H223.601V139.64H224.657V138.176H226.157V139.64H227.873V140.84H226.157V143.888C226.157 144.2 226.233 144.44 226.385 144.608C226.537 144.768 226.757 144.848 227.045 144.848C227.381 144.848 227.661 144.76 227.885 144.584L228.305 145.652ZM230.967 140.528C231.399 139.856 232.159 139.52 233.247 139.52V140.948C233.119 140.924 233.003 140.912 232.899 140.912C232.315 140.912 231.859 141.084 231.531 141.428C231.203 141.764 231.039 142.252 231.039 142.892V146H229.539V139.592H230.967V140.528ZM236.932 139.52C237.876 139.52 238.596 139.748 239.092 140.204C239.596 140.652 239.848 141.332 239.848 142.244V146H238.432V145.22C238.248 145.5 237.984 145.716 237.64 145.868C237.304 146.012 236.896 146.084 236.416 146.084C235.936 146.084 235.516 146.004 235.156 145.844C234.796 145.676 234.516 145.448 234.316 145.16C234.124 144.864 234.028 144.532 234.028 144.164C234.028 143.588 234.24 143.128 234.664 142.784C235.096 142.432 235.772 142.256 236.692 142.256H238.348V142.16C238.348 141.712 238.212 141.368 237.94 141.128C237.676 140.888 237.28 140.768 236.752 140.768C236.392 140.768 236.036 140.824 235.684 140.936C235.34 141.048 235.048 141.204 234.808 141.404L234.22 140.312C234.556 140.056 234.96 139.86 235.432 139.724C235.904 139.588 236.404 139.52 236.932 139.52ZM236.728 144.992C237.104 144.992 237.436 144.908 237.724 144.74C238.02 144.564 238.228 144.316 238.348 143.996V143.252H236.8C235.936 143.252 235.504 143.536 235.504 144.104C235.504 144.376 235.612 144.592 235.828 144.752C236.044 144.912 236.344 144.992 236.728 144.992ZM248.108 137.096V146H246.668V145.172C246.42 145.476 246.112 145.704 245.744 145.856C245.384 146.008 244.984 146.084 244.544 146.084C243.928 146.084 243.372 145.948 242.876 145.676C242.388 145.404 242.004 145.02 241.724 144.524C241.444 144.02 241.304 143.444 241.304 142.796C241.304 142.148 241.444 141.576 241.724 141.08C242.004 140.584 242.388 140.2 242.876 139.928C243.372 139.656 243.928 139.52 244.544 139.52C244.968 139.52 245.356 139.592 245.708 139.736C246.06 139.88 246.36 140.096 246.608 140.384V137.096H248.108ZM244.724 144.8C245.084 144.8 245.408 144.72 245.696 144.56C245.984 144.392 246.212 144.156 246.38 143.852C246.548 143.548 246.632 143.196 246.632 142.796C246.632 142.396 246.548 142.044 246.38 141.74C246.212 141.436 245.984 141.204 245.696 141.044C245.408 140.876 245.084 140.792 244.724 140.792C244.364 140.792 244.04 140.876 243.752 141.044C243.464 141.204 243.236 141.436 243.068 141.74C242.9 142.044 242.816 142.396 242.816 142.796C242.816 143.196 242.9 143.548 243.068 143.852C243.236 144.156 243.464 144.392 243.752 144.56C244.04 144.72 244.364 144.8 244.724 144.8ZM256.274 139.592V146H254.846V145.184C254.606 145.472 254.306 145.696 253.946 145.856C253.586 146.008 253.198 146.084 252.782 146.084C251.926 146.084 251.25 145.848 250.754 145.376C250.266 144.896 250.022 144.188 250.022 143.252V139.592H251.522V143.048C251.522 143.624 251.65 144.056 251.906 144.344C252.17 144.624 252.542 144.764 253.022 144.764C253.558 144.764 253.982 144.6 254.294 144.272C254.614 143.936 254.774 143.456 254.774 142.832V139.592H256.274ZM261.178 146.084C260.514 146.084 259.918 145.944 259.39 145.664C258.862 145.384 258.45 144.996 258.154 144.5C257.858 143.996 257.71 143.428 257.71 142.796C257.71 142.164 257.858 141.6 258.154 141.104C258.45 140.608 258.858 140.22 259.378 139.94C259.906 139.66 260.506 139.52 261.178 139.52C261.81 139.52 262.362 139.648 262.834 139.904C263.314 140.16 263.674 140.528 263.914 141.008L262.762 141.68C262.578 141.384 262.346 141.164 262.066 141.02C261.794 140.868 261.494 140.792 261.166 140.792C260.606 140.792 260.142 140.976 259.774 141.344C259.406 141.704 259.222 142.188 259.222 142.796C259.222 143.404 259.402 143.892 259.762 144.26C260.13 144.62 260.598 144.8 261.166 144.8C261.494 144.8 261.794 144.728 262.066 144.584C262.346 144.432 262.578 144.208 262.762 143.912L263.914 144.584C263.666 145.064 263.302 145.436 262.822 145.7C262.35 145.956 261.802 146.084 261.178 146.084ZM265.211 139.592H266.711V146H265.211V139.592ZM265.967 138.536C265.695 138.536 265.467 138.452 265.283 138.284C265.099 138.108 265.007 137.892 265.007 137.636C265.007 137.38 265.099 137.168 265.283 137C265.467 136.824 265.695 136.736 265.967 136.736C266.239 136.736 266.467 136.82 266.651 136.988C266.835 137.148 266.927 137.352 266.927 137.6C266.927 137.864 266.835 138.088 266.651 138.272C266.475 138.448 266.247 138.536 265.967 138.536ZM270.107 140.528C270.539 139.856 271.299 139.52 272.387 139.52V140.948C272.259 140.924 272.143 140.912 272.039 140.912C271.455 140.912 270.999 141.084 270.671 141.428C270.343 141.764 270.179 142.252 270.179 142.892V146H268.679V139.592H270.107V140.528Z" fill="#333333"/>
<path fill-rule="evenodd" clip-rule="evenodd" d="M315 177.985C315 167 306 157.993 295 157.993C233.172 157.993 208 158 208 158L200 166H163L154 158H119.147C108.147 158 99.1467 167 99.1467 177.992C99.1467 178 99.1467 178.007 99.1467 178.015C99.1467 189 108.147 198 119.147 198C135.71 198 154 198 154 198L163 206H200L208 198H295.147C306 198 315 189 315 178.008C315 178 315 178.5 315 177.985Z" fill="#30DCFF"/>
<path fill-rule="evenodd" clip-rule="evenodd" d="M315 177.989C315 167 306 158 294.853 158C233.025 158 208 158 208 158L200 166H163L154 158H119C108 158 99 167 99 177.989C99 177.996 99 178 99 178H104C104 168 111 163 119 163C133.664 163 152 163 152 163L161 171H202L210 163H295C304 163 310 169 310 178L315 178V177.989Z" fill="white" fill-opacity="0.5"/>
<path fill-rule="evenodd" clip-rule="evenodd" d="M315 178L310 178C310 186.971 304.197 193 295 193C237.995 193 206 193 206 193L198 201H165L156 193H119C108.496 193 104 187 104 178.001L99 178V178.011C99 189 108 198 119 198C135.563 198 154 198 154 198L163 206H200L208 198H295C306 198 315 189 315 178Z" fill="black" fill-opacity="0.25"/>
<path d="M111.832 178.92H109.048V177.6H116.176V178.92H113.392V186H111.832V178.92ZM118.478 180.528C118.91 179.856 119.67 179.52 120.758 179.52V180.948C120.63 180.924 120.514 180.912 120.41 180.912C119.826 180.912 119.37 181.084 119.042 181.428C118.714 181.764 118.55 182.252 118.55 182.892V186H117.05V179.592H118.478V180.528ZM124.444 179.52C125.388 179.52 126.108 179.748 126.604 180.204C127.108 180.652 127.36 181.332 127.36 182.244V186H125.944V185.22C125.76 185.5 125.496 185.716 125.152 185.868C124.816 186.012 124.408 186.084 123.928 186.084C123.448 186.084 123.028 186.004 122.668 185.844C122.308 185.676 122.028 185.448 121.828 185.16C121.636 184.864 121.54 184.532 121.54 184.164C121.54 183.588 121.752 183.128 122.176 182.784C122.608 182.432 123.284 182.256 124.204 182.256H125.86V182.16C125.86 181.712 125.724 181.368 125.452 181.128C125.188 180.888 124.792 180.768 124.264 180.768C123.904 180.768 123.548 180.824 123.196 180.936C122.852 181.048 122.56 181.204 122.32 181.404L121.732 180.312C122.068 180.056 122.472 179.86 122.944 179.724C123.416 179.588 123.916 179.52 124.444 179.52ZM124.24 184.992C124.616 184.992 124.948 184.908 125.236 184.74C125.532 184.564 125.74 184.316 125.86 183.996V183.252H124.312C123.448 183.252 123.016 183.536 123.016 184.104C123.016 184.376 123.124 184.592 123.34 184.752C123.556 184.912 123.856 184.992 124.24 184.992ZM135.619 177.096V186H134.179V185.172C133.931 185.476 133.623 185.704 133.255 185.856C132.895 186.008 132.495 186.084 132.055 186.084C131.439 186.084 130.883 185.948 130.387 185.676C129.899 185.404 129.515 185.02 129.235 184.524C128.955 184.02 128.815 183.444 128.815 182.796C128.815 182.148 128.955 181.576 129.235 181.08C129.515 180.584 129.899 180.2 130.387 179.928C130.883 179.656 131.439 179.52 132.055 179.52C132.479 179.52 132.867 179.592 133.219 179.736C133.571 179.88 133.871 180.096 134.119 180.384V177.096H135.619ZM132.235 184.8C132.595 184.8 132.919 184.72 133.207 184.56C133.495 184.392 133.723 184.156 133.891 183.852C134.059 183.548 134.143 183.196 134.143 182.796C134.143 182.396 134.059 182.044 133.891 181.74C133.723 181.436 133.495 181.204 133.207 181.044C132.919 180.876 132.595 180.792 132.235 180.792C131.875 180.792 131.551 180.876 131.263 181.044C130.975 181.204 130.747 181.436 130.579 181.74C130.411 182.044 130.327 182.396 130.327 182.796C130.327 183.196 130.411 183.548 130.579 183.852C130.747 184.156 130.975 184.392 131.263 184.56C131.551 184.72 131.875 184.8 132.235 184.8ZM143.786 179.592V186H142.358V185.184C142.118 185.472 141.818 185.696 141.458 185.856C141.098 186.008 140.71 186.084 140.294 186.084C139.438 186.084 138.762 185.848 138.266 185.376C137.778 184.896 137.534 184.188 137.534 183.252V179.592H139.034V183.048C139.034 183.624 139.162 184.056 139.418 184.344C139.682 184.624 140.054 184.764 140.534 184.764C141.07 184.764 141.494 184.6 141.806 184.272C142.126 183.936 142.286 183.456 142.286 182.832V179.592H143.786ZM148.69 186.084C148.026 186.084 147.43 185.944 146.902 185.664C146.374 185.384 145.962 184.996 145.666 184.5C145.37 183.996 145.222 183.428 145.222 182.796C145.222 182.164 145.37 181.6 145.666 181.104C145.962 180.608 146.37 180.22 146.89 179.94C147.418 179.66 148.018 179.52 148.69 179.52C149.322 179.52 149.874 179.648 150.346 179.904C150.826 180.16 151.186 180.528 151.426 181.008L150.274 181.68C150.09 181.384 149.858 181.164 149.578 181.02C149.306 180.868 149.006 180.792 148.678 180.792C148.118 180.792 147.654 180.976 147.286 181.344C146.918 181.704 146.734 182.188 146.734 182.796C146.734 183.404 146.914 183.892 147.274 184.26C147.642 184.62 148.11 184.8 148.678 184.8C149.006 184.8 149.306 184.728 149.578 184.584C149.858 184.432 150.09 184.208 150.274 183.912L151.426 184.584C151.178 185.064 150.814 185.436 150.334 185.7C149.862 185.956 149.314 186.084 148.69 186.084ZM152.722 179.592H154.222V186H152.722V179.592ZM153.478 178.536C153.206 178.536 152.978 178.452 152.794 178.284C152.61 178.108 152.518 177.892 152.518 177.636C152.518 177.38 152.61 177.168 152.794 177C152.978 176.824 153.206 176.736 153.478 176.736C153.75 176.736 153.978 176.82 154.162 176.988C154.346 177.148 154.438 177.352 154.438 177.6C154.438 177.864 154.346 178.088 154.162 178.272C153.986 178.448 153.758 178.536 153.478 178.536ZM157.619 180.528C158.051 179.856 158.811 179.52 159.899 179.52V180.948C159.771 180.924 159.655 180.912 159.551 180.912C158.967 180.912 158.511 181.084 158.183 181.428C157.855 181.764 157.691 182.252 157.691 182.892V186H156.191V179.592H157.619V180.528ZM166.995 179.52C167.939 179.52 168.659 179.748 169.155 180.204C169.659 180.652 169.911 181.332 169.911 182.244V186H168.495V185.22C168.311 185.5 168.047 185.716 167.703 185.868C167.367 186.012 166.959 186.084 166.479 186.084C165.999 186.084 165.579 186.004 165.219 185.844C164.859 185.676 164.579 185.448 164.379 185.16C164.187 184.864 164.091 184.532 164.091 184.164C164.091 183.588 164.303 183.128 164.727 182.784C165.159 182.432 165.835 182.256 166.755 182.256H168.411V182.16C168.411 181.712 168.275 181.368 168.003 181.128C167.739 180.888 167.343 180.768 166.815 180.768C166.455 180.768 166.099 180.824 165.747 180.936C165.403 181.048 165.111 181.204 164.871 181.404L164.283 180.312C164.619 180.056 165.023 179.86 165.495 179.724C165.967 179.588 166.467 179.52 166.995 179.52ZM166.791 184.992C167.167 184.992 167.499 184.908 167.787 184.74C168.083 184.564 168.291 184.316 168.411 183.996V183.252H166.863C165.999 183.252 165.567 183.536 165.567 184.104C165.567 184.376 165.675 184.592 165.891 184.752C166.107 184.912 166.407 184.992 166.791 184.992ZM171.836 177.096H173.336V186H171.836V177.096ZM184.645 182.832C184.645 182.936 184.637 183.084 184.621 183.276H179.593C179.681 183.748 179.909 184.124 180.277 184.404C180.653 184.676 181.117 184.812 181.669 184.812C182.373 184.812 182.953 184.58 183.409 184.116L184.213 185.04C183.925 185.384 183.561 185.644 183.121 185.82C182.681 185.996 182.185 186.084 181.633 186.084C180.929 186.084 180.309 185.944 179.773 185.664C179.237 185.384 178.821 184.996 178.525 184.5C178.237 183.996 178.093 183.428 178.093 182.796C178.093 182.172 178.233 181.612 178.513 181.116C178.801 180.612 179.197 180.22 179.701 179.94C180.205 179.66 180.773 179.52 181.405 179.52C182.029 179.52 182.585 179.66 183.073 179.94C183.569 180.212 183.953 180.6 184.225 181.104C184.505 181.6 184.645 182.176 184.645 182.832ZM181.405 180.72C180.925 180.72 180.517 180.864 180.181 181.152C179.853 181.432 179.653 181.808 179.581 182.28H183.217C183.153 181.816 182.957 181.44 182.629 181.152C182.301 180.864 181.893 180.72 181.405 180.72ZM188.066 186.084C187.546 186.084 187.038 186.016 186.542 185.88C186.046 185.744 185.65 185.572 185.354 185.364L185.93 184.224C186.218 184.416 186.562 184.572 186.962 184.692C187.37 184.804 187.77 184.86 188.162 184.86C189.058 184.86 189.506 184.624 189.506 184.152C189.506 183.928 189.39 183.772 189.158 183.684C188.934 183.596 188.57 183.512 188.066 183.432C187.538 183.352 187.106 183.26 186.77 183.156C186.442 183.052 186.154 182.872 185.906 182.616C185.666 182.352 185.546 181.988 185.546 181.524C185.546 180.916 185.798 180.432 186.302 180.072C186.814 179.704 187.502 179.52 188.366 179.52C188.806 179.52 189.246 179.572 189.686 179.676C190.126 179.772 190.486 179.904 190.766 180.072L190.19 181.212C189.646 180.892 189.034 180.732 188.354 180.732C187.914 180.732 187.578 180.8 187.346 180.936C187.122 181.064 187.01 181.236 187.01 181.452C187.01 181.692 187.13 181.864 187.37 181.968C187.618 182.064 187.998 182.156 188.51 182.244C189.022 182.324 189.442 182.416 189.77 182.52C190.098 182.624 190.378 182.8 190.61 183.048C190.85 183.296 190.97 183.648 190.97 184.104C190.97 184.704 190.71 185.184 190.19 185.544C189.67 185.904 188.962 186.084 188.066 186.084ZM195.813 179.52C196.437 179.52 196.993 179.656 197.481 179.928C197.977 180.2 198.365 180.584 198.645 181.08C198.925 181.576 199.065 182.148 199.065 182.796C199.065 183.444 198.925 184.02 198.645 184.524C198.365 185.02 197.977 185.404 197.481 185.676C196.993 185.948 196.437 186.084 195.813 186.084C194.949 186.084 194.265 185.796 193.761 185.22V188.328H192.261V179.592H193.689V180.432C193.937 180.128 194.241 179.9 194.601 179.748C194.969 179.596 195.373 179.52 195.813 179.52ZM195.645 184.8C196.197 184.8 196.649 184.616 197.001 184.248C197.361 183.88 197.541 183.396 197.541 182.796C197.541 182.196 197.361 181.712 197.001 181.344C196.649 180.976 196.197 180.792 195.645 180.792C195.285 180.792 194.961 180.876 194.673 181.044C194.385 181.204 194.157 181.436 193.989 181.74C193.821 182.044 193.737 182.396 193.737 182.796C193.737 183.196 193.821 183.548 193.989 183.852C194.157 184.156 194.385 184.392 194.673 184.56C194.961 184.72 195.285 184.8 195.645 184.8ZM202.854 179.52C203.798 179.52 204.518 179.748 205.014 180.204C205.518 180.652 205.77 181.332 205.77 182.244V186H204.354V185.22C204.17 185.5 203.906 185.716 203.562 185.868C203.226 186.012 202.818 186.084 202.338 186.084C201.858 186.084 201.438 186.004 201.078 185.844C200.718 185.676 200.438 185.448 200.238 185.16C200.046 184.864 199.95 184.532 199.95 184.164C199.95 183.588 200.162 183.128 200.586 182.784C201.018 182.432 201.694 182.256 202.614 182.256H204.27V182.16C204.27 181.712 204.134 181.368 203.862 181.128C203.598 180.888 203.202 180.768 202.674 180.768C202.314 180.768 201.958 180.824 201.606 180.936C201.262 181.048 200.97 181.204 200.73 181.404L200.142 180.312C200.478 180.056 200.882 179.86 201.354 179.724C201.826 179.588 202.326 179.52 202.854 179.52ZM202.65 184.992C203.026 184.992 203.358 184.908 203.646 184.74C203.942 184.564 204.15 184.316 204.27 183.996V183.252H202.722C201.858 183.252 201.426 183.536 201.426 184.104C201.426 184.376 201.534 184.592 201.75 184.752C201.966 184.912 202.266 184.992 202.65 184.992ZM211.331 179.52C212.139 179.52 212.787 179.756 213.275 180.228C213.763 180.7 214.007 181.4 214.007 182.328V186H212.507V182.52C212.507 181.96 212.375 181.54 212.111 181.26C211.847 180.972 211.471 180.828 210.983 180.828C210.431 180.828 209.995 180.996 209.675 181.332C209.355 181.66 209.195 182.136 209.195 182.76V186H207.695V179.592H209.123V180.42C209.371 180.124 209.683 179.9 210.059 179.748C210.435 179.596 210.859 179.52 211.331 179.52ZM211.715 178.716C211.515 178.716 211.339 178.676 211.187 178.596C211.043 178.516 210.863 178.396 210.647 178.236C210.519 178.132 210.411 178.056 210.323 178.008C210.243 177.952 210.163 177.924 210.083 177.924C209.915 177.924 209.775 177.988 209.663 178.116C209.559 178.244 209.503 178.42 209.495 178.644H208.691C208.699 178.156 208.819 177.768 209.051 177.48C209.291 177.184 209.603 177.036 209.987 177.036C210.187 177.036 210.359 177.076 210.503 177.156C210.655 177.236 210.839 177.356 211.055 177.516C211.183 177.62 211.287 177.7 211.367 177.756C211.455 177.804 211.539 177.828 211.619 177.828C211.787 177.828 211.923 177.768 212.027 177.648C212.139 177.528 212.199 177.36 212.207 177.144H213.011C212.995 177.616 212.871 177.996 212.639 178.284C212.407 178.572 212.099 178.716 211.715 178.716ZM218.848 186.084C218.2 186.084 217.616 185.944 217.096 185.664C216.576 185.384 216.168 184.996 215.872 184.5C215.584 183.996 215.44 183.428 215.44 182.796C215.44 182.164 215.584 181.6 215.872 181.104C216.168 180.608 216.576 180.22 217.096 179.94C217.616 179.66 218.2 179.52 218.848 179.52C219.504 179.52 220.092 179.66 220.612 179.94C221.132 180.22 221.536 180.608 221.824 181.104C222.12 181.6 222.268 182.164 222.268 182.796C222.268 183.428 222.12 183.996 221.824 184.5C221.536 184.996 221.132 185.384 220.612 185.664C220.092 185.944 219.504 186.084 218.848 186.084ZM218.848 184.8C219.4 184.8 219.856 184.616 220.216 184.248C220.576 183.88 220.756 183.396 220.756 182.796C220.756 182.196 220.576 181.712 220.216 181.344C219.856 180.976 219.4 180.792 218.848 180.792C218.296 180.792 217.84 180.976 217.48 181.344C217.128 181.712 216.952 182.196 216.952 182.796C216.952 183.396 217.128 183.88 217.48 184.248C217.84 184.616 218.296 184.8 218.848 184.8ZM223.703 177.096H225.203V186H223.703V177.096Z" fill="#333333"/>
<path fill-rule="evenodd" clip-rule="evenodd" d="M315 61C315 50 308 43 297 43C257.917 43 282.045 43 254 43C246.27 43 242.785 40.7635 238.5 36.5C229.193 27.8197 205.783 14 154.427 14C82.0243 14 65 43 65 43C65 43 65.0004 47.7195 65.0006 61C65.0006 71 73 79 83 79C109.488 79 154 79 154 79L163 87H200L208 79C208 79 242.031 79 297 79C308 79 315 72 315 61C315 58.1323 315 62.8675 315 61Z" fill="#FC79FF"/>
<path fill-rule="evenodd" clip-rule="evenodd" d="M310 61C310 69 306 74 297 74L206 73.9999L198 82H165L156 73.9999C156 73.9999 108.393 73.9999 83.0001 73.9999C74.9643 73.9999 70 68 70 61H65C65 71 73 79 83.0001 79C109.441 79 154 79 154 79L163.027 87H200L208 79L297 79C308 79 315 72 315 61C313.5 61 312 60.9999 310 61Z" fill="black" fill-opacity="0.25"/>
<path fill-rule="evenodd" clip-rule="evenodd" d="M65 61H70V45C70 45 84.993 19 154.286 19C201.342 19 225.557 31.6452 235.5 40C240.292 44.0301 246.712 47.9521 253 48C261.5 48 281.464 48 297 48C304.964 48 310 53.5 310 60V61H314H315C315 50 308 43 297 43C257.993 43 281.008 43 253 43C246 43 242.169 40.1595 238.214 36.2066C228.936 27.4998 205.571 14 154.268 14C81.9103 14 65 43 65 43L65 61Z" fill="white" fill-opacity="0.5"/>
<path d="M80.016 68.144C79.16 68.144 78.384 67.96 77.688 67.592C77 67.216 76.456 66.7 76.056 66.044C75.664 65.38 75.468 64.632 75.468 63.8C75.468 62.968 75.664 62.224 76.056 61.568C76.456 60.904 77 60.388 77.688 60.02C78.384 59.644 79.164 59.456 80.028 59.456C80.756 59.456 81.412 59.584 81.996 59.84C82.588 60.096 83.084 60.464 83.484 60.944L82.236 62.096C81.668 61.44 80.964 61.112 80.124 61.112C79.604 61.112 79.14 61.228 78.732 61.46C78.324 61.684 78.004 62 77.772 62.408C77.548 62.816 77.436 63.28 77.436 63.8C77.436 64.32 77.548 64.784 77.772 65.192C78.004 65.6 78.324 65.92 78.732 66.152C79.14 66.376 79.604 66.488 80.124 66.488C80.964 66.488 81.668 66.156 82.236 65.492L83.484 66.644C83.084 67.132 82.588 67.504 81.996 67.76C81.404 68.016 80.744 68.144 80.016 68.144ZM91.0047 61.544V68H89.2287V67.232C88.9807 67.512 88.6847 67.728 88.3407 67.88C87.9967 68.024 87.6247 68.096 87.2247 68.096C86.3767 68.096 85.7047 67.852 85.2087 67.364C84.7127 66.876 84.4647 66.152 84.4647 65.192V61.544H86.3367V64.916C86.3367 65.956 86.7727 66.476 87.6447 66.476C88.0927 66.476 88.4527 66.332 88.7247 66.044C88.9967 65.748 89.1327 65.312 89.1327 64.736V61.544H91.0047ZM95.343 61.448C96.343 61.448 97.111 61.688 97.647 62.168C98.183 62.64 98.451 63.356 98.451 64.316V68H96.699V67.196C96.347 67.796 95.691 68.096 94.731 68.096C94.235 68.096 93.803 68.012 93.435 67.844C93.075 67.676 92.799 67.444 92.607 67.148C92.415 66.852 92.319 66.516 92.319 66.14C92.319 65.54 92.543 65.068 92.991 64.724C93.447 64.38 94.147 64.208 95.091 64.208H96.579C96.579 63.8 96.455 63.488 96.207 63.272C95.959 63.048 95.587 62.936 95.091 62.936C94.747 62.936 94.407 62.992 94.071 63.104C93.743 63.208 93.463 63.352 93.231 63.536L92.559 62.228C92.911 61.98 93.331 61.788 93.819 61.652C94.315 61.516 94.823 61.448 95.343 61.448ZM95.199 66.836C95.519 66.836 95.803 66.764 96.051 66.62C96.299 66.468 96.475 66.248 96.579 65.96V65.3H95.295C94.527 65.3 94.143 65.552 94.143 66.056C94.143 66.296 94.235 66.488 94.419 66.632C94.611 66.768 94.871 66.836 95.199 66.836ZM104.069 61.448C104.869 61.448 105.513 61.688 106.001 62.168C106.497 62.648 106.745 63.36 106.745 64.304V68H104.873V64.592C104.873 64.08 104.761 63.7 104.537 63.452C104.313 63.196 103.989 63.068 103.565 63.068C103.093 63.068 102.717 63.216 102.437 63.512C102.157 63.8 102.017 64.232 102.017 64.808V68H100.145V61.544H101.933V62.3C102.181 62.028 102.489 61.82 102.857 61.676C103.225 61.524 103.629 61.448 104.069 61.448ZM115.088 59.096V68H113.3V67.256C112.836 67.816 112.164 68.096 111.284 68.096C110.676 68.096 110.124 67.96 109.628 67.688C109.14 67.416 108.756 67.028 108.476 66.524C108.196 66.02 108.056 65.436 108.056 64.772C108.056 64.108 108.196 63.524 108.476 63.02C108.756 62.516 109.14 62.128 109.628 61.856C110.124 61.584 110.676 61.448 111.284 61.448C112.108 61.448 112.752 61.708 113.216 62.228V59.096H115.088ZM111.608 66.56C112.08 66.56 112.472 66.4 112.784 66.08C113.096 65.752 113.252 65.316 113.252 64.772C113.252 64.228 113.096 63.796 112.784 63.476C112.472 63.148 112.08 62.984 111.608 62.984C111.128 62.984 110.732 63.148 110.42 63.476C110.108 63.796 109.952 64.228 109.952 64.772C109.952 65.316 110.108 65.752 110.42 66.08C110.732 66.4 111.128 66.56 111.608 66.56ZM119.893 68.096C119.213 68.096 118.601 67.956 118.057 67.676C117.521 67.388 117.101 66.992 116.797 66.488C116.493 65.984 116.341 65.412 116.341 64.772C116.341 64.132 116.493 63.56 116.797 63.056C117.101 62.552 117.521 62.16 118.057 61.88C118.601 61.592 119.213 61.448 119.893 61.448C120.573 61.448 121.181 61.592 121.717 61.88C122.253 62.16 122.673 62.552 122.977 63.056C123.281 63.56 123.433 64.132 123.433 64.772C123.433 65.412 123.281 65.984 122.977 66.488C122.673 66.992 122.253 67.388 121.717 67.676C121.181 67.956 120.573 68.096 119.893 68.096ZM119.893 66.56C120.373 66.56 120.765 66.4 121.069 66.08C121.381 65.752 121.537 65.316 121.537 64.772C121.537 64.228 121.381 63.796 121.069 63.476C120.765 63.148 120.373 62.984 119.893 62.984C119.413 62.984 119.017 63.148 118.705 63.476C118.393 63.796 118.237 64.228 118.237 64.772C118.237 65.316 118.393 65.752 118.705 66.08C119.017 66.4 119.413 66.56 119.893 66.56ZM125.392 63.788C125.064 63.788 124.788 63.676 124.564 63.452C124.34 63.228 124.228 62.948 124.228 62.612C124.228 62.268 124.34 61.992 124.564 61.784C124.788 61.568 125.064 61.46 125.392 61.46C125.72 61.46 125.996 61.568 126.22 61.784C126.444 61.992 126.556 62.268 126.556 62.612C126.556 62.948 126.444 63.228 126.22 63.452C125.996 63.676 125.72 63.788 125.392 63.788ZM125.392 68.096C125.064 68.096 124.788 67.984 124.564 67.76C124.34 67.536 124.228 67.256 124.228 66.92C124.228 66.576 124.34 66.3 124.564 66.092C124.788 65.876 125.064 65.768 125.392 65.768C125.72 65.768 125.996 65.876 126.22 66.092C126.444 66.3 126.556 66.576 126.556 66.92C126.556 67.256 126.444 67.536 126.22 67.76C125.996 67.984 125.72 68.096 125.392 68.096ZM135.039 61.448C135.639 61.448 136.183 61.588 136.671 61.868C137.167 62.14 137.555 62.528 137.835 63.032C138.115 63.528 138.255 64.108 138.255 64.772C138.255 65.436 138.115 66.02 137.835 66.524C137.555 67.02 137.167 67.408 136.671 67.688C136.183 67.96 135.639 68.096 135.039 68.096C134.215 68.096 133.567 67.836 133.095 67.316V70.328H131.223V61.544H133.011V62.288C133.475 61.728 134.151 61.448 135.039 61.448ZM134.715 66.56C135.195 66.56 135.587 66.4 135.891 66.08C136.203 65.752 136.359 65.316 136.359 64.772C136.359 64.228 136.203 63.796 135.891 63.476C135.587 63.148 135.195 62.984 134.715 62.984C134.235 62.984 133.839 63.148 133.527 63.476C133.223 63.796 133.071 64.228 133.071 64.772C133.071 65.316 133.223 65.752 133.527 66.08C133.839 66.4 134.235 66.56 134.715 66.56ZM141.297 62.396C141.521 62.084 141.821 61.848 142.197 61.688C142.581 61.528 143.021 61.448 143.517 61.448V63.176C143.309 63.16 143.169 63.152 143.097 63.152C142.561 63.152 142.141 63.304 141.837 63.608C141.533 63.904 141.381 64.352 141.381 64.952V68H139.509V61.544H141.297V62.396ZM150.895 64.796C150.895 64.82 150.883 64.988 150.859 65.3H145.975C146.063 65.7 146.271 66.016 146.599 66.248C146.927 66.48 147.335 66.596 147.823 66.596C148.159 66.596 148.455 66.548 148.711 66.452C148.975 66.348 149.219 66.188 149.443 65.972L150.439 67.052C149.831 67.748 148.943 68.096 147.775 68.096C147.047 68.096 146.403 67.956 145.843 67.676C145.283 67.388 144.851 66.992 144.547 66.488C144.243 65.984 144.091 65.412 144.091 64.772C144.091 64.14 144.239 63.572 144.535 63.068C144.839 62.556 145.251 62.16 145.771 61.88C146.299 61.592 146.887 61.448 147.535 61.448C148.167 61.448 148.739 61.584 149.251 61.856C149.763 62.128 150.163 62.52 150.451 63.032C150.747 63.536 150.895 64.124 150.895 64.796ZM147.547 62.864C147.123 62.864 146.767 62.984 146.479 63.224C146.191 63.464 146.015 63.792 145.951 64.208H149.131C149.067 63.8 148.891 63.476 148.603 63.236C148.315 62.988 147.963 62.864 147.547 62.864ZM154.313 68.096C153.777 68.096 153.253 68.032 152.741 67.904C152.229 67.768 151.821 67.6 151.517 67.4L152.141 66.056C152.429 66.24 152.777 66.392 153.185 66.512C153.593 66.624 153.993 66.68 154.385 66.68C155.177 66.68 155.573 66.484 155.573 66.092C155.573 65.908 155.465 65.776 155.249 65.696C155.033 65.616 154.701 65.548 154.253 65.492C153.725 65.412 153.289 65.32 152.945 65.216C152.601 65.112 152.301 64.928 152.045 64.664C151.797 64.4 151.673 64.024 151.673 63.536C151.673 63.128 151.789 62.768 152.021 62.456C152.261 62.136 152.605 61.888 153.053 61.712C153.509 61.536 154.045 61.448 154.661 61.448C155.117 61.448 155.569 61.5 156.017 61.604C156.473 61.7 156.849 61.836 157.145 62.012L156.521 63.344C155.953 63.024 155.333 62.864 154.661 62.864C154.261 62.864 153.961 62.92 153.761 63.032C153.561 63.144 153.461 63.288 153.461 63.464C153.461 63.664 153.569 63.804 153.785 63.884C154.001 63.964 154.345 64.04 154.817 64.112C155.345 64.2 155.777 64.296 156.113 64.4C156.449 64.496 156.741 64.676 156.989 64.94C157.237 65.204 157.361 65.572 157.361 66.044C157.361 66.444 157.241 66.8 157.001 67.112C156.761 67.424 156.409 67.668 155.945 67.844C155.489 68.012 154.945 68.096 154.313 68.096ZM158.516 61.544H160.388V68H158.516V61.544ZM159.452 60.644C159.108 60.644 158.828 60.544 158.612 60.344C158.396 60.144 158.288 59.896 158.288 59.6C158.288 59.304 158.396 59.056 158.612 58.856C158.828 58.656 159.108 58.556 159.452 58.556C159.796 58.556 160.076 58.652 160.292 58.844C160.508 59.036 160.616 59.276 160.616 59.564C160.616 59.876 160.508 60.136 160.292 60.344C160.076 60.544 159.796 60.644 159.452 60.644ZM165.198 68.096C164.518 68.096 163.906 67.956 163.362 67.676C162.826 67.388 162.406 66.992 162.102 66.488C161.798 65.984 161.646 65.412 161.646 64.772C161.646 64.132 161.798 63.56 162.102 63.056C162.406 62.552 162.826 62.16 163.362 61.88C163.906 61.592 164.518 61.448 165.198 61.448C165.878 61.448 166.486 61.592 167.022 61.88C167.558 62.16 167.978 62.552 168.282 63.056C168.586 63.56 168.738 64.132 168.738 64.772C168.738 65.412 168.586 65.984 168.282 66.488C167.978 66.992 167.558 67.388 167.022 67.676C166.486 67.956 165.878 68.096 165.198 68.096ZM165.198 66.56C165.678 66.56 166.07 66.4 166.374 66.08C166.686 65.752 166.842 65.316 166.842 64.772C166.842 64.228 166.686 63.796 166.374 63.476C166.07 63.148 165.678 62.984 165.198 62.984C164.718 62.984 164.322 63.148 164.01 63.476C163.698 63.796 163.542 64.228 163.542 64.772C163.542 65.316 163.698 65.752 164.01 66.08C164.322 66.4 164.718 66.56 165.198 66.56ZM173.913 61.448C174.713 61.448 175.357 61.688 175.845 62.168C176.341 62.648 176.589 63.36 176.589 64.304V68H174.717V64.592C174.717 64.08 174.605 63.7 174.381 63.452C174.157 63.196 173.833 63.068 173.409 63.068C172.937 63.068 172.561 63.216 172.281 63.512C172.001 63.8 171.861 64.232 171.861 64.808V68H169.989V61.544H171.777V62.3C172.025 62.028 172.333 61.82 172.701 61.676C173.069 61.524 173.473 61.448 173.913 61.448ZM180.89 61.448C181.89 61.448 182.658 61.688 183.194 62.168C183.73 62.64 183.998 63.356 183.998 64.316V68H182.246V67.196C181.894 67.796 181.238 68.096 180.278 68.096C179.782 68.096 179.35 68.012 178.982 67.844C178.622 67.676 178.346 67.444 178.154 67.148C177.962 66.852 177.866 66.516 177.866 66.14C177.866 65.54 178.09 65.068 178.538 64.724C178.994 64.38 179.694 64.208 180.638 64.208H182.126C182.126 63.8 182.002 63.488 181.754 63.272C181.506 63.048 181.134 62.936 180.638 62.936C180.294 62.936 179.954 62.992 179.618 63.104C179.29 63.208 179.01 63.352 178.778 63.536L178.106 62.228C178.458 61.98 178.878 61.788 179.366 61.652C179.862 61.516 180.37 61.448 180.89 61.448ZM180.746 66.836C181.066 66.836 181.35 66.764 181.598 66.62C181.846 66.468 182.022 66.248 182.126 65.96V65.3H180.842C180.074 65.3 179.69 65.552 179.69 66.056C179.69 66.296 179.782 66.488 179.966 66.632C180.158 66.768 180.418 66.836 180.746 66.836ZM187.48 62.396C187.704 62.084 188.004 61.848 188.38 61.688C188.764 61.528 189.204 61.448 189.7 61.448V63.176C189.492 63.16 189.352 63.152 189.28 63.152C188.744 63.152 188.324 63.304 188.02 63.608C187.716 63.904 187.564 64.352 187.564 64.952V68H185.692V61.544H187.48V62.396ZM198.075 61.448C198.675 61.448 199.219 61.588 199.707 61.868C200.203 62.14 200.591 62.528 200.871 63.032C201.151 63.528 201.291 64.108 201.291 64.772C201.291 65.436 201.151 66.02 200.871 66.524C200.591 67.02 200.203 67.408 199.707 67.688C199.219 67.96 198.675 68.096 198.075 68.096C197.187 68.096 196.511 67.816 196.047 67.256V68H194.259V59.096H196.131V62.228C196.603 61.708 197.251 61.448 198.075 61.448ZM197.751 66.56C198.231 66.56 198.623 66.4 198.927 66.08C199.239 65.752 199.395 65.316 199.395 64.772C199.395 64.228 199.239 63.796 198.927 63.476C198.623 63.148 198.231 62.984 197.751 62.984C197.271 62.984 196.875 63.148 196.563 63.476C196.259 63.796 196.107 64.228 196.107 64.772C196.107 65.316 196.259 65.752 196.563 66.08C196.875 66.4 197.271 66.56 197.751 66.56ZM205.616 68.096C204.936 68.096 204.324 67.956 203.78 67.676C203.244 67.388 202.824 66.992 202.52 66.488C202.216 65.984 202.064 65.412 202.064 64.772C202.064 64.132 202.216 63.56 202.52 63.056C202.824 62.552 203.244 62.16 203.78 61.88C204.324 61.592 204.936 61.448 205.616 61.448C206.296 61.448 206.904 61.592 207.44 61.88C207.976 62.16 208.396 62.552 208.7 63.056C209.004 63.56 209.156 64.132 209.156 64.772C209.156 65.412 209.004 65.984 208.7 66.488C208.396 66.992 207.976 67.388 207.44 67.676C206.904 67.956 206.296 68.096 205.616 68.096ZM205.616 66.56C206.096 66.56 206.488 66.4 206.792 66.08C207.104 65.752 207.26 65.316 207.26 64.772C207.26 64.228 207.104 63.796 206.792 63.476C206.488 63.148 206.096 62.984 205.616 62.984C205.136 62.984 204.74 63.148 204.428 63.476C204.116 63.796 203.96 64.228 203.96 64.772C203.96 65.316 204.116 65.752 204.428 66.08C204.74 66.4 205.136 66.56 205.616 66.56ZM214.571 67.688C214.387 67.824 214.159 67.928 213.887 68C213.623 68.064 213.343 68.096 213.047 68.096C212.279 68.096 211.683 67.9 211.259 67.508C210.843 67.116 210.635 66.54 210.635 65.78V63.128H209.639V61.688H210.635V60.116H212.507V61.688H214.115V63.128H212.507V65.756C212.507 66.028 212.575 66.24 212.711 66.392C212.855 66.536 213.055 66.608 213.311 66.608C213.607 66.608 213.859 66.528 214.067 66.368L214.571 67.688ZM218.495 68.096C217.815 68.096 217.203 67.956 216.659 67.676C216.123 67.388 215.703 66.992 215.399 66.488C215.095 65.984 214.943 65.412 214.943 64.772C214.943 64.132 215.095 63.56 215.399 63.056C215.703 62.552 216.123 62.16 216.659 61.88C217.203 61.592 217.815 61.448 218.495 61.448C219.175 61.448 219.783 61.592 220.319 61.88C220.855 62.16 221.275 62.552 221.579 63.056C221.883 63.56 222.035 64.132 222.035 64.772C222.035 65.412 221.883 65.984 221.579 66.488C221.275 66.992 220.855 67.388 220.319 67.676C219.783 67.956 219.175 68.096 218.495 68.096ZM218.495 66.56C218.975 66.56 219.367 66.4 219.671 66.08C219.983 65.752 220.139 65.316 220.139 64.772C220.139 64.228 219.983 63.796 219.671 63.476C219.367 63.148 218.975 62.984 218.495 62.984C218.015 62.984 217.619 63.148 217.307 63.476C216.995 63.796 216.839 64.228 216.839 64.772C216.839 65.316 216.995 65.752 217.307 66.08C217.619 66.4 218.015 66.56 218.495 66.56ZM218.999 58.988H221.015L218.843 60.716H217.379L218.999 58.988ZM227.21 61.448C228.01 61.448 228.654 61.688 229.142 62.168C229.638 62.648 229.886 63.36 229.886 64.304V68H228.014V64.592C228.014 64.08 227.902 63.7 227.678 63.452C227.454 63.196 227.13 63.068 226.706 63.068C226.234 63.068 225.858 63.216 225.578 63.512C225.298 63.8 225.158 64.232 225.158 64.808V68H223.286V61.544H225.074V62.3C225.322 62.028 225.63 61.82 225.998 61.676C226.366 61.524 226.77 61.448 227.21 61.448ZM234.981 61.544H236.853V68H234.981V61.544ZM235.917 60.644C235.573 60.644 235.293 60.544 235.077 60.344C234.861 60.144 234.753 59.896 234.753 59.6C234.753 59.304 234.861 59.056 235.077 58.856C235.293 58.656 235.573 58.556 235.917 58.556C236.261 58.556 236.541 58.652 236.757 58.844C236.973 59.036 237.081 59.276 237.081 59.564C237.081 59.876 236.973 60.136 236.757 60.344C236.541 60.544 236.261 60.644 235.917 60.644ZM242.515 61.448C243.315 61.448 243.959 61.688 244.447 62.168C244.943 62.648 245.191 63.36 245.191 64.304V68H243.319V64.592C243.319 64.08 243.207 63.7 242.983 63.452C242.759 63.196 242.435 63.068 242.011 63.068C241.539 63.068 241.163 63.216 240.883 63.512C240.603 63.8 240.463 64.232 240.463 64.808V68H238.591V61.544H240.379V62.3C240.627 62.028 240.935 61.82 241.303 61.676C241.671 61.524 242.075 61.448 242.515 61.448ZM246.887 61.544H248.759V68H246.887V61.544ZM247.823 60.644C247.479 60.644 247.199 60.544 246.983 60.344C246.767 60.144 246.659 59.896 246.659 59.6C246.659 59.304 246.767 59.056 246.983 58.856C247.199 58.656 247.479 58.556 247.823 58.556C248.167 58.556 248.447 58.652 248.663 58.844C248.879 59.036 248.987 59.276 248.987 59.564C248.987 59.876 248.879 60.136 248.663 60.344C248.447 60.544 248.167 60.644 247.823 60.644ZM253.617 68.096C252.929 68.096 252.309 67.956 251.757 67.676C251.213 67.388 250.785 66.992 250.473 66.488C250.169 65.984 250.017 65.412 250.017 64.772C250.017 64.132 250.169 63.56 250.473 63.056C250.785 62.552 251.213 62.16 251.757 61.88C252.309 61.592 252.929 61.448 253.617 61.448C254.297 61.448 254.889 61.592 255.393 61.88C255.905 62.16 256.277 62.564 256.509 63.092L255.057 63.872C254.721 63.28 254.237 62.984 253.605 62.984C253.117 62.984 252.713 63.144 252.393 63.464C252.073 63.784 251.913 64.22 251.913 64.772C251.913 65.324 252.073 65.76 252.393 66.08C252.713 66.4 253.117 66.56 253.605 66.56C254.245 66.56 254.729 66.264 255.057 65.672L256.509 66.464C256.277 66.976 255.905 67.376 255.393 67.664C254.889 67.952 254.297 68.096 253.617 68.096ZM257.587 61.544H259.459V68H257.587V61.544ZM258.523 60.644C258.179 60.644 257.899 60.544 257.683 60.344C257.467 60.144 257.359 59.896 257.359 59.6C257.359 59.304 257.467 59.056 257.683 58.856C257.899 58.656 258.179 58.556 258.523 58.556C258.867 58.556 259.147 58.652 259.363 58.844C259.579 59.036 259.687 59.276 259.687 59.564C259.687 59.876 259.579 60.136 259.363 60.344C259.147 60.544 258.867 60.644 258.523 60.644ZM263.8 61.448C264.8 61.448 265.568 61.688 266.104 62.168C266.64 62.64 266.908 63.356 266.908 64.316V68H265.156V67.196C264.804 67.796 264.148 68.096 263.188 68.096C262.692 68.096 262.26 68.012 261.892 67.844C261.532 67.676 261.256 67.444 261.064 67.148C260.872 66.852 260.776 66.516 260.776 66.14C260.776 65.54 261 65.068 261.448 64.724C261.904 64.38 262.604 64.208 263.548 64.208H265.036C265.036 63.8 264.912 63.488 264.664 63.272C264.416 63.048 264.044 62.936 263.548 62.936C263.204 62.936 262.864 62.992 262.528 63.104C262.2 63.208 261.92 63.352 261.688 63.536L261.016 62.228C261.368 61.98 261.788 61.788 262.276 61.652C262.772 61.516 263.28 61.448 263.8 61.448ZM263.656 66.836C263.976 66.836 264.26 66.764 264.508 66.62C264.756 66.468 264.932 66.248 265.036 65.96V65.3H263.752C262.984 65.3 262.6 65.552 262.6 66.056C262.6 66.296 262.692 66.488 262.876 66.632C263.068 66.768 263.328 66.836 263.656 66.836ZM270.39 62.396C270.614 62.084 270.914 61.848 271.29 61.688C271.674 61.528 272.114 61.448 272.61 61.448V63.176C272.402 63.16 272.262 63.152 272.19 63.152C271.654 63.152 271.234 63.304 270.93 63.608C270.626 63.904 270.474 64.352 270.474 64.952V68H268.602V61.544H270.39V62.396ZM274.361 68.096C274.033 68.096 273.757 67.984 273.533 67.76C273.309 67.536 273.197 67.256 273.197 66.92C273.197 66.576 273.309 66.3 273.533 66.092C273.757 65.876 274.033 65.768 274.361 65.768C274.689 65.768 274.965 65.876 275.189 66.092C275.413 66.3 275.525 66.576 275.525 66.92C275.525 67.256 275.413 67.536 275.189 67.76C274.965 67.984 274.689 68.096 274.361 68.096Z" fill="#333333"/>
</g>
<defs>
<filter id="filter0_d_4403_110238" x="0" y="0" width="380" height="224" filterUnits="userSpaceOnUse" color-interpolation-filters="sRGB">
<feFlood flood-opacity="0" result="BackgroundImageFix"/>
<feColorMatrix in="SourceAlpha" type="matrix" values="0 0 0 0 0 0 0 0 0 0 0 0 0 0 0 0 0 0 127 0" result="hardAlpha"/>
<feOffset dy="4"/>
<feColorMatrix type="matrix" values="0 0 0 0 0 0 0 0 0 0 0 0 0 0 0 0 0 0 0.25 0"/>
<feBlend mode="normal" in2="BackgroundImageFix" result="effect1_dropShadow_4403_110238"/>
<feBlend mode="normal" in="SourceGraphic" in2="effect1_dropShadow_4403_110238" result="shape"/>
</filter>
</defs>
</svg>
