<svg width="380" height="224" viewBox="0 0 380 224" fill="none" xmlns="http://www.w3.org/2000/svg">
<g>
<rect width="380" height="220" rx="20" fill="#F2F2F2"/>
<path fill-rule="evenodd" clip-rule="evenodd" d="M330 78.6125C330 68.5789 321.783 60.4453 311.649 60.4453C279.567 60.4453 229.135 60.4453 206.114 60.4453C201.415 60.4451 196.896 58.6607 193.486 55.4597C185.846 48.2988 166.561 36 124.406 36C64.9744 36 51 60.4453 51 60.4453C51 60.4453 51.0004 72.2977 51.0005 83.2535C51.0007 93.2873 59.217 101.421 69.3522 101.421C91.0945 101.421 124.406 101.421 124.406 101.421L132.482 108.672H160.379L168.45 101.421C168.45 101.421 266.527 101.421 311.649 101.421C316.516 101.421 321.184 99.5069 324.626 96.0996C328.067 92.6922 330.001 88.0708 330 83.2523C330 81.7115 330 80.1531 330 78.6125Z" fill="#FC79FF"/>
<path fill-rule="evenodd" clip-rule="evenodd" d="M330 80.5774H325.596V81.3467C325.596 85.5184 323.922 89.5191 320.942 92.4689C317.962 95.4188 313.921 97.0759 309.707 97.0759H166.625L158.555 104.327H134.306L126.23 97.0759C126.23 97.0759 92.1738 97.0759 71.2924 97.0759C67.0786 97.0759 63.0375 95.4188 60.0579 92.4689C57.0784 89.5191 55.4044 85.5184 55.4044 81.3467V80.5774H51V83.2817C51 88.1 52.9335 92.7213 56.3751 96.1285C59.8167 99.5356 64.4845 101.45 69.3517 101.45C91.0943 101.45 124.406 101.45 124.406 101.45L132.482 108.701H160.379L168.45 101.45H311.648C321.783 101.45 330 93.3159 330 83.282C330 81.6384 330 80.5774 330 80.5774Z" fill="#CD5ACF"/>
<path fill-rule="evenodd" clip-rule="evenodd" d="M51 80.5489H55.4044V62.6323C55.4044 62.6323 67.4088 40.3738 124.389 40.3738C163.084 40.3738 182.435 51.71 190.611 58.5825C194.552 61.8976 199.545 63.7354 204.716 63.7748C228.728 63.9695 279.378 64.4669 309.709 64.698C318.503 64.765 325.596 71.8415 325.596 80.5475V80.5489H330V78.6134C330 68.5794 321.784 60.4453 311.648 60.4453C279.572 60.4453 229.158 60.4453 206.126 60.4453C201.423 60.4451 196.899 58.6574 193.489 55.451C185.859 48.2888 166.593 36 124.406 36C64.9055 36 51.0005 60.4453 51.0005 60.4453L51 80.5489Z" fill="#FDACFF"/>
<path d="M75.2072 85.2075C74.2086 85.2075 73.3032 84.9928 72.4912 84.5635C71.6886 84.1248 71.0539 83.5228 70.5872 82.7575C70.1299 81.9828 69.9012 81.1102 69.9012 80.1395C69.9012 79.1688 70.1299 78.3008 70.5872 77.5355C71.0539 76.7608 71.6886 76.1588 72.4912 75.7295C73.3032 75.2908 74.2132 75.0715 75.2212 75.0715C76.0706 75.0715 76.8359 75.2208 77.5172 75.5195C78.2079 75.8182 78.7866 76.2475 79.2532 76.8075L77.7972 78.1515C77.1346 77.3862 76.3132 77.0035 75.3332 77.0035C74.7266 77.0035 74.1852 77.1388 73.7092 77.4095C73.2332 77.6708 72.8599 78.0395 72.5892 78.5155C72.3279 78.9915 72.1972 79.5328 72.1972 80.1395C72.1972 80.7462 72.3279 81.2875 72.5892 81.7635C72.8599 82.2395 73.2332 82.6128 73.7092 82.8835C74.1852 83.1448 74.7266 83.2755 75.3332 83.2755C76.3132 83.2755 77.1346 82.8882 77.7972 82.1135L79.2532 83.4575C78.7866 84.0268 78.2079 84.4608 77.5172 84.7595C76.8266 85.0582 76.0566 85.2075 75.2072 85.2075ZM88.0274 77.5075V85.0395H85.9554V84.1435C85.6661 84.4702 85.3207 84.7222 84.9194 84.8995C84.5181 85.0675 84.0841 85.1515 83.6174 85.1515C82.6281 85.1515 81.8441 84.8668 81.2654 84.2975C80.6867 83.7282 80.3974 82.8835 80.3974 81.7635V77.5075H82.5814V81.4415C82.5814 82.6548 83.0901 83.2615 84.1074 83.2615C84.6301 83.2615 85.0501 83.0935 85.3674 82.7575C85.6847 82.4122 85.8434 81.9035 85.8434 81.2315V77.5075H88.0274ZM93.0887 77.3955C94.2554 77.3955 95.1514 77.6755 95.7767 78.2355C96.4021 78.7862 96.7147 79.6215 96.7147 80.7415V85.0395H94.6707V84.1015C94.2601 84.8015 93.4947 85.1515 92.3747 85.1515C91.7961 85.1515 91.2921 85.0535 90.8627 84.8575C90.4427 84.6615 90.1207 84.3908 89.8967 84.0455C89.6727 83.7002 89.5607 83.3082 89.5607 82.8695C89.5607 82.1695 89.8221 81.6188 90.3447 81.2175C90.8767 80.8162 91.6934 80.6155 92.7947 80.6155H94.5307C94.5307 80.1395 94.3861 79.7755 94.0967 79.5235C93.8074 79.2622 93.3734 79.1315 92.7947 79.1315C92.3934 79.1315 91.9967 79.1968 91.6047 79.3275C91.2221 79.4488 90.8954 79.6168 90.6247 79.8315L89.8407 78.3055C90.2514 78.0162 90.7414 77.7922 91.3107 77.6335C91.8894 77.4748 92.4821 77.3955 93.0887 77.3955ZM92.9207 83.6815C93.2941 83.6815 93.6254 83.5975 93.9147 83.4295C94.2041 83.2522 94.4094 82.9955 94.5307 82.6595V81.8895H93.0327C92.1367 81.8895 91.6887 82.1835 91.6887 82.7715C91.6887 83.0515 91.7961 83.2755 92.0107 83.4435C92.2347 83.6022 92.5381 83.6815 92.9207 83.6815ZM103.269 77.3955C104.203 77.3955 104.954 77.6755 105.523 78.2355C106.102 78.7955 106.391 79.6262 106.391 80.7275V85.0395H104.207V81.0635C104.207 80.4662 104.077 80.0228 103.815 79.7335C103.554 79.4348 103.176 79.2855 102.681 79.2855C102.131 79.2855 101.692 79.4582 101.365 79.8035C101.039 80.1395 100.875 80.6435 100.875 81.3155V85.0395H98.6913V77.5075H100.777V78.3895C101.067 78.0722 101.426 77.8295 101.855 77.6615C102.285 77.4842 102.756 77.3955 103.269 77.3955ZM116.125 74.6515V85.0395H114.039V84.1715C113.498 84.8248 112.714 85.1515 111.687 85.1515C110.978 85.1515 110.334 84.9928 109.755 84.6755C109.186 84.3582 108.738 83.9055 108.411 83.3175C108.084 82.7295 107.921 82.0482 107.921 81.2735C107.921 80.4988 108.084 79.8175 108.411 79.2295C108.738 78.6415 109.186 78.1888 109.755 77.8715C110.334 77.5542 110.978 77.3955 111.687 77.3955C112.648 77.3955 113.4 77.6988 113.941 78.3055V74.6515H116.125ZM112.065 83.3595C112.616 83.3595 113.073 83.1728 113.437 82.7995C113.801 82.4168 113.983 81.9082 113.983 81.2735C113.983 80.6388 113.801 80.1348 113.437 79.7615C113.073 79.3788 112.616 79.1875 112.065 79.1875C111.505 79.1875 111.043 79.3788 110.679 79.7615C110.315 80.1348 110.133 80.6388 110.133 81.2735C110.133 81.9082 110.315 82.4168 110.679 82.7995C111.043 83.1728 111.505 83.3595 112.065 83.3595ZM121.73 85.1515C120.937 85.1515 120.223 84.9882 119.588 84.6615C118.963 84.3255 118.473 83.8635 118.118 83.2755C117.764 82.6875 117.586 82.0202 117.586 81.2735C117.586 80.5268 117.764 79.8595 118.118 79.2715C118.473 78.6835 118.963 78.2262 119.588 77.8995C120.223 77.5635 120.937 77.3955 121.73 77.3955C122.524 77.3955 123.233 77.5635 123.858 77.8995C124.484 78.2262 124.974 78.6835 125.328 79.2715C125.683 79.8595 125.86 80.5268 125.86 81.2735C125.86 82.0202 125.683 82.6875 125.328 83.2755C124.974 83.8635 124.484 84.3255 123.858 84.6615C123.233 84.9882 122.524 85.1515 121.73 85.1515ZM121.73 83.3595C122.29 83.3595 122.748 83.1728 123.102 82.7995C123.466 82.4168 123.648 81.9082 123.648 81.2735C123.648 80.6388 123.466 80.1348 123.102 79.7615C122.748 79.3788 122.29 79.1875 121.73 79.1875C121.17 79.1875 120.708 79.3788 120.344 79.7615C119.98 80.1348 119.798 80.6388 119.798 81.2735C119.798 81.9082 119.98 82.4168 120.344 82.7995C120.708 83.1728 121.17 83.3595 121.73 83.3595ZM128.146 80.1255C127.764 80.1255 127.442 79.9948 127.18 79.7335C126.919 79.4722 126.788 79.1455 126.788 78.7535C126.788 78.3522 126.919 78.0302 127.18 77.7875C127.442 77.5355 127.764 77.4095 128.146 77.4095C128.529 77.4095 128.851 77.5355 129.112 77.7875C129.374 78.0302 129.504 78.3522 129.504 78.7535C129.504 79.1455 129.374 79.4722 129.112 79.7335C128.851 79.9948 128.529 80.1255 128.146 80.1255ZM128.146 85.1515C127.764 85.1515 127.442 85.0208 127.18 84.7595C126.919 84.4982 126.788 84.1715 126.788 83.7795C126.788 83.3782 126.919 83.0562 127.18 82.8135C127.442 82.5615 127.764 82.4355 128.146 82.4355C128.529 82.4355 128.851 82.5615 129.112 82.8135C129.374 83.0562 129.504 83.3782 129.504 83.7795C129.504 84.1715 129.374 84.4982 129.112 84.7595C128.851 85.0208 128.529 85.1515 128.146 85.1515ZM139.401 77.3955C140.101 77.3955 140.736 77.5588 141.305 77.8855C141.884 78.2028 142.336 78.6555 142.663 79.2435C142.99 79.8222 143.153 80.4988 143.153 81.2735C143.153 82.0482 142.99 82.7295 142.663 83.3175C142.336 83.8962 141.884 84.3488 141.305 84.6755C140.736 84.9928 140.101 85.1515 139.401 85.1515C138.44 85.1515 137.684 84.8482 137.133 84.2415V87.7555H134.949V77.5075H137.035V78.3755C137.576 77.7222 138.365 77.3955 139.401 77.3955ZM139.023 83.3595C139.583 83.3595 140.04 83.1728 140.395 82.7995C140.759 82.4168 140.941 81.9082 140.941 81.2735C140.941 80.6388 140.759 80.1348 140.395 79.7615C140.04 79.3788 139.583 79.1875 139.023 79.1875C138.463 79.1875 138.001 79.3788 137.637 79.7615C137.282 80.1348 137.105 80.6388 137.105 81.2735C137.105 81.9082 137.282 82.4168 137.637 82.7995C138.001 83.1728 138.463 83.3595 139.023 83.3595ZM146.701 78.5015C146.963 78.1375 147.313 77.8622 147.751 77.6755C148.199 77.4888 148.713 77.3955 149.291 77.3955V79.4115C149.049 79.3928 148.885 79.3835 148.801 79.3835C148.176 79.3835 147.686 79.5608 147.331 79.9155C146.977 80.2608 146.799 80.7835 146.799 81.4835V85.0395H144.615V77.5075H146.701V78.5015ZM157.899 81.3015C157.899 81.3295 157.885 81.5255 157.857 81.8895H152.159C152.262 82.3562 152.505 82.7248 152.887 82.9955C153.27 83.2662 153.746 83.4015 154.315 83.4015C154.707 83.4015 155.053 83.3455 155.351 83.2335C155.659 83.1122 155.944 82.9255 156.205 82.6735L157.367 83.9335C156.658 84.7455 155.622 85.1515 154.259 85.1515C153.41 85.1515 152.659 84.9882 152.005 84.6615C151.352 84.3255 150.848 83.8635 150.493 83.2755C150.139 82.6875 149.961 82.0202 149.961 81.2735C149.961 80.5362 150.134 79.8735 150.479 79.2855C150.834 78.6882 151.315 78.2262 151.921 77.8995C152.537 77.5635 153.223 77.3955 153.979 77.3955C154.717 77.3955 155.384 77.5542 155.981 77.8715C156.579 78.1888 157.045 78.6462 157.381 79.2435C157.727 79.8315 157.899 80.5175 157.899 81.3015ZM153.993 79.0475C153.499 79.0475 153.083 79.1875 152.747 79.4675C152.411 79.7475 152.206 80.1302 152.131 80.6155H155.841C155.767 80.1395 155.561 79.7615 155.225 79.4815C154.889 79.1922 154.479 79.0475 153.993 79.0475ZM161.887 85.1515C161.262 85.1515 160.651 85.0768 160.053 84.9275C159.456 84.7688 158.98 84.5728 158.625 84.3395L159.353 82.7715C159.689 82.9862 160.095 83.1635 160.571 83.3035C161.047 83.4342 161.514 83.4995 161.971 83.4995C162.895 83.4995 163.357 83.2708 163.357 82.8135C163.357 82.5988 163.231 82.4448 162.979 82.3515C162.727 82.2582 162.34 82.1788 161.817 82.1135C161.201 82.0202 160.693 81.9128 160.291 81.7915C159.89 81.6702 159.54 81.4555 159.241 81.1475C158.952 80.8395 158.807 80.4008 158.807 79.8315C158.807 79.3555 158.943 78.9355 159.213 78.5715C159.493 78.1982 159.895 77.9088 160.417 77.7035C160.949 77.4982 161.575 77.3955 162.293 77.3955C162.825 77.3955 163.353 77.4562 163.875 77.5775C164.407 77.6895 164.846 77.8482 165.191 78.0535L164.463 79.6075C163.801 79.2342 163.077 79.0475 162.293 79.0475C161.827 79.0475 161.477 79.1128 161.243 79.2435C161.01 79.3742 160.893 79.5422 160.893 79.7475C160.893 79.9808 161.019 80.1442 161.271 80.2375C161.523 80.3308 161.925 80.4195 162.475 80.5035C163.091 80.6062 163.595 80.7182 163.987 80.8395C164.379 80.9515 164.72 81.1615 165.009 81.4695C165.299 81.7775 165.443 82.2068 165.443 82.7575C165.443 83.2242 165.303 83.6395 165.023 84.0035C164.743 84.3675 164.333 84.6522 163.791 84.8575C163.259 85.0535 162.625 85.1515 161.887 85.1515ZM166.791 77.5075H168.975V85.0395H166.791V77.5075ZM167.883 76.4575C167.482 76.4575 167.155 76.3408 166.903 76.1075C166.651 75.8742 166.525 75.5848 166.525 75.2395C166.525 74.8942 166.651 74.6048 166.903 74.3715C167.155 74.1382 167.482 74.0215 167.883 74.0215C168.284 74.0215 168.611 74.1335 168.863 74.3575C169.115 74.5815 169.241 74.8615 169.241 75.1975C169.241 75.5615 169.115 75.8648 168.863 76.1075C168.611 76.3408 168.284 76.4575 167.883 76.4575ZM174.586 85.1515C173.793 85.1515 173.079 84.9882 172.444 84.6615C171.819 84.3255 171.329 83.8635 170.974 83.2755C170.619 82.6875 170.442 82.0202 170.442 81.2735C170.442 80.5268 170.619 79.8595 170.974 79.2715C171.329 78.6835 171.819 78.2262 172.444 77.8995C173.079 77.5635 173.793 77.3955 174.586 77.3955C175.379 77.3955 176.089 77.5635 176.714 77.8995C177.339 78.2262 177.829 78.6835 178.184 79.2715C178.539 79.8595 178.716 80.5268 178.716 81.2735C178.716 82.0202 178.539 82.6875 178.184 83.2755C177.829 83.8635 177.339 84.3255 176.714 84.6615C176.089 84.9882 175.379 85.1515 174.586 85.1515ZM174.586 83.3595C175.146 83.3595 175.603 83.1728 175.958 82.7995C176.322 82.4168 176.504 81.9082 176.504 81.2735C176.504 80.6388 176.322 80.1348 175.958 79.7615C175.603 79.3788 175.146 79.1875 174.586 79.1875C174.026 79.1875 173.564 79.3788 173.2 79.7615C172.836 80.1348 172.654 80.6388 172.654 81.2735C172.654 81.9082 172.836 82.4168 173.2 82.7995C173.564 83.1728 174.026 83.3595 174.586 83.3595ZM184.754 77.3955C185.687 77.3955 186.438 77.6755 187.008 78.2355C187.586 78.7955 187.876 79.6262 187.876 80.7275V85.0395H185.692V81.0635C185.692 80.4662 185.561 80.0228 185.3 79.7335C185.038 79.4348 184.66 79.2855 184.166 79.2855C183.615 79.2855 183.176 79.4582 182.85 79.8035C182.523 80.1395 182.36 80.6435 182.36 81.3155V85.0395H180.176V77.5075H182.262V78.3895C182.551 78.0722 182.91 77.8295 183.34 77.6615C183.769 77.4842 184.24 77.3955 184.754 77.3955ZM192.893 77.3955C194.06 77.3955 194.956 77.6755 195.581 78.2355C196.207 78.7862 196.519 79.6215 196.519 80.7415V85.0395H194.475V84.1015C194.065 84.8015 193.299 85.1515 192.179 85.1515C191.601 85.1515 191.097 85.0535 190.667 84.8575C190.247 84.6615 189.925 84.3908 189.701 84.0455C189.477 83.7002 189.365 83.3082 189.365 82.8695C189.365 82.1695 189.627 81.6188 190.149 81.2175C190.681 80.8162 191.498 80.6155 192.599 80.6155H194.335C194.335 80.1395 194.191 79.7755 193.901 79.5235C193.612 79.2622 193.178 79.1315 192.599 79.1315C192.198 79.1315 191.801 79.1968 191.409 79.3275C191.027 79.4488 190.7 79.6168 190.429 79.8315L189.645 78.3055C190.056 78.0162 190.546 77.7922 191.115 77.6335C191.694 77.4748 192.287 77.3955 192.893 77.3955ZM192.725 83.6815C193.099 83.6815 193.43 83.5975 193.719 83.4295C194.009 83.2522 194.214 82.9955 194.335 82.6595V81.8895H192.837C191.941 81.8895 191.493 82.1835 191.493 82.7715C191.493 83.0515 191.601 83.2755 191.815 83.4435C192.039 83.6022 192.343 83.6815 192.725 83.6815ZM200.582 78.5015C200.843 78.1375 201.193 77.8622 201.632 77.6755C202.08 77.4888 202.593 77.3955 203.172 77.3955V79.4115C202.929 79.3928 202.766 79.3835 202.682 79.3835C202.057 79.3835 201.567 79.5608 201.212 79.9155C200.857 80.2608 200.68 80.7835 200.68 81.4835V85.0395H198.496V77.5075H200.582V78.5015ZM212.942 77.3955C213.642 77.3955 214.277 77.5588 214.846 77.8855C215.425 78.2028 215.878 78.6555 216.204 79.2435C216.531 79.8222 216.694 80.4988 216.694 81.2735C216.694 82.0482 216.531 82.7295 216.204 83.3175C215.878 83.8962 215.425 84.3488 214.846 84.6755C214.277 84.9928 213.642 85.1515 212.942 85.1515C211.906 85.1515 211.118 84.8248 210.576 84.1715V85.0395H208.49V74.6515H210.674V78.3055C211.225 77.6988 211.981 77.3955 212.942 77.3955ZM212.564 83.3595C213.124 83.3595 213.582 83.1728 213.936 82.7995C214.3 82.4168 214.482 81.9082 214.482 81.2735C214.482 80.6388 214.3 80.1348 213.936 79.7615C213.582 79.3788 213.124 79.1875 212.564 79.1875C212.004 79.1875 211.542 79.3788 211.178 79.7615C210.824 80.1348 210.646 80.6388 210.646 81.2735C210.646 81.9082 210.824 82.4168 211.178 82.7995C211.542 83.1728 212.004 83.3595 212.564 83.3595ZM221.74 85.1515C220.947 85.1515 220.233 84.9882 219.598 84.6615C218.973 84.3255 218.483 83.8635 218.128 83.2755C217.774 82.6875 217.596 82.0202 217.596 81.2735C217.596 80.5268 217.774 79.8595 218.128 79.2715C218.483 78.6835 218.973 78.2262 219.598 77.8995C220.233 77.5635 220.947 77.3955 221.74 77.3955C222.534 77.3955 223.243 77.5635 223.868 77.8995C224.494 78.2262 224.984 78.6835 225.338 79.2715C225.693 79.8595 225.87 80.5268 225.87 81.2735C225.87 82.0202 225.693 82.6875 225.338 83.2755C224.984 83.8635 224.494 84.3255 223.868 84.6615C223.243 84.9882 222.534 85.1515 221.74 85.1515ZM221.74 83.3595C222.3 83.3595 222.758 83.1728 223.112 82.7995C223.476 82.4168 223.658 81.9082 223.658 81.2735C223.658 80.6388 223.476 80.1348 223.112 79.7615C222.758 79.3788 222.3 79.1875 221.74 79.1875C221.18 79.1875 220.718 79.3788 220.354 79.7615C219.99 80.1348 219.808 80.6388 219.808 81.2735C219.808 81.9082 219.99 82.4168 220.354 82.7995C220.718 83.1728 221.18 83.3595 221.74 83.3595ZM232.188 84.6755C231.973 84.8342 231.707 84.9555 231.39 85.0395C231.082 85.1142 230.755 85.1515 230.41 85.1515C229.514 85.1515 228.819 84.9228 228.324 84.4655C227.839 84.0082 227.596 83.3362 227.596 82.4495V79.3555H226.434V77.6755H227.596V75.8415H229.78V77.6755H231.656V79.3555H229.78V82.4215C229.78 82.7388 229.859 82.9862 230.018 83.1635C230.186 83.3315 230.419 83.4155 230.718 83.4155C231.063 83.4155 231.357 83.3222 231.6 83.1355L232.188 84.6755ZM236.766 85.1515C235.972 85.1515 235.258 84.9882 234.624 84.6615C233.998 84.3255 233.508 83.8635 233.154 83.2755C232.799 82.6875 232.622 82.0202 232.622 81.2735C232.622 80.5268 232.799 79.8595 233.154 79.2715C233.508 78.6835 233.998 78.2262 234.624 77.8995C235.258 77.5635 235.972 77.3955 236.766 77.3955C237.559 77.3955 238.268 77.5635 238.894 77.8995C239.519 78.2262 240.009 78.6835 240.364 79.2715C240.718 79.8595 240.896 80.5268 240.896 81.2735C240.896 82.0202 240.718 82.6875 240.364 83.2755C240.009 83.8635 239.519 84.3255 238.894 84.6615C238.268 84.9882 237.559 85.1515 236.766 85.1515ZM236.766 83.3595C237.326 83.3595 237.783 83.1728 238.138 82.7995C238.502 82.4168 238.684 81.9082 238.684 81.2735C238.684 80.6388 238.502 80.1348 238.138 79.7615C237.783 79.3788 237.326 79.1875 236.766 79.1875C236.206 79.1875 235.744 79.3788 235.38 79.7615C235.016 80.1348 234.834 80.6388 234.834 81.2735C234.834 81.9082 235.016 82.4168 235.38 82.7995C235.744 83.1728 236.206 83.3595 236.766 83.3595ZM237.354 74.5255H239.706L237.172 76.5415H235.464L237.354 74.5255ZM246.933 77.3955C247.867 77.3955 248.618 77.6755 249.187 78.2355C249.766 78.7955 250.055 79.6262 250.055 80.7275V85.0395H247.871V81.0635C247.871 80.4662 247.741 80.0228 247.479 79.7335C247.218 79.4348 246.84 79.2855 246.345 79.2855C245.795 79.2855 245.356 79.4582 245.029 79.8035C244.703 80.1395 244.539 80.6435 244.539 81.3155V85.0395H242.355V77.5075H244.441V78.3895C244.731 78.0722 245.09 77.8295 245.519 77.6615C245.949 77.4842 246.42 77.3955 246.933 77.3955ZM256 77.5075H258.184V85.0395H256V77.5075ZM257.092 76.4575C256.691 76.4575 256.364 76.3408 256.112 76.1075C255.86 75.8742 255.734 75.5848 255.734 75.2395C255.734 74.8942 255.86 74.6048 256.112 74.3715C256.364 74.1382 256.691 74.0215 257.092 74.0215C257.493 74.0215 257.82 74.1335 258.072 74.3575C258.324 74.5815 258.45 74.8615 258.45 75.1975C258.45 75.5615 258.324 75.8648 258.072 76.1075C257.82 76.3408 257.493 76.4575 257.092 76.4575ZM264.789 77.3955C265.722 77.3955 266.474 77.6755 267.043 78.2355C267.622 78.7955 267.911 79.6262 267.911 80.7275V85.0395H265.727V81.0635C265.727 80.4662 265.596 80.0228 265.335 79.7335C265.074 79.4348 264.696 79.2855 264.201 79.2855C263.65 79.2855 263.212 79.4582 262.885 79.8035C262.558 80.1395 262.395 80.6435 262.395 81.3155V85.0395H260.211V77.5075H262.297V78.3895C262.586 78.0722 262.946 77.8295 263.375 77.6615C263.804 77.4842 264.276 77.3955 264.789 77.3955ZM269.891 77.5075H272.075V85.0395H269.891V77.5075ZM270.983 76.4575C270.581 76.4575 270.255 76.3408 270.003 76.1075C269.751 75.8742 269.625 75.5848 269.625 75.2395C269.625 74.8942 269.751 74.6048 270.003 74.3715C270.255 74.1382 270.581 74.0215 270.983 74.0215C271.384 74.0215 271.711 74.1335 271.963 74.3575C272.215 74.5815 272.341 74.8615 272.341 75.1975C272.341 75.5615 272.215 75.8648 271.963 76.1075C271.711 76.3408 271.384 76.4575 270.983 76.4575ZM277.742 85.1515C276.939 85.1515 276.216 84.9882 275.572 84.6615C274.937 84.3255 274.438 83.8635 274.074 83.2755C273.719 82.6875 273.542 82.0202 273.542 81.2735C273.542 80.5268 273.719 79.8595 274.074 79.2715C274.438 78.6835 274.937 78.2262 275.572 77.8995C276.216 77.5635 276.939 77.3955 277.742 77.3955C278.535 77.3955 279.226 77.5635 279.814 77.8995C280.411 78.2262 280.845 78.6975 281.116 79.3135L279.422 80.2235C279.03 79.5328 278.465 79.1875 277.728 79.1875C277.158 79.1875 276.687 79.3742 276.314 79.7475C275.94 80.1208 275.754 80.6295 275.754 81.2735C275.754 81.9175 275.94 82.4262 276.314 82.7995C276.687 83.1728 277.158 83.3595 277.728 83.3595C278.474 83.3595 279.039 83.0142 279.422 82.3235L281.116 83.2475C280.845 83.8448 280.411 84.3115 279.814 84.6475C279.226 84.9835 278.535 85.1515 277.742 85.1515ZM282.373 77.5075H284.557V85.0395H282.373V77.5075ZM283.465 76.4575C283.064 76.4575 282.737 76.3408 282.485 76.1075C282.233 75.8742 282.107 75.5848 282.107 75.2395C282.107 74.8942 282.233 74.6048 282.485 74.3715C282.737 74.1382 283.064 74.0215 283.465 74.0215C283.866 74.0215 284.193 74.1335 284.445 74.3575C284.697 74.5815 284.823 74.8615 284.823 75.1975C284.823 75.5615 284.697 75.8648 284.445 76.1075C284.193 76.3408 283.866 76.4575 283.465 76.4575ZM289.622 77.3955C290.789 77.3955 291.685 77.6755 292.31 78.2355C292.935 78.7862 293.248 79.6215 293.248 80.7415V85.0395H291.204V84.1015C290.793 84.8015 290.028 85.1515 288.908 85.1515C288.329 85.1515 287.825 85.0535 287.396 84.8575C286.976 84.6615 286.654 84.3908 286.43 84.0455C286.206 83.7002 286.094 83.3082 286.094 82.8695C286.094 82.1695 286.355 81.6188 286.878 81.2175C287.41 80.8162 288.227 80.6155 289.328 80.6155H291.064C291.064 80.1395 290.919 79.7755 290.63 79.5235C290.341 79.2622 289.907 79.1315 289.328 79.1315C288.927 79.1315 288.53 79.1968 288.138 79.3275C287.755 79.4488 287.429 79.6168 287.158 79.8315L286.374 78.3055C286.785 78.0162 287.275 77.7922 287.844 77.6335C288.423 77.4748 289.015 77.3955 289.622 77.3955ZM289.454 83.6815C289.827 83.6815 290.159 83.5975 290.448 83.4295C290.737 83.2522 290.943 82.9955 291.064 82.6595V81.8895H289.566C288.67 81.8895 288.222 82.1835 288.222 82.7715C288.222 83.0515 288.329 83.2755 288.544 83.4435C288.768 83.6022 289.071 83.6815 289.454 83.6815ZM297.311 78.5015C297.572 78.1375 297.922 77.8622 298.361 77.6755C298.809 77.4888 299.322 77.3955 299.901 77.3955V79.4115C299.658 79.3928 299.495 79.3835 299.411 79.3835C298.785 79.3835 298.295 79.5608 297.941 79.9155C297.586 80.2608 297.409 80.7835 297.409 81.4835V85.0395H295.225V77.5075H297.311V78.5015ZM301.943 85.1515C301.56 85.1515 301.238 85.0208 300.977 84.7595C300.716 84.4982 300.585 84.1715 300.585 83.7795C300.585 83.3782 300.716 83.0562 300.977 82.8135C301.238 82.5615 301.56 82.4355 301.943 82.4355C302.326 82.4355 302.648 82.5615 302.909 82.8135C303.17 83.0562 303.301 83.3782 303.301 83.7795C303.301 84.1715 303.17 84.4982 302.909 84.7595C302.648 85.0208 302.326 85.1515 301.943 85.1515Z" fill="#333333"/>
<path fill-rule="evenodd" clip-rule="evenodd" d="M329.266 120.656C329.266 115.707 327.338 110.96 323.906 107.46C320.473 103.961 315.818 101.995 310.965 101.995C265.968 101.995 168.214 102 168.214 102L160.166 109.448H132.345L124.291 102H98.6697C93.8159 102 89.1609 103.966 85.7288 107.466C82.2966 110.965 80.3684 115.712 80.3684 120.661C80.3684 120.666 80.3684 120.672 80.3684 120.678C80.3684 125.627 82.2966 130.373 85.7288 133.873C89.1609 137.373 93.8159 139.339 98.6697 139.339C110.724 139.339 124.291 139.339 124.291 139.339L132.345 146.787H160.161L168.214 139.339L310.965 139.334C315.818 139.334 320.473 137.367 323.906 133.868C327.338 130.368 329.266 125.622 329.266 120.672C329.266 120.667 329.266 120.661 329.266 120.656Z" fill="#30DCFF"/>
<path fill-rule="evenodd" clip-rule="evenodd" d="M329.266 120.662C329.266 115.712 327.338 110.966 323.906 107.466C320.473 103.967 315.818 102.001 310.965 102.001C265.968 102.001 168.214 102.001 168.214 102.001L160.166 109.448H132.345L124.291 102.001H98.6697C93.8159 102.001 89.1609 103.967 85.7288 107.466C82.2966 110.966 80.3684 115.712 80.3684 120.662C80.3684 120.667 80.3684 120.67 80.3684 120.67H84.7607C84.7607 112.6 91.1768 106.057 99.0914 106.057C109.763 106.057 122.494 106.057 122.494 106.057L130.548 113.505H161.991L170.045 106.057H310.543C318.458 106.057 324.874 112.6 324.874 120.67L329.266 120.67V120.662Z" fill="#93EDFF"/>
<path fill-rule="evenodd" clip-rule="evenodd" d="M329.266 120.665H324.873V120.666C324.873 124.54 323.364 128.256 320.678 130.995C317.991 133.734 314.348 135.273 310.549 135.273C269.062 135.273 166.395 135.273 166.395 135.273L158.341 142.721H134.165L126.111 135.273H99.0856C91.1742 135.273 84.7607 128.733 84.7607 120.666V120.665H80.3684V120.673C80.3684 125.623 82.2966 130.369 85.7288 133.869C89.1609 137.369 93.8159 139.335 98.6697 139.335C110.724 139.335 124.291 139.335 124.291 139.335L132.345 146.783H160.161L168.214 139.335H310.964C321.072 139.335 329.265 130.98 329.266 120.674C329.266 120.668 329.266 120.665 329.266 120.665Z" fill="#08A0BF"/>
<path d="M106.573 129.279L106.557 122.559L103.261 128.095H102.093L98.8127 122.703V129.279H96.3807V118.079H98.5247L102.717 125.039L106.845 118.079H108.973L109.005 129.279H106.573ZM120.158 120.671V129.279H117.79V128.255C117.459 128.628 117.065 128.916 116.606 129.119C116.147 129.311 115.651 129.407 115.118 129.407C113.987 129.407 113.091 129.082 112.43 128.431C111.769 127.78 111.438 126.815 111.438 125.535V120.671H113.934V125.167C113.934 126.554 114.515 127.247 115.678 127.247C116.275 127.247 116.755 127.055 117.118 126.671C117.481 126.276 117.662 125.695 117.662 124.927V120.671H120.158ZM122.47 117.407H124.966V129.279H122.47V117.407ZM133.46 128.863C133.215 129.044 132.911 129.183 132.548 129.279C132.196 129.364 131.823 129.407 131.428 129.407C130.404 129.407 129.609 129.146 129.044 128.623C128.489 128.1 128.212 127.332 128.212 126.319V122.783H126.884V120.863H128.212V118.767H130.708V120.863H132.852V122.783H130.708V126.287C130.708 126.65 130.799 126.932 130.98 127.135C131.172 127.327 131.439 127.423 131.78 127.423C132.175 127.423 132.511 127.316 132.788 127.103L133.46 128.863ZM134.861 120.671H137.357V129.279H134.861V120.671ZM136.109 119.471C135.65 119.471 135.277 119.338 134.989 119.071C134.701 118.804 134.557 118.474 134.557 118.079C134.557 117.684 134.701 117.354 134.989 117.087C135.277 116.82 135.65 116.687 136.109 116.687C136.568 116.687 136.941 116.815 137.229 117.071C137.517 117.327 137.661 117.647 137.661 118.031C137.661 118.447 137.517 118.794 137.229 119.071C136.941 119.338 136.568 119.471 136.109 119.471ZM144.761 120.543C145.561 120.543 146.287 120.73 146.937 121.103C147.599 121.466 148.116 121.983 148.489 122.655C148.863 123.316 149.049 124.09 149.049 124.975C149.049 125.86 148.863 126.639 148.489 127.311C148.116 127.972 147.599 128.49 146.937 128.863C146.287 129.226 145.561 129.407 144.761 129.407C143.663 129.407 142.799 129.06 142.169 128.367V132.383H139.673V120.671H142.057V121.663C142.676 120.916 143.577 120.543 144.761 120.543ZM144.329 127.359C144.969 127.359 145.492 127.146 145.897 126.719C146.313 126.282 146.521 125.7 146.521 124.975C146.521 124.25 146.313 123.674 145.897 123.247C145.492 122.81 144.969 122.591 144.329 122.591C143.689 122.591 143.161 122.81 142.745 123.247C142.34 123.674 142.137 124.25 142.137 124.975C142.137 125.7 142.34 126.282 142.745 126.719C143.161 127.146 143.689 127.359 144.329 127.359ZM150.72 117.407H153.216V129.279H150.72V117.407ZM155.533 120.671H158.029V129.279H155.533V120.671ZM156.781 119.471C156.322 119.471 155.949 119.338 155.661 119.071C155.373 118.804 155.229 118.474 155.229 118.079C155.229 117.684 155.373 117.354 155.661 117.087C155.949 116.82 156.322 116.687 156.781 116.687C157.24 116.687 157.613 116.815 157.901 117.071C158.189 117.327 158.333 117.647 158.333 118.031C158.333 118.447 158.189 118.794 157.901 119.071C157.613 119.338 157.24 119.471 156.781 119.471ZM164.505 129.407C163.588 129.407 162.761 129.22 162.025 128.847C161.3 128.463 160.729 127.935 160.313 127.263C159.908 126.591 159.705 125.828 159.705 124.975C159.705 124.122 159.908 123.359 160.313 122.687C160.729 122.015 161.3 121.492 162.025 121.119C162.761 120.735 163.588 120.543 164.505 120.543C165.412 120.543 166.201 120.735 166.873 121.119C167.556 121.492 168.052 122.031 168.361 122.735L166.425 123.775C165.977 122.986 165.332 122.591 164.489 122.591C163.839 122.591 163.3 122.804 162.873 123.231C162.447 123.658 162.233 124.239 162.233 124.975C162.233 125.711 162.447 126.292 162.873 126.719C163.3 127.146 163.839 127.359 164.489 127.359C165.343 127.359 165.988 126.964 166.425 126.175L168.361 127.231C168.052 127.914 167.556 128.447 166.873 128.831C166.201 129.215 165.412 129.407 164.505 129.407ZM173.27 120.543C174.604 120.543 175.628 120.863 176.342 121.503C177.057 122.132 177.414 123.087 177.414 124.367V129.279H175.078V128.207C174.609 129.007 173.734 129.407 172.454 129.407C171.793 129.407 171.217 129.295 170.726 129.071C170.246 128.847 169.878 128.538 169.622 128.143C169.366 127.748 169.238 127.3 169.238 126.799C169.238 125.999 169.537 125.37 170.134 124.911C170.742 124.452 171.676 124.223 172.934 124.223H174.918C174.918 123.679 174.753 123.263 174.422 122.975C174.092 122.676 173.596 122.527 172.934 122.527C172.476 122.527 172.022 122.602 171.574 122.751C171.137 122.89 170.764 123.082 170.454 123.327L169.558 121.583C170.028 121.252 170.588 120.996 171.238 120.815C171.9 120.634 172.577 120.543 173.27 120.543ZM173.078 127.727C173.505 127.727 173.884 127.631 174.214 127.439C174.545 127.236 174.78 126.943 174.918 126.559V125.679H173.206C172.182 125.679 171.67 126.015 171.67 126.687C171.67 127.007 171.793 127.263 172.038 127.455C172.294 127.636 172.641 127.727 173.078 127.727ZM182.057 121.807C182.356 121.391 182.756 121.076 183.257 120.863C183.769 120.65 184.356 120.543 185.017 120.543V122.847C184.74 122.826 184.553 122.815 184.457 122.815C183.743 122.815 183.183 123.018 182.777 123.423C182.372 123.818 182.169 124.415 182.169 125.215V129.279H179.673V120.671H182.057V121.807ZM196.183 120.543C196.983 120.543 197.709 120.73 198.359 121.103C199.021 121.466 199.538 121.983 199.911 122.655C200.285 123.316 200.471 124.09 200.471 124.975C200.471 125.86 200.285 126.639 199.911 127.311C199.538 127.972 199.021 128.49 198.359 128.863C197.709 129.226 196.983 129.407 196.183 129.407C195.085 129.407 194.221 129.06 193.591 128.367V132.383H191.095V120.671H193.479V121.663C194.098 120.916 194.999 120.543 196.183 120.543ZM195.751 127.359C196.391 127.359 196.914 127.146 197.319 126.719C197.735 126.282 197.943 125.7 197.943 124.975C197.943 124.25 197.735 123.674 197.319 123.247C196.914 122.81 196.391 122.591 195.751 122.591C195.111 122.591 194.583 122.81 194.167 123.247C193.762 123.674 193.559 124.25 193.559 124.975C193.559 125.7 193.762 126.282 194.167 126.719C194.583 127.146 195.111 127.359 195.751 127.359ZM206.238 129.407C205.332 129.407 204.516 129.22 203.79 128.847C203.076 128.463 202.516 127.935 202.11 127.263C201.705 126.591 201.502 125.828 201.502 124.975C201.502 124.122 201.705 123.359 202.11 122.687C202.516 122.015 203.076 121.492 203.79 121.119C204.516 120.735 205.332 120.543 206.238 120.543C207.145 120.543 207.956 120.735 208.67 121.119C209.385 121.492 209.945 122.015 210.35 122.687C210.756 123.359 210.958 124.122 210.958 124.975C210.958 125.828 210.756 126.591 210.35 127.263C209.945 127.935 209.385 128.463 208.67 128.847C207.956 129.22 207.145 129.407 206.238 129.407ZM206.238 127.359C206.878 127.359 207.401 127.146 207.806 126.719C208.222 126.282 208.43 125.7 208.43 124.975C208.43 124.25 208.222 123.674 207.806 123.247C207.401 122.81 206.878 122.591 206.238 122.591C205.598 122.591 205.07 122.81 204.654 123.247C204.238 123.674 204.03 124.25 204.03 124.975C204.03 125.7 204.238 126.282 204.654 126.719C205.07 127.146 205.598 127.359 206.238 127.359ZM215.011 121.807C215.309 121.391 215.709 121.076 216.211 120.863C216.723 120.65 217.309 120.543 217.971 120.543V122.847C217.693 122.826 217.507 122.815 217.411 122.815C216.696 122.815 216.136 123.018 215.731 123.423C215.325 123.818 215.123 124.415 215.123 125.215V129.279H212.627V120.671H215.011V121.807ZM227.84 118.079V129.279H225.248V120.159H223.008V118.079H227.84ZM233.722 117.887C235.29 117.887 236.517 118.367 237.402 119.327C238.287 120.276 238.73 121.647 238.73 123.439C238.73 124.708 238.49 125.796 238.01 126.703C237.541 127.61 236.874 128.298 236.01 128.767C235.146 129.236 234.149 129.471 233.018 129.471C232.421 129.471 231.85 129.407 231.306 129.279C230.762 129.14 230.298 128.948 229.914 128.703L230.874 126.799C231.418 127.172 232.117 127.359 232.97 127.359C233.919 127.359 234.671 127.082 235.226 126.527C235.781 125.962 236.079 125.151 236.122 124.095C235.45 124.767 234.522 125.103 233.338 125.103C232.623 125.103 231.973 124.959 231.386 124.671C230.799 124.383 230.335 123.978 229.994 123.455C229.653 122.922 229.482 122.308 229.482 121.615C229.482 120.868 229.669 120.212 230.042 119.647C230.415 119.082 230.922 118.65 231.562 118.351C232.213 118.042 232.933 117.887 233.722 117.887ZM233.914 123.167C234.479 123.167 234.938 123.012 235.29 122.703C235.653 122.383 235.834 121.978 235.834 121.487C235.834 120.996 235.658 120.596 235.306 120.287C234.965 119.978 234.49 119.823 233.882 119.823C233.327 119.823 232.874 119.972 232.522 120.271C232.181 120.57 232.01 120.975 232.01 121.487C232.01 121.999 232.181 122.41 232.522 122.719C232.874 123.018 233.338 123.167 233.914 123.167Z" fill="#333333"/>
<path fill-rule="evenodd" clip-rule="evenodd" d="M329.266 157.656C329.266 152.707 327.338 147.96 323.906 144.46C320.473 140.961 315.818 138.995 310.965 138.995C265.968 138.995 168.214 139 168.214 139L160.166 146.448H132.345L124.291 139H98.6697C93.8159 139 89.1609 140.966 85.7288 144.466C82.2966 147.965 80.3684 152.712 80.3684 157.661C80.3684 157.666 80.3684 157.672 80.3684 157.678C80.3684 162.627 82.2966 167.373 85.7288 170.873C89.1609 174.373 93.8159 176.339 98.6697 176.339C110.724 176.339 124.291 176.339 124.291 176.339L132.345 183.787H160.161L168.214 176.339L310.965 176.334C315.818 176.334 320.473 174.367 323.906 170.868C327.338 167.368 329.266 162.622 329.266 157.672C329.266 157.667 329.266 157.661 329.266 157.656Z" fill="#30DCFF"/>
<path fill-rule="evenodd" clip-rule="evenodd" d="M329.266 157.662C329.266 152.712 327.338 147.966 323.906 144.466C320.473 140.967 315.818 139.001 310.965 139.001C265.968 139.001 168.214 139.001 168.214 139.001L160.166 146.448H132.345L124.291 139.001H98.6697C93.8159 139.001 89.1609 140.967 85.7288 144.466C82.2966 147.966 80.3684 152.712 80.3684 157.662C80.3684 157.667 80.3684 157.67 80.3684 157.67H84.7607C84.7607 149.6 91.1768 143.057 99.0914 143.057C109.763 143.057 122.494 143.057 122.494 143.057L130.548 150.505H161.991L170.045 143.057H310.543C318.458 143.057 324.874 149.6 324.874 157.67L329.266 157.67V157.662Z" fill="#93EDFF"/>
<path fill-rule="evenodd" clip-rule="evenodd" d="M329.266 157.665H324.873V157.666C324.873 161.54 323.364 165.256 320.678 167.995C317.991 170.734 314.348 172.273 310.549 172.273C269.062 172.273 166.395 172.273 166.395 172.273L158.341 179.721H134.165L126.111 172.273H99.0856C91.1742 172.273 84.7607 165.733 84.7607 157.666V157.665H80.3684V157.673C80.3684 162.623 82.2966 167.369 85.7288 170.869C89.1609 174.369 93.8159 176.335 98.6697 176.335C110.724 176.335 124.291 176.335 124.291 176.335L132.345 183.783H160.161L168.214 176.335H310.964C321.072 176.335 329.265 167.98 329.266 157.674C329.266 157.668 329.266 157.665 329.266 157.665Z" fill="#08A0BF"/>
<path d="M96.3807 155.079H101.469C102.685 155.079 103.757 155.314 104.685 155.783C105.623 156.242 106.349 156.892 106.861 157.735C107.383 158.578 107.645 159.559 107.645 160.679C107.645 161.799 107.383 162.78 106.861 163.623C106.349 164.466 105.623 165.122 104.685 165.591C103.757 166.05 102.685 166.279 101.469 166.279H96.3807V155.079ZM101.341 164.151C102.461 164.151 103.351 163.842 104.013 163.223C104.685 162.594 105.021 161.746 105.021 160.679C105.021 159.612 104.685 158.77 104.013 158.151C103.351 157.522 102.461 157.207 101.341 157.207H98.9727V164.151H101.341ZM109.423 157.671H111.919V166.279H109.423V157.671ZM110.671 156.471C110.213 156.471 109.839 156.338 109.551 156.071C109.263 155.804 109.119 155.474 109.119 155.079C109.119 154.684 109.263 154.354 109.551 154.087C109.839 153.82 110.213 153.687 110.671 153.687C111.13 153.687 111.503 153.815 111.791 154.071C112.079 154.327 112.223 154.647 112.223 155.031C112.223 155.447 112.079 155.794 111.791 156.071C111.503 156.338 111.13 156.471 110.671 156.471ZM122.78 157.671L119.148 166.279H116.572L112.956 157.671H115.532L117.916 163.527L120.38 157.671H122.78ZM123.798 157.671H126.294V166.279H123.798V157.671ZM125.046 156.471C124.588 156.471 124.214 156.338 123.926 156.071C123.638 155.804 123.494 155.474 123.494 155.079C123.494 154.684 123.638 154.354 123.926 154.087C124.214 153.82 124.588 153.687 125.046 153.687C125.505 153.687 125.878 153.815 126.166 154.071C126.454 154.327 126.598 154.647 126.598 155.031C126.598 155.447 126.454 155.794 126.166 156.071C125.878 156.338 125.505 156.471 125.046 156.471ZM137.379 154.407V166.279H134.995V165.287C134.376 166.034 133.48 166.407 132.307 166.407C131.496 166.407 130.76 166.226 130.099 165.863C129.448 165.5 128.936 164.983 128.563 164.311C128.19 163.639 128.003 162.86 128.003 161.975C128.003 161.09 128.19 160.311 128.563 159.639C128.936 158.967 129.448 158.45 130.099 158.087C130.76 157.724 131.496 157.543 132.307 157.543C133.406 157.543 134.264 157.89 134.883 158.583V154.407H137.379ZM132.739 164.359C133.368 164.359 133.891 164.146 134.307 163.719C134.723 163.282 134.931 162.7 134.931 161.975C134.931 161.25 134.723 160.674 134.307 160.247C133.891 159.81 133.368 159.591 132.739 159.591C132.099 159.591 131.571 159.81 131.155 160.247C130.739 160.674 130.531 161.25 130.531 161.975C130.531 162.7 130.739 163.282 131.155 163.719C131.571 164.146 132.099 164.359 132.739 164.359ZM139.689 157.671H142.185V166.279H139.689V157.671ZM140.937 156.471C140.478 156.471 140.105 156.338 139.817 156.071C139.529 155.804 139.385 155.474 139.385 155.079C139.385 154.684 139.529 154.354 139.817 154.087C140.105 153.82 140.478 153.687 140.937 153.687C141.396 153.687 141.769 153.815 142.057 154.071C142.345 154.327 142.489 154.647 142.489 155.031C142.489 155.447 142.345 155.794 142.057 156.071C141.769 156.338 141.396 156.471 140.937 156.471ZM146.886 158.807C147.184 158.391 147.584 158.076 148.086 157.863C148.598 157.65 149.184 157.543 149.846 157.543V159.847C149.568 159.826 149.382 159.815 149.286 159.815C148.571 159.815 148.011 160.018 147.606 160.423C147.2 160.818 146.998 161.415 146.998 162.215V166.279H144.502V157.671H146.886V158.807ZM161.011 157.543C161.811 157.543 162.537 157.73 163.187 158.103C163.849 158.466 164.366 158.983 164.739 159.655C165.113 160.316 165.299 161.09 165.299 161.975C165.299 162.86 165.113 163.639 164.739 164.311C164.366 164.972 163.849 165.49 163.187 165.863C162.537 166.226 161.811 166.407 161.011 166.407C159.913 166.407 159.049 166.06 158.419 165.367V169.383H155.923V157.671H158.307V158.663C158.926 157.916 159.827 157.543 161.011 157.543ZM160.579 164.359C161.219 164.359 161.742 164.146 162.147 163.719C162.563 163.282 162.771 162.7 162.771 161.975C162.771 161.25 162.563 160.674 162.147 160.247C161.742 159.81 161.219 159.591 160.579 159.591C159.939 159.591 159.411 159.81 158.995 160.247C158.59 160.674 158.387 161.25 158.387 161.975C158.387 162.7 158.59 163.282 158.995 163.719C159.411 164.146 159.939 164.359 160.579 164.359ZM171.066 166.407C170.16 166.407 169.344 166.22 168.618 165.847C167.904 165.463 167.344 164.935 166.938 164.263C166.533 163.591 166.33 162.828 166.33 161.975C166.33 161.122 166.533 160.359 166.938 159.687C167.344 159.015 167.904 158.492 168.618 158.119C169.344 157.735 170.16 157.543 171.066 157.543C171.973 157.543 172.784 157.735 173.498 158.119C174.213 158.492 174.773 159.015 175.178 159.687C175.584 160.359 175.786 161.122 175.786 161.975C175.786 162.828 175.584 163.591 175.178 164.263C174.773 164.935 174.213 165.463 173.498 165.847C172.784 166.22 171.973 166.407 171.066 166.407ZM171.066 164.359C171.706 164.359 172.229 164.146 172.634 163.719C173.05 163.282 173.258 162.7 173.258 161.975C173.258 161.25 173.05 160.674 172.634 160.247C172.229 159.81 171.706 159.591 171.066 159.591C170.426 159.591 169.898 159.81 169.482 160.247C169.066 160.674 168.858 161.25 168.858 161.975C168.858 162.7 169.066 163.282 169.482 163.719C169.898 164.146 170.426 164.359 171.066 164.359ZM179.839 158.807C180.137 158.391 180.537 158.076 181.039 157.863C181.551 157.65 182.137 157.543 182.799 157.543V159.847C182.521 159.826 182.335 159.815 182.239 159.815C181.524 159.815 180.964 160.018 180.559 160.423C180.153 160.818 179.951 161.415 179.951 162.215V166.279H177.455V157.671H179.839V158.807ZM192.669 155.079V166.279H190.077V157.159H187.837V155.079H192.669ZM199.414 166.471C198.486 166.471 197.66 166.242 196.934 165.783C196.209 165.324 195.638 164.663 195.222 163.799C194.817 162.924 194.614 161.884 194.614 160.679C194.614 159.474 194.817 158.439 195.222 157.575C195.638 156.7 196.209 156.034 196.934 155.575C197.66 155.116 198.486 154.887 199.414 154.887C200.342 154.887 201.169 155.116 201.894 155.575C202.62 156.034 203.185 156.7 203.59 157.575C204.006 158.439 204.214 159.474 204.214 160.679C204.214 161.884 204.006 162.924 203.59 163.799C203.185 164.663 202.62 165.324 201.894 165.783C201.169 166.242 200.342 166.471 199.414 166.471ZM199.414 164.279C200.097 164.279 200.63 163.986 201.014 163.399C201.409 162.812 201.606 161.906 201.606 160.679C201.606 159.452 201.409 158.546 201.014 157.959C200.63 157.372 200.097 157.079 199.414 157.079C198.742 157.079 198.209 157.372 197.814 157.959C197.43 158.546 197.238 159.452 197.238 160.679C197.238 161.906 197.43 162.812 197.814 163.399C198.209 163.986 198.742 164.279 199.414 164.279ZM210.274 166.471C209.346 166.471 208.519 166.242 207.794 165.783C207.068 165.324 206.498 164.663 206.082 163.799C205.676 162.924 205.474 161.884 205.474 160.679C205.474 159.474 205.676 158.439 206.082 157.575C206.498 156.7 207.068 156.034 207.794 155.575C208.519 155.116 209.346 154.887 210.274 154.887C211.202 154.887 212.028 155.116 212.754 155.575C213.479 156.034 214.044 156.7 214.45 157.575C214.866 158.439 215.074 159.474 215.074 160.679C215.074 161.884 214.866 162.924 214.45 163.799C214.044 164.663 213.479 165.324 212.754 165.783C212.028 166.242 211.202 166.471 210.274 166.471ZM210.274 164.279C210.956 164.279 211.49 163.986 211.874 163.399C212.268 162.812 212.466 161.906 212.466 160.679C212.466 159.452 212.268 158.546 211.874 157.959C211.49 157.372 210.956 157.079 210.274 157.079C209.602 157.079 209.068 157.372 208.674 157.959C208.29 158.546 208.098 159.452 208.098 160.679C208.098 161.906 208.29 162.812 208.674 163.399C209.068 163.986 209.602 164.279 210.274 164.279Z" fill="#333333"/>
</g>
<defs>
<filter id="filter0_d_3353:107749" x="0" y="0" width="380" height="224" filterUnits="userSpaceOnUse" color-interpolation-filters="sRGB">
<feFlood flood-opacity="0" result="BackgroundImageFix"/>
<feColorMatrix in="SourceAlpha" type="matrix" values="0 0 0 0 0 0 0 0 0 0 0 0 0 0 0 0 0 0 127 0" result="hardAlpha"/>
<feOffset dy="4"/>
<feColorMatrix type="matrix" values="0 0 0 0 0 0 0 0 0 0 0 0 0 0 0 0 0 0 0.25 0"/>
<feBlend mode="normal" in2="BackgroundImageFix" result="effect1_dropShadow_3353:107749"/>
<feBlend mode="normal" in="SourceGraphic" in2="effect1_dropShadow_3353:107749" result="shape"/>
</filter>
</defs>
</svg>
