<svg width="380" height="224" viewBox="0 0 380 224" fill="none" xmlns="http://www.w3.org/2000/svg">
<g>
<g clip-path="url(#clip0_2878:99251)">
<rect width="380" height="220" rx="20" fill="#F2F2F2"/>
<path fill-rule="evenodd" clip-rule="evenodd" d="M330 78.6125C330 68.5789 321.783 60.4453 311.649 60.4453C279.567 60.4453 229.135 60.4453 206.114 60.4453C201.415 60.4451 196.896 58.6607 193.486 55.4597C185.846 48.2988 166.561 36 124.406 36C64.9744 36 51 60.4453 51 60.4453C51 60.4453 51.0004 72.2977 51.0005 83.2535C51.0007 93.2873 59.217 101.421 69.3522 101.421C91.0945 101.421 124.406 101.421 124.406 101.421L132.482 108.672H160.379L168.45 101.421C168.45 101.421 266.527 101.421 311.649 101.421C316.516 101.421 321.184 99.5069 324.626 96.0996C328.067 92.6922 330.001 88.0708 330 83.2523C330 81.7115 330 80.1531 330 78.6125Z" fill="#FC79FF"/>
<path fill-rule="evenodd" clip-rule="evenodd" d="M330 80.5774H325.596V81.3467C325.596 85.5184 323.922 89.5191 320.942 92.4689C317.962 95.4188 313.921 97.0759 309.707 97.0759H166.625L158.555 104.327H134.306L126.23 97.0759C126.23 97.0759 92.1738 97.0759 71.2924 97.0759C67.0786 97.0759 63.0375 95.4188 60.0579 92.4689C57.0784 89.5191 55.4044 85.5184 55.4044 81.3467V80.5774H51V83.2817C51 88.1 52.9335 92.7213 56.3751 96.1285C59.8167 99.5356 64.4845 101.45 69.3517 101.45C91.0943 101.45 124.406 101.45 124.406 101.45L132.482 108.701H160.379L168.45 101.45H311.648C321.783 101.45 330 93.3159 330 83.282C330 81.6384 330 80.5774 330 80.5774Z" fill="#CD5ACF"/>
<path fill-rule="evenodd" clip-rule="evenodd" d="M51 80.5489H55.4044V62.6323C55.4044 62.6323 67.4088 40.3738 124.389 40.3738C163.084 40.3738 182.435 51.71 190.611 58.5825C194.552 61.8976 199.545 63.7354 204.716 63.7748C228.728 63.9695 279.378 64.4669 309.709 64.698C318.503 64.765 325.596 71.8415 325.596 80.5475V80.5489H330V78.6134C330 68.5794 321.784 60.4453 311.648 60.4453C279.572 60.4453 229.158 60.4453 206.126 60.4453C201.423 60.4451 196.899 58.6574 193.489 55.451C185.859 48.2888 166.593 36 124.406 36C64.9055 36 51.0005 60.4453 51.0005 60.4453L51 80.5489Z" fill="#FDACFF"/>
<path d="M75.2072 85.2075C74.2086 85.2075 73.3032 84.9928 72.4912 84.5635C71.6886 84.1248 71.0539 83.5228 70.5872 82.7575C70.1299 81.9828 69.9012 81.1102 69.9012 80.1395C69.9012 79.1688 70.1299 78.3008 70.5872 77.5355C71.0539 76.7608 71.6886 76.1588 72.4912 75.7295C73.3032 75.2908 74.2132 75.0715 75.2212 75.0715C76.0706 75.0715 76.8359 75.2208 77.5172 75.5195C78.2079 75.8182 78.7866 76.2475 79.2532 76.8075L77.7972 78.1515C77.1346 77.3862 76.3132 77.0035 75.3332 77.0035C74.7266 77.0035 74.1852 77.1388 73.7092 77.4095C73.2332 77.6708 72.8599 78.0395 72.5892 78.5155C72.3279 78.9915 72.1972 79.5328 72.1972 80.1395C72.1972 80.7462 72.3279 81.2875 72.5892 81.7635C72.8599 82.2395 73.2332 82.6128 73.7092 82.8835C74.1852 83.1448 74.7266 83.2755 75.3332 83.2755C76.3132 83.2755 77.1346 82.8882 77.7972 82.1135L79.2532 83.4575C78.7866 84.0268 78.2079 84.4608 77.5172 84.7595C76.8266 85.0582 76.0566 85.2075 75.2072 85.2075ZM88.0274 77.5075V85.0395H85.9554V84.1435C85.6661 84.4702 85.3207 84.7222 84.9194 84.8995C84.5181 85.0675 84.0841 85.1515 83.6174 85.1515C82.6281 85.1515 81.8441 84.8668 81.2654 84.2975C80.6867 83.7282 80.3974 82.8835 80.3974 81.7635V77.5075H82.5814V81.4415C82.5814 82.6548 83.0901 83.2615 84.1074 83.2615C84.6301 83.2615 85.0501 83.0935 85.3674 82.7575C85.6847 82.4122 85.8434 81.9035 85.8434 81.2315V77.5075H88.0274ZM93.0887 77.3955C94.2554 77.3955 95.1514 77.6755 95.7767 78.2355C96.4021 78.7862 96.7147 79.6215 96.7147 80.7415V85.0395H94.6707V84.1015C94.2601 84.8015 93.4947 85.1515 92.3747 85.1515C91.7961 85.1515 91.2921 85.0535 90.8627 84.8575C90.4427 84.6615 90.1207 84.3908 89.8967 84.0455C89.6727 83.7002 89.5607 83.3082 89.5607 82.8695C89.5607 82.1695 89.8221 81.6188 90.3447 81.2175C90.8767 80.8162 91.6934 80.6155 92.7947 80.6155H94.5307C94.5307 80.1395 94.3861 79.7755 94.0967 79.5235C93.8074 79.2622 93.3734 79.1315 92.7947 79.1315C92.3934 79.1315 91.9967 79.1968 91.6047 79.3275C91.2221 79.4488 90.8954 79.6168 90.6247 79.8315L89.8407 78.3055C90.2514 78.0162 90.7414 77.7922 91.3107 77.6335C91.8894 77.4748 92.4821 77.3955 93.0887 77.3955ZM92.9207 83.6815C93.2941 83.6815 93.6254 83.5975 93.9147 83.4295C94.2041 83.2522 94.4094 82.9955 94.5307 82.6595V81.8895H93.0327C92.1367 81.8895 91.6887 82.1835 91.6887 82.7715C91.6887 83.0515 91.7961 83.2755 92.0107 83.4435C92.2347 83.6022 92.5381 83.6815 92.9207 83.6815ZM103.269 77.3955C104.203 77.3955 104.954 77.6755 105.523 78.2355C106.102 78.7955 106.391 79.6262 106.391 80.7275V85.0395H104.207V81.0635C104.207 80.4662 104.077 80.0228 103.815 79.7335C103.554 79.4348 103.176 79.2855 102.681 79.2855C102.131 79.2855 101.692 79.4582 101.365 79.8035C101.039 80.1395 100.875 80.6435 100.875 81.3155V85.0395H98.6913V77.5075H100.777V78.3895C101.067 78.0722 101.426 77.8295 101.855 77.6615C102.285 77.4842 102.756 77.3955 103.269 77.3955ZM116.125 74.6515V85.0395H114.039V84.1715C113.498 84.8248 112.714 85.1515 111.687 85.1515C110.978 85.1515 110.334 84.9928 109.755 84.6755C109.186 84.3582 108.738 83.9055 108.411 83.3175C108.084 82.7295 107.921 82.0482 107.921 81.2735C107.921 80.4988 108.084 79.8175 108.411 79.2295C108.738 78.6415 109.186 78.1888 109.755 77.8715C110.334 77.5542 110.978 77.3955 111.687 77.3955C112.648 77.3955 113.4 77.6988 113.941 78.3055V74.6515H116.125ZM112.065 83.3595C112.616 83.3595 113.073 83.1728 113.437 82.7995C113.801 82.4168 113.983 81.9082 113.983 81.2735C113.983 80.6388 113.801 80.1348 113.437 79.7615C113.073 79.3788 112.616 79.1875 112.065 79.1875C111.505 79.1875 111.043 79.3788 110.679 79.7615C110.315 80.1348 110.133 80.6388 110.133 81.2735C110.133 81.9082 110.315 82.4168 110.679 82.7995C111.043 83.1728 111.505 83.3595 112.065 83.3595ZM121.73 85.1515C120.937 85.1515 120.223 84.9882 119.588 84.6615C118.963 84.3255 118.473 83.8635 118.118 83.2755C117.764 82.6875 117.586 82.0202 117.586 81.2735C117.586 80.5268 117.764 79.8595 118.118 79.2715C118.473 78.6835 118.963 78.2262 119.588 77.8995C120.223 77.5635 120.937 77.3955 121.73 77.3955C122.524 77.3955 123.233 77.5635 123.858 77.8995C124.484 78.2262 124.974 78.6835 125.328 79.2715C125.683 79.8595 125.86 80.5268 125.86 81.2735C125.86 82.0202 125.683 82.6875 125.328 83.2755C124.974 83.8635 124.484 84.3255 123.858 84.6615C123.233 84.9882 122.524 85.1515 121.73 85.1515ZM121.73 83.3595C122.29 83.3595 122.748 83.1728 123.102 82.7995C123.466 82.4168 123.648 81.9082 123.648 81.2735C123.648 80.6388 123.466 80.1348 123.102 79.7615C122.748 79.3788 122.29 79.1875 121.73 79.1875C121.17 79.1875 120.708 79.3788 120.344 79.7615C119.98 80.1348 119.798 80.6388 119.798 81.2735C119.798 81.9082 119.98 82.4168 120.344 82.7995C120.708 83.1728 121.17 83.3595 121.73 83.3595ZM128.146 80.1255C127.764 80.1255 127.442 79.9948 127.18 79.7335C126.919 79.4722 126.788 79.1455 126.788 78.7535C126.788 78.3522 126.919 78.0302 127.18 77.7875C127.442 77.5355 127.764 77.4095 128.146 77.4095C128.529 77.4095 128.851 77.5355 129.112 77.7875C129.374 78.0302 129.504 78.3522 129.504 78.7535C129.504 79.1455 129.374 79.4722 129.112 79.7335C128.851 79.9948 128.529 80.1255 128.146 80.1255ZM128.146 85.1515C127.764 85.1515 127.442 85.0208 127.18 84.7595C126.919 84.4982 126.788 84.1715 126.788 83.7795C126.788 83.3782 126.919 83.0562 127.18 82.8135C127.442 82.5615 127.764 82.4355 128.146 82.4355C128.529 82.4355 128.851 82.5615 129.112 82.8135C129.374 83.0562 129.504 83.3782 129.504 83.7795C129.504 84.1715 129.374 84.4982 129.112 84.7595C128.851 85.0208 128.529 85.1515 128.146 85.1515ZM139.401 77.3955C140.101 77.3955 140.736 77.5588 141.305 77.8855C141.884 78.2028 142.336 78.6555 142.663 79.2435C142.99 79.8222 143.153 80.4988 143.153 81.2735C143.153 82.0482 142.99 82.7295 142.663 83.3175C142.336 83.8962 141.884 84.3488 141.305 84.6755C140.736 84.9928 140.101 85.1515 139.401 85.1515C138.44 85.1515 137.684 84.8482 137.133 84.2415V87.7555H134.949V77.5075H137.035V78.3755C137.576 77.7222 138.365 77.3955 139.401 77.3955ZM139.023 83.3595C139.583 83.3595 140.04 83.1728 140.395 82.7995C140.759 82.4168 140.941 81.9082 140.941 81.2735C140.941 80.6388 140.759 80.1348 140.395 79.7615C140.04 79.3788 139.583 79.1875 139.023 79.1875C138.463 79.1875 138.001 79.3788 137.637 79.7615C137.282 80.1348 137.105 80.6388 137.105 81.2735C137.105 81.9082 137.282 82.4168 137.637 82.7995C138.001 83.1728 138.463 83.3595 139.023 83.3595ZM146.701 78.5015C146.963 78.1375 147.313 77.8622 147.751 77.6755C148.199 77.4888 148.713 77.3955 149.291 77.3955V79.4115C149.049 79.3928 148.885 79.3835 148.801 79.3835C148.176 79.3835 147.686 79.5608 147.331 79.9155C146.977 80.2608 146.799 80.7835 146.799 81.4835V85.0395H144.615V77.5075H146.701V78.5015ZM157.899 81.3015C157.899 81.3295 157.885 81.5255 157.857 81.8895H152.159C152.262 82.3562 152.505 82.7248 152.887 82.9955C153.27 83.2662 153.746 83.4015 154.315 83.4015C154.707 83.4015 155.053 83.3455 155.351 83.2335C155.659 83.1122 155.944 82.9255 156.205 82.6735L157.367 83.9335C156.658 84.7455 155.622 85.1515 154.259 85.1515C153.41 85.1515 152.659 84.9882 152.005 84.6615C151.352 84.3255 150.848 83.8635 150.493 83.2755C150.139 82.6875 149.961 82.0202 149.961 81.2735C149.961 80.5362 150.134 79.8735 150.479 79.2855C150.834 78.6882 151.315 78.2262 151.921 77.8995C152.537 77.5635 153.223 77.3955 153.979 77.3955C154.717 77.3955 155.384 77.5542 155.981 77.8715C156.579 78.1888 157.045 78.6462 157.381 79.2435C157.727 79.8315 157.899 80.5175 157.899 81.3015ZM153.993 79.0475C153.499 79.0475 153.083 79.1875 152.747 79.4675C152.411 79.7475 152.206 80.1302 152.131 80.6155H155.841C155.767 80.1395 155.561 79.7615 155.225 79.4815C154.889 79.1922 154.479 79.0475 153.993 79.0475ZM161.887 85.1515C161.262 85.1515 160.651 85.0768 160.053 84.9275C159.456 84.7688 158.98 84.5728 158.625 84.3395L159.353 82.7715C159.689 82.9862 160.095 83.1635 160.571 83.3035C161.047 83.4342 161.514 83.4995 161.971 83.4995C162.895 83.4995 163.357 83.2708 163.357 82.8135C163.357 82.5988 163.231 82.4448 162.979 82.3515C162.727 82.2582 162.34 82.1788 161.817 82.1135C161.201 82.0202 160.693 81.9128 160.291 81.7915C159.89 81.6702 159.54 81.4555 159.241 81.1475C158.952 80.8395 158.807 80.4008 158.807 79.8315C158.807 79.3555 158.943 78.9355 159.213 78.5715C159.493 78.1982 159.895 77.9088 160.417 77.7035C160.949 77.4982 161.575 77.3955 162.293 77.3955C162.825 77.3955 163.353 77.4562 163.875 77.5775C164.407 77.6895 164.846 77.8482 165.191 78.0535L164.463 79.6075C163.801 79.2342 163.077 79.0475 162.293 79.0475C161.827 79.0475 161.477 79.1128 161.243 79.2435C161.01 79.3742 160.893 79.5422 160.893 79.7475C160.893 79.9808 161.019 80.1442 161.271 80.2375C161.523 80.3308 161.925 80.4195 162.475 80.5035C163.091 80.6062 163.595 80.7182 163.987 80.8395C164.379 80.9515 164.72 81.1615 165.009 81.4695C165.299 81.7775 165.443 82.2068 165.443 82.7575C165.443 83.2242 165.303 83.6395 165.023 84.0035C164.743 84.3675 164.333 84.6522 163.791 84.8575C163.259 85.0535 162.625 85.1515 161.887 85.1515ZM166.791 77.5075H168.975V85.0395H166.791V77.5075ZM167.883 76.4575C167.482 76.4575 167.155 76.3408 166.903 76.1075C166.651 75.8742 166.525 75.5848 166.525 75.2395C166.525 74.8942 166.651 74.6048 166.903 74.3715C167.155 74.1382 167.482 74.0215 167.883 74.0215C168.284 74.0215 168.611 74.1335 168.863 74.3575C169.115 74.5815 169.241 74.8615 169.241 75.1975C169.241 75.5615 169.115 75.8648 168.863 76.1075C168.611 76.3408 168.284 76.4575 167.883 76.4575ZM174.586 85.1515C173.793 85.1515 173.079 84.9882 172.444 84.6615C171.819 84.3255 171.329 83.8635 170.974 83.2755C170.619 82.6875 170.442 82.0202 170.442 81.2735C170.442 80.5268 170.619 79.8595 170.974 79.2715C171.329 78.6835 171.819 78.2262 172.444 77.8995C173.079 77.5635 173.793 77.3955 174.586 77.3955C175.379 77.3955 176.089 77.5635 176.714 77.8995C177.339 78.2262 177.829 78.6835 178.184 79.2715C178.539 79.8595 178.716 80.5268 178.716 81.2735C178.716 82.0202 178.539 82.6875 178.184 83.2755C177.829 83.8635 177.339 84.3255 176.714 84.6615C176.089 84.9882 175.379 85.1515 174.586 85.1515ZM174.586 83.3595C175.146 83.3595 175.603 83.1728 175.958 82.7995C176.322 82.4168 176.504 81.9082 176.504 81.2735C176.504 80.6388 176.322 80.1348 175.958 79.7615C175.603 79.3788 175.146 79.1875 174.586 79.1875C174.026 79.1875 173.564 79.3788 173.2 79.7615C172.836 80.1348 172.654 80.6388 172.654 81.2735C172.654 81.9082 172.836 82.4168 173.2 82.7995C173.564 83.1728 174.026 83.3595 174.586 83.3595ZM184.754 77.3955C185.687 77.3955 186.438 77.6755 187.008 78.2355C187.586 78.7955 187.876 79.6262 187.876 80.7275V85.0395H185.692V81.0635C185.692 80.4662 185.561 80.0228 185.3 79.7335C185.038 79.4348 184.66 79.2855 184.166 79.2855C183.615 79.2855 183.176 79.4582 182.85 79.8035C182.523 80.1395 182.36 80.6435 182.36 81.3155V85.0395H180.176V77.5075H182.262V78.3895C182.551 78.0722 182.91 77.8295 183.34 77.6615C183.769 77.4842 184.24 77.3955 184.754 77.3955ZM192.893 77.3955C194.06 77.3955 194.956 77.6755 195.581 78.2355C196.207 78.7862 196.519 79.6215 196.519 80.7415V85.0395H194.475V84.1015C194.065 84.8015 193.299 85.1515 192.179 85.1515C191.601 85.1515 191.097 85.0535 190.667 84.8575C190.247 84.6615 189.925 84.3908 189.701 84.0455C189.477 83.7002 189.365 83.3082 189.365 82.8695C189.365 82.1695 189.627 81.6188 190.149 81.2175C190.681 80.8162 191.498 80.6155 192.599 80.6155H194.335C194.335 80.1395 194.191 79.7755 193.901 79.5235C193.612 79.2622 193.178 79.1315 192.599 79.1315C192.198 79.1315 191.801 79.1968 191.409 79.3275C191.027 79.4488 190.7 79.6168 190.429 79.8315L189.645 78.3055C190.056 78.0162 190.546 77.7922 191.115 77.6335C191.694 77.4748 192.287 77.3955 192.893 77.3955ZM192.725 83.6815C193.099 83.6815 193.43 83.5975 193.719 83.4295C194.009 83.2522 194.214 82.9955 194.335 82.6595V81.8895H192.837C191.941 81.8895 191.493 82.1835 191.493 82.7715C191.493 83.0515 191.601 83.2755 191.815 83.4435C192.039 83.6022 192.343 83.6815 192.725 83.6815ZM200.582 78.5015C200.843 78.1375 201.193 77.8622 201.632 77.6755C202.08 77.4888 202.593 77.3955 203.172 77.3955V79.4115C202.929 79.3928 202.766 79.3835 202.682 79.3835C202.057 79.3835 201.567 79.5608 201.212 79.9155C200.857 80.2608 200.68 80.7835 200.68 81.4835V85.0395H198.496V77.5075H200.582V78.5015ZM212.942 77.3955C213.642 77.3955 214.277 77.5588 214.846 77.8855C215.425 78.2028 215.878 78.6555 216.204 79.2435C216.531 79.8222 216.694 80.4988 216.694 81.2735C216.694 82.0482 216.531 82.7295 216.204 83.3175C215.878 83.8962 215.425 84.3488 214.846 84.6755C214.277 84.9928 213.642 85.1515 212.942 85.1515C211.906 85.1515 211.118 84.8248 210.576 84.1715V85.0395H208.49V74.6515H210.674V78.3055C211.225 77.6988 211.981 77.3955 212.942 77.3955ZM212.564 83.3595C213.124 83.3595 213.582 83.1728 213.936 82.7995C214.3 82.4168 214.482 81.9082 214.482 81.2735C214.482 80.6388 214.3 80.1348 213.936 79.7615C213.582 79.3788 213.124 79.1875 212.564 79.1875C212.004 79.1875 211.542 79.3788 211.178 79.7615C210.824 80.1348 210.646 80.6388 210.646 81.2735C210.646 81.9082 210.824 82.4168 211.178 82.7995C211.542 83.1728 212.004 83.3595 212.564 83.3595ZM221.74 85.1515C220.947 85.1515 220.233 84.9882 219.598 84.6615C218.973 84.3255 218.483 83.8635 218.128 83.2755C217.774 82.6875 217.596 82.0202 217.596 81.2735C217.596 80.5268 217.774 79.8595 218.128 79.2715C218.483 78.6835 218.973 78.2262 219.598 77.8995C220.233 77.5635 220.947 77.3955 221.74 77.3955C222.534 77.3955 223.243 77.5635 223.868 77.8995C224.494 78.2262 224.984 78.6835 225.338 79.2715C225.693 79.8595 225.87 80.5268 225.87 81.2735C225.87 82.0202 225.693 82.6875 225.338 83.2755C224.984 83.8635 224.494 84.3255 223.868 84.6615C223.243 84.9882 222.534 85.1515 221.74 85.1515ZM221.74 83.3595C222.3 83.3595 222.758 83.1728 223.112 82.7995C223.476 82.4168 223.658 81.9082 223.658 81.2735C223.658 80.6388 223.476 80.1348 223.112 79.7615C222.758 79.3788 222.3 79.1875 221.74 79.1875C221.18 79.1875 220.718 79.3788 220.354 79.7615C219.99 80.1348 219.808 80.6388 219.808 81.2735C219.808 81.9082 219.99 82.4168 220.354 82.7995C220.718 83.1728 221.18 83.3595 221.74 83.3595ZM232.188 84.6755C231.973 84.8342 231.707 84.9555 231.39 85.0395C231.082 85.1142 230.755 85.1515 230.41 85.1515C229.514 85.1515 228.819 84.9228 228.324 84.4655C227.839 84.0082 227.596 83.3362 227.596 82.4495V79.3555H226.434V77.6755H227.596V75.8415H229.78V77.6755H231.656V79.3555H229.78V82.4215C229.78 82.7388 229.859 82.9862 230.018 83.1635C230.186 83.3315 230.419 83.4155 230.718 83.4155C231.063 83.4155 231.357 83.3222 231.6 83.1355L232.188 84.6755ZM236.766 85.1515C235.972 85.1515 235.258 84.9882 234.624 84.6615C233.998 84.3255 233.508 83.8635 233.154 83.2755C232.799 82.6875 232.622 82.0202 232.622 81.2735C232.622 80.5268 232.799 79.8595 233.154 79.2715C233.508 78.6835 233.998 78.2262 234.624 77.8995C235.258 77.5635 235.972 77.3955 236.766 77.3955C237.559 77.3955 238.268 77.5635 238.894 77.8995C239.519 78.2262 240.009 78.6835 240.364 79.2715C240.718 79.8595 240.896 80.5268 240.896 81.2735C240.896 82.0202 240.718 82.6875 240.364 83.2755C240.009 83.8635 239.519 84.3255 238.894 84.6615C238.268 84.9882 237.559 85.1515 236.766 85.1515ZM236.766 83.3595C237.326 83.3595 237.783 83.1728 238.138 82.7995C238.502 82.4168 238.684 81.9082 238.684 81.2735C238.684 80.6388 238.502 80.1348 238.138 79.7615C237.783 79.3788 237.326 79.1875 236.766 79.1875C236.206 79.1875 235.744 79.3788 235.38 79.7615C235.016 80.1348 234.834 80.6388 234.834 81.2735C234.834 81.9082 235.016 82.4168 235.38 82.7995C235.744 83.1728 236.206 83.3595 236.766 83.3595ZM237.354 74.5255H239.706L237.172 76.5415H235.464L237.354 74.5255ZM246.933 77.3955C247.867 77.3955 248.618 77.6755 249.187 78.2355C249.766 78.7955 250.055 79.6262 250.055 80.7275V85.0395H247.871V81.0635C247.871 80.4662 247.741 80.0228 247.479 79.7335C247.218 79.4348 246.84 79.2855 246.345 79.2855C245.795 79.2855 245.356 79.4582 245.029 79.8035C244.703 80.1395 244.539 80.6435 244.539 81.3155V85.0395H242.355V77.5075H244.441V78.3895C244.731 78.0722 245.09 77.8295 245.519 77.6615C245.949 77.4842 246.42 77.3955 246.933 77.3955ZM256 77.5075H258.184V85.0395H256V77.5075ZM257.092 76.4575C256.691 76.4575 256.364 76.3408 256.112 76.1075C255.86 75.8742 255.734 75.5848 255.734 75.2395C255.734 74.8942 255.86 74.6048 256.112 74.3715C256.364 74.1382 256.691 74.0215 257.092 74.0215C257.493 74.0215 257.82 74.1335 258.072 74.3575C258.324 74.5815 258.45 74.8615 258.45 75.1975C258.45 75.5615 258.324 75.8648 258.072 76.1075C257.82 76.3408 257.493 76.4575 257.092 76.4575ZM264.789 77.3955C265.722 77.3955 266.474 77.6755 267.043 78.2355C267.622 78.7955 267.911 79.6262 267.911 80.7275V85.0395H265.727V81.0635C265.727 80.4662 265.596 80.0228 265.335 79.7335C265.074 79.4348 264.696 79.2855 264.201 79.2855C263.65 79.2855 263.212 79.4582 262.885 79.8035C262.558 80.1395 262.395 80.6435 262.395 81.3155V85.0395H260.211V77.5075H262.297V78.3895C262.586 78.0722 262.946 77.8295 263.375 77.6615C263.804 77.4842 264.276 77.3955 264.789 77.3955ZM269.891 77.5075H272.075V85.0395H269.891V77.5075ZM270.983 76.4575C270.581 76.4575 270.255 76.3408 270.003 76.1075C269.751 75.8742 269.625 75.5848 269.625 75.2395C269.625 74.8942 269.751 74.6048 270.003 74.3715C270.255 74.1382 270.581 74.0215 270.983 74.0215C271.384 74.0215 271.711 74.1335 271.963 74.3575C272.215 74.5815 272.341 74.8615 272.341 75.1975C272.341 75.5615 272.215 75.8648 271.963 76.1075C271.711 76.3408 271.384 76.4575 270.983 76.4575ZM277.742 85.1515C276.939 85.1515 276.216 84.9882 275.572 84.6615C274.937 84.3255 274.438 83.8635 274.074 83.2755C273.719 82.6875 273.542 82.0202 273.542 81.2735C273.542 80.5268 273.719 79.8595 274.074 79.2715C274.438 78.6835 274.937 78.2262 275.572 77.8995C276.216 77.5635 276.939 77.3955 277.742 77.3955C278.535 77.3955 279.226 77.5635 279.814 77.8995C280.411 78.2262 280.845 78.6975 281.116 79.3135L279.422 80.2235C279.03 79.5328 278.465 79.1875 277.728 79.1875C277.158 79.1875 276.687 79.3742 276.314 79.7475C275.94 80.1208 275.754 80.6295 275.754 81.2735C275.754 81.9175 275.94 82.4262 276.314 82.7995C276.687 83.1728 277.158 83.3595 277.728 83.3595C278.474 83.3595 279.039 83.0142 279.422 82.3235L281.116 83.2475C280.845 83.8448 280.411 84.3115 279.814 84.6475C279.226 84.9835 278.535 85.1515 277.742 85.1515ZM282.373 77.5075H284.557V85.0395H282.373V77.5075ZM283.465 76.4575C283.064 76.4575 282.737 76.3408 282.485 76.1075C282.233 75.8742 282.107 75.5848 282.107 75.2395C282.107 74.8942 282.233 74.6048 282.485 74.3715C282.737 74.1382 283.064 74.0215 283.465 74.0215C283.866 74.0215 284.193 74.1335 284.445 74.3575C284.697 74.5815 284.823 74.8615 284.823 75.1975C284.823 75.5615 284.697 75.8648 284.445 76.1075C284.193 76.3408 283.866 76.4575 283.465 76.4575ZM289.622 77.3955C290.789 77.3955 291.685 77.6755 292.31 78.2355C292.935 78.7862 293.248 79.6215 293.248 80.7415V85.0395H291.204V84.1015C290.793 84.8015 290.028 85.1515 288.908 85.1515C288.329 85.1515 287.825 85.0535 287.396 84.8575C286.976 84.6615 286.654 84.3908 286.43 84.0455C286.206 83.7002 286.094 83.3082 286.094 82.8695C286.094 82.1695 286.355 81.6188 286.878 81.2175C287.41 80.8162 288.227 80.6155 289.328 80.6155H291.064C291.064 80.1395 290.919 79.7755 290.63 79.5235C290.341 79.2622 289.907 79.1315 289.328 79.1315C288.927 79.1315 288.53 79.1968 288.138 79.3275C287.755 79.4488 287.429 79.6168 287.158 79.8315L286.374 78.3055C286.785 78.0162 287.275 77.7922 287.844 77.6335C288.423 77.4748 289.015 77.3955 289.622 77.3955ZM289.454 83.6815C289.827 83.6815 290.159 83.5975 290.448 83.4295C290.737 83.2522 290.943 82.9955 291.064 82.6595V81.8895H289.566C288.67 81.8895 288.222 82.1835 288.222 82.7715C288.222 83.0515 288.329 83.2755 288.544 83.4435C288.768 83.6022 289.071 83.6815 289.454 83.6815ZM297.311 78.5015C297.572 78.1375 297.922 77.8622 298.361 77.6755C298.809 77.4888 299.322 77.3955 299.901 77.3955V79.4115C299.658 79.3928 299.495 79.3835 299.411 79.3835C298.785 79.3835 298.295 79.5608 297.941 79.9155C297.586 80.2608 297.409 80.7835 297.409 81.4835V85.0395H295.225V77.5075H297.311V78.5015ZM301.943 85.1515C301.56 85.1515 301.238 85.0208 300.977 84.7595C300.716 84.4982 300.585 84.1715 300.585 83.7795C300.585 83.3782 300.716 83.0562 300.977 82.8135C301.238 82.5615 301.56 82.4355 301.943 82.4355C302.326 82.4355 302.648 82.5615 302.909 82.8135C303.17 83.0562 303.301 83.3782 303.301 83.7795C303.301 84.1715 303.17 84.4982 302.909 84.7595C302.648 85.0208 302.326 85.1515 301.943 85.1515Z" fill="#333333"/>
<path fill-rule="evenodd" clip-rule="evenodd" d="M329.266 120.656C329.266 115.707 327.338 110.96 323.906 107.46C320.473 103.961 315.818 101.995 310.965 101.995C265.968 101.995 168.214 102 168.214 102L160.166 109.448H132.345L124.291 102H98.6697C93.8159 102 89.1609 103.966 85.7288 107.466C82.2966 110.965 80.3684 115.712 80.3684 120.661C80.3684 120.666 80.3684 120.672 80.3684 120.678C80.3684 125.627 82.2966 130.373 85.7288 133.873C89.1609 137.373 93.8159 139.339 98.6697 139.339C110.724 139.339 124.291 139.339 124.291 139.339L132.345 146.787H160.161L168.214 139.339L310.965 139.334C315.818 139.334 320.473 137.367 323.906 133.868C327.338 130.368 329.266 125.622 329.266 120.672C329.266 120.667 329.266 120.661 329.266 120.656Z" fill="#30DCFF"/>
<path fill-rule="evenodd" clip-rule="evenodd" d="M329.266 120.662C329.266 115.712 327.338 110.966 323.906 107.466C320.473 103.967 315.818 102.001 310.965 102.001C265.968 102.001 168.214 102.001 168.214 102.001L160.166 109.448H132.345L124.291 102.001H98.6697C93.8159 102.001 89.1609 103.967 85.7288 107.466C82.2966 110.966 80.3684 115.712 80.3684 120.662C80.3684 120.667 80.3684 120.67 80.3684 120.67H84.7607C84.7607 112.6 91.1768 106.057 99.0914 106.057C109.763 106.057 122.494 106.057 122.494 106.057L130.548 113.505H161.991L170.045 106.057H310.543C318.458 106.057 324.874 112.6 324.874 120.67L329.266 120.67V120.662Z" fill="#93EDFF"/>
<path fill-rule="evenodd" clip-rule="evenodd" d="M329.266 120.665H324.873V120.666C324.873 124.54 323.364 128.256 320.678 130.995C317.991 133.734 314.348 135.273 310.549 135.273C269.062 135.273 166.395 135.273 166.395 135.273L158.341 142.721H134.165L126.111 135.273H99.0856C91.1742 135.273 84.7607 128.733 84.7607 120.666V120.665H80.3684V120.673C80.3684 125.623 82.2966 130.369 85.7288 133.869C89.1609 137.369 93.8159 139.335 98.6697 139.335C110.724 139.335 124.291 139.335 124.291 139.335L132.345 146.783H160.161L168.214 139.335H310.964C321.072 139.335 329.265 130.98 329.266 120.674C329.266 120.668 329.266 120.665 329.266 120.665Z" fill="#08A0BF"/>
<path d="M105.08 129L105.066 123.12L102.182 127.964H101.16L98.29 123.246V129H96.162V119.2H98.038L101.706 125.29L105.318 119.2H107.18L107.208 129H105.08ZM112.963 129.112C112.17 129.112 111.456 128.949 110.821 128.622C110.196 128.286 109.706 127.824 109.351 127.236C108.996 126.648 108.819 125.981 108.819 125.234C108.819 124.487 108.996 123.82 109.351 123.232C109.706 122.644 110.196 122.187 110.821 121.86C111.456 121.524 112.17 121.356 112.963 121.356C113.756 121.356 114.466 121.524 115.091 121.86C115.716 122.187 116.206 122.644 116.561 123.232C116.916 123.82 117.093 124.487 117.093 125.234C117.093 125.981 116.916 126.648 116.561 127.236C116.206 127.824 115.716 128.286 115.091 128.622C114.466 128.949 113.756 129.112 112.963 129.112ZM112.963 127.32C113.523 127.32 113.98 127.133 114.335 126.76C114.699 126.377 114.881 125.869 114.881 125.234C114.881 124.599 114.699 124.095 114.335 123.722C113.98 123.339 113.523 123.148 112.963 123.148C112.403 123.148 111.941 123.339 111.577 123.722C111.213 124.095 111.031 124.599 111.031 125.234C111.031 125.869 111.213 126.377 111.577 126.76C111.941 127.133 112.403 127.32 112.963 127.32ZM125.824 121.468L122.646 129H120.392L117.228 121.468H119.482L121.568 126.592L123.724 121.468H125.824ZM133.888 125.262C133.888 125.29 133.874 125.486 133.846 125.85H128.148C128.251 126.317 128.493 126.685 128.876 126.956C129.259 127.227 129.735 127.362 130.304 127.362C130.696 127.362 131.041 127.306 131.34 127.194C131.648 127.073 131.933 126.886 132.194 126.634L133.356 127.894C132.647 128.706 131.611 129.112 130.248 129.112C129.399 129.112 128.647 128.949 127.994 128.622C127.341 128.286 126.837 127.824 126.482 127.236C126.127 126.648 125.95 125.981 125.95 125.234C125.95 124.497 126.123 123.834 126.468 123.246C126.823 122.649 127.303 122.187 127.91 121.86C128.526 121.524 129.212 121.356 129.968 121.356C130.705 121.356 131.373 121.515 131.97 121.832C132.567 122.149 133.034 122.607 133.37 123.204C133.715 123.792 133.888 124.478 133.888 125.262ZM129.982 123.008C129.487 123.008 129.072 123.148 128.736 123.428C128.4 123.708 128.195 124.091 128.12 124.576H131.83C131.755 124.1 131.55 123.722 131.214 123.442C130.878 123.153 130.467 123.008 129.982 123.008ZM137.428 122.462C137.689 122.098 138.039 121.823 138.478 121.636C138.926 121.449 139.439 121.356 140.018 121.356V123.372C139.775 123.353 139.612 123.344 139.528 123.344C138.903 123.344 138.413 123.521 138.058 123.876C137.703 124.221 137.526 124.744 137.526 125.444V129H135.342V121.468H137.428V122.462ZM148.374 121.356C149.541 121.356 150.437 121.636 151.062 122.196C151.687 122.747 152 123.582 152 124.702V129H149.956V128.062C149.545 128.762 148.78 129.112 147.66 129.112C147.081 129.112 146.577 129.014 146.148 128.818C145.728 128.622 145.406 128.351 145.182 128.006C144.958 127.661 144.846 127.269 144.846 126.83C144.846 126.13 145.107 125.579 145.63 125.178C146.162 124.777 146.979 124.576 148.08 124.576H149.816C149.816 124.1 149.671 123.736 149.382 123.484C149.093 123.223 148.659 123.092 148.08 123.092C147.679 123.092 147.282 123.157 146.89 123.288C146.507 123.409 146.181 123.577 145.91 123.792L145.126 122.266C145.537 121.977 146.027 121.753 146.596 121.594C147.175 121.435 147.767 121.356 148.374 121.356ZM148.206 127.642C148.579 127.642 148.911 127.558 149.2 127.39C149.489 127.213 149.695 126.956 149.816 126.62V125.85H148.318C147.422 125.85 146.974 126.144 146.974 126.732C146.974 127.012 147.081 127.236 147.296 127.404C147.52 127.563 147.823 127.642 148.206 127.642ZM156.063 122.462C156.324 122.098 156.674 121.823 157.113 121.636C157.561 121.449 158.074 121.356 158.653 121.356V123.372C158.41 123.353 158.247 123.344 158.163 123.344C157.537 123.344 157.047 123.521 156.693 123.876C156.338 124.221 156.161 124.744 156.161 125.444V129H153.977V121.468H156.063V122.462ZM162.037 122.462C162.299 122.098 162.649 121.823 163.087 121.636C163.535 121.449 164.049 121.356 164.627 121.356V123.372C164.385 123.353 164.221 123.344 164.137 123.344C163.512 123.344 163.022 123.521 162.667 123.876C162.313 124.221 162.135 124.744 162.135 125.444V129H159.951V121.468H162.037V122.462ZM165.926 121.468H168.11V129H165.926V121.468ZM167.018 120.418C166.617 120.418 166.29 120.301 166.038 120.068C165.786 119.835 165.66 119.545 165.66 119.2C165.66 118.855 165.786 118.565 166.038 118.332C166.29 118.099 166.617 117.982 167.018 117.982C167.419 117.982 167.746 118.094 167.998 118.318C168.25 118.542 168.376 118.822 168.376 119.158C168.376 119.522 168.25 119.825 167.998 120.068C167.746 120.301 167.419 120.418 167.018 120.418ZM174.589 121.356C175.289 121.356 175.924 121.519 176.493 121.846C177.072 122.163 177.524 122.616 177.851 123.204C178.178 123.783 178.341 124.459 178.341 125.234C178.341 126.009 178.178 126.69 177.851 127.278C177.524 127.857 177.072 128.309 176.493 128.636C175.924 128.953 175.289 129.112 174.589 129.112C173.553 129.112 172.764 128.785 172.223 128.132V129H170.137V118.612H172.321V122.266C172.872 121.659 173.628 121.356 174.589 121.356ZM174.211 127.32C174.771 127.32 175.228 127.133 175.583 126.76C175.947 126.377 176.129 125.869 176.129 125.234C176.129 124.599 175.947 124.095 175.583 123.722C175.228 123.339 174.771 123.148 174.211 123.148C173.651 123.148 173.189 123.339 172.825 123.722C172.47 124.095 172.293 124.599 172.293 125.234C172.293 125.869 172.47 126.377 172.825 126.76C173.189 127.133 173.651 127.32 174.211 127.32ZM182.718 121.356C183.885 121.356 184.781 121.636 185.406 122.196C186.031 122.747 186.344 123.582 186.344 124.702V129H184.3V128.062C183.889 128.762 183.124 129.112 182.004 129.112C181.425 129.112 180.921 129.014 180.492 128.818C180.072 128.622 179.75 128.351 179.526 128.006C179.302 127.661 179.19 127.269 179.19 126.83C179.19 126.13 179.451 125.579 179.974 125.178C180.506 124.777 181.323 124.576 182.424 124.576H184.16C184.16 124.1 184.015 123.736 183.726 123.484C183.437 123.223 183.003 123.092 182.424 123.092C182.023 123.092 181.626 123.157 181.234 123.288C180.851 123.409 180.525 123.577 180.254 123.792L179.47 122.266C179.881 121.977 180.371 121.753 180.94 121.594C181.519 121.435 182.111 121.356 182.718 121.356ZM182.55 127.642C182.923 127.642 183.255 127.558 183.544 127.39C183.833 127.213 184.039 126.956 184.16 126.62V125.85H182.662C181.766 125.85 181.318 126.144 181.318 126.732C181.318 127.012 181.425 127.236 181.64 127.404C181.864 127.563 182.167 127.642 182.55 127.642Z" fill="#333333"/>
<path d="M225.648 129.112C224.845 129.112 224.122 128.949 223.478 128.622C222.843 128.286 222.344 127.824 221.98 127.236C221.625 126.648 221.448 125.981 221.448 125.234C221.448 124.487 221.625 123.82 221.98 123.232C222.344 122.644 222.843 122.187 223.478 121.86C224.122 121.524 224.845 121.356 225.648 121.356C226.441 121.356 227.132 121.524 227.72 121.86C228.317 122.187 228.751 122.658 229.022 123.274L227.328 124.184C226.936 123.493 226.371 123.148 225.634 123.148C225.065 123.148 224.593 123.335 224.22 123.708C223.847 124.081 223.66 124.59 223.66 125.234C223.66 125.878 223.847 126.387 224.22 126.76C224.593 127.133 225.065 127.32 225.634 127.32C226.381 127.32 226.945 126.975 227.328 126.284L229.022 127.208C228.751 127.805 228.317 128.272 227.72 128.608C227.132 128.944 226.441 129.112 225.648 129.112ZM237.867 121.468V129H235.795V128.104C235.506 128.431 235.161 128.683 234.759 128.86C234.358 129.028 233.924 129.112 233.457 129.112C232.468 129.112 231.684 128.827 231.105 128.258C230.527 127.689 230.237 126.844 230.237 125.724V121.468H232.421V125.402C232.421 126.615 232.93 127.222 233.947 127.222C234.47 127.222 234.89 127.054 235.207 126.718C235.525 126.373 235.683 125.864 235.683 125.192V121.468H237.867ZM242.929 121.356C244.095 121.356 244.991 121.636 245.617 122.196C246.242 122.747 246.555 123.582 246.555 124.702V129H244.511V128.062C244.1 128.762 243.335 129.112 242.215 129.112C241.636 129.112 241.132 129.014 240.703 128.818C240.283 128.622 239.961 128.351 239.737 128.006C239.513 127.661 239.401 127.269 239.401 126.83C239.401 126.13 239.662 125.579 240.185 125.178C240.717 124.777 241.533 124.576 242.635 124.576H244.371C244.371 124.1 244.226 123.736 243.937 123.484C243.647 123.223 243.213 123.092 242.635 123.092C242.233 123.092 241.837 123.157 241.445 123.288C241.062 123.409 240.735 123.577 240.465 123.792L239.681 122.266C240.091 121.977 240.581 121.753 241.151 121.594C241.729 121.435 242.322 121.356 242.929 121.356ZM242.761 127.642C243.134 127.642 243.465 127.558 243.755 127.39C244.044 127.213 244.249 126.956 244.371 126.62V125.85H242.873C241.977 125.85 241.529 126.144 241.529 126.732C241.529 127.012 241.636 127.236 241.851 127.404C242.075 127.563 242.378 127.642 242.761 127.642ZM256.285 118.612V129H254.199V128.132C253.658 128.785 252.874 129.112 251.847 129.112C251.138 129.112 250.494 128.953 249.915 128.636C249.346 128.319 248.898 127.866 248.571 127.278C248.245 126.69 248.081 126.009 248.081 125.234C248.081 124.459 248.245 123.778 248.571 123.19C248.898 122.602 249.346 122.149 249.915 121.832C250.494 121.515 251.138 121.356 251.847 121.356C252.809 121.356 253.56 121.659 254.101 122.266V118.612H256.285ZM252.225 127.32C252.776 127.32 253.233 127.133 253.597 126.76C253.961 126.377 254.143 125.869 254.143 125.234C254.143 124.599 253.961 124.095 253.597 123.722C253.233 123.339 252.776 123.148 252.225 123.148C251.665 123.148 251.203 123.339 250.839 123.722C250.475 124.095 250.293 124.599 250.293 125.234C250.293 125.869 250.475 126.377 250.839 126.76C251.203 127.133 251.665 127.32 252.225 127.32ZM260.393 122.462C260.654 122.098 261.004 121.823 261.443 121.636C261.891 121.449 262.404 121.356 262.983 121.356V123.372C262.74 123.353 262.577 123.344 262.493 123.344C261.867 123.344 261.377 123.521 261.023 123.876C260.668 124.221 260.491 124.744 260.491 125.444V129H258.307V121.468H260.393V122.462ZM267.797 129.112C267.004 129.112 266.29 128.949 265.655 128.622C265.03 128.286 264.54 127.824 264.185 127.236C263.83 126.648 263.653 125.981 263.653 125.234C263.653 124.487 263.83 123.82 264.185 123.232C264.54 122.644 265.03 122.187 265.655 121.86C266.29 121.524 267.004 121.356 267.797 121.356C268.59 121.356 269.3 121.524 269.925 121.86C270.55 122.187 271.04 122.644 271.395 123.232C271.75 123.82 271.927 124.487 271.927 125.234C271.927 125.981 271.75 126.648 271.395 127.236C271.04 127.824 270.55 128.286 269.925 128.622C269.3 128.949 268.59 129.112 267.797 129.112ZM267.797 127.32C268.357 127.32 268.814 127.133 269.169 126.76C269.533 126.377 269.715 125.869 269.715 125.234C269.715 124.599 269.533 124.095 269.169 123.722C268.814 123.339 268.357 123.148 267.797 123.148C267.237 123.148 266.775 123.339 266.411 123.722C266.047 124.095 265.865 124.599 265.865 125.234C265.865 125.869 266.047 126.377 266.411 126.76C266.775 127.133 267.237 127.32 267.797 127.32ZM275.921 129.112C275.296 129.112 274.684 129.037 274.087 128.888C273.49 128.729 273.014 128.533 272.659 128.3L273.387 126.732C273.723 126.947 274.129 127.124 274.605 127.264C275.081 127.395 275.548 127.46 276.005 127.46C276.929 127.46 277.391 127.231 277.391 126.774C277.391 126.559 277.265 126.405 277.013 126.312C276.761 126.219 276.374 126.139 275.851 126.074C275.235 125.981 274.726 125.873 274.325 125.752C273.924 125.631 273.574 125.416 273.275 125.108C272.986 124.8 272.841 124.361 272.841 123.792C272.841 123.316 272.976 122.896 273.247 122.532C273.527 122.159 273.928 121.869 274.451 121.664C274.983 121.459 275.608 121.356 276.327 121.356C276.859 121.356 277.386 121.417 277.909 121.538C278.441 121.65 278.88 121.809 279.225 122.014L278.497 123.568C277.834 123.195 277.111 123.008 276.327 123.008C275.86 123.008 275.51 123.073 275.277 123.204C275.044 123.335 274.927 123.503 274.927 123.708C274.927 123.941 275.053 124.105 275.305 124.198C275.557 124.291 275.958 124.38 276.509 124.464C277.125 124.567 277.629 124.679 278.021 124.8C278.413 124.912 278.754 125.122 279.043 125.43C279.332 125.738 279.477 126.167 279.477 126.718C279.477 127.185 279.337 127.6 279.057 127.964C278.777 128.328 278.366 128.613 277.825 128.818C277.293 129.014 276.658 129.112 275.921 129.112Z" fill="#333333"/>
<rect x="196" y="115" width="15" height="19" rx="5" fill="#F2F2F2"/>
<path d="M204.622 123.36C205.603 123.52 206.355 123.888 206.878 124.464C207.4 125.029 207.662 125.733 207.662 126.576C207.662 127.227 207.491 127.829 207.15 128.384C206.808 128.928 206.286 129.365 205.582 129.696C204.888 130.027 204.035 130.192 203.022 130.192C202.232 130.192 201.454 130.091 200.686 129.888C199.928 129.675 199.283 129.376 198.75 128.992L199.758 127.008C200.184 127.328 200.675 127.579 201.23 127.76C201.795 127.931 202.371 128.016 202.958 128.016C203.608 128.016 204.12 127.893 204.494 127.648C204.867 127.392 205.054 127.035 205.054 126.576C205.054 125.659 204.355 125.2 202.958 125.2H201.774V123.488L204.078 120.88H199.31V118.8H207.15V120.48L204.622 123.36Z" fill="#008E86"/>
<path fill-rule="evenodd" clip-rule="evenodd" d="M329.266 157.656C329.266 152.707 327.338 147.96 323.906 144.46C320.473 140.961 315.818 138.995 310.965 138.995C265.968 138.995 168.214 139 168.214 139L160.166 146.448H132.345L124.291 139H98.6697C93.8159 139 89.1609 140.966 85.7288 144.466C82.2966 147.965 80.3684 152.712 80.3684 157.661C80.3684 157.666 80.3684 157.672 80.3684 157.678C80.3684 162.627 82.2966 167.373 85.7288 170.873C89.1609 174.373 93.8159 176.339 98.6697 176.339C110.724 176.339 124.291 176.339 124.291 176.339L132.345 183.787H160.161L168.214 176.339L310.965 176.334C315.818 176.334 320.473 174.367 323.906 170.868C327.338 167.368 329.266 162.622 329.266 157.672C329.266 157.667 329.266 157.661 329.266 157.656Z" fill="#30DCFF"/>
<path fill-rule="evenodd" clip-rule="evenodd" d="M329.266 157.662C329.266 152.712 327.338 147.966 323.906 144.466C320.473 140.967 315.818 139.001 310.965 139.001C265.968 139.001 168.214 139.001 168.214 139.001L160.166 146.448H132.345L124.291 139.001H98.6697C93.8159 139.001 89.1609 140.967 85.7288 144.466C82.2966 147.966 80.3684 152.712 80.3684 157.662C80.3684 157.667 80.3684 157.67 80.3684 157.67H84.7607C84.7607 149.6 91.1768 143.057 99.0914 143.057C109.763 143.057 122.494 143.057 122.494 143.057L130.548 150.505H161.991L170.045 143.057H310.543C318.458 143.057 324.874 149.6 324.874 157.67L329.266 157.67V157.662Z" fill="#93EDFF"/>
<path fill-rule="evenodd" clip-rule="evenodd" d="M329.266 157.665H324.873V157.666C324.873 161.54 323.364 165.256 320.678 167.995C317.991 170.734 314.348 172.273 310.549 172.273C269.062 172.273 166.395 172.273 166.395 172.273L158.341 179.721H134.165L126.111 172.273H99.0856C91.1742 172.273 84.7607 165.733 84.7607 157.666V157.665H80.3684V157.673C80.3684 162.623 82.2966 167.369 85.7288 170.869C89.1609 174.369 93.8159 176.335 98.6697 176.335C110.724 176.335 124.291 176.335 124.291 176.335L132.345 183.783H160.161L168.214 176.335H310.964C321.072 176.335 329.265 167.98 329.266 157.674C329.266 157.668 329.266 157.665 329.266 157.665Z" fill="#08A0BF"/>
<path d="M105.08 166L105.066 160.12L102.182 164.964H101.16L98.29 160.246V166H96.162V156.2H98.038L101.706 162.29L105.318 156.2H107.18L107.208 166H105.08ZM112.963 166.112C112.17 166.112 111.456 165.949 110.821 165.622C110.196 165.286 109.706 164.824 109.351 164.236C108.996 163.648 108.819 162.981 108.819 162.234C108.819 161.487 108.996 160.82 109.351 160.232C109.706 159.644 110.196 159.187 110.821 158.86C111.456 158.524 112.17 158.356 112.963 158.356C113.756 158.356 114.466 158.524 115.091 158.86C115.716 159.187 116.206 159.644 116.561 160.232C116.916 160.82 117.093 161.487 117.093 162.234C117.093 162.981 116.916 163.648 116.561 164.236C116.206 164.824 115.716 165.286 115.091 165.622C114.466 165.949 113.756 166.112 112.963 166.112ZM112.963 164.32C113.523 164.32 113.98 164.133 114.335 163.76C114.699 163.377 114.881 162.869 114.881 162.234C114.881 161.599 114.699 161.095 114.335 160.722C113.98 160.339 113.523 160.148 112.963 160.148C112.403 160.148 111.941 160.339 111.577 160.722C111.213 161.095 111.031 161.599 111.031 162.234C111.031 162.869 111.213 163.377 111.577 163.76C111.941 164.133 112.403 164.32 112.963 164.32ZM125.824 158.468L122.646 166H120.392L117.228 158.468H119.482L121.568 163.592L123.724 158.468H125.824ZM133.888 162.262C133.888 162.29 133.874 162.486 133.846 162.85H128.148C128.251 163.317 128.493 163.685 128.876 163.956C129.259 164.227 129.735 164.362 130.304 164.362C130.696 164.362 131.041 164.306 131.34 164.194C131.648 164.073 131.933 163.886 132.194 163.634L133.356 164.894C132.647 165.706 131.611 166.112 130.248 166.112C129.399 166.112 128.647 165.949 127.994 165.622C127.341 165.286 126.837 164.824 126.482 164.236C126.127 163.648 125.95 162.981 125.95 162.234C125.95 161.497 126.123 160.834 126.468 160.246C126.823 159.649 127.303 159.187 127.91 158.86C128.526 158.524 129.212 158.356 129.968 158.356C130.705 158.356 131.373 158.515 131.97 158.832C132.567 159.149 133.034 159.607 133.37 160.204C133.715 160.792 133.888 161.478 133.888 162.262ZM129.982 160.008C129.487 160.008 129.072 160.148 128.736 160.428C128.4 160.708 128.195 161.091 128.12 161.576H131.83C131.755 161.1 131.55 160.722 131.214 160.442C130.878 160.153 130.467 160.008 129.982 160.008ZM137.428 159.462C137.689 159.098 138.039 158.823 138.478 158.636C138.926 158.449 139.439 158.356 140.018 158.356V160.372C139.775 160.353 139.612 160.344 139.528 160.344C138.903 160.344 138.413 160.521 138.058 160.876C137.703 161.221 137.526 161.744 137.526 162.444V166H135.342V158.468H137.428V159.462ZM148.374 158.356C149.541 158.356 150.437 158.636 151.062 159.196C151.687 159.747 152 160.582 152 161.702V166H149.956V165.062C149.545 165.762 148.78 166.112 147.66 166.112C147.081 166.112 146.577 166.014 146.148 165.818C145.728 165.622 145.406 165.351 145.182 165.006C144.958 164.661 144.846 164.269 144.846 163.83C144.846 163.13 145.107 162.579 145.63 162.178C146.162 161.777 146.979 161.576 148.08 161.576H149.816C149.816 161.1 149.671 160.736 149.382 160.484C149.093 160.223 148.659 160.092 148.08 160.092C147.679 160.092 147.282 160.157 146.89 160.288C146.507 160.409 146.181 160.577 145.91 160.792L145.126 159.266C145.537 158.977 146.027 158.753 146.596 158.594C147.175 158.435 147.767 158.356 148.374 158.356ZM148.206 164.642C148.579 164.642 148.911 164.558 149.2 164.39C149.489 164.213 149.695 163.956 149.816 163.62V162.85H148.318C147.422 162.85 146.974 163.144 146.974 163.732C146.974 164.012 147.081 164.236 147.296 164.404C147.52 164.563 147.823 164.642 148.206 164.642ZM157.942 155.612H160.126V166H157.942V155.612ZM165.191 158.356C166.357 158.356 167.253 158.636 167.879 159.196C168.504 159.747 168.817 160.582 168.817 161.702V166H166.773V165.062C166.362 165.762 165.597 166.112 164.477 166.112C163.898 166.112 163.394 166.014 162.965 165.818C162.545 165.622 162.223 165.351 161.999 165.006C161.775 164.661 161.663 164.269 161.663 163.83C161.663 163.13 161.924 162.579 162.447 162.178C162.979 161.777 163.795 161.576 164.897 161.576H166.633C166.633 161.1 166.488 160.736 166.199 160.484C165.909 160.223 165.475 160.092 164.897 160.092C164.495 160.092 164.099 160.157 163.707 160.288C163.324 160.409 162.997 160.577 162.727 160.792L161.943 159.266C162.353 158.977 162.843 158.753 163.413 158.594C163.991 158.435 164.584 158.356 165.191 158.356ZM165.023 164.642C165.396 164.642 165.727 164.558 166.017 164.39C166.306 164.213 166.511 163.956 166.633 163.62V162.85H165.135C164.239 162.85 163.791 163.144 163.791 163.732C163.791 164.012 163.898 164.236 164.113 164.404C164.337 164.563 164.64 164.642 165.023 164.642ZM182.43 155.612V166H180.344V165.132C179.803 165.785 179.019 166.112 177.992 166.112C177.283 166.112 176.639 165.953 176.06 165.636C175.491 165.319 175.043 164.866 174.716 164.278C174.389 163.69 174.226 163.009 174.226 162.234C174.226 161.459 174.389 160.778 174.716 160.19C175.043 159.602 175.491 159.149 176.06 158.832C176.639 158.515 177.283 158.356 177.992 158.356C178.953 158.356 179.705 158.659 180.246 159.266V155.612H182.43ZM178.37 164.32C178.921 164.32 179.378 164.133 179.742 163.76C180.106 163.377 180.288 162.869 180.288 162.234C180.288 161.599 180.106 161.095 179.742 160.722C179.378 160.339 178.921 160.148 178.37 160.148C177.81 160.148 177.348 160.339 176.984 160.722C176.62 161.095 176.438 161.599 176.438 162.234C176.438 162.869 176.62 163.377 176.984 163.76C177.348 164.133 177.81 164.32 178.37 164.32ZM191.829 162.262C191.829 162.29 191.815 162.486 191.787 162.85H186.089C186.192 163.317 186.435 163.685 186.817 163.956C187.2 164.227 187.676 164.362 188.245 164.362C188.637 164.362 188.983 164.306 189.281 164.194C189.589 164.073 189.874 163.886 190.135 163.634L191.297 164.894C190.588 165.706 189.552 166.112 188.189 166.112C187.34 166.112 186.589 165.949 185.935 165.622C185.282 165.286 184.778 164.824 184.423 164.236C184.069 163.648 183.891 162.981 183.891 162.234C183.891 161.497 184.064 160.834 184.409 160.246C184.764 159.649 185.245 159.187 185.851 158.86C186.467 158.524 187.153 158.356 187.909 158.356C188.647 158.356 189.314 158.515 189.911 158.832C190.509 159.149 190.975 159.607 191.311 160.204C191.657 160.792 191.829 161.478 191.829 162.262ZM187.923 160.008C187.429 160.008 187.013 160.148 186.677 160.428C186.341 160.708 186.136 161.091 186.061 161.576H189.771C189.697 161.1 189.491 160.722 189.155 160.442C188.819 160.153 188.409 160.008 187.923 160.008ZM195.369 159.462C195.631 159.098 195.981 158.823 196.419 158.636C196.867 158.449 197.381 158.356 197.959 158.356V160.372C197.717 160.353 197.553 160.344 197.469 160.344C196.844 160.344 196.354 160.521 195.999 160.876C195.645 161.221 195.467 161.744 195.467 162.444V166H193.283V158.468H195.369V159.462ZM206.568 162.262C206.568 162.29 206.554 162.486 206.526 162.85H200.828C200.93 163.317 201.173 163.685 201.556 163.956C201.938 164.227 202.414 164.362 202.984 164.362C203.376 164.362 203.721 164.306 204.02 164.194C204.328 164.073 204.612 163.886 204.874 163.634L206.036 164.894C205.326 165.706 204.29 166.112 202.928 166.112C202.078 166.112 201.327 165.949 200.674 165.622C200.02 165.286 199.516 164.824 199.162 164.236C198.807 163.648 198.63 162.981 198.63 162.234C198.63 161.497 198.802 160.834 199.148 160.246C199.502 159.649 199.983 159.187 200.59 158.86C201.206 158.524 201.892 158.356 202.648 158.356C203.385 158.356 204.052 158.515 204.65 158.832C205.247 159.149 205.714 159.607 206.05 160.204C206.395 160.792 206.568 161.478 206.568 162.262ZM202.662 160.008C202.167 160.008 201.752 160.148 201.416 160.428C201.08 160.708 200.874 161.091 200.8 161.576H204.51C204.435 161.1 204.23 160.722 203.894 160.442C203.558 160.153 203.147 160.008 202.662 160.008ZM211.662 166.112C210.859 166.112 210.136 165.949 209.492 165.622C208.857 165.286 208.358 164.824 207.994 164.236C207.639 163.648 207.462 162.981 207.462 162.234C207.462 161.487 207.639 160.82 207.994 160.232C208.358 159.644 208.857 159.187 209.492 158.86C210.136 158.524 210.859 158.356 211.662 158.356C212.455 158.356 213.146 158.524 213.734 158.86C214.331 159.187 214.765 159.658 215.036 160.274L213.342 161.184C212.95 160.493 212.385 160.148 211.648 160.148C211.078 160.148 210.607 160.335 210.234 160.708C209.86 161.081 209.674 161.59 209.674 162.234C209.674 162.878 209.86 163.387 210.234 163.76C210.607 164.133 211.078 164.32 211.648 164.32C212.394 164.32 212.959 163.975 213.342 163.284L215.036 164.208C214.765 164.805 214.331 165.272 213.734 165.608C213.146 165.944 212.455 166.112 211.662 166.112ZM220.816 158.356C221.75 158.356 222.501 158.636 223.07 159.196C223.649 159.756 223.938 160.587 223.938 161.688V166H221.754V162.024C221.754 161.427 221.624 160.983 221.362 160.694C221.101 160.395 220.723 160.246 220.228 160.246C219.678 160.246 219.239 160.419 218.912 160.764C218.586 161.1 218.422 161.604 218.422 162.276V166H216.238V155.612H218.422V159.252C218.712 158.963 219.062 158.743 219.472 158.594C219.883 158.435 220.331 158.356 220.816 158.356ZM228.956 158.356C230.123 158.356 231.019 158.636 231.644 159.196C232.269 159.747 232.582 160.582 232.582 161.702V166H230.538V165.062C230.127 165.762 229.362 166.112 228.242 166.112C227.663 166.112 227.159 166.014 226.73 165.818C226.31 165.622 225.988 165.351 225.764 165.006C225.54 164.661 225.428 164.269 225.428 163.83C225.428 163.13 225.689 162.579 226.212 162.178C226.744 161.777 227.561 161.576 228.662 161.576H230.398C230.398 161.1 230.253 160.736 229.964 160.484C229.675 160.223 229.241 160.092 228.662 160.092C228.261 160.092 227.864 160.157 227.472 160.288C227.089 160.409 226.763 160.577 226.492 160.792L225.708 159.266C226.119 158.977 226.609 158.753 227.178 158.594C227.757 158.435 228.349 158.356 228.956 158.356ZM228.788 164.642C229.161 164.642 229.493 164.558 229.782 164.39C230.071 164.213 230.277 163.956 230.398 163.62V162.85H228.9C228.004 162.85 227.556 163.144 227.556 163.732C227.556 164.012 227.663 164.236 227.878 164.404C228.102 164.563 228.405 164.642 228.788 164.642Z" fill="#333333"/>
<path d="M265.648 166.112C264.845 166.112 264.122 165.949 263.478 165.622C262.843 165.286 262.344 164.824 261.98 164.236C261.625 163.648 261.448 162.981 261.448 162.234C261.448 161.487 261.625 160.82 261.98 160.232C262.344 159.644 262.843 159.187 263.478 158.86C264.122 158.524 264.845 158.356 265.648 158.356C266.441 158.356 267.132 158.524 267.72 158.86C268.317 159.187 268.751 159.658 269.022 160.274L267.328 161.184C266.936 160.493 266.371 160.148 265.634 160.148C265.065 160.148 264.593 160.335 264.22 160.708C263.847 161.081 263.66 161.59 263.66 162.234C263.66 162.878 263.847 163.387 264.22 163.76C264.593 164.133 265.065 164.32 265.634 164.32C266.381 164.32 266.945 163.975 267.328 163.284L269.022 164.208C268.751 164.805 268.317 165.272 267.72 165.608C267.132 165.944 266.441 166.112 265.648 166.112ZM277.867 158.468V166H275.795V165.104C275.506 165.431 275.161 165.683 274.759 165.86C274.358 166.028 273.924 166.112 273.457 166.112C272.468 166.112 271.684 165.827 271.105 165.258C270.527 164.689 270.237 163.844 270.237 162.724V158.468H272.421V162.402C272.421 163.615 272.93 164.222 273.947 164.222C274.47 164.222 274.89 164.054 275.207 163.718C275.525 163.373 275.683 162.864 275.683 162.192V158.468H277.867ZM282.929 158.356C284.095 158.356 284.991 158.636 285.617 159.196C286.242 159.747 286.555 160.582 286.555 161.702V166H284.511V165.062C284.1 165.762 283.335 166.112 282.215 166.112C281.636 166.112 281.132 166.014 280.703 165.818C280.283 165.622 279.961 165.351 279.737 165.006C279.513 164.661 279.401 164.269 279.401 163.83C279.401 163.13 279.662 162.579 280.185 162.178C280.717 161.777 281.533 161.576 282.635 161.576H284.371C284.371 161.1 284.226 160.736 283.937 160.484C283.647 160.223 283.213 160.092 282.635 160.092C282.233 160.092 281.837 160.157 281.445 160.288C281.062 160.409 280.735 160.577 280.465 160.792L279.681 159.266C280.091 158.977 280.581 158.753 281.151 158.594C281.729 158.435 282.322 158.356 282.929 158.356ZM282.761 164.642C283.134 164.642 283.465 164.558 283.755 164.39C284.044 164.213 284.249 163.956 284.371 163.62V162.85H282.873C281.977 162.85 281.529 163.144 281.529 163.732C281.529 164.012 281.636 164.236 281.851 164.404C282.075 164.563 282.378 164.642 282.761 164.642ZM296.285 155.612V166H294.199V165.132C293.658 165.785 292.874 166.112 291.847 166.112C291.138 166.112 290.494 165.953 289.915 165.636C289.346 165.319 288.898 164.866 288.571 164.278C288.245 163.69 288.081 163.009 288.081 162.234C288.081 161.459 288.245 160.778 288.571 160.19C288.898 159.602 289.346 159.149 289.915 158.832C290.494 158.515 291.138 158.356 291.847 158.356C292.809 158.356 293.56 158.659 294.101 159.266V155.612H296.285ZM292.225 164.32C292.776 164.32 293.233 164.133 293.597 163.76C293.961 163.377 294.143 162.869 294.143 162.234C294.143 161.599 293.961 161.095 293.597 160.722C293.233 160.339 292.776 160.148 292.225 160.148C291.665 160.148 291.203 160.339 290.839 160.722C290.475 161.095 290.293 161.599 290.293 162.234C290.293 162.869 290.475 163.377 290.839 163.76C291.203 164.133 291.665 164.32 292.225 164.32ZM300.393 159.462C300.654 159.098 301.004 158.823 301.443 158.636C301.891 158.449 302.404 158.356 302.983 158.356V160.372C302.74 160.353 302.577 160.344 302.493 160.344C301.867 160.344 301.377 160.521 301.023 160.876C300.668 161.221 300.491 161.744 300.491 162.444V166H298.307V158.468H300.393V159.462ZM307.797 166.112C307.004 166.112 306.29 165.949 305.655 165.622C305.03 165.286 304.54 164.824 304.185 164.236C303.83 163.648 303.653 162.981 303.653 162.234C303.653 161.487 303.83 160.82 304.185 160.232C304.54 159.644 305.03 159.187 305.655 158.86C306.29 158.524 307.004 158.356 307.797 158.356C308.59 158.356 309.3 158.524 309.925 158.86C310.55 159.187 311.04 159.644 311.395 160.232C311.75 160.82 311.927 161.487 311.927 162.234C311.927 162.981 311.75 163.648 311.395 164.236C311.04 164.824 310.55 165.286 309.925 165.622C309.3 165.949 308.59 166.112 307.797 166.112ZM307.797 164.32C308.357 164.32 308.814 164.133 309.169 163.76C309.533 163.377 309.715 162.869 309.715 162.234C309.715 161.599 309.533 161.095 309.169 160.722C308.814 160.339 308.357 160.148 307.797 160.148C307.237 160.148 306.775 160.339 306.411 160.722C306.047 161.095 305.865 161.599 305.865 162.234C305.865 162.869 306.047 163.377 306.411 163.76C306.775 164.133 307.237 164.32 307.797 164.32ZM315.921 166.112C315.296 166.112 314.684 166.037 314.087 165.888C313.49 165.729 313.014 165.533 312.659 165.3L313.387 163.732C313.723 163.947 314.129 164.124 314.605 164.264C315.081 164.395 315.548 164.46 316.005 164.46C316.929 164.46 317.391 164.231 317.391 163.774C317.391 163.559 317.265 163.405 317.013 163.312C316.761 163.219 316.374 163.139 315.851 163.074C315.235 162.981 314.726 162.873 314.325 162.752C313.924 162.631 313.574 162.416 313.275 162.108C312.986 161.8 312.841 161.361 312.841 160.792C312.841 160.316 312.976 159.896 313.247 159.532C313.527 159.159 313.928 158.869 314.451 158.664C314.983 158.459 315.608 158.356 316.327 158.356C316.859 158.356 317.386 158.417 317.909 158.538C318.441 158.65 318.88 158.809 319.225 159.014L318.497 160.568C317.834 160.195 317.111 160.008 316.327 160.008C315.86 160.008 315.51 160.073 315.277 160.204C315.044 160.335 314.927 160.503 314.927 160.708C314.927 160.941 315.053 161.105 315.305 161.198C315.557 161.291 315.958 161.38 316.509 161.464C317.125 161.567 317.629 161.679 318.021 161.8C318.413 161.912 318.754 162.122 319.043 162.43C319.332 162.738 319.477 163.167 319.477 163.718C319.477 164.185 319.337 164.6 319.057 164.964C318.777 165.328 318.366 165.613 317.825 165.818C317.293 166.014 316.658 166.112 315.921 166.112Z" fill="#333333"/>
<rect x="243" y="152" width="15" height="19" rx="5" fill="#F2F2F2"/>
<path d="M251.622 160.36C252.603 160.52 253.355 160.888 253.878 161.464C254.4 162.029 254.662 162.733 254.662 163.576C254.662 164.227 254.491 164.829 254.15 165.384C253.808 165.928 253.286 166.365 252.582 166.696C251.888 167.027 251.035 167.192 250.022 167.192C249.232 167.192 248.454 167.091 247.686 166.888C246.928 166.675 246.283 166.376 245.75 165.992L246.758 164.008C247.184 164.328 247.675 164.579 248.23 164.76C248.795 164.931 249.371 165.016 249.958 165.016C250.608 165.016 251.12 164.893 251.494 164.648C251.867 164.392 252.054 164.035 252.054 163.576C252.054 162.659 251.355 162.2 249.958 162.2H248.774V160.488L251.078 157.88H246.31V155.8H254.15V157.48L251.622 160.36Z" fill="#008E86"/>

</g>
</g>
<defs>
<filter id="filter0_d_2878:99251" x="0" y="0" width="380" height="224" filterUnits="userSpaceOnUse" color-interpolation-filters="sRGB">
<feFlood flood-opacity="0" result="BackgroundImageFix"/>
<feColorMatrix in="SourceAlpha" type="matrix" values="0 0 0 0 0 0 0 0 0 0 0 0 0 0 0 0 0 0 127 0" result="hardAlpha"/>
<feOffset dy="4"/>
<feColorMatrix type="matrix" values="0 0 0 0 0 0 0 0 0 0 0 0 0 0 0 0 0 0 0.25 0"/>
<feBlend mode="normal" in2="BackgroundImageFix" result="effect1_dropShadow_2878:99251"/>
<feBlend mode="normal" in="SourceGraphic" in2="effect1_dropShadow_2878:99251" result="shape"/>
</filter>
<clipPath id="clip0_2878:99251">
<rect width="380" height="220" rx="20" fill="white"/>
</clipPath>
</defs>
</svg>
