<svg width="380" height="180" viewBox="0 0 380 180" fill="none" xmlns="http://www.w3.org/2000/svg">
<rect width="380" height="180" rx="20" fill="white"/>
<rect x="20" y="20" width="40" height="40" rx="20" fill="#3FDFE9"/>
<path d="M45.7556 42.8325H44.1795C42.933 42.8325 41.9208 43.8495 41.9208 45.0982V46.6791C41.9208 47.9294 42.9347 48.9448 44.1795 48.9448H45.7556C47.0021 48.9448 48.0143 47.9277 48.0143 46.6791V45.0982C48.016 43.8495 47.0021 42.8325 45.7556 42.8325ZM46.3428 46.6791C46.3428 47.003 46.0802 47.2665 45.7573 47.2665H44.1812C43.8583 47.2665 43.5956 47.003 43.5956 46.6791V45.0982C43.5956 44.7742 43.8583 44.5107 44.1812 44.5107H45.7573C46.0802 44.5107 46.3428 44.7742 46.3428 45.0982V46.6791Z" fill="#F2F2F2"/>
<path d="M52.5 35.7367C52.5 35.255 52.3511 34.7935 52.0683 34.4042L47.7483 28.4378C47.3234 27.8521 46.6407 27.503 45.9196 27.503H34.0839C33.3628 27.503 32.6802 27.8521 32.2552 28.4378L27.9352 34.4058C27.6524 34.7952 27.5035 35.255 27.5035 35.7367V36.987C27.5035 37.0206 27.5102 37.0525 27.5136 37.0844C27.5102 37.1179 27.5035 37.1498 27.5035 37.1817C27.5035 38.4555 28.1377 39.5817 29.1047 40.2631V50.2321C29.1047 51.4824 30.1186 52.4978 31.3634 52.4978H32.3439C33.5904 52.4978 34.6026 51.4808 34.6026 50.2321V44.9237C34.6026 44.5998 34.8653 44.3363 35.1882 44.3363H38.5796C38.9025 44.3363 39.1652 44.5998 39.1652 44.9237V50.2321C39.1652 51.4824 40.1791 52.4978 41.4239 52.4978H48.6384C49.8849 52.4978 50.8972 51.4808 50.8972 50.2321V40.2631C51.8642 39.5817 52.5 38.4555 52.5 37.1817C52.5 37.1482 52.4933 37.1163 52.49 37.0844C52.4933 37.0525 52.5 37.0206 52.5 36.987V35.7367ZM29.1767 35.7367C29.1767 35.6108 29.2151 35.4917 29.2888 35.391L33.6104 29.423C33.7209 29.2719 33.8982 29.1813 34.0839 29.1813H45.9196C46.107 29.1813 46.2844 29.2719 46.3931 29.423L50.7148 35.391C50.7884 35.4917 50.8269 35.6108 50.8269 35.7367V36.987C50.8269 37.0206 50.8336 37.0525 50.8369 37.0844C50.8336 37.1163 50.8269 37.1482 50.8269 37.1817C50.8269 38.3314 49.895 39.2678 48.7472 39.2678C47.5994 39.2678 46.6675 38.333 46.6675 37.1817C46.6675 36.7185 46.2927 36.3426 45.8309 36.3426C45.3692 36.3426 44.9944 36.7185 44.9944 37.1817C44.9944 38.3314 44.0624 39.2678 42.9147 39.2678C41.7686 39.2678 40.8367 38.333 40.8367 37.1817C40.8367 36.7185 40.4619 36.3426 40.0001 36.3426C39.5383 36.3426 39.1635 36.7185 39.1635 37.1817C39.1635 38.3314 38.2316 39.2678 37.0838 39.2678C35.9361 39.2678 35.0042 38.333 35.0042 37.1817C35.0042 36.7185 34.6294 36.3426 34.1676 36.3426C33.7058 36.3426 33.331 36.7185 33.331 37.1817C33.331 38.3314 32.3991 39.2678 31.2513 39.2678C30.1086 39.2678 29.1767 38.333 29.1767 37.1817C29.1767 37.1482 29.17 37.1163 29.1666 37.0844C29.17 37.0525 29.1767 37.0206 29.1767 36.987V35.7367ZM49.2257 50.2338C49.2257 50.5577 48.963 50.8212 48.6401 50.8212H41.4256C41.1027 50.8212 40.84 50.5577 40.84 50.2338V44.9254C40.84 43.675 39.8261 42.6597 38.5813 42.6597H35.1899C33.9434 42.6597 32.9312 43.6767 32.9312 44.9254V50.2338C32.9312 50.5577 32.6685 50.8212 32.3456 50.8212H31.3651C31.0422 50.8212 30.7795 50.5577 30.7795 50.2338V40.9142C30.9351 40.9344 31.0941 40.9461 31.2564 40.9461C32.4326 40.9461 33.4833 40.4007 34.1726 39.5481C34.8603 40.4007 35.9127 40.9461 37.0889 40.9461C38.2651 40.9461 39.3158 40.4007 40.0051 39.5481C40.6928 40.4007 41.7452 40.9461 42.9197 40.9461C44.0959 40.9461 45.1466 40.4007 45.836 39.5481C46.5236 40.4007 47.576 40.9461 48.7522 40.9461C48.9145 40.9461 49.0735 40.9344 49.2291 40.9142V50.2338H49.2257Z" fill="#F2F2F2"/>
<path d="M92.5 34.4V37H81.66V23H92.24V25.6H84.88V28.64H91.38V31.16H84.88V34.4H92.5ZM94.0673 30.12H99.7273V32.62H94.0673V30.12ZM105.802 37.16C104.909 37.16 104.036 37.0533 103.182 36.84C102.329 36.6133 101.649 36.3333 101.142 36L102.182 33.76C102.662 34.0667 103.242 34.32 103.922 34.52C104.602 34.7067 105.269 34.8 105.922 34.8C107.242 34.8 107.902 34.4733 107.902 33.82C107.902 33.5133 107.722 33.2933 107.362 33.16C107.002 33.0267 106.449 32.9133 105.702 32.82C104.822 32.6867 104.096 32.5333 103.522 32.36C102.949 32.1867 102.449 31.88 102.022 31.44C101.609 31 101.402 30.3733 101.402 29.56C101.402 28.88 101.596 28.28 101.982 27.76C102.382 27.2267 102.956 26.8133 103.702 26.52C104.462 26.2267 105.356 26.08 106.382 26.08C107.142 26.08 107.896 26.1667 108.642 26.34C109.402 26.5 110.029 26.7267 110.522 27.02L109.482 29.24C108.536 28.7067 107.502 28.44 106.382 28.44C105.716 28.44 105.216 28.5333 104.882 28.72C104.549 28.9067 104.382 29.1467 104.382 29.44C104.382 29.7733 104.562 30.0067 104.922 30.14C105.282 30.2733 105.856 30.4 106.642 30.52C107.522 30.6667 108.242 30.8267 108.802 31C109.362 31.16 109.849 31.46 110.262 31.9C110.676 32.34 110.882 32.9533 110.882 33.74C110.882 34.4067 110.682 35 110.282 35.52C109.882 36.04 109.296 36.4467 108.522 36.74C107.762 37.02 106.856 37.16 105.802 37.16ZM119.747 36.48C119.441 36.7067 119.061 36.88 118.607 37C118.167 37.1067 117.701 37.16 117.207 37.16C115.927 37.16 114.934 36.8333 114.227 36.18C113.534 35.5267 113.187 34.5667 113.187 33.3V28.88H111.527V26.48H113.187V23.86H116.307V26.48H118.987V28.88H116.307V33.26C116.307 33.7133 116.421 34.0667 116.647 34.32C116.887 34.56 117.221 34.68 117.647 34.68C118.141 34.68 118.561 34.5467 118.907 34.28L119.747 36.48ZM126.287 37.16C125.153 37.16 124.133 36.9267 123.227 36.46C122.333 35.98 121.633 35.32 121.127 34.48C120.62 33.64 120.367 32.6867 120.367 31.62C120.367 30.5533 120.62 29.6 121.127 28.76C121.633 27.92 122.333 27.2667 123.227 26.8C124.133 26.32 125.153 26.08 126.287 26.08C127.42 26.08 128.433 26.32 129.327 26.8C130.22 27.2667 130.92 27.92 131.427 28.76C131.933 29.6 132.187 30.5533 132.187 31.62C132.187 32.6867 131.933 33.64 131.427 34.48C130.92 35.32 130.22 35.98 129.327 36.46C128.433 36.9267 127.42 37.16 126.287 37.16ZM126.287 34.6C127.087 34.6 127.74 34.3333 128.247 33.8C128.767 33.2533 129.027 32.5267 129.027 31.62C129.027 30.7133 128.767 29.9933 128.247 29.46C127.74 28.9133 127.087 28.64 126.287 28.64C125.487 28.64 124.827 28.9133 124.307 29.46C123.787 29.9933 123.527 30.7133 123.527 31.62C123.527 32.5267 123.787 33.2533 124.307 33.8C124.827 34.3333 125.487 34.6 126.287 34.6ZM137.252 27.66C137.625 27.14 138.125 26.7467 138.752 26.48C139.392 26.2133 140.125 26.08 140.952 26.08V28.96C140.605 28.9333 140.372 28.92 140.252 28.92C139.359 28.92 138.659 29.1733 138.152 29.68C137.645 30.1733 137.392 30.92 137.392 31.92V37H134.272V26.24H137.252V27.66ZM153.25 31.66C153.25 31.7 153.23 31.98 153.19 32.5H145.05C145.196 33.1667 145.543 33.6933 146.09 34.08C146.636 34.4667 147.316 34.66 148.13 34.66C148.69 34.66 149.183 34.58 149.61 34.42C150.05 34.2467 150.456 33.98 150.83 33.62L152.49 35.42C151.476 36.58 149.996 37.16 148.05 37.16C146.836 37.16 145.763 36.9267 144.83 36.46C143.896 35.98 143.176 35.32 142.67 34.48C142.163 33.64 141.91 32.6867 141.91 31.62C141.91 30.5667 142.156 29.62 142.65 28.78C143.156 27.9267 143.843 27.2667 144.71 26.8C145.59 26.32 146.57 26.08 147.65 26.08C148.703 26.08 149.656 26.3067 150.51 26.76C151.363 27.2133 152.03 27.8667 152.51 28.72C153.003 29.56 153.25 30.54 153.25 31.66ZM147.67 28.44C146.963 28.44 146.37 28.64 145.89 29.04C145.41 29.44 145.116 29.9867 145.01 30.68H150.31C150.203 30 149.91 29.46 149.43 29.06C148.95 28.6467 148.363 28.44 147.67 28.44Z" fill="#00635D"/>
<path d="M28.848 93.008H22.608L21.264 96H20.032L25.152 84.8H26.32L31.44 96H30.192L28.848 93.008ZM28.416 92.048L25.728 86.032L23.04 92.048H28.416ZM37.3408 87.52C38.3968 87.52 39.2341 87.8293 39.8528 88.448C40.4821 89.056 40.7968 89.9467 40.7968 91.12V96H39.6608V91.232C39.6608 90.3573 39.4421 89.6907 39.0048 89.232C38.5674 88.7733 37.9434 88.544 37.1328 88.544C36.2261 88.544 35.5061 88.816 34.9728 89.36C34.4501 89.8933 34.1888 90.6347 34.1888 91.584V96H33.0528V87.584H34.1408V89.136C34.4501 88.624 34.8768 88.2293 35.4208 87.952C35.9754 87.664 36.6154 87.52 37.3408 87.52ZM48.3129 95.488C48.0995 95.68 47.8329 95.8293 47.5129 95.936C47.2035 96.032 46.8782 96.08 46.5369 96.08C45.7475 96.08 45.1395 95.8667 44.7129 95.44C44.2862 95.0133 44.0729 94.4107 44.0729 93.632V88.544H42.5689V87.584H44.0729V85.744H45.2089V87.584H47.7689V88.544H45.2089V93.568C45.2089 94.0693 45.3315 94.4533 45.5769 94.72C45.8329 94.976 46.1955 95.104 46.6649 95.104C46.8995 95.104 47.1235 95.0667 47.3369 94.992C47.5609 94.9173 47.7529 94.8107 47.9129 94.672L48.3129 95.488ZM50.3809 87.584H51.5169V96H50.3809V87.584ZM50.9569 85.744C50.7222 85.744 50.5249 85.664 50.3649 85.504C50.2049 85.344 50.1249 85.152 50.1249 84.928C50.1249 84.7147 50.2049 84.528 50.3649 84.368C50.5249 84.208 50.7222 84.128 50.9569 84.128C51.1915 84.128 51.3889 84.208 51.5489 84.368C51.7089 84.5173 51.7889 84.6987 51.7889 84.912C51.7889 85.1467 51.7089 85.344 51.5489 85.504C51.3889 85.664 51.1915 85.744 50.9569 85.744ZM62.4698 87.584V94.976C62.4698 96.4053 62.1178 97.4613 61.4138 98.144C60.7204 98.8373 59.6698 99.184 58.2618 99.184C57.4831 99.184 56.7418 99.0667 56.0378 98.832C55.3444 98.608 54.7791 98.2933 54.3418 97.888L54.9178 97.024C55.3231 97.3867 55.8138 97.6693 56.3898 97.872C56.9764 98.0747 57.5898 98.176 58.2298 98.176C59.2964 98.176 60.0804 97.9253 60.5818 97.424C61.0831 96.9333 61.3338 96.1653 61.3338 95.12V94.048C60.9818 94.5813 60.5178 94.9867 59.9418 95.264C59.3764 95.5413 58.7471 95.68 58.0538 95.68C57.2644 95.68 56.5444 95.5093 55.8938 95.168C55.2538 94.816 54.7471 94.3307 54.3738 93.712C54.0111 93.0827 53.8298 92.3733 53.8298 91.584C53.8298 90.7947 54.0111 90.0907 54.3738 89.472C54.7471 88.8533 55.2538 88.3733 55.8938 88.032C56.5338 87.6907 57.2538 87.52 58.0538 87.52C58.7684 87.52 59.4138 87.664 59.9898 87.952C60.5658 88.24 61.0298 88.656 61.3818 89.2V87.584H62.4698ZM58.1658 94.672C58.7738 94.672 59.3231 94.544 59.8138 94.288C60.3044 94.0213 60.6831 93.6533 60.9498 93.184C61.2271 92.7147 61.3658 92.1813 61.3658 91.584C61.3658 90.9867 61.2271 90.4587 60.9498 90C60.6831 89.5307 60.3044 89.168 59.8138 88.912C59.3338 88.6453 58.7844 88.512 58.1658 88.512C57.5578 88.512 57.0084 88.64 56.5178 88.896C56.0378 89.152 55.6591 89.5147 55.3818 89.984C55.1151 90.4533 54.9818 90.9867 54.9818 91.584C54.9818 92.1813 55.1151 92.7147 55.3818 93.184C55.6591 93.6533 56.0378 94.0213 56.5178 94.288C57.0084 94.544 57.5578 94.672 58.1658 94.672ZM73.2305 87.584V96H72.1425V94.464C71.8438 94.976 71.4332 95.376 70.9105 95.664C70.3878 95.9413 69.7905 96.08 69.1185 96.08C68.0198 96.08 67.1505 95.776 66.5105 95.168C65.8812 94.5493 65.5665 93.648 65.5665 92.464V87.584H66.7025V92.352C66.7025 93.2373 66.9212 93.9093 67.3585 94.368C67.7958 94.8267 68.4198 95.056 69.2305 95.056C70.1158 95.056 70.8145 94.7893 71.3265 94.256C71.8385 93.712 72.0945 92.96 72.0945 92V87.584H73.2305ZM67.9825 85.904C67.7905 85.904 67.6252 85.84 67.4865 85.712C67.3585 85.584 67.2945 85.4187 67.2945 85.216C67.2945 85.024 67.3585 84.864 67.4865 84.736C67.6252 84.5973 67.7905 84.528 67.9825 84.528C68.1638 84.528 68.3238 84.5973 68.4625 84.736C68.6012 84.864 68.6705 85.024 68.6705 85.216C68.6705 85.408 68.6012 85.5733 68.4625 85.712C68.3345 85.84 68.1745 85.904 67.9825 85.904ZM70.8305 85.904C70.6385 85.904 70.4732 85.84 70.3345 85.712C70.2065 85.5733 70.1425 85.408 70.1425 85.216C70.1425 85.024 70.2118 84.864 70.3505 84.736C70.4892 84.5973 70.6492 84.528 70.8305 84.528C71.0225 84.528 71.1825 84.5973 71.3105 84.736C71.4492 84.864 71.5185 85.024 71.5185 85.216C71.5185 85.4187 71.4492 85.584 71.3105 85.712C71.1825 85.84 71.0225 85.904 70.8305 85.904ZM83.7401 92.144H76.7001C76.7641 93.0187 77.1001 93.728 77.7081 94.272C78.3161 94.8053 79.0841 95.072 80.0121 95.072C80.5348 95.072 81.0148 94.9813 81.4521 94.8C81.8895 94.608 82.2681 94.3307 82.5881 93.968L83.2281 94.704C82.8548 95.152 82.3855 95.4933 81.8201 95.728C81.2655 95.9627 80.6521 96.08 79.9801 96.08C79.1161 96.08 78.3481 95.8987 77.6761 95.536C77.0148 95.1627 76.4975 94.6507 76.1241 94C75.7508 93.3493 75.5641 92.6133 75.5641 91.792C75.5641 90.9707 75.7401 90.2347 76.0921 89.584C76.4548 88.9333 76.9455 88.4267 77.5641 88.064C78.1935 87.7013 78.8975 87.52 79.6761 87.52C80.4548 87.52 81.1535 87.7013 81.7721 88.064C82.3908 88.4267 82.8761 88.9333 83.2281 89.584C83.5801 90.224 83.7561 90.96 83.7561 91.792L83.7401 92.144ZM79.6761 88.496C78.8655 88.496 78.1828 88.7573 77.6281 89.28C77.0841 89.792 76.7748 90.464 76.7001 91.296H82.6681C82.5935 90.464 82.2788 89.792 81.7241 89.28C81.1801 88.7573 80.4975 88.496 79.6761 88.496ZM93.7484 84.128V96H92.6604V94.336C92.319 94.9013 91.8657 95.3333 91.3004 95.632C90.7457 95.9307 90.1164 96.08 89.4124 96.08C88.623 96.08 87.9084 95.8987 87.2684 95.536C86.6284 95.1733 86.127 94.6667 85.7644 94.016C85.4017 93.3653 85.2204 92.624 85.2204 91.792C85.2204 90.96 85.4017 90.2187 85.7644 89.568C86.127 88.9173 86.6284 88.416 87.2684 88.064C87.9084 87.7013 88.623 87.52 89.4124 87.52C90.095 87.52 90.7084 87.664 91.2524 87.952C91.807 88.2293 92.2604 88.64 92.6124 89.184V84.128H93.7484ZM89.5084 95.072C90.095 95.072 90.623 94.9387 91.0924 94.672C91.5724 94.3947 91.9457 94.0053 92.2124 93.504C92.4897 93.0027 92.6284 92.432 92.6284 91.792C92.6284 91.152 92.4897 90.5813 92.2124 90.08C91.9457 89.5787 91.5724 89.1947 91.0924 88.928C90.623 88.6507 90.095 88.512 89.5084 88.512C88.911 88.512 88.3724 88.6507 87.8924 88.928C87.423 89.1947 87.0497 89.5787 86.7724 90.08C86.5057 90.5813 86.3724 91.152 86.3724 91.792C86.3724 92.432 86.5057 93.0027 86.7724 93.504C87.0497 94.0053 87.423 94.3947 87.8924 94.672C88.3724 94.9387 88.911 95.072 89.5084 95.072ZM99.8561 87.52C100.955 87.52 101.797 87.7973 102.384 88.352C102.971 88.896 103.264 89.7067 103.264 90.784V96H102.176V94.688C101.92 95.1253 101.541 95.4667 101.04 95.712C100.549 95.9573 99.9628 96.08 99.2801 96.08C98.3415 96.08 97.5948 95.856 97.0401 95.408C96.4855 94.96 96.2081 94.368 96.2081 93.632C96.2081 92.9173 96.4641 92.3413 96.9761 91.904C97.4988 91.4667 98.3255 91.248 99.4561 91.248H102.128V90.736C102.128 90.0107 101.925 89.4613 101.52 89.088C101.115 88.704 100.523 88.512 99.7441 88.512C99.2108 88.512 98.6988 88.6027 98.2081 88.784C97.7175 88.9547 97.2961 89.1947 96.9441 89.504L96.4321 88.656C96.8588 88.2933 97.3708 88.016 97.9681 87.824C98.5655 87.6213 99.1948 87.52 99.8561 87.52ZM99.4561 95.184C100.096 95.184 100.645 95.04 101.104 94.752C101.563 94.4533 101.904 94.0267 102.128 93.472V92.096H99.4881C98.0481 92.096 97.3281 92.5973 97.3281 93.6C97.3281 94.0907 97.5148 94.48 97.8881 94.768C98.2615 95.0453 98.7841 95.184 99.4561 95.184ZM114.061 84.128V96H112.973V94.336C112.632 94.9013 112.178 95.3333 111.613 95.632C111.058 95.9307 110.429 96.08 109.725 96.08C108.936 96.08 108.221 95.8987 107.581 95.536C106.941 95.1733 106.44 94.6667 106.077 94.016C105.714 93.3653 105.533 92.624 105.533 91.792C105.533 90.96 105.714 90.2187 106.077 89.568C106.44 88.9173 106.941 88.416 107.581 88.064C108.221 87.7013 108.936 87.52 109.725 87.52C110.408 87.52 111.021 87.664 111.565 87.952C112.12 88.2293 112.573 88.64 112.925 89.184V84.128H114.061ZM109.821 95.072C110.408 95.072 110.936 94.9387 111.405 94.672C111.885 94.3947 112.258 94.0053 112.525 93.504C112.802 93.0027 112.941 92.432 112.941 91.792C112.941 91.152 112.802 90.5813 112.525 90.08C112.258 89.5787 111.885 89.1947 111.405 88.928C110.936 88.6507 110.408 88.512 109.821 88.512C109.224 88.512 108.685 88.6507 108.205 88.928C107.736 89.1947 107.362 89.5787 107.085 90.08C106.818 90.5813 106.685 91.152 106.685 91.792C106.685 92.432 106.818 93.0027 107.085 93.504C107.362 94.0053 107.736 94.3947 108.205 94.672C108.685 94.9387 109.224 95.072 109.821 95.072Z" fill="#828282"/>
<path d="M167.79 52.58V60H167.11V58.96C166.897 59.3133 166.613 59.5833 166.26 59.77C165.913 59.9567 165.52 60.05 165.08 60.05C164.587 60.05 164.14 59.9367 163.74 59.71C163.34 59.4833 163.027 59.1667 162.8 58.76C162.573 58.3533 162.46 57.89 162.46 57.37C162.46 56.85 162.573 56.3867 162.8 55.98C163.027 55.5733 163.34 55.26 163.74 55.04C164.14 54.8133 164.587 54.7 165.08 54.7C165.507 54.7 165.89 54.79 166.23 54.97C166.577 55.1433 166.86 55.4 167.08 55.74V52.58H167.79ZM165.14 59.42C165.507 59.42 165.837 59.3367 166.13 59.17C166.43 58.9967 166.663 58.7533 166.83 58.44C167.003 58.1267 167.09 57.77 167.09 57.37C167.09 56.97 167.003 56.6133 166.83 56.3C166.663 55.9867 166.43 55.7467 166.13 55.58C165.837 55.4067 165.507 55.32 165.14 55.32C164.767 55.32 164.43 55.4067 164.13 55.58C163.837 55.7467 163.603 55.9867 163.43 56.3C163.263 56.6133 163.18 56.97 163.18 57.37C163.18 57.77 163.263 58.1267 163.43 58.44C163.603 58.7533 163.837 58.9967 164.13 59.17C164.43 59.3367 164.767 59.42 165.14 59.42ZM174.347 57.59H169.947C169.987 58.1367 170.197 58.58 170.577 58.92C170.957 59.2533 171.437 59.42 172.017 59.42C172.344 59.42 172.644 59.3633 172.917 59.25C173.191 59.13 173.427 58.9567 173.627 58.73L174.027 59.19C173.794 59.47 173.501 59.6833 173.147 59.83C172.801 59.9767 172.417 60.05 171.997 60.05C171.457 60.05 170.977 59.9367 170.557 59.71C170.144 59.4767 169.821 59.1567 169.587 58.75C169.354 58.3433 169.237 57.8833 169.237 57.37C169.237 56.8567 169.347 56.3967 169.567 55.99C169.794 55.5833 170.101 55.2667 170.487 55.04C170.881 54.8133 171.321 54.7 171.807 54.7C172.294 54.7 172.731 54.8133 173.117 55.04C173.504 55.2667 173.807 55.5833 174.027 55.99C174.247 56.39 174.357 56.85 174.357 57.37L174.347 57.59ZM171.807 55.31C171.301 55.31 170.874 55.4733 170.527 55.8C170.187 56.12 169.994 56.54 169.947 57.06H173.677C173.631 56.54 173.434 56.12 173.087 55.8C172.747 55.4733 172.321 55.31 171.807 55.31ZM182.73 59.36V60H177.82V59.49L180.73 56.64C181.096 56.28 181.343 55.97 181.47 55.71C181.603 55.4433 181.67 55.1767 181.67 54.91C181.67 54.4967 181.526 54.1767 181.24 53.95C180.96 53.7167 180.556 53.6 180.03 53.6C179.21 53.6 178.573 53.86 178.12 54.38L177.61 53.94C177.883 53.62 178.23 53.3733 178.65 53.2C179.076 53.0267 179.556 52.94 180.09 52.94C180.803 52.94 181.366 53.11 181.78 53.45C182.2 53.7833 182.41 54.2433 182.41 54.83C182.41 55.19 182.33 55.5367 182.17 55.87C182.01 56.2033 181.706 56.5867 181.26 57.02L178.88 59.36H182.73ZM188.87 60.05C188.364 60.05 187.907 59.9367 187.5 59.71C187.094 59.4767 186.774 59.1567 186.54 58.75C186.307 58.3433 186.19 57.8833 186.19 57.37C186.19 56.8567 186.307 56.3967 186.54 55.99C186.774 55.5833 187.094 55.2667 187.5 55.04C187.907 54.8133 188.364 54.7 188.87 54.7C189.377 54.7 189.834 54.8133 190.24 55.04C190.647 55.2667 190.964 55.5833 191.19 55.99C191.424 56.3967 191.54 56.8567 191.54 57.37C191.54 57.8833 191.424 58.3433 191.19 58.75C190.964 59.1567 190.647 59.4767 190.24 59.71C189.834 59.9367 189.377 60.05 188.87 60.05ZM188.87 59.42C189.244 59.42 189.577 59.3367 189.87 59.17C190.17 58.9967 190.404 58.7533 190.57 58.44C190.737 58.1267 190.82 57.77 190.82 57.37C190.82 56.97 190.737 56.6133 190.57 56.3C190.404 55.9867 190.17 55.7467 189.87 55.58C189.577 55.4067 189.244 55.32 188.87 55.32C188.497 55.32 188.16 55.4067 187.86 55.58C187.567 55.7467 187.334 55.9867 187.16 56.3C186.994 56.6133 186.91 56.97 186.91 57.37C186.91 57.77 186.994 58.1267 187.16 58.44C187.334 58.7533 187.567 58.9967 187.86 59.17C188.16 59.3367 188.497 59.42 188.87 59.42ZM195.7 54.7C196.193 54.7 196.64 54.8133 197.04 55.04C197.44 55.26 197.753 55.5733 197.98 55.98C198.207 56.3867 198.32 56.85 198.32 57.37C198.32 57.8967 198.207 58.3633 197.98 58.77C197.753 59.1767 197.44 59.4933 197.04 59.72C196.647 59.94 196.2 60.05 195.7 60.05C195.273 60.05 194.887 59.9633 194.54 59.79C194.2 59.61 193.92 59.35 193.7 59.01V61.94H192.99V54.74H193.67V55.78C193.883 55.4333 194.163 55.1667 194.51 54.98C194.863 54.7933 195.26 54.7 195.7 54.7ZM195.65 59.42C196.017 59.42 196.35 59.3367 196.65 59.17C196.95 58.9967 197.183 58.7533 197.35 58.44C197.523 58.1267 197.61 57.77 197.61 57.37C197.61 56.97 197.523 56.6167 197.35 56.31C197.183 55.9967 196.95 55.7533 196.65 55.58C196.35 55.4067 196.017 55.32 195.65 55.32C195.277 55.32 194.94 55.4067 194.64 55.58C194.347 55.7533 194.113 55.9967 193.94 56.31C193.773 56.6167 193.69 56.97 193.69 57.37C193.69 57.77 193.773 58.1267 193.94 58.44C194.113 58.7533 194.347 58.9967 194.64 59.17C194.94 59.3367 195.277 59.42 195.65 59.42ZM199.767 54.74H200.477V60H199.767V54.74ZM200.127 53.59C199.981 53.59 199.857 53.54 199.757 53.44C199.657 53.34 199.607 53.22 199.607 53.08C199.607 52.9467 199.657 52.83 199.757 52.73C199.857 52.63 199.981 52.58 200.127 52.58C200.274 52.58 200.397 52.63 200.497 52.73C200.597 52.8233 200.647 52.9367 200.647 53.07C200.647 53.2167 200.597 53.34 200.497 53.44C200.397 53.54 200.274 53.59 200.127 53.59ZM205.133 54.7C205.793 54.7 206.316 54.8933 206.703 55.28C207.096 55.66 207.293 56.2167 207.293 56.95V60H206.583V57.02C206.583 56.4733 206.446 56.0567 206.173 55.77C205.9 55.4833 205.51 55.34 205.003 55.34C204.436 55.34 203.986 55.51 203.653 55.85C203.326 56.1833 203.163 56.6467 203.163 57.24V60H202.453V54.74H203.133V55.71C203.326 55.39 203.593 55.1433 203.933 54.97C204.28 54.79 204.68 54.7 205.133 54.7ZM209.22 54.74H209.93V60H209.22V54.74ZM209.58 53.59C209.434 53.59 209.31 53.54 209.21 53.44C209.11 53.34 209.06 53.22 209.06 53.08C209.06 52.9467 209.11 52.83 209.21 52.73C209.31 52.63 209.434 52.58 209.58 52.58C209.727 52.58 209.85 52.63 209.95 52.73C210.05 52.8233 210.1 52.9367 210.1 53.07C210.1 53.2167 210.05 53.34 209.95 53.44C209.85 53.54 209.727 53.59 209.58 53.59ZM214.056 60.05C213.549 60.05 213.093 59.9367 212.686 59.71C212.279 59.4767 211.959 59.1567 211.726 58.75C211.493 58.3433 211.376 57.8833 211.376 57.37C211.376 56.8567 211.493 56.3967 211.726 55.99C211.959 55.5833 212.279 55.2667 212.686 55.04C213.093 54.8133 213.549 54.7 214.056 54.7C214.563 54.7 215.019 54.8133 215.426 55.04C215.833 55.2667 216.149 55.5833 216.376 55.99C216.609 56.3967 216.726 56.8567 216.726 57.37C216.726 57.8833 216.609 58.3433 216.376 58.75C216.149 59.1567 215.833 59.4767 215.426 59.71C215.019 59.9367 214.563 60.05 214.056 60.05ZM214.056 59.42C214.429 59.42 214.763 59.3367 215.056 59.17C215.356 58.9967 215.589 58.7533 215.756 58.44C215.923 58.1267 216.006 57.77 216.006 57.37C216.006 56.97 215.923 56.6133 215.756 56.3C215.589 55.9867 215.356 55.7467 215.056 55.58C214.763 55.4067 214.429 55.32 214.056 55.32C213.683 55.32 213.346 55.4067 213.046 55.58C212.753 55.7467 212.519 55.9867 212.346 56.3C212.179 56.6133 212.096 56.97 212.096 57.37C212.096 57.77 212.179 58.1267 212.346 58.44C212.519 58.7533 212.753 58.9967 213.046 59.17C213.346 59.3367 213.683 59.42 214.056 59.42ZM220.856 54.7C221.516 54.7 222.039 54.8933 222.426 55.28C222.819 55.66 223.016 56.2167 223.016 56.95V60H222.306V57.02C222.306 56.4733 222.169 56.0567 221.896 55.77C221.622 55.4833 221.232 55.34 220.726 55.34C220.159 55.34 219.709 55.51 219.376 55.85C219.049 56.1833 218.886 56.6467 218.886 57.24V60H218.176V54.74H218.856V55.71C219.049 55.39 219.316 55.1433 219.656 54.97C220.002 54.79 220.402 54.7 220.856 54.7ZM229.543 57.59H225.143C225.183 58.1367 225.393 58.58 225.773 58.92C226.153 59.2533 226.633 59.42 227.213 59.42C227.539 59.42 227.839 59.3633 228.113 59.25C228.386 59.13 228.623 58.9567 228.823 58.73L229.223 59.19C228.989 59.47 228.696 59.6833 228.343 59.83C227.996 59.9767 227.613 60.05 227.193 60.05C226.653 60.05 226.173 59.9367 225.753 59.71C225.339 59.4767 225.016 59.1567 224.783 58.75C224.549 58.3433 224.433 57.8833 224.433 57.37C224.433 56.8567 224.543 56.3967 224.763 55.99C224.989 55.5833 225.296 55.2667 225.683 55.04C226.076 54.8133 226.516 54.7 227.003 54.7C227.489 54.7 227.926 54.8133 228.313 55.04C228.699 55.2667 229.003 55.5833 229.223 55.99C229.443 56.39 229.553 56.85 229.553 57.37L229.543 57.59ZM227.003 55.31C226.496 55.31 226.069 55.4733 225.723 55.8C225.383 56.12 225.189 56.54 225.143 57.06H228.873C228.826 56.54 228.629 56.12 228.283 55.8C227.943 55.4733 227.516 55.31 227.003 55.31ZM232.408 60.05C231.981 60.05 231.571 59.99 231.178 59.87C230.791 59.7433 230.488 59.5867 230.268 59.4L230.588 58.84C230.808 59.0133 231.084 59.1567 231.418 59.27C231.751 59.3767 232.098 59.43 232.458 59.43C232.938 59.43 233.291 59.3567 233.518 59.21C233.751 59.0567 233.868 58.8433 233.868 58.57C233.868 58.3767 233.804 58.2267 233.678 58.12C233.551 58.0067 233.391 57.9233 233.198 57.87C233.004 57.81 232.748 57.7533 232.428 57.7C232.001 57.62 231.658 57.54 231.398 57.46C231.138 57.3733 230.914 57.23 230.728 57.03C230.548 56.83 230.458 56.5533 230.458 56.2C230.458 55.76 230.641 55.4 231.008 55.12C231.374 54.84 231.884 54.7 232.538 54.7C232.878 54.7 233.218 54.7467 233.558 54.84C233.898 54.9267 234.178 55.0433 234.398 55.19L234.088 55.76C233.654 55.46 233.138 55.31 232.538 55.31C232.084 55.31 231.741 55.39 231.508 55.55C231.281 55.71 231.168 55.92 231.168 56.18C231.168 56.38 231.231 56.54 231.358 56.66C231.491 56.78 231.654 56.87 231.848 56.93C232.041 56.9833 232.308 57.04 232.648 57.1C233.068 57.18 233.404 57.26 233.658 57.34C233.911 57.42 234.128 57.5567 234.308 57.75C234.488 57.9433 234.578 58.21 234.578 58.55C234.578 59.01 234.384 59.3767 233.998 59.65C233.618 59.9167 233.088 60.05 232.408 60.05Z" fill="#828282"/>
<path d="M206.688 96.096C205.579 96.096 204.576 95.8507 203.68 95.36C202.795 94.8693 202.096 94.192 201.584 93.328C201.083 92.4533 200.832 91.4773 200.832 90.4C200.832 89.3227 201.083 88.352 201.584 87.488C202.096 86.6133 202.8 85.9307 203.696 85.44C204.592 84.9493 205.595 84.704 206.704 84.704C207.536 84.704 208.304 84.8427 209.008 85.12C209.712 85.3973 210.309 85.8027 210.8 86.336L210.048 87.088C209.173 86.2027 208.069 85.76 206.736 85.76C205.851 85.76 205.045 85.9627 204.32 86.368C203.595 86.7733 203.024 87.328 202.608 88.032C202.203 88.736 202 89.5253 202 90.4C202 91.2747 202.203 92.064 202.608 92.768C203.024 93.472 203.595 94.0267 204.32 94.432C205.045 94.8373 205.851 95.04 206.736 95.04C208.08 95.04 209.184 94.592 210.048 93.696L210.8 94.448C210.309 94.9813 209.707 95.392 208.992 95.68C208.288 95.9573 207.52 96.096 206.688 96.096ZM216.149 96.08C215.338 96.08 214.608 95.8987 213.957 95.536C213.306 95.1627 212.794 94.6507 212.421 94C212.048 93.3493 211.861 92.6133 211.861 91.792C211.861 90.9707 212.048 90.2347 212.421 89.584C212.794 88.9333 213.306 88.4267 213.957 88.064C214.608 87.7013 215.338 87.52 216.149 87.52C216.96 87.52 217.69 87.7013 218.341 88.064C218.992 88.4267 219.498 88.9333 219.861 89.584C220.234 90.2347 220.421 90.9707 220.421 91.792C220.421 92.6133 220.234 93.3493 219.861 94C219.498 94.6507 218.992 95.1627 218.341 95.536C217.69 95.8987 216.96 96.08 216.149 96.08ZM216.149 95.072C216.746 95.072 217.28 94.9387 217.749 94.672C218.229 94.3947 218.602 94.0053 218.869 93.504C219.136 93.0027 219.269 92.432 219.269 91.792C219.269 91.152 219.136 90.5813 218.869 90.08C218.602 89.5787 218.229 89.1947 217.749 88.928C217.28 88.6507 216.746 88.512 216.149 88.512C215.552 88.512 215.013 88.6507 214.533 88.928C214.064 89.1947 213.69 89.5787 213.413 90.08C213.146 90.5813 213.013 91.152 213.013 91.792C213.013 92.432 213.146 93.0027 213.413 93.504C213.69 94.0053 214.064 94.3947 214.533 94.672C215.013 94.9387 215.552 95.072 216.149 95.072ZM233.236 87.52C234.292 87.52 235.119 87.824 235.716 88.432C236.324 89.04 236.628 89.936 236.628 91.12V96H235.492V91.232C235.492 90.3573 235.279 89.6907 234.852 89.232C234.436 88.7733 233.844 88.544 233.076 88.544C232.202 88.544 231.514 88.816 231.012 89.36C230.511 89.8933 230.26 90.6347 230.26 91.584V96H229.124V91.232C229.124 90.3573 228.911 89.6907 228.484 89.232C228.068 88.7733 227.471 88.544 226.692 88.544C225.828 88.544 225.14 88.816 224.628 89.36C224.127 89.8933 223.876 90.6347 223.876 91.584V96H222.74V87.584H223.828V89.12C224.127 88.608 224.543 88.2133 225.076 87.936C225.61 87.6587 226.223 87.52 226.916 87.52C227.62 87.52 228.228 87.6693 228.74 87.968C229.263 88.2667 229.652 88.7093 229.908 89.296C230.218 88.7413 230.66 88.3093 231.236 88C231.823 87.68 232.49 87.52 233.236 87.52ZM244.045 87.52C244.834 87.52 245.549 87.7013 246.189 88.064C246.829 88.416 247.33 88.9173 247.693 89.568C248.056 90.2187 248.237 90.96 248.237 91.792C248.237 92.6347 248.056 93.3813 247.693 94.032C247.33 94.6827 246.829 95.1893 246.189 95.552C245.56 95.904 244.845 96.08 244.045 96.08C243.362 96.08 242.744 95.9413 242.189 95.664C241.645 95.376 241.197 94.96 240.845 94.416V99.104H239.709V87.584H240.797V89.248C241.138 88.6933 241.586 88.2667 242.141 87.968C242.706 87.6693 243.341 87.52 244.045 87.52ZM243.965 95.072C244.552 95.072 245.085 94.9387 245.565 94.672C246.045 94.3947 246.418 94.0053 246.685 93.504C246.962 93.0027 247.101 92.432 247.101 91.792C247.101 91.152 246.962 90.5867 246.685 90.096C246.418 89.5947 246.045 89.2053 245.565 88.928C245.085 88.6507 244.552 88.512 243.965 88.512C243.368 88.512 242.829 88.6507 242.349 88.928C241.88 89.2053 241.506 89.5947 241.229 90.096C240.962 90.5867 240.829 91.152 240.829 91.792C240.829 92.432 240.962 93.0027 241.229 93.504C241.506 94.0053 241.88 94.3947 242.349 94.672C242.829 94.9387 243.368 95.072 243.965 95.072ZM251.641 89.232C251.907 88.6667 252.302 88.24 252.825 87.952C253.358 87.664 254.014 87.52 254.793 87.52V88.624L254.521 88.608C253.635 88.608 252.942 88.88 252.441 89.424C251.939 89.968 251.689 90.7307 251.689 91.712V96H250.553V87.584H251.641V89.232ZM259.778 87.52C260.877 87.52 261.719 87.7973 262.306 88.352C262.893 88.896 263.186 89.7067 263.186 90.784V96H262.098V94.688C261.842 95.1253 261.463 95.4667 260.962 95.712C260.471 95.9573 259.885 96.08 259.202 96.08C258.263 96.08 257.517 95.856 256.962 95.408C256.407 94.96 256.13 94.368 256.13 93.632C256.13 92.9173 256.386 92.3413 256.898 91.904C257.421 91.4667 258.247 91.248 259.378 91.248H262.05V90.736C262.05 90.0107 261.847 89.4613 261.442 89.088C261.037 88.704 260.445 88.512 259.666 88.512C259.133 88.512 258.621 88.6027 258.13 88.784C257.639 88.9547 257.218 89.1947 256.866 89.504L256.354 88.656C256.781 88.2933 257.293 88.016 257.89 87.824C258.487 87.6213 259.117 87.52 259.778 87.52ZM259.378 95.184C260.018 95.184 260.567 95.04 261.026 94.752C261.485 94.4533 261.826 94.0267 262.05 93.472V92.096H259.41C257.97 92.096 257.25 92.5973 257.25 93.6C257.25 94.0907 257.437 94.48 257.81 94.768C258.183 95.0453 258.706 95.184 259.378 95.184ZM273.403 87.52C274.502 87.52 275.344 87.7973 275.931 88.352C276.518 88.896 276.811 89.7067 276.811 90.784V96H275.723V94.688C275.467 95.1253 275.088 95.4667 274.587 95.712C274.096 95.9573 273.51 96.08 272.827 96.08C271.888 96.08 271.142 95.856 270.587 95.408C270.032 94.96 269.755 94.368 269.755 93.632C269.755 92.9173 270.011 92.3413 270.523 91.904C271.046 91.4667 271.872 91.248 273.003 91.248H275.675V90.736C275.675 90.0107 275.472 89.4613 275.067 89.088C274.662 88.704 274.07 88.512 273.291 88.512C272.758 88.512 272.246 88.6027 271.755 88.784C271.264 88.9547 270.843 89.1947 270.491 89.504L269.979 88.656C270.406 88.2933 270.918 88.016 271.515 87.824C272.112 87.6213 272.742 87.52 273.403 87.52ZM273.003 95.184C273.643 95.184 274.192 95.04 274.651 94.752C275.11 94.4533 275.451 94.0267 275.675 93.472V92.096H273.035C271.595 92.096 270.875 92.5973 270.875 93.6C270.875 94.0907 271.062 94.48 271.435 94.768C271.808 95.0453 272.331 95.184 273.003 95.184ZM282.153 96.08C281.47 96.08 280.814 95.984 280.185 95.792C279.566 95.5893 279.081 95.3387 278.729 95.04L279.241 94.144C279.593 94.4213 280.035 94.6507 280.569 94.832C281.102 95.0027 281.657 95.088 282.233 95.088C283.001 95.088 283.566 94.9707 283.929 94.736C284.302 94.4907 284.489 94.1493 284.489 93.712C284.489 93.4027 284.387 93.1627 284.185 92.992C283.982 92.8107 283.726 92.6773 283.417 92.592C283.107 92.496 282.697 92.4053 282.185 92.32C281.502 92.192 280.953 92.064 280.537 91.936C280.121 91.7973 279.763 91.568 279.465 91.248C279.177 90.928 279.033 90.4853 279.033 89.92C279.033 89.216 279.326 88.64 279.913 88.192C280.499 87.744 281.315 87.52 282.361 87.52C282.905 87.52 283.449 87.5947 283.993 87.744C284.537 87.8827 284.985 88.0693 285.337 88.304L284.841 89.216C284.147 88.736 283.321 88.496 282.361 88.496C281.635 88.496 281.086 88.624 280.713 88.88C280.35 89.136 280.169 89.472 280.169 89.888C280.169 90.208 280.27 90.464 280.473 90.656C280.686 90.848 280.947 90.992 281.257 91.088C281.566 91.1733 281.993 91.264 282.536 91.36C283.209 91.488 283.747 91.616 284.153 91.744C284.558 91.872 284.905 92.0907 285.193 92.4C285.481 92.7093 285.625 93.136 285.625 93.68C285.625 94.416 285.315 95.0027 284.697 95.44C284.089 95.8667 283.241 96.08 282.153 96.08ZM295.053 92.144H288.013C288.077 93.0187 288.413 93.728 289.021 94.272C289.629 94.8053 290.397 95.072 291.325 95.072C291.847 95.072 292.327 94.9813 292.765 94.8C293.202 94.608 293.581 94.3307 293.901 93.968L294.541 94.704C294.167 95.152 293.698 95.4933 293.133 95.728C292.578 95.9627 291.965 96.08 291.293 96.08C290.429 96.08 289.661 95.8987 288.989 95.536C288.327 95.1627 287.81 94.6507 287.437 94C287.063 93.3493 286.877 92.6133 286.877 91.792C286.877 90.9707 287.053 90.2347 287.405 89.584C287.767 88.9333 288.258 88.4267 288.877 88.064C289.506 87.7013 290.21 87.52 290.989 87.52C291.767 87.52 292.466 87.7013 293.085 88.064C293.703 88.4267 294.189 88.9333 294.541 89.584C294.893 90.224 295.069 90.96 295.069 91.792L295.053 92.144ZM290.989 88.496C290.178 88.496 289.495 88.7573 288.941 89.28C288.397 89.792 288.087 90.464 288.013 91.296H293.981C293.906 90.464 293.591 89.792 293.037 89.28C292.493 88.7573 291.81 88.496 290.989 88.496ZM305.173 87.584V94.976C305.173 96.4053 304.821 97.4613 304.117 98.144C303.424 98.8373 302.373 99.184 300.965 99.184C300.186 99.184 299.445 99.0667 298.741 98.832C298.048 98.608 297.482 98.2933 297.045 97.888L297.621 97.024C298.026 97.3867 298.517 97.6693 299.093 97.872C299.68 98.0747 300.293 98.176 300.933 98.176C302 98.176 302.784 97.9253 303.285 97.424C303.786 96.9333 304.037 96.1653 304.037 95.12V94.048C303.685 94.5813 303.221 94.9867 302.645 95.264C302.08 95.5413 301.45 95.68 300.757 95.68C299.968 95.68 299.248 95.5093 298.597 95.168C297.957 94.816 297.45 94.3307 297.077 93.712C296.714 93.0827 296.533 92.3733 296.533 91.584C296.533 90.7947 296.714 90.0907 297.077 89.472C297.45 88.8533 297.957 88.3733 298.597 88.032C299.237 87.6907 299.957 87.52 300.757 87.52C301.472 87.52 302.117 87.664 302.693 87.952C303.269 88.24 303.733 88.656 304.085 89.2V87.584H305.173ZM300.869 94.672C301.477 94.672 302.026 94.544 302.517 94.288C303.008 94.0213 303.386 93.6533 303.653 93.184C303.93 92.7147 304.069 92.1813 304.069 91.584C304.069 90.9867 303.93 90.4587 303.653 90C303.386 89.5307 303.008 89.168 302.517 88.912C302.037 88.6453 301.488 88.512 300.869 88.512C300.261 88.512 299.712 88.64 299.221 88.896C298.741 89.152 298.362 89.5147 298.085 89.984C297.818 90.4533 297.685 90.9867 297.685 91.584C297.685 92.1813 297.818 92.7147 298.085 93.184C298.362 93.6533 298.741 94.0213 299.221 94.288C299.712 94.544 300.261 94.672 300.869 94.672ZM315.934 87.584V96H314.846V94.464C314.547 94.976 314.136 95.376 313.614 95.664C313.091 95.9413 312.494 96.08 311.822 96.08C310.723 96.08 309.854 95.776 309.214 95.168C308.584 94.5493 308.27 93.648 308.27 92.464V87.584H309.406V92.352C309.406 93.2373 309.624 93.9093 310.062 94.368C310.499 94.8267 311.123 95.056 311.934 95.056C312.819 95.056 313.518 94.7893 314.03 94.256C314.542 93.712 314.798 92.96 314.798 92V87.584H315.934ZM320.203 89.232C320.47 88.6667 320.865 88.24 321.387 87.952C321.921 87.664 322.577 87.52 323.355 87.52V88.624L323.083 88.608C322.198 88.608 321.505 88.88 321.003 89.424C320.502 89.968 320.251 90.7307 320.251 91.712V96H319.115V87.584H320.203V89.232ZM328.341 87.52C329.439 87.52 330.282 87.7973 330.869 88.352C331.455 88.896 331.749 89.7067 331.749 90.784V96H330.661V94.688C330.405 95.1253 330.026 95.4667 329.525 95.712C329.034 95.9573 328.447 96.08 327.765 96.08C326.826 96.08 326.079 95.856 325.525 95.408C324.97 94.96 324.693 94.368 324.693 93.632C324.693 92.9173 324.949 92.3413 325.461 91.904C325.983 91.4667 326.81 91.248 327.941 91.248H330.613V90.736C330.613 90.0107 330.41 89.4613 330.005 89.088C329.599 88.704 329.007 88.512 328.229 88.512C327.695 88.512 327.183 88.6027 326.693 88.784C326.202 88.9547 325.781 89.1947 325.429 89.504L324.917 88.656C325.343 88.2933 325.855 88.016 326.453 87.824C327.05 87.6213 327.679 87.52 328.341 87.52ZM327.941 95.184C328.581 95.184 329.13 95.04 329.589 94.752C330.047 94.4533 330.389 94.0267 330.613 93.472V92.096H327.973C326.533 92.096 325.812 92.5973 325.812 93.6C325.812 94.0907 325.999 94.48 326.373 94.768C326.746 95.0453 327.269 95.184 327.941 95.184ZM342.545 84.128V96H341.457V94.336C341.116 94.9013 340.663 95.3333 340.097 95.632C339.543 95.9307 338.913 96.08 338.209 96.08C337.42 96.08 336.705 95.8987 336.065 95.536C335.425 95.1733 334.924 94.6667 334.561 94.016C334.199 93.3653 334.017 92.624 334.017 91.792C334.017 90.96 334.199 90.2187 334.561 89.568C334.924 88.9173 335.425 88.416 336.065 88.064C336.705 87.7013 337.42 87.52 338.209 87.52C338.892 87.52 339.505 87.664 340.049 87.952C340.604 88.2293 341.057 88.64 341.409 89.184V84.128H342.545ZM338.305 95.072C338.892 95.072 339.42 94.9387 339.889 94.672C340.369 94.3947 340.743 94.0053 341.009 93.504C341.287 93.0027 341.425 92.432 341.425 91.792C341.425 91.152 341.287 90.5813 341.009 90.08C340.743 89.5787 340.369 89.1947 339.889 88.928C339.42 88.6507 338.892 88.512 338.305 88.512C337.708 88.512 337.169 88.6507 336.689 88.928C336.22 89.1947 335.847 89.5787 335.569 90.08C335.303 90.5813 335.169 91.152 335.169 91.792C335.169 92.432 335.303 93.0027 335.569 93.504C335.847 94.0053 336.22 94.3947 336.689 94.672C337.169 94.9387 337.708 95.072 338.305 95.072ZM348.653 87.52C349.752 87.52 350.594 87.7973 351.181 88.352C351.768 88.896 352.061 89.7067 352.061 90.784V96H350.973V94.688C350.717 95.1253 350.338 95.4667 349.837 95.712C349.346 95.9573 348.76 96.08 348.077 96.08C347.138 96.08 346.392 95.856 345.837 95.408C345.282 94.96 345.005 94.368 345.005 93.632C345.005 92.9173 345.261 92.3413 345.773 91.904C346.296 91.4667 347.122 91.248 348.253 91.248H350.925V90.736C350.925 90.0107 350.722 89.4613 350.317 89.088C349.912 88.704 349.32 88.512 348.541 88.512C348.008 88.512 347.496 88.6027 347.005 88.784C346.514 88.9547 346.093 89.1947 345.741 89.504L345.229 88.656C345.656 88.2933 346.168 88.016 346.765 87.824C347.362 87.6213 347.992 87.52 348.653 87.52ZM348.253 95.184C348.893 95.184 349.442 95.04 349.901 94.752C350.36 94.4533 350.701 94.0267 350.925 93.472V92.096H348.285C346.845 92.096 346.125 92.5973 346.125 93.6C346.125 94.0907 346.312 94.48 346.685 94.768C347.058 95.0453 347.581 95.184 348.253 95.184Z" fill="#828282"/>
<path d="M24.944 104.8V116H22.352V106.88H20.112V104.8H24.944ZM42.9729 107.264C44.0502 107.264 44.9035 107.584 45.5329 108.224C46.1729 108.853 46.4929 109.803 46.4929 111.072V116H43.9969V111.456C43.9969 110.773 43.8529 110.267 43.5649 109.936C43.2875 109.595 42.8875 109.424 42.3649 109.424C41.7782 109.424 41.3142 109.616 40.9729 110C40.6315 110.373 40.4609 110.933 40.4609 111.68V116H37.9649V111.456C37.9649 110.101 37.4209 109.424 36.3329 109.424C35.7569 109.424 35.2982 109.616 34.9569 110C34.6155 110.373 34.4449 110.933 34.4449 111.68V116H31.9489V107.392H34.3329V108.384C34.6529 108.021 35.0422 107.744 35.5009 107.552C35.9702 107.36 36.4822 107.264 37.0369 107.264C37.6449 107.264 38.1942 107.387 38.6849 107.632C39.1755 107.867 39.5702 108.213 39.8689 108.672C40.2209 108.224 40.6635 107.877 41.1969 107.632C41.7409 107.387 42.3329 107.264 42.9729 107.264ZM57.2559 111.728C57.2559 111.76 57.2399 111.984 57.2079 112.4H50.6959C50.8132 112.933 51.0905 113.355 51.5279 113.664C51.9652 113.973 52.5092 114.128 53.1599 114.128C53.6079 114.128 54.0025 114.064 54.3439 113.936C54.6959 113.797 55.0212 113.584 55.3199 113.296L56.6479 114.736C55.8372 115.664 54.6532 116.128 53.0959 116.128C52.1252 116.128 51.2665 115.941 50.5199 115.568C49.7732 115.184 49.1972 114.656 48.7919 113.984C48.3865 113.312 48.1839 112.549 48.1839 111.696C48.1839 110.853 48.3812 110.096 48.7759 109.424C49.1812 108.741 49.7305 108.213 50.4239 107.84C51.1279 107.456 51.9119 107.264 52.7759 107.264C53.6185 107.264 54.3812 107.445 55.0639 107.808C55.7465 108.171 56.2799 108.693 56.6639 109.376C57.0585 110.048 57.2559 110.832 57.2559 111.728ZM52.7919 109.152C52.2265 109.152 51.7519 109.312 51.3679 109.632C50.9839 109.952 50.7492 110.389 50.6639 110.944H54.9039C54.8185 110.4 54.5839 109.968 54.1999 109.648C53.8159 109.317 53.3465 109.152 52.7919 109.152ZM61.8136 116.128C61.099 116.128 60.4003 116.043 59.7176 115.872C59.035 115.691 58.491 115.467 58.0856 115.2L58.9176 113.408C59.3016 113.653 59.7656 113.856 60.3096 114.016C60.8536 114.165 61.387 114.24 61.9096 114.24C62.9656 114.24 63.4936 113.979 63.4936 113.456C63.4936 113.211 63.3496 113.035 63.0616 112.928C62.7736 112.821 62.331 112.731 61.7336 112.656C61.0296 112.549 60.4483 112.427 59.9896 112.288C59.531 112.149 59.131 111.904 58.7896 111.552C58.459 111.2 58.2936 110.699 58.2936 110.048C58.2936 109.504 58.4483 109.024 58.7576 108.608C59.0776 108.181 59.5363 107.851 60.1336 107.616C60.7416 107.381 61.4563 107.264 62.2776 107.264C62.8856 107.264 63.4883 107.333 64.0856 107.472C64.6936 107.6 65.195 107.781 65.5896 108.016L64.7576 109.792C64.0003 109.365 63.1736 109.152 62.2776 109.152C61.7443 109.152 61.3443 109.227 61.0776 109.376C60.811 109.525 60.6776 109.717 60.6776 109.952C60.6776 110.219 60.8216 110.405 61.1096 110.512C61.3976 110.619 61.8563 110.72 62.4856 110.816C63.1896 110.933 63.7656 111.061 64.2136 111.2C64.6616 111.328 65.051 111.568 65.3816 111.92C65.7123 112.272 65.8776 112.763 65.8776 113.392C65.8776 113.925 65.7176 114.4 65.3976 114.816C65.0776 115.232 64.6083 115.557 63.9896 115.792C63.3816 116.016 62.6563 116.128 61.8136 116.128Z" fill="#4F4F4F"/>
<path d="M201.328 104.8H206.416C207.632 104.8 208.704 105.035 209.632 105.504C210.571 105.963 211.296 106.613 211.808 107.456C212.331 108.299 212.592 109.28 212.592 110.4C212.592 111.52 212.331 112.501 211.808 113.344C211.296 114.187 210.571 114.843 209.632 115.312C208.704 115.771 207.632 116 206.416 116H201.328V104.8ZM206.288 113.872C207.408 113.872 208.299 113.563 208.96 112.944C209.632 112.315 209.968 111.467 209.968 110.4C209.968 109.333 209.632 108.491 208.96 107.872C208.299 107.243 207.408 106.928 206.288 106.928H203.92V113.872H206.288ZM222.803 111.728C222.803 111.76 222.787 111.984 222.755 112.4H216.243C216.36 112.933 216.637 113.355 217.075 113.664C217.512 113.973 218.056 114.128 218.707 114.128C219.155 114.128 219.549 114.064 219.891 113.936C220.243 113.797 220.568 113.584 220.867 113.296L222.195 114.736C221.384 115.664 220.2 116.128 218.643 116.128C217.672 116.128 216.813 115.941 216.067 115.568C215.32 115.184 214.744 114.656 214.339 113.984C213.933 113.312 213.731 112.549 213.731 111.696C213.731 110.853 213.928 110.096 214.323 109.424C214.728 108.741 215.277 108.213 215.971 107.84C216.675 107.456 217.459 107.264 218.323 107.264C219.165 107.264 219.928 107.445 220.611 107.808C221.293 108.171 221.827 108.693 222.211 109.376C222.605 110.048 222.803 110.832 222.803 111.728ZM218.339 109.152C217.773 109.152 217.299 109.312 216.915 109.632C216.531 109.952 216.296 110.389 216.211 110.944H220.451C220.365 110.4 220.131 109.968 219.747 109.648C219.363 109.317 218.893 109.152 218.339 109.152ZM227.361 116.128C226.646 116.128 225.947 116.043 225.265 115.872C224.582 115.691 224.038 115.467 223.633 115.2L224.465 113.408C224.849 113.653 225.313 113.856 225.857 114.016C226.401 114.165 226.934 114.24 227.457 114.24C228.513 114.24 229.041 113.979 229.041 113.456C229.041 113.211 228.897 113.035 228.609 112.928C228.321 112.821 227.878 112.731 227.281 112.656C226.577 112.549 225.995 112.427 225.537 112.288C225.078 112.149 224.678 111.904 224.337 111.552C224.006 111.2 223.84 110.699 223.84 110.048C223.84 109.504 223.995 109.024 224.305 108.608C224.625 108.181 225.083 107.851 225.681 107.616C226.289 107.381 227.003 107.264 227.825 107.264C228.433 107.264 229.035 107.333 229.633 107.472C230.241 107.6 230.742 107.781 231.137 108.016L230.305 109.792C229.547 109.365 228.721 109.152 227.825 109.152C227.291 109.152 226.891 109.227 226.625 109.376C226.358 109.525 226.225 109.717 226.225 109.952C226.225 110.219 226.369 110.405 226.657 110.512C226.945 110.619 227.403 110.72 228.033 110.816C228.737 110.933 229.313 111.061 229.761 111.2C230.209 111.328 230.598 111.568 230.929 111.92C231.259 112.272 231.425 112.763 231.425 113.392C231.425 113.925 231.265 114.4 230.945 114.816C230.625 115.232 230.155 115.557 229.537 115.792C228.929 116.016 228.203 116.128 227.361 116.128ZM241.733 104.128V116H239.349V115.008C238.73 115.755 237.834 116.128 236.661 116.128C235.85 116.128 235.114 115.947 234.453 115.584C233.802 115.221 233.29 114.704 232.917 114.032C232.543 113.36 232.357 112.581 232.357 111.696C232.357 110.811 232.543 110.032 232.917 109.36C233.29 108.688 233.802 108.171 234.453 107.808C235.114 107.445 235.85 107.264 236.661 107.264C237.759 107.264 238.618 107.611 239.237 108.304V104.128H241.733ZM237.093 114.08C237.722 114.08 238.245 113.867 238.661 113.44C239.077 113.003 239.285 112.421 239.285 111.696C239.285 110.971 239.077 110.395 238.661 109.968C238.245 109.531 237.722 109.312 237.093 109.312C236.453 109.312 235.925 109.531 235.509 109.968C235.093 110.395 234.885 110.971 234.885 111.696C234.885 112.421 235.093 113.003 235.509 113.44C235.925 113.867 236.453 114.08 237.093 114.08ZM252.475 111.728C252.475 111.76 252.459 111.984 252.427 112.4H245.915C246.032 112.933 246.309 113.355 246.747 113.664C247.184 113.973 247.728 114.128 248.379 114.128C248.827 114.128 249.221 114.064 249.563 113.936C249.915 113.797 250.24 113.584 250.539 113.296L251.867 114.736C251.056 115.664 249.872 116.128 248.315 116.128C247.344 116.128 246.485 115.941 245.739 115.568C244.992 115.184 244.416 114.656 244.011 113.984C243.605 113.312 243.403 112.549 243.403 111.696C243.403 110.853 243.6 110.096 243.995 109.424C244.4 108.741 244.949 108.213 245.643 107.84C246.347 107.456 247.131 107.264 247.995 107.264C248.837 107.264 249.6 107.445 250.283 107.808C250.965 108.171 251.499 108.693 251.883 109.376C252.277 110.048 252.475 110.832 252.475 111.728ZM248.011 109.152C247.445 109.152 246.971 109.312 246.587 109.632C246.203 109.952 245.968 110.389 245.883 110.944H250.123C250.037 110.4 249.803 109.968 249.419 109.648C249.035 109.317 248.565 109.152 248.011 109.152ZM267.276 112.72C267.276 113.595 266.956 114.347 266.316 114.976C265.676 115.595 264.753 115.979 263.548 116.128V117.92H261.948V116.176C261.158 116.133 260.406 115.995 259.692 115.76C258.977 115.525 258.401 115.237 257.964 114.896L258.844 112.944C259.249 113.243 259.724 113.493 260.268 113.696C260.812 113.899 261.372 114.027 261.948 114.08V111.408C261.19 111.227 260.55 111.024 260.028 110.8C259.505 110.576 259.068 110.251 258.716 109.824C258.364 109.387 258.188 108.811 258.188 108.096C258.188 107.211 258.508 106.453 259.148 105.824C259.798 105.184 260.732 104.795 261.948 104.656V102.88H263.548V104.624C264.86 104.731 265.942 105.056 266.796 105.6L265.996 107.568C265.196 107.109 264.38 106.832 263.548 106.736V109.456C264.294 109.627 264.924 109.824 265.436 110.048C265.958 110.261 266.396 110.587 266.748 111.024C267.1 111.451 267.276 112.016 267.276 112.72ZM260.764 107.968C260.764 108.235 260.865 108.453 261.068 108.624C261.27 108.795 261.564 108.939 261.948 109.056V106.784C261.542 106.88 261.244 107.035 261.052 107.248C260.86 107.451 260.764 107.691 260.764 107.968ZM263.548 114.016C263.932 113.931 264.22 113.792 264.412 113.6C264.604 113.408 264.7 113.179 264.7 112.912C264.7 112.645 264.598 112.427 264.396 112.256C264.204 112.085 263.921 111.936 263.548 111.808V114.016ZM276.711 113.888V116H268.247V114.32L272.567 110.24C273.025 109.803 273.335 109.429 273.495 109.12C273.655 108.8 273.735 108.485 273.735 108.176C273.735 107.728 273.58 107.387 273.271 107.152C272.972 106.907 272.529 106.784 271.943 106.784C271.452 106.784 271.009 106.88 270.615 107.072C270.22 107.253 269.889 107.531 269.623 107.904L267.735 106.688C268.172 106.037 268.775 105.531 269.543 105.168C270.311 104.795 271.191 104.608 272.183 104.608C273.015 104.608 273.74 104.747 274.359 105.024C274.988 105.291 275.473 105.675 275.815 106.176C276.167 106.667 276.343 107.248 276.343 107.92C276.343 108.528 276.215 109.099 275.959 109.632C275.703 110.165 275.207 110.773 274.471 111.456L271.895 113.888H276.711ZM282.549 116.192C281.621 116.192 280.794 115.963 280.069 115.504C279.344 115.045 278.773 114.384 278.357 113.52C277.952 112.645 277.749 111.605 277.749 110.4C277.749 109.195 277.952 108.16 278.357 107.296C278.773 106.421 279.344 105.755 280.069 105.296C280.794 104.837 281.621 104.608 282.549 104.608C283.477 104.608 284.304 104.837 285.029 105.296C285.754 105.755 286.32 106.421 286.725 107.296C287.141 108.16 287.349 109.195 287.349 110.4C287.349 111.605 287.141 112.645 286.725 113.52C286.32 114.384 285.754 115.045 285.029 115.504C284.304 115.963 283.477 116.192 282.549 116.192ZM282.549 114C283.232 114 283.765 113.707 284.149 113.12C284.544 112.533 284.741 111.627 284.741 110.4C284.741 109.173 284.544 108.267 284.149 107.68C283.765 107.093 283.232 106.8 282.549 106.8C281.877 106.8 281.344 107.093 280.949 107.68C280.565 108.267 280.373 109.173 280.373 110.4C280.373 111.627 280.565 112.533 280.949 113.12C281.344 113.707 281.877 114 282.549 114ZM293.408 116.192C292.48 116.192 291.654 115.963 290.928 115.504C290.203 115.045 289.632 114.384 289.216 113.52C288.811 112.645 288.608 111.605 288.608 110.4C288.608 109.195 288.811 108.16 289.216 107.296C289.632 106.421 290.203 105.755 290.928 105.296C291.654 104.837 292.48 104.608 293.408 104.608C294.336 104.608 295.163 104.837 295.888 105.296C296.614 105.755 297.179 106.421 297.584 107.296C298 108.16 298.208 109.195 298.208 110.4C298.208 111.605 298 112.645 297.584 113.52C297.179 114.384 296.614 115.045 295.888 115.504C295.163 115.963 294.336 116.192 293.408 116.192ZM293.408 114C294.091 114 294.624 113.707 295.008 113.12C295.403 112.533 295.6 111.627 295.6 110.4C295.6 109.173 295.403 108.267 295.008 107.68C294.624 107.093 294.091 106.8 293.408 106.8C292.736 106.8 292.203 107.093 291.808 107.68C291.424 108.267 291.232 109.173 291.232 110.4C291.232 111.627 291.424 112.533 291.808 113.12C292.203 113.707 292.736 114 293.408 114ZM300.737 116.128C300.299 116.128 299.931 115.979 299.633 115.68C299.334 115.381 299.185 115.008 299.185 114.56C299.185 114.101 299.334 113.733 299.633 113.456C299.931 113.168 300.299 113.024 300.737 113.024C301.174 113.024 301.542 113.168 301.841 113.456C302.139 113.733 302.289 114.101 302.289 114.56C302.289 115.008 302.139 115.381 301.841 115.68C301.542 115.979 301.174 116.128 300.737 116.128ZM308.049 116.192C307.121 116.192 306.294 115.963 305.569 115.504C304.844 115.045 304.273 114.384 303.857 113.52C303.452 112.645 303.249 111.605 303.249 110.4C303.249 109.195 303.452 108.16 303.857 107.296C304.273 106.421 304.844 105.755 305.569 105.296C306.294 104.837 307.121 104.608 308.049 104.608C308.977 104.608 309.804 104.837 310.529 105.296C311.254 105.755 311.82 106.421 312.225 107.296C312.641 108.16 312.849 109.195 312.849 110.4C312.849 111.605 312.641 112.645 312.225 113.52C311.82 114.384 311.254 115.045 310.529 115.504C309.804 115.963 308.977 116.192 308.049 116.192ZM308.049 114C308.732 114 309.265 113.707 309.649 113.12C310.044 112.533 310.241 111.627 310.241 110.4C310.241 109.173 310.044 108.267 309.649 107.68C309.265 107.093 308.732 106.8 308.049 106.8C307.377 106.8 306.844 107.093 306.449 107.68C306.065 108.267 305.873 109.173 305.873 110.4C305.873 111.627 306.065 112.533 306.449 113.12C306.844 113.707 307.377 114 308.049 114ZM318.908 116.192C317.98 116.192 317.154 115.963 316.428 115.504C315.703 115.045 315.132 114.384 314.716 113.52C314.311 112.645 314.108 111.605 314.108 110.4C314.108 109.195 314.311 108.16 314.716 107.296C315.132 106.421 315.703 105.755 316.428 105.296C317.154 104.837 317.98 104.608 318.908 104.608C319.836 104.608 320.663 104.837 321.388 105.296C322.114 105.755 322.679 106.421 323.084 107.296C323.5 108.16 323.708 109.195 323.708 110.4C323.708 111.605 323.5 112.645 323.084 113.52C322.679 114.384 322.114 115.045 321.388 115.504C320.663 115.963 319.836 116.192 318.908 116.192ZM318.908 114C319.591 114 320.124 113.707 320.508 113.12C320.903 112.533 321.1 111.627 321.1 110.4C321.1 109.173 320.903 108.267 320.508 107.68C320.124 107.093 319.591 106.8 318.908 106.8C318.236 106.8 317.703 107.093 317.308 107.68C316.924 108.267 316.732 109.173 316.732 110.4C316.732 111.627 316.924 112.533 317.308 113.12C317.703 113.707 318.236 114 318.908 114ZM329.768 116.192C328.84 116.192 328.013 115.963 327.288 115.504C326.562 115.045 325.992 114.384 325.576 113.52C325.17 112.645 324.968 111.605 324.968 110.4C324.968 109.195 325.17 108.16 325.576 107.296C325.992 106.421 326.562 105.755 327.288 105.296C328.013 104.837 328.84 104.608 329.768 104.608C330.696 104.608 331.522 104.837 332.248 105.296C332.973 105.755 333.538 106.421 333.944 107.296C334.36 108.16 334.568 109.195 334.568 110.4C334.568 111.605 334.36 112.645 333.944 113.52C333.538 114.384 332.973 115.045 332.248 115.504C331.522 115.963 330.696 116.192 329.768 116.192ZM329.768 114C330.45 114 330.984 113.707 331.368 113.12C331.762 112.533 331.96 111.627 331.96 110.4C331.96 109.173 331.762 108.267 331.368 107.68C330.984 107.093 330.45 106.8 329.768 106.8C329.096 106.8 328.562 107.093 328.168 107.68C327.784 108.267 327.592 109.173 327.592 110.4C327.592 111.627 327.784 112.533 328.168 113.12C328.562 113.707 329.096 114 329.768 114Z" fill="#4F4F4F"/>
<path d="M25.008 156.192C24.1227 156.192 23.264 156.075 22.432 155.84C21.6107 155.595 20.9493 155.28 20.448 154.896L21.328 152.944C21.808 153.296 22.3787 153.579 23.04 153.792C23.7013 154.005 24.3627 154.112 25.024 154.112C25.76 154.112 26.304 154.005 26.656 153.792C27.008 153.568 27.184 153.275 27.184 152.912C27.184 152.645 27.0773 152.427 26.864 152.256C26.6613 152.075 26.3947 151.931 26.064 151.824C25.744 151.717 25.3067 151.6 24.752 151.472C23.8987 151.269 23.2 151.067 22.656 150.864C22.112 150.661 21.6427 150.336 21.248 149.888C20.864 149.44 20.672 148.843 20.672 148.096C20.672 147.445 20.848 146.859 21.2 146.336C21.552 145.803 22.08 145.381 22.784 145.072C23.4987 144.763 24.368 144.608 25.392 144.608C26.1067 144.608 26.8053 144.693 27.488 144.864C28.1707 145.035 28.768 145.28 29.28 145.6L28.48 147.568C27.4453 146.981 26.4107 146.688 25.376 146.688C24.6507 146.688 24.112 146.805 23.76 147.04C23.4187 147.275 23.248 147.584 23.248 147.968C23.248 148.352 23.4453 148.64 23.84 148.832C24.2453 149.013 24.8587 149.195 25.68 149.376C26.5333 149.579 27.232 149.781 27.776 149.984C28.32 150.187 28.784 150.507 29.168 150.944C29.5627 151.381 29.76 151.973 29.76 152.72C29.76 153.36 29.5787 153.947 29.216 154.48C28.864 155.003 28.3307 155.419 27.616 155.728C26.9013 156.037 26.032 156.192 25.008 156.192ZM31.5311 144.8H34.1231V156H31.5311V144.8ZM33.5311 141.584H36.2191L33.3231 143.888H31.3711L33.5311 141.584Z" fill="#4F4F4F"/>
<path d="M211.6 144.8V156H209.472L203.888 149.2V156H201.328V144.8H203.472L209.04 151.6V144.8H211.6ZM219.674 156.192C218.511 156.192 217.461 155.941 216.522 155.44C215.594 154.939 214.863 154.251 214.33 153.376C213.807 152.491 213.546 151.499 213.546 150.4C213.546 149.301 213.807 148.315 214.33 147.44C214.863 146.555 215.594 145.861 216.522 145.36C217.461 144.859 218.511 144.608 219.674 144.608C220.837 144.608 221.882 144.859 222.81 145.36C223.738 145.861 224.469 146.555 225.002 147.44C225.535 148.315 225.802 149.301 225.802 150.4C225.802 151.499 225.535 152.491 225.002 153.376C224.469 154.251 223.738 154.939 222.81 155.44C221.882 155.941 220.837 156.192 219.674 156.192ZM219.674 153.984C220.335 153.984 220.933 153.835 221.466 153.536C221.999 153.227 222.415 152.8 222.714 152.256C223.023 151.712 223.178 151.093 223.178 150.4C223.178 149.707 223.023 149.088 222.714 148.544C222.415 148 221.999 147.579 221.466 147.28C220.933 146.971 220.335 146.816 219.674 146.816C219.013 146.816 218.415 146.971 217.882 147.28C217.349 147.579 216.927 148 216.618 148.544C216.319 149.088 216.17 149.707 216.17 150.4C216.17 151.093 216.319 151.712 216.618 152.256C216.927 152.8 217.349 153.227 217.882 153.536C218.415 153.835 219.013 153.984 219.674 153.984Z" fill="#4F4F4F"/>
<path d="M26.016 124.8C27.4453 124.8 28.5653 125.141 29.376 125.824C30.1867 126.507 30.592 127.445 30.592 128.64C30.592 129.835 30.1867 130.773 29.376 131.456C28.5653 132.128 27.4453 132.464 26.016 132.464H23.008V136H21.824V124.8H26.016ZM25.984 131.424C27.0933 131.424 27.9413 131.184 28.528 130.704C29.1147 130.213 29.408 129.525 29.408 128.64C29.408 127.733 29.1147 127.04 28.528 126.56C27.9413 126.069 27.0933 125.824 25.984 125.824H23.008V131.424H25.984ZM35.778 127.52C36.8767 127.52 37.7193 127.797 38.306 128.352C38.8927 128.896 39.186 129.707 39.186 130.784V136H38.098V134.688C37.842 135.125 37.4633 135.467 36.962 135.712C36.4713 135.957 35.8847 136.08 35.202 136.08C34.2633 136.08 33.5167 135.856 32.962 135.408C32.4073 134.96 32.13 134.368 32.13 133.632C32.13 132.917 32.386 132.341 32.898 131.904C33.4207 131.467 34.2473 131.248 35.378 131.248H38.05V130.736C38.05 130.011 37.8473 129.461 37.442 129.088C37.0367 128.704 36.4447 128.512 35.666 128.512C35.1327 128.512 34.6207 128.603 34.13 128.784C33.6393 128.955 33.218 129.195 32.866 129.504L32.354 128.656C32.7807 128.293 33.2927 128.016 33.89 127.824C34.4873 127.621 35.1167 127.52 35.778 127.52ZM35.378 135.184C36.018 135.184 36.5673 135.04 37.026 134.752C37.4847 134.453 37.826 134.027 38.05 133.472V132.096H35.41C33.97 132.096 33.25 132.597 33.25 133.6C33.25 134.091 33.4367 134.48 33.81 134.768C34.1833 135.045 34.706 135.184 35.378 135.184ZM50.0948 127.584V134.976C50.0948 136.405 49.7428 137.461 49.0388 138.144C48.3454 138.837 47.2948 139.184 45.8868 139.184C45.1081 139.184 44.3668 139.067 43.6628 138.832C42.9694 138.608 42.4041 138.293 41.9668 137.888L42.5428 137.024C42.9481 137.387 43.4388 137.669 44.0148 137.872C44.6014 138.075 45.2148 138.176 45.8548 138.176C46.9214 138.176 47.7054 137.925 48.2068 137.424C48.7081 136.933 48.9588 136.165 48.9588 135.12V134.048C48.6068 134.581 48.1428 134.987 47.5668 135.264C47.0014 135.541 46.3721 135.68 45.6788 135.68C44.8894 135.68 44.1694 135.509 43.5188 135.168C42.8788 134.816 42.3721 134.331 41.9988 133.712C41.6361 133.083 41.4548 132.373 41.4548 131.584C41.4548 130.795 41.6361 130.091 41.9988 129.472C42.3721 128.853 42.8788 128.373 43.5188 128.032C44.1588 127.691 44.8788 127.52 45.6788 127.52C46.3934 127.52 47.0388 127.664 47.6148 127.952C48.1908 128.24 48.6548 128.656 49.0068 129.2V127.584H50.0948ZM45.7908 134.672C46.3988 134.672 46.9481 134.544 47.4388 134.288C47.9294 134.021 48.3081 133.653 48.5748 133.184C48.8521 132.715 48.9908 132.181 48.9908 131.584C48.9908 130.987 48.8521 130.459 48.5748 130C48.3081 129.531 47.9294 129.168 47.4388 128.912C46.9588 128.645 46.4094 128.512 45.7908 128.512C45.1828 128.512 44.6334 128.64 44.1428 128.896C43.6628 129.152 43.2841 129.515 43.0068 129.984C42.7401 130.453 42.6068 130.987 42.6068 131.584C42.6068 132.181 42.7401 132.715 43.0068 133.184C43.2841 133.653 43.6628 134.021 44.1428 134.288C44.6334 134.544 45.1828 134.672 45.7908 134.672ZM56.7115 136.08C55.9008 136.08 55.1702 135.899 54.5195 135.536C53.8688 135.163 53.3568 134.651 52.9835 134C52.6102 133.349 52.4235 132.613 52.4235 131.792C52.4235 130.971 52.6102 130.235 52.9835 129.584C53.3568 128.933 53.8688 128.427 54.5195 128.064C55.1702 127.701 55.9008 127.52 56.7115 127.52C57.5222 127.52 58.2528 127.701 58.9035 128.064C59.5542 128.427 60.0608 128.933 60.4235 129.584C60.7968 130.235 60.9835 130.971 60.9835 131.792C60.9835 132.613 60.7968 133.349 60.4235 134C60.0608 134.651 59.5542 135.163 58.9035 135.536C58.2528 135.899 57.5222 136.08 56.7115 136.08ZM56.7115 135.072C57.3088 135.072 57.8422 134.939 58.3115 134.672C58.7915 134.395 59.1648 134.005 59.4315 133.504C59.6982 133.003 59.8315 132.432 59.8315 131.792C59.8315 131.152 59.6982 130.581 59.4315 130.08C59.1648 129.579 58.7915 129.195 58.3115 128.928C57.8422 128.651 57.3088 128.512 56.7115 128.512C56.1142 128.512 55.5755 128.651 55.0955 128.928C54.6262 129.195 54.2528 129.579 53.9755 130.08C53.7088 130.581 53.5755 131.152 53.5755 131.792C53.5755 132.432 53.7088 133.003 53.9755 133.504C54.2528 134.005 54.6262 134.395 55.0955 134.672C55.5755 134.939 56.1142 135.072 56.7115 135.072ZM70.9783 136.08C70.1463 136.08 69.3996 135.899 68.7383 135.536C68.0876 135.173 67.5756 134.667 67.2023 134.016C66.8289 133.355 66.6423 132.613 66.6423 131.792C66.6423 130.971 66.8289 130.235 67.2023 129.584C67.5756 128.933 68.0876 128.427 68.7383 128.064C69.3996 127.701 70.1463 127.52 70.9783 127.52C71.7036 127.52 72.3489 127.664 72.9143 127.952C73.4903 128.229 73.9436 128.64 74.2743 129.184L73.4263 129.76C73.1489 129.344 72.7969 129.035 72.3703 128.832C71.9436 128.619 71.4796 128.512 70.9783 128.512C70.3703 128.512 69.8209 128.651 69.3303 128.928C68.8503 129.195 68.4716 129.579 68.1943 130.08C67.9276 130.581 67.7943 131.152 67.7943 131.792C67.7943 132.443 67.9276 133.019 68.1943 133.52C68.4716 134.011 68.8503 134.395 69.3303 134.672C69.8209 134.939 70.3703 135.072 70.9783 135.072C71.4796 135.072 71.9436 134.971 72.3703 134.768C72.7969 134.565 73.1489 134.256 73.4263 133.84L74.2743 134.416C73.9436 134.96 73.4903 135.376 72.9143 135.664C72.3383 135.941 71.6929 136.08 70.9783 136.08ZM79.8053 136.08C78.9946 136.08 78.2639 135.899 77.6133 135.536C76.9626 135.163 76.4506 134.651 76.0773 134C75.7039 133.349 75.5173 132.613 75.5173 131.792C75.5173 130.971 75.7039 130.235 76.0773 129.584C76.4506 128.933 76.9626 128.427 77.6133 128.064C78.2639 127.701 78.9946 127.52 79.8053 127.52C80.6159 127.52 81.3466 127.701 81.9973 128.064C82.6479 128.427 83.1546 128.933 83.5173 129.584C83.8906 130.235 84.0773 130.971 84.0773 131.792C84.0773 132.613 83.8906 133.349 83.5173 134C83.1546 134.651 82.6479 135.163 81.9973 135.536C81.3466 135.899 80.6159 136.08 79.8053 136.08ZM79.8053 135.072C80.4026 135.072 80.9359 134.939 81.4053 134.672C81.8853 134.395 82.2586 134.005 82.5253 133.504C82.7919 133.003 82.9253 132.432 82.9253 131.792C82.9253 131.152 82.7919 130.581 82.5253 130.08C82.2586 129.579 81.8853 129.195 81.4053 128.928C80.9359 128.651 80.4026 128.512 79.8053 128.512C79.2079 128.512 78.6693 128.651 78.1893 128.928C77.7199 129.195 77.3466 129.579 77.0693 130.08C76.8026 130.581 76.6693 131.152 76.6693 131.792C76.6693 132.432 76.8026 133.003 77.0693 133.504C77.3466 134.005 77.7199 134.395 78.1893 134.672C78.6693 134.939 79.2079 135.072 79.8053 135.072ZM90.6845 127.52C91.7405 127.52 92.5778 127.829 93.1965 128.448C93.8258 129.056 94.1405 129.947 94.1405 131.12V136H93.0045V131.232C93.0045 130.357 92.7858 129.691 92.3485 129.232C91.9112 128.773 91.2872 128.544 90.4765 128.544C89.5698 128.544 88.8498 128.816 88.3165 129.36C87.7938 129.893 87.5325 130.635 87.5325 131.584V136H86.3965V127.584H87.4845V129.136C87.7938 128.624 88.2205 128.229 88.7645 127.952C89.3192 127.664 89.9592 127.52 90.6845 127.52ZM101.657 135.488C101.443 135.68 101.177 135.829 100.857 135.936C100.547 136.032 100.222 136.08 99.8806 136.08C99.0913 136.08 98.4833 135.867 98.0566 135.44C97.63 135.013 97.4166 134.411 97.4166 133.632V128.544H95.9126V127.584H97.4166V125.744H98.5526V127.584H101.113V128.544H98.5526V133.568C98.5526 134.069 98.6753 134.453 98.9206 134.72C99.1766 134.976 99.5393 135.104 100.009 135.104C100.243 135.104 100.467 135.067 100.681 134.992C100.905 134.917 101.097 134.811 101.257 134.672L101.657 135.488ZM104.813 129.232C105.079 128.667 105.474 128.24 105.997 127.952C106.53 127.664 107.186 127.52 107.965 127.52V128.624L107.693 128.608C106.807 128.608 106.114 128.88 105.613 129.424C105.111 129.968 104.861 130.731 104.861 131.712V136H103.725V127.584H104.813V129.232ZM112.95 127.52C114.049 127.52 114.891 127.797 115.478 128.352C116.065 128.896 116.358 129.707 116.358 130.784V136H115.27V134.688C115.014 135.125 114.635 135.467 114.134 135.712C113.643 135.957 113.057 136.08 112.374 136.08C111.435 136.08 110.689 135.856 110.134 135.408C109.579 134.96 109.302 134.368 109.302 133.632C109.302 132.917 109.558 132.341 110.07 131.904C110.593 131.467 111.419 131.248 112.55 131.248H115.222V130.736C115.222 130.011 115.019 129.461 114.614 129.088C114.209 128.704 113.617 128.512 112.838 128.512C112.305 128.512 111.793 128.603 111.302 128.784C110.811 128.955 110.39 129.195 110.038 129.504L109.526 128.656C109.953 128.293 110.465 128.016 111.062 127.824C111.659 127.621 112.289 127.52 112.95 127.52ZM112.55 135.184C113.19 135.184 113.739 135.04 114.198 134.752C114.657 134.453 114.998 134.027 115.222 133.472V132.096H112.582C111.142 132.096 110.422 132.597 110.422 133.6C110.422 134.091 110.609 134.48 110.982 134.768C111.355 135.045 111.878 135.184 112.55 135.184ZM130.959 132.144H123.919C123.983 133.019 124.319 133.728 124.927 134.272C125.535 134.805 126.303 135.072 127.231 135.072C127.754 135.072 128.234 134.981 128.671 134.8C129.108 134.608 129.487 134.331 129.807 133.968L130.447 134.704C130.074 135.152 129.604 135.493 129.039 135.728C128.484 135.963 127.871 136.08 127.199 136.08C126.335 136.08 125.567 135.899 124.895 135.536C124.234 135.163 123.716 134.651 123.343 134C122.97 133.349 122.783 132.613 122.783 131.792C122.783 130.971 122.959 130.235 123.311 129.584C123.674 128.933 124.164 128.427 124.783 128.064C125.412 127.701 126.116 127.52 126.895 127.52C127.674 127.52 128.372 127.701 128.991 128.064C129.61 128.427 130.095 128.933 130.447 129.584C130.799 130.224 130.975 130.96 130.975 131.792L130.959 132.144ZM126.895 128.496C126.084 128.496 125.402 128.757 124.847 129.28C124.303 129.792 123.994 130.464 123.919 131.296H129.887C129.812 130.464 129.498 129.792 128.943 129.28C128.399 128.757 127.716 128.496 126.895 128.496ZM137.575 127.52C138.631 127.52 139.468 127.829 140.087 128.448C140.716 129.056 141.031 129.947 141.031 131.12V136H139.895V131.232C139.895 130.357 139.676 129.691 139.239 129.232C138.802 128.773 138.178 128.544 137.367 128.544C136.46 128.544 135.74 128.816 135.207 129.36C134.684 129.893 134.423 130.635 134.423 131.584V136H133.287V127.584H134.375V129.136C134.684 128.624 135.111 128.229 135.655 127.952C136.21 127.664 136.85 127.52 137.575 127.52ZM148.547 135.488C148.334 135.68 148.067 135.829 147.747 135.936C147.438 136.032 147.113 136.08 146.771 136.08C145.982 136.08 145.374 135.867 144.947 135.44C144.521 135.013 144.307 134.411 144.307 133.632V128.544H142.803V127.584H144.307V125.744H145.443V127.584H148.003V128.544H145.443V133.568C145.443 134.069 145.566 134.453 145.811 134.72C146.067 134.976 146.43 135.104 146.899 135.104C147.134 135.104 147.358 135.067 147.571 134.992C147.795 134.917 147.987 134.811 148.147 134.672L148.547 135.488ZM151.703 129.232C151.97 128.667 152.365 128.24 152.887 127.952C153.421 127.664 154.077 127.52 154.855 127.52V128.624L154.583 128.608C153.698 128.608 153.005 128.88 152.503 129.424C152.002 129.968 151.751 130.731 151.751 131.712V136H150.615V127.584H151.703V129.232ZM164.162 132.144H157.122C157.186 133.019 157.522 133.728 158.13 134.272C158.738 134.805 159.506 135.072 160.434 135.072C160.957 135.072 161.437 134.981 161.874 134.8C162.311 134.608 162.69 134.331 163.01 133.968L163.65 134.704C163.277 135.152 162.807 135.493 162.242 135.728C161.687 135.963 161.074 136.08 160.402 136.08C159.538 136.08 158.77 135.899 158.098 135.536C157.437 135.163 156.919 134.651 156.546 134C156.173 133.349 155.986 132.613 155.986 131.792C155.986 130.971 156.162 130.235 156.514 129.584C156.877 128.933 157.367 128.427 157.986 128.064C158.615 127.701 159.319 127.52 160.098 127.52C160.877 127.52 161.575 127.701 162.194 128.064C162.813 128.427 163.298 128.933 163.65 129.584C164.002 130.224 164.178 130.96 164.178 131.792L164.162 132.144ZM160.098 128.496C159.287 128.496 158.605 128.757 158.05 129.28C157.506 129.792 157.197 130.464 157.122 131.296H163.09C163.015 130.464 162.701 129.792 162.146 129.28C161.602 128.757 160.919 128.496 160.098 128.496ZM174.282 127.584V134.976C174.282 136.405 173.93 137.461 173.226 138.144C172.533 138.837 171.482 139.184 170.074 139.184C169.296 139.184 168.554 139.067 167.85 138.832C167.157 138.608 166.592 138.293 166.154 137.888L166.73 137.024C167.136 137.387 167.626 137.669 168.202 137.872C168.789 138.075 169.402 138.176 170.042 138.176C171.109 138.176 171.893 137.925 172.394 137.424C172.896 136.933 173.146 136.165 173.146 135.12V134.048C172.794 134.581 172.33 134.987 171.754 135.264C171.189 135.541 170.56 135.68 169.866 135.68C169.077 135.68 168.357 135.509 167.706 135.168C167.066 134.816 166.56 134.331 166.186 133.712C165.824 133.083 165.642 132.373 165.642 131.584C165.642 130.795 165.824 130.091 166.186 129.472C166.56 128.853 167.066 128.373 167.706 128.032C168.346 127.691 169.066 127.52 169.866 127.52C170.581 127.52 171.226 127.664 171.802 127.952C172.378 128.24 172.842 128.656 173.194 129.2V127.584H174.282ZM169.978 134.672C170.586 134.672 171.136 134.544 171.626 134.288C172.117 134.021 172.496 133.653 172.762 133.184C173.04 132.715 173.178 132.181 173.178 131.584C173.178 130.987 173.04 130.459 172.762 130C172.496 129.531 172.117 129.168 171.626 128.912C171.146 128.645 170.597 128.512 169.978 128.512C169.37 128.512 168.821 128.64 168.33 128.896C167.85 129.152 167.472 129.515 167.194 129.984C166.928 130.453 166.794 130.987 166.794 131.584C166.794 132.181 166.928 132.715 167.194 133.184C167.472 133.653 167.85 134.021 168.33 134.288C168.821 134.544 169.37 134.672 169.978 134.672ZM180.403 127.52C181.502 127.52 182.344 127.797 182.931 128.352C183.518 128.896 183.811 129.707 183.811 130.784V136H182.723V134.688C182.467 135.125 182.088 135.467 181.587 135.712C181.096 135.957 180.51 136.08 179.827 136.08C178.888 136.08 178.142 135.856 177.587 135.408C177.032 134.96 176.755 134.368 176.755 133.632C176.755 132.917 177.011 132.341 177.523 131.904C178.046 131.467 178.872 131.248 180.003 131.248H182.675V130.736C182.675 130.011 182.472 129.461 182.067 129.088C181.662 128.704 181.07 128.512 180.291 128.512C179.758 128.512 179.246 128.603 178.755 128.784C178.264 128.955 177.843 129.195 177.491 129.504L176.979 128.656C177.406 128.293 177.918 128.016 178.515 127.824C179.112 127.621 179.742 127.52 180.403 127.52ZM180.003 135.184C180.643 135.184 181.192 135.04 181.651 134.752C182.11 134.453 182.451 134.027 182.675 133.472V132.096H180.035C178.595 132.096 177.875 132.597 177.875 133.6C177.875 134.091 178.062 134.48 178.435 134.768C178.808 135.045 179.331 135.184 180.003 135.184Z" fill="#828282"/>
<path d="M209.472 136L206.912 132.4C206.624 132.432 206.325 132.448 206.016 132.448H203.008V136H201.824V124.8H206.016C207.445 124.8 208.565 125.141 209.376 125.824C210.187 126.507 210.592 127.445 210.592 128.64C210.592 129.515 210.368 130.256 209.92 130.864C209.483 131.461 208.853 131.893 208.032 132.16L210.768 136H209.472ZM205.984 131.44C207.093 131.44 207.941 131.195 208.528 130.704C209.115 130.213 209.408 129.525 209.408 128.64C209.408 127.733 209.115 127.04 208.528 126.56C207.941 126.069 207.093 125.824 205.984 125.824H203.008V131.44H205.984ZM220.475 132.144H213.435C213.499 133.019 213.835 133.728 214.443 134.272C215.051 134.805 215.819 135.072 216.747 135.072C217.269 135.072 217.749 134.981 218.187 134.8C218.624 134.608 219.003 134.331 219.323 133.968L219.963 134.704C219.589 135.152 219.12 135.493 218.555 135.728C218 135.963 217.387 136.08 216.715 136.08C215.851 136.08 215.083 135.899 214.411 135.536C213.749 135.163 213.232 134.651 212.859 134C212.485 133.349 212.299 132.613 212.299 131.792C212.299 130.971 212.475 130.235 212.827 129.584C213.189 128.933 213.68 128.427 214.299 128.064C214.928 127.701 215.632 127.52 216.411 127.52C217.189 127.52 217.888 127.701 218.507 128.064C219.125 128.427 219.611 128.933 219.963 129.584C220.315 130.224 220.491 130.96 220.491 131.792L220.475 132.144ZM216.411 128.496C215.6 128.496 214.917 128.757 214.363 129.28C213.819 129.792 213.509 130.464 213.435 131.296H219.403C219.328 130.464 219.013 129.792 218.459 129.28C217.915 128.757 217.232 128.496 216.411 128.496ZM230.131 132.144H223.091C223.155 133.019 223.491 133.728 224.099 134.272C224.707 134.805 225.475 135.072 226.403 135.072C226.925 135.072 227.405 134.981 227.843 134.8C228.28 134.608 228.659 134.331 228.979 133.968L229.619 134.704C229.245 135.152 228.776 135.493 228.211 135.728C227.656 135.963 227.043 136.08 226.371 136.08C225.507 136.08 224.739 135.899 224.067 135.536C223.405 135.163 222.888 134.651 222.515 134C222.141 133.349 221.955 132.613 221.955 131.792C221.955 130.971 222.131 130.235 222.483 129.584C222.845 128.933 223.336 128.427 223.955 128.064C224.584 127.701 225.288 127.52 226.067 127.52C226.845 127.52 227.544 127.701 228.163 128.064C228.781 128.427 229.267 128.933 229.619 129.584C229.971 130.224 230.147 130.96 230.147 131.792L230.131 132.144ZM226.067 128.496C225.256 128.496 224.573 128.757 224.019 129.28C223.475 129.792 223.165 130.464 223.091 131.296H229.059C228.984 130.464 228.669 129.792 228.115 129.28C227.571 128.757 226.888 128.496 226.067 128.496ZM242.955 127.52C244.011 127.52 244.838 127.824 245.435 128.432C246.043 129.04 246.347 129.936 246.347 131.12V136H245.211V131.232C245.211 130.357 244.998 129.691 244.571 129.232C244.155 128.773 243.563 128.544 242.795 128.544C241.92 128.544 241.232 128.816 240.731 129.36C240.23 129.893 239.979 130.635 239.979 131.584V136H238.843V131.232C238.843 130.357 238.63 129.691 238.203 129.232C237.787 128.773 237.19 128.544 236.411 128.544C235.547 128.544 234.859 128.816 234.347 129.36C233.846 129.893 233.595 130.635 233.595 131.584V136H232.459V127.584H233.547V129.12C233.846 128.608 234.262 128.213 234.795 127.936C235.328 127.659 235.942 127.52 236.635 127.52C237.339 127.52 237.947 127.669 238.459 127.968C238.982 128.267 239.371 128.709 239.627 129.296C239.936 128.741 240.379 128.309 240.955 128C241.542 127.68 242.208 127.52 242.955 127.52ZM253.764 127.52C254.553 127.52 255.268 127.701 255.908 128.064C256.548 128.416 257.049 128.917 257.412 129.568C257.774 130.219 257.956 130.96 257.956 131.792C257.956 132.624 257.774 133.365 257.412 134.016C257.049 134.667 256.548 135.173 255.908 135.536C255.268 135.899 254.553 136.08 253.764 136.08C253.06 136.08 252.425 135.931 251.86 135.632C251.305 135.333 250.857 134.901 250.516 134.336V136H249.428V124.128H250.564V129.184C250.916 128.64 251.364 128.229 251.908 127.952C252.462 127.664 253.081 127.52 253.764 127.52ZM253.684 135.072C254.27 135.072 254.804 134.939 255.284 134.672C255.764 134.395 256.137 134.005 256.404 133.504C256.681 133.003 256.82 132.432 256.82 131.792C256.82 131.152 256.681 130.581 256.404 130.08C256.137 129.579 255.764 129.195 255.284 128.928C254.804 128.651 254.27 128.512 253.684 128.512C253.086 128.512 252.548 128.651 252.068 128.928C251.598 129.195 251.225 129.579 250.948 130.08C250.681 130.581 250.548 131.152 250.548 131.792C250.548 132.432 250.681 133.003 250.948 133.504C251.225 134.005 251.598 134.395 252.068 134.672C252.548 134.939 253.086 135.072 253.684 135.072ZM263.712 136.08C262.901 136.08 262.17 135.899 261.52 135.536C260.869 135.163 260.357 134.651 259.984 134C259.61 133.349 259.424 132.613 259.424 131.792C259.424 130.971 259.61 130.235 259.984 129.584C260.357 128.933 260.869 128.427 261.52 128.064C262.17 127.701 262.901 127.52 263.712 127.52C264.522 127.52 265.253 127.701 265.904 128.064C266.554 128.427 267.061 128.933 267.424 129.584C267.797 130.235 267.984 130.971 267.984 131.792C267.984 132.613 267.797 133.349 267.424 134C267.061 134.651 266.554 135.163 265.904 135.536C265.253 135.899 264.522 136.08 263.712 136.08ZM263.712 135.072C264.309 135.072 264.842 134.939 265.312 134.672C265.792 134.395 266.165 134.005 266.432 133.504C266.698 133.003 266.832 132.432 266.832 131.792C266.832 131.152 266.698 130.581 266.432 130.08C266.165 129.579 265.792 129.195 265.312 128.928C264.842 128.651 264.309 128.512 263.712 128.512C263.114 128.512 262.576 128.651 262.096 128.928C261.626 129.195 261.253 129.579 260.976 130.08C260.709 130.581 260.576 131.152 260.576 131.792C260.576 132.432 260.709 133.003 260.976 133.504C261.253 134.005 261.626 134.395 262.096 134.672C262.576 134.939 263.114 135.072 263.712 135.072ZM270.303 124.128H271.439V136H270.303V124.128ZM276.856 136.08C276.173 136.08 275.517 135.984 274.888 135.792C274.269 135.589 273.784 135.339 273.432 135.04L273.944 134.144C274.296 134.421 274.738 134.651 275.272 134.832C275.805 135.003 276.36 135.088 276.936 135.088C277.704 135.088 278.269 134.971 278.632 134.736C279.005 134.491 279.192 134.149 279.192 133.712C279.192 133.403 279.09 133.163 278.888 132.992C278.685 132.811 278.429 132.677 278.12 132.592C277.81 132.496 277.4 132.405 276.888 132.32C276.205 132.192 275.656 132.064 275.24 131.936C274.824 131.797 274.466 131.568 274.168 131.248C273.88 130.928 273.736 130.485 273.736 129.92C273.736 129.216 274.029 128.64 274.616 128.192C275.202 127.744 276.018 127.52 277.064 127.52C277.608 127.52 278.152 127.595 278.696 127.744C279.24 127.883 279.688 128.069 280.04 128.304L279.544 129.216C278.85 128.736 278.024 128.496 277.064 128.496C276.338 128.496 275.789 128.624 275.416 128.88C275.053 129.136 274.872 129.472 274.872 129.888C274.872 130.208 274.973 130.464 275.176 130.656C275.389 130.848 275.65 130.992 275.96 131.088C276.269 131.173 276.696 131.264 277.24 131.36C277.912 131.488 278.45 131.616 278.856 131.744C279.261 131.872 279.608 132.091 279.896 132.4C280.184 132.709 280.328 133.136 280.328 133.68C280.328 134.416 280.018 135.003 279.4 135.44C278.792 135.867 277.944 136.08 276.856 136.08ZM285.868 136.08C285.057 136.08 284.326 135.899 283.676 135.536C283.025 135.163 282.513 134.651 282.14 134C281.766 133.349 281.58 132.613 281.58 131.792C281.58 130.971 281.766 130.235 282.14 129.584C282.513 128.933 283.025 128.427 283.676 128.064C284.326 127.701 285.057 127.52 285.868 127.52C286.678 127.52 287.409 127.701 288.06 128.064C288.71 128.427 289.217 128.933 289.58 129.584C289.953 130.235 290.14 130.971 290.14 131.792C290.14 132.613 289.953 133.349 289.58 134C289.217 134.651 288.71 135.163 288.06 135.536C287.409 135.899 286.678 136.08 285.868 136.08ZM285.868 135.072C286.465 135.072 286.998 134.939 287.468 134.672C287.948 134.395 288.321 134.005 288.588 133.504C288.854 133.003 288.988 132.432 288.988 131.792C288.988 131.152 288.854 130.581 288.588 130.08C288.321 129.579 287.948 129.195 287.468 128.928C286.998 128.651 286.465 128.512 285.868 128.512C285.27 128.512 284.732 128.651 284.252 128.928C283.782 129.195 283.409 129.579 283.132 130.08C282.865 130.581 282.732 131.152 282.732 131.792C282.732 132.432 282.865 133.003 283.132 133.504C283.409 134.005 283.782 134.395 284.252 134.672C284.732 134.939 285.27 135.072 285.868 135.072ZM294.715 136.08C294.032 136.08 293.376 135.984 292.747 135.792C292.128 135.589 291.643 135.339 291.291 135.04L291.803 134.144C292.155 134.421 292.598 134.651 293.131 134.832C293.664 135.003 294.219 135.088 294.795 135.088C295.563 135.088 296.128 134.971 296.491 134.736C296.864 134.491 297.051 134.149 297.051 133.712C297.051 133.403 296.95 133.163 296.747 132.992C296.544 132.811 296.288 132.677 295.979 132.592C295.67 132.496 295.259 132.405 294.747 132.32C294.064 132.192 293.515 132.064 293.099 131.936C292.683 131.797 292.326 131.568 292.027 131.248C291.739 130.928 291.595 130.485 291.595 129.92C291.595 129.216 291.888 128.64 292.475 128.192C293.062 127.744 293.878 127.52 294.923 127.52C295.467 127.52 296.011 127.595 296.555 127.744C297.099 127.883 297.547 128.069 297.899 128.304L297.403 129.216C296.71 128.736 295.883 128.496 294.923 128.496C294.198 128.496 293.648 128.624 293.275 128.88C292.912 129.136 292.731 129.472 292.731 129.888C292.731 130.208 292.832 130.464 293.035 130.656C293.248 130.848 293.51 130.992 293.819 131.088C294.128 131.173 294.555 131.264 295.099 131.36C295.771 131.488 296.31 131.616 296.715 131.744C297.12 131.872 297.467 132.091 297.755 132.4C298.043 132.709 298.187 133.136 298.187 133.68C298.187 134.416 297.878 135.003 297.259 135.44C296.651 135.867 295.803 136.08 294.715 136.08Z" fill="#828282"/>
<mask id="path-15-inside-1" fill="white">
<path d="M91.6483 53.7345C91.9677 53.4106 92.0799 52.9356 91.9421 52.4949C91.8043 52.0541 91.4448 51.7388 91.0041 51.6723L88.3946 51.2771C88.3134 51.2648 88.2431 51.2116 88.2075 51.1356L87.0415 48.6735C86.8444 48.2584 86.4447 48 85.9995 48C85.5542 48 85.1555 48.2584 84.9584 48.6735L83.7914 51.1356C83.7549 51.2116 83.6855 51.2648 83.6043 51.2771L80.9957 51.6723C80.555 51.7388 80.1955 52.0541 80.0577 52.4949C79.9199 52.9356 80.0331 53.4106 80.3515 53.7345L82.2393 55.6504C82.2977 55.7103 82.3251 55.7958 82.3114 55.8803L81.8662 58.5856C81.7904 59.0425 81.9683 59.4956 82.3278 59.7682C82.5313 59.9221 82.7695 60 83.0094 60C83.1937 60 83.3799 59.9535 83.5514 59.8594L85.8854 58.5818C85.9575 58.5419 86.0442 58.5419 86.1172 58.5818L88.4512 59.8594C88.8453 60.075 89.3143 60.0399 89.6747 59.7673C90.0351 59.4947 90.2122 59.0416 90.1364 58.5847L89.6912 55.8794C89.6775 55.7948 89.7039 55.7093 89.7632 55.6495L91.6483 53.7345Z"/>
</mask>
<path d="M91.6483 53.7345C91.9677 53.4106 92.0799 52.9356 91.9421 52.4949C91.8043 52.0541 91.4448 51.7388 91.0041 51.6723L88.3946 51.2771C88.3134 51.2648 88.2431 51.2116 88.2075 51.1356L87.0415 48.6735C86.8444 48.2584 86.4447 48 85.9995 48C85.5542 48 85.1555 48.2584 84.9584 48.6735L83.7914 51.1356C83.7549 51.2116 83.6855 51.2648 83.6043 51.2771L80.9957 51.6723C80.555 51.7388 80.1955 52.0541 80.0577 52.4949C79.9199 52.9356 80.0331 53.4106 80.3515 53.7345L82.2393 55.6504C82.2977 55.7103 82.3251 55.7958 82.3114 55.8803L81.8662 58.5856C81.7904 59.0425 81.9683 59.4956 82.3278 59.7682C82.5313 59.9221 82.7695 60 83.0094 60C83.1937 60 83.3799 59.9535 83.5514 59.8594L85.8854 58.5818C85.9575 58.5419 86.0442 58.5419 86.1172 58.5818L88.4512 59.8594C88.8453 60.075 89.3143 60.0399 89.6747 59.7673C90.0351 59.4947 90.2122 59.0416 90.1364 58.5847L89.6912 55.8794C89.6775 55.7948 89.7039 55.7093 89.7632 55.6495L91.6483 53.7345Z" fill="#EDCA71" stroke="#EDCA71" stroke-width="2" mask="url(#path-15-inside-1)"/>
<path d="M125.648 53.7345C125.968 53.4106 126.08 52.9356 125.942 52.4949C125.804 52.0541 125.445 51.7388 125.004 51.6723L122.395 51.2771C122.313 51.2648 122.243 51.2116 122.208 51.1356L121.041 48.6735C120.844 48.2584 120.445 48 119.999 48C119.554 48 119.155 48.2584 118.958 48.6735L117.791 51.1356C117.755 51.2116 117.686 51.2648 117.604 51.2771L114.996 51.6723C114.555 51.7388 114.195 52.0541 114.058 52.4949C113.92 52.9356 114.033 53.4106 114.352 53.7345L116.239 55.6504C116.298 55.7103 116.325 55.7958 116.311 55.8803L115.866 58.5856C115.79 59.0425 115.968 59.4956 116.328 59.7682C116.531 59.9221 116.769 60 117.009 60C117.194 60 117.38 59.9535 117.551 59.8594L119.885 58.5818C119.957 58.5419 120.044 58.5419 120.117 58.5818L122.451 59.8594C122.845 60.075 123.314 60.0399 123.675 59.7673C124.035 59.4947 124.212 59.0416 124.136 58.5847L123.691 55.8794C123.677 55.7948 123.704 55.7093 123.763 55.6495L125.648 53.7345Z" fill="#EDCA71"/>
<mask id="path-17-inside-2" fill="white">
<path d="M108.648 53.7345C108.968 53.4106 109.08 52.9356 108.942 52.4949C108.804 52.0541 108.445 51.7388 108.004 51.6723L105.395 51.2771C105.313 51.2648 105.243 51.2116 105.208 51.1356L104.041 48.6735C103.844 48.2584 103.445 48 102.999 48C102.554 48 102.155 48.2584 101.958 48.6735L100.791 51.1356C100.755 51.2116 100.686 51.2648 100.604 51.2771L97.9957 51.6723C97.555 51.7388 97.1955 52.0541 97.0577 52.4949C96.9199 52.9356 97.0331 53.4106 97.3515 53.7345L99.2393 55.6504C99.2977 55.7103 99.3251 55.7958 99.3114 55.8803L98.8662 58.5856C98.7904 59.0425 98.9683 59.4956 99.3278 59.7682C99.5313 59.9221 99.7695 60 100.009 60C100.194 60 100.38 59.9535 100.551 59.8594L102.885 58.5818C102.957 58.5419 103.044 58.5419 103.117 58.5818L105.451 59.8594C105.845 60.075 106.314 60.0399 106.675 59.7673C107.035 59.4947 107.212 59.0416 107.136 58.5847L106.691 55.8794C106.677 55.7948 106.704 55.7093 106.763 55.6495L108.648 53.7345Z"/>
</mask>
<path d="M108.648 53.7345C108.968 53.4106 109.08 52.9356 108.942 52.4949C108.804 52.0541 108.445 51.7388 108.004 51.6723L105.395 51.2771C105.313 51.2648 105.243 51.2116 105.208 51.1356L104.041 48.6735C103.844 48.2584 103.445 48 102.999 48C102.554 48 102.155 48.2584 101.958 48.6735L100.791 51.1356C100.755 51.2116 100.686 51.2648 100.604 51.2771L97.9957 51.6723C97.555 51.7388 97.1955 52.0541 97.0577 52.4949C96.9199 52.9356 97.0331 53.4106 97.3515 53.7345L99.2393 55.6504C99.2977 55.7103 99.3251 55.7958 99.3114 55.8803L98.8662 58.5856C98.7904 59.0425 98.9683 59.4956 99.3278 59.7682C99.5313 59.9221 99.7695 60 100.009 60C100.194 60 100.38 59.9535 100.551 59.8594L102.885 58.5818C102.957 58.5419 103.044 58.5419 103.117 58.5818L105.451 59.8594C105.845 60.075 106.314 60.0399 106.675 59.7673C107.035 59.4947 107.212 59.0416 107.136 58.5847L106.691 55.8794C106.677 55.7948 106.704 55.7093 106.763 55.6495L108.648 53.7345Z" fill="#EDCA71" stroke="#EDCA71" stroke-width="2" mask="url(#path-17-inside-2)"/>
<mask id="path-18-inside-3" fill="white">
<path d="M142.648 53.7345C142.968 53.4106 143.08 52.9356 142.942 52.4949C142.804 52.0541 142.445 51.7388 142.004 51.6723L139.395 51.2771C139.313 51.2648 139.243 51.2116 139.208 51.1356L138.041 48.6735C137.844 48.2584 137.445 48 136.999 48C136.554 48 136.155 48.2584 135.958 48.6735L134.791 51.1356C134.755 51.2116 134.686 51.2648 134.604 51.2771L131.996 51.6723C131.555 51.7388 131.195 52.0541 131.058 52.4949C130.92 52.9356 131.033 53.4106 131.352 53.7345L133.239 55.6504C133.298 55.7103 133.325 55.7958 133.311 55.8803L132.866 58.5856C132.79 59.0425 132.968 59.4956 133.328 59.7682C133.531 59.9221 133.769 60 134.009 60C134.194 60 134.38 59.9535 134.551 59.8594L136.885 58.5818C136.957 58.5419 137.044 58.5419 137.117 58.5818L139.451 59.8594C139.845 60.075 140.314 60.0399 140.675 59.7673C141.035 59.4947 141.212 59.0416 141.136 58.5847L140.691 55.8794C140.677 55.7948 140.704 55.7093 140.763 55.6495L142.648 53.7345Z"/>
</mask>
<path d="M142.648 53.7345C142.968 53.4106 143.08 52.9356 142.942 52.4949C142.804 52.0541 142.445 51.7388 142.004 51.6723L139.395 51.2771C139.313 51.2648 139.243 51.2116 139.208 51.1356L138.041 48.6735C137.844 48.2584 137.445 48 136.999 48C136.554 48 136.155 48.2584 135.958 48.6735L134.791 51.1356C134.755 51.2116 134.686 51.2648 134.604 51.2771L131.996 51.6723C131.555 51.7388 131.195 52.0541 131.058 52.4949C130.92 52.9356 131.033 53.4106 131.352 53.7345L133.239 55.6504C133.298 55.7103 133.325 55.7958 133.311 55.8803L132.866 58.5856C132.79 59.0425 132.968 59.4956 133.328 59.7682C133.531 59.9221 133.769 60 134.009 60C134.194 60 134.38 59.9535 134.551 59.8594L136.885 58.5818C136.957 58.5419 137.044 58.5419 137.117 58.5818L139.451 59.8594C139.845 60.075 140.314 60.0399 140.675 59.7673C141.035 59.4947 141.212 59.0416 141.136 58.5847L140.691 55.8794C140.677 55.7948 140.704 55.7093 140.763 55.6495L142.648 53.7345Z" stroke="#EDCA71" stroke-width="4" mask="url(#path-18-inside-3)"/>
<mask id="path-19-inside-4" fill="white">
<path d="M159.648 53.7345C159.968 53.4106 160.08 52.9356 159.942 52.4949C159.804 52.0541 159.445 51.7388 159.004 51.6723L156.395 51.2771C156.313 51.2648 156.243 51.2116 156.208 51.1356L155.041 48.6735C154.844 48.2584 154.445 48 153.999 48C153.554 48 153.155 48.2584 152.958 48.6735L151.791 51.1356C151.755 51.2116 151.686 51.2648 151.604 51.2771L148.996 51.6723C148.555 51.7388 148.195 52.0541 148.058 52.4949C147.92 52.9356 148.033 53.4106 148.352 53.7345L150.239 55.6504C150.298 55.7103 150.325 55.7958 150.311 55.8803L149.866 58.5856C149.79 59.0425 149.968 59.4956 150.328 59.7682C150.531 59.9221 150.769 60 151.009 60C151.194 60 151.38 59.9535 151.551 59.8594L153.885 58.5818C153.957 58.5419 154.044 58.5419 154.117 58.5818L156.451 59.8594C156.845 60.075 157.314 60.0399 157.675 59.7673C158.035 59.4947 158.212 59.0416 158.136 58.5847L157.691 55.8794C157.677 55.7948 157.704 55.7093 157.763 55.6495L159.648 53.7345Z"/>
</mask>
<path d="M159.648 53.7345C159.968 53.4106 160.08 52.9356 159.942 52.4949C159.804 52.0541 159.445 51.7388 159.004 51.6723L156.395 51.2771C156.313 51.2648 156.243 51.2116 156.208 51.1356L155.041 48.6735C154.844 48.2584 154.445 48 153.999 48C153.554 48 153.155 48.2584 152.958 48.6735L151.791 51.1356C151.755 51.2116 151.686 51.2648 151.604 51.2771L148.996 51.6723C148.555 51.7388 148.195 52.0541 148.058 52.4949C147.92 52.9356 148.033 53.4106 148.352 53.7345L150.239 55.6504C150.298 55.7103 150.325 55.7958 150.311 55.8803L149.866 58.5856C149.79 59.0425 149.968 59.4956 150.328 59.7682C150.531 59.9221 150.769 60 151.009 60C151.194 60 151.38 59.9535 151.551 59.8594L153.885 58.5818C153.957 58.5419 154.044 58.5419 154.117 58.5818L156.451 59.8594C156.845 60.075 157.314 60.0399 157.675 59.7673C158.035 59.4947 158.212 59.0416 158.136 58.5847L157.691 55.8794C157.677 55.7948 157.704 55.7093 157.763 55.6495L159.648 53.7345Z" stroke="#EDCA71" stroke-width="4" mask="url(#path-19-inside-4)"/>
</svg>
