<svg width="380" height="180" viewBox="0 0 380 180" fill="none" xmlns="http://www.w3.org/2000/svg">
<rect width="380" height="180" rx="20" fill="white"/>
<rect x="20" y="20" width="40" height="40" rx="20" fill="#E78CFE"/>
<path d="M45.7556 42.8325H44.1795C42.933 42.8325 41.9208 43.8495 41.9208 45.0982V46.6791C41.9208 47.9294 42.9347 48.9448 44.1795 48.9448H45.7556C47.0021 48.9448 48.0143 47.9277 48.0143 46.6791V45.0982C48.016 43.8495 47.0021 42.8325 45.7556 42.8325ZM46.3428 46.6791C46.3428 47.003 46.0802 47.2665 45.7573 47.2665H44.1812C43.8583 47.2665 43.5956 47.003 43.5956 46.6791V45.0982C43.5956 44.7742 43.8583 44.5107 44.1812 44.5107H45.7573C46.0802 44.5107 46.3428 44.7742 46.3428 45.0982V46.6791Z" fill="#F2F2F2"/>
<path d="M52.5 35.7367C52.5 35.255 52.3511 34.7935 52.0683 34.4042L47.7483 28.4378C47.3234 27.8521 46.6407 27.503 45.9196 27.503H34.0839C33.3628 27.503 32.6802 27.8521 32.2552 28.4378L27.9352 34.4058C27.6524 34.7952 27.5035 35.255 27.5035 35.7367V36.987C27.5035 37.0206 27.5102 37.0525 27.5136 37.0844C27.5102 37.1179 27.5035 37.1498 27.5035 37.1817C27.5035 38.4555 28.1377 39.5817 29.1047 40.2631V50.2321C29.1047 51.4824 30.1186 52.4978 31.3634 52.4978H32.3439C33.5904 52.4978 34.6026 51.4808 34.6026 50.2321V44.9237C34.6026 44.5998 34.8653 44.3363 35.1882 44.3363H38.5796C38.9025 44.3363 39.1652 44.5998 39.1652 44.9237V50.2321C39.1652 51.4824 40.1791 52.4978 41.4239 52.4978H48.6384C49.8849 52.4978 50.8972 51.4808 50.8972 50.2321V40.2631C51.8642 39.5817 52.5 38.4555 52.5 37.1817C52.5 37.1482 52.4933 37.1163 52.49 37.0844C52.4933 37.0525 52.5 37.0206 52.5 36.987V35.7367ZM29.1767 35.7367C29.1767 35.6108 29.2151 35.4917 29.2888 35.391L33.6104 29.423C33.7209 29.2719 33.8982 29.1813 34.0839 29.1813H45.9196C46.107 29.1813 46.2844 29.2719 46.3931 29.423L50.7148 35.391C50.7884 35.4917 50.8269 35.6108 50.8269 35.7367V36.987C50.8269 37.0206 50.8336 37.0525 50.8369 37.0844C50.8336 37.1163 50.8269 37.1482 50.8269 37.1817C50.8269 38.3314 49.895 39.2678 48.7472 39.2678C47.5994 39.2678 46.6675 38.333 46.6675 37.1817C46.6675 36.7185 46.2927 36.3426 45.8309 36.3426C45.3692 36.3426 44.9944 36.7185 44.9944 37.1817C44.9944 38.3314 44.0624 39.2678 42.9147 39.2678C41.7686 39.2678 40.8367 38.333 40.8367 37.1817C40.8367 36.7185 40.4619 36.3426 40.0001 36.3426C39.5383 36.3426 39.1635 36.7185 39.1635 37.1817C39.1635 38.3314 38.2316 39.2678 37.0838 39.2678C35.9361 39.2678 35.0042 38.333 35.0042 37.1817C35.0042 36.7185 34.6294 36.3426 34.1676 36.3426C33.7058 36.3426 33.331 36.7185 33.331 37.1817C33.331 38.3314 32.3991 39.2678 31.2513 39.2678C30.1086 39.2678 29.1767 38.333 29.1767 37.1817C29.1767 37.1482 29.17 37.1163 29.1666 37.0844C29.17 37.0525 29.1767 37.0206 29.1767 36.987V35.7367ZM49.2257 50.2338C49.2257 50.5577 48.963 50.8212 48.6401 50.8212H41.4256C41.1027 50.8212 40.84 50.5577 40.84 50.2338V44.9254C40.84 43.675 39.8261 42.6597 38.5813 42.6597H35.1899C33.9434 42.6597 32.9312 43.6767 32.9312 44.9254V50.2338C32.9312 50.5577 32.6685 50.8212 32.3456 50.8212H31.3651C31.0422 50.8212 30.7795 50.5577 30.7795 50.2338V40.9142C30.9351 40.9344 31.0941 40.9461 31.2564 40.9461C32.4326 40.9461 33.4833 40.4007 34.1726 39.5481C34.8603 40.4007 35.9127 40.9461 37.0889 40.9461C38.2651 40.9461 39.3158 40.4007 40.0051 39.5481C40.6928 40.4007 41.7452 40.9461 42.9197 40.9461C44.0959 40.9461 45.1466 40.4007 45.836 39.5481C46.5236 40.4007 47.576 40.9461 48.7522 40.9461C48.9145 40.9461 49.0735 40.9344 49.2291 40.9142V50.2338H49.2257Z" fill="#F2F2F2"/>
<path d="M84.56 25.64H80.08V23H92.28V25.64H87.8V37H84.56V25.64ZM93.5689 26.24H96.6889V37H93.5689V26.24ZM95.1289 24.74C94.5556 24.74 94.0889 24.5733 93.7289 24.24C93.3689 23.9067 93.1889 23.4933 93.1889 23C93.1889 22.5067 93.3689 22.0933 93.7289 21.76C94.0889 21.4267 94.5556 21.26 95.1289 21.26C95.7022 21.26 96.1689 21.42 96.5289 21.74C96.8889 22.06 97.0689 22.46 97.0689 22.94C97.0689 23.46 96.8889 23.8933 96.5289 24.24C96.1689 24.5733 95.7022 24.74 95.1289 24.74ZM110.125 31.66C110.125 31.7 110.105 31.98 110.065 32.5H101.925C102.071 33.1667 102.418 33.6933 102.965 34.08C103.511 34.4667 104.191 34.66 105.005 34.66C105.565 34.66 106.058 34.58 106.485 34.42C106.925 34.2467 107.331 33.98 107.705 33.62L109.365 35.42C108.351 36.58 106.871 37.16 104.925 37.16C103.711 37.16 102.638 36.9267 101.705 36.46C100.771 35.98 100.051 35.32 99.5445 34.48C99.0379 33.64 98.7845 32.6867 98.7845 31.62C98.7845 30.5667 99.0312 29.62 99.5245 28.78C100.031 27.9267 100.718 27.2667 101.585 26.8C102.465 26.32 103.445 26.08 104.525 26.08C105.578 26.08 106.531 26.3067 107.385 26.76C108.238 27.2133 108.905 27.8667 109.385 28.72C109.878 29.56 110.125 30.54 110.125 31.66ZM104.545 28.44C103.838 28.44 103.245 28.64 102.765 29.04C102.285 29.44 101.991 29.9867 101.885 30.68H107.185C107.078 30 106.785 29.46 106.305 29.06C105.825 28.6467 105.238 28.44 104.545 28.44ZM118.742 26.08C120.075 26.08 121.148 26.48 121.962 27.28C122.788 28.08 123.202 29.2667 123.202 30.84V37H120.082V31.32C120.082 30.4667 119.895 29.8333 119.522 29.42C119.148 28.9933 118.608 28.78 117.902 28.78C117.115 28.78 116.488 29.0267 116.022 29.52C115.555 30 115.322 30.72 115.322 31.68V37H112.202V26.24H115.182V27.5C115.595 27.0467 116.108 26.7 116.722 26.46C117.335 26.2067 118.008 26.08 118.742 26.08ZM137.107 22.16V37H134.127V35.76C133.354 36.6933 132.234 37.16 130.767 37.16C129.754 37.16 128.834 36.9333 128.007 36.48C127.194 36.0267 126.554 35.38 126.087 34.54C125.62 33.7 125.387 32.7267 125.387 31.62C125.387 30.5133 125.62 29.54 126.087 28.7C126.554 27.86 127.194 27.2133 128.007 26.76C128.834 26.3067 129.754 26.08 130.767 26.08C132.14 26.08 133.214 26.5133 133.987 27.38V22.16H137.107ZM131.307 34.6C132.094 34.6 132.747 34.3333 133.267 33.8C133.787 33.2533 134.047 32.5267 134.047 31.62C134.047 30.7133 133.787 29.9933 133.267 29.46C132.747 28.9133 132.094 28.64 131.307 28.64C130.507 28.64 129.847 28.9133 129.327 29.46C128.807 29.9933 128.547 30.7133 128.547 31.62C128.547 32.5267 128.807 33.2533 129.327 33.8C129.847 34.3333 130.507 34.6 131.307 34.6ZM139.995 26.24H143.115V37H139.995V26.24ZM141.555 24.74C140.981 24.74 140.515 24.5733 140.155 24.24C139.795 23.9067 139.615 23.4933 139.615 23C139.615 22.5067 139.795 22.0933 140.155 21.76C140.515 21.4267 140.981 21.26 141.555 21.26C142.128 21.26 142.595 21.42 142.955 21.74C143.315 22.06 143.495 22.46 143.495 22.94C143.495 23.46 143.315 23.8933 142.955 24.24C142.595 24.5733 142.128 24.74 141.555 24.74ZM152.95 36.48C152.644 36.7067 152.264 36.88 151.81 37C151.37 37.1067 150.904 37.16 150.41 37.16C149.13 37.16 148.137 36.8333 147.43 36.18C146.737 35.5267 146.39 34.5667 146.39 33.3V28.88H144.73V26.48H146.39V23.86H149.51V26.48H152.19V28.88H149.51V33.26C149.51 33.7133 149.624 34.0667 149.85 34.32C150.09 34.56 150.424 34.68 150.85 34.68C151.344 34.68 151.764 34.5467 152.11 34.28L152.95 36.48ZM159.042 26.08C160.708 26.08 161.988 26.48 162.882 27.28C163.775 28.0667 164.222 29.26 164.222 30.86V37H161.302V35.66C160.715 36.66 159.622 37.16 158.022 37.16C157.195 37.16 156.475 37.02 155.862 36.74C155.262 36.46 154.802 36.0733 154.482 35.58C154.162 35.0867 154.002 34.5267 154.002 33.9C154.002 32.9 154.375 32.1133 155.122 31.54C155.882 30.9667 157.048 30.68 158.622 30.68H161.102C161.102 30 160.895 29.48 160.482 29.12C160.068 28.7467 159.448 28.56 158.622 28.56C158.048 28.56 157.482 28.6533 156.922 28.84C156.375 29.0133 155.908 29.2533 155.522 29.56L154.402 27.38C154.988 26.9667 155.688 26.6467 156.502 26.42C157.328 26.1933 158.175 26.08 159.042 26.08ZM158.802 35.06C159.335 35.06 159.808 34.94 160.222 34.7C160.635 34.4467 160.928 34.08 161.102 33.6V32.5H158.962C157.682 32.5 157.042 32.92 157.042 33.76C157.042 34.16 157.195 34.48 157.502 34.72C157.822 34.9467 158.255 35.06 158.802 35.06ZM168.225 37.16C167.679 37.16 167.219 36.9733 166.845 36.6C166.472 36.2267 166.285 35.76 166.285 35.2C166.285 34.6267 166.472 34.1667 166.845 33.82C167.219 33.46 167.679 33.28 168.225 33.28C168.772 33.28 169.232 33.46 169.605 33.82C169.979 34.1667 170.165 34.6267 170.165 35.2C170.165 35.76 169.979 36.2267 169.605 36.6C169.232 36.9733 168.772 37.16 168.225 37.16ZM177.343 37.16C176.196 37.16 175.163 36.9267 174.243 36.46C173.336 35.98 172.623 35.32 172.103 34.48C171.596 33.64 171.343 32.6867 171.343 31.62C171.343 30.5533 171.596 29.6 172.103 28.76C172.623 27.92 173.336 27.2667 174.243 26.8C175.163 26.32 176.196 26.08 177.343 26.08C178.476 26.08 179.463 26.32 180.303 26.8C181.156 27.2667 181.776 27.94 182.163 28.82L179.743 30.12C179.183 29.1333 178.376 28.64 177.323 28.64C176.51 28.64 175.836 28.9067 175.303 29.44C174.77 29.9733 174.503 30.7 174.503 31.62C174.503 32.54 174.77 33.2667 175.303 33.8C175.836 34.3333 176.51 34.6 177.323 34.6C178.39 34.6 179.196 34.1067 179.743 33.12L182.163 34.44C181.776 35.2933 181.156 35.96 180.303 36.44C179.463 36.92 178.476 37.16 177.343 37.16ZM188.943 37.16C187.809 37.16 186.789 36.9267 185.883 36.46C184.989 35.98 184.289 35.32 183.783 34.48C183.276 33.64 183.023 32.6867 183.023 31.62C183.023 30.5533 183.276 29.6 183.783 28.76C184.289 27.92 184.989 27.2667 185.883 26.8C186.789 26.32 187.809 26.08 188.943 26.08C190.076 26.08 191.089 26.32 191.983 26.8C192.876 27.2667 193.576 27.92 194.083 28.76C194.589 29.6 194.843 30.5533 194.843 31.62C194.843 32.6867 194.589 33.64 194.083 34.48C193.576 35.32 192.876 35.98 191.983 36.46C191.089 36.9267 190.076 37.16 188.943 37.16ZM188.943 34.6C189.743 34.6 190.396 34.3333 190.903 33.8C191.423 33.2533 191.683 32.5267 191.683 31.62C191.683 30.7133 191.423 29.9933 190.903 29.46C190.396 28.9133 189.743 28.64 188.943 28.64C188.143 28.64 187.483 28.9133 186.963 29.46C186.443 29.9933 186.183 30.7133 186.183 31.62C186.183 32.5267 186.443 33.2533 186.963 33.8C187.483 34.3333 188.143 34.6 188.943 34.6Z" fill="#00635D"/>
<path d="M28.848 93.008H22.608L21.264 96H20.032L25.152 84.8H26.32L31.44 96H30.192L28.848 93.008ZM28.416 92.048L25.728 86.032L23.04 92.048H28.416ZM37.3408 87.52C38.3968 87.52 39.2341 87.8293 39.8528 88.448C40.4821 89.056 40.7968 89.9467 40.7968 91.12V96H39.6608V91.232C39.6608 90.3573 39.4421 89.6907 39.0048 89.232C38.5674 88.7733 37.9434 88.544 37.1328 88.544C36.2261 88.544 35.5061 88.816 34.9728 89.36C34.4501 89.8933 34.1888 90.6347 34.1888 91.584V96H33.0528V87.584H34.1408V89.136C34.4501 88.624 34.8768 88.2293 35.4208 87.952C35.9754 87.664 36.6154 87.52 37.3408 87.52ZM48.3129 95.488C48.0995 95.68 47.8329 95.8293 47.5129 95.936C47.2035 96.032 46.8782 96.08 46.5369 96.08C45.7475 96.08 45.1395 95.8667 44.7129 95.44C44.2862 95.0133 44.0729 94.4107 44.0729 93.632V88.544H42.5689V87.584H44.0729V85.744H45.2089V87.584H47.7689V88.544H45.2089V93.568C45.2089 94.0693 45.3315 94.4533 45.5769 94.72C45.8329 94.976 46.1955 95.104 46.6649 95.104C46.8995 95.104 47.1235 95.0667 47.3369 94.992C47.5609 94.9173 47.7529 94.8107 47.9129 94.672L48.3129 95.488ZM50.3809 87.584H51.5169V96H50.3809V87.584ZM50.9569 85.744C50.7222 85.744 50.5249 85.664 50.3649 85.504C50.2049 85.344 50.1249 85.152 50.1249 84.928C50.1249 84.7147 50.2049 84.528 50.3649 84.368C50.5249 84.208 50.7222 84.128 50.9569 84.128C51.1915 84.128 51.3889 84.208 51.5489 84.368C51.7089 84.5173 51.7889 84.6987 51.7889 84.912C51.7889 85.1467 51.7089 85.344 51.5489 85.504C51.3889 85.664 51.1915 85.744 50.9569 85.744ZM62.4698 87.584V94.976C62.4698 96.4053 62.1178 97.4613 61.4138 98.144C60.7204 98.8373 59.6698 99.184 58.2618 99.184C57.4831 99.184 56.7418 99.0667 56.0378 98.832C55.3444 98.608 54.7791 98.2933 54.3418 97.888L54.9178 97.024C55.3231 97.3867 55.8138 97.6693 56.3898 97.872C56.9764 98.0747 57.5898 98.176 58.2298 98.176C59.2964 98.176 60.0804 97.9253 60.5818 97.424C61.0831 96.9333 61.3338 96.1653 61.3338 95.12V94.048C60.9818 94.5813 60.5178 94.9867 59.9418 95.264C59.3764 95.5413 58.7471 95.68 58.0538 95.68C57.2644 95.68 56.5444 95.5093 55.8938 95.168C55.2538 94.816 54.7471 94.3307 54.3738 93.712C54.0111 93.0827 53.8298 92.3733 53.8298 91.584C53.8298 90.7947 54.0111 90.0907 54.3738 89.472C54.7471 88.8533 55.2538 88.3733 55.8938 88.032C56.5338 87.6907 57.2538 87.52 58.0538 87.52C58.7684 87.52 59.4138 87.664 59.9898 87.952C60.5658 88.24 61.0298 88.656 61.3818 89.2V87.584H62.4698ZM58.1658 94.672C58.7738 94.672 59.3231 94.544 59.8138 94.288C60.3044 94.0213 60.6831 93.6533 60.9498 93.184C61.2271 92.7147 61.3658 92.1813 61.3658 91.584C61.3658 90.9867 61.2271 90.4587 60.9498 90C60.6831 89.5307 60.3044 89.168 59.8138 88.912C59.3338 88.6453 58.7844 88.512 58.1658 88.512C57.5578 88.512 57.0084 88.64 56.5178 88.896C56.0378 89.152 55.6591 89.5147 55.3818 89.984C55.1151 90.4533 54.9818 90.9867 54.9818 91.584C54.9818 92.1813 55.1151 92.7147 55.3818 93.184C55.6591 93.6533 56.0378 94.0213 56.5178 94.288C57.0084 94.544 57.5578 94.672 58.1658 94.672ZM73.2305 87.584V96H72.1425V94.464C71.8438 94.976 71.4332 95.376 70.9105 95.664C70.3878 95.9413 69.7905 96.08 69.1185 96.08C68.0198 96.08 67.1505 95.776 66.5105 95.168C65.8812 94.5493 65.5665 93.648 65.5665 92.464V87.584H66.7025V92.352C66.7025 93.2373 66.9212 93.9093 67.3585 94.368C67.7958 94.8267 68.4198 95.056 69.2305 95.056C70.1158 95.056 70.8145 94.7893 71.3265 94.256C71.8385 93.712 72.0945 92.96 72.0945 92V87.584H73.2305ZM67.9825 85.904C67.7905 85.904 67.6252 85.84 67.4865 85.712C67.3585 85.584 67.2945 85.4187 67.2945 85.216C67.2945 85.024 67.3585 84.864 67.4865 84.736C67.6252 84.5973 67.7905 84.528 67.9825 84.528C68.1638 84.528 68.3238 84.5973 68.4625 84.736C68.6012 84.864 68.6705 85.024 68.6705 85.216C68.6705 85.408 68.6012 85.5733 68.4625 85.712C68.3345 85.84 68.1745 85.904 67.9825 85.904ZM70.8305 85.904C70.6385 85.904 70.4732 85.84 70.3345 85.712C70.2065 85.5733 70.1425 85.408 70.1425 85.216C70.1425 85.024 70.2118 84.864 70.3505 84.736C70.4892 84.5973 70.6492 84.528 70.8305 84.528C71.0225 84.528 71.1825 84.5973 71.3105 84.736C71.4492 84.864 71.5185 85.024 71.5185 85.216C71.5185 85.4187 71.4492 85.584 71.3105 85.712C71.1825 85.84 71.0225 85.904 70.8305 85.904ZM83.7401 92.144H76.7001C76.7641 93.0187 77.1001 93.728 77.7081 94.272C78.3161 94.8053 79.0841 95.072 80.0121 95.072C80.5348 95.072 81.0148 94.9813 81.4521 94.8C81.8895 94.608 82.2681 94.3307 82.5881 93.968L83.2281 94.704C82.8548 95.152 82.3855 95.4933 81.8201 95.728C81.2655 95.9627 80.6521 96.08 79.9801 96.08C79.1161 96.08 78.3481 95.8987 77.6761 95.536C77.0148 95.1627 76.4975 94.6507 76.1241 94C75.7508 93.3493 75.5641 92.6133 75.5641 91.792C75.5641 90.9707 75.7401 90.2347 76.0921 89.584C76.4548 88.9333 76.9455 88.4267 77.5641 88.064C78.1935 87.7013 78.8975 87.52 79.6761 87.52C80.4548 87.52 81.1535 87.7013 81.7721 88.064C82.3908 88.4267 82.8761 88.9333 83.2281 89.584C83.5801 90.224 83.7561 90.96 83.7561 91.792L83.7401 92.144ZM79.6761 88.496C78.8655 88.496 78.1828 88.7573 77.6281 89.28C77.0841 89.792 76.7748 90.464 76.7001 91.296H82.6681C82.5935 90.464 82.2788 89.792 81.7241 89.28C81.1801 88.7573 80.4975 88.496 79.6761 88.496ZM93.7484 84.128V96H92.6604V94.336C92.319 94.9013 91.8657 95.3333 91.3004 95.632C90.7457 95.9307 90.1164 96.08 89.4124 96.08C88.623 96.08 87.9084 95.8987 87.2684 95.536C86.6284 95.1733 86.127 94.6667 85.7644 94.016C85.4017 93.3653 85.2204 92.624 85.2204 91.792C85.2204 90.96 85.4017 90.2187 85.7644 89.568C86.127 88.9173 86.6284 88.416 87.2684 88.064C87.9084 87.7013 88.623 87.52 89.4124 87.52C90.095 87.52 90.7084 87.664 91.2524 87.952C91.807 88.2293 92.2604 88.64 92.6124 89.184V84.128H93.7484ZM89.5084 95.072C90.095 95.072 90.623 94.9387 91.0924 94.672C91.5724 94.3947 91.9457 94.0053 92.2124 93.504C92.4897 93.0027 92.6284 92.432 92.6284 91.792C92.6284 91.152 92.4897 90.5813 92.2124 90.08C91.9457 89.5787 91.5724 89.1947 91.0924 88.928C90.623 88.6507 90.095 88.512 89.5084 88.512C88.911 88.512 88.3724 88.6507 87.8924 88.928C87.423 89.1947 87.0497 89.5787 86.7724 90.08C86.5057 90.5813 86.3724 91.152 86.3724 91.792C86.3724 92.432 86.5057 93.0027 86.7724 93.504C87.0497 94.0053 87.423 94.3947 87.8924 94.672C88.3724 94.9387 88.911 95.072 89.5084 95.072ZM99.8561 87.52C100.955 87.52 101.797 87.7973 102.384 88.352C102.971 88.896 103.264 89.7067 103.264 90.784V96H102.176V94.688C101.92 95.1253 101.541 95.4667 101.04 95.712C100.549 95.9573 99.9628 96.08 99.2801 96.08C98.3415 96.08 97.5948 95.856 97.0401 95.408C96.4855 94.96 96.2081 94.368 96.2081 93.632C96.2081 92.9173 96.4641 92.3413 96.9761 91.904C97.4988 91.4667 98.3255 91.248 99.4561 91.248H102.128V90.736C102.128 90.0107 101.925 89.4613 101.52 89.088C101.115 88.704 100.523 88.512 99.7441 88.512C99.2108 88.512 98.6988 88.6027 98.2081 88.784C97.7175 88.9547 97.2961 89.1947 96.9441 89.504L96.4321 88.656C96.8588 88.2933 97.3708 88.016 97.9681 87.824C98.5655 87.6213 99.1948 87.52 99.8561 87.52ZM99.4561 95.184C100.096 95.184 100.645 95.04 101.104 94.752C101.563 94.4533 101.904 94.0267 102.128 93.472V92.096H99.4881C98.0481 92.096 97.3281 92.5973 97.3281 93.6C97.3281 94.0907 97.5148 94.48 97.8881 94.768C98.2615 95.0453 98.7841 95.184 99.4561 95.184ZM114.061 84.128V96H112.973V94.336C112.632 94.9013 112.178 95.3333 111.613 95.632C111.058 95.9307 110.429 96.08 109.725 96.08C108.936 96.08 108.221 95.8987 107.581 95.536C106.941 95.1733 106.44 94.6667 106.077 94.016C105.714 93.3653 105.533 92.624 105.533 91.792C105.533 90.96 105.714 90.2187 106.077 89.568C106.44 88.9173 106.941 88.416 107.581 88.064C108.221 87.7013 108.936 87.52 109.725 87.52C110.408 87.52 111.021 87.664 111.565 87.952C112.12 88.2293 112.573 88.64 112.925 89.184V84.128H114.061ZM109.821 95.072C110.408 95.072 110.936 94.9387 111.405 94.672C111.885 94.3947 112.258 94.0053 112.525 93.504C112.802 93.0027 112.941 92.432 112.941 91.792C112.941 91.152 112.802 90.5813 112.525 90.08C112.258 89.5787 111.885 89.1947 111.405 88.928C110.936 88.6507 110.408 88.512 109.821 88.512C109.224 88.512 108.685 88.6507 108.205 88.928C107.736 89.1947 107.362 89.5787 107.085 90.08C106.818 90.5813 106.685 91.152 106.685 91.792C106.685 92.432 106.818 93.0027 107.085 93.504C107.362 94.0053 107.736 94.3947 108.205 94.672C108.685 94.9387 109.224 95.072 109.821 95.072Z" fill="#828282"/>
<path d="M167.79 52.58V60H167.11V58.96C166.897 59.3133 166.613 59.5833 166.26 59.77C165.913 59.9567 165.52 60.05 165.08 60.05C164.587 60.05 164.14 59.9367 163.74 59.71C163.34 59.4833 163.027 59.1667 162.8 58.76C162.573 58.3533 162.46 57.89 162.46 57.37C162.46 56.85 162.573 56.3867 162.8 55.98C163.027 55.5733 163.34 55.26 163.74 55.04C164.14 54.8133 164.587 54.7 165.08 54.7C165.507 54.7 165.89 54.79 166.23 54.97C166.577 55.1433 166.86 55.4 167.08 55.74V52.58H167.79ZM165.14 59.42C165.507 59.42 165.837 59.3367 166.13 59.17C166.43 58.9967 166.663 58.7533 166.83 58.44C167.003 58.1267 167.09 57.77 167.09 57.37C167.09 56.97 167.003 56.6133 166.83 56.3C166.663 55.9867 166.43 55.7467 166.13 55.58C165.837 55.4067 165.507 55.32 165.14 55.32C164.767 55.32 164.43 55.4067 164.13 55.58C163.837 55.7467 163.603 55.9867 163.43 56.3C163.263 56.6133 163.18 56.97 163.18 57.37C163.18 57.77 163.263 58.1267 163.43 58.44C163.603 58.7533 163.837 58.9967 164.13 59.17C164.43 59.3367 164.767 59.42 165.14 59.42ZM174.347 57.59H169.947C169.987 58.1367 170.197 58.58 170.577 58.92C170.957 59.2533 171.437 59.42 172.017 59.42C172.344 59.42 172.644 59.3633 172.917 59.25C173.191 59.13 173.427 58.9567 173.627 58.73L174.027 59.19C173.794 59.47 173.501 59.6833 173.147 59.83C172.801 59.9767 172.417 60.05 171.997 60.05C171.457 60.05 170.977 59.9367 170.557 59.71C170.144 59.4767 169.821 59.1567 169.587 58.75C169.354 58.3433 169.237 57.8833 169.237 57.37C169.237 56.8567 169.347 56.3967 169.567 55.99C169.794 55.5833 170.101 55.2667 170.487 55.04C170.881 54.8133 171.321 54.7 171.807 54.7C172.294 54.7 172.731 54.8133 173.117 55.04C173.504 55.2667 173.807 55.5833 174.027 55.99C174.247 56.39 174.357 56.85 174.357 57.37L174.347 57.59ZM171.807 55.31C171.301 55.31 170.874 55.4733 170.527 55.8C170.187 56.12 169.994 56.54 169.947 57.06H173.677C173.631 56.54 173.434 56.12 173.087 55.8C172.747 55.4733 172.321 55.31 171.807 55.31ZM180.33 56C181.063 56.04 181.62 56.24 182 56.6C182.386 56.9533 182.58 57.4167 182.58 57.99C182.58 58.39 182.483 58.7467 182.29 59.06C182.096 59.3667 181.81 59.61 181.43 59.79C181.05 59.97 180.586 60.06 180.04 60.06C179.533 60.06 179.053 59.98 178.6 59.82C178.153 59.6533 177.793 59.4333 177.52 59.16L177.87 58.59C178.103 58.83 178.413 59.0267 178.8 59.18C179.186 59.3267 179.6 59.4 180.04 59.4C180.613 59.4 181.056 59.2767 181.37 59.03C181.683 58.7767 181.84 58.43 181.84 57.99C181.84 57.5567 181.683 57.2167 181.37 56.97C181.056 56.7233 180.583 56.6 179.95 56.6H179.45V56.07L181.39 53.64H177.81V53H182.31V53.51L180.33 56ZM189.544 58.16H188.144V60H187.424V58.16H183.474V57.64L187.184 53H187.984L184.404 57.52H187.444V55.9H188.144V57.52H189.544V58.16ZM194.313 56.33C194.753 56.4767 195.09 56.6967 195.323 56.99C195.563 57.2833 195.683 57.6367 195.683 58.05C195.683 58.4567 195.573 58.8133 195.353 59.12C195.133 59.42 194.817 59.6533 194.403 59.82C193.997 59.98 193.517 60.06 192.963 60.06C192.123 60.06 191.463 59.88 190.983 59.52C190.503 59.16 190.263 58.67 190.263 58.05C190.263 57.63 190.377 57.2767 190.603 56.99C190.837 56.6967 191.173 56.4767 191.613 56.33C191.253 56.19 190.98 55.99 190.793 55.73C190.607 55.4633 190.513 55.15 190.513 54.79C190.513 54.2233 190.733 53.7733 191.173 53.44C191.62 53.1067 192.217 52.94 192.963 52.94C193.457 52.94 193.887 53.0167 194.253 53.17C194.627 53.3167 194.917 53.53 195.123 53.81C195.33 54.09 195.433 54.4167 195.433 54.79C195.433 55.15 195.337 55.4633 195.143 55.73C194.95 55.99 194.673 56.19 194.313 56.33ZM191.233 54.81C191.233 55.1967 191.387 55.5033 191.693 55.73C192 55.9567 192.423 56.07 192.963 56.07C193.503 56.07 193.927 55.9567 194.233 55.73C194.547 55.5033 194.703 55.2 194.703 54.82C194.703 54.4267 194.543 54.1167 194.223 53.89C193.91 53.6633 193.49 53.55 192.963 53.55C192.43 53.55 192.007 53.6633 191.693 53.89C191.387 54.1167 191.233 54.4233 191.233 54.81ZM192.963 59.45C193.583 59.45 194.067 59.3233 194.413 59.07C194.767 58.8167 194.943 58.4733 194.943 58.04C194.943 57.6067 194.767 57.2667 194.413 57.02C194.067 56.7667 193.583 56.64 192.963 56.64C192.35 56.64 191.867 56.7667 191.513 57.02C191.167 57.2667 190.993 57.6067 190.993 58.04C190.993 58.48 191.167 58.8267 191.513 59.08C191.86 59.3267 192.343 59.45 192.963 59.45ZM198.86 52.94C199.787 52.94 200.497 53.2467 200.99 53.86C201.483 54.4667 201.73 55.3267 201.73 56.44C201.73 57.22 201.597 57.88 201.33 58.42C201.063 58.96 200.69 59.37 200.21 59.65C199.73 59.9233 199.17 60.06 198.53 60.06C197.837 60.06 197.283 59.9333 196.87 59.68L197.16 59.1C197.493 59.32 197.947 59.43 198.52 59.43C199.293 59.43 199.9 59.1867 200.34 58.7C200.78 58.2067 201 57.4933 201 56.56C201 56.3867 200.99 56.1967 200.97 55.99C200.797 56.37 200.52 56.6667 200.14 56.88C199.76 57.0867 199.323 57.19 198.83 57.19C198.37 57.19 197.96 57.1033 197.6 56.93C197.247 56.7567 196.97 56.5133 196.77 56.2C196.57 55.88 196.47 55.51 196.47 55.09C196.47 54.6633 196.573 54.2867 196.78 53.96C196.987 53.6333 197.27 53.3833 197.63 53.21C197.997 53.03 198.407 52.94 198.86 52.94ZM198.94 56.58C199.293 56.58 199.603 56.5133 199.87 56.38C200.143 56.2467 200.357 56.0633 200.51 55.83C200.663 55.5967 200.74 55.3367 200.74 55.05C200.74 54.7833 200.667 54.5367 200.52 54.31C200.38 54.0833 200.17 53.9 199.89 53.76C199.61 53.62 199.277 53.55 198.89 53.55C198.383 53.55 197.97 53.69 197.65 53.97C197.337 54.2433 197.18 54.61 197.18 55.07C197.18 55.53 197.337 55.8967 197.65 56.17C197.97 56.4433 198.4 56.58 198.94 56.58ZM207.534 59.36V60H202.624V59.49L205.534 56.64C205.901 56.28 206.148 55.97 206.274 55.71C206.408 55.4433 206.474 55.1767 206.474 54.91C206.474 54.4967 206.331 54.1767 206.044 53.95C205.764 53.7167 205.361 53.6 204.834 53.6C204.014 53.6 203.378 53.86 202.924 54.38L202.414 53.94C202.688 53.62 203.034 53.3733 203.454 53.2C203.881 53.0267 204.361 52.94 204.894 52.94C205.608 52.94 206.171 53.11 206.584 53.45C207.004 53.7833 207.214 54.2433 207.214 54.83C207.214 55.19 207.134 55.5367 206.974 55.87C206.814 56.2033 206.511 56.5867 206.064 57.02L203.684 59.36H207.534ZM214.154 58.16H212.754V60H212.034V58.16H208.084V57.64L211.794 53H212.594L209.014 57.52H212.054V55.9H212.754V57.52H214.154V58.16ZM217.715 55.81C218.175 55.81 218.582 55.8967 218.935 56.07C219.295 56.2433 219.575 56.49 219.775 56.81C219.975 57.1233 220.075 57.49 220.075 57.91C220.075 58.3367 219.972 58.7133 219.765 59.04C219.558 59.3667 219.272 59.62 218.905 59.8C218.545 59.9733 218.138 60.06 217.685 60.06C216.758 60.06 216.048 59.7567 215.555 59.15C215.062 58.5367 214.815 57.6733 214.815 56.56C214.815 55.78 214.948 55.12 215.215 54.58C215.482 54.04 215.855 53.6333 216.335 53.36C216.815 53.08 217.375 52.94 218.015 52.94C218.708 52.94 219.262 53.0667 219.675 53.32L219.385 53.9C219.052 53.68 218.598 53.57 218.025 53.57C217.252 53.57 216.645 53.8167 216.205 54.31C215.765 54.7967 215.545 55.5067 215.545 56.44C215.545 56.6067 215.555 56.7967 215.575 57.01C215.748 56.63 216.025 56.3367 216.405 56.13C216.785 55.9167 217.222 55.81 217.715 55.81ZM217.655 59.45C218.162 59.45 218.572 59.3133 218.885 59.04C219.205 58.76 219.365 58.39 219.365 57.93C219.365 57.47 219.205 57.1033 218.885 56.83C218.572 56.5567 218.145 56.42 217.605 56.42C217.252 56.42 216.938 56.4867 216.665 56.62C216.398 56.7533 216.188 56.9367 216.035 57.17C215.882 57.4033 215.805 57.6633 215.805 57.95C215.805 58.2167 215.875 58.4633 216.015 58.69C216.162 58.9167 216.375 59.1 216.655 59.24C216.935 59.38 217.268 59.45 217.655 59.45ZM226.146 60.05C225.639 60.05 225.183 59.9367 224.776 59.71C224.369 59.4767 224.049 59.1567 223.816 58.75C223.583 58.3433 223.466 57.8833 223.466 57.37C223.466 56.8567 223.583 56.3967 223.816 55.99C224.049 55.5833 224.369 55.2667 224.776 55.04C225.183 54.8133 225.639 54.7 226.146 54.7C226.653 54.7 227.109 54.8133 227.516 55.04C227.923 55.2667 228.239 55.5833 228.466 55.99C228.699 56.3967 228.816 56.8567 228.816 57.37C228.816 57.8833 228.699 58.3433 228.466 58.75C228.239 59.1567 227.923 59.4767 227.516 59.71C227.109 59.9367 226.653 60.05 226.146 60.05ZM226.146 59.42C226.519 59.42 226.853 59.3367 227.146 59.17C227.446 58.9967 227.679 58.7533 227.846 58.44C228.013 58.1267 228.096 57.77 228.096 57.37C228.096 56.97 228.013 56.6133 227.846 56.3C227.679 55.9867 227.446 55.7467 227.146 55.58C226.853 55.4067 226.519 55.32 226.146 55.32C225.773 55.32 225.436 55.4067 225.136 55.58C224.843 55.7467 224.609 55.9867 224.436 56.3C224.269 56.6133 224.186 56.97 224.186 57.37C224.186 57.77 224.269 58.1267 224.436 58.44C224.609 58.7533 224.843 58.9967 225.136 59.17C225.436 59.3367 225.773 59.42 226.146 59.42ZM232.975 54.7C233.469 54.7 233.915 54.8133 234.315 55.04C234.715 55.26 235.029 55.5733 235.255 55.98C235.482 56.3867 235.595 56.85 235.595 57.37C235.595 57.8967 235.482 58.3633 235.255 58.77C235.029 59.1767 234.715 59.4933 234.315 59.72C233.922 59.94 233.475 60.05 232.975 60.05C232.549 60.05 232.162 59.9633 231.815 59.79C231.475 59.61 231.195 59.35 230.975 59.01V61.94H230.265V54.74H230.945V55.78C231.159 55.4333 231.439 55.1667 231.785 54.98C232.139 54.7933 232.535 54.7 232.975 54.7ZM232.925 59.42C233.292 59.42 233.625 59.3367 233.925 59.17C234.225 58.9967 234.459 58.7533 234.625 58.44C234.799 58.1267 234.885 57.77 234.885 57.37C234.885 56.97 234.799 56.6167 234.625 56.31C234.459 55.9967 234.225 55.7533 233.925 55.58C233.625 55.4067 233.292 55.32 232.925 55.32C232.552 55.32 232.215 55.4067 231.915 55.58C231.622 55.7533 231.389 55.9967 231.215 56.31C231.049 56.6167 230.965 56.97 230.965 57.37C230.965 57.77 231.049 58.1267 231.215 58.44C231.389 58.7533 231.622 58.9967 231.915 59.17C232.215 59.3367 232.552 59.42 232.925 59.42ZM237.043 54.74H237.753V60H237.043V54.74ZM237.403 53.59C237.256 53.59 237.133 53.54 237.033 53.44C236.933 53.34 236.883 53.22 236.883 53.08C236.883 52.9467 236.933 52.83 237.033 52.73C237.133 52.63 237.256 52.58 237.403 52.58C237.549 52.58 237.673 52.63 237.773 52.73C237.873 52.8233 237.923 52.9367 237.923 53.07C237.923 53.2167 237.873 53.34 237.773 53.44C237.673 53.54 237.549 53.59 237.403 53.59ZM242.408 54.7C243.068 54.7 243.592 54.8933 243.978 55.28C244.372 55.66 244.568 56.2167 244.568 56.95V60H243.858V57.02C243.858 56.4733 243.722 56.0567 243.448 55.77C243.175 55.4833 242.785 55.34 242.278 55.34C241.712 55.34 241.262 55.51 240.928 55.85C240.602 56.1833 240.438 56.6467 240.438 57.24V60H239.728V54.74H240.408V55.71C240.602 55.39 240.868 55.1433 241.208 54.97C241.555 54.79 241.955 54.7 242.408 54.7ZM246.496 54.74H247.206V60H246.496V54.74ZM246.856 53.59C246.709 53.59 246.586 53.54 246.486 53.44C246.386 53.34 246.336 53.22 246.336 53.08C246.336 52.9467 246.386 52.83 246.486 52.73C246.586 52.63 246.709 52.58 246.856 52.58C247.003 52.58 247.126 52.63 247.226 52.73C247.326 52.8233 247.376 52.9367 247.376 53.07C247.376 53.2167 247.326 53.34 247.226 53.44C247.126 53.54 247.003 53.59 246.856 53.59ZM251.331 60.05C250.825 60.05 250.368 59.9367 249.961 59.71C249.555 59.4767 249.235 59.1567 249.001 58.75C248.768 58.3433 248.651 57.8833 248.651 57.37C248.651 56.8567 248.768 56.3967 249.001 55.99C249.235 55.5833 249.555 55.2667 249.961 55.04C250.368 54.8133 250.825 54.7 251.331 54.7C251.838 54.7 252.295 54.8133 252.701 55.04C253.108 55.2667 253.425 55.5833 253.651 55.99C253.885 56.3967 254.001 56.8567 254.001 57.37C254.001 57.8833 253.885 58.3433 253.651 58.75C253.425 59.1567 253.108 59.4767 252.701 59.71C252.295 59.9367 251.838 60.05 251.331 60.05ZM251.331 59.42C251.705 59.42 252.038 59.3367 252.331 59.17C252.631 58.9967 252.865 58.7533 253.031 58.44C253.198 58.1267 253.281 57.77 253.281 57.37C253.281 56.97 253.198 56.6133 253.031 56.3C252.865 55.9867 252.631 55.7467 252.331 55.58C252.038 55.4067 251.705 55.32 251.331 55.32C250.958 55.32 250.621 55.4067 250.321 55.58C250.028 55.7467 249.795 55.9867 249.621 56.3C249.455 56.6133 249.371 56.97 249.371 57.37C249.371 57.77 249.455 58.1267 249.621 58.44C249.795 58.7533 250.028 58.9967 250.321 59.17C250.621 59.3367 250.958 59.42 251.331 59.42ZM258.131 54.7C258.791 54.7 259.314 54.8933 259.701 55.28C260.094 55.66 260.291 56.2167 260.291 56.95V60H259.581V57.02C259.581 56.4733 259.444 56.0567 259.171 55.77C258.898 55.4833 258.508 55.34 258.001 55.34C257.434 55.34 256.984 55.51 256.651 55.85C256.324 56.1833 256.161 56.6467 256.161 57.24V60H255.451V54.74H256.131V55.71C256.324 55.39 256.591 55.1433 256.931 54.97C257.278 54.79 257.678 54.7 258.131 54.7ZM266.818 57.59H262.418C262.458 58.1367 262.668 58.58 263.048 58.92C263.428 59.2533 263.908 59.42 264.488 59.42C264.815 59.42 265.115 59.3633 265.388 59.25C265.661 59.13 265.898 58.9567 266.098 58.73L266.498 59.19C266.265 59.47 265.971 59.6833 265.618 59.83C265.271 59.9767 264.888 60.05 264.468 60.05C263.928 60.05 263.448 59.9367 263.028 59.71C262.615 59.4767 262.291 59.1567 262.058 58.75C261.825 58.3433 261.708 57.8833 261.708 57.37C261.708 56.8567 261.818 56.3967 262.038 55.99C262.265 55.5833 262.571 55.2667 262.958 55.04C263.351 54.8133 263.791 54.7 264.278 54.7C264.765 54.7 265.201 54.8133 265.588 55.04C265.975 55.2667 266.278 55.5833 266.498 55.99C266.718 56.39 266.828 56.85 266.828 57.37L266.818 57.59ZM264.278 55.31C263.771 55.31 263.345 55.4733 262.998 55.8C262.658 56.12 262.465 56.54 262.418 57.06H266.148C266.101 56.54 265.905 56.12 265.558 55.8C265.218 55.4733 264.791 55.31 264.278 55.31ZM269.683 60.05C269.257 60.05 268.847 59.99 268.453 59.87C268.067 59.7433 267.763 59.5867 267.543 59.4L267.863 58.84C268.083 59.0133 268.36 59.1567 268.693 59.27C269.027 59.3767 269.373 59.43 269.733 59.43C270.213 59.43 270.567 59.3567 270.793 59.21C271.027 59.0567 271.143 58.8433 271.143 58.57C271.143 58.3767 271.08 58.2267 270.953 58.12C270.827 58.0067 270.667 57.9233 270.473 57.87C270.28 57.81 270.023 57.7533 269.703 57.7C269.277 57.62 268.933 57.54 268.673 57.46C268.413 57.3733 268.19 57.23 268.003 57.03C267.823 56.83 267.733 56.5533 267.733 56.2C267.733 55.76 267.917 55.4 268.283 55.12C268.65 54.84 269.16 54.7 269.813 54.7C270.153 54.7 270.493 54.7467 270.833 54.84C271.173 54.9267 271.453 55.0433 271.673 55.19L271.363 55.76C270.93 55.46 270.413 55.31 269.813 55.31C269.36 55.31 269.017 55.39 268.783 55.55C268.557 55.71 268.443 55.92 268.443 56.18C268.443 56.38 268.507 56.54 268.633 56.66C268.767 56.78 268.93 56.87 269.123 56.93C269.317 56.9833 269.583 57.04 269.923 57.1C270.343 57.18 270.68 57.26 270.933 57.34C271.187 57.42 271.403 57.5567 271.583 57.75C271.763 57.9433 271.853 58.21 271.853 58.55C271.853 59.01 271.66 59.3767 271.273 59.65C270.893 59.9167 270.363 60.05 269.683 60.05Z" fill="#828282"/>
<path d="M206.688 96.096C205.579 96.096 204.576 95.8507 203.68 95.36C202.795 94.8693 202.096 94.192 201.584 93.328C201.083 92.4533 200.832 91.4773 200.832 90.4C200.832 89.3227 201.083 88.352 201.584 87.488C202.096 86.6133 202.8 85.9307 203.696 85.44C204.592 84.9493 205.595 84.704 206.704 84.704C207.536 84.704 208.304 84.8427 209.008 85.12C209.712 85.3973 210.309 85.8027 210.8 86.336L210.048 87.088C209.173 86.2027 208.069 85.76 206.736 85.76C205.851 85.76 205.045 85.9627 204.32 86.368C203.595 86.7733 203.024 87.328 202.608 88.032C202.203 88.736 202 89.5253 202 90.4C202 91.2747 202.203 92.064 202.608 92.768C203.024 93.472 203.595 94.0267 204.32 94.432C205.045 94.8373 205.851 95.04 206.736 95.04C208.08 95.04 209.184 94.592 210.048 93.696L210.8 94.448C210.309 94.9813 209.707 95.392 208.992 95.68C208.288 95.9573 207.52 96.096 206.688 96.096ZM216.149 96.08C215.338 96.08 214.608 95.8987 213.957 95.536C213.306 95.1627 212.794 94.6507 212.421 94C212.048 93.3493 211.861 92.6133 211.861 91.792C211.861 90.9707 212.048 90.2347 212.421 89.584C212.794 88.9333 213.306 88.4267 213.957 88.064C214.608 87.7013 215.338 87.52 216.149 87.52C216.96 87.52 217.69 87.7013 218.341 88.064C218.992 88.4267 219.498 88.9333 219.861 89.584C220.234 90.2347 220.421 90.9707 220.421 91.792C220.421 92.6133 220.234 93.3493 219.861 94C219.498 94.6507 218.992 95.1627 218.341 95.536C217.69 95.8987 216.96 96.08 216.149 96.08ZM216.149 95.072C216.746 95.072 217.28 94.9387 217.749 94.672C218.229 94.3947 218.602 94.0053 218.869 93.504C219.136 93.0027 219.269 92.432 219.269 91.792C219.269 91.152 219.136 90.5813 218.869 90.08C218.602 89.5787 218.229 89.1947 217.749 88.928C217.28 88.6507 216.746 88.512 216.149 88.512C215.552 88.512 215.013 88.6507 214.533 88.928C214.064 89.1947 213.69 89.5787 213.413 90.08C213.146 90.5813 213.013 91.152 213.013 91.792C213.013 92.432 213.146 93.0027 213.413 93.504C213.69 94.0053 214.064 94.3947 214.533 94.672C215.013 94.9387 215.552 95.072 216.149 95.072ZM233.236 87.52C234.292 87.52 235.119 87.824 235.716 88.432C236.324 89.04 236.628 89.936 236.628 91.12V96H235.492V91.232C235.492 90.3573 235.279 89.6907 234.852 89.232C234.436 88.7733 233.844 88.544 233.076 88.544C232.202 88.544 231.514 88.816 231.012 89.36C230.511 89.8933 230.26 90.6347 230.26 91.584V96H229.124V91.232C229.124 90.3573 228.911 89.6907 228.484 89.232C228.068 88.7733 227.471 88.544 226.692 88.544C225.828 88.544 225.14 88.816 224.628 89.36C224.127 89.8933 223.876 90.6347 223.876 91.584V96H222.74V87.584H223.828V89.12C224.127 88.608 224.543 88.2133 225.076 87.936C225.61 87.6587 226.223 87.52 226.916 87.52C227.62 87.52 228.228 87.6693 228.74 87.968C229.263 88.2667 229.652 88.7093 229.908 89.296C230.218 88.7413 230.66 88.3093 231.236 88C231.823 87.68 232.49 87.52 233.236 87.52ZM244.045 87.52C244.834 87.52 245.549 87.7013 246.189 88.064C246.829 88.416 247.33 88.9173 247.693 89.568C248.056 90.2187 248.237 90.96 248.237 91.792C248.237 92.6347 248.056 93.3813 247.693 94.032C247.33 94.6827 246.829 95.1893 246.189 95.552C245.56 95.904 244.845 96.08 244.045 96.08C243.362 96.08 242.744 95.9413 242.189 95.664C241.645 95.376 241.197 94.96 240.845 94.416V99.104H239.709V87.584H240.797V89.248C241.138 88.6933 241.586 88.2667 242.141 87.968C242.706 87.6693 243.341 87.52 244.045 87.52ZM243.965 95.072C244.552 95.072 245.085 94.9387 245.565 94.672C246.045 94.3947 246.418 94.0053 246.685 93.504C246.962 93.0027 247.101 92.432 247.101 91.792C247.101 91.152 246.962 90.5867 246.685 90.096C246.418 89.5947 246.045 89.2053 245.565 88.928C245.085 88.6507 244.552 88.512 243.965 88.512C243.368 88.512 242.829 88.6507 242.349 88.928C241.88 89.2053 241.506 89.5947 241.229 90.096C240.962 90.5867 240.829 91.152 240.829 91.792C240.829 92.432 240.962 93.0027 241.229 93.504C241.506 94.0053 241.88 94.3947 242.349 94.672C242.829 94.9387 243.368 95.072 243.965 95.072ZM251.641 89.232C251.907 88.6667 252.302 88.24 252.825 87.952C253.358 87.664 254.014 87.52 254.793 87.52V88.624L254.521 88.608C253.635 88.608 252.942 88.88 252.441 89.424C251.939 89.968 251.689 90.7307 251.689 91.712V96H250.553V87.584H251.641V89.232ZM259.778 87.52C260.877 87.52 261.719 87.7973 262.306 88.352C262.893 88.896 263.186 89.7067 263.186 90.784V96H262.098V94.688C261.842 95.1253 261.463 95.4667 260.962 95.712C260.471 95.9573 259.885 96.08 259.202 96.08C258.263 96.08 257.517 95.856 256.962 95.408C256.407 94.96 256.13 94.368 256.13 93.632C256.13 92.9173 256.386 92.3413 256.898 91.904C257.421 91.4667 258.247 91.248 259.378 91.248H262.05V90.736C262.05 90.0107 261.847 89.4613 261.442 89.088C261.037 88.704 260.445 88.512 259.666 88.512C259.133 88.512 258.621 88.6027 258.13 88.784C257.639 88.9547 257.218 89.1947 256.866 89.504L256.354 88.656C256.781 88.2933 257.293 88.016 257.89 87.824C258.487 87.6213 259.117 87.52 259.778 87.52ZM259.378 95.184C260.018 95.184 260.567 95.04 261.026 94.752C261.485 94.4533 261.826 94.0267 262.05 93.472V92.096H259.41C257.97 92.096 257.25 92.5973 257.25 93.6C257.25 94.0907 257.437 94.48 257.81 94.768C258.183 95.0453 258.706 95.184 259.378 95.184ZM273.403 87.52C274.502 87.52 275.344 87.7973 275.931 88.352C276.518 88.896 276.811 89.7067 276.811 90.784V96H275.723V94.688C275.467 95.1253 275.088 95.4667 274.587 95.712C274.096 95.9573 273.51 96.08 272.827 96.08C271.888 96.08 271.142 95.856 270.587 95.408C270.032 94.96 269.755 94.368 269.755 93.632C269.755 92.9173 270.011 92.3413 270.523 91.904C271.046 91.4667 271.872 91.248 273.003 91.248H275.675V90.736C275.675 90.0107 275.472 89.4613 275.067 89.088C274.662 88.704 274.07 88.512 273.291 88.512C272.758 88.512 272.246 88.6027 271.755 88.784C271.264 88.9547 270.843 89.1947 270.491 89.504L269.979 88.656C270.406 88.2933 270.918 88.016 271.515 87.824C272.112 87.6213 272.742 87.52 273.403 87.52ZM273.003 95.184C273.643 95.184 274.192 95.04 274.651 94.752C275.11 94.4533 275.451 94.0267 275.675 93.472V92.096H273.035C271.595 92.096 270.875 92.5973 270.875 93.6C270.875 94.0907 271.062 94.48 271.435 94.768C271.808 95.0453 272.331 95.184 273.003 95.184ZM282.153 96.08C281.47 96.08 280.814 95.984 280.185 95.792C279.566 95.5893 279.081 95.3387 278.729 95.04L279.241 94.144C279.593 94.4213 280.035 94.6507 280.569 94.832C281.102 95.0027 281.657 95.088 282.233 95.088C283.001 95.088 283.566 94.9707 283.929 94.736C284.302 94.4907 284.489 94.1493 284.489 93.712C284.489 93.4027 284.387 93.1627 284.185 92.992C283.982 92.8107 283.726 92.6773 283.417 92.592C283.107 92.496 282.697 92.4053 282.185 92.32C281.502 92.192 280.953 92.064 280.537 91.936C280.121 91.7973 279.763 91.568 279.465 91.248C279.177 90.928 279.033 90.4853 279.033 89.92C279.033 89.216 279.326 88.64 279.913 88.192C280.499 87.744 281.315 87.52 282.361 87.52C282.905 87.52 283.449 87.5947 283.993 87.744C284.537 87.8827 284.985 88.0693 285.337 88.304L284.841 89.216C284.147 88.736 283.321 88.496 282.361 88.496C281.635 88.496 281.086 88.624 280.713 88.88C280.35 89.136 280.169 89.472 280.169 89.888C280.169 90.208 280.27 90.464 280.473 90.656C280.686 90.848 280.947 90.992 281.257 91.088C281.566 91.1733 281.993 91.264 282.536 91.36C283.209 91.488 283.747 91.616 284.153 91.744C284.558 91.872 284.905 92.0907 285.193 92.4C285.481 92.7093 285.625 93.136 285.625 93.68C285.625 94.416 285.315 95.0027 284.697 95.44C284.089 95.8667 283.241 96.08 282.153 96.08ZM295.053 92.144H288.013C288.077 93.0187 288.413 93.728 289.021 94.272C289.629 94.8053 290.397 95.072 291.325 95.072C291.847 95.072 292.327 94.9813 292.765 94.8C293.202 94.608 293.581 94.3307 293.901 93.968L294.541 94.704C294.167 95.152 293.698 95.4933 293.133 95.728C292.578 95.9627 291.965 96.08 291.293 96.08C290.429 96.08 289.661 95.8987 288.989 95.536C288.327 95.1627 287.81 94.6507 287.437 94C287.063 93.3493 286.877 92.6133 286.877 91.792C286.877 90.9707 287.053 90.2347 287.405 89.584C287.767 88.9333 288.258 88.4267 288.877 88.064C289.506 87.7013 290.21 87.52 290.989 87.52C291.767 87.52 292.466 87.7013 293.085 88.064C293.703 88.4267 294.189 88.9333 294.541 89.584C294.893 90.224 295.069 90.96 295.069 91.792L295.053 92.144ZM290.989 88.496C290.178 88.496 289.495 88.7573 288.941 89.28C288.397 89.792 288.087 90.464 288.013 91.296H293.981C293.906 90.464 293.591 89.792 293.037 89.28C292.493 88.7573 291.81 88.496 290.989 88.496ZM305.173 87.584V94.976C305.173 96.4053 304.821 97.4613 304.117 98.144C303.424 98.8373 302.373 99.184 300.965 99.184C300.186 99.184 299.445 99.0667 298.741 98.832C298.048 98.608 297.482 98.2933 297.045 97.888L297.621 97.024C298.026 97.3867 298.517 97.6693 299.093 97.872C299.68 98.0747 300.293 98.176 300.933 98.176C302 98.176 302.784 97.9253 303.285 97.424C303.786 96.9333 304.037 96.1653 304.037 95.12V94.048C303.685 94.5813 303.221 94.9867 302.645 95.264C302.08 95.5413 301.45 95.68 300.757 95.68C299.968 95.68 299.248 95.5093 298.597 95.168C297.957 94.816 297.45 94.3307 297.077 93.712C296.714 93.0827 296.533 92.3733 296.533 91.584C296.533 90.7947 296.714 90.0907 297.077 89.472C297.45 88.8533 297.957 88.3733 298.597 88.032C299.237 87.6907 299.957 87.52 300.757 87.52C301.472 87.52 302.117 87.664 302.693 87.952C303.269 88.24 303.733 88.656 304.085 89.2V87.584H305.173ZM300.869 94.672C301.477 94.672 302.026 94.544 302.517 94.288C303.008 94.0213 303.386 93.6533 303.653 93.184C303.93 92.7147 304.069 92.1813 304.069 91.584C304.069 90.9867 303.93 90.4587 303.653 90C303.386 89.5307 303.008 89.168 302.517 88.912C302.037 88.6453 301.488 88.512 300.869 88.512C300.261 88.512 299.712 88.64 299.221 88.896C298.741 89.152 298.362 89.5147 298.085 89.984C297.818 90.4533 297.685 90.9867 297.685 91.584C297.685 92.1813 297.818 92.7147 298.085 93.184C298.362 93.6533 298.741 94.0213 299.221 94.288C299.712 94.544 300.261 94.672 300.869 94.672ZM315.934 87.584V96H314.846V94.464C314.547 94.976 314.136 95.376 313.614 95.664C313.091 95.9413 312.494 96.08 311.822 96.08C310.723 96.08 309.854 95.776 309.214 95.168C308.584 94.5493 308.27 93.648 308.27 92.464V87.584H309.406V92.352C309.406 93.2373 309.624 93.9093 310.062 94.368C310.499 94.8267 311.123 95.056 311.934 95.056C312.819 95.056 313.518 94.7893 314.03 94.256C314.542 93.712 314.798 92.96 314.798 92V87.584H315.934ZM320.203 89.232C320.47 88.6667 320.865 88.24 321.387 87.952C321.921 87.664 322.577 87.52 323.355 87.52V88.624L323.083 88.608C322.198 88.608 321.505 88.88 321.003 89.424C320.502 89.968 320.251 90.7307 320.251 91.712V96H319.115V87.584H320.203V89.232ZM328.341 87.52C329.439 87.52 330.282 87.7973 330.869 88.352C331.455 88.896 331.749 89.7067 331.749 90.784V96H330.661V94.688C330.405 95.1253 330.026 95.4667 329.525 95.712C329.034 95.9573 328.447 96.08 327.765 96.08C326.826 96.08 326.079 95.856 325.525 95.408C324.97 94.96 324.693 94.368 324.693 93.632C324.693 92.9173 324.949 92.3413 325.461 91.904C325.983 91.4667 326.81 91.248 327.941 91.248H330.613V90.736C330.613 90.0107 330.41 89.4613 330.005 89.088C329.599 88.704 329.007 88.512 328.229 88.512C327.695 88.512 327.183 88.6027 326.693 88.784C326.202 88.9547 325.781 89.1947 325.429 89.504L324.917 88.656C325.343 88.2933 325.855 88.016 326.453 87.824C327.05 87.6213 327.679 87.52 328.341 87.52ZM327.941 95.184C328.581 95.184 329.13 95.04 329.589 94.752C330.047 94.4533 330.389 94.0267 330.613 93.472V92.096H327.973C326.533 92.096 325.812 92.5973 325.812 93.6C325.812 94.0907 325.999 94.48 326.373 94.768C326.746 95.0453 327.269 95.184 327.941 95.184ZM342.545 84.128V96H341.457V94.336C341.116 94.9013 340.663 95.3333 340.097 95.632C339.543 95.9307 338.913 96.08 338.209 96.08C337.42 96.08 336.705 95.8987 336.065 95.536C335.425 95.1733 334.924 94.6667 334.561 94.016C334.199 93.3653 334.017 92.624 334.017 91.792C334.017 90.96 334.199 90.2187 334.561 89.568C334.924 88.9173 335.425 88.416 336.065 88.064C336.705 87.7013 337.42 87.52 338.209 87.52C338.892 87.52 339.505 87.664 340.049 87.952C340.604 88.2293 341.057 88.64 341.409 89.184V84.128H342.545ZM338.305 95.072C338.892 95.072 339.42 94.9387 339.889 94.672C340.369 94.3947 340.743 94.0053 341.009 93.504C341.287 93.0027 341.425 92.432 341.425 91.792C341.425 91.152 341.287 90.5813 341.009 90.08C340.743 89.5787 340.369 89.1947 339.889 88.928C339.42 88.6507 338.892 88.512 338.305 88.512C337.708 88.512 337.169 88.6507 336.689 88.928C336.22 89.1947 335.847 89.5787 335.569 90.08C335.303 90.5813 335.169 91.152 335.169 91.792C335.169 92.432 335.303 93.0027 335.569 93.504C335.847 94.0053 336.22 94.3947 336.689 94.672C337.169 94.9387 337.708 95.072 338.305 95.072ZM348.653 87.52C349.752 87.52 350.594 87.7973 351.181 88.352C351.768 88.896 352.061 89.7067 352.061 90.784V96H350.973V94.688C350.717 95.1253 350.338 95.4667 349.837 95.712C349.346 95.9573 348.76 96.08 348.077 96.08C347.138 96.08 346.392 95.856 345.837 95.408C345.282 94.96 345.005 94.368 345.005 93.632C345.005 92.9173 345.261 92.3413 345.773 91.904C346.296 91.4667 347.122 91.248 348.253 91.248H350.925V90.736C350.925 90.0107 350.722 89.4613 350.317 89.088C349.912 88.704 349.32 88.512 348.541 88.512C348.008 88.512 347.496 88.6027 347.005 88.784C346.514 88.9547 346.093 89.1947 345.741 89.504L345.229 88.656C345.656 88.2933 346.168 88.016 346.765 87.824C347.362 87.6213 347.992 87.52 348.653 87.52ZM348.253 95.184C348.893 95.184 349.442 95.04 349.901 94.752C350.36 94.4533 350.701 94.0267 350.925 93.472V92.096H348.285C346.845 92.096 346.125 92.5973 346.125 93.6C346.125 94.0907 346.312 94.48 346.685 94.768C347.058 95.0453 347.581 95.184 348.253 95.184Z" fill="#828282"/>
<path d="M24.944 104.8V116H22.352V106.88H20.112V104.8H24.944ZM31.6896 116.192C30.7616 116.192 29.935 115.963 29.2096 115.504C28.4843 115.045 27.9136 114.384 27.4976 113.52C27.0923 112.645 26.8896 111.605 26.8896 110.4C26.8896 109.195 27.0923 108.16 27.4976 107.296C27.9136 106.421 28.4843 105.755 29.2096 105.296C29.935 104.837 30.7616 104.608 31.6896 104.608C32.6176 104.608 33.4443 104.837 34.1696 105.296C34.895 105.755 35.4603 106.421 35.8656 107.296C36.2816 108.16 36.4896 109.195 36.4896 110.4C36.4896 111.605 36.2816 112.645 35.8656 113.52C35.4603 114.384 34.895 115.045 34.1696 115.504C33.4443 115.963 32.6176 116.192 31.6896 116.192ZM31.6896 114C32.3723 114 32.9056 113.707 33.2896 113.12C33.6843 112.533 33.8816 111.627 33.8816 110.4C33.8816 109.173 33.6843 108.267 33.2896 107.68C32.9056 107.093 32.3723 106.8 31.6896 106.8C31.0176 106.8 30.4843 107.093 30.0896 107.68C29.7056 108.267 29.5136 109.173 29.5136 110.4C29.5136 111.627 29.7056 112.533 30.0896 113.12C30.4843 113.707 31.0176 114 31.6896 114ZM46.2803 107.264C47.6136 107.264 48.6376 107.584 49.3523 108.224C50.0669 108.853 50.4243 109.808 50.4243 111.088V116H48.0883V114.928C47.6189 115.728 46.7443 116.128 45.4643 116.128C44.8029 116.128 44.2269 116.016 43.7363 115.792C43.2563 115.568 42.8883 115.259 42.6323 114.864C42.3763 114.469 42.2483 114.021 42.2483 113.52C42.2483 112.72 42.5469 112.091 43.1443 111.632C43.7523 111.173 44.6856 110.944 45.9443 110.944H47.9283C47.9283 110.4 47.7629 109.984 47.4323 109.696C47.1016 109.397 46.6056 109.248 45.9443 109.248C45.4856 109.248 45.0323 109.323 44.5843 109.472C44.1469 109.611 43.7736 109.803 43.4643 110.048L42.5683 108.304C43.0376 107.973 43.5976 107.717 44.2483 107.536C44.9096 107.355 45.5869 107.264 46.2803 107.264ZM46.0883 114.448C46.5149 114.448 46.8936 114.352 47.2243 114.16C47.5549 113.957 47.7896 113.664 47.9283 113.28V112.4H46.2163C45.1923 112.4 44.6803 112.736 44.6803 113.408C44.6803 113.728 44.8029 113.984 45.0483 114.176C45.3043 114.357 45.6509 114.448 46.0883 114.448ZM57.9153 107.264C58.9819 107.264 59.8406 107.584 60.4913 108.224C61.1526 108.864 61.4833 109.813 61.4833 111.072V116H58.9873V111.456C58.9873 110.773 58.8379 110.267 58.5393 109.936C58.2406 109.595 57.8086 109.424 57.2433 109.424C56.6139 109.424 56.1126 109.621 55.7393 110.016C55.3659 110.4 55.1793 110.976 55.1793 111.744V116H52.6833V107.392H55.0673V108.4C55.3979 108.037 55.8086 107.76 56.2993 107.568C56.7899 107.365 57.3286 107.264 57.9153 107.264ZM58.2993 106.336C58.0113 106.336 57.7553 106.283 57.5313 106.176C57.3179 106.059 57.0779 105.904 56.8113 105.712C56.6406 105.584 56.4966 105.488 56.3793 105.424C56.2726 105.36 56.1659 105.328 56.0593 105.328C55.8353 105.328 55.6539 105.408 55.5153 105.568C55.3766 105.717 55.3019 105.936 55.2913 106.224H54.0273C54.0486 105.509 54.2246 104.944 54.5553 104.528C54.8966 104.101 55.3446 103.888 55.8993 103.888C56.1766 103.888 56.4219 103.947 56.6353 104.064C56.8593 104.171 57.1099 104.325 57.3873 104.528C57.5579 104.656 57.6966 104.752 57.8033 104.816C57.9206 104.88 58.0326 104.912 58.1393 104.912C58.3526 104.912 58.5286 104.837 58.6673 104.688C58.8166 104.528 58.8966 104.315 58.9073 104.048H60.1713C60.1499 104.741 59.9686 105.296 59.6273 105.712C59.2966 106.128 58.8539 106.336 58.2993 106.336ZM67.9355 116.128C67.0288 116.128 66.2128 115.941 65.4875 115.568C64.7728 115.184 64.2128 114.656 63.8075 113.984C63.4022 113.312 63.1995 112.549 63.1995 111.696C63.1995 110.843 63.4022 110.08 63.8075 109.408C64.2128 108.736 64.7728 108.213 65.4875 107.84C66.2128 107.456 67.0288 107.264 67.9355 107.264C68.8422 107.264 69.6528 107.456 70.3675 107.84C71.0822 108.213 71.6422 108.736 72.0475 109.408C72.4528 110.08 72.6555 110.843 72.6555 111.696C72.6555 112.549 72.4528 113.312 72.0475 113.984C71.6422 114.656 71.0822 115.184 70.3675 115.568C69.6528 115.941 68.8422 116.128 67.9355 116.128ZM67.9355 114.08C68.5755 114.08 69.0982 113.867 69.5035 113.44C69.9195 113.003 70.1275 112.421 70.1275 111.696C70.1275 110.971 69.9195 110.395 69.5035 109.968C69.0982 109.531 68.5755 109.312 67.9355 109.312C67.2955 109.312 66.7675 109.531 66.3515 109.968C65.9355 110.395 65.7275 110.971 65.7275 111.696C65.7275 112.421 65.9355 113.003 66.3515 113.44C66.7675 113.867 67.2955 114.08 67.9355 114.08ZM77.2199 116.128C76.5052 116.128 75.8065 116.043 75.1239 115.872C74.4412 115.691 73.8972 115.467 73.4919 115.2L74.3239 113.408C74.7079 113.653 75.1719 113.856 75.7159 114.016C76.2599 114.165 76.7932 114.24 77.3159 114.24C78.3719 114.24 78.8999 113.979 78.8999 113.456C78.8999 113.211 78.7559 113.035 78.4679 112.928C78.1799 112.821 77.7372 112.731 77.1399 112.656C76.4359 112.549 75.8545 112.427 75.3959 112.288C74.9372 112.149 74.5372 111.904 74.1959 111.552C73.8652 111.2 73.6999 110.699 73.6999 110.048C73.6999 109.504 73.8545 109.024 74.1639 108.608C74.4839 108.181 74.9425 107.851 75.5399 107.616C76.1479 107.381 76.8625 107.264 77.6839 107.264C78.2919 107.264 78.8945 107.333 79.4919 107.472C80.0999 107.6 80.6012 107.781 80.9959 108.016L80.1639 109.792C79.4065 109.365 78.5799 109.152 77.6839 109.152C77.1505 109.152 76.7505 109.227 76.4839 109.376C76.2172 109.525 76.0839 109.717 76.0839 109.952C76.0839 110.219 76.2279 110.405 76.5159 110.512C76.8039 110.619 77.2625 110.72 77.8919 110.816C78.5959 110.933 79.1719 111.061 79.6199 111.2C80.0679 111.328 80.4572 111.568 80.7879 111.92C81.1185 112.272 81.2839 112.763 81.2839 113.392C81.2839 113.925 81.1239 114.4 80.8039 114.816C80.4839 115.232 80.0145 115.557 79.3959 115.792C78.7879 116.016 78.0625 116.128 77.2199 116.128ZM95.8991 107.392L92.0111 116.528C91.6165 117.52 91.1258 118.219 90.5391 118.624C89.9631 119.029 89.2645 119.232 88.4431 119.232C87.9951 119.232 87.5525 119.163 87.1151 119.024C86.6778 118.885 86.3205 118.693 86.0431 118.448L86.9551 116.672C87.1471 116.843 87.3658 116.976 87.6111 117.072C87.8671 117.168 88.1178 117.216 88.3631 117.216C88.7045 117.216 88.9818 117.131 89.1951 116.96C89.4085 116.8 89.6005 116.528 89.7711 116.144L89.8031 116.064L86.0751 107.392H88.6511L91.0671 113.232L93.4991 107.392H95.8991ZM109.689 104.8V106.48L105.529 116H102.713L106.729 106.912H103.017V108.736H100.713V104.8H109.689ZM126.926 107.264C128.003 107.264 128.857 107.584 129.486 108.224C130.126 108.853 130.446 109.803 130.446 111.072V116H127.95V111.456C127.95 110.773 127.806 110.267 127.518 109.936C127.241 109.595 126.841 109.424 126.318 109.424C125.731 109.424 125.267 109.616 124.926 110C124.585 110.373 124.414 110.933 124.414 111.68V116H121.918V111.456C121.918 110.101 121.374 109.424 120.286 109.424C119.71 109.424 119.251 109.616 118.91 110C118.569 110.373 118.398 110.933 118.398 111.68V116H115.902V107.392H118.286V108.384C118.606 108.021 118.995 107.744 119.454 107.552C119.923 107.36 120.435 107.264 120.99 107.264C121.598 107.264 122.147 107.387 122.638 107.632C123.129 107.867 123.523 108.213 123.822 108.672C124.174 108.224 124.617 107.877 125.15 107.632C125.694 107.387 126.286 107.264 126.926 107.264ZM141.209 111.728C141.209 111.76 141.193 111.984 141.161 112.4H134.649C134.766 112.933 135.044 113.355 135.481 113.664C135.918 113.973 136.462 114.128 137.113 114.128C137.561 114.128 137.956 114.064 138.297 113.936C138.649 113.797 138.974 113.584 139.273 113.296L140.601 114.736C139.79 115.664 138.606 116.128 137.049 116.128C136.078 116.128 135.22 115.941 134.473 115.568C133.726 115.184 133.15 114.656 132.745 113.984C132.34 113.312 132.137 112.549 132.137 111.696C132.137 110.853 132.334 110.096 132.729 109.424C133.134 108.741 133.684 108.213 134.377 107.84C135.081 107.456 135.865 107.264 136.729 107.264C137.572 107.264 138.334 107.445 139.017 107.808C139.7 108.171 140.233 108.693 140.617 109.376C141.012 110.048 141.209 110.832 141.209 111.728ZM136.745 109.152C136.18 109.152 135.705 109.312 135.321 109.632C134.937 109.952 134.702 110.389 134.617 110.944H138.857C138.772 110.4 138.537 109.968 138.153 109.648C137.769 109.317 137.3 109.152 136.745 109.152ZM145.767 116.128C145.052 116.128 144.353 116.043 143.671 115.872C142.988 115.691 142.444 115.467 142.039 115.2L142.871 113.408C143.255 113.653 143.719 113.856 144.263 114.016C144.807 114.165 145.34 114.24 145.863 114.24C146.919 114.24 147.447 113.979 147.447 113.456C147.447 113.211 147.303 113.035 147.015 112.928C146.727 112.821 146.284 112.731 145.687 112.656C144.983 112.549 144.401 112.427 143.943 112.288C143.484 112.149 143.084 111.904 142.743 111.552C142.412 111.2 142.247 110.699 142.247 110.048C142.247 109.504 142.401 109.024 142.711 108.608C143.031 108.181 143.489 107.851 144.087 107.616C144.695 107.381 145.409 107.264 146.231 107.264C146.839 107.264 147.441 107.333 148.039 107.472C148.647 107.6 149.148 107.781 149.543 108.016L148.711 109.792C147.953 109.365 147.127 109.152 146.231 109.152C145.697 109.152 145.297 109.227 145.031 109.376C144.764 109.525 144.631 109.717 144.631 109.952C144.631 110.219 144.775 110.405 145.063 110.512C145.351 110.619 145.809 110.72 146.439 110.816C147.143 110.933 147.719 111.061 148.167 111.2C148.615 111.328 149.004 111.568 149.335 111.92C149.665 112.272 149.831 112.763 149.831 113.392C149.831 113.925 149.671 114.4 149.351 114.816C149.031 115.232 148.561 115.557 147.943 115.792C147.335 116.016 146.609 116.128 145.767 116.128ZM159.803 111.728C159.803 111.76 159.787 111.984 159.755 112.4H153.243C153.36 112.933 153.637 113.355 154.075 113.664C154.512 113.973 155.056 114.128 155.707 114.128C156.155 114.128 156.549 114.064 156.891 113.936C157.243 113.797 157.568 113.584 157.867 113.296L159.195 114.736C158.384 115.664 157.2 116.128 155.643 116.128C154.672 116.128 153.813 115.941 153.067 115.568C152.32 115.184 151.744 114.656 151.339 113.984C150.933 113.312 150.731 112.549 150.731 111.696C150.731 110.853 150.928 110.096 151.323 109.424C151.728 108.741 152.277 108.213 152.971 107.84C153.675 107.456 154.459 107.264 155.323 107.264C156.165 107.264 156.928 107.445 157.611 107.808C158.293 108.171 158.827 108.693 159.211 109.376C159.605 110.048 159.803 110.832 159.803 111.728ZM155.339 109.152C154.773 109.152 154.299 109.312 153.915 109.632C153.531 109.952 153.296 110.389 153.211 110.944H157.451C157.365 110.4 157.131 109.968 156.747 109.648C156.363 109.317 155.893 109.152 155.339 109.152ZM164.361 116.128C163.646 116.128 162.947 116.043 162.265 115.872C161.582 115.691 161.038 115.467 160.633 115.2L161.465 113.408C161.849 113.653 162.313 113.856 162.857 114.016C163.401 114.165 163.934 114.24 164.457 114.24C165.513 114.24 166.041 113.979 166.041 113.456C166.041 113.211 165.897 113.035 165.609 112.928C165.321 112.821 164.878 112.731 164.281 112.656C163.577 112.549 162.995 112.427 162.537 112.288C162.078 112.149 161.678 111.904 161.337 111.552C161.006 111.2 160.84 110.699 160.84 110.048C160.84 109.504 160.995 109.024 161.305 108.608C161.625 108.181 162.083 107.851 162.681 107.616C163.289 107.381 164.003 107.264 164.825 107.264C165.433 107.264 166.035 107.333 166.633 107.472C167.241 107.6 167.742 107.781 168.137 108.016L167.305 109.792C166.547 109.365 165.721 109.152 164.825 109.152C164.291 109.152 163.891 109.227 163.625 109.376C163.358 109.525 163.225 109.717 163.225 109.952C163.225 110.219 163.369 110.405 163.657 110.512C163.945 110.619 164.403 110.72 165.033 110.816C165.737 110.933 166.313 111.061 166.761 111.2C167.209 111.328 167.598 111.568 167.929 111.92C168.259 112.272 168.425 112.763 168.425 113.392C168.425 113.925 168.265 114.4 167.945 114.816C167.625 115.232 167.155 115.557 166.537 115.792C165.929 116.016 165.203 116.128 164.361 116.128Z" fill="#4F4F4F"/>
<path d="M205.008 116.192C204.123 116.192 203.264 116.075 202.432 115.84C201.611 115.595 200.949 115.28 200.448 114.896L201.328 112.944C201.808 113.296 202.379 113.579 203.04 113.792C203.701 114.005 204.363 114.112 205.024 114.112C205.76 114.112 206.304 114.005 206.656 113.792C207.008 113.568 207.184 113.275 207.184 112.912C207.184 112.645 207.077 112.427 206.864 112.256C206.661 112.075 206.395 111.931 206.064 111.824C205.744 111.717 205.307 111.6 204.752 111.472C203.899 111.269 203.2 111.067 202.656 110.864C202.112 110.661 201.643 110.336 201.248 109.888C200.864 109.44 200.672 108.843 200.672 108.096C200.672 107.445 200.848 106.859 201.2 106.336C201.552 105.803 202.08 105.381 202.784 105.072C203.499 104.763 204.368 104.608 205.392 104.608C206.107 104.608 206.805 104.693 207.488 104.864C208.171 105.035 208.768 105.28 209.28 105.6L208.48 107.568C207.445 106.981 206.411 106.688 205.376 106.688C204.651 106.688 204.112 106.805 203.76 107.04C203.419 107.275 203.248 107.584 203.248 107.968C203.248 108.352 203.445 108.64 203.84 108.832C204.245 109.013 204.859 109.195 205.68 109.376C206.533 109.579 207.232 109.781 207.776 109.984C208.32 110.187 208.784 110.507 209.168 110.944C209.563 111.381 209.76 111.973 209.76 112.72C209.76 113.36 209.579 113.947 209.216 114.48C208.864 115.003 208.331 115.419 207.616 115.728C206.901 116.037 206.032 116.192 205.008 116.192ZM211.355 107.392H213.851V116H211.355V107.392ZM212.603 106.192C212.144 106.192 211.771 106.059 211.483 105.792C211.195 105.525 211.051 105.195 211.051 104.8C211.051 104.405 211.195 104.075 211.483 103.808C211.771 103.541 212.144 103.408 212.603 103.408C213.062 103.408 213.435 103.536 213.723 103.792C214.011 104.048 214.155 104.368 214.155 104.752C214.155 105.168 214.011 105.515 213.723 105.792C213.435 106.059 213.062 106.192 212.603 106.192ZM224.6 111.728C224.6 111.76 224.584 111.984 224.552 112.4H218.04C218.157 112.933 218.434 113.355 218.872 113.664C219.309 113.973 219.853 114.128 220.504 114.128C220.952 114.128 221.346 114.064 221.688 113.936C222.04 113.797 222.365 113.584 222.664 113.296L223.992 114.736C223.181 115.664 221.997 116.128 220.44 116.128C219.469 116.128 218.61 115.941 217.864 115.568C217.117 115.184 216.541 114.656 216.136 113.984C215.73 113.312 215.528 112.549 215.528 111.696C215.528 110.853 215.725 110.096 216.12 109.424C216.525 108.741 217.074 108.213 217.768 107.84C218.472 107.456 219.256 107.264 220.12 107.264C220.962 107.264 221.725 107.445 222.408 107.808C223.09 108.171 223.624 108.693 224.008 109.376C224.402 110.048 224.6 110.832 224.6 111.728ZM220.136 109.152C219.57 109.152 219.096 109.312 218.712 109.632C218.328 109.952 218.093 110.389 218.008 110.944H222.248C222.162 110.4 221.928 109.968 221.544 109.648C221.16 109.317 220.69 109.152 220.136 109.152ZM237.285 107.264C238.363 107.264 239.216 107.584 239.845 108.224C240.485 108.853 240.805 109.803 240.805 111.072V116H238.309V111.456C238.309 110.773 238.165 110.267 237.877 109.936C237.6 109.595 237.2 109.424 236.677 109.424C236.091 109.424 235.627 109.616 235.285 110C234.944 110.373 234.773 110.933 234.773 111.68V116H232.277V111.456C232.277 110.101 231.733 109.424 230.645 109.424C230.069 109.424 229.611 109.616 229.269 110C228.928 110.373 228.757 110.933 228.757 111.68V116H226.261V107.392H228.645V108.384C228.965 108.021 229.355 107.744 229.813 107.552C230.283 107.36 230.795 107.264 231.349 107.264C231.957 107.264 232.507 107.387 232.997 107.632C233.488 107.867 233.883 108.213 234.181 108.672C234.533 108.224 234.976 107.877 235.509 107.632C236.053 107.387 236.645 107.264 237.285 107.264ZM248.131 107.264C248.931 107.264 249.656 107.451 250.307 107.824C250.968 108.187 251.485 108.704 251.859 109.376C252.232 110.037 252.419 110.811 252.419 111.696C252.419 112.581 252.232 113.36 251.859 114.032C251.485 114.693 250.968 115.211 250.307 115.584C249.656 115.947 248.931 116.128 248.131 116.128C247.032 116.128 246.168 115.781 245.539 115.088V119.104H243.043V107.392H245.427V108.384C246.045 107.637 246.947 107.264 248.131 107.264ZM247.699 114.08C248.339 114.08 248.861 113.867 249.267 113.44C249.683 113.003 249.891 112.421 249.891 111.696C249.891 110.971 249.683 110.395 249.267 109.968C248.861 109.531 248.339 109.312 247.699 109.312C247.059 109.312 246.531 109.531 246.115 109.968C245.709 110.395 245.507 110.971 245.507 111.696C245.507 112.421 245.709 113.003 246.115 113.44C246.531 113.867 247.059 114.08 247.699 114.08ZM256.474 108.528C256.772 108.112 257.172 107.797 257.674 107.584C258.186 107.371 258.772 107.264 259.434 107.264V109.568C259.156 109.547 258.97 109.536 258.874 109.536C258.159 109.536 257.599 109.739 257.194 110.144C256.788 110.539 256.586 111.136 256.586 111.936V116H254.09V107.392H256.474V108.528ZM269.272 111.728C269.272 111.76 269.256 111.984 269.224 112.4H262.712C262.829 112.933 263.106 113.355 263.544 113.664C263.981 113.973 264.525 114.128 265.176 114.128C265.624 114.128 266.018 114.064 266.36 113.936C266.712 113.797 267.037 113.584 267.336 113.296L268.664 114.736C267.853 115.664 266.669 116.128 265.112 116.128C264.141 116.128 263.282 115.941 262.536 115.568C261.789 115.184 261.213 114.656 260.808 113.984C260.402 113.312 260.2 112.549 260.2 111.696C260.2 110.853 260.397 110.096 260.792 109.424C261.197 108.741 261.746 108.213 262.44 107.84C263.144 107.456 263.928 107.264 264.792 107.264C265.634 107.264 266.397 107.445 267.08 107.808C267.762 108.171 268.296 108.693 268.68 109.376C269.074 110.048 269.272 110.832 269.272 111.728ZM264.808 109.152C264.242 109.152 263.768 109.312 263.384 109.632C263 109.952 262.765 110.389 262.68 110.944H266.92C266.834 110.4 266.6 109.968 266.216 109.648C265.832 109.317 265.362 109.152 264.808 109.152Z" fill="#4F4F4F"/>
<path d="M25.008 156.192C24.1227 156.192 23.264 156.075 22.432 155.84C21.6107 155.595 20.9493 155.28 20.448 154.896L21.328 152.944C21.808 153.296 22.3787 153.579 23.04 153.792C23.7013 154.005 24.3627 154.112 25.024 154.112C25.76 154.112 26.304 154.005 26.656 153.792C27.008 153.568 27.184 153.275 27.184 152.912C27.184 152.645 27.0773 152.427 26.864 152.256C26.6613 152.075 26.3947 151.931 26.064 151.824C25.744 151.717 25.3067 151.6 24.752 151.472C23.8987 151.269 23.2 151.067 22.656 150.864C22.112 150.661 21.6427 150.336 21.248 149.888C20.864 149.44 20.672 148.843 20.672 148.096C20.672 147.445 20.848 146.859 21.2 146.336C21.552 145.803 22.08 145.381 22.784 145.072C23.4987 144.763 24.368 144.608 25.392 144.608C26.1067 144.608 26.8053 144.693 27.488 144.864C28.1707 145.035 28.768 145.28 29.28 145.6L28.48 147.568C27.4453 146.981 26.4107 146.688 25.376 146.688C24.6507 146.688 24.112 146.805 23.76 147.04C23.4187 147.275 23.248 147.584 23.248 147.968C23.248 148.352 23.4453 148.64 23.84 148.832C24.2453 149.013 24.8587 149.195 25.68 149.376C26.5333 149.579 27.232 149.781 27.776 149.984C28.32 150.187 28.784 150.507 29.168 150.944C29.5627 151.381 29.76 151.973 29.76 152.72C29.76 153.36 29.5787 153.947 29.216 154.48C28.864 155.003 28.3307 155.419 27.616 155.728C26.9013 156.037 26.032 156.192 25.008 156.192ZM31.5311 144.8H34.1231V156H31.5311V144.8ZM33.5311 141.584H36.2191L33.3231 143.888H31.3711L33.5311 141.584Z" fill="#4F4F4F"/>
<path d="M205.008 156.192C204.123 156.192 203.264 156.075 202.432 155.84C201.611 155.595 200.949 155.28 200.448 154.896L201.328 152.944C201.808 153.296 202.379 153.579 203.04 153.792C203.701 154.005 204.363 154.112 205.024 154.112C205.76 154.112 206.304 154.005 206.656 153.792C207.008 153.568 207.184 153.275 207.184 152.912C207.184 152.645 207.077 152.427 206.864 152.256C206.661 152.075 206.395 151.931 206.064 151.824C205.744 151.717 205.307 151.6 204.752 151.472C203.899 151.269 203.2 151.067 202.656 150.864C202.112 150.661 201.643 150.336 201.248 149.888C200.864 149.44 200.672 148.843 200.672 148.096C200.672 147.445 200.848 146.859 201.2 146.336C201.552 145.803 202.08 145.381 202.784 145.072C203.499 144.763 204.368 144.608 205.392 144.608C206.107 144.608 206.805 144.693 207.488 144.864C208.171 145.035 208.768 145.28 209.28 145.6L208.48 147.568C207.445 146.981 206.411 146.688 205.376 146.688C204.651 146.688 204.112 146.805 203.76 147.04C203.419 147.275 203.248 147.584 203.248 147.968C203.248 148.352 203.445 148.64 203.84 148.832C204.245 149.013 204.859 149.195 205.68 149.376C206.533 149.579 207.232 149.781 207.776 149.984C208.32 150.187 208.784 150.507 209.168 150.944C209.563 151.381 209.76 151.973 209.76 152.72C209.76 153.36 209.579 153.947 209.216 154.48C208.864 155.003 208.331 155.419 207.616 155.728C206.901 156.037 206.032 156.192 205.008 156.192ZM211.531 144.8H214.123V156H211.531V144.8ZM213.531 141.584H216.219L213.323 143.888H211.371L213.531 141.584Z" fill="#4F4F4F"/>
<path d="M26.016 124.8C27.4453 124.8 28.5653 125.141 29.376 125.824C30.1867 126.507 30.592 127.445 30.592 128.64C30.592 129.835 30.1867 130.773 29.376 131.456C28.5653 132.128 27.4453 132.464 26.016 132.464H23.008V136H21.824V124.8H26.016ZM25.984 131.424C27.0933 131.424 27.9413 131.184 28.528 130.704C29.1147 130.213 29.408 129.525 29.408 128.64C29.408 127.733 29.1147 127.04 28.528 126.56C27.9413 126.069 27.0933 125.824 25.984 125.824H23.008V131.424H25.984ZM35.778 127.52C36.8767 127.52 37.7193 127.797 38.306 128.352C38.8927 128.896 39.186 129.707 39.186 130.784V136H38.098V134.688C37.842 135.125 37.4633 135.467 36.962 135.712C36.4713 135.957 35.8847 136.08 35.202 136.08C34.2633 136.08 33.5167 135.856 32.962 135.408C32.4073 134.96 32.13 134.368 32.13 133.632C32.13 132.917 32.386 132.341 32.898 131.904C33.4207 131.467 34.2473 131.248 35.378 131.248H38.05V130.736C38.05 130.011 37.8473 129.461 37.442 129.088C37.0367 128.704 36.4447 128.512 35.666 128.512C35.1327 128.512 34.6207 128.603 34.13 128.784C33.6393 128.955 33.218 129.195 32.866 129.504L32.354 128.656C32.7807 128.293 33.2927 128.016 33.89 127.824C34.4873 127.621 35.1167 127.52 35.778 127.52ZM35.378 135.184C36.018 135.184 36.5673 135.04 37.026 134.752C37.4847 134.453 37.826 134.027 38.05 133.472V132.096H35.41C33.97 132.096 33.25 132.597 33.25 133.6C33.25 134.091 33.4367 134.48 33.81 134.768C34.1833 135.045 34.706 135.184 35.378 135.184ZM50.0948 127.584V134.976C50.0948 136.405 49.7428 137.461 49.0388 138.144C48.3454 138.837 47.2948 139.184 45.8868 139.184C45.1081 139.184 44.3668 139.067 43.6628 138.832C42.9694 138.608 42.4041 138.293 41.9668 137.888L42.5428 137.024C42.9481 137.387 43.4388 137.669 44.0148 137.872C44.6014 138.075 45.2148 138.176 45.8548 138.176C46.9214 138.176 47.7054 137.925 48.2068 137.424C48.7081 136.933 48.9588 136.165 48.9588 135.12V134.048C48.6068 134.581 48.1428 134.987 47.5668 135.264C47.0014 135.541 46.3721 135.68 45.6788 135.68C44.8894 135.68 44.1694 135.509 43.5188 135.168C42.8788 134.816 42.3721 134.331 41.9988 133.712C41.6361 133.083 41.4548 132.373 41.4548 131.584C41.4548 130.795 41.6361 130.091 41.9988 129.472C42.3721 128.853 42.8788 128.373 43.5188 128.032C44.1588 127.691 44.8788 127.52 45.6788 127.52C46.3934 127.52 47.0388 127.664 47.6148 127.952C48.1908 128.24 48.6548 128.656 49.0068 129.2V127.584H50.0948ZM45.7908 134.672C46.3988 134.672 46.9481 134.544 47.4388 134.288C47.9294 134.021 48.3081 133.653 48.5748 133.184C48.8521 132.715 48.9908 132.181 48.9908 131.584C48.9908 130.987 48.8521 130.459 48.5748 130C48.3081 129.531 47.9294 129.168 47.4388 128.912C46.9588 128.645 46.4094 128.512 45.7908 128.512C45.1828 128.512 44.6334 128.64 44.1428 128.896C43.6628 129.152 43.2841 129.515 43.0068 129.984C42.7401 130.453 42.6068 130.987 42.6068 131.584C42.6068 132.181 42.7401 132.715 43.0068 133.184C43.2841 133.653 43.6628 134.021 44.1428 134.288C44.6334 134.544 45.1828 134.672 45.7908 134.672ZM56.7115 136.08C55.9008 136.08 55.1702 135.899 54.5195 135.536C53.8688 135.163 53.3568 134.651 52.9835 134C52.6102 133.349 52.4235 132.613 52.4235 131.792C52.4235 130.971 52.6102 130.235 52.9835 129.584C53.3568 128.933 53.8688 128.427 54.5195 128.064C55.1702 127.701 55.9008 127.52 56.7115 127.52C57.5222 127.52 58.2528 127.701 58.9035 128.064C59.5542 128.427 60.0608 128.933 60.4235 129.584C60.7968 130.235 60.9835 130.971 60.9835 131.792C60.9835 132.613 60.7968 133.349 60.4235 134C60.0608 134.651 59.5542 135.163 58.9035 135.536C58.2528 135.899 57.5222 136.08 56.7115 136.08ZM56.7115 135.072C57.3088 135.072 57.8422 134.939 58.3115 134.672C58.7915 134.395 59.1648 134.005 59.4315 133.504C59.6982 133.003 59.8315 132.432 59.8315 131.792C59.8315 131.152 59.6982 130.581 59.4315 130.08C59.1648 129.579 58.7915 129.195 58.3115 128.928C57.8422 128.651 57.3088 128.512 56.7115 128.512C56.1142 128.512 55.5755 128.651 55.0955 128.928C54.6262 129.195 54.2528 129.579 53.9755 130.08C53.7088 130.581 53.5755 131.152 53.5755 131.792C53.5755 132.432 53.7088 133.003 53.9755 133.504C54.2528 134.005 54.6262 134.395 55.0955 134.672C55.5755 134.939 56.1142 135.072 56.7115 135.072ZM70.9783 136.08C70.1463 136.08 69.3996 135.899 68.7383 135.536C68.0876 135.173 67.5756 134.667 67.2023 134.016C66.8289 133.355 66.6423 132.613 66.6423 131.792C66.6423 130.971 66.8289 130.235 67.2023 129.584C67.5756 128.933 68.0876 128.427 68.7383 128.064C69.3996 127.701 70.1463 127.52 70.9783 127.52C71.7036 127.52 72.3489 127.664 72.9143 127.952C73.4903 128.229 73.9436 128.64 74.2743 129.184L73.4263 129.76C73.1489 129.344 72.7969 129.035 72.3703 128.832C71.9436 128.619 71.4796 128.512 70.9783 128.512C70.3703 128.512 69.8209 128.651 69.3303 128.928C68.8503 129.195 68.4716 129.579 68.1943 130.08C67.9276 130.581 67.7943 131.152 67.7943 131.792C67.7943 132.443 67.9276 133.019 68.1943 133.52C68.4716 134.011 68.8503 134.395 69.3303 134.672C69.8209 134.939 70.3703 135.072 70.9783 135.072C71.4796 135.072 71.9436 134.971 72.3703 134.768C72.7969 134.565 73.1489 134.256 73.4263 133.84L74.2743 134.416C73.9436 134.96 73.4903 135.376 72.9143 135.664C72.3383 135.941 71.6929 136.08 70.9783 136.08ZM79.8053 136.08C78.9946 136.08 78.2639 135.899 77.6133 135.536C76.9626 135.163 76.4506 134.651 76.0773 134C75.7039 133.349 75.5173 132.613 75.5173 131.792C75.5173 130.971 75.7039 130.235 76.0773 129.584C76.4506 128.933 76.9626 128.427 77.6133 128.064C78.2639 127.701 78.9946 127.52 79.8053 127.52C80.6159 127.52 81.3466 127.701 81.9973 128.064C82.6479 128.427 83.1546 128.933 83.5173 129.584C83.8906 130.235 84.0773 130.971 84.0773 131.792C84.0773 132.613 83.8906 133.349 83.5173 134C83.1546 134.651 82.6479 135.163 81.9973 135.536C81.3466 135.899 80.6159 136.08 79.8053 136.08ZM79.8053 135.072C80.4026 135.072 80.9359 134.939 81.4053 134.672C81.8853 134.395 82.2586 134.005 82.5253 133.504C82.7919 133.003 82.9253 132.432 82.9253 131.792C82.9253 131.152 82.7919 130.581 82.5253 130.08C82.2586 129.579 81.8853 129.195 81.4053 128.928C80.9359 128.651 80.4026 128.512 79.8053 128.512C79.2079 128.512 78.6693 128.651 78.1893 128.928C77.7199 129.195 77.3466 129.579 77.0693 130.08C76.8026 130.581 76.6693 131.152 76.6693 131.792C76.6693 132.432 76.8026 133.003 77.0693 133.504C77.3466 134.005 77.7199 134.395 78.1893 134.672C78.6693 134.939 79.2079 135.072 79.8053 135.072ZM90.6845 127.52C91.7405 127.52 92.5778 127.829 93.1965 128.448C93.8258 129.056 94.1405 129.947 94.1405 131.12V136H93.0045V131.232C93.0045 130.357 92.7858 129.691 92.3485 129.232C91.9112 128.773 91.2872 128.544 90.4765 128.544C89.5698 128.544 88.8498 128.816 88.3165 129.36C87.7938 129.893 87.5325 130.635 87.5325 131.584V136H86.3965V127.584H87.4845V129.136C87.7938 128.624 88.2205 128.229 88.7645 127.952C89.3192 127.664 89.9592 127.52 90.6845 127.52ZM101.657 135.488C101.443 135.68 101.177 135.829 100.857 135.936C100.547 136.032 100.222 136.08 99.8806 136.08C99.0913 136.08 98.4833 135.867 98.0566 135.44C97.63 135.013 97.4166 134.411 97.4166 133.632V128.544H95.9126V127.584H97.4166V125.744H98.5526V127.584H101.113V128.544H98.5526V133.568C98.5526 134.069 98.6753 134.453 98.9206 134.72C99.1766 134.976 99.5393 135.104 100.009 135.104C100.243 135.104 100.467 135.067 100.681 134.992C100.905 134.917 101.097 134.811 101.257 134.672L101.657 135.488ZM104.813 129.232C105.079 128.667 105.474 128.24 105.997 127.952C106.53 127.664 107.186 127.52 107.965 127.52V128.624L107.693 128.608C106.807 128.608 106.114 128.88 105.613 129.424C105.111 129.968 104.861 130.731 104.861 131.712V136H103.725V127.584H104.813V129.232ZM112.95 127.52C114.049 127.52 114.891 127.797 115.478 128.352C116.065 128.896 116.358 129.707 116.358 130.784V136H115.27V134.688C115.014 135.125 114.635 135.467 114.134 135.712C113.643 135.957 113.057 136.08 112.374 136.08C111.435 136.08 110.689 135.856 110.134 135.408C109.579 134.96 109.302 134.368 109.302 133.632C109.302 132.917 109.558 132.341 110.07 131.904C110.593 131.467 111.419 131.248 112.55 131.248H115.222V130.736C115.222 130.011 115.019 129.461 114.614 129.088C114.209 128.704 113.617 128.512 112.838 128.512C112.305 128.512 111.793 128.603 111.302 128.784C110.811 128.955 110.39 129.195 110.038 129.504L109.526 128.656C109.953 128.293 110.465 128.016 111.062 127.824C111.659 127.621 112.289 127.52 112.95 127.52ZM112.55 135.184C113.19 135.184 113.739 135.04 114.198 134.752C114.657 134.453 114.998 134.027 115.222 133.472V132.096H112.582C111.142 132.096 110.422 132.597 110.422 133.6C110.422 134.091 110.609 134.48 110.982 134.768C111.355 135.045 111.878 135.184 112.55 135.184ZM130.959 132.144H123.919C123.983 133.019 124.319 133.728 124.927 134.272C125.535 134.805 126.303 135.072 127.231 135.072C127.754 135.072 128.234 134.981 128.671 134.8C129.108 134.608 129.487 134.331 129.807 133.968L130.447 134.704C130.074 135.152 129.604 135.493 129.039 135.728C128.484 135.963 127.871 136.08 127.199 136.08C126.335 136.08 125.567 135.899 124.895 135.536C124.234 135.163 123.716 134.651 123.343 134C122.97 133.349 122.783 132.613 122.783 131.792C122.783 130.971 122.959 130.235 123.311 129.584C123.674 128.933 124.164 128.427 124.783 128.064C125.412 127.701 126.116 127.52 126.895 127.52C127.674 127.52 128.372 127.701 128.991 128.064C129.61 128.427 130.095 128.933 130.447 129.584C130.799 130.224 130.975 130.96 130.975 131.792L130.959 132.144ZM126.895 128.496C126.084 128.496 125.402 128.757 124.847 129.28C124.303 129.792 123.994 130.464 123.919 131.296H129.887C129.812 130.464 129.498 129.792 128.943 129.28C128.399 128.757 127.716 128.496 126.895 128.496ZM137.575 127.52C138.631 127.52 139.468 127.829 140.087 128.448C140.716 129.056 141.031 129.947 141.031 131.12V136H139.895V131.232C139.895 130.357 139.676 129.691 139.239 129.232C138.802 128.773 138.178 128.544 137.367 128.544C136.46 128.544 135.74 128.816 135.207 129.36C134.684 129.893 134.423 130.635 134.423 131.584V136H133.287V127.584H134.375V129.136C134.684 128.624 135.111 128.229 135.655 127.952C136.21 127.664 136.85 127.52 137.575 127.52ZM148.547 135.488C148.334 135.68 148.067 135.829 147.747 135.936C147.438 136.032 147.113 136.08 146.771 136.08C145.982 136.08 145.374 135.867 144.947 135.44C144.521 135.013 144.307 134.411 144.307 133.632V128.544H142.803V127.584H144.307V125.744H145.443V127.584H148.003V128.544H145.443V133.568C145.443 134.069 145.566 134.453 145.811 134.72C146.067 134.976 146.43 135.104 146.899 135.104C147.134 135.104 147.358 135.067 147.571 134.992C147.795 134.917 147.987 134.811 148.147 134.672L148.547 135.488ZM151.703 129.232C151.97 128.667 152.365 128.24 152.887 127.952C153.421 127.664 154.077 127.52 154.855 127.52V128.624L154.583 128.608C153.698 128.608 153.005 128.88 152.503 129.424C152.002 129.968 151.751 130.731 151.751 131.712V136H150.615V127.584H151.703V129.232ZM164.162 132.144H157.122C157.186 133.019 157.522 133.728 158.13 134.272C158.738 134.805 159.506 135.072 160.434 135.072C160.957 135.072 161.437 134.981 161.874 134.8C162.311 134.608 162.69 134.331 163.01 133.968L163.65 134.704C163.277 135.152 162.807 135.493 162.242 135.728C161.687 135.963 161.074 136.08 160.402 136.08C159.538 136.08 158.77 135.899 158.098 135.536C157.437 135.163 156.919 134.651 156.546 134C156.173 133.349 155.986 132.613 155.986 131.792C155.986 130.971 156.162 130.235 156.514 129.584C156.877 128.933 157.367 128.427 157.986 128.064C158.615 127.701 159.319 127.52 160.098 127.52C160.877 127.52 161.575 127.701 162.194 128.064C162.813 128.427 163.298 128.933 163.65 129.584C164.002 130.224 164.178 130.96 164.178 131.792L164.162 132.144ZM160.098 128.496C159.287 128.496 158.605 128.757 158.05 129.28C157.506 129.792 157.197 130.464 157.122 131.296H163.09C163.015 130.464 162.701 129.792 162.146 129.28C161.602 128.757 160.919 128.496 160.098 128.496ZM174.282 127.584V134.976C174.282 136.405 173.93 137.461 173.226 138.144C172.533 138.837 171.482 139.184 170.074 139.184C169.296 139.184 168.554 139.067 167.85 138.832C167.157 138.608 166.592 138.293 166.154 137.888L166.73 137.024C167.136 137.387 167.626 137.669 168.202 137.872C168.789 138.075 169.402 138.176 170.042 138.176C171.109 138.176 171.893 137.925 172.394 137.424C172.896 136.933 173.146 136.165 173.146 135.12V134.048C172.794 134.581 172.33 134.987 171.754 135.264C171.189 135.541 170.56 135.68 169.866 135.68C169.077 135.68 168.357 135.509 167.706 135.168C167.066 134.816 166.56 134.331 166.186 133.712C165.824 133.083 165.642 132.373 165.642 131.584C165.642 130.795 165.824 130.091 166.186 129.472C166.56 128.853 167.066 128.373 167.706 128.032C168.346 127.691 169.066 127.52 169.866 127.52C170.581 127.52 171.226 127.664 171.802 127.952C172.378 128.24 172.842 128.656 173.194 129.2V127.584H174.282ZM169.978 134.672C170.586 134.672 171.136 134.544 171.626 134.288C172.117 134.021 172.496 133.653 172.762 133.184C173.04 132.715 173.178 132.181 173.178 131.584C173.178 130.987 173.04 130.459 172.762 130C172.496 129.531 172.117 129.168 171.626 128.912C171.146 128.645 170.597 128.512 169.978 128.512C169.37 128.512 168.821 128.64 168.33 128.896C167.85 129.152 167.472 129.515 167.194 129.984C166.928 130.453 166.794 130.987 166.794 131.584C166.794 132.181 166.928 132.715 167.194 133.184C167.472 133.653 167.85 134.021 168.33 134.288C168.821 134.544 169.37 134.672 169.978 134.672ZM180.403 127.52C181.502 127.52 182.344 127.797 182.931 128.352C183.518 128.896 183.811 129.707 183.811 130.784V136H182.723V134.688C182.467 135.125 182.088 135.467 181.587 135.712C181.096 135.957 180.51 136.08 179.827 136.08C178.888 136.08 178.142 135.856 177.587 135.408C177.032 134.96 176.755 134.368 176.755 133.632C176.755 132.917 177.011 132.341 177.523 131.904C178.046 131.467 178.872 131.248 180.003 131.248H182.675V130.736C182.675 130.011 182.472 129.461 182.067 129.088C181.662 128.704 181.07 128.512 180.291 128.512C179.758 128.512 179.246 128.603 178.755 128.784C178.264 128.955 177.843 129.195 177.491 129.504L176.979 128.656C177.406 128.293 177.918 128.016 178.515 127.824C179.112 127.621 179.742 127.52 180.403 127.52ZM180.003 135.184C180.643 135.184 181.192 135.04 181.651 134.752C182.11 134.453 182.451 134.027 182.675 133.472V132.096H180.035C178.595 132.096 177.875 132.597 177.875 133.6C177.875 134.091 178.062 134.48 178.435 134.768C178.808 135.045 179.331 135.184 180.003 135.184Z" fill="#828282"/>
<path d="M209.472 136L206.912 132.4C206.624 132.432 206.325 132.448 206.016 132.448H203.008V136H201.824V124.8H206.016C207.445 124.8 208.565 125.141 209.376 125.824C210.187 126.507 210.592 127.445 210.592 128.64C210.592 129.515 210.368 130.256 209.92 130.864C209.483 131.461 208.853 131.893 208.032 132.16L210.768 136H209.472ZM205.984 131.44C207.093 131.44 207.941 131.195 208.528 130.704C209.115 130.213 209.408 129.525 209.408 128.64C209.408 127.733 209.115 127.04 208.528 126.56C207.941 126.069 207.093 125.824 205.984 125.824H203.008V131.44H205.984ZM220.475 132.144H213.435C213.499 133.019 213.835 133.728 214.443 134.272C215.051 134.805 215.819 135.072 216.747 135.072C217.269 135.072 217.749 134.981 218.187 134.8C218.624 134.608 219.003 134.331 219.323 133.968L219.963 134.704C219.589 135.152 219.12 135.493 218.555 135.728C218 135.963 217.387 136.08 216.715 136.08C215.851 136.08 215.083 135.899 214.411 135.536C213.749 135.163 213.232 134.651 212.859 134C212.485 133.349 212.299 132.613 212.299 131.792C212.299 130.971 212.475 130.235 212.827 129.584C213.189 128.933 213.68 128.427 214.299 128.064C214.928 127.701 215.632 127.52 216.411 127.52C217.189 127.52 217.888 127.701 218.507 128.064C219.125 128.427 219.611 128.933 219.963 129.584C220.315 130.224 220.491 130.96 220.491 131.792L220.475 132.144ZM216.411 128.496C215.6 128.496 214.917 128.757 214.363 129.28C213.819 129.792 213.509 130.464 213.435 131.296H219.403C219.328 130.464 219.013 129.792 218.459 129.28C217.915 128.757 217.232 128.496 216.411 128.496ZM230.131 132.144H223.091C223.155 133.019 223.491 133.728 224.099 134.272C224.707 134.805 225.475 135.072 226.403 135.072C226.925 135.072 227.405 134.981 227.843 134.8C228.28 134.608 228.659 134.331 228.979 133.968L229.619 134.704C229.245 135.152 228.776 135.493 228.211 135.728C227.656 135.963 227.043 136.08 226.371 136.08C225.507 136.08 224.739 135.899 224.067 135.536C223.405 135.163 222.888 134.651 222.515 134C222.141 133.349 221.955 132.613 221.955 131.792C221.955 130.971 222.131 130.235 222.483 129.584C222.845 128.933 223.336 128.427 223.955 128.064C224.584 127.701 225.288 127.52 226.067 127.52C226.845 127.52 227.544 127.701 228.163 128.064C228.781 128.427 229.267 128.933 229.619 129.584C229.971 130.224 230.147 130.96 230.147 131.792L230.131 132.144ZM226.067 128.496C225.256 128.496 224.573 128.757 224.019 129.28C223.475 129.792 223.165 130.464 223.091 131.296H229.059C228.984 130.464 228.669 129.792 228.115 129.28C227.571 128.757 226.888 128.496 226.067 128.496ZM242.955 127.52C244.011 127.52 244.838 127.824 245.435 128.432C246.043 129.04 246.347 129.936 246.347 131.12V136H245.211V131.232C245.211 130.357 244.998 129.691 244.571 129.232C244.155 128.773 243.563 128.544 242.795 128.544C241.92 128.544 241.232 128.816 240.731 129.36C240.23 129.893 239.979 130.635 239.979 131.584V136H238.843V131.232C238.843 130.357 238.63 129.691 238.203 129.232C237.787 128.773 237.19 128.544 236.411 128.544C235.547 128.544 234.859 128.816 234.347 129.36C233.846 129.893 233.595 130.635 233.595 131.584V136H232.459V127.584H233.547V129.12C233.846 128.608 234.262 128.213 234.795 127.936C235.328 127.659 235.942 127.52 236.635 127.52C237.339 127.52 237.947 127.669 238.459 127.968C238.982 128.267 239.371 128.709 239.627 129.296C239.936 128.741 240.379 128.309 240.955 128C241.542 127.68 242.208 127.52 242.955 127.52ZM253.764 127.52C254.553 127.52 255.268 127.701 255.908 128.064C256.548 128.416 257.049 128.917 257.412 129.568C257.774 130.219 257.956 130.96 257.956 131.792C257.956 132.624 257.774 133.365 257.412 134.016C257.049 134.667 256.548 135.173 255.908 135.536C255.268 135.899 254.553 136.08 253.764 136.08C253.06 136.08 252.425 135.931 251.86 135.632C251.305 135.333 250.857 134.901 250.516 134.336V136H249.428V124.128H250.564V129.184C250.916 128.64 251.364 128.229 251.908 127.952C252.462 127.664 253.081 127.52 253.764 127.52ZM253.684 135.072C254.27 135.072 254.804 134.939 255.284 134.672C255.764 134.395 256.137 134.005 256.404 133.504C256.681 133.003 256.82 132.432 256.82 131.792C256.82 131.152 256.681 130.581 256.404 130.08C256.137 129.579 255.764 129.195 255.284 128.928C254.804 128.651 254.27 128.512 253.684 128.512C253.086 128.512 252.548 128.651 252.068 128.928C251.598 129.195 251.225 129.579 250.948 130.08C250.681 130.581 250.548 131.152 250.548 131.792C250.548 132.432 250.681 133.003 250.948 133.504C251.225 134.005 251.598 134.395 252.068 134.672C252.548 134.939 253.086 135.072 253.684 135.072ZM263.712 136.08C262.901 136.08 262.17 135.899 261.52 135.536C260.869 135.163 260.357 134.651 259.984 134C259.61 133.349 259.424 132.613 259.424 131.792C259.424 130.971 259.61 130.235 259.984 129.584C260.357 128.933 260.869 128.427 261.52 128.064C262.17 127.701 262.901 127.52 263.712 127.52C264.522 127.52 265.253 127.701 265.904 128.064C266.554 128.427 267.061 128.933 267.424 129.584C267.797 130.235 267.984 130.971 267.984 131.792C267.984 132.613 267.797 133.349 267.424 134C267.061 134.651 266.554 135.163 265.904 135.536C265.253 135.899 264.522 136.08 263.712 136.08ZM263.712 135.072C264.309 135.072 264.842 134.939 265.312 134.672C265.792 134.395 266.165 134.005 266.432 133.504C266.698 133.003 266.832 132.432 266.832 131.792C266.832 131.152 266.698 130.581 266.432 130.08C266.165 129.579 265.792 129.195 265.312 128.928C264.842 128.651 264.309 128.512 263.712 128.512C263.114 128.512 262.576 128.651 262.096 128.928C261.626 129.195 261.253 129.579 260.976 130.08C260.709 130.581 260.576 131.152 260.576 131.792C260.576 132.432 260.709 133.003 260.976 133.504C261.253 134.005 261.626 134.395 262.096 134.672C262.576 134.939 263.114 135.072 263.712 135.072ZM270.303 124.128H271.439V136H270.303V124.128ZM276.856 136.08C276.173 136.08 275.517 135.984 274.888 135.792C274.269 135.589 273.784 135.339 273.432 135.04L273.944 134.144C274.296 134.421 274.738 134.651 275.272 134.832C275.805 135.003 276.36 135.088 276.936 135.088C277.704 135.088 278.269 134.971 278.632 134.736C279.005 134.491 279.192 134.149 279.192 133.712C279.192 133.403 279.09 133.163 278.888 132.992C278.685 132.811 278.429 132.677 278.12 132.592C277.81 132.496 277.4 132.405 276.888 132.32C276.205 132.192 275.656 132.064 275.24 131.936C274.824 131.797 274.466 131.568 274.168 131.248C273.88 130.928 273.736 130.485 273.736 129.92C273.736 129.216 274.029 128.64 274.616 128.192C275.202 127.744 276.018 127.52 277.064 127.52C277.608 127.52 278.152 127.595 278.696 127.744C279.24 127.883 279.688 128.069 280.04 128.304L279.544 129.216C278.85 128.736 278.024 128.496 277.064 128.496C276.338 128.496 275.789 128.624 275.416 128.88C275.053 129.136 274.872 129.472 274.872 129.888C274.872 130.208 274.973 130.464 275.176 130.656C275.389 130.848 275.65 130.992 275.96 131.088C276.269 131.173 276.696 131.264 277.24 131.36C277.912 131.488 278.45 131.616 278.856 131.744C279.261 131.872 279.608 132.091 279.896 132.4C280.184 132.709 280.328 133.136 280.328 133.68C280.328 134.416 280.018 135.003 279.4 135.44C278.792 135.867 277.944 136.08 276.856 136.08ZM285.868 136.08C285.057 136.08 284.326 135.899 283.676 135.536C283.025 135.163 282.513 134.651 282.14 134C281.766 133.349 281.58 132.613 281.58 131.792C281.58 130.971 281.766 130.235 282.14 129.584C282.513 128.933 283.025 128.427 283.676 128.064C284.326 127.701 285.057 127.52 285.868 127.52C286.678 127.52 287.409 127.701 288.06 128.064C288.71 128.427 289.217 128.933 289.58 129.584C289.953 130.235 290.14 130.971 290.14 131.792C290.14 132.613 289.953 133.349 289.58 134C289.217 134.651 288.71 135.163 288.06 135.536C287.409 135.899 286.678 136.08 285.868 136.08ZM285.868 135.072C286.465 135.072 286.998 134.939 287.468 134.672C287.948 134.395 288.321 134.005 288.588 133.504C288.854 133.003 288.988 132.432 288.988 131.792C288.988 131.152 288.854 130.581 288.588 130.08C288.321 129.579 287.948 129.195 287.468 128.928C286.998 128.651 286.465 128.512 285.868 128.512C285.27 128.512 284.732 128.651 284.252 128.928C283.782 129.195 283.409 129.579 283.132 130.08C282.865 130.581 282.732 131.152 282.732 131.792C282.732 132.432 282.865 133.003 283.132 133.504C283.409 134.005 283.782 134.395 284.252 134.672C284.732 134.939 285.27 135.072 285.868 135.072ZM294.715 136.08C294.032 136.08 293.376 135.984 292.747 135.792C292.128 135.589 291.643 135.339 291.291 135.04L291.803 134.144C292.155 134.421 292.598 134.651 293.131 134.832C293.664 135.003 294.219 135.088 294.795 135.088C295.563 135.088 296.128 134.971 296.491 134.736C296.864 134.491 297.051 134.149 297.051 133.712C297.051 133.403 296.95 133.163 296.747 132.992C296.544 132.811 296.288 132.677 295.979 132.592C295.67 132.496 295.259 132.405 294.747 132.32C294.064 132.192 293.515 132.064 293.099 131.936C292.683 131.797 292.326 131.568 292.027 131.248C291.739 130.928 291.595 130.485 291.595 129.92C291.595 129.216 291.888 128.64 292.475 128.192C293.062 127.744 293.878 127.52 294.923 127.52C295.467 127.52 296.011 127.595 296.555 127.744C297.099 127.883 297.547 128.069 297.899 128.304L297.403 129.216C296.71 128.736 295.883 128.496 294.923 128.496C294.198 128.496 293.648 128.624 293.275 128.88C292.912 129.136 292.731 129.472 292.731 129.888C292.731 130.208 292.832 130.464 293.035 130.656C293.248 130.848 293.51 130.992 293.819 131.088C294.128 131.173 294.555 131.264 295.099 131.36C295.771 131.488 296.31 131.616 296.715 131.744C297.12 131.872 297.467 132.091 297.755 132.4C298.043 132.709 298.187 133.136 298.187 133.68C298.187 134.416 297.878 135.003 297.259 135.44C296.651 135.867 295.803 136.08 294.715 136.08Z" fill="#828282"/>
<mask id="path-15-inside-1" fill="white">
<path d="M91.6483 53.7345C91.9677 53.4106 92.0799 52.9356 91.9421 52.4949C91.8043 52.0541 91.4448 51.7388 91.0041 51.6723L88.3946 51.2771C88.3134 51.2648 88.2431 51.2116 88.2075 51.1356L87.0415 48.6735C86.8444 48.2584 86.4447 48 85.9995 48C85.5542 48 85.1555 48.2584 84.9584 48.6735L83.7914 51.1356C83.7549 51.2116 83.6855 51.2648 83.6043 51.2771L80.9957 51.6723C80.555 51.7388 80.1955 52.0541 80.0577 52.4949C79.9199 52.9356 80.0331 53.4106 80.3515 53.7345L82.2393 55.6504C82.2977 55.7103 82.3251 55.7958 82.3114 55.8803L81.8662 58.5856C81.7904 59.0425 81.9683 59.4956 82.3278 59.7682C82.5313 59.9221 82.7695 60 83.0094 60C83.1937 60 83.3799 59.9535 83.5514 59.8594L85.8854 58.5818C85.9575 58.5419 86.0442 58.5419 86.1172 58.5818L88.4512 59.8594C88.8453 60.075 89.3143 60.0399 89.6747 59.7673C90.0351 59.4947 90.2122 59.0416 90.1364 58.5847L89.6912 55.8794C89.6775 55.7948 89.7039 55.7093 89.7632 55.6495L91.6483 53.7345Z"/>
</mask>
<path d="M91.6483 53.7345C91.9677 53.4106 92.0799 52.9356 91.9421 52.4949C91.8043 52.0541 91.4448 51.7388 91.0041 51.6723L88.3946 51.2771C88.3134 51.2648 88.2431 51.2116 88.2075 51.1356L87.0415 48.6735C86.8444 48.2584 86.4447 48 85.9995 48C85.5542 48 85.1555 48.2584 84.9584 48.6735L83.7914 51.1356C83.7549 51.2116 83.6855 51.2648 83.6043 51.2771L80.9957 51.6723C80.555 51.7388 80.1955 52.0541 80.0577 52.4949C79.9199 52.9356 80.0331 53.4106 80.3515 53.7345L82.2393 55.6504C82.2977 55.7103 82.3251 55.7958 82.3114 55.8803L81.8662 58.5856C81.7904 59.0425 81.9683 59.4956 82.3278 59.7682C82.5313 59.9221 82.7695 60 83.0094 60C83.1937 60 83.3799 59.9535 83.5514 59.8594L85.8854 58.5818C85.9575 58.5419 86.0442 58.5419 86.1172 58.5818L88.4512 59.8594C88.8453 60.075 89.3143 60.0399 89.6747 59.7673C90.0351 59.4947 90.2122 59.0416 90.1364 58.5847L89.6912 55.8794C89.6775 55.7948 89.7039 55.7093 89.7632 55.6495L91.6483 53.7345Z" fill="#EDCA71" stroke="#EDCA71" stroke-width="2" mask="url(#path-15-inside-1)"/>
<mask id="path-16-inside-2" fill="white">
<path d="M125.648 53.7345C125.968 53.4106 126.08 52.9356 125.942 52.4949C125.804 52.0541 125.445 51.7388 125.004 51.6723L122.395 51.2771C122.313 51.2648 122.243 51.2116 122.208 51.1356L121.041 48.6735C120.844 48.2584 120.445 48 119.999 48C119.554 48 119.155 48.2584 118.958 48.6735L117.791 51.1356C117.755 51.2116 117.686 51.2648 117.604 51.2771L114.996 51.6723C114.555 51.7388 114.195 52.0541 114.058 52.4949C113.92 52.9356 114.033 53.4106 114.352 53.7345L116.239 55.6504C116.298 55.7103 116.325 55.7958 116.311 55.8803L115.866 58.5856C115.79 59.0425 115.968 59.4956 116.328 59.7682C116.531 59.9221 116.769 60 117.009 60C117.194 60 117.38 59.9535 117.551 59.8594L119.885 58.5818C119.957 58.5419 120.044 58.5419 120.117 58.5818L122.451 59.8594C122.845 60.075 123.314 60.0399 123.675 59.7673C124.035 59.4947 124.212 59.0416 124.136 58.5847L123.691 55.8794C123.677 55.7948 123.704 55.7093 123.763 55.6495L125.648 53.7345Z"/>
</mask>
<path d="M125.648 53.7345C125.968 53.4106 126.08 52.9356 125.942 52.4949C125.804 52.0541 125.445 51.7388 125.004 51.6723L122.395 51.2771C122.313 51.2648 122.243 51.2116 122.208 51.1356L121.041 48.6735C120.844 48.2584 120.445 48 119.999 48C119.554 48 119.155 48.2584 118.958 48.6735L117.791 51.1356C117.755 51.2116 117.686 51.2648 117.604 51.2771L114.996 51.6723C114.555 51.7388 114.195 52.0541 114.058 52.4949C113.92 52.9356 114.033 53.4106 114.352 53.7345L116.239 55.6504C116.298 55.7103 116.325 55.7958 116.311 55.8803L115.866 58.5856C115.79 59.0425 115.968 59.4956 116.328 59.7682C116.531 59.9221 116.769 60 117.009 60C117.194 60 117.38 59.9535 117.551 59.8594L119.885 58.5818C119.957 58.5419 120.044 58.5419 120.117 58.5818L122.451 59.8594C122.845 60.075 123.314 60.0399 123.675 59.7673C124.035 59.4947 124.212 59.0416 124.136 58.5847L123.691 55.8794C123.677 55.7948 123.704 55.7093 123.763 55.6495L125.648 53.7345Z" fill="#EDCA71" stroke="#EDCA71" stroke-width="2" mask="url(#path-16-inside-2)"/>
<mask id="path-17-inside-3" fill="white">
<path d="M108.648 53.7345C108.968 53.4106 109.08 52.9356 108.942 52.4949C108.804 52.0541 108.445 51.7388 108.004 51.6723L105.395 51.2771C105.313 51.2648 105.243 51.2116 105.208 51.1356L104.041 48.6735C103.844 48.2584 103.445 48 102.999 48C102.554 48 102.155 48.2584 101.958 48.6735L100.791 51.1356C100.755 51.2116 100.686 51.2648 100.604 51.2771L97.9957 51.6723C97.555 51.7388 97.1955 52.0541 97.0577 52.4949C96.9199 52.9356 97.0331 53.4106 97.3515 53.7345L99.2393 55.6504C99.2977 55.7103 99.3251 55.7958 99.3114 55.8803L98.8662 58.5856C98.7904 59.0425 98.9683 59.4956 99.3278 59.7682C99.5313 59.9221 99.7695 60 100.009 60C100.194 60 100.38 59.9535 100.551 59.8594L102.885 58.5818C102.957 58.5419 103.044 58.5419 103.117 58.5818L105.451 59.8594C105.845 60.075 106.314 60.0399 106.675 59.7673C107.035 59.4947 107.212 59.0416 107.136 58.5847L106.691 55.8794C106.677 55.7948 106.704 55.7093 106.763 55.6495L108.648 53.7345Z"/>
</mask>
<path d="M108.648 53.7345C108.968 53.4106 109.08 52.9356 108.942 52.4949C108.804 52.0541 108.445 51.7388 108.004 51.6723L105.395 51.2771C105.313 51.2648 105.243 51.2116 105.208 51.1356L104.041 48.6735C103.844 48.2584 103.445 48 102.999 48C102.554 48 102.155 48.2584 101.958 48.6735L100.791 51.1356C100.755 51.2116 100.686 51.2648 100.604 51.2771L97.9957 51.6723C97.555 51.7388 97.1955 52.0541 97.0577 52.4949C96.9199 52.9356 97.0331 53.4106 97.3515 53.7345L99.2393 55.6504C99.2977 55.7103 99.3251 55.7958 99.3114 55.8803L98.8662 58.5856C98.7904 59.0425 98.9683 59.4956 99.3278 59.7682C99.5313 59.9221 99.7695 60 100.009 60C100.194 60 100.38 59.9535 100.551 59.8594L102.885 58.5818C102.957 58.5419 103.044 58.5419 103.117 58.5818L105.451 59.8594C105.845 60.075 106.314 60.0399 106.675 59.7673C107.035 59.4947 107.212 59.0416 107.136 58.5847L106.691 55.8794C106.677 55.7948 106.704 55.7093 106.763 55.6495L108.648 53.7345Z" fill="#EDCA71" stroke="#EDCA71" stroke-width="2" mask="url(#path-17-inside-3)"/>
<mask id="path-18-inside-4" fill="white">
<path d="M142.648 53.7345C142.968 53.4106 143.08 52.9356 142.942 52.4949C142.804 52.0541 142.445 51.7388 142.004 51.6723L139.395 51.2771C139.313 51.2648 139.243 51.2116 139.208 51.1356L138.041 48.6735C137.844 48.2584 137.445 48 136.999 48C136.554 48 136.155 48.2584 135.958 48.6735L134.791 51.1356C134.755 51.2116 134.686 51.2648 134.604 51.2771L131.996 51.6723C131.555 51.7388 131.195 52.0541 131.058 52.4949C130.92 52.9356 131.033 53.4106 131.352 53.7345L133.239 55.6504C133.298 55.7103 133.325 55.7958 133.311 55.8803L132.866 58.5856C132.79 59.0425 132.968 59.4956 133.328 59.7682C133.531 59.9221 133.769 60 134.009 60C134.194 60 134.38 59.9535 134.551 59.8594L136.885 58.5818C136.957 58.5419 137.044 58.5419 137.117 58.5818L139.451 59.8594C139.845 60.075 140.314 60.0399 140.675 59.7673C141.035 59.4947 141.212 59.0416 141.136 58.5847L140.691 55.8794C140.677 55.7948 140.704 55.7093 140.763 55.6495L142.648 53.7345Z"/>
</mask>
<path d="M142.648 53.7345C142.968 53.4106 143.08 52.9356 142.942 52.4949C142.804 52.0541 142.445 51.7388 142.004 51.6723L139.395 51.2771C139.313 51.2648 139.243 51.2116 139.208 51.1356L138.041 48.6735C137.844 48.2584 137.445 48 136.999 48C136.554 48 136.155 48.2584 135.958 48.6735L134.791 51.1356C134.755 51.2116 134.686 51.2648 134.604 51.2771L131.996 51.6723C131.555 51.7388 131.195 52.0541 131.058 52.4949C130.92 52.9356 131.033 53.4106 131.352 53.7345L133.239 55.6504C133.298 55.7103 133.325 55.7958 133.311 55.8803L132.866 58.5856C132.79 59.0425 132.968 59.4956 133.328 59.7682C133.531 59.9221 133.769 60 134.009 60C134.194 60 134.38 59.9535 134.551 59.8594L136.885 58.5818C136.957 58.5419 137.044 58.5419 137.117 58.5818L139.451 59.8594C139.845 60.075 140.314 60.0399 140.675 59.7673C141.035 59.4947 141.212 59.0416 141.136 58.5847L140.691 55.8794C140.677 55.7948 140.704 55.7093 140.763 55.6495L142.648 53.7345Z" fill="#EDCA71" stroke="#EDCA71" stroke-width="2" mask="url(#path-18-inside-4)"/>
<mask id="path-19-inside-5" fill="white">
<path d="M159.648 53.7345C159.968 53.4106 160.08 52.9356 159.942 52.4949C159.804 52.0541 159.445 51.7388 159.004 51.6723L156.395 51.2771C156.313 51.2648 156.243 51.2116 156.208 51.1356L155.041 48.6735C154.844 48.2584 154.445 48 153.999 48C153.554 48 153.155 48.2584 152.958 48.6735L151.791 51.1356C151.755 51.2116 151.686 51.2648 151.604 51.2771L148.996 51.6723C148.555 51.7388 148.195 52.0541 148.058 52.4949C147.92 52.9356 148.033 53.4106 148.352 53.7345L150.239 55.6504C150.298 55.7103 150.325 55.7958 150.311 55.8803L149.866 58.5856C149.79 59.0425 149.968 59.4956 150.328 59.7682C150.531 59.9221 150.769 60 151.009 60C151.194 60 151.38 59.9535 151.551 59.8594L153.885 58.5818C153.957 58.5419 154.044 58.5419 154.117 58.5818L156.451 59.8594C156.845 60.075 157.314 60.0399 157.675 59.7673C158.035 59.4947 158.212 59.0416 158.136 58.5847L157.691 55.8794C157.677 55.7948 157.704 55.7093 157.763 55.6495L159.648 53.7345Z"/>
</mask>
<path d="M159.648 53.7345C159.968 53.4106 160.08 52.9356 159.942 52.4949C159.804 52.0541 159.445 51.7388 159.004 51.6723L156.395 51.2771C156.313 51.2648 156.243 51.2116 156.208 51.1356L155.041 48.6735C154.844 48.2584 154.445 48 153.999 48C153.554 48 153.155 48.2584 152.958 48.6735L151.791 51.1356C151.755 51.2116 151.686 51.2648 151.604 51.2771L148.996 51.6723C148.555 51.7388 148.195 52.0541 148.058 52.4949C147.92 52.9356 148.033 53.4106 148.352 53.7345L150.239 55.6504C150.298 55.7103 150.325 55.7958 150.311 55.8803L149.866 58.5856C149.79 59.0425 149.968 59.4956 150.328 59.7682C150.531 59.9221 150.769 60 151.009 60C151.194 60 151.38 59.9535 151.551 59.8594L153.885 58.5818C153.957 58.5419 154.044 58.5419 154.117 58.5818L156.451 59.8594C156.845 60.075 157.314 60.0399 157.675 59.7673C158.035 59.4947 158.212 59.0416 158.136 58.5847L157.691 55.8794C157.677 55.7948 157.704 55.7093 157.763 55.6495L159.648 53.7345Z" fill="#EDCA71" stroke="#EDCA71" stroke-width="2" mask="url(#path-19-inside-5)"/>
</svg>
