<svg width="380" height="180" viewBox="0 0 380 180" fill="none" xmlns="http://www.w3.org/2000/svg">
<rect width="380" height="180" rx="20" fill="white"/>
<rect x="20" y="20" width="40" height="40" rx="20" fill="#C0AC78"/>
<path d="M45.7556 42.8325H44.1795C42.933 42.8325 41.9208 43.8495 41.9208 45.0982V46.6791C41.9208 47.9294 42.9347 48.9448 44.1795 48.9448H45.7556C47.0021 48.9448 48.0143 47.9277 48.0143 46.6791V45.0982C48.016 43.8495 47.0021 42.8325 45.7556 42.8325ZM46.3428 46.6791C46.3428 47.003 46.0802 47.2665 45.7573 47.2665H44.1812C43.8583 47.2665 43.5956 47.003 43.5956 46.6791V45.0982C43.5956 44.7742 43.8583 44.5107 44.1812 44.5107H45.7573C46.0802 44.5107 46.3428 44.7742 46.3428 45.0982V46.6791Z" fill="#F2F2F2"/>
<path d="M52.5 35.7367C52.5 35.255 52.3511 34.7935 52.0683 34.4042L47.7483 28.4378C47.3234 27.8521 46.6407 27.503 45.9196 27.503H34.0839C33.3628 27.503 32.6802 27.8521 32.2552 28.4378L27.9352 34.4058C27.6524 34.7952 27.5035 35.255 27.5035 35.7367V36.987C27.5035 37.0206 27.5102 37.0525 27.5136 37.0844C27.5102 37.1179 27.5035 37.1498 27.5035 37.1817C27.5035 38.4555 28.1377 39.5817 29.1047 40.2631V50.2321C29.1047 51.4824 30.1186 52.4978 31.3634 52.4978H32.3439C33.5904 52.4978 34.6026 51.4808 34.6026 50.2321V44.9237C34.6026 44.5998 34.8653 44.3363 35.1882 44.3363H38.5796C38.9025 44.3363 39.1652 44.5998 39.1652 44.9237V50.2321C39.1652 51.4824 40.1791 52.4978 41.4239 52.4978H48.6384C49.8849 52.4978 50.8972 51.4808 50.8972 50.2321V40.2631C51.8642 39.5817 52.5 38.4555 52.5 37.1817C52.5 37.1482 52.4933 37.1163 52.49 37.0844C52.4933 37.0525 52.5 37.0206 52.5 36.987V35.7367ZM29.1767 35.7367C29.1767 35.6108 29.2151 35.4917 29.2888 35.391L33.6104 29.423C33.7209 29.2719 33.8982 29.1813 34.0839 29.1813H45.9196C46.107 29.1813 46.2844 29.2719 46.3931 29.423L50.7148 35.391C50.7884 35.4917 50.8269 35.6108 50.8269 35.7367V36.987C50.8269 37.0206 50.8336 37.0525 50.8369 37.0844C50.8336 37.1163 50.8269 37.1482 50.8269 37.1817C50.8269 38.3314 49.895 39.2678 48.7472 39.2678C47.5994 39.2678 46.6675 38.333 46.6675 37.1817C46.6675 36.7185 46.2927 36.3426 45.8309 36.3426C45.3692 36.3426 44.9944 36.7185 44.9944 37.1817C44.9944 38.3314 44.0624 39.2678 42.9147 39.2678C41.7686 39.2678 40.8367 38.333 40.8367 37.1817C40.8367 36.7185 40.4619 36.3426 40.0001 36.3426C39.5383 36.3426 39.1635 36.7185 39.1635 37.1817C39.1635 38.3314 38.2316 39.2678 37.0838 39.2678C35.9361 39.2678 35.0042 38.333 35.0042 37.1817C35.0042 36.7185 34.6294 36.3426 34.1676 36.3426C33.7058 36.3426 33.331 36.7185 33.331 37.1817C33.331 38.3314 32.3991 39.2678 31.2513 39.2678C30.1086 39.2678 29.1767 38.333 29.1767 37.1817C29.1767 37.1482 29.17 37.1163 29.1666 37.0844C29.17 37.0525 29.1767 37.0206 29.1767 36.987V35.7367ZM49.2257 50.2338C49.2257 50.5577 48.963 50.8212 48.6401 50.8212H41.4256C41.1027 50.8212 40.84 50.5577 40.84 50.2338V44.9254C40.84 43.675 39.8261 42.6597 38.5813 42.6597H35.1899C33.9434 42.6597 32.9312 43.6767 32.9312 44.9254V50.2338C32.9312 50.5577 32.6685 50.8212 32.3456 50.8212H31.3651C31.0422 50.8212 30.7795 50.5577 30.7795 50.2338V40.9142C30.9351 40.9344 31.0941 40.9461 31.2564 40.9461C32.4326 40.9461 33.4833 40.4007 34.1726 39.5481C34.8603 40.4007 35.9127 40.9461 37.0889 40.9461C38.2651 40.9461 39.3158 40.4007 40.0051 39.5481C40.6928 40.4007 41.7452 40.9461 42.9197 40.9461C44.0959 40.9461 45.1466 40.4007 45.836 39.5481C46.5236 40.4007 47.576 40.9461 48.7522 40.9461C48.9145 40.9461 49.0735 40.9344 49.2291 40.9142V50.2338H49.2257Z" fill="#F2F2F2"/>
<path d="M88.36 37.24C86.9333 37.24 85.64 36.9333 84.48 36.32C83.3333 35.6933 82.4267 34.8333 81.76 33.74C81.1067 32.6333 80.78 31.3867 80.78 30C80.78 28.6133 81.1067 27.3733 81.76 26.28C82.4267 25.1733 83.3333 24.3133 84.48 23.7C85.64 23.0733 86.94 22.76 88.38 22.76C89.5933 22.76 90.6867 22.9733 91.66 23.4C92.6467 23.8267 93.4733 24.44 94.14 25.24L92.06 27.16C91.1133 26.0667 89.94 25.52 88.54 25.52C87.6733 25.52 86.9 25.7133 86.22 26.1C85.54 26.4733 85.0067 27 84.62 27.68C84.2467 28.36 84.06 29.1333 84.06 30C84.06 30.8667 84.2467 31.64 84.62 32.32C85.0067 33 85.54 33.5333 86.22 33.92C86.9 34.2933 87.6733 34.48 88.54 34.48C89.94 34.48 91.1133 33.9267 92.06 32.82L94.14 34.74C93.4733 35.5533 92.6467 36.1733 91.66 36.6C90.6733 37.0267 89.5733 37.24 88.36 37.24ZM100.857 37.16C99.7235 37.16 98.7035 36.9267 97.7969 36.46C96.9035 35.98 96.2035 35.32 95.6969 34.48C95.1902 33.64 94.9369 32.6867 94.9369 31.62C94.9369 30.5533 95.1902 29.6 95.6969 28.76C96.2035 27.92 96.9035 27.2667 97.7969 26.8C98.7035 26.32 99.7235 26.08 100.857 26.08C101.99 26.08 103.004 26.32 103.897 26.8C104.79 27.2667 105.49 27.92 105.997 28.76C106.504 29.6 106.757 30.5533 106.757 31.62C106.757 32.6867 106.504 33.64 105.997 34.48C105.49 35.32 104.79 35.98 103.897 36.46C103.004 36.9267 101.99 37.16 100.857 37.16ZM100.857 34.6C101.657 34.6 102.31 34.3333 102.817 33.8C103.337 33.2533 103.597 32.5267 103.597 31.62C103.597 30.7133 103.337 29.9933 102.817 29.46C102.31 28.9133 101.657 28.64 100.857 28.64C100.057 28.64 99.3969 28.9133 98.8769 29.46C98.3569 29.9933 98.0969 30.7133 98.0969 31.62C98.0969 32.5267 98.3569 33.2533 98.8769 33.8C99.3969 34.3333 100.057 34.6 100.857 34.6ZM122.622 26.08C123.969 26.08 125.036 26.48 125.822 27.28C126.622 28.0667 127.022 29.2533 127.022 30.84V37H123.902V31.32C123.902 30.4667 123.722 29.8333 123.362 29.42C123.016 28.9933 122.516 28.78 121.862 28.78C121.129 28.78 120.549 29.02 120.122 29.5C119.696 29.9667 119.482 30.6667 119.482 31.6V37H116.362V31.32C116.362 29.6267 115.682 28.78 114.322 28.78C113.602 28.78 113.029 29.02 112.602 29.5C112.176 29.9667 111.962 30.6667 111.962 31.6V37H108.842V26.24H111.822V27.48C112.222 27.0267 112.709 26.68 113.282 26.44C113.869 26.2 114.509 26.08 115.202 26.08C115.962 26.08 116.649 26.2333 117.262 26.54C117.876 26.8333 118.369 27.2667 118.742 27.84C119.182 27.28 119.736 26.8467 120.402 26.54C121.082 26.2333 121.822 26.08 122.622 26.08ZM136.179 26.08C137.179 26.08 138.086 26.3133 138.899 26.78C139.726 27.2333 140.372 27.88 140.839 28.72C141.306 29.5467 141.539 30.5133 141.539 31.62C141.539 32.7267 141.306 33.7 140.839 34.54C140.372 35.3667 139.726 36.0133 138.899 36.48C138.086 36.9333 137.179 37.16 136.179 37.16C134.806 37.16 133.726 36.7267 132.939 35.86V40.88H129.819V26.24H132.799V27.48C133.572 26.5467 134.699 26.08 136.179 26.08ZM135.639 34.6C136.439 34.6 137.092 34.3333 137.599 33.8C138.119 33.2533 138.379 32.5267 138.379 31.62C138.379 30.7133 138.119 29.9933 137.599 29.46C137.092 28.9133 136.439 28.64 135.639 28.64C134.839 28.64 134.179 28.9133 133.659 29.46C133.152 29.9933 132.899 30.7133 132.899 31.62C132.899 32.5267 133.152 33.2533 133.659 33.8C134.179 34.3333 134.839 34.6 135.639 34.6ZM146.608 27.66C146.981 27.14 147.481 26.7467 148.108 26.48C148.748 26.2133 149.481 26.08 150.308 26.08V28.96C149.961 28.9333 149.728 28.92 149.608 28.92C148.714 28.92 148.014 29.1733 147.508 29.68C147.001 30.1733 146.748 30.92 146.748 31.92V37H143.628V26.24H146.608V27.66ZM156.444 26.08C158.111 26.08 159.391 26.48 160.284 27.28C161.177 28.0667 161.624 29.26 161.624 30.86V37H158.704V35.66C158.117 36.66 157.024 37.16 155.424 37.16C154.597 37.16 153.877 37.02 153.264 36.74C152.664 36.46 152.204 36.0733 151.884 35.58C151.564 35.0867 151.404 34.5267 151.404 33.9C151.404 32.9 151.777 32.1133 152.524 31.54C153.284 30.9667 154.451 30.68 156.024 30.68H158.504C158.504 30 158.297 29.48 157.884 29.12C157.471 28.7467 156.851 28.56 156.024 28.56C155.451 28.56 154.884 28.6533 154.324 28.84C153.777 29.0133 153.311 29.2533 152.924 29.56L151.804 27.38C152.391 26.9667 153.091 26.6467 153.904 26.42C154.731 26.1933 155.577 26.08 156.444 26.08ZM156.204 35.06C156.737 35.06 157.211 34.94 157.624 34.7C158.037 34.4467 158.331 34.08 158.504 33.6V32.5H156.364C155.084 32.5 154.444 32.92 154.444 33.76C154.444 34.16 154.597 34.48 154.904 34.72C155.224 34.9467 155.657 35.06 156.204 35.06ZM171.388 32.04V37H168.148V32L162.728 23H166.168L169.908 29.22L173.648 23H176.828L171.388 32.04ZM180.995 26.08C182.662 26.08 183.942 26.48 184.835 27.28C185.728 28.0667 186.175 29.26 186.175 30.86V37H183.255V35.66C182.668 36.66 181.575 37.16 179.975 37.16C179.148 37.16 178.428 37.02 177.815 36.74C177.215 36.46 176.755 36.0733 176.435 35.58C176.115 35.0867 175.955 34.5267 175.955 33.9C175.955 32.9 176.328 32.1133 177.075 31.54C177.835 30.9667 179.002 30.68 180.575 30.68H183.055C183.055 30 182.848 29.48 182.435 29.12C182.022 28.7467 181.402 28.56 180.575 28.56C180.002 28.56 179.435 28.6533 178.875 28.84C178.328 29.0133 177.862 29.2533 177.475 29.56L176.355 27.38C176.942 26.9667 177.642 26.6467 178.455 26.42C179.282 26.1933 180.128 26.08 180.995 26.08ZM180.755 35.06C181.288 35.06 181.762 34.94 182.175 34.7C182.588 34.4467 182.882 34.08 183.055 33.6V32.5H180.915C179.635 32.5 178.995 32.92 178.995 33.76C178.995 34.16 179.148 34.48 179.455 34.72C179.775 34.9467 180.208 35.06 180.755 35.06Z" fill="#00635D"/>
<path d="M28.848 93.008H22.608L21.264 96H20.032L25.152 84.8H26.32L31.44 96H30.192L28.848 93.008ZM28.416 92.048L25.728 86.032L23.04 92.048H28.416ZM37.3408 87.52C38.3968 87.52 39.2341 87.8293 39.8528 88.448C40.4821 89.056 40.7968 89.9467 40.7968 91.12V96H39.6608V91.232C39.6608 90.3573 39.4421 89.6907 39.0048 89.232C38.5674 88.7733 37.9434 88.544 37.1328 88.544C36.2261 88.544 35.5061 88.816 34.9728 89.36C34.4501 89.8933 34.1888 90.6347 34.1888 91.584V96H33.0528V87.584H34.1408V89.136C34.4501 88.624 34.8768 88.2293 35.4208 87.952C35.9754 87.664 36.6154 87.52 37.3408 87.52ZM48.3129 95.488C48.0995 95.68 47.8329 95.8293 47.5129 95.936C47.2035 96.032 46.8782 96.08 46.5369 96.08C45.7475 96.08 45.1395 95.8667 44.7129 95.44C44.2862 95.0133 44.0729 94.4107 44.0729 93.632V88.544H42.5689V87.584H44.0729V85.744H45.2089V87.584H47.7689V88.544H45.2089V93.568C45.2089 94.0693 45.3315 94.4533 45.5769 94.72C45.8329 94.976 46.1955 95.104 46.6649 95.104C46.8995 95.104 47.1235 95.0667 47.3369 94.992C47.5609 94.9173 47.7529 94.8107 47.9129 94.672L48.3129 95.488ZM50.3809 87.584H51.5169V96H50.3809V87.584ZM50.9569 85.744C50.7222 85.744 50.5249 85.664 50.3649 85.504C50.2049 85.344 50.1249 85.152 50.1249 84.928C50.1249 84.7147 50.2049 84.528 50.3649 84.368C50.5249 84.208 50.7222 84.128 50.9569 84.128C51.1915 84.128 51.3889 84.208 51.5489 84.368C51.7089 84.5173 51.7889 84.6987 51.7889 84.912C51.7889 85.1467 51.7089 85.344 51.5489 85.504C51.3889 85.664 51.1915 85.744 50.9569 85.744ZM62.4698 87.584V94.976C62.4698 96.4053 62.1178 97.4613 61.4138 98.144C60.7204 98.8373 59.6698 99.184 58.2618 99.184C57.4831 99.184 56.7418 99.0667 56.0378 98.832C55.3444 98.608 54.7791 98.2933 54.3418 97.888L54.9178 97.024C55.3231 97.3867 55.8138 97.6693 56.3898 97.872C56.9764 98.0747 57.5898 98.176 58.2298 98.176C59.2964 98.176 60.0804 97.9253 60.5818 97.424C61.0831 96.9333 61.3338 96.1653 61.3338 95.12V94.048C60.9818 94.5813 60.5178 94.9867 59.9418 95.264C59.3764 95.5413 58.7471 95.68 58.0538 95.68C57.2644 95.68 56.5444 95.5093 55.8938 95.168C55.2538 94.816 54.7471 94.3307 54.3738 93.712C54.0111 93.0827 53.8298 92.3733 53.8298 91.584C53.8298 90.7947 54.0111 90.0907 54.3738 89.472C54.7471 88.8533 55.2538 88.3733 55.8938 88.032C56.5338 87.6907 57.2538 87.52 58.0538 87.52C58.7684 87.52 59.4138 87.664 59.9898 87.952C60.5658 88.24 61.0298 88.656 61.3818 89.2V87.584H62.4698ZM58.1658 94.672C58.7738 94.672 59.3231 94.544 59.8138 94.288C60.3044 94.0213 60.6831 93.6533 60.9498 93.184C61.2271 92.7147 61.3658 92.1813 61.3658 91.584C61.3658 90.9867 61.2271 90.4587 60.9498 90C60.6831 89.5307 60.3044 89.168 59.8138 88.912C59.3338 88.6453 58.7844 88.512 58.1658 88.512C57.5578 88.512 57.0084 88.64 56.5178 88.896C56.0378 89.152 55.6591 89.5147 55.3818 89.984C55.1151 90.4533 54.9818 90.9867 54.9818 91.584C54.9818 92.1813 55.1151 92.7147 55.3818 93.184C55.6591 93.6533 56.0378 94.0213 56.5178 94.288C57.0084 94.544 57.5578 94.672 58.1658 94.672ZM73.2305 87.584V96H72.1425V94.464C71.8438 94.976 71.4332 95.376 70.9105 95.664C70.3878 95.9413 69.7905 96.08 69.1185 96.08C68.0198 96.08 67.1505 95.776 66.5105 95.168C65.8812 94.5493 65.5665 93.648 65.5665 92.464V87.584H66.7025V92.352C66.7025 93.2373 66.9212 93.9093 67.3585 94.368C67.7958 94.8267 68.4198 95.056 69.2305 95.056C70.1158 95.056 70.8145 94.7893 71.3265 94.256C71.8385 93.712 72.0945 92.96 72.0945 92V87.584H73.2305ZM67.9825 85.904C67.7905 85.904 67.6252 85.84 67.4865 85.712C67.3585 85.584 67.2945 85.4187 67.2945 85.216C67.2945 85.024 67.3585 84.864 67.4865 84.736C67.6252 84.5973 67.7905 84.528 67.9825 84.528C68.1638 84.528 68.3238 84.5973 68.4625 84.736C68.6012 84.864 68.6705 85.024 68.6705 85.216C68.6705 85.408 68.6012 85.5733 68.4625 85.712C68.3345 85.84 68.1745 85.904 67.9825 85.904ZM70.8305 85.904C70.6385 85.904 70.4732 85.84 70.3345 85.712C70.2065 85.5733 70.1425 85.408 70.1425 85.216C70.1425 85.024 70.2118 84.864 70.3505 84.736C70.4892 84.5973 70.6492 84.528 70.8305 84.528C71.0225 84.528 71.1825 84.5973 71.3105 84.736C71.4492 84.864 71.5185 85.024 71.5185 85.216C71.5185 85.4187 71.4492 85.584 71.3105 85.712C71.1825 85.84 71.0225 85.904 70.8305 85.904ZM83.7401 92.144H76.7001C76.7641 93.0187 77.1001 93.728 77.7081 94.272C78.3161 94.8053 79.0841 95.072 80.0121 95.072C80.5348 95.072 81.0148 94.9813 81.4521 94.8C81.8895 94.608 82.2681 94.3307 82.5881 93.968L83.2281 94.704C82.8548 95.152 82.3855 95.4933 81.8201 95.728C81.2655 95.9627 80.6521 96.08 79.9801 96.08C79.1161 96.08 78.3481 95.8987 77.6761 95.536C77.0148 95.1627 76.4975 94.6507 76.1241 94C75.7508 93.3493 75.5641 92.6133 75.5641 91.792C75.5641 90.9707 75.7401 90.2347 76.0921 89.584C76.4548 88.9333 76.9455 88.4267 77.5641 88.064C78.1935 87.7013 78.8975 87.52 79.6761 87.52C80.4548 87.52 81.1535 87.7013 81.7721 88.064C82.3908 88.4267 82.8761 88.9333 83.2281 89.584C83.5801 90.224 83.7561 90.96 83.7561 91.792L83.7401 92.144ZM79.6761 88.496C78.8655 88.496 78.1828 88.7573 77.6281 89.28C77.0841 89.792 76.7748 90.464 76.7001 91.296H82.6681C82.5935 90.464 82.2788 89.792 81.7241 89.28C81.1801 88.7573 80.4975 88.496 79.6761 88.496ZM93.7484 84.128V96H92.6604V94.336C92.319 94.9013 91.8657 95.3333 91.3004 95.632C90.7457 95.9307 90.1164 96.08 89.4124 96.08C88.623 96.08 87.9084 95.8987 87.2684 95.536C86.6284 95.1733 86.127 94.6667 85.7644 94.016C85.4017 93.3653 85.2204 92.624 85.2204 91.792C85.2204 90.96 85.4017 90.2187 85.7644 89.568C86.127 88.9173 86.6284 88.416 87.2684 88.064C87.9084 87.7013 88.623 87.52 89.4124 87.52C90.095 87.52 90.7084 87.664 91.2524 87.952C91.807 88.2293 92.2604 88.64 92.6124 89.184V84.128H93.7484ZM89.5084 95.072C90.095 95.072 90.623 94.9387 91.0924 94.672C91.5724 94.3947 91.9457 94.0053 92.2124 93.504C92.4897 93.0027 92.6284 92.432 92.6284 91.792C92.6284 91.152 92.4897 90.5813 92.2124 90.08C91.9457 89.5787 91.5724 89.1947 91.0924 88.928C90.623 88.6507 90.095 88.512 89.5084 88.512C88.911 88.512 88.3724 88.6507 87.8924 88.928C87.423 89.1947 87.0497 89.5787 86.7724 90.08C86.5057 90.5813 86.3724 91.152 86.3724 91.792C86.3724 92.432 86.5057 93.0027 86.7724 93.504C87.0497 94.0053 87.423 94.3947 87.8924 94.672C88.3724 94.9387 88.911 95.072 89.5084 95.072ZM99.8561 87.52C100.955 87.52 101.797 87.7973 102.384 88.352C102.971 88.896 103.264 89.7067 103.264 90.784V96H102.176V94.688C101.92 95.1253 101.541 95.4667 101.04 95.712C100.549 95.9573 99.9628 96.08 99.2801 96.08C98.3415 96.08 97.5948 95.856 97.0401 95.408C96.4855 94.96 96.2081 94.368 96.2081 93.632C96.2081 92.9173 96.4641 92.3413 96.9761 91.904C97.4988 91.4667 98.3255 91.248 99.4561 91.248H102.128V90.736C102.128 90.0107 101.925 89.4613 101.52 89.088C101.115 88.704 100.523 88.512 99.7441 88.512C99.2108 88.512 98.6988 88.6027 98.2081 88.784C97.7175 88.9547 97.2961 89.1947 96.9441 89.504L96.4321 88.656C96.8588 88.2933 97.3708 88.016 97.9681 87.824C98.5655 87.6213 99.1948 87.52 99.8561 87.52ZM99.4561 95.184C100.096 95.184 100.645 95.04 101.104 94.752C101.563 94.4533 101.904 94.0267 102.128 93.472V92.096H99.4881C98.0481 92.096 97.3281 92.5973 97.3281 93.6C97.3281 94.0907 97.5148 94.48 97.8881 94.768C98.2615 95.0453 98.7841 95.184 99.4561 95.184ZM114.061 84.128V96H112.973V94.336C112.632 94.9013 112.178 95.3333 111.613 95.632C111.058 95.9307 110.429 96.08 109.725 96.08C108.936 96.08 108.221 95.8987 107.581 95.536C106.941 95.1733 106.44 94.6667 106.077 94.016C105.714 93.3653 105.533 92.624 105.533 91.792C105.533 90.96 105.714 90.2187 106.077 89.568C106.44 88.9173 106.941 88.416 107.581 88.064C108.221 87.7013 108.936 87.52 109.725 87.52C110.408 87.52 111.021 87.664 111.565 87.952C112.12 88.2293 112.573 88.64 112.925 89.184V84.128H114.061ZM109.821 95.072C110.408 95.072 110.936 94.9387 111.405 94.672C111.885 94.3947 112.258 94.0053 112.525 93.504C112.802 93.0027 112.941 92.432 112.941 91.792C112.941 91.152 112.802 90.5813 112.525 90.08C112.258 89.5787 111.885 89.1947 111.405 88.928C110.936 88.6507 110.408 88.512 109.821 88.512C109.224 88.512 108.685 88.6507 108.205 88.928C107.736 89.1947 107.362 89.5787 107.085 90.08C106.818 90.5813 106.685 91.152 106.685 91.792C106.685 92.432 106.818 93.0027 107.085 93.504C107.362 94.0053 107.736 94.3947 108.205 94.672C108.685 94.9387 109.224 95.072 109.821 95.072Z" fill="#828282"/>
<path d="M167.79 52.58V60H167.11V58.96C166.897 59.3133 166.613 59.5833 166.26 59.77C165.913 59.9567 165.52 60.05 165.08 60.05C164.587 60.05 164.14 59.9367 163.74 59.71C163.34 59.4833 163.027 59.1667 162.8 58.76C162.573 58.3533 162.46 57.89 162.46 57.37C162.46 56.85 162.573 56.3867 162.8 55.98C163.027 55.5733 163.34 55.26 163.74 55.04C164.14 54.8133 164.587 54.7 165.08 54.7C165.507 54.7 165.89 54.79 166.23 54.97C166.577 55.1433 166.86 55.4 167.08 55.74V52.58H167.79ZM165.14 59.42C165.507 59.42 165.837 59.3367 166.13 59.17C166.43 58.9967 166.663 58.7533 166.83 58.44C167.003 58.1267 167.09 57.77 167.09 57.37C167.09 56.97 167.003 56.6133 166.83 56.3C166.663 55.9867 166.43 55.7467 166.13 55.58C165.837 55.4067 165.507 55.32 165.14 55.32C164.767 55.32 164.43 55.4067 164.13 55.58C163.837 55.7467 163.603 55.9867 163.43 56.3C163.263 56.6133 163.18 56.97 163.18 57.37C163.18 57.77 163.263 58.1267 163.43 58.44C163.603 58.7533 163.837 58.9967 164.13 59.17C164.43 59.3367 164.767 59.42 165.14 59.42ZM174.347 57.59H169.947C169.987 58.1367 170.197 58.58 170.577 58.92C170.957 59.2533 171.437 59.42 172.017 59.42C172.344 59.42 172.644 59.3633 172.917 59.25C173.191 59.13 173.427 58.9567 173.627 58.73L174.027 59.19C173.794 59.47 173.501 59.6833 173.147 59.83C172.801 59.9767 172.417 60.05 171.997 60.05C171.457 60.05 170.977 59.9367 170.557 59.71C170.144 59.4767 169.821 59.1567 169.587 58.75C169.354 58.3433 169.237 57.8833 169.237 57.37C169.237 56.8567 169.347 56.3967 169.567 55.99C169.794 55.5833 170.101 55.2667 170.487 55.04C170.881 54.8133 171.321 54.7 171.807 54.7C172.294 54.7 172.731 54.8133 173.117 55.04C173.504 55.2667 173.807 55.5833 174.027 55.99C174.247 56.39 174.357 56.85 174.357 57.37L174.347 57.59ZM171.807 55.31C171.301 55.31 170.874 55.4733 170.527 55.8C170.187 56.12 169.994 56.54 169.947 57.06H173.677C173.631 56.54 173.434 56.12 173.087 55.8C172.747 55.4733 172.321 55.31 171.807 55.31ZM179.79 55.87C180.803 55.87 181.54 56.0533 182 56.42C182.466 56.78 182.7 57.2867 182.7 57.94C182.7 58.3467 182.603 58.71 182.41 59.03C182.223 59.35 181.94 59.6033 181.56 59.79C181.18 59.97 180.713 60.06 180.16 60.06C179.66 60.06 179.183 59.98 178.73 59.82C178.283 59.6533 177.923 59.4333 177.65 59.16L178 58.59C178.233 58.83 178.54 59.0267 178.92 59.18C179.3 59.3267 179.71 59.4 180.15 59.4C180.73 59.4 181.176 59.27 181.49 59.01C181.81 58.75 181.97 58.4033 181.97 57.97C181.97 57.49 181.79 57.1267 181.43 56.88C181.076 56.6333 180.476 56.51 179.63 56.51H178.14L178.5 53H182.33V53.64H179.13L178.89 55.87H179.79ZM186.514 55.81C186.974 55.81 187.38 55.8967 187.734 56.07C188.094 56.2433 188.374 56.49 188.574 56.81C188.774 57.1233 188.874 57.49 188.874 57.91C188.874 58.3367 188.77 58.7133 188.564 59.04C188.357 59.3667 188.07 59.62 187.704 59.8C187.344 59.9733 186.937 60.06 186.484 60.06C185.557 60.06 184.847 59.7567 184.354 59.15C183.86 58.5367 183.614 57.6733 183.614 56.56C183.614 55.78 183.747 55.12 184.014 54.58C184.28 54.04 184.654 53.6333 185.134 53.36C185.614 53.08 186.174 52.94 186.814 52.94C187.507 52.94 188.06 53.0667 188.474 53.32L188.184 53.9C187.85 53.68 187.397 53.57 186.824 53.57C186.05 53.57 185.444 53.8167 185.004 54.31C184.564 54.7967 184.344 55.5067 184.344 56.44C184.344 56.6067 184.354 56.7967 184.374 57.01C184.547 56.63 184.824 56.3367 185.204 56.13C185.584 55.9167 186.02 55.81 186.514 55.81ZM186.454 59.45C186.96 59.45 187.37 59.3133 187.684 59.04C188.004 58.76 188.164 58.39 188.164 57.93C188.164 57.47 188.004 57.1033 187.684 56.83C187.37 56.5567 186.944 56.42 186.404 56.42C186.05 56.42 185.737 56.4867 185.464 56.62C185.197 56.7533 184.987 56.9367 184.834 57.17C184.68 57.4033 184.604 57.6633 184.604 57.95C184.604 58.2167 184.674 58.4633 184.814 58.69C184.96 58.9167 185.174 59.1 185.454 59.24C185.734 59.38 186.067 59.45 186.454 59.45ZM191.888 52.94C192.814 52.94 193.524 53.2467 194.018 53.86C194.511 54.4667 194.758 55.3267 194.758 56.44C194.758 57.22 194.624 57.88 194.358 58.42C194.091 58.96 193.718 59.37 193.238 59.65C192.758 59.9233 192.198 60.06 191.558 60.06C190.864 60.06 190.311 59.9333 189.898 59.68L190.188 59.1C190.521 59.32 190.974 59.43 191.548 59.43C192.321 59.43 192.928 59.1867 193.368 58.7C193.808 58.2067 194.028 57.4933 194.028 56.56C194.028 56.3867 194.018 56.1967 193.998 55.99C193.824 56.37 193.548 56.6667 193.168 56.88C192.788 57.0867 192.351 57.19 191.858 57.19C191.398 57.19 190.988 57.1033 190.628 56.93C190.274 56.7567 189.998 56.5133 189.798 56.2C189.598 55.88 189.498 55.51 189.498 55.09C189.498 54.6633 189.601 54.2867 189.808 53.96C190.014 53.6333 190.298 53.3833 190.657 53.21C191.024 53.03 191.434 52.94 191.888 52.94ZM191.968 56.58C192.321 56.58 192.631 56.5133 192.898 56.38C193.171 56.2467 193.384 56.0633 193.538 55.83C193.691 55.5967 193.768 55.3367 193.768 55.05C193.768 54.7833 193.694 54.5367 193.548 54.31C193.408 54.0833 193.198 53.9 192.918 53.76C192.638 53.62 192.304 53.55 191.918 53.55C191.411 53.55 190.998 53.69 190.678 53.97C190.364 54.2433 190.208 54.61 190.208 55.07C190.208 55.53 190.364 55.8967 190.678 56.17C190.998 56.4433 191.428 56.58 191.968 56.58ZM199.811 56.33C200.251 56.4767 200.588 56.6967 200.821 56.99C201.061 57.2833 201.181 57.6367 201.181 58.05C201.181 58.4567 201.071 58.8133 200.851 59.12C200.631 59.42 200.315 59.6533 199.901 59.82C199.495 59.98 199.015 60.06 198.461 60.06C197.621 60.06 196.961 59.88 196.481 59.52C196.001 59.16 195.761 58.67 195.761 58.05C195.761 57.63 195.875 57.2767 196.101 56.99C196.335 56.6967 196.671 56.4767 197.111 56.33C196.751 56.19 196.478 55.99 196.291 55.73C196.105 55.4633 196.011 55.15 196.011 54.79C196.011 54.2233 196.231 53.7733 196.671 53.44C197.118 53.1067 197.715 52.94 198.461 52.94C198.955 52.94 199.385 53.0167 199.751 53.17C200.125 53.3167 200.415 53.53 200.621 53.81C200.828 54.09 200.931 54.4167 200.931 54.79C200.931 55.15 200.835 55.4633 200.641 55.73C200.448 55.99 200.171 56.19 199.811 56.33ZM196.731 54.81C196.731 55.1967 196.885 55.5033 197.191 55.73C197.498 55.9567 197.921 56.07 198.461 56.07C199.001 56.07 199.425 55.9567 199.731 55.73C200.045 55.5033 200.201 55.2 200.201 54.82C200.201 54.4267 200.041 54.1167 199.721 53.89C199.408 53.6633 198.988 53.55 198.461 53.55C197.928 53.55 197.505 53.6633 197.191 53.89C196.885 54.1167 196.731 54.4233 196.731 54.81ZM198.461 59.45C199.081 59.45 199.565 59.3233 199.911 59.07C200.265 58.8167 200.441 58.4733 200.441 58.04C200.441 57.6067 200.265 57.2667 199.911 57.02C199.565 56.7667 199.081 56.64 198.461 56.64C197.848 56.64 197.365 56.7667 197.011 57.02C196.665 57.2667 196.491 57.6067 196.491 58.04C196.491 58.48 196.665 58.8267 197.011 59.08C197.358 59.3267 197.841 59.45 198.461 59.45ZM207.415 60.05C206.909 60.05 206.452 59.9367 206.045 59.71C205.639 59.4767 205.319 59.1567 205.085 58.75C204.852 58.3433 204.735 57.8833 204.735 57.37C204.735 56.8567 204.852 56.3967 205.085 55.99C205.319 55.5833 205.639 55.2667 206.045 55.04C206.452 54.8133 206.909 54.7 207.415 54.7C207.922 54.7 208.379 54.8133 208.785 55.04C209.192 55.2667 209.509 55.5833 209.735 55.99C209.969 56.3967 210.085 56.8567 210.085 57.37C210.085 57.8833 209.969 58.3433 209.735 58.75C209.509 59.1567 209.192 59.4767 208.785 59.71C208.379 59.9367 207.922 60.05 207.415 60.05ZM207.415 59.42C207.789 59.42 208.122 59.3367 208.415 59.17C208.715 58.9967 208.949 58.7533 209.115 58.44C209.282 58.1267 209.365 57.77 209.365 57.37C209.365 56.97 209.282 56.6133 209.115 56.3C208.949 55.9867 208.715 55.7467 208.415 55.58C208.122 55.4067 207.789 55.32 207.415 55.32C207.042 55.32 206.705 55.4067 206.405 55.58C206.112 55.7467 205.879 55.9867 205.705 56.3C205.539 56.6133 205.455 56.97 205.455 57.37C205.455 57.77 205.539 58.1267 205.705 58.44C205.879 58.7533 206.112 58.9967 206.405 59.17C206.705 59.3367 207.042 59.42 207.415 59.42ZM214.245 54.7C214.738 54.7 215.185 54.8133 215.585 55.04C215.985 55.26 216.298 55.5733 216.525 55.98C216.752 56.3867 216.865 56.85 216.865 57.37C216.865 57.8967 216.752 58.3633 216.525 58.77C216.298 59.1767 215.985 59.4933 215.585 59.72C215.192 59.94 214.745 60.05 214.245 60.05C213.818 60.05 213.432 59.9633 213.085 59.79C212.745 59.61 212.465 59.35 212.245 59.01V61.94H211.535V54.74H212.215V55.78C212.428 55.4333 212.708 55.1667 213.055 54.98C213.408 54.7933 213.805 54.7 214.245 54.7ZM214.195 59.42C214.562 59.42 214.895 59.3367 215.195 59.17C215.495 58.9967 215.728 58.7533 215.895 58.44C216.068 58.1267 216.155 57.77 216.155 57.37C216.155 56.97 216.068 56.6167 215.895 56.31C215.728 55.9967 215.495 55.7533 215.195 55.58C214.895 55.4067 214.562 55.32 214.195 55.32C213.822 55.32 213.485 55.4067 213.185 55.58C212.892 55.7533 212.658 55.9967 212.485 56.31C212.318 56.6167 212.235 56.97 212.235 57.37C212.235 57.77 212.318 58.1267 212.485 58.44C212.658 58.7533 212.892 58.9967 213.185 59.17C213.485 59.3367 213.822 59.42 214.195 59.42ZM218.312 54.74H219.022V60H218.312V54.74ZM218.672 53.59C218.526 53.59 218.402 53.54 218.302 53.44C218.202 53.34 218.152 53.22 218.152 53.08C218.152 52.9467 218.202 52.83 218.302 52.73C218.402 52.63 218.526 52.58 218.672 52.58C218.819 52.58 218.942 52.63 219.042 52.73C219.142 52.8233 219.192 52.9367 219.192 53.07C219.192 53.2167 219.142 53.34 219.042 53.44C218.942 53.54 218.819 53.59 218.672 53.59ZM223.678 54.7C224.338 54.7 224.861 54.8933 225.248 55.28C225.641 55.66 225.838 56.2167 225.838 56.95V60H225.128V57.02C225.128 56.4733 224.991 56.0567 224.718 55.77C224.444 55.4833 224.054 55.34 223.548 55.34C222.981 55.34 222.531 55.51 222.198 55.85C221.871 56.1833 221.708 56.6467 221.708 57.24V60H220.998V54.74H221.678V55.71C221.871 55.39 222.138 55.1433 222.478 54.97C222.824 54.79 223.224 54.7 223.678 54.7ZM227.765 54.74H228.475V60H227.765V54.74ZM228.125 53.59C227.979 53.59 227.855 53.54 227.755 53.44C227.655 53.34 227.605 53.22 227.605 53.08C227.605 52.9467 227.655 52.83 227.755 52.73C227.855 52.63 227.979 52.58 228.125 52.58C228.272 52.58 228.395 52.63 228.495 52.73C228.595 52.8233 228.645 52.9367 228.645 53.07C228.645 53.2167 228.595 53.34 228.495 53.44C228.395 53.54 228.272 53.59 228.125 53.59ZM232.601 60.05C232.094 60.05 231.638 59.9367 231.231 59.71C230.824 59.4767 230.504 59.1567 230.271 58.75C230.038 58.3433 229.921 57.8833 229.921 57.37C229.921 56.8567 230.038 56.3967 230.271 55.99C230.504 55.5833 230.824 55.2667 231.231 55.04C231.638 54.8133 232.094 54.7 232.601 54.7C233.108 54.7 233.564 54.8133 233.971 55.04C234.378 55.2667 234.694 55.5833 234.921 55.99C235.154 56.3967 235.271 56.8567 235.271 57.37C235.271 57.8833 235.154 58.3433 234.921 58.75C234.694 59.1567 234.378 59.4767 233.971 59.71C233.564 59.9367 233.108 60.05 232.601 60.05ZM232.601 59.42C232.974 59.42 233.308 59.3367 233.601 59.17C233.901 58.9967 234.134 58.7533 234.301 58.44C234.468 58.1267 234.551 57.77 234.551 57.37C234.551 56.97 234.468 56.6133 234.301 56.3C234.134 55.9867 233.901 55.7467 233.601 55.58C233.308 55.4067 232.974 55.32 232.601 55.32C232.228 55.32 231.891 55.4067 231.591 55.58C231.298 55.7467 231.064 55.9867 230.891 56.3C230.724 56.6133 230.641 56.97 230.641 57.37C230.641 57.77 230.724 58.1267 230.891 58.44C231.064 58.7533 231.298 58.9967 231.591 59.17C231.891 59.3367 232.228 59.42 232.601 59.42ZM239.4 54.7C240.06 54.7 240.584 54.8933 240.97 55.28C241.364 55.66 241.56 56.2167 241.56 56.95V60H240.85V57.02C240.85 56.4733 240.714 56.0567 240.44 55.77C240.167 55.4833 239.777 55.34 239.27 55.34C238.704 55.34 238.254 55.51 237.92 55.85C237.594 56.1833 237.43 56.6467 237.43 57.24V60H236.72V54.74H237.4V55.71C237.594 55.39 237.86 55.1433 238.2 54.97C238.547 54.79 238.947 54.7 239.4 54.7ZM248.088 57.59H243.688C243.728 58.1367 243.938 58.58 244.318 58.92C244.698 59.2533 245.178 59.42 245.758 59.42C246.084 59.42 246.384 59.3633 246.658 59.25C246.931 59.13 247.168 58.9567 247.368 58.73L247.768 59.19C247.534 59.47 247.241 59.6833 246.888 59.83C246.541 59.9767 246.158 60.05 245.738 60.05C245.198 60.05 244.718 59.9367 244.298 59.71C243.884 59.4767 243.561 59.1567 243.328 58.75C243.094 58.3433 242.978 57.8833 242.978 57.37C242.978 56.8567 243.088 56.3967 243.308 55.99C243.534 55.5833 243.841 55.2667 244.228 55.04C244.621 54.8133 245.061 54.7 245.548 54.7C246.034 54.7 246.471 54.8133 246.858 55.04C247.244 55.2667 247.548 55.5833 247.768 55.99C247.988 56.39 248.098 56.85 248.098 57.37L248.088 57.59ZM245.548 55.31C245.041 55.31 244.614 55.4733 244.268 55.8C243.928 56.12 243.734 56.54 243.688 57.06H247.418C247.371 56.54 247.174 56.12 246.828 55.8C246.488 55.4733 246.061 55.31 245.548 55.31ZM250.953 60.05C250.526 60.05 250.116 59.99 249.723 59.87C249.336 59.7433 249.033 59.5867 248.813 59.4L249.133 58.84C249.353 59.0133 249.629 59.1567 249.963 59.27C250.296 59.3767 250.643 59.43 251.003 59.43C251.483 59.43 251.836 59.3567 252.063 59.21C252.296 59.0567 252.413 58.8433 252.413 58.57C252.413 58.3767 252.349 58.2267 252.223 58.12C252.096 58.0067 251.936 57.9233 251.743 57.87C251.549 57.81 251.293 57.7533 250.973 57.7C250.546 57.62 250.203 57.54 249.943 57.46C249.683 57.3733 249.459 57.23 249.273 57.03C249.093 56.83 249.003 56.5533 249.003 56.2C249.003 55.76 249.186 55.4 249.553 55.12C249.919 54.84 250.429 54.7 251.083 54.7C251.423 54.7 251.763 54.7467 252.103 54.84C252.443 54.9267 252.723 55.0433 252.943 55.19L252.633 55.76C252.199 55.46 251.683 55.31 251.083 55.31C250.629 55.31 250.286 55.39 250.053 55.55C249.826 55.71 249.713 55.92 249.713 56.18C249.713 56.38 249.776 56.54 249.903 56.66C250.036 56.78 250.199 56.87 250.393 56.93C250.586 56.9833 250.853 57.04 251.193 57.1C251.613 57.18 251.949 57.26 252.203 57.34C252.456 57.42 252.673 57.5567 252.853 57.75C253.033 57.9433 253.123 58.21 253.123 58.55C253.123 59.01 252.929 59.3767 252.543 59.65C252.163 59.9167 251.633 60.05 250.953 60.05Z" fill="#828282"/>
<path d="M206.688 96.096C205.579 96.096 204.576 95.8507 203.68 95.36C202.795 94.8693 202.096 94.192 201.584 93.328C201.083 92.4533 200.832 91.4773 200.832 90.4C200.832 89.3227 201.083 88.352 201.584 87.488C202.096 86.6133 202.8 85.9307 203.696 85.44C204.592 84.9493 205.595 84.704 206.704 84.704C207.536 84.704 208.304 84.8427 209.008 85.12C209.712 85.3973 210.309 85.8027 210.8 86.336L210.048 87.088C209.173 86.2027 208.069 85.76 206.736 85.76C205.851 85.76 205.045 85.9627 204.32 86.368C203.595 86.7733 203.024 87.328 202.608 88.032C202.203 88.736 202 89.5253 202 90.4C202 91.2747 202.203 92.064 202.608 92.768C203.024 93.472 203.595 94.0267 204.32 94.432C205.045 94.8373 205.851 95.04 206.736 95.04C208.08 95.04 209.184 94.592 210.048 93.696L210.8 94.448C210.309 94.9813 209.707 95.392 208.992 95.68C208.288 95.9573 207.52 96.096 206.688 96.096ZM216.149 96.08C215.338 96.08 214.608 95.8987 213.957 95.536C213.306 95.1627 212.794 94.6507 212.421 94C212.048 93.3493 211.861 92.6133 211.861 91.792C211.861 90.9707 212.048 90.2347 212.421 89.584C212.794 88.9333 213.306 88.4267 213.957 88.064C214.608 87.7013 215.338 87.52 216.149 87.52C216.96 87.52 217.69 87.7013 218.341 88.064C218.992 88.4267 219.498 88.9333 219.861 89.584C220.234 90.2347 220.421 90.9707 220.421 91.792C220.421 92.6133 220.234 93.3493 219.861 94C219.498 94.6507 218.992 95.1627 218.341 95.536C217.69 95.8987 216.96 96.08 216.149 96.08ZM216.149 95.072C216.746 95.072 217.28 94.9387 217.749 94.672C218.229 94.3947 218.602 94.0053 218.869 93.504C219.136 93.0027 219.269 92.432 219.269 91.792C219.269 91.152 219.136 90.5813 218.869 90.08C218.602 89.5787 218.229 89.1947 217.749 88.928C217.28 88.6507 216.746 88.512 216.149 88.512C215.552 88.512 215.013 88.6507 214.533 88.928C214.064 89.1947 213.69 89.5787 213.413 90.08C213.146 90.5813 213.013 91.152 213.013 91.792C213.013 92.432 213.146 93.0027 213.413 93.504C213.69 94.0053 214.064 94.3947 214.533 94.672C215.013 94.9387 215.552 95.072 216.149 95.072ZM233.236 87.52C234.292 87.52 235.119 87.824 235.716 88.432C236.324 89.04 236.628 89.936 236.628 91.12V96H235.492V91.232C235.492 90.3573 235.279 89.6907 234.852 89.232C234.436 88.7733 233.844 88.544 233.076 88.544C232.202 88.544 231.514 88.816 231.012 89.36C230.511 89.8933 230.26 90.6347 230.26 91.584V96H229.124V91.232C229.124 90.3573 228.911 89.6907 228.484 89.232C228.068 88.7733 227.471 88.544 226.692 88.544C225.828 88.544 225.14 88.816 224.628 89.36C224.127 89.8933 223.876 90.6347 223.876 91.584V96H222.74V87.584H223.828V89.12C224.127 88.608 224.543 88.2133 225.076 87.936C225.61 87.6587 226.223 87.52 226.916 87.52C227.62 87.52 228.228 87.6693 228.74 87.968C229.263 88.2667 229.652 88.7093 229.908 89.296C230.218 88.7413 230.66 88.3093 231.236 88C231.823 87.68 232.49 87.52 233.236 87.52ZM244.045 87.52C244.834 87.52 245.549 87.7013 246.189 88.064C246.829 88.416 247.33 88.9173 247.693 89.568C248.056 90.2187 248.237 90.96 248.237 91.792C248.237 92.6347 248.056 93.3813 247.693 94.032C247.33 94.6827 246.829 95.1893 246.189 95.552C245.56 95.904 244.845 96.08 244.045 96.08C243.362 96.08 242.744 95.9413 242.189 95.664C241.645 95.376 241.197 94.96 240.845 94.416V99.104H239.709V87.584H240.797V89.248C241.138 88.6933 241.586 88.2667 242.141 87.968C242.706 87.6693 243.341 87.52 244.045 87.52ZM243.965 95.072C244.552 95.072 245.085 94.9387 245.565 94.672C246.045 94.3947 246.418 94.0053 246.685 93.504C246.962 93.0027 247.101 92.432 247.101 91.792C247.101 91.152 246.962 90.5867 246.685 90.096C246.418 89.5947 246.045 89.2053 245.565 88.928C245.085 88.6507 244.552 88.512 243.965 88.512C243.368 88.512 242.829 88.6507 242.349 88.928C241.88 89.2053 241.506 89.5947 241.229 90.096C240.962 90.5867 240.829 91.152 240.829 91.792C240.829 92.432 240.962 93.0027 241.229 93.504C241.506 94.0053 241.88 94.3947 242.349 94.672C242.829 94.9387 243.368 95.072 243.965 95.072ZM251.641 89.232C251.907 88.6667 252.302 88.24 252.825 87.952C253.358 87.664 254.014 87.52 254.793 87.52V88.624L254.521 88.608C253.635 88.608 252.942 88.88 252.441 89.424C251.939 89.968 251.689 90.7307 251.689 91.712V96H250.553V87.584H251.641V89.232ZM259.778 87.52C260.877 87.52 261.719 87.7973 262.306 88.352C262.893 88.896 263.186 89.7067 263.186 90.784V96H262.098V94.688C261.842 95.1253 261.463 95.4667 260.962 95.712C260.471 95.9573 259.885 96.08 259.202 96.08C258.263 96.08 257.517 95.856 256.962 95.408C256.407 94.96 256.13 94.368 256.13 93.632C256.13 92.9173 256.386 92.3413 256.898 91.904C257.421 91.4667 258.247 91.248 259.378 91.248H262.05V90.736C262.05 90.0107 261.847 89.4613 261.442 89.088C261.037 88.704 260.445 88.512 259.666 88.512C259.133 88.512 258.621 88.6027 258.13 88.784C257.639 88.9547 257.218 89.1947 256.866 89.504L256.354 88.656C256.781 88.2933 257.293 88.016 257.89 87.824C258.487 87.6213 259.117 87.52 259.778 87.52ZM259.378 95.184C260.018 95.184 260.567 95.04 261.026 94.752C261.485 94.4533 261.826 94.0267 262.05 93.472V92.096H259.41C257.97 92.096 257.25 92.5973 257.25 93.6C257.25 94.0907 257.437 94.48 257.81 94.768C258.183 95.0453 258.706 95.184 259.378 95.184ZM273.403 87.52C274.502 87.52 275.344 87.7973 275.931 88.352C276.518 88.896 276.811 89.7067 276.811 90.784V96H275.723V94.688C275.467 95.1253 275.088 95.4667 274.587 95.712C274.096 95.9573 273.51 96.08 272.827 96.08C271.888 96.08 271.142 95.856 270.587 95.408C270.032 94.96 269.755 94.368 269.755 93.632C269.755 92.9173 270.011 92.3413 270.523 91.904C271.046 91.4667 271.872 91.248 273.003 91.248H275.675V90.736C275.675 90.0107 275.472 89.4613 275.067 89.088C274.662 88.704 274.07 88.512 273.291 88.512C272.758 88.512 272.246 88.6027 271.755 88.784C271.264 88.9547 270.843 89.1947 270.491 89.504L269.979 88.656C270.406 88.2933 270.918 88.016 271.515 87.824C272.112 87.6213 272.742 87.52 273.403 87.52ZM273.003 95.184C273.643 95.184 274.192 95.04 274.651 94.752C275.11 94.4533 275.451 94.0267 275.675 93.472V92.096H273.035C271.595 92.096 270.875 92.5973 270.875 93.6C270.875 94.0907 271.062 94.48 271.435 94.768C271.808 95.0453 272.331 95.184 273.003 95.184ZM282.153 96.08C281.47 96.08 280.814 95.984 280.185 95.792C279.566 95.5893 279.081 95.3387 278.729 95.04L279.241 94.144C279.593 94.4213 280.035 94.6507 280.569 94.832C281.102 95.0027 281.657 95.088 282.233 95.088C283.001 95.088 283.566 94.9707 283.929 94.736C284.302 94.4907 284.489 94.1493 284.489 93.712C284.489 93.4027 284.387 93.1627 284.185 92.992C283.982 92.8107 283.726 92.6773 283.417 92.592C283.107 92.496 282.697 92.4053 282.185 92.32C281.502 92.192 280.953 92.064 280.537 91.936C280.121 91.7973 279.763 91.568 279.465 91.248C279.177 90.928 279.033 90.4853 279.033 89.92C279.033 89.216 279.326 88.64 279.913 88.192C280.499 87.744 281.315 87.52 282.361 87.52C282.905 87.52 283.449 87.5947 283.993 87.744C284.537 87.8827 284.985 88.0693 285.337 88.304L284.841 89.216C284.147 88.736 283.321 88.496 282.361 88.496C281.635 88.496 281.086 88.624 280.713 88.88C280.35 89.136 280.169 89.472 280.169 89.888C280.169 90.208 280.27 90.464 280.473 90.656C280.686 90.848 280.947 90.992 281.257 91.088C281.566 91.1733 281.993 91.264 282.536 91.36C283.209 91.488 283.747 91.616 284.153 91.744C284.558 91.872 284.905 92.0907 285.193 92.4C285.481 92.7093 285.625 93.136 285.625 93.68C285.625 94.416 285.315 95.0027 284.697 95.44C284.089 95.8667 283.241 96.08 282.153 96.08ZM295.053 92.144H288.013C288.077 93.0187 288.413 93.728 289.021 94.272C289.629 94.8053 290.397 95.072 291.325 95.072C291.847 95.072 292.327 94.9813 292.765 94.8C293.202 94.608 293.581 94.3307 293.901 93.968L294.541 94.704C294.167 95.152 293.698 95.4933 293.133 95.728C292.578 95.9627 291.965 96.08 291.293 96.08C290.429 96.08 289.661 95.8987 288.989 95.536C288.327 95.1627 287.81 94.6507 287.437 94C287.063 93.3493 286.877 92.6133 286.877 91.792C286.877 90.9707 287.053 90.2347 287.405 89.584C287.767 88.9333 288.258 88.4267 288.877 88.064C289.506 87.7013 290.21 87.52 290.989 87.52C291.767 87.52 292.466 87.7013 293.085 88.064C293.703 88.4267 294.189 88.9333 294.541 89.584C294.893 90.224 295.069 90.96 295.069 91.792L295.053 92.144ZM290.989 88.496C290.178 88.496 289.495 88.7573 288.941 89.28C288.397 89.792 288.087 90.464 288.013 91.296H293.981C293.906 90.464 293.591 89.792 293.037 89.28C292.493 88.7573 291.81 88.496 290.989 88.496ZM305.173 87.584V94.976C305.173 96.4053 304.821 97.4613 304.117 98.144C303.424 98.8373 302.373 99.184 300.965 99.184C300.186 99.184 299.445 99.0667 298.741 98.832C298.048 98.608 297.482 98.2933 297.045 97.888L297.621 97.024C298.026 97.3867 298.517 97.6693 299.093 97.872C299.68 98.0747 300.293 98.176 300.933 98.176C302 98.176 302.784 97.9253 303.285 97.424C303.786 96.9333 304.037 96.1653 304.037 95.12V94.048C303.685 94.5813 303.221 94.9867 302.645 95.264C302.08 95.5413 301.45 95.68 300.757 95.68C299.968 95.68 299.248 95.5093 298.597 95.168C297.957 94.816 297.45 94.3307 297.077 93.712C296.714 93.0827 296.533 92.3733 296.533 91.584C296.533 90.7947 296.714 90.0907 297.077 89.472C297.45 88.8533 297.957 88.3733 298.597 88.032C299.237 87.6907 299.957 87.52 300.757 87.52C301.472 87.52 302.117 87.664 302.693 87.952C303.269 88.24 303.733 88.656 304.085 89.2V87.584H305.173ZM300.869 94.672C301.477 94.672 302.026 94.544 302.517 94.288C303.008 94.0213 303.386 93.6533 303.653 93.184C303.93 92.7147 304.069 92.1813 304.069 91.584C304.069 90.9867 303.93 90.4587 303.653 90C303.386 89.5307 303.008 89.168 302.517 88.912C302.037 88.6453 301.488 88.512 300.869 88.512C300.261 88.512 299.712 88.64 299.221 88.896C298.741 89.152 298.362 89.5147 298.085 89.984C297.818 90.4533 297.685 90.9867 297.685 91.584C297.685 92.1813 297.818 92.7147 298.085 93.184C298.362 93.6533 298.741 94.0213 299.221 94.288C299.712 94.544 300.261 94.672 300.869 94.672ZM315.934 87.584V96H314.846V94.464C314.547 94.976 314.136 95.376 313.614 95.664C313.091 95.9413 312.494 96.08 311.822 96.08C310.723 96.08 309.854 95.776 309.214 95.168C308.584 94.5493 308.27 93.648 308.27 92.464V87.584H309.406V92.352C309.406 93.2373 309.624 93.9093 310.062 94.368C310.499 94.8267 311.123 95.056 311.934 95.056C312.819 95.056 313.518 94.7893 314.03 94.256C314.542 93.712 314.798 92.96 314.798 92V87.584H315.934ZM320.203 89.232C320.47 88.6667 320.865 88.24 321.387 87.952C321.921 87.664 322.577 87.52 323.355 87.52V88.624L323.083 88.608C322.198 88.608 321.505 88.88 321.003 89.424C320.502 89.968 320.251 90.7307 320.251 91.712V96H319.115V87.584H320.203V89.232ZM328.341 87.52C329.439 87.52 330.282 87.7973 330.869 88.352C331.455 88.896 331.749 89.7067 331.749 90.784V96H330.661V94.688C330.405 95.1253 330.026 95.4667 329.525 95.712C329.034 95.9573 328.447 96.08 327.765 96.08C326.826 96.08 326.079 95.856 325.525 95.408C324.97 94.96 324.693 94.368 324.693 93.632C324.693 92.9173 324.949 92.3413 325.461 91.904C325.983 91.4667 326.81 91.248 327.941 91.248H330.613V90.736C330.613 90.0107 330.41 89.4613 330.005 89.088C329.599 88.704 329.007 88.512 328.229 88.512C327.695 88.512 327.183 88.6027 326.693 88.784C326.202 88.9547 325.781 89.1947 325.429 89.504L324.917 88.656C325.343 88.2933 325.855 88.016 326.453 87.824C327.05 87.6213 327.679 87.52 328.341 87.52ZM327.941 95.184C328.581 95.184 329.13 95.04 329.589 94.752C330.047 94.4533 330.389 94.0267 330.613 93.472V92.096H327.973C326.533 92.096 325.812 92.5973 325.812 93.6C325.812 94.0907 325.999 94.48 326.373 94.768C326.746 95.0453 327.269 95.184 327.941 95.184ZM342.545 84.128V96H341.457V94.336C341.116 94.9013 340.663 95.3333 340.097 95.632C339.543 95.9307 338.913 96.08 338.209 96.08C337.42 96.08 336.705 95.8987 336.065 95.536C335.425 95.1733 334.924 94.6667 334.561 94.016C334.199 93.3653 334.017 92.624 334.017 91.792C334.017 90.96 334.199 90.2187 334.561 89.568C334.924 88.9173 335.425 88.416 336.065 88.064C336.705 87.7013 337.42 87.52 338.209 87.52C338.892 87.52 339.505 87.664 340.049 87.952C340.604 88.2293 341.057 88.64 341.409 89.184V84.128H342.545ZM338.305 95.072C338.892 95.072 339.42 94.9387 339.889 94.672C340.369 94.3947 340.743 94.0053 341.009 93.504C341.287 93.0027 341.425 92.432 341.425 91.792C341.425 91.152 341.287 90.5813 341.009 90.08C340.743 89.5787 340.369 89.1947 339.889 88.928C339.42 88.6507 338.892 88.512 338.305 88.512C337.708 88.512 337.169 88.6507 336.689 88.928C336.22 89.1947 335.847 89.5787 335.569 90.08C335.303 90.5813 335.169 91.152 335.169 91.792C335.169 92.432 335.303 93.0027 335.569 93.504C335.847 94.0053 336.22 94.3947 336.689 94.672C337.169 94.9387 337.708 95.072 338.305 95.072ZM348.653 87.52C349.752 87.52 350.594 87.7973 351.181 88.352C351.768 88.896 352.061 89.7067 352.061 90.784V96H350.973V94.688C350.717 95.1253 350.338 95.4667 349.837 95.712C349.346 95.9573 348.76 96.08 348.077 96.08C347.138 96.08 346.392 95.856 345.837 95.408C345.282 94.96 345.005 94.368 345.005 93.632C345.005 92.9173 345.261 92.3413 345.773 91.904C346.296 91.4667 347.122 91.248 348.253 91.248H350.925V90.736C350.925 90.0107 350.722 89.4613 350.317 89.088C349.912 88.704 349.32 88.512 348.541 88.512C348.008 88.512 347.496 88.6027 347.005 88.784C346.514 88.9547 346.093 89.1947 345.741 89.504L345.229 88.656C345.656 88.2933 346.168 88.016 346.765 87.824C347.362 87.6213 347.992 87.52 348.653 87.52ZM348.253 95.184C348.893 95.184 349.442 95.04 349.901 94.752C350.36 94.4533 350.701 94.0267 350.925 93.472V92.096H348.285C346.845 92.096 346.125 92.5973 346.125 93.6C346.125 94.0907 346.312 94.48 346.685 94.768C347.058 95.0453 347.581 95.184 348.253 95.184Z" fill="#828282"/>
<path d="M28.992 113.888V116H20.528V114.32L24.848 110.24C25.3067 109.803 25.616 109.429 25.776 109.12C25.936 108.8 26.016 108.485 26.016 108.176C26.016 107.728 25.8613 107.387 25.552 107.152C25.2533 106.907 24.8107 106.784 24.224 106.784C23.7333 106.784 23.2907 106.88 22.896 107.072C22.5013 107.253 22.1707 107.531 21.904 107.904L20.016 106.688C20.4533 106.037 21.056 105.531 21.824 105.168C22.592 104.795 23.472 104.608 24.464 104.608C25.296 104.608 26.0213 104.747 26.64 105.024C27.2693 105.291 27.7547 105.675 28.096 106.176C28.448 106.667 28.624 107.248 28.624 107.92C28.624 108.528 28.496 109.099 28.24 109.632C27.984 110.165 27.488 110.773 26.752 111.456L24.176 113.888H28.992ZM38.5928 107.264C39.9261 107.264 40.9501 107.584 41.6648 108.224C42.3794 108.853 42.7368 109.808 42.7368 111.088V116H40.4008V114.928C39.9314 115.728 39.0568 116.128 37.7768 116.128C37.1154 116.128 36.5394 116.016 36.0488 115.792C35.5688 115.568 35.2008 115.259 34.9448 114.864C34.6888 114.469 34.5608 114.021 34.5608 113.52C34.5608 112.72 34.8594 112.091 35.4568 111.632C36.0648 111.173 36.9981 110.944 38.2568 110.944H40.2408C40.2408 110.4 40.0754 109.984 39.7448 109.696C39.4141 109.397 38.9181 109.248 38.2568 109.248C37.7981 109.248 37.3448 109.323 36.8968 109.472C36.4594 109.611 36.0861 109.803 35.7768 110.048L34.8808 108.304C35.3501 107.973 35.9101 107.717 36.5608 107.536C37.2221 107.355 37.8994 107.264 38.5928 107.264ZM38.4008 114.448C38.8274 114.448 39.2061 114.352 39.5368 114.16C39.8674 113.957 40.1021 113.664 40.2408 113.28V112.4H38.5288C37.5048 112.4 36.9928 112.736 36.9928 113.408C36.9928 113.728 37.1154 113.984 37.3608 114.176C37.6168 114.357 37.9634 114.448 38.4008 114.448ZM50.2278 107.264C51.2944 107.264 52.1531 107.584 52.8038 108.224C53.4651 108.864 53.7958 109.813 53.7958 111.072V116H51.2998V111.456C51.2998 110.773 51.1504 110.267 50.8518 109.936C50.5531 109.595 50.1211 109.424 49.5558 109.424C48.9264 109.424 48.4251 109.621 48.0518 110.016C47.6784 110.4 47.4918 110.976 47.4918 111.744V116H44.9958V107.392H47.3798V108.4C47.7104 108.037 48.1211 107.76 48.6118 107.568C49.1024 107.365 49.6411 107.264 50.2278 107.264ZM50.6118 106.336C50.3238 106.336 50.0678 106.283 49.8438 106.176C49.6304 106.059 49.3904 105.904 49.1238 105.712C48.9531 105.584 48.8091 105.488 48.6918 105.424C48.5851 105.36 48.4784 105.328 48.3718 105.328C48.1478 105.328 47.9664 105.408 47.8278 105.568C47.6891 105.717 47.6144 105.936 47.6038 106.224H46.3398C46.3611 105.509 46.5371 104.944 46.8678 104.528C47.2091 104.101 47.6571 103.888 48.2118 103.888C48.4891 103.888 48.7344 103.947 48.9478 104.064C49.1718 104.171 49.4224 104.325 49.6998 104.528C49.8704 104.656 50.0091 104.752 50.1158 104.816C50.2331 104.88 50.3451 104.912 50.4518 104.912C50.6651 104.912 50.8411 104.837 50.9798 104.688C51.1291 104.528 51.2091 104.315 51.2198 104.048H52.4838C52.4624 104.741 52.2811 105.296 51.9398 105.712C51.6091 106.128 51.1664 106.336 50.6118 106.336ZM60.248 116.128C59.3413 116.128 58.5253 115.941 57.8 115.568C57.0853 115.184 56.5253 114.656 56.12 113.984C55.7147 113.312 55.512 112.549 55.512 111.696C55.512 110.843 55.7147 110.08 56.12 109.408C56.5253 108.736 57.0853 108.213 57.8 107.84C58.5253 107.456 59.3413 107.264 60.248 107.264C61.1547 107.264 61.9653 107.456 62.68 107.84C63.3947 108.213 63.9547 108.736 64.36 109.408C64.7653 110.08 64.968 110.843 64.968 111.696C64.968 112.549 64.7653 113.312 64.36 113.984C63.9547 114.656 63.3947 115.184 62.68 115.568C61.9653 115.941 61.1547 116.128 60.248 116.128ZM60.248 114.08C60.888 114.08 61.4107 113.867 61.816 113.44C62.232 113.003 62.44 112.421 62.44 111.696C62.44 110.971 62.232 110.395 61.816 109.968C61.4107 109.531 60.888 109.312 60.248 109.312C59.608 109.312 59.08 109.531 58.664 109.968C58.248 110.395 58.04 110.971 58.04 111.696C58.04 112.421 58.248 113.003 58.664 113.44C59.08 113.867 59.608 114.08 60.248 114.08ZM69.5324 116.128C68.8177 116.128 68.119 116.043 67.4364 115.872C66.7537 115.691 66.2097 115.467 65.8044 115.2L66.6364 113.408C67.0204 113.653 67.4844 113.856 68.0284 114.016C68.5724 114.165 69.1057 114.24 69.6284 114.24C70.6844 114.24 71.2124 113.979 71.2124 113.456C71.2124 113.211 71.0684 113.035 70.7804 112.928C70.4924 112.821 70.0497 112.731 69.4524 112.656C68.7484 112.549 68.167 112.427 67.7084 112.288C67.2497 112.149 66.8497 111.904 66.5084 111.552C66.1777 111.2 66.0124 110.699 66.0124 110.048C66.0124 109.504 66.167 109.024 66.4764 108.608C66.7964 108.181 67.255 107.851 67.8524 107.616C68.4604 107.381 69.175 107.264 69.9964 107.264C70.6044 107.264 71.207 107.333 71.8044 107.472C72.4124 107.6 72.9137 107.781 73.3084 108.016L72.4764 109.792C71.719 109.365 70.8924 109.152 69.9964 109.152C69.463 109.152 69.063 109.227 68.7964 109.376C68.5297 109.525 68.3964 109.717 68.3964 109.952C68.3964 110.219 68.5404 110.405 68.8284 110.512C69.1164 110.619 69.575 110.72 70.2044 110.816C70.9084 110.933 71.4844 111.061 71.9324 111.2C72.3804 111.328 72.7697 111.568 73.1004 111.92C73.431 112.272 73.5964 112.763 73.5964 113.392C73.5964 113.925 73.4364 114.4 73.1164 114.816C72.7964 115.232 72.327 115.557 71.7084 115.792C71.1004 116.016 70.375 116.128 69.5324 116.128Z" fill="#4F4F4F"/>
<path d="M201.328 104.8H206.416C207.632 104.8 208.704 105.035 209.632 105.504C210.571 105.963 211.296 106.613 211.808 107.456C212.331 108.299 212.592 109.28 212.592 110.4C212.592 111.52 212.331 112.501 211.808 113.344C211.296 114.187 210.571 114.843 209.632 115.312C208.704 115.771 207.632 116 206.416 116H201.328V104.8ZM206.288 113.872C207.408 113.872 208.299 113.563 208.96 112.944C209.632 112.315 209.968 111.467 209.968 110.4C209.968 109.333 209.632 108.491 208.96 107.872C208.299 107.243 207.408 106.928 206.288 106.928H203.92V113.872H206.288ZM222.803 111.728C222.803 111.76 222.787 111.984 222.755 112.4H216.243C216.36 112.933 216.637 113.355 217.075 113.664C217.512 113.973 218.056 114.128 218.707 114.128C219.155 114.128 219.549 114.064 219.891 113.936C220.243 113.797 220.568 113.584 220.867 113.296L222.195 114.736C221.384 115.664 220.2 116.128 218.643 116.128C217.672 116.128 216.813 115.941 216.067 115.568C215.32 115.184 214.744 114.656 214.339 113.984C213.933 113.312 213.731 112.549 213.731 111.696C213.731 110.853 213.928 110.096 214.323 109.424C214.728 108.741 215.277 108.213 215.971 107.84C216.675 107.456 217.459 107.264 218.323 107.264C219.165 107.264 219.928 107.445 220.611 107.808C221.293 108.171 221.827 108.693 222.211 109.376C222.605 110.048 222.803 110.832 222.803 111.728ZM218.339 109.152C217.773 109.152 217.299 109.312 216.915 109.632C216.531 109.952 216.296 110.389 216.211 110.944H220.451C220.365 110.4 220.131 109.968 219.747 109.648C219.363 109.317 218.893 109.152 218.339 109.152ZM227.361 116.128C226.646 116.128 225.947 116.043 225.265 115.872C224.582 115.691 224.038 115.467 223.633 115.2L224.465 113.408C224.849 113.653 225.313 113.856 225.857 114.016C226.401 114.165 226.934 114.24 227.457 114.24C228.513 114.24 229.041 113.979 229.041 113.456C229.041 113.211 228.897 113.035 228.609 112.928C228.321 112.821 227.878 112.731 227.281 112.656C226.577 112.549 225.995 112.427 225.537 112.288C225.078 112.149 224.678 111.904 224.337 111.552C224.006 111.2 223.84 110.699 223.84 110.048C223.84 109.504 223.995 109.024 224.305 108.608C224.625 108.181 225.083 107.851 225.681 107.616C226.289 107.381 227.003 107.264 227.825 107.264C228.433 107.264 229.035 107.333 229.633 107.472C230.241 107.6 230.742 107.781 231.137 108.016L230.305 109.792C229.547 109.365 228.721 109.152 227.825 109.152C227.291 109.152 226.891 109.227 226.625 109.376C226.358 109.525 226.225 109.717 226.225 109.952C226.225 110.219 226.369 110.405 226.657 110.512C226.945 110.619 227.403 110.72 228.033 110.816C228.737 110.933 229.313 111.061 229.761 111.2C230.209 111.328 230.598 111.568 230.929 111.92C231.259 112.272 231.425 112.763 231.425 113.392C231.425 113.925 231.265 114.4 230.945 114.816C230.625 115.232 230.155 115.557 229.537 115.792C228.929 116.016 228.203 116.128 227.361 116.128ZM241.733 104.128V116H239.349V115.008C238.73 115.755 237.834 116.128 236.661 116.128C235.85 116.128 235.114 115.947 234.453 115.584C233.802 115.221 233.29 114.704 232.917 114.032C232.543 113.36 232.357 112.581 232.357 111.696C232.357 110.811 232.543 110.032 232.917 109.36C233.29 108.688 233.802 108.171 234.453 107.808C235.114 107.445 235.85 107.264 236.661 107.264C237.759 107.264 238.618 107.611 239.237 108.304V104.128H241.733ZM237.093 114.08C237.722 114.08 238.245 113.867 238.661 113.44C239.077 113.003 239.285 112.421 239.285 111.696C239.285 110.971 239.077 110.395 238.661 109.968C238.245 109.531 237.722 109.312 237.093 109.312C236.453 109.312 235.925 109.531 235.509 109.968C235.093 110.395 234.885 110.971 234.885 111.696C234.885 112.421 235.093 113.003 235.509 113.44C235.925 113.867 236.453 114.08 237.093 114.08ZM252.475 111.728C252.475 111.76 252.459 111.984 252.427 112.4H245.915C246.032 112.933 246.309 113.355 246.747 113.664C247.184 113.973 247.728 114.128 248.379 114.128C248.827 114.128 249.221 114.064 249.563 113.936C249.915 113.797 250.24 113.584 250.539 113.296L251.867 114.736C251.056 115.664 249.872 116.128 248.315 116.128C247.344 116.128 246.485 115.941 245.739 115.568C244.992 115.184 244.416 114.656 244.011 113.984C243.605 113.312 243.403 112.549 243.403 111.696C243.403 110.853 243.6 110.096 243.995 109.424C244.4 108.741 244.949 108.213 245.643 107.84C246.347 107.456 247.131 107.264 247.995 107.264C248.837 107.264 249.6 107.445 250.283 107.808C250.965 108.171 251.499 108.693 251.883 109.376C252.277 110.048 252.475 110.832 252.475 111.728ZM248.011 109.152C247.445 109.152 246.971 109.312 246.587 109.632C246.203 109.952 245.968 110.389 245.883 110.944H250.123C250.037 110.4 249.803 109.968 249.419 109.648C249.035 109.317 248.565 109.152 248.011 109.152ZM267.276 112.72C267.276 113.595 266.956 114.347 266.316 114.976C265.676 115.595 264.753 115.979 263.548 116.128V117.92H261.948V116.176C261.158 116.133 260.406 115.995 259.692 115.76C258.977 115.525 258.401 115.237 257.964 114.896L258.844 112.944C259.249 113.243 259.724 113.493 260.268 113.696C260.812 113.899 261.372 114.027 261.948 114.08V111.408C261.19 111.227 260.55 111.024 260.028 110.8C259.505 110.576 259.068 110.251 258.716 109.824C258.364 109.387 258.188 108.811 258.188 108.096C258.188 107.211 258.508 106.453 259.148 105.824C259.798 105.184 260.732 104.795 261.948 104.656V102.88H263.548V104.624C264.86 104.731 265.942 105.056 266.796 105.6L265.996 107.568C265.196 107.109 264.38 106.832 263.548 106.736V109.456C264.294 109.627 264.924 109.824 265.436 110.048C265.958 110.261 266.396 110.587 266.748 111.024C267.1 111.451 267.276 112.016 267.276 112.72ZM260.764 107.968C260.764 108.235 260.865 108.453 261.068 108.624C261.27 108.795 261.564 108.939 261.948 109.056V106.784C261.542 106.88 261.244 107.035 261.052 107.248C260.86 107.451 260.764 107.691 260.764 107.968ZM263.548 114.016C263.932 113.931 264.22 113.792 264.412 113.6C264.604 113.408 264.7 113.179 264.7 112.912C264.7 112.645 264.598 112.427 264.396 112.256C264.204 112.085 263.921 111.936 263.548 111.808V114.016ZM272.183 109.008C273.761 109.008 274.924 109.323 275.671 109.952C276.428 110.581 276.807 111.424 276.807 112.48C276.807 113.163 276.636 113.787 276.295 114.352C275.953 114.907 275.431 115.355 274.727 115.696C274.033 116.027 273.175 116.192 272.151 116.192C271.361 116.192 270.583 116.091 269.815 115.888C269.057 115.675 268.412 115.376 267.879 114.992L268.903 113.008C269.329 113.328 269.82 113.579 270.375 113.76C270.929 113.931 271.5 114.016 272.087 114.016C272.737 114.016 273.249 113.888 273.623 113.632C273.996 113.376 274.183 113.019 274.183 112.56C274.183 112.08 273.985 111.717 273.591 111.472C273.207 111.227 272.535 111.104 271.575 111.104H268.711L269.287 104.8H276.119V106.88H271.447L271.271 109.008H272.183ZM282.658 116.192C281.73 116.192 280.904 115.963 280.178 115.504C279.453 115.045 278.882 114.384 278.466 113.52C278.061 112.645 277.858 111.605 277.858 110.4C277.858 109.195 278.061 108.16 278.466 107.296C278.882 106.421 279.453 105.755 280.178 105.296C280.904 104.837 281.73 104.608 282.658 104.608C283.586 104.608 284.413 104.837 285.138 105.296C285.864 105.755 286.429 106.421 286.834 107.296C287.25 108.16 287.458 109.195 287.458 110.4C287.458 111.605 287.25 112.645 286.834 113.52C286.429 114.384 285.864 115.045 285.138 115.504C284.413 115.963 283.586 116.192 282.658 116.192ZM282.658 114C283.341 114 283.874 113.707 284.258 113.12C284.653 112.533 284.85 111.627 284.85 110.4C284.85 109.173 284.653 108.267 284.258 107.68C283.874 107.093 283.341 106.8 282.658 106.8C281.986 106.8 281.453 107.093 281.058 107.68C280.674 108.267 280.482 109.173 280.482 110.4C280.482 111.627 280.674 112.533 281.058 113.12C281.453 113.707 281.986 114 282.658 114ZM289.987 116.128C289.549 116.128 289.181 115.979 288.883 115.68C288.584 115.381 288.435 115.008 288.435 114.56C288.435 114.101 288.584 113.733 288.883 113.456C289.181 113.168 289.549 113.024 289.987 113.024C290.424 113.024 290.792 113.168 291.091 113.456C291.389 113.733 291.539 114.101 291.539 114.56C291.539 115.008 291.389 115.381 291.091 115.68C290.792 115.979 290.424 116.128 289.987 116.128ZM297.299 116.192C296.371 116.192 295.544 115.963 294.819 115.504C294.094 115.045 293.523 114.384 293.107 113.52C292.702 112.645 292.499 111.605 292.499 110.4C292.499 109.195 292.702 108.16 293.107 107.296C293.523 106.421 294.094 105.755 294.819 105.296C295.544 104.837 296.371 104.608 297.299 104.608C298.227 104.608 299.054 104.837 299.779 105.296C300.504 105.755 301.07 106.421 301.475 107.296C301.891 108.16 302.099 109.195 302.099 110.4C302.099 111.605 301.891 112.645 301.475 113.52C301.07 114.384 300.504 115.045 299.779 115.504C299.054 115.963 298.227 116.192 297.299 116.192ZM297.299 114C297.982 114 298.515 113.707 298.899 113.12C299.294 112.533 299.491 111.627 299.491 110.4C299.491 109.173 299.294 108.267 298.899 107.68C298.515 107.093 297.982 106.8 297.299 106.8C296.627 106.8 296.094 107.093 295.699 107.68C295.315 108.267 295.123 109.173 295.123 110.4C295.123 111.627 295.315 112.533 295.699 113.12C296.094 113.707 296.627 114 297.299 114ZM308.158 116.192C307.23 116.192 306.404 115.963 305.678 115.504C304.953 115.045 304.382 114.384 303.966 113.52C303.561 112.645 303.358 111.605 303.358 110.4C303.358 109.195 303.561 108.16 303.966 107.296C304.382 106.421 304.953 105.755 305.678 105.296C306.404 104.837 307.23 104.608 308.158 104.608C309.086 104.608 309.913 104.837 310.638 105.296C311.364 105.755 311.929 106.421 312.334 107.296C312.75 108.16 312.958 109.195 312.958 110.4C312.958 111.605 312.75 112.645 312.334 113.52C311.929 114.384 311.364 115.045 310.638 115.504C309.913 115.963 309.086 116.192 308.158 116.192ZM308.158 114C308.841 114 309.374 113.707 309.758 113.12C310.153 112.533 310.35 111.627 310.35 110.4C310.35 109.173 310.153 108.267 309.758 107.68C309.374 107.093 308.841 106.8 308.158 106.8C307.486 106.8 306.953 107.093 306.558 107.68C306.174 108.267 305.982 109.173 305.982 110.4C305.982 111.627 306.174 112.533 306.558 113.12C306.953 113.707 307.486 114 308.158 114ZM319.018 116.192C318.09 116.192 317.263 115.963 316.538 115.504C315.812 115.045 315.242 114.384 314.826 113.52C314.42 112.645 314.218 111.605 314.218 110.4C314.218 109.195 314.42 108.16 314.826 107.296C315.242 106.421 315.812 105.755 316.538 105.296C317.263 104.837 318.09 104.608 319.018 104.608C319.946 104.608 320.772 104.837 321.498 105.296C322.223 105.755 322.788 106.421 323.194 107.296C323.61 108.16 323.818 109.195 323.818 110.4C323.818 111.605 323.61 112.645 323.194 113.52C322.788 114.384 322.223 115.045 321.498 115.504C320.772 115.963 319.946 116.192 319.018 116.192ZM319.018 114C319.7 114 320.234 113.707 320.618 113.12C321.012 112.533 321.21 111.627 321.21 110.4C321.21 109.173 321.012 108.267 320.618 107.68C320.234 107.093 319.7 106.8 319.018 106.8C318.346 106.8 317.812 107.093 317.418 107.68C317.034 108.267 316.842 109.173 316.842 110.4C316.842 111.627 317.034 112.533 317.418 113.12C317.812 113.707 318.346 114 319.018 114Z" fill="#4F4F4F"/>
<path d="M25.008 156.192C24.1227 156.192 23.264 156.075 22.432 155.84C21.6107 155.595 20.9493 155.28 20.448 154.896L21.328 152.944C21.808 153.296 22.3787 153.579 23.04 153.792C23.7013 154.005 24.3627 154.112 25.024 154.112C25.76 154.112 26.304 154.005 26.656 153.792C27.008 153.568 27.184 153.275 27.184 152.912C27.184 152.645 27.0773 152.427 26.864 152.256C26.6613 152.075 26.3947 151.931 26.064 151.824C25.744 151.717 25.3067 151.6 24.752 151.472C23.8987 151.269 23.2 151.067 22.656 150.864C22.112 150.661 21.6427 150.336 21.248 149.888C20.864 149.44 20.672 148.843 20.672 148.096C20.672 147.445 20.848 146.859 21.2 146.336C21.552 145.803 22.08 145.381 22.784 145.072C23.4987 144.763 24.368 144.608 25.392 144.608C26.1067 144.608 26.8053 144.693 27.488 144.864C28.1707 145.035 28.768 145.28 29.28 145.6L28.48 147.568C27.4453 146.981 26.4107 146.688 25.376 146.688C24.6507 146.688 24.112 146.805 23.76 147.04C23.4187 147.275 23.248 147.584 23.248 147.968C23.248 148.352 23.4453 148.64 23.84 148.832C24.2453 149.013 24.8587 149.195 25.68 149.376C26.5333 149.579 27.232 149.781 27.776 149.984C28.32 150.187 28.784 150.507 29.168 150.944C29.5627 151.381 29.76 151.973 29.76 152.72C29.76 153.36 29.5787 153.947 29.216 154.48C28.864 155.003 28.3307 155.419 27.616 155.728C26.9013 156.037 26.032 156.192 25.008 156.192ZM31.5311 144.8H34.1231V156H31.5311V144.8ZM33.5311 141.584H36.2191L33.3231 143.888H31.3711L33.5311 141.584Z" fill="#4F4F4F"/>
<path d="M205.008 156.192C204.123 156.192 203.264 156.075 202.432 155.84C201.611 155.595 200.949 155.28 200.448 154.896L201.328 152.944C201.808 153.296 202.379 153.579 203.04 153.792C203.701 154.005 204.363 154.112 205.024 154.112C205.76 154.112 206.304 154.005 206.656 153.792C207.008 153.568 207.184 153.275 207.184 152.912C207.184 152.645 207.077 152.427 206.864 152.256C206.661 152.075 206.395 151.931 206.064 151.824C205.744 151.717 205.307 151.6 204.752 151.472C203.899 151.269 203.2 151.067 202.656 150.864C202.112 150.661 201.643 150.336 201.248 149.888C200.864 149.44 200.672 148.843 200.672 148.096C200.672 147.445 200.848 146.859 201.2 146.336C201.552 145.803 202.08 145.381 202.784 145.072C203.499 144.763 204.368 144.608 205.392 144.608C206.107 144.608 206.805 144.693 207.488 144.864C208.171 145.035 208.768 145.28 209.28 145.6L208.48 147.568C207.445 146.981 206.411 146.688 205.376 146.688C204.651 146.688 204.112 146.805 203.76 147.04C203.419 147.275 203.248 147.584 203.248 147.968C203.248 148.352 203.445 148.64 203.84 148.832C204.245 149.013 204.859 149.195 205.68 149.376C206.533 149.579 207.232 149.781 207.776 149.984C208.32 150.187 208.784 150.507 209.168 150.944C209.563 151.381 209.76 151.973 209.76 152.72C209.76 153.36 209.579 153.947 209.216 154.48C208.864 155.003 208.331 155.419 207.616 155.728C206.901 156.037 206.032 156.192 205.008 156.192ZM211.531 144.8H214.123V156H211.531V144.8ZM213.531 141.584H216.219L213.323 143.888H211.371L213.531 141.584Z" fill="#4F4F4F"/>
<path d="M26.016 124.8C27.4453 124.8 28.5653 125.141 29.376 125.824C30.1867 126.507 30.592 127.445 30.592 128.64C30.592 129.835 30.1867 130.773 29.376 131.456C28.5653 132.128 27.4453 132.464 26.016 132.464H23.008V136H21.824V124.8H26.016ZM25.984 131.424C27.0933 131.424 27.9413 131.184 28.528 130.704C29.1147 130.213 29.408 129.525 29.408 128.64C29.408 127.733 29.1147 127.04 28.528 126.56C27.9413 126.069 27.0933 125.824 25.984 125.824H23.008V131.424H25.984ZM35.778 127.52C36.8767 127.52 37.7193 127.797 38.306 128.352C38.8927 128.896 39.186 129.707 39.186 130.784V136H38.098V134.688C37.842 135.125 37.4633 135.467 36.962 135.712C36.4713 135.957 35.8847 136.08 35.202 136.08C34.2633 136.08 33.5167 135.856 32.962 135.408C32.4073 134.96 32.13 134.368 32.13 133.632C32.13 132.917 32.386 132.341 32.898 131.904C33.4207 131.467 34.2473 131.248 35.378 131.248H38.05V130.736C38.05 130.011 37.8473 129.461 37.442 129.088C37.0367 128.704 36.4447 128.512 35.666 128.512C35.1327 128.512 34.6207 128.603 34.13 128.784C33.6393 128.955 33.218 129.195 32.866 129.504L32.354 128.656C32.7807 128.293 33.2927 128.016 33.89 127.824C34.4873 127.621 35.1167 127.52 35.778 127.52ZM35.378 135.184C36.018 135.184 36.5673 135.04 37.026 134.752C37.4847 134.453 37.826 134.027 38.05 133.472V132.096H35.41C33.97 132.096 33.25 132.597 33.25 133.6C33.25 134.091 33.4367 134.48 33.81 134.768C34.1833 135.045 34.706 135.184 35.378 135.184ZM50.0948 127.584V134.976C50.0948 136.405 49.7428 137.461 49.0388 138.144C48.3454 138.837 47.2948 139.184 45.8868 139.184C45.1081 139.184 44.3668 139.067 43.6628 138.832C42.9694 138.608 42.4041 138.293 41.9668 137.888L42.5428 137.024C42.9481 137.387 43.4388 137.669 44.0148 137.872C44.6014 138.075 45.2148 138.176 45.8548 138.176C46.9214 138.176 47.7054 137.925 48.2068 137.424C48.7081 136.933 48.9588 136.165 48.9588 135.12V134.048C48.6068 134.581 48.1428 134.987 47.5668 135.264C47.0014 135.541 46.3721 135.68 45.6788 135.68C44.8894 135.68 44.1694 135.509 43.5188 135.168C42.8788 134.816 42.3721 134.331 41.9988 133.712C41.6361 133.083 41.4548 132.373 41.4548 131.584C41.4548 130.795 41.6361 130.091 41.9988 129.472C42.3721 128.853 42.8788 128.373 43.5188 128.032C44.1588 127.691 44.8788 127.52 45.6788 127.52C46.3934 127.52 47.0388 127.664 47.6148 127.952C48.1908 128.24 48.6548 128.656 49.0068 129.2V127.584H50.0948ZM45.7908 134.672C46.3988 134.672 46.9481 134.544 47.4388 134.288C47.9294 134.021 48.3081 133.653 48.5748 133.184C48.8521 132.715 48.9908 132.181 48.9908 131.584C48.9908 130.987 48.8521 130.459 48.5748 130C48.3081 129.531 47.9294 129.168 47.4388 128.912C46.9588 128.645 46.4094 128.512 45.7908 128.512C45.1828 128.512 44.6334 128.64 44.1428 128.896C43.6628 129.152 43.2841 129.515 43.0068 129.984C42.7401 130.453 42.6068 130.987 42.6068 131.584C42.6068 132.181 42.7401 132.715 43.0068 133.184C43.2841 133.653 43.6628 134.021 44.1428 134.288C44.6334 134.544 45.1828 134.672 45.7908 134.672ZM56.7115 136.08C55.9008 136.08 55.1702 135.899 54.5195 135.536C53.8688 135.163 53.3568 134.651 52.9835 134C52.6102 133.349 52.4235 132.613 52.4235 131.792C52.4235 130.971 52.6102 130.235 52.9835 129.584C53.3568 128.933 53.8688 128.427 54.5195 128.064C55.1702 127.701 55.9008 127.52 56.7115 127.52C57.5222 127.52 58.2528 127.701 58.9035 128.064C59.5542 128.427 60.0608 128.933 60.4235 129.584C60.7968 130.235 60.9835 130.971 60.9835 131.792C60.9835 132.613 60.7968 133.349 60.4235 134C60.0608 134.651 59.5542 135.163 58.9035 135.536C58.2528 135.899 57.5222 136.08 56.7115 136.08ZM56.7115 135.072C57.3088 135.072 57.8422 134.939 58.3115 134.672C58.7915 134.395 59.1648 134.005 59.4315 133.504C59.6982 133.003 59.8315 132.432 59.8315 131.792C59.8315 131.152 59.6982 130.581 59.4315 130.08C59.1648 129.579 58.7915 129.195 58.3115 128.928C57.8422 128.651 57.3088 128.512 56.7115 128.512C56.1142 128.512 55.5755 128.651 55.0955 128.928C54.6262 129.195 54.2528 129.579 53.9755 130.08C53.7088 130.581 53.5755 131.152 53.5755 131.792C53.5755 132.432 53.7088 133.003 53.9755 133.504C54.2528 134.005 54.6262 134.395 55.0955 134.672C55.5755 134.939 56.1142 135.072 56.7115 135.072ZM70.9783 136.08C70.1463 136.08 69.3996 135.899 68.7383 135.536C68.0876 135.173 67.5756 134.667 67.2023 134.016C66.8289 133.355 66.6423 132.613 66.6423 131.792C66.6423 130.971 66.8289 130.235 67.2023 129.584C67.5756 128.933 68.0876 128.427 68.7383 128.064C69.3996 127.701 70.1463 127.52 70.9783 127.52C71.7036 127.52 72.3489 127.664 72.9143 127.952C73.4903 128.229 73.9436 128.64 74.2743 129.184L73.4263 129.76C73.1489 129.344 72.7969 129.035 72.3703 128.832C71.9436 128.619 71.4796 128.512 70.9783 128.512C70.3703 128.512 69.8209 128.651 69.3303 128.928C68.8503 129.195 68.4716 129.579 68.1943 130.08C67.9276 130.581 67.7943 131.152 67.7943 131.792C67.7943 132.443 67.9276 133.019 68.1943 133.52C68.4716 134.011 68.8503 134.395 69.3303 134.672C69.8209 134.939 70.3703 135.072 70.9783 135.072C71.4796 135.072 71.9436 134.971 72.3703 134.768C72.7969 134.565 73.1489 134.256 73.4263 133.84L74.2743 134.416C73.9436 134.96 73.4903 135.376 72.9143 135.664C72.3383 135.941 71.6929 136.08 70.9783 136.08ZM79.8053 136.08C78.9946 136.08 78.2639 135.899 77.6133 135.536C76.9626 135.163 76.4506 134.651 76.0773 134C75.7039 133.349 75.5173 132.613 75.5173 131.792C75.5173 130.971 75.7039 130.235 76.0773 129.584C76.4506 128.933 76.9626 128.427 77.6133 128.064C78.2639 127.701 78.9946 127.52 79.8053 127.52C80.6159 127.52 81.3466 127.701 81.9973 128.064C82.6479 128.427 83.1546 128.933 83.5173 129.584C83.8906 130.235 84.0773 130.971 84.0773 131.792C84.0773 132.613 83.8906 133.349 83.5173 134C83.1546 134.651 82.6479 135.163 81.9973 135.536C81.3466 135.899 80.6159 136.08 79.8053 136.08ZM79.8053 135.072C80.4026 135.072 80.9359 134.939 81.4053 134.672C81.8853 134.395 82.2586 134.005 82.5253 133.504C82.7919 133.003 82.9253 132.432 82.9253 131.792C82.9253 131.152 82.7919 130.581 82.5253 130.08C82.2586 129.579 81.8853 129.195 81.4053 128.928C80.9359 128.651 80.4026 128.512 79.8053 128.512C79.2079 128.512 78.6693 128.651 78.1893 128.928C77.7199 129.195 77.3466 129.579 77.0693 130.08C76.8026 130.581 76.6693 131.152 76.6693 131.792C76.6693 132.432 76.8026 133.003 77.0693 133.504C77.3466 134.005 77.7199 134.395 78.1893 134.672C78.6693 134.939 79.2079 135.072 79.8053 135.072ZM90.6845 127.52C91.7405 127.52 92.5778 127.829 93.1965 128.448C93.8258 129.056 94.1405 129.947 94.1405 131.12V136H93.0045V131.232C93.0045 130.357 92.7858 129.691 92.3485 129.232C91.9112 128.773 91.2872 128.544 90.4765 128.544C89.5698 128.544 88.8498 128.816 88.3165 129.36C87.7938 129.893 87.5325 130.635 87.5325 131.584V136H86.3965V127.584H87.4845V129.136C87.7938 128.624 88.2205 128.229 88.7645 127.952C89.3192 127.664 89.9592 127.52 90.6845 127.52ZM101.657 135.488C101.443 135.68 101.177 135.829 100.857 135.936C100.547 136.032 100.222 136.08 99.8806 136.08C99.0913 136.08 98.4833 135.867 98.0566 135.44C97.63 135.013 97.4166 134.411 97.4166 133.632V128.544H95.9126V127.584H97.4166V125.744H98.5526V127.584H101.113V128.544H98.5526V133.568C98.5526 134.069 98.6753 134.453 98.9206 134.72C99.1766 134.976 99.5393 135.104 100.009 135.104C100.243 135.104 100.467 135.067 100.681 134.992C100.905 134.917 101.097 134.811 101.257 134.672L101.657 135.488ZM104.813 129.232C105.079 128.667 105.474 128.24 105.997 127.952C106.53 127.664 107.186 127.52 107.965 127.52V128.624L107.693 128.608C106.807 128.608 106.114 128.88 105.613 129.424C105.111 129.968 104.861 130.731 104.861 131.712V136H103.725V127.584H104.813V129.232ZM112.95 127.52C114.049 127.52 114.891 127.797 115.478 128.352C116.065 128.896 116.358 129.707 116.358 130.784V136H115.27V134.688C115.014 135.125 114.635 135.467 114.134 135.712C113.643 135.957 113.057 136.08 112.374 136.08C111.435 136.08 110.689 135.856 110.134 135.408C109.579 134.96 109.302 134.368 109.302 133.632C109.302 132.917 109.558 132.341 110.07 131.904C110.593 131.467 111.419 131.248 112.55 131.248H115.222V130.736C115.222 130.011 115.019 129.461 114.614 129.088C114.209 128.704 113.617 128.512 112.838 128.512C112.305 128.512 111.793 128.603 111.302 128.784C110.811 128.955 110.39 129.195 110.038 129.504L109.526 128.656C109.953 128.293 110.465 128.016 111.062 127.824C111.659 127.621 112.289 127.52 112.95 127.52ZM112.55 135.184C113.19 135.184 113.739 135.04 114.198 134.752C114.657 134.453 114.998 134.027 115.222 133.472V132.096H112.582C111.142 132.096 110.422 132.597 110.422 133.6C110.422 134.091 110.609 134.48 110.982 134.768C111.355 135.045 111.878 135.184 112.55 135.184ZM130.959 132.144H123.919C123.983 133.019 124.319 133.728 124.927 134.272C125.535 134.805 126.303 135.072 127.231 135.072C127.754 135.072 128.234 134.981 128.671 134.8C129.108 134.608 129.487 134.331 129.807 133.968L130.447 134.704C130.074 135.152 129.604 135.493 129.039 135.728C128.484 135.963 127.871 136.08 127.199 136.08C126.335 136.08 125.567 135.899 124.895 135.536C124.234 135.163 123.716 134.651 123.343 134C122.97 133.349 122.783 132.613 122.783 131.792C122.783 130.971 122.959 130.235 123.311 129.584C123.674 128.933 124.164 128.427 124.783 128.064C125.412 127.701 126.116 127.52 126.895 127.52C127.674 127.52 128.372 127.701 128.991 128.064C129.61 128.427 130.095 128.933 130.447 129.584C130.799 130.224 130.975 130.96 130.975 131.792L130.959 132.144ZM126.895 128.496C126.084 128.496 125.402 128.757 124.847 129.28C124.303 129.792 123.994 130.464 123.919 131.296H129.887C129.812 130.464 129.498 129.792 128.943 129.28C128.399 128.757 127.716 128.496 126.895 128.496ZM137.575 127.52C138.631 127.52 139.468 127.829 140.087 128.448C140.716 129.056 141.031 129.947 141.031 131.12V136H139.895V131.232C139.895 130.357 139.676 129.691 139.239 129.232C138.802 128.773 138.178 128.544 137.367 128.544C136.46 128.544 135.74 128.816 135.207 129.36C134.684 129.893 134.423 130.635 134.423 131.584V136H133.287V127.584H134.375V129.136C134.684 128.624 135.111 128.229 135.655 127.952C136.21 127.664 136.85 127.52 137.575 127.52ZM148.547 135.488C148.334 135.68 148.067 135.829 147.747 135.936C147.438 136.032 147.113 136.08 146.771 136.08C145.982 136.08 145.374 135.867 144.947 135.44C144.521 135.013 144.307 134.411 144.307 133.632V128.544H142.803V127.584H144.307V125.744H145.443V127.584H148.003V128.544H145.443V133.568C145.443 134.069 145.566 134.453 145.811 134.72C146.067 134.976 146.43 135.104 146.899 135.104C147.134 135.104 147.358 135.067 147.571 134.992C147.795 134.917 147.987 134.811 148.147 134.672L148.547 135.488ZM151.703 129.232C151.97 128.667 152.365 128.24 152.887 127.952C153.421 127.664 154.077 127.52 154.855 127.52V128.624L154.583 128.608C153.698 128.608 153.005 128.88 152.503 129.424C152.002 129.968 151.751 130.731 151.751 131.712V136H150.615V127.584H151.703V129.232ZM164.162 132.144H157.122C157.186 133.019 157.522 133.728 158.13 134.272C158.738 134.805 159.506 135.072 160.434 135.072C160.957 135.072 161.437 134.981 161.874 134.8C162.311 134.608 162.69 134.331 163.01 133.968L163.65 134.704C163.277 135.152 162.807 135.493 162.242 135.728C161.687 135.963 161.074 136.08 160.402 136.08C159.538 136.08 158.77 135.899 158.098 135.536C157.437 135.163 156.919 134.651 156.546 134C156.173 133.349 155.986 132.613 155.986 131.792C155.986 130.971 156.162 130.235 156.514 129.584C156.877 128.933 157.367 128.427 157.986 128.064C158.615 127.701 159.319 127.52 160.098 127.52C160.877 127.52 161.575 127.701 162.194 128.064C162.813 128.427 163.298 128.933 163.65 129.584C164.002 130.224 164.178 130.96 164.178 131.792L164.162 132.144ZM160.098 128.496C159.287 128.496 158.605 128.757 158.05 129.28C157.506 129.792 157.197 130.464 157.122 131.296H163.09C163.015 130.464 162.701 129.792 162.146 129.28C161.602 128.757 160.919 128.496 160.098 128.496ZM174.282 127.584V134.976C174.282 136.405 173.93 137.461 173.226 138.144C172.533 138.837 171.482 139.184 170.074 139.184C169.296 139.184 168.554 139.067 167.85 138.832C167.157 138.608 166.592 138.293 166.154 137.888L166.73 137.024C167.136 137.387 167.626 137.669 168.202 137.872C168.789 138.075 169.402 138.176 170.042 138.176C171.109 138.176 171.893 137.925 172.394 137.424C172.896 136.933 173.146 136.165 173.146 135.12V134.048C172.794 134.581 172.33 134.987 171.754 135.264C171.189 135.541 170.56 135.68 169.866 135.68C169.077 135.68 168.357 135.509 167.706 135.168C167.066 134.816 166.56 134.331 166.186 133.712C165.824 133.083 165.642 132.373 165.642 131.584C165.642 130.795 165.824 130.091 166.186 129.472C166.56 128.853 167.066 128.373 167.706 128.032C168.346 127.691 169.066 127.52 169.866 127.52C170.581 127.52 171.226 127.664 171.802 127.952C172.378 128.24 172.842 128.656 173.194 129.2V127.584H174.282ZM169.978 134.672C170.586 134.672 171.136 134.544 171.626 134.288C172.117 134.021 172.496 133.653 172.762 133.184C173.04 132.715 173.178 132.181 173.178 131.584C173.178 130.987 173.04 130.459 172.762 130C172.496 129.531 172.117 129.168 171.626 128.912C171.146 128.645 170.597 128.512 169.978 128.512C169.37 128.512 168.821 128.64 168.33 128.896C167.85 129.152 167.472 129.515 167.194 129.984C166.928 130.453 166.794 130.987 166.794 131.584C166.794 132.181 166.928 132.715 167.194 133.184C167.472 133.653 167.85 134.021 168.33 134.288C168.821 134.544 169.37 134.672 169.978 134.672ZM180.403 127.52C181.502 127.52 182.344 127.797 182.931 128.352C183.518 128.896 183.811 129.707 183.811 130.784V136H182.723V134.688C182.467 135.125 182.088 135.467 181.587 135.712C181.096 135.957 180.51 136.08 179.827 136.08C178.888 136.08 178.142 135.856 177.587 135.408C177.032 134.96 176.755 134.368 176.755 133.632C176.755 132.917 177.011 132.341 177.523 131.904C178.046 131.467 178.872 131.248 180.003 131.248H182.675V130.736C182.675 130.011 182.472 129.461 182.067 129.088C181.662 128.704 181.07 128.512 180.291 128.512C179.758 128.512 179.246 128.603 178.755 128.784C178.264 128.955 177.843 129.195 177.491 129.504L176.979 128.656C177.406 128.293 177.918 128.016 178.515 127.824C179.112 127.621 179.742 127.52 180.403 127.52ZM180.003 135.184C180.643 135.184 181.192 135.04 181.651 134.752C182.11 134.453 182.451 134.027 182.675 133.472V132.096H180.035C178.595 132.096 177.875 132.597 177.875 133.6C177.875 134.091 178.062 134.48 178.435 134.768C178.808 135.045 179.331 135.184 180.003 135.184Z" fill="#828282"/>
<path d="M209.472 136L206.912 132.4C206.624 132.432 206.325 132.448 206.016 132.448H203.008V136H201.824V124.8H206.016C207.445 124.8 208.565 125.141 209.376 125.824C210.187 126.507 210.592 127.445 210.592 128.64C210.592 129.515 210.368 130.256 209.92 130.864C209.483 131.461 208.853 131.893 208.032 132.16L210.768 136H209.472ZM205.984 131.44C207.093 131.44 207.941 131.195 208.528 130.704C209.115 130.213 209.408 129.525 209.408 128.64C209.408 127.733 209.115 127.04 208.528 126.56C207.941 126.069 207.093 125.824 205.984 125.824H203.008V131.44H205.984ZM220.475 132.144H213.435C213.499 133.019 213.835 133.728 214.443 134.272C215.051 134.805 215.819 135.072 216.747 135.072C217.269 135.072 217.749 134.981 218.187 134.8C218.624 134.608 219.003 134.331 219.323 133.968L219.963 134.704C219.589 135.152 219.12 135.493 218.555 135.728C218 135.963 217.387 136.08 216.715 136.08C215.851 136.08 215.083 135.899 214.411 135.536C213.749 135.163 213.232 134.651 212.859 134C212.485 133.349 212.299 132.613 212.299 131.792C212.299 130.971 212.475 130.235 212.827 129.584C213.189 128.933 213.68 128.427 214.299 128.064C214.928 127.701 215.632 127.52 216.411 127.52C217.189 127.52 217.888 127.701 218.507 128.064C219.125 128.427 219.611 128.933 219.963 129.584C220.315 130.224 220.491 130.96 220.491 131.792L220.475 132.144ZM216.411 128.496C215.6 128.496 214.917 128.757 214.363 129.28C213.819 129.792 213.509 130.464 213.435 131.296H219.403C219.328 130.464 219.013 129.792 218.459 129.28C217.915 128.757 217.232 128.496 216.411 128.496ZM230.131 132.144H223.091C223.155 133.019 223.491 133.728 224.099 134.272C224.707 134.805 225.475 135.072 226.403 135.072C226.925 135.072 227.405 134.981 227.843 134.8C228.28 134.608 228.659 134.331 228.979 133.968L229.619 134.704C229.245 135.152 228.776 135.493 228.211 135.728C227.656 135.963 227.043 136.08 226.371 136.08C225.507 136.08 224.739 135.899 224.067 135.536C223.405 135.163 222.888 134.651 222.515 134C222.141 133.349 221.955 132.613 221.955 131.792C221.955 130.971 222.131 130.235 222.483 129.584C222.845 128.933 223.336 128.427 223.955 128.064C224.584 127.701 225.288 127.52 226.067 127.52C226.845 127.52 227.544 127.701 228.163 128.064C228.781 128.427 229.267 128.933 229.619 129.584C229.971 130.224 230.147 130.96 230.147 131.792L230.131 132.144ZM226.067 128.496C225.256 128.496 224.573 128.757 224.019 129.28C223.475 129.792 223.165 130.464 223.091 131.296H229.059C228.984 130.464 228.669 129.792 228.115 129.28C227.571 128.757 226.888 128.496 226.067 128.496ZM242.955 127.52C244.011 127.52 244.838 127.824 245.435 128.432C246.043 129.04 246.347 129.936 246.347 131.12V136H245.211V131.232C245.211 130.357 244.998 129.691 244.571 129.232C244.155 128.773 243.563 128.544 242.795 128.544C241.92 128.544 241.232 128.816 240.731 129.36C240.23 129.893 239.979 130.635 239.979 131.584V136H238.843V131.232C238.843 130.357 238.63 129.691 238.203 129.232C237.787 128.773 237.19 128.544 236.411 128.544C235.547 128.544 234.859 128.816 234.347 129.36C233.846 129.893 233.595 130.635 233.595 131.584V136H232.459V127.584H233.547V129.12C233.846 128.608 234.262 128.213 234.795 127.936C235.328 127.659 235.942 127.52 236.635 127.52C237.339 127.52 237.947 127.669 238.459 127.968C238.982 128.267 239.371 128.709 239.627 129.296C239.936 128.741 240.379 128.309 240.955 128C241.542 127.68 242.208 127.52 242.955 127.52ZM253.764 127.52C254.553 127.52 255.268 127.701 255.908 128.064C256.548 128.416 257.049 128.917 257.412 129.568C257.774 130.219 257.956 130.96 257.956 131.792C257.956 132.624 257.774 133.365 257.412 134.016C257.049 134.667 256.548 135.173 255.908 135.536C255.268 135.899 254.553 136.08 253.764 136.08C253.06 136.08 252.425 135.931 251.86 135.632C251.305 135.333 250.857 134.901 250.516 134.336V136H249.428V124.128H250.564V129.184C250.916 128.64 251.364 128.229 251.908 127.952C252.462 127.664 253.081 127.52 253.764 127.52ZM253.684 135.072C254.27 135.072 254.804 134.939 255.284 134.672C255.764 134.395 256.137 134.005 256.404 133.504C256.681 133.003 256.82 132.432 256.82 131.792C256.82 131.152 256.681 130.581 256.404 130.08C256.137 129.579 255.764 129.195 255.284 128.928C254.804 128.651 254.27 128.512 253.684 128.512C253.086 128.512 252.548 128.651 252.068 128.928C251.598 129.195 251.225 129.579 250.948 130.08C250.681 130.581 250.548 131.152 250.548 131.792C250.548 132.432 250.681 133.003 250.948 133.504C251.225 134.005 251.598 134.395 252.068 134.672C252.548 134.939 253.086 135.072 253.684 135.072ZM263.712 136.08C262.901 136.08 262.17 135.899 261.52 135.536C260.869 135.163 260.357 134.651 259.984 134C259.61 133.349 259.424 132.613 259.424 131.792C259.424 130.971 259.61 130.235 259.984 129.584C260.357 128.933 260.869 128.427 261.52 128.064C262.17 127.701 262.901 127.52 263.712 127.52C264.522 127.52 265.253 127.701 265.904 128.064C266.554 128.427 267.061 128.933 267.424 129.584C267.797 130.235 267.984 130.971 267.984 131.792C267.984 132.613 267.797 133.349 267.424 134C267.061 134.651 266.554 135.163 265.904 135.536C265.253 135.899 264.522 136.08 263.712 136.08ZM263.712 135.072C264.309 135.072 264.842 134.939 265.312 134.672C265.792 134.395 266.165 134.005 266.432 133.504C266.698 133.003 266.832 132.432 266.832 131.792C266.832 131.152 266.698 130.581 266.432 130.08C266.165 129.579 265.792 129.195 265.312 128.928C264.842 128.651 264.309 128.512 263.712 128.512C263.114 128.512 262.576 128.651 262.096 128.928C261.626 129.195 261.253 129.579 260.976 130.08C260.709 130.581 260.576 131.152 260.576 131.792C260.576 132.432 260.709 133.003 260.976 133.504C261.253 134.005 261.626 134.395 262.096 134.672C262.576 134.939 263.114 135.072 263.712 135.072ZM270.303 124.128H271.439V136H270.303V124.128ZM276.856 136.08C276.173 136.08 275.517 135.984 274.888 135.792C274.269 135.589 273.784 135.339 273.432 135.04L273.944 134.144C274.296 134.421 274.738 134.651 275.272 134.832C275.805 135.003 276.36 135.088 276.936 135.088C277.704 135.088 278.269 134.971 278.632 134.736C279.005 134.491 279.192 134.149 279.192 133.712C279.192 133.403 279.09 133.163 278.888 132.992C278.685 132.811 278.429 132.677 278.12 132.592C277.81 132.496 277.4 132.405 276.888 132.32C276.205 132.192 275.656 132.064 275.24 131.936C274.824 131.797 274.466 131.568 274.168 131.248C273.88 130.928 273.736 130.485 273.736 129.92C273.736 129.216 274.029 128.64 274.616 128.192C275.202 127.744 276.018 127.52 277.064 127.52C277.608 127.52 278.152 127.595 278.696 127.744C279.24 127.883 279.688 128.069 280.04 128.304L279.544 129.216C278.85 128.736 278.024 128.496 277.064 128.496C276.338 128.496 275.789 128.624 275.416 128.88C275.053 129.136 274.872 129.472 274.872 129.888C274.872 130.208 274.973 130.464 275.176 130.656C275.389 130.848 275.65 130.992 275.96 131.088C276.269 131.173 276.696 131.264 277.24 131.36C277.912 131.488 278.45 131.616 278.856 131.744C279.261 131.872 279.608 132.091 279.896 132.4C280.184 132.709 280.328 133.136 280.328 133.68C280.328 134.416 280.018 135.003 279.4 135.44C278.792 135.867 277.944 136.08 276.856 136.08ZM285.868 136.08C285.057 136.08 284.326 135.899 283.676 135.536C283.025 135.163 282.513 134.651 282.14 134C281.766 133.349 281.58 132.613 281.58 131.792C281.58 130.971 281.766 130.235 282.14 129.584C282.513 128.933 283.025 128.427 283.676 128.064C284.326 127.701 285.057 127.52 285.868 127.52C286.678 127.52 287.409 127.701 288.06 128.064C288.71 128.427 289.217 128.933 289.58 129.584C289.953 130.235 290.14 130.971 290.14 131.792C290.14 132.613 289.953 133.349 289.58 134C289.217 134.651 288.71 135.163 288.06 135.536C287.409 135.899 286.678 136.08 285.868 136.08ZM285.868 135.072C286.465 135.072 286.998 134.939 287.468 134.672C287.948 134.395 288.321 134.005 288.588 133.504C288.854 133.003 288.988 132.432 288.988 131.792C288.988 131.152 288.854 130.581 288.588 130.08C288.321 129.579 287.948 129.195 287.468 128.928C286.998 128.651 286.465 128.512 285.868 128.512C285.27 128.512 284.732 128.651 284.252 128.928C283.782 129.195 283.409 129.579 283.132 130.08C282.865 130.581 282.732 131.152 282.732 131.792C282.732 132.432 282.865 133.003 283.132 133.504C283.409 134.005 283.782 134.395 284.252 134.672C284.732 134.939 285.27 135.072 285.868 135.072ZM294.715 136.08C294.032 136.08 293.376 135.984 292.747 135.792C292.128 135.589 291.643 135.339 291.291 135.04L291.803 134.144C292.155 134.421 292.598 134.651 293.131 134.832C293.664 135.003 294.219 135.088 294.795 135.088C295.563 135.088 296.128 134.971 296.491 134.736C296.864 134.491 297.051 134.149 297.051 133.712C297.051 133.403 296.95 133.163 296.747 132.992C296.544 132.811 296.288 132.677 295.979 132.592C295.67 132.496 295.259 132.405 294.747 132.32C294.064 132.192 293.515 132.064 293.099 131.936C292.683 131.797 292.326 131.568 292.027 131.248C291.739 130.928 291.595 130.485 291.595 129.92C291.595 129.216 291.888 128.64 292.475 128.192C293.062 127.744 293.878 127.52 294.923 127.52C295.467 127.52 296.011 127.595 296.555 127.744C297.099 127.883 297.547 128.069 297.899 128.304L297.403 129.216C296.71 128.736 295.883 128.496 294.923 128.496C294.198 128.496 293.648 128.624 293.275 128.88C292.912 129.136 292.731 129.472 292.731 129.888C292.731 130.208 292.832 130.464 293.035 130.656C293.248 130.848 293.51 130.992 293.819 131.088C294.128 131.173 294.555 131.264 295.099 131.36C295.771 131.488 296.31 131.616 296.715 131.744C297.12 131.872 297.467 132.091 297.755 132.4C298.043 132.709 298.187 133.136 298.187 133.68C298.187 134.416 297.878 135.003 297.259 135.44C296.651 135.867 295.803 136.08 294.715 136.08Z" fill="#828282"/>
<mask id="path-15-inside-1" fill="white">
<path d="M91.6483 53.7345C91.9677 53.4106 92.0799 52.9356 91.9421 52.4949C91.8043 52.0541 91.4448 51.7388 91.0041 51.6723L88.3946 51.2771C88.3134 51.2648 88.2431 51.2116 88.2075 51.1356L87.0415 48.6735C86.8444 48.2584 86.4447 48 85.9995 48C85.5542 48 85.1555 48.2584 84.9584 48.6735L83.7914 51.1356C83.7549 51.2116 83.6855 51.2648 83.6043 51.2771L80.9957 51.6723C80.555 51.7388 80.1955 52.0541 80.0577 52.4949C79.9199 52.9356 80.0331 53.4106 80.3515 53.7345L82.2393 55.6504C82.2977 55.7103 82.3251 55.7958 82.3114 55.8803L81.8662 58.5856C81.7904 59.0425 81.9683 59.4956 82.3278 59.7682C82.5313 59.9221 82.7695 60 83.0094 60C83.1937 60 83.3799 59.9535 83.5514 59.8594L85.8854 58.5818C85.9575 58.5419 86.0442 58.5419 86.1172 58.5818L88.4512 59.8594C88.8453 60.075 89.3143 60.0399 89.6747 59.7673C90.0351 59.4947 90.2122 59.0416 90.1364 58.5847L89.6912 55.8794C89.6775 55.7948 89.7039 55.7093 89.7632 55.6495L91.6483 53.7345Z"/>
</mask>
<path d="M91.6483 53.7345C91.9677 53.4106 92.0799 52.9356 91.9421 52.4949C91.8043 52.0541 91.4448 51.7388 91.0041 51.6723L88.3946 51.2771C88.3134 51.2648 88.2431 51.2116 88.2075 51.1356L87.0415 48.6735C86.8444 48.2584 86.4447 48 85.9995 48C85.5542 48 85.1555 48.2584 84.9584 48.6735L83.7914 51.1356C83.7549 51.2116 83.6855 51.2648 83.6043 51.2771L80.9957 51.6723C80.555 51.7388 80.1955 52.0541 80.0577 52.4949C79.9199 52.9356 80.0331 53.4106 80.3515 53.7345L82.2393 55.6504C82.2977 55.7103 82.3251 55.7958 82.3114 55.8803L81.8662 58.5856C81.7904 59.0425 81.9683 59.4956 82.3278 59.7682C82.5313 59.9221 82.7695 60 83.0094 60C83.1937 60 83.3799 59.9535 83.5514 59.8594L85.8854 58.5818C85.9575 58.5419 86.0442 58.5419 86.1172 58.5818L88.4512 59.8594C88.8453 60.075 89.3143 60.0399 89.6747 59.7673C90.0351 59.4947 90.2122 59.0416 90.1364 58.5847L89.6912 55.8794C89.6775 55.7948 89.7039 55.7093 89.7632 55.6495L91.6483 53.7345Z" fill="#EDCA71" stroke="#EDCA71" stroke-width="2" mask="url(#path-15-inside-1)"/>
<mask id="path-16-inside-2" fill="white">
<path d="M125.648 53.7345C125.968 53.4106 126.08 52.9356 125.942 52.4949C125.804 52.0541 125.445 51.7388 125.004 51.6723L122.395 51.2771C122.313 51.2648 122.243 51.2116 122.208 51.1356L121.041 48.6735C120.844 48.2584 120.445 48 119.999 48C119.554 48 119.155 48.2584 118.958 48.6735L117.791 51.1356C117.755 51.2116 117.686 51.2648 117.604 51.2771L114.996 51.6723C114.555 51.7388 114.195 52.0541 114.058 52.4949C113.92 52.9356 114.033 53.4106 114.352 53.7345L116.239 55.6504C116.298 55.7103 116.325 55.7958 116.311 55.8803L115.866 58.5856C115.79 59.0425 115.968 59.4956 116.328 59.7682C116.531 59.9221 116.769 60 117.009 60C117.194 60 117.38 59.9535 117.551 59.8594L119.885 58.5818C119.957 58.5419 120.044 58.5419 120.117 58.5818L122.451 59.8594C122.845 60.075 123.314 60.0399 123.675 59.7673C124.035 59.4947 124.212 59.0416 124.136 58.5847L123.691 55.8794C123.677 55.7948 123.704 55.7093 123.763 55.6495L125.648 53.7345Z"/>
</mask>
<path d="M125.648 53.7345C125.968 53.4106 126.08 52.9356 125.942 52.4949C125.804 52.0541 125.445 51.7388 125.004 51.6723L122.395 51.2771C122.313 51.2648 122.243 51.2116 122.208 51.1356L121.041 48.6735C120.844 48.2584 120.445 48 119.999 48C119.554 48 119.155 48.2584 118.958 48.6735L117.791 51.1356C117.755 51.2116 117.686 51.2648 117.604 51.2771L114.996 51.6723C114.555 51.7388 114.195 52.0541 114.058 52.4949C113.92 52.9356 114.033 53.4106 114.352 53.7345L116.239 55.6504C116.298 55.7103 116.325 55.7958 116.311 55.8803L115.866 58.5856C115.79 59.0425 115.968 59.4956 116.328 59.7682C116.531 59.9221 116.769 60 117.009 60C117.194 60 117.38 59.9535 117.551 59.8594L119.885 58.5818C119.957 58.5419 120.044 58.5419 120.117 58.5818L122.451 59.8594C122.845 60.075 123.314 60.0399 123.675 59.7673C124.035 59.4947 124.212 59.0416 124.136 58.5847L123.691 55.8794C123.677 55.7948 123.704 55.7093 123.763 55.6495L125.648 53.7345Z" stroke="#EDCA71" stroke-width="4" mask="url(#path-16-inside-2)"/>
<mask id="path-17-inside-3" fill="white">
<path d="M108.648 53.7345C108.968 53.4106 109.08 52.9356 108.942 52.4949C108.804 52.0541 108.445 51.7388 108.004 51.6723L105.395 51.2771C105.313 51.2648 105.243 51.2116 105.208 51.1356L104.041 48.6735C103.844 48.2584 103.445 48 102.999 48C102.554 48 102.155 48.2584 101.958 48.6735L100.791 51.1356C100.755 51.2116 100.686 51.2648 100.604 51.2771L97.9957 51.6723C97.555 51.7388 97.1955 52.0541 97.0577 52.4949C96.9199 52.9356 97.0331 53.4106 97.3515 53.7345L99.2393 55.6504C99.2977 55.7103 99.3251 55.7958 99.3114 55.8803L98.8662 58.5856C98.7904 59.0425 98.9683 59.4956 99.3278 59.7682C99.5313 59.9221 99.7695 60 100.009 60C100.194 60 100.38 59.9535 100.551 59.8594L102.885 58.5818C102.957 58.5419 103.044 58.5419 103.117 58.5818L105.451 59.8594C105.845 60.075 106.314 60.0399 106.675 59.7673C107.035 59.4947 107.212 59.0416 107.136 58.5847L106.691 55.8794C106.677 55.7948 106.704 55.7093 106.763 55.6495L108.648 53.7345Z"/>
</mask>
<path d="M108.648 53.7345C108.968 53.4106 109.08 52.9356 108.942 52.4949C108.804 52.0541 108.445 51.7388 108.004 51.6723L105.395 51.2771C105.313 51.2648 105.243 51.2116 105.208 51.1356L104.041 48.6735C103.844 48.2584 103.445 48 102.999 48C102.554 48 102.155 48.2584 101.958 48.6735L100.791 51.1356C100.755 51.2116 100.686 51.2648 100.604 51.2771L97.9957 51.6723C97.555 51.7388 97.1955 52.0541 97.0577 52.4949C96.9199 52.9356 97.0331 53.4106 97.3515 53.7345L99.2393 55.6504C99.2977 55.7103 99.3251 55.7958 99.3114 55.8803L98.8662 58.5856C98.7904 59.0425 98.9683 59.4956 99.3278 59.7682C99.5313 59.9221 99.7695 60 100.009 60C100.194 60 100.38 59.9535 100.551 59.8594L102.885 58.5818C102.957 58.5419 103.044 58.5419 103.117 58.5818L105.451 59.8594C105.845 60.075 106.314 60.0399 106.675 59.7673C107.035 59.4947 107.212 59.0416 107.136 58.5847L106.691 55.8794C106.677 55.7948 106.704 55.7093 106.763 55.6495L108.648 53.7345Z" fill="#EDCA71" stroke="#EDCA71" stroke-width="2" mask="url(#path-17-inside-3)"/>
<mask id="path-18-inside-4" fill="white">
<path d="M142.648 53.7345C142.968 53.4106 143.08 52.9356 142.942 52.4949C142.804 52.0541 142.445 51.7388 142.004 51.6723L139.395 51.2771C139.313 51.2648 139.243 51.2116 139.208 51.1356L138.041 48.6735C137.844 48.2584 137.445 48 136.999 48C136.554 48 136.155 48.2584 135.958 48.6735L134.791 51.1356C134.755 51.2116 134.686 51.2648 134.604 51.2771L131.996 51.6723C131.555 51.7388 131.195 52.0541 131.058 52.4949C130.92 52.9356 131.033 53.4106 131.352 53.7345L133.239 55.6504C133.298 55.7103 133.325 55.7958 133.311 55.8803L132.866 58.5856C132.79 59.0425 132.968 59.4956 133.328 59.7682C133.531 59.9221 133.769 60 134.009 60C134.194 60 134.38 59.9535 134.551 59.8594L136.885 58.5818C136.957 58.5419 137.044 58.5419 137.117 58.5818L139.451 59.8594C139.845 60.075 140.314 60.0399 140.675 59.7673C141.035 59.4947 141.212 59.0416 141.136 58.5847L140.691 55.8794C140.677 55.7948 140.704 55.7093 140.763 55.6495L142.648 53.7345Z"/>
</mask>
<path d="M142.648 53.7345C142.968 53.4106 143.08 52.9356 142.942 52.4949C142.804 52.0541 142.445 51.7388 142.004 51.6723L139.395 51.2771C139.313 51.2648 139.243 51.2116 139.208 51.1356L138.041 48.6735C137.844 48.2584 137.445 48 136.999 48C136.554 48 136.155 48.2584 135.958 48.6735L134.791 51.1356C134.755 51.2116 134.686 51.2648 134.604 51.2771L131.996 51.6723C131.555 51.7388 131.195 52.0541 131.058 52.4949C130.92 52.9356 131.033 53.4106 131.352 53.7345L133.239 55.6504C133.298 55.7103 133.325 55.7958 133.311 55.8803L132.866 58.5856C132.79 59.0425 132.968 59.4956 133.328 59.7682C133.531 59.9221 133.769 60 134.009 60C134.194 60 134.38 59.9535 134.551 59.8594L136.885 58.5818C136.957 58.5419 137.044 58.5419 137.117 58.5818L139.451 59.8594C139.845 60.075 140.314 60.0399 140.675 59.7673C141.035 59.4947 141.212 59.0416 141.136 58.5847L140.691 55.8794C140.677 55.7948 140.704 55.7093 140.763 55.6495L142.648 53.7345Z" stroke="#EDCA71" stroke-width="4" mask="url(#path-18-inside-4)"/>
<mask id="path-19-inside-5" fill="white">
<path d="M159.648 53.7345C159.968 53.4106 160.08 52.9356 159.942 52.4949C159.804 52.0541 159.445 51.7388 159.004 51.6723L156.395 51.2771C156.313 51.2648 156.243 51.2116 156.208 51.1356L155.041 48.6735C154.844 48.2584 154.445 48 153.999 48C153.554 48 153.155 48.2584 152.958 48.6735L151.791 51.1356C151.755 51.2116 151.686 51.2648 151.604 51.2771L148.996 51.6723C148.555 51.7388 148.195 52.0541 148.058 52.4949C147.92 52.9356 148.033 53.4106 148.352 53.7345L150.239 55.6504C150.298 55.7103 150.325 55.7958 150.311 55.8803L149.866 58.5856C149.79 59.0425 149.968 59.4956 150.328 59.7682C150.531 59.9221 150.769 60 151.009 60C151.194 60 151.38 59.9535 151.551 59.8594L153.885 58.5818C153.957 58.5419 154.044 58.5419 154.117 58.5818L156.451 59.8594C156.845 60.075 157.314 60.0399 157.675 59.7673C158.035 59.4947 158.212 59.0416 158.136 58.5847L157.691 55.8794C157.677 55.7948 157.704 55.7093 157.763 55.6495L159.648 53.7345Z"/>
</mask>
<path d="M159.648 53.7345C159.968 53.4106 160.08 52.9356 159.942 52.4949C159.804 52.0541 159.445 51.7388 159.004 51.6723L156.395 51.2771C156.313 51.2648 156.243 51.2116 156.208 51.1356L155.041 48.6735C154.844 48.2584 154.445 48 153.999 48C153.554 48 153.155 48.2584 152.958 48.6735L151.791 51.1356C151.755 51.2116 151.686 51.2648 151.604 51.2771L148.996 51.6723C148.555 51.7388 148.195 52.0541 148.058 52.4949C147.92 52.9356 148.033 53.4106 148.352 53.7345L150.239 55.6504C150.298 55.7103 150.325 55.7958 150.311 55.8803L149.866 58.5856C149.79 59.0425 149.968 59.4956 150.328 59.7682C150.531 59.9221 150.769 60 151.009 60C151.194 60 151.38 59.9535 151.551 59.8594L153.885 58.5818C153.957 58.5419 154.044 58.5419 154.117 58.5818L156.451 59.8594C156.845 60.075 157.314 60.0399 157.675 59.7673C158.035 59.4947 158.212 59.0416 158.136 58.5847L157.691 55.8794C157.677 55.7948 157.704 55.7093 157.763 55.6495L159.648 53.7345Z" stroke="#EDCA71" stroke-width="4" mask="url(#path-19-inside-5)"/>
</svg>
