<svg width="380" height="380" viewBox="0 0 380 380" fill="none" xmlns="http://www.w3.org/2000/svg">
<path d="M20.0003 375C11.716 375 5.00027 368.284 5.00027 360L5.00026 20C5.00026 11.7157 11.716 5 20.0003 5L373 4.99998C374.105 4.99998 375 5.8954 375 6.99998L375 360C375 368.284 368.285 375 360 375L20.0003 375Z" fill="#4F4F4F" stroke="#333333" stroke-width="10"/>
<path d="M5.00024 190L375 190L375 98.0002L5.00023 98.0002L5.00024 190Z" stroke="#333333" stroke-width="10"/>
<path d="M5.00024 282L375 282L375 190L5.00023 190L5.00024 282Z" stroke="#333333" stroke-width="10"/>
<path d="M190 5.00024L190 375L282 375L282 5.00024L190 5.00024Z" stroke="#333333" stroke-width="10"/>
<path d="M98.0004 5.00024L98.0004 375L190 375L190 5.00024L98.0004 5.00024Z" stroke="#333333" stroke-width="10"/>
<path d="M375 5.00029L20.0002 5.00028C11.716 5.00027 5.00024 11.716 5.00024 20.0003L5.00024 360C5.00024 368.285 11.716 375 20.0002 375L360 375C368.285 375 375 368.284 375 360L375 113C375 104.716 368.285 98 360 98L200 98C194.477 98 190 102.477 190 108L190 190.5" stroke="#E0E0E0" stroke-width="10" stroke-linecap="round"/>
<path d="M282 190L282 267C282 275.284 275.285 282 267 282L113 282C104.716 282 98.0002 275.284 98.0002 267L98.0002 6.00001" stroke="#E0E0E0" stroke-width="10" stroke-linecap="round"/>
</svg>
