<svg width="380" height="380" viewBox="0 0 380 380" fill="none" xmlns="http://www.w3.org/2000/svg">
<path d="M360 5C368.284 5 375 11.7157 375 20L375 360C375 368.284 368.284 375 360 375L19 375C11.268 375 4.99998 368.732 4.99998 361L5 20C5 11.7157 11.7157 4.99998 20 4.99998L360 5Z" fill="#4F4F4F" stroke="#333333" stroke-width="10"/>
<path d="M253 375L253 5L128 4.99999L128 375L253 375Z" stroke="#333333" stroke-width="10"/>
<path d="M375 127H5V238C5 246.284 11.7157 253 20 253H375V127Z" stroke="#333333" stroke-width="10"/>
<path d="M375 4.99982H20C11.7157 4.99982 5 11.7155 5 19.9998V360C5 368.284 11.7157 375 20 375H360C368.284 375 375 368.284 375 360V142.5C375 134.216 368.284 127.5 360 127.5L137 127.5C131.477 127.5 127 131.977 127 137.5L127 244C127 249.523 131.477 254 137 254H252.5" stroke="#E0E0E0" stroke-width="10" stroke-linecap="round"/>
</svg>
