<svg width="280" height="80" viewBox="0 0 280 80" fill="none" xmlns="http://www.w3.org/2000/svg">
<rect width="280" height="80" rx="20" fill="#69E485"/>
<path d="M67.4614 46.192C66.3201 46.192 65.2854 45.9467 64.3574 45.456C63.4401 44.9547 62.7148 44.2667 62.1814 43.392C61.6588 42.5067 61.3974 41.5093 61.3974 40.4C61.3974 39.2907 61.6588 38.2987 62.1814 37.424C62.7148 36.5387 63.4401 35.8507 64.3574 35.36C65.2854 34.8587 66.3254 34.608 67.4774 34.608C68.4481 34.608 69.3228 34.7787 70.1014 35.12C70.8908 35.4613 71.5521 35.952 72.0854 36.592L70.4214 38.128C69.6641 37.2533 68.7254 36.816 67.6054 36.816C66.9121 36.816 66.2934 36.9707 65.7494 37.28C65.2054 37.5787 64.7788 38 64.4694 38.544C64.1708 39.088 64.0214 39.7067 64.0214 40.4C64.0214 41.0933 64.1708 41.712 64.4694 42.256C64.7788 42.8 65.2054 43.2267 65.7494 43.536C66.2934 43.8347 66.9121 43.984 67.6054 43.984C68.7254 43.984 69.6641 43.5413 70.4214 42.656L72.0854 44.192C71.5521 44.8427 70.8908 45.3387 70.1014 45.68C69.3121 46.0213 68.4321 46.192 67.4614 46.192ZM77.4589 46.128C76.5523 46.128 75.7363 45.9413 75.0109 45.568C74.2963 45.184 73.7363 44.656 73.3309 43.984C72.9256 43.312 72.7229 42.5493 72.7229 41.696C72.7229 40.8427 72.9256 40.08 73.3309 39.408C73.7363 38.736 74.2963 38.2133 75.0109 37.84C75.7363 37.456 76.5523 37.264 77.4589 37.264C78.3656 37.264 79.1763 37.456 79.8909 37.84C80.6056 38.2133 81.1656 38.736 81.5709 39.408C81.9763 40.08 82.1789 40.8427 82.1789 41.696C82.1789 42.5493 81.9763 43.312 81.5709 43.984C81.1656 44.656 80.6056 45.184 79.8909 45.568C79.1763 45.9413 78.3656 46.128 77.4589 46.128ZM77.4589 44.08C78.0989 44.08 78.6216 43.8667 79.0269 43.44C79.4429 43.0027 79.6509 42.4213 79.6509 41.696C79.6509 40.9707 79.4429 40.3947 79.0269 39.968C78.6216 39.5307 78.0989 39.312 77.4589 39.312C76.8189 39.312 76.2909 39.5307 75.8749 39.968C75.4589 40.3947 75.2509 40.9707 75.2509 41.696C75.2509 42.4213 75.4589 43.0027 75.8749 43.44C76.2909 43.8667 76.8189 44.08 77.4589 44.08ZM89.0793 37.264C90.146 37.264 91.0046 37.584 91.6553 38.224C92.3166 38.864 92.6473 39.8133 92.6473 41.072V46H90.1513V41.456C90.1513 40.7733 90.002 40.2667 89.7033 39.936C89.4046 39.5947 88.9726 39.424 88.4073 39.424C87.778 39.424 87.2766 39.6213 86.9033 40.016C86.53 40.4 86.3433 40.976 86.3433 41.744V46H83.8473V37.392H86.2313V38.4C86.562 38.0373 86.9726 37.76 87.4633 37.568C87.954 37.3653 88.4926 37.264 89.0793 37.264ZM103.436 41.728C103.436 41.76 103.42 41.984 103.388 42.4H96.8756C96.9929 42.9333 97.2702 43.3547 97.7076 43.664C98.1449 43.9733 98.6889 44.128 99.3396 44.128C99.7876 44.128 100.182 44.064 100.524 43.936C100.876 43.7973 101.201 43.584 101.5 43.296L102.828 44.736C102.017 45.664 100.833 46.128 99.2756 46.128C98.3049 46.128 97.4462 45.9413 96.6996 45.568C95.9529 45.184 95.3769 44.656 94.9716 43.984C94.5662 43.312 94.3636 42.5493 94.3636 41.696C94.3636 40.8533 94.5609 40.096 94.9556 39.424C95.3609 38.7413 95.9102 38.2133 96.6036 37.84C97.3076 37.456 98.0916 37.264 98.9556 37.264C99.7982 37.264 100.561 37.4453 101.244 37.808C101.926 38.1707 102.46 38.6933 102.844 39.376C103.238 40.048 103.436 40.832 103.436 41.728ZM98.9716 39.152C98.4062 39.152 97.9316 39.312 97.5476 39.632C97.1636 39.952 96.9289 40.3893 96.8436 40.944H101.084C100.998 40.4 100.764 39.968 100.38 39.648C99.9956 39.3173 99.5262 39.152 98.9716 39.152ZM109.257 46.128C108.34 46.128 107.513 45.9413 106.777 45.568C106.052 45.184 105.481 44.656 105.065 43.984C104.66 43.312 104.457 42.5493 104.457 41.696C104.457 40.8427 104.66 40.08 105.065 39.408C105.481 38.736 106.052 38.2133 106.777 37.84C107.513 37.456 108.34 37.264 109.257 37.264C110.164 37.264 110.953 37.456 111.625 37.84C112.308 38.2133 112.804 38.752 113.113 39.456L111.177 40.496C110.729 39.7067 110.084 39.312 109.241 39.312C108.591 39.312 108.052 39.5253 107.625 39.952C107.199 40.3787 106.985 40.96 106.985 41.696C106.985 42.432 107.199 43.0133 107.625 43.44C108.052 43.8667 108.591 44.08 109.241 44.08C110.095 44.08 110.74 43.6853 111.177 42.896L113.113 43.952C112.804 44.6347 112.308 45.168 111.625 45.552C110.953 45.936 110.164 46.128 109.257 46.128ZM120.227 45.584C119.982 45.7653 119.678 45.904 119.315 46C118.963 46.0853 118.59 46.128 118.195 46.128C117.171 46.128 116.377 45.8667 115.811 45.344C115.257 44.8213 114.979 44.0533 114.979 43.04V39.504H113.651V37.584H114.979V35.488H117.475V37.584H119.619V39.504H117.475V43.008C117.475 43.3707 117.566 43.6533 117.747 43.856C117.939 44.048 118.206 44.144 118.547 44.144C118.942 44.144 119.278 44.0373 119.555 43.824L120.227 45.584ZM125.101 37.264C126.434 37.264 127.458 37.584 128.173 38.224C128.887 38.8533 129.245 39.808 129.245 41.088V46H126.909V44.928C126.439 45.728 125.565 46.128 124.285 46.128C123.623 46.128 123.047 46.016 122.557 45.792C122.077 45.568 121.709 45.2587 121.453 44.864C121.197 44.4693 121.069 44.0213 121.069 43.52C121.069 42.72 121.367 42.0907 121.965 41.632C122.573 41.1733 123.506 40.944 124.765 40.944H126.749C126.749 40.4 126.583 39.984 126.253 39.696C125.922 39.3973 125.426 39.248 124.765 39.248C124.306 39.248 123.853 39.3227 123.405 39.472C122.967 39.6107 122.594 39.8027 122.285 40.048L121.389 38.304C121.858 37.9733 122.418 37.7173 123.069 37.536C123.73 37.3547 124.407 37.264 125.101 37.264ZM124.909 44.448C125.335 44.448 125.714 44.352 126.045 44.16C126.375 43.9573 126.61 43.664 126.749 43.28V42.4H125.037C124.013 42.4 123.501 42.736 123.501 43.408C123.501 43.728 123.623 43.984 123.869 44.176C124.125 44.3573 124.471 44.448 124.909 44.448ZM133.888 38.528C134.186 38.112 134.586 37.7973 135.088 37.584C135.6 37.3707 136.186 37.264 136.848 37.264V39.568C136.57 39.5467 136.384 39.536 136.288 39.536C135.573 39.536 135.013 39.7387 134.608 40.144C134.202 40.5387 134 41.136 134 41.936V46H131.504V37.392H133.888V38.528ZM146.397 37.264C147.731 37.264 148.755 37.584 149.469 38.224C150.184 38.8533 150.541 39.808 150.541 41.088V46H148.205V44.928C147.736 45.728 146.861 46.128 145.581 46.128C144.92 46.128 144.344 46.016 143.853 45.792C143.373 45.568 143.005 45.2587 142.749 44.864C142.493 44.4693 142.365 44.0213 142.365 43.52C142.365 42.72 142.664 42.0907 143.261 41.632C143.869 41.1733 144.803 40.944 146.061 40.944H148.045C148.045 40.4 147.88 39.984 147.549 39.696C147.219 39.3973 146.723 39.248 146.061 39.248C145.603 39.248 145.149 39.3227 144.701 39.472C144.264 39.6107 143.891 39.8027 143.581 40.048L142.685 38.304C143.155 37.9733 143.715 37.7173 144.365 37.536C145.027 37.3547 145.704 37.264 146.397 37.264ZM146.205 44.448C146.632 44.448 147.011 44.352 147.341 44.16C147.672 43.9573 147.907 43.664 148.045 43.28V42.4H146.333C145.309 42.4 144.797 42.736 144.797 43.408C144.797 43.728 144.92 43.984 145.165 44.176C145.421 44.3573 145.768 44.448 146.205 44.448ZM157.332 34.128H159.828V46H157.332V34.128ZM165.616 37.264C166.95 37.264 167.974 37.584 168.688 38.224C169.403 38.8533 169.76 39.808 169.76 41.088V46H167.424V44.928C166.955 45.728 166.08 46.128 164.8 46.128C164.139 46.128 163.563 46.016 163.072 45.792C162.592 45.568 162.224 45.2587 161.968 44.864C161.712 44.4693 161.584 44.0213 161.584 43.52C161.584 42.72 161.883 42.0907 162.48 41.632C163.088 41.1733 164.022 40.944 165.28 40.944H167.264C167.264 40.4 167.099 39.984 166.768 39.696C166.438 39.3973 165.942 39.248 165.28 39.248C164.822 39.248 164.368 39.3227 163.92 39.472C163.483 39.6107 163.11 39.8027 162.8 40.048L161.904 38.304C162.374 37.9733 162.934 37.7173 163.584 37.536C164.246 37.3547 164.923 37.264 165.616 37.264ZM165.424 44.448C165.851 44.448 166.23 44.352 166.56 44.16C166.891 43.9573 167.126 43.664 167.264 43.28V42.4H165.552C164.528 42.4 164.016 42.736 164.016 43.408C164.016 43.728 164.139 43.984 164.384 44.176C164.64 44.3573 164.987 44.448 165.424 44.448ZM182.102 45.584C181.857 45.7653 181.553 45.904 181.19 46C180.838 46.0853 180.465 46.128 180.07 46.128C179.046 46.128 178.252 45.8667 177.686 45.344C177.132 44.8213 176.854 44.0533 176.854 43.04V39.504H175.526V37.584H176.854V35.488H179.35V37.584H181.494V39.504H179.35V43.008C179.35 43.3707 179.441 43.6533 179.622 43.856C179.814 44.048 180.081 44.144 180.422 44.144C180.817 44.144 181.153 44.0373 181.43 43.824L182.102 45.584ZM187.334 46.128C186.427 46.128 185.611 45.9413 184.886 45.568C184.171 45.184 183.611 44.656 183.206 43.984C182.801 43.312 182.598 42.5493 182.598 41.696C182.598 40.8427 182.801 40.08 183.206 39.408C183.611 38.736 184.171 38.2133 184.886 37.84C185.611 37.456 186.427 37.264 187.334 37.264C188.241 37.264 189.051 37.456 189.766 37.84C190.481 38.2133 191.041 38.736 191.446 39.408C191.851 40.08 192.054 40.8427 192.054 41.696C192.054 42.5493 191.851 43.312 191.446 43.984C191.041 44.656 190.481 45.184 189.766 45.568C189.051 45.9413 188.241 46.128 187.334 46.128ZM187.334 44.08C187.974 44.08 188.497 43.8667 188.902 43.44C189.318 43.0027 189.526 42.4213 189.526 41.696C189.526 40.9707 189.318 40.3947 188.902 39.968C188.497 39.5307 187.974 39.312 187.334 39.312C186.694 39.312 186.166 39.5307 185.75 39.968C185.334 40.3947 185.126 40.9707 185.126 41.696C185.126 42.4213 185.334 43.0027 185.75 43.44C186.166 43.8667 186.694 44.08 187.334 44.08ZM204.746 37.264C205.824 37.264 206.677 37.584 207.306 38.224C207.946 38.8533 208.266 39.8027 208.266 41.072V46H205.77V41.456C205.77 40.7733 205.626 40.2667 205.338 39.936C205.061 39.5947 204.661 39.424 204.138 39.424C203.552 39.424 203.088 39.616 202.746 40C202.405 40.3733 202.234 40.9333 202.234 41.68V46H199.738V41.456C199.738 40.1013 199.194 39.424 198.106 39.424C197.53 39.424 197.072 39.616 196.73 40C196.389 40.3733 196.218 40.9333 196.218 41.68V46H193.722V37.392H196.106V38.384C196.426 38.0213 196.816 37.744 197.274 37.552C197.744 37.36 198.256 37.264 198.81 37.264C199.418 37.264 199.968 37.3867 200.458 37.632C200.949 37.8667 201.344 38.2133 201.642 38.672C201.994 38.224 202.437 37.8773 202.97 37.632C203.514 37.3867 204.106 37.264 204.746 37.264ZM213.976 37.264C215.309 37.264 216.333 37.584 217.048 38.224C217.762 38.8533 218.12 39.808 218.12 41.088V46H215.784V44.928C215.314 45.728 214.44 46.128 213.16 46.128C212.498 46.128 211.922 46.016 211.432 45.792C210.952 45.568 210.584 45.2587 210.328 44.864C210.072 44.4693 209.944 44.0213 209.944 43.52C209.944 42.72 210.242 42.0907 210.84 41.632C211.448 41.1733 212.381 40.944 213.64 40.944H215.624C215.624 40.4 215.458 39.984 215.128 39.696C214.797 39.3973 214.301 39.248 213.64 39.248C213.181 39.248 212.728 39.3227 212.28 39.472C211.842 39.6107 211.469 39.8027 211.16 40.048L210.264 38.304C210.733 37.9733 211.293 37.7173 211.944 37.536C212.605 37.3547 213.282 37.264 213.976 37.264ZM213.784 44.448C214.21 44.448 214.589 44.352 214.92 44.16C215.25 43.9573 215.485 43.664 215.624 43.28V42.4H213.912C212.888 42.4 212.376 42.736 212.376 43.408C212.376 43.728 212.498 43.984 212.744 44.176C213 44.3573 213.346 44.448 213.784 44.448Z" fill="#4F4F4F"/>
</svg>
