<svg width="200" height="114" viewBox="0 0 200 114" fill="none" xmlns="http://www.w3.org/2000/svg">
<path d="M90.0959 5.64532L15.2417 48.3122C8.51108 52.1487 8.51109 61.8513 15.2417 65.6878L90.0959 108.355C96.235 111.854 103.765 111.854 109.904 108.355L184.758 65.6878C191.489 61.8513 191.489 52.1487 184.758 48.3122L109.904 5.64531C103.765 2.14604 96.235 2.14605 90.0959 5.64532Z" fill="#EDCA71"/>
<path d="M53.4778 47.16C53.0298 47.16 52.6618 47.0267 52.3738 46.76C52.0965 46.4827 51.9578 46.136 51.9578 45.72C51.9578 45.3147 52.1018 44.9733 52.3898 44.696C52.6778 44.408 53.0405 44.264 53.4778 44.264C53.9258 44.264 54.2938 44.408 54.5818 44.696C54.8698 44.9733 55.0138 45.3147 55.0138 45.72C55.0138 46.136 54.8698 46.4827 54.5818 46.76C54.2938 47.0267 53.9258 47.16 53.4778 47.16ZM53.6538 55.64C52.4271 55.64 51.4405 55.3787 50.6938 54.856C49.9578 54.344 49.5898 53.6347 49.5898 52.728C49.5898 52.3013 49.6645 51.928 49.8138 51.608C49.9631 51.2773 50.1391 51.0053 50.3418 50.792C50.5445 50.568 50.8111 50.3067 51.1418 50.008C51.5258 49.6773 51.8085 49.3893 51.9898 49.144C52.1818 48.8987 52.2778 48.6107 52.2778 48.28H54.6938C54.6938 48.824 54.5658 49.2827 54.3098 49.656C54.0645 50.0187 53.7071 50.4027 53.2378 50.808C52.8858 51.128 52.6245 51.4 52.4538 51.624C52.2938 51.8373 52.2138 52.0827 52.2138 52.36C52.2138 52.712 52.3685 52.9947 52.6778 53.208C52.9978 53.432 53.4138 53.544 53.9258 53.544C54.4271 53.544 54.8751 53.4427 55.2698 53.24C55.6645 53.0373 55.9898 52.744 56.2458 52.36L58.1818 53.496C57.7338 54.1787 57.1311 54.7067 56.3738 55.08C55.6165 55.4533 54.7098 55.64 53.6538 55.64ZM59.5077 41.8H62.0997V50.888H67.7157V53H59.5077V41.8ZM72.5537 44.264C73.887 44.264 74.911 44.584 75.6257 45.224C76.3404 45.8533 76.6977 46.808 76.6977 48.088V53H74.3617V51.928C73.8924 52.728 73.0177 53.128 71.7377 53.128C71.0764 53.128 70.5004 53.016 70.0097 52.792C69.5297 52.568 69.1617 52.2587 68.9057 51.864C68.6497 51.4693 68.5217 51.0213 68.5217 50.52C68.5217 49.72 68.8204 49.0907 69.4177 48.632C70.0257 48.1733 70.959 47.944 72.2177 47.944H74.2017C74.2017 47.4 74.0364 46.984 73.7057 46.696C73.375 46.3973 72.879 46.248 72.2177 46.248C71.759 46.248 71.3057 46.3227 70.8577 46.472C70.4204 46.6107 70.047 46.8027 69.7377 47.048L68.8417 45.304C69.311 44.9733 69.871 44.7173 70.5217 44.536C71.183 44.3547 71.8604 44.264 72.5537 44.264ZM72.3617 51.448C72.7884 51.448 73.167 51.352 73.4977 51.16C73.8284 50.9573 74.063 50.664 74.2017 50.28V49.4H72.4897C71.4657 49.4 70.9537 49.736 70.9537 50.408C70.9537 50.728 71.0764 50.984 71.3217 51.176C71.5777 51.3573 71.9244 51.448 72.3617 51.448ZM83.4879 41.128H85.9839V53H83.4879V41.128ZM91.7724 44.264C93.1058 44.264 94.1298 44.584 94.8444 45.224C95.5591 45.8533 95.9164 46.808 95.9164 48.088V53H93.5804V51.928C93.1111 52.728 92.2364 53.128 90.9564 53.128C90.2951 53.128 89.7191 53.016 89.2284 52.792C88.7484 52.568 88.3804 52.2587 88.1244 51.864C87.8684 51.4693 87.7404 51.0213 87.7404 50.52C87.7404 49.72 88.0391 49.0907 88.6364 48.632C89.2444 48.1733 90.1778 47.944 91.4364 47.944H93.4204C93.4204 47.4 93.2551 46.984 92.9244 46.696C92.5938 46.3973 92.0978 46.248 91.4364 46.248C90.9778 46.248 90.5244 46.3227 90.0764 46.472C89.6391 46.6107 89.2658 46.8027 88.9564 47.048L88.0604 45.304C88.5298 44.9733 89.0898 44.7173 89.7404 44.536C90.4018 44.3547 91.0791 44.264 91.7724 44.264ZM91.5804 51.448C92.0071 51.448 92.3858 51.352 92.7164 51.16C93.0471 50.9573 93.2818 50.664 93.4204 50.28V49.4H91.7084C90.6844 49.4 90.1724 49.736 90.1724 50.408C90.1724 50.728 90.2951 50.984 90.5404 51.176C90.7964 51.3573 91.1431 51.448 91.5804 51.448ZM92.7324 40.984H95.4204L92.5244 43.288H90.5724L92.7324 40.984ZM109.199 44.264C110.277 44.264 111.13 44.584 111.759 45.224C112.399 45.8533 112.719 46.8027 112.719 48.072V53H110.223V48.456C110.223 47.7733 110.079 47.2667 109.791 46.936C109.514 46.5947 109.114 46.424 108.591 46.424C108.005 46.424 107.541 46.616 107.199 47C106.858 47.3733 106.687 47.9333 106.687 48.68V53H104.191V48.456C104.191 47.1013 103.647 46.424 102.559 46.424C101.983 46.424 101.525 46.616 101.183 47C100.842 47.3733 100.671 47.9333 100.671 48.68V53H98.1754V44.392H100.559V45.384C100.879 45.0213 101.269 44.744 101.727 44.552C102.197 44.36 102.709 44.264 103.263 44.264C103.871 44.264 104.421 44.3867 104.911 44.632C105.402 44.8667 105.797 45.2133 106.095 45.672C106.447 45.224 106.89 44.8773 107.423 44.632C107.967 44.3867 108.559 44.264 109.199 44.264ZM120.045 44.264C120.845 44.264 121.57 44.4507 122.221 44.824C122.882 45.1867 123.399 45.704 123.773 46.376C124.146 47.0373 124.333 47.8107 124.333 48.696C124.333 49.5813 124.146 50.36 123.773 51.032C123.399 51.6933 122.882 52.2107 122.221 52.584C121.57 52.9467 120.845 53.128 120.045 53.128C118.946 53.128 118.082 52.7813 117.453 52.088V56.104H114.957V44.392H117.341V45.384C117.959 44.6373 118.861 44.264 120.045 44.264ZM119.613 51.08C120.253 51.08 120.775 50.8667 121.181 50.44C121.597 50.0027 121.805 49.4213 121.805 48.696C121.805 47.9707 121.597 47.3947 121.181 46.968C120.775 46.5307 120.253 46.312 119.613 46.312C118.973 46.312 118.445 46.5307 118.029 46.968C117.623 47.3947 117.421 47.9707 117.421 48.696C117.421 49.4213 117.623 50.0027 118.029 50.44C118.445 50.8667 118.973 51.08 119.613 51.08ZM129.335 44.264C130.668 44.264 131.692 44.584 132.407 45.224C133.122 45.8533 133.479 46.808 133.479 48.088V53H131.143V51.928C130.674 52.728 129.799 53.128 128.519 53.128C127.858 53.128 127.282 53.016 126.791 52.792C126.311 52.568 125.943 52.2587 125.687 51.864C125.431 51.4693 125.303 51.0213 125.303 50.52C125.303 49.72 125.602 49.0907 126.199 48.632C126.807 48.1733 127.74 47.944 128.999 47.944H130.983C130.983 47.4 130.818 46.984 130.487 46.696C130.156 46.3973 129.66 46.248 128.999 46.248C128.54 46.248 128.087 46.3227 127.639 46.472C127.202 46.6107 126.828 46.8027 126.519 47.048L125.623 45.304C126.092 44.9733 126.652 44.7173 127.303 44.536C127.964 44.3547 128.642 44.264 129.335 44.264ZM129.143 51.448C129.57 51.448 129.948 51.352 130.279 51.16C130.61 50.9573 130.844 50.664 130.983 50.28V49.4H129.271C128.247 49.4 127.735 49.736 127.735 50.408C127.735 50.728 127.858 50.984 128.103 51.176C128.359 51.3573 128.706 51.448 129.143 51.448ZM138.122 45.528C138.421 45.112 138.821 44.7973 139.322 44.584C139.834 44.3707 140.421 44.264 141.082 44.264V46.568C140.805 46.5467 140.618 46.536 140.522 46.536C139.807 46.536 139.247 46.7387 138.842 47.144C138.437 47.5387 138.234 48.136 138.234 48.936V53H135.738V44.392H138.122V45.528ZM145.991 44.264C147.325 44.264 148.349 44.584 149.063 45.224C149.778 45.8533 150.135 46.808 150.135 48.088V53H147.799V51.928C147.33 52.728 146.455 53.128 145.175 53.128C144.514 53.128 143.938 53.016 143.447 52.792C142.967 52.568 142.599 52.2587 142.343 51.864C142.087 51.4693 141.959 51.0213 141.959 50.52C141.959 49.72 142.258 49.0907 142.855 48.632C143.463 48.1733 144.397 47.944 145.655 47.944H147.639C147.639 47.4 147.474 46.984 147.143 46.696C146.813 46.3973 146.317 46.248 145.655 46.248C145.197 46.248 144.743 46.3227 144.295 46.472C143.858 46.6107 143.485 46.8027 143.175 47.048L142.279 45.304C142.749 44.9733 143.309 44.7173 143.959 44.536C144.621 44.3547 145.298 44.264 145.991 44.264ZM145.799 51.448C146.226 51.448 146.605 51.352 146.935 51.16C147.266 50.9573 147.501 50.664 147.639 50.28V49.4H145.927C144.903 49.4 144.391 49.736 144.391 50.408C144.391 50.728 144.514 50.984 144.759 51.176C145.015 51.3573 145.362 51.448 145.799 51.448ZM62.1693 64.584H64.3773V66.504H62.2333V73H59.7373V66.504H58.4093V64.584H59.7373V64.2C59.7373 63.2187 60.0253 62.44 60.6013 61.864C61.1879 61.288 62.0093 61 63.0653 61C63.4386 61 63.7906 61.0427 64.1213 61.128C64.4626 61.2027 64.7453 61.3147 64.9693 61.464L64.3133 63.272C64.0253 63.0693 63.6893 62.968 63.3053 62.968C62.5479 62.968 62.1693 63.384 62.1693 64.216V64.584ZM74.2928 64.392V73H71.9248V71.976C71.5941 72.3493 71.1994 72.6373 70.7408 72.84C70.2821 73.032 69.7861 73.128 69.2528 73.128C68.1221 73.128 67.2261 72.8027 66.5648 72.152C65.9034 71.5013 65.5728 70.536 65.5728 69.256V64.392H68.0688V68.888C68.0688 70.2747 68.6501 70.968 69.8128 70.968C70.4101 70.968 70.8901 70.776 71.2528 70.392C71.6154 69.9973 71.7968 69.416 71.7968 68.648V64.392H74.2928ZM81.8371 64.264C82.9038 64.264 83.7625 64.584 84.4131 65.224C85.0745 65.864 85.4051 66.8133 85.4051 68.072V73H82.9091V68.456C82.9091 67.7733 82.7598 67.2667 82.4611 66.936C82.1625 66.5947 81.7305 66.424 81.1651 66.424C80.5358 66.424 80.0345 66.6213 79.6611 67.016C79.2878 67.4 79.1011 67.976 79.1011 68.744V73H76.6051V64.392H78.9891V65.4C79.3198 65.0373 79.7305 64.76 80.2211 64.568C80.7118 64.3653 81.2505 64.264 81.8371 64.264ZM91.9214 73.128C91.004 73.128 90.1774 72.9413 89.4414 72.568C88.716 72.184 88.1454 71.656 87.7294 70.984C87.324 70.312 87.1214 69.5493 87.1214 68.696C87.1214 67.8427 87.324 67.08 87.7294 66.408C88.1454 65.736 88.716 65.2133 89.4414 64.84C90.1774 64.456 91.004 64.264 91.9214 64.264C92.828 64.264 93.6174 64.456 94.2894 64.84C94.972 65.2133 95.468 65.752 95.7774 66.456L93.8414 67.496C93.3934 66.7067 92.748 66.312 91.9054 66.312C91.2547 66.312 90.716 66.5253 90.2894 66.952C89.8627 67.3787 89.6494 67.96 89.6494 68.696C89.6494 69.432 89.8627 70.0133 90.2894 70.44C90.716 70.8667 91.2547 71.08 91.9054 71.08C92.7587 71.08 93.404 70.6853 93.8414 69.896L95.7774 70.952C95.468 71.6347 94.972 72.168 94.2894 72.552C93.6174 72.936 92.828 73.128 91.9214 73.128ZM97.2145 64.392H99.7105V73H97.2145V64.392ZM98.4625 63.192C98.0038 63.192 97.6305 63.0587 97.3425 62.792C97.0545 62.5253 96.9105 62.1947 96.9105 61.8C96.9105 61.4053 97.0545 61.0747 97.3425 60.808C97.6305 60.5413 98.0038 60.408 98.4625 60.408C98.9212 60.408 99.2945 60.536 99.5825 60.792C99.8705 61.048 100.015 61.368 100.015 61.752C100.015 62.168 99.8705 62.5147 99.5825 62.792C99.2945 63.0587 98.9212 63.192 98.4625 63.192ZM106.123 73.128C105.216 73.128 104.4 72.9413 103.675 72.568C102.96 72.184 102.4 71.656 101.995 70.984C101.59 70.312 101.387 69.5493 101.387 68.696C101.387 67.8427 101.59 67.08 101.995 66.408C102.4 65.736 102.96 65.2133 103.675 64.84C104.4 64.456 105.216 64.264 106.123 64.264C107.03 64.264 107.84 64.456 108.555 64.84C109.27 65.2133 109.83 65.736 110.235 66.408C110.64 67.08 110.843 67.8427 110.843 68.696C110.843 69.5493 110.64 70.312 110.235 70.984C109.83 71.656 109.27 72.184 108.555 72.568C107.84 72.9413 107.03 73.128 106.123 73.128ZM106.123 71.08C106.763 71.08 107.286 70.8667 107.691 70.44C108.107 70.0027 108.315 69.4213 108.315 68.696C108.315 67.9707 108.107 67.3947 107.691 66.968C107.286 66.5307 106.763 66.312 106.123 66.312C105.483 66.312 104.955 66.5307 104.539 66.968C104.123 67.3947 103.915 67.9707 103.915 68.696C103.915 69.4213 104.123 70.0027 104.539 70.44C104.955 70.8667 105.483 71.08 106.123 71.08ZM117.743 64.264C118.81 64.264 119.669 64.584 120.319 65.224C120.981 65.864 121.311 66.8133 121.311 68.072V73H118.815V68.456C118.815 67.7733 118.666 67.2667 118.367 66.936C118.069 66.5947 117.637 66.424 117.071 66.424C116.442 66.424 115.941 66.6213 115.567 67.016C115.194 67.4 115.007 67.976 115.007 68.744V73H112.511V64.392H114.895V65.4C115.226 65.0373 115.637 64.76 116.127 64.568C116.618 64.3653 117.157 64.264 117.743 64.264ZM127.764 73.128C126.857 73.128 126.041 72.9413 125.316 72.568C124.601 72.184 124.041 71.656 123.636 70.984C123.23 70.312 123.028 69.5493 123.028 68.696C123.028 67.8427 123.23 67.08 123.636 66.408C124.041 65.736 124.601 65.2133 125.316 64.84C126.041 64.456 126.857 64.264 127.764 64.264C128.67 64.264 129.481 64.456 130.196 64.84C130.91 65.2133 131.47 65.736 131.876 66.408C132.281 67.08 132.484 67.8427 132.484 68.696C132.484 69.5493 132.281 70.312 131.876 70.984C131.47 71.656 130.91 72.184 130.196 72.568C129.481 72.9413 128.67 73.128 127.764 73.128ZM127.764 71.08C128.404 71.08 128.926 70.8667 129.332 70.44C129.748 70.0027 129.956 69.4213 129.956 68.696C129.956 67.9707 129.748 67.3947 129.332 66.968C128.926 66.5307 128.404 66.312 127.764 66.312C127.124 66.312 126.596 66.5307 126.18 66.968C125.764 67.3947 125.556 67.9707 125.556 68.696C125.556 69.4213 125.764 70.0027 126.18 70.44C126.596 70.8667 127.124 71.08 127.764 71.08ZM128.436 60.984H131.124L128.228 63.288H126.276L128.436 60.984ZM135.769 69.112C135.769 68.5573 135.892 68.0987 136.137 67.736C136.393 67.3733 136.761 66.9733 137.241 66.536C137.593 66.216 137.849 65.9493 138.009 65.736C138.18 65.512 138.265 65.2613 138.265 64.984C138.265 64.5893 138.105 64.28 137.785 64.056C137.476 63.8213 137.06 63.704 136.537 63.704C136.036 63.704 135.588 63.8107 135.193 64.024C134.809 64.2267 134.484 64.5147 134.217 64.888L132.281 63.752C132.729 63.0693 133.332 62.5413 134.089 62.168C134.857 61.7947 135.764 61.608 136.809 61.608C138.036 61.608 139.017 61.8693 139.753 62.392C140.5 62.9147 140.873 63.64 140.873 64.568C140.873 65.0053 140.798 65.3893 140.649 65.72C140.51 66.0507 140.334 66.3333 140.121 66.568C139.918 66.792 139.652 67.0533 139.321 67.352C138.926 67.704 138.638 68.0027 138.457 68.248C138.276 68.4827 138.185 68.7707 138.185 69.112H135.769ZM136.985 73.128C136.548 73.128 136.18 72.9893 135.881 72.712C135.593 72.424 135.449 72.0773 135.449 71.672C135.449 71.2667 135.593 70.9307 135.881 70.664C136.169 70.3867 136.537 70.248 136.985 70.248C137.433 70.248 137.801 70.3867 138.089 70.664C138.377 70.9307 138.521 71.2667 138.521 71.672C138.521 72.0773 138.372 72.424 138.073 72.712C137.785 72.9893 137.422 73.128 136.985 73.128Z" fill="#4F4F4F"/>
</svg>
