<svg width="161" height="357" viewBox="0 0 161 357" fill="none" xmlns="http://www.w3.org/2000/svg">
<path d="M7 1C7 0.447715 6.55228 0 6 0C5.44772 0 5 0.447715 5 1L7 1ZM6 41L11.7735 31H0.226497L6 41ZM5 1V32H7V1L5 1Z" fill="white"/>
<path d="M7 159C7 158.448 6.55228 158 6 158C5.44772 158 5 158.448 5 159L7 159ZM6 199L11.7735 189H0.226497L6 199ZM5 159V190H7V159L5 159Z" fill="white"/>
<path d="M7 317C7 316.448 6.55228 316 6 316C5.44772 316 5 316.448 5 317L7 317ZM6 357L11.7735 347H0.226497L6 357ZM5 317V348H7V317L5 317Z" fill="white"/>
<path d="M121 98C120.448 98 120 98.4477 120 99C120 99.5523 120.448 100 121 100L121 98ZM161 99L151 93.2265L151 104.774L161 99ZM121 100L152 100L152 98L121 98L121 100Z" fill="white"/>
<path d="M121 258C120.448 258 120 258.448 120 259C120 259.552 120.448 260 121 260L121 258ZM161 259L151 253.226L151 264.774L161 259ZM121 260L152 260L152 258L121 258L121 260Z" fill="white"/>
<path d="M18.2814 185.192C17.3961 185.192 16.5374 185.075 15.7054 184.84C14.8841 184.595 14.2228 184.28 13.7214 183.896L14.6014 181.944C15.0814 182.296 15.6521 182.579 16.3134 182.792C16.9748 183.005 17.6361 183.112 18.2974 183.112C19.0334 183.112 19.5774 183.005 19.9294 182.792C20.2814 182.568 20.4574 182.275 20.4574 181.912C20.4574 181.645 20.3508 181.427 20.1374 181.256C19.9348 181.075 19.6681 180.931 19.3374 180.824C19.0174 180.717 18.5801 180.6 18.0254 180.472C17.1721 180.269 16.4734 180.067 15.9294 179.864C15.3854 179.661 14.9161 179.336 14.5214 178.888C14.1374 178.44 13.9454 177.843 13.9454 177.096C13.9454 176.445 14.1214 175.859 14.4734 175.336C14.8254 174.803 15.3534 174.381 16.0574 174.072C16.7721 173.763 17.6414 173.608 18.6654 173.608C19.3801 173.608 20.0788 173.693 20.7614 173.864C21.4441 174.035 22.0414 174.28 22.5534 174.6L21.7534 176.568C20.7188 175.981 19.6841 175.688 18.6494 175.688C17.9241 175.688 17.3854 175.805 17.0334 176.04C16.6921 176.275 16.5214 176.584 16.5214 176.968C16.5214 177.352 16.7188 177.64 17.1134 177.832C17.5188 178.013 18.1321 178.195 18.9534 178.376C19.8068 178.579 20.5054 178.781 21.0494 178.984C21.5934 179.187 22.0574 179.507 22.4414 179.944C22.8361 180.381 23.0334 180.973 23.0334 181.72C23.0334 182.36 22.8521 182.947 22.4894 183.48C22.1374 184.003 21.6041 184.419 20.8894 184.728C20.1748 185.037 19.3054 185.192 18.2814 185.192ZM24.8046 173.8H27.3966V185H24.8046V173.8ZM26.8046 170.584H29.4926L26.5966 172.888H24.6446L26.8046 170.584Z" fill="white"/>
<path d="M18.2814 343.192C17.3961 343.192 16.5374 343.075 15.7054 342.84C14.8841 342.595 14.2228 342.28 13.7214 341.896L14.6014 339.944C15.0814 340.296 15.6521 340.579 16.3134 340.792C16.9748 341.005 17.6361 341.112 18.2974 341.112C19.0334 341.112 19.5774 341.005 19.9294 340.792C20.2814 340.568 20.4574 340.275 20.4574 339.912C20.4574 339.645 20.3508 339.427 20.1374 339.256C19.9348 339.075 19.6681 338.931 19.3374 338.824C19.0174 338.717 18.5801 338.6 18.0254 338.472C17.1721 338.269 16.4734 338.067 15.9294 337.864C15.3854 337.661 14.9161 337.336 14.5214 336.888C14.1374 336.44 13.9454 335.843 13.9454 335.096C13.9454 334.445 14.1214 333.859 14.4734 333.336C14.8254 332.803 15.3534 332.381 16.0574 332.072C16.7721 331.763 17.6414 331.608 18.6654 331.608C19.3801 331.608 20.0788 331.693 20.7614 331.864C21.4441 332.035 22.0414 332.28 22.5534 332.6L21.7534 334.568C20.7188 333.981 19.6841 333.688 18.6494 333.688C17.9241 333.688 17.3854 333.805 17.0334 334.04C16.6921 334.275 16.5214 334.584 16.5214 334.968C16.5214 335.352 16.7188 335.64 17.1134 335.832C17.5188 336.013 18.1321 336.195 18.9534 336.376C19.8068 336.579 20.5054 336.781 21.0494 336.984C21.5934 337.187 22.0574 337.507 22.4414 337.944C22.8361 338.381 23.0334 338.973 23.0334 339.72C23.0334 340.36 22.8521 340.947 22.4894 341.48C22.1374 342.003 21.6041 342.419 20.8894 342.728C20.1748 343.037 19.3054 343.192 18.2814 343.192ZM24.8046 331.8H27.3966V343H24.8046V331.8ZM26.8046 328.584H29.4926L26.5966 330.888H24.6446L26.8046 328.584Z" fill="white"/>
<path d="M141.889 80.8V92H139.761L134.177 85.2V92H131.617V80.8H133.761L139.329 87.6V80.8H141.889ZM149.963 92.192C148.8 92.192 147.75 91.9413 146.811 91.44C145.883 90.9387 145.152 90.2507 144.619 89.376C144.096 88.4907 143.835 87.4987 143.835 86.4C143.835 85.3013 144.096 84.3147 144.619 83.44C145.152 82.5547 145.883 81.8613 146.811 81.36C147.75 80.8587 148.8 80.608 149.963 80.608C151.126 80.608 152.171 80.8587 153.099 81.36C154.027 81.8613 154.758 82.5547 155.291 83.44C155.824 84.3147 156.091 85.3013 156.091 86.4C156.091 87.4987 155.824 88.4907 155.291 89.376C154.758 90.2507 154.027 90.9387 153.099 91.44C152.171 91.9413 151.126 92.192 149.963 92.192ZM149.963 89.984C150.624 89.984 151.222 89.8347 151.755 89.536C152.288 89.2267 152.704 88.8 153.003 88.256C153.312 87.712 153.467 87.0933 153.467 86.4C153.467 85.7067 153.312 85.088 153.003 84.544C152.704 84 152.288 83.5787 151.755 83.28C151.222 82.9707 150.624 82.816 149.963 82.816C149.302 82.816 148.704 82.9707 148.171 83.28C147.638 83.5787 147.216 84 146.907 84.544C146.608 85.088 146.459 85.7067 146.459 86.4C146.459 87.0933 146.608 87.712 146.907 88.256C147.216 88.8 147.638 89.2267 148.171 89.536C148.704 89.8347 149.302 89.984 149.963 89.984Z" fill="white"/>
<path d="M141.889 236.8V248H139.761L134.177 241.2V248H131.617V236.8H133.761L139.329 243.6V236.8H141.889ZM149.963 248.192C148.8 248.192 147.75 247.941 146.811 247.44C145.883 246.939 145.152 246.251 144.619 245.376C144.096 244.491 143.835 243.499 143.835 242.4C143.835 241.301 144.096 240.315 144.619 239.44C145.152 238.555 145.883 237.861 146.811 237.36C147.75 236.859 148.8 236.608 149.963 236.608C151.126 236.608 152.171 236.859 153.099 237.36C154.027 237.861 154.758 238.555 155.291 239.44C155.824 240.315 156.091 241.301 156.091 242.4C156.091 243.499 155.824 244.491 155.291 245.376C154.758 246.251 154.027 246.939 153.099 247.44C152.171 247.941 151.126 248.192 149.963 248.192ZM149.963 245.984C150.624 245.984 151.222 245.835 151.755 245.536C152.288 245.227 152.704 244.8 153.003 244.256C153.312 243.712 153.467 243.093 153.467 242.4C153.467 241.707 153.312 241.088 153.003 240.544C152.704 240 152.288 239.579 151.755 239.28C151.222 238.971 150.624 238.816 149.963 238.816C149.302 238.816 148.704 238.971 148.171 239.28C147.638 239.579 147.216 240 146.907 240.544C146.608 241.088 146.459 241.707 146.459 242.4C146.459 243.093 146.608 243.712 146.907 244.256C147.216 244.8 147.638 245.227 148.171 245.536C148.704 245.835 149.302 245.984 149.963 245.984Z" fill="white"/>
</svg>
