<svg width="88" height="88" viewBox="0 0 88 88" fill="none" xmlns="http://www.w3.org/2000/svg">
<g filter="url(#filter0_d_1_751)">
<rect x="4" width="80" height="80" rx="20" fill="#00D8CC"/>
<path fill-rule="evenodd" clip-rule="evenodd" d="M20.349 33.3789L19.0917 32.6456V38.326L20.349 39.0594V33.3789Z" fill="#7BAB33"/>
<path fill-rule="evenodd" clip-rule="evenodd" d="M20.349 43.2381L19.0917 42.5047V44.6818L20.349 45.4151V43.2381Z" fill="#7BAB33"/>
<path fill-rule="evenodd" clip-rule="evenodd" d="M20.349 45.4112L19.0917 44.6778L20.4051 46.3359L21.6624 47.0693L20.349 45.4112Z" fill="#57742B"/>
<path fill-rule="evenodd" clip-rule="evenodd" d="M20.349 47.7767L19.0917 47.0433V49.4496L20.349 50.183V47.7767Z" fill="#7BAB33"/>
<path fill-rule="evenodd" clip-rule="evenodd" d="M21.6591 36.8493L20.4018 36.1159V41.7963L21.6591 42.5297V36.8493Z" fill="#7BAB33"/>
<path fill-rule="evenodd" clip-rule="evenodd" d="M21.3549 49.6392L20.0976 48.9058V54.1237L21.3549 54.8571V49.6392Z" fill="#7BAB33"/>
<path fill-rule="evenodd" clip-rule="evenodd" d="M68.8763 7.19684L67.619 6.46345L19.0917 32.6464L20.349 33.3797L68.8763 7.19684H68.8763Z" fill="#AFCA49"/>
<path fill-rule="evenodd" clip-rule="evenodd" d="M21.6603 42.5305L20.403 41.7971L19.0917 42.5071L20.349 43.2404L21.6603 42.5305Z" fill="#AFCA49"/>
<path fill-rule="evenodd" clip-rule="evenodd" d="M68.8773 17.0499L67.6199 16.3165L66.3087 17.0265L67.566 17.7598L68.8773 17.0499V17.0499Z" fill="#AFCA49"/>
<path fill-rule="evenodd" clip-rule="evenodd" d="M68.8773 21.5948L67.6199 20.8614L66.3087 21.5713L67.566 22.3047L68.8773 21.5948V21.5948Z" fill="#AFCA49"/>
<path fill-rule="evenodd" clip-rule="evenodd" d="M21.6603 47.0688L20.403 46.3354L19.0917 47.0454L20.349 47.7788L21.6603 47.0688Z" fill="#AFCA49"/>
<path d="M20.3521 50.1816L21.3573 49.6392V54.8551L67.8738 29.757V24.5411L68.8794 23.9986V21.5911L67.5674 22.299L68.8794 19.2318V17.0523L67.5674 17.7602V13.5857L68.8794 12.8778V7.19621L20.3521 33.3791V39.0607L21.6634 38.3532V42.5277L20.3521 43.2352V45.4147L21.6634 47.0665L20.3521 47.774V50.1815L20.3521 50.1816Z" fill="#5E8228"/>
<path d="M27.5577 45.1531L23.5371 47.3224V36.3546L27.5577 34.1853V45.1531Z" fill="#4E4C4F"/>
<path d="M32.2324 42.6323L28.2122 44.8015V33.8337L32.2324 31.6645V42.6323Z" fill="#4E4C4F"/>
<path d="M36.9014 40.1116L32.8812 42.2807V31.313L36.9014 29.1438V40.1116V40.1116Z" fill="#4E4C4F"/>
<path d="M41.577 37.5909L37.5564 39.7602V28.7924L41.577 26.6231V37.5909Z" fill="#4E4C4F"/>
<path d="M51.4048 32.2887L47.3846 34.4578V23.4901L51.4048 21.321V32.2887Z" fill="#4E4C4F"/>
<path d="M56.0806 29.768L52.0597 31.9375V20.9697L56.0806 18.8002V29.768V29.768Z" fill="#4E4C4F"/>
<path d="M60.7488 27.2473L56.7286 29.4164V18.4486L60.7488 16.2795V27.2473V27.2473Z" fill="#4E4C4F"/>
<path d="M65.4237 24.7266L61.4038 26.8955V15.9277L65.4237 13.7587V24.7266Z" fill="#4E4C4F"/>
<path d="M22.8702 51.3149L21.8918 51.8429V54.565L22.8702 54.0371V51.3149Z" fill="#EBCF6D"/>
<path d="M24.2171 50.5885L23.239 51.1162V53.8384L24.2171 53.3107V50.5885Z" fill="#EBCF6D"/>
<path d="M25.5589 49.8622L24.5802 50.3903V53.1125L25.5589 52.5844V49.8622Z" fill="#EBCF6D"/>
<path d="M26.9061 49.1358L25.9274 49.6639V52.386L26.9061 51.8579V49.1358Z" fill="#EBCF6D"/>
<path d="M28.2527 48.4156L27.2747 48.9433V51.6655L28.2527 51.1378V48.4156Z" fill="#EBCF6D"/>
<path d="M29.5942 47.6891L28.6157 48.217V50.9392L29.5942 50.4113V47.6891V47.6891Z" fill="#EBCF6D"/>
<path d="M30.9415 46.9627L29.9631 47.4905V50.2127L30.9415 49.6848V46.9627Z" fill="#EBCF6D"/>
<path d="M32.2885 46.2362L31.3104 46.7639V49.4861L32.2885 48.9584V46.2362Z" fill="#EBCF6D"/>
<path d="M33.6291 45.5099L32.6514 46.0375V48.7597L33.6291 48.2321V45.5099Z" fill="#EBCF6D"/>
<path d="M34.9768 44.7835L33.9988 45.3112V48.0334L34.9768 47.5057V44.7835Z" fill="#EBCF6D"/>
<path d="M36.3247 44.057L35.346 44.5851V47.3073L36.3247 46.7792V44.057Z" fill="#EBCF6D"/>
<path d="M37.6652 43.3308L36.6871 43.8585V46.5806L37.6652 46.0529V43.3308Z" fill="#EBCF6D"/>
<path d="M39.0117 42.6043L38.0343 43.1316V45.8538L39.0117 45.3264V42.6043Z" fill="#EBCF6D"/>
<path d="M40.3597 41.8839L39.3817 42.4116V45.1338L40.3597 44.6061V41.8839Z" fill="#EBCF6D"/>
<path d="M44.3957 39.7047L43.4172 40.2326V42.9548L44.3957 42.4269V39.7047Z" fill="#EBCF6D"/>
<path d="M45.7372 38.9785L44.7584 39.5065V42.2287L45.7372 41.7006V38.9785Z" fill="#EBCF6D"/>
<path d="M47.0844 38.252L46.1056 38.7801V41.5023L47.0844 40.9742V38.252Z" fill="#EBCF6D"/>
<path d="M48.4314 37.5255L47.4529 38.0534V40.7756L48.4314 40.2477V37.5255Z" fill="#EBCF6D"/>
<path d="M49.7713 36.799L48.794 37.3264V40.0486L49.7713 39.5212V36.799Z" fill="#EBCF6D"/>
<path d="M51.1197 36.0728L50.1413 36.6007V39.3229L51.1197 38.795V36.0728Z" fill="#EBCF6D"/>
<path d="M52.4673 35.3463L51.4885 35.8744V38.5966L52.4673 38.0685V35.3463Z" fill="#EBCF6D"/>
<path d="M53.8077 34.6262L52.8297 35.1539V37.8761L53.8077 37.3483V34.6262Z" fill="#EBCF6D"/>
<path d="M55.1549 33.8997L54.1769 34.4274V37.1496L55.1549 36.6218V33.8997Z" fill="#EBCF6D"/>
<path d="M56.4967 33.1732L55.5179 33.7013V36.4235L56.4967 35.8954V33.1732Z" fill="#EBCF6D"/>
<path d="M57.844 32.4467L56.8652 32.9748V35.697L57.844 35.1689V32.4467Z" fill="#EBCF6D"/>
<path d="M59.191 31.7205L58.2126 32.2484V34.9706L59.191 34.4427V31.7205Z" fill="#EBCF6D"/>
<path d="M60.5317 30.994L59.5536 31.5218V34.2439L60.5317 33.7162V30.994Z" fill="#EBCF6D"/>
<path d="M61.8797 30.2676L60.9009 30.7957V33.5178L61.8797 32.9898V30.2676Z" fill="#EBCF6D"/>
<path d="M63.2269 29.5411L62.2482 30.0692V32.7914L63.2269 32.2633V29.5411Z" fill="#EBCF6D"/>
<path d="M64.5728 28.8149L63.5955 29.3422V32.0644L64.5728 31.537V28.8149Z" fill="#EBCF6D"/>
<path d="M65.9149 28.0884L64.9365 28.6163V31.3384L65.9149 30.8106V28.0884Z" fill="#EBCF6D"/>
<path d="M67.2625 27.3682L66.2837 27.8963V30.6185L67.2625 30.0904V27.3682Z" fill="#EBCF6D"/>
<path d="M22.9287 37.7365L23.7584 37.2888V36.6004L22.9287 37.0481V37.7365Z" fill="#BFBFBF"/>
<path d="M22.9287 39.2583L23.7584 38.8106V38.1217L22.9287 38.5694V39.2583Z" fill="#BFBFBF"/>
<path d="M22.9287 40.7788L23.7584 40.3311V39.6427L22.9287 40.0904V40.7788Z" fill="#BFBFBF"/>
<path d="M22.9287 42.3L23.7584 41.8523V41.1639L22.9287 41.6116V42.3Z" fill="#BFBFBF"/>
<path d="M22.9287 43.8216L23.7584 43.3739V42.685L22.9287 43.1326V43.8216Z" fill="#BFBFBF"/>
<path d="M22.9287 45.3426L23.7584 44.8949V44.206L22.9287 44.6537V45.3426Z" fill="#BFBFBF"/>
<path d="M22.9287 46.8633L23.7584 46.4156V45.7272L22.9287 46.1749V46.8633Z" fill="#BFBFBF"/>
<path d="M41.3312 27.8087L42.1606 27.3612V26.6727L41.3312 27.1202V27.8087Z" fill="#BFBFBF"/>
<path d="M41.3312 29.3304L42.1606 28.8829V28.194L41.3312 28.6415V29.3304Z" fill="#BFBFBF"/>
<path d="M41.3312 30.851L42.1606 30.4035V29.715L41.3312 30.1625V30.851Z" fill="#BFBFBF"/>
<path d="M41.3312 32.3659L42.1606 31.9184V31.23L41.3312 31.6775V32.3659Z" fill="#BFBFBF"/>
<path d="M41.3312 33.8937L42.1606 33.4462V32.7573L41.3312 33.2048V33.8937Z" fill="#BFBFBF"/>
<path d="M41.3312 35.4148L42.1606 34.9673V34.2783L41.3312 34.7258V35.4148Z" fill="#BFBFBF"/>
<path d="M41.3312 36.9355L42.1606 36.488V35.7996L41.3312 36.2471V36.9355Z" fill="#BFBFBF"/>
<path d="M27.3802 35.334L28.429 34.7681V34.0797L27.3802 34.6455V35.334Z" fill="#BFBFBF"/>
<path d="M27.3802 36.8555L28.429 36.2896V35.6007L27.3802 36.1665V36.8555Z" fill="#BFBFBF"/>
<path d="M27.3802 38.3762L28.429 37.8104V37.1219L27.3802 37.6878V38.3762Z" fill="#BFBFBF"/>
<path d="M27.3802 39.8975L28.429 39.3316V38.6432L27.3802 39.2091V39.8975Z" fill="#BFBFBF"/>
<path d="M27.3802 41.419L28.429 40.8532V40.1642L27.3802 40.7301V41.419Z" fill="#BFBFBF"/>
<path d="M27.3802 42.9403L28.429 42.3744V41.6855L27.3802 42.2513V42.9403Z" fill="#BFBFBF"/>
<path d="M27.3802 44.4608L28.429 43.8949V43.2065L27.3802 43.7723V44.4608Z" fill="#BFBFBF"/>
<path d="M32.0306 32.8258L33.0797 32.2597V31.5713L32.0306 32.1373V32.8258Z" fill="#BFBFBF"/>
<path d="M32.0306 34.3475L33.0797 33.7815V33.0925L32.0306 33.6586V34.3475Z" fill="#BFBFBF"/>
<path d="M32.0306 35.868L33.0797 35.302V34.6136L32.0306 35.1796V35.868Z" fill="#BFBFBF"/>
<path d="M32.0306 37.3893L33.0797 36.8233V36.1348L32.0306 36.7009V37.3893Z" fill="#BFBFBF"/>
<path d="M32.0306 38.9108L33.0797 38.3448V37.6558L32.0306 38.2219V38.9108Z" fill="#BFBFBF"/>
<path d="M32.0306 40.4321L33.0797 39.866V39.1771L32.0306 39.7431V40.4321Z" fill="#BFBFBF"/>
<path d="M32.0306 41.9526L33.0797 41.3865V40.6981L32.0306 41.2642V41.9526Z" fill="#BFBFBF"/>
<path d="M36.7181 30.2931L37.7676 29.7269V29.0384L36.7181 29.6047V30.2931Z" fill="#BFBFBF"/>
<path d="M36.7181 31.8146L37.7676 31.2484V30.5595L36.7181 31.1257V31.8146Z" fill="#BFBFBF"/>
<path d="M36.7181 33.3415L37.7676 32.7752V32.0868L36.7181 32.653V33.3415Z" fill="#BFBFBF"/>
<path d="M36.7181 34.8564L37.7676 34.2902V33.6017L36.7181 34.168V34.8564Z" fill="#BFBFBF"/>
<path d="M36.7181 36.3779L37.7676 35.8117V35.1228L36.7181 35.689V36.3779Z" fill="#BFBFBF"/>
<path d="M36.7181 37.9052L37.7676 37.339V36.6501L36.7181 37.2163V37.9052Z" fill="#BFBFBF"/>
<path d="M36.7181 39.426L37.7676 38.8598V38.1713L36.7181 38.7376V39.426Z" fill="#BFBFBF"/>
<path d="M46.7761 24.872L47.6055 24.4245V23.7361L46.7761 24.1836V24.872Z" fill="#BFBFBF"/>
<path d="M46.7761 26.3935L47.6055 25.9461V25.2571L46.7761 25.7046V26.3935Z" fill="#BFBFBF"/>
<path d="M46.7761 27.9143L47.6055 27.4668V26.7784L46.7761 27.2259V27.9143Z" fill="#BFBFBF"/>
<path d="M46.7761 29.4353L47.6055 28.9878V28.2994L46.7761 28.7469V29.4353Z" fill="#BFBFBF"/>
<path d="M46.7761 30.9571L47.6055 30.5096V29.8206L46.7761 30.2681V30.9571Z" fill="#BFBFBF"/>
<path d="M46.7761 32.4781L47.6055 32.0306V31.3417L46.7761 31.7892V32.4781Z" fill="#BFBFBF"/>
<path d="M46.7761 33.9988L47.6055 33.5513V32.8629L46.7761 33.3104V33.9988Z" fill="#BFBFBF"/>
<path d="M65.1786 14.9384L66.0087 14.4905V13.8021L65.1786 14.25V14.9384Z" fill="#BFBFBF"/>
<path d="M65.1786 16.4602L66.0087 16.0123V15.3234L65.1786 15.7712V16.4602Z" fill="#BFBFBF"/>
<path d="M65.1786 17.9807L66.0087 17.5328V16.8444L65.1786 17.2923V17.9807Z" fill="#BFBFBF"/>
<path d="M65.1786 19.5017L66.0087 19.0539V18.3654L65.1786 18.8133V19.5017Z" fill="#BFBFBF"/>
<path d="M65.1786 21.0235L66.0087 20.5756V19.8867L65.1786 20.3345V21.0235Z" fill="#BFBFBF"/>
<path d="M65.1786 22.5447L66.0087 22.0969V21.4079L65.1786 21.8558V22.5447Z" fill="#BFBFBF"/>
<path d="M65.1786 24.0715L66.0087 23.6236V22.9352L65.1786 23.3831V24.0715Z" fill="#BFBFBF"/>
<path d="M51.2277 22.4693L52.2758 21.9038V21.2153L51.2277 21.7808V22.4693Z" fill="#BFBFBF"/>
<path d="M51.2277 23.991L52.2758 23.4255V22.7366L51.2277 23.3021V23.991Z" fill="#BFBFBF"/>
<path d="M51.2277 25.5115L52.2758 24.946V24.2576L51.2277 24.8231V25.5115Z" fill="#BFBFBF"/>
<path d="M51.2277 27.0328L52.2758 26.4673V25.7789L51.2277 26.3444V27.0328Z" fill="#BFBFBF"/>
<path d="M51.2277 28.5541L52.2758 27.9886V27.2997L51.2277 27.8651V28.5541Z" fill="#BFBFBF"/>
<path d="M51.2277 30.0753L52.2758 29.5098V28.8209L51.2277 29.3864V30.0753Z" fill="#BFBFBF"/>
<path d="M51.2277 31.5961L52.2758 31.0306V30.3422L51.2277 30.9076V31.5961Z" fill="#BFBFBF"/>
<path d="M55.878 19.9552L56.9267 19.3893V18.7009L55.878 19.2668V19.9552V19.9552Z" fill="#BFBFBF"/>
<path d="M55.878 21.4767L56.9267 20.9109V20.2219L55.878 20.7878V21.4767Z" fill="#BFBFBF"/>
<path d="M55.878 23.0035L56.9267 22.4377V21.7492L55.878 22.3151V23.0035Z" fill="#BFBFBF"/>
<path d="M55.878 24.5185L56.9267 23.9526V23.2642L55.878 23.8301V24.5185V24.5185Z" fill="#BFBFBF"/>
<path d="M55.878 26.0403L56.9267 25.4744V24.7855L55.878 25.3513V26.0403Z" fill="#BFBFBF"/>
<path d="M55.878 27.5613L56.9267 26.9954V26.3065L55.878 26.8723V27.5613Z" fill="#BFBFBF"/>
<path d="M55.878 29.0881L56.9267 28.5222V27.8338L55.878 28.3996V29.0881V29.0881Z" fill="#BFBFBF"/>
<path d="M60.5656 17.4283L61.6147 16.8623V16.1739L60.5656 16.7399V17.4283Z" fill="#BFBFBF"/>
<path d="M60.5656 18.9499L61.6147 18.3838V17.6949L60.5656 18.2609V18.9499V18.9499Z" fill="#BFBFBF"/>
<path d="M60.5656 20.4706L61.6147 19.9046V19.2161L60.5656 19.7822V20.4706Z" fill="#BFBFBF"/>
<path d="M60.5656 21.9919L61.6147 21.4258V20.7374L60.5656 21.3035V21.9919Z" fill="#BFBFBF"/>
<path d="M60.5656 23.5134L61.6147 22.9474V22.2584L60.5656 22.8245V23.5134Z" fill="#BFBFBF"/>
<path d="M60.5656 25.0347L61.6147 24.4686V23.7797L60.5656 24.3457V25.0347Z" fill="#BFBFBF"/>
<path d="M60.5656 26.5552L61.6147 25.9891V25.3007L60.5656 25.8667V26.5552Z" fill="#BFBFBF"/>
<path d="M32.5497 69V62H35.5797C36.2064 62 36.7464 62.1033 37.1997 62.31C37.6531 62.51 38.0031 62.8 38.2497 63.18C38.4964 63.56 38.6197 64.0133 38.6197 64.54C38.6197 65.06 38.4964 65.51 38.2497 65.89C38.0031 66.2633 37.6531 66.55 37.1997 66.75C36.7464 66.95 36.2064 67.05 35.5797 67.05H33.4497L34.1697 66.34V69H32.5497ZM36.9997 69L35.2497 66.46H36.9797L38.7497 69H36.9997ZM34.1697 66.52L33.4497 65.76H35.4897C35.9897 65.76 36.3631 65.6533 36.6097 65.44C36.8564 65.22 36.9797 64.92 36.9797 64.54C36.9797 64.1533 36.8564 63.8533 36.6097 63.64C36.3631 63.4267 35.9897 63.32 35.4897 63.32H33.4497L34.1697 62.55V66.52ZM38.9832 69L42.1032 62H43.7032L46.8332 69H45.1332L42.5732 62.82H43.2132L40.6432 69H38.9832ZM40.5432 67.5L40.9732 66.27H44.5732L45.0132 67.5H40.5432ZM47.5595 69V62H48.8995L51.8795 66.94H51.1695L54.0995 62H55.4295L55.4495 69H53.9295L53.9195 64.33H54.1995L51.8595 68.26H51.1295L48.7395 64.33H49.0795V69H47.5595Z" fill="#333333"/>
</g>
<defs>
<filter id="filter0_d_1_751" x="0" y="0" width="88" height="88" filterUnits="userSpaceOnUse" color-interpolation-filters="sRGB">
<feFlood flood-opacity="0" result="BackgroundImageFix"/>
<feColorMatrix in="SourceAlpha" type="matrix" values="0 0 0 0 0 0 0 0 0 0 0 0 0 0 0 0 0 0 127 0" result="hardAlpha"/>
<feOffset dy="4"/>
<feGaussianBlur stdDeviation="2"/>
<feComposite in2="hardAlpha" operator="out"/>
<feColorMatrix type="matrix" values="0 0 0 0 0 0 0 0 0 0 0 0 0 0 0 0 0 0 0.25 0"/>
<feBlend mode="normal" in2="BackgroundImageFix" result="effect1_dropShadow_1_751"/>
<feBlend mode="normal" in="SourceGraphic" in2="effect1_dropShadow_1_751" result="shape"/>
</filter>
</defs>
</svg>
