<svg width="107" height="8" viewBox="0 0 107 8" fill="none" xmlns="http://www.w3.org/2000/svg">
<path d="M2.07953 6.28613L0.247533 0.686132H1.59153L3.18353 5.64613H2.51153L4.17553 0.686132H5.37553L6.97553 5.64613H6.32753L7.95953 0.686132H9.19953L7.36753 6.28613H5.97553L4.55953 1.93413H4.92753L3.47153 6.28613H2.07953ZM12.5682 1.91813C12.9096 1.91813 13.2136 1.98747 13.4802 2.12613C13.7522 2.25947 13.9656 2.46747 14.1202 2.75013C14.2749 3.02747 14.3522 3.3848 14.3522 3.82213V6.28613H13.1042V4.01413C13.1042 3.66747 13.0269 3.41147 12.8722 3.24613C12.7229 3.0808 12.5096 2.99813 12.2322 2.99813C12.0349 2.99813 11.8562 3.0408 11.6962 3.12613C11.5416 3.20613 11.4189 3.33147 11.3282 3.50213C11.2429 3.6728 11.2002 3.89147 11.2002 4.15813V6.28613H9.95222V0.350132H11.2002V3.17413L10.9202 2.81413C11.0749 2.52613 11.2962 2.3048 11.5842 2.15013C11.8722 1.99547 12.2002 1.91813 12.5682 1.91813ZM17.6507 6.35013C17.1601 6.35013 16.7281 6.25413 16.3547 6.06213C15.9867 5.87013 15.7014 5.6088 15.4987 5.27813C15.2961 4.94213 15.1947 4.5608 15.1947 4.13413C15.1947 3.70213 15.2934 3.3208 15.4907 2.99013C15.6934 2.65413 15.9681 2.3928 16.3147 2.20613C16.6614 2.01413 17.0534 1.91813 17.4907 1.91813C17.9121 1.91813 18.2907 2.0088 18.6267 2.19013C18.9681 2.36613 19.2374 2.62213 19.4347 2.95813C19.6321 3.2888 19.7307 3.68613 19.7307 4.15013C19.7307 4.19813 19.7281 4.25413 19.7227 4.31813C19.7174 4.3768 19.7121 4.4328 19.7067 4.48613H16.2107V3.75813H19.0507L18.5707 3.97413C18.5707 3.75013 18.5254 3.55547 18.4347 3.39013C18.3441 3.2248 18.2187 3.0968 18.0587 3.00613C17.8987 2.91013 17.7121 2.86213 17.4987 2.86213C17.2854 2.86213 17.0961 2.91013 16.9307 3.00613C16.7707 3.0968 16.6454 3.22747 16.5547 3.39813C16.4641 3.56347 16.4187 3.7608 16.4187 3.99013V4.18213C16.4187 4.4168 16.4694 4.6248 16.5707 4.80613C16.6774 4.98213 16.8241 5.11813 17.0107 5.21413C17.2027 5.3048 17.4267 5.35013 17.6827 5.35013C17.9121 5.35013 18.1121 5.31547 18.2827 5.24613C18.4587 5.1768 18.6187 5.0728 18.7627 4.93413L19.4267 5.65413C19.2294 5.87813 18.9814 6.05147 18.6827 6.17413C18.3841 6.29147 18.0401 6.35013 17.6507 6.35013ZM23.1776 1.91813C23.5189 1.91813 23.8229 1.98747 24.0896 2.12613C24.3616 2.25947 24.5749 2.46747 24.7296 2.75013C24.8843 3.02747 24.9616 3.3848 24.9616 3.82213V6.28613H23.7136V4.01413C23.7136 3.66747 23.6363 3.41147 23.4816 3.24613C23.3323 3.0808 23.1189 2.99813 22.8416 2.99813C22.6443 2.99813 22.4656 3.0408 22.3056 3.12613C22.1509 3.20613 22.0283 3.33147 21.9376 3.50213C21.8523 3.6728 21.8096 3.89147 21.8096 4.15813V6.28613H20.5616V1.98213H21.7536V3.17413L21.5296 2.81413C21.6843 2.52613 21.9056 2.3048 22.1936 2.15013C22.4816 1.99547 22.8096 1.91813 23.1776 1.91813ZM26.5648 3.47813C26.3515 3.47813 26.1675 3.40613 26.0128 3.26213C25.8635 3.1128 25.7888 2.92347 25.7888 2.69413C25.7888 2.4648 25.8635 2.2808 26.0128 2.14213C26.1675 1.99813 26.3515 1.92613 26.5648 1.92613C26.7835 1.92613 26.9675 1.99813 27.1168 2.14213C27.2662 2.2808 27.3408 2.4648 27.3408 2.69413C27.3408 2.92347 27.2662 3.1128 27.1168 3.26213C26.9675 3.40613 26.7835 3.47813 26.5648 3.47813ZM26.5648 6.35013C26.3515 6.35013 26.1675 6.27813 26.0128 6.13413C25.8635 5.9848 25.7888 5.79547 25.7888 5.56613C25.7888 5.3368 25.8635 5.1528 26.0128 5.01413C26.1675 4.87013 26.3515 4.79813 26.5648 4.79813C26.7835 4.79813 26.9675 4.87013 27.1168 5.01413C27.2662 5.1528 27.3408 5.3368 27.3408 5.56613C27.3408 5.79547 27.2662 5.9848 27.1168 6.13413C26.9675 6.27813 26.7835 6.35013 26.5648 6.35013ZM32.9962 6.35013C32.6336 6.35013 32.3162 6.27013 32.0442 6.11013C31.7722 5.95013 31.5589 5.70747 31.4042 5.38213C31.2549 5.05147 31.1802 4.63547 31.1802 4.13413C31.1802 3.62747 31.2522 3.21147 31.3962 2.88613C31.5402 2.5608 31.7482 2.31813 32.0202 2.15813C32.2922 1.99813 32.6176 1.91813 32.9962 1.91813C33.4016 1.91813 33.7642 2.01147 34.0842 2.19813C34.4096 2.37947 34.6656 2.63547 34.8522 2.96613C35.0442 3.2968 35.1402 3.68613 35.1402 4.13413C35.1402 4.58747 35.0442 4.97947 34.8522 5.31013C34.6656 5.6408 34.4096 5.8968 34.0842 6.07813C33.7642 6.25947 33.4016 6.35013 32.9962 6.35013ZM30.4522 7.83813V1.98213H31.6442V2.86213L31.6202 4.14213L31.7002 5.41413V7.83813H30.4522ZM32.7802 5.32613C32.9882 5.32613 33.1722 5.27813 33.3322 5.18213C33.4976 5.08613 33.6282 4.95013 33.7242 4.77413C33.8256 4.5928 33.8762 4.37947 33.8762 4.13413C33.8762 3.88347 33.8256 3.67013 33.7242 3.49413C33.6282 3.31813 33.4976 3.18213 33.3322 3.08613C33.1722 2.99013 32.9882 2.94213 32.7802 2.94213C32.5722 2.94213 32.3856 2.99013 32.2202 3.08613C32.0549 3.18213 31.9242 3.31813 31.8282 3.49413C31.7322 3.67013 31.6842 3.88347 31.6842 4.13413C31.6842 4.37947 31.7322 4.5928 31.8282 4.77413C31.9242 4.95013 32.0549 5.08613 32.2202 5.18213C32.3856 5.27813 32.5722 5.32613 32.7802 5.32613ZM35.9757 6.28613V1.98213H37.1677V3.19813L36.9997 2.84613C37.1277 2.54213 37.333 2.3128 37.6157 2.15813C37.8983 1.99813 38.2423 1.91813 38.6477 1.91813V3.07013C38.5943 3.0648 38.5463 3.06213 38.5037 3.06213C38.461 3.0568 38.4157 3.05413 38.3677 3.05413C38.0263 3.05413 37.749 3.1528 37.5357 3.35013C37.3277 3.54213 37.2237 3.84347 37.2237 4.25413V6.28613H35.9757ZM41.4945 6.35013C41.0038 6.35013 40.5718 6.25413 40.1985 6.06213C39.8305 5.87013 39.5451 5.6088 39.3425 5.27813C39.1398 4.94213 39.0385 4.5608 39.0385 4.13413C39.0385 3.70213 39.1371 3.3208 39.3345 2.99013C39.5371 2.65413 39.8118 2.3928 40.1585 2.20613C40.5051 2.01413 40.8971 1.91813 41.3345 1.91813C41.7558 1.91813 42.1345 2.0088 42.4705 2.19013C42.8118 2.36613 43.0811 2.62213 43.2785 2.95813C43.4758 3.2888 43.5745 3.68613 43.5745 4.15013C43.5745 4.19813 43.5718 4.25413 43.5665 4.31813C43.5611 4.3768 43.5558 4.4328 43.5505 4.48613H40.0545V3.75813H42.8945L42.4145 3.97413C42.4145 3.75013 42.3691 3.55547 42.2785 3.39013C42.1878 3.2248 42.0625 3.0968 41.9025 3.00613C41.7425 2.91013 41.5558 2.86213 41.3425 2.86213C41.1291 2.86213 40.9398 2.91013 40.7745 3.00613C40.6145 3.0968 40.4891 3.22747 40.3985 3.39813C40.3078 3.56347 40.2625 3.7608 40.2625 3.99013V4.18213C40.2625 4.4168 40.3131 4.6248 40.4145 4.80613C40.5211 4.98213 40.6678 5.11813 40.8545 5.21413C41.0465 5.3048 41.2705 5.35013 41.5265 5.35013C41.7558 5.35013 41.9558 5.31547 42.1265 5.24613C42.3025 5.1768 42.4625 5.0728 42.6065 4.93413L43.2705 5.65413C43.0731 5.87813 42.8251 6.05147 42.5265 6.17413C42.2278 6.29147 41.8838 6.35013 41.4945 6.35013ZM45.8533 6.35013C45.4853 6.35013 45.1307 6.30747 44.7893 6.22213C44.4533 6.13147 44.1867 6.01947 43.9893 5.88613L44.4053 4.99013C44.6027 5.1128 44.8347 5.21413 45.1013 5.29413C45.3733 5.3688 45.64 5.40613 45.9013 5.40613C46.1893 5.40613 46.392 5.37147 46.5093 5.30213C46.632 5.2328 46.6933 5.1368 46.6933 5.01413C46.6933 4.9128 46.6453 4.83813 46.5493 4.79013C46.4587 4.7368 46.336 4.6968 46.1813 4.67013C46.0267 4.64347 45.856 4.6168 45.6693 4.59013C45.488 4.56347 45.304 4.5288 45.1173 4.48613C44.9307 4.43813 44.76 4.3688 44.6053 4.27813C44.4507 4.18747 44.3253 4.0648 44.2293 3.91013C44.1387 3.75547 44.0933 3.55547 44.0933 3.31013C44.0933 3.03813 44.1707 2.79813 44.3253 2.59013C44.4853 2.38213 44.7147 2.21947 45.0133 2.10213C45.312 1.97947 45.6693 1.91813 46.0853 1.91813C46.3787 1.91813 46.6773 1.95013 46.9813 2.01413C47.2853 2.07813 47.5387 2.17147 47.7413 2.29413L47.3253 3.18213C47.1173 3.05947 46.9067 2.9768 46.6933 2.93413C46.4853 2.88613 46.2827 2.86213 46.0853 2.86213C45.808 2.86213 45.6053 2.89947 45.4773 2.97413C45.3493 3.0488 45.2853 3.1448 45.2853 3.26213C45.2853 3.3688 45.3307 3.4488 45.4213 3.50213C45.5173 3.55547 45.6427 3.59813 45.7973 3.63013C45.952 3.66213 46.12 3.69147 46.3013 3.71813C46.488 3.73947 46.6747 3.77413 46.8613 3.82213C47.048 3.87013 47.216 3.93947 47.3653 4.03013C47.52 4.11547 47.6453 4.23547 47.7413 4.39013C47.8373 4.53947 47.8853 4.7368 47.8853 4.98213C47.8853 5.2488 47.8053 5.48613 47.6453 5.69413C47.4853 5.8968 47.2533 6.0568 46.9493 6.17413C46.6507 6.29147 46.2853 6.35013 45.8533 6.35013ZM50.1033 6.35013C49.7353 6.35013 49.3807 6.30747 49.0393 6.22213C48.7033 6.13147 48.4367 6.01947 48.2393 5.88613L48.6553 4.99013C48.8527 5.1128 49.0847 5.21413 49.3513 5.29413C49.6233 5.3688 49.89 5.40613 50.1513 5.40613C50.4393 5.40613 50.642 5.37147 50.7593 5.30213C50.882 5.2328 50.9433 5.1368 50.9433 5.01413C50.9433 4.9128 50.8953 4.83813 50.7993 4.79013C50.7087 4.7368 50.586 4.6968 50.4313 4.67013C50.2767 4.64347 50.106 4.6168 49.9193 4.59013C49.738 4.56347 49.554 4.5288 49.3673 4.48613C49.1807 4.43813 49.01 4.3688 48.8553 4.27813C48.7007 4.18747 48.5753 4.0648 48.4793 3.91013C48.3887 3.75547 48.3433 3.55547 48.3433 3.31013C48.3433 3.03813 48.4207 2.79813 48.5753 2.59013C48.7353 2.38213 48.9647 2.21947 49.2633 2.10213C49.562 1.97947 49.9193 1.91813 50.3353 1.91813C50.6287 1.91813 50.9273 1.95013 51.2313 2.01413C51.5353 2.07813 51.7887 2.17147 51.9913 2.29413L51.5753 3.18213C51.3673 3.05947 51.1567 2.9768 50.9433 2.93413C50.7353 2.88613 50.5327 2.86213 50.3353 2.86213C50.058 2.86213 49.8553 2.89947 49.7273 2.97413C49.5993 3.0488 49.5353 3.1448 49.5353 3.26213C49.5353 3.3688 49.5807 3.4488 49.6713 3.50213C49.7673 3.55547 49.8927 3.59813 50.0473 3.63013C50.202 3.66213 50.37 3.69147 50.5513 3.71813C50.738 3.73947 50.9247 3.77413 51.1113 3.82213C51.298 3.87013 51.466 3.93947 51.6153 4.03013C51.77 4.11547 51.8953 4.23547 51.9913 4.39013C52.0873 4.53947 52.1353 4.7368 52.1353 4.98213C52.1353 5.2488 52.0553 5.48613 51.8953 5.69413C51.7353 5.8968 51.5033 6.0568 51.1993 6.17413C50.9007 6.29147 50.5353 6.35013 50.1033 6.35013ZM56.619 6.35013C56.251 6.35013 55.8963 6.30747 55.555 6.22213C55.219 6.13147 54.9523 6.01947 54.755 5.88613L55.171 4.99013C55.3683 5.1128 55.6003 5.21413 55.867 5.29413C56.139 5.3688 56.4056 5.40613 56.667 5.40613C56.955 5.40613 57.1576 5.37147 57.275 5.30213C57.3976 5.2328 57.459 5.1368 57.459 5.01413C57.459 4.9128 57.411 4.83813 57.315 4.79013C57.2243 4.7368 57.1016 4.6968 56.947 4.67013C56.7923 4.64347 56.6216 4.6168 56.435 4.59013C56.2536 4.56347 56.0696 4.5288 55.883 4.48613C55.6963 4.43813 55.5256 4.3688 55.371 4.27813C55.2163 4.18747 55.091 4.0648 54.995 3.91013C54.9043 3.75547 54.859 3.55547 54.859 3.31013C54.859 3.03813 54.9363 2.79813 55.091 2.59013C55.251 2.38213 55.4803 2.21947 55.779 2.10213C56.0776 1.97947 56.435 1.91813 56.851 1.91813C57.1443 1.91813 57.443 1.95013 57.747 2.01413C58.051 2.07813 58.3043 2.17147 58.507 2.29413L58.091 3.18213C57.883 3.05947 57.6723 2.9768 57.459 2.93413C57.251 2.88613 57.0483 2.86213 56.851 2.86213C56.5736 2.86213 56.371 2.89947 56.243 2.97413C56.115 3.0488 56.051 3.1448 56.051 3.26213C56.051 3.3688 56.0963 3.4488 56.187 3.50213C56.283 3.55547 56.4083 3.59813 56.563 3.63013C56.7176 3.66213 56.8856 3.69147 57.067 3.71813C57.2536 3.73947 57.4403 3.77413 57.627 3.82213C57.8136 3.87013 57.9816 3.93947 58.131 4.03013C58.2856 4.11547 58.411 4.23547 58.507 4.39013C58.603 4.53947 58.651 4.7368 58.651 4.98213C58.651 5.2488 58.571 5.48613 58.411 5.69413C58.251 5.8968 58.019 6.0568 57.715 6.17413C57.4163 6.29147 57.051 6.35013 56.619 6.35013ZM61.181 6.35013C60.6743 6.35013 60.2796 6.22213 59.997 5.96613C59.7143 5.7048 59.573 5.31813 59.573 4.80613V1.03013H60.821V4.79013C60.821 4.97147 60.869 5.1128 60.965 5.21413C61.061 5.31013 61.1916 5.35813 61.357 5.35813C61.5543 5.35813 61.7223 5.3048 61.861 5.19813L62.197 6.07813C62.069 6.1688 61.9143 6.23813 61.733 6.28613C61.557 6.3288 61.373 6.35013 61.181 6.35013ZM58.909 3.03813V2.07813H61.893V3.03813H58.909ZM65.5375 6.28613V5.44613L65.4575 5.26213V3.75813C65.4575 3.49147 65.3749 3.28347 65.2095 3.13413C65.0495 2.9848 64.8015 2.91013 64.4655 2.91013C64.2362 2.91013 64.0095 2.94747 63.7855 3.02213C63.5669 3.09147 63.3802 3.18747 63.2255 3.31013L62.7775 2.43813C63.0122 2.2728 63.2949 2.1448 63.6255 2.05413C63.9562 1.96347 64.2922 1.91813 64.6335 1.91813C65.2895 1.91813 65.7989 2.0728 66.1615 2.38213C66.5242 2.69147 66.7055 3.17413 66.7055 3.83013V6.28613H65.5375ZM64.2255 6.35013C63.8895 6.35013 63.6015 6.29413 63.3615 6.18213C63.1215 6.0648 62.9375 5.90747 62.8095 5.71013C62.6815 5.5128 62.6175 5.29147 62.6175 5.04613C62.6175 4.79013 62.6789 4.56613 62.8015 4.37413C62.9295 4.18213 63.1295 4.0328 63.4015 3.92613C63.6735 3.81413 64.0282 3.75813 64.4655 3.75813H65.6095V4.48613H64.6015C64.3082 4.48613 64.1055 4.53413 63.9935 4.63013C63.8869 4.72613 63.8335 4.84613 63.8335 4.99013C63.8335 5.15013 63.8949 5.27813 64.0175 5.37413C64.1455 5.4648 64.3189 5.51013 64.5375 5.51013C64.7455 5.51013 64.9322 5.46213 65.0975 5.36613C65.2629 5.2648 65.3829 5.11813 65.4575 4.92613L65.6495 5.50213C65.5589 5.77947 65.3935 5.99013 65.1535 6.13413C64.9135 6.27813 64.6042 6.35013 64.2255 6.35013ZM67.835 6.28613V1.98213H69.027V3.19813L68.859 2.84613C68.987 2.54213 69.1924 2.3128 69.475 2.15813C69.7577 1.99813 70.1017 1.91813 70.507 1.91813V3.07013C70.4537 3.0648 70.4057 3.06213 70.363 3.06213C70.3204 3.0568 70.275 3.05413 70.227 3.05413C69.8857 3.05413 69.6084 3.1528 69.395 3.35013C69.187 3.54213 69.083 3.84347 69.083 4.25413V6.28613H67.835ZM73.1575 6.35013C72.6509 6.35013 72.2562 6.22213 71.9735 5.96613C71.6909 5.7048 71.5495 5.31813 71.5495 4.80613V1.03013H72.7975V4.79013C72.7975 4.97147 72.8455 5.1128 72.9415 5.21413C73.0375 5.31013 73.1682 5.35813 73.3335 5.35813C73.5309 5.35813 73.6989 5.3048 73.8375 5.19813L74.1735 6.07813C74.0455 6.1688 73.8909 6.23813 73.7095 6.28613C73.5335 6.3288 73.3495 6.35013 73.1575 6.35013ZM70.8855 3.03813V2.07813H73.8695V3.03813H70.8855ZM79.6837 6.35013C79.3051 6.35013 78.9797 6.27013 78.7077 6.11013C78.4357 5.95013 78.2277 5.70747 78.0837 5.38213C77.9397 5.05147 77.8677 4.63547 77.8677 4.13413C77.8677 3.62747 77.9424 3.21147 78.0917 2.88613C78.2464 2.5608 78.4597 2.31813 78.7317 2.15813C79.0037 1.99813 79.3211 1.91813 79.6837 1.91813C80.0891 1.91813 80.4517 2.0088 80.7717 2.19013C81.0971 2.37147 81.3531 2.62747 81.5397 2.95813C81.7317 3.2888 81.8277 3.6808 81.8277 4.13413C81.8277 4.58213 81.7317 4.97147 81.5397 5.30213C81.3531 5.6328 81.0971 5.89147 80.7717 6.07813C80.4517 6.25947 80.0891 6.35013 79.6837 6.35013ZM77.1397 6.28613V0.350132H78.3877V2.85413L78.3077 4.12613L78.3317 5.40613V6.28613H77.1397ZM79.4677 5.32613C79.6757 5.32613 79.8597 5.27813 80.0197 5.18213C80.1851 5.08613 80.3157 4.95013 80.4117 4.77413C80.5131 4.5928 80.5637 4.37947 80.5637 4.13413C80.5637 3.88347 80.5131 3.67013 80.4117 3.49413C80.3157 3.31813 80.1851 3.18213 80.0197 3.08613C79.8597 2.99013 79.6757 2.94213 79.4677 2.94213C79.2597 2.94213 79.0731 2.99013 78.9077 3.08613C78.7424 3.18213 78.6117 3.31813 78.5157 3.49413C78.4197 3.67013 78.3717 3.88347 78.3717 4.13413C78.3717 4.37947 78.4197 4.5928 78.5157 4.77413C78.6117 4.95013 78.7424 5.08613 78.9077 5.18213C79.0731 5.27813 79.2597 5.32613 79.4677 5.32613ZM84.4792 6.35013C84.1218 6.35013 83.8018 6.2808 83.5192 6.14213C83.2418 6.00347 83.0258 5.7928 82.8712 5.51013C82.7165 5.22213 82.6392 4.8568 82.6392 4.41413V1.98213H83.8872V4.23013C83.8872 4.58747 83.9618 4.85147 84.1112 5.02213C84.2658 5.18747 84.4818 5.27013 84.7592 5.27013C84.9512 5.27013 85.1218 5.23013 85.2712 5.15013C85.4205 5.0648 85.5378 4.9368 85.6232 4.76613C85.7085 4.59013 85.7512 4.37147 85.7512 4.11013V1.98213H86.9992V6.28613H85.8152V5.10213L86.0312 5.44613C85.8872 5.7448 85.6738 5.97147 85.3912 6.12613C85.1138 6.27547 84.8098 6.35013 84.4792 6.35013ZM89.9153 6.35013C89.4087 6.35013 89.014 6.22213 88.7313 5.96613C88.4487 5.7048 88.3073 5.31813 88.3073 4.80613V1.03013H89.5553V4.79013C89.5553 4.97147 89.6033 5.1128 89.6993 5.21413C89.7953 5.31013 89.926 5.35813 90.0913 5.35813C90.2887 5.35813 90.4567 5.3048 90.5953 5.19813L90.9313 6.07813C90.8033 6.1688 90.6487 6.23813 90.4673 6.28613C90.2913 6.3288 90.1073 6.35013 89.9153 6.35013ZM87.6433 3.03813V2.07813H90.6273V3.03813H87.6433ZM93.2982 6.35013C92.7915 6.35013 92.3968 6.22213 92.1142 5.96613C91.8315 5.7048 91.6902 5.31813 91.6902 4.80613V1.03013H92.9382V4.79013C92.9382 4.97147 92.9862 5.1128 93.0822 5.21413C93.1782 5.31013 93.3088 5.35813 93.4742 5.35813C93.6715 5.35813 93.8395 5.3048 93.9782 5.19813L94.3142 6.07813C94.1862 6.1688 94.0315 6.23813 93.8502 6.28613C93.6742 6.3288 93.4902 6.35013 93.2982 6.35013ZM91.0262 3.03813V2.07813H94.0102V3.03813H91.0262ZM96.9299 6.35013C96.4712 6.35013 96.0632 6.25413 95.7059 6.06213C95.3539 5.87013 95.0739 5.6088 94.8659 5.27813C94.6632 4.94213 94.5619 4.5608 94.5619 4.13413C94.5619 3.70213 94.6632 3.3208 94.8659 2.99013C95.0739 2.65413 95.3539 2.3928 95.7059 2.20613C96.0632 2.01413 96.4712 1.91813 96.9299 1.91813C97.3832 1.91813 97.7886 2.01413 98.1459 2.20613C98.5032 2.3928 98.7832 2.65147 98.9859 2.98213C99.1886 3.3128 99.2899 3.6968 99.2899 4.13413C99.2899 4.5608 99.1886 4.94213 98.9859 5.27813C98.7832 5.6088 98.5032 5.87013 98.1459 6.06213C97.7886 6.25413 97.3832 6.35013 96.9299 6.35013ZM96.9299 5.32613C97.1379 5.32613 97.3246 5.27813 97.4899 5.18213C97.6552 5.08613 97.7859 4.95013 97.8819 4.77413C97.9779 4.5928 98.0259 4.37947 98.0259 4.13413C98.0259 3.88347 97.9779 3.67013 97.8819 3.49413C97.7859 3.31813 97.6552 3.18213 97.4899 3.08613C97.3246 2.99013 97.1379 2.94213 96.9299 2.94213C96.7219 2.94213 96.5352 2.99013 96.3699 3.08613C96.2046 3.18213 96.0712 3.31813 95.9699 3.49413C95.8739 3.67013 95.8259 3.88347 95.8259 4.13413C95.8259 4.37947 95.8739 4.5928 95.9699 4.77413C96.0712 4.95013 96.2046 5.08613 96.3699 5.18213C96.5352 5.27813 96.7219 5.32613 96.9299 5.32613ZM102.74 1.91813C103.081 1.91813 103.385 1.98747 103.652 2.12613C103.924 2.25947 104.137 2.46747 104.292 2.75013C104.447 3.02747 104.524 3.3848 104.524 3.82213V6.28613H103.276V4.01413C103.276 3.66747 103.199 3.41147 103.044 3.24613C102.895 3.0808 102.681 2.99813 102.404 2.99813C102.207 2.99813 102.028 3.0408 101.868 3.12613C101.713 3.20613 101.591 3.33147 101.5 3.50213C101.415 3.6728 101.372 3.89147 101.372 4.15813V6.28613H100.124V1.98213H101.316V3.17413L101.092 2.81413C101.247 2.52613 101.468 2.3048 101.756 2.15013C102.044 1.99547 102.372 1.91813 102.74 1.91813ZM106.127 6.35013C105.914 6.35013 105.73 6.27813 105.575 6.13413C105.426 5.9848 105.351 5.79547 105.351 5.56613C105.351 5.3368 105.426 5.1528 105.575 5.01413C105.73 4.87013 105.914 4.79813 106.127 4.79813C106.346 4.79813 106.53 4.87013 106.679 5.01413C106.829 5.1528 106.903 5.3368 106.903 5.56613C106.903 5.79547 106.829 5.9848 106.679 6.13413C106.53 6.27813 106.346 6.35013 106.127 6.35013Z" fill="#333333"/>
</svg>
