<svg width="180" height="183" viewBox="0 0 180 183" fill="none" xmlns="http://www.w3.org/2000/svg">
<g filter="url(#filter0_d_11_417)">
<rect width="180" height="180" rx="12.8571" fill="#F2F2F2"/>
<path fill-rule="evenodd" clip-rule="evenodd" d="M170.357 45.0004C170.357 37.929 165.857 33.429 158.786 33.429C133.661 33.429 149.172 33.429 131.143 33.429C126.174 33.429 123.933 31.9912 121.179 29.2504C115.195 23.6702 100.146 14.7861 67.1318 14.7861C20.587 14.7861 9.64282 33.429 9.64282 33.429C9.64282 33.429 9.6431 36.463 9.64324 45.0004C9.64324 51.429 14.7857 56.5718 21.2143 56.5718C38.242 56.5718 66.8571 56.5718 66.8571 56.5718L72.6428 61.7147H96.4285L101.571 56.5718C101.571 56.5718 123.448 56.5718 158.786 56.5718C165.857 56.5718 170.357 52.0718 170.357 45.0004C170.357 46.2009 170.357 43.1569 170.357 45.0004Z" fill="#FC79FF"/>
<path fill-rule="evenodd" clip-rule="evenodd" d="M167.143 45C167.143 50.1429 164.571 53.3571 158.786 53.3571L100.286 53.3571L95.1429 58.5H73.9286L68.1429 53.3571C68.1429 53.3571 37.5386 53.3571 21.2143 53.3571C16.0485 53.3571 12.8571 49.5 12.8571 45H9.64282C9.64282 51.4286 14.7857 56.5714 21.2143 56.5714C38.2119 56.5714 66.8571 56.5714 66.8571 56.5714L72.6603 61.7143H96.4286L101.571 56.5714L158.786 56.5714C165.857 56.5714 170.357 52.0714 170.357 45C169.393 45 168.429 45 167.143 45Z" fill="black" fill-opacity="0.25"/>
<path fill-rule="evenodd" clip-rule="evenodd" d="M9.64282 45.0004H12.8571V34.7147C12.8571 34.7147 22.4955 18.0004 67.0408 18.0004C97.291 18.0004 112.858 26.1294 119.25 31.5004C122.331 34.0912 126.457 36.6125 130.5 36.6433C135.964 36.6433 148.799 36.6433 158.786 36.6433C163.906 36.6433 167.143 40.179 167.143 44.3576V45.0004H169.714H170.357C170.357 37.929 165.857 33.429 158.786 33.429C133.71 33.429 148.505 33.429 130.5 33.429C126 33.429 123.537 31.603 120.995 29.0618C115.03 23.4646 100.01 14.7861 67.0293 14.7861C20.5137 14.7861 9.64282 33.429 9.64282 33.429L9.64282 45.0004Z" fill="white" fill-opacity="0.5"/>
<path d="M19.4475 46.3821C19.0102 46.3821 18.6022 46.3101 18.2235 46.1661C17.8502 46.0221 17.5249 45.8195 17.2475 45.5581C16.9755 45.2968 16.7622 44.9901 16.6075 44.6381C16.4582 44.2861 16.3835 43.9021 16.3835 43.4861C16.3835 43.0701 16.4582 42.6861 16.6075 42.3341C16.7622 41.9821 16.9782 41.6755 17.2555 41.4141C17.5329 41.1528 17.8582 40.9501 18.2315 40.8061C18.6049 40.6621 19.0102 40.5901 19.4475 40.5901C19.8902 40.5901 20.2955 40.6621 20.6635 40.8061C21.0369 40.9501 21.3595 41.1528 21.6315 41.4141C21.9089 41.6701 22.1249 41.9741 22.2795 42.3261C22.4342 42.6781 22.5115 43.0648 22.5115 43.4861C22.5115 43.9021 22.4342 44.2888 22.2795 44.6461C22.1249 44.9981 21.9089 45.3048 21.6315 45.5661C21.3595 45.8221 21.0369 46.0221 20.6635 46.1661C20.2955 46.3101 19.8902 46.3821 19.4475 46.3821ZM21.2795 47.5741C21.0609 47.5741 20.8529 47.5501 20.6555 47.5021C20.4635 47.4541 20.2715 47.3768 20.0795 47.2701C19.8929 47.1635 19.6955 47.0195 19.4875 46.8381C19.2849 46.6568 19.0635 46.4328 18.8235 46.1661L20.1835 45.8221C20.3275 46.0195 20.4609 46.1768 20.5835 46.2941C20.7062 46.4115 20.8235 46.4941 20.9355 46.5421C21.0529 46.5901 21.1755 46.6141 21.3035 46.6141C21.6449 46.6141 21.9489 46.4755 22.2155 46.1981L22.7915 46.8861C22.4129 47.3448 21.9089 47.5741 21.2795 47.5741ZM19.4475 45.2781C19.6982 45.2781 19.9275 45.2355 20.1355 45.1501C20.3489 45.0648 20.5355 44.9421 20.6955 44.7821C20.8555 44.6221 20.9782 44.4328 21.0635 44.2141C21.1542 43.9901 21.1995 43.7475 21.1995 43.4861C21.1995 43.2195 21.1542 42.9768 21.0635 42.7581C20.9782 42.5395 20.8555 42.3501 20.6955 42.1901C20.5355 42.0301 20.3489 41.9075 20.1355 41.8221C19.9275 41.7368 19.6982 41.6941 19.4475 41.6941C19.1969 41.6941 18.9649 41.7368 18.7515 41.8221C18.5382 41.9075 18.3515 42.0301 18.1915 42.1901C18.0369 42.3501 17.9142 42.5395 17.8235 42.7581C17.7382 42.9768 17.6955 43.2195 17.6955 43.4861C17.6955 43.7475 17.7382 43.9901 17.8235 44.2141C17.9142 44.4328 18.0369 44.6221 18.1915 44.7821C18.3515 44.9421 18.5382 45.0648 18.7515 45.1501C18.9649 45.2355 19.1969 45.2781 19.4475 45.2781ZM25.2135 46.3501C24.8562 46.3501 24.5362 46.2808 24.2535 46.1421C23.9762 46.0035 23.7602 45.7928 23.6055 45.5101C23.4509 45.2221 23.3735 44.8568 23.3735 44.4141V41.9821H24.6215V44.2301C24.6215 44.5875 24.6962 44.8515 24.8455 45.0221C25.0002 45.1875 25.2162 45.2701 25.4935 45.2701C25.6855 45.2701 25.8562 45.2301 26.0055 45.1501C26.1549 45.0648 26.2722 44.9368 26.3575 44.7661C26.4429 44.5901 26.4855 44.3715 26.4855 44.1101V41.9821H27.7335V46.2861H26.5495V45.1021L26.7655 45.4461C26.6215 45.7448 26.4082 45.9715 26.1255 46.1261C25.8482 46.2755 25.5442 46.3501 25.2135 46.3501ZM31.5297 46.2861V45.4461L31.4497 45.2621V43.7581C31.4497 43.4915 31.3671 43.2835 31.2017 43.1341C31.0417 42.9848 30.7937 42.9101 30.4577 42.9101C30.2284 42.9101 30.0017 42.9475 29.7777 43.0221C29.5591 43.0915 29.3724 43.1875 29.2177 43.3101L28.7697 42.4381C29.0044 42.2728 29.2871 42.1448 29.6177 42.0541C29.9484 41.9635 30.2844 41.9181 30.6257 41.9181C31.2817 41.9181 31.7911 42.0728 32.1537 42.3821C32.5164 42.6915 32.6977 43.1741 32.6977 43.8301V46.2861H31.5297ZM30.2177 46.3501C29.8817 46.3501 29.5937 46.2941 29.3537 46.1821C29.1137 46.0648 28.9297 45.9075 28.8017 45.7101C28.6737 45.5128 28.6097 45.2915 28.6097 45.0461C28.6097 44.7901 28.6711 44.5661 28.7937 44.3741C28.9217 44.1821 29.1217 44.0328 29.3937 43.9261C29.6657 43.8141 30.0204 43.7581 30.4577 43.7581H31.6017V44.4861H30.5937C30.3004 44.4861 30.0977 44.5341 29.9857 44.6301C29.8791 44.7261 29.8257 44.8461 29.8257 44.9901C29.8257 45.1501 29.8871 45.2781 30.0097 45.3741C30.1377 45.4648 30.3111 45.5101 30.5297 45.5101C30.7377 45.5101 30.9244 45.4621 31.0897 45.3661C31.2551 45.2648 31.3751 45.1181 31.4497 44.9261L31.6417 45.5021C31.5511 45.7795 31.3857 45.9901 31.1457 46.1341C30.9057 46.2781 30.5964 46.3501 30.2177 46.3501ZM36.4432 41.9181C36.7846 41.9181 37.0886 41.9875 37.3552 42.1261C37.6272 42.2595 37.8406 42.4675 37.9952 42.7501C38.1499 43.0275 38.2272 43.3848 38.2272 43.8221V46.2861H36.9792V44.0141C36.9792 43.6675 36.9019 43.4115 36.7472 43.2461C36.5979 43.0808 36.3846 42.9981 36.1072 42.9981C35.9099 42.9981 35.7312 43.0408 35.5712 43.1261C35.4166 43.2061 35.2939 43.3315 35.2032 43.5021C35.1179 43.6728 35.0752 43.8915 35.0752 44.1581V46.2861H33.8272V41.9821H35.0192V43.1741L34.7952 42.8141C34.9499 42.5261 35.1712 42.3048 35.4592 42.1501C35.7472 41.9955 36.0752 41.9181 36.4432 41.9181ZM41.2377 46.3501C40.8324 46.3501 40.4671 46.2595 40.1417 46.0781C39.8164 45.8915 39.5577 45.6328 39.3657 45.3021C39.1791 44.9715 39.0857 44.5821 39.0857 44.1341C39.0857 43.6808 39.1791 43.2888 39.3657 42.9581C39.5577 42.6275 39.8164 42.3715 40.1417 42.1901C40.4671 42.0088 40.8324 41.9181 41.2377 41.9181C41.6004 41.9181 41.9177 41.9981 42.1897 42.1581C42.4617 42.3181 42.6724 42.5608 42.8217 42.8861C42.9711 43.2115 43.0457 43.6275 43.0457 44.1341C43.0457 44.6355 42.9737 45.0515 42.8297 45.3821C42.6857 45.7075 42.4777 45.9501 42.2057 46.1101C41.9391 46.2701 41.6164 46.3501 41.2377 46.3501ZM41.4537 45.3261C41.6564 45.3261 41.8404 45.2781 42.0057 45.1821C42.1711 45.0861 42.3017 44.9501 42.3977 44.7741C42.4991 44.5928 42.5497 44.3795 42.5497 44.1341C42.5497 43.8835 42.4991 43.6701 42.3977 43.4941C42.3017 43.3181 42.1711 43.1821 42.0057 43.0861C41.8404 42.9901 41.6564 42.9421 41.4537 42.9421C41.2457 42.9421 41.0591 42.9901 40.8937 43.0861C40.7284 43.1821 40.5951 43.3181 40.4937 43.4941C40.3977 43.6701 40.3497 43.8835 40.3497 44.1341C40.3497 44.3795 40.3977 44.5928 40.4937 44.7741C40.5951 44.9501 40.7284 45.0861 40.8937 45.1821C41.0591 45.2781 41.2457 45.3261 41.4537 45.3261ZM42.5817 46.2861V45.4061L42.6057 44.1261L42.5257 42.8541V40.3501H43.7737V46.2861H42.5817ZM46.9768 46.3501C46.5181 46.3501 46.1101 46.2541 45.7528 46.0621C45.4008 45.8701 45.1208 45.6088 44.9128 45.2781C44.7101 44.9421 44.6088 44.5608 44.6088 44.1341C44.6088 43.7021 44.7101 43.3208 44.9128 42.9901C45.1208 42.6541 45.4008 42.3928 45.7528 42.2061C46.1101 42.0141 46.5181 41.9181 46.9768 41.9181C47.4301 41.9181 47.8355 42.0141 48.1928 42.2061C48.5501 42.3928 48.8301 42.6515 49.0328 42.9821C49.2355 43.3128 49.3368 43.6968 49.3368 44.1341C49.3368 44.5608 49.2355 44.9421 49.0328 45.2781C48.8301 45.6088 48.5501 45.8701 48.1928 46.0621C47.8355 46.2541 47.4301 46.3501 46.9768 46.3501ZM46.9768 45.3261C47.1848 45.3261 47.3715 45.2781 47.5368 45.1821C47.7021 45.0861 47.8328 44.9501 47.9288 44.7741C48.0248 44.5928 48.0728 44.3795 48.0728 44.1341C48.0728 43.8835 48.0248 43.6701 47.9288 43.4941C47.8328 43.3181 47.7021 43.1821 47.5368 43.0861C47.3715 42.9901 47.1848 42.9421 46.9768 42.9421C46.7688 42.9421 46.5821 42.9901 46.4168 43.0861C46.2514 43.1821 46.1181 43.3181 46.0168 43.4941C45.9208 43.6701 45.8728 43.8835 45.8728 44.1341C45.8728 44.3795 45.9208 44.5928 46.0168 44.7741C46.1181 44.9501 46.2514 45.0861 46.4168 45.1821C46.5821 45.2781 46.7688 45.3261 46.9768 45.3261ZM50.643 43.4781C50.4296 43.4781 50.2456 43.4061 50.091 43.2621C49.9416 43.1128 49.867 42.9235 49.867 42.6941C49.867 42.4648 49.9416 42.2808 50.091 42.1421C50.2456 41.9981 50.4296 41.9261 50.643 41.9261C50.8616 41.9261 51.0456 41.9981 51.195 42.1421C51.3443 42.2808 51.419 42.4648 51.419 42.6941C51.419 42.9235 51.3443 43.1128 51.195 43.2621C51.0456 43.4061 50.8616 43.4781 50.643 43.4781ZM50.643 46.3501C50.4296 46.3501 50.2456 46.2781 50.091 46.1341C49.9416 45.9848 49.867 45.7955 49.867 45.5661C49.867 45.3368 49.9416 45.1528 50.091 45.0141C50.2456 44.8701 50.4296 44.7981 50.643 44.7981C50.8616 44.7981 51.0456 44.8701 51.195 45.0141C51.3443 45.1528 51.419 45.3368 51.419 45.5661C51.419 45.7955 51.3443 45.9848 51.195 46.1341C51.0456 46.2781 50.8616 46.3501 50.643 46.3501ZM57.0743 46.3501C56.7117 46.3501 56.3943 46.2701 56.1223 46.1101C55.8503 45.9501 55.637 45.7075 55.4823 45.3821C55.333 45.0515 55.2583 44.6355 55.2583 44.1341C55.2583 43.6275 55.3303 43.2115 55.4743 42.8861C55.6183 42.5608 55.8263 42.3181 56.0983 42.1581C56.3703 41.9981 56.6957 41.9181 57.0743 41.9181C57.4797 41.9181 57.8423 42.0115 58.1623 42.1981C58.4877 42.3795 58.7437 42.6355 58.9303 42.9661C59.1223 43.2968 59.2183 43.6861 59.2183 44.1341C59.2183 44.5875 59.1223 44.9795 58.9303 45.3101C58.7437 45.6408 58.4877 45.8968 58.1623 46.0781C57.8423 46.2595 57.4797 46.3501 57.0743 46.3501ZM54.5303 47.8381V41.9821H55.7223V42.8621L55.6983 44.1421L55.7783 45.4141V47.8381H54.5303ZM56.8583 45.3261C57.0663 45.3261 57.2503 45.2781 57.4103 45.1821C57.5757 45.0861 57.7063 44.9501 57.8023 44.7741C57.9037 44.5928 57.9543 44.3795 57.9543 44.1341C57.9543 43.8835 57.9037 43.6701 57.8023 43.4941C57.7063 43.3181 57.5757 43.1821 57.4103 43.0861C57.2503 42.9901 57.0663 42.9421 56.8583 42.9421C56.6503 42.9421 56.4637 42.9901 56.2983 43.0861C56.133 43.1821 56.0023 43.3181 55.9063 43.4941C55.8103 43.6701 55.7623 43.8835 55.7623 44.1341C55.7623 44.3795 55.8103 44.5928 55.9063 44.7741C56.0023 44.9501 56.133 45.0861 56.2983 45.1821C56.4637 45.2781 56.6503 45.3261 56.8583 45.3261ZM60.0538 46.2861V41.9821H61.2458V43.1981L61.0778 42.8461C61.2058 42.5421 61.4111 42.3128 61.6938 42.1581C61.9764 41.9981 62.3204 41.9181 62.7258 41.9181V43.0701C62.6725 43.0648 62.6245 43.0621 62.5818 43.0621C62.5391 43.0568 62.4938 43.0541 62.4458 43.0541C62.1044 43.0541 61.8271 43.1528 61.6138 43.3501C61.4058 43.5421 61.3018 43.8435 61.3018 44.2541V46.2861H60.0538ZM65.5726 46.3501C65.0819 46.3501 64.6499 46.2541 64.2766 46.0621C63.9086 45.8701 63.6233 45.6088 63.4206 45.2781C63.2179 44.9421 63.1166 44.5608 63.1166 44.1341C63.1166 43.7021 63.2153 43.3208 63.4126 42.9901C63.6153 42.6541 63.8899 42.3928 64.2366 42.2061C64.5833 42.0141 64.9753 41.9181 65.4126 41.9181C65.8339 41.9181 66.2126 42.0088 66.5486 42.1901C66.8899 42.3661 67.1593 42.6221 67.3566 42.9581C67.5539 43.2888 67.6526 43.6861 67.6526 44.1501C67.6526 44.1981 67.6499 44.2541 67.6446 44.3181C67.6393 44.3768 67.6339 44.4328 67.6286 44.4861H64.1326V43.7581H66.9726L66.4926 43.9741C66.4926 43.7501 66.4473 43.5555 66.3566 43.3901C66.2659 43.2248 66.1406 43.0968 65.9806 43.0061C65.8206 42.9101 65.6339 42.8621 65.4206 42.8621C65.2073 42.8621 65.0179 42.9101 64.8526 43.0061C64.6926 43.0968 64.5673 43.2275 64.4766 43.3981C64.3859 43.5635 64.3406 43.7608 64.3406 43.9901V44.1821C64.3406 44.4168 64.3913 44.6248 64.4926 44.8061C64.5993 44.9821 64.7459 45.1181 64.9326 45.2141C65.1246 45.3048 65.3486 45.3501 65.6046 45.3501C65.8339 45.3501 66.0339 45.3155 66.2046 45.2461C66.3806 45.1768 66.5406 45.0728 66.6846 44.9341L67.3486 45.6541C67.1513 45.8781 66.9033 46.0515 66.6046 46.1741C66.3059 46.2915 65.9619 46.3501 65.5726 46.3501ZM69.9315 46.3501C69.5635 46.3501 69.2088 46.3075 68.8675 46.2221C68.5315 46.1315 68.2648 46.0195 68.0675 45.8861L68.4835 44.9901C68.6808 45.1128 68.9128 45.2141 69.1795 45.2941C69.4515 45.3688 69.7181 45.4061 69.9795 45.4061C70.2675 45.4061 70.4701 45.3715 70.5875 45.3021C70.7101 45.2328 70.7715 45.1368 70.7715 45.0141C70.7715 44.9128 70.7235 44.8381 70.6275 44.7901C70.5368 44.7368 70.4141 44.6968 70.2595 44.6701C70.1048 44.6435 69.9341 44.6168 69.7475 44.5901C69.5661 44.5635 69.3821 44.5288 69.1955 44.4861C69.0088 44.4381 68.8381 44.3688 68.6835 44.2781C68.5288 44.1875 68.4035 44.0648 68.3075 43.9101C68.2168 43.7555 68.1715 43.5555 68.1715 43.3101C68.1715 43.0381 68.2488 42.7981 68.4035 42.5901C68.5635 42.3821 68.7928 42.2195 69.0915 42.1021C69.3901 41.9795 69.7475 41.9181 70.1635 41.9181C70.4568 41.9181 70.7555 41.9501 71.0595 42.0141C71.3635 42.0781 71.6168 42.1715 71.8195 42.2941L71.4035 43.1821C71.1955 43.0595 70.9848 42.9768 70.7715 42.9341C70.5635 42.8861 70.3608 42.8621 70.1635 42.8621C69.8861 42.8621 69.6835 42.8995 69.5555 42.9741C69.4275 43.0488 69.3635 43.1448 69.3635 43.2621C69.3635 43.3688 69.4088 43.4488 69.4995 43.5021C69.5955 43.5555 69.7208 43.5981 69.8755 43.6301C70.0301 43.6621 70.1981 43.6915 70.3795 43.7181C70.5661 43.7395 70.7528 43.7741 70.9395 43.8221C71.1261 43.8701 71.2941 43.9395 71.4435 44.0301C71.5981 44.1155 71.7235 44.2355 71.8195 44.3901C71.9155 44.5395 71.9635 44.7368 71.9635 44.9821C71.9635 45.2488 71.8835 45.4861 71.7235 45.6941C71.5635 45.8968 71.3315 46.0568 71.0275 46.1741C70.7288 46.2915 70.3635 46.3501 69.9315 46.3501ZM74.1815 46.3501C73.8135 46.3501 73.4588 46.3075 73.1175 46.2221C72.7815 46.1315 72.5148 46.0195 72.3175 45.8861L72.7335 44.9901C72.9308 45.1128 73.1628 45.2141 73.4295 45.2941C73.7015 45.3688 73.9681 45.4061 74.2295 45.4061C74.5175 45.4061 74.7201 45.3715 74.8375 45.3021C74.9601 45.2328 75.0215 45.1368 75.0215 45.0141C75.0215 44.9128 74.9735 44.8381 74.8775 44.7901C74.7868 44.7368 74.6641 44.6968 74.5095 44.6701C74.3548 44.6435 74.1841 44.6168 73.9975 44.5901C73.8161 44.5635 73.6321 44.5288 73.4455 44.4861C73.2588 44.4381 73.0881 44.3688 72.9335 44.2781C72.7788 44.1875 72.6535 44.0648 72.5575 43.9101C72.4668 43.7555 72.4215 43.5555 72.4215 43.3101C72.4215 43.0381 72.4988 42.7981 72.6535 42.5901C72.8135 42.3821 73.0428 42.2195 73.3415 42.1021C73.6401 41.9795 73.9975 41.9181 74.4135 41.9181C74.7068 41.9181 75.0055 41.9501 75.3095 42.0141C75.6135 42.0781 75.8668 42.1715 76.0695 42.2941L75.6535 43.1821C75.4455 43.0595 75.2348 42.9768 75.0215 42.9341C74.8135 42.8861 74.6108 42.8621 74.4135 42.8621C74.1361 42.8621 73.9335 42.8995 73.8055 42.9741C73.6775 43.0488 73.6135 43.1448 73.6135 43.2621C73.6135 43.3688 73.6588 43.4488 73.7495 43.5021C73.8455 43.5555 73.9708 43.5981 74.1255 43.6301C74.2801 43.6621 74.4481 43.6915 74.6295 43.7181C74.8161 43.7395 75.0028 43.7741 75.1895 43.8221C75.3761 43.8701 75.5441 43.9395 75.6935 44.0301C75.8481 44.1155 75.9735 44.2355 76.0695 44.3901C76.1655 44.5395 76.2135 44.7368 76.2135 44.9821C76.2135 45.2488 76.1335 45.4861 75.9735 45.6941C75.8135 45.8968 75.5815 46.0568 75.2775 46.1741C74.9788 46.2915 74.6135 46.3501 74.1815 46.3501ZM76.9835 46.2861V41.9821H78.2315V46.2861H76.9835ZM77.6075 41.3821C77.3781 41.3821 77.1915 41.3155 77.0475 41.1821C76.9035 41.0488 76.8315 40.8835 76.8315 40.6861C76.8315 40.4888 76.9035 40.3235 77.0475 40.1901C77.1915 40.0568 77.3781 39.9901 77.6075 39.9901C77.8368 39.9901 78.0235 40.0541 78.1675 40.1821C78.3115 40.3048 78.3835 40.4648 78.3835 40.6621C78.3835 40.8701 78.3115 41.0435 78.1675 41.1821C78.0288 41.3155 77.8421 41.3821 77.6075 41.3821ZM81.4377 46.3501C80.9791 46.3501 80.5711 46.2541 80.2137 46.0621C79.8617 45.8701 79.5817 45.6088 79.3737 45.2781C79.1711 44.9421 79.0697 44.5608 79.0697 44.1341C79.0697 43.7021 79.1711 43.3208 79.3737 42.9901C79.5817 42.6541 79.8617 42.3928 80.2137 42.2061C80.5711 42.0141 80.9791 41.9181 81.4377 41.9181C81.8911 41.9181 82.2964 42.0141 82.6537 42.2061C83.0111 42.3928 83.2911 42.6515 83.4937 42.9821C83.6964 43.3128 83.7977 43.6968 83.7977 44.1341C83.7977 44.5608 83.6964 44.9421 83.4937 45.2781C83.2911 45.6088 83.0111 45.8701 82.6537 46.0621C82.2964 46.2541 81.8911 46.3501 81.4377 46.3501ZM81.4377 45.3261C81.6457 45.3261 81.8324 45.2781 81.9977 45.1821C82.1631 45.0861 82.2937 44.9501 82.3897 44.7741C82.4857 44.5928 82.5337 44.3795 82.5337 44.1341C82.5337 43.8835 82.4857 43.6701 82.3897 43.4941C82.2937 43.3181 82.1631 43.1821 81.9977 43.0861C81.8324 42.9901 81.6457 42.9421 81.4377 42.9421C81.2297 42.9421 81.0431 42.9901 80.8777 43.0861C80.7124 43.1821 80.5791 43.3181 80.4777 43.4941C80.3817 43.6701 80.3337 43.8835 80.3337 44.1341C80.3337 44.3795 80.3817 44.5928 80.4777 44.7741C80.5791 44.9501 80.7124 45.0861 80.8777 45.1821C81.0431 45.2781 81.2297 45.3261 81.4377 45.3261ZM87.2479 41.9181C87.5892 41.9181 87.8932 41.9875 88.1599 42.1261C88.4319 42.2595 88.6452 42.4675 88.7999 42.7501C88.9546 43.0275 89.0319 43.3848 89.0319 43.8221V46.2861H87.7839V44.0141C87.7839 43.6675 87.7066 43.4115 87.5519 43.2461C87.4026 43.0808 87.1892 42.9981 86.9119 42.9981C86.7146 42.9981 86.5359 43.0408 86.3759 43.1261C86.2212 43.2061 86.0986 43.3315 86.0079 43.5021C85.9226 43.6728 85.8799 43.8915 85.8799 44.1581V46.2861H84.6319V41.9821H85.8239V43.1741L85.5999 42.8141C85.7546 42.5261 85.9759 42.3048 86.2639 42.1501C86.5519 41.9955 86.8799 41.9181 87.2479 41.9181ZM92.3304 46.3501C91.8397 46.3501 91.4077 46.2541 91.0344 46.0621C90.6664 45.8701 90.3811 45.6088 90.1784 45.2781C89.9757 44.9421 89.8744 44.5608 89.8744 44.1341C89.8744 43.7021 89.9731 43.3208 90.1704 42.9901C90.3731 42.6541 90.6477 42.3928 90.9944 42.2061C91.3411 42.0141 91.7331 41.9181 92.1704 41.9181C92.5917 41.9181 92.9704 42.0088 93.3064 42.1901C93.6477 42.3661 93.9171 42.6221 94.1144 42.9581C94.3117 43.2888 94.4104 43.6861 94.4104 44.1501C94.4104 44.1981 94.4077 44.2541 94.4024 44.3181C94.3971 44.3768 94.3917 44.4328 94.3864 44.4861H90.8904V43.7581H93.7304L93.2504 43.9741C93.2504 43.7501 93.2051 43.5555 93.1144 43.3901C93.0237 43.2248 92.8984 43.0968 92.7384 43.0061C92.5784 42.9101 92.3917 42.8621 92.1784 42.8621C91.9651 42.8621 91.7757 42.9101 91.6104 43.0061C91.4504 43.0968 91.3251 43.2275 91.2344 43.3981C91.1437 43.5635 91.0984 43.7608 91.0984 43.9901V44.1821C91.0984 44.4168 91.1491 44.6248 91.2504 44.8061C91.3571 44.9821 91.5037 45.1181 91.6904 45.2141C91.8824 45.3048 92.1064 45.3501 92.3624 45.3501C92.5917 45.3501 92.7917 45.3155 92.9624 45.2461C93.1384 45.1768 93.2984 45.0728 93.4424 44.9341L94.1064 45.6541C93.9091 45.8781 93.6611 46.0515 93.3624 46.1741C93.0637 46.2915 92.7197 46.3501 92.3304 46.3501ZM99.5549 46.3501C99.0962 46.3501 98.6882 46.2541 98.3309 46.0621C97.9789 45.8701 97.6989 45.6088 97.4909 45.2781C97.2882 44.9421 97.1869 44.5608 97.1869 44.1341C97.1869 43.7021 97.2882 43.3208 97.4909 42.9901C97.6989 42.6541 97.9789 42.3928 98.3309 42.2061C98.6882 42.0141 99.0962 41.9181 99.5549 41.9181C100.008 41.9181 100.414 42.0141 100.771 42.2061C101.128 42.3928 101.408 42.6515 101.611 42.9821C101.814 43.3128 101.915 43.6968 101.915 44.1341C101.915 44.5608 101.814 44.9421 101.611 45.2781C101.408 45.6088 101.128 45.8701 100.771 46.0621C100.414 46.2541 100.008 46.3501 99.5549 46.3501ZM99.5549 45.3261C99.7629 45.3261 99.9496 45.2781 100.115 45.1821C100.28 45.0861 100.411 44.9501 100.507 44.7741C100.603 44.5928 100.651 44.3795 100.651 44.1341C100.651 43.8835 100.603 43.6701 100.507 43.4941C100.411 43.3181 100.28 43.1821 100.115 43.0861C99.9496 42.9901 99.7629 42.9421 99.5549 42.9421C99.3469 42.9421 99.1602 42.9901 98.9949 43.0861C98.8296 43.1821 98.6962 43.3181 98.5949 43.4941C98.4989 43.6701 98.4509 43.8835 98.4509 44.1341C98.4509 44.3795 98.4989 44.5928 98.5949 44.7741C98.6962 44.9501 98.8296 45.0861 98.9949 45.1821C99.1602 45.2781 99.3469 45.3261 99.5549 45.3261ZM107.559 46.3501C107.18 46.3501 106.855 46.2701 106.583 46.1101C106.311 45.9501 106.103 45.7075 105.959 45.3821C105.815 45.0515 105.743 44.6355 105.743 44.1341C105.743 43.6275 105.817 43.2115 105.967 42.8861C106.121 42.5608 106.335 42.3181 106.607 42.1581C106.879 41.9981 107.196 41.9181 107.559 41.9181C107.964 41.9181 108.327 42.0088 108.647 42.1901C108.972 42.3715 109.228 42.6275 109.415 42.9581C109.607 43.2888 109.703 43.6808 109.703 44.1341C109.703 44.5821 109.607 44.9715 109.415 45.3021C109.228 45.6328 108.972 45.8915 108.647 46.0781C108.327 46.2595 107.964 46.3501 107.559 46.3501ZM105.015 46.2861V40.3501H106.263V42.8541L106.183 44.1261L106.207 45.4061V46.2861H105.015ZM107.343 45.3261C107.551 45.3261 107.735 45.2781 107.895 45.1821C108.06 45.0861 108.191 44.9501 108.287 44.7741C108.388 44.5928 108.439 44.3795 108.439 44.1341C108.439 43.8835 108.388 43.6701 108.287 43.4941C108.191 43.3181 108.06 43.1821 107.895 43.0861C107.735 42.9901 107.551 42.9421 107.343 42.9421C107.135 42.9421 106.948 42.9901 106.783 43.0861C106.617 43.1821 106.487 43.3181 106.391 43.4941C106.295 43.6701 106.247 43.8835 106.247 44.1341C106.247 44.3795 106.295 44.5928 106.391 44.7741C106.487 44.9501 106.617 45.0861 106.783 45.1821C106.948 45.2781 107.135 45.3261 107.343 45.3261ZM112.586 46.3501C112.127 46.3501 111.719 46.2541 111.362 46.0621C111.01 45.8701 110.73 45.6088 110.522 45.2781C110.319 44.9421 110.218 44.5608 110.218 44.1341C110.218 43.7021 110.319 43.3208 110.522 42.9901C110.73 42.6541 111.01 42.3928 111.362 42.2061C111.719 42.0141 112.127 41.9181 112.586 41.9181C113.039 41.9181 113.445 42.0141 113.802 42.2061C114.159 42.3928 114.439 42.6515 114.642 42.9821C114.845 43.3128 114.946 43.6968 114.946 44.1341C114.946 44.5608 114.845 44.9421 114.642 45.2781C114.439 45.6088 114.159 45.8701 113.802 46.0621C113.445 46.2541 113.039 46.3501 112.586 46.3501ZM112.586 45.3261C112.794 45.3261 112.981 45.2781 113.146 45.1821C113.311 45.0861 113.442 44.9501 113.538 44.7741C113.634 44.5928 113.682 44.3795 113.682 44.1341C113.682 43.8835 113.634 43.6701 113.538 43.4941C113.442 43.3181 113.311 43.1821 113.146 43.0861C112.981 42.9901 112.794 42.9421 112.586 42.9421C112.378 42.9421 112.191 42.9901 112.026 43.0861C111.861 43.1821 111.727 43.3181 111.626 43.4941C111.53 43.6701 111.482 43.8835 111.482 44.1341C111.482 44.3795 111.53 44.5928 111.626 44.7741C111.727 44.9501 111.861 45.0861 112.026 45.1821C112.191 45.2781 112.378 45.3261 112.586 45.3261ZM117.54 46.3501C117.034 46.3501 116.639 46.2221 116.356 45.9661C116.074 45.7048 115.932 45.3181 115.932 44.8061V41.0301H117.18V44.7901C117.18 44.9715 117.228 45.1128 117.324 45.2141C117.42 45.3101 117.551 45.3581 117.716 45.3581C117.914 45.3581 118.082 45.3048 118.22 45.1981L118.556 46.0781C118.428 46.1688 118.274 46.2381 118.092 46.2861C117.916 46.3288 117.732 46.3501 117.54 46.3501ZM115.268 43.0381V42.0781H118.252V43.0381H115.268ZM121.897 46.2861V45.4461L121.817 45.2621V43.7581C121.817 43.4915 121.734 43.2835 121.569 43.1341C121.409 42.9848 121.161 42.9101 120.825 42.9101C120.596 42.9101 120.369 42.9475 120.145 43.0221C119.926 43.0915 119.74 43.1875 119.585 43.3101L119.137 42.4381C119.372 42.2728 119.654 42.1448 119.985 42.0541C120.316 41.9635 120.652 41.9181 120.993 41.9181C121.649 41.9181 122.158 42.0728 122.521 42.3821C122.884 42.6915 123.065 43.1741 123.065 43.8301V46.2861H121.897ZM120.585 46.3501C120.249 46.3501 119.961 46.2941 119.721 46.1821C119.481 46.0648 119.297 45.9075 119.169 45.7101C119.041 45.5128 118.977 45.2915 118.977 45.0461C118.977 44.7901 119.038 44.5661 119.161 44.3741C119.289 44.1821 119.489 44.0328 119.761 43.9261C120.033 43.8141 120.388 43.7581 120.825 43.7581H121.969V44.4861H120.961C120.668 44.4861 120.465 44.5341 120.353 44.6301C120.246 44.7261 120.193 44.8461 120.193 44.9901C120.193 45.1501 120.254 45.2781 120.377 45.3741C120.505 45.4648 120.678 45.5101 120.897 45.5101C121.105 45.5101 121.292 45.4621 121.457 45.3661C121.622 45.2648 121.742 45.1181 121.817 44.9261L122.009 45.5021C121.918 45.7795 121.753 45.9901 121.513 46.1341C121.273 46.2781 120.964 46.3501 120.585 46.3501ZM121.721 41.4541C121.582 41.4541 121.46 41.4301 121.353 41.3821C121.246 41.3288 121.15 41.2701 121.065 41.2061C120.98 41.1368 120.9 41.0781 120.825 41.0301C120.75 40.9768 120.676 40.9501 120.601 40.9501C120.494 40.9501 120.406 40.9901 120.337 41.0701C120.268 41.1448 120.228 41.2541 120.217 41.3981H119.585C119.596 41.0408 119.684 40.7581 119.849 40.5501C120.014 40.3368 120.238 40.2301 120.521 40.2301C120.66 40.2301 120.782 40.2568 120.889 40.3101C120.996 40.3581 121.092 40.4168 121.177 40.4861C121.268 40.5555 121.35 40.6168 121.425 40.6701C121.5 40.7181 121.572 40.7421 121.641 40.7421C121.753 40.7421 121.844 40.7048 121.913 40.6301C121.982 40.5501 122.02 40.4435 122.025 40.3101H122.657C122.652 40.6515 122.564 40.9288 122.393 41.1421C122.228 41.3501 122.004 41.4541 121.721 41.4541ZM126.274 46.3501C125.815 46.3501 125.407 46.2541 125.05 46.0621C124.698 45.8701 124.418 45.6088 124.21 45.2781C124.007 44.9421 123.906 44.5608 123.906 44.1341C123.906 43.7021 124.007 43.3208 124.21 42.9901C124.418 42.6541 124.698 42.3928 125.05 42.2061C125.407 42.0141 125.815 41.9181 126.274 41.9181C126.727 41.9181 127.132 42.0141 127.49 42.2061C127.847 42.3928 128.127 42.6515 128.33 42.9821C128.532 43.3128 128.634 43.6968 128.634 44.1341C128.634 44.5608 128.532 44.9421 128.33 45.2781C128.127 45.6088 127.847 45.8701 127.49 46.0621C127.132 46.2541 126.727 46.3501 126.274 46.3501ZM126.274 45.3261C126.482 45.3261 126.668 45.2781 126.834 45.1821C126.999 45.0861 127.13 44.9501 127.226 44.7741C127.322 44.5928 127.37 44.3795 127.37 44.1341C127.37 43.8835 127.322 43.6701 127.226 43.4941C127.13 43.3181 126.999 43.1821 126.834 43.0861C126.668 42.9901 126.482 42.9421 126.274 42.9421C126.066 42.9421 125.879 42.9901 125.714 43.0861C125.548 43.1821 125.415 43.3181 125.314 43.4941C125.218 43.6701 125.17 43.8835 125.17 44.1341C125.17 44.3795 125.218 44.5928 125.314 44.7741C125.415 44.9501 125.548 45.0861 125.714 45.1821C125.879 45.2781 126.066 45.3261 126.274 45.3261ZM131.821 46.2861V40.6861H133.117V46.2861H131.821ZM136.974 41.9181C137.316 41.9181 137.62 41.9875 137.886 42.1261C138.158 42.2595 138.372 42.4675 138.526 42.7501C138.681 43.0275 138.758 43.3848 138.758 43.8221V46.2861H137.51V44.0141C137.51 43.6675 137.433 43.4115 137.278 43.2461C137.129 43.0808 136.916 42.9981 136.638 42.9981C136.441 42.9981 136.262 43.0408 136.102 43.1261C135.948 43.2061 135.825 43.3315 135.734 43.5021C135.649 43.6728 135.606 43.8915 135.606 44.1581V46.2861H134.358V41.9821H135.55V43.1741L135.326 42.8141C135.481 42.5261 135.702 42.3048 135.99 42.1501C136.278 41.9955 136.606 41.9181 136.974 41.9181ZM139.89 46.2861V41.9821H141.138V46.2861H139.89ZM140.514 41.3821C140.284 41.3821 140.098 41.3155 139.954 41.1821C139.81 41.0488 139.738 40.8835 139.738 40.6861C139.738 40.4888 139.81 40.3235 139.954 40.1901C140.098 40.0568 140.284 39.9901 140.514 39.9901C140.743 39.9901 140.93 40.0541 141.074 40.1821C141.218 40.3048 141.29 40.4648 141.29 40.6621C141.29 40.8701 141.218 41.0435 141.074 41.1821C140.935 41.3155 140.748 41.3821 140.514 41.3821ZM144.376 46.3501C143.912 46.3501 143.499 46.2568 143.136 46.0701C142.773 45.8781 142.488 45.6141 142.28 45.2781C142.077 44.9421 141.976 44.5608 141.976 44.1341C141.976 43.7021 142.077 43.3208 142.28 42.9901C142.488 42.6541 142.773 42.3928 143.136 42.2061C143.499 42.0141 143.912 41.9181 144.376 41.9181C144.829 41.9181 145.224 42.0141 145.56 42.2061C145.896 42.3928 146.144 42.6621 146.304 43.0141L145.336 43.5341C145.224 43.3315 145.083 43.1821 144.912 43.0861C144.747 42.9901 144.565 42.9421 144.368 42.9421C144.155 42.9421 143.963 42.9901 143.792 43.0861C143.621 43.1821 143.485 43.3181 143.384 43.4941C143.288 43.6701 143.24 43.8835 143.24 44.1341C143.24 44.3848 143.288 44.5981 143.384 44.7741C143.485 44.9501 143.621 45.0861 143.792 45.1821C143.963 45.2781 144.155 45.3261 144.368 45.3261C144.565 45.3261 144.747 45.2808 144.912 45.1901C145.083 45.0941 145.224 44.9421 145.336 44.7341L146.304 45.2621C146.144 45.6088 145.896 45.8781 145.56 46.0701C145.224 46.2568 144.829 46.3501 144.376 46.3501ZM146.999 46.2861V41.9821H148.247V46.2861H146.999ZM147.623 41.3821C147.394 41.3821 147.207 41.3155 147.063 41.1821C146.919 41.0488 146.847 40.8835 146.847 40.6861C146.847 40.4888 146.919 40.3235 147.063 40.1901C147.207 40.0568 147.394 39.9901 147.623 39.9901C147.852 39.9901 148.039 40.0541 148.183 40.1821C148.327 40.3048 148.399 40.4648 148.399 40.6621C148.399 40.8701 148.327 41.0435 148.183 41.1821C148.044 41.3155 147.858 41.3821 147.623 41.3821ZM152.045 46.2861V45.4461L151.965 45.2621V43.7581C151.965 43.4915 151.883 43.2835 151.717 43.1341C151.557 42.9848 151.309 42.9101 150.973 42.9101C150.744 42.9101 150.517 42.9475 150.293 43.0221C150.075 43.0915 149.888 43.1875 149.733 43.3101L149.285 42.4381C149.52 42.2728 149.803 42.1448 150.133 42.0541C150.464 41.9635 150.8 41.9181 151.141 41.9181C151.797 41.9181 152.307 42.0728 152.669 42.3821C153.032 42.6915 153.213 43.1741 153.213 43.8301V46.2861H152.045ZM150.733 46.3501C150.397 46.3501 150.109 46.2941 149.869 46.1821C149.629 46.0648 149.445 45.9075 149.317 45.7101C149.189 45.5128 149.125 45.2915 149.125 45.0461C149.125 44.7901 149.187 44.5661 149.309 44.3741C149.437 44.1821 149.637 44.0328 149.909 43.9261C150.181 43.8141 150.536 43.7581 150.973 43.7581H152.117V44.4861H151.109C150.816 44.4861 150.613 44.5341 150.501 44.6301C150.395 44.7261 150.341 44.8461 150.341 44.9901C150.341 45.1501 150.403 45.2781 150.525 45.3741C150.653 45.4648 150.827 45.5101 151.045 45.5101C151.253 45.5101 151.44 45.4621 151.605 45.3661C151.771 45.2648 151.891 45.1181 151.965 44.9261L152.157 45.5021C152.067 45.7795 151.901 45.9901 151.661 46.1341C151.421 46.2781 151.112 46.3501 150.733 46.3501ZM154.343 46.2861V41.9821H155.535V43.1981L155.367 42.8461C155.495 42.5421 155.7 42.3128 155.983 42.1581C156.266 41.9981 156.61 41.9181 157.015 41.9181V43.0701C156.962 43.0648 156.914 43.0621 156.871 43.0621C156.828 43.0568 156.783 43.0541 156.735 43.0541C156.394 43.0541 156.116 43.1528 155.903 43.3501C155.695 43.5421 155.591 43.8435 155.591 44.2541V46.2861H154.343ZM158.182 46.3501C157.969 46.3501 157.785 46.2781 157.63 46.1341C157.481 45.9848 157.406 45.7955 157.406 45.5661C157.406 45.3368 157.481 45.1528 157.63 45.0141C157.785 44.8701 157.969 44.7981 158.182 44.7981C158.401 44.7981 158.585 44.8701 158.734 45.0141C158.883 45.1528 158.958 45.3368 158.958 45.5661C158.958 45.7955 158.883 45.9848 158.734 46.1341C158.585 46.2781 158.401 46.3501 158.182 46.3501Z" fill="#333333"/>
<path fill-rule="evenodd" clip-rule="evenodd" d="M170.357 69.4187C170.357 62.3568 164.571 56.5664 157.5 56.5664C117.753 56.5664 101.571 56.5711 101.571 56.5711L96.4284 61.714H72.6427L66.857 56.571H44.4514C37.38 56.571 31.5942 62.3569 31.5942 69.4233C31.5942 69.4281 31.5942 69.4329 31.5942 69.4378C31.5942 76.4997 37.38 82.2854 44.4514 82.2854C55.099 82.2854 66.8571 82.2854 66.8571 82.2854L72.6428 87.4283H96.4285L101.571 82.2854H157.594C164.571 82.2854 170.357 76.4997 170.357 69.4331C170.357 69.4283 170.357 69.7497 170.357 69.4187Z" fill="#30DCFF"/>
<path fill-rule="evenodd" clip-rule="evenodd" d="M170.357 69.4212C170.357 62.357 164.571 56.5713 157.406 56.5713C117.659 56.5713 101.571 56.5714 101.571 56.5714L96.4286 61.7141H72.6429L66.8571 56.5713H44.3571C37.2857 56.5713 31.5 62.357 31.5 69.4213C31.5 69.426 31.5 69.4285 31.5 69.4285H34.7143C34.7143 62.9999 39.2143 59.7856 44.3571 59.7856C53.784 59.7856 65.5714 59.7856 65.5714 59.7856L71.3571 64.9284H97.7143L102.857 59.7856H157.5C163.286 59.7856 167.143 63.6427 167.143 69.4283L170.357 69.4284V69.4212Z" fill="white" fill-opacity="0.5"/>
<path fill-rule="evenodd" clip-rule="evenodd" d="M170.357 69.4287L167.143 69.4287C167.143 75.1959 163.412 79.0716 157.5 79.0716C120.854 79.0716 100.286 79.0716 100.286 79.0716L95.1429 84.2144H73.9286L68.1429 79.0716H44.3571C37.6047 79.0716 34.7143 75.2144 34.7143 69.4297L31.5 69.4287V69.4359C31.5 76.5001 37.2857 82.2858 44.3571 82.2858C55.0048 82.2858 66.8571 82.2859 66.8571 82.2859L72.6429 87.4287H96.4286L101.571 82.2858H157.5C164.571 82.2858 170.357 76.5001 170.357 69.4287Z" fill="black" fill-opacity="0.25"/>
<path d="M37.8565 74.5713L40.3525 68.9713H41.6325L44.1365 74.5713H42.7765L40.7285 69.6273H41.2405L39.1845 74.5713H37.8565ZM39.1045 73.3713L39.4485 72.3873H42.3285L42.6805 73.3713H39.1045ZM46.3504 74.6353C45.8437 74.6353 45.4491 74.5073 45.1664 74.2513C44.8837 73.99 44.7424 73.6033 44.7424 73.0913V69.3153H45.9904V73.0753C45.9904 73.2566 46.0384 73.398 46.1344 73.4993C46.2304 73.5953 46.3611 73.6433 46.5264 73.6433C46.7237 73.6433 46.8917 73.59 47.0304 73.4833L47.3664 74.3633C47.2384 74.454 47.0837 74.5233 46.9024 74.5713C46.7264 74.614 46.5424 74.6353 46.3504 74.6353ZM44.0784 71.3233V70.3633H47.0624V71.3233H44.0784ZM48.067 74.5713V70.2673H49.259V71.4833L49.091 71.1313C49.219 70.8273 49.4243 70.598 49.707 70.4433C49.9896 70.2833 50.3336 70.2033 50.739 70.2033V71.3553C50.6856 71.35 50.6376 71.3473 50.595 71.3473C50.5523 71.342 50.507 71.3393 50.459 71.3393C50.1176 71.3393 49.8403 71.438 49.627 71.6353C49.419 71.8273 49.315 72.1286 49.315 72.5393V74.5713H48.067ZM51.4888 74.5713V70.2673H52.7368V74.5713H51.4888ZM52.1128 69.6673C51.8835 69.6673 51.6968 69.6006 51.5528 69.4673C51.4088 69.334 51.3368 69.1686 51.3368 68.9713C51.3368 68.774 51.4088 68.6086 51.5528 68.4753C51.6968 68.342 51.8835 68.2753 52.1128 68.2753C52.3422 68.2753 52.5288 68.3393 52.6728 68.4673C52.8168 68.59 52.8888 68.75 52.8888 68.9473C52.8888 69.1553 52.8168 69.3286 52.6728 69.4673C52.5342 69.6006 52.3475 69.6673 52.1128 69.6673ZM56.4391 74.6353C56.0604 74.6353 55.7351 74.5553 55.4631 74.3953C55.1911 74.2353 54.9831 73.9926 54.8391 73.6673C54.6951 73.3366 54.6231 72.9206 54.6231 72.4193C54.6231 71.9126 54.6978 71.4966 54.8471 71.1713C55.0018 70.846 55.2151 70.6033 55.4871 70.4433C55.7591 70.2833 56.0764 70.2033 56.4391 70.2033C56.8444 70.2033 57.2071 70.294 57.5271 70.4753C57.8524 70.6566 58.1084 70.9126 58.2951 71.2433C58.4871 71.574 58.5831 71.966 58.5831 72.4193C58.5831 72.8673 58.4871 73.2566 58.2951 73.5873C58.1084 73.918 57.8524 74.1766 57.5271 74.3633C57.2071 74.5446 56.8444 74.6353 56.4391 74.6353ZM53.8951 74.5713V68.6353H55.1431V71.1393L55.0631 72.4113L55.0871 73.6913V74.5713H53.8951ZM56.2231 73.6113C56.4311 73.6113 56.6151 73.5633 56.7751 73.4673C56.9404 73.3713 57.0711 73.2353 57.1671 73.0593C57.2684 72.878 57.3191 72.6646 57.3191 72.4193C57.3191 72.1686 57.2684 71.9553 57.1671 71.7793C57.0711 71.6033 56.9404 71.4673 56.7751 71.3713C56.6151 71.2753 56.4311 71.2273 56.2231 71.2273C56.0151 71.2273 55.8284 71.2753 55.6631 71.3713C55.4978 71.4673 55.3671 71.6033 55.2711 71.7793C55.1751 71.9553 55.1271 72.1686 55.1271 72.4193C55.1271 72.6646 55.1751 72.878 55.2711 73.0593C55.3671 73.2353 55.4978 73.3713 55.6631 73.4673C55.8284 73.5633 56.0151 73.6113 56.2231 73.6113ZM61.2345 74.6353C60.8772 74.6353 60.5572 74.566 60.2745 74.4273C59.9972 74.2886 59.7812 74.078 59.6265 73.7953C59.4719 73.5073 59.3945 73.142 59.3945 72.6993V70.2673H60.6425V72.5153C60.6425 72.8726 60.7172 73.1366 60.8665 73.3073C61.0212 73.4726 61.2372 73.5553 61.5145 73.5553C61.7065 73.5553 61.8772 73.5153 62.0265 73.4353C62.1759 73.35 62.2932 73.222 62.3785 73.0513C62.4639 72.8753 62.5065 72.6566 62.5065 72.3953V70.2673H63.7545V74.5713H62.5705V73.3873L62.7865 73.7313C62.6425 74.03 62.4292 74.2566 62.1465 74.4113C61.8692 74.5606 61.5652 74.6353 61.2345 74.6353ZM64.9107 74.5713V70.2673H66.1587V74.5713H64.9107ZM65.5347 69.6673C65.3054 69.6673 65.1187 69.6006 64.9747 69.4673C64.8307 69.334 64.7587 69.1686 64.7587 68.9713C64.7587 68.774 64.8307 68.6086 64.9747 68.4753C65.1187 68.342 65.3054 68.2753 65.5347 68.2753C65.7641 68.2753 65.9507 68.3393 66.0947 68.4673C66.2387 68.59 66.3107 68.75 66.3107 68.9473C66.3107 69.1553 66.2387 69.3286 66.0947 69.4673C65.9561 69.6006 65.7694 69.6673 65.5347 69.6673ZM67.317 74.5713V70.2673H68.509V71.4833L68.341 71.1313C68.469 70.8273 68.6743 70.598 68.957 70.4433C69.2396 70.2833 69.5836 70.2033 69.989 70.2033V71.3553C69.9356 71.35 69.8876 71.3473 69.845 71.3473C69.8023 71.342 69.757 71.3393 69.709 71.3393C69.3676 71.3393 69.0903 71.438 68.877 71.6353C68.669 71.8273 68.565 72.1286 68.565 72.5393V74.5713H67.317ZM73.6279 74.5713V69.4513L74.1879 70.0113H72.5079V68.9713H74.9239V74.5713H73.6279ZM78.2967 74.6673C77.8381 74.6673 77.4274 74.5553 77.0647 74.3313C76.7021 74.102 76.4167 73.7713 76.2087 73.3393C76.0007 72.9073 75.8967 72.3846 75.8967 71.7713C75.8967 71.158 76.0007 70.6353 76.2087 70.2033C76.4167 69.7713 76.7021 69.4433 77.0647 69.2193C77.4274 68.99 77.8381 68.8753 78.2967 68.8753C78.7607 68.8753 79.1714 68.99 79.5287 69.2193C79.8914 69.4433 80.1767 69.7713 80.3847 70.2033C80.5927 70.6353 80.6967 71.158 80.6967 71.7713C80.6967 72.3846 80.5927 72.9073 80.3847 73.3393C80.1767 73.7713 79.8914 74.102 79.5287 74.3313C79.1714 74.5553 78.7607 74.6673 78.2967 74.6673ZM78.2967 73.5713C78.5154 73.5713 78.7047 73.51 78.8647 73.3873C79.0301 73.2646 79.1581 73.07 79.2487 72.8033C79.3447 72.5366 79.3927 72.1926 79.3927 71.7713C79.3927 71.35 79.3447 71.006 79.2487 70.7393C79.1581 70.4726 79.0301 70.278 78.8647 70.1553C78.7047 70.0326 78.5154 69.9713 78.2967 69.9713C78.0834 69.9713 77.8941 70.0326 77.7287 70.1553C77.5687 70.278 77.4407 70.4726 77.3447 70.7393C77.2541 71.006 77.2087 71.35 77.2087 71.7713C77.2087 72.1926 77.2541 72.5366 77.3447 72.8033C77.4407 73.07 77.5687 73.2646 77.7287 73.3873C77.8941 73.51 78.0834 73.5713 78.2967 73.5713ZM83.7264 74.6673C83.2677 74.6673 82.8571 74.5553 82.4944 74.3313C82.1317 74.102 81.8464 73.7713 81.6384 73.3393C81.4304 72.9073 81.3264 72.3846 81.3264 71.7713C81.3264 71.158 81.4304 70.6353 81.6384 70.2033C81.8464 69.7713 82.1317 69.4433 82.4944 69.2193C82.8571 68.99 83.2677 68.8753 83.7264 68.8753C84.1904 68.8753 84.6011 68.99 84.9584 69.2193C85.3211 69.4433 85.6064 69.7713 85.8144 70.2033C86.0224 70.6353 86.1264 71.158 86.1264 71.7713C86.1264 72.3846 86.0224 72.9073 85.8144 73.3393C85.6064 73.7713 85.3211 74.102 84.9584 74.3313C84.6011 74.5553 84.1904 74.6673 83.7264 74.6673ZM83.7264 73.5713C83.9451 73.5713 84.1344 73.51 84.2944 73.3873C84.4597 73.2646 84.5877 73.07 84.6784 72.8033C84.7744 72.5366 84.8224 72.1926 84.8224 71.7713C84.8224 71.35 84.7744 71.006 84.6784 70.7393C84.5877 70.4726 84.4597 70.278 84.2944 70.1553C84.1344 70.0326 83.9451 69.9713 83.7264 69.9713C83.5131 69.9713 83.3237 70.0326 83.1584 70.1553C82.9984 70.278 82.8704 70.4726 82.7744 70.7393C82.6837 71.006 82.6384 71.35 82.6384 71.7713C82.6384 72.1926 82.6837 72.5366 82.7744 72.8033C82.8704 73.07 82.9984 73.2646 83.1584 73.3873C83.3237 73.51 83.5131 73.5713 83.7264 73.5713ZM91.9257 74.5713V73.7313L91.8457 73.5473V72.0433C91.8457 71.7766 91.7631 71.5686 91.5977 71.4193C91.4377 71.27 91.1897 71.1953 90.8537 71.1953C90.6244 71.1953 90.3977 71.2326 90.1737 71.3073C89.9551 71.3766 89.7684 71.4726 89.6137 71.5953L89.1657 70.7233C89.4004 70.558 89.6831 70.43 90.0137 70.3393C90.3444 70.2486 90.6804 70.2033 91.0217 70.2033C91.6777 70.2033 92.1871 70.358 92.5497 70.6673C92.9124 70.9766 93.0937 71.4593 93.0937 72.1153V74.5713H91.9257ZM90.6137 74.6353C90.2777 74.6353 89.9897 74.5793 89.7497 74.4673C89.5097 74.35 89.3257 74.1926 89.1977 73.9953C89.0697 73.798 89.0057 73.5766 89.0057 73.3313C89.0057 73.0753 89.0671 72.8513 89.1897 72.6593C89.3177 72.4673 89.5177 72.318 89.7897 72.2113C90.0617 72.0993 90.4164 72.0433 90.8537 72.0433H91.9977V72.7713H90.9897C90.6964 72.7713 90.4937 72.8193 90.3817 72.9153C90.2751 73.0113 90.2217 73.1313 90.2217 73.2753C90.2217 73.4353 90.2831 73.5633 90.4057 73.6593C90.5337 73.75 90.7071 73.7953 90.9257 73.7953C91.1337 73.7953 91.3204 73.7473 91.4857 73.6513C91.6511 73.55 91.7711 73.4033 91.8457 73.2113L92.0377 73.7873C91.9471 74.0646 91.7817 74.2753 91.5417 74.4193C91.3017 74.5633 90.9924 74.6353 90.6137 74.6353ZM95.9368 74.5713L98.3448 71.2513V72.1953L96.0408 68.9713H97.5128L99.1048 71.2193L98.4888 71.2273L100.057 68.9713H101.465L99.1768 72.1393V71.2113L101.601 74.5713H100.105L98.4568 72.1953H99.0488L97.4248 74.5713H95.9368Z" fill="#333333"/>
<path fill-rule="evenodd" clip-rule="evenodd" d="M170.357 95.1335C170.357 88.0717 164.571 82.2812 157.5 82.2812C117.753 82.2812 101.571 82.286 101.571 82.286L96.4284 87.4289H72.6427L66.857 82.2858H44.4514C37.38 82.2858 31.5942 88.0717 31.5942 95.1382C31.5942 95.1429 31.5942 95.1478 31.5942 95.1526C31.5942 102.215 37.38 108 44.4514 108C55.099 108 66.8571 108 66.8571 108L72.6428 113.143H96.4285L101.571 108H157.594C164.571 108 170.357 102.215 170.357 95.148C170.357 95.1431 170.357 95.4645 170.357 95.1335Z" fill="#30DCFF"/>
<path fill-rule="evenodd" clip-rule="evenodd" d="M170.357 95.1361C170.357 88.0718 164.571 82.2861 157.406 82.2861C117.659 82.2861 101.571 82.2862 101.571 82.2862L96.4286 87.429H72.6429L66.8571 82.2862H44.3571C37.2857 82.2862 31.5 88.0719 31.5 95.1361C31.5 95.1408 31.5 95.1433 31.5 95.1433H34.7143C34.7143 88.7147 39.2143 85.5005 44.3571 85.5005C53.784 85.5005 65.5714 85.5004 65.5714 85.5004L71.3571 90.6433H97.7143L102.857 85.5004H157.5C163.286 85.5004 167.143 89.3576 167.143 95.1431L170.357 95.1433V95.1361Z" fill="white" fill-opacity="0.5"/>
<path fill-rule="evenodd" clip-rule="evenodd" d="M170.357 95.1436L167.143 95.1436C167.143 100.911 163.412 104.786 157.5 104.786C120.854 104.786 100.286 104.786 100.286 104.786L95.1429 109.929H73.9286L68.1429 104.786H44.3571C37.6047 104.786 34.7143 100.929 34.7143 95.1445L31.5 95.1436V95.1508C31.5 102.215 37.2857 108.001 44.3571 108.001C55.0048 108.001 66.8571 108.001 66.8571 108.001L72.6429 113.144H96.4286L101.571 108.001H157.5C164.571 108.001 170.357 102.215 170.357 95.1436Z" fill="black" fill-opacity="0.25"/>
<path d="M38.664 100V94.4H41.208C41.816 94.4 42.352 94.5173 42.816 94.752C43.28 94.9813 43.6427 95.304 43.904 95.72C44.1653 96.136 44.296 96.6293 44.296 97.2C44.296 97.7653 44.1653 98.2587 43.904 98.68C43.6427 99.096 43.28 99.4213 42.816 99.656C42.352 99.8853 41.816 100 41.208 100H38.664ZM39.96 98.936H41.144C41.5173 98.936 41.84 98.8667 42.112 98.728C42.3893 98.584 42.6027 98.3813 42.752 98.12C42.9067 97.8587 42.984 97.552 42.984 97.2C42.984 96.8427 42.9067 96.536 42.752 96.28C42.6027 96.0187 42.3893 95.8187 42.112 95.68C41.84 95.536 41.5173 95.464 41.144 95.464H39.96V98.936ZM45.1854 100V95.696H46.4334V100H45.1854ZM45.8094 95.096C45.58 95.096 45.3934 95.0293 45.2494 94.896C45.1054 94.7627 45.0334 94.5973 45.0334 94.4C45.0334 94.2027 45.1054 94.0373 45.2494 93.904C45.3934 93.7707 45.58 93.704 45.8094 93.704C46.0387 93.704 46.2254 93.768 46.3694 93.896C46.5134 94.0187 46.5854 94.1787 46.5854 94.376C46.5854 94.584 46.5134 94.7573 46.3694 94.896C46.2307 95.0293 46.044 95.096 45.8094 95.096ZM53.1036 95.632C53.445 95.632 53.7463 95.7013 54.0076 95.84C54.2743 95.9733 54.4823 96.1813 54.6316 96.464C54.7863 96.7413 54.8636 97.0987 54.8636 97.536V100H53.6156V97.728C53.6156 97.3813 53.5436 97.1253 53.3996 96.96C53.2556 96.7947 53.053 96.712 52.7916 96.712C52.6103 96.712 52.4476 96.7547 52.3036 96.84C52.1596 96.92 52.0476 97.0427 51.9676 97.208C51.8876 97.3733 51.8476 97.584 51.8476 97.84V100H50.5996V97.728C50.5996 97.3813 50.5276 97.1253 50.3836 96.96C50.245 96.7947 50.045 96.712 49.7836 96.712C49.6023 96.712 49.4396 96.7547 49.2956 96.84C49.1516 96.92 49.0396 97.0427 48.9596 97.208C48.8796 97.3733 48.8396 97.584 48.8396 97.84V100H47.5916V95.696H48.7836V96.872L48.5596 96.528C48.709 96.2347 48.9196 96.0133 49.1916 95.864C49.469 95.7093 49.7836 95.632 50.1356 95.632C50.5303 95.632 50.8743 95.7333 51.1676 95.936C51.4663 96.1333 51.6636 96.4373 51.7596 96.848L51.3196 96.728C51.4636 96.392 51.693 96.1253 52.0076 95.928C52.3276 95.7307 52.693 95.632 53.1036 95.632ZM55.9823 100V95.696H57.2303V100H55.9823ZM56.6063 95.096C56.3769 95.096 56.1903 95.0293 56.0463 94.896C55.9023 94.7627 55.8303 94.5973 55.8303 94.4C55.8303 94.2027 55.9023 94.0373 56.0463 93.904C56.1903 93.7707 56.3769 93.704 56.6063 93.704C56.8356 93.704 57.0223 93.768 57.1663 93.896C57.3103 94.0187 57.3823 94.1787 57.3823 94.376C57.3823 94.584 57.3103 94.7573 57.1663 94.896C57.0276 95.0293 56.8409 95.096 56.6063 95.096ZM61.0045 95.632C61.3458 95.632 61.6498 95.7013 61.9165 95.84C62.1885 95.9733 62.4018 96.1813 62.5565 96.464C62.7112 96.7413 62.7885 97.0987 62.7885 97.536V100H61.5405V97.728C61.5405 97.3813 61.4632 97.1253 61.3085 96.96C61.1592 96.7947 60.9458 96.712 60.6685 96.712C60.4712 96.712 60.2925 96.7547 60.1325 96.84C59.9778 96.92 59.8552 97.0453 59.7645 97.216C59.6792 97.3867 59.6365 97.6053 59.6365 97.872V100H58.3885V95.696H59.5805V96.888L59.3565 96.528C59.5112 96.24 59.7325 96.0187 60.0205 95.864C60.3085 95.7093 60.6365 95.632 61.0045 95.632ZM65.7358 100.064C65.3784 100.064 65.0584 99.9947 64.7758 99.856C64.4984 99.7173 64.2824 99.5067 64.1278 99.224C63.9731 98.936 63.8958 98.5707 63.8958 98.128V95.696H65.1438V97.944C65.1438 98.3013 65.2184 98.5653 65.3678 98.736C65.5224 98.9013 65.7384 98.984 66.0158 98.984C66.2078 98.984 66.3784 98.944 66.5278 98.864C66.6771 98.7787 66.7944 98.6507 66.8798 98.48C66.9651 98.304 67.0078 98.0853 67.0078 97.824V95.696H68.2558V100H67.0718V98.816L67.2878 99.16C67.1438 99.4587 66.9304 99.6853 66.6478 99.84C66.3704 99.9893 66.0664 100.064 65.7358 100.064ZM69.4119 100V95.696H70.6599V100H69.4119ZM70.0359 95.096C69.8066 95.096 69.6199 95.0293 69.4759 94.896C69.3319 94.7627 69.2599 94.5973 69.2599 94.4C69.2599 94.2027 69.3319 94.0373 69.4759 93.904C69.6199 93.7707 69.8066 93.704 70.0359 93.704C70.2653 93.704 70.4519 93.768 70.5959 93.896C70.7399 94.0187 70.8119 94.1787 70.8119 94.376C70.8119 94.584 70.7399 94.7573 70.5959 94.896C70.4573 95.0293 70.2706 95.096 70.0359 95.096ZM71.8182 100V95.696H73.0102V96.912L72.8422 96.56C72.9702 96.256 73.1755 96.0267 73.4582 95.872C73.7409 95.712 74.0849 95.632 74.4902 95.632V96.784C74.4369 96.7787 74.3889 96.776 74.3462 96.776C74.3035 96.7707 74.2582 96.768 74.2102 96.768C73.8689 96.768 73.5915 96.8667 73.3782 97.064C73.1702 97.256 73.0662 97.5573 73.0662 97.968V100H71.8182ZM78.1291 100V94.88L78.6891 95.44H77.0091V94.4H79.4251V100H78.1291ZM85.4716 100.064C85.1089 100.064 84.7916 99.984 84.5196 99.824C84.2476 99.664 84.0342 99.4213 83.8796 99.096C83.7302 98.7653 83.6556 98.3493 83.6556 97.848C83.6556 97.3413 83.7276 96.9253 83.8716 96.6C84.0156 96.2747 84.2236 96.032 84.4956 95.872C84.7676 95.712 85.0929 95.632 85.4716 95.632C85.8769 95.632 86.2396 95.7253 86.5596 95.912C86.8849 96.0933 87.1409 96.3493 87.3276 96.68C87.5196 97.0107 87.6156 97.4 87.6156 97.848C87.6156 98.3013 87.5196 98.6933 87.3276 99.024C87.1409 99.3547 86.8849 99.6107 86.5596 99.792C86.2396 99.9733 85.8769 100.064 85.4716 100.064ZM82.9276 101.552V95.696H84.1196V96.576L84.0956 97.856L84.1756 99.128V101.552H82.9276ZM85.2556 99.04C85.4636 99.04 85.6476 98.992 85.8076 98.896C85.9729 98.8 86.1036 98.664 86.1996 98.488C86.3009 98.3067 86.3516 98.0933 86.3516 97.848C86.3516 97.5973 86.3009 97.384 86.1996 97.208C86.1036 97.032 85.9729 96.896 85.8076 96.8C85.6476 96.704 85.4636 96.656 85.2556 96.656C85.0476 96.656 84.8609 96.704 84.6956 96.8C84.5302 96.896 84.3996 97.032 84.3036 97.208C84.2076 97.384 84.1596 97.5973 84.1596 97.848C84.1596 98.0933 84.2076 98.3067 84.3036 98.488C84.3996 98.664 84.5302 98.8 84.6956 98.896C84.8609 98.992 85.0476 99.04 85.2556 99.04ZM91.0207 100V99.16L90.9407 98.976V97.472C90.9407 97.2053 90.858 96.9973 90.6927 96.848C90.5327 96.6987 90.2847 96.624 89.9487 96.624C89.7194 96.624 89.4927 96.6613 89.2687 96.736C89.05 96.8053 88.8634 96.9013 88.7087 97.024L88.2607 96.152C88.4954 95.9867 88.778 95.8587 89.1087 95.768C89.4394 95.6773 89.7754 95.632 90.1167 95.632C90.7727 95.632 91.282 95.7867 91.6447 96.096C92.0074 96.4053 92.1887 96.888 92.1887 97.544V100H91.0207ZM89.7087 100.064C89.3727 100.064 89.0847 100.008 88.8447 99.896C88.6047 99.7787 88.4207 99.6213 88.2927 99.424C88.1647 99.2267 88.1007 99.0053 88.1007 98.76C88.1007 98.504 88.162 98.28 88.2847 98.088C88.4127 97.896 88.6127 97.7467 88.8847 97.64C89.1567 97.528 89.5114 97.472 89.9487 97.472H91.0927V98.2H90.0847C89.7914 98.2 89.5887 98.248 89.4767 98.344C89.37 98.44 89.3167 98.56 89.3167 98.704C89.3167 98.864 89.378 98.992 89.5007 99.088C89.6287 99.1787 89.802 99.224 90.0207 99.224C90.2287 99.224 90.4154 99.176 90.5807 99.08C90.746 98.9787 90.866 98.832 90.9407 98.64L91.1327 99.216C91.042 99.4933 90.8767 99.704 90.6367 99.848C90.3967 99.992 90.0874 100.064 89.7087 100.064ZM93.3182 100V95.696H94.5102V96.912L94.3422 96.56C94.4702 96.256 94.6755 96.0267 94.9582 95.872C95.2409 95.712 95.5849 95.632 95.9902 95.632V96.784C95.9369 96.7787 95.8889 96.776 95.8462 96.776C95.8035 96.7707 95.7582 96.768 95.7102 96.768C95.3689 96.768 95.0915 96.8667 94.8782 97.064C94.6702 97.256 94.5662 97.5573 94.5662 97.968V100H93.3182ZM99.091 100V99.16L99.011 98.976V97.472C99.011 97.2053 98.9283 96.9973 98.763 96.848C98.603 96.6987 98.355 96.624 98.019 96.624C97.7897 96.624 97.563 96.6613 97.339 96.736C97.1203 96.8053 96.9337 96.9013 96.779 97.024L96.331 96.152C96.5657 95.9867 96.8483 95.8587 97.179 95.768C97.5097 95.6773 97.8457 95.632 98.187 95.632C98.843 95.632 99.3523 95.7867 99.715 96.096C100.078 96.4053 100.259 96.888 100.259 97.544V100H99.091ZM97.779 100.064C97.443 100.064 97.155 100.008 96.915 99.896C96.675 99.7787 96.491 99.6213 96.363 99.424C96.235 99.2267 96.171 99.0053 96.171 98.76C96.171 98.504 96.2323 98.28 96.355 98.088C96.483 97.896 96.683 97.7467 96.955 97.64C97.227 97.528 97.5817 97.472 98.019 97.472H99.163V98.2H98.155C97.8617 98.2 97.659 98.248 97.547 98.344C97.4403 98.44 97.387 98.56 97.387 98.704C97.387 98.864 97.4483 98.992 97.571 99.088C97.699 99.1787 97.8723 99.224 98.091 99.224C98.299 99.224 98.4857 99.176 98.651 99.08C98.8163 98.9787 98.9363 98.832 99.011 98.64L99.203 99.216C99.1123 99.4933 98.947 99.704 98.707 99.848C98.467 99.992 98.1577 100.064 97.779 100.064ZM103.102 100L105.51 96.68V97.624L103.206 94.4H104.678L106.27 96.648L105.654 96.656L107.222 94.4H108.63L106.342 97.568V96.64L108.766 100H107.27L105.622 97.624H106.214L104.59 100H103.102Z" fill="#333333"/>
<path fill-rule="evenodd" clip-rule="evenodd" d="M170.357 120.847C170.357 113.786 164.571 107.995 157.5 107.995C117.753 107.995 101.571 108 101.571 108L96.4284 113.143H72.6427L66.857 108H44.4514C37.38 108 31.5942 113.786 31.5942 120.852C31.5942 120.857 31.5942 120.862 31.5942 120.866C31.5942 127.928 37.38 133.714 44.4514 133.714C55.099 133.714 66.8571 133.714 66.8571 133.714L72.6428 138.857H96.4285L101.571 133.714H157.594C164.571 133.714 170.357 127.928 170.357 120.862C170.357 120.857 170.357 121.178 170.357 120.847Z" fill="#30DCFF"/>
<path fill-rule="evenodd" clip-rule="evenodd" d="M170.357 120.85C170.357 113.786 164.571 108 157.406 108C117.659 108 101.571 108 101.571 108L96.4286 113.143H72.6429L66.8571 108H44.3571C37.2857 108 31.5 113.786 31.5 120.85C31.5 120.855 31.5 120.857 31.5 120.857H34.7143C34.7143 114.429 39.2143 111.214 44.3571 111.214C53.784 111.214 65.5714 111.214 65.5714 111.214L71.3571 116.357H97.7143L102.857 111.214H157.5C163.286 111.214 167.143 115.071 167.143 120.857L170.357 120.857V120.85Z" fill="white" fill-opacity="0.5"/>
<path fill-rule="evenodd" clip-rule="evenodd" d="M170.357 120.857L167.143 120.857C167.143 126.625 163.412 130.5 157.5 130.5C120.854 130.5 100.286 130.5 100.286 130.5L95.1429 135.643H73.9286L68.1429 130.5H44.3571C37.6047 130.5 34.7143 126.643 34.7143 120.858L31.5 120.857V120.865C31.5 127.929 37.2857 133.715 44.3571 133.715C55.0048 133.715 66.8571 133.715 66.8571 133.715L72.6429 138.857H96.4286L101.571 133.715H157.5C164.571 133.715 170.357 127.929 170.357 120.857Z" fill="black" fill-opacity="0.25"/>
<path d="M39.7525 126V121.456H37.9605V120.4H42.8405V121.456H41.0485V126H39.7525ZM43.356 126V121.696H44.548V122.912L44.38 122.56C44.508 122.256 44.7134 122.027 44.996 121.872C45.2787 121.712 45.6227 121.632 46.028 121.632V122.784C45.9747 122.779 45.9267 122.776 45.884 122.776C45.8414 122.771 45.796 122.768 45.748 122.768C45.4067 122.768 45.1294 122.867 44.916 123.064C44.708 123.256 44.604 123.557 44.604 123.968V126H43.356ZM46.7779 126V121.696H48.0259V126H46.7779ZM47.4019 121.096C47.1726 121.096 46.9859 121.029 46.8419 120.896C46.6979 120.763 46.6259 120.597 46.6259 120.4C46.6259 120.203 46.6979 120.037 46.8419 119.904C46.9859 119.771 47.1726 119.704 47.4019 119.704C47.6312 119.704 47.8179 119.768 47.9619 119.896C48.1059 120.019 48.1779 120.179 48.1779 120.376C48.1779 120.584 48.1059 120.757 47.9619 120.896C47.8232 121.029 47.6366 121.096 47.4019 121.096ZM51.7282 126.064C51.3655 126.064 51.0482 125.984 50.7762 125.824C50.5042 125.664 50.2908 125.421 50.1362 125.096C49.9868 124.765 49.9122 124.349 49.9122 123.848C49.9122 123.341 49.9842 122.925 50.1282 122.6C50.2722 122.275 50.4802 122.032 50.7522 121.872C51.0242 121.712 51.3495 121.632 51.7282 121.632C52.1335 121.632 52.4962 121.725 52.8162 121.912C53.1415 122.093 53.3975 122.349 53.5842 122.68C53.7762 123.011 53.8722 123.4 53.8722 123.848C53.8722 124.301 53.7762 124.693 53.5842 125.024C53.3975 125.355 53.1415 125.611 52.8162 125.792C52.4962 125.973 52.1335 126.064 51.7282 126.064ZM49.1842 127.552V121.696H50.3762V122.576L50.3522 123.856L50.4322 125.128V127.552H49.1842ZM51.5122 125.04C51.7202 125.04 51.9042 124.992 52.0642 124.896C52.2295 124.8 52.3602 124.664 52.4562 124.488C52.5575 124.307 52.6082 124.093 52.6082 123.848C52.6082 123.597 52.5575 123.384 52.4562 123.208C52.3602 123.032 52.2295 122.896 52.0642 122.8C51.9042 122.704 51.7202 122.656 51.5122 122.656C51.3042 122.656 51.1175 122.704 50.9522 122.8C50.7868 122.896 50.6562 123.032 50.5602 123.208C50.4642 123.384 50.4162 123.597 50.4162 123.848C50.4162 124.093 50.4642 124.307 50.5602 124.488C50.6562 124.664 50.7868 124.8 50.9522 124.896C51.1175 124.992 51.3042 125.04 51.5122 125.04ZM54.7076 126V120.064H55.9556V126H54.7076ZM59.1618 126.064C58.7032 126.064 58.2952 125.968 57.9378 125.776C57.5858 125.584 57.3058 125.323 57.0978 124.992C56.8952 124.656 56.7938 124.275 56.7938 123.848C56.7938 123.416 56.8952 123.035 57.0978 122.704C57.3058 122.368 57.5858 122.107 57.9378 121.92C58.2952 121.728 58.7032 121.632 59.1618 121.632C59.6152 121.632 60.0205 121.728 60.3778 121.92C60.7352 122.107 61.0152 122.365 61.2178 122.696C61.4205 123.027 61.5218 123.411 61.5218 123.848C61.5218 124.275 61.4205 124.656 61.2178 124.992C61.0152 125.323 60.7352 125.584 60.3778 125.776C60.0205 125.968 59.6152 126.064 59.1618 126.064ZM59.1618 125.04C59.3698 125.04 59.5565 124.992 59.7218 124.896C59.8872 124.8 60.0178 124.664 60.1138 124.488C60.2098 124.307 60.2578 124.093 60.2578 123.848C60.2578 123.597 60.2098 123.384 60.1138 123.208C60.0178 123.032 59.8872 122.896 59.7218 122.8C59.5565 122.704 59.3698 122.656 59.1618 122.656C58.9538 122.656 58.7672 122.704 58.6018 122.8C58.4365 122.896 58.3032 123.032 58.2018 123.208C58.1058 123.384 58.0578 123.597 58.0578 123.848C58.0578 124.093 58.1058 124.307 58.2018 124.488C58.3032 124.664 58.4365 124.8 58.6018 124.896C58.7672 124.992 58.9538 125.04 59.1618 125.04ZM64.0697 126L66.4777 122.68V123.624L64.1737 120.4H65.6457L67.2377 122.648L66.6217 122.656L68.1897 120.4H69.5977L67.3097 123.568V122.64L69.7337 126H68.2377L66.5897 123.624H67.1817L65.5577 126H64.0697Z" fill="#333333"/>
<path fill-rule="evenodd" clip-rule="evenodd" d="M170.357 146.561C170.357 139.499 164.571 133.709 157.5 133.709C117.753 133.709 101.571 133.714 101.571 133.714L96.4284 138.857H72.6427L66.857 133.714H44.4514C37.38 133.714 31.5942 139.499 31.5942 146.566C31.5942 146.571 31.5942 146.575 31.5942 146.58C31.5942 153.642 37.38 159.428 44.4514 159.428C55.099 159.428 66.8571 159.428 66.8571 159.428L72.6428 164.571H96.4285L101.571 159.428H157.594C164.571 159.428 170.357 153.642 170.357 146.576C170.357 146.571 170.357 146.892 170.357 146.561Z" fill="#30DCFF"/>
<path fill-rule="evenodd" clip-rule="evenodd" d="M170.357 146.564C170.357 139.5 164.571 133.714 157.406 133.714C117.659 133.714 101.571 133.714 101.571 133.714L96.4286 138.857H72.6429L66.8571 133.714H44.3571C37.2857 133.714 31.5 139.5 31.5 146.564C31.5 146.569 31.5 146.571 31.5 146.571H34.7143C34.7143 140.142 39.2143 136.928 44.3571 136.928C53.784 136.928 65.5714 136.928 65.5714 136.928L71.3571 142.071H97.7143L102.857 136.928H157.5C163.286 136.928 167.143 140.785 167.143 146.571L170.357 146.571V146.564Z" fill="white" fill-opacity="0.5"/>
<path fill-rule="evenodd" clip-rule="evenodd" d="M170.357 146.571L167.143 146.571C167.143 152.338 163.412 156.214 157.5 156.214C120.854 156.214 100.286 156.214 100.286 156.214L95.1429 161.357H73.9286L68.1429 156.214H44.3571C37.6047 156.214 34.7143 152.357 34.7143 146.572L31.5 146.571V146.579C31.5 153.643 37.2857 159.428 44.3571 159.428C55.0048 159.428 66.8571 159.428 66.8571 159.428L72.6429 164.571H96.4286L101.571 159.428H157.5C164.571 159.428 170.357 153.643 170.357 146.571Z" fill="black" fill-opacity="0.25"/>
<path d="M40.344 152L37.928 146.4H39.328L41.44 151.36H40.616L42.76 146.4H44.048L41.624 152H40.344ZM46.7473 152V151.16L46.6673 150.976V149.472C46.6673 149.205 46.5846 148.997 46.4193 148.848C46.2593 148.699 46.0113 148.624 45.6753 148.624C45.4459 148.624 45.2193 148.661 44.9953 148.736C44.7766 148.805 44.5899 148.901 44.4353 149.024L43.9873 148.152C44.2219 147.987 44.5046 147.859 44.8353 147.768C45.1659 147.677 45.5019 147.632 45.8433 147.632C46.4993 147.632 47.0086 147.787 47.3713 148.096C47.7339 148.405 47.9153 148.888 47.9153 149.544V152H46.7473ZM45.4353 152.064C45.0993 152.064 44.8113 152.008 44.5713 151.896C44.3313 151.779 44.1473 151.621 44.0193 151.424C43.8913 151.227 43.8273 151.005 43.8273 150.76C43.8273 150.504 43.8886 150.28 44.0113 150.088C44.1393 149.896 44.3393 149.747 44.6113 149.64C44.8833 149.528 45.2379 149.472 45.6753 149.472H46.8193V150.2H45.8113C45.5179 150.2 45.3153 150.248 45.2033 150.344C45.0966 150.44 45.0433 150.56 45.0433 150.704C45.0433 150.864 45.1046 150.992 45.2273 151.088C45.3553 151.179 45.5286 151.224 45.7473 151.224C45.9553 151.224 46.1419 151.176 46.3073 151.08C46.4726 150.979 46.5926 150.832 46.6673 150.64L46.8593 151.216C46.7686 151.493 46.6033 151.704 46.3633 151.848C46.1233 151.992 45.8139 152.064 45.4353 152.064ZM49.0448 152V146.064H50.2928V152H49.0448ZM51.451 152V147.696H52.699V152H51.451ZM52.075 147.096C51.8457 147.096 51.659 147.029 51.515 146.896C51.371 146.763 51.299 146.597 51.299 146.4C51.299 146.203 51.371 146.037 51.515 145.904C51.659 145.771 51.8457 145.704 52.075 145.704C52.3043 145.704 52.491 145.768 52.635 145.896C52.779 146.019 52.851 146.179 52.851 146.376C52.851 146.584 52.779 146.757 52.635 146.896C52.4963 147.029 52.3097 147.096 52.075 147.096ZM55.7053 152.064C55.2999 152.064 54.9346 151.973 54.6093 151.792C54.2839 151.605 54.0253 151.347 53.8333 151.016C53.6466 150.685 53.5533 150.296 53.5533 149.848C53.5533 149.395 53.6466 149.003 53.8333 148.672C54.0253 148.341 54.2839 148.085 54.6093 147.904C54.9346 147.723 55.2999 147.632 55.7053 147.632C56.0679 147.632 56.3853 147.712 56.6573 147.872C56.9293 148.032 57.1399 148.275 57.2893 148.6C57.4386 148.925 57.5133 149.341 57.5133 149.848C57.5133 150.349 57.4413 150.765 57.2973 151.096C57.1533 151.421 56.9453 151.664 56.6733 151.824C56.4066 151.984 56.0839 152.064 55.7053 152.064ZM55.9213 151.04C56.1239 151.04 56.3079 150.992 56.4733 150.896C56.6386 150.8 56.7693 150.664 56.8653 150.488C56.9666 150.307 57.0173 150.093 57.0173 149.848C57.0173 149.597 56.9666 149.384 56.8653 149.208C56.7693 149.032 56.6386 148.896 56.4733 148.8C56.3079 148.704 56.1239 148.656 55.9213 148.656C55.7133 148.656 55.5266 148.704 55.3613 148.8C55.1959 148.896 55.0626 149.032 54.9613 149.208C54.8653 149.384 54.8173 149.597 54.8173 149.848C54.8173 150.093 54.8653 150.307 54.9613 150.488C55.0626 150.664 55.1959 150.8 55.3613 150.896C55.5266 150.992 55.7133 151.04 55.9213 151.04ZM57.0493 152V151.12L57.0733 149.84L56.9933 148.568V146.064H58.2413V152H57.0493ZM61.5323 152.064C61.0416 152.064 60.6096 151.968 60.2363 151.776C59.8683 151.584 59.583 151.323 59.3803 150.992C59.1776 150.656 59.0763 150.275 59.0763 149.848C59.0763 149.416 59.175 149.035 59.3723 148.704C59.575 148.368 59.8496 148.107 60.1963 147.92C60.543 147.728 60.935 147.632 61.3723 147.632C61.7936 147.632 62.1723 147.723 62.5083 147.904C62.8496 148.08 63.119 148.336 63.3163 148.672C63.5136 149.003 63.6123 149.4 63.6123 149.864C63.6123 149.912 63.6096 149.968 63.6043 150.032C63.599 150.091 63.5936 150.147 63.5883 150.2H60.0923V149.472H62.9323L62.4523 149.688C62.4523 149.464 62.407 149.269 62.3163 149.104C62.2256 148.939 62.1003 148.811 61.9403 148.72C61.7803 148.624 61.5936 148.576 61.3803 148.576C61.167 148.576 60.9776 148.624 60.8123 148.72C60.6523 148.811 60.527 148.941 60.4363 149.112C60.3456 149.277 60.3003 149.475 60.3003 149.704V149.896C60.3003 150.131 60.351 150.339 60.4523 150.52C60.559 150.696 60.7056 150.832 60.8923 150.928C61.0843 151.019 61.3083 151.064 61.5643 151.064C61.7936 151.064 61.9936 151.029 62.1643 150.96C62.3403 150.891 62.5003 150.787 62.6443 150.648L63.3083 151.368C63.111 151.592 62.863 151.765 62.5643 151.888C62.2656 152.005 61.9216 152.064 61.5323 152.064ZM66.1568 152L68.5648 148.68V149.624L66.2608 146.4H67.7328L69.3248 148.648L68.7088 148.656L70.2768 146.4H71.6848L69.3968 149.568V148.64L71.8208 152H70.3248L68.6768 149.624H69.2688L67.6448 152H66.1568ZM80.1974 147.632C80.5387 147.632 80.84 147.701 81.1014 147.84C81.368 147.973 81.576 148.181 81.7254 148.464C81.88 148.741 81.9574 149.099 81.9574 149.536V152H80.7094V149.728C80.7094 149.381 80.6374 149.125 80.4934 148.96C80.3494 148.795 80.1467 148.712 79.8854 148.712C79.704 148.712 79.5414 148.755 79.3974 148.84C79.2534 148.92 79.1414 149.043 79.0614 149.208C78.9814 149.373 78.9414 149.584 78.9414 149.84V152H77.6934V149.728C77.6934 149.381 77.6214 149.125 77.4774 148.96C77.3387 148.795 77.1387 148.712 76.8774 148.712C76.696 148.712 76.5334 148.755 76.3894 148.84C76.2454 148.92 76.1334 149.043 76.0534 149.208C75.9734 149.373 75.9334 149.584 75.9334 149.84V152H74.6854V147.696H75.8774V148.872L75.6534 148.528C75.8027 148.235 76.0134 148.013 76.2854 147.864C76.5627 147.709 76.8774 147.632 77.2294 147.632C77.624 147.632 77.968 147.733 78.2614 147.936C78.56 148.133 78.7574 148.437 78.8534 148.848L78.4134 148.728C78.5574 148.392 78.7867 148.125 79.1014 147.928C79.4214 147.731 79.7867 147.632 80.1974 147.632ZM85.2433 152.064C84.7526 152.064 84.3206 151.968 83.9473 151.776C83.5793 151.584 83.2939 151.323 83.0913 150.992C82.8886 150.656 82.7873 150.275 82.7873 149.848C82.7873 149.416 82.8859 149.035 83.0833 148.704C83.2859 148.368 83.5606 148.107 83.9073 147.92C84.2539 147.728 84.6459 147.632 85.0833 147.632C85.5046 147.632 85.8833 147.723 86.2193 147.904C86.5606 148.08 86.8299 148.336 87.0273 148.672C87.2246 149.003 87.3233 149.4 87.3233 149.864C87.3233 149.912 87.3206 149.968 87.3153 150.032C87.3099 150.091 87.3046 150.147 87.2993 150.2H83.8033V149.472H86.6432L86.1633 149.688C86.1633 149.464 86.1179 149.269 86.0273 149.104C85.9366 148.939 85.8113 148.811 85.6513 148.72C85.4913 148.624 85.3046 148.576 85.0913 148.576C84.8779 148.576 84.6886 148.624 84.5233 148.72C84.3633 148.811 84.2379 148.941 84.1473 149.112C84.0566 149.277 84.0113 149.475 84.0113 149.704V149.896C84.0113 150.131 84.0619 150.339 84.1633 150.52C84.2699 150.696 84.4166 150.832 84.6033 150.928C84.7953 151.019 85.0193 151.064 85.2753 151.064C85.5046 151.064 85.7046 151.029 85.8753 150.96C86.0513 150.891 86.2113 150.787 86.3553 150.648L87.0193 151.368C86.8219 151.592 86.5739 151.765 86.2753 151.888C85.9766 152.005 85.6326 152.064 85.2433 152.064ZM90.7701 147.632C91.1115 147.632 91.4155 147.701 91.6821 147.84C91.9541 147.973 92.1675 148.181 92.3221 148.464C92.4768 148.741 92.5541 149.099 92.5541 149.536V152H91.3061V149.728C91.3061 149.381 91.2288 149.125 91.0741 148.96C90.9248 148.795 90.7115 148.712 90.4341 148.712C90.2368 148.712 90.0581 148.755 89.8981 148.84C89.7435 148.92 89.6208 149.045 89.5301 149.216C89.4448 149.387 89.4021 149.605 89.4021 149.872V152H88.1541V147.696H89.3461V148.888L89.1221 148.528C89.2768 148.24 89.4981 148.019 89.7861 147.864C90.0741 147.709 90.4021 147.632 90.7701 147.632ZM95.7646 152.064C95.306 152.064 94.898 151.968 94.5406 151.776C94.1886 151.584 93.9086 151.323 93.7006 150.992C93.498 150.656 93.3966 150.275 93.3966 149.848C93.3966 149.416 93.498 149.035 93.7006 148.704C93.9086 148.368 94.1886 148.107 94.5406 147.92C94.898 147.728 95.306 147.632 95.7646 147.632C96.218 147.632 96.6233 147.728 96.9806 147.92C97.338 148.107 97.618 148.365 97.8206 148.696C98.0233 149.027 98.1246 149.411 98.1246 149.848C98.1246 150.275 98.0233 150.656 97.8206 150.992C97.618 151.323 97.338 151.584 96.9806 151.776C96.6233 151.968 96.218 152.064 95.7646 152.064ZM95.7646 151.04C95.9726 151.04 96.1593 150.992 96.3246 150.896C96.49 150.8 96.6206 150.664 96.7166 150.488C96.8126 150.307 96.8606 150.093 96.8606 149.848C96.8606 149.597 96.8126 149.384 96.7166 149.208C96.6206 149.032 96.49 148.896 96.3246 148.8C96.1593 148.704 95.9726 148.656 95.7646 148.656C95.5566 148.656 95.37 148.704 95.2046 148.8C95.0393 148.896 94.906 149.032 94.8046 149.208C94.7086 149.384 94.6606 149.597 94.6606 149.848C94.6606 150.093 94.7086 150.307 94.8046 150.488C94.906 150.664 95.0393 150.8 95.2046 150.896C95.37 150.992 95.5566 151.04 95.7646 151.04ZM98.9588 152V147.696H100.151V148.912L99.9828 148.56C100.111 148.256 100.316 148.027 100.599 147.872C100.881 147.712 101.225 147.632 101.631 147.632V148.784C101.577 148.779 101.529 148.776 101.487 148.776C101.444 148.771 101.399 148.768 101.351 148.768C101.009 148.768 100.732 148.867 100.519 149.064C100.311 149.256 100.207 149.557 100.207 149.968V152H98.9588ZM106.502 152.064C106.096 152.064 105.731 151.973 105.406 151.792C105.08 151.611 104.822 151.355 104.63 151.024C104.443 150.693 104.35 150.301 104.35 149.848C104.35 149.4 104.443 149.011 104.63 148.68C104.822 148.349 105.08 148.093 105.406 147.912C105.731 147.725 106.096 147.632 106.502 147.632C106.88 147.632 107.203 147.712 107.47 147.872C107.742 148.032 107.95 148.275 108.094 148.6C108.238 148.925 108.31 149.341 108.31 149.848C108.31 150.349 108.235 150.765 108.086 151.096C107.936 151.421 107.726 151.664 107.454 151.824C107.182 151.984 106.864 152.064 106.502 152.064ZM106.718 151.04C106.92 151.04 107.104 150.992 107.27 150.896C107.435 150.8 107.566 150.664 107.662 150.488C107.763 150.307 107.814 150.093 107.814 149.848C107.814 149.597 107.763 149.384 107.662 149.208C107.566 149.032 107.435 148.896 107.27 148.8C107.104 148.704 106.92 148.656 106.718 148.656C106.51 148.656 106.323 148.704 106.158 148.8C105.992 148.896 105.859 149.032 105.758 149.208C105.662 149.384 105.614 149.597 105.614 149.848C105.614 150.093 105.662 150.307 105.758 150.488C105.859 150.664 105.992 150.8 106.158 150.896C106.323 150.992 106.51 151.04 106.718 151.04ZM107.79 153.552V151.128L107.87 149.856L107.846 148.576V147.696H109.038V153.552H107.79ZM112.009 152.064C111.652 152.064 111.332 151.995 111.049 151.856C110.772 151.717 110.556 151.507 110.401 151.224C110.247 150.936 110.169 150.571 110.169 150.128V147.696H111.417V149.944C111.417 150.301 111.492 150.565 111.641 150.736C111.796 150.901 112.012 150.984 112.289 150.984C112.481 150.984 112.652 150.944 112.801 150.864C112.951 150.779 113.068 150.651 113.153 150.48C113.239 150.304 113.281 150.085 113.281 149.824V147.696H114.529V152H113.345V150.816L113.561 151.16C113.417 151.459 113.204 151.685 112.921 151.84C112.644 151.989 112.34 152.064 112.009 152.064ZM117.821 152.064C117.331 152.064 116.899 151.968 116.525 151.776C116.157 151.584 115.872 151.323 115.669 150.992C115.467 150.656 115.365 150.275 115.365 149.848C115.365 149.416 115.464 149.035 115.661 148.704C115.864 148.368 116.139 148.107 116.485 147.92C116.832 147.728 117.224 147.632 117.661 147.632C118.083 147.632 118.461 147.723 118.797 147.904C119.139 148.08 119.408 148.336 119.605 148.672C119.803 149.003 119.901 149.4 119.901 149.864C119.901 149.912 119.899 149.968 119.893 150.032C119.888 150.091 119.883 150.147 119.877 150.2H116.381V149.472H119.221L118.741 149.688C118.741 149.464 118.696 149.269 118.605 149.104C118.515 148.939 118.389 148.811 118.229 148.72C118.069 148.624 117.883 148.576 117.669 148.576C117.456 148.576 117.267 148.624 117.101 148.72C116.941 148.811 116.816 148.941 116.725 149.112C116.635 149.277 116.589 149.475 116.589 149.704V149.896C116.589 150.131 116.64 150.339 116.741 150.52C116.848 150.696 116.995 150.832 117.181 150.928C117.373 151.019 117.597 151.064 117.853 151.064C118.083 151.064 118.283 151.029 118.453 150.96C118.629 150.891 118.789 150.787 118.933 150.648L119.597 151.368C119.4 151.592 119.152 151.765 118.853 151.888C118.555 152.005 118.211 152.064 117.821 152.064ZM124.702 146.304C125.219 146.304 125.665 146.411 126.038 146.624C126.411 146.837 126.699 147.149 126.902 147.56C127.105 147.965 127.206 148.472 127.206 149.08C127.206 149.725 127.083 150.272 126.838 150.72C126.598 151.168 126.265 151.509 125.838 151.744C125.411 151.979 124.915 152.096 124.35 152.096C124.057 152.096 123.774 152.064 123.502 152C123.23 151.936 122.995 151.84 122.798 151.712L123.278 150.76C123.433 150.867 123.598 150.941 123.774 150.984C123.95 151.021 124.134 151.04 124.326 151.04C124.806 151.04 125.187 150.893 125.47 150.6C125.758 150.307 125.902 149.872 125.902 149.296C125.902 149.2 125.899 149.093 125.894 148.976C125.889 148.859 125.875 148.741 125.854 148.624L126.206 148.96C126.115 149.168 125.987 149.344 125.822 149.488C125.657 149.627 125.465 149.733 125.246 149.808C125.027 149.877 124.782 149.912 124.51 149.912C124.153 149.912 123.827 149.84 123.534 149.696C123.246 149.552 123.014 149.349 122.838 149.088C122.667 148.827 122.582 148.52 122.582 148.168C122.582 147.784 122.675 147.453 122.862 147.176C123.054 146.899 123.31 146.685 123.63 146.536C123.955 146.381 124.313 146.304 124.702 146.304ZM124.782 147.272C124.595 147.272 124.433 147.307 124.294 147.376C124.155 147.44 124.046 147.536 123.966 147.664C123.886 147.787 123.846 147.933 123.846 148.104C123.846 148.36 123.931 148.565 124.102 148.72C124.278 148.869 124.51 148.944 124.798 148.944C124.985 148.944 125.15 148.909 125.294 148.84C125.443 148.765 125.558 148.664 125.638 148.536C125.718 148.408 125.758 148.264 125.758 148.104C125.758 147.944 125.718 147.803 125.638 147.68C125.563 147.552 125.454 147.453 125.31 147.384C125.166 147.309 124.99 147.272 124.782 147.272ZM130.228 152.096C129.769 152.096 129.358 151.984 128.996 151.76C128.633 151.531 128.348 151.2 128.14 150.768C127.932 150.336 127.828 149.813 127.828 149.2C127.828 148.587 127.932 148.064 128.14 147.632C128.348 147.2 128.633 146.872 128.996 146.648C129.358 146.419 129.769 146.304 130.228 146.304C130.692 146.304 131.102 146.419 131.46 146.648C131.822 146.872 132.108 147.2 132.316 147.632C132.524 148.064 132.628 148.587 132.628 149.2C132.628 149.813 132.524 150.336 132.316 150.768C132.108 151.2 131.822 151.531 131.46 151.76C131.102 151.984 130.692 152.096 130.228 152.096ZM130.228 151C130.446 151 130.636 150.939 130.796 150.816C130.961 150.693 131.089 150.499 131.18 150.232C131.276 149.965 131.324 149.621 131.324 149.2C131.324 148.779 131.276 148.435 131.18 148.168C131.089 147.901 130.961 147.707 130.796 147.584C130.636 147.461 130.446 147.4 130.228 147.4C130.014 147.4 129.825 147.461 129.66 147.584C129.5 147.707 129.372 147.901 129.276 148.168C129.185 148.435 129.14 148.779 129.14 149.2C129.14 149.621 129.185 149.965 129.276 150.232C129.372 150.499 129.5 150.693 129.66 150.816C129.825 150.939 130.014 151 130.228 151ZM137.923 152.064C137.432 152.064 137 151.968 136.627 151.776C136.259 151.584 135.974 151.323 135.771 150.992C135.568 150.656 135.467 150.275 135.467 149.848C135.467 149.416 135.566 149.035 135.763 148.704C135.966 148.368 136.24 148.107 136.587 147.92C136.934 147.728 137.326 147.632 137.763 147.632C138.184 147.632 138.563 147.723 138.899 147.904C139.24 148.08 139.51 148.336 139.707 148.672C139.904 149.003 140.003 149.4 140.003 149.864C140.003 149.912 140 149.968 139.995 150.032C139.99 150.091 139.984 150.147 139.979 150.2H136.483V149.472H139.323L138.843 149.688C138.843 149.464 138.798 149.269 138.707 149.104C138.616 148.939 138.491 148.811 138.331 148.72C138.171 148.624 137.984 148.576 137.771 148.576C137.558 148.576 137.368 148.624 137.203 148.72C137.043 148.811 136.918 148.941 136.827 149.112C136.736 149.277 136.691 149.475 136.691 149.704V149.896C136.691 150.131 136.742 150.339 136.843 150.52C136.95 150.696 137.096 150.832 137.283 150.928C137.475 151.019 137.699 151.064 137.955 151.064C138.184 151.064 138.384 151.029 138.555 150.96C138.731 150.891 138.891 150.787 139.035 150.648L139.699 151.368C139.502 151.592 139.254 151.765 138.955 151.888C138.656 152.005 138.312 152.064 137.923 152.064ZM146.346 147.632C146.687 147.632 146.988 147.701 147.25 147.84C147.516 147.973 147.724 148.181 147.874 148.464C148.028 148.741 148.106 149.099 148.106 149.536V152H146.858V149.728C146.858 149.381 146.786 149.125 146.642 148.96C146.498 148.795 146.295 148.712 146.034 148.712C145.852 148.712 145.69 148.755 145.546 148.84C145.402 148.92 145.29 149.043 145.21 149.208C145.13 149.373 145.09 149.584 145.09 149.84V152H143.842V149.728C143.842 149.381 143.77 149.125 143.626 148.96C143.487 148.795 143.287 148.712 143.026 148.712C142.844 148.712 142.682 148.755 142.538 148.84C142.394 148.92 142.282 149.043 142.202 149.208C142.122 149.373 142.082 149.584 142.082 149.84V152H140.834V147.696H142.026V148.872L141.802 148.528C141.951 148.235 142.162 148.013 142.434 147.864C142.711 147.709 143.026 147.632 143.378 147.632C143.772 147.632 144.116 147.733 144.41 147.936C144.708 148.133 144.906 148.437 145.002 148.848L144.562 148.728C144.706 148.392 144.935 148.125 145.25 147.928C145.57 147.731 145.935 147.632 146.346 147.632ZM152.97 152V149.712L153.266 150.496L150.802 146.4H152.178L154.066 149.544H153.274L155.17 146.4H156.442L153.978 150.496L154.266 149.712V152H152.97Z" fill="#333333"/>
</g>
<defs>
<filter id="filter0_d_11_417" x="0" y="0" width="180" height="182.571" filterUnits="userSpaceOnUse" color-interpolation-filters="sRGB">
<feFlood flood-opacity="0" result="BackgroundImageFix"/>
<feColorMatrix in="SourceAlpha" type="matrix" values="0 0 0 0 0 0 0 0 0 0 0 0 0 0 0 0 0 0 127 0" result="hardAlpha"/>
<feOffset dy="2.57143"/>
<feColorMatrix type="matrix" values="0 0 0 0 0 0 0 0 0 0 0 0 0 0 0 0 0 0 0.25 0"/>
<feBlend mode="normal" in2="BackgroundImageFix" result="effect1_dropShadow_11_417"/>
<feBlend mode="normal" in="SourceGraphic" in2="effect1_dropShadow_11_417" result="shape"/>
</filter>
</defs>
</svg>
