<svg width="180" height="183" viewBox="0 0 180 183" fill="none" xmlns="http://www.w3.org/2000/svg">
<g filter="url(#filter0_d_11_479)">
<rect width="180" height="180" rx="12.8571" fill="#F2F2F2"/>
<path fill-rule="evenodd" clip-rule="evenodd" d="M170.357 45.0004C170.357 37.929 165.857 33.429 158.786 33.429C133.661 33.429 149.172 33.429 131.143 33.429C126.174 33.429 123.933 31.9912 121.179 29.2504C115.195 23.6702 100.146 14.7861 67.1318 14.7861C20.587 14.7861 9.64282 33.429 9.64282 33.429C9.64282 33.429 9.6431 36.463 9.64324 45.0004C9.64324 51.429 14.7857 56.5718 21.2143 56.5718C38.242 56.5718 66.8571 56.5718 66.8571 56.5718L72.6428 61.7147H96.4285L101.571 56.5718C101.571 56.5718 123.448 56.5718 158.786 56.5718C165.857 56.5718 170.357 52.0718 170.357 45.0004C170.357 46.2009 170.357 43.1569 170.357 45.0004Z" fill="#FC79FF"/>
<path fill-rule="evenodd" clip-rule="evenodd" d="M167.143 45C167.143 50.1429 164.571 53.3571 158.786 53.3571L100.286 53.3571L95.1429 58.5H73.9286L68.1429 53.3571C68.1429 53.3571 37.5386 53.3571 21.2143 53.3571C16.0485 53.3571 12.8571 49.5 12.8571 45H9.64282C9.64282 51.4286 14.7857 56.5714 21.2143 56.5714C38.2119 56.5714 66.8571 56.5714 66.8571 56.5714L72.6603 61.7143H96.4286L101.571 56.5714L158.786 56.5714C165.857 56.5714 170.357 52.0714 170.357 45C169.393 45 168.429 45 167.143 45Z" fill="black" fill-opacity="0.25"/>
<path fill-rule="evenodd" clip-rule="evenodd" d="M9.64282 45.0004H12.8571V34.7147C12.8571 34.7147 22.4955 18.0004 67.0408 18.0004C97.291 18.0004 112.858 26.1294 119.25 31.5004C122.331 34.0912 126.457 36.6125 130.5 36.6433C135.964 36.6433 148.799 36.6433 158.786 36.6433C163.906 36.6433 167.143 40.179 167.143 44.3576V45.0004H169.714H170.357C170.357 37.929 165.857 33.429 158.786 33.429C133.71 33.429 148.505 33.429 130.5 33.429C126 33.429 123.537 31.603 120.995 29.0618C115.03 23.4646 100.01 14.7861 67.0293 14.7861C20.5137 14.7861 9.64282 33.429 9.64282 33.429L9.64282 45.0004Z" fill="white" fill-opacity="0.5"/>
<path d="M19.4475 46.3821C19.0102 46.3821 18.6022 46.3101 18.2235 46.1661C17.8502 46.0221 17.5249 45.8195 17.2475 45.5581C16.9755 45.2968 16.7622 44.9901 16.6075 44.6381C16.4582 44.2861 16.3835 43.9021 16.3835 43.4861C16.3835 43.0701 16.4582 42.6861 16.6075 42.3341C16.7622 41.9821 16.9782 41.6755 17.2555 41.4141C17.5329 41.1528 17.8582 40.9501 18.2315 40.8061C18.6049 40.6621 19.0102 40.5901 19.4475 40.5901C19.8902 40.5901 20.2955 40.6621 20.6635 40.8061C21.0369 40.9501 21.3595 41.1528 21.6315 41.4141C21.9089 41.6701 22.1249 41.9741 22.2795 42.3261C22.4342 42.6781 22.5115 43.0648 22.5115 43.4861C22.5115 43.9021 22.4342 44.2888 22.2795 44.6461C22.1249 44.9981 21.9089 45.3048 21.6315 45.5661C21.3595 45.8221 21.0369 46.0221 20.6635 46.1661C20.2955 46.3101 19.8902 46.3821 19.4475 46.3821ZM21.2795 47.5741C21.0609 47.5741 20.8529 47.5501 20.6555 47.5021C20.4635 47.4541 20.2715 47.3768 20.0795 47.2701C19.8929 47.1635 19.6955 47.0195 19.4875 46.8381C19.2849 46.6568 19.0635 46.4328 18.8235 46.1661L20.1835 45.8221C20.3275 46.0195 20.4609 46.1768 20.5835 46.2941C20.7062 46.4115 20.8235 46.4941 20.9355 46.5421C21.0529 46.5901 21.1755 46.6141 21.3035 46.6141C21.6449 46.6141 21.9489 46.4755 22.2155 46.1981L22.7915 46.8861C22.4129 47.3448 21.9089 47.5741 21.2795 47.5741ZM19.4475 45.2781C19.6982 45.2781 19.9275 45.2355 20.1355 45.1501C20.3489 45.0648 20.5355 44.9421 20.6955 44.7821C20.8555 44.6221 20.9782 44.4328 21.0635 44.2141C21.1542 43.9901 21.1995 43.7475 21.1995 43.4861C21.1995 43.2195 21.1542 42.9768 21.0635 42.7581C20.9782 42.5395 20.8555 42.3501 20.6955 42.1901C20.5355 42.0301 20.3489 41.9075 20.1355 41.8221C19.9275 41.7368 19.6982 41.6941 19.4475 41.6941C19.1969 41.6941 18.9649 41.7368 18.7515 41.8221C18.5382 41.9075 18.3515 42.0301 18.1915 42.1901C18.0369 42.3501 17.9142 42.5395 17.8235 42.7581C17.7382 42.9768 17.6955 43.2195 17.6955 43.4861C17.6955 43.7475 17.7382 43.9901 17.8235 44.2141C17.9142 44.4328 18.0369 44.6221 18.1915 44.7821C18.3515 44.9421 18.5382 45.0648 18.7515 45.1501C18.9649 45.2355 19.1969 45.2781 19.4475 45.2781ZM25.2135 46.3501C24.8562 46.3501 24.5362 46.2808 24.2535 46.1421C23.9762 46.0035 23.7602 45.7928 23.6055 45.5101C23.4509 45.2221 23.3735 44.8568 23.3735 44.4141V41.9821H24.6215V44.2301C24.6215 44.5875 24.6962 44.8515 24.8455 45.0221C25.0002 45.1875 25.2162 45.2701 25.4935 45.2701C25.6855 45.2701 25.8562 45.2301 26.0055 45.1501C26.1549 45.0648 26.2722 44.9368 26.3575 44.7661C26.4429 44.5901 26.4855 44.3715 26.4855 44.1101V41.9821H27.7335V46.2861H26.5495V45.1021L26.7655 45.4461C26.6215 45.7448 26.4082 45.9715 26.1255 46.1261C25.8482 46.2755 25.5442 46.3501 25.2135 46.3501ZM31.5297 46.2861V45.4461L31.4497 45.2621V43.7581C31.4497 43.4915 31.3671 43.2835 31.2017 43.1341C31.0417 42.9848 30.7937 42.9101 30.4577 42.9101C30.2284 42.9101 30.0017 42.9475 29.7777 43.0221C29.5591 43.0915 29.3724 43.1875 29.2177 43.3101L28.7697 42.4381C29.0044 42.2728 29.2871 42.1448 29.6177 42.0541C29.9484 41.9635 30.2844 41.9181 30.6257 41.9181C31.2817 41.9181 31.7911 42.0728 32.1537 42.3821C32.5164 42.6915 32.6977 43.1741 32.6977 43.8301V46.2861H31.5297ZM30.2177 46.3501C29.8817 46.3501 29.5937 46.2941 29.3537 46.1821C29.1137 46.0648 28.9297 45.9075 28.8017 45.7101C28.6737 45.5128 28.6097 45.2915 28.6097 45.0461C28.6097 44.7901 28.6711 44.5661 28.7937 44.3741C28.9217 44.1821 29.1217 44.0328 29.3937 43.9261C29.6657 43.8141 30.0204 43.7581 30.4577 43.7581H31.6017V44.4861H30.5937C30.3004 44.4861 30.0977 44.5341 29.9857 44.6301C29.8791 44.7261 29.8257 44.8461 29.8257 44.9901C29.8257 45.1501 29.8871 45.2781 30.0097 45.3741C30.1377 45.4648 30.3111 45.5101 30.5297 45.5101C30.7377 45.5101 30.9244 45.4621 31.0897 45.3661C31.2551 45.2648 31.3751 45.1181 31.4497 44.9261L31.6417 45.5021C31.5511 45.7795 31.3857 45.9901 31.1457 46.1341C30.9057 46.2781 30.5964 46.3501 30.2177 46.3501ZM36.4432 41.9181C36.7846 41.9181 37.0886 41.9875 37.3552 42.1261C37.6272 42.2595 37.8406 42.4675 37.9952 42.7501C38.1499 43.0275 38.2272 43.3848 38.2272 43.8221V46.2861H36.9792V44.0141C36.9792 43.6675 36.9019 43.4115 36.7472 43.2461C36.5979 43.0808 36.3846 42.9981 36.1072 42.9981C35.9099 42.9981 35.7312 43.0408 35.5712 43.1261C35.4166 43.2061 35.2939 43.3315 35.2032 43.5021C35.1179 43.6728 35.0752 43.8915 35.0752 44.1581V46.2861H33.8272V41.9821H35.0192V43.1741L34.7952 42.8141C34.9499 42.5261 35.1712 42.3048 35.4592 42.1501C35.7472 41.9955 36.0752 41.9181 36.4432 41.9181ZM41.2377 46.3501C40.8324 46.3501 40.4671 46.2595 40.1417 46.0781C39.8164 45.8915 39.5577 45.6328 39.3657 45.3021C39.1791 44.9715 39.0857 44.5821 39.0857 44.1341C39.0857 43.6808 39.1791 43.2888 39.3657 42.9581C39.5577 42.6275 39.8164 42.3715 40.1417 42.1901C40.4671 42.0088 40.8324 41.9181 41.2377 41.9181C41.6004 41.9181 41.9177 41.9981 42.1897 42.1581C42.4617 42.3181 42.6724 42.5608 42.8217 42.8861C42.9711 43.2115 43.0457 43.6275 43.0457 44.1341C43.0457 44.6355 42.9737 45.0515 42.8297 45.3821C42.6857 45.7075 42.4777 45.9501 42.2057 46.1101C41.9391 46.2701 41.6164 46.3501 41.2377 46.3501ZM41.4537 45.3261C41.6564 45.3261 41.8404 45.2781 42.0057 45.1821C42.1711 45.0861 42.3017 44.9501 42.3977 44.7741C42.4991 44.5928 42.5497 44.3795 42.5497 44.1341C42.5497 43.8835 42.4991 43.6701 42.3977 43.4941C42.3017 43.3181 42.1711 43.1821 42.0057 43.0861C41.8404 42.9901 41.6564 42.9421 41.4537 42.9421C41.2457 42.9421 41.0591 42.9901 40.8937 43.0861C40.7284 43.1821 40.5951 43.3181 40.4937 43.4941C40.3977 43.6701 40.3497 43.8835 40.3497 44.1341C40.3497 44.3795 40.3977 44.5928 40.4937 44.7741C40.5951 44.9501 40.7284 45.0861 40.8937 45.1821C41.0591 45.2781 41.2457 45.3261 41.4537 45.3261ZM42.5817 46.2861V45.4061L42.6057 44.1261L42.5257 42.8541V40.3501H43.7737V46.2861H42.5817ZM46.9768 46.3501C46.5181 46.3501 46.1101 46.2541 45.7528 46.0621C45.4008 45.8701 45.1208 45.6088 44.9128 45.2781C44.7101 44.9421 44.6088 44.5608 44.6088 44.1341C44.6088 43.7021 44.7101 43.3208 44.9128 42.9901C45.1208 42.6541 45.4008 42.3928 45.7528 42.2061C46.1101 42.0141 46.5181 41.9181 46.9768 41.9181C47.4301 41.9181 47.8355 42.0141 48.1928 42.2061C48.5501 42.3928 48.8301 42.6515 49.0328 42.9821C49.2355 43.3128 49.3368 43.6968 49.3368 44.1341C49.3368 44.5608 49.2355 44.9421 49.0328 45.2781C48.8301 45.6088 48.5501 45.8701 48.1928 46.0621C47.8355 46.2541 47.4301 46.3501 46.9768 46.3501ZM46.9768 45.3261C47.1848 45.3261 47.3715 45.2781 47.5368 45.1821C47.7021 45.0861 47.8328 44.9501 47.9288 44.7741C48.0248 44.5928 48.0728 44.3795 48.0728 44.1341C48.0728 43.8835 48.0248 43.6701 47.9288 43.4941C47.8328 43.3181 47.7021 43.1821 47.5368 43.0861C47.3715 42.9901 47.1848 42.9421 46.9768 42.9421C46.7688 42.9421 46.5821 42.9901 46.4168 43.0861C46.2514 43.1821 46.1181 43.3181 46.0168 43.4941C45.9208 43.6701 45.8728 43.8835 45.8728 44.1341C45.8728 44.3795 45.9208 44.5928 46.0168 44.7741C46.1181 44.9501 46.2514 45.0861 46.4168 45.1821C46.5821 45.2781 46.7688 45.3261 46.9768 45.3261ZM50.643 43.4781C50.4296 43.4781 50.2456 43.4061 50.091 43.2621C49.9416 43.1128 49.867 42.9235 49.867 42.6941C49.867 42.4648 49.9416 42.2808 50.091 42.1421C50.2456 41.9981 50.4296 41.9261 50.643 41.9261C50.8616 41.9261 51.0456 41.9981 51.195 42.1421C51.3443 42.2808 51.419 42.4648 51.419 42.6941C51.419 42.9235 51.3443 43.1128 51.195 43.2621C51.0456 43.4061 50.8616 43.4781 50.643 43.4781ZM50.643 46.3501C50.4296 46.3501 50.2456 46.2781 50.091 46.1341C49.9416 45.9848 49.867 45.7955 49.867 45.5661C49.867 45.3368 49.9416 45.1528 50.091 45.0141C50.2456 44.8701 50.4296 44.7981 50.643 44.7981C50.8616 44.7981 51.0456 44.8701 51.195 45.0141C51.3443 45.1528 51.419 45.3368 51.419 45.5661C51.419 45.7955 51.3443 45.9848 51.195 46.1341C51.0456 46.2781 50.8616 46.3501 50.643 46.3501ZM57.0743 46.3501C56.7117 46.3501 56.3943 46.2701 56.1223 46.1101C55.8503 45.9501 55.637 45.7075 55.4823 45.3821C55.333 45.0515 55.2583 44.6355 55.2583 44.1341C55.2583 43.6275 55.3303 43.2115 55.4743 42.8861C55.6183 42.5608 55.8263 42.3181 56.0983 42.1581C56.3703 41.9981 56.6957 41.9181 57.0743 41.9181C57.4797 41.9181 57.8423 42.0115 58.1623 42.1981C58.4877 42.3795 58.7437 42.6355 58.9303 42.9661C59.1223 43.2968 59.2183 43.6861 59.2183 44.1341C59.2183 44.5875 59.1223 44.9795 58.9303 45.3101C58.7437 45.6408 58.4877 45.8968 58.1623 46.0781C57.8423 46.2595 57.4797 46.3501 57.0743 46.3501ZM54.5303 47.8381V41.9821H55.7223V42.8621L55.6983 44.1421L55.7783 45.4141V47.8381H54.5303ZM56.8583 45.3261C57.0663 45.3261 57.2503 45.2781 57.4103 45.1821C57.5757 45.0861 57.7063 44.9501 57.8023 44.7741C57.9037 44.5928 57.9543 44.3795 57.9543 44.1341C57.9543 43.8835 57.9037 43.6701 57.8023 43.4941C57.7063 43.3181 57.5757 43.1821 57.4103 43.0861C57.2503 42.9901 57.0663 42.9421 56.8583 42.9421C56.6503 42.9421 56.4637 42.9901 56.2983 43.0861C56.133 43.1821 56.0023 43.3181 55.9063 43.4941C55.8103 43.6701 55.7623 43.8835 55.7623 44.1341C55.7623 44.3795 55.8103 44.5928 55.9063 44.7741C56.0023 44.9501 56.133 45.0861 56.2983 45.1821C56.4637 45.2781 56.6503 45.3261 56.8583 45.3261ZM60.0538 46.2861V41.9821H61.2458V43.1981L61.0778 42.8461C61.2058 42.5421 61.4111 42.3128 61.6938 42.1581C61.9764 41.9981 62.3204 41.9181 62.7258 41.9181V43.0701C62.6725 43.0648 62.6245 43.0621 62.5818 43.0621C62.5391 43.0568 62.4938 43.0541 62.4458 43.0541C62.1044 43.0541 61.8271 43.1528 61.6138 43.3501C61.4058 43.5421 61.3018 43.8435 61.3018 44.2541V46.2861H60.0538ZM65.5726 46.3501C65.0819 46.3501 64.6499 46.2541 64.2766 46.0621C63.9086 45.8701 63.6233 45.6088 63.4206 45.2781C63.2179 44.9421 63.1166 44.5608 63.1166 44.1341C63.1166 43.7021 63.2153 43.3208 63.4126 42.9901C63.6153 42.6541 63.8899 42.3928 64.2366 42.2061C64.5833 42.0141 64.9753 41.9181 65.4126 41.9181C65.8339 41.9181 66.2126 42.0088 66.5486 42.1901C66.8899 42.3661 67.1593 42.6221 67.3566 42.9581C67.5539 43.2888 67.6526 43.6861 67.6526 44.1501C67.6526 44.1981 67.6499 44.2541 67.6446 44.3181C67.6393 44.3768 67.6339 44.4328 67.6286 44.4861H64.1326V43.7581H66.9726L66.4926 43.9741C66.4926 43.7501 66.4473 43.5555 66.3566 43.3901C66.2659 43.2248 66.1406 43.0968 65.9806 43.0061C65.8206 42.9101 65.6339 42.8621 65.4206 42.8621C65.2073 42.8621 65.0179 42.9101 64.8526 43.0061C64.6926 43.0968 64.5673 43.2275 64.4766 43.3981C64.3859 43.5635 64.3406 43.7608 64.3406 43.9901V44.1821C64.3406 44.4168 64.3913 44.6248 64.4926 44.8061C64.5993 44.9821 64.7459 45.1181 64.9326 45.2141C65.1246 45.3048 65.3486 45.3501 65.6046 45.3501C65.8339 45.3501 66.0339 45.3155 66.2046 45.2461C66.3806 45.1768 66.5406 45.0728 66.6846 44.9341L67.3486 45.6541C67.1513 45.8781 66.9033 46.0515 66.6046 46.1741C66.3059 46.2915 65.9619 46.3501 65.5726 46.3501ZM69.9315 46.3501C69.5635 46.3501 69.2088 46.3075 68.8675 46.2221C68.5315 46.1315 68.2648 46.0195 68.0675 45.8861L68.4835 44.9901C68.6808 45.1128 68.9128 45.2141 69.1795 45.2941C69.4515 45.3688 69.7181 45.4061 69.9795 45.4061C70.2675 45.4061 70.4701 45.3715 70.5875 45.3021C70.7101 45.2328 70.7715 45.1368 70.7715 45.0141C70.7715 44.9128 70.7235 44.8381 70.6275 44.7901C70.5368 44.7368 70.4141 44.6968 70.2595 44.6701C70.1048 44.6435 69.9341 44.6168 69.7475 44.5901C69.5661 44.5635 69.3821 44.5288 69.1955 44.4861C69.0088 44.4381 68.8381 44.3688 68.6835 44.2781C68.5288 44.1875 68.4035 44.0648 68.3075 43.9101C68.2168 43.7555 68.1715 43.5555 68.1715 43.3101C68.1715 43.0381 68.2488 42.7981 68.4035 42.5901C68.5635 42.3821 68.7928 42.2195 69.0915 42.1021C69.3901 41.9795 69.7475 41.9181 70.1635 41.9181C70.4568 41.9181 70.7555 41.9501 71.0595 42.0141C71.3635 42.0781 71.6168 42.1715 71.8195 42.2941L71.4035 43.1821C71.1955 43.0595 70.9848 42.9768 70.7715 42.9341C70.5635 42.8861 70.3608 42.8621 70.1635 42.8621C69.8861 42.8621 69.6835 42.8995 69.5555 42.9741C69.4275 43.0488 69.3635 43.1448 69.3635 43.2621C69.3635 43.3688 69.4088 43.4488 69.4995 43.5021C69.5955 43.5555 69.7208 43.5981 69.8755 43.6301C70.0301 43.6621 70.1981 43.6915 70.3795 43.7181C70.5661 43.7395 70.7528 43.7741 70.9395 43.8221C71.1261 43.8701 71.2941 43.9395 71.4435 44.0301C71.5981 44.1155 71.7235 44.2355 71.8195 44.3901C71.9155 44.5395 71.9635 44.7368 71.9635 44.9821C71.9635 45.2488 71.8835 45.4861 71.7235 45.6941C71.5635 45.8968 71.3315 46.0568 71.0275 46.1741C70.7288 46.2915 70.3635 46.3501 69.9315 46.3501ZM74.1815 46.3501C73.8135 46.3501 73.4588 46.3075 73.1175 46.2221C72.7815 46.1315 72.5148 46.0195 72.3175 45.8861L72.7335 44.9901C72.9308 45.1128 73.1628 45.2141 73.4295 45.2941C73.7015 45.3688 73.9681 45.4061 74.2295 45.4061C74.5175 45.4061 74.7201 45.3715 74.8375 45.3021C74.9601 45.2328 75.0215 45.1368 75.0215 45.0141C75.0215 44.9128 74.9735 44.8381 74.8775 44.7901C74.7868 44.7368 74.6641 44.6968 74.5095 44.6701C74.3548 44.6435 74.1841 44.6168 73.9975 44.5901C73.8161 44.5635 73.6321 44.5288 73.4455 44.4861C73.2588 44.4381 73.0881 44.3688 72.9335 44.2781C72.7788 44.1875 72.6535 44.0648 72.5575 43.9101C72.4668 43.7555 72.4215 43.5555 72.4215 43.3101C72.4215 43.0381 72.4988 42.7981 72.6535 42.5901C72.8135 42.3821 73.0428 42.2195 73.3415 42.1021C73.6401 41.9795 73.9975 41.9181 74.4135 41.9181C74.7068 41.9181 75.0055 41.9501 75.3095 42.0141C75.6135 42.0781 75.8668 42.1715 76.0695 42.2941L75.6535 43.1821C75.4455 43.0595 75.2348 42.9768 75.0215 42.9341C74.8135 42.8861 74.6108 42.8621 74.4135 42.8621C74.1361 42.8621 73.9335 42.8995 73.8055 42.9741C73.6775 43.0488 73.6135 43.1448 73.6135 43.2621C73.6135 43.3688 73.6588 43.4488 73.7495 43.5021C73.8455 43.5555 73.9708 43.5981 74.1255 43.6301C74.2801 43.6621 74.4481 43.6915 74.6295 43.7181C74.8161 43.7395 75.0028 43.7741 75.1895 43.8221C75.3761 43.8701 75.5441 43.9395 75.6935 44.0301C75.8481 44.1155 75.9735 44.2355 76.0695 44.3901C76.1655 44.5395 76.2135 44.7368 76.2135 44.9821C76.2135 45.2488 76.1335 45.4861 75.9735 45.6941C75.8135 45.8968 75.5815 46.0568 75.2775 46.1741C74.9788 46.2915 74.6135 46.3501 74.1815 46.3501ZM76.9835 46.2861V41.9821H78.2315V46.2861H76.9835ZM77.6075 41.3821C77.3781 41.3821 77.1915 41.3155 77.0475 41.1821C76.9035 41.0488 76.8315 40.8835 76.8315 40.6861C76.8315 40.4888 76.9035 40.3235 77.0475 40.1901C77.1915 40.0568 77.3781 39.9901 77.6075 39.9901C77.8368 39.9901 78.0235 40.0541 78.1675 40.1821C78.3115 40.3048 78.3835 40.4648 78.3835 40.6621C78.3835 40.8701 78.3115 41.0435 78.1675 41.1821C78.0288 41.3155 77.8421 41.3821 77.6075 41.3821ZM81.4377 46.3501C80.9791 46.3501 80.5711 46.2541 80.2137 46.0621C79.8617 45.8701 79.5817 45.6088 79.3737 45.2781C79.1711 44.9421 79.0697 44.5608 79.0697 44.1341C79.0697 43.7021 79.1711 43.3208 79.3737 42.9901C79.5817 42.6541 79.8617 42.3928 80.2137 42.2061C80.5711 42.0141 80.9791 41.9181 81.4377 41.9181C81.8911 41.9181 82.2964 42.0141 82.6537 42.2061C83.0111 42.3928 83.2911 42.6515 83.4937 42.9821C83.6964 43.3128 83.7977 43.6968 83.7977 44.1341C83.7977 44.5608 83.6964 44.9421 83.4937 45.2781C83.2911 45.6088 83.0111 45.8701 82.6537 46.0621C82.2964 46.2541 81.8911 46.3501 81.4377 46.3501ZM81.4377 45.3261C81.6457 45.3261 81.8324 45.2781 81.9977 45.1821C82.1631 45.0861 82.2937 44.9501 82.3897 44.7741C82.4857 44.5928 82.5337 44.3795 82.5337 44.1341C82.5337 43.8835 82.4857 43.6701 82.3897 43.4941C82.2937 43.3181 82.1631 43.1821 81.9977 43.0861C81.8324 42.9901 81.6457 42.9421 81.4377 42.9421C81.2297 42.9421 81.0431 42.9901 80.8777 43.0861C80.7124 43.1821 80.5791 43.3181 80.4777 43.4941C80.3817 43.6701 80.3337 43.8835 80.3337 44.1341C80.3337 44.3795 80.3817 44.5928 80.4777 44.7741C80.5791 44.9501 80.7124 45.0861 80.8777 45.1821C81.0431 45.2781 81.2297 45.3261 81.4377 45.3261ZM87.2479 41.9181C87.5892 41.9181 87.8932 41.9875 88.1599 42.1261C88.4319 42.2595 88.6452 42.4675 88.7999 42.7501C88.9546 43.0275 89.0319 43.3848 89.0319 43.8221V46.2861H87.7839V44.0141C87.7839 43.6675 87.7066 43.4115 87.5519 43.2461C87.4026 43.0808 87.1892 42.9981 86.9119 42.9981C86.7146 42.9981 86.5359 43.0408 86.3759 43.1261C86.2212 43.2061 86.0986 43.3315 86.0079 43.5021C85.9226 43.6728 85.8799 43.8915 85.8799 44.1581V46.2861H84.6319V41.9821H85.8239V43.1741L85.5999 42.8141C85.7546 42.5261 85.9759 42.3048 86.2639 42.1501C86.5519 41.9955 86.8799 41.9181 87.2479 41.9181ZM92.3304 46.3501C91.8397 46.3501 91.4077 46.2541 91.0344 46.0621C90.6664 45.8701 90.3811 45.6088 90.1784 45.2781C89.9757 44.9421 89.8744 44.5608 89.8744 44.1341C89.8744 43.7021 89.9731 43.3208 90.1704 42.9901C90.3731 42.6541 90.6477 42.3928 90.9944 42.2061C91.3411 42.0141 91.7331 41.9181 92.1704 41.9181C92.5917 41.9181 92.9704 42.0088 93.3064 42.1901C93.6477 42.3661 93.9171 42.6221 94.1144 42.9581C94.3117 43.2888 94.4104 43.6861 94.4104 44.1501C94.4104 44.1981 94.4077 44.2541 94.4024 44.3181C94.3971 44.3768 94.3917 44.4328 94.3864 44.4861H90.8904V43.7581H93.7304L93.2504 43.9741C93.2504 43.7501 93.2051 43.5555 93.1144 43.3901C93.0237 43.2248 92.8984 43.0968 92.7384 43.0061C92.5784 42.9101 92.3917 42.8621 92.1784 42.8621C91.9651 42.8621 91.7757 42.9101 91.6104 43.0061C91.4504 43.0968 91.3251 43.2275 91.2344 43.3981C91.1437 43.5635 91.0984 43.7608 91.0984 43.9901V44.1821C91.0984 44.4168 91.1491 44.6248 91.2504 44.8061C91.3571 44.9821 91.5037 45.1181 91.6904 45.2141C91.8824 45.3048 92.1064 45.3501 92.3624 45.3501C92.5917 45.3501 92.7917 45.3155 92.9624 45.2461C93.1384 45.1768 93.2984 45.0728 93.4424 44.9341L94.1064 45.6541C93.9091 45.8781 93.6611 46.0515 93.3624 46.1741C93.0637 46.2915 92.7197 46.3501 92.3304 46.3501ZM99.5549 46.3501C99.0962 46.3501 98.6882 46.2541 98.3309 46.0621C97.9789 45.8701 97.6989 45.6088 97.4909 45.2781C97.2882 44.9421 97.1869 44.5608 97.1869 44.1341C97.1869 43.7021 97.2882 43.3208 97.4909 42.9901C97.6989 42.6541 97.9789 42.3928 98.3309 42.2061C98.6882 42.0141 99.0962 41.9181 99.5549 41.9181C100.008 41.9181 100.414 42.0141 100.771 42.2061C101.128 42.3928 101.408 42.6515 101.611 42.9821C101.814 43.3128 101.915 43.6968 101.915 44.1341C101.915 44.5608 101.814 44.9421 101.611 45.2781C101.408 45.6088 101.128 45.8701 100.771 46.0621C100.414 46.2541 100.008 46.3501 99.5549 46.3501ZM99.5549 45.3261C99.7629 45.3261 99.9496 45.2781 100.115 45.1821C100.28 45.0861 100.411 44.9501 100.507 44.7741C100.603 44.5928 100.651 44.3795 100.651 44.1341C100.651 43.8835 100.603 43.6701 100.507 43.4941C100.411 43.3181 100.28 43.1821 100.115 43.0861C99.9496 42.9901 99.7629 42.9421 99.5549 42.9421C99.3469 42.9421 99.1602 42.9901 98.9949 43.0861C98.8296 43.1821 98.6962 43.3181 98.5949 43.4941C98.4989 43.6701 98.4509 43.8835 98.4509 44.1341C98.4509 44.3795 98.4989 44.5928 98.5949 44.7741C98.6962 44.9501 98.8296 45.0861 98.9949 45.1821C99.1602 45.2781 99.3469 45.3261 99.5549 45.3261ZM107.559 46.3501C107.18 46.3501 106.855 46.2701 106.583 46.1101C106.311 45.9501 106.103 45.7075 105.959 45.3821C105.815 45.0515 105.743 44.6355 105.743 44.1341C105.743 43.6275 105.817 43.2115 105.967 42.8861C106.121 42.5608 106.335 42.3181 106.607 42.1581C106.879 41.9981 107.196 41.9181 107.559 41.9181C107.964 41.9181 108.327 42.0088 108.647 42.1901C108.972 42.3715 109.228 42.6275 109.415 42.9581C109.607 43.2888 109.703 43.6808 109.703 44.1341C109.703 44.5821 109.607 44.9715 109.415 45.3021C109.228 45.6328 108.972 45.8915 108.647 46.0781C108.327 46.2595 107.964 46.3501 107.559 46.3501ZM105.015 46.2861V40.3501H106.263V42.8541L106.183 44.1261L106.207 45.4061V46.2861H105.015ZM107.343 45.3261C107.551 45.3261 107.735 45.2781 107.895 45.1821C108.06 45.0861 108.191 44.9501 108.287 44.7741C108.388 44.5928 108.439 44.3795 108.439 44.1341C108.439 43.8835 108.388 43.6701 108.287 43.4941C108.191 43.3181 108.06 43.1821 107.895 43.0861C107.735 42.9901 107.551 42.9421 107.343 42.9421C107.135 42.9421 106.948 42.9901 106.783 43.0861C106.617 43.1821 106.487 43.3181 106.391 43.4941C106.295 43.6701 106.247 43.8835 106.247 44.1341C106.247 44.3795 106.295 44.5928 106.391 44.7741C106.487 44.9501 106.617 45.0861 106.783 45.1821C106.948 45.2781 107.135 45.3261 107.343 45.3261ZM112.586 46.3501C112.127 46.3501 111.719 46.2541 111.362 46.0621C111.01 45.8701 110.73 45.6088 110.522 45.2781C110.319 44.9421 110.218 44.5608 110.218 44.1341C110.218 43.7021 110.319 43.3208 110.522 42.9901C110.73 42.6541 111.01 42.3928 111.362 42.2061C111.719 42.0141 112.127 41.9181 112.586 41.9181C113.039 41.9181 113.445 42.0141 113.802 42.2061C114.159 42.3928 114.439 42.6515 114.642 42.9821C114.845 43.3128 114.946 43.6968 114.946 44.1341C114.946 44.5608 114.845 44.9421 114.642 45.2781C114.439 45.6088 114.159 45.8701 113.802 46.0621C113.445 46.2541 113.039 46.3501 112.586 46.3501ZM112.586 45.3261C112.794 45.3261 112.981 45.2781 113.146 45.1821C113.311 45.0861 113.442 44.9501 113.538 44.7741C113.634 44.5928 113.682 44.3795 113.682 44.1341C113.682 43.8835 113.634 43.6701 113.538 43.4941C113.442 43.3181 113.311 43.1821 113.146 43.0861C112.981 42.9901 112.794 42.9421 112.586 42.9421C112.378 42.9421 112.191 42.9901 112.026 43.0861C111.861 43.1821 111.727 43.3181 111.626 43.4941C111.53 43.6701 111.482 43.8835 111.482 44.1341C111.482 44.3795 111.53 44.5928 111.626 44.7741C111.727 44.9501 111.861 45.0861 112.026 45.1821C112.191 45.2781 112.378 45.3261 112.586 45.3261ZM117.54 46.3501C117.034 46.3501 116.639 46.2221 116.356 45.9661C116.074 45.7048 115.932 45.3181 115.932 44.8061V41.0301H117.18V44.7901C117.18 44.9715 117.228 45.1128 117.324 45.2141C117.42 45.3101 117.551 45.3581 117.716 45.3581C117.914 45.3581 118.082 45.3048 118.22 45.1981L118.556 46.0781C118.428 46.1688 118.274 46.2381 118.092 46.2861C117.916 46.3288 117.732 46.3501 117.54 46.3501ZM115.268 43.0381V42.0781H118.252V43.0381H115.268ZM121.897 46.2861V45.4461L121.817 45.2621V43.7581C121.817 43.4915 121.734 43.2835 121.569 43.1341C121.409 42.9848 121.161 42.9101 120.825 42.9101C120.596 42.9101 120.369 42.9475 120.145 43.0221C119.926 43.0915 119.74 43.1875 119.585 43.3101L119.137 42.4381C119.372 42.2728 119.654 42.1448 119.985 42.0541C120.316 41.9635 120.652 41.9181 120.993 41.9181C121.649 41.9181 122.158 42.0728 122.521 42.3821C122.884 42.6915 123.065 43.1741 123.065 43.8301V46.2861H121.897ZM120.585 46.3501C120.249 46.3501 119.961 46.2941 119.721 46.1821C119.481 46.0648 119.297 45.9075 119.169 45.7101C119.041 45.5128 118.977 45.2915 118.977 45.0461C118.977 44.7901 119.038 44.5661 119.161 44.3741C119.289 44.1821 119.489 44.0328 119.761 43.9261C120.033 43.8141 120.388 43.7581 120.825 43.7581H121.969V44.4861H120.961C120.668 44.4861 120.465 44.5341 120.353 44.6301C120.246 44.7261 120.193 44.8461 120.193 44.9901C120.193 45.1501 120.254 45.2781 120.377 45.3741C120.505 45.4648 120.678 45.5101 120.897 45.5101C121.105 45.5101 121.292 45.4621 121.457 45.3661C121.622 45.2648 121.742 45.1181 121.817 44.9261L122.009 45.5021C121.918 45.7795 121.753 45.9901 121.513 46.1341C121.273 46.2781 120.964 46.3501 120.585 46.3501ZM121.721 41.4541C121.582 41.4541 121.46 41.4301 121.353 41.3821C121.246 41.3288 121.15 41.2701 121.065 41.2061C120.98 41.1368 120.9 41.0781 120.825 41.0301C120.75 40.9768 120.676 40.9501 120.601 40.9501C120.494 40.9501 120.406 40.9901 120.337 41.0701C120.268 41.1448 120.228 41.2541 120.217 41.3981H119.585C119.596 41.0408 119.684 40.7581 119.849 40.5501C120.014 40.3368 120.238 40.2301 120.521 40.2301C120.66 40.2301 120.782 40.2568 120.889 40.3101C120.996 40.3581 121.092 40.4168 121.177 40.4861C121.268 40.5555 121.35 40.6168 121.425 40.6701C121.5 40.7181 121.572 40.7421 121.641 40.7421C121.753 40.7421 121.844 40.7048 121.913 40.6301C121.982 40.5501 122.02 40.4435 122.025 40.3101H122.657C122.652 40.6515 122.564 40.9288 122.393 41.1421C122.228 41.3501 122.004 41.4541 121.721 41.4541ZM126.274 46.3501C125.815 46.3501 125.407 46.2541 125.05 46.0621C124.698 45.8701 124.418 45.6088 124.21 45.2781C124.007 44.9421 123.906 44.5608 123.906 44.1341C123.906 43.7021 124.007 43.3208 124.21 42.9901C124.418 42.6541 124.698 42.3928 125.05 42.2061C125.407 42.0141 125.815 41.9181 126.274 41.9181C126.727 41.9181 127.132 42.0141 127.49 42.2061C127.847 42.3928 128.127 42.6515 128.33 42.9821C128.532 43.3128 128.634 43.6968 128.634 44.1341C128.634 44.5608 128.532 44.9421 128.33 45.2781C128.127 45.6088 127.847 45.8701 127.49 46.0621C127.132 46.2541 126.727 46.3501 126.274 46.3501ZM126.274 45.3261C126.482 45.3261 126.668 45.2781 126.834 45.1821C126.999 45.0861 127.13 44.9501 127.226 44.7741C127.322 44.5928 127.37 44.3795 127.37 44.1341C127.37 43.8835 127.322 43.6701 127.226 43.4941C127.13 43.3181 126.999 43.1821 126.834 43.0861C126.668 42.9901 126.482 42.9421 126.274 42.9421C126.066 42.9421 125.879 42.9901 125.714 43.0861C125.548 43.1821 125.415 43.3181 125.314 43.4941C125.218 43.6701 125.17 43.8835 125.17 44.1341C125.17 44.3795 125.218 44.5928 125.314 44.7741C125.415 44.9501 125.548 45.0861 125.714 45.1821C125.879 45.2781 126.066 45.3261 126.274 45.3261ZM131.821 46.2861V40.6861H133.117V46.2861H131.821ZM136.974 41.9181C137.316 41.9181 137.62 41.9875 137.886 42.1261C138.158 42.2595 138.372 42.4675 138.526 42.7501C138.681 43.0275 138.758 43.3848 138.758 43.8221V46.2861H137.51V44.0141C137.51 43.6675 137.433 43.4115 137.278 43.2461C137.129 43.0808 136.916 42.9981 136.638 42.9981C136.441 42.9981 136.262 43.0408 136.102 43.1261C135.948 43.2061 135.825 43.3315 135.734 43.5021C135.649 43.6728 135.606 43.8915 135.606 44.1581V46.2861H134.358V41.9821H135.55V43.1741L135.326 42.8141C135.481 42.5261 135.702 42.3048 135.99 42.1501C136.278 41.9955 136.606 41.9181 136.974 41.9181ZM139.89 46.2861V41.9821H141.138V46.2861H139.89ZM140.514 41.3821C140.284 41.3821 140.098 41.3155 139.954 41.1821C139.81 41.0488 139.738 40.8835 139.738 40.6861C139.738 40.4888 139.81 40.3235 139.954 40.1901C140.098 40.0568 140.284 39.9901 140.514 39.9901C140.743 39.9901 140.93 40.0541 141.074 40.1821C141.218 40.3048 141.29 40.4648 141.29 40.6621C141.29 40.8701 141.218 41.0435 141.074 41.1821C140.935 41.3155 140.748 41.3821 140.514 41.3821ZM144.376 46.3501C143.912 46.3501 143.499 46.2568 143.136 46.0701C142.773 45.8781 142.488 45.6141 142.28 45.2781C142.077 44.9421 141.976 44.5608 141.976 44.1341C141.976 43.7021 142.077 43.3208 142.28 42.9901C142.488 42.6541 142.773 42.3928 143.136 42.2061C143.499 42.0141 143.912 41.9181 144.376 41.9181C144.829 41.9181 145.224 42.0141 145.56 42.2061C145.896 42.3928 146.144 42.6621 146.304 43.0141L145.336 43.5341C145.224 43.3315 145.083 43.1821 144.912 43.0861C144.747 42.9901 144.565 42.9421 144.368 42.9421C144.155 42.9421 143.963 42.9901 143.792 43.0861C143.621 43.1821 143.485 43.3181 143.384 43.4941C143.288 43.6701 143.24 43.8835 143.24 44.1341C143.24 44.3848 143.288 44.5981 143.384 44.7741C143.485 44.9501 143.621 45.0861 143.792 45.1821C143.963 45.2781 144.155 45.3261 144.368 45.3261C144.565 45.3261 144.747 45.2808 144.912 45.1901C145.083 45.0941 145.224 44.9421 145.336 44.7341L146.304 45.2621C146.144 45.6088 145.896 45.8781 145.56 46.0701C145.224 46.2568 144.829 46.3501 144.376 46.3501ZM146.999 46.2861V41.9821H148.247V46.2861H146.999ZM147.623 41.3821C147.394 41.3821 147.207 41.3155 147.063 41.1821C146.919 41.0488 146.847 40.8835 146.847 40.6861C146.847 40.4888 146.919 40.3235 147.063 40.1901C147.207 40.0568 147.394 39.9901 147.623 39.9901C147.852 39.9901 148.039 40.0541 148.183 40.1821C148.327 40.3048 148.399 40.4648 148.399 40.6621C148.399 40.8701 148.327 41.0435 148.183 41.1821C148.044 41.3155 147.858 41.3821 147.623 41.3821ZM152.045 46.2861V45.4461L151.965 45.2621V43.7581C151.965 43.4915 151.883 43.2835 151.717 43.1341C151.557 42.9848 151.309 42.9101 150.973 42.9101C150.744 42.9101 150.517 42.9475 150.293 43.0221C150.075 43.0915 149.888 43.1875 149.733 43.3101L149.285 42.4381C149.52 42.2728 149.803 42.1448 150.133 42.0541C150.464 41.9635 150.8 41.9181 151.141 41.9181C151.797 41.9181 152.307 42.0728 152.669 42.3821C153.032 42.6915 153.213 43.1741 153.213 43.8301V46.2861H152.045ZM150.733 46.3501C150.397 46.3501 150.109 46.2941 149.869 46.1821C149.629 46.0648 149.445 45.9075 149.317 45.7101C149.189 45.5128 149.125 45.2915 149.125 45.0461C149.125 44.7901 149.187 44.5661 149.309 44.3741C149.437 44.1821 149.637 44.0328 149.909 43.9261C150.181 43.8141 150.536 43.7581 150.973 43.7581H152.117V44.4861H151.109C150.816 44.4861 150.613 44.5341 150.501 44.6301C150.395 44.7261 150.341 44.8461 150.341 44.9901C150.341 45.1501 150.403 45.2781 150.525 45.3741C150.653 45.4648 150.827 45.5101 151.045 45.5101C151.253 45.5101 151.44 45.4621 151.605 45.3661C151.771 45.2648 151.891 45.1181 151.965 44.9261L152.157 45.5021C152.067 45.7795 151.901 45.9901 151.661 46.1341C151.421 46.2781 151.112 46.3501 150.733 46.3501ZM154.343 46.2861V41.9821H155.535V43.1981L155.367 42.8461C155.495 42.5421 155.7 42.3128 155.983 42.1581C156.266 41.9981 156.61 41.9181 157.015 41.9181V43.0701C156.962 43.0648 156.914 43.0621 156.871 43.0621C156.828 43.0568 156.783 43.0541 156.735 43.0541C156.394 43.0541 156.116 43.1528 155.903 43.3501C155.695 43.5421 155.591 43.8435 155.591 44.2541V46.2861H154.343ZM158.182 46.3501C157.969 46.3501 157.785 46.2781 157.63 46.1341C157.481 45.9848 157.406 45.7955 157.406 45.5661C157.406 45.3368 157.481 45.1528 157.63 45.0141C157.785 44.8701 157.969 44.7981 158.182 44.7981C158.401 44.7981 158.585 44.8701 158.734 45.0141C158.883 45.1528 158.958 45.3368 158.958 45.5661C158.958 45.7955 158.883 45.9848 158.734 46.1341C158.585 46.2781 158.401 46.3501 158.182 46.3501Z" fill="#333333"/>
<path fill-rule="evenodd" clip-rule="evenodd" d="M170.357 69.4187C170.357 62.3568 164.571 56.5664 157.5 56.5664C117.753 56.5664 101.571 56.5711 101.571 56.5711L96.4284 61.714H72.6427L66.857 56.571H44.4514C37.38 56.571 31.5942 62.3569 31.5942 69.4233C31.5942 69.4281 31.5942 69.4329 31.5942 69.4378C31.5942 76.4997 37.38 82.2854 44.4514 82.2854C55.099 82.2854 66.8571 82.2854 66.8571 82.2854L72.6428 87.4283H96.4285L101.571 82.2854H157.594C164.571 82.2854 170.357 76.4997 170.357 69.4331C170.357 69.4283 170.357 69.7497 170.357 69.4187Z" fill="#30DCFF"/>
<path fill-rule="evenodd" clip-rule="evenodd" d="M170.357 69.4212C170.357 62.357 164.571 56.5713 157.406 56.5713C117.659 56.5713 101.571 56.5714 101.571 56.5714L96.4286 61.7141H72.6429L66.8571 56.5713H44.3571C37.2857 56.5713 31.5 62.357 31.5 69.4213C31.5 69.426 31.5 69.4285 31.5 69.4285H34.7143C34.7143 62.9999 39.2143 59.7856 44.3571 59.7856C53.784 59.7856 65.5714 59.7856 65.5714 59.7856L71.3571 64.9284H97.7143L102.857 59.7856H157.5C163.286 59.7856 167.143 63.6427 167.143 69.4283L170.357 69.4284V69.4212Z" fill="white" fill-opacity="0.5"/>
<path fill-rule="evenodd" clip-rule="evenodd" d="M170.357 69.4287L167.143 69.4287C167.143 75.1959 163.412 79.0716 157.5 79.0716C120.854 79.0716 100.286 79.0716 100.286 79.0716L95.1429 84.2144H73.9286L68.1429 79.0716H44.3571C37.6047 79.0716 34.7143 75.2144 34.7143 69.4297L31.5 69.4287V69.4359C31.5 76.5001 37.2857 82.2858 44.3571 82.2858C55.0048 82.2858 66.8571 82.2859 66.8571 82.2859L72.6429 87.4287H96.4286L101.571 82.2858H157.5C164.571 82.2858 170.357 76.5001 170.357 69.4287Z" fill="black" fill-opacity="0.25"/>
<path d="M37.928 75L40.424 69.4H41.704L44.208 75H42.848L40.8 70.056H41.312L39.256 75H37.928ZM39.176 73.8L39.52 72.816H42.4L42.752 73.8H39.176ZM46.4219 75.064C45.9153 75.064 45.5206 74.936 45.2379 74.68C44.9553 74.4187 44.8139 74.032 44.8139 73.52V69.744H46.0619V73.504C46.0619 73.6853 46.1099 73.8267 46.2059 73.928C46.3019 74.024 46.4326 74.072 46.5979 74.072C46.7953 74.072 46.9633 74.0187 47.1019 73.912L47.4379 74.792C47.3099 74.8827 47.1553 74.952 46.9739 75C46.7979 75.0427 46.6139 75.064 46.4219 75.064ZM44.1499 71.752V70.792H47.1339V71.752H44.1499ZM48.1385 75V70.696H49.3305V71.912L49.1625 71.56C49.2905 71.256 49.4958 71.0267 49.7785 70.872C50.0612 70.712 50.4052 70.632 50.8105 70.632V71.784C50.7572 71.7787 50.7092 71.776 50.6665 71.776C50.6238 71.7707 50.5785 71.768 50.5305 71.768C50.1892 71.768 49.9118 71.8667 49.6985 72.064C49.4905 72.256 49.3865 72.5573 49.3865 72.968V75H48.1385ZM51.5604 75V70.696H52.8084V75H51.5604ZM52.1844 70.096C51.955 70.096 51.7684 70.0293 51.6244 69.896C51.4804 69.7627 51.4084 69.5973 51.4084 69.4C51.4084 69.2027 51.4804 69.0373 51.6244 68.904C51.7684 68.7707 51.955 68.704 52.1844 68.704C52.4137 68.704 52.6004 68.768 52.7444 68.896C52.8884 69.0187 52.9604 69.1787 52.9604 69.376C52.9604 69.584 52.8884 69.7573 52.7444 69.896C52.6057 70.0293 52.419 70.096 52.1844 70.096ZM56.5106 75.064C56.132 75.064 55.8066 74.984 55.5346 74.824C55.2626 74.664 55.0546 74.4213 54.9106 74.096C54.7666 73.7653 54.6946 73.3493 54.6946 72.848C54.6946 72.3413 54.7693 71.9253 54.9186 71.6C55.0733 71.2747 55.2866 71.032 55.5586 70.872C55.8306 70.712 56.148 70.632 56.5106 70.632C56.916 70.632 57.2786 70.7227 57.5986 70.904C57.924 71.0853 58.18 71.3413 58.3666 71.672C58.5586 72.0027 58.6546 72.3947 58.6546 72.848C58.6546 73.296 58.5586 73.6853 58.3666 74.016C58.18 74.3467 57.924 74.6053 57.5986 74.792C57.2786 74.9733 56.916 75.064 56.5106 75.064ZM53.9666 75V69.064H55.2146V71.568L55.1346 72.84L55.1586 74.12V75H53.9666ZM56.2946 74.04C56.5026 74.04 56.6866 73.992 56.8466 73.896C57.012 73.8 57.1426 73.664 57.2386 73.488C57.34 73.3067 57.3906 73.0933 57.3906 72.848C57.3906 72.5973 57.34 72.384 57.2386 72.208C57.1426 72.032 57.012 71.896 56.8466 71.8C56.6866 71.704 56.5026 71.656 56.2946 71.656C56.0866 71.656 55.9 71.704 55.7346 71.8C55.5693 71.896 55.4386 72.032 55.3426 72.208C55.2466 72.384 55.1986 72.5973 55.1986 72.848C55.1986 73.0933 55.2466 73.3067 55.3426 73.488C55.4386 73.664 55.5693 73.8 55.7346 73.896C55.9 73.992 56.0866 74.04 56.2946 74.04ZM61.3061 75.064C60.9487 75.064 60.6287 74.9947 60.3461 74.856C60.0687 74.7173 59.8527 74.5067 59.6981 74.224C59.5434 73.936 59.4661 73.5707 59.4661 73.128V70.696H60.7141V72.944C60.7141 73.3013 60.7887 73.5653 60.9381 73.736C61.0927 73.9013 61.3087 73.984 61.5861 73.984C61.7781 73.984 61.9487 73.944 62.0981 73.864C62.2474 73.7787 62.3647 73.6507 62.4501 73.48C62.5354 73.304 62.5781 73.0853 62.5781 72.824V70.696H63.8261V75H62.6421V73.816L62.8581 74.16C62.7141 74.4587 62.5007 74.6853 62.2181 74.84C61.9407 74.9893 61.6367 75.064 61.3061 75.064ZM64.9823 75V70.696H66.2303V75H64.9823ZM65.6063 70.096C65.3769 70.096 65.1903 70.0293 65.0463 69.896C64.9023 69.7627 64.8303 69.5973 64.8303 69.4C64.8303 69.2027 64.9023 69.0373 65.0463 68.904C65.1903 68.7707 65.3769 68.704 65.6063 68.704C65.8356 68.704 66.0223 68.768 66.1663 68.896C66.3103 69.0187 66.3823 69.1787 66.3823 69.376C66.3823 69.584 66.3103 69.7573 66.1663 69.896C66.0276 70.0293 65.8409 70.096 65.6063 70.096ZM67.3885 75V70.696H68.5805V71.912L68.4125 71.56C68.5405 71.256 68.7458 71.0267 69.0285 70.872C69.3112 70.712 69.6552 70.632 70.0605 70.632V71.784C70.0072 71.7787 69.9592 71.776 69.9165 71.776C69.8738 71.7707 69.8285 71.768 69.7805 71.768C69.4392 71.768 69.1618 71.8667 68.9485 72.064C68.7405 72.256 68.6365 72.5573 68.6365 72.968V75H67.3885ZM74.2674 75L72.4594 70.696H73.7474L75.2514 74.4H74.6114L76.1714 70.696H77.3714L75.5554 75H74.2674ZM79.8995 75.064C79.4088 75.064 78.9768 74.968 78.6035 74.776C78.2355 74.584 77.9502 74.3227 77.7475 73.992C77.5448 73.656 77.4435 73.2747 77.4435 72.848C77.4435 72.416 77.5422 72.0347 77.7395 71.704C77.9422 71.368 78.2168 71.1067 78.5635 70.92C78.9102 70.728 79.3022 70.632 79.7395 70.632C80.1608 70.632 80.5395 70.7227 80.8755 70.904C81.2168 71.08 81.4862 71.336 81.6835 71.672C81.8808 72.0027 81.9795 72.4 81.9795 72.864C81.9795 72.912 81.9768 72.968 81.9715 73.032C81.9662 73.0907 81.9608 73.1467 81.9555 73.2H78.4595V72.472H81.2995L80.8195 72.688C80.8195 72.464 80.7742 72.2693 80.6835 72.104C80.5928 71.9387 80.4675 71.8107 80.3075 71.72C80.1475 71.624 79.9608 71.576 79.7475 71.576C79.5342 71.576 79.3448 71.624 79.1795 71.72C79.0195 71.8107 78.8942 71.9413 78.8035 72.112C78.7128 72.2773 78.6675 72.4747 78.6675 72.704V72.896C78.6675 73.1307 78.7182 73.3387 78.8195 73.52C78.9262 73.696 79.0728 73.832 79.2595 73.928C79.4515 74.0187 79.6755 74.064 79.9315 74.064C80.1608 74.064 80.3608 74.0293 80.5315 73.96C80.7075 73.8907 80.8675 73.7867 81.0115 73.648L81.6755 74.368C81.4782 74.592 81.2302 74.7653 80.9315 74.888C80.6328 75.0053 80.2888 75.064 79.8995 75.064ZM82.8104 75V70.696H84.0024V71.912L83.8344 71.56C83.9624 71.256 84.1677 71.0267 84.4504 70.872C84.733 70.712 85.077 70.632 85.4824 70.632V71.784C85.429 71.7787 85.381 71.776 85.3384 71.776C85.2957 71.7707 85.2504 71.768 85.2024 71.768C84.861 71.768 84.5837 71.8667 84.3704 72.064C84.1624 72.256 84.0584 72.5573 84.0584 72.968V75H82.8104ZM88.0412 75.064C87.6359 75.064 87.2705 74.9733 86.9452 74.792C86.6199 74.6053 86.3612 74.3467 86.1692 74.016C85.9825 73.6853 85.8892 73.296 85.8892 72.848C85.8892 72.3947 85.9825 72.0027 86.1692 71.672C86.3612 71.3413 86.6199 71.0853 86.9452 70.904C87.2705 70.7227 87.6359 70.632 88.0412 70.632C88.4039 70.632 88.7212 70.712 88.9932 70.872C89.2652 71.032 89.4759 71.2747 89.6252 71.6C89.7745 71.9253 89.8492 72.3413 89.8492 72.848C89.8492 73.3493 89.7772 73.7653 89.6332 74.096C89.4892 74.4213 89.2812 74.664 89.0092 74.824C88.7425 74.984 88.4199 75.064 88.0412 75.064ZM88.2572 74.04C88.4599 74.04 88.6439 73.992 88.8092 73.896C88.9745 73.8 89.1052 73.664 89.2012 73.488C89.3025 73.3067 89.3532 73.0933 89.3532 72.848C89.3532 72.5973 89.3025 72.384 89.2012 72.208C89.1052 72.032 88.9745 71.896 88.8092 71.8C88.6439 71.704 88.4599 71.656 88.2572 71.656C88.0492 71.656 87.8625 71.704 87.6972 71.8C87.5319 71.896 87.3985 72.032 87.2972 72.208C87.2012 72.384 87.1532 72.5973 87.1532 72.848C87.1532 73.0933 87.2012 73.3067 87.2972 73.488C87.3985 73.664 87.5319 73.8 87.6972 73.896C87.8625 73.992 88.0492 74.04 88.2572 74.04ZM89.3852 75V74.12L89.4092 72.84L89.3292 71.568V69.064H90.5772V75H89.3852ZM94.3723 75V74.16L94.2923 73.976V72.472C94.2923 72.2053 94.2096 71.9973 94.0443 71.848C93.8843 71.6987 93.6363 71.624 93.3003 71.624C93.0709 71.624 92.8443 71.6613 92.6203 71.736C92.4016 71.8053 92.2149 71.9013 92.0603 72.024L91.6123 71.152C91.8469 70.9867 92.1296 70.8587 92.4603 70.768C92.7909 70.6773 93.1269 70.632 93.4683 70.632C94.1243 70.632 94.6336 70.7867 94.9963 71.096C95.3589 71.4053 95.5403 71.888 95.5403 72.544V75H94.3723ZM93.0603 75.064C92.7243 75.064 92.4363 75.008 92.1963 74.896C91.9563 74.7787 91.7723 74.6213 91.6443 74.424C91.5163 74.2267 91.4523 74.0053 91.4523 73.76C91.4523 73.504 91.5136 73.28 91.6363 73.088C91.7643 72.896 91.9643 72.7467 92.2363 72.64C92.5083 72.528 92.8629 72.472 93.3003 72.472H94.4443V73.2H93.4363C93.1429 73.2 92.9403 73.248 92.8283 73.344C92.7216 73.44 92.6683 73.56 92.6683 73.704C92.6683 73.864 92.7296 73.992 92.8523 74.088C92.9803 74.1787 93.1536 74.224 93.3723 74.224C93.5803 74.224 93.7669 74.176 93.9323 74.08C94.0976 73.9787 94.2176 73.832 94.2923 73.64L94.4843 74.216C94.3936 74.4933 94.2283 74.704 93.9883 74.848C93.7483 74.992 93.4389 75.064 93.0603 75.064ZM98.549 75.064C98.1437 75.064 97.7783 74.9733 97.453 74.792C97.1277 74.6053 96.869 74.3467 96.677 74.016C96.4903 73.6853 96.397 73.296 96.397 72.848C96.397 72.3947 96.4903 72.0027 96.677 71.672C96.869 71.3413 97.1277 71.0853 97.453 70.904C97.7783 70.7227 98.1437 70.632 98.549 70.632C98.9117 70.632 99.229 70.712 99.501 70.872C99.773 71.032 99.9837 71.2747 100.133 71.6C100.282 71.9253 100.357 72.3413 100.357 72.848C100.357 73.3493 100.285 73.7653 100.141 74.096C99.997 74.4213 99.789 74.664 99.517 74.824C99.2503 74.984 98.9277 75.064 98.549 75.064ZM98.765 74.04C98.9677 74.04 99.1517 73.992 99.317 73.896C99.4823 73.8 99.613 73.664 99.709 73.488C99.8103 73.3067 99.861 73.0933 99.861 72.848C99.861 72.5973 99.8103 72.384 99.709 72.208C99.613 72.032 99.4823 71.896 99.317 71.8C99.1517 71.704 98.9677 71.656 98.765 71.656C98.557 71.656 98.3703 71.704 98.205 71.8C98.0397 71.896 97.9063 72.032 97.805 72.208C97.709 72.384 97.661 72.5973 97.661 72.848C97.661 73.0933 97.709 73.3067 97.805 73.488C97.9063 73.664 98.0397 73.8 98.205 73.896C98.3703 73.992 98.557 74.04 98.765 74.04ZM99.893 75V74.12L99.917 72.84L99.837 71.568V69.064H101.085V75H99.893ZM104.376 75.064C103.885 75.064 103.453 74.968 103.08 74.776C102.712 74.584 102.427 74.3227 102.224 73.992C102.021 73.656 101.92 73.2747 101.92 72.848C101.92 72.416 102.019 72.0347 102.216 71.704C102.419 71.368 102.693 71.1067 103.04 70.92C103.387 70.728 103.779 70.632 104.216 70.632C104.637 70.632 105.016 70.7227 105.352 70.904C105.693 71.08 105.963 71.336 106.16 71.672C106.357 72.0027 106.456 72.4 106.456 72.864C106.456 72.912 106.453 72.968 106.448 73.032C106.443 73.0907 106.437 73.1467 106.432 73.2H102.936V72.472H105.776L105.296 72.688C105.296 72.464 105.251 72.2693 105.16 72.104C105.069 71.9387 104.944 71.8107 104.784 71.72C104.624 71.624 104.437 71.576 104.224 71.576C104.011 71.576 103.821 71.624 103.656 71.72C103.496 71.8107 103.371 71.9413 103.28 72.112C103.189 72.2773 103.144 72.4747 103.144 72.704V72.896C103.144 73.1307 103.195 73.3387 103.296 73.52C103.403 73.696 103.549 73.832 103.736 73.928C103.928 74.0187 104.152 74.064 104.408 74.064C104.637 74.064 104.837 74.0293 105.008 73.96C105.184 73.8907 105.344 73.7867 105.488 73.648L106.152 74.368C105.955 74.592 105.707 74.7653 105.408 74.888C105.109 75.0053 104.765 75.064 104.376 75.064ZM107.287 75V70.696H108.535V75H107.287ZM107.911 70.096C107.682 70.096 107.495 70.0293 107.351 69.896C107.207 69.7627 107.135 69.5973 107.135 69.4C107.135 69.2027 107.207 69.0373 107.351 68.904C107.495 68.7707 107.682 68.704 107.911 68.704C108.14 68.704 108.327 68.768 108.471 68.896C108.615 69.0187 108.687 69.1787 108.687 69.376C108.687 69.584 108.615 69.7573 108.471 69.896C108.332 70.0293 108.146 70.096 107.911 70.096ZM109.693 75V70.696H110.885V71.912L110.717 71.56C110.845 71.256 111.051 71.0267 111.333 70.872C111.616 70.712 111.96 70.632 112.365 70.632V71.784C112.312 71.7787 112.264 71.776 112.221 71.776C112.179 71.7707 112.133 71.768 112.085 71.768C111.744 71.768 111.467 71.8667 111.253 72.064C111.045 72.256 110.941 72.5573 110.941 72.968V75H109.693ZM115.124 75.064C114.665 75.064 114.257 74.968 113.9 74.776C113.548 74.584 113.268 74.3227 113.06 73.992C112.857 73.656 112.756 73.2747 112.756 72.848C112.756 72.416 112.857 72.0347 113.06 71.704C113.268 71.368 113.548 71.1067 113.9 70.92C114.257 70.728 114.665 70.632 115.124 70.632C115.577 70.632 115.983 70.728 116.34 70.92C116.697 71.1067 116.977 71.3653 117.18 71.696C117.383 72.0267 117.484 72.4107 117.484 72.848C117.484 73.2747 117.383 73.656 117.18 73.992C116.977 74.3227 116.697 74.584 116.34 74.776C115.983 74.968 115.577 75.064 115.124 75.064ZM115.124 74.04C115.332 74.04 115.519 73.992 115.684 73.896C115.849 73.8 115.98 73.664 116.076 73.488C116.172 73.3067 116.22 73.0933 116.22 72.848C116.22 72.5973 116.172 72.384 116.076 72.208C115.98 72.032 115.849 71.896 115.684 71.8C115.519 71.704 115.332 71.656 115.124 71.656C114.916 71.656 114.729 71.704 114.564 71.8C114.399 71.896 114.265 72.032 114.164 72.208C114.068 72.384 114.02 72.5973 114.02 72.848C114.02 73.0933 114.068 73.3067 114.164 73.488C114.265 73.664 114.399 73.8 114.564 73.896C114.729 73.992 114.916 74.04 115.124 74.04ZM123.224 75V74.16L123.144 73.976V72.472C123.144 72.2053 123.061 71.9973 122.896 71.848C122.736 71.6987 122.488 71.624 122.152 71.624C121.922 71.624 121.696 71.6613 121.472 71.736C121.253 71.8053 121.066 71.9013 120.912 72.024L120.464 71.152C120.698 70.9867 120.981 70.8587 121.312 70.768C121.642 70.6773 121.978 70.632 122.32 70.632C122.976 70.632 123.485 70.7867 123.848 71.096C124.21 71.4053 124.392 71.888 124.392 72.544V75H123.224ZM121.912 75.064C121.576 75.064 121.288 75.008 121.048 74.896C120.808 74.7787 120.624 74.6213 120.496 74.424C120.368 74.2267 120.304 74.0053 120.304 73.76C120.304 73.504 120.365 73.28 120.488 73.088C120.616 72.896 120.816 72.7467 121.088 72.64C121.36 72.528 121.714 72.472 122.152 72.472H123.296V73.2H122.288C121.994 73.2 121.792 73.248 121.68 73.344C121.573 73.44 121.52 73.56 121.52 73.704C121.52 73.864 121.581 73.992 121.704 74.088C121.832 74.1787 122.005 74.224 122.224 74.224C122.432 74.224 122.618 74.176 122.784 74.08C122.949 73.9787 123.069 73.832 123.144 73.64L123.336 74.216C123.245 74.4933 123.08 74.704 122.84 74.848C122.6 74.992 122.29 75.064 121.912 75.064ZM127.235 75L129.643 71.68V72.624L127.339 69.4H128.811L130.403 71.648L129.787 71.656L131.355 69.4H132.763L130.475 72.568V71.64L132.899 75H131.403L129.755 72.624H130.347L128.723 75H127.235Z" fill="#333333"/>
<path fill-rule="evenodd" clip-rule="evenodd" d="M170.357 95.1335C170.357 88.0717 164.571 82.2812 157.5 82.2812C117.753 82.2812 101.571 82.286 101.571 82.286L96.4284 87.4289H72.6427L66.857 82.2858H44.4514C37.38 82.2858 31.5942 88.0717 31.5942 95.1382C31.5942 95.1429 31.5942 95.1478 31.5942 95.1526C31.5942 102.215 37.38 108 44.4514 108C55.099 108 66.8571 108 66.8571 108L72.6428 113.143H96.4285L101.571 108H157.594C164.571 108 170.357 102.215 170.357 95.148C170.357 95.1431 170.357 95.4645 170.357 95.1335Z" fill="#30DCFF"/>
<path fill-rule="evenodd" clip-rule="evenodd" d="M170.357 95.1361C170.357 88.0718 164.571 82.2861 157.406 82.2861C117.659 82.2861 101.571 82.2862 101.571 82.2862L96.4286 87.429H72.6429L66.8571 82.2862H44.3571C37.2857 82.2862 31.5 88.0719 31.5 95.1361C31.5 95.1408 31.5 95.1433 31.5 95.1433H34.7143C34.7143 88.7147 39.2143 85.5005 44.3571 85.5005C53.784 85.5005 65.5714 85.5004 65.5714 85.5004L71.3571 90.6433H97.7143L102.857 85.5004H157.5C163.286 85.5004 167.143 89.3576 167.143 95.1431L170.357 95.1433V95.1361Z" fill="white" fill-opacity="0.5"/>
<path fill-rule="evenodd" clip-rule="evenodd" d="M170.357 95.1436L167.143 95.1436C167.143 100.911 163.412 104.786 157.5 104.786C120.854 104.786 100.286 104.786 100.286 104.786L95.1429 109.929H73.9286L68.1429 104.786H44.3571C37.6047 104.786 34.7143 100.929 34.7143 95.1445L31.5 95.1436V95.1508C31.5 102.215 37.2857 108.001 44.3571 108.001C55.0048 108.001 66.8571 108.001 66.8571 108.001L72.6429 113.144H96.4286L101.571 108.001H157.5C164.571 108.001 170.357 102.215 170.357 95.1436Z" fill="black" fill-opacity="0.25"/>
<path d="M37.8565 100.286L40.3525 94.6861H41.6325L44.1365 100.286H42.7765L40.7285 95.3421H41.2405L39.1845 100.286H37.8565ZM39.1045 99.0861L39.4485 98.1021H42.3285L42.6805 99.0861H39.1045ZM46.3504 100.35C45.8437 100.35 45.4491 100.222 45.1664 99.9661C44.8837 99.7048 44.7424 99.3181 44.7424 98.8061V95.0301H45.9904V98.7901C45.9904 98.9715 46.0384 99.1128 46.1344 99.2141C46.2304 99.3101 46.3611 99.3581 46.5264 99.3581C46.7237 99.3581 46.8917 99.3048 47.0304 99.1981L47.3664 100.078C47.2384 100.169 47.0837 100.238 46.9024 100.286C46.7264 100.329 46.5424 100.35 46.3504 100.35ZM44.0784 97.0381V96.0781H47.0624V97.0381H44.0784ZM48.067 100.286V95.9821H49.259V97.1981L49.091 96.8461C49.219 96.5421 49.4243 96.3128 49.707 96.1581C49.9896 95.9981 50.3336 95.9181 50.739 95.9181V97.0701C50.6856 97.0648 50.6376 97.0621 50.595 97.0621C50.5523 97.0568 50.507 97.0541 50.459 97.0541C50.1176 97.0541 49.8403 97.1528 49.627 97.3501C49.419 97.5421 49.315 97.8435 49.315 98.2541V100.286H48.067ZM51.4888 100.286V95.9821H52.7368V100.286H51.4888ZM52.1128 95.3821C51.8835 95.3821 51.6968 95.3155 51.5528 95.1821C51.4088 95.0488 51.3368 94.8835 51.3368 94.6861C51.3368 94.4888 51.4088 94.3235 51.5528 94.1901C51.6968 94.0568 51.8835 93.9901 52.1128 93.9901C52.3422 93.9901 52.5288 94.0541 52.6728 94.1821C52.8168 94.3048 52.8888 94.4648 52.8888 94.6621C52.8888 94.8701 52.8168 95.0435 52.6728 95.1821C52.5342 95.3155 52.3475 95.3821 52.1128 95.3821ZM56.4391 100.35C56.0604 100.35 55.7351 100.27 55.4631 100.11C55.1911 99.9501 54.9831 99.7075 54.8391 99.3821C54.6951 99.0515 54.6231 98.6355 54.6231 98.1341C54.6231 97.6275 54.6978 97.2115 54.8471 96.8861C55.0018 96.5608 55.2151 96.3181 55.4871 96.1581C55.7591 95.9981 56.0764 95.9181 56.4391 95.9181C56.8444 95.9181 57.2071 96.0088 57.5271 96.1901C57.8524 96.3715 58.1084 96.6275 58.2951 96.9581C58.4871 97.2888 58.5831 97.6808 58.5831 98.1341C58.5831 98.5821 58.4871 98.9715 58.2951 99.3021C58.1084 99.6328 57.8524 99.8915 57.5271 100.078C57.2071 100.259 56.8444 100.35 56.4391 100.35ZM53.8951 100.286V94.3501H55.1431V96.8541L55.0631 98.1261L55.0871 99.4061V100.286H53.8951ZM56.2231 99.3261C56.4311 99.3261 56.6151 99.2781 56.7751 99.1821C56.9404 99.0861 57.0711 98.9501 57.1671 98.7741C57.2684 98.5928 57.3191 98.3795 57.3191 98.1341C57.3191 97.8835 57.2684 97.6701 57.1671 97.4941C57.0711 97.3181 56.9404 97.1821 56.7751 97.0861C56.6151 96.9901 56.4311 96.9421 56.2231 96.9421C56.0151 96.9421 55.8284 96.9901 55.6631 97.0861C55.4978 97.1821 55.3671 97.3181 55.2711 97.4941C55.1751 97.6701 55.1271 97.8835 55.1271 98.1341C55.1271 98.3795 55.1751 98.5928 55.2711 98.7741C55.3671 98.9501 55.4978 99.0861 55.6631 99.1821C55.8284 99.2781 56.0151 99.3261 56.2231 99.3261ZM61.2345 100.35C60.8772 100.35 60.5572 100.281 60.2745 100.142C59.9972 100.003 59.7812 99.7928 59.6265 99.5101C59.4719 99.2221 59.3945 98.8568 59.3945 98.4141V95.9821H60.6425V98.2301C60.6425 98.5875 60.7172 98.8515 60.8665 99.0221C61.0212 99.1875 61.2372 99.2701 61.5145 99.2701C61.7065 99.2701 61.8772 99.2301 62.0265 99.1501C62.1759 99.0648 62.2932 98.9368 62.3785 98.7661C62.4639 98.5901 62.5065 98.3715 62.5065 98.1101V95.9821H63.7545V100.286H62.5705V99.1021L62.7865 99.4461C62.6425 99.7448 62.4292 99.9715 62.1465 100.126C61.8692 100.275 61.5652 100.35 61.2345 100.35ZM64.9107 100.286V95.9821H66.1587V100.286H64.9107ZM65.5347 95.3821C65.3054 95.3821 65.1187 95.3155 64.9747 95.1821C64.8307 95.0488 64.7587 94.8835 64.7587 94.6861C64.7587 94.4888 64.8307 94.3235 64.9747 94.1901C65.1187 94.0568 65.3054 93.9901 65.5347 93.9901C65.7641 93.9901 65.9507 94.0541 66.0947 94.1821C66.2387 94.3048 66.3107 94.4648 66.3107 94.6621C66.3107 94.8701 66.2387 95.0435 66.0947 95.1821C65.9561 95.3155 65.7694 95.3821 65.5347 95.3821ZM67.317 100.286V95.9821H68.509V97.1981L68.341 96.8461C68.469 96.5421 68.6743 96.3128 68.957 96.1581C69.2396 95.9981 69.5836 95.9181 69.989 95.9181V97.0701C69.9356 97.0648 69.8876 97.0621 69.845 97.0621C69.8023 97.0568 69.757 97.0541 69.709 97.0541C69.3676 97.0541 69.0903 97.1528 68.877 97.3501C68.669 97.5421 68.565 97.8435 68.565 98.2541V100.286H67.317ZM74.7319 94.5901C75.2492 94.5901 75.6946 94.6968 76.0679 94.9101C76.4412 95.1235 76.7292 95.4355 76.9319 95.8461C77.1346 96.2515 77.2359 96.7581 77.2359 97.3661C77.2359 98.0115 77.1132 98.5581 76.8679 99.0061C76.6279 99.4541 76.2946 99.7955 75.8679 100.03C75.4412 100.265 74.9452 100.382 74.3799 100.382C74.0866 100.382 73.8039 100.35 73.5319 100.286C73.2599 100.222 73.0252 100.126 72.8279 99.9981L73.3079 99.0461C73.4626 99.1528 73.6279 99.2275 73.8039 99.2701C73.9799 99.3075 74.1639 99.3261 74.3559 99.3261C74.8359 99.3261 75.2172 99.1795 75.4999 98.8861C75.7879 98.5928 75.9319 98.1581 75.9319 97.5821C75.9319 97.4861 75.9292 97.3795 75.9239 97.2621C75.9186 97.1448 75.9052 97.0275 75.8839 96.9101L76.2359 97.2461C76.1452 97.4541 76.0172 97.6301 75.8519 97.7741C75.6866 97.9128 75.4946 98.0195 75.2759 98.0941C75.0572 98.1635 74.8119 98.1981 74.5399 98.1981C74.1826 98.1981 73.8572 98.1261 73.5639 97.9821C73.2759 97.8381 73.0439 97.6355 72.8679 97.3741C72.6972 97.1128 72.6119 96.8061 72.6119 96.4541C72.6119 96.0701 72.7052 95.7395 72.8919 95.4621C73.0839 95.1848 73.3399 94.9715 73.6599 94.8221C73.9852 94.6675 74.3426 94.5901 74.7319 94.5901ZM74.8119 95.5581C74.6252 95.5581 74.4626 95.5928 74.3239 95.6621C74.1852 95.7261 74.0759 95.8221 73.9959 95.9501C73.9159 96.0728 73.8759 96.2195 73.8759 96.3901C73.8759 96.6461 73.9612 96.8515 74.1319 97.0061C74.3079 97.1555 74.5399 97.2301 74.8279 97.2301C75.0146 97.2301 75.1799 97.1955 75.3239 97.1261C75.4732 97.0515 75.5879 96.9501 75.6679 96.8221C75.7479 96.6941 75.7879 96.5501 75.7879 96.3901C75.7879 96.2301 75.7479 96.0888 75.6679 95.9661C75.5932 95.8381 75.4839 95.7395 75.3399 95.6701C75.1959 95.5955 75.0199 95.5581 74.8119 95.5581ZM80.2577 100.382C79.799 100.382 79.3883 100.27 79.0257 100.046C78.663 99.8168 78.3777 99.4861 78.1697 99.0541C77.9617 98.6221 77.8577 98.0995 77.8577 97.4861C77.8577 96.8728 77.9617 96.3501 78.1697 95.9181C78.3777 95.4861 78.663 95.1581 79.0257 94.9341C79.3883 94.7048 79.799 94.5901 80.2577 94.5901C80.7217 94.5901 81.1323 94.7048 81.4897 94.9341C81.8523 95.1581 82.1377 95.4861 82.3457 95.9181C82.5537 96.3501 82.6577 96.8728 82.6577 97.4861C82.6577 98.0995 82.5537 98.6221 82.3457 99.0541C82.1377 99.4861 81.8523 99.8168 81.4897 100.046C81.1323 100.27 80.7217 100.382 80.2577 100.382ZM80.2577 99.2861C80.4763 99.2861 80.6657 99.2248 80.8257 99.1021C80.991 98.9795 81.119 98.7848 81.2097 98.5181C81.3057 98.2515 81.3537 97.9075 81.3537 97.4861C81.3537 97.0648 81.3057 96.7208 81.2097 96.4541C81.119 96.1875 80.991 95.9928 80.8257 95.8701C80.6657 95.7475 80.4763 95.6861 80.2577 95.6861C80.0443 95.6861 79.855 95.7475 79.6897 95.8701C79.5297 95.9928 79.4017 96.1875 79.3057 96.4541C79.215 96.7208 79.1697 97.0648 79.1697 97.4861C79.1697 97.9075 79.215 98.2515 79.3057 98.5181C79.4017 98.7848 79.5297 98.9795 79.6897 99.1021C79.855 99.2248 80.0443 99.2861 80.2577 99.2861ZM88.457 100.286V99.4461L88.377 99.2621V97.7581C88.377 97.4915 88.2943 97.2835 88.129 97.1341C87.969 96.9848 87.721 96.9101 87.385 96.9101C87.1556 96.9101 86.929 96.9475 86.705 97.0221C86.4863 97.0915 86.2996 97.1875 86.145 97.3101L85.697 96.4381C85.9316 96.2728 86.2143 96.1448 86.545 96.0541C86.8756 95.9635 87.2116 95.9181 87.553 95.9181C88.209 95.9181 88.7183 96.0728 89.081 96.3821C89.4436 96.6915 89.625 97.1741 89.625 97.8301V100.286H88.457ZM87.145 100.35C86.809 100.35 86.521 100.294 86.281 100.182C86.041 100.065 85.857 99.9075 85.729 99.7101C85.601 99.5128 85.537 99.2915 85.537 99.0461C85.537 98.7901 85.5983 98.5661 85.721 98.3741C85.849 98.1821 86.049 98.0328 86.321 97.9261C86.593 97.8141 86.9476 97.7581 87.385 97.7581H88.529V98.4861H87.521C87.2276 98.4861 87.025 98.5341 86.913 98.6301C86.8063 98.7261 86.753 98.8461 86.753 98.9901C86.753 99.1501 86.8143 99.2781 86.937 99.3741C87.065 99.4648 87.2383 99.5101 87.457 99.5101C87.665 99.5101 87.8516 99.4621 88.017 99.3661C88.1823 99.2648 88.3023 99.1181 88.377 98.9261L88.569 99.5021C88.4783 99.7795 88.313 99.9901 88.073 100.134C87.833 100.278 87.5236 100.35 87.145 100.35ZM94.5001 100.286V97.9981L94.7961 98.7821L92.3321 94.6861H93.7081L95.5961 97.8301H94.8041L96.7001 94.6861H97.9721L95.5081 98.7821L95.7961 97.9981V100.286H94.5001Z" fill="#333333"/>
<path fill-rule="evenodd" clip-rule="evenodd" d="M170.357 120.847C170.357 113.786 164.571 107.995 157.5 107.995C117.753 107.995 101.571 108 101.571 108L96.4284 113.143H72.6427L66.857 108H44.4514C37.38 108 31.5942 113.786 31.5942 120.852C31.5942 120.857 31.5942 120.862 31.5942 120.866C31.5942 127.928 37.38 133.714 44.4514 133.714C55.099 133.714 66.8571 133.714 66.8571 133.714L72.6428 138.857H96.4285L101.571 133.714H157.594C164.571 133.714 170.357 127.928 170.357 120.862C170.357 120.857 170.357 121.178 170.357 120.847Z" fill="#30DCFF"/>
<path fill-rule="evenodd" clip-rule="evenodd" d="M170.357 120.85C170.357 113.786 164.571 108 157.406 108C117.659 108 101.571 108 101.571 108L96.4286 113.143H72.6429L66.8571 108H44.3571C37.2857 108 31.5 113.786 31.5 120.85C31.5 120.855 31.5 120.857 31.5 120.857H34.7143C34.7143 114.429 39.2143 111.214 44.3571 111.214C53.784 111.214 65.5714 111.214 65.5714 111.214L71.3571 116.357H97.7143L102.857 111.214H157.5C163.286 111.214 167.143 115.071 167.143 120.857L170.357 120.857V120.85Z" fill="white" fill-opacity="0.5"/>
<path fill-rule="evenodd" clip-rule="evenodd" d="M170.357 120.857L167.143 120.857C167.143 126.625 163.412 130.5 157.5 130.5C120.854 130.5 100.286 130.5 100.286 130.5L95.1429 135.643H73.9286L68.1429 130.5H44.3571C37.6047 130.5 34.7143 126.643 34.7143 120.858L31.5 120.857V120.865C31.5 127.929 37.2857 133.715 44.3571 133.715C55.0048 133.715 66.8571 133.715 66.8571 133.715L72.6429 138.857H96.4286L101.571 133.715H157.5C164.571 133.715 170.357 127.929 170.357 120.857Z" fill="black" fill-opacity="0.25"/>
<path d="M37.8565 126L40.3525 120.4H41.6325L44.1365 126H42.7765L40.7285 121.056H41.2405L39.1845 126H37.8565ZM39.1045 124.8L39.4485 123.816H42.3285L42.6805 124.8H39.1045ZM46.4384 126.064C46.0331 126.064 45.6677 125.973 45.3424 125.792C45.0171 125.605 44.7584 125.347 44.5664 125.016C44.3797 124.685 44.2864 124.296 44.2864 123.848C44.2864 123.395 44.3797 123.003 44.5664 122.672C44.7584 122.341 45.0171 122.085 45.3424 121.904C45.6677 121.723 46.0331 121.632 46.4384 121.632C46.8011 121.632 47.1184 121.712 47.3904 121.872C47.6624 122.032 47.8731 122.275 48.0224 122.6C48.1717 122.925 48.2464 123.341 48.2464 123.848C48.2464 124.349 48.1744 124.765 48.0304 125.096C47.8864 125.421 47.6784 125.664 47.4064 125.824C47.1397 125.984 46.8171 126.064 46.4384 126.064ZM46.6544 125.04C46.8571 125.04 47.0411 124.992 47.2064 124.896C47.3717 124.8 47.5024 124.664 47.5984 124.488C47.6997 124.307 47.7504 124.093 47.7504 123.848C47.7504 123.597 47.6997 123.384 47.5984 123.208C47.5024 123.032 47.3717 122.896 47.2064 122.8C47.0411 122.704 46.8571 122.656 46.6544 122.656C46.4464 122.656 46.2597 122.704 46.0944 122.8C45.9291 122.896 45.7957 123.032 45.6944 123.208C45.5984 123.384 45.5504 123.597 45.5504 123.848C45.5504 124.093 45.5984 124.307 45.6944 124.488C45.7957 124.664 45.9291 124.8 46.0944 124.896C46.2597 124.992 46.4464 125.04 46.6544 125.04ZM47.7824 126V125.12L47.8064 123.84L47.7264 122.568V120.064H48.9744V126H47.7824ZM50.1295 126V121.696H51.3775V126H50.1295ZM50.7535 121.096C50.5241 121.096 50.3375 121.029 50.1935 120.896C50.0495 120.763 49.9775 120.597 49.9775 120.4C49.9775 120.203 50.0495 120.037 50.1935 119.904C50.3375 119.771 50.5241 119.704 50.7535 119.704C50.9828 119.704 51.1695 119.768 51.3135 119.896C51.4575 120.019 51.5295 120.179 51.5295 120.376C51.5295 120.584 51.4575 120.757 51.3135 120.896C51.1748 121.029 50.9881 121.096 50.7535 121.096ZM54.6157 126.064C54.1517 126.064 53.7384 125.971 53.3757 125.784C53.0131 125.592 52.7277 125.328 52.5197 124.992C52.3171 124.656 52.2157 124.275 52.2157 123.848C52.2157 123.416 52.3171 123.035 52.5197 122.704C52.7277 122.368 53.0131 122.107 53.3757 121.92C53.7384 121.728 54.1517 121.632 54.6157 121.632C55.0691 121.632 55.4637 121.728 55.7997 121.92C56.1357 122.107 56.3837 122.376 56.5437 122.728L55.5757 123.248C55.4637 123.045 55.3224 122.896 55.1517 122.8C54.9864 122.704 54.8051 122.656 54.6077 122.656C54.3944 122.656 54.2024 122.704 54.0317 122.8C53.8611 122.896 53.7251 123.032 53.6237 123.208C53.5277 123.384 53.4797 123.597 53.4797 123.848C53.4797 124.099 53.5277 124.312 53.6237 124.488C53.7251 124.664 53.8611 124.8 54.0317 124.896C54.2024 124.992 54.3944 125.04 54.6077 125.04C54.8051 125.04 54.9864 124.995 55.1517 124.904C55.3224 124.808 55.4637 124.656 55.5757 124.448L56.5437 124.976C56.3837 125.323 56.1357 125.592 55.7997 125.784C55.4637 125.971 55.0691 126.064 54.6157 126.064ZM57.2388 126V121.696H58.4868V126H57.2388ZM57.8628 121.096C57.6335 121.096 57.4468 121.029 57.3028 120.896C57.1588 120.763 57.0868 120.597 57.0868 120.4C57.0868 120.203 57.1588 120.037 57.3028 119.904C57.4468 119.771 57.6335 119.704 57.8628 119.704C58.0922 119.704 58.2788 119.768 58.4228 119.896C58.5668 120.019 58.6388 120.179 58.6388 120.376C58.6388 120.584 58.5668 120.757 58.4228 120.896C58.2842 121.029 58.0975 121.096 57.8628 121.096ZM61.6931 126.064C61.2344 126.064 60.8264 125.968 60.4691 125.776C60.1171 125.584 59.8371 125.323 59.6291 124.992C59.4264 124.656 59.3251 124.275 59.3251 123.848C59.3251 123.416 59.4264 123.035 59.6291 122.704C59.8371 122.368 60.1171 122.107 60.4691 121.92C60.8264 121.728 61.2344 121.632 61.6931 121.632C62.1464 121.632 62.5518 121.728 62.9091 121.92C63.2664 122.107 63.5464 122.365 63.7491 122.696C63.9518 123.027 64.0531 123.411 64.0531 123.848C64.0531 124.275 63.9518 124.656 63.7491 124.992C63.5464 125.323 63.2664 125.584 62.9091 125.776C62.5518 125.968 62.1464 126.064 61.6931 126.064ZM61.6931 125.04C61.9011 125.04 62.0878 124.992 62.2531 124.896C62.4184 124.8 62.5491 124.664 62.6451 124.488C62.7411 124.307 62.7891 124.093 62.7891 123.848C62.7891 123.597 62.7411 123.384 62.6451 123.208C62.5491 123.032 62.4184 122.896 62.2531 122.8C62.0878 122.704 61.9011 122.656 61.6931 122.656C61.4851 122.656 61.2984 122.704 61.1331 122.8C60.9678 122.896 60.8344 123.032 60.7331 123.208C60.6371 123.384 60.5891 123.597 60.5891 123.848C60.5891 124.093 60.6371 124.307 60.7331 124.488C60.8344 124.664 60.9678 124.8 61.1331 124.896C61.2984 124.992 61.4851 125.04 61.6931 125.04ZM67.5033 121.632C67.8446 121.632 68.1486 121.701 68.4153 121.84C68.6873 121.973 68.9006 122.181 69.0553 122.464C69.2099 122.741 69.2873 123.099 69.2873 123.536V126H68.0393V123.728C68.0393 123.381 67.9619 123.125 67.8073 122.96C67.6579 122.795 67.4446 122.712 67.1673 122.712C66.9699 122.712 66.7913 122.755 66.6313 122.84C66.4766 122.92 66.3539 123.045 66.2633 123.216C66.1779 123.387 66.1353 123.605 66.1353 123.872V126H64.8873V121.696H66.0793V122.888L65.8553 122.528C66.0099 122.24 66.2313 122.019 66.5193 121.864C66.8073 121.709 67.1353 121.632 67.5033 121.632ZM72.5858 126.064C72.0951 126.064 71.6631 125.968 71.2898 125.776C70.9218 125.584 70.6364 125.323 70.4338 124.992C70.2311 124.656 70.1298 124.275 70.1298 123.848C70.1298 123.416 70.2284 123.035 70.4258 122.704C70.6284 122.368 70.9031 122.107 71.2498 121.92C71.5964 121.728 71.9884 121.632 72.4258 121.632C72.8471 121.632 73.2258 121.723 73.5618 121.904C73.9031 122.08 74.1724 122.336 74.3698 122.672C74.5671 123.003 74.6658 123.4 74.6658 123.864C74.6658 123.912 74.6631 123.968 74.6578 124.032C74.6524 124.091 74.6471 124.147 74.6418 124.2H71.1458V123.472H73.9858L73.5058 123.688C73.5058 123.464 73.4604 123.269 73.3698 123.104C73.2791 122.939 73.1538 122.811 72.9938 122.72C72.8338 122.624 72.6471 122.576 72.4338 122.576C72.2204 122.576 72.0311 122.624 71.8658 122.72C71.7058 122.811 71.5804 122.941 71.4898 123.112C71.3991 123.277 71.3538 123.475 71.3538 123.704V123.896C71.3538 124.131 71.4044 124.339 71.5058 124.52C71.6124 124.696 71.7591 124.832 71.9458 124.928C72.1378 125.019 72.3618 125.064 72.6178 125.064C72.8471 125.064 73.0471 125.029 73.2178 124.96C73.3938 124.891 73.5538 124.787 73.6978 124.648L74.3618 125.368C74.1644 125.592 73.9164 125.765 73.6178 125.888C73.3191 126.005 72.9751 126.064 72.5858 126.064ZM77.4503 126V125.16L79.6103 123.12C79.7809 122.965 79.9063 122.827 79.9863 122.704C80.0663 122.581 80.1196 122.469 80.1463 122.368C80.1783 122.267 80.1943 122.173 80.1943 122.088C80.1943 121.864 80.1169 121.693 79.9623 121.576C79.8129 121.453 79.5916 121.392 79.2983 121.392C79.0636 121.392 78.8449 121.437 78.6423 121.528C78.4449 121.619 78.2769 121.76 78.1383 121.952L77.1943 121.344C77.4076 121.024 77.7063 120.771 78.0903 120.584C78.4743 120.397 78.9169 120.304 79.4183 120.304C79.8343 120.304 80.1969 120.373 80.5063 120.512C80.8209 120.645 81.0636 120.835 81.2343 121.08C81.4103 121.325 81.4983 121.619 81.4983 121.96C81.4983 122.141 81.4743 122.323 81.4263 122.504C81.3836 122.68 81.2929 122.867 81.1543 123.064C81.0209 123.261 80.8236 123.483 80.5623 123.728L78.7703 125.416L78.5223 124.944H81.6823V126H77.4503ZM87.3867 126V125.16L87.3067 124.976V123.472C87.3067 123.205 87.224 122.997 87.0587 122.848C86.8987 122.699 86.6507 122.624 86.3147 122.624C86.0853 122.624 85.8587 122.661 85.6347 122.736C85.416 122.805 85.2293 122.901 85.0747 123.024L84.6267 122.152C84.8613 121.987 85.144 121.859 85.4747 121.768C85.8053 121.677 86.1413 121.632 86.4827 121.632C87.1387 121.632 87.648 121.787 88.0107 122.096C88.3733 122.405 88.5547 122.888 88.5547 123.544V126H87.3867ZM86.0747 126.064C85.7387 126.064 85.4507 126.008 85.2107 125.896C84.9707 125.779 84.7867 125.621 84.6587 125.424C84.5307 125.227 84.4667 125.005 84.4667 124.76C84.4667 124.504 84.528 124.28 84.6507 124.088C84.7787 123.896 84.9787 123.747 85.2507 123.64C85.5227 123.528 85.8773 123.472 86.3147 123.472H87.4587V124.2H86.4507C86.1573 124.2 85.9547 124.248 85.8427 124.344C85.736 124.44 85.6827 124.56 85.6827 124.704C85.6827 124.864 85.744 124.992 85.8667 125.088C85.9947 125.179 86.168 125.224 86.3867 125.224C86.5947 125.224 86.7813 125.176 86.9467 125.08C87.112 124.979 87.232 124.832 87.3067 124.64L87.4987 125.216C87.408 125.493 87.2427 125.704 87.0027 125.848C86.7627 125.992 86.4533 126.064 86.0747 126.064ZM93.4298 126V123.712L93.7258 124.496L91.2618 120.4H92.6378L94.5258 123.544H93.7338L95.6298 120.4H96.9018L94.4378 124.496L94.7258 123.712V126H93.4298Z" fill="#333333"/>
<path fill-rule="evenodd" clip-rule="evenodd" d="M170.357 146.561C170.357 139.499 164.571 133.709 157.5 133.709C117.753 133.709 101.571 133.714 101.571 133.714L96.4284 138.857H72.6427L66.857 133.714H44.4514C37.38 133.714 31.5942 139.499 31.5942 146.566C31.5942 146.571 31.5942 146.575 31.5942 146.58C31.5942 153.642 37.38 159.428 44.4514 159.428C55.099 159.428 66.8571 159.428 66.8571 159.428L72.6428 164.571H96.4285L101.571 159.428H157.594C164.571 159.428 170.357 153.642 170.357 146.576C170.357 146.571 170.357 146.892 170.357 146.561Z" fill="#30DCFF"/>
<path fill-rule="evenodd" clip-rule="evenodd" d="M170.357 146.564C170.357 139.5 164.571 133.714 157.406 133.714C117.659 133.714 101.571 133.714 101.571 133.714L96.4286 138.857H72.6429L66.8571 133.714H44.3571C37.2857 133.714 31.5 139.5 31.5 146.564C31.5 146.569 31.5 146.571 31.5 146.571H34.7143C34.7143 140.142 39.2143 136.928 44.3571 136.928C53.784 136.928 65.5714 136.928 65.5714 136.928L71.3571 142.071H97.7143L102.857 136.928H157.5C163.286 136.928 167.143 140.785 167.143 146.571L170.357 146.571V146.564Z" fill="white" fill-opacity="0.5"/>
<path fill-rule="evenodd" clip-rule="evenodd" d="M170.357 146.571L167.143 146.571C167.143 152.338 163.412 156.214 157.5 156.214C120.854 156.214 100.286 156.214 100.286 156.214L95.1429 161.357H73.9286L68.1429 156.214H44.3571C37.6047 156.214 34.7143 152.357 34.7143 146.572L31.5 146.571V146.579C31.5 153.643 37.2857 159.428 44.3571 159.428C55.0048 159.428 66.8571 159.428 66.8571 159.428L72.6429 164.571H96.4286L101.571 159.428H157.5C164.571 159.428 170.357 153.643 170.357 146.571Z" fill="black" fill-opacity="0.25"/>
<path d="M37.928 152L40.424 146.4H41.704L44.208 152H42.848L40.8 147.056H41.312L39.256 152H37.928ZM39.176 150.8L39.52 149.816H42.4L42.752 150.8H39.176ZM46.4219 152.064C45.9153 152.064 45.5206 151.936 45.2379 151.68C44.9553 151.419 44.8139 151.032 44.8139 150.52V146.744H46.0619V150.504C46.0619 150.685 46.1099 150.827 46.2059 150.928C46.3019 151.024 46.4326 151.072 46.5979 151.072C46.7953 151.072 46.9633 151.019 47.1019 150.912L47.4379 151.792C47.3099 151.883 47.1553 151.952 46.9739 152C46.7979 152.043 46.6139 152.064 46.4219 152.064ZM44.1499 148.752V147.792H47.1339V148.752H44.1499ZM48.1385 152V147.696H49.3305V148.912L49.1625 148.56C49.2905 148.256 49.4958 148.027 49.7785 147.872C50.0612 147.712 50.4052 147.632 50.8105 147.632V148.784C50.7572 148.779 50.7092 148.776 50.6665 148.776C50.6238 148.771 50.5785 148.768 50.5305 148.768C50.1892 148.768 49.9118 148.867 49.6985 149.064C49.4905 149.256 49.3865 149.557 49.3865 149.968V152H48.1385ZM51.5604 152V147.696H52.8084V152H51.5604ZM52.1844 147.096C51.955 147.096 51.7684 147.029 51.6244 146.896C51.4804 146.763 51.4084 146.597 51.4084 146.4C51.4084 146.203 51.4804 146.037 51.6244 145.904C51.7684 145.771 51.955 145.704 52.1844 145.704C52.4137 145.704 52.6004 145.768 52.7444 145.896C52.8884 146.019 52.9604 146.179 52.9604 146.376C52.9604 146.584 52.8884 146.757 52.7444 146.896C52.6057 147.029 52.419 147.096 52.1844 147.096ZM56.5106 152.064C56.132 152.064 55.8066 151.984 55.5346 151.824C55.2626 151.664 55.0546 151.421 54.9106 151.096C54.7666 150.765 54.6946 150.349 54.6946 149.848C54.6946 149.341 54.7693 148.925 54.9186 148.6C55.0733 148.275 55.2866 148.032 55.5586 147.872C55.8306 147.712 56.148 147.632 56.5106 147.632C56.916 147.632 57.2786 147.723 57.5986 147.904C57.924 148.085 58.18 148.341 58.3666 148.672C58.5586 149.003 58.6546 149.395 58.6546 149.848C58.6546 150.296 58.5586 150.685 58.3666 151.016C58.18 151.347 57.924 151.605 57.5986 151.792C57.2786 151.973 56.916 152.064 56.5106 152.064ZM53.9666 152V146.064H55.2146V148.568L55.1346 149.84L55.1586 151.12V152H53.9666ZM56.2946 151.04C56.5026 151.04 56.6866 150.992 56.8466 150.896C57.012 150.8 57.1426 150.664 57.2386 150.488C57.34 150.307 57.3906 150.093 57.3906 149.848C57.3906 149.597 57.34 149.384 57.2386 149.208C57.1426 149.032 57.012 148.896 56.8466 148.8C56.6866 148.704 56.5026 148.656 56.2946 148.656C56.0866 148.656 55.9 148.704 55.7346 148.8C55.5693 148.896 55.4386 149.032 55.3426 149.208C55.2466 149.384 55.1986 149.597 55.1986 149.848C55.1986 150.093 55.2466 150.307 55.3426 150.488C55.4386 150.664 55.5693 150.8 55.7346 150.896C55.9 150.992 56.0866 151.04 56.2946 151.04ZM61.3061 152.064C60.9487 152.064 60.6287 151.995 60.3461 151.856C60.0687 151.717 59.8527 151.507 59.6981 151.224C59.5434 150.936 59.4661 150.571 59.4661 150.128V147.696H60.7141V149.944C60.7141 150.301 60.7887 150.565 60.9381 150.736C61.0927 150.901 61.3087 150.984 61.5861 150.984C61.7781 150.984 61.9487 150.944 62.0981 150.864C62.2474 150.779 62.3647 150.651 62.4501 150.48C62.5354 150.304 62.5781 150.085 62.5781 149.824V147.696H63.8261V152H62.6421V150.816L62.8581 151.16C62.7141 151.459 62.5007 151.685 62.2181 151.84C61.9407 151.989 61.6367 152.064 61.3061 152.064ZM64.9823 152V147.696H66.2303V152H64.9823ZM65.6063 147.096C65.3769 147.096 65.1903 147.029 65.0463 146.896C64.9023 146.763 64.8303 146.597 64.8303 146.4C64.8303 146.203 64.9023 146.037 65.0463 145.904C65.1903 145.771 65.3769 145.704 65.6063 145.704C65.8356 145.704 66.0223 145.768 66.1663 145.896C66.3103 146.019 66.3823 146.179 66.3823 146.376C66.3823 146.584 66.3103 146.757 66.1663 146.896C66.0276 147.029 65.8409 147.096 65.6063 147.096ZM67.3885 152V147.696H68.5805V148.912L68.4125 148.56C68.5405 148.256 68.7458 148.027 69.0285 147.872C69.3112 147.712 69.6552 147.632 70.0605 147.632V148.784C70.0072 148.779 69.9592 148.776 69.9165 148.776C69.8738 148.771 69.8285 148.768 69.7805 148.768C69.4392 148.768 69.1618 148.867 68.9485 149.064C68.7405 149.256 68.6365 149.557 68.6365 149.968V152H67.3885ZM73.2514 152V147.6C73.2514 147.115 73.3954 146.728 73.6834 146.44C73.9714 146.147 74.3821 146 74.9154 146C75.0968 146 75.2701 146.019 75.4354 146.056C75.6061 146.093 75.7501 146.152 75.8674 146.232L75.5394 147.136C75.4701 147.088 75.3928 147.051 75.3074 147.024C75.2221 146.997 75.1314 146.984 75.0354 146.984C74.8541 146.984 74.7128 147.037 74.6114 147.144C74.5154 147.245 74.4674 147.4 74.4674 147.608V148.008L74.4994 148.544V152H73.2514ZM72.5874 148.752V147.792H75.5714V148.752H72.5874ZM78.7551 152V151.16L78.6751 150.976V149.472C78.6751 149.205 78.5924 148.997 78.4271 148.848C78.2671 148.699 78.0191 148.624 77.6831 148.624C77.4537 148.624 77.2271 148.661 77.0031 148.736C76.7844 148.805 76.5977 148.901 76.4431 149.024L75.9951 148.152C76.2297 147.987 76.5124 147.859 76.8431 147.768C77.1737 147.677 77.5097 147.632 77.8511 147.632C78.5071 147.632 79.0164 147.787 79.3791 148.096C79.7417 148.405 79.9231 148.888 79.9231 149.544V152H78.7551ZM77.4431 152.064C77.1071 152.064 76.8191 152.008 76.5791 151.896C76.3391 151.779 76.1551 151.621 76.0271 151.424C75.8991 151.227 75.8351 151.005 75.8351 150.76C75.8351 150.504 75.8964 150.28 76.0191 150.088C76.1471 149.896 76.3471 149.747 76.6191 149.64C76.8911 149.528 77.2457 149.472 77.6831 149.472H78.8271V150.2H77.8191C77.5257 150.2 77.3231 150.248 77.2111 150.344C77.1044 150.44 77.0511 150.56 77.0511 150.704C77.0511 150.864 77.1124 150.992 77.2351 151.088C77.3631 151.179 77.5364 151.224 77.7551 151.224C77.9631 151.224 78.1497 151.176 78.3151 151.08C78.4804 150.979 78.6004 150.832 78.6751 150.64L78.8671 151.216C78.7764 151.493 78.6111 151.704 78.3711 151.848C78.1311 151.992 77.8217 152.064 77.4431 152.064ZM81.0526 152V146.064H82.3006V152H81.0526ZM84.9068 152.064C84.5388 152.064 84.1841 152.021 83.8428 151.936C83.5068 151.845 83.2401 151.733 83.0428 151.6L83.4588 150.704C83.6561 150.827 83.8881 150.928 84.1548 151.008C84.4268 151.083 84.6935 151.12 84.9548 151.12C85.2428 151.12 85.4455 151.085 85.5628 151.016C85.6855 150.947 85.7468 150.851 85.7468 150.728C85.7468 150.627 85.6988 150.552 85.6028 150.504C85.5121 150.451 85.3895 150.411 85.2348 150.384C85.0801 150.357 84.9095 150.331 84.7228 150.304C84.5415 150.277 84.3575 150.243 84.1708 150.2C83.9841 150.152 83.8135 150.083 83.6588 149.992C83.5041 149.901 83.3788 149.779 83.2828 149.624C83.1921 149.469 83.1468 149.269 83.1468 149.024C83.1468 148.752 83.2241 148.512 83.3788 148.304C83.5388 148.096 83.7681 147.933 84.0668 147.816C84.3655 147.693 84.7228 147.632 85.1388 147.632C85.4321 147.632 85.7308 147.664 86.0348 147.728C86.3388 147.792 86.5921 147.885 86.7948 148.008L86.3788 148.896C86.1708 148.773 85.9601 148.691 85.7468 148.648C85.5388 148.6 85.3361 148.576 85.1388 148.576C84.8615 148.576 84.6588 148.613 84.5308 148.688C84.4028 148.763 84.3388 148.859 84.3388 148.976C84.3388 149.083 84.3841 149.163 84.4748 149.216C84.5708 149.269 84.6961 149.312 84.8508 149.344C85.0055 149.376 85.1735 149.405 85.3548 149.432C85.5415 149.453 85.7281 149.488 85.9148 149.536C86.1015 149.584 86.2695 149.653 86.4188 149.744C86.5735 149.829 86.6988 149.949 86.7948 150.104C86.8908 150.253 86.9388 150.451 86.9388 150.696C86.9388 150.963 86.8588 151.2 86.6988 151.408C86.5388 151.611 86.3068 151.771 86.0028 151.888C85.7041 152.005 85.3388 152.064 84.9068 152.064ZM89.7568 152.064C89.2981 152.064 88.8901 151.968 88.5328 151.776C88.1808 151.584 87.9008 151.323 87.6928 150.992C87.4901 150.656 87.3888 150.275 87.3888 149.848C87.3888 149.416 87.4901 149.035 87.6928 148.704C87.9008 148.368 88.1808 148.107 88.5328 147.92C88.8901 147.728 89.2981 147.632 89.7568 147.632C90.2101 147.632 90.6155 147.728 90.9728 147.92C91.3301 148.107 91.6101 148.365 91.8128 148.696C92.0155 149.027 92.1168 149.411 92.1168 149.848C92.1168 150.275 92.0155 150.656 91.8128 150.992C91.6101 151.323 91.3301 151.584 90.9728 151.776C90.6155 151.968 90.2101 152.064 89.7568 152.064ZM89.7568 151.04C89.9648 151.04 90.1515 150.992 90.3168 150.896C90.4821 150.8 90.6128 150.664 90.7088 150.488C90.8048 150.307 90.8528 150.093 90.8528 149.848C90.8528 149.597 90.8048 149.384 90.7088 149.208C90.6128 149.032 90.4821 148.896 90.3168 148.8C90.1515 148.704 89.9648 148.656 89.7568 148.656C89.5488 148.656 89.3621 148.704 89.1968 148.8C89.0315 148.896 88.8981 149.032 88.7968 149.208C88.7008 149.384 88.6528 149.597 88.6528 149.848C88.6528 150.093 88.7008 150.307 88.7968 150.488C88.8981 150.664 89.0315 150.8 89.1968 150.896C89.3621 150.992 89.5488 151.04 89.7568 151.04ZM97.8566 152V151.16L97.7766 150.976V149.472C97.7766 149.205 97.694 148.997 97.5286 148.848C97.3686 148.699 97.1206 148.624 96.7846 148.624C96.5553 148.624 96.3286 148.661 96.1046 148.736C95.886 148.805 95.6993 148.901 95.5446 149.024L95.0966 148.152C95.3313 147.987 95.614 147.859 95.9446 147.768C96.2753 147.677 96.6113 147.632 96.9526 147.632C97.6086 147.632 98.118 147.787 98.4806 148.096C98.8433 148.405 99.0246 148.888 99.0246 149.544V152H97.8566ZM96.5446 152.064C96.2086 152.064 95.9206 152.008 95.6806 151.896C95.4406 151.779 95.2566 151.621 95.1286 151.424C95.0006 151.227 94.9366 151.005 94.9366 150.76C94.9366 150.504 94.998 150.28 95.1206 150.088C95.2486 149.896 95.4486 149.747 95.7206 149.64C95.9926 149.528 96.3473 149.472 96.7846 149.472H97.9286V150.2H96.9206C96.6273 150.2 96.4246 150.248 96.3126 150.344C96.206 150.44 96.1526 150.56 96.1526 150.704C96.1526 150.864 96.214 150.992 96.3366 151.088C96.4646 151.179 96.638 151.224 96.8566 151.224C97.0646 151.224 97.2513 151.176 97.4166 151.08C97.582 150.979 97.702 150.832 97.7766 150.64L97.9686 151.216C97.878 151.493 97.7126 151.704 97.4726 151.848C97.2326 151.992 96.9233 152.064 96.5446 152.064ZM101.868 152L104.276 148.68V149.624L101.972 146.4H103.444L105.036 148.648L104.42 148.656L105.988 146.4H107.396L105.108 149.568V148.64L107.532 152H106.036L104.388 149.624H104.98L103.356 152H101.868Z" fill="#333333"/>
</g>
<defs>
<filter id="filter0_d_11_479" x="0" y="0" width="180" height="182.571" filterUnits="userSpaceOnUse" color-interpolation-filters="sRGB">
<feFlood flood-opacity="0" result="BackgroundImageFix"/>
<feColorMatrix in="SourceAlpha" type="matrix" values="0 0 0 0 0 0 0 0 0 0 0 0 0 0 0 0 0 0 127 0" result="hardAlpha"/>
<feOffset dy="2.57143"/>
<feColorMatrix type="matrix" values="0 0 0 0 0 0 0 0 0 0 0 0 0 0 0 0 0 0 0.25 0"/>
<feBlend mode="normal" in2="BackgroundImageFix" result="effect1_dropShadow_11_479"/>
<feBlend mode="normal" in="SourceGraphic" in2="effect1_dropShadow_11_479" result="shape"/>
</filter>
</defs>
</svg>
