<svg width="20" height="20" viewBox="0 0 20 20" fill="none" xmlns="http://www.w3.org/2000/svg">
<path d="M20 10C20 12.6521 18.9464 15.1958 17.0711 17.0711C15.1958 18.9464 12.6521 20 10 20C7.34784 20 4.8043 18.9464 2.92894 17.0711C1.05357 15.1958 0 12.6521 0 10C0 7.34784 1.05357 4.8043 2.92894 2.92894C4.8043 1.05357 7.34784 0 10 0C12.6521 0 15.1958 1.05357 17.0711 2.92894C18.9464 4.8043 20 7.34784 20 10Z" fill="url(#paint0_linear)"/>
<path d="M3.75 10.01C3.75 12.5288 5.0075 17.5 10 17.5C14.9913 17.5 16.25 12.5288 16.25 10.01C16.25 9.81125 14.2375 8.75 10 8.75C5.7625 8.75 3.75 9.81125 3.75 10.01Z" fill="url(#paint1_linear)"/>
<path d="M5.67627 15.625C6.68127 16.8688 8.06002 17.5 10.0125 17.5C11.9663 17.5 13.3312 16.8688 14.3362 15.625C13.6475 14.89 12.3375 13.75 10.0125 13.75C7.68752 13.75 6.36627 14.89 5.67627 15.625Z" fill="url(#paint2_linear)"/>
<path d="M7.76621 5.17973C8.09496 5.41473 8.39371 5.74848 8.27871 6.16473C8.18996 6.48223 8.03621 6.62598 7.75121 6.62848C6.77621 6.64223 5.61621 6.94723 4.61871 7.39348C4.53746 7.42973 4.37246 7.50348 4.20371 7.49973C4.04871 7.49598 3.88996 7.42723 3.79496 7.20348C3.71121 7.00723 3.70371 6.71848 4.13996 6.45598C4.82121 6.04348 5.71121 5.85598 6.52621 5.70098C6.01442 5.32279 5.46331 5.00093 4.88246 4.74098C4.34871 4.49848 4.40746 4.16973 4.47871 3.99098C4.63746 3.59473 5.23996 3.74598 5.82621 4.02348C6.51002 4.34285 7.15996 4.73022 7.76621 5.17973ZM12.2375 5.17973C12.8427 4.73003 13.4919 4.34264 14.175 4.02348C14.7625 3.74598 15.3625 3.59473 15.5225 3.99098C15.5937 4.16973 15.6525 4.49848 15.1187 4.74098C14.5385 5.00067 13.9882 5.32255 13.4775 5.70098C14.29 5.85473 15.1812 6.04348 15.8612 6.45598C16.2975 6.71848 16.2887 7.00598 16.2062 7.20348C16.11 7.42848 15.9525 7.49598 15.7975 7.49973C15.6287 7.50348 15.4637 7.42973 15.3825 7.39348C14.3862 6.94723 13.2262 6.64348 12.2525 6.62848C11.9675 6.62598 11.8137 6.48223 11.725 6.16598C11.6112 5.74973 11.9087 5.41598 12.2375 5.18098V5.17973Z" fill="#2A3755"/>
<defs>
<linearGradient id="paint0_linear" x1="10" y1="2.05" x2="10" y2="20" gradientUnits="userSpaceOnUse">
<stop stop-color="#FEEA70"/>
<stop offset="1" stop-color="#F69B30"/>
</linearGradient>
<linearGradient id="paint1_linear" x1="10" y1="8.75" x2="10" y2="17.5" gradientUnits="userSpaceOnUse">
<stop stop-color="#472315"/>
<stop offset="1" stop-color="#8B3A0E"/>
</linearGradient>
<linearGradient id="paint2_linear" x1="10.0062" y1="13.75" x2="10.0062" y2="16.8212" gradientUnits="userSpaceOnUse">
<stop stop-color="#FC607C"/>
<stop offset="1" stop-color="#D91F3A"/>
</linearGradient>
</defs>
</svg>
