<svg width="20" height="20" viewBox="0 0 20 20" fill="none" xmlns="http://www.w3.org/2000/svg">
<path d="M20 10C20 12.6521 18.9464 15.1958 17.0711 17.0711C15.1958 18.9464 12.6521 20 10 20C7.34784 20 4.8043 18.9464 2.92894 17.0711C1.05357 15.1958 0 12.6521 0 10C0 7.34784 1.05357 4.8043 2.92894 2.92894C4.8043 1.05357 7.34784 0 10 0C12.6521 0 15.1958 1.05357 17.0711 2.92894C18.9464 4.8043 20 7.34784 20 10Z" fill="url(#paint0_linear)"/>
<path d="M6.66626 15.9563C6.66626 16.1275 6.78376 16.25 6.97876 16.25C7.41751 16.25 8.02376 15.4688 10 15.4688C11.9763 15.4688 12.5837 16.25 13.0212 16.25C13.2162 16.25 13.3337 16.1275 13.3337 15.9563C13.3337 15.46 12.285 13.75 10 13.75C7.71501 13.75 6.66626 15.46 6.66626 15.9563Z" fill="url(#paint1_linear)"/>
<path d="M4.4984 11C4.4984 9.98747 5.13465 9.16747 5.9159 9.16747C6.69965 9.16747 7.3334 9.98747 7.3334 11C7.3334 11.4225 7.22215 11.8125 7.0359 12.1225C6.95264 12.2623 6.81734 12.3635 6.65965 12.4037C6.48465 12.45 6.2184 12.5 5.9159 12.5C5.61215 12.5 5.34965 12.45 5.17215 12.4037C5.0148 12.3634 4.87991 12.2622 4.79715 12.1225C4.59771 11.7823 4.49445 11.3943 4.4984 11ZM12.6659 11C12.6659 9.98747 13.3009 9.16747 14.0821 9.16747C14.8659 9.16747 15.4996 9.98747 15.4996 11C15.4996 11.4225 15.3884 11.8125 15.2021 12.1225C15.161 12.1918 15.1066 12.2523 15.042 12.3006C14.9775 12.3489 14.904 12.3839 14.8259 12.4037C14.3385 12.53 13.827 12.53 13.3396 12.4037C13.2615 12.3839 13.188 12.3489 13.1235 12.3006C13.0589 12.2523 13.0045 12.1918 12.9634 12.1225C12.7644 11.7822 12.6615 11.3942 12.6659 11Z" fill="url(#paint2_linear)"/>
<g filter="url(#filter0_i)">
<path d="M4.4984 11C4.4984 9.98747 5.13465 9.16747 5.9159 9.16747C6.69965 9.16747 7.3334 9.98747 7.3334 11C7.3334 11.4225 7.22215 11.8125 7.0359 12.1225C6.95264 12.2623 6.81734 12.3635 6.65965 12.4037C6.48465 12.45 6.2184 12.5 5.9159 12.5C5.61215 12.5 5.34965 12.45 5.17215 12.4037C5.0148 12.3634 4.87991 12.2622 4.79715 12.1225C4.59771 11.7823 4.49445 11.3943 4.4984 11ZM12.6659 11C12.6659 9.98747 13.3009 9.16747 14.0821 9.16747C14.8659 9.16747 15.4996 9.98747 15.4996 11C15.4996 11.4225 15.3884 11.8125 15.2021 12.1225C15.161 12.1918 15.1066 12.2523 15.042 12.3006C14.9775 12.3489 14.904 12.3839 14.8259 12.4037C14.3385 12.53 13.827 12.53 13.3396 12.4037C13.2615 12.3839 13.188 12.3489 13.1235 12.3006C13.0589 12.2523 13.0045 12.1918 12.9634 12.1225C12.7644 11.7822 12.6615 11.3942 12.6659 11Z" fill="black"/>
</g>
<path d="M5.76994 9.98195C5.92994 10.1382 5.93994 10.4469 5.79119 10.6707C5.64119 10.8932 5.39119 10.9482 5.23119 10.7907C5.07119 10.6344 5.06244 10.3257 5.20994 10.1032C5.35994 9.87945 5.60994 9.8257 5.76994 9.98195ZM13.8813 9.98195C14.0413 10.1382 14.0513 10.4469 13.9038 10.6707C13.7538 10.8932 13.5038 10.9482 13.3413 10.7907C13.1825 10.6344 13.1738 10.3257 13.3225 10.1032C13.4713 9.87945 13.7213 9.8257 13.8813 9.98195Z" fill="#4E506A"/>
<path d="M5.1965 6.44074C5.6115 6.24949 5.9415 6.16699 6.19775 6.16699C6.544 6.16699 6.7615 6.31574 6.88525 6.54949C7.104 6.96074 7.00525 7.05074 6.63775 7.12324C5.25525 7.40324 3.8665 8.30074 3.264 8.86074C2.88775 9.21074 2.52775 8.82324 2.719 8.51824C2.9115 8.21324 3.6865 7.13699 5.1965 6.44074ZM13.1152 6.54949C13.239 6.31574 13.4565 6.16699 13.8027 6.16699C14.0602 6.16699 14.389 6.24949 14.804 6.44074C16.314 7.13699 17.089 8.21324 17.2802 8.51824C17.4715 8.82324 17.1127 9.21074 16.7365 8.86074C16.1327 8.30074 14.7452 7.40324 13.3615 7.12324C12.994 7.05074 12.8977 6.96074 13.1152 6.54949Z" fill="url(#paint3_linear)"/>
<path d="M16.875 20C15.84 20 15 19.065 15 17.9113C15 16.7588 15.445 15.98 15.8037 15.2275C16.5512 13.655 16.6988 13.4375 16.875 13.4375C17.0512 13.4375 17.1988 13.655 17.9463 15.2275C18.305 15.98 18.75 16.7588 18.75 17.9113C18.75 19.065 17.91 20 16.875 20Z" fill="url(#paint4_linear)"/>
<path d="M16.8753 17.0079C16.4653 17.0079 16.1328 16.6379 16.1328 16.1829C16.1328 15.7254 16.3092 15.4166 16.4517 15.1179C16.7467 14.4954 16.8053 14.4104 16.8753 14.4104C16.9453 14.4104 17.0041 14.4954 17.2991 15.1179C17.4416 15.4179 17.6178 15.7254 17.6178 16.1816C17.6178 16.6379 17.2853 17.0079 16.8753 17.0079Z" fill="url(#paint5_linear)"/>
<defs>
<filter id="filter0_i" x="4.49829" y="9.16747" width="11.0013" height="3.3325" filterUnits="userSpaceOnUse" color-interpolation-filters="sRGB">
<feFlood flood-opacity="0" result="BackgroundImageFix"/>
<feBlend mode="normal" in="SourceGraphic" in2="BackgroundImageFix" result="shape"/>
<feColorMatrix in="SourceAlpha" type="matrix" values="0 0 0 0 0 0 0 0 0 0 0 0 0 0 0 0 0 0 127 0" result="hardAlpha"/>
<feOffset/>
<feGaussianBlur stdDeviation="0.5"/>
<feComposite in2="hardAlpha" operator="arithmetic" k2="-1" k3="1"/>
<feColorMatrix type="matrix" values="0 0 0 0 0.0411227 0 0 0 0 0.0430885 0 0 0 0 0.0922353 0 0 0 0.819684 0"/>
<feBlend mode="normal" in2="shape" result="effect1_innerShadow"/>
</filter>
<linearGradient id="paint0_linear" x1="10" y1="2.05" x2="10" y2="20" gradientUnits="userSpaceOnUse">
<stop stop-color="#FEEA70"/>
<stop offset="1" stop-color="#F69B30"/>
</linearGradient>
<linearGradient id="paint1_linear" x1="10" y1="13.75" x2="10" y2="16.25" gradientUnits="userSpaceOnUse">
<stop stop-color="#472315"/>
<stop offset="1" stop-color="#8B3A0E"/>
</linearGradient>
<linearGradient id="paint2_linear" x1="9.99875" y1="9.1675" x2="9.99875" y2="12.5" gradientUnits="userSpaceOnUse">
<stop stop-color="#191A33"/>
<stop offset="0.872" stop-color="#3B426A"/>
</linearGradient>
<linearGradient id="paint3_linear" x1="10" y1="6.1675" x2="10" y2="8.99875" gradientUnits="userSpaceOnUse">
<stop stop-color="#E78E0D"/>
<stop offset="1" stop-color="#CB6000"/>
</linearGradient>
<linearGradient id="paint4_linear" x1="16.875" y1="18.8125" x2="16.875" y2="14.615" gradientUnits="userSpaceOnUse">
<stop stop-color="#35CAFC"/>
<stop offset="1" stop-color="#007EDB"/>
</linearGradient>
<linearGradient id="paint5_linear" x1="16.8751" y1="14.41" x2="16.8751" y2="17.0075" gradientUnits="userSpaceOnUse">
<stop stop-color="#6AE1FF" stop-opacity="0.287"/>
<stop offset="1" stop-color="#A8E3FF" stop-opacity="0.799"/>
</linearGradient>
</defs>
</svg>
