<svg width="280" height="284" viewBox="0 0 280 284" fill="none" xmlns="http://www.w3.org/2000/svg">
<g filter="url(#filter0_d_4415_112348)">
<rect id="bg" width="280" height="280" rx="20" />
<path fill-rule="evenodd" clip-rule="evenodd" d="M265 50.17C265 40.38 257.839 33 248 33C208.917 33 232.045 33 204 33C196.27 33 192.785 30.7635 188.5 26.5C179.193 17.8197 155.783 3 104.427 3C32.0243 3 15 32.6322 15 32.6322C15 32.6322 15.0004 37.0196 15.0006 50.3C15.0006 60.09 23.161 68 33 68C59.4876 68 105 68 105 68L113 76H150L158 68C158 68 192.031 68 247 68C257.733 68 265 60.98 265 51.19C265 49.3223 265 52.0375 265 50.17Z" fill="#FC79FF"/>
<path fill-rule="evenodd" clip-rule="evenodd" d="M260 51.0001C260 59.0001 256 63 247 63L156 63L148 71H115L106 63C106 63 58.3934 63 33 63C24.9643 63 20 58 20 51H15.0001C15.0001 60.625 23.1786 68 33 68C59.4408 68 104 68 104 68L113.027 76H150L158 68L247 68C258.607 68 265 62.3751 265 51.0001C263.5 51.0001 262 51 260 51.0001Z" fill="#CD5ACF"/>
<path fill-rule="evenodd" clip-rule="evenodd" d="M14.9999 51H19.9999V34C19.9999 34 34.993 8 104.286 8C151.342 8 175.557 21.6452 185.5 30C190.292 34.0301 196.712 37.9521 203 38C211.5 38 232.5 38 248.036 38C256 38 260 43.5 260 50V51H265V50.3058C265 40.4876 257.857 33 248.036 33C209.029 33 231.008 33 203 33C197.281 32.9998 192.169 30.1595 188.214 26.2066C178.936 17.4998 155.571 3 104.268 3C31.9102 3 15.0007 32.4545 15.0007 32.4545L14.9999 51Z" fill="#FDACFF"/>
<path d="M30.016 55.144C29.16 55.144 28.384 54.96 27.688 54.592C27 54.216 26.456 53.7 26.056 53.044C25.664 52.38 25.468 51.632 25.468 50.8C25.468 49.968 25.664 49.224 26.056 48.568C26.456 47.904 27 47.388 27.688 47.02C28.384 46.644 29.164 46.456 30.028 46.456C30.756 46.456 31.412 46.584 31.996 46.84C32.588 47.096 33.084 47.464 33.484 47.944L32.236 49.096C31.668 48.44 30.964 48.112 30.124 48.112C29.604 48.112 29.14 48.228 28.732 48.46C28.324 48.684 28.004 49 27.772 49.408C27.548 49.816 27.436 50.28 27.436 50.8C27.436 51.32 27.548 51.784 27.772 52.192C28.004 52.6 28.324 52.92 28.732 53.152C29.14 53.376 29.604 53.488 30.124 53.488C30.964 53.488 31.668 53.156 32.236 52.492L33.484 53.644C33.084 54.132 32.588 54.504 31.996 54.76C31.404 55.016 30.744 55.144 30.016 55.144ZM41.0047 48.544V55H39.2287V54.232C38.9807 54.512 38.6847 54.728 38.3407 54.88C37.9967 55.024 37.6247 55.096 37.2247 55.096C36.3767 55.096 35.7047 54.852 35.2087 54.364C34.7127 53.876 34.4647 53.152 34.4647 52.192V48.544H36.3367V51.916C36.3367 52.956 36.7727 53.476 37.6447 53.476C38.0927 53.476 38.4527 53.332 38.7247 53.044C38.9967 52.748 39.1327 52.312 39.1327 51.736V48.544H41.0047ZM45.343 48.448C46.343 48.448 47.111 48.688 47.647 49.168C48.183 49.64 48.451 50.356 48.451 51.316V55H46.699V54.196C46.347 54.796 45.691 55.096 44.731 55.096C44.235 55.096 43.803 55.012 43.435 54.844C43.075 54.676 42.799 54.444 42.607 54.148C42.415 53.852 42.319 53.516 42.319 53.14C42.319 52.54 42.543 52.068 42.991 51.724C43.447 51.38 44.147 51.208 45.091 51.208H46.579C46.579 50.8 46.455 50.488 46.207 50.272C45.959 50.048 45.587 49.936 45.091 49.936C44.747 49.936 44.407 49.992 44.071 50.104C43.743 50.208 43.463 50.352 43.231 50.536L42.559 49.228C42.911 48.98 43.331 48.788 43.819 48.652C44.315 48.516 44.823 48.448 45.343 48.448ZM45.199 53.836C45.519 53.836 45.803 53.764 46.051 53.62C46.299 53.468 46.475 53.248 46.579 52.96V52.3H45.295C44.527 52.3 44.143 52.552 44.143 53.056C44.143 53.296 44.235 53.488 44.419 53.632C44.611 53.768 44.871 53.836 45.199 53.836ZM54.0693 48.448C54.8693 48.448 55.5133 48.688 56.0013 49.168C56.4973 49.648 56.7453 50.36 56.7453 51.304V55H54.8733V51.592C54.8733 51.08 54.7613 50.7 54.5373 50.452C54.3133 50.196 53.9893 50.068 53.5653 50.068C53.0933 50.068 52.7173 50.216 52.4373 50.512C52.1573 50.8 52.0173 51.232 52.0173 51.808V55H50.1453V48.544H51.9333V49.3C52.1813 49.028 52.4893 48.82 52.8573 48.676C53.2253 48.524 53.6293 48.448 54.0693 48.448ZM65.0884 46.096V55H63.3004V54.256C62.8364 54.816 62.1644 55.096 61.2844 55.096C60.6764 55.096 60.1244 54.96 59.6284 54.688C59.1404 54.416 58.7564 54.028 58.4764 53.524C58.1964 53.02 58.0564 52.436 58.0564 51.772C58.0564 51.108 58.1964 50.524 58.4764 50.02C58.7564 49.516 59.1404 49.128 59.6284 48.856C60.1244 48.584 60.6764 48.448 61.2844 48.448C62.1084 48.448 62.7524 48.708 63.2164 49.228V46.096H65.0884ZM61.6084 53.56C62.0804 53.56 62.4724 53.4 62.7844 53.08C63.0964 52.752 63.2524 52.316 63.2524 51.772C63.2524 51.228 63.0964 50.796 62.7844 50.476C62.4724 50.148 62.0804 49.984 61.6084 49.984C61.1284 49.984 60.7324 50.148 60.4204 50.476C60.1084 50.796 59.9524 51.228 59.9524 51.772C59.9524 52.316 60.1084 52.752 60.4204 53.08C60.7324 53.4 61.1284 53.56 61.6084 53.56ZM69.893 55.096C69.213 55.096 68.601 54.956 68.057 54.676C67.521 54.388 67.101 53.992 66.797 53.488C66.493 52.984 66.341 52.412 66.341 51.772C66.341 51.132 66.493 50.56 66.797 50.056C67.101 49.552 67.521 49.16 68.057 48.88C68.601 48.592 69.213 48.448 69.893 48.448C70.573 48.448 71.181 48.592 71.717 48.88C72.253 49.16 72.673 49.552 72.977 50.056C73.281 50.56 73.433 51.132 73.433 51.772C73.433 52.412 73.281 52.984 72.977 53.488C72.673 53.992 72.253 54.388 71.717 54.676C71.181 54.956 70.573 55.096 69.893 55.096ZM69.893 53.56C70.373 53.56 70.765 53.4 71.069 53.08C71.381 52.752 71.537 52.316 71.537 51.772C71.537 51.228 71.381 50.796 71.069 50.476C70.765 50.148 70.373 49.984 69.893 49.984C69.413 49.984 69.017 50.148 68.705 50.476C68.393 50.796 68.237 51.228 68.237 51.772C68.237 52.316 68.393 52.752 68.705 53.08C69.017 53.4 69.413 53.56 69.893 53.56ZM75.3923 50.788C75.0643 50.788 74.7883 50.676 74.5643 50.452C74.3403 50.228 74.2283 49.948 74.2283 49.612C74.2283 49.268 74.3403 48.992 74.5643 48.784C74.7883 48.568 75.0643 48.46 75.3923 48.46C75.7203 48.46 75.9963 48.568 76.2203 48.784C76.4443 48.992 76.5563 49.268 76.5563 49.612C76.5563 49.948 76.4443 50.228 76.2203 50.452C75.9963 50.676 75.7203 50.788 75.3923 50.788ZM75.3923 55.096C75.0643 55.096 74.7883 54.984 74.5643 54.76C74.3403 54.536 74.2283 54.256 74.2283 53.92C74.2283 53.576 74.3403 53.3 74.5643 53.092C74.7883 52.876 75.0643 52.768 75.3923 52.768C75.7203 52.768 75.9963 52.876 76.2203 53.092C76.4443 53.3 76.5563 53.576 76.5563 53.92C76.5563 54.256 76.4443 54.536 76.2203 54.76C75.9963 54.984 75.7203 55.096 75.3923 55.096ZM85.0394 48.448C85.6394 48.448 86.1834 48.588 86.6714 48.868C87.1674 49.14 87.5554 49.528 87.8354 50.032C88.1154 50.528 88.2554 51.108 88.2554 51.772C88.2554 52.436 88.1154 53.02 87.8354 53.524C87.5554 54.02 87.1674 54.408 86.6714 54.688C86.1834 54.96 85.6394 55.096 85.0394 55.096C84.2154 55.096 83.5674 54.836 83.0954 54.316V57.328H81.2234V48.544H83.0114V49.288C83.4754 48.728 84.1514 48.448 85.0394 48.448ZM84.7154 53.56C85.1954 53.56 85.5874 53.4 85.8914 53.08C86.2034 52.752 86.3594 52.316 86.3594 51.772C86.3594 51.228 86.2034 50.796 85.8914 50.476C85.5874 50.148 85.1954 49.984 84.7154 49.984C84.2354 49.984 83.8394 50.148 83.5274 50.476C83.2234 50.796 83.0714 51.228 83.0714 51.772C83.0714 52.316 83.2234 52.752 83.5274 53.08C83.8394 53.4 84.2354 53.56 84.7154 53.56ZM91.2965 49.396C91.5205 49.084 91.8205 48.848 92.1965 48.688C92.5805 48.528 93.0205 48.448 93.5165 48.448V50.176C93.3085 50.16 93.1685 50.152 93.0965 50.152C92.5605 50.152 92.1405 50.304 91.8365 50.608C91.5325 50.904 91.3805 51.352 91.3805 51.952V55H89.5085V48.544H91.2965V49.396ZM100.895 51.796C100.895 51.82 100.883 51.988 100.859 52.3H95.975C96.063 52.7 96.271 53.016 96.599 53.248C96.927 53.48 97.335 53.596 97.823 53.596C98.159 53.596 98.455 53.548 98.711 53.452C98.975 53.348 99.219 53.188 99.443 52.972L100.439 54.052C99.831 54.748 98.943 55.096 97.775 55.096C97.047 55.096 96.403 54.956 95.843 54.676C95.283 54.388 94.851 53.992 94.547 53.488C94.243 52.984 94.091 52.412 94.091 51.772C94.091 51.14 94.239 50.572 94.535 50.068C94.839 49.556 95.251 49.16 95.771 48.88C96.299 48.592 96.887 48.448 97.535 48.448C98.167 48.448 98.739 48.584 99.251 48.856C99.763 49.128 100.163 49.52 100.451 50.032C100.747 50.536 100.895 51.124 100.895 51.796ZM97.547 49.864C97.123 49.864 96.767 49.984 96.479 50.224C96.191 50.464 96.015 50.792 95.951 51.208H99.131C99.067 50.8 98.891 50.476 98.603 50.236C98.315 49.988 97.963 49.864 97.547 49.864ZM104.313 55.096C103.777 55.096 103.253 55.032 102.741 54.904C102.229 54.768 101.821 54.6 101.517 54.4L102.141 53.056C102.429 53.24 102.777 53.392 103.185 53.512C103.593 53.624 103.993 53.68 104.385 53.68C105.177 53.68 105.573 53.484 105.573 53.092C105.573 52.908 105.465 52.776 105.249 52.696C105.033 52.616 104.701 52.548 104.253 52.492C103.725 52.412 103.289 52.32 102.945 52.216C102.601 52.112 102.301 51.928 102.045 51.664C101.797 51.4 101.673 51.024 101.673 50.536C101.673 50.128 101.789 49.768 102.021 49.456C102.261 49.136 102.605 48.888 103.053 48.712C103.509 48.536 104.045 48.448 104.661 48.448C105.117 48.448 105.569 48.5 106.017 48.604C106.473 48.7 106.849 48.836 107.145 49.012L106.521 50.344C105.953 50.024 105.333 49.864 104.661 49.864C104.261 49.864 103.961 49.92 103.761 50.032C103.561 50.144 103.461 50.288 103.461 50.464C103.461 50.664 103.569 50.804 103.785 50.884C104.001 50.964 104.345 51.04 104.817 51.112C105.345 51.2 105.777 51.296 106.113 51.4C106.449 51.496 106.741 51.676 106.989 51.94C107.237 52.204 107.361 52.572 107.361 53.044C107.361 53.444 107.241 53.8 107.001 54.112C106.761 54.424 106.409 54.668 105.945 54.844C105.489 55.012 104.945 55.096 104.313 55.096ZM108.516 48.544H110.388V55H108.516V48.544ZM109.452 47.644C109.108 47.644 108.828 47.544 108.612 47.344C108.396 47.144 108.288 46.896 108.288 46.6C108.288 46.304 108.396 46.056 108.612 45.856C108.828 45.656 109.108 45.556 109.452 45.556C109.796 45.556 110.076 45.652 110.292 45.844C110.508 46.036 110.616 46.276 110.616 46.564C110.616 46.876 110.508 47.136 110.292 47.344C110.076 47.544 109.796 47.644 109.452 47.644ZM115.198 55.096C114.518 55.096 113.906 54.956 113.362 54.676C112.826 54.388 112.406 53.992 112.102 53.488C111.798 52.984 111.646 52.412 111.646 51.772C111.646 51.132 111.798 50.56 112.102 50.056C112.406 49.552 112.826 49.16 113.362 48.88C113.906 48.592 114.518 48.448 115.198 48.448C115.878 48.448 116.486 48.592 117.022 48.88C117.558 49.16 117.978 49.552 118.282 50.056C118.586 50.56 118.738 51.132 118.738 51.772C118.738 52.412 118.586 52.984 118.282 53.488C117.978 53.992 117.558 54.388 117.022 54.676C116.486 54.956 115.878 55.096 115.198 55.096ZM115.198 53.56C115.678 53.56 116.07 53.4 116.374 53.08C116.686 52.752 116.842 52.316 116.842 51.772C116.842 51.228 116.686 50.796 116.374 50.476C116.07 50.148 115.678 49.984 115.198 49.984C114.718 49.984 114.322 50.148 114.01 50.476C113.698 50.796 113.542 51.228 113.542 51.772C113.542 52.316 113.698 52.752 114.01 53.08C114.322 53.4 114.718 53.56 115.198 53.56ZM123.913 48.448C124.713 48.448 125.357 48.688 125.845 49.168C126.341 49.648 126.589 50.36 126.589 51.304V55H124.717V51.592C124.717 51.08 124.605 50.7 124.381 50.452C124.157 50.196 123.833 50.068 123.409 50.068C122.937 50.068 122.561 50.216 122.281 50.512C122.001 50.8 121.861 51.232 121.861 51.808V55H119.989V48.544H121.777V49.3C122.025 49.028 122.333 48.82 122.701 48.676C123.069 48.524 123.473 48.448 123.913 48.448ZM130.89 48.448C131.89 48.448 132.658 48.688 133.194 49.168C133.73 49.64 133.998 50.356 133.998 51.316V55H132.246V54.196C131.894 54.796 131.238 55.096 130.278 55.096C129.782 55.096 129.35 55.012 128.982 54.844C128.622 54.676 128.346 54.444 128.154 54.148C127.962 53.852 127.866 53.516 127.866 53.14C127.866 52.54 128.09 52.068 128.538 51.724C128.994 51.38 129.694 51.208 130.638 51.208H132.126C132.126 50.8 132.002 50.488 131.754 50.272C131.506 50.048 131.134 49.936 130.638 49.936C130.294 49.936 129.954 49.992 129.618 50.104C129.29 50.208 129.01 50.352 128.778 50.536L128.106 49.228C128.458 48.98 128.878 48.788 129.366 48.652C129.862 48.516 130.37 48.448 130.89 48.448ZM130.746 53.836C131.066 53.836 131.35 53.764 131.598 53.62C131.846 53.468 132.022 53.248 132.126 52.96V52.3H130.842C130.074 52.3 129.69 52.552 129.69 53.056C129.69 53.296 129.782 53.488 129.966 53.632C130.158 53.768 130.418 53.836 130.746 53.836ZM137.48 49.396C137.704 49.084 138.004 48.848 138.38 48.688C138.764 48.528 139.204 48.448 139.7 48.448V50.176C139.492 50.16 139.352 50.152 139.28 50.152C138.744 50.152 138.324 50.304 138.02 50.608C137.716 50.904 137.564 51.352 137.564 51.952V55H135.692V48.544H137.48V49.396ZM144.259 48.544H146.131V55H144.259V48.544ZM145.195 47.644C144.851 47.644 144.571 47.544 144.355 47.344C144.139 47.144 144.031 46.896 144.031 46.6C144.031 46.304 144.139 46.056 144.355 45.856C144.571 45.656 144.851 45.556 145.195 45.556C145.539 45.556 145.819 45.652 146.035 45.844C146.251 46.036 146.359 46.276 146.359 46.564C146.359 46.876 146.251 47.136 146.035 47.344C145.819 47.544 145.539 47.644 145.195 47.644ZM151.792 48.448C152.592 48.448 153.236 48.688 153.724 49.168C154.22 49.648 154.468 50.36 154.468 51.304V55H152.596V51.592C152.596 51.08 152.484 50.7 152.26 50.452C152.036 50.196 151.712 50.068 151.288 50.068C150.816 50.068 150.44 50.216 150.16 50.512C149.88 50.8 149.74 51.232 149.74 51.808V55H147.868V48.544H149.656V49.3C149.904 49.028 150.212 48.82 150.58 48.676C150.948 48.524 151.352 48.448 151.792 48.448ZM156.165 48.544H158.037V55H156.165V48.544ZM157.101 47.644C156.757 47.644 156.477 47.544 156.261 47.344C156.045 47.144 155.937 46.896 155.937 46.6C155.937 46.304 156.045 46.056 156.261 45.856C156.477 45.656 156.757 45.556 157.101 45.556C157.445 45.556 157.725 45.652 157.941 45.844C158.157 46.036 158.265 46.276 158.265 46.564C158.265 46.876 158.157 47.136 157.941 47.344C157.725 47.544 157.445 47.644 157.101 47.644ZM162.894 55.096C162.206 55.096 161.586 54.956 161.034 54.676C160.49 54.388 160.062 53.992 159.75 53.488C159.446 52.984 159.294 52.412 159.294 51.772C159.294 51.132 159.446 50.56 159.75 50.056C160.062 49.552 160.49 49.16 161.034 48.88C161.586 48.592 162.206 48.448 162.894 48.448C163.574 48.448 164.166 48.592 164.67 48.88C165.182 49.16 165.554 49.564 165.786 50.092L164.334 50.872C163.998 50.28 163.514 49.984 162.882 49.984C162.394 49.984 161.99 50.144 161.67 50.464C161.35 50.784 161.19 51.22 161.19 51.772C161.19 52.324 161.35 52.76 161.67 53.08C161.99 53.4 162.394 53.56 162.882 53.56C163.522 53.56 164.006 53.264 164.334 52.672L165.786 53.464C165.554 53.976 165.182 54.376 164.67 54.664C164.166 54.952 163.574 55.096 162.894 55.096ZM166.864 48.544H168.736V55H166.864V48.544ZM167.8 47.644C167.456 47.644 167.176 47.544 166.96 47.344C166.744 47.144 166.636 46.896 166.636 46.6C166.636 46.304 166.744 46.056 166.96 45.856C167.176 45.656 167.456 45.556 167.8 45.556C168.144 45.556 168.424 45.652 168.64 45.844C168.856 46.036 168.964 46.276 168.964 46.564C168.964 46.876 168.856 47.136 168.64 47.344C168.424 47.544 168.144 47.644 167.8 47.644ZM173.077 48.448C174.077 48.448 174.845 48.688 175.381 49.168C175.917 49.64 176.185 50.356 176.185 51.316V55H174.433V54.196C174.081 54.796 173.425 55.096 172.465 55.096C171.969 55.096 171.537 55.012 171.169 54.844C170.809 54.676 170.533 54.444 170.341 54.148C170.149 53.852 170.053 53.516 170.053 53.14C170.053 52.54 170.277 52.068 170.725 51.724C171.181 51.38 171.881 51.208 172.825 51.208H174.313C174.313 50.8 174.189 50.488 173.941 50.272C173.693 50.048 173.321 49.936 172.825 49.936C172.481 49.936 172.141 49.992 171.805 50.104C171.477 50.208 171.197 50.352 170.965 50.536L170.293 49.228C170.645 48.98 171.065 48.788 171.553 48.652C172.049 48.516 172.557 48.448 173.077 48.448ZM172.933 53.836C173.253 53.836 173.537 53.764 173.785 53.62C174.033 53.468 174.209 53.248 174.313 52.96V52.3H173.029C172.261 52.3 171.877 52.552 171.877 53.056C171.877 53.296 171.969 53.488 172.153 53.632C172.345 53.768 172.605 53.836 172.933 53.836ZM179.668 49.396C179.892 49.084 180.192 48.848 180.568 48.688C180.952 48.528 181.392 48.448 181.888 48.448V50.176C181.68 50.16 181.54 50.152 181.468 50.152C180.932 50.152 180.512 50.304 180.208 50.608C179.904 50.904 179.752 51.352 179.752 51.952V55H177.88V48.544H179.668V49.396ZM183.638 55.096C183.31 55.096 183.034 54.984 182.81 54.76C182.586 54.536 182.474 54.256 182.474 53.92C182.474 53.576 182.586 53.3 182.81 53.092C183.034 52.876 183.31 52.768 183.638 52.768C183.966 52.768 184.242 52.876 184.466 53.092C184.69 53.3 184.802 53.576 184.802 53.92C184.802 54.256 184.69 54.536 184.466 54.76C184.242 54.984 183.966 55.096 183.638 55.096Z" fill="#333333"/>
<path fill-rule="evenodd" clip-rule="evenodd" d="M265 127.985C265 117 256 107.993 245 107.993C183.172 107.993 158 108 158 108L150 116H113L104 108H69.1468C58.1468 108 49.1468 117 49.1468 127.992C49.1468 128 49.1468 128.007 49.1468 128.015C49.1468 139 58.1468 148 69.1468 148C85.7098 148 104 148 104 148L113 156H150L158 148H245.147C256 148 265 139 265 128.008C265 128 265 128.5 265 127.985Z" fill="#30DCFF"/>
<path fill-rule="evenodd" clip-rule="evenodd" d="M265 127.989C265 117 256 108 244.853 108C183.025 108 158 108 158 108L150 116H113L104 108H69C58 108 49 117 49 127.989C49 127.996 49 128 49 128H54C54 118 61 113 69 113C83.6641 113 102 113 102 113L111 121H152L160 113H245C254 113 260 119 260 128L265 128V127.989Z" fill="#93EDFF"/>
<path fill-rule="evenodd" clip-rule="evenodd" d="M265 128L260 128C260 136.971 254.197 143 245 143C187.995 143 156 143 156 143L148 151H115L106 143H69C58.4962 143 54 137 54 128.001L49 128V128.011C49 139 58 148 69 148C85.563 148 104 148 104 148L113 156H150L158 148H245C256 148 265 139 265 128Z" fill="#08A0BF"/>
<path d="M67.64 135L67.628 129.96L65.156 134.112H64.28L61.82 130.068V135H59.996V126.6H61.604L64.748 131.82L67.844 126.6H69.44L69.464 135H67.64ZM73.9289 128.448C74.9289 128.448 75.6969 128.688 76.2329 129.168C76.7689 129.64 77.0369 130.356 77.0369 131.316V135H75.2849V134.196C74.9329 134.796 74.2769 135.096 73.3169 135.096C72.8209 135.096 72.3889 135.012 72.0209 134.844C71.6609 134.676 71.3849 134.444 71.1929 134.148C71.0009 133.852 70.9049 133.516 70.9049 133.14C70.9049 132.54 71.1289 132.068 71.5769 131.724C72.0329 131.38 72.7329 131.208 73.6769 131.208H75.1649C75.1649 130.8 75.0409 130.488 74.7929 130.272C74.5449 130.048 74.1729 129.936 73.6769 129.936C73.3329 129.936 72.9929 129.992 72.6569 130.104C72.3289 130.208 72.0489 130.352 71.8169 130.536L71.1449 129.228C71.4969 128.98 71.9169 128.788 72.4049 128.652C72.9009 128.516 73.4089 128.448 73.9289 128.448ZM73.7849 133.836C74.1049 133.836 74.3889 133.764 74.6369 133.62C74.8849 133.468 75.0609 133.248 75.1649 132.96V132.3H73.8809C73.1129 132.3 72.7289 132.552 72.7289 133.056C72.7289 133.296 72.8209 133.488 73.0049 133.632C73.1969 133.768 73.4569 133.836 73.7849 133.836ZM74.6489 125.988H76.6649L74.4929 127.716H73.0289L74.6489 125.988ZM80.9032 135.096C80.3672 135.096 79.8432 135.032 79.3312 134.904C78.8192 134.768 78.4112 134.6 78.1072 134.4L78.7312 133.056C79.0192 133.24 79.3672 133.392 79.7752 133.512C80.1832 133.624 80.5832 133.68 80.9752 133.68C81.7672 133.68 82.1632 133.484 82.1632 133.092C82.1632 132.908 82.0552 132.776 81.8392 132.696C81.6232 132.616 81.2912 132.548 80.8432 132.492C80.3152 132.412 79.8792 132.32 79.5352 132.216C79.1912 132.112 78.8912 131.928 78.6352 131.664C78.3872 131.4 78.2632 131.024 78.2632 130.536C78.2632 130.128 78.3792 129.768 78.6112 129.456C78.8512 129.136 79.1952 128.888 79.6432 128.712C80.0992 128.536 80.6352 128.448 81.2512 128.448C81.7072 128.448 82.1592 128.5 82.6072 128.604C83.0632 128.7 83.4392 128.836 83.7352 129.012L83.1112 130.344C82.5432 130.024 81.9232 129.864 81.2512 129.864C80.8512 129.864 80.5512 129.92 80.3512 130.032C80.1512 130.144 80.0512 130.288 80.0512 130.464C80.0512 130.664 80.1592 130.804 80.3752 130.884C80.5912 130.964 80.9352 131.04 81.4072 131.112C81.9352 131.2 82.3672 131.296 82.7032 131.4C83.0392 131.496 83.3312 131.676 83.5792 131.94C83.8272 132.204 83.9512 132.572 83.9512 133.044C83.9512 133.444 83.8312 133.8 83.5912 134.112C83.3512 134.424 82.9992 134.668 82.5352 134.844C82.0792 135.012 81.5352 135.096 80.9032 135.096Z" fill="#333333"/>
<path fill-rule="evenodd" clip-rule="evenodd" d="M265 207.985C265 197 256 187.993 245 187.993C183.172 187.993 158 188 158 188L150 196H113L104 188H69.1468C58.1468 188 49.1468 197 49.1468 207.992C49.1468 208 49.1468 208.007 49.1468 208.015C49.1468 219 58.1468 228 69.1468 228C85.7098 228 104 228 104 228L113 236H150L158 228H245.147C256 228 265 219 265 208.008C265 208 265 208.5 265 207.985Z" fill="#30DCFF"/>
<path fill-rule="evenodd" clip-rule="evenodd" d="M265 207.989C265 197 256 188 244.853 188C183.025 188 158 188 158 188L150 196H113L104 188H69C58 188 49 197 49 207.989C49 207.996 49 208 49 208H54C54 198 61 193 69 193C83.6641 193 102 193 102 193L111 201H152L160 193H245C254 193 260 199 260 208L265 208V207.989Z" fill="#93EDFF"/>
<path fill-rule="evenodd" clip-rule="evenodd" d="M265 208L260 208C260 216.971 254.197 223 245 223C187.995 223 156 223 156 223L148 231H115L106 223H69C58.4962 223 54 217 54 208.001L49 208V208.011C49 219 58 228 69 228C85.563 228 104 228 104 228L113 236H150L158 228H245C256 228 265 219 265 208Z" fill="#08A0BF"/>
<path d="M67.64 215L67.628 209.96L65.156 214.112H64.28L61.82 210.068V215H59.996V206.6H61.604L64.748 211.82L67.844 206.6H69.44L69.464 215H67.64ZM73.9289 208.448C74.9289 208.448 75.6969 208.688 76.2329 209.168C76.7689 209.64 77.0369 210.356 77.0369 211.316V215H75.2849V214.196C74.9329 214.796 74.2769 215.096 73.3169 215.096C72.8209 215.096 72.3889 215.012 72.0209 214.844C71.6609 214.676 71.3849 214.444 71.1929 214.148C71.0009 213.852 70.9049 213.516 70.9049 213.14C70.9049 212.54 71.1289 212.068 71.5769 211.724C72.0329 211.38 72.7329 211.208 73.6769 211.208H75.1649C75.1649 210.8 75.0409 210.488 74.7929 210.272C74.5449 210.048 74.1729 209.936 73.6769 209.936C73.3329 209.936 72.9929 209.992 72.6569 210.104C72.3289 210.208 72.0489 210.352 71.8169 210.536L71.1449 209.228C71.4969 208.98 71.9169 208.788 72.4049 208.652C72.9009 208.516 73.4089 208.448 73.9289 208.448ZM73.7849 213.836C74.1049 213.836 74.3889 213.764 74.6369 213.62C74.8849 213.468 75.0609 213.248 75.1649 212.96V212.3H73.8809C73.1129 212.3 72.7289 212.552 72.7289 213.056C72.7289 213.296 72.8209 213.488 73.0049 213.632C73.1969 213.768 73.4569 213.836 73.7849 213.836ZM74.6489 205.988H76.6649L74.4929 207.716H73.0289L74.6489 205.988ZM80.9032 215.096C80.3672 215.096 79.8432 215.032 79.3312 214.904C78.8192 214.768 78.4112 214.6 78.1072 214.4L78.7312 213.056C79.0192 213.24 79.3672 213.392 79.7752 213.512C80.1832 213.624 80.5832 213.68 80.9752 213.68C81.7672 213.68 82.1632 213.484 82.1632 213.092C82.1632 212.908 82.0552 212.776 81.8392 212.696C81.6232 212.616 81.2912 212.548 80.8432 212.492C80.3152 212.412 79.8792 212.32 79.5352 212.216C79.1912 212.112 78.8912 211.928 78.6352 211.664C78.3872 211.4 78.2632 211.024 78.2632 210.536C78.2632 210.128 78.3792 209.768 78.6112 209.456C78.8512 209.136 79.1952 208.888 79.6432 208.712C80.0992 208.536 80.6352 208.448 81.2512 208.448C81.7072 208.448 82.1592 208.5 82.6072 208.604C83.0632 208.7 83.4392 208.836 83.7352 209.012L83.1112 210.344C82.5432 210.024 81.9232 209.864 81.2512 209.864C80.8512 209.864 80.5512 209.92 80.3512 210.032C80.1512 210.144 80.0512 210.288 80.0512 210.464C80.0512 210.664 80.1592 210.804 80.3752 210.884C80.5912 210.964 80.9352 211.04 81.4072 211.112C81.9352 211.2 82.3672 211.296 82.7032 211.4C83.0392 211.496 83.3312 211.676 83.5792 211.94C83.8272 212.204 83.9512 212.572 83.9512 213.044C83.9512 213.444 83.8312 213.8 83.5912 214.112C83.3512 214.424 82.9992 214.668 82.5352 214.844C82.0792 215.012 81.5352 215.096 80.9032 215.096Z" fill="#333333"/>
<path fill-rule="evenodd" clip-rule="evenodd" d="M265 167.985C265 157 256 147.993 245 147.993C183.172 147.993 158 148 158 148L150 156H113L104 148H69.1468C58.1468 148 49.1468 157 49.1468 167.992C49.1468 168 49.1468 168.007 49.1468 168.015C49.1468 179 58.1468 188 69.1468 188C85.7098 188 104 188 104 188L113 196H150L158 188H245.147C256 188 265 179 265 168.008C265 168 265 168.5 265 167.985Z" fill="#30DCFF"/>
<path fill-rule="evenodd" clip-rule="evenodd" d="M265 167.989C265 157 256 148 244.853 148C183.025 148 158 148 158 148L150 156H113L104 148H69C58 148 49 157 49 167.989C49 167.996 49 168 49 168H54C54 158 61 153 69 153C83.6641 153 102 153 102 153L111 161H152L160 153H245C254 153 260 159 260 168L265 168V167.989Z" fill="#93EDFF"/>
<path fill-rule="evenodd" clip-rule="evenodd" d="M265 168L260 168C260 176.971 254.197 183 245 183C187.995 183 156 183 156 183L148 191H115L106 183H69C58.4962 183 54 177 54 168.001L49 168V168.011C49 179 58 188 69 188C85.563 188 104 188 104 188L113 196H150L158 188H245C256 188 265 179 265 168Z" fill="#08A0BF"/>
<rect x="64" y="156" width="23" height="23" rx="5" fill="#F2F2F2"/>
<path d="M75.2796 166.756C76.4636 166.756 77.3356 166.992 77.8956 167.464C78.4636 167.936 78.7476 168.568 78.7476 169.36C78.7476 169.872 78.6196 170.34 78.3636 170.764C78.1076 171.18 77.7156 171.516 77.1876 171.772C76.6676 172.02 76.0236 172.144 75.2556 172.144C74.6636 172.144 74.0796 172.068 73.5036 171.916C72.9356 171.756 72.4516 171.532 72.0516 171.244L72.8196 169.756C73.1396 169.996 73.5076 170.184 73.9236 170.32C74.3396 170.448 74.7676 170.512 75.2076 170.512C75.6956 170.512 76.0796 170.416 76.3596 170.224C76.6396 170.032 76.7796 169.764 76.7796 169.42C76.7796 169.06 76.6316 168.788 76.3356 168.604C76.0476 168.42 75.5436 168.328 74.8236 168.328H72.6756L73.1076 163.6H78.2316V165.16H74.7276L74.5956 166.756H75.2796Z" fill="#333333"/>
<path fill-rule="evenodd" clip-rule="evenodd" d="M265 247.985C265 237 256 227.993 245 227.993C183.172 227.993 158 228 158 228L150 236H113L104 228H69.1468C58.1468 228 49.1468 237 49.1468 247.992C49.1468 248 49.1468 248.007 49.1468 248.015C49.1468 259 58.1468 268 69.1468 268C85.7098 268 104 268 104 268L113 276H150L158 268H245.147C256 268 265 259 265 248.008C265 248 265 248.5 265 247.985Z" fill="#30DCFF"/>
<path fill-rule="evenodd" clip-rule="evenodd" d="M265 247.989C265 237 256 228 244.853 228C183.025 228 158 228 158 228L150 236H113L104 228H69C58 228 49 237 49 247.989C49 247.996 49 248 49 248H54C54 238 61 233 69 233C83.6641 233 102 233 102 233L111 241H152L160 233H245C254 233 260 239 260 248L265 248V247.989Z" fill="#93EDFF"/>
<path fill-rule="evenodd" clip-rule="evenodd" d="M265 248L260 248C260 256.971 254.197 263 245 263C187.995 263 156 263 156 263L148 271H115L106 263H69C58.4962 263 54 257 54 248.001L49 248V248.011C49 259 58 268 69 268C85.563 268 104 268 104 268L113 276H150L158 268H245C256 268 265 259 265 248Z" fill="#08A0BF"/>
<rect x="64" y="236" width="23" height="23" rx="5" fill="#F2F2F2"/>
<path d="M75.2796 246.756C76.4636 246.756 77.3356 246.992 77.8956 247.464C78.4636 247.936 78.7476 248.568 78.7476 249.36C78.7476 249.872 78.6196 250.34 78.3636 250.764C78.1076 251.18 77.7156 251.516 77.1876 251.772C76.6676 252.02 76.0236 252.144 75.2556 252.144C74.6636 252.144 74.0796 252.068 73.5036 251.916C72.9356 251.756 72.4516 251.532 72.0516 251.244L72.8196 249.756C73.1396 249.996 73.5076 250.184 73.9236 250.32C74.3396 250.448 74.7676 250.512 75.2076 250.512C75.6956 250.512 76.0796 250.416 76.3596 250.224C76.6396 250.032 76.7796 249.764 76.7796 249.42C76.7796 249.06 76.6316 248.788 76.3356 248.604C76.0476 248.42 75.5436 248.328 74.8236 248.328H72.6756L73.1076 243.6H78.2316V245.16H74.7276L74.5956 246.756H75.2796Z" fill="#333333"/>
<path fill-rule="evenodd" clip-rule="evenodd" d="M265 87.9851C265 77 256 67.9927 245 67.9927C183.172 67.9927 158 68 158 68L150 76.0001H113L104 67.9998H69.1468C58.1468 67.9998 49.1468 77 49.1468 87.9924C49.1468 87.9997 49.1468 88.0072 49.1468 88.0148C49.1468 99 58.1468 108 69.1468 108C85.7098 108 104 108 104 108L113 116H150L158 108H245.147C256 108 265 99 265 88.0076C265 88 265 88.5 265 87.9851Z" fill="#30DCFF"/>
<path fill-rule="evenodd" clip-rule="evenodd" d="M265 87.9888C265 77 256 68 244.853 68C183.025 68 158 68.0001 158 68.0001L150 76H113L104 68.0001H69C58 68.0001 49 77.0001 49 87.9888C49 87.9962 49 88.0001 49 88.0001H54C54 78 61 73.0001 69 73.0001C83.6641 73.0001 102 73 102 73L111 81H152L160 73H245C254 73 260 79 260 87.9998L265 88V87.9888Z" fill="#93EDFF"/>
<path fill-rule="evenodd" clip-rule="evenodd" d="M265 88L260 88C260 96.9711 254.197 103 245 103C187.995 103 156 103 156 103L148 111H115L106 103H69C58.4962 103 54 97 54 88.0015L49 88V88.0112C49 99 58 108 69 108C85.563 108 104 108 104 108L113 116H150L158 108H245C256 108 265 99 265 88Z" fill="#08A0BF"/>
<rect x="64" y="76" width="23" height="23" rx="5" fill="#F2F2F2"/>
<path d="M75.2796 86.756C76.4636 86.756 77.3356 86.992 77.8956 87.464C78.4636 87.936 78.7476 88.568 78.7476 89.36C78.7476 89.872 78.6196 90.34 78.3636 90.764C78.1076 91.18 77.7156 91.516 77.1876 91.772C76.6676 92.02 76.0236 92.144 75.2556 92.144C74.6636 92.144 74.0796 92.068 73.5036 91.916C72.9356 91.756 72.4516 91.532 72.0516 91.244L72.8196 89.756C73.1396 89.996 73.5076 90.184 73.9236 90.32C74.3396 90.448 74.7676 90.512 75.2076 90.512C75.6956 90.512 76.0796 90.416 76.3596 90.224C76.6396 90.032 76.7796 89.764 76.7796 89.42C76.7796 89.06 76.6316 88.788 76.3356 88.604C76.0476 88.42 75.5436 88.328 74.8236 88.328H72.6756L73.1076 83.6H78.2316V85.16H74.7276L74.5956 86.756H75.2796Z" fill="#333333"/>
</g>
<defs>
<filter id="filter0_d_4415_112348" x="0" y="0" width="280" height="284" filterUnits="userSpaceOnUse" color-interpolation-filters="sRGB">
<feFlood flood-opacity="0" result="BackgroundImageFix"/>
<feColorMatrix in="SourceAlpha" type="matrix" values="0 0 0 0 0 0 0 0 0 0 0 0 0 0 0 0 0 0 127 0" result="hardAlpha"/>
<feOffset dy="4"/>
<feColorMatrix type="matrix" values="0 0 0 0 0 0 0 0 0 0 0 0 0 0 0 0 0 0 0.25 0"/>
<feBlend mode="normal" in2="BackgroundImageFix" result="effect1_dropShadow_4415_112348"/>
<feBlend mode="normal" in="SourceGraphic" in2="effect1_dropShadow_4415_112348" result="shape"/>
</filter>
</defs>
</svg>
