<svg width="280" height="284" viewBox="0 0 280 284" fill="none" xmlns="http://www.w3.org/2000/svg">
<g filter="url(#filter0_d_4415_112403)">
<rect id="bg" width="280" height="280" rx="20"/>
<path fill-rule="evenodd" clip-rule="evenodd" d="M265 90.17C265 80.38 257.839 73 248 73C208.917 73 232.045 73 204 73C196.27 73 192.785 70.7635 188.5 66.5C179.193 57.8197 155.783 43 104.427 43C32.0244 43 15 72.6322 15 72.6322C15 72.6322 15.0005 77.0196 15.0007 90.3C15.0007 100.09 23.161 108 33 108C59.4876 108 105 108 105 108L113 116H150L158 108C158 108 192.031 108 247 108C257.733 108 265 100.98 265 91.19C265 89.3223 265 92.0375 265 90.17Z" fill="#FC79FF"/>
<path fill-rule="evenodd" clip-rule="evenodd" d="M260 91.0001C260 99.0001 256 103 247 103L156 103L148 111H115L106 103C106 103 58.3933 103 33 103C24.9643 103 20 98 20 91H15C15 100.625 23.1786 108 33 108C59.4408 108 104 108 104 108L113.027 116H150L158 108L247 108C258.607 108 265 102.375 265 91.0001C263.5 91.0001 262 91 260 91.0001Z" fill="#CD5ACF"/>
<path fill-rule="evenodd" clip-rule="evenodd" d="M14.9999 91H19.9999V74C19.9999 74 34.9929 48 104.286 48C151.342 48 175.557 61.6452 185.5 70C190.292 74.0301 196.712 77.9521 203 78C211.5 78 232.5 78 248.036 78C256 78 260 83.5 260 90V91H265V90.3058C265 80.4876 257.857 73 248.036 73C209.029 73 231.008 73 203 73C197.281 72.9998 192.169 70.1595 188.214 66.2066C178.936 57.4998 155.571 43 104.268 43C31.9102 43 15.0006 72.4545 15.0006 72.4545L14.9999 91Z" fill="#FDACFF"/>
<path d="M30.016 95.144C29.16 95.144 28.384 94.96 27.688 94.592C27 94.216 26.456 93.7 26.056 93.044C25.664 92.38 25.468 91.632 25.468 90.8C25.468 89.968 25.664 89.224 26.056 88.568C26.456 87.904 27 87.388 27.688 87.02C28.384 86.644 29.164 86.456 30.028 86.456C30.756 86.456 31.412 86.584 31.996 86.84C32.588 87.096 33.084 87.464 33.484 87.944L32.236 89.096C31.668 88.44 30.964 88.112 30.124 88.112C29.604 88.112 29.14 88.228 28.732 88.46C28.324 88.684 28.004 89 27.772 89.408C27.548 89.816 27.436 90.28 27.436 90.8C27.436 91.32 27.548 91.784 27.772 92.192C28.004 92.6 28.324 92.92 28.732 93.152C29.14 93.376 29.604 93.488 30.124 93.488C30.964 93.488 31.668 93.156 32.236 92.492L33.484 93.644C33.084 94.132 32.588 94.504 31.996 94.76C31.404 95.016 30.744 95.144 30.016 95.144ZM41.0047 88.544V95H39.2287V94.232C38.9807 94.512 38.6847 94.728 38.3407 94.88C37.9967 95.024 37.6247 95.096 37.2247 95.096C36.3767 95.096 35.7047 94.852 35.2087 94.364C34.7127 93.876 34.4647 93.152 34.4647 92.192V88.544H36.3367V91.916C36.3367 92.956 36.7727 93.476 37.6447 93.476C38.0927 93.476 38.4527 93.332 38.7247 93.044C38.9967 92.748 39.1327 92.312 39.1327 91.736V88.544H41.0047ZM45.343 88.448C46.343 88.448 47.111 88.688 47.647 89.168C48.183 89.64 48.451 90.356 48.451 91.316V95H46.699V94.196C46.347 94.796 45.691 95.096 44.731 95.096C44.235 95.096 43.803 95.012 43.435 94.844C43.075 94.676 42.799 94.444 42.607 94.148C42.415 93.852 42.319 93.516 42.319 93.14C42.319 92.54 42.543 92.068 42.991 91.724C43.447 91.38 44.147 91.208 45.091 91.208H46.579C46.579 90.8 46.455 90.488 46.207 90.272C45.959 90.048 45.587 89.936 45.091 89.936C44.747 89.936 44.407 89.992 44.071 90.104C43.743 90.208 43.463 90.352 43.231 90.536L42.559 89.228C42.911 88.98 43.331 88.788 43.819 88.652C44.315 88.516 44.823 88.448 45.343 88.448ZM45.199 93.836C45.519 93.836 45.803 93.764 46.051 93.62C46.299 93.468 46.475 93.248 46.579 92.96V92.3H45.295C44.527 92.3 44.143 92.552 44.143 93.056C44.143 93.296 44.235 93.488 44.419 93.632C44.611 93.768 44.871 93.836 45.199 93.836ZM54.0693 88.448C54.8693 88.448 55.5133 88.688 56.0013 89.168C56.4973 89.648 56.7453 90.36 56.7453 91.304V95H54.8733V91.592C54.8733 91.08 54.7613 90.7 54.5373 90.452C54.3133 90.196 53.9893 90.068 53.5653 90.068C53.0933 90.068 52.7173 90.216 52.4373 90.512C52.1573 90.8 52.0173 91.232 52.0173 91.808V95H50.1453V88.544H51.9333V89.3C52.1813 89.028 52.4893 88.82 52.8573 88.676C53.2253 88.524 53.6293 88.448 54.0693 88.448ZM65.0884 86.096V95H63.3004V94.256C62.8364 94.816 62.1644 95.096 61.2844 95.096C60.6764 95.096 60.1244 94.96 59.6284 94.688C59.1404 94.416 58.7564 94.028 58.4764 93.524C58.1964 93.02 58.0564 92.436 58.0564 91.772C58.0564 91.108 58.1964 90.524 58.4764 90.02C58.7564 89.516 59.1404 89.128 59.6284 88.856C60.1244 88.584 60.6764 88.448 61.2844 88.448C62.1084 88.448 62.7524 88.708 63.2164 89.228V86.096H65.0884ZM61.6084 93.56C62.0804 93.56 62.4724 93.4 62.7844 93.08C63.0964 92.752 63.2524 92.316 63.2524 91.772C63.2524 91.228 63.0964 90.796 62.7844 90.476C62.4724 90.148 62.0804 89.984 61.6084 89.984C61.1284 89.984 60.7324 90.148 60.4204 90.476C60.1084 90.796 59.9524 91.228 59.9524 91.772C59.9524 92.316 60.1084 92.752 60.4204 93.08C60.7324 93.4 61.1284 93.56 61.6084 93.56ZM69.893 95.096C69.213 95.096 68.601 94.956 68.057 94.676C67.521 94.388 67.101 93.992 66.797 93.488C66.493 92.984 66.341 92.412 66.341 91.772C66.341 91.132 66.493 90.56 66.797 90.056C67.101 89.552 67.521 89.16 68.057 88.88C68.601 88.592 69.213 88.448 69.893 88.448C70.573 88.448 71.181 88.592 71.717 88.88C72.253 89.16 72.673 89.552 72.977 90.056C73.281 90.56 73.433 91.132 73.433 91.772C73.433 92.412 73.281 92.984 72.977 93.488C72.673 93.992 72.253 94.388 71.717 94.676C71.181 94.956 70.573 95.096 69.893 95.096ZM69.893 93.56C70.373 93.56 70.765 93.4 71.069 93.08C71.381 92.752 71.537 92.316 71.537 91.772C71.537 91.228 71.381 90.796 71.069 90.476C70.765 90.148 70.373 89.984 69.893 89.984C69.413 89.984 69.017 90.148 68.705 90.476C68.393 90.796 68.237 91.228 68.237 91.772C68.237 92.316 68.393 92.752 68.705 93.08C69.017 93.4 69.413 93.56 69.893 93.56ZM75.3923 90.788C75.0643 90.788 74.7883 90.676 74.5643 90.452C74.3403 90.228 74.2283 89.948 74.2283 89.612C74.2283 89.268 74.3403 88.992 74.5643 88.784C74.7883 88.568 75.0643 88.46 75.3923 88.46C75.7203 88.46 75.9963 88.568 76.2203 88.784C76.4443 88.992 76.5563 89.268 76.5563 89.612C76.5563 89.948 76.4443 90.228 76.2203 90.452C75.9963 90.676 75.7203 90.788 75.3923 90.788ZM75.3923 95.096C75.0643 95.096 74.7883 94.984 74.5643 94.76C74.3403 94.536 74.2283 94.256 74.2283 93.92C74.2283 93.576 74.3403 93.3 74.5643 93.092C74.7883 92.876 75.0643 92.768 75.3923 92.768C75.7203 92.768 75.9963 92.876 76.2203 93.092C76.4443 93.3 76.5563 93.576 76.5563 93.92C76.5563 94.256 76.4443 94.536 76.2203 94.76C75.9963 94.984 75.7203 95.096 75.3923 95.096ZM85.0394 88.448C85.6394 88.448 86.1834 88.588 86.6714 88.868C87.1674 89.14 87.5554 89.528 87.8354 90.032C88.1154 90.528 88.2554 91.108 88.2554 91.772C88.2554 92.436 88.1154 93.02 87.8354 93.524C87.5554 94.02 87.1674 94.408 86.6714 94.688C86.1834 94.96 85.6394 95.096 85.0394 95.096C84.2154 95.096 83.5674 94.836 83.0954 94.316V97.328H81.2234V88.544H83.0114V89.288C83.4754 88.728 84.1514 88.448 85.0394 88.448ZM84.7154 93.56C85.1954 93.56 85.5874 93.4 85.8914 93.08C86.2034 92.752 86.3594 92.316 86.3594 91.772C86.3594 91.228 86.2034 90.796 85.8914 90.476C85.5874 90.148 85.1954 89.984 84.7154 89.984C84.2354 89.984 83.8394 90.148 83.5274 90.476C83.2234 90.796 83.0714 91.228 83.0714 91.772C83.0714 92.316 83.2234 92.752 83.5274 93.08C83.8394 93.4 84.2354 93.56 84.7154 93.56ZM91.2965 89.396C91.5205 89.084 91.8205 88.848 92.1965 88.688C92.5805 88.528 93.0205 88.448 93.5165 88.448V90.176C93.3085 90.16 93.1685 90.152 93.0965 90.152C92.5605 90.152 92.1405 90.304 91.8365 90.608C91.5325 90.904 91.3805 91.352 91.3805 91.952V95H89.5085V88.544H91.2965V89.396ZM100.895 91.796C100.895 91.82 100.883 91.988 100.859 92.3H95.975C96.063 92.7 96.271 93.016 96.599 93.248C96.927 93.48 97.335 93.596 97.823 93.596C98.159 93.596 98.455 93.548 98.711 93.452C98.975 93.348 99.219 93.188 99.443 92.972L100.439 94.052C99.831 94.748 98.943 95.096 97.775 95.096C97.047 95.096 96.403 94.956 95.843 94.676C95.283 94.388 94.851 93.992 94.547 93.488C94.243 92.984 94.091 92.412 94.091 91.772C94.091 91.14 94.239 90.572 94.535 90.068C94.839 89.556 95.251 89.16 95.771 88.88C96.299 88.592 96.887 88.448 97.535 88.448C98.167 88.448 98.739 88.584 99.251 88.856C99.763 89.128 100.163 89.52 100.451 90.032C100.747 90.536 100.895 91.124 100.895 91.796ZM97.547 89.864C97.123 89.864 96.767 89.984 96.479 90.224C96.191 90.464 96.015 90.792 95.951 91.208H99.131C99.067 90.8 98.891 90.476 98.603 90.236C98.315 89.988 97.963 89.864 97.547 89.864ZM104.313 95.096C103.777 95.096 103.253 95.032 102.741 94.904C102.229 94.768 101.821 94.6 101.517 94.4L102.141 93.056C102.429 93.24 102.777 93.392 103.185 93.512C103.593 93.624 103.993 93.68 104.385 93.68C105.177 93.68 105.573 93.484 105.573 93.092C105.573 92.908 105.465 92.776 105.249 92.696C105.033 92.616 104.701 92.548 104.253 92.492C103.725 92.412 103.289 92.32 102.945 92.216C102.601 92.112 102.301 91.928 102.045 91.664C101.797 91.4 101.673 91.024 101.673 90.536C101.673 90.128 101.789 89.768 102.021 89.456C102.261 89.136 102.605 88.888 103.053 88.712C103.509 88.536 104.045 88.448 104.661 88.448C105.117 88.448 105.569 88.5 106.017 88.604C106.473 88.7 106.849 88.836 107.145 89.012L106.521 90.344C105.953 90.024 105.333 89.864 104.661 89.864C104.261 89.864 103.961 89.92 103.761 90.032C103.561 90.144 103.461 90.288 103.461 90.464C103.461 90.664 103.569 90.804 103.785 90.884C104.001 90.964 104.345 91.04 104.817 91.112C105.345 91.2 105.777 91.296 106.113 91.4C106.449 91.496 106.741 91.676 106.989 91.94C107.237 92.204 107.361 92.572 107.361 93.044C107.361 93.444 107.241 93.8 107.001 94.112C106.761 94.424 106.409 94.668 105.945 94.844C105.489 95.012 104.945 95.096 104.313 95.096ZM108.516 88.544H110.388V95H108.516V88.544ZM109.452 87.644C109.108 87.644 108.828 87.544 108.612 87.344C108.396 87.144 108.288 86.896 108.288 86.6C108.288 86.304 108.396 86.056 108.612 85.856C108.828 85.656 109.108 85.556 109.452 85.556C109.796 85.556 110.076 85.652 110.292 85.844C110.508 86.036 110.616 86.276 110.616 86.564C110.616 86.876 110.508 87.136 110.292 87.344C110.076 87.544 109.796 87.644 109.452 87.644ZM115.198 95.096C114.518 95.096 113.906 94.956 113.362 94.676C112.826 94.388 112.406 93.992 112.102 93.488C111.798 92.984 111.646 92.412 111.646 91.772C111.646 91.132 111.798 90.56 112.102 90.056C112.406 89.552 112.826 89.16 113.362 88.88C113.906 88.592 114.518 88.448 115.198 88.448C115.878 88.448 116.486 88.592 117.022 88.88C117.558 89.16 117.978 89.552 118.282 90.056C118.586 90.56 118.738 91.132 118.738 91.772C118.738 92.412 118.586 92.984 118.282 93.488C117.978 93.992 117.558 94.388 117.022 94.676C116.486 94.956 115.878 95.096 115.198 95.096ZM115.198 93.56C115.678 93.56 116.07 93.4 116.374 93.08C116.686 92.752 116.842 92.316 116.842 91.772C116.842 91.228 116.686 90.796 116.374 90.476C116.07 90.148 115.678 89.984 115.198 89.984C114.718 89.984 114.322 90.148 114.01 90.476C113.698 90.796 113.542 91.228 113.542 91.772C113.542 92.316 113.698 92.752 114.01 93.08C114.322 93.4 114.718 93.56 115.198 93.56ZM123.913 88.448C124.713 88.448 125.357 88.688 125.845 89.168C126.341 89.648 126.589 90.36 126.589 91.304V95H124.717V91.592C124.717 91.08 124.605 90.7 124.381 90.452C124.157 90.196 123.833 90.068 123.409 90.068C122.937 90.068 122.561 90.216 122.281 90.512C122.001 90.8 121.861 91.232 121.861 91.808V95H119.989V88.544H121.777V89.3C122.025 89.028 122.333 88.82 122.701 88.676C123.069 88.524 123.473 88.448 123.913 88.448ZM130.89 88.448C131.89 88.448 132.658 88.688 133.194 89.168C133.73 89.64 133.998 90.356 133.998 91.316V95H132.246V94.196C131.894 94.796 131.238 95.096 130.278 95.096C129.782 95.096 129.35 95.012 128.982 94.844C128.622 94.676 128.346 94.444 128.154 94.148C127.962 93.852 127.866 93.516 127.866 93.14C127.866 92.54 128.09 92.068 128.538 91.724C128.994 91.38 129.694 91.208 130.638 91.208H132.126C132.126 90.8 132.002 90.488 131.754 90.272C131.506 90.048 131.134 89.936 130.638 89.936C130.294 89.936 129.954 89.992 129.618 90.104C129.29 90.208 129.01 90.352 128.778 90.536L128.106 89.228C128.458 88.98 128.878 88.788 129.366 88.652C129.862 88.516 130.37 88.448 130.89 88.448ZM130.746 93.836C131.066 93.836 131.35 93.764 131.598 93.62C131.846 93.468 132.022 93.248 132.126 92.96V92.3H130.842C130.074 92.3 129.69 92.552 129.69 93.056C129.69 93.296 129.782 93.488 129.966 93.632C130.158 93.768 130.418 93.836 130.746 93.836ZM137.48 89.396C137.704 89.084 138.004 88.848 138.38 88.688C138.764 88.528 139.204 88.448 139.7 88.448V90.176C139.492 90.16 139.352 90.152 139.28 90.152C138.744 90.152 138.324 90.304 138.02 90.608C137.716 90.904 137.564 91.352 137.564 91.952V95H135.692V88.544H137.48V89.396ZM144.259 88.544H146.131V95H144.259V88.544ZM145.195 87.644C144.851 87.644 144.571 87.544 144.355 87.344C144.139 87.144 144.031 86.896 144.031 86.6C144.031 86.304 144.139 86.056 144.355 85.856C144.571 85.656 144.851 85.556 145.195 85.556C145.539 85.556 145.819 85.652 146.035 85.844C146.251 86.036 146.359 86.276 146.359 86.564C146.359 86.876 146.251 87.136 146.035 87.344C145.819 87.544 145.539 87.644 145.195 87.644ZM151.792 88.448C152.592 88.448 153.236 88.688 153.724 89.168C154.22 89.648 154.468 90.36 154.468 91.304V95H152.596V91.592C152.596 91.08 152.484 90.7 152.26 90.452C152.036 90.196 151.712 90.068 151.288 90.068C150.816 90.068 150.44 90.216 150.16 90.512C149.88 90.8 149.74 91.232 149.74 91.808V95H147.868V88.544H149.656V89.3C149.904 89.028 150.212 88.82 150.58 88.676C150.948 88.524 151.352 88.448 151.792 88.448ZM156.165 88.544H158.037V95H156.165V88.544ZM157.101 87.644C156.757 87.644 156.477 87.544 156.261 87.344C156.045 87.144 155.937 86.896 155.937 86.6C155.937 86.304 156.045 86.056 156.261 85.856C156.477 85.656 156.757 85.556 157.101 85.556C157.445 85.556 157.725 85.652 157.941 85.844C158.157 86.036 158.265 86.276 158.265 86.564C158.265 86.876 158.157 87.136 157.941 87.344C157.725 87.544 157.445 87.644 157.101 87.644ZM162.894 95.096C162.206 95.096 161.586 94.956 161.034 94.676C160.49 94.388 160.062 93.992 159.75 93.488C159.446 92.984 159.294 92.412 159.294 91.772C159.294 91.132 159.446 90.56 159.75 90.056C160.062 89.552 160.49 89.16 161.034 88.88C161.586 88.592 162.206 88.448 162.894 88.448C163.574 88.448 164.166 88.592 164.67 88.88C165.182 89.16 165.554 89.564 165.786 90.092L164.334 90.872C163.998 90.28 163.514 89.984 162.882 89.984C162.394 89.984 161.99 90.144 161.67 90.464C161.35 90.784 161.19 91.22 161.19 91.772C161.19 92.324 161.35 92.76 161.67 93.08C161.99 93.4 162.394 93.56 162.882 93.56C163.522 93.56 164.006 93.264 164.334 92.672L165.786 93.464C165.554 93.976 165.182 94.376 164.67 94.664C164.166 94.952 163.574 95.096 162.894 95.096ZM166.864 88.544H168.736V95H166.864V88.544ZM167.8 87.644C167.456 87.644 167.176 87.544 166.96 87.344C166.744 87.144 166.636 86.896 166.636 86.6C166.636 86.304 166.744 86.056 166.96 85.856C167.176 85.656 167.456 85.556 167.8 85.556C168.144 85.556 168.424 85.652 168.64 85.844C168.856 86.036 168.964 86.276 168.964 86.564C168.964 86.876 168.856 87.136 168.64 87.344C168.424 87.544 168.144 87.644 167.8 87.644ZM173.077 88.448C174.077 88.448 174.845 88.688 175.381 89.168C175.917 89.64 176.185 90.356 176.185 91.316V95H174.433V94.196C174.081 94.796 173.425 95.096 172.465 95.096C171.969 95.096 171.537 95.012 171.169 94.844C170.809 94.676 170.533 94.444 170.341 94.148C170.149 93.852 170.053 93.516 170.053 93.14C170.053 92.54 170.277 92.068 170.725 91.724C171.181 91.38 171.881 91.208 172.825 91.208H174.313C174.313 90.8 174.189 90.488 173.941 90.272C173.693 90.048 173.321 89.936 172.825 89.936C172.481 89.936 172.141 89.992 171.805 90.104C171.477 90.208 171.197 90.352 170.965 90.536L170.293 89.228C170.645 88.98 171.065 88.788 171.553 88.652C172.049 88.516 172.557 88.448 173.077 88.448ZM172.933 93.836C173.253 93.836 173.537 93.764 173.785 93.62C174.033 93.468 174.209 93.248 174.313 92.96V92.3H173.029C172.261 92.3 171.877 92.552 171.877 93.056C171.877 93.296 171.969 93.488 172.153 93.632C172.345 93.768 172.605 93.836 172.933 93.836ZM179.668 89.396C179.892 89.084 180.192 88.848 180.568 88.688C180.952 88.528 181.392 88.448 181.888 88.448V90.176C181.68 90.16 181.54 90.152 181.468 90.152C180.932 90.152 180.512 90.304 180.208 90.608C179.904 90.904 179.752 91.352 179.752 91.952V95H177.88V88.544H179.668V89.396ZM183.638 95.096C183.31 95.096 183.034 94.984 182.81 94.76C182.586 94.536 182.474 94.256 182.474 93.92C182.474 93.576 182.586 93.3 182.81 93.092C183.034 92.876 183.31 92.768 183.638 92.768C183.966 92.768 184.242 92.876 184.466 93.092C184.69 93.3 184.802 93.576 184.802 93.92C184.802 94.256 184.69 94.536 184.466 94.76C184.242 94.984 183.966 95.096 183.638 95.096Z" fill="#333333"/>
<path fill-rule="evenodd" clip-rule="evenodd" d="M265 167.985C265 157 256 147.993 245 147.993C183.172 147.993 158 148 158 148L150 156H113L104 148H69.1468C58.1468 148 49.1468 157 49.1468 167.992C49.1468 168 49.1468 168.007 49.1468 168.015C49.1468 179 58.1468 188 69.1468 188C85.7098 188 104 188 104 188L113 196H150L158 188H245.147C256 188 265 179 265 168.008C265 168 265 168.5 265 167.985Z" fill="#30DCFF"/>
<path fill-rule="evenodd" clip-rule="evenodd" d="M265 167.989C265 157 256 148 244.853 148C183.025 148 158 148 158 148L150 156H113L104 148H69C58 148 49 157 49 167.989C49 167.996 49 168 49 168H54C54 158 61 153 69 153C83.6641 153 102 153 102 153L111 161H152L160 153H245C254 153 260 159 260 168L265 168V167.989Z" fill="#93EDFF"/>
<path fill-rule="evenodd" clip-rule="evenodd" d="M265 168L260 168C260 176.971 254.197 183 245 183C187.995 183 156 183 156 183L148 191H115L106 183H69C58.4962 183 54 177 54 168.001L49 168V168.011C49 179 58 188 69 188C85.563 188 104 188 104 188L113 196H150L158 188H245C256 188 265 179 265 168Z" fill="#08A0BF"/>
<path d="M67.64 175L67.628 169.96L65.156 174.112H64.28L61.82 170.068V175H59.996V166.6H61.604L64.748 171.82L67.844 166.6H69.44L69.464 175H67.64ZM77.8289 168.544V175H76.0529V174.232C75.8049 174.512 75.5089 174.728 75.1649 174.88C74.8209 175.024 74.4489 175.096 74.0489 175.096C73.2009 175.096 72.5289 174.852 72.0329 174.364C71.5369 173.876 71.2889 173.152 71.2889 172.192V168.544H73.1609V171.916C73.1609 172.956 73.5969 173.476 74.4689 173.476C74.9169 173.476 75.2769 173.332 75.5489 173.044C75.8209 172.748 75.9569 172.312 75.9569 171.736V168.544H77.8289ZM79.5632 166.096H81.4352V175H79.5632V166.096ZM87.8053 174.688C87.6213 174.824 87.3933 174.928 87.1213 175C86.8573 175.064 86.5773 175.096 86.2813 175.096C85.5133 175.096 84.9173 174.9 84.4933 174.508C84.0773 174.116 83.8693 173.54 83.8693 172.78V170.128H82.8733V168.688H83.8693V167.116H85.7413V168.688H87.3493V170.128H85.7413V172.756C85.7413 173.028 85.8093 173.24 85.9453 173.392C86.0893 173.536 86.2893 173.608 86.5453 173.608C86.8413 173.608 87.0933 173.528 87.3013 173.368L87.8053 174.688ZM88.8562 168.544H90.7282V175H88.8562V168.544ZM89.7922 167.644C89.4482 167.644 89.1682 167.544 88.9522 167.344C88.7362 167.144 88.6282 166.896 88.6282 166.6C88.6282 166.304 88.7362 166.056 88.9522 165.856C89.1682 165.656 89.4482 165.556 89.7922 165.556C90.1362 165.556 90.4162 165.652 90.6322 165.844C90.8482 166.036 90.9562 166.276 90.9562 166.564C90.9562 166.876 90.8482 167.136 90.6322 167.344C90.4162 167.544 90.1362 167.644 89.7922 167.644ZM96.2816 168.448C96.8816 168.448 97.4256 168.588 97.9136 168.868C98.4096 169.14 98.7976 169.528 99.0776 170.032C99.3576 170.528 99.4976 171.108 99.4976 171.772C99.4976 172.436 99.3576 173.02 99.0776 173.524C98.7976 174.02 98.4096 174.408 97.9136 174.688C97.4256 174.96 96.8816 175.096 96.2816 175.096C95.4576 175.096 94.8096 174.836 94.3376 174.316V177.328H92.4656V168.544H94.2536V169.288C94.7176 168.728 95.3936 168.448 96.2816 168.448ZM95.9576 173.56C96.4376 173.56 96.8296 173.4 97.1336 173.08C97.4456 172.752 97.6016 172.316 97.6016 171.772C97.6016 171.228 97.4456 170.796 97.1336 170.476C96.8296 170.148 96.4376 169.984 95.9576 169.984C95.4776 169.984 95.0816 170.148 94.7696 170.476C94.4656 170.796 94.3136 171.228 94.3136 171.772C94.3136 172.316 94.4656 172.752 94.7696 173.08C95.0816 173.4 95.4776 173.56 95.9576 173.56ZM100.751 166.096H102.623V175H100.751V166.096ZM104.36 168.544H106.232V175H104.36V168.544ZM105.296 167.644C104.952 167.644 104.672 167.544 104.456 167.344C104.24 167.144 104.132 166.896 104.132 166.6C104.132 166.304 104.24 166.056 104.456 165.856C104.672 165.656 104.952 165.556 105.296 165.556C105.64 165.556 105.92 165.652 106.136 165.844C106.352 166.036 106.46 166.276 106.46 166.564C106.46 166.876 106.352 167.136 106.136 167.344C105.92 167.544 105.64 167.644 105.296 167.644ZM111.089 175.096C110.401 175.096 109.781 174.956 109.229 174.676C108.685 174.388 108.257 173.992 107.945 173.488C107.641 172.984 107.489 172.412 107.489 171.772C107.489 171.132 107.641 170.56 107.945 170.056C108.257 169.552 108.685 169.16 109.229 168.88C109.781 168.592 110.401 168.448 111.089 168.448C111.769 168.448 112.361 168.592 112.865 168.88C113.377 169.16 113.749 169.564 113.981 170.092L112.529 170.872C112.193 170.28 111.709 169.984 111.077 169.984C110.589 169.984 110.185 170.144 109.865 170.464C109.545 170.784 109.385 171.22 109.385 171.772C109.385 172.324 109.545 172.76 109.865 173.08C110.185 173.4 110.589 173.56 111.077 173.56C111.717 173.56 112.201 173.264 112.529 172.672L113.981 173.464C113.749 173.976 113.377 174.376 112.865 174.664C112.361 174.952 111.769 175.096 111.089 175.096ZM117.663 168.448C118.663 168.448 119.431 168.688 119.967 169.168C120.503 169.64 120.771 170.356 120.771 171.316V175H119.019V174.196C118.667 174.796 118.011 175.096 117.051 175.096C116.555 175.096 116.123 175.012 115.755 174.844C115.395 174.676 115.119 174.444 114.927 174.148C114.735 173.852 114.639 173.516 114.639 173.14C114.639 172.54 114.863 172.068 115.311 171.724C115.767 171.38 116.467 171.208 117.411 171.208H118.899C118.899 170.8 118.775 170.488 118.527 170.272C118.279 170.048 117.907 169.936 117.411 169.936C117.067 169.936 116.727 169.992 116.391 170.104C116.063 170.208 115.783 170.352 115.551 170.536L114.879 169.228C115.231 168.98 115.651 168.788 116.139 168.652C116.635 168.516 117.143 168.448 117.663 168.448ZM117.519 173.836C117.839 173.836 118.123 173.764 118.371 173.62C118.619 173.468 118.795 173.248 118.899 172.96V172.3H117.615C116.847 172.3 116.463 172.552 116.463 173.056C116.463 173.296 116.555 173.488 116.739 173.632C116.931 173.768 117.191 173.836 117.519 173.836ZM124.254 169.396C124.478 169.084 124.778 168.848 125.154 168.688C125.538 168.528 125.978 168.448 126.474 168.448V170.176C126.266 170.16 126.126 170.152 126.054 170.152C125.518 170.152 125.098 170.304 124.794 170.608C124.49 170.904 124.338 171.352 124.338 171.952V175H122.466V168.544H124.254V169.396Z" fill="#333333"/>
<path fill-rule="evenodd" clip-rule="evenodd" d="M265 207.985C265 197 256 187.993 245 187.993C183.172 187.993 158 188 158 188L150 196H113L104 188H69.1468C58.1468 188 49.1468 197 49.1468 207.992C49.1468 208 49.1468 208.007 49.1468 208.015C49.1468 219 58.1468 228 69.1468 228C85.7098 228 104 228 104 228L113 236H150L158 228H245.147C256 228 265 219 265 208.008C265 208 265 208.5 265 207.985Z" fill="#30DCFF"/>
<path fill-rule="evenodd" clip-rule="evenodd" d="M265 207.989C265 197 256 188 244.853 188C183.025 188 158 188 158 188L150 196H113L104 188H69C58 188 49 197 49 207.989C49 207.996 49 208 49 208H54C54 198 61 193 69 193C83.6641 193 102 193 102 193L111 201H152L160 193H245C254 193 260 199 260 208L265 208V207.989Z" fill="#93EDFF"/>
<path fill-rule="evenodd" clip-rule="evenodd" d="M265 208L260 208C260 216.971 254.197 223 245 223C187.995 223 156 223 156 223L148 231H115L106 223H69C58.4962 223 54 217 54 208.001L49 208V208.011C49 219 58 228 69 228C85.563 228 104 228 104 228L113 236H150L158 228H245C256 228 265 219 265 208Z" fill="#08A0BF"/>
<rect x="64" y="196" width="23" height="23" rx="5" fill="#F2F2F2"/>
<path d="M72.7861 203.6V212H70.8421V205.16H69.1621V203.6H72.7861ZM77.8453 212.144C77.1493 212.144 76.5293 211.972 75.9853 211.628C75.4413 211.284 75.0133 210.788 74.7013 210.14C74.3973 209.484 74.2453 208.704 74.2453 207.8C74.2453 206.896 74.3973 206.12 74.7013 205.472C75.0133 204.816 75.4413 204.316 75.9853 203.972C76.5293 203.628 77.1493 203.456 77.8453 203.456C78.5413 203.456 79.1613 203.628 79.7053 203.972C80.2493 204.316 80.6733 204.816 80.9773 205.472C81.2893 206.12 81.4453 206.896 81.4453 207.8C81.4453 208.704 81.2893 209.484 80.9773 210.14C80.6733 210.788 80.2493 211.284 79.7053 211.628C79.1613 211.972 78.5413 212.144 77.8453 212.144ZM77.8453 210.5C78.3573 210.5 78.7573 210.28 79.0453 209.84C79.3413 209.4 79.4893 208.72 79.4893 207.8C79.4893 206.88 79.3413 206.2 79.0453 205.76C78.7573 205.32 78.3573 205.1 77.8453 205.1C77.3413 205.1 76.9413 205.32 76.6453 205.76C76.3573 206.2 76.2133 206.88 76.2133 207.8C76.2133 208.72 76.3573 209.4 76.6453 209.84C76.9413 210.28 77.3413 210.5 77.8453 210.5Z" fill="#333333"/>
<path fill-rule="evenodd" clip-rule="evenodd" d="M265 127.985C265 117 256 107.993 245 107.993C183.172 107.993 158 108 158 108L150 116H113L104 108H69.1468C58.1468 108 49.1468 117 49.1468 127.992C49.1468 128 49.1468 128.007 49.1468 128.015C49.1468 139 58.1468 148 69.1468 148C85.7098 148 104 148 104 148L113 156H150L158 148H245.147C256 148 265 139 265 128.008C265 128 265 128.5 265 127.985Z" fill="#30DCFF"/>
<path fill-rule="evenodd" clip-rule="evenodd" d="M265 127.989C265 117 256 108 244.853 108C183.025 108 158 108 158 108L150 116H113L104 108H69C58 108 49 117 49 127.989C49 127.996 49 128 49 128H54C54 118 61 113 69 113C83.6641 113 102 113 102 113L111 121H152L160 113H245C254 113 260 119 260 128L265 128V127.989Z" fill="#93EDFF"/>
<path fill-rule="evenodd" clip-rule="evenodd" d="M265 128L260 128C260 136.971 254.197 143 245 143C187.995 143 156 143 156 143L148 151H115L106 143H69C58.4962 143 54 137 54 128.001L49 128V128.011C49 139 58 148 69 148C85.563 148 104 148 104 148L113 156H150L158 148H245C256 148 265 139 265 128Z" fill="#08A0BF"/>
<rect x="64" y="116" width="23" height="23" rx="5" fill="#F2F2F2"/>
<path d="M73.29 123.6V132H71.346V125.16H69.666V123.6H73.29ZM77.6293 126.756C78.8133 126.756 79.6853 126.992 80.2453 127.464C80.8133 127.936 81.0973 128.568 81.0973 129.36C81.0973 129.872 80.9693 130.34 80.7133 130.764C80.4573 131.18 80.0653 131.516 79.5373 131.772C79.0173 132.02 78.3733 132.144 77.6053 132.144C77.0133 132.144 76.4293 132.068 75.8533 131.916C75.2853 131.756 74.8013 131.532 74.4013 131.244L75.1693 129.756C75.4893 129.996 75.8573 130.184 76.2733 130.32C76.6893 130.448 77.1173 130.512 77.5573 130.512C78.0453 130.512 78.4293 130.416 78.7093 130.224C78.9893 130.032 79.1293 129.764 79.1293 129.42C79.1293 129.06 78.9813 128.788 78.6853 128.604C78.3973 128.42 77.8933 128.328 77.1733 128.328H75.0253L75.4573 123.6H80.5813V125.16H77.0773L76.9453 126.756H77.6293Z" fill="#333333"/>
</g>
<defs>
<filter id="filter0_d_4415_112403" x="0" y="0" width="280" height="284" filterUnits="userSpaceOnUse" color-interpolation-filters="sRGB">
<feFlood flood-opacity="0" result="BackgroundImageFix"/>
<feColorMatrix in="SourceAlpha" type="matrix" values="0 0 0 0 0 0 0 0 0 0 0 0 0 0 0 0 0 0 127 0" result="hardAlpha"/>
<feOffset dy="4"/>
<feColorMatrix type="matrix" values="0 0 0 0 0 0 0 0 0 0 0 0 0 0 0 0 0 0 0.25 0"/>
<feBlend mode="normal" in2="BackgroundImageFix" result="effect1_dropShadow_4415_112403"/>
<feBlend mode="normal" in="SourceGraphic" in2="effect1_dropShadow_4415_112403" result="shape"/>
</filter>
</defs>
</svg>
