<svg width="160" height="160" viewBox="0 0 160 160" fill="none" xmlns="http://www.w3.org/2000/svg">
<path d="M25 17.75C25 12.9175 28.9175 9 33.75 9H105L135 39V140.25C135 145.082 131.082 149 126.25 149H33.75C28.9175 149 25 145.082 25 140.25V17.75Z" fill="#F2F2F2"/>
<path d="M105 30.25V9L135 39H113.75C108.918 39 105 35.0825 105 30.25Z" fill="#BDBDBD"/>
<path d="M89.7562 79.0594C89.7562 83.3832 91.4739 87.53 94.5313 90.5874C97.5888 93.6449 101.736 95.3625 106.059 95.3625C110.383 95.3625 114.53 93.6449 117.587 90.5874C120.645 87.53 122.362 83.3832 122.362 79.0594L106.059 79.0594L89.7562 79.0594Z" fill="#D35230"/>
<path d="M106.059 62.7563C103.918 62.7563 101.798 63.1779 99.8204 63.9973C97.8425 64.8166 96.0452 66.0174 94.5313 67.5313C93.0174 69.0452 91.8166 70.8425 90.9972 72.8204C90.1779 74.7984 89.7562 76.9184 89.7562 79.0594L106.059 79.0594V62.7563Z" fill="#ED6C47"/>
<path d="M107.822 60.9937C109.963 60.9937 112.083 61.4154 114.061 62.2347C116.039 63.0541 117.836 64.2549 119.35 65.7688C120.864 67.2827 122.065 69.0799 122.884 71.0579C123.703 73.0359 124.125 75.1559 124.125 77.2969L107.822 77.2969V60.9937Z" fill="#FF8F6B"/>
<rect x="88.875" y="60.9937" width="4.40625" height="37.0125" fill="#F2F2F2"/>
<rect x="36" y="53.0625" width="52.875" height="52.875" rx="3.525" fill="#C43E1C"/>
<path d="M62.3465 66.5562C64.626 66.5562 66.6117 66.9322 68.3037 67.6842C69.9957 68.4362 71.3 69.5172 72.2165 70.9272C73.133 72.3372 73.5912 73.9822 73.5912 75.8622C73.5912 77.7422 73.133 79.3872 72.2165 80.7972C71.3 82.2072 69.9957 83.2882 68.3037 84.0402C66.6117 84.7922 64.626 85.1682 62.3465 85.1682H58.7862V91.2312H50.4672V66.5562H62.3465ZM61.8177 78.7527C62.9457 78.7527 63.7917 78.506 64.3557 78.0125C64.9197 77.4955 65.2017 76.7787 65.2017 75.8622C65.2017 74.9457 64.9197 74.2407 64.3557 73.7472C63.7917 73.2302 62.9457 72.9717 61.8177 72.9717H58.7862V78.7527H61.8177Z" fill="#F2F2F2"/>
</svg>
