<svg width="160" height="160" viewBox="0 0 160 160" fill="none" xmlns="http://www.w3.org/2000/svg">
<path d="M25 17.75C25 12.9175 28.9175 9 33.75 9H105L135 39V140.25C135 145.082 131.082 149 126.25 149H33.75C28.9175 149 25 145.082 25 140.25V17.75Z" fill="#F2F2F2"/>
<path d="M105 30.25V9L135 39H113.75C108.918 39 105 35.0825 105 30.25Z" fill="#BDBDBD"/>
<path d="M57.396 45H102.604C109.458 45 115 50.6836 115 57.7138V102.286C115 109.316 109.458 115 102.604 115H57.396C50.5415 115 45 109.316 45 102.286V57.7138C45 50.6836 50.5415 45 57.396 45Z" fill="#071F34"/>
<path d="M67.3615 68.6907V78.742C67.7699 78.7717 68.1494 78.8019 68.4989 78.8019H70.0447C71.1822 78.8019 72.3201 78.6224 73.3992 78.2633C74.3322 77.9938 75.149 77.4256 75.7907 76.6779C76.4031 75.9297 76.6948 74.9129 76.6948 73.5964C76.7242 72.6692 76.4908 71.742 76.0241 70.9344C75.5284 70.1565 74.8283 69.5582 73.9826 69.2293C72.903 68.7803 71.7367 68.6007 70.5409 68.6309C69.7825 68.6309 69.1118 68.6309 68.5573 68.6606C67.9743 68.6309 67.5659 68.6606 67.3615 68.6907ZM61.0032 94.0284V63.246C61.0032 63.0368 61.0909 62.9171 61.2949 62.9171C61.7905 62.9171 62.2573 62.9171 62.9285 62.8869C63.6281 62.8573 64.3576 62.8573 65.145 62.8271C65.9324 62.7974 66.7781 62.7974 67.6821 62.7678C68.5867 62.7376 69.4618 62.7376 70.3365 62.7376C72.7285 62.7376 74.7116 63.0368 76.3447 63.6648C77.8033 64.1732 79.1447 65.011 80.2532 66.1177C81.1867 67.0751 81.9157 68.2417 82.3824 69.528C82.8198 70.7846 83.0531 72.0708 83.0531 73.4169C83.0531 75.99 82.4697 78.1135 81.3033 79.7889C80.1365 81.4639 78.5034 82.7205 76.6075 83.4386C74.6244 84.1863 72.4368 84.4553 70.0447 84.4553C69.3446 84.4553 68.8784 84.4553 68.5867 84.4256C68.295 84.396 67.8866 84.396 67.3326 84.396V93.9982C67.3615 94.2079 67.2159 94.3869 67.0114 94.4171H61.3532C61.1198 94.4171 61.0032 94.2974 61.0032 94.0284Z" fill="#55A1D8"/>
<path d="M100.867 77.0434C99.9915 76.5647 99.058 76.2353 98.0667 76.0261C96.9876 75.7868 95.908 75.6375 94.8 75.6375C94.2166 75.6073 93.6037 75.6973 93.0497 75.8466C92.6708 75.9367 92.3496 76.1458 92.1457 76.445C92.0001 76.6844 91.9123 76.9836 91.9123 77.2526C91.9123 77.5221 92.029 77.7911 92.204 78.0305C92.4663 78.3593 92.8164 78.6289 93.1958 78.8381C93.8665 79.1971 94.5666 79.5259 95.2662 79.8251C96.8415 80.3637 98.3579 81.1119 99.7581 82.009C100.721 82.6375 101.508 83.4747 102.062 84.492C102.529 85.4494 102.762 86.4963 102.733 87.5734C102.762 88.9793 102.354 90.3853 101.596 91.5519C100.779 92.7481 99.6414 93.6759 98.329 94.2144C96.8998 94.8425 95.1501 95.1713 93.0497 95.1713C91.7079 95.1713 90.3954 95.0517 89.0829 94.7827C88.0622 94.6031 87.0415 94.2738 86.108 93.8252C85.904 93.7056 85.7579 93.4964 85.7873 93.257V88.0516C85.7873 87.9621 85.8163 87.8424 85.904 87.7826C85.9913 87.7228 86.0791 87.7529 86.1663 87.8122C87.3037 88.5006 88.5 88.9794 89.783 89.2786C90.8916 89.5772 92.0579 89.7271 93.2247 89.7271C94.3333 89.7271 95.1206 89.5772 95.6457 89.3082C96.1125 89.099 96.4331 88.5901 96.4331 88.0516C96.4331 87.6327 96.1997 87.244 95.733 86.8553C95.2662 86.4661 94.3038 86.0176 92.8747 85.4494C91.3872 84.9109 90.0164 84.1928 88.7329 83.2952C87.8288 82.6375 87.0704 81.7696 86.5164 80.7529C86.0496 79.7955 85.8163 78.7485 85.8457 77.7016C85.8457 76.4148 86.1957 75.1884 86.8375 74.0817C87.5665 72.8849 88.6456 71.928 89.8997 71.3296C91.2705 70.6115 92.9914 70.2827 95.0623 70.2827C96.2581 70.2827 97.4833 70.3722 98.679 70.5517C99.5542 70.6714 100.4 70.9107 101.187 71.2401C101.304 71.2698 101.421 71.3895 101.479 71.5091C101.508 71.6288 101.537 71.7485 101.537 71.8682V76.7442C101.537 76.8639 101.479 76.9836 101.392 77.0434C101.129 77.1032 100.983 77.1032 100.867 77.0434Z" fill="#55A1D8"/>
</svg>
