<svg width="24" height="30" viewBox="0 0 24 30" fill="none" xmlns="http://www.w3.org/2000/svg">
<path d="M0 6C0 4.89543 0.895431 4 2 4V4C3.10457 4 4 4.89543 4 6L4 10C4 11.1046 3.10457 12 2 12V12C0.895431 12 0 11.1046 0 10L0 6Z" fill="#333333"/>
<path d="M0 22C0 20.8954 0.895431 20 2 20V20C3.10457 20 4 20.8954 4 22L4 26C4 27.1046 3.10457 28 2 28V28C0.895431 28 0 27.1046 0 26L0 22Z" fill="#333333"/>
<path d="M20 6C20 4.89543 20.8954 4 22 4V4C23.1046 4 24 4.89543 24 6V10C24 11.1046 23.1046 12 22 12V12C20.8954 12 20 11.1046 20 10V6Z" fill="#333333"/>
<path d="M20 22C20 20.8954 20.8954 20 22 20V20C23.1046 20 24 20.8954 24 22V26C24 27.1046 23.1046 28 22 28V28C20.8954 28 20 27.1046 20 26V22Z" fill="#333333"/>
<path d="M2.60788 6.26456C3.42128 2.60426 6.66778 0 10.4174 0L13.5826 0C17.3322 0 20.5787 2.60426 21.3921 6.26456L21.619 7.28547C21.8722 8.42507 22 9.58896 22 10.7564L22 26C22 28.2091 20.2091 30 18 30L6 30C3.79086 30 2 28.2091 2 26L2 10.7564C2 9.58896 2.12776 8.42507 2.38101 7.28547L2.60788 6.26456Z" fill="#E78CFE"/>
<path d="M4 26.6667C4 25.1939 5.19391 24 6.66667 24L17.3333 24C18.8061 24 20 25.1939 20 26.6667V26.6667C20 27.403 19.403 28 18.6667 28L5.33333 28C4.59695 28 4 27.403 4 26.6667V26.6667Z" fill="#4F4F4F"/>
<path d="M20 13.3333C20 14.8061 18.8061 16 17.3333 16L6.66667 16C5.19391 16 4 14.8061 4 13.3333V13.3333C4 12.597 4.59695 12 5.33333 12L18.6667 12C19.403 12 20 12.597 20 13.3333V13.3333Z" fill="#4F4F4F"/>
<path d="M3.66667 16C4.40305 16 5 16.597 5 17.3333L5 22.6667C5 23.403 4.40305 24 3.66667 24V24C3.29848 24 3 23.7015 3 23.3333L3 16.6667C3 16.2985 3.29848 16 3.66667 16V16Z" fill="#4F4F4F"/>
<path d="M20.3333 24C19.597 24 19 23.403 19 22.6667L19 17.3333C19 16.597 19.597 16 20.3333 16V16C20.7015 16 21 16.2985 21 16.6667L21 23.3333C21 23.7015 20.7015 24 20.3333 24V24Z" fill="#4F4F4F"/>
<rect opacity="0.25" x="6" y="17" width="12" height="6" rx="2" fill="white"/>
<path opacity="0.25" d="M6.54415 3.36754C6.81638 2.55086 7.58066 2 8.44152 2L15.5585 2C16.4193 2 17.1836 2.55086 17.4558 3.36754L19.1225 8.36755C19.5542 9.66261 18.5903 11 17.2251 11L6.77485 11C5.40974 11 4.4458 9.66261 4.87749 8.36754L6.54415 3.36754Z" fill="white"/>
</svg>

