<svg width="40" height="40" viewBox="0 0 40 40" fill="none" xmlns="http://www.w3.org/2000/svg">
<path d="M6.38889 30H13.6111C14.3782 30 15 29.3782 15 28.6111V28.2106C15 27.6647 14.5575 27.2222 14.0116 27.2222C13.5072 27.2222 13.0836 26.8423 13.029 26.3408L11.3853 11.2427C11.3083 10.5356 10.7112 10 10 10C9.28878 10 8.69169 10.5356 8.61471 11.2427L6.97096 26.3408C6.91636 26.8423 6.49285 27.2222 5.98838 27.2222C5.44251 27.2222 5 27.6647 5 28.2106V28.6111C5 29.3782 5.62183 30 6.38889 30Z" fill="#F97D61"/>
<path d="M12.1875 18.8889H7.75L7.5 21.1111H12.4375L12.1875 18.8889Z" fill="white"/>
<path d="M12.8125 24.1111H7.1875L6.9375 26.3333H13.0625L12.8125 24.1111Z" fill="white"/>
<path d="M26.3889 30H33.6111C34.3782 30 35 29.3782 35 28.6111V28.2106C35 27.6647 34.5575 27.2222 34.0116 27.2222C33.5072 27.2222 33.0836 26.8423 33.029 26.3408L31.3853 11.2427C31.3083 10.5356 30.7112 10 30 10C29.2888 10 28.6917 10.5356 28.6147 11.2427L26.971 26.3408C26.9164 26.8423 26.4928 27.2222 25.9884 27.2222C25.4425 27.2222 25 27.6647 25 28.2106V28.6111C25 29.3782 25.6218 30 26.3889 30Z" fill="#F97D61"/>
<path d="M32.1875 18.8889H27.75L27.5 21.1111H32.4375L32.1875 18.8889Z" fill="white"/>
<path d="M32.8125 24.1111H27.1875L26.9375 26.3333H33.0625L32.8125 24.1111Z" fill="white"/>
</svg>
