<svg width="100" height="100" viewBox="0 0 62 45" fill="none" xmlns="http://www.w3.org/2000/svg">
<path fill-rule="evenodd" clip-rule="evenodd" d="M23.0987 12.2016L12.3781 0L11.7593 5.95841L12.3781 13.4692L14.9146 18.2231L23.0987 12.2016ZM38.9048 12.2016L49.6254 0L50.2442 5.95841L49.6254 13.4692L47.0889 18.2231L38.9048 12.2016Z" fill="#E6C786"/>
<path fill-rule="evenodd" clip-rule="evenodd" d="M31.0006 8.91919L37.0411 9.83938L43.0925 13.6422L47.0878 18.2418L49.6243 25.3662L31.0006 29.8707L12.377 25.3662L14.9135 18.2418L18.9088 13.6422L24.9601 9.83938L31.0006 8.91919Z" fill="#E55636"/>
<path fill-rule="evenodd" clip-rule="evenodd" d="M24.9601 9.82075L20.4112 5.21522L12.377 0L15.1429 6.54938L15.9693 12.1196L17.428 17.704L21.6889 15.7309L24.4988 12.4052L24.9601 9.82075ZM37.0411 9.82075L41.59 5.21522L49.6243 0L46.8585 6.54938L46.0321 12.1196L44.5734 17.704L40.3125 15.7309L37.5025 12.4052L37.0411 9.82075Z" fill="#99250C"/>
<path fill-rule="evenodd" clip-rule="evenodd" d="M20.9895 37.749L12.2003 35.3808L0 35.007L6.59893 28.6355L12.3755 25.3276L22.58 27.5169L27.0528 24.813L30.9991 23.6254L34.9456 24.813L39.4184 27.5169L49.6228 25.3276L55.3993 28.6355L61.9984 35.007L49.7981 35.3808L41.0089 37.749L30.9991 41.8204L20.9895 37.749Z" fill="#E9D6B6"/>
<path fill-rule="evenodd" clip-rule="evenodd" d="M26.8779 43.8123L24.3508 40.7195L19.6921 38.2745L9.88073 35.8264L0 35.0178L9.65404 33.8719L20.9463 35.4948L27.6795 39.1749L30.9991 39.7148L34.3188 39.1749L41.052 35.4948L52.3443 33.8719L61.9984 35.0178L52.1177 35.8264L42.3063 38.2745L37.6475 40.7195L35.1203 43.8123L30.9991 44.9999L26.8779 43.8123Z" fill="#E6C786"/>
<path fill-rule="evenodd" clip-rule="evenodd" d="M30.9984 28.2441L34.0415 28.2998L36.3366 29.3317L37.4291 31.081L36.3653 33.4832L33.8227 33.8549L30.9984 33.1332L28.174 33.8549L25.6316 33.4832L24.5677 31.081L25.6603 29.3317L27.9553 28.2998L30.9984 28.2441Z" fill="black"/>
</svg>
