<svg width="180" height="180" viewBox="0 0 180 180" fill="none" xmlns="http://www.w3.org/2000/svg">
<g clip-path="url(#clip0_14_2709)">
<rect width="180" height="180" rx="20" fill="#F2F2F2"/>
<g clip-path="url(#clip1_14_2709)">
<path d="M0 30L-1.31134e-06 0L30 -1.31134e-06L30 10C30 21.0457 21.0457 30 10 30L0 30Z" fill="#333333"/>
<path d="M16.8112 9.8V21H14.2192V11.88H11.9792V9.8H16.8112Z" fill="#F2F2F2"/>
</g>
<path d="M22.1077 137V128.6H25.6477C26.5437 128.6 27.3317 128.776 28.0117 129.128C28.6997 129.48 29.2317 129.972 29.6077 130.604C29.9917 131.236 30.1837 131.968 30.1837 132.8C30.1837 133.632 29.9917 134.364 29.6077 134.996C29.2317 135.628 28.6997 136.12 28.0117 136.472C27.3317 136.824 26.5437 137 25.6477 137H22.1077ZM23.3077 135.956H25.5757C26.2717 135.956 26.8717 135.824 27.3757 135.56C27.8877 135.296 28.2837 134.928 28.5637 134.456C28.8437 133.976 28.9837 133.424 28.9837 132.8C28.9837 132.168 28.8437 131.616 28.5637 131.144C28.2837 130.672 27.8877 130.304 27.3757 130.04C26.8717 129.776 26.2717 129.644 25.5757 129.644H23.3077V135.956ZM34.5777 137.072C33.9377 137.072 33.3697 136.932 32.8737 136.652C32.3777 136.372 31.9857 135.988 31.6977 135.5C31.4097 135.004 31.2657 134.444 31.2657 133.82C31.2657 133.188 31.4097 132.628 31.6977 132.14C31.9857 131.652 32.3777 131.272 32.8737 131C33.3697 130.72 33.9377 130.58 34.5777 130.58C35.2097 130.58 35.7737 130.72 36.2697 131C36.7737 131.272 37.1657 131.652 37.4457 132.14C37.7337 132.62 37.8777 133.18 37.8777 133.82C37.8777 134.452 37.7337 135.012 37.4457 135.5C37.1657 135.988 36.7737 136.372 36.2697 136.652C35.7737 136.932 35.2097 137.072 34.5777 137.072ZM34.5777 136.064C34.9857 136.064 35.3497 135.972 35.6697 135.788C35.9977 135.604 36.2537 135.344 36.4377 135.008C36.6217 134.664 36.7137 134.268 36.7137 133.82C36.7137 133.364 36.6217 132.972 36.4377 132.644C36.2537 132.308 35.9977 132.048 35.6697 131.864C35.3497 131.68 34.9857 131.588 34.5777 131.588C34.1697 131.588 33.8057 131.68 33.4857 131.864C33.1657 132.048 32.9097 132.308 32.7177 132.644C32.5257 132.972 32.4297 133.364 32.4297 133.82C32.4297 134.268 32.5257 134.664 32.7177 135.008C32.9097 135.344 33.1657 135.604 33.4857 135.788C33.8057 135.972 34.1697 136.064 34.5777 136.064ZM42.8429 137.072C42.2989 137.072 41.8069 136.952 41.3669 136.712C40.9349 136.464 40.5909 136.1 40.3349 135.62C40.0869 135.14 39.9629 134.54 39.9629 133.82C39.9629 133.1 40.0909 132.5 40.3469 132.02C40.6109 131.54 40.9589 131.18 41.3909 130.94C41.8309 130.7 42.3149 130.58 42.8429 130.58C43.4669 130.58 44.0189 130.716 44.4989 130.988C44.9789 131.26 45.3589 131.64 45.6389 132.128C45.9189 132.608 46.0589 133.172 46.0589 133.82C46.0589 134.468 45.9189 135.036 45.6389 135.524C45.3589 136.012 44.9789 136.392 44.4989 136.664C44.0189 136.936 43.4669 137.072 42.8429 137.072ZM39.4709 137V128.096H40.6229V132.332L40.5029 133.808L40.5749 135.284V137H39.4709ZM42.7469 136.064C43.1549 136.064 43.5189 135.972 43.8389 135.788C44.1669 135.604 44.4229 135.344 44.6069 135.008C44.7989 134.664 44.8949 134.268 44.8949 133.82C44.8949 133.364 44.7989 132.972 44.6069 132.644C44.4229 132.308 44.1669 132.048 43.8389 131.864C43.5189 131.68 43.1549 131.588 42.7469 131.588C42.3469 131.588 41.9829 131.68 41.6549 131.864C41.3349 132.048 41.0789 132.308 40.8869 132.644C40.7029 132.972 40.6109 133.364 40.6109 133.82C40.6109 134.268 40.7029 134.664 40.8869 135.008C41.0789 135.344 41.3349 135.604 41.6549 135.788C41.9829 135.972 42.3469 136.064 42.7469 136.064ZM47.6506 137V130.64H48.7546V132.368L48.6466 131.936C48.8226 131.496 49.1186 131.16 49.5346 130.928C49.9506 130.696 50.4626 130.58 51.0706 130.58V131.696C51.0226 131.688 50.9746 131.684 50.9266 131.684C50.8866 131.684 50.8466 131.684 50.8066 131.684C50.1906 131.684 49.7026 131.868 49.3426 132.236C48.9826 132.604 48.8026 133.136 48.8026 133.832V137H47.6506ZM55.2638 137.072C54.5838 137.072 53.9838 136.932 53.4638 136.652C52.9518 136.372 52.5518 135.988 52.2638 135.5C51.9838 135.012 51.8438 134.452 51.8438 133.82C51.8438 133.188 51.9798 132.628 52.2518 132.14C52.5318 131.652 52.9118 131.272 53.3918 131C53.8798 130.72 54.4278 130.58 55.0358 130.58C55.6518 130.58 56.1958 130.716 56.6678 130.988C57.1398 131.26 57.5078 131.644 57.7718 132.14C58.0438 132.628 58.1798 133.2 58.1798 133.856C58.1798 133.904 58.1758 133.96 58.1678 134.024C58.1678 134.088 58.1638 134.148 58.1558 134.204H52.7438V133.376H57.5558L57.0878 133.664C57.0958 133.256 57.0118 132.892 56.8358 132.572C56.6598 132.252 56.4158 132.004 56.1038 131.828C55.7998 131.644 55.4438 131.552 55.0358 131.552C54.6358 131.552 54.2798 131.644 53.9678 131.828C53.6558 132.004 53.4118 132.256 53.2358 132.584C53.0598 132.904 52.9718 133.272 52.9718 133.688V133.88C52.9718 134.304 53.0678 134.684 53.2598 135.02C53.4598 135.348 53.7358 135.604 54.0878 135.788C54.4398 135.972 54.8438 136.064 55.2998 136.064C55.6758 136.064 56.0158 136 56.3198 135.872C56.6318 135.744 56.9038 135.552 57.1358 135.296L57.7718 136.04C57.4838 136.376 57.1238 136.632 56.6918 136.808C56.2678 136.984 55.7918 137.072 55.2638 137.072ZM65.7262 137.072C65.0862 137.072 64.5182 136.932 64.0222 136.652C63.5262 136.372 63.1342 135.988 62.8462 135.5C62.5582 135.004 62.4142 134.444 62.4142 133.82C62.4142 133.188 62.5582 132.628 62.8462 132.14C63.1342 131.652 63.5262 131.272 64.0222 131C64.5182 130.72 65.0862 130.58 65.7262 130.58C66.3582 130.58 66.9222 130.72 67.4182 131C67.9222 131.272 68.3142 131.652 68.5942 132.14C68.8822 132.62 69.0262 133.18 69.0262 133.82C69.0262 134.452 68.8822 135.012 68.5942 135.5C68.3142 135.988 67.9222 136.372 67.4182 136.652C66.9222 136.932 66.3582 137.072 65.7262 137.072ZM65.7262 136.064C66.1342 136.064 66.4982 135.972 66.8182 135.788C67.1462 135.604 67.4022 135.344 67.5862 135.008C67.7702 134.664 67.8622 134.268 67.8622 133.82C67.8622 133.364 67.7702 132.972 67.5862 132.644C67.4022 132.308 67.1462 132.048 66.8182 131.864C66.4982 131.68 66.1342 131.588 65.7262 131.588C65.3182 131.588 64.9542 131.68 64.6342 131.864C64.3142 132.048 64.0582 132.308 63.8662 132.644C63.6742 132.972 63.5782 133.364 63.5782 133.82C63.5782 134.268 63.6742 134.664 63.8662 135.008C64.0582 135.344 64.3142 135.604 64.6342 135.788C64.9542 135.972 65.3182 136.064 65.7262 136.064ZM77.214 137.072C76.686 137.072 76.202 136.952 75.762 136.712C75.33 136.464 74.982 136.1 74.718 135.62C74.462 135.14 74.334 134.54 74.334 133.82C74.334 133.1 74.458 132.5 74.706 132.02C74.962 131.54 75.306 131.18 75.738 130.94C76.178 130.7 76.67 130.58 77.214 130.58C77.838 130.58 78.39 130.716 78.87 130.988C79.35 131.26 79.73 131.64 80.01 132.128C80.29 132.608 80.43 133.172 80.43 133.82C80.43 134.468 80.29 135.036 80.01 135.524C79.73 136.012 79.35 136.392 78.87 136.664C78.39 136.936 77.838 137.072 77.214 137.072ZM73.842 139.328V130.64H74.946V132.356L74.874 133.832L74.994 135.308V139.328H73.842ZM77.118 136.064C77.526 136.064 77.89 135.972 78.21 135.788C78.538 135.604 78.794 135.344 78.978 135.008C79.17 134.664 79.266 134.268 79.266 133.82C79.266 133.364 79.17 132.972 78.978 132.644C78.794 132.308 78.538 132.048 78.21 131.864C77.89 131.68 77.526 131.588 77.118 131.588C76.718 131.588 76.354 131.68 76.026 131.864C75.706 132.048 75.45 132.308 75.258 132.644C75.074 132.972 74.982 133.364 74.982 133.82C74.982 134.268 75.074 134.664 75.258 135.008C75.45 135.344 75.706 135.604 76.026 135.788C76.354 135.972 76.718 136.064 77.118 136.064ZM85.9111 137V135.656L85.8511 135.404V133.112C85.8511 132.624 85.7071 132.248 85.4191 131.984C85.1391 131.712 84.7151 131.576 84.1471 131.576C83.7711 131.576 83.4031 131.64 83.0431 131.768C82.6831 131.888 82.3791 132.052 82.1311 132.26L81.6511 131.396C81.9791 131.132 82.3711 130.932 82.8271 130.796C83.2911 130.652 83.7751 130.58 84.2791 130.58C85.1511 130.58 85.8231 130.792 86.2951 131.216C86.7671 131.64 87.0031 132.288 87.0031 133.16V137H85.9111ZM83.8231 137.072C83.3511 137.072 82.9351 136.992 82.5751 136.832C82.2231 136.672 81.9511 136.452 81.7591 136.172C81.5671 135.884 81.4711 135.56 81.4711 135.2C81.4711 134.856 81.5511 134.544 81.7111 134.264C81.8791 133.984 82.1471 133.76 82.5151 133.592C82.8911 133.424 83.3951 133.34 84.0271 133.34H86.0431V134.168H84.0751C83.4991 134.168 83.1111 134.264 82.9111 134.456C82.7111 134.648 82.6111 134.88 82.6111 135.152C82.6111 135.464 82.7351 135.716 82.9831 135.908C83.2311 136.092 83.5751 136.184 84.0151 136.184C84.4471 136.184 84.8231 136.088 85.1431 135.896C85.4711 135.704 85.7071 135.424 85.8511 135.056L86.0791 135.848C85.9271 136.224 85.6591 136.524 85.2751 136.748C84.8911 136.964 84.4071 137.072 83.8231 137.072ZM92.507 137.072C91.979 137.072 91.495 136.952 91.055 136.712C90.623 136.464 90.275 136.1 90.011 135.62C89.755 135.14 89.627 134.54 89.627 133.82C89.627 133.1 89.751 132.5 89.999 132.02C90.255 131.54 90.599 131.18 91.031 130.94C91.471 130.7 91.963 130.58 92.507 130.58C93.131 130.58 93.683 130.716 94.163 130.988C94.643 131.26 95.023 131.64 95.303 132.128C95.583 132.608 95.723 133.172 95.723 133.82C95.723 134.468 95.583 135.036 95.303 135.524C95.023 136.012 94.643 136.392 94.163 136.664C93.683 136.936 93.131 137.072 92.507 137.072ZM89.135 139.328V130.64H90.239V132.356L90.167 133.832L90.287 135.308V139.328H89.135ZM92.411 136.064C92.819 136.064 93.183 135.972 93.503 135.788C93.831 135.604 94.087 135.344 94.271 135.008C94.463 134.664 94.559 134.268 94.559 133.82C94.559 133.364 94.463 132.972 94.271 132.644C94.087 132.308 93.831 132.048 93.503 131.864C93.183 131.68 92.819 131.588 92.411 131.588C92.011 131.588 91.647 131.68 91.319 131.864C90.999 132.048 90.743 132.308 90.551 132.644C90.367 132.972 90.275 133.364 90.275 133.82C90.275 134.268 90.367 134.664 90.551 135.008C90.743 135.344 90.999 135.604 91.319 135.788C91.647 135.972 92.011 136.064 92.411 136.064ZM100.147 137.072C99.4667 137.072 98.8667 136.932 98.3467 136.652C97.8347 136.372 97.4347 135.988 97.1467 135.5C96.8667 135.012 96.7267 134.452 96.7267 133.82C96.7267 133.188 96.8627 132.628 97.1347 132.14C97.4147 131.652 97.7947 131.272 98.2747 131C98.7627 130.72 99.3107 130.58 99.9187 130.58C100.535 130.58 101.079 130.716 101.551 130.988C102.023 131.26 102.391 131.644 102.655 132.14C102.927 132.628 103.063 133.2 103.063 133.856C103.063 133.904 103.059 133.96 103.051 134.024C103.051 134.088 103.047 134.148 103.039 134.204H97.6267V133.376H102.439L101.971 133.664C101.979 133.256 101.895 132.892 101.719 132.572C101.543 132.252 101.299 132.004 100.987 131.828C100.683 131.644 100.327 131.552 99.9187 131.552C99.5187 131.552 99.1627 131.644 98.8507 131.828C98.5387 132.004 98.2947 132.256 98.1187 132.584C97.9427 132.904 97.8547 133.272 97.8547 133.688V133.88C97.8547 134.304 97.9507 134.684 98.1427 135.02C98.3427 135.348 98.6187 135.604 98.9707 135.788C99.3227 135.972 99.7267 136.064 100.183 136.064C100.559 136.064 100.899 136 101.203 135.872C101.515 135.744 101.787 135.552 102.019 135.296L102.655 136.04C102.367 136.376 102.007 136.632 101.575 136.808C101.151 136.984 100.675 137.072 100.147 137.072ZM104.662 137V128.096H105.814V137H104.662ZM115.185 137V135.656L115.125 135.404V133.112C115.125 132.624 114.981 132.248 114.693 131.984C114.413 131.712 113.989 131.576 113.421 131.576C113.045 131.576 112.677 131.64 112.317 131.768C111.957 131.888 111.653 132.052 111.405 132.26L110.925 131.396C111.253 131.132 111.645 130.932 112.101 130.796C112.565 130.652 113.049 130.58 113.553 130.58C114.425 130.58 115.097 130.792 115.569 131.216C116.041 131.64 116.277 132.288 116.277 133.16V137H115.185ZM113.097 137.072C112.625 137.072 112.209 136.992 111.849 136.832C111.497 136.672 111.225 136.452 111.033 136.172C110.841 135.884 110.745 135.56 110.745 135.2C110.745 134.856 110.825 134.544 110.985 134.264C111.153 133.984 111.421 133.76 111.789 133.592C112.165 133.424 112.669 133.34 113.301 133.34H115.317V134.168H113.349C112.773 134.168 112.385 134.264 112.185 134.456C111.985 134.648 111.885 134.88 111.885 135.152C111.885 135.464 112.009 135.716 112.257 135.908C112.505 136.092 112.849 136.184 113.289 136.184C113.721 136.184 114.097 136.088 114.417 135.896C114.745 135.704 114.981 135.424 115.125 135.056L115.353 135.848C115.201 136.224 114.933 136.524 114.549 136.748C114.165 136.964 113.681 137.072 113.097 137.072ZM121.132 137.072C120.492 137.072 119.924 136.932 119.428 136.652C118.932 136.372 118.54 135.988 118.252 135.5C117.964 135.004 117.82 134.444 117.82 133.82C117.82 133.188 117.964 132.628 118.252 132.14C118.54 131.652 118.932 131.272 119.428 131C119.924 130.72 120.492 130.58 121.132 130.58C121.764 130.58 122.328 130.72 122.824 131C123.328 131.272 123.72 131.652 124 132.14C124.288 132.62 124.432 133.18 124.432 133.82C124.432 134.452 124.288 135.012 124 135.5C123.72 135.988 123.328 136.372 122.824 136.652C122.328 136.932 121.764 137.072 121.132 137.072ZM121.132 136.064C121.54 136.064 121.904 135.972 122.224 135.788C122.552 135.604 122.808 135.344 122.992 135.008C123.176 134.664 123.268 134.268 123.268 133.82C123.268 133.364 123.176 132.972 122.992 132.644C122.808 132.308 122.552 132.048 122.224 131.864C121.904 131.68 121.54 131.588 121.132 131.588C120.724 131.588 120.36 131.68 120.04 131.864C119.72 132.048 119.464 132.308 119.272 132.644C119.08 132.972 118.984 133.364 118.984 133.82C118.984 134.268 119.08 134.664 119.272 135.008C119.464 135.344 119.72 135.604 120.04 135.788C120.36 135.972 120.724 136.064 121.132 136.064ZM137.204 130.58C137.716 130.58 138.168 130.68 138.56 130.88C138.952 131.08 139.256 131.384 139.472 131.792C139.696 132.2 139.808 132.716 139.808 133.34V137H138.656V133.472C138.656 132.856 138.512 132.392 138.224 132.08C137.936 131.768 137.532 131.612 137.012 131.612C136.628 131.612 136.292 131.692 136.004 131.852C135.716 132.012 135.492 132.248 135.332 132.56C135.18 132.872 135.104 133.26 135.104 133.724V137H133.952V133.472C133.952 132.856 133.808 132.392 133.52 132.08C133.24 131.768 132.836 131.612 132.308 131.612C131.932 131.612 131.6 131.692 131.312 131.852C131.024 132.012 130.8 132.248 130.64 132.56C130.48 132.872 130.4 133.26 130.4 133.724V137H129.248V130.64H130.352V132.332L130.172 131.9C130.372 131.484 130.68 131.16 131.096 130.928C131.512 130.696 131.996 130.58 132.548 130.58C133.156 130.58 133.68 130.732 134.12 131.036C134.56 131.332 134.848 131.784 134.984 132.392L134.516 132.2C134.708 131.712 135.044 131.32 135.524 131.024C136.004 130.728 136.564 130.58 137.204 130.58ZM144.76 137.072C144.08 137.072 143.48 136.932 142.96 136.652C142.448 136.372 142.048 135.988 141.76 135.5C141.48 135.012 141.34 134.452 141.34 133.82C141.34 133.188 141.476 132.628 141.748 132.14C142.028 131.652 142.408 131.272 142.888 131C143.376 130.72 143.924 130.58 144.532 130.58C145.148 130.58 145.692 130.716 146.164 130.988C146.636 131.26 147.004 131.644 147.268 132.14C147.54 132.628 147.676 133.2 147.676 133.856C147.676 133.904 147.672 133.96 147.664 134.024C147.664 134.088 147.66 134.148 147.652 134.204H142.24V133.376H147.052L146.584 133.664C146.592 133.256 146.508 132.892 146.332 132.572C146.156 132.252 145.912 132.004 145.6 131.828C145.296 131.644 144.94 131.552 144.532 131.552C144.132 131.552 143.776 131.644 143.464 131.828C143.152 132.004 142.908 132.256 142.732 132.584C142.556 132.904 142.468 133.272 142.468 133.688V133.88C142.468 134.304 142.564 134.684 142.756 135.02C142.956 135.348 143.232 135.604 143.584 135.788C143.936 135.972 144.34 136.064 144.796 136.064C145.172 136.064 145.512 136 145.816 135.872C146.128 135.744 146.4 135.552 146.632 135.296L147.268 136.04C146.98 136.376 146.62 136.632 146.188 136.808C145.764 136.984 145.288 137.072 144.76 137.072ZM149.276 137V130.64H150.428V137H149.276ZM149.852 129.416C149.628 129.416 149.44 129.344 149.288 129.2C149.144 129.056 149.072 128.88 149.072 128.672C149.072 128.456 149.144 128.276 149.288 128.132C149.44 127.988 149.628 127.916 149.852 127.916C150.076 127.916 150.26 127.988 150.404 128.132C150.556 128.268 150.632 128.44 150.632 128.648C150.632 128.864 150.56 129.048 150.416 129.2C150.272 129.344 150.084 129.416 149.852 129.416ZM155.351 137.072C154.711 137.072 154.143 136.932 153.647 136.652C153.151 136.372 152.759 135.988 152.471 135.5C152.183 135.004 152.039 134.444 152.039 133.82C152.039 133.188 152.183 132.628 152.471 132.14C152.759 131.652 153.151 131.272 153.647 131C154.143 130.72 154.711 130.58 155.351 130.58C155.983 130.58 156.547 130.72 157.043 131C157.547 131.272 157.939 131.652 158.219 132.14C158.507 132.62 158.651 133.18 158.651 133.82C158.651 134.452 158.507 135.012 158.219 135.5C157.939 135.988 157.547 136.372 157.043 136.652C156.547 136.932 155.983 137.072 155.351 137.072ZM155.351 136.064C155.759 136.064 156.123 135.972 156.443 135.788C156.771 135.604 157.027 135.344 157.211 135.008C157.395 134.664 157.487 134.268 157.487 133.82C157.487 133.364 157.395 132.972 157.211 132.644C157.027 132.308 156.771 132.048 156.443 131.864C156.123 131.68 155.759 131.588 155.351 131.588C154.943 131.588 154.579 131.68 154.259 131.864C153.939 132.048 153.683 132.308 153.491 132.644C153.299 132.972 153.203 133.364 153.203 133.82C153.203 134.268 153.299 134.664 153.491 135.008C153.683 135.344 153.939 135.604 154.259 135.788C154.579 135.972 154.943 136.064 155.351 136.064ZM54.9484 152.072C54.4204 152.072 53.9364 151.952 53.4964 151.712C53.0644 151.464 52.7164 151.1 52.4524 150.62C52.1964 150.14 52.0684 149.54 52.0684 148.82C52.0684 148.1 52.1924 147.5 52.4404 147.02C52.6964 146.54 53.0404 146.18 53.4724 145.94C53.9124 145.7 54.4044 145.58 54.9484 145.58C55.5724 145.58 56.1244 145.716 56.6044 145.988C57.0844 146.26 57.4644 146.64 57.7444 147.128C58.0244 147.608 58.1644 148.172 58.1644 148.82C58.1644 149.468 58.0244 150.036 57.7444 150.524C57.4644 151.012 57.0844 151.392 56.6044 151.664C56.1244 151.936 55.5724 152.072 54.9484 152.072ZM51.5764 154.328V145.64H52.6804V147.356L52.6084 148.832L52.7284 150.308V154.328H51.5764ZM54.8524 151.064C55.2604 151.064 55.6244 150.972 55.9444 150.788C56.2724 150.604 56.5284 150.344 56.7124 150.008C56.9044 149.664 57.0004 149.268 57.0004 148.82C57.0004 148.364 56.9044 147.972 56.7124 147.644C56.5284 147.308 56.2724 147.048 55.9444 146.864C55.6244 146.68 55.2604 146.588 54.8524 146.588C54.4524 146.588 54.0884 146.68 53.7604 146.864C53.4404 147.048 53.1844 147.308 52.9924 147.644C52.8084 147.972 52.7164 148.364 52.7164 148.82C52.7164 149.268 52.8084 149.664 52.9924 150.008C53.1844 150.344 53.4404 150.604 53.7604 150.788C54.0884 150.972 54.4524 151.064 54.8524 151.064ZM62.5881 152.072C61.9081 152.072 61.3081 151.932 60.7881 151.652C60.2761 151.372 59.8761 150.988 59.5881 150.5C59.3081 150.012 59.1681 149.452 59.1681 148.82C59.1681 148.188 59.3041 147.628 59.5761 147.14C59.8561 146.652 60.2361 146.272 60.7161 146C61.2041 145.72 61.7521 145.58 62.3601 145.58C62.9761 145.58 63.5201 145.716 63.9921 145.988C64.4641 146.26 64.8321 146.644 65.0961 147.14C65.3681 147.628 65.5041 148.2 65.5041 148.856C65.5041 148.904 65.5001 148.96 65.4921 149.024C65.4921 149.088 65.4881 149.148 65.4801 149.204H60.0681V148.376H64.8801L64.4121 148.664C64.4201 148.256 64.3361 147.892 64.1601 147.572C63.9841 147.252 63.7401 147.004 63.4281 146.828C63.1241 146.644 62.7681 146.552 62.3601 146.552C61.9601 146.552 61.6041 146.644 61.2921 146.828C60.9801 147.004 60.7361 147.256 60.5601 147.584C60.3841 147.904 60.2961 148.272 60.2961 148.688V148.88C60.2961 149.304 60.3921 149.684 60.5841 150.02C60.7841 150.348 61.0601 150.604 61.4121 150.788C61.7641 150.972 62.1681 151.064 62.6241 151.064C63.0001 151.064 63.3401 151 63.6441 150.872C63.9561 150.744 64.2281 150.552 64.4601 150.296L65.0961 151.04C64.8081 151.376 64.4481 151.632 64.0161 151.808C63.5921 151.984 63.1161 152.072 62.5881 152.072ZM67.1037 152V143.096H68.2557V152H67.1037ZM73.1793 152.072C72.5393 152.072 71.9713 151.932 71.4753 151.652C70.9793 151.372 70.5873 150.988 70.2993 150.5C70.0113 150.004 69.8673 149.444 69.8673 148.82C69.8673 148.188 70.0113 147.628 70.2993 147.14C70.5873 146.652 70.9793 146.272 71.4753 146C71.9713 145.72 72.5393 145.58 73.1793 145.58C73.8113 145.58 74.3753 145.72 74.8713 146C75.3753 146.272 75.7673 146.652 76.0473 147.14C76.3353 147.62 76.4793 148.18 76.4793 148.82C76.4793 149.452 76.3353 150.012 76.0473 150.5C75.7673 150.988 75.3753 151.372 74.8713 151.652C74.3753 151.932 73.8113 152.072 73.1793 152.072ZM73.1793 151.064C73.5873 151.064 73.9513 150.972 74.2713 150.788C74.5993 150.604 74.8553 150.344 75.0393 150.008C75.2233 149.664 75.3153 149.268 75.3153 148.82C75.3153 148.364 75.2233 147.972 75.0393 147.644C74.8553 147.308 74.5993 147.048 74.2713 146.864C73.9513 146.68 73.5873 146.588 73.1793 146.588C72.7713 146.588 72.4073 146.68 72.0873 146.864C71.7673 147.048 71.5113 147.308 71.3193 147.644C71.1273 147.972 71.0313 148.364 71.0313 148.82C71.0313 149.268 71.1273 149.664 71.3193 150.008C71.5113 150.344 71.7673 150.604 72.0873 150.788C72.4073 150.972 72.7713 151.064 73.1793 151.064ZM79.8965 152.072C79.3685 152.072 78.8645 152 78.3845 151.856C77.9125 151.712 77.5405 151.536 77.2685 151.328L77.7485 150.416C78.0205 150.6 78.3565 150.756 78.7565 150.884C79.1565 151.012 79.5645 151.076 79.9805 151.076C80.5165 151.076 80.9005 151 81.1325 150.848C81.3725 150.696 81.4925 150.484 81.4925 150.212C81.4925 150.012 81.4205 149.856 81.2765 149.744C81.1325 149.632 80.9405 149.548 80.7005 149.492C80.4685 149.436 80.2085 149.388 79.9205 149.348C79.6325 149.3 79.3445 149.244 79.0565 149.18C78.7685 149.108 78.5045 149.012 78.2645 148.892C78.0245 148.764 77.8325 148.592 77.6885 148.376C77.5445 148.152 77.4725 147.856 77.4725 147.488C77.4725 147.104 77.5805 146.768 77.7965 146.48C78.0125 146.192 78.3165 145.972 78.7085 145.82C79.1085 145.66 79.5805 145.58 80.1245 145.58C80.5405 145.58 80.9605 145.632 81.3845 145.736C81.8165 145.832 82.1685 145.972 82.4405 146.156L81.9485 147.068C81.6605 146.876 81.3605 146.744 81.0485 146.672C80.7365 146.6 80.4245 146.564 80.1125 146.564C79.6085 146.564 79.2325 146.648 78.9845 146.816C78.7365 146.976 78.6125 147.184 78.6125 147.44C78.6125 147.656 78.6845 147.824 78.8285 147.944C78.9805 148.056 79.1725 148.144 79.4045 148.208C79.6445 148.272 79.9085 148.328 80.1965 148.376C80.4845 148.416 80.7725 148.472 81.0605 148.544C81.3485 148.608 81.6085 148.7 81.8405 148.82C82.0805 148.94 82.2725 149.108 82.4165 149.324C82.5685 149.54 82.6445 149.828 82.6445 150.188C82.6445 150.572 82.5325 150.904 82.3085 151.184C82.0845 151.464 81.7685 151.684 81.3605 151.844C80.9525 151.996 80.4645 152.072 79.8965 152.072ZM90.0788 152.072C89.4308 152.072 88.8508 151.932 88.3388 151.652C87.8348 151.372 87.4388 150.988 87.1508 150.5C86.8628 150.012 86.7188 149.452 86.7188 148.82C86.7188 148.188 86.8628 147.628 87.1508 147.14C87.4388 146.652 87.8348 146.272 88.3388 146C88.8508 145.72 89.4308 145.58 90.0788 145.58C90.6548 145.58 91.1668 145.696 91.6148 145.928C92.0708 146.152 92.4228 146.488 92.6708 146.936L91.7948 147.5C91.5868 147.188 91.3308 146.96 91.0268 146.816C90.7308 146.664 90.4108 146.588 90.0668 146.588C89.6508 146.588 89.2788 146.68 88.9508 146.864C88.6228 147.048 88.3628 147.308 88.1708 147.644C87.9788 147.972 87.8828 148.364 87.8828 148.82C87.8828 149.276 87.9788 149.672 88.1708 150.008C88.3628 150.344 88.6228 150.604 88.9508 150.788C89.2788 150.972 89.6508 151.064 90.0668 151.064C90.4108 151.064 90.7308 150.992 91.0268 150.848C91.3308 150.696 91.5868 150.464 91.7948 150.152L92.6708 150.704C92.4228 151.144 92.0708 151.484 91.6148 151.724C91.1668 151.956 90.6548 152.072 90.0788 152.072ZM98.1103 152V150.656L98.0503 150.404V148.112C98.0503 147.624 97.9063 147.248 97.6183 146.984C97.3383 146.712 96.9143 146.576 96.3463 146.576C95.9703 146.576 95.6023 146.64 95.2423 146.768C94.8823 146.888 94.5783 147.052 94.3303 147.26L93.8503 146.396C94.1783 146.132 94.5703 145.932 95.0263 145.796C95.4903 145.652 95.9743 145.58 96.4783 145.58C97.3503 145.58 98.0223 145.792 98.4943 146.216C98.9663 146.64 99.2023 147.288 99.2023 148.16V152H98.1103ZM96.0223 152.072C95.5503 152.072 95.1343 151.992 94.7743 151.832C94.4223 151.672 94.1503 151.452 93.9583 151.172C93.7663 150.884 93.6703 150.56 93.6703 150.2C93.6703 149.856 93.7503 149.544 93.9103 149.264C94.0783 148.984 94.3463 148.76 94.7143 148.592C95.0903 148.424 95.5943 148.34 96.2263 148.34H98.2423V149.168H96.2743C95.6983 149.168 95.3103 149.264 95.1103 149.456C94.9103 149.648 94.8103 149.88 94.8103 150.152C94.8103 150.464 94.9343 150.716 95.1823 150.908C95.4303 151.092 95.7743 151.184 96.2143 151.184C96.6463 151.184 97.0223 151.088 97.3423 150.896C97.6703 150.704 97.9063 150.424 98.0503 150.056L98.2783 150.848C98.1263 151.224 97.8583 151.524 97.4743 151.748C97.0903 151.964 96.6063 152.072 96.0223 152.072ZM104.73 145.58C105.25 145.58 105.706 145.68 106.098 145.88C106.498 146.08 106.81 146.384 107.034 146.792C107.258 147.2 107.37 147.716 107.37 148.34V152H106.218V148.472C106.218 147.856 106.066 147.392 105.762 147.08C105.466 146.768 105.046 146.612 104.502 146.612C104.094 146.612 103.738 146.692 103.434 146.852C103.13 147.012 102.894 147.248 102.726 147.56C102.566 147.872 102.486 148.26 102.486 148.724V152H101.334V145.64H102.438V147.356L102.258 146.9C102.466 146.484 102.786 146.16 103.218 145.928C103.65 145.696 104.154 145.58 104.73 145.58ZM111.686 152.072C111.046 152.072 110.55 151.9 110.198 151.556C109.846 151.212 109.67 150.72 109.67 150.08V144.248H110.822V150.032C110.822 150.376 110.906 150.64 111.074 150.824C111.25 151.008 111.498 151.1 111.818 151.1C112.178 151.1 112.478 151 112.718 150.8L113.078 151.628C112.902 151.78 112.69 151.892 112.442 151.964C112.202 152.036 111.95 152.072 111.686 152.072ZM108.59 146.588V145.64H112.646V146.588H108.59ZM116.984 152.072C116.344 152.072 115.776 151.932 115.28 151.652C114.784 151.372 114.392 150.988 114.104 150.5C113.816 150.004 113.672 149.444 113.672 148.82C113.672 148.188 113.816 147.628 114.104 147.14C114.392 146.652 114.784 146.272 115.28 146C115.776 145.72 116.344 145.58 116.984 145.58C117.616 145.58 118.18 145.72 118.676 146C119.18 146.272 119.572 146.652 119.852 147.14C120.14 147.62 120.284 148.18 120.284 148.82C120.284 149.452 120.14 150.012 119.852 150.5C119.572 150.988 119.18 151.372 118.676 151.652C118.18 151.932 117.616 152.072 116.984 152.072ZM116.984 151.064C117.392 151.064 117.756 150.972 118.076 150.788C118.404 150.604 118.66 150.344 118.844 150.008C119.028 149.664 119.12 149.268 119.12 148.82C119.12 148.364 119.028 147.972 118.844 147.644C118.66 147.308 118.404 147.048 118.076 146.864C117.756 146.68 117.392 146.588 116.984 146.588C116.576 146.588 116.212 146.68 115.892 146.864C115.572 147.048 115.316 147.308 115.124 147.644C114.932 147.972 114.836 148.364 114.836 148.82C114.836 149.268 114.932 149.664 115.124 150.008C115.316 150.344 115.572 150.604 115.892 150.788C116.212 150.972 116.576 151.064 116.984 151.064ZM123.701 152.072C123.173 152.072 122.669 152 122.189 151.856C121.717 151.712 121.345 151.536 121.073 151.328L121.553 150.416C121.825 150.6 122.161 150.756 122.561 150.884C122.961 151.012 123.369 151.076 123.785 151.076C124.321 151.076 124.705 151 124.937 150.848C125.177 150.696 125.297 150.484 125.297 150.212C125.297 150.012 125.225 149.856 125.081 149.744C124.937 149.632 124.745 149.548 124.505 149.492C124.273 149.436 124.013 149.388 123.725 149.348C123.437 149.3 123.149 149.244 122.861 149.18C122.573 149.108 122.309 149.012 122.069 148.892C121.829 148.764 121.637 148.592 121.493 148.376C121.349 148.152 121.277 147.856 121.277 147.488C121.277 147.104 121.385 146.768 121.601 146.48C121.817 146.192 122.121 145.972 122.513 145.82C122.913 145.66 123.385 145.58 123.929 145.58C124.345 145.58 124.765 145.632 125.189 145.736C125.621 145.832 125.973 145.972 126.245 146.156L125.753 147.068C125.465 146.876 125.165 146.744 124.853 146.672C124.541 146.6 124.229 146.564 123.917 146.564C123.413 146.564 123.037 146.648 122.789 146.816C122.541 146.976 122.417 147.184 122.417 147.44C122.417 147.656 122.489 147.824 122.633 147.944C122.785 148.056 122.977 148.144 123.209 148.208C123.449 148.272 123.713 148.328 124.001 148.376C124.289 148.416 124.577 148.472 124.865 148.544C125.153 148.608 125.413 148.7 125.645 148.82C125.885 148.94 126.077 149.108 126.221 149.324C126.373 149.54 126.449 149.828 126.449 150.188C126.449 150.572 126.337 150.904 126.113 151.184C125.889 151.464 125.573 151.684 125.165 151.844C124.757 151.996 124.269 152.072 123.701 152.072ZM128.165 152.072C127.941 152.072 127.749 151.996 127.589 151.844C127.429 151.684 127.349 151.484 127.349 151.244C127.349 151.004 127.429 150.808 127.589 150.656C127.749 150.504 127.941 150.428 128.165 150.428C128.381 150.428 128.565 150.504 128.717 150.656C128.877 150.808 128.957 151.004 128.957 151.244C128.957 151.484 128.877 151.684 128.717 151.844C128.565 151.996 128.381 152.072 128.165 152.072Z" fill="#008E86"/>
<rect x="44.7314" y="55" width="63.6396" height="63.6396" transform="rotate(-45 44.7314 55)" fill="#00D8CC" stroke="#00635D" stroke-width="2" stroke-linejoin="round"/>
<path d="M89.7998 14.3145V96.2817" stroke="#00635D" stroke-width="2" stroke-dasharray="4 6"/>
<path d="M49.3096 53.1412C49.3096 53.6935 49.7573 54.1412 50.3096 54.1412L59.3096 54.1412C59.8619 54.1412 60.3096 53.6935 60.3096 53.1412C60.3096 52.5889 59.8619 52.1412 59.3096 52.1412L51.3096 52.1412L51.3096 44.1412C51.3096 43.5889 50.8619 43.1412 50.3096 43.1412C49.7573 43.1412 49.3096 43.5889 49.3096 44.1412L49.3096 53.1412ZM129.622 54.1412C130.174 54.1412 130.622 53.6935 130.622 53.1412L130.622 44.1412C130.622 43.5889 130.174 43.1412 129.622 43.1412C129.07 43.1412 128.622 43.5889 128.622 44.1412L128.622 52.1412L120.622 52.1412C120.07 52.1412 119.622 52.5889 119.622 53.1412C119.622 53.6935 120.07 54.1412 120.622 54.1412L129.622 54.1412ZM51.0167 53.8483C62.4456 42.4194 76.1297 37.2168 89.7998 37.2168V35.2168C75.5945 35.2168 61.4031 40.6335 49.6025 52.4341L51.0167 53.8483ZM89.7998 37.2168C96.5831 37.2168 104.322 39.3224 111.42 42.4815C118.517 45.6403 124.876 49.809 128.915 53.8483L130.329 52.4341C126.072 48.1771 119.489 43.8836 112.233 40.6543C104.978 37.4253 96.9544 35.2168 89.7998 35.2168V37.2168Z" fill="black"/>
</g>
<defs>
<clipPath id="clip0_14_2709">
<rect width="180" height="180" rx="20" fill="white"/>
</clipPath>
<clipPath id="clip1_14_2709">
<path d="M0 30L-1.31134e-06 0L30 -1.31134e-06L30 10C30 21.0457 21.0457 30 10 30L0 30Z" fill="white"/>
</clipPath>
</defs>
</svg>
