<svg width="180" height="180" viewBox="0 0 180 180" fill="none" xmlns="http://www.w3.org/2000/svg">
<g clip-path="url(#clip0_14_2745)">
<rect width="180" height="180" rx="20" fill="#F2F2F2"/>
<g clip-path="url(#clip1_14_2745)">
<path d="M0 30L-1.31134e-06 0L30 -1.31134e-06L30 10C30 21.0457 21.0457 30 10 30L0 30Z" fill="#333333"/>
<path d="M16.1216 14.36C17.103 14.52 17.855 14.888 18.3776 15.464C18.9003 16.0293 19.1616 16.7333 19.1616 17.576C19.1616 18.2267 18.991 18.8293 18.6496 19.384C18.3083 19.928 17.7856 20.3653 17.0816 20.696C16.3883 21.0267 15.535 21.192 14.5216 21.192C13.7323 21.192 12.9536 21.0907 12.1856 20.888C11.4283 20.6747 10.783 20.376 10.2496 19.992L11.2576 18.008C11.6843 18.328 12.175 18.5787 12.7296 18.76C13.295 18.9307 13.871 19.016 14.4576 19.016C15.1083 19.016 15.6203 18.8933 15.9936 18.648C16.367 18.392 16.5536 18.0347 16.5536 17.576C16.5536 16.6587 15.855 16.2 14.4576 16.2H13.2736V14.488L15.5776 11.88H10.8096V9.8H18.6496V11.48L16.1216 14.36Z" fill="#F2F2F2"/>
</g>
<path d="M24.1936 144V135.6H27.7336C28.6296 135.6 29.4176 135.776 30.0976 136.128C30.7856 136.48 31.3176 136.972 31.6936 137.604C32.0776 138.236 32.2696 138.968 32.2696 139.8C32.2696 140.632 32.0776 141.364 31.6936 141.996C31.3176 142.628 30.7856 143.12 30.0976 143.472C29.4176 143.824 28.6296 144 27.7336 144H24.1936ZM25.3936 142.956H27.6616C28.3576 142.956 28.9576 142.824 29.4616 142.56C29.9736 142.296 30.3696 141.928 30.6496 141.456C30.9296 140.976 31.0696 140.424 31.0696 139.8C31.0696 139.168 30.9296 138.616 30.6496 138.144C30.3696 137.672 29.9736 137.304 29.4616 137.04C28.9576 136.776 28.3576 136.644 27.6616 136.644H25.3936V142.956ZM36.6637 144.072C36.0237 144.072 35.4557 143.932 34.9597 143.652C34.4637 143.372 34.0717 142.988 33.7837 142.5C33.4957 142.004 33.3517 141.444 33.3517 140.82C33.3517 140.188 33.4957 139.628 33.7837 139.14C34.0717 138.652 34.4637 138.272 34.9597 138C35.4557 137.72 36.0237 137.58 36.6637 137.58C37.2957 137.58 37.8597 137.72 38.3557 138C38.8597 138.272 39.2517 138.652 39.5317 139.14C39.8197 139.62 39.9637 140.18 39.9637 140.82C39.9637 141.452 39.8197 142.012 39.5317 142.5C39.2517 142.988 38.8597 143.372 38.3557 143.652C37.8597 143.932 37.2957 144.072 36.6637 144.072ZM36.6637 143.064C37.0717 143.064 37.4357 142.972 37.7557 142.788C38.0837 142.604 38.3397 142.344 38.5237 142.008C38.7077 141.664 38.7997 141.268 38.7997 140.82C38.7997 140.364 38.7077 139.972 38.5237 139.644C38.3397 139.308 38.0837 139.048 37.7557 138.864C37.4357 138.68 37.0717 138.588 36.6637 138.588C36.2557 138.588 35.8917 138.68 35.5717 138.864C35.2517 139.048 34.9957 139.308 34.8037 139.644C34.6117 139.972 34.5157 140.364 34.5157 140.82C34.5157 141.268 34.6117 141.664 34.8037 142.008C34.9957 142.344 35.2517 142.604 35.5717 142.788C35.8917 142.972 36.2557 143.064 36.6637 143.064ZM44.9288 144.072C44.3848 144.072 43.8928 143.952 43.4528 143.712C43.0208 143.464 42.6768 143.1 42.4208 142.62C42.1728 142.14 42.0488 141.54 42.0488 140.82C42.0488 140.1 42.1768 139.5 42.4328 139.02C42.6968 138.54 43.0448 138.18 43.4768 137.94C43.9168 137.7 44.4008 137.58 44.9288 137.58C45.5528 137.58 46.1048 137.716 46.5848 137.988C47.0648 138.26 47.4448 138.64 47.7248 139.128C48.0048 139.608 48.1448 140.172 48.1448 140.82C48.1448 141.468 48.0048 142.036 47.7248 142.524C47.4448 143.012 47.0648 143.392 46.5848 143.664C46.1048 143.936 45.5528 144.072 44.9288 144.072ZM41.5568 144V135.096H42.7088V139.332L42.5888 140.808L42.6608 142.284V144H41.5568ZM44.8328 143.064C45.2408 143.064 45.6048 142.972 45.9248 142.788C46.2528 142.604 46.5088 142.344 46.6928 142.008C46.8848 141.664 46.9808 141.268 46.9808 140.82C46.9808 140.364 46.8848 139.972 46.6928 139.644C46.5088 139.308 46.2528 139.048 45.9248 138.864C45.6048 138.68 45.2408 138.588 44.8328 138.588C44.4328 138.588 44.0688 138.68 43.7408 138.864C43.4208 139.048 43.1648 139.308 42.9728 139.644C42.7888 139.972 42.6968 140.364 42.6968 140.82C42.6968 141.268 42.7888 141.664 42.9728 142.008C43.1648 142.344 43.4208 142.604 43.7408 142.788C44.0688 142.972 44.4328 143.064 44.8328 143.064ZM49.7365 144V137.64H50.8405V139.368L50.7325 138.936C50.9085 138.496 51.2045 138.16 51.6205 137.928C52.0365 137.696 52.5485 137.58 53.1565 137.58V138.696C53.1085 138.688 53.0605 138.684 53.0125 138.684C52.9725 138.684 52.9325 138.684 52.8925 138.684C52.2765 138.684 51.7885 138.868 51.4285 139.236C51.0685 139.604 50.8885 140.136 50.8885 140.832V144H49.7365ZM57.3498 144.072C56.6698 144.072 56.0698 143.932 55.5498 143.652C55.0378 143.372 54.6378 142.988 54.3498 142.5C54.0698 142.012 53.9298 141.452 53.9298 140.82C53.9298 140.188 54.0658 139.628 54.3378 139.14C54.6178 138.652 54.9978 138.272 55.4778 138C55.9658 137.72 56.5138 137.58 57.1218 137.58C57.7378 137.58 58.2818 137.716 58.7538 137.988C59.2258 138.26 59.5938 138.644 59.8578 139.14C60.1298 139.628 60.2658 140.2 60.2658 140.856C60.2658 140.904 60.2618 140.96 60.2538 141.024C60.2538 141.088 60.2498 141.148 60.2418 141.204H54.8298V140.376H59.6418L59.1738 140.664C59.1818 140.256 59.0978 139.892 58.9218 139.572C58.7458 139.252 58.5018 139.004 58.1898 138.828C57.8858 138.644 57.5298 138.552 57.1218 138.552C56.7218 138.552 56.3658 138.644 56.0538 138.828C55.7418 139.004 55.4978 139.256 55.3218 139.584C55.1458 139.904 55.0578 140.272 55.0578 140.688V140.88C55.0578 141.304 55.1538 141.684 55.3458 142.02C55.5458 142.348 55.8218 142.604 56.1738 142.788C56.5258 142.972 56.9298 143.064 57.3858 143.064C57.7618 143.064 58.1018 143 58.4058 142.872C58.7178 142.744 58.9898 142.552 59.2218 142.296L59.8578 143.04C59.5698 143.376 59.2098 143.632 58.7778 143.808C58.3538 143.984 57.8778 144.072 57.3498 144.072ZM69.0361 144V142.656L68.9761 142.404V140.112C68.9761 139.624 68.8321 139.248 68.5441 138.984C68.2641 138.712 67.8401 138.576 67.2721 138.576C66.8961 138.576 66.5281 138.64 66.1681 138.768C65.8081 138.888 65.5041 139.052 65.2561 139.26L64.7761 138.396C65.1041 138.132 65.4961 137.932 65.9521 137.796C66.4161 137.652 66.9001 137.58 67.4041 137.58C68.2761 137.58 68.9481 137.792 69.4201 138.216C69.8921 138.64 70.1281 139.288 70.1281 140.16V144H69.0361ZM66.9481 144.072C66.4761 144.072 66.0601 143.992 65.7001 143.832C65.3481 143.672 65.0761 143.452 64.8841 143.172C64.6921 142.884 64.5961 142.56 64.5961 142.2C64.5961 141.856 64.6761 141.544 64.8361 141.264C65.0041 140.984 65.2721 140.76 65.6401 140.592C66.0161 140.424 66.5201 140.34 67.1521 140.34H69.1681V141.168H67.2001C66.6241 141.168 66.2361 141.264 66.0361 141.456C65.8361 141.648 65.7361 141.88 65.7361 142.152C65.7361 142.464 65.8601 142.716 66.1081 142.908C66.3561 143.092 66.7001 143.184 67.1401 143.184C67.5721 143.184 67.9481 143.088 68.2681 142.896C68.5961 142.704 68.8321 142.424 68.9761 142.056L69.2041 142.848C69.0521 143.224 68.7841 143.524 68.4001 143.748C68.0161 143.964 67.5321 144.072 66.9481 144.072ZM75.6506 144V137.076C75.6506 136.452 75.8306 135.956 76.1906 135.588C76.5586 135.212 77.0786 135.024 77.7506 135.024C77.9986 135.024 78.2346 135.056 78.4586 135.12C78.6906 135.176 78.8866 135.268 79.0466 135.396L78.6986 136.272C78.5786 136.176 78.4426 136.104 78.2906 136.056C78.1386 136 77.9786 135.972 77.8106 135.972C77.4746 135.972 77.2186 136.068 77.0426 136.26C76.8666 136.444 76.7786 136.72 76.7786 137.088V137.94L76.8026 138.468V144H75.6506ZM74.5706 138.588V137.64H78.6266V138.588H74.5706ZM82.3433 144.072C81.7033 144.072 81.1353 143.932 80.6393 143.652C80.1433 143.372 79.7513 142.988 79.4633 142.5C79.1753 142.004 79.0313 141.444 79.0313 140.82C79.0313 140.188 79.1753 139.628 79.4633 139.14C79.7513 138.652 80.1433 138.272 80.6393 138C81.1353 137.72 81.7033 137.58 82.3433 137.58C82.9753 137.58 83.5393 137.72 84.0353 138C84.5393 138.272 84.9313 138.652 85.2113 139.14C85.4993 139.62 85.6433 140.18 85.6433 140.82C85.6433 141.452 85.4993 142.012 85.2113 142.5C84.9313 142.988 84.5393 143.372 84.0353 143.652C83.5393 143.932 82.9753 144.072 82.3433 144.072ZM82.3433 143.064C82.7513 143.064 83.1153 142.972 83.4353 142.788C83.7633 142.604 84.0193 142.344 84.2033 142.008C84.3873 141.664 84.4793 141.268 84.4793 140.82C84.4793 140.364 84.3873 139.972 84.2033 139.644C84.0193 139.308 83.7633 139.048 83.4353 138.864C83.1153 138.68 82.7513 138.588 82.3433 138.588C81.9353 138.588 81.5713 138.68 81.2513 138.864C80.9313 139.048 80.6753 139.308 80.4833 139.644C80.2913 139.972 80.1953 140.364 80.1953 140.82C80.1953 141.268 80.2913 141.664 80.4833 142.008C80.6753 142.344 80.9313 142.604 81.2513 142.788C81.5713 142.972 81.9353 143.064 82.3433 143.064ZM87.2365 144V135.096H88.3885V144H87.2365ZM93.9841 137.58C94.5041 137.58 94.9601 137.68 95.3521 137.88C95.7521 138.08 96.0641 138.384 96.2881 138.792C96.5121 139.2 96.6241 139.716 96.6241 140.34V144H95.4721V140.472C95.4721 139.856 95.3201 139.392 95.0161 139.08C94.7201 138.768 94.3001 138.612 93.7561 138.612C93.3481 138.612 92.9921 138.692 92.6881 138.852C92.3841 139.012 92.1481 139.248 91.9801 139.56C91.8201 139.872 91.7401 140.26 91.7401 140.724V144H90.5881V135.096H91.7401V139.356L91.5121 138.9C91.7201 138.484 92.0401 138.16 92.4721 137.928C92.9041 137.696 93.4081 137.58 93.9841 137.58ZM102.704 144V142.656L102.644 142.404V140.112C102.644 139.624 102.5 139.248 102.212 138.984C101.932 138.712 101.508 138.576 100.94 138.576C100.564 138.576 100.196 138.64 99.8361 138.768C99.4761 138.888 99.1721 139.052 98.9241 139.26L98.4441 138.396C98.7721 138.132 99.1641 137.932 99.6201 137.796C100.084 137.652 100.568 137.58 101.072 137.58C101.944 137.58 102.616 137.792 103.088 138.216C103.56 138.64 103.796 139.288 103.796 140.16V144H102.704ZM100.616 144.072C100.144 144.072 99.7281 143.992 99.3681 143.832C99.0161 143.672 98.7441 143.452 98.5521 143.172C98.3601 142.884 98.2641 142.56 98.2641 142.2C98.2641 141.856 98.3441 141.544 98.5041 141.264C98.6721 140.984 98.9401 140.76 99.3081 140.592C99.6841 140.424 100.188 140.34 100.82 140.34H102.836V141.168H100.868C100.292 141.168 99.9041 141.264 99.7041 141.456C99.5041 141.648 99.4041 141.88 99.4041 142.152C99.4041 142.464 99.5281 142.716 99.7761 142.908C100.024 143.092 100.368 143.184 100.808 143.184C101.24 143.184 101.616 143.088 101.936 142.896C102.264 142.704 102.5 142.424 102.644 142.056L102.872 142.848C102.72 143.224 102.452 143.524 102.068 143.748C101.684 143.964 101.2 144.072 100.616 144.072ZM113.099 144V142.656L113.039 142.404V140.112C113.039 139.624 112.895 139.248 112.607 138.984C112.327 138.712 111.903 138.576 111.335 138.576C110.959 138.576 110.591 138.64 110.231 138.768C109.871 138.888 109.567 139.052 109.319 139.26L108.839 138.396C109.167 138.132 109.559 137.932 110.015 137.796C110.479 137.652 110.963 137.58 111.467 137.58C112.339 137.58 113.011 137.792 113.483 138.216C113.955 138.64 114.191 139.288 114.191 140.16V144H113.099ZM111.011 144.072C110.539 144.072 110.123 143.992 109.763 143.832C109.411 143.672 109.139 143.452 108.947 143.172C108.755 142.884 108.659 142.56 108.659 142.2C108.659 141.856 108.739 141.544 108.899 141.264C109.067 140.984 109.335 140.76 109.703 140.592C110.079 140.424 110.583 140.34 111.215 140.34H113.231V141.168H111.263C110.687 141.168 110.299 141.264 110.099 141.456C109.899 141.648 109.799 141.88 109.799 142.152C109.799 142.464 109.923 142.716 110.171 142.908C110.419 143.092 110.763 143.184 111.203 143.184C111.635 143.184 112.011 143.088 112.331 142.896C112.659 142.704 112.895 142.424 113.039 142.056L113.267 142.848C113.115 143.224 112.847 143.524 112.463 143.748C112.079 143.964 111.595 144.072 111.011 144.072ZM119.046 144.072C118.406 144.072 117.838 143.932 117.342 143.652C116.846 143.372 116.454 142.988 116.166 142.5C115.878 142.004 115.734 141.444 115.734 140.82C115.734 140.188 115.878 139.628 116.166 139.14C116.454 138.652 116.846 138.272 117.342 138C117.838 137.72 118.406 137.58 119.046 137.58C119.678 137.58 120.242 137.72 120.738 138C121.242 138.272 121.634 138.652 121.914 139.14C122.202 139.62 122.346 140.18 122.346 140.82C122.346 141.452 122.202 142.012 121.914 142.5C121.634 142.988 121.242 143.372 120.738 143.652C120.242 143.932 119.678 144.072 119.046 144.072ZM119.046 143.064C119.454 143.064 119.818 142.972 120.138 142.788C120.466 142.604 120.722 142.344 120.906 142.008C121.09 141.664 121.182 141.268 121.182 140.82C121.182 140.364 121.09 139.972 120.906 139.644C120.722 139.308 120.466 139.048 120.138 138.864C119.818 138.68 119.454 138.588 119.046 138.588C118.638 138.588 118.274 138.68 117.954 138.864C117.634 139.048 117.378 139.308 117.186 139.644C116.994 139.972 116.898 140.364 116.898 140.82C116.898 141.268 116.994 141.664 117.186 142.008C117.378 142.344 117.634 142.604 117.954 142.788C118.274 142.972 118.638 143.064 119.046 143.064ZM135.118 137.58C135.63 137.58 136.082 137.68 136.474 137.88C136.866 138.08 137.17 138.384 137.386 138.792C137.61 139.2 137.722 139.716 137.722 140.34V144H136.57V140.472C136.57 139.856 136.426 139.392 136.138 139.08C135.85 138.768 135.446 138.612 134.926 138.612C134.542 138.612 134.206 138.692 133.918 138.852C133.63 139.012 133.406 139.248 133.246 139.56C133.094 139.872 133.018 140.26 133.018 140.724V144H131.866V140.472C131.866 139.856 131.722 139.392 131.434 139.08C131.154 138.768 130.75 138.612 130.222 138.612C129.846 138.612 129.514 138.692 129.226 138.852C128.938 139.012 128.714 139.248 128.554 139.56C128.394 139.872 128.314 140.26 128.314 140.724V144H127.162V137.64H128.266V139.332L128.086 138.9C128.286 138.484 128.594 138.16 129.01 137.928C129.426 137.696 129.91 137.58 130.462 137.58C131.07 137.58 131.594 137.732 132.034 138.036C132.474 138.332 132.762 138.784 132.898 139.392L132.43 139.2C132.622 138.712 132.958 138.32 133.438 138.024C133.918 137.728 134.478 137.58 135.118 137.58ZM142.674 144.072C141.994 144.072 141.394 143.932 140.874 143.652C140.362 143.372 139.962 142.988 139.674 142.5C139.394 142.012 139.254 141.452 139.254 140.82C139.254 140.188 139.39 139.628 139.662 139.14C139.942 138.652 140.322 138.272 140.802 138C141.29 137.72 141.838 137.58 142.446 137.58C143.062 137.58 143.606 137.716 144.078 137.988C144.55 138.26 144.918 138.644 145.182 139.14C145.454 139.628 145.59 140.2 145.59 140.856C145.59 140.904 145.586 140.96 145.578 141.024C145.578 141.088 145.574 141.148 145.566 141.204H140.154V140.376H144.966L144.498 140.664C144.506 140.256 144.422 139.892 144.246 139.572C144.07 139.252 143.826 139.004 143.514 138.828C143.21 138.644 142.854 138.552 142.446 138.552C142.046 138.552 141.69 138.644 141.378 138.828C141.066 139.004 140.822 139.256 140.646 139.584C140.47 139.904 140.382 140.272 140.382 140.688V140.88C140.382 141.304 140.478 141.684 140.67 142.02C140.87 142.348 141.146 142.604 141.498 142.788C141.85 142.972 142.254 143.064 142.71 143.064C143.086 143.064 143.426 143 143.73 142.872C144.042 142.744 144.314 142.552 144.546 142.296L145.182 143.04C144.894 143.376 144.534 143.632 144.102 143.808C143.678 143.984 143.202 144.072 142.674 144.072ZM147.19 144V137.64H148.342V144H147.19ZM147.766 136.416C147.542 136.416 147.354 136.344 147.202 136.2C147.058 136.056 146.986 135.88 146.986 135.672C146.986 135.456 147.058 135.276 147.202 135.132C147.354 134.988 147.542 134.916 147.766 134.916C147.99 134.916 148.174 134.988 148.318 135.132C148.47 135.268 148.546 135.44 148.546 135.648C148.546 135.864 148.474 136.048 148.33 136.2C148.186 136.344 147.998 136.416 147.766 136.416ZM153.265 144.072C152.625 144.072 152.057 143.932 151.561 143.652C151.065 143.372 150.673 142.988 150.385 142.5C150.097 142.004 149.953 141.444 149.953 140.82C149.953 140.188 150.097 139.628 150.385 139.14C150.673 138.652 151.065 138.272 151.561 138C152.057 137.72 152.625 137.58 153.265 137.58C153.897 137.58 154.461 137.72 154.957 138C155.461 138.272 155.853 138.652 156.133 139.14C156.421 139.62 156.565 140.18 156.565 140.82C156.565 141.452 156.421 142.012 156.133 142.5C155.853 142.988 155.461 143.372 154.957 143.652C154.461 143.932 153.897 144.072 153.265 144.072ZM153.265 143.064C153.673 143.064 154.037 142.972 154.357 142.788C154.685 142.604 154.941 142.344 155.125 142.008C155.309 141.664 155.401 141.268 155.401 140.82C155.401 140.364 155.309 139.972 155.125 139.644C154.941 139.308 154.685 139.048 154.357 138.864C154.037 138.68 153.673 138.588 153.265 138.588C152.857 138.588 152.493 138.68 152.173 138.864C151.853 139.048 151.597 139.308 151.405 139.644C151.213 139.972 151.117 140.364 151.117 140.82C151.117 141.268 151.213 141.664 151.405 142.008C151.597 142.344 151.853 142.604 152.173 142.788C152.493 142.972 152.857 143.064 153.265 143.064Z" fill="#008E86"/>
<path d="M62.9832 73.2518L89.7315 9.99999L116.48 73.2518L89.7315 99.9999L62.9832 73.2518Z" fill="#008E86" stroke="#00635D" stroke-width="2" stroke-linejoin="round"/>
<path d="M62.9832 73.2518L89.7315 9.99999L89.7315 73.2518L62.9832 73.2518Z" fill="#00D8CC" stroke="#00635D" stroke-width="2" stroke-linejoin="round"/>
<path d="M89.7313 73.2509L89.7314 9.99905L116.48 73.2509L89.7313 73.2509Z" fill="#00D8CC" stroke="#00635D" stroke-width="2" stroke-linejoin="round"/>
<path d="M89.9565 72.8125L89.9565 96.2625" stroke="#00635D" stroke-width="2" stroke-dasharray="4 6"/>
<path d="M107.837 68.7108C108.228 69.1013 108.228 69.7344 107.837 70.125C107.447 70.5155 106.814 70.5155 106.423 70.125L107.837 68.7108ZM72.6179 70.4178C72.0656 70.4178 71.6179 69.9701 71.6179 69.4178L71.6179 60.4178C71.6179 59.8655 72.0656 59.4178 72.6179 59.4178C73.1701 59.4178 73.6179 59.8655 73.6179 60.4178L73.6179 68.4178L81.6179 68.4178C82.1702 68.4178 82.6179 68.8655 82.6179 69.4178C82.6179 69.97 82.1702 70.4178 81.6179 70.4178L72.6179 70.4178ZM106.423 70.125C101.415 65.1168 95.7593 62.5262 90.0991 62.4509C84.4448 62.3757 78.6415 64.8084 73.325 70.1249L71.9108 68.7107C77.5344 63.087 83.8349 60.3674 90.1257 60.4511C96.4104 60.5347 102.541 63.4142 107.837 68.7108L106.423 70.125Z" fill="black"/>
</g>
<defs>
<clipPath id="clip0_14_2745">
<rect width="180" height="180" rx="20" fill="white"/>
</clipPath>
<clipPath id="clip1_14_2745">
<path d="M0 30L-1.31134e-06 0L30 -1.31134e-06L30 10C30 21.0457 21.0457 30 10 30L0 30Z" fill="white"/>
</clipPath>
</defs>
</svg>
