<svg width="180" height="180" viewBox="0 0 180 180" fill="none" xmlns="http://www.w3.org/2000/svg">
<rect width="180" height="180" rx="20" fill="#F2F2F2"/>
<path d="M47.4788 122V113.6H51.0188C51.9148 113.6 52.7028 113.776 53.3828 114.128C54.0708 114.48 54.6028 114.972 54.9788 115.604C55.3628 116.236 55.5548 116.968 55.5548 117.8C55.5548 118.632 55.3628 119.364 54.9788 119.996C54.6028 120.628 54.0708 121.12 53.3828 121.472C52.7028 121.824 51.9148 122 51.0188 122H47.4788ZM48.6788 120.956H50.9468C51.6428 120.956 52.2428 120.824 52.7468 120.56C53.2588 120.296 53.6548 119.928 53.9348 119.456C54.2148 118.976 54.3548 118.424 54.3548 117.8C54.3548 117.168 54.2148 116.616 53.9348 116.144C53.6548 115.672 53.2588 115.304 52.7468 115.04C52.2428 114.776 51.6428 114.644 50.9468 114.644H48.6788V120.956ZM59.9488 122.072C59.3088 122.072 58.7408 121.932 58.2448 121.652C57.7488 121.372 57.3568 120.988 57.0688 120.5C56.7808 120.004 56.6368 119.444 56.6368 118.82C56.6368 118.188 56.7808 117.628 57.0688 117.14C57.3568 116.652 57.7488 116.272 58.2448 116C58.7408 115.72 59.3088 115.58 59.9488 115.58C60.5808 115.58 61.1448 115.72 61.6408 116C62.1448 116.272 62.5368 116.652 62.8168 117.14C63.1048 117.62 63.2488 118.18 63.2488 118.82C63.2488 119.452 63.1048 120.012 62.8168 120.5C62.5368 120.988 62.1448 121.372 61.6408 121.652C61.1448 121.932 60.5808 122.072 59.9488 122.072ZM59.9488 121.064C60.3568 121.064 60.7208 120.972 61.0408 120.788C61.3688 120.604 61.6248 120.344 61.8088 120.008C61.9928 119.664 62.0848 119.268 62.0848 118.82C62.0848 118.364 61.9928 117.972 61.8088 117.644C61.6248 117.308 61.3688 117.048 61.0408 116.864C60.7208 116.68 60.3568 116.588 59.9488 116.588C59.5408 116.588 59.1768 116.68 58.8568 116.864C58.5368 117.048 58.2808 117.308 58.0888 117.644C57.8968 117.972 57.8008 118.364 57.8008 118.82C57.8008 119.268 57.8968 119.664 58.0888 120.008C58.2808 120.344 58.5368 120.604 58.8568 120.788C59.1768 120.972 59.5408 121.064 59.9488 121.064ZM68.214 122.072C67.67 122.072 67.178 121.952 66.738 121.712C66.306 121.464 65.962 121.1 65.706 120.62C65.458 120.14 65.334 119.54 65.334 118.82C65.334 118.1 65.462 117.5 65.718 117.02C65.982 116.54 66.33 116.18 66.762 115.94C67.202 115.7 67.686 115.58 68.214 115.58C68.838 115.58 69.39 115.716 69.87 115.988C70.35 116.26 70.73 116.64 71.01 117.128C71.29 117.608 71.43 118.172 71.43 118.82C71.43 119.468 71.29 120.036 71.01 120.524C70.73 121.012 70.35 121.392 69.87 121.664C69.39 121.936 68.838 122.072 68.214 122.072ZM64.842 122V113.096H65.994V117.332L65.874 118.808L65.946 120.284V122H64.842ZM68.118 121.064C68.526 121.064 68.89 120.972 69.21 120.788C69.538 120.604 69.794 120.344 69.978 120.008C70.17 119.664 70.266 119.268 70.266 118.82C70.266 118.364 70.17 117.972 69.978 117.644C69.794 117.308 69.538 117.048 69.21 116.864C68.89 116.68 68.526 116.588 68.118 116.588C67.718 116.588 67.354 116.68 67.026 116.864C66.706 117.048 66.45 117.308 66.258 117.644C66.074 117.972 65.982 118.364 65.982 118.82C65.982 119.268 66.074 119.664 66.258 120.008C66.45 120.344 66.706 120.604 67.026 120.788C67.354 120.972 67.718 121.064 68.118 121.064ZM73.0217 122V115.64H74.1257V117.368L74.0177 116.936C74.1937 116.496 74.4897 116.16 74.9057 115.928C75.3217 115.696 75.8337 115.58 76.4417 115.58V116.696C76.3937 116.688 76.3457 116.684 76.2977 116.684C76.2577 116.684 76.2177 116.684 76.1777 116.684C75.5617 116.684 75.0737 116.868 74.7137 117.236C74.3537 117.604 74.1737 118.136 74.1737 118.832V122H73.0217ZM80.6349 122.072C79.9549 122.072 79.3549 121.932 78.8349 121.652C78.3229 121.372 77.9229 120.988 77.6349 120.5C77.3549 120.012 77.2149 119.452 77.2149 118.82C77.2149 118.188 77.3509 117.628 77.6229 117.14C77.9029 116.652 78.2829 116.272 78.7629 116C79.2509 115.72 79.7989 115.58 80.4069 115.58C81.0229 115.58 81.5669 115.716 82.0389 115.988C82.5109 116.26 82.8789 116.644 83.1429 117.14C83.4149 117.628 83.5509 118.2 83.5509 118.856C83.5509 118.904 83.5469 118.96 83.5389 119.024C83.5389 119.088 83.5349 119.148 83.5269 119.204H78.1149V118.376H82.9269L82.4589 118.664C82.4669 118.256 82.3829 117.892 82.2069 117.572C82.0309 117.252 81.7869 117.004 81.4749 116.828C81.1709 116.644 80.8149 116.552 80.4069 116.552C80.0069 116.552 79.6509 116.644 79.3389 116.828C79.0269 117.004 78.7829 117.256 78.6069 117.584C78.4309 117.904 78.3429 118.272 78.3429 118.688V118.88C78.3429 119.304 78.4389 119.684 78.6309 120.02C78.8309 120.348 79.1069 120.604 79.4589 120.788C79.8109 120.972 80.2149 121.064 80.6709 121.064C81.0469 121.064 81.3869 121 81.6909 120.872C82.0029 120.744 82.2749 120.552 82.5069 120.296L83.1429 121.04C82.8549 121.376 82.4949 121.632 82.0629 121.808C81.6389 121.984 81.1629 122.072 80.6349 122.072ZM92.3213 122V120.656L92.2613 120.404V118.112C92.2613 117.624 92.1173 117.248 91.8293 116.984C91.5493 116.712 91.1253 116.576 90.5573 116.576C90.1813 116.576 89.8133 116.64 89.4533 116.768C89.0933 116.888 88.7893 117.052 88.5413 117.26L88.0613 116.396C88.3893 116.132 88.7813 115.932 89.2373 115.796C89.7013 115.652 90.1853 115.58 90.6893 115.58C91.5613 115.58 92.2333 115.792 92.7053 116.216C93.1773 116.64 93.4133 117.288 93.4133 118.16V122H92.3213ZM90.2333 122.072C89.7613 122.072 89.3453 121.992 88.9853 121.832C88.6333 121.672 88.3613 121.452 88.1693 121.172C87.9773 120.884 87.8813 120.56 87.8813 120.2C87.8813 119.856 87.9613 119.544 88.1213 119.264C88.2893 118.984 88.5573 118.76 88.9253 118.592C89.3013 118.424 89.8053 118.34 90.4373 118.34H92.4533V119.168H90.4853C89.9093 119.168 89.5213 119.264 89.3213 119.456C89.1213 119.648 89.0213 119.88 89.0213 120.152C89.0213 120.464 89.1453 120.716 89.3933 120.908C89.6413 121.092 89.9853 121.184 90.4253 121.184C90.8573 121.184 91.2333 121.088 91.5533 120.896C91.8813 120.704 92.1173 120.424 92.2613 120.056L92.4893 120.848C92.3373 121.224 92.0693 121.524 91.6853 121.748C91.3013 121.964 90.8173 122.072 90.2333 122.072ZM102.14 122.072C101.612 122.072 101.128 121.952 100.688 121.712C100.256 121.464 99.9078 121.1 99.6438 120.62C99.3878 120.14 99.2598 119.54 99.2598 118.82C99.2598 118.1 99.3838 117.5 99.6318 117.02C99.8878 116.54 100.232 116.18 100.664 115.94C101.104 115.7 101.596 115.58 102.14 115.58C102.764 115.58 103.316 115.716 103.796 115.988C104.276 116.26 104.656 116.64 104.936 117.128C105.216 117.608 105.356 118.172 105.356 118.82C105.356 119.468 105.216 120.036 104.936 120.524C104.656 121.012 104.276 121.392 103.796 121.664C103.316 121.936 102.764 122.072 102.14 122.072ZM98.7678 124.328V115.64H99.8718V117.356L99.7998 118.832L99.9198 120.308V124.328H98.7678ZM102.044 121.064C102.452 121.064 102.816 120.972 103.136 120.788C103.464 120.604 103.72 120.344 103.904 120.008C104.096 119.664 104.192 119.268 104.192 118.82C104.192 118.364 104.096 117.972 103.904 117.644C103.72 117.308 103.464 117.048 103.136 116.864C102.816 116.68 102.452 116.588 102.044 116.588C101.644 116.588 101.28 116.68 100.952 116.864C100.632 117.048 100.376 117.308 100.184 117.644C99.9998 117.972 99.9078 118.364 99.9078 118.82C99.9078 119.268 99.9998 119.664 100.184 120.008C100.376 120.344 100.632 120.604 100.952 120.788C101.28 120.972 101.644 121.064 102.044 121.064ZM109.671 122.072C109.031 122.072 108.463 121.932 107.967 121.652C107.471 121.372 107.079 120.988 106.791 120.5C106.503 120.004 106.359 119.444 106.359 118.82C106.359 118.188 106.503 117.628 106.791 117.14C107.079 116.652 107.471 116.272 107.967 116C108.463 115.72 109.031 115.58 109.671 115.58C110.303 115.58 110.867 115.72 111.363 116C111.867 116.272 112.259 116.652 112.539 117.14C112.827 117.62 112.971 118.18 112.971 118.82C112.971 119.452 112.827 120.012 112.539 120.5C112.259 120.988 111.867 121.372 111.363 121.652C110.867 121.932 110.303 122.072 109.671 122.072ZM109.671 121.064C110.079 121.064 110.443 120.972 110.763 120.788C111.091 120.604 111.347 120.344 111.531 120.008C111.715 119.664 111.807 119.268 111.807 118.82C111.807 118.364 111.715 117.972 111.531 117.644C111.347 117.308 111.091 117.048 110.763 116.864C110.443 116.68 110.079 116.588 109.671 116.588C109.263 116.588 108.899 116.68 108.579 116.864C108.259 117.048 108.003 117.308 107.811 117.644C107.619 117.972 107.523 118.364 107.523 118.82C107.523 119.268 107.619 119.664 107.811 120.008C108.003 120.344 108.259 120.604 108.579 120.788C108.899 120.972 109.263 121.064 109.671 121.064ZM117.961 115.58C118.481 115.58 118.937 115.68 119.329 115.88C119.729 116.08 120.041 116.384 120.265 116.792C120.489 117.2 120.601 117.716 120.601 118.34V122H119.449V118.472C119.449 117.856 119.297 117.392 118.993 117.08C118.697 116.768 118.277 116.612 117.733 116.612C117.325 116.612 116.969 116.692 116.665 116.852C116.361 117.012 116.125 117.248 115.957 117.56C115.797 117.872 115.717 118.26 115.717 118.724V122H114.565V115.64H115.669V117.356L115.489 116.9C115.697 116.484 116.017 116.16 116.449 115.928C116.881 115.696 117.385 115.58 117.961 115.58ZM124.917 122.072C124.277 122.072 123.781 121.9 123.429 121.556C123.077 121.212 122.901 120.72 122.901 120.08V114.248H124.053V120.032C124.053 120.376 124.137 120.64 124.305 120.824C124.481 121.008 124.729 121.1 125.049 121.1C125.409 121.1 125.709 121 125.949 120.8L126.309 121.628C126.133 121.78 125.921 121.892 125.673 121.964C125.433 122.036 125.181 122.072 124.917 122.072ZM121.821 116.588V115.64H125.877V116.588H121.821ZM131.649 122V120.656L131.589 120.404V118.112C131.589 117.624 131.445 117.248 131.157 116.984C130.877 116.712 130.453 116.576 129.885 116.576C129.509 116.576 129.141 116.64 128.781 116.768C128.421 116.888 128.117 117.052 127.869 117.26L127.389 116.396C127.717 116.132 128.109 115.932 128.565 115.796C129.029 115.652 129.513 115.58 130.017 115.58C130.889 115.58 131.561 115.792 132.033 116.216C132.505 116.64 132.741 117.288 132.741 118.16V122H131.649ZM129.561 122.072C129.089 122.072 128.673 121.992 128.313 121.832C127.961 121.672 127.689 121.452 127.497 121.172C127.305 120.884 127.209 120.56 127.209 120.2C127.209 119.856 127.289 119.544 127.449 119.264C127.617 118.984 127.885 118.76 128.253 118.592C128.629 118.424 129.133 118.34 129.765 118.34H131.781V119.168H129.813C129.237 119.168 128.849 119.264 128.649 119.456C128.449 119.648 128.349 119.88 128.349 120.152C128.349 120.464 128.473 120.716 128.721 120.908C128.969 121.092 129.313 121.184 129.753 121.184C130.185 121.184 130.561 121.088 130.881 120.896C131.209 120.704 131.445 120.424 131.589 120.056L131.817 120.848C131.665 121.224 131.397 121.524 131.013 121.748C130.629 121.964 130.145 122.072 129.561 122.072ZM23.8615 137V130.64H25.0135V137H23.8615ZM24.4375 129.416C24.2135 129.416 24.0255 129.344 23.8735 129.2C23.7295 129.056 23.6575 128.88 23.6575 128.672C23.6575 128.456 23.7295 128.276 23.8735 128.132C24.0255 127.988 24.2135 127.916 24.4375 127.916C24.6615 127.916 24.8455 127.988 24.9895 128.132C25.1415 128.268 25.2175 128.44 25.2175 128.648C25.2175 128.864 25.1455 129.048 25.0015 129.2C24.8575 129.344 24.6695 129.416 24.4375 129.416ZM30.6091 130.58C31.1291 130.58 31.5851 130.68 31.9771 130.88C32.3771 131.08 32.6891 131.384 32.9131 131.792C33.1371 132.2 33.2491 132.716 33.2491 133.34V137H32.0971V133.472C32.0971 132.856 31.9451 132.392 31.6411 132.08C31.3451 131.768 30.9251 131.612 30.3811 131.612C29.9731 131.612 29.6171 131.692 29.3131 131.852C29.0091 132.012 28.7731 132.248 28.6051 132.56C28.4451 132.872 28.3651 133.26 28.3651 133.724V137H27.2131V130.64H28.3171V132.356L28.1371 131.9C28.3451 131.484 28.6651 131.16 29.0971 130.928C29.5291 130.696 30.0331 130.58 30.6091 130.58ZM38.0091 137.072C37.3931 137.072 36.8411 136.936 36.3531 136.664C35.8731 136.392 35.4931 136.012 35.2131 135.524C34.9331 135.036 34.7931 134.468 34.7931 133.82C34.7931 133.172 34.9331 132.608 35.2131 132.128C35.4931 131.64 35.8731 131.26 36.3531 130.988C36.8411 130.716 37.3931 130.58 38.0091 130.58C38.5451 130.58 39.0291 130.7 39.4611 130.94C39.8931 131.18 40.2371 131.54 40.4931 132.02C40.7571 132.5 40.8891 133.1 40.8891 133.82C40.8891 134.54 40.7611 135.14 40.5051 135.62C40.2571 136.1 39.9171 136.464 39.4851 136.712C39.0531 136.952 38.5611 137.072 38.0091 137.072ZM38.1051 136.064C38.5051 136.064 38.8651 135.972 39.1851 135.788C39.5131 135.604 39.7691 135.344 39.9531 135.008C40.1451 134.664 40.2411 134.268 40.2411 133.82C40.2411 133.364 40.1451 132.972 39.9531 132.644C39.7691 132.308 39.5131 132.048 39.1851 131.864C38.8651 131.68 38.5051 131.588 38.1051 131.588C37.6971 131.588 37.3331 131.68 37.0131 131.864C36.6931 132.048 36.4371 132.308 36.2451 132.644C36.0531 132.972 35.9571 133.364 35.9571 133.82C35.9571 134.268 36.0531 134.664 36.2451 135.008C36.4371 135.344 36.6931 135.604 37.0131 135.788C37.3331 135.972 37.6971 136.064 38.1051 136.064ZM40.2771 137V135.284L40.3491 133.808L40.2291 132.332V128.096H41.3811V137H40.2771ZM43.5608 137V130.64H44.7128V137H43.5608ZM44.1368 129.416C43.9128 129.416 43.7248 129.344 43.5728 129.2C43.4288 129.056 43.3568 128.88 43.3568 128.672C43.3568 128.456 43.4288 128.276 43.5728 128.132C43.7248 127.988 43.9128 127.916 44.1368 127.916C44.3608 127.916 44.5448 127.988 44.6888 128.132C44.8408 128.268 44.9168 128.44 44.9168 128.648C44.9168 128.864 44.8448 129.048 44.7008 129.2C44.5568 129.344 44.3688 129.416 44.1368 129.416ZM49.6843 137.072C49.0363 137.072 48.4563 136.932 47.9443 136.652C47.4403 136.372 47.0443 135.988 46.7563 135.5C46.4683 135.012 46.3243 134.452 46.3243 133.82C46.3243 133.188 46.4683 132.628 46.7563 132.14C47.0443 131.652 47.4403 131.272 47.9443 131C48.4563 130.72 49.0363 130.58 49.6843 130.58C50.2603 130.58 50.7723 130.696 51.2203 130.928C51.6763 131.152 52.0283 131.488 52.2763 131.936L51.4003 132.5C51.1923 132.188 50.9363 131.96 50.6323 131.816C50.3363 131.664 50.0163 131.588 49.6723 131.588C49.2563 131.588 48.8843 131.68 48.5563 131.864C48.2283 132.048 47.9683 132.308 47.7763 132.644C47.5843 132.972 47.4883 133.364 47.4883 133.82C47.4883 134.276 47.5843 134.672 47.7763 135.008C47.9683 135.344 48.2283 135.604 48.5563 135.788C48.8843 135.972 49.2563 136.064 49.6723 136.064C50.0163 136.064 50.3363 135.992 50.6323 135.848C50.9363 135.696 51.1923 135.464 51.4003 135.152L52.2763 135.704C52.0283 136.144 51.6763 136.484 51.2203 136.724C50.7723 136.956 50.2603 137.072 49.6843 137.072ZM57.7158 137V135.656L57.6558 135.404V133.112C57.6558 132.624 57.5118 132.248 57.2238 131.984C56.9438 131.712 56.5198 131.576 55.9518 131.576C55.5758 131.576 55.2078 131.64 54.8478 131.768C54.4878 131.888 54.1838 132.052 53.9358 132.26L53.4558 131.396C53.7838 131.132 54.1758 130.932 54.6318 130.796C55.0958 130.652 55.5798 130.58 56.0838 130.58C56.9558 130.58 57.6278 130.792 58.0998 131.216C58.5718 131.64 58.8078 132.288 58.8078 133.16V137H57.7158ZM55.6278 137.072C55.1558 137.072 54.7398 136.992 54.3798 136.832C54.0278 136.672 53.7558 136.452 53.5638 136.172C53.3718 135.884 53.2758 135.56 53.2758 135.2C53.2758 134.856 53.3558 134.544 53.5158 134.264C53.6838 133.984 53.9518 133.76 54.3198 133.592C54.6958 133.424 55.1998 133.34 55.8318 133.34H57.8478V134.168H55.8798C55.3038 134.168 54.9158 134.264 54.7158 134.456C54.5158 134.648 54.4158 134.88 54.4158 135.152C54.4158 135.464 54.5398 135.716 54.7878 135.908C55.0358 136.092 55.3798 136.184 55.8198 136.184C56.2518 136.184 56.6278 136.088 56.9478 135.896C57.2758 135.704 57.5118 135.424 57.6558 135.056L57.8838 135.848C57.7318 136.224 57.4638 136.524 57.0798 136.748C56.6958 136.964 56.2118 137.072 55.6278 137.072ZM63.5677 137.072C62.9517 137.072 62.3997 136.936 61.9117 136.664C61.4317 136.392 61.0517 136.012 60.7717 135.524C60.4917 135.036 60.3517 134.468 60.3517 133.82C60.3517 133.172 60.4917 132.608 60.7717 132.128C61.0517 131.64 61.4317 131.26 61.9117 130.988C62.3997 130.716 62.9517 130.58 63.5677 130.58C64.1037 130.58 64.5877 130.7 65.0197 130.94C65.4517 131.18 65.7957 131.54 66.0517 132.02C66.3157 132.5 66.4477 133.1 66.4477 133.82C66.4477 134.54 66.3197 135.14 66.0637 135.62C65.8157 136.1 65.4757 136.464 65.0437 136.712C64.6117 136.952 64.1197 137.072 63.5677 137.072ZM63.6637 136.064C64.0637 136.064 64.4237 135.972 64.7437 135.788C65.0717 135.604 65.3277 135.344 65.5117 135.008C65.7037 134.664 65.7997 134.268 65.7997 133.82C65.7997 133.364 65.7037 132.972 65.5117 132.644C65.3277 132.308 65.0717 132.048 64.7437 131.864C64.4237 131.68 64.0637 131.588 63.6637 131.588C63.2557 131.588 62.8917 131.68 62.5717 131.864C62.2517 132.048 61.9957 132.308 61.8037 132.644C61.6117 132.972 61.5157 133.364 61.5157 133.82C61.5157 134.268 61.6117 134.664 61.8037 135.008C61.9957 135.344 62.2517 135.604 62.5717 135.788C62.8917 135.972 63.2557 136.064 63.6637 136.064ZM65.8357 137V135.284L65.9077 133.808L65.7877 132.332V128.096H66.9397V137H65.8357ZM73.0673 137V135.656L73.0073 135.404V133.112C73.0073 132.624 72.8633 132.248 72.5753 131.984C72.2953 131.712 71.8713 131.576 71.3033 131.576C70.9273 131.576 70.5593 131.64 70.1993 131.768C69.8393 131.888 69.5353 132.052 69.2873 132.26L68.8073 131.396C69.1353 131.132 69.5273 130.932 69.9833 130.796C70.4473 130.652 70.9313 130.58 71.4353 130.58C72.3073 130.58 72.9793 130.792 73.4513 131.216C73.9233 131.64 74.1593 132.288 74.1593 133.16V137H73.0673ZM70.9793 137.072C70.5073 137.072 70.0913 136.992 69.7313 136.832C69.3793 136.672 69.1073 136.452 68.9153 136.172C68.7233 135.884 68.6273 135.56 68.6273 135.2C68.6273 134.856 68.7073 134.544 68.8673 134.264C69.0353 133.984 69.3033 133.76 69.6713 133.592C70.0473 133.424 70.5513 133.34 71.1833 133.34H73.1993V134.168H71.2313C70.6553 134.168 70.2673 134.264 70.0673 134.456C69.8673 134.648 69.7673 134.88 69.7673 135.152C69.7673 135.464 69.8913 135.716 70.1393 135.908C70.3873 136.092 70.7313 136.184 71.1713 136.184C71.6033 136.184 71.9793 136.088 72.2993 135.896C72.6273 135.704 72.8633 135.424 73.0073 135.056L73.2353 135.848C73.0833 136.224 72.8153 136.524 72.4313 136.748C72.0473 136.964 71.5633 137.072 70.9793 137.072ZM82.9099 130.58C83.4299 130.58 83.8859 130.68 84.2779 130.88C84.6779 131.08 84.9899 131.384 85.2139 131.792C85.4379 132.2 85.5499 132.716 85.5499 133.34V137H84.3979V133.472C84.3979 132.856 84.2459 132.392 83.9419 132.08C83.6459 131.768 83.2259 131.612 82.6819 131.612C82.2739 131.612 81.9179 131.692 81.6139 131.852C81.3099 132.012 81.0739 132.248 80.9059 132.56C80.7459 132.872 80.6659 133.26 80.6659 133.724V137H79.5139V130.64H80.6179V132.356L80.4379 131.9C80.6459 131.484 80.9659 131.16 81.3979 130.928C81.8299 130.696 82.3339 130.58 82.9099 130.58ZM90.4058 137.072C89.7658 137.072 89.1978 136.932 88.7018 136.652C88.2058 136.372 87.8138 135.988 87.5258 135.5C87.2378 135.004 87.0938 134.444 87.0938 133.82C87.0938 133.188 87.2378 132.628 87.5258 132.14C87.8138 131.652 88.2058 131.272 88.7018 131C89.1978 130.72 89.7658 130.58 90.4058 130.58C91.0378 130.58 91.6018 130.72 92.0978 131C92.6018 131.272 92.9938 131.652 93.2738 132.14C93.5618 132.62 93.7058 133.18 93.7058 133.82C93.7058 134.452 93.5618 135.012 93.2738 135.5C92.9938 135.988 92.6018 136.372 92.0978 136.652C91.6018 136.932 91.0378 137.072 90.4058 137.072ZM90.4058 136.064C90.8138 136.064 91.1778 135.972 91.4978 135.788C91.8258 135.604 92.0818 135.344 92.2658 135.008C92.4498 134.664 92.5418 134.268 92.5418 133.82C92.5418 133.364 92.4498 132.972 92.2658 132.644C92.0818 132.308 91.8258 132.048 91.4978 131.864C91.1778 131.68 90.8138 131.588 90.4058 131.588C89.9978 131.588 89.6338 131.68 89.3138 131.864C88.9938 132.048 88.7378 132.308 88.5458 132.644C88.3538 132.972 88.2578 133.364 88.2578 133.82C88.2578 134.268 88.3538 134.664 88.5458 135.008C88.7378 135.344 88.9938 135.604 89.3138 135.788C89.6338 135.972 89.9978 136.064 90.4058 136.064ZM101.306 139.4C100.722 139.4 100.154 139.316 99.6017 139.148C99.0577 138.988 98.6137 138.756 98.2697 138.452L98.8217 137.564C99.1177 137.82 99.4817 138.02 99.9137 138.164C100.346 138.316 100.798 138.392 101.27 138.392C102.022 138.392 102.574 138.216 102.926 137.864C103.278 137.512 103.454 136.976 103.454 136.256V134.912L103.574 133.652L103.514 132.38V130.64H104.606V136.136C104.606 137.256 104.326 138.08 103.766 138.608C103.206 139.136 102.386 139.4 101.306 139.4ZM101.162 136.736C100.546 136.736 99.9937 136.608 99.5057 136.352C99.0257 136.088 98.6417 135.724 98.3537 135.26C98.0737 134.796 97.9337 134.26 97.9337 133.652C97.9337 133.036 98.0737 132.5 98.3537 132.044C98.6417 131.58 99.0257 131.22 99.5057 130.964C99.9937 130.708 100.546 130.58 101.162 130.58C101.706 130.58 102.202 130.692 102.65 130.916C103.098 131.132 103.454 131.468 103.718 131.924C103.99 132.38 104.126 132.956 104.126 133.652C104.126 134.34 103.99 134.912 103.718 135.368C103.454 135.824 103.098 136.168 102.65 136.4C102.202 136.624 101.706 136.736 101.162 136.736ZM101.294 135.728C101.718 135.728 102.094 135.64 102.422 135.464C102.75 135.288 103.006 135.044 103.19 134.732C103.382 134.42 103.478 134.06 103.478 133.652C103.478 133.244 103.382 132.884 103.19 132.572C103.006 132.26 102.75 132.02 102.422 131.852C102.094 131.676 101.718 131.588 101.294 131.588C100.87 131.588 100.49 131.676 100.154 131.852C99.8257 132.02 99.5657 132.26 99.3737 132.572C99.1897 132.884 99.0977 133.244 99.0977 133.652C99.0977 134.06 99.1897 134.42 99.3737 134.732C99.5657 135.044 99.8257 135.288 100.154 135.464C100.49 135.64 100.87 135.728 101.294 135.728ZM106.807 137V130.64H107.911V132.368L107.803 131.936C107.979 131.496 108.275 131.16 108.691 130.928C109.107 130.696 109.619 130.58 110.227 130.58V131.696C110.179 131.688 110.131 131.684 110.083 131.684C110.043 131.684 110.003 131.684 109.963 131.684C109.347 131.684 108.859 131.868 108.499 132.236C108.139 132.604 107.959 133.136 107.959 133.832V137H106.807ZM115.126 137V135.656L115.066 135.404V133.112C115.066 132.624 114.922 132.248 114.634 131.984C114.354 131.712 113.93 131.576 113.362 131.576C112.986 131.576 112.618 131.64 112.258 131.768C111.898 131.888 111.594 132.052 111.346 132.26L110.866 131.396C111.194 131.132 111.586 130.932 112.042 130.796C112.506 130.652 112.99 130.58 113.494 130.58C114.366 130.58 115.038 130.792 115.51 131.216C115.982 131.64 116.218 132.288 116.218 133.16V137H115.126ZM113.038 137.072C112.566 137.072 112.15 136.992 111.79 136.832C111.438 136.672 111.166 136.452 110.974 136.172C110.782 135.884 110.686 135.56 110.686 135.2C110.686 134.856 110.766 134.544 110.926 134.264C111.094 133.984 111.362 133.76 111.73 133.592C112.106 133.424 112.61 133.34 113.242 133.34H115.258V134.168H113.29C112.714 134.168 112.326 134.264 112.126 134.456C111.926 134.648 111.826 134.88 111.826 135.152C111.826 135.464 111.95 135.716 112.198 135.908C112.446 136.092 112.79 136.184 113.23 136.184C113.662 136.184 114.038 136.088 114.358 135.896C114.686 135.704 114.922 135.424 115.066 135.056L115.294 135.848C115.142 136.224 114.874 136.524 114.49 136.748C114.106 136.964 113.622 137.072 113.038 137.072ZM112.678 129.716L114.31 128.156H115.774L113.758 129.716H112.678ZM118.518 137V130.076C118.518 129.452 118.698 128.956 119.058 128.588C119.426 128.212 119.946 128.024 120.618 128.024C120.866 128.024 121.102 128.056 121.326 128.12C121.558 128.176 121.754 128.268 121.914 128.396L121.566 129.272C121.446 129.176 121.31 129.104 121.158 129.056C121.006 129 120.846 128.972 120.678 128.972C120.342 128.972 120.086 129.068 119.91 129.26C119.734 129.444 119.646 129.72 119.646 130.088V130.94L119.67 131.468V137H118.518ZM117.438 131.588V130.64H121.494V131.588H117.438ZM122.586 137V130.64H123.738V137H122.586ZM123.162 129.416C122.938 129.416 122.75 129.344 122.598 129.2C122.454 129.056 122.382 128.88 122.382 128.672C122.382 128.456 122.454 128.276 122.598 128.132C122.75 127.988 122.938 127.916 123.162 127.916C123.386 127.916 123.57 127.988 123.714 128.132C123.866 128.268 123.942 128.44 123.942 128.648C123.942 128.864 123.87 129.048 123.726 129.2C123.582 129.344 123.394 129.416 123.162 129.416ZM128.704 137.072C128.056 137.072 127.476 136.932 126.964 136.652C126.46 136.372 126.064 135.988 125.776 135.5C125.488 135.012 125.344 134.452 125.344 133.82C125.344 133.188 125.488 132.628 125.776 132.14C126.064 131.652 126.46 131.272 126.964 131C127.476 130.72 128.056 130.58 128.704 130.58C129.28 130.58 129.792 130.696 130.24 130.928C130.696 131.152 131.048 131.488 131.296 131.936L130.42 132.5C130.212 132.188 129.956 131.96 129.652 131.816C129.356 131.664 129.036 131.588 128.692 131.588C128.276 131.588 127.904 131.68 127.576 131.864C127.248 132.048 126.988 132.308 126.796 132.644C126.604 132.972 126.508 133.364 126.508 133.82C126.508 134.276 126.604 134.672 126.796 135.008C126.988 135.344 127.248 135.604 127.576 135.788C127.904 135.972 128.276 136.064 128.692 136.064C129.036 136.064 129.356 135.992 129.652 135.848C129.956 135.696 130.212 135.464 130.42 135.152L131.296 135.704C131.048 136.144 130.696 136.484 130.24 136.724C129.792 136.956 129.28 137.072 128.704 137.072ZM135.418 137.072C134.778 137.072 134.21 136.932 133.714 136.652C133.218 136.372 132.826 135.988 132.538 135.5C132.25 135.004 132.106 134.444 132.106 133.82C132.106 133.188 132.25 132.628 132.538 132.14C132.826 131.652 133.218 131.272 133.714 131C134.21 130.72 134.778 130.58 135.418 130.58C136.05 130.58 136.614 130.72 137.11 131C137.614 131.272 138.006 131.652 138.286 132.14C138.574 132.62 138.718 133.18 138.718 133.82C138.718 134.452 138.574 135.012 138.286 135.5C138.006 135.988 137.614 136.372 137.11 136.652C136.614 136.932 136.05 137.072 135.418 137.072ZM135.418 136.064C135.826 136.064 136.19 135.972 136.51 135.788C136.838 135.604 137.094 135.344 137.278 135.008C137.462 134.664 137.554 134.268 137.554 133.82C137.554 133.364 137.462 132.972 137.278 132.644C137.094 132.308 136.838 132.048 136.51 131.864C136.19 131.68 135.826 131.588 135.418 131.588C135.01 131.588 134.646 131.68 134.326 131.864C134.006 132.048 133.75 132.308 133.558 132.644C133.366 132.972 133.27 133.364 133.27 133.82C133.27 134.268 133.366 134.664 133.558 135.008C133.75 135.344 134.006 135.604 134.326 135.788C134.646 135.972 135.01 136.064 135.418 136.064ZM147.481 137V135.656L147.421 135.404V133.112C147.421 132.624 147.277 132.248 146.989 131.984C146.709 131.712 146.285 131.576 145.717 131.576C145.341 131.576 144.973 131.64 144.613 131.768C144.253 131.888 143.949 132.052 143.701 132.26L143.221 131.396C143.549 131.132 143.941 130.932 144.397 130.796C144.861 130.652 145.345 130.58 145.849 130.58C146.721 130.58 147.393 130.792 147.865 131.216C148.337 131.64 148.573 132.288 148.573 133.16V137H147.481ZM145.393 137.072C144.921 137.072 144.505 136.992 144.145 136.832C143.793 136.672 143.521 136.452 143.329 136.172C143.137 135.884 143.041 135.56 143.041 135.2C143.041 134.856 143.121 134.544 143.281 134.264C143.449 133.984 143.717 133.76 144.085 133.592C144.461 133.424 144.965 133.34 145.597 133.34H147.613V134.168H145.645C145.069 134.168 144.681 134.264 144.481 134.456C144.281 134.648 144.181 134.88 144.181 135.152C144.181 135.464 144.305 135.716 144.553 135.908C144.801 136.092 145.145 136.184 145.585 136.184C146.017 136.184 146.393 136.088 146.713 135.896C147.041 135.704 147.277 135.424 147.421 135.056L147.649 135.848C147.497 136.224 147.229 136.524 146.845 136.748C146.461 136.964 145.977 137.072 145.393 137.072ZM153.429 137.072C152.789 137.072 152.221 136.932 151.725 136.652C151.229 136.372 150.837 135.988 150.549 135.5C150.261 135.004 150.117 134.444 150.117 133.82C150.117 133.188 150.261 132.628 150.549 132.14C150.837 131.652 151.229 131.272 151.725 131C152.221 130.72 152.789 130.58 153.429 130.58C154.061 130.58 154.625 130.72 155.121 131C155.625 131.272 156.017 131.652 156.297 132.14C156.585 132.62 156.729 133.18 156.729 133.82C156.729 134.452 156.585 135.012 156.297 135.5C156.017 135.988 155.625 136.372 155.121 136.652C154.625 136.932 154.061 137.072 153.429 137.072ZM153.429 136.064C153.837 136.064 154.201 135.972 154.521 135.788C154.849 135.604 155.105 135.344 155.289 135.008C155.473 134.664 155.565 134.268 155.565 133.82C155.565 133.364 155.473 132.972 155.289 132.644C155.105 132.308 154.849 132.048 154.521 131.864C154.201 131.68 153.837 131.588 153.429 131.588C153.021 131.588 152.657 131.68 152.337 131.864C152.017 132.048 151.761 132.308 151.569 132.644C151.377 132.972 151.281 133.364 151.281 133.82C151.281 134.268 151.377 134.664 151.569 135.008C151.761 135.344 152.017 135.604 152.337 135.788C152.657 135.972 153.021 136.064 153.429 136.064ZM47.5686 152V143.096H48.7206V152H47.5686ZM53.6441 152.072C53.0041 152.072 52.4361 151.932 51.9401 151.652C51.4441 151.372 51.0521 150.988 50.7641 150.5C50.4761 150.004 50.3321 149.444 50.3321 148.82C50.3321 148.188 50.4761 147.628 50.7641 147.14C51.0521 146.652 51.4441 146.272 51.9401 146C52.4361 145.72 53.0041 145.58 53.6441 145.58C54.2761 145.58 54.8401 145.72 55.3361 146C55.8401 146.272 56.2321 146.652 56.5121 147.14C56.8001 147.62 56.9441 148.18 56.9441 148.82C56.9441 149.452 56.8001 150.012 56.5121 150.5C56.2321 150.988 55.8401 151.372 55.3361 151.652C54.8401 151.932 54.2761 152.072 53.6441 152.072ZM53.6441 151.064C54.0521 151.064 54.4161 150.972 54.7361 150.788C55.0641 150.604 55.3201 150.344 55.5041 150.008C55.6881 149.664 55.7801 149.268 55.7801 148.82C55.7801 148.364 55.6881 147.972 55.5041 147.644C55.3201 147.308 55.0641 147.048 54.7361 146.864C54.4161 146.68 54.0521 146.588 53.6441 146.588C53.2361 146.588 52.8721 146.68 52.5521 146.864C52.2321 147.048 51.9761 147.308 51.7841 147.644C51.5921 147.972 51.4961 148.364 51.4961 148.82C51.4961 149.268 51.5921 149.664 51.7841 150.008C51.9761 150.344 52.2321 150.604 52.5521 150.788C52.8721 150.972 53.2361 151.064 53.6441 151.064ZM61.9333 145.58C62.4533 145.58 62.9093 145.68 63.3013 145.88C63.7013 146.08 64.0133 146.384 64.2373 146.792C64.4613 147.2 64.5733 147.716 64.5733 148.34V152H63.4213V148.472C63.4213 147.856 63.2693 147.392 62.9653 147.08C62.6693 146.768 62.2493 146.612 61.7053 146.612C61.2973 146.612 60.9413 146.692 60.6373 146.852C60.3333 147.012 60.0973 147.248 59.9293 147.56C59.7693 147.872 59.6893 148.26 59.6893 148.724V152H58.5373V145.64H59.6413V147.356L59.4613 146.9C59.6693 146.484 59.9893 146.16 60.4213 145.928C60.8533 145.696 61.3573 145.58 61.9333 145.58ZM69.4893 154.4C68.9053 154.4 68.3373 154.316 67.7853 154.148C67.2413 153.988 66.7973 153.756 66.4533 153.452L67.0053 152.564C67.3013 152.82 67.6653 153.02 68.0973 153.164C68.5293 153.316 68.9813 153.392 69.4533 153.392C70.2053 153.392 70.7573 153.216 71.1093 152.864C71.4613 152.512 71.6373 151.976 71.6373 151.256V149.912L71.7573 148.652L71.6973 147.38V145.64H72.7893V151.136C72.7893 152.256 72.5093 153.08 71.9493 153.608C71.3893 154.136 70.5693 154.4 69.4893 154.4ZM69.3453 151.736C68.7293 151.736 68.1773 151.608 67.6893 151.352C67.2093 151.088 66.8253 150.724 66.5373 150.26C66.2573 149.796 66.1173 149.26 66.1173 148.652C66.1173 148.036 66.2573 147.5 66.5373 147.044C66.8253 146.58 67.2093 146.22 67.6893 145.964C68.1773 145.708 68.7293 145.58 69.3453 145.58C69.8893 145.58 70.3853 145.692 70.8333 145.916C71.2813 146.132 71.6373 146.468 71.9013 146.924C72.1733 147.38 72.3093 147.956 72.3093 148.652C72.3093 149.34 72.1733 149.912 71.9013 150.368C71.6373 150.824 71.2813 151.168 70.8333 151.4C70.3853 151.624 69.8893 151.736 69.3453 151.736ZM69.4773 150.728C69.9013 150.728 70.2773 150.64 70.6053 150.464C70.9333 150.288 71.1893 150.044 71.3733 149.732C71.5653 149.42 71.6613 149.06 71.6613 148.652C71.6613 148.244 71.5653 147.884 71.3733 147.572C71.1893 147.26 70.9333 147.02 70.6053 146.852C70.2773 146.676 69.9013 146.588 69.4773 146.588C69.0533 146.588 68.6733 146.676 68.3373 146.852C68.0093 147.02 67.7493 147.26 67.5573 147.572C67.3733 147.884 67.2813 148.244 67.2813 148.652C67.2813 149.06 67.3733 149.42 67.5573 149.732C67.7493 150.044 68.0093 150.288 68.3373 150.464C68.6733 150.64 69.0533 150.728 69.4773 150.728ZM77.7144 152.072C77.0744 152.072 76.5064 151.932 76.0104 151.652C75.5144 151.372 75.1224 150.988 74.8344 150.5C74.5464 150.004 74.4024 149.444 74.4024 148.82C74.4024 148.188 74.5464 147.628 74.8344 147.14C75.1224 146.652 75.5144 146.272 76.0104 146C76.5064 145.72 77.0744 145.58 77.7144 145.58C78.3464 145.58 78.9104 145.72 79.4064 146C79.9104 146.272 80.3024 146.652 80.5824 147.14C80.8704 147.62 81.0144 148.18 81.0144 148.82C81.0144 149.452 80.8704 150.012 80.5824 150.5C80.3024 150.988 79.9104 151.372 79.4064 151.652C78.9104 151.932 78.3464 152.072 77.7144 152.072ZM77.7144 151.064C78.1224 151.064 78.4864 150.972 78.8064 150.788C79.1344 150.604 79.3904 150.344 79.5744 150.008C79.7584 149.664 79.8504 149.268 79.8504 148.82C79.8504 148.364 79.7584 147.972 79.5744 147.644C79.3904 147.308 79.1344 147.048 78.8064 146.864C78.4864 146.68 78.1224 146.588 77.7144 146.588C77.3064 146.588 76.9424 146.68 76.6224 146.864C76.3024 147.048 76.0464 147.308 75.8544 147.644C75.6624 147.972 75.5664 148.364 75.5664 148.82C75.5664 149.268 75.6624 149.664 75.8544 150.008C76.0464 150.344 76.3024 150.604 76.6224 150.788C76.9424 150.972 77.3064 151.064 77.7144 151.064ZM88.4583 152.072C87.8423 152.072 87.2903 151.936 86.8023 151.664C86.3223 151.392 85.9423 151.012 85.6623 150.524C85.3823 150.036 85.2423 149.468 85.2423 148.82C85.2423 148.172 85.3823 147.608 85.6623 147.128C85.9423 146.64 86.3223 146.26 86.8023 145.988C87.2903 145.716 87.8423 145.58 88.4583 145.58C88.9943 145.58 89.4783 145.7 89.9103 145.94C90.3423 146.18 90.6863 146.54 90.9423 147.02C91.2063 147.5 91.3383 148.1 91.3383 148.82C91.3383 149.54 91.2103 150.14 90.9543 150.62C90.7063 151.1 90.3663 151.464 89.9343 151.712C89.5023 151.952 89.0103 152.072 88.4583 152.072ZM88.5543 151.064C88.9543 151.064 89.3143 150.972 89.6343 150.788C89.9623 150.604 90.2183 150.344 90.4023 150.008C90.5943 149.664 90.6903 149.268 90.6903 148.82C90.6903 148.364 90.5943 147.972 90.4023 147.644C90.2183 147.308 89.9623 147.048 89.6343 146.864C89.3143 146.68 88.9543 146.588 88.5543 146.588C88.1463 146.588 87.7823 146.68 87.4623 146.864C87.1423 147.048 86.8863 147.308 86.6943 147.644C86.5023 147.972 86.4063 148.364 86.4063 148.82C86.4063 149.268 86.5023 149.664 86.6943 150.008C86.8863 150.344 87.1423 150.604 87.4623 150.788C87.7823 150.972 88.1463 151.064 88.5543 151.064ZM90.7263 152V150.284L90.7983 148.808L90.6783 147.332V143.096H91.8303V152H90.7263ZM97.958 152V150.656L97.898 150.404V148.112C97.898 147.624 97.754 147.248 97.466 146.984C97.186 146.712 96.762 146.576 96.194 146.576C95.818 146.576 95.45 146.64 95.09 146.768C94.73 146.888 94.426 147.052 94.178 147.26L93.698 146.396C94.026 146.132 94.418 145.932 94.874 145.796C95.338 145.652 95.822 145.58 96.326 145.58C97.198 145.58 97.87 145.792 98.342 146.216C98.814 146.64 99.05 147.288 99.05 148.16V152H97.958ZM95.87 152.072C95.398 152.072 94.982 151.992 94.622 151.832C94.27 151.672 93.998 151.452 93.806 151.172C93.614 150.884 93.518 150.56 93.518 150.2C93.518 149.856 93.598 149.544 93.758 149.264C93.926 148.984 94.194 148.76 94.562 148.592C94.938 148.424 95.442 148.34 96.074 148.34H98.09V149.168H96.122C95.546 149.168 95.158 149.264 94.958 149.456C94.758 149.648 94.658 149.88 94.658 150.152C94.658 150.464 94.782 150.716 95.03 150.908C95.278 151.092 95.622 151.184 96.062 151.184C96.494 151.184 96.87 151.088 97.19 150.896C97.518 150.704 97.754 150.424 97.898 150.056L98.126 150.848C97.974 151.224 97.706 151.524 97.322 151.748C96.938 151.964 96.454 152.072 95.87 152.072ZM104.405 152V143.096H105.557V152H104.405ZM107.756 152V145.64H108.908V152H107.756ZM108.332 144.416C108.108 144.416 107.92 144.344 107.768 144.2C107.624 144.056 107.552 143.88 107.552 143.672C107.552 143.456 107.624 143.276 107.768 143.132C107.92 142.988 108.108 142.916 108.332 142.916C108.556 142.916 108.74 142.988 108.884 143.132C109.036 143.268 109.112 143.44 109.112 143.648C109.112 143.864 109.04 144.048 108.896 144.2C108.752 144.344 108.564 144.416 108.332 144.416ZM114.504 145.58C115.024 145.58 115.48 145.68 115.872 145.88C116.272 146.08 116.584 146.384 116.808 146.792C117.032 147.2 117.144 147.716 117.144 148.34V152H115.992V148.472C115.992 147.856 115.84 147.392 115.536 147.08C115.24 146.768 114.82 146.612 114.276 146.612C113.868 146.612 113.512 146.692 113.208 146.852C112.904 147.012 112.668 147.248 112.5 147.56C112.34 147.872 112.26 148.26 112.26 148.724V152H111.108V145.64H112.212V147.356L112.032 146.9C112.24 146.484 112.56 146.16 112.992 145.928C113.424 145.696 113.928 145.58 114.504 145.58ZM122.672 145.58C123.192 145.58 123.648 145.68 124.04 145.88C124.44 146.08 124.752 146.384 124.976 146.792C125.2 147.2 125.312 147.716 125.312 148.34V152H124.16V148.472C124.16 147.856 124.008 147.392 123.704 147.08C123.408 146.768 122.988 146.612 122.444 146.612C122.036 146.612 121.68 146.692 121.376 146.852C121.072 147.012 120.836 147.248 120.668 147.56C120.508 147.872 120.428 148.26 120.428 148.724V152H119.276V143.096H120.428V147.356L120.2 146.9C120.408 146.484 120.728 146.16 121.16 145.928C121.592 145.696 122.096 145.58 122.672 145.58ZM131.392 152V150.656L131.332 150.404V148.112C131.332 147.624 131.188 147.248 130.9 146.984C130.62 146.712 130.196 146.576 129.628 146.576C129.252 146.576 128.884 146.64 128.524 146.768C128.164 146.888 127.86 147.052 127.612 147.26L127.132 146.396C127.46 146.132 127.852 145.932 128.308 145.796C128.772 145.652 129.256 145.58 129.76 145.58C130.632 145.58 131.304 145.792 131.776 146.216C132.248 146.64 132.484 147.288 132.484 148.16V152H131.392ZM129.304 152.072C128.832 152.072 128.416 151.992 128.056 151.832C127.704 151.672 127.432 151.452 127.24 151.172C127.048 150.884 126.952 150.56 126.952 150.2C126.952 149.856 127.032 149.544 127.192 149.264C127.36 148.984 127.628 148.76 127.996 148.592C128.372 148.424 128.876 148.34 129.508 148.34H131.524V149.168H129.556C128.98 149.168 128.592 149.264 128.392 149.456C128.192 149.648 128.092 149.88 128.092 150.152C128.092 150.464 128.216 150.716 128.464 150.908C128.712 151.092 129.056 151.184 129.496 151.184C129.928 151.184 130.304 151.088 130.624 150.896C130.952 150.704 131.188 150.424 131.332 150.056L131.56 150.848C131.408 151.224 131.14 151.524 130.756 151.748C130.372 151.964 129.888 152.072 129.304 152.072ZM59.9406 167.072C59.4126 167.072 58.9286 166.952 58.4886 166.712C58.0566 166.464 57.7086 166.1 57.4446 165.62C57.1886 165.14 57.0606 164.54 57.0606 163.82C57.0606 163.1 57.1846 162.5 57.4326 162.02C57.6886 161.54 58.0326 161.18 58.4646 160.94C58.9046 160.7 59.3966 160.58 59.9406 160.58C60.5646 160.58 61.1166 160.716 61.5966 160.988C62.0766 161.26 62.4566 161.64 62.7366 162.128C63.0166 162.608 63.1566 163.172 63.1566 163.82C63.1566 164.468 63.0166 165.036 62.7366 165.524C62.4566 166.012 62.0766 166.392 61.5966 166.664C61.1166 166.936 60.5646 167.072 59.9406 167.072ZM56.5686 169.328V160.64H57.6726V162.356L57.6006 163.832L57.7206 165.308V169.328H56.5686ZM59.8446 166.064C60.2526 166.064 60.6166 165.972 60.9366 165.788C61.2646 165.604 61.5206 165.344 61.7046 165.008C61.8966 164.664 61.9926 164.268 61.9926 163.82C61.9926 163.364 61.8966 162.972 61.7046 162.644C61.5206 162.308 61.2646 162.048 60.9366 161.864C60.6166 161.68 60.2526 161.588 59.8446 161.588C59.4446 161.588 59.0806 161.68 58.7526 161.864C58.4326 162.048 58.1766 162.308 57.9846 162.644C57.8006 162.972 57.7086 163.364 57.7086 163.82C57.7086 164.268 57.8006 164.664 57.9846 165.008C58.1766 165.344 58.4326 165.604 58.7526 165.788C59.0806 165.972 59.4446 166.064 59.8446 166.064ZM67.4723 167.072C66.8323 167.072 66.2643 166.932 65.7683 166.652C65.2723 166.372 64.8803 165.988 64.5923 165.5C64.3043 165.004 64.1603 164.444 64.1603 163.82C64.1603 163.188 64.3043 162.628 64.5923 162.14C64.8803 161.652 65.2723 161.272 65.7683 161C66.2643 160.72 66.8323 160.58 67.4723 160.58C68.1043 160.58 68.6683 160.72 69.1643 161C69.6683 161.272 70.0603 161.652 70.3403 162.14C70.6283 162.62 70.7723 163.18 70.7723 163.82C70.7723 164.452 70.6283 165.012 70.3403 165.5C70.0603 165.988 69.6683 166.372 69.1643 166.652C68.6683 166.932 68.1043 167.072 67.4723 167.072ZM67.4723 166.064C67.8803 166.064 68.2443 165.972 68.5643 165.788C68.8923 165.604 69.1483 165.344 69.3323 165.008C69.5163 164.664 69.6083 164.268 69.6083 163.82C69.6083 163.364 69.5163 162.972 69.3323 162.644C69.1483 162.308 68.8923 162.048 68.5643 161.864C68.2443 161.68 67.8803 161.588 67.4723 161.588C67.0643 161.588 66.7003 161.68 66.3803 161.864C66.0603 162.048 65.8043 162.308 65.6123 162.644C65.4203 162.972 65.3243 163.364 65.3243 163.82C65.3243 164.268 65.4203 164.664 65.6123 165.008C65.8043 165.344 66.0603 165.604 66.3803 165.788C66.7003 165.972 67.0643 166.064 67.4723 166.064ZM75.7614 160.58C76.2814 160.58 76.7374 160.68 77.1294 160.88C77.5294 161.08 77.8414 161.384 78.0654 161.792C78.2894 162.2 78.4014 162.716 78.4014 163.34V167H77.2494V163.472C77.2494 162.856 77.0974 162.392 76.7934 162.08C76.4974 161.768 76.0774 161.612 75.5334 161.612C75.1254 161.612 74.7694 161.692 74.4654 161.852C74.1614 162.012 73.9254 162.248 73.7574 162.56C73.5974 162.872 73.5174 163.26 73.5174 163.724V167H72.3654V160.64H73.4694V162.356L73.2894 161.9C73.4974 161.484 73.8174 161.16 74.2494 160.928C74.6814 160.696 75.1854 160.58 75.7614 160.58ZM82.7174 167.072C82.0774 167.072 81.5814 166.9 81.2294 166.556C80.8774 166.212 80.7014 165.72 80.7014 165.08V159.248H81.8534V165.032C81.8534 165.376 81.9374 165.64 82.1054 165.824C82.2814 166.008 82.5294 166.1 82.8494 166.1C83.2094 166.1 83.5094 166 83.7494 165.8L84.1094 166.628C83.9334 166.78 83.7214 166.892 83.4734 166.964C83.2334 167.036 82.9814 167.072 82.7174 167.072ZM79.6214 161.588V160.64H83.6774V161.588H79.6214ZM85.5022 167V160.64H86.6542V167H85.5022ZM86.0782 159.416C85.8542 159.416 85.6662 159.344 85.5142 159.2C85.3702 159.056 85.2982 158.88 85.2982 158.672C85.2982 158.456 85.3702 158.276 85.5142 158.132C85.6662 157.988 85.8542 157.916 86.0782 157.916C86.3022 157.916 86.4862 157.988 86.6302 158.132C86.7822 158.268 86.8582 158.44 86.8582 158.648C86.8582 158.864 86.7862 159.048 86.6422 159.2C86.4982 159.344 86.3102 159.416 86.0782 159.416ZM88.8537 167V158.096H90.0057V167H88.8537ZM95.6013 160.58C96.1213 160.58 96.5773 160.68 96.9693 160.88C97.3693 161.08 97.6813 161.384 97.9053 161.792C98.1293 162.2 98.2413 162.716 98.2413 163.34V167H97.0893V163.472C97.0893 162.856 96.9373 162.392 96.6333 162.08C96.3373 161.768 95.9173 161.612 95.3733 161.612C94.9653 161.612 94.6093 161.692 94.3053 161.852C94.0013 162.012 93.7653 162.248 93.5973 162.56C93.4373 162.872 93.3573 163.26 93.3573 163.724V167H92.2053V158.096H93.3573V162.356L93.1293 161.9C93.3373 161.484 93.6573 161.16 94.0893 160.928C94.5213 160.696 95.0253 160.58 95.6013 160.58ZM104.321 167V165.656L104.261 165.404V163.112C104.261 162.624 104.117 162.248 103.829 161.984C103.549 161.712 103.125 161.576 102.557 161.576C102.181 161.576 101.813 161.64 101.453 161.768C101.093 161.888 100.789 162.052 100.541 162.26L100.061 161.396C100.389 161.132 100.781 160.932 101.237 160.796C101.701 160.652 102.185 160.58 102.689 160.58C103.561 160.58 104.233 160.792 104.705 161.216C105.177 161.64 105.413 162.288 105.413 163.16V167H104.321ZM102.233 167.072C101.761 167.072 101.345 166.992 100.985 166.832C100.633 166.672 100.361 166.452 100.169 166.172C99.9773 165.884 99.8813 165.56 99.8813 165.2C99.8813 164.856 99.9613 164.544 100.121 164.264C100.289 163.984 100.557 163.76 100.925 163.592C101.301 163.424 101.805 163.34 102.437 163.34H104.453V164.168H102.485C101.909 164.168 101.521 164.264 101.321 164.456C101.121 164.648 101.021 164.88 101.021 165.152C101.021 165.464 101.145 165.716 101.393 165.908C101.641 166.092 101.985 166.184 102.425 166.184C102.857 166.184 103.233 166.088 103.553 165.896C103.881 165.704 104.117 165.424 104.261 165.056L104.489 165.848C104.337 166.224 104.069 166.524 103.685 166.748C103.301 166.964 102.817 167.072 102.233 167.072ZM110.173 167.072C109.557 167.072 109.005 166.936 108.517 166.664C108.037 166.392 107.657 166.012 107.377 165.524C107.097 165.036 106.957 164.468 106.957 163.82C106.957 163.172 107.097 162.608 107.377 162.128C107.657 161.64 108.037 161.26 108.517 160.988C109.005 160.716 109.557 160.58 110.173 160.58C110.709 160.58 111.193 160.7 111.625 160.94C112.057 161.18 112.401 161.54 112.657 162.02C112.921 162.5 113.053 163.1 113.053 163.82C113.053 164.54 112.925 165.14 112.669 165.62C112.421 166.1 112.081 166.464 111.649 166.712C111.217 166.952 110.725 167.072 110.173 167.072ZM110.269 166.064C110.669 166.064 111.029 165.972 111.349 165.788C111.677 165.604 111.933 165.344 112.117 165.008C112.309 164.664 112.405 164.268 112.405 163.82C112.405 163.364 112.309 162.972 112.117 162.644C111.933 162.308 111.677 162.048 111.349 161.864C111.029 161.68 110.669 161.588 110.269 161.588C109.861 161.588 109.497 161.68 109.177 161.864C108.857 162.048 108.601 162.308 108.409 162.644C108.217 162.972 108.121 163.364 108.121 163.82C108.121 164.268 108.217 164.664 108.409 165.008C108.601 165.344 108.857 165.604 109.177 165.788C109.497 165.972 109.861 166.064 110.269 166.064ZM112.441 167V165.284L112.513 163.808L112.393 162.332V158.096H113.545V167H112.441ZM119.673 167V165.656L119.613 165.404V163.112C119.613 162.624 119.469 162.248 119.181 161.984C118.901 161.712 118.477 161.576 117.909 161.576C117.533 161.576 117.165 161.64 116.805 161.768C116.445 161.888 116.141 162.052 115.893 162.26L115.413 161.396C115.741 161.132 116.133 160.932 116.589 160.796C117.053 160.652 117.537 160.58 118.041 160.58C118.913 160.58 119.585 160.792 120.057 161.216C120.529 161.64 120.765 162.288 120.765 163.16V167H119.673ZM117.585 167.072C117.113 167.072 116.697 166.992 116.337 166.832C115.985 166.672 115.713 166.452 115.521 166.172C115.329 165.884 115.233 165.56 115.233 165.2C115.233 164.856 115.313 164.544 115.473 164.264C115.641 163.984 115.909 163.76 116.277 163.592C116.653 163.424 117.157 163.34 117.789 163.34H119.805V164.168H117.837C117.261 164.168 116.873 164.264 116.673 164.456C116.473 164.648 116.373 164.88 116.373 165.152C116.373 165.464 116.497 165.716 116.745 165.908C116.993 166.092 117.337 166.184 117.777 166.184C118.209 166.184 118.585 166.088 118.905 165.896C119.233 165.704 119.469 165.424 119.613 165.056L119.841 165.848C119.689 166.224 119.421 166.524 119.037 166.748C118.653 166.964 118.169 167.072 117.585 167.072ZM123.173 167.072C122.949 167.072 122.757 166.996 122.597 166.844C122.437 166.684 122.357 166.484 122.357 166.244C122.357 166.004 122.437 165.808 122.597 165.656C122.757 165.504 122.949 165.428 123.173 165.428C123.389 165.428 123.573 165.504 123.725 165.656C123.885 165.808 123.965 166.004 123.965 166.244C123.965 166.484 123.885 166.684 123.725 166.844C123.573 166.996 123.389 167.072 123.173 167.072Z" fill="#008E86"/>
<path d="M60.7471 50.093C61.296 50.032 61.7905 50.4275 61.8515 50.9764C61.9125 51.5253 61.5169 52.0197 60.968 52.0807L60.7471 50.093ZM79.2225 24.4902C79.7498 24.6544 80.0442 25.2149 79.8801 25.7423L77.2053 34.3356C77.0412 34.8629 76.4806 35.1573 75.9533 34.9932C75.426 34.8291 75.1315 34.2685 75.2957 33.7412L77.6733 26.1027L70.0347 23.7251C69.5074 23.5609 69.213 23.0004 69.3771 22.4731C69.5413 21.9457 70.1018 21.6513 70.6291 21.8155L79.2225 24.4902ZM60.968 52.0807C56.9997 52.5217 53.602 52.4017 51.3762 51.5362C50.2496 51.0982 49.2955 50.4184 48.8104 49.3944C48.3155 48.3499 48.4112 47.1679 48.9256 45.9599C49.9238 43.6158 52.6785 40.7299 57.381 37.2523C62.1289 33.7411 69.0057 29.5257 78.4603 24.5597L79.3903 26.3304C69.9836 31.2712 63.2047 35.433 58.5702 38.8604C53.8902 42.3213 51.5357 44.9353 50.7657 46.7435C50.396 47.6117 50.4428 48.1689 50.6178 48.5381C50.8024 48.9278 51.2369 49.3362 52.101 49.6722C53.8566 50.3548 56.849 50.5262 60.7471 50.093L60.968 52.0807Z" fill="black"/>
<path d="M75.0904 96.5167L46.0581 10.0005L134.302 98.2441L75.0904 96.5167Z" fill="#008E86" stroke="#00635D" stroke-width="2" stroke-linejoin="round"/>
<path d="M82.6388 100L46.0581 10L133.026 97.3966L82.6388 100Z" fill="#00D8CC" stroke="#00635D" stroke-width="2" stroke-linejoin="round"/>
<path d="M72.7471 38.5293L72.7471 72.5803" stroke="#00635D" stroke-width="2" stroke-dasharray="2 2"/>
<path d="M59.217 54.7347C59.4604 54.239 60.0597 54.0344 60.5554 54.2778C61.0512 54.5212 61.2557 55.1204 61.0123 55.6162L59.217 54.7347ZM89.7269 33.9135C90.2577 33.7611 90.8116 34.0679 90.9641 34.5987L93.4478 43.2492C93.6003 43.78 93.2935 44.3339 92.7627 44.4863C92.2318 44.6388 91.6779 44.332 91.5255 43.8011L89.3177 36.1118L81.6284 38.3196C81.0975 38.4721 80.5437 38.1653 80.3912 37.6345C80.2388 37.1036 80.5456 36.5497 81.0764 36.3973L89.7269 33.9135ZM61.0123 55.6162C59.5507 58.5929 58.6212 61.0408 58.1363 62.9743C57.6442 64.9365 57.6407 66.2502 57.8876 67.0313C58.0049 67.4024 58.1683 67.6221 58.336 67.7565C58.5026 67.8902 58.7387 67.9918 59.0903 68.0184C59.8368 68.075 60.9821 67.7813 62.5254 66.9373C65.5779 65.2679 69.6967 61.7194 74.3412 56.2542C78.9716 50.8055 84.0807 43.5036 89.1281 34.3902L90.8777 35.3592C85.7747 44.5729 80.5922 51.9869 75.8652 57.5493C71.1521 63.0953 66.8472 66.8532 63.4851 68.692C61.821 69.6021 60.2612 70.1129 58.9392 70.0127C58.2566 69.961 57.6175 69.7439 57.085 69.317C56.5535 68.891 56.1938 68.3085 55.9806 67.6341C55.5666 66.3243 55.6731 64.5741 56.1964 62.4878C56.7269 60.3727 57.7181 57.7875 59.217 54.7347L61.0123 55.6162Z" fill="black"/>
</svg>
