<svg width="180" height="180" viewBox="0 0 180 180" fill="none" xmlns="http://www.w3.org/2000/svg">
<rect width="180" height="180" rx="20" fill="#F2F2F2"/>
<path d="M46.8928 122V113.6H50.1688C50.9048 113.6 51.5328 113.716 52.0528 113.948C52.5728 114.18 52.9728 114.516 53.2528 114.956C53.5328 115.396 53.6728 115.92 53.6728 116.528C53.6728 117.136 53.5328 117.66 53.2528 118.1C52.9728 118.532 52.5728 118.864 52.0528 119.096C51.5328 119.328 50.9048 119.444 50.1688 119.444H47.5528L48.0928 118.892V122H46.8928ZM52.5088 122L50.3728 118.952H51.6568L53.8168 122H52.5088ZM48.0928 119.012L47.5528 118.424H50.1328C50.9008 118.424 51.4808 118.26 51.8728 117.932C52.2728 117.596 52.4728 117.128 52.4728 116.528C52.4728 115.928 52.2728 115.464 51.8728 115.136C51.4808 114.808 50.9008 114.644 50.1328 114.644H47.5528L48.0928 114.044V119.012ZM58.2756 122.072C57.5956 122.072 56.9956 121.932 56.4756 121.652C55.9636 121.372 55.5636 120.988 55.2756 120.5C54.9956 120.012 54.8556 119.452 54.8556 118.82C54.8556 118.188 54.9916 117.628 55.2636 117.14C55.5436 116.652 55.9236 116.272 56.4036 116C56.8916 115.72 57.4396 115.58 58.0476 115.58C58.6636 115.58 59.2076 115.716 59.6796 115.988C60.1516 116.26 60.5196 116.644 60.7836 117.14C61.0556 117.628 61.1916 118.2 61.1916 118.856C61.1916 118.904 61.1876 118.96 61.1796 119.024C61.1796 119.088 61.1756 119.148 61.1676 119.204H55.7556V118.376H60.5676L60.0996 118.664C60.1076 118.256 60.0236 117.892 59.8476 117.572C59.6716 117.252 59.4276 117.004 59.1156 116.828C58.8116 116.644 58.4556 116.552 58.0476 116.552C57.6476 116.552 57.2916 116.644 56.9796 116.828C56.6676 117.004 56.4236 117.256 56.2476 117.584C56.0716 117.904 55.9836 118.272 55.9836 118.688V118.88C55.9836 119.304 56.0796 119.684 56.2716 120.02C56.4716 120.348 56.7476 120.604 57.0996 120.788C57.4516 120.972 57.8556 121.064 58.3116 121.064C58.6876 121.064 59.0276 121 59.3316 120.872C59.6436 120.744 59.9156 120.552 60.1476 120.296L60.7836 121.04C60.4956 121.376 60.1356 121.632 59.7036 121.808C59.2796 121.984 58.8036 122.072 58.2756 122.072ZM66.1632 122.072C65.6352 122.072 65.1512 121.952 64.7112 121.712C64.2792 121.464 63.9312 121.1 63.6672 120.62C63.4112 120.14 63.2832 119.54 63.2832 118.82C63.2832 118.1 63.4072 117.5 63.6552 117.02C63.9112 116.54 64.2552 116.18 64.6872 115.94C65.1272 115.7 65.6192 115.58 66.1632 115.58C66.7872 115.58 67.3392 115.716 67.8192 115.988C68.2992 116.26 68.6792 116.64 68.9592 117.128C69.2392 117.608 69.3792 118.172 69.3792 118.82C69.3792 119.468 69.2392 120.036 68.9592 120.524C68.6792 121.012 68.2992 121.392 67.8192 121.664C67.3392 121.936 66.7872 122.072 66.1632 122.072ZM62.7912 124.328V115.64H63.8952V117.356L63.8232 118.832L63.9432 120.308V124.328H62.7912ZM66.0672 121.064C66.4752 121.064 66.8392 120.972 67.1592 120.788C67.4872 120.604 67.7432 120.344 67.9272 120.008C68.1192 119.664 68.2152 119.268 68.2152 118.82C68.2152 118.364 68.1192 117.972 67.9272 117.644C67.7432 117.308 67.4872 117.048 67.1592 116.864C66.8392 116.68 66.4752 116.588 66.0672 116.588C65.6672 116.588 65.3032 116.68 64.9752 116.864C64.6552 117.048 64.3992 117.308 64.2072 117.644C64.0232 117.972 63.9312 118.364 63.9312 118.82C63.9312 119.268 64.0232 119.664 64.2072 120.008C64.3992 120.344 64.6552 120.604 64.9752 120.788C65.3032 120.972 65.6672 121.064 66.0672 121.064ZM70.9709 122V115.64H72.1229V122H70.9709ZM71.5469 114.416C71.3229 114.416 71.1349 114.344 70.9829 114.2C70.8389 114.056 70.7669 113.88 70.7669 113.672C70.7669 113.456 70.8389 113.276 70.9829 113.132C71.1349 112.988 71.3229 112.916 71.5469 112.916C71.7709 112.916 71.9549 112.988 72.0989 113.132C72.2509 113.268 72.3269 113.44 72.3269 113.648C72.3269 113.864 72.2549 114.048 72.1109 114.2C71.9669 114.344 71.7789 114.416 71.5469 114.416ZM76.5065 122.072C75.8665 122.072 75.3705 121.9 75.0185 121.556C74.6665 121.212 74.4905 120.72 74.4905 120.08V114.248H75.6425V120.032C75.6425 120.376 75.7265 120.64 75.8945 120.824C76.0705 121.008 76.3185 121.1 76.6385 121.1C76.9985 121.1 77.2985 121 77.5385 120.8L77.8985 121.628C77.7225 121.78 77.5105 121.892 77.2625 121.964C77.0225 122.036 76.7705 122.072 76.5065 122.072ZM73.4105 116.588V115.64H77.4665V116.588H73.4105ZM83.2392 122V120.656L83.1792 120.404V118.112C83.1792 117.624 83.0352 117.248 82.7472 116.984C82.4672 116.712 82.0432 116.576 81.4752 116.576C81.0992 116.576 80.7312 116.64 80.3712 116.768C80.0112 116.888 79.7072 117.052 79.4592 117.26L78.9792 116.396C79.3072 116.132 79.6992 115.932 80.1552 115.796C80.6192 115.652 81.1032 115.58 81.6072 115.58C82.4792 115.58 83.1512 115.792 83.6232 116.216C84.0952 116.64 84.3312 117.288 84.3312 118.16V122H83.2392ZM81.1512 122.072C80.6792 122.072 80.2632 121.992 79.9032 121.832C79.5512 121.672 79.2792 121.452 79.0872 121.172C78.8952 120.884 78.7992 120.56 78.7992 120.2C78.7992 119.856 78.8792 119.544 79.0392 119.264C79.2072 118.984 79.4752 118.76 79.8432 118.592C80.2192 118.424 80.7232 118.34 81.3552 118.34H83.3712V119.168H81.4032C80.8272 119.168 80.4392 119.264 80.2392 119.456C80.0392 119.648 79.9392 119.88 79.9392 120.152C79.9392 120.464 80.0632 120.716 80.3112 120.908C80.5592 121.092 80.9032 121.184 81.3432 121.184C81.7752 121.184 82.1512 121.088 82.4712 120.896C82.7992 120.704 83.0352 120.424 83.1792 120.056L83.4072 120.848C83.2552 121.224 82.9872 121.524 82.6032 121.748C82.2192 121.964 81.7352 122.072 81.1512 122.072ZM92.4098 122.072C91.7698 122.072 91.2018 121.932 90.7058 121.652C90.2098 121.372 89.8178 120.988 89.5298 120.5C89.2418 120.004 89.0978 119.444 89.0978 118.82C89.0978 118.188 89.2418 117.628 89.5298 117.14C89.8178 116.652 90.2098 116.272 90.7058 116C91.2018 115.72 91.7698 115.58 92.4098 115.58C93.0418 115.58 93.6058 115.72 94.1018 116C94.6058 116.272 94.9978 116.652 95.2778 117.14C95.5658 117.62 95.7098 118.18 95.7098 118.82C95.7098 119.452 95.5658 120.012 95.2778 120.5C94.9978 120.988 94.6058 121.372 94.1018 121.652C93.6058 121.932 93.0418 122.072 92.4098 122.072ZM92.4098 121.064C92.8178 121.064 93.1818 120.972 93.5018 120.788C93.8298 120.604 94.0858 120.344 94.2698 120.008C94.4538 119.664 94.5458 119.268 94.5458 118.82C94.5458 118.364 94.4538 117.972 94.2698 117.644C94.0858 117.308 93.8298 117.048 93.5018 116.864C93.1818 116.68 92.8178 116.588 92.4098 116.588C92.0018 116.588 91.6378 116.68 91.3178 116.864C90.9978 117.048 90.7418 117.308 90.5498 117.644C90.3578 117.972 90.2618 118.364 90.2618 118.82C90.2618 119.268 90.3578 119.664 90.5498 120.008C90.7418 120.344 90.9978 120.604 91.3178 120.788C91.6378 120.972 92.0018 121.064 92.4098 121.064ZM103.898 122.072C103.37 122.072 102.886 121.952 102.446 121.712C102.014 121.464 101.666 121.1 101.402 120.62C101.146 120.14 101.018 119.54 101.018 118.82C101.018 118.1 101.142 117.5 101.39 117.02C101.646 116.54 101.99 116.18 102.422 115.94C102.862 115.7 103.354 115.58 103.898 115.58C104.522 115.58 105.074 115.716 105.554 115.988C106.034 116.26 106.414 116.64 106.694 117.128C106.974 117.608 107.114 118.172 107.114 118.82C107.114 119.468 106.974 120.036 106.694 120.524C106.414 121.012 106.034 121.392 105.554 121.664C105.074 121.936 104.522 122.072 103.898 122.072ZM100.526 124.328V115.64H101.63V117.356L101.558 118.832L101.678 120.308V124.328H100.526ZM103.802 121.064C104.21 121.064 104.574 120.972 104.894 120.788C105.222 120.604 105.478 120.344 105.662 120.008C105.854 119.664 105.95 119.268 105.95 118.82C105.95 118.364 105.854 117.972 105.662 117.644C105.478 117.308 105.222 117.048 104.894 116.864C104.574 116.68 104.21 116.588 103.802 116.588C103.402 116.588 103.038 116.68 102.71 116.864C102.39 117.048 102.134 117.308 101.942 117.644C101.758 117.972 101.666 118.364 101.666 118.82C101.666 119.268 101.758 119.664 101.942 120.008C102.134 120.344 102.39 120.604 102.71 120.788C103.038 120.972 103.402 121.064 103.802 121.064ZM112.595 122V120.656L112.535 120.404V118.112C112.535 117.624 112.391 117.248 112.103 116.984C111.823 116.712 111.399 116.576 110.831 116.576C110.455 116.576 110.087 116.64 109.727 116.768C109.367 116.888 109.063 117.052 108.815 117.26L108.335 116.396C108.663 116.132 109.055 115.932 109.511 115.796C109.975 115.652 110.459 115.58 110.963 115.58C111.835 115.58 112.507 115.792 112.979 116.216C113.451 116.64 113.687 117.288 113.687 118.16V122H112.595ZM110.507 122.072C110.035 122.072 109.619 121.992 109.259 121.832C108.907 121.672 108.635 121.452 108.443 121.172C108.251 120.884 108.155 120.56 108.155 120.2C108.155 119.856 108.235 119.544 108.395 119.264C108.563 118.984 108.831 118.76 109.199 118.592C109.575 118.424 110.079 118.34 110.711 118.34H112.727V119.168H110.759C110.183 119.168 109.795 119.264 109.595 119.456C109.395 119.648 109.295 119.88 109.295 120.152C109.295 120.464 109.419 120.716 109.667 120.908C109.915 121.092 110.259 121.184 110.699 121.184C111.131 121.184 111.507 121.088 111.827 120.896C112.155 120.704 112.391 120.424 112.535 120.056L112.763 120.848C112.611 121.224 112.343 121.524 111.959 121.748C111.575 121.964 111.091 122.072 110.507 122.072ZM117.643 122.072C117.115 122.072 116.611 122 116.131 121.856C115.659 121.712 115.287 121.536 115.015 121.328L115.495 120.416C115.767 120.6 116.103 120.756 116.503 120.884C116.903 121.012 117.311 121.076 117.727 121.076C118.263 121.076 118.647 121 118.879 120.848C119.119 120.696 119.239 120.484 119.239 120.212C119.239 120.012 119.167 119.856 119.023 119.744C118.879 119.632 118.687 119.548 118.447 119.492C118.215 119.436 117.955 119.388 117.667 119.348C117.379 119.3 117.091 119.244 116.803 119.18C116.515 119.108 116.251 119.012 116.011 118.892C115.771 118.764 115.579 118.592 115.435 118.376C115.291 118.152 115.219 117.856 115.219 117.488C115.219 117.104 115.327 116.768 115.543 116.48C115.759 116.192 116.063 115.972 116.455 115.82C116.855 115.66 117.327 115.58 117.871 115.58C118.287 115.58 118.707 115.632 119.131 115.736C119.563 115.832 119.915 115.972 120.187 116.156L119.695 117.068C119.407 116.876 119.107 116.744 118.795 116.672C118.483 116.6 118.171 116.564 117.859 116.564C117.355 116.564 116.979 116.648 116.731 116.816C116.483 116.976 116.359 117.184 116.359 117.44C116.359 117.656 116.431 117.824 116.575 117.944C116.727 118.056 116.919 118.144 117.151 118.208C117.391 118.272 117.655 118.328 117.943 118.376C118.231 118.416 118.519 118.472 118.807 118.544C119.095 118.608 119.355 118.7 119.587 118.82C119.827 118.94 120.019 119.108 120.163 119.324C120.315 119.54 120.391 119.828 120.391 120.188C120.391 120.572 120.279 120.904 120.055 121.184C119.831 121.464 119.515 121.684 119.107 121.844C118.699 121.996 118.211 122.072 117.643 122.072ZM123.654 122.072C123.126 122.072 122.622 122 122.142 121.856C121.67 121.712 121.298 121.536 121.026 121.328L121.506 120.416C121.778 120.6 122.114 120.756 122.514 120.884C122.914 121.012 123.322 121.076 123.738 121.076C124.274 121.076 124.658 121 124.89 120.848C125.13 120.696 125.25 120.484 125.25 120.212C125.25 120.012 125.178 119.856 125.034 119.744C124.89 119.632 124.698 119.548 124.458 119.492C124.226 119.436 123.966 119.388 123.678 119.348C123.39 119.3 123.102 119.244 122.814 119.18C122.526 119.108 122.262 119.012 122.022 118.892C121.782 118.764 121.59 118.592 121.446 118.376C121.302 118.152 121.23 117.856 121.23 117.488C121.23 117.104 121.338 116.768 121.554 116.48C121.77 116.192 122.074 115.972 122.466 115.82C122.866 115.66 123.338 115.58 123.882 115.58C124.298 115.58 124.718 115.632 125.142 115.736C125.574 115.832 125.926 115.972 126.198 116.156L125.706 117.068C125.418 116.876 125.118 116.744 124.806 116.672C124.494 116.6 124.182 116.564 123.87 116.564C123.366 116.564 122.99 116.648 122.742 116.816C122.494 116.976 122.37 117.184 122.37 117.44C122.37 117.656 122.442 117.824 122.586 117.944C122.738 118.056 122.93 118.144 123.162 118.208C123.402 118.272 123.666 118.328 123.954 118.376C124.242 118.416 124.53 118.472 124.818 118.544C125.106 118.608 125.366 118.7 125.598 118.82C125.838 118.94 126.03 119.108 126.174 119.324C126.326 119.54 126.402 119.828 126.402 120.188C126.402 120.572 126.29 120.904 126.066 121.184C125.842 121.464 125.526 121.684 125.118 121.844C124.71 121.996 124.222 122.072 123.654 122.072ZM130.566 122.072C129.926 122.072 129.358 121.932 128.862 121.652C128.366 121.372 127.974 120.988 127.686 120.5C127.398 120.004 127.254 119.444 127.254 118.82C127.254 118.188 127.398 117.628 127.686 117.14C127.974 116.652 128.366 116.272 128.862 116C129.358 115.72 129.926 115.58 130.566 115.58C131.198 115.58 131.762 115.72 132.258 116C132.762 116.272 133.154 116.652 133.434 117.14C133.722 117.62 133.866 118.18 133.866 118.82C133.866 119.452 133.722 120.012 133.434 120.5C133.154 120.988 132.762 121.372 132.258 121.652C131.762 121.932 131.198 122.072 130.566 122.072ZM130.566 121.064C130.974 121.064 131.338 120.972 131.658 120.788C131.986 120.604 132.242 120.344 132.426 120.008C132.61 119.664 132.702 119.268 132.702 118.82C132.702 118.364 132.61 117.972 132.426 117.644C132.242 117.308 131.986 117.048 131.658 116.864C131.338 116.68 130.974 116.588 130.566 116.588C130.158 116.588 129.794 116.68 129.474 116.864C129.154 117.048 128.898 117.308 128.706 117.644C128.514 117.972 128.418 118.364 128.418 118.82C128.418 119.268 128.514 119.664 128.706 120.008C128.898 120.344 129.154 120.604 129.474 120.788C129.794 120.972 130.158 121.064 130.566 121.064ZM38.2392 137V135.656L38.1792 135.404V133.112C38.1792 132.624 38.0352 132.248 37.7472 131.984C37.4672 131.712 37.0432 131.576 36.4752 131.576C36.0992 131.576 35.7312 131.64 35.3712 131.768C35.0112 131.888 34.7072 132.052 34.4592 132.26L33.9792 131.396C34.3072 131.132 34.6992 130.932 35.1552 130.796C35.6192 130.652 36.1032 130.58 36.6072 130.58C37.4792 130.58 38.1512 130.792 38.6232 131.216C39.0952 131.64 39.3312 132.288 39.3312 133.16V137H38.2392ZM36.1512 137.072C35.6792 137.072 35.2632 136.992 34.9032 136.832C34.5512 136.672 34.2792 136.452 34.0872 136.172C33.8952 135.884 33.7992 135.56 33.7992 135.2C33.7992 134.856 33.8792 134.544 34.0392 134.264C34.2072 133.984 34.4752 133.76 34.8432 133.592C35.2192 133.424 35.7232 133.34 36.3552 133.34H38.3712V134.168H36.4032C35.8272 134.168 35.4392 134.264 35.2392 134.456C35.0392 134.648 34.9392 134.88 34.9392 135.152C34.9392 135.464 35.0632 135.716 35.3112 135.908C35.5592 136.092 35.9032 136.184 36.3432 136.184C36.7752 136.184 37.1512 136.088 37.4712 135.896C37.7992 135.704 38.0352 135.424 38.1792 135.056L38.4072 135.848C38.2552 136.224 37.9872 136.524 37.6032 136.748C37.2192 136.964 36.7352 137.072 36.1512 137.072ZM44.8591 130.58C45.3791 130.58 45.8351 130.68 46.2271 130.88C46.6271 131.08 46.9391 131.384 47.1631 131.792C47.3871 132.2 47.4991 132.716 47.4991 133.34V137H46.3471V133.472C46.3471 132.856 46.1951 132.392 45.8911 132.08C45.5951 131.768 45.1751 131.612 44.6311 131.612C44.2231 131.612 43.8671 131.692 43.5631 131.852C43.2591 132.012 43.0231 132.248 42.8551 132.56C42.6951 132.872 42.6151 133.26 42.6151 133.724V137H41.4631V130.64H42.5671V132.356L42.3871 131.9C42.5951 131.484 42.9151 131.16 43.3471 130.928C43.7791 130.696 44.2831 130.58 44.8591 130.58ZM51.8151 137.072C51.1751 137.072 50.6791 136.9 50.3271 136.556C49.9751 136.212 49.7991 135.72 49.7991 135.08V129.248H50.9511V135.032C50.9511 135.376 51.0351 135.64 51.2031 135.824C51.3791 136.008 51.6271 136.1 51.9471 136.1C52.3071 136.1 52.6071 136 52.8471 135.8L53.2071 136.628C53.0311 136.78 52.8191 136.892 52.5711 136.964C52.3311 137.036 52.0791 137.072 51.8151 137.072ZM48.7191 131.588V130.64H52.7751V131.588H48.7191ZM57.2209 137.072C56.5409 137.072 55.9409 136.932 55.4209 136.652C54.9089 136.372 54.5089 135.988 54.2209 135.5C53.9409 135.012 53.8009 134.452 53.8009 133.82C53.8009 133.188 53.9369 132.628 54.2089 132.14C54.4889 131.652 54.8689 131.272 55.3489 131C55.8369 130.72 56.3849 130.58 56.9929 130.58C57.6089 130.58 58.1529 130.716 58.6249 130.988C59.0969 131.26 59.4649 131.644 59.7289 132.14C60.0009 132.628 60.1369 133.2 60.1369 133.856C60.1369 133.904 60.1329 133.96 60.1249 134.024C60.1249 134.088 60.1209 134.148 60.1129 134.204H54.7009V133.376H59.5129L59.0449 133.664C59.0529 133.256 58.9689 132.892 58.7929 132.572C58.6169 132.252 58.3729 132.004 58.0609 131.828C57.7569 131.644 57.4009 131.552 56.9929 131.552C56.5929 131.552 56.2369 131.644 55.9249 131.828C55.6129 132.004 55.3689 132.256 55.1929 132.584C55.0169 132.904 54.9289 133.272 54.9289 133.688V133.88C54.9289 134.304 55.0249 134.684 55.2169 135.02C55.4169 135.348 55.6929 135.604 56.0449 135.788C56.3969 135.972 56.8009 136.064 57.2569 136.064C57.6329 136.064 57.9729 136 58.2769 135.872C58.5889 135.744 58.8609 135.552 59.0929 135.296L59.7289 136.04C59.4409 136.376 59.0809 136.632 58.6489 136.808C58.2249 136.984 57.7489 137.072 57.2209 137.072ZM61.7365 137V130.64H62.8405V132.368L62.7325 131.936C62.9085 131.496 63.2045 131.16 63.6205 130.928C64.0365 130.696 64.5485 130.58 65.1565 130.58V131.696C65.1085 131.688 65.0605 131.684 65.0125 131.684C64.9725 131.684 64.9325 131.684 64.8925 131.684C64.2765 131.684 63.7885 131.868 63.4285 132.236C63.0685 132.604 62.8885 133.136 62.8885 133.832V137H61.7365ZM66.5764 137V130.64H67.7284V137H66.5764ZM67.1524 129.416C66.9284 129.416 66.7404 129.344 66.5884 129.2C66.4444 129.056 66.3724 128.88 66.3724 128.672C66.3724 128.456 66.4444 128.276 66.5884 128.132C66.7404 127.988 66.9284 127.916 67.1524 127.916C67.3764 127.916 67.5604 127.988 67.7044 128.132C67.8564 128.268 67.9324 128.44 67.9324 128.648C67.9324 128.864 67.8604 129.048 67.7164 129.2C67.5724 129.344 67.3844 129.416 67.1524 129.416ZM72.6519 137.072C72.0119 137.072 71.4439 136.932 70.9479 136.652C70.4519 136.372 70.0599 135.988 69.7719 135.5C69.4839 135.004 69.3399 134.444 69.3399 133.82C69.3399 133.188 69.4839 132.628 69.7719 132.14C70.0599 131.652 70.4519 131.272 70.9479 131C71.4439 130.72 72.0119 130.58 72.6519 130.58C73.2839 130.58 73.8479 130.72 74.3439 131C74.8479 131.272 75.2399 131.652 75.5199 132.14C75.8079 132.62 75.9519 133.18 75.9519 133.82C75.9519 134.452 75.8079 135.012 75.5199 135.5C75.2399 135.988 74.8479 136.372 74.3439 136.652C73.8479 136.932 73.2839 137.072 72.6519 137.072ZM72.6519 136.064C73.0599 136.064 73.4239 135.972 73.7439 135.788C74.0719 135.604 74.3279 135.344 74.5119 135.008C74.6959 134.664 74.7879 134.268 74.7879 133.82C74.7879 133.364 74.6959 132.972 74.5119 132.644C74.3279 132.308 74.0719 132.048 73.7439 131.864C73.4239 131.68 73.0599 131.588 72.6519 131.588C72.2439 131.588 71.8799 131.68 71.5599 131.864C71.2399 132.048 70.9839 132.308 70.7919 132.644C70.5999 132.972 70.5039 133.364 70.5039 133.82C70.5039 134.268 70.5999 134.664 70.7919 135.008C70.9839 135.344 71.2399 135.604 71.5599 135.788C71.8799 135.972 72.2439 136.064 72.6519 136.064ZM77.5451 137V130.64H78.6491V132.368L78.5411 131.936C78.7171 131.496 79.0131 131.16 79.4291 130.928C79.8451 130.696 80.3571 130.58 80.9651 130.58V131.696C80.9171 131.688 80.8691 131.684 80.8211 131.684C80.7811 131.684 80.7411 131.684 80.7011 131.684C80.0851 131.684 79.5971 131.868 79.2371 132.236C78.8771 132.604 78.6971 133.136 78.6971 133.832V137H77.5451ZM81.8938 138.776L82.4938 136.352L82.6498 137.048C82.4178 137.048 82.2218 136.976 82.0618 136.832C81.9098 136.688 81.8338 136.492 81.8338 136.244C81.8338 136.004 81.9098 135.808 82.0618 135.656C82.2218 135.504 82.4138 135.428 82.6378 135.428C82.8698 135.428 83.0578 135.508 83.2018 135.668C83.3458 135.82 83.4178 136.012 83.4178 136.244C83.4178 136.324 83.4098 136.404 83.3938 136.484C83.3858 136.556 83.3658 136.644 83.3338 136.748C83.3098 136.844 83.2698 136.964 83.2138 137.108L82.6498 138.776H81.8938ZM88.4592 137V130.076C88.4592 129.452 88.6392 128.956 88.9992 128.588C89.3672 128.212 89.8872 128.024 90.5592 128.024C90.8072 128.024 91.0432 128.056 91.2672 128.12C91.4992 128.176 91.6952 128.268 91.8552 128.396L91.5072 129.272C91.3872 129.176 91.2512 129.104 91.0992 129.056C90.9472 129 90.7872 128.972 90.6192 128.972C90.2832 128.972 90.0272 129.068 89.8512 129.26C89.6752 129.444 89.5872 129.72 89.5872 130.088V130.94L89.6112 131.468V137H88.4592ZM87.3792 131.588V130.64H91.4352V131.588H87.3792ZM96.3525 137V135.656L96.2925 135.404V133.112C96.2925 132.624 96.1485 132.248 95.8605 131.984C95.5805 131.712 95.1565 131.576 94.5885 131.576C94.2125 131.576 93.8445 131.64 93.4845 131.768C93.1245 131.888 92.8205 132.052 92.5725 132.26L92.0925 131.396C92.4205 131.132 92.8125 130.932 93.2685 130.796C93.7325 130.652 94.2165 130.58 94.7205 130.58C95.5925 130.58 96.2645 130.792 96.7365 131.216C97.2085 131.64 97.4445 132.288 97.4445 133.16V137H96.3525ZM94.2645 137.072C93.7925 137.072 93.3765 136.992 93.0165 136.832C92.6645 136.672 92.3925 136.452 92.2005 136.172C92.0085 135.884 91.9125 135.56 91.9125 135.2C91.9125 134.856 91.9925 134.544 92.1525 134.264C92.3205 133.984 92.5885 133.76 92.9565 133.592C93.3325 133.424 93.8365 133.34 94.4685 133.34H96.4845V134.168H94.5165C93.9405 134.168 93.5525 134.264 93.3525 134.456C93.1525 134.648 93.0525 134.88 93.0525 135.152C93.0525 135.464 93.1765 135.716 93.4245 135.908C93.6725 136.092 94.0165 136.184 94.4565 136.184C94.8885 136.184 95.2645 136.088 95.5845 135.896C95.9125 135.704 96.1485 135.424 96.2925 135.056L96.5205 135.848C96.3685 136.224 96.1005 136.524 95.7165 136.748C95.3325 136.964 94.8485 137.072 94.2645 137.072ZM98.9644 137V136.256L103.044 131.192L103.272 131.588H99.0364V130.64H104.196V131.396L100.116 136.448L99.8524 136.052H104.292V137H98.9644ZM108.572 137.072C107.892 137.072 107.292 136.932 106.772 136.652C106.26 136.372 105.86 135.988 105.572 135.5C105.292 135.012 105.152 134.452 105.152 133.82C105.152 133.188 105.288 132.628 105.56 132.14C105.84 131.652 106.22 131.272 106.7 131C107.188 130.72 107.736 130.58 108.344 130.58C108.96 130.58 109.504 130.716 109.976 130.988C110.448 131.26 110.816 131.644 111.08 132.14C111.352 132.628 111.488 133.2 111.488 133.856C111.488 133.904 111.484 133.96 111.476 134.024C111.476 134.088 111.472 134.148 111.464 134.204H106.052V133.376H110.864L110.396 133.664C110.404 133.256 110.32 132.892 110.144 132.572C109.968 132.252 109.724 132.004 109.412 131.828C109.108 131.644 108.752 131.552 108.344 131.552C107.944 131.552 107.588 131.644 107.276 131.828C106.964 132.004 106.72 132.256 106.544 132.584C106.368 132.904 106.28 133.272 106.28 133.688V133.88C106.28 134.304 106.376 134.684 106.568 135.02C106.768 135.348 107.044 135.604 107.396 135.788C107.748 135.972 108.152 136.064 108.608 136.064C108.984 136.064 109.324 136 109.628 135.872C109.94 135.744 110.212 135.552 110.444 135.296L111.08 136.04C110.792 136.376 110.432 136.632 110 136.808C109.576 136.984 109.1 137.072 108.572 137.072ZM116.484 130.58C117.004 130.58 117.46 130.68 117.852 130.88C118.252 131.08 118.564 131.384 118.788 131.792C119.012 132.2 119.124 132.716 119.124 133.34V137H117.972V133.472C117.972 132.856 117.82 132.392 117.516 132.08C117.22 131.768 116.8 131.612 116.256 131.612C115.848 131.612 115.492 131.692 115.188 131.852C114.884 132.012 114.648 132.248 114.48 132.56C114.32 132.872 114.24 133.26 114.24 133.724V137H113.088V130.64H114.192V132.356L114.012 131.9C114.22 131.484 114.54 131.16 114.972 130.928C115.404 130.696 115.908 130.58 116.484 130.58ZM123.884 137.072C123.268 137.072 122.716 136.936 122.228 136.664C121.748 136.392 121.368 136.012 121.088 135.524C120.808 135.036 120.668 134.468 120.668 133.82C120.668 133.172 120.808 132.608 121.088 132.128C121.368 131.64 121.748 131.26 122.228 130.988C122.716 130.716 123.268 130.58 123.884 130.58C124.42 130.58 124.904 130.7 125.336 130.94C125.768 131.18 126.112 131.54 126.368 132.02C126.632 132.5 126.764 133.1 126.764 133.82C126.764 134.54 126.636 135.14 126.38 135.62C126.132 136.1 125.792 136.464 125.36 136.712C124.928 136.952 124.436 137.072 123.884 137.072ZM123.98 136.064C124.38 136.064 124.74 135.972 125.06 135.788C125.388 135.604 125.644 135.344 125.828 135.008C126.02 134.664 126.116 134.268 126.116 133.82C126.116 133.364 126.02 132.972 125.828 132.644C125.644 132.308 125.388 132.048 125.06 131.864C124.74 131.68 124.38 131.588 123.98 131.588C123.572 131.588 123.208 131.68 122.888 131.864C122.568 132.048 122.312 132.308 122.12 132.644C121.928 132.972 121.832 133.364 121.832 133.82C121.832 134.268 121.928 134.664 122.12 135.008C122.312 135.344 122.568 135.604 122.888 135.788C123.208 135.972 123.572 136.064 123.98 136.064ZM126.152 137V135.284L126.224 133.808L126.104 132.332V128.096H127.256V137H126.152ZM132.16 137.072C131.52 137.072 130.952 136.932 130.456 136.652C129.96 136.372 129.568 135.988 129.28 135.5C128.992 135.004 128.848 134.444 128.848 133.82C128.848 133.188 128.992 132.628 129.28 132.14C129.568 131.652 129.96 131.272 130.456 131C130.952 130.72 131.52 130.58 132.16 130.58C132.792 130.58 133.356 130.72 133.852 131C134.356 131.272 134.748 131.652 135.028 132.14C135.316 132.62 135.46 133.18 135.46 133.82C135.46 134.452 135.316 135.012 135.028 135.5C134.748 135.988 134.356 136.372 133.852 136.652C133.356 136.932 132.792 137.072 132.16 137.072ZM132.16 136.064C132.568 136.064 132.932 135.972 133.252 135.788C133.58 135.604 133.836 135.344 134.02 135.008C134.204 134.664 134.296 134.268 134.296 133.82C134.296 133.364 134.204 132.972 134.02 132.644C133.836 132.308 133.58 132.048 133.252 131.864C132.932 131.68 132.568 131.588 132.16 131.588C131.752 131.588 131.388 131.68 131.068 131.864C130.748 132.048 130.492 132.308 130.3 132.644C130.108 132.972 130.012 133.364 130.012 133.82C130.012 134.268 130.108 134.664 130.3 135.008C130.492 135.344 130.748 135.604 131.068 135.788C131.388 135.972 131.752 136.064 132.16 136.064ZM143 137.072C142.36 137.072 141.792 136.932 141.296 136.652C140.8 136.372 140.408 135.988 140.12 135.5C139.832 135.004 139.688 134.444 139.688 133.82C139.688 133.188 139.832 132.628 140.12 132.14C140.408 131.652 140.8 131.272 141.296 131C141.792 130.72 142.36 130.58 143 130.58C143.632 130.58 144.196 130.72 144.692 131C145.196 131.272 145.588 131.652 145.868 132.14C146.156 132.62 146.3 133.18 146.3 133.82C146.3 134.452 146.156 135.012 145.868 135.5C145.588 135.988 145.196 136.372 144.692 136.652C144.196 136.932 143.632 137.072 143 137.072ZM143 136.064C143.408 136.064 143.772 135.972 144.092 135.788C144.42 135.604 144.676 135.344 144.86 135.008C145.044 134.664 145.136 134.268 145.136 133.82C145.136 133.364 145.044 132.972 144.86 132.644C144.676 132.308 144.42 132.048 144.092 131.864C143.772 131.68 143.408 131.588 143 131.588C142.592 131.588 142.228 131.68 141.908 131.864C141.588 132.048 141.332 132.308 141.14 132.644C140.948 132.972 140.852 133.364 140.852 133.82C140.852 134.268 140.948 134.664 141.14 135.008C141.332 135.344 141.588 135.604 141.908 135.788C142.228 135.972 142.592 136.064 143 136.064ZM38.1087 152.072C37.4927 152.072 36.9407 151.936 36.4527 151.664C35.9727 151.392 35.5927 151.012 35.3127 150.524C35.0327 150.036 34.8927 149.468 34.8927 148.82C34.8927 148.172 35.0327 147.608 35.3127 147.128C35.5927 146.64 35.9727 146.26 36.4527 145.988C36.9407 145.716 37.4927 145.58 38.1087 145.58C38.6447 145.58 39.1287 145.7 39.5607 145.94C39.9927 146.18 40.3367 146.54 40.5927 147.02C40.8567 147.5 40.9887 148.1 40.9887 148.82C40.9887 149.54 40.8607 150.14 40.6047 150.62C40.3567 151.1 40.0167 151.464 39.5847 151.712C39.1527 151.952 38.6607 152.072 38.1087 152.072ZM38.2047 151.064C38.6047 151.064 38.9647 150.972 39.2847 150.788C39.6127 150.604 39.8687 150.344 40.0527 150.008C40.2447 149.664 40.3407 149.268 40.3407 148.82C40.3407 148.364 40.2447 147.972 40.0527 147.644C39.8687 147.308 39.6127 147.048 39.2847 146.864C38.9647 146.68 38.6047 146.588 38.2047 146.588C37.7967 146.588 37.4327 146.68 37.1127 146.864C36.7927 147.048 36.5367 147.308 36.3447 147.644C36.1527 147.972 36.0567 148.364 36.0567 148.82C36.0567 149.268 36.1527 149.664 36.3447 150.008C36.5367 150.344 36.7927 150.604 37.1127 150.788C37.4327 150.972 37.7967 151.064 38.2047 151.064ZM40.3767 152V150.284L40.4487 148.808L40.3287 147.332V143.096H41.4807V152H40.3767ZM46.3844 152.072C45.7444 152.072 45.1764 151.932 44.6804 151.652C44.1844 151.372 43.7924 150.988 43.5044 150.5C43.2164 150.004 43.0724 149.444 43.0724 148.82C43.0724 148.188 43.2164 147.628 43.5044 147.14C43.7924 146.652 44.1844 146.272 44.6804 146C45.1764 145.72 45.7444 145.58 46.3844 145.58C47.0164 145.58 47.5804 145.72 48.0764 146C48.5804 146.272 48.9724 146.652 49.2524 147.14C49.5404 147.62 49.6844 148.18 49.6844 148.82C49.6844 149.452 49.5404 150.012 49.2524 150.5C48.9724 150.988 48.5804 151.372 48.0764 151.652C47.5804 151.932 47.0164 152.072 46.3844 152.072ZM46.3844 151.064C46.7924 151.064 47.1564 150.972 47.4764 150.788C47.8044 150.604 48.0604 150.344 48.2444 150.008C48.4284 149.664 48.5204 149.268 48.5204 148.82C48.5204 148.364 48.4284 147.972 48.2444 147.644C48.0604 147.308 47.8044 147.048 47.4764 146.864C47.1564 146.68 46.7924 146.588 46.3844 146.588C45.9764 146.588 45.6124 146.68 45.2924 146.864C44.9724 147.048 44.7164 147.308 44.5244 147.644C44.3324 147.972 44.2364 148.364 44.2364 148.82C44.2364 149.268 44.3324 149.664 44.5244 150.008C44.7164 150.344 44.9724 150.604 45.2924 150.788C45.6124 150.972 45.9764 151.064 46.3844 151.064ZM54.6495 152.072C54.1055 152.072 53.6135 151.952 53.1735 151.712C52.7415 151.464 52.3975 151.1 52.1415 150.62C51.8935 150.14 51.7695 149.54 51.7695 148.82C51.7695 148.1 51.8975 147.5 52.1535 147.02C52.4175 146.54 52.7655 146.18 53.1975 145.94C53.6375 145.7 54.1215 145.58 54.6495 145.58C55.2735 145.58 55.8255 145.716 56.3055 145.988C56.7855 146.26 57.1655 146.64 57.4455 147.128C57.7255 147.608 57.8655 148.172 57.8655 148.82C57.8655 149.468 57.7255 150.036 57.4455 150.524C57.1655 151.012 56.7855 151.392 56.3055 151.664C55.8255 151.936 55.2735 152.072 54.6495 152.072ZM51.2775 152V143.096H52.4295V147.332L52.3095 148.808L52.3815 150.284V152H51.2775ZM54.5535 151.064C54.9615 151.064 55.3255 150.972 55.6455 150.788C55.9735 150.604 56.2295 150.344 56.4135 150.008C56.6055 149.664 56.7015 149.268 56.7015 148.82C56.7015 148.364 56.6055 147.972 56.4135 147.644C56.2295 147.308 55.9735 147.048 55.6455 146.864C55.3255 146.68 54.9615 146.588 54.5535 146.588C54.1535 146.588 53.7895 146.68 53.4615 146.864C53.1415 147.048 52.8855 147.308 52.6935 147.644C52.5095 147.972 52.4175 148.364 52.4175 148.82C52.4175 149.268 52.5095 149.664 52.6935 150.008C52.8855 150.344 53.1415 150.604 53.4615 150.788C53.7895 150.972 54.1535 151.064 54.5535 151.064ZM59.4572 152V145.64H60.5612V147.368L60.4532 146.936C60.6292 146.496 60.9252 146.16 61.3412 145.928C61.7572 145.696 62.2692 145.58 62.8772 145.58V146.696C62.8292 146.688 62.7812 146.684 62.7332 146.684C62.6932 146.684 62.6532 146.684 62.6132 146.684C61.9972 146.684 61.5092 146.868 61.1492 147.236C60.7892 147.604 60.6092 148.136 60.6092 148.832V152H59.4572ZM66.9625 152.072C66.3225 152.072 65.7545 151.932 65.2585 151.652C64.7625 151.372 64.3705 150.988 64.0825 150.5C63.7945 150.004 63.6505 149.444 63.6505 148.82C63.6505 148.188 63.7945 147.628 64.0825 147.14C64.3705 146.652 64.7625 146.272 65.2585 146C65.7545 145.72 66.3225 145.58 66.9625 145.58C67.5945 145.58 68.1585 145.72 68.6545 146C69.1585 146.272 69.5505 146.652 69.8305 147.14C70.1185 147.62 70.2625 148.18 70.2625 148.82C70.2625 149.452 70.1185 150.012 69.8305 150.5C69.5505 150.988 69.1585 151.372 68.6545 151.652C68.1585 151.932 67.5945 152.072 66.9625 152.072ZM66.9625 151.064C67.3705 151.064 67.7345 150.972 68.0545 150.788C68.3825 150.604 68.6385 150.344 68.8225 150.008C69.0065 149.664 69.0985 149.268 69.0985 148.82C69.0985 148.364 69.0065 147.972 68.8225 147.644C68.6385 147.308 68.3825 147.048 68.0545 146.864C67.7345 146.68 67.3705 146.588 66.9625 146.588C66.5545 146.588 66.1905 146.68 65.8705 146.864C65.5505 147.048 65.2945 147.308 65.1025 147.644C64.9105 147.972 64.8145 148.364 64.8145 148.82C64.8145 149.268 64.9105 149.664 65.1025 150.008C65.2945 150.344 65.5505 150.604 65.8705 150.788C66.1905 150.972 66.5545 151.064 66.9625 151.064ZM79.0263 152V150.656L78.9663 150.404V148.112C78.9663 147.624 78.8223 147.248 78.5343 146.984C78.2543 146.712 77.8303 146.576 77.2623 146.576C76.8863 146.576 76.5183 146.64 76.1583 146.768C75.7983 146.888 75.4943 147.052 75.2463 147.26L74.7663 146.396C75.0943 146.132 75.4863 145.932 75.9423 145.796C76.4063 145.652 76.8903 145.58 77.3943 145.58C78.2663 145.58 78.9383 145.792 79.4103 146.216C79.8823 146.64 80.1183 147.288 80.1183 148.16V152H79.0263ZM76.9383 152.072C76.4663 152.072 76.0503 151.992 75.6903 151.832C75.3383 151.672 75.0663 151.452 74.8743 151.172C74.6823 150.884 74.5863 150.56 74.5863 150.2C74.5863 149.856 74.6663 149.544 74.8263 149.264C74.9943 148.984 75.2623 148.76 75.6303 148.592C76.0063 148.424 76.5103 148.34 77.1423 148.34H79.1583V149.168H77.1903C76.6143 149.168 76.2263 149.264 76.0263 149.456C75.8263 149.648 75.7263 149.88 75.7263 150.152C75.7263 150.464 75.8503 150.716 76.0983 150.908C76.3463 151.092 76.6903 151.184 77.1303 151.184C77.5623 151.184 77.9383 151.088 78.2583 150.896C78.5863 150.704 78.8223 150.424 78.9663 150.056L79.1943 150.848C79.0423 151.224 78.7743 151.524 78.3903 151.748C78.0063 151.964 77.5223 152.072 76.9383 152.072ZM84.9742 152.072C84.3342 152.072 83.7662 151.932 83.2702 151.652C82.7742 151.372 82.3822 150.988 82.0942 150.5C81.8062 150.004 81.6622 149.444 81.6622 148.82C81.6622 148.188 81.8062 147.628 82.0942 147.14C82.3822 146.652 82.7742 146.272 83.2702 146C83.7662 145.72 84.3342 145.58 84.9742 145.58C85.6062 145.58 86.1702 145.72 86.6662 146C87.1702 146.272 87.5622 146.652 87.8422 147.14C88.1302 147.62 88.2742 148.18 88.2742 148.82C88.2742 149.452 88.1302 150.012 87.8422 150.5C87.5622 150.988 87.1702 151.372 86.6662 151.652C86.1702 151.932 85.6062 152.072 84.9742 152.072ZM84.9742 151.064C85.3822 151.064 85.7462 150.972 86.0662 150.788C86.3942 150.604 86.6502 150.344 86.8342 150.008C87.0182 149.664 87.1102 149.268 87.1102 148.82C87.1102 148.364 87.0182 147.972 86.8342 147.644C86.6502 147.308 86.3942 147.048 86.0662 146.864C85.7462 146.68 85.3822 146.588 84.9742 146.588C84.5662 146.588 84.2022 146.68 83.8822 146.864C83.5622 147.048 83.3062 147.308 83.1142 147.644C82.9222 147.972 82.8262 148.364 82.8262 148.82C82.8262 149.268 82.9222 149.664 83.1142 150.008C83.3062 150.344 83.5622 150.604 83.8822 150.788C84.2022 150.972 84.5662 151.064 84.9742 151.064ZM93.09 152V143.096H94.242V152H93.09ZM99.1656 152.072C98.5256 152.072 97.9576 151.932 97.4616 151.652C96.9656 151.372 96.5736 150.988 96.2856 150.5C95.9976 150.004 95.8536 149.444 95.8536 148.82C95.8536 148.188 95.9976 147.628 96.2856 147.14C96.5736 146.652 96.9656 146.272 97.4616 146C97.9576 145.72 98.5256 145.58 99.1656 145.58C99.7976 145.58 100.362 145.72 100.858 146C101.362 146.272 101.754 146.652 102.034 147.14C102.322 147.62 102.466 148.18 102.466 148.82C102.466 149.452 102.322 150.012 102.034 150.5C101.754 150.988 101.362 151.372 100.858 151.652C100.362 151.932 99.7976 152.072 99.1656 152.072ZM99.1656 151.064C99.5736 151.064 99.9376 150.972 100.258 150.788C100.586 150.604 100.842 150.344 101.026 150.008C101.21 149.664 101.302 149.268 101.302 148.82C101.302 148.364 101.21 147.972 101.026 147.644C100.842 147.308 100.586 147.048 100.258 146.864C99.9376 146.68 99.5736 146.588 99.1656 146.588C98.7576 146.588 98.3936 146.68 98.0736 146.864C97.7536 147.048 97.4976 147.308 97.3056 147.644C97.1136 147.972 97.0176 148.364 97.0176 148.82C97.0176 149.268 97.1136 149.664 97.3056 150.008C97.4976 150.344 97.7536 150.604 98.0736 150.788C98.3936 150.972 98.7576 151.064 99.1656 151.064ZM107.455 145.58C107.975 145.58 108.431 145.68 108.823 145.88C109.223 146.08 109.535 146.384 109.759 146.792C109.983 147.2 110.095 147.716 110.095 148.34V152H108.943V148.472C108.943 147.856 108.791 147.392 108.487 147.08C108.191 146.768 107.771 146.612 107.227 146.612C106.819 146.612 106.463 146.692 106.159 146.852C105.855 147.012 105.619 147.248 105.451 147.56C105.291 147.872 105.211 148.26 105.211 148.724V152H104.059V145.64H105.163V147.356L104.983 146.9C105.191 146.484 105.511 146.16 105.943 145.928C106.375 145.696 106.879 145.58 107.455 145.58ZM115.011 154.4C114.427 154.4 113.859 154.316 113.307 154.148C112.763 153.988 112.319 153.756 111.975 153.452L112.527 152.564C112.823 152.82 113.187 153.02 113.619 153.164C114.051 153.316 114.503 153.392 114.975 153.392C115.727 153.392 116.279 153.216 116.631 152.864C116.983 152.512 117.159 151.976 117.159 151.256V149.912L117.279 148.652L117.219 147.38V145.64H118.311V151.136C118.311 152.256 118.031 153.08 117.471 153.608C116.911 154.136 116.091 154.4 115.011 154.4ZM114.867 151.736C114.251 151.736 113.699 151.608 113.211 151.352C112.731 151.088 112.347 150.724 112.059 150.26C111.779 149.796 111.639 149.26 111.639 148.652C111.639 148.036 111.779 147.5 112.059 147.044C112.347 146.58 112.731 146.22 113.211 145.964C113.699 145.708 114.251 145.58 114.867 145.58C115.411 145.58 115.907 145.692 116.355 145.916C116.803 146.132 117.159 146.468 117.423 146.924C117.695 147.38 117.831 147.956 117.831 148.652C117.831 149.34 117.695 149.912 117.423 150.368C117.159 150.824 116.803 151.168 116.355 151.4C115.907 151.624 115.411 151.736 114.867 151.736ZM114.999 150.728C115.423 150.728 115.799 150.64 116.127 150.464C116.455 150.288 116.711 150.044 116.895 149.732C117.087 149.42 117.183 149.06 117.183 148.652C117.183 148.244 117.087 147.884 116.895 147.572C116.711 147.26 116.455 147.02 116.127 146.852C115.799 146.676 115.423 146.588 114.999 146.588C114.575 146.588 114.195 146.676 113.859 146.852C113.531 147.02 113.271 147.26 113.079 147.572C112.895 147.884 112.803 148.244 112.803 148.652C112.803 149.06 112.895 149.42 113.079 149.732C113.271 150.044 113.531 150.288 113.859 150.464C114.195 150.64 114.575 150.728 114.999 150.728ZM123.236 152.072C122.596 152.072 122.028 151.932 121.532 151.652C121.036 151.372 120.644 150.988 120.356 150.5C120.068 150.004 119.924 149.444 119.924 148.82C119.924 148.188 120.068 147.628 120.356 147.14C120.644 146.652 121.036 146.272 121.532 146C122.028 145.72 122.596 145.58 123.236 145.58C123.868 145.58 124.432 145.72 124.928 146C125.432 146.272 125.824 146.652 126.104 147.14C126.392 147.62 126.536 148.18 126.536 148.82C126.536 149.452 126.392 150.012 126.104 150.5C125.824 150.988 125.432 151.372 124.928 151.652C124.432 151.932 123.868 152.072 123.236 152.072ZM123.236 151.064C123.644 151.064 124.008 150.972 124.328 150.788C124.656 150.604 124.912 150.344 125.096 150.008C125.28 149.664 125.372 149.268 125.372 148.82C125.372 148.364 125.28 147.972 125.096 147.644C124.912 147.308 124.656 147.048 124.328 146.864C124.008 146.68 123.644 146.588 123.236 146.588C122.828 146.588 122.464 146.68 122.144 146.864C121.824 147.048 121.568 147.308 121.376 147.644C121.184 147.972 121.088 148.364 121.088 148.82C121.088 149.268 121.184 149.664 121.376 150.008C121.568 150.344 121.824 150.604 122.144 150.788C122.464 150.972 122.828 151.064 123.236 151.064ZM133.98 152.072C133.364 152.072 132.812 151.936 132.324 151.664C131.844 151.392 131.464 151.012 131.184 150.524C130.904 150.036 130.764 149.468 130.764 148.82C130.764 148.172 130.904 147.608 131.184 147.128C131.464 146.64 131.844 146.26 132.324 145.988C132.812 145.716 133.364 145.58 133.98 145.58C134.516 145.58 135 145.7 135.432 145.94C135.864 146.18 136.208 146.54 136.464 147.02C136.728 147.5 136.86 148.1 136.86 148.82C136.86 149.54 136.732 150.14 136.476 150.62C136.228 151.1 135.888 151.464 135.456 151.712C135.024 151.952 134.532 152.072 133.98 152.072ZM134.076 151.064C134.476 151.064 134.836 150.972 135.156 150.788C135.484 150.604 135.74 150.344 135.924 150.008C136.116 149.664 136.212 149.268 136.212 148.82C136.212 148.364 136.116 147.972 135.924 147.644C135.74 147.308 135.484 147.048 135.156 146.864C134.836 146.68 134.476 146.588 134.076 146.588C133.668 146.588 133.304 146.68 132.984 146.864C132.664 147.048 132.408 147.308 132.216 147.644C132.024 147.972 131.928 148.364 131.928 148.82C131.928 149.268 132.024 149.664 132.216 150.008C132.408 150.344 132.664 150.604 132.984 150.788C133.304 150.972 133.668 151.064 134.076 151.064ZM136.248 152V150.284L136.32 148.808L136.2 147.332V143.096H137.352V152H136.248ZM143.479 152V150.656L143.419 150.404V148.112C143.419 147.624 143.275 147.248 142.987 146.984C142.707 146.712 142.283 146.576 141.715 146.576C141.339 146.576 140.971 146.64 140.611 146.768C140.251 146.888 139.947 147.052 139.699 147.26L139.219 146.396C139.547 146.132 139.939 145.932 140.395 145.796C140.859 145.652 141.343 145.58 141.847 145.58C142.719 145.58 143.391 145.792 143.863 146.216C144.335 146.64 144.571 147.288 144.571 148.16V152H143.479ZM141.391 152.072C140.919 152.072 140.503 151.992 140.143 151.832C139.791 151.672 139.519 151.452 139.327 151.172C139.135 150.884 139.039 150.56 139.039 150.2C139.039 149.856 139.119 149.544 139.279 149.264C139.447 148.984 139.715 148.76 140.083 148.592C140.459 148.424 140.963 148.34 141.595 148.34H143.611V149.168H141.643C141.067 149.168 140.679 149.264 140.479 149.456C140.279 149.648 140.179 149.88 140.179 150.152C140.179 150.464 140.303 150.716 140.551 150.908C140.799 151.092 141.143 151.184 141.583 151.184C142.015 151.184 142.391 151.088 142.711 150.896C143.039 150.704 143.275 150.424 143.419 150.056L143.647 150.848C143.495 151.224 143.227 151.524 142.843 151.748C142.459 151.964 141.975 152.072 141.391 152.072ZM39.8518 167V158.096H41.0038V167H39.8518ZM43.2033 167V160.64H44.3553V167H43.2033ZM43.7793 159.416C43.5553 159.416 43.3673 159.344 43.2153 159.2C43.0713 159.056 42.9993 158.88 42.9993 158.672C42.9993 158.456 43.0713 158.276 43.2153 158.132C43.3673 157.988 43.5553 157.916 43.7793 157.916C44.0033 157.916 44.1873 157.988 44.3313 158.132C44.4833 158.268 44.5593 158.44 44.5593 158.648C44.5593 158.864 44.4873 159.048 44.3433 159.2C44.1993 159.344 44.0113 159.416 43.7793 159.416ZM49.9509 160.58C50.4709 160.58 50.9269 160.68 51.3189 160.88C51.7189 161.08 52.0309 161.384 52.2549 161.792C52.4789 162.2 52.5909 162.716 52.5909 163.34V167H51.4389V163.472C51.4389 162.856 51.2869 162.392 50.9829 162.08C50.6869 161.768 50.2669 161.612 49.7229 161.612C49.3149 161.612 48.9589 161.692 48.6549 161.852C48.3509 162.012 48.1149 162.248 47.9469 162.56C47.7869 162.872 47.7069 163.26 47.7069 163.724V167H46.5549V160.64H47.6589V162.356L47.4789 161.9C47.6869 161.484 48.0069 161.16 48.4389 160.928C48.8709 160.696 49.3749 160.58 49.9509 160.58ZM58.1189 160.58C58.6389 160.58 59.0949 160.68 59.4869 160.88C59.8869 161.08 60.1989 161.384 60.4229 161.792C60.6469 162.2 60.7589 162.716 60.7589 163.34V167H59.6069V163.472C59.6069 162.856 59.4549 162.392 59.1509 162.08C58.8549 161.768 58.4349 161.612 57.8909 161.612C57.4829 161.612 57.1269 161.692 56.8229 161.852C56.5189 162.012 56.2829 162.248 56.1149 162.56C55.9549 162.872 55.8749 163.26 55.8749 163.724V167H54.7229V158.096H55.8749V162.356L55.6469 161.9C55.8549 161.484 56.1749 161.16 56.6069 160.928C57.0389 160.696 57.5429 160.58 58.1189 160.58ZM66.8388 167V165.656L66.7788 165.404V163.112C66.7788 162.624 66.6348 162.248 66.3468 161.984C66.0668 161.712 65.6428 161.576 65.0748 161.576C64.6988 161.576 64.3308 161.64 63.9708 161.768C63.6108 161.888 63.3068 162.052 63.0588 162.26L62.5788 161.396C62.9068 161.132 63.2988 160.932 63.7548 160.796C64.2188 160.652 64.7028 160.58 65.2068 160.58C66.0788 160.58 66.7508 160.792 67.2228 161.216C67.6948 161.64 67.9308 162.288 67.9308 163.16V167H66.8388ZM64.7508 167.072C64.2788 167.072 63.8628 166.992 63.5028 166.832C63.1508 166.672 62.8788 166.452 62.6868 166.172C62.4948 165.884 62.3988 165.56 62.3988 165.2C62.3988 164.856 62.4788 164.544 62.6388 164.264C62.8068 163.984 63.0748 163.76 63.4428 163.592C63.8188 163.424 64.3228 163.34 64.9548 163.34H66.9708V164.168H65.0028C64.4268 164.168 64.0388 164.264 63.8388 164.456C63.6388 164.648 63.5388 164.88 63.5388 165.152C63.5388 165.464 63.6628 165.716 63.9108 165.908C64.1588 166.092 64.5028 166.184 64.9428 166.184C65.3748 166.184 65.7508 166.088 66.0708 165.896C66.3988 165.704 66.6348 165.424 66.7788 165.056L67.0068 165.848C66.8548 166.224 66.5868 166.524 66.2028 166.748C65.8188 166.964 65.3348 167.072 64.7508 167.072ZM76.6574 167.072C76.1294 167.072 75.6454 166.952 75.2054 166.712C74.7734 166.464 74.4254 166.1 74.1614 165.62C73.9054 165.14 73.7774 164.54 73.7774 163.82C73.7774 163.1 73.9014 162.5 74.1494 162.02C74.4054 161.54 74.7494 161.18 75.1814 160.94C75.6214 160.7 76.1134 160.58 76.6574 160.58C77.2814 160.58 77.8334 160.716 78.3134 160.988C78.7934 161.26 79.1734 161.64 79.4534 162.128C79.7334 162.608 79.8734 163.172 79.8734 163.82C79.8734 164.468 79.7334 165.036 79.4534 165.524C79.1734 166.012 78.7934 166.392 78.3134 166.664C77.8334 166.936 77.2814 167.072 76.6574 167.072ZM73.2854 169.328V160.64H74.3894V162.356L74.3174 163.832L74.4374 165.308V169.328H73.2854ZM76.5614 166.064C76.9694 166.064 77.3334 165.972 77.6534 165.788C77.9814 165.604 78.2374 165.344 78.4214 165.008C78.6134 164.664 78.7094 164.268 78.7094 163.82C78.7094 163.364 78.6134 162.972 78.4214 162.644C78.2374 162.308 77.9814 162.048 77.6534 161.864C77.3334 161.68 76.9694 161.588 76.5614 161.588C76.1614 161.588 75.7974 161.68 75.4694 161.864C75.1494 162.048 74.8934 162.308 74.7014 162.644C74.5174 162.972 74.4254 163.364 74.4254 163.82C74.4254 164.268 74.5174 164.664 74.7014 165.008C74.8934 165.344 75.1494 165.604 75.4694 165.788C75.7974 165.972 76.1614 166.064 76.5614 166.064ZM84.189 167.072C83.549 167.072 82.981 166.932 82.485 166.652C81.989 166.372 81.597 165.988 81.309 165.5C81.021 165.004 80.877 164.444 80.877 163.82C80.877 163.188 81.021 162.628 81.309 162.14C81.597 161.652 81.989 161.272 82.485 161C82.981 160.72 83.549 160.58 84.189 160.58C84.821 160.58 85.385 160.72 85.881 161C86.385 161.272 86.777 161.652 87.057 162.14C87.345 162.62 87.489 163.18 87.489 163.82C87.489 164.452 87.345 165.012 87.057 165.5C86.777 165.988 86.385 166.372 85.881 166.652C85.385 166.932 84.821 167.072 84.189 167.072ZM84.189 166.064C84.597 166.064 84.961 165.972 85.281 165.788C85.609 165.604 85.865 165.344 86.049 165.008C86.233 164.664 86.325 164.268 86.325 163.82C86.325 163.364 86.233 162.972 86.049 162.644C85.865 162.308 85.609 162.048 85.281 161.864C84.961 161.68 84.597 161.588 84.189 161.588C83.781 161.588 83.417 161.68 83.097 161.864C82.777 162.048 82.521 162.308 82.329 162.644C82.137 162.972 82.041 163.364 82.041 163.82C82.041 164.268 82.137 164.664 82.329 165.008C82.521 165.344 82.777 165.604 83.097 165.788C83.417 165.972 83.781 166.064 84.189 166.064ZM92.4782 160.58C92.9982 160.58 93.4542 160.68 93.8462 160.88C94.2462 161.08 94.5582 161.384 94.7822 161.792C95.0062 162.2 95.1182 162.716 95.1182 163.34V167H93.9662V163.472C93.9662 162.856 93.8142 162.392 93.5102 162.08C93.2142 161.768 92.7942 161.612 92.2502 161.612C91.8422 161.612 91.4862 161.692 91.1822 161.852C90.8782 162.012 90.6422 162.248 90.4742 162.56C90.3142 162.872 90.2342 163.26 90.2342 163.724V167H89.0822V160.64H90.1862V162.356L90.0062 161.9C90.2142 161.484 90.5342 161.16 90.9662 160.928C91.3982 160.696 91.9022 160.58 92.4782 160.58ZM99.4342 167.072C98.7942 167.072 98.2982 166.9 97.9462 166.556C97.5942 166.212 97.4182 165.72 97.4182 165.08V159.248H98.5702V165.032C98.5702 165.376 98.6542 165.64 98.8222 165.824C98.9982 166.008 99.2462 166.1 99.5662 166.1C99.9262 166.1 100.226 166 100.466 165.8L100.826 166.628C100.65 166.78 100.438 166.892 100.19 166.964C99.9502 167.036 99.6982 167.072 99.4342 167.072ZM96.3382 161.588V160.64H100.394V161.588H96.3382ZM102.219 167V160.64H103.371V167H102.219ZM102.795 159.416C102.571 159.416 102.383 159.344 102.231 159.2C102.087 159.056 102.015 158.88 102.015 158.672C102.015 158.456 102.087 158.276 102.231 158.132C102.383 157.988 102.571 157.916 102.795 157.916C103.019 157.916 103.203 157.988 103.347 158.132C103.499 158.268 103.575 158.44 103.575 158.648C103.575 158.864 103.503 159.048 103.359 159.2C103.215 159.344 103.027 159.416 102.795 159.416ZM105.571 167V158.096H106.723V167H105.571ZM112.318 160.58C112.838 160.58 113.294 160.68 113.686 160.88C114.086 161.08 114.398 161.384 114.622 161.792C114.846 162.2 114.958 162.716 114.958 163.34V167H113.806V163.472C113.806 162.856 113.654 162.392 113.35 162.08C113.054 161.768 112.634 161.612 112.09 161.612C111.682 161.612 111.326 161.692 111.022 161.852C110.718 162.012 110.482 162.248 110.314 162.56C110.154 162.872 110.074 163.26 110.074 163.724V167H108.922V158.096H110.074V162.356L109.846 161.9C110.054 161.484 110.374 161.16 110.806 160.928C111.238 160.696 111.742 160.58 112.318 160.58ZM121.038 167V165.656L120.978 165.404V163.112C120.978 162.624 120.834 162.248 120.546 161.984C120.266 161.712 119.842 161.576 119.274 161.576C118.898 161.576 118.53 161.64 118.17 161.768C117.81 161.888 117.506 162.052 117.258 162.26L116.778 161.396C117.106 161.132 117.498 160.932 117.954 160.796C118.418 160.652 118.902 160.58 119.406 160.58C120.278 160.58 120.95 160.792 121.422 161.216C121.894 161.64 122.13 162.288 122.13 163.16V167H121.038ZM118.95 167.072C118.478 167.072 118.062 166.992 117.702 166.832C117.35 166.672 117.078 166.452 116.886 166.172C116.694 165.884 116.598 165.56 116.598 165.2C116.598 164.856 116.678 164.544 116.838 164.264C117.006 163.984 117.274 163.76 117.642 163.592C118.018 163.424 118.522 163.34 119.154 163.34H121.17V164.168H119.202C118.626 164.168 118.238 164.264 118.038 164.456C117.838 164.648 117.738 164.88 117.738 165.152C117.738 165.464 117.862 165.716 118.11 165.908C118.358 166.092 118.702 166.184 119.142 166.184C119.574 166.184 119.95 166.088 120.27 165.896C120.598 165.704 120.834 165.424 120.978 165.056L121.206 165.848C121.054 166.224 120.786 166.524 120.402 166.748C120.018 166.964 119.534 167.072 118.95 167.072ZM126.89 167.072C126.274 167.072 125.722 166.936 125.234 166.664C124.754 166.392 124.374 166.012 124.094 165.524C123.814 165.036 123.674 164.468 123.674 163.82C123.674 163.172 123.814 162.608 124.094 162.128C124.374 161.64 124.754 161.26 125.234 160.988C125.722 160.716 126.274 160.58 126.89 160.58C127.426 160.58 127.91 160.7 128.342 160.94C128.774 161.18 129.118 161.54 129.374 162.02C129.638 162.5 129.77 163.1 129.77 163.82C129.77 164.54 129.642 165.14 129.386 165.62C129.138 166.1 128.798 166.464 128.366 166.712C127.934 166.952 127.442 167.072 126.89 167.072ZM126.986 166.064C127.386 166.064 127.746 165.972 128.066 165.788C128.394 165.604 128.65 165.344 128.834 165.008C129.026 164.664 129.122 164.268 129.122 163.82C129.122 163.364 129.026 162.972 128.834 162.644C128.65 162.308 128.394 162.048 128.066 161.864C127.746 161.68 127.386 161.588 126.986 161.588C126.578 161.588 126.214 161.68 125.894 161.864C125.574 162.048 125.318 162.308 125.126 162.644C124.934 162.972 124.838 163.364 124.838 163.82C124.838 164.268 124.934 164.664 125.126 165.008C125.318 165.344 125.574 165.604 125.894 165.788C126.214 165.972 126.578 166.064 126.986 166.064ZM129.158 167V165.284L129.23 163.808L129.11 162.332V158.096H130.262V167H129.158ZM136.39 167V165.656L136.33 165.404V163.112C136.33 162.624 136.186 162.248 135.898 161.984C135.618 161.712 135.194 161.576 134.626 161.576C134.25 161.576 133.882 161.64 133.522 161.768C133.162 161.888 132.858 162.052 132.61 162.26L132.13 161.396C132.458 161.132 132.85 160.932 133.306 160.796C133.77 160.652 134.254 160.58 134.758 160.58C135.63 160.58 136.302 160.792 136.774 161.216C137.246 161.64 137.482 162.288 137.482 163.16V167H136.39ZM134.302 167.072C133.83 167.072 133.414 166.992 133.054 166.832C132.702 166.672 132.43 166.452 132.238 166.172C132.046 165.884 131.95 165.56 131.95 165.2C131.95 164.856 132.03 164.544 132.19 164.264C132.358 163.984 132.626 163.76 132.994 163.592C133.37 163.424 133.874 163.34 134.506 163.34H136.522V164.168H134.554C133.978 164.168 133.59 164.264 133.39 164.456C133.19 164.648 133.09 164.88 133.09 165.152C133.09 165.464 133.214 165.716 133.462 165.908C133.71 166.092 134.054 166.184 134.494 166.184C134.926 166.184 135.302 166.088 135.622 165.896C135.95 165.704 136.186 165.424 136.33 165.056L136.558 165.848C136.406 166.224 136.138 166.524 135.754 166.748C135.37 166.964 134.886 167.072 134.302 167.072ZM139.889 167.072C139.665 167.072 139.473 166.996 139.313 166.844C139.153 166.684 139.073 166.484 139.073 166.244C139.073 166.004 139.153 165.808 139.313 165.656C139.473 165.504 139.665 165.428 139.889 165.428C140.105 165.428 140.289 165.504 140.441 165.656C140.601 165.808 140.681 166.004 140.681 166.244C140.681 166.484 140.601 166.684 140.441 166.844C140.289 166.996 140.105 167.072 139.889 167.072Z" fill="#008E86"/>
<path d="M87.9391 25.3554C87.3902 25.2944 86.8958 25.6899 86.8348 26.2388C86.7738 26.7877 87.1693 27.2821 87.7182 27.3431L87.9391 25.3554ZM78.1253 12.045C77.5979 12.2092 77.3035 12.7697 77.4676 13.2971L80.1424 21.8904C80.3066 22.4177 80.8671 22.7122 81.3944 22.548C81.9218 22.3839 82.2162 21.8233 82.0521 21.296L79.6745 13.6575L87.313 11.2799C87.8403 11.1158 88.1348 10.5552 87.9706 10.0279C87.8065 9.50055 87.2459 9.20613 86.7186 9.37026L78.1253 12.045ZM87.7182 27.3431C89.801 27.5746 91.667 27.5244 92.9385 27.03C93.588 26.7775 94.2092 26.3586 94.5338 25.6734C94.8682 24.9678 94.7842 24.2026 94.4817 23.4923C93.9073 22.1435 92.3772 20.5759 89.9237 18.7614C87.4247 16.9133 83.8211 14.7059 78.8875 12.1146L77.9574 13.8852C82.8432 16.4514 86.3489 18.6052 88.7345 20.3695C91.1656 22.1673 92.2954 23.463 92.6416 24.2759C92.7994 24.6464 92.7408 24.7868 92.7264 24.8171C92.7023 24.8679 92.6007 25.0155 92.2137 25.166C91.4125 25.4775 89.9517 25.579 87.9391 25.3554L87.7182 27.3431Z" fill="black"/>
<path d="M59.4028 77.5296L64.7529 42.219L120.75 100L67.2496 98.2166L59.4028 77.5296Z" fill="#008E86" stroke="#00635D" stroke-width="2" stroke-linejoin="round"/>
<path d="M64.0395 41.5052L90.0766 15.4682L64.3962 79.3125L64.0395 41.5052Z" fill="#00D8CC" stroke="#00635D" stroke-width="2" stroke-linejoin="round"/>
<path d="M64.3965 79.3123L75.4533 52.5618L120.751 99.6426L72.5999 99.6426L64.3965 79.3123Z" fill="#00D8CC" stroke="#00635D" stroke-width="2" stroke-linejoin="round"/>
<path d="M81.5166 25.8125L81.5166 33.6593" stroke="#00635D" stroke-width="2" stroke-dasharray="2 2"/>
<path d="M86.848 32.1512C86.6046 31.6554 86.0054 31.4508 85.5097 31.6943C85.0139 31.9377 84.8094 32.5369 85.0528 33.0326L86.848 32.1512ZM70.3766 20.8652C69.8458 20.7128 69.2919 21.0196 69.1395 21.5504L66.6557 30.2009C66.5033 30.7317 66.8101 31.2856 67.3409 31.438C67.8717 31.5905 68.4256 31.2837 68.578 30.7528L70.7859 23.0635L78.4752 25.2713C79.006 25.4238 79.5599 25.117 79.7123 24.5862C79.8647 24.0553 79.558 23.5014 79.0271 23.349L70.3766 20.8652ZM85.0528 33.0326C85.8191 34.5933 86.2975 35.8592 86.5439 36.8419C86.7976 37.8533 86.7753 38.4474 86.6836 38.7375C86.6439 38.863 86.6033 38.8944 86.5999 38.8972C86.5974 38.8992 86.5669 38.9259 86.4581 38.9342C86.1974 38.9539 85.6874 38.8492 84.8974 38.4171C83.3513 37.5716 81.2109 35.739 78.764 32.8598C76.3312 29.997 73.6391 26.1512 70.9755 21.3419L69.2259 22.3109C71.9451 27.2205 74.7105 31.1785 77.24 34.1549C79.7555 37.1149 82.082 39.157 83.9377 40.1718C84.8485 40.6699 85.773 40.9918 86.6093 40.9284C87.049 40.8951 87.4825 40.7529 87.8508 40.4577C88.2181 40.1632 88.455 39.7692 88.5906 39.3403C88.8494 38.5215 88.7687 37.4909 88.4839 36.3553C88.1919 35.1911 87.6517 33.7879 86.848 32.1512L85.0528 33.0326Z" fill="black"/>
</svg>
