<svg width="180" height="180" viewBox="0 0 180 180" fill="none" xmlns="http://www.w3.org/2000/svg">
<g clip-path="url(#clip0_14_2847)">
<rect width="180" height="180" rx="20" fill="#F2F2F2"/>
<g clip-path="url(#clip1_14_2847)">
<path d="M0 30L-1.31134e-06 0L30 -1.31134e-06L30 10C30 21.0457 21.0457 30 10 30L0 30Z" fill="#333333"/>
<path d="M18.0068 15.112C18.5614 15.3893 18.9828 15.752 19.2708 16.2C19.5694 16.648 19.7188 17.1653 19.7188 17.752C19.7188 18.4453 19.5214 19.0533 19.1267 19.576C18.7321 20.088 18.1774 20.488 17.4628 20.776C16.7481 21.0533 15.9214 21.192 14.9828 21.192C14.0441 21.192 13.2174 21.0533 12.5028 20.776C11.7988 20.488 11.2494 20.088 10.8548 19.576C10.4708 19.0533 10.2788 18.4453 10.2788 17.752C10.2788 17.1653 10.4228 16.648 10.7108 16.2C11.0094 15.752 11.4308 15.3893 11.9748 15.112C11.5588 14.856 11.2388 14.536 11.0148 14.152C10.7908 13.7573 10.6788 13.3093 10.6788 12.808C10.6788 12.1573 10.8601 11.592 11.2228 11.112C11.5854 10.632 12.0921 10.264 12.7428 10.008C13.3934 9.74133 14.1401 9.608 14.9828 9.608C15.8361 9.608 16.5881 9.74133 17.2388 10.008C17.9001 10.264 18.4121 10.632 18.7748 11.112C19.1374 11.592 19.3188 12.1573 19.3188 12.808C19.3188 13.3093 19.2068 13.7573 18.9828 14.152C18.7588 14.536 18.4334 14.856 18.0068 15.112ZM14.9828 11.512C14.4601 11.512 14.0388 11.64 13.7188 11.896C13.4094 12.1413 13.2548 12.4827 13.2548 12.92C13.2548 13.3467 13.4094 13.6827 13.7188 13.928C14.0281 14.1733 14.4494 14.296 14.9828 14.296C15.5161 14.296 15.9428 14.1733 16.2628 13.928C16.5828 13.6827 16.7428 13.3467 16.7428 12.92C16.7428 12.4827 16.5828 12.1413 16.2628 11.896C15.9428 11.64 15.5161 11.512 14.9828 11.512ZM14.9828 19.288C15.6334 19.288 16.1454 19.144 16.5188 18.856C16.9028 18.5573 17.0948 18.1627 17.0948 17.672C17.0948 17.1813 16.9028 16.792 16.5188 16.504C16.1454 16.216 15.6334 16.072 14.9828 16.072C14.3428 16.072 13.8361 16.216 13.4628 16.504C13.0894 16.792 12.9028 17.1813 12.9028 17.672C12.9028 18.1733 13.0894 18.568 13.4628 18.856C13.8361 19.144 14.3428 19.288 14.9828 19.288Z" fill="#F2F2F2"/>
</g>
<path d="M14.7131 129V120.6H18.2531C19.1491 120.6 19.9371 120.776 20.6171 121.128C21.3051 121.48 21.8371 121.972 22.2131 122.604C22.5971 123.236 22.7891 123.968 22.7891 124.8C22.7891 125.632 22.5971 126.364 22.2131 126.996C21.8371 127.628 21.3051 128.12 20.6171 128.472C19.9371 128.824 19.1491 129 18.2531 129H14.7131ZM15.9131 127.956H18.1811C18.8771 127.956 19.4771 127.824 19.9811 127.56C20.4931 127.296 20.8891 126.928 21.1691 126.456C21.4491 125.976 21.5891 125.424 21.5891 124.8C21.5891 124.168 21.4491 123.616 21.1691 123.144C20.8891 122.672 20.4931 122.304 19.9811 122.04C19.4771 121.776 18.8771 121.644 18.1811 121.644H15.9131V127.956ZM27.1832 129.072C26.5432 129.072 25.9752 128.932 25.4792 128.652C24.9832 128.372 24.5912 127.988 24.3032 127.5C24.0152 127.004 23.8712 126.444 23.8712 125.82C23.8712 125.188 24.0152 124.628 24.3032 124.14C24.5912 123.652 24.9832 123.272 25.4792 123C25.9752 122.72 26.5432 122.58 27.1832 122.58C27.8152 122.58 28.3792 122.72 28.8752 123C29.3792 123.272 29.7712 123.652 30.0512 124.14C30.3392 124.62 30.4832 125.18 30.4832 125.82C30.4832 126.452 30.3392 127.012 30.0512 127.5C29.7712 127.988 29.3792 128.372 28.8752 128.652C28.3792 128.932 27.8152 129.072 27.1832 129.072ZM27.1832 128.064C27.5912 128.064 27.9552 127.972 28.2752 127.788C28.6032 127.604 28.8592 127.344 29.0432 127.008C29.2272 126.664 29.3192 126.268 29.3192 125.82C29.3192 125.364 29.2272 124.972 29.0432 124.644C28.8592 124.308 28.6032 124.048 28.2752 123.864C27.9552 123.68 27.5912 123.588 27.1832 123.588C26.7752 123.588 26.4112 123.68 26.0912 123.864C25.7712 124.048 25.5152 124.308 25.3232 124.644C25.1312 124.972 25.0352 125.364 25.0352 125.82C25.0352 126.268 25.1312 126.664 25.3232 127.008C25.5152 127.344 25.7712 127.604 26.0912 127.788C26.4112 127.972 26.7752 128.064 27.1832 128.064ZM35.4484 129.072C34.9044 129.072 34.4124 128.952 33.9724 128.712C33.5404 128.464 33.1964 128.1 32.9404 127.62C32.6924 127.14 32.5684 126.54 32.5684 125.82C32.5684 125.1 32.6964 124.5 32.9524 124.02C33.2164 123.54 33.5644 123.18 33.9964 122.94C34.4364 122.7 34.9204 122.58 35.4484 122.58C36.0724 122.58 36.6244 122.716 37.1044 122.988C37.5844 123.26 37.9644 123.64 38.2444 124.128C38.5244 124.608 38.6644 125.172 38.6644 125.82C38.6644 126.468 38.5244 127.036 38.2444 127.524C37.9644 128.012 37.5844 128.392 37.1044 128.664C36.6244 128.936 36.0724 129.072 35.4484 129.072ZM32.0764 129V120.096H33.2284V124.332L33.1084 125.808L33.1804 127.284V129H32.0764ZM35.3524 128.064C35.7604 128.064 36.1244 127.972 36.4444 127.788C36.7724 127.604 37.0284 127.344 37.2124 127.008C37.4044 126.664 37.5004 126.268 37.5004 125.82C37.5004 125.364 37.4044 124.972 37.2124 124.644C37.0284 124.308 36.7724 124.048 36.4444 123.864C36.1244 123.68 35.7604 123.588 35.3524 123.588C34.9524 123.588 34.5884 123.68 34.2604 123.864C33.9404 124.048 33.6844 124.308 33.4924 124.644C33.3084 124.972 33.2164 125.364 33.2164 125.82C33.2164 126.268 33.3084 126.664 33.4924 127.008C33.6844 127.344 33.9404 127.604 34.2604 127.788C34.5884 127.972 34.9524 128.064 35.3524 128.064ZM40.2561 129V122.64H41.3601V124.368L41.2521 123.936C41.4281 123.496 41.7241 123.16 42.1401 122.928C42.5561 122.696 43.0681 122.58 43.6761 122.58V123.696C43.6281 123.688 43.5801 123.684 43.5321 123.684C43.4921 123.684 43.4521 123.684 43.4121 123.684C42.7961 123.684 42.3081 123.868 41.9481 124.236C41.5881 124.604 41.4081 125.136 41.4081 125.832V129H40.2561ZM47.8693 129.072C47.1893 129.072 46.5893 128.932 46.0693 128.652C45.5573 128.372 45.1573 127.988 44.8693 127.5C44.5893 127.012 44.4493 126.452 44.4493 125.82C44.4493 125.188 44.5853 124.628 44.8573 124.14C45.1373 123.652 45.5173 123.272 45.9973 123C46.4853 122.72 47.0333 122.58 47.6413 122.58C48.2573 122.58 48.8013 122.716 49.2733 122.988C49.7453 123.26 50.1133 123.644 50.3773 124.14C50.6493 124.628 50.7853 125.2 50.7853 125.856C50.7853 125.904 50.7813 125.96 50.7733 126.024C50.7733 126.088 50.7693 126.148 50.7613 126.204H45.3493V125.376H50.1613L49.6933 125.664C49.7013 125.256 49.6173 124.892 49.4413 124.572C49.2653 124.252 49.0213 124.004 48.7093 123.828C48.4053 123.644 48.0493 123.552 47.6413 123.552C47.2413 123.552 46.8853 123.644 46.5733 123.828C46.2613 124.004 46.0173 124.256 45.8413 124.584C45.6653 124.904 45.5773 125.272 45.5773 125.688V125.88C45.5773 126.304 45.6733 126.684 45.8653 127.02C46.0653 127.348 46.3413 127.604 46.6933 127.788C47.0453 127.972 47.4493 128.064 47.9053 128.064C48.2813 128.064 48.6213 128 48.9253 127.872C49.2373 127.744 49.5093 127.552 49.7413 127.296L50.3773 128.04C50.0893 128.376 49.7293 128.632 49.2973 128.808C48.8733 128.984 48.3973 129.072 47.8693 129.072ZM59.5556 129V127.656L59.4956 127.404V125.112C59.4956 124.624 59.3516 124.248 59.0636 123.984C58.7836 123.712 58.3596 123.576 57.7916 123.576C57.4156 123.576 57.0476 123.64 56.6876 123.768C56.3276 123.888 56.0236 124.052 55.7756 124.26L55.2956 123.396C55.6236 123.132 56.0156 122.932 56.4716 122.796C56.9356 122.652 57.4196 122.58 57.9236 122.58C58.7956 122.58 59.4676 122.792 59.9396 123.216C60.4116 123.64 60.6476 124.288 60.6476 125.16V129H59.5556ZM57.4676 129.072C56.9956 129.072 56.5796 128.992 56.2196 128.832C55.8676 128.672 55.5956 128.452 55.4036 128.172C55.2116 127.884 55.1156 127.56 55.1156 127.2C55.1156 126.856 55.1956 126.544 55.3556 126.264C55.5236 125.984 55.7916 125.76 56.1596 125.592C56.5356 125.424 57.0396 125.34 57.6716 125.34H59.6876V126.168H57.7196C57.1436 126.168 56.7556 126.264 56.5556 126.456C56.3556 126.648 56.2556 126.88 56.2556 127.152C56.2556 127.464 56.3796 127.716 56.6276 127.908C56.8756 128.092 57.2196 128.184 57.6596 128.184C58.0916 128.184 58.4676 128.088 58.7876 127.896C59.1156 127.704 59.3516 127.424 59.4956 127.056L59.7236 127.848C59.5716 128.224 59.3036 128.524 58.9196 128.748C58.5356 128.964 58.0516 129.072 57.4676 129.072ZM69.3742 129.072C68.8462 129.072 68.3622 128.952 67.9222 128.712C67.4902 128.464 67.1422 128.1 66.8782 127.62C66.6222 127.14 66.4942 126.54 66.4942 125.82C66.4942 125.1 66.6182 124.5 66.8662 124.02C67.1222 123.54 67.4662 123.18 67.8982 122.94C68.3382 122.7 68.8302 122.58 69.3742 122.58C69.9982 122.58 70.5502 122.716 71.0302 122.988C71.5102 123.26 71.8902 123.64 72.1702 124.128C72.4502 124.608 72.5902 125.172 72.5902 125.82C72.5902 126.468 72.4502 127.036 72.1702 127.524C71.8902 128.012 71.5102 128.392 71.0302 128.664C70.5502 128.936 69.9982 129.072 69.3742 129.072ZM66.0022 131.328V122.64H67.1062V124.356L67.0342 125.832L67.1542 127.308V131.328H66.0022ZM69.2782 128.064C69.6862 128.064 70.0502 127.972 70.3702 127.788C70.6982 127.604 70.9542 127.344 71.1382 127.008C71.3302 126.664 71.4262 126.268 71.4262 125.82C71.4262 125.364 71.3302 124.972 71.1382 124.644C70.9542 124.308 70.6982 124.048 70.3702 123.864C70.0502 123.68 69.6862 123.588 69.2782 123.588C68.8782 123.588 68.5142 123.68 68.1862 123.864C67.8662 124.048 67.6102 124.308 67.4182 124.644C67.2342 124.972 67.1422 125.364 67.1422 125.82C67.1422 126.268 67.2342 126.664 67.4182 127.008C67.6102 127.344 67.8662 127.604 68.1862 127.788C68.5142 127.972 68.8782 128.064 69.2782 128.064ZM76.9058 129.072C76.2658 129.072 75.6978 128.932 75.2018 128.652C74.7058 128.372 74.3138 127.988 74.0258 127.5C73.7378 127.004 73.5938 126.444 73.5938 125.82C73.5938 125.188 73.7378 124.628 74.0258 124.14C74.3138 123.652 74.7058 123.272 75.2018 123C75.6978 122.72 76.2658 122.58 76.9058 122.58C77.5378 122.58 78.1018 122.72 78.5978 123C79.1018 123.272 79.4938 123.652 79.7738 124.14C80.0618 124.62 80.2058 125.18 80.2058 125.82C80.2058 126.452 80.0618 127.012 79.7738 127.5C79.4938 127.988 79.1018 128.372 78.5978 128.652C78.1018 128.932 77.5378 129.072 76.9058 129.072ZM76.9058 128.064C77.3138 128.064 77.6778 127.972 77.9978 127.788C78.3258 127.604 78.5818 127.344 78.7658 127.008C78.9498 126.664 79.0418 126.268 79.0418 125.82C79.0418 125.364 78.9498 124.972 78.7658 124.644C78.5818 124.308 78.3258 124.048 77.9978 123.864C77.6778 123.68 77.3138 123.588 76.9058 123.588C76.4978 123.588 76.1338 123.68 75.8138 123.864C75.4938 124.048 75.2378 124.308 75.0458 124.644C74.8538 124.972 74.7578 125.364 74.7578 125.82C74.7578 126.268 74.8538 126.664 75.0458 127.008C75.2378 127.344 75.4938 127.604 75.8138 127.788C76.1338 127.972 76.4978 128.064 76.9058 128.064ZM85.195 122.58C85.715 122.58 86.171 122.68 86.563 122.88C86.963 123.08 87.275 123.384 87.499 123.792C87.723 124.2 87.835 124.716 87.835 125.34V129H86.683V125.472C86.683 124.856 86.531 124.392 86.227 124.08C85.931 123.768 85.511 123.612 84.967 123.612C84.559 123.612 84.203 123.692 83.899 123.852C83.595 124.012 83.359 124.248 83.191 124.56C83.031 124.872 82.951 125.26 82.951 125.724V129H81.799V122.64H82.903V124.356L82.723 123.9C82.931 123.484 83.251 123.16 83.683 122.928C84.115 122.696 84.619 122.58 85.195 122.58ZM92.151 129.072C91.511 129.072 91.015 128.9 90.663 128.556C90.311 128.212 90.135 127.72 90.135 127.08V121.248H91.287V127.032C91.287 127.376 91.371 127.64 91.539 127.824C91.715 128.008 91.963 128.1 92.283 128.1C92.643 128.1 92.943 128 93.183 127.8L93.543 128.628C93.367 128.78 93.155 128.892 92.907 128.964C92.667 129.036 92.415 129.072 92.151 129.072ZM89.055 123.588V122.64H93.111V123.588H89.055ZM98.8838 129V127.656L98.8238 127.404V125.112C98.8238 124.624 98.6798 124.248 98.3918 123.984C98.1118 123.712 97.6878 123.576 97.1198 123.576C96.7438 123.576 96.3758 123.64 96.0158 123.768C95.6558 123.888 95.3518 124.052 95.1038 124.26L94.6238 123.396C94.9518 123.132 95.3438 122.932 95.7998 122.796C96.2638 122.652 96.7478 122.58 97.2518 122.58C98.1238 122.58 98.7958 122.792 99.2678 123.216C99.7398 123.64 99.9758 124.288 99.9758 125.16V129H98.8838ZM96.7958 129.072C96.3238 129.072 95.9078 128.992 95.5478 128.832C95.1958 128.672 94.9238 128.452 94.7318 128.172C94.5398 127.884 94.4438 127.56 94.4438 127.2C94.4438 126.856 94.5238 126.544 94.6838 126.264C94.8518 125.984 95.1198 125.76 95.4878 125.592C95.8638 125.424 96.3678 125.34 96.9998 125.34H99.0158V126.168H97.0478C96.4718 126.168 96.0838 126.264 95.8838 126.456C95.6838 126.648 95.5838 126.88 95.5838 127.152C95.5838 127.464 95.7078 127.716 95.9558 127.908C96.2038 128.092 96.5478 128.184 96.9878 128.184C97.4198 128.184 97.7958 128.088 98.1158 127.896C98.4438 127.704 98.6798 127.424 98.8238 127.056L99.0518 127.848C98.8998 128.224 98.6318 128.524 98.2478 128.748C97.8638 128.964 97.3798 129.072 96.7958 129.072ZM105.33 129V122.64H106.482V129H105.33ZM105.906 121.416C105.682 121.416 105.494 121.344 105.342 121.2C105.198 121.056 105.126 120.88 105.126 120.672C105.126 120.456 105.198 120.276 105.342 120.132C105.494 119.988 105.682 119.916 105.906 119.916C106.13 119.916 106.314 119.988 106.458 120.132C106.61 120.268 106.686 120.44 106.686 120.648C106.686 120.864 106.614 121.048 106.47 121.2C106.326 121.344 106.138 121.416 105.906 121.416ZM112.078 122.58C112.598 122.58 113.054 122.68 113.446 122.88C113.846 123.08 114.158 123.384 114.382 123.792C114.606 124.2 114.718 124.716 114.718 125.34V129H113.566V125.472C113.566 124.856 113.414 124.392 113.11 124.08C112.814 123.768 112.394 123.612 111.85 123.612C111.442 123.612 111.086 123.692 110.782 123.852C110.478 124.012 110.242 124.248 110.074 124.56C109.914 124.872 109.834 125.26 109.834 125.724V129H108.682V122.64H109.786V124.356L109.606 123.9C109.814 123.484 110.134 123.16 110.566 122.928C110.998 122.696 111.502 122.58 112.078 122.58ZM117.018 129V122.076C117.018 121.452 117.198 120.956 117.558 120.588C117.926 120.212 118.446 120.024 119.118 120.024C119.366 120.024 119.602 120.056 119.826 120.12C120.058 120.176 120.254 120.268 120.414 120.396L120.066 121.272C119.946 121.176 119.81 121.104 119.658 121.056C119.506 121 119.346 120.972 119.178 120.972C118.842 120.972 118.586 121.068 118.41 121.26C118.234 121.444 118.146 121.72 118.146 122.088V122.94L118.17 123.468V129H117.018ZM115.938 123.588V122.64H119.994V123.588H115.938ZM123.819 129.072C123.139 129.072 122.539 128.932 122.019 128.652C121.507 128.372 121.107 127.988 120.819 127.5C120.539 127.012 120.399 126.452 120.399 125.82C120.399 125.188 120.535 124.628 120.807 124.14C121.087 123.652 121.467 123.272 121.947 123C122.435 122.72 122.983 122.58 123.591 122.58C124.207 122.58 124.751 122.716 125.223 122.988C125.695 123.26 126.063 123.644 126.327 124.14C126.599 124.628 126.735 125.2 126.735 125.856C126.735 125.904 126.731 125.96 126.723 126.024C126.723 126.088 126.719 126.148 126.711 126.204H121.299V125.376H126.111L125.643 125.664C125.651 125.256 125.567 124.892 125.391 124.572C125.215 124.252 124.971 124.004 124.659 123.828C124.355 123.644 123.999 123.552 123.591 123.552C123.191 123.552 122.835 123.644 122.523 123.828C122.211 124.004 121.967 124.256 121.791 124.584C121.615 124.904 121.527 125.272 121.527 125.688V125.88C121.527 126.304 121.623 126.684 121.815 127.02C122.015 127.348 122.291 127.604 122.643 127.788C122.995 127.972 123.399 128.064 123.855 128.064C124.231 128.064 124.571 128 124.875 127.872C125.187 127.744 125.459 127.552 125.691 127.296L126.327 128.04C126.039 128.376 125.679 128.632 125.247 128.808C124.823 128.984 124.347 129.072 123.819 129.072ZM128.334 129V122.64H129.438V124.368L129.33 123.936C129.506 123.496 129.802 123.16 130.218 122.928C130.634 122.696 131.146 122.58 131.754 122.58V123.696C131.706 123.688 131.658 123.684 131.61 123.684C131.57 123.684 131.53 123.684 131.49 123.684C130.874 123.684 130.386 123.868 130.026 124.236C129.666 124.604 129.486 125.136 129.486 125.832V129H128.334ZM133.174 129V122.64H134.326V129H133.174ZM133.75 121.416C133.526 121.416 133.338 121.344 133.186 121.2C133.042 121.056 132.97 120.88 132.97 120.672C132.97 120.456 133.042 120.276 133.186 120.132C133.338 119.988 133.526 119.916 133.75 119.916C133.974 119.916 134.158 119.988 134.302 120.132C134.454 120.268 134.53 120.44 134.53 120.648C134.53 120.864 134.458 121.048 134.314 121.2C134.17 121.344 133.982 121.416 133.75 121.416ZM139.25 129.072C138.61 129.072 138.042 128.932 137.546 128.652C137.05 128.372 136.658 127.988 136.37 127.5C136.082 127.004 135.938 126.444 135.938 125.82C135.938 125.188 136.082 124.628 136.37 124.14C136.658 123.652 137.05 123.272 137.546 123C138.042 122.72 138.61 122.58 139.25 122.58C139.882 122.58 140.446 122.72 140.942 123C141.446 123.272 141.838 123.652 142.118 124.14C142.406 124.62 142.55 125.18 142.55 125.82C142.55 126.452 142.406 127.012 142.118 127.5C141.838 127.988 141.446 128.372 140.942 128.652C140.446 128.932 139.882 129.072 139.25 129.072ZM139.25 128.064C139.658 128.064 140.022 127.972 140.342 127.788C140.67 127.604 140.926 127.344 141.11 127.008C141.294 126.664 141.386 126.268 141.386 125.82C141.386 125.364 141.294 124.972 141.11 124.644C140.926 124.308 140.67 124.048 140.342 123.864C140.022 123.68 139.658 123.588 139.25 123.588C138.842 123.588 138.478 123.68 138.158 123.864C137.838 124.048 137.582 124.308 137.39 124.644C137.198 124.972 137.102 125.364 137.102 125.82C137.102 126.268 137.198 126.664 137.39 127.008C137.582 127.344 137.838 127.604 138.158 127.788C138.478 127.972 138.842 128.064 139.25 128.064ZM144.143 129V122.64H145.247V124.368L145.139 123.936C145.315 123.496 145.611 123.16 146.027 122.928C146.443 122.696 146.955 122.58 147.563 122.58V123.696C147.515 123.688 147.467 123.684 147.419 123.684C147.379 123.684 147.339 123.684 147.299 123.684C146.683 123.684 146.195 123.868 145.835 124.236C145.475 124.604 145.295 125.136 145.295 125.832V129H144.143ZM154.915 129.072C154.299 129.072 153.747 128.936 153.259 128.664C152.779 128.392 152.399 128.012 152.119 127.524C151.839 127.036 151.699 126.468 151.699 125.82C151.699 125.172 151.839 124.608 152.119 124.128C152.399 123.64 152.779 123.26 153.259 122.988C153.747 122.716 154.299 122.58 154.915 122.58C155.451 122.58 155.935 122.7 156.367 122.94C156.799 123.18 157.143 123.54 157.399 124.02C157.663 124.5 157.795 125.1 157.795 125.82C157.795 126.54 157.667 127.14 157.411 127.62C157.163 128.1 156.823 128.464 156.391 128.712C155.959 128.952 155.467 129.072 154.915 129.072ZM155.011 128.064C155.411 128.064 155.771 127.972 156.091 127.788C156.419 127.604 156.675 127.344 156.859 127.008C157.051 126.664 157.147 126.268 157.147 125.82C157.147 125.364 157.051 124.972 156.859 124.644C156.675 124.308 156.419 124.048 156.091 123.864C155.771 123.68 155.411 123.588 155.011 123.588C154.603 123.588 154.239 123.68 153.919 123.864C153.599 124.048 153.343 124.308 153.151 124.644C152.959 124.972 152.863 125.364 152.863 125.82C152.863 126.268 152.959 126.664 153.151 127.008C153.343 127.344 153.599 127.604 153.919 127.788C154.239 127.972 154.603 128.064 155.011 128.064ZM157.183 129V127.284L157.255 125.808L157.135 124.332V120.096H158.287V129H157.183ZM164.415 129V127.656L164.355 127.404V125.112C164.355 124.624 164.211 124.248 163.923 123.984C163.643 123.712 163.219 123.576 162.651 123.576C162.275 123.576 161.907 123.64 161.547 123.768C161.187 123.888 160.883 124.052 160.635 124.26L160.155 123.396C160.483 123.132 160.875 122.932 161.331 122.796C161.795 122.652 162.279 122.58 162.783 122.58C163.655 122.58 164.327 122.792 164.799 123.216C165.271 123.64 165.507 124.288 165.507 125.16V129H164.415ZM162.327 129.072C161.855 129.072 161.439 128.992 161.079 128.832C160.727 128.672 160.455 128.452 160.263 128.172C160.071 127.884 159.975 127.56 159.975 127.2C159.975 126.856 160.055 126.544 160.215 126.264C160.383 125.984 160.651 125.76 161.019 125.592C161.395 125.424 161.899 125.34 162.531 125.34H164.547V126.168H162.579C162.003 126.168 161.615 126.264 161.415 126.456C161.215 126.648 161.115 126.88 161.115 127.152C161.115 127.464 161.239 127.716 161.487 127.908C161.735 128.092 162.079 128.184 162.519 128.184C162.951 128.184 163.327 128.088 163.647 127.896C163.975 127.704 164.211 127.424 164.355 127.056L164.583 127.848C164.431 128.224 164.163 128.524 163.779 128.748C163.395 128.964 162.911 129.072 162.327 129.072ZM15.551 144V137.076C15.551 136.452 15.731 135.956 16.091 135.588C16.459 135.212 16.979 135.024 17.651 135.024C17.899 135.024 18.135 135.056 18.359 135.12C18.591 135.176 18.787 135.268 18.947 135.396L18.599 136.272C18.479 136.176 18.343 136.104 18.191 136.056C18.039 136 17.879 135.972 17.711 135.972C17.375 135.972 17.119 136.068 16.943 136.26C16.767 136.444 16.679 136.72 16.679 137.088V137.94L16.703 138.468V144H15.551ZM14.471 138.588V137.64H18.527V138.588H14.471ZM22.2437 144.072C21.6037 144.072 21.0357 143.932 20.5397 143.652C20.0437 143.372 19.6517 142.988 19.3637 142.5C19.0757 142.004 18.9317 141.444 18.9317 140.82C18.9317 140.188 19.0757 139.628 19.3637 139.14C19.6517 138.652 20.0437 138.272 20.5397 138C21.0357 137.72 21.6037 137.58 22.2437 137.58C22.8757 137.58 23.4397 137.72 23.9357 138C24.4397 138.272 24.8317 138.652 25.1117 139.14C25.3997 139.62 25.5437 140.18 25.5437 140.82C25.5437 141.452 25.3997 142.012 25.1117 142.5C24.8317 142.988 24.4397 143.372 23.9357 143.652C23.4397 143.932 22.8757 144.072 22.2437 144.072ZM22.2437 143.064C22.6517 143.064 23.0157 142.972 23.3357 142.788C23.6637 142.604 23.9197 142.344 24.1037 142.008C24.2877 141.664 24.3797 141.268 24.3797 140.82C24.3797 140.364 24.2877 139.972 24.1037 139.644C23.9197 139.308 23.6637 139.048 23.3357 138.864C23.0157 138.68 22.6517 138.588 22.2437 138.588C21.8357 138.588 21.4717 138.68 21.1517 138.864C20.8317 139.048 20.5757 139.308 20.3837 139.644C20.1917 139.972 20.0957 140.364 20.0957 140.82C20.0957 141.268 20.1917 141.664 20.3837 142.008C20.5757 142.344 20.8317 142.604 21.1517 142.788C21.4717 142.972 21.8357 143.064 22.2437 143.064ZM27.1369 144V137.64H28.2409V139.368L28.1329 138.936C28.3089 138.496 28.6049 138.16 29.0209 137.928C29.4369 137.696 29.9489 137.58 30.5569 137.58V138.696C30.5089 138.688 30.4609 138.684 30.4129 138.684C30.3729 138.684 30.3329 138.684 30.2929 138.684C29.6769 138.684 29.1889 138.868 28.8289 139.236C28.4689 139.604 28.2889 140.136 28.2889 140.832V144H27.1369ZM39.9328 137.58C40.4448 137.58 40.8968 137.68 41.2888 137.88C41.6808 138.08 41.9848 138.384 42.2008 138.792C42.4248 139.2 42.5368 139.716 42.5368 140.34V144H41.3848V140.472C41.3848 139.856 41.2408 139.392 40.9528 139.08C40.6648 138.768 40.2608 138.612 39.7408 138.612C39.3568 138.612 39.0208 138.692 38.7328 138.852C38.4448 139.012 38.2208 139.248 38.0608 139.56C37.9088 139.872 37.8328 140.26 37.8328 140.724V144H36.6808V140.472C36.6808 139.856 36.5368 139.392 36.2488 139.08C35.9688 138.768 35.5648 138.612 35.0368 138.612C34.6608 138.612 34.3288 138.692 34.0408 138.852C33.7528 139.012 33.5288 139.248 33.3688 139.56C33.2088 139.872 33.1288 140.26 33.1288 140.724V144H31.9768V137.64H33.0808V139.332L32.9008 138.9C33.1008 138.484 33.4088 138.16 33.8248 137.928C34.2408 137.696 34.7248 137.58 35.2768 137.58C35.8848 137.58 36.4088 137.732 36.8488 138.036C37.2888 138.332 37.5768 138.784 37.7128 139.392L37.2448 139.2C37.4368 138.712 37.7728 138.32 38.2528 138.024C38.7328 137.728 39.2928 137.58 39.9328 137.58ZM48.6045 144V142.656L48.5445 142.404V140.112C48.5445 139.624 48.4005 139.248 48.1125 138.984C47.8325 138.712 47.4085 138.576 46.8405 138.576C46.4645 138.576 46.0965 138.64 45.7365 138.768C45.3765 138.888 45.0725 139.052 44.8245 139.26L44.3445 138.396C44.6725 138.132 45.0645 137.932 45.5205 137.796C45.9845 137.652 46.4685 137.58 46.9725 137.58C47.8445 137.58 48.5165 137.792 48.9885 138.216C49.4605 138.64 49.6965 139.288 49.6965 140.16V144H48.6045ZM46.5165 144.072C46.0445 144.072 45.6285 143.992 45.2685 143.832C44.9165 143.672 44.6445 143.452 44.4525 143.172C44.2605 142.884 44.1645 142.56 44.1645 142.2C44.1645 141.856 44.2445 141.544 44.4045 141.264C44.5725 140.984 44.8405 140.76 45.2085 140.592C45.5845 140.424 46.0885 140.34 46.7205 140.34H48.7365V141.168H46.7685C46.1925 141.168 45.8045 141.264 45.6045 141.456C45.4045 141.648 45.3045 141.88 45.3045 142.152C45.3045 142.464 45.4285 142.716 45.6765 142.908C45.9245 143.092 46.2685 143.184 46.7085 143.184C47.1405 143.184 47.5165 143.088 47.8365 142.896C48.1645 142.704 48.4005 142.424 48.5445 142.056L48.7725 142.848C48.6205 143.224 48.3525 143.524 47.9685 143.748C47.5845 143.964 47.1005 144.072 46.5165 144.072ZM58.423 144.072C57.895 144.072 57.411 143.952 56.971 143.712C56.539 143.464 56.191 143.1 55.927 142.62C55.671 142.14 55.543 141.54 55.543 140.82C55.543 140.1 55.667 139.5 55.915 139.02C56.171 138.54 56.515 138.18 56.947 137.94C57.387 137.7 57.879 137.58 58.423 137.58C59.047 137.58 59.599 137.716 60.079 137.988C60.559 138.26 60.939 138.64 61.219 139.128C61.499 139.608 61.639 140.172 61.639 140.82C61.639 141.468 61.499 142.036 61.219 142.524C60.939 143.012 60.559 143.392 60.079 143.664C59.599 143.936 59.047 144.072 58.423 144.072ZM55.051 146.328V137.64H56.155V139.356L56.083 140.832L56.203 142.308V146.328H55.051ZM58.327 143.064C58.735 143.064 59.099 142.972 59.419 142.788C59.747 142.604 60.003 142.344 60.187 142.008C60.379 141.664 60.475 141.268 60.475 140.82C60.475 140.364 60.379 139.972 60.187 139.644C60.003 139.308 59.747 139.048 59.419 138.864C59.099 138.68 58.735 138.588 58.327 138.588C57.927 138.588 57.563 138.68 57.235 138.864C56.915 139.048 56.659 139.308 56.467 139.644C56.283 139.972 56.191 140.364 56.191 140.82C56.191 141.268 56.283 141.664 56.467 142.008C56.659 142.344 56.915 142.604 57.235 142.788C57.563 142.972 57.927 143.064 58.327 143.064ZM67.1201 144V142.656L67.0601 142.404V140.112C67.0601 139.624 66.9161 139.248 66.6281 138.984C66.3481 138.712 65.9241 138.576 65.3561 138.576C64.9801 138.576 64.6121 138.64 64.2521 138.768C63.8921 138.888 63.5881 139.052 63.3401 139.26L62.8601 138.396C63.1881 138.132 63.5801 137.932 64.0361 137.796C64.5001 137.652 64.9841 137.58 65.4881 137.58C66.3601 137.58 67.0321 137.792 67.5041 138.216C67.9761 138.64 68.2121 139.288 68.2121 140.16V144H67.1201ZM65.0321 144.072C64.5601 144.072 64.1441 143.992 63.7841 143.832C63.4321 143.672 63.1601 143.452 62.9681 143.172C62.7761 142.884 62.6801 142.56 62.6801 142.2C62.6801 141.856 62.7601 141.544 62.9201 141.264C63.0881 140.984 63.3561 140.76 63.7241 140.592C64.1001 140.424 64.6041 140.34 65.2361 140.34H67.2521V141.168H65.2841C64.7081 141.168 64.3201 141.264 64.1201 141.456C63.9201 141.648 63.8201 141.88 63.8201 142.152C63.8201 142.464 63.9441 142.716 64.1921 142.908C64.4401 143.092 64.7841 143.184 65.2241 143.184C65.6561 143.184 66.0321 143.088 66.3521 142.896C66.6801 142.704 66.9161 142.424 67.0601 142.056L67.2881 142.848C67.1361 143.224 66.8681 143.524 66.4841 143.748C66.1001 143.964 65.6161 144.072 65.0321 144.072ZM70.344 144V137.64H71.448V139.368L71.34 138.936C71.516 138.496 71.812 138.16 72.228 137.928C72.644 137.696 73.156 137.58 73.764 137.58V138.696C73.716 138.688 73.668 138.684 73.62 138.684C73.58 138.684 73.54 138.684 73.5 138.684C72.884 138.684 72.396 138.868 72.036 139.236C71.676 139.604 71.496 140.136 71.496 140.832V144H70.344ZM78.663 144V142.656L78.603 142.404V140.112C78.603 139.624 78.459 139.248 78.171 138.984C77.891 138.712 77.467 138.576 76.899 138.576C76.523 138.576 76.155 138.64 75.795 138.768C75.435 138.888 75.131 139.052 74.883 139.26L74.403 138.396C74.731 138.132 75.123 137.932 75.579 137.796C76.043 137.652 76.527 137.58 77.031 137.58C77.903 137.58 78.575 137.792 79.047 138.216C79.519 138.64 79.755 139.288 79.755 140.16V144H78.663ZM76.575 144.072C76.103 144.072 75.687 143.992 75.327 143.832C74.975 143.672 74.703 143.452 74.511 143.172C74.319 142.884 74.223 142.56 74.223 142.2C74.223 141.856 74.303 141.544 74.463 141.264C74.631 140.984 74.899 140.76 75.267 140.592C75.643 140.424 76.147 140.34 76.779 140.34H78.795V141.168H76.827C76.251 141.168 75.863 141.264 75.663 141.456C75.463 141.648 75.363 141.88 75.363 142.152C75.363 142.464 75.487 142.716 75.735 142.908C75.983 143.092 76.327 143.184 76.767 143.184C77.199 143.184 77.575 143.088 77.895 142.896C78.223 142.704 78.459 142.424 78.603 142.056L78.831 142.848C78.679 143.224 78.411 143.524 78.027 143.748C77.643 143.964 77.159 144.072 76.575 144.072ZM87.7376 144.072C87.1216 144.072 86.5696 143.936 86.0816 143.664C85.6016 143.392 85.2216 143.012 84.9416 142.524C84.6616 142.036 84.5216 141.468 84.5216 140.82C84.5216 140.172 84.6616 139.608 84.9416 139.128C85.2216 138.64 85.6016 138.26 86.0816 137.988C86.5696 137.716 87.1216 137.58 87.7376 137.58C88.2736 137.58 88.7576 137.7 89.1896 137.94C89.6216 138.18 89.9656 138.54 90.2216 139.02C90.4856 139.5 90.6176 140.1 90.6176 140.82C90.6176 141.54 90.4896 142.14 90.2336 142.62C89.9856 143.1 89.6456 143.464 89.2136 143.712C88.7816 143.952 88.2896 144.072 87.7376 144.072ZM87.8336 143.064C88.2336 143.064 88.5936 142.972 88.9136 142.788C89.2416 142.604 89.4976 142.344 89.6816 142.008C89.8736 141.664 89.9696 141.268 89.9696 140.82C89.9696 140.364 89.8736 139.972 89.6816 139.644C89.4976 139.308 89.2416 139.048 88.9136 138.864C88.5936 138.68 88.2336 138.588 87.8336 138.588C87.4256 138.588 87.0616 138.68 86.7416 138.864C86.4216 139.048 86.1656 139.308 85.9736 139.644C85.7816 139.972 85.6856 140.364 85.6856 140.82C85.6856 141.268 85.7816 141.664 85.9736 142.008C86.1656 142.344 86.4216 142.604 86.7416 142.788C87.0616 142.972 87.4256 143.064 87.8336 143.064ZM90.0056 144V142.284L90.0776 140.808L89.9576 139.332V135.096H91.1096V144H90.0056ZM96.1213 144.072C95.4413 144.072 94.8413 143.932 94.3213 143.652C93.8093 143.372 93.4093 142.988 93.1213 142.5C92.8413 142.012 92.7013 141.452 92.7013 140.82C92.7013 140.188 92.8373 139.628 93.1093 139.14C93.3893 138.652 93.7693 138.272 94.2493 138C94.7373 137.72 95.2853 137.58 95.8933 137.58C96.5093 137.58 97.0533 137.716 97.5253 137.988C97.9973 138.26 98.3653 138.644 98.6293 139.14C98.9013 139.628 99.0373 140.2 99.0373 140.856C99.0373 140.904 99.0333 140.96 99.0253 141.024C99.0253 141.088 99.0213 141.148 99.0133 141.204H93.6013V140.376H98.4133L97.9453 140.664C97.9533 140.256 97.8693 139.892 97.6933 139.572C97.5173 139.252 97.2733 139.004 96.9613 138.828C96.6573 138.644 96.3013 138.552 95.8933 138.552C95.4933 138.552 95.1373 138.644 94.8253 138.828C94.5133 139.004 94.2693 139.256 94.0933 139.584C93.9173 139.904 93.8293 140.272 93.8293 140.688V140.88C93.8293 141.304 93.9253 141.684 94.1173 142.02C94.3173 142.348 94.5933 142.604 94.9453 142.788C95.2973 142.972 95.7013 143.064 96.1573 143.064C96.5333 143.064 96.8733 143 97.1773 142.872C97.4893 142.744 97.7613 142.552 97.9933 142.296L98.6293 143.04C98.3413 143.376 97.9813 143.632 97.5493 143.808C97.1253 143.984 96.6493 144.072 96.1213 144.072ZM104.033 137.58C104.553 137.58 105.009 137.68 105.401 137.88C105.801 138.08 106.113 138.384 106.337 138.792C106.561 139.2 106.673 139.716 106.673 140.34V144H105.521V140.472C105.521 139.856 105.369 139.392 105.065 139.08C104.769 138.768 104.349 138.612 103.805 138.612C103.397 138.612 103.041 138.692 102.737 138.852C102.433 139.012 102.197 139.248 102.029 139.56C101.869 139.872 101.789 140.26 101.789 140.724V144H100.637V137.64H101.741V139.356L101.561 138.9C101.769 138.484 102.089 138.16 102.521 137.928C102.953 137.696 103.457 137.58 104.033 137.58ZM110.989 144.072C110.349 144.072 109.853 143.9 109.501 143.556C109.149 143.212 108.973 142.72 108.973 142.08V136.248H110.125V142.032C110.125 142.376 110.209 142.64 110.377 142.824C110.553 143.008 110.801 143.1 111.121 143.1C111.481 143.1 111.781 143 112.021 142.8L112.381 143.628C112.205 143.78 111.993 143.892 111.745 143.964C111.505 144.036 111.253 144.072 110.989 144.072ZM107.893 138.588V137.64H111.949V138.588H107.893ZM113.774 144V137.64H114.878V139.368L114.77 138.936C114.946 138.496 115.242 138.16 115.658 137.928C116.074 137.696 116.586 137.58 117.194 137.58V138.696C117.146 138.688 117.098 138.684 117.05 138.684C117.01 138.684 116.97 138.684 116.93 138.684C116.314 138.684 115.826 138.868 115.466 139.236C115.106 139.604 114.926 140.136 114.926 140.832V144H113.774ZM121.279 144.072C120.639 144.072 120.071 143.932 119.575 143.652C119.079 143.372 118.687 142.988 118.399 142.5C118.111 142.004 117.967 141.444 117.967 140.82C117.967 140.188 118.111 139.628 118.399 139.14C118.687 138.652 119.079 138.272 119.575 138C120.071 137.72 120.639 137.58 121.279 137.58C121.911 137.58 122.475 137.72 122.971 138C123.475 138.272 123.867 138.652 124.147 139.14C124.435 139.62 124.579 140.18 124.579 140.82C124.579 141.452 124.435 142.012 124.147 142.5C123.867 142.988 123.475 143.372 122.971 143.652C122.475 143.932 121.911 144.072 121.279 144.072ZM121.279 143.064C121.687 143.064 122.051 142.972 122.371 142.788C122.699 142.604 122.955 142.344 123.139 142.008C123.323 141.664 123.415 141.268 123.415 140.82C123.415 140.364 123.323 139.972 123.139 139.644C122.955 139.308 122.699 139.048 122.371 138.864C122.051 138.68 121.687 138.588 121.279 138.588C120.871 138.588 120.507 138.68 120.187 138.864C119.867 139.048 119.611 139.308 119.419 139.644C119.227 139.972 119.131 140.364 119.131 140.82C119.131 141.268 119.227 141.664 119.419 142.008C119.611 142.344 119.867 142.604 120.187 142.788C120.507 142.972 120.871 143.064 121.279 143.064ZM132.227 144.072C131.547 144.072 130.947 143.932 130.427 143.652C129.915 143.372 129.515 142.988 129.227 142.5C128.947 142.012 128.807 141.452 128.807 140.82C128.807 140.188 128.943 139.628 129.215 139.14C129.495 138.652 129.875 138.272 130.355 138C130.843 137.72 131.391 137.58 131.999 137.58C132.615 137.58 133.159 137.716 133.631 137.988C134.103 138.26 134.471 138.644 134.735 139.14C135.007 139.628 135.143 140.2 135.143 140.856C135.143 140.904 135.139 140.96 135.131 141.024C135.131 141.088 135.127 141.148 135.119 141.204H129.707V140.376H134.519L134.051 140.664C134.059 140.256 133.975 139.892 133.799 139.572C133.623 139.252 133.379 139.004 133.067 138.828C132.763 138.644 132.407 138.552 131.999 138.552C131.599 138.552 131.243 138.644 130.931 138.828C130.619 139.004 130.375 139.256 130.199 139.584C130.023 139.904 129.935 140.272 129.935 140.688V140.88C129.935 141.304 130.031 141.684 130.223 142.02C130.423 142.348 130.699 142.604 131.051 142.788C131.403 142.972 131.807 143.064 132.263 143.064C132.639 143.064 132.979 143 133.283 142.872C133.595 142.744 133.867 142.552 134.099 142.296L134.735 143.04C134.447 143.376 134.087 143.632 133.655 143.808C133.231 143.984 132.755 144.072 132.227 144.072ZM143.337 144.072C142.809 144.072 142.325 143.952 141.885 143.712C141.453 143.464 141.105 143.1 140.841 142.62C140.585 142.14 140.457 141.54 140.457 140.82C140.457 140.1 140.581 139.5 140.829 139.02C141.085 138.54 141.429 138.18 141.861 137.94C142.301 137.7 142.793 137.58 143.337 137.58C143.961 137.58 144.513 137.716 144.993 137.988C145.473 138.26 145.853 138.64 146.133 139.128C146.413 139.608 146.553 140.172 146.553 140.82C146.553 141.468 146.413 142.036 146.133 142.524C145.853 143.012 145.473 143.392 144.993 143.664C144.513 143.936 143.961 144.072 143.337 144.072ZM139.965 146.328V137.64H141.069V139.356L140.997 140.832L141.117 142.308V146.328H139.965ZM143.241 143.064C143.649 143.064 144.013 142.972 144.333 142.788C144.661 142.604 144.917 142.344 145.101 142.008C145.293 141.664 145.389 141.268 145.389 140.82C145.389 140.364 145.293 139.972 145.101 139.644C144.917 139.308 144.661 139.048 144.333 138.864C144.013 138.68 143.649 138.588 143.241 138.588C142.841 138.588 142.477 138.68 142.149 138.864C141.829 139.048 141.573 139.308 141.381 139.644C141.197 139.972 141.105 140.364 141.105 140.82C141.105 141.268 141.197 141.664 141.381 142.008C141.573 142.344 141.829 142.604 142.149 142.788C142.477 142.972 142.841 143.064 143.241 143.064ZM152.034 144V142.656L151.974 142.404V140.112C151.974 139.624 151.83 139.248 151.542 138.984C151.262 138.712 150.838 138.576 150.27 138.576C149.894 138.576 149.526 138.64 149.166 138.768C148.806 138.888 148.502 139.052 148.254 139.26L147.774 138.396C148.102 138.132 148.494 137.932 148.95 137.796C149.414 137.652 149.898 137.58 150.402 137.58C151.274 137.58 151.946 137.792 152.418 138.216C152.89 138.64 153.126 139.288 153.126 140.16V144H152.034ZM149.946 144.072C149.474 144.072 149.058 143.992 148.698 143.832C148.346 143.672 148.074 143.452 147.882 143.172C147.69 142.884 147.594 142.56 147.594 142.2C147.594 141.856 147.674 141.544 147.834 141.264C148.002 140.984 148.27 140.76 148.638 140.592C149.014 140.424 149.518 140.34 150.15 140.34H152.166V141.168H150.198C149.622 141.168 149.234 141.264 149.034 141.456C148.834 141.648 148.734 141.88 148.734 142.152C148.734 142.464 148.858 142.716 149.106 142.908C149.354 143.092 149.698 143.184 150.138 143.184C150.57 143.184 150.946 143.088 151.266 142.896C151.594 142.704 151.83 142.424 151.974 142.056L152.202 142.848C152.05 143.224 151.782 143.524 151.398 143.748C151.014 143.964 150.53 144.072 149.946 144.072ZM155.258 144V137.64H156.362V139.368L156.254 138.936C156.43 138.496 156.726 138.16 157.142 137.928C157.558 137.696 158.07 137.58 158.678 137.58V138.696C158.63 138.688 158.582 138.684 158.534 138.684C158.494 138.684 158.454 138.684 158.414 138.684C157.798 138.684 157.31 138.868 156.95 139.236C156.59 139.604 156.41 140.136 156.41 140.832V144H155.258ZM163.577 144V142.656L163.517 142.404V140.112C163.517 139.624 163.373 139.248 163.085 138.984C162.805 138.712 162.381 138.576 161.813 138.576C161.437 138.576 161.069 138.64 160.709 138.768C160.349 138.888 160.045 139.052 159.797 139.26L159.317 138.396C159.645 138.132 160.037 137.932 160.493 137.796C160.957 137.652 161.441 137.58 161.945 137.58C162.817 137.58 163.489 137.792 163.961 138.216C164.433 138.64 164.669 139.288 164.669 140.16V144H163.577ZM161.489 144.072C161.017 144.072 160.601 143.992 160.241 143.832C159.889 143.672 159.617 143.452 159.425 143.172C159.233 142.884 159.137 142.56 159.137 142.2C159.137 141.856 159.217 141.544 159.377 141.264C159.545 140.984 159.813 140.76 160.181 140.592C160.557 140.424 161.061 140.34 161.693 140.34H163.709V141.168H161.741C161.165 141.168 160.777 141.264 160.577 141.456C160.377 141.648 160.277 141.88 160.277 142.152C160.277 142.464 160.401 142.716 160.649 142.908C160.897 143.092 161.241 143.184 161.681 143.184C162.113 143.184 162.489 143.088 162.809 142.896C163.137 142.704 163.373 142.424 163.517 142.056L163.745 142.848C163.593 143.224 163.325 143.524 162.941 143.748C162.557 143.964 162.073 144.072 161.489 144.072ZM78.2522 159V152.076C78.2522 151.452 78.4322 150.956 78.7922 150.588C79.1602 150.212 79.6802 150.024 80.3522 150.024C80.6002 150.024 80.8362 150.056 81.0602 150.12C81.2922 150.176 81.4882 150.268 81.6482 150.396L81.3002 151.272C81.1802 151.176 81.0442 151.104 80.8922 151.056C80.7402 151 80.5802 150.972 80.4122 150.972C80.0762 150.972 79.8202 151.068 79.6442 151.26C79.4682 151.444 79.3802 151.72 79.3802 152.088V152.94L79.4042 153.468V159H78.2522ZM77.1722 153.588V152.64H81.2282V153.588H77.1722ZM84.9449 159.072C84.3049 159.072 83.7369 158.932 83.2409 158.652C82.7449 158.372 82.3529 157.988 82.0649 157.5C81.7769 157.004 81.6329 156.444 81.6329 155.82C81.6329 155.188 81.7769 154.628 82.0649 154.14C82.3529 153.652 82.7449 153.272 83.2409 153C83.7369 152.72 84.3049 152.58 84.9449 152.58C85.5769 152.58 86.1409 152.72 86.6369 153C87.1409 153.272 87.5329 153.652 87.8129 154.14C88.1009 154.62 88.2449 155.18 88.2449 155.82C88.2449 156.452 88.1009 157.012 87.8129 157.5C87.5329 157.988 87.1409 158.372 86.6369 158.652C86.1409 158.932 85.5769 159.072 84.9449 159.072ZM84.9449 158.064C85.3529 158.064 85.7169 157.972 86.0369 157.788C86.3649 157.604 86.6209 157.344 86.8049 157.008C86.9889 156.664 87.0809 156.268 87.0809 155.82C87.0809 155.364 86.9889 154.972 86.8049 154.644C86.6209 154.308 86.3649 154.048 86.0369 153.864C85.7169 153.68 85.3529 153.588 84.9449 153.588C84.5369 153.588 84.1729 153.68 83.8529 153.864C83.5329 154.048 83.2769 154.308 83.0849 154.644C82.8929 154.972 82.7969 155.364 82.7969 155.82C82.7969 156.268 82.8929 156.664 83.0849 157.008C83.2769 157.344 83.5329 157.604 83.8529 157.788C84.1729 157.972 84.5369 158.064 84.9449 158.064ZM89.8381 159V152.64H90.9421V154.368L90.8341 153.936C91.0101 153.496 91.3061 153.16 91.7221 152.928C92.1381 152.696 92.6501 152.58 93.2581 152.58V153.696C93.2101 153.688 93.1621 153.684 93.1141 153.684C93.0741 153.684 93.0341 153.684 92.9941 153.684C92.3781 153.684 91.8901 153.868 91.5301 154.236C91.1701 154.604 90.9901 155.136 90.9901 155.832V159H89.8381ZM98.1572 159V157.656L98.0972 157.404V155.112C98.0972 154.624 97.9532 154.248 97.6652 153.984C97.3852 153.712 96.9612 153.576 96.3932 153.576C96.0172 153.576 95.6492 153.64 95.2892 153.768C94.9292 153.888 94.6252 154.052 94.3772 154.26L93.8972 153.396C94.2252 153.132 94.6172 152.932 95.0732 152.796C95.5372 152.652 96.0212 152.58 96.5252 152.58C97.3972 152.58 98.0692 152.792 98.5412 153.216C99.0132 153.64 99.2492 154.288 99.2492 155.16V159H98.1572ZM96.0692 159.072C95.5972 159.072 95.1812 158.992 94.8212 158.832C94.4692 158.672 94.1972 158.452 94.0052 158.172C93.8132 157.884 93.7172 157.56 93.7172 157.2C93.7172 156.856 93.7972 156.544 93.9572 156.264C94.1252 155.984 94.3932 155.76 94.7612 155.592C95.1372 155.424 95.6412 155.34 96.2732 155.34H98.2892V156.168H96.3212C95.7452 156.168 95.3572 156.264 95.1572 156.456C94.9572 156.648 94.8572 156.88 94.8572 157.152C94.8572 157.464 94.9812 157.716 95.2292 157.908C95.4772 158.092 95.8212 158.184 96.2612 158.184C96.6932 158.184 97.0692 158.088 97.3892 157.896C97.7172 157.704 97.9532 157.424 98.0972 157.056L98.3252 157.848C98.1732 158.224 97.9052 158.524 97.5212 158.748C97.1372 158.964 96.6532 159.072 96.0692 159.072ZM101.657 159.072C101.433 159.072 101.241 158.996 101.081 158.844C100.921 158.684 100.841 158.484 100.841 158.244C100.841 158.004 100.921 157.808 101.081 157.656C101.241 157.504 101.433 157.428 101.657 157.428C101.873 157.428 102.057 157.504 102.209 157.656C102.369 157.808 102.449 158.004 102.449 158.244C102.449 158.484 102.369 158.684 102.209 158.844C102.057 158.996 101.873 159.072 101.657 159.072Z" fill="#008E86"/>
<path d="M31 75.6652L36.794 37.4249L97.4378 100L39.4979 98.0687L31 75.6652Z" fill="#008E86" stroke="#00635D" stroke-width="2" stroke-linejoin="round"/>
<path d="M36.021 36.6515L53.403 18.8833L57.2656 24.291L36.4073 77.5957L36.021 36.6515Z" fill="#00D8CC" stroke="#00635D" stroke-width="2" stroke-linejoin="round"/>
<path d="M48.382 9.99917L56.1073 14.2481L57.2661 24.291L46.4507 11.9305L48.382 9.99917Z" fill="#00D8CC" stroke="#00635D" stroke-width="2" stroke-linejoin="round"/>
<path d="M36.4072 77.5961L48.3815 48.6262L97.4373 99.6133L45.2913 99.6133L36.4072 77.5961Z" fill="#00D8CC" stroke="#00635D" stroke-width="2" stroke-linejoin="round"/>
<path d="M85.8496 87.6387L81.9869 99.9992" stroke="#00635D" stroke-dasharray="2 2"/>
<path d="M90.4849 93.0469L86.6222 99.2271" stroke="#00635D" stroke-dasharray="2 2"/>
<g clip-path="url(#clip2_14_2847)">
<path d="M83.1543 20.1532L141.719 35.3647L144.761 77.957L96.0841 71.8724L83.1543 20.1532Z" fill="#008E86" stroke="#00635D" stroke-width="3.04231" stroke-linejoin="round"/>
<path d="M119.662 49.8155L155.409 54.379L122.704 72.6328L119.662 49.8155Z" fill="#00D8CC" stroke="#00635D" stroke-width="3.04231" stroke-linejoin="round"/>
<path d="M89.9995 -1.90347L141.719 35.3648L121.944 84.0417L85.436 87.084L89.9995 -1.90347Z" fill="#00D8CC" stroke="#00635D" stroke-width="3.04231" stroke-linejoin="round"/>
</g>
<rect x="90.7606" y="14.8289" width="58.4788" height="58.4788" rx="29.2394" stroke="#333333" stroke-width="1.52115"/>
<path d="M90.4506 83.1622C89.8983 83.1622 89.4506 83.61 89.4506 84.1622C89.4506 84.7145 89.8983 85.1622 90.4506 85.1622L90.4506 83.1622ZM120.9 89.5044C121.29 89.1139 121.29 88.4807 120.9 88.0902L114.536 81.7263C114.145 81.3358 113.512 81.3358 113.121 81.7263C112.731 82.1168 112.731 82.75 113.121 83.1405L118.778 88.7973L113.122 94.4542C112.731 94.8448 112.731 95.4779 113.122 95.8684C113.512 96.259 114.145 96.259 114.536 95.8684L120.9 89.5044ZM106.674 84.1622L107.381 84.8693C107.667 84.5834 107.752 84.1532 107.598 83.7796C107.443 83.4059 107.078 83.1622 106.674 83.1622L106.674 84.1622ZM102.425 88.7974L101.718 88.0903C101.432 88.3763 101.346 88.8064 101.501 89.1801C101.656 89.5538 102.02 89.7974 102.425 89.7974L102.425 88.7974ZM90.4506 85.1622C93.6851 85.1622 100.836 85.1622 106.674 85.1622L106.674 83.1622C100.836 83.1622 93.6851 83.1622 90.4506 83.1622L90.4506 85.1622ZM105.967 83.4551C104.778 84.6442 104.369 85.1536 103.92 85.7017C103.507 86.2073 103.046 86.762 101.718 88.0903L103.132 89.5045C104.508 88.129 105.013 87.5249 105.468 86.9682C105.889 86.4541 106.252 85.9978 107.381 84.8693L105.967 83.4551ZM102.425 89.7974C105.901 89.7974 117.554 89.7974 120.193 89.7973L120.193 87.7973C117.553 87.7974 105.901 87.7974 102.425 87.7974L102.425 89.7974Z" fill="black"/>
</g>
<defs>
<clipPath id="clip0_14_2847">
<rect width="180" height="180" rx="20" fill="white"/>
</clipPath>
<clipPath id="clip1_14_2847">
<path d="M0 30L-1.31134e-06 0L30 -1.31134e-06L30 10C30 21.0457 21.0457 30 10 30L0 30Z" fill="white"/>
</clipPath>
<clipPath id="clip2_14_2847">
<rect x="90" y="14.0684" width="60" height="60" rx="30" fill="white"/>
</clipPath>
</defs>
</svg>
