<svg width="180" height="180" viewBox="0 0 180 180" fill="none" xmlns="http://www.w3.org/2000/svg">
<g clip-path="url(#clip0_14_2879)">
<rect width="180" height="180" rx="20" fill="#F2F2F2"/>
<g clip-path="url(#clip1_14_2879)">
<path d="M0 30L-1.31134e-06 0L30 -1.31134e-06L30 10C30 21.0457 21.0457 30 10 30L0 30Z" fill="#333333"/>
<path d="M14.4663 9.608C16.0343 9.608 17.2609 10.088 18.1463 11.048C19.0316 11.9973 19.4743 13.368 19.4743 15.16C19.4743 16.4293 19.2343 17.5173 18.7543 18.424C18.2849 19.3307 17.6183 20.0187 16.7543 20.488C15.8903 20.9573 14.8929 21.192 13.7623 21.192C13.1649 21.192 12.5943 21.128 12.0503 21C11.5063 20.8613 11.0423 20.6693 10.6583 20.424L11.6183 18.52C12.1623 18.8933 12.8609 19.08 13.7143 19.08C14.6636 19.08 15.4156 18.8027 15.9703 18.248C16.5249 17.6827 16.8236 16.872 16.8663 15.816C16.1943 16.488 15.2663 16.824 14.0823 16.824C13.3676 16.824 12.7169 16.68 12.1303 16.392C11.5436 16.104 11.0796 15.6987 10.7383 15.176C10.3969 14.6427 10.2263 14.0293 10.2263 13.336C10.2263 12.5893 10.4129 11.9333 10.7863 11.368C11.1596 10.8027 11.6663 10.3707 12.3063 10.072C12.9569 9.76267 13.6769 9.608 14.4663 9.608ZM14.6583 14.888C15.2236 14.888 15.6823 14.7333 16.0343 14.424C16.3969 14.104 16.5783 13.6987 16.5783 13.208C16.5783 12.7173 16.4023 12.3173 16.0503 12.008C15.7089 11.6987 15.2343 11.544 14.6263 11.544C14.0716 11.544 13.6183 11.6933 13.2663 11.992C12.9249 12.2907 12.7543 12.696 12.7543 13.208C12.7543 13.72 12.9249 14.1307 13.2663 14.44C13.6183 14.7387 14.0823 14.888 14.6583 14.888Z" fill="#F2F2F2"/>
</g>
<path d="M48.6349 124.572H52.9669V125.604H48.6349V124.572ZM48.7549 129H47.5549V120.6H53.4829V121.644H48.7549V129ZM58.7177 129V127.656L58.6577 127.404V125.112C58.6577 124.624 58.5137 124.248 58.2257 123.984C57.9457 123.712 57.5217 123.576 56.9537 123.576C56.5777 123.576 56.2097 123.64 55.8497 123.768C55.4897 123.888 55.1857 124.052 54.9377 124.26L54.4577 123.396C54.7857 123.132 55.1777 122.932 55.6337 122.796C56.0977 122.652 56.5817 122.58 57.0857 122.58C57.9577 122.58 58.6297 122.792 59.1017 123.216C59.5737 123.64 59.8097 124.288 59.8097 125.16V129H58.7177ZM56.6297 129.072C56.1577 129.072 55.7417 128.992 55.3817 128.832C55.0297 128.672 54.7577 128.452 54.5657 128.172C54.3737 127.884 54.2777 127.56 54.2777 127.2C54.2777 126.856 54.3577 126.544 54.5177 126.264C54.6857 125.984 54.9537 125.76 55.3217 125.592C55.6977 125.424 56.2017 125.34 56.8337 125.34H58.8497V126.168H56.8817C56.3057 126.168 55.9177 126.264 55.7177 126.456C55.5177 126.648 55.4177 126.88 55.4177 127.152C55.4177 127.464 55.5417 127.716 55.7897 127.908C56.0377 128.092 56.3817 128.184 56.8217 128.184C57.2537 128.184 57.6297 128.088 57.9497 127.896C58.2777 127.704 58.5137 127.424 58.6577 127.056L58.8857 127.848C58.7337 128.224 58.4657 128.524 58.0817 128.748C57.6977 128.964 57.2137 129.072 56.6297 129.072ZM64.7136 129.072C64.0656 129.072 63.4856 128.932 62.9736 128.652C62.4696 128.372 62.0736 127.988 61.7856 127.5C61.4976 127.012 61.3536 126.452 61.3536 125.82C61.3536 125.188 61.4976 124.628 61.7856 124.14C62.0736 123.652 62.4696 123.272 62.9736 123C63.4856 122.72 64.0656 122.58 64.7136 122.58C65.2896 122.58 65.8016 122.696 66.2496 122.928C66.7056 123.152 67.0576 123.488 67.3056 123.936L66.4296 124.5C66.2216 124.188 65.9656 123.96 65.6616 123.816C65.3656 123.664 65.0456 123.588 64.7016 123.588C64.2856 123.588 63.9136 123.68 63.5856 123.864C63.2576 124.048 62.9976 124.308 62.8056 124.644C62.6136 124.972 62.5176 125.364 62.5176 125.82C62.5176 126.276 62.6136 126.672 62.8056 127.008C62.9976 127.344 63.2576 127.604 63.5856 127.788C63.9136 127.972 64.2856 128.064 64.7016 128.064C65.0456 128.064 65.3656 127.992 65.6616 127.848C65.9656 127.696 66.2216 127.464 66.4296 127.152L67.3056 127.704C67.0576 128.144 66.7056 128.484 66.2496 128.724C65.8016 128.956 65.2896 129.072 64.7136 129.072ZM64.1496 131.688C63.9416 131.688 63.7496 131.664 63.5736 131.616C63.3976 131.576 63.2336 131.512 63.0816 131.424L63.3336 130.836C63.4616 130.908 63.5896 130.96 63.7176 130.992C63.8536 131.024 63.9976 131.04 64.1496 131.04C64.3816 131.04 64.5496 130.996 64.6536 130.908C64.7656 130.828 64.8216 130.712 64.8216 130.56C64.8216 130.416 64.7656 130.3 64.6536 130.212C64.5496 130.132 64.3776 130.092 64.1376 130.092H63.8136L64.1136 128.916H64.7736L64.5936 129.6C64.9376 129.632 65.1976 129.74 65.3736 129.924C65.5496 130.108 65.6376 130.332 65.6376 130.596C65.6376 130.932 65.5016 131.196 65.2296 131.388C64.9576 131.588 64.5976 131.688 64.1496 131.688ZM72.7451 129V127.656L72.6851 127.404V125.112C72.6851 124.624 72.5411 124.248 72.2531 123.984C71.9731 123.712 71.5491 123.576 70.9811 123.576C70.6051 123.576 70.2371 123.64 69.8771 123.768C69.5171 123.888 69.2131 124.052 68.9651 124.26L68.4851 123.396C68.8131 123.132 69.2051 122.932 69.6611 122.796C70.1251 122.652 70.6091 122.58 71.1131 122.58C71.9851 122.58 72.6571 122.792 73.1291 123.216C73.6011 123.64 73.8371 124.288 73.8371 125.16V129H72.7451ZM70.6571 129.072C70.1851 129.072 69.7691 128.992 69.4091 128.832C69.0571 128.672 68.7851 128.452 68.5931 128.172C68.4011 127.884 68.3051 127.56 68.3051 127.2C68.3051 126.856 68.3851 126.544 68.5451 126.264C68.7131 125.984 68.9811 125.76 69.3491 125.592C69.7251 125.424 70.2291 125.34 70.8611 125.34H72.8771V126.168H70.9091C70.3331 126.168 69.9451 126.264 69.7451 126.456C69.5451 126.648 69.4451 126.88 69.4451 127.152C69.4451 127.464 69.5691 127.716 69.8171 127.908C70.0651 128.092 70.4091 128.184 70.8491 128.184C71.2811 128.184 71.6571 128.088 71.9771 127.896C72.3051 127.704 72.5411 127.424 72.6851 127.056L72.9131 127.848C72.7611 128.224 72.4931 128.524 72.1091 128.748C71.7251 128.964 71.2411 129.072 70.6571 129.072ZM81.8676 129.072C81.3236 129.072 80.8436 128.972 80.4276 128.772C80.0196 128.572 79.6996 128.268 79.4676 127.86C79.2436 127.444 79.1316 126.924 79.1316 126.3V122.64H80.2836V126.168C80.2836 126.792 80.4316 127.26 80.7276 127.572C81.0316 127.884 81.4556 128.04 81.9996 128.04C82.3996 128.04 82.7476 127.96 83.0436 127.8C83.3396 127.632 83.5676 127.392 83.7276 127.08C83.8876 126.76 83.9676 126.376 83.9676 125.928V122.64H85.1196V129H84.0276V127.284L84.2076 127.74C83.9996 128.164 83.6876 128.492 83.2716 128.724C82.8556 128.956 82.3876 129.072 81.8676 129.072ZM95.2687 122.58C95.7807 122.58 96.2327 122.68 96.6247 122.88C97.0167 123.08 97.3207 123.384 97.5367 123.792C97.7607 124.2 97.8727 124.716 97.8727 125.34V129H96.7207V125.472C96.7207 124.856 96.5767 124.392 96.2887 124.08C96.0007 123.768 95.5967 123.612 95.0767 123.612C94.6927 123.612 94.3567 123.692 94.0687 123.852C93.7807 124.012 93.5567 124.248 93.3967 124.56C93.2447 124.872 93.1687 125.26 93.1687 125.724V129H92.0167V125.472C92.0167 124.856 91.8727 124.392 91.5847 124.08C91.3047 123.768 90.9007 123.612 90.3727 123.612C89.9967 123.612 89.6647 123.692 89.3767 123.852C89.0887 124.012 88.8647 124.248 88.7047 124.56C88.5447 124.872 88.4647 125.26 88.4647 125.724V129H87.3127V122.64H88.4167V124.332L88.2367 123.9C88.4367 123.484 88.7447 123.16 89.1607 122.928C89.5767 122.696 90.0607 122.58 90.6127 122.58C91.2207 122.58 91.7447 122.732 92.1847 123.036C92.6247 123.332 92.9127 123.784 93.0487 124.392L92.5807 124.2C92.7727 123.712 93.1087 123.32 93.5887 123.024C94.0687 122.728 94.6287 122.58 95.2687 122.58ZM105.987 129.072C105.339 129.072 104.759 128.932 104.247 128.652C103.743 128.372 103.347 127.988 103.059 127.5C102.771 127.012 102.627 126.452 102.627 125.82C102.627 125.188 102.771 124.628 103.059 124.14C103.347 123.652 103.743 123.272 104.247 123C104.759 122.72 105.339 122.58 105.987 122.58C106.563 122.58 107.075 122.696 107.523 122.928C107.979 123.152 108.331 123.488 108.579 123.936L107.703 124.5C107.495 124.188 107.239 123.96 106.935 123.816C106.639 123.664 106.319 123.588 105.975 123.588C105.559 123.588 105.187 123.68 104.859 123.864C104.531 124.048 104.271 124.308 104.079 124.644C103.887 124.972 103.791 125.364 103.791 125.82C103.791 126.276 103.887 126.672 104.079 127.008C104.271 127.344 104.531 127.604 104.859 127.788C105.187 127.972 105.559 128.064 105.975 128.064C106.319 128.064 106.639 127.992 106.935 127.848C107.239 127.696 107.495 127.464 107.703 127.152L108.579 127.704C108.331 128.144 107.979 128.484 107.523 128.724C107.075 128.956 106.563 129.072 105.987 129.072ZM112.701 129.072C112.061 129.072 111.493 128.932 110.997 128.652C110.501 128.372 110.109 127.988 109.821 127.5C109.533 127.004 109.389 126.444 109.389 125.82C109.389 125.188 109.533 124.628 109.821 124.14C110.109 123.652 110.501 123.272 110.997 123C111.493 122.72 112.061 122.58 112.701 122.58C113.333 122.58 113.897 122.72 114.393 123C114.897 123.272 115.289 123.652 115.569 124.14C115.857 124.62 116.001 125.18 116.001 125.82C116.001 126.452 115.857 127.012 115.569 127.5C115.289 127.988 114.897 128.372 114.393 128.652C113.897 128.932 113.333 129.072 112.701 129.072ZM112.701 128.064C113.109 128.064 113.473 127.972 113.793 127.788C114.121 127.604 114.377 127.344 114.561 127.008C114.745 126.664 114.837 126.268 114.837 125.82C114.837 125.364 114.745 124.972 114.561 124.644C114.377 124.308 114.121 124.048 113.793 123.864C113.473 123.68 113.109 123.588 112.701 123.588C112.293 123.588 111.929 123.68 111.609 123.864C111.289 124.048 111.033 124.308 110.841 124.644C110.649 124.972 110.553 125.364 110.553 125.82C110.553 126.268 110.649 126.664 110.841 127.008C111.033 127.344 111.289 127.604 111.609 127.788C111.929 127.972 112.293 128.064 112.701 128.064ZM117.594 129V122.64H118.698V124.368L118.59 123.936C118.766 123.496 119.062 123.16 119.478 122.928C119.894 122.696 120.406 122.58 121.014 122.58V123.696C120.966 123.688 120.918 123.684 120.87 123.684C120.83 123.684 120.79 123.684 120.75 123.684C120.134 123.684 119.646 123.868 119.286 124.236C118.926 124.604 118.746 125.136 118.746 125.832V129H117.594ZM124.876 129.072C124.236 129.072 123.74 128.9 123.388 128.556C123.036 128.212 122.86 127.72 122.86 127.08V121.248H124.012V127.032C124.012 127.376 124.096 127.64 124.264 127.824C124.44 128.008 124.688 128.1 125.008 128.1C125.368 128.1 125.668 128 125.908 127.8L126.268 128.628C126.092 128.78 125.88 128.892 125.632 128.964C125.392 129.036 125.14 129.072 124.876 129.072ZM121.78 123.588V122.64H125.836V123.588H121.78ZM130.281 129.072C129.601 129.072 129.001 128.932 128.481 128.652C127.969 128.372 127.569 127.988 127.281 127.5C127.001 127.012 126.861 126.452 126.861 125.82C126.861 125.188 126.997 124.628 127.269 124.14C127.549 123.652 127.929 123.272 128.409 123C128.897 122.72 129.445 122.58 130.053 122.58C130.669 122.58 131.213 122.716 131.685 122.988C132.157 123.26 132.525 123.644 132.789 124.14C133.061 124.628 133.197 125.2 133.197 125.856C133.197 125.904 133.193 125.96 133.185 126.024C133.185 126.088 133.181 126.148 133.173 126.204H127.761V125.376H132.573L132.105 125.664C132.113 125.256 132.029 124.892 131.853 124.572C131.677 124.252 131.433 124.004 131.121 123.828C130.817 123.644 130.461 123.552 130.053 123.552C129.653 123.552 129.297 123.644 128.985 123.828C128.673 124.004 128.429 124.256 128.253 124.584C128.077 124.904 127.989 125.272 127.989 125.688V125.88C127.989 126.304 128.085 126.684 128.277 127.02C128.477 127.348 128.753 127.604 129.105 127.788C129.457 127.972 129.861 128.064 130.317 128.064C130.693 128.064 131.033 128 131.337 127.872C131.649 127.744 131.921 127.552 132.153 127.296L132.789 128.04C132.501 128.376 132.141 128.632 131.709 128.808C131.285 128.984 130.809 129.072 130.281 129.072ZM37.0833 144.072C36.4673 144.072 35.9153 143.936 35.4273 143.664C34.9473 143.392 34.5673 143.012 34.2873 142.524C34.0073 142.036 33.8673 141.468 33.8673 140.82C33.8673 140.172 34.0073 139.608 34.2873 139.128C34.5673 138.64 34.9473 138.26 35.4273 137.988C35.9153 137.716 36.4673 137.58 37.0833 137.58C37.6353 137.58 38.1273 137.7 38.5593 137.94C38.9913 138.18 39.3313 138.54 39.5793 139.02C39.8353 139.5 39.9633 140.1 39.9633 140.82C39.9633 141.54 39.8313 142.14 39.5673 142.62C39.3113 143.1 38.9673 143.464 38.5353 143.712C38.1033 143.952 37.6193 144.072 37.0833 144.072ZM37.1793 143.064C37.5793 143.064 37.9393 142.972 38.2593 142.788C38.5873 142.604 38.8433 142.344 39.0273 142.008C39.2193 141.664 39.3153 141.268 39.3153 140.82C39.3153 140.364 39.2193 139.972 39.0273 139.644C38.8433 139.308 38.5873 139.048 38.2593 138.864C37.9393 138.68 37.5793 138.588 37.1793 138.588C36.7713 138.588 36.4073 138.68 36.0873 138.864C35.7673 139.048 35.5113 139.308 35.3193 139.644C35.1273 139.972 35.0313 140.364 35.0313 140.82C35.0313 141.268 35.1273 141.664 35.3193 142.008C35.5113 142.344 35.7673 142.604 36.0873 142.788C36.4073 142.972 36.7713 143.064 37.1793 143.064ZM39.3033 146.328V142.308L39.4233 140.832L39.3513 139.356V137.64H40.4553V146.328H39.3033ZM45.311 144.072C44.767 144.072 44.287 143.972 43.871 143.772C43.463 143.572 43.143 143.268 42.911 142.86C42.687 142.444 42.575 141.924 42.575 141.3V137.64H43.727V141.168C43.727 141.792 43.875 142.26 44.171 142.572C44.475 142.884 44.899 143.04 45.443 143.04C45.843 143.04 46.191 142.96 46.487 142.8C46.783 142.632 47.011 142.392 47.171 142.08C47.331 141.76 47.411 141.376 47.411 140.928V137.64H48.563V144H47.471V142.284L47.651 142.74C47.443 143.164 47.131 143.492 46.715 143.724C46.299 143.956 45.831 144.072 45.311 144.072ZM54.7041 144V142.656L54.6441 142.404V140.112C54.6441 139.624 54.5001 139.248 54.2121 138.984C53.9321 138.712 53.5081 138.576 52.9401 138.576C52.5641 138.576 52.1961 138.64 51.8361 138.768C51.4761 138.888 51.1721 139.052 50.9241 139.26L50.4441 138.396C50.7721 138.132 51.1641 137.932 51.6201 137.796C52.0841 137.652 52.5681 137.58 53.0721 137.58C53.9441 137.58 54.6161 137.792 55.0881 138.216C55.5601 138.64 55.7961 139.288 55.7961 140.16V144H54.7041ZM52.6161 144.072C52.1441 144.072 51.7281 143.992 51.3681 143.832C51.0161 143.672 50.7441 143.452 50.5521 143.172C50.3601 142.884 50.2641 142.56 50.2641 142.2C50.2641 141.856 50.3441 141.544 50.5041 141.264C50.6721 140.984 50.9401 140.76 51.3081 140.592C51.6841 140.424 52.1881 140.34 52.8201 140.34H54.8361V141.168H52.8681C52.2921 141.168 51.9041 141.264 51.7041 141.456C51.5041 141.648 51.4041 141.88 51.4041 142.152C51.4041 142.464 51.5281 142.716 51.7761 142.908C52.0241 143.092 52.3681 143.184 52.8081 143.184C53.2401 143.184 53.6161 143.088 53.9361 142.896C54.2641 142.704 54.5001 142.424 54.6441 142.056L54.8721 142.848C54.7201 143.224 54.4521 143.524 54.0681 143.748C53.6841 143.964 53.2001 144.072 52.6161 144.072ZM60.5559 144.072C59.9399 144.072 59.3879 143.936 58.8999 143.664C58.4199 143.392 58.0399 143.012 57.7599 142.524C57.4799 142.036 57.3399 141.468 57.3399 140.82C57.3399 140.172 57.4799 139.608 57.7599 139.128C58.0399 138.64 58.4199 138.26 58.8999 137.988C59.3879 137.716 59.9399 137.58 60.5559 137.58C61.0919 137.58 61.5759 137.7 62.0079 137.94C62.4399 138.18 62.7839 138.54 63.0399 139.02C63.3039 139.5 63.4359 140.1 63.4359 140.82C63.4359 141.54 63.3079 142.14 63.0519 142.62C62.8039 143.1 62.4639 143.464 62.0319 143.712C61.5999 143.952 61.1079 144.072 60.5559 144.072ZM60.6519 143.064C61.0519 143.064 61.4119 142.972 61.7319 142.788C62.0599 142.604 62.3159 142.344 62.4999 142.008C62.6919 141.664 62.7879 141.268 62.7879 140.82C62.7879 140.364 62.6919 139.972 62.4999 139.644C62.3159 139.308 62.0599 139.048 61.7319 138.864C61.4119 138.68 61.0519 138.588 60.6519 138.588C60.2439 138.588 59.8799 138.68 59.5599 138.864C59.2399 139.048 58.9839 139.308 58.7919 139.644C58.5999 139.972 58.5039 140.364 58.5039 140.82C58.5039 141.268 58.5999 141.664 58.7919 142.008C58.9839 142.344 59.2399 142.604 59.5599 142.788C59.8799 142.972 60.2439 143.064 60.6519 143.064ZM62.8239 144V142.284L62.8959 140.808L62.7759 139.332V135.096H63.9279V144H62.8239ZM66.1076 144V137.64H67.2116V139.368L67.1036 138.936C67.2796 138.496 67.5756 138.16 67.9916 137.928C68.4076 137.696 68.9196 137.58 69.5276 137.58V138.696C69.4796 138.688 69.4316 138.684 69.3836 138.684C69.3436 138.684 69.3036 138.684 69.2636 138.684C68.6476 138.684 68.1596 138.868 67.7996 139.236C67.4396 139.604 67.2596 140.136 67.2596 140.832V144H66.1076ZM74.4267 144V142.656L74.3667 142.404V140.112C74.3667 139.624 74.2227 139.248 73.9347 138.984C73.6547 138.712 73.2307 138.576 72.6627 138.576C72.2867 138.576 71.9187 138.64 71.5587 138.768C71.1987 138.888 70.8947 139.052 70.6467 139.26L70.1667 138.396C70.4947 138.132 70.8867 137.932 71.3427 137.796C71.8067 137.652 72.2907 137.58 72.7947 137.58C73.6667 137.58 74.3387 137.792 74.8107 138.216C75.2827 138.64 75.5187 139.288 75.5187 140.16V144H74.4267ZM72.3387 144.072C71.8667 144.072 71.4507 143.992 71.0907 143.832C70.7387 143.672 70.4667 143.452 70.2747 143.172C70.0827 142.884 69.9867 142.56 69.9867 142.2C69.9867 141.856 70.0667 141.544 70.2267 141.264C70.3947 140.984 70.6627 140.76 71.0307 140.592C71.4067 140.424 71.9107 140.34 72.5427 140.34H74.5587V141.168H72.5907C72.0147 141.168 71.6267 141.264 71.4267 141.456C71.2267 141.648 71.1267 141.88 71.1267 142.152C71.1267 142.464 71.2507 142.716 71.4987 142.908C71.7467 143.092 72.0907 143.184 72.5307 143.184C72.9627 143.184 73.3387 143.088 73.6587 142.896C73.9867 142.704 74.2227 142.424 74.3667 142.056L74.5947 142.848C74.4427 143.224 74.1747 143.524 73.7907 143.748C73.4067 143.964 72.9227 144.072 72.3387 144.072ZM80.2786 144.072C79.6626 144.072 79.1106 143.936 78.6226 143.664C78.1426 143.392 77.7626 143.012 77.4826 142.524C77.2026 142.036 77.0626 141.468 77.0626 140.82C77.0626 140.172 77.2026 139.608 77.4826 139.128C77.7626 138.64 78.1426 138.26 78.6226 137.988C79.1106 137.716 79.6626 137.58 80.2786 137.58C80.8146 137.58 81.2986 137.7 81.7306 137.94C82.1626 138.18 82.5066 138.54 82.7626 139.02C83.0266 139.5 83.1586 140.1 83.1586 140.82C83.1586 141.54 83.0306 142.14 82.7746 142.62C82.5266 143.1 82.1866 143.464 81.7546 143.712C81.3226 143.952 80.8306 144.072 80.2786 144.072ZM80.3746 143.064C80.7746 143.064 81.1346 142.972 81.4546 142.788C81.7826 142.604 82.0386 142.344 82.2226 142.008C82.4146 141.664 82.5106 141.268 82.5106 140.82C82.5106 140.364 82.4146 139.972 82.2226 139.644C82.0386 139.308 81.7826 139.048 81.4546 138.864C81.1346 138.68 80.7746 138.588 80.3746 138.588C79.9666 138.588 79.6026 138.68 79.2826 138.864C78.9626 139.048 78.7066 139.308 78.5146 139.644C78.3226 139.972 78.2266 140.364 78.2266 140.82C78.2266 141.268 78.3226 141.664 78.5146 142.008C78.7066 142.344 78.9626 142.604 79.2826 142.788C79.6026 142.972 79.9666 143.064 80.3746 143.064ZM82.5466 144V142.284L82.6186 140.808L82.4986 139.332V135.096H83.6506V144H82.5466ZM88.5543 144.072C87.9143 144.072 87.3463 143.932 86.8503 143.652C86.3543 143.372 85.9623 142.988 85.6743 142.5C85.3863 142.004 85.2423 141.444 85.2423 140.82C85.2423 140.188 85.3863 139.628 85.6743 139.14C85.9623 138.652 86.3543 138.272 86.8503 138C87.3463 137.72 87.9143 137.58 88.5543 137.58C89.1863 137.58 89.7503 137.72 90.2463 138C90.7503 138.272 91.1423 138.652 91.4223 139.14C91.7103 139.62 91.8543 140.18 91.8543 140.82C91.8543 141.452 91.7103 142.012 91.4223 142.5C91.1423 142.988 90.7503 143.372 90.2463 143.652C89.7503 143.932 89.1863 144.072 88.5543 144.072ZM88.5543 143.064C88.9623 143.064 89.3263 142.972 89.6463 142.788C89.9743 142.604 90.2303 142.344 90.4143 142.008C90.5983 141.664 90.6903 141.268 90.6903 140.82C90.6903 140.364 90.5983 139.972 90.4143 139.644C90.2303 139.308 89.9743 139.048 89.6463 138.864C89.3263 138.68 88.9623 138.588 88.5543 138.588C88.1463 138.588 87.7823 138.68 87.4623 138.864C87.1423 139.048 86.8863 139.308 86.6943 139.644C86.5023 139.972 86.4063 140.364 86.4063 140.82C86.4063 141.268 86.5023 141.664 86.6943 142.008C86.8863 142.344 87.1423 142.604 87.4623 142.788C87.7823 142.972 88.1463 143.064 88.5543 143.064ZM100.066 137.58C100.586 137.58 101.042 137.68 101.434 137.88C101.834 138.08 102.146 138.384 102.37 138.792C102.594 139.2 102.706 139.716 102.706 140.34V144H101.554V140.472C101.554 139.856 101.402 139.392 101.098 139.08C100.802 138.768 100.382 138.612 99.8381 138.612C99.4301 138.612 99.0741 138.692 98.7701 138.852C98.4661 139.012 98.2301 139.248 98.0621 139.56C97.9021 139.872 97.8221 140.26 97.8221 140.724V144H96.6701V137.64H97.7741V139.356L97.5941 138.9C97.8021 138.484 98.1221 138.16 98.5541 137.928C98.9861 137.696 99.4901 137.58 100.066 137.58ZM108.786 144V142.656L108.726 142.404V140.112C108.726 139.624 108.582 139.248 108.294 138.984C108.014 138.712 107.59 138.576 107.022 138.576C106.646 138.576 106.278 138.64 105.918 138.768C105.558 138.888 105.254 139.052 105.006 139.26L104.526 138.396C104.854 138.132 105.246 137.932 105.702 137.796C106.166 137.652 106.65 137.58 107.154 137.58C108.026 137.58 108.698 137.792 109.17 138.216C109.642 138.64 109.878 139.288 109.878 140.16V144H108.786ZM106.698 144.072C106.226 144.072 105.81 143.992 105.45 143.832C105.098 143.672 104.826 143.452 104.634 143.172C104.442 142.884 104.346 142.56 104.346 142.2C104.346 141.856 104.426 141.544 104.586 141.264C104.754 140.984 105.022 140.76 105.39 140.592C105.766 140.424 106.27 140.34 106.902 140.34H108.918V141.168H106.95C106.374 141.168 105.986 141.264 105.786 141.456C105.586 141.648 105.486 141.88 105.486 142.152C105.486 142.464 105.61 142.716 105.858 142.908C106.106 143.092 106.45 143.184 106.89 143.184C107.322 143.184 107.698 143.088 108.018 142.896C108.346 142.704 108.582 142.424 108.726 142.056L108.954 142.848C108.802 143.224 108.534 143.524 108.15 143.748C107.766 143.964 107.282 144.072 106.698 144.072ZM118.605 144.072C118.077 144.072 117.593 143.952 117.153 143.712C116.721 143.464 116.373 143.1 116.109 142.62C115.853 142.14 115.725 141.54 115.725 140.82C115.725 140.1 115.849 139.5 116.097 139.02C116.353 138.54 116.697 138.18 117.129 137.94C117.569 137.7 118.061 137.58 118.605 137.58C119.229 137.58 119.781 137.716 120.261 137.988C120.741 138.26 121.121 138.64 121.401 139.128C121.681 139.608 121.821 140.172 121.821 140.82C121.821 141.468 121.681 142.036 121.401 142.524C121.121 143.012 120.741 143.392 120.261 143.664C119.781 143.936 119.229 144.072 118.605 144.072ZM115.233 146.328V137.64H116.337V139.356L116.265 140.832L116.385 142.308V146.328H115.233ZM118.509 143.064C118.917 143.064 119.281 142.972 119.601 142.788C119.929 142.604 120.185 142.344 120.369 142.008C120.561 141.664 120.657 141.268 120.657 140.82C120.657 140.364 120.561 139.972 120.369 139.644C120.185 139.308 119.929 139.048 119.601 138.864C119.281 138.68 118.917 138.588 118.509 138.588C118.109 138.588 117.745 138.68 117.417 138.864C117.097 139.048 116.841 139.308 116.649 139.644C116.465 139.972 116.373 140.364 116.373 140.82C116.373 141.268 116.465 141.664 116.649 142.008C116.841 142.344 117.097 142.604 117.417 142.788C117.745 142.972 118.109 143.064 118.509 143.064ZM127.302 144V142.656L127.242 142.404V140.112C127.242 139.624 127.098 139.248 126.81 138.984C126.53 138.712 126.106 138.576 125.538 138.576C125.162 138.576 124.794 138.64 124.434 138.768C124.074 138.888 123.77 139.052 123.522 139.26L123.042 138.396C123.37 138.132 123.762 137.932 124.218 137.796C124.682 137.652 125.166 137.58 125.67 137.58C126.542 137.58 127.214 137.792 127.686 138.216C128.158 138.64 128.394 139.288 128.394 140.16V144H127.302ZM125.214 144.072C124.742 144.072 124.326 143.992 123.966 143.832C123.614 143.672 123.342 143.452 123.15 143.172C122.958 142.884 122.862 142.56 122.862 142.2C122.862 141.856 122.942 141.544 123.102 141.264C123.27 140.984 123.538 140.76 123.906 140.592C124.282 140.424 124.786 140.34 125.418 140.34H127.434V141.168H125.466C124.89 141.168 124.502 141.264 124.302 141.456C124.102 141.648 124.002 141.88 124.002 142.152C124.002 142.464 124.126 142.716 124.374 142.908C124.622 143.092 124.966 143.184 125.406 143.184C125.838 143.184 126.214 143.088 126.534 142.896C126.862 142.704 127.098 142.424 127.242 142.056L127.47 142.848C127.318 143.224 127.05 143.524 126.666 143.748C126.282 143.964 125.798 144.072 125.214 144.072ZM130.526 144V137.64H131.63V139.368L131.522 138.936C131.698 138.496 131.994 138.16 132.41 137.928C132.826 137.696 133.338 137.58 133.946 137.58V138.696C133.898 138.688 133.85 138.684 133.802 138.684C133.762 138.684 133.722 138.684 133.682 138.684C133.066 138.684 132.578 138.868 132.218 139.236C131.858 139.604 131.678 140.136 131.678 140.832V144H130.526ZM137.807 144.072C137.167 144.072 136.671 143.9 136.319 143.556C135.967 143.212 135.791 142.72 135.791 142.08V136.248H136.943V142.032C136.943 142.376 137.027 142.64 137.195 142.824C137.371 143.008 137.619 143.1 137.939 143.1C138.299 143.1 138.599 143 138.839 142.8L139.199 143.628C139.023 143.78 138.811 143.892 138.563 143.964C138.323 144.036 138.071 144.072 137.807 144.072ZM134.711 138.588V137.64H138.767V138.588H134.711ZM143.213 144.072C142.533 144.072 141.933 143.932 141.413 143.652C140.901 143.372 140.501 142.988 140.213 142.5C139.933 142.012 139.793 141.452 139.793 140.82C139.793 140.188 139.929 139.628 140.201 139.14C140.481 138.652 140.861 138.272 141.341 138C141.829 137.72 142.377 137.58 142.985 137.58C143.601 137.58 144.145 137.716 144.617 137.988C145.089 138.26 145.457 138.644 145.721 139.14C145.993 139.628 146.129 140.2 146.129 140.856C146.129 140.904 146.125 140.96 146.117 141.024C146.117 141.088 146.113 141.148 146.105 141.204H140.693V140.376H145.505L145.037 140.664C145.045 140.256 144.961 139.892 144.785 139.572C144.609 139.252 144.365 139.004 144.053 138.828C143.749 138.644 143.393 138.552 142.985 138.552C142.585 138.552 142.229 138.644 141.917 138.828C141.605 139.004 141.361 139.256 141.185 139.584C141.009 139.904 140.921 140.272 140.921 140.688V140.88C140.921 141.304 141.017 141.684 141.209 142.02C141.409 142.348 141.685 142.604 142.037 142.788C142.389 142.972 142.793 143.064 143.249 143.064C143.625 143.064 143.965 143 144.269 142.872C144.581 142.744 144.853 142.552 145.085 142.296L145.721 143.04C145.433 143.376 145.073 143.632 144.641 143.808C144.217 143.984 143.741 144.072 143.213 144.072ZM67.924 159V152.64H69.076V159H67.924ZM68.5 151.416C68.276 151.416 68.088 151.344 67.936 151.2C67.792 151.056 67.72 150.88 67.72 150.672C67.72 150.456 67.792 150.276 67.936 150.132C68.088 149.988 68.276 149.916 68.5 149.916C68.724 149.916 68.908 149.988 69.052 150.132C69.204 150.268 69.28 150.44 69.28 150.648C69.28 150.864 69.208 151.048 69.064 151.2C68.92 151.344 68.732 151.416 68.5 151.416ZM74.6716 152.58C75.1916 152.58 75.6476 152.68 76.0396 152.88C76.4396 153.08 76.7516 153.384 76.9756 153.792C77.1996 154.2 77.3116 154.716 77.3116 155.34V159H76.1596V155.472C76.1596 154.856 76.0076 154.392 75.7036 154.08C75.4076 153.768 74.9876 153.612 74.4436 153.612C74.0356 153.612 73.6796 153.692 73.3756 153.852C73.0716 154.012 72.8356 154.248 72.6676 154.56C72.5076 154.872 72.4276 155.26 72.4276 155.724V159H71.2756V152.64H72.3796V154.356L72.1996 153.9C72.4076 153.484 72.7276 153.16 73.1596 152.928C73.5916 152.696 74.0956 152.58 74.6716 152.58ZM79.6116 159V152.076C79.6116 151.452 79.7916 150.956 80.1516 150.588C80.5196 150.212 81.0396 150.024 81.7116 150.024C81.9596 150.024 82.1956 150.056 82.4196 150.12C82.6516 150.176 82.8476 150.268 83.0076 150.396L82.6596 151.272C82.5396 151.176 82.4036 151.104 82.2516 151.056C82.0996 151 81.9396 150.972 81.7716 150.972C81.4356 150.972 81.1796 151.068 81.0036 151.26C80.8276 151.444 80.7396 151.72 80.7396 152.088V152.94L80.7636 153.468V159H79.6116ZM78.5316 153.588V152.64H82.5876V153.588H78.5316ZM86.4123 159.072C85.7323 159.072 85.1323 158.932 84.6123 158.652C84.1003 158.372 83.7003 157.988 83.4123 157.5C83.1323 157.012 82.9923 156.452 82.9923 155.82C82.9923 155.188 83.1283 154.628 83.4003 154.14C83.6803 153.652 84.0603 153.272 84.5403 153C85.0283 152.72 85.5763 152.58 86.1843 152.58C86.8003 152.58 87.3443 152.716 87.8163 152.988C88.2883 153.26 88.6563 153.644 88.9203 154.14C89.1923 154.628 89.3283 155.2 89.3283 155.856C89.3283 155.904 89.3243 155.96 89.3163 156.024C89.3163 156.088 89.3123 156.148 89.3043 156.204H83.8923V155.376H88.7043L88.2363 155.664C88.2443 155.256 88.1603 154.892 87.9843 154.572C87.8083 154.252 87.5643 154.004 87.2523 153.828C86.9483 153.644 86.5923 153.552 86.1843 153.552C85.7843 153.552 85.4283 153.644 85.1163 153.828C84.8043 154.004 84.5603 154.256 84.3843 154.584C84.2083 154.904 84.1203 155.272 84.1203 155.688V155.88C84.1203 156.304 84.2163 156.684 84.4083 157.02C84.6083 157.348 84.8843 157.604 85.2363 157.788C85.5883 157.972 85.9923 158.064 86.4483 158.064C86.8243 158.064 87.1643 158 87.4683 157.872C87.7803 157.744 88.0523 157.552 88.2843 157.296L88.9203 158.04C88.6323 158.376 88.2723 158.632 87.8403 158.808C87.4163 158.984 86.9403 159.072 86.4123 159.072ZM90.9279 159V152.64H92.0319V154.368L91.9239 153.936C92.0999 153.496 92.3959 153.16 92.8119 152.928C93.2279 152.696 93.7399 152.58 94.3479 152.58V153.696C94.2999 153.688 94.2519 153.684 94.2039 153.684C94.1639 153.684 94.1239 153.684 94.0839 153.684C93.4679 153.684 92.9799 153.868 92.6199 154.236C92.2599 154.604 92.0799 155.136 92.0799 155.832V159H90.9279ZM95.7678 159V152.64H96.9198V159H95.7678ZM96.3438 151.416C96.1198 151.416 95.9318 151.344 95.7798 151.2C95.6358 151.056 95.5638 150.88 95.5638 150.672C95.5638 150.456 95.6358 150.276 95.7798 150.132C95.9318 149.988 96.1198 149.916 96.3438 149.916C96.5678 149.916 96.7518 149.988 96.8958 150.132C97.0478 150.268 97.1238 150.44 97.1238 150.648C97.1238 150.864 97.0518 151.048 96.9078 151.2C96.7638 151.344 96.5758 151.416 96.3438 151.416ZM101.843 159.072C101.203 159.072 100.635 158.932 100.139 158.652C99.6433 158.372 99.2513 157.988 98.9633 157.5C98.6753 157.004 98.5313 156.444 98.5313 155.82C98.5313 155.188 98.6753 154.628 98.9633 154.14C99.2513 153.652 99.6433 153.272 100.139 153C100.635 152.72 101.203 152.58 101.843 152.58C102.475 152.58 103.039 152.72 103.535 153C104.039 153.272 104.431 153.652 104.711 154.14C104.999 154.62 105.143 155.18 105.143 155.82C105.143 156.452 104.999 157.012 104.711 157.5C104.431 157.988 104.039 158.372 103.535 158.652C103.039 158.932 102.475 159.072 101.843 159.072ZM101.843 158.064C102.251 158.064 102.615 157.972 102.935 157.788C103.263 157.604 103.519 157.344 103.703 157.008C103.887 156.664 103.979 156.268 103.979 155.82C103.979 155.364 103.887 154.972 103.703 154.644C103.519 154.308 103.263 154.048 102.935 153.864C102.615 153.68 102.251 153.588 101.843 153.588C101.435 153.588 101.071 153.68 100.751 153.864C100.431 154.048 100.175 154.308 99.9833 154.644C99.7913 154.972 99.6953 155.364 99.6953 155.82C99.6953 156.268 99.7913 156.664 99.9833 157.008C100.175 157.344 100.431 157.604 100.751 157.788C101.071 157.972 101.435 158.064 101.843 158.064ZM106.737 159V152.64H107.841V154.368L107.733 153.936C107.909 153.496 108.205 153.16 108.621 152.928C109.037 152.696 109.549 152.58 110.157 152.58V153.696C110.109 153.688 110.061 153.684 110.013 153.684C109.973 153.684 109.933 153.684 109.893 153.684C109.277 153.684 108.789 153.868 108.429 154.236C108.069 154.604 107.889 155.136 107.889 155.832V159H106.737ZM111.817 159.072C111.593 159.072 111.401 158.996 111.241 158.844C111.081 158.684 111.001 158.484 111.001 158.244C111.001 158.004 111.081 157.808 111.241 157.656C111.401 157.504 111.593 157.428 111.817 157.428C112.033 157.428 112.217 157.504 112.369 157.656C112.529 157.808 112.609 158.004 112.609 158.244C112.609 158.484 112.529 158.684 112.369 158.844C112.217 158.996 112.033 159.072 111.817 159.072Z" fill="#008E86"/>
<path d="M64.8101 75.5956L70.5979 37.3961L114.971 99.1328L73.2989 97.9752L64.8101 75.5956Z" fill="#008E86" stroke="#00635D" stroke-width="2" stroke-linejoin="round"/>
<path d="M69.8262 36.6248L87.1896 18.8755L91.0482 24.2775L70.212 77.5254L69.8262 36.6248Z" fill="#00D8CC" stroke="#00635D" stroke-width="2" stroke-linejoin="round"/>
<path d="M113.813 97.9746L106.096 85.2414L125.003 92.1868L113.813 97.9746Z" fill="#00D8CC" stroke="#00635D" stroke-width="2" stroke-linejoin="round"/>
<path d="M82.1734 10.0007L89.8905 14.2451L91.0481 24.2773L80.2441 11.93L82.1734 10.0007Z" fill="#00D8CC" stroke="#00635D" stroke-width="2" stroke-linejoin="round"/>
<path d="M70.2119 77.5239L82.1734 48.5848L119.601 84.4693L115.743 99.5176L79.0866 99.5176L70.2119 77.5239Z" fill="#00D8CC" stroke="#00635D" stroke-width="2" stroke-linejoin="round"/>
<path d="M101.853 99.5175L101.852 90.2571L85.2611 86.7843L84.8752 99.1315" stroke="#00635D" stroke-width="2" stroke-dasharray="2 2"/>
<path fill-rule="evenodd" clip-rule="evenodd" d="M81.725 99.8234C82.5088 101.703 83.7347 103.484 84.987 104.801L83.9041 106.598C83.4494 105.702 82.5528 105.115 81.5497 105.058C80.547 105 79.589 105.479 79.034 106.316L77.4452 108.715C76.9072 109.556 76.8532 110.619 77.303 111.51C77.7524 112.402 78.6392 112.99 79.6351 113.057C80.6316 113.125 81.5895 112.661 82.1549 111.838L83.7437 109.439L83.7547 109.421L85.4813 106.558L85.9833 109.498C85.9912 109.543 86.0036 109.587 86.0202 109.63C86.0289 109.709 86.0429 109.793 86.0557 109.868L86.6248 112.688C86.7628 113.433 87.1941 114.092 87.8218 114.516C88.4499 114.94 89.2219 115.094 89.9643 114.944C90.7071 114.794 91.358 114.351 91.7716 113.716C92.1852 113.082 92.3265 112.307 92.1641 111.567L91.5949 108.747C91.4634 108.093 91.1049 107.506 90.5822 107.092C90.0595 106.677 89.4064 106.461 88.7401 106.483C88.0732 106.504 87.4357 106.761 86.9405 107.208L86.5829 105.064C87.3943 104.688 88.1748 104.248 88.9165 103.747C91.0819 102.29 93.0793 100.233 93.7584 97.9837C94.2567 96.3206 94.0126 94.7388 93.0322 93.2825C93.027 93.2889 93.0236 93.2839 93.0236 93.2839C93.0085 93.2631 92.9923 93.2435 92.9747 93.2244C92.9639 93.2084 92.9532 93.1924 92.9373 93.1822C92.9276 93.1758 92.9181 93.1678 92.9089 93.1601C92.903 93.1551 92.8971 93.1502 92.8914 93.1458C92.8721 93.1296 92.8519 93.1146 92.8311 93.1006L92.8253 93.092C92.8206 93.0849 92.8108 93.0821 92.8008 93.0792C92.795 93.0775 92.7891 93.0758 92.7841 93.0732C92.7621 93.0618 92.7396 93.0513 92.7168 93.0423C92.7036 93.0368 92.6901 93.0332 92.6765 93.0296C92.6698 93.0278 92.663 93.0261 92.6562 93.024C92.6361 93.0179 92.6147 93.0127 92.592 93.0083C92.5694 93.0038 92.5492 93.0031 92.529 93.0024C92.5228 93.0022 92.5163 93.0018 92.5096 93.0014C92.4947 93.0005 92.4788 92.9996 92.4632 93.0002C92.4451 93.0009 92.4302 93.003 92.4149 93.0051C92.411 93.0056 92.4072 93.0061 92.4032 93.0066C92.3807 93.0087 92.3593 93.0123 92.3367 93.0168C92.326 93.0241 92.3122 93.0269 92.2985 93.0296C92.2919 93.0309 92.2854 93.0323 92.2792 93.0341C92.2577 93.0402 92.236 93.0477 92.2152 93.0558C92.1949 93.0682 92.1752 93.0814 92.1565 93.0952L92.1171 93.1217L92.1073 93.1284C92.0867 93.1411 92.0666 93.1546 92.0474 93.1687C92.0302 93.1803 92.013 93.1919 92.0024 93.2097C91.9937 93.2241 91.9836 93.2348 91.9738 93.2454C91.9711 93.2482 91.9685 93.251 91.966 93.2539C91.9493 93.2734 91.9339 93.2939 91.9197 93.3154L91.9111 93.3212L86.1945 102.808L85.6858 99.8234H84.3431L84.8015 102.51C84.1818 101.682 83.6205 100.764 83.1792 99.8234H81.725ZM78.9858 111.498C79.6629 111.947 80.5746 111.774 81.0403 111.108L82.6203 108.722L82.6767 108.629C83.0842 107.929 82.8598 107.031 82.1712 106.605C81.4824 106.178 80.5794 106.378 80.1341 107.055L78.5453 109.454C78.1131 110.142 78.3088 111.049 78.9858 111.498ZM89.3914 107.918C88.9297 107.728 88.4048 107.781 87.9902 108.058L87.9956 108.062C87.4926 108.397 87.2402 109.002 87.3557 109.596L87.9248 112.417C87.995 112.814 88.2226 113.166 88.5561 113.393C88.8893 113.62 89.3005 113.703 89.6959 113.623C90.0915 113.543 90.4376 113.307 90.6565 112.968C90.8752 112.629 90.9484 112.216 90.8586 111.823L90.2894 109.002C90.1896 108.514 89.8527 108.107 89.3914 107.918ZM87.5949 103.031C90.3102 101.404 91.9973 99.2113 92.4774 97.6086L92.4828 97.6122C92.7507 96.7638 92.7314 95.8507 92.4256 95.0149L87.5949 103.031Z" fill="black"/>
</g>
<defs>
<clipPath id="clip0_14_2879">
<rect width="180" height="180" rx="20" fill="white"/>
</clipPath>
<clipPath id="clip1_14_2879">
<path d="M0 30L-1.31134e-06 0L30 -1.31134e-06L30 10C30 21.0457 21.0457 30 10 30L0 30Z" fill="white"/>
</clipPath>
</defs>
</svg>
