<svg width="180" height="180" viewBox="0 0 180 180" fill="none" xmlns="http://www.w3.org/2000/svg">
<rect width="180" height="180" rx="20" fill="#F2F2F2"/>
<path d="M36.2463 129V120.6H39.7863C40.6823 120.6 41.4703 120.776 42.1503 121.128C42.8383 121.48 43.3703 121.972 43.7463 122.604C44.1303 123.236 44.3223 123.968 44.3223 124.8C44.3223 125.632 44.1303 126.364 43.7463 126.996C43.3703 127.628 42.8383 128.12 42.1503 128.472C41.4703 128.824 40.6823 129 39.7863 129H36.2463ZM37.4463 127.956H39.7143C40.4103 127.956 41.0103 127.824 41.5143 127.56C42.0263 127.296 42.4223 126.928 42.7023 126.456C42.9823 125.976 43.1223 125.424 43.1223 124.8C43.1223 124.168 42.9823 123.616 42.7023 123.144C42.4223 122.672 42.0263 122.304 41.5143 122.04C41.0103 121.776 40.4103 121.644 39.7143 121.644H37.4463V127.956ZM48.7164 129.072C48.0764 129.072 47.5084 128.932 47.0124 128.652C46.5164 128.372 46.1244 127.988 45.8364 127.5C45.5484 127.004 45.4044 126.444 45.4044 125.82C45.4044 125.188 45.5484 124.628 45.8364 124.14C46.1244 123.652 46.5164 123.272 47.0124 123C47.5084 122.72 48.0764 122.58 48.7164 122.58C49.3484 122.58 49.9124 122.72 50.4084 123C50.9124 123.272 51.3044 123.652 51.5844 124.14C51.8724 124.62 52.0164 125.18 52.0164 125.82C52.0164 126.452 51.8724 127.012 51.5844 127.5C51.3044 127.988 50.9124 128.372 50.4084 128.652C49.9124 128.932 49.3484 129.072 48.7164 129.072ZM48.7164 128.064C49.1244 128.064 49.4884 127.972 49.8084 127.788C50.1364 127.604 50.3924 127.344 50.5764 127.008C50.7604 126.664 50.8524 126.268 50.8524 125.82C50.8524 125.364 50.7604 124.972 50.5764 124.644C50.3924 124.308 50.1364 124.048 49.8084 123.864C49.4884 123.68 49.1244 123.588 48.7164 123.588C48.3084 123.588 47.9444 123.68 47.6244 123.864C47.3044 124.048 47.0484 124.308 46.8564 124.644C46.6644 124.972 46.5684 125.364 46.5684 125.82C46.5684 126.268 46.6644 126.664 46.8564 127.008C47.0484 127.344 47.3044 127.604 47.6244 127.788C47.9444 127.972 48.3084 128.064 48.7164 128.064ZM56.9816 129.072C56.4376 129.072 55.9456 128.952 55.5056 128.712C55.0736 128.464 54.7296 128.1 54.4736 127.62C54.2256 127.14 54.1016 126.54 54.1016 125.82C54.1016 125.1 54.2296 124.5 54.4856 124.02C54.7496 123.54 55.0976 123.18 55.5296 122.94C55.9696 122.7 56.4536 122.58 56.9816 122.58C57.6056 122.58 58.1576 122.716 58.6376 122.988C59.1176 123.26 59.4976 123.64 59.7776 124.128C60.0576 124.608 60.1976 125.172 60.1976 125.82C60.1976 126.468 60.0576 127.036 59.7776 127.524C59.4976 128.012 59.1176 128.392 58.6376 128.664C58.1576 128.936 57.6056 129.072 56.9816 129.072ZM53.6096 129V120.096H54.7616V124.332L54.6416 125.808L54.7136 127.284V129H53.6096ZM56.8856 128.064C57.2936 128.064 57.6576 127.972 57.9776 127.788C58.3056 127.604 58.5616 127.344 58.7456 127.008C58.9376 126.664 59.0336 126.268 59.0336 125.82C59.0336 125.364 58.9376 124.972 58.7456 124.644C58.5616 124.308 58.3056 124.048 57.9776 123.864C57.6576 123.68 57.2936 123.588 56.8856 123.588C56.4856 123.588 56.1216 123.68 55.7936 123.864C55.4736 124.048 55.2176 124.308 55.0256 124.644C54.8416 124.972 54.7496 125.364 54.7496 125.82C54.7496 126.268 54.8416 126.664 55.0256 127.008C55.2176 127.344 55.4736 127.604 55.7936 127.788C56.1216 127.972 56.4856 128.064 56.8856 128.064ZM61.7893 129V122.64H62.8933V124.368L62.7853 123.936C62.9613 123.496 63.2573 123.16 63.6733 122.928C64.0893 122.696 64.6013 122.58 65.2093 122.58V123.696C65.1613 123.688 65.1133 123.684 65.0653 123.684C65.0253 123.684 64.9853 123.684 64.9453 123.684C64.3293 123.684 63.8413 123.868 63.4813 124.236C63.1213 124.604 62.9413 125.136 62.9413 125.832V129H61.7893ZM69.4025 129.072C68.7225 129.072 68.1225 128.932 67.6025 128.652C67.0905 128.372 66.6905 127.988 66.4025 127.5C66.1225 127.012 65.9825 126.452 65.9825 125.82C65.9825 125.188 66.1185 124.628 66.3905 124.14C66.6705 123.652 67.0505 123.272 67.5305 123C68.0185 122.72 68.5665 122.58 69.1745 122.58C69.7905 122.58 70.3345 122.716 70.8065 122.988C71.2785 123.26 71.6465 123.644 71.9105 124.14C72.1825 124.628 72.3185 125.2 72.3185 125.856C72.3185 125.904 72.3145 125.96 72.3065 126.024C72.3065 126.088 72.3025 126.148 72.2945 126.204H66.8825V125.376H71.6945L71.2265 125.664C71.2345 125.256 71.1505 124.892 70.9745 124.572C70.7985 124.252 70.5545 124.004 70.2425 123.828C69.9385 123.644 69.5825 123.552 69.1745 123.552C68.7745 123.552 68.4185 123.644 68.1065 123.828C67.7945 124.004 67.5505 124.256 67.3745 124.584C67.1985 124.904 67.1105 125.272 67.1105 125.688V125.88C67.1105 126.304 67.2065 126.684 67.3985 127.02C67.5985 127.348 67.8745 127.604 68.2265 127.788C68.5785 127.972 68.9825 128.064 69.4385 128.064C69.8145 128.064 70.1545 128 70.4585 127.872C70.7705 127.744 71.0425 127.552 71.2745 127.296L71.9105 128.04C71.6225 128.376 71.2625 128.632 70.8305 128.808C70.4065 128.984 69.9305 129.072 69.4025 129.072ZM79.7688 129.072C79.1528 129.072 78.6008 128.936 78.1128 128.664C77.6328 128.392 77.2528 128.012 76.9728 127.524C76.6928 127.036 76.5528 126.468 76.5528 125.82C76.5528 125.172 76.6928 124.608 76.9728 124.128C77.2528 123.64 77.6328 123.26 78.1128 122.988C78.6008 122.716 79.1528 122.58 79.7688 122.58C80.3048 122.58 80.7888 122.7 81.2208 122.94C81.6528 123.18 81.9968 123.54 82.2528 124.02C82.5168 124.5 82.6488 125.1 82.6488 125.82C82.6488 126.54 82.5208 127.14 82.2648 127.62C82.0168 128.1 81.6768 128.464 81.2448 128.712C80.8128 128.952 80.3208 129.072 79.7688 129.072ZM79.8648 128.064C80.2648 128.064 80.6248 127.972 80.9448 127.788C81.2728 127.604 81.5288 127.344 81.7128 127.008C81.9048 126.664 82.0008 126.268 82.0008 125.82C82.0008 125.364 81.9048 124.972 81.7128 124.644C81.5288 124.308 81.2728 124.048 80.9448 123.864C80.6248 123.68 80.2648 123.588 79.8648 123.588C79.4568 123.588 79.0928 123.68 78.7728 123.864C78.4528 124.048 78.1968 124.308 78.0048 124.644C77.8128 124.972 77.7168 125.364 77.7168 125.82C77.7168 126.268 77.8128 126.664 78.0048 127.008C78.1968 127.344 78.4528 127.604 78.7728 127.788C79.0928 127.972 79.4568 128.064 79.8648 128.064ZM82.0368 129V127.284L82.1088 125.808L81.9888 124.332V120.096H83.1408V129H82.0368ZM88.0445 129.072C87.4045 129.072 86.8365 128.932 86.3405 128.652C85.8445 128.372 85.4525 127.988 85.1645 127.5C84.8765 127.004 84.7325 126.444 84.7325 125.82C84.7325 125.188 84.8765 124.628 85.1645 124.14C85.4525 123.652 85.8445 123.272 86.3405 123C86.8365 122.72 87.4045 122.58 88.0445 122.58C88.6765 122.58 89.2405 122.72 89.7365 123C90.2405 123.272 90.6325 123.652 90.9125 124.14C91.2005 124.62 91.3445 125.18 91.3445 125.82C91.3445 126.452 91.2005 127.012 90.9125 127.5C90.6325 127.988 90.2405 128.372 89.7365 128.652C89.2405 128.932 88.6765 129.072 88.0445 129.072ZM88.0445 128.064C88.4525 128.064 88.8165 127.972 89.1365 127.788C89.4645 127.604 89.7205 127.344 89.9045 127.008C90.0885 126.664 90.1805 126.268 90.1805 125.82C90.1805 125.364 90.0885 124.972 89.9045 124.644C89.7205 124.308 89.4645 124.048 89.1365 123.864C88.8165 123.68 88.4525 123.588 88.0445 123.588C87.6365 123.588 87.2725 123.68 86.9525 123.864C86.6325 124.048 86.3765 124.308 86.1845 124.644C85.9925 124.972 85.8965 125.364 85.8965 125.82C85.8965 126.268 85.9925 126.664 86.1845 127.008C86.3765 127.344 86.6325 127.604 86.9525 127.788C87.2725 127.972 87.6365 128.064 88.0445 128.064ZM92.9377 129V122.64H94.0897V129H92.9377ZM93.5137 121.416C93.2897 121.416 93.1017 121.344 92.9497 121.2C92.8057 121.056 92.7337 120.88 92.7337 120.672C92.7337 120.456 92.8057 120.276 92.9497 120.132C93.1017 119.988 93.2897 119.916 93.5137 119.916C93.7377 119.916 93.9217 119.988 94.0657 120.132C94.2177 120.268 94.2937 120.44 94.2937 120.648C94.2937 120.864 94.2217 121.048 94.0777 121.2C93.9337 121.344 93.7457 121.416 93.5137 121.416ZM98.1133 129.072C97.5853 129.072 97.0813 129 96.6013 128.856C96.1293 128.712 95.7573 128.536 95.4853 128.328L95.9653 127.416C96.2373 127.6 96.5733 127.756 96.9733 127.884C97.3733 128.012 97.7813 128.076 98.1973 128.076C98.7333 128.076 99.1173 128 99.3493 127.848C99.5893 127.696 99.7093 127.484 99.7093 127.212C99.7093 127.012 99.6373 126.856 99.4933 126.744C99.3493 126.632 99.1573 126.548 98.9173 126.492C98.6853 126.436 98.4253 126.388 98.1373 126.348C97.8493 126.3 97.5613 126.244 97.2733 126.18C96.9853 126.108 96.7213 126.012 96.4813 125.892C96.2413 125.764 96.0493 125.592 95.9053 125.376C95.7613 125.152 95.6893 124.856 95.6893 124.488C95.6893 124.104 95.7973 123.768 96.0133 123.48C96.2293 123.192 96.5333 122.972 96.9253 122.82C97.3253 122.66 97.7973 122.58 98.3413 122.58C98.7573 122.58 99.1773 122.632 99.6013 122.736C100.033 122.832 100.385 122.972 100.657 123.156L100.165 124.068C99.8773 123.876 99.5773 123.744 99.2653 123.672C98.9533 123.6 98.6413 123.564 98.3293 123.564C97.8253 123.564 97.4493 123.648 97.2013 123.816C96.9533 123.976 96.8293 124.184 96.8293 124.44C96.8293 124.656 96.9013 124.824 97.0453 124.944C97.1973 125.056 97.3893 125.144 97.6213 125.208C97.8613 125.272 98.1253 125.328 98.4133 125.376C98.7013 125.416 98.9893 125.472 99.2773 125.544C99.5653 125.608 99.8253 125.7 100.057 125.82C100.297 125.94 100.489 126.108 100.633 126.324C100.785 126.54 100.861 126.828 100.861 127.188C100.861 127.572 100.749 127.904 100.525 128.184C100.301 128.464 99.9853 128.684 99.5773 128.844C99.1693 128.996 98.6813 129.072 98.1133 129.072ZM108.296 129.072C107.648 129.072 107.068 128.932 106.556 128.652C106.052 128.372 105.656 127.988 105.368 127.5C105.08 127.012 104.936 126.452 104.936 125.82C104.936 125.188 105.08 124.628 105.368 124.14C105.656 123.652 106.052 123.272 106.556 123C107.068 122.72 107.648 122.58 108.296 122.58C108.872 122.58 109.384 122.696 109.832 122.928C110.288 123.152 110.64 123.488 110.888 123.936L110.012 124.5C109.804 124.188 109.548 123.96 109.244 123.816C108.948 123.664 108.628 123.588 108.284 123.588C107.868 123.588 107.496 123.68 107.168 123.864C106.84 124.048 106.58 124.308 106.388 124.644C106.196 124.972 106.1 125.364 106.1 125.82C106.1 126.276 106.196 126.672 106.388 127.008C106.58 127.344 106.84 127.604 107.168 127.788C107.496 127.972 107.868 128.064 108.284 128.064C108.628 128.064 108.948 127.992 109.244 127.848C109.548 127.696 109.804 127.464 110.012 127.152L110.888 127.704C110.64 128.144 110.288 128.484 109.832 128.724C109.384 128.956 108.872 129.072 108.296 129.072ZM116.327 129V127.656L116.267 127.404V125.112C116.267 124.624 116.123 124.248 115.835 123.984C115.555 123.712 115.131 123.576 114.563 123.576C114.187 123.576 113.819 123.64 113.459 123.768C113.099 123.888 112.795 124.052 112.547 124.26L112.067 123.396C112.395 123.132 112.787 122.932 113.243 122.796C113.707 122.652 114.191 122.58 114.695 122.58C115.567 122.58 116.239 122.792 116.711 123.216C117.183 123.64 117.419 124.288 117.419 125.16V129H116.327ZM114.239 129.072C113.767 129.072 113.351 128.992 112.991 128.832C112.639 128.672 112.367 128.452 112.175 128.172C111.983 127.884 111.887 127.56 111.887 127.2C111.887 126.856 111.967 126.544 112.127 126.264C112.295 125.984 112.563 125.76 112.931 125.592C113.307 125.424 113.811 125.34 114.443 125.34H116.459V126.168H114.491C113.915 126.168 113.527 126.264 113.327 126.456C113.127 126.648 113.027 126.88 113.027 127.152C113.027 127.464 113.151 127.716 113.399 127.908C113.647 128.092 113.991 128.184 114.431 128.184C114.863 128.184 115.239 128.088 115.559 127.896C115.887 127.704 116.123 127.424 116.267 127.056L116.495 127.848C116.343 128.224 116.075 128.524 115.691 128.748C115.307 128.964 114.823 129.072 114.239 129.072ZM122.947 122.58C123.467 122.58 123.923 122.68 124.315 122.88C124.715 123.08 125.027 123.384 125.251 123.792C125.475 124.2 125.587 124.716 125.587 125.34V129H124.435V125.472C124.435 124.856 124.283 124.392 123.979 124.08C123.683 123.768 123.263 123.612 122.719 123.612C122.311 123.612 121.955 123.692 121.651 123.852C121.347 124.012 121.111 124.248 120.943 124.56C120.783 124.872 120.703 125.26 120.703 125.724V129H119.551V122.64H120.655V124.356L120.475 123.9C120.683 123.484 121.003 123.16 121.435 122.928C121.867 122.696 122.371 122.58 122.947 122.58ZM129.903 129.072C129.263 129.072 128.767 128.9 128.415 128.556C128.063 128.212 127.887 127.72 127.887 127.08V121.248H129.039V127.032C129.039 127.376 129.123 127.64 129.291 127.824C129.467 128.008 129.715 128.1 130.035 128.1C130.395 128.1 130.695 128 130.935 127.8L131.295 128.628C131.119 128.78 130.907 128.892 130.659 128.964C130.419 129.036 130.167 129.072 129.903 129.072ZM126.807 123.588V122.64H130.863V123.588H126.807ZM135.201 129.072C134.561 129.072 133.993 128.932 133.497 128.652C133.001 128.372 132.609 127.988 132.321 127.5C132.033 127.004 131.889 126.444 131.889 125.82C131.889 125.188 132.033 124.628 132.321 124.14C132.609 123.652 133.001 123.272 133.497 123C133.993 122.72 134.561 122.58 135.201 122.58C135.833 122.58 136.397 122.72 136.893 123C137.397 123.272 137.789 123.652 138.069 124.14C138.357 124.62 138.501 125.18 138.501 125.82C138.501 126.452 138.357 127.012 138.069 127.5C137.789 127.988 137.397 128.372 136.893 128.652C136.397 128.932 135.833 129.072 135.201 129.072ZM135.201 128.064C135.609 128.064 135.973 127.972 136.293 127.788C136.621 127.604 136.877 127.344 137.061 127.008C137.245 126.664 137.337 126.268 137.337 125.82C137.337 125.364 137.245 124.972 137.061 124.644C136.877 124.308 136.621 124.048 136.293 123.864C135.973 123.68 135.609 123.588 135.201 123.588C134.793 123.588 134.429 123.68 134.109 123.864C133.789 124.048 133.533 124.308 133.341 124.644C133.149 124.972 133.053 125.364 133.053 125.82C133.053 126.268 133.149 126.664 133.341 127.008C133.533 127.344 133.789 127.604 134.109 127.788C134.429 127.972 134.793 128.064 135.201 128.064ZM141.918 129.072C141.39 129.072 140.886 129 140.406 128.856C139.934 128.712 139.562 128.536 139.29 128.328L139.77 127.416C140.042 127.6 140.378 127.756 140.778 127.884C141.178 128.012 141.586 128.076 142.002 128.076C142.538 128.076 142.922 128 143.154 127.848C143.394 127.696 143.514 127.484 143.514 127.212C143.514 127.012 143.442 126.856 143.298 126.744C143.154 126.632 142.962 126.548 142.722 126.492C142.49 126.436 142.23 126.388 141.942 126.348C141.654 126.3 141.366 126.244 141.078 126.18C140.79 126.108 140.526 126.012 140.286 125.892C140.046 125.764 139.854 125.592 139.71 125.376C139.566 125.152 139.494 124.856 139.494 124.488C139.494 124.104 139.602 123.768 139.818 123.48C140.034 123.192 140.338 122.972 140.73 122.82C141.13 122.66 141.602 122.58 142.146 122.58C142.562 122.58 142.982 122.632 143.406 122.736C143.838 122.832 144.19 122.972 144.462 123.156L143.97 124.068C143.682 123.876 143.382 123.744 143.07 123.672C142.758 123.6 142.446 123.564 142.134 123.564C141.63 123.564 141.254 123.648 141.006 123.816C140.758 123.976 140.634 124.184 140.634 124.44C140.634 124.656 140.706 124.824 140.85 124.944C141.002 125.056 141.194 125.144 141.426 125.208C141.666 125.272 141.93 125.328 142.218 125.376C142.506 125.416 142.794 125.472 143.082 125.544C143.37 125.608 143.63 125.7 143.862 125.82C144.102 125.94 144.294 126.108 144.438 126.324C144.59 126.54 144.666 126.828 144.666 127.188C144.666 127.572 144.554 127.904 144.33 128.184C144.106 128.464 143.79 128.684 143.382 128.844C142.974 128.996 142.486 129.072 141.918 129.072ZM28.0035 144.072C27.3635 144.072 26.7955 143.932 26.2995 143.652C25.8035 143.372 25.4115 142.988 25.1235 142.5C24.8355 142.004 24.6915 141.444 24.6915 140.82C24.6915 140.188 24.8355 139.628 25.1235 139.14C25.4115 138.652 25.8035 138.272 26.2995 138C26.7955 137.72 27.3635 137.58 28.0035 137.58C28.6355 137.58 29.1995 137.72 29.6955 138C30.1995 138.272 30.5915 138.652 30.8715 139.14C31.1595 139.62 31.3035 140.18 31.3035 140.82C31.3035 141.452 31.1595 142.012 30.8715 142.5C30.5915 142.988 30.1995 143.372 29.6955 143.652C29.1995 143.932 28.6355 144.072 28.0035 144.072ZM28.0035 143.064C28.4115 143.064 28.7755 142.972 29.0955 142.788C29.4235 142.604 29.6795 142.344 29.8635 142.008C30.0475 141.664 30.1395 141.268 30.1395 140.82C30.1395 140.364 30.0475 139.972 29.8635 139.644C29.6795 139.308 29.4235 139.048 29.0955 138.864C28.7755 138.68 28.4115 138.588 28.0035 138.588C27.5955 138.588 27.2315 138.68 26.9115 138.864C26.5915 139.048 26.3355 139.308 26.1435 139.644C25.9515 139.972 25.8555 140.364 25.8555 140.82C25.8555 141.268 25.9515 141.664 26.1435 142.008C26.3355 142.344 26.5915 142.604 26.9115 142.788C27.2315 142.972 27.5955 143.064 28.0035 143.064ZM36.2687 144.072C35.7407 144.072 35.2567 143.952 34.8167 143.712C34.3847 143.464 34.0367 143.1 33.7727 142.62C33.5167 142.14 33.3887 141.54 33.3887 140.82C33.3887 140.1 33.5127 139.5 33.7607 139.02C34.0167 138.54 34.3607 138.18 34.7927 137.94C35.2327 137.7 35.7247 137.58 36.2687 137.58C36.8927 137.58 37.4447 137.716 37.9247 137.988C38.4047 138.26 38.7847 138.64 39.0647 139.128C39.3447 139.608 39.4847 140.172 39.4847 140.82C39.4847 141.468 39.3447 142.036 39.0647 142.524C38.7847 143.012 38.4047 143.392 37.9247 143.664C37.4447 143.936 36.8927 144.072 36.2687 144.072ZM32.8967 146.328V137.64H34.0007V139.356L33.9287 140.832L34.0487 142.308V146.328H32.8967ZM36.1727 143.064C36.5807 143.064 36.9447 142.972 37.2647 142.788C37.5927 142.604 37.8487 142.344 38.0327 142.008C38.2247 141.664 38.3207 141.268 38.3207 140.82C38.3207 140.364 38.2247 139.972 38.0327 139.644C37.8487 139.308 37.5927 139.048 37.2647 138.864C36.9447 138.68 36.5807 138.588 36.1727 138.588C35.7727 138.588 35.4087 138.68 35.0807 138.864C34.7607 139.048 34.5047 139.308 34.3127 139.644C34.1287 139.972 34.0367 140.364 34.0367 140.82C34.0367 141.268 34.1287 141.664 34.3127 142.008C34.5047 142.344 34.7607 142.604 35.0807 142.788C35.4087 142.972 35.7727 143.064 36.1727 143.064ZM43.8004 144.072C43.1604 144.072 42.5924 143.932 42.0964 143.652C41.6004 143.372 41.2084 142.988 40.9204 142.5C40.6324 142.004 40.4884 141.444 40.4884 140.82C40.4884 140.188 40.6324 139.628 40.9204 139.14C41.2084 138.652 41.6004 138.272 42.0964 138C42.5924 137.72 43.1604 137.58 43.8004 137.58C44.4324 137.58 44.9964 137.72 45.4924 138C45.9964 138.272 46.3884 138.652 46.6684 139.14C46.9564 139.62 47.1004 140.18 47.1004 140.82C47.1004 141.452 46.9564 142.012 46.6684 142.5C46.3884 142.988 45.9964 143.372 45.4924 143.652C44.9964 143.932 44.4324 144.072 43.8004 144.072ZM43.8004 143.064C44.2084 143.064 44.5724 142.972 44.8924 142.788C45.2204 142.604 45.4764 142.344 45.6604 142.008C45.8444 141.664 45.9364 141.268 45.9364 140.82C45.9364 140.364 45.8444 139.972 45.6604 139.644C45.4764 139.308 45.2204 139.048 44.8924 138.864C44.5724 138.68 44.2084 138.588 43.8004 138.588C43.3924 138.588 43.0284 138.68 42.7084 138.864C42.3884 139.048 42.1324 139.308 41.9404 139.644C41.7484 139.972 41.6524 140.364 41.6524 140.82C41.6524 141.268 41.7484 141.664 41.9404 142.008C42.1324 142.344 42.3884 142.604 42.7084 142.788C43.0284 142.972 43.3924 143.064 43.8004 143.064ZM50.5176 144.072C49.9896 144.072 49.4856 144 49.0056 143.856C48.5336 143.712 48.1616 143.536 47.8896 143.328L48.3696 142.416C48.6416 142.6 48.9776 142.756 49.3776 142.884C49.7776 143.012 50.1856 143.076 50.6016 143.076C51.1376 143.076 51.5216 143 51.7536 142.848C51.9936 142.696 52.1136 142.484 52.1136 142.212C52.1136 142.012 52.0416 141.856 51.8976 141.744C51.7536 141.632 51.5616 141.548 51.3216 141.492C51.0896 141.436 50.8296 141.388 50.5416 141.348C50.2536 141.3 49.9656 141.244 49.6776 141.18C49.3896 141.108 49.1256 141.012 48.8856 140.892C48.6456 140.764 48.4536 140.592 48.3096 140.376C48.1656 140.152 48.0936 139.856 48.0936 139.488C48.0936 139.104 48.2016 138.768 48.4176 138.48C48.6336 138.192 48.9376 137.972 49.3296 137.82C49.7296 137.66 50.2016 137.58 50.7456 137.58C51.1616 137.58 51.5816 137.632 52.0056 137.736C52.4376 137.832 52.7896 137.972 53.0616 138.156L52.5696 139.068C52.2816 138.876 51.9816 138.744 51.6696 138.672C51.3576 138.6 51.0456 138.564 50.7336 138.564C50.2296 138.564 49.8536 138.648 49.6056 138.816C49.3576 138.976 49.2336 139.184 49.2336 139.44C49.2336 139.656 49.3056 139.824 49.4496 139.944C49.6016 140.056 49.7936 140.144 50.0256 140.208C50.2656 140.272 50.5296 140.328 50.8176 140.376C51.1056 140.416 51.3936 140.472 51.6816 140.544C51.9696 140.608 52.2296 140.7 52.4616 140.82C52.7016 140.94 52.8936 141.108 53.0376 141.324C53.1896 141.54 53.2656 141.828 53.2656 142.188C53.2656 142.572 53.1536 142.904 52.9296 143.184C52.7056 143.464 52.3896 143.684 51.9816 143.844C51.5736 143.996 51.0856 144.072 50.5176 144.072ZM56.8893 144.072C56.2493 144.072 55.7533 143.9 55.4013 143.556C55.0493 143.212 54.8733 142.72 54.8733 142.08V136.248H56.0253V142.032C56.0253 142.376 56.1093 142.64 56.2773 142.824C56.4533 143.008 56.7013 143.1 57.0213 143.1C57.3813 143.1 57.6813 143 57.9213 142.8L58.2813 143.628C58.1053 143.78 57.8933 143.892 57.6453 143.964C57.4053 144.036 57.1533 144.072 56.8893 144.072ZM53.7933 138.588V137.64H57.8493V138.588H53.7933ZM62.1871 144.072C61.5471 144.072 60.9791 143.932 60.4831 143.652C59.9871 143.372 59.5951 142.988 59.3071 142.5C59.0191 142.004 58.8751 141.444 58.8751 140.82C58.8751 140.188 59.0191 139.628 59.3071 139.14C59.5951 138.652 59.9871 138.272 60.4831 138C60.9791 137.72 61.5471 137.58 62.1871 137.58C62.8191 137.58 63.3831 137.72 63.8791 138C64.3831 138.272 64.7751 138.652 65.0551 139.14C65.3431 139.62 65.4871 140.18 65.4871 140.82C65.4871 141.452 65.3431 142.012 65.0551 142.5C64.7751 142.988 64.3831 143.372 63.8791 143.652C63.3831 143.932 62.8191 144.072 62.1871 144.072ZM62.1871 143.064C62.5951 143.064 62.9591 142.972 63.2791 142.788C63.6071 142.604 63.8631 142.344 64.0471 142.008C64.2311 141.664 64.3231 141.268 64.3231 140.82C64.3231 140.364 64.2311 139.972 64.0471 139.644C63.8631 139.308 63.6071 139.048 63.2791 138.864C62.9591 138.68 62.5951 138.588 62.1871 138.588C61.7791 138.588 61.4151 138.68 61.0951 138.864C60.7751 139.048 60.5191 139.308 60.3271 139.644C60.1351 139.972 60.0391 140.364 60.0391 140.82C60.0391 141.268 60.1351 141.664 60.3271 142.008C60.5191 142.344 60.7751 142.604 61.0951 142.788C61.4151 142.972 61.7791 143.064 62.1871 143.064ZM68.9043 144.072C68.3763 144.072 67.8723 144 67.3923 143.856C66.9203 143.712 66.5483 143.536 66.2763 143.328L66.7563 142.416C67.0283 142.6 67.3643 142.756 67.7643 142.884C68.1643 143.012 68.5723 143.076 68.9883 143.076C69.5243 143.076 69.9083 143 70.1403 142.848C70.3803 142.696 70.5003 142.484 70.5003 142.212C70.5003 142.012 70.4283 141.856 70.2843 141.744C70.1403 141.632 69.9483 141.548 69.7083 141.492C69.4763 141.436 69.2163 141.388 68.9283 141.348C68.6403 141.3 68.3523 141.244 68.0643 141.18C67.7763 141.108 67.5123 141.012 67.2723 140.892C67.0323 140.764 66.8403 140.592 66.6963 140.376C66.5523 140.152 66.4803 139.856 66.4803 139.488C66.4803 139.104 66.5883 138.768 66.8043 138.48C67.0203 138.192 67.3243 137.972 67.7163 137.82C68.1163 137.66 68.5883 137.58 69.1323 137.58C69.5483 137.58 69.9683 137.632 70.3923 137.736C70.8243 137.832 71.1763 137.972 71.4483 138.156L70.9563 139.068C70.6683 138.876 70.3683 138.744 70.0563 138.672C69.7443 138.6 69.4323 138.564 69.1203 138.564C68.6163 138.564 68.2403 138.648 67.9923 138.816C67.7443 138.976 67.6203 139.184 67.6203 139.44C67.6203 139.656 67.6923 139.824 67.8363 139.944C67.9883 140.056 68.1803 140.144 68.4123 140.208C68.6523 140.272 68.9163 140.328 69.2043 140.376C69.4923 140.416 69.7803 140.472 70.0683 140.544C70.3563 140.608 70.6163 140.7 70.8483 140.82C71.0883 140.94 71.2803 141.108 71.4243 141.324C71.5763 141.54 71.6523 141.828 71.6523 142.188C71.6523 142.572 71.5403 142.904 71.3163 143.184C71.0923 143.464 70.7763 143.684 70.3683 143.844C69.9603 143.996 69.4723 144.072 68.9043 144.072ZM80.2627 144V142.656L80.2027 142.404V140.112C80.2027 139.624 80.0587 139.248 79.7707 138.984C79.4907 138.712 79.0667 138.576 78.4987 138.576C78.1227 138.576 77.7547 138.64 77.3947 138.768C77.0347 138.888 76.7307 139.052 76.4827 139.26L76.0027 138.396C76.3307 138.132 76.7227 137.932 77.1787 137.796C77.6427 137.652 78.1267 137.58 78.6307 137.58C79.5027 137.58 80.1747 137.792 80.6467 138.216C81.1187 138.64 81.3547 139.288 81.3547 140.16V144H80.2627ZM78.1747 144.072C77.7027 144.072 77.2867 143.992 76.9267 143.832C76.5747 143.672 76.3027 143.452 76.1107 143.172C75.9187 142.884 75.8227 142.56 75.8227 142.2C75.8227 141.856 75.9027 141.544 76.0627 141.264C76.2307 140.984 76.4987 140.76 76.8667 140.592C77.2427 140.424 77.7467 140.34 78.3787 140.34H80.3947V141.168H78.4267C77.8507 141.168 77.4627 141.264 77.2627 141.456C77.0627 141.648 76.9627 141.88 76.9627 142.152C76.9627 142.464 77.0867 142.716 77.3347 142.908C77.5827 143.092 77.9267 143.184 78.3667 143.184C78.7987 143.184 79.1747 143.088 79.4947 142.896C79.8227 142.704 80.0587 142.424 80.2027 142.056L80.4307 142.848C80.2787 143.224 80.0107 143.524 79.6267 143.748C79.2427 143.964 78.7587 144.072 78.1747 144.072ZM85.6705 144.072C85.0305 144.072 84.5345 143.9 84.1825 143.556C83.8305 143.212 83.6545 142.72 83.6545 142.08V136.248H84.8065V142.032C84.8065 142.376 84.8905 142.64 85.0585 142.824C85.2345 143.008 85.4825 143.1 85.8025 143.1C86.1625 143.1 86.4625 143 86.7025 142.8L87.0625 143.628C86.8865 143.78 86.6745 143.892 86.4265 143.964C86.1865 144.036 85.9345 144.072 85.6705 144.072ZM82.5745 138.588V137.64H86.6305V138.588H82.5745ZM91.0763 144.072C90.3963 144.072 89.7963 143.932 89.2763 143.652C88.7643 143.372 88.3643 142.988 88.0763 142.5C87.7963 142.012 87.6563 141.452 87.6563 140.82C87.6563 140.188 87.7923 139.628 88.0643 139.14C88.3443 138.652 88.7243 138.272 89.2043 138C89.6923 137.72 90.2403 137.58 90.8483 137.58C91.4643 137.58 92.0083 137.716 92.4803 137.988C92.9523 138.26 93.3203 138.644 93.5843 139.14C93.8563 139.628 93.9923 140.2 93.9923 140.856C93.9923 140.904 93.9883 140.96 93.9803 141.024C93.9803 141.088 93.9763 141.148 93.9683 141.204H88.5563V140.376H93.3683L92.9003 140.664C92.9083 140.256 92.8243 139.892 92.6483 139.572C92.4723 139.252 92.2283 139.004 91.9163 138.828C91.6123 138.644 91.2563 138.552 90.8483 138.552C90.4483 138.552 90.0923 138.644 89.7803 138.828C89.4683 139.004 89.2243 139.256 89.0483 139.584C88.8723 139.904 88.7843 140.272 88.7843 140.688V140.88C88.7843 141.304 88.8803 141.684 89.0723 142.02C89.2723 142.348 89.5483 142.604 89.9003 142.788C90.2523 142.972 90.6563 143.064 91.1123 143.064C91.4883 143.064 91.8283 143 92.1323 142.872C92.4443 142.744 92.7163 142.552 92.9483 142.296L93.5843 143.04C93.2963 143.376 92.9363 143.632 92.5043 143.808C92.0803 143.984 91.6043 144.072 91.0763 144.072ZM89.9363 136.716L91.5683 135.156H93.0323L91.0163 136.716H89.9363ZM102.763 144V142.656L102.703 142.404V140.112C102.703 139.624 102.559 139.248 102.271 138.984C101.991 138.712 101.567 138.576 100.999 138.576C100.623 138.576 100.255 138.64 99.8947 138.768C99.5347 138.888 99.2307 139.052 98.9827 139.26L98.5027 138.396C98.8307 138.132 99.2227 137.932 99.6787 137.796C100.143 137.652 100.627 137.58 101.131 137.58C102.003 137.58 102.675 137.792 103.147 138.216C103.619 138.64 103.855 139.288 103.855 140.16V144H102.763ZM100.675 144.072C100.203 144.072 99.7867 143.992 99.4267 143.832C99.0747 143.672 98.8027 143.452 98.6107 143.172C98.4187 142.884 98.3227 142.56 98.3227 142.2C98.3227 141.856 98.4027 141.544 98.5627 141.264C98.7307 140.984 98.9987 140.76 99.3667 140.592C99.7427 140.424 100.247 140.34 100.879 140.34H102.895V141.168H100.927C100.351 141.168 99.9627 141.264 99.7627 141.456C99.5627 141.648 99.4627 141.88 99.4627 142.152C99.4627 142.464 99.5867 142.716 99.8347 142.908C100.083 143.092 100.427 143.184 100.867 143.184C101.299 143.184 101.675 143.088 101.995 142.896C102.323 142.704 102.559 142.424 102.703 142.056L102.931 142.848C102.779 143.224 102.511 143.524 102.127 143.748C101.743 143.964 101.259 144.072 100.675 144.072ZM117.165 137.58C117.677 137.58 118.129 137.68 118.521 137.88C118.913 138.08 119.217 138.384 119.433 138.792C119.657 139.2 119.769 139.716 119.769 140.34V144H118.617V140.472C118.617 139.856 118.473 139.392 118.185 139.08C117.897 138.768 117.493 138.612 116.973 138.612C116.589 138.612 116.253 138.692 115.965 138.852C115.677 139.012 115.453 139.248 115.293 139.56C115.141 139.872 115.065 140.26 115.065 140.724V144H113.913V140.472C113.913 139.856 113.769 139.392 113.481 139.08C113.201 138.768 112.797 138.612 112.269 138.612C111.893 138.612 111.561 138.692 111.273 138.852C110.985 139.012 110.761 139.248 110.601 139.56C110.441 139.872 110.361 140.26 110.361 140.724V144H109.209V137.64H110.313V139.332L110.133 138.9C110.333 138.484 110.641 138.16 111.057 137.928C111.473 137.696 111.957 137.58 112.509 137.58C113.117 137.58 113.641 137.732 114.081 138.036C114.521 138.332 114.809 138.784 114.945 139.392L114.477 139.2C114.669 138.712 115.005 138.32 115.485 138.024C115.965 137.728 116.525 137.58 117.165 137.58ZM124.721 144.072C124.041 144.072 123.441 143.932 122.921 143.652C122.409 143.372 122.009 142.988 121.721 142.5C121.441 142.012 121.301 141.452 121.301 140.82C121.301 140.188 121.437 139.628 121.709 139.14C121.989 138.652 122.369 138.272 122.849 138C123.337 137.72 123.885 137.58 124.493 137.58C125.109 137.58 125.653 137.716 126.125 137.988C126.597 138.26 126.965 138.644 127.229 139.14C127.501 139.628 127.637 140.2 127.637 140.856C127.637 140.904 127.633 140.96 127.625 141.024C127.625 141.088 127.621 141.148 127.613 141.204H122.201V140.376H127.013L126.545 140.664C126.553 140.256 126.469 139.892 126.293 139.572C126.117 139.252 125.873 139.004 125.561 138.828C125.257 138.644 124.901 138.552 124.493 138.552C124.093 138.552 123.737 138.644 123.425 138.828C123.113 139.004 122.869 139.256 122.693 139.584C122.517 139.904 122.429 140.272 122.429 140.688V140.88C122.429 141.304 122.525 141.684 122.717 142.02C122.917 142.348 123.193 142.604 123.545 142.788C123.897 142.972 124.301 143.064 124.757 143.064C125.133 143.064 125.473 143 125.777 142.872C126.089 142.744 126.361 142.552 126.593 142.296L127.229 143.04C126.941 143.376 126.581 143.632 126.149 143.808C125.725 143.984 125.249 144.072 124.721 144.072ZM131.421 144.072C130.781 144.072 130.285 143.9 129.933 143.556C129.581 143.212 129.405 142.72 129.405 142.08V136.248H130.557V142.032C130.557 142.376 130.641 142.64 130.809 142.824C130.985 143.008 131.233 143.1 131.553 143.1C131.913 143.1 132.213 143 132.453 142.8L132.813 143.628C132.637 143.78 132.425 143.892 132.177 143.964C131.937 144.036 131.685 144.072 131.421 144.072ZM128.325 138.588V137.64H132.381V138.588H128.325ZM138.153 144V142.656L138.093 142.404V140.112C138.093 139.624 137.949 139.248 137.661 138.984C137.381 138.712 136.957 138.576 136.389 138.576C136.013 138.576 135.645 138.64 135.285 138.768C134.925 138.888 134.621 139.052 134.373 139.26L133.893 138.396C134.221 138.132 134.613 137.932 135.069 137.796C135.533 137.652 136.017 137.58 136.521 137.58C137.393 137.58 138.065 137.792 138.537 138.216C139.009 138.64 139.245 139.288 139.245 140.16V144H138.153ZM136.065 144.072C135.593 144.072 135.177 143.992 134.817 143.832C134.465 143.672 134.193 143.452 134.001 143.172C133.809 142.884 133.713 142.56 133.713 142.2C133.713 141.856 133.793 141.544 133.953 141.264C134.121 140.984 134.389 140.76 134.757 140.592C135.133 140.424 135.637 140.34 136.269 140.34H138.285V141.168H136.317C135.741 141.168 135.353 141.264 135.153 141.456C134.953 141.648 134.853 141.88 134.853 142.152C134.853 142.464 134.977 142.716 135.225 142.908C135.473 143.092 135.817 143.184 136.257 143.184C136.689 143.184 137.065 143.088 137.385 142.896C137.713 142.704 137.949 142.424 138.093 142.056L138.321 142.848C138.169 143.224 137.901 143.524 137.517 143.748C137.133 143.964 136.649 144.072 136.065 144.072ZM144.005 144.072C143.389 144.072 142.837 143.936 142.349 143.664C141.869 143.392 141.489 143.012 141.209 142.524C140.929 142.036 140.789 141.468 140.789 140.82C140.789 140.172 140.929 139.608 141.209 139.128C141.489 138.64 141.869 138.26 142.349 137.988C142.837 137.716 143.389 137.58 144.005 137.58C144.541 137.58 145.025 137.7 145.457 137.94C145.889 138.18 146.233 138.54 146.489 139.02C146.753 139.5 146.885 140.1 146.885 140.82C146.885 141.54 146.757 142.14 146.501 142.62C146.253 143.1 145.913 143.464 145.481 143.712C145.049 143.952 144.557 144.072 144.005 144.072ZM144.101 143.064C144.501 143.064 144.861 142.972 145.181 142.788C145.509 142.604 145.765 142.344 145.949 142.008C146.141 141.664 146.237 141.268 146.237 140.82C146.237 140.364 146.141 139.972 145.949 139.644C145.765 139.308 145.509 139.048 145.181 138.864C144.861 138.68 144.501 138.588 144.101 138.588C143.693 138.588 143.329 138.68 143.009 138.864C142.689 139.048 142.433 139.308 142.241 139.644C142.049 139.972 141.953 140.364 141.953 140.82C141.953 141.268 142.049 141.664 142.241 142.008C142.433 142.344 142.689 142.604 143.009 142.788C143.329 142.972 143.693 143.064 144.101 143.064ZM146.273 144V142.284L146.345 140.808L146.225 139.332V135.096H147.377V144H146.273ZM152.389 144.072C151.709 144.072 151.109 143.932 150.589 143.652C150.077 143.372 149.677 142.988 149.389 142.5C149.109 142.012 148.969 141.452 148.969 140.82C148.969 140.188 149.105 139.628 149.377 139.14C149.657 138.652 150.037 138.272 150.517 138C151.005 137.72 151.553 137.58 152.161 137.58C152.777 137.58 153.321 137.716 153.793 137.988C154.265 138.26 154.633 138.644 154.897 139.14C155.169 139.628 155.305 140.2 155.305 140.856C155.305 140.904 155.301 140.96 155.293 141.024C155.293 141.088 155.289 141.148 155.281 141.204H149.869V140.376H154.681L154.213 140.664C154.221 140.256 154.137 139.892 153.961 139.572C153.785 139.252 153.541 139.004 153.229 138.828C152.925 138.644 152.569 138.552 152.161 138.552C151.761 138.552 151.405 138.644 151.093 138.828C150.781 139.004 150.537 139.256 150.361 139.584C150.185 139.904 150.097 140.272 150.097 140.688V140.88C150.097 141.304 150.193 141.684 150.385 142.02C150.585 142.348 150.861 142.604 151.213 142.788C151.565 142.972 151.969 143.064 152.425 143.064C152.801 143.064 153.141 143 153.445 142.872C153.757 142.744 154.029 142.552 154.261 142.296L154.897 143.04C154.609 143.376 154.249 143.632 153.817 143.808C153.393 143.984 152.917 144.072 152.389 144.072ZM67.8509 159.072C67.2349 159.072 66.6829 158.936 66.1949 158.664C65.7149 158.392 65.3349 158.012 65.0549 157.524C64.7749 157.036 64.6349 156.468 64.6349 155.82C64.6349 155.172 64.7749 154.608 65.0549 154.128C65.3349 153.64 65.7149 153.26 66.1949 152.988C66.6829 152.716 67.2349 152.58 67.8509 152.58C68.3869 152.58 68.8709 152.7 69.3029 152.94C69.7349 153.18 70.0789 153.54 70.3349 154.02C70.5989 154.5 70.7309 155.1 70.7309 155.82C70.7309 156.54 70.6029 157.14 70.3469 157.62C70.0989 158.1 69.7589 158.464 69.3269 158.712C68.8949 158.952 68.4029 159.072 67.8509 159.072ZM67.9469 158.064C68.3469 158.064 68.7069 157.972 69.0269 157.788C69.3549 157.604 69.6109 157.344 69.7949 157.008C69.9869 156.664 70.0829 156.268 70.0829 155.82C70.0829 155.364 69.9869 154.972 69.7949 154.644C69.6109 154.308 69.3549 154.048 69.0269 153.864C68.7069 153.68 68.3469 153.588 67.9469 153.588C67.5389 153.588 67.1749 153.68 66.8549 153.864C66.5349 154.048 66.2789 154.308 66.0869 154.644C65.8949 154.972 65.7989 155.364 65.7989 155.82C65.7989 156.268 65.8949 156.664 66.0869 157.008C66.2789 157.344 66.5349 157.604 66.8549 157.788C67.1749 157.972 67.5389 158.064 67.9469 158.064ZM70.1189 159V157.284L70.1909 155.808L70.0709 154.332V150.096H71.2229V159H70.1189ZM77.3505 159V157.656L77.2905 157.404V155.112C77.2905 154.624 77.1465 154.248 76.8585 153.984C76.5785 153.712 76.1545 153.576 75.5865 153.576C75.2105 153.576 74.8425 153.64 74.4825 153.768C74.1225 153.888 73.8185 154.052 73.5705 154.26L73.0905 153.396C73.4185 153.132 73.8105 152.932 74.2665 152.796C74.7305 152.652 75.2145 152.58 75.7185 152.58C76.5905 152.58 77.2625 152.792 77.7345 153.216C78.2065 153.64 78.4425 154.288 78.4425 155.16V159H77.3505ZM75.2625 159.072C74.7905 159.072 74.3745 158.992 74.0145 158.832C73.6625 158.672 73.3905 158.452 73.1985 158.172C73.0065 157.884 72.9105 157.56 72.9105 157.2C72.9105 156.856 72.9905 156.544 73.1505 156.264C73.3185 155.984 73.5865 155.76 73.9545 155.592C74.3305 155.424 74.8345 155.34 75.4665 155.34H77.4825V156.168H75.5145C74.9385 156.168 74.5505 156.264 74.3505 156.456C74.1505 156.648 74.0505 156.88 74.0505 157.152C74.0505 157.464 74.1745 157.716 74.4225 157.908C74.6705 158.092 75.0145 158.184 75.4545 158.184C75.8865 158.184 76.2625 158.088 76.5825 157.896C76.9105 157.704 77.1465 157.424 77.2905 157.056L77.5185 157.848C77.3665 158.224 77.0985 158.524 76.7145 158.748C76.3305 158.964 75.8465 159.072 75.2625 159.072ZM83.9651 159V152.076C83.9651 151.452 84.1451 150.956 84.5051 150.588C84.8731 150.212 85.3931 150.024 86.0651 150.024C86.3131 150.024 86.5491 150.056 86.7731 150.12C87.0051 150.176 87.2011 150.268 87.3611 150.396L87.0131 151.272C86.8931 151.176 86.7571 151.104 86.6051 151.056C86.4531 151 86.2931 150.972 86.1251 150.972C85.7891 150.972 85.5331 151.068 85.3571 151.26C85.1811 151.444 85.0931 151.72 85.0931 152.088V152.94L85.1171 153.468V159H83.9651ZM82.8851 153.588V152.64H86.9411V153.588H82.8851ZM90.6578 159.072C90.0178 159.072 89.4498 158.932 88.9538 158.652C88.4578 158.372 88.0658 157.988 87.7778 157.5C87.4898 157.004 87.3458 156.444 87.3458 155.82C87.3458 155.188 87.4898 154.628 87.7778 154.14C88.0658 153.652 88.4578 153.272 88.9538 153C89.4498 152.72 90.0178 152.58 90.6578 152.58C91.2898 152.58 91.8538 152.72 92.3498 153C92.8538 153.272 93.2458 153.652 93.5258 154.14C93.8138 154.62 93.9578 155.18 93.9578 155.82C93.9578 156.452 93.8138 157.012 93.5258 157.5C93.2458 157.988 92.8538 158.372 92.3498 158.652C91.8538 158.932 91.2898 159.072 90.6578 159.072ZM90.6578 158.064C91.0658 158.064 91.4298 157.972 91.7498 157.788C92.0778 157.604 92.3338 157.344 92.5178 157.008C92.7018 156.664 92.7938 156.268 92.7938 155.82C92.7938 155.364 92.7018 154.972 92.5178 154.644C92.3338 154.308 92.0778 154.048 91.7498 153.864C91.4298 153.68 91.0658 153.588 90.6578 153.588C90.2498 153.588 89.8858 153.68 89.5658 153.864C89.2458 154.048 88.9898 154.308 88.7978 154.644C88.6058 154.972 88.5098 155.364 88.5098 155.82C88.5098 156.268 88.6058 156.664 88.7978 157.008C88.9898 157.344 89.2458 157.604 89.5658 157.788C89.8858 157.972 90.2498 158.064 90.6578 158.064ZM95.551 159V150.096H96.703V159H95.551ZM102.299 152.58C102.819 152.58 103.275 152.68 103.667 152.88C104.067 153.08 104.379 153.384 104.603 153.792C104.827 154.2 104.939 154.716 104.939 155.34V159H103.787V155.472C103.787 154.856 103.635 154.392 103.331 154.08C103.035 153.768 102.615 153.612 102.071 153.612C101.663 153.612 101.307 153.692 101.003 153.852C100.699 154.012 100.463 154.248 100.295 154.56C100.135 154.872 100.055 155.26 100.055 155.724V159H98.9025V150.096H100.055V154.356L99.8265 153.9C100.035 153.484 100.355 153.16 100.787 152.928C101.219 152.696 101.723 152.58 102.299 152.58ZM111.019 159V157.656L110.959 157.404V155.112C110.959 154.624 110.815 154.248 110.527 153.984C110.247 153.712 109.823 153.576 109.255 153.576C108.879 153.576 108.511 153.64 108.151 153.768C107.791 153.888 107.487 154.052 107.239 154.26L106.759 153.396C107.087 153.132 107.479 152.932 107.935 152.796C108.399 152.652 108.883 152.58 109.387 152.58C110.259 152.58 110.931 152.792 111.403 153.216C111.875 153.64 112.111 154.288 112.111 155.16V159H111.019ZM108.931 159.072C108.459 159.072 108.043 158.992 107.683 158.832C107.331 158.672 107.059 158.452 106.867 158.172C106.675 157.884 106.579 157.56 106.579 157.2C106.579 156.856 106.659 156.544 106.819 156.264C106.987 155.984 107.255 155.76 107.623 155.592C107.999 155.424 108.503 155.34 109.135 155.34H111.151V156.168H109.183C108.607 156.168 108.219 156.264 108.019 156.456C107.819 156.648 107.719 156.88 107.719 157.152C107.719 157.464 107.843 157.716 108.091 157.908C108.339 158.092 108.683 158.184 109.123 158.184C109.555 158.184 109.931 158.088 110.251 157.896C110.579 157.704 110.815 157.424 110.959 157.056L111.187 157.848C111.035 158.224 110.767 158.524 110.383 158.748C109.999 158.964 109.515 159.072 108.931 159.072ZM114.518 159.072C114.294 159.072 114.102 158.996 113.942 158.844C113.782 158.684 113.702 158.484 113.702 158.244C113.702 158.004 113.782 157.808 113.942 157.656C114.102 157.504 114.294 157.428 114.518 157.428C114.734 157.428 114.918 157.504 115.07 157.656C115.23 157.808 115.31 158.004 115.31 158.244C115.31 158.484 115.23 158.684 115.07 158.844C114.918 158.996 114.734 159.072 114.518 159.072Z" fill="#008E86"/>
<rect x="45" y="55" width="63.6396" height="63.6396" transform="rotate(-45 45 55)" fill="#00D8CC" stroke="#00635D" stroke-width="2" stroke-linejoin="round"/>
<path d="M66 34H114" stroke="#333333" stroke-width="2" stroke-dasharray="4 6"/>
<path d="M65 75H115" stroke="#333333" stroke-width="2" stroke-dasharray="4 6"/>
<path opacity="0.25" d="M90 11V100" stroke="#333333" stroke-width="2"/>
<path opacity="0.25" d="M45 55L135 55" stroke="#333333" stroke-width="2"/>
<path d="M87.997 50C88.5493 50.0016 88.9984 49.5553 89 49.003L89.0268 40.003C89.0285 39.4507 88.5821 39.0017 88.0298 39C87.4775 38.9984 87.0285 39.4448 87.0268 39.9971L87.003 47.997L79.003 47.9732C78.4507 47.9715 78.0017 48.4179 78 48.9702C77.9984 49.5225 78.4448 49.9715 78.9971 49.9732L87.997 50ZM88.7092 16.705C89.0986 16.3133 89.0967 15.6801 88.705 15.2908C88.3133 14.9014 87.6801 14.9033 87.2908 15.295L88.7092 16.705ZM88.7092 48.295C84.0905 43.6487 82 38.1025 82 32.569L80 32.569C80 38.6339 82.3017 44.6861 87.2908 49.705L88.7092 48.295ZM82 32.569C82 29.854 82.8413 26.7164 84.1277 23.8089C85.4139 20.9019 87.102 18.3218 88.7092 16.705L87.2908 15.295C85.4667 17.13 83.6547 19.935 82.2987 22.9997C80.943 26.0639 80 29.4849 80 32.569L82 32.569Z" fill="black"/>
<path d="M94.003 58C93.4507 57.9984 93.0016 58.4447 93 58.997L92.9732 67.997C92.9715 68.5493 93.4179 68.9983 93.9702 69C94.5225 69.0016 94.9715 68.5552 94.9732 68.0029L94.997 60.003L102.997 60.0268C103.549 60.0285 103.998 59.5821 104 59.0298C104.002 58.4775 103.555 58.0285 103.003 58.0268L94.003 58ZM93.2908 91.295C92.9014 91.6867 92.9033 92.3199 93.295 92.7092C93.6867 93.0986 94.3198 93.0967 94.7092 92.705L93.2908 91.295ZM93.2908 59.705C97.9095 64.3513 100 69.8975 100 75.431L102 75.431C102 69.3661 99.6983 63.3139 94.7092 58.295L93.2908 59.705ZM100 75.431C100 78.146 99.1587 81.2836 97.8723 84.1911C96.5861 87.0981 94.898 89.6782 93.2908 91.295L94.7092 92.705C96.5333 90.87 98.3453 88.065 99.7013 85.0003C101.057 81.9361 102 78.5151 102 75.431L100 75.431Z" fill="black"/>
</svg>
