<svg width="180" height="180" viewBox="0 0 180 180" fill="none" xmlns="http://www.w3.org/2000/svg">
<g clip-path="url(#clip0_14_3029)">
<rect width="180" height="180" rx="20" fill="#F2F2F2"/>
<g clip-path="url(#clip1_14_3029)">
<path d="M0 30L-1.31134e-06 0L30 -1.31134e-06L30 10C30 21.0457 21.0457 30 10 30L0 30Z" fill="#333333"/>
<path d="M14.7062 14.008C16.2849 14.008 17.4475 14.3227 18.1942 14.952C18.9515 15.5813 19.3302 16.424 19.3302 17.48C19.3302 18.1627 19.1595 18.7867 18.8182 19.352C18.4769 19.9067 17.9542 20.3547 17.2502 20.696C16.5569 21.0267 15.6982 21.192 14.6742 21.192C13.8849 21.192 13.1062 21.0907 12.3382 20.888C11.5809 20.6747 10.9355 20.376 10.4022 19.992L11.4262 18.008C11.8529 18.328 12.3435 18.5787 12.8982 18.76C13.4529 18.9307 14.0235 19.016 14.6102 19.016C15.2609 19.016 15.7729 18.888 16.1462 18.632C16.5195 18.376 16.7062 18.0187 16.7062 17.56C16.7062 17.08 16.5089 16.7173 16.1142 16.472C15.7302 16.2267 15.0582 16.104 14.0982 16.104H11.2342L11.8102 9.8H18.6422V11.88H13.9702L13.7942 14.008H14.7062Z" fill="#F2F2F2"/>
</g>
<path d="M39.5393 137V128.6H43.0793C43.9753 128.6 44.7633 128.776 45.4433 129.128C46.1313 129.48 46.6633 129.972 47.0393 130.604C47.4233 131.236 47.6153 131.968 47.6153 132.8C47.6153 133.632 47.4233 134.364 47.0393 134.996C46.6633 135.628 46.1313 136.12 45.4433 136.472C44.7633 136.824 43.9753 137 43.0793 137H39.5393ZM40.7393 135.956H43.0073C43.7033 135.956 44.3033 135.824 44.8073 135.56C45.3193 135.296 45.7153 134.928 45.9953 134.456C46.2753 133.976 46.4153 133.424 46.4153 132.8C46.4153 132.168 46.2753 131.616 45.9953 131.144C45.7153 130.672 45.3193 130.304 44.8073 130.04C44.3033 129.776 43.7033 129.644 43.0073 129.644H40.7393V135.956ZM52.1174 137.072C51.4374 137.072 50.8374 136.932 50.3174 136.652C49.8054 136.372 49.4054 135.988 49.1174 135.5C48.8374 135.012 48.6974 134.452 48.6974 133.82C48.6974 133.188 48.8334 132.628 49.1054 132.14C49.3854 131.652 49.7654 131.272 50.2454 131C50.7334 130.72 51.2814 130.58 51.8894 130.58C52.5054 130.58 53.0494 130.716 53.5214 130.988C53.9934 131.26 54.3614 131.644 54.6254 132.14C54.8974 132.628 55.0334 133.2 55.0334 133.856C55.0334 133.904 55.0294 133.96 55.0214 134.024C55.0214 134.088 55.0174 134.148 55.0094 134.204H49.5974V133.376H54.4094L53.9414 133.664C53.9494 133.256 53.8654 132.892 53.6894 132.572C53.5134 132.252 53.2694 132.004 52.9574 131.828C52.6534 131.644 52.2974 131.552 51.8894 131.552C51.4894 131.552 51.1334 131.644 50.8214 131.828C50.5094 132.004 50.2654 132.256 50.0894 132.584C49.9134 132.904 49.8254 133.272 49.8254 133.688V133.88C49.8254 134.304 49.9214 134.684 50.1134 135.02C50.3134 135.348 50.5894 135.604 50.9414 135.788C51.2934 135.972 51.6974 136.064 52.1534 136.064C52.5294 136.064 52.8694 136 53.1734 135.872C53.4854 135.744 53.7574 135.552 53.9894 135.296L54.6254 136.04C54.3374 136.376 53.9774 136.632 53.5454 136.808C53.1214 136.984 52.6454 137.072 52.1174 137.072ZM58.457 137.072C57.929 137.072 57.425 137 56.945 136.856C56.473 136.712 56.101 136.536 55.829 136.328L56.309 135.416C56.581 135.6 56.917 135.756 57.317 135.884C57.717 136.012 58.125 136.076 58.541 136.076C59.077 136.076 59.461 136 59.693 135.848C59.933 135.696 60.053 135.484 60.053 135.212C60.053 135.012 59.981 134.856 59.837 134.744C59.693 134.632 59.501 134.548 59.261 134.492C59.029 134.436 58.769 134.388 58.481 134.348C58.193 134.3 57.905 134.244 57.617 134.18C57.329 134.108 57.065 134.012 56.825 133.892C56.585 133.764 56.393 133.592 56.249 133.376C56.105 133.152 56.033 132.856 56.033 132.488C56.033 132.104 56.141 131.768 56.357 131.48C56.573 131.192 56.877 130.972 57.269 130.82C57.669 130.66 58.141 130.58 58.685 130.58C59.101 130.58 59.521 130.632 59.945 130.736C60.377 130.832 60.729 130.972 61.001 131.156L60.509 132.068C60.221 131.876 59.921 131.744 59.609 131.672C59.297 131.6 58.985 131.564 58.673 131.564C58.169 131.564 57.793 131.648 57.545 131.816C57.297 131.976 57.173 132.184 57.173 132.44C57.173 132.656 57.245 132.824 57.389 132.944C57.541 133.056 57.733 133.144 57.965 133.208C58.205 133.272 58.469 133.328 58.757 133.376C59.045 133.416 59.333 133.472 59.621 133.544C59.909 133.608 60.169 133.7 60.401 133.82C60.641 133.94 60.833 134.108 60.977 134.324C61.129 134.54 61.205 134.828 61.205 135.188C61.205 135.572 61.093 135.904 60.869 136.184C60.645 136.464 60.329 136.684 59.921 136.844C59.513 136.996 59.025 137.072 58.457 137.072ZM65.2727 137.072C64.6567 137.072 64.1047 136.936 63.6167 136.664C63.1367 136.392 62.7567 136.012 62.4767 135.524C62.1967 135.036 62.0567 134.468 62.0567 133.82C62.0567 133.172 62.1967 132.608 62.4767 132.128C62.7567 131.64 63.1367 131.26 63.6167 130.988C64.1047 130.716 64.6567 130.58 65.2727 130.58C65.8087 130.58 66.2927 130.7 66.7247 130.94C67.1567 131.18 67.5007 131.54 67.7567 132.02C68.0207 132.5 68.1527 133.1 68.1527 133.82C68.1527 134.54 68.0247 135.14 67.7687 135.62C67.5207 136.1 67.1807 136.464 66.7487 136.712C66.3167 136.952 65.8247 137.072 65.2727 137.072ZM65.3687 136.064C65.7687 136.064 66.1287 135.972 66.4487 135.788C66.7767 135.604 67.0327 135.344 67.2167 135.008C67.4087 134.664 67.5047 134.268 67.5047 133.82C67.5047 133.364 67.4087 132.972 67.2167 132.644C67.0327 132.308 66.7767 132.048 66.4487 131.864C66.1287 131.68 65.7687 131.588 65.3687 131.588C64.9607 131.588 64.5967 131.68 64.2767 131.864C63.9567 132.048 63.7007 132.308 63.5087 132.644C63.3167 132.972 63.2207 133.364 63.2207 133.82C63.2207 134.268 63.3167 134.664 63.5087 135.008C63.7007 135.344 63.9567 135.604 64.2767 135.788C64.5967 135.972 64.9607 136.064 65.3687 136.064ZM67.5407 137V135.284L67.6127 133.808L67.4927 132.332V128.096H68.6447V137H67.5407ZM73.5484 137.072C72.9084 137.072 72.3404 136.932 71.8444 136.652C71.3484 136.372 70.9564 135.988 70.6684 135.5C70.3804 135.004 70.2364 134.444 70.2364 133.82C70.2364 133.188 70.3804 132.628 70.6684 132.14C70.9564 131.652 71.3484 131.272 71.8444 131C72.3404 130.72 72.9084 130.58 73.5484 130.58C74.1804 130.58 74.7444 130.72 75.2404 131C75.7444 131.272 76.1364 131.652 76.4164 132.14C76.7044 132.62 76.8484 133.18 76.8484 133.82C76.8484 134.452 76.7044 135.012 76.4164 135.5C76.1364 135.988 75.7444 136.372 75.2404 136.652C74.7444 136.932 74.1804 137.072 73.5484 137.072ZM73.5484 136.064C73.9564 136.064 74.3204 135.972 74.6404 135.788C74.9684 135.604 75.2244 135.344 75.4084 135.008C75.5924 134.664 75.6844 134.268 75.6844 133.82C75.6844 133.364 75.5924 132.972 75.4084 132.644C75.2244 132.308 74.9684 132.048 74.6404 131.864C74.3204 131.68 73.9564 131.588 73.5484 131.588C73.1404 131.588 72.7764 131.68 72.4564 131.864C72.1364 132.048 71.8804 132.308 71.6884 132.644C71.4964 132.972 71.4004 133.364 71.4004 133.82C71.4004 134.268 71.4964 134.664 71.6884 135.008C71.8804 135.344 72.1364 135.604 72.4564 135.788C72.7764 135.972 73.1404 136.064 73.5484 136.064ZM81.8136 137.072C81.2696 137.072 80.7776 136.952 80.3376 136.712C79.9056 136.464 79.5616 136.1 79.3056 135.62C79.0576 135.14 78.9336 134.54 78.9336 133.82C78.9336 133.1 79.0616 132.5 79.3176 132.02C79.5816 131.54 79.9296 131.18 80.3616 130.94C80.8016 130.7 81.2856 130.58 81.8136 130.58C82.4376 130.58 82.9896 130.716 83.4696 130.988C83.9496 131.26 84.3296 131.64 84.6096 132.128C84.8896 132.608 85.0296 133.172 85.0296 133.82C85.0296 134.468 84.8896 135.036 84.6096 135.524C84.3296 136.012 83.9496 136.392 83.4696 136.664C82.9896 136.936 82.4376 137.072 81.8136 137.072ZM78.4416 137V128.096H79.5936V132.332L79.4736 133.808L79.5456 135.284V137H78.4416ZM81.7176 136.064C82.1256 136.064 82.4896 135.972 82.8096 135.788C83.1376 135.604 83.3936 135.344 83.5776 135.008C83.7696 134.664 83.8656 134.268 83.8656 133.82C83.8656 133.364 83.7696 132.972 83.5776 132.644C83.3936 132.308 83.1376 132.048 82.8096 131.864C82.4896 131.68 82.1256 131.588 81.7176 131.588C81.3176 131.588 80.9536 131.68 80.6256 131.864C80.3056 132.048 80.0496 132.308 79.8576 132.644C79.6736 132.972 79.5816 133.364 79.5816 133.82C79.5816 134.268 79.6736 134.664 79.8576 135.008C80.0496 135.344 80.3056 135.604 80.6256 135.788C80.9536 135.972 81.3176 136.064 81.7176 136.064ZM86.6213 137V130.64H87.7253V132.368L87.6173 131.936C87.7933 131.496 88.0893 131.16 88.5053 130.928C88.9213 130.696 89.4333 130.58 90.0413 130.58V131.696C89.9933 131.688 89.9453 131.684 89.8973 131.684C89.8573 131.684 89.8173 131.684 89.7773 131.684C89.1613 131.684 88.6733 131.868 88.3133 132.236C87.9533 132.604 87.7733 133.136 87.7733 133.832V137H86.6213ZM94.2345 137.072C93.5545 137.072 92.9545 136.932 92.4345 136.652C91.9225 136.372 91.5225 135.988 91.2345 135.5C90.9545 135.012 90.8145 134.452 90.8145 133.82C90.8145 133.188 90.9505 132.628 91.2225 132.14C91.5025 131.652 91.8825 131.272 92.3625 131C92.8505 130.72 93.3985 130.58 94.0065 130.58C94.6225 130.58 95.1665 130.716 95.6385 130.988C96.1105 131.26 96.4785 131.644 96.7425 132.14C97.0145 132.628 97.1505 133.2 97.1505 133.856C97.1505 133.904 97.1465 133.96 97.1385 134.024C97.1385 134.088 97.1345 134.148 97.1265 134.204H91.7145V133.376H96.5265L96.0585 133.664C96.0665 133.256 95.9825 132.892 95.8065 132.572C95.6305 132.252 95.3865 132.004 95.0745 131.828C94.7705 131.644 94.4145 131.552 94.0065 131.552C93.6065 131.552 93.2505 131.644 92.9385 131.828C92.6265 132.004 92.3825 132.256 92.2065 132.584C92.0305 132.904 91.9425 133.272 91.9425 133.688V133.88C91.9425 134.304 92.0385 134.684 92.2305 135.02C92.4305 135.348 92.7065 135.604 93.0585 135.788C93.4105 135.972 93.8145 136.064 94.2705 136.064C94.6465 136.064 94.9865 136 95.2905 135.872C95.6025 135.744 95.8745 135.552 96.1065 135.296L96.7425 136.04C96.4545 136.376 96.0945 136.632 95.6625 136.808C95.2385 136.984 94.7625 137.072 94.2345 137.072ZM105.921 137V135.656L105.861 135.404V133.112C105.861 132.624 105.717 132.248 105.429 131.984C105.149 131.712 104.725 131.576 104.157 131.576C103.781 131.576 103.413 131.64 103.053 131.768C102.693 131.888 102.389 132.052 102.141 132.26L101.661 131.396C101.989 131.132 102.381 130.932 102.837 130.796C103.301 130.652 103.785 130.58 104.289 130.58C105.161 130.58 105.833 130.792 106.305 131.216C106.777 131.64 107.013 132.288 107.013 133.16V137H105.921ZM103.833 137.072C103.361 137.072 102.945 136.992 102.585 136.832C102.233 136.672 101.961 136.452 101.769 136.172C101.577 135.884 101.481 135.56 101.481 135.2C101.481 134.856 101.561 134.544 101.721 134.264C101.889 133.984 102.157 133.76 102.525 133.592C102.901 133.424 103.405 133.34 104.037 133.34H106.053V134.168H104.085C103.509 134.168 103.121 134.264 102.921 134.456C102.721 134.648 102.621 134.88 102.621 135.152C102.621 135.464 102.745 135.716 102.993 135.908C103.241 136.092 103.585 136.184 104.025 136.184C104.457 136.184 104.833 136.088 105.153 135.896C105.481 135.704 105.717 135.424 105.861 135.056L106.089 135.848C105.937 136.224 105.669 136.524 105.285 136.748C104.901 136.964 104.417 137.072 103.833 137.072ZM112.535 137V130.076C112.535 129.452 112.715 128.956 113.075 128.588C113.443 128.212 113.963 128.024 114.635 128.024C114.883 128.024 115.119 128.056 115.343 128.12C115.575 128.176 115.771 128.268 115.931 128.396L115.583 129.272C115.463 129.176 115.327 129.104 115.175 129.056C115.023 129 114.863 128.972 114.695 128.972C114.359 128.972 114.103 129.068 113.927 129.26C113.751 129.444 113.663 129.72 113.663 130.088V130.94L113.687 131.468V137H112.535ZM111.455 131.588V130.64H115.511V131.588H111.455ZM119.228 137.072C118.588 137.072 118.02 136.932 117.524 136.652C117.028 136.372 116.636 135.988 116.348 135.5C116.06 135.004 115.916 134.444 115.916 133.82C115.916 133.188 116.06 132.628 116.348 132.14C116.636 131.652 117.028 131.272 117.524 131C118.02 130.72 118.588 130.58 119.228 130.58C119.86 130.58 120.424 130.72 120.92 131C121.424 131.272 121.816 131.652 122.096 132.14C122.384 132.62 122.528 133.18 122.528 133.82C122.528 134.452 122.384 135.012 122.096 135.5C121.816 135.988 121.424 136.372 120.92 136.652C120.424 136.932 119.86 137.072 119.228 137.072ZM119.228 136.064C119.636 136.064 120 135.972 120.32 135.788C120.648 135.604 120.904 135.344 121.088 135.008C121.272 134.664 121.364 134.268 121.364 133.82C121.364 133.364 121.272 132.972 121.088 132.644C120.904 132.308 120.648 132.048 120.32 131.864C120 131.68 119.636 131.588 119.228 131.588C118.82 131.588 118.456 131.68 118.136 131.864C117.816 132.048 117.56 132.308 117.368 132.644C117.176 132.972 117.08 133.364 117.08 133.82C117.08 134.268 117.176 134.664 117.368 135.008C117.56 135.344 117.816 135.604 118.136 135.788C118.456 135.972 118.82 136.064 119.228 136.064ZM124.121 137V128.096H125.273V137H124.121ZM130.869 130.58C131.389 130.58 131.845 130.68 132.237 130.88C132.637 131.08 132.949 131.384 133.173 131.792C133.397 132.2 133.509 132.716 133.509 133.34V137H132.357V133.472C132.357 132.856 132.205 132.392 131.901 132.08C131.605 131.768 131.185 131.612 130.641 131.612C130.233 131.612 129.877 131.692 129.573 131.852C129.269 132.012 129.033 132.248 128.865 132.56C128.705 132.872 128.625 133.26 128.625 133.724V137H127.473V128.096H128.625V132.356L128.397 131.9C128.605 131.484 128.925 131.16 129.357 130.928C129.789 130.696 130.293 130.58 130.869 130.58ZM139.589 137V135.656L139.529 135.404V133.112C139.529 132.624 139.385 132.248 139.097 131.984C138.817 131.712 138.393 131.576 137.825 131.576C137.449 131.576 137.081 131.64 136.721 131.768C136.361 131.888 136.057 132.052 135.809 132.26L135.329 131.396C135.657 131.132 136.049 130.932 136.505 130.796C136.969 130.652 137.453 130.58 137.957 130.58C138.829 130.58 139.501 130.792 139.973 131.216C140.445 131.64 140.681 132.288 140.681 133.16V137H139.589ZM137.501 137.072C137.029 137.072 136.613 136.992 136.253 136.832C135.901 136.672 135.629 136.452 135.437 136.172C135.245 135.884 135.149 135.56 135.149 135.2C135.149 134.856 135.229 134.544 135.389 134.264C135.557 133.984 135.825 133.76 136.193 133.592C136.569 133.424 137.073 133.34 137.705 133.34H139.721V134.168H137.753C137.177 134.168 136.789 134.264 136.589 134.456C136.389 134.648 136.289 134.88 136.289 135.152C136.289 135.464 136.413 135.716 136.661 135.908C136.909 136.092 137.253 136.184 137.693 136.184C138.125 136.184 138.501 136.088 138.821 135.896C139.149 135.704 139.385 135.424 139.529 135.056L139.757 135.848C139.605 136.224 139.337 136.524 138.953 136.748C138.569 136.964 138.085 137.072 137.501 137.072ZM70.4729 152V145.64H71.6249V152H70.4729ZM71.0489 144.416C70.8249 144.416 70.6369 144.344 70.4849 144.2C70.3409 144.056 70.2689 143.88 70.2689 143.672C70.2689 143.456 70.3409 143.276 70.4849 143.132C70.6369 142.988 70.8249 142.916 71.0489 142.916C71.2729 142.916 71.4569 142.988 71.6009 143.132C71.7529 143.268 71.8289 143.44 71.8289 143.648C71.8289 143.864 71.7569 144.048 71.6129 144.2C71.4689 144.344 71.2809 144.416 71.0489 144.416ZM77.2204 145.58C77.7404 145.58 78.1964 145.68 78.5884 145.88C78.9884 146.08 79.3004 146.384 79.5244 146.792C79.7484 147.2 79.8604 147.716 79.8604 148.34V152H78.7084V148.472C78.7084 147.856 78.5564 147.392 78.2524 147.08C77.9564 146.768 77.5364 146.612 76.9924 146.612C76.5844 146.612 76.2284 146.692 75.9244 146.852C75.6204 147.012 75.3844 147.248 75.2164 147.56C75.0564 147.872 74.9764 148.26 74.9764 148.724V152H73.8244V145.64H74.9284V147.356L74.7484 146.9C74.9564 146.484 75.2764 146.16 75.7084 145.928C76.1404 145.696 76.6444 145.58 77.2204 145.58ZM84.1764 152.072C83.5364 152.072 83.0404 151.9 82.6884 151.556C82.3364 151.212 82.1604 150.72 82.1604 150.08V144.248H83.3124V150.032C83.3124 150.376 83.3964 150.64 83.5644 150.824C83.7404 151.008 83.9884 151.1 84.3084 151.1C84.6684 151.1 84.9684 151 85.2084 150.8L85.5684 151.628C85.3924 151.78 85.1804 151.892 84.9324 151.964C84.6924 152.036 84.4404 152.072 84.1764 152.072ZM81.0804 146.588V145.64H85.1364V146.588H81.0804ZM89.5822 152.072C88.9022 152.072 88.3022 151.932 87.7822 151.652C87.2702 151.372 86.8702 150.988 86.5822 150.5C86.3022 150.012 86.1622 149.452 86.1622 148.82C86.1622 148.188 86.2982 147.628 86.5702 147.14C86.8502 146.652 87.2302 146.272 87.7102 146C88.1982 145.72 88.7462 145.58 89.3542 145.58C89.9702 145.58 90.5142 145.716 90.9862 145.988C91.4582 146.26 91.8262 146.644 92.0902 147.14C92.3622 147.628 92.4982 148.2 92.4982 148.856C92.4982 148.904 92.4942 148.96 92.4862 149.024C92.4862 149.088 92.4822 149.148 92.4742 149.204H87.0622V148.376H91.8742L91.4062 148.664C91.4142 148.256 91.3302 147.892 91.1542 147.572C90.9782 147.252 90.7342 147.004 90.4222 146.828C90.1182 146.644 89.7622 146.552 89.3542 146.552C88.9542 146.552 88.5982 146.644 88.2862 146.828C87.9742 147.004 87.7302 147.256 87.5542 147.584C87.3782 147.904 87.2902 148.272 87.2902 148.688V148.88C87.2902 149.304 87.3862 149.684 87.5782 150.02C87.7782 150.348 88.0542 150.604 88.4062 150.788C88.7582 150.972 89.1622 151.064 89.6182 151.064C89.9942 151.064 90.3342 151 90.6382 150.872C90.9502 150.744 91.2222 150.552 91.4542 150.296L92.0902 151.04C91.8022 151.376 91.4422 151.632 91.0102 151.808C90.5862 151.984 90.1102 152.072 89.5822 152.072ZM94.0979 152V145.64H95.2499V152H94.0979ZM94.6739 144.416C94.4499 144.416 94.2619 144.344 94.1099 144.2C93.9659 144.056 93.8939 143.88 93.8939 143.672C93.8939 143.456 93.9659 143.276 94.1099 143.132C94.2619 142.988 94.4499 142.916 94.6739 142.916C94.8979 142.916 95.0819 142.988 95.2259 143.132C95.3779 143.268 95.4539 143.44 95.4539 143.648C95.4539 143.864 95.3819 144.048 95.2379 144.2C95.0939 144.344 94.9059 144.416 94.6739 144.416ZM97.4494 152V145.64H98.5534V147.368L98.4454 146.936C98.6214 146.496 98.9174 146.16 99.3334 145.928C99.7494 145.696 100.261 145.58 100.869 145.58V146.696C100.821 146.688 100.773 146.684 100.725 146.684C100.685 146.684 100.645 146.684 100.605 146.684C99.9894 146.684 99.5014 146.868 99.1414 147.236C98.7814 147.604 98.6014 148.136 98.6014 148.832V152H97.4494ZM105.769 152V150.656L105.709 150.404V148.112C105.709 147.624 105.565 147.248 105.277 146.984C104.997 146.712 104.573 146.576 104.005 146.576C103.629 146.576 103.261 146.64 102.901 146.768C102.541 146.888 102.237 147.052 101.989 147.26L101.509 146.396C101.837 146.132 102.229 145.932 102.685 145.796C103.149 145.652 103.633 145.58 104.137 145.58C105.009 145.58 105.681 145.792 106.153 146.216C106.625 146.64 106.861 147.288 106.861 148.16V152H105.769ZM103.681 152.072C103.209 152.072 102.793 151.992 102.433 151.832C102.081 151.672 101.809 151.452 101.617 151.172C101.425 150.884 101.329 150.56 101.329 150.2C101.329 149.856 101.409 149.544 101.569 149.264C101.737 148.984 102.005 148.76 102.373 148.592C102.749 148.424 103.253 148.34 103.885 148.34H105.901V149.168H103.933C103.357 149.168 102.969 149.264 102.769 149.456C102.569 149.648 102.469 149.88 102.469 150.152C102.469 150.464 102.593 150.716 102.841 150.908C103.089 151.092 103.433 151.184 103.873 151.184C104.305 151.184 104.681 151.088 105.001 150.896C105.329 150.704 105.565 150.424 105.709 150.056L105.937 150.848C105.785 151.224 105.517 151.524 105.133 151.748C104.749 151.964 104.265 152.072 103.681 152.072ZM109.268 152.072C109.044 152.072 108.852 151.996 108.692 151.844C108.532 151.684 108.452 151.484 108.452 151.244C108.452 151.004 108.532 150.808 108.692 150.656C108.852 150.504 109.044 150.428 109.268 150.428C109.484 150.428 109.668 150.504 109.82 150.656C109.98 150.808 110.06 151.004 110.06 151.244C110.06 151.484 109.98 151.684 109.82 151.844C109.668 151.996 109.484 152.072 109.268 152.072Z" fill="#008E86"/>
<rect x="45" y="55" width="63.6396" height="63.6396" transform="rotate(-45 45 55)" fill="#00D8CC" stroke="#00635D" stroke-width="2" stroke-linejoin="round"/>
<path d="M56 66L124 66" stroke="#00635D" stroke-width="2" stroke-dasharray="4 6"/>
<path opacity="0.25" d="M90 11V100" stroke="#333333" stroke-width="2"/>
<path opacity="0.25" d="M45 55L135 55" stroke="#333333" stroke-width="2"/>
<path opacity="0.25" d="M56 44L124 44" stroke="#333333" stroke-width="2"/>
<path opacity="0.25" d="M124 66L56 66" stroke="#333333" stroke-width="2"/>
<path opacity="0.25" d="M66 34H114" stroke="#333333" stroke-width="2"/>
<path opacity="0.25" d="M114 76L66 76" stroke="#333333" stroke-width="2"/>
<path opacity="0.25" d="M76 24H104" stroke="#333333" stroke-width="2"/>
<path opacity="0.25" d="M104 86L76 86" stroke="#333333" stroke-width="2"/>
<path d="M75.997 48C76.5493 47.9984 76.9984 48.4447 77 48.997L77.0268 57.997C77.0285 58.5493 76.5821 58.9983 76.0298 59C75.4775 59.0016 75.0285 58.5552 75.0268 58.0029L75.003 50.003L67.003 50.0268C66.4507 50.0285 66.0017 49.5821 66 49.0298C65.9984 48.4775 66.4448 48.0285 66.9971 48.0268L75.997 48ZM76.7092 81.295C77.0986 81.6867 77.0967 82.3199 76.705 82.7092C76.3133 83.0986 75.6801 83.0967 75.2908 82.705L76.7092 81.295ZM76.7092 49.705C72.0905 54.3513 70 59.8975 70 65.431L68 65.431C68 59.3661 70.3017 53.3139 75.2908 48.295L76.7092 49.705ZM70 65.431C70 68.146 70.8413 71.2836 72.1277 74.1911C73.4139 77.0981 75.102 79.6782 76.7092 81.295L75.2908 82.705C73.4667 80.87 71.6547 78.065 70.2987 75.0003C68.943 71.9361 68 68.5151 68 65.431L70 65.431Z" fill="black"/>
</g>
<defs>
<clipPath id="clip0_14_3029">
<rect width="180" height="180" rx="20" fill="white"/>
</clipPath>
<clipPath id="clip1_14_3029">
<path d="M0 30L-1.31134e-06 0L30 -1.31134e-06L30 10C30 21.0457 21.0457 30 10 30L0 30Z" fill="white"/>
</clipPath>
</defs>
</svg>
