<svg width="180" height="180" viewBox="0 0 180 180" fill="none" xmlns="http://www.w3.org/2000/svg">
<rect width="180" height="180" rx="20" fill="#F2F2F2"/>
<path d="M31.2014 129V120.6H34.7414C35.6374 120.6 36.4254 120.776 37.1054 121.128C37.7934 121.48 38.3254 121.972 38.7014 122.604C39.0854 123.236 39.2774 123.968 39.2774 124.8C39.2774 125.632 39.0854 126.364 38.7014 126.996C38.3254 127.628 37.7934 128.12 37.1054 128.472C36.4254 128.824 35.6374 129 34.7414 129H31.2014ZM32.4014 127.956H34.6694C35.3654 127.956 35.9654 127.824 36.4694 127.56C36.9814 127.296 37.3774 126.928 37.6574 126.456C37.9374 125.976 38.0774 125.424 38.0774 124.8C38.0774 124.168 37.9374 123.616 37.6574 123.144C37.3774 122.672 36.9814 122.304 36.4694 122.04C35.9654 121.776 35.3654 121.644 34.6694 121.644H32.4014V127.956ZM43.6715 129.072C43.0315 129.072 42.4635 128.932 41.9675 128.652C41.4715 128.372 41.0795 127.988 40.7915 127.5C40.5035 127.004 40.3595 126.444 40.3595 125.82C40.3595 125.188 40.5035 124.628 40.7915 124.14C41.0795 123.652 41.4715 123.272 41.9675 123C42.4635 122.72 43.0315 122.58 43.6715 122.58C44.3035 122.58 44.8675 122.72 45.3635 123C45.8675 123.272 46.2595 123.652 46.5395 124.14C46.8275 124.62 46.9715 125.18 46.9715 125.82C46.9715 126.452 46.8275 127.012 46.5395 127.5C46.2595 127.988 45.8675 128.372 45.3635 128.652C44.8675 128.932 44.3035 129.072 43.6715 129.072ZM43.6715 128.064C44.0795 128.064 44.4435 127.972 44.7635 127.788C45.0915 127.604 45.3475 127.344 45.5315 127.008C45.7155 126.664 45.8075 126.268 45.8075 125.82C45.8075 125.364 45.7155 124.972 45.5315 124.644C45.3475 124.308 45.0915 124.048 44.7635 123.864C44.4435 123.68 44.0795 123.588 43.6715 123.588C43.2635 123.588 42.8995 123.68 42.5795 123.864C42.2595 124.048 42.0035 124.308 41.8115 124.644C41.6195 124.972 41.5235 125.364 41.5235 125.82C41.5235 126.268 41.6195 126.664 41.8115 127.008C42.0035 127.344 42.2595 127.604 42.5795 127.788C42.8995 127.972 43.2635 128.064 43.6715 128.064ZM51.9367 129.072C51.3927 129.072 50.9007 128.952 50.4607 128.712C50.0287 128.464 49.6847 128.1 49.4287 127.62C49.1807 127.14 49.0567 126.54 49.0567 125.82C49.0567 125.1 49.1847 124.5 49.4407 124.02C49.7047 123.54 50.0527 123.18 50.4847 122.94C50.9247 122.7 51.4087 122.58 51.9367 122.58C52.5607 122.58 53.1127 122.716 53.5927 122.988C54.0727 123.26 54.4527 123.64 54.7327 124.128C55.0127 124.608 55.1527 125.172 55.1527 125.82C55.1527 126.468 55.0127 127.036 54.7327 127.524C54.4527 128.012 54.0727 128.392 53.5927 128.664C53.1127 128.936 52.5607 129.072 51.9367 129.072ZM48.5647 129V120.096H49.7167V124.332L49.5967 125.808L49.6687 127.284V129H48.5647ZM51.8407 128.064C52.2487 128.064 52.6127 127.972 52.9327 127.788C53.2607 127.604 53.5167 127.344 53.7007 127.008C53.8927 126.664 53.9887 126.268 53.9887 125.82C53.9887 125.364 53.8927 124.972 53.7007 124.644C53.5167 124.308 53.2607 124.048 52.9327 123.864C52.6127 123.68 52.2487 123.588 51.8407 123.588C51.4407 123.588 51.0767 123.68 50.7487 123.864C50.4287 124.048 50.1727 124.308 49.9807 124.644C49.7967 124.972 49.7047 125.364 49.7047 125.82C49.7047 126.268 49.7967 126.664 49.9807 127.008C50.1727 127.344 50.4287 127.604 50.7487 127.788C51.0767 127.972 51.4407 128.064 51.8407 128.064ZM56.7443 129V122.64H57.8483V124.368L57.7403 123.936C57.9163 123.496 58.2123 123.16 58.6283 122.928C59.0443 122.696 59.5563 122.58 60.1643 122.58V123.696C60.1163 123.688 60.0683 123.684 60.0203 123.684C59.9803 123.684 59.9403 123.684 59.9003 123.684C59.2843 123.684 58.7963 123.868 58.4363 124.236C58.0763 124.604 57.8963 125.136 57.8963 125.832V129H56.7443ZM64.3576 129.072C63.6776 129.072 63.0776 128.932 62.5576 128.652C62.0456 128.372 61.6456 127.988 61.3576 127.5C61.0776 127.012 60.9376 126.452 60.9376 125.82C60.9376 125.188 61.0736 124.628 61.3456 124.14C61.6256 123.652 62.0056 123.272 62.4856 123C62.9736 122.72 63.5216 122.58 64.1296 122.58C64.7456 122.58 65.2896 122.716 65.7616 122.988C66.2336 123.26 66.6016 123.644 66.8656 124.14C67.1376 124.628 67.2736 125.2 67.2736 125.856C67.2736 125.904 67.2696 125.96 67.2616 126.024C67.2616 126.088 67.2576 126.148 67.2496 126.204H61.8376V125.376H66.6496L66.1816 125.664C66.1896 125.256 66.1056 124.892 65.9296 124.572C65.7536 124.252 65.5096 124.004 65.1976 123.828C64.8936 123.644 64.5376 123.552 64.1296 123.552C63.7296 123.552 63.3736 123.644 63.0616 123.828C62.7496 124.004 62.5056 124.256 62.3296 124.584C62.1536 124.904 62.0656 125.272 62.0656 125.688V125.88C62.0656 126.304 62.1616 126.684 62.3536 127.02C62.5536 127.348 62.8296 127.604 63.1816 127.788C63.5336 127.972 63.9376 128.064 64.3936 128.064C64.7696 128.064 65.1096 128 65.4136 127.872C65.7256 127.744 65.9976 127.552 66.2296 127.296L66.8656 128.04C66.5776 128.376 66.2176 128.632 65.7856 128.808C65.3616 128.984 64.8856 129.072 64.3576 129.072ZM74.9279 129.072C74.2479 129.072 73.6479 128.932 73.1279 128.652C72.6159 128.372 72.2159 127.988 71.9279 127.5C71.6479 127.012 71.5079 126.452 71.5079 125.82C71.5079 125.188 71.6439 124.628 71.9159 124.14C72.1959 123.652 72.5759 123.272 73.0559 123C73.5439 122.72 74.0919 122.58 74.6999 122.58C75.3159 122.58 75.8599 122.716 76.3319 122.988C76.8039 123.26 77.1719 123.644 77.4359 124.14C77.7079 124.628 77.8439 125.2 77.8439 125.856C77.8439 125.904 77.8399 125.96 77.8319 126.024C77.8319 126.088 77.8279 126.148 77.8199 126.204H72.4079V125.376H77.2199L76.7519 125.664C76.7599 125.256 76.6759 124.892 76.4999 124.572C76.3239 124.252 76.0799 124.004 75.7679 123.828C75.4639 123.644 75.1079 123.552 74.6999 123.552C74.2999 123.552 73.9439 123.644 73.6319 123.828C73.3199 124.004 73.0759 124.256 72.8999 124.584C72.7239 124.904 72.6359 125.272 72.6359 125.688V125.88C72.6359 126.304 72.7319 126.684 72.9239 127.02C73.1239 127.348 73.3999 127.604 73.7519 127.788C74.1039 127.972 74.5079 128.064 74.9639 128.064C75.3399 128.064 75.6799 128 75.9839 127.872C76.2959 127.744 76.5679 127.552 76.7999 127.296L77.4359 128.04C77.1479 128.376 76.7879 128.632 76.3559 128.808C75.9319 128.984 75.4559 129.072 74.9279 129.072ZM85.2942 129.072C84.6782 129.072 84.1262 128.936 83.6382 128.664C83.1582 128.392 82.7782 128.012 82.4982 127.524C82.2182 127.036 82.0782 126.468 82.0782 125.82C82.0782 125.172 82.2182 124.608 82.4982 124.128C82.7782 123.64 83.1582 123.26 83.6382 122.988C84.1262 122.716 84.6782 122.58 85.2942 122.58C85.8302 122.58 86.3142 122.7 86.7462 122.94C87.1782 123.18 87.5222 123.54 87.7782 124.02C88.0422 124.5 88.1742 125.1 88.1742 125.82C88.1742 126.54 88.0462 127.14 87.7902 127.62C87.5422 128.1 87.2022 128.464 86.7702 128.712C86.3382 128.952 85.8462 129.072 85.2942 129.072ZM85.3902 128.064C85.7902 128.064 86.1502 127.972 86.4702 127.788C86.7982 127.604 87.0542 127.344 87.2382 127.008C87.4302 126.664 87.5262 126.268 87.5262 125.82C87.5262 125.364 87.4302 124.972 87.2382 124.644C87.0542 124.308 86.7982 124.048 86.4702 123.864C86.1502 123.68 85.7902 123.588 85.3902 123.588C84.9822 123.588 84.6182 123.68 84.2982 123.864C83.9782 124.048 83.7222 124.308 83.5302 124.644C83.3382 124.972 83.2422 125.364 83.2422 125.82C83.2422 126.268 83.3382 126.664 83.5302 127.008C83.7222 127.344 83.9782 127.604 84.2982 127.788C84.6182 127.972 84.9822 128.064 85.3902 128.064ZM87.5622 129V127.284L87.6342 125.808L87.5142 124.332V120.096H88.6662V129H87.5622ZM93.6779 129.072C92.9979 129.072 92.3979 128.932 91.8779 128.652C91.3659 128.372 90.9659 127.988 90.6779 127.5C90.3979 127.012 90.2579 126.452 90.2579 125.82C90.2579 125.188 90.3939 124.628 90.6659 124.14C90.9459 123.652 91.3259 123.272 91.8059 123C92.2939 122.72 92.8419 122.58 93.4499 122.58C94.0659 122.58 94.6099 122.716 95.0819 122.988C95.5539 123.26 95.9219 123.644 96.1859 124.14C96.4579 124.628 96.5939 125.2 96.5939 125.856C96.5939 125.904 96.5899 125.96 96.5819 126.024C96.5819 126.088 96.5779 126.148 96.5699 126.204H91.1579V125.376H95.9699L95.5019 125.664C95.5099 125.256 95.4259 124.892 95.2499 124.572C95.0739 124.252 94.8299 124.004 94.5179 123.828C94.2139 123.644 93.8579 123.552 93.4499 123.552C93.0499 123.552 92.6939 123.644 92.3819 123.828C92.0699 124.004 91.8259 124.256 91.6499 124.584C91.4739 124.904 91.3859 125.272 91.3859 125.688V125.88C91.3859 126.304 91.4819 126.684 91.6739 127.02C91.8739 127.348 92.1499 127.604 92.5019 127.788C92.8539 127.972 93.2579 128.064 93.7139 128.064C94.0899 128.064 94.4299 128 94.7339 127.872C95.0459 127.744 95.3179 127.552 95.5499 127.296L96.1859 128.04C95.8979 128.376 95.5379 128.632 95.1059 128.808C94.6819 128.984 94.2059 129.072 93.6779 129.072ZM100.018 129.072C99.4896 129.072 98.9856 129 98.5056 128.856C98.0336 128.712 97.6616 128.536 97.3896 128.328L97.8696 127.416C98.1416 127.6 98.4776 127.756 98.8776 127.884C99.2776 128.012 99.6856 128.076 100.102 128.076C100.638 128.076 101.022 128 101.254 127.848C101.494 127.696 101.614 127.484 101.614 127.212C101.614 127.012 101.542 126.856 101.398 126.744C101.254 126.632 101.062 126.548 100.822 126.492C100.59 126.436 100.33 126.388 100.042 126.348C99.7536 126.3 99.4656 126.244 99.1776 126.18C98.8896 126.108 98.6256 126.012 98.3856 125.892C98.1456 125.764 97.9536 125.592 97.8096 125.376C97.6656 125.152 97.5936 124.856 97.5936 124.488C97.5936 124.104 97.7016 123.768 97.9176 123.48C98.1336 123.192 98.4376 122.972 98.8296 122.82C99.2296 122.66 99.7016 122.58 100.246 122.58C100.662 122.58 101.082 122.632 101.506 122.736C101.938 122.832 102.29 122.972 102.562 123.156L102.07 124.068C101.782 123.876 101.482 123.744 101.17 123.672C100.858 123.6 100.546 123.564 100.234 123.564C99.7296 123.564 99.3536 123.648 99.1056 123.816C98.8576 123.976 98.7336 124.184 98.7336 124.44C98.7336 124.656 98.8056 124.824 98.9496 124.944C99.1016 125.056 99.2936 125.144 99.5256 125.208C99.7656 125.272 100.03 125.328 100.318 125.376C100.606 125.416 100.894 125.472 101.182 125.544C101.47 125.608 101.73 125.7 101.962 125.82C102.202 125.94 102.394 126.108 102.538 126.324C102.69 126.54 102.766 126.828 102.766 127.188C102.766 127.572 102.654 127.904 102.43 128.184C102.206 128.464 101.89 128.684 101.482 128.844C101.074 128.996 100.586 129.072 100.018 129.072ZM106.833 129.072C106.217 129.072 105.665 128.936 105.177 128.664C104.697 128.392 104.317 128.012 104.037 127.524C103.757 127.036 103.617 126.468 103.617 125.82C103.617 125.172 103.757 124.608 104.037 124.128C104.317 123.64 104.697 123.26 105.177 122.988C105.665 122.716 106.217 122.58 106.833 122.58C107.369 122.58 107.853 122.7 108.285 122.94C108.717 123.18 109.061 123.54 109.317 124.02C109.581 124.5 109.713 125.1 109.713 125.82C109.713 126.54 109.585 127.14 109.329 127.62C109.081 128.1 108.741 128.464 108.309 128.712C107.877 128.952 107.385 129.072 106.833 129.072ZM106.929 128.064C107.329 128.064 107.689 127.972 108.009 127.788C108.337 127.604 108.593 127.344 108.777 127.008C108.969 126.664 109.065 126.268 109.065 125.82C109.065 125.364 108.969 124.972 108.777 124.644C108.593 124.308 108.337 124.048 108.009 123.864C107.689 123.68 107.329 123.588 106.929 123.588C106.521 123.588 106.157 123.68 105.837 123.864C105.517 124.048 105.261 124.308 105.069 124.644C104.877 124.972 104.781 125.364 104.781 125.82C104.781 126.268 104.877 126.664 105.069 127.008C105.261 127.344 105.517 127.604 105.837 127.788C106.157 127.972 106.521 128.064 106.929 128.064ZM109.101 129V127.284L109.173 125.808L109.053 124.332V120.096H110.205V129H109.101ZM115.109 129.072C114.469 129.072 113.901 128.932 113.405 128.652C112.909 128.372 112.517 127.988 112.229 127.5C111.941 127.004 111.797 126.444 111.797 125.82C111.797 125.188 111.941 124.628 112.229 124.14C112.517 123.652 112.909 123.272 113.405 123C113.901 122.72 114.469 122.58 115.109 122.58C115.741 122.58 116.305 122.72 116.801 123C117.305 123.272 117.697 123.652 117.977 124.14C118.265 124.62 118.409 125.18 118.409 125.82C118.409 126.452 118.265 127.012 117.977 127.5C117.697 127.988 117.305 128.372 116.801 128.652C116.305 128.932 115.741 129.072 115.109 129.072ZM115.109 128.064C115.517 128.064 115.881 127.972 116.201 127.788C116.529 127.604 116.785 127.344 116.969 127.008C117.153 126.664 117.245 126.268 117.245 125.82C117.245 125.364 117.153 124.972 116.969 124.644C116.785 124.308 116.529 124.048 116.201 123.864C115.881 123.68 115.517 123.588 115.109 123.588C114.701 123.588 114.337 123.68 114.017 123.864C113.697 124.048 113.441 124.308 113.249 124.644C113.057 124.972 112.961 125.364 112.961 125.82C112.961 126.268 113.057 126.664 113.249 127.008C113.441 127.344 113.697 127.604 114.017 127.788C114.337 127.972 114.701 128.064 115.109 128.064ZM123.374 129.072C122.83 129.072 122.338 128.952 121.898 128.712C121.466 128.464 121.122 128.1 120.866 127.62C120.618 127.14 120.494 126.54 120.494 125.82C120.494 125.1 120.622 124.5 120.878 124.02C121.142 123.54 121.49 123.18 121.922 122.94C122.362 122.7 122.846 122.58 123.374 122.58C123.998 122.58 124.55 122.716 125.03 122.988C125.51 123.26 125.89 123.64 126.17 124.128C126.45 124.608 126.59 125.172 126.59 125.82C126.59 126.468 126.45 127.036 126.17 127.524C125.89 128.012 125.51 128.392 125.03 128.664C124.55 128.936 123.998 129.072 123.374 129.072ZM120.002 129V120.096H121.154V124.332L121.034 125.808L121.106 127.284V129H120.002ZM123.278 128.064C123.686 128.064 124.05 127.972 124.37 127.788C124.698 127.604 124.954 127.344 125.138 127.008C125.33 126.664 125.426 126.268 125.426 125.82C125.426 125.364 125.33 124.972 125.138 124.644C124.954 124.308 124.698 124.048 124.37 123.864C124.05 123.68 123.686 123.588 123.278 123.588C122.878 123.588 122.514 123.68 122.186 123.864C121.866 124.048 121.61 124.308 121.418 124.644C121.234 124.972 121.142 125.364 121.142 125.82C121.142 126.268 121.234 126.664 121.418 127.008C121.61 127.344 121.866 127.604 122.186 127.788C122.514 127.972 122.878 128.064 123.278 128.064ZM128.182 129V122.64H129.286V124.368L129.178 123.936C129.354 123.496 129.65 123.16 130.066 122.928C130.482 122.696 130.994 122.58 131.602 122.58V123.696C131.554 123.688 131.506 123.684 131.458 123.684C131.418 123.684 131.378 123.684 131.338 123.684C130.722 123.684 130.234 123.868 129.874 124.236C129.514 124.604 129.334 125.136 129.334 125.832V129H128.182ZM135.795 129.072C135.115 129.072 134.515 128.932 133.995 128.652C133.483 128.372 133.083 127.988 132.795 127.5C132.515 127.012 132.375 126.452 132.375 125.82C132.375 125.188 132.511 124.628 132.783 124.14C133.063 123.652 133.443 123.272 133.923 123C134.411 122.72 134.959 122.58 135.567 122.58C136.183 122.58 136.727 122.716 137.199 122.988C137.671 123.26 138.039 123.644 138.303 124.14C138.575 124.628 138.711 125.2 138.711 125.856C138.711 125.904 138.707 125.96 138.699 126.024C138.699 126.088 138.695 126.148 138.687 126.204H133.275V125.376H138.087L137.619 125.664C137.627 125.256 137.543 124.892 137.367 124.572C137.191 124.252 136.947 124.004 136.635 123.828C136.331 123.644 135.975 123.552 135.567 123.552C135.167 123.552 134.811 123.644 134.499 123.828C134.187 124.004 133.943 124.256 133.767 124.584C133.591 124.904 133.503 125.272 133.503 125.688V125.88C133.503 126.304 133.599 126.684 133.791 127.02C133.991 127.348 134.267 127.604 134.619 127.788C134.971 127.972 135.375 128.064 135.831 128.064C136.207 128.064 136.547 128 136.851 127.872C137.163 127.744 137.435 127.552 137.667 127.296L138.303 128.04C138.015 128.376 137.655 128.632 137.223 128.808C136.799 128.984 136.323 129.072 135.795 129.072ZM146.257 129.072C145.617 129.072 145.049 128.932 144.553 128.652C144.057 128.372 143.665 127.988 143.377 127.5C143.089 127.004 142.945 126.444 142.945 125.82C142.945 125.188 143.089 124.628 143.377 124.14C143.665 123.652 144.057 123.272 144.553 123C145.049 122.72 145.617 122.58 146.257 122.58C146.889 122.58 147.453 122.72 147.949 123C148.453 123.272 148.845 123.652 149.125 124.14C149.413 124.62 149.557 125.18 149.557 125.82C149.557 126.452 149.413 127.012 149.125 127.5C148.845 127.988 148.453 128.372 147.949 128.652C147.453 128.932 146.889 129.072 146.257 129.072ZM146.257 128.064C146.665 128.064 147.029 127.972 147.349 127.788C147.677 127.604 147.933 127.344 148.117 127.008C148.301 126.664 148.393 126.268 148.393 125.82C148.393 125.364 148.301 124.972 148.117 124.644C147.933 124.308 147.677 124.048 147.349 123.864C147.029 123.68 146.665 123.588 146.257 123.588C145.849 123.588 145.485 123.68 145.165 123.864C144.845 124.048 144.589 124.308 144.397 124.644C144.205 124.972 144.109 125.364 144.109 125.82C144.109 126.268 144.205 126.664 144.397 127.008C144.589 127.344 144.845 127.604 145.165 127.788C145.485 127.972 145.849 128.064 146.257 128.064ZM33.3976 144.072C32.8696 144.072 32.3856 143.952 31.9456 143.712C31.5136 143.464 31.1656 143.1 30.9016 142.62C30.6456 142.14 30.5176 141.54 30.5176 140.82C30.5176 140.1 30.6416 139.5 30.8896 139.02C31.1456 138.54 31.4896 138.18 31.9216 137.94C32.3616 137.7 32.8536 137.58 33.3976 137.58C34.0216 137.58 34.5736 137.716 35.0536 137.988C35.5336 138.26 35.9136 138.64 36.1936 139.128C36.4736 139.608 36.6136 140.172 36.6136 140.82C36.6136 141.468 36.4736 142.036 36.1936 142.524C35.9136 143.012 35.5336 143.392 35.0536 143.664C34.5736 143.936 34.0216 144.072 33.3976 144.072ZM30.0256 146.328V137.64H31.1296V139.356L31.0576 140.832L31.1776 142.308V146.328H30.0256ZM33.3016 143.064C33.7096 143.064 34.0736 142.972 34.3936 142.788C34.7216 142.604 34.9776 142.344 35.1616 142.008C35.3536 141.664 35.4496 141.268 35.4496 140.82C35.4496 140.364 35.3536 139.972 35.1616 139.644C34.9776 139.308 34.7216 139.048 34.3936 138.864C34.0736 138.68 33.7096 138.588 33.3016 138.588C32.9016 138.588 32.5376 138.68 32.2096 138.864C31.8896 139.048 31.6336 139.308 31.4416 139.644C31.2576 139.972 31.1656 140.364 31.1656 140.82C31.1656 141.268 31.2576 141.664 31.4416 142.008C31.6336 142.344 31.8896 142.604 32.2096 142.788C32.5376 142.972 32.9016 143.064 33.3016 143.064ZM42.0947 144V142.656L42.0347 142.404V140.112C42.0347 139.624 41.8907 139.248 41.6027 138.984C41.3227 138.712 40.8987 138.576 40.3307 138.576C39.9547 138.576 39.5867 138.64 39.2267 138.768C38.8667 138.888 38.5627 139.052 38.3147 139.26L37.8347 138.396C38.1627 138.132 38.5547 137.932 39.0107 137.796C39.4747 137.652 39.9587 137.58 40.4627 137.58C41.3347 137.58 42.0067 137.792 42.4787 138.216C42.9507 138.64 43.1867 139.288 43.1867 140.16V144H42.0947ZM40.0067 144.072C39.5347 144.072 39.1187 143.992 38.7587 143.832C38.4067 143.672 38.1347 143.452 37.9427 143.172C37.7507 142.884 37.6547 142.56 37.6547 142.2C37.6547 141.856 37.7347 141.544 37.8947 141.264C38.0627 140.984 38.3307 140.76 38.6987 140.592C39.0747 140.424 39.5787 140.34 40.2107 140.34H42.2267V141.168H40.2587C39.6827 141.168 39.2947 141.264 39.0947 141.456C38.8947 141.648 38.7947 141.88 38.7947 142.152C38.7947 142.464 38.9187 142.716 39.1667 142.908C39.4147 143.092 39.7587 143.184 40.1987 143.184C40.6307 143.184 41.0067 143.088 41.3267 142.896C41.6547 142.704 41.8907 142.424 42.0347 142.056L42.2627 142.848C42.1107 143.224 41.8427 143.524 41.4587 143.748C41.0747 143.964 40.5907 144.072 40.0067 144.072ZM48.6906 144.072C48.1626 144.072 47.6786 143.952 47.2386 143.712C46.8066 143.464 46.4586 143.1 46.1946 142.62C45.9386 142.14 45.8106 141.54 45.8106 140.82C45.8106 140.1 45.9346 139.5 46.1826 139.02C46.4386 138.54 46.7826 138.18 47.2146 137.94C47.6546 137.7 48.1466 137.58 48.6906 137.58C49.3146 137.58 49.8666 137.716 50.3466 137.988C50.8266 138.26 51.2066 138.64 51.4866 139.128C51.7666 139.608 51.9066 140.172 51.9066 140.82C51.9066 141.468 51.7666 142.036 51.4866 142.524C51.2066 143.012 50.8266 143.392 50.3466 143.664C49.8666 143.936 49.3146 144.072 48.6906 144.072ZM45.3186 146.328V137.64H46.4226V139.356L46.3506 140.832L46.4706 142.308V146.328H45.3186ZM48.5946 143.064C49.0026 143.064 49.3666 142.972 49.6866 142.788C50.0146 142.604 50.2706 142.344 50.4546 142.008C50.6466 141.664 50.7426 141.268 50.7426 140.82C50.7426 140.364 50.6466 139.972 50.4546 139.644C50.2706 139.308 50.0146 139.048 49.6866 138.864C49.3666 138.68 49.0026 138.588 48.5946 138.588C48.1946 138.588 47.8306 138.68 47.5026 138.864C47.1826 139.048 46.9266 139.308 46.7346 139.644C46.5506 139.972 46.4586 140.364 46.4586 140.82C46.4586 141.268 46.5506 141.664 46.7346 142.008C46.9266 142.344 47.1826 142.604 47.5026 142.788C47.8306 142.972 48.1946 143.064 48.5946 143.064ZM56.3303 144.072C55.6503 144.072 55.0503 143.932 54.5303 143.652C54.0183 143.372 53.6183 142.988 53.3303 142.5C53.0503 142.012 52.9103 141.452 52.9103 140.82C52.9103 140.188 53.0463 139.628 53.3183 139.14C53.5983 138.652 53.9783 138.272 54.4583 138C54.9463 137.72 55.4943 137.58 56.1023 137.58C56.7183 137.58 57.2623 137.716 57.7343 137.988C58.2063 138.26 58.5743 138.644 58.8383 139.14C59.1103 139.628 59.2463 140.2 59.2463 140.856C59.2463 140.904 59.2423 140.96 59.2343 141.024C59.2343 141.088 59.2303 141.148 59.2223 141.204H53.8103V140.376H58.6223L58.1543 140.664C58.1623 140.256 58.0783 139.892 57.9023 139.572C57.7263 139.252 57.4823 139.004 57.1703 138.828C56.8663 138.644 56.5103 138.552 56.1023 138.552C55.7023 138.552 55.3463 138.644 55.0343 138.828C54.7223 139.004 54.4783 139.256 54.3023 139.584C54.1263 139.904 54.0383 140.272 54.0383 140.688V140.88C54.0383 141.304 54.1343 141.684 54.3263 142.02C54.5263 142.348 54.8023 142.604 55.1543 142.788C55.5063 142.972 55.9103 143.064 56.3663 143.064C56.7423 143.064 57.0823 143 57.3863 142.872C57.6983 142.744 57.9703 142.552 58.2023 142.296L58.8383 143.04C58.5503 143.376 58.1903 143.632 57.7583 143.808C57.3343 143.984 56.8583 144.072 56.3303 144.072ZM60.8459 144V135.096H61.9979V144H60.8459ZM71.3681 144V142.656L71.3081 142.404V140.112C71.3081 139.624 71.1641 139.248 70.8761 138.984C70.5961 138.712 70.1721 138.576 69.6041 138.576C69.2281 138.576 68.8601 138.64 68.5001 138.768C68.1401 138.888 67.8361 139.052 67.5881 139.26L67.1081 138.396C67.4361 138.132 67.8281 137.932 68.2841 137.796C68.7481 137.652 69.2321 137.58 69.7361 137.58C70.6081 137.58 71.2801 137.792 71.7521 138.216C72.2241 138.64 72.4601 139.288 72.4601 140.16V144H71.3681ZM69.2801 144.072C68.8081 144.072 68.3921 143.992 68.0321 143.832C67.6801 143.672 67.4081 143.452 67.2161 143.172C67.0241 142.884 66.9281 142.56 66.9281 142.2C66.9281 141.856 67.0081 141.544 67.1681 141.264C67.3361 140.984 67.6041 140.76 67.9721 140.592C68.3481 140.424 68.8521 140.34 69.4841 140.34H71.5001V141.168H69.5321C68.9561 141.168 68.5681 141.264 68.3681 141.456C68.1681 141.648 68.0681 141.88 68.0681 142.152C68.0681 142.464 68.1921 142.716 68.4401 142.908C68.6881 143.092 69.0321 143.184 69.4721 143.184C69.9041 143.184 70.2801 143.088 70.6001 142.896C70.9281 142.704 71.1641 142.424 71.3081 142.056L71.5361 142.848C71.3841 143.224 71.1161 143.524 70.7321 143.748C70.3481 143.964 69.8641 144.072 69.2801 144.072ZM77.316 144.072C76.676 144.072 76.108 143.932 75.612 143.652C75.116 143.372 74.724 142.988 74.436 142.5C74.148 142.004 74.004 141.444 74.004 140.82C74.004 140.188 74.148 139.628 74.436 139.14C74.724 138.652 75.116 138.272 75.612 138C76.108 137.72 76.676 137.58 77.316 137.58C77.948 137.58 78.512 137.72 79.008 138C79.512 138.272 79.904 138.652 80.184 139.14C80.472 139.62 80.616 140.18 80.616 140.82C80.616 141.452 80.472 142.012 80.184 142.5C79.904 142.988 79.512 143.372 79.008 143.652C78.512 143.932 77.948 144.072 77.316 144.072ZM77.316 143.064C77.724 143.064 78.088 142.972 78.408 142.788C78.736 142.604 78.992 142.344 79.176 142.008C79.36 141.664 79.452 141.268 79.452 140.82C79.452 140.364 79.36 139.972 79.176 139.644C78.992 139.308 78.736 139.048 78.408 138.864C78.088 138.68 77.724 138.588 77.316 138.588C76.908 138.588 76.544 138.68 76.224 138.864C75.904 139.048 75.648 139.308 75.456 139.644C75.264 139.972 75.168 140.364 75.168 140.82C75.168 141.268 75.264 141.664 75.456 142.008C75.648 142.344 75.904 142.604 76.224 142.788C76.544 142.972 76.908 143.064 77.316 143.064ZM93.3878 137.58C93.8998 137.58 94.3518 137.68 94.7438 137.88C95.1358 138.08 95.4398 138.384 95.6558 138.792C95.8798 139.2 95.9918 139.716 95.9918 140.34V144H94.8398V140.472C94.8398 139.856 94.6958 139.392 94.4078 139.08C94.1198 138.768 93.7158 138.612 93.1958 138.612C92.8118 138.612 92.4758 138.692 92.1878 138.852C91.8998 139.012 91.6758 139.248 91.5158 139.56C91.3638 139.872 91.2878 140.26 91.2878 140.724V144H90.1358V140.472C90.1358 139.856 89.9918 139.392 89.7038 139.08C89.4238 138.768 89.0198 138.612 88.4918 138.612C88.1158 138.612 87.7838 138.692 87.4958 138.852C87.2078 139.012 86.9838 139.248 86.8238 139.56C86.6638 139.872 86.5838 140.26 86.5838 140.724V144H85.4318V137.64H86.5358V139.332L86.3558 138.9C86.5558 138.484 86.8638 138.16 87.2798 137.928C87.6958 137.696 88.1798 137.58 88.7318 137.58C89.3398 137.58 89.8638 137.732 90.3038 138.036C90.7438 138.332 91.0318 138.784 91.1678 139.392L90.6998 139.2C90.8918 138.712 91.2278 138.32 91.7078 138.024C92.1878 137.728 92.7478 137.58 93.3878 137.58ZM100.944 144.072C100.264 144.072 99.6635 143.932 99.1435 143.652C98.6315 143.372 98.2315 142.988 97.9435 142.5C97.6635 142.012 97.5235 141.452 97.5235 140.82C97.5235 140.188 97.6595 139.628 97.9315 139.14C98.2115 138.652 98.5915 138.272 99.0715 138C99.5595 137.72 100.108 137.58 100.716 137.58C101.332 137.58 101.876 137.716 102.348 137.988C102.82 138.26 103.188 138.644 103.452 139.14C103.724 139.628 103.86 140.2 103.86 140.856C103.86 140.904 103.856 140.96 103.848 141.024C103.848 141.088 103.844 141.148 103.836 141.204H98.4235V140.376H103.236L102.768 140.664C102.776 140.256 102.692 139.892 102.516 139.572C102.34 139.252 102.096 139.004 101.784 138.828C101.48 138.644 101.124 138.552 100.716 138.552C100.316 138.552 99.9595 138.644 99.6475 138.828C99.3355 139.004 99.0915 139.256 98.9155 139.584C98.7395 139.904 98.6515 140.272 98.6515 140.688V140.88C98.6515 141.304 98.7475 141.684 98.9395 142.02C99.1395 142.348 99.4155 142.604 99.7675 142.788C100.12 142.972 100.524 143.064 100.98 143.064C101.356 143.064 101.696 143 102 142.872C102.312 142.744 102.584 142.552 102.816 142.296L103.452 143.04C103.164 143.376 102.804 143.632 102.372 143.808C101.948 143.984 101.472 144.072 100.944 144.072ZM105.459 144V137.64H106.611V144H105.459ZM106.035 136.416C105.811 136.416 105.623 136.344 105.471 136.2C105.327 136.056 105.255 135.88 105.255 135.672C105.255 135.456 105.327 135.276 105.471 135.132C105.623 134.988 105.811 134.916 106.035 134.916C106.259 134.916 106.443 134.988 106.587 135.132C106.739 135.268 106.815 135.44 106.815 135.648C106.815 135.864 106.743 136.048 106.599 136.2C106.455 136.344 106.267 136.416 106.035 136.416ZM111.535 144.072C110.895 144.072 110.327 143.932 109.831 143.652C109.335 143.372 108.943 142.988 108.655 142.5C108.367 142.004 108.223 141.444 108.223 140.82C108.223 140.188 108.367 139.628 108.655 139.14C108.943 138.652 109.335 138.272 109.831 138C110.327 137.72 110.895 137.58 111.535 137.58C112.167 137.58 112.731 137.72 113.227 138C113.731 138.272 114.123 138.652 114.403 139.14C114.691 139.62 114.835 140.18 114.835 140.82C114.835 141.452 114.691 142.012 114.403 142.5C114.123 142.988 113.731 143.372 113.227 143.652C112.731 143.932 112.167 144.072 111.535 144.072ZM111.535 143.064C111.943 143.064 112.307 142.972 112.627 142.788C112.955 142.604 113.211 142.344 113.395 142.008C113.579 141.664 113.671 141.268 113.671 140.82C113.671 140.364 113.579 139.972 113.395 139.644C113.211 139.308 112.955 139.048 112.627 138.864C112.307 138.68 111.943 138.588 111.535 138.588C111.127 138.588 110.763 138.68 110.443 138.864C110.123 139.048 109.867 139.308 109.675 139.644C109.483 139.972 109.387 140.364 109.387 140.82C109.387 141.268 109.483 141.664 109.675 142.008C109.867 142.344 110.123 142.604 110.443 142.788C110.763 142.972 111.127 143.064 111.535 143.064ZM123.023 144.072C122.495 144.072 122.011 143.952 121.571 143.712C121.139 143.464 120.791 143.1 120.527 142.62C120.271 142.14 120.143 141.54 120.143 140.82C120.143 140.1 120.267 139.5 120.515 139.02C120.771 138.54 121.115 138.18 121.547 137.94C121.987 137.7 122.479 137.58 123.023 137.58C123.647 137.58 124.199 137.716 124.679 137.988C125.159 138.26 125.539 138.64 125.819 139.128C126.099 139.608 126.239 140.172 126.239 140.82C126.239 141.468 126.099 142.036 125.819 142.524C125.539 143.012 125.159 143.392 124.679 143.664C124.199 143.936 123.647 144.072 123.023 144.072ZM119.651 146.328V137.64H120.755V139.356L120.683 140.832L120.803 142.308V146.328H119.651ZM122.927 143.064C123.335 143.064 123.699 142.972 124.019 142.788C124.347 142.604 124.603 142.344 124.787 142.008C124.979 141.664 125.075 141.268 125.075 140.82C125.075 140.364 124.979 139.972 124.787 139.644C124.603 139.308 124.347 139.048 124.019 138.864C123.699 138.68 123.335 138.588 122.927 138.588C122.527 138.588 122.163 138.68 121.835 138.864C121.515 139.048 121.259 139.308 121.067 139.644C120.883 139.972 120.791 140.364 120.791 140.82C120.791 141.268 120.883 141.664 121.067 142.008C121.259 142.344 121.515 142.604 121.835 142.788C122.163 142.972 122.527 143.064 122.927 143.064ZM130.662 144.072C129.982 144.072 129.382 143.932 128.862 143.652C128.35 143.372 127.95 142.988 127.662 142.5C127.382 142.012 127.242 141.452 127.242 140.82C127.242 140.188 127.378 139.628 127.65 139.14C127.93 138.652 128.31 138.272 128.79 138C129.278 137.72 129.826 137.58 130.434 137.58C131.05 137.58 131.594 137.716 132.066 137.988C132.538 138.26 132.906 138.644 133.17 139.14C133.442 139.628 133.578 140.2 133.578 140.856C133.578 140.904 133.574 140.96 133.566 141.024C133.566 141.088 133.562 141.148 133.554 141.204H128.142V140.376H132.954L132.486 140.664C132.494 140.256 132.41 139.892 132.234 139.572C132.058 139.252 131.814 139.004 131.502 138.828C131.198 138.644 130.842 138.552 130.434 138.552C130.034 138.552 129.678 138.644 129.366 138.828C129.054 139.004 128.81 139.256 128.634 139.584C128.458 139.904 128.37 140.272 128.37 140.688V140.88C128.37 141.304 128.466 141.684 128.658 142.02C128.858 142.348 129.134 142.604 129.486 142.788C129.838 142.972 130.242 143.064 130.698 143.064C131.074 143.064 131.414 143 131.718 142.872C132.03 142.744 132.302 142.552 132.534 142.296L133.17 143.04C132.882 143.376 132.522 143.632 132.09 143.808C131.666 143.984 131.19 144.072 130.662 144.072ZM135.178 144V135.096H136.33V144H135.178ZM141.254 144.072C140.614 144.072 140.046 143.932 139.55 143.652C139.054 143.372 138.662 142.988 138.374 142.5C138.086 142.004 137.942 141.444 137.942 140.82C137.942 140.188 138.086 139.628 138.374 139.14C138.662 138.652 139.054 138.272 139.55 138C140.046 137.72 140.614 137.58 141.254 137.58C141.886 137.58 142.45 137.72 142.946 138C143.45 138.272 143.842 138.652 144.122 139.14C144.41 139.62 144.554 140.18 144.554 140.82C144.554 141.452 144.41 142.012 144.122 142.5C143.842 142.988 143.45 143.372 142.946 143.652C142.45 143.932 141.886 144.072 141.254 144.072ZM141.254 143.064C141.662 143.064 142.026 142.972 142.346 142.788C142.674 142.604 142.93 142.344 143.114 142.008C143.298 141.664 143.39 141.268 143.39 140.82C143.39 140.364 143.298 139.972 143.114 139.644C142.93 139.308 142.674 139.048 142.346 138.864C142.026 138.68 141.662 138.588 141.254 138.588C140.846 138.588 140.482 138.68 140.162 138.864C139.842 139.048 139.586 139.308 139.394 139.644C139.202 139.972 139.106 140.364 139.106 140.82C139.106 141.268 139.202 141.664 139.394 142.008C139.586 142.344 139.842 142.604 140.162 142.788C140.482 142.972 140.846 143.064 141.254 143.064ZM147.971 144.072C147.443 144.072 146.939 144 146.459 143.856C145.987 143.712 145.615 143.536 145.343 143.328L145.823 142.416C146.095 142.6 146.431 142.756 146.831 142.884C147.231 143.012 147.639 143.076 148.055 143.076C148.591 143.076 148.975 143 149.207 142.848C149.447 142.696 149.567 142.484 149.567 142.212C149.567 142.012 149.495 141.856 149.351 141.744C149.207 141.632 149.015 141.548 148.775 141.492C148.543 141.436 148.283 141.388 147.995 141.348C147.707 141.3 147.419 141.244 147.131 141.18C146.843 141.108 146.579 141.012 146.339 140.892C146.099 140.764 145.907 140.592 145.763 140.376C145.619 140.152 145.547 139.856 145.547 139.488C145.547 139.104 145.655 138.768 145.871 138.48C146.087 138.192 146.391 137.972 146.783 137.82C147.183 137.66 147.655 137.58 148.199 137.58C148.615 137.58 149.035 137.632 149.459 137.736C149.891 137.832 150.243 137.972 150.515 138.156L150.023 139.068C149.735 138.876 149.435 138.744 149.123 138.672C148.811 138.6 148.499 138.564 148.187 138.564C147.683 138.564 147.307 138.648 147.059 138.816C146.811 138.976 146.687 139.184 146.687 139.44C146.687 139.656 146.759 139.824 146.903 139.944C147.055 140.056 147.247 140.144 147.479 140.208C147.719 140.272 147.983 140.328 148.271 140.376C148.559 140.416 148.847 140.472 149.135 140.544C149.423 140.608 149.683 140.7 149.915 140.82C150.155 140.94 150.347 141.108 150.491 141.324C150.643 141.54 150.719 141.828 150.719 142.188C150.719 142.572 150.607 142.904 150.383 143.184C150.159 143.464 149.843 143.684 149.435 143.844C149.027 143.996 148.539 144.072 147.971 144.072ZM72.2136 159.072C71.5656 159.072 70.9856 158.932 70.4736 158.652C69.9696 158.372 69.5736 157.988 69.2856 157.5C68.9976 157.012 68.8536 156.452 68.8536 155.82C68.8536 155.188 68.9976 154.628 69.2856 154.14C69.5736 153.652 69.9696 153.272 70.4736 153C70.9856 152.72 71.5656 152.58 72.2136 152.58C72.7896 152.58 73.3016 152.696 73.7496 152.928C74.2056 153.152 74.5576 153.488 74.8056 153.936L73.9296 154.5C73.7216 154.188 73.4656 153.96 73.1616 153.816C72.8656 153.664 72.5456 153.588 72.2016 153.588C71.7856 153.588 71.4136 153.68 71.0856 153.864C70.7576 154.048 70.4976 154.308 70.3056 154.644C70.1136 154.972 70.0176 155.364 70.0176 155.82C70.0176 156.276 70.1136 156.672 70.3056 157.008C70.4976 157.344 70.7576 157.604 71.0856 157.788C71.4136 157.972 71.7856 158.064 72.2016 158.064C72.5456 158.064 72.8656 157.992 73.1616 157.848C73.4656 157.696 73.7216 157.464 73.9296 157.152L74.8056 157.704C74.5576 158.144 74.2056 158.484 73.7496 158.724C73.3016 158.956 72.7896 159.072 72.2136 159.072ZM80.2451 159V157.656L80.1851 157.404V155.112C80.1851 154.624 80.0411 154.248 79.7531 153.984C79.4731 153.712 79.0491 153.576 78.4811 153.576C78.1051 153.576 77.7371 153.64 77.3771 153.768C77.0171 153.888 76.7131 154.052 76.4651 154.26L75.9851 153.396C76.3131 153.132 76.7051 152.932 77.1611 152.796C77.6251 152.652 78.1091 152.58 78.6131 152.58C79.4851 152.58 80.1571 152.792 80.6291 153.216C81.1011 153.64 81.3371 154.288 81.3371 155.16V159H80.2451ZM78.1571 159.072C77.6851 159.072 77.2691 158.992 76.9091 158.832C76.5571 158.672 76.2851 158.452 76.0931 158.172C75.9011 157.884 75.8051 157.56 75.8051 157.2C75.8051 156.856 75.8851 156.544 76.0451 156.264C76.2131 155.984 76.4811 155.76 76.8491 155.592C77.2251 155.424 77.7291 155.34 78.3611 155.34H80.3771V156.168H78.4091C77.8331 156.168 77.4451 156.264 77.2451 156.456C77.0451 156.648 76.9451 156.88 76.9451 157.152C76.9451 157.464 77.0691 157.716 77.3171 157.908C77.5651 158.092 77.9091 158.184 78.3491 158.184C78.7811 158.184 79.1571 158.088 79.4771 157.896C79.8051 157.704 80.0411 157.424 80.1851 157.056L80.4131 157.848C80.2611 158.224 79.9931 158.524 79.6091 158.748C79.2251 158.964 78.7411 159.072 78.1571 159.072ZM86.865 152.58C87.385 152.58 87.841 152.68 88.233 152.88C88.633 153.08 88.945 153.384 89.169 153.792C89.393 154.2 89.505 154.716 89.505 155.34V159H88.353V155.472C88.353 154.856 88.201 154.392 87.897 154.08C87.601 153.768 87.181 153.612 86.637 153.612C86.229 153.612 85.873 153.692 85.569 153.852C85.265 154.012 85.029 154.248 84.861 154.56C84.701 154.872 84.621 155.26 84.621 155.724V159H83.469V152.64H84.573V154.356L84.393 153.9C84.601 153.484 84.921 153.16 85.353 152.928C85.785 152.696 86.289 152.58 86.865 152.58ZM93.8209 159.072C93.1809 159.072 92.6849 158.9 92.3329 158.556C91.9809 158.212 91.8049 157.72 91.8049 157.08V151.248H92.9569V157.032C92.9569 157.376 93.0409 157.64 93.2089 157.824C93.3849 158.008 93.6329 158.1 93.9529 158.1C94.3129 158.1 94.6129 158 94.8529 157.8L95.2129 158.628C95.0369 158.78 94.8249 158.892 94.5769 158.964C94.3369 159.036 94.0849 159.072 93.8209 159.072ZM90.7249 153.588V152.64H94.7809V153.588H90.7249ZM99.1187 159.072C98.4787 159.072 97.9107 158.932 97.4147 158.652C96.9187 158.372 96.5267 157.988 96.2387 157.5C95.9507 157.004 95.8067 156.444 95.8067 155.82C95.8067 155.188 95.9507 154.628 96.2387 154.14C96.5267 153.652 96.9187 153.272 97.4147 153C97.9107 152.72 98.4787 152.58 99.1187 152.58C99.7507 152.58 100.315 152.72 100.811 153C101.315 153.272 101.707 153.652 101.987 154.14C102.275 154.62 102.419 155.18 102.419 155.82C102.419 156.452 102.275 157.012 101.987 157.5C101.707 157.988 101.315 158.372 100.811 158.652C100.315 158.932 99.7507 159.072 99.1187 159.072ZM99.1187 158.064C99.5267 158.064 99.8907 157.972 100.211 157.788C100.539 157.604 100.795 157.344 100.979 157.008C101.163 156.664 101.255 156.268 101.255 155.82C101.255 155.364 101.163 154.972 100.979 154.644C100.795 154.308 100.539 154.048 100.211 153.864C99.8907 153.68 99.5267 153.588 99.1187 153.588C98.7107 153.588 98.3467 153.68 98.0267 153.864C97.7067 154.048 97.4507 154.308 97.2587 154.644C97.0667 154.972 96.9707 155.364 96.9707 155.82C96.9707 156.268 97.0667 156.664 97.2587 157.008C97.4507 157.344 97.7067 157.604 98.0267 157.788C98.3467 157.972 98.7107 158.064 99.1187 158.064ZM105.836 159.072C105.308 159.072 104.804 159 104.324 158.856C103.852 158.712 103.48 158.536 103.208 158.328L103.688 157.416C103.96 157.6 104.296 157.756 104.696 157.884C105.096 158.012 105.504 158.076 105.92 158.076C106.456 158.076 106.84 158 107.072 157.848C107.312 157.696 107.432 157.484 107.432 157.212C107.432 157.012 107.36 156.856 107.216 156.744C107.072 156.632 106.88 156.548 106.64 156.492C106.408 156.436 106.148 156.388 105.86 156.348C105.572 156.3 105.284 156.244 104.996 156.18C104.708 156.108 104.444 156.012 104.204 155.892C103.964 155.764 103.772 155.592 103.628 155.376C103.484 155.152 103.412 154.856 103.412 154.488C103.412 154.104 103.52 153.768 103.736 153.48C103.952 153.192 104.256 152.972 104.648 152.82C105.048 152.66 105.52 152.58 106.064 152.58C106.48 152.58 106.9 152.632 107.324 152.736C107.756 152.832 108.108 152.972 108.38 153.156L107.888 154.068C107.6 153.876 107.3 153.744 106.988 153.672C106.676 153.6 106.364 153.564 106.052 153.564C105.548 153.564 105.172 153.648 104.924 153.816C104.676 153.976 104.552 154.184 104.552 154.44C104.552 154.656 104.624 154.824 104.768 154.944C104.92 155.056 105.112 155.144 105.344 155.208C105.584 155.272 105.848 155.328 106.136 155.376C106.424 155.416 106.712 155.472 107 155.544C107.288 155.608 107.548 155.7 107.78 155.82C108.02 155.94 108.212 156.108 108.356 156.324C108.508 156.54 108.584 156.828 108.584 157.188C108.584 157.572 108.472 157.904 108.248 158.184C108.024 158.464 107.708 158.684 107.3 158.844C106.892 158.996 106.404 159.072 105.836 159.072ZM110.3 159.072C110.076 159.072 109.884 158.996 109.724 158.844C109.564 158.684 109.484 158.484 109.484 158.244C109.484 158.004 109.564 157.808 109.724 157.656C109.884 157.504 110.076 157.428 110.3 157.428C110.516 157.428 110.7 157.504 110.852 157.656C111.012 157.808 111.092 158.004 111.092 158.244C111.092 158.484 111.012 158.684 110.852 158.844C110.7 158.996 110.516 159.072 110.3 159.072Z" fill="#008E86"/>
<rect x="45" y="55" width="63.6396" height="63.6396" transform="rotate(-45 45 55)" fill="#00D8CC" stroke="#00635D" stroke-width="2" stroke-linejoin="round"/>
<path d="M135 55L45 55" stroke="#333333" stroke-width="2" stroke-dasharray="4 6"/>
<path d="M92.9244 95.9531C93.4767 95.9531 93.9244 95.5054 93.9244 94.9531L93.9244 85.9531C93.9244 85.4008 93.4767 84.9531 92.9244 84.9531C92.3721 84.9531 91.9244 85.4008 91.9244 85.9531L91.9244 93.9531L83.9244 93.9531C83.3721 93.9531 82.9244 94.4008 82.9244 94.9531C82.9244 95.5054 83.3721 95.9531 83.9244 95.9531L92.9244 95.9531ZM93.9244 15.6407C93.9244 15.0884 93.4767 14.6407 92.9244 14.6407L83.9244 14.6407C83.3721 14.6407 82.9244 15.0884 82.9244 15.6407C82.9244 16.193 83.3721 16.6407 83.9244 16.6407L91.9244 16.6407L91.9244 24.6407C91.9244 25.193 92.3721 25.6407 92.9244 25.6407C93.4767 25.6407 93.9244 25.193 93.9244 24.6407L93.9244 15.6407ZM93.6315 94.246C82.2026 82.8171 77 69.133 77 55.4629L75 55.4629C75 69.6682 80.4167 83.8596 92.2173 95.6602L93.6315 94.246ZM77 55.4629C77 48.6796 79.1056 40.9406 82.2647 33.8429C85.4235 26.7458 89.5922 20.3871 93.6315 16.3478L92.2173 14.9336C87.9603 19.1906 83.6668 25.7742 80.4375 33.0296C77.2085 40.2844 75 48.3083 75 55.4629L77 55.4629Z" fill="black"/>
</svg>
