<svg width="180" height="180" viewBox="0 0 180 180" fill="none" xmlns="http://www.w3.org/2000/svg">
<rect width="180" height="180" rx="20" fill="#F2F2F2"/>
<path d="M38.1916 137V128.6H41.7316C42.6276 128.6 43.4156 128.776 44.0956 129.128C44.7836 129.48 45.3156 129.972 45.6916 130.604C46.0756 131.236 46.2676 131.968 46.2676 132.8C46.2676 133.632 46.0756 134.364 45.6916 134.996C45.3156 135.628 44.7836 136.12 44.0956 136.472C43.4156 136.824 42.6276 137 41.7316 137H38.1916ZM39.3916 135.956H41.6596C42.3556 135.956 42.9556 135.824 43.4596 135.56C43.9716 135.296 44.3676 134.928 44.6476 134.456C44.9276 133.976 45.0676 133.424 45.0676 132.8C45.0676 132.168 44.9276 131.616 44.6476 131.144C44.3676 130.672 43.9716 130.304 43.4596 130.04C42.9556 129.776 42.3556 129.644 41.6596 129.644H39.3916V135.956ZM50.6617 137.072C50.0217 137.072 49.4537 136.932 48.9577 136.652C48.4617 136.372 48.0697 135.988 47.7817 135.5C47.4937 135.004 47.3497 134.444 47.3497 133.82C47.3497 133.188 47.4937 132.628 47.7817 132.14C48.0697 131.652 48.4617 131.272 48.9577 131C49.4537 130.72 50.0217 130.58 50.6617 130.58C51.2937 130.58 51.8577 130.72 52.3537 131C52.8577 131.272 53.2497 131.652 53.5297 132.14C53.8177 132.62 53.9617 133.18 53.9617 133.82C53.9617 134.452 53.8177 135.012 53.5297 135.5C53.2497 135.988 52.8577 136.372 52.3537 136.652C51.8577 136.932 51.2937 137.072 50.6617 137.072ZM50.6617 136.064C51.0697 136.064 51.4337 135.972 51.7537 135.788C52.0817 135.604 52.3377 135.344 52.5217 135.008C52.7057 134.664 52.7977 134.268 52.7977 133.82C52.7977 133.364 52.7057 132.972 52.5217 132.644C52.3377 132.308 52.0817 132.048 51.7537 131.864C51.4337 131.68 51.0697 131.588 50.6617 131.588C50.2537 131.588 49.8897 131.68 49.5697 131.864C49.2497 132.048 48.9937 132.308 48.8017 132.644C48.6097 132.972 48.5137 133.364 48.5137 133.82C48.5137 134.268 48.6097 134.664 48.8017 135.008C48.9937 135.344 49.2497 135.604 49.5697 135.788C49.8897 135.972 50.2537 136.064 50.6617 136.064ZM58.9269 137.072C58.3829 137.072 57.8909 136.952 57.4509 136.712C57.0189 136.464 56.6749 136.1 56.4189 135.62C56.1709 135.14 56.0469 134.54 56.0469 133.82C56.0469 133.1 56.1749 132.5 56.4309 132.02C56.6949 131.54 57.0429 131.18 57.4749 130.94C57.9149 130.7 58.3989 130.58 58.9269 130.58C59.5509 130.58 60.1029 130.716 60.5829 130.988C61.0629 131.26 61.4429 131.64 61.7229 132.128C62.0029 132.608 62.1429 133.172 62.1429 133.82C62.1429 134.468 62.0029 135.036 61.7229 135.524C61.4429 136.012 61.0629 136.392 60.5829 136.664C60.1029 136.936 59.5509 137.072 58.9269 137.072ZM55.5549 137V128.096H56.7069V132.332L56.5869 133.808L56.6589 135.284V137H55.5549ZM58.8309 136.064C59.2389 136.064 59.6029 135.972 59.9229 135.788C60.2509 135.604 60.5069 135.344 60.6909 135.008C60.8829 134.664 60.9789 134.268 60.9789 133.82C60.9789 133.364 60.8829 132.972 60.6909 132.644C60.5069 132.308 60.2509 132.048 59.9229 131.864C59.6029 131.68 59.2389 131.588 58.8309 131.588C58.4309 131.588 58.0669 131.68 57.7389 131.864C57.4189 132.048 57.1629 132.308 56.9709 132.644C56.7869 132.972 56.6949 133.364 56.6949 133.82C56.6949 134.268 56.7869 134.664 56.9709 135.008C57.1629 135.344 57.4189 135.604 57.7389 135.788C58.0669 135.972 58.4309 136.064 58.8309 136.064ZM63.7346 137V130.64H64.8386V132.368L64.7306 131.936C64.9066 131.496 65.2026 131.16 65.6186 130.928C66.0346 130.696 66.5466 130.58 67.1546 130.58V131.696C67.1066 131.688 67.0586 131.684 67.0106 131.684C66.9706 131.684 66.9306 131.684 66.8906 131.684C66.2746 131.684 65.7866 131.868 65.4266 132.236C65.0666 132.604 64.8866 133.136 64.8866 133.832V137H63.7346ZM71.3478 137.072C70.6678 137.072 70.0678 136.932 69.5478 136.652C69.0358 136.372 68.6358 135.988 68.3478 135.5C68.0678 135.012 67.9278 134.452 67.9278 133.82C67.9278 133.188 68.0638 132.628 68.3358 132.14C68.6158 131.652 68.9958 131.272 69.4758 131C69.9638 130.72 70.5118 130.58 71.1198 130.58C71.7358 130.58 72.2798 130.716 72.7518 130.988C73.2238 131.26 73.5918 131.644 73.8558 132.14C74.1278 132.628 74.2638 133.2 74.2638 133.856C74.2638 133.904 74.2598 133.96 74.2518 134.024C74.2518 134.088 74.2478 134.148 74.2398 134.204H68.8278V133.376H73.6398L73.1718 133.664C73.1798 133.256 73.0958 132.892 72.9198 132.572C72.7438 132.252 72.4998 132.004 72.1878 131.828C71.8838 131.644 71.5278 131.552 71.1198 131.552C70.7198 131.552 70.3638 131.644 70.0518 131.828C69.7398 132.004 69.4958 132.256 69.3198 132.584C69.1438 132.904 69.0558 133.272 69.0558 133.688V133.88C69.0558 134.304 69.1518 134.684 69.3438 135.02C69.5438 135.348 69.8198 135.604 70.1718 135.788C70.5238 135.972 70.9278 136.064 71.3838 136.064C71.7598 136.064 72.0998 136 72.4038 135.872C72.7158 135.744 72.9878 135.552 73.2198 135.296L73.8558 136.04C73.5678 136.376 73.2078 136.632 72.7758 136.808C72.3518 136.984 71.8758 137.072 71.3478 137.072ZM83.0341 137V135.656L82.9741 135.404V133.112C82.9741 132.624 82.8301 132.248 82.5421 131.984C82.2621 131.712 81.8381 131.576 81.2701 131.576C80.8941 131.576 80.5261 131.64 80.1661 131.768C79.8061 131.888 79.5021 132.052 79.2541 132.26L78.7741 131.396C79.1021 131.132 79.4941 130.932 79.9501 130.796C80.4141 130.652 80.8981 130.58 81.4021 130.58C82.2741 130.58 82.9461 130.792 83.4181 131.216C83.8901 131.64 84.1261 132.288 84.1261 133.16V137H83.0341ZM80.9461 137.072C80.4741 137.072 80.0581 136.992 79.6981 136.832C79.3461 136.672 79.0741 136.452 78.8821 136.172C78.6901 135.884 78.5941 135.56 78.5941 135.2C78.5941 134.856 78.6741 134.544 78.8341 134.264C79.0021 133.984 79.2701 133.76 79.6381 133.592C80.0141 133.424 80.5181 133.34 81.1501 133.34H83.1661V134.168H81.1981C80.6221 134.168 80.2341 134.264 80.0341 134.456C79.8341 134.648 79.7341 134.88 79.7341 135.152C79.7341 135.464 79.8581 135.716 80.1061 135.908C80.3541 136.092 80.6981 136.184 81.1381 136.184C81.5701 136.184 81.9461 136.088 82.2661 135.896C82.5941 135.704 82.8301 135.424 82.9741 135.056L83.2021 135.848C83.0501 136.224 82.7821 136.524 82.3981 136.748C82.0141 136.964 81.5301 137.072 80.9461 137.072ZM92.8527 137.072C92.3247 137.072 91.8407 136.952 91.4007 136.712C90.9687 136.464 90.6207 136.1 90.3567 135.62C90.1007 135.14 89.9727 134.54 89.9727 133.82C89.9727 133.1 90.0967 132.5 90.3447 132.02C90.6007 131.54 90.9447 131.18 91.3767 130.94C91.8167 130.7 92.3087 130.58 92.8527 130.58C93.4767 130.58 94.0287 130.716 94.5087 130.988C94.9887 131.26 95.3687 131.64 95.6487 132.128C95.9287 132.608 96.0687 133.172 96.0687 133.82C96.0687 134.468 95.9287 135.036 95.6487 135.524C95.3687 136.012 94.9887 136.392 94.5087 136.664C94.0287 136.936 93.4767 137.072 92.8527 137.072ZM89.4807 139.328V130.64H90.5847V132.356L90.5127 133.832L90.6327 135.308V139.328H89.4807ZM92.7567 136.064C93.1647 136.064 93.5287 135.972 93.8487 135.788C94.1767 135.604 94.4327 135.344 94.6167 135.008C94.8087 134.664 94.9047 134.268 94.9047 133.82C94.9047 133.364 94.8087 132.972 94.6167 132.644C94.4327 132.308 94.1767 132.048 93.8487 131.864C93.5287 131.68 93.1647 131.588 92.7567 131.588C92.3567 131.588 91.9927 131.68 91.6647 131.864C91.3447 132.048 91.0887 132.308 90.8967 132.644C90.7127 132.972 90.6207 133.364 90.6207 133.82C90.6207 134.268 90.7127 134.664 90.8967 135.008C91.0887 135.344 91.3447 135.604 91.6647 135.788C91.9927 135.972 92.3567 136.064 92.7567 136.064ZM100.384 137.072C99.7444 137.072 99.1764 136.932 98.6804 136.652C98.1844 136.372 97.7924 135.988 97.5044 135.5C97.2164 135.004 97.0724 134.444 97.0724 133.82C97.0724 133.188 97.2164 132.628 97.5044 132.14C97.7924 131.652 98.1844 131.272 98.6804 131C99.1764 130.72 99.7444 130.58 100.384 130.58C101.016 130.58 101.58 130.72 102.076 131C102.58 131.272 102.972 131.652 103.252 132.14C103.54 132.62 103.684 133.18 103.684 133.82C103.684 134.452 103.54 135.012 103.252 135.5C102.972 135.988 102.58 136.372 102.076 136.652C101.58 136.932 101.016 137.072 100.384 137.072ZM100.384 136.064C100.792 136.064 101.156 135.972 101.476 135.788C101.804 135.604 102.06 135.344 102.244 135.008C102.428 134.664 102.52 134.268 102.52 133.82C102.52 133.364 102.428 132.972 102.244 132.644C102.06 132.308 101.804 132.048 101.476 131.864C101.156 131.68 100.792 131.588 100.384 131.588C99.9764 131.588 99.6124 131.68 99.2924 131.864C98.9724 132.048 98.7164 132.308 98.5244 132.644C98.3324 132.972 98.2364 133.364 98.2364 133.82C98.2364 134.268 98.3324 134.664 98.5244 135.008C98.7164 135.344 98.9724 135.604 99.2924 135.788C99.6124 135.972 99.9764 136.064 100.384 136.064ZM108.674 130.58C109.194 130.58 109.65 130.68 110.042 130.88C110.442 131.08 110.754 131.384 110.978 131.792C111.202 132.2 111.314 132.716 111.314 133.34V137H110.162V133.472C110.162 132.856 110.01 132.392 109.706 132.08C109.41 131.768 108.99 131.612 108.446 131.612C108.038 131.612 107.682 131.692 107.378 131.852C107.074 132.012 106.838 132.248 106.67 132.56C106.51 132.872 106.43 133.26 106.43 133.724V137H105.278V130.64H106.382V132.356L106.202 131.9C106.41 131.484 106.73 131.16 107.162 130.928C107.594 130.696 108.098 130.58 108.674 130.58ZM115.63 137.072C114.99 137.072 114.494 136.9 114.142 136.556C113.79 136.212 113.614 135.72 113.614 135.08V129.248H114.766V135.032C114.766 135.376 114.85 135.64 115.018 135.824C115.194 136.008 115.442 136.1 115.762 136.1C116.122 136.1 116.422 136 116.662 135.8L117.022 136.628C116.846 136.78 116.634 136.892 116.386 136.964C116.146 137.036 115.894 137.072 115.63 137.072ZM112.534 131.588V130.64H116.59V131.588H112.534ZM122.362 137V135.656L122.302 135.404V133.112C122.302 132.624 122.158 132.248 121.87 131.984C121.59 131.712 121.166 131.576 120.598 131.576C120.222 131.576 119.854 131.64 119.494 131.768C119.134 131.888 118.83 132.052 118.582 132.26L118.102 131.396C118.43 131.132 118.822 130.932 119.278 130.796C119.742 130.652 120.226 130.58 120.73 130.58C121.602 130.58 122.274 130.792 122.746 131.216C123.218 131.64 123.454 132.288 123.454 133.16V137H122.362ZM120.274 137.072C119.802 137.072 119.386 136.992 119.026 136.832C118.674 136.672 118.402 136.452 118.21 136.172C118.018 135.884 117.922 135.56 117.922 135.2C117.922 134.856 118.002 134.544 118.162 134.264C118.33 133.984 118.598 133.76 118.966 133.592C119.342 133.424 119.846 133.34 120.478 133.34H122.494V134.168H120.526C119.95 134.168 119.562 134.264 119.362 134.456C119.162 134.648 119.062 134.88 119.062 135.152C119.062 135.464 119.186 135.716 119.434 135.908C119.682 136.092 120.026 136.184 120.466 136.184C120.898 136.184 121.274 136.088 121.594 135.896C121.922 135.704 122.158 135.424 122.302 135.056L122.53 135.848C122.378 136.224 122.11 136.524 121.726 136.748C121.342 136.964 120.858 137.072 120.274 137.072ZM131.437 137.072C130.821 137.072 130.269 136.936 129.781 136.664C129.301 136.392 128.921 136.012 128.641 135.524C128.361 135.036 128.221 134.468 128.221 133.82C128.221 133.172 128.361 132.608 128.641 132.128C128.921 131.64 129.301 131.26 129.781 130.988C130.269 130.716 130.821 130.58 131.437 130.58C131.973 130.58 132.457 130.7 132.889 130.94C133.321 131.18 133.665 131.54 133.921 132.02C134.185 132.5 134.317 133.1 134.317 133.82C134.317 134.54 134.189 135.14 133.933 135.62C133.685 136.1 133.345 136.464 132.913 136.712C132.481 136.952 131.989 137.072 131.437 137.072ZM131.533 136.064C131.933 136.064 132.293 135.972 132.613 135.788C132.941 135.604 133.197 135.344 133.381 135.008C133.573 134.664 133.669 134.268 133.669 133.82C133.669 133.364 133.573 132.972 133.381 132.644C133.197 132.308 132.941 132.048 132.613 131.864C132.293 131.68 131.933 131.588 131.533 131.588C131.125 131.588 130.761 131.68 130.441 131.864C130.121 132.048 129.865 132.308 129.673 132.644C129.481 132.972 129.385 133.364 129.385 133.82C129.385 134.268 129.481 134.664 129.673 135.008C129.865 135.344 130.121 135.604 130.441 135.788C130.761 135.972 131.125 136.064 131.533 136.064ZM133.705 137V135.284L133.777 133.808L133.657 132.332V128.096H134.809V137H133.705ZM140.936 137V135.656L140.876 135.404V133.112C140.876 132.624 140.732 132.248 140.444 131.984C140.164 131.712 139.74 131.576 139.172 131.576C138.796 131.576 138.428 131.64 138.068 131.768C137.708 131.888 137.404 132.052 137.156 132.26L136.676 131.396C137.004 131.132 137.396 130.932 137.852 130.796C138.316 130.652 138.8 130.58 139.304 130.58C140.176 130.58 140.848 130.792 141.32 131.216C141.792 131.64 142.028 132.288 142.028 133.16V137H140.936ZM138.848 137.072C138.376 137.072 137.96 136.992 137.6 136.832C137.248 136.672 136.976 136.452 136.784 136.172C136.592 135.884 136.496 135.56 136.496 135.2C136.496 134.856 136.576 134.544 136.736 134.264C136.904 133.984 137.172 133.76 137.54 133.592C137.916 133.424 138.42 133.34 139.052 133.34H141.068V134.168H139.1C138.524 134.168 138.136 134.264 137.936 134.456C137.736 134.648 137.636 134.88 137.636 135.152C137.636 135.464 137.76 135.716 138.008 135.908C138.256 136.092 138.6 136.184 139.04 136.184C139.472 136.184 139.848 136.088 140.168 135.896C140.496 135.704 140.732 135.424 140.876 135.056L141.104 135.848C140.952 136.224 140.684 136.524 140.3 136.748C139.916 136.964 139.432 137.072 138.848 137.072ZM36.6531 152.072C36.0051 152.072 35.4251 151.932 34.9131 151.652C34.4091 151.372 34.0131 150.988 33.7251 150.5C33.4371 150.012 33.2931 149.452 33.2931 148.82C33.2931 148.188 33.4371 147.628 33.7251 147.14C34.0131 146.652 34.4091 146.272 34.9131 146C35.4251 145.72 36.0051 145.58 36.6531 145.58C37.2291 145.58 37.7411 145.696 38.1891 145.928C38.6451 146.152 38.9971 146.488 39.2451 146.936L38.3691 147.5C38.1611 147.188 37.9051 146.96 37.6011 146.816C37.3051 146.664 36.9851 146.588 36.6411 146.588C36.2251 146.588 35.8531 146.68 35.5251 146.864C35.1971 147.048 34.9371 147.308 34.7451 147.644C34.5531 147.972 34.4571 148.364 34.4571 148.82C34.4571 149.276 34.5531 149.672 34.7451 150.008C34.9371 150.344 35.1971 150.604 35.5251 150.788C35.8531 150.972 36.2251 151.064 36.6411 151.064C36.9851 151.064 37.3051 150.992 37.6011 150.848C37.9051 150.696 38.1611 150.464 38.3691 150.152L39.2451 150.704C38.9971 151.144 38.6451 151.484 38.1891 151.724C37.7411 151.956 37.2291 152.072 36.6531 152.072ZM44.6845 152V150.656L44.6245 150.404V148.112C44.6245 147.624 44.4805 147.248 44.1925 146.984C43.9125 146.712 43.4885 146.576 42.9205 146.576C42.5445 146.576 42.1765 146.64 41.8165 146.768C41.4565 146.888 41.1525 147.052 40.9045 147.26L40.4245 146.396C40.7525 146.132 41.1445 145.932 41.6005 145.796C42.0645 145.652 42.5485 145.58 43.0525 145.58C43.9245 145.58 44.5965 145.792 45.0685 146.216C45.5405 146.64 45.7765 147.288 45.7765 148.16V152H44.6845ZM42.5965 152.072C42.1245 152.072 41.7085 151.992 41.3485 151.832C40.9965 151.672 40.7245 151.452 40.5325 151.172C40.3405 150.884 40.2445 150.56 40.2445 150.2C40.2445 149.856 40.3245 149.544 40.4845 149.264C40.6525 148.984 40.9205 148.76 41.2885 148.592C41.6645 148.424 42.1685 148.34 42.8005 148.34H44.8165V149.168H42.8485C42.2725 149.168 41.8845 149.264 41.6845 149.456C41.4845 149.648 41.3845 149.88 41.3845 150.152C41.3845 150.464 41.5085 150.716 41.7565 150.908C42.0045 151.092 42.3485 151.184 42.7885 151.184C43.2205 151.184 43.5965 151.088 43.9165 150.896C44.2445 150.704 44.4805 150.424 44.6245 150.056L44.8525 150.848C44.7005 151.224 44.4325 151.524 44.0485 151.748C43.6645 151.964 43.1805 152.072 42.5965 152.072ZM50.5844 152.072C50.0404 152.072 49.5604 151.972 49.1444 151.772C48.7364 151.572 48.4164 151.268 48.1844 150.86C47.9604 150.444 47.8484 149.924 47.8484 149.3V145.64H49.0004V149.168C49.0004 149.792 49.1484 150.26 49.4444 150.572C49.7484 150.884 50.1724 151.04 50.7164 151.04C51.1164 151.04 51.4644 150.96 51.7604 150.8C52.0564 150.632 52.2844 150.392 52.4444 150.08C52.6044 149.76 52.6844 149.376 52.6844 148.928V145.64H53.8364V152H52.7444V150.284L52.9244 150.74C52.7164 151.164 52.4044 151.492 51.9884 151.724C51.5724 151.956 51.1044 152.072 50.5844 152.072ZM58.6575 152.072C58.0415 152.072 57.4895 151.936 57.0015 151.664C56.5215 151.392 56.1415 151.012 55.8615 150.524C55.5815 150.036 55.4415 149.468 55.4415 148.82C55.4415 148.172 55.5815 147.608 55.8615 147.128C56.1415 146.64 56.5215 146.26 57.0015 145.988C57.4895 145.716 58.0415 145.58 58.6575 145.58C59.1935 145.58 59.6775 145.7 60.1095 145.94C60.5415 146.18 60.8855 146.54 61.1415 147.02C61.4055 147.5 61.5375 148.1 61.5375 148.82C61.5375 149.54 61.4095 150.14 61.1535 150.62C60.9055 151.1 60.5655 151.464 60.1335 151.712C59.7015 151.952 59.2095 152.072 58.6575 152.072ZM58.7535 151.064C59.1535 151.064 59.5135 150.972 59.8335 150.788C60.1615 150.604 60.4175 150.344 60.6015 150.008C60.7935 149.664 60.8895 149.268 60.8895 148.82C60.8895 148.364 60.7935 147.972 60.6015 147.644C60.4175 147.308 60.1615 147.048 59.8335 146.864C59.5135 146.68 59.1535 146.588 58.7535 146.588C58.3455 146.588 57.9815 146.68 57.6615 146.864C57.3415 147.048 57.0855 147.308 56.8935 147.644C56.7015 147.972 56.6055 148.364 56.6055 148.82C56.6055 149.268 56.7015 149.664 56.8935 150.008C57.0855 150.344 57.3415 150.604 57.6615 150.788C57.9815 150.972 58.3455 151.064 58.7535 151.064ZM60.9255 152V150.284L60.9975 148.808L60.8775 147.332V143.096H62.0295V152H60.9255ZM68.1572 152V150.656L68.0972 150.404V148.112C68.0972 147.624 67.9532 147.248 67.6652 146.984C67.3852 146.712 66.9612 146.576 66.3932 146.576C66.0172 146.576 65.6492 146.64 65.2892 146.768C64.9292 146.888 64.6252 147.052 64.3772 147.26L63.8972 146.396C64.2252 146.132 64.6172 145.932 65.0732 145.796C65.5372 145.652 66.0212 145.58 66.5252 145.58C67.3972 145.58 68.0692 145.792 68.5412 146.216C69.0132 146.64 69.2492 147.288 69.2492 148.16V152H68.1572ZM66.0692 152.072C65.5972 152.072 65.1812 151.992 64.8212 151.832C64.4692 151.672 64.1972 151.452 64.0052 151.172C63.8132 150.884 63.7172 150.56 63.7172 150.2C63.7172 149.856 63.7972 149.544 63.9572 149.264C64.1252 148.984 64.3932 148.76 64.7612 148.592C65.1372 148.424 65.6412 148.34 66.2732 148.34H68.2892V149.168H66.3212C65.7452 149.168 65.3572 149.264 65.1572 149.456C64.9572 149.648 64.8572 149.88 64.8572 150.152C64.8572 150.464 64.9812 150.716 65.2292 150.908C65.4772 151.092 65.8212 151.184 66.2612 151.184C66.6932 151.184 67.0692 151.088 67.3892 150.896C67.7172 150.704 67.9532 150.424 68.0972 150.056L68.3252 150.848C68.1732 151.224 67.9052 151.524 67.5212 151.748C67.1372 151.964 66.6532 152.072 66.0692 152.072ZM77.9757 152.072C77.4477 152.072 76.9637 151.952 76.5237 151.712C76.0917 151.464 75.7437 151.1 75.4797 150.62C75.2237 150.14 75.0957 149.54 75.0957 148.82C75.0957 148.1 75.2197 147.5 75.4677 147.02C75.7237 146.54 76.0677 146.18 76.4997 145.94C76.9397 145.7 77.4317 145.58 77.9757 145.58C78.5997 145.58 79.1517 145.716 79.6317 145.988C80.1117 146.26 80.4917 146.64 80.7717 147.128C81.0517 147.608 81.1917 148.172 81.1917 148.82C81.1917 149.468 81.0517 150.036 80.7717 150.524C80.4917 151.012 80.1117 151.392 79.6317 151.664C79.1517 151.936 78.5997 152.072 77.9757 152.072ZM74.6037 154.328V145.64H75.7077V147.356L75.6357 148.832L75.7557 150.308V154.328H74.6037ZM77.8797 151.064C78.2877 151.064 78.6517 150.972 78.9717 150.788C79.2997 150.604 79.5557 150.344 79.7397 150.008C79.9317 149.664 80.0277 149.268 80.0277 148.82C80.0277 148.364 79.9317 147.972 79.7397 147.644C79.5557 147.308 79.2997 147.048 78.9717 146.864C78.6517 146.68 78.2877 146.588 77.8797 146.588C77.4797 146.588 77.1157 146.68 76.7877 146.864C76.4677 147.048 76.2117 147.308 76.0197 147.644C75.8357 147.972 75.7437 148.364 75.7437 148.82C75.7437 149.268 75.8357 149.664 76.0197 150.008C76.2117 150.344 76.4677 150.604 76.7877 150.788C77.1157 150.972 77.4797 151.064 77.8797 151.064ZM86.6728 152V150.656L86.6128 150.404V148.112C86.6128 147.624 86.4688 147.248 86.1808 146.984C85.9008 146.712 85.4768 146.576 84.9088 146.576C84.5328 146.576 84.1648 146.64 83.8048 146.768C83.4448 146.888 83.1408 147.052 82.8928 147.26L82.4128 146.396C82.7408 146.132 83.1328 145.932 83.5888 145.796C84.0528 145.652 84.5368 145.58 85.0408 145.58C85.9128 145.58 86.5848 145.792 87.0568 146.216C87.5288 146.64 87.7648 147.288 87.7648 148.16V152H86.6728ZM84.5848 152.072C84.1128 152.072 83.6968 151.992 83.3368 151.832C82.9848 151.672 82.7128 151.452 82.5208 151.172C82.3288 150.884 82.2328 150.56 82.2328 150.2C82.2328 149.856 82.3128 149.544 82.4728 149.264C82.6408 148.984 82.9088 148.76 83.2768 148.592C83.6528 148.424 84.1568 148.34 84.7888 148.34H86.8048V149.168H84.8368C84.2608 149.168 83.8728 149.264 83.6728 149.456C83.4728 149.648 83.3728 149.88 83.3728 150.152C83.3728 150.464 83.4968 150.716 83.7448 150.908C83.9928 151.092 84.3368 151.184 84.7768 151.184C85.2088 151.184 85.5848 151.088 85.9048 150.896C86.2328 150.704 86.4688 150.424 86.6128 150.056L86.8408 150.848C86.6888 151.224 86.4208 151.524 86.0368 151.748C85.6528 151.964 85.1688 152.072 84.5848 152.072ZM89.8967 152V145.64H91.0007V147.368L90.8927 146.936C91.0687 146.496 91.3647 146.16 91.7807 145.928C92.1967 145.696 92.7087 145.58 93.3167 145.58V146.696C93.2687 146.688 93.2207 146.684 93.1727 146.684C93.1327 146.684 93.0927 146.684 93.0527 146.684C92.4367 146.684 91.9487 146.868 91.5887 147.236C91.2287 147.604 91.0487 148.136 91.0487 148.832V152H89.8967ZM98.2158 152V150.656L98.1558 150.404V148.112C98.1558 147.624 98.0118 147.248 97.7238 146.984C97.4438 146.712 97.0198 146.576 96.4518 146.576C96.0758 146.576 95.7078 146.64 95.3478 146.768C94.9878 146.888 94.6838 147.052 94.4358 147.26L93.9558 146.396C94.2838 146.132 94.6758 145.932 95.1318 145.796C95.5958 145.652 96.0798 145.58 96.5838 145.58C97.4558 145.58 98.1278 145.792 98.5998 146.216C99.0718 146.64 99.3078 147.288 99.3078 148.16V152H98.2158ZM96.1278 152.072C95.6558 152.072 95.2398 151.992 94.8798 151.832C94.5278 151.672 94.2558 151.452 94.0638 151.172C93.8718 150.884 93.7758 150.56 93.7758 150.2C93.7758 149.856 93.8558 149.544 94.0158 149.264C94.1838 148.984 94.4518 148.76 94.8198 148.592C95.1958 148.424 95.6998 148.34 96.3318 148.34H98.3478V149.168H96.3798C95.8038 149.168 95.4158 149.264 95.2158 149.456C95.0158 149.648 94.9158 149.88 94.9158 150.152C94.9158 150.464 95.0398 150.716 95.2878 150.908C95.5358 151.092 95.8798 151.184 96.3198 151.184C96.7518 151.184 97.1278 151.088 97.4478 150.896C97.7758 150.704 98.0118 150.424 98.1558 150.056L98.3838 150.848C98.2318 151.224 97.9638 151.524 97.5798 151.748C97.1958 151.964 96.7118 152.072 96.1278 152.072ZM107.29 152.072C106.674 152.072 106.122 151.936 105.634 151.664C105.154 151.392 104.774 151.012 104.494 150.524C104.214 150.036 104.074 149.468 104.074 148.82C104.074 148.172 104.214 147.608 104.494 147.128C104.774 146.64 105.154 146.26 105.634 145.988C106.122 145.716 106.674 145.58 107.29 145.58C107.826 145.58 108.31 145.7 108.742 145.94C109.174 146.18 109.518 146.54 109.774 147.02C110.038 147.5 110.17 148.1 110.17 148.82C110.17 149.54 110.042 150.14 109.786 150.62C109.538 151.1 109.198 151.464 108.766 151.712C108.334 151.952 107.842 152.072 107.29 152.072ZM107.386 151.064C107.786 151.064 108.146 150.972 108.466 150.788C108.794 150.604 109.05 150.344 109.234 150.008C109.426 149.664 109.522 149.268 109.522 148.82C109.522 148.364 109.426 147.972 109.234 147.644C109.05 147.308 108.794 147.048 108.466 146.864C108.146 146.68 107.786 146.588 107.386 146.588C106.978 146.588 106.614 146.68 106.294 146.864C105.974 147.048 105.718 147.308 105.526 147.644C105.334 147.972 105.238 148.364 105.238 148.82C105.238 149.268 105.334 149.664 105.526 150.008C105.718 150.344 105.974 150.604 106.294 150.788C106.614 150.972 106.978 151.064 107.386 151.064ZM109.558 152V150.284L109.63 148.808L109.51 147.332V143.096H110.662V152H109.558ZM115.674 152.072C114.994 152.072 114.394 151.932 113.874 151.652C113.362 151.372 112.962 150.988 112.674 150.5C112.394 150.012 112.254 149.452 112.254 148.82C112.254 148.188 112.39 147.628 112.662 147.14C112.942 146.652 113.322 146.272 113.802 146C114.29 145.72 114.838 145.58 115.446 145.58C116.062 145.58 116.606 145.716 117.078 145.988C117.55 146.26 117.918 146.644 118.182 147.14C118.454 147.628 118.59 148.2 118.59 148.856C118.59 148.904 118.586 148.96 118.578 149.024C118.578 149.088 118.574 149.148 118.566 149.204H113.154V148.376H117.966L117.498 148.664C117.506 148.256 117.422 147.892 117.246 147.572C117.07 147.252 116.826 147.004 116.514 146.828C116.21 146.644 115.854 146.552 115.446 146.552C115.046 146.552 114.69 146.644 114.378 146.828C114.066 147.004 113.822 147.256 113.646 147.584C113.47 147.904 113.382 148.272 113.382 148.688V148.88C113.382 149.304 113.478 149.684 113.67 150.02C113.87 150.348 114.146 150.604 114.498 150.788C114.85 150.972 115.254 151.064 115.71 151.064C116.086 151.064 116.426 151 116.73 150.872C117.042 150.744 117.314 150.552 117.546 150.296L118.182 151.04C117.894 151.376 117.534 151.632 117.102 151.808C116.678 151.984 116.202 152.072 115.674 152.072ZM123.586 145.58C124.106 145.58 124.562 145.68 124.954 145.88C125.354 146.08 125.666 146.384 125.89 146.792C126.114 147.2 126.226 147.716 126.226 148.34V152H125.074V148.472C125.074 147.856 124.922 147.392 124.618 147.08C124.322 146.768 123.902 146.612 123.358 146.612C122.95 146.612 122.594 146.692 122.29 146.852C121.986 147.012 121.75 147.248 121.582 147.56C121.422 147.872 121.342 148.26 121.342 148.724V152H120.19V145.64H121.294V147.356L121.114 146.9C121.322 146.484 121.642 146.16 122.074 145.928C122.506 145.696 123.01 145.58 123.586 145.58ZM130.542 152.072C129.902 152.072 129.406 151.9 129.054 151.556C128.702 151.212 128.526 150.72 128.526 150.08V144.248H129.678V150.032C129.678 150.376 129.762 150.64 129.93 150.824C130.106 151.008 130.354 151.1 130.674 151.1C131.034 151.1 131.334 151 131.574 150.8L131.934 151.628C131.758 151.78 131.546 151.892 131.298 151.964C131.058 152.036 130.806 152.072 130.542 152.072ZM127.446 146.588V145.64H131.502V146.588H127.446ZM133.326 152V145.64H134.43V147.368L134.322 146.936C134.498 146.496 134.794 146.16 135.21 145.928C135.626 145.696 136.138 145.58 136.746 145.58V146.696C136.698 146.688 136.65 146.684 136.602 146.684C136.562 146.684 136.522 146.684 136.482 146.684C135.866 146.684 135.378 146.868 135.018 147.236C134.658 147.604 134.478 148.136 134.478 148.832V152H133.326ZM140.832 152.072C140.192 152.072 139.624 151.932 139.128 151.652C138.632 151.372 138.24 150.988 137.952 150.5C137.664 150.004 137.52 149.444 137.52 148.82C137.52 148.188 137.664 147.628 137.952 147.14C138.24 146.652 138.632 146.272 139.128 146C139.624 145.72 140.192 145.58 140.832 145.58C141.464 145.58 142.028 145.72 142.524 146C143.028 146.272 143.42 146.652 143.7 147.14C143.988 147.62 144.132 148.18 144.132 148.82C144.132 149.452 143.988 150.012 143.7 150.5C143.42 150.988 143.028 151.372 142.524 151.652C142.028 151.932 141.464 152.072 140.832 152.072ZM140.832 151.064C141.24 151.064 141.604 150.972 141.924 150.788C142.252 150.604 142.508 150.344 142.692 150.008C142.876 149.664 142.968 149.268 142.968 148.82C142.968 148.364 142.876 147.972 142.692 147.644C142.508 147.308 142.252 147.048 141.924 146.864C141.604 146.68 141.24 146.588 140.832 146.588C140.424 146.588 140.06 146.68 139.74 146.864C139.42 147.048 139.164 147.308 138.972 147.644C138.78 147.972 138.684 148.364 138.684 148.82C138.684 149.268 138.78 149.664 138.972 150.008C139.164 150.344 139.42 150.604 139.74 150.788C140.06 150.972 140.424 151.064 140.832 151.064ZM145.86 152.072C145.636 152.072 145.444 151.996 145.284 151.844C145.124 151.684 145.044 151.484 145.044 151.244C145.044 151.004 145.124 150.808 145.284 150.656C145.444 150.504 145.636 150.428 145.86 150.428C146.076 150.428 146.26 150.504 146.412 150.656C146.572 150.808 146.652 151.004 146.652 151.244C146.652 151.484 146.572 151.684 146.412 151.844C146.26 151.996 146.076 152.072 145.86 152.072Z" fill="#008E86"/>
<path d="M45.1776 61.6659L59.6486 34.2415L49.2369 26.4547L50.888 19.6549L69.5518 19.0058L77.9345 34.2415L75.6491 68.522L64.2223 77.6634L45.1776 61.6659Z" fill="#008E86" stroke="#00635D" stroke-width="2" stroke-linejoin="round"/>
<path d="M59.6501 34.244L49.2384 26.4571L50.8895 19.6574L66.4314 20.7283L59.6501 34.244Z" fill="#00D8CC" stroke="#00635D" stroke-width="2" stroke-linejoin="round"/>
<path d="M59.6487 34.2433L51.5769 27.948L54.8776 21.7591L66.4301 20.7276L59.6487 34.2433Z" fill="#008E86" stroke="#00635D" stroke-width="2" stroke-linejoin="round"/>
<path d="M61.9347 35.7655L68.029 22.8151L54.6977 21.6724L51.6505 28.1476L61.9347 35.7655Z" fill="#00D8CC" stroke="#00635D" stroke-width="2" stroke-linejoin="round"/>
<path d="M50.5102 60.9067L68.0284 22.8173L77.9316 34.2442L75.6492 68.5246L50.5102 60.9067Z" fill="#008E86" stroke="#00635D" stroke-width="2" stroke-linejoin="round"/>
<path d="M50.9714 60.8796L68.1771 23.4693L77.9038 34.6924L75.6621 68.3616L50.9714 60.8796Z" fill="#008E86" stroke="#00635D" stroke-width="2" stroke-linejoin="round"/>
<path d="M68.9283 54.1435L145.245 78.8343L74.9139 78.8343L68.9283 54.1435Z" fill="#008E86" stroke="#00635D" stroke-width="2" stroke-linejoin="round"/>
<path d="M50.9715 60.8786L68.9285 54.1446L77.9054 79.5841L64.4392 77.3391L50.9715 60.8786Z" fill="#008E86" stroke="#00635D" stroke-width="2" stroke-linejoin="round"/>
<path d="M68.9278 54.1421L77.9046 79.5816L53.9627 99.7831L68.9278 54.1421Z" fill="#00D8CC" stroke="#00635D" stroke-width="2" stroke-linejoin="round"/>
<path d="M94.3658 78.8342L112.323 68.3594" stroke="#333333" stroke-width="2" stroke-dasharray="4 6"/>
<path d="M146.847 69.3551C147.397 69.4053 147.802 69.8919 147.752 70.4419C147.702 70.9919 147.215 71.397 146.665 71.3468L146.847 69.3551ZM128.861 37.971C129.339 37.6948 129.95 37.8587 130.227 38.337L134.727 46.1312C135.003 46.6095 134.839 47.2211 134.361 47.4972C133.882 47.7734 133.271 47.6095 132.995 47.1312L128.995 40.203L122.066 44.203C121.588 44.4792 120.976 44.3153 120.7 43.837C120.424 43.3587 120.588 42.7471 121.066 42.471L128.861 37.971ZM146.665 71.3468C139.182 70.6635 133.392 66.8621 130.097 60.9728C126.815 55.1067 126.064 47.2757 128.395 38.5782L130.327 39.0958C128.097 47.4161 128.873 54.6873 131.843 59.9963C134.8 65.2821 139.988 68.7287 146.847 69.3551L146.665 71.3468Z" fill="black"/>
</svg>
