<svg width="180" height="180" viewBox="0 0 180 180" fill="none" xmlns="http://www.w3.org/2000/svg">
<g clip-path="url(#clip0_14_3235)">
<rect width="180" height="180" rx="20" fill="#F2F2F2"/>
<g clip-path="url(#clip1_14_3235)">
<path d="M0 30L-1.31134e-06 0L30 -1.31134e-06L30 10C30 21.0457 21.0457 30 10 30L0 30Z" fill="#333333"/>
<path d="M19.2733 18.888V21H10.8092V19.32L15.1293 15.24C15.5879 14.8027 15.8973 14.4293 16.0573 14.12C16.2173 13.8 16.2973 13.4853 16.2973 13.176C16.2973 12.728 16.1426 12.3867 15.8333 12.152C15.5346 11.9067 15.0919 11.784 14.5052 11.784C14.0146 11.784 13.5719 11.88 13.1773 12.072C12.7826 12.2533 12.4519 12.5307 12.1853 12.904L10.2973 11.688C10.7346 11.0373 11.3373 10.5307 12.1053 10.168C12.8733 9.79467 13.7533 9.608 14.7453 9.608C15.5773 9.608 16.3026 9.74667 16.9213 10.024C17.5506 10.2907 18.0359 10.6747 18.3773 11.176C18.7293 11.6667 18.9053 12.248 18.9053 12.92C18.9053 13.528 18.7773 14.0987 18.5213 14.632C18.2653 15.1653 17.7693 15.7733 17.0333 16.456L14.4573 18.888H19.2733Z" fill="#F2F2F2"/>
</g>
<path d="M22.6584 129V120.6H26.1984C27.0944 120.6 27.8824 120.776 28.5624 121.128C29.2504 121.48 29.7824 121.972 30.1584 122.604C30.5424 123.236 30.7344 123.968 30.7344 124.8C30.7344 125.632 30.5424 126.364 30.1584 126.996C29.7824 127.628 29.2504 128.12 28.5624 128.472C27.8824 128.824 27.0944 129 26.1984 129H22.6584ZM23.8584 127.956H26.1264C26.8224 127.956 27.4224 127.824 27.9264 127.56C28.4384 127.296 28.8344 126.928 29.1144 126.456C29.3944 125.976 29.5344 125.424 29.5344 124.8C29.5344 124.168 29.3944 123.616 29.1144 123.144C28.8344 122.672 28.4384 122.304 27.9264 122.04C27.4224 121.776 26.8224 121.644 26.1264 121.644H23.8584V127.956ZM35.1285 129.072C34.4885 129.072 33.9205 128.932 33.4245 128.652C32.9285 128.372 32.5365 127.988 32.2485 127.5C31.9605 127.004 31.8165 126.444 31.8165 125.82C31.8165 125.188 31.9605 124.628 32.2485 124.14C32.5365 123.652 32.9285 123.272 33.4245 123C33.9205 122.72 34.4885 122.58 35.1285 122.58C35.7605 122.58 36.3245 122.72 36.8205 123C37.3245 123.272 37.7165 123.652 37.9965 124.14C38.2845 124.62 38.4285 125.18 38.4285 125.82C38.4285 126.452 38.2845 127.012 37.9965 127.5C37.7165 127.988 37.3245 128.372 36.8205 128.652C36.3245 128.932 35.7605 129.072 35.1285 129.072ZM35.1285 128.064C35.5365 128.064 35.9005 127.972 36.2205 127.788C36.5485 127.604 36.8045 127.344 36.9885 127.008C37.1725 126.664 37.2645 126.268 37.2645 125.82C37.2645 125.364 37.1725 124.972 36.9885 124.644C36.8045 124.308 36.5485 124.048 36.2205 123.864C35.9005 123.68 35.5365 123.588 35.1285 123.588C34.7205 123.588 34.3565 123.68 34.0365 123.864C33.7165 124.048 33.4605 124.308 33.2685 124.644C33.0765 124.972 32.9805 125.364 32.9805 125.82C32.9805 126.268 33.0765 126.664 33.2685 127.008C33.4605 127.344 33.7165 127.604 34.0365 127.788C34.3565 127.972 34.7205 128.064 35.1285 128.064ZM43.3937 129.072C42.8497 129.072 42.3577 128.952 41.9177 128.712C41.4857 128.464 41.1417 128.1 40.8857 127.62C40.6377 127.14 40.5137 126.54 40.5137 125.82C40.5137 125.1 40.6417 124.5 40.8977 124.02C41.1617 123.54 41.5097 123.18 41.9417 122.94C42.3817 122.7 42.8657 122.58 43.3937 122.58C44.0177 122.58 44.5697 122.716 45.0497 122.988C45.5297 123.26 45.9097 123.64 46.1897 124.128C46.4697 124.608 46.6097 125.172 46.6097 125.82C46.6097 126.468 46.4697 127.036 46.1897 127.524C45.9097 128.012 45.5297 128.392 45.0497 128.664C44.5697 128.936 44.0177 129.072 43.3937 129.072ZM40.0217 129V120.096H41.1737V124.332L41.0537 125.808L41.1257 127.284V129H40.0217ZM43.2977 128.064C43.7057 128.064 44.0697 127.972 44.3897 127.788C44.7177 127.604 44.9737 127.344 45.1577 127.008C45.3497 126.664 45.4457 126.268 45.4457 125.82C45.4457 125.364 45.3497 124.972 45.1577 124.644C44.9737 124.308 44.7177 124.048 44.3897 123.864C44.0697 123.68 43.7057 123.588 43.2977 123.588C42.8977 123.588 42.5337 123.68 42.2057 123.864C41.8857 124.048 41.6297 124.308 41.4377 124.644C41.2537 124.972 41.1617 125.364 41.1617 125.82C41.1617 126.268 41.2537 126.664 41.4377 127.008C41.6297 127.344 41.8857 127.604 42.2057 127.788C42.5337 127.972 42.8977 128.064 43.2977 128.064ZM48.2014 129V122.64H49.3054V124.368L49.1974 123.936C49.3734 123.496 49.6694 123.16 50.0854 122.928C50.5014 122.696 51.0134 122.58 51.6214 122.58V123.696C51.5734 123.688 51.5254 123.684 51.4774 123.684C51.4374 123.684 51.3974 123.684 51.3574 123.684C50.7414 123.684 50.2534 123.868 49.8934 124.236C49.5334 124.604 49.3534 125.136 49.3534 125.832V129H48.2014ZM55.8146 129.072C55.1346 129.072 54.5346 128.932 54.0146 128.652C53.5026 128.372 53.1026 127.988 52.8146 127.5C52.5346 127.012 52.3946 126.452 52.3946 125.82C52.3946 125.188 52.5306 124.628 52.8026 124.14C53.0826 123.652 53.4626 123.272 53.9426 123C54.4306 122.72 54.9786 122.58 55.5866 122.58C56.2026 122.58 56.7466 122.716 57.2186 122.988C57.6906 123.26 58.0586 123.644 58.3226 124.14C58.5946 124.628 58.7306 125.2 58.7306 125.856C58.7306 125.904 58.7266 125.96 58.7186 126.024C58.7186 126.088 58.7146 126.148 58.7066 126.204H53.2946V125.376H58.1066L57.6386 125.664C57.6466 125.256 57.5626 124.892 57.3866 124.572C57.2106 124.252 56.9666 124.004 56.6546 123.828C56.3506 123.644 55.9946 123.552 55.5866 123.552C55.1866 123.552 54.8306 123.644 54.5186 123.828C54.2066 124.004 53.9626 124.256 53.7866 124.584C53.6106 124.904 53.5226 125.272 53.5226 125.688V125.88C53.5226 126.304 53.6186 126.684 53.8106 127.02C54.0106 127.348 54.2866 127.604 54.6386 127.788C54.9906 127.972 55.3946 128.064 55.8506 128.064C56.2266 128.064 56.5666 128 56.8706 127.872C57.1826 127.744 57.4546 127.552 57.6866 127.296L58.3226 128.04C58.0346 128.376 57.6746 128.632 57.2426 128.808C56.8186 128.984 56.3426 129.072 55.8146 129.072ZM66.2769 129.072C65.6369 129.072 65.0689 128.932 64.5729 128.652C64.0769 128.372 63.6849 127.988 63.3969 127.5C63.1089 127.004 62.9649 126.444 62.9649 125.82C62.9649 125.188 63.1089 124.628 63.3969 124.14C63.6849 123.652 64.0769 123.272 64.5729 123C65.0689 122.72 65.6369 122.58 66.2769 122.58C66.9089 122.58 67.4729 122.72 67.9689 123C68.4729 123.272 68.8649 123.652 69.1449 124.14C69.4329 124.62 69.5769 125.18 69.5769 125.82C69.5769 126.452 69.4329 127.012 69.1449 127.5C68.8649 127.988 68.4729 128.372 67.9689 128.652C67.4729 128.932 66.9089 129.072 66.2769 129.072ZM66.2769 128.064C66.6849 128.064 67.0489 127.972 67.3689 127.788C67.6969 127.604 67.9529 127.344 68.1369 127.008C68.3209 126.664 68.4129 126.268 68.4129 125.82C68.4129 125.364 68.3209 124.972 68.1369 124.644C67.9529 124.308 67.6969 124.048 67.3689 123.864C67.0489 123.68 66.6849 123.588 66.2769 123.588C65.8689 123.588 65.5049 123.68 65.1849 123.864C64.8649 124.048 64.6089 124.308 64.4169 124.644C64.2249 124.972 64.1289 125.364 64.1289 125.82C64.1289 126.268 64.2249 126.664 64.4169 127.008C64.6089 127.344 64.8649 127.604 65.1849 127.788C65.5049 127.972 65.8689 128.064 66.2769 128.064ZM72.9941 129.072C72.4661 129.072 71.9621 129 71.4821 128.856C71.0101 128.712 70.6381 128.536 70.3661 128.328L70.8461 127.416C71.1181 127.6 71.4541 127.756 71.8541 127.884C72.2541 128.012 72.6621 128.076 73.0781 128.076C73.6141 128.076 73.9981 128 74.2301 127.848C74.4701 127.696 74.5901 127.484 74.5901 127.212C74.5901 127.012 74.5181 126.856 74.3741 126.744C74.2301 126.632 74.0381 126.548 73.7981 126.492C73.5661 126.436 73.3061 126.388 73.0181 126.348C72.7301 126.3 72.4421 126.244 72.1541 126.18C71.8661 126.108 71.6021 126.012 71.3621 125.892C71.1221 125.764 70.9301 125.592 70.7861 125.376C70.6421 125.152 70.5701 124.856 70.5701 124.488C70.5701 124.104 70.6781 123.768 70.8941 123.48C71.1101 123.192 71.4141 122.972 71.8061 122.82C72.2061 122.66 72.6781 122.58 73.2221 122.58C73.6381 122.58 74.0581 122.632 74.4821 122.736C74.9141 122.832 75.2661 122.972 75.5381 123.156L75.0461 124.068C74.7581 123.876 74.4581 123.744 74.1461 123.672C73.8341 123.6 73.5221 123.564 73.2101 123.564C72.7061 123.564 72.3301 123.648 72.0821 123.816C71.8341 123.976 71.7101 124.184 71.7101 124.44C71.7101 124.656 71.7821 124.824 71.9261 124.944C72.0781 125.056 72.2701 125.144 72.5021 125.208C72.7421 125.272 73.0061 125.328 73.2941 125.376C73.5821 125.416 73.8701 125.472 74.1581 125.544C74.4461 125.608 74.7061 125.7 74.9381 125.82C75.1781 125.94 75.3701 126.108 75.5141 126.324C75.6661 126.54 75.7421 126.828 75.7421 127.188C75.7421 127.572 75.6301 127.904 75.4061 128.184C75.1821 128.464 74.8661 128.684 74.4581 128.844C74.0501 128.996 73.5621 129.072 72.9941 129.072ZM83.0325 129.072C82.4165 129.072 81.8645 128.936 81.3765 128.664C80.8965 128.392 80.5165 128.012 80.2365 127.524C79.9565 127.036 79.8165 126.468 79.8165 125.82C79.8165 125.172 79.9565 124.608 80.2365 124.128C80.5165 123.64 80.8965 123.26 81.3765 122.988C81.8645 122.716 82.4165 122.58 83.0325 122.58C83.5685 122.58 84.0525 122.7 84.4845 122.94C84.9165 123.18 85.2605 123.54 85.5165 124.02C85.7805 124.5 85.9125 125.1 85.9125 125.82C85.9125 126.54 85.7845 127.14 85.5285 127.62C85.2805 128.1 84.9405 128.464 84.5085 128.712C84.0765 128.952 83.5845 129.072 83.0325 129.072ZM83.1285 128.064C83.5285 128.064 83.8885 127.972 84.2085 127.788C84.5365 127.604 84.7925 127.344 84.9765 127.008C85.1685 126.664 85.2645 126.268 85.2645 125.82C85.2645 125.364 85.1685 124.972 84.9765 124.644C84.7925 124.308 84.5365 124.048 84.2085 123.864C83.8885 123.68 83.5285 123.588 83.1285 123.588C82.7205 123.588 82.3565 123.68 82.0365 123.864C81.7165 124.048 81.4605 124.308 81.2685 124.644C81.0765 124.972 80.9805 125.364 80.9805 125.82C80.9805 126.268 81.0765 126.664 81.2685 127.008C81.4605 127.344 81.7165 127.604 82.0365 127.788C82.3565 127.972 82.7205 128.064 83.1285 128.064ZM85.3005 129V127.284L85.3725 125.808L85.2525 124.332V120.096H86.4045V129H85.3005ZM91.3082 129.072C90.6682 129.072 90.1002 128.932 89.6042 128.652C89.1082 128.372 88.7162 127.988 88.4282 127.5C88.1402 127.004 87.9962 126.444 87.9962 125.82C87.9962 125.188 88.1402 124.628 88.4282 124.14C88.7162 123.652 89.1082 123.272 89.6042 123C90.1002 122.72 90.6682 122.58 91.3082 122.58C91.9402 122.58 92.5042 122.72 93.0002 123C93.5042 123.272 93.8962 123.652 94.1762 124.14C94.4642 124.62 94.6082 125.18 94.6082 125.82C94.6082 126.452 94.4642 127.012 94.1762 127.5C93.8962 127.988 93.5042 128.372 93.0002 128.652C92.5042 128.932 91.9402 129.072 91.3082 129.072ZM91.3082 128.064C91.7162 128.064 92.0802 127.972 92.4002 127.788C92.7282 127.604 92.9842 127.344 93.1682 127.008C93.3522 126.664 93.4442 126.268 93.4442 125.82C93.4442 125.364 93.3522 124.972 93.1682 124.644C92.9842 124.308 92.7282 124.048 92.4002 123.864C92.0802 123.68 91.7162 123.588 91.3082 123.588C90.9002 123.588 90.5362 123.68 90.2162 123.864C89.8962 124.048 89.6402 124.308 89.4482 124.644C89.2562 124.972 89.1602 125.364 89.1602 125.82C89.1602 126.268 89.2562 126.664 89.4482 127.008C89.6402 127.344 89.8962 127.604 90.2162 127.788C90.5362 127.972 90.9002 128.064 91.3082 128.064ZM96.2014 129V122.64H97.3534V129H96.2014ZM96.7774 121.416C96.5534 121.416 96.3654 121.344 96.2134 121.2C96.0694 121.056 95.9974 120.88 95.9974 120.672C95.9974 120.456 96.0694 120.276 96.2134 120.132C96.3654 119.988 96.5534 119.916 96.7774 119.916C97.0014 119.916 97.1854 119.988 97.3294 120.132C97.4814 120.268 97.5574 120.44 97.5574 120.648C97.5574 120.864 97.4854 121.048 97.3414 121.2C97.1974 121.344 97.0094 121.416 96.7774 121.416ZM101.377 129.072C100.849 129.072 100.345 129 99.8649 128.856C99.3929 128.712 99.0209 128.536 98.7489 128.328L99.2289 127.416C99.5009 127.6 99.8369 127.756 100.237 127.884C100.637 128.012 101.045 128.076 101.461 128.076C101.997 128.076 102.381 128 102.613 127.848C102.853 127.696 102.973 127.484 102.973 127.212C102.973 127.012 102.901 126.856 102.757 126.744C102.613 126.632 102.421 126.548 102.181 126.492C101.949 126.436 101.689 126.388 101.401 126.348C101.113 126.3 100.825 126.244 100.537 126.18C100.249 126.108 99.9849 126.012 99.7449 125.892C99.5049 125.764 99.3129 125.592 99.1689 125.376C99.0249 125.152 98.9529 124.856 98.9529 124.488C98.9529 124.104 99.0609 123.768 99.2769 123.48C99.4929 123.192 99.7969 122.972 100.189 122.82C100.589 122.66 101.061 122.58 101.605 122.58C102.021 122.58 102.441 122.632 102.865 122.736C103.297 122.832 103.649 122.972 103.921 123.156L103.429 124.068C103.141 123.876 102.841 123.744 102.529 123.672C102.217 123.6 101.905 123.564 101.593 123.564C101.089 123.564 100.713 123.648 100.465 123.816C100.217 123.976 100.093 124.184 100.093 124.44C100.093 124.656 100.165 124.824 100.309 124.944C100.461 125.056 100.653 125.144 100.885 125.208C101.125 125.272 101.389 125.328 101.677 125.376C101.965 125.416 102.253 125.472 102.541 125.544C102.829 125.608 103.089 125.7 103.321 125.82C103.561 125.94 103.753 126.108 103.897 126.324C104.049 126.54 104.125 126.828 104.125 127.188C104.125 127.572 104.013 127.904 103.789 128.184C103.565 128.464 103.249 128.684 102.841 128.844C102.433 128.996 101.945 129.072 101.377 129.072ZM108.787 129V120.096H109.939V129H108.787ZM116.087 129V127.656L116.027 127.404V125.112C116.027 124.624 115.883 124.248 115.595 123.984C115.315 123.712 114.891 123.576 114.323 123.576C113.947 123.576 113.579 123.64 113.219 123.768C112.859 123.888 112.555 124.052 112.307 124.26L111.827 123.396C112.155 123.132 112.547 122.932 113.003 122.796C113.467 122.652 113.951 122.58 114.455 122.58C115.327 122.58 115.999 122.792 116.471 123.216C116.943 123.64 117.179 124.288 117.179 125.16V129H116.087ZM113.999 129.072C113.527 129.072 113.111 128.992 112.751 128.832C112.399 128.672 112.127 128.452 111.935 128.172C111.743 127.884 111.647 127.56 111.647 127.2C111.647 126.856 111.727 126.544 111.887 126.264C112.055 125.984 112.323 125.76 112.691 125.592C113.067 125.424 113.571 125.34 114.203 125.34H116.219V126.168H114.251C113.675 126.168 113.287 126.264 113.087 126.456C112.887 126.648 112.787 126.88 112.787 127.152C112.787 127.464 112.911 127.716 113.159 127.908C113.407 128.092 113.751 128.184 114.191 128.184C114.623 128.184 114.999 128.088 115.319 127.896C115.647 127.704 115.883 127.424 116.027 127.056L116.255 127.848C116.103 128.224 115.835 128.524 115.451 128.748C115.067 128.964 114.583 129.072 113.999 129.072ZM121.939 129.072C121.323 129.072 120.771 128.936 120.283 128.664C119.803 128.392 119.423 128.012 119.143 127.524C118.863 127.036 118.723 126.468 118.723 125.82C118.723 125.172 118.863 124.608 119.143 124.128C119.423 123.64 119.803 123.26 120.283 122.988C120.771 122.716 121.323 122.58 121.939 122.58C122.475 122.58 122.959 122.7 123.391 122.94C123.823 123.18 124.167 123.54 124.423 124.02C124.687 124.5 124.819 125.1 124.819 125.82C124.819 126.54 124.691 127.14 124.435 127.62C124.187 128.1 123.847 128.464 123.415 128.712C122.983 128.952 122.491 129.072 121.939 129.072ZM122.035 128.064C122.435 128.064 122.795 127.972 123.115 127.788C123.443 127.604 123.699 127.344 123.883 127.008C124.075 126.664 124.171 126.268 124.171 125.82C124.171 125.364 124.075 124.972 123.883 124.644C123.699 124.308 123.443 124.048 123.115 123.864C122.795 123.68 122.435 123.588 122.035 123.588C121.627 123.588 121.263 123.68 120.943 123.864C120.623 124.048 120.367 124.308 120.175 124.644C119.983 124.972 119.887 125.364 119.887 125.82C119.887 126.268 119.983 126.664 120.175 127.008C120.367 127.344 120.623 127.604 120.943 127.788C121.263 127.972 121.627 128.064 122.035 128.064ZM124.207 129V127.284L124.279 125.808L124.159 124.332V120.096H125.311V129H124.207ZM130.214 129.072C129.574 129.072 129.006 128.932 128.51 128.652C128.014 128.372 127.622 127.988 127.334 127.5C127.046 127.004 126.902 126.444 126.902 125.82C126.902 125.188 127.046 124.628 127.334 124.14C127.622 123.652 128.014 123.272 128.51 123C129.006 122.72 129.574 122.58 130.214 122.58C130.846 122.58 131.41 122.72 131.906 123C132.41 123.272 132.802 123.652 133.082 124.14C133.37 124.62 133.514 125.18 133.514 125.82C133.514 126.452 133.37 127.012 133.082 127.5C132.802 127.988 132.41 128.372 131.906 128.652C131.41 128.932 130.846 129.072 130.214 129.072ZM130.214 128.064C130.622 128.064 130.986 127.972 131.306 127.788C131.634 127.604 131.89 127.344 132.074 127.008C132.258 126.664 132.35 126.268 132.35 125.82C132.35 125.364 132.258 124.972 132.074 124.644C131.89 124.308 131.634 124.048 131.306 123.864C130.986 123.68 130.622 123.588 130.214 123.588C129.806 123.588 129.442 123.68 129.122 123.864C128.802 124.048 128.546 124.308 128.354 124.644C128.162 124.972 128.066 125.364 128.066 125.82C128.066 126.268 128.162 126.664 128.354 127.008C128.546 127.344 128.802 127.604 129.122 127.788C129.442 127.972 129.806 128.064 130.214 128.064ZM136.932 129.072C136.404 129.072 135.9 129 135.42 128.856C134.948 128.712 134.576 128.536 134.304 128.328L134.784 127.416C135.056 127.6 135.392 127.756 135.792 127.884C136.192 128.012 136.6 128.076 137.016 128.076C137.552 128.076 137.936 128 138.168 127.848C138.408 127.696 138.528 127.484 138.528 127.212C138.528 127.012 138.456 126.856 138.312 126.744C138.168 126.632 137.976 126.548 137.736 126.492C137.504 126.436 137.244 126.388 136.956 126.348C136.668 126.3 136.38 126.244 136.092 126.18C135.804 126.108 135.54 126.012 135.3 125.892C135.06 125.764 134.868 125.592 134.724 125.376C134.58 125.152 134.508 124.856 134.508 124.488C134.508 124.104 134.616 123.768 134.832 123.48C135.048 123.192 135.352 122.972 135.744 122.82C136.144 122.66 136.616 122.58 137.16 122.58C137.576 122.58 137.996 122.632 138.42 122.736C138.852 122.832 139.204 122.972 139.476 123.156L138.984 124.068C138.696 123.876 138.396 123.744 138.084 123.672C137.772 123.6 137.46 123.564 137.148 123.564C136.644 123.564 136.268 123.648 136.02 123.816C135.772 123.976 135.648 124.184 135.648 124.44C135.648 124.656 135.72 124.824 135.864 124.944C136.016 125.056 136.208 125.144 136.44 125.208C136.68 125.272 136.944 125.328 137.232 125.376C137.52 125.416 137.808 125.472 138.096 125.544C138.384 125.608 138.644 125.7 138.876 125.82C139.116 125.94 139.308 126.108 139.452 126.324C139.604 126.54 139.68 126.828 139.68 127.188C139.68 127.572 139.568 127.904 139.344 128.184C139.12 128.464 138.804 128.684 138.396 128.844C137.988 128.996 137.5 129.072 136.932 129.072ZM146.97 129.072C146.354 129.072 145.802 128.936 145.314 128.664C144.834 128.392 144.454 128.012 144.174 127.524C143.894 127.036 143.754 126.468 143.754 125.82C143.754 125.172 143.894 124.608 144.174 124.128C144.454 123.64 144.834 123.26 145.314 122.988C145.802 122.716 146.354 122.58 146.97 122.58C147.506 122.58 147.99 122.7 148.422 122.94C148.854 123.18 149.198 123.54 149.454 124.02C149.718 124.5 149.85 125.1 149.85 125.82C149.85 126.54 149.722 127.14 149.466 127.62C149.218 128.1 148.878 128.464 148.446 128.712C148.014 128.952 147.522 129.072 146.97 129.072ZM147.066 128.064C147.466 128.064 147.826 127.972 148.146 127.788C148.474 127.604 148.73 127.344 148.914 127.008C149.106 126.664 149.202 126.268 149.202 125.82C149.202 125.364 149.106 124.972 148.914 124.644C148.73 124.308 148.474 124.048 148.146 123.864C147.826 123.68 147.466 123.588 147.066 123.588C146.658 123.588 146.294 123.68 145.974 123.864C145.654 124.048 145.398 124.308 145.206 124.644C145.014 124.972 144.918 125.364 144.918 125.82C144.918 126.268 145.014 126.664 145.206 127.008C145.398 127.344 145.654 127.604 145.974 127.788C146.294 127.972 146.658 128.064 147.066 128.064ZM149.238 129V127.284L149.31 125.808L149.19 124.332V120.096H150.342V129H149.238ZM156.47 129V127.656L156.41 127.404V125.112C156.41 124.624 156.266 124.248 155.978 123.984C155.698 123.712 155.274 123.576 154.706 123.576C154.33 123.576 153.962 123.64 153.602 123.768C153.242 123.888 152.938 124.052 152.69 124.26L152.21 123.396C152.538 123.132 152.93 122.932 153.386 122.796C153.85 122.652 154.334 122.58 154.838 122.58C155.71 122.58 156.382 122.792 156.854 123.216C157.326 123.64 157.562 124.288 157.562 125.16V129H156.47ZM154.382 129.072C153.91 129.072 153.494 128.992 153.134 128.832C152.782 128.672 152.51 128.452 152.318 128.172C152.126 127.884 152.03 127.56 152.03 127.2C152.03 126.856 152.11 126.544 152.27 126.264C152.438 125.984 152.706 125.76 153.074 125.592C153.45 125.424 153.954 125.34 154.586 125.34H156.602V126.168H154.634C154.058 126.168 153.67 126.264 153.47 126.456C153.27 126.648 153.17 126.88 153.17 127.152C153.17 127.464 153.294 127.716 153.542 127.908C153.79 128.092 154.134 128.184 154.574 128.184C155.006 128.184 155.382 128.088 155.702 127.896C156.03 127.704 156.266 127.424 156.41 127.056L156.638 127.848C156.486 128.224 156.218 128.524 155.834 128.748C155.45 128.964 154.966 129.072 154.382 129.072ZM31.1428 144V137.076C31.1428 136.452 31.3228 135.956 31.6828 135.588C32.0508 135.212 32.5708 135.024 33.2428 135.024C33.4908 135.024 33.7268 135.056 33.9508 135.12C34.1828 135.176 34.3788 135.268 34.5388 135.396L34.1908 136.272C34.0708 136.176 33.9348 136.104 33.7828 136.056C33.6308 136 33.4708 135.972 33.3028 135.972C32.9668 135.972 32.7108 136.068 32.5348 136.26C32.3588 136.444 32.2708 136.72 32.2708 137.088V137.94L32.2948 138.468V144H31.1428ZM30.0628 138.588V137.64H34.1188V138.588H30.0628ZM37.8355 144.072C37.1955 144.072 36.6275 143.932 36.1315 143.652C35.6355 143.372 35.2435 142.988 34.9555 142.5C34.6675 142.004 34.5235 141.444 34.5235 140.82C34.5235 140.188 34.6675 139.628 34.9555 139.14C35.2435 138.652 35.6355 138.272 36.1315 138C36.6275 137.72 37.1955 137.58 37.8355 137.58C38.4675 137.58 39.0315 137.72 39.5275 138C40.0315 138.272 40.4235 138.652 40.7035 139.14C40.9915 139.62 41.1355 140.18 41.1355 140.82C41.1355 141.452 40.9915 142.012 40.7035 142.5C40.4235 142.988 40.0315 143.372 39.5275 143.652C39.0315 143.932 38.4675 144.072 37.8355 144.072ZM37.8355 143.064C38.2435 143.064 38.6075 142.972 38.9275 142.788C39.2555 142.604 39.5115 142.344 39.6955 142.008C39.8795 141.664 39.9715 141.268 39.9715 140.82C39.9715 140.364 39.8795 139.972 39.6955 139.644C39.5115 139.308 39.2555 139.048 38.9275 138.864C38.6075 138.68 38.2435 138.588 37.8355 138.588C37.4275 138.588 37.0635 138.68 36.7435 138.864C36.4235 139.048 36.1675 139.308 35.9755 139.644C35.7835 139.972 35.6875 140.364 35.6875 140.82C35.6875 141.268 35.7835 141.664 35.9755 142.008C36.1675 142.344 36.4235 142.604 36.7435 142.788C37.0635 142.972 37.4275 143.064 37.8355 143.064ZM42.7287 144V135.096H43.8807V144H42.7287ZM49.4763 137.58C49.9963 137.58 50.4523 137.68 50.8443 137.88C51.2443 138.08 51.5563 138.384 51.7803 138.792C52.0043 139.2 52.1163 139.716 52.1163 140.34V144H50.9643V140.472C50.9643 139.856 50.8123 139.392 50.5083 139.08C50.2123 138.768 49.7923 138.612 49.2483 138.612C48.8403 138.612 48.4843 138.692 48.1803 138.852C47.8763 139.012 47.6403 139.248 47.4723 139.56C47.3123 139.872 47.2323 140.26 47.2323 140.724V144H46.0803V135.096H47.2323V139.356L47.0043 138.9C47.2123 138.484 47.5323 138.16 47.9643 137.928C48.3963 137.696 48.9003 137.58 49.4763 137.58ZM58.1963 144V142.656L58.1363 142.404V140.112C58.1363 139.624 57.9923 139.248 57.7043 138.984C57.4243 138.712 57.0003 138.576 56.4323 138.576C56.0563 138.576 55.6883 138.64 55.3283 138.768C54.9683 138.888 54.6643 139.052 54.4163 139.26L53.9363 138.396C54.2643 138.132 54.6563 137.932 55.1123 137.796C55.5763 137.652 56.0603 137.58 56.5643 137.58C57.4363 137.58 58.1083 137.792 58.5803 138.216C59.0523 138.64 59.2883 139.288 59.2883 140.16V144H58.1963ZM56.1083 144.072C55.6363 144.072 55.2203 143.992 54.8603 143.832C54.5083 143.672 54.2363 143.452 54.0443 143.172C53.8523 142.884 53.7563 142.56 53.7563 142.2C53.7563 141.856 53.8363 141.544 53.9963 141.264C54.1643 140.984 54.4323 140.76 54.8003 140.592C55.1763 140.424 55.6803 140.34 56.3123 140.34H58.3283V141.168H56.3603C55.7843 141.168 55.3963 141.264 55.1963 141.456C54.9963 141.648 54.8963 141.88 54.8963 142.152C54.8963 142.464 55.0203 142.716 55.2683 142.908C55.5163 143.092 55.8603 143.184 56.3003 143.184C56.7323 143.184 57.1083 143.088 57.4283 142.896C57.7563 142.704 57.9923 142.424 58.1363 142.056L58.3643 142.848C58.2123 143.224 57.9443 143.524 57.5603 143.748C57.1763 143.964 56.6923 144.072 56.1083 144.072ZM67.4748 144.072C66.7948 144.072 66.1948 143.932 65.6748 143.652C65.1628 143.372 64.7628 142.988 64.4748 142.5C64.1948 142.012 64.0548 141.452 64.0548 140.82C64.0548 140.188 64.1908 139.628 64.4628 139.14C64.7428 138.652 65.1228 138.272 65.6028 138C66.0908 137.72 66.6388 137.58 67.2468 137.58C67.8628 137.58 68.4068 137.716 68.8788 137.988C69.3508 138.26 69.7188 138.644 69.9828 139.14C70.2548 139.628 70.3908 140.2 70.3908 140.856C70.3908 140.904 70.3868 140.96 70.3788 141.024C70.3788 141.088 70.3748 141.148 70.3668 141.204H64.9548V140.376H69.7668L69.2988 140.664C69.3068 140.256 69.2228 139.892 69.0468 139.572C68.8708 139.252 68.6268 139.004 68.3148 138.828C68.0108 138.644 67.6548 138.552 67.2468 138.552C66.8468 138.552 66.4908 138.644 66.1788 138.828C65.8668 139.004 65.6228 139.256 65.4468 139.584C65.2708 139.904 65.1828 140.272 65.1828 140.688V140.88C65.1828 141.304 65.2788 141.684 65.4708 142.02C65.6708 142.348 65.9468 142.604 66.2988 142.788C66.6508 142.972 67.0548 143.064 67.5108 143.064C67.8868 143.064 68.2268 143 68.5308 142.872C68.8428 142.744 69.1148 142.552 69.3468 142.296L69.9828 143.04C69.6948 143.376 69.3348 143.632 68.9028 143.808C68.4788 143.984 68.0028 144.072 67.4748 144.072ZM79.9464 137.58C80.4584 137.58 80.9104 137.68 81.3024 137.88C81.6944 138.08 81.9984 138.384 82.2144 138.792C82.4384 139.2 82.5504 139.716 82.5504 140.34V144H81.3984V140.472C81.3984 139.856 81.2544 139.392 80.9664 139.08C80.6784 138.768 80.2744 138.612 79.7544 138.612C79.3704 138.612 79.0344 138.692 78.7464 138.852C78.4584 139.012 78.2344 139.248 78.0744 139.56C77.9224 139.872 77.8464 140.26 77.8464 140.724V144H76.6944V140.472C76.6944 139.856 76.5504 139.392 76.2624 139.08C75.9824 138.768 75.5784 138.612 75.0504 138.612C74.6744 138.612 74.3424 138.692 74.0544 138.852C73.7664 139.012 73.5424 139.248 73.3824 139.56C73.2224 139.872 73.1424 140.26 73.1424 140.724V144H71.9904V137.64H73.0944V139.332L72.9144 138.9C73.1144 138.484 73.4224 138.16 73.8384 137.928C74.2544 137.696 74.7384 137.58 75.2904 137.58C75.8984 137.58 76.4224 137.732 76.8624 138.036C77.3024 138.332 77.5904 138.784 77.7264 139.392L77.2584 139.2C77.4504 138.712 77.7864 138.32 78.2664 138.024C78.7464 137.728 79.3064 137.58 79.9464 137.58ZM90.5208 144.072C89.9048 144.072 89.3528 143.936 88.8648 143.664C88.3848 143.392 88.0048 143.012 87.7248 142.524C87.4448 142.036 87.3048 141.468 87.3048 140.82C87.3048 140.172 87.4448 139.608 87.7248 139.128C88.0048 138.64 88.3848 138.26 88.8648 137.988C89.3528 137.716 89.9048 137.58 90.5208 137.58C91.0568 137.58 91.5408 137.7 91.9728 137.94C92.4048 138.18 92.7488 138.54 93.0048 139.02C93.2688 139.5 93.4008 140.1 93.4008 140.82C93.4008 141.54 93.2728 142.14 93.0168 142.62C92.7688 143.1 92.4288 143.464 91.9968 143.712C91.5648 143.952 91.0728 144.072 90.5208 144.072ZM90.6168 143.064C91.0168 143.064 91.3768 142.972 91.6968 142.788C92.0248 142.604 92.2808 142.344 92.4648 142.008C92.6568 141.664 92.7528 141.268 92.7528 140.82C92.7528 140.364 92.6568 139.972 92.4648 139.644C92.2808 139.308 92.0248 139.048 91.6968 138.864C91.3768 138.68 91.0168 138.588 90.6168 138.588C90.2088 138.588 89.8448 138.68 89.5248 138.864C89.2048 139.048 88.9488 139.308 88.7568 139.644C88.5648 139.972 88.4688 140.364 88.4688 140.82C88.4688 141.268 88.5648 141.664 88.7568 142.008C88.9488 142.344 89.2048 142.604 89.5248 142.788C89.8448 142.972 90.2088 143.064 90.6168 143.064ZM92.7888 144V142.284L92.8608 140.808L92.7408 139.332V135.096H93.8928V144H92.7888ZM96.0725 144V137.64H97.2245V144H96.0725ZM96.6485 136.416C96.4245 136.416 96.2365 136.344 96.0845 136.2C95.9405 136.056 95.8685 135.88 95.8685 135.672C95.8685 135.456 95.9405 135.276 96.0845 135.132C96.2365 134.988 96.4245 134.916 96.6485 134.916C96.8725 134.916 97.0565 134.988 97.2005 135.132C97.3525 135.268 97.4285 135.44 97.4285 135.648C97.4285 135.864 97.3565 136.048 97.2125 136.2C97.0685 136.344 96.8805 136.416 96.6485 136.416ZM99.424 144V137.64H100.528V139.368L100.42 138.936C100.596 138.496 100.892 138.16 101.308 137.928C101.724 137.696 102.236 137.58 102.844 137.58V138.696C102.796 138.688 102.748 138.684 102.7 138.684C102.66 138.684 102.62 138.684 102.58 138.684C101.964 138.684 101.476 138.868 101.116 139.236C100.756 139.604 100.576 140.136 100.576 140.832V144H99.424ZM107.037 144.072C106.357 144.072 105.757 143.932 105.237 143.652C104.725 143.372 104.325 142.988 104.037 142.5C103.757 142.012 103.617 141.452 103.617 140.82C103.617 140.188 103.753 139.628 104.025 139.14C104.305 138.652 104.685 138.272 105.165 138C105.653 137.72 106.201 137.58 106.809 137.58C107.425 137.58 107.969 137.716 108.441 137.988C108.913 138.26 109.281 138.644 109.545 139.14C109.817 139.628 109.953 140.2 109.953 140.856C109.953 140.904 109.949 140.96 109.941 141.024C109.941 141.088 109.937 141.148 109.929 141.204H104.517V140.376H109.329L108.861 140.664C108.869 140.256 108.785 139.892 108.609 139.572C108.433 139.252 108.189 139.004 107.877 138.828C107.573 138.644 107.217 138.552 106.809 138.552C106.409 138.552 106.053 138.644 105.741 138.828C105.429 139.004 105.185 139.256 105.009 139.584C104.833 139.904 104.745 140.272 104.745 140.688V140.88C104.745 141.304 104.841 141.684 105.033 142.02C105.233 142.348 105.509 142.604 105.861 142.788C106.213 142.972 106.617 143.064 107.073 143.064C107.449 143.064 107.789 143 108.093 142.872C108.405 142.744 108.677 142.552 108.909 142.296L109.545 143.04C109.257 143.376 108.897 143.632 108.465 143.808C108.041 143.984 107.565 144.072 107.037 144.072ZM114.325 144.072C113.677 144.072 113.097 143.932 112.585 143.652C112.081 143.372 111.685 142.988 111.397 142.5C111.109 142.012 110.965 141.452 110.965 140.82C110.965 140.188 111.109 139.628 111.397 139.14C111.685 138.652 112.081 138.272 112.585 138C113.097 137.72 113.677 137.58 114.325 137.58C114.901 137.58 115.413 137.696 115.861 137.928C116.317 138.152 116.669 138.488 116.917 138.936L116.041 139.5C115.833 139.188 115.577 138.96 115.273 138.816C114.977 138.664 114.657 138.588 114.313 138.588C113.897 138.588 113.525 138.68 113.197 138.864C112.869 139.048 112.609 139.308 112.417 139.644C112.225 139.972 112.129 140.364 112.129 140.82C112.129 141.276 112.225 141.672 112.417 142.008C112.609 142.344 112.869 142.604 113.197 142.788C113.525 142.972 113.897 143.064 114.313 143.064C114.657 143.064 114.977 142.992 115.273 142.848C115.577 142.696 115.833 142.464 116.041 142.152L116.917 142.704C116.669 143.144 116.317 143.484 115.861 143.724C115.413 143.956 114.901 144.072 114.325 144.072ZM113.761 146.688C113.553 146.688 113.361 146.664 113.185 146.616C113.009 146.576 112.845 146.512 112.693 146.424L112.945 145.836C113.073 145.908 113.201 145.96 113.329 145.992C113.465 146.024 113.609 146.04 113.761 146.04C113.993 146.04 114.161 145.996 114.265 145.908C114.377 145.828 114.433 145.712 114.433 145.56C114.433 145.416 114.377 145.3 114.265 145.212C114.161 145.132 113.989 145.092 113.749 145.092H113.425L113.725 143.916H114.385L114.205 144.6C114.549 144.632 114.809 144.74 114.985 144.924C115.161 145.108 115.249 145.332 115.249 145.596C115.249 145.932 115.113 146.196 114.841 146.388C114.569 146.588 114.209 146.688 113.761 146.688ZM122.356 144V142.656L122.296 142.404V140.112C122.296 139.624 122.152 139.248 121.864 138.984C121.584 138.712 121.16 138.576 120.592 138.576C120.216 138.576 119.848 138.64 119.488 138.768C119.128 138.888 118.824 139.052 118.576 139.26L118.096 138.396C118.424 138.132 118.816 137.932 119.272 137.796C119.736 137.652 120.22 137.58 120.724 137.58C121.596 137.58 122.268 137.792 122.74 138.216C123.212 138.64 123.448 139.288 123.448 140.16V144H122.356ZM120.268 144.072C119.796 144.072 119.38 143.992 119.02 143.832C118.668 143.672 118.396 143.452 118.204 143.172C118.012 142.884 117.916 142.56 117.916 142.2C117.916 141.856 117.996 141.544 118.156 141.264C118.324 140.984 118.592 140.76 118.96 140.592C119.336 140.424 119.84 140.34 120.472 140.34H122.488V141.168H120.52C119.944 141.168 119.556 141.264 119.356 141.456C119.156 141.648 119.056 141.88 119.056 142.152C119.056 142.464 119.18 142.716 119.428 142.908C119.676 143.092 120.02 143.184 120.46 143.184C120.892 143.184 121.268 143.088 121.588 142.896C121.916 142.704 122.152 142.424 122.296 142.056L122.524 142.848C122.372 143.224 122.104 143.524 121.72 143.748C121.336 143.964 120.852 144.072 120.268 144.072ZM121.648 136.68C121.456 136.68 121.284 136.64 121.132 136.56C120.988 136.48 120.856 136.388 120.736 136.284C120.616 136.172 120.5 136.076 120.388 135.996C120.276 135.916 120.164 135.876 120.052 135.876C119.876 135.876 119.732 135.944 119.62 136.08C119.516 136.208 119.456 136.388 119.44 136.62H118.792C118.808 136.172 118.92 135.816 119.128 135.552C119.336 135.288 119.616 135.156 119.968 135.156C120.16 135.156 120.332 135.2 120.484 135.288C120.636 135.368 120.772 135.464 120.892 135.576C121.012 135.68 121.124 135.772 121.228 135.852C121.34 135.932 121.452 135.972 121.564 135.972C121.74 135.972 121.884 135.908 121.996 135.78C122.108 135.652 122.168 135.476 122.176 135.252H122.824C122.816 135.676 122.704 136.02 122.488 136.284C122.28 136.548 122 136.68 121.648 136.68ZM128.304 144.072C127.664 144.072 127.096 143.932 126.6 143.652C126.104 143.372 125.712 142.988 125.424 142.5C125.136 142.004 124.992 141.444 124.992 140.82C124.992 140.188 125.136 139.628 125.424 139.14C125.712 138.652 126.104 138.272 126.6 138C127.096 137.72 127.664 137.58 128.304 137.58C128.936 137.58 129.5 137.72 129.996 138C130.5 138.272 130.892 138.652 131.172 139.14C131.46 139.62 131.604 140.18 131.604 140.82C131.604 141.452 131.46 142.012 131.172 142.5C130.892 142.988 130.5 143.372 129.996 143.652C129.5 143.932 128.936 144.072 128.304 144.072ZM128.304 143.064C128.712 143.064 129.076 142.972 129.396 142.788C129.724 142.604 129.98 142.344 130.164 142.008C130.348 141.664 130.44 141.268 130.44 140.82C130.44 140.364 130.348 139.972 130.164 139.644C129.98 139.308 129.724 139.048 129.396 138.864C129.076 138.68 128.712 138.588 128.304 138.588C127.896 138.588 127.532 138.68 127.212 138.864C126.892 139.048 126.636 139.308 126.444 139.644C126.252 139.972 126.156 140.364 126.156 140.82C126.156 141.268 126.252 141.664 126.444 142.008C126.636 142.344 126.892 142.604 127.212 142.788C127.532 142.972 127.896 143.064 128.304 143.064ZM140.368 144V142.656L140.308 142.404V140.112C140.308 139.624 140.164 139.248 139.876 138.984C139.596 138.712 139.172 138.576 138.604 138.576C138.228 138.576 137.86 138.64 137.5 138.768C137.14 138.888 136.836 139.052 136.588 139.26L136.108 138.396C136.436 138.132 136.828 137.932 137.284 137.796C137.748 137.652 138.232 137.58 138.736 137.58C139.608 137.58 140.28 137.792 140.752 138.216C141.224 138.64 141.46 139.288 141.46 140.16V144H140.368ZM138.28 144.072C137.808 144.072 137.392 143.992 137.032 143.832C136.68 143.672 136.408 143.452 136.216 143.172C136.024 142.884 135.928 142.56 135.928 142.2C135.928 141.856 136.008 141.544 136.168 141.264C136.336 140.984 136.604 140.76 136.972 140.592C137.348 140.424 137.852 140.34 138.484 140.34H140.5V141.168H138.532C137.956 141.168 137.568 141.264 137.368 141.456C137.168 141.648 137.068 141.88 137.068 142.152C137.068 142.464 137.192 142.716 137.44 142.908C137.688 143.092 138.032 143.184 138.472 143.184C138.904 143.184 139.28 143.088 139.6 142.896C139.928 142.704 140.164 142.424 140.308 142.056L140.536 142.848C140.384 143.224 140.116 143.524 139.732 143.748C139.348 143.964 138.864 144.072 138.28 144.072ZM146.316 144.072C145.676 144.072 145.108 143.932 144.612 143.652C144.116 143.372 143.724 142.988 143.436 142.5C143.148 142.004 143.004 141.444 143.004 140.82C143.004 140.188 143.148 139.628 143.436 139.14C143.724 138.652 144.116 138.272 144.612 138C145.108 137.72 145.676 137.58 146.316 137.58C146.948 137.58 147.512 137.72 148.008 138C148.512 138.272 148.904 138.652 149.184 139.14C149.472 139.62 149.616 140.18 149.616 140.82C149.616 141.452 149.472 142.012 149.184 142.5C148.904 142.988 148.512 143.372 148.008 143.652C147.512 143.932 146.948 144.072 146.316 144.072ZM146.316 143.064C146.724 143.064 147.088 142.972 147.408 142.788C147.736 142.604 147.992 142.344 148.176 142.008C148.36 141.664 148.452 141.268 148.452 140.82C148.452 140.364 148.36 139.972 148.176 139.644C147.992 139.308 147.736 139.048 147.408 138.864C147.088 138.68 146.724 138.588 146.316 138.588C145.908 138.588 145.544 138.68 145.224 138.864C144.904 139.048 144.648 139.308 144.456 139.644C144.264 139.972 144.168 140.364 144.168 140.82C144.168 141.268 144.264 141.664 144.456 142.008C144.648 142.344 144.904 142.604 145.224 142.788C145.544 142.972 145.908 143.064 146.316 143.064ZM72.7527 159.072C72.1047 159.072 71.5247 158.932 71.0127 158.652C70.5087 158.372 70.1127 157.988 69.8247 157.5C69.5367 157.012 69.3927 156.452 69.3927 155.82C69.3927 155.188 69.5367 154.628 69.8247 154.14C70.1127 153.652 70.5087 153.272 71.0127 153C71.5247 152.72 72.1047 152.58 72.7527 152.58C73.3287 152.58 73.8407 152.696 74.2887 152.928C74.7447 153.152 75.0967 153.488 75.3447 153.936L74.4687 154.5C74.2607 154.188 74.0047 153.96 73.7007 153.816C73.4047 153.664 73.0847 153.588 72.7407 153.588C72.3247 153.588 71.9527 153.68 71.6247 153.864C71.2967 154.048 71.0367 154.308 70.8447 154.644C70.6527 154.972 70.5567 155.364 70.5567 155.82C70.5567 156.276 70.6527 156.672 70.8447 157.008C71.0367 157.344 71.2967 157.604 71.6247 157.788C71.9527 157.972 72.3247 158.064 72.7407 158.064C73.0847 158.064 73.4047 157.992 73.7007 157.848C74.0047 157.696 74.2607 157.464 74.4687 157.152L75.3447 157.704C75.0967 158.144 74.7447 158.484 74.2887 158.724C73.8407 158.956 73.3287 159.072 72.7527 159.072ZM79.5744 159.072C78.8944 159.072 78.2944 158.932 77.7744 158.652C77.2624 158.372 76.8624 157.988 76.5744 157.5C76.2944 157.012 76.1544 156.452 76.1544 155.82C76.1544 155.188 76.2904 154.628 76.5624 154.14C76.8424 153.652 77.2224 153.272 77.7024 153C78.1904 152.72 78.7384 152.58 79.3464 152.58C79.9624 152.58 80.5064 152.716 80.9784 152.988C81.4504 153.26 81.8184 153.644 82.0824 154.14C82.3544 154.628 82.4904 155.2 82.4904 155.856C82.4904 155.904 82.4864 155.96 82.4784 156.024C82.4784 156.088 82.4744 156.148 82.4664 156.204H77.0544V155.376H81.8664L81.3984 155.664C81.4064 155.256 81.3224 154.892 81.1464 154.572C80.9704 154.252 80.7264 154.004 80.4144 153.828C80.1104 153.644 79.7544 153.552 79.3464 153.552C78.9464 153.552 78.5904 153.644 78.2784 153.828C77.9664 154.004 77.7224 154.256 77.5464 154.584C77.3704 154.904 77.2824 155.272 77.2824 155.688V155.88C77.2824 156.304 77.3784 156.684 77.5704 157.02C77.7704 157.348 78.0464 157.604 78.3984 157.788C78.7504 157.972 79.1544 158.064 79.6104 158.064C79.9864 158.064 80.3264 158 80.6304 157.872C80.9424 157.744 81.2144 157.552 81.4464 157.296L82.0824 158.04C81.7944 158.376 81.4344 158.632 81.0024 158.808C80.5784 158.984 80.1024 159.072 79.5744 159.072ZM87.486 152.58C88.006 152.58 88.462 152.68 88.854 152.88C89.254 153.08 89.566 153.384 89.79 153.792C90.014 154.2 90.126 154.716 90.126 155.34V159H88.974V155.472C88.974 154.856 88.822 154.392 88.518 154.08C88.222 153.768 87.802 153.612 87.258 153.612C86.85 153.612 86.494 153.692 86.19 153.852C85.886 154.012 85.65 154.248 85.482 154.56C85.322 154.872 85.242 155.26 85.242 155.724V159H84.09V152.64H85.194V154.356L85.014 153.9C85.222 153.484 85.542 153.16 85.974 152.928C86.406 152.696 86.91 152.58 87.486 152.58ZM94.442 159.072C93.802 159.072 93.306 158.9 92.954 158.556C92.602 158.212 92.426 157.72 92.426 157.08V151.248H93.578V157.032C93.578 157.376 93.662 157.64 93.83 157.824C94.006 158.008 94.254 158.1 94.574 158.1C94.934 158.1 95.234 158 95.474 157.8L95.834 158.628C95.658 158.78 95.446 158.892 95.198 158.964C94.958 159.036 94.706 159.072 94.442 159.072ZM91.346 153.588V152.64H95.402V153.588H91.346ZM97.2268 159V152.64H98.3308V154.368L98.2228 153.936C98.3988 153.496 98.6948 153.16 99.1108 152.928C99.5268 152.696 100.039 152.58 100.647 152.58V153.696C100.599 153.688 100.551 153.684 100.503 153.684C100.463 153.684 100.423 153.684 100.383 153.684C99.7668 153.684 99.2788 153.868 98.9188 154.236C98.5588 154.604 98.3788 155.136 98.3788 155.832V159H97.2268ZM104.732 159.072C104.092 159.072 103.524 158.932 103.028 158.652C102.532 158.372 102.14 157.988 101.852 157.5C101.564 157.004 101.42 156.444 101.42 155.82C101.42 155.188 101.564 154.628 101.852 154.14C102.14 153.652 102.532 153.272 103.028 153C103.524 152.72 104.092 152.58 104.732 152.58C105.364 152.58 105.928 152.72 106.424 153C106.928 153.272 107.32 153.652 107.6 154.14C107.888 154.62 108.032 155.18 108.032 155.82C108.032 156.452 107.888 157.012 107.6 157.5C107.32 157.988 106.928 158.372 106.424 158.652C105.928 158.932 105.364 159.072 104.732 159.072ZM104.732 158.064C105.14 158.064 105.504 157.972 105.824 157.788C106.152 157.604 106.408 157.344 106.592 157.008C106.776 156.664 106.868 156.268 106.868 155.82C106.868 155.364 106.776 154.972 106.592 154.644C106.408 154.308 106.152 154.048 105.824 153.864C105.504 153.68 105.14 153.588 104.732 153.588C104.324 153.588 103.96 153.68 103.64 153.864C103.32 154.048 103.064 154.308 102.872 154.644C102.68 154.972 102.584 155.364 102.584 155.82C102.584 156.268 102.68 156.664 102.872 157.008C103.064 157.344 103.32 157.604 103.64 157.788C103.96 157.972 104.324 158.064 104.732 158.064ZM109.761 159.072C109.537 159.072 109.345 158.996 109.185 158.844C109.025 158.684 108.945 158.484 108.945 158.244C108.945 158.004 109.025 157.808 109.185 157.656C109.345 157.504 109.537 157.428 109.761 157.428C109.977 157.428 110.161 157.504 110.313 157.656C110.473 157.808 110.553 158.004 110.553 158.244C110.553 158.484 110.473 158.684 110.313 158.844C110.161 158.996 109.977 159.072 109.761 159.072Z" fill="#008E86"/>
<rect x="46.2114" y="55" width="63.6396" height="63.6396" transform="rotate(-45 46.2114 55)" fill="#00D8CC" stroke="#00635D" stroke-width="2" stroke-linejoin="round"/>
<path d="M109.711 29.5002L46.2116 55.0002" stroke="#333333" stroke-width="2" stroke-dasharray="4 6"/>
<path d="M109.434 81.8681L46.5017 54.9982" stroke="#333333" stroke-width="2" stroke-dasharray="4 6"/>
<path opacity="0.5" d="M136.211 55L46.2114 55" stroke="#00635D" stroke-width="2"/>
<path d="M86.3838 19.014C85.8393 18.922 85.3232 19.2889 85.2313 19.8335C85.1393 20.378 85.5062 20.8941 86.0508 20.986L86.3838 19.014ZM100.808 47.2629C101.038 47.7651 101.631 47.9859 102.133 47.7561L110.317 44.0115C110.82 43.7817 111.04 43.1883 110.811 42.6861C110.581 42.1839 109.987 41.963 109.485 42.1928L102.211 45.5214L98.882 38.2467C98.6522 37.7445 98.0588 37.5237 97.5566 37.7535C97.0544 37.9833 96.8335 38.5767 97.0633 39.0789L100.808 47.2629ZM86.0508 20.986C92.8207 22.1295 97.4411 25.4402 99.9971 29.8672L101.729 28.8672C98.8373 23.8586 93.663 20.2434 86.3838 19.014L86.0508 20.986ZM99.9971 29.8672C101.246 32.0313 101.885 35.027 101.978 38.1176C102.07 41.2007 101.614 44.2583 100.78 46.498L102.655 47.1956C103.596 44.6663 104.075 41.343 103.977 38.058C103.879 34.7806 103.204 31.421 101.729 28.8672L99.9971 29.8672Z" fill="black"/>
<path d="M86.3838 90.8337C85.8393 90.9257 85.3232 90.5588 85.2313 90.0142C85.1393 89.4696 85.5062 88.9536 86.0508 88.8616L86.3838 90.8337ZM100.808 62.5848C101.038 62.0826 101.631 61.8617 102.133 62.0915L110.317 65.8362C110.82 66.066 111.04 66.6594 110.811 67.1616C110.581 67.6638 109.987 67.8846 109.485 67.6548L102.211 64.3263L98.882 71.6009C98.6522 72.1031 98.0588 72.324 97.5566 72.0942C97.0544 71.8644 96.8335 71.271 97.0633 70.7688L100.808 62.5848ZM86.0508 88.8616C92.8207 87.7182 97.4411 84.4074 99.9971 79.9804L101.729 80.9804C98.8373 85.9891 93.663 89.6042 86.3838 90.8337L86.0508 88.8616ZM99.9971 79.9804C101.246 77.8163 101.885 74.8207 101.978 71.73C102.07 68.647 101.614 65.5894 100.78 63.3497L102.655 62.6521C103.596 65.1814 104.075 68.5046 103.977 71.7896C103.879 75.067 103.204 78.4267 101.729 80.9804L99.9971 79.9804Z" fill="black"/>
</g>
<defs>
<clipPath id="clip0_14_3235">
<rect width="180" height="180" rx="20" fill="white"/>
</clipPath>
<clipPath id="clip1_14_3235">
<path d="M0 30L-1.31134e-06 0L30 -1.31134e-06L30 10C30 21.0457 21.0457 30 10 30L0 30Z" fill="white"/>
</clipPath>
</defs>
</svg>
