<svg width="180" height="180" viewBox="0 0 180 180" fill="none" xmlns="http://www.w3.org/2000/svg">
<g clip-path="url(#clip0_14_3301)">
<rect width="180" height="180" rx="20" fill="#F2F2F2"/>
<g clip-path="url(#clip1_14_3301)">
<path d="M0 30L-1.31134e-06 0L30 -1.31134e-06L30 10C30 21.0457 21.0457 30 10 30L0 30Z" fill="#333333"/>
<path d="M14.7062 14.008C16.2849 14.008 17.4475 14.3227 18.1942 14.952C18.9515 15.5813 19.3302 16.424 19.3302 17.48C19.3302 18.1627 19.1595 18.7867 18.8182 19.352C18.4769 19.9067 17.9542 20.3547 17.2502 20.696C16.5569 21.0267 15.6982 21.192 14.6742 21.192C13.8849 21.192 13.1062 21.0907 12.3382 20.888C11.5809 20.6747 10.9355 20.376 10.4022 19.992L11.4262 18.008C11.8529 18.328 12.3435 18.5787 12.8982 18.76C13.4529 18.9307 14.0235 19.016 14.6102 19.016C15.2609 19.016 15.7729 18.888 16.1462 18.632C16.5195 18.376 16.7062 18.0187 16.7062 17.56C16.7062 17.08 16.5089 16.7173 16.1142 16.472C15.7302 16.2267 15.0582 16.104 14.0982 16.104H11.2342L11.8102 9.8H18.6422V11.88H13.9702L13.7942 14.008H14.7062Z" fill="#F2F2F2"/>
</g>
<path d="M38.6721 122V113.6H41.9481C42.6841 113.6 43.3121 113.716 43.8321 113.948C44.3521 114.18 44.7521 114.516 45.0321 114.956C45.3121 115.396 45.4521 115.92 45.4521 116.528C45.4521 117.136 45.3121 117.66 45.0321 118.1C44.7521 118.532 44.3521 118.868 43.8321 119.108C43.3121 119.34 42.6841 119.456 41.9481 119.456H39.3321L39.8721 118.892V122H38.6721ZM39.8721 119.012L39.3321 118.412H41.9121C42.6801 118.412 43.2601 118.248 43.6521 117.92C44.0521 117.592 44.2521 117.128 44.2521 116.528C44.2521 115.928 44.0521 115.464 43.6521 115.136C43.2601 114.808 42.6801 114.644 41.9121 114.644H39.3321L39.8721 114.044V119.012ZM46.9299 122V115.64H48.0339V117.368L47.9259 116.936C48.1019 116.496 48.3979 116.16 48.8139 115.928C49.2299 115.696 49.7419 115.58 50.3499 115.58V116.696C50.3019 116.688 50.2539 116.684 50.2059 116.684C50.1659 116.684 50.1259 116.684 50.0859 116.684C49.4699 116.684 48.9819 116.868 48.6219 117.236C48.2619 117.604 48.0819 118.136 48.0819 118.832V122H46.9299ZM54.5431 122.072C53.8631 122.072 53.2631 121.932 52.7431 121.652C52.2311 121.372 51.8311 120.988 51.5431 120.5C51.2631 120.012 51.1231 119.452 51.1231 118.82C51.1231 118.188 51.2591 117.628 51.5311 117.14C51.8111 116.652 52.1911 116.272 52.6711 116C53.1591 115.72 53.7071 115.58 54.3151 115.58C54.9311 115.58 55.4751 115.716 55.9471 115.988C56.4191 116.26 56.7871 116.644 57.0511 117.14C57.3231 117.628 57.4591 118.2 57.4591 118.856C57.4591 118.904 57.4551 118.96 57.4471 119.024C57.4471 119.088 57.4431 119.148 57.4351 119.204H52.0231V118.376H56.8351L56.3671 118.664C56.3751 118.256 56.2911 117.892 56.1151 117.572C55.9391 117.252 55.6951 117.004 55.3831 116.828C55.0791 116.644 54.7231 116.552 54.3151 116.552C53.9151 116.552 53.5591 116.644 53.2471 116.828C52.9351 117.004 52.6911 117.256 52.5151 117.584C52.3391 117.904 52.2511 118.272 52.2511 118.688V118.88C52.2511 119.304 52.3471 119.684 52.5391 120.02C52.7391 120.348 53.0151 120.604 53.3671 120.788C53.7191 120.972 54.1231 121.064 54.5791 121.064C54.9551 121.064 55.2951 121 55.5991 120.872C55.9111 120.744 56.1831 120.552 56.4151 120.296L57.0511 121.04C56.7631 121.376 56.4031 121.632 55.9711 121.808C55.5471 121.984 55.0711 122.072 54.5431 122.072ZM60.8828 122.072C60.3548 122.072 59.8508 122 59.3708 121.856C58.8988 121.712 58.5268 121.536 58.2548 121.328L58.7348 120.416C59.0068 120.6 59.3428 120.756 59.7428 120.884C60.1428 121.012 60.5508 121.076 60.9668 121.076C61.5028 121.076 61.8868 121 62.1188 120.848C62.3588 120.696 62.4788 120.484 62.4788 120.212C62.4788 120.012 62.4068 119.856 62.2628 119.744C62.1188 119.632 61.9268 119.548 61.6868 119.492C61.4548 119.436 61.1948 119.388 60.9068 119.348C60.6188 119.3 60.3308 119.244 60.0428 119.18C59.7548 119.108 59.4908 119.012 59.2508 118.892C59.0108 118.764 58.8188 118.592 58.6748 118.376C58.5308 118.152 58.4588 117.856 58.4588 117.488C58.4588 117.104 58.5668 116.768 58.7828 116.48C58.9988 116.192 59.3028 115.972 59.6948 115.82C60.0948 115.66 60.5668 115.58 61.1108 115.58C61.5268 115.58 61.9468 115.632 62.3708 115.736C62.8028 115.832 63.1548 115.972 63.4268 116.156L62.9348 117.068C62.6468 116.876 62.3468 116.744 62.0348 116.672C61.7228 116.6 61.4108 116.564 61.0988 116.564C60.5948 116.564 60.2188 116.648 59.9708 116.816C59.7228 116.976 59.5988 117.184 59.5988 117.44C59.5988 117.656 59.6708 117.824 59.8148 117.944C59.9668 118.056 60.1588 118.144 60.3908 118.208C60.6308 118.272 60.8948 118.328 61.1828 118.376C61.4708 118.416 61.7588 118.472 62.0468 118.544C62.3348 118.608 62.5948 118.7 62.8268 118.82C63.0668 118.94 63.2588 119.108 63.4028 119.324C63.5548 119.54 63.6308 119.828 63.6308 120.188C63.6308 120.572 63.5188 120.904 63.2948 121.184C63.0708 121.464 62.7548 121.684 62.3468 121.844C61.9388 121.996 61.4508 122.072 60.8828 122.072ZM66.8945 122.072C66.3665 122.072 65.8625 122 65.3825 121.856C64.9105 121.712 64.5385 121.536 64.2665 121.328L64.7465 120.416C65.0185 120.6 65.3545 120.756 65.7545 120.884C66.1545 121.012 66.5625 121.076 66.9785 121.076C67.5145 121.076 67.8985 121 68.1305 120.848C68.3705 120.696 68.4905 120.484 68.4905 120.212C68.4905 120.012 68.4185 119.856 68.2745 119.744C68.1305 119.632 67.9385 119.548 67.6985 119.492C67.4665 119.436 67.2065 119.388 66.9185 119.348C66.6305 119.3 66.3425 119.244 66.0545 119.18C65.7665 119.108 65.5025 119.012 65.2625 118.892C65.0225 118.764 64.8305 118.592 64.6865 118.376C64.5425 118.152 64.4705 117.856 64.4705 117.488C64.4705 117.104 64.5785 116.768 64.7945 116.48C65.0105 116.192 65.3145 115.972 65.7065 115.82C66.1065 115.66 66.5785 115.58 67.1225 115.58C67.5385 115.58 67.9585 115.632 68.3825 115.736C68.8145 115.832 69.1665 115.972 69.4385 116.156L68.9465 117.068C68.6585 116.876 68.3585 116.744 68.0465 116.672C67.7345 116.6 67.4225 116.564 67.1105 116.564C66.6065 116.564 66.2305 116.648 65.9825 116.816C65.7345 116.976 65.6105 117.184 65.6105 117.44C65.6105 117.656 65.6825 117.824 65.8265 117.944C65.9785 118.056 66.1705 118.144 66.4025 118.208C66.6425 118.272 66.9065 118.328 67.1945 118.376C67.4825 118.416 67.7705 118.472 68.0585 118.544C68.3465 118.608 68.6065 118.7 68.8385 118.82C69.0785 118.94 69.2705 119.108 69.4145 119.324C69.5665 119.54 69.6425 119.828 69.6425 120.188C69.6425 120.572 69.5305 120.904 69.3065 121.184C69.0825 121.464 68.7665 121.684 68.3585 121.844C67.9505 121.996 67.4625 122.072 66.8945 122.072ZM71.0822 122V115.64H72.2342V122H71.0822ZM71.6582 114.416C71.4342 114.416 71.2462 114.344 71.0942 114.2C70.9502 114.056 70.8782 113.88 70.8782 113.672C70.8782 113.456 70.9502 113.276 71.0942 113.132C71.2462 112.988 71.4342 112.916 71.6582 112.916C71.8822 112.916 72.0662 112.988 72.2102 113.132C72.3622 113.268 72.4382 113.44 72.4382 113.648C72.4382 113.864 72.3662 114.048 72.2222 114.2C72.0782 114.344 71.8902 114.416 71.6582 114.416ZM77.1578 122.072C76.5178 122.072 75.9498 121.932 75.4538 121.652C74.9578 121.372 74.5658 120.988 74.2778 120.5C73.9898 120.004 73.8458 119.444 73.8458 118.82C73.8458 118.188 73.9898 117.628 74.2778 117.14C74.5658 116.652 74.9578 116.272 75.4538 116C75.9498 115.72 76.5178 115.58 77.1578 115.58C77.7898 115.58 78.3538 115.72 78.8498 116C79.3538 116.272 79.7458 116.652 80.0258 117.14C80.3138 117.62 80.4578 118.18 80.4578 118.82C80.4578 119.452 80.3138 120.012 80.0258 120.5C79.7458 120.988 79.3538 121.372 78.8498 121.652C78.3538 121.932 77.7898 122.072 77.1578 122.072ZM77.1578 121.064C77.5658 121.064 77.9298 120.972 78.2498 120.788C78.5778 120.604 78.8338 120.344 79.0178 120.008C79.2018 119.664 79.2938 119.268 79.2938 118.82C79.2938 118.364 79.2018 117.972 79.0178 117.644C78.8338 117.308 78.5778 117.048 78.2498 116.864C77.9298 116.68 77.5658 116.588 77.1578 116.588C76.7498 116.588 76.3858 116.68 76.0658 116.864C75.7458 117.048 75.4898 117.308 75.2978 117.644C75.1058 117.972 75.0098 118.364 75.0098 118.82C75.0098 119.268 75.1058 119.664 75.2978 120.008C75.4898 120.344 75.7458 120.604 76.0658 120.788C76.3858 120.972 76.7498 121.064 77.1578 121.064ZM85.447 115.58C85.967 115.58 86.423 115.68 86.815 115.88C87.215 116.08 87.527 116.384 87.751 116.792C87.975 117.2 88.087 117.716 88.087 118.34V122H86.935V118.472C86.935 117.856 86.783 117.392 86.479 117.08C86.183 116.768 85.763 116.612 85.219 116.612C84.811 116.612 84.455 116.692 84.151 116.852C83.847 117.012 83.611 117.248 83.443 117.56C83.283 117.872 83.203 118.26 83.203 118.724V122H82.051V115.64H83.155V117.356L82.975 116.9C83.183 116.484 83.503 116.16 83.935 115.928C84.367 115.696 84.871 115.58 85.447 115.58ZM93.051 122.072C92.371 122.072 91.771 121.932 91.251 121.652C90.739 121.372 90.339 120.988 90.051 120.5C89.771 120.012 89.631 119.452 89.631 118.82C89.631 118.188 89.767 117.628 90.039 117.14C90.319 116.652 90.699 116.272 91.179 116C91.667 115.72 92.215 115.58 92.823 115.58C93.439 115.58 93.983 115.716 94.455 115.988C94.927 116.26 95.295 116.644 95.559 117.14C95.831 117.628 95.967 118.2 95.967 118.856C95.967 118.904 95.963 118.96 95.955 119.024C95.955 119.088 95.951 119.148 95.943 119.204H90.531V118.376H95.343L94.875 118.664C94.883 118.256 94.799 117.892 94.623 117.572C94.447 117.252 94.203 117.004 93.891 116.828C93.587 116.644 93.231 116.552 92.823 116.552C92.423 116.552 92.067 116.644 91.755 116.828C91.443 117.004 91.199 117.256 91.023 117.584C90.847 117.904 90.759 118.272 90.759 118.688V118.88C90.759 119.304 90.855 119.684 91.047 120.02C91.247 120.348 91.523 120.604 91.875 120.788C92.227 120.972 92.631 121.064 93.087 121.064C93.463 121.064 93.803 121 94.107 120.872C94.419 120.744 94.691 120.552 94.923 120.296L95.559 121.04C95.271 121.376 94.911 121.632 94.479 121.808C94.055 121.984 93.579 122.072 93.051 122.072ZM104.737 122V120.656L104.677 120.404V118.112C104.677 117.624 104.533 117.248 104.245 116.984C103.965 116.712 103.541 116.576 102.973 116.576C102.597 116.576 102.229 116.64 101.869 116.768C101.509 116.888 101.205 117.052 100.957 117.26L100.477 116.396C100.805 116.132 101.197 115.932 101.653 115.796C102.117 115.652 102.601 115.58 103.105 115.58C103.977 115.58 104.649 115.792 105.121 116.216C105.593 116.64 105.829 117.288 105.829 118.16V122H104.737ZM102.649 122.072C102.177 122.072 101.761 121.992 101.401 121.832C101.049 121.672 100.777 121.452 100.585 121.172C100.393 120.884 100.297 120.56 100.297 120.2C100.297 119.856 100.377 119.544 100.537 119.264C100.705 118.984 100.973 118.76 101.341 118.592C101.717 118.424 102.221 118.34 102.853 118.34H104.869V119.168H102.901C102.325 119.168 101.937 119.264 101.737 119.456C101.537 119.648 101.437 119.88 101.437 120.152C101.437 120.464 101.561 120.716 101.809 120.908C102.057 121.092 102.401 121.184 102.841 121.184C103.273 121.184 103.649 121.088 103.969 120.896C104.297 120.704 104.533 120.424 104.677 120.056L104.905 120.848C104.753 121.224 104.485 121.524 104.101 121.748C103.717 121.964 103.233 122.072 102.649 122.072ZM114.556 122.072C114.028 122.072 113.544 121.952 113.104 121.712C112.672 121.464 112.324 121.1 112.06 120.62C111.804 120.14 111.676 119.54 111.676 118.82C111.676 118.1 111.8 117.5 112.048 117.02C112.304 116.54 112.648 116.18 113.08 115.94C113.52 115.7 114.012 115.58 114.556 115.58C115.18 115.58 115.732 115.716 116.212 115.988C116.692 116.26 117.072 116.64 117.352 117.128C117.632 117.608 117.772 118.172 117.772 118.82C117.772 119.468 117.632 120.036 117.352 120.524C117.072 121.012 116.692 121.392 116.212 121.664C115.732 121.936 115.18 122.072 114.556 122.072ZM111.184 124.328V115.64H112.288V117.356L112.216 118.832L112.336 120.308V124.328H111.184ZM114.46 121.064C114.868 121.064 115.232 120.972 115.552 120.788C115.88 120.604 116.136 120.344 116.32 120.008C116.512 119.664 116.608 119.268 116.608 118.82C116.608 118.364 116.512 117.972 116.32 117.644C116.136 117.308 115.88 117.048 115.552 116.864C115.232 116.68 114.868 116.588 114.46 116.588C114.06 116.588 113.696 116.68 113.368 116.864C113.048 117.048 112.792 117.308 112.6 117.644C112.416 117.972 112.324 118.364 112.324 118.82C112.324 119.268 112.416 119.664 112.6 120.008C112.792 120.344 113.048 120.604 113.368 120.788C113.696 120.972 114.06 121.064 114.46 121.064ZM123.253 122V120.656L123.193 120.404V118.112C123.193 117.624 123.049 117.248 122.761 116.984C122.481 116.712 122.057 116.576 121.489 116.576C121.113 116.576 120.745 116.64 120.385 116.768C120.025 116.888 119.721 117.052 119.473 117.26L118.993 116.396C119.321 116.132 119.713 115.932 120.169 115.796C120.633 115.652 121.117 115.58 121.621 115.58C122.493 115.58 123.165 115.792 123.637 116.216C124.109 116.64 124.345 117.288 124.345 118.16V122H123.253ZM121.165 122.072C120.693 122.072 120.277 121.992 119.917 121.832C119.565 121.672 119.293 121.452 119.101 121.172C118.909 120.884 118.813 120.56 118.813 120.2C118.813 119.856 118.893 119.544 119.053 119.264C119.221 118.984 119.489 118.76 119.857 118.592C120.233 118.424 120.737 118.34 121.369 118.34H123.385V119.168H121.417C120.841 119.168 120.453 119.264 120.253 119.456C120.053 119.648 119.953 119.88 119.953 120.152C119.953 120.464 120.077 120.716 120.325 120.908C120.573 121.092 120.917 121.184 121.357 121.184C121.789 121.184 122.165 121.088 122.485 120.896C122.813 120.704 123.049 120.424 123.193 120.056L123.421 120.848C123.269 121.224 123.001 121.524 122.617 121.748C122.233 121.964 121.749 122.072 121.165 122.072ZM126.477 122V115.64H127.581V117.368L127.473 116.936C127.649 116.496 127.945 116.16 128.361 115.928C128.777 115.696 129.289 115.58 129.897 115.58V116.696C129.849 116.688 129.801 116.684 129.753 116.684C129.713 116.684 129.673 116.684 129.633 116.684C129.017 116.684 128.529 116.868 128.169 117.236C127.809 117.604 127.629 118.136 127.629 118.832V122H126.477ZM133.758 122.072C133.118 122.072 132.622 121.9 132.27 121.556C131.918 121.212 131.742 120.72 131.742 120.08V114.248H132.894V120.032C132.894 120.376 132.978 120.64 133.146 120.824C133.322 121.008 133.57 121.1 133.89 121.1C134.25 121.1 134.55 121 134.79 120.8L135.15 121.628C134.974 121.78 134.762 121.892 134.514 121.964C134.274 122.036 134.022 122.072 133.758 122.072ZM130.662 116.588V115.64H134.718V116.588H130.662ZM139.164 122.072C138.484 122.072 137.884 121.932 137.364 121.652C136.852 121.372 136.452 120.988 136.164 120.5C135.884 120.012 135.744 119.452 135.744 118.82C135.744 118.188 135.88 117.628 136.152 117.14C136.432 116.652 136.812 116.272 137.292 116C137.78 115.72 138.328 115.58 138.936 115.58C139.552 115.58 140.096 115.716 140.568 115.988C141.04 116.26 141.408 116.644 141.672 117.14C141.944 117.628 142.08 118.2 142.08 118.856C142.08 118.904 142.076 118.96 142.068 119.024C142.068 119.088 142.064 119.148 142.056 119.204H136.644V118.376H141.456L140.988 118.664C140.996 118.256 140.912 117.892 140.736 117.572C140.56 117.252 140.316 117.004 140.004 116.828C139.7 116.644 139.344 116.552 138.936 116.552C138.536 116.552 138.18 116.644 137.868 116.828C137.556 117.004 137.312 117.256 137.136 117.584C136.96 117.904 136.872 118.272 136.872 118.688V118.88C136.872 119.304 136.968 119.684 137.16 120.02C137.36 120.348 137.636 120.604 137.988 120.788C138.34 120.972 138.744 121.064 139.2 121.064C139.576 121.064 139.916 121 140.22 120.872C140.532 120.744 140.804 120.552 141.036 120.296L141.672 121.04C141.384 121.376 141.024 121.632 140.592 121.808C140.168 121.984 139.692 122.072 139.164 122.072ZM24.3068 137V128.096H25.4588V137H24.3068ZM27.6584 137V130.64H28.8104V137H27.6584ZM28.2344 129.416C28.0104 129.416 27.8224 129.344 27.6704 129.2C27.5264 129.056 27.4544 128.88 27.4544 128.672C27.4544 128.456 27.5264 128.276 27.6704 128.132C27.8224 127.988 28.0104 127.916 28.2344 127.916C28.4584 127.916 28.6424 127.988 28.7864 128.132C28.9384 128.268 29.0144 128.44 29.0144 128.648C29.0144 128.864 28.9424 129.048 28.7984 129.2C28.6544 129.344 28.4664 129.416 28.2344 129.416ZM34.382 137.072C33.838 137.072 33.346 136.952 32.906 136.712C32.474 136.464 32.13 136.1 31.874 135.62C31.626 135.14 31.502 134.54 31.502 133.82C31.502 133.1 31.63 132.5 31.886 132.02C32.15 131.54 32.498 131.18 32.93 130.94C33.37 130.7 33.854 130.58 34.382 130.58C35.006 130.58 35.558 130.716 36.038 130.988C36.518 131.26 36.898 131.64 37.178 132.128C37.458 132.608 37.598 133.172 37.598 133.82C37.598 134.468 37.458 135.036 37.178 135.524C36.898 136.012 36.518 136.392 36.038 136.664C35.558 136.936 35.006 137.072 34.382 137.072ZM31.01 137V128.096H32.162V132.332L32.042 133.808L32.114 135.284V137H31.01ZM34.286 136.064C34.694 136.064 35.058 135.972 35.378 135.788C35.706 135.604 35.962 135.344 36.146 135.008C36.338 134.664 36.434 134.268 36.434 133.82C36.434 133.364 36.338 132.972 36.146 132.644C35.962 132.308 35.706 132.048 35.378 131.864C35.058 131.68 34.694 131.588 34.286 131.588C33.886 131.588 33.522 131.68 33.194 131.864C32.874 132.048 32.618 132.308 32.426 132.644C32.242 132.972 32.15 133.364 32.15 133.82C32.15 134.268 32.242 134.664 32.426 135.008C32.618 135.344 32.874 135.604 33.194 135.788C33.522 135.972 33.886 136.064 34.286 136.064ZM42.0217 137.072C41.3417 137.072 40.7417 136.932 40.2217 136.652C39.7097 136.372 39.3097 135.988 39.0217 135.5C38.7417 135.012 38.6017 134.452 38.6017 133.82C38.6017 133.188 38.7377 132.628 39.0097 132.14C39.2897 131.652 39.6697 131.272 40.1497 131C40.6377 130.72 41.1857 130.58 41.7937 130.58C42.4097 130.58 42.9537 130.716 43.4257 130.988C43.8977 131.26 44.2657 131.644 44.5297 132.14C44.8017 132.628 44.9377 133.2 44.9377 133.856C44.9377 133.904 44.9337 133.96 44.9257 134.024C44.9257 134.088 44.9217 134.148 44.9137 134.204H39.5017V133.376H44.3137L43.8457 133.664C43.8537 133.256 43.7697 132.892 43.5937 132.572C43.4177 132.252 43.1737 132.004 42.8617 131.828C42.5577 131.644 42.2017 131.552 41.7937 131.552C41.3937 131.552 41.0377 131.644 40.7257 131.828C40.4137 132.004 40.1697 132.256 39.9937 132.584C39.8177 132.904 39.7297 133.272 39.7297 133.688V133.88C39.7297 134.304 39.8257 134.684 40.0177 135.02C40.2177 135.348 40.4937 135.604 40.8457 135.788C41.1977 135.972 41.6017 136.064 42.0577 136.064C42.4337 136.064 42.7737 136 43.0777 135.872C43.3897 135.744 43.6617 135.552 43.8937 135.296L44.5297 136.04C44.2417 136.376 43.8817 136.632 43.4497 136.808C43.0257 136.984 42.5497 137.072 42.0217 137.072ZM46.5373 137V130.64H47.6413V132.368L47.5333 131.936C47.7093 131.496 48.0053 131.16 48.4213 130.928C48.8373 130.696 49.3493 130.58 49.9573 130.58V131.696C49.9093 131.688 49.8613 131.684 49.8133 131.684C49.7733 131.684 49.7333 131.684 49.6933 131.684C49.0773 131.684 48.5893 131.868 48.2293 132.236C47.8693 132.604 47.6893 133.136 47.6893 133.832V137H46.5373ZM54.8564 137V135.656L54.7964 135.404V133.112C54.7964 132.624 54.6524 132.248 54.3644 131.984C54.0844 131.712 53.6604 131.576 53.0924 131.576C52.7164 131.576 52.3484 131.64 51.9884 131.768C51.6284 131.888 51.3244 132.052 51.0764 132.26L50.5964 131.396C50.9244 131.132 51.3164 130.932 51.7724 130.796C52.2364 130.652 52.7204 130.58 53.2244 130.58C54.0964 130.58 54.7684 130.792 55.2404 131.216C55.7124 131.64 55.9484 132.288 55.9484 133.16V137H54.8564ZM52.7684 137.072C52.2964 137.072 51.8804 136.992 51.5204 136.832C51.1684 136.672 50.8964 136.452 50.7044 136.172C50.5124 135.884 50.4164 135.56 50.4164 135.2C50.4164 134.856 50.4964 134.544 50.6564 134.264C50.8244 133.984 51.0924 133.76 51.4604 133.592C51.8364 133.424 52.3404 133.34 52.9724 133.34H54.9884V134.168H53.0204C52.4444 134.168 52.0564 134.264 51.8564 134.456C51.6564 134.648 51.5564 134.88 51.5564 135.152C51.5564 135.464 51.6804 135.716 51.9284 135.908C52.1764 136.092 52.5204 136.184 52.9604 136.184C53.3924 136.184 53.7684 136.088 54.0884 135.896C54.4164 135.704 54.6524 135.424 54.7964 135.056L55.0244 135.848C54.8724 136.224 54.6044 136.524 54.2204 136.748C53.8364 136.964 53.3524 137.072 52.7684 137.072ZM60.7083 137.072C60.0923 137.072 59.5403 136.936 59.0523 136.664C58.5723 136.392 58.1923 136.012 57.9123 135.524C57.6323 135.036 57.4923 134.468 57.4923 133.82C57.4923 133.172 57.6323 132.608 57.9123 132.128C58.1923 131.64 58.5723 131.26 59.0523 130.988C59.5403 130.716 60.0923 130.58 60.7083 130.58C61.2443 130.58 61.7283 130.7 62.1603 130.94C62.5923 131.18 62.9363 131.54 63.1923 132.02C63.4563 132.5 63.5883 133.1 63.5883 133.82C63.5883 134.54 63.4603 135.14 63.2043 135.62C62.9563 136.1 62.6163 136.464 62.1843 136.712C61.7523 136.952 61.2603 137.072 60.7083 137.072ZM60.8043 136.064C61.2043 136.064 61.5643 135.972 61.8843 135.788C62.2123 135.604 62.4683 135.344 62.6523 135.008C62.8443 134.664 62.9403 134.268 62.9403 133.82C62.9403 133.364 62.8443 132.972 62.6523 132.644C62.4683 132.308 62.2123 132.048 61.8843 131.864C61.5643 131.68 61.2043 131.588 60.8043 131.588C60.3963 131.588 60.0323 131.68 59.7123 131.864C59.3923 132.048 59.1363 132.308 58.9443 132.644C58.7523 132.972 58.6563 133.364 58.6563 133.82C58.6563 134.268 58.7523 134.664 58.9443 135.008C59.1363 135.344 59.3923 135.604 59.7123 135.788C60.0323 135.972 60.3963 136.064 60.8043 136.064ZM62.9763 137V135.284L63.0483 133.808L62.9283 132.332V128.096H64.0803V137H62.9763ZM70.208 137V135.656L70.148 135.404V133.112C70.148 132.624 70.004 132.248 69.716 131.984C69.436 131.712 69.012 131.576 68.444 131.576C68.068 131.576 67.7 131.64 67.34 131.768C66.98 131.888 66.676 132.052 66.428 132.26L65.948 131.396C66.276 131.132 66.668 130.932 67.124 130.796C67.588 130.652 68.072 130.58 68.576 130.58C69.448 130.58 70.12 130.792 70.592 131.216C71.064 131.64 71.3 132.288 71.3 133.16V137H70.208ZM68.12 137.072C67.648 137.072 67.232 136.992 66.872 136.832C66.52 136.672 66.248 136.452 66.056 136.172C65.864 135.884 65.768 135.56 65.768 135.2C65.768 134.856 65.848 134.544 66.008 134.264C66.176 133.984 66.444 133.76 66.812 133.592C67.188 133.424 67.692 133.34 68.324 133.34H70.34V134.168H68.372C67.796 134.168 67.408 134.264 67.208 134.456C67.008 134.648 66.908 134.88 66.908 135.152C66.908 135.464 67.032 135.716 67.28 135.908C67.528 136.092 67.872 136.184 68.312 136.184C68.744 136.184 69.12 136.088 69.44 135.896C69.768 135.704 70.004 135.424 70.148 135.056L70.376 135.848C70.224 136.224 69.956 136.524 69.572 136.748C69.188 136.964 68.704 137.072 68.12 137.072ZM80.0265 137.072C79.4985 137.072 79.0145 136.952 78.5745 136.712C78.1425 136.464 77.7945 136.1 77.5305 135.62C77.2745 135.14 77.1465 134.54 77.1465 133.82C77.1465 133.1 77.2705 132.5 77.5185 132.02C77.7745 131.54 78.1185 131.18 78.5505 130.94C78.9905 130.7 79.4825 130.58 80.0265 130.58C80.6505 130.58 81.2025 130.716 81.6825 130.988C82.1625 131.26 82.5425 131.64 82.8225 132.128C83.1025 132.608 83.2425 133.172 83.2425 133.82C83.2425 134.468 83.1025 135.036 82.8225 135.524C82.5425 136.012 82.1625 136.392 81.6825 136.664C81.2025 136.936 80.6505 137.072 80.0265 137.072ZM76.6545 139.328V130.64H77.7585V132.356L77.6865 133.832L77.8065 135.308V139.328H76.6545ZM79.9305 136.064C80.3385 136.064 80.7025 135.972 81.0225 135.788C81.3505 135.604 81.6065 135.344 81.7905 135.008C81.9825 134.664 82.0785 134.268 82.0785 133.82C82.0785 133.364 81.9825 132.972 81.7905 132.644C81.6065 132.308 81.3505 132.048 81.0225 131.864C80.7025 131.68 80.3385 131.588 79.9305 131.588C79.5305 131.588 79.1665 131.68 78.8385 131.864C78.5185 132.048 78.2625 132.308 78.0705 132.644C77.8865 132.972 77.7945 133.364 77.7945 133.82C77.7945 134.268 77.8865 134.664 78.0705 135.008C78.2625 135.344 78.5185 135.604 78.8385 135.788C79.1665 135.972 79.5305 136.064 79.9305 136.064ZM88.7236 137V135.656L88.6636 135.404V133.112C88.6636 132.624 88.5196 132.248 88.2316 131.984C87.9516 131.712 87.5276 131.576 86.9596 131.576C86.5836 131.576 86.2156 131.64 85.8556 131.768C85.4956 131.888 85.1916 132.052 84.9436 132.26L84.4636 131.396C84.7916 131.132 85.1836 130.932 85.6396 130.796C86.1036 130.652 86.5876 130.58 87.0916 130.58C87.9636 130.58 88.6356 130.792 89.1076 131.216C89.5796 131.64 89.8156 132.288 89.8156 133.16V137H88.7236ZM86.6356 137.072C86.1636 137.072 85.7476 136.992 85.3876 136.832C85.0356 136.672 84.7636 136.452 84.5716 136.172C84.3796 135.884 84.2836 135.56 84.2836 135.2C84.2836 134.856 84.3636 134.544 84.5236 134.264C84.6916 133.984 84.9596 133.76 85.3276 133.592C85.7036 133.424 86.2076 133.34 86.8396 133.34H88.8556V134.168H86.8876C86.3116 134.168 85.9236 134.264 85.7236 134.456C85.5236 134.648 85.4236 134.88 85.4236 135.152C85.4236 135.464 85.5476 135.716 85.7956 135.908C86.0436 136.092 86.3876 136.184 86.8276 136.184C87.2596 136.184 87.6356 136.088 87.9556 135.896C88.2836 135.704 88.5196 135.424 88.6636 135.056L88.8916 135.848C88.7396 136.224 88.4716 136.524 88.0876 136.748C87.7036 136.964 87.2196 137.072 86.6356 137.072ZM91.9475 137V130.64H93.0515V132.368L92.9435 131.936C93.1195 131.496 93.4155 131.16 93.8315 130.928C94.2475 130.696 94.7595 130.58 95.3675 130.58V131.696C95.3195 131.688 95.2715 131.684 95.2235 131.684C95.1835 131.684 95.1435 131.684 95.1035 131.684C94.4875 131.684 93.9995 131.868 93.6395 132.236C93.2795 132.604 93.0995 133.136 93.0995 133.832V137H91.9475ZM100.267 137V135.656L100.207 135.404V133.112C100.207 132.624 100.063 132.248 99.7746 131.984C99.4946 131.712 99.0706 131.576 98.5026 131.576C98.1266 131.576 97.7586 131.64 97.3986 131.768C97.0386 131.888 96.7346 132.052 96.4866 132.26L96.0066 131.396C96.3346 131.132 96.7266 130.932 97.1826 130.796C97.6466 130.652 98.1306 130.58 98.6346 130.58C99.5066 130.58 100.179 130.792 100.651 131.216C101.123 131.64 101.359 132.288 101.359 133.16V137H100.267ZM98.1786 137.072C97.7066 137.072 97.2906 136.992 96.9306 136.832C96.5786 136.672 96.3066 136.452 96.1146 136.172C95.9226 135.884 95.8266 135.56 95.8266 135.2C95.8266 134.856 95.9066 134.544 96.0666 134.264C96.2346 133.984 96.5026 133.76 96.8706 133.592C97.2466 133.424 97.7506 133.34 98.3826 133.34H100.399V134.168H98.4306C97.8546 134.168 97.4666 134.264 97.2666 134.456C97.0666 134.648 96.9666 134.88 96.9666 135.152C96.9666 135.464 97.0906 135.716 97.3386 135.908C97.5866 136.092 97.9306 136.184 98.3706 136.184C98.8026 136.184 99.1786 136.088 99.4986 135.896C99.8266 135.704 100.063 135.424 100.207 135.056L100.435 135.848C100.283 136.224 100.015 136.524 99.6306 136.748C99.2466 136.964 98.7626 137.072 98.1786 137.072ZM109.485 137.072C108.837 137.072 108.257 136.932 107.745 136.652C107.241 136.372 106.845 135.988 106.557 135.5C106.269 135.012 106.125 134.452 106.125 133.82C106.125 133.188 106.269 132.628 106.557 132.14C106.845 131.652 107.241 131.272 107.745 131C108.257 130.72 108.837 130.58 109.485 130.58C110.061 130.58 110.573 130.696 111.021 130.928C111.477 131.152 111.829 131.488 112.077 131.936L111.201 132.5C110.993 132.188 110.737 131.96 110.433 131.816C110.137 131.664 109.817 131.588 109.473 131.588C109.057 131.588 108.685 131.68 108.357 131.864C108.029 132.048 107.769 132.308 107.577 132.644C107.385 132.972 107.289 133.364 107.289 133.82C107.289 134.276 107.385 134.672 107.577 135.008C107.769 135.344 108.029 135.604 108.357 135.788C108.685 135.972 109.057 136.064 109.473 136.064C109.817 136.064 110.137 135.992 110.433 135.848C110.737 135.696 110.993 135.464 111.201 135.152L112.077 135.704C111.829 136.144 111.477 136.484 111.021 136.724C110.573 136.956 110.061 137.072 109.485 137.072ZM113.569 137V130.64H114.673V132.368L114.565 131.936C114.741 131.496 115.037 131.16 115.453 130.928C115.869 130.696 116.381 130.58 116.989 130.58V131.696C116.941 131.688 116.893 131.684 116.845 131.684C116.805 131.684 116.765 131.684 116.725 131.684C116.109 131.684 115.621 131.868 115.261 132.236C114.901 132.604 114.721 133.136 114.721 133.832V137H113.569ZM118.408 137V130.64H119.56V137H118.408ZM118.984 129.416C118.76 129.416 118.572 129.344 118.42 129.2C118.276 129.056 118.204 128.88 118.204 128.672C118.204 128.456 118.276 128.276 118.42 128.132C118.572 127.988 118.76 127.916 118.984 127.916C119.208 127.916 119.392 127.988 119.536 128.132C119.688 128.268 119.764 128.44 119.764 128.648C119.764 128.864 119.692 129.048 119.548 129.2C119.404 129.344 119.216 129.416 118.984 129.416ZM125.708 137V135.656L125.648 135.404V133.112C125.648 132.624 125.504 132.248 125.216 131.984C124.936 131.712 124.512 131.576 123.944 131.576C123.568 131.576 123.2 131.64 122.84 131.768C122.48 131.888 122.176 132.052 121.928 132.26L121.448 131.396C121.776 131.132 122.168 130.932 122.624 130.796C123.088 130.652 123.572 130.58 124.076 130.58C124.948 130.58 125.62 130.792 126.092 131.216C126.564 131.64 126.8 132.288 126.8 133.16V137H125.708ZM123.62 137.072C123.148 137.072 122.732 136.992 122.372 136.832C122.02 136.672 121.748 136.452 121.556 136.172C121.364 135.884 121.268 135.56 121.268 135.2C121.268 134.856 121.348 134.544 121.508 134.264C121.676 133.984 121.944 133.76 122.312 133.592C122.688 133.424 123.192 133.34 123.824 133.34H125.84V134.168H123.872C123.296 134.168 122.908 134.264 122.708 134.456C122.508 134.648 122.408 134.88 122.408 135.152C122.408 135.464 122.532 135.716 122.78 135.908C123.028 136.092 123.372 136.184 123.812 136.184C124.244 136.184 124.62 136.088 124.94 135.896C125.268 135.704 125.504 135.424 125.648 135.056L125.876 135.848C125.724 136.224 125.456 136.524 125.072 136.748C124.688 136.964 124.204 137.072 123.62 137.072ZM128.932 137V130.64H130.036V132.368L129.928 131.936C130.104 131.496 130.4 131.16 130.816 130.928C131.232 130.696 131.744 130.58 132.352 130.58V131.696C132.304 131.688 132.256 131.684 132.208 131.684C132.168 131.684 132.128 131.684 132.088 131.684C131.472 131.684 130.984 131.868 130.624 132.236C130.264 132.604 130.084 133.136 130.084 133.832V137H128.932ZM139.752 137.072C139.208 137.072 138.728 136.972 138.312 136.772C137.904 136.572 137.584 136.268 137.352 135.86C137.128 135.444 137.016 134.924 137.016 134.3V130.64H138.168V134.168C138.168 134.792 138.316 135.26 138.612 135.572C138.916 135.884 139.34 136.04 139.884 136.04C140.284 136.04 140.632 135.96 140.928 135.8C141.224 135.632 141.452 135.392 141.612 135.08C141.772 134.76 141.852 134.376 141.852 133.928V130.64H143.004V137H141.912V135.284L142.092 135.74C141.884 136.164 141.572 136.492 141.156 136.724C140.74 136.956 140.272 137.072 139.752 137.072ZM153.153 130.58C153.665 130.58 154.117 130.68 154.509 130.88C154.901 131.08 155.205 131.384 155.421 131.792C155.645 132.2 155.757 132.716 155.757 133.34V137H154.605V133.472C154.605 132.856 154.461 132.392 154.173 132.08C153.885 131.768 153.481 131.612 152.961 131.612C152.577 131.612 152.241 131.692 151.953 131.852C151.665 132.012 151.441 132.248 151.281 132.56C151.129 132.872 151.053 133.26 151.053 133.724V137H149.901V133.472C149.901 132.856 149.757 132.392 149.469 132.08C149.189 131.768 148.785 131.612 148.257 131.612C147.881 131.612 147.549 131.692 147.261 131.852C146.973 132.012 146.749 132.248 146.589 132.56C146.429 132.872 146.349 133.26 146.349 133.724V137H145.197V130.64H146.301V132.332L146.121 131.9C146.321 131.484 146.629 131.16 147.045 130.928C147.461 130.696 147.945 130.58 148.497 130.58C149.105 130.58 149.629 130.732 150.069 131.036C150.509 131.332 150.797 131.784 150.933 132.392L150.465 132.2C150.657 131.712 150.993 131.32 151.473 131.024C151.953 130.728 152.513 130.58 153.153 130.58ZM30.5559 152.072C29.9399 152.072 29.3879 151.936 28.8999 151.664C28.4199 151.392 28.0399 151.012 27.7599 150.524C27.4799 150.036 27.3399 149.468 27.3399 148.82C27.3399 148.172 27.4799 147.608 27.7599 147.128C28.0399 146.64 28.4199 146.26 28.8999 145.988C29.3879 145.716 29.9399 145.58 30.5559 145.58C31.0919 145.58 31.5759 145.7 32.0079 145.94C32.4399 146.18 32.7839 146.54 33.0399 147.02C33.3039 147.5 33.4359 148.1 33.4359 148.82C33.4359 149.54 33.3079 150.14 33.0519 150.62C32.8039 151.1 32.4639 151.464 32.0319 151.712C31.5999 151.952 31.1079 152.072 30.5559 152.072ZM30.6519 151.064C31.0519 151.064 31.4119 150.972 31.7319 150.788C32.0599 150.604 32.3159 150.344 32.4999 150.008C32.6919 149.664 32.7879 149.268 32.7879 148.82C32.7879 148.364 32.6919 147.972 32.4999 147.644C32.3159 147.308 32.0599 147.048 31.7319 146.864C31.4119 146.68 31.0519 146.588 30.6519 146.588C30.2439 146.588 29.8799 146.68 29.5599 146.864C29.2399 147.048 28.9839 147.308 28.7919 147.644C28.5999 147.972 28.5039 148.364 28.5039 148.82C28.5039 149.268 28.5999 149.664 28.7919 150.008C28.9839 150.344 29.2399 150.604 29.5599 150.788C29.8799 150.972 30.2439 151.064 30.6519 151.064ZM32.8239 152V150.284L32.8959 148.808L32.7759 147.332V143.096H33.9279V152H32.8239ZM38.7836 152.072C38.2396 152.072 37.7596 151.972 37.3436 151.772C36.9356 151.572 36.6156 151.268 36.3836 150.86C36.1596 150.444 36.0476 149.924 36.0476 149.3V145.64H37.1996V149.168C37.1996 149.792 37.3476 150.26 37.6436 150.572C37.9476 150.884 38.3716 151.04 38.9156 151.04C39.3156 151.04 39.6636 150.96 39.9596 150.8C40.2556 150.632 40.4836 150.392 40.6436 150.08C40.8036 149.76 40.8836 149.376 40.8836 148.928V145.64H42.0356V152H40.9436V150.284L41.1236 150.74C40.9156 151.164 40.6036 151.492 40.1876 151.724C39.7716 151.956 39.3036 152.072 38.7836 152.072ZM47.6007 152.072C47.0727 152.072 46.5887 151.952 46.1487 151.712C45.7167 151.464 45.3687 151.1 45.1047 150.62C44.8487 150.14 44.7207 149.54 44.7207 148.82C44.7207 148.1 44.8447 147.5 45.0927 147.02C45.3487 146.54 45.6927 146.18 46.1247 145.94C46.5647 145.7 47.0567 145.58 47.6007 145.58C48.2247 145.58 48.7767 145.716 49.2567 145.988C49.7367 146.26 50.1167 146.64 50.3967 147.128C50.6767 147.608 50.8167 148.172 50.8167 148.82C50.8167 149.468 50.6767 150.036 50.3967 150.524C50.1167 151.012 49.7367 151.392 49.2567 151.664C48.7767 151.936 48.2247 152.072 47.6007 152.072ZM44.2287 154.328V145.64H45.3327V147.356L45.2607 148.832L45.3807 150.308V154.328H44.2287ZM47.5047 151.064C47.9127 151.064 48.2767 150.972 48.5967 150.788C48.9247 150.604 49.1807 150.344 49.3647 150.008C49.5567 149.664 49.6527 149.268 49.6527 148.82C49.6527 148.364 49.5567 147.972 49.3647 147.644C49.1807 147.308 48.9247 147.048 48.5967 146.864C48.2767 146.68 47.9127 146.588 47.5047 146.588C47.1047 146.588 46.7407 146.68 46.4127 146.864C46.0927 147.048 45.8367 147.308 45.6447 147.644C45.4607 147.972 45.3687 148.364 45.3687 148.82C45.3687 149.268 45.4607 149.664 45.6447 150.008C45.8367 150.344 46.0927 150.604 46.4127 150.788C46.7407 150.972 47.1047 151.064 47.5047 151.064ZM52.4084 152V143.096H53.5604V152H52.4084ZM58.484 152.072C57.844 152.072 57.276 151.932 56.78 151.652C56.284 151.372 55.892 150.988 55.604 150.5C55.316 150.004 55.172 149.444 55.172 148.82C55.172 148.188 55.316 147.628 55.604 147.14C55.892 146.652 56.284 146.272 56.78 146C57.276 145.72 57.844 145.58 58.484 145.58C59.116 145.58 59.68 145.72 60.176 146C60.68 146.272 61.072 146.652 61.352 147.14C61.64 147.62 61.784 148.18 61.784 148.82C61.784 149.452 61.64 150.012 61.352 150.5C61.072 150.988 60.68 151.372 60.176 151.652C59.68 151.932 59.116 152.072 58.484 152.072ZM58.484 151.064C58.892 151.064 59.256 150.972 59.576 150.788C59.904 150.604 60.16 150.344 60.344 150.008C60.528 149.664 60.62 149.268 60.62 148.82C60.62 148.364 60.528 147.972 60.344 147.644C60.16 147.308 59.904 147.048 59.576 146.864C59.256 146.68 58.892 146.588 58.484 146.588C58.076 146.588 57.712 146.68 57.392 146.864C57.072 147.048 56.816 147.308 56.624 147.644C56.432 147.972 56.336 148.364 56.336 148.82C56.336 149.268 56.432 149.664 56.624 150.008C56.816 150.344 57.072 150.604 57.392 150.788C57.712 150.972 58.076 151.064 58.484 151.064ZM63.5125 152.072C63.2885 152.072 63.0965 151.996 62.9365 151.844C62.7765 151.684 62.6965 151.484 62.6965 151.244C62.6965 151.004 62.7765 150.808 62.9365 150.656C63.0965 150.504 63.2885 150.428 63.5125 150.428C63.7285 150.428 63.9125 150.504 64.0645 150.656C64.2245 150.808 64.3045 151.004 64.3045 151.244C64.3045 151.484 64.2245 151.684 64.0645 151.844C63.9125 151.996 63.7285 152.072 63.5125 152.072ZM70.4259 147.572H74.7579V148.604H70.4259V147.572ZM70.5459 152H69.3459V143.6H75.2739V144.644H70.5459V152ZM80.5088 152V150.656L80.4488 150.404V148.112C80.4488 147.624 80.3048 147.248 80.0168 146.984C79.7368 146.712 79.3128 146.576 78.7448 146.576C78.3688 146.576 78.0008 146.64 77.6408 146.768C77.2808 146.888 76.9768 147.052 76.7288 147.26L76.2488 146.396C76.5768 146.132 76.9688 145.932 77.4248 145.796C77.8888 145.652 78.3728 145.58 78.8768 145.58C79.7488 145.58 80.4208 145.792 80.8928 146.216C81.3648 146.64 81.6008 147.288 81.6008 148.16V152H80.5088ZM78.4208 152.072C77.9488 152.072 77.5328 151.992 77.1728 151.832C76.8208 151.672 76.5488 151.452 76.3568 151.172C76.1648 150.884 76.0688 150.56 76.0688 150.2C76.0688 149.856 76.1488 149.544 76.3088 149.264C76.4768 148.984 76.7448 148.76 77.1128 148.592C77.4888 148.424 77.9928 148.34 78.6248 148.34H80.6408V149.168H78.6728C78.0968 149.168 77.7088 149.264 77.5088 149.456C77.3088 149.648 77.2088 149.88 77.2088 150.152C77.2088 150.464 77.3328 150.716 77.5808 150.908C77.8288 151.092 78.1728 151.184 78.6128 151.184C79.0448 151.184 79.4208 151.088 79.7408 150.896C80.0688 150.704 80.3048 150.424 80.4488 150.056L80.6768 150.848C80.5248 151.224 80.2568 151.524 79.8728 151.748C79.4888 151.964 79.0048 152.072 78.4208 152.072ZM86.5046 152.072C85.8566 152.072 85.2766 151.932 84.7646 151.652C84.2606 151.372 83.8646 150.988 83.5766 150.5C83.2886 150.012 83.1446 149.452 83.1446 148.82C83.1446 148.188 83.2886 147.628 83.5766 147.14C83.8646 146.652 84.2606 146.272 84.7646 146C85.2766 145.72 85.8566 145.58 86.5046 145.58C87.0806 145.58 87.5926 145.696 88.0406 145.928C88.4966 146.152 88.8486 146.488 89.0966 146.936L88.2206 147.5C88.0126 147.188 87.7566 146.96 87.4526 146.816C87.1566 146.664 86.8366 146.588 86.4926 146.588C86.0766 146.588 85.7046 146.68 85.3766 146.864C85.0486 147.048 84.7886 147.308 84.5966 147.644C84.4046 147.972 84.3086 148.364 84.3086 148.82C84.3086 149.276 84.4046 149.672 84.5966 150.008C84.7886 150.344 85.0486 150.604 85.3766 150.788C85.7046 150.972 86.0766 151.064 86.4926 151.064C86.8366 151.064 87.1566 150.992 87.4526 150.848C87.7566 150.696 88.0126 150.464 88.2206 150.152L89.0966 150.704C88.8486 151.144 88.4966 151.484 88.0406 151.724C87.5926 151.956 87.0806 152.072 86.5046 152.072ZM85.9406 154.688C85.7326 154.688 85.5406 154.664 85.3646 154.616C85.1886 154.576 85.0246 154.512 84.8726 154.424L85.1246 153.836C85.2526 153.908 85.3806 153.96 85.5086 153.992C85.6446 154.024 85.7886 154.04 85.9406 154.04C86.1726 154.04 86.3406 153.996 86.4446 153.908C86.5566 153.828 86.6126 153.712 86.6126 153.56C86.6126 153.416 86.5566 153.3 86.4446 153.212C86.3406 153.132 86.1686 153.092 85.9286 153.092H85.6046L85.9046 151.916H86.5646L86.3846 152.6C86.7286 152.632 86.9886 152.74 87.1646 152.924C87.3406 153.108 87.4286 153.332 87.4286 153.596C87.4286 153.932 87.2926 154.196 87.0206 154.388C86.7486 154.588 86.3886 154.688 85.9406 154.688ZM94.5361 152V150.656L94.4761 150.404V148.112C94.4761 147.624 94.3321 147.248 94.0441 146.984C93.7641 146.712 93.3401 146.576 92.7721 146.576C92.3961 146.576 92.0281 146.64 91.6681 146.768C91.3081 146.888 91.0041 147.052 90.7561 147.26L90.2761 146.396C90.6041 146.132 90.9961 145.932 91.4521 145.796C91.9161 145.652 92.4001 145.58 92.9041 145.58C93.7761 145.58 94.4481 145.792 94.9201 146.216C95.3921 146.64 95.6281 147.288 95.6281 148.16V152H94.5361ZM92.4481 152.072C91.9761 152.072 91.5601 151.992 91.2001 151.832C90.8481 151.672 90.5761 151.452 90.3841 151.172C90.1921 150.884 90.0961 150.56 90.0961 150.2C90.0961 149.856 90.1761 149.544 90.3361 149.264C90.5041 148.984 90.7721 148.76 91.1401 148.592C91.5161 148.424 92.0201 148.34 92.6521 148.34H94.6681V149.168H92.7001C92.1241 149.168 91.7361 149.264 91.5361 149.456C91.3361 149.648 91.2361 149.88 91.2361 150.152C91.2361 150.464 91.3601 150.716 91.6081 150.908C91.8561 151.092 92.2001 151.184 92.6401 151.184C93.0721 151.184 93.4481 151.088 93.7681 150.896C94.0961 150.704 94.3321 150.424 94.4761 150.056L94.7041 150.848C94.5521 151.224 94.2841 151.524 93.9001 151.748C93.5161 151.964 93.0321 152.072 92.4481 152.072ZM100.983 152V145.64H102.135V152H100.983ZM101.559 144.416C101.335 144.416 101.147 144.344 100.995 144.2C100.851 144.056 100.779 143.88 100.779 143.672C100.779 143.456 100.851 143.276 100.995 143.132C101.147 142.988 101.335 142.916 101.559 142.916C101.783 142.916 101.967 142.988 102.111 143.132C102.263 143.268 102.339 143.44 102.339 143.648C102.339 143.864 102.267 144.048 102.123 144.2C101.979 144.344 101.791 144.416 101.559 144.416ZM106.158 152.072C105.63 152.072 105.126 152 104.646 151.856C104.174 151.712 103.802 151.536 103.53 151.328L104.01 150.416C104.282 150.6 104.618 150.756 105.018 150.884C105.418 151.012 105.826 151.076 106.242 151.076C106.778 151.076 107.162 151 107.394 150.848C107.634 150.696 107.754 150.484 107.754 150.212C107.754 150.012 107.682 149.856 107.538 149.744C107.394 149.632 107.202 149.548 106.962 149.492C106.73 149.436 106.47 149.388 106.182 149.348C105.894 149.3 105.606 149.244 105.318 149.18C105.03 149.108 104.766 149.012 104.526 148.892C104.286 148.764 104.094 148.592 103.95 148.376C103.806 148.152 103.734 147.856 103.734 147.488C103.734 147.104 103.842 146.768 104.058 146.48C104.274 146.192 104.578 145.972 104.97 145.82C105.37 145.66 105.842 145.58 106.386 145.58C106.802 145.58 107.222 145.632 107.646 145.736C108.078 145.832 108.43 145.972 108.702 146.156L108.21 147.068C107.922 146.876 107.622 146.744 107.31 146.672C106.998 146.6 106.686 146.564 106.374 146.564C105.87 146.564 105.494 146.648 105.246 146.816C104.998 146.976 104.874 147.184 104.874 147.44C104.874 147.656 104.946 147.824 105.09 147.944C105.242 148.056 105.434 148.144 105.666 148.208C105.906 148.272 106.17 148.328 106.458 148.376C106.746 148.416 107.034 148.472 107.322 148.544C107.61 148.608 107.87 148.7 108.102 148.82C108.342 148.94 108.534 149.108 108.678 149.324C108.83 149.54 108.906 149.828 108.906 150.188C108.906 150.572 108.794 150.904 108.57 151.184C108.346 151.464 108.03 151.684 107.622 151.844C107.214 151.996 106.726 152.072 106.158 152.072ZM112.17 152.072C111.642 152.072 111.138 152 110.658 151.856C110.186 151.712 109.814 151.536 109.542 151.328L110.022 150.416C110.294 150.6 110.63 150.756 111.03 150.884C111.43 151.012 111.838 151.076 112.254 151.076C112.79 151.076 113.174 151 113.406 150.848C113.646 150.696 113.766 150.484 113.766 150.212C113.766 150.012 113.694 149.856 113.55 149.744C113.406 149.632 113.214 149.548 112.974 149.492C112.742 149.436 112.482 149.388 112.194 149.348C111.906 149.3 111.618 149.244 111.33 149.18C111.042 149.108 110.778 149.012 110.538 148.892C110.298 148.764 110.106 148.592 109.962 148.376C109.818 148.152 109.746 147.856 109.746 147.488C109.746 147.104 109.854 146.768 110.07 146.48C110.286 146.192 110.59 145.972 110.982 145.82C111.382 145.66 111.854 145.58 112.398 145.58C112.814 145.58 113.234 145.632 113.658 145.736C114.09 145.832 114.442 145.972 114.714 146.156L114.222 147.068C113.934 146.876 113.634 146.744 113.322 146.672C113.01 146.6 112.698 146.564 112.386 146.564C111.882 146.564 111.506 146.648 111.258 146.816C111.01 146.976 110.886 147.184 110.886 147.44C110.886 147.656 110.958 147.824 111.102 147.944C111.254 148.056 111.446 148.144 111.678 148.208C111.918 148.272 112.182 148.328 112.47 148.376C112.758 148.416 113.046 148.472 113.334 148.544C113.622 148.608 113.882 148.7 114.114 148.82C114.354 148.94 114.546 149.108 114.69 149.324C114.842 149.54 114.918 149.828 114.918 150.188C114.918 150.572 114.806 150.904 114.582 151.184C114.358 151.464 114.042 151.684 113.634 151.844C113.226 151.996 112.738 152.072 112.17 152.072ZM119.082 152.072C118.442 152.072 117.874 151.932 117.378 151.652C116.882 151.372 116.49 150.988 116.202 150.5C115.914 150.004 115.77 149.444 115.77 148.82C115.77 148.188 115.914 147.628 116.202 147.14C116.49 146.652 116.882 146.272 117.378 146C117.874 145.72 118.442 145.58 119.082 145.58C119.714 145.58 120.278 145.72 120.774 146C121.278 146.272 121.67 146.652 121.95 147.14C122.238 147.62 122.382 148.18 122.382 148.82C122.382 149.452 122.238 150.012 121.95 150.5C121.67 150.988 121.278 151.372 120.774 151.652C120.278 151.932 119.714 152.072 119.082 152.072ZM119.082 151.064C119.49 151.064 119.854 150.972 120.174 150.788C120.502 150.604 120.758 150.344 120.942 150.008C121.126 149.664 121.218 149.268 121.218 148.82C121.218 148.364 121.126 147.972 120.942 147.644C120.758 147.308 120.502 147.048 120.174 146.864C119.854 146.68 119.49 146.588 119.082 146.588C118.674 146.588 118.31 146.68 117.99 146.864C117.67 147.048 117.414 147.308 117.222 147.644C117.03 147.972 116.934 148.364 116.934 148.82C116.934 149.268 117.03 149.664 117.222 150.008C117.414 150.344 117.67 150.604 117.99 150.788C118.31 150.972 118.674 151.064 119.082 151.064ZM129.969 152.072C129.321 152.072 128.741 151.932 128.229 151.652C127.725 151.372 127.329 150.988 127.041 150.5C126.753 150.012 126.609 149.452 126.609 148.82C126.609 148.188 126.753 147.628 127.041 147.14C127.329 146.652 127.725 146.272 128.229 146C128.741 145.72 129.321 145.58 129.969 145.58C130.545 145.58 131.057 145.696 131.505 145.928C131.961 146.152 132.313 146.488 132.561 146.936L131.685 147.5C131.477 147.188 131.221 146.96 130.917 146.816C130.621 146.664 130.301 146.588 129.957 146.588C129.541 146.588 129.169 146.68 128.841 146.864C128.513 147.048 128.253 147.308 128.061 147.644C127.869 147.972 127.773 148.364 127.773 148.82C127.773 149.276 127.869 149.672 128.061 150.008C128.253 150.344 128.513 150.604 128.841 150.788C129.169 150.972 129.541 151.064 129.957 151.064C130.301 151.064 130.621 150.992 130.917 150.848C131.221 150.696 131.477 150.464 131.685 150.152L132.561 150.704C132.313 151.144 131.961 151.484 131.505 151.724C131.057 151.956 130.545 152.072 129.969 152.072ZM136.683 152.072C136.043 152.072 135.475 151.932 134.979 151.652C134.483 151.372 134.091 150.988 133.803 150.5C133.515 150.004 133.371 149.444 133.371 148.82C133.371 148.188 133.515 147.628 133.803 147.14C134.091 146.652 134.483 146.272 134.979 146C135.475 145.72 136.043 145.58 136.683 145.58C137.315 145.58 137.879 145.72 138.375 146C138.879 146.272 139.271 146.652 139.551 147.14C139.839 147.62 139.983 148.18 139.983 148.82C139.983 149.452 139.839 150.012 139.551 150.5C139.271 150.988 138.879 151.372 138.375 151.652C137.879 151.932 137.315 152.072 136.683 152.072ZM136.683 151.064C137.091 151.064 137.455 150.972 137.775 150.788C138.103 150.604 138.359 150.344 138.543 150.008C138.727 149.664 138.819 149.268 138.819 148.82C138.819 148.364 138.727 147.972 138.543 147.644C138.359 147.308 138.103 147.048 137.775 146.864C137.455 146.68 137.091 146.588 136.683 146.588C136.275 146.588 135.911 146.68 135.591 146.864C135.271 147.048 135.015 147.308 134.823 147.644C134.631 147.972 134.535 148.364 134.535 148.82C134.535 149.268 134.631 149.664 134.823 150.008C135.015 150.344 135.271 150.604 135.591 150.788C135.911 150.972 136.275 151.064 136.683 151.064ZM149.532 145.58C150.044 145.58 150.496 145.68 150.888 145.88C151.28 146.08 151.584 146.384 151.8 146.792C152.024 147.2 152.136 147.716 152.136 148.34V152H150.984V148.472C150.984 147.856 150.84 147.392 150.552 147.08C150.264 146.768 149.86 146.612 149.34 146.612C148.956 146.612 148.62 146.692 148.332 146.852C148.044 147.012 147.82 147.248 147.66 147.56C147.508 147.872 147.432 148.26 147.432 148.724V152H146.28V148.472C146.28 147.856 146.136 147.392 145.848 147.08C145.568 146.768 145.164 146.612 144.636 146.612C144.26 146.612 143.928 146.692 143.64 146.852C143.352 147.012 143.128 147.248 142.968 147.56C142.808 147.872 142.728 148.26 142.728 148.724V152H141.576V145.64H142.68V147.332L142.5 146.9C142.7 146.484 143.008 146.16 143.424 145.928C143.84 145.696 144.324 145.58 144.876 145.58C145.484 145.58 146.008 145.732 146.448 146.036C146.888 146.332 147.176 146.784 147.312 147.392L146.844 147.2C147.036 146.712 147.372 146.32 147.852 146.024C148.332 145.728 148.892 145.58 149.532 145.58ZM53.6734 167.072C53.0334 167.072 52.4654 166.932 51.9694 166.652C51.4734 166.372 51.0814 165.988 50.7934 165.5C50.5054 165.004 50.3614 164.444 50.3614 163.82C50.3614 163.188 50.5054 162.628 50.7934 162.14C51.0814 161.652 51.4734 161.272 51.9694 161C52.4654 160.72 53.0334 160.58 53.6734 160.58C54.3054 160.58 54.8694 160.72 55.3654 161C55.8694 161.272 56.2614 161.652 56.5414 162.14C56.8294 162.62 56.9734 163.18 56.9734 163.82C56.9734 164.452 56.8294 165.012 56.5414 165.5C56.2614 165.988 55.8694 166.372 55.3654 166.652C54.8694 166.932 54.3054 167.072 53.6734 167.072ZM53.6734 166.064C54.0814 166.064 54.4454 165.972 54.7654 165.788C55.0934 165.604 55.3494 165.344 55.5334 165.008C55.7174 164.664 55.8094 164.268 55.8094 163.82C55.8094 163.364 55.7174 162.972 55.5334 162.644C55.3494 162.308 55.0934 162.048 54.7654 161.864C54.4454 161.68 54.0814 161.588 53.6734 161.588C53.2654 161.588 52.9014 161.68 52.5814 161.864C52.2614 162.048 52.0054 162.308 51.8134 162.644C51.6214 162.972 51.5254 163.364 51.5254 163.82C51.5254 164.268 51.6214 164.664 51.8134 165.008C52.0054 165.344 52.2614 165.604 52.5814 165.788C52.9014 165.972 53.2654 166.064 53.6734 166.064ZM60.3906 167.072C59.8626 167.072 59.3586 167 58.8786 166.856C58.4066 166.712 58.0346 166.536 57.7626 166.328L58.2426 165.416C58.5146 165.6 58.8506 165.756 59.2506 165.884C59.6506 166.012 60.0586 166.076 60.4746 166.076C61.0106 166.076 61.3946 166 61.6266 165.848C61.8666 165.696 61.9866 165.484 61.9866 165.212C61.9866 165.012 61.9146 164.856 61.7706 164.744C61.6266 164.632 61.4346 164.548 61.1946 164.492C60.9626 164.436 60.7026 164.388 60.4146 164.348C60.1266 164.3 59.8386 164.244 59.5506 164.18C59.2626 164.108 58.9986 164.012 58.7586 163.892C58.5186 163.764 58.3266 163.592 58.1826 163.376C58.0386 163.152 57.9666 162.856 57.9666 162.488C57.9666 162.104 58.0746 161.768 58.2906 161.48C58.5066 161.192 58.8106 160.972 59.2026 160.82C59.6026 160.66 60.0746 160.58 60.6186 160.58C61.0346 160.58 61.4546 160.632 61.8786 160.736C62.3106 160.832 62.6626 160.972 62.9346 161.156L62.4426 162.068C62.1546 161.876 61.8546 161.744 61.5426 161.672C61.2306 161.6 60.9186 161.564 60.6066 161.564C60.1026 161.564 59.7266 161.648 59.4786 161.816C59.2306 161.976 59.1066 162.184 59.1066 162.44C59.1066 162.656 59.1786 162.824 59.3226 162.944C59.4746 163.056 59.6666 163.144 59.8986 163.208C60.1386 163.272 60.4026 163.328 60.6906 163.376C60.9786 163.416 61.2666 163.472 61.5546 163.544C61.8426 163.608 62.1026 163.7 62.3346 163.82C62.5746 163.94 62.7666 164.108 62.9106 164.324C63.0626 164.54 63.1386 164.828 63.1386 165.188C63.1386 165.572 63.0266 165.904 62.8026 166.184C62.5786 166.464 62.2626 166.684 61.8546 166.844C61.4466 166.996 60.9586 167.072 60.3906 167.072ZM70.429 167.072C69.813 167.072 69.261 166.936 68.773 166.664C68.293 166.392 67.913 166.012 67.633 165.524C67.353 165.036 67.213 164.468 67.213 163.82C67.213 163.172 67.353 162.608 67.633 162.128C67.913 161.64 68.293 161.26 68.773 160.988C69.261 160.716 69.813 160.58 70.429 160.58C70.965 160.58 71.449 160.7 71.881 160.94C72.313 161.18 72.657 161.54 72.913 162.02C73.177 162.5 73.309 163.1 73.309 163.82C73.309 164.54 73.181 165.14 72.925 165.62C72.677 166.1 72.337 166.464 71.905 166.712C71.473 166.952 70.981 167.072 70.429 167.072ZM70.525 166.064C70.925 166.064 71.285 165.972 71.605 165.788C71.933 165.604 72.189 165.344 72.373 165.008C72.565 164.664 72.661 164.268 72.661 163.82C72.661 163.364 72.565 162.972 72.373 162.644C72.189 162.308 71.933 162.048 71.605 161.864C71.285 161.68 70.925 161.588 70.525 161.588C70.117 161.588 69.753 161.68 69.433 161.864C69.113 162.048 68.857 162.308 68.665 162.644C68.473 162.972 68.377 163.364 68.377 163.82C68.377 164.268 68.473 164.664 68.665 165.008C68.857 165.344 69.113 165.604 69.433 165.788C69.753 165.972 70.117 166.064 70.525 166.064ZM72.697 167V165.284L72.769 163.808L72.649 162.332V158.096H73.801V167H72.697ZM78.7047 167.072C78.0647 167.072 77.4967 166.932 77.0007 166.652C76.5047 166.372 76.1127 165.988 75.8247 165.5C75.5367 165.004 75.3927 164.444 75.3927 163.82C75.3927 163.188 75.5367 162.628 75.8247 162.14C76.1127 161.652 76.5047 161.272 77.0007 161C77.4967 160.72 78.0647 160.58 78.7047 160.58C79.3367 160.58 79.9007 160.72 80.3967 161C80.9007 161.272 81.2927 161.652 81.5727 162.14C81.8607 162.62 82.0047 163.18 82.0047 163.82C82.0047 164.452 81.8607 165.012 81.5727 165.5C81.2927 165.988 80.9007 166.372 80.3967 166.652C79.9007 166.932 79.3367 167.072 78.7047 167.072ZM78.7047 166.064C79.1127 166.064 79.4767 165.972 79.7967 165.788C80.1247 165.604 80.3807 165.344 80.5647 165.008C80.7487 164.664 80.8407 164.268 80.8407 163.82C80.8407 163.364 80.7487 162.972 80.5647 162.644C80.3807 162.308 80.1247 162.048 79.7967 161.864C79.4767 161.68 79.1127 161.588 78.7047 161.588C78.2967 161.588 77.9327 161.68 77.6127 161.864C77.2927 162.048 77.0367 162.308 76.8447 162.644C76.6527 162.972 76.5567 163.364 76.5567 163.82C76.5567 164.268 76.6527 164.664 76.8447 165.008C77.0367 165.344 77.2927 165.604 77.6127 165.788C77.9327 165.972 78.2967 166.064 78.7047 166.064ZM83.5979 167V160.64H84.7499V167H83.5979ZM84.1739 159.416C83.9499 159.416 83.7619 159.344 83.6099 159.2C83.4659 159.056 83.3939 158.88 83.3939 158.672C83.3939 158.456 83.4659 158.276 83.6099 158.132C83.7619 157.988 83.9499 157.916 84.1739 157.916C84.3979 157.916 84.5819 157.988 84.7259 158.132C84.8779 158.268 84.9539 158.44 84.9539 158.648C84.9539 158.864 84.8819 159.048 84.7379 159.2C84.5939 159.344 84.4059 159.416 84.1739 159.416ZM88.7734 167.072C88.2454 167.072 87.7414 167 87.2614 166.856C86.7894 166.712 86.4174 166.536 86.1454 166.328L86.6254 165.416C86.8974 165.6 87.2334 165.756 87.6334 165.884C88.0334 166.012 88.4414 166.076 88.8574 166.076C89.3934 166.076 89.7774 166 90.0094 165.848C90.2494 165.696 90.3694 165.484 90.3694 165.212C90.3694 165.012 90.2974 164.856 90.1534 164.744C90.0094 164.632 89.8174 164.548 89.5774 164.492C89.3454 164.436 89.0854 164.388 88.7974 164.348C88.5094 164.3 88.2214 164.244 87.9334 164.18C87.6454 164.108 87.3814 164.012 87.1414 163.892C86.9014 163.764 86.7094 163.592 86.5654 163.376C86.4214 163.152 86.3494 162.856 86.3494 162.488C86.3494 162.104 86.4574 161.768 86.6734 161.48C86.8894 161.192 87.1934 160.972 87.5854 160.82C87.9854 160.66 88.4574 160.58 89.0014 160.58C89.4174 160.58 89.8374 160.632 90.2614 160.736C90.6934 160.832 91.0454 160.972 91.3174 161.156L90.8254 162.068C90.5374 161.876 90.2374 161.744 89.9254 161.672C89.6134 161.6 89.3014 161.564 88.9894 161.564C88.4854 161.564 88.1094 161.648 87.8614 161.816C87.6134 161.976 87.4894 162.184 87.4894 162.44C87.4894 162.656 87.5614 162.824 87.7054 162.944C87.8574 163.056 88.0494 163.144 88.2814 163.208C88.5214 163.272 88.7854 163.328 89.0734 163.376C89.3614 163.416 89.6494 163.472 89.9374 163.544C90.2254 163.608 90.4854 163.7 90.7174 163.82C90.9574 163.94 91.1494 164.108 91.2934 164.324C91.4454 164.54 91.5214 164.828 91.5214 165.188C91.5214 165.572 91.4094 165.904 91.1854 166.184C90.9614 166.464 90.6454 166.684 90.2374 166.844C89.8294 166.996 89.3414 167.072 88.7734 167.072ZM96.1838 167V158.096H97.3358V167H96.1838ZM103.483 167V165.656L103.423 165.404V163.112C103.423 162.624 103.279 162.248 102.991 161.984C102.711 161.712 102.287 161.576 101.719 161.576C101.343 161.576 100.975 161.64 100.615 161.768C100.255 161.888 99.9514 162.052 99.7034 162.26L99.2234 161.396C99.5514 161.132 99.9434 160.932 100.399 160.796C100.863 160.652 101.347 160.58 101.851 160.58C102.723 160.58 103.395 160.792 103.867 161.216C104.339 161.64 104.575 162.288 104.575 163.16V167H103.483ZM101.395 167.072C100.923 167.072 100.507 166.992 100.147 166.832C99.7954 166.672 99.5234 166.452 99.3314 166.172C99.1394 165.884 99.0434 165.56 99.0434 165.2C99.0434 164.856 99.1234 164.544 99.2834 164.264C99.4514 163.984 99.7194 163.76 100.087 163.592C100.463 163.424 100.967 163.34 101.599 163.34H103.615V164.168H101.647C101.071 164.168 100.683 164.264 100.483 164.456C100.283 164.648 100.183 164.88 100.183 165.152C100.183 165.464 100.307 165.716 100.555 165.908C100.803 166.092 101.147 166.184 101.587 166.184C102.019 166.184 102.395 166.088 102.715 165.896C103.043 165.704 103.279 165.424 103.423 165.056L103.651 165.848C103.499 166.224 103.231 166.524 102.847 166.748C102.463 166.964 101.979 167.072 101.395 167.072ZM109.335 167.072C108.719 167.072 108.167 166.936 107.679 166.664C107.199 166.392 106.819 166.012 106.539 165.524C106.259 165.036 106.119 164.468 106.119 163.82C106.119 163.172 106.259 162.608 106.539 162.128C106.819 161.64 107.199 161.26 107.679 160.988C108.167 160.716 108.719 160.58 109.335 160.58C109.871 160.58 110.355 160.7 110.787 160.94C111.219 161.18 111.563 161.54 111.819 162.02C112.083 162.5 112.215 163.1 112.215 163.82C112.215 164.54 112.087 165.14 111.831 165.62C111.583 166.1 111.243 166.464 110.811 166.712C110.379 166.952 109.887 167.072 109.335 167.072ZM109.431 166.064C109.831 166.064 110.191 165.972 110.511 165.788C110.839 165.604 111.095 165.344 111.279 165.008C111.471 164.664 111.567 164.268 111.567 163.82C111.567 163.364 111.471 162.972 111.279 162.644C111.095 162.308 110.839 162.048 110.511 161.864C110.191 161.68 109.831 161.588 109.431 161.588C109.023 161.588 108.659 161.68 108.339 161.864C108.019 162.048 107.763 162.308 107.571 162.644C107.379 162.972 107.283 163.364 107.283 163.82C107.283 164.268 107.379 164.664 107.571 165.008C107.763 165.344 108.019 165.604 108.339 165.788C108.659 165.972 109.023 166.064 109.431 166.064ZM111.603 167V165.284L111.675 163.808L111.555 162.332V158.096H112.707V167H111.603ZM117.611 167.072C116.971 167.072 116.403 166.932 115.907 166.652C115.411 166.372 115.019 165.988 114.731 165.5C114.443 165.004 114.299 164.444 114.299 163.82C114.299 163.188 114.443 162.628 114.731 162.14C115.019 161.652 115.411 161.272 115.907 161C116.403 160.72 116.971 160.58 117.611 160.58C118.243 160.58 118.807 160.72 119.303 161C119.807 161.272 120.199 161.652 120.479 162.14C120.767 162.62 120.911 163.18 120.911 163.82C120.911 164.452 120.767 165.012 120.479 165.5C120.199 165.988 119.807 166.372 119.303 166.652C118.807 166.932 118.243 167.072 117.611 167.072ZM117.611 166.064C118.019 166.064 118.383 165.972 118.703 165.788C119.031 165.604 119.287 165.344 119.471 165.008C119.655 164.664 119.747 164.268 119.747 163.82C119.747 163.364 119.655 162.972 119.471 162.644C119.287 162.308 119.031 162.048 118.703 161.864C118.383 161.68 118.019 161.588 117.611 161.588C117.203 161.588 116.839 161.68 116.519 161.864C116.199 162.048 115.943 162.308 115.751 162.644C115.559 162.972 115.463 163.364 115.463 163.82C115.463 164.268 115.559 164.664 115.751 165.008C115.943 165.344 116.199 165.604 116.519 165.788C116.839 165.972 117.203 166.064 117.611 166.064ZM124.328 167.072C123.8 167.072 123.296 167 122.816 166.856C122.344 166.712 121.972 166.536 121.7 166.328L122.18 165.416C122.452 165.6 122.788 165.756 123.188 165.884C123.588 166.012 123.996 166.076 124.412 166.076C124.948 166.076 125.332 166 125.564 165.848C125.804 165.696 125.924 165.484 125.924 165.212C125.924 165.012 125.852 164.856 125.708 164.744C125.564 164.632 125.372 164.548 125.132 164.492C124.9 164.436 124.64 164.388 124.352 164.348C124.064 164.3 123.776 164.244 123.488 164.18C123.2 164.108 122.936 164.012 122.696 163.892C122.456 163.764 122.264 163.592 122.12 163.376C121.976 163.152 121.904 162.856 121.904 162.488C121.904 162.104 122.012 161.768 122.228 161.48C122.444 161.192 122.748 160.972 123.14 160.82C123.54 160.66 124.012 160.58 124.556 160.58C124.972 160.58 125.392 160.632 125.816 160.736C126.248 160.832 126.6 160.972 126.872 161.156L126.38 162.068C126.092 161.876 125.792 161.744 125.48 161.672C125.168 161.6 124.856 161.564 124.544 161.564C124.04 161.564 123.664 161.648 123.416 161.816C123.168 161.976 123.044 162.184 123.044 162.44C123.044 162.656 123.116 162.824 123.26 162.944C123.412 163.056 123.604 163.144 123.836 163.208C124.076 163.272 124.34 163.328 124.628 163.376C124.916 163.416 125.204 163.472 125.492 163.544C125.78 163.608 126.04 163.7 126.272 163.82C126.512 163.94 126.704 164.108 126.848 164.324C127 164.54 127.076 164.828 127.076 165.188C127.076 165.572 126.964 165.904 126.74 166.184C126.516 166.464 126.2 166.684 125.792 166.844C125.384 166.996 124.896 167.072 124.328 167.072ZM128.792 167.072C128.568 167.072 128.376 166.996 128.216 166.844C128.056 166.684 127.976 166.484 127.976 166.244C127.976 166.004 128.056 165.808 128.216 165.656C128.376 165.504 128.568 165.428 128.792 165.428C129.008 165.428 129.192 165.504 129.344 165.656C129.504 165.808 129.584 166.004 129.584 166.244C129.584 166.484 129.504 166.684 129.344 166.844C129.192 166.996 129.008 167.072 128.792 167.072Z" fill="#008E86"/>
<path d="M29.5522 55L73.8805 55.1798L81.9402 76.8521L29.5522 55Z" fill="#008E86" stroke="#00635D" stroke-width="2" stroke-linejoin="round"/>
<path d="M81.9404 33.5074L150.448 54.9999L81.9401 76.4924L73.8806 54.9999L81.9404 33.5074Z" fill="#008E86" stroke="#00635D" stroke-width="2" stroke-linejoin="round"/>
<path d="M29.5522 55L81.9402 33.5075L102.089 44.9255L29.5522 55Z" fill="#008E86" stroke="#00635D" stroke-width="2" stroke-linejoin="round"/>
<path d="M29.5522 55C75.8954 48.9554 118.209 33.9995 98.7312 55H29.5522Z" fill="#00D8CC" stroke="#00635D" stroke-width="2" stroke-linejoin="round"/>
<path d="M150.448 55L29.5525 55" stroke="#00635D" stroke-width="2"/>
<path d="M114.886 50.3321C114.495 50.7226 113.862 50.7226 113.472 50.3321L107.108 43.9678C106.717 43.5773 106.717 42.9441 107.108 42.5536C107.499 42.1631 108.132 42.1631 108.522 42.5537L114.179 48.2108L119.836 42.5542C120.226 42.1637 120.86 42.1637 121.25 42.5543C121.641 42.9448 121.641 43.578 121.25 43.9685L114.886 50.3321ZM57.1249 36.5199C56.573 36.5396 56.1096 36.1081 56.0899 35.5562L55.7689 26.5619C55.7492 26.01 56.1807 25.5466 56.7326 25.5269C57.2845 25.5072 57.7479 25.9387 57.7676 26.4906L58.053 34.4855L66.0479 34.2002C66.5998 34.1805 67.0632 34.6119 67.0829 35.1639C67.1026 35.7158 66.6711 36.1792 66.1192 36.1989L57.1249 36.5199ZM113.179 49.625C113.179 38.5191 103.967 30.3878 92.1909 27.4232C80.4425 24.4656 66.5792 26.7957 57.8211 36.202L56.3574 34.8391C65.7344 24.768 80.4164 22.3966 92.6792 25.4837C104.914 28.5638 115.179 37.2235 115.179 49.625L113.179 49.625Z" fill="black"/>
</g>
<defs>
<clipPath id="clip0_14_3301">
<rect width="180" height="180" rx="20" fill="white"/>
</clipPath>
<clipPath id="clip1_14_3301">
<path d="M0 30L-1.31134e-06 0L30 -1.31134e-06L30 10C30 21.0457 21.0457 30 10 30L0 30Z" fill="white"/>
</clipPath>
</defs>
</svg>
