<svg width="180" height="180" viewBox="0 0 180 180" fill="none" xmlns="http://www.w3.org/2000/svg">
<g clip-path="url(#clip0_14_3323)">
<rect width="180" height="180" rx="20" fill="#F2F2F2"/>
<g clip-path="url(#clip1_14_3323)">
<path d="M0 30L-1.31134e-06 0L30 -1.31134e-06L30 10C30 21.0457 21.0457 30 10 30L0 30Z" fill="#333333"/>
<path d="M15.9223 13.976C16.6369 13.976 17.2876 14.12 17.8743 14.408C18.4609 14.696 18.9249 15.1067 19.2663 15.64C19.6076 16.1627 19.7783 16.7707 19.7783 17.464C19.7783 18.2107 19.5916 18.8667 19.2183 19.432C18.8449 19.9973 18.3329 20.4347 17.6823 20.744C17.0423 21.0427 16.3276 21.192 15.5383 21.192C13.9703 21.192 12.7436 20.712 11.8583 19.752C10.9729 18.792 10.5303 17.4213 10.5303 15.64C10.5303 14.3707 10.7703 13.2827 11.2503 12.376C11.7303 11.4693 12.3969 10.7813 13.2503 10.312C14.1143 9.84267 15.1116 9.608 16.2423 9.608C16.8396 9.608 17.4103 9.67733 17.9543 9.816C18.5089 9.944 18.9783 10.1307 19.3623 10.376L18.4023 12.28C17.8476 11.9067 17.1489 11.72 16.3063 11.72C15.3569 11.72 14.6049 11.9973 14.0503 12.552C13.4956 13.1067 13.1969 13.912 13.1543 14.968C13.8156 14.3067 14.7383 13.976 15.9223 13.976ZM15.3943 19.256C15.9489 19.256 16.3969 19.1067 16.7383 18.808C17.0903 18.5093 17.2663 18.104 17.2663 17.592C17.2663 17.08 17.0903 16.6747 16.7383 16.376C16.3969 16.0667 15.9383 15.912 15.3623 15.912C14.7969 15.912 14.3329 16.072 13.9703 16.392C13.6076 16.7013 13.4263 17.1013 13.4263 17.592C13.4263 18.0827 13.6023 18.4827 13.9543 18.792C14.3063 19.1013 14.7863 19.256 15.3943 19.256Z" fill="#F2F2F2"/>
</g>
<path d="M38.76 129V120.6H42.3C43.196 120.6 43.984 120.776 44.664 121.128C45.352 121.48 45.884 121.972 46.26 122.604C46.644 123.236 46.836 123.968 46.836 124.8C46.836 125.632 46.644 126.364 46.26 126.996C45.884 127.628 45.352 128.12 44.664 128.472C43.984 128.824 43.196 129 42.3 129H38.76ZM39.96 127.956H42.228C42.924 127.956 43.524 127.824 44.028 127.56C44.54 127.296 44.936 126.928 45.216 126.456C45.496 125.976 45.636 125.424 45.636 124.8C45.636 124.168 45.496 123.616 45.216 123.144C44.936 122.672 44.54 122.304 44.028 122.04C43.524 121.776 42.924 121.644 42.228 121.644H39.96V127.956ZM51.2301 129.072C50.5901 129.072 50.0221 128.932 49.5261 128.652C49.0301 128.372 48.6381 127.988 48.3501 127.5C48.0621 127.004 47.9181 126.444 47.9181 125.82C47.9181 125.188 48.0621 124.628 48.3501 124.14C48.6381 123.652 49.0301 123.272 49.5261 123C50.0221 122.72 50.5901 122.58 51.2301 122.58C51.8621 122.58 52.4261 122.72 52.9221 123C53.4261 123.272 53.8181 123.652 54.0981 124.14C54.3861 124.62 54.5301 125.18 54.5301 125.82C54.5301 126.452 54.3861 127.012 54.0981 127.5C53.8181 127.988 53.4261 128.372 52.9221 128.652C52.4261 128.932 51.8621 129.072 51.2301 129.072ZM51.2301 128.064C51.6381 128.064 52.0021 127.972 52.3221 127.788C52.6501 127.604 52.9061 127.344 53.0901 127.008C53.2741 126.664 53.3661 126.268 53.3661 125.82C53.3661 125.364 53.2741 124.972 53.0901 124.644C52.9061 124.308 52.6501 124.048 52.3221 123.864C52.0021 123.68 51.6381 123.588 51.2301 123.588C50.8221 123.588 50.4581 123.68 50.1381 123.864C49.8181 124.048 49.5621 124.308 49.3701 124.644C49.1781 124.972 49.0821 125.364 49.0821 125.82C49.0821 126.268 49.1781 126.664 49.3701 127.008C49.5621 127.344 49.8181 127.604 50.1381 127.788C50.4581 127.972 50.8221 128.064 51.2301 128.064ZM59.4953 129.072C58.9513 129.072 58.4593 128.952 58.0193 128.712C57.5873 128.464 57.2433 128.1 56.9873 127.62C56.7393 127.14 56.6152 126.54 56.6152 125.82C56.6152 125.1 56.7433 124.5 56.9993 124.02C57.2633 123.54 57.6113 123.18 58.0433 122.94C58.4833 122.7 58.9673 122.58 59.4953 122.58C60.1193 122.58 60.6713 122.716 61.1513 122.988C61.6313 123.26 62.0113 123.64 62.2913 124.128C62.5713 124.608 62.7113 125.172 62.7113 125.82C62.7113 126.468 62.5713 127.036 62.2913 127.524C62.0113 128.012 61.6313 128.392 61.1513 128.664C60.6713 128.936 60.1193 129.072 59.4953 129.072ZM56.1233 129V120.096H57.2753V124.332L57.1553 125.808L57.2273 127.284V129H56.1233ZM59.3993 128.064C59.8073 128.064 60.1713 127.972 60.4913 127.788C60.8193 127.604 61.0753 127.344 61.2593 127.008C61.4513 126.664 61.5473 126.268 61.5473 125.82C61.5473 125.364 61.4513 124.972 61.2593 124.644C61.0753 124.308 60.8193 124.048 60.4913 123.864C60.1713 123.68 59.8073 123.588 59.3993 123.588C58.9993 123.588 58.6353 123.68 58.3073 123.864C57.9873 124.048 57.7313 124.308 57.5393 124.644C57.3553 124.972 57.2633 125.364 57.2633 125.82C57.2633 126.268 57.3553 126.664 57.5393 127.008C57.7313 127.344 57.9873 127.604 58.3073 127.788C58.6353 127.972 58.9993 128.064 59.3993 128.064ZM64.3029 129V122.64H65.4069V124.368L65.2989 123.936C65.4749 123.496 65.7709 123.16 66.1869 122.928C66.6029 122.696 67.1149 122.58 67.7229 122.58V123.696C67.6749 123.688 67.6269 123.684 67.5789 123.684C67.5389 123.684 67.4989 123.684 67.4589 123.684C66.8429 123.684 66.3549 123.868 65.9949 124.236C65.6349 124.604 65.4549 125.136 65.4549 125.832V129H64.3029ZM71.9162 129.072C71.2362 129.072 70.6362 128.932 70.1162 128.652C69.6042 128.372 69.2042 127.988 68.9162 127.5C68.6362 127.012 68.4962 126.452 68.4962 125.82C68.4962 125.188 68.6322 124.628 68.9042 124.14C69.1842 123.652 69.5642 123.272 70.0442 123C70.5322 122.72 71.0802 122.58 71.6882 122.58C72.3042 122.58 72.8482 122.716 73.3202 122.988C73.7922 123.26 74.1602 123.644 74.4242 124.14C74.6962 124.628 74.8322 125.2 74.8322 125.856C74.8322 125.904 74.8282 125.96 74.8202 126.024C74.8202 126.088 74.8162 126.148 74.8082 126.204H69.3962V125.376H74.2082L73.7402 125.664C73.7482 125.256 73.6642 124.892 73.4882 124.572C73.3122 124.252 73.0682 124.004 72.7562 123.828C72.4522 123.644 72.0962 123.552 71.6882 123.552C71.2882 123.552 70.9322 123.644 70.6202 123.828C70.3082 124.004 70.0642 124.256 69.8882 124.584C69.7122 124.904 69.6242 125.272 69.6242 125.688V125.88C69.6242 126.304 69.7202 126.684 69.9122 127.02C70.1122 127.348 70.3882 127.604 70.7402 127.788C71.0922 127.972 71.4962 128.064 71.9522 128.064C72.3282 128.064 72.6682 128 72.9722 127.872C73.2842 127.744 73.5562 127.552 73.7882 127.296L74.4242 128.04C74.1362 128.376 73.7762 128.632 73.3442 128.808C72.9202 128.984 72.4442 129.072 71.9162 129.072ZM83.6025 129V127.656L83.5425 127.404V125.112C83.5425 124.624 83.3985 124.248 83.1105 123.984C82.8305 123.712 82.4065 123.576 81.8385 123.576C81.4625 123.576 81.0945 123.64 80.7345 123.768C80.3745 123.888 80.0705 124.052 79.8225 124.26L79.3425 123.396C79.6705 123.132 80.0625 122.932 80.5185 122.796C80.9825 122.652 81.4665 122.58 81.9705 122.58C82.8425 122.58 83.5145 122.792 83.9865 123.216C84.4585 123.64 84.6945 124.288 84.6945 125.16V129H83.6025ZM81.5145 129.072C81.0425 129.072 80.6265 128.992 80.2665 128.832C79.9145 128.672 79.6425 128.452 79.4505 128.172C79.2585 127.884 79.1625 127.56 79.1625 127.2C79.1625 126.856 79.2425 126.544 79.4025 126.264C79.5705 125.984 79.8385 125.76 80.2065 125.592C80.5825 125.424 81.0865 125.34 81.7185 125.34H83.7345V126.168H81.7665C81.1905 126.168 80.8025 126.264 80.6025 126.456C80.4025 126.648 80.3025 126.88 80.3025 127.152C80.3025 127.464 80.4265 127.716 80.6745 127.908C80.9225 128.092 81.2665 128.184 81.7065 128.184C82.1385 128.184 82.5145 128.088 82.8345 127.896C83.1625 127.704 83.3985 127.424 83.5425 127.056L83.7705 127.848C83.6185 128.224 83.3505 128.524 82.9665 128.748C82.5825 128.964 82.0985 129.072 81.5145 129.072ZM90.217 129V122.076C90.217 121.452 90.397 120.956 90.757 120.588C91.125 120.212 91.645 120.024 92.317 120.024C92.565 120.024 92.801 120.056 93.025 120.12C93.257 120.176 93.453 120.268 93.613 120.396L93.265 121.272C93.145 121.176 93.009 121.104 92.857 121.056C92.705 121 92.545 120.972 92.377 120.972C92.041 120.972 91.785 121.068 91.609 121.26C91.433 121.444 91.345 121.72 91.345 122.088V122.94L91.369 123.468V129H90.217ZM89.137 123.588V122.64H93.193V123.588H89.137ZM94.285 129V122.64H95.437V129H94.285ZM94.861 121.416C94.637 121.416 94.449 121.344 94.297 121.2C94.153 121.056 94.081 120.88 94.081 120.672C94.081 120.456 94.153 120.276 94.297 120.132C94.449 119.988 94.637 119.916 94.861 119.916C95.085 119.916 95.269 119.988 95.413 120.132C95.565 120.268 95.641 120.44 95.641 120.648C95.641 120.864 95.569 121.048 95.425 121.2C95.281 121.344 95.093 121.416 94.861 121.416ZM100.415 131.4C99.8311 131.4 99.2631 131.316 98.7111 131.148C98.1671 130.988 97.7231 130.756 97.3791 130.452L97.9311 129.564C98.2271 129.82 98.5911 130.02 99.0231 130.164C99.4551 130.316 99.9071 130.392 100.379 130.392C101.131 130.392 101.683 130.216 102.035 129.864C102.387 129.512 102.563 128.976 102.563 128.256V126.912L102.683 125.652L102.623 124.38V122.64H103.715V128.136C103.715 129.256 103.435 130.08 102.875 130.608C102.315 131.136 101.495 131.4 100.415 131.4ZM100.271 128.736C99.6551 128.736 99.1031 128.608 98.6151 128.352C98.1351 128.088 97.7511 127.724 97.4631 127.26C97.1831 126.796 97.0431 126.26 97.0431 125.652C97.0431 125.036 97.1831 124.5 97.4631 124.044C97.7511 123.58 98.1351 123.22 98.6151 122.964C99.1031 122.708 99.6551 122.58 100.271 122.58C100.815 122.58 101.311 122.692 101.759 122.916C102.207 123.132 102.563 123.468 102.827 123.924C103.099 124.38 103.235 124.956 103.235 125.652C103.235 126.34 103.099 126.912 102.827 127.368C102.563 127.824 102.207 128.168 101.759 128.4C101.311 128.624 100.815 128.736 100.271 128.736ZM100.403 127.728C100.827 127.728 101.203 127.64 101.531 127.464C101.859 127.288 102.115 127.044 102.299 126.732C102.491 126.42 102.587 126.06 102.587 125.652C102.587 125.244 102.491 124.884 102.299 124.572C102.115 124.26 101.859 124.02 101.531 123.852C101.203 123.676 100.827 123.588 100.403 123.588C99.9791 123.588 99.5991 123.676 99.2631 123.852C98.9351 124.02 98.6751 124.26 98.4831 124.572C98.2991 124.884 98.2071 125.244 98.2071 125.652C98.2071 126.06 98.2991 126.42 98.4831 126.732C98.6751 127.044 98.9351 127.288 99.2631 127.464C99.5991 127.64 99.9791 127.728 100.403 127.728ZM108.592 129.072C108.048 129.072 107.568 128.972 107.152 128.772C106.744 128.572 106.424 128.268 106.192 127.86C105.968 127.444 105.856 126.924 105.856 126.3V122.64H107.008V126.168C107.008 126.792 107.156 127.26 107.452 127.572C107.756 127.884 108.18 128.04 108.724 128.04C109.124 128.04 109.472 127.96 109.768 127.8C110.064 127.632 110.292 127.392 110.452 127.08C110.612 126.76 110.692 126.376 110.692 125.928V122.64H111.844V129H110.752V127.284L110.932 127.74C110.724 128.164 110.412 128.492 109.996 128.724C109.58 128.956 109.112 129.072 108.592 129.072ZM114.037 129V122.64H115.141V124.368L115.033 123.936C115.209 123.496 115.505 123.16 115.921 122.928C116.337 122.696 116.849 122.58 117.457 122.58V123.696C117.409 123.688 117.361 123.684 117.313 123.684C117.273 123.684 117.233 123.684 117.193 123.684C116.577 123.684 116.089 123.868 115.729 124.236C115.369 124.604 115.189 125.136 115.189 125.832V129H114.037ZM122.356 129V127.656L122.296 127.404V125.112C122.296 124.624 122.152 124.248 121.864 123.984C121.584 123.712 121.16 123.576 120.592 123.576C120.216 123.576 119.848 123.64 119.488 123.768C119.128 123.888 118.824 124.052 118.576 124.26L118.096 123.396C118.424 123.132 118.816 122.932 119.272 122.796C119.736 122.652 120.22 122.58 120.724 122.58C121.596 122.58 122.268 122.792 122.74 123.216C123.212 123.64 123.448 124.288 123.448 125.16V129H122.356ZM120.268 129.072C119.796 129.072 119.38 128.992 119.02 128.832C118.668 128.672 118.396 128.452 118.204 128.172C118.012 127.884 117.916 127.56 117.916 127.2C117.916 126.856 117.996 126.544 118.156 126.264C118.324 125.984 118.592 125.76 118.96 125.592C119.336 125.424 119.84 125.34 120.472 125.34H122.488V126.168H120.52C119.944 126.168 119.556 126.264 119.356 126.456C119.156 126.648 119.056 126.88 119.056 127.152C119.056 127.464 119.18 127.716 119.428 127.908C119.676 128.092 120.02 128.184 120.46 128.184C120.892 128.184 121.268 128.088 121.588 127.896C121.916 127.704 122.152 127.424 122.296 127.056L122.524 127.848C122.372 128.224 122.104 128.524 121.72 128.748C121.336 128.964 120.852 129.072 120.268 129.072ZM132.751 129V127.656L132.691 127.404V125.112C132.691 124.624 132.547 124.248 132.259 123.984C131.979 123.712 131.555 123.576 130.987 123.576C130.611 123.576 130.243 123.64 129.883 123.768C129.523 123.888 129.219 124.052 128.971 124.26L128.491 123.396C128.819 123.132 129.211 122.932 129.667 122.796C130.131 122.652 130.615 122.58 131.119 122.58C131.991 122.58 132.663 122.792 133.135 123.216C133.607 123.64 133.843 124.288 133.843 125.16V129H132.751ZM130.663 129.072C130.191 129.072 129.775 128.992 129.415 128.832C129.063 128.672 128.791 128.452 128.599 128.172C128.407 127.884 128.311 127.56 128.311 127.2C128.311 126.856 128.391 126.544 128.551 126.264C128.719 125.984 128.987 125.76 129.355 125.592C129.731 125.424 130.235 125.34 130.867 125.34H132.883V126.168H130.915C130.339 126.168 129.951 126.264 129.751 126.456C129.551 126.648 129.451 126.88 129.451 127.152C129.451 127.464 129.575 127.716 129.823 127.908C130.071 128.092 130.415 128.184 130.855 128.184C131.287 128.184 131.663 128.088 131.983 127.896C132.311 127.704 132.547 127.424 132.691 127.056L132.919 127.848C132.767 128.224 132.499 128.524 132.115 128.748C131.731 128.964 131.247 129.072 130.663 129.072ZM138.699 129.072C138.059 129.072 137.491 128.932 136.995 128.652C136.499 128.372 136.107 127.988 135.819 127.5C135.531 127.004 135.387 126.444 135.387 125.82C135.387 125.188 135.531 124.628 135.819 124.14C136.107 123.652 136.499 123.272 136.995 123C137.491 122.72 138.059 122.58 138.699 122.58C139.331 122.58 139.895 122.72 140.391 123C140.895 123.272 141.287 123.652 141.567 124.14C141.855 124.62 141.999 125.18 141.999 125.82C141.999 126.452 141.855 127.012 141.567 127.5C141.287 127.988 140.895 128.372 140.391 128.652C139.895 128.932 139.331 129.072 138.699 129.072ZM138.699 128.064C139.107 128.064 139.471 127.972 139.791 127.788C140.119 127.604 140.375 127.344 140.559 127.008C140.743 126.664 140.835 126.268 140.835 125.82C140.835 125.364 140.743 124.972 140.559 124.644C140.375 124.308 140.119 124.048 139.791 123.864C139.471 123.68 139.107 123.588 138.699 123.588C138.291 123.588 137.927 123.68 137.607 123.864C137.287 124.048 137.031 124.308 136.839 124.644C136.647 124.972 136.551 125.364 136.551 125.82C136.551 126.268 136.647 126.664 136.839 127.008C137.031 127.344 137.287 127.604 137.607 127.788C137.927 127.972 138.291 128.064 138.699 128.064ZM44.1867 137.58C44.6987 137.58 45.1507 137.68 45.5427 137.88C45.9347 138.08 46.2387 138.384 46.4547 138.792C46.6787 139.2 46.7907 139.716 46.7907 140.34V144H45.6387V140.472C45.6387 139.856 45.4947 139.392 45.2067 139.08C44.9187 138.768 44.5147 138.612 43.9947 138.612C43.6107 138.612 43.2747 138.692 42.9867 138.852C42.6987 139.012 42.4747 139.248 42.3147 139.56C42.1627 139.872 42.0867 140.26 42.0867 140.724V144H40.9347V140.472C40.9347 139.856 40.7907 139.392 40.5027 139.08C40.2227 138.768 39.8187 138.612 39.2907 138.612C38.9147 138.612 38.5827 138.692 38.2947 138.852C38.0067 139.012 37.7827 139.248 37.6227 139.56C37.4627 139.872 37.3827 140.26 37.3827 140.724V144H36.2307V137.64H37.3347V139.332L37.1547 138.9C37.3547 138.484 37.6627 138.16 38.0787 137.928C38.4947 137.696 38.9787 137.58 39.5307 137.58C40.1387 137.58 40.6627 137.732 41.1027 138.036C41.5427 138.332 41.8307 138.784 41.9667 139.392L41.4987 139.2C41.6907 138.712 42.0267 138.32 42.5067 138.024C42.9867 137.728 43.5467 137.58 44.1867 137.58ZM51.7424 144.072C51.0624 144.072 50.4624 143.932 49.9424 143.652C49.4304 143.372 49.0304 142.988 48.7424 142.5C48.4624 142.012 48.3224 141.452 48.3224 140.82C48.3224 140.188 48.4584 139.628 48.7304 139.14C49.0104 138.652 49.3904 138.272 49.8704 138C50.3584 137.72 50.9064 137.58 51.5144 137.58C52.1304 137.58 52.6744 137.716 53.1464 137.988C53.6184 138.26 53.9864 138.644 54.2504 139.14C54.5224 139.628 54.6584 140.2 54.6584 140.856C54.6584 140.904 54.6544 140.96 54.6464 141.024C54.6464 141.088 54.6424 141.148 54.6344 141.204H49.2224V140.376H54.0344L53.5664 140.664C53.5744 140.256 53.4904 139.892 53.3144 139.572C53.1384 139.252 52.8944 139.004 52.5824 138.828C52.2784 138.644 51.9224 138.552 51.5144 138.552C51.1144 138.552 50.7584 138.644 50.4464 138.828C50.1344 139.004 49.8904 139.256 49.7144 139.584C49.5384 139.904 49.4504 140.272 49.4504 140.688V140.88C49.4504 141.304 49.5464 141.684 49.7384 142.02C49.9384 142.348 50.2144 142.604 50.5664 142.788C50.9184 142.972 51.3224 143.064 51.7784 143.064C52.1544 143.064 52.4944 143 52.7984 142.872C53.1104 142.744 53.3824 142.552 53.6144 142.296L54.2504 143.04C53.9624 143.376 53.6024 143.632 53.1704 143.808C52.7464 143.984 52.2704 144.072 51.7424 144.072ZM56.258 144V137.64H57.41V144H56.258ZM56.834 136.416C56.61 136.416 56.422 136.344 56.27 136.2C56.126 136.056 56.054 135.88 56.054 135.672C56.054 135.456 56.126 135.276 56.27 135.132C56.422 134.988 56.61 134.916 56.834 134.916C57.058 134.916 57.242 134.988 57.386 135.132C57.538 135.268 57.614 135.44 57.614 135.648C57.614 135.864 57.542 136.048 57.398 136.2C57.254 136.344 57.066 136.416 56.834 136.416ZM62.3336 144.072C61.6936 144.072 61.1256 143.932 60.6296 143.652C60.1336 143.372 59.7416 142.988 59.4536 142.5C59.1656 142.004 59.0216 141.444 59.0216 140.82C59.0216 140.188 59.1656 139.628 59.4536 139.14C59.7416 138.652 60.1336 138.272 60.6296 138C61.1256 137.72 61.6936 137.58 62.3336 137.58C62.9656 137.58 63.5296 137.72 64.0256 138C64.5296 138.272 64.9216 138.652 65.2016 139.14C65.4896 139.62 65.6336 140.18 65.6336 140.82C65.6336 141.452 65.4896 142.012 65.2016 142.5C64.9216 142.988 64.5296 143.372 64.0256 143.652C63.5296 143.932 62.9656 144.072 62.3336 144.072ZM62.3336 143.064C62.7416 143.064 63.1056 142.972 63.4256 142.788C63.7536 142.604 64.0096 142.344 64.1936 142.008C64.3776 141.664 64.4696 141.268 64.4696 140.82C64.4696 140.364 64.3776 139.972 64.1936 139.644C64.0096 139.308 63.7536 139.048 63.4256 138.864C63.1056 138.68 62.7416 138.588 62.3336 138.588C61.9256 138.588 61.5616 138.68 61.2416 138.864C60.9216 139.048 60.6656 139.308 60.4736 139.644C60.2816 139.972 60.1856 140.364 60.1856 140.82C60.1856 141.268 60.2816 141.664 60.4736 142.008C60.6656 142.344 60.9216 142.604 61.2416 142.788C61.5616 142.972 61.9256 143.064 62.3336 143.064ZM66.6301 145.776L67.2301 143.352L67.3861 144.048C67.1541 144.048 66.9581 143.976 66.7981 143.832C66.6461 143.688 66.5701 143.492 66.5701 143.244C66.5701 143.004 66.6461 142.808 66.7981 142.656C66.9581 142.504 67.1501 142.428 67.3741 142.428C67.6061 142.428 67.7941 142.508 67.9381 142.668C68.0821 142.82 68.1541 143.012 68.1541 143.244C68.1541 143.324 68.1461 143.404 68.1301 143.484C68.1221 143.556 68.1021 143.644 68.0701 143.748C68.0461 143.844 68.0061 143.964 67.9501 144.108L67.3861 145.776H66.6301ZM75.6555 144.072C75.0395 144.072 74.4875 143.936 73.9995 143.664C73.5195 143.392 73.1395 143.012 72.8595 142.524C72.5795 142.036 72.4395 141.468 72.4395 140.82C72.4395 140.172 72.5795 139.608 72.8595 139.128C73.1395 138.64 73.5195 138.26 73.9995 137.988C74.4875 137.716 75.0395 137.58 75.6555 137.58C76.1915 137.58 76.6755 137.7 77.1075 137.94C77.5395 138.18 77.8835 138.54 78.1395 139.02C78.4035 139.5 78.5355 140.1 78.5355 140.82C78.5355 141.54 78.4075 142.14 78.1515 142.62C77.9035 143.1 77.5635 143.464 77.1315 143.712C76.6995 143.952 76.2075 144.072 75.6555 144.072ZM75.7515 143.064C76.1515 143.064 76.5115 142.972 76.8315 142.788C77.1595 142.604 77.4155 142.344 77.5995 142.008C77.7915 141.664 77.8875 141.268 77.8875 140.82C77.8875 140.364 77.7915 139.972 77.5995 139.644C77.4155 139.308 77.1595 139.048 76.8315 138.864C76.5115 138.68 76.1515 138.588 75.7515 138.588C75.3435 138.588 74.9795 138.68 74.6595 138.864C74.3395 139.048 74.0835 139.308 73.8915 139.644C73.6995 139.972 73.6035 140.364 73.6035 140.82C73.6035 141.268 73.6995 141.664 73.8915 142.008C74.0835 142.344 74.3395 142.604 74.6595 142.788C74.9795 142.972 75.3435 143.064 75.7515 143.064ZM77.9235 144V142.284L77.9955 140.808L77.8755 139.332V135.096H79.0275V144H77.9235ZM84.0392 144.072C83.3592 144.072 82.7592 143.932 82.2392 143.652C81.7272 143.372 81.3272 142.988 81.0392 142.5C80.7592 142.012 80.6192 141.452 80.6192 140.82C80.6192 140.188 80.7552 139.628 81.0272 139.14C81.3072 138.652 81.6872 138.272 82.1672 138C82.6552 137.72 83.2032 137.58 83.8112 137.58C84.4272 137.58 84.9712 137.716 85.4432 137.988C85.9152 138.26 86.2832 138.644 86.5472 139.14C86.8192 139.628 86.9552 140.2 86.9552 140.856C86.9552 140.904 86.9512 140.96 86.9432 141.024C86.9432 141.088 86.9392 141.148 86.9312 141.204H81.5192V140.376H86.3312L85.8632 140.664C85.8712 140.256 85.7872 139.892 85.6112 139.572C85.4352 139.252 85.1912 139.004 84.8792 138.828C84.5752 138.644 84.2192 138.552 83.8112 138.552C83.4112 138.552 83.0552 138.644 82.7432 138.828C82.4312 139.004 82.1872 139.256 82.0112 139.584C81.8352 139.904 81.7472 140.272 81.7472 140.688V140.88C81.7472 141.304 81.8432 141.684 82.0352 142.02C82.2352 142.348 82.5112 142.604 82.8632 142.788C83.2152 142.972 83.6192 143.064 84.0752 143.064C84.4512 143.064 84.7912 143 85.0952 142.872C85.4072 142.744 85.6792 142.552 85.9112 142.296L86.5472 143.04C86.2592 143.376 85.8992 143.632 85.4672 143.808C85.0432 143.984 84.5672 144.072 84.0392 144.072ZM88.5549 144V137.64H89.7069V144H88.5549ZM89.1309 136.416C88.9069 136.416 88.7189 136.344 88.5669 136.2C88.4229 136.056 88.3509 135.88 88.3509 135.672C88.3509 135.456 88.4229 135.276 88.5669 135.132C88.7189 134.988 88.9069 134.916 89.1309 134.916C89.3549 134.916 89.5389 134.988 89.6829 135.132C89.8349 135.268 89.9109 135.44 89.9109 135.648C89.9109 135.864 89.8389 136.048 89.6949 136.2C89.5509 136.344 89.3629 136.416 89.1309 136.416ZM90.9825 144L93.7185 140.448L93.7065 141.036L91.1025 137.64H92.3865L94.3785 140.256H93.8865L95.8785 137.64H97.1385L94.4985 141.06L94.5105 140.448L97.2705 144H95.9625L93.8625 141.216L94.3305 141.288L92.2665 144H90.9825ZM102.358 144V142.656L102.298 142.404V140.112C102.298 139.624 102.154 139.248 101.866 138.984C101.586 138.712 101.162 138.576 100.594 138.576C100.218 138.576 99.8504 138.64 99.4904 138.768C99.1304 138.888 98.8264 139.052 98.5784 139.26L98.0984 138.396C98.4264 138.132 98.8184 137.932 99.2744 137.796C99.7384 137.652 100.222 137.58 100.726 137.58C101.598 137.58 102.27 137.792 102.742 138.216C103.214 138.64 103.45 139.288 103.45 140.16V144H102.358ZM100.27 144.072C99.7984 144.072 99.3824 143.992 99.0224 143.832C98.6704 143.672 98.3984 143.452 98.2064 143.172C98.0144 142.884 97.9184 142.56 97.9184 142.2C97.9184 141.856 97.9984 141.544 98.1584 141.264C98.3264 140.984 98.5944 140.76 98.9624 140.592C99.3384 140.424 99.8424 140.34 100.474 140.34H102.49V141.168H100.522C99.9464 141.168 99.5584 141.264 99.3584 141.456C99.1584 141.648 99.0584 141.88 99.0584 142.152C99.0584 142.464 99.1824 142.716 99.4304 142.908C99.6784 143.092 100.022 143.184 100.462 143.184C100.894 143.184 101.27 143.088 101.59 142.896C101.918 142.704 102.154 142.424 102.298 142.056L102.526 142.848C102.374 143.224 102.106 143.524 101.722 143.748C101.338 143.964 100.854 144.072 100.27 144.072ZM108.978 137.58C109.498 137.58 109.954 137.68 110.346 137.88C110.746 138.08 111.058 138.384 111.282 138.792C111.506 139.2 111.618 139.716 111.618 140.34V144H110.466V140.472C110.466 139.856 110.314 139.392 110.01 139.08C109.714 138.768 109.294 138.612 108.75 138.612C108.342 138.612 107.986 138.692 107.682 138.852C107.378 139.012 107.142 139.248 106.974 139.56C106.814 139.872 106.734 140.26 106.734 140.724V144H105.582V137.64H106.686V139.356L106.506 138.9C106.714 138.484 107.034 138.16 107.466 137.928C107.898 137.696 108.402 137.58 108.978 137.58ZM116.378 144.072C115.762 144.072 115.21 143.936 114.722 143.664C114.242 143.392 113.862 143.012 113.582 142.524C113.302 142.036 113.162 141.468 113.162 140.82C113.162 140.172 113.302 139.608 113.582 139.128C113.862 138.64 114.242 138.26 114.722 137.988C115.21 137.716 115.762 137.58 116.378 137.58C116.914 137.58 117.398 137.7 117.83 137.94C118.262 138.18 118.606 138.54 118.862 139.02C119.126 139.5 119.258 140.1 119.258 140.82C119.258 141.54 119.13 142.14 118.874 142.62C118.626 143.1 118.286 143.464 117.854 143.712C117.422 143.952 116.93 144.072 116.378 144.072ZM116.474 143.064C116.874 143.064 117.234 142.972 117.554 142.788C117.882 142.604 118.138 142.344 118.322 142.008C118.514 141.664 118.61 141.268 118.61 140.82C118.61 140.364 118.514 139.972 118.322 139.644C118.138 139.308 117.882 139.048 117.554 138.864C117.234 138.68 116.874 138.588 116.474 138.588C116.066 138.588 115.702 138.68 115.382 138.864C115.062 139.048 114.806 139.308 114.614 139.644C114.422 139.972 114.326 140.364 114.326 140.82C114.326 141.268 114.422 141.664 114.614 142.008C114.806 142.344 115.062 142.604 115.382 142.788C115.702 142.972 116.066 143.064 116.474 143.064ZM118.646 144V142.284L118.718 140.808L118.598 139.332V135.096H119.75V144H118.646ZM124.654 144.072C124.014 144.072 123.446 143.932 122.95 143.652C122.454 143.372 122.062 142.988 121.774 142.5C121.486 142.004 121.342 141.444 121.342 140.82C121.342 140.188 121.486 139.628 121.774 139.14C122.062 138.652 122.454 138.272 122.95 138C123.446 137.72 124.014 137.58 124.654 137.58C125.286 137.58 125.85 137.72 126.346 138C126.85 138.272 127.242 138.652 127.522 139.14C127.81 139.62 127.954 140.18 127.954 140.82C127.954 141.452 127.81 142.012 127.522 142.5C127.242 142.988 126.85 143.372 126.346 143.652C125.85 143.932 125.286 144.072 124.654 144.072ZM124.654 143.064C125.062 143.064 125.426 142.972 125.746 142.788C126.074 142.604 126.33 142.344 126.514 142.008C126.698 141.664 126.79 141.268 126.79 140.82C126.79 140.364 126.698 139.972 126.514 139.644C126.33 139.308 126.074 139.048 125.746 138.864C125.426 138.68 125.062 138.588 124.654 138.588C124.246 138.588 123.882 138.68 123.562 138.864C123.242 139.048 122.986 139.308 122.794 139.644C122.602 139.972 122.506 140.364 122.506 140.82C122.506 141.268 122.602 141.664 122.794 142.008C122.986 142.344 123.242 142.604 123.562 142.788C123.882 142.972 124.246 143.064 124.654 143.064ZM136.718 144V142.656L136.658 142.404V140.112C136.658 139.624 136.514 139.248 136.226 138.984C135.946 138.712 135.522 138.576 134.954 138.576C134.578 138.576 134.21 138.64 133.85 138.768C133.49 138.888 133.186 139.052 132.938 139.26L132.458 138.396C132.786 138.132 133.178 137.932 133.634 137.796C134.098 137.652 134.582 137.58 135.086 137.58C135.958 137.58 136.63 137.792 137.102 138.216C137.574 138.64 137.81 139.288 137.81 140.16V144H136.718ZM134.63 144.072C134.158 144.072 133.742 143.992 133.382 143.832C133.03 143.672 132.758 143.452 132.566 143.172C132.374 142.884 132.278 142.56 132.278 142.2C132.278 141.856 132.358 141.544 132.518 141.264C132.686 140.984 132.954 140.76 133.322 140.592C133.698 140.424 134.202 140.34 134.834 140.34H136.85V141.168H134.882C134.306 141.168 133.918 141.264 133.718 141.456C133.518 141.648 133.418 141.88 133.418 142.152C133.418 142.464 133.542 142.716 133.79 142.908C134.038 143.092 134.382 143.184 134.822 143.184C135.254 143.184 135.63 143.088 135.95 142.896C136.278 142.704 136.514 142.424 136.658 142.056L136.886 142.848C136.734 143.224 136.466 143.524 136.082 143.748C135.698 143.964 135.214 144.072 134.63 144.072ZM141.766 144.072C141.238 144.072 140.734 144 140.254 143.856C139.782 143.712 139.41 143.536 139.138 143.328L139.618 142.416C139.89 142.6 140.226 142.756 140.626 142.884C141.026 143.012 141.434 143.076 141.85 143.076C142.386 143.076 142.77 143 143.002 142.848C143.242 142.696 143.362 142.484 143.362 142.212C143.362 142.012 143.29 141.856 143.146 141.744C143.002 141.632 142.81 141.548 142.57 141.492C142.338 141.436 142.078 141.388 141.79 141.348C141.502 141.3 141.214 141.244 140.926 141.18C140.638 141.108 140.374 141.012 140.134 140.892C139.894 140.764 139.702 140.592 139.558 140.376C139.414 140.152 139.342 139.856 139.342 139.488C139.342 139.104 139.45 138.768 139.666 138.48C139.882 138.192 140.186 137.972 140.578 137.82C140.978 137.66 141.45 137.58 141.994 137.58C142.41 137.58 142.83 137.632 143.254 137.736C143.686 137.832 144.038 137.972 144.31 138.156L143.818 139.068C143.53 138.876 143.23 138.744 142.918 138.672C142.606 138.6 142.294 138.564 141.982 138.564C141.478 138.564 141.102 138.648 140.854 138.816C140.606 138.976 140.482 139.184 140.482 139.44C140.482 139.656 140.554 139.824 140.698 139.944C140.85 140.056 141.042 140.144 141.274 140.208C141.514 140.272 141.778 140.328 142.066 140.376C142.354 140.416 142.642 140.472 142.93 140.544C143.218 140.608 143.478 140.7 143.71 140.82C143.95 140.94 144.142 141.108 144.286 141.324C144.438 141.54 144.514 141.828 144.514 142.188C144.514 142.572 144.402 142.904 144.178 143.184C143.954 143.464 143.638 143.684 143.23 143.844C142.822 143.996 142.334 144.072 141.766 144.072ZM43.3059 159.072C42.6899 159.072 42.1379 158.936 41.6499 158.664C41.1699 158.392 40.7899 158.012 40.5099 157.524C40.2299 157.036 40.0899 156.468 40.0899 155.82C40.0899 155.172 40.2299 154.608 40.5099 154.128C40.7899 153.64 41.1699 153.26 41.6499 152.988C42.1379 152.716 42.6899 152.58 43.3059 152.58C43.8419 152.58 44.3259 152.7 44.7579 152.94C45.1899 153.18 45.5339 153.54 45.7899 154.02C46.0539 154.5 46.1859 155.1 46.1859 155.82C46.1859 156.54 46.0579 157.14 45.8019 157.62C45.5539 158.1 45.2139 158.464 44.7819 158.712C44.3499 158.952 43.8579 159.072 43.3059 159.072ZM43.4019 158.064C43.8019 158.064 44.1619 157.972 44.4819 157.788C44.8099 157.604 45.0659 157.344 45.2499 157.008C45.4419 156.664 45.5379 156.268 45.5379 155.82C45.5379 155.364 45.4419 154.972 45.2499 154.644C45.0659 154.308 44.8099 154.048 44.4819 153.864C44.1619 153.68 43.8019 153.588 43.4019 153.588C42.9939 153.588 42.6299 153.68 42.3099 153.864C41.9899 154.048 41.7339 154.308 41.5419 154.644C41.3499 154.972 41.2539 155.364 41.2539 155.82C41.2539 156.268 41.3499 156.664 41.5419 157.008C41.7339 157.344 41.9899 157.604 42.3099 157.788C42.6299 157.972 42.9939 158.064 43.4019 158.064ZM45.5739 159V157.284L45.6459 155.808L45.5259 154.332V150.096H46.6779V159H45.5739ZM51.5816 159.072C50.9416 159.072 50.3736 158.932 49.8776 158.652C49.3816 158.372 48.9896 157.988 48.7016 157.5C48.4136 157.004 48.2696 156.444 48.2696 155.82C48.2696 155.188 48.4136 154.628 48.7016 154.14C48.9896 153.652 49.3816 153.272 49.8776 153C50.3736 152.72 50.9416 152.58 51.5816 152.58C52.2136 152.58 52.7776 152.72 53.2736 153C53.7776 153.272 54.1696 153.652 54.4496 154.14C54.7376 154.62 54.8816 155.18 54.8816 155.82C54.8816 156.452 54.7376 157.012 54.4496 157.5C54.1696 157.988 53.7776 158.372 53.2736 158.652C52.7776 158.932 52.2136 159.072 51.5816 159.072ZM51.5816 158.064C51.9896 158.064 52.3536 157.972 52.6736 157.788C53.0016 157.604 53.2576 157.344 53.4416 157.008C53.6256 156.664 53.7176 156.268 53.7176 155.82C53.7176 155.364 53.6256 154.972 53.4416 154.644C53.2576 154.308 53.0016 154.048 52.6736 153.864C52.3536 153.68 51.9896 153.588 51.5816 153.588C51.1736 153.588 50.8096 153.68 50.4896 153.864C50.1696 154.048 49.9136 154.308 49.7216 154.644C49.5296 154.972 49.4336 155.364 49.4336 155.82C49.4336 156.268 49.5296 156.664 49.7216 157.008C49.9136 157.344 50.1696 157.604 50.4896 157.788C50.8096 157.972 51.1736 158.064 51.5816 158.064ZM59.8468 159.072C59.3028 159.072 58.8108 158.952 58.3708 158.712C57.9388 158.464 57.5948 158.1 57.3388 157.62C57.0908 157.14 56.9668 156.54 56.9668 155.82C56.9668 155.1 57.0948 154.5 57.3508 154.02C57.6148 153.54 57.9628 153.18 58.3948 152.94C58.8348 152.7 59.3188 152.58 59.8468 152.58C60.4708 152.58 61.0228 152.716 61.5028 152.988C61.9828 153.26 62.3628 153.64 62.6428 154.128C62.9228 154.608 63.0628 155.172 63.0628 155.82C63.0628 156.468 62.9228 157.036 62.6428 157.524C62.3628 158.012 61.9828 158.392 61.5028 158.664C61.0228 158.936 60.4708 159.072 59.8468 159.072ZM56.4748 159V150.096H57.6268V154.332L57.5068 155.808L57.5788 157.284V159H56.4748ZM59.7508 158.064C60.1588 158.064 60.5228 157.972 60.8428 157.788C61.1708 157.604 61.4268 157.344 61.6108 157.008C61.8028 156.664 61.8988 156.268 61.8988 155.82C61.8988 155.364 61.8028 154.972 61.6108 154.644C61.4268 154.308 61.1708 154.048 60.8428 153.864C60.5228 153.68 60.1588 153.588 59.7508 153.588C59.3508 153.588 58.9868 153.68 58.6588 153.864C58.3388 154.048 58.0828 154.308 57.8908 154.644C57.7068 154.972 57.6148 155.364 57.6148 155.82C57.6148 156.268 57.7068 156.664 57.8908 157.008C58.0828 157.344 58.3388 157.604 58.6588 157.788C58.9868 157.972 59.3508 158.064 59.7508 158.064ZM64.6545 159V152.64H65.7585V154.368L65.6505 153.936C65.8265 153.496 66.1225 153.16 66.5385 152.928C66.9545 152.696 67.4665 152.58 68.0745 152.58V153.696C68.0265 153.688 67.9785 153.684 67.9305 153.684C67.8905 153.684 67.8505 153.684 67.8105 153.684C67.1945 153.684 66.7065 153.868 66.3465 154.236C65.9865 154.604 65.8065 155.136 65.8065 155.832V159H64.6545ZM72.9736 159V157.656L72.9136 157.404V155.112C72.9136 154.624 72.7696 154.248 72.4816 153.984C72.2016 153.712 71.7776 153.576 71.2096 153.576C70.8336 153.576 70.4656 153.64 70.1056 153.768C69.7456 153.888 69.4416 154.052 69.1936 154.26L68.7136 153.396C69.0416 153.132 69.4336 152.932 69.8896 152.796C70.3536 152.652 70.8376 152.58 71.3416 152.58C72.2136 152.58 72.8856 152.792 73.3576 153.216C73.8296 153.64 74.0656 154.288 74.0656 155.16V159H72.9736ZM70.8856 159.072C70.4136 159.072 69.9976 158.992 69.6376 158.832C69.2856 158.672 69.0136 158.452 68.8216 158.172C68.6296 157.884 68.5336 157.56 68.5336 157.2C68.5336 156.856 68.6136 156.544 68.7736 156.264C68.9416 155.984 69.2096 155.76 69.5776 155.592C69.9536 155.424 70.4576 155.34 71.0896 155.34H73.1056V156.168H71.1376C70.5616 156.168 70.1736 156.264 69.9736 156.456C69.7736 156.648 69.6736 156.88 69.6736 157.152C69.6736 157.464 69.7976 157.716 70.0456 157.908C70.2936 158.092 70.6376 158.184 71.0776 158.184C71.5096 158.184 71.8856 158.088 72.2056 157.896C72.5336 157.704 72.7696 157.424 72.9136 157.056L73.1416 157.848C72.9896 158.224 72.7216 158.524 72.3376 158.748C71.9536 158.964 71.4696 159.072 70.8856 159.072ZM78.0215 159.072C77.4935 159.072 76.9895 159 76.5095 158.856C76.0375 158.712 75.6655 158.536 75.3935 158.328L75.8735 157.416C76.1455 157.6 76.4815 157.756 76.8815 157.884C77.2815 158.012 77.6895 158.076 78.1055 158.076C78.6415 158.076 79.0255 158 79.2575 157.848C79.4975 157.696 79.6175 157.484 79.6175 157.212C79.6175 157.012 79.5455 156.856 79.4015 156.744C79.2575 156.632 79.0655 156.548 78.8255 156.492C78.5935 156.436 78.3335 156.388 78.0455 156.348C77.7575 156.3 77.4695 156.244 77.1815 156.18C76.8935 156.108 76.6295 156.012 76.3895 155.892C76.1495 155.764 75.9575 155.592 75.8135 155.376C75.6695 155.152 75.5975 154.856 75.5975 154.488C75.5975 154.104 75.7055 153.768 75.9215 153.48C76.1375 153.192 76.4415 152.972 76.8335 152.82C77.2335 152.66 77.7055 152.58 78.2495 152.58C78.6655 152.58 79.0855 152.632 79.5095 152.736C79.9415 152.832 80.2935 152.972 80.5655 153.156L80.0735 154.068C79.7855 153.876 79.4855 153.744 79.1735 153.672C78.8615 153.6 78.5495 153.564 78.2375 153.564C77.7335 153.564 77.3575 153.648 77.1095 153.816C76.8615 153.976 76.7375 154.184 76.7375 154.44C76.7375 154.656 76.8095 154.824 76.9535 154.944C77.1055 155.056 77.2975 155.144 77.5295 155.208C77.7695 155.272 78.0335 155.328 78.3215 155.376C78.6095 155.416 78.8975 155.472 79.1855 155.544C79.4735 155.608 79.7335 155.7 79.9655 155.82C80.2055 155.94 80.3975 156.108 80.5415 156.324C80.6935 156.54 80.7695 156.828 80.7695 157.188C80.7695 157.572 80.6575 157.904 80.4335 158.184C80.2095 158.464 79.8935 158.684 79.4855 158.844C79.0775 158.996 78.5895 159.072 78.0215 159.072ZM88.8038 159.072C88.2758 159.072 87.7918 158.952 87.3518 158.712C86.9198 158.464 86.5718 158.1 86.3078 157.62C86.0518 157.14 85.9238 156.54 85.9238 155.82C85.9238 155.1 86.0478 154.5 86.2958 154.02C86.5518 153.54 86.8958 153.18 87.3278 152.94C87.7678 152.7 88.2598 152.58 88.8038 152.58C89.4278 152.58 89.9798 152.716 90.4598 152.988C90.9398 153.26 91.3198 153.64 91.5998 154.128C91.8798 154.608 92.0198 155.172 92.0198 155.82C92.0198 156.468 91.8798 157.036 91.5998 157.524C91.3198 158.012 90.9398 158.392 90.4598 158.664C89.9798 158.936 89.4278 159.072 88.8038 159.072ZM85.4318 161.328V152.64H86.5358V154.356L86.4638 155.832L86.5838 157.308V161.328H85.4318ZM88.7078 158.064C89.1158 158.064 89.4798 157.972 89.7998 157.788C90.1278 157.604 90.3838 157.344 90.5678 157.008C90.7598 156.664 90.8558 156.268 90.8558 155.82C90.8558 155.364 90.7598 154.972 90.5678 154.644C90.3838 154.308 90.1278 154.048 89.7998 153.864C89.4798 153.68 89.1158 153.588 88.7078 153.588C88.3078 153.588 87.9438 153.68 87.6158 153.864C87.2958 154.048 87.0398 154.308 86.8478 154.644C86.6638 154.972 86.5718 155.364 86.5718 155.82C86.5718 156.268 86.6638 156.664 86.8478 157.008C87.0398 157.344 87.2958 157.604 87.6158 157.788C87.9438 157.972 88.3078 158.064 88.7078 158.064ZM97.5009 159V157.656L97.4409 157.404V155.112C97.4409 154.624 97.2969 154.248 97.0089 153.984C96.7289 153.712 96.3049 153.576 95.7369 153.576C95.3609 153.576 94.9929 153.64 94.6329 153.768C94.2729 153.888 93.9689 154.052 93.7209 154.26L93.2409 153.396C93.5689 153.132 93.9609 152.932 94.4169 152.796C94.8809 152.652 95.3649 152.58 95.8689 152.58C96.7409 152.58 97.4129 152.792 97.8849 153.216C98.3569 153.64 98.5929 154.288 98.5929 155.16V159H97.5009ZM95.4129 159.072C94.9409 159.072 94.5249 158.992 94.1649 158.832C93.8129 158.672 93.5409 158.452 93.3489 158.172C93.1569 157.884 93.0609 157.56 93.0609 157.2C93.0609 156.856 93.1409 156.544 93.3009 156.264C93.4689 155.984 93.7369 155.76 94.1049 155.592C94.4809 155.424 94.9849 155.34 95.6169 155.34H97.6329V156.168H95.6649C95.0889 156.168 94.7009 156.264 94.5009 156.456C94.3009 156.648 94.2009 156.88 94.2009 157.152C94.2009 157.464 94.3249 157.716 94.5729 157.908C94.8209 158.092 95.1649 158.184 95.6049 158.184C96.0369 158.184 96.4129 158.088 96.7329 157.896C97.0609 157.704 97.2969 157.424 97.4409 157.056L97.6689 157.848C97.5169 158.224 97.2489 158.524 96.8649 158.748C96.4809 158.964 95.9969 159.072 95.4129 159.072ZM100.725 159V152.64H101.829V154.368L101.721 153.936C101.897 153.496 102.193 153.16 102.609 152.928C103.025 152.696 103.537 152.58 104.145 152.58V153.696C104.097 153.688 104.049 153.684 104.001 153.684C103.961 153.684 103.921 153.684 103.881 153.684C103.265 153.684 102.777 153.868 102.417 154.236C102.057 154.604 101.877 155.136 101.877 155.832V159H100.725ZM109.044 159V157.656L108.984 157.404V155.112C108.984 154.624 108.84 154.248 108.552 153.984C108.272 153.712 107.848 153.576 107.28 153.576C106.904 153.576 106.536 153.64 106.176 153.768C105.816 153.888 105.512 154.052 105.264 154.26L104.784 153.396C105.112 153.132 105.504 152.932 105.96 152.796C106.424 152.652 106.908 152.58 107.412 152.58C108.284 152.58 108.956 152.792 109.428 153.216C109.9 153.64 110.136 154.288 110.136 155.16V159H109.044ZM106.956 159.072C106.484 159.072 106.068 158.992 105.708 158.832C105.356 158.672 105.084 158.452 104.892 158.172C104.7 157.884 104.604 157.56 104.604 157.2C104.604 156.856 104.684 156.544 104.844 156.264C105.012 155.984 105.28 155.76 105.648 155.592C106.024 155.424 106.528 155.34 107.16 155.34H109.176V156.168H107.208C106.632 156.168 106.244 156.264 106.044 156.456C105.844 156.648 105.744 156.88 105.744 157.152C105.744 157.464 105.868 157.716 106.116 157.908C106.364 158.092 106.708 158.184 107.148 158.184C107.58 158.184 107.956 158.088 108.276 157.896C108.604 157.704 108.84 157.424 108.984 157.056L109.212 157.848C109.06 158.224 108.792 158.524 108.408 158.748C108.024 158.964 107.54 159.072 106.956 159.072ZM115.658 159V152.076C115.658 151.452 115.838 150.956 116.198 150.588C116.566 150.212 117.086 150.024 117.758 150.024C118.006 150.024 118.242 150.056 118.466 150.12C118.698 150.176 118.894 150.268 119.054 150.396L118.706 151.272C118.586 151.176 118.45 151.104 118.298 151.056C118.146 151 117.986 150.972 117.818 150.972C117.482 150.972 117.226 151.068 117.05 151.26C116.874 151.444 116.786 151.72 116.786 152.088V152.94L116.81 153.468V159H115.658ZM114.578 153.588V152.64H118.634V153.588H114.578ZM122.351 159.072C121.711 159.072 121.143 158.932 120.647 158.652C120.151 158.372 119.759 157.988 119.471 157.5C119.183 157.004 119.039 156.444 119.039 155.82C119.039 155.188 119.183 154.628 119.471 154.14C119.759 153.652 120.151 153.272 120.647 153C121.143 152.72 121.711 152.58 122.351 152.58C122.983 152.58 123.547 152.72 124.043 153C124.547 153.272 124.939 153.652 125.219 154.14C125.507 154.62 125.651 155.18 125.651 155.82C125.651 156.452 125.507 157.012 125.219 157.5C124.939 157.988 124.547 158.372 124.043 158.652C123.547 158.932 122.983 159.072 122.351 159.072ZM122.351 158.064C122.759 158.064 123.123 157.972 123.443 157.788C123.771 157.604 124.027 157.344 124.211 157.008C124.395 156.664 124.487 156.268 124.487 155.82C124.487 155.364 124.395 154.972 124.211 154.644C124.027 154.308 123.771 154.048 123.443 153.864C123.123 153.68 122.759 153.588 122.351 153.588C121.943 153.588 121.579 153.68 121.259 153.864C120.939 154.048 120.683 154.308 120.491 154.644C120.299 154.972 120.203 155.364 120.203 155.82C120.203 156.268 120.299 156.664 120.491 157.008C120.683 157.344 120.939 157.604 121.259 157.788C121.579 157.972 121.943 158.064 122.351 158.064ZM127.244 159V152.64H128.348V154.368L128.24 153.936C128.416 153.496 128.712 153.16 129.128 152.928C129.544 152.696 130.056 152.58 130.664 152.58V153.696C130.616 153.688 130.568 153.684 130.52 153.684C130.48 153.684 130.44 153.684 130.4 153.684C129.784 153.684 129.296 153.868 128.936 154.236C128.576 154.604 128.396 155.136 128.396 155.832V159H127.244ZM135.563 159V157.656L135.503 157.404V155.112C135.503 154.624 135.359 154.248 135.071 153.984C134.791 153.712 134.367 153.576 133.799 153.576C133.423 153.576 133.055 153.64 132.695 153.768C132.335 153.888 132.031 154.052 131.783 154.26L131.303 153.396C131.631 153.132 132.023 152.932 132.479 152.796C132.943 152.652 133.427 152.58 133.931 152.58C134.803 152.58 135.475 152.792 135.947 153.216C136.419 153.64 136.655 154.288 136.655 155.16V159H135.563ZM133.475 159.072C133.003 159.072 132.587 158.992 132.227 158.832C131.875 158.672 131.603 158.452 131.411 158.172C131.219 157.884 131.123 157.56 131.123 157.2C131.123 156.856 131.203 156.544 131.363 156.264C131.531 155.984 131.799 155.76 132.167 155.592C132.543 155.424 133.047 155.34 133.679 155.34H135.695V156.168H133.727C133.151 156.168 132.763 156.264 132.563 156.456C132.363 156.648 132.263 156.88 132.263 157.152C132.263 157.464 132.387 157.716 132.635 157.908C132.883 158.092 133.227 158.184 133.667 158.184C134.099 158.184 134.475 158.088 134.795 157.896C135.123 157.704 135.359 157.424 135.503 157.056L135.731 157.848C135.579 158.224 135.311 158.524 134.927 158.748C134.543 158.964 134.059 159.072 133.475 159.072ZM139.063 159.072C138.839 159.072 138.647 158.996 138.487 158.844C138.327 158.684 138.247 158.484 138.247 158.244C138.247 158.004 138.327 157.808 138.487 157.656C138.647 157.504 138.839 157.428 139.063 157.428C139.279 157.428 139.463 157.504 139.615 157.656C139.775 157.808 139.855 158.004 139.855 158.244C139.855 158.484 139.775 158.684 139.615 158.844C139.463 158.996 139.279 159.072 139.063 159.072Z" fill="#008E86"/>
<path d="M78.9996 59.3196C79.2099 58.8089 79.7944 58.5654 80.3051 58.7757C80.8158 58.9859 81.0593 59.5704 80.849 60.0811L78.9996 59.3196ZM48.5404 20.5442C49.0223 20.2744 49.6317 20.4464 49.9014 20.9284L54.2974 28.7817C54.5671 29.2637 54.3951 29.873 53.9132 30.1428C53.4313 30.4125 52.8219 30.2405 52.5522 29.7586L48.6447 22.7778L41.6639 26.6853C41.182 26.9551 40.5726 26.7831 40.3029 26.3012C40.0331 25.8192 40.2051 25.2099 40.687 24.9401L48.5404 20.5442ZM80.849 60.0811C74.9471 74.4142 68.5434 84.5066 62.566 90.2368C59.5789 93.1003 56.6358 94.9346 53.8551 95.6068C51.0291 96.29 48.405 95.7595 46.2142 93.9735C44.0647 92.2212 42.4201 89.3341 41.3141 85.4563C40.2047 81.5669 39.6121 76.5951 39.6333 70.5585C39.6757 58.484 42.175 42.0177 48.0665 21.1451L49.9912 21.6884C44.129 42.4576 41.6749 58.7338 41.6333 70.5655C41.6126 76.482 42.1953 81.2543 43.2374 84.9077C44.2827 88.5728 45.7654 91.0273 47.4779 92.4233C49.149 93.7856 51.1214 94.2101 53.3852 93.6628C55.6942 93.1046 58.3342 91.523 61.182 88.793C66.8743 83.3361 73.1478 73.5312 78.9996 59.3196L80.849 60.0811Z" fill="black"/>
<path d="M81.9399 33.5074L150.447 54.9999L81.9396 76.4924L73.8801 54.9999L81.9399 33.5074Z" fill="#008E86" stroke="#00635D" stroke-width="2" stroke-linejoin="round"/>
<path d="M29.5518 55L107.462 55.1798L81.9397 76.8521L29.5518 55Z" fill="#008E86" stroke="#00635D" stroke-width="2" stroke-linejoin="round"/>
<path d="M29.5518 55L81.9397 33.5075L107.462 55H29.5518Z" fill="#008E86" stroke="#00635D" stroke-width="2" stroke-linejoin="round"/>
<path d="M150.447 55L29.552 55" stroke="#00635D" stroke-width="2"/>
<path d="M150.447 55L29.552 55" stroke="#333333" stroke-width="2" stroke-dasharray="4 6"/>
<path d="M79.9243 59.7003C69.7981 84.2925 58.3011 96.0479 50.3721 94.8054" stroke="black" stroke-width="2" stroke-linecap="round"/>
</g>
<defs>
<clipPath id="clip0_14_3323">
<rect width="180" height="180" rx="20" fill="white"/>
</clipPath>
<clipPath id="clip1_14_3323">
<path d="M0 30L-1.31134e-06 0L30 -1.31134e-06L30 10C30 21.0457 21.0457 30 10 30L0 30Z" fill="white"/>
</clipPath>
</defs>
</svg>
