<svg width="180" height="180" viewBox="0 0 180 180" fill="none" xmlns="http://www.w3.org/2000/svg">
<rect width="180" height="180" rx="20" fill="#F2F2F2"/>
<path d="M37.5607 117.572H41.8927V118.604H37.5607V117.572ZM37.6807 122H36.4807V113.6H42.4087V114.644H37.6807V122ZM47.6435 122V120.656L47.5835 120.404V118.112C47.5835 117.624 47.4395 117.248 47.1515 116.984C46.8715 116.712 46.4475 116.576 45.8795 116.576C45.5035 116.576 45.1355 116.64 44.7755 116.768C44.4155 116.888 44.1115 117.052 43.8635 117.26L43.3835 116.396C43.7115 116.132 44.1035 115.932 44.5595 115.796C45.0235 115.652 45.5075 115.58 46.0115 115.58C46.8835 115.58 47.5555 115.792 48.0275 116.216C48.4995 116.64 48.7355 117.288 48.7355 118.16V122H47.6435ZM45.5555 122.072C45.0835 122.072 44.6675 121.992 44.3075 121.832C43.9555 121.672 43.6835 121.452 43.4915 121.172C43.2995 120.884 43.2035 120.56 43.2035 120.2C43.2035 119.856 43.2835 119.544 43.4435 119.264C43.6115 118.984 43.8795 118.76 44.2475 118.592C44.6235 118.424 45.1275 118.34 45.7595 118.34H47.7755V119.168H45.8075C45.2315 119.168 44.8435 119.264 44.6435 119.456C44.4435 119.648 44.3435 119.88 44.3435 120.152C44.3435 120.464 44.4675 120.716 44.7155 120.908C44.9635 121.092 45.3075 121.184 45.7475 121.184C46.1795 121.184 46.5555 121.088 46.8755 120.896C47.2035 120.704 47.4395 120.424 47.5835 120.056L47.8115 120.848C47.6595 121.224 47.3915 121.524 47.0075 121.748C46.6235 121.964 46.1395 122.072 45.5555 122.072ZM53.6394 122.072C52.9914 122.072 52.4114 121.932 51.8994 121.652C51.3954 121.372 50.9994 120.988 50.7114 120.5C50.4234 120.012 50.2794 119.452 50.2794 118.82C50.2794 118.188 50.4234 117.628 50.7114 117.14C50.9994 116.652 51.3954 116.272 51.8994 116C52.4114 115.72 52.9914 115.58 53.6394 115.58C54.2154 115.58 54.7274 115.696 55.1754 115.928C55.6314 116.152 55.9834 116.488 56.2314 116.936L55.3554 117.5C55.1474 117.188 54.8914 116.96 54.5874 116.816C54.2914 116.664 53.9714 116.588 53.6274 116.588C53.2114 116.588 52.8394 116.68 52.5114 116.864C52.1834 117.048 51.9234 117.308 51.7314 117.644C51.5394 117.972 51.4434 118.364 51.4434 118.82C51.4434 119.276 51.5394 119.672 51.7314 120.008C51.9234 120.344 52.1834 120.604 52.5114 120.788C52.8394 120.972 53.2114 121.064 53.6274 121.064C53.9714 121.064 54.2914 120.992 54.5874 120.848C54.8914 120.696 55.1474 120.464 55.3554 120.152L56.2314 120.704C55.9834 121.144 55.6314 121.484 55.1754 121.724C54.7274 121.956 54.2154 122.072 53.6394 122.072ZM53.0754 124.688C52.8674 124.688 52.6754 124.664 52.4994 124.616C52.3234 124.576 52.1594 124.512 52.0074 124.424L52.2594 123.836C52.3874 123.908 52.5154 123.96 52.6434 123.992C52.7794 124.024 52.9234 124.04 53.0754 124.04C53.3074 124.04 53.4754 123.996 53.5794 123.908C53.6914 123.828 53.7474 123.712 53.7474 123.56C53.7474 123.416 53.6914 123.3 53.5794 123.212C53.4754 123.132 53.3034 123.092 53.0634 123.092H52.7394L53.0394 121.916H53.6994L53.5194 122.6C53.8634 122.632 54.1234 122.74 54.2994 122.924C54.4754 123.108 54.5634 123.332 54.5634 123.596C54.5634 123.932 54.4274 124.196 54.1554 124.388C53.8834 124.588 53.5234 124.688 53.0754 124.688ZM61.6709 122V120.656L61.6109 120.404V118.112C61.6109 117.624 61.4669 117.248 61.1789 116.984C60.8989 116.712 60.4749 116.576 59.9069 116.576C59.5309 116.576 59.1629 116.64 58.8029 116.768C58.4429 116.888 58.1389 117.052 57.8909 117.26L57.4109 116.396C57.7389 116.132 58.1309 115.932 58.5869 115.796C59.0509 115.652 59.5349 115.58 60.0389 115.58C60.9109 115.58 61.5829 115.792 62.0549 116.216C62.5269 116.64 62.7629 117.288 62.7629 118.16V122H61.6709ZM59.5829 122.072C59.1109 122.072 58.6949 121.992 58.3349 121.832C57.9829 121.672 57.7109 121.452 57.5189 121.172C57.3269 120.884 57.2309 120.56 57.2309 120.2C57.2309 119.856 57.3109 119.544 57.4709 119.264C57.6389 118.984 57.9069 118.76 58.2749 118.592C58.6509 118.424 59.1549 118.34 59.7869 118.34H61.8029V119.168H59.8349C59.2589 119.168 58.8709 119.264 58.6709 119.456C58.4709 119.648 58.3709 119.88 58.3709 120.152C58.3709 120.464 58.4949 120.716 58.7429 120.908C58.9909 121.092 59.3349 121.184 59.7749 121.184C60.2069 121.184 60.5829 121.088 60.9029 120.896C61.2309 120.704 61.4669 120.424 61.6109 120.056L61.8389 120.848C61.6869 121.224 61.4189 121.524 61.0349 121.748C60.6509 121.964 60.1669 122.072 59.5829 122.072ZM70.7934 122.072C70.2494 122.072 69.7694 121.972 69.3534 121.772C68.9454 121.572 68.6254 121.268 68.3934 120.86C68.1694 120.444 68.0574 119.924 68.0574 119.3V115.64H69.2094V119.168C69.2094 119.792 69.3574 120.26 69.6534 120.572C69.9574 120.884 70.3814 121.04 70.9254 121.04C71.3254 121.04 71.6734 120.96 71.9694 120.8C72.2654 120.632 72.4934 120.392 72.6534 120.08C72.8134 119.76 72.8934 119.376 72.8934 118.928V115.64H74.0454V122H72.9534V120.284L73.1334 120.74C72.9254 121.164 72.6134 121.492 72.1974 121.724C71.7814 121.956 71.3134 122.072 70.7934 122.072ZM84.1945 115.58C84.7065 115.58 85.1585 115.68 85.5505 115.88C85.9425 116.08 86.2465 116.384 86.4625 116.792C86.6865 117.2 86.7985 117.716 86.7985 118.34V122H85.6465V118.472C85.6465 117.856 85.5025 117.392 85.2145 117.08C84.9265 116.768 84.5225 116.612 84.0025 116.612C83.6185 116.612 83.2825 116.692 82.9945 116.852C82.7065 117.012 82.4825 117.248 82.3225 117.56C82.1705 117.872 82.0945 118.26 82.0945 118.724V122H80.9425V118.472C80.9425 117.856 80.7985 117.392 80.5105 117.08C80.2305 116.768 79.8265 116.612 79.2985 116.612C78.9225 116.612 78.5905 116.692 78.3025 116.852C78.0145 117.012 77.7905 117.248 77.6305 117.56C77.4705 117.872 77.3905 118.26 77.3905 118.724V122H76.2385V115.64H77.3425V117.332L77.1625 116.9C77.3625 116.484 77.6705 116.16 78.0865 115.928C78.5025 115.696 78.9865 115.58 79.5385 115.58C80.1465 115.58 80.6705 115.732 81.1105 116.036C81.5505 116.332 81.8385 116.784 81.9745 117.392L81.5065 117.2C81.6985 116.712 82.0345 116.32 82.5145 116.024C82.9945 115.728 83.5545 115.58 84.1945 115.58ZM93.9648 122.072C93.4368 122.072 92.9328 122 92.4528 121.856C91.9808 121.712 91.6088 121.536 91.3368 121.328L91.8168 120.416C92.0888 120.6 92.4248 120.756 92.8248 120.884C93.2248 121.012 93.6328 121.076 94.0488 121.076C94.5848 121.076 94.9688 121 95.2008 120.848C95.4408 120.696 95.5608 120.484 95.5608 120.212C95.5608 120.012 95.4888 119.856 95.3448 119.744C95.2008 119.632 95.0088 119.548 94.7688 119.492C94.5368 119.436 94.2768 119.388 93.9888 119.348C93.7008 119.3 93.4128 119.244 93.1248 119.18C92.8368 119.108 92.5728 119.012 92.3328 118.892C92.0928 118.764 91.9008 118.592 91.7568 118.376C91.6128 118.152 91.5408 117.856 91.5408 117.488C91.5408 117.104 91.6488 116.768 91.8648 116.48C92.0808 116.192 92.3848 115.972 92.7768 115.82C93.1768 115.66 93.6488 115.58 94.1928 115.58C94.6088 115.58 95.0288 115.632 95.4528 115.736C95.8848 115.832 96.2368 115.972 96.5088 116.156L96.0168 117.068C95.7288 116.876 95.4288 116.744 95.1168 116.672C94.8048 116.6 94.4928 116.564 94.1808 116.564C93.6768 116.564 93.3008 116.648 93.0528 116.816C92.8048 116.976 92.6808 117.184 92.6808 117.44C92.6808 117.656 92.7528 117.824 92.8968 117.944C93.0488 118.056 93.2408 118.144 93.4728 118.208C93.7128 118.272 93.9768 118.328 94.2648 118.376C94.5528 118.416 94.8408 118.472 95.1288 118.544C95.4168 118.608 95.6768 118.7 95.9088 118.82C96.1488 118.94 96.3408 119.108 96.4848 119.324C96.6368 119.54 96.7128 119.828 96.7128 120.188C96.7128 120.572 96.6008 120.904 96.3768 121.184C96.1528 121.464 95.8368 121.684 95.4288 121.844C95.0208 121.996 94.5328 122.072 93.9648 122.072ZM100.985 122.072C100.305 122.072 99.7045 121.932 99.1845 121.652C98.6725 121.372 98.2725 120.988 97.9845 120.5C97.7045 120.012 97.5645 119.452 97.5645 118.82C97.5645 118.188 97.7005 117.628 97.9725 117.14C98.2525 116.652 98.6325 116.272 99.1125 116C99.6005 115.72 100.149 115.58 100.757 115.58C101.373 115.58 101.917 115.716 102.389 115.988C102.861 116.26 103.229 116.644 103.493 117.14C103.765 117.628 103.901 118.2 103.901 118.856C103.901 118.904 103.897 118.96 103.889 119.024C103.889 119.088 103.885 119.148 103.877 119.204H98.4645V118.376H103.277L102.809 118.664C102.817 118.256 102.733 117.892 102.557 117.572C102.381 117.252 102.137 117.004 101.825 116.828C101.521 116.644 101.165 116.552 100.757 116.552C100.357 116.552 100.001 116.644 99.6885 116.828C99.3765 117.004 99.1325 117.256 98.9565 117.584C98.7805 117.904 98.6925 118.272 98.6925 118.688V118.88C98.6925 119.304 98.7885 119.684 98.9805 120.02C99.1805 120.348 99.4565 120.604 99.8085 120.788C100.161 120.972 100.565 121.064 101.021 121.064C101.397 121.064 101.737 121 102.041 120.872C102.353 120.744 102.625 120.552 102.857 120.296L103.493 121.04C103.205 121.376 102.845 121.632 102.413 121.808C101.989 121.984 101.513 122.072 100.985 122.072ZM108.284 124.4C107.7 124.4 107.132 124.316 106.58 124.148C106.036 123.988 105.592 123.756 105.248 123.452L105.8 122.564C106.096 122.82 106.46 123.02 106.892 123.164C107.324 123.316 107.776 123.392 108.248 123.392C109 123.392 109.552 123.216 109.904 122.864C110.256 122.512 110.432 121.976 110.432 121.256V119.912L110.552 118.652L110.492 117.38V115.64H111.584V121.136C111.584 122.256 111.304 123.08 110.744 123.608C110.184 124.136 109.364 124.4 108.284 124.4ZM108.14 121.736C107.524 121.736 106.972 121.608 106.484 121.352C106.004 121.088 105.62 120.724 105.332 120.26C105.052 119.796 104.912 119.26 104.912 118.652C104.912 118.036 105.052 117.5 105.332 117.044C105.62 116.58 106.004 116.22 106.484 115.964C106.972 115.708 107.524 115.58 108.14 115.58C108.684 115.58 109.18 115.692 109.628 115.916C110.076 116.132 110.432 116.468 110.696 116.924C110.968 117.38 111.104 117.956 111.104 118.652C111.104 119.34 110.968 119.912 110.696 120.368C110.432 120.824 110.076 121.168 109.628 121.4C109.18 121.624 108.684 121.736 108.14 121.736ZM108.272 120.728C108.696 120.728 109.072 120.64 109.4 120.464C109.728 120.288 109.984 120.044 110.168 119.732C110.36 119.42 110.456 119.06 110.456 118.652C110.456 118.244 110.36 117.884 110.168 117.572C109.984 117.26 109.728 117.02 109.4 116.852C109.072 116.676 108.696 116.588 108.272 116.588C107.848 116.588 107.468 116.676 107.132 116.852C106.804 117.02 106.544 117.26 106.352 117.572C106.168 117.884 106.076 118.244 106.076 118.652C106.076 119.06 106.168 119.42 106.352 119.732C106.544 120.044 106.804 120.288 107.132 120.464C107.468 120.64 107.848 120.728 108.272 120.728ZM116.461 122.072C115.917 122.072 115.437 121.972 115.021 121.772C114.613 121.572 114.293 121.268 114.061 120.86C113.837 120.444 113.725 119.924 113.725 119.3V115.64H114.877V119.168C114.877 119.792 115.025 120.26 115.321 120.572C115.625 120.884 116.049 121.04 116.593 121.04C116.993 121.04 117.341 120.96 117.637 120.8C117.933 120.632 118.161 120.392 118.321 120.08C118.481 119.76 118.561 119.376 118.561 118.928V115.64H119.713V122H118.621V120.284L118.801 120.74C118.593 121.164 118.281 121.492 117.865 121.724C117.449 121.956 116.981 122.072 116.461 122.072ZM125.302 115.58C125.822 115.58 126.278 115.68 126.67 115.88C127.07 116.08 127.382 116.384 127.606 116.792C127.83 117.2 127.942 117.716 127.942 118.34V122H126.79V118.472C126.79 117.856 126.638 117.392 126.334 117.08C126.038 116.768 125.618 116.612 125.074 116.612C124.666 116.612 124.31 116.692 124.006 116.852C123.702 117.012 123.466 117.248 123.298 117.56C123.138 117.872 123.058 118.26 123.058 118.724V122H121.906V115.64H123.01V117.356L122.83 116.9C123.038 116.484 123.358 116.16 123.79 115.928C124.222 115.696 124.726 115.58 125.302 115.58ZM132.702 122.072C132.086 122.072 131.534 121.936 131.046 121.664C130.566 121.392 130.186 121.012 129.906 120.524C129.626 120.036 129.486 119.468 129.486 118.82C129.486 118.172 129.626 117.608 129.906 117.128C130.186 116.64 130.566 116.26 131.046 115.988C131.534 115.716 132.086 115.58 132.702 115.58C133.238 115.58 133.722 115.7 134.154 115.94C134.586 116.18 134.93 116.54 135.186 117.02C135.45 117.5 135.582 118.1 135.582 118.82C135.582 119.54 135.454 120.14 135.198 120.62C134.95 121.1 134.61 121.464 134.178 121.712C133.746 121.952 133.254 122.072 132.702 122.072ZM132.798 121.064C133.198 121.064 133.558 120.972 133.878 120.788C134.206 120.604 134.462 120.344 134.646 120.008C134.838 119.664 134.934 119.268 134.934 118.82C134.934 118.364 134.838 117.972 134.646 117.644C134.462 117.308 134.206 117.048 133.878 116.864C133.558 116.68 133.198 116.588 132.798 116.588C132.39 116.588 132.026 116.68 131.706 116.864C131.386 117.048 131.13 117.308 130.938 117.644C130.746 117.972 130.65 118.364 130.65 118.82C130.65 119.268 130.746 119.664 130.938 120.008C131.13 120.344 131.386 120.604 131.706 120.788C132.026 120.972 132.39 121.064 132.798 121.064ZM134.97 122V120.284L135.042 118.808L134.922 117.332V113.096H136.074V122H134.97ZM140.978 122.072C140.338 122.072 139.77 121.932 139.274 121.652C138.778 121.372 138.386 120.988 138.098 120.5C137.81 120.004 137.666 119.444 137.666 118.82C137.666 118.188 137.81 117.628 138.098 117.14C138.386 116.652 138.778 116.272 139.274 116C139.77 115.72 140.338 115.58 140.978 115.58C141.61 115.58 142.174 115.72 142.67 116C143.174 116.272 143.566 116.652 143.846 117.14C144.134 117.62 144.278 118.18 144.278 118.82C144.278 119.452 144.134 120.012 143.846 120.5C143.566 120.988 143.174 121.372 142.67 121.652C142.174 121.932 141.61 122.072 140.978 122.072ZM140.978 121.064C141.386 121.064 141.75 120.972 142.07 120.788C142.398 120.604 142.654 120.344 142.838 120.008C143.022 119.664 143.114 119.268 143.114 118.82C143.114 118.364 143.022 117.972 142.838 117.644C142.654 117.308 142.398 117.048 142.07 116.864C141.75 116.68 141.386 116.588 140.978 116.588C140.57 116.588 140.206 116.68 139.886 116.864C139.566 117.048 139.31 117.308 139.118 117.644C138.926 117.972 138.83 118.364 138.83 118.82C138.83 119.268 138.926 119.664 139.118 120.008C139.31 120.344 139.566 120.604 139.886 120.788C140.206 120.972 140.57 121.064 140.978 121.064ZM31.6985 137.072C31.0825 137.072 30.5305 136.936 30.0425 136.664C29.5625 136.392 29.1825 136.012 28.9025 135.524C28.6225 135.036 28.4825 134.468 28.4825 133.82C28.4825 133.172 28.6225 132.608 28.9025 132.128C29.1825 131.64 29.5625 131.26 30.0425 130.988C30.5305 130.716 31.0825 130.58 31.6985 130.58C32.2345 130.58 32.7185 130.7 33.1505 130.94C33.5825 131.18 33.9265 131.54 34.1825 132.02C34.4465 132.5 34.5785 133.1 34.5785 133.82C34.5785 134.54 34.4505 135.14 34.1945 135.62C33.9465 136.1 33.6065 136.464 33.1745 136.712C32.7425 136.952 32.2505 137.072 31.6985 137.072ZM31.7945 136.064C32.1945 136.064 32.5545 135.972 32.8745 135.788C33.2025 135.604 33.4585 135.344 33.6425 135.008C33.8345 134.664 33.9305 134.268 33.9305 133.82C33.9305 133.364 33.8345 132.972 33.6425 132.644C33.4585 132.308 33.2025 132.048 32.8745 131.864C32.5545 131.68 32.1945 131.588 31.7945 131.588C31.3865 131.588 31.0225 131.68 30.7025 131.864C30.3825 132.048 30.1265 132.308 29.9345 132.644C29.7425 132.972 29.6465 133.364 29.6465 133.82C29.6465 134.268 29.7425 134.664 29.9345 135.008C30.1265 135.344 30.3825 135.604 30.7025 135.788C31.0225 135.972 31.3865 136.064 31.7945 136.064ZM33.9665 137V135.284L34.0385 133.808L33.9185 132.332V128.096H35.0705V137H33.9665ZM39.9262 137.072C39.3822 137.072 38.9022 136.972 38.4862 136.772C38.0782 136.572 37.7582 136.268 37.5262 135.86C37.3022 135.444 37.1902 134.924 37.1902 134.3V130.64H38.3422V134.168C38.3422 134.792 38.4902 135.26 38.7862 135.572C39.0902 135.884 39.5142 136.04 40.0582 136.04C40.4582 136.04 40.8062 135.96 41.1022 135.8C41.3982 135.632 41.6262 135.392 41.7862 135.08C41.9462 134.76 42.0262 134.376 42.0262 133.928V130.64H43.1782V137H42.0862V135.284L42.2662 135.74C42.0582 136.164 41.7462 136.492 41.3302 136.724C40.9142 136.956 40.4462 137.072 39.9262 137.072ZM48.7433 137.072C48.2153 137.072 47.7313 136.952 47.2913 136.712C46.8593 136.464 46.5113 136.1 46.2473 135.62C45.9913 135.14 45.8633 134.54 45.8633 133.82C45.8633 133.1 45.9873 132.5 46.2353 132.02C46.4913 131.54 46.8353 131.18 47.2673 130.94C47.7073 130.7 48.1993 130.58 48.7433 130.58C49.3673 130.58 49.9193 130.716 50.3993 130.988C50.8793 131.26 51.2593 131.64 51.5393 132.128C51.8193 132.608 51.9593 133.172 51.9593 133.82C51.9593 134.468 51.8193 135.036 51.5393 135.524C51.2593 136.012 50.8793 136.392 50.3993 136.664C49.9193 136.936 49.3673 137.072 48.7433 137.072ZM45.3713 139.328V130.64H46.4753V132.356L46.4033 133.832L46.5233 135.308V139.328H45.3713ZM48.6473 136.064C49.0553 136.064 49.4193 135.972 49.7393 135.788C50.0673 135.604 50.3233 135.344 50.5073 135.008C50.6993 134.664 50.7953 134.268 50.7953 133.82C50.7953 133.364 50.6993 132.972 50.5073 132.644C50.3233 132.308 50.0673 132.048 49.7393 131.864C49.4193 131.68 49.0553 131.588 48.6473 131.588C48.2473 131.588 47.8833 131.68 47.5553 131.864C47.2353 132.048 46.9793 132.308 46.7873 132.644C46.6033 132.972 46.5113 133.364 46.5113 133.82C46.5113 134.268 46.6033 134.664 46.7873 135.008C46.9793 135.344 47.2353 135.604 47.5553 135.788C47.8833 135.972 48.2473 136.064 48.6473 136.064ZM53.551 137V128.096H54.703V137H53.551ZM59.6265 137.072C58.9865 137.072 58.4185 136.932 57.9225 136.652C57.4265 136.372 57.0345 135.988 56.7465 135.5C56.4585 135.004 56.3145 134.444 56.3145 133.82C56.3145 133.188 56.4585 132.628 56.7465 132.14C57.0345 131.652 57.4265 131.272 57.9225 131C58.4185 130.72 58.9865 130.58 59.6265 130.58C60.2585 130.58 60.8225 130.72 61.3185 131C61.8225 131.272 62.2145 131.652 62.4945 132.14C62.7825 132.62 62.9265 133.18 62.9265 133.82C62.9265 134.452 62.7825 135.012 62.4945 135.5C62.2145 135.988 61.8225 136.372 61.3185 136.652C60.8225 136.932 60.2585 137.072 59.6265 137.072ZM59.6265 136.064C60.0345 136.064 60.3985 135.972 60.7185 135.788C61.0465 135.604 61.3025 135.344 61.4865 135.008C61.6705 134.664 61.7625 134.268 61.7625 133.82C61.7625 133.364 61.6705 132.972 61.4865 132.644C61.3025 132.308 61.0465 132.048 60.7185 131.864C60.3985 131.68 60.0345 131.588 59.6265 131.588C59.2185 131.588 58.8545 131.68 58.5345 131.864C58.2145 132.048 57.9585 132.308 57.7665 132.644C57.5745 132.972 57.4785 133.364 57.4785 133.82C57.4785 134.268 57.5745 134.664 57.7665 135.008C57.9585 135.344 58.2145 135.604 58.5345 135.788C58.8545 135.972 59.2185 136.064 59.6265 136.064ZM67.7424 137V130.64H68.8944V137H67.7424ZM68.3184 129.416C68.0944 129.416 67.9064 129.344 67.7544 129.2C67.6104 129.056 67.5384 128.88 67.5384 128.672C67.5384 128.456 67.6104 128.276 67.7544 128.132C67.9064 127.988 68.0944 127.916 68.3184 127.916C68.5424 127.916 68.7264 127.988 68.8704 128.132C69.0224 128.268 69.0984 128.44 69.0984 128.648C69.0984 128.864 69.0264 129.048 68.8824 129.2C68.7384 129.344 68.5504 129.416 68.3184 129.416ZM74.49 130.58C75.01 130.58 75.466 130.68 75.858 130.88C76.258 131.08 76.57 131.384 76.794 131.792C77.018 132.2 77.13 132.716 77.13 133.34V137H75.978V133.472C75.978 132.856 75.826 132.392 75.522 132.08C75.226 131.768 74.806 131.612 74.262 131.612C73.854 131.612 73.498 131.692 73.194 131.852C72.89 132.012 72.654 132.248 72.486 132.56C72.326 132.872 72.246 133.26 72.246 133.724V137H71.094V130.64H72.198V132.356L72.018 131.9C72.226 131.484 72.546 131.16 72.978 130.928C73.41 130.696 73.914 130.58 74.49 130.58ZM81.4459 137.072C80.8059 137.072 80.3099 136.9 79.9579 136.556C79.6059 136.212 79.4299 135.72 79.4299 135.08V129.248H80.5819V135.032C80.5819 135.376 80.6659 135.64 80.8339 135.824C81.0099 136.008 81.2579 136.1 81.5779 136.1C81.9379 136.1 82.2379 136 82.4779 135.8L82.8379 136.628C82.6619 136.78 82.4499 136.892 82.2019 136.964C81.9619 137.036 81.7099 137.072 81.4459 137.072ZM78.3499 131.588V130.64H82.4059V131.588H78.3499ZM86.8517 137.072C86.1717 137.072 85.5717 136.932 85.0517 136.652C84.5397 136.372 84.1397 135.988 83.8517 135.5C83.5717 135.012 83.4317 134.452 83.4317 133.82C83.4317 133.188 83.5677 132.628 83.8397 132.14C84.1197 131.652 84.4997 131.272 84.9797 131C85.4677 130.72 86.0157 130.58 86.6237 130.58C87.2397 130.58 87.7837 130.716 88.2557 130.988C88.7277 131.26 89.0957 131.644 89.3597 132.14C89.6317 132.628 89.7677 133.2 89.7677 133.856C89.7677 133.904 89.7637 133.96 89.7557 134.024C89.7557 134.088 89.7517 134.148 89.7437 134.204H84.3317V133.376H89.1437L88.6757 133.664C88.6837 133.256 88.5997 132.892 88.4237 132.572C88.2477 132.252 88.0037 132.004 87.6917 131.828C87.3877 131.644 87.0317 131.552 86.6237 131.552C86.2237 131.552 85.8677 131.644 85.5557 131.828C85.2437 132.004 84.9997 132.256 84.8237 132.584C84.6477 132.904 84.5597 133.272 84.5597 133.688V133.88C84.5597 134.304 84.6557 134.684 84.8477 135.02C85.0477 135.348 85.3237 135.604 85.6757 135.788C86.0277 135.972 86.4317 136.064 86.8877 136.064C87.2637 136.064 87.6037 136 87.9077 135.872C88.2197 135.744 88.4917 135.552 88.7237 135.296L89.3597 136.04C89.0717 136.376 88.7117 136.632 88.2797 136.808C87.8557 136.984 87.3797 137.072 86.8517 137.072ZM91.3674 137V130.64H92.4714V132.368L92.3634 131.936C92.5394 131.496 92.8354 131.16 93.2514 130.928C93.6674 130.696 94.1794 130.58 94.7874 130.58V131.696C94.7394 131.688 94.6914 131.684 94.6434 131.684C94.6034 131.684 94.5634 131.684 94.5234 131.684C93.9074 131.684 93.4194 131.868 93.0594 132.236C92.6994 132.604 92.5194 133.136 92.5194 133.832V137H91.3674ZM99.6032 130.58C100.123 130.58 100.579 130.68 100.971 130.88C101.371 131.08 101.683 131.384 101.907 131.792C102.131 132.2 102.243 132.716 102.243 133.34V137H101.091V133.472C101.091 132.856 100.939 132.392 100.635 132.08C100.339 131.768 99.9192 131.612 99.3752 131.612C98.9672 131.612 98.6112 131.692 98.3072 131.852C98.0032 132.012 97.7672 132.248 97.5992 132.56C97.4392 132.872 97.3592 133.26 97.3592 133.724V137H96.2072V130.64H97.3112V132.356L97.1312 131.9C97.3392 131.484 97.6592 131.16 98.0912 130.928C98.5232 130.696 99.0272 130.58 99.6032 130.58ZM107.099 137.072C106.459 137.072 105.891 136.932 105.395 136.652C104.899 136.372 104.507 135.988 104.219 135.5C103.931 135.004 103.787 134.444 103.787 133.82C103.787 133.188 103.931 132.628 104.219 132.14C104.507 131.652 104.899 131.272 105.395 131C105.891 130.72 106.459 130.58 107.099 130.58C107.731 130.58 108.295 130.72 108.791 131C109.295 131.272 109.687 131.652 109.967 132.14C110.255 132.62 110.399 133.18 110.399 133.82C110.399 134.452 110.255 135.012 109.967 135.5C109.687 135.988 109.295 136.372 108.791 136.652C108.295 136.932 107.731 137.072 107.099 137.072ZM107.099 136.064C107.507 136.064 107.871 135.972 108.191 135.788C108.519 135.604 108.775 135.344 108.959 135.008C109.143 134.664 109.235 134.268 109.235 133.82C109.235 133.364 109.143 132.972 108.959 132.644C108.775 132.308 108.519 132.048 108.191 131.864C107.871 131.68 107.507 131.588 107.099 131.588C106.691 131.588 106.327 131.68 106.007 131.864C105.687 132.048 105.431 132.308 105.239 132.644C105.047 132.972 104.951 133.364 104.951 133.82C104.951 134.268 105.047 134.664 105.239 135.008C105.431 135.344 105.687 135.604 106.007 135.788C106.327 135.972 106.691 136.064 107.099 136.064ZM117.987 137.072C117.339 137.072 116.759 136.932 116.247 136.652C115.743 136.372 115.347 135.988 115.059 135.5C114.771 135.012 114.627 134.452 114.627 133.82C114.627 133.188 114.771 132.628 115.059 132.14C115.347 131.652 115.743 131.272 116.247 131C116.759 130.72 117.339 130.58 117.987 130.58C118.563 130.58 119.075 130.696 119.523 130.928C119.979 131.152 120.331 131.488 120.579 131.936L119.703 132.5C119.495 132.188 119.239 131.96 118.935 131.816C118.639 131.664 118.319 131.588 117.975 131.588C117.559 131.588 117.187 131.68 116.859 131.864C116.531 132.048 116.271 132.308 116.079 132.644C115.887 132.972 115.791 133.364 115.791 133.82C115.791 134.276 115.887 134.672 116.079 135.008C116.271 135.344 116.531 135.604 116.859 135.788C117.187 135.972 117.559 136.064 117.975 136.064C118.319 136.064 118.639 135.992 118.935 135.848C119.239 135.696 119.495 135.464 119.703 135.152L120.579 135.704C120.331 136.144 119.979 136.484 119.523 136.724C119.075 136.956 118.563 137.072 117.987 137.072ZM124.701 137.072C124.061 137.072 123.493 136.932 122.997 136.652C122.501 136.372 122.109 135.988 121.821 135.5C121.533 135.004 121.389 134.444 121.389 133.82C121.389 133.188 121.533 132.628 121.821 132.14C122.109 131.652 122.501 131.272 122.997 131C123.493 130.72 124.061 130.58 124.701 130.58C125.333 130.58 125.897 130.72 126.393 131C126.897 131.272 127.289 131.652 127.569 132.14C127.857 132.62 128.001 133.18 128.001 133.82C128.001 134.452 127.857 135.012 127.569 135.5C127.289 135.988 126.897 136.372 126.393 136.652C125.897 136.932 125.333 137.072 124.701 137.072ZM124.701 136.064C125.109 136.064 125.473 135.972 125.793 135.788C126.121 135.604 126.377 135.344 126.561 135.008C126.745 134.664 126.837 134.268 126.837 133.82C126.837 133.364 126.745 132.972 126.561 132.644C126.377 132.308 126.121 132.048 125.793 131.864C125.473 131.68 125.109 131.588 124.701 131.588C124.293 131.588 123.929 131.68 123.609 131.864C123.289 132.048 123.033 132.308 122.841 132.644C122.649 132.972 122.553 133.364 122.553 133.82C122.553 134.268 122.649 134.664 122.841 135.008C123.033 135.344 123.289 135.604 123.609 135.788C123.929 135.972 124.293 136.064 124.701 136.064ZM137.55 130.58C138.062 130.58 138.514 130.68 138.906 130.88C139.298 131.08 139.602 131.384 139.818 131.792C140.042 132.2 140.154 132.716 140.154 133.34V137H139.002V133.472C139.002 132.856 138.858 132.392 138.57 132.08C138.282 131.768 137.878 131.612 137.358 131.612C136.974 131.612 136.638 131.692 136.35 131.852C136.062 132.012 135.838 132.248 135.678 132.56C135.526 132.872 135.45 133.26 135.45 133.724V137H134.298V133.472C134.298 132.856 134.154 132.392 133.866 132.08C133.586 131.768 133.182 131.612 132.654 131.612C132.278 131.612 131.946 131.692 131.658 131.852C131.37 132.012 131.146 132.248 130.986 132.56C130.826 132.872 130.746 133.26 130.746 133.724V137H129.594V130.64H130.698V132.332L130.518 131.9C130.718 131.484 131.026 131.16 131.442 130.928C131.858 130.696 132.342 130.58 132.894 130.58C133.502 130.58 134.026 130.732 134.466 131.036C134.906 131.332 135.194 131.784 135.33 132.392L134.862 132.2C135.054 131.712 135.39 131.32 135.87 131.024C136.35 130.728 136.91 130.58 137.55 130.58ZM148.22 137.072C147.58 137.072 147.012 136.932 146.516 136.652C146.02 136.372 145.628 135.988 145.34 135.5C145.052 135.004 144.908 134.444 144.908 133.82C144.908 133.188 145.052 132.628 145.34 132.14C145.628 131.652 146.02 131.272 146.516 131C147.012 130.72 147.58 130.58 148.22 130.58C148.852 130.58 149.416 130.72 149.912 131C150.416 131.272 150.808 131.652 151.088 132.14C151.376 132.62 151.52 133.18 151.52 133.82C151.52 134.452 151.376 135.012 151.088 135.5C150.808 135.988 150.416 136.372 149.912 136.652C149.416 136.932 148.852 137.072 148.22 137.072ZM148.22 136.064C148.628 136.064 148.992 135.972 149.312 135.788C149.64 135.604 149.896 135.344 150.08 135.008C150.264 134.664 150.356 134.268 150.356 133.82C150.356 133.364 150.264 132.972 150.08 132.644C149.896 132.308 149.64 132.048 149.312 131.864C148.992 131.68 148.628 131.588 148.22 131.588C147.812 131.588 147.448 131.68 147.128 131.864C146.808 132.048 146.552 132.308 146.36 132.644C146.168 132.972 146.072 133.364 146.072 133.82C146.072 134.268 146.168 134.664 146.36 135.008C146.552 135.344 146.808 135.604 147.128 135.788C147.448 135.972 147.812 136.064 148.22 136.064ZM41.9543 145.58C42.4663 145.58 42.9183 145.68 43.3103 145.88C43.7023 146.08 44.0063 146.384 44.2223 146.792C44.4463 147.2 44.5583 147.716 44.5583 148.34V152H43.4063V148.472C43.4063 147.856 43.2623 147.392 42.9743 147.08C42.6863 146.768 42.2823 146.612 41.7623 146.612C41.3783 146.612 41.0423 146.692 40.7543 146.852C40.4663 147.012 40.2423 147.248 40.0823 147.56C39.9303 147.872 39.8543 148.26 39.8543 148.724V152H38.7023V148.472C38.7023 147.856 38.5583 147.392 38.2703 147.08C37.9903 146.768 37.5863 146.612 37.0583 146.612C36.6823 146.612 36.3503 146.692 36.0623 146.852C35.7743 147.012 35.5503 147.248 35.3903 147.56C35.2303 147.872 35.1503 148.26 35.1503 148.724V152H33.9983V145.64H35.1023V147.332L34.9223 146.9C35.1223 146.484 35.4303 146.16 35.8463 145.928C36.2623 145.696 36.7463 145.58 37.2983 145.58C37.9063 145.58 38.4303 145.732 38.8703 146.036C39.3103 146.332 39.5983 146.784 39.7343 147.392L39.2663 147.2C39.4583 146.712 39.7943 146.32 40.2743 146.024C40.7543 145.728 41.3143 145.58 41.9543 145.58ZM49.5099 152.072C48.8299 152.072 48.2299 151.932 47.7099 151.652C47.1979 151.372 46.7979 150.988 46.5099 150.5C46.2299 150.012 46.0899 149.452 46.0899 148.82C46.0899 148.188 46.2259 147.628 46.4979 147.14C46.7779 146.652 47.1579 146.272 47.6379 146C48.1259 145.72 48.6739 145.58 49.2819 145.58C49.8979 145.58 50.4419 145.716 50.9139 145.988C51.3859 146.26 51.7539 146.644 52.0179 147.14C52.2899 147.628 52.4259 148.2 52.4259 148.856C52.4259 148.904 52.4219 148.96 52.4139 149.024C52.4139 149.088 52.4099 149.148 52.4019 149.204H46.9899V148.376H51.8019L51.3339 148.664C51.3419 148.256 51.2579 147.892 51.0819 147.572C50.9059 147.252 50.6619 147.004 50.3499 146.828C50.0459 146.644 49.6899 146.552 49.2819 146.552C48.8819 146.552 48.5259 146.644 48.2139 146.828C47.9019 147.004 47.6579 147.256 47.4819 147.584C47.3059 147.904 47.2179 148.272 47.2179 148.688V148.88C47.2179 149.304 47.3139 149.684 47.5059 150.02C47.7059 150.348 47.9819 150.604 48.3339 150.788C48.6859 150.972 49.0899 151.064 49.5459 151.064C49.9219 151.064 50.2619 151 50.5659 150.872C50.8779 150.744 51.1499 150.552 51.3819 150.296L52.0179 151.04C51.7299 151.376 51.3699 151.632 50.9379 151.808C50.5139 151.984 50.0379 152.072 49.5099 152.072ZM55.8496 152.072C55.3216 152.072 54.8176 152 54.3376 151.856C53.8656 151.712 53.4936 151.536 53.2216 151.328L53.7016 150.416C53.9736 150.6 54.3096 150.756 54.7096 150.884C55.1096 151.012 55.5176 151.076 55.9336 151.076C56.4696 151.076 56.8536 151 57.0856 150.848C57.3256 150.696 57.4456 150.484 57.4456 150.212C57.4456 150.012 57.3736 149.856 57.2296 149.744C57.0856 149.632 56.8936 149.548 56.6536 149.492C56.4216 149.436 56.1616 149.388 55.8736 149.348C55.5856 149.3 55.2976 149.244 55.0096 149.18C54.7216 149.108 54.4576 149.012 54.2176 148.892C53.9776 148.764 53.7856 148.592 53.6416 148.376C53.4976 148.152 53.4256 147.856 53.4256 147.488C53.4256 147.104 53.5336 146.768 53.7496 146.48C53.9656 146.192 54.2696 145.972 54.6616 145.82C55.0616 145.66 55.5336 145.58 56.0776 145.58C56.4936 145.58 56.9136 145.632 57.3376 145.736C57.7696 145.832 58.1216 145.972 58.3936 146.156L57.9016 147.068C57.6136 146.876 57.3136 146.744 57.0016 146.672C56.6896 146.6 56.3776 146.564 56.0656 146.564C55.5616 146.564 55.1856 146.648 54.9376 146.816C54.6896 146.976 54.5656 147.184 54.5656 147.44C54.5656 147.656 54.6376 147.824 54.7816 147.944C54.9336 148.056 55.1256 148.144 55.3576 148.208C55.5976 148.272 55.8616 148.328 56.1496 148.376C56.4376 148.416 56.7256 148.472 57.0136 148.544C57.3016 148.608 57.5616 148.7 57.7936 148.82C58.0336 148.94 58.2256 149.108 58.3696 149.324C58.5216 149.54 58.5976 149.828 58.5976 150.188C58.5976 150.572 58.4856 150.904 58.2616 151.184C58.0376 151.464 57.7216 151.684 57.3136 151.844C56.9056 151.996 56.4176 152.072 55.8496 152.072ZM67.9933 145.58C68.5053 145.58 68.9573 145.68 69.3493 145.88C69.7413 146.08 70.0453 146.384 70.2613 146.792C70.4853 147.2 70.5973 147.716 70.5973 148.34V152H69.4453V148.472C69.4453 147.856 69.3013 147.392 69.0133 147.08C68.7253 146.768 68.3213 146.612 67.8013 146.612C67.4173 146.612 67.0813 146.692 66.7933 146.852C66.5053 147.012 66.2813 147.248 66.1213 147.56C65.9693 147.872 65.8933 148.26 65.8933 148.724V152H64.7413V148.472C64.7413 147.856 64.5973 147.392 64.3093 147.08C64.0293 146.768 63.6253 146.612 63.0973 146.612C62.7213 146.612 62.3893 146.692 62.1013 146.852C61.8133 147.012 61.5893 147.248 61.4293 147.56C61.2693 147.872 61.1893 148.26 61.1893 148.724V152H60.0373V145.64H61.1413V147.332L60.9613 146.9C61.1613 146.484 61.4693 146.16 61.8853 145.928C62.3013 145.696 62.7853 145.58 63.3373 145.58C63.9453 145.58 64.4693 145.732 64.9093 146.036C65.3493 146.332 65.6373 146.784 65.7733 147.392L65.3053 147.2C65.4973 146.712 65.8333 146.32 66.3133 146.024C66.7933 145.728 67.3533 145.58 67.9933 145.58ZM75.441 152.072C74.801 152.072 74.233 151.932 73.737 151.652C73.241 151.372 72.849 150.988 72.561 150.5C72.273 150.004 72.129 149.444 72.129 148.82C72.129 148.188 72.273 147.628 72.561 147.14C72.849 146.652 73.241 146.272 73.737 146C74.233 145.72 74.801 145.58 75.441 145.58C76.073 145.58 76.637 145.72 77.133 146C77.637 146.272 78.029 146.652 78.309 147.14C78.597 147.62 78.741 148.18 78.741 148.82C78.741 149.452 78.597 150.012 78.309 150.5C78.029 150.988 77.637 151.372 77.133 151.652C76.637 151.932 76.073 152.072 75.441 152.072ZM75.441 151.064C75.849 151.064 76.213 150.972 76.533 150.788C76.861 150.604 77.117 150.344 77.301 150.008C77.485 149.664 77.577 149.268 77.577 148.82C77.577 148.364 77.485 147.972 77.301 147.644C77.117 147.308 76.861 147.048 76.533 146.864C76.213 146.68 75.849 146.588 75.441 146.588C75.033 146.588 74.669 146.68 74.349 146.864C74.029 147.048 73.773 147.308 73.581 147.644C73.389 147.972 73.293 148.364 73.293 148.82C73.293 149.268 73.389 149.664 73.581 150.008C73.773 150.344 74.029 150.604 74.349 150.788C74.669 150.972 75.033 151.064 75.441 151.064ZM86.3288 152.072C85.6808 152.072 85.1008 151.932 84.5888 151.652C84.0848 151.372 83.6888 150.988 83.4008 150.5C83.1128 150.012 82.9688 149.452 82.9688 148.82C82.9688 148.188 83.1128 147.628 83.4008 147.14C83.6888 146.652 84.0848 146.272 84.5888 146C85.1008 145.72 85.6808 145.58 86.3288 145.58C86.9048 145.58 87.4168 145.696 87.8648 145.928C88.3208 146.152 88.6728 146.488 88.9208 146.936L88.0448 147.5C87.8368 147.188 87.5808 146.96 87.2768 146.816C86.9808 146.664 86.6608 146.588 86.3168 146.588C85.9008 146.588 85.5288 146.68 85.2008 146.864C84.8728 147.048 84.6128 147.308 84.4208 147.644C84.2288 147.972 84.1328 148.364 84.1328 148.82C84.1328 149.276 84.2288 149.672 84.4208 150.008C84.6128 150.344 84.8728 150.604 85.2008 150.788C85.5288 150.972 85.9008 151.064 86.3168 151.064C86.6608 151.064 86.9808 150.992 87.2768 150.848C87.5808 150.696 87.8368 150.464 88.0448 150.152L88.9208 150.704C88.6728 151.144 88.3208 151.484 87.8648 151.724C87.4168 151.956 86.9048 152.072 86.3288 152.072ZM94.3603 152V150.656L94.3003 150.404V148.112C94.3003 147.624 94.1563 147.248 93.8683 146.984C93.5883 146.712 93.1643 146.576 92.5963 146.576C92.2203 146.576 91.8523 146.64 91.4923 146.768C91.1323 146.888 90.8283 147.052 90.5803 147.26L90.1003 146.396C90.4283 146.132 90.8203 145.932 91.2763 145.796C91.7403 145.652 92.2243 145.58 92.7283 145.58C93.6003 145.58 94.2723 145.792 94.7443 146.216C95.2163 146.64 95.4523 147.288 95.4523 148.16V152H94.3603ZM92.2723 152.072C91.8003 152.072 91.3843 151.992 91.0243 151.832C90.6723 151.672 90.4003 151.452 90.2083 151.172C90.0163 150.884 89.9203 150.56 89.9203 150.2C89.9203 149.856 90.0003 149.544 90.1603 149.264C90.3283 148.984 90.5963 148.76 90.9643 148.592C91.3403 148.424 91.8443 148.34 92.4763 148.34H94.4923V149.168H92.5243C91.9483 149.168 91.5603 149.264 91.3603 149.456C91.1603 149.648 91.0603 149.88 91.0603 150.152C91.0603 150.464 91.1843 150.716 91.4323 150.908C91.6803 151.092 92.0243 151.184 92.4643 151.184C92.8963 151.184 93.2723 151.088 93.5923 150.896C93.9203 150.704 94.1563 150.424 94.3003 150.056L94.5283 150.848C94.3763 151.224 94.1083 151.524 93.7243 151.748C93.3403 151.964 92.8563 152.072 92.2723 152.072ZM100.98 145.58C101.5 145.58 101.956 145.68 102.348 145.88C102.748 146.08 103.06 146.384 103.284 146.792C103.508 147.2 103.62 147.716 103.62 148.34V152H102.468V148.472C102.468 147.856 102.316 147.392 102.012 147.08C101.716 146.768 101.296 146.612 100.752 146.612C100.344 146.612 99.9882 146.692 99.6842 146.852C99.3802 147.012 99.1442 147.248 98.9762 147.56C98.8162 147.872 98.7362 148.26 98.7362 148.724V152H97.5842V145.64H98.6882V147.356L98.5082 146.9C98.7162 146.484 99.0362 146.16 99.4682 145.928C99.9002 145.696 100.404 145.58 100.98 145.58ZM107.936 152.072C107.296 152.072 106.8 151.9 106.448 151.556C106.096 151.212 105.92 150.72 105.92 150.08V144.248H107.072V150.032C107.072 150.376 107.156 150.64 107.324 150.824C107.5 151.008 107.748 151.1 108.068 151.1C108.428 151.1 108.728 151 108.968 150.8L109.328 151.628C109.152 151.78 108.94 151.892 108.692 151.964C108.452 152.036 108.2 152.072 107.936 152.072ZM104.84 146.588V145.64H108.896V146.588H104.84ZM113.234 152.072C112.594 152.072 112.026 151.932 111.53 151.652C111.034 151.372 110.642 150.988 110.354 150.5C110.066 150.004 109.922 149.444 109.922 148.82C109.922 148.188 110.066 147.628 110.354 147.14C110.642 146.652 111.034 146.272 111.53 146C112.026 145.72 112.594 145.58 113.234 145.58C113.866 145.58 114.43 145.72 114.926 146C115.43 146.272 115.822 146.652 116.102 147.14C116.39 147.62 116.534 148.18 116.534 148.82C116.534 149.452 116.39 150.012 116.102 150.5C115.822 150.988 115.43 151.372 114.926 151.652C114.43 151.932 113.866 152.072 113.234 152.072ZM113.234 151.064C113.642 151.064 114.006 150.972 114.326 150.788C114.654 150.604 114.91 150.344 115.094 150.008C115.278 149.664 115.37 149.268 115.37 148.82C115.37 148.364 115.278 147.972 115.094 147.644C114.91 147.308 114.654 147.048 114.326 146.864C114.006 146.68 113.642 146.588 113.234 146.588C112.826 146.588 112.462 146.68 112.142 146.864C111.822 147.048 111.566 147.308 111.374 147.644C111.182 147.972 111.086 148.364 111.086 148.82C111.086 149.268 111.182 149.664 111.374 150.008C111.566 150.344 111.822 150.604 112.142 150.788C112.462 150.972 112.826 151.064 113.234 151.064ZM124.722 152.072C124.194 152.072 123.71 151.952 123.27 151.712C122.838 151.464 122.49 151.1 122.226 150.62C121.97 150.14 121.842 149.54 121.842 148.82C121.842 148.1 121.966 147.5 122.214 147.02C122.47 146.54 122.814 146.18 123.246 145.94C123.686 145.7 124.178 145.58 124.722 145.58C125.346 145.58 125.898 145.716 126.378 145.988C126.858 146.26 127.238 146.64 127.518 147.128C127.798 147.608 127.938 148.172 127.938 148.82C127.938 149.468 127.798 150.036 127.518 150.524C127.238 151.012 126.858 151.392 126.378 151.664C125.898 151.936 125.346 152.072 124.722 152.072ZM121.35 154.328V145.64H122.454V147.356L122.382 148.832L122.502 150.308V154.328H121.35ZM124.626 151.064C125.034 151.064 125.398 150.972 125.718 150.788C126.046 150.604 126.302 150.344 126.486 150.008C126.678 149.664 126.774 149.268 126.774 148.82C126.774 148.364 126.678 147.972 126.486 147.644C126.302 147.308 126.046 147.048 125.718 146.864C125.398 146.68 125.034 146.588 124.626 146.588C124.226 146.588 123.862 146.68 123.534 146.864C123.214 147.048 122.958 147.308 122.766 147.644C122.582 147.972 122.49 148.364 122.49 148.82C122.49 149.268 122.582 149.664 122.766 150.008C122.958 150.344 123.214 150.604 123.534 150.788C123.862 150.972 124.226 151.064 124.626 151.064ZM133.419 152V150.656L133.359 150.404V148.112C133.359 147.624 133.215 147.248 132.927 146.984C132.647 146.712 132.223 146.576 131.655 146.576C131.279 146.576 130.911 146.64 130.551 146.768C130.191 146.888 129.887 147.052 129.639 147.26L129.159 146.396C129.487 146.132 129.879 145.932 130.335 145.796C130.799 145.652 131.283 145.58 131.787 145.58C132.659 145.58 133.331 145.792 133.803 146.216C134.275 146.64 134.511 147.288 134.511 148.16V152H133.419ZM131.331 152.072C130.859 152.072 130.443 151.992 130.083 151.832C129.731 151.672 129.459 151.452 129.267 151.172C129.075 150.884 128.979 150.56 128.979 150.2C128.979 149.856 129.059 149.544 129.219 149.264C129.387 148.984 129.655 148.76 130.023 148.592C130.399 148.424 130.903 148.34 131.535 148.34H133.551V149.168H131.583C131.007 149.168 130.619 149.264 130.419 149.456C130.219 149.648 130.119 149.88 130.119 150.152C130.119 150.464 130.243 150.716 130.491 150.908C130.739 151.092 131.083 151.184 131.523 151.184C131.955 151.184 132.331 151.088 132.651 150.896C132.979 150.704 133.215 150.424 133.359 150.056L133.587 150.848C133.435 151.224 133.167 151.524 132.783 151.748C132.399 151.964 131.915 152.072 131.331 152.072ZM136.643 152V145.64H137.747V147.368L137.639 146.936C137.815 146.496 138.111 146.16 138.527 145.928C138.943 145.696 139.455 145.58 140.063 145.58V146.696C140.015 146.688 139.967 146.684 139.919 146.684C139.879 146.684 139.839 146.684 139.799 146.684C139.183 146.684 138.695 146.868 138.335 147.236C137.975 147.604 137.795 148.136 137.795 148.832V152H136.643ZM144.962 152V150.656L144.902 150.404V148.112C144.902 147.624 144.758 147.248 144.47 146.984C144.19 146.712 143.766 146.576 143.198 146.576C142.822 146.576 142.454 146.64 142.094 146.768C141.734 146.888 141.43 147.052 141.182 147.26L140.702 146.396C141.03 146.132 141.422 145.932 141.878 145.796C142.342 145.652 142.826 145.58 143.33 145.58C144.202 145.58 144.874 145.792 145.346 146.216C145.818 146.64 146.054 147.288 146.054 148.16V152H144.962ZM142.874 152.072C142.402 152.072 141.986 151.992 141.626 151.832C141.274 151.672 141.002 151.452 140.81 151.172C140.618 150.884 140.522 150.56 140.522 150.2C140.522 149.856 140.602 149.544 140.762 149.264C140.93 148.984 141.198 148.76 141.566 148.592C141.942 148.424 142.446 148.34 143.078 148.34H145.094V149.168H143.126C142.55 149.168 142.162 149.264 141.962 149.456C141.762 149.648 141.662 149.88 141.662 150.152C141.662 150.464 141.786 150.716 142.034 150.908C142.282 151.092 142.626 151.184 143.066 151.184C143.498 151.184 143.874 151.088 144.194 150.896C144.522 150.704 144.758 150.424 144.902 150.056L145.13 150.848C144.978 151.224 144.71 151.524 144.326 151.748C143.942 151.964 143.458 152.072 142.874 152.072ZM40.6174 167V160.076C40.6174 159.452 40.7974 158.956 41.1574 158.588C41.5254 158.212 42.0454 158.024 42.7174 158.024C42.9654 158.024 43.2014 158.056 43.4254 158.12C43.6574 158.176 43.8534 158.268 44.0134 158.396L43.6654 159.272C43.5454 159.176 43.4094 159.104 43.2574 159.056C43.1054 159 42.9454 158.972 42.7774 158.972C42.4414 158.972 42.1854 159.068 42.0094 159.26C41.8334 159.444 41.7454 159.72 41.7454 160.088V160.94L41.7694 161.468V167H40.6174ZM39.5374 161.588V160.64H43.5934V161.588H39.5374ZM47.3101 167.072C46.6701 167.072 46.1021 166.932 45.6061 166.652C45.1101 166.372 44.7181 165.988 44.4301 165.5C44.1421 165.004 43.9981 164.444 43.9981 163.82C43.9981 163.188 44.1421 162.628 44.4301 162.14C44.7181 161.652 45.1101 161.272 45.6061 161C46.1021 160.72 46.6701 160.58 47.3101 160.58C47.9421 160.58 48.5061 160.72 49.0021 161C49.5061 161.272 49.8981 161.652 50.1781 162.14C50.4661 162.62 50.6101 163.18 50.6101 163.82C50.6101 164.452 50.4661 165.012 50.1781 165.5C49.8981 165.988 49.5061 166.372 49.0021 166.652C48.5061 166.932 47.9421 167.072 47.3101 167.072ZM47.3101 166.064C47.7181 166.064 48.0821 165.972 48.4021 165.788C48.7301 165.604 48.9861 165.344 49.1701 165.008C49.3541 164.664 49.4461 164.268 49.4461 163.82C49.4461 163.364 49.3541 162.972 49.1701 162.644C48.9861 162.308 48.7301 162.048 48.4021 161.864C48.0821 161.68 47.7181 161.588 47.3101 161.588C46.9021 161.588 46.5381 161.68 46.2181 161.864C45.8981 162.048 45.6421 162.308 45.4501 162.644C45.2581 162.972 45.1621 163.364 45.1621 163.82C45.1621 164.268 45.2581 164.664 45.4501 165.008C45.6421 165.344 45.8981 165.604 46.2181 165.788C46.5381 165.972 46.9021 166.064 47.3101 166.064ZM52.2033 167V160.64H53.3073V162.368L53.1993 161.936C53.3753 161.496 53.6713 161.16 54.0873 160.928C54.5033 160.696 55.0153 160.58 55.6233 160.58V161.696C55.5753 161.688 55.5273 161.684 55.4793 161.684C55.4393 161.684 55.3993 161.684 55.3593 161.684C54.7433 161.684 54.2553 161.868 53.8953 162.236C53.5353 162.604 53.3553 163.136 53.3553 163.832V167H52.2033ZM64.9992 160.58C65.5112 160.58 65.9632 160.68 66.3552 160.88C66.7472 161.08 67.0512 161.384 67.2672 161.792C67.4912 162.2 67.6032 162.716 67.6032 163.34V167H66.4512V163.472C66.4512 162.856 66.3072 162.392 66.0192 162.08C65.7312 161.768 65.3272 161.612 64.8072 161.612C64.4232 161.612 64.0872 161.692 63.7992 161.852C63.5112 162.012 63.2872 162.248 63.1272 162.56C62.9752 162.872 62.8992 163.26 62.8992 163.724V167H61.7472V163.472C61.7472 162.856 61.6032 162.392 61.3152 162.08C61.0352 161.768 60.6312 161.612 60.1032 161.612C59.7272 161.612 59.3952 161.692 59.1072 161.852C58.8192 162.012 58.5952 162.248 58.4352 162.56C58.2752 162.872 58.1952 163.26 58.1952 163.724V167H57.0432V160.64H58.1472V162.332L57.9672 161.9C58.1672 161.484 58.4752 161.16 58.8912 160.928C59.3072 160.696 59.7912 160.58 60.3432 160.58C60.9512 160.58 61.4752 160.732 61.9152 161.036C62.3552 161.332 62.6432 161.784 62.7792 162.392L62.3112 162.2C62.5032 161.712 62.8392 161.32 63.3192 161.024C63.7992 160.728 64.3592 160.58 64.9992 160.58ZM73.6709 167V165.656L73.6109 165.404V163.112C73.6109 162.624 73.4669 162.248 73.1789 161.984C72.8989 161.712 72.4749 161.576 71.9069 161.576C71.5309 161.576 71.1629 161.64 70.8029 161.768C70.4429 161.888 70.1389 162.052 69.8909 162.26L69.4109 161.396C69.7389 161.132 70.1309 160.932 70.5869 160.796C71.0509 160.652 71.5349 160.58 72.0389 160.58C72.9109 160.58 73.5829 160.792 74.0549 161.216C74.5269 161.64 74.7629 162.288 74.7629 163.16V167H73.6709ZM71.5829 167.072C71.1109 167.072 70.6949 166.992 70.3349 166.832C69.9829 166.672 69.7109 166.452 69.5189 166.172C69.3269 165.884 69.2309 165.56 69.2309 165.2C69.2309 164.856 69.3109 164.544 69.4709 164.264C69.6389 163.984 69.9069 163.76 70.2749 163.592C70.6509 163.424 71.1549 163.34 71.7869 163.34H73.8029V164.168H71.8349C71.2589 164.168 70.8709 164.264 70.6709 164.456C70.4709 164.648 70.3709 164.88 70.3709 165.152C70.3709 165.464 70.4949 165.716 70.7429 165.908C70.9909 166.092 71.3349 166.184 71.7749 166.184C72.2069 166.184 72.5829 166.088 72.9029 165.896C73.2309 165.704 73.4669 165.424 73.6109 165.056L73.8389 165.848C73.6869 166.224 73.4189 166.524 73.0349 166.748C72.6509 166.964 72.1669 167.072 71.5829 167.072ZM76.8947 167V160.64H77.9987V162.368L77.8907 161.936C78.0667 161.496 78.3627 161.16 78.7787 160.928C79.1947 160.696 79.7067 160.58 80.3147 160.58V161.696C80.2667 161.688 80.2187 161.684 80.1707 161.684C80.1307 161.684 80.0907 161.684 80.0507 161.684C79.4347 161.684 78.9467 161.868 78.5867 162.236C78.2267 162.604 78.0467 163.136 78.0467 163.832V167H76.8947ZM88.9873 167V165.656L88.9273 165.404V163.112C88.9273 162.624 88.7833 162.248 88.4953 161.984C88.2153 161.712 87.7913 161.576 87.2233 161.576C86.8473 161.576 86.4793 161.64 86.1193 161.768C85.7593 161.888 85.4553 162.052 85.2073 162.26L84.7273 161.396C85.0553 161.132 85.4473 160.932 85.9033 160.796C86.3673 160.652 86.8513 160.58 87.3553 160.58C88.2273 160.58 88.8993 160.792 89.3713 161.216C89.8433 161.64 90.0793 162.288 90.0793 163.16V167H88.9873ZM86.8993 167.072C86.4273 167.072 86.0113 166.992 85.6513 166.832C85.2993 166.672 85.0273 166.452 84.8353 166.172C84.6433 165.884 84.5473 165.56 84.5473 165.2C84.5473 164.856 84.6273 164.544 84.7873 164.264C84.9553 163.984 85.2233 163.76 85.5913 163.592C85.9673 163.424 86.4713 163.34 87.1033 163.34H89.1193V164.168H87.1513C86.5753 164.168 86.1873 164.264 85.9873 164.456C85.7873 164.648 85.6873 164.88 85.6873 165.152C85.6873 165.464 85.8113 165.716 86.0593 165.908C86.3073 166.092 86.6513 166.184 87.0913 166.184C87.5233 166.184 87.8993 166.088 88.2193 165.896C88.5473 165.704 88.7833 165.424 88.9273 165.056L89.1553 165.848C89.0033 166.224 88.7353 166.524 88.3513 166.748C87.9673 166.964 87.4833 167.072 86.8993 167.072ZM98.2058 167.072C97.5578 167.072 96.9778 166.932 96.4658 166.652C95.9618 166.372 95.5658 165.988 95.2778 165.5C94.9898 165.012 94.8458 164.452 94.8458 163.82C94.8458 163.188 94.9898 162.628 95.2778 162.14C95.5658 161.652 95.9618 161.272 96.4658 161C96.9778 160.72 97.5578 160.58 98.2058 160.58C98.7818 160.58 99.2938 160.696 99.7418 160.928C100.198 161.152 100.55 161.488 100.798 161.936L99.9218 162.5C99.7138 162.188 99.4578 161.96 99.1538 161.816C98.8578 161.664 98.5378 161.588 98.1938 161.588C97.7778 161.588 97.4058 161.68 97.0778 161.864C96.7498 162.048 96.4898 162.308 96.2978 162.644C96.1058 162.972 96.0098 163.364 96.0098 163.82C96.0098 164.276 96.1058 164.672 96.2978 165.008C96.4898 165.344 96.7498 165.604 97.0778 165.788C97.4058 165.972 97.7778 166.064 98.1938 166.064C98.5378 166.064 98.8578 165.992 99.1538 165.848C99.4578 165.696 99.7138 165.464 99.9218 165.152L100.798 165.704C100.55 166.144 100.198 166.484 99.7418 166.724C99.2938 166.956 98.7818 167.072 98.2058 167.072ZM106.237 167V165.656L106.177 165.404V163.112C106.177 162.624 106.033 162.248 105.745 161.984C105.465 161.712 105.041 161.576 104.473 161.576C104.097 161.576 103.729 161.64 103.369 161.768C103.009 161.888 102.705 162.052 102.457 162.26L101.977 161.396C102.305 161.132 102.697 160.932 103.153 160.796C103.617 160.652 104.101 160.58 104.605 160.58C105.477 160.58 106.149 160.792 106.621 161.216C107.093 161.64 107.329 162.288 107.329 163.16V167H106.237ZM104.149 167.072C103.677 167.072 103.261 166.992 102.901 166.832C102.549 166.672 102.277 166.452 102.085 166.172C101.893 165.884 101.797 165.56 101.797 165.2C101.797 164.856 101.877 164.544 102.037 164.264C102.205 163.984 102.473 163.76 102.841 163.592C103.217 163.424 103.721 163.34 104.353 163.34H106.369V164.168H104.401C103.825 164.168 103.437 164.264 103.237 164.456C103.037 164.648 102.937 164.88 102.937 165.152C102.937 165.464 103.061 165.716 103.309 165.908C103.557 166.092 103.901 166.184 104.341 166.184C104.773 166.184 105.149 166.088 105.469 165.896C105.797 165.704 106.033 165.424 106.177 165.056L106.405 165.848C106.253 166.224 105.985 166.524 105.601 166.748C105.217 166.964 104.733 167.072 104.149 167.072ZM112.833 167.072C112.289 167.072 111.797 166.952 111.357 166.712C110.925 166.464 110.581 166.1 110.325 165.62C110.077 165.14 109.953 164.54 109.953 163.82C109.953 163.1 110.081 162.5 110.337 162.02C110.601 161.54 110.949 161.18 111.381 160.94C111.821 160.7 112.305 160.58 112.833 160.58C113.457 160.58 114.009 160.716 114.489 160.988C114.969 161.26 115.349 161.64 115.629 162.128C115.909 162.608 116.049 163.172 116.049 163.82C116.049 164.468 115.909 165.036 115.629 165.524C115.349 166.012 114.969 166.392 114.489 166.664C114.009 166.936 113.457 167.072 112.833 167.072ZM109.461 167V158.096H110.613V162.332L110.493 163.808L110.565 165.284V167H109.461ZM112.737 166.064C113.145 166.064 113.509 165.972 113.829 165.788C114.157 165.604 114.413 165.344 114.597 165.008C114.789 164.664 114.885 164.268 114.885 163.82C114.885 163.364 114.789 162.972 114.597 162.644C114.413 162.308 114.157 162.048 113.829 161.864C113.509 161.68 113.145 161.588 112.737 161.588C112.337 161.588 111.973 161.68 111.645 161.864C111.325 162.048 111.069 162.308 110.877 162.644C110.693 162.972 110.601 163.364 110.601 163.82C110.601 164.268 110.693 164.664 110.877 165.008C111.069 165.344 111.325 165.604 111.645 165.788C111.973 165.972 112.337 166.064 112.737 166.064ZM120.473 167.072C119.793 167.072 119.193 166.932 118.673 166.652C118.161 166.372 117.761 165.988 117.473 165.5C117.193 165.012 117.053 164.452 117.053 163.82C117.053 163.188 117.189 162.628 117.461 162.14C117.741 161.652 118.121 161.272 118.601 161C119.089 160.72 119.637 160.58 120.245 160.58C120.861 160.58 121.405 160.716 121.877 160.988C122.349 161.26 122.717 161.644 122.981 162.14C123.253 162.628 123.389 163.2 123.389 163.856C123.389 163.904 123.385 163.96 123.377 164.024C123.377 164.088 123.373 164.148 123.365 164.204H117.953V163.376H122.765L122.297 163.664C122.305 163.256 122.221 162.892 122.045 162.572C121.869 162.252 121.625 162.004 121.313 161.828C121.009 161.644 120.653 161.552 120.245 161.552C119.845 161.552 119.489 161.644 119.177 161.828C118.865 162.004 118.621 162.256 118.445 162.584C118.269 162.904 118.181 163.272 118.181 163.688V163.88C118.181 164.304 118.277 164.684 118.469 165.02C118.669 165.348 118.945 165.604 119.297 165.788C119.649 165.972 120.053 166.064 120.509 166.064C120.885 166.064 121.225 166 121.529 165.872C121.841 165.744 122.113 165.552 122.345 165.296L122.981 166.04C122.693 166.376 122.333 166.632 121.901 166.808C121.477 166.984 121.001 167.072 120.473 167.072ZM127.76 167.072C127.112 167.072 126.532 166.932 126.02 166.652C125.516 166.372 125.12 165.988 124.832 165.5C124.544 165.012 124.4 164.452 124.4 163.82C124.4 163.188 124.544 162.628 124.832 162.14C125.12 161.652 125.516 161.272 126.02 161C126.532 160.72 127.112 160.58 127.76 160.58C128.336 160.58 128.848 160.696 129.296 160.928C129.752 161.152 130.104 161.488 130.352 161.936L129.476 162.5C129.268 162.188 129.012 161.96 128.708 161.816C128.412 161.664 128.092 161.588 127.748 161.588C127.332 161.588 126.96 161.68 126.632 161.864C126.304 162.048 126.044 162.308 125.852 162.644C125.66 162.972 125.564 163.364 125.564 163.82C125.564 164.276 125.66 164.672 125.852 165.008C126.044 165.344 126.304 165.604 126.632 165.788C126.96 165.972 127.332 166.064 127.748 166.064C128.092 166.064 128.412 165.992 128.708 165.848C129.012 165.696 129.268 165.464 129.476 165.152L130.352 165.704C130.104 166.144 129.752 166.484 129.296 166.724C128.848 166.956 128.336 167.072 127.76 167.072ZM127.196 169.688C126.988 169.688 126.796 169.664 126.62 169.616C126.444 169.576 126.28 169.512 126.128 169.424L126.38 168.836C126.508 168.908 126.636 168.96 126.764 168.992C126.9 169.024 127.044 169.04 127.196 169.04C127.428 169.04 127.596 168.996 127.7 168.908C127.812 168.828 127.868 168.712 127.868 168.56C127.868 168.416 127.812 168.3 127.7 168.212C127.596 168.132 127.424 168.092 127.184 168.092H126.86L127.16 166.916H127.82L127.64 167.6C127.984 167.632 128.244 167.74 128.42 167.924C128.596 168.108 128.684 168.332 128.684 168.596C128.684 168.932 128.548 169.196 128.276 169.388C128.004 169.588 127.644 169.688 127.196 169.688ZM135.792 167V165.656L135.732 165.404V163.112C135.732 162.624 135.588 162.248 135.3 161.984C135.02 161.712 134.596 161.576 134.028 161.576C133.652 161.576 133.284 161.64 132.924 161.768C132.564 161.888 132.26 162.052 132.012 162.26L131.532 161.396C131.86 161.132 132.252 160.932 132.708 160.796C133.172 160.652 133.656 160.58 134.16 160.58C135.032 160.58 135.704 160.792 136.176 161.216C136.648 161.64 136.884 162.288 136.884 163.16V167H135.792ZM133.704 167.072C133.232 167.072 132.816 166.992 132.456 166.832C132.104 166.672 131.832 166.452 131.64 166.172C131.448 165.884 131.352 165.56 131.352 165.2C131.352 164.856 131.432 164.544 131.592 164.264C131.76 163.984 132.028 163.76 132.396 163.592C132.772 163.424 133.276 163.34 133.908 163.34H135.924V164.168H133.956C133.38 164.168 132.992 164.264 132.792 164.456C132.592 164.648 132.492 164.88 132.492 165.152C132.492 165.464 132.616 165.716 132.864 165.908C133.112 166.092 133.456 166.184 133.896 166.184C134.328 166.184 134.704 166.088 135.024 165.896C135.352 165.704 135.588 165.424 135.732 165.056L135.96 165.848C135.808 166.224 135.54 166.524 135.156 166.748C134.772 166.964 134.288 167.072 133.704 167.072ZM139.292 167.072C139.068 167.072 138.876 166.996 138.716 166.844C138.556 166.684 138.476 166.484 138.476 166.244C138.476 166.004 138.556 165.808 138.716 165.656C138.876 165.504 139.068 165.428 139.292 165.428C139.508 165.428 139.692 165.504 139.844 165.656C140.004 165.808 140.084 166.004 140.084 166.244C140.084 166.484 140.004 166.684 139.844 166.844C139.692 166.996 139.508 167.072 139.292 167.072Z" fill="#008E86"/>
<path d="M59.4364 57.4965L87.366 8.31614L83.723 62.9609L74.6155 70.2469L59.4364 57.4965Z" fill="#008E86" stroke="#00635D" stroke-width="2" stroke-linejoin="round"/>
<path d="M63.6861 56.8922L87.3655 8.31902L83.7226 62.9638L63.6861 56.8922Z" fill="#008E86" stroke="#00635D" stroke-width="2" stroke-linejoin="round"/>
<path d="M87.9731 44.7472L74.6155 28.9609" stroke="#333333" stroke-width="2" stroke-dasharray="4 6"/>
<path d="M72.7081 11.2189C72.8133 10.6767 73.3381 10.3225 73.8803 10.4277C74.4225 10.533 74.7767 11.0578 74.6715 11.5999L72.7081 11.2189ZM31.7098 29.3642C31.4832 28.8606 31.7076 28.2686 32.2113 28.0419L40.4181 24.3477C40.9218 24.121 41.5138 24.3455 41.7405 24.8491C41.9672 25.3527 41.7427 25.9448 41.2391 26.1715L33.9441 29.4552L37.2278 36.7502C37.4545 37.2538 37.23 37.8458 36.7264 38.0725C36.2227 38.2992 35.6307 38.0747 35.404 37.5711L31.7098 29.3642ZM74.6715 11.5999C72.9096 20.6776 67.5454 27.2828 59.9415 30.5827C52.3619 33.872 42.6688 33.8329 32.2672 29.8888L32.9763 28.0187C43.0126 31.8244 52.1514 31.7832 59.1453 28.748C66.1148 25.7234 71.0657 19.6814 72.7081 11.2189L74.6715 11.5999Z" fill="black"/>
<path d="M78.2581 51.426L140.189 71.4625L83.1153 71.4625L78.2581 51.426Z" fill="#008E86" stroke="#00635D" stroke-width="2" stroke-linejoin="round"/>
<path d="M63.6865 56.8911L78.2585 51.4265L101.331 75.1061L74.6155 70.2488L63.6865 56.8911Z" fill="#008E86" stroke="#00635D" stroke-width="2" stroke-linejoin="round"/>
</svg>
