<svg width="180" height="180" viewBox="0 0 180 180" fill="none" xmlns="http://www.w3.org/2000/svg">
<g clip-path="url(#clip0_14_3387)">
<rect width="180" height="180" rx="20" fill="#F2F2F2"/>
<g clip-path="url(#clip1_14_3387)">
<path d="M0 30L-1.31134e-06 0L30 -1.31134e-06L30 10C30 21.0457 21.0457 30 10 30L0 30Z" fill="#333333"/>
<path d="M14.4663 9.608C16.0343 9.608 17.2609 10.088 18.1463 11.048C19.0316 11.9973 19.4743 13.368 19.4743 15.16C19.4743 16.4293 19.2343 17.5173 18.7543 18.424C18.2849 19.3307 17.6183 20.0187 16.7543 20.488C15.8903 20.9573 14.8929 21.192 13.7623 21.192C13.1649 21.192 12.5943 21.128 12.0503 21C11.5063 20.8613 11.0423 20.6693 10.6583 20.424L11.6183 18.52C12.1623 18.8933 12.8609 19.08 13.7143 19.08C14.6636 19.08 15.4156 18.8027 15.9703 18.248C16.5249 17.6827 16.8236 16.872 16.8663 15.816C16.1943 16.488 15.2663 16.824 14.0823 16.824C13.3676 16.824 12.7169 16.68 12.1303 16.392C11.5436 16.104 11.0796 15.6987 10.7383 15.176C10.3969 14.6427 10.2263 14.0293 10.2263 13.336C10.2263 12.5893 10.4129 11.9333 10.7863 11.368C11.1596 10.8027 11.6663 10.3707 12.3063 10.072C12.9569 9.76267 13.6769 9.608 14.4663 9.608ZM14.6583 14.888C15.2236 14.888 15.6823 14.7333 16.0343 14.424C16.3969 14.104 16.5783 13.6987 16.5783 13.208C16.5783 12.7173 16.4023 12.3173 16.0503 12.008C15.7089 11.6987 15.2343 11.544 14.6263 11.544C14.0716 11.544 13.6183 11.6933 13.2663 11.992C12.9249 12.2907 12.7543 12.696 12.7543 13.208C12.7543 13.72 12.9249 14.1307 13.2663 14.44C13.6183 14.7387 14.0823 14.888 14.6583 14.888Z" fill="#F2F2F2"/>
</g>
<path d="M38.1916 122V113.6H41.7316C42.6276 113.6 43.4156 113.776 44.0956 114.128C44.7836 114.48 45.3156 114.972 45.6916 115.604C46.0756 116.236 46.2676 116.968 46.2676 117.8C46.2676 118.632 46.0756 119.364 45.6916 119.996C45.3156 120.628 44.7836 121.12 44.0956 121.472C43.4156 121.824 42.6276 122 41.7316 122H38.1916ZM39.3916 120.956H41.6596C42.3556 120.956 42.9556 120.824 43.4596 120.56C43.9716 120.296 44.3676 119.928 44.6476 119.456C44.9276 118.976 45.0676 118.424 45.0676 117.8C45.0676 117.168 44.9276 116.616 44.6476 116.144C44.3676 115.672 43.9716 115.304 43.4596 115.04C42.9556 114.776 42.3556 114.644 41.6596 114.644H39.3916V120.956ZM50.6617 122.072C50.0217 122.072 49.4537 121.932 48.9577 121.652C48.4617 121.372 48.0697 120.988 47.7817 120.5C47.4937 120.004 47.3497 119.444 47.3497 118.82C47.3497 118.188 47.4937 117.628 47.7817 117.14C48.0697 116.652 48.4617 116.272 48.9577 116C49.4537 115.72 50.0217 115.58 50.6617 115.58C51.2937 115.58 51.8577 115.72 52.3537 116C52.8577 116.272 53.2497 116.652 53.5297 117.14C53.8177 117.62 53.9617 118.18 53.9617 118.82C53.9617 119.452 53.8177 120.012 53.5297 120.5C53.2497 120.988 52.8577 121.372 52.3537 121.652C51.8577 121.932 51.2937 122.072 50.6617 122.072ZM50.6617 121.064C51.0697 121.064 51.4337 120.972 51.7537 120.788C52.0817 120.604 52.3377 120.344 52.5217 120.008C52.7057 119.664 52.7977 119.268 52.7977 118.82C52.7977 118.364 52.7057 117.972 52.5217 117.644C52.3377 117.308 52.0817 117.048 51.7537 116.864C51.4337 116.68 51.0697 116.588 50.6617 116.588C50.2537 116.588 49.8897 116.68 49.5697 116.864C49.2497 117.048 48.9937 117.308 48.8017 117.644C48.6097 117.972 48.5137 118.364 48.5137 118.82C48.5137 119.268 48.6097 119.664 48.8017 120.008C48.9937 120.344 49.2497 120.604 49.5697 120.788C49.8897 120.972 50.2537 121.064 50.6617 121.064ZM58.9269 122.072C58.3829 122.072 57.8909 121.952 57.4509 121.712C57.0189 121.464 56.6749 121.1 56.4189 120.62C56.1709 120.14 56.0469 119.54 56.0469 118.82C56.0469 118.1 56.1749 117.5 56.4309 117.02C56.6949 116.54 57.0429 116.18 57.4749 115.94C57.9149 115.7 58.3989 115.58 58.9269 115.58C59.5509 115.58 60.1029 115.716 60.5829 115.988C61.0629 116.26 61.4429 116.64 61.7229 117.128C62.0029 117.608 62.1429 118.172 62.1429 118.82C62.1429 119.468 62.0029 120.036 61.7229 120.524C61.4429 121.012 61.0629 121.392 60.5829 121.664C60.1029 121.936 59.5509 122.072 58.9269 122.072ZM55.5549 122V113.096H56.7069V117.332L56.5869 118.808L56.6589 120.284V122H55.5549ZM58.8309 121.064C59.2389 121.064 59.6029 120.972 59.9229 120.788C60.2509 120.604 60.5069 120.344 60.6909 120.008C60.8829 119.664 60.9789 119.268 60.9789 118.82C60.9789 118.364 60.8829 117.972 60.6909 117.644C60.5069 117.308 60.2509 117.048 59.9229 116.864C59.6029 116.68 59.2389 116.588 58.8309 116.588C58.4309 116.588 58.0669 116.68 57.7389 116.864C57.4189 117.048 57.1629 117.308 56.9709 117.644C56.7869 117.972 56.6949 118.364 56.6949 118.82C56.6949 119.268 56.7869 119.664 56.9709 120.008C57.1629 120.344 57.4189 120.604 57.7389 120.788C58.0669 120.972 58.4309 121.064 58.8309 121.064ZM63.7346 122V115.64H64.8386V117.368L64.7306 116.936C64.9066 116.496 65.2026 116.16 65.6186 115.928C66.0346 115.696 66.5466 115.58 67.1546 115.58V116.696C67.1066 116.688 67.0586 116.684 67.0106 116.684C66.9706 116.684 66.9306 116.684 66.8906 116.684C66.2746 116.684 65.7866 116.868 65.4266 117.236C65.0666 117.604 64.8866 118.136 64.8866 118.832V122H63.7346ZM71.3478 122.072C70.6678 122.072 70.0678 121.932 69.5478 121.652C69.0358 121.372 68.6358 120.988 68.3478 120.5C68.0678 120.012 67.9278 119.452 67.9278 118.82C67.9278 118.188 68.0638 117.628 68.3358 117.14C68.6158 116.652 68.9958 116.272 69.4758 116C69.9638 115.72 70.5118 115.58 71.1198 115.58C71.7358 115.58 72.2798 115.716 72.7518 115.988C73.2238 116.26 73.5918 116.644 73.8558 117.14C74.1278 117.628 74.2638 118.2 74.2638 118.856C74.2638 118.904 74.2598 118.96 74.2518 119.024C74.2518 119.088 74.2478 119.148 74.2398 119.204H68.8278V118.376H73.6398L73.1718 118.664C73.1798 118.256 73.0958 117.892 72.9198 117.572C72.7438 117.252 72.4998 117.004 72.1878 116.828C71.8838 116.644 71.5278 116.552 71.1198 116.552C70.7198 116.552 70.3638 116.644 70.0518 116.828C69.7398 117.004 69.4958 117.256 69.3198 117.584C69.1438 117.904 69.0558 118.272 69.0558 118.688V118.88C69.0558 119.304 69.1518 119.684 69.3438 120.02C69.5438 120.348 69.8198 120.604 70.1718 120.788C70.5238 120.972 70.9278 121.064 71.3838 121.064C71.7598 121.064 72.0998 121 72.4038 120.872C72.7158 120.744 72.9878 120.552 73.2198 120.296L73.8558 121.04C73.5678 121.376 73.2078 121.632 72.7758 121.808C72.3518 121.984 71.8758 122.072 71.3478 122.072ZM83.0341 122V120.656L82.9741 120.404V118.112C82.9741 117.624 82.8301 117.248 82.5421 116.984C82.2621 116.712 81.8381 116.576 81.2701 116.576C80.8941 116.576 80.5261 116.64 80.1661 116.768C79.8061 116.888 79.5021 117.052 79.2541 117.26L78.7741 116.396C79.1021 116.132 79.4941 115.932 79.9501 115.796C80.4141 115.652 80.8981 115.58 81.4021 115.58C82.2741 115.58 82.9461 115.792 83.4181 116.216C83.8901 116.64 84.1261 117.288 84.1261 118.16V122H83.0341ZM80.9461 122.072C80.4741 122.072 80.0581 121.992 79.6981 121.832C79.3461 121.672 79.0741 121.452 78.8821 121.172C78.6901 120.884 78.5941 120.56 78.5941 120.2C78.5941 119.856 78.6741 119.544 78.8341 119.264C79.0021 118.984 79.2701 118.76 79.6381 118.592C80.0141 118.424 80.5181 118.34 81.1501 118.34H83.1661V119.168H81.1981C80.6221 119.168 80.2341 119.264 80.0341 119.456C79.8341 119.648 79.7341 119.88 79.7341 120.152C79.7341 120.464 79.8581 120.716 80.1061 120.908C80.3541 121.092 80.6981 121.184 81.1381 121.184C81.5701 121.184 81.9461 121.088 82.2661 120.896C82.5941 120.704 82.8301 120.424 82.9741 120.056L83.2021 120.848C83.0501 121.224 82.7821 121.524 82.3981 121.748C82.0141 121.964 81.5301 122.072 80.9461 122.072ZM92.8527 122.072C92.3247 122.072 91.8407 121.952 91.4007 121.712C90.9687 121.464 90.6207 121.1 90.3567 120.62C90.1007 120.14 89.9727 119.54 89.9727 118.82C89.9727 118.1 90.0967 117.5 90.3447 117.02C90.6007 116.54 90.9447 116.18 91.3767 115.94C91.8167 115.7 92.3087 115.58 92.8527 115.58C93.4767 115.58 94.0287 115.716 94.5087 115.988C94.9887 116.26 95.3687 116.64 95.6487 117.128C95.9287 117.608 96.0687 118.172 96.0687 118.82C96.0687 119.468 95.9287 120.036 95.6487 120.524C95.3687 121.012 94.9887 121.392 94.5087 121.664C94.0287 121.936 93.4767 122.072 92.8527 122.072ZM89.4807 124.328V115.64H90.5847V117.356L90.5127 118.832L90.6327 120.308V124.328H89.4807ZM92.7567 121.064C93.1647 121.064 93.5287 120.972 93.8487 120.788C94.1767 120.604 94.4327 120.344 94.6167 120.008C94.8087 119.664 94.9047 119.268 94.9047 118.82C94.9047 118.364 94.8087 117.972 94.6167 117.644C94.4327 117.308 94.1767 117.048 93.8487 116.864C93.5287 116.68 93.1647 116.588 92.7567 116.588C92.3567 116.588 91.9927 116.68 91.6647 116.864C91.3447 117.048 91.0887 117.308 90.8967 117.644C90.7127 117.972 90.6207 118.364 90.6207 118.82C90.6207 119.268 90.7127 119.664 90.8967 120.008C91.0887 120.344 91.3447 120.604 91.6647 120.788C91.9927 120.972 92.3567 121.064 92.7567 121.064ZM100.384 122.072C99.7444 122.072 99.1764 121.932 98.6804 121.652C98.1844 121.372 97.7924 120.988 97.5044 120.5C97.2164 120.004 97.0724 119.444 97.0724 118.82C97.0724 118.188 97.2164 117.628 97.5044 117.14C97.7924 116.652 98.1844 116.272 98.6804 116C99.1764 115.72 99.7444 115.58 100.384 115.58C101.016 115.58 101.58 115.72 102.076 116C102.58 116.272 102.972 116.652 103.252 117.14C103.54 117.62 103.684 118.18 103.684 118.82C103.684 119.452 103.54 120.012 103.252 120.5C102.972 120.988 102.58 121.372 102.076 121.652C101.58 121.932 101.016 122.072 100.384 122.072ZM100.384 121.064C100.792 121.064 101.156 120.972 101.476 120.788C101.804 120.604 102.06 120.344 102.244 120.008C102.428 119.664 102.52 119.268 102.52 118.82C102.52 118.364 102.428 117.972 102.244 117.644C102.06 117.308 101.804 117.048 101.476 116.864C101.156 116.68 100.792 116.588 100.384 116.588C99.9764 116.588 99.6124 116.68 99.2924 116.864C98.9724 117.048 98.7164 117.308 98.5244 117.644C98.3324 117.972 98.2364 118.364 98.2364 118.82C98.2364 119.268 98.3324 119.664 98.5244 120.008C98.7164 120.344 98.9724 120.604 99.2924 120.788C99.6124 120.972 99.9764 121.064 100.384 121.064ZM108.674 115.58C109.194 115.58 109.65 115.68 110.042 115.88C110.442 116.08 110.754 116.384 110.978 116.792C111.202 117.2 111.314 117.716 111.314 118.34V122H110.162V118.472C110.162 117.856 110.01 117.392 109.706 117.08C109.41 116.768 108.99 116.612 108.446 116.612C108.038 116.612 107.682 116.692 107.378 116.852C107.074 117.012 106.838 117.248 106.67 117.56C106.51 117.872 106.43 118.26 106.43 118.724V122H105.278V115.64H106.382V117.356L106.202 116.9C106.41 116.484 106.73 116.16 107.162 115.928C107.594 115.696 108.098 115.58 108.674 115.58ZM115.63 122.072C114.99 122.072 114.494 121.9 114.142 121.556C113.79 121.212 113.614 120.72 113.614 120.08V114.248H114.766V120.032C114.766 120.376 114.85 120.64 115.018 120.824C115.194 121.008 115.442 121.1 115.762 121.1C116.122 121.1 116.422 121 116.662 120.8L117.022 121.628C116.846 121.78 116.634 121.892 116.386 121.964C116.146 122.036 115.894 122.072 115.63 122.072ZM112.534 116.588V115.64H116.59V116.588H112.534ZM122.362 122V120.656L122.302 120.404V118.112C122.302 117.624 122.158 117.248 121.87 116.984C121.59 116.712 121.166 116.576 120.598 116.576C120.222 116.576 119.854 116.64 119.494 116.768C119.134 116.888 118.83 117.052 118.582 117.26L118.102 116.396C118.43 116.132 118.822 115.932 119.278 115.796C119.742 115.652 120.226 115.58 120.73 115.58C121.602 115.58 122.274 115.792 122.746 116.216C123.218 116.64 123.454 117.288 123.454 118.16V122H122.362ZM120.274 122.072C119.802 122.072 119.386 121.992 119.026 121.832C118.674 121.672 118.402 121.452 118.21 121.172C118.018 120.884 117.922 120.56 117.922 120.2C117.922 119.856 118.002 119.544 118.162 119.264C118.33 118.984 118.598 118.76 118.966 118.592C119.342 118.424 119.846 118.34 120.478 118.34H122.494V119.168H120.526C119.95 119.168 119.562 119.264 119.362 119.456C119.162 119.648 119.062 119.88 119.062 120.152C119.062 120.464 119.186 120.716 119.434 120.908C119.682 121.092 120.026 121.184 120.466 121.184C120.898 121.184 121.274 121.088 121.594 120.896C121.922 120.704 122.158 120.424 122.302 120.056L122.53 120.848C122.378 121.224 122.11 121.524 121.726 121.748C121.342 121.964 120.858 122.072 120.274 122.072ZM131.437 122.072C130.821 122.072 130.269 121.936 129.781 121.664C129.301 121.392 128.921 121.012 128.641 120.524C128.361 120.036 128.221 119.468 128.221 118.82C128.221 118.172 128.361 117.608 128.641 117.128C128.921 116.64 129.301 116.26 129.781 115.988C130.269 115.716 130.821 115.58 131.437 115.58C131.973 115.58 132.457 115.7 132.889 115.94C133.321 116.18 133.665 116.54 133.921 117.02C134.185 117.5 134.317 118.1 134.317 118.82C134.317 119.54 134.189 120.14 133.933 120.62C133.685 121.1 133.345 121.464 132.913 121.712C132.481 121.952 131.989 122.072 131.437 122.072ZM131.533 121.064C131.933 121.064 132.293 120.972 132.613 120.788C132.941 120.604 133.197 120.344 133.381 120.008C133.573 119.664 133.669 119.268 133.669 118.82C133.669 118.364 133.573 117.972 133.381 117.644C133.197 117.308 132.941 117.048 132.613 116.864C132.293 116.68 131.933 116.588 131.533 116.588C131.125 116.588 130.761 116.68 130.441 116.864C130.121 117.048 129.865 117.308 129.673 117.644C129.481 117.972 129.385 118.364 129.385 118.82C129.385 119.268 129.481 119.664 129.673 120.008C129.865 120.344 130.121 120.604 130.441 120.788C130.761 120.972 131.125 121.064 131.533 121.064ZM133.705 122V120.284L133.777 118.808L133.657 117.332V113.096H134.809V122H133.705ZM140.936 122V120.656L140.876 120.404V118.112C140.876 117.624 140.732 117.248 140.444 116.984C140.164 116.712 139.74 116.576 139.172 116.576C138.796 116.576 138.428 116.64 138.068 116.768C137.708 116.888 137.404 117.052 137.156 117.26L136.676 116.396C137.004 116.132 137.396 115.932 137.852 115.796C138.316 115.652 138.8 115.58 139.304 115.58C140.176 115.58 140.848 115.792 141.32 116.216C141.792 116.64 142.028 117.288 142.028 118.16V122H140.936ZM138.848 122.072C138.376 122.072 137.96 121.992 137.6 121.832C137.248 121.672 136.976 121.452 136.784 121.172C136.592 120.884 136.496 120.56 136.496 120.2C136.496 119.856 136.576 119.544 136.736 119.264C136.904 118.984 137.172 118.76 137.54 118.592C137.916 118.424 138.42 118.34 139.052 118.34H141.068V119.168H139.1C138.524 119.168 138.136 119.264 137.936 119.456C137.736 119.648 137.636 119.88 137.636 120.152C137.636 120.464 137.76 120.716 138.008 120.908C138.256 121.092 138.6 121.184 139.04 121.184C139.472 121.184 139.848 121.088 140.168 120.896C140.496 120.704 140.732 120.424 140.876 120.056L141.104 120.848C140.952 121.224 140.684 121.524 140.3 121.748C139.916 121.964 139.432 122.072 138.848 122.072ZM34.9011 137.072C34.2531 137.072 33.6731 136.932 33.1611 136.652C32.6571 136.372 32.2611 135.988 31.9731 135.5C31.6851 135.012 31.5411 134.452 31.5411 133.82C31.5411 133.188 31.6851 132.628 31.9731 132.14C32.2611 131.652 32.6571 131.272 33.1611 131C33.6731 130.72 34.2531 130.58 34.9011 130.58C35.4771 130.58 35.9891 130.696 36.4371 130.928C36.8931 131.152 37.2451 131.488 37.4931 131.936L36.6171 132.5C36.4091 132.188 36.1531 131.96 35.8491 131.816C35.5531 131.664 35.2331 131.588 34.8891 131.588C34.4731 131.588 34.1011 131.68 33.7731 131.864C33.4451 132.048 33.1851 132.308 32.9931 132.644C32.8011 132.972 32.7051 133.364 32.7051 133.82C32.7051 134.276 32.8011 134.672 32.9931 135.008C33.1851 135.344 33.4451 135.604 33.7731 135.788C34.1011 135.972 34.4731 136.064 34.8891 136.064C35.2331 136.064 35.5531 135.992 35.8491 135.848C36.1531 135.696 36.4091 135.464 36.6171 135.152L37.4931 135.704C37.2451 136.144 36.8931 136.484 36.4371 136.724C35.9891 136.956 35.4771 137.072 34.9011 137.072ZM42.9326 137V135.656L42.8726 135.404V133.112C42.8726 132.624 42.7286 132.248 42.4406 131.984C42.1606 131.712 41.7366 131.576 41.1686 131.576C40.7926 131.576 40.4246 131.64 40.0646 131.768C39.7046 131.888 39.4006 132.052 39.1526 132.26L38.6726 131.396C39.0006 131.132 39.3926 130.932 39.8486 130.796C40.3126 130.652 40.7966 130.58 41.3006 130.58C42.1726 130.58 42.8446 130.792 43.3166 131.216C43.7886 131.64 44.0246 132.288 44.0246 133.16V137H42.9326ZM40.8446 137.072C40.3726 137.072 39.9566 136.992 39.5966 136.832C39.2446 136.672 38.9726 136.452 38.7806 136.172C38.5886 135.884 38.4926 135.56 38.4926 135.2C38.4926 134.856 38.5726 134.544 38.7326 134.264C38.9006 133.984 39.1686 133.76 39.5366 133.592C39.9126 133.424 40.4166 133.34 41.0486 133.34H43.0646V134.168H41.0966C40.5206 134.168 40.1326 134.264 39.9326 134.456C39.7326 134.648 39.6326 134.88 39.6326 135.152C39.6326 135.464 39.7566 135.716 40.0046 135.908C40.2526 136.092 40.5966 136.184 41.0366 136.184C41.4686 136.184 41.8446 136.088 42.1646 135.896C42.4926 135.704 42.7286 135.424 42.8726 135.056L43.1006 135.848C42.9486 136.224 42.6806 136.524 42.2966 136.748C41.9126 136.964 41.4286 137.072 40.8446 137.072ZM49.5285 137.072C48.9845 137.072 48.4925 136.952 48.0525 136.712C47.6205 136.464 47.2765 136.1 47.0205 135.62C46.7725 135.14 46.6485 134.54 46.6485 133.82C46.6485 133.1 46.7765 132.5 47.0325 132.02C47.2965 131.54 47.6445 131.18 48.0765 130.94C48.5165 130.7 49.0005 130.58 49.5285 130.58C50.1525 130.58 50.7045 130.716 51.1845 130.988C51.6645 131.26 52.0445 131.64 52.3245 132.128C52.6045 132.608 52.7445 133.172 52.7445 133.82C52.7445 134.468 52.6045 135.036 52.3245 135.524C52.0445 136.012 51.6645 136.392 51.1845 136.664C50.7045 136.936 50.1525 137.072 49.5285 137.072ZM46.1565 137V128.096H47.3085V132.332L47.1885 133.808L47.2605 135.284V137H46.1565ZM49.4325 136.064C49.8405 136.064 50.2045 135.972 50.5245 135.788C50.8525 135.604 51.1085 135.344 51.2925 135.008C51.4845 134.664 51.5805 134.268 51.5805 133.82C51.5805 133.364 51.4845 132.972 51.2925 132.644C51.1085 132.308 50.8525 132.048 50.5245 131.864C50.2045 131.68 49.8405 131.588 49.4325 131.588C49.0325 131.588 48.6685 131.68 48.3405 131.864C48.0205 132.048 47.7645 132.308 47.5725 132.644C47.3885 132.972 47.2965 133.364 47.2965 133.82C47.2965 134.268 47.3885 134.664 47.5725 135.008C47.7645 135.344 48.0205 135.604 48.3405 135.788C48.6685 135.972 49.0325 136.064 49.4325 136.064ZM57.1681 137.072C56.4881 137.072 55.8881 136.932 55.3681 136.652C54.8561 136.372 54.4561 135.988 54.1681 135.5C53.8881 135.012 53.7481 134.452 53.7481 133.82C53.7481 133.188 53.8841 132.628 54.1561 132.14C54.4361 131.652 54.8161 131.272 55.2961 131C55.7841 130.72 56.3321 130.58 56.9401 130.58C57.5561 130.58 58.1001 130.716 58.5721 130.988C59.0441 131.26 59.4121 131.644 59.6761 132.14C59.9481 132.628 60.0841 133.2 60.0841 133.856C60.0841 133.904 60.0801 133.96 60.0721 134.024C60.0721 134.088 60.0681 134.148 60.0601 134.204H54.6481V133.376H59.4601L58.9921 133.664C59.0001 133.256 58.9161 132.892 58.7401 132.572C58.5641 132.252 58.3201 132.004 58.0081 131.828C57.7041 131.644 57.3481 131.552 56.9401 131.552C56.5401 131.552 56.1841 131.644 55.8721 131.828C55.5601 132.004 55.3161 132.256 55.1401 132.584C54.9641 132.904 54.8761 133.272 54.8761 133.688V133.88C54.8761 134.304 54.9721 134.684 55.1641 135.02C55.3641 135.348 55.6401 135.604 55.9921 135.788C56.3441 135.972 56.7481 136.064 57.2041 136.064C57.5801 136.064 57.9201 136 58.2241 135.872C58.5361 135.744 58.8081 135.552 59.0401 135.296L59.6761 136.04C59.3881 136.376 59.0281 136.632 58.5961 136.808C58.1721 136.984 57.6961 137.072 57.1681 137.072ZM64.4558 137.072C63.8078 137.072 63.2278 136.932 62.7158 136.652C62.2118 136.372 61.8158 135.988 61.5278 135.5C61.2398 135.012 61.0958 134.452 61.0958 133.82C61.0958 133.188 61.2398 132.628 61.5278 132.14C61.8158 131.652 62.2118 131.272 62.7158 131C63.2278 130.72 63.8078 130.58 64.4558 130.58C65.0318 130.58 65.5438 130.696 65.9918 130.928C66.4478 131.152 66.7998 131.488 67.0478 131.936L66.1718 132.5C65.9638 132.188 65.7078 131.96 65.4038 131.816C65.1078 131.664 64.7878 131.588 64.4438 131.588C64.0278 131.588 63.6558 131.68 63.3278 131.864C62.9998 132.048 62.7398 132.308 62.5478 132.644C62.3558 132.972 62.2598 133.364 62.2598 133.82C62.2598 134.276 62.3558 134.672 62.5478 135.008C62.7398 135.344 62.9998 135.604 63.3278 135.788C63.6558 135.972 64.0278 136.064 64.4438 136.064C64.7878 136.064 65.1078 135.992 65.4038 135.848C65.7078 135.696 65.9638 135.464 66.1718 135.152L67.0478 135.704C66.7998 136.144 66.4478 136.484 65.9918 136.724C65.5438 136.956 65.0318 137.072 64.4558 137.072ZM63.8918 139.688C63.6838 139.688 63.4918 139.664 63.3158 139.616C63.1398 139.576 62.9758 139.512 62.8238 139.424L63.0758 138.836C63.2038 138.908 63.3318 138.96 63.4598 138.992C63.5958 139.024 63.7398 139.04 63.8918 139.04C64.1238 139.04 64.2918 138.996 64.3958 138.908C64.5078 138.828 64.5638 138.712 64.5638 138.56C64.5638 138.416 64.5078 138.3 64.3958 138.212C64.2918 138.132 64.1198 138.092 63.8798 138.092H63.5558L63.8558 136.916H64.5158L64.3358 137.6C64.6798 137.632 64.9398 137.74 65.1158 137.924C65.2918 138.108 65.3798 138.332 65.3798 138.596C65.3798 138.932 65.2438 139.196 64.9718 139.388C64.6998 139.588 64.3398 139.688 63.8918 139.688ZM72.4873 137V135.656L72.4273 135.404V133.112C72.4273 132.624 72.2833 132.248 71.9953 131.984C71.7153 131.712 71.2913 131.576 70.7233 131.576C70.3473 131.576 69.9793 131.64 69.6193 131.768C69.2593 131.888 68.9553 132.052 68.7073 132.26L68.2273 131.396C68.5553 131.132 68.9473 130.932 69.4033 130.796C69.8673 130.652 70.3513 130.58 70.8553 130.58C71.7273 130.58 72.3993 130.792 72.8713 131.216C73.3433 131.64 73.5793 132.288 73.5793 133.16V137H72.4873ZM70.3993 137.072C69.9273 137.072 69.5113 136.992 69.1513 136.832C68.7993 136.672 68.5273 136.452 68.3353 136.172C68.1433 135.884 68.0473 135.56 68.0473 135.2C68.0473 134.856 68.1273 134.544 68.2873 134.264C68.4553 133.984 68.7233 133.76 69.0913 133.592C69.4673 133.424 69.9713 133.34 70.6033 133.34H72.6193V134.168H70.6513C70.0753 134.168 69.6873 134.264 69.4873 134.456C69.2873 134.648 69.1873 134.88 69.1873 135.152C69.1873 135.464 69.3113 135.716 69.5593 135.908C69.8073 136.092 70.1513 136.184 70.5913 136.184C71.0233 136.184 71.3993 136.088 71.7193 135.896C72.0473 135.704 72.2833 135.424 72.4273 135.056L72.6553 135.848C72.5033 136.224 72.2353 136.524 71.8513 136.748C71.4673 136.964 70.9833 137.072 70.3993 137.072ZM82.3058 137.072C81.7778 137.072 81.2938 136.952 80.8538 136.712C80.4218 136.464 80.0738 136.1 79.8098 135.62C79.5538 135.14 79.4258 134.54 79.4258 133.82C79.4258 133.1 79.5498 132.5 79.7978 132.02C80.0538 131.54 80.3978 131.18 80.8298 130.94C81.2698 130.7 81.7618 130.58 82.3058 130.58C82.9298 130.58 83.4818 130.716 83.9618 130.988C84.4418 131.26 84.8218 131.64 85.1018 132.128C85.3818 132.608 85.5218 133.172 85.5218 133.82C85.5218 134.468 85.3818 135.036 85.1018 135.524C84.8218 136.012 84.4418 136.392 83.9618 136.664C83.4818 136.936 82.9298 137.072 82.3058 137.072ZM78.9338 139.328V130.64H80.0378V132.356L79.9658 133.832L80.0858 135.308V139.328H78.9338ZM82.2098 136.064C82.6178 136.064 82.9818 135.972 83.3018 135.788C83.6298 135.604 83.8858 135.344 84.0698 135.008C84.2618 134.664 84.3578 134.268 84.3578 133.82C84.3578 133.364 84.2618 132.972 84.0698 132.644C83.8858 132.308 83.6298 132.048 83.3018 131.864C82.9818 131.68 82.6178 131.588 82.2098 131.588C81.8098 131.588 81.4458 131.68 81.1178 131.864C80.7978 132.048 80.5418 132.308 80.3498 132.644C80.1658 132.972 80.0738 133.364 80.0738 133.82C80.0738 134.268 80.1658 134.664 80.3498 135.008C80.5418 135.344 80.7978 135.604 81.1178 135.788C81.4458 135.972 81.8098 136.064 82.2098 136.064ZM91.0029 137V135.656L90.9429 135.404V133.112C90.9429 132.624 90.7989 132.248 90.5109 131.984C90.2309 131.712 89.8069 131.576 89.2389 131.576C88.8629 131.576 88.4949 131.64 88.1349 131.768C87.7749 131.888 87.4709 132.052 87.2229 132.26L86.7429 131.396C87.0709 131.132 87.4629 130.932 87.9189 130.796C88.3829 130.652 88.8669 130.58 89.3709 130.58C90.2429 130.58 90.9149 130.792 91.3869 131.216C91.8589 131.64 92.0949 132.288 92.0949 133.16V137H91.0029ZM88.9149 137.072C88.4429 137.072 88.0269 136.992 87.6669 136.832C87.3149 136.672 87.0429 136.452 86.8509 136.172C86.6589 135.884 86.5629 135.56 86.5629 135.2C86.5629 134.856 86.6429 134.544 86.8029 134.264C86.9709 133.984 87.2389 133.76 87.6069 133.592C87.9829 133.424 88.4869 133.34 89.1189 133.34H91.1349V134.168H89.1669C88.5909 134.168 88.2029 134.264 88.0029 134.456C87.8029 134.648 87.7029 134.88 87.7029 135.152C87.7029 135.464 87.8269 135.716 88.0749 135.908C88.3229 136.092 88.6669 136.184 89.1069 136.184C89.5389 136.184 89.9149 136.088 90.2349 135.896C90.5629 135.704 90.7989 135.424 90.9429 135.056L91.1709 135.848C91.0189 136.224 90.7509 136.524 90.3669 136.748C89.9829 136.964 89.4989 137.072 88.9149 137.072ZM94.2268 137V130.64H95.3308V132.368L95.2228 131.936C95.3988 131.496 95.6948 131.16 96.1108 130.928C96.5268 130.696 97.0388 130.58 97.6468 130.58V131.696C97.5988 131.688 97.5508 131.684 97.5028 131.684C97.4628 131.684 97.4228 131.684 97.3828 131.684C96.7668 131.684 96.2788 131.868 95.9188 132.236C95.5588 132.604 95.3788 133.136 95.3788 133.832V137H94.2268ZM102.546 137V135.656L102.486 135.404V133.112C102.486 132.624 102.342 132.248 102.054 131.984C101.774 131.712 101.35 131.576 100.782 131.576C100.406 131.576 100.038 131.64 99.6779 131.768C99.3179 131.888 99.0139 132.052 98.7659 132.26L98.2859 131.396C98.6139 131.132 99.0059 130.932 99.4619 130.796C99.9259 130.652 100.41 130.58 100.914 130.58C101.786 130.58 102.458 130.792 102.93 131.216C103.402 131.64 103.638 132.288 103.638 133.16V137H102.546ZM100.458 137.072C99.9859 137.072 99.5699 136.992 99.2099 136.832C98.8579 136.672 98.5859 136.452 98.3939 136.172C98.2019 135.884 98.1059 135.56 98.1059 135.2C98.1059 134.856 98.1859 134.544 98.3459 134.264C98.5139 133.984 98.7819 133.76 99.1499 133.592C99.5259 133.424 100.03 133.34 100.662 133.34H102.678V134.168H100.71C100.134 134.168 99.7459 134.264 99.5459 134.456C99.3459 134.648 99.2459 134.88 99.2459 135.152C99.2459 135.464 99.3699 135.716 99.6179 135.908C99.8659 136.092 100.21 136.184 100.65 136.184C101.082 136.184 101.458 136.088 101.778 135.896C102.106 135.704 102.342 135.424 102.486 135.056L102.714 135.848C102.562 136.224 102.294 136.524 101.91 136.748C101.526 136.964 101.042 137.072 100.458 137.072ZM111.62 137.072C111.004 137.072 110.452 136.936 109.964 136.664C109.484 136.392 109.104 136.012 108.824 135.524C108.544 135.036 108.404 134.468 108.404 133.82C108.404 133.172 108.544 132.608 108.824 132.128C109.104 131.64 109.484 131.26 109.964 130.988C110.452 130.716 111.004 130.58 111.62 130.58C112.156 130.58 112.64 130.7 113.072 130.94C113.504 131.18 113.848 131.54 114.104 132.02C114.368 132.5 114.5 133.1 114.5 133.82C114.5 134.54 114.372 135.14 114.116 135.62C113.868 136.1 113.528 136.464 113.096 136.712C112.664 136.952 112.172 137.072 111.62 137.072ZM111.716 136.064C112.116 136.064 112.476 135.972 112.796 135.788C113.124 135.604 113.38 135.344 113.564 135.008C113.756 134.664 113.852 134.268 113.852 133.82C113.852 133.364 113.756 132.972 113.564 132.644C113.38 132.308 113.124 132.048 112.796 131.864C112.476 131.68 112.116 131.588 111.716 131.588C111.308 131.588 110.944 131.68 110.624 131.864C110.304 132.048 110.048 132.308 109.856 132.644C109.664 132.972 109.568 133.364 109.568 133.82C109.568 134.268 109.664 134.664 109.856 135.008C110.048 135.344 110.304 135.604 110.624 135.788C110.944 135.972 111.308 136.064 111.716 136.064ZM113.888 137V135.284L113.96 133.808L113.84 132.332V128.096H114.992V137H113.888ZM120.004 137.072C119.324 137.072 118.724 136.932 118.204 136.652C117.692 136.372 117.292 135.988 117.004 135.5C116.724 135.012 116.584 134.452 116.584 133.82C116.584 133.188 116.72 132.628 116.992 132.14C117.272 131.652 117.652 131.272 118.132 131C118.62 130.72 119.168 130.58 119.776 130.58C120.392 130.58 120.936 130.716 121.408 130.988C121.88 131.26 122.248 131.644 122.512 132.14C122.784 132.628 122.92 133.2 122.92 133.856C122.92 133.904 122.916 133.96 122.908 134.024C122.908 134.088 122.904 134.148 122.896 134.204H117.484V133.376H122.296L121.828 133.664C121.836 133.256 121.752 132.892 121.576 132.572C121.4 132.252 121.156 132.004 120.844 131.828C120.54 131.644 120.184 131.552 119.776 131.552C119.376 131.552 119.02 131.644 118.708 131.828C118.396 132.004 118.152 132.256 117.976 132.584C117.8 132.904 117.712 133.272 117.712 133.688V133.88C117.712 134.304 117.808 134.684 118 135.02C118.2 135.348 118.476 135.604 118.828 135.788C119.18 135.972 119.584 136.064 120.04 136.064C120.416 136.064 120.756 136 121.06 135.872C121.372 135.744 121.644 135.552 121.876 135.296L122.512 136.04C122.224 136.376 121.864 136.632 121.432 136.808C121.008 136.984 120.532 137.072 120.004 137.072ZM127.916 130.58C128.436 130.58 128.892 130.68 129.284 130.88C129.684 131.08 129.996 131.384 130.22 131.792C130.444 132.2 130.556 132.716 130.556 133.34V137H129.404V133.472C129.404 132.856 129.252 132.392 128.948 132.08C128.652 131.768 128.232 131.612 127.688 131.612C127.28 131.612 126.924 131.692 126.62 131.852C126.316 132.012 126.08 132.248 125.912 132.56C125.752 132.872 125.672 133.26 125.672 133.724V137H124.52V130.64H125.624V132.356L125.444 131.9C125.652 131.484 125.972 131.16 126.404 130.928C126.836 130.696 127.34 130.58 127.916 130.58ZM134.872 137.072C134.232 137.072 133.736 136.9 133.384 136.556C133.032 136.212 132.856 135.72 132.856 135.08V129.248H134.008V135.032C134.008 135.376 134.092 135.64 134.26 135.824C134.436 136.008 134.684 136.1 135.004 136.1C135.364 136.1 135.664 136 135.904 135.8L136.264 136.628C136.088 136.78 135.876 136.892 135.628 136.964C135.388 137.036 135.136 137.072 134.872 137.072ZM131.776 131.588V130.64H135.832V131.588H131.776ZM137.656 137V130.64H138.76V132.368L138.652 131.936C138.828 131.496 139.124 131.16 139.54 130.928C139.956 130.696 140.468 130.58 141.076 130.58V131.696C141.028 131.688 140.98 131.684 140.932 131.684C140.892 131.684 140.852 131.684 140.812 131.684C140.196 131.684 139.708 131.868 139.348 132.236C138.988 132.604 138.808 133.136 138.808 133.832V137H137.656ZM145.162 137.072C144.522 137.072 143.954 136.932 143.458 136.652C142.962 136.372 142.57 135.988 142.282 135.5C141.994 135.004 141.85 134.444 141.85 133.82C141.85 133.188 141.994 132.628 142.282 132.14C142.57 131.652 142.962 131.272 143.458 131C143.954 130.72 144.522 130.58 145.162 130.58C145.794 130.58 146.358 130.72 146.854 131C147.358 131.272 147.75 131.652 148.03 132.14C148.318 132.62 148.462 133.18 148.462 133.82C148.462 134.452 148.318 135.012 148.03 135.5C147.75 135.988 147.358 136.372 146.854 136.652C146.358 136.932 145.794 137.072 145.162 137.072ZM145.162 136.064C145.57 136.064 145.934 135.972 146.254 135.788C146.582 135.604 146.838 135.344 147.022 135.008C147.206 134.664 147.298 134.268 147.298 133.82C147.298 133.364 147.206 132.972 147.022 132.644C146.838 132.308 146.582 132.048 146.254 131.864C145.934 131.68 145.57 131.588 145.162 131.588C144.754 131.588 144.39 131.68 144.07 131.864C143.75 132.048 143.494 132.308 143.302 132.644C143.11 132.972 143.014 133.364 143.014 133.82C143.014 134.268 143.11 134.664 143.302 135.008C143.494 135.344 143.75 135.604 144.07 135.788C144.39 135.972 144.754 136.064 145.162 136.064ZM28.2179 152.072C27.6899 152.072 27.2059 151.952 26.7659 151.712C26.3339 151.464 25.9859 151.1 25.7219 150.62C25.4659 150.14 25.3379 149.54 25.3379 148.82C25.3379 148.1 25.4619 147.5 25.7099 147.02C25.9659 146.54 26.3099 146.18 26.7419 145.94C27.1819 145.7 27.6739 145.58 28.2179 145.58C28.8419 145.58 29.3939 145.716 29.8739 145.988C30.3539 146.26 30.7339 146.64 31.0139 147.128C31.2939 147.608 31.4339 148.172 31.4339 148.82C31.4339 149.468 31.2939 150.036 31.0139 150.524C30.7339 151.012 30.3539 151.392 29.8739 151.664C29.3939 151.936 28.8419 152.072 28.2179 152.072ZM24.8459 154.328V145.64H25.9499V147.356L25.8779 148.832L25.9979 150.308V154.328H24.8459ZM28.1219 151.064C28.5299 151.064 28.8939 150.972 29.2139 150.788C29.5419 150.604 29.7979 150.344 29.9819 150.008C30.1739 149.664 30.2699 149.268 30.2699 148.82C30.2699 148.364 30.1739 147.972 29.9819 147.644C29.7979 147.308 29.5419 147.048 29.2139 146.864C28.8939 146.68 28.5299 146.588 28.1219 146.588C27.7219 146.588 27.3579 146.68 27.0299 146.864C26.7099 147.048 26.4539 147.308 26.2619 147.644C26.0779 147.972 25.9859 148.364 25.9859 148.82C25.9859 149.268 26.0779 149.664 26.2619 150.008C26.4539 150.344 26.7099 150.604 27.0299 150.788C27.3579 150.972 27.7219 151.064 28.1219 151.064ZM36.915 152V150.656L36.855 150.404V148.112C36.855 147.624 36.711 147.248 36.423 146.984C36.143 146.712 35.719 146.576 35.151 146.576C34.775 146.576 34.407 146.64 34.047 146.768C33.687 146.888 33.383 147.052 33.135 147.26L32.655 146.396C32.983 146.132 33.375 145.932 33.831 145.796C34.295 145.652 34.779 145.58 35.283 145.58C36.155 145.58 36.827 145.792 37.299 146.216C37.771 146.64 38.007 147.288 38.007 148.16V152H36.915ZM34.827 152.072C34.355 152.072 33.939 151.992 33.579 151.832C33.227 151.672 32.955 151.452 32.763 151.172C32.571 150.884 32.475 150.56 32.475 150.2C32.475 149.856 32.555 149.544 32.715 149.264C32.883 148.984 33.151 148.76 33.519 148.592C33.895 148.424 34.399 148.34 35.031 148.34H37.047V149.168H35.079C34.503 149.168 34.115 149.264 33.915 149.456C33.715 149.648 33.615 149.88 33.615 150.152C33.615 150.464 33.739 150.716 33.987 150.908C34.235 151.092 34.579 151.184 35.019 151.184C35.451 151.184 35.827 151.088 36.147 150.896C36.475 150.704 36.711 150.424 36.855 150.056L37.083 150.848C36.931 151.224 36.663 151.524 36.279 151.748C35.895 151.964 35.411 152.072 34.827 152.072ZM40.1389 152V145.64H41.2429V147.368L41.1349 146.936C41.3109 146.496 41.6069 146.16 42.0229 145.928C42.4389 145.696 42.9509 145.58 43.5589 145.58V146.696C43.5109 146.688 43.4629 146.684 43.4149 146.684C43.3749 146.684 43.3349 146.684 43.2949 146.684C42.6789 146.684 42.1909 146.868 41.8309 147.236C41.4709 147.604 41.2909 148.136 41.2909 148.832V152H40.1389ZM48.458 152V150.656L48.398 150.404V148.112C48.398 147.624 48.254 147.248 47.966 146.984C47.686 146.712 47.262 146.576 46.694 146.576C46.318 146.576 45.95 146.64 45.59 146.768C45.23 146.888 44.926 147.052 44.678 147.26L44.198 146.396C44.526 146.132 44.918 145.932 45.374 145.796C45.838 145.652 46.322 145.58 46.826 145.58C47.698 145.58 48.37 145.792 48.842 146.216C49.314 146.64 49.55 147.288 49.55 148.16V152H48.458ZM46.37 152.072C45.898 152.072 45.482 151.992 45.122 151.832C44.77 151.672 44.498 151.452 44.306 151.172C44.114 150.884 44.018 150.56 44.018 150.2C44.018 149.856 44.098 149.544 44.258 149.264C44.426 148.984 44.694 148.76 45.062 148.592C45.438 148.424 45.942 148.34 46.574 148.34H48.59V149.168H46.622C46.046 149.168 45.658 149.264 45.458 149.456C45.258 149.648 45.158 149.88 45.158 150.152C45.158 150.464 45.282 150.716 45.53 150.908C45.778 151.092 46.122 151.184 46.562 151.184C46.994 151.184 47.37 151.088 47.69 150.896C48.018 150.704 48.254 150.424 48.398 150.056L48.626 150.848C48.474 151.224 48.206 151.524 47.822 151.748C47.438 151.964 46.954 152.072 46.37 152.072ZM57.5325 152.072C56.9165 152.072 56.3645 151.936 55.8765 151.664C55.3965 151.392 55.0165 151.012 54.7365 150.524C54.4565 150.036 54.3165 149.468 54.3165 148.82C54.3165 148.172 54.4565 147.608 54.7365 147.128C55.0165 146.64 55.3965 146.26 55.8765 145.988C56.3645 145.716 56.9165 145.58 57.5325 145.58C58.0685 145.58 58.5525 145.7 58.9845 145.94C59.4165 146.18 59.7605 146.54 60.0165 147.02C60.2805 147.5 60.4125 148.1 60.4125 148.82C60.4125 149.54 60.2845 150.14 60.0285 150.62C59.7805 151.1 59.4405 151.464 59.0085 151.712C58.5765 151.952 58.0845 152.072 57.5325 152.072ZM57.6285 151.064C58.0285 151.064 58.3885 150.972 58.7085 150.788C59.0365 150.604 59.2925 150.344 59.4765 150.008C59.6685 149.664 59.7645 149.268 59.7645 148.82C59.7645 148.364 59.6685 147.972 59.4765 147.644C59.2925 147.308 59.0365 147.048 58.7085 146.864C58.3885 146.68 58.0285 146.588 57.6285 146.588C57.2205 146.588 56.8565 146.68 56.5365 146.864C56.2165 147.048 55.9605 147.308 55.7685 147.644C55.5765 147.972 55.4805 148.364 55.4805 148.82C55.4805 149.268 55.5765 149.664 55.7685 150.008C55.9605 150.344 56.2165 150.604 56.5365 150.788C56.8565 150.972 57.2205 151.064 57.6285 151.064ZM59.8005 152V150.284L59.8725 148.808L59.7525 147.332V143.096H60.9045V152H59.8005ZM65.9162 152.072C65.2362 152.072 64.6362 151.932 64.1162 151.652C63.6042 151.372 63.2042 150.988 62.9162 150.5C62.6362 150.012 62.4962 149.452 62.4962 148.82C62.4962 148.188 62.6322 147.628 62.9042 147.14C63.1842 146.652 63.5642 146.272 64.0442 146C64.5322 145.72 65.0802 145.58 65.6882 145.58C66.3042 145.58 66.8482 145.716 67.3202 145.988C67.7922 146.26 68.1602 146.644 68.4242 147.14C68.6962 147.628 68.8322 148.2 68.8322 148.856C68.8322 148.904 68.8282 148.96 68.8202 149.024C68.8202 149.088 68.8162 149.148 68.8082 149.204H63.3962V148.376H68.2082L67.7402 148.664C67.7482 148.256 67.6642 147.892 67.4882 147.572C67.3122 147.252 67.0682 147.004 66.7562 146.828C66.4522 146.644 66.0962 146.552 65.6882 146.552C65.2882 146.552 64.9322 146.644 64.6202 146.828C64.3082 147.004 64.0642 147.256 63.8882 147.584C63.7122 147.904 63.6242 148.272 63.6242 148.688V148.88C63.6242 149.304 63.7202 149.684 63.9122 150.02C64.1122 150.348 64.3882 150.604 64.7402 150.788C65.0922 150.972 65.4962 151.064 65.9522 151.064C66.3282 151.064 66.6682 151 66.9722 150.872C67.2842 150.744 67.5562 150.552 67.7882 150.296L68.4242 151.04C68.1362 151.376 67.7762 151.632 67.3442 151.808C66.9202 151.984 66.4442 152.072 65.9162 152.072ZM70.5998 152V145.076C70.5998 144.452 70.7798 143.956 71.1398 143.588C71.5078 143.212 72.0278 143.024 72.6998 143.024C72.9478 143.024 73.1838 143.056 73.4078 143.12C73.6398 143.176 73.8358 143.268 73.9958 143.396L73.6478 144.272C73.5278 144.176 73.3918 144.104 73.2398 144.056C73.0878 144 72.9278 143.972 72.7598 143.972C72.4238 143.972 72.1678 144.068 71.9918 144.26C71.8158 144.444 71.7278 144.72 71.7278 145.088V145.94L71.7518 146.468V152H70.5998ZM69.5198 146.588V145.64H73.5758V146.588H69.5198ZM74.6678 152V145.64H75.8198V152H74.6678ZM75.2438 144.416C75.0198 144.416 74.8318 144.344 74.6798 144.2C74.5358 144.056 74.4638 143.88 74.4638 143.672C74.4638 143.456 74.5358 143.276 74.6798 143.132C74.8318 142.988 75.0198 142.916 75.2438 142.916C75.4678 142.916 75.6518 142.988 75.7958 143.132C75.9478 143.268 76.0238 143.44 76.0238 143.648C76.0238 143.864 75.9518 144.048 75.8078 144.2C75.6638 144.344 75.4758 144.416 75.2438 144.416ZM81.4099 145.58C81.9299 145.58 82.3859 145.68 82.7779 145.88C83.1779 146.08 83.4899 146.384 83.7139 146.792C83.9379 147.2 84.0499 147.716 84.0499 148.34V152H82.8979V148.472C82.8979 147.856 82.7459 147.392 82.4419 147.08C82.1459 146.768 81.7259 146.612 81.1819 146.612C80.7739 146.612 80.4179 146.692 80.1139 146.852C79.8099 147.012 79.5739 147.248 79.4059 147.56C79.2459 147.872 79.1659 148.26 79.1659 148.724V152H78.0139V145.64H79.1179V147.356L78.9379 146.9C79.1459 146.484 79.4659 146.16 79.8979 145.928C80.3299 145.696 80.8339 145.58 81.4099 145.58ZM86.1818 152V145.64H87.3338V152H86.1818ZM86.7578 144.416C86.5338 144.416 86.3458 144.344 86.1938 144.2C86.0498 144.056 85.9778 143.88 85.9778 143.672C85.9778 143.456 86.0498 143.276 86.1938 143.132C86.3458 142.988 86.5338 142.916 86.7578 142.916C86.9818 142.916 87.1658 142.988 87.3098 143.132C87.4618 143.268 87.5378 143.44 87.5378 143.648C87.5378 143.864 87.4658 144.048 87.3218 144.2C87.1778 144.344 86.9898 144.416 86.7578 144.416ZM89.5334 152V145.64H90.6374V147.368L90.5294 146.936C90.7054 146.496 91.0014 146.16 91.4174 145.928C91.8334 145.696 92.3454 145.58 92.9534 145.58V146.696C92.9054 146.688 92.8574 146.684 92.8094 146.684C92.7694 146.684 92.7294 146.684 92.6894 146.684C92.0734 146.684 91.5854 146.868 91.2254 147.236C90.8654 147.604 90.6854 148.136 90.6854 148.832V152H89.5334ZM100.402 152.072C99.7619 152.072 99.1939 151.932 98.6979 151.652C98.2019 151.372 97.8099 150.988 97.5219 150.5C97.2339 150.004 97.0899 149.444 97.0899 148.82C97.0899 148.188 97.2339 147.628 97.5219 147.14C97.8099 146.652 98.2019 146.272 98.6979 146C99.1939 145.72 99.7619 145.58 100.402 145.58C101.034 145.58 101.598 145.72 102.094 146C102.598 146.272 102.99 146.652 103.27 147.14C103.558 147.62 103.702 148.18 103.702 148.82C103.702 149.452 103.558 150.012 103.27 150.5C102.99 150.988 102.598 151.372 102.094 151.652C101.598 151.932 101.034 152.072 100.402 152.072ZM100.402 151.064C100.81 151.064 101.174 150.972 101.494 150.788C101.822 150.604 102.078 150.344 102.262 150.008C102.446 149.664 102.538 149.268 102.538 148.82C102.538 148.364 102.446 147.972 102.262 147.644C102.078 147.308 101.822 147.048 101.494 146.864C101.174 146.68 100.81 146.588 100.402 146.588C99.9939 146.588 99.6299 146.68 99.3099 146.864C98.9899 147.048 98.7339 147.308 98.5419 147.644C98.3499 147.972 98.2539 148.364 98.2539 148.82C98.2539 149.268 98.3499 149.664 98.5419 150.008C98.7339 150.344 98.9899 150.604 99.3099 150.788C99.6299 150.972 99.9939 151.064 100.402 151.064ZM108.686 152V145.076C108.686 144.452 108.866 143.956 109.226 143.588C109.594 143.212 110.114 143.024 110.786 143.024C111.034 143.024 111.27 143.056 111.494 143.12C111.726 143.176 111.922 143.268 112.082 143.396L111.734 144.272C111.614 144.176 111.478 144.104 111.326 144.056C111.174 144 111.014 143.972 110.846 143.972C110.51 143.972 110.254 144.068 110.078 144.26C109.902 144.444 109.814 144.72 109.814 145.088V145.94L109.838 146.468V152H108.686ZM107.606 146.588V145.64H111.662V146.588H107.606ZM115.379 152.072C114.739 152.072 114.171 151.932 113.675 151.652C113.179 151.372 112.787 150.988 112.499 150.5C112.211 150.004 112.067 149.444 112.067 148.82C112.067 148.188 112.211 147.628 112.499 147.14C112.787 146.652 113.179 146.272 113.675 146C114.171 145.72 114.739 145.58 115.379 145.58C116.011 145.58 116.575 145.72 117.071 146C117.575 146.272 117.967 146.652 118.247 147.14C118.535 147.62 118.679 148.18 118.679 148.82C118.679 149.452 118.535 150.012 118.247 150.5C117.967 150.988 117.575 151.372 117.071 151.652C116.575 151.932 116.011 152.072 115.379 152.072ZM115.379 151.064C115.787 151.064 116.151 150.972 116.471 150.788C116.799 150.604 117.055 150.344 117.239 150.008C117.423 149.664 117.515 149.268 117.515 148.82C117.515 148.364 117.423 147.972 117.239 147.644C117.055 147.308 116.799 147.048 116.471 146.864C116.151 146.68 115.787 146.588 115.379 146.588C114.971 146.588 114.607 146.68 114.287 146.864C113.967 147.048 113.711 147.308 113.519 147.644C113.327 147.972 113.231 148.364 113.231 148.82C113.231 149.268 113.327 149.664 113.519 150.008C113.711 150.344 113.967 150.604 114.287 150.788C114.607 150.972 114.971 151.064 115.379 151.064ZM120.272 152V145.64H121.376V147.368L121.268 146.936C121.444 146.496 121.74 146.16 122.156 145.928C122.572 145.696 123.084 145.58 123.692 145.58V146.696C123.644 146.688 123.596 146.684 123.548 146.684C123.508 146.684 123.468 146.684 123.428 146.684C122.812 146.684 122.324 146.868 121.964 147.236C121.604 147.604 121.424 148.136 121.424 148.832V152H120.272ZM133.068 145.58C133.58 145.58 134.032 145.68 134.424 145.88C134.816 146.08 135.12 146.384 135.336 146.792C135.56 147.2 135.672 147.716 135.672 148.34V152H134.52V148.472C134.52 147.856 134.376 147.392 134.088 147.08C133.8 146.768 133.396 146.612 132.876 146.612C132.492 146.612 132.156 146.692 131.868 146.852C131.58 147.012 131.356 147.248 131.196 147.56C131.044 147.872 130.968 148.26 130.968 148.724V152H129.816V148.472C129.816 147.856 129.672 147.392 129.384 147.08C129.104 146.768 128.7 146.612 128.172 146.612C127.796 146.612 127.464 146.692 127.176 146.852C126.888 147.012 126.664 147.248 126.504 147.56C126.344 147.872 126.264 148.26 126.264 148.724V152H125.112V145.64H126.216V147.332L126.036 146.9C126.236 146.484 126.544 146.16 126.96 145.928C127.376 145.696 127.86 145.58 128.412 145.58C129.02 145.58 129.544 145.732 129.984 146.036C130.424 146.332 130.712 146.784 130.848 147.392L130.38 147.2C130.572 146.712 130.908 146.32 131.388 146.024C131.868 145.728 132.428 145.58 133.068 145.58ZM141.739 152V150.656L141.679 150.404V148.112C141.679 147.624 141.535 147.248 141.247 146.984C140.967 146.712 140.543 146.576 139.975 146.576C139.599 146.576 139.231 146.64 138.871 146.768C138.511 146.888 138.207 147.052 137.959 147.26L137.479 146.396C137.807 146.132 138.199 145.932 138.655 145.796C139.119 145.652 139.603 145.58 140.107 145.58C140.979 145.58 141.651 145.792 142.123 146.216C142.595 146.64 142.831 147.288 142.831 148.16V152H141.739ZM139.651 152.072C139.179 152.072 138.763 151.992 138.403 151.832C138.051 151.672 137.779 151.452 137.587 151.172C137.395 150.884 137.299 150.56 137.299 150.2C137.299 149.856 137.379 149.544 137.539 149.264C137.707 148.984 137.975 148.76 138.343 148.592C138.719 148.424 139.223 148.34 139.855 148.34H141.871V149.168H139.903C139.327 149.168 138.939 149.264 138.739 149.456C138.539 149.648 138.439 149.88 138.439 150.152C138.439 150.464 138.563 150.716 138.811 150.908C139.059 151.092 139.403 151.184 139.843 151.184C140.275 151.184 140.651 151.088 140.971 150.896C141.299 150.704 141.535 150.424 141.679 150.056L141.907 150.848C141.755 151.224 141.487 151.524 141.103 151.748C140.719 151.964 140.235 152.072 139.651 152.072ZM147.147 152.072C146.507 152.072 146.011 151.9 145.659 151.556C145.307 151.212 145.131 150.72 145.131 150.08V144.248H146.283V150.032C146.283 150.376 146.367 150.64 146.535 150.824C146.711 151.008 146.959 151.1 147.279 151.1C147.639 151.1 147.939 151 148.179 150.8L148.539 151.628C148.363 151.78 148.151 151.892 147.903 151.964C147.663 152.036 147.411 152.072 147.147 152.072ZM144.051 146.588V145.64H148.107V146.588H144.051ZM152.445 152.072C151.805 152.072 151.237 151.932 150.741 151.652C150.245 151.372 149.853 150.988 149.565 150.5C149.277 150.004 149.133 149.444 149.133 148.82C149.133 148.188 149.277 147.628 149.565 147.14C149.853 146.652 150.245 146.272 150.741 146C151.237 145.72 151.805 145.58 152.445 145.58C153.077 145.58 153.641 145.72 154.137 146C154.641 146.272 155.033 146.652 155.313 147.14C155.601 147.62 155.745 148.18 155.745 148.82C155.745 149.452 155.601 150.012 155.313 150.5C155.033 150.988 154.641 151.372 154.137 151.652C153.641 151.932 153.077 152.072 152.445 152.072ZM152.445 151.064C152.853 151.064 153.217 150.972 153.537 150.788C153.865 150.604 154.121 150.344 154.305 150.008C154.489 149.664 154.581 149.268 154.581 148.82C154.581 148.364 154.489 147.972 154.305 147.644C154.121 147.308 153.865 147.048 153.537 146.864C153.217 146.68 152.853 146.588 152.445 146.588C152.037 146.588 151.673 146.68 151.353 146.864C151.033 147.048 150.777 147.308 150.585 147.644C150.393 147.972 150.297 148.364 150.297 148.82C150.297 149.268 150.393 149.664 150.585 150.008C150.777 150.344 151.033 150.604 151.353 150.788C151.673 150.972 152.037 151.064 152.445 151.064ZM65.3079 167.072C64.6919 167.072 64.1399 166.936 63.6519 166.664C63.1719 166.392 62.7919 166.012 62.5119 165.524C62.2319 165.036 62.0919 164.468 62.0919 163.82C62.0919 163.172 62.2319 162.608 62.5119 162.128C62.7919 161.64 63.1719 161.26 63.6519 160.988C64.1399 160.716 64.6919 160.58 65.3079 160.58C65.8439 160.58 66.3279 160.7 66.7599 160.94C67.1919 161.18 67.5359 161.54 67.7919 162.02C68.0559 162.5 68.1879 163.1 68.1879 163.82C68.1879 164.54 68.0599 165.14 67.8039 165.62C67.5559 166.1 67.2159 166.464 66.7839 166.712C66.3519 166.952 65.8599 167.072 65.3079 167.072ZM65.4039 166.064C65.8039 166.064 66.1639 165.972 66.4839 165.788C66.8119 165.604 67.0679 165.344 67.2519 165.008C67.4439 164.664 67.5399 164.268 67.5399 163.82C67.5399 163.364 67.4439 162.972 67.2519 162.644C67.0679 162.308 66.8119 162.048 66.4839 161.864C66.1639 161.68 65.8039 161.588 65.4039 161.588C64.9959 161.588 64.6319 161.68 64.3119 161.864C63.9919 162.048 63.7359 162.308 63.5439 162.644C63.3519 162.972 63.2559 163.364 63.2559 163.82C63.2559 164.268 63.3519 164.664 63.5439 165.008C63.7359 165.344 63.9919 165.604 64.3119 165.788C64.6319 165.972 64.9959 166.064 65.4039 166.064ZM67.5759 167V165.284L67.6479 163.808L67.5279 162.332V158.096H68.6799V167H67.5759ZM74.8076 167V165.656L74.7476 165.404V163.112C74.7476 162.624 74.6036 162.248 74.3156 161.984C74.0356 161.712 73.6116 161.576 73.0436 161.576C72.6676 161.576 72.2996 161.64 71.9396 161.768C71.5796 161.888 71.2756 162.052 71.0276 162.26L70.5476 161.396C70.8756 161.132 71.2676 160.932 71.7236 160.796C72.1876 160.652 72.6716 160.58 73.1756 160.58C74.0476 160.58 74.7196 160.792 75.1916 161.216C75.6636 161.64 75.8996 162.288 75.8996 163.16V167H74.8076ZM72.7196 167.072C72.2476 167.072 71.8316 166.992 71.4716 166.832C71.1196 166.672 70.8476 166.452 70.6556 166.172C70.4636 165.884 70.3676 165.56 70.3676 165.2C70.3676 164.856 70.4476 164.544 70.6076 164.264C70.7756 163.984 71.0436 163.76 71.4116 163.592C71.7876 163.424 72.2916 163.34 72.9236 163.34H74.9396V164.168H72.9716C72.3956 164.168 72.0076 164.264 71.8076 164.456C71.6076 164.648 71.5076 164.88 71.5076 165.152C71.5076 165.464 71.6316 165.716 71.8796 165.908C72.1276 166.092 72.4716 166.184 72.9116 166.184C73.3436 166.184 73.7196 166.088 74.0396 165.896C74.3676 165.704 74.6036 165.424 74.7476 165.056L74.9756 165.848C74.8236 166.224 74.5556 166.524 74.1716 166.748C73.7876 166.964 73.3036 167.072 72.7196 167.072ZM81.4221 167V160.076C81.4221 159.452 81.6021 158.956 81.9621 158.588C82.3301 158.212 82.8501 158.024 83.5221 158.024C83.7701 158.024 84.0061 158.056 84.2301 158.12C84.4621 158.176 84.6581 158.268 84.8181 158.396L84.4701 159.272C84.3501 159.176 84.2141 159.104 84.0621 159.056C83.9101 159 83.7501 158.972 83.5821 158.972C83.2461 158.972 82.9901 159.068 82.8141 159.26C82.6381 159.444 82.5501 159.72 82.5501 160.088V160.94L82.5741 161.468V167H81.4221ZM80.3421 161.588V160.64H84.3981V161.588H80.3421ZM85.4901 167V160.64H86.6421V167H85.4901ZM86.0661 159.416C85.8421 159.416 85.6541 159.344 85.5021 159.2C85.3581 159.056 85.2861 158.88 85.2861 158.672C85.2861 158.456 85.3581 158.276 85.5021 158.132C85.6541 157.988 85.8421 157.916 86.0661 157.916C86.2901 157.916 86.4741 157.988 86.6181 158.132C86.7701 158.268 86.8461 158.44 86.8461 158.648C86.8461 158.864 86.7741 159.048 86.6301 159.2C86.4861 159.344 86.2981 159.416 86.0661 159.416ZM91.6201 169.4C91.0361 169.4 90.4681 169.316 89.9161 169.148C89.3721 168.988 88.9281 168.756 88.5841 168.452L89.1361 167.564C89.4321 167.82 89.7961 168.02 90.2281 168.164C90.6601 168.316 91.1121 168.392 91.5841 168.392C92.3361 168.392 92.8881 168.216 93.2401 167.864C93.5921 167.512 93.7681 166.976 93.7681 166.256V164.912L93.8881 163.652L93.8281 162.38V160.64H94.9201V166.136C94.9201 167.256 94.6401 168.08 94.0801 168.608C93.5201 169.136 92.7001 169.4 91.6201 169.4ZM91.4761 166.736C90.8601 166.736 90.3081 166.608 89.8201 166.352C89.3401 166.088 88.9561 165.724 88.6681 165.26C88.3881 164.796 88.2481 164.26 88.2481 163.652C88.2481 163.036 88.3881 162.5 88.6681 162.044C88.9561 161.58 89.3401 161.22 89.8201 160.964C90.3081 160.708 90.8601 160.58 91.4761 160.58C92.0201 160.58 92.5161 160.692 92.9641 160.916C93.4121 161.132 93.7681 161.468 94.0321 161.924C94.3041 162.38 94.4401 162.956 94.4401 163.652C94.4401 164.34 94.3041 164.912 94.0321 165.368C93.7681 165.824 93.4121 166.168 92.9641 166.4C92.5161 166.624 92.0201 166.736 91.4761 166.736ZM91.6081 165.728C92.0321 165.728 92.4081 165.64 92.7361 165.464C93.0641 165.288 93.3201 165.044 93.5041 164.732C93.6961 164.42 93.7921 164.06 93.7921 163.652C93.7921 163.244 93.6961 162.884 93.5041 162.572C93.3201 162.26 93.0641 162.02 92.7361 161.852C92.4081 161.676 92.0321 161.588 91.6081 161.588C91.1841 161.588 90.8041 161.676 90.4681 161.852C90.1401 162.02 89.8801 162.26 89.6881 162.572C89.5041 162.884 89.4121 163.244 89.4121 163.652C89.4121 164.06 89.5041 164.42 89.6881 164.732C89.8801 165.044 90.1401 165.288 90.4681 165.464C90.8041 165.64 91.1841 165.728 91.6081 165.728ZM99.7973 167.072C99.2533 167.072 98.7733 166.972 98.3573 166.772C97.9493 166.572 97.6293 166.268 97.3973 165.86C97.1733 165.444 97.0613 164.924 97.0613 164.3V160.64H98.2133V164.168C98.2133 164.792 98.3613 165.26 98.6573 165.572C98.9613 165.884 99.3853 166.04 99.9293 166.04C100.329 166.04 100.677 165.96 100.973 165.8C101.269 165.632 101.497 165.392 101.657 165.08C101.817 164.76 101.897 164.376 101.897 163.928V160.64H103.049V167H101.957V165.284L102.137 165.74C101.929 166.164 101.617 166.492 101.201 166.724C100.785 166.956 100.317 167.072 99.7973 167.072ZM105.242 167V160.64H106.346V162.368L106.238 161.936C106.414 161.496 106.71 161.16 107.126 160.928C107.542 160.696 108.054 160.58 108.662 160.58V161.696C108.614 161.688 108.566 161.684 108.518 161.684C108.478 161.684 108.438 161.684 108.398 161.684C107.782 161.684 107.294 161.868 106.934 162.236C106.574 162.604 106.394 163.136 106.394 163.832V167H105.242ZM113.561 167V165.656L113.501 165.404V163.112C113.501 162.624 113.357 162.248 113.069 161.984C112.789 161.712 112.365 161.576 111.797 161.576C111.421 161.576 111.053 161.64 110.693 161.768C110.333 161.888 110.029 162.052 109.781 162.26L109.301 161.396C109.629 161.132 110.021 160.932 110.477 160.796C110.941 160.652 111.425 160.58 111.929 160.58C112.801 160.58 113.473 160.792 113.945 161.216C114.417 161.64 114.653 162.288 114.653 163.16V167H113.561ZM111.473 167.072C111.001 167.072 110.585 166.992 110.225 166.832C109.873 166.672 109.601 166.452 109.409 166.172C109.217 165.884 109.121 165.56 109.121 165.2C109.121 164.856 109.201 164.544 109.361 164.264C109.529 163.984 109.797 163.76 110.165 163.592C110.541 163.424 111.045 163.34 111.677 163.34H113.693V164.168H111.725C111.149 164.168 110.761 164.264 110.561 164.456C110.361 164.648 110.261 164.88 110.261 165.152C110.261 165.464 110.385 165.716 110.633 165.908C110.881 166.092 111.225 166.184 111.665 166.184C112.097 166.184 112.473 166.088 112.793 165.896C113.121 165.704 113.357 165.424 113.501 165.056L113.729 165.848C113.577 166.224 113.309 166.524 112.925 166.748C112.541 166.964 112.057 167.072 111.473 167.072ZM117.061 167.072C116.837 167.072 116.645 166.996 116.485 166.844C116.325 166.684 116.245 166.484 116.245 166.244C116.245 166.004 116.325 165.808 116.485 165.656C116.645 165.504 116.837 165.428 117.061 165.428C117.277 165.428 117.461 165.504 117.613 165.656C117.773 165.808 117.853 166.004 117.853 166.244C117.853 166.484 117.773 166.684 117.613 166.844C117.461 166.996 117.277 167.072 117.061 167.072Z" fill="#008E86"/>
<path d="M51.3134 79.3949L63.147 56.9687L48.8192 45.7556L71.2454 44.5096L78.1003 56.9687L76.2315 85.0015L66.8872 92.4769L51.3134 79.3949Z" fill="#008E86" stroke="#00635D" stroke-width="2" stroke-linejoin="round"/>
<path d="M65.0165 58.2129L70.0001 47.6228L48.1968 45.7539L65.0165 58.2129Z" fill="#00D8CC" stroke="#00635D" stroke-width="2" stroke-linejoin="round"/>
<path d="M55.6742 78.7704L69.9997 47.6229L78.0981 56.9671L76.2316 85L55.6742 78.7704Z" fill="#008E86" stroke="#00635D" stroke-width="2" stroke-linejoin="round"/>
<path d="M50.0653 59.4577L65.0161 38.2773" stroke="#333333" stroke-width="2" stroke-dasharray="4 6"/>
<path d="M73.154 20.5155C73.2593 19.9734 73.7841 19.6192 74.3262 19.7244C74.8684 19.8296 75.2226 20.3544 75.1174 20.8966L73.154 20.5155ZM31.088 39.1171C30.8613 38.6134 31.0858 38.0214 31.5894 37.7947L39.7963 34.1005C40.2999 33.8738 40.8919 34.0983 41.1186 34.602C41.3453 35.1056 41.1208 35.6976 40.6172 35.9243L33.3222 39.208L36.6059 46.503C36.8326 47.0066 36.6081 47.5987 36.1045 47.8254C35.6009 48.0521 35.0088 47.8276 34.7821 47.3239L31.088 39.1171ZM75.1174 20.8966C73.3113 30.2023 67.813 36.9719 60.0196 40.354C52.2506 43.7256 42.3126 43.6865 31.6453 39.6416L32.3544 37.7716C42.6564 41.678 52.04 41.6368 59.2234 38.5193C66.3824 35.4125 71.4673 29.2061 73.154 20.5155L75.1174 20.8966Z" fill="black"/>
<path d="M70.6253 73.1623L134.166 93.7198L75.6089 93.7197L70.6253 73.1623Z" fill="#008E86" stroke="#00635D" stroke-width="2" stroke-linejoin="round"/>
<g clip-path="url(#clip2_14_3387)">
<path d="M90.7825 109.09L118.933 55.7401L98.6791 40.592L101.891 27.3642L138.198 26.1015L154.505 55.7401L150.06 122.427L127.831 140.21L90.7825 109.09Z" fill="#008E86" stroke="#00635D" stroke-width="1.60526" stroke-linejoin="round"/>
<path d="M118.934 55.738L98.6793 40.5899L101.891 27.3621L132.126 29.4455L118.934 55.738Z" fill="#00D8CC" stroke="#00635D" stroke-width="1.60526" stroke-linejoin="round"/>
<path d="M118.933 55.7393L103.231 43.4928L109.652 31.4533L132.125 29.4468L118.933 55.7393Z" fill="#008E86" stroke="#00635D" stroke-width="1.60526" stroke-linejoin="round"/>
<path d="M123.379 58.7044L135.235 33.5116L109.301 31.2887L103.373 43.8851L123.379 58.7044Z" fill="#00D8CC" stroke="#00635D" stroke-width="1.60526" stroke-linejoin="round"/>
<path d="M101.156 107.607L135.235 33.5101L154.5 55.7391L150.06 122.426L101.156 107.607Z" fill="#008E86" stroke="#00635D" stroke-width="1.60526" stroke-linejoin="round"/>
</g>
<rect x="94.6123" y="15.6118" width="58.7763" height="58.7763" rx="29.3882" stroke="#333333" stroke-width="1.22369"/>
<path d="M55.6741 78.7697L70.6251 73.163L94.297 97.4583L66.8873 92.4747L55.6741 78.7697Z" fill="#008E86" stroke="#00635D" stroke-width="2" stroke-linejoin="round"/>
</g>
<defs>
<clipPath id="clip0_14_3387">
<rect width="180" height="180" rx="20" fill="white"/>
</clipPath>
<clipPath id="clip1_14_3387">
<path d="M0 30L-1.31134e-06 0L30 -1.31134e-06L30 10C30 21.0457 21.0457 30 10 30L0 30Z" fill="white"/>
</clipPath>
<clipPath id="clip2_14_3387">
<rect x="94.0005" y="15" width="60" height="60" rx="30" fill="white"/>
</clipPath>
</defs>
</svg>
