<svg width="180" height="180" viewBox="0 0 180 180" fill="none" xmlns="http://www.w3.org/2000/svg">
<g clip-path="url(#clip0_16_88)">
<rect width="180" height="180" rx="20" fill="#F2F2F2"/>
<g clip-path="url(#clip1_16_88)">
<path d="M0 30L-1.31134e-06 0L30 -1.31134e-06L30 10C30 21.0457 21.0457 30 10 30L0 30Z" fill="#333333"/>
<path d="M20.3644 18.648H18.5404V21H16.0124V18.648H9.98038V16.904L15.2604 9.8H17.9804L13.0844 16.536H16.0924V14.44H18.5404V16.536H20.3644V18.648Z" fill="#F2F2F2"/>
</g>
<path d="M26.2913 129V120.6H29.8313C30.7273 120.6 31.5153 120.776 32.1953 121.128C32.8833 121.48 33.4153 121.972 33.7913 122.604C34.1753 123.236 34.3673 123.968 34.3673 124.8C34.3673 125.632 34.1753 126.364 33.7913 126.996C33.4153 127.628 32.8833 128.12 32.1953 128.472C31.5153 128.824 30.7273 129 29.8313 129H26.2913ZM27.4913 127.956H29.7593C30.4553 127.956 31.0553 127.824 31.5593 127.56C32.0713 127.296 32.4673 126.928 32.7473 126.456C33.0273 125.976 33.1673 125.424 33.1673 124.8C33.1673 124.168 33.0273 123.616 32.7473 123.144C32.4673 122.672 32.0713 122.304 31.5593 122.04C31.0553 121.776 30.4553 121.644 29.7593 121.644H27.4913V127.956ZM38.7613 129.072C38.1213 129.072 37.5533 128.932 37.0573 128.652C36.5613 128.372 36.1693 127.988 35.8813 127.5C35.5933 127.004 35.4493 126.444 35.4493 125.82C35.4493 125.188 35.5933 124.628 35.8813 124.14C36.1693 123.652 36.5613 123.272 37.0573 123C37.5533 122.72 38.1213 122.58 38.7613 122.58C39.3933 122.58 39.9573 122.72 40.4533 123C40.9573 123.272 41.3493 123.652 41.6293 124.14C41.9173 124.62 42.0613 125.18 42.0613 125.82C42.0613 126.452 41.9173 127.012 41.6293 127.5C41.3493 127.988 40.9573 128.372 40.4533 128.652C39.9573 128.932 39.3933 129.072 38.7613 129.072ZM38.7613 128.064C39.1693 128.064 39.5333 127.972 39.8533 127.788C40.1813 127.604 40.4373 127.344 40.6213 127.008C40.8053 126.664 40.8973 126.268 40.8973 125.82C40.8973 125.364 40.8053 124.972 40.6213 124.644C40.4373 124.308 40.1813 124.048 39.8533 123.864C39.5333 123.68 39.1693 123.588 38.7613 123.588C38.3533 123.588 37.9893 123.68 37.6693 123.864C37.3493 124.048 37.0933 124.308 36.9013 124.644C36.7093 124.972 36.6133 125.364 36.6133 125.82C36.6133 126.268 36.7093 126.664 36.9013 127.008C37.0933 127.344 37.3493 127.604 37.6693 127.788C37.9893 127.972 38.3533 128.064 38.7613 128.064ZM47.0265 129.072C46.4825 129.072 45.9905 128.952 45.5505 128.712C45.1185 128.464 44.7745 128.1 44.5185 127.62C44.2705 127.14 44.1465 126.54 44.1465 125.82C44.1465 125.1 44.2745 124.5 44.5305 124.02C44.7945 123.54 45.1425 123.18 45.5745 122.94C46.0145 122.7 46.4985 122.58 47.0265 122.58C47.6505 122.58 48.2025 122.716 48.6825 122.988C49.1625 123.26 49.5425 123.64 49.8225 124.128C50.1025 124.608 50.2425 125.172 50.2425 125.82C50.2425 126.468 50.1025 127.036 49.8225 127.524C49.5425 128.012 49.1625 128.392 48.6825 128.664C48.2025 128.936 47.6505 129.072 47.0265 129.072ZM43.6545 129V120.096H44.8065V124.332L44.6865 125.808L44.7585 127.284V129H43.6545ZM46.9305 128.064C47.3385 128.064 47.7025 127.972 48.0225 127.788C48.3505 127.604 48.6065 127.344 48.7905 127.008C48.9825 126.664 49.0785 126.268 49.0785 125.82C49.0785 125.364 48.9825 124.972 48.7905 124.644C48.6065 124.308 48.3505 124.048 48.0225 123.864C47.7025 123.68 47.3385 123.588 46.9305 123.588C46.5305 123.588 46.1665 123.68 45.8385 123.864C45.5185 124.048 45.2625 124.308 45.0705 124.644C44.8865 124.972 44.7945 125.364 44.7945 125.82C44.7945 126.268 44.8865 126.664 45.0705 127.008C45.2625 127.344 45.5185 127.604 45.8385 127.788C46.1665 127.972 46.5305 128.064 46.9305 128.064ZM51.8342 129V122.64H52.9382V124.368L52.8302 123.936C53.0062 123.496 53.3022 123.16 53.7182 122.928C54.1342 122.696 54.6462 122.58 55.2542 122.58V123.696C55.2062 123.688 55.1582 123.684 55.1102 123.684C55.0702 123.684 55.0302 123.684 54.9902 123.684C54.3742 123.684 53.8862 123.868 53.5262 124.236C53.1662 124.604 52.9862 125.136 52.9862 125.832V129H51.8342ZM59.4474 129.072C58.7674 129.072 58.1674 128.932 57.6474 128.652C57.1354 128.372 56.7354 127.988 56.4474 127.5C56.1674 127.012 56.0274 126.452 56.0274 125.82C56.0274 125.188 56.1634 124.628 56.4354 124.14C56.7154 123.652 57.0954 123.272 57.5754 123C58.0634 122.72 58.6114 122.58 59.2194 122.58C59.8354 122.58 60.3794 122.716 60.8514 122.988C61.3234 123.26 61.6914 123.644 61.9554 124.14C62.2274 124.628 62.3634 125.2 62.3634 125.856C62.3634 125.904 62.3594 125.96 62.3514 126.024C62.3514 126.088 62.3474 126.148 62.3394 126.204H56.9274V125.376H61.7394L61.2714 125.664C61.2794 125.256 61.1954 124.892 61.0194 124.572C60.8434 124.252 60.5994 124.004 60.2874 123.828C59.9834 123.644 59.6274 123.552 59.2194 123.552C58.8194 123.552 58.4634 123.644 58.1514 123.828C57.8394 124.004 57.5954 124.256 57.4194 124.584C57.2434 124.904 57.1554 125.272 57.1554 125.688V125.88C57.1554 126.304 57.2514 126.684 57.4434 127.02C57.6434 127.348 57.9194 127.604 58.2714 127.788C58.6234 127.972 59.0274 128.064 59.4834 128.064C59.8594 128.064 60.1994 128 60.5034 127.872C60.8154 127.744 61.0874 127.552 61.3194 127.296L61.9554 128.04C61.6674 128.376 61.3074 128.632 60.8754 128.808C60.4514 128.984 59.9754 129.072 59.4474 129.072ZM71.1338 129V127.656L71.0738 127.404V125.112C71.0738 124.624 70.9298 124.248 70.6418 123.984C70.3618 123.712 69.9378 123.576 69.3698 123.576C68.9938 123.576 68.6258 123.64 68.2658 123.768C67.9058 123.888 67.6018 124.052 67.3538 124.26L66.8738 123.396C67.2018 123.132 67.5938 122.932 68.0498 122.796C68.5138 122.652 68.9978 122.58 69.5018 122.58C70.3738 122.58 71.0458 122.792 71.5178 123.216C71.9898 123.64 72.2258 124.288 72.2258 125.16V129H71.1338ZM69.0458 129.072C68.5738 129.072 68.1578 128.992 67.7978 128.832C67.4458 128.672 67.1738 128.452 66.9818 128.172C66.7898 127.884 66.6938 127.56 66.6938 127.2C66.6938 126.856 66.7738 126.544 66.9338 126.264C67.1018 125.984 67.3698 125.76 67.7378 125.592C68.1138 125.424 68.6178 125.34 69.2498 125.34H71.2658V126.168H69.2978C68.7218 126.168 68.3338 126.264 68.1338 126.456C67.9338 126.648 67.8338 126.88 67.8338 127.152C67.8338 127.464 67.9578 127.716 68.2058 127.908C68.4538 128.092 68.7978 128.184 69.2378 128.184C69.6698 128.184 70.0458 128.088 70.3658 127.896C70.6938 127.704 70.9298 127.424 71.0738 127.056L71.3018 127.848C71.1498 128.224 70.8818 128.524 70.4978 128.748C70.1138 128.964 69.6298 129.072 69.0458 129.072ZM80.9523 129.072C80.4243 129.072 79.9403 128.952 79.5003 128.712C79.0683 128.464 78.7203 128.1 78.4563 127.62C78.2003 127.14 78.0723 126.54 78.0723 125.82C78.0723 125.1 78.1963 124.5 78.4443 124.02C78.7003 123.54 79.0443 123.18 79.4763 122.94C79.9163 122.7 80.4083 122.58 80.9523 122.58C81.5763 122.58 82.1283 122.716 82.6083 122.988C83.0883 123.26 83.4683 123.64 83.7483 124.128C84.0283 124.608 84.1683 125.172 84.1683 125.82C84.1683 126.468 84.0283 127.036 83.7483 127.524C83.4683 128.012 83.0883 128.392 82.6083 128.664C82.1283 128.936 81.5763 129.072 80.9523 129.072ZM77.5803 131.328V122.64H78.6843V124.356L78.6123 125.832L78.7323 127.308V131.328H77.5803ZM80.8563 128.064C81.2643 128.064 81.6283 127.972 81.9483 127.788C82.2763 127.604 82.5323 127.344 82.7163 127.008C82.9083 126.664 83.0043 126.268 83.0043 125.82C83.0043 125.364 82.9083 124.972 82.7163 124.644C82.5323 124.308 82.2763 124.048 81.9483 123.864C81.6283 123.68 81.2643 123.588 80.8563 123.588C80.4563 123.588 80.0923 123.68 79.7643 123.864C79.4443 124.048 79.1883 124.308 78.9963 124.644C78.8123 124.972 78.7203 125.364 78.7203 125.82C78.7203 126.268 78.8123 126.664 78.9963 127.008C79.1883 127.344 79.4443 127.604 79.7643 127.788C80.0923 127.972 80.4563 128.064 80.8563 128.064ZM88.484 129.072C87.844 129.072 87.276 128.932 86.78 128.652C86.284 128.372 85.892 127.988 85.604 127.5C85.316 127.004 85.172 126.444 85.172 125.82C85.172 125.188 85.316 124.628 85.604 124.14C85.892 123.652 86.284 123.272 86.78 123C87.276 122.72 87.844 122.58 88.484 122.58C89.116 122.58 89.68 122.72 90.176 123C90.68 123.272 91.072 123.652 91.352 124.14C91.64 124.62 91.784 125.18 91.784 125.82C91.784 126.452 91.64 127.012 91.352 127.5C91.072 127.988 90.68 128.372 90.176 128.652C89.68 128.932 89.116 129.072 88.484 129.072ZM88.484 128.064C88.892 128.064 89.256 127.972 89.576 127.788C89.904 127.604 90.16 127.344 90.344 127.008C90.528 126.664 90.62 126.268 90.62 125.82C90.62 125.364 90.528 124.972 90.344 124.644C90.16 124.308 89.904 124.048 89.576 123.864C89.256 123.68 88.892 123.588 88.484 123.588C88.076 123.588 87.712 123.68 87.392 123.864C87.072 124.048 86.816 124.308 86.624 124.644C86.432 124.972 86.336 125.364 86.336 125.82C86.336 126.268 86.432 126.664 86.624 127.008C86.816 127.344 87.072 127.604 87.392 127.788C87.712 127.972 88.076 128.064 88.484 128.064ZM96.7732 122.58C97.2932 122.58 97.7492 122.68 98.1412 122.88C98.5412 123.08 98.8532 123.384 99.0772 123.792C99.3012 124.2 99.4132 124.716 99.4132 125.34V129H98.2612V125.472C98.2612 124.856 98.1092 124.392 97.8052 124.08C97.5092 123.768 97.0892 123.612 96.5452 123.612C96.1372 123.612 95.7812 123.692 95.4772 123.852C95.1732 124.012 94.9372 124.248 94.7692 124.56C94.6092 124.872 94.5292 125.26 94.5292 125.724V129H93.3772V122.64H94.4812V124.356L94.3012 123.9C94.5092 123.484 94.8292 123.16 95.2612 122.928C95.6932 122.696 96.1972 122.58 96.7732 122.58ZM103.729 129.072C103.089 129.072 102.593 128.9 102.241 128.556C101.889 128.212 101.713 127.72 101.713 127.08V121.248H102.865V127.032C102.865 127.376 102.949 127.64 103.117 127.824C103.293 128.008 103.541 128.1 103.861 128.1C104.221 128.1 104.521 128 104.761 127.8L105.121 128.628C104.945 128.78 104.733 128.892 104.485 128.964C104.245 129.036 103.993 129.072 103.729 129.072ZM100.633 123.588V122.64H104.689V123.588H100.633ZM110.462 129V127.656L110.402 127.404V125.112C110.402 124.624 110.258 124.248 109.97 123.984C109.69 123.712 109.266 123.576 108.698 123.576C108.322 123.576 107.954 123.64 107.594 123.768C107.234 123.888 106.93 124.052 106.682 124.26L106.202 123.396C106.53 123.132 106.922 122.932 107.378 122.796C107.842 122.652 108.326 122.58 108.83 122.58C109.702 122.58 110.374 122.792 110.846 123.216C111.318 123.64 111.554 124.288 111.554 125.16V129H110.462ZM108.374 129.072C107.902 129.072 107.486 128.992 107.126 128.832C106.774 128.672 106.502 128.452 106.31 128.172C106.118 127.884 106.022 127.56 106.022 127.2C106.022 126.856 106.102 126.544 106.262 126.264C106.43 125.984 106.698 125.76 107.066 125.592C107.442 125.424 107.946 125.34 108.578 125.34H110.594V126.168H108.626C108.05 126.168 107.662 126.264 107.462 126.456C107.262 126.648 107.162 126.88 107.162 127.152C107.162 127.464 107.286 127.716 107.534 127.908C107.782 128.092 108.126 128.184 108.566 128.184C108.998 128.184 109.374 128.088 109.694 127.896C110.022 127.704 110.258 127.424 110.402 127.056L110.63 127.848C110.478 128.224 110.21 128.524 109.826 128.748C109.442 128.964 108.958 129.072 108.374 129.072ZM119.536 129.072C118.92 129.072 118.368 128.936 117.88 128.664C117.4 128.392 117.02 128.012 116.74 127.524C116.46 127.036 116.32 126.468 116.32 125.82C116.32 125.172 116.46 124.608 116.74 124.128C117.02 123.64 117.4 123.26 117.88 122.988C118.368 122.716 118.92 122.58 119.536 122.58C120.072 122.58 120.556 122.7 120.988 122.94C121.42 123.18 121.764 123.54 122.02 124.02C122.284 124.5 122.416 125.1 122.416 125.82C122.416 126.54 122.288 127.14 122.032 127.62C121.784 128.1 121.444 128.464 121.012 128.712C120.58 128.952 120.088 129.072 119.536 129.072ZM119.632 128.064C120.032 128.064 120.392 127.972 120.712 127.788C121.04 127.604 121.296 127.344 121.48 127.008C121.672 126.664 121.768 126.268 121.768 125.82C121.768 125.364 121.672 124.972 121.48 124.644C121.296 124.308 121.04 124.048 120.712 123.864C120.392 123.68 120.032 123.588 119.632 123.588C119.224 123.588 118.86 123.68 118.54 123.864C118.22 124.048 117.964 124.308 117.772 124.644C117.58 124.972 117.484 125.364 117.484 125.82C117.484 126.268 117.58 126.664 117.772 127.008C117.964 127.344 118.22 127.604 118.54 127.788C118.86 127.972 119.224 128.064 119.632 128.064ZM121.804 129V127.284L121.876 125.808L121.756 124.332V120.096H122.908V129H121.804ZM125.088 129V122.64H126.24V129H125.088ZM125.664 121.416C125.44 121.416 125.252 121.344 125.1 121.2C124.956 121.056 124.884 120.88 124.884 120.672C124.884 120.456 124.956 120.276 125.1 120.132C125.252 119.988 125.44 119.916 125.664 119.916C125.888 119.916 126.072 119.988 126.216 120.132C126.368 120.268 126.444 120.44 126.444 120.648C126.444 120.864 126.372 121.048 126.228 121.2C126.084 121.344 125.896 121.416 125.664 121.416ZM128.44 129V122.64H129.544V124.368L129.436 123.936C129.612 123.496 129.908 123.16 130.324 122.928C130.74 122.696 131.252 122.58 131.86 122.58V123.696C131.812 123.688 131.764 123.684 131.716 123.684C131.676 123.684 131.636 123.684 131.596 123.684C130.98 123.684 130.492 123.868 130.132 124.236C129.772 124.604 129.592 125.136 129.592 125.832V129H128.44ZM136.053 129.072C135.373 129.072 134.773 128.932 134.253 128.652C133.741 128.372 133.341 127.988 133.053 127.5C132.773 127.012 132.633 126.452 132.633 125.82C132.633 125.188 132.769 124.628 133.041 124.14C133.321 123.652 133.701 123.272 134.181 123C134.669 122.72 135.217 122.58 135.825 122.58C136.441 122.58 136.985 122.716 137.457 122.988C137.929 123.26 138.297 123.644 138.561 124.14C138.833 124.628 138.969 125.2 138.969 125.856C138.969 125.904 138.965 125.96 138.957 126.024C138.957 126.088 138.953 126.148 138.945 126.204H133.533V125.376H138.345L137.877 125.664C137.885 125.256 137.801 124.892 137.625 124.572C137.449 124.252 137.205 124.004 136.893 123.828C136.589 123.644 136.233 123.552 135.825 123.552C135.425 123.552 135.069 123.644 134.757 123.828C134.445 124.004 134.201 124.256 134.025 124.584C133.849 124.904 133.761 125.272 133.761 125.688V125.88C133.761 126.304 133.857 126.684 134.049 127.02C134.249 127.348 134.525 127.604 134.877 127.788C135.229 127.972 135.633 128.064 136.089 128.064C136.465 128.064 136.805 128 137.109 127.872C137.421 127.744 137.693 127.552 137.925 127.296L138.561 128.04C138.273 128.376 137.913 128.632 137.481 128.808C137.057 128.984 136.581 129.072 136.053 129.072ZM140.569 129V122.64H141.721V129H140.569ZM141.145 121.416C140.921 121.416 140.733 121.344 140.581 121.2C140.437 121.056 140.365 120.88 140.365 120.672C140.365 120.456 140.437 120.276 140.581 120.132C140.733 119.988 140.921 119.916 141.145 119.916C141.369 119.916 141.553 119.988 141.697 120.132C141.849 120.268 141.925 120.44 141.925 120.648C141.925 120.864 141.853 121.048 141.709 121.2C141.565 121.344 141.377 121.416 141.145 121.416ZM146.104 129.072C145.464 129.072 144.968 128.9 144.616 128.556C144.264 128.212 144.088 127.72 144.088 127.08V121.248H145.24V127.032C145.24 127.376 145.324 127.64 145.492 127.824C145.668 128.008 145.916 128.1 146.236 128.1C146.596 128.1 146.896 128 147.136 127.8L147.496 128.628C147.32 128.78 147.108 128.892 146.86 128.964C146.62 129.036 146.368 129.072 146.104 129.072ZM143.008 123.588V122.64H147.064V123.588H143.008ZM152.837 129V127.656L152.777 127.404V125.112C152.777 124.624 152.633 124.248 152.345 123.984C152.065 123.712 151.641 123.576 151.073 123.576C150.697 123.576 150.329 123.64 149.969 123.768C149.609 123.888 149.305 124.052 149.057 124.26L148.577 123.396C148.905 123.132 149.297 122.932 149.753 122.796C150.217 122.652 150.701 122.58 151.205 122.58C152.077 122.58 152.749 122.792 153.221 123.216C153.693 123.64 153.929 124.288 153.929 125.16V129H152.837ZM150.749 129.072C150.277 129.072 149.861 128.992 149.501 128.832C149.149 128.672 148.877 128.452 148.685 128.172C148.493 127.884 148.397 127.56 148.397 127.2C148.397 126.856 148.477 126.544 148.637 126.264C148.805 125.984 149.073 125.76 149.441 125.592C149.817 125.424 150.321 125.34 150.953 125.34H152.969V126.168H151.001C150.425 126.168 150.037 126.264 149.837 126.456C149.637 126.648 149.537 126.88 149.537 127.152C149.537 127.464 149.661 127.716 149.909 127.908C150.157 128.092 150.501 128.184 150.941 128.184C151.373 128.184 151.749 128.088 152.069 127.896C152.397 127.704 152.633 127.424 152.777 127.056L153.005 127.848C152.853 128.224 152.585 128.524 152.201 128.748C151.817 128.964 151.333 129.072 150.749 129.072ZM26.7532 144.072C26.1372 144.072 25.5852 143.936 25.0972 143.664C24.6172 143.392 24.2372 143.012 23.9572 142.524C23.6772 142.036 23.5372 141.468 23.5372 140.82C23.5372 140.172 23.6772 139.608 23.9572 139.128C24.2372 138.64 24.6172 138.26 25.0972 137.988C25.5852 137.716 26.1372 137.58 26.7532 137.58C27.2892 137.58 27.7732 137.7 28.2052 137.94C28.6372 138.18 28.9812 138.54 29.2372 139.02C29.5012 139.5 29.6332 140.1 29.6332 140.82C29.6332 141.54 29.5052 142.14 29.2492 142.62C29.0012 143.1 28.6612 143.464 28.2292 143.712C27.7972 143.952 27.3052 144.072 26.7532 144.072ZM26.8492 143.064C27.2492 143.064 27.6092 142.972 27.9292 142.788C28.2572 142.604 28.5132 142.344 28.6972 142.008C28.8892 141.664 28.9852 141.268 28.9852 140.82C28.9852 140.364 28.8892 139.972 28.6972 139.644C28.5132 139.308 28.2572 139.048 27.9292 138.864C27.6092 138.68 27.2492 138.588 26.8492 138.588C26.4412 138.588 26.0772 138.68 25.7572 138.864C25.4372 139.048 25.1812 139.308 24.9892 139.644C24.7972 139.972 24.7012 140.364 24.7012 140.82C24.7012 141.268 24.7972 141.664 24.9892 142.008C25.1812 142.344 25.4372 142.604 25.7572 142.788C26.0772 142.972 26.4412 143.064 26.8492 143.064ZM29.0212 144V142.284L29.0932 140.808L28.9732 139.332V135.096H30.1252V144H29.0212ZM36.2529 144V142.656L36.1929 142.404V140.112C36.1929 139.624 36.0489 139.248 35.7609 138.984C35.4809 138.712 35.0569 138.576 34.4889 138.576C34.1129 138.576 33.7449 138.64 33.3849 138.768C33.0249 138.888 32.7209 139.052 32.4729 139.26L31.9929 138.396C32.3209 138.132 32.7129 137.932 33.1689 137.796C33.6329 137.652 34.1169 137.58 34.6209 137.58C35.4929 137.58 36.1649 137.792 36.6369 138.216C37.1089 138.64 37.3449 139.288 37.3449 140.16V144H36.2529ZM34.1649 144.072C33.6929 144.072 33.2769 143.992 32.9169 143.832C32.5649 143.672 32.2929 143.452 32.1009 143.172C31.9089 142.884 31.8129 142.56 31.8129 142.2C31.8129 141.856 31.8929 141.544 32.0529 141.264C32.2209 140.984 32.4889 140.76 32.8569 140.592C33.2329 140.424 33.7369 140.34 34.3689 140.34H36.3849V141.168H34.4169C33.8409 141.168 33.4529 141.264 33.2529 141.456C33.0529 141.648 32.9529 141.88 32.9529 142.152C32.9529 142.464 33.0769 142.716 33.3249 142.908C33.5729 143.092 33.9169 143.184 34.3569 143.184C34.7889 143.184 35.1649 143.088 35.4849 142.896C35.8129 142.704 36.0489 142.424 36.1929 142.056L36.4209 142.848C36.2689 143.224 36.0009 143.524 35.6169 143.748C35.2329 143.964 34.7489 144.072 34.1649 144.072ZM42.8674 144V137.076C42.8674 136.452 43.0474 135.956 43.4074 135.588C43.7754 135.212 44.2954 135.024 44.9674 135.024C45.2154 135.024 45.4514 135.056 45.6754 135.12C45.9074 135.176 46.1034 135.268 46.2634 135.396L45.9154 136.272C45.7954 136.176 45.6594 136.104 45.5074 136.056C45.3554 136 45.1954 135.972 45.0274 135.972C44.6914 135.972 44.4354 136.068 44.2594 136.26C44.0834 136.444 43.9954 136.72 43.9954 137.088V137.94L44.0194 138.468V144H42.8674ZM41.7874 138.588V137.64H45.8434V138.588H41.7874ZM49.5601 144.072C48.9201 144.072 48.3521 143.932 47.8561 143.652C47.3601 143.372 46.9681 142.988 46.6801 142.5C46.3921 142.004 46.2481 141.444 46.2481 140.82C46.2481 140.188 46.3921 139.628 46.6801 139.14C46.9681 138.652 47.3601 138.272 47.8561 138C48.3521 137.72 48.9201 137.58 49.5601 137.58C50.1921 137.58 50.7561 137.72 51.2521 138C51.7561 138.272 52.1481 138.652 52.4281 139.14C52.7161 139.62 52.8601 140.18 52.8601 140.82C52.8601 141.452 52.7161 142.012 52.4281 142.5C52.1481 142.988 51.7561 143.372 51.2521 143.652C50.7561 143.932 50.1921 144.072 49.5601 144.072ZM49.5601 143.064C49.9681 143.064 50.3321 142.972 50.6521 142.788C50.9801 142.604 51.2361 142.344 51.4201 142.008C51.6041 141.664 51.6961 141.268 51.6961 140.82C51.6961 140.364 51.6041 139.972 51.4201 139.644C51.2361 139.308 50.9801 139.048 50.6521 138.864C50.3321 138.68 49.9681 138.588 49.5601 138.588C49.1521 138.588 48.7881 138.68 48.4681 138.864C48.1481 139.048 47.8921 139.308 47.7001 139.644C47.5081 139.972 47.4121 140.364 47.4121 140.82C47.4121 141.268 47.5081 141.664 47.7001 142.008C47.8921 142.344 48.1481 142.604 48.4681 142.788C48.7881 142.972 49.1521 143.064 49.5601 143.064ZM54.4533 144V135.096H55.6053V144H54.4533ZM61.2009 137.58C61.7209 137.58 62.1769 137.68 62.5689 137.88C62.9689 138.08 63.2809 138.384 63.5049 138.792C63.7289 139.2 63.8409 139.716 63.8409 140.34V144H62.6889V140.472C62.6889 139.856 62.5369 139.392 62.2329 139.08C61.9369 138.768 61.5169 138.612 60.9729 138.612C60.5649 138.612 60.2089 138.692 59.9049 138.852C59.6009 139.012 59.3649 139.248 59.1969 139.56C59.0369 139.872 58.9569 140.26 58.9569 140.724V144H57.8049V135.096H58.9569V139.356L58.7289 138.9C58.9369 138.484 59.2569 138.16 59.6889 137.928C60.1209 137.696 60.6249 137.58 61.2009 137.58ZM69.9209 144V142.656L69.8609 142.404V140.112C69.8609 139.624 69.7169 139.248 69.4289 138.984C69.1489 138.712 68.7249 138.576 68.1569 138.576C67.7809 138.576 67.4129 138.64 67.0529 138.768C66.6929 138.888 66.3889 139.052 66.1409 139.26L65.6609 138.396C65.9889 138.132 66.3809 137.932 66.8369 137.796C67.3009 137.652 67.7849 137.58 68.2889 137.58C69.1609 137.58 69.8329 137.792 70.3049 138.216C70.7769 138.64 71.0129 139.288 71.0129 140.16V144H69.9209ZM67.8329 144.072C67.3609 144.072 66.9449 143.992 66.5849 143.832C66.2329 143.672 65.9609 143.452 65.7689 143.172C65.5769 142.884 65.4809 142.56 65.4809 142.2C65.4809 141.856 65.5609 141.544 65.7209 141.264C65.8889 140.984 66.1569 140.76 66.5249 140.592C66.9009 140.424 67.4049 140.34 68.0369 140.34H70.0529V141.168H68.0849C67.5089 141.168 67.1209 141.264 66.9209 141.456C66.7209 141.648 66.6209 141.88 66.6209 142.152C66.6209 142.464 66.7449 142.716 66.9929 142.908C67.2409 143.092 67.5849 143.184 68.0249 143.184C68.4569 143.184 68.8329 143.088 69.1529 142.896C69.4809 142.704 69.7169 142.424 69.8609 142.056L70.0889 142.848C69.9369 143.224 69.6689 143.524 69.2849 143.748C68.9009 143.964 68.4169 144.072 67.8329 144.072ZM79.7394 144.072C79.2114 144.072 78.7274 143.952 78.2874 143.712C77.8554 143.464 77.5074 143.1 77.2434 142.62C76.9874 142.14 76.8594 141.54 76.8594 140.82C76.8594 140.1 76.9834 139.5 77.2314 139.02C77.4874 138.54 77.8314 138.18 78.2634 137.94C78.7034 137.7 79.1954 137.58 79.7394 137.58C80.3634 137.58 80.9154 137.716 81.3954 137.988C81.8754 138.26 82.2554 138.64 82.5354 139.128C82.8154 139.608 82.9554 140.172 82.9554 140.82C82.9554 141.468 82.8154 142.036 82.5354 142.524C82.2554 143.012 81.8754 143.392 81.3954 143.664C80.9154 143.936 80.3634 144.072 79.7394 144.072ZM76.3674 146.328V137.64H77.4714V139.356L77.3994 140.832L77.5194 142.308V146.328H76.3674ZM79.6434 143.064C80.0514 143.064 80.4154 142.972 80.7354 142.788C81.0634 142.604 81.3194 142.344 81.5034 142.008C81.6954 141.664 81.7914 141.268 81.7914 140.82C81.7914 140.364 81.6954 139.972 81.5034 139.644C81.3194 139.308 81.0634 139.048 80.7354 138.864C80.4154 138.68 80.0514 138.588 79.6434 138.588C79.2434 138.588 78.8794 138.68 78.5514 138.864C78.2314 139.048 77.9754 139.308 77.7834 139.644C77.5994 139.972 77.5074 140.364 77.5074 140.82C77.5074 141.268 77.5994 141.664 77.7834 142.008C77.9754 142.344 78.2314 142.604 78.5514 142.788C78.8794 142.972 79.2434 143.064 79.6434 143.064ZM88.4365 144V142.656L88.3765 142.404V140.112C88.3765 139.624 88.2325 139.248 87.9445 138.984C87.6645 138.712 87.2405 138.576 86.6725 138.576C86.2965 138.576 85.9285 138.64 85.5685 138.768C85.2085 138.888 84.9045 139.052 84.6565 139.26L84.1765 138.396C84.5045 138.132 84.8965 137.932 85.3525 137.796C85.8165 137.652 86.3005 137.58 86.8045 137.58C87.6765 137.58 88.3485 137.792 88.8205 138.216C89.2925 138.64 89.5285 139.288 89.5285 140.16V144H88.4365ZM86.3485 144.072C85.8765 144.072 85.4605 143.992 85.1005 143.832C84.7485 143.672 84.4765 143.452 84.2845 143.172C84.0925 142.884 83.9965 142.56 83.9965 142.2C83.9965 141.856 84.0765 141.544 84.2365 141.264C84.4045 140.984 84.6725 140.76 85.0405 140.592C85.4165 140.424 85.9205 140.34 86.5525 140.34H88.5685V141.168H86.6005C86.0245 141.168 85.6365 141.264 85.4365 141.456C85.2365 141.648 85.1365 141.88 85.1365 142.152C85.1365 142.464 85.2605 142.716 85.5085 142.908C85.7565 143.092 86.1005 143.184 86.5405 143.184C86.9725 143.184 87.3485 143.088 87.6685 142.896C87.9965 142.704 88.2325 142.424 88.3765 142.056L88.6045 142.848C88.4525 143.224 88.1845 143.524 87.8005 143.748C87.4165 143.964 86.9325 144.072 86.3485 144.072ZM91.6604 144V137.64H92.7644V139.368L92.6564 138.936C92.8324 138.496 93.1284 138.16 93.5444 137.928C93.9604 137.696 94.4724 137.58 95.0804 137.58V138.696C95.0324 138.688 94.9844 138.684 94.9364 138.684C94.8964 138.684 94.8564 138.684 94.8164 138.684C94.2004 138.684 93.7124 138.868 93.3524 139.236C92.9924 139.604 92.8124 140.136 92.8124 140.832V144H91.6604ZM99.9795 144V142.656L99.9195 142.404V140.112C99.9195 139.624 99.7755 139.248 99.4875 138.984C99.2075 138.712 98.7835 138.576 98.2155 138.576C97.8395 138.576 97.4715 138.64 97.1115 138.768C96.7515 138.888 96.4475 139.052 96.1995 139.26L95.7195 138.396C96.0475 138.132 96.4395 137.932 96.8955 137.796C97.3595 137.652 97.8435 137.58 98.3475 137.58C99.2195 137.58 99.8915 137.792 100.363 138.216C100.835 138.64 101.071 139.288 101.071 140.16V144H99.9795ZM97.8915 144.072C97.4195 144.072 97.0035 143.992 96.6435 143.832C96.2915 143.672 96.0195 143.452 95.8275 143.172C95.6355 142.884 95.5395 142.56 95.5395 142.2C95.5395 141.856 95.6195 141.544 95.7795 141.264C95.9475 140.984 96.2155 140.76 96.5835 140.592C96.9595 140.424 97.4635 140.34 98.0955 140.34H100.111V141.168H98.1435C97.5675 141.168 97.1795 141.264 96.9795 141.456C96.7795 141.648 96.6795 141.88 96.6795 142.152C96.6795 142.464 96.8035 142.716 97.0515 142.908C97.2995 143.092 97.6435 143.184 98.0835 143.184C98.5155 143.184 98.8915 143.088 99.2115 142.896C99.5395 142.704 99.7755 142.424 99.9195 142.056L100.147 142.848C99.9955 143.224 99.7275 143.524 99.3435 143.748C98.9595 143.964 98.4755 144.072 97.8915 144.072ZM109.054 144.072C108.438 144.072 107.886 143.936 107.398 143.664C106.918 143.392 106.538 143.012 106.258 142.524C105.978 142.036 105.838 141.468 105.838 140.82C105.838 140.172 105.978 139.608 106.258 139.128C106.538 138.64 106.918 138.26 107.398 137.988C107.886 137.716 108.438 137.58 109.054 137.58C109.59 137.58 110.074 137.7 110.506 137.94C110.938 138.18 111.282 138.54 111.538 139.02C111.802 139.5 111.934 140.1 111.934 140.82C111.934 141.54 111.806 142.14 111.55 142.62C111.302 143.1 110.962 143.464 110.53 143.712C110.098 143.952 109.606 144.072 109.054 144.072ZM109.15 143.064C109.55 143.064 109.91 142.972 110.23 142.788C110.558 142.604 110.814 142.344 110.998 142.008C111.19 141.664 111.286 141.268 111.286 140.82C111.286 140.364 111.19 139.972 110.998 139.644C110.814 139.308 110.558 139.048 110.23 138.864C109.91 138.68 109.55 138.588 109.15 138.588C108.742 138.588 108.378 138.68 108.058 138.864C107.738 139.048 107.482 139.308 107.29 139.644C107.098 139.972 107.002 140.364 107.002 140.82C107.002 141.268 107.098 141.664 107.29 142.008C107.482 142.344 107.738 142.604 108.058 142.788C108.378 142.972 108.742 143.064 109.15 143.064ZM111.322 144V142.284L111.394 140.808L111.274 139.332V135.096H112.426V144H111.322ZM117.438 144.072C116.758 144.072 116.158 143.932 115.638 143.652C115.126 143.372 114.726 142.988 114.438 142.5C114.158 142.012 114.018 141.452 114.018 140.82C114.018 140.188 114.154 139.628 114.426 139.14C114.706 138.652 115.086 138.272 115.566 138C116.054 137.72 116.602 137.58 117.21 137.58C117.826 137.58 118.37 137.716 118.842 137.988C119.314 138.26 119.682 138.644 119.946 139.14C120.218 139.628 120.354 140.2 120.354 140.856C120.354 140.904 120.35 140.96 120.342 141.024C120.342 141.088 120.338 141.148 120.33 141.204H114.918V140.376H119.73L119.262 140.664C119.27 140.256 119.186 139.892 119.01 139.572C118.834 139.252 118.59 139.004 118.278 138.828C117.974 138.644 117.618 138.552 117.21 138.552C116.81 138.552 116.454 138.644 116.142 138.828C115.83 139.004 115.586 139.256 115.41 139.584C115.234 139.904 115.146 140.272 115.146 140.688V140.88C115.146 141.304 115.242 141.684 115.434 142.02C115.634 142.348 115.91 142.604 116.262 142.788C116.614 142.972 117.018 143.064 117.474 143.064C117.85 143.064 118.19 143 118.494 142.872C118.806 142.744 119.078 142.552 119.31 142.296L119.946 143.04C119.658 143.376 119.298 143.632 118.866 143.808C118.442 143.984 117.966 144.072 117.438 144.072ZM125.349 137.58C125.869 137.58 126.325 137.68 126.717 137.88C127.117 138.08 127.429 138.384 127.653 138.792C127.877 139.2 127.989 139.716 127.989 140.34V144H126.837V140.472C126.837 139.856 126.685 139.392 126.381 139.08C126.085 138.768 125.665 138.612 125.121 138.612C124.713 138.612 124.357 138.692 124.053 138.852C123.749 139.012 123.513 139.248 123.345 139.56C123.185 139.872 123.105 140.26 123.105 140.724V144H121.953V137.64H123.057V139.356L122.877 138.9C123.085 138.484 123.405 138.16 123.837 137.928C124.269 137.696 124.773 137.58 125.349 137.58ZM132.305 144.072C131.665 144.072 131.169 143.9 130.817 143.556C130.465 143.212 130.289 142.72 130.289 142.08V136.248H131.441V142.032C131.441 142.376 131.525 142.64 131.693 142.824C131.869 143.008 132.117 143.1 132.437 143.1C132.797 143.1 133.097 143 133.337 142.8L133.697 143.628C133.521 143.78 133.309 143.892 133.061 143.964C132.821 144.036 132.569 144.072 132.305 144.072ZM129.209 138.588V137.64H133.265V138.588H129.209ZM135.09 144V137.64H136.194V139.368L136.086 138.936C136.262 138.496 136.558 138.16 136.974 137.928C137.39 137.696 137.902 137.58 138.51 137.58V138.696C138.462 138.688 138.414 138.684 138.366 138.684C138.326 138.684 138.286 138.684 138.246 138.684C137.63 138.684 137.142 138.868 136.782 139.236C136.422 139.604 136.242 140.136 136.242 140.832V144H135.09ZM142.595 144.072C141.955 144.072 141.387 143.932 140.891 143.652C140.395 143.372 140.003 142.988 139.715 142.5C139.427 142.004 139.283 141.444 139.283 140.82C139.283 140.188 139.427 139.628 139.715 139.14C140.003 138.652 140.395 138.272 140.891 138C141.387 137.72 141.955 137.58 142.595 137.58C143.227 137.58 143.791 137.72 144.287 138C144.791 138.272 145.183 138.652 145.463 139.14C145.751 139.62 145.895 140.18 145.895 140.82C145.895 141.452 145.751 142.012 145.463 142.5C145.183 142.988 144.791 143.372 144.287 143.652C143.791 143.932 143.227 144.072 142.595 144.072ZM142.595 143.064C143.003 143.064 143.367 142.972 143.687 142.788C144.015 142.604 144.271 142.344 144.455 142.008C144.639 141.664 144.731 141.268 144.731 140.82C144.731 140.364 144.639 139.972 144.455 139.644C144.271 139.308 144.015 139.048 143.687 138.864C143.367 138.68 143.003 138.588 142.595 138.588C142.187 138.588 141.823 138.68 141.503 138.864C141.183 139.048 140.927 139.308 140.735 139.644C140.543 139.972 140.447 140.364 140.447 140.82C140.447 141.268 140.543 141.664 140.735 142.008C140.927 142.344 141.183 142.604 141.503 142.788C141.823 142.972 142.187 143.064 142.595 143.064ZM153.543 144.072C152.863 144.072 152.263 143.932 151.743 143.652C151.231 143.372 150.831 142.988 150.543 142.5C150.263 142.012 150.123 141.452 150.123 140.82C150.123 140.188 150.259 139.628 150.531 139.14C150.811 138.652 151.191 138.272 151.671 138C152.159 137.72 152.707 137.58 153.315 137.58C153.931 137.58 154.475 137.716 154.947 137.988C155.419 138.26 155.787 138.644 156.051 139.14C156.323 139.628 156.459 140.2 156.459 140.856C156.459 140.904 156.455 140.96 156.447 141.024C156.447 141.088 156.443 141.148 156.435 141.204H151.023V140.376H155.835L155.367 140.664C155.375 140.256 155.291 139.892 155.115 139.572C154.939 139.252 154.695 139.004 154.383 138.828C154.079 138.644 153.723 138.552 153.315 138.552C152.915 138.552 152.559 138.644 152.247 138.828C151.935 139.004 151.691 139.256 151.515 139.584C151.339 139.904 151.251 140.272 151.251 140.688V140.88C151.251 141.304 151.347 141.684 151.539 142.02C151.739 142.348 152.015 142.604 152.367 142.788C152.719 142.972 153.123 143.064 153.579 143.064C153.955 143.064 154.295 143 154.599 142.872C154.911 142.744 155.183 142.552 155.415 142.296L156.051 143.04C155.763 143.376 155.403 143.632 154.971 143.808C154.547 143.984 154.071 144.072 153.543 144.072ZM66.4269 159.072C65.8989 159.072 65.4149 158.952 64.9749 158.712C64.5429 158.464 64.1949 158.1 63.9309 157.62C63.6749 157.14 63.5469 156.54 63.5469 155.82C63.5469 155.1 63.6709 154.5 63.9189 154.02C64.1749 153.54 64.5189 153.18 64.9509 152.94C65.3909 152.7 65.8829 152.58 66.4269 152.58C67.0509 152.58 67.6029 152.716 68.0829 152.988C68.5629 153.26 68.9429 153.64 69.2229 154.128C69.5029 154.608 69.6429 155.172 69.6429 155.82C69.6429 156.468 69.5029 157.036 69.2229 157.524C68.9429 158.012 68.5629 158.392 68.0829 158.664C67.6029 158.936 67.0509 159.072 66.4269 159.072ZM63.0549 161.328V152.64H64.1589V154.356L64.0869 155.832L64.2069 157.308V161.328H63.0549ZM66.3309 158.064C66.7389 158.064 67.1029 157.972 67.4229 157.788C67.7509 157.604 68.0069 157.344 68.1909 157.008C68.3829 156.664 68.4789 156.268 68.4789 155.82C68.4789 155.364 68.3829 154.972 68.1909 154.644C68.0069 154.308 67.7509 154.048 67.4229 153.864C67.1029 153.68 66.7389 153.588 66.3309 153.588C65.9309 153.588 65.5669 153.68 65.2389 153.864C64.9189 154.048 64.6629 154.308 64.4709 154.644C64.2869 154.972 64.1949 155.364 64.1949 155.82C64.1949 156.268 64.2869 156.664 64.4709 157.008C64.6629 157.344 64.9189 157.604 65.2389 157.788C65.5669 157.972 65.9309 158.064 66.3309 158.064ZM75.124 159V157.656L75.064 157.404V155.112C75.064 154.624 74.92 154.248 74.632 153.984C74.352 153.712 73.928 153.576 73.36 153.576C72.984 153.576 72.616 153.64 72.256 153.768C71.896 153.888 71.592 154.052 71.344 154.26L70.864 153.396C71.192 153.132 71.584 152.932 72.04 152.796C72.504 152.652 72.988 152.58 73.492 152.58C74.364 152.58 75.036 152.792 75.508 153.216C75.98 153.64 76.216 154.288 76.216 155.16V159H75.124ZM73.036 159.072C72.564 159.072 72.148 158.992 71.788 158.832C71.436 158.672 71.164 158.452 70.972 158.172C70.78 157.884 70.684 157.56 70.684 157.2C70.684 156.856 70.764 156.544 70.924 156.264C71.092 155.984 71.36 155.76 71.728 155.592C72.104 155.424 72.608 155.34 73.24 155.34H75.256V156.168H73.288C72.712 156.168 72.324 156.264 72.124 156.456C71.924 156.648 71.824 156.88 71.824 157.152C71.824 157.464 71.948 157.716 72.196 157.908C72.444 158.092 72.788 158.184 73.228 158.184C73.66 158.184 74.036 158.088 74.356 157.896C74.684 157.704 74.92 157.424 75.064 157.056L75.292 157.848C75.14 158.224 74.872 158.524 74.488 158.748C74.104 158.964 73.62 159.072 73.036 159.072ZM78.3479 159V152.64H79.4519V154.368L79.3439 153.936C79.5199 153.496 79.8159 153.16 80.2319 152.928C80.6479 152.696 81.1599 152.58 81.7679 152.58V153.696C81.7199 153.688 81.6719 153.684 81.6239 153.684C81.5839 153.684 81.5439 153.684 81.5039 153.684C80.8879 153.684 80.3999 153.868 80.0399 154.236C79.6799 154.604 79.4999 155.136 79.4999 155.832V159H78.3479ZM86.667 159V157.656L86.607 157.404V155.112C86.607 154.624 86.463 154.248 86.175 153.984C85.895 153.712 85.471 153.576 84.903 153.576C84.527 153.576 84.159 153.64 83.799 153.768C83.439 153.888 83.135 154.052 82.887 154.26L82.407 153.396C82.735 153.132 83.127 152.932 83.583 152.796C84.047 152.652 84.531 152.58 85.035 152.58C85.907 152.58 86.579 152.792 87.051 153.216C87.523 153.64 87.759 154.288 87.759 155.16V159H86.667ZM84.579 159.072C84.107 159.072 83.691 158.992 83.331 158.832C82.979 158.672 82.707 158.452 82.515 158.172C82.323 157.884 82.227 157.56 82.227 157.2C82.227 156.856 82.307 156.544 82.467 156.264C82.635 155.984 82.903 155.76 83.271 155.592C83.647 155.424 84.151 155.34 84.783 155.34H86.799V156.168H84.831C84.255 156.168 83.867 156.264 83.667 156.456C83.467 156.648 83.367 156.88 83.367 157.152C83.367 157.464 83.491 157.716 83.739 157.908C83.987 158.092 84.331 158.184 84.771 158.184C85.203 158.184 85.579 158.088 85.899 157.896C86.227 157.704 86.463 157.424 86.607 157.056L86.835 157.848C86.683 158.224 86.415 158.524 86.031 158.748C85.647 158.964 85.163 159.072 84.579 159.072ZM93.2815 159V152.076C93.2815 151.452 93.4615 150.956 93.8215 150.588C94.1895 150.212 94.7095 150.024 95.3815 150.024C95.6295 150.024 95.8655 150.056 96.0895 150.12C96.3215 150.176 96.5175 150.268 96.6775 150.396L96.3295 151.272C96.2095 151.176 96.0735 151.104 95.9215 151.056C95.7695 151 95.6095 150.972 95.4415 150.972C95.1055 150.972 94.8495 151.068 94.6735 151.26C94.4975 151.444 94.4095 151.72 94.4095 152.088V152.94L94.4335 153.468V159H93.2815ZM92.2015 153.588V152.64H96.2575V153.588H92.2015ZM99.9742 159.072C99.3342 159.072 98.7662 158.932 98.2702 158.652C97.7742 158.372 97.3822 157.988 97.0942 157.5C96.8062 157.004 96.6622 156.444 96.6622 155.82C96.6622 155.188 96.8062 154.628 97.0942 154.14C97.3822 153.652 97.7742 153.272 98.2702 153C98.7662 152.72 99.3342 152.58 99.9742 152.58C100.606 152.58 101.17 152.72 101.666 153C102.17 153.272 102.562 153.652 102.842 154.14C103.13 154.62 103.274 155.18 103.274 155.82C103.274 156.452 103.13 157.012 102.842 157.5C102.562 157.988 102.17 158.372 101.666 158.652C101.17 158.932 100.606 159.072 99.9742 159.072ZM99.9742 158.064C100.382 158.064 100.746 157.972 101.066 157.788C101.394 157.604 101.65 157.344 101.834 157.008C102.018 156.664 102.11 156.268 102.11 155.82C102.11 155.364 102.018 154.972 101.834 154.644C101.65 154.308 101.394 154.048 101.066 153.864C100.746 153.68 100.382 153.588 99.9742 153.588C99.5662 153.588 99.2022 153.68 98.8822 153.864C98.5622 154.048 98.3062 154.308 98.1142 154.644C97.9222 154.972 97.8262 155.364 97.8262 155.82C97.8262 156.268 97.9222 156.664 98.1142 157.008C98.3062 157.344 98.5622 157.604 98.8822 157.788C99.2022 157.972 99.5662 158.064 99.9742 158.064ZM104.867 159V152.64H105.971V154.368L105.863 153.936C106.039 153.496 106.335 153.16 106.751 152.928C107.167 152.696 107.679 152.58 108.287 152.58V153.696C108.239 153.688 108.191 153.684 108.143 153.684C108.103 153.684 108.063 153.684 108.023 153.684C107.407 153.684 106.919 153.868 106.559 154.236C106.199 154.604 106.019 155.136 106.019 155.832V159H104.867ZM113.186 159V157.656L113.126 157.404V155.112C113.126 154.624 112.982 154.248 112.694 153.984C112.414 153.712 111.99 153.576 111.422 153.576C111.046 153.576 110.678 153.64 110.318 153.768C109.958 153.888 109.654 154.052 109.406 154.26L108.926 153.396C109.254 153.132 109.646 152.932 110.102 152.796C110.566 152.652 111.05 152.58 111.554 152.58C112.426 152.58 113.098 152.792 113.57 153.216C114.042 153.64 114.278 154.288 114.278 155.16V159H113.186ZM111.098 159.072C110.626 159.072 110.21 158.992 109.85 158.832C109.498 158.672 109.226 158.452 109.034 158.172C108.842 157.884 108.746 157.56 108.746 157.2C108.746 156.856 108.826 156.544 108.986 156.264C109.154 155.984 109.422 155.76 109.79 155.592C110.166 155.424 110.67 155.34 111.302 155.34H113.318V156.168H111.35C110.774 156.168 110.386 156.264 110.186 156.456C109.986 156.648 109.886 156.88 109.886 157.152C109.886 157.464 110.01 157.716 110.258 157.908C110.506 158.092 110.85 158.184 111.29 158.184C111.722 158.184 112.098 158.088 112.418 157.896C112.746 157.704 112.982 157.424 113.126 157.056L113.354 157.848C113.202 158.224 112.934 158.524 112.55 158.748C112.166 158.964 111.682 159.072 111.098 159.072ZM116.686 159.072C116.462 159.072 116.27 158.996 116.11 158.844C115.95 158.684 115.87 158.484 115.87 158.244C115.87 158.004 115.95 157.808 116.11 157.656C116.27 157.504 116.462 157.428 116.686 157.428C116.902 157.428 117.086 157.504 117.238 157.656C117.398 157.808 117.478 158.004 117.478 158.244C117.478 158.484 117.398 158.684 117.238 158.844C117.086 158.996 116.902 159.072 116.686 159.072Z" fill="#008E86"/>
<path d="M42 55L87.5 37.5L132 55L87.5 72.5L42 55Z" fill="#008E86" stroke="#00635D" stroke-width="2" stroke-linejoin="round"/>
<path d="M108.387 39.8107C107.835 39.8107 107.387 40.2584 107.387 40.8107C107.387 41.363 107.835 41.8107 108.387 41.8107L108.387 39.8107ZM138.836 46.1529C139.227 45.7623 139.227 45.1292 138.836 44.7387L132.472 38.3747C132.082 37.9842 131.449 37.9842 131.058 38.3747C130.667 38.7653 130.667 39.3984 131.058 39.789L136.715 45.4458L131.058 51.1027C130.668 51.4932 130.668 52.1264 131.058 52.5169C131.449 52.9074 132.082 52.9074 132.472 52.5169L138.836 46.1529ZM124.61 40.8107L125.317 41.5178C125.603 41.2318 125.689 40.8017 125.534 40.428C125.379 40.0543 125.015 39.8107 124.61 39.8107L124.61 40.8107ZM120.361 45.4458L119.654 44.7387C119.368 45.0247 119.283 45.4548 119.438 45.8285C119.592 46.2022 119.957 46.4458 120.361 46.4458L120.361 45.4458ZM108.387 41.8107C111.622 41.8107 118.773 41.8107 124.61 41.8107L124.61 39.8107C118.773 39.8107 111.622 39.8107 108.387 39.8107L108.387 41.8107ZM123.903 40.1036C122.714 41.2926 122.305 41.802 121.857 42.3502C121.443 42.8557 120.983 43.4104 119.654 44.7387L121.069 46.1529C122.444 44.7774 122.949 44.1734 123.405 43.6166C123.825 43.1026 124.189 42.6463 125.317 41.5178L123.903 40.1036ZM120.361 46.4458C123.838 46.4459 135.49 46.4458 138.129 46.4458L138.129 44.4458C135.49 44.4458 123.838 44.4459 120.361 44.4458L120.361 46.4458Z" fill="black"/>
<path d="M87.4995 37.5L132 55.0001L87.4995 72.5L96.4995 55.0001L87.4995 37.5Z" fill="#00D8CC" stroke="#00635D" stroke-width="2" stroke-linejoin="round"/>
<path d="M111.877 63.0705L111.877 47.4288" stroke="#333333" stroke-width="2" stroke-dasharray="4 2"/>
<path d="M117.878 60.9267L117.877 50.0011" stroke="#333333" stroke-width="2" stroke-dasharray="4 2"/>
<path opacity="0.25" d="M132 55.2109L42 55.2109" stroke="#333333" stroke-width="2"/>
</g>
<defs>
<clipPath id="clip0_16_88">
<rect width="180" height="180" rx="20" fill="white"/>
</clipPath>
<clipPath id="clip1_16_88">
<path d="M0 30L-1.31134e-06 0L30 -1.31134e-06L30 10C30 21.0457 21.0457 30 10 30L0 30Z" fill="white"/>
</clipPath>
</defs>
</svg>
