<svg width="180" height="180" viewBox="0 0 180 180" fill="none" xmlns="http://www.w3.org/2000/svg">
<g clip-path="url(#clip0_16_262)">
<rect width="180" height="180" rx="20" fill="#F2F2F2"/>
<g clip-path="url(#clip1_16_262)">
<path d="M0 30L-1.31134e-06 0L30 -1.31134e-06L30 10C30 21.0457 21.0457 30 10 30L0 30Z" fill="#333333"/>
<path d="M19.2733 18.888V21H10.8092V19.32L15.1293 15.24C15.5879 14.8027 15.8973 14.4293 16.0573 14.12C16.2173 13.8 16.2973 13.4853 16.2973 13.176C16.2973 12.728 16.1426 12.3867 15.8333 12.152C15.5346 11.9067 15.0919 11.784 14.5052 11.784C14.0146 11.784 13.5719 11.88 13.1773 12.072C12.7826 12.2533 12.4519 12.5307 12.1853 12.904L10.2973 11.688C10.7346 11.0373 11.3373 10.5307 12.1053 10.168C12.8733 9.79467 13.7533 9.608 14.7453 9.608C15.5773 9.608 16.3026 9.74667 16.9213 10.024C17.5506 10.2907 18.0359 10.6747 18.3773 11.176C18.7293 11.6667 18.9053 12.248 18.9053 12.92C18.9053 13.528 18.7773 14.0987 18.5213 14.632C18.2653 15.1653 17.7693 15.7733 17.0333 16.456L14.4573 18.888H19.2733Z" fill="#F2F2F2"/>
</g>
<path d="M31.9455 137V128.6H35.4855C36.3815 128.6 37.1695 128.776 37.8495 129.128C38.5375 129.48 39.0695 129.972 39.4455 130.604C39.8295 131.236 40.0215 131.968 40.0215 132.8C40.0215 133.632 39.8295 134.364 39.4455 134.996C39.0695 135.628 38.5375 136.12 37.8495 136.472C37.1695 136.824 36.3815 137 35.4855 137H31.9455ZM33.1455 135.956H35.4135C36.1095 135.956 36.7095 135.824 37.2135 135.56C37.7255 135.296 38.1215 134.928 38.4015 134.456C38.6815 133.976 38.8215 133.424 38.8215 132.8C38.8215 132.168 38.6815 131.616 38.4015 131.144C38.1215 130.672 37.7255 130.304 37.2135 130.04C36.7095 129.776 36.1095 129.644 35.4135 129.644H33.1455V135.956ZM44.4156 137.072C43.7756 137.072 43.2076 136.932 42.7116 136.652C42.2156 136.372 41.8236 135.988 41.5356 135.5C41.2476 135.004 41.1036 134.444 41.1036 133.82C41.1036 133.188 41.2476 132.628 41.5356 132.14C41.8236 131.652 42.2156 131.272 42.7116 131C43.2076 130.72 43.7756 130.58 44.4156 130.58C45.0476 130.58 45.6116 130.72 46.1076 131C46.6116 131.272 47.0036 131.652 47.2836 132.14C47.5716 132.62 47.7156 133.18 47.7156 133.82C47.7156 134.452 47.5716 135.012 47.2836 135.5C47.0036 135.988 46.6116 136.372 46.1076 136.652C45.6116 136.932 45.0476 137.072 44.4156 137.072ZM44.4156 136.064C44.8236 136.064 45.1876 135.972 45.5076 135.788C45.8356 135.604 46.0916 135.344 46.2756 135.008C46.4596 134.664 46.5516 134.268 46.5516 133.82C46.5516 133.364 46.4596 132.972 46.2756 132.644C46.0916 132.308 45.8356 132.048 45.5076 131.864C45.1876 131.68 44.8236 131.588 44.4156 131.588C44.0076 131.588 43.6436 131.68 43.3236 131.864C43.0036 132.048 42.7476 132.308 42.5556 132.644C42.3636 132.972 42.2676 133.364 42.2676 133.82C42.2676 134.268 42.3636 134.664 42.5556 135.008C42.7476 135.344 43.0036 135.604 43.3236 135.788C43.6436 135.972 44.0076 136.064 44.4156 136.064ZM52.6808 137.072C52.1368 137.072 51.6448 136.952 51.2048 136.712C50.7728 136.464 50.4288 136.1 50.1728 135.62C49.9248 135.14 49.8008 134.54 49.8008 133.82C49.8008 133.1 49.9288 132.5 50.1848 132.02C50.4488 131.54 50.7968 131.18 51.2288 130.94C51.6688 130.7 52.1528 130.58 52.6808 130.58C53.3048 130.58 53.8568 130.716 54.3368 130.988C54.8168 131.26 55.1968 131.64 55.4768 132.128C55.7568 132.608 55.8968 133.172 55.8968 133.82C55.8968 134.468 55.7568 135.036 55.4768 135.524C55.1968 136.012 54.8168 136.392 54.3368 136.664C53.8568 136.936 53.3048 137.072 52.6808 137.072ZM49.3088 137V128.096H50.4608V132.332L50.3408 133.808L50.4128 135.284V137H49.3088ZM52.5848 136.064C52.9928 136.064 53.3568 135.972 53.6768 135.788C54.0048 135.604 54.2608 135.344 54.4448 135.008C54.6368 134.664 54.7328 134.268 54.7328 133.82C54.7328 133.364 54.6368 132.972 54.4448 132.644C54.2608 132.308 54.0048 132.048 53.6768 131.864C53.3568 131.68 52.9928 131.588 52.5848 131.588C52.1848 131.588 51.8208 131.68 51.4928 131.864C51.1728 132.048 50.9168 132.308 50.7248 132.644C50.5408 132.972 50.4488 133.364 50.4488 133.82C50.4488 134.268 50.5408 134.664 50.7248 135.008C50.9168 135.344 51.1728 135.604 51.4928 135.788C51.8208 135.972 52.1848 136.064 52.5848 136.064ZM57.4885 137V130.64H58.5925V132.368L58.4845 131.936C58.6605 131.496 58.9565 131.16 59.3725 130.928C59.7885 130.696 60.3005 130.58 60.9085 130.58V131.696C60.8605 131.688 60.8125 131.684 60.7645 131.684C60.7245 131.684 60.6845 131.684 60.6445 131.684C60.0285 131.684 59.5405 131.868 59.1805 132.236C58.8205 132.604 58.6405 133.136 58.6405 133.832V137H57.4885ZM65.1017 137.072C64.4217 137.072 63.8217 136.932 63.3017 136.652C62.7897 136.372 62.3897 135.988 62.1017 135.5C61.8217 135.012 61.6817 134.452 61.6817 133.82C61.6817 133.188 61.8177 132.628 62.0897 132.14C62.3697 131.652 62.7497 131.272 63.2297 131C63.7177 130.72 64.2657 130.58 64.8737 130.58C65.4897 130.58 66.0337 130.716 66.5057 130.988C66.9777 131.26 67.3457 131.644 67.6097 132.14C67.8817 132.628 68.0177 133.2 68.0177 133.856C68.0177 133.904 68.0137 133.96 68.0057 134.024C68.0057 134.088 68.0017 134.148 67.9937 134.204H62.5817V133.376H67.3937L66.9257 133.664C66.9337 133.256 66.8497 132.892 66.6737 132.572C66.4977 132.252 66.2537 132.004 65.9417 131.828C65.6377 131.644 65.2817 131.552 64.8737 131.552C64.4737 131.552 64.1177 131.644 63.8057 131.828C63.4937 132.004 63.2497 132.256 63.0737 132.584C62.8977 132.904 62.8097 133.272 62.8097 133.688V133.88C62.8097 134.304 62.9057 134.684 63.0977 135.02C63.2977 135.348 63.5737 135.604 63.9257 135.788C64.2777 135.972 64.6817 136.064 65.1377 136.064C65.5137 136.064 65.8537 136 66.1577 135.872C66.4697 135.744 66.7417 135.552 66.9737 135.296L67.6097 136.04C67.3217 136.376 66.9617 136.632 66.5297 136.808C66.1057 136.984 65.6297 137.072 65.1017 137.072ZM75.564 137.072C74.924 137.072 74.356 136.932 73.86 136.652C73.364 136.372 72.972 135.988 72.684 135.5C72.396 135.004 72.252 134.444 72.252 133.82C72.252 133.188 72.396 132.628 72.684 132.14C72.972 131.652 73.364 131.272 73.86 131C74.356 130.72 74.924 130.58 75.564 130.58C76.196 130.58 76.76 130.72 77.256 131C77.76 131.272 78.152 131.652 78.432 132.14C78.72 132.62 78.864 133.18 78.864 133.82C78.864 134.452 78.72 135.012 78.432 135.5C78.152 135.988 77.76 136.372 77.256 136.652C76.76 136.932 76.196 137.072 75.564 137.072ZM75.564 136.064C75.972 136.064 76.336 135.972 76.656 135.788C76.984 135.604 77.24 135.344 77.424 135.008C77.608 134.664 77.7 134.268 77.7 133.82C77.7 133.364 77.608 132.972 77.424 132.644C77.24 132.308 76.984 132.048 76.656 131.864C76.336 131.68 75.972 131.588 75.564 131.588C75.156 131.588 74.792 131.68 74.472 131.864C74.152 132.048 73.896 132.308 73.704 132.644C73.512 132.972 73.416 133.364 73.416 133.82C73.416 134.268 73.512 134.664 73.704 135.008C73.896 135.344 74.152 135.604 74.472 135.788C74.792 135.972 75.156 136.064 75.564 136.064ZM82.2812 137.072C81.7532 137.072 81.2492 137 80.7692 136.856C80.2972 136.712 79.9252 136.536 79.6532 136.328L80.1332 135.416C80.4052 135.6 80.7412 135.756 81.1412 135.884C81.5412 136.012 81.9492 136.076 82.3652 136.076C82.9012 136.076 83.2852 136 83.5172 135.848C83.7572 135.696 83.8772 135.484 83.8772 135.212C83.8772 135.012 83.8052 134.856 83.6612 134.744C83.5172 134.632 83.3252 134.548 83.0852 134.492C82.8532 134.436 82.5932 134.388 82.3052 134.348C82.0172 134.3 81.7292 134.244 81.4412 134.18C81.1532 134.108 80.8892 134.012 80.6492 133.892C80.4092 133.764 80.2172 133.592 80.0732 133.376C79.9292 133.152 79.8572 132.856 79.8572 132.488C79.8572 132.104 79.9652 131.768 80.1812 131.48C80.3972 131.192 80.7012 130.972 81.0932 130.82C81.4932 130.66 81.9652 130.58 82.5092 130.58C82.9252 130.58 83.3452 130.632 83.7692 130.736C84.2012 130.832 84.5532 130.972 84.8252 131.156L84.3332 132.068C84.0452 131.876 83.7452 131.744 83.4332 131.672C83.1212 131.6 82.8092 131.564 82.4972 131.564C81.9932 131.564 81.6172 131.648 81.3692 131.816C81.1212 131.976 80.9972 132.184 80.9972 132.44C80.9972 132.656 81.0692 132.824 81.2132 132.944C81.3652 133.056 81.5572 133.144 81.7892 133.208C82.0292 133.272 82.2932 133.328 82.5812 133.376C82.8692 133.416 83.1572 133.472 83.4452 133.544C83.7332 133.608 83.9932 133.7 84.2252 133.82C84.4652 133.94 84.6572 134.108 84.8012 134.324C84.9532 134.54 85.0292 134.828 85.0292 135.188C85.0292 135.572 84.9172 135.904 84.6932 136.184C84.4692 136.464 84.1532 136.684 83.7452 136.844C83.3372 136.996 82.8492 137.072 82.2812 137.072ZM92.3196 137.072C91.7036 137.072 91.1516 136.936 90.6636 136.664C90.1836 136.392 89.8036 136.012 89.5236 135.524C89.2436 135.036 89.1036 134.468 89.1036 133.82C89.1036 133.172 89.2436 132.608 89.5236 132.128C89.8036 131.64 90.1836 131.26 90.6636 130.988C91.1516 130.716 91.7036 130.58 92.3196 130.58C92.8556 130.58 93.3396 130.7 93.7716 130.94C94.2036 131.18 94.5476 131.54 94.8036 132.02C95.0676 132.5 95.1996 133.1 95.1996 133.82C95.1996 134.54 95.0716 135.14 94.8156 135.62C94.5676 136.1 94.2276 136.464 93.7956 136.712C93.3636 136.952 92.8716 137.072 92.3196 137.072ZM92.4156 136.064C92.8156 136.064 93.1756 135.972 93.4956 135.788C93.8236 135.604 94.0796 135.344 94.2636 135.008C94.4556 134.664 94.5516 134.268 94.5516 133.82C94.5516 133.364 94.4556 132.972 94.2636 132.644C94.0796 132.308 93.8236 132.048 93.4956 131.864C93.1756 131.68 92.8156 131.588 92.4156 131.588C92.0076 131.588 91.6436 131.68 91.3236 131.864C91.0036 132.048 90.7476 132.308 90.5556 132.644C90.3636 132.972 90.2676 133.364 90.2676 133.82C90.2676 134.268 90.3636 134.664 90.5556 135.008C90.7476 135.344 91.0036 135.604 91.3236 135.788C91.6436 135.972 92.0076 136.064 92.4156 136.064ZM94.5876 137V135.284L94.6596 133.808L94.5396 132.332V128.096H95.6916V137H94.5876ZM100.595 137.072C99.9553 137.072 99.3873 136.932 98.8913 136.652C98.3953 136.372 98.0033 135.988 97.7153 135.5C97.4273 135.004 97.2833 134.444 97.2833 133.82C97.2833 133.188 97.4273 132.628 97.7153 132.14C98.0033 131.652 98.3953 131.272 98.8913 131C99.3873 130.72 99.9553 130.58 100.595 130.58C101.227 130.58 101.791 130.72 102.287 131C102.791 131.272 103.183 131.652 103.463 132.14C103.751 132.62 103.895 133.18 103.895 133.82C103.895 134.452 103.751 135.012 103.463 135.5C103.183 135.988 102.791 136.372 102.287 136.652C101.791 136.932 101.227 137.072 100.595 137.072ZM100.595 136.064C101.003 136.064 101.367 135.972 101.687 135.788C102.015 135.604 102.271 135.344 102.455 135.008C102.639 134.664 102.731 134.268 102.731 133.82C102.731 133.364 102.639 132.972 102.455 132.644C102.271 132.308 102.015 132.048 101.687 131.864C101.367 131.68 101.003 131.588 100.595 131.588C100.187 131.588 99.8233 131.68 99.5033 131.864C99.1833 132.048 98.9273 132.308 98.7353 132.644C98.5433 132.972 98.4473 133.364 98.4473 133.82C98.4473 134.268 98.5433 134.664 98.7353 135.008C98.9273 135.344 99.1833 135.604 99.5033 135.788C99.8233 135.972 100.187 136.064 100.595 136.064ZM105.488 137V130.64H106.64V137H105.488ZM106.064 129.416C105.84 129.416 105.652 129.344 105.5 129.2C105.356 129.056 105.284 128.88 105.284 128.672C105.284 128.456 105.356 128.276 105.5 128.132C105.652 127.988 105.84 127.916 106.064 127.916C106.288 127.916 106.472 127.988 106.616 128.132C106.768 128.268 106.844 128.44 106.844 128.648C106.844 128.864 106.772 129.048 106.628 129.2C106.484 129.344 106.296 129.416 106.064 129.416ZM110.664 137.072C110.136 137.072 109.632 137 109.152 136.856C108.68 136.712 108.308 136.536 108.036 136.328L108.516 135.416C108.788 135.6 109.124 135.756 109.524 135.884C109.924 136.012 110.332 136.076 110.748 136.076C111.284 136.076 111.668 136 111.9 135.848C112.14 135.696 112.26 135.484 112.26 135.212C112.26 135.012 112.188 134.856 112.044 134.744C111.9 134.632 111.708 134.548 111.468 134.492C111.236 134.436 110.976 134.388 110.688 134.348C110.4 134.3 110.112 134.244 109.824 134.18C109.536 134.108 109.272 134.012 109.032 133.892C108.792 133.764 108.6 133.592 108.456 133.376C108.312 133.152 108.24 132.856 108.24 132.488C108.24 132.104 108.348 131.768 108.564 131.48C108.78 131.192 109.084 130.972 109.476 130.82C109.876 130.66 110.348 130.58 110.892 130.58C111.308 130.58 111.728 130.632 112.152 130.736C112.584 130.832 112.936 130.972 113.208 131.156L112.716 132.068C112.428 131.876 112.128 131.744 111.816 131.672C111.504 131.6 111.192 131.564 110.88 131.564C110.376 131.564 110 131.648 109.752 131.816C109.504 131.976 109.38 132.184 109.38 132.44C109.38 132.656 109.452 132.824 109.596 132.944C109.748 133.056 109.94 133.144 110.172 133.208C110.412 133.272 110.676 133.328 110.964 133.376C111.252 133.416 111.54 133.472 111.828 133.544C112.116 133.608 112.376 133.7 112.608 133.82C112.848 133.94 113.04 134.108 113.184 134.324C113.336 134.54 113.412 134.828 113.412 135.188C113.412 135.572 113.3 135.904 113.076 136.184C112.852 136.464 112.536 136.684 112.128 136.844C111.72 136.996 111.232 137.072 110.664 137.072ZM118.074 137V128.096H119.226V137H118.074ZM125.374 137V135.656L125.314 135.404V133.112C125.314 132.624 125.17 132.248 124.882 131.984C124.602 131.712 124.178 131.576 123.61 131.576C123.234 131.576 122.866 131.64 122.506 131.768C122.146 131.888 121.842 132.052 121.594 132.26L121.114 131.396C121.442 131.132 121.834 130.932 122.29 130.796C122.754 130.652 123.238 130.58 123.742 130.58C124.614 130.58 125.286 130.792 125.758 131.216C126.23 131.64 126.466 132.288 126.466 133.16V137H125.374ZM123.286 137.072C122.814 137.072 122.398 136.992 122.038 136.832C121.686 136.672 121.414 136.452 121.222 136.172C121.03 135.884 120.934 135.56 120.934 135.2C120.934 134.856 121.014 134.544 121.174 134.264C121.342 133.984 121.61 133.76 121.978 133.592C122.354 133.424 122.858 133.34 123.49 133.34H125.506V134.168H123.538C122.962 134.168 122.574 134.264 122.374 134.456C122.174 134.648 122.074 134.88 122.074 135.152C122.074 135.464 122.198 135.716 122.446 135.908C122.694 136.092 123.038 136.184 123.478 136.184C123.91 136.184 124.286 136.088 124.606 135.896C124.934 135.704 125.17 135.424 125.314 135.056L125.542 135.848C125.39 136.224 125.122 136.524 124.738 136.748C124.354 136.964 123.87 137.072 123.286 137.072ZM131.226 137.072C130.61 137.072 130.058 136.936 129.57 136.664C129.09 136.392 128.71 136.012 128.43 135.524C128.15 135.036 128.01 134.468 128.01 133.82C128.01 133.172 128.15 132.608 128.43 132.128C128.71 131.64 129.09 131.26 129.57 130.988C130.058 130.716 130.61 130.58 131.226 130.58C131.762 130.58 132.246 130.7 132.678 130.94C133.11 131.18 133.454 131.54 133.71 132.02C133.974 132.5 134.106 133.1 134.106 133.82C134.106 134.54 133.978 135.14 133.722 135.62C133.474 136.1 133.134 136.464 132.702 136.712C132.27 136.952 131.778 137.072 131.226 137.072ZM131.322 136.064C131.722 136.064 132.082 135.972 132.402 135.788C132.73 135.604 132.986 135.344 133.17 135.008C133.362 134.664 133.458 134.268 133.458 133.82C133.458 133.364 133.362 132.972 133.17 132.644C132.986 132.308 132.73 132.048 132.402 131.864C132.082 131.68 131.722 131.588 131.322 131.588C130.914 131.588 130.55 131.68 130.23 131.864C129.91 132.048 129.654 132.308 129.462 132.644C129.27 132.972 129.174 133.364 129.174 133.82C129.174 134.268 129.27 134.664 129.462 135.008C129.654 135.344 129.91 135.604 130.23 135.788C130.55 135.972 130.914 136.064 131.322 136.064ZM133.494 137V135.284L133.566 133.808L133.446 132.332V128.096H134.598V137H133.494ZM139.502 137.072C138.862 137.072 138.294 136.932 137.798 136.652C137.302 136.372 136.91 135.988 136.622 135.5C136.334 135.004 136.19 134.444 136.19 133.82C136.19 133.188 136.334 132.628 136.622 132.14C136.91 131.652 137.302 131.272 137.798 131C138.294 130.72 138.862 130.58 139.502 130.58C140.134 130.58 140.698 130.72 141.194 131C141.698 131.272 142.09 131.652 142.37 132.14C142.658 132.62 142.802 133.18 142.802 133.82C142.802 134.452 142.658 135.012 142.37 135.5C142.09 135.988 141.698 136.372 141.194 136.652C140.698 136.932 140.134 137.072 139.502 137.072ZM139.502 136.064C139.91 136.064 140.274 135.972 140.594 135.788C140.922 135.604 141.178 135.344 141.362 135.008C141.546 134.664 141.638 134.268 141.638 133.82C141.638 133.364 141.546 132.972 141.362 132.644C141.178 132.308 140.922 132.048 140.594 131.864C140.274 131.68 139.91 131.588 139.502 131.588C139.094 131.588 138.73 131.68 138.41 131.864C138.09 132.048 137.834 132.308 137.642 132.644C137.45 132.972 137.354 133.364 137.354 133.82C137.354 134.268 137.45 134.664 137.642 135.008C137.834 135.344 138.09 135.604 138.41 135.788C138.73 135.972 139.094 136.064 139.502 136.064ZM146.219 137.072C145.691 137.072 145.187 137 144.707 136.856C144.235 136.712 143.863 136.536 143.591 136.328L144.071 135.416C144.343 135.6 144.679 135.756 145.079 135.884C145.479 136.012 145.887 136.076 146.303 136.076C146.839 136.076 147.223 136 147.455 135.848C147.695 135.696 147.815 135.484 147.815 135.212C147.815 135.012 147.743 134.856 147.599 134.744C147.455 134.632 147.263 134.548 147.023 134.492C146.791 134.436 146.531 134.388 146.243 134.348C145.955 134.3 145.667 134.244 145.379 134.18C145.091 134.108 144.827 134.012 144.587 133.892C144.347 133.764 144.155 133.592 144.011 133.376C143.867 133.152 143.795 132.856 143.795 132.488C143.795 132.104 143.903 131.768 144.119 131.48C144.335 131.192 144.639 130.972 145.031 130.82C145.431 130.66 145.903 130.58 146.447 130.58C146.863 130.58 147.283 130.632 147.707 130.736C148.139 130.832 148.491 130.972 148.763 131.156L148.271 132.068C147.983 131.876 147.683 131.744 147.371 131.672C147.059 131.6 146.747 131.564 146.435 131.564C145.931 131.564 145.555 131.648 145.307 131.816C145.059 131.976 144.935 132.184 144.935 132.44C144.935 132.656 145.007 132.824 145.151 132.944C145.303 133.056 145.495 133.144 145.727 133.208C145.967 133.272 146.231 133.328 146.519 133.376C146.807 133.416 147.095 133.472 147.383 133.544C147.671 133.608 147.931 133.7 148.163 133.82C148.403 133.94 148.595 134.108 148.739 134.324C148.891 134.54 148.967 134.828 148.967 135.188C148.967 135.572 148.855 135.904 148.631 136.184C148.407 136.464 148.091 136.684 147.683 136.844C147.275 136.996 146.787 137.072 146.219 137.072ZM67.8509 152.072C67.2349 152.072 66.6829 151.936 66.1949 151.664C65.7149 151.392 65.3349 151.012 65.0549 150.524C64.7749 150.036 64.6349 149.468 64.6349 148.82C64.6349 148.172 64.7749 147.608 65.0549 147.128C65.3349 146.64 65.7149 146.26 66.1949 145.988C66.6829 145.716 67.2349 145.58 67.8509 145.58C68.3869 145.58 68.8709 145.7 69.3029 145.94C69.7349 146.18 70.0789 146.54 70.3349 147.02C70.5989 147.5 70.7309 148.1 70.7309 148.82C70.7309 149.54 70.6029 150.14 70.3469 150.62C70.0989 151.1 69.7589 151.464 69.3269 151.712C68.8949 151.952 68.4029 152.072 67.8509 152.072ZM67.9469 151.064C68.3469 151.064 68.7069 150.972 69.0269 150.788C69.3549 150.604 69.6109 150.344 69.7949 150.008C69.9869 149.664 70.0829 149.268 70.0829 148.82C70.0829 148.364 69.9869 147.972 69.7949 147.644C69.6109 147.308 69.3549 147.048 69.0269 146.864C68.7069 146.68 68.3469 146.588 67.9469 146.588C67.5389 146.588 67.1749 146.68 66.8549 146.864C66.5349 147.048 66.2789 147.308 66.0869 147.644C65.8949 147.972 65.7989 148.364 65.7989 148.82C65.7989 149.268 65.8949 149.664 66.0869 150.008C66.2789 150.344 66.5349 150.604 66.8549 150.788C67.1749 150.972 67.5389 151.064 67.9469 151.064ZM70.1189 152V150.284L70.1909 148.808L70.0709 147.332V143.096H71.2229V152H70.1189ZM77.3505 152V150.656L77.2905 150.404V148.112C77.2905 147.624 77.1465 147.248 76.8585 146.984C76.5785 146.712 76.1545 146.576 75.5865 146.576C75.2105 146.576 74.8425 146.64 74.4825 146.768C74.1225 146.888 73.8185 147.052 73.5705 147.26L73.0905 146.396C73.4185 146.132 73.8105 145.932 74.2665 145.796C74.7305 145.652 75.2145 145.58 75.7185 145.58C76.5905 145.58 77.2625 145.792 77.7345 146.216C78.2065 146.64 78.4425 147.288 78.4425 148.16V152H77.3505ZM75.2625 152.072C74.7905 152.072 74.3745 151.992 74.0145 151.832C73.6625 151.672 73.3905 151.452 73.1985 151.172C73.0065 150.884 72.9105 150.56 72.9105 150.2C72.9105 149.856 72.9905 149.544 73.1505 149.264C73.3185 148.984 73.5865 148.76 73.9545 148.592C74.3305 148.424 74.8345 148.34 75.4665 148.34H77.4825V149.168H75.5145C74.9385 149.168 74.5505 149.264 74.3505 149.456C74.1505 149.648 74.0505 149.88 74.0505 150.152C74.0505 150.464 74.1745 150.716 74.4225 150.908C74.6705 151.092 75.0145 151.184 75.4545 151.184C75.8865 151.184 76.2625 151.088 76.5825 150.896C76.9105 150.704 77.1465 150.424 77.2905 150.056L77.5185 150.848C77.3665 151.224 77.0985 151.524 76.7145 151.748C76.3305 151.964 75.8465 152.072 75.2625 152.072ZM83.9651 152V145.076C83.9651 144.452 84.1451 143.956 84.5051 143.588C84.8731 143.212 85.3931 143.024 86.0651 143.024C86.3131 143.024 86.5491 143.056 86.7731 143.12C87.0051 143.176 87.2011 143.268 87.3611 143.396L87.0131 144.272C86.8931 144.176 86.7571 144.104 86.6051 144.056C86.4531 144 86.2931 143.972 86.1251 143.972C85.7891 143.972 85.5331 144.068 85.3571 144.26C85.1811 144.444 85.0931 144.72 85.0931 145.088V145.94L85.1171 146.468V152H83.9651ZM82.8851 146.588V145.64H86.9411V146.588H82.8851ZM90.6578 152.072C90.0178 152.072 89.4498 151.932 88.9538 151.652C88.4578 151.372 88.0658 150.988 87.7778 150.5C87.4898 150.004 87.3458 149.444 87.3458 148.82C87.3458 148.188 87.4898 147.628 87.7778 147.14C88.0658 146.652 88.4578 146.272 88.9538 146C89.4498 145.72 90.0178 145.58 90.6578 145.58C91.2898 145.58 91.8538 145.72 92.3498 146C92.8538 146.272 93.2458 146.652 93.5258 147.14C93.8138 147.62 93.9578 148.18 93.9578 148.82C93.9578 149.452 93.8138 150.012 93.5258 150.5C93.2458 150.988 92.8538 151.372 92.3498 151.652C91.8538 151.932 91.2898 152.072 90.6578 152.072ZM90.6578 151.064C91.0658 151.064 91.4298 150.972 91.7498 150.788C92.0778 150.604 92.3338 150.344 92.5178 150.008C92.7018 149.664 92.7938 149.268 92.7938 148.82C92.7938 148.364 92.7018 147.972 92.5178 147.644C92.3338 147.308 92.0778 147.048 91.7498 146.864C91.4298 146.68 91.0658 146.588 90.6578 146.588C90.2498 146.588 89.8858 146.68 89.5658 146.864C89.2458 147.048 88.9898 147.308 88.7978 147.644C88.6058 147.972 88.5098 148.364 88.5098 148.82C88.5098 149.268 88.6058 149.664 88.7978 150.008C88.9898 150.344 89.2458 150.604 89.5658 150.788C89.8858 150.972 90.2498 151.064 90.6578 151.064ZM95.551 152V143.096H96.703V152H95.551ZM102.299 145.58C102.819 145.58 103.275 145.68 103.667 145.88C104.067 146.08 104.379 146.384 104.603 146.792C104.827 147.2 104.939 147.716 104.939 148.34V152H103.787V148.472C103.787 147.856 103.635 147.392 103.331 147.08C103.035 146.768 102.615 146.612 102.071 146.612C101.663 146.612 101.307 146.692 101.003 146.852C100.699 147.012 100.463 147.248 100.295 147.56C100.135 147.872 100.055 148.26 100.055 148.724V152H98.9025V143.096H100.055V147.356L99.8265 146.9C100.035 146.484 100.355 146.16 100.787 145.928C101.219 145.696 101.723 145.58 102.299 145.58ZM111.019 152V150.656L110.959 150.404V148.112C110.959 147.624 110.815 147.248 110.527 146.984C110.247 146.712 109.823 146.576 109.255 146.576C108.879 146.576 108.511 146.64 108.151 146.768C107.791 146.888 107.487 147.052 107.239 147.26L106.759 146.396C107.087 146.132 107.479 145.932 107.935 145.796C108.399 145.652 108.883 145.58 109.387 145.58C110.259 145.58 110.931 145.792 111.403 146.216C111.875 146.64 112.111 147.288 112.111 148.16V152H111.019ZM108.931 152.072C108.459 152.072 108.043 151.992 107.683 151.832C107.331 151.672 107.059 151.452 106.867 151.172C106.675 150.884 106.579 150.56 106.579 150.2C106.579 149.856 106.659 149.544 106.819 149.264C106.987 148.984 107.255 148.76 107.623 148.592C107.999 148.424 108.503 148.34 109.135 148.34H111.151V149.168H109.183C108.607 149.168 108.219 149.264 108.019 149.456C107.819 149.648 107.719 149.88 107.719 150.152C107.719 150.464 107.843 150.716 108.091 150.908C108.339 151.092 108.683 151.184 109.123 151.184C109.555 151.184 109.931 151.088 110.251 150.896C110.579 150.704 110.815 150.424 110.959 150.056L111.187 150.848C111.035 151.224 110.767 151.524 110.383 151.748C109.999 151.964 109.515 152.072 108.931 152.072ZM114.518 152.072C114.294 152.072 114.102 151.996 113.942 151.844C113.782 151.684 113.702 151.484 113.702 151.244C113.702 151.004 113.782 150.808 113.942 150.656C114.102 150.504 114.294 150.428 114.518 150.428C114.734 150.428 114.918 150.504 115.07 150.656C115.23 150.808 115.31 151.004 115.31 151.244C115.31 151.484 115.23 151.684 115.07 151.844C114.918 151.996 114.734 152.072 114.518 152.072Z" fill="#008E86"/>
<rect x="47.5186" y="55" width="63.6396" height="63.6396" transform="rotate(-45 47.5186 55)" fill="#00D8CC" stroke="#00635D" stroke-width="2" stroke-linejoin="round"/>
<path d="M104.498 22L47.5057 55.2936" stroke="#333333" stroke-width="2" stroke-dasharray="4 6"/>
<path d="M104.5 87.9983L47.5063 55.2919" stroke="#333333" stroke-width="2" stroke-dasharray="4 6"/>
<path opacity="0.25" d="M137.519 55L47.5186 55" stroke="#333333" stroke-width="2"/>
<path d="M103.991 70.1289C103.509 69.8583 102.9 70.0292 102.629 70.5106L98.2189 78.3561C97.9483 78.8376 98.1192 79.4472 98.6006 79.7179C99.0821 79.9885 99.6917 79.8176 99.9624 79.3361L103.882 72.3624L110.856 76.2824C111.338 76.553 111.947 76.3821 112.218 75.9006C112.488 75.4192 112.318 74.8095 111.836 74.5389L103.991 70.1289ZM86.6295 87.1788C86.0977 87.0297 85.5458 87.34 85.3967 87.8718C85.2476 88.4036 85.5579 88.9555 86.0897 89.1046L86.6295 87.1788ZM102.538 71.2706C104.445 78.0735 103.416 82.6855 100.766 85.3354L102.18 86.7496C105.555 83.375 106.468 77.8796 104.464 70.7307L102.538 71.2706ZM100.766 85.3354C99.4938 86.6076 97.229 87.4397 94.5399 87.7522C91.8826 88.0609 88.9886 87.8401 86.6295 87.1788L86.0897 89.1046C88.7133 89.8401 91.87 90.0758 94.7707 89.7388C97.6397 89.4055 100.44 88.4896 102.18 86.7496L100.766 85.3354Z" fill="black"/>
<path d="M85.2307 20.5443C84.6989 20.6934 84.3887 21.2453 84.5378 21.7771C84.6868 22.3089 85.2388 22.6191 85.7706 22.4701L85.2307 20.5443ZM101.77 39.1382C102.041 39.6197 102.65 39.7906 103.132 39.5199L110.977 35.1099C111.459 34.8393 111.63 34.2297 111.359 33.7482C111.088 33.2668 110.479 33.0959 109.997 33.3665L103.023 37.2865L99.1034 30.3127C98.8328 29.8313 98.2231 29.6604 97.7417 29.931C97.2603 30.2016 97.0894 30.8113 97.36 31.2927L101.77 39.1382ZM85.7706 22.4701C92.5735 20.563 97.1855 21.5919 99.8354 24.2418L101.25 22.8276C97.875 19.453 92.3796 18.5403 85.2307 20.5443L85.7706 22.4701ZM99.8354 24.2418C101.108 25.514 101.94 27.7788 102.252 30.4679C102.561 33.1252 102.34 36.0192 101.679 38.3783L103.605 38.9181C104.34 36.2945 104.576 33.1378 104.239 30.2371C103.905 27.3681 102.99 24.5675 101.25 22.8276L99.8354 24.2418Z" fill="black"/>
</g>
<defs>
<clipPath id="clip0_16_262">
<rect width="180" height="180" rx="20" fill="white"/>
</clipPath>
<clipPath id="clip1_16_262">
<path d="M0 30L-1.31134e-06 0L30 -1.31134e-06L30 10C30 21.0457 21.0457 30 10 30L0 30Z" fill="white"/>
</clipPath>
</defs>
</svg>
