<svg width="180" height="180" viewBox="0 0 180 180" fill="none" xmlns="http://www.w3.org/2000/svg">
<rect width="180" height="180" rx="20" fill="#F2F2F2"/>
<path d="M31.893 129.096C31.253 129.096 30.661 128.992 30.117 128.784C29.581 128.568 29.113 128.268 28.713 127.884C28.321 127.492 28.013 127.036 27.789 126.516C27.565 125.996 27.453 125.424 27.453 124.8C27.453 124.176 27.565 123.604 27.789 123.084C28.013 122.564 28.325 122.112 28.725 121.728C29.125 121.336 29.593 121.036 30.129 120.828C30.673 120.612 31.265 120.504 31.905 120.504C32.553 120.504 33.149 120.616 33.693 120.84C34.245 121.056 34.713 121.38 35.097 121.812L34.317 122.568C33.997 122.232 33.637 121.984 33.237 121.824C32.837 121.656 32.409 121.572 31.953 121.572C31.481 121.572 31.041 121.652 30.633 121.812C30.233 121.972 29.885 122.196 29.589 122.484C29.293 122.772 29.061 123.116 28.893 123.516C28.733 123.908 28.653 124.336 28.653 124.8C28.653 125.264 28.733 125.696 28.893 126.096C29.061 126.488 29.293 126.828 29.589 127.116C29.885 127.404 30.233 127.628 30.633 127.788C31.041 127.948 31.481 128.028 31.953 128.028C32.409 128.028 32.837 127.948 33.237 127.788C33.637 127.62 33.997 127.364 34.317 127.02L35.097 127.776C34.713 128.208 34.245 128.536 33.693 128.76C33.149 128.984 32.549 129.096 31.893 129.096ZM36.6408 129V122.64H37.7448V124.368L37.6368 123.936C37.8128 123.496 38.1088 123.16 38.5248 122.928C38.9408 122.696 39.4528 122.58 40.0608 122.58V123.696C40.0128 123.688 39.9648 123.684 39.9168 123.684C39.8768 123.684 39.8368 123.684 39.7968 123.684C39.1808 123.684 38.6928 123.868 38.3328 124.236C37.9728 124.604 37.7928 125.136 37.7928 125.832V129H36.6408ZM41.4807 129V122.64H42.6327V129H41.4807ZM42.0567 121.416C41.8327 121.416 41.6447 121.344 41.4927 121.2C41.3487 121.056 41.2767 120.88 41.2767 120.672C41.2767 120.456 41.3487 120.276 41.4927 120.132C41.6447 119.988 41.8327 119.916 42.0567 119.916C42.2807 119.916 42.4647 119.988 42.6087 120.132C42.7607 120.268 42.8367 120.44 42.8367 120.648C42.8367 120.864 42.7647 121.048 42.6207 121.2C42.4767 121.344 42.2887 121.416 42.0567 121.416ZM47.6642 129.072C46.9842 129.072 46.3842 128.932 45.8642 128.652C45.3522 128.372 44.9522 127.988 44.6642 127.5C44.3842 127.012 44.2442 126.452 44.2442 125.82C44.2442 125.188 44.3802 124.628 44.6522 124.14C44.9322 123.652 45.3122 123.272 45.7922 123C46.2802 122.72 46.8282 122.58 47.4362 122.58C48.0522 122.58 48.5962 122.716 49.0682 122.988C49.5402 123.26 49.9082 123.644 50.1722 124.14C50.4442 124.628 50.5802 125.2 50.5802 125.856C50.5802 125.904 50.5762 125.96 50.5682 126.024C50.5682 126.088 50.5642 126.148 50.5562 126.204H45.1442V125.376H49.9562L49.4882 125.664C49.4962 125.256 49.4122 124.892 49.2362 124.572C49.0602 124.252 48.8162 124.004 48.5042 123.828C48.2002 123.644 47.8442 123.552 47.4362 123.552C47.0362 123.552 46.6802 123.644 46.3682 123.828C46.0562 124.004 45.8122 124.256 45.6362 124.584C45.4602 124.904 45.3722 125.272 45.3722 125.688V125.88C45.3722 126.304 45.4682 126.684 45.6602 127.02C45.8602 127.348 46.1362 127.604 46.4882 127.788C46.8402 127.972 47.2442 128.064 47.7002 128.064C48.0762 128.064 48.4162 128 48.7202 127.872C49.0322 127.744 49.3042 127.552 49.5362 127.296L50.1722 128.04C49.8842 128.376 49.5242 128.632 49.0922 128.808C48.6682 128.984 48.1922 129.072 47.6642 129.072ZM58.0305 129.072C57.4145 129.072 56.8625 128.936 56.3745 128.664C55.8945 128.392 55.5145 128.012 55.2345 127.524C54.9545 127.036 54.8145 126.468 54.8145 125.82C54.8145 125.172 54.9545 124.608 55.2345 124.128C55.5145 123.64 55.8945 123.26 56.3745 122.988C56.8625 122.716 57.4145 122.58 58.0305 122.58C58.5665 122.58 59.0505 122.7 59.4825 122.94C59.9145 123.18 60.2585 123.54 60.5145 124.02C60.7785 124.5 60.9105 125.1 60.9105 125.82C60.9105 126.54 60.7825 127.14 60.5265 127.62C60.2785 128.1 59.9385 128.464 59.5065 128.712C59.0745 128.952 58.5825 129.072 58.0305 129.072ZM58.1265 128.064C58.5265 128.064 58.8865 127.972 59.2065 127.788C59.5345 127.604 59.7905 127.344 59.9745 127.008C60.1665 126.664 60.2625 126.268 60.2625 125.82C60.2625 125.364 60.1665 124.972 59.9745 124.644C59.7905 124.308 59.5345 124.048 59.2065 123.864C58.8865 123.68 58.5265 123.588 58.1265 123.588C57.7185 123.588 57.3545 123.68 57.0345 123.864C56.7145 124.048 56.4585 124.308 56.2665 124.644C56.0745 124.972 55.9785 125.364 55.9785 125.82C55.9785 126.268 56.0745 126.664 56.2665 127.008C56.4585 127.344 56.7145 127.604 57.0345 127.788C57.3545 127.972 57.7185 128.064 58.1265 128.064ZM60.2985 129V127.284L60.3705 125.808L60.2505 124.332V120.096H61.4025V129H60.2985ZM66.2582 129.072C65.7142 129.072 65.2342 128.972 64.8182 128.772C64.4102 128.572 64.0902 128.268 63.8582 127.86C63.6342 127.444 63.5222 126.924 63.5222 126.3V122.64H64.6742V126.168C64.6742 126.792 64.8222 127.26 65.1182 127.572C65.4222 127.884 65.8462 128.04 66.3902 128.04C66.7902 128.04 67.1382 127.96 67.4342 127.8C67.7302 127.632 67.9582 127.392 68.1182 127.08C68.2782 126.76 68.3582 126.376 68.3582 125.928V122.64H69.5102V129H68.4182V127.284L68.5982 127.74C68.3902 128.164 68.0782 128.492 67.6622 128.724C67.2462 128.956 66.7782 129.072 66.2582 129.072ZM75.6513 129V127.656L75.5913 127.404V125.112C75.5913 124.624 75.4473 124.248 75.1593 123.984C74.8793 123.712 74.4553 123.576 73.8873 123.576C73.5113 123.576 73.1433 123.64 72.7833 123.768C72.4233 123.888 72.1193 124.052 71.8713 124.26L71.3913 123.396C71.7193 123.132 72.1113 122.932 72.5673 122.796C73.0313 122.652 73.5153 122.58 74.0193 122.58C74.8913 122.58 75.5633 122.792 76.0353 123.216C76.5073 123.64 76.7433 124.288 76.7433 125.16V129H75.6513ZM73.5633 129.072C73.0913 129.072 72.6753 128.992 72.3153 128.832C71.9633 128.672 71.6913 128.452 71.4993 128.172C71.3073 127.884 71.2113 127.56 71.2113 127.2C71.2113 126.856 71.2913 126.544 71.4513 126.264C71.6193 125.984 71.8873 125.76 72.2553 125.592C72.6313 125.424 73.1353 125.34 73.7673 125.34H75.7833V126.168H73.8153C73.2393 126.168 72.8513 126.264 72.6513 126.456C72.4513 126.648 72.3513 126.88 72.3513 127.152C72.3513 127.464 72.4753 127.716 72.7233 127.908C72.9713 128.092 73.3153 128.184 73.7553 128.184C74.1873 128.184 74.5633 128.088 74.8833 127.896C75.2113 127.704 75.4473 127.424 75.5913 127.056L75.8193 127.848C75.6673 128.224 75.3993 128.524 75.0153 128.748C74.6313 128.964 74.1473 129.072 73.5633 129.072ZM80.6992 129.072C80.1712 129.072 79.6672 129 79.1872 128.856C78.7152 128.712 78.3432 128.536 78.0712 128.328L78.5512 127.416C78.8232 127.6 79.1592 127.756 79.5592 127.884C79.9592 128.012 80.3672 128.076 80.7832 128.076C81.3192 128.076 81.7032 128 81.9352 127.848C82.1752 127.696 82.2952 127.484 82.2952 127.212C82.2952 127.012 82.2232 126.856 82.0792 126.744C81.9352 126.632 81.7432 126.548 81.5032 126.492C81.2712 126.436 81.0112 126.388 80.7232 126.348C80.4352 126.3 80.1472 126.244 79.8592 126.18C79.5712 126.108 79.3072 126.012 79.0672 125.892C78.8272 125.764 78.6352 125.592 78.4912 125.376C78.3472 125.152 78.2752 124.856 78.2752 124.488C78.2752 124.104 78.3832 123.768 78.5992 123.48C78.8152 123.192 79.1192 122.972 79.5112 122.82C79.9112 122.66 80.3832 122.58 80.9272 122.58C81.3432 122.58 81.7632 122.632 82.1872 122.736C82.6192 122.832 82.9712 122.972 83.2432 123.156L82.7512 124.068C82.4632 123.876 82.1632 123.744 81.8512 123.672C81.5392 123.6 81.2272 123.564 80.9152 123.564C80.4112 123.564 80.0352 123.648 79.7872 123.816C79.5392 123.976 79.4152 124.184 79.4152 124.44C79.4152 124.656 79.4872 124.824 79.6312 124.944C79.7832 125.056 79.9752 125.144 80.2072 125.208C80.4472 125.272 80.7112 125.328 80.9992 125.376C81.2872 125.416 81.5752 125.472 81.8632 125.544C82.1512 125.608 82.4112 125.7 82.6432 125.82C82.8832 125.94 83.0752 126.108 83.2192 126.324C83.3712 126.54 83.4472 126.828 83.4472 127.188C83.4472 127.572 83.3352 127.904 83.1112 128.184C82.8872 128.464 82.5712 128.684 82.1632 128.844C81.7552 128.996 81.2672 129.072 80.6992 129.072ZM90.7376 129.072C90.1216 129.072 89.5696 128.936 89.0816 128.664C88.6016 128.392 88.2216 128.012 87.9416 127.524C87.6616 127.036 87.5216 126.468 87.5216 125.82C87.5216 125.172 87.6616 124.608 87.9416 124.128C88.2216 123.64 88.6016 123.26 89.0816 122.988C89.5696 122.716 90.1216 122.58 90.7376 122.58C91.2736 122.58 91.7576 122.7 92.1896 122.94C92.6216 123.18 92.9656 123.54 93.2216 124.02C93.4856 124.5 93.6176 125.1 93.6176 125.82C93.6176 126.54 93.4896 127.14 93.2336 127.62C92.9856 128.1 92.6456 128.464 92.2136 128.712C91.7816 128.952 91.2896 129.072 90.7376 129.072ZM90.8336 128.064C91.2336 128.064 91.5936 127.972 91.9136 127.788C92.2416 127.604 92.4976 127.344 92.6816 127.008C92.8736 126.664 92.9696 126.268 92.9696 125.82C92.9696 125.364 92.8736 124.972 92.6816 124.644C92.4976 124.308 92.2416 124.048 91.9136 123.864C91.5936 123.68 91.2336 123.588 90.8336 123.588C90.4256 123.588 90.0616 123.68 89.7416 123.864C89.4216 124.048 89.1656 124.308 88.9736 124.644C88.7816 124.972 88.6856 125.364 88.6856 125.82C88.6856 126.268 88.7816 126.664 88.9736 127.008C89.1656 127.344 89.4216 127.604 89.7416 127.788C90.0616 127.972 90.4256 128.064 90.8336 128.064ZM93.0056 129V127.284L93.0776 125.808L92.9576 124.332V120.096H94.1096V129H93.0056ZM99.0133 129.072C98.3733 129.072 97.8053 128.932 97.3093 128.652C96.8133 128.372 96.4213 127.988 96.1333 127.5C95.8453 127.004 95.7013 126.444 95.7013 125.82C95.7013 125.188 95.8453 124.628 96.1333 124.14C96.4213 123.652 96.8133 123.272 97.3093 123C97.8053 122.72 98.3733 122.58 99.0133 122.58C99.6453 122.58 100.209 122.72 100.705 123C101.209 123.272 101.601 123.652 101.881 124.14C102.169 124.62 102.313 125.18 102.313 125.82C102.313 126.452 102.169 127.012 101.881 127.5C101.601 127.988 101.209 128.372 100.705 128.652C100.209 128.932 99.6453 129.072 99.0133 129.072ZM99.0133 128.064C99.4213 128.064 99.7853 127.972 100.105 127.788C100.433 127.604 100.689 127.344 100.873 127.008C101.057 126.664 101.149 126.268 101.149 125.82C101.149 125.364 101.057 124.972 100.873 124.644C100.689 124.308 100.433 124.048 100.105 123.864C99.7853 123.68 99.4213 123.588 99.0133 123.588C98.6053 123.588 98.2413 123.68 97.9213 123.864C97.6013 124.048 97.3453 124.308 97.1533 124.644C96.9613 124.972 96.8653 125.364 96.8653 125.82C96.8653 126.268 96.9613 126.664 97.1533 127.008C97.3453 127.344 97.6013 127.604 97.9213 127.788C98.2413 127.972 98.6053 128.064 99.0133 128.064ZM107.278 129.072C106.734 129.072 106.242 128.952 105.802 128.712C105.37 128.464 105.026 128.1 104.77 127.62C104.522 127.14 104.398 126.54 104.398 125.82C104.398 125.1 104.526 124.5 104.782 124.02C105.046 123.54 105.394 123.18 105.826 122.94C106.266 122.7 106.75 122.58 107.278 122.58C107.902 122.58 108.454 122.716 108.934 122.988C109.414 123.26 109.794 123.64 110.074 124.128C110.354 124.608 110.494 125.172 110.494 125.82C110.494 126.468 110.354 127.036 110.074 127.524C109.794 128.012 109.414 128.392 108.934 128.664C108.454 128.936 107.902 129.072 107.278 129.072ZM103.906 129V120.096H105.058V124.332L104.938 125.808L105.01 127.284V129H103.906ZM107.182 128.064C107.59 128.064 107.954 127.972 108.274 127.788C108.602 127.604 108.858 127.344 109.042 127.008C109.234 126.664 109.33 126.268 109.33 125.82C109.33 125.364 109.234 124.972 109.042 124.644C108.858 124.308 108.602 124.048 108.274 123.864C107.954 123.68 107.59 123.588 107.182 123.588C106.782 123.588 106.418 123.68 106.09 123.864C105.77 124.048 105.514 124.308 105.322 124.644C105.138 124.972 105.046 125.364 105.046 125.82C105.046 126.268 105.138 126.664 105.322 127.008C105.514 127.344 105.77 127.604 106.09 127.788C106.418 127.972 106.782 128.064 107.182 128.064ZM112.086 129V122.64H113.19V124.368L113.082 123.936C113.258 123.496 113.554 123.16 113.97 122.928C114.386 122.696 114.898 122.58 115.506 122.58V123.696C115.458 123.688 115.41 123.684 115.362 123.684C115.322 123.684 115.282 123.684 115.242 123.684C114.626 123.684 114.138 123.868 113.778 124.236C113.418 124.604 113.238 125.136 113.238 125.832V129H112.086ZM120.405 129V127.656L120.345 127.404V125.112C120.345 124.624 120.201 124.248 119.913 123.984C119.633 123.712 119.209 123.576 118.641 123.576C118.265 123.576 117.897 123.64 117.537 123.768C117.177 123.888 116.873 124.052 116.625 124.26L116.145 123.396C116.473 123.132 116.865 122.932 117.321 122.796C117.785 122.652 118.269 122.58 118.773 122.58C119.645 122.58 120.317 122.792 120.789 123.216C121.261 123.64 121.497 124.288 121.497 125.16V129H120.405ZM118.317 129.072C117.845 129.072 117.429 128.992 117.069 128.832C116.717 128.672 116.445 128.452 116.253 128.172C116.061 127.884 115.965 127.56 115.965 127.2C115.965 126.856 116.045 126.544 116.205 126.264C116.373 125.984 116.641 125.76 117.009 125.592C117.385 125.424 117.889 125.34 118.521 125.34H120.537V126.168H118.569C117.993 126.168 117.605 126.264 117.405 126.456C117.205 126.648 117.105 126.88 117.105 127.152C117.105 127.464 117.229 127.716 117.477 127.908C117.725 128.092 118.069 128.184 118.509 128.184C118.941 128.184 119.317 128.088 119.637 127.896C119.965 127.704 120.201 127.424 120.345 127.056L120.573 127.848C120.421 128.224 120.153 128.524 119.769 128.748C119.385 128.964 118.901 129.072 118.317 129.072ZM125.453 129.072C124.925 129.072 124.421 129 123.941 128.856C123.469 128.712 123.097 128.536 122.825 128.328L123.305 127.416C123.577 127.6 123.913 127.756 124.313 127.884C124.713 128.012 125.121 128.076 125.537 128.076C126.073 128.076 126.457 128 126.689 127.848C126.929 127.696 127.049 127.484 127.049 127.212C127.049 127.012 126.977 126.856 126.833 126.744C126.689 126.632 126.497 126.548 126.257 126.492C126.025 126.436 125.765 126.388 125.477 126.348C125.189 126.3 124.901 126.244 124.613 126.18C124.325 126.108 124.061 126.012 123.821 125.892C123.581 125.764 123.389 125.592 123.245 125.376C123.101 125.152 123.029 124.856 123.029 124.488C123.029 124.104 123.137 123.768 123.353 123.48C123.569 123.192 123.873 122.972 124.265 122.82C124.665 122.66 125.137 122.58 125.681 122.58C126.097 122.58 126.517 122.632 126.941 122.736C127.373 122.832 127.725 122.972 127.997 123.156L127.505 124.068C127.217 123.876 126.917 123.744 126.605 123.672C126.293 123.6 125.981 123.564 125.669 123.564C125.165 123.564 124.789 123.648 124.541 123.816C124.293 123.976 124.169 124.184 124.169 124.44C124.169 124.656 124.241 124.824 124.385 124.944C124.537 125.056 124.729 125.144 124.961 125.208C125.201 125.272 125.465 125.328 125.753 125.376C126.041 125.416 126.329 125.472 126.617 125.544C126.905 125.608 127.165 125.7 127.397 125.82C127.637 125.94 127.829 126.108 127.973 126.324C128.125 126.54 128.201 126.828 128.201 127.188C128.201 127.572 128.089 127.904 127.865 128.184C127.641 128.464 127.325 128.684 126.917 128.844C126.509 128.996 126.021 129.072 125.453 129.072ZM136.259 122.58C136.779 122.58 137.235 122.68 137.627 122.88C138.027 123.08 138.339 123.384 138.563 123.792C138.787 124.2 138.899 124.716 138.899 125.34V129H137.747V125.472C137.747 124.856 137.595 124.392 137.291 124.08C136.995 123.768 136.575 123.612 136.031 123.612C135.623 123.612 135.267 123.692 134.963 123.852C134.659 124.012 134.423 124.248 134.255 124.56C134.095 124.872 134.015 125.26 134.015 125.724V129H132.863V122.64H133.967V124.356L133.787 123.9C133.995 123.484 134.315 123.16 134.747 122.928C135.179 122.696 135.683 122.58 136.259 122.58ZM144.979 129V127.656L144.919 127.404V125.112C144.919 124.624 144.775 124.248 144.487 123.984C144.207 123.712 143.783 123.576 143.215 123.576C142.839 123.576 142.471 123.64 142.111 123.768C141.751 123.888 141.447 124.052 141.199 124.26L140.719 123.396C141.047 123.132 141.439 122.932 141.895 122.796C142.359 122.652 142.843 122.58 143.347 122.58C144.219 122.58 144.891 122.792 145.363 123.216C145.835 123.64 146.071 124.288 146.071 125.16V129H144.979ZM142.891 129.072C142.419 129.072 142.003 128.992 141.643 128.832C141.291 128.672 141.019 128.452 140.827 128.172C140.635 127.884 140.539 127.56 140.539 127.2C140.539 126.856 140.619 126.544 140.779 126.264C140.947 125.984 141.215 125.76 141.583 125.592C141.959 125.424 142.463 125.34 143.095 125.34H145.111V126.168H143.143C142.567 126.168 142.179 126.264 141.979 126.456C141.779 126.648 141.679 126.88 141.679 127.152C141.679 127.464 141.803 127.716 142.051 127.908C142.299 128.092 142.643 128.184 143.083 128.184C143.515 128.184 143.891 128.088 144.211 127.896C144.539 127.704 144.775 127.424 144.919 127.056L145.147 127.848C144.995 128.224 144.727 128.524 144.343 128.748C143.959 128.964 143.475 129.072 142.891 129.072ZM150.027 129.072C149.499 129.072 148.995 129 148.515 128.856C148.043 128.712 147.671 128.536 147.399 128.328L147.879 127.416C148.151 127.6 148.487 127.756 148.887 127.884C149.287 128.012 149.695 128.076 150.111 128.076C150.647 128.076 151.031 128 151.263 127.848C151.503 127.696 151.623 127.484 151.623 127.212C151.623 127.012 151.551 126.856 151.407 126.744C151.263 126.632 151.071 126.548 150.831 126.492C150.599 126.436 150.339 126.388 150.051 126.348C149.763 126.3 149.475 126.244 149.187 126.18C148.899 126.108 148.635 126.012 148.395 125.892C148.155 125.764 147.963 125.592 147.819 125.376C147.675 125.152 147.603 124.856 147.603 124.488C147.603 124.104 147.711 123.768 147.927 123.48C148.143 123.192 148.447 122.972 148.839 122.82C149.239 122.66 149.711 122.58 150.255 122.58C150.671 122.58 151.091 122.632 151.515 122.736C151.947 122.832 152.299 122.972 152.571 123.156L152.079 124.068C151.791 123.876 151.491 123.744 151.179 123.672C150.867 123.6 150.555 123.564 150.243 123.564C149.739 123.564 149.363 123.648 149.115 123.816C148.867 123.976 148.743 124.184 148.743 124.44C148.743 124.656 148.815 124.824 148.959 124.944C149.111 125.056 149.303 125.144 149.535 125.208C149.775 125.272 150.039 125.328 150.327 125.376C150.615 125.416 150.903 125.472 151.191 125.544C151.479 125.608 151.739 125.7 151.971 125.82C152.211 125.94 152.403 126.108 152.547 126.324C152.699 126.54 152.775 126.828 152.775 127.188C152.775 127.572 152.663 127.904 152.439 128.184C152.215 128.464 151.899 128.684 151.491 128.844C151.083 128.996 150.595 129.072 150.027 129.072ZM38.9874 144.072C38.4594 144.072 37.9754 143.952 37.5354 143.712C37.1034 143.464 36.7554 143.1 36.4914 142.62C36.2354 142.14 36.1074 141.54 36.1074 140.82C36.1074 140.1 36.2314 139.5 36.4794 139.02C36.7354 138.54 37.0794 138.18 37.5114 137.94C37.9514 137.7 38.4434 137.58 38.9874 137.58C39.6114 137.58 40.1634 137.716 40.6434 137.988C41.1234 138.26 41.5034 138.64 41.7834 139.128C42.0634 139.608 42.2034 140.172 42.2034 140.82C42.2034 141.468 42.0634 142.036 41.7834 142.524C41.5034 143.012 41.1234 143.392 40.6434 143.664C40.1634 143.936 39.6114 144.072 38.9874 144.072ZM35.6154 146.328V137.64H36.7194V139.356L36.6474 140.832L36.7674 142.308V146.328H35.6154ZM38.8914 143.064C39.2994 143.064 39.6634 142.972 39.9834 142.788C40.3114 142.604 40.5674 142.344 40.7514 142.008C40.9434 141.664 41.0394 141.268 41.0394 140.82C41.0394 140.364 40.9434 139.972 40.7514 139.644C40.5674 139.308 40.3114 139.048 39.9834 138.864C39.6634 138.68 39.2994 138.588 38.8914 138.588C38.4914 138.588 38.1274 138.68 37.7994 138.864C37.4794 139.048 37.2234 139.308 37.0314 139.644C36.8474 139.972 36.7554 140.364 36.7554 140.82C36.7554 141.268 36.8474 141.664 37.0314 142.008C37.2234 142.344 37.4794 142.604 37.7994 142.788C38.1274 142.972 38.4914 143.064 38.8914 143.064ZM46.5191 144.072C45.8791 144.072 45.3111 143.932 44.8151 143.652C44.3191 143.372 43.9271 142.988 43.6391 142.5C43.3511 142.004 43.2071 141.444 43.2071 140.82C43.2071 140.188 43.3511 139.628 43.6391 139.14C43.9271 138.652 44.3191 138.272 44.8151 138C45.3111 137.72 45.8791 137.58 46.5191 137.58C47.1511 137.58 47.7151 137.72 48.2111 138C48.7151 138.272 49.1071 138.652 49.3871 139.14C49.6751 139.62 49.8191 140.18 49.8191 140.82C49.8191 141.452 49.6751 142.012 49.3871 142.5C49.1071 142.988 48.7151 143.372 48.2111 143.652C47.7151 143.932 47.1511 144.072 46.5191 144.072ZM46.5191 143.064C46.9271 143.064 47.2911 142.972 47.6111 142.788C47.9391 142.604 48.1951 142.344 48.3791 142.008C48.5631 141.664 48.6551 141.268 48.6551 140.82C48.6551 140.364 48.5631 139.972 48.3791 139.644C48.1951 139.308 47.9391 139.048 47.6111 138.864C47.2911 138.68 46.9271 138.588 46.5191 138.588C46.1111 138.588 45.7471 138.68 45.4271 138.864C45.1071 139.048 44.8511 139.308 44.6591 139.644C44.4671 139.972 44.3711 140.364 44.3711 140.82C44.3711 141.268 44.4671 141.664 44.6591 142.008C44.8511 142.344 45.1071 142.604 45.4271 142.788C45.7471 142.972 46.1111 143.064 46.5191 143.064ZM54.8083 137.58C55.3283 137.58 55.7843 137.68 56.1763 137.88C56.5763 138.08 56.8883 138.384 57.1123 138.792C57.3363 139.2 57.4483 139.716 57.4483 140.34V144H56.2963V140.472C56.2963 139.856 56.1443 139.392 55.8403 139.08C55.5443 138.768 55.1243 138.612 54.5803 138.612C54.1723 138.612 53.8163 138.692 53.5123 138.852C53.2083 139.012 52.9723 139.248 52.8043 139.56C52.6443 139.872 52.5643 140.26 52.5643 140.724V144H51.4123V137.64H52.5163V139.356L52.3363 138.9C52.5443 138.484 52.8643 138.16 53.2963 137.928C53.7283 137.696 54.2323 137.58 54.8083 137.58ZM61.7643 144.072C61.1243 144.072 60.6283 143.9 60.2763 143.556C59.9243 143.212 59.7483 142.72 59.7483 142.08V136.248H60.9003V142.032C60.9003 142.376 60.9843 142.64 61.1523 142.824C61.3283 143.008 61.5763 143.1 61.8963 143.1C62.2563 143.1 62.5563 143 62.7963 142.8L63.1563 143.628C62.9803 143.78 62.7683 143.892 62.5203 143.964C62.2803 144.036 62.0283 144.072 61.7643 144.072ZM58.6683 138.588V137.64H62.7243V138.588H58.6683ZM68.497 144V142.656L68.437 142.404V140.112C68.437 139.624 68.293 139.248 68.005 138.984C67.725 138.712 67.301 138.576 66.733 138.576C66.357 138.576 65.989 138.64 65.629 138.768C65.269 138.888 64.965 139.052 64.717 139.26L64.237 138.396C64.565 138.132 64.957 137.932 65.413 137.796C65.877 137.652 66.361 137.58 66.865 137.58C67.737 137.58 68.409 137.792 68.881 138.216C69.353 138.64 69.589 139.288 69.589 140.16V144H68.497ZM66.409 144.072C65.937 144.072 65.521 143.992 65.161 143.832C64.809 143.672 64.537 143.452 64.345 143.172C64.153 142.884 64.057 142.56 64.057 142.2C64.057 141.856 64.137 141.544 64.297 141.264C64.465 140.984 64.733 140.76 65.101 140.592C65.477 140.424 65.981 140.34 66.613 140.34H68.629V141.168H66.661C66.085 141.168 65.697 141.264 65.497 141.456C65.297 141.648 65.197 141.88 65.197 142.152C65.197 142.464 65.321 142.716 65.569 142.908C65.817 143.092 66.161 143.184 66.601 143.184C67.033 143.184 67.409 143.088 67.729 142.896C68.057 142.704 68.293 142.424 68.437 142.056L68.665 142.848C68.513 143.224 68.245 143.524 67.861 143.748C67.477 143.964 66.993 144.072 66.409 144.072ZM73.5449 144.072C73.0169 144.072 72.5129 144 72.0329 143.856C71.5609 143.712 71.1889 143.536 70.9169 143.328L71.3969 142.416C71.6689 142.6 72.0049 142.756 72.4049 142.884C72.8049 143.012 73.2129 143.076 73.6289 143.076C74.1649 143.076 74.5489 143 74.7809 142.848C75.0209 142.696 75.1409 142.484 75.1409 142.212C75.1409 142.012 75.0689 141.856 74.9249 141.744C74.7809 141.632 74.5889 141.548 74.3489 141.492C74.1169 141.436 73.8569 141.388 73.5689 141.348C73.2809 141.3 72.9929 141.244 72.7049 141.18C72.4169 141.108 72.1529 141.012 71.9129 140.892C71.6729 140.764 71.4809 140.592 71.3369 140.376C71.1929 140.152 71.1209 139.856 71.1209 139.488C71.1209 139.104 71.2289 138.768 71.4449 138.48C71.6609 138.192 71.9649 137.972 72.3569 137.82C72.7569 137.66 73.2289 137.58 73.7729 137.58C74.1889 137.58 74.6089 137.632 75.0329 137.736C75.4649 137.832 75.8169 137.972 76.0889 138.156L75.5969 139.068C75.3089 138.876 75.0089 138.744 74.6969 138.672C74.3849 138.6 74.0729 138.564 73.7609 138.564C73.2569 138.564 72.8809 138.648 72.6329 138.816C72.3849 138.976 72.2609 139.184 72.2609 139.44C72.2609 139.656 72.3329 139.824 72.4769 139.944C72.6289 140.056 72.8209 140.144 73.0529 140.208C73.2929 140.272 73.5569 140.328 73.8449 140.376C74.1329 140.416 74.4209 140.472 74.7089 140.544C74.9969 140.608 75.2569 140.7 75.4889 140.82C75.7289 140.94 75.9209 141.108 76.0649 141.324C76.2169 141.54 76.2929 141.828 76.2929 142.188C76.2929 142.572 76.1809 142.904 75.9569 143.184C75.7329 143.464 75.4169 143.684 75.0089 143.844C74.6009 143.996 74.1129 144.072 73.5449 144.072ZM83.5833 144.072C82.9673 144.072 82.4153 143.936 81.9273 143.664C81.4473 143.392 81.0673 143.012 80.7873 142.524C80.5073 142.036 80.3673 141.468 80.3673 140.82C80.3673 140.172 80.5073 139.608 80.7873 139.128C81.0673 138.64 81.4473 138.26 81.9273 137.988C82.4153 137.716 82.9673 137.58 83.5833 137.58C84.1193 137.58 84.6033 137.7 85.0353 137.94C85.4673 138.18 85.8113 138.54 86.0673 139.02C86.3313 139.5 86.4633 140.1 86.4633 140.82C86.4633 141.54 86.3353 142.14 86.0793 142.62C85.8313 143.1 85.4913 143.464 85.0593 143.712C84.6273 143.952 84.1353 144.072 83.5833 144.072ZM83.6793 143.064C84.0793 143.064 84.4393 142.972 84.7593 142.788C85.0873 142.604 85.3433 142.344 85.5273 142.008C85.7193 141.664 85.8153 141.268 85.8153 140.82C85.8153 140.364 85.7193 139.972 85.5273 139.644C85.3433 139.308 85.0873 139.048 84.7593 138.864C84.4393 138.68 84.0793 138.588 83.6793 138.588C83.2713 138.588 82.9073 138.68 82.5873 138.864C82.2673 139.048 82.0113 139.308 81.8193 139.644C81.6273 139.972 81.5313 140.364 81.5313 140.82C81.5313 141.268 81.6273 141.664 81.8193 142.008C82.0113 142.344 82.2673 142.604 82.5873 142.788C82.9073 142.972 83.2713 143.064 83.6793 143.064ZM85.8513 144V142.284L85.9233 140.808L85.8033 139.332V135.096H86.9553V144H85.8513ZM91.859 144.072C91.219 144.072 90.651 143.932 90.155 143.652C89.659 143.372 89.267 142.988 88.979 142.5C88.691 142.004 88.547 141.444 88.547 140.82C88.547 140.188 88.691 139.628 88.979 139.14C89.267 138.652 89.659 138.272 90.155 138C90.651 137.72 91.219 137.58 91.859 137.58C92.491 137.58 93.055 137.72 93.551 138C94.055 138.272 94.447 138.652 94.727 139.14C95.015 139.62 95.159 140.18 95.159 140.82C95.159 141.452 95.015 142.012 94.727 142.5C94.447 142.988 94.055 143.372 93.551 143.652C93.055 143.932 92.491 144.072 91.859 144.072ZM91.859 143.064C92.267 143.064 92.631 142.972 92.951 142.788C93.279 142.604 93.535 142.344 93.719 142.008C93.903 141.664 93.995 141.268 93.995 140.82C93.995 140.364 93.903 139.972 93.719 139.644C93.535 139.308 93.279 139.048 92.951 138.864C92.631 138.68 92.267 138.588 91.859 138.588C91.451 138.588 91.087 138.68 90.767 138.864C90.447 139.048 90.191 139.308 89.999 139.644C89.807 139.972 89.711 140.364 89.711 140.82C89.711 141.268 89.807 141.664 89.999 142.008C90.191 142.344 90.447 142.604 90.767 142.788C91.087 142.972 91.451 143.064 91.859 143.064ZM98.5762 144.072C98.0482 144.072 97.5442 144 97.0642 143.856C96.5922 143.712 96.2202 143.536 95.9482 143.328L96.4282 142.416C96.7002 142.6 97.0362 142.756 97.4362 142.884C97.8362 143.012 98.2442 143.076 98.6602 143.076C99.1962 143.076 99.5802 143 99.8122 142.848C100.052 142.696 100.172 142.484 100.172 142.212C100.172 142.012 100.1 141.856 99.9562 141.744C99.8122 141.632 99.6202 141.548 99.3802 141.492C99.1482 141.436 98.8882 141.388 98.6002 141.348C98.3122 141.3 98.0242 141.244 97.7362 141.18C97.4482 141.108 97.1842 141.012 96.9442 140.892C96.7042 140.764 96.5122 140.592 96.3682 140.376C96.2242 140.152 96.1522 139.856 96.1522 139.488C96.1522 139.104 96.2602 138.768 96.4762 138.48C96.6922 138.192 96.9962 137.972 97.3882 137.82C97.7882 137.66 98.2602 137.58 98.8042 137.58C99.2202 137.58 99.6402 137.632 100.064 137.736C100.496 137.832 100.848 137.972 101.12 138.156L100.628 139.068C100.34 138.876 100.04 138.744 99.7282 138.672C99.4162 138.6 99.1042 138.564 98.7922 138.564C98.2882 138.564 97.9122 138.648 97.6642 138.816C97.4162 138.976 97.2922 139.184 97.2922 139.44C97.2922 139.656 97.3642 139.824 97.5082 139.944C97.6602 140.056 97.8522 140.144 98.0842 140.208C98.3242 140.272 98.5882 140.328 98.8762 140.376C99.1642 140.416 99.4522 140.472 99.7402 140.544C100.028 140.608 100.288 140.7 100.52 140.82C100.76 140.94 100.952 141.108 101.096 141.324C101.248 141.54 101.324 141.828 101.324 142.188C101.324 142.572 101.212 142.904 100.988 143.184C100.764 143.464 100.448 143.684 100.04 143.844C99.6322 143.996 99.1442 144.072 98.5762 144.072ZM108.759 144.072C108.111 144.072 107.531 143.932 107.019 143.652C106.515 143.372 106.119 142.988 105.831 142.5C105.543 142.012 105.399 141.452 105.399 140.82C105.399 140.188 105.543 139.628 105.831 139.14C106.119 138.652 106.515 138.272 107.019 138C107.531 137.72 108.111 137.58 108.759 137.58C109.335 137.58 109.847 137.696 110.295 137.928C110.751 138.152 111.103 138.488 111.351 138.936L110.475 139.5C110.267 139.188 110.011 138.96 109.707 138.816C109.411 138.664 109.091 138.588 108.747 138.588C108.331 138.588 107.959 138.68 107.631 138.864C107.303 139.048 107.043 139.308 106.851 139.644C106.659 139.972 106.563 140.364 106.563 140.82C106.563 141.276 106.659 141.672 106.851 142.008C107.043 142.344 107.303 142.604 107.631 142.788C107.959 142.972 108.331 143.064 108.747 143.064C109.091 143.064 109.411 142.992 109.707 142.848C110.011 142.696 110.267 142.464 110.475 142.152L111.351 142.704C111.103 143.144 110.751 143.484 110.295 143.724C109.847 143.956 109.335 144.072 108.759 144.072ZM116.79 144V142.656L116.73 142.404V140.112C116.73 139.624 116.586 139.248 116.298 138.984C116.018 138.712 115.594 138.576 115.026 138.576C114.65 138.576 114.282 138.64 113.922 138.768C113.562 138.888 113.258 139.052 113.01 139.26L112.53 138.396C112.858 138.132 113.25 137.932 113.706 137.796C114.17 137.652 114.654 137.58 115.158 137.58C116.03 137.58 116.702 137.792 117.174 138.216C117.646 138.64 117.882 139.288 117.882 140.16V144H116.79ZM114.702 144.072C114.23 144.072 113.814 143.992 113.454 143.832C113.102 143.672 112.83 143.452 112.638 143.172C112.446 142.884 112.35 142.56 112.35 142.2C112.35 141.856 112.43 141.544 112.59 141.264C112.758 140.984 113.026 140.76 113.394 140.592C113.77 140.424 114.274 140.34 114.906 140.34H116.922V141.168H114.954C114.378 141.168 113.99 141.264 113.79 141.456C113.59 141.648 113.49 141.88 113.49 142.152C113.49 142.464 113.614 142.716 113.862 142.908C114.11 143.092 114.454 143.184 114.894 143.184C115.326 143.184 115.702 143.088 116.022 142.896C116.35 142.704 116.586 142.424 116.73 142.056L116.958 142.848C116.806 143.224 116.538 143.524 116.154 143.748C115.77 143.964 115.286 144.072 114.702 144.072ZM123.41 137.58C123.93 137.58 124.386 137.68 124.778 137.88C125.178 138.08 125.49 138.384 125.714 138.792C125.938 139.2 126.05 139.716 126.05 140.34V144H124.898V140.472C124.898 139.856 124.746 139.392 124.442 139.08C124.146 138.768 123.726 138.612 123.182 138.612C122.774 138.612 122.418 138.692 122.114 138.852C121.81 139.012 121.574 139.248 121.406 139.56C121.246 139.872 121.166 140.26 121.166 140.724V144H120.014V137.64H121.118V139.356L120.938 138.9C121.146 138.484 121.466 138.16 121.898 137.928C122.33 137.696 122.834 137.58 123.41 137.58ZM130.366 144.072C129.726 144.072 129.23 143.9 128.878 143.556C128.526 143.212 128.35 142.72 128.35 142.08V136.248H129.502V142.032C129.502 142.376 129.586 142.64 129.754 142.824C129.93 143.008 130.178 143.1 130.498 143.1C130.858 143.1 131.158 143 131.398 142.8L131.758 143.628C131.582 143.78 131.37 143.892 131.122 143.964C130.882 144.036 130.63 144.072 130.366 144.072ZM127.27 138.588V137.64H131.326V138.588H127.27ZM135.664 144.072C135.024 144.072 134.456 143.932 133.96 143.652C133.464 143.372 133.072 142.988 132.784 142.5C132.496 142.004 132.352 141.444 132.352 140.82C132.352 140.188 132.496 139.628 132.784 139.14C133.072 138.652 133.464 138.272 133.96 138C134.456 137.72 135.024 137.58 135.664 137.58C136.296 137.58 136.86 137.72 137.356 138C137.86 138.272 138.252 138.652 138.532 139.14C138.82 139.62 138.964 140.18 138.964 140.82C138.964 141.452 138.82 142.012 138.532 142.5C138.252 142.988 137.86 143.372 137.356 143.652C136.86 143.932 136.296 144.072 135.664 144.072ZM135.664 143.064C136.072 143.064 136.436 142.972 136.756 142.788C137.084 142.604 137.34 142.344 137.524 142.008C137.708 141.664 137.8 141.268 137.8 140.82C137.8 140.364 137.708 139.972 137.524 139.644C137.34 139.308 137.084 139.048 136.756 138.864C136.436 138.68 136.072 138.588 135.664 138.588C135.256 138.588 134.892 138.68 134.572 138.864C134.252 139.048 133.996 139.308 133.804 139.644C133.612 139.972 133.516 140.364 133.516 140.82C133.516 141.268 133.612 141.664 133.804 142.008C133.996 142.344 134.252 142.604 134.572 142.788C134.892 142.972 135.256 143.064 135.664 143.064ZM142.381 144.072C141.853 144.072 141.349 144 140.869 143.856C140.397 143.712 140.025 143.536 139.753 143.328L140.233 142.416C140.505 142.6 140.841 142.756 141.241 142.884C141.641 143.012 142.049 143.076 142.465 143.076C143.001 143.076 143.385 143 143.617 142.848C143.857 142.696 143.977 142.484 143.977 142.212C143.977 142.012 143.905 141.856 143.761 141.744C143.617 141.632 143.425 141.548 143.185 141.492C142.953 141.436 142.693 141.388 142.405 141.348C142.117 141.3 141.829 141.244 141.541 141.18C141.253 141.108 140.989 141.012 140.749 140.892C140.509 140.764 140.317 140.592 140.173 140.376C140.029 140.152 139.957 139.856 139.957 139.488C139.957 139.104 140.065 138.768 140.281 138.48C140.497 138.192 140.801 137.972 141.193 137.82C141.593 137.66 142.065 137.58 142.609 137.58C143.025 137.58 143.445 137.632 143.869 137.736C144.301 137.832 144.653 137.972 144.925 138.156L144.433 139.068C144.145 138.876 143.845 138.744 143.533 138.672C143.221 138.6 142.909 138.564 142.597 138.564C142.093 138.564 141.717 138.648 141.469 138.816C141.221 138.976 141.097 139.184 141.097 139.44C141.097 139.656 141.169 139.824 141.313 139.944C141.465 140.056 141.657 140.144 141.889 140.208C142.129 140.272 142.393 140.328 142.681 140.376C142.969 140.416 143.257 140.472 143.545 140.544C143.833 140.608 144.093 140.7 144.325 140.82C144.565 140.94 144.757 141.108 144.901 141.324C145.053 141.54 145.129 141.828 145.129 142.188C145.129 142.572 145.017 142.904 144.793 143.184C144.569 143.464 144.253 143.684 143.845 143.844C143.437 143.996 142.949 144.072 142.381 144.072ZM63.6966 159.072C63.0806 159.072 62.5286 158.936 62.0406 158.664C61.5606 158.392 61.1806 158.012 60.9006 157.524C60.6206 157.036 60.4806 156.468 60.4806 155.82C60.4806 155.172 60.6206 154.608 60.9006 154.128C61.1806 153.64 61.5606 153.26 62.0406 152.988C62.5286 152.716 63.0806 152.58 63.6966 152.58C64.2326 152.58 64.7166 152.7 65.1486 152.94C65.5806 153.18 65.9246 153.54 66.1806 154.02C66.4446 154.5 66.5766 155.1 66.5766 155.82C66.5766 156.54 66.4486 157.14 66.1926 157.62C65.9446 158.1 65.6046 158.464 65.1726 158.712C64.7406 158.952 64.2486 159.072 63.6966 159.072ZM63.7926 158.064C64.1926 158.064 64.5526 157.972 64.8726 157.788C65.2006 157.604 65.4566 157.344 65.6406 157.008C65.8326 156.664 65.9286 156.268 65.9286 155.82C65.9286 155.364 65.8326 154.972 65.6406 154.644C65.4566 154.308 65.2006 154.048 64.8726 153.864C64.5526 153.68 64.1926 153.588 63.7926 153.588C63.3846 153.588 63.0206 153.68 62.7006 153.864C62.3806 154.048 62.1246 154.308 61.9326 154.644C61.7406 154.972 61.6446 155.364 61.6446 155.82C61.6446 156.268 61.7406 156.664 61.9326 157.008C62.1246 157.344 62.3806 157.604 62.7006 157.788C63.0206 157.972 63.3846 158.064 63.7926 158.064ZM65.9646 159V157.284L66.0366 155.808L65.9166 154.332V150.096H67.0686V159H65.9646ZM71.9723 159.072C71.3323 159.072 70.7643 158.932 70.2683 158.652C69.7723 158.372 69.3803 157.988 69.0923 157.5C68.8043 157.004 68.6603 156.444 68.6603 155.82C68.6603 155.188 68.8043 154.628 69.0923 154.14C69.3803 153.652 69.7723 153.272 70.2683 153C70.7643 152.72 71.3323 152.58 71.9723 152.58C72.6043 152.58 73.1683 152.72 73.6643 153C74.1683 153.272 74.5603 153.652 74.8403 154.14C75.1283 154.62 75.2723 155.18 75.2723 155.82C75.2723 156.452 75.1283 157.012 74.8403 157.5C74.5603 157.988 74.1683 158.372 73.6643 158.652C73.1683 158.932 72.6043 159.072 71.9723 159.072ZM71.9723 158.064C72.3803 158.064 72.7443 157.972 73.0643 157.788C73.3923 157.604 73.6483 157.344 73.8323 157.008C74.0163 156.664 74.1083 156.268 74.1083 155.82C74.1083 155.364 74.0163 154.972 73.8323 154.644C73.6483 154.308 73.3923 154.048 73.0643 153.864C72.7443 153.68 72.3803 153.588 71.9723 153.588C71.5643 153.588 71.2003 153.68 70.8803 153.864C70.5603 154.048 70.3043 154.308 70.1123 154.644C69.9203 154.972 69.8243 155.364 69.8243 155.82C69.8243 156.268 69.9203 156.664 70.1123 157.008C70.3043 157.344 70.5603 157.604 70.8803 157.788C71.2003 157.972 71.5643 158.064 71.9723 158.064ZM80.2374 159.072C79.6934 159.072 79.2014 158.952 78.7614 158.712C78.3294 158.464 77.9854 158.1 77.7294 157.62C77.4814 157.14 77.3574 156.54 77.3574 155.82C77.3574 155.1 77.4854 154.5 77.7414 154.02C78.0054 153.54 78.3534 153.18 78.7854 152.94C79.2254 152.7 79.7094 152.58 80.2374 152.58C80.8614 152.58 81.4134 152.716 81.8934 152.988C82.3734 153.26 82.7534 153.64 83.0334 154.128C83.3134 154.608 83.4534 155.172 83.4534 155.82C83.4534 156.468 83.3134 157.036 83.0334 157.524C82.7534 158.012 82.3734 158.392 81.8934 158.664C81.4134 158.936 80.8614 159.072 80.2374 159.072ZM76.8654 159V150.096H78.0174V154.332L77.8974 155.808L77.9694 157.284V159H76.8654ZM80.1414 158.064C80.5494 158.064 80.9134 157.972 81.2334 157.788C81.5614 157.604 81.8174 157.344 82.0014 157.008C82.1934 156.664 82.2894 156.268 82.2894 155.82C82.2894 155.364 82.1934 154.972 82.0014 154.644C81.8174 154.308 81.5614 154.048 81.2334 153.864C80.9134 153.68 80.5494 153.588 80.1414 153.588C79.7414 153.588 79.3774 153.68 79.0494 153.864C78.7294 154.048 78.4734 154.308 78.2814 154.644C78.0974 154.972 78.0054 155.364 78.0054 155.82C78.0054 156.268 78.0974 156.664 78.2814 157.008C78.4734 157.344 78.7294 157.604 79.0494 157.788C79.3774 157.972 79.7414 158.064 80.1414 158.064ZM85.0451 159V152.64H86.1491V154.368L86.0411 153.936C86.2171 153.496 86.5131 153.16 86.9291 152.928C87.3451 152.696 87.8571 152.58 88.4651 152.58V153.696C88.4171 153.688 88.3691 153.684 88.3211 153.684C88.2811 153.684 88.2411 153.684 88.2011 153.684C87.5851 153.684 87.0971 153.868 86.7371 154.236C86.3771 154.604 86.1971 155.136 86.1971 155.832V159H85.0451ZM93.3642 159V157.656L93.3042 157.404V155.112C93.3042 154.624 93.1602 154.248 92.8722 153.984C92.5922 153.712 92.1682 153.576 91.6002 153.576C91.2242 153.576 90.8562 153.64 90.4962 153.768C90.1362 153.888 89.8322 154.052 89.5842 154.26L89.1042 153.396C89.4322 153.132 89.8242 152.932 90.2802 152.796C90.7442 152.652 91.2282 152.58 91.7322 152.58C92.6042 152.58 93.2762 152.792 93.7482 153.216C94.2202 153.64 94.4562 154.288 94.4562 155.16V159H93.3642ZM91.2762 159.072C90.8042 159.072 90.3882 158.992 90.0282 158.832C89.6762 158.672 89.4042 158.452 89.2122 158.172C89.0202 157.884 88.9242 157.56 88.9242 157.2C88.9242 156.856 89.0042 156.544 89.1642 156.264C89.3322 155.984 89.6002 155.76 89.9682 155.592C90.3442 155.424 90.8482 155.34 91.4802 155.34H93.4962V156.168H91.5282C90.9522 156.168 90.5642 156.264 90.3642 156.456C90.1642 156.648 90.0642 156.88 90.0642 157.152C90.0642 157.464 90.1882 157.716 90.4362 157.908C90.6842 158.092 91.0282 158.184 91.4682 158.184C91.9002 158.184 92.2762 158.088 92.5962 157.896C92.9242 157.704 93.1602 157.424 93.3042 157.056L93.5322 157.848C93.3802 158.224 93.1122 158.524 92.7282 158.748C92.3442 158.964 91.8602 159.072 91.2762 159.072ZM99.2161 159.072C98.6001 159.072 98.0481 158.936 97.5601 158.664C97.0801 158.392 96.7001 158.012 96.4201 157.524C96.1401 157.036 96.0001 156.468 96.0001 155.82C96.0001 155.172 96.1401 154.608 96.4201 154.128C96.7001 153.64 97.0801 153.26 97.5601 152.988C98.0481 152.716 98.6001 152.58 99.2161 152.58C99.7521 152.58 100.236 152.7 100.668 152.94C101.1 153.18 101.444 153.54 101.7 154.02C101.964 154.5 102.096 155.1 102.096 155.82C102.096 156.54 101.968 157.14 101.712 157.62C101.464 158.1 101.124 158.464 100.692 158.712C100.26 158.952 99.7681 159.072 99.2161 159.072ZM99.3121 158.064C99.7121 158.064 100.072 157.972 100.392 157.788C100.72 157.604 100.976 157.344 101.16 157.008C101.352 156.664 101.448 156.268 101.448 155.82C101.448 155.364 101.352 154.972 101.16 154.644C100.976 154.308 100.72 154.048 100.392 153.864C100.072 153.68 99.7121 153.588 99.3121 153.588C98.9041 153.588 98.5401 153.68 98.2201 153.864C97.9001 154.048 97.6441 154.308 97.4521 154.644C97.2601 154.972 97.1641 155.364 97.1641 155.82C97.1641 156.268 97.2601 156.664 97.4521 157.008C97.6441 157.344 97.9001 157.604 98.2201 157.788C98.5401 157.972 98.9041 158.064 99.3121 158.064ZM101.484 159V157.284L101.556 155.808L101.436 154.332V150.096H102.588V159H101.484ZM107.492 159.072C106.852 159.072 106.284 158.932 105.788 158.652C105.292 158.372 104.9 157.988 104.612 157.5C104.324 157.004 104.18 156.444 104.18 155.82C104.18 155.188 104.324 154.628 104.612 154.14C104.9 153.652 105.292 153.272 105.788 153C106.284 152.72 106.852 152.58 107.492 152.58C108.124 152.58 108.688 152.72 109.184 153C109.688 153.272 110.08 153.652 110.36 154.14C110.648 154.62 110.792 155.18 110.792 155.82C110.792 156.452 110.648 157.012 110.36 157.5C110.08 157.988 109.688 158.372 109.184 158.652C108.688 158.932 108.124 159.072 107.492 159.072ZM107.492 158.064C107.9 158.064 108.264 157.972 108.584 157.788C108.912 157.604 109.168 157.344 109.352 157.008C109.536 156.664 109.628 156.268 109.628 155.82C109.628 155.364 109.536 154.972 109.352 154.644C109.168 154.308 108.912 154.048 108.584 153.864C108.264 153.68 107.9 153.588 107.492 153.588C107.084 153.588 106.72 153.68 106.4 153.864C106.08 154.048 105.824 154.308 105.632 154.644C105.44 154.972 105.344 155.364 105.344 155.82C105.344 156.268 105.44 156.664 105.632 157.008C105.824 157.344 106.08 157.604 106.4 157.788C106.72 157.972 107.084 158.064 107.492 158.064ZM114.209 159.072C113.681 159.072 113.177 159 112.697 158.856C112.225 158.712 111.853 158.536 111.581 158.328L112.061 157.416C112.333 157.6 112.669 157.756 113.069 157.884C113.469 158.012 113.877 158.076 114.293 158.076C114.829 158.076 115.213 158 115.445 157.848C115.685 157.696 115.805 157.484 115.805 157.212C115.805 157.012 115.733 156.856 115.589 156.744C115.445 156.632 115.253 156.548 115.013 156.492C114.781 156.436 114.521 156.388 114.233 156.348C113.945 156.3 113.657 156.244 113.369 156.18C113.081 156.108 112.817 156.012 112.577 155.892C112.337 155.764 112.145 155.592 112.001 155.376C111.857 155.152 111.785 154.856 111.785 154.488C111.785 154.104 111.893 153.768 112.109 153.48C112.325 153.192 112.629 152.972 113.021 152.82C113.421 152.66 113.893 152.58 114.437 152.58C114.853 152.58 115.273 152.632 115.697 152.736C116.129 152.832 116.481 152.972 116.753 153.156L116.261 154.068C115.973 153.876 115.673 153.744 115.361 153.672C115.049 153.6 114.737 153.564 114.425 153.564C113.921 153.564 113.545 153.648 113.297 153.816C113.049 153.976 112.925 154.184 112.925 154.44C112.925 154.656 112.997 154.824 113.141 154.944C113.293 155.056 113.485 155.144 113.717 155.208C113.957 155.272 114.221 155.328 114.509 155.376C114.797 155.416 115.085 155.472 115.373 155.544C115.661 155.608 115.921 155.7 116.153 155.82C116.393 155.94 116.585 156.108 116.729 156.324C116.881 156.54 116.957 156.828 116.957 157.188C116.957 157.572 116.845 157.904 116.621 158.184C116.397 158.464 116.081 158.684 115.673 158.844C115.265 158.996 114.777 159.072 114.209 159.072ZM118.673 159.072C118.449 159.072 118.257 158.996 118.097 158.844C117.937 158.684 117.857 158.484 117.857 158.244C117.857 158.004 117.937 157.808 118.097 157.656C118.257 157.504 118.449 157.428 118.673 157.428C118.889 157.428 119.073 157.504 119.225 157.656C119.385 157.808 119.465 158.004 119.465 158.244C119.465 158.484 119.385 158.684 119.225 158.844C119.073 158.996 118.889 159.072 118.673 159.072Z" fill="#008E86"/>
<path d="M45.001 60.2422L102.483 27.2418L135.001 60.2422L102.483 93.2418L45.001 60.2422Z" fill="#00D8CC" stroke="#00635D" stroke-width="2" stroke-linejoin="round"/>
<path d="M45 60.2422L102.482 27.2418L107.484 43.2418L45 60.2422Z" fill="#008E86" stroke="#00635D" stroke-width="2" stroke-linejoin="round"/>
<path d="M45 60.2422L102.482 93.2418L106.984 77.2418L45 60.2422Z" fill="#008E86" stroke="#00635D" stroke-width="2" stroke-linejoin="round"/>
<path d="M95.9844 45.7422L104.484 35.7422L85.4843 47.2422" stroke="#333333" stroke-width="2" stroke-dasharray="4 4"/>
<path d="M109.131 19.1601C108.658 18.8757 108.043 19.0289 107.759 19.5023C107.475 19.9757 107.628 20.5901 108.101 20.8745L109.131 19.1601ZM131.966 40.278C132.501 40.1443 132.827 39.6016 132.694 39.0657L130.516 30.3332C130.383 29.7973 129.84 29.4712 129.304 29.6048C128.768 29.7385 128.442 30.2812 128.576 30.8171L130.511 38.5794L122.749 40.5151C122.213 40.6487 121.887 41.1915 122.021 41.7274C122.154 42.2632 122.697 42.5893 123.233 42.4557L131.966 40.278ZM122.522 28.3723L122.764 29.3426C123.157 29.2447 123.452 28.9201 123.511 28.5201C123.571 28.1201 123.384 27.7234 123.037 27.5151L122.522 28.3723ZM116.493 30.1573L116.251 29.1871C115.859 29.2849 115.564 29.6095 115.504 30.0096C115.444 30.4096 115.632 30.8062 115.978 31.0145L116.493 30.1573ZM108.101 20.8745C110.874 22.5403 117.004 26.2232 122.007 29.2295L123.037 27.5151C118.034 24.5088 111.904 20.8259 109.131 19.1601L108.101 20.8745ZM122.281 27.402C120.649 27.8089 120.036 28.035 119.369 28.2739C118.754 28.4942 118.074 28.7325 116.251 29.1871L116.735 31.1276C118.623 30.6569 119.367 30.3993 120.044 30.1567C120.669 29.9326 121.216 29.7288 122.764 29.3426L122.281 27.402ZM115.978 31.0145C118.958 32.8049 128.946 38.8058 131.209 40.1649L132.239 38.4505C129.976 37.0914 119.988 31.0905 117.008 29.3002L115.978 31.0145Z" fill="black"/>
<path d="M105.246 103.583C104.764 103.854 104.154 103.683 103.884 103.202C103.613 102.721 103.784 102.111 104.265 101.84L105.246 103.583ZM128.367 82.6932C128.899 82.8422 129.209 83.394 129.061 83.9259L126.633 92.5924C126.484 93.1242 125.933 93.4346 125.401 93.2857C124.869 93.1367 124.559 92.5848 124.707 92.053L126.865 84.3494L119.161 82.192C118.63 82.043 118.319 81.4912 118.468 80.9593C118.617 80.4275 119.169 80.1171 119.701 80.2661L128.367 82.6932ZM119.003 94.6982L119.293 93.7412C119.677 93.8573 119.954 94.1911 119.997 94.5894C120.041 94.9876 119.843 95.3734 119.493 95.5698L119.003 94.6982ZM112.493 92.4325L112.203 93.3896C111.82 93.2734 111.543 92.9396 111.499 92.5414C111.456 92.1431 111.654 91.7573 112.003 91.5609L112.493 92.4325ZM104.265 101.84C107.106 100.242 113.386 96.7101 118.513 93.8266L119.493 95.5698C114.367 98.4533 108.086 101.986 105.246 103.583L104.265 101.84ZM118.713 95.6553C116.962 95.1249 116.303 94.8493 115.585 94.5562C114.913 94.2823 114.171 93.9856 112.203 93.3896L112.783 91.4755C114.811 92.0898 115.612 92.4072 116.34 92.7042C117.021 92.9821 117.619 93.2341 119.293 93.7412L118.713 95.6553ZM112.003 91.5609C115.056 89.8437 125.29 84.0881 127.607 82.7846L128.588 84.5278C126.27 85.8313 116.037 91.5869 112.984 93.3041L112.003 91.5609Z" fill="black"/>
<path d="M97.1923 76.0033L103.695 88.3711L86.5794 71.341" stroke="#333333" stroke-width="2" stroke-dasharray="4 4"/>
<path opacity="0.25" d="M135.001 60.2422L45.001 60.2422" stroke="#333333" stroke-width="2"/>
</svg>
