<svg width="180" height="180" viewBox="0 0 180 180" fill="none" xmlns="http://www.w3.org/2000/svg">
<g clip-path="url(#clip0_18_340)">
<rect width="180" height="180" rx="20" fill="#F2F2F2"/>
<g clip-path="url(#clip1_18_340)">
<path d="M0 30L-1.31134e-06 0L30 -1.31134e-06L30 10C30 21.0457 21.0457 30 10 30L0 30Z" fill="#333333"/>
<path d="M14.7062 14.008C16.2849 14.008 17.4475 14.3227 18.1942 14.952C18.9515 15.5813 19.3302 16.424 19.3302 17.48C19.3302 18.1627 19.1595 18.7867 18.8182 19.352C18.4769 19.9067 17.9542 20.3547 17.2502 20.696C16.5569 21.0267 15.6982 21.192 14.6742 21.192C13.8849 21.192 13.1062 21.0907 12.3382 20.888C11.5809 20.6747 10.9355 20.376 10.4022 19.992L11.4262 18.008C11.8529 18.328 12.3435 18.5787 12.8982 18.76C13.4529 18.9307 14.0235 19.016 14.6102 19.016C15.2609 19.016 15.7729 18.888 16.1462 18.632C16.5195 18.376 16.7062 18.0187 16.7062 17.56C16.7062 17.08 16.5089 16.7173 16.1142 16.472C15.7302 16.2267 15.0582 16.104 14.0982 16.104H11.2342L11.8102 9.8H18.6422V11.88H13.9702L13.7942 14.008H14.7062Z" fill="#F2F2F2"/>
</g>
<path d="M58.1028 137.096C57.4548 137.096 56.8588 136.992 56.3148 136.784C55.7708 136.568 55.2988 136.268 54.8988 135.884C54.4988 135.492 54.1868 135.036 53.9628 134.516C53.7388 133.996 53.6268 133.424 53.6268 132.8C53.6268 132.176 53.7388 131.604 53.9628 131.084C54.1868 130.564 54.4988 130.112 54.8988 129.728C55.3068 129.336 55.7828 129.036 56.3268 128.828C56.8708 128.612 57.4708 128.504 58.1268 128.504C58.7908 128.504 59.3988 128.612 59.9508 128.828C60.5028 129.044 60.9708 129.368 61.3548 129.8L60.6108 130.544C60.2668 130.208 59.8908 129.964 59.4828 129.812C59.0828 129.652 58.6468 129.572 58.1748 129.572C57.6948 129.572 57.2468 129.652 56.8308 129.812C56.4228 129.972 56.0668 130.196 55.7628 130.484C55.4668 130.772 55.2348 131.116 55.0668 131.516C54.9068 131.908 54.8268 132.336 54.8268 132.8C54.8268 133.256 54.9068 133.684 55.0668 134.084C55.2348 134.476 55.4668 134.82 55.7628 135.116C56.0668 135.404 56.4228 135.628 56.8308 135.788C57.2388 135.948 57.6828 136.028 58.1628 136.028C58.6108 136.028 59.0388 135.96 59.4468 135.824C59.8628 135.68 60.2468 135.444 60.5988 135.116L61.2828 136.028C60.8668 136.38 60.3788 136.648 59.8188 136.832C59.2668 137.008 58.6948 137.096 58.1028 137.096ZM60.1308 135.872V132.752H61.2828V136.028L60.1308 135.872ZM63.4123 137V130.64H64.5643V137H63.4123ZM63.9883 129.416C63.7643 129.416 63.5763 129.344 63.4243 129.2C63.2803 129.056 63.2083 128.88 63.2083 128.672C63.2083 128.456 63.2803 128.276 63.4243 128.132C63.5763 127.988 63.7643 127.916 63.9883 127.916C64.2123 127.916 64.3963 127.988 64.5403 128.132C64.6923 128.268 64.7683 128.44 64.7683 128.648C64.7683 128.864 64.6963 129.048 64.5523 129.2C64.4083 129.344 64.2203 129.416 63.9883 129.416ZM66.7639 137V130.64H67.8679V132.368L67.7599 131.936C67.9359 131.496 68.2319 131.16 68.6479 130.928C69.0639 130.696 69.5759 130.58 70.1839 130.58V131.696C70.1359 131.688 70.0879 131.684 70.0399 131.684C69.9999 131.684 69.9599 131.684 69.9199 131.684C69.3039 131.684 68.8159 131.868 68.4559 132.236C68.0959 132.604 67.9159 133.136 67.9159 133.832V137H66.7639ZM74.3771 137.072C73.6971 137.072 73.0971 136.932 72.5771 136.652C72.0651 136.372 71.6651 135.988 71.3771 135.5C71.0971 135.012 70.9571 134.452 70.9571 133.82C70.9571 133.188 71.0931 132.628 71.3651 132.14C71.6451 131.652 72.0251 131.272 72.5051 131C72.9931 130.72 73.5411 130.58 74.1491 130.58C74.7651 130.58 75.3091 130.716 75.7811 130.988C76.2531 131.26 76.6211 131.644 76.8851 132.14C77.1571 132.628 77.2931 133.2 77.2931 133.856C77.2931 133.904 77.2891 133.96 77.2811 134.024C77.2811 134.088 77.2771 134.148 77.2691 134.204H71.8571V133.376H76.6691L76.2011 133.664C76.2091 133.256 76.1251 132.892 75.9491 132.572C75.7731 132.252 75.5291 132.004 75.2171 131.828C74.9131 131.644 74.5571 131.552 74.1491 131.552C73.7491 131.552 73.3931 131.644 73.0811 131.828C72.7691 132.004 72.5251 132.256 72.3491 132.584C72.1731 132.904 72.0851 133.272 72.0851 133.688V133.88C72.0851 134.304 72.1811 134.684 72.3731 135.02C72.5731 135.348 72.8491 135.604 73.2011 135.788C73.5531 135.972 73.9571 136.064 74.4131 136.064C74.7891 136.064 75.1291 136 75.4331 135.872C75.7451 135.744 76.0171 135.552 76.2491 135.296L76.8851 136.04C76.5971 136.376 76.2371 136.632 75.8051 136.808C75.3811 136.984 74.9051 137.072 74.3771 137.072ZM86.0634 137V135.656L86.0034 135.404V133.112C86.0034 132.624 85.8594 132.248 85.5714 131.984C85.2914 131.712 84.8674 131.576 84.2994 131.576C83.9234 131.576 83.5554 131.64 83.1954 131.768C82.8354 131.888 82.5314 132.052 82.2834 132.26L81.8034 131.396C82.1314 131.132 82.5234 130.932 82.9794 130.796C83.4434 130.652 83.9274 130.58 84.4314 130.58C85.3034 130.58 85.9754 130.792 86.4474 131.216C86.9194 131.64 87.1554 132.288 87.1554 133.16V137H86.0634ZM83.9754 137.072C83.5034 137.072 83.0874 136.992 82.7274 136.832C82.3754 136.672 82.1034 136.452 81.9114 136.172C81.7194 135.884 81.6234 135.56 81.6234 135.2C81.6234 134.856 81.7034 134.544 81.8634 134.264C82.0314 133.984 82.2994 133.76 82.6674 133.592C83.0434 133.424 83.5474 133.34 84.1794 133.34H86.1954V134.168H84.2274C83.6514 134.168 83.2634 134.264 83.0634 134.456C82.8634 134.648 82.7634 134.88 82.7634 135.152C82.7634 135.464 82.8874 135.716 83.1354 135.908C83.3834 136.092 83.7274 136.184 84.1674 136.184C84.5994 136.184 84.9754 136.088 85.2954 135.896C85.6234 135.704 85.8594 135.424 86.0034 135.056L86.2314 135.848C86.0794 136.224 85.8114 136.524 85.4274 136.748C85.0434 136.964 84.5594 137.072 83.9754 137.072ZM92.678 137V130.076C92.678 129.452 92.858 128.956 93.218 128.588C93.586 128.212 94.106 128.024 94.778 128.024C95.026 128.024 95.262 128.056 95.486 128.12C95.718 128.176 95.914 128.268 96.074 128.396L95.726 129.272C95.606 129.176 95.47 129.104 95.318 129.056C95.166 129 95.006 128.972 94.838 128.972C94.502 128.972 94.246 129.068 94.07 129.26C93.894 129.444 93.806 129.72 93.806 130.088V130.94L93.83 131.468V137H92.678ZM91.598 131.588V130.64H95.654V131.588H91.598ZM96.746 137V130.64H97.898V137H96.746ZM97.322 129.416C97.098 129.416 96.91 129.344 96.758 129.2C96.614 129.056 96.542 128.88 96.542 128.672C96.542 128.456 96.614 128.276 96.758 128.132C96.91 127.988 97.098 127.916 97.322 127.916C97.546 127.916 97.73 127.988 97.874 128.132C98.026 128.268 98.102 128.44 98.102 128.648C98.102 128.864 98.03 129.048 97.886 129.2C97.742 129.344 97.554 129.416 97.322 129.416ZM102.876 139.4C102.292 139.4 101.724 139.316 101.172 139.148C100.628 138.988 100.184 138.756 99.84 138.452L100.392 137.564C100.688 137.82 101.052 138.02 101.484 138.164C101.916 138.316 102.368 138.392 102.84 138.392C103.592 138.392 104.144 138.216 104.496 137.864C104.848 137.512 105.024 136.976 105.024 136.256V134.912L105.144 133.652L105.084 132.38V130.64H106.176V136.136C106.176 137.256 105.896 138.08 105.336 138.608C104.776 139.136 103.956 139.4 102.876 139.4ZM102.732 136.736C102.116 136.736 101.564 136.608 101.076 136.352C100.596 136.088 100.212 135.724 99.924 135.26C99.644 134.796 99.504 134.26 99.504 133.652C99.504 133.036 99.644 132.5 99.924 132.044C100.212 131.58 100.596 131.22 101.076 130.964C101.564 130.708 102.116 130.58 102.732 130.58C103.276 130.58 103.772 130.692 104.22 130.916C104.668 131.132 105.024 131.468 105.288 131.924C105.56 132.38 105.696 132.956 105.696 133.652C105.696 134.34 105.56 134.912 105.288 135.368C105.024 135.824 104.668 136.168 104.22 136.4C103.772 136.624 103.276 136.736 102.732 136.736ZM102.864 135.728C103.288 135.728 103.664 135.64 103.992 135.464C104.32 135.288 104.576 135.044 104.76 134.732C104.952 134.42 105.048 134.06 105.048 133.652C105.048 133.244 104.952 132.884 104.76 132.572C104.576 132.26 104.32 132.02 103.992 131.852C103.664 131.676 103.288 131.588 102.864 131.588C102.44 131.588 102.06 131.676 101.724 131.852C101.396 132.02 101.136 132.26 100.944 132.572C100.76 132.884 100.668 133.244 100.668 133.652C100.668 134.06 100.76 134.42 100.944 134.732C101.136 135.044 101.396 135.288 101.724 135.464C102.06 135.64 102.44 135.728 102.864 135.728ZM111.053 137.072C110.509 137.072 110.029 136.972 109.613 136.772C109.205 136.572 108.885 136.268 108.653 135.86C108.429 135.444 108.317 134.924 108.317 134.3V130.64H109.469V134.168C109.469 134.792 109.617 135.26 109.913 135.572C110.217 135.884 110.641 136.04 111.185 136.04C111.585 136.04 111.933 135.96 112.229 135.8C112.525 135.632 112.753 135.392 112.913 135.08C113.073 134.76 113.153 134.376 113.153 133.928V130.64H114.305V137H113.213V135.284L113.393 135.74C113.185 136.164 112.873 136.492 112.457 136.724C112.041 136.956 111.573 137.072 111.053 137.072ZM116.498 137V130.64H117.602V132.368L117.494 131.936C117.67 131.496 117.966 131.16 118.382 130.928C118.798 130.696 119.31 130.58 119.918 130.58V131.696C119.87 131.688 119.822 131.684 119.774 131.684C119.734 131.684 119.694 131.684 119.654 131.684C119.038 131.684 118.55 131.868 118.19 132.236C117.83 132.604 117.65 133.136 117.65 133.832V137H116.498ZM124.817 137V135.656L124.757 135.404V133.112C124.757 132.624 124.613 132.248 124.325 131.984C124.045 131.712 123.621 131.576 123.053 131.576C122.677 131.576 122.309 131.64 121.949 131.768C121.589 131.888 121.285 132.052 121.037 132.26L120.557 131.396C120.885 131.132 121.277 130.932 121.733 130.796C122.197 130.652 122.681 130.58 123.185 130.58C124.057 130.58 124.729 130.792 125.201 131.216C125.673 131.64 125.909 132.288 125.909 133.16V137H124.817ZM122.729 137.072C122.257 137.072 121.841 136.992 121.481 136.832C121.129 136.672 120.857 136.452 120.665 136.172C120.473 135.884 120.377 135.56 120.377 135.2C120.377 134.856 120.457 134.544 120.617 134.264C120.785 133.984 121.053 133.76 121.421 133.592C121.797 133.424 122.301 133.34 122.933 133.34H124.949V134.168H122.981C122.405 134.168 122.017 134.264 121.817 134.456C121.617 134.648 121.517 134.88 121.517 135.152C121.517 135.464 121.641 135.716 121.889 135.908C122.137 136.092 122.481 136.184 122.921 136.184C123.353 136.184 123.729 136.088 124.049 135.896C124.377 135.704 124.613 135.424 124.757 135.056L124.985 135.848C124.833 136.224 124.565 136.524 124.181 136.748C123.797 136.964 123.313 137.072 122.729 137.072ZM63.0517 149.936V149.096L67.3477 143.6H68.6437L64.3837 149.096L63.7717 148.904H70.4797V149.936H63.0517ZM67.7197 152V149.936L67.7557 148.904V147.08H68.8837V152H67.7197ZM73.8993 152.096C73.3073 152.096 72.7313 152.004 72.1713 151.82C71.6193 151.636 71.1673 151.388 70.8153 151.076L71.3673 150.128C71.6473 150.392 72.0113 150.608 72.4593 150.776C72.9073 150.944 73.3833 151.028 73.8873 151.028C74.5273 151.028 75.0193 150.892 75.3633 150.62C75.7073 150.348 75.8793 149.984 75.8793 149.528C75.8793 149.216 75.8033 148.944 75.6513 148.712C75.4993 148.48 75.2353 148.304 74.8593 148.184C74.4913 148.056 73.9833 147.992 73.3353 147.992H71.4273L71.8713 143.6H76.6113V144.644H72.3153L72.9393 144.056L72.5913 147.524L71.9673 146.948H73.5873C74.4273 146.948 75.1033 147.056 75.6153 147.272C76.1273 147.488 76.4993 147.788 76.7313 148.172C76.9633 148.548 77.0793 148.984 77.0793 149.48C77.0793 149.96 76.9633 150.4 76.7313 150.8C76.4993 151.192 76.1473 151.508 75.6753 151.748C75.2113 151.98 74.6193 152.096 73.8993 152.096ZM84.6006 154.4C84.0166 154.4 83.4486 154.316 82.8966 154.148C82.3526 153.988 81.9086 153.756 81.5646 153.452L82.1166 152.564C82.4126 152.82 82.7766 153.02 83.2086 153.164C83.6406 153.316 84.0926 153.392 84.5646 153.392C85.3166 153.392 85.8686 153.216 86.2206 152.864C86.5726 152.512 86.7486 151.976 86.7486 151.256V149.912L86.8686 148.652L86.8086 147.38V145.64H87.9006V151.136C87.9006 152.256 87.6206 153.08 87.0606 153.608C86.5006 154.136 85.6806 154.4 84.6006 154.4ZM84.4566 151.736C83.8406 151.736 83.2886 151.608 82.8006 151.352C82.3206 151.088 81.9366 150.724 81.6486 150.26C81.3686 149.796 81.2286 149.26 81.2286 148.652C81.2286 148.036 81.3686 147.5 81.6486 147.044C81.9366 146.58 82.3206 146.22 82.8006 145.964C83.2886 145.708 83.8406 145.58 84.4566 145.58C85.0006 145.58 85.4966 145.692 85.9446 145.916C86.3926 146.132 86.7486 146.468 87.0126 146.924C87.2846 147.38 87.4206 147.956 87.4206 148.652C87.4206 149.34 87.2846 149.912 87.0126 150.368C86.7486 150.824 86.3926 151.168 85.9446 151.4C85.4966 151.624 85.0006 151.736 84.4566 151.736ZM84.5886 150.728C85.0126 150.728 85.3886 150.64 85.7166 150.464C86.0446 150.288 86.3006 150.044 86.4846 149.732C86.6766 149.42 86.7726 149.06 86.7726 148.652C86.7726 148.244 86.6766 147.884 86.4846 147.572C86.3006 147.26 86.0446 147.02 85.7166 146.852C85.3886 146.676 85.0126 146.588 84.5886 146.588C84.1646 146.588 83.7846 146.676 83.4486 146.852C83.1206 147.02 82.8606 147.26 82.6686 147.572C82.4846 147.884 82.3926 148.244 82.3926 148.652C82.3926 149.06 82.4846 149.42 82.6686 149.732C82.8606 150.044 83.1206 150.288 83.4486 150.464C83.7846 150.64 84.1646 150.728 84.5886 150.728ZM90.1018 152V145.64H91.2058V147.368L91.0978 146.936C91.2738 146.496 91.5698 146.16 91.9858 145.928C92.4018 145.696 92.9138 145.58 93.5218 145.58V146.696C93.4738 146.688 93.4258 146.684 93.3778 146.684C93.3378 146.684 93.2978 146.684 93.2578 146.684C92.6418 146.684 92.1538 146.868 91.7938 147.236C91.4338 147.604 91.2538 148.136 91.2538 148.832V152H90.1018ZM98.4209 152V150.656L98.3609 150.404V148.112C98.3609 147.624 98.2169 147.248 97.9289 146.984C97.6489 146.712 97.2249 146.576 96.6569 146.576C96.2809 146.576 95.9129 146.64 95.5529 146.768C95.1929 146.888 94.8889 147.052 94.6409 147.26L94.1609 146.396C94.4889 146.132 94.8809 145.932 95.3369 145.796C95.8009 145.652 96.2849 145.58 96.7889 145.58C97.6609 145.58 98.3329 145.792 98.8049 146.216C99.2769 146.64 99.5129 147.288 99.5129 148.16V152H98.4209ZM96.3329 152.072C95.8609 152.072 95.4449 151.992 95.0849 151.832C94.7329 151.672 94.4609 151.452 94.2689 151.172C94.0769 150.884 93.9809 150.56 93.9809 150.2C93.9809 149.856 94.0609 149.544 94.2209 149.264C94.3889 148.984 94.6569 148.76 95.0249 148.592C95.4009 148.424 95.9049 148.34 96.5369 148.34H98.5529V149.168H96.5849C96.0089 149.168 95.6209 149.264 95.4209 149.456C95.2209 149.648 95.1209 149.88 95.1209 150.152C95.1209 150.464 95.2449 150.716 95.4929 150.908C95.7409 151.092 96.0849 151.184 96.5249 151.184C96.9569 151.184 97.3329 151.088 97.6529 150.896C97.9809 150.704 98.2169 150.424 98.3609 150.056L98.5889 150.848C98.4369 151.224 98.1689 151.524 97.7849 151.748C97.4009 151.964 96.9169 152.072 96.3329 152.072ZM104.321 152.072C103.777 152.072 103.297 151.972 102.881 151.772C102.473 151.572 102.153 151.268 101.921 150.86C101.697 150.444 101.585 149.924 101.585 149.3V145.64H102.737V149.168C102.737 149.792 102.885 150.26 103.181 150.572C103.485 150.884 103.909 151.04 104.453 151.04C104.853 151.04 105.201 150.96 105.497 150.8C105.793 150.632 106.021 150.392 106.181 150.08C106.341 149.76 106.421 149.376 106.421 148.928V145.64H107.573V152H106.481V150.284L106.661 150.74C106.453 151.164 106.141 151.492 105.725 151.724C105.309 151.956 104.841 152.072 104.321 152.072ZM111.59 152.072C111.062 152.072 110.558 152 110.078 151.856C109.606 151.712 109.234 151.536 108.962 151.328L109.442 150.416C109.714 150.6 110.05 150.756 110.45 150.884C110.85 151.012 111.258 151.076 111.674 151.076C112.21 151.076 112.594 151 112.826 150.848C113.066 150.696 113.186 150.484 113.186 150.212C113.186 150.012 113.114 149.856 112.97 149.744C112.826 149.632 112.634 149.548 112.394 149.492C112.162 149.436 111.902 149.388 111.614 149.348C111.326 149.3 111.038 149.244 110.75 149.18C110.462 149.108 110.198 149.012 109.958 148.892C109.718 148.764 109.526 148.592 109.382 148.376C109.238 148.152 109.166 147.856 109.166 147.488C109.166 147.104 109.274 146.768 109.49 146.48C109.706 146.192 110.01 145.972 110.402 145.82C110.802 145.66 111.274 145.58 111.818 145.58C112.234 145.58 112.654 145.632 113.078 145.736C113.51 145.832 113.862 145.972 114.134 146.156L113.642 147.068C113.354 146.876 113.054 146.744 112.742 146.672C112.43 146.6 112.118 146.564 111.806 146.564C111.302 146.564 110.926 146.648 110.678 146.816C110.43 146.976 110.306 147.184 110.306 147.44C110.306 147.656 110.378 147.824 110.522 147.944C110.674 148.056 110.866 148.144 111.098 148.208C111.338 148.272 111.602 148.328 111.89 148.376C112.178 148.416 112.466 148.472 112.754 148.544C113.042 148.608 113.302 148.7 113.534 148.82C113.774 148.94 113.966 149.108 114.11 149.324C114.262 149.54 114.338 149.828 114.338 150.188C114.338 150.572 114.226 150.904 114.002 151.184C113.778 151.464 113.462 151.684 113.054 151.844C112.646 151.996 112.158 152.072 111.59 152.072ZM116.054 152.072C115.83 152.072 115.638 151.996 115.478 151.844C115.318 151.684 115.238 151.484 115.238 151.244C115.238 151.004 115.318 150.808 115.478 150.656C115.638 150.504 115.83 150.428 116.054 150.428C116.27 150.428 116.454 150.504 116.606 150.656C116.766 150.808 116.846 151.004 116.846 151.244C116.846 151.484 116.766 151.684 116.606 151.844C116.454 151.996 116.27 152.072 116.054 152.072Z" fill="#008E86"/>
<path d="M45.001 55H135.001L102.483 87.9996L45.001 55Z" fill="#00D8CC" stroke="#00635D" stroke-width="2" stroke-linejoin="round"/>
<path d="M49.8027 34.9751C49.4121 35.3656 49.4121 35.9988 49.8027 36.3893C50.1932 36.7798 50.8263 36.7798 51.2169 36.3893L49.8027 34.9751ZM129.822 36.6822C130.374 36.6822 130.822 36.2345 130.822 35.6822L130.822 26.6822C130.822 26.1299 130.374 25.6822 129.822 25.6822C129.27 25.6822 128.822 26.1299 128.822 26.6822L128.822 34.6822L120.822 34.6822C120.27 34.6822 119.822 35.1299 119.822 35.6822C119.822 36.2345 120.27 36.6822 120.822 36.6822L129.822 36.6822ZM51.2169 36.3893C62.6458 24.9604 76.3299 19.7578 90 19.7578V17.7578C75.7947 17.7578 61.6033 23.1745 49.8027 34.9751L51.2169 36.3893ZM90 19.7578C96.7833 19.7578 104.522 21.8634 111.62 25.0225C118.717 28.1813 125.076 32.35 129.115 36.3893L130.529 34.9751C126.272 30.7181 119.689 26.4246 112.433 23.1953C105.178 19.9663 97.1546 17.7578 90 17.7578V19.7578Z" fill="black"/>
<path d="M130.529 79.4663C130.92 79.0758 130.92 78.4426 130.529 78.0521C130.139 77.6616 129.506 77.6616 129.115 78.0521L130.529 79.4663ZM50.5099 77.7592C49.9576 77.7592 49.5099 78.2069 49.5099 78.7592L49.5099 87.7592C49.5099 88.3115 49.9576 88.7592 50.5099 88.7592C51.0622 88.7592 51.5099 88.3115 51.5099 87.7592L51.5099 79.7592L59.5099 79.7592C60.0622 79.7592 60.5099 79.3115 60.5099 78.7592C60.5099 78.2069 60.0622 77.7592 59.5099 77.7592L50.5099 77.7592ZM129.115 78.0521C117.686 89.481 104.002 94.6836 90.332 94.6836L90.332 96.6836C104.537 96.6836 118.729 91.2669 130.529 79.4663L129.115 78.0521ZM90.332 94.6836C83.5488 94.6836 75.8098 92.578 68.712 89.4189C61.6149 86.2601 55.2563 82.0914 51.217 78.0521L49.8028 79.4663C54.0598 83.7233 60.6433 88.0168 67.8988 91.2461C75.1536 94.4751 83.1775 96.6836 90.332 96.6836L90.332 94.6836Z" fill="black"/>
<path d="M45 54.5L102.482 87.5004L105.484 77.5004L85.9844 66.0004L45 54.5Z" fill="#008E86" stroke="#00635D" stroke-width="2" stroke-linejoin="round"/>
<path d="M86.103 73.1186L104.603 77.3814L86.103 65.8814L86.103 73.1186Z" fill="#00D8CC" stroke="#00635D" stroke-width="2" stroke-linejoin="round"/>
<path d="M86.1035 73.1211L104.604 77.3839L102.104 68.8839L86.1035 73.1211Z" fill="#008E86" stroke="#00635D" stroke-width="2" stroke-linejoin="round"/>
</g>
<defs>
<clipPath id="clip0_18_340">
<rect width="180" height="180" rx="20" fill="white"/>
</clipPath>
<clipPath id="clip1_18_340">
<path d="M0 30L-1.31134e-06 0L30 -1.31134e-06L30 10C30 21.0457 21.0457 30 10 30L0 30Z" fill="white"/>
</clipPath>
</defs>
</svg>
