<svg width="180" height="180" viewBox="0 0 180 180" fill="none" xmlns="http://www.w3.org/2000/svg">
<g clip-path="url(#clip0_18_416)">
<rect width="180" height="180" rx="20" fill="#F2F2F2"/>
<g clip-path="url(#clip1_18_416)">
<path d="M0 30L-1.31134e-06 0L30 -1.31134e-06L30 10C30 21.0457 21.0457 30 10 30L0 30Z" fill="#333333"/>
<path d="M18.0068 15.112C18.5614 15.3893 18.9828 15.752 19.2708 16.2C19.5694 16.648 19.7188 17.1653 19.7188 17.752C19.7188 18.4453 19.5214 19.0533 19.1267 19.576C18.7321 20.088 18.1774 20.488 17.4628 20.776C16.7481 21.0533 15.9214 21.192 14.9828 21.192C14.0441 21.192 13.2174 21.0533 12.5028 20.776C11.7988 20.488 11.2494 20.088 10.8548 19.576C10.4708 19.0533 10.2788 18.4453 10.2788 17.752C10.2788 17.1653 10.4228 16.648 10.7108 16.2C11.0094 15.752 11.4308 15.3893 11.9748 15.112C11.5588 14.856 11.2388 14.536 11.0148 14.152C10.7908 13.7573 10.6788 13.3093 10.6788 12.808C10.6788 12.1573 10.8601 11.592 11.2228 11.112C11.5854 10.632 12.0921 10.264 12.7428 10.008C13.3934 9.74133 14.1401 9.608 14.9828 9.608C15.8361 9.608 16.5881 9.74133 17.2388 10.008C17.9001 10.264 18.4121 10.632 18.7748 11.112C19.1374 11.592 19.3188 12.1573 19.3188 12.808C19.3188 13.3093 19.2068 13.7573 18.9828 14.152C18.7588 14.536 18.4334 14.856 18.0068 15.112ZM14.9828 11.512C14.4601 11.512 14.0388 11.64 13.7188 11.896C13.4094 12.1413 13.2548 12.4827 13.2548 12.92C13.2548 13.3467 13.4094 13.6827 13.7188 13.928C14.0281 14.1733 14.4494 14.296 14.9828 14.296C15.5161 14.296 15.9428 14.1733 16.2628 13.928C16.5828 13.6827 16.7428 13.3467 16.7428 12.92C16.7428 12.4827 16.5828 12.1413 16.2628 11.896C15.9428 11.64 15.5161 11.512 14.9828 11.512ZM14.9828 19.288C15.6334 19.288 16.1454 19.144 16.5188 18.856C16.9028 18.5573 17.0948 18.1627 17.0948 17.672C17.0948 17.1813 16.9028 16.792 16.5188 16.504C16.1454 16.216 15.6334 16.072 14.9828 16.072C14.3428 16.072 13.8361 16.216 13.4628 16.504C13.0894 16.792 12.9028 17.1813 12.9028 17.672C12.9028 18.1733 13.0894 18.568 13.4628 18.856C13.8361 19.144 14.3428 19.288 14.9828 19.288Z" fill="#F2F2F2"/>
</g>
<path d="M42.012 129V120.6H45.552C46.448 120.6 47.236 120.776 47.916 121.128C48.604 121.48 49.136 121.972 49.512 122.604C49.896 123.236 50.088 123.968 50.088 124.8C50.088 125.632 49.896 126.364 49.512 126.996C49.136 127.628 48.604 128.12 47.916 128.472C47.236 128.824 46.448 129 45.552 129H42.012ZM43.212 127.956H45.48C46.176 127.956 46.776 127.824 47.28 127.56C47.792 127.296 48.188 126.928 48.468 126.456C48.748 125.976 48.888 125.424 48.888 124.8C48.888 124.168 48.748 123.616 48.468 123.144C48.188 122.672 47.792 122.304 47.28 122.04C46.776 121.776 46.176 121.644 45.48 121.644H43.212V127.956ZM54.482 129.072C53.842 129.072 53.274 128.932 52.778 128.652C52.282 128.372 51.89 127.988 51.602 127.5C51.314 127.004 51.17 126.444 51.17 125.82C51.17 125.188 51.314 124.628 51.602 124.14C51.89 123.652 52.282 123.272 52.778 123C53.274 122.72 53.842 122.58 54.482 122.58C55.114 122.58 55.678 122.72 56.174 123C56.678 123.272 57.07 123.652 57.35 124.14C57.638 124.62 57.782 125.18 57.782 125.82C57.782 126.452 57.638 127.012 57.35 127.5C57.07 127.988 56.678 128.372 56.174 128.652C55.678 128.932 55.114 129.072 54.482 129.072ZM54.482 128.064C54.89 128.064 55.254 127.972 55.574 127.788C55.902 127.604 56.158 127.344 56.342 127.008C56.526 126.664 56.618 126.268 56.618 125.82C56.618 125.364 56.526 124.972 56.342 124.644C56.158 124.308 55.902 124.048 55.574 123.864C55.254 123.68 54.89 123.588 54.482 123.588C54.074 123.588 53.71 123.68 53.39 123.864C53.07 124.048 52.814 124.308 52.622 124.644C52.43 124.972 52.334 125.364 52.334 125.82C52.334 126.268 52.43 126.664 52.622 127.008C52.814 127.344 53.07 127.604 53.39 127.788C53.71 127.972 54.074 128.064 54.482 128.064ZM62.7472 129.072C62.2032 129.072 61.7112 128.952 61.2712 128.712C60.8392 128.464 60.4952 128.1 60.2392 127.62C59.9912 127.14 59.8672 126.54 59.8672 125.82C59.8672 125.1 59.9952 124.5 60.2512 124.02C60.5152 123.54 60.8632 123.18 61.2952 122.94C61.7352 122.7 62.2192 122.58 62.7472 122.58C63.3712 122.58 63.9232 122.716 64.4032 122.988C64.8832 123.26 65.2632 123.64 65.5432 124.128C65.8232 124.608 65.9632 125.172 65.9632 125.82C65.9632 126.468 65.8232 127.036 65.5432 127.524C65.2632 128.012 64.8832 128.392 64.4032 128.664C63.9232 128.936 63.3712 129.072 62.7472 129.072ZM59.3752 129V120.096H60.5272V124.332L60.4072 125.808L60.4792 127.284V129H59.3752ZM62.6512 128.064C63.0592 128.064 63.4232 127.972 63.7432 127.788C64.0712 127.604 64.3272 127.344 64.5112 127.008C64.7032 126.664 64.7992 126.268 64.7992 125.82C64.7992 125.364 64.7032 124.972 64.5112 124.644C64.3272 124.308 64.0712 124.048 63.7432 123.864C63.4232 123.68 63.0592 123.588 62.6512 123.588C62.2512 123.588 61.8872 123.68 61.5592 123.864C61.2392 124.048 60.9832 124.308 60.7912 124.644C60.6072 124.972 60.5152 125.364 60.5152 125.82C60.5152 126.268 60.6072 126.664 60.7912 127.008C60.9832 127.344 61.2392 127.604 61.5592 127.788C61.8872 127.972 62.2512 128.064 62.6512 128.064ZM67.5549 129V122.64H68.6589V124.368L68.5509 123.936C68.7269 123.496 69.0229 123.16 69.4389 122.928C69.8549 122.696 70.3669 122.58 70.9749 122.58V123.696C70.9269 123.688 70.8789 123.684 70.8309 123.684C70.7909 123.684 70.7509 123.684 70.7109 123.684C70.0949 123.684 69.6069 123.868 69.2469 124.236C68.8869 124.604 68.7069 125.136 68.7069 125.832V129H67.5549ZM75.1681 129.072C74.4881 129.072 73.8881 128.932 73.3681 128.652C72.8561 128.372 72.4561 127.988 72.1681 127.5C71.8881 127.012 71.7481 126.452 71.7481 125.82C71.7481 125.188 71.8841 124.628 72.1561 124.14C72.4361 123.652 72.8161 123.272 73.2961 123C73.7841 122.72 74.3321 122.58 74.9401 122.58C75.5561 122.58 76.1001 122.716 76.5721 122.988C77.0441 123.26 77.4121 123.644 77.6761 124.14C77.9481 124.628 78.0841 125.2 78.0841 125.856C78.0841 125.904 78.0801 125.96 78.0721 126.024C78.0721 126.088 78.0681 126.148 78.0601 126.204H72.6481V125.376H77.4601L76.9921 125.664C77.0001 125.256 76.9161 124.892 76.7401 124.572C76.5641 124.252 76.3201 124.004 76.0081 123.828C75.7041 123.644 75.3481 123.552 74.9401 123.552C74.5401 123.552 74.1841 123.644 73.8721 123.828C73.5601 124.004 73.3161 124.256 73.1401 124.584C72.9641 124.904 72.8761 125.272 72.8761 125.688V125.88C72.8761 126.304 72.9721 126.684 73.1641 127.02C73.3641 127.348 73.6401 127.604 73.9921 127.788C74.3441 127.972 74.7481 128.064 75.2041 128.064C75.5801 128.064 75.9201 128 76.2241 127.872C76.5361 127.744 76.8081 127.552 77.0401 127.296L77.6761 128.04C77.3881 128.376 77.0281 128.632 76.5961 128.808C76.1721 128.984 75.6961 129.072 75.1681 129.072ZM85.6305 129.072C84.9905 129.072 84.4225 128.932 83.9265 128.652C83.4305 128.372 83.0385 127.988 82.7505 127.5C82.4625 127.004 82.3185 126.444 82.3185 125.82C82.3185 125.188 82.4625 124.628 82.7505 124.14C83.0385 123.652 83.4305 123.272 83.9265 123C84.4225 122.72 84.9905 122.58 85.6305 122.58C86.2625 122.58 86.8265 122.72 87.3225 123C87.8265 123.272 88.2185 123.652 88.4985 124.14C88.7865 124.62 88.9305 125.18 88.9305 125.82C88.9305 126.452 88.7865 127.012 88.4985 127.5C88.2185 127.988 87.8265 128.372 87.3225 128.652C86.8265 128.932 86.2625 129.072 85.6305 129.072ZM85.6305 128.064C86.0385 128.064 86.4025 127.972 86.7225 127.788C87.0505 127.604 87.3065 127.344 87.4905 127.008C87.6745 126.664 87.7665 126.268 87.7665 125.82C87.7665 125.364 87.6745 124.972 87.4905 124.644C87.3065 124.308 87.0505 124.048 86.7225 123.864C86.4025 123.68 86.0385 123.588 85.6305 123.588C85.2225 123.588 84.8585 123.68 84.5385 123.864C84.2185 124.048 83.9625 124.308 83.7705 124.644C83.5785 124.972 83.4825 125.364 83.4825 125.82C83.4825 126.268 83.5785 126.664 83.7705 127.008C83.9625 127.344 84.2185 127.604 84.5385 127.788C84.8585 127.972 85.2225 128.064 85.6305 128.064ZM92.3476 129.072C91.8196 129.072 91.3156 129 90.8356 128.856C90.3636 128.712 89.9916 128.536 89.7196 128.328L90.1996 127.416C90.4716 127.6 90.8076 127.756 91.2076 127.884C91.6076 128.012 92.0156 128.076 92.4316 128.076C92.9676 128.076 93.3516 128 93.5836 127.848C93.8236 127.696 93.9436 127.484 93.9436 127.212C93.9436 127.012 93.8716 126.856 93.7276 126.744C93.5836 126.632 93.3916 126.548 93.1516 126.492C92.9196 126.436 92.6596 126.388 92.3716 126.348C92.0836 126.3 91.7956 126.244 91.5076 126.18C91.2196 126.108 90.9556 126.012 90.7156 125.892C90.4756 125.764 90.2836 125.592 90.1396 125.376C89.9956 125.152 89.9236 124.856 89.9236 124.488C89.9236 124.104 90.0316 123.768 90.2476 123.48C90.4636 123.192 90.7676 122.972 91.1596 122.82C91.5596 122.66 92.0316 122.58 92.5756 122.58C92.9916 122.58 93.4116 122.632 93.8356 122.736C94.2676 122.832 94.6196 122.972 94.8916 123.156L94.3996 124.068C94.1116 123.876 93.8116 123.744 93.4996 123.672C93.1876 123.6 92.8756 123.564 92.5636 123.564C92.0596 123.564 91.6836 123.648 91.4356 123.816C91.1876 123.976 91.0636 124.184 91.0636 124.44C91.0636 124.656 91.1356 124.824 91.2796 124.944C91.4316 125.056 91.6236 125.144 91.8556 125.208C92.0956 125.272 92.3596 125.328 92.6476 125.376C92.9356 125.416 93.2236 125.472 93.5116 125.544C93.7996 125.608 94.0596 125.7 94.2916 125.82C94.5316 125.94 94.7236 126.108 94.8676 126.324C95.0196 126.54 95.0956 126.828 95.0956 127.188C95.0956 127.572 94.9836 127.904 94.7596 128.184C94.5356 128.464 94.2196 128.684 93.8116 128.844C93.4036 128.996 92.9156 129.072 92.3476 129.072ZM102.53 129.072C101.882 129.072 101.302 128.932 100.79 128.652C100.286 128.372 99.89 127.988 99.602 127.5C99.314 127.012 99.17 126.452 99.17 125.82C99.17 125.188 99.314 124.628 99.602 124.14C99.89 123.652 100.286 123.272 100.79 123C101.302 122.72 101.882 122.58 102.53 122.58C103.106 122.58 103.618 122.696 104.066 122.928C104.522 123.152 104.874 123.488 105.122 123.936L104.246 124.5C104.038 124.188 103.782 123.96 103.478 123.816C103.182 123.664 102.862 123.588 102.518 123.588C102.102 123.588 101.73 123.68 101.402 123.864C101.074 124.048 100.814 124.308 100.622 124.644C100.43 124.972 100.334 125.364 100.334 125.82C100.334 126.276 100.43 126.672 100.622 127.008C100.814 127.344 101.074 127.604 101.402 127.788C101.73 127.972 102.102 128.064 102.518 128.064C102.862 128.064 103.182 127.992 103.478 127.848C103.782 127.696 104.038 127.464 104.246 127.152L105.122 127.704C104.874 128.144 104.522 128.484 104.066 128.724C103.618 128.956 103.106 129.072 102.53 129.072ZM110.561 129V127.656L110.501 127.404V125.112C110.501 124.624 110.357 124.248 110.069 123.984C109.789 123.712 109.365 123.576 108.797 123.576C108.421 123.576 108.053 123.64 107.693 123.768C107.333 123.888 107.029 124.052 106.781 124.26L106.301 123.396C106.629 123.132 107.021 122.932 107.477 122.796C107.941 122.652 108.425 122.58 108.929 122.58C109.801 122.58 110.473 122.792 110.945 123.216C111.417 123.64 111.653 124.288 111.653 125.16V129H110.561ZM108.473 129.072C108.001 129.072 107.585 128.992 107.225 128.832C106.873 128.672 106.601 128.452 106.409 128.172C106.217 127.884 106.121 127.56 106.121 127.2C106.121 126.856 106.201 126.544 106.361 126.264C106.529 125.984 106.797 125.76 107.165 125.592C107.541 125.424 108.045 125.34 108.677 125.34H110.693V126.168H108.725C108.149 126.168 107.761 126.264 107.561 126.456C107.361 126.648 107.261 126.88 107.261 127.152C107.261 127.464 107.385 127.716 107.633 127.908C107.881 128.092 108.225 128.184 108.665 128.184C109.097 128.184 109.473 128.088 109.793 127.896C110.121 127.704 110.357 127.424 110.501 127.056L110.729 127.848C110.577 128.224 110.309 128.524 109.925 128.748C109.541 128.964 109.057 129.072 108.473 129.072ZM117.181 122.58C117.701 122.58 118.157 122.68 118.549 122.88C118.949 123.08 119.261 123.384 119.485 123.792C119.709 124.2 119.821 124.716 119.821 125.34V129H118.669V125.472C118.669 124.856 118.517 124.392 118.213 124.08C117.917 123.768 117.497 123.612 116.953 123.612C116.545 123.612 116.189 123.692 115.885 123.852C115.581 124.012 115.345 124.248 115.177 124.56C115.017 124.872 114.937 125.26 114.937 125.724V129H113.785V122.64H114.889V124.356L114.709 123.9C114.917 123.484 115.237 123.16 115.669 122.928C116.101 122.696 116.605 122.58 117.181 122.58ZM124.137 129.072C123.497 129.072 123.001 128.9 122.649 128.556C122.297 128.212 122.121 127.72 122.121 127.08V121.248H123.273V127.032C123.273 127.376 123.357 127.64 123.525 127.824C123.701 128.008 123.949 128.1 124.269 128.1C124.629 128.1 124.929 128 125.169 127.8L125.529 128.628C125.353 128.78 125.141 128.892 124.893 128.964C124.653 129.036 124.401 129.072 124.137 129.072ZM121.041 123.588V122.64H125.097V123.588H121.041ZM129.435 129.072C128.795 129.072 128.227 128.932 127.731 128.652C127.235 128.372 126.843 127.988 126.555 127.5C126.267 127.004 126.123 126.444 126.123 125.82C126.123 125.188 126.267 124.628 126.555 124.14C126.843 123.652 127.235 123.272 127.731 123C128.227 122.72 128.795 122.58 129.435 122.58C130.067 122.58 130.631 122.72 131.127 123C131.631 123.272 132.023 123.652 132.303 124.14C132.591 124.62 132.735 125.18 132.735 125.82C132.735 126.452 132.591 127.012 132.303 127.5C132.023 127.988 131.631 128.372 131.127 128.652C130.631 128.932 130.067 129.072 129.435 129.072ZM129.435 128.064C129.843 128.064 130.207 127.972 130.527 127.788C130.855 127.604 131.111 127.344 131.295 127.008C131.479 126.664 131.571 126.268 131.571 125.82C131.571 125.364 131.479 124.972 131.295 124.644C131.111 124.308 130.855 124.048 130.527 123.864C130.207 123.68 129.843 123.588 129.435 123.588C129.027 123.588 128.663 123.68 128.343 123.864C128.023 124.048 127.767 124.308 127.575 124.644C127.383 124.972 127.287 125.364 127.287 125.82C127.287 126.268 127.383 126.664 127.575 127.008C127.767 127.344 128.023 127.604 128.343 127.788C128.663 127.972 129.027 128.064 129.435 128.064ZM136.152 129.072C135.624 129.072 135.12 129 134.64 128.856C134.168 128.712 133.796 128.536 133.524 128.328L134.004 127.416C134.276 127.6 134.612 127.756 135.012 127.884C135.412 128.012 135.82 128.076 136.236 128.076C136.772 128.076 137.156 128 137.388 127.848C137.628 127.696 137.748 127.484 137.748 127.212C137.748 127.012 137.676 126.856 137.532 126.744C137.388 126.632 137.196 126.548 136.956 126.492C136.724 126.436 136.464 126.388 136.176 126.348C135.888 126.3 135.6 126.244 135.312 126.18C135.024 126.108 134.76 126.012 134.52 125.892C134.28 125.764 134.088 125.592 133.944 125.376C133.8 125.152 133.728 124.856 133.728 124.488C133.728 124.104 133.836 123.768 134.052 123.48C134.268 123.192 134.572 122.972 134.964 122.82C135.364 122.66 135.836 122.58 136.38 122.58C136.796 122.58 137.216 122.632 137.64 122.736C138.072 122.832 138.424 122.972 138.696 123.156L138.204 124.068C137.916 123.876 137.616 123.744 137.304 123.672C136.992 123.6 136.68 123.564 136.368 123.564C135.864 123.564 135.488 123.648 135.24 123.816C134.992 123.976 134.868 124.184 134.868 124.44C134.868 124.656 134.94 124.824 135.084 124.944C135.236 125.056 135.428 125.144 135.66 125.208C135.9 125.272 136.164 125.328 136.452 125.376C136.74 125.416 137.028 125.472 137.316 125.544C137.604 125.608 137.864 125.7 138.096 125.82C138.336 125.94 138.528 126.108 138.672 126.324C138.824 126.54 138.9 126.828 138.9 127.188C138.9 127.572 138.788 127.904 138.564 128.184C138.34 128.464 138.024 128.684 137.616 128.844C137.208 128.996 136.72 129.072 136.152 129.072ZM29.6389 144V137.64H30.7909V144H29.6389ZM30.2149 136.416C29.9909 136.416 29.8029 136.344 29.6509 136.2C29.5069 136.056 29.4349 135.88 29.4349 135.672C29.4349 135.456 29.5069 135.276 29.6509 135.132C29.8029 134.988 29.9909 134.916 30.2149 134.916C30.4389 134.916 30.6229 134.988 30.7669 135.132C30.9189 135.268 30.9949 135.44 30.9949 135.648C30.9949 135.864 30.9229 136.048 30.7789 136.2C30.6349 136.344 30.4469 136.416 30.2149 136.416ZM36.3864 137.58C36.9064 137.58 37.3624 137.68 37.7544 137.88C38.1544 138.08 38.4664 138.384 38.6904 138.792C38.9144 139.2 39.0264 139.716 39.0264 140.34V144H37.8744V140.472C37.8744 139.856 37.7224 139.392 37.4184 139.08C37.1224 138.768 36.7024 138.612 36.1584 138.612C35.7504 138.612 35.3944 138.692 35.0904 138.852C34.7864 139.012 34.5504 139.248 34.3824 139.56C34.2224 139.872 34.1424 140.26 34.1424 140.724V144H32.9904V137.64H34.0944V139.356L33.9144 138.9C34.1224 138.484 34.4424 138.16 34.8744 137.928C35.3064 137.696 35.8104 137.58 36.3864 137.58ZM43.7864 144.072C43.1704 144.072 42.6184 143.936 42.1304 143.664C41.6504 143.392 41.2704 143.012 40.9904 142.524C40.7104 142.036 40.5704 141.468 40.5704 140.82C40.5704 140.172 40.7104 139.608 40.9904 139.128C41.2704 138.64 41.6504 138.26 42.1304 137.988C42.6184 137.716 43.1704 137.58 43.7864 137.58C44.3224 137.58 44.8064 137.7 45.2384 137.94C45.6704 138.18 46.0144 138.54 46.2704 139.02C46.5344 139.5 46.6664 140.1 46.6664 140.82C46.6664 141.54 46.5384 142.14 46.2824 142.62C46.0344 143.1 45.6944 143.464 45.2624 143.712C44.8304 143.952 44.3384 144.072 43.7864 144.072ZM43.8824 143.064C44.2824 143.064 44.6424 142.972 44.9624 142.788C45.2904 142.604 45.5464 142.344 45.7304 142.008C45.9224 141.664 46.0184 141.268 46.0184 140.82C46.0184 140.364 45.9224 139.972 45.7304 139.644C45.5464 139.308 45.2904 139.048 44.9624 138.864C44.6424 138.68 44.2824 138.588 43.8824 138.588C43.4744 138.588 43.1104 138.68 42.7904 138.864C42.4704 139.048 42.2144 139.308 42.0224 139.644C41.8304 139.972 41.7344 140.364 41.7344 140.82C41.7344 141.268 41.8304 141.664 42.0224 142.008C42.2144 142.344 42.4704 142.604 42.7904 142.788C43.1104 142.972 43.4744 143.064 43.8824 143.064ZM46.0544 144V142.284L46.1264 140.808L46.0064 139.332V135.096H47.1584V144H46.0544ZM49.3381 144V137.64H50.4901V144H49.3381ZM49.9141 136.416C49.6901 136.416 49.5021 136.344 49.3501 136.2C49.2061 136.056 49.1341 135.88 49.1341 135.672C49.1341 135.456 49.2061 135.276 49.3501 135.132C49.5021 134.988 49.6901 134.916 49.9141 134.916C50.1381 134.916 50.3221 134.988 50.4661 135.132C50.6181 135.268 50.6941 135.44 50.6941 135.648C50.6941 135.864 50.6221 136.048 50.4781 136.2C50.3341 136.344 50.1461 136.416 49.9141 136.416ZM55.4617 144.072C54.8137 144.072 54.2337 143.932 53.7217 143.652C53.2177 143.372 52.8217 142.988 52.5337 142.5C52.2457 142.012 52.1017 141.452 52.1017 140.82C52.1017 140.188 52.2457 139.628 52.5337 139.14C52.8217 138.652 53.2177 138.272 53.7217 138C54.2337 137.72 54.8137 137.58 55.4617 137.58C56.0377 137.58 56.5497 137.696 56.9977 137.928C57.4537 138.152 57.8057 138.488 58.0537 138.936L57.1777 139.5C56.9697 139.188 56.7137 138.96 56.4097 138.816C56.1137 138.664 55.7937 138.588 55.4497 138.588C55.0337 138.588 54.6617 138.68 54.3337 138.864C54.0057 139.048 53.7457 139.308 53.5537 139.644C53.3617 139.972 53.2657 140.364 53.2657 140.82C53.2657 141.276 53.3617 141.672 53.5537 142.008C53.7457 142.344 54.0057 142.604 54.3337 142.788C54.6617 142.972 55.0337 143.064 55.4497 143.064C55.7937 143.064 56.1137 142.992 56.4097 142.848C56.7137 142.696 56.9697 142.464 57.1777 142.152L58.0537 142.704C57.8057 143.144 57.4537 143.484 56.9977 143.724C56.5497 143.956 56.0377 144.072 55.4617 144.072ZM63.4931 144V142.656L63.4331 142.404V140.112C63.4331 139.624 63.2891 139.248 63.0011 138.984C62.7211 138.712 62.2971 138.576 61.7291 138.576C61.3531 138.576 60.9851 138.64 60.6251 138.768C60.2651 138.888 59.9611 139.052 59.7131 139.26L59.2331 138.396C59.5611 138.132 59.9531 137.932 60.4091 137.796C60.8731 137.652 61.3571 137.58 61.8611 137.58C62.7331 137.58 63.4051 137.792 63.8771 138.216C64.3491 138.64 64.5851 139.288 64.5851 140.16V144H63.4931ZM61.4051 144.072C60.9331 144.072 60.5171 143.992 60.1571 143.832C59.8051 143.672 59.5331 143.452 59.3411 143.172C59.1491 142.884 59.0531 142.56 59.0531 142.2C59.0531 141.856 59.1331 141.544 59.2931 141.264C59.4611 140.984 59.7291 140.76 60.0971 140.592C60.4731 140.424 60.9771 140.34 61.6091 140.34H63.6251V141.168H61.6571C61.0811 141.168 60.6931 141.264 60.4931 141.456C60.2931 141.648 60.1931 141.88 60.1931 142.152C60.1931 142.464 60.3171 142.716 60.5651 142.908C60.8131 143.092 61.1571 143.184 61.5971 143.184C62.0291 143.184 62.4051 143.088 62.7251 142.896C63.0531 142.704 63.2891 142.424 63.4331 142.056L63.6611 142.848C63.5091 143.224 63.2411 143.524 62.8571 143.748C62.4731 143.964 61.9891 144.072 61.4051 144.072ZM69.345 144.072C68.729 144.072 68.177 143.936 67.689 143.664C67.209 143.392 66.829 143.012 66.549 142.524C66.269 142.036 66.129 141.468 66.129 140.82C66.129 140.172 66.269 139.608 66.549 139.128C66.829 138.64 67.209 138.26 67.689 137.988C68.177 137.716 68.729 137.58 69.345 137.58C69.881 137.58 70.365 137.7 70.797 137.94C71.229 138.18 71.573 138.54 71.829 139.02C72.093 139.5 72.225 140.1 72.225 140.82C72.225 141.54 72.097 142.14 71.841 142.62C71.593 143.1 71.253 143.464 70.821 143.712C70.389 143.952 69.897 144.072 69.345 144.072ZM69.441 143.064C69.841 143.064 70.201 142.972 70.521 142.788C70.849 142.604 71.105 142.344 71.289 142.008C71.481 141.664 71.577 141.268 71.577 140.82C71.577 140.364 71.481 139.972 71.289 139.644C71.105 139.308 70.849 139.048 70.521 138.864C70.201 138.68 69.841 138.588 69.441 138.588C69.033 138.588 68.669 138.68 68.349 138.864C68.029 139.048 67.773 139.308 67.581 139.644C67.389 139.972 67.293 140.364 67.293 140.82C67.293 141.268 67.389 141.664 67.581 142.008C67.773 142.344 68.029 142.604 68.349 142.788C68.669 142.972 69.033 143.064 69.441 143.064ZM71.613 144V142.284L71.685 140.808L71.565 139.332V135.096H72.717V144H71.613ZM77.6207 144.072C76.9807 144.072 76.4127 143.932 75.9167 143.652C75.4207 143.372 75.0287 142.988 74.7407 142.5C74.4527 142.004 74.3087 141.444 74.3087 140.82C74.3087 140.188 74.4527 139.628 74.7407 139.14C75.0287 138.652 75.4207 138.272 75.9167 138C76.4127 137.72 76.9807 137.58 77.6207 137.58C78.2527 137.58 78.8167 137.72 79.3127 138C79.8167 138.272 80.2087 138.652 80.4887 139.14C80.7767 139.62 80.9207 140.18 80.9207 140.82C80.9207 141.452 80.7767 142.012 80.4887 142.5C80.2087 142.988 79.8167 143.372 79.3127 143.652C78.8167 143.932 78.2527 144.072 77.6207 144.072ZM77.6207 143.064C78.0287 143.064 78.3927 142.972 78.7127 142.788C79.0407 142.604 79.2967 142.344 79.4807 142.008C79.6647 141.664 79.7567 141.268 79.7567 140.82C79.7567 140.364 79.6647 139.972 79.4807 139.644C79.2967 139.308 79.0407 139.048 78.7127 138.864C78.3927 138.68 78.0287 138.588 77.6207 138.588C77.2127 138.588 76.8487 138.68 76.5287 138.864C76.2087 139.048 75.9527 139.308 75.7607 139.644C75.5687 139.972 75.4727 140.364 75.4727 140.82C75.4727 141.268 75.5687 141.664 75.7607 142.008C75.9527 142.344 76.2087 142.604 76.5287 142.788C76.8487 142.972 77.2127 143.064 77.6207 143.064ZM84.3379 144.072C83.8099 144.072 83.3059 144 82.8259 143.856C82.3539 143.712 81.9819 143.536 81.7099 143.328L82.1899 142.416C82.4619 142.6 82.7979 142.756 83.1979 142.884C83.5979 143.012 84.0059 143.076 84.4219 143.076C84.9579 143.076 85.3419 143 85.5739 142.848C85.8139 142.696 85.9339 142.484 85.9339 142.212C85.9339 142.012 85.8619 141.856 85.7179 141.744C85.5739 141.632 85.3819 141.548 85.1419 141.492C84.9099 141.436 84.6499 141.388 84.3619 141.348C84.0739 141.3 83.7859 141.244 83.4979 141.18C83.2099 141.108 82.9459 141.012 82.7059 140.892C82.4659 140.764 82.2739 140.592 82.1299 140.376C81.9859 140.152 81.9139 139.856 81.9139 139.488C81.9139 139.104 82.0219 138.768 82.2379 138.48C82.4539 138.192 82.7579 137.972 83.1499 137.82C83.5499 137.66 84.0219 137.58 84.5659 137.58C84.9819 137.58 85.4019 137.632 85.8259 137.736C86.2579 137.832 86.6099 137.972 86.8819 138.156L86.3899 139.068C86.1019 138.876 85.8019 138.744 85.4899 138.672C85.1779 138.6 84.8659 138.564 84.5539 138.564C84.0499 138.564 83.6739 138.648 83.4259 138.816C83.1779 138.976 83.0539 139.184 83.0539 139.44C83.0539 139.656 83.1259 139.824 83.2699 139.944C83.4219 140.056 83.6139 140.144 83.8459 140.208C84.0859 140.272 84.3499 140.328 84.6379 140.376C84.9259 140.416 85.2139 140.472 85.5019 140.544C85.7899 140.608 86.0499 140.7 86.2819 140.82C86.5219 140.94 86.7139 141.108 86.8579 141.324C87.0099 141.54 87.0859 141.828 87.0859 142.188C87.0859 142.572 86.9739 142.904 86.7499 143.184C86.5259 143.464 86.2099 143.684 85.8019 143.844C85.3939 143.996 84.9059 144.072 84.3379 144.072ZM95.1443 137.58C95.6643 137.58 96.1203 137.68 96.5123 137.88C96.9123 138.08 97.2243 138.384 97.4483 138.792C97.6723 139.2 97.7843 139.716 97.7843 140.34V144H96.6323V140.472C96.6323 139.856 96.4803 139.392 96.1763 139.08C95.8803 138.768 95.4603 138.612 94.9163 138.612C94.5083 138.612 94.1523 138.692 93.8483 138.852C93.5443 139.012 93.3083 139.248 93.1403 139.56C92.9803 139.872 92.9003 140.26 92.9003 140.724V144H91.7483V137.64H92.8523V139.356L92.6723 138.9C92.8803 138.484 93.2003 138.16 93.6323 137.928C94.0643 137.696 94.5683 137.58 95.1443 137.58ZM102.64 144.072C102 144.072 101.432 143.932 100.936 143.652C100.44 143.372 100.048 142.988 99.7602 142.5C99.4722 142.004 99.3282 141.444 99.3282 140.82C99.3282 140.188 99.4722 139.628 99.7602 139.14C100.048 138.652 100.44 138.272 100.936 138C101.432 137.72 102 137.58 102.64 137.58C103.272 137.58 103.836 137.72 104.332 138C104.836 138.272 105.228 138.652 105.508 139.14C105.796 139.62 105.94 140.18 105.94 140.82C105.94 141.452 105.796 142.012 105.508 142.5C105.228 142.988 104.836 143.372 104.332 143.652C103.836 143.932 103.272 144.072 102.64 144.072ZM102.64 143.064C103.048 143.064 103.412 142.972 103.732 142.788C104.06 142.604 104.316 142.344 104.5 142.008C104.684 141.664 104.776 141.268 104.776 140.82C104.776 140.364 104.684 139.972 104.5 139.644C104.316 139.308 104.06 139.048 103.732 138.864C103.412 138.68 103.048 138.588 102.64 138.588C102.232 138.588 101.868 138.68 101.548 138.864C101.228 139.048 100.972 139.308 100.78 139.644C100.588 139.972 100.492 140.364 100.492 140.82C100.492 141.268 100.588 141.664 100.78 142.008C100.972 142.344 101.228 142.604 101.548 142.788C101.868 142.972 102.232 143.064 102.64 143.064ZM113.54 146.4C112.956 146.4 112.388 146.316 111.836 146.148C111.292 145.988 110.848 145.756 110.504 145.452L111.056 144.564C111.352 144.82 111.716 145.02 112.148 145.164C112.58 145.316 113.032 145.392 113.504 145.392C114.256 145.392 114.808 145.216 115.16 144.864C115.512 144.512 115.688 143.976 115.688 143.256V141.912L115.808 140.652L115.748 139.38V137.64H116.84V143.136C116.84 144.256 116.56 145.08 116 145.608C115.44 146.136 114.62 146.4 113.54 146.4ZM113.396 143.736C112.78 143.736 112.228 143.608 111.74 143.352C111.26 143.088 110.876 142.724 110.588 142.26C110.308 141.796 110.168 141.26 110.168 140.652C110.168 140.036 110.308 139.5 110.588 139.044C110.876 138.58 111.26 138.22 111.74 137.964C112.228 137.708 112.78 137.58 113.396 137.58C113.94 137.58 114.436 137.692 114.884 137.916C115.332 138.132 115.688 138.468 115.952 138.924C116.224 139.38 116.36 139.956 116.36 140.652C116.36 141.34 116.224 141.912 115.952 142.368C115.688 142.824 115.332 143.168 114.884 143.4C114.436 143.624 113.94 143.736 113.396 143.736ZM113.528 142.728C113.952 142.728 114.328 142.64 114.656 142.464C114.984 142.288 115.24 142.044 115.424 141.732C115.616 141.42 115.712 141.06 115.712 140.652C115.712 140.244 115.616 139.884 115.424 139.572C115.24 139.26 114.984 139.02 114.656 138.852C114.328 138.676 113.952 138.588 113.528 138.588C113.104 138.588 112.724 138.676 112.388 138.852C112.06 139.02 111.8 139.26 111.608 139.572C111.424 139.884 111.332 140.244 111.332 140.652C111.332 141.06 111.424 141.42 111.608 141.732C111.8 142.044 112.06 142.288 112.388 142.464C112.724 142.64 113.104 142.728 113.528 142.728ZM119.041 144V137.64H120.145V139.368L120.037 138.936C120.213 138.496 120.509 138.16 120.925 137.928C121.341 137.696 121.853 137.58 122.461 137.58V138.696C122.413 138.688 122.365 138.684 122.317 138.684C122.277 138.684 122.237 138.684 122.197 138.684C121.581 138.684 121.093 138.868 120.733 139.236C120.373 139.604 120.193 140.136 120.193 140.832V144H119.041ZM127.36 144V142.656L127.3 142.404V140.112C127.3 139.624 127.156 139.248 126.868 138.984C126.588 138.712 126.164 138.576 125.596 138.576C125.22 138.576 124.852 138.64 124.492 138.768C124.132 138.888 123.828 139.052 123.58 139.26L123.1 138.396C123.428 138.132 123.82 137.932 124.276 137.796C124.74 137.652 125.224 137.58 125.728 137.58C126.6 137.58 127.272 137.792 127.744 138.216C128.216 138.64 128.452 139.288 128.452 140.16V144H127.36ZM125.272 144.072C124.8 144.072 124.384 143.992 124.024 143.832C123.672 143.672 123.4 143.452 123.208 143.172C123.016 142.884 122.92 142.56 122.92 142.2C122.92 141.856 123 141.544 123.16 141.264C123.328 140.984 123.596 140.76 123.964 140.592C124.34 140.424 124.844 140.34 125.476 140.34H127.492V141.168H125.524C124.948 141.168 124.56 141.264 124.36 141.456C124.16 141.648 124.06 141.88 124.06 142.152C124.06 142.464 124.184 142.716 124.432 142.908C124.68 143.092 125.024 143.184 125.464 143.184C125.896 143.184 126.272 143.088 126.592 142.896C126.92 142.704 127.156 142.424 127.3 142.056L127.528 142.848C127.376 143.224 127.108 143.524 126.724 143.748C126.34 143.964 125.856 144.072 125.272 144.072ZM124.912 136.716L126.544 135.156H128.008L125.992 136.716H124.912ZM130.752 144V137.076C130.752 136.452 130.932 135.956 131.292 135.588C131.66 135.212 132.18 135.024 132.852 135.024C133.1 135.024 133.336 135.056 133.56 135.12C133.792 135.176 133.988 135.268 134.148 135.396L133.8 136.272C133.68 136.176 133.544 136.104 133.392 136.056C133.24 136 133.08 135.972 132.912 135.972C132.576 135.972 132.32 136.068 132.144 136.26C131.968 136.444 131.88 136.72 131.88 137.088V137.94L131.904 138.468V144H130.752ZM129.672 138.588V137.64H133.728V138.588H129.672ZM134.82 144V137.64H135.972V144H134.82ZM135.396 136.416C135.172 136.416 134.984 136.344 134.832 136.2C134.688 136.056 134.616 135.88 134.616 135.672C134.616 135.456 134.688 135.276 134.832 135.132C134.984 134.988 135.172 134.916 135.396 134.916C135.62 134.916 135.804 134.988 135.948 135.132C136.1 135.268 136.176 135.44 136.176 135.648C136.176 135.864 136.104 136.048 135.96 136.2C135.816 136.344 135.628 136.416 135.396 136.416ZM140.938 144.072C140.29 144.072 139.71 143.932 139.198 143.652C138.694 143.372 138.298 142.988 138.01 142.5C137.722 142.012 137.578 141.452 137.578 140.82C137.578 140.188 137.722 139.628 138.01 139.14C138.298 138.652 138.694 138.272 139.198 138C139.71 137.72 140.29 137.58 140.938 137.58C141.514 137.58 142.026 137.696 142.474 137.928C142.93 138.152 143.282 138.488 143.53 138.936L142.654 139.5C142.446 139.188 142.19 138.96 141.886 138.816C141.59 138.664 141.27 138.588 140.926 138.588C140.51 138.588 140.138 138.68 139.81 138.864C139.482 139.048 139.222 139.308 139.03 139.644C138.838 139.972 138.742 140.364 138.742 140.82C138.742 141.276 138.838 141.672 139.03 142.008C139.222 142.344 139.482 142.604 139.81 142.788C140.138 142.972 140.51 143.064 140.926 143.064C141.27 143.064 141.59 142.992 141.886 142.848C142.19 142.696 142.446 142.464 142.654 142.152L143.53 142.704C143.282 143.144 142.93 143.484 142.474 143.724C142.026 143.956 141.514 144.072 140.938 144.072ZM147.652 144.072C147.012 144.072 146.444 143.932 145.948 143.652C145.452 143.372 145.06 142.988 144.772 142.5C144.484 142.004 144.34 141.444 144.34 140.82C144.34 140.188 144.484 139.628 144.772 139.14C145.06 138.652 145.452 138.272 145.948 138C146.444 137.72 147.012 137.58 147.652 137.58C148.284 137.58 148.848 137.72 149.344 138C149.848 138.272 150.24 138.652 150.52 139.14C150.808 139.62 150.952 140.18 150.952 140.82C150.952 141.452 150.808 142.012 150.52 142.5C150.24 142.988 149.848 143.372 149.344 143.652C148.848 143.932 148.284 144.072 147.652 144.072ZM147.652 143.064C148.06 143.064 148.424 142.972 148.744 142.788C149.072 142.604 149.328 142.344 149.512 142.008C149.696 141.664 149.788 141.268 149.788 140.82C149.788 140.364 149.696 139.972 149.512 139.644C149.328 139.308 149.072 139.048 148.744 138.864C148.424 138.68 148.06 138.588 147.652 138.588C147.244 138.588 146.88 138.68 146.56 138.864C146.24 139.048 145.984 139.308 145.792 139.644C145.6 139.972 145.504 140.364 145.504 140.82C145.504 141.268 145.6 141.664 145.792 142.008C145.984 142.344 146.24 142.604 146.56 142.788C146.88 142.972 147.244 143.064 147.652 143.064ZM57.6144 159.072C57.0864 159.072 56.6024 158.952 56.1624 158.712C55.7304 158.464 55.3824 158.1 55.1184 157.62C54.8624 157.14 54.7344 156.54 54.7344 155.82C54.7344 155.1 54.8584 154.5 55.1064 154.02C55.3624 153.54 55.7064 153.18 56.1384 152.94C56.5784 152.7 57.0704 152.58 57.6144 152.58C58.2384 152.58 58.7904 152.716 59.2704 152.988C59.7504 153.26 60.1304 153.64 60.4104 154.128C60.6904 154.608 60.8304 155.172 60.8304 155.82C60.8304 156.468 60.6904 157.036 60.4104 157.524C60.1304 158.012 59.7504 158.392 59.2704 158.664C58.7904 158.936 58.2384 159.072 57.6144 159.072ZM54.2424 161.328V152.64H55.3464V154.356L55.2744 155.832L55.3944 157.308V161.328H54.2424ZM57.5184 158.064C57.9264 158.064 58.2904 157.972 58.6104 157.788C58.9384 157.604 59.1944 157.344 59.3784 157.008C59.5704 156.664 59.6664 156.268 59.6664 155.82C59.6664 155.364 59.5704 154.972 59.3784 154.644C59.1944 154.308 58.9384 154.048 58.6104 153.864C58.2904 153.68 57.9264 153.588 57.5184 153.588C57.1184 153.588 56.7544 153.68 56.4264 153.864C56.1064 154.048 55.8504 154.308 55.6584 154.644C55.4744 154.972 55.3824 155.364 55.3824 155.82C55.3824 156.268 55.4744 156.664 55.6584 157.008C55.8504 157.344 56.1064 157.604 56.4264 157.788C56.7544 157.972 57.1184 158.064 57.5184 158.064ZM66.3115 159V157.656L66.2515 157.404V155.112C66.2515 154.624 66.1075 154.248 65.8195 153.984C65.5395 153.712 65.1155 153.576 64.5475 153.576C64.1715 153.576 63.8035 153.64 63.4435 153.768C63.0835 153.888 62.7795 154.052 62.5315 154.26L62.0515 153.396C62.3795 153.132 62.7715 152.932 63.2275 152.796C63.6915 152.652 64.1755 152.58 64.6795 152.58C65.5515 152.58 66.2235 152.792 66.6955 153.216C67.1675 153.64 67.4035 154.288 67.4035 155.16V159H66.3115ZM64.2235 159.072C63.7515 159.072 63.3355 158.992 62.9755 158.832C62.6235 158.672 62.3515 158.452 62.1595 158.172C61.9675 157.884 61.8715 157.56 61.8715 157.2C61.8715 156.856 61.9515 156.544 62.1115 156.264C62.2795 155.984 62.5475 155.76 62.9155 155.592C63.2915 155.424 63.7955 155.34 64.4275 155.34H66.4435V156.168H64.4755C63.8995 156.168 63.5115 156.264 63.3115 156.456C63.1115 156.648 63.0115 156.88 63.0115 157.152C63.0115 157.464 63.1355 157.716 63.3835 157.908C63.6315 158.092 63.9755 158.184 64.4155 158.184C64.8475 158.184 65.2235 158.088 65.5435 157.896C65.8715 157.704 66.1075 157.424 66.2515 157.056L66.4795 157.848C66.3275 158.224 66.0595 158.524 65.6755 158.748C65.2915 158.964 64.8075 159.072 64.2235 159.072ZM69.5354 159V152.64H70.6394V154.368L70.5314 153.936C70.7074 153.496 71.0034 153.16 71.4194 152.928C71.8354 152.696 72.3474 152.58 72.9554 152.58V153.696C72.9074 153.688 72.8594 153.684 72.8114 153.684C72.7714 153.684 72.7314 153.684 72.6914 153.684C72.0754 153.684 71.5874 153.868 71.2274 154.236C70.8674 154.604 70.6874 155.136 70.6874 155.832V159H69.5354ZM77.8545 159V157.656L77.7945 157.404V155.112C77.7945 154.624 77.6505 154.248 77.3625 153.984C77.0825 153.712 76.6585 153.576 76.0905 153.576C75.7145 153.576 75.3465 153.64 74.9865 153.768C74.6265 153.888 74.3225 154.052 74.0745 154.26L73.5945 153.396C73.9225 153.132 74.3145 152.932 74.7705 152.796C75.2345 152.652 75.7185 152.58 76.2225 152.58C77.0945 152.58 77.7665 152.792 78.2385 153.216C78.7105 153.64 78.9465 154.288 78.9465 155.16V159H77.8545ZM75.7665 159.072C75.2945 159.072 74.8785 158.992 74.5185 158.832C74.1665 158.672 73.8945 158.452 73.7025 158.172C73.5105 157.884 73.4145 157.56 73.4145 157.2C73.4145 156.856 73.4945 156.544 73.6545 156.264C73.8225 155.984 74.0905 155.76 74.4585 155.592C74.8345 155.424 75.3385 155.34 75.9705 155.34H77.9865V156.168H76.0185C75.4425 156.168 75.0545 156.264 74.8545 156.456C74.6545 156.648 74.5545 156.88 74.5545 157.152C74.5545 157.464 74.6785 157.716 74.9265 157.908C75.1745 158.092 75.5185 158.184 75.9585 158.184C76.3905 158.184 76.7665 158.088 77.0865 157.896C77.4145 157.704 77.6505 157.424 77.7945 157.056L78.0225 157.848C77.8705 158.224 77.6025 158.524 77.2185 158.748C76.8345 158.964 76.3505 159.072 75.7665 159.072ZM86.929 159.072C86.313 159.072 85.761 158.936 85.273 158.664C84.793 158.392 84.413 158.012 84.133 157.524C83.853 157.036 83.713 156.468 83.713 155.82C83.713 155.172 83.853 154.608 84.133 154.128C84.413 153.64 84.793 153.26 85.273 152.988C85.761 152.716 86.313 152.58 86.929 152.58C87.465 152.58 87.949 152.7 88.381 152.94C88.813 153.18 89.157 153.54 89.413 154.02C89.677 154.5 89.809 155.1 89.809 155.82C89.809 156.54 89.681 157.14 89.425 157.62C89.177 158.1 88.837 158.464 88.405 158.712C87.973 158.952 87.481 159.072 86.929 159.072ZM87.025 158.064C87.425 158.064 87.785 157.972 88.105 157.788C88.433 157.604 88.689 157.344 88.873 157.008C89.065 156.664 89.161 156.268 89.161 155.82C89.161 155.364 89.065 154.972 88.873 154.644C88.689 154.308 88.433 154.048 88.105 153.864C87.785 153.68 87.425 153.588 87.025 153.588C86.617 153.588 86.253 153.68 85.933 153.864C85.613 154.048 85.357 154.308 85.165 154.644C84.973 154.972 84.877 155.364 84.877 155.82C84.877 156.268 84.973 156.664 85.165 157.008C85.357 157.344 85.613 157.604 85.933 157.788C86.253 157.972 86.617 158.064 87.025 158.064ZM89.197 159V157.284L89.269 155.808L89.149 154.332V150.096H90.301V159H89.197ZM95.3127 159.072C94.6327 159.072 94.0327 158.932 93.5127 158.652C93.0007 158.372 92.6007 157.988 92.3127 157.5C92.0327 157.012 91.8927 156.452 91.8927 155.82C91.8927 155.188 92.0287 154.628 92.3007 154.14C92.5807 153.652 92.9607 153.272 93.4407 153C93.9287 152.72 94.4767 152.58 95.0847 152.58C95.7007 152.58 96.2447 152.716 96.7167 152.988C97.1887 153.26 97.5567 153.644 97.8207 154.14C98.0927 154.628 98.2287 155.2 98.2287 155.856C98.2287 155.904 98.2247 155.96 98.2167 156.024C98.2167 156.088 98.2127 156.148 98.2047 156.204H92.7927V155.376H97.6047L97.1367 155.664C97.1447 155.256 97.0607 154.892 96.8847 154.572C96.7087 154.252 96.4647 154.004 96.1527 153.828C95.8487 153.644 95.4927 153.552 95.0847 153.552C94.6847 153.552 94.3287 153.644 94.0167 153.828C93.7047 154.004 93.4607 154.256 93.2847 154.584C93.1087 154.904 93.0207 155.272 93.0207 155.688V155.88C93.0207 156.304 93.1167 156.684 93.3087 157.02C93.5087 157.348 93.7847 157.604 94.1367 157.788C94.4887 157.972 94.8927 158.064 95.3487 158.064C95.7247 158.064 96.0647 158 96.3687 157.872C96.6807 157.744 96.9527 157.552 97.1847 157.296L97.8207 158.04C97.5327 158.376 97.1727 158.632 96.7407 158.808C96.3167 158.984 95.8407 159.072 95.3127 159.072ZM103.224 152.58C103.744 152.58 104.2 152.68 104.592 152.88C104.992 153.08 105.304 153.384 105.528 153.792C105.752 154.2 105.864 154.716 105.864 155.34V159H104.712V155.472C104.712 154.856 104.56 154.392 104.256 154.08C103.96 153.768 103.54 153.612 102.996 153.612C102.588 153.612 102.232 153.692 101.928 153.852C101.624 154.012 101.388 154.248 101.22 154.56C101.06 154.872 100.98 155.26 100.98 155.724V159H99.8283V152.64H100.932V154.356L100.752 153.9C100.96 153.484 101.28 153.16 101.712 152.928C102.144 152.696 102.648 152.58 103.224 152.58ZM110.18 159.072C109.54 159.072 109.044 158.9 108.692 158.556C108.34 158.212 108.164 157.72 108.164 157.08V151.248H109.316V157.032C109.316 157.376 109.4 157.64 109.568 157.824C109.744 158.008 109.992 158.1 110.312 158.1C110.672 158.1 110.972 158 111.212 157.8L111.572 158.628C111.396 158.78 111.184 158.892 110.936 158.964C110.696 159.036 110.444 159.072 110.18 159.072ZM107.084 153.588V152.64H111.14V153.588H107.084ZM112.965 159V152.64H114.069V154.368L113.961 153.936C114.137 153.496 114.433 153.16 114.849 152.928C115.265 152.696 115.777 152.58 116.385 152.58V153.696C116.337 153.688 116.289 153.684 116.241 153.684C116.201 153.684 116.161 153.684 116.121 153.684C115.505 153.684 115.017 153.868 114.657 154.236C114.297 154.604 114.117 155.136 114.117 155.832V159H112.965ZM120.47 159.072C119.83 159.072 119.262 158.932 118.766 158.652C118.27 158.372 117.878 157.988 117.59 157.5C117.302 157.004 117.158 156.444 117.158 155.82C117.158 155.188 117.302 154.628 117.59 154.14C117.878 153.652 118.27 153.272 118.766 153C119.262 152.72 119.83 152.58 120.47 152.58C121.102 152.58 121.666 152.72 122.162 153C122.666 153.272 123.058 153.652 123.338 154.14C123.626 154.62 123.77 155.18 123.77 155.82C123.77 156.452 123.626 157.012 123.338 157.5C123.058 157.988 122.666 158.372 122.162 158.652C121.666 158.932 121.102 159.072 120.47 159.072ZM120.47 158.064C120.878 158.064 121.242 157.972 121.562 157.788C121.89 157.604 122.146 157.344 122.33 157.008C122.514 156.664 122.606 156.268 122.606 155.82C122.606 155.364 122.514 154.972 122.33 154.644C122.146 154.308 121.89 154.048 121.562 153.864C121.242 153.68 120.878 153.588 120.47 153.588C120.062 153.588 119.698 153.68 119.378 153.864C119.058 154.048 118.802 154.308 118.61 154.644C118.418 154.972 118.322 155.364 118.322 155.82C118.322 156.268 118.418 156.664 118.61 157.008C118.802 157.344 119.058 157.604 119.378 157.788C119.698 157.972 120.062 158.064 120.47 158.064ZM125.499 159.072C125.275 159.072 125.083 158.996 124.923 158.844C124.763 158.684 124.683 158.484 124.683 158.244C124.683 158.004 124.763 157.808 124.923 157.656C125.083 157.504 125.275 157.428 125.499 157.428C125.715 157.428 125.899 157.504 126.051 157.656C126.211 157.808 126.291 158.004 126.291 158.244C126.291 158.484 126.211 158.684 126.051 158.844C125.899 158.996 125.715 159.072 125.499 159.072Z" fill="#008E86"/>
<path d="M84.7976 53.4102L84.7976 76.4991L68 76.4991L84.7976 53.4102Z" fill="#00D8CC" stroke="#00635D" stroke-width="2" stroke-linejoin="round"/>
<path d="M49 45.5L55.5 74L71.3138 71.8617L65.6569 49.9414L61.5 30L49 45.5Z" fill="#008E86" stroke="#00635D" stroke-width="2" stroke-linejoin="round"/>
<path d="M67 53.4102L90.2973 76.8211L67.1335 76.9915L67 53.4102Z" fill="#00D8CC" stroke="#00635D" stroke-width="2" stroke-linejoin="round"/>
<path d="M61.5003 30L84.7976 53.4109L84 76.4999L61.7673 77.1627L53.5 47L61.5003 30Z" fill="#00D8CC" stroke="#00635D" stroke-width="2" stroke-linejoin="round"/>
<path d="M84 68L77 77" stroke="#333333" stroke-width="2" stroke-dasharray="2 2"/>
<path d="M88.0869 75.1914C87.6399 74.8671 87.0146 74.9665 86.6903 75.4136L81.4052 82.6983C81.0808 83.1453 81.1803 83.7706 81.6273 84.095C82.0744 84.4193 82.6997 84.3198 83.024 83.8728L87.7219 77.3974L94.1972 82.0953C94.6442 82.4196 95.2695 82.3202 95.5938 81.8731C95.9182 81.4261 95.8187 80.8008 95.3717 80.4765L88.0869 75.1914ZM75.9982 68.0753C76.0393 67.5245 75.6262 67.0447 75.0754 67.0036C74.5247 66.9624 74.0449 67.3756 74.0037 67.9263L75.9982 68.0753ZM86.5121 76.1579C87.3674 81.5343 86.8602 85.6798 85.7479 88.3596C84.6103 91.1 83.0214 92.0056 81.7683 91.8237C80.4222 91.6283 78.6385 90.1126 77.3407 86.165C76.068 82.294 75.3784 76.3745 75.9982 68.0753L74.0037 67.9263C73.3727 76.3771 74.0575 82.5826 75.4407 86.7897C76.7987 90.9202 78.9523 93.4358 81.481 93.8029C84.1028 94.1835 86.3263 92.1828 87.595 89.1264C88.8889 86.0093 89.3819 81.4673 88.4873 75.8437L86.5121 76.1579Z" fill="black"/>
<path d="M53.5005 46.5L62.1205 76.8101L71.3143 71.8617L65.6574 49.9414L58.5005 37L53.5005 46.5Z" fill="#008E86" stroke="#00635D" stroke-width="2" stroke-linejoin="round"/>
<path d="M53.5005 47L84.5005 30.5L61.5005 30L53.5005 47Z" fill="#008E86" stroke="#00635D" stroke-width="2" stroke-linejoin="round"/>
<path d="M60.707 55.0589L70.7743 71.1546L65.8245 49.9414L60.707 55.0589Z" fill="#00D8CC" stroke="#00635D" stroke-width="2" stroke-linejoin="round"/>
<path d="M60.7075 55.0586L70.7748 71.1543L75.0174 63.3761L60.7075 55.0586Z" fill="#008E86" stroke="#00635D" stroke-width="2" stroke-linejoin="round"/>
</g>
<defs>
<clipPath id="clip0_18_416">
<rect width="180" height="180" rx="20" fill="white"/>
</clipPath>
<clipPath id="clip1_18_416">
<path d="M0 30L-1.31134e-06 0L30 -1.31134e-06L30 10C30 21.0457 21.0457 30 10 30L0 30Z" fill="white"/>
</clipPath>
</defs>
</svg>
