<svg width="180" height="180" viewBox="0 0 180 180" fill="none" xmlns="http://www.w3.org/2000/svg">
<g clip-path="url(#clip0_18_562)">
<rect width="180" height="180" rx="20" fill="#F2F2F2"/>
<g clip-path="url(#clip1_18_562)">
<path d="M0 30L-1.31134e-06 0L30 -1.31134e-06L30 10C30 21.0457 21.0457 30 10 30L0 30Z" fill="#333333"/>
<path d="M20.3644 18.648H18.5404V21H16.0124V18.648H9.98038V16.904L15.2604 9.8H17.9804L13.0844 16.536H16.0924V14.44H18.5404V16.536H20.3644V18.648Z" fill="#F2F2F2"/>
</g>
<path d="M40.758 129V120.6H44.298C45.194 120.6 45.982 120.776 46.662 121.128C47.35 121.48 47.882 121.972 48.258 122.604C48.642 123.236 48.834 123.968 48.834 124.8C48.834 125.632 48.642 126.364 48.258 126.996C47.882 127.628 47.35 128.12 46.662 128.472C45.982 128.824 45.194 129 44.298 129H40.758ZM41.958 127.956H44.226C44.922 127.956 45.522 127.824 46.026 127.56C46.538 127.296 46.934 126.928 47.214 126.456C47.494 125.976 47.634 125.424 47.634 124.8C47.634 124.168 47.494 123.616 47.214 123.144C46.934 122.672 46.538 122.304 46.026 122.04C45.522 121.776 44.922 121.644 44.226 121.644H41.958V127.956ZM53.2281 129.072C52.5881 129.072 52.0201 128.932 51.5241 128.652C51.0281 128.372 50.6361 127.988 50.3481 127.5C50.0601 127.004 49.9161 126.444 49.9161 125.82C49.9161 125.188 50.0601 124.628 50.3481 124.14C50.6361 123.652 51.0281 123.272 51.5241 123C52.0201 122.72 52.5881 122.58 53.2281 122.58C53.8601 122.58 54.4241 122.72 54.9201 123C55.4241 123.272 55.8161 123.652 56.0961 124.14C56.3841 124.62 56.5281 125.18 56.5281 125.82C56.5281 126.452 56.3841 127.012 56.0961 127.5C55.8161 127.988 55.4241 128.372 54.9201 128.652C54.4241 128.932 53.8601 129.072 53.2281 129.072ZM53.2281 128.064C53.6361 128.064 54.0001 127.972 54.3201 127.788C54.6481 127.604 54.9041 127.344 55.0881 127.008C55.2721 126.664 55.3641 126.268 55.3641 125.82C55.3641 125.364 55.2721 124.972 55.0881 124.644C54.9041 124.308 54.6481 124.048 54.3201 123.864C54.0001 123.68 53.6361 123.588 53.2281 123.588C52.8201 123.588 52.4561 123.68 52.1361 123.864C51.8161 124.048 51.5601 124.308 51.3681 124.644C51.1761 124.972 51.0801 125.364 51.0801 125.82C51.0801 126.268 51.1761 126.664 51.3681 127.008C51.5601 127.344 51.8161 127.604 52.1361 127.788C52.4561 127.972 52.8201 128.064 53.2281 128.064ZM61.4933 129.072C60.9493 129.072 60.4573 128.952 60.0173 128.712C59.5853 128.464 59.2413 128.1 58.9853 127.62C58.7373 127.14 58.6133 126.54 58.6133 125.82C58.6133 125.1 58.7413 124.5 58.9973 124.02C59.2613 123.54 59.6093 123.18 60.0413 122.94C60.4813 122.7 60.9653 122.58 61.4933 122.58C62.1173 122.58 62.6693 122.716 63.1493 122.988C63.6293 123.26 64.0093 123.64 64.2893 124.128C64.5693 124.608 64.7093 125.172 64.7093 125.82C64.7093 126.468 64.5693 127.036 64.2893 127.524C64.0093 128.012 63.6293 128.392 63.1493 128.664C62.6693 128.936 62.1173 129.072 61.4933 129.072ZM58.1213 129V120.096H59.2733V124.332L59.1533 125.808L59.2253 127.284V129H58.1213ZM61.3973 128.064C61.8053 128.064 62.1693 127.972 62.4893 127.788C62.8173 127.604 63.0733 127.344 63.2573 127.008C63.4493 126.664 63.5453 126.268 63.5453 125.82C63.5453 125.364 63.4493 124.972 63.2573 124.644C63.0733 124.308 62.8173 124.048 62.4893 123.864C62.1693 123.68 61.8053 123.588 61.3973 123.588C60.9973 123.588 60.6333 123.68 60.3053 123.864C59.9853 124.048 59.7293 124.308 59.5373 124.644C59.3533 124.972 59.2613 125.364 59.2613 125.82C59.2613 126.268 59.3533 126.664 59.5373 127.008C59.7293 127.344 59.9853 127.604 60.3053 127.788C60.6333 127.972 60.9973 128.064 61.3973 128.064ZM66.301 129V122.64H67.405V124.368L67.297 123.936C67.473 123.496 67.769 123.16 68.185 122.928C68.601 122.696 69.113 122.58 69.721 122.58V123.696C69.673 123.688 69.625 123.684 69.577 123.684C69.537 123.684 69.497 123.684 69.457 123.684C68.841 123.684 68.353 123.868 67.993 124.236C67.633 124.604 67.453 125.136 67.453 125.832V129H66.301ZM73.9142 129.072C73.2342 129.072 72.6342 128.932 72.1142 128.652C71.6022 128.372 71.2022 127.988 70.9142 127.5C70.6342 127.012 70.4942 126.452 70.4942 125.82C70.4942 125.188 70.6302 124.628 70.9022 124.14C71.1822 123.652 71.5622 123.272 72.0422 123C72.5302 122.72 73.0782 122.58 73.6862 122.58C74.3022 122.58 74.8462 122.716 75.3182 122.988C75.7902 123.26 76.1582 123.644 76.4222 124.14C76.6942 124.628 76.8302 125.2 76.8302 125.856C76.8302 125.904 76.8262 125.96 76.8182 126.024C76.8182 126.088 76.8142 126.148 76.8062 126.204H71.3942V125.376H76.2062L75.7382 125.664C75.7462 125.256 75.6622 124.892 75.4862 124.572C75.3102 124.252 75.0662 124.004 74.7542 123.828C74.4502 123.644 74.0942 123.552 73.6862 123.552C73.2862 123.552 72.9302 123.644 72.6182 123.828C72.3062 124.004 72.0622 124.256 71.8862 124.584C71.7102 124.904 71.6222 125.272 71.6222 125.688V125.88C71.6222 126.304 71.7182 126.684 71.9102 127.02C72.1102 127.348 72.3862 127.604 72.7382 127.788C73.0902 127.972 73.4942 128.064 73.9502 128.064C74.3262 128.064 74.6662 128 74.9702 127.872C75.2822 127.744 75.5542 127.552 75.7862 127.296L76.4222 128.04C76.1342 128.376 75.7742 128.632 75.3422 128.808C74.9182 128.984 74.4422 129.072 73.9142 129.072ZM85.6005 129V127.656L85.5405 127.404V125.112C85.5405 124.624 85.3965 124.248 85.1085 123.984C84.8285 123.712 84.4045 123.576 83.8365 123.576C83.4605 123.576 83.0925 123.64 82.7325 123.768C82.3725 123.888 82.0685 124.052 81.8205 124.26L81.3405 123.396C81.6685 123.132 82.0605 122.932 82.5165 122.796C82.9805 122.652 83.4645 122.58 83.9685 122.58C84.8405 122.58 85.5125 122.792 85.9845 123.216C86.4565 123.64 86.6925 124.288 86.6925 125.16V129H85.6005ZM83.5125 129.072C83.0405 129.072 82.6245 128.992 82.2645 128.832C81.9125 128.672 81.6405 128.452 81.4485 128.172C81.2565 127.884 81.1605 127.56 81.1605 127.2C81.1605 126.856 81.2405 126.544 81.4005 126.264C81.5685 125.984 81.8365 125.76 82.2045 125.592C82.5805 125.424 83.0845 125.34 83.7165 125.34H85.7325V126.168H83.7645C83.1885 126.168 82.8005 126.264 82.6005 126.456C82.4005 126.648 82.3005 126.88 82.3005 127.152C82.3005 127.464 82.4245 127.716 82.6725 127.908C82.9205 128.092 83.2645 128.184 83.7045 128.184C84.1365 128.184 84.5125 128.088 84.8325 127.896C85.1605 127.704 85.3965 127.424 85.5405 127.056L85.7685 127.848C85.6165 128.224 85.3485 128.524 84.9645 128.748C84.5805 128.964 84.0965 129.072 83.5125 129.072ZM90.6484 129.072C90.1204 129.072 89.6164 129 89.1364 128.856C88.6644 128.712 88.2924 128.536 88.0204 128.328L88.5004 127.416C88.7724 127.6 89.1084 127.756 89.5084 127.884C89.9084 128.012 90.3164 128.076 90.7324 128.076C91.2684 128.076 91.6524 128 91.8844 127.848C92.1244 127.696 92.2444 127.484 92.2444 127.212C92.2444 127.012 92.1724 126.856 92.0284 126.744C91.8844 126.632 91.6924 126.548 91.4524 126.492C91.2204 126.436 90.9604 126.388 90.6724 126.348C90.3844 126.3 90.0964 126.244 89.8084 126.18C89.5204 126.108 89.2564 126.012 89.0164 125.892C88.7764 125.764 88.5844 125.592 88.4404 125.376C88.2964 125.152 88.2244 124.856 88.2244 124.488C88.2244 124.104 88.3324 123.768 88.5484 123.48C88.7644 123.192 89.0684 122.972 89.4604 122.82C89.8604 122.66 90.3324 122.58 90.8764 122.58C91.2924 122.58 91.7124 122.632 92.1364 122.736C92.5684 122.832 92.9204 122.972 93.1924 123.156L92.7004 124.068C92.4124 123.876 92.1124 123.744 91.8004 123.672C91.4884 123.6 91.1764 123.564 90.8644 123.564C90.3604 123.564 89.9844 123.648 89.7364 123.816C89.4884 123.976 89.3644 124.184 89.3644 124.44C89.3644 124.656 89.4364 124.824 89.5804 124.944C89.7324 125.056 89.9244 125.144 90.1564 125.208C90.3964 125.272 90.6604 125.328 90.9484 125.376C91.2364 125.416 91.5244 125.472 91.8124 125.544C92.1004 125.608 92.3604 125.7 92.5924 125.82C92.8324 125.94 93.0244 126.108 93.1684 126.324C93.3204 126.54 93.3964 126.828 93.3964 127.188C93.3964 127.572 93.2844 127.904 93.0604 128.184C92.8364 128.464 92.5204 128.684 92.1124 128.844C91.7044 128.996 91.2164 129.072 90.6484 129.072ZM98.0588 129V120.096H99.2108V129H98.0588ZM105.358 129V127.656L105.298 127.404V125.112C105.298 124.624 105.154 124.248 104.866 123.984C104.586 123.712 104.162 123.576 103.594 123.576C103.218 123.576 102.85 123.64 102.49 123.768C102.13 123.888 101.826 124.052 101.578 124.26L101.098 123.396C101.426 123.132 101.818 122.932 102.274 122.796C102.738 122.652 103.222 122.58 103.726 122.58C104.598 122.58 105.27 122.792 105.742 123.216C106.214 123.64 106.45 124.288 106.45 125.16V129H105.358ZM103.27 129.072C102.798 129.072 102.382 128.992 102.022 128.832C101.67 128.672 101.398 128.452 101.206 128.172C101.014 127.884 100.918 127.56 100.918 127.2C100.918 126.856 100.998 126.544 101.158 126.264C101.326 125.984 101.594 125.76 101.962 125.592C102.338 125.424 102.842 125.34 103.474 125.34H105.49V126.168H103.522C102.946 126.168 102.558 126.264 102.358 126.456C102.158 126.648 102.058 126.88 102.058 127.152C102.058 127.464 102.182 127.716 102.43 127.908C102.678 128.092 103.022 128.184 103.462 128.184C103.894 128.184 104.27 128.088 104.59 127.896C104.918 127.704 105.154 127.424 105.298 127.056L105.526 127.848C105.374 128.224 105.106 128.524 104.722 128.748C104.338 128.964 103.854 129.072 103.27 129.072ZM110.766 129.072C110.126 129.072 109.63 128.9 109.278 128.556C108.926 128.212 108.75 127.72 108.75 127.08V121.248H109.902V127.032C109.902 127.376 109.986 127.64 110.154 127.824C110.33 128.008 110.578 128.1 110.898 128.1C111.258 128.1 111.558 128 111.798 127.8L112.158 128.628C111.982 128.78 111.77 128.892 111.522 128.964C111.282 129.036 111.03 129.072 110.766 129.072ZM107.67 123.588V122.64H111.726V123.588H107.67ZM116.172 129.072C115.492 129.072 114.892 128.932 114.372 128.652C113.86 128.372 113.46 127.988 113.172 127.5C112.892 127.012 112.752 126.452 112.752 125.82C112.752 125.188 112.888 124.628 113.16 124.14C113.44 123.652 113.82 123.272 114.3 123C114.788 122.72 115.336 122.58 115.944 122.58C116.56 122.58 117.104 122.716 117.576 122.988C118.048 123.26 118.416 123.644 118.68 124.14C118.952 124.628 119.088 125.2 119.088 125.856C119.088 125.904 119.084 125.96 119.076 126.024C119.076 126.088 119.072 126.148 119.064 126.204H113.652V125.376H118.464L117.996 125.664C118.004 125.256 117.92 124.892 117.744 124.572C117.568 124.252 117.324 124.004 117.012 123.828C116.708 123.644 116.352 123.552 115.944 123.552C115.544 123.552 115.188 123.644 114.876 123.828C114.564 124.004 114.32 124.256 114.144 124.584C113.968 124.904 113.88 125.272 113.88 125.688V125.88C113.88 126.304 113.976 126.684 114.168 127.02C114.368 127.348 114.644 127.604 114.996 127.788C115.348 127.972 115.752 128.064 116.208 128.064C116.584 128.064 116.924 128 117.228 127.872C117.54 127.744 117.812 127.552 118.044 127.296L118.68 128.04C118.392 128.376 118.032 128.632 117.6 128.808C117.176 128.984 116.7 129.072 116.172 129.072ZM120.688 129V122.64H121.792V124.368L121.684 123.936C121.86 123.496 122.156 123.16 122.572 122.928C122.988 122.696 123.5 122.58 124.108 122.58V123.696C124.06 123.688 124.012 123.684 123.964 123.684C123.924 123.684 123.884 123.684 123.844 123.684C123.228 123.684 122.74 123.868 122.38 124.236C122.02 124.604 121.84 125.136 121.84 125.832V129H120.688ZM129.007 129V127.656L128.947 127.404V125.112C128.947 124.624 128.803 124.248 128.515 123.984C128.235 123.712 127.811 123.576 127.243 123.576C126.867 123.576 126.499 123.64 126.139 123.768C125.779 123.888 125.475 124.052 125.227 124.26L124.747 123.396C125.075 123.132 125.467 122.932 125.923 122.796C126.387 122.652 126.871 122.58 127.375 122.58C128.247 122.58 128.919 122.792 129.391 123.216C129.863 123.64 130.099 124.288 130.099 125.16V129H129.007ZM126.919 129.072C126.447 129.072 126.031 128.992 125.671 128.832C125.319 128.672 125.047 128.452 124.855 128.172C124.663 127.884 124.567 127.56 124.567 127.2C124.567 126.856 124.647 126.544 124.807 126.264C124.975 125.984 125.243 125.76 125.611 125.592C125.987 125.424 126.491 125.34 127.123 125.34H129.139V126.168H127.171C126.595 126.168 126.207 126.264 126.007 126.456C125.807 126.648 125.707 126.88 125.707 127.152C125.707 127.464 125.831 127.716 126.079 127.908C126.327 128.092 126.671 128.184 127.111 128.184C127.543 128.184 127.919 128.088 128.239 127.896C128.567 127.704 128.803 127.424 128.947 127.056L129.175 127.848C129.023 128.224 128.755 128.524 128.371 128.748C127.987 128.964 127.503 129.072 126.919 129.072ZM132.231 129V122.64H133.383V129H132.231ZM132.807 121.416C132.583 121.416 132.395 121.344 132.243 121.2C132.099 121.056 132.027 120.88 132.027 120.672C132.027 120.456 132.099 120.276 132.243 120.132C132.395 119.988 132.583 119.916 132.807 119.916C133.031 119.916 133.215 119.988 133.359 120.132C133.511 120.268 133.587 120.44 133.587 120.648C133.587 120.864 133.515 121.048 133.371 121.2C133.227 121.344 133.039 121.416 132.807 121.416ZM137.406 129.072C136.878 129.072 136.374 129 135.894 128.856C135.422 128.712 135.05 128.536 134.778 128.328L135.258 127.416C135.53 127.6 135.866 127.756 136.266 127.884C136.666 128.012 137.074 128.076 137.49 128.076C138.026 128.076 138.41 128 138.642 127.848C138.882 127.696 139.002 127.484 139.002 127.212C139.002 127.012 138.93 126.856 138.786 126.744C138.642 126.632 138.45 126.548 138.21 126.492C137.978 126.436 137.718 126.388 137.43 126.348C137.142 126.3 136.854 126.244 136.566 126.18C136.278 126.108 136.014 126.012 135.774 125.892C135.534 125.764 135.342 125.592 135.198 125.376C135.054 125.152 134.982 124.856 134.982 124.488C134.982 124.104 135.09 123.768 135.306 123.48C135.522 123.192 135.826 122.972 136.218 122.82C136.618 122.66 137.09 122.58 137.634 122.58C138.05 122.58 138.47 122.632 138.894 122.736C139.326 122.832 139.678 122.972 139.95 123.156L139.458 124.068C139.17 123.876 138.87 123.744 138.558 123.672C138.246 123.6 137.934 123.564 137.622 123.564C137.118 123.564 136.742 123.648 136.494 123.816C136.246 123.976 136.122 124.184 136.122 124.44C136.122 124.656 136.194 124.824 136.338 124.944C136.49 125.056 136.682 125.144 136.914 125.208C137.154 125.272 137.418 125.328 137.706 125.376C137.994 125.416 138.282 125.472 138.57 125.544C138.858 125.608 139.118 125.7 139.35 125.82C139.59 125.94 139.782 126.108 139.926 126.324C140.078 126.54 140.154 126.828 140.154 127.188C140.154 127.572 140.042 127.904 139.818 128.184C139.594 128.464 139.278 128.684 138.87 128.844C138.462 128.996 137.974 129.072 137.406 129.072ZM26.7273 144.072C26.0793 144.072 25.4993 143.932 24.9873 143.652C24.4833 143.372 24.0873 142.988 23.7993 142.5C23.5113 142.012 23.3673 141.452 23.3673 140.82C23.3673 140.188 23.5113 139.628 23.7993 139.14C24.0873 138.652 24.4833 138.272 24.9873 138C25.4993 137.72 26.0793 137.58 26.7273 137.58C27.3033 137.58 27.8153 137.696 28.2633 137.928C28.7193 138.152 29.0713 138.488 29.3193 138.936L28.4433 139.5C28.2353 139.188 27.9793 138.96 27.6753 138.816C27.3793 138.664 27.0593 138.588 26.7153 138.588C26.2993 138.588 25.9273 138.68 25.5993 138.864C25.2713 139.048 25.0113 139.308 24.8193 139.644C24.6273 139.972 24.5313 140.364 24.5313 140.82C24.5313 141.276 24.6273 141.672 24.8193 142.008C25.0113 142.344 25.2713 142.604 25.5993 142.788C25.9273 142.972 26.2993 143.064 26.7153 143.064C27.0593 143.064 27.3793 142.992 27.6753 142.848C27.9793 142.696 28.2353 142.464 28.4433 142.152L29.3193 142.704C29.0713 143.144 28.7193 143.484 28.2633 143.724C27.8153 143.956 27.3033 144.072 26.7273 144.072ZM33.441 144.072C32.801 144.072 32.233 143.932 31.737 143.652C31.241 143.372 30.849 142.988 30.561 142.5C30.273 142.004 30.129 141.444 30.129 140.82C30.129 140.188 30.273 139.628 30.561 139.14C30.849 138.652 31.241 138.272 31.737 138C32.233 137.72 32.801 137.58 33.441 137.58C34.073 137.58 34.637 137.72 35.133 138C35.637 138.272 36.029 138.652 36.309 139.14C36.597 139.62 36.741 140.18 36.741 140.82C36.741 141.452 36.597 142.012 36.309 142.5C36.029 142.988 35.637 143.372 35.133 143.652C34.637 143.932 34.073 144.072 33.441 144.072ZM33.441 143.064C33.849 143.064 34.213 142.972 34.533 142.788C34.861 142.604 35.117 142.344 35.301 142.008C35.485 141.664 35.577 141.268 35.577 140.82C35.577 140.364 35.485 139.972 35.301 139.644C35.117 139.308 34.861 139.048 34.533 138.864C34.213 138.68 33.849 138.588 33.441 138.588C33.033 138.588 32.669 138.68 32.349 138.864C32.029 139.048 31.773 139.308 31.581 139.644C31.389 139.972 31.293 140.364 31.293 140.82C31.293 141.268 31.389 141.664 31.581 142.008C31.773 142.344 32.029 142.604 32.349 142.788C32.669 142.972 33.033 143.064 33.441 143.064ZM41.7302 137.58C42.2502 137.58 42.7062 137.68 43.0982 137.88C43.4982 138.08 43.8102 138.384 44.0342 138.792C44.2582 139.2 44.3702 139.716 44.3702 140.34V144H43.2182V140.472C43.2182 139.856 43.0662 139.392 42.7622 139.08C42.4662 138.768 42.0462 138.612 41.5022 138.612C41.0942 138.612 40.7382 138.692 40.4342 138.852C40.1302 139.012 39.8942 139.248 39.7262 139.56C39.5662 139.872 39.4862 140.26 39.4862 140.724V144H38.3342V137.64H39.4382V139.356L39.2582 138.9C39.4662 138.484 39.7862 138.16 40.2182 137.928C40.6502 137.696 41.1542 137.58 41.7302 137.58ZM46.6702 144V137.076C46.6702 136.452 46.8502 135.956 47.2102 135.588C47.5782 135.212 48.0982 135.024 48.7702 135.024C49.0182 135.024 49.2542 135.056 49.4782 135.12C49.7102 135.176 49.9062 135.268 50.0662 135.396L49.7182 136.272C49.5982 136.176 49.4622 136.104 49.3102 136.056C49.1582 136 48.9982 135.972 48.8302 135.972C48.4942 135.972 48.2382 136.068 48.0622 136.26C47.8862 136.444 47.7982 136.72 47.7982 137.088V137.94L47.8222 138.468V144H46.6702ZM45.5902 138.588V137.64H49.6462V138.588H45.5902ZM53.3629 144.072C52.7229 144.072 52.1549 143.932 51.6589 143.652C51.1629 143.372 50.7709 142.988 50.4829 142.5C50.1949 142.004 50.0509 141.444 50.0509 140.82C50.0509 140.188 50.1949 139.628 50.4829 139.14C50.7709 138.652 51.1629 138.272 51.6589 138C52.1549 137.72 52.7229 137.58 53.3629 137.58C53.9949 137.58 54.5589 137.72 55.0549 138C55.5589 138.272 55.9509 138.652 56.2309 139.14C56.5189 139.62 56.6629 140.18 56.6629 140.82C56.6629 141.452 56.5189 142.012 56.2309 142.5C55.9509 142.988 55.5589 143.372 55.0549 143.652C54.5589 143.932 53.9949 144.072 53.3629 144.072ZM53.3629 143.064C53.7709 143.064 54.1349 142.972 54.4549 142.788C54.7829 142.604 55.0389 142.344 55.2229 142.008C55.4069 141.664 55.4989 141.268 55.4989 140.82C55.4989 140.364 55.4069 139.972 55.2229 139.644C55.0389 139.308 54.7829 139.048 54.4549 138.864C54.1349 138.68 53.7709 138.588 53.3629 138.588C52.9549 138.588 52.5909 138.68 52.2709 138.864C51.9509 139.048 51.6949 139.308 51.5029 139.644C51.3109 139.972 51.2149 140.364 51.2149 140.82C51.2149 141.268 51.3109 141.664 51.5029 142.008C51.6949 142.344 51.9509 142.604 52.2709 142.788C52.5909 142.972 52.9549 143.064 53.3629 143.064ZM58.2561 144V137.64H59.3601V139.368L59.2521 138.936C59.4281 138.496 59.7241 138.16 60.1401 137.928C60.5561 137.696 61.0681 137.58 61.6761 137.58V138.696C61.6281 138.688 61.5801 138.684 61.5321 138.684C61.4921 138.684 61.4521 138.684 61.4121 138.684C60.7961 138.684 60.3081 138.868 59.9481 139.236C59.5881 139.604 59.4081 140.136 59.4081 140.832V144H58.2561ZM71.0519 137.58C71.5639 137.58 72.0159 137.68 72.4079 137.88C72.7999 138.08 73.1039 138.384 73.3199 138.792C73.5439 139.2 73.6559 139.716 73.6559 140.34V144H72.5039V140.472C72.5039 139.856 72.3599 139.392 72.0719 139.08C71.7839 138.768 71.3799 138.612 70.8599 138.612C70.4759 138.612 70.1399 138.692 69.8519 138.852C69.5639 139.012 69.3399 139.248 69.1799 139.56C69.0279 139.872 68.9519 140.26 68.9519 140.724V144H67.7999V140.472C67.7999 139.856 67.6559 139.392 67.3679 139.08C67.0879 138.768 66.6839 138.612 66.1559 138.612C65.7799 138.612 65.4479 138.692 65.1599 138.852C64.8719 139.012 64.6479 139.248 64.4879 139.56C64.3279 139.872 64.2479 140.26 64.2479 140.724V144H63.0959V137.64H64.1999V139.332L64.0199 138.9C64.2199 138.484 64.5279 138.16 64.9439 137.928C65.3599 137.696 65.8439 137.58 66.3959 137.58C67.0039 137.58 67.5279 137.732 67.9679 138.036C68.4079 138.332 68.6959 138.784 68.8319 139.392L68.3639 139.2C68.5559 138.712 68.8919 138.32 69.3719 138.024C69.8519 137.728 70.4119 137.58 71.0519 137.58ZM78.6076 144.072C77.9276 144.072 77.3276 143.932 76.8076 143.652C76.2956 143.372 75.8956 142.988 75.6076 142.5C75.3276 142.012 75.1876 141.452 75.1876 140.82C75.1876 140.188 75.3236 139.628 75.5956 139.14C75.8756 138.652 76.2556 138.272 76.7356 138C77.2236 137.72 77.7716 137.58 78.3796 137.58C78.9956 137.58 79.5396 137.716 80.0116 137.988C80.4836 138.26 80.8516 138.644 81.1156 139.14C81.3876 139.628 81.5236 140.2 81.5236 140.856C81.5236 140.904 81.5196 140.96 81.5116 141.024C81.5116 141.088 81.5076 141.148 81.4996 141.204H76.0876V140.376H80.8996L80.4316 140.664C80.4396 140.256 80.3556 139.892 80.1796 139.572C80.0036 139.252 79.7596 139.004 79.4476 138.828C79.1436 138.644 78.7876 138.552 78.3796 138.552C77.9796 138.552 77.6236 138.644 77.3116 138.828C76.9996 139.004 76.7556 139.256 76.5796 139.584C76.4036 139.904 76.3156 140.272 76.3156 140.688V140.88C76.3156 141.304 76.4116 141.684 76.6036 142.02C76.8036 142.348 77.0796 142.604 77.4316 142.788C77.7836 142.972 78.1876 143.064 78.6436 143.064C79.0196 143.064 79.3596 143 79.6636 142.872C79.9756 142.744 80.2476 142.552 80.4796 142.296L81.1156 143.04C80.8276 143.376 80.4676 143.632 80.0356 143.808C79.6116 143.984 79.1356 144.072 78.6076 144.072ZM86.3459 144V137.64H87.4979V144H86.3459ZM86.9219 136.416C86.6979 136.416 86.5099 136.344 86.3579 136.2C86.2139 136.056 86.1419 135.88 86.1419 135.672C86.1419 135.456 86.2139 135.276 86.3579 135.132C86.5099 134.988 86.6979 134.916 86.9219 134.916C87.1459 134.916 87.3299 134.988 87.4739 135.132C87.6259 135.268 87.7019 135.44 87.7019 135.648C87.7019 135.864 87.6299 136.048 87.4859 136.2C87.3419 136.344 87.1539 136.416 86.9219 136.416ZM93.0935 137.58C93.6135 137.58 94.0695 137.68 94.4615 137.88C94.8615 138.08 95.1735 138.384 95.3975 138.792C95.6215 139.2 95.7335 139.716 95.7335 140.34V144H94.5815V140.472C94.5815 139.856 94.4295 139.392 94.1255 139.08C93.8295 138.768 93.4095 138.612 92.8655 138.612C92.4575 138.612 92.1015 138.692 91.7975 138.852C91.4935 139.012 91.2575 139.248 91.0895 139.56C90.9295 139.872 90.8495 140.26 90.8495 140.724V144H89.6975V137.64H90.8015V139.356L90.6215 138.9C90.8295 138.484 91.1495 138.16 91.5815 137.928C92.0135 137.696 92.5175 137.58 93.0935 137.58ZM100.493 144.072C99.8774 144.072 99.3254 143.936 98.8374 143.664C98.3574 143.392 97.9774 143.012 97.6974 142.524C97.4174 142.036 97.2774 141.468 97.2774 140.82C97.2774 140.172 97.4174 139.608 97.6974 139.128C97.9774 138.64 98.3574 138.26 98.8374 137.988C99.3254 137.716 99.8774 137.58 100.493 137.58C101.029 137.58 101.513 137.7 101.945 137.94C102.377 138.18 102.721 138.54 102.977 139.02C103.241 139.5 103.373 140.1 103.373 140.82C103.373 141.54 103.245 142.14 102.989 142.62C102.741 143.1 102.401 143.464 101.969 143.712C101.537 143.952 101.045 144.072 100.493 144.072ZM100.589 143.064C100.989 143.064 101.349 142.972 101.669 142.788C101.997 142.604 102.253 142.344 102.437 142.008C102.629 141.664 102.725 141.268 102.725 140.82C102.725 140.364 102.629 139.972 102.437 139.644C102.253 139.308 101.997 139.048 101.669 138.864C101.349 138.68 100.989 138.588 100.589 138.588C100.181 138.588 99.8174 138.68 99.4974 138.864C99.1774 139.048 98.9214 139.308 98.7294 139.644C98.5374 139.972 98.4414 140.364 98.4414 140.82C98.4414 141.268 98.5374 141.664 98.7294 142.008C98.9214 142.344 99.1774 142.604 99.4974 142.788C99.8174 142.972 100.181 143.064 100.589 143.064ZM102.761 144V142.284L102.833 140.808L102.713 139.332V135.096H103.865V144H102.761ZM106.045 144V137.64H107.197V144H106.045ZM106.621 136.416C106.397 136.416 106.209 136.344 106.057 136.2C105.913 136.056 105.841 135.88 105.841 135.672C105.841 135.456 105.913 135.276 106.057 135.132C106.209 134.988 106.397 134.916 106.621 134.916C106.845 134.916 107.029 134.988 107.173 135.132C107.325 135.268 107.401 135.44 107.401 135.648C107.401 135.864 107.329 136.048 107.185 136.2C107.041 136.344 106.853 136.416 106.621 136.416ZM112.169 144.072C111.521 144.072 110.941 143.932 110.429 143.652C109.925 143.372 109.529 142.988 109.241 142.5C108.953 142.012 108.809 141.452 108.809 140.82C108.809 140.188 108.953 139.628 109.241 139.14C109.529 138.652 109.925 138.272 110.429 138C110.941 137.72 111.521 137.58 112.169 137.58C112.745 137.58 113.257 137.696 113.705 137.928C114.161 138.152 114.513 138.488 114.761 138.936L113.885 139.5C113.677 139.188 113.421 138.96 113.117 138.816C112.821 138.664 112.501 138.588 112.157 138.588C111.741 138.588 111.369 138.68 111.041 138.864C110.713 139.048 110.453 139.308 110.261 139.644C110.069 139.972 109.973 140.364 109.973 140.82C109.973 141.276 110.069 141.672 110.261 142.008C110.453 142.344 110.713 142.604 111.041 142.788C111.369 142.972 111.741 143.064 112.157 143.064C112.501 143.064 112.821 142.992 113.117 142.848C113.421 142.696 113.677 142.464 113.885 142.152L114.761 142.704C114.513 143.144 114.161 143.484 113.705 143.724C113.257 143.956 112.745 144.072 112.169 144.072ZM120.2 144V142.656L120.14 142.404V140.112C120.14 139.624 119.996 139.248 119.708 138.984C119.428 138.712 119.004 138.576 118.436 138.576C118.06 138.576 117.692 138.64 117.332 138.768C116.972 138.888 116.668 139.052 116.42 139.26L115.94 138.396C116.268 138.132 116.66 137.932 117.116 137.796C117.58 137.652 118.064 137.58 118.568 137.58C119.44 137.58 120.112 137.792 120.584 138.216C121.056 138.64 121.292 139.288 121.292 140.16V144H120.2ZM118.112 144.072C117.64 144.072 117.224 143.992 116.864 143.832C116.512 143.672 116.24 143.452 116.048 143.172C115.856 142.884 115.76 142.56 115.76 142.2C115.76 141.856 115.84 141.544 116 141.264C116.168 140.984 116.436 140.76 116.804 140.592C117.18 140.424 117.684 140.34 118.316 140.34H120.332V141.168H118.364C117.788 141.168 117.4 141.264 117.2 141.456C117 141.648 116.9 141.88 116.9 142.152C116.9 142.464 117.024 142.716 117.272 142.908C117.52 143.092 117.864 143.184 118.304 143.184C118.736 143.184 119.112 143.088 119.432 142.896C119.76 142.704 119.996 142.424 120.14 142.056L120.368 142.848C120.216 143.224 119.948 143.524 119.564 143.748C119.18 143.964 118.696 144.072 118.112 144.072ZM126.052 144.072C125.436 144.072 124.884 143.936 124.396 143.664C123.916 143.392 123.536 143.012 123.256 142.524C122.976 142.036 122.836 141.468 122.836 140.82C122.836 140.172 122.976 139.608 123.256 139.128C123.536 138.64 123.916 138.26 124.396 137.988C124.884 137.716 125.436 137.58 126.052 137.58C126.588 137.58 127.072 137.7 127.504 137.94C127.936 138.18 128.28 138.54 128.536 139.02C128.8 139.5 128.932 140.1 128.932 140.82C128.932 141.54 128.804 142.14 128.548 142.62C128.3 143.1 127.96 143.464 127.528 143.712C127.096 143.952 126.604 144.072 126.052 144.072ZM126.148 143.064C126.548 143.064 126.908 142.972 127.228 142.788C127.556 142.604 127.812 142.344 127.996 142.008C128.188 141.664 128.284 141.268 128.284 140.82C128.284 140.364 128.188 139.972 127.996 139.644C127.812 139.308 127.556 139.048 127.228 138.864C126.908 138.68 126.548 138.588 126.148 138.588C125.74 138.588 125.376 138.68 125.056 138.864C124.736 139.048 124.48 139.308 124.288 139.644C124.096 139.972 124 140.364 124 140.82C124 141.268 124.096 141.664 124.288 142.008C124.48 142.344 124.736 142.604 125.056 142.788C125.376 142.972 125.74 143.064 126.148 143.064ZM128.32 144V142.284L128.392 140.808L128.272 139.332V135.096H129.424V144H128.32ZM134.328 144.072C133.688 144.072 133.12 143.932 132.624 143.652C132.128 143.372 131.736 142.988 131.448 142.5C131.16 142.004 131.016 141.444 131.016 140.82C131.016 140.188 131.16 139.628 131.448 139.14C131.736 138.652 132.128 138.272 132.624 138C133.12 137.72 133.688 137.58 134.328 137.58C134.96 137.58 135.524 137.72 136.02 138C136.524 138.272 136.916 138.652 137.196 139.14C137.484 139.62 137.628 140.18 137.628 140.82C137.628 141.452 137.484 142.012 137.196 142.5C136.916 142.988 136.524 143.372 136.02 143.652C135.524 143.932 134.96 144.072 134.328 144.072ZM134.328 143.064C134.736 143.064 135.1 142.972 135.42 142.788C135.748 142.604 136.004 142.344 136.188 142.008C136.372 141.664 136.464 141.268 136.464 140.82C136.464 140.364 136.372 139.972 136.188 139.644C136.004 139.308 135.748 139.048 135.42 138.864C135.1 138.68 134.736 138.588 134.328 138.588C133.92 138.588 133.556 138.68 133.236 138.864C132.916 139.048 132.66 139.308 132.468 139.644C132.276 139.972 132.18 140.364 132.18 140.82C132.18 141.268 132.276 141.664 132.468 142.008C132.66 142.344 132.916 142.604 133.236 142.788C133.556 142.972 133.92 143.064 134.328 143.064ZM145.84 137.58C146.36 137.58 146.816 137.68 147.208 137.88C147.608 138.08 147.92 138.384 148.144 138.792C148.368 139.2 148.48 139.716 148.48 140.34V144H147.328V140.472C147.328 139.856 147.176 139.392 146.872 139.08C146.576 138.768 146.156 138.612 145.612 138.612C145.204 138.612 144.848 138.692 144.544 138.852C144.24 139.012 144.004 139.248 143.836 139.56C143.676 139.872 143.596 140.26 143.596 140.724V144H142.444V137.64H143.548V139.356L143.368 138.9C143.576 138.484 143.896 138.16 144.328 137.928C144.76 137.696 145.264 137.58 145.84 137.58ZM153.336 144.072C152.696 144.072 152.128 143.932 151.632 143.652C151.136 143.372 150.744 142.988 150.456 142.5C150.168 142.004 150.024 141.444 150.024 140.82C150.024 140.188 150.168 139.628 150.456 139.14C150.744 138.652 151.136 138.272 151.632 138C152.128 137.72 152.696 137.58 153.336 137.58C153.968 137.58 154.532 137.72 155.028 138C155.532 138.272 155.924 138.652 156.204 139.14C156.492 139.62 156.636 140.18 156.636 140.82C156.636 141.452 156.492 142.012 156.204 142.5C155.924 142.988 155.532 143.372 155.028 143.652C154.532 143.932 153.968 144.072 153.336 144.072ZM153.336 143.064C153.744 143.064 154.108 142.972 154.428 142.788C154.756 142.604 155.012 142.344 155.196 142.008C155.38 141.664 155.472 141.268 155.472 140.82C155.472 140.364 155.38 139.972 155.196 139.644C155.012 139.308 154.756 139.048 154.428 138.864C154.108 138.68 153.744 138.588 153.336 138.588C152.928 138.588 152.564 138.68 152.244 138.864C151.924 139.048 151.668 139.308 151.476 139.644C151.284 139.972 151.188 140.364 151.188 140.82C151.188 141.268 151.284 141.664 151.476 142.008C151.668 142.344 151.924 142.604 152.244 142.788C152.564 142.972 152.928 143.064 153.336 143.064ZM71.6924 161.4C71.1084 161.4 70.5404 161.316 69.9884 161.148C69.4444 160.988 69.0004 160.756 68.6564 160.452L69.2084 159.564C69.5044 159.82 69.8684 160.02 70.3004 160.164C70.7324 160.316 71.1844 160.392 71.6564 160.392C72.4084 160.392 72.9604 160.216 73.3124 159.864C73.6644 159.512 73.8404 158.976 73.8404 158.256V156.912L73.9604 155.652L73.9004 154.38V152.64H74.9924V158.136C74.9924 159.256 74.7124 160.08 74.1524 160.608C73.5924 161.136 72.7724 161.4 71.6924 161.4ZM71.5484 158.736C70.9324 158.736 70.3804 158.608 69.8924 158.352C69.4124 158.088 69.0284 157.724 68.7404 157.26C68.4604 156.796 68.3204 156.26 68.3204 155.652C68.3204 155.036 68.4604 154.5 68.7404 154.044C69.0284 153.58 69.4124 153.22 69.8924 152.964C70.3804 152.708 70.9324 152.58 71.5484 152.58C72.0924 152.58 72.5884 152.692 73.0364 152.916C73.4844 153.132 73.8404 153.468 74.1044 153.924C74.3764 154.38 74.5124 154.956 74.5124 155.652C74.5124 156.34 74.3764 156.912 74.1044 157.368C73.8404 157.824 73.4844 158.168 73.0364 158.4C72.5884 158.624 72.0924 158.736 71.5484 158.736ZM71.6804 157.728C72.1044 157.728 72.4804 157.64 72.8084 157.464C73.1364 157.288 73.3924 157.044 73.5764 156.732C73.7684 156.42 73.8644 156.06 73.8644 155.652C73.8644 155.244 73.7684 154.884 73.5764 154.572C73.3924 154.26 73.1364 154.02 72.8084 153.852C72.4804 153.676 72.1044 153.588 71.6804 153.588C71.2564 153.588 70.8764 153.676 70.5404 153.852C70.2124 154.02 69.9524 154.26 69.7604 154.572C69.5764 154.884 69.4844 155.244 69.4844 155.652C69.4844 156.06 69.5764 156.42 69.7604 156.732C69.9524 157.044 70.2124 157.288 70.5404 157.464C70.8764 157.64 71.2564 157.728 71.6804 157.728ZM77.1936 159V152.64H78.2976V154.368L78.1896 153.936C78.3656 153.496 78.6616 153.16 79.0776 152.928C79.4936 152.696 80.0056 152.58 80.6136 152.58V153.696C80.5656 153.688 80.5176 153.684 80.4696 153.684C80.4296 153.684 80.3896 153.684 80.3496 153.684C79.7336 153.684 79.2456 153.868 78.8856 154.236C78.5256 154.604 78.3456 155.136 78.3456 155.832V159H77.1936ZM85.5127 159V157.656L85.4527 157.404V155.112C85.4527 154.624 85.3087 154.248 85.0207 153.984C84.7407 153.712 84.3167 153.576 83.7487 153.576C83.3727 153.576 83.0047 153.64 82.6447 153.768C82.2847 153.888 81.9807 154.052 81.7327 154.26L81.2527 153.396C81.5807 153.132 81.9727 152.932 82.4287 152.796C82.8927 152.652 83.3767 152.58 83.8807 152.58C84.7527 152.58 85.4247 152.792 85.8967 153.216C86.3687 153.64 86.6047 154.288 86.6047 155.16V159H85.5127ZM83.4247 159.072C82.9527 159.072 82.5367 158.992 82.1767 158.832C81.8247 158.672 81.5527 158.452 81.3607 158.172C81.1687 157.884 81.0727 157.56 81.0727 157.2C81.0727 156.856 81.1527 156.544 81.3127 156.264C81.4807 155.984 81.7487 155.76 82.1167 155.592C82.4927 155.424 82.9967 155.34 83.6287 155.34H85.6447V156.168H83.6767C83.1007 156.168 82.7127 156.264 82.5127 156.456C82.3127 156.648 82.2127 156.88 82.2127 157.152C82.2127 157.464 82.3367 157.716 82.5847 157.908C82.8327 158.092 83.1767 158.184 83.6167 158.184C84.0487 158.184 84.4247 158.088 84.7447 157.896C85.0727 157.704 85.3087 157.424 85.4527 157.056L85.6807 157.848C85.5287 158.224 85.2607 158.524 84.8767 158.748C84.4927 158.964 84.0087 159.072 83.4247 159.072ZM83.0647 151.716L84.6967 150.156H86.1607L84.1447 151.716H83.0647ZM88.9045 159V152.076C88.9045 151.452 89.0845 150.956 89.4445 150.588C89.8125 150.212 90.3325 150.024 91.0045 150.024C91.2525 150.024 91.4885 150.056 91.7125 150.12C91.9445 150.176 92.1405 150.268 92.3005 150.396L91.9525 151.272C91.8325 151.176 91.6965 151.104 91.5445 151.056C91.3925 151 91.2325 150.972 91.0645 150.972C90.7285 150.972 90.4725 151.068 90.2965 151.26C90.1205 151.444 90.0325 151.72 90.0325 152.088V152.94L90.0565 153.468V159H88.9045ZM87.8245 153.588V152.64H91.8805V153.588H87.8245ZM92.9725 159V152.64H94.1245V159H92.9725ZM93.5485 151.416C93.3245 151.416 93.1365 151.344 92.9845 151.2C92.8405 151.056 92.7685 150.88 92.7685 150.672C92.7685 150.456 92.8405 150.276 92.9845 150.132C93.1365 149.988 93.3245 149.916 93.5485 149.916C93.7725 149.916 93.9565 149.988 94.1005 150.132C94.2525 150.268 94.3285 150.44 94.3285 150.648C94.3285 150.864 94.2565 151.048 94.1125 151.2C93.9685 151.344 93.7805 151.416 93.5485 151.416ZM99.0906 159.072C98.4426 159.072 97.8626 158.932 97.3506 158.652C96.8466 158.372 96.4506 157.988 96.1626 157.5C95.8746 157.012 95.7306 156.452 95.7306 155.82C95.7306 155.188 95.8746 154.628 96.1626 154.14C96.4506 153.652 96.8466 153.272 97.3506 153C97.8626 152.72 98.4426 152.58 99.0906 152.58C99.6666 152.58 100.179 152.696 100.627 152.928C101.083 153.152 101.435 153.488 101.683 153.936L100.807 154.5C100.599 154.188 100.343 153.96 100.039 153.816C99.7426 153.664 99.4226 153.588 99.0786 153.588C98.6626 153.588 98.2906 153.68 97.9626 153.864C97.6346 154.048 97.3746 154.308 97.1826 154.644C96.9906 154.972 96.8946 155.364 96.8946 155.82C96.8946 156.276 96.9906 156.672 97.1826 157.008C97.3746 157.344 97.6346 157.604 97.9626 157.788C98.2906 157.972 98.6626 158.064 99.0786 158.064C99.4226 158.064 99.7426 157.992 100.039 157.848C100.343 157.696 100.599 157.464 100.807 157.152L101.683 157.704C101.435 158.144 101.083 158.484 100.627 158.724C100.179 158.956 99.6666 159.072 99.0906 159.072ZM105.804 159.072C105.164 159.072 104.596 158.932 104.1 158.652C103.604 158.372 103.212 157.988 102.924 157.5C102.636 157.004 102.492 156.444 102.492 155.82C102.492 155.188 102.636 154.628 102.924 154.14C103.212 153.652 103.604 153.272 104.1 153C104.596 152.72 105.164 152.58 105.804 152.58C106.436 152.58 107 152.72 107.496 153C108 153.272 108.392 153.652 108.672 154.14C108.96 154.62 109.104 155.18 109.104 155.82C109.104 156.452 108.96 157.012 108.672 157.5C108.392 157.988 108 158.372 107.496 158.652C107 158.932 106.436 159.072 105.804 159.072ZM105.804 158.064C106.212 158.064 106.576 157.972 106.896 157.788C107.224 157.604 107.48 157.344 107.664 157.008C107.848 156.664 107.94 156.268 107.94 155.82C107.94 155.364 107.848 154.972 107.664 154.644C107.48 154.308 107.224 154.048 106.896 153.864C106.576 153.68 106.212 153.588 105.804 153.588C105.396 153.588 105.032 153.68 104.712 153.864C104.392 154.048 104.136 154.308 103.944 154.644C103.752 154.972 103.656 155.364 103.656 155.82C103.656 156.268 103.752 156.664 103.944 157.008C104.136 157.344 104.392 157.604 104.712 157.788C105.032 157.972 105.396 158.064 105.804 158.064ZM110.833 159.072C110.609 159.072 110.417 158.996 110.257 158.844C110.097 158.684 110.017 158.484 110.017 158.244C110.017 158.004 110.097 157.808 110.257 157.656C110.417 157.504 110.609 157.428 110.833 157.428C111.049 157.428 111.233 157.504 111.385 157.656C111.545 157.808 111.625 158.004 111.625 158.244C111.625 158.484 111.545 158.684 111.385 158.844C111.233 158.996 111.049 159.072 110.833 159.072Z" fill="#008E86"/>
<path d="M45 66L90 21L135 66L69 89.2586L45 66Z" fill="#00D8CC" stroke="#00635D" stroke-width="2" stroke-linejoin="round"/>
<path d="M135 65.7578L58 77.7578" stroke="#333333" stroke-width="2" stroke-dasharray="4 6"/>
<path d="M134.501 65.7585L69.999 40.2585" stroke="#333333" stroke-width="2" stroke-dasharray="4 6"/>
<path opacity="0.25" d="M135 65.7578H45" stroke="#333333" stroke-width="2"/>
<path d="M85.0435 57.8321C85.5319 58.0899 86.1368 57.9029 86.3946 57.4144L90.595 49.4547C90.8527 48.9663 90.6657 48.3613 90.1772 48.1036C89.6888 47.8458 89.0839 48.0328 88.8261 48.5213L85.0925 55.5966L78.0172 51.8629C77.5287 51.6052 76.9238 51.7922 76.6661 52.2807C76.4083 52.7691 76.5953 53.374 77.0838 53.6318L85.0435 57.8321ZM97.0403 38.3365C97.5788 38.2139 97.916 37.678 97.7934 37.1395C97.6709 36.601 97.135 36.2638 96.5965 36.3863L97.0403 38.3365ZM86.4656 56.6523C85.1041 52.2484 85.6559 48.2795 87.4965 45.0916L85.7644 44.0916C83.6305 47.7875 83.0379 52.3363 84.5548 57.2431L86.4656 56.6523ZM87.4965 45.0916C88.3898 43.5442 89.9605 42.0314 91.7611 40.801C93.5591 39.5725 95.4944 38.6882 97.0403 38.3365L96.5965 36.3863C94.7485 36.8069 92.5835 37.8168 90.6328 39.1497C88.6847 40.4809 86.8583 42.1969 85.7644 44.0916L87.4965 45.0916Z" fill="black"/>
<path d="M86.1929 83.6304C86.5683 83.2254 86.5442 82.5926 86.1391 82.2173L79.5378 76.0999C79.1327 75.7245 78.5 75.7486 78.1246 76.1537C77.7492 76.5588 77.7733 77.1915 78.1783 77.5669L84.0462 83.0045L78.6086 88.8724C78.2332 89.2775 78.2573 89.9102 78.6624 90.2856C79.0674 90.661 79.7002 90.6369 80.0755 90.2318L86.1929 83.6304ZM72.2668 68.7969C72.2878 68.245 71.8574 67.7806 71.3055 67.7596C70.7536 67.7386 70.2892 68.1689 70.2682 68.7208L72.2668 68.7969ZM85.4214 81.9515C81.3633 82.1059 78.1188 80.7319 75.8322 78.4454L74.418 79.8596C77.1194 82.561 80.9134 84.1245 85.4974 83.95L85.4214 81.9515ZM75.8322 78.4454C74.727 77.3402 73.7983 75.6632 73.1606 73.8466C72.5239 72.033 72.2139 70.1853 72.2668 68.7969L70.2682 68.7208C70.2036 70.4188 70.5755 72.521 71.2735 74.5091C71.9704 76.4942 73.0293 78.4708 74.418 79.8596L75.8322 78.4454Z" fill="black"/>
</g>
<defs>
<clipPath id="clip0_18_562">
<rect width="180" height="180" rx="20" fill="white"/>
</clipPath>
<clipPath id="clip1_18_562">
<path d="M0 30L-1.31134e-06 0L30 -1.31134e-06L30 10C30 21.0457 21.0457 30 10 30L0 30Z" fill="white"/>
</clipPath>
</defs>
</svg>
