<svg width="180" height="180" viewBox="0 0 180 180" fill="none" xmlns="http://www.w3.org/2000/svg">
<g clip-path="url(#clip0_18_584)">
<rect width="180" height="180" rx="20" fill="#F2F2F2"/>
<g clip-path="url(#clip1_18_584)">
<path d="M0 30L-1.31134e-06 0L30 -1.31134e-06L30 10C30 21.0457 21.0457 30 10 30L0 30Z" fill="#333333"/>
<path d="M14.7062 14.008C16.2849 14.008 17.4475 14.3227 18.1942 14.952C18.9515 15.5813 19.3302 16.424 19.3302 17.48C19.3302 18.1627 19.1595 18.7867 18.8182 19.352C18.4769 19.9067 17.9542 20.3547 17.2502 20.696C16.5569 21.0267 15.6982 21.192 14.6742 21.192C13.8849 21.192 13.1062 21.0907 12.3382 20.888C11.5809 20.6747 10.9355 20.376 10.4022 19.992L11.4262 18.008C11.8529 18.328 12.3435 18.5787 12.8982 18.76C13.4529 18.9307 14.0235 19.016 14.6102 19.016C15.2609 19.016 15.7729 18.888 16.1462 18.632C16.5195 18.376 16.7062 18.0187 16.7062 17.56C16.7062 17.08 16.5089 16.7173 16.1142 16.472C15.7302 16.2267 15.0582 16.104 14.0982 16.104H11.2342L11.8102 9.8H18.6422V11.88H13.9702L13.7942 14.008H14.7062Z" fill="#F2F2F2"/>
</g>
<path d="M27.8205 129V120.6H31.3605C32.2565 120.6 33.0445 120.776 33.7245 121.128C34.4125 121.48 34.9445 121.972 35.3205 122.604C35.7045 123.236 35.8965 123.968 35.8965 124.8C35.8965 125.632 35.7045 126.364 35.3205 126.996C34.9445 127.628 34.4125 128.12 33.7245 128.472C33.0445 128.824 32.2565 129 31.3605 129H27.8205ZM29.0205 127.956H31.2885C31.9845 127.956 32.5845 127.824 33.0885 127.56C33.6005 127.296 33.9965 126.928 34.2765 126.456C34.5565 125.976 34.6965 125.424 34.6965 124.8C34.6965 124.168 34.5565 123.616 34.2765 123.144C33.9965 122.672 33.6005 122.304 33.0885 122.04C32.5845 121.776 31.9845 121.644 31.2885 121.644H29.0205V127.956ZM40.2906 129.072C39.6506 129.072 39.0826 128.932 38.5866 128.652C38.0906 128.372 37.6986 127.988 37.4106 127.5C37.1226 127.004 36.9786 126.444 36.9786 125.82C36.9786 125.188 37.1226 124.628 37.4106 124.14C37.6986 123.652 38.0906 123.272 38.5866 123C39.0826 122.72 39.6506 122.58 40.2906 122.58C40.9226 122.58 41.4866 122.72 41.9826 123C42.4866 123.272 42.8786 123.652 43.1586 124.14C43.4466 124.62 43.5906 125.18 43.5906 125.82C43.5906 126.452 43.4466 127.012 43.1586 127.5C42.8786 127.988 42.4866 128.372 41.9826 128.652C41.4866 128.932 40.9226 129.072 40.2906 129.072ZM40.2906 128.064C40.6986 128.064 41.0626 127.972 41.3826 127.788C41.7106 127.604 41.9666 127.344 42.1506 127.008C42.3346 126.664 42.4266 126.268 42.4266 125.82C42.4266 125.364 42.3346 124.972 42.1506 124.644C41.9666 124.308 41.7106 124.048 41.3826 123.864C41.0626 123.68 40.6986 123.588 40.2906 123.588C39.8826 123.588 39.5186 123.68 39.1986 123.864C38.8786 124.048 38.6226 124.308 38.4306 124.644C38.2386 124.972 38.1426 125.364 38.1426 125.82C38.1426 126.268 38.2386 126.664 38.4306 127.008C38.6226 127.344 38.8786 127.604 39.1986 127.788C39.5186 127.972 39.8826 128.064 40.2906 128.064ZM48.5558 129.072C48.0118 129.072 47.5198 128.952 47.0798 128.712C46.6478 128.464 46.3038 128.1 46.0478 127.62C45.7998 127.14 45.6758 126.54 45.6758 125.82C45.6758 125.1 45.8038 124.5 46.0598 124.02C46.3238 123.54 46.6718 123.18 47.1038 122.94C47.5438 122.7 48.0278 122.58 48.5558 122.58C49.1798 122.58 49.7318 122.716 50.2118 122.988C50.6918 123.26 51.0718 123.64 51.3518 124.128C51.6318 124.608 51.7718 125.172 51.7718 125.82C51.7718 126.468 51.6318 127.036 51.3518 127.524C51.0718 128.012 50.6918 128.392 50.2118 128.664C49.7318 128.936 49.1798 129.072 48.5558 129.072ZM45.1838 129V120.096H46.3358V124.332L46.2158 125.808L46.2878 127.284V129H45.1838ZM48.4598 128.064C48.8678 128.064 49.2318 127.972 49.5518 127.788C49.8798 127.604 50.1358 127.344 50.3198 127.008C50.5118 126.664 50.6078 126.268 50.6078 125.82C50.6078 125.364 50.5118 124.972 50.3198 124.644C50.1358 124.308 49.8798 124.048 49.5518 123.864C49.2318 123.68 48.8678 123.588 48.4598 123.588C48.0598 123.588 47.6958 123.68 47.3678 123.864C47.0478 124.048 46.7918 124.308 46.5998 124.644C46.4158 124.972 46.3238 125.364 46.3238 125.82C46.3238 126.268 46.4158 126.664 46.5998 127.008C46.7918 127.344 47.0478 127.604 47.3678 127.788C47.6958 127.972 48.0598 128.064 48.4598 128.064ZM53.3635 129V122.64H54.4675V124.368L54.3595 123.936C54.5355 123.496 54.8315 123.16 55.2475 122.928C55.6635 122.696 56.1755 122.58 56.7835 122.58V123.696C56.7355 123.688 56.6875 123.684 56.6395 123.684C56.5995 123.684 56.5595 123.684 56.5195 123.684C55.9035 123.684 55.4155 123.868 55.0555 124.236C54.6955 124.604 54.5155 125.136 54.5155 125.832V129H53.3635ZM60.9767 129.072C60.2967 129.072 59.6967 128.932 59.1767 128.652C58.6647 128.372 58.2647 127.988 57.9767 127.5C57.6967 127.012 57.5567 126.452 57.5567 125.82C57.5567 125.188 57.6927 124.628 57.9647 124.14C58.2447 123.652 58.6247 123.272 59.1047 123C59.5927 122.72 60.1407 122.58 60.7487 122.58C61.3647 122.58 61.9087 122.716 62.3807 122.988C62.8527 123.26 63.2207 123.644 63.4847 124.14C63.7567 124.628 63.8927 125.2 63.8927 125.856C63.8927 125.904 63.8887 125.96 63.8807 126.024C63.8807 126.088 63.8767 126.148 63.8687 126.204H58.4567V125.376H63.2687L62.8007 125.664C62.8087 125.256 62.7247 124.892 62.5487 124.572C62.3727 124.252 62.1287 124.004 61.8167 123.828C61.5127 123.644 61.1567 123.552 60.7487 123.552C60.3487 123.552 59.9927 123.644 59.6807 123.828C59.3687 124.004 59.1247 124.256 58.9487 124.584C58.7727 124.904 58.6847 125.272 58.6847 125.688V125.88C58.6847 126.304 58.7807 126.684 58.9727 127.02C59.1727 127.348 59.4487 127.604 59.8007 127.788C60.1527 127.972 60.5567 128.064 61.0127 128.064C61.3887 128.064 61.7287 128 62.0327 127.872C62.3447 127.744 62.6167 127.552 62.8487 127.296L63.4847 128.04C63.1967 128.376 62.8367 128.632 62.4047 128.808C61.9807 128.984 61.5047 129.072 60.9767 129.072ZM71.439 129.072C70.799 129.072 70.231 128.932 69.735 128.652C69.239 128.372 68.847 127.988 68.559 127.5C68.271 127.004 68.127 126.444 68.127 125.82C68.127 125.188 68.271 124.628 68.559 124.14C68.847 123.652 69.239 123.272 69.735 123C70.231 122.72 70.799 122.58 71.439 122.58C72.071 122.58 72.635 122.72 73.131 123C73.635 123.272 74.027 123.652 74.307 124.14C74.595 124.62 74.739 125.18 74.739 125.82C74.739 126.452 74.595 127.012 74.307 127.5C74.027 127.988 73.635 128.372 73.131 128.652C72.635 128.932 72.071 129.072 71.439 129.072ZM71.439 128.064C71.847 128.064 72.211 127.972 72.531 127.788C72.859 127.604 73.115 127.344 73.299 127.008C73.483 126.664 73.575 126.268 73.575 125.82C73.575 125.364 73.483 124.972 73.299 124.644C73.115 124.308 72.859 124.048 72.531 123.864C72.211 123.68 71.847 123.588 71.439 123.588C71.031 123.588 70.667 123.68 70.347 123.864C70.027 124.048 69.771 124.308 69.579 124.644C69.387 124.972 69.291 125.364 69.291 125.82C69.291 126.268 69.387 126.664 69.579 127.008C69.771 127.344 70.027 127.604 70.347 127.788C70.667 127.972 71.031 128.064 71.439 128.064ZM78.1562 129.072C77.6282 129.072 77.1242 129 76.6442 128.856C76.1722 128.712 75.8002 128.536 75.5282 128.328L76.0082 127.416C76.2802 127.6 76.6162 127.756 77.0162 127.884C77.4162 128.012 77.8242 128.076 78.2402 128.076C78.7762 128.076 79.1602 128 79.3922 127.848C79.6322 127.696 79.7522 127.484 79.7522 127.212C79.7522 127.012 79.6802 126.856 79.5362 126.744C79.3922 126.632 79.2002 126.548 78.9602 126.492C78.7282 126.436 78.4682 126.388 78.1802 126.348C77.8922 126.3 77.6042 126.244 77.3162 126.18C77.0282 126.108 76.7642 126.012 76.5242 125.892C76.2842 125.764 76.0922 125.592 75.9482 125.376C75.8042 125.152 75.7322 124.856 75.7322 124.488C75.7322 124.104 75.8402 123.768 76.0562 123.48C76.2722 123.192 76.5762 122.972 76.9682 122.82C77.3682 122.66 77.8402 122.58 78.3842 122.58C78.8002 122.58 79.2202 122.632 79.6442 122.736C80.0762 122.832 80.4282 122.972 80.7002 123.156L80.2082 124.068C79.9202 123.876 79.6202 123.744 79.3082 123.672C78.9962 123.6 78.6842 123.564 78.3722 123.564C77.8682 123.564 77.4922 123.648 77.2442 123.816C76.9962 123.976 76.8722 124.184 76.8722 124.44C76.8722 124.656 76.9442 124.824 77.0882 124.944C77.2402 125.056 77.4322 125.144 77.6642 125.208C77.9042 125.272 78.1682 125.328 78.4562 125.376C78.7442 125.416 79.0322 125.472 79.3202 125.544C79.6082 125.608 79.8682 125.7 80.1002 125.82C80.3402 125.94 80.5322 126.108 80.6762 126.324C80.8282 126.54 80.9042 126.828 80.9042 127.188C80.9042 127.572 80.7922 127.904 80.5682 128.184C80.3442 128.464 80.0282 128.684 79.6202 128.844C79.2122 128.996 78.7242 129.072 78.1562 129.072ZM88.1946 129.072C87.5786 129.072 87.0266 128.936 86.5386 128.664C86.0586 128.392 85.6786 128.012 85.3986 127.524C85.1186 127.036 84.9786 126.468 84.9786 125.82C84.9786 125.172 85.1186 124.608 85.3986 124.128C85.6786 123.64 86.0586 123.26 86.5386 122.988C87.0266 122.716 87.5786 122.58 88.1946 122.58C88.7306 122.58 89.2146 122.7 89.6466 122.94C90.0786 123.18 90.4226 123.54 90.6786 124.02C90.9426 124.5 91.0746 125.1 91.0746 125.82C91.0746 126.54 90.9466 127.14 90.6906 127.62C90.4426 128.1 90.1026 128.464 89.6706 128.712C89.2386 128.952 88.7466 129.072 88.1946 129.072ZM88.2906 128.064C88.6906 128.064 89.0506 127.972 89.3706 127.788C89.6986 127.604 89.9546 127.344 90.1386 127.008C90.3306 126.664 90.4266 126.268 90.4266 125.82C90.4266 125.364 90.3306 124.972 90.1386 124.644C89.9546 124.308 89.6986 124.048 89.3706 123.864C89.0506 123.68 88.6906 123.588 88.2906 123.588C87.8826 123.588 87.5186 123.68 87.1986 123.864C86.8786 124.048 86.6226 124.308 86.4306 124.644C86.2386 124.972 86.1426 125.364 86.1426 125.82C86.1426 126.268 86.2386 126.664 86.4306 127.008C86.6226 127.344 86.8786 127.604 87.1986 127.788C87.5186 127.972 87.8826 128.064 88.2906 128.064ZM90.4626 129V127.284L90.5346 125.808L90.4146 124.332V120.096H91.5666V129H90.4626ZM96.4703 129.072C95.8303 129.072 95.2623 128.932 94.7663 128.652C94.2703 128.372 93.8783 127.988 93.5903 127.5C93.3023 127.004 93.1583 126.444 93.1583 125.82C93.1583 125.188 93.3023 124.628 93.5903 124.14C93.8783 123.652 94.2703 123.272 94.7663 123C95.2623 122.72 95.8303 122.58 96.4703 122.58C97.1023 122.58 97.6663 122.72 98.1623 123C98.6663 123.272 99.0583 123.652 99.3383 124.14C99.6263 124.62 99.7703 125.18 99.7703 125.82C99.7703 126.452 99.6263 127.012 99.3383 127.5C99.0583 127.988 98.6663 128.372 98.1623 128.652C97.6663 128.932 97.1023 129.072 96.4703 129.072ZM96.4703 128.064C96.8783 128.064 97.2423 127.972 97.5623 127.788C97.8903 127.604 98.1463 127.344 98.3303 127.008C98.5143 126.664 98.6063 126.268 98.6063 125.82C98.6063 125.364 98.5143 124.972 98.3303 124.644C98.1463 124.308 97.8903 124.048 97.5623 123.864C97.2423 123.68 96.8783 123.588 96.4703 123.588C96.0623 123.588 95.6983 123.68 95.3783 123.864C95.0583 124.048 94.8023 124.308 94.6103 124.644C94.4183 124.972 94.3223 125.364 94.3223 125.82C94.3223 126.268 94.4183 126.664 94.6103 127.008C94.8023 127.344 95.0583 127.604 95.3783 127.788C95.6983 127.972 96.0623 128.064 96.4703 128.064ZM101.363 129V122.64H102.515V129H101.363ZM101.939 121.416C101.715 121.416 101.527 121.344 101.375 121.2C101.231 121.056 101.159 120.88 101.159 120.672C101.159 120.456 101.231 120.276 101.375 120.132C101.527 119.988 101.715 119.916 101.939 119.916C102.163 119.916 102.347 119.988 102.491 120.132C102.643 120.268 102.719 120.44 102.719 120.648C102.719 120.864 102.647 121.048 102.503 121.2C102.359 121.344 102.171 121.416 101.939 121.416ZM106.539 129.072C106.011 129.072 105.507 129 105.027 128.856C104.555 128.712 104.183 128.536 103.911 128.328L104.391 127.416C104.663 127.6 104.999 127.756 105.399 127.884C105.799 128.012 106.207 128.076 106.623 128.076C107.159 128.076 107.543 128 107.775 127.848C108.015 127.696 108.135 127.484 108.135 127.212C108.135 127.012 108.063 126.856 107.919 126.744C107.775 126.632 107.583 126.548 107.343 126.492C107.111 126.436 106.851 126.388 106.563 126.348C106.275 126.3 105.987 126.244 105.699 126.18C105.411 126.108 105.147 126.012 104.907 125.892C104.667 125.764 104.475 125.592 104.331 125.376C104.187 125.152 104.115 124.856 104.115 124.488C104.115 124.104 104.223 123.768 104.439 123.48C104.655 123.192 104.959 122.972 105.351 122.82C105.751 122.66 106.223 122.58 106.767 122.58C107.183 122.58 107.603 122.632 108.027 122.736C108.459 122.832 108.811 122.972 109.083 123.156L108.591 124.068C108.303 123.876 108.003 123.744 107.691 123.672C107.379 123.6 107.067 123.564 106.755 123.564C106.251 123.564 105.875 123.648 105.627 123.816C105.379 123.976 105.255 124.184 105.255 124.44C105.255 124.656 105.327 124.824 105.471 124.944C105.623 125.056 105.815 125.144 106.047 125.208C106.287 125.272 106.551 125.328 106.839 125.376C107.127 125.416 107.415 125.472 107.703 125.544C107.991 125.608 108.251 125.7 108.483 125.82C108.723 125.94 108.915 126.108 109.059 126.324C109.211 126.54 109.287 126.828 109.287 127.188C109.287 127.572 109.175 127.904 108.951 128.184C108.727 128.464 108.411 128.684 108.003 128.844C107.595 128.996 107.107 129.072 106.539 129.072ZM116.721 129.072C116.073 129.072 115.493 128.932 114.981 128.652C114.477 128.372 114.081 127.988 113.793 127.5C113.505 127.012 113.361 126.452 113.361 125.82C113.361 125.188 113.505 124.628 113.793 124.14C114.081 123.652 114.477 123.272 114.981 123C115.493 122.72 116.073 122.58 116.721 122.58C117.297 122.58 117.809 122.696 118.257 122.928C118.713 123.152 119.065 123.488 119.313 123.936L118.437 124.5C118.229 124.188 117.973 123.96 117.669 123.816C117.373 123.664 117.053 123.588 116.709 123.588C116.293 123.588 115.921 123.68 115.593 123.864C115.265 124.048 115.005 124.308 114.813 124.644C114.621 124.972 114.525 125.364 114.525 125.82C114.525 126.276 114.621 126.672 114.813 127.008C115.005 127.344 115.265 127.604 115.593 127.788C115.921 127.972 116.293 128.064 116.709 128.064C117.053 128.064 117.373 127.992 117.669 127.848C117.973 127.696 118.229 127.464 118.437 127.152L119.313 127.704C119.065 128.144 118.713 128.484 118.257 128.724C117.809 128.956 117.297 129.072 116.721 129.072ZM124.753 129V127.656L124.693 127.404V125.112C124.693 124.624 124.549 124.248 124.261 123.984C123.981 123.712 123.557 123.576 122.989 123.576C122.613 123.576 122.245 123.64 121.885 123.768C121.525 123.888 121.221 124.052 120.973 124.26L120.493 123.396C120.821 123.132 121.213 122.932 121.669 122.796C122.133 122.652 122.617 122.58 123.121 122.58C123.993 122.58 124.665 122.792 125.137 123.216C125.609 123.64 125.845 124.288 125.845 125.16V129H124.753ZM122.665 129.072C122.193 129.072 121.777 128.992 121.417 128.832C121.065 128.672 120.793 128.452 120.601 128.172C120.409 127.884 120.313 127.56 120.313 127.2C120.313 126.856 120.393 126.544 120.553 126.264C120.721 125.984 120.989 125.76 121.357 125.592C121.733 125.424 122.237 125.34 122.869 125.34H124.885V126.168H122.917C122.341 126.168 121.953 126.264 121.753 126.456C121.553 126.648 121.453 126.88 121.453 127.152C121.453 127.464 121.577 127.716 121.825 127.908C122.073 128.092 122.417 128.184 122.857 128.184C123.289 128.184 123.665 128.088 123.985 127.896C124.313 127.704 124.549 127.424 124.693 127.056L124.921 127.848C124.769 128.224 124.501 128.524 124.117 128.748C123.733 128.964 123.249 129.072 122.665 129.072ZM131.373 122.58C131.893 122.58 132.349 122.68 132.741 122.88C133.141 123.08 133.453 123.384 133.677 123.792C133.901 124.2 134.013 124.716 134.013 125.34V129H132.861V125.472C132.861 124.856 132.709 124.392 132.405 124.08C132.109 123.768 131.689 123.612 131.145 123.612C130.737 123.612 130.381 123.692 130.077 123.852C129.773 124.012 129.537 124.248 129.369 124.56C129.209 124.872 129.129 125.26 129.129 125.724V129H127.977V122.64H129.081V124.356L128.901 123.9C129.109 123.484 129.429 123.16 129.861 122.928C130.293 122.696 130.797 122.58 131.373 122.58ZM138.329 129.072C137.689 129.072 137.193 128.9 136.841 128.556C136.489 128.212 136.313 127.72 136.313 127.08V121.248H137.465V127.032C137.465 127.376 137.549 127.64 137.717 127.824C137.893 128.008 138.141 128.1 138.461 128.1C138.821 128.1 139.121 128 139.361 127.8L139.721 128.628C139.545 128.78 139.333 128.892 139.085 128.964C138.845 129.036 138.593 129.072 138.329 129.072ZM135.233 123.588V122.64H139.289V123.588H135.233ZM143.627 129.072C142.987 129.072 142.419 128.932 141.923 128.652C141.427 128.372 141.035 127.988 140.747 127.5C140.459 127.004 140.315 126.444 140.315 125.82C140.315 125.188 140.459 124.628 140.747 124.14C141.035 123.652 141.427 123.272 141.923 123C142.419 122.72 142.987 122.58 143.627 122.58C144.259 122.58 144.823 122.72 145.319 123C145.823 123.272 146.215 123.652 146.495 124.14C146.783 124.62 146.927 125.18 146.927 125.82C146.927 126.452 146.783 127.012 146.495 127.5C146.215 127.988 145.823 128.372 145.319 128.652C144.823 128.932 144.259 129.072 143.627 129.072ZM143.627 128.064C144.035 128.064 144.399 127.972 144.719 127.788C145.047 127.604 145.303 127.344 145.487 127.008C145.671 126.664 145.763 126.268 145.763 125.82C145.763 125.364 145.671 124.972 145.487 124.644C145.303 124.308 145.047 124.048 144.719 123.864C144.399 123.68 144.035 123.588 143.627 123.588C143.219 123.588 142.855 123.68 142.535 123.864C142.215 124.048 141.959 124.308 141.767 124.644C141.575 124.972 141.479 125.364 141.479 125.82C141.479 126.268 141.575 126.664 141.767 127.008C141.959 127.344 142.215 127.604 142.535 127.788C142.855 127.972 143.219 128.064 143.627 128.064ZM150.344 129.072C149.816 129.072 149.312 129 148.832 128.856C148.36 128.712 147.988 128.536 147.716 128.328L148.196 127.416C148.468 127.6 148.804 127.756 149.204 127.884C149.604 128.012 150.012 128.076 150.428 128.076C150.964 128.076 151.348 128 151.58 127.848C151.82 127.696 151.94 127.484 151.94 127.212C151.94 127.012 151.868 126.856 151.724 126.744C151.58 126.632 151.388 126.548 151.148 126.492C150.916 126.436 150.656 126.388 150.368 126.348C150.08 126.3 149.792 126.244 149.504 126.18C149.216 126.108 148.952 126.012 148.712 125.892C148.472 125.764 148.28 125.592 148.136 125.376C147.992 125.152 147.92 124.856 147.92 124.488C147.92 124.104 148.028 123.768 148.244 123.48C148.46 123.192 148.764 122.972 149.156 122.82C149.556 122.66 150.028 122.58 150.572 122.58C150.988 122.58 151.408 122.632 151.832 122.736C152.264 122.832 152.616 122.972 152.888 123.156L152.396 124.068C152.108 123.876 151.808 123.744 151.496 123.672C151.184 123.6 150.872 123.564 150.56 123.564C150.056 123.564 149.68 123.648 149.432 123.816C149.184 123.976 149.06 124.184 149.06 124.44C149.06 124.656 149.132 124.824 149.276 124.944C149.428 125.056 149.62 125.144 149.852 125.208C150.092 125.272 150.356 125.328 150.644 125.376C150.932 125.416 151.22 125.472 151.508 125.544C151.796 125.608 152.056 125.7 152.288 125.82C152.528 125.94 152.72 126.108 152.864 126.324C153.016 126.54 153.092 126.828 153.092 127.188C153.092 127.572 152.98 127.904 152.756 128.184C152.532 128.464 152.216 128.684 151.808 128.844C151.4 128.996 150.912 129.072 150.344 129.072ZM24.3537 144V137.64H25.5057V144H24.3537ZM24.9297 136.416C24.7057 136.416 24.5177 136.344 24.3657 136.2C24.2217 136.056 24.1497 135.88 24.1497 135.672C24.1497 135.456 24.2217 135.276 24.3657 135.132C24.5177 134.988 24.7057 134.916 24.9297 134.916C25.1537 134.916 25.3377 134.988 25.4817 135.132C25.6337 135.268 25.7097 135.44 25.7097 135.648C25.7097 135.864 25.6377 136.048 25.4937 136.2C25.3497 136.344 25.1617 136.416 24.9297 136.416ZM31.1013 137.58C31.6213 137.58 32.0773 137.68 32.4693 137.88C32.8693 138.08 33.1813 138.384 33.4053 138.792C33.6293 139.2 33.7413 139.716 33.7413 140.34V144H32.5893V140.472C32.5893 139.856 32.4373 139.392 32.1333 139.08C31.8373 138.768 31.4173 138.612 30.8733 138.612C30.4653 138.612 30.1093 138.692 29.8053 138.852C29.5013 139.012 29.2653 139.248 29.0973 139.56C28.9373 139.872 28.8573 140.26 28.8573 140.724V144H27.7053V137.64H28.8093V139.356L28.6293 138.9C28.8373 138.484 29.1573 138.16 29.5893 137.928C30.0213 137.696 30.5253 137.58 31.1013 137.58ZM38.5013 144.072C37.8853 144.072 37.3333 143.936 36.8453 143.664C36.3653 143.392 35.9853 143.012 35.7053 142.524C35.4253 142.036 35.2853 141.468 35.2853 140.82C35.2853 140.172 35.4253 139.608 35.7053 139.128C35.9853 138.64 36.3653 138.26 36.8453 137.988C37.3333 137.716 37.8853 137.58 38.5013 137.58C39.0373 137.58 39.5213 137.7 39.9533 137.94C40.3853 138.18 40.7293 138.54 40.9853 139.02C41.2493 139.5 41.3813 140.1 41.3813 140.82C41.3813 141.54 41.2533 142.14 40.9973 142.62C40.7493 143.1 40.4093 143.464 39.9773 143.712C39.5453 143.952 39.0533 144.072 38.5013 144.072ZM38.5973 143.064C38.9973 143.064 39.3573 142.972 39.6773 142.788C40.0053 142.604 40.2613 142.344 40.4453 142.008C40.6373 141.664 40.7333 141.268 40.7333 140.82C40.7333 140.364 40.6373 139.972 40.4453 139.644C40.2613 139.308 40.0053 139.048 39.6773 138.864C39.3573 138.68 38.9973 138.588 38.5973 138.588C38.1893 138.588 37.8253 138.68 37.5053 138.864C37.1853 139.048 36.9293 139.308 36.7373 139.644C36.5453 139.972 36.4493 140.364 36.4493 140.82C36.4493 141.268 36.5453 141.664 36.7373 142.008C36.9293 142.344 37.1853 142.604 37.5053 142.788C37.8253 142.972 38.1893 143.064 38.5973 143.064ZM40.7693 144V142.284L40.8412 140.808L40.7213 139.332V135.096H41.8733V144H40.7693ZM44.0529 144V137.64H45.2049V144H44.0529ZM44.6289 136.416C44.4049 136.416 44.2169 136.344 44.0649 136.2C43.9209 136.056 43.8489 135.88 43.8489 135.672C43.8489 135.456 43.9209 135.276 44.0649 135.132C44.2169 134.988 44.4049 134.916 44.6289 134.916C44.8529 134.916 45.0369 134.988 45.1809 135.132C45.3329 135.268 45.4089 135.44 45.4089 135.648C45.4089 135.864 45.3369 136.048 45.1929 136.2C45.0489 136.344 44.8609 136.416 44.6289 136.416ZM50.1765 144.072C49.5285 144.072 48.9485 143.932 48.4365 143.652C47.9325 143.372 47.5365 142.988 47.2485 142.5C46.9605 142.012 46.8165 141.452 46.8165 140.82C46.8165 140.188 46.9605 139.628 47.2485 139.14C47.5365 138.652 47.9325 138.272 48.4365 138C48.9485 137.72 49.5285 137.58 50.1765 137.58C50.7525 137.58 51.2645 137.696 51.7125 137.928C52.1685 138.152 52.5205 138.488 52.7685 138.936L51.8925 139.5C51.6845 139.188 51.4285 138.96 51.1245 138.816C50.8285 138.664 50.5085 138.588 50.1645 138.588C49.7485 138.588 49.3765 138.68 49.0485 138.864C48.7205 139.048 48.4605 139.308 48.2685 139.644C48.0765 139.972 47.9805 140.364 47.9805 140.82C47.9805 141.276 48.0765 141.672 48.2685 142.008C48.4605 142.344 48.7205 142.604 49.0485 142.788C49.3765 142.972 49.7485 143.064 50.1645 143.064C50.5085 143.064 50.8285 142.992 51.1245 142.848C51.4285 142.696 51.6845 142.464 51.8925 142.152L52.7685 142.704C52.5205 143.144 52.1685 143.484 51.7125 143.724C51.2645 143.956 50.7525 144.072 50.1765 144.072ZM58.208 144V142.656L58.148 142.404V140.112C58.148 139.624 58.004 139.248 57.716 138.984C57.436 138.712 57.012 138.576 56.444 138.576C56.068 138.576 55.7 138.64 55.34 138.768C54.98 138.888 54.676 139.052 54.428 139.26L53.948 138.396C54.276 138.132 54.668 137.932 55.124 137.796C55.588 137.652 56.072 137.58 56.576 137.58C57.448 137.58 58.12 137.792 58.592 138.216C59.064 138.64 59.3 139.288 59.3 140.16V144H58.208ZM56.12 144.072C55.648 144.072 55.232 143.992 54.872 143.832C54.52 143.672 54.248 143.452 54.056 143.172C53.864 142.884 53.768 142.56 53.768 142.2C53.768 141.856 53.848 141.544 54.008 141.264C54.176 140.984 54.444 140.76 54.812 140.592C55.188 140.424 55.692 140.34 56.324 140.34H58.34V141.168H56.372C55.796 141.168 55.408 141.264 55.208 141.456C55.008 141.648 54.908 141.88 54.908 142.152C54.908 142.464 55.032 142.716 55.28 142.908C55.528 143.092 55.872 143.184 56.312 143.184C56.744 143.184 57.12 143.088 57.44 142.896C57.768 142.704 58.004 142.424 58.148 142.056L58.376 142.848C58.224 143.224 57.956 143.524 57.572 143.748C57.188 143.964 56.704 144.072 56.12 144.072ZM64.0598 144.072C63.4438 144.072 62.8918 143.936 62.4038 143.664C61.9238 143.392 61.5438 143.012 61.2638 142.524C60.9838 142.036 60.8438 141.468 60.8438 140.82C60.8438 140.172 60.9838 139.608 61.2638 139.128C61.5438 138.64 61.9238 138.26 62.4038 137.988C62.8918 137.716 63.4438 137.58 64.0598 137.58C64.5958 137.58 65.0798 137.7 65.5118 137.94C65.9438 138.18 66.2878 138.54 66.5438 139.02C66.8078 139.5 66.9398 140.1 66.9398 140.82C66.9398 141.54 66.8118 142.14 66.5558 142.62C66.3078 143.1 65.9678 143.464 65.5358 143.712C65.1038 143.952 64.6118 144.072 64.0598 144.072ZM64.1558 143.064C64.5558 143.064 64.9158 142.972 65.2358 142.788C65.5638 142.604 65.8198 142.344 66.0038 142.008C66.1958 141.664 66.2918 141.268 66.2918 140.82C66.2918 140.364 66.1958 139.972 66.0038 139.644C65.8198 139.308 65.5638 139.048 65.2358 138.864C64.9158 138.68 64.5558 138.588 64.1558 138.588C63.7478 138.588 63.3838 138.68 63.0638 138.864C62.7438 139.048 62.4878 139.308 62.2958 139.644C62.1038 139.972 62.0078 140.364 62.0078 140.82C62.0078 141.268 62.1038 141.664 62.2958 142.008C62.4878 142.344 62.7438 142.604 63.0638 142.788C63.3838 142.972 63.7478 143.064 64.1558 143.064ZM66.3278 144V142.284L66.3998 140.808L66.2798 139.332V135.096H67.4318V144H66.3278ZM72.3355 144.072C71.6955 144.072 71.1275 143.932 70.6315 143.652C70.1355 143.372 69.7435 142.988 69.4555 142.5C69.1675 142.004 69.0235 141.444 69.0235 140.82C69.0235 140.188 69.1675 139.628 69.4555 139.14C69.7435 138.652 70.1355 138.272 70.6315 138C71.1275 137.72 71.6955 137.58 72.3355 137.58C72.9675 137.58 73.5315 137.72 74.0275 138C74.5315 138.272 74.9235 138.652 75.2035 139.14C75.4915 139.62 75.6355 140.18 75.6355 140.82C75.6355 141.452 75.4915 142.012 75.2035 142.5C74.9235 142.988 74.5315 143.372 74.0275 143.652C73.5315 143.932 72.9675 144.072 72.3355 144.072ZM72.3355 143.064C72.7435 143.064 73.1075 142.972 73.4275 142.788C73.7555 142.604 74.0115 142.344 74.1955 142.008C74.3795 141.664 74.4715 141.268 74.4715 140.82C74.4715 140.364 74.3795 139.972 74.1955 139.644C74.0115 139.308 73.7555 139.048 73.4275 138.864C73.1075 138.68 72.7435 138.588 72.3355 138.588C71.9275 138.588 71.5635 138.68 71.2435 138.864C70.9235 139.048 70.6675 139.308 70.4755 139.644C70.2835 139.972 70.1875 140.364 70.1875 140.82C70.1875 141.268 70.2835 141.664 70.4755 142.008C70.6675 142.344 70.9235 142.604 71.2435 142.788C71.5635 142.972 71.9275 143.064 72.3355 143.064ZM79.0527 144.072C78.5247 144.072 78.0207 144 77.5407 143.856C77.0687 143.712 76.6967 143.536 76.4247 143.328L76.9047 142.416C77.1767 142.6 77.5127 142.756 77.9127 142.884C78.3127 143.012 78.7207 143.076 79.1367 143.076C79.6727 143.076 80.0567 143 80.2887 142.848C80.5287 142.696 80.6487 142.484 80.6487 142.212C80.6487 142.012 80.5767 141.856 80.4327 141.744C80.2887 141.632 80.0967 141.548 79.8567 141.492C79.6247 141.436 79.3647 141.388 79.0767 141.348C78.7887 141.3 78.5007 141.244 78.2127 141.18C77.9247 141.108 77.6607 141.012 77.4207 140.892C77.1807 140.764 76.9887 140.592 76.8447 140.376C76.7007 140.152 76.6287 139.856 76.6287 139.488C76.6287 139.104 76.7367 138.768 76.9527 138.48C77.1687 138.192 77.4727 137.972 77.8647 137.82C78.2647 137.66 78.7367 137.58 79.2807 137.58C79.6967 137.58 80.1167 137.632 80.5407 137.736C80.9727 137.832 81.3247 137.972 81.5967 138.156L81.1047 139.068C80.8167 138.876 80.5167 138.744 80.2047 138.672C79.8927 138.6 79.5807 138.564 79.2687 138.564C78.7647 138.564 78.3887 138.648 78.1407 138.816C77.8927 138.976 77.7687 139.184 77.7687 139.44C77.7687 139.656 77.8407 139.824 77.9847 139.944C78.1367 140.056 78.3287 140.144 78.5607 140.208C78.8007 140.272 79.0647 140.328 79.3527 140.376C79.6407 140.416 79.9287 140.472 80.2167 140.544C80.5047 140.608 80.7647 140.7 80.9967 140.82C81.2367 140.94 81.4287 141.108 81.5727 141.324C81.7247 141.54 81.8007 141.828 81.8007 142.188C81.8007 142.572 81.6887 142.904 81.4647 143.184C81.2407 143.464 80.9247 143.684 80.5167 143.844C80.1087 143.996 79.6207 144.072 79.0527 144.072ZM89.8591 137.58C90.3791 137.58 90.8351 137.68 91.2271 137.88C91.6271 138.08 91.9391 138.384 92.1631 138.792C92.3871 139.2 92.4991 139.716 92.4991 140.34V144H91.3471V140.472C91.3471 139.856 91.1951 139.392 90.8911 139.08C90.5951 138.768 90.1751 138.612 89.6311 138.612C89.2231 138.612 88.8671 138.692 88.5631 138.852C88.2591 139.012 88.0231 139.248 87.8551 139.56C87.6951 139.872 87.6151 140.26 87.6151 140.724V144H86.4631V137.64H87.5671V139.356L87.3871 138.9C87.5951 138.484 87.9151 138.16 88.3471 137.928C88.7791 137.696 89.2831 137.58 89.8591 137.58ZM97.3551 144.072C96.7151 144.072 96.1471 143.932 95.6511 143.652C95.1551 143.372 94.7631 142.988 94.4751 142.5C94.1871 142.004 94.0431 141.444 94.0431 140.82C94.0431 140.188 94.1871 139.628 94.4751 139.14C94.7631 138.652 95.1551 138.272 95.6511 138C96.1471 137.72 96.7151 137.58 97.3551 137.58C97.9871 137.58 98.5511 137.72 99.0471 138C99.5511 138.272 99.9431 138.652 100.223 139.14C100.511 139.62 100.655 140.18 100.655 140.82C100.655 141.452 100.511 142.012 100.223 142.5C99.9431 142.988 99.5511 143.372 99.0471 143.652C98.5511 143.932 97.9871 144.072 97.3551 144.072ZM97.3551 143.064C97.7631 143.064 98.1271 142.972 98.4471 142.788C98.7751 142.604 99.0311 142.344 99.2151 142.008C99.3991 141.664 99.4911 141.268 99.4911 140.82C99.4911 140.364 99.3991 139.972 99.2151 139.644C99.0311 139.308 98.7751 139.048 98.4471 138.864C98.1271 138.68 97.7631 138.588 97.3551 138.588C96.9471 138.588 96.5831 138.68 96.2631 138.864C95.9431 139.048 95.6871 139.308 95.4951 139.644C95.3031 139.972 95.2071 140.364 95.2071 140.82C95.2071 141.268 95.3031 141.664 95.4951 142.008C95.6871 142.344 95.9431 142.604 96.2631 142.788C96.5831 142.972 96.9471 143.064 97.3551 143.064ZM108.255 146.4C107.671 146.4 107.103 146.316 106.551 146.148C106.007 145.988 105.563 145.756 105.219 145.452L105.771 144.564C106.067 144.82 106.431 145.02 106.863 145.164C107.295 145.316 107.747 145.392 108.219 145.392C108.971 145.392 109.523 145.216 109.875 144.864C110.227 144.512 110.403 143.976 110.403 143.256V141.912L110.523 140.652L110.463 139.38V137.64H111.555V143.136C111.555 144.256 111.275 145.08 110.715 145.608C110.155 146.136 109.335 146.4 108.255 146.4ZM108.111 143.736C107.495 143.736 106.943 143.608 106.455 143.352C105.975 143.088 105.591 142.724 105.303 142.26C105.023 141.796 104.883 141.26 104.883 140.652C104.883 140.036 105.023 139.5 105.303 139.044C105.591 138.58 105.975 138.22 106.455 137.964C106.943 137.708 107.495 137.58 108.111 137.58C108.655 137.58 109.151 137.692 109.599 137.916C110.047 138.132 110.403 138.468 110.667 138.924C110.939 139.38 111.075 139.956 111.075 140.652C111.075 141.34 110.939 141.912 110.667 142.368C110.403 142.824 110.047 143.168 109.599 143.4C109.151 143.624 108.655 143.736 108.111 143.736ZM108.243 142.728C108.667 142.728 109.043 142.64 109.371 142.464C109.699 142.288 109.955 142.044 110.139 141.732C110.331 141.42 110.427 141.06 110.427 140.652C110.427 140.244 110.331 139.884 110.139 139.572C109.955 139.26 109.699 139.02 109.371 138.852C109.043 138.676 108.667 138.588 108.243 138.588C107.819 138.588 107.439 138.676 107.103 138.852C106.775 139.02 106.515 139.26 106.323 139.572C106.139 139.884 106.047 140.244 106.047 140.652C106.047 141.06 106.139 141.42 106.323 141.732C106.515 142.044 106.775 142.288 107.103 142.464C107.439 142.64 107.819 142.728 108.243 142.728ZM113.756 144V137.64H114.86V139.368L114.752 138.936C114.928 138.496 115.224 138.16 115.64 137.928C116.056 137.696 116.568 137.58 117.176 137.58V138.696C117.128 138.688 117.08 138.684 117.032 138.684C116.992 138.684 116.952 138.684 116.912 138.684C116.296 138.684 115.808 138.868 115.448 139.236C115.088 139.604 114.908 140.136 114.908 140.832V144H113.756ZM122.075 144V142.656L122.015 142.404V140.112C122.015 139.624 121.871 139.248 121.583 138.984C121.303 138.712 120.879 138.576 120.311 138.576C119.935 138.576 119.567 138.64 119.207 138.768C118.847 138.888 118.543 139.052 118.295 139.26L117.815 138.396C118.143 138.132 118.535 137.932 118.991 137.796C119.455 137.652 119.939 137.58 120.443 137.58C121.315 137.58 121.987 137.792 122.459 138.216C122.931 138.64 123.167 139.288 123.167 140.16V144H122.075ZM119.987 144.072C119.515 144.072 119.099 143.992 118.739 143.832C118.387 143.672 118.115 143.452 117.923 143.172C117.731 142.884 117.635 142.56 117.635 142.2C117.635 141.856 117.715 141.544 117.875 141.264C118.043 140.984 118.311 140.76 118.679 140.592C119.055 140.424 119.559 140.34 120.191 140.34H122.207V141.168H120.239C119.663 141.168 119.275 141.264 119.075 141.456C118.875 141.648 118.775 141.88 118.775 142.152C118.775 142.464 118.899 142.716 119.147 142.908C119.395 143.092 119.739 143.184 120.179 143.184C120.611 143.184 120.987 143.088 121.307 142.896C121.635 142.704 121.871 142.424 122.015 142.056L122.243 142.848C122.091 143.224 121.823 143.524 121.439 143.748C121.055 143.964 120.571 144.072 119.987 144.072ZM119.627 136.716L121.259 135.156H122.723L120.707 136.716H119.627ZM125.467 144V137.076C125.467 136.452 125.647 135.956 126.007 135.588C126.375 135.212 126.895 135.024 127.567 135.024C127.815 135.024 128.051 135.056 128.275 135.12C128.507 135.176 128.703 135.268 128.863 135.396L128.515 136.272C128.395 136.176 128.259 136.104 128.107 136.056C127.955 136 127.795 135.972 127.627 135.972C127.291 135.972 127.035 136.068 126.859 136.26C126.683 136.444 126.595 136.72 126.595 137.088V137.94L126.619 138.468V144H125.467ZM124.387 138.588V137.64H128.443V138.588H124.387ZM129.535 144V137.64H130.687V144H129.535ZM130.111 136.416C129.887 136.416 129.699 136.344 129.547 136.2C129.403 136.056 129.331 135.88 129.331 135.672C129.331 135.456 129.403 135.276 129.547 135.132C129.699 134.988 129.887 134.916 130.111 134.916C130.335 134.916 130.519 134.988 130.663 135.132C130.815 135.268 130.891 135.44 130.891 135.648C130.891 135.864 130.819 136.048 130.675 136.2C130.531 136.344 130.343 136.416 130.111 136.416ZM135.653 144.072C135.005 144.072 134.425 143.932 133.913 143.652C133.409 143.372 133.013 142.988 132.725 142.5C132.437 142.012 132.293 141.452 132.293 140.82C132.293 140.188 132.437 139.628 132.725 139.14C133.013 138.652 133.409 138.272 133.913 138C134.425 137.72 135.005 137.58 135.653 137.58C136.229 137.58 136.741 137.696 137.189 137.928C137.645 138.152 137.997 138.488 138.245 138.936L137.369 139.5C137.161 139.188 136.905 138.96 136.601 138.816C136.305 138.664 135.985 138.588 135.641 138.588C135.225 138.588 134.853 138.68 134.525 138.864C134.197 139.048 133.937 139.308 133.745 139.644C133.553 139.972 133.457 140.364 133.457 140.82C133.457 141.276 133.553 141.672 133.745 142.008C133.937 142.344 134.197 142.604 134.525 142.788C134.853 142.972 135.225 143.064 135.641 143.064C135.985 143.064 136.305 142.992 136.601 142.848C136.905 142.696 137.161 142.464 137.369 142.152L138.245 142.704C137.997 143.144 137.645 143.484 137.189 143.724C136.741 143.956 136.229 144.072 135.653 144.072ZM142.367 144.072C141.727 144.072 141.159 143.932 140.663 143.652C140.167 143.372 139.775 142.988 139.487 142.5C139.199 142.004 139.055 141.444 139.055 140.82C139.055 140.188 139.199 139.628 139.487 139.14C139.775 138.652 140.167 138.272 140.663 138C141.159 137.72 141.727 137.58 142.367 137.58C142.999 137.58 143.563 137.72 144.059 138C144.563 138.272 144.955 138.652 145.235 139.14C145.523 139.62 145.667 140.18 145.667 140.82C145.667 141.452 145.523 142.012 145.235 142.5C144.955 142.988 144.563 143.372 144.059 143.652C143.563 143.932 142.999 144.072 142.367 144.072ZM142.367 143.064C142.775 143.064 143.139 142.972 143.459 142.788C143.787 142.604 144.043 142.344 144.227 142.008C144.411 141.664 144.503 141.268 144.503 140.82C144.503 140.364 144.411 139.972 144.227 139.644C144.043 139.308 143.787 139.048 143.459 138.864C143.139 138.68 142.775 138.588 142.367 138.588C141.959 138.588 141.595 138.68 141.275 138.864C140.955 139.048 140.699 139.308 140.507 139.644C140.315 139.972 140.219 140.364 140.219 140.82C140.219 141.268 140.315 141.664 140.507 142.008C140.699 142.344 140.955 142.604 141.275 142.788C141.595 142.972 141.959 143.064 142.367 143.064ZM153.315 144.072C152.635 144.072 152.035 143.932 151.515 143.652C151.003 143.372 150.603 142.988 150.315 142.5C150.035 142.012 149.895 141.452 149.895 140.82C149.895 140.188 150.031 139.628 150.303 139.14C150.583 138.652 150.963 138.272 151.443 138C151.931 137.72 152.479 137.58 153.087 137.58C153.703 137.58 154.247 137.716 154.719 137.988C155.191 138.26 155.559 138.644 155.823 139.14C156.095 139.628 156.231 140.2 156.231 140.856C156.231 140.904 156.227 140.96 156.219 141.024C156.219 141.088 156.215 141.148 156.207 141.204H150.795V140.376H155.607L155.139 140.664C155.147 140.256 155.063 139.892 154.887 139.572C154.711 139.252 154.467 139.004 154.155 138.828C153.851 138.644 153.495 138.552 153.087 138.552C152.687 138.552 152.331 138.644 152.019 138.828C151.707 139.004 151.463 139.256 151.287 139.584C151.111 139.904 151.023 140.272 151.023 140.688V140.88C151.023 141.304 151.119 141.684 151.311 142.02C151.511 142.348 151.787 142.604 152.139 142.788C152.491 142.972 152.895 143.064 153.351 143.064C153.727 143.064 154.067 143 154.371 142.872C154.683 142.744 154.955 142.552 155.187 142.296L155.823 143.04C155.535 143.376 155.175 143.632 154.743 143.808C154.319 143.984 153.843 144.072 153.315 144.072ZM56.0596 161.4C55.4756 161.4 54.9076 161.316 54.3556 161.148C53.8116 160.988 53.3676 160.756 53.0236 160.452L53.5756 159.564C53.8716 159.82 54.2356 160.02 54.6676 160.164C55.0996 160.316 55.5516 160.392 56.0236 160.392C56.7756 160.392 57.3276 160.216 57.6796 159.864C58.0316 159.512 58.2076 158.976 58.2076 158.256V156.912L58.3276 155.652L58.2676 154.38V152.64H59.3596V158.136C59.3596 159.256 59.0796 160.08 58.5196 160.608C57.9596 161.136 57.1396 161.4 56.0596 161.4ZM55.9156 158.736C55.2996 158.736 54.7476 158.608 54.2596 158.352C53.7796 158.088 53.3956 157.724 53.1076 157.26C52.8276 156.796 52.6876 156.26 52.6876 155.652C52.6876 155.036 52.8276 154.5 53.1076 154.044C53.3956 153.58 53.7796 153.22 54.2596 152.964C54.7476 152.708 55.2996 152.58 55.9156 152.58C56.4596 152.58 56.9556 152.692 57.4036 152.916C57.8516 153.132 58.2076 153.468 58.4716 153.924C58.7436 154.38 58.8796 154.956 58.8796 155.652C58.8796 156.34 58.7436 156.912 58.4716 157.368C58.2076 157.824 57.8516 158.168 57.4036 158.4C56.9556 158.624 56.4596 158.736 55.9156 158.736ZM56.0476 157.728C56.4716 157.728 56.8476 157.64 57.1756 157.464C57.5036 157.288 57.7596 157.044 57.9436 156.732C58.1356 156.42 58.2316 156.06 58.2316 155.652C58.2316 155.244 58.1356 154.884 57.9436 154.572C57.7596 154.26 57.5036 154.02 57.1756 153.852C56.8476 153.676 56.4716 153.588 56.0476 153.588C55.6236 153.588 55.2436 153.676 54.9076 153.852C54.5796 154.02 54.3196 154.26 54.1276 154.572C53.9436 154.884 53.8516 155.244 53.8516 155.652C53.8516 156.06 53.9436 156.42 54.1276 156.732C54.3196 157.044 54.5796 157.288 54.9076 157.464C55.2436 157.64 55.6236 157.728 56.0476 157.728ZM61.5608 159V152.64H62.7128V159H61.5608ZM62.1368 151.416C61.9128 151.416 61.7248 151.344 61.5728 151.2C61.4288 151.056 61.3568 150.88 61.3568 150.672C61.3568 150.456 61.4288 150.276 61.5728 150.132C61.7248 149.988 61.9128 149.916 62.1368 149.916C62.3608 149.916 62.5448 149.988 62.6888 150.132C62.8408 150.268 62.9168 150.44 62.9168 150.648C62.9168 150.864 62.8448 151.048 62.7008 151.2C62.5568 151.344 62.3688 151.416 62.1368 151.416ZM64.9123 159V152.64H66.0163V154.368L65.9083 153.936C66.0843 153.496 66.3803 153.16 66.7963 152.928C67.2123 152.696 67.7243 152.58 68.3323 152.58V153.696C68.2843 153.688 68.2363 153.684 68.1883 153.684C68.1483 153.684 68.1083 153.684 68.0683 153.684C67.4523 153.684 66.9643 153.868 66.6043 154.236C66.2443 154.604 66.0643 155.136 66.0643 155.832V159H64.9123ZM72.5256 159.072C71.8456 159.072 71.2456 158.932 70.7256 158.652C70.2136 158.372 69.8136 157.988 69.5256 157.5C69.2456 157.012 69.1056 156.452 69.1056 155.82C69.1056 155.188 69.2416 154.628 69.5136 154.14C69.7936 153.652 70.1736 153.272 70.6536 153C71.1416 152.72 71.6896 152.58 72.2976 152.58C72.9136 152.58 73.4576 152.716 73.9296 152.988C74.4016 153.26 74.7696 153.644 75.0336 154.14C75.3056 154.628 75.4416 155.2 75.4416 155.856C75.4416 155.904 75.4376 155.96 75.4296 156.024C75.4296 156.088 75.4256 156.148 75.4176 156.204H70.0056V155.376H74.8176L74.3496 155.664C74.3576 155.256 74.2736 154.892 74.0976 154.572C73.9216 154.252 73.6776 154.004 73.3656 153.828C73.0616 153.644 72.7056 153.552 72.2976 153.552C71.8976 153.552 71.5416 153.644 71.2296 153.828C70.9176 154.004 70.6736 154.256 70.4976 154.584C70.3216 154.904 70.2336 155.272 70.2336 155.688V155.88C70.2336 156.304 70.3296 156.684 70.5216 157.02C70.7216 157.348 70.9976 157.604 71.3496 157.788C71.7016 157.972 72.1056 158.064 72.5616 158.064C72.9376 158.064 73.2776 158 73.5816 157.872C73.8936 157.744 74.1656 157.552 74.3976 157.296L75.0336 158.04C74.7456 158.376 74.3856 158.632 73.9536 158.808C73.5296 158.984 73.0536 159.072 72.5256 159.072ZM84.2119 159V157.656L84.1519 157.404V155.112C84.1519 154.624 84.0079 154.248 83.7199 153.984C83.4399 153.712 83.0159 153.576 82.4479 153.576C82.0719 153.576 81.7039 153.64 81.3439 153.768C80.9839 153.888 80.6799 154.052 80.4319 154.26L79.9519 153.396C80.2799 153.132 80.6719 152.932 81.1279 152.796C81.5919 152.652 82.0759 152.58 82.5799 152.58C83.4519 152.58 84.1239 152.792 84.5959 153.216C85.0679 153.64 85.3039 154.288 85.3039 155.16V159H84.2119ZM82.1239 159.072C81.6519 159.072 81.2359 158.992 80.8759 158.832C80.5239 158.672 80.2519 158.452 80.0599 158.172C79.8679 157.884 79.7719 157.56 79.7719 157.2C79.7719 156.856 79.8519 156.544 80.0119 156.264C80.1799 155.984 80.4479 155.76 80.8159 155.592C81.1919 155.424 81.6959 155.34 82.3279 155.34H84.3439V156.168H82.3759C81.7999 156.168 81.4119 156.264 81.2119 156.456C81.0119 156.648 80.9119 156.88 80.9119 157.152C80.9119 157.464 81.0359 157.716 81.2839 157.908C81.5319 158.092 81.8759 158.184 82.3159 158.184C82.7479 158.184 83.1239 158.088 83.4439 157.896C83.7719 157.704 84.0079 157.424 84.1519 157.056L84.3799 157.848C84.2279 158.224 83.9599 158.524 83.5759 158.748C83.1919 158.964 82.7079 159.072 82.1239 159.072ZM90.8264 159V152.076C90.8264 151.452 91.0064 150.956 91.3664 150.588C91.7344 150.212 92.2544 150.024 92.9264 150.024C93.1744 150.024 93.4104 150.056 93.6344 150.12C93.8664 150.176 94.0624 150.268 94.2224 150.396L93.8744 151.272C93.7544 151.176 93.6184 151.104 93.4664 151.056C93.3144 151 93.1544 150.972 92.9864 150.972C92.6504 150.972 92.3944 151.068 92.2184 151.26C92.0424 151.444 91.9544 151.72 91.9544 152.088V152.94L91.9784 153.468V159H90.8264ZM89.7464 153.588V152.64H93.8024V153.588H89.7464ZM94.8944 159V152.64H96.0464V159H94.8944ZM95.4704 151.416C95.2464 151.416 95.0584 151.344 94.9064 151.2C94.7624 151.056 94.6904 150.88 94.6904 150.672C94.6904 150.456 94.7624 150.276 94.9064 150.132C95.0584 149.988 95.2464 149.916 95.4704 149.916C95.6944 149.916 95.8784 149.988 96.0224 150.132C96.1744 150.268 96.2504 150.44 96.2504 150.648C96.2504 150.864 96.1784 151.048 96.0344 151.2C95.8904 151.344 95.7024 151.416 95.4704 151.416ZM101.024 161.4C100.44 161.4 99.8724 161.316 99.3204 161.148C98.7764 160.988 98.3324 160.756 97.9884 160.452L98.5404 159.564C98.8364 159.82 99.2004 160.02 99.6324 160.164C100.064 160.316 100.516 160.392 100.988 160.392C101.74 160.392 102.292 160.216 102.644 159.864C102.996 159.512 103.172 158.976 103.172 158.256V156.912L103.292 155.652L103.232 154.38V152.64H104.324V158.136C104.324 159.256 104.044 160.08 103.484 160.608C102.924 161.136 102.104 161.4 101.024 161.4ZM100.88 158.736C100.264 158.736 99.7124 158.608 99.2244 158.352C98.7444 158.088 98.3604 157.724 98.0724 157.26C97.7924 156.796 97.6524 156.26 97.6524 155.652C97.6524 155.036 97.7924 154.5 98.0724 154.044C98.3604 153.58 98.7444 153.22 99.2244 152.964C99.7124 152.708 100.264 152.58 100.88 152.58C101.424 152.58 101.92 152.692 102.368 152.916C102.816 153.132 103.172 153.468 103.436 153.924C103.708 154.38 103.844 154.956 103.844 155.652C103.844 156.34 103.708 156.912 103.436 157.368C103.172 157.824 102.816 158.168 102.368 158.4C101.92 158.624 101.424 158.736 100.88 158.736ZM101.012 157.728C101.436 157.728 101.812 157.64 102.14 157.464C102.468 157.288 102.724 157.044 102.908 156.732C103.1 156.42 103.196 156.06 103.196 155.652C103.196 155.244 103.1 154.884 102.908 154.572C102.724 154.26 102.468 154.02 102.14 153.852C101.812 153.676 101.436 153.588 101.012 153.588C100.588 153.588 100.208 153.676 99.8724 153.852C99.5444 154.02 99.2844 154.26 99.0924 154.572C98.9084 154.884 98.8164 155.244 98.8164 155.652C98.8164 156.06 98.9084 156.42 99.0924 156.732C99.2844 157.044 99.5444 157.288 99.8724 157.464C100.208 157.64 100.588 157.728 101.012 157.728ZM109.202 159.072C108.658 159.072 108.178 158.972 107.762 158.772C107.354 158.572 107.034 158.268 106.802 157.86C106.578 157.444 106.466 156.924 106.466 156.3V152.64H107.618V156.168C107.618 156.792 107.766 157.26 108.062 157.572C108.366 157.884 108.79 158.04 109.334 158.04C109.734 158.04 110.082 157.96 110.378 157.8C110.674 157.632 110.902 157.392 111.062 157.08C111.222 156.76 111.302 156.376 111.302 155.928V152.64H112.454V159H111.362V157.284L111.542 157.74C111.334 158.164 111.022 158.492 110.606 158.724C110.19 158.956 109.722 159.072 109.202 159.072ZM114.647 159V152.64H115.751V154.368L115.643 153.936C115.819 153.496 116.115 153.16 116.531 152.928C116.947 152.696 117.459 152.58 118.067 152.58V153.696C118.019 153.688 117.971 153.684 117.923 153.684C117.883 153.684 117.843 153.684 117.803 153.684C117.187 153.684 116.699 153.868 116.339 154.236C115.979 154.604 115.799 155.136 115.799 155.832V159H114.647ZM122.966 159V157.656L122.906 157.404V155.112C122.906 154.624 122.762 154.248 122.474 153.984C122.194 153.712 121.77 153.576 121.202 153.576C120.826 153.576 120.458 153.64 120.098 153.768C119.738 153.888 119.434 154.052 119.186 154.26L118.706 153.396C119.034 153.132 119.426 152.932 119.882 152.796C120.346 152.652 120.83 152.58 121.334 152.58C122.206 152.58 122.878 152.792 123.35 153.216C123.822 153.64 124.058 154.288 124.058 155.16V159H122.966ZM120.878 159.072C120.406 159.072 119.99 158.992 119.63 158.832C119.278 158.672 119.006 158.452 118.814 158.172C118.622 157.884 118.526 157.56 118.526 157.2C118.526 156.856 118.606 156.544 118.766 156.264C118.934 155.984 119.202 155.76 119.57 155.592C119.946 155.424 120.45 155.34 121.082 155.34H123.098V156.168H121.13C120.554 156.168 120.166 156.264 119.966 156.456C119.766 156.648 119.666 156.88 119.666 157.152C119.666 157.464 119.79 157.716 120.038 157.908C120.286 158.092 120.63 158.184 121.07 158.184C121.502 158.184 121.878 158.088 122.198 157.896C122.526 157.704 122.762 157.424 122.906 157.056L123.134 157.848C122.982 158.224 122.714 158.524 122.33 158.748C121.946 158.964 121.462 159.072 120.878 159.072ZM126.466 159.072C126.242 159.072 126.05 158.996 125.89 158.844C125.73 158.684 125.65 158.484 125.65 158.244C125.65 158.004 125.73 157.808 125.89 157.656C126.05 157.504 126.242 157.428 126.466 157.428C126.682 157.428 126.866 157.504 127.018 157.656C127.178 157.808 127.258 158.004 127.258 158.244C127.258 158.484 127.178 158.684 127.018 158.844C126.866 158.996 126.682 159.072 126.466 159.072Z" fill="#008E86"/>
<path d="M44 66L72.5 37.5L134 66L57 77.7586L44 66Z" fill="#00D8CC" stroke="#00635D" stroke-width="2" stroke-linejoin="round"/>
<path d="M133.371 65.7578L72.5 65.7578L72.5 37.7578L133.371 65.7578Z" fill="#008E86" stroke="#00635D" stroke-width="2" stroke-linejoin="round"/>
<path d="M126.315 28.7256C125.763 28.7255 125.315 29.1733 125.315 29.7255L125.315 38.7255C125.315 39.2778 125.763 39.7255 126.315 39.7256C126.868 39.7256 127.315 39.2779 127.315 38.7256L127.315 30.7256L135.315 30.7257C135.868 30.7257 136.315 30.278 136.315 29.7257C136.315 29.1734 135.868 28.7257 135.315 28.7257L126.315 28.7256ZM121.359 50.6284L121.359 49.6284H121.359L121.359 50.6284ZM106.55 43.241C106.16 42.8505 105.527 42.8505 105.136 43.241C104.746 43.6315 104.746 44.2647 105.136 44.6552L106.55 43.241ZM125.608 30.4327C130.439 35.2632 130.982 40.0809 129.612 43.6135C128.211 47.226 124.786 49.6284 121.359 49.6284L121.359 51.6284C125.689 51.6284 129.806 48.6436 131.477 44.3366C133.178 39.9498 132.32 34.3161 127.023 29.0185L125.608 30.4327ZM121.359 49.6284C118.755 49.6284 116.789 48.427 115.378 46.5578C113.946 44.6613 113.095 42.0775 112.842 39.4353C112.589 36.7901 112.947 34.2008 113.809 32.3172C114.671 30.4368 115.932 29.4326 117.48 29.4326L117.48 27.4326C114.858 27.4326 113.036 29.2029 111.991 31.4842C110.948 33.7623 110.574 36.722 110.851 39.6257C111.129 42.5325 112.071 45.4977 113.781 47.7628C115.512 50.0554 118.036 51.6284 121.359 51.6284L121.359 49.6284ZM117.48 29.4326C118.616 29.4326 119.436 29.8059 120.036 30.3956C120.654 31.0042 121.105 31.9102 121.346 33.0623C121.833 35.381 121.416 38.4387 120.226 41.1178C119.03 43.8095 117.158 45.896 114.928 46.5663C112.782 47.2115 109.951 46.6412 106.55 43.241L105.136 44.6552C108.847 48.3664 112.408 49.4122 115.504 48.4816C118.516 47.5762 120.737 44.8948 122.054 41.9298C123.377 38.9523 123.894 35.4643 123.304 32.6516C123.007 31.238 122.416 29.9318 121.438 28.9697C120.441 27.9886 119.107 27.4326 117.48 27.4326L117.48 29.4326Z" fill="black"/>
<path d="M88 44.7578H65" stroke="#333333" stroke-width="2" stroke-dasharray="4 4"/>
<path d="M53 74.7578L53 56.7578" stroke="#333333" stroke-width="2" stroke-dasharray="4 4"/>
<path opacity="0.25" d="M134.012 66H44.0117" stroke="#333333" stroke-width="2"/>
<path opacity="0.25" d="M134 65.7578H44" stroke="#333333" stroke-width="2"/>
<path d="M88.6788 33.0243C88.2737 32.6489 87.641 32.673 87.2656 33.0781C86.8902 33.4832 86.9143 34.1159 87.3194 34.4913L88.6788 33.0243ZM86.9998 56.3361C86.9788 56.888 87.4092 57.3524 87.9611 57.3734L96.9546 57.7157C97.5065 57.7367 97.9709 57.3063 97.9919 56.7544C98.0129 56.2025 97.5825 55.7381 97.0306 55.7171L89.0364 55.4129L89.3406 47.4187C89.3616 46.8668 88.9313 46.4024 88.3794 46.3814C87.8275 46.3604 87.3631 46.7907 87.3421 47.3426L86.9998 56.3361ZM87.3194 34.4913C90.7004 37.6244 92.207 41.3376 92.207 45.0187L94.207 45.0187C94.207 40.7509 92.4459 36.5152 88.6788 33.0243L87.3194 34.4913ZM92.207 45.0187C92.207 46.8054 91.6032 48.9009 90.659 50.8667C89.7162 52.8297 88.4822 54.5631 87.3194 55.6407L88.6788 57.1076C90.0689 55.8195 91.4389 53.8624 92.4618 51.7326C93.4834 49.6058 94.207 47.2064 94.207 45.0187L92.207 45.0187Z" fill="black"/>
<path d="M44.2665 52.6998C43.8911 53.1049 43.9152 53.7376 44.3203 54.113C44.7254 54.4883 45.3581 54.4643 45.7335 54.0592L44.2665 52.6998ZM65.0324 54.3788C65.5843 54.3998 66.0487 53.9694 66.0697 53.4175L66.4119 44.424C66.4329 43.8721 66.0026 43.4077 65.4507 43.3867C64.8988 43.3657 64.4344 43.7961 64.4134 44.348L64.1091 52.3422L56.1149 52.038C55.563 52.017 55.0986 52.4473 55.0776 52.9992C55.0566 53.5511 55.487 54.0155 56.0389 54.0365L65.0324 54.3788ZM45.7335 54.0592C48.4938 51.0805 51.7595 49.7578 54.9932 49.7578V47.7578C51.1729 47.7578 47.3846 49.335 44.2665 52.6998L45.7335 54.0592ZM54.9932 49.7578C56.5562 49.7578 58.3987 50.2869 60.1342 51.1205C61.8668 51.9527 63.3925 53.04 64.3369 54.0592L65.8039 52.6998C64.6489 51.4534 62.8995 50.2299 61.0001 49.3177C59.1036 48.4068 56.9572 47.7578 54.9932 47.7578V49.7578Z" fill="black"/>
</g>
<defs>
<clipPath id="clip0_18_584">
<rect width="180" height="180" rx="20" fill="white"/>
</clipPath>
<clipPath id="clip1_18_584">
<path d="M0 30L-1.31134e-06 0L30 -1.31134e-06L30 10C30 21.0457 21.0457 30 10 30L0 30Z" fill="white"/>
</clipPath>
</defs>
</svg>
