<svg width="180" height="180" viewBox="0 0 180 180" fill="none" xmlns="http://www.w3.org/2000/svg">
<rect width="180" height="180" rx="20" fill="#F2F2F2"/>
<path d="M25.1135 129V120.6H28.6535C29.5495 120.6 30.3375 120.776 31.0175 121.128C31.7055 121.48 32.2375 121.972 32.6135 122.604C32.9975 123.236 33.1895 123.968 33.1895 124.8C33.1895 125.632 32.9975 126.364 32.6135 126.996C32.2375 127.628 31.7055 128.12 31.0175 128.472C30.3375 128.824 29.5495 129 28.6535 129H25.1135ZM26.3135 127.956H28.5815C29.2775 127.956 29.8775 127.824 30.3815 127.56C30.8935 127.296 31.2895 126.928 31.5695 126.456C31.8495 125.976 31.9895 125.424 31.9895 124.8C31.9895 124.168 31.8495 123.616 31.5695 123.144C31.2895 122.672 30.8935 122.304 30.3815 122.04C29.8775 121.776 29.2775 121.644 28.5815 121.644H26.3135V127.956ZM37.5836 129.072C36.9436 129.072 36.3756 128.932 35.8796 128.652C35.3836 128.372 34.9916 127.988 34.7036 127.5C34.4156 127.004 34.2716 126.444 34.2716 125.82C34.2716 125.188 34.4156 124.628 34.7036 124.14C34.9916 123.652 35.3836 123.272 35.8796 123C36.3756 122.72 36.9436 122.58 37.5836 122.58C38.2156 122.58 38.7796 122.72 39.2756 123C39.7796 123.272 40.1716 123.652 40.4516 124.14C40.7396 124.62 40.8836 125.18 40.8836 125.82C40.8836 126.452 40.7396 127.012 40.4516 127.5C40.1716 127.988 39.7796 128.372 39.2756 128.652C38.7796 128.932 38.2156 129.072 37.5836 129.072ZM37.5836 128.064C37.9916 128.064 38.3556 127.972 38.6756 127.788C39.0036 127.604 39.2596 127.344 39.4436 127.008C39.6276 126.664 39.7196 126.268 39.7196 125.82C39.7196 125.364 39.6276 124.972 39.4436 124.644C39.2596 124.308 39.0036 124.048 38.6756 123.864C38.3556 123.68 37.9916 123.588 37.5836 123.588C37.1756 123.588 36.8116 123.68 36.4916 123.864C36.1716 124.048 35.9156 124.308 35.7236 124.644C35.5316 124.972 35.4356 125.364 35.4356 125.82C35.4356 126.268 35.5316 126.664 35.7236 127.008C35.9156 127.344 36.1716 127.604 36.4916 127.788C36.8116 127.972 37.1756 128.064 37.5836 128.064ZM45.8488 129.072C45.3048 129.072 44.8128 128.952 44.3728 128.712C43.9408 128.464 43.5968 128.1 43.3408 127.62C43.0928 127.14 42.9688 126.54 42.9688 125.82C42.9688 125.1 43.0968 124.5 43.3528 124.02C43.6168 123.54 43.9648 123.18 44.3968 122.94C44.8368 122.7 45.3208 122.58 45.8488 122.58C46.4728 122.58 47.0248 122.716 47.5048 122.988C47.9848 123.26 48.3648 123.64 48.6448 124.128C48.9248 124.608 49.0648 125.172 49.0648 125.82C49.0648 126.468 48.9248 127.036 48.6448 127.524C48.3648 128.012 47.9848 128.392 47.5048 128.664C47.0248 128.936 46.4728 129.072 45.8488 129.072ZM42.4768 129V120.096H43.6288V124.332L43.5088 125.808L43.5808 127.284V129H42.4768ZM45.7528 128.064C46.1608 128.064 46.5248 127.972 46.8448 127.788C47.1728 127.604 47.4288 127.344 47.6128 127.008C47.8048 126.664 47.9008 126.268 47.9008 125.82C47.9008 125.364 47.8048 124.972 47.6128 124.644C47.4288 124.308 47.1728 124.048 46.8448 123.864C46.5248 123.68 46.1608 123.588 45.7528 123.588C45.3528 123.588 44.9888 123.68 44.6608 123.864C44.3408 124.048 44.0848 124.308 43.8928 124.644C43.7088 124.972 43.6168 125.364 43.6168 125.82C43.6168 126.268 43.7088 126.664 43.8928 127.008C44.0848 127.344 44.3408 127.604 44.6608 127.788C44.9888 127.972 45.3528 128.064 45.7528 128.064ZM50.6565 129V122.64H51.7605V124.368L51.6525 123.936C51.8285 123.496 52.1245 123.16 52.5405 122.928C52.9565 122.696 53.4685 122.58 54.0765 122.58V123.696C54.0285 123.688 53.9805 123.684 53.9325 123.684C53.8925 123.684 53.8525 123.684 53.8125 123.684C53.1965 123.684 52.7085 123.868 52.3485 124.236C51.9885 124.604 51.8085 125.136 51.8085 125.832V129H50.6565ZM58.2697 129.072C57.5897 129.072 56.9897 128.932 56.4697 128.652C55.9577 128.372 55.5577 127.988 55.2697 127.5C54.9897 127.012 54.8497 126.452 54.8497 125.82C54.8497 125.188 54.9857 124.628 55.2577 124.14C55.5377 123.652 55.9177 123.272 56.3977 123C56.8857 122.72 57.4337 122.58 58.0417 122.58C58.6577 122.58 59.2017 122.716 59.6737 122.988C60.1457 123.26 60.5137 123.644 60.7777 124.14C61.0497 124.628 61.1857 125.2 61.1857 125.856C61.1857 125.904 61.1817 125.96 61.1737 126.024C61.1737 126.088 61.1697 126.148 61.1617 126.204H55.7497V125.376H60.5617L60.0937 125.664C60.1017 125.256 60.0177 124.892 59.8417 124.572C59.6657 124.252 59.4217 124.004 59.1097 123.828C58.8057 123.644 58.4497 123.552 58.0417 123.552C57.6417 123.552 57.2857 123.644 56.9737 123.828C56.6617 124.004 56.4177 124.256 56.2417 124.584C56.0657 124.904 55.9777 125.272 55.9777 125.688V125.88C55.9777 126.304 56.0737 126.684 56.2657 127.02C56.4657 127.348 56.7417 127.604 57.0937 127.788C57.4457 127.972 57.8497 128.064 58.3057 128.064C58.6817 128.064 59.0217 128 59.3257 127.872C59.6377 127.744 59.9097 127.552 60.1417 127.296L60.7777 128.04C60.4897 128.376 60.1297 128.632 59.6977 128.808C59.2737 128.984 58.7977 129.072 58.2697 129.072ZM69.956 129V127.656L69.896 127.404V125.112C69.896 124.624 69.752 124.248 69.464 123.984C69.184 123.712 68.76 123.576 68.192 123.576C67.816 123.576 67.448 123.64 67.088 123.768C66.728 123.888 66.424 124.052 66.176 124.26L65.696 123.396C66.024 123.132 66.416 122.932 66.872 122.796C67.336 122.652 67.82 122.58 68.324 122.58C69.196 122.58 69.868 122.792 70.34 123.216C70.812 123.64 71.048 124.288 71.048 125.16V129H69.956ZM67.868 129.072C67.396 129.072 66.98 128.992 66.62 128.832C66.268 128.672 65.996 128.452 65.804 128.172C65.612 127.884 65.516 127.56 65.516 127.2C65.516 126.856 65.596 126.544 65.756 126.264C65.924 125.984 66.192 125.76 66.56 125.592C66.936 125.424 67.44 125.34 68.072 125.34H70.088V126.168H68.12C67.544 126.168 67.156 126.264 66.956 126.456C66.756 126.648 66.656 126.88 66.656 127.152C66.656 127.464 66.78 127.716 67.028 127.908C67.276 128.092 67.62 128.184 68.06 128.184C68.492 128.184 68.868 128.088 69.188 127.896C69.516 127.704 69.752 127.424 69.896 127.056L70.124 127.848C69.972 128.224 69.704 128.524 69.32 128.748C68.936 128.964 68.452 129.072 67.868 129.072ZM75.0039 129.072C74.4759 129.072 73.9719 129 73.4919 128.856C73.0199 128.712 72.6479 128.536 72.3759 128.328L72.8559 127.416C73.1279 127.6 73.4639 127.756 73.8639 127.884C74.2639 128.012 74.6719 128.076 75.0879 128.076C75.6239 128.076 76.0079 128 76.2399 127.848C76.4799 127.696 76.5999 127.484 76.5999 127.212C76.5999 127.012 76.5279 126.856 76.3839 126.744C76.2399 126.632 76.0479 126.548 75.8079 126.492C75.5759 126.436 75.3159 126.388 75.0279 126.348C74.7399 126.3 74.4519 126.244 74.1639 126.18C73.8759 126.108 73.6119 126.012 73.3719 125.892C73.1319 125.764 72.9399 125.592 72.7959 125.376C72.6519 125.152 72.5799 124.856 72.5799 124.488C72.5799 124.104 72.6879 123.768 72.9039 123.48C73.1199 123.192 73.4239 122.972 73.8159 122.82C74.2159 122.66 74.6879 122.58 75.2319 122.58C75.6479 122.58 76.0679 122.632 76.4919 122.736C76.9239 122.832 77.2759 122.972 77.5479 123.156L77.0559 124.068C76.7679 123.876 76.4679 123.744 76.1559 123.672C75.8439 123.6 75.5319 123.564 75.2199 123.564C74.7159 123.564 74.3399 123.648 74.0919 123.816C73.8439 123.976 73.7199 124.184 73.7199 124.44C73.7199 124.656 73.7919 124.824 73.9359 124.944C74.0879 125.056 74.2799 125.144 74.5119 125.208C74.7519 125.272 75.0159 125.328 75.3039 125.376C75.5919 125.416 75.8799 125.472 76.1679 125.544C76.4559 125.608 76.7159 125.7 76.9479 125.82C77.1879 125.94 77.3799 126.108 77.5239 126.324C77.6759 126.54 77.7519 126.828 77.7519 127.188C77.7519 127.572 77.6399 127.904 77.4159 128.184C77.1919 128.464 76.8759 128.684 76.4679 128.844C76.0599 128.996 75.5719 129.072 75.0039 129.072ZM85.0423 129.072C84.4263 129.072 83.8743 128.936 83.3863 128.664C82.9063 128.392 82.5263 128.012 82.2463 127.524C81.9663 127.036 81.8263 126.468 81.8263 125.82C81.8263 125.172 81.9663 124.608 82.2463 124.128C82.5263 123.64 82.9063 123.26 83.3863 122.988C83.8743 122.716 84.4263 122.58 85.0423 122.58C85.5783 122.58 86.0623 122.7 86.4943 122.94C86.9263 123.18 87.2703 123.54 87.5263 124.02C87.7903 124.5 87.9223 125.1 87.9223 125.82C87.9223 126.54 87.7943 127.14 87.5383 127.62C87.2903 128.1 86.9503 128.464 86.5183 128.712C86.0863 128.952 85.5943 129.072 85.0423 129.072ZM85.1383 128.064C85.5383 128.064 85.8983 127.972 86.2183 127.788C86.5463 127.604 86.8023 127.344 86.9863 127.008C87.1783 126.664 87.2743 126.268 87.2743 125.82C87.2743 125.364 87.1783 124.972 86.9863 124.644C86.8023 124.308 86.5463 124.048 86.2183 123.864C85.8983 123.68 85.5383 123.588 85.1383 123.588C84.7303 123.588 84.3663 123.68 84.0463 123.864C83.7263 124.048 83.4703 124.308 83.2783 124.644C83.0863 124.972 82.9903 125.364 82.9903 125.82C82.9903 126.268 83.0863 126.664 83.2783 127.008C83.4703 127.344 83.7263 127.604 84.0463 127.788C84.3663 127.972 84.7303 128.064 85.1383 128.064ZM87.3103 129V127.284L87.3823 125.808L87.2623 124.332V120.096H88.4143V129H87.3103ZM93.27 129.072C92.726 129.072 92.246 128.972 91.83 128.772C91.422 128.572 91.102 128.268 90.87 127.86C90.646 127.444 90.534 126.924 90.534 126.3V122.64H91.686V126.168C91.686 126.792 91.834 127.26 92.13 127.572C92.434 127.884 92.858 128.04 93.402 128.04C93.802 128.04 94.15 127.96 94.446 127.8C94.742 127.632 94.97 127.392 95.13 127.08C95.29 126.76 95.37 126.376 95.37 125.928V122.64H96.522V129H95.43V127.284L95.61 127.74C95.402 128.164 95.09 128.492 94.674 128.724C94.258 128.956 93.79 129.072 93.27 129.072ZM102.663 129V127.656L102.603 127.404V125.112C102.603 124.624 102.459 124.248 102.171 123.984C101.891 123.712 101.467 123.576 100.899 123.576C100.523 123.576 100.155 123.64 99.795 123.768C99.435 123.888 99.131 124.052 98.883 124.26L98.403 123.396C98.731 123.132 99.123 122.932 99.579 122.796C100.043 122.652 100.527 122.58 101.031 122.58C101.903 122.58 102.575 122.792 103.047 123.216C103.519 123.64 103.755 124.288 103.755 125.16V129H102.663ZM100.575 129.072C100.103 129.072 99.687 128.992 99.327 128.832C98.975 128.672 98.703 128.452 98.511 128.172C98.319 127.884 98.223 127.56 98.223 127.2C98.223 126.856 98.303 126.544 98.463 126.264C98.631 125.984 98.899 125.76 99.267 125.592C99.643 125.424 100.147 125.34 100.779 125.34H102.795V126.168H100.827C100.251 126.168 99.863 126.264 99.663 126.456C99.463 126.648 99.363 126.88 99.363 127.152C99.363 127.464 99.487 127.716 99.735 127.908C99.983 128.092 100.327 128.184 100.767 128.184C101.199 128.184 101.575 128.088 101.895 127.896C102.223 127.704 102.459 127.424 102.603 127.056L102.831 127.848C102.679 128.224 102.411 128.524 102.027 128.748C101.643 128.964 101.159 129.072 100.575 129.072ZM107.711 129.072C107.183 129.072 106.679 129 106.199 128.856C105.727 128.712 105.355 128.536 105.083 128.328L105.563 127.416C105.835 127.6 106.171 127.756 106.571 127.884C106.971 128.012 107.379 128.076 107.795 128.076C108.331 128.076 108.715 128 108.947 127.848C109.187 127.696 109.307 127.484 109.307 127.212C109.307 127.012 109.235 126.856 109.091 126.744C108.947 126.632 108.755 126.548 108.515 126.492C108.283 126.436 108.023 126.388 107.735 126.348C107.447 126.3 107.159 126.244 106.871 126.18C106.583 126.108 106.319 126.012 106.079 125.892C105.839 125.764 105.647 125.592 105.503 125.376C105.359 125.152 105.287 124.856 105.287 124.488C105.287 124.104 105.395 123.768 105.611 123.48C105.827 123.192 106.131 122.972 106.523 122.82C106.923 122.66 107.395 122.58 107.939 122.58C108.355 122.58 108.775 122.632 109.199 122.736C109.631 122.832 109.983 122.972 110.255 123.156L109.763 124.068C109.475 123.876 109.175 123.744 108.863 123.672C108.551 123.6 108.239 123.564 107.927 123.564C107.423 123.564 107.047 123.648 106.799 123.816C106.551 123.976 106.427 124.184 106.427 124.44C106.427 124.656 106.499 124.824 106.643 124.944C106.795 125.056 106.987 125.144 107.219 125.208C107.459 125.272 107.723 125.328 108.011 125.376C108.299 125.416 108.587 125.472 108.875 125.544C109.163 125.608 109.423 125.7 109.655 125.82C109.895 125.94 110.087 126.108 110.231 126.324C110.383 126.54 110.459 126.828 110.459 127.188C110.459 127.572 110.347 127.904 110.123 128.184C109.899 128.464 109.583 128.684 109.175 128.844C108.767 128.996 108.279 129.072 107.711 129.072ZM118.493 129.072C117.965 129.072 117.481 128.952 117.041 128.712C116.609 128.464 116.261 128.1 115.997 127.62C115.741 127.14 115.613 126.54 115.613 125.82C115.613 125.1 115.737 124.5 115.985 124.02C116.241 123.54 116.585 123.18 117.017 122.94C117.457 122.7 117.949 122.58 118.493 122.58C119.117 122.58 119.669 122.716 120.149 122.988C120.629 123.26 121.009 123.64 121.289 124.128C121.569 124.608 121.709 125.172 121.709 125.82C121.709 126.468 121.569 127.036 121.289 127.524C121.009 128.012 120.629 128.392 120.149 128.664C119.669 128.936 119.117 129.072 118.493 129.072ZM115.121 131.328V122.64H116.225V124.356L116.153 125.832L116.273 127.308V131.328H115.121ZM118.397 128.064C118.805 128.064 119.169 127.972 119.489 127.788C119.817 127.604 120.073 127.344 120.257 127.008C120.449 126.664 120.545 126.268 120.545 125.82C120.545 125.364 120.449 124.972 120.257 124.644C120.073 124.308 119.817 124.048 119.489 123.864C119.169 123.68 118.805 123.588 118.397 123.588C117.997 123.588 117.633 123.68 117.305 123.864C116.985 124.048 116.729 124.308 116.537 124.644C116.353 124.972 116.261 125.364 116.261 125.82C116.261 126.268 116.353 126.664 116.537 127.008C116.729 127.344 116.985 127.604 117.305 127.788C117.633 127.972 117.997 128.064 118.397 128.064ZM126.025 129.072C125.385 129.072 124.817 128.932 124.321 128.652C123.825 128.372 123.433 127.988 123.145 127.5C122.857 127.004 122.713 126.444 122.713 125.82C122.713 125.188 122.857 124.628 123.145 124.14C123.433 123.652 123.825 123.272 124.321 123C124.817 122.72 125.385 122.58 126.025 122.58C126.657 122.58 127.221 122.72 127.717 123C128.221 123.272 128.613 123.652 128.893 124.14C129.181 124.62 129.325 125.18 129.325 125.82C129.325 126.452 129.181 127.012 128.893 127.5C128.613 127.988 128.221 128.372 127.717 128.652C127.221 128.932 126.657 129.072 126.025 129.072ZM126.025 128.064C126.433 128.064 126.797 127.972 127.117 127.788C127.445 127.604 127.701 127.344 127.885 127.008C128.069 126.664 128.161 126.268 128.161 125.82C128.161 125.364 128.069 124.972 127.885 124.644C127.701 124.308 127.445 124.048 127.117 123.864C126.797 123.68 126.433 123.588 126.025 123.588C125.617 123.588 125.253 123.68 124.933 123.864C124.613 124.048 124.357 124.308 124.165 124.644C123.973 124.972 123.877 125.364 123.877 125.82C123.877 126.268 123.973 126.664 124.165 127.008C124.357 127.344 124.613 127.604 124.933 127.788C125.253 127.972 125.617 128.064 126.025 128.064ZM134.314 122.58C134.834 122.58 135.29 122.68 135.682 122.88C136.082 123.08 136.394 123.384 136.618 123.792C136.842 124.2 136.954 124.716 136.954 125.34V129H135.802V125.472C135.802 124.856 135.65 124.392 135.346 124.08C135.05 123.768 134.63 123.612 134.086 123.612C133.678 123.612 133.322 123.692 133.018 123.852C132.714 124.012 132.478 124.248 132.31 124.56C132.15 124.872 132.07 125.26 132.07 125.724V129H130.918V122.64H132.022V124.356L131.842 123.9C132.05 123.484 132.37 123.16 132.802 122.928C133.234 122.696 133.738 122.58 134.314 122.58ZM141.27 129.072C140.63 129.072 140.134 128.9 139.782 128.556C139.43 128.212 139.254 127.72 139.254 127.08V121.248H140.406V127.032C140.406 127.376 140.49 127.64 140.658 127.824C140.834 128.008 141.082 128.1 141.402 128.1C141.762 128.1 142.062 128 142.302 127.8L142.662 128.628C142.486 128.78 142.274 128.892 142.026 128.964C141.786 129.036 141.534 129.072 141.27 129.072ZM138.174 123.588V122.64H142.23V123.588H138.174ZM148.003 129V127.656L147.943 127.404V125.112C147.943 124.624 147.799 124.248 147.511 123.984C147.231 123.712 146.807 123.576 146.239 123.576C145.863 123.576 145.495 123.64 145.135 123.768C144.775 123.888 144.471 124.052 144.223 124.26L143.743 123.396C144.071 123.132 144.463 122.932 144.919 122.796C145.383 122.652 145.867 122.58 146.371 122.58C147.243 122.58 147.915 122.792 148.387 123.216C148.859 123.64 149.095 124.288 149.095 125.16V129H148.003ZM145.915 129.072C145.443 129.072 145.027 128.992 144.667 128.832C144.315 128.672 144.043 128.452 143.851 128.172C143.659 127.884 143.563 127.56 143.563 127.2C143.563 126.856 143.643 126.544 143.803 126.264C143.971 125.984 144.239 125.76 144.607 125.592C144.983 125.424 145.487 125.34 146.119 125.34H148.135V126.168H146.167C145.591 126.168 145.203 126.264 145.003 126.456C144.803 126.648 144.703 126.88 144.703 127.152C144.703 127.464 144.827 127.716 145.075 127.908C145.323 128.092 145.667 128.184 146.107 128.184C146.539 128.184 146.915 128.088 147.235 127.896C147.563 127.704 147.799 127.424 147.943 127.056L148.171 127.848C148.019 128.224 147.751 128.524 147.367 128.748C146.983 128.964 146.499 129.072 145.915 129.072ZM153.051 129.072C152.523 129.072 152.019 129 151.539 128.856C151.067 128.712 150.695 128.536 150.423 128.328L150.903 127.416C151.175 127.6 151.511 127.756 151.911 127.884C152.311 128.012 152.719 128.076 153.135 128.076C153.671 128.076 154.055 128 154.287 127.848C154.527 127.696 154.647 127.484 154.647 127.212C154.647 127.012 154.575 126.856 154.431 126.744C154.287 126.632 154.095 126.548 153.855 126.492C153.623 126.436 153.363 126.388 153.075 126.348C152.787 126.3 152.499 126.244 152.211 126.18C151.923 126.108 151.659 126.012 151.419 125.892C151.179 125.764 150.987 125.592 150.843 125.376C150.699 125.152 150.627 124.856 150.627 124.488C150.627 124.104 150.735 123.768 150.951 123.48C151.167 123.192 151.471 122.972 151.863 122.82C152.263 122.66 152.735 122.58 153.279 122.58C153.695 122.58 154.115 122.632 154.539 122.736C154.971 122.832 155.323 122.972 155.595 123.156L155.103 124.068C154.815 123.876 154.515 123.744 154.203 123.672C153.891 123.6 153.579 123.564 153.267 123.564C152.763 123.564 152.387 123.648 152.139 123.816C151.891 123.976 151.767 124.184 151.767 124.44C151.767 124.656 151.839 124.824 151.983 124.944C152.135 125.056 152.327 125.144 152.559 125.208C152.799 125.272 153.063 125.328 153.351 125.376C153.639 125.416 153.927 125.472 154.215 125.544C154.503 125.608 154.763 125.7 154.995 125.82C155.235 125.94 155.427 126.108 155.571 126.324C155.723 126.54 155.799 126.828 155.799 127.188C155.799 127.572 155.687 127.904 155.463 128.184C155.239 128.464 154.923 128.684 154.515 128.844C154.107 128.996 153.619 129.072 153.051 129.072ZM27.9181 144.072C27.2381 144.072 26.6381 143.932 26.1181 143.652C25.6061 143.372 25.2061 142.988 24.9181 142.5C24.6381 142.012 24.4981 141.452 24.4981 140.82C24.4981 140.188 24.6341 139.628 24.9061 139.14C25.1861 138.652 25.5661 138.272 26.0461 138C26.5341 137.72 27.0821 137.58 27.6901 137.58C28.3061 137.58 28.8501 137.716 29.3221 137.988C29.7941 138.26 30.1621 138.644 30.4261 139.14C30.6981 139.628 30.8341 140.2 30.8341 140.856C30.8341 140.904 30.8301 140.96 30.8221 141.024C30.8221 141.088 30.8181 141.148 30.8101 141.204H25.3981V140.376H30.2101L29.7421 140.664C29.7501 140.256 29.6661 139.892 29.4901 139.572C29.3141 139.252 29.0701 139.004 28.7581 138.828C28.4541 138.644 28.0981 138.552 27.6901 138.552C27.2901 138.552 26.9341 138.644 26.6221 138.828C26.3101 139.004 26.0661 139.256 25.8901 139.584C25.7141 139.904 25.6261 140.272 25.6261 140.688V140.88C25.6261 141.304 25.7221 141.684 25.9141 142.02C26.1141 142.348 26.3901 142.604 26.7421 142.788C27.0941 142.972 27.4981 143.064 27.9541 143.064C28.3301 143.064 28.6701 143 28.9741 142.872C29.2861 142.744 29.5581 142.552 29.7901 142.296L30.4261 143.04C30.1381 143.376 29.7781 143.632 29.3461 143.808C28.9221 143.984 28.4461 144.072 27.9181 144.072ZM40.3898 137.58C40.9018 137.58 41.3538 137.68 41.7458 137.88C42.1378 138.08 42.4418 138.384 42.6578 138.792C42.8818 139.2 42.9938 139.716 42.9938 140.34V144H41.8418V140.472C41.8418 139.856 41.6978 139.392 41.4098 139.08C41.1218 138.768 40.7178 138.612 40.1978 138.612C39.8138 138.612 39.4778 138.692 39.1898 138.852C38.9018 139.012 38.6778 139.248 38.5178 139.56C38.3658 139.872 38.2898 140.26 38.2898 140.724V144H37.1378V140.472C37.1378 139.856 36.9938 139.392 36.7058 139.08C36.4258 138.768 36.0218 138.612 35.4938 138.612C35.1178 138.612 34.7858 138.692 34.4978 138.852C34.2098 139.012 33.9858 139.248 33.8258 139.56C33.6658 139.872 33.5858 140.26 33.5858 140.724V144H32.4338V137.64H33.5378V139.332L33.3578 138.9C33.5578 138.484 33.8658 138.16 34.2818 137.928C34.6978 137.696 35.1818 137.58 35.7338 137.58C36.3418 137.58 36.8658 137.732 37.3058 138.036C37.7458 138.332 38.0338 138.784 38.1698 139.392L37.7018 139.2C37.8938 138.712 38.2298 138.32 38.7098 138.024C39.1898 137.728 39.7498 137.58 40.3898 137.58ZM50.9641 144.072C50.3481 144.072 49.7961 143.936 49.3081 143.664C48.8281 143.392 48.4481 143.012 48.1681 142.524C47.8881 142.036 47.7481 141.468 47.7481 140.82C47.7481 140.172 47.8881 139.608 48.1681 139.128C48.4481 138.64 48.8281 138.26 49.3081 137.988C49.7961 137.716 50.3481 137.58 50.9641 137.58C51.5001 137.58 51.9841 137.7 52.4161 137.94C52.8481 138.18 53.1921 138.54 53.4481 139.02C53.7121 139.5 53.8441 140.1 53.8441 140.82C53.8441 141.54 53.7161 142.14 53.4601 142.62C53.2121 143.1 52.8721 143.464 52.4401 143.712C52.0081 143.952 51.5161 144.072 50.9641 144.072ZM51.0601 143.064C51.4601 143.064 51.8201 142.972 52.1401 142.788C52.4681 142.604 52.7241 142.344 52.9081 142.008C53.1001 141.664 53.1961 141.268 53.1961 140.82C53.1961 140.364 53.1001 139.972 52.9081 139.644C52.7241 139.308 52.4681 139.048 52.1401 138.864C51.8201 138.68 51.4601 138.588 51.0601 138.588C50.6521 138.588 50.2881 138.68 49.9681 138.864C49.6481 139.048 49.3921 139.308 49.2001 139.644C49.0081 139.972 48.9121 140.364 48.9121 140.82C48.9121 141.268 49.0081 141.664 49.2001 142.008C49.3921 142.344 49.6481 142.604 49.9681 142.788C50.2881 142.972 50.6521 143.064 51.0601 143.064ZM53.2321 144V142.284L53.3041 140.808L53.1841 139.332V135.096H54.3361V144H53.2321ZM56.5158 144V137.64H57.6678V144H56.5158ZM57.0918 136.416C56.8678 136.416 56.6798 136.344 56.5278 136.2C56.3838 136.056 56.3118 135.88 56.3118 135.672C56.3118 135.456 56.3838 135.276 56.5278 135.132C56.6798 134.988 56.8678 134.916 57.0918 134.916C57.3158 134.916 57.4998 134.988 57.6438 135.132C57.7958 135.268 57.8718 135.44 57.8718 135.648C57.8718 135.864 57.7998 136.048 57.6558 136.2C57.5118 136.344 57.3238 136.416 57.0918 136.416ZM59.8674 144V137.64H60.9714V139.368L60.8634 138.936C61.0394 138.496 61.3354 138.16 61.7514 137.928C62.1674 137.696 62.6794 137.58 63.2874 137.58V138.696C63.2394 138.688 63.1914 138.684 63.1434 138.684C63.1034 138.684 63.0634 138.684 63.0234 138.684C62.4074 138.684 61.9194 138.868 61.5594 139.236C61.1994 139.604 61.0194 140.136 61.0194 140.832V144H59.8674ZM67.4806 144.072C66.8006 144.072 66.2006 143.932 65.6806 143.652C65.1686 143.372 64.7686 142.988 64.4806 142.5C64.2006 142.012 64.0606 141.452 64.0606 140.82C64.0606 140.188 64.1966 139.628 64.4686 139.14C64.7486 138.652 65.1286 138.272 65.6086 138C66.0966 137.72 66.6446 137.58 67.2526 137.58C67.8686 137.58 68.4126 137.716 68.8846 137.988C69.3566 138.26 69.7246 138.644 69.9886 139.14C70.2606 139.628 70.3966 140.2 70.3966 140.856C70.3966 140.904 70.3926 140.96 70.3846 141.024C70.3846 141.088 70.3806 141.148 70.3726 141.204H64.9606V140.376H69.7726L69.3046 140.664C69.3126 140.256 69.2286 139.892 69.0526 139.572C68.8766 139.252 68.6326 139.004 68.3206 138.828C68.0166 138.644 67.6606 138.552 67.2526 138.552C66.8526 138.552 66.4966 138.644 66.1846 138.828C65.8726 139.004 65.6286 139.256 65.4526 139.584C65.2766 139.904 65.1886 140.272 65.1886 140.688V140.88C65.1886 141.304 65.2846 141.684 65.4766 142.02C65.6766 142.348 65.9526 142.604 66.3046 142.788C66.6566 142.972 67.0606 143.064 67.5166 143.064C67.8926 143.064 68.2326 143 68.5366 142.872C68.8486 142.744 69.1206 142.552 69.3526 142.296L69.9886 143.04C69.7006 143.376 69.3406 143.632 68.9086 143.808C68.4846 143.984 68.0086 144.072 67.4806 144.072ZM74.7683 144.072C74.1203 144.072 73.5403 143.932 73.0283 143.652C72.5243 143.372 72.1283 142.988 71.8403 142.5C71.5523 142.012 71.4083 141.452 71.4083 140.82C71.4083 140.188 71.5523 139.628 71.8403 139.14C72.1283 138.652 72.5243 138.272 73.0283 138C73.5403 137.72 74.1203 137.58 74.7683 137.58C75.3443 137.58 75.8563 137.696 76.3043 137.928C76.7603 138.152 77.1123 138.488 77.3603 138.936L76.4843 139.5C76.2763 139.188 76.0203 138.96 75.7163 138.816C75.4203 138.664 75.1003 138.588 74.7563 138.588C74.3403 138.588 73.9683 138.68 73.6403 138.864C73.3123 139.048 73.0523 139.308 72.8603 139.644C72.6683 139.972 72.5723 140.364 72.5723 140.82C72.5723 141.276 72.6683 141.672 72.8603 142.008C73.0523 142.344 73.3123 142.604 73.6403 142.788C73.9683 142.972 74.3403 143.064 74.7563 143.064C75.1003 143.064 75.4203 142.992 75.7163 142.848C76.0203 142.696 76.2763 142.464 76.4843 142.152L77.3603 142.704C77.1123 143.144 76.7603 143.484 76.3043 143.724C75.8563 143.956 75.3443 144.072 74.7683 144.072ZM74.2043 146.688C73.9963 146.688 73.8043 146.664 73.6283 146.616C73.4523 146.576 73.2883 146.512 73.1363 146.424L73.3883 145.836C73.5163 145.908 73.6443 145.96 73.7723 145.992C73.9083 146.024 74.0523 146.04 74.2043 146.04C74.4363 146.04 74.6043 145.996 74.7083 145.908C74.8203 145.828 74.8763 145.712 74.8763 145.56C74.8763 145.416 74.8203 145.3 74.7083 145.212C74.6043 145.132 74.4323 145.092 74.1923 145.092H73.8683L74.1683 143.916H74.8283L74.6483 144.6C74.9923 144.632 75.2523 144.74 75.4283 144.924C75.6043 145.108 75.6923 145.332 75.6923 145.596C75.6923 145.932 75.5563 146.196 75.2843 146.388C75.0123 146.588 74.6523 146.688 74.2043 146.688ZM82.7998 144V142.656L82.7398 142.404V140.112C82.7398 139.624 82.5958 139.248 82.3078 138.984C82.0278 138.712 81.6038 138.576 81.0358 138.576C80.6598 138.576 80.2918 138.64 79.9318 138.768C79.5718 138.888 79.2678 139.052 79.0198 139.26L78.5398 138.396C78.8678 138.132 79.2598 137.932 79.7158 137.796C80.1798 137.652 80.6638 137.58 81.1678 137.58C82.0398 137.58 82.7118 137.792 83.1838 138.216C83.6558 138.64 83.8918 139.288 83.8918 140.16V144H82.7998ZM80.7118 144.072C80.2398 144.072 79.8238 143.992 79.4638 143.832C79.1118 143.672 78.8398 143.452 78.6478 143.172C78.4558 142.884 78.3598 142.56 78.3598 142.2C78.3598 141.856 78.4398 141.544 78.5998 141.264C78.7678 140.984 79.0358 140.76 79.4038 140.592C79.7798 140.424 80.2838 140.34 80.9158 140.34H82.9318V141.168H80.9638C80.3878 141.168 79.9998 141.264 79.7998 141.456C79.5998 141.648 79.4998 141.88 79.4998 142.152C79.4998 142.464 79.6238 142.716 79.8718 142.908C80.1198 143.092 80.4638 143.184 80.9038 143.184C81.3358 143.184 81.7118 143.088 82.0318 142.896C82.3598 142.704 82.5958 142.424 82.7398 142.056L82.9678 142.848C82.8158 143.224 82.5478 143.524 82.1638 143.748C81.7798 143.964 81.2958 144.072 80.7118 144.072ZM82.0918 136.68C81.8998 136.68 81.7278 136.64 81.5758 136.56C81.4318 136.48 81.2998 136.388 81.1798 136.284C81.0598 136.172 80.9438 136.076 80.8318 135.996C80.7198 135.916 80.6078 135.876 80.4958 135.876C80.3198 135.876 80.1758 135.944 80.0638 136.08C79.9598 136.208 79.8998 136.388 79.8838 136.62H79.2358C79.2518 136.172 79.3638 135.816 79.5718 135.552C79.7798 135.288 80.0598 135.156 80.4118 135.156C80.6038 135.156 80.7758 135.2 80.9278 135.288C81.0798 135.368 81.2158 135.464 81.3358 135.576C81.4558 135.68 81.5678 135.772 81.6718 135.852C81.7838 135.932 81.8958 135.972 82.0078 135.972C82.1838 135.972 82.3278 135.908 82.4398 135.78C82.5518 135.652 82.6118 135.476 82.6198 135.252H83.2678C83.2598 135.676 83.1478 136.02 82.9318 136.284C82.7238 136.548 82.4438 136.68 82.0918 136.68ZM88.7476 144.072C88.1076 144.072 87.5396 143.932 87.0436 143.652C86.5476 143.372 86.1556 142.988 85.8676 142.5C85.5796 142.004 85.4356 141.444 85.4356 140.82C85.4356 140.188 85.5796 139.628 85.8676 139.14C86.1556 138.652 86.5476 138.272 87.0436 138C87.5396 137.72 88.1076 137.58 88.7476 137.58C89.3796 137.58 89.9436 137.72 90.4396 138C90.9436 138.272 91.3356 138.652 91.6156 139.14C91.9036 139.62 92.0476 140.18 92.0476 140.82C92.0476 141.452 91.9036 142.012 91.6156 142.5C91.3356 142.988 90.9436 143.372 90.4396 143.652C89.9436 143.932 89.3796 144.072 88.7476 144.072ZM88.7476 143.064C89.1556 143.064 89.5196 142.972 89.8396 142.788C90.1676 142.604 90.4236 142.344 90.6076 142.008C90.7916 141.664 90.8836 141.268 90.8836 140.82C90.8836 140.364 90.7916 139.972 90.6076 139.644C90.4236 139.308 90.1676 139.048 89.8396 138.864C89.5196 138.68 89.1556 138.588 88.7476 138.588C88.3396 138.588 87.9756 138.68 87.6556 138.864C87.3356 139.048 87.0796 139.308 86.8876 139.644C86.6956 139.972 86.5996 140.364 86.5996 140.82C86.5996 141.268 86.6956 141.664 86.8876 142.008C87.0796 142.344 87.3356 142.604 87.6556 142.788C87.9756 142.972 88.3396 143.064 88.7476 143.064ZM100.811 144V142.656L100.751 142.404V140.112C100.751 139.624 100.607 139.248 100.319 138.984C100.039 138.712 99.6155 138.576 99.0475 138.576C98.6715 138.576 98.3035 138.64 97.9435 138.768C97.5835 138.888 97.2795 139.052 97.0315 139.26L96.5515 138.396C96.8795 138.132 97.2715 137.932 97.7275 137.796C98.1915 137.652 98.6755 137.58 99.1795 137.58C100.051 137.58 100.723 137.792 101.195 138.216C101.667 138.64 101.903 139.288 101.903 140.16V144H100.811ZM98.7235 144.072C98.2515 144.072 97.8355 143.992 97.4755 143.832C97.1235 143.672 96.8515 143.452 96.6595 143.172C96.4675 142.884 96.3715 142.56 96.3715 142.2C96.3715 141.856 96.4515 141.544 96.6115 141.264C96.7795 140.984 97.0475 140.76 97.4155 140.592C97.7915 140.424 98.2955 140.34 98.9275 140.34H100.943V141.168H98.9755C98.3995 141.168 98.0115 141.264 97.8115 141.456C97.6115 141.648 97.5115 141.88 97.5115 142.152C97.5115 142.464 97.6355 142.716 97.8835 142.908C98.1315 143.092 98.4755 143.184 98.9155 143.184C99.3475 143.184 99.7235 143.088 100.043 142.896C100.371 142.704 100.607 142.424 100.751 142.056L100.979 142.848C100.827 143.224 100.559 143.524 100.175 143.748C99.7915 143.964 99.3075 144.072 98.7235 144.072ZM106.759 144.072C106.119 144.072 105.551 143.932 105.055 143.652C104.559 143.372 104.167 142.988 103.879 142.5C103.591 142.004 103.447 141.444 103.447 140.82C103.447 140.188 103.591 139.628 103.879 139.14C104.167 138.652 104.559 138.272 105.055 138C105.551 137.72 106.119 137.58 106.759 137.58C107.391 137.58 107.955 137.72 108.451 138C108.955 138.272 109.347 138.652 109.627 139.14C109.915 139.62 110.059 140.18 110.059 140.82C110.059 141.452 109.915 142.012 109.627 142.5C109.347 142.988 108.955 143.372 108.451 143.652C107.955 143.932 107.391 144.072 106.759 144.072ZM106.759 143.064C107.167 143.064 107.531 142.972 107.851 142.788C108.179 142.604 108.435 142.344 108.619 142.008C108.803 141.664 108.895 141.268 108.895 140.82C108.895 140.364 108.803 139.972 108.619 139.644C108.435 139.308 108.179 139.048 107.851 138.864C107.531 138.68 107.167 138.588 106.759 138.588C106.351 138.588 105.987 138.68 105.667 138.864C105.347 139.048 105.091 139.308 104.899 139.644C104.707 139.972 104.611 140.364 104.611 140.82C104.611 141.268 104.707 141.664 104.899 142.008C105.091 142.344 105.347 142.604 105.667 142.788C105.987 142.972 106.351 143.064 106.759 143.064ZM117.647 144.072C116.999 144.072 116.419 143.932 115.907 143.652C115.403 143.372 115.007 142.988 114.719 142.5C114.431 142.012 114.287 141.452 114.287 140.82C114.287 140.188 114.431 139.628 114.719 139.14C115.007 138.652 115.403 138.272 115.907 138C116.419 137.72 116.999 137.58 117.647 137.58C118.223 137.58 118.735 137.696 119.183 137.928C119.639 138.152 119.991 138.488 120.239 138.936L119.363 139.5C119.155 139.188 118.899 138.96 118.595 138.816C118.299 138.664 117.979 138.588 117.635 138.588C117.219 138.588 116.847 138.68 116.519 138.864C116.191 139.048 115.931 139.308 115.739 139.644C115.547 139.972 115.451 140.364 115.451 140.82C115.451 141.276 115.547 141.672 115.739 142.008C115.931 142.344 116.191 142.604 116.519 142.788C116.847 142.972 117.219 143.064 117.635 143.064C117.979 143.064 118.299 142.992 118.595 142.848C118.899 142.696 119.155 142.464 119.363 142.152L120.239 142.704C119.991 143.144 119.639 143.484 119.183 143.724C118.735 143.956 118.223 144.072 117.647 144.072ZM124.469 144.072C123.789 144.072 123.189 143.932 122.669 143.652C122.157 143.372 121.757 142.988 121.469 142.5C121.189 142.012 121.049 141.452 121.049 140.82C121.049 140.188 121.185 139.628 121.457 139.14C121.737 138.652 122.117 138.272 122.597 138C123.085 137.72 123.633 137.58 124.241 137.58C124.857 137.58 125.401 137.716 125.873 137.988C126.345 138.26 126.713 138.644 126.977 139.14C127.249 139.628 127.385 140.2 127.385 140.856C127.385 140.904 127.381 140.96 127.373 141.024C127.373 141.088 127.369 141.148 127.361 141.204H121.949V140.376H126.761L126.293 140.664C126.301 140.256 126.217 139.892 126.041 139.572C125.865 139.252 125.621 139.004 125.309 138.828C125.005 138.644 124.649 138.552 124.241 138.552C123.841 138.552 123.485 138.644 123.173 138.828C122.861 139.004 122.617 139.256 122.441 139.584C122.265 139.904 122.177 140.272 122.177 140.688V140.88C122.177 141.304 122.273 141.684 122.465 142.02C122.665 142.348 122.941 142.604 123.293 142.788C123.645 142.972 124.049 143.064 124.505 143.064C124.881 143.064 125.221 143 125.525 142.872C125.837 142.744 126.109 142.552 126.341 142.296L126.977 143.04C126.689 143.376 126.329 143.632 125.897 143.808C125.473 143.984 124.997 144.072 124.469 144.072ZM132.381 137.58C132.901 137.58 133.357 137.68 133.749 137.88C134.149 138.08 134.461 138.384 134.685 138.792C134.909 139.2 135.021 139.716 135.021 140.34V144H133.869V140.472C133.869 139.856 133.717 139.392 133.413 139.08C133.117 138.768 132.697 138.612 132.153 138.612C131.745 138.612 131.389 138.692 131.085 138.852C130.781 139.012 130.545 139.248 130.377 139.56C130.217 139.872 130.137 140.26 130.137 140.724V144H128.985V137.64H130.089V139.356L129.909 138.9C130.117 138.484 130.437 138.16 130.869 137.928C131.301 137.696 131.805 137.58 132.381 137.58ZM139.337 144.072C138.697 144.072 138.201 143.9 137.849 143.556C137.497 143.212 137.321 142.72 137.321 142.08V136.248H138.473V142.032C138.473 142.376 138.557 142.64 138.725 142.824C138.901 143.008 139.149 143.1 139.469 143.1C139.829 143.1 140.129 143 140.369 142.8L140.729 143.628C140.553 143.78 140.341 143.892 140.093 143.964C139.853 144.036 139.601 144.072 139.337 144.072ZM136.241 138.588V137.64H140.297V138.588H136.241ZM142.121 144V137.64H143.225V139.368L143.117 138.936C143.293 138.496 143.589 138.16 144.005 137.928C144.421 137.696 144.933 137.58 145.541 137.58V138.696C145.493 138.688 145.445 138.684 145.397 138.684C145.357 138.684 145.317 138.684 145.277 138.684C144.661 138.684 144.173 138.868 143.813 139.236C143.453 139.604 143.273 140.136 143.273 140.832V144H142.121ZM149.627 144.072C148.987 144.072 148.419 143.932 147.923 143.652C147.427 143.372 147.035 142.988 146.747 142.5C146.459 142.004 146.315 141.444 146.315 140.82C146.315 140.188 146.459 139.628 146.747 139.14C147.035 138.652 147.427 138.272 147.923 138C148.419 137.72 148.987 137.58 149.627 137.58C150.259 137.58 150.823 137.72 151.319 138C151.823 138.272 152.215 138.652 152.495 139.14C152.783 139.62 152.927 140.18 152.927 140.82C152.927 141.452 152.783 142.012 152.495 142.5C152.215 142.988 151.823 143.372 151.319 143.652C150.823 143.932 150.259 144.072 149.627 144.072ZM149.627 143.064C150.035 143.064 150.399 142.972 150.719 142.788C151.047 142.604 151.303 142.344 151.487 142.008C151.671 141.664 151.763 141.268 151.763 140.82C151.763 140.364 151.671 139.972 151.487 139.644C151.303 139.308 151.047 139.048 150.719 138.864C150.399 138.68 150.035 138.588 149.627 138.588C149.219 138.588 148.855 138.68 148.535 138.864C148.215 139.048 147.959 139.308 147.767 139.644C147.575 139.972 147.479 140.364 147.479 140.82C147.479 141.268 147.575 141.664 147.767 142.008C147.959 142.344 148.215 142.604 148.535 142.788C148.855 142.972 149.219 143.064 149.627 143.064ZM153.923 145.776L154.523 143.352L154.679 144.048C154.447 144.048 154.251 143.976 154.091 143.832C153.939 143.688 153.863 143.492 153.863 143.244C153.863 143.004 153.939 142.808 154.091 142.656C154.251 142.504 154.443 142.428 154.667 142.428C154.899 142.428 155.087 142.508 155.231 142.668C155.375 142.82 155.447 143.012 155.447 143.244C155.447 143.324 155.439 143.404 155.423 143.484C155.415 143.556 155.395 143.644 155.363 143.748C155.339 143.844 155.299 143.964 155.243 144.108L154.679 145.776H153.923ZM22.0315 159V152.076C22.0315 151.452 22.2115 150.956 22.5715 150.588C22.9395 150.212 23.4595 150.024 24.1315 150.024C24.3795 150.024 24.6155 150.056 24.8395 150.12C25.0715 150.176 25.2675 150.268 25.4275 150.396L25.0795 151.272C24.9595 151.176 24.8235 151.104 24.6715 151.056C24.5195 151 24.3595 150.972 24.1915 150.972C23.8555 150.972 23.5995 151.068 23.4235 151.26C23.2475 151.444 23.1595 151.72 23.1595 152.088V152.94L23.1835 153.468V159H22.0315ZM20.9515 153.588V152.64H25.0075V153.588H20.9515ZM28.7242 159.072C28.0842 159.072 27.5162 158.932 27.0202 158.652C26.5242 158.372 26.1322 157.988 25.8442 157.5C25.5562 157.004 25.4122 156.444 25.4122 155.82C25.4122 155.188 25.5562 154.628 25.8442 154.14C26.1322 153.652 26.5242 153.272 27.0202 153C27.5162 152.72 28.0842 152.58 28.7242 152.58C29.3562 152.58 29.9202 152.72 30.4162 153C30.9202 153.272 31.3122 153.652 31.5922 154.14C31.8802 154.62 32.0242 155.18 32.0242 155.82C32.0242 156.452 31.8802 157.012 31.5922 157.5C31.3122 157.988 30.9202 158.372 30.4162 158.652C29.9202 158.932 29.3562 159.072 28.7242 159.072ZM28.7242 158.064C29.1322 158.064 29.4962 157.972 29.8162 157.788C30.1442 157.604 30.4002 157.344 30.5842 157.008C30.7682 156.664 30.8602 156.268 30.8602 155.82C30.8602 155.364 30.7682 154.972 30.5842 154.644C30.4002 154.308 30.1442 154.048 29.8162 153.864C29.4962 153.68 29.1322 153.588 28.7242 153.588C28.3162 153.588 27.9522 153.68 27.6322 153.864C27.3122 154.048 27.0562 154.308 26.8642 154.644C26.6722 154.972 26.5762 155.364 26.5762 155.82C26.5762 156.268 26.6722 156.664 26.8642 157.008C27.0562 157.344 27.3122 157.604 27.6322 157.788C27.9522 157.972 28.3162 158.064 28.7242 158.064ZM33.6174 159V152.64H34.7214V154.368L34.6134 153.936C34.7894 153.496 35.0854 153.16 35.5014 152.928C35.9174 152.696 36.4294 152.58 37.0374 152.58V153.696C36.9894 153.688 36.9414 153.684 36.8934 153.684C36.8534 153.684 36.8134 153.684 36.7734 153.684C36.1574 153.684 35.6694 153.868 35.3094 154.236C34.9494 154.604 34.7694 155.136 34.7694 155.832V159H33.6174ZM46.4132 152.58C46.9252 152.58 47.3772 152.68 47.7692 152.88C48.1612 153.08 48.4652 153.384 48.6812 153.792C48.9052 154.2 49.0172 154.716 49.0172 155.34V159H47.8652V155.472C47.8652 154.856 47.7212 154.392 47.4332 154.08C47.1452 153.768 46.7412 153.612 46.2212 153.612C45.8372 153.612 45.5012 153.692 45.2132 153.852C44.9252 154.012 44.7012 154.248 44.5412 154.56C44.3892 154.872 44.3132 155.26 44.3132 155.724V159H43.1612V155.472C43.1612 154.856 43.0172 154.392 42.7292 154.08C42.4492 153.768 42.0452 153.612 41.5172 153.612C41.1412 153.612 40.8092 153.692 40.5212 153.852C40.2332 154.012 40.0092 154.248 39.8492 154.56C39.6892 154.872 39.6092 155.26 39.6092 155.724V159H38.4572V152.64H39.5612V154.332L39.3812 153.9C39.5812 153.484 39.8892 153.16 40.3052 152.928C40.7212 152.696 41.2052 152.58 41.7572 152.58C42.3652 152.58 42.8892 152.732 43.3292 153.036C43.7692 153.332 44.0572 153.784 44.1932 154.392L43.7252 154.2C43.9172 153.712 44.2532 153.32 44.7332 153.024C45.2132 152.728 45.7732 152.58 46.4132 152.58ZM55.0849 159V157.656L55.0249 157.404V155.112C55.0249 154.624 54.8809 154.248 54.5929 153.984C54.3129 153.712 53.8889 153.576 53.3209 153.576C52.9449 153.576 52.5769 153.64 52.2169 153.768C51.8569 153.888 51.5529 154.052 51.3049 154.26L50.8249 153.396C51.1529 153.132 51.5449 152.932 52.0009 152.796C52.4649 152.652 52.9489 152.58 53.4529 152.58C54.3249 152.58 54.9969 152.792 55.4689 153.216C55.9409 153.64 56.1769 154.288 56.1769 155.16V159H55.0849ZM52.9969 159.072C52.5249 159.072 52.1089 158.992 51.7489 158.832C51.3969 158.672 51.1249 158.452 50.9329 158.172C50.7409 157.884 50.6449 157.56 50.6449 157.2C50.6449 156.856 50.7249 156.544 50.8849 156.264C51.0529 155.984 51.3209 155.76 51.6889 155.592C52.0649 155.424 52.5689 155.34 53.2009 155.34H55.2169V156.168H53.2489C52.6729 156.168 52.2849 156.264 52.0849 156.456C51.8849 156.648 51.7849 156.88 51.7849 157.152C51.7849 157.464 51.9089 157.716 52.1569 157.908C52.4049 158.092 52.7489 158.184 53.1889 158.184C53.6209 158.184 53.9969 158.088 54.3169 157.896C54.6449 157.704 54.8809 157.424 55.0249 157.056L55.2529 157.848C55.1009 158.224 54.8329 158.524 54.4489 158.748C54.0649 158.964 53.5809 159.072 52.9969 159.072ZM61.7048 152.58C62.2248 152.58 62.6808 152.68 63.0728 152.88C63.4728 153.08 63.7848 153.384 64.0088 153.792C64.2328 154.2 64.3448 154.716 64.3448 155.34V159H63.1928V155.472C63.1928 154.856 63.0408 154.392 62.7368 154.08C62.4408 153.768 62.0208 153.612 61.4768 153.612C61.0688 153.612 60.7128 153.692 60.4088 153.852C60.1048 154.012 59.8688 154.248 59.7008 154.56C59.5408 154.872 59.4608 155.26 59.4608 155.724V159H58.3088V152.64H59.4128V154.356L59.2328 153.9C59.4408 153.484 59.7608 153.16 60.1928 152.928C60.6248 152.696 61.1288 152.58 61.7048 152.58ZM69.1048 159.072C68.4888 159.072 67.9368 158.936 67.4488 158.664C66.9688 158.392 66.5888 158.012 66.3088 157.524C66.0288 157.036 65.8888 156.468 65.8888 155.82C65.8888 155.172 66.0288 154.608 66.3088 154.128C66.5888 153.64 66.9688 153.26 67.4488 152.988C67.9368 152.716 68.4888 152.58 69.1048 152.58C69.6408 152.58 70.1248 152.7 70.5568 152.94C70.9888 153.18 71.3328 153.54 71.5888 154.02C71.8528 154.5 71.9848 155.1 71.9848 155.82C71.9848 156.54 71.8568 157.14 71.6008 157.62C71.3528 158.1 71.0128 158.464 70.5808 158.712C70.1488 158.952 69.6568 159.072 69.1048 159.072ZM69.2008 158.064C69.6008 158.064 69.9608 157.972 70.2808 157.788C70.6088 157.604 70.8648 157.344 71.0488 157.008C71.2408 156.664 71.3368 156.268 71.3368 155.82C71.3368 155.364 71.2408 154.972 71.0488 154.644C70.8648 154.308 70.6088 154.048 70.2808 153.864C69.9608 153.68 69.6008 153.588 69.2008 153.588C68.7928 153.588 68.4288 153.68 68.1088 153.864C67.7888 154.048 67.5328 154.308 67.3408 154.644C67.1488 154.972 67.0528 155.364 67.0528 155.82C67.0528 156.268 67.1488 156.664 67.3408 157.008C67.5328 157.344 67.7888 157.604 68.1088 157.788C68.4288 157.972 68.7928 158.064 69.2008 158.064ZM71.3728 159V157.284L71.4448 155.808L71.3248 154.332V150.096H72.4768V159H71.3728ZM77.3805 159.072C76.7405 159.072 76.1725 158.932 75.6765 158.652C75.1805 158.372 74.7885 157.988 74.5005 157.5C74.2125 157.004 74.0685 156.444 74.0685 155.82C74.0685 155.188 74.2125 154.628 74.5005 154.14C74.7885 153.652 75.1805 153.272 75.6765 153C76.1725 152.72 76.7405 152.58 77.3805 152.58C78.0125 152.58 78.5765 152.72 79.0725 153C79.5765 153.272 79.9685 153.652 80.2485 154.14C80.5365 154.62 80.6805 155.18 80.6805 155.82C80.6805 156.452 80.5365 157.012 80.2485 157.5C79.9685 157.988 79.5765 158.372 79.0725 158.652C78.5765 158.932 78.0125 159.072 77.3805 159.072ZM77.3805 158.064C77.7885 158.064 78.1525 157.972 78.4725 157.788C78.8005 157.604 79.0565 157.344 79.2405 157.008C79.4245 156.664 79.5165 156.268 79.5165 155.82C79.5165 155.364 79.4245 154.972 79.2405 154.644C79.0565 154.308 78.8005 154.048 78.4725 153.864C78.1525 153.68 77.7885 153.588 77.3805 153.588C76.9725 153.588 76.6085 153.68 76.2885 153.864C75.9685 154.048 75.7125 154.308 75.5205 154.644C75.3285 154.972 75.2325 155.364 75.2325 155.82C75.2325 156.268 75.3285 156.664 75.5205 157.008C75.7125 157.344 75.9685 157.604 76.2885 157.788C76.6085 157.972 76.9725 158.064 77.3805 158.064ZM88.1723 159.072C87.6283 159.072 87.1483 158.972 86.7323 158.772C86.3243 158.572 86.0043 158.268 85.7723 157.86C85.5483 157.444 85.4363 156.924 85.4363 156.3V152.64H86.5883V156.168C86.5883 156.792 86.7363 157.26 87.0323 157.572C87.3363 157.884 87.7603 158.04 88.3043 158.04C88.7043 158.04 89.0523 157.96 89.3483 157.8C89.6443 157.632 89.8723 157.392 90.0323 157.08C90.1923 156.76 90.2723 156.376 90.2723 155.928V152.64H91.4243V159H90.3323V157.284L90.5123 157.74C90.3043 158.164 89.9923 158.492 89.5763 158.724C89.1603 158.956 88.6923 159.072 88.1723 159.072ZM101.573 152.58C102.085 152.58 102.537 152.68 102.929 152.88C103.321 153.08 103.625 153.384 103.841 153.792C104.065 154.2 104.177 154.716 104.177 155.34V159H103.025V155.472C103.025 154.856 102.881 154.392 102.593 154.08C102.305 153.768 101.901 153.612 101.381 153.612C100.997 153.612 100.661 153.692 100.373 153.852C100.085 154.012 99.8614 154.248 99.7014 154.56C99.5494 154.872 99.4734 155.26 99.4734 155.724V159H98.3214V155.472C98.3214 154.856 98.1774 154.392 97.8894 154.08C97.6094 153.768 97.2054 153.612 96.6774 153.612C96.3014 153.612 95.9694 153.692 95.6814 153.852C95.3934 154.012 95.1694 154.248 95.0094 154.56C94.8494 154.872 94.7694 155.26 94.7694 155.724V159H93.6174V152.64H94.7214V154.332L94.5414 153.9C94.7414 153.484 95.0494 153.16 95.4654 152.928C95.8814 152.696 96.3654 152.58 96.9174 152.58C97.5254 152.58 98.0494 152.732 98.4894 153.036C98.9294 153.332 99.2174 153.784 99.3534 154.392L98.8854 154.2C99.0774 153.712 99.4134 153.32 99.8934 153.024C100.373 152.728 100.933 152.58 101.573 152.58ZM109.52 159V150.096H110.672V159H109.52ZM115.595 159.072C114.955 159.072 114.387 158.932 113.891 158.652C113.395 158.372 113.003 157.988 112.715 157.5C112.427 157.004 112.283 156.444 112.283 155.82C112.283 155.188 112.427 154.628 112.715 154.14C113.003 153.652 113.395 153.272 113.891 153C114.387 152.72 114.955 152.58 115.595 152.58C116.227 152.58 116.791 152.72 117.287 153C117.791 153.272 118.183 153.652 118.463 154.14C118.751 154.62 118.895 155.18 118.895 155.82C118.895 156.452 118.751 157.012 118.463 157.5C118.183 157.988 117.791 158.372 117.287 158.652C116.791 158.932 116.227 159.072 115.595 159.072ZM115.595 158.064C116.003 158.064 116.367 157.972 116.687 157.788C117.015 157.604 117.271 157.344 117.455 157.008C117.639 156.664 117.731 156.268 117.731 155.82C117.731 155.364 117.639 154.972 117.455 154.644C117.271 154.308 117.015 154.048 116.687 153.864C116.367 153.68 116.003 153.588 115.595 153.588C115.187 153.588 114.823 153.68 114.503 153.864C114.183 154.048 113.927 154.308 113.735 154.644C113.543 154.972 113.447 155.364 113.447 155.82C113.447 156.268 113.543 156.664 113.735 157.008C113.927 157.344 114.183 157.604 114.503 157.788C114.823 157.972 115.187 158.064 115.595 158.064ZM122.312 159.072C121.784 159.072 121.28 159 120.8 158.856C120.328 158.712 119.956 158.536 119.684 158.328L120.164 157.416C120.436 157.6 120.772 157.756 121.172 157.884C121.572 158.012 121.98 158.076 122.396 158.076C122.932 158.076 123.316 158 123.548 157.848C123.788 157.696 123.908 157.484 123.908 157.212C123.908 157.012 123.836 156.856 123.692 156.744C123.548 156.632 123.356 156.548 123.116 156.492C122.884 156.436 122.624 156.388 122.336 156.348C122.048 156.3 121.76 156.244 121.472 156.18C121.184 156.108 120.92 156.012 120.68 155.892C120.44 155.764 120.248 155.592 120.104 155.376C119.96 155.152 119.888 154.856 119.888 154.488C119.888 154.104 119.996 153.768 120.212 153.48C120.428 153.192 120.732 152.972 121.124 152.82C121.524 152.66 121.996 152.58 122.54 152.58C122.956 152.58 123.376 152.632 123.8 152.736C124.232 152.832 124.584 152.972 124.856 153.156L124.364 154.068C124.076 153.876 123.776 153.744 123.464 153.672C123.152 153.6 122.84 153.564 122.528 153.564C122.024 153.564 121.648 153.648 121.4 153.816C121.152 153.976 121.028 154.184 121.028 154.44C121.028 154.656 121.1 154.824 121.244 154.944C121.396 155.056 121.588 155.144 121.82 155.208C122.06 155.272 122.324 155.328 122.612 155.376C122.9 155.416 123.188 155.472 123.476 155.544C123.764 155.608 124.024 155.7 124.256 155.82C124.496 155.94 124.688 156.108 124.832 156.324C124.984 156.54 125.06 156.828 125.06 157.188C125.06 157.572 124.948 157.904 124.724 158.184C124.5 158.464 124.184 158.684 123.776 158.844C123.368 158.996 122.88 159.072 122.312 159.072ZM130.448 159V157.656L130.388 157.404V155.112C130.388 154.624 130.244 154.248 129.956 153.984C129.676 153.712 129.252 153.576 128.684 153.576C128.308 153.576 127.94 153.64 127.58 153.768C127.22 153.888 126.916 154.052 126.668 154.26L126.188 153.396C126.516 153.132 126.908 152.932 127.364 152.796C127.828 152.652 128.312 152.58 128.816 152.58C129.688 152.58 130.36 152.792 130.832 153.216C131.304 153.64 131.54 154.288 131.54 155.16V159H130.448ZM128.36 159.072C127.888 159.072 127.472 158.992 127.112 158.832C126.76 158.672 126.488 158.452 126.296 158.172C126.104 157.884 126.008 157.56 126.008 157.2C126.008 156.856 126.088 156.544 126.248 156.264C126.416 155.984 126.684 155.76 127.052 155.592C127.428 155.424 127.932 155.34 128.564 155.34H130.58V156.168H128.612C128.036 156.168 127.648 156.264 127.448 156.456C127.248 156.648 127.148 156.88 127.148 157.152C127.148 157.464 127.272 157.716 127.52 157.908C127.768 158.092 128.112 158.184 128.552 158.184C128.984 158.184 129.36 158.088 129.68 157.896C130.008 157.704 130.244 157.424 130.388 157.056L130.616 157.848C130.464 158.224 130.196 158.524 129.812 158.748C129.428 158.964 128.944 159.072 128.36 159.072ZM137.068 152.58C137.588 152.58 138.044 152.68 138.436 152.88C138.836 153.08 139.148 153.384 139.372 153.792C139.596 154.2 139.708 154.716 139.708 155.34V159H138.556V155.472C138.556 154.856 138.404 154.392 138.1 154.08C137.804 153.768 137.384 153.612 136.84 153.612C136.432 153.612 136.076 153.692 135.772 153.852C135.468 154.012 135.232 154.248 135.064 154.56C134.904 154.872 134.824 155.26 134.824 155.724V159H133.672V152.64H134.776V154.356L134.596 153.9C134.804 153.484 135.124 153.16 135.556 152.928C135.988 152.696 136.492 152.58 137.068 152.58ZM144.624 161.4C144.04 161.4 143.472 161.316 142.92 161.148C142.376 160.988 141.932 160.756 141.588 160.452L142.14 159.564C142.436 159.82 142.8 160.02 143.232 160.164C143.664 160.316 144.116 160.392 144.588 160.392C145.34 160.392 145.892 160.216 146.244 159.864C146.596 159.512 146.772 158.976 146.772 158.256V156.912L146.892 155.652L146.832 154.38V152.64H147.924V158.136C147.924 159.256 147.644 160.08 147.084 160.608C146.524 161.136 145.704 161.4 144.624 161.4ZM144.48 158.736C143.864 158.736 143.312 158.608 142.824 158.352C142.344 158.088 141.96 157.724 141.672 157.26C141.392 156.796 141.252 156.26 141.252 155.652C141.252 155.036 141.392 154.5 141.672 154.044C141.96 153.58 142.344 153.22 142.824 152.964C143.312 152.708 143.864 152.58 144.48 152.58C145.024 152.58 145.52 152.692 145.968 152.916C146.416 153.132 146.772 153.468 147.036 153.924C147.308 154.38 147.444 154.956 147.444 155.652C147.444 156.34 147.308 156.912 147.036 157.368C146.772 157.824 146.416 158.168 145.968 158.4C145.52 158.624 145.024 158.736 144.48 158.736ZM144.612 157.728C145.036 157.728 145.412 157.64 145.74 157.464C146.068 157.288 146.324 157.044 146.508 156.732C146.7 156.42 146.796 156.06 146.796 155.652C146.796 155.244 146.7 154.884 146.508 154.572C146.324 154.26 146.068 154.02 145.74 153.852C145.412 153.676 145.036 153.588 144.612 153.588C144.188 153.588 143.808 153.676 143.472 153.852C143.144 154.02 142.884 154.26 142.692 154.572C142.508 154.884 142.416 155.244 142.416 155.652C142.416 156.06 142.508 156.42 142.692 156.732C142.884 157.044 143.144 157.288 143.472 157.464C143.808 157.64 144.188 157.728 144.612 157.728ZM152.849 159.072C152.209 159.072 151.641 158.932 151.145 158.652C150.649 158.372 150.257 157.988 149.969 157.5C149.681 157.004 149.537 156.444 149.537 155.82C149.537 155.188 149.681 154.628 149.969 154.14C150.257 153.652 150.649 153.272 151.145 153C151.641 152.72 152.209 152.58 152.849 152.58C153.481 152.58 154.045 152.72 154.541 153C155.045 153.272 155.437 153.652 155.717 154.14C156.005 154.62 156.149 155.18 156.149 155.82C156.149 156.452 156.005 157.012 155.717 157.5C155.437 157.988 155.045 158.372 154.541 158.652C154.045 158.932 153.481 159.072 152.849 159.072ZM152.849 158.064C153.257 158.064 153.621 157.972 153.941 157.788C154.269 157.604 154.525 157.344 154.709 157.008C154.893 156.664 154.985 156.268 154.985 155.82C154.985 155.364 154.893 154.972 154.709 154.644C154.525 154.308 154.269 154.048 153.941 153.864C153.621 153.68 153.257 153.588 152.849 153.588C152.441 153.588 152.077 153.68 151.757 153.864C151.437 154.048 151.181 154.308 150.989 154.644C150.797 154.972 150.701 155.364 150.701 155.82C150.701 156.268 150.797 156.664 150.989 157.008C151.181 157.344 151.437 157.604 151.757 157.788C152.077 157.972 152.441 158.064 152.849 158.064ZM157.878 159.072C157.654 159.072 157.462 158.996 157.302 158.844C157.142 158.684 157.062 158.484 157.062 158.244C157.062 158.004 157.142 157.808 157.302 157.656C157.462 157.504 157.654 157.428 157.878 157.428C158.094 157.428 158.278 157.504 158.43 157.656C158.59 157.808 158.67 158.004 158.67 158.244C158.67 158.484 158.59 158.684 158.43 158.844C158.278 158.996 158.094 159.072 157.878 159.072Z" fill="#008E86"/>
<path d="M46.5 55L136.5 55L84.5 100L46.5 55Z" fill="#008E86" stroke="#00635D" stroke-width="2" stroke-linejoin="round"/>
<path d="M46.5 55H136.5L91.5 100L46.5 55Z" fill="#00D8CC" stroke="#00635D" stroke-width="2" stroke-linejoin="round"/>
<path d="M114.5 78L91.5 55" stroke="#333333" stroke-width="2" stroke-dasharray="4 4"/>
<path d="M68.5 78L91.5 55" stroke="#333333" stroke-width="2" stroke-dasharray="4 4"/>
<path d="M64.7362 55.3926C64.1995 55.2625 63.6589 55.5922 63.5288 56.1289C63.3987 56.6657 63.7283 57.2062 64.2651 57.3363L64.7362 55.3926ZM78.6509 82.8729C78.9155 83.3577 79.523 83.5362 80.0078 83.2716L87.9077 78.9599C88.3925 78.6953 88.571 78.0878 88.3064 77.603C88.0418 77.1182 87.4343 76.9397 86.9496 77.2043L79.9274 81.037L76.0947 74.0148C75.8301 73.5301 75.2227 73.3516 74.7379 73.6162C74.2531 73.8807 74.0746 74.4882 74.3392 74.973L78.6509 82.8729ZM64.2651 57.3363C70.2091 58.7772 74.4456 62.1316 76.9447 66.4602L78.6767 65.4602C75.894 60.6405 71.1922 56.9575 64.7362 55.3926L64.2651 57.3363ZM76.9447 66.4602C78.1677 68.5785 78.8932 71.4371 79.1456 74.3395C79.3977 77.2396 79.168 80.0743 78.5693 82.1119L80.4882 82.6758C81.1741 80.3414 81.4058 77.2464 81.138 74.1662C80.8704 71.0883 80.0946 67.9161 78.6767 65.4602L76.9447 66.4602Z" fill="black"/>
<path d="M102.848 83.2735C103.333 83.5381 103.941 83.3596 104.205 82.8748L108.517 74.9749C108.782 74.4901 108.603 73.8826 108.118 73.618C107.634 73.3535 107.026 73.532 106.761 74.0167L102.929 81.0389L95.9066 77.2062C95.4218 76.9416 94.8144 77.1201 94.5498 77.6049C94.2852 78.0897 94.4637 78.6972 94.9485 78.9618L102.848 83.2735ZM118.591 57.3382C119.128 57.2081 119.457 56.6675 119.327 56.1308C119.197 55.5941 118.657 55.2644 118.12 55.3945L118.591 57.3382ZM104.287 82.1138C102.563 76.2457 103.349 70.8996 105.849 66.571L104.117 65.571C101.334 70.3908 100.495 76.3042 102.368 82.6777L104.287 82.1138ZM105.849 66.571C107.072 64.4527 109.184 62.3951 111.572 60.7254C113.957 59.057 116.527 57.8385 118.591 57.3382L118.12 55.3945C115.755 55.9677 112.959 57.3145 110.426 59.0865C107.894 60.8572 105.534 63.1151 104.117 65.571L105.849 66.571Z" fill="black"/>
</svg>
