<svg width="180" height="180" viewBox="0 0 180 180" fill="none" xmlns="http://www.w3.org/2000/svg">
<rect width="180" height="180" rx="20" fill="#F2F2F2"/>
<path d="M41.467 122V113.6H45.007C45.903 113.6 46.691 113.776 47.371 114.128C48.059 114.48 48.591 114.972 48.967 115.604C49.351 116.236 49.543 116.968 49.543 117.8C49.543 118.632 49.351 119.364 48.967 119.996C48.591 120.628 48.059 121.12 47.371 121.472C46.691 121.824 45.903 122 45.007 122H41.467ZM42.667 120.956H44.935C45.631 120.956 46.231 120.824 46.735 120.56C47.247 120.296 47.643 119.928 47.923 119.456C48.203 118.976 48.343 118.424 48.343 117.8C48.343 117.168 48.203 116.616 47.923 116.144C47.643 115.672 47.247 115.304 46.735 115.04C46.231 114.776 45.631 114.644 44.935 114.644H42.667V120.956ZM53.9371 122.072C53.2971 122.072 52.7291 121.932 52.2331 121.652C51.7371 121.372 51.3451 120.988 51.0571 120.5C50.7691 120.004 50.6251 119.444 50.6251 118.82C50.6251 118.188 50.7691 117.628 51.0571 117.14C51.3451 116.652 51.7371 116.272 52.2331 116C52.7291 115.72 53.2971 115.58 53.9371 115.58C54.5691 115.58 55.1331 115.72 55.6291 116C56.1331 116.272 56.5251 116.652 56.8051 117.14C57.0931 117.62 57.2371 118.18 57.2371 118.82C57.2371 119.452 57.0931 120.012 56.8051 120.5C56.5251 120.988 56.1331 121.372 55.6291 121.652C55.1331 121.932 54.5691 122.072 53.9371 122.072ZM53.9371 121.064C54.3451 121.064 54.7091 120.972 55.0291 120.788C55.3571 120.604 55.6131 120.344 55.7971 120.008C55.9811 119.664 56.0731 119.268 56.0731 118.82C56.0731 118.364 55.9811 117.972 55.7971 117.644C55.6131 117.308 55.3571 117.048 55.0291 116.864C54.7091 116.68 54.3451 116.588 53.9371 116.588C53.5291 116.588 53.1651 116.68 52.8451 116.864C52.5251 117.048 52.2691 117.308 52.0771 117.644C51.8851 117.972 51.7891 118.364 51.7891 118.82C51.7891 119.268 51.8851 119.664 52.0771 120.008C52.2691 120.344 52.5251 120.604 52.8451 120.788C53.1651 120.972 53.5291 121.064 53.9371 121.064ZM62.2023 122.072C61.6583 122.072 61.1663 121.952 60.7263 121.712C60.2943 121.464 59.9503 121.1 59.6943 120.62C59.4463 120.14 59.3223 119.54 59.3223 118.82C59.3223 118.1 59.4503 117.5 59.7063 117.02C59.9703 116.54 60.3183 116.18 60.7503 115.94C61.1903 115.7 61.6743 115.58 62.2023 115.58C62.8263 115.58 63.3783 115.716 63.8583 115.988C64.3383 116.26 64.7183 116.64 64.9983 117.128C65.2783 117.608 65.4183 118.172 65.4183 118.82C65.4183 119.468 65.2783 120.036 64.9983 120.524C64.7183 121.012 64.3383 121.392 63.8583 121.664C63.3783 121.936 62.8263 122.072 62.2023 122.072ZM58.8303 122V113.096H59.9823V117.332L59.8623 118.808L59.9343 120.284V122H58.8303ZM62.1063 121.064C62.5143 121.064 62.8783 120.972 63.1983 120.788C63.5263 120.604 63.7823 120.344 63.9663 120.008C64.1583 119.664 64.2543 119.268 64.2543 118.82C64.2543 118.364 64.1583 117.972 63.9663 117.644C63.7823 117.308 63.5263 117.048 63.1983 116.864C62.8783 116.68 62.5143 116.588 62.1063 116.588C61.7063 116.588 61.3423 116.68 61.0143 116.864C60.6943 117.048 60.4383 117.308 60.2463 117.644C60.0623 117.972 59.9703 118.364 59.9703 118.82C59.9703 119.268 60.0623 119.664 60.2463 120.008C60.4383 120.344 60.6943 120.604 61.0143 120.788C61.3423 120.972 61.7063 121.064 62.1063 121.064ZM67.01 122V115.64H68.114V117.368L68.006 116.936C68.182 116.496 68.478 116.16 68.894 115.928C69.31 115.696 69.822 115.58 70.43 115.58V116.696C70.382 116.688 70.334 116.684 70.286 116.684C70.246 116.684 70.206 116.684 70.166 116.684C69.55 116.684 69.062 116.868 68.702 117.236C68.342 117.604 68.162 118.136 68.162 118.832V122H67.01ZM74.6232 122.072C73.9432 122.072 73.3432 121.932 72.8232 121.652C72.3112 121.372 71.9112 120.988 71.6232 120.5C71.3432 120.012 71.2032 119.452 71.2032 118.82C71.2032 118.188 71.3392 117.628 71.6112 117.14C71.8912 116.652 72.2712 116.272 72.7512 116C73.2392 115.72 73.7872 115.58 74.3952 115.58C75.0112 115.58 75.5552 115.716 76.0272 115.988C76.4992 116.26 76.8672 116.644 77.1312 117.14C77.4032 117.628 77.5392 118.2 77.5392 118.856C77.5392 118.904 77.5352 118.96 77.5272 119.024C77.5272 119.088 77.5232 119.148 77.5152 119.204H72.1032V118.376H76.9152L76.4472 118.664C76.4552 118.256 76.3712 117.892 76.1952 117.572C76.0192 117.252 75.7752 117.004 75.4632 116.828C75.1592 116.644 74.8032 116.552 74.3952 116.552C73.9952 116.552 73.6392 116.644 73.3272 116.828C73.0152 117.004 72.7712 117.256 72.5952 117.584C72.4192 117.904 72.3312 118.272 72.3312 118.688V118.88C72.3312 119.304 72.4272 119.684 72.6192 120.02C72.8192 120.348 73.0952 120.604 73.4472 120.788C73.7992 120.972 74.2032 121.064 74.6592 121.064C75.0352 121.064 75.3752 121 75.6792 120.872C75.9912 120.744 76.2632 120.552 76.4952 120.296L77.1312 121.04C76.8432 121.376 76.4832 121.632 76.0512 121.808C75.6272 121.984 75.1512 122.072 74.6232 122.072ZM86.3095 122V120.656L86.2495 120.404V118.112C86.2495 117.624 86.1055 117.248 85.8175 116.984C85.5375 116.712 85.1135 116.576 84.5455 116.576C84.1695 116.576 83.8015 116.64 83.4415 116.768C83.0815 116.888 82.7775 117.052 82.5295 117.26L82.0495 116.396C82.3775 116.132 82.7695 115.932 83.2255 115.796C83.6895 115.652 84.1735 115.58 84.6775 115.58C85.5495 115.58 86.2215 115.792 86.6935 116.216C87.1655 116.64 87.4015 117.288 87.4015 118.16V122H86.3095ZM84.2215 122.072C83.7495 122.072 83.3335 121.992 82.9735 121.832C82.6215 121.672 82.3495 121.452 82.1575 121.172C81.9655 120.884 81.8695 120.56 81.8695 120.2C81.8695 119.856 81.9495 119.544 82.1095 119.264C82.2775 118.984 82.5455 118.76 82.9135 118.592C83.2895 118.424 83.7935 118.34 84.4255 118.34H86.4415V119.168H84.4735C83.8975 119.168 83.5095 119.264 83.3095 119.456C83.1095 119.648 83.0095 119.88 83.0095 120.152C83.0095 120.464 83.1335 120.716 83.3815 120.908C83.6295 121.092 83.9735 121.184 84.4135 121.184C84.8455 121.184 85.2215 121.088 85.5415 120.896C85.8695 120.704 86.1055 120.424 86.2495 120.056L86.4775 120.848C86.3255 121.224 86.0575 121.524 85.6735 121.748C85.2895 121.964 84.8055 122.072 84.2215 122.072ZM91.3574 122.072C90.8294 122.072 90.3254 122 89.8454 121.856C89.3734 121.712 89.0014 121.536 88.7294 121.328L89.2094 120.416C89.4814 120.6 89.8174 120.756 90.2174 120.884C90.6174 121.012 91.0254 121.076 91.4414 121.076C91.9774 121.076 92.3614 121 92.5934 120.848C92.8334 120.696 92.9534 120.484 92.9534 120.212C92.9534 120.012 92.8814 119.856 92.7374 119.744C92.5934 119.632 92.4014 119.548 92.1614 119.492C91.9294 119.436 91.6694 119.388 91.3814 119.348C91.0934 119.3 90.8054 119.244 90.5174 119.18C90.2294 119.108 89.9654 119.012 89.7254 118.892C89.4854 118.764 89.2934 118.592 89.1494 118.376C89.0054 118.152 88.9334 117.856 88.9334 117.488C88.9334 117.104 89.0414 116.768 89.2574 116.48C89.4734 116.192 89.7774 115.972 90.1694 115.82C90.5694 115.66 91.0414 115.58 91.5854 115.58C92.0014 115.58 92.4214 115.632 92.8454 115.736C93.2774 115.832 93.6294 115.972 93.9014 116.156L93.4094 117.068C93.1214 116.876 92.8214 116.744 92.5094 116.672C92.1974 116.6 91.8854 116.564 91.5734 116.564C91.0694 116.564 90.6934 116.648 90.4454 116.816C90.1974 116.976 90.0734 117.184 90.0734 117.44C90.0734 117.656 90.1454 117.824 90.2894 117.944C90.4414 118.056 90.6334 118.144 90.8654 118.208C91.1054 118.272 91.3694 118.328 91.6574 118.376C91.9454 118.416 92.2334 118.472 92.5214 118.544C92.8094 118.608 93.0694 118.7 93.3014 118.82C93.5414 118.94 93.7334 119.108 93.8774 119.324C94.0294 119.54 94.1054 119.828 94.1054 120.188C94.1054 120.572 93.9934 120.904 93.7694 121.184C93.5454 121.464 93.2294 121.684 92.8214 121.844C92.4134 121.996 91.9254 122.072 91.3574 122.072ZM102.14 122.072C101.612 122.072 101.128 121.952 100.688 121.712C100.256 121.464 99.9078 121.1 99.6438 120.62C99.3878 120.14 99.2598 119.54 99.2598 118.82C99.2598 118.1 99.3838 117.5 99.6318 117.02C99.8878 116.54 100.232 116.18 100.664 115.94C101.104 115.7 101.596 115.58 102.14 115.58C102.764 115.58 103.316 115.716 103.796 115.988C104.276 116.26 104.656 116.64 104.936 117.128C105.216 117.608 105.356 118.172 105.356 118.82C105.356 119.468 105.216 120.036 104.936 120.524C104.656 121.012 104.276 121.392 103.796 121.664C103.316 121.936 102.764 122.072 102.14 122.072ZM98.7678 124.328V115.64H99.8718V117.356L99.7998 118.832L99.9198 120.308V124.328H98.7678ZM102.044 121.064C102.452 121.064 102.816 120.972 103.136 120.788C103.464 120.604 103.72 120.344 103.904 120.008C104.096 119.664 104.192 119.268 104.192 118.82C104.192 118.364 104.096 117.972 103.904 117.644C103.72 117.308 103.464 117.048 103.136 116.864C102.816 116.68 102.452 116.588 102.044 116.588C101.644 116.588 101.28 116.68 100.952 116.864C100.632 117.048 100.376 117.308 100.184 117.644C99.9998 117.972 99.9078 118.364 99.9078 118.82C99.9078 119.268 99.9998 119.664 100.184 120.008C100.376 120.344 100.632 120.604 100.952 120.788C101.28 120.972 101.644 121.064 102.044 121.064ZM109.671 122.072C109.031 122.072 108.463 121.932 107.967 121.652C107.471 121.372 107.079 120.988 106.791 120.5C106.503 120.004 106.359 119.444 106.359 118.82C106.359 118.188 106.503 117.628 106.791 117.14C107.079 116.652 107.471 116.272 107.967 116C108.463 115.72 109.031 115.58 109.671 115.58C110.303 115.58 110.867 115.72 111.363 116C111.867 116.272 112.259 116.652 112.539 117.14C112.827 117.62 112.971 118.18 112.971 118.82C112.971 119.452 112.827 120.012 112.539 120.5C112.259 120.988 111.867 121.372 111.363 121.652C110.867 121.932 110.303 122.072 109.671 122.072ZM109.671 121.064C110.079 121.064 110.443 120.972 110.763 120.788C111.091 120.604 111.347 120.344 111.531 120.008C111.715 119.664 111.807 119.268 111.807 118.82C111.807 118.364 111.715 117.972 111.531 117.644C111.347 117.308 111.091 117.048 110.763 116.864C110.443 116.68 110.079 116.588 109.671 116.588C109.263 116.588 108.899 116.68 108.579 116.864C108.259 117.048 108.003 117.308 107.811 117.644C107.619 117.972 107.523 118.364 107.523 118.82C107.523 119.268 107.619 119.664 107.811 120.008C108.003 120.344 108.259 120.604 108.579 120.788C108.899 120.972 109.263 121.064 109.671 121.064ZM117.961 115.58C118.481 115.58 118.937 115.68 119.329 115.88C119.729 116.08 120.041 116.384 120.265 116.792C120.489 117.2 120.601 117.716 120.601 118.34V122H119.449V118.472C119.449 117.856 119.297 117.392 118.993 117.08C118.697 116.768 118.277 116.612 117.733 116.612C117.325 116.612 116.969 116.692 116.665 116.852C116.361 117.012 116.125 117.248 115.957 117.56C115.797 117.872 115.717 118.26 115.717 118.724V122H114.565V115.64H115.669V117.356L115.489 116.9C115.697 116.484 116.017 116.16 116.449 115.928C116.881 115.696 117.385 115.58 117.961 115.58ZM124.917 122.072C124.277 122.072 123.781 121.9 123.429 121.556C123.077 121.212 122.901 120.72 122.901 120.08V114.248H124.053V120.032C124.053 120.376 124.137 120.64 124.305 120.824C124.481 121.008 124.729 121.1 125.049 121.1C125.409 121.1 125.709 121 125.949 120.8L126.309 121.628C126.133 121.78 125.921 121.892 125.673 121.964C125.433 122.036 125.181 122.072 124.917 122.072ZM121.821 116.588V115.64H125.877V116.588H121.821ZM131.649 122V120.656L131.589 120.404V118.112C131.589 117.624 131.445 117.248 131.157 116.984C130.877 116.712 130.453 116.576 129.885 116.576C129.509 116.576 129.141 116.64 128.781 116.768C128.421 116.888 128.117 117.052 127.869 117.26L127.389 116.396C127.717 116.132 128.109 115.932 128.565 115.796C129.029 115.652 129.513 115.58 130.017 115.58C130.889 115.58 131.561 115.792 132.033 116.216C132.505 116.64 132.741 117.288 132.741 118.16V122H131.649ZM129.561 122.072C129.089 122.072 128.673 121.992 128.313 121.832C127.961 121.672 127.689 121.452 127.497 121.172C127.305 120.884 127.209 120.56 127.209 120.2C127.209 119.856 127.289 119.544 127.449 119.264C127.617 118.984 127.885 118.76 128.253 118.592C128.629 118.424 129.133 118.34 129.765 118.34H131.781V119.168H129.813C129.237 119.168 128.849 119.264 128.649 119.456C128.449 119.648 128.349 119.88 128.349 120.152C128.349 120.464 128.473 120.716 128.721 120.908C128.969 121.092 129.313 121.184 129.753 121.184C130.185 121.184 130.561 121.088 130.881 120.896C131.209 120.704 131.445 120.424 131.589 120.056L131.817 120.848C131.665 121.224 131.397 121.524 131.013 121.748C130.629 121.964 130.145 122.072 129.561 122.072ZM136.697 122.072C136.169 122.072 135.665 122 135.185 121.856C134.713 121.712 134.341 121.536 134.069 121.328L134.549 120.416C134.821 120.6 135.157 120.756 135.557 120.884C135.957 121.012 136.365 121.076 136.781 121.076C137.317 121.076 137.701 121 137.933 120.848C138.173 120.696 138.293 120.484 138.293 120.212C138.293 120.012 138.221 119.856 138.077 119.744C137.933 119.632 137.741 119.548 137.501 119.492C137.269 119.436 137.009 119.388 136.721 119.348C136.433 119.3 136.145 119.244 135.857 119.18C135.569 119.108 135.305 119.012 135.065 118.892C134.825 118.764 134.633 118.592 134.489 118.376C134.345 118.152 134.273 117.856 134.273 117.488C134.273 117.104 134.381 116.768 134.597 116.48C134.813 116.192 135.117 115.972 135.509 115.82C135.909 115.66 136.381 115.58 136.925 115.58C137.341 115.58 137.761 115.632 138.185 115.736C138.617 115.832 138.969 115.972 139.241 116.156L138.749 117.068C138.461 116.876 138.161 116.744 137.849 116.672C137.537 116.6 137.225 116.564 136.913 116.564C136.409 116.564 136.033 116.648 135.785 116.816C135.537 116.976 135.413 117.184 135.413 117.44C135.413 117.656 135.485 117.824 135.629 117.944C135.781 118.056 135.973 118.144 136.205 118.208C136.445 118.272 136.709 118.328 136.997 118.376C137.285 118.416 137.573 118.472 137.861 118.544C138.149 118.608 138.409 118.7 138.641 118.82C138.881 118.94 139.073 119.108 139.217 119.324C139.369 119.54 139.445 119.828 139.445 120.188C139.445 120.572 139.333 120.904 139.109 121.184C138.885 121.464 138.569 121.684 138.161 121.844C137.753 121.996 137.265 122.072 136.697 122.072ZM27.383 137V130.64H28.535V137H27.383ZM27.959 129.416C27.735 129.416 27.547 129.344 27.395 129.2C27.251 129.056 27.179 128.88 27.179 128.672C27.179 128.456 27.251 128.276 27.395 128.132C27.547 127.988 27.735 127.916 27.959 127.916C28.183 127.916 28.367 127.988 28.511 128.132C28.663 128.268 28.739 128.44 28.739 128.648C28.739 128.864 28.667 129.048 28.523 129.2C28.379 129.344 28.191 129.416 27.959 129.416ZM34.1306 130.58C34.6506 130.58 35.1066 130.68 35.4986 130.88C35.8986 131.08 36.2106 131.384 36.4346 131.792C36.6586 132.2 36.7706 132.716 36.7706 133.34V137H35.6186V133.472C35.6186 132.856 35.4666 132.392 35.1626 132.08C34.8666 131.768 34.4466 131.612 33.9026 131.612C33.4946 131.612 33.1386 131.692 32.8346 131.852C32.5306 132.012 32.2946 132.248 32.1266 132.56C31.9666 132.872 31.8866 133.26 31.8866 133.724V137H30.7346V130.64H31.8386V132.356L31.6586 131.9C31.8666 131.484 32.1866 131.16 32.6186 130.928C33.0506 130.696 33.5546 130.58 34.1306 130.58ZM39.0705 137V130.076C39.0705 129.452 39.2505 128.956 39.6105 128.588C39.9785 128.212 40.4985 128.024 41.1705 128.024C41.4185 128.024 41.6545 128.056 41.8785 128.12C42.1105 128.176 42.3065 128.268 42.4665 128.396L42.1185 129.272C41.9985 129.176 41.8625 129.104 41.7105 129.056C41.5585 129 41.3985 128.972 41.2305 128.972C40.8945 128.972 40.6385 129.068 40.4625 129.26C40.2865 129.444 40.1985 129.72 40.1985 130.088V130.94L40.2225 131.468V137H39.0705ZM37.9905 131.588V130.64H42.0465V131.588H37.9905ZM45.8713 137.072C45.1913 137.072 44.5913 136.932 44.0713 136.652C43.5593 136.372 43.1593 135.988 42.8713 135.5C42.5913 135.012 42.4513 134.452 42.4513 133.82C42.4513 133.188 42.5873 132.628 42.8593 132.14C43.1393 131.652 43.5193 131.272 43.9993 131C44.4873 130.72 45.0353 130.58 45.6433 130.58C46.2593 130.58 46.8033 130.716 47.2753 130.988C47.7473 131.26 48.1153 131.644 48.3793 132.14C48.6513 132.628 48.7873 133.2 48.7873 133.856C48.7873 133.904 48.7833 133.96 48.7753 134.024C48.7753 134.088 48.7713 134.148 48.7633 134.204H43.3513V133.376H48.1633L47.6953 133.664C47.7033 133.256 47.6193 132.892 47.4433 132.572C47.2673 132.252 47.0233 132.004 46.7113 131.828C46.4073 131.644 46.0513 131.552 45.6433 131.552C45.2433 131.552 44.8873 131.644 44.5753 131.828C44.2633 132.004 44.0193 132.256 43.8433 132.584C43.6673 132.904 43.5793 133.272 43.5793 133.688V133.88C43.5793 134.304 43.6753 134.684 43.8673 135.02C44.0673 135.348 44.3433 135.604 44.6953 135.788C45.0473 135.972 45.4513 136.064 45.9073 136.064C46.2833 136.064 46.6233 136 46.9273 135.872C47.2393 135.744 47.5113 135.552 47.7433 135.296L48.3793 136.04C48.0913 136.376 47.7313 136.632 47.2993 136.808C46.8753 136.984 46.3993 137.072 45.8713 137.072ZM50.3869 137V130.64H51.4909V132.368L51.3829 131.936C51.5589 131.496 51.8549 131.16 52.2709 130.928C52.6869 130.696 53.1989 130.58 53.8069 130.58V131.696C53.7589 131.688 53.7109 131.684 53.6629 131.684C53.6229 131.684 53.5829 131.684 53.5429 131.684C52.9269 131.684 52.4389 131.868 52.0789 132.236C51.7189 132.604 51.5389 133.136 51.5389 133.832V137H50.3869ZM55.2268 137V130.64H56.3788V137H55.2268ZM55.8028 129.416C55.5788 129.416 55.3908 129.344 55.2388 129.2C55.0948 129.056 55.0228 128.88 55.0228 128.672C55.0228 128.456 55.0948 128.276 55.2388 128.132C55.3908 127.988 55.5788 127.916 55.8028 127.916C56.0268 127.916 56.2108 127.988 56.3548 128.132C56.5068 128.268 56.5828 128.44 56.5828 128.648C56.5828 128.864 56.5108 129.048 56.3668 129.2C56.2228 129.344 56.0348 129.416 55.8028 129.416ZM61.3023 137.072C60.6623 137.072 60.0943 136.932 59.5983 136.652C59.1023 136.372 58.7103 135.988 58.4223 135.5C58.1343 135.004 57.9903 134.444 57.9903 133.82C57.9903 133.188 58.1343 132.628 58.4223 132.14C58.7103 131.652 59.1023 131.272 59.5983 131C60.0943 130.72 60.6623 130.58 61.3023 130.58C61.9343 130.58 62.4983 130.72 62.9943 131C63.4983 131.272 63.8903 131.652 64.1703 132.14C64.4583 132.62 64.6023 133.18 64.6023 133.82C64.6023 134.452 64.4583 135.012 64.1703 135.5C63.8903 135.988 63.4983 136.372 62.9943 136.652C62.4983 136.932 61.9343 137.072 61.3023 137.072ZM61.3023 136.064C61.7103 136.064 62.0743 135.972 62.3943 135.788C62.7223 135.604 62.9783 135.344 63.1623 135.008C63.3463 134.664 63.4383 134.268 63.4383 133.82C63.4383 133.364 63.3463 132.972 63.1623 132.644C62.9783 132.308 62.7223 132.048 62.3943 131.864C62.0743 131.68 61.7103 131.588 61.3023 131.588C60.8943 131.588 60.5303 131.68 60.2103 131.864C59.8903 132.048 59.6343 132.308 59.4423 132.644C59.2503 132.972 59.1543 133.364 59.1543 133.82C59.1543 134.268 59.2503 134.664 59.4423 135.008C59.6343 135.344 59.8903 135.604 60.2103 135.788C60.5303 135.972 60.8943 136.064 61.3023 136.064ZM66.1955 137V130.64H67.2995V132.368L67.1915 131.936C67.3675 131.496 67.6635 131.16 68.0795 130.928C68.4955 130.696 69.0075 130.58 69.6155 130.58V131.696C69.5675 131.688 69.5195 131.684 69.4715 131.684C69.4315 131.684 69.3915 131.684 69.3515 131.684C68.7355 131.684 68.2475 131.868 67.8875 132.236C67.5275 132.604 67.3475 133.136 67.3475 133.832V137H66.1955ZM73.8088 137.072C73.1288 137.072 72.5288 136.932 72.0088 136.652C71.4968 136.372 71.0968 135.988 70.8088 135.5C70.5288 135.012 70.3888 134.452 70.3888 133.82C70.3888 133.188 70.5248 132.628 70.7968 132.14C71.0768 131.652 71.4568 131.272 71.9368 131C72.4248 130.72 72.9728 130.58 73.5808 130.58C74.1968 130.58 74.7408 130.716 75.2128 130.988C75.6848 131.26 76.0528 131.644 76.3168 132.14C76.5888 132.628 76.7248 133.2 76.7248 133.856C76.7248 133.904 76.7208 133.96 76.7128 134.024C76.7128 134.088 76.7088 134.148 76.7008 134.204H71.2888V133.376H76.1008L75.6328 133.664C75.6408 133.256 75.5568 132.892 75.3808 132.572C75.2048 132.252 74.9608 132.004 74.6488 131.828C74.3448 131.644 73.9888 131.552 73.5808 131.552C73.1808 131.552 72.8248 131.644 72.5128 131.828C72.2008 132.004 71.9568 132.256 71.7808 132.584C71.6048 132.904 71.5168 133.272 71.5168 133.688V133.88C71.5168 134.304 71.6128 134.684 71.8048 135.02C72.0048 135.348 72.2808 135.604 72.6328 135.788C72.9848 135.972 73.3888 136.064 73.8448 136.064C74.2208 136.064 74.5608 136 74.8648 135.872C75.1768 135.744 75.4488 135.552 75.6808 135.296L76.3168 136.04C76.0288 136.376 75.6688 136.632 75.2368 136.808C74.8128 136.984 74.3368 137.072 73.8088 137.072ZM80.1484 137.072C79.6204 137.072 79.1164 137 78.6364 136.856C78.1644 136.712 77.7924 136.536 77.5204 136.328L78.0004 135.416C78.2724 135.6 78.6084 135.756 79.0084 135.884C79.4084 136.012 79.8164 136.076 80.2324 136.076C80.7684 136.076 81.1524 136 81.3844 135.848C81.6244 135.696 81.7444 135.484 81.7444 135.212C81.7444 135.012 81.6724 134.856 81.5284 134.744C81.3844 134.632 81.1924 134.548 80.9524 134.492C80.7204 134.436 80.4604 134.388 80.1724 134.348C79.8844 134.3 79.5964 134.244 79.3084 134.18C79.0204 134.108 78.7564 134.012 78.5164 133.892C78.2764 133.764 78.0844 133.592 77.9404 133.376C77.7964 133.152 77.7244 132.856 77.7244 132.488C77.7244 132.104 77.8324 131.768 78.0484 131.48C78.2644 131.192 78.5684 130.972 78.9604 130.82C79.3604 130.66 79.8324 130.58 80.3764 130.58C80.7924 130.58 81.2124 130.632 81.6364 130.736C82.0684 130.832 82.4204 130.972 82.6924 131.156L82.2004 132.068C81.9124 131.876 81.6124 131.744 81.3004 131.672C80.9884 131.6 80.6764 131.564 80.3644 131.564C79.8604 131.564 79.4844 131.648 79.2364 131.816C78.9884 131.976 78.8644 132.184 78.8644 132.44C78.8644 132.656 78.9364 132.824 79.0804 132.944C79.2324 133.056 79.4244 133.144 79.6564 133.208C79.8964 133.272 80.1604 133.328 80.4484 133.376C80.7364 133.416 81.0244 133.472 81.3124 133.544C81.6004 133.608 81.8604 133.7 82.0924 133.82C82.3324 133.94 82.5244 134.108 82.6684 134.324C82.8204 134.54 82.8964 134.828 82.8964 135.188C82.8964 135.572 82.7844 135.904 82.5604 136.184C82.3364 136.464 82.0204 136.684 81.6124 136.844C81.2044 136.996 80.7164 137.072 80.1484 137.072ZM90.1868 137.072C89.5708 137.072 89.0188 136.936 88.5308 136.664C88.0508 136.392 87.6708 136.012 87.3908 135.524C87.1108 135.036 86.9708 134.468 86.9708 133.82C86.9708 133.172 87.1108 132.608 87.3908 132.128C87.6708 131.64 88.0508 131.26 88.5308 130.988C89.0188 130.716 89.5708 130.58 90.1868 130.58C90.7228 130.58 91.2068 130.7 91.6388 130.94C92.0708 131.18 92.4148 131.54 92.6708 132.02C92.9348 132.5 93.0668 133.1 93.0668 133.82C93.0668 134.54 92.9388 135.14 92.6828 135.62C92.4348 136.1 92.0948 136.464 91.6628 136.712C91.2308 136.952 90.7388 137.072 90.1868 137.072ZM90.2828 136.064C90.6828 136.064 91.0428 135.972 91.3628 135.788C91.6908 135.604 91.9468 135.344 92.1308 135.008C92.3228 134.664 92.4188 134.268 92.4188 133.82C92.4188 133.364 92.3228 132.972 92.1308 132.644C91.9468 132.308 91.6908 132.048 91.3628 131.864C91.0428 131.68 90.6828 131.588 90.2828 131.588C89.8748 131.588 89.5108 131.68 89.1908 131.864C88.8708 132.048 88.6148 132.308 88.4228 132.644C88.2308 132.972 88.1348 133.364 88.1348 133.82C88.1348 134.268 88.2308 134.664 88.4228 135.008C88.6148 135.344 88.8708 135.604 89.1908 135.788C89.5108 135.972 89.8748 136.064 90.2828 136.064ZM92.4548 137V135.284L92.5268 133.808L92.4068 132.332V128.096H93.5588V137H92.4548ZM98.4625 137.072C97.8225 137.072 97.2545 136.932 96.7585 136.652C96.2625 136.372 95.8705 135.988 95.5825 135.5C95.2945 135.004 95.1505 134.444 95.1505 133.82C95.1505 133.188 95.2945 132.628 95.5825 132.14C95.8705 131.652 96.2625 131.272 96.7585 131C97.2545 130.72 97.8225 130.58 98.4625 130.58C99.0945 130.58 99.6585 130.72 100.154 131C100.658 131.272 101.05 131.652 101.33 132.14C101.618 132.62 101.762 133.18 101.762 133.82C101.762 134.452 101.618 135.012 101.33 135.5C101.05 135.988 100.658 136.372 100.154 136.652C99.6585 136.932 99.0945 137.072 98.4625 137.072ZM98.4625 136.064C98.8705 136.064 99.2345 135.972 99.5545 135.788C99.8825 135.604 100.138 135.344 100.322 135.008C100.506 134.664 100.598 134.268 100.598 133.82C100.598 133.364 100.506 132.972 100.322 132.644C100.138 132.308 99.8825 132.048 99.5545 131.864C99.2345 131.68 98.8705 131.588 98.4625 131.588C98.0545 131.588 97.6905 131.68 97.3705 131.864C97.0505 132.048 96.7945 132.308 96.6025 132.644C96.4105 132.972 96.3145 133.364 96.3145 133.82C96.3145 134.268 96.4105 134.664 96.6025 135.008C96.7945 135.344 97.0505 135.604 97.3705 135.788C97.6905 135.972 98.0545 136.064 98.4625 136.064ZM106.578 137V128.096H107.73V137H106.578ZM112.654 137.072C112.014 137.072 111.446 136.932 110.95 136.652C110.454 136.372 110.062 135.988 109.774 135.5C109.486 135.004 109.342 134.444 109.342 133.82C109.342 133.188 109.486 132.628 109.774 132.14C110.062 131.652 110.454 131.272 110.95 131C111.446 130.72 112.014 130.58 112.654 130.58C113.286 130.58 113.85 130.72 114.346 131C114.85 131.272 115.242 131.652 115.522 132.14C115.81 132.62 115.954 133.18 115.954 133.82C115.954 134.452 115.81 135.012 115.522 135.5C115.242 135.988 114.85 136.372 114.346 136.652C113.85 136.932 113.286 137.072 112.654 137.072ZM112.654 136.064C113.062 136.064 113.426 135.972 113.746 135.788C114.074 135.604 114.33 135.344 114.514 135.008C114.698 134.664 114.79 134.268 114.79 133.82C114.79 133.364 114.698 132.972 114.514 132.644C114.33 132.308 114.074 132.048 113.746 131.864C113.426 131.68 113.062 131.588 112.654 131.588C112.246 131.588 111.882 131.68 111.562 131.864C111.242 132.048 110.986 132.308 110.794 132.644C110.602 132.972 110.506 133.364 110.506 133.82C110.506 134.268 110.602 134.664 110.794 135.008C110.986 135.344 111.242 135.604 111.562 135.788C111.882 135.972 112.246 136.064 112.654 136.064ZM119.371 137.072C118.843 137.072 118.339 137 117.859 136.856C117.387 136.712 117.015 136.536 116.743 136.328L117.223 135.416C117.495 135.6 117.831 135.756 118.231 135.884C118.631 136.012 119.039 136.076 119.455 136.076C119.991 136.076 120.375 136 120.607 135.848C120.847 135.696 120.967 135.484 120.967 135.212C120.967 135.012 120.895 134.856 120.751 134.744C120.607 134.632 120.415 134.548 120.175 134.492C119.943 134.436 119.683 134.388 119.395 134.348C119.107 134.3 118.819 134.244 118.531 134.18C118.243 134.108 117.979 134.012 117.739 133.892C117.499 133.764 117.307 133.592 117.163 133.376C117.019 133.152 116.947 132.856 116.947 132.488C116.947 132.104 117.055 131.768 117.271 131.48C117.487 131.192 117.791 130.972 118.183 130.82C118.583 130.66 119.055 130.58 119.599 130.58C120.015 130.58 120.435 130.632 120.859 130.736C121.291 130.832 121.643 130.972 121.915 131.156L121.423 132.068C121.135 131.876 120.835 131.744 120.523 131.672C120.211 131.6 119.899 131.564 119.587 131.564C119.083 131.564 118.707 131.648 118.459 131.816C118.211 131.976 118.087 132.184 118.087 132.44C118.087 132.656 118.159 132.824 118.303 132.944C118.455 133.056 118.647 133.144 118.879 133.208C119.119 133.272 119.383 133.328 119.671 133.376C119.959 133.416 120.247 133.472 120.535 133.544C120.823 133.608 121.083 133.7 121.315 133.82C121.555 133.94 121.747 134.108 121.891 134.324C122.043 134.54 122.119 134.828 122.119 135.188C122.119 135.572 122.007 135.904 121.783 136.184C121.559 136.464 121.243 136.684 120.835 136.844C120.427 136.996 119.939 137.072 119.371 137.072ZM127.507 137V135.656L127.447 135.404V133.112C127.447 132.624 127.303 132.248 127.015 131.984C126.735 131.712 126.311 131.576 125.743 131.576C125.367 131.576 124.999 131.64 124.639 131.768C124.279 131.888 123.975 132.052 123.727 132.26L123.247 131.396C123.575 131.132 123.967 130.932 124.423 130.796C124.887 130.652 125.371 130.58 125.875 130.58C126.747 130.58 127.419 130.792 127.891 131.216C128.363 131.64 128.599 132.288 128.599 133.16V137H127.507ZM125.419 137.072C124.947 137.072 124.531 136.992 124.171 136.832C123.819 136.672 123.547 136.452 123.355 136.172C123.163 135.884 123.067 135.56 123.067 135.2C123.067 134.856 123.147 134.544 123.307 134.264C123.475 133.984 123.743 133.76 124.111 133.592C124.487 133.424 124.991 133.34 125.623 133.34H127.639V134.168H125.671C125.095 134.168 124.707 134.264 124.507 134.456C124.307 134.648 124.207 134.88 124.207 135.152C124.207 135.464 124.331 135.716 124.579 135.908C124.827 136.092 125.171 136.184 125.611 136.184C126.043 136.184 126.419 136.088 126.739 135.896C127.067 135.704 127.303 135.424 127.447 135.056L127.675 135.848C127.523 136.224 127.255 136.524 126.871 136.748C126.487 136.964 126.003 137.072 125.419 137.072ZM134.127 130.58C134.647 130.58 135.103 130.68 135.495 130.88C135.895 131.08 136.207 131.384 136.431 131.792C136.655 132.2 136.767 132.716 136.767 133.34V137H135.615V133.472C135.615 132.856 135.463 132.392 135.159 132.08C134.863 131.768 134.443 131.612 133.899 131.612C133.491 131.612 133.135 131.692 132.831 131.852C132.527 132.012 132.291 132.248 132.123 132.56C131.963 132.872 131.883 133.26 131.883 133.724V137H130.731V130.64H131.835V132.356L131.655 131.9C131.863 131.484 132.183 131.16 132.615 130.928C133.047 130.696 133.551 130.58 134.127 130.58ZM141.683 139.4C141.099 139.4 140.531 139.316 139.979 139.148C139.435 138.988 138.991 138.756 138.647 138.452L139.199 137.564C139.495 137.82 139.859 138.02 140.291 138.164C140.723 138.316 141.175 138.392 141.647 138.392C142.399 138.392 142.951 138.216 143.303 137.864C143.655 137.512 143.831 136.976 143.831 136.256V134.912L143.951 133.652L143.891 132.38V130.64H144.983V136.136C144.983 137.256 144.703 138.08 144.143 138.608C143.583 139.136 142.763 139.4 141.683 139.4ZM141.539 136.736C140.923 136.736 140.371 136.608 139.883 136.352C139.403 136.088 139.019 135.724 138.731 135.26C138.451 134.796 138.311 134.26 138.311 133.652C138.311 133.036 138.451 132.5 138.731 132.044C139.019 131.58 139.403 131.22 139.883 130.964C140.371 130.708 140.923 130.58 141.539 130.58C142.083 130.58 142.579 130.692 143.027 130.916C143.475 131.132 143.831 131.468 144.095 131.924C144.367 132.38 144.503 132.956 144.503 133.652C144.503 134.34 144.367 134.912 144.095 135.368C143.831 135.824 143.475 136.168 143.027 136.4C142.579 136.624 142.083 136.736 141.539 136.736ZM141.671 135.728C142.095 135.728 142.471 135.64 142.799 135.464C143.127 135.288 143.383 135.044 143.567 134.732C143.759 134.42 143.855 134.06 143.855 133.652C143.855 133.244 143.759 132.884 143.567 132.572C143.383 132.26 143.127 132.02 142.799 131.852C142.471 131.676 142.095 131.588 141.671 131.588C141.247 131.588 140.867 131.676 140.531 131.852C140.203 132.02 139.943 132.26 139.751 132.572C139.567 132.884 139.475 133.244 139.475 133.652C139.475 134.06 139.567 134.42 139.751 134.732C139.943 135.044 140.203 135.288 140.531 135.464C140.867 135.64 141.247 135.728 141.671 135.728ZM149.908 137.072C149.268 137.072 148.7 136.932 148.204 136.652C147.708 136.372 147.316 135.988 147.028 135.5C146.74 135.004 146.596 134.444 146.596 133.82C146.596 133.188 146.74 132.628 147.028 132.14C147.316 131.652 147.708 131.272 148.204 131C148.7 130.72 149.268 130.58 149.908 130.58C150.54 130.58 151.104 130.72 151.6 131C152.104 131.272 152.496 131.652 152.776 132.14C153.064 132.62 153.208 133.18 153.208 133.82C153.208 134.452 153.064 135.012 152.776 135.5C152.496 135.988 152.104 136.372 151.6 136.652C151.104 136.932 150.54 137.072 149.908 137.072ZM149.908 136.064C150.316 136.064 150.68 135.972 151 135.788C151.328 135.604 151.584 135.344 151.768 135.008C151.952 134.664 152.044 134.268 152.044 133.82C152.044 133.364 151.952 132.972 151.768 132.644C151.584 132.308 151.328 132.048 151 131.864C150.68 131.68 150.316 131.588 149.908 131.588C149.5 131.588 149.136 131.68 148.816 131.864C148.496 132.048 148.24 132.308 148.048 132.644C147.856 132.972 147.76 133.364 147.76 133.82C147.76 134.268 147.856 134.664 148.048 135.008C148.24 135.344 148.496 135.604 148.816 135.788C149.136 135.972 149.5 136.064 149.908 136.064ZM31.2706 152.072C30.7426 152.072 30.2586 151.952 29.8186 151.712C29.3866 151.464 29.0386 151.1 28.7746 150.62C28.5186 150.14 28.3906 149.54 28.3906 148.82C28.3906 148.1 28.5146 147.5 28.7626 147.02C29.0186 146.54 29.3626 146.18 29.7946 145.94C30.2346 145.7 30.7266 145.58 31.2706 145.58C31.8946 145.58 32.4466 145.716 32.9266 145.988C33.4066 146.26 33.7866 146.64 34.0666 147.128C34.3466 147.608 34.4866 148.172 34.4866 148.82C34.4866 149.468 34.3466 150.036 34.0666 150.524C33.7866 151.012 33.4066 151.392 32.9266 151.664C32.4466 151.936 31.8946 152.072 31.2706 152.072ZM27.8986 154.328V145.64H29.0026V147.356L28.9306 148.832L29.0506 150.308V154.328H27.8986ZM31.1746 151.064C31.5826 151.064 31.9466 150.972 32.2666 150.788C32.5946 150.604 32.8506 150.344 33.0346 150.008C33.2266 149.664 33.3226 149.268 33.3226 148.82C33.3226 148.364 33.2266 147.972 33.0346 147.644C32.8506 147.308 32.5946 147.048 32.2666 146.864C31.9466 146.68 31.5826 146.588 31.1746 146.588C30.7746 146.588 30.4106 146.68 30.0826 146.864C29.7626 147.048 29.5066 147.308 29.3146 147.644C29.1306 147.972 29.0386 148.364 29.0386 148.82C29.0386 149.268 29.1306 149.664 29.3146 150.008C29.5066 150.344 29.7626 150.604 30.0826 150.788C30.4106 150.972 30.7746 151.064 31.1746 151.064ZM39.9677 152V150.656L39.9077 150.404V148.112C39.9077 147.624 39.7637 147.248 39.4757 146.984C39.1957 146.712 38.7717 146.576 38.2037 146.576C37.8277 146.576 37.4597 146.64 37.0997 146.768C36.7397 146.888 36.4357 147.052 36.1877 147.26L35.7077 146.396C36.0357 146.132 36.4277 145.932 36.8837 145.796C37.3477 145.652 37.8317 145.58 38.3357 145.58C39.2077 145.58 39.8797 145.792 40.3517 146.216C40.8237 146.64 41.0597 147.288 41.0597 148.16V152H39.9677ZM37.8797 152.072C37.4077 152.072 36.9917 151.992 36.6317 151.832C36.2797 151.672 36.0077 151.452 35.8157 151.172C35.6237 150.884 35.5277 150.56 35.5277 150.2C35.5277 149.856 35.6077 149.544 35.7677 149.264C35.9357 148.984 36.2037 148.76 36.5717 148.592C36.9477 148.424 37.4517 148.34 38.0837 148.34H40.0997V149.168H38.1317C37.5557 149.168 37.1677 149.264 36.9677 149.456C36.7677 149.648 36.6677 149.88 36.6677 150.152C36.6677 150.464 36.7917 150.716 37.0397 150.908C37.2877 151.092 37.6317 151.184 38.0717 151.184C38.5037 151.184 38.8797 151.088 39.1997 150.896C39.5277 150.704 39.7637 150.424 39.9077 150.056L40.1357 150.848C39.9837 151.224 39.7157 151.524 39.3317 151.748C38.9477 151.964 38.4637 152.072 37.8797 152.072ZM43.1916 152V145.64H44.2956V147.368L44.1876 146.936C44.3636 146.496 44.6596 146.16 45.0756 145.928C45.4916 145.696 46.0036 145.58 46.6116 145.58V146.696C46.5636 146.688 46.5156 146.684 46.4676 146.684C46.4276 146.684 46.3876 146.684 46.3476 146.684C45.7316 146.684 45.2436 146.868 44.8836 147.236C44.5236 147.604 44.3436 148.136 44.3436 148.832V152H43.1916ZM51.5107 152V150.656L51.4507 150.404V148.112C51.4507 147.624 51.3067 147.248 51.0187 146.984C50.7387 146.712 50.3147 146.576 49.7467 146.576C49.3707 146.576 49.0027 146.64 48.6427 146.768C48.2827 146.888 47.9787 147.052 47.7307 147.26L47.2507 146.396C47.5787 146.132 47.9707 145.932 48.4267 145.796C48.8907 145.652 49.3747 145.58 49.8787 145.58C50.7507 145.58 51.4227 145.792 51.8947 146.216C52.3667 146.64 52.6027 147.288 52.6027 148.16V152H51.5107ZM49.4227 152.072C48.9507 152.072 48.5347 151.992 48.1747 151.832C47.8227 151.672 47.5507 151.452 47.3587 151.172C47.1667 150.884 47.0707 150.56 47.0707 150.2C47.0707 149.856 47.1507 149.544 47.3107 149.264C47.4787 148.984 47.7467 148.76 48.1147 148.592C48.4907 148.424 48.9947 148.34 49.6267 148.34H51.6427V149.168H49.6747C49.0987 149.168 48.7107 149.264 48.5107 149.456C48.3107 149.648 48.2107 149.88 48.2107 150.152C48.2107 150.464 48.3347 150.716 48.5827 150.908C48.8307 151.092 49.1747 151.184 49.6147 151.184C50.0467 151.184 50.4227 151.088 50.7427 150.896C51.0707 150.704 51.3067 150.424 51.4507 150.056L51.6787 150.848C51.5267 151.224 51.2587 151.524 50.8747 151.748C50.4907 151.964 50.0067 152.072 49.4227 152.072ZM60.7292 152.072C60.0812 152.072 59.5012 151.932 58.9892 151.652C58.4852 151.372 58.0892 150.988 57.8012 150.5C57.5132 150.012 57.3692 149.452 57.3692 148.82C57.3692 148.188 57.5132 147.628 57.8012 147.14C58.0892 146.652 58.4852 146.272 58.9892 146C59.5012 145.72 60.0812 145.58 60.7292 145.58C61.3052 145.58 61.8172 145.696 62.2652 145.928C62.7212 146.152 63.0732 146.488 63.3212 146.936L62.4452 147.5C62.2372 147.188 61.9812 146.96 61.6772 146.816C61.3812 146.664 61.0612 146.588 60.7172 146.588C60.3012 146.588 59.9292 146.68 59.6012 146.864C59.2732 147.048 59.0132 147.308 58.8212 147.644C58.6292 147.972 58.5332 148.364 58.5332 148.82C58.5332 149.276 58.6292 149.672 58.8212 150.008C59.0132 150.344 59.2732 150.604 59.6012 150.788C59.9292 150.972 60.3012 151.064 60.7172 151.064C61.0612 151.064 61.3812 150.992 61.6772 150.848C61.9812 150.696 62.2372 150.464 62.4452 150.152L63.3212 150.704C63.0732 151.144 62.7212 151.484 62.2652 151.724C61.8172 151.956 61.3052 152.072 60.7292 152.072ZM64.7307 152V145.64H65.8827V152H64.7307ZM65.3067 144.416C65.0827 144.416 64.8947 144.344 64.7427 144.2C64.5987 144.056 64.5267 143.88 64.5267 143.672C64.5267 143.456 64.5987 143.276 64.7427 143.132C64.8947 142.988 65.0827 142.916 65.3067 142.916C65.5307 142.916 65.7147 142.988 65.8587 143.132C66.0107 143.268 66.0867 143.44 66.0867 143.648C66.0867 143.864 66.0147 144.048 65.8707 144.2C65.7267 144.344 65.5387 144.416 65.3067 144.416ZM76.0382 145.58C76.5502 145.58 77.0022 145.68 77.3942 145.88C77.7862 146.08 78.0902 146.384 78.3062 146.792C78.5302 147.2 78.6422 147.716 78.6422 148.34V152H77.4902V148.472C77.4902 147.856 77.3462 147.392 77.0582 147.08C76.7702 146.768 76.3662 146.612 75.8462 146.612C75.4622 146.612 75.1262 146.692 74.8382 146.852C74.5502 147.012 74.3262 147.248 74.1662 147.56C74.0142 147.872 73.9382 148.26 73.9382 148.724V152H72.7862V148.472C72.7862 147.856 72.6422 147.392 72.3542 147.08C72.0742 146.768 71.6702 146.612 71.1422 146.612C70.7662 146.612 70.4342 146.692 70.1462 146.852C69.8582 147.012 69.6342 147.248 69.4742 147.56C69.3142 147.872 69.2342 148.26 69.2342 148.724V152H68.0822V145.64H69.1862V147.332L69.0062 146.9C69.2062 146.484 69.5142 146.16 69.9302 145.928C70.3462 145.696 70.8302 145.58 71.3822 145.58C71.9902 145.58 72.5142 145.732 72.9542 146.036C73.3942 146.332 73.6822 146.784 73.8182 147.392L73.3502 147.2C73.5422 146.712 73.8782 146.32 74.3582 146.024C74.8382 145.728 75.3982 145.58 76.0382 145.58ZM84.7099 152V150.656L84.6499 150.404V148.112C84.6499 147.624 84.5059 147.248 84.2179 146.984C83.9379 146.712 83.5139 146.576 82.9459 146.576C82.5699 146.576 82.2019 146.64 81.8419 146.768C81.4819 146.888 81.1779 147.052 80.9299 147.26L80.4499 146.396C80.7779 146.132 81.1699 145.932 81.6259 145.796C82.0899 145.652 82.5739 145.58 83.0779 145.58C83.9499 145.58 84.6219 145.792 85.0939 146.216C85.5659 146.64 85.8019 147.288 85.8019 148.16V152H84.7099ZM82.6219 152.072C82.1499 152.072 81.7339 151.992 81.3739 151.832C81.0219 151.672 80.7499 151.452 80.5579 151.172C80.3659 150.884 80.2699 150.56 80.2699 150.2C80.2699 149.856 80.3499 149.544 80.5099 149.264C80.6779 148.984 80.9459 148.76 81.3139 148.592C81.6899 148.424 82.1939 148.34 82.8259 148.34H84.8419V149.168H82.8739C82.2979 149.168 81.9099 149.264 81.7099 149.456C81.5099 149.648 81.4099 149.88 81.4099 150.152C81.4099 150.464 81.5339 150.716 81.7819 150.908C82.0299 151.092 82.3739 151.184 82.8139 151.184C83.2459 151.184 83.6219 151.088 83.9419 150.896C84.2699 150.704 84.5059 150.424 84.6499 150.056L84.8779 150.848C84.7259 151.224 84.4579 151.524 84.0739 151.748C83.6899 151.964 83.2059 152.072 82.6219 152.072ZM87.4778 153.776L88.0778 151.352L88.2338 152.048C88.0018 152.048 87.8058 151.976 87.6458 151.832C87.4938 151.688 87.4178 151.492 87.4178 151.244C87.4178 151.004 87.4938 150.808 87.6458 150.656C87.8058 150.504 87.9978 150.428 88.2218 150.428C88.4538 150.428 88.6418 150.508 88.7858 150.668C88.9298 150.82 89.0018 151.012 89.0018 151.244C89.0018 151.324 88.9938 151.404 88.9778 151.484C88.9698 151.556 88.9498 151.644 88.9178 151.748C88.8938 151.844 88.8538 151.964 88.7978 152.108L88.2338 153.776H87.4778ZM94.0432 152V145.076C94.0432 144.452 94.2232 143.956 94.5832 143.588C94.9512 143.212 95.4712 143.024 96.1432 143.024C96.3912 143.024 96.6272 143.056 96.8512 143.12C97.0832 143.176 97.2792 143.268 97.4392 143.396L97.0912 144.272C96.9712 144.176 96.8352 144.104 96.6832 144.056C96.5312 144 96.3712 143.972 96.2032 143.972C95.8672 143.972 95.6112 144.068 95.4352 144.26C95.2592 144.444 95.1712 144.72 95.1712 145.088V145.94L95.1952 146.468V152H94.0432ZM92.9632 146.588V145.64H97.0192V146.588H92.9632ZM100.736 152.072C100.096 152.072 99.5279 151.932 99.0319 151.652C98.5359 151.372 98.1439 150.988 97.8559 150.5C97.5679 150.004 97.4239 149.444 97.4239 148.82C97.4239 148.188 97.5679 147.628 97.8559 147.14C98.1439 146.652 98.5359 146.272 99.0319 146C99.5279 145.72 100.096 145.58 100.736 145.58C101.368 145.58 101.932 145.72 102.428 146C102.932 146.272 103.324 146.652 103.604 147.14C103.892 147.62 104.036 148.18 104.036 148.82C104.036 149.452 103.892 150.012 103.604 150.5C103.324 150.988 102.932 151.372 102.428 151.652C101.932 151.932 101.368 152.072 100.736 152.072ZM100.736 151.064C101.144 151.064 101.508 150.972 101.828 150.788C102.156 150.604 102.412 150.344 102.596 150.008C102.78 149.664 102.872 149.268 102.872 148.82C102.872 148.364 102.78 147.972 102.596 147.644C102.412 147.308 102.156 147.048 101.828 146.864C101.508 146.68 101.144 146.588 100.736 146.588C100.328 146.588 99.9639 146.68 99.6439 146.864C99.3239 147.048 99.0679 147.308 98.8759 147.644C98.6839 147.972 98.5879 148.364 98.5879 148.82C98.5879 149.268 98.6839 149.664 98.8759 150.008C99.0679 150.344 99.3239 150.604 99.6439 150.788C99.9639 150.972 100.328 151.064 100.736 151.064ZM105.629 152V145.64H106.733V147.368L106.625 146.936C106.801 146.496 107.097 146.16 107.513 145.928C107.929 145.696 108.441 145.58 109.049 145.58V146.696C109.001 146.688 108.953 146.684 108.905 146.684C108.865 146.684 108.825 146.684 108.785 146.684C108.169 146.684 107.681 146.868 107.321 147.236C106.961 147.604 106.781 148.136 106.781 148.832V152H105.629ZM118.425 145.58C118.937 145.58 119.389 145.68 119.781 145.88C120.173 146.08 120.477 146.384 120.693 146.792C120.917 147.2 121.029 147.716 121.029 148.34V152H119.877V148.472C119.877 147.856 119.733 147.392 119.445 147.08C119.157 146.768 118.753 146.612 118.233 146.612C117.849 146.612 117.513 146.692 117.225 146.852C116.937 147.012 116.713 147.248 116.553 147.56C116.401 147.872 116.325 148.26 116.325 148.724V152H115.173V148.472C115.173 147.856 115.029 147.392 114.741 147.08C114.461 146.768 114.057 146.612 113.529 146.612C113.153 146.612 112.821 146.692 112.533 146.852C112.245 147.012 112.021 147.248 111.861 147.56C111.701 147.872 111.621 148.26 111.621 148.724V152H110.469V145.64H111.573V147.332L111.393 146.9C111.593 146.484 111.901 146.16 112.317 145.928C112.733 145.696 113.217 145.58 113.769 145.58C114.377 145.58 114.901 145.732 115.341 146.036C115.781 146.332 116.069 146.784 116.205 147.392L115.737 147.2C115.929 146.712 116.265 146.32 116.745 146.024C117.225 145.728 117.785 145.58 118.425 145.58ZM127.097 152V150.656L127.037 150.404V148.112C127.037 147.624 126.893 147.248 126.605 146.984C126.325 146.712 125.901 146.576 125.333 146.576C124.957 146.576 124.589 146.64 124.229 146.768C123.869 146.888 123.565 147.052 123.317 147.26L122.837 146.396C123.165 146.132 123.557 145.932 124.013 145.796C124.477 145.652 124.961 145.58 125.465 145.58C126.337 145.58 127.009 145.792 127.481 146.216C127.953 146.64 128.189 147.288 128.189 148.16V152H127.097ZM125.009 152.072C124.537 152.072 124.121 151.992 123.761 151.832C123.409 151.672 123.137 151.452 122.945 151.172C122.753 150.884 122.657 150.56 122.657 150.2C122.657 149.856 122.737 149.544 122.897 149.264C123.065 148.984 123.333 148.76 123.701 148.592C124.077 148.424 124.581 148.34 125.213 148.34H127.229V149.168H125.261C124.685 149.168 124.297 149.264 124.097 149.456C123.897 149.648 123.797 149.88 123.797 150.152C123.797 150.464 123.921 150.716 124.169 150.908C124.417 151.092 124.761 151.184 125.201 151.184C125.633 151.184 126.009 151.088 126.329 150.896C126.657 150.704 126.893 150.424 127.037 150.056L127.265 150.848C127.113 151.224 126.845 151.524 126.461 151.748C126.077 151.964 125.593 152.072 125.009 152.072ZM133.717 145.58C134.237 145.58 134.693 145.68 135.085 145.88C135.485 146.08 135.797 146.384 136.021 146.792C136.245 147.2 136.357 147.716 136.357 148.34V152H135.205V148.472C135.205 147.856 135.053 147.392 134.749 147.08C134.453 146.768 134.033 146.612 133.489 146.612C133.081 146.612 132.725 146.692 132.421 146.852C132.117 147.012 131.881 147.248 131.713 147.56C131.553 147.872 131.473 148.26 131.473 148.724V152H130.321V145.64H131.425V147.356L131.245 146.9C131.453 146.484 131.773 146.16 132.205 145.928C132.637 145.696 133.141 145.58 133.717 145.58ZM141.116 152.072C140.5 152.072 139.948 151.936 139.46 151.664C138.98 151.392 138.6 151.012 138.32 150.524C138.04 150.036 137.9 149.468 137.9 148.82C137.9 148.172 138.04 147.608 138.32 147.128C138.6 146.64 138.98 146.26 139.46 145.988C139.948 145.716 140.5 145.58 141.116 145.58C141.652 145.58 142.136 145.7 142.568 145.94C143 146.18 143.344 146.54 143.6 147.02C143.864 147.5 143.996 148.1 143.996 148.82C143.996 149.54 143.868 150.14 143.612 150.62C143.364 151.1 143.024 151.464 142.592 151.712C142.16 151.952 141.668 152.072 141.116 152.072ZM141.212 151.064C141.612 151.064 141.972 150.972 142.292 150.788C142.62 150.604 142.876 150.344 143.06 150.008C143.252 149.664 143.348 149.268 143.348 148.82C143.348 148.364 143.252 147.972 143.06 147.644C142.876 147.308 142.62 147.048 142.292 146.864C141.972 146.68 141.612 146.588 141.212 146.588C140.804 146.588 140.44 146.68 140.12 146.864C139.8 147.048 139.544 147.308 139.352 147.644C139.16 147.972 139.064 148.364 139.064 148.82C139.064 149.268 139.16 149.664 139.352 150.008C139.544 150.344 139.8 150.604 140.12 150.788C140.44 150.972 140.804 151.064 141.212 151.064ZM143.384 152V150.284L143.456 148.808L143.336 147.332V143.096H144.488V152H143.384ZM149.392 152.072C148.752 152.072 148.184 151.932 147.688 151.652C147.192 151.372 146.8 150.988 146.512 150.5C146.224 150.004 146.08 149.444 146.08 148.82C146.08 148.188 146.224 147.628 146.512 147.14C146.8 146.652 147.192 146.272 147.688 146C148.184 145.72 148.752 145.58 149.392 145.58C150.024 145.58 150.588 145.72 151.084 146C151.588 146.272 151.98 146.652 152.26 147.14C152.548 147.62 152.692 148.18 152.692 148.82C152.692 149.452 152.548 150.012 152.26 150.5C151.98 150.988 151.588 151.372 151.084 151.652C150.588 151.932 150.024 152.072 149.392 152.072ZM149.392 151.064C149.8 151.064 150.164 150.972 150.484 150.788C150.812 150.604 151.068 150.344 151.252 150.008C151.436 149.664 151.528 149.268 151.528 148.82C151.528 148.364 151.436 147.972 151.252 147.644C151.068 147.308 150.812 147.048 150.484 146.864C150.164 146.68 149.8 146.588 149.392 146.588C148.984 146.588 148.62 146.68 148.3 146.864C147.98 147.048 147.724 147.308 147.532 147.644C147.34 147.972 147.244 148.364 147.244 148.82C147.244 149.268 147.34 149.664 147.532 150.008C147.724 150.344 147.98 150.604 148.3 150.788C148.62 150.972 148.984 151.064 149.392 151.064ZM70.232 167.072C69.592 167.072 69.024 166.932 68.528 166.652C68.032 166.372 67.64 165.988 67.352 165.5C67.064 165.004 66.92 164.444 66.92 163.82C66.92 163.188 67.064 162.628 67.352 162.14C67.64 161.652 68.032 161.272 68.528 161C69.024 160.72 69.592 160.58 70.232 160.58C70.864 160.58 71.428 160.72 71.924 161C72.428 161.272 72.82 161.652 73.1 162.14C73.388 162.62 73.532 163.18 73.532 163.82C73.532 164.452 73.388 165.012 73.1 165.5C72.82 165.988 72.428 166.372 71.924 166.652C71.428 166.932 70.864 167.072 70.232 167.072ZM70.232 166.064C70.64 166.064 71.004 165.972 71.324 165.788C71.652 165.604 71.908 165.344 72.092 165.008C72.276 164.664 72.368 164.268 72.368 163.82C72.368 163.364 72.276 162.972 72.092 162.644C71.908 162.308 71.652 162.048 71.324 161.864C71.004 161.68 70.64 161.588 70.232 161.588C69.824 161.588 69.46 161.68 69.14 161.864C68.82 162.048 68.564 162.308 68.372 162.644C68.18 162.972 68.084 163.364 68.084 163.82C68.084 164.268 68.18 164.664 68.372 165.008C68.564 165.344 68.82 165.604 69.14 165.788C69.46 165.972 69.824 166.064 70.232 166.064ZM75.1252 167V160.64H76.2292V162.368L76.1212 161.936C76.2972 161.496 76.5932 161.16 77.0092 160.928C77.4252 160.696 77.9372 160.58 78.5452 160.58V161.696C78.4972 161.688 78.4492 161.684 78.4012 161.684C78.3612 161.684 78.3212 161.684 78.2812 161.684C77.6652 161.684 77.1772 161.868 76.8172 162.236C76.4572 162.604 76.2772 163.136 76.2772 163.832V167H75.1252ZM82.7385 167.072C82.0585 167.072 81.4585 166.932 80.9385 166.652C80.4265 166.372 80.0265 165.988 79.7385 165.5C79.4585 165.012 79.3185 164.452 79.3185 163.82C79.3185 163.188 79.4545 162.628 79.7265 162.14C80.0065 161.652 80.3865 161.272 80.8665 161C81.3545 160.72 81.9025 160.58 82.5105 160.58C83.1265 160.58 83.6705 160.716 84.1425 160.988C84.6145 161.26 84.9825 161.644 85.2465 162.14C85.5185 162.628 85.6545 163.2 85.6545 163.856C85.6545 163.904 85.6505 163.96 85.6425 164.024C85.6425 164.088 85.6385 164.148 85.6305 164.204H80.2185V163.376H85.0305L84.5625 163.664C84.5705 163.256 84.4865 162.892 84.3105 162.572C84.1345 162.252 83.8905 162.004 83.5785 161.828C83.2745 161.644 82.9185 161.552 82.5105 161.552C82.1105 161.552 81.7545 161.644 81.4425 161.828C81.1305 162.004 80.8865 162.256 80.7105 162.584C80.5345 162.904 80.4465 163.272 80.4465 163.688V163.88C80.4465 164.304 80.5425 164.684 80.7345 165.02C80.9345 165.348 81.2105 165.604 81.5625 165.788C81.9145 165.972 82.3185 166.064 82.7745 166.064C83.1505 166.064 83.4905 166 83.7945 165.872C84.1065 165.744 84.3785 165.552 84.6105 165.296L85.2465 166.04C84.9585 166.376 84.5985 166.632 84.1665 166.808C83.7425 166.984 83.2665 167.072 82.7385 167.072ZM87.2541 167V158.096H88.4061V167H87.2541ZM94.0017 160.58C94.5217 160.58 94.9777 160.68 95.3697 160.88C95.7697 161.08 96.0817 161.384 96.3057 161.792C96.5297 162.2 96.6417 162.716 96.6417 163.34V167H95.4897V163.472C95.4897 162.856 95.3377 162.392 95.0337 162.08C94.7377 161.768 94.3177 161.612 93.7737 161.612C93.3657 161.612 93.0097 161.692 92.7057 161.852C92.4017 162.012 92.1657 162.248 91.9977 162.56C91.8377 162.872 91.7577 163.26 91.7577 163.724V167H90.6057V158.096H91.7577V162.356L91.5297 161.9C91.7377 161.484 92.0577 161.16 92.4897 160.928C92.9217 160.696 93.4257 160.58 94.0017 160.58ZM102.722 167V165.656L102.662 165.404V163.112C102.662 162.624 102.518 162.248 102.23 161.984C101.95 161.712 101.526 161.576 100.958 161.576C100.582 161.576 100.214 161.64 99.8536 161.768C99.4936 161.888 99.1896 162.052 98.9416 162.26L98.4616 161.396C98.7896 161.132 99.1816 160.932 99.6376 160.796C100.102 160.652 100.586 160.58 101.09 160.58C101.962 160.58 102.634 160.792 103.106 161.216C103.578 161.64 103.814 162.288 103.814 163.16V167H102.722ZM100.634 167.072C100.162 167.072 99.7456 166.992 99.3856 166.832C99.0336 166.672 98.7616 166.452 98.5696 166.172C98.3776 165.884 98.2816 165.56 98.2816 165.2C98.2816 164.856 98.3616 164.544 98.5216 164.264C98.6896 163.984 98.9576 163.76 99.3256 163.592C99.7016 163.424 100.206 163.34 100.838 163.34H102.854V164.168H100.886C100.31 164.168 99.9216 164.264 99.7216 164.456C99.5216 164.648 99.4216 164.88 99.4216 165.152C99.4216 165.464 99.5456 165.716 99.7936 165.908C100.042 166.092 100.386 166.184 100.826 166.184C101.258 166.184 101.634 166.088 101.954 165.896C102.282 165.704 102.518 165.424 102.662 165.056L102.89 165.848C102.738 166.224 102.47 166.524 102.086 166.748C101.702 166.964 101.218 167.072 100.634 167.072ZM107.77 167.072C107.242 167.072 106.738 167 106.258 166.856C105.786 166.712 105.414 166.536 105.142 166.328L105.622 165.416C105.894 165.6 106.23 165.756 106.63 165.884C107.03 166.012 107.438 166.076 107.854 166.076C108.39 166.076 108.774 166 109.006 165.848C109.246 165.696 109.366 165.484 109.366 165.212C109.366 165.012 109.294 164.856 109.15 164.744C109.006 164.632 108.814 164.548 108.574 164.492C108.342 164.436 108.082 164.388 107.794 164.348C107.506 164.3 107.218 164.244 106.93 164.18C106.642 164.108 106.378 164.012 106.138 163.892C105.898 163.764 105.706 163.592 105.562 163.376C105.418 163.152 105.346 162.856 105.346 162.488C105.346 162.104 105.454 161.768 105.67 161.48C105.886 161.192 106.19 160.972 106.582 160.82C106.982 160.66 107.454 160.58 107.998 160.58C108.414 160.58 108.834 160.632 109.258 160.736C109.69 160.832 110.042 160.972 110.314 161.156L109.822 162.068C109.534 161.876 109.234 161.744 108.922 161.672C108.61 161.6 108.298 161.564 107.986 161.564C107.482 161.564 107.106 161.648 106.858 161.816C106.61 161.976 106.486 162.184 106.486 162.44C106.486 162.656 106.558 162.824 106.702 162.944C106.854 163.056 107.046 163.144 107.278 163.208C107.518 163.272 107.782 163.328 108.07 163.376C108.358 163.416 108.646 163.472 108.934 163.544C109.222 163.608 109.482 163.7 109.714 163.82C109.954 163.94 110.146 164.108 110.29 164.324C110.442 164.54 110.518 164.828 110.518 165.188C110.518 165.572 110.406 165.904 110.182 166.184C109.958 166.464 109.642 166.684 109.234 166.844C108.826 166.996 108.338 167.072 107.77 167.072ZM112.233 167.072C112.009 167.072 111.817 166.996 111.657 166.844C111.497 166.684 111.417 166.484 111.417 166.244C111.417 166.004 111.497 165.808 111.657 165.656C111.817 165.504 112.009 165.428 112.233 165.428C112.449 165.428 112.633 165.504 112.785 165.656C112.945 165.808 113.025 166.004 113.025 166.244C113.025 166.484 112.945 166.684 112.785 166.844C112.633 166.996 112.449 167.072 112.233 167.072Z" fill="#008E86"/>
<path d="M67 67.5L89.5 45L89.5 90L67 67.5Z" fill="#00D8CC" stroke="#00635D" stroke-width="2" stroke-linejoin="round"/>
<path d="M89.5005 45L112 67.4999L89.5005 90L89.5005 45Z" fill="#00D8CC" stroke="#00635D" stroke-width="2" stroke-linejoin="round"/>
<path d="M107.524 72L90.0005 66" stroke="#333333" stroke-width="2" stroke-dasharray="4 4"/>
<path d="M72.0225 72.001L89.0004 66.001" stroke="#333333" stroke-width="2" stroke-dasharray="4 4"/>
<path d="M70.2467 59.4805C69.7752 59.7681 69.6261 60.3834 69.9136 60.855L74.5992 68.539C74.8868 69.0105 75.5021 69.1597 75.9737 68.8722C76.4452 68.5846 76.5943 67.9693 76.3068 67.4977L72.1418 60.6675L78.972 56.5025C79.4436 56.2149 79.5927 55.5996 79.3052 55.128C79.0177 54.6565 78.4023 54.5074 77.9308 54.7949L70.2467 59.4805ZM80.2346 78.1119C80.0789 78.6418 80.3822 79.1976 80.9121 79.3533C81.442 79.509 81.9978 79.2056 82.1535 78.6758L80.2346 78.1119ZM70.5318 61.3062C74.5775 62.2869 77.4455 64.5639 79.136 67.492L80.8681 66.492C78.894 63.0728 75.5605 60.4672 71.0029 59.3625L70.5318 61.3062ZM79.136 67.492C79.9547 68.91 80.4504 70.8453 80.6232 72.8321C80.7957 74.8167 80.6366 76.7436 80.2346 78.1119L82.1535 78.6758C82.6427 77.0107 82.8038 74.8235 82.6156 72.6589C82.4276 70.4965 81.8817 68.2476 80.8681 66.492L79.136 67.492Z" fill="black"/>
<path d="M96.7478 78.6748C96.9035 79.2047 97.4593 79.5081 97.9892 79.3524C98.519 79.1967 98.8224 78.6409 98.6667 78.111L96.7478 78.6748ZM108.988 60.854C109.275 60.3825 109.126 59.7672 108.655 59.4796L100.97 54.794C100.499 54.5064 99.8836 54.6556 99.5961 55.1271C99.3085 55.5986 99.4577 56.214 99.9292 56.5015L106.759 60.6666L102.594 67.4968C102.307 67.9684 102.456 68.5837 102.928 68.8712C103.399 69.1588 104.014 69.0096 104.302 68.5381L108.988 60.854ZM98.6667 78.111C97.4931 74.117 98.0311 70.4947 99.7216 67.5666L97.9896 66.5666C96.0155 69.9858 95.4257 74.1755 96.7478 78.6748L98.6667 78.111ZM99.7216 67.5666C100.54 66.1486 101.969 64.7516 103.603 63.6087C105.235 62.4669 106.983 61.6412 108.369 61.3053L107.898 59.3615C106.212 59.7704 104.237 60.7244 102.457 61.9697C100.678 63.2137 99.0032 64.811 97.9896 66.5666L99.7216 67.5666Z" fill="black"/>
</svg>
