<svg width="180" height="180" viewBox="0 0 180 180" fill="none" xmlns="http://www.w3.org/2000/svg">
<g clip-path="url(#clip0_18_738)">
<rect width="180" height="180" rx="20" fill="#F2F2F2"/>
<g clip-path="url(#clip1_18_738)">
<path d="M0 30L-1.31134e-06 0L30 -1.31134e-06L30 10C30 21.0457 21.0457 30 10 30L0 30Z" fill="#333333"/>
<path d="M20.3644 18.648H18.5404V21H16.0124V18.648H9.98038V16.904L15.2604 9.8H17.9804L13.0844 16.536H16.0924V14.44H18.5404V16.536H20.3644V18.648Z" fill="#F2F2F2"/>
</g>
<path d="M48.0237 137V128.6H51.5637C52.4597 128.6 53.2477 128.776 53.9277 129.128C54.6157 129.48 55.1477 129.972 55.5237 130.604C55.9077 131.236 56.0997 131.968 56.0997 132.8C56.0997 133.632 55.9077 134.364 55.5237 134.996C55.1477 135.628 54.6157 136.12 53.9277 136.472C53.2477 136.824 52.4597 137 51.5637 137H48.0237ZM49.2237 135.956H51.4917C52.1877 135.956 52.7877 135.824 53.2917 135.56C53.8037 135.296 54.1997 134.928 54.4797 134.456C54.7597 133.976 54.8997 133.424 54.8997 132.8C54.8997 132.168 54.7597 131.616 54.4797 131.144C54.1997 130.672 53.8037 130.304 53.2917 130.04C52.7877 129.776 52.1877 129.644 51.4917 129.644H49.2237V135.956ZM60.4937 137.072C59.8537 137.072 59.2857 136.932 58.7897 136.652C58.2937 136.372 57.9017 135.988 57.6137 135.5C57.3257 135.004 57.1817 134.444 57.1817 133.82C57.1817 133.188 57.3257 132.628 57.6137 132.14C57.9017 131.652 58.2937 131.272 58.7897 131C59.2857 130.72 59.8537 130.58 60.4937 130.58C61.1257 130.58 61.6897 130.72 62.1857 131C62.6897 131.272 63.0817 131.652 63.3617 132.14C63.6497 132.62 63.7937 133.18 63.7937 133.82C63.7937 134.452 63.6497 135.012 63.3617 135.5C63.0817 135.988 62.6897 136.372 62.1857 136.652C61.6897 136.932 61.1257 137.072 60.4937 137.072ZM60.4937 136.064C60.9017 136.064 61.2657 135.972 61.5857 135.788C61.9137 135.604 62.1697 135.344 62.3537 135.008C62.5377 134.664 62.6297 134.268 62.6297 133.82C62.6297 133.364 62.5377 132.972 62.3537 132.644C62.1697 132.308 61.9137 132.048 61.5857 131.864C61.2657 131.68 60.9017 131.588 60.4937 131.588C60.0857 131.588 59.7217 131.68 59.4017 131.864C59.0817 132.048 58.8257 132.308 58.6337 132.644C58.4417 132.972 58.3457 133.364 58.3457 133.82C58.3457 134.268 58.4417 134.664 58.6337 135.008C58.8257 135.344 59.0817 135.604 59.4017 135.788C59.7217 135.972 60.0857 136.064 60.4937 136.064ZM68.7589 137.072C68.2149 137.072 67.7229 136.952 67.2829 136.712C66.8509 136.464 66.5069 136.1 66.2509 135.62C66.0029 135.14 65.8789 134.54 65.8789 133.82C65.8789 133.1 66.0069 132.5 66.2629 132.02C66.5269 131.54 66.8749 131.18 67.3069 130.94C67.7469 130.7 68.2309 130.58 68.7589 130.58C69.3829 130.58 69.9349 130.716 70.4149 130.988C70.8949 131.26 71.2749 131.64 71.5549 132.128C71.8349 132.608 71.9749 133.172 71.9749 133.82C71.9749 134.468 71.8349 135.036 71.5549 135.524C71.2749 136.012 70.8949 136.392 70.4149 136.664C69.9349 136.936 69.3829 137.072 68.7589 137.072ZM65.3869 137V128.096H66.5389V132.332L66.4189 133.808L66.4909 135.284V137H65.3869ZM68.6629 136.064C69.0709 136.064 69.4349 135.972 69.7549 135.788C70.0829 135.604 70.3389 135.344 70.5229 135.008C70.7149 134.664 70.8109 134.268 70.8109 133.82C70.8109 133.364 70.7149 132.972 70.5229 132.644C70.3389 132.308 70.0829 132.048 69.7549 131.864C69.4349 131.68 69.0709 131.588 68.6629 131.588C68.2629 131.588 67.8989 131.68 67.5709 131.864C67.2509 132.048 66.9949 132.308 66.8029 132.644C66.6189 132.972 66.5269 133.364 66.5269 133.82C66.5269 134.268 66.6189 134.664 66.8029 135.008C66.9949 135.344 67.2509 135.604 67.5709 135.788C67.8989 135.972 68.2629 136.064 68.6629 136.064ZM73.5666 137V130.64H74.6706V132.368L74.5626 131.936C74.7386 131.496 75.0346 131.16 75.4506 130.928C75.8666 130.696 76.3786 130.58 76.9866 130.58V131.696C76.9386 131.688 76.8906 131.684 76.8426 131.684C76.8026 131.684 76.7626 131.684 76.7226 131.684C76.1066 131.684 75.6186 131.868 75.2586 132.236C74.8986 132.604 74.7186 133.136 74.7186 133.832V137H73.5666ZM81.1799 137.072C80.4999 137.072 79.8999 136.932 79.3799 136.652C78.8679 136.372 78.4679 135.988 78.1799 135.5C77.8999 135.012 77.7599 134.452 77.7599 133.82C77.7599 133.188 77.8959 132.628 78.1679 132.14C78.4479 131.652 78.8279 131.272 79.3079 131C79.7959 130.72 80.3439 130.58 80.9519 130.58C81.5679 130.58 82.1119 130.716 82.5839 130.988C83.0559 131.26 83.4239 131.644 83.6879 132.14C83.9599 132.628 84.0959 133.2 84.0959 133.856C84.0959 133.904 84.0919 133.96 84.0839 134.024C84.0839 134.088 84.0799 134.148 84.0719 134.204H78.6599V133.376H83.4719L83.0039 133.664C83.0119 133.256 82.9279 132.892 82.7519 132.572C82.5759 132.252 82.3319 132.004 82.0199 131.828C81.7159 131.644 81.3599 131.552 80.9519 131.552C80.5519 131.552 80.1959 131.644 79.8839 131.828C79.5719 132.004 79.3279 132.256 79.1519 132.584C78.9759 132.904 78.8879 133.272 78.8879 133.688V133.88C78.8879 134.304 78.9839 134.684 79.1759 135.02C79.3759 135.348 79.6519 135.604 80.0039 135.788C80.3559 135.972 80.7599 136.064 81.2159 136.064C81.5919 136.064 81.9319 136 82.2359 135.872C82.5479 135.744 82.8199 135.552 83.0519 135.296L83.6879 136.04C83.3999 136.376 83.0399 136.632 82.6079 136.808C82.1839 136.984 81.7079 137.072 81.1799 137.072ZM91.6422 137.072C91.0022 137.072 90.4342 136.932 89.9382 136.652C89.4422 136.372 89.0502 135.988 88.7622 135.5C88.4742 135.004 88.3302 134.444 88.3302 133.82C88.3302 133.188 88.4742 132.628 88.7622 132.14C89.0502 131.652 89.4422 131.272 89.9382 131C90.4342 130.72 91.0022 130.58 91.6422 130.58C92.2742 130.58 92.8382 130.72 93.3342 131C93.8382 131.272 94.2302 131.652 94.5102 132.14C94.7982 132.62 94.9422 133.18 94.9422 133.82C94.9422 134.452 94.7982 135.012 94.5102 135.5C94.2302 135.988 93.8382 136.372 93.3342 136.652C92.8382 136.932 92.2742 137.072 91.6422 137.072ZM91.6422 136.064C92.0502 136.064 92.4142 135.972 92.7342 135.788C93.0622 135.604 93.3182 135.344 93.5022 135.008C93.6862 134.664 93.7782 134.268 93.7782 133.82C93.7782 133.364 93.6862 132.972 93.5022 132.644C93.3182 132.308 93.0622 132.048 92.7342 131.864C92.4142 131.68 92.0502 131.588 91.6422 131.588C91.2342 131.588 90.8702 131.68 90.5502 131.864C90.2302 132.048 89.9742 132.308 89.7822 132.644C89.5902 132.972 89.4942 133.364 89.4942 133.82C89.4942 134.268 89.5902 134.664 89.7822 135.008C89.9742 135.344 90.2302 135.604 90.5502 135.788C90.8702 135.972 91.2342 136.064 91.6422 136.064ZM102.53 137.072C101.882 137.072 101.302 136.932 100.79 136.652C100.286 136.372 99.89 135.988 99.602 135.5C99.314 135.012 99.17 134.452 99.17 133.82C99.17 133.188 99.314 132.628 99.602 132.14C99.89 131.652 100.286 131.272 100.79 131C101.302 130.72 101.882 130.58 102.53 130.58C103.106 130.58 103.618 130.696 104.066 130.928C104.522 131.152 104.874 131.488 105.122 131.936L104.246 132.5C104.038 132.188 103.782 131.96 103.478 131.816C103.182 131.664 102.862 131.588 102.518 131.588C102.102 131.588 101.73 131.68 101.402 131.864C101.074 132.048 100.814 132.308 100.622 132.644C100.43 132.972 100.334 133.364 100.334 133.82C100.334 134.276 100.43 134.672 100.622 135.008C100.814 135.344 101.074 135.604 101.402 135.788C101.73 135.972 102.102 136.064 102.518 136.064C102.862 136.064 103.182 135.992 103.478 135.848C103.782 135.696 104.038 135.464 104.246 135.152L105.122 135.704C104.874 136.144 104.522 136.484 104.066 136.724C103.618 136.956 103.106 137.072 102.53 137.072ZM110.561 137V135.656L110.501 135.404V133.112C110.501 132.624 110.357 132.248 110.069 131.984C109.789 131.712 109.365 131.576 108.797 131.576C108.421 131.576 108.053 131.64 107.693 131.768C107.333 131.888 107.029 132.052 106.781 132.26L106.301 131.396C106.629 131.132 107.021 130.932 107.477 130.796C107.941 130.652 108.425 130.58 108.929 130.58C109.801 130.58 110.473 130.792 110.945 131.216C111.417 131.64 111.653 132.288 111.653 133.16V137H110.561ZM108.473 137.072C108.001 137.072 107.585 136.992 107.225 136.832C106.873 136.672 106.601 136.452 106.409 136.172C106.217 135.884 106.121 135.56 106.121 135.2C106.121 134.856 106.201 134.544 106.361 134.264C106.529 133.984 106.797 133.76 107.165 133.592C107.541 133.424 108.045 133.34 108.677 133.34H110.693V134.168H108.725C108.149 134.168 107.761 134.264 107.561 134.456C107.361 134.648 107.261 134.88 107.261 135.152C107.261 135.464 107.385 135.716 107.633 135.908C107.881 136.092 108.225 136.184 108.665 136.184C109.097 136.184 109.473 136.088 109.793 135.896C110.121 135.704 110.357 135.424 110.501 135.056L110.729 135.848C110.577 136.224 110.309 136.524 109.925 136.748C109.541 136.964 109.057 137.072 108.473 137.072ZM117.181 130.58C117.701 130.58 118.157 130.68 118.549 130.88C118.949 131.08 119.261 131.384 119.485 131.792C119.709 132.2 119.821 132.716 119.821 133.34V137H118.669V133.472C118.669 132.856 118.517 132.392 118.213 132.08C117.917 131.768 117.497 131.612 116.953 131.612C116.545 131.612 116.189 131.692 115.885 131.852C115.581 132.012 115.345 132.248 115.177 132.56C115.017 132.872 114.937 133.26 114.937 133.724V137H113.785V130.64H114.889V132.356L114.709 131.9C114.917 131.484 115.237 131.16 115.669 130.928C116.101 130.696 116.605 130.58 117.181 130.58ZM124.137 137.072C123.497 137.072 123.001 136.9 122.649 136.556C122.297 136.212 122.121 135.72 122.121 135.08V129.248H123.273V135.032C123.273 135.376 123.357 135.64 123.525 135.824C123.701 136.008 123.949 136.1 124.269 136.1C124.629 136.1 124.929 136 125.169 135.8L125.529 136.628C125.353 136.78 125.141 136.892 124.893 136.964C124.653 137.036 124.401 137.072 124.137 137.072ZM121.041 131.588V130.64H125.097V131.588H121.041ZM129.435 137.072C128.795 137.072 128.227 136.932 127.731 136.652C127.235 136.372 126.843 135.988 126.555 135.5C126.267 135.004 126.123 134.444 126.123 133.82C126.123 133.188 126.267 132.628 126.555 132.14C126.843 131.652 127.235 131.272 127.731 131C128.227 130.72 128.795 130.58 129.435 130.58C130.067 130.58 130.631 130.72 131.127 131C131.631 131.272 132.023 131.652 132.303 132.14C132.591 132.62 132.735 133.18 132.735 133.82C132.735 134.452 132.591 135.012 132.303 135.5C132.023 135.988 131.631 136.372 131.127 136.652C130.631 136.932 130.067 137.072 129.435 137.072ZM129.435 136.064C129.843 136.064 130.207 135.972 130.527 135.788C130.855 135.604 131.111 135.344 131.295 135.008C131.479 134.664 131.571 134.268 131.571 133.82C131.571 133.364 131.479 132.972 131.295 132.644C131.111 132.308 130.855 132.048 130.527 131.864C130.207 131.68 129.843 131.588 129.435 131.588C129.027 131.588 128.663 131.68 128.343 131.864C128.023 132.048 127.767 132.308 127.575 132.644C127.383 132.972 127.287 133.364 127.287 133.82C127.287 134.268 127.383 134.664 127.575 135.008C127.767 135.344 128.023 135.604 128.343 135.788C128.663 135.972 129.027 136.064 129.435 136.064ZM31.4043 152.072C30.8763 152.072 30.3723 152 29.8923 151.856C29.4203 151.712 29.0483 151.536 28.7763 151.328L29.2563 150.416C29.5283 150.6 29.8643 150.756 30.2643 150.884C30.6643 151.012 31.0723 151.076 31.4883 151.076C32.0243 151.076 32.4083 151 32.6403 150.848C32.8803 150.696 33.0003 150.484 33.0003 150.212C33.0003 150.012 32.9283 149.856 32.7843 149.744C32.6403 149.632 32.4483 149.548 32.2083 149.492C31.9763 149.436 31.7163 149.388 31.4283 149.348C31.1403 149.3 30.8523 149.244 30.5643 149.18C30.2763 149.108 30.0123 149.012 29.7723 148.892C29.5323 148.764 29.3403 148.592 29.1963 148.376C29.0523 148.152 28.9803 147.856 28.9803 147.488C28.9803 147.104 29.0883 146.768 29.3043 146.48C29.5203 146.192 29.8243 145.972 30.2163 145.82C30.6163 145.66 31.0883 145.58 31.6323 145.58C32.0483 145.58 32.4683 145.632 32.8923 145.736C33.3243 145.832 33.6763 145.972 33.9483 146.156L33.4563 147.068C33.1683 146.876 32.8683 146.744 32.5563 146.672C32.2443 146.6 31.9323 146.564 31.6203 146.564C31.1163 146.564 30.7403 146.648 30.4923 146.816C30.2443 146.976 30.1203 147.184 30.1203 147.44C30.1203 147.656 30.1923 147.824 30.3363 147.944C30.4883 148.056 30.6803 148.144 30.9123 148.208C31.1523 148.272 31.4163 148.328 31.7043 148.376C31.9923 148.416 32.2803 148.472 32.5683 148.544C32.8563 148.608 33.1163 148.7 33.3483 148.82C33.5883 148.94 33.7803 149.108 33.9243 149.324C34.0763 149.54 34.1523 149.828 34.1523 150.188C34.1523 150.572 34.0403 150.904 33.8163 151.184C33.5923 151.464 33.2763 151.684 32.8683 151.844C32.4603 151.996 31.9723 152.072 31.4043 152.072ZM38.268 152.072C37.724 152.072 37.244 151.972 36.828 151.772C36.42 151.572 36.1 151.268 35.868 150.86C35.644 150.444 35.532 149.924 35.532 149.3V145.64H36.684V149.168C36.684 149.792 36.832 150.26 37.128 150.572C37.432 150.884 37.856 151.04 38.4 151.04C38.8 151.04 39.148 150.96 39.444 150.8C39.74 150.632 39.968 150.392 40.128 150.08C40.288 149.76 40.368 149.376 40.368 148.928V145.64H41.52V152H40.428V150.284L40.608 150.74C40.4 151.164 40.088 151.492 39.672 151.724C39.256 151.956 38.788 152.072 38.268 152.072ZM47.0851 152.072C46.5571 152.072 46.0731 151.952 45.6331 151.712C45.2011 151.464 44.8531 151.1 44.5891 150.62C44.3331 150.14 44.2051 149.54 44.2051 148.82C44.2051 148.1 44.3291 147.5 44.5771 147.02C44.8331 146.54 45.1771 146.18 45.6091 145.94C46.0491 145.7 46.5411 145.58 47.0851 145.58C47.7091 145.58 48.2611 145.716 48.7411 145.988C49.2211 146.26 49.6011 146.64 49.8811 147.128C50.1611 147.608 50.3011 148.172 50.3011 148.82C50.3011 149.468 50.1611 150.036 49.8811 150.524C49.6011 151.012 49.2211 151.392 48.7411 151.664C48.2611 151.936 47.7091 152.072 47.0851 152.072ZM43.7131 154.328V145.64H44.8171V147.356L44.7451 148.832L44.8651 150.308V154.328H43.7131ZM46.9891 151.064C47.3971 151.064 47.7611 150.972 48.0811 150.788C48.4091 150.604 48.6651 150.344 48.8491 150.008C49.0411 149.664 49.1371 149.268 49.1371 148.82C49.1371 148.364 49.0411 147.972 48.8491 147.644C48.6651 147.308 48.4091 147.048 48.0811 146.864C47.7611 146.68 47.3971 146.588 46.9891 146.588C46.5891 146.588 46.2251 146.68 45.8971 146.864C45.5771 147.048 45.3211 147.308 45.1291 147.644C44.9451 147.972 44.8531 148.364 44.8531 148.82C44.8531 149.268 44.9451 149.664 45.1291 150.008C45.3211 150.344 45.5771 150.604 45.8971 150.788C46.2251 150.972 46.5891 151.064 46.9891 151.064ZM54.7248 152.072C54.0448 152.072 53.4448 151.932 52.9248 151.652C52.4128 151.372 52.0128 150.988 51.7248 150.5C51.4448 150.012 51.3048 149.452 51.3048 148.82C51.3048 148.188 51.4408 147.628 51.7128 147.14C51.9928 146.652 52.3728 146.272 52.8528 146C53.3408 145.72 53.8888 145.58 54.4968 145.58C55.1128 145.58 55.6568 145.716 56.1288 145.988C56.6008 146.26 56.9688 146.644 57.2328 147.14C57.5048 147.628 57.6408 148.2 57.6408 148.856C57.6408 148.904 57.6368 148.96 57.6288 149.024C57.6288 149.088 57.6248 149.148 57.6168 149.204H52.2048V148.376H57.0168L56.5488 148.664C56.5568 148.256 56.4728 147.892 56.2968 147.572C56.1208 147.252 55.8768 147.004 55.5648 146.828C55.2608 146.644 54.9048 146.552 54.4968 146.552C54.0968 146.552 53.7408 146.644 53.4288 146.828C53.1168 147.004 52.8728 147.256 52.6968 147.584C52.5208 147.904 52.4328 148.272 52.4328 148.688V148.88C52.4328 149.304 52.5288 149.684 52.7208 150.02C52.9208 150.348 53.1968 150.604 53.5488 150.788C53.9008 150.972 54.3048 151.064 54.7608 151.064C55.1368 151.064 55.4768 151 55.7808 150.872C56.0928 150.744 56.3648 150.552 56.5968 150.296L57.2328 151.04C56.9448 151.376 56.5848 151.632 56.1528 151.808C55.7288 151.984 55.2528 152.072 54.7248 152.072ZM59.2404 152V145.64H60.3444V147.368L60.2364 146.936C60.4124 146.496 60.7084 146.16 61.1244 145.928C61.5404 145.696 62.0524 145.58 62.6604 145.58V146.696C62.6124 146.688 62.5644 146.684 62.5164 146.684C62.4764 146.684 62.4364 146.684 62.3964 146.684C61.7804 146.684 61.2924 146.868 60.9324 147.236C60.5724 147.604 60.3924 148.136 60.3924 148.832V152H59.2404ZM64.0803 152V145.64H65.2323V152H64.0803ZM64.6563 144.416C64.4323 144.416 64.2443 144.344 64.0923 144.2C63.9483 144.056 63.8763 143.88 63.8763 143.672C63.8763 143.456 63.9483 143.276 64.0923 143.132C64.2443 142.988 64.4323 142.916 64.6563 142.916C64.8803 142.916 65.0643 142.988 65.2083 143.132C65.3603 143.268 65.4363 143.44 65.4363 143.648C65.4363 143.864 65.3643 144.048 65.2203 144.2C65.0763 144.344 64.8883 144.416 64.6563 144.416ZM70.1558 152.072C69.5158 152.072 68.9478 151.932 68.4518 151.652C67.9558 151.372 67.5638 150.988 67.2758 150.5C66.9878 150.004 66.8438 149.444 66.8438 148.82C66.8438 148.188 66.9878 147.628 67.2758 147.14C67.5638 146.652 67.9558 146.272 68.4518 146C68.9478 145.72 69.5158 145.58 70.1558 145.58C70.7878 145.58 71.3518 145.72 71.8478 146C72.3518 146.272 72.7438 146.652 73.0238 147.14C73.3118 147.62 73.4558 148.18 73.4558 148.82C73.4558 149.452 73.3118 150.012 73.0238 150.5C72.7438 150.988 72.3518 151.372 71.8478 151.652C71.3518 151.932 70.7878 152.072 70.1558 152.072ZM70.1558 151.064C70.5638 151.064 70.9278 150.972 71.2478 150.788C71.5758 150.604 71.8318 150.344 72.0158 150.008C72.1998 149.664 72.2918 149.268 72.2918 148.82C72.2918 148.364 72.1998 147.972 72.0158 147.644C71.8318 147.308 71.5758 147.048 71.2478 146.864C70.9278 146.68 70.5638 146.588 70.1558 146.588C69.7478 146.588 69.3838 146.68 69.0638 146.864C68.7438 147.048 68.4878 147.308 68.2958 147.644C68.1038 147.972 68.0078 148.364 68.0078 148.82C68.0078 149.268 68.1038 149.664 68.2958 150.008C68.4878 150.344 68.7438 150.604 69.0638 150.788C69.3838 150.972 69.7478 151.064 70.1558 151.064ZM75.049 152V145.64H76.153V147.368L76.045 146.936C76.221 146.496 76.517 146.16 76.933 145.928C77.349 145.696 77.861 145.58 78.469 145.58V146.696C78.421 146.688 78.373 146.684 78.325 146.684C78.285 146.684 78.245 146.684 78.205 146.684C77.589 146.684 77.101 146.868 76.741 147.236C76.381 147.604 76.201 148.136 76.201 148.832V152H75.049ZM86.5656 152.072C86.0376 152.072 85.5536 151.952 85.1136 151.712C84.6816 151.464 84.3336 151.1 84.0696 150.62C83.8136 150.14 83.6856 149.54 83.6856 148.82C83.6856 148.1 83.8096 147.5 84.0576 147.02C84.3136 146.54 84.6576 146.18 85.0896 145.94C85.5296 145.7 86.0216 145.58 86.5656 145.58C87.1896 145.58 87.7416 145.716 88.2216 145.988C88.7016 146.26 89.0816 146.64 89.3616 147.128C89.6416 147.608 89.7816 148.172 89.7816 148.82C89.7816 149.468 89.6416 150.036 89.3616 150.524C89.0816 151.012 88.7016 151.392 88.2216 151.664C87.7416 151.936 87.1896 152.072 86.5656 152.072ZM83.1936 154.328V145.64H84.2976V147.356L84.2256 148.832L84.3456 150.308V154.328H83.1936ZM86.4696 151.064C86.8776 151.064 87.2416 150.972 87.5616 150.788C87.8896 150.604 88.1456 150.344 88.3296 150.008C88.5216 149.664 88.6176 149.268 88.6176 148.82C88.6176 148.364 88.5216 147.972 88.3296 147.644C88.1456 147.308 87.8896 147.048 87.5616 146.864C87.2416 146.68 86.8776 146.588 86.4696 146.588C86.0696 146.588 85.7056 146.68 85.3776 146.864C85.0576 147.048 84.8016 147.308 84.6096 147.644C84.4256 147.972 84.3336 148.364 84.3336 148.82C84.3336 149.268 84.4256 149.664 84.6096 150.008C84.8016 150.344 85.0576 150.604 85.3776 150.788C85.7056 150.972 86.0696 151.064 86.4696 151.064ZM95.2627 152V150.656L95.2027 150.404V148.112C95.2027 147.624 95.0587 147.248 94.7707 146.984C94.4907 146.712 94.0667 146.576 93.4987 146.576C93.1227 146.576 92.7547 146.64 92.3947 146.768C92.0347 146.888 91.7307 147.052 91.4827 147.26L91.0027 146.396C91.3307 146.132 91.7227 145.932 92.1787 145.796C92.6427 145.652 93.1267 145.58 93.6307 145.58C94.5027 145.58 95.1747 145.792 95.6467 146.216C96.1187 146.64 96.3547 147.288 96.3547 148.16V152H95.2627ZM93.1747 152.072C92.7027 152.072 92.2867 151.992 91.9267 151.832C91.5747 151.672 91.3027 151.452 91.1107 151.172C90.9187 150.884 90.8227 150.56 90.8227 150.2C90.8227 149.856 90.9027 149.544 91.0627 149.264C91.2307 148.984 91.4987 148.76 91.8667 148.592C92.2427 148.424 92.7467 148.34 93.3787 148.34H95.3947V149.168H93.4267C92.8507 149.168 92.4627 149.264 92.2627 149.456C92.0627 149.648 91.9627 149.88 91.9627 150.152C91.9627 150.464 92.0867 150.716 92.3347 150.908C92.5827 151.092 92.9267 151.184 93.3667 151.184C93.7987 151.184 94.1747 151.088 94.4947 150.896C94.8227 150.704 95.0587 150.424 95.2027 150.056L95.4307 150.848C95.2787 151.224 95.0107 151.524 94.6267 151.748C94.2427 151.964 93.7587 152.072 93.1747 152.072ZM98.4865 152V145.64H99.5905V147.368L99.4825 146.936C99.6585 146.496 99.9545 146.16 100.371 145.928C100.787 145.696 101.299 145.58 101.907 145.58V146.696C101.859 146.688 101.811 146.684 101.763 146.684C101.723 146.684 101.683 146.684 101.643 146.684C101.027 146.684 100.539 146.868 100.179 147.236C99.8185 147.604 99.6385 148.136 99.6385 148.832V152H98.4865ZM106.806 152V150.656L106.746 150.404V148.112C106.746 147.624 106.602 147.248 106.314 146.984C106.034 146.712 105.61 146.576 105.042 146.576C104.666 146.576 104.298 146.64 103.938 146.768C103.578 146.888 103.274 147.052 103.026 147.26L102.546 146.396C102.874 146.132 103.266 145.932 103.722 145.796C104.186 145.652 104.67 145.58 105.174 145.58C106.046 145.58 106.718 145.792 107.19 146.216C107.662 146.64 107.898 147.288 107.898 148.16V152H106.806ZM104.718 152.072C104.246 152.072 103.83 151.992 103.47 151.832C103.118 151.672 102.846 151.452 102.654 151.172C102.462 150.884 102.366 150.56 102.366 150.2C102.366 149.856 102.446 149.544 102.606 149.264C102.774 148.984 103.042 148.76 103.41 148.592C103.786 148.424 104.29 148.34 104.922 148.34H106.938V149.168H104.97C104.394 149.168 104.006 149.264 103.806 149.456C103.606 149.648 103.506 149.88 103.506 150.152C103.506 150.464 103.63 150.716 103.878 150.908C104.126 151.092 104.47 151.184 104.91 151.184C105.342 151.184 105.718 151.088 106.038 150.896C106.366 150.704 106.602 150.424 106.746 150.056L106.974 150.848C106.822 151.224 106.554 151.524 106.17 151.748C105.786 151.964 105.302 152.072 104.718 152.072ZM113.42 152V145.076C113.42 144.452 113.6 143.956 113.96 143.588C114.328 143.212 114.848 143.024 115.52 143.024C115.768 143.024 116.004 143.056 116.228 143.12C116.46 143.176 116.656 143.268 116.816 143.396L116.468 144.272C116.348 144.176 116.212 144.104 116.06 144.056C115.908 144 115.748 143.972 115.58 143.972C115.244 143.972 114.988 144.068 114.812 144.26C114.636 144.444 114.548 144.72 114.548 145.088V145.94L114.572 146.468V152H113.42ZM112.34 146.588V145.64H116.396V146.588H112.34ZM117.483 152V145.64H118.587V147.368L118.479 146.936C118.655 146.496 118.951 146.16 119.367 145.928C119.783 145.696 120.295 145.58 120.903 145.58V146.696C120.855 146.688 120.807 146.684 120.759 146.684C120.719 146.684 120.679 146.684 120.639 146.684C120.023 146.684 119.535 146.868 119.175 147.236C118.815 147.604 118.635 148.136 118.635 148.832V152H117.483ZM125.096 152.072C124.416 152.072 123.816 151.932 123.296 151.652C122.784 151.372 122.384 150.988 122.096 150.5C121.816 150.012 121.676 149.452 121.676 148.82C121.676 148.188 121.812 147.628 122.084 147.14C122.364 146.652 122.744 146.272 123.224 146C123.712 145.72 124.26 145.58 124.868 145.58C125.484 145.58 126.028 145.716 126.5 145.988C126.972 146.26 127.34 146.644 127.604 147.14C127.876 147.628 128.012 148.2 128.012 148.856C128.012 148.904 128.008 148.96 128 149.024C128 149.088 127.996 149.148 127.988 149.204H122.576V148.376H127.388L126.92 148.664C126.928 148.256 126.844 147.892 126.668 147.572C126.492 147.252 126.248 147.004 125.936 146.828C125.632 146.644 125.276 146.552 124.868 146.552C124.468 146.552 124.112 146.644 123.8 146.828C123.488 147.004 123.244 147.256 123.068 147.584C122.892 147.904 122.804 148.272 122.804 148.688V148.88C122.804 149.304 122.9 149.684 123.092 150.02C123.292 150.348 123.568 150.604 123.92 150.788C124.272 150.972 124.676 151.064 125.132 151.064C125.508 151.064 125.848 151 126.152 150.872C126.464 150.744 126.736 150.552 126.968 150.296L127.604 151.04C127.316 151.376 126.956 151.632 126.524 151.808C126.1 151.984 125.624 152.072 125.096 152.072ZM133.008 145.58C133.528 145.58 133.984 145.68 134.376 145.88C134.776 146.08 135.088 146.384 135.312 146.792C135.536 147.2 135.648 147.716 135.648 148.34V152H134.496V148.472C134.496 147.856 134.344 147.392 134.04 147.08C133.744 146.768 133.324 146.612 132.78 146.612C132.372 146.612 132.016 146.692 131.712 146.852C131.408 147.012 131.172 147.248 131.004 147.56C130.844 147.872 130.764 148.26 130.764 148.724V152H129.612V145.64H130.716V147.356L130.536 146.9C130.744 146.484 131.064 146.16 131.496 145.928C131.928 145.696 132.432 145.58 133.008 145.58ZM139.964 152.072C139.324 152.072 138.828 151.9 138.476 151.556C138.124 151.212 137.948 150.72 137.948 150.08V144.248H139.1V150.032C139.1 150.376 139.184 150.64 139.352 150.824C139.528 151.008 139.776 151.1 140.096 151.1C140.456 151.1 140.756 151 140.996 150.8L141.356 151.628C141.18 151.78 140.968 151.892 140.72 151.964C140.48 152.036 140.228 152.072 139.964 152.072ZM136.868 146.588V145.64H140.924V146.588H136.868ZM145.369 152.072C144.689 152.072 144.089 151.932 143.569 151.652C143.057 151.372 142.657 150.988 142.369 150.5C142.089 150.012 141.949 149.452 141.949 148.82C141.949 148.188 142.085 147.628 142.357 147.14C142.637 146.652 143.017 146.272 143.497 146C143.985 145.72 144.533 145.58 145.141 145.58C145.757 145.58 146.301 145.716 146.773 145.988C147.245 146.26 147.613 146.644 147.877 147.14C148.149 147.628 148.285 148.2 148.285 148.856C148.285 148.904 148.281 148.96 148.273 149.024C148.273 149.088 148.269 149.148 148.261 149.204H142.849V148.376H147.661L147.193 148.664C147.201 148.256 147.117 147.892 146.941 147.572C146.765 147.252 146.521 147.004 146.209 146.828C145.905 146.644 145.549 146.552 145.141 146.552C144.741 146.552 144.385 146.644 144.073 146.828C143.761 147.004 143.517 147.256 143.341 147.584C143.165 147.904 143.077 148.272 143.077 148.688V148.88C143.077 149.304 143.173 149.684 143.365 150.02C143.565 150.348 143.841 150.604 144.193 150.788C144.545 150.972 144.949 151.064 145.405 151.064C145.781 151.064 146.121 151 146.425 150.872C146.737 150.744 147.009 150.552 147.241 150.296L147.877 151.04C147.589 151.376 147.229 151.632 146.797 151.808C146.373 151.984 145.897 152.072 145.369 152.072ZM150.161 152.072C149.937 152.072 149.745 151.996 149.585 151.844C149.425 151.684 149.345 151.484 149.345 151.244C149.345 151.004 149.425 150.808 149.585 150.656C149.745 150.504 149.937 150.428 150.161 150.428C150.377 150.428 150.561 150.504 150.713 150.656C150.873 150.808 150.953 151.004 150.953 151.244C150.953 151.484 150.873 151.684 150.713 151.844C150.561 151.996 150.377 152.072 150.161 152.072Z" fill="#008E86"/>
<path d="M66.9995 67.5L89.4995 45L89.4995 90L66.9995 67.5Z" fill="#00D8CC" stroke="#00635D" stroke-width="2" stroke-linejoin="round"/>
<path d="M89.5 45L112 67.4999L89.5 90L89.5 45Z" fill="#00D8CC" stroke="#00635D" stroke-width="2" stroke-linejoin="round"/>
<path d="M66.9995 67.5L89.4995 45L89.4995 66L71.4995 72L66.9995 67.5Z" fill="#00D8CC" stroke="#00635D" stroke-width="2" stroke-linejoin="round"/>
<path d="M89.4995 45.0001L111.999 67.5L107.499 72L89.4995 66L89.4995 45.0001Z" fill="#00D8CC" stroke="#00635D" stroke-width="2" stroke-linejoin="round"/>
<path d="M99 55L80 55" stroke="#333333" stroke-width="2" stroke-dasharray="4 4"/>
<path d="M90 66L72 72L72 48L90 66Z" fill="#00D8CC" stroke="#00635D" stroke-width="2" stroke-linejoin="round"/>
<path d="M107 72.5L89 66L107 48L107 72.5Z" fill="#00D8CC" stroke="#00635D" stroke-width="2" stroke-linejoin="round"/>
<path d="M66.6926 63.8513C67.2448 63.838 67.6816 63.3797 67.6684 62.8276L67.4525 53.8302C67.4392 53.278 66.9809 52.8412 66.4288 52.8544C65.8767 52.8677 65.4398 53.326 65.4531 53.8781L65.645 61.8758L57.6473 62.0677C57.0951 62.081 56.6583 62.5393 56.6715 63.0914C56.6848 63.6435 57.1431 64.0804 57.6952 64.0672L66.6926 63.8513ZM67.3586 42.7221C67.7584 42.341 67.7736 41.7081 67.3925 41.3083C67.0115 40.9085 66.3785 40.8933 65.9787 41.2744L67.3586 42.7221ZM67.3586 62.1277C64.3452 59.2556 63 55.8496 63 52.4685L61 52.4685C61 56.4167 62.5841 60.3399 65.9787 63.5754L67.3586 62.1277ZM63 52.4685C63 50.8311 63.5384 48.9072 64.3822 47.1002C65.2251 45.2953 66.3263 43.706 67.3586 42.7221L65.9787 41.2744C64.7225 42.4717 63.4894 44.2853 62.57 46.254C61.6517 48.2207 61 50.4413 61 52.4685L63 52.4685Z" fill="black"/>
</g>
<defs>
<clipPath id="clip0_18_738">
<rect width="180" height="180" rx="20" fill="white"/>
</clipPath>
<clipPath id="clip1_18_738">
<path d="M0 30L-1.31134e-06 0L30 -1.31134e-06L30 10C30 21.0457 21.0457 30 10 30L0 30Z" fill="white"/>
</clipPath>
</defs>
</svg>
