<svg width="180" height="180" viewBox="0 0 180 180" fill="none" xmlns="http://www.w3.org/2000/svg">
<g clip-path="url(#clip0_18_764)">
<rect width="180" height="180" rx="20" fill="#F2F2F2"/>
<g clip-path="url(#clip1_18_764)">
<path d="M0 30L-1.31134e-06 0L30 -1.31134e-06L30 10C30 21.0457 21.0457 30 10 30L0 30Z" fill="#333333"/>
<path d="M14.7062 14.008C16.2849 14.008 17.4475 14.3227 18.1942 14.952C18.9515 15.5813 19.3302 16.424 19.3302 17.48C19.3302 18.1627 19.1595 18.7867 18.8182 19.352C18.4769 19.9067 17.9542 20.3547 17.2502 20.696C16.5569 21.0267 15.6982 21.192 14.6742 21.192C13.8849 21.192 13.1062 21.0907 12.3382 20.888C11.5809 20.6747 10.9355 20.376 10.4022 19.992L11.4262 18.008C11.8529 18.328 12.3435 18.5787 12.8982 18.76C13.4529 18.9307 14.0235 19.016 14.6102 19.016C15.2609 19.016 15.7729 18.888 16.1462 18.632C16.5195 18.376 16.7062 18.0187 16.7062 17.56C16.7062 17.08 16.5089 16.7173 16.1142 16.472C15.7302 16.2267 15.0582 16.104 14.0982 16.104H11.2342L11.8102 9.8H18.6422V11.88H13.9702L13.7942 14.008H14.7062Z" fill="#F2F2F2"/>
</g>
<path d="M24.5452 137V128.6H28.0852C28.9812 128.6 29.7692 128.776 30.4492 129.128C31.1372 129.48 31.6692 129.972 32.0452 130.604C32.4292 131.236 32.6212 131.968 32.6212 132.8C32.6212 133.632 32.4292 134.364 32.0452 134.996C31.6692 135.628 31.1372 136.12 30.4492 136.472C29.7692 136.824 28.9812 137 28.0852 137H24.5452ZM25.7452 135.956H28.0132C28.7092 135.956 29.3092 135.824 29.8132 135.56C30.3252 135.296 30.7212 134.928 31.0012 134.456C31.2812 133.976 31.4212 133.424 31.4212 132.8C31.4212 132.168 31.2812 131.616 31.0012 131.144C30.7212 130.672 30.3252 130.304 29.8132 130.04C29.3092 129.776 28.7092 129.644 28.0132 129.644H25.7452V135.956ZM37.0152 137.072C36.3752 137.072 35.8072 136.932 35.3112 136.652C34.8152 136.372 34.4232 135.988 34.1352 135.5C33.8472 135.004 33.7032 134.444 33.7032 133.82C33.7032 133.188 33.8472 132.628 34.1352 132.14C34.4232 131.652 34.8152 131.272 35.3112 131C35.8072 130.72 36.3752 130.58 37.0152 130.58C37.6472 130.58 38.2112 130.72 38.7072 131C39.2112 131.272 39.6032 131.652 39.8832 132.14C40.1712 132.62 40.3152 133.18 40.3152 133.82C40.3152 134.452 40.1712 135.012 39.8832 135.5C39.6032 135.988 39.2112 136.372 38.7072 136.652C38.2112 136.932 37.6472 137.072 37.0152 137.072ZM37.0152 136.064C37.4232 136.064 37.7872 135.972 38.1072 135.788C38.4352 135.604 38.6912 135.344 38.8752 135.008C39.0592 134.664 39.1512 134.268 39.1512 133.82C39.1512 133.364 39.0592 132.972 38.8752 132.644C38.6912 132.308 38.4352 132.048 38.1072 131.864C37.7872 131.68 37.4232 131.588 37.0152 131.588C36.6072 131.588 36.2432 131.68 35.9232 131.864C35.6032 132.048 35.3472 132.308 35.1552 132.644C34.9632 132.972 34.8672 133.364 34.8672 133.82C34.8672 134.268 34.9632 134.664 35.1552 135.008C35.3472 135.344 35.6032 135.604 35.9232 135.788C36.2432 135.972 36.6072 136.064 37.0152 136.064ZM45.2804 137.072C44.7364 137.072 44.2444 136.952 43.8044 136.712C43.3724 136.464 43.0284 136.1 42.7724 135.62C42.5244 135.14 42.4004 134.54 42.4004 133.82C42.4004 133.1 42.5284 132.5 42.7844 132.02C43.0484 131.54 43.3964 131.18 43.8284 130.94C44.2684 130.7 44.7524 130.58 45.2804 130.58C45.9044 130.58 46.4564 130.716 46.9364 130.988C47.4164 131.26 47.7964 131.64 48.0764 132.128C48.3564 132.608 48.4964 133.172 48.4964 133.82C48.4964 134.468 48.3564 135.036 48.0764 135.524C47.7964 136.012 47.4164 136.392 46.9364 136.664C46.4564 136.936 45.9044 137.072 45.2804 137.072ZM41.9084 137V128.096H43.0604V132.332L42.9404 133.808L43.0124 135.284V137H41.9084ZM45.1844 136.064C45.5924 136.064 45.9564 135.972 46.2764 135.788C46.6044 135.604 46.8604 135.344 47.0444 135.008C47.2364 134.664 47.3324 134.268 47.3324 133.82C47.3324 133.364 47.2364 132.972 47.0444 132.644C46.8604 132.308 46.6044 132.048 46.2764 131.864C45.9564 131.68 45.5924 131.588 45.1844 131.588C44.7844 131.588 44.4204 131.68 44.0924 131.864C43.7724 132.048 43.5164 132.308 43.3244 132.644C43.1404 132.972 43.0484 133.364 43.0484 133.82C43.0484 134.268 43.1404 134.664 43.3244 135.008C43.5164 135.344 43.7724 135.604 44.0924 135.788C44.4204 135.972 44.7844 136.064 45.1844 136.064ZM50.0881 137V130.64H51.1921V132.368L51.0841 131.936C51.2601 131.496 51.5561 131.16 51.9721 130.928C52.3881 130.696 52.9001 130.58 53.5081 130.58V131.696C53.4601 131.688 53.4121 131.684 53.3641 131.684C53.3241 131.684 53.2841 131.684 53.2441 131.684C52.6281 131.684 52.1401 131.868 51.7801 132.236C51.4201 132.604 51.2401 133.136 51.2401 133.832V137H50.0881ZM57.7013 137.072C57.0213 137.072 56.4213 136.932 55.9013 136.652C55.3893 136.372 54.9893 135.988 54.7013 135.5C54.4213 135.012 54.2813 134.452 54.2813 133.82C54.2813 133.188 54.4173 132.628 54.6893 132.14C54.9693 131.652 55.3493 131.272 55.8293 131C56.3173 130.72 56.8653 130.58 57.4733 130.58C58.0893 130.58 58.6333 130.716 59.1053 130.988C59.5773 131.26 59.9453 131.644 60.2093 132.14C60.4813 132.628 60.6173 133.2 60.6173 133.856C60.6173 133.904 60.6133 133.96 60.6053 134.024C60.6053 134.088 60.6013 134.148 60.5933 134.204H55.1813V133.376H59.9933L59.5253 133.664C59.5333 133.256 59.4493 132.892 59.2733 132.572C59.0973 132.252 58.8533 132.004 58.5413 131.828C58.2373 131.644 57.8813 131.552 57.4733 131.552C57.0733 131.552 56.7173 131.644 56.4053 131.828C56.0933 132.004 55.8493 132.256 55.6733 132.584C55.4973 132.904 55.4093 133.272 55.4093 133.688V133.88C55.4093 134.304 55.5053 134.684 55.6973 135.02C55.8973 135.348 56.1733 135.604 56.5253 135.788C56.8773 135.972 57.2813 136.064 57.7373 136.064C58.1133 136.064 58.4533 136 58.7573 135.872C59.0693 135.744 59.3413 135.552 59.5733 135.296L60.2093 136.04C59.9213 136.376 59.5613 136.632 59.1293 136.808C58.7053 136.984 58.2293 137.072 57.7013 137.072ZM68.1637 137.072C67.5237 137.072 66.9557 136.932 66.4597 136.652C65.9637 136.372 65.5717 135.988 65.2837 135.5C64.9957 135.004 64.8517 134.444 64.8517 133.82C64.8517 133.188 64.9957 132.628 65.2837 132.14C65.5717 131.652 65.9637 131.272 66.4597 131C66.9557 130.72 67.5237 130.58 68.1637 130.58C68.7957 130.58 69.3597 130.72 69.8557 131C70.3597 131.272 70.7517 131.652 71.0317 132.14C71.3197 132.62 71.4637 133.18 71.4637 133.82C71.4637 134.452 71.3197 135.012 71.0317 135.5C70.7517 135.988 70.3597 136.372 69.8557 136.652C69.3597 136.932 68.7957 137.072 68.1637 137.072ZM68.1637 136.064C68.5717 136.064 68.9357 135.972 69.2557 135.788C69.5837 135.604 69.8397 135.344 70.0237 135.008C70.2077 134.664 70.2997 134.268 70.2997 133.82C70.2997 133.364 70.2077 132.972 70.0237 132.644C69.8397 132.308 69.5837 132.048 69.2557 131.864C68.9357 131.68 68.5717 131.588 68.1637 131.588C67.7557 131.588 67.3917 131.68 67.0717 131.864C66.7517 132.048 66.4957 132.308 66.3037 132.644C66.1117 132.972 66.0157 133.364 66.0157 133.82C66.0157 134.268 66.1117 134.664 66.3037 135.008C66.4957 135.344 66.7517 135.604 67.0717 135.788C67.3917 135.972 67.7557 136.064 68.1637 136.064ZM79.0515 137.072C78.4035 137.072 77.8235 136.932 77.3115 136.652C76.8075 136.372 76.4115 135.988 76.1235 135.5C75.8355 135.012 75.6915 134.452 75.6915 133.82C75.6915 133.188 75.8355 132.628 76.1235 132.14C76.4115 131.652 76.8075 131.272 77.3115 131C77.8235 130.72 78.4035 130.58 79.0515 130.58C79.6275 130.58 80.1395 130.696 80.5875 130.928C81.0435 131.152 81.3955 131.488 81.6435 131.936L80.7675 132.5C80.5595 132.188 80.3035 131.96 79.9995 131.816C79.7035 131.664 79.3835 131.588 79.0395 131.588C78.6235 131.588 78.2515 131.68 77.9235 131.864C77.5955 132.048 77.3355 132.308 77.1435 132.644C76.9515 132.972 76.8555 133.364 76.8555 133.82C76.8555 134.276 76.9515 134.672 77.1435 135.008C77.3355 135.344 77.5955 135.604 77.9235 135.788C78.2515 135.972 78.6235 136.064 79.0395 136.064C79.3835 136.064 79.7035 135.992 79.9995 135.848C80.3035 135.696 80.5595 135.464 80.7675 135.152L81.6435 135.704C81.3955 136.144 81.0435 136.484 80.5875 136.724C80.1395 136.956 79.6275 137.072 79.0515 137.072ZM87.083 137V135.656L87.023 135.404V133.112C87.023 132.624 86.879 132.248 86.591 131.984C86.311 131.712 85.887 131.576 85.319 131.576C84.943 131.576 84.575 131.64 84.215 131.768C83.855 131.888 83.551 132.052 83.303 132.26L82.823 131.396C83.151 131.132 83.543 130.932 83.999 130.796C84.463 130.652 84.947 130.58 85.451 130.58C86.323 130.58 86.995 130.792 87.467 131.216C87.939 131.64 88.175 132.288 88.175 133.16V137H87.083ZM84.995 137.072C84.523 137.072 84.107 136.992 83.747 136.832C83.395 136.672 83.123 136.452 82.931 136.172C82.739 135.884 82.643 135.56 82.643 135.2C82.643 134.856 82.723 134.544 82.883 134.264C83.051 133.984 83.319 133.76 83.687 133.592C84.063 133.424 84.567 133.34 85.199 133.34H87.215V134.168H85.247C84.671 134.168 84.283 134.264 84.083 134.456C83.883 134.648 83.783 134.88 83.783 135.152C83.783 135.464 83.907 135.716 84.155 135.908C84.403 136.092 84.747 136.184 85.187 136.184C85.619 136.184 85.995 136.088 86.315 135.896C86.643 135.704 86.879 135.424 87.023 135.056L87.251 135.848C87.099 136.224 86.831 136.524 86.447 136.748C86.063 136.964 85.579 137.072 84.995 137.072ZM93.7028 130.58C94.2228 130.58 94.6788 130.68 95.0708 130.88C95.4708 131.08 95.7828 131.384 96.0068 131.792C96.2308 132.2 96.3428 132.716 96.3428 133.34V137H95.1908V133.472C95.1908 132.856 95.0388 132.392 94.7348 132.08C94.4388 131.768 94.0188 131.612 93.4748 131.612C93.0668 131.612 92.7108 131.692 92.4068 131.852C92.1028 132.012 91.8668 132.248 91.6988 132.56C91.5388 132.872 91.4588 133.26 91.4588 133.724V137H90.3068V130.64H91.4108V132.356L91.2308 131.9C91.4388 131.484 91.7588 131.16 92.1908 130.928C92.6228 130.696 93.1268 130.58 93.7028 130.58ZM100.659 137.072C100.019 137.072 99.5228 136.9 99.1708 136.556C98.8188 136.212 98.6428 135.72 98.6428 135.08V129.248H99.7948V135.032C99.7948 135.376 99.8788 135.64 100.047 135.824C100.223 136.008 100.471 136.1 100.791 136.1C101.151 136.1 101.451 136 101.691 135.8L102.051 136.628C101.875 136.78 101.663 136.892 101.415 136.964C101.175 137.036 100.923 137.072 100.659 137.072ZM97.5628 131.588V130.64H101.619V131.588H97.5628ZM105.957 137.072C105.317 137.072 104.749 136.932 104.253 136.652C103.757 136.372 103.365 135.988 103.077 135.5C102.789 135.004 102.645 134.444 102.645 133.82C102.645 133.188 102.789 132.628 103.077 132.14C103.365 131.652 103.757 131.272 104.253 131C104.749 130.72 105.317 130.58 105.957 130.58C106.589 130.58 107.153 130.72 107.649 131C108.153 131.272 108.545 131.652 108.825 132.14C109.113 132.62 109.257 133.18 109.257 133.82C109.257 134.452 109.113 135.012 108.825 135.5C108.545 135.988 108.153 136.372 107.649 136.652C107.153 136.932 106.589 137.072 105.957 137.072ZM105.957 136.064C106.365 136.064 106.729 135.972 107.049 135.788C107.377 135.604 107.633 135.344 107.817 135.008C108.001 134.664 108.093 134.268 108.093 133.82C108.093 133.364 108.001 132.972 107.817 132.644C107.633 132.308 107.377 132.048 107.049 131.864C106.729 131.68 106.365 131.588 105.957 131.588C105.549 131.588 105.185 131.68 104.865 131.864C104.545 132.048 104.289 132.308 104.097 132.644C103.905 132.972 103.809 133.364 103.809 133.82C103.809 134.268 103.905 134.664 104.097 135.008C104.289 135.344 104.545 135.604 104.865 135.788C105.185 135.972 105.549 136.064 105.957 136.064ZM114.072 137V130.64H115.224V137H114.072ZM114.648 129.416C114.424 129.416 114.236 129.344 114.084 129.2C113.94 129.056 113.868 128.88 113.868 128.672C113.868 128.456 113.94 128.276 114.084 128.132C114.236 127.988 114.424 127.916 114.648 127.916C114.872 127.916 115.056 127.988 115.2 128.132C115.352 128.268 115.428 128.44 115.428 128.648C115.428 128.864 115.356 129.048 115.212 129.2C115.068 129.344 114.88 129.416 114.648 129.416ZM120.82 130.58C121.34 130.58 121.796 130.68 122.188 130.88C122.588 131.08 122.9 131.384 123.124 131.792C123.348 132.2 123.46 132.716 123.46 133.34V137H122.308V133.472C122.308 132.856 122.156 132.392 121.852 132.08C121.556 131.768 121.136 131.612 120.592 131.612C120.184 131.612 119.828 131.692 119.524 131.852C119.22 132.012 118.984 132.248 118.816 132.56C118.656 132.872 118.576 133.26 118.576 133.724V137H117.424V130.64H118.528V132.356L118.348 131.9C118.556 131.484 118.876 131.16 119.308 130.928C119.74 130.696 120.244 130.58 120.82 130.58ZM125.76 137V130.076C125.76 129.452 125.94 128.956 126.3 128.588C126.668 128.212 127.188 128.024 127.86 128.024C128.108 128.024 128.344 128.056 128.568 128.12C128.8 128.176 128.996 128.268 129.156 128.396L128.808 129.272C128.688 129.176 128.552 129.104 128.4 129.056C128.248 129 128.088 128.972 127.92 128.972C127.584 128.972 127.328 129.068 127.152 129.26C126.976 129.444 126.888 129.72 126.888 130.088V130.94L126.912 131.468V137H125.76ZM124.68 131.588V130.64H128.736V131.588H124.68ZM132.561 137.072C131.881 137.072 131.281 136.932 130.761 136.652C130.249 136.372 129.849 135.988 129.561 135.5C129.281 135.012 129.141 134.452 129.141 133.82C129.141 133.188 129.277 132.628 129.549 132.14C129.829 131.652 130.209 131.272 130.689 131C131.177 130.72 131.725 130.58 132.333 130.58C132.949 130.58 133.493 130.716 133.965 130.988C134.437 131.26 134.805 131.644 135.069 132.14C135.341 132.628 135.477 133.2 135.477 133.856C135.477 133.904 135.473 133.96 135.465 134.024C135.465 134.088 135.461 134.148 135.453 134.204H130.041V133.376H134.853L134.385 133.664C134.393 133.256 134.309 132.892 134.133 132.572C133.957 132.252 133.713 132.004 133.401 131.828C133.097 131.644 132.741 131.552 132.333 131.552C131.933 131.552 131.577 131.644 131.265 131.828C130.953 132.004 130.709 132.256 130.533 132.584C130.357 132.904 130.269 133.272 130.269 133.688V133.88C130.269 134.304 130.365 134.684 130.557 135.02C130.757 135.348 131.033 135.604 131.385 135.788C131.737 135.972 132.141 136.064 132.597 136.064C132.973 136.064 133.313 136 133.617 135.872C133.929 135.744 134.201 135.552 134.433 135.296L135.069 136.04C134.781 136.376 134.421 136.632 133.989 136.808C133.565 136.984 133.089 137.072 132.561 137.072ZM137.076 137V130.64H138.18V132.368L138.072 131.936C138.248 131.496 138.544 131.16 138.96 130.928C139.376 130.696 139.888 130.58 140.496 130.58V131.696C140.448 131.688 140.4 131.684 140.352 131.684C140.312 131.684 140.272 131.684 140.232 131.684C139.616 131.684 139.128 131.868 138.768 132.236C138.408 132.604 138.228 133.136 138.228 133.832V137H137.076ZM141.916 137V130.64H143.068V137H141.916ZM142.492 129.416C142.268 129.416 142.08 129.344 141.928 129.2C141.784 129.056 141.712 128.88 141.712 128.672C141.712 128.456 141.784 128.276 141.928 128.132C142.08 127.988 142.268 127.916 142.492 127.916C142.716 127.916 142.9 127.988 143.044 128.132C143.196 128.268 143.272 128.44 143.272 128.648C143.272 128.864 143.2 129.048 143.056 129.2C142.912 129.344 142.724 129.416 142.492 129.416ZM147.992 137.072C147.352 137.072 146.784 136.932 146.288 136.652C145.792 136.372 145.4 135.988 145.112 135.5C144.824 135.004 144.68 134.444 144.68 133.82C144.68 133.188 144.824 132.628 145.112 132.14C145.4 131.652 145.792 131.272 146.288 131C146.784 130.72 147.352 130.58 147.992 130.58C148.624 130.58 149.188 130.72 149.684 131C150.188 131.272 150.58 131.652 150.86 132.14C151.148 132.62 151.292 133.18 151.292 133.82C151.292 134.452 151.148 135.012 150.86 135.5C150.58 135.988 150.188 136.372 149.684 136.652C149.188 136.932 148.624 137.072 147.992 137.072ZM147.992 136.064C148.4 136.064 148.764 135.972 149.084 135.788C149.412 135.604 149.668 135.344 149.852 135.008C150.036 134.664 150.128 134.268 150.128 133.82C150.128 133.364 150.036 132.972 149.852 132.644C149.668 132.308 149.412 132.048 149.084 131.864C148.764 131.68 148.4 131.588 147.992 131.588C147.584 131.588 147.22 131.68 146.9 131.864C146.58 132.048 146.324 132.308 146.132 132.644C145.94 132.972 145.844 133.364 145.844 133.82C145.844 134.268 145.94 134.664 146.132 135.008C146.324 135.344 146.58 135.604 146.9 135.788C147.22 135.972 147.584 136.064 147.992 136.064ZM152.885 137V130.64H153.989V132.368L153.881 131.936C154.057 131.496 154.353 131.16 154.769 130.928C155.185 130.696 155.697 130.58 156.305 130.58V131.696C156.257 131.688 156.209 131.684 156.161 131.684C156.121 131.684 156.081 131.684 156.041 131.684C155.425 131.684 154.937 131.868 154.577 132.236C154.217 132.604 154.037 133.136 154.037 133.832V137H152.885ZM23.4601 152.072C22.9321 152.072 22.4481 151.952 22.0081 151.712C21.5761 151.464 21.2281 151.1 20.9641 150.62C20.7081 150.14 20.5801 149.54 20.5801 148.82C20.5801 148.1 20.7041 147.5 20.9521 147.02C21.2081 146.54 21.5521 146.18 21.9841 145.94C22.4241 145.7 22.9161 145.58 23.4601 145.58C24.0841 145.58 24.6361 145.716 25.1161 145.988C25.5961 146.26 25.9761 146.64 26.2561 147.128C26.5361 147.608 26.6761 148.172 26.6761 148.82C26.6761 149.468 26.5361 150.036 26.2561 150.524C25.9761 151.012 25.5961 151.392 25.1161 151.664C24.6361 151.936 24.0841 152.072 23.4601 152.072ZM20.0881 154.328V145.64H21.1921V147.356L21.1201 148.832L21.2401 150.308V154.328H20.0881ZM23.3641 151.064C23.7721 151.064 24.1361 150.972 24.4561 150.788C24.7841 150.604 25.0401 150.344 25.2241 150.008C25.4161 149.664 25.5121 149.268 25.5121 148.82C25.5121 148.364 25.4161 147.972 25.2241 147.644C25.0401 147.308 24.7841 147.048 24.4561 146.864C24.1361 146.68 23.7721 146.588 23.3641 146.588C22.9641 146.588 22.6001 146.68 22.2721 146.864C21.9521 147.048 21.6961 147.308 21.5041 147.644C21.3201 147.972 21.2281 148.364 21.2281 148.82C21.2281 149.268 21.3201 149.664 21.5041 150.008C21.6961 150.344 21.9521 150.604 22.2721 150.788C22.6001 150.972 22.9641 151.064 23.3641 151.064ZM32.1572 152V150.656L32.0972 150.404V148.112C32.0972 147.624 31.9532 147.248 31.6652 146.984C31.3852 146.712 30.9612 146.576 30.3932 146.576C30.0172 146.576 29.6492 146.64 29.2892 146.768C28.9292 146.888 28.6252 147.052 28.3772 147.26L27.8972 146.396C28.2252 146.132 28.6172 145.932 29.0732 145.796C29.5372 145.652 30.0212 145.58 30.5252 145.58C31.3972 145.58 32.0692 145.792 32.5412 146.216C33.0132 146.64 33.2492 147.288 33.2492 148.16V152H32.1572ZM30.0692 152.072C29.5972 152.072 29.1812 151.992 28.8212 151.832C28.4692 151.672 28.1972 151.452 28.0052 151.172C27.8132 150.884 27.7172 150.56 27.7172 150.2C27.7172 149.856 27.7972 149.544 27.9572 149.264C28.1252 148.984 28.3932 148.76 28.7612 148.592C29.1372 148.424 29.6412 148.34 30.2732 148.34H32.2892V149.168H30.3212C29.7452 149.168 29.3572 149.264 29.1572 149.456C28.9572 149.648 28.8572 149.88 28.8572 150.152C28.8572 150.464 28.9812 150.716 29.2292 150.908C29.4772 151.092 29.8212 151.184 30.2612 151.184C30.6932 151.184 31.0692 151.088 31.3892 150.896C31.7172 150.704 31.9532 150.424 32.0972 150.056L32.3252 150.848C32.1732 151.224 31.9052 151.524 31.5212 151.748C31.1372 151.964 30.6532 152.072 30.0692 152.072ZM35.3811 152V145.64H36.4851V147.368L36.3771 146.936C36.5531 146.496 36.8491 146.16 37.2651 145.928C37.6811 145.696 38.1931 145.58 38.8011 145.58V146.696C38.7531 146.688 38.7051 146.684 38.6571 146.684C38.6171 146.684 38.5771 146.684 38.5371 146.684C37.9211 146.684 37.4331 146.868 37.0731 147.236C36.7131 147.604 36.5331 148.136 36.5331 148.832V152H35.3811ZM43.7002 152V150.656L43.6402 150.404V148.112C43.6402 147.624 43.4962 147.248 43.2082 146.984C42.9282 146.712 42.5042 146.576 41.9362 146.576C41.5602 146.576 41.1922 146.64 40.8322 146.768C40.4722 146.888 40.1682 147.052 39.9202 147.26L39.4402 146.396C39.7682 146.132 40.1602 145.932 40.6162 145.796C41.0802 145.652 41.5642 145.58 42.0682 145.58C42.9402 145.58 43.6122 145.792 44.0842 146.216C44.5562 146.64 44.7922 147.288 44.7922 148.16V152H43.7002ZM41.6122 152.072C41.1402 152.072 40.7242 151.992 40.3642 151.832C40.0122 151.672 39.7402 151.452 39.5482 151.172C39.3562 150.884 39.2602 150.56 39.2602 150.2C39.2602 149.856 39.3402 149.544 39.5002 149.264C39.6682 148.984 39.9362 148.76 40.3042 148.592C40.6802 148.424 41.1842 148.34 41.8162 148.34H43.8322V149.168H41.8642C41.2882 149.168 40.9002 149.264 40.7002 149.456C40.5002 149.648 40.4002 149.88 40.4002 150.152C40.4002 150.464 40.5242 150.716 40.7722 150.908C41.0202 151.092 41.3642 151.184 41.8042 151.184C42.2362 151.184 42.6122 151.088 42.9322 150.896C43.2602 150.704 43.4962 150.424 43.6402 150.056L43.8682 150.848C43.7162 151.224 43.4482 151.524 43.0642 151.748C42.6802 151.964 42.1962 152.072 41.6122 152.072ZM52.3307 152.072C51.6907 152.072 51.1947 151.9 50.8427 151.556C50.4907 151.212 50.3147 150.72 50.3147 150.08V144.248H51.4667V150.032C51.4667 150.376 51.5507 150.64 51.7187 150.824C51.8947 151.008 52.1427 151.1 52.4627 151.1C52.8227 151.1 53.1227 151 53.3627 150.8L53.7227 151.628C53.5467 151.78 53.3347 151.892 53.0867 151.964C52.8467 152.036 52.5947 152.072 52.3307 152.072ZM49.2347 146.588V145.64H53.2907V146.588H49.2347ZM55.1154 152V145.64H56.2194V147.368L56.1114 146.936C56.2874 146.496 56.5834 146.16 56.9994 145.928C57.4154 145.696 57.9274 145.58 58.5354 145.58V146.696C58.4874 146.688 58.4394 146.684 58.3914 146.684C58.3514 146.684 58.3114 146.684 58.2714 146.684C57.6554 146.684 57.1674 146.868 56.8074 147.236C56.4474 147.604 56.2674 148.136 56.2674 148.832V152H55.1154ZM63.4345 152V150.656L63.3745 150.404V148.112C63.3745 147.624 63.2305 147.248 62.9425 146.984C62.6625 146.712 62.2385 146.576 61.6705 146.576C61.2945 146.576 60.9265 146.64 60.5665 146.768C60.2065 146.888 59.9025 147.052 59.6545 147.26L59.1745 146.396C59.5025 146.132 59.8945 145.932 60.3505 145.796C60.8145 145.652 61.2985 145.58 61.8025 145.58C62.6745 145.58 63.3465 145.792 63.8185 146.216C64.2905 146.64 64.5265 147.288 64.5265 148.16V152H63.4345ZM61.3465 152.072C60.8745 152.072 60.4585 151.992 60.0985 151.832C59.7465 151.672 59.4745 151.452 59.2825 151.172C59.0905 150.884 58.9945 150.56 58.9945 150.2C58.9945 149.856 59.0745 149.544 59.2345 149.264C59.4025 148.984 59.6705 148.76 60.0385 148.592C60.4145 148.424 60.9185 148.34 61.5505 148.34H63.5665V149.168H61.5985C61.0225 149.168 60.6345 149.264 60.4345 149.456C60.2345 149.648 60.1345 149.88 60.1345 150.152C60.1345 150.464 60.2585 150.716 60.5065 150.908C60.7545 151.092 61.0985 151.184 61.5385 151.184C61.9705 151.184 62.3465 151.088 62.6665 150.896C62.9945 150.704 63.2305 150.424 63.3745 150.056L63.6025 150.848C63.4505 151.224 63.1825 151.524 62.7985 151.748C62.4145 151.964 61.9305 152.072 61.3465 152.072ZM60.9865 144.716L62.6185 143.156H64.0825L62.0665 144.716H60.9865ZM68.4824 152.072C67.9544 152.072 67.4504 152 66.9704 151.856C66.4984 151.712 66.1264 151.536 65.8544 151.328L66.3344 150.416C66.6064 150.6 66.9424 150.756 67.3424 150.884C67.7424 151.012 68.1504 151.076 68.5664 151.076C69.1024 151.076 69.4864 151 69.7184 150.848C69.9584 150.696 70.0784 150.484 70.0784 150.212C70.0784 150.012 70.0064 149.856 69.8624 149.744C69.7184 149.632 69.5264 149.548 69.2864 149.492C69.0544 149.436 68.7944 149.388 68.5064 149.348C68.2184 149.3 67.9304 149.244 67.6424 149.18C67.3544 149.108 67.0904 149.012 66.8504 148.892C66.6104 148.764 66.4184 148.592 66.2744 148.376C66.1304 148.152 66.0584 147.856 66.0584 147.488C66.0584 147.104 66.1664 146.768 66.3824 146.48C66.5984 146.192 66.9024 145.972 67.2944 145.82C67.6944 145.66 68.1664 145.58 68.7104 145.58C69.1264 145.58 69.5464 145.632 69.9704 145.736C70.4024 145.832 70.7544 145.972 71.0264 146.156L70.5344 147.068C70.2464 146.876 69.9464 146.744 69.6344 146.672C69.3224 146.6 69.0104 146.564 68.6984 146.564C68.1944 146.564 67.8184 146.648 67.5704 146.816C67.3224 146.976 67.1984 147.184 67.1984 147.44C67.1984 147.656 67.2704 147.824 67.4144 147.944C67.5664 148.056 67.7584 148.144 67.9904 148.208C68.2304 148.272 68.4944 148.328 68.7824 148.376C69.0704 148.416 69.3584 148.472 69.6464 148.544C69.9344 148.608 70.1944 148.7 70.4264 148.82C70.6664 148.94 70.8584 149.108 71.0024 149.324C71.1544 149.54 71.2304 149.828 71.2304 150.188C71.2304 150.572 71.1184 150.904 70.8944 151.184C70.6704 151.464 70.3544 151.684 69.9464 151.844C69.5384 151.996 69.0504 152.072 68.4824 152.072ZM78.7248 152.072C78.0448 152.072 77.4448 151.932 76.9248 151.652C76.4128 151.372 76.0128 150.988 75.7248 150.5C75.4448 150.012 75.3048 149.452 75.3048 148.82C75.3048 148.188 75.4408 147.628 75.7128 147.14C75.9928 146.652 76.3728 146.272 76.8528 146C77.3408 145.72 77.8888 145.58 78.4968 145.58C79.1128 145.58 79.6568 145.716 80.1288 145.988C80.6008 146.26 80.9688 146.644 81.2328 147.14C81.5048 147.628 81.6408 148.2 81.6408 148.856C81.6408 148.904 81.6368 148.96 81.6288 149.024C81.6288 149.088 81.6248 149.148 81.6168 149.204H76.2048V148.376H81.0168L80.5488 148.664C80.5568 148.256 80.4728 147.892 80.2968 147.572C80.1208 147.252 79.8768 147.004 79.5648 146.828C79.2608 146.644 78.9048 146.552 78.4968 146.552C78.0968 146.552 77.7408 146.644 77.4288 146.828C77.1168 147.004 76.8728 147.256 76.6968 147.584C76.5208 147.904 76.4328 148.272 76.4328 148.688V148.88C76.4328 149.304 76.5288 149.684 76.7208 150.02C76.9208 150.348 77.1968 150.604 77.5488 150.788C77.9008 150.972 78.3048 151.064 78.7608 151.064C79.1368 151.064 79.4768 151 79.7808 150.872C80.0928 150.744 80.3648 150.552 80.5968 150.296L81.2328 151.04C80.9448 151.376 80.5848 151.632 80.1528 151.808C79.7288 151.984 79.2528 152.072 78.7248 152.072ZM89.2471 154.4C88.6631 154.4 88.0951 154.316 87.5431 154.148C86.9991 153.988 86.5551 153.756 86.2111 153.452L86.7631 152.564C87.0591 152.82 87.4231 153.02 87.8551 153.164C88.2871 153.316 88.7391 153.392 89.2111 153.392C89.9631 153.392 90.5151 153.216 90.8671 152.864C91.2191 152.512 91.3951 151.976 91.3951 151.256V149.912L91.5151 148.652L91.4551 147.38V145.64H92.5471V151.136C92.5471 152.256 92.2671 153.08 91.7071 153.608C91.1471 154.136 90.3271 154.4 89.2471 154.4ZM89.1031 151.736C88.4871 151.736 87.9351 151.608 87.4471 151.352C86.9671 151.088 86.5831 150.724 86.2951 150.26C86.0151 149.796 85.8751 149.26 85.8751 148.652C85.8751 148.036 86.0151 147.5 86.2951 147.044C86.5831 146.58 86.9671 146.22 87.4471 145.964C87.9351 145.708 88.4871 145.58 89.1031 145.58C89.6471 145.58 90.1431 145.692 90.5911 145.916C91.0391 146.132 91.3951 146.468 91.6591 146.924C91.9311 147.38 92.0671 147.956 92.0671 148.652C92.0671 149.34 91.9311 149.912 91.6591 150.368C91.3951 150.824 91.0391 151.168 90.5911 151.4C90.1431 151.624 89.6471 151.736 89.1031 151.736ZM89.2351 150.728C89.6591 150.728 90.0351 150.64 90.3631 150.464C90.6911 150.288 90.9471 150.044 91.1311 149.732C91.3231 149.42 91.4191 149.06 91.4191 148.652C91.4191 148.244 91.3231 147.884 91.1311 147.572C90.9471 147.26 90.6911 147.02 90.3631 146.852C90.0351 146.676 89.6591 146.588 89.2351 146.588C88.8111 146.588 88.4311 146.676 88.0951 146.852C87.7671 147.02 87.5071 147.26 87.3151 147.572C87.1311 147.884 87.0391 148.244 87.0391 148.652C87.0391 149.06 87.1311 149.42 87.3151 149.732C87.5071 150.044 87.7671 150.288 88.0951 150.464C88.4311 150.64 88.8111 150.728 89.2351 150.728ZM94.7483 152V145.64H95.9003V152H94.7483ZM95.3243 144.416C95.1003 144.416 94.9123 144.344 94.7603 144.2C94.6163 144.056 94.5443 143.88 94.5443 143.672C94.5443 143.456 94.6163 143.276 94.7603 143.132C94.9123 142.988 95.1003 142.916 95.3243 142.916C95.5483 142.916 95.7323 142.988 95.8763 143.132C96.0283 143.268 96.1043 143.44 96.1043 143.648C96.1043 143.864 96.0323 144.048 95.8883 144.2C95.7443 144.344 95.5563 144.416 95.3243 144.416ZM98.0998 152V145.64H99.2038V147.368L99.0958 146.936C99.2718 146.496 99.5678 146.16 99.9838 145.928C100.4 145.696 100.912 145.58 101.52 145.58V146.696C101.472 146.688 101.424 146.684 101.376 146.684C101.336 146.684 101.296 146.684 101.256 146.684C100.64 146.684 100.152 146.868 99.7918 147.236C99.4318 147.604 99.2518 148.136 99.2518 148.832V152H98.0998ZM105.713 152.072C105.033 152.072 104.433 151.932 103.913 151.652C103.401 151.372 103.001 150.988 102.713 150.5C102.433 150.012 102.293 149.452 102.293 148.82C102.293 148.188 102.429 147.628 102.701 147.14C102.981 146.652 103.361 146.272 103.841 146C104.329 145.72 104.877 145.58 105.485 145.58C106.101 145.58 106.645 145.716 107.117 145.988C107.589 146.26 107.957 146.644 108.221 147.14C108.493 147.628 108.629 148.2 108.629 148.856C108.629 148.904 108.625 148.96 108.617 149.024C108.617 149.088 108.613 149.148 108.605 149.204H103.193V148.376H108.005L107.537 148.664C107.545 148.256 107.461 147.892 107.285 147.572C107.109 147.252 106.865 147.004 106.553 146.828C106.249 146.644 105.893 146.552 105.485 146.552C105.085 146.552 104.729 146.644 104.417 146.828C104.105 147.004 103.861 147.256 103.685 147.584C103.509 147.904 103.421 148.272 103.421 148.688V148.88C103.421 149.304 103.517 149.684 103.709 150.02C103.909 150.348 104.185 150.604 104.537 150.788C104.889 150.972 105.293 151.064 105.749 151.064C106.125 151.064 106.465 151 106.769 150.872C107.081 150.744 107.353 150.552 107.585 150.296L108.221 151.04C107.933 151.376 107.573 151.632 107.141 151.808C106.717 151.984 106.241 152.072 105.713 152.072ZM117.399 152V150.656L117.339 150.404V148.112C117.339 147.624 117.195 147.248 116.907 146.984C116.627 146.712 116.203 146.576 115.635 146.576C115.259 146.576 114.891 146.64 114.531 146.768C114.171 146.888 113.867 147.052 113.619 147.26L113.139 146.396C113.467 146.132 113.859 145.932 114.315 145.796C114.779 145.652 115.263 145.58 115.767 145.58C116.639 145.58 117.311 145.792 117.783 146.216C118.255 146.64 118.491 147.288 118.491 148.16V152H117.399ZM115.311 152.072C114.839 152.072 114.423 151.992 114.063 151.832C113.711 151.672 113.439 151.452 113.247 151.172C113.055 150.884 112.959 150.56 112.959 150.2C112.959 149.856 113.039 149.544 113.199 149.264C113.367 148.984 113.635 148.76 114.003 148.592C114.379 148.424 114.883 148.34 115.515 148.34H117.531V149.168H115.563C114.987 149.168 114.599 149.264 114.399 149.456C114.199 149.648 114.099 149.88 114.099 150.152C114.099 150.464 114.223 150.716 114.471 150.908C114.719 151.092 115.063 151.184 115.503 151.184C115.935 151.184 116.311 151.088 116.631 150.896C116.959 150.704 117.195 150.424 117.339 150.056L117.567 150.848C117.415 151.224 117.147 151.524 116.763 151.748C116.379 151.964 115.895 152.072 115.311 152.072ZM124.014 152V145.076C124.014 144.452 124.194 143.956 124.554 143.588C124.922 143.212 125.442 143.024 126.114 143.024C126.362 143.024 126.598 143.056 126.822 143.12C127.054 143.176 127.25 143.268 127.41 143.396L127.062 144.272C126.942 144.176 126.806 144.104 126.654 144.056C126.502 144 126.342 143.972 126.174 143.972C125.838 143.972 125.582 144.068 125.406 144.26C125.23 144.444 125.142 144.72 125.142 145.088V145.94L125.166 146.468V152H124.014ZM122.934 146.588V145.64H126.99V146.588H122.934ZM128.082 152V145.64H129.234V152H128.082ZM128.658 144.416C128.434 144.416 128.246 144.344 128.094 144.2C127.95 144.056 127.878 143.88 127.878 143.672C127.878 143.456 127.95 143.276 128.094 143.132C128.246 142.988 128.434 142.916 128.658 142.916C128.882 142.916 129.066 142.988 129.21 143.132C129.362 143.268 129.438 143.44 129.438 143.648C129.438 143.864 129.366 144.048 129.222 144.2C129.078 144.344 128.89 144.416 128.658 144.416ZM134.212 154.4C133.628 154.4 133.06 154.316 132.508 154.148C131.964 153.988 131.52 153.756 131.176 153.452L131.728 152.564C132.024 152.82 132.388 153.02 132.82 153.164C133.252 153.316 133.704 153.392 134.176 153.392C134.928 153.392 135.48 153.216 135.832 152.864C136.184 152.512 136.36 151.976 136.36 151.256V149.912L136.48 148.652L136.42 147.38V145.64H137.512V151.136C137.512 152.256 137.232 153.08 136.672 153.608C136.112 154.136 135.292 154.4 134.212 154.4ZM134.068 151.736C133.452 151.736 132.9 151.608 132.412 151.352C131.932 151.088 131.548 150.724 131.26 150.26C130.98 149.796 130.84 149.26 130.84 148.652C130.84 148.036 130.98 147.5 131.26 147.044C131.548 146.58 131.932 146.22 132.412 145.964C132.9 145.708 133.452 145.58 134.068 145.58C134.612 145.58 135.108 145.692 135.556 145.916C136.004 146.132 136.36 146.468 136.624 146.924C136.896 147.38 137.032 147.956 137.032 148.652C137.032 149.34 136.896 149.912 136.624 150.368C136.36 150.824 136.004 151.168 135.556 151.4C135.108 151.624 134.612 151.736 134.068 151.736ZM134.2 150.728C134.624 150.728 135 150.64 135.328 150.464C135.656 150.288 135.912 150.044 136.096 149.732C136.288 149.42 136.384 149.06 136.384 148.652C136.384 148.244 136.288 147.884 136.096 147.572C135.912 147.26 135.656 147.02 135.328 146.852C135 146.676 134.624 146.588 134.2 146.588C133.776 146.588 133.396 146.676 133.06 146.852C132.732 147.02 132.472 147.26 132.28 147.572C132.096 147.884 132.004 148.244 132.004 148.652C132.004 149.06 132.096 149.42 132.28 149.732C132.472 150.044 132.732 150.288 133.06 150.464C133.396 150.64 133.776 150.728 134.2 150.728ZM142.389 152.072C141.845 152.072 141.365 151.972 140.949 151.772C140.541 151.572 140.221 151.268 139.989 150.86C139.765 150.444 139.653 149.924 139.653 149.3V145.64H140.805V149.168C140.805 149.792 140.953 150.26 141.249 150.572C141.553 150.884 141.977 151.04 142.521 151.04C142.921 151.04 143.269 150.96 143.565 150.8C143.861 150.632 144.089 150.392 144.249 150.08C144.409 149.76 144.489 149.376 144.489 148.928V145.64H145.641V152H144.549V150.284L144.729 150.74C144.521 151.164 144.209 151.492 143.793 151.724C143.377 151.956 142.909 152.072 142.389 152.072ZM147.834 152V145.64H148.938V147.368L148.83 146.936C149.006 146.496 149.302 146.16 149.718 145.928C150.134 145.696 150.646 145.58 151.254 145.58V146.696C151.206 146.688 151.158 146.684 151.11 146.684C151.07 146.684 151.03 146.684 150.99 146.684C150.374 146.684 149.886 146.868 149.526 147.236C149.166 147.604 148.986 148.136 148.986 148.832V152H147.834ZM156.153 152V150.656L156.093 150.404V148.112C156.093 147.624 155.949 147.248 155.661 146.984C155.381 146.712 154.957 146.576 154.389 146.576C154.013 146.576 153.645 146.64 153.285 146.768C152.925 146.888 152.621 147.052 152.373 147.26L151.893 146.396C152.221 146.132 152.613 145.932 153.069 145.796C153.533 145.652 154.017 145.58 154.521 145.58C155.393 145.58 156.065 145.792 156.537 146.216C157.009 146.64 157.245 147.288 157.245 148.16V152H156.153ZM154.065 152.072C153.593 152.072 153.177 151.992 152.817 151.832C152.465 151.672 152.193 151.452 152.001 151.172C151.809 150.884 151.713 150.56 151.713 150.2C151.713 149.856 151.793 149.544 151.953 149.264C152.121 148.984 152.389 148.76 152.757 148.592C153.133 148.424 153.637 148.34 154.269 148.34H156.285V149.168H154.317C153.741 149.168 153.353 149.264 153.153 149.456C152.953 149.648 152.853 149.88 152.853 150.152C152.853 150.464 152.977 150.716 153.225 150.908C153.473 151.092 153.817 151.184 154.257 151.184C154.689 151.184 155.065 151.088 155.385 150.896C155.713 150.704 155.949 150.424 156.093 150.056L156.321 150.848C156.169 151.224 155.901 151.524 155.517 151.748C155.133 151.964 154.649 152.072 154.065 152.072ZM159.653 152.072C159.429 152.072 159.237 151.996 159.077 151.844C158.917 151.684 158.837 151.484 158.837 151.244C158.837 151.004 158.917 150.808 159.077 150.656C159.237 150.504 159.429 150.428 159.653 150.428C159.869 150.428 160.053 150.504 160.205 150.656C160.365 150.808 160.445 151.004 160.445 151.244C160.445 151.484 160.365 151.684 160.205 151.844C160.053 151.996 159.869 152.072 159.653 152.072Z" fill="#008E86"/>
<path d="M67.9995 66.5L90.4995 64.5004L90.4995 89L67.9995 66.5Z" fill="#00D8CC" stroke="#00635D" stroke-width="2" stroke-linejoin="round"/>
<path d="M90.5005 64L113 66.4996L90.5001 88.9996L90.5005 64Z" fill="#00D8CC" stroke="#00635D" stroke-width="2" stroke-linejoin="round"/>
<path d="M67.9995 66.5L81.4991 53.0004L90.4995 53.0004L90.4995 65L72.4995 71L67.9995 66.5Z" fill="#00D8CC" stroke="#00635D" stroke-width="2" stroke-linejoin="round"/>
<path d="M90.4995 53.0001L99.9992 53.0001L112.999 66.4997L108.499 70.9997L90.4992 64.9997L90.4995 53.0001Z" fill="#00D8CC" stroke="#00635D" stroke-width="2" stroke-linejoin="round"/>
<path d="M100 80L81 80" stroke="#333333" stroke-width="2" stroke-dasharray="4 4"/>
<path d="M91 65L73 71L73 47L91 65Z" fill="#00D8CC" stroke="#00635D" stroke-width="2" stroke-linejoin="round"/>
<path d="M108 71.5L90 65L108 47L108 71.5Z" fill="#00D8CC" stroke="#00635D" stroke-width="2" stroke-linejoin="round"/>
<path d="M134.315 60.9677C133.763 60.9677 133.315 61.4154 133.315 61.9677L133.315 70.9677C133.315 71.52 133.763 71.9677 134.315 71.9677C134.868 71.9678 135.315 71.52 135.315 70.9678L135.315 62.9678L143.315 62.9679C143.868 62.9679 144.315 62.5202 144.315 61.9679C144.315 61.4156 143.868 60.9679 143.315 60.9679L134.315 60.9677ZM129.359 82.8706L129.359 81.8706H129.359L129.359 82.8706ZM114.55 75.4832C114.16 75.0927 113.527 75.0927 113.136 75.4832C112.746 75.8737 112.746 76.5069 113.136 76.8974L114.55 75.4832ZM133.608 62.6748C138.439 67.5054 138.982 72.3231 137.612 75.8557C136.211 79.4682 132.786 81.8706 129.359 81.8706L129.359 83.8706C133.689 83.8706 137.806 80.8858 139.477 76.5788C141.178 72.192 140.32 66.5583 135.023 61.2606L133.608 62.6748ZM129.359 81.8706C126.755 81.8706 124.789 80.6692 123.378 78.8C121.946 76.9034 121.095 74.3197 120.842 71.6775C120.589 69.0323 120.947 66.443 121.809 64.5594C122.671 62.679 123.932 61.6748 125.48 61.6748L125.48 59.6748C122.858 59.6748 121.036 61.4451 119.991 63.7264C118.948 66.0045 118.574 68.9641 118.851 71.8679C119.129 74.7746 120.071 77.7399 121.781 80.005C123.512 82.2976 126.036 83.8706 129.359 83.8706L129.359 81.8706ZM125.48 61.6748C126.616 61.6748 127.436 62.0481 128.036 62.6378C128.654 63.2464 129.105 64.1524 129.346 65.3045C129.833 67.6232 129.416 70.6808 128.226 73.36C127.03 76.0517 125.158 78.1381 122.928 78.8085C120.782 79.4537 117.951 78.8833 114.55 75.4832L113.136 76.8974C116.847 80.6085 120.408 81.6544 123.504 80.7238C126.516 79.8184 128.737 77.137 130.054 74.172C131.377 71.1945 131.894 67.7065 131.304 64.8938C131.007 63.4802 130.416 62.174 129.438 61.2119C128.441 60.2308 127.107 59.6748 125.48 59.6748L125.48 61.6748Z" fill="black"/>
<path d="M87.7712 92.4356C88.1522 92.0358 88.1371 91.4028 87.7373 91.0218L81.2225 84.8123C80.8227 84.4312 80.1897 84.4464 79.8087 84.8462C79.4276 85.246 79.4428 85.879 79.8426 86.26L85.6335 91.7796L80.114 97.5705C79.7329 97.9702 79.7481 98.6032 80.1479 98.9843C80.5477 99.3653 81.1807 99.3501 81.5617 98.9504L87.7712 92.4356ZM73.3015 77.0241C73.3148 76.472 72.8779 76.0136 72.3258 76.0004C71.7737 75.9871 71.3153 76.424 71.3021 76.9761L73.3015 77.0241ZM87.0233 90.7459C82.8617 90.8458 79.502 89.3886 77.1113 86.9978L75.6971 88.4121C78.4888 91.2038 82.3831 92.8578 87.0713 92.7453L87.0233 90.7459ZM77.1113 86.9978C75.9535 85.84 74.9738 84.0989 74.2927 82.2245C73.6124 80.3522 73.2673 78.4498 73.3015 77.0241L71.3021 76.9761C71.2605 78.7111 71.6709 80.8654 72.4129 82.9076C73.1542 84.9476 74.2636 86.9786 75.6971 88.4121L77.1113 86.9978Z" fill="black"/>
</g>
<defs>
<clipPath id="clip0_18_764">
<rect width="180" height="180" rx="20" fill="white"/>
</clipPath>
<clipPath id="clip1_18_764">
<path d="M0 30L-1.31134e-06 0L30 -1.31134e-06L30 10C30 21.0457 21.0457 30 10 30L0 30Z" fill="white"/>
</clipPath>
</defs>
</svg>
