<svg width="180" height="184" viewBox="0 0 180 184" fill="none" xmlns="http://www.w3.org/2000/svg">
<g id="Bailar">
<rect id="bg" width="180" height="180" rx="10"/>
<g id="&#195;&#129;tomo_IDE_ContenedorTop">
<g id="Group">
<path id="Vector" fill-rule="evenodd" clip-rule="evenodd" d="M12 119H27V117.009C27 114.357 28.0338 111.813 29.874 109.938C31.7142 108.062 34.2101 107.009 36.8125 107.009H51.6818L56 111H72.5L76.8182 107.009C76.8182 107.009 135.057 107.026 159.185 107.032C161.788 107.033 164.284 105.98 166.125 104.104C167.966 102.229 169 99.6845 169 97.0318C169 97.0211 169 97.0102 169 96.9995C169 91.4769 164.607 87 159.187 87C135.062 87 77 86.9911 77 86.9911L73 90.9911L56 90.9911L52 87H21.8125C19.2101 87 16.7142 88.0536 14.874 89.929C13.0338 91.8043 12 94.3478 12 97V119Z" fill="#FFDE6C"/>
<path id="Vector_2" fill-rule="evenodd" clip-rule="evenodd" d="M168.999 96.9992C168.999 94.3473 167.966 91.8039 166.126 89.9287C164.286 88.0535 161.79 87 159.188 87C135.063 87 77 87 77 87L72.9814 90.9911H55.9629L52 87H21.8277C19.2212 87 16.7215 88.0552 14.8785 89.9335C13.0354 91.8117 12 94.3592 12 97.0155C12 106.402 12 119 12 119H14.355V97.014C14.355 92.684 17.7992 89.1739 22.048 89.1739C32.604 89.1739 51.0362 89.1739 51.0362 89.1739L55 93.165H73.9597L77.9814 89.1739H158.966C161.002 89.1739 162.956 89.9984 164.396 91.466C165.836 92.9336 166.645 94.924 166.645 96.9996L168.999 96.9992Z" fill="#FFF0BD"/>
<path id="Vector_3" fill-rule="evenodd" clip-rule="evenodd" d="M168.997 97.002H166.642C166.642 99.0788 165.832 101.071 164.391 102.54C162.95 104.008 160.996 104.833 158.958 104.833C136.711 104.833 76 104.833 76 104.833L71.5 108.821H56.9756L52.4756 104.83H36.7765C30.0765 104.83 24.645 110.365 24.645 117.193C24.645 118.291 24.645 118.998 24.645 118.998H27V117.006C27 114.354 28.0338 111.811 29.874 109.935C31.7142 108.06 34.2101 107.006 36.8125 107.006C43.2755 107.006 51.5001 107.006 51.5001 107.006L56.0001 110.998H72.4754L76.9754 107.01C76.9754 107.01 135.054 107.025 159.182 107.031C161.784 107.032 164.281 105.978 166.122 104.103C167.962 102.228 168.996 99.6839 168.997 97.0314C168.997 97.012 168.997 97.002 168.997 97.002Z" fill="#EBC541"/>
<path id="Repetir" d="M24.232 102L23.152 100.44H23.088H21.96V102H20.664V96.4H23.088C23.584 96.4 24.0133 96.4827 24.376 96.648C24.744 96.8133 25.0267 97.048 25.224 97.352C25.4213 97.656 25.52 98.016 25.52 98.432C25.52 98.848 25.4187 99.208 25.216 99.512C25.0187 99.8107 24.736 100.04 24.368 100.2L25.624 102H24.232ZM24.208 98.432C24.208 98.1173 24.1067 97.8773 23.904 97.712C23.7013 97.5413 23.4053 97.456 23.016 97.456H21.96V99.408H23.016C23.4053 99.408 23.7013 99.3227 23.904 99.152C24.1067 98.9813 24.208 98.7413 24.208 98.432ZM30.6748 99.864C30.6748 99.88 30.6668 99.992 30.6508 100.2H27.3948C27.4535 100.467 27.5921 100.677 27.8108 100.832C28.0295 100.987 28.3015 101.064 28.6268 101.064C28.8508 101.064 29.0481 101.032 29.2188 100.968C29.3948 100.899 29.5575 100.792 29.7068 100.648L30.3708 101.368C29.9655 101.832 29.3735 102.064 28.5948 102.064C28.1095 102.064 27.6801 101.971 27.3068 101.784C26.9335 101.592 26.6455 101.328 26.4428 100.992C26.2401 100.656 26.1388 100.275 26.1388 99.848C26.1388 99.4267 26.2375 99.048 26.4348 98.712C26.6375 98.3707 26.9121 98.1067 27.2588 97.92C27.6108 97.728 28.0028 97.632 28.4348 97.632C28.8561 97.632 29.2375 97.7227 29.5788 97.904C29.9201 98.0853 30.1868 98.3467 30.3788 98.688C30.5761 99.024 30.6748 99.416 30.6748 99.864ZM28.4428 98.576C28.1601 98.576 27.9228 98.656 27.7308 98.816C27.5388 98.976 27.4215 99.1947 27.3788 99.472H29.4988C29.4561 99.2 29.3388 98.984 29.1468 98.824C28.9548 98.6587 28.7201 98.576 28.4428 98.576ZM34.0497 97.632C34.4497 97.632 34.8124 97.7253 35.1377 97.912C35.4684 98.0933 35.727 98.352 35.9137 98.688C36.1004 99.0187 36.1937 99.4053 36.1937 99.848C36.1937 100.291 36.1004 100.68 35.9137 101.016C35.727 101.347 35.4684 101.605 35.1377 101.792C34.8124 101.973 34.4497 102.064 34.0497 102.064C33.5004 102.064 33.0684 101.891 32.7537 101.544V103.552H31.5057V97.696H32.6977V98.192C33.007 97.8187 33.4577 97.632 34.0497 97.632ZM33.8337 101.04C34.1537 101.04 34.415 100.933 34.6177 100.72C34.8257 100.501 34.9297 100.211 34.9297 99.848C34.9297 99.4853 34.8257 99.1973 34.6177 98.984C34.415 98.7653 34.1537 98.656 33.8337 98.656C33.5137 98.656 33.2497 98.7653 33.0417 98.984C32.839 99.1973 32.7377 99.4853 32.7377 99.848C32.7377 100.211 32.839 100.501 33.0417 100.72C33.2497 100.933 33.5137 101.04 33.8337 101.04ZM41.2451 99.864C41.2451 99.88 41.2371 99.992 41.2211 100.2H37.9651C38.0238 100.467 38.1625 100.677 38.3811 100.832C38.5998 100.987 38.8718 101.064 39.1971 101.064C39.4211 101.064 39.6185 101.032 39.7891 100.968C39.9651 100.899 40.1278 100.792 40.2771 100.648L40.9411 101.368C40.5358 101.832 39.9438 102.064 39.1651 102.064C38.6798 102.064 38.2505 101.971 37.8771 101.784C37.5038 101.592 37.2158 101.328 37.0131 100.992C36.8105 100.656 36.7091 100.275 36.7091 99.848C36.7091 99.4267 36.8078 99.048 37.0051 98.712C37.2078 98.3707 37.4825 98.1067 37.8291 97.92C38.1811 97.728 38.5731 97.632 39.0051 97.632C39.4265 97.632 39.8078 97.7227 40.1491 97.904C40.4905 98.0853 40.7571 98.3467 40.9491 98.688C41.1465 99.024 41.2451 99.416 41.2451 99.864ZM39.0131 98.576C38.7305 98.576 38.4931 98.656 38.3011 98.816C38.1091 98.976 37.9918 99.1947 37.9491 99.472H40.0691C40.0265 99.2 39.9091 98.984 39.7171 98.824C39.5251 98.6587 39.2905 98.576 39.0131 98.576ZM44.852 101.792C44.7293 101.883 44.5773 101.952 44.396 102C44.22 102.043 44.0333 102.064 43.836 102.064C43.324 102.064 42.9267 101.933 42.644 101.672C42.3667 101.411 42.228 101.027 42.228 100.52V98.752H41.564V97.792H42.228V96.744H43.476V97.792H44.548V98.752H43.476V100.504C43.476 100.685 43.5213 100.827 43.612 100.928C43.708 101.024 43.8413 101.072 44.012 101.072C44.2093 101.072 44.3773 101.019 44.516 100.912L44.852 101.792ZM45.5526 97.696H46.8006V102H45.5526V97.696ZM46.1766 97.096C45.9472 97.096 45.7606 97.0293 45.6166 96.896C45.4726 96.7627 45.4006 96.5973 45.4006 96.4C45.4006 96.2027 45.4726 96.0373 45.6166 95.904C45.7606 95.7707 45.9472 95.704 46.1766 95.704C46.4059 95.704 46.5926 95.768 46.7366 95.896C46.8806 96.024 46.9526 96.184 46.9526 96.376C46.9526 96.584 46.8806 96.7573 46.7366 96.896C46.5926 97.0293 46.4059 97.096 46.1766 97.096ZM49.1508 98.264C49.3001 98.056 49.5001 97.8987 49.7508 97.792C50.0068 97.6853 50.3001 97.632 50.6308 97.632V98.784C50.4921 98.7733 50.3988 98.768 50.3508 98.768C49.9935 98.768 49.7135 98.8693 49.5108 99.072C49.3081 99.2693 49.2068 99.568 49.2068 99.968V102H47.9588V97.696H49.1508V98.264Z" fill="#333333"/>
<rect id="Rectangle 27" x="58" y="93" width="13" height="13" rx="5" fill="#F2F2F2"/>
<path id="8" d="M66.7551 99.584C67.1711 99.792 67.4871 100.064 67.7031 100.4C67.9271 100.736 68.0391 101.124 68.0391 101.564C68.0391 102.084 67.8911 102.54 67.5951 102.932C67.2991 103.316 66.8831 103.616 66.3471 103.832C65.8111 104.04 65.1911 104.144 64.4871 104.144C63.7831 104.144 63.1631 104.04 62.6271 103.832C62.0991 103.616 61.6871 103.316 61.3911 102.932C61.1031 102.54 60.9591 102.084 60.9591 101.564C60.9591 101.124 61.0671 100.736 61.2831 100.4C61.5071 100.064 61.8231 99.792 62.2311 99.584C61.9191 99.392 61.6791 99.152 61.5111 98.864C61.3431 98.568 61.2591 98.232 61.2591 97.856C61.2591 97.368 61.3951 96.944 61.6671 96.584C61.9391 96.224 62.3191 95.948 62.8071 95.756C63.2951 95.556 63.8551 95.456 64.4871 95.456C65.1271 95.456 65.6911 95.556 66.1791 95.756C66.6751 95.948 67.0591 96.224 67.3311 96.584C67.6031 96.944 67.7391 97.368 67.7391 97.856C67.7391 98.232 67.6551 98.568 67.4871 98.864C67.3191 99.152 67.0751 99.392 66.7551 99.584ZM64.4871 96.884C64.0951 96.884 63.7791 96.98 63.5391 97.172C63.3071 97.356 63.1911 97.612 63.1911 97.94C63.1911 98.26 63.3071 98.512 63.5391 98.696C63.7711 98.88 64.0871 98.972 64.4871 98.972C64.8871 98.972 65.2071 98.88 65.4471 98.696C65.6871 98.512 65.8071 98.26 65.8071 97.94C65.8071 97.612 65.6871 97.356 65.4471 97.172C65.2071 96.98 64.8871 96.884 64.4871 96.884ZM64.4871 102.716C64.9751 102.716 65.3591 102.608 65.6391 102.392C65.9271 102.168 66.0711 101.872 66.0711 101.504C66.0711 101.136 65.9271 100.844 65.6391 100.628C65.3591 100.412 64.9751 100.304 64.4871 100.304C64.0071 100.304 63.6271 100.412 63.3471 100.628C63.0671 100.844 62.9271 101.136 62.9271 101.504C62.9271 101.88 63.0671 102.176 63.3471 102.392C63.6271 102.608 64.0071 102.716 64.4871 102.716Z" fill="#008E86"/>
<path id="veces" d="M81.848 97.696L80.032 102H78.744L76.936 97.696H78.224L79.416 100.624L80.648 97.696H81.848ZM86.4561 99.864C86.4561 99.88 86.4481 99.992 86.4321 100.2H83.1761C83.2347 100.467 83.3734 100.677 83.5921 100.832C83.8107 100.987 84.0827 101.064 84.4081 101.064C84.6321 101.064 84.8294 101.032 85.0001 100.968C85.1761 100.899 85.3387 100.792 85.4881 100.648L86.1521 101.368C85.7467 101.832 85.1547 102.064 84.3761 102.064C83.8907 102.064 83.4614 101.971 83.0881 101.784C82.7147 101.592 82.4267 101.328 82.2241 100.992C82.0214 100.656 81.9201 100.275 81.9201 99.848C81.9201 99.4267 82.0187 99.048 82.2161 98.712C82.4187 98.3707 82.6934 98.1067 83.0401 97.92C83.3921 97.728 83.7841 97.632 84.2161 97.632C84.6374 97.632 85.0187 97.7227 85.3601 97.904C85.7014 98.0853 85.9681 98.3467 86.1601 98.688C86.3574 99.024 86.4561 99.416 86.4561 99.864ZM84.2241 98.576C83.9414 98.576 83.7041 98.656 83.5121 98.816C83.3201 98.976 83.2027 99.1947 83.1601 99.472H85.2801C85.2374 99.2 85.1201 98.984 84.9281 98.824C84.7361 98.6587 84.5014 98.576 84.2241 98.576ZM89.3669 102.064C88.9083 102.064 88.4949 101.971 88.1269 101.784C87.7643 101.592 87.4789 101.328 87.2709 100.992C87.0683 100.656 86.9669 100.275 86.9669 99.848C86.9669 99.4213 87.0683 99.04 87.2709 98.704C87.4789 98.368 87.7643 98.1067 88.1269 97.92C88.4949 97.728 88.9083 97.632 89.3669 97.632C89.8203 97.632 90.2149 97.728 90.5509 97.92C90.8923 98.1067 91.1403 98.376 91.2949 98.728L90.3269 99.248C90.1029 98.8533 89.7803 98.656 89.3589 98.656C89.0336 98.656 88.7643 98.7627 88.5509 98.976C88.3376 99.1893 88.2309 99.48 88.2309 99.848C88.2309 100.216 88.3376 100.507 88.5509 100.72C88.7643 100.933 89.0336 101.04 89.3589 101.04C89.7856 101.04 90.1083 100.843 90.3269 100.448L91.2949 100.976C91.1403 101.317 90.8923 101.584 90.5509 101.776C90.2149 101.968 89.8203 102.064 89.3669 102.064ZM96.1748 99.864C96.1748 99.88 96.1668 99.992 96.1508 100.2H92.8948C92.9535 100.467 93.0921 100.677 93.3108 100.832C93.5295 100.987 93.8015 101.064 94.1268 101.064C94.3508 101.064 94.5481 101.032 94.7188 100.968C94.8948 100.899 95.0575 100.792 95.2068 100.648L95.8708 101.368C95.4655 101.832 94.8735 102.064 94.0948 102.064C93.6095 102.064 93.1801 101.971 92.8068 101.784C92.4335 101.592 92.1455 101.328 91.9428 100.992C91.7401 100.656 91.6388 100.275 91.6388 99.848C91.6388 99.4267 91.7375 99.048 91.9348 98.712C92.1375 98.3707 92.4121 98.1067 92.7588 97.92C93.1108 97.728 93.5028 97.632 93.9348 97.632C94.3561 97.632 94.7375 97.7227 95.0788 97.904C95.4201 98.0853 95.6868 98.3467 95.8788 98.688C96.0761 99.024 96.1748 99.416 96.1748 99.864ZM93.9428 98.576C93.6601 98.576 93.4228 98.656 93.2308 98.816C93.0388 98.976 92.9215 99.1947 92.8788 99.472H94.9988C94.9561 99.2 94.8388 98.984 94.6468 98.824C94.4548 98.6587 94.2201 98.576 93.9428 98.576ZM98.4537 102.064C98.0964 102.064 97.747 102.021 97.4057 101.936C97.0644 101.845 96.7924 101.733 96.5897 101.6L97.0057 100.704C97.1977 100.827 97.4297 100.928 97.7017 101.008C97.9737 101.083 98.2404 101.12 98.5017 101.12C99.0297 101.12 99.2937 100.989 99.2937 100.728C99.2937 100.605 99.2217 100.517 99.0777 100.464C98.9337 100.411 98.7124 100.365 98.4137 100.328C98.0617 100.275 97.771 100.213 97.5417 100.144C97.3124 100.075 97.1124 99.952 96.9417 99.776C96.7764 99.6 96.6937 99.3493 96.6937 99.024C96.6937 98.752 96.771 98.512 96.9257 98.304C97.0857 98.0907 97.315 97.9253 97.6137 97.808C97.9177 97.6907 98.275 97.632 98.6857 97.632C98.9897 97.632 99.291 97.6667 99.5897 97.736C99.8937 97.8 100.144 97.8907 100.342 98.008L99.9257 98.896C99.547 98.6827 99.1337 98.576 98.6857 98.576C98.419 98.576 98.219 98.6133 98.0857 98.688C97.9524 98.7627 97.8857 98.8587 97.8857 98.976C97.8857 99.1093 97.9577 99.2027 98.1017 99.256C98.2457 99.3093 98.475 99.36 98.7897 99.408C99.1417 99.4667 99.4297 99.5307 99.6537 99.6C99.8777 99.664 100.072 99.784 100.238 99.96C100.403 100.136 100.486 100.381 100.486 100.696C100.486 100.963 100.406 101.2 100.246 101.408C100.086 101.616 99.851 101.779 99.5417 101.896C99.2377 102.008 98.875 102.064 98.4537 102.064Z" fill="#333333"/>
</g>
</g>
<g id="&#195;&#129;tomo_IDE_ContenedorBase">
<g id="Group_2">
<path id="Vector_4" fill-rule="evenodd" clip-rule="evenodd" d="M27 137H12V158.971C12 164.488 16.3856 168.964 21.8 168.971C33.4255 168.986 52 169.009 52 169.009L56.3182 173H72.6819L77.0001 169.009H159.187C161.79 169.009 164.286 167.955 166.126 166.08C167.966 164.204 169 161.661 169 159.008C169 159.005 169 159.002 169 158.999C169 153.477 164.607 149 159.187 149C135.062 149 77 149 77 149L72.6849 152.991H56.3182L52 149H36.8125C34.2101 149 31.7142 147.946 29.874 146.071C28.0338 144.196 27 141.652 27 139V137Z" fill="#FFDE6C"/>
<path id="Vector_5" fill-rule="evenodd" clip-rule="evenodd" d="M168.996 158.999C168.996 156.347 167.962 153.804 166.122 151.929C164.282 150.053 161.787 149 159.184 149C135.059 149 77.0001 149 77.0001 149L72.6818 152.991H56.3183L52.0001 149L36.9302 149C31.5109 149 27.1177 144.523 27.1177 139C27.1177 137.806 27.1177 137 27.1177 137H24.7627C24.7627 137 24.7627 137.879 24.7627 139.198C24.7627 145.804 30.0177 151.16 36.5 151.16C42.9699 151.16 51.0363 151.16 51.0363 151.16L55.3545 155.165H73.6632L77.9814 151.174C77.9814 151.174 137.049 151.177 158.958 151.178C163.198 151.179 166.637 154.679 166.642 159L168.996 158.999Z" fill="#FFF0BD"/>
<path id="Vector_6" fill-rule="evenodd" clip-rule="evenodd" d="M169 159H166.645C166.645 161.077 165.835 163.069 164.394 164.538C162.953 166.007 160.998 166.832 158.96 166.832C136.712 166.832 76.0053 166.832 76.0053 166.832L71.6871 170.823H56.5436L52.2254 166.832H22.0402C17.7957 166.832 14.355 163.326 14.355 159C14.355 150.161 14.355 137 14.355 137H12C12 137 12 149.623 12 159.016C12 161.669 13.0338 164.212 14.874 166.088C16.7142 167.963 19.2101 169.016 21.8125 169.016C33.4326 169.016 51.2308 169.016 51.2308 169.016L55.5681 173H72.6626L77 169.016H159.187C164.606 169.016 169 164.54 169 159.017C169 159.006 169 159 169 159Z" fill="#EBC541"/>
</g>
</g>
<g id="&#195;&#129;tomo_IDE_ContenedorMid">
<g id="Group_3">
<path id="Vector_7" d="M27 118H12V137.988H27V118Z" fill="#FFDE6C"/>
<path id="Vector_8" d="M14.5 118L12 118V127.994L14.5 127.994V118Z" fill="#FFF0BD"/>
<path id="Vector_9" d="M26.9968 128.006H24.7468V138H26.9968V128.006Z" fill="#FFF0BD"/>
<path id="Vector_10" d="M14.25 128.006H12V138H14.25V128.006Z" fill="#EBC541"/>
<path id="Vector_11" d="M26.9968 118H24.5V127.994H26.9968V118Z" fill="#EBC541"/>
</g>
</g>
<g id="Cuando">
<g id="&#195;&#129;tomo_IDE_Cabezote3">
<g id="&#195;&#129;tomo_IDE_Cabezote1">
<g id="1">
<path id="Vector_12" fill-rule="evenodd" clip-rule="evenodd" d="M169.22 31.3182C169.22 25.5922 164.531 20.9505 158.747 20.9505C140.439 20.9505 111.658 20.9505 98.5207 20.9505C95.8392 20.9504 93.2599 19.932 91.3143 18.1053C86.9544 14.0187 75.9488 7 51.8916 7C17.9749 7 10 20.9505 10 20.9505C10 20.9505 10.0002 27.7144 10.0003 33.9667C10.0004 39.6928 14.6893 44.3346 20.4732 44.3346C32.8812 44.3346 51.8913 44.3346 51.8913 44.3346L56.5001 48.4728H72.4206L77.0263 44.3346C77.0263 44.3346 132.997 44.3346 158.747 44.3346C161.525 44.3346 164.189 43.2422 166.153 41.2977C168.117 39.3532 169.22 36.7158 169.22 33.966C169.22 33.0867 169.22 32.1974 169.22 31.3182Z" fill="#FC79FF"/>
<path id="Vector_13" fill-rule="evenodd" clip-rule="evenodd" d="M169.22 32.4394H166.707V32.8785C166.707 35.2592 165.751 37.5423 164.051 39.2257C162.351 40.9091 160.044 41.8548 157.64 41.8548H75.9852L71.3794 45.9929H57.5413L52.9325 41.8548C52.9325 41.8548 33.4971 41.8548 21.5805 41.8548C19.1758 41.8548 16.8696 40.9091 15.1692 39.2257C13.4688 37.5423 12.5135 35.2592 12.5135 32.8785V32.4394H10V33.9827C10 36.7325 11.1034 39.3697 13.0675 41.3142C15.0315 43.2586 17.6953 44.3509 20.4729 44.3509C32.8811 44.3509 51.8913 44.3509 51.8913 44.3509L56.5001 48.489H72.4206L77.0263 44.3509H158.747C164.531 44.3509 169.22 39.7091 169.22 33.9829C169.22 33.0449 169.22 32.4394 169.22 32.4394Z" fill="#CD5ACF"/>
<path id="Vector_14" fill-rule="evenodd" clip-rule="evenodd" d="M10 32.4232H12.5135V22.1985C12.5135 22.1985 19.3642 9.49603 51.8819 9.49603C73.9643 9.49603 85.0076 15.9654 89.6736 19.8874C91.9226 21.7793 94.7717 22.8281 97.7227 22.8506C111.426 22.9617 140.331 23.2455 157.64 23.3774C162.659 23.4156 166.707 27.4541 166.707 32.4224V32.4232H169.22V31.3187C169.22 25.5925 164.531 20.9505 158.747 20.9505C140.442 20.9505 111.671 20.9505 98.5276 20.9505C95.8436 20.9504 93.2621 19.9301 91.3159 18.1003C86.9616 14.013 75.967 7 51.8916 7C17.9356 7 10.0003 20.9505 10.0003 20.9505L10 32.4232Z" fill="#FDACFF"/>
</g>
</g>
</g>
<path id="Cuando: presionar bot&#195;&#179;n animar." d="M23.8191 34.951C23.2484 34.951 22.7311 34.8284 22.2671 34.583C21.8084 34.3324 21.4458 33.9884 21.1791 33.551C20.9178 33.1084 20.7871 32.6097 20.7871 32.055C20.7871 31.5004 20.9178 31.0044 21.1791 30.567C21.4458 30.1244 21.8084 29.7804 22.2671 29.535C22.7311 29.2844 23.2511 29.159 23.8271 29.159C24.3124 29.159 24.7498 29.2444 25.1391 29.415C25.5338 29.5857 25.8644 29.831 26.1311 30.151L25.2991 30.919C24.9204 30.4817 24.4511 30.263 23.8911 30.263C23.5444 30.263 23.2351 30.3404 22.9631 30.495C22.6911 30.6444 22.4778 30.855 22.3231 31.127C22.1738 31.399 22.0991 31.7084 22.0991 32.055C22.0991 32.4017 22.1738 32.711 22.3231 32.983C22.4778 33.255 22.6911 33.4684 22.9631 33.623C23.2351 33.7724 23.5444 33.847 23.8911 33.847C24.4511 33.847 24.9204 33.6257 25.2991 33.183L26.1311 33.951C25.8644 34.2764 25.5338 34.5244 25.1391 34.695C24.7444 34.8657 24.3044 34.951 23.8191 34.951ZM31.1449 30.551V34.855H29.9609V34.343C29.7956 34.5297 29.5982 34.6737 29.3689 34.775C29.1396 34.871 28.8916 34.919 28.6249 34.919C28.0596 34.919 27.6116 34.7564 27.2809 34.431C26.9502 34.1057 26.7849 33.623 26.7849 32.983V30.551H28.0329V32.799C28.0329 33.4924 28.3236 33.839 28.9049 33.839C29.2036 33.839 29.4436 33.743 29.6249 33.551C29.8062 33.3537 29.8969 33.063 29.8969 32.679V30.551H31.1449ZM34.0371 30.487C34.7038 30.487 35.2158 30.647 35.5731 30.967C35.9304 31.2817 36.1091 31.759 36.1091 32.399V34.855H34.9411V34.319C34.7064 34.719 34.2691 34.919 33.6291 34.919C33.2984 34.919 33.0104 34.863 32.7651 34.751C32.5251 34.639 32.3411 34.4844 32.2131 34.287C32.0851 34.0897 32.0211 33.8657 32.0211 33.615C32.0211 33.215 32.1704 32.9004 32.4691 32.671C32.7731 32.4417 33.2398 32.327 33.8691 32.327H34.8611C34.8611 32.055 34.7784 31.847 34.6131 31.703C34.4478 31.5537 34.1998 31.479 33.8691 31.479C33.6398 31.479 33.4131 31.5164 33.1891 31.591C32.9704 31.6604 32.7838 31.7564 32.6291 31.879L32.1811 31.007C32.4158 30.8417 32.6958 30.7137 33.0211 30.623C33.3518 30.5324 33.6904 30.487 34.0371 30.487ZM33.9411 34.079C34.1544 34.079 34.3438 34.031 34.5091 33.935C34.6744 33.8337 34.7918 33.687 34.8611 33.495V33.055H34.0051C33.4931 33.055 33.2371 33.223 33.2371 33.559C33.2371 33.719 33.2984 33.847 33.4211 33.943C33.5491 34.0337 33.7224 34.079 33.9411 34.079ZM39.8546 30.487C40.3879 30.487 40.8173 30.647 41.1426 30.967C41.4733 31.287 41.6386 31.7617 41.6386 32.391V34.855H40.3906V32.583C40.3906 32.2417 40.3159 31.9884 40.1666 31.823C40.0173 31.6524 39.8013 31.567 39.5186 31.567C39.2039 31.567 38.9533 31.6657 38.7666 31.863C38.5799 32.055 38.4866 32.343 38.4866 32.727V34.855H37.2386V30.551H38.4306V31.055C38.5959 30.8737 38.8013 30.735 39.0466 30.639C39.2919 30.5377 39.5613 30.487 39.8546 30.487ZM47.2007 28.919V34.855H46.0087V34.359C45.6994 34.7324 45.2514 34.919 44.6647 34.919C44.2594 34.919 43.8914 34.8284 43.5607 34.647C43.2354 34.4657 42.9794 34.207 42.7927 33.871C42.6061 33.535 42.5127 33.1457 42.5127 32.703C42.5127 32.2604 42.6061 31.871 42.7927 31.535C42.9794 31.199 43.2354 30.9404 43.5607 30.759C43.8914 30.5777 44.2594 30.487 44.6647 30.487C45.2141 30.487 45.6434 30.6604 45.9527 31.007V28.919H47.2007ZM44.8807 33.895C45.1954 33.895 45.4567 33.7884 45.6647 33.575C45.8727 33.3564 45.9767 33.0657 45.9767 32.703C45.9767 32.3404 45.8727 32.0524 45.6647 31.839C45.4567 31.6204 45.1954 31.511 44.8807 31.511C44.5607 31.511 44.2967 31.6204 44.0887 31.839C43.8807 32.0524 43.7767 32.3404 43.7767 32.703C43.7767 33.0657 43.8807 33.3564 44.0887 33.575C44.2967 33.7884 44.5607 33.895 44.8807 33.895ZM50.4038 34.919C49.9505 34.919 49.5425 34.8257 49.1798 34.639C48.8225 34.447 48.5425 34.183 48.3398 33.847C48.1371 33.511 48.0358 33.1297 48.0358 32.703C48.0358 32.2764 48.1371 31.895 48.3398 31.559C48.5425 31.223 48.8225 30.9617 49.1798 30.775C49.5425 30.583 49.9505 30.487 50.4038 30.487C50.8571 30.487 51.2625 30.583 51.6198 30.775C51.9771 30.9617 52.2571 31.223 52.4598 31.559C52.6625 31.895 52.7638 32.2764 52.7638 32.703C52.7638 33.1297 52.6625 33.511 52.4598 33.847C52.2571 34.183 51.9771 34.447 51.6198 34.639C51.2625 34.8257 50.8571 34.919 50.4038 34.919ZM50.4038 33.895C50.7238 33.895 50.9851 33.7884 51.1878 33.575C51.3958 33.3564 51.4998 33.0657 51.4998 32.703C51.4998 32.3404 51.3958 32.0524 51.1878 31.839C50.9851 31.6204 50.7238 31.511 50.4038 31.511C50.0838 31.511 49.8198 31.6204 49.6118 31.839C49.4038 32.0524 49.2998 32.3404 49.2998 32.703C49.2998 33.0657 49.4038 33.3564 49.6118 33.575C49.8198 33.7884 50.0838 33.895 50.4038 33.895ZM54.07 32.047C53.8513 32.047 53.6673 31.9724 53.518 31.823C53.3686 31.6737 53.294 31.487 53.294 31.263C53.294 31.0337 53.3686 30.8497 53.518 30.711C53.6673 30.567 53.8513 30.495 54.07 30.495C54.2886 30.495 54.4726 30.567 54.622 30.711C54.7713 30.8497 54.846 31.0337 54.846 31.263C54.846 31.487 54.7713 31.6737 54.622 31.823C54.4726 31.9724 54.2886 32.047 54.07 32.047ZM54.07 34.919C53.8513 34.919 53.6673 34.8444 53.518 34.695C53.3686 34.5457 53.294 34.359 53.294 34.135C53.294 33.9057 53.3686 33.7217 53.518 33.583C53.6673 33.439 53.8513 33.367 54.07 33.367C54.2886 33.367 54.4726 33.439 54.622 33.583C54.7713 33.7217 54.846 33.9057 54.846 34.135C54.846 34.359 54.7713 34.5457 54.622 34.695C54.4726 34.8444 54.2886 34.919 54.07 34.919ZM60.5013 30.487C60.9013 30.487 61.264 30.5804 61.5893 30.767C61.92 30.9484 62.1787 31.207 62.3653 31.543C62.552 31.8737 62.6453 32.2604 62.6453 32.703C62.6453 33.1457 62.552 33.535 62.3653 33.871C62.1787 34.2017 61.92 34.4604 61.5893 34.647C61.264 34.8284 60.9013 34.919 60.5013 34.919C59.952 34.919 59.52 34.7457 59.2053 34.399V36.407H57.9573V30.551H59.1493V31.047C59.4587 30.6737 59.9093 30.487 60.5013 30.487ZM60.2853 33.895C60.6053 33.895 60.8667 33.7884 61.0693 33.575C61.2773 33.3564 61.3813 33.0657 61.3813 32.703C61.3813 32.3404 61.2773 32.0524 61.0693 31.839C60.8667 31.6204 60.6053 31.511 60.2853 31.511C59.9653 31.511 59.7013 31.6204 59.4933 31.839C59.2907 32.0524 59.1893 32.3404 59.1893 32.703C59.1893 33.0657 59.2907 33.3564 59.4933 33.575C59.7013 33.7884 59.9653 33.895 60.2853 33.895ZM64.6728 31.119C64.8221 30.911 65.0221 30.7537 65.2728 30.647C65.5288 30.5404 65.8221 30.487 66.1528 30.487V31.639C66.0141 31.6284 65.9208 31.623 65.8728 31.623C65.5155 31.623 65.2355 31.7244 65.0328 31.927C64.8301 32.1244 64.7288 32.423 64.7288 32.823V34.855H63.4808V30.551H64.6728V31.119ZM71.0718 32.719C71.0718 32.735 71.0638 32.847 71.0478 33.055H67.7918C67.8505 33.3217 67.9891 33.5324 68.2078 33.687C68.4265 33.8417 68.6985 33.919 69.0238 33.919C69.2478 33.919 69.4451 33.887 69.6158 33.823C69.7918 33.7537 69.9545 33.647 70.1038 33.503L70.7678 34.223C70.3625 34.687 69.7705 34.919 68.9918 34.919C68.5065 34.919 68.0771 34.8257 67.7038 34.639C67.3305 34.447 67.0425 34.183 66.8398 33.847C66.6371 33.511 66.5358 33.1297 66.5358 32.703C66.5358 32.2817 66.6345 31.903 66.8318 31.567C67.0345 31.2257 67.3091 30.9617 67.6558 30.775C68.0078 30.583 68.3998 30.487 68.8318 30.487C69.2531 30.487 69.6345 30.5777 69.9758 30.759C70.3171 30.9404 70.5838 31.2017 70.7758 31.543C70.9731 31.879 71.0718 32.271 71.0718 32.719ZM68.8398 31.431C68.5571 31.431 68.3198 31.511 68.1278 31.671C67.9358 31.831 67.8185 32.0497 67.7758 32.327H69.8958C69.8531 32.055 69.7358 31.839 69.5438 31.679C69.3518 31.5137 69.1171 31.431 68.8398 31.431ZM73.3507 34.919C72.9933 34.919 72.644 34.8764 72.3027 34.791C71.9613 34.7004 71.6893 34.5884 71.4867 34.455L71.9027 33.559C72.0947 33.6817 72.3267 33.783 72.5987 33.863C72.8707 33.9377 73.1373 33.975 73.3987 33.975C73.9267 33.975 74.1907 33.8444 74.1907 33.583C74.1907 33.4604 74.1187 33.3724 73.9747 33.319C73.8307 33.2657 73.6093 33.2204 73.3107 33.183C72.9587 33.1297 72.668 33.0684 72.4387 32.999C72.2093 32.9297 72.0093 32.807 71.8387 32.631C71.6733 32.455 71.5907 32.2044 71.5907 31.879C71.5907 31.607 71.668 31.367 71.8227 31.159C71.9827 30.9457 72.212 30.7804 72.5107 30.663C72.8147 30.5457 73.172 30.487 73.5827 30.487C73.8867 30.487 74.188 30.5217 74.4867 30.591C74.7907 30.655 75.0413 30.7457 75.2387 30.863L74.8227 31.751C74.444 31.5377 74.0307 31.431 73.5827 31.431C73.316 31.431 73.116 31.4684 72.9827 31.543C72.8493 31.6177 72.7827 31.7137 72.7827 31.831C72.7827 31.9644 72.8547 32.0577 72.9987 32.111C73.1427 32.1644 73.372 32.215 73.6867 32.263C74.0387 32.3217 74.3267 32.3857 74.5507 32.455C74.7747 32.519 74.9693 32.639 75.1347 32.815C75.3 32.991 75.3827 33.2364 75.3827 33.551C75.3827 33.8177 75.3027 34.055 75.1427 34.263C74.9827 34.471 74.748 34.6337 74.4387 34.751C74.1347 34.863 73.772 34.919 73.3507 34.919ZM76.1527 30.551H77.4007V34.855H76.1527V30.551ZM76.7767 29.951C76.5473 29.951 76.3607 29.8844 76.2167 29.751C76.0727 29.6177 76.0007 29.4524 76.0007 29.255C76.0007 29.0577 76.0727 28.8924 76.2167 28.759C76.3607 28.6257 76.5473 28.559 76.7767 28.559C77.006 28.559 77.1927 28.623 77.3367 28.751C77.4807 28.879 77.5527 29.039 77.5527 29.231C77.5527 29.439 77.4807 29.6124 77.3367 29.751C77.1927 29.8844 77.006 29.951 76.7767 29.951ZM80.6069 34.919C80.1536 34.919 79.7456 34.8257 79.3829 34.639C79.0256 34.447 78.7456 34.183 78.5429 33.847C78.3402 33.511 78.2389 33.1297 78.2389 32.703C78.2389 32.2764 78.3402 31.895 78.5429 31.559C78.7456 31.223 79.0256 30.9617 79.3829 30.775C79.7456 30.583 80.1536 30.487 80.6069 30.487C81.0602 30.487 81.4656 30.583 81.8229 30.775C82.1802 30.9617 82.4602 31.223 82.6629 31.559C82.8656 31.895 82.9669 32.2764 82.9669 32.703C82.9669 33.1297 82.8656 33.511 82.6629 33.847C82.4602 34.183 82.1802 34.447 81.8229 34.639C81.4656 34.8257 81.0602 34.919 80.6069 34.919ZM80.6069 33.895C80.9269 33.895 81.1882 33.7884 81.3909 33.575C81.5989 33.3564 81.7029 33.0657 81.7029 32.703C81.7029 32.3404 81.5989 32.0524 81.3909 31.839C81.1882 31.6204 80.9269 31.511 80.6069 31.511C80.2869 31.511 80.0229 31.6204 79.8149 31.839C79.6069 32.0524 79.5029 32.3404 79.5029 32.703C79.5029 33.0657 79.6069 33.3564 79.8149 33.575C80.0229 33.7884 80.2869 33.895 80.6069 33.895ZM86.4171 30.487C86.9504 30.487 87.3798 30.647 87.7051 30.967C88.0358 31.287 88.2011 31.7617 88.2011 32.391V34.855H86.9531V32.583C86.9531 32.2417 86.8784 31.9884 86.7291 31.823C86.5798 31.6524 86.3638 31.567 86.0811 31.567C85.7664 31.567 85.5158 31.6657 85.3291 31.863C85.1424 32.055 85.0491 32.343 85.0491 32.727V34.855H83.8011V30.551H84.9931V31.055C85.1584 30.8737 85.3638 30.735 85.6091 30.639C85.8544 30.5377 86.1238 30.487 86.4171 30.487ZM91.0683 30.487C91.735 30.487 92.247 30.647 92.6043 30.967C92.9617 31.2817 93.1403 31.759 93.1403 32.399V34.855H91.9723V34.319C91.7377 34.719 91.3003 34.919 90.6603 34.919C90.3297 34.919 90.0417 34.863 89.7963 34.751C89.5563 34.639 89.3723 34.4844 89.2443 34.287C89.1163 34.0897 89.0523 33.8657 89.0523 33.615C89.0523 33.215 89.2017 32.9004 89.5003 32.671C89.8043 32.4417 90.271 32.327 90.9003 32.327H91.8923C91.8923 32.055 91.8097 31.847 91.6443 31.703C91.479 31.5537 91.231 31.479 90.9003 31.479C90.671 31.479 90.4443 31.5164 90.2203 31.591C90.0017 31.6604 89.815 31.7564 89.6603 31.879L89.2123 31.007C89.447 30.8417 89.727 30.7137 90.0523 30.623C90.383 30.5324 90.7217 30.487 91.0683 30.487ZM90.9723 34.079C91.1857 34.079 91.375 34.031 91.5403 33.935C91.7057 33.8337 91.823 33.687 91.8923 33.495V33.055H91.0363C90.5243 33.055 90.2683 33.223 90.2683 33.559C90.2683 33.719 90.3297 33.847 90.4523 33.943C90.5803 34.0337 90.7537 34.079 90.9723 34.079ZM95.4618 31.119C95.6112 30.911 95.8112 30.7537 96.0618 30.647C96.3178 30.5404 96.6112 30.487 96.9418 30.487V31.639C96.8032 31.6284 96.7098 31.623 96.6618 31.623C96.3045 31.623 96.0245 31.7244 95.8218 31.927C95.6192 32.1244 95.5178 32.423 95.5178 32.823V34.855H94.2698V30.551H95.4618V31.119ZM102.525 30.487C102.925 30.487 103.287 30.5804 103.613 30.767C103.943 30.9484 104.202 31.207 104.389 31.543C104.575 31.8737 104.669 32.2604 104.669 32.703C104.669 33.1457 104.575 33.535 104.389 33.871C104.202 34.2017 103.943 34.4604 103.613 34.647C103.287 34.8284 102.925 34.919 102.525 34.919C101.933 34.919 101.482 34.7324 101.173 34.359V34.855H99.9808V28.919H101.229V31.007C101.543 30.6604 101.975 30.487 102.525 30.487ZM102.309 33.895C102.629 33.895 102.89 33.7884 103.093 33.575C103.301 33.3564 103.405 33.0657 103.405 32.703C103.405 32.3404 103.301 32.0524 103.093 31.839C102.89 31.6204 102.629 31.511 102.309 31.511C101.989 31.511 101.725 31.6204 101.517 31.839C101.314 32.0524 101.213 32.3404 101.213 32.703C101.213 33.0657 101.314 33.3564 101.517 33.575C101.725 33.7884 101.989 33.895 102.309 33.895ZM107.552 34.919C107.099 34.919 106.691 34.8257 106.328 34.639C105.971 34.447 105.691 34.183 105.488 33.847C105.286 33.511 105.184 33.1297 105.184 32.703C105.184 32.2764 105.286 31.895 105.488 31.559C105.691 31.223 105.971 30.9617 106.328 30.775C106.691 30.583 107.099 30.487 107.552 30.487C108.006 30.487 108.411 30.583 108.768 30.775C109.126 30.9617 109.406 31.223 109.608 31.559C109.811 31.895 109.912 32.2764 109.912 32.703C109.912 33.1297 109.811 33.511 109.608 33.847C109.406 34.183 109.126 34.447 108.768 34.639C108.411 34.8257 108.006 34.919 107.552 34.919ZM107.552 33.895C107.872 33.895 108.134 33.7884 108.336 33.575C108.544 33.3564 108.648 33.0657 108.648 32.703C108.648 32.3404 108.544 32.0524 108.336 31.839C108.134 31.6204 107.872 31.511 107.552 31.511C107.232 31.511 106.968 31.6204 106.76 31.839C106.552 32.0524 106.448 32.3404 106.448 32.703C106.448 33.0657 106.552 33.3564 106.76 33.575C106.968 33.7884 107.232 33.895 107.552 33.895ZM113.522 34.647C113.4 34.7377 113.248 34.807 113.066 34.855C112.89 34.8977 112.704 34.919 112.506 34.919C111.994 34.919 111.597 34.7884 111.314 34.527C111.037 34.2657 110.898 33.8817 110.898 33.375V31.607H110.234V30.647H110.898V29.599H112.146V30.647H113.218V31.607H112.146V33.359C112.146 33.5404 112.192 33.6817 112.282 33.783C112.378 33.879 112.512 33.927 112.682 33.927C112.88 33.927 113.048 33.8737 113.186 33.767L113.522 34.647ZM116.138 34.919C115.685 34.919 115.277 34.8257 114.914 34.639C114.557 34.447 114.277 34.183 114.074 33.847C113.871 33.511 113.77 33.1297 113.77 32.703C113.77 32.2764 113.871 31.895 114.074 31.559C114.277 31.223 114.557 30.9617 114.914 30.775C115.277 30.583 115.685 30.487 116.138 30.487C116.591 30.487 116.997 30.583 117.354 30.775C117.711 30.9617 117.991 31.223 118.194 31.559C118.397 31.895 118.498 32.2764 118.498 32.703C118.498 33.1297 118.397 33.511 118.194 33.847C117.991 34.183 117.711 34.447 117.354 34.639C116.997 34.8257 116.591 34.919 116.138 34.919ZM116.138 33.895C116.458 33.895 116.719 33.7884 116.922 33.575C117.13 33.3564 117.234 33.0657 117.234 32.703C117.234 32.3404 117.13 32.0524 116.922 31.839C116.719 31.6204 116.458 31.511 116.138 31.511C115.818 31.511 115.554 31.6204 115.346 31.839C115.138 32.0524 115.034 32.3404 115.034 32.703C115.034 33.0657 115.138 33.3564 115.346 33.575C115.554 33.7884 115.818 33.895 116.138 33.895ZM116.474 28.847H117.818L116.37 29.999H115.394L116.474 28.847ZM121.948 30.487C122.482 30.487 122.911 30.647 123.236 30.967C123.567 31.287 123.732 31.7617 123.732 32.391V34.855H122.484V32.583C122.484 32.2417 122.41 31.9884 122.26 31.823C122.111 31.6524 121.895 31.567 121.612 31.567C121.298 31.567 121.047 31.6657 120.86 31.863C120.674 32.055 120.58 32.343 120.58 32.727V34.855H119.332V30.551H120.524V31.055C120.69 30.8737 120.895 30.735 121.14 30.639C121.386 30.5377 121.655 30.487 121.948 30.487ZM128.865 30.487C129.532 30.487 130.044 30.647 130.401 30.967C130.759 31.2817 130.937 31.759 130.937 32.399V34.855H129.769V34.319C129.535 34.719 129.097 34.919 128.457 34.919C128.127 34.919 127.839 34.863 127.593 34.751C127.353 34.639 127.169 34.4844 127.041 34.287C126.913 34.0897 126.849 33.8657 126.849 33.615C126.849 33.215 126.999 32.9004 127.297 32.671C127.601 32.4417 128.068 32.327 128.697 32.327H129.689C129.689 32.055 129.607 31.847 129.441 31.703C129.276 31.5537 129.028 31.479 128.697 31.479C128.468 31.479 128.241 31.5164 128.017 31.591C127.799 31.6604 127.612 31.7564 127.457 31.879L127.009 31.007C127.244 30.8417 127.524 30.7137 127.849 30.623C128.18 30.5324 128.519 30.487 128.865 30.487ZM128.769 34.079C128.983 34.079 129.172 34.031 129.337 33.935C129.503 33.8337 129.62 33.687 129.689 33.495V33.055H128.833C128.321 33.055 128.065 33.223 128.065 33.559C128.065 33.719 128.127 33.847 128.249 33.943C128.377 34.0337 128.551 34.079 128.769 34.079ZM134.683 30.487C135.216 30.487 135.645 30.647 135.971 30.967C136.301 31.287 136.467 31.7617 136.467 32.391V34.855H135.219V32.583C135.219 32.2417 135.144 31.9884 134.995 31.823C134.845 31.6524 134.629 31.567 134.347 31.567C134.032 31.567 133.781 31.6657 133.595 31.863C133.408 32.055 133.315 32.343 133.315 32.727V34.855H132.067V30.551H133.259V31.055C133.424 30.8737 133.629 30.735 133.875 30.639C134.12 30.5377 134.389 30.487 134.683 30.487ZM137.598 30.551H138.846V34.855H137.598V30.551ZM138.222 29.951C137.993 29.951 137.806 29.8844 137.662 29.751C137.518 29.6177 137.446 29.4524 137.446 29.255C137.446 29.0577 137.518 28.8924 137.662 28.759C137.806 28.6257 137.993 28.559 138.222 28.559C138.451 28.559 138.638 28.623 138.782 28.751C138.926 28.879 138.998 29.039 138.998 29.231C138.998 29.439 138.926 29.6124 138.782 29.751C138.638 29.8844 138.451 29.951 138.222 29.951ZM145.516 30.487C146.055 30.487 146.482 30.647 146.796 30.967C147.116 31.2817 147.276 31.7564 147.276 32.391V34.855H146.028V32.583C146.028 32.2417 145.956 31.9884 145.812 31.823C145.674 31.6524 145.474 31.567 145.212 31.567C144.919 31.567 144.687 31.663 144.516 31.855C144.346 32.0417 144.26 32.3217 144.26 32.695V34.855H143.012V32.583C143.012 31.9057 142.74 31.567 142.196 31.567C141.908 31.567 141.679 31.663 141.508 31.855C141.338 32.0417 141.252 32.3217 141.252 32.695V34.855H140.004V30.551H141.196V31.047C141.356 30.8657 141.551 30.727 141.78 30.631C142.015 30.535 142.271 30.487 142.548 30.487C142.852 30.487 143.127 30.5484 143.372 30.671C143.618 30.7884 143.815 30.9617 143.964 31.191C144.14 30.967 144.362 30.7937 144.628 30.671C144.9 30.5484 145.196 30.487 145.516 30.487ZM150.131 30.487C150.798 30.487 151.31 30.647 151.667 30.967C152.024 31.2817 152.203 31.759 152.203 32.399V34.855H151.035V34.319C150.8 34.719 150.363 34.919 149.723 34.919C149.392 34.919 149.104 34.863 148.859 34.751C148.619 34.639 148.435 34.4844 148.307 34.287C148.179 34.0897 148.115 33.8657 148.115 33.615C148.115 33.215 148.264 32.9004 148.563 32.671C148.867 32.4417 149.334 32.327 149.963 32.327H150.955C150.955 32.055 150.872 31.847 150.707 31.703C150.542 31.5537 150.294 31.479 149.963 31.479C149.734 31.479 149.507 31.5164 149.283 31.591C149.064 31.6604 148.878 31.7564 148.723 31.879L148.275 31.007C148.51 30.8417 148.79 30.7137 149.115 30.623C149.446 30.5324 149.784 30.487 150.131 30.487ZM150.035 34.079C150.248 34.079 150.438 34.031 150.603 33.935C150.768 33.8337 150.886 33.687 150.955 33.495V33.055H150.099C149.587 33.055 149.331 33.223 149.331 33.559C149.331 33.719 149.392 33.847 149.515 33.943C149.643 34.0337 149.816 34.079 150.035 34.079ZM154.524 31.119C154.674 30.911 154.874 30.7537 155.124 30.647C155.38 30.5404 155.674 30.487 156.004 30.487V31.639C155.866 31.6284 155.772 31.623 155.724 31.623C155.367 31.623 155.087 31.7244 154.884 31.927C154.682 32.1244 154.58 32.423 154.58 32.823V34.855H153.332V30.551H154.524V31.119ZM157.172 34.919C156.953 34.919 156.769 34.8444 156.62 34.695C156.47 34.5457 156.396 34.359 156.396 34.135C156.396 33.9057 156.47 33.7217 156.62 33.583C156.769 33.439 156.953 33.367 157.172 33.367C157.39 33.367 157.574 33.439 157.724 33.583C157.873 33.7217 157.948 33.9057 157.948 34.135C157.948 34.359 157.873 34.5457 157.724 34.695C157.574 34.8444 157.39 34.919 157.172 34.919Z" fill="#333333"/>
</g>
<g id="Dibujar">
<g id="&#195;&#129;tomo_IDE_Bloque3">
<g id="&#195;&#129;tomo_IDE_Bloque1">
<g id="2">
<path id="Vector_15" fill-rule="evenodd" clip-rule="evenodd" d="M168.801 54.6466C168.801 51.8221 167.701 49.1134 165.742 47.1162C163.783 45.119 161.127 43.997 158.357 43.997C132.678 43.997 76.8921 43.9999 76.8921 43.9999L72.2991 48.2503H56.4223L51.8261 43.9999H37.2042C34.4342 43.9999 31.7777 45.122 29.8191 47.1191C27.8604 49.1163 26.76 51.8251 26.76 54.6496C26.76 54.6526 26.76 54.6558 26.76 54.659C26.76 57.4834 27.8604 60.1921 29.8191 62.1893C31.7777 64.1865 34.4342 65.3085 37.2042 65.3085C44.0833 65.3085 51.8261 65.3085 51.8261 65.3085L56.4223 69.5589H72.2959L76.8921 65.3085L158.357 65.3056C161.127 65.3056 163.783 64.1836 165.742 62.1864C167.701 60.1892 168.801 57.4805 168.801 54.656C168.801 54.6528 168.801 54.6496 168.801 54.6466Z" fill="#30DCFF"/>
<path id="Vector_16" fill-rule="evenodd" clip-rule="evenodd" d="M168.801 54.65C168.801 51.8255 167.701 49.1168 165.742 47.1196C163.783 45.1224 161.127 44.0004 158.357 44.0004C132.678 44.0004 76.8921 44.0004 76.8921 44.0004L72.2991 48.2508H56.4223L51.8261 44.0004H37.2042C34.4342 44.0004 31.7777 45.1224 29.8191 47.1196C27.8604 49.1168 26.76 51.8255 26.76 54.65C26.76 54.6531 26.76 54.6547 26.76 54.6547H29.2666C29.2666 50.0492 32.9282 46.3155 37.4449 46.3155C43.5352 46.3155 50.8003 46.3155 50.8003 46.3155L55.3965 50.5659H73.3405L77.9367 46.3155H158.117C162.633 46.3155 166.295 50.0491 166.295 54.6546L168.801 54.6547V54.65Z" fill="#93EDFF"/>
<path id="Vector_17" fill-rule="evenodd" clip-rule="evenodd" d="M168.801 54.652H166.294V54.6526C166.294 56.8633 165.433 58.9836 163.9 60.5468C162.367 62.1101 160.288 62.9883 158.12 62.9883C134.444 62.9883 75.8539 62.9883 75.8539 62.9883L71.2577 67.2387H57.4606L52.8644 62.9883H37.4416C32.9267 62.9883 29.2666 59.2563 29.2666 54.6526V54.652H26.76V54.6567C26.76 57.4812 27.8604 60.1899 29.8191 62.1871C31.7777 64.1843 34.4342 65.3063 37.2042 65.3063C44.0833 65.3063 51.8261 65.3063 51.8261 65.3063L56.4223 69.5567H72.2959L76.8921 65.3063H158.357C164.125 65.3063 168.801 60.5385 168.801 54.657C168.801 54.6536 168.801 54.652 168.801 54.652Z" fill="#08A0BF"/>
</g>
</g>
</g>
<path id="Brazo derecho arriba" d="M39.776 55.4232C40.096 55.5245 40.3467 55.6952 40.528 55.9352C40.7093 56.1699 40.8 56.4605 40.8 56.8072C40.8 57.2979 40.608 57.6765 40.224 57.9432C39.8453 58.2045 39.2907 58.3352 38.56 58.3352H35.664V52.7352H38.4C39.0827 52.7352 39.6053 52.8659 39.968 53.1272C40.336 53.3885 40.52 53.7432 40.52 54.1912C40.52 54.4632 40.4533 54.7059 40.32 54.9192C40.192 55.1325 40.0107 55.3005 39.776 55.4232ZM36.952 53.7112V55.0312H38.24C38.56 55.0312 38.8027 54.9752 38.968 54.8632C39.1333 54.7512 39.216 54.5859 39.216 54.3672C39.216 54.1485 39.1333 53.9859 38.968 53.8792C38.8027 53.7672 38.56 53.7112 38.24 53.7112H36.952ZM38.464 57.3592C38.8053 57.3592 39.0613 57.3032 39.232 57.1912C39.408 57.0792 39.496 56.9059 39.496 56.6712C39.496 56.2072 39.152 55.9752 38.464 55.9752H36.952V57.3592H38.464ZM42.8852 54.5992C43.0345 54.3912 43.2345 54.2339 43.4852 54.1272C43.7412 54.0205 44.0345 53.9672 44.3652 53.9672V55.1192C44.2265 55.1085 44.1332 55.1032 44.0852 55.1032C43.7279 55.1032 43.4479 55.2045 43.2452 55.4072C43.0425 55.6045 42.9412 55.9032 42.9412 56.3032V58.3352H41.6932V54.0312H42.8852V54.5992ZM46.8198 53.9672C47.4865 53.9672 47.9985 54.1272 48.3558 54.4472C48.7131 54.7619 48.8918 55.2392 48.8918 55.8792V58.3352H47.7238V57.7992C47.4891 58.1992 47.0518 58.3992 46.4118 58.3992C46.0811 58.3992 45.7931 58.3432 45.5478 58.2312C45.3078 58.1192 45.1238 57.9645 44.9958 57.7672C44.8678 57.5699 44.8038 57.3459 44.8038 57.0952C44.8038 56.6952 44.9531 56.3805 45.2518 56.1512C45.5558 55.9219 46.0225 55.8072 46.6518 55.8072H47.6438C47.6438 55.5352 47.5611 55.3272 47.3958 55.1832C47.2305 55.0339 46.9825 54.9592 46.6518 54.9592C46.4225 54.9592 46.1958 54.9965 45.9718 55.0712C45.7531 55.1405 45.5665 55.2365 45.4118 55.3592L44.9638 54.4872C45.1985 54.3219 45.4785 54.1939 45.8038 54.1032C46.1345 54.0125 46.4731 53.9672 46.8198 53.9672ZM46.7238 57.5592C46.9371 57.5592 47.1265 57.5112 47.2918 57.4152C47.4571 57.3139 47.5745 57.1672 47.6438 56.9752V56.5352H46.7878C46.2758 56.5352 46.0198 56.7032 46.0198 57.0392C46.0198 57.1992 46.0811 57.3272 46.2038 57.4232C46.3318 57.5139 46.5051 57.5592 46.7238 57.5592ZM53.5653 57.3752V58.3352H49.7253V57.5832L51.9173 54.9912H49.7813V54.0312H53.4933V54.7832L51.3013 57.3752H53.5653ZM56.3584 58.3992C55.905 58.3992 55.497 58.3059 55.1344 58.1192C54.777 57.9272 54.497 57.6632 54.2944 57.3272C54.0917 56.9912 53.9904 56.6099 53.9904 56.1832C53.9904 55.7565 54.0917 55.3752 54.2944 55.0392C54.497 54.7032 54.777 54.4419 55.1344 54.2552C55.497 54.0632 55.905 53.9672 56.3584 53.9672C56.8117 53.9672 57.217 54.0632 57.5744 54.2552C57.9317 54.4419 58.2117 54.7032 58.4144 55.0392C58.617 55.3752 58.7184 55.7565 58.7184 56.1832C58.7184 56.6099 58.617 56.9912 58.4144 57.3272C58.2117 57.6632 57.9317 57.9272 57.5744 58.1192C57.217 58.3059 56.8117 58.3992 56.3584 58.3992ZM56.3584 57.3752C56.6784 57.3752 56.9397 57.2685 57.1424 57.0552C57.3504 56.8365 57.4544 56.5459 57.4544 56.1832C57.4544 55.8205 57.3504 55.5325 57.1424 55.3192C56.9397 55.1005 56.6784 54.9912 56.3584 54.9912C56.0384 54.9912 55.7744 55.1005 55.5664 55.3192C55.3584 55.5325 55.2544 55.8205 55.2544 56.1832C55.2544 56.5459 55.3584 56.8365 55.5664 57.0552C55.7744 57.2685 56.0384 57.3752 56.3584 57.3752ZM66.2022 52.3992V58.3352H65.0102V57.8392C64.7009 58.2125 64.2529 58.3992 63.6662 58.3992C63.2609 58.3992 62.8929 58.3085 62.5622 58.1272C62.2369 57.9459 61.9809 57.6872 61.7942 57.3512C61.6075 57.0152 61.5142 56.6259 61.5142 56.1832C61.5142 55.7405 61.6075 55.3512 61.7942 55.0152C61.9809 54.6792 62.2369 54.4205 62.5622 54.2392C62.8929 54.0579 63.2609 53.9672 63.6662 53.9672C64.2155 53.9672 64.6449 54.1405 64.9542 54.4872V52.3992H66.2022ZM63.8822 57.3752C64.1969 57.3752 64.4582 57.2685 64.6662 57.0552C64.8742 56.8365 64.9782 56.5459 64.9782 56.1832C64.9782 55.8205 64.8742 55.5325 64.6662 55.3192C64.4582 55.1005 64.1969 54.9912 63.8822 54.9912C63.5622 54.9912 63.2982 55.1005 63.0902 55.3192C62.8822 55.5325 62.7782 55.8205 62.7782 56.1832C62.7782 56.5459 62.8822 56.8365 63.0902 57.0552C63.2982 57.2685 63.5622 57.3752 63.8822 57.3752ZM71.5733 56.1992C71.5733 56.2152 71.5653 56.3272 71.5493 56.5352H68.2933C68.3519 56.8019 68.4906 57.0125 68.7093 57.1672C68.9279 57.3219 69.1999 57.3992 69.5253 57.3992C69.7493 57.3992 69.9466 57.3672 70.1173 57.3032C70.2933 57.2339 70.4559 57.1272 70.6053 56.9832L71.2693 57.7032C70.8639 58.1672 70.2719 58.3992 69.4933 58.3992C69.0079 58.3992 68.5786 58.3059 68.2053 58.1192C67.8319 57.9272 67.5439 57.6632 67.3413 57.3272C67.1386 56.9912 67.0373 56.6099 67.0373 56.1832C67.0373 55.7619 67.1359 55.3832 67.3333 55.0472C67.5359 54.7059 67.8106 54.4419 68.1573 54.2552C68.5093 54.0632 68.9013 53.9672 69.3333 53.9672C69.7546 53.9672 70.1359 54.0579 70.4773 54.2392C70.8186 54.4205 71.0853 54.6819 71.2773 55.0232C71.4746 55.3592 71.5733 55.7512 71.5733 56.1992ZM69.3413 54.9112C69.0586 54.9112 68.8213 54.9912 68.6293 55.1512C68.4373 55.3112 68.3199 55.5299 68.2773 55.8072H70.3973C70.3546 55.5352 70.2373 55.3192 70.0453 55.1592C69.8533 54.9939 69.6186 54.9112 69.3413 54.9112ZM73.5961 54.5992C73.7455 54.3912 73.9455 54.2339 74.1961 54.1272C74.4521 54.0205 74.7455 53.9672 75.0761 53.9672V55.1192C74.9375 55.1085 74.8441 55.1032 74.7961 55.1032C74.4388 55.1032 74.1588 55.2045 73.9561 55.4072C73.7535 55.6045 73.6521 55.9032 73.6521 56.3032V58.3352H72.4041V54.0312H73.5961V54.5992ZM79.9951 56.1992C79.9951 56.2152 79.9871 56.3272 79.9711 56.5352H76.7151C76.7738 56.8019 76.9125 57.0125 77.1311 57.1672C77.3498 57.3219 77.6218 57.3992 77.9471 57.3992C78.1711 57.3992 78.3685 57.3672 78.5391 57.3032C78.7151 57.2339 78.8778 57.1272 79.0271 56.9832L79.6911 57.7032C79.2858 58.1672 78.6938 58.3992 77.9151 58.3992C77.4298 58.3992 77.0005 58.3059 76.6271 58.1192C76.2538 57.9272 75.9658 57.6632 75.7631 57.3272C75.5605 56.9912 75.4591 56.6099 75.4591 56.1832C75.4591 55.7619 75.5578 55.3832 75.7551 55.0472C75.9578 54.7059 76.2325 54.4419 76.5791 54.2552C76.9311 54.0632 77.3231 53.9672 77.7551 53.9672C78.1765 53.9672 78.5578 54.0579 78.8991 54.2392C79.2405 54.4205 79.5071 54.6819 79.6991 55.0232C79.8965 55.3592 79.9951 55.7512 79.9951 56.1992ZM77.7631 54.9112C77.4805 54.9112 77.2431 54.9912 77.0511 55.1512C76.8591 55.3112 76.7418 55.5299 76.6991 55.8072H78.8191C78.7765 55.5352 78.6591 55.3192 78.4671 55.1592C78.2751 54.9939 78.0405 54.9112 77.7631 54.9112ZM82.906 58.3992C82.4473 58.3992 82.034 58.3059 81.666 58.1192C81.3033 57.9272 81.018 57.6632 80.81 57.3272C80.6073 56.9912 80.506 56.6099 80.506 56.1832C80.506 55.7565 80.6073 55.3752 80.81 55.0392C81.018 54.7032 81.3033 54.4419 81.666 54.2552C82.034 54.0632 82.4473 53.9672 82.906 53.9672C83.3593 53.9672 83.754 54.0632 84.09 54.2552C84.4313 54.4419 84.6793 54.7112 84.834 55.0632L83.866 55.5832C83.642 55.1885 83.3193 54.9912 82.898 54.9912C82.5727 54.9912 82.3033 55.0979 82.09 55.3112C81.8767 55.5245 81.77 55.8152 81.77 56.1832C81.77 56.5512 81.8767 56.8419 82.09 57.0552C82.3033 57.2685 82.5727 57.3752 82.898 57.3752C83.3247 57.3752 83.6473 57.1779 83.866 56.7832L84.834 57.3112C84.6793 57.6525 84.4313 57.9192 84.09 58.1112C83.754 58.3032 83.3593 58.3992 82.906 58.3992ZM88.1373 53.9672C88.6706 53.9672 89.1 54.1272 89.4253 54.4472C89.756 54.7672 89.9213 55.2419 89.9213 55.8712V58.3352H88.6733V56.0632C88.6733 55.7219 88.5986 55.4685 88.4493 55.3032C88.3 55.1325 88.084 55.0472 87.8013 55.0472C87.4866 55.0472 87.236 55.1459 87.0493 55.3432C86.8626 55.5352 86.7693 55.8232 86.7693 56.2072V58.3352H85.5213V52.3992H86.7693V54.4792C86.9346 54.3139 87.1346 54.1885 87.3693 54.1032C87.604 54.0125 87.86 53.9672 88.1373 53.9672ZM93.1474 58.3992C92.6941 58.3992 92.2861 58.3059 91.9234 58.1192C91.5661 57.9272 91.2861 57.6632 91.0834 57.3272C90.8808 56.9912 90.7794 56.6099 90.7794 56.1832C90.7794 55.7565 90.8808 55.3752 91.0834 55.0392C91.2861 54.7032 91.5661 54.4419 91.9234 54.2552C92.2861 54.0632 92.6941 53.9672 93.1474 53.9672C93.6008 53.9672 94.0061 54.0632 94.3634 54.2552C94.7208 54.4419 95.0008 54.7032 95.2034 55.0392C95.4061 55.3752 95.5074 55.7565 95.5074 56.1832C95.5074 56.6099 95.4061 56.9912 95.2034 57.3272C95.0008 57.6632 94.7208 57.9272 94.3634 58.1192C94.0061 58.3059 93.6008 58.3992 93.1474 58.3992ZM93.1474 57.3752C93.4674 57.3752 93.7288 57.2685 93.9314 57.0552C94.1394 56.8365 94.2434 56.5459 94.2434 56.1832C94.2434 55.8205 94.1394 55.5325 93.9314 55.3192C93.7288 55.1005 93.4674 54.9912 93.1474 54.9912C92.8274 54.9912 92.5634 55.1005 92.3554 55.3192C92.1474 55.5325 92.0434 55.8205 92.0434 56.1832C92.0434 56.5459 92.1474 56.8365 92.3554 57.0552C92.5634 57.2685 92.8274 57.3752 93.1474 57.3752ZM100.343 53.9672C101.01 53.9672 101.522 54.1272 101.879 54.4472C102.237 54.7619 102.415 55.2392 102.415 55.8792V58.3352H101.247V57.7992C101.013 58.1992 100.575 58.3992 99.9353 58.3992C99.6046 58.3992 99.3166 58.3432 99.0713 58.2312C98.8313 58.1192 98.6473 57.9645 98.5193 57.7672C98.3913 57.5699 98.3273 57.3459 98.3273 57.0952C98.3273 56.6952 98.4766 56.3805 98.7753 56.1512C99.0793 55.9219 99.5459 55.8072 100.175 55.8072H101.167C101.167 55.5352 101.085 55.3272 100.919 55.1832C100.754 55.0339 100.506 54.9592 100.175 54.9592C99.9459 54.9592 99.7193 54.9965 99.4953 55.0712C99.2766 55.1405 99.0899 55.2365 98.9353 55.3592L98.4873 54.4872C98.7219 54.3219 99.0019 54.1939 99.3273 54.1032C99.6579 54.0125 99.9966 53.9672 100.343 53.9672ZM100.247 57.5592C100.461 57.5592 100.65 57.5112 100.815 57.4152C100.981 57.3139 101.098 57.1672 101.167 56.9752V56.5352H100.311C99.7993 56.5352 99.5433 56.7032 99.5433 57.0392C99.5433 57.1992 99.6046 57.3272 99.7273 57.4232C99.8553 57.5139 100.029 57.5592 100.247 57.5592ZM104.737 54.5992C104.886 54.3912 105.086 54.2339 105.337 54.1272C105.593 54.0205 105.886 53.9672 106.217 53.9672V55.1192C106.078 55.1085 105.985 55.1032 105.937 55.1032C105.579 55.1032 105.299 55.2045 105.097 55.4072C104.894 55.6045 104.793 55.9032 104.793 56.3032V58.3352H103.545V54.0312H104.737V54.5992ZM108.151 54.5992C108.3 54.3912 108.5 54.2339 108.751 54.1272C109.007 54.0205 109.3 53.9672 109.631 53.9672V55.1192C109.492 55.1085 109.399 55.1032 109.351 55.1032C108.993 55.1032 108.713 55.2045 108.511 55.4072C108.308 55.6045 108.207 55.9032 108.207 56.3032V58.3352H106.959V54.0312H108.151V54.5992ZM110.373 54.0312H111.621V58.3352H110.373V54.0312ZM110.997 53.4312C110.768 53.4312 110.581 53.3645 110.437 53.2312C110.293 53.0979 110.221 52.9325 110.221 52.7352C110.221 52.5379 110.293 52.3725 110.437 52.2392C110.581 52.1059 110.768 52.0392 110.997 52.0392C111.226 52.0392 111.413 52.1032 111.557 52.2312C111.701 52.3592 111.773 52.5192 111.773 52.7112C111.773 52.9192 111.701 53.0925 111.557 53.2312C111.413 53.3645 111.226 53.4312 110.997 53.4312ZM115.323 53.9672C115.723 53.9672 116.086 54.0605 116.411 54.2472C116.742 54.4285 117 54.6872 117.187 55.0232C117.374 55.3539 117.467 55.7405 117.467 56.1832C117.467 56.6259 117.374 57.0152 117.187 57.3512C117 57.6819 116.742 57.9405 116.411 58.1272C116.086 58.3085 115.723 58.3992 115.323 58.3992C114.731 58.3992 114.28 58.2125 113.971 57.8392V58.3352H112.779V52.3992H114.027V54.4872C114.342 54.1405 114.774 53.9672 115.323 53.9672ZM115.107 57.3752C115.427 57.3752 115.688 57.2685 115.891 57.0552C116.099 56.8365 116.203 56.5459 116.203 56.1832C116.203 55.8205 116.099 55.5325 115.891 55.3192C115.688 55.1005 115.427 54.9912 115.107 54.9912C114.787 54.9912 114.523 55.1005 114.315 55.3192C114.112 55.5325 114.011 55.8205 114.011 56.1832C114.011 56.5459 114.112 56.8365 114.315 57.0552C114.523 57.2685 114.787 57.3752 115.107 57.3752ZM119.968 53.9672C120.635 53.9672 121.147 54.1272 121.504 54.4472C121.862 54.7619 122.04 55.2392 122.04 55.8792V58.3352H120.872V57.7992C120.638 58.1992 120.2 58.3992 119.56 58.3992C119.23 58.3992 118.942 58.3432 118.696 58.2312C118.456 58.1192 118.272 57.9645 118.144 57.7672C118.016 57.5699 117.952 57.3459 117.952 57.0952C117.952 56.6952 118.102 56.3805 118.4 56.1512C118.704 55.9219 119.171 55.8072 119.8 55.8072H120.792C120.792 55.5352 120.71 55.3272 120.544 55.1832C120.379 55.0339 120.131 54.9592 119.8 54.9592C119.571 54.9592 119.344 54.9965 119.12 55.0712C118.902 55.1405 118.715 55.2365 118.56 55.3592L118.112 54.4872C118.347 54.3219 118.627 54.1939 118.952 54.1032C119.283 54.0125 119.622 53.9672 119.968 53.9672ZM119.872 57.5592C120.086 57.5592 120.275 57.5112 120.44 57.4152C120.606 57.3139 120.723 57.1672 120.792 56.9752V56.5352H119.936C119.424 56.5352 119.168 56.7032 119.168 57.0392C119.168 57.1992 119.23 57.3272 119.352 57.4232C119.48 57.5139 119.654 57.5592 119.872 57.5592Z" fill="#333333"/>
</g>
<g id="Dibujar_2">
<g id="&#195;&#129;tomo_IDE_Bloque3_2">
<g id="&#195;&#129;tomo_IDE_Bloque1_2">
<g id="2_2">
<path id="Vector_18" fill-rule="evenodd" clip-rule="evenodd" d="M169.041 75.9818C169.041 73.1573 167.941 70.4486 165.982 68.4514C164.023 66.4542 161.367 65.3322 158.597 65.3322C132.918 65.3322 77.1321 65.3351 77.1321 65.3351L72.5391 69.5855H56.6623L52.0661 65.3351H37.4442C34.6742 65.3351 32.0177 66.4572 30.0591 68.4543C28.1004 70.4515 27 73.1603 27 75.9848C27 75.9878 27 75.991 27 75.9942C27 78.8186 28.1004 81.5273 30.0591 83.5245C32.0177 85.5217 34.6742 86.6437 37.4442 86.6437C44.3233 86.6437 52.0661 86.6437 52.0661 86.6437L56.6623 90.8941H72.5359L77.1321 86.6437L158.597 86.6408C161.367 86.6408 164.023 85.5188 165.982 83.5216C167.941 81.5244 169.041 78.8157 169.041 75.9912C169.041 75.988 169.041 75.9848 169.041 75.9818Z" fill="#30DCFF"/>
<path id="Vector_19" fill-rule="evenodd" clip-rule="evenodd" d="M169.041 75.9852C169.041 73.1607 167.941 70.452 165.982 68.4548C164.023 66.4576 161.367 65.3356 158.597 65.3356C132.918 65.3356 77.1321 65.3356 77.1321 65.3356L72.5391 69.586H56.6623L52.0661 65.3356H37.4442C34.6742 65.3356 32.0177 66.4576 30.0591 68.4548C28.1004 70.452 27 73.1607 27 75.9852C27 75.9883 27 75.9899 27 75.9899H29.5066C29.5066 71.3844 33.1682 67.6507 37.6849 67.6507C43.7752 67.6507 51.0403 67.6507 51.0403 67.6507L55.6365 71.9011H73.5804L78.1767 67.6507H158.357C162.873 67.6507 166.535 71.3843 166.535 75.9898L169.041 75.9899V75.9852Z" fill="#93EDFF"/>
<path id="Vector_20" fill-rule="evenodd" clip-rule="evenodd" d="M169.041 75.9872H166.534V75.9878C166.534 78.1986 165.673 80.3188 164.14 81.882C162.607 83.4453 160.528 84.3235 158.36 84.3235C134.684 84.3235 76.0939 84.3235 76.0939 84.3235L71.4977 88.5739H57.7006L53.1044 84.3235H37.6815C33.1667 84.3235 29.5066 80.5915 29.5066 75.9878V75.9872H27V75.9919C27 78.8164 28.1004 81.5251 30.0591 83.5223C32.0177 85.5195 34.6742 86.6415 37.4442 86.6415C44.3233 86.6415 52.0661 86.6415 52.0661 86.6415L56.6623 90.8919H72.5359L77.1321 86.6415H158.597C164.365 86.6415 169.041 81.8737 169.041 75.9922C169.041 75.9888 169.041 75.9872 169.041 75.9872Z" fill="#08A0BF"/>
</g>
</g>
</g>
<path id="Brazo izquierdo arriba" d="M40.016 76.7584C40.336 76.8597 40.5867 77.0304 40.768 77.2704C40.9493 77.5051 41.04 77.7957 41.04 78.1424C41.04 78.6331 40.848 79.0117 40.464 79.2784C40.0853 79.5397 39.5307 79.6704 38.8 79.6704H35.904V74.0704H38.64C39.3227 74.0704 39.8453 74.2011 40.208 74.4624C40.576 74.7237 40.76 75.0784 40.76 75.5264C40.76 75.7984 40.6933 76.0411 40.56 76.2544C40.432 76.4677 40.2507 76.6357 40.016 76.7584ZM37.192 75.0464V76.3664H38.48C38.8 76.3664 39.0427 76.3104 39.208 76.1984C39.3733 76.0864 39.456 75.9211 39.456 75.7024C39.456 75.4837 39.3733 75.3211 39.208 75.2144C39.0427 75.1024 38.8 75.0464 38.48 75.0464H37.192ZM38.704 78.6944C39.0453 78.6944 39.3013 78.6384 39.472 78.5264C39.648 78.4144 39.736 78.2411 39.736 78.0064C39.736 77.5424 39.392 77.3104 38.704 77.3104H37.192V78.6944H38.704ZM43.1252 75.9344C43.2745 75.7264 43.4745 75.5691 43.7252 75.4624C43.9812 75.3557 44.2745 75.3024 44.6052 75.3024V76.4544C44.4665 76.4437 44.3732 76.4384 44.3252 76.4384C43.9678 76.4384 43.6878 76.5397 43.4852 76.7424C43.2825 76.9397 43.1812 77.2384 43.1812 77.6384V79.6704H41.9332V75.3664H43.1252V75.9344ZM47.0598 75.3024C47.7265 75.3024 48.2385 75.4624 48.5958 75.7824C48.9531 76.0971 49.1318 76.5744 49.1318 77.2144V79.6704H47.9638V79.1344C47.7291 79.5344 47.2918 79.7344 46.6518 79.7344C46.3211 79.7344 46.0331 79.6784 45.7878 79.5664C45.5478 79.4544 45.3638 79.2997 45.2358 79.1024C45.1078 78.9051 45.0438 78.6811 45.0438 78.4304C45.0438 78.0304 45.1931 77.7157 45.4918 77.4864C45.7958 77.2571 46.2625 77.1424 46.8918 77.1424H47.8838C47.8838 76.8704 47.8011 76.6624 47.6358 76.5184C47.4705 76.3691 47.2225 76.2944 46.8918 76.2944C46.6625 76.2944 46.4358 76.3317 46.2118 76.4064C45.9931 76.4757 45.8065 76.5717 45.6518 76.6944L45.2038 75.8224C45.4385 75.6571 45.7185 75.5291 46.0438 75.4384C46.3745 75.3477 46.7131 75.3024 47.0598 75.3024ZM46.9638 78.8944C47.1771 78.8944 47.3665 78.8464 47.5318 78.7504C47.6971 78.6491 47.8145 78.5024 47.8838 78.3104V77.8704H47.0278C46.5158 77.8704 46.2598 78.0384 46.2598 78.3744C46.2598 78.5344 46.3211 78.6624 46.4438 78.7584C46.5718 78.8491 46.7451 78.8944 46.9638 78.8944ZM53.8053 78.7104V79.6704H49.9653V78.9184L52.1573 76.3264H50.0213V75.3664H53.7333V76.1184L51.5413 78.7104H53.8053ZM56.5984 79.7344C56.145 79.7344 55.737 79.6411 55.3744 79.4544C55.017 79.2624 54.737 78.9984 54.5344 78.6624C54.3317 78.3264 54.2304 77.9451 54.2304 77.5184C54.2304 77.0917 54.3317 76.7104 54.5344 76.3744C54.737 76.0384 55.017 75.7771 55.3744 75.5904C55.737 75.3984 56.145 75.3024 56.5984 75.3024C57.0517 75.3024 57.457 75.3984 57.8144 75.5904C58.1717 75.7771 58.4517 76.0384 58.6544 76.3744C58.857 76.7104 58.9584 77.0917 58.9584 77.5184C58.9584 77.9451 58.857 78.3264 58.6544 78.6624C58.4517 78.9984 58.1717 79.2624 57.8144 79.4544C57.457 79.6411 57.0517 79.7344 56.5984 79.7344ZM56.5984 78.7104C56.9184 78.7104 57.1797 78.6037 57.3824 78.3904C57.5904 78.1717 57.6944 77.8811 57.6944 77.5184C57.6944 77.1557 57.5904 76.8677 57.3824 76.6544C57.1797 76.4357 56.9184 76.3264 56.5984 76.3264C56.2784 76.3264 56.0144 76.4357 55.8064 76.6544C55.5984 76.8677 55.4944 77.1557 55.4944 77.5184C55.4944 77.8811 55.5984 78.1717 55.8064 78.3904C56.0144 78.6037 56.2784 78.7104 56.5984 78.7104ZM62.0582 75.3664H63.3062V79.6704H62.0582V75.3664ZM62.6822 74.7664C62.4528 74.7664 62.2662 74.6997 62.1222 74.5664C61.9782 74.4331 61.9062 74.2677 61.9062 74.0704C61.9062 73.8731 61.9782 73.7077 62.1222 73.5744C62.2662 73.4411 62.4528 73.3744 62.6822 73.3744C62.9115 73.3744 63.0982 73.4384 63.2422 73.5664C63.3862 73.6944 63.4582 73.8544 63.4582 74.0464C63.4582 74.2544 63.3862 74.4277 63.2422 74.5664C63.0982 74.6997 62.9115 74.7664 62.6822 74.7664ZM68.0084 78.7104V79.6704H64.1684V78.9184L66.3604 76.3264H64.2244V75.3664H67.9364V76.1184L65.7444 78.7104H68.0084ZM73.1215 75.3664V81.2224H71.8735V79.2144C71.5642 79.5611 71.1348 79.7344 70.5855 79.7344C70.1802 79.7344 69.8122 79.6437 69.4815 79.4624C69.1562 79.2811 68.9002 79.0224 68.7135 78.6864C68.5268 78.3504 68.4335 77.9611 68.4335 77.5184C68.4335 77.0757 68.5268 76.6864 68.7135 76.3504C68.9002 76.0144 69.1562 75.7557 69.4815 75.5744C69.8122 75.3931 70.1802 75.3024 70.5855 75.3024C71.1722 75.3024 71.6202 75.4891 71.9295 75.8624V75.3664H73.1215ZM70.8015 78.7104C71.1162 78.7104 71.3775 78.6037 71.5855 78.3904C71.7935 78.1717 71.8975 77.8811 71.8975 77.5184C71.8975 77.1557 71.7935 76.8677 71.5855 76.6544C71.3775 76.4357 71.1162 76.3264 70.8015 76.3264C70.4815 76.3264 70.2175 76.4357 70.0095 76.6544C69.8015 76.8677 69.6975 77.1557 69.6975 77.5184C69.6975 77.8811 69.8015 78.1717 70.0095 78.3904C70.2175 78.6037 70.4815 78.7104 70.8015 78.7104ZM78.6129 75.3664V79.6704H77.4289V79.1584C77.2636 79.3451 77.0663 79.4891 76.8369 79.5904C76.6076 79.6864 76.3596 79.7344 76.0929 79.7344C75.5276 79.7344 75.0796 79.5717 74.7489 79.2464C74.4183 78.9211 74.2529 78.4384 74.2529 77.7984V75.3664H75.5009V77.6144C75.5009 78.3077 75.7916 78.6544 76.3729 78.6544C76.6716 78.6544 76.9116 78.5584 77.0929 78.3664C77.2743 78.1691 77.3649 77.8784 77.3649 77.4944V75.3664H78.6129ZM79.7691 75.3664H81.0171V79.6704H79.7691V75.3664ZM80.3931 74.7664C80.1638 74.7664 79.9771 74.6997 79.8331 74.5664C79.6891 74.4331 79.6171 74.2677 79.6171 74.0704C79.6171 73.8731 79.6891 73.7077 79.8331 73.5744C79.9771 73.4411 80.1638 73.3744 80.3931 73.3744C80.6224 73.3744 80.8091 73.4384 80.9531 73.5664C81.0971 73.6944 81.1691 73.8544 81.1691 74.0464C81.1691 74.2544 81.0971 74.4277 80.9531 74.5664C80.8091 74.6997 80.6224 74.7664 80.3931 74.7664ZM86.3914 77.5344C86.3914 77.5504 86.3834 77.6624 86.3674 77.8704H83.1114C83.17 78.1371 83.3087 78.3477 83.5274 78.5024C83.746 78.6571 84.018 78.7344 84.3434 78.7344C84.5674 78.7344 84.7647 78.7024 84.9354 78.6384C85.1114 78.5691 85.274 78.4624 85.4234 78.3184L86.0874 79.0384C85.682 79.5024 85.09 79.7344 84.3114 79.7344C83.826 79.7344 83.3967 79.6411 83.0234 79.4544C82.65 79.2624 82.362 78.9984 82.1594 78.6624C81.9567 78.3264 81.8554 77.9451 81.8554 77.5184C81.8554 77.0971 81.954 76.7184 82.1514 76.3824C82.354 76.0411 82.6287 75.7771 82.9754 75.5904C83.3274 75.3984 83.7194 75.3024 84.1514 75.3024C84.5727 75.3024 84.954 75.3931 85.2954 75.5744C85.6367 75.7557 85.9034 76.0171 86.0954 76.3584C86.2927 76.6944 86.3914 77.0864 86.3914 77.5344ZM84.1594 76.2464C83.8767 76.2464 83.6394 76.3264 83.4474 76.4864C83.2554 76.6464 83.138 76.8651 83.0954 77.1424H85.2154C85.1727 76.8704 85.0554 76.6544 84.8634 76.4944C84.6714 76.3291 84.4367 76.2464 84.1594 76.2464ZM88.4142 75.9344C88.5636 75.7264 88.7636 75.5691 89.0142 75.4624C89.2702 75.3557 89.5636 75.3024 89.8942 75.3024V76.4544C89.7556 76.4437 89.6622 76.4384 89.6142 76.4384C89.2569 76.4384 88.9769 76.5397 88.7742 76.7424C88.5716 76.9397 88.4702 77.2384 88.4702 77.6384V79.6704H87.2222V75.3664H88.4142V75.9344ZM94.9812 73.7344V79.6704H93.7892V79.1744C93.4799 79.5477 93.0319 79.7344 92.4452 79.7344C92.0399 79.7344 91.6719 79.6437 91.3412 79.4624C91.0159 79.2811 90.7599 79.0224 90.5732 78.6864C90.3866 78.3504 90.2932 77.9611 90.2932 77.5184C90.2932 77.0757 90.3866 76.6864 90.5732 76.3504C90.7599 76.0144 91.0159 75.7557 91.3412 75.5744C91.6719 75.3931 92.0399 75.3024 92.4452 75.3024C92.9946 75.3024 93.4239 75.4757 93.7332 75.8224V73.7344H94.9812ZM92.6612 78.7104C92.9759 78.7104 93.2372 78.6037 93.4452 78.3904C93.6532 78.1717 93.7572 77.8811 93.7572 77.5184C93.7572 77.1557 93.6532 76.8677 93.4452 76.6544C93.2372 76.4357 92.9759 76.3264 92.6612 76.3264C92.3412 76.3264 92.0772 76.4357 91.8692 76.6544C91.6612 76.8677 91.5572 77.1557 91.5572 77.5184C91.5572 77.8811 91.6612 78.1717 91.8692 78.3904C92.0772 78.6037 92.3412 78.7104 92.6612 78.7104ZM98.1843 79.7344C97.731 79.7344 97.323 79.6411 96.9603 79.4544C96.603 79.2624 96.323 78.9984 96.1203 78.6624C95.9176 78.3264 95.8163 77.9451 95.8163 77.5184C95.8163 77.0917 95.9176 76.7104 96.1203 76.3744C96.323 76.0384 96.603 75.7771 96.9603 75.5904C97.323 75.3984 97.731 75.3024 98.1843 75.3024C98.6376 75.3024 99.043 75.3984 99.4003 75.5904C99.7576 75.7771 100.038 76.0384 100.24 76.3744C100.443 76.7104 100.544 77.0917 100.544 77.5184C100.544 77.9451 100.443 78.3264 100.24 78.6624C100.038 78.9984 99.7576 79.2624 99.4003 79.4544C99.043 79.6411 98.6376 79.7344 98.1843 79.7344ZM98.1843 78.7104C98.5043 78.7104 98.7656 78.6037 98.9683 78.3904C99.1763 78.1717 99.2803 77.8811 99.2803 77.5184C99.2803 77.1557 99.1763 76.8677 98.9683 76.6544C98.7656 76.4357 98.5043 76.3264 98.1843 76.3264C97.8643 76.3264 97.6003 76.4357 97.3923 76.6544C97.1843 76.8677 97.0803 77.1557 97.0803 77.5184C97.0803 77.8811 97.1843 78.1717 97.3923 78.3904C97.6003 78.6037 97.8643 78.7104 98.1843 78.7104ZM105.38 75.3024C106.047 75.3024 106.559 75.4624 106.916 75.7824C107.273 76.0971 107.452 76.5744 107.452 77.2144V79.6704H106.284V79.1344C106.049 79.5344 105.612 79.7344 104.972 79.7344C104.641 79.7344 104.353 79.6784 104.108 79.5664C103.868 79.4544 103.684 79.2997 103.556 79.1024C103.428 78.9051 103.364 78.6811 103.364 78.4304C103.364 78.0304 103.513 77.7157 103.812 77.4864C104.116 77.2571 104.583 77.1424 105.212 77.1424H106.204C106.204 76.8704 106.121 76.6624 105.956 76.5184C105.791 76.3691 105.543 76.2944 105.212 76.2944C104.983 76.2944 104.756 76.3317 104.532 76.4064C104.313 76.4757 104.127 76.5717 103.972 76.6944L103.524 75.8224C103.759 75.6571 104.039 75.5291 104.364 75.4384C104.695 75.3477 105.033 75.3024 105.38 75.3024ZM105.284 78.8944C105.497 78.8944 105.687 78.8464 105.852 78.7504C106.017 78.6491 106.135 78.5024 106.204 78.3104V77.8704H105.348C104.836 77.8704 104.58 78.0384 104.58 78.3744C104.58 78.5344 104.641 78.6624 104.764 78.7584C104.892 78.8491 105.065 78.8944 105.284 78.8944ZM109.774 75.9344C109.923 75.7264 110.123 75.5691 110.374 75.4624C110.63 75.3557 110.923 75.3024 111.254 75.3024V76.4544C111.115 76.4437 111.022 76.4384 110.974 76.4384C110.616 76.4384 110.336 76.5397 110.134 76.7424C109.931 76.9397 109.83 77.2384 109.83 77.6384V79.6704H108.582V75.3664H109.774V75.9344ZM113.188 75.9344C113.337 75.7264 113.537 75.5691 113.788 75.4624C114.044 75.3557 114.337 75.3024 114.668 75.3024V76.4544C114.529 76.4437 114.436 76.4384 114.388 76.4384C114.03 76.4384 113.75 76.5397 113.548 76.7424C113.345 76.9397 113.244 77.2384 113.244 77.6384V79.6704H111.996V75.3664H113.188V75.9344ZM115.41 75.3664H116.658V79.6704H115.41V75.3664ZM116.034 74.7664C115.804 74.7664 115.618 74.6997 115.474 74.5664C115.33 74.4331 115.258 74.2677 115.258 74.0704C115.258 73.8731 115.33 73.7077 115.474 73.5744C115.618 73.4411 115.804 73.3744 116.034 73.3744C116.263 73.3744 116.45 73.4384 116.594 73.5664C116.738 73.6944 116.81 73.8544 116.81 74.0464C116.81 74.2544 116.738 74.4277 116.594 74.5664C116.45 74.6997 116.263 74.7664 116.034 74.7664ZM120.36 75.3024C120.76 75.3024 121.123 75.3957 121.448 75.5824C121.779 75.7637 122.037 76.0224 122.224 76.3584C122.411 76.6891 122.504 77.0757 122.504 77.5184C122.504 77.9611 122.411 78.3504 122.224 78.6864C122.037 79.0171 121.779 79.2757 121.448 79.4624C121.123 79.6437 120.76 79.7344 120.36 79.7344C119.768 79.7344 119.317 79.5477 119.008 79.1744V79.6704H117.816V73.7344H119.064V75.8224C119.379 75.4757 119.811 75.3024 120.36 75.3024ZM120.144 78.7104C120.464 78.7104 120.725 78.6037 120.928 78.3904C121.136 78.1717 121.24 77.8811 121.24 77.5184C121.24 77.1557 121.136 76.8677 120.928 76.6544C120.725 76.4357 120.464 76.3264 120.144 76.3264C119.824 76.3264 119.56 76.4357 119.352 76.6544C119.149 76.8677 119.048 77.1557 119.048 77.5184C119.048 77.8811 119.149 78.1717 119.352 78.3904C119.56 78.6037 119.824 78.7104 120.144 78.7104ZM125.005 75.3024C125.672 75.3024 126.184 75.4624 126.541 75.7824C126.898 76.0971 127.077 76.5744 127.077 77.2144V79.6704H125.909V79.1344C125.674 79.5344 125.237 79.7344 124.597 79.7344C124.266 79.7344 123.978 79.6784 123.733 79.5664C123.493 79.4544 123.309 79.2997 123.181 79.1024C123.053 78.9051 122.989 78.6811 122.989 78.4304C122.989 78.0304 123.138 77.7157 123.437 77.4864C123.741 77.2571 124.208 77.1424 124.837 77.1424H125.829C125.829 76.8704 125.746 76.6624 125.581 76.5184C125.416 76.3691 125.168 76.2944 124.837 76.2944C124.608 76.2944 124.381 76.3317 124.157 76.4064C123.938 76.4757 123.752 76.5717 123.597 76.6944L123.149 75.8224C123.384 75.6571 123.664 75.5291 123.989 75.4384C124.32 75.3477 124.658 75.3024 125.005 75.3024ZM124.909 78.8944C125.122 78.8944 125.312 78.8464 125.477 78.7504C125.642 78.6491 125.76 78.5024 125.829 78.3104V77.8704H124.973C124.461 77.8704 124.205 78.0384 124.205 78.3744C124.205 78.5344 124.266 78.6624 124.389 78.7584C124.517 78.8491 124.69 78.8944 124.909 78.8944Z" fill="#333333"/>
</g>
<g id="Dibujar_3">
<g id="&#195;&#129;tomo_IDE_Bloque3_3">
<g id="&#195;&#129;tomo_IDE_Bloque1_3">
<g id="2_3">
<path id="Vector_21" fill-rule="evenodd" clip-rule="evenodd" d="M168.801 138.647C168.801 135.822 167.701 133.113 165.742 131.116C163.783 129.119 161.127 127.997 158.357 127.997C132.678 127.997 76.8921 128 76.8921 128L72.2991 132.25H56.4223L51.8261 128H37.2042C34.4342 128 31.7777 129.122 29.8191 131.119C27.8604 133.116 26.76 135.825 26.76 138.65C26.76 138.653 26.76 138.656 26.76 138.659C26.76 141.483 27.8604 144.192 29.8191 146.189C31.7777 148.186 34.4342 149.309 37.2042 149.309C44.0833 149.309 51.8261 149.309 51.8261 149.309L56.4223 153.559H72.2959L76.8921 149.309L158.357 149.306C161.127 149.306 163.783 148.184 165.742 146.186C167.701 144.189 168.801 141.48 168.801 138.656C168.801 138.653 168.801 138.65 168.801 138.647Z" fill="#30DCFF"/>
<path id="Vector_22" fill-rule="evenodd" clip-rule="evenodd" d="M168.801 138.65C168.801 135.826 167.701 133.117 165.742 131.12C163.783 129.122 161.127 128 158.357 128C132.678 128 76.8921 128 76.8921 128L72.2991 132.251H56.4223L51.8261 128H37.2042C34.4342 128 31.7777 129.122 29.8191 131.12C27.8604 133.117 26.76 135.826 26.76 138.65C26.76 138.653 26.76 138.655 26.76 138.655H29.2666C29.2666 134.049 32.9282 130.316 37.4449 130.316C43.5352 130.316 50.8003 130.316 50.8003 130.316L55.3965 134.566H73.3405L77.9367 130.316H158.117C162.633 130.316 166.295 134.049 166.295 138.655L168.801 138.655V138.65Z" fill="#93EDFF"/>
<path id="Vector_23" fill-rule="evenodd" clip-rule="evenodd" d="M168.801 138.652H166.294V138.653C166.294 140.863 165.433 142.984 163.9 144.547C162.367 146.11 160.288 146.988 158.12 146.988C134.444 146.988 75.8539 146.988 75.8539 146.988L71.2577 151.239H57.4606L52.8644 146.988H37.4416C32.9267 146.988 29.2666 143.256 29.2666 138.653V138.652H26.76V138.657C26.76 141.481 27.8604 144.19 29.8191 146.187C31.7777 148.184 34.4342 149.306 37.2042 149.306C44.0833 149.306 51.8261 149.306 51.8261 149.306L56.4223 153.557H72.2959L76.8921 149.306H158.357C164.125 149.306 168.801 144.539 168.801 138.657C168.801 138.654 168.801 138.652 168.801 138.652Z" fill="#08A0BF"/>
</g>
</g>
</g>
<path id="Cadera a la derecha" d="M38.344 142.431C37.7733 142.431 37.256 142.309 36.792 142.063C36.3333 141.813 35.9707 141.469 35.704 141.031C35.4427 140.589 35.312 140.09 35.312 139.535C35.312 138.981 35.4427 138.485 35.704 138.047C35.9707 137.605 36.3333 137.261 36.792 137.015C37.256 136.765 37.776 136.639 38.352 136.639C38.8373 136.639 39.2747 136.725 39.664 136.895C40.0587 137.066 40.3893 137.311 40.656 137.631L39.824 138.399C39.4453 137.962 38.976 137.743 38.416 137.743C38.0693 137.743 37.76 137.821 37.488 137.975C37.216 138.125 37.0027 138.335 36.848 138.607C36.6987 138.879 36.624 139.189 36.624 139.535C36.624 139.882 36.6987 140.191 36.848 140.463C37.0027 140.735 37.216 140.949 37.488 141.103C37.76 141.253 38.0693 141.327 38.416 141.327C38.976 141.327 39.4453 141.106 39.824 140.663L40.656 141.431C40.3893 141.757 40.0587 142.005 39.664 142.175C39.2693 142.346 38.8293 142.431 38.344 142.431ZM43.1479 137.967C43.8146 137.967 44.3266 138.127 44.6839 138.447C45.0413 138.762 45.2199 139.239 45.2199 139.879V142.335H44.0519V141.799C43.8173 142.199 43.3799 142.399 42.7399 142.399C42.4093 142.399 42.1213 142.343 41.8759 142.231C41.6359 142.119 41.4519 141.965 41.3239 141.767C41.1959 141.57 41.1319 141.346 41.1319 141.095C41.1319 140.695 41.2813 140.381 41.5799 140.151C41.8839 139.922 42.3506 139.807 42.9799 139.807H43.9719C43.9719 139.535 43.8893 139.327 43.7239 139.183C43.5586 139.034 43.3106 138.959 42.9799 138.959C42.7506 138.959 42.5239 138.997 42.2999 139.071C42.0813 139.141 41.8946 139.237 41.7399 139.359L41.2919 138.487C41.5266 138.322 41.8066 138.194 42.1319 138.103C42.4626 138.013 42.8013 137.967 43.1479 137.967ZM43.0519 141.559C43.2653 141.559 43.4546 141.511 43.6199 141.415C43.7853 141.314 43.9026 141.167 43.9719 140.975V140.535H43.1159C42.6039 140.535 42.3479 140.703 42.3479 141.039C42.3479 141.199 42.4093 141.327 42.5319 141.423C42.6599 141.514 42.8333 141.559 43.0519 141.559ZM50.7803 136.399V142.335H49.5883V141.839C49.279 142.213 48.831 142.399 48.2443 142.399C47.839 142.399 47.471 142.309 47.1403 142.127C46.815 141.946 46.559 141.687 46.3723 141.351C46.1856 141.015 46.0923 140.626 46.0923 140.183C46.0923 139.741 46.1856 139.351 46.3723 139.015C46.559 138.679 46.815 138.421 47.1403 138.239C47.471 138.058 47.839 137.967 48.2443 137.967C48.7936 137.967 49.223 138.141 49.5323 138.487V136.399H50.7803ZM48.4603 141.375C48.775 141.375 49.0363 141.269 49.2443 141.055C49.4523 140.837 49.5563 140.546 49.5563 140.183C49.5563 139.821 49.4523 139.533 49.2443 139.319C49.0363 139.101 48.775 138.991 48.4603 138.991C48.1403 138.991 47.8763 139.101 47.6683 139.319C47.4603 139.533 47.3563 139.821 47.3563 140.183C47.3563 140.546 47.4603 140.837 47.6683 141.055C47.8763 141.269 48.1403 141.375 48.4603 141.375ZM56.1514 140.199C56.1514 140.215 56.1434 140.327 56.1274 140.535H52.8714C52.93 140.802 53.0687 141.013 53.2874 141.167C53.506 141.322 53.778 141.399 54.1034 141.399C54.3274 141.399 54.5247 141.367 54.6954 141.303C54.8714 141.234 55.034 141.127 55.1834 140.983L55.8474 141.703C55.442 142.167 54.85 142.399 54.0714 142.399C53.586 142.399 53.1567 142.306 52.7834 142.119C52.41 141.927 52.122 141.663 51.9194 141.327C51.7167 140.991 51.6154 140.61 51.6154 140.183C51.6154 139.762 51.714 139.383 51.9114 139.047C52.114 138.706 52.3887 138.442 52.7354 138.255C53.0874 138.063 53.4794 137.967 53.9114 137.967C54.3327 137.967 54.714 138.058 55.0554 138.239C55.3967 138.421 55.6634 138.682 55.8554 139.023C56.0527 139.359 56.1514 139.751 56.1514 140.199ZM53.9194 138.911C53.6367 138.911 53.3994 138.991 53.2074 139.151C53.0154 139.311 52.898 139.53 52.8554 139.807H54.9754C54.9327 139.535 54.8154 139.319 54.6234 139.159C54.4314 138.994 54.1967 138.911 53.9194 138.911ZM58.1743 138.599C58.3236 138.391 58.5236 138.234 58.7743 138.127C59.0303 138.021 59.3236 137.967 59.6543 137.967V139.119C59.5156 139.109 59.4223 139.103 59.3743 139.103C59.0169 139.103 58.7369 139.205 58.5343 139.407C58.3316 139.605 58.2303 139.903 58.2303 140.303V142.335H56.9823V138.031H58.1743V138.599ZM62.1089 137.967C62.7755 137.967 63.2875 138.127 63.6449 138.447C64.0022 138.762 64.1809 139.239 64.1809 139.879V142.335H63.0129V141.799C62.7782 142.199 62.3409 142.399 61.7009 142.399C61.3702 142.399 61.0822 142.343 60.8369 142.231C60.5969 142.119 60.4129 141.965 60.2849 141.767C60.1569 141.57 60.0929 141.346 60.0929 141.095C60.0929 140.695 60.2422 140.381 60.5409 140.151C60.8449 139.922 61.3115 139.807 61.9409 139.807H62.9329C62.9329 139.535 62.8502 139.327 62.6849 139.183C62.5195 139.034 62.2715 138.959 61.9409 138.959C61.7115 138.959 61.4849 138.997 61.2609 139.071C61.0422 139.141 60.8555 139.237 60.7009 139.359L60.2529 138.487C60.4875 138.322 60.7675 138.194 61.0929 138.103C61.4235 138.013 61.7622 137.967 62.1089 137.967ZM62.0129 141.559C62.2262 141.559 62.4155 141.511 62.5809 141.415C62.7462 141.314 62.8635 141.167 62.9329 140.975V140.535H62.0769C61.5649 140.535 61.3089 140.703 61.3089 141.039C61.3089 141.199 61.3702 141.327 61.4929 141.423C61.6209 141.514 61.7942 141.559 62.0129 141.559ZM69.312 137.967C69.9787 137.967 70.4907 138.127 70.848 138.447C71.2053 138.762 71.384 139.239 71.384 139.879V142.335H70.216V141.799C69.9813 142.199 69.544 142.399 68.904 142.399C68.5733 142.399 68.2853 142.343 68.04 142.231C67.8 142.119 67.616 141.965 67.488 141.767C67.36 141.57 67.296 141.346 67.296 141.095C67.296 140.695 67.4453 140.381 67.744 140.151C68.048 139.922 68.5147 139.807 69.144 139.807H70.136C70.136 139.535 70.0533 139.327 69.888 139.183C69.7227 139.034 69.4747 138.959 69.144 138.959C68.9147 138.959 68.688 138.997 68.464 139.071C68.2453 139.141 68.0587 139.237 67.904 139.359L67.456 138.487C67.6907 138.322 67.9707 138.194 68.296 138.103C68.6267 138.013 68.9653 137.967 69.312 137.967ZM69.216 141.559C69.4293 141.559 69.6187 141.511 69.784 141.415C69.9493 141.314 70.0667 141.167 70.136 140.975V140.535H69.28C68.768 140.535 68.512 140.703 68.512 141.039C68.512 141.199 68.5733 141.327 68.696 141.423C68.824 141.514 68.9973 141.559 69.216 141.559ZM74.7791 136.399H76.0271V142.335H74.7791V136.399ZM78.9214 137.967C79.588 137.967 80.1 138.127 80.4574 138.447C80.8147 138.762 80.9934 139.239 80.9934 139.879V142.335H79.8254V141.799C79.5907 142.199 79.1534 142.399 78.5134 142.399C78.1827 142.399 77.8947 142.343 77.6494 142.231C77.4094 142.119 77.2254 141.965 77.0974 141.767C76.9694 141.57 76.9054 141.346 76.9054 141.095C76.9054 140.695 77.0547 140.381 77.3534 140.151C77.6574 139.922 78.124 139.807 78.7534 139.807H79.7454C79.7454 139.535 79.6627 139.327 79.4974 139.183C79.332 139.034 79.084 138.959 78.7534 138.959C78.524 138.959 78.2974 138.997 78.0734 139.071C77.8547 139.141 77.668 139.237 77.5134 139.359L77.0654 138.487C77.3 138.322 77.58 138.194 77.9054 138.103C78.236 138.013 78.5747 137.967 78.9214 137.967ZM78.8254 141.559C79.0387 141.559 79.228 141.511 79.3934 141.415C79.5587 141.314 79.676 141.167 79.7454 140.975V140.535H78.8894C78.3774 140.535 78.1214 140.703 78.1214 141.039C78.1214 141.199 78.1827 141.327 78.3054 141.423C78.4334 141.514 78.6067 141.559 78.8254 141.559ZM88.7725 136.399V142.335H87.5805V141.839C87.2712 142.213 86.8232 142.399 86.2365 142.399C85.8312 142.399 85.4632 142.309 85.1325 142.127C84.8072 141.946 84.5512 141.687 84.3645 141.351C84.1778 141.015 84.0845 140.626 84.0845 140.183C84.0845 139.741 84.1778 139.351 84.3645 139.015C84.5512 138.679 84.8072 138.421 85.1325 138.239C85.4632 138.058 85.8312 137.967 86.2365 137.967C86.7858 137.967 87.2152 138.141 87.5245 138.487V136.399H88.7725ZM86.4525 141.375C86.7672 141.375 87.0285 141.269 87.2365 141.055C87.4445 140.837 87.5485 140.546 87.5485 140.183C87.5485 139.821 87.4445 139.533 87.2365 139.319C87.0285 139.101 86.7672 138.991 86.4525 138.991C86.1325 138.991 85.8685 139.101 85.6605 139.319C85.4525 139.533 85.3485 139.821 85.3485 140.183C85.3485 140.546 85.4525 140.837 85.6605 141.055C85.8685 141.269 86.1325 141.375 86.4525 141.375ZM94.1436 140.199C94.1436 140.215 94.1356 140.327 94.1196 140.535H90.8636C90.9222 140.802 91.0609 141.013 91.2796 141.167C91.4982 141.322 91.7702 141.399 92.0956 141.399C92.3196 141.399 92.5169 141.367 92.6876 141.303C92.8636 141.234 93.0262 141.127 93.1756 140.983L93.8396 141.703C93.4342 142.167 92.8422 142.399 92.0636 142.399C91.5782 142.399 91.1489 142.306 90.7756 142.119C90.4022 141.927 90.1142 141.663 89.9116 141.327C89.7089 140.991 89.6076 140.61 89.6076 140.183C89.6076 139.762 89.7062 139.383 89.9036 139.047C90.1062 138.706 90.3809 138.442 90.7276 138.255C91.0796 138.063 91.4716 137.967 91.9036 137.967C92.3249 137.967 92.7062 138.058 93.0476 138.239C93.3889 138.421 93.6556 138.682 93.8476 139.023C94.0449 139.359 94.1436 139.751 94.1436 140.199ZM91.9116 138.911C91.6289 138.911 91.3916 138.991 91.1996 139.151C91.0076 139.311 90.8902 139.53 90.8476 139.807H92.9676C92.9249 139.535 92.8076 139.319 92.6156 139.159C92.4236 138.994 92.1889 138.911 91.9116 138.911ZM96.1664 138.599C96.3158 138.391 96.5158 138.234 96.7664 138.127C97.0224 138.021 97.3158 137.967 97.6464 137.967V139.119C97.5078 139.109 97.4144 139.103 97.3664 139.103C97.0091 139.103 96.7291 139.205 96.5264 139.407C96.3238 139.605 96.2224 139.903 96.2224 140.303V142.335H94.9744V138.031H96.1664V138.599ZM102.565 140.199C102.565 140.215 102.557 140.327 102.541 140.535H99.2854C99.3441 140.802 99.4828 141.013 99.7014 141.167C99.9201 141.322 100.192 141.399 100.517 141.399C100.741 141.399 100.939 141.367 101.109 141.303C101.285 141.234 101.448 141.127 101.597 140.983L102.261 141.703C101.856 142.167 101.264 142.399 100.485 142.399C100 142.399 99.5708 142.306 99.1974 142.119C98.8241 141.927 98.5361 141.663 98.3334 141.327C98.1308 140.991 98.0294 140.61 98.0294 140.183C98.0294 139.762 98.1281 139.383 98.3254 139.047C98.5281 138.706 98.8028 138.442 99.1494 138.255C99.5014 138.063 99.8934 137.967 100.325 137.967C100.747 137.967 101.128 138.058 101.469 138.239C101.811 138.421 102.077 138.682 102.269 139.023C102.467 139.359 102.565 139.751 102.565 140.199ZM100.333 138.911C100.051 138.911 99.8134 138.991 99.6214 139.151C99.4294 139.311 99.3121 139.53 99.2694 139.807H101.389C101.347 139.535 101.229 139.319 101.037 139.159C100.845 138.994 100.611 138.911 100.333 138.911ZM105.476 142.399C105.018 142.399 104.604 142.306 104.236 142.119C103.874 141.927 103.588 141.663 103.38 141.327C103.178 140.991 103.076 140.61 103.076 140.183C103.076 139.757 103.178 139.375 103.38 139.039C103.588 138.703 103.874 138.442 104.236 138.255C104.604 138.063 105.018 137.967 105.476 137.967C105.93 137.967 106.324 138.063 106.66 138.255C107.002 138.442 107.25 138.711 107.404 139.063L106.436 139.583C106.212 139.189 105.89 138.991 105.468 138.991C105.143 138.991 104.874 139.098 104.66 139.311C104.447 139.525 104.34 139.815 104.34 140.183C104.34 140.551 104.447 140.842 104.66 141.055C104.874 141.269 105.143 141.375 105.468 141.375C105.895 141.375 106.218 141.178 106.436 140.783L107.404 141.311C107.25 141.653 107.002 141.919 106.66 142.111C106.324 142.303 105.93 142.399 105.476 142.399ZM110.708 137.967C111.241 137.967 111.67 138.127 111.996 138.447C112.326 138.767 112.492 139.242 112.492 139.871V142.335H111.244V140.063C111.244 139.722 111.169 139.469 111.02 139.303C110.87 139.133 110.654 139.047 110.372 139.047C110.057 139.047 109.806 139.146 109.62 139.343C109.433 139.535 109.34 139.823 109.34 140.207V142.335H108.092V136.399H109.34V138.479C109.505 138.314 109.705 138.189 109.94 138.103C110.174 138.013 110.43 137.967 110.708 137.967ZM115.359 137.967C116.026 137.967 116.538 138.127 116.895 138.447C117.252 138.762 117.431 139.239 117.431 139.879V142.335H116.263V141.799C116.028 142.199 115.591 142.399 114.951 142.399C114.62 142.399 114.332 142.343 114.087 142.231C113.847 142.119 113.663 141.965 113.535 141.767C113.407 141.57 113.343 141.346 113.343 141.095C113.343 140.695 113.492 140.381 113.791 140.151C114.095 139.922 114.562 139.807 115.191 139.807H116.183C116.183 139.535 116.1 139.327 115.935 139.183C115.77 139.034 115.522 138.959 115.191 138.959C114.962 138.959 114.735 138.997 114.511 139.071C114.292 139.141 114.106 139.237 113.951 139.359L113.503 138.487C113.738 138.322 114.018 138.194 114.343 138.103C114.674 138.013 115.012 137.967 115.359 137.967ZM115.263 141.559C115.476 141.559 115.666 141.511 115.831 141.415C115.996 141.314 116.114 141.167 116.183 140.975V140.535H115.327C114.815 140.535 114.559 140.703 114.559 141.039C114.559 141.199 114.62 141.327 114.743 141.423C114.871 141.514 115.044 141.559 115.263 141.559Z" fill="#333333"/>
</g>
<g id="Dibujar_4">
<g id="&#195;&#129;tomo_IDE_Bloque3_4">
<g id="&#195;&#129;tomo_IDE_Bloque1_4">
<g id="2_4">
<path id="Vector_24" fill-rule="evenodd" clip-rule="evenodd" d="M168.801 117.647C168.801 114.822 167.701 112.113 165.742 110.116C163.783 108.119 161.127 106.997 158.357 106.997C132.678 106.997 76.8921 107 76.8921 107L72.2991 111.25H56.4223L51.8261 107H37.2042C34.4342 107 31.7777 108.122 29.8191 110.119C27.8604 112.116 26.76 114.825 26.76 117.65C26.76 117.653 26.76 117.656 26.76 117.659C26.76 120.483 27.8604 123.192 29.8191 125.189C31.7777 127.186 34.4342 128.309 37.2042 128.309C44.0833 128.309 51.8261 128.309 51.8261 128.309L56.4223 132.559H72.2959L76.8921 128.309L158.357 128.306C161.127 128.306 163.783 127.184 165.742 125.186C167.701 123.189 168.801 120.48 168.801 117.656C168.801 117.653 168.801 117.65 168.801 117.647Z" fill="#30DCFF"/>
<path id="Vector_25" fill-rule="evenodd" clip-rule="evenodd" d="M168.801 117.65C168.801 114.826 167.701 112.117 165.742 110.12C163.783 108.122 161.127 107 158.357 107C132.678 107 76.8921 107 76.8921 107L72.2991 111.251H56.4223L51.8261 107H37.2042C34.4342 107 31.7777 108.122 29.8191 110.12C27.8604 112.117 26.76 114.826 26.76 117.65C26.76 117.653 26.76 117.655 26.76 117.655H29.2666C29.2666 113.049 32.9282 109.316 37.4449 109.316C43.5352 109.316 50.8003 109.316 50.8003 109.316L55.3965 113.566H73.3405L77.9367 109.316H158.117C162.633 109.316 166.295 113.049 166.295 117.655L168.801 117.655V117.65Z" fill="#93EDFF"/>
<path id="Vector_26" fill-rule="evenodd" clip-rule="evenodd" d="M168.801 117.652H166.294V117.653C166.294 119.863 165.433 121.984 163.9 123.547C162.367 125.11 160.288 125.988 158.12 125.988C134.444 125.988 75.8539 125.988 75.8539 125.988L71.2577 130.239H57.4606L52.8644 125.988H37.4416C32.9267 125.988 29.2666 122.256 29.2666 117.653V117.652H26.76V117.657C26.76 120.481 27.8604 123.19 29.8191 125.187C31.7777 127.184 34.4342 128.306 37.2042 128.306C44.0833 128.306 51.8261 128.306 51.8261 128.306L56.4223 132.557H72.2959L76.8921 128.306H158.357C164.125 128.306 168.801 123.539 168.801 117.657C168.801 117.654 168.801 117.652 168.801 117.652Z" fill="#08A0BF"/>
</g>
</g>
</g>
<path id="Cadera a la izquierda" d="M38.344 121.431C37.7733 121.431 37.256 121.309 36.792 121.063C36.3333 120.813 35.9707 120.469 35.704 120.031C35.4427 119.589 35.312 119.09 35.312 118.535C35.312 117.981 35.4427 117.485 35.704 117.047C35.9707 116.605 36.3333 116.261 36.792 116.015C37.256 115.765 37.776 115.639 38.352 115.639C38.8373 115.639 39.2747 115.725 39.664 115.895C40.0587 116.066 40.3893 116.311 40.656 116.631L39.824 117.399C39.4453 116.962 38.976 116.743 38.416 116.743C38.0693 116.743 37.76 116.821 37.488 116.975C37.216 117.125 37.0027 117.335 36.848 117.607C36.6987 117.879 36.624 118.189 36.624 118.535C36.624 118.882 36.6987 119.191 36.848 119.463C37.0027 119.735 37.216 119.949 37.488 120.103C37.76 120.253 38.0693 120.327 38.416 120.327C38.976 120.327 39.4453 120.106 39.824 119.663L40.656 120.431C40.3893 120.757 40.0587 121.005 39.664 121.175C39.2693 121.346 38.8293 121.431 38.344 121.431ZM43.1479 116.967C43.8146 116.967 44.3266 117.127 44.6839 117.447C45.0413 117.762 45.2199 118.239 45.2199 118.879V121.335H44.0519V120.799C43.8173 121.199 43.3799 121.399 42.7399 121.399C42.4093 121.399 42.1213 121.343 41.8759 121.231C41.6359 121.119 41.4519 120.965 41.3239 120.767C41.1959 120.57 41.1319 120.346 41.1319 120.095C41.1319 119.695 41.2813 119.381 41.5799 119.151C41.8839 118.922 42.3506 118.807 42.9799 118.807H43.9719C43.9719 118.535 43.8893 118.327 43.7239 118.183C43.5586 118.034 43.3106 117.959 42.9799 117.959C42.7506 117.959 42.5239 117.997 42.2999 118.071C42.0813 118.141 41.8946 118.237 41.7399 118.359L41.2919 117.487C41.5266 117.322 41.8066 117.194 42.1319 117.103C42.4626 117.013 42.8013 116.967 43.1479 116.967ZM43.0519 120.559C43.2653 120.559 43.4546 120.511 43.6199 120.415C43.7853 120.314 43.9026 120.167 43.9719 119.975V119.535H43.1159C42.6039 119.535 42.3479 119.703 42.3479 120.039C42.3479 120.199 42.4093 120.327 42.5319 120.423C42.6599 120.514 42.8333 120.559 43.0519 120.559ZM50.7803 115.399V121.335H49.5883V120.839C49.279 121.213 48.831 121.399 48.2443 121.399C47.839 121.399 47.471 121.309 47.1403 121.127C46.815 120.946 46.559 120.687 46.3723 120.351C46.1856 120.015 46.0923 119.626 46.0923 119.183C46.0923 118.741 46.1856 118.351 46.3723 118.015C46.559 117.679 46.815 117.421 47.1403 117.239C47.471 117.058 47.839 116.967 48.2443 116.967C48.7936 116.967 49.223 117.141 49.5323 117.487V115.399H50.7803ZM48.4603 120.375C48.775 120.375 49.0363 120.269 49.2443 120.055C49.4523 119.837 49.5563 119.546 49.5563 119.183C49.5563 118.821 49.4523 118.533 49.2443 118.319C49.0363 118.101 48.775 117.991 48.4603 117.991C48.1403 117.991 47.8763 118.101 47.6683 118.319C47.4603 118.533 47.3563 118.821 47.3563 119.183C47.3563 119.546 47.4603 119.837 47.6683 120.055C47.8763 120.269 48.1403 120.375 48.4603 120.375ZM56.1514 119.199C56.1514 119.215 56.1434 119.327 56.1274 119.535H52.8714C52.93 119.802 53.0687 120.013 53.2874 120.167C53.506 120.322 53.778 120.399 54.1034 120.399C54.3274 120.399 54.5247 120.367 54.6954 120.303C54.8714 120.234 55.034 120.127 55.1834 119.983L55.8474 120.703C55.442 121.167 54.85 121.399 54.0714 121.399C53.586 121.399 53.1567 121.306 52.7834 121.119C52.41 120.927 52.122 120.663 51.9194 120.327C51.7167 119.991 51.6154 119.61 51.6154 119.183C51.6154 118.762 51.714 118.383 51.9114 118.047C52.114 117.706 52.3887 117.442 52.7354 117.255C53.0874 117.063 53.4794 116.967 53.9114 116.967C54.3327 116.967 54.714 117.058 55.0554 117.239C55.3967 117.421 55.6634 117.682 55.8554 118.023C56.0527 118.359 56.1514 118.751 56.1514 119.199ZM53.9194 117.911C53.6367 117.911 53.3994 117.991 53.2074 118.151C53.0154 118.311 52.898 118.53 52.8554 118.807H54.9754C54.9327 118.535 54.8154 118.319 54.6234 118.159C54.4314 117.994 54.1967 117.911 53.9194 117.911ZM58.1743 117.599C58.3236 117.391 58.5236 117.234 58.7743 117.127C59.0303 117.021 59.3236 116.967 59.6543 116.967V118.119C59.5156 118.109 59.4223 118.103 59.3743 118.103C59.0169 118.103 58.7369 118.205 58.5343 118.407C58.3316 118.605 58.2303 118.903 58.2303 119.303V121.335H56.9823V117.031H58.1743V117.599ZM62.1089 116.967C62.7755 116.967 63.2875 117.127 63.6449 117.447C64.0022 117.762 64.1809 118.239 64.1809 118.879V121.335H63.0129V120.799C62.7782 121.199 62.3409 121.399 61.7009 121.399C61.3702 121.399 61.0822 121.343 60.8369 121.231C60.5969 121.119 60.4129 120.965 60.2849 120.767C60.1569 120.57 60.0929 120.346 60.0929 120.095C60.0929 119.695 60.2422 119.381 60.5409 119.151C60.8449 118.922 61.3115 118.807 61.9409 118.807H62.9329C62.9329 118.535 62.8502 118.327 62.6849 118.183C62.5195 118.034 62.2715 117.959 61.9409 117.959C61.7115 117.959 61.4849 117.997 61.2609 118.071C61.0422 118.141 60.8555 118.237 60.7009 118.359L60.2529 117.487C60.4875 117.322 60.7675 117.194 61.0929 117.103C61.4235 117.013 61.7622 116.967 62.1089 116.967ZM62.0129 120.559C62.2262 120.559 62.4155 120.511 62.5809 120.415C62.7462 120.314 62.8635 120.167 62.9329 119.975V119.535H62.0769C61.5649 119.535 61.3089 119.703 61.3089 120.039C61.3089 120.199 61.3702 120.327 61.4929 120.423C61.6209 120.514 61.7942 120.559 62.0129 120.559ZM69.312 116.967C69.9787 116.967 70.4907 117.127 70.848 117.447C71.2053 117.762 71.384 118.239 71.384 118.879V121.335H70.216V120.799C69.9813 121.199 69.544 121.399 68.904 121.399C68.5733 121.399 68.2853 121.343 68.04 121.231C67.8 121.119 67.616 120.965 67.488 120.767C67.36 120.57 67.296 120.346 67.296 120.095C67.296 119.695 67.4453 119.381 67.744 119.151C68.048 118.922 68.5147 118.807 69.144 118.807H70.136C70.136 118.535 70.0533 118.327 69.888 118.183C69.7227 118.034 69.4747 117.959 69.144 117.959C68.9147 117.959 68.688 117.997 68.464 118.071C68.2453 118.141 68.0587 118.237 67.904 118.359L67.456 117.487C67.6907 117.322 67.9707 117.194 68.296 117.103C68.6267 117.013 68.9653 116.967 69.312 116.967ZM69.216 120.559C69.4293 120.559 69.6187 120.511 69.784 120.415C69.9493 120.314 70.0667 120.167 70.136 119.975V119.535H69.28C68.768 119.535 68.512 119.703 68.512 120.039C68.512 120.199 68.5733 120.327 68.696 120.423C68.824 120.514 68.9973 120.559 69.216 120.559ZM74.7791 115.399H76.0271V121.335H74.7791V115.399ZM78.9214 116.967C79.588 116.967 80.1 117.127 80.4574 117.447C80.8147 117.762 80.9934 118.239 80.9934 118.879V121.335H79.8254V120.799C79.5907 121.199 79.1534 121.399 78.5134 121.399C78.1827 121.399 77.8947 121.343 77.6494 121.231C77.4094 121.119 77.2254 120.965 77.0974 120.767C76.9694 120.57 76.9054 120.346 76.9054 120.095C76.9054 119.695 77.0547 119.381 77.3534 119.151C77.6574 118.922 78.124 118.807 78.7534 118.807H79.7454C79.7454 118.535 79.6627 118.327 79.4974 118.183C79.332 118.034 79.084 117.959 78.7534 117.959C78.524 117.959 78.2974 117.997 78.0734 118.071C77.8547 118.141 77.668 118.237 77.5134 118.359L77.0654 117.487C77.3 117.322 77.58 117.194 77.9054 117.103C78.236 117.013 78.5747 116.967 78.9214 116.967ZM78.8254 120.559C79.0387 120.559 79.228 120.511 79.3934 120.415C79.5587 120.314 79.676 120.167 79.7454 119.975V119.535H78.8894C78.3774 119.535 78.1214 119.703 78.1214 120.039C78.1214 120.199 78.1827 120.327 78.3054 120.423C78.4334 120.514 78.6067 120.559 78.8254 120.559ZM84.3885 117.031H85.6365V121.335H84.3885V117.031ZM85.0125 116.431C84.7832 116.431 84.5965 116.365 84.4525 116.231C84.3085 116.098 84.2365 115.933 84.2365 115.735C84.2365 115.538 84.3085 115.373 84.4525 115.239C84.5965 115.106 84.7832 115.039 85.0125 115.039C85.2418 115.039 85.4285 115.103 85.5725 115.231C85.7165 115.359 85.7885 115.519 85.7885 115.711C85.7885 115.919 85.7165 116.093 85.5725 116.231C85.4285 116.365 85.2418 116.431 85.0125 116.431ZM90.3388 120.375V121.335H86.4988V120.583L88.6908 117.991H86.5548V117.031H90.2668V117.783L88.0748 120.375H90.3388ZM95.4518 117.031V122.887H94.2038V120.879C93.8945 121.226 93.4651 121.399 92.9158 121.399C92.5105 121.399 92.1425 121.309 91.8118 121.127C91.4865 120.946 91.2305 120.687 91.0438 120.351C90.8571 120.015 90.7638 119.626 90.7638 119.183C90.7638 118.741 90.8571 118.351 91.0438 118.015C91.2305 117.679 91.4865 117.421 91.8118 117.239C92.1425 117.058 92.5105 116.967 92.9158 116.967C93.5025 116.967 93.9505 117.154 94.2598 117.527V117.031H95.4518ZM93.1318 120.375C93.4465 120.375 93.7078 120.269 93.9158 120.055C94.1238 119.837 94.2278 119.546 94.2278 119.183C94.2278 118.821 94.1238 118.533 93.9158 118.319C93.7078 118.101 93.4465 117.991 93.1318 117.991C92.8118 117.991 92.5478 118.101 92.3398 118.319C92.1318 118.533 92.0278 118.821 92.0278 119.183C92.0278 119.546 92.1318 119.837 92.3398 120.055C92.5478 120.269 92.8118 120.375 93.1318 120.375ZM100.943 117.031V121.335H99.7593V120.823C99.5939 121.01 99.3966 121.154 99.1673 121.255C98.9379 121.351 98.6899 121.399 98.4233 121.399C97.8579 121.399 97.4099 121.237 97.0793 120.911C96.7486 120.586 96.5833 120.103 96.5833 119.463V117.031H97.8313V119.279C97.8313 119.973 98.1219 120.319 98.7033 120.319C99.0019 120.319 99.2419 120.223 99.4233 120.031C99.6046 119.834 99.6953 119.543 99.6953 119.159V117.031H100.943ZM102.099 117.031H103.347V121.335H102.099V117.031ZM102.723 116.431C102.494 116.431 102.307 116.365 102.163 116.231C102.019 116.098 101.947 115.933 101.947 115.735C101.947 115.538 102.019 115.373 102.163 115.239C102.307 115.106 102.494 115.039 102.723 115.039C102.953 115.039 103.139 115.103 103.283 115.231C103.427 115.359 103.499 115.519 103.499 115.711C103.499 115.919 103.427 116.093 103.283 116.231C103.139 116.365 102.953 116.431 102.723 116.431ZM108.722 119.199C108.722 119.215 108.714 119.327 108.698 119.535H105.442C105.5 119.802 105.639 120.013 105.858 120.167C106.076 120.322 106.348 120.399 106.674 120.399C106.898 120.399 107.095 120.367 107.266 120.303C107.442 120.234 107.604 120.127 107.754 119.983L108.418 120.703C108.012 121.167 107.42 121.399 106.642 121.399C106.156 121.399 105.727 121.306 105.354 121.119C104.98 120.927 104.692 120.663 104.49 120.327C104.287 119.991 104.186 119.61 104.186 119.183C104.186 118.762 104.284 118.383 104.482 118.047C104.684 117.706 104.959 117.442 105.306 117.255C105.658 117.063 106.05 116.967 106.482 116.967C106.903 116.967 107.284 117.058 107.626 117.239C107.967 117.421 108.234 117.682 108.426 118.023C108.623 118.359 108.722 118.751 108.722 119.199ZM106.49 117.911C106.207 117.911 105.97 117.991 105.778 118.151C105.586 118.311 105.468 118.53 105.426 118.807H107.546C107.503 118.535 107.386 118.319 107.194 118.159C107.002 117.994 106.767 117.911 106.49 117.911ZM110.745 117.599C110.894 117.391 111.094 117.234 111.345 117.127C111.601 117.021 111.894 116.967 112.225 116.967V118.119C112.086 118.109 111.993 118.103 111.945 118.103C111.587 118.103 111.307 118.205 111.105 118.407C110.902 118.605 110.801 118.903 110.801 119.303V121.335H109.553V117.031H110.745V117.599ZM117.312 115.399V121.335H116.12V120.839C115.81 121.213 115.362 121.399 114.776 121.399C114.37 121.399 114.002 121.309 113.672 121.127C113.346 120.946 113.09 120.687 112.904 120.351C112.717 120.015 112.624 119.626 112.624 119.183C112.624 118.741 112.717 118.351 112.904 118.015C113.09 117.679 113.346 117.421 113.672 117.239C114.002 117.058 114.37 116.967 114.776 116.967C115.325 116.967 115.754 117.141 116.064 117.487V115.399H117.312ZM114.992 120.375C115.306 120.375 115.568 120.269 115.776 120.055C115.984 119.837 116.088 119.546 116.088 119.183C116.088 118.821 115.984 118.533 115.776 118.319C115.568 118.101 115.306 117.991 114.992 117.991C114.672 117.991 114.408 118.101 114.2 118.319C113.992 118.533 113.888 118.821 113.888 119.183C113.888 119.546 113.992 119.837 114.2 120.055C114.408 120.269 114.672 120.375 114.992 120.375ZM120.203 116.967C120.869 116.967 121.381 117.127 121.739 117.447C122.096 117.762 122.275 118.239 122.275 118.879V121.335H121.107V120.799C120.872 121.199 120.435 121.399 119.795 121.399C119.464 121.399 119.176 121.343 118.931 121.231C118.691 121.119 118.507 120.965 118.379 120.767C118.251 120.57 118.187 120.346 118.187 120.095C118.187 119.695 118.336 119.381 118.635 119.151C118.939 118.922 119.405 118.807 120.035 118.807H121.027C121.027 118.535 120.944 118.327 120.779 118.183C120.613 118.034 120.365 117.959 120.035 117.959C119.805 117.959 119.579 117.997 119.355 118.071C119.136 118.141 118.949 118.237 118.795 118.359L118.347 117.487C118.581 117.322 118.861 117.194 119.187 117.103C119.517 117.013 119.856 116.967 120.203 116.967ZM120.107 120.559C120.32 120.559 120.509 120.511 120.675 120.415C120.84 120.314 120.957 120.167 121.027 119.975V119.535H120.171C119.659 119.535 119.403 119.703 119.403 120.039C119.403 120.199 119.464 120.327 119.587 120.423C119.715 120.514 119.888 120.559 120.107 120.559Z" fill="#333333"/>
</g>
</g>
<defs>
<filter id="filter0_d_3618:108186" x="0" y="0" width="180" height="184" filterUnits="userSpaceOnUse" color-interpolation-filters="sRGB">
<feFlood flood-opacity="0" result="BackgroundImageFix"/>
<feColorMatrix in="SourceAlpha" type="matrix" values="0 0 0 0 0 0 0 0 0 0 0 0 0 0 0 0 0 0 127 0" result="hardAlpha"/>
<feOffset dy="4"/>
<feColorMatrix type="matrix" values="0 0 0 0 0 0 0 0 0 0 0 0 0 0 0 0 0 0 0.25 0"/>
<feBlend mode="normal" in2="BackgroundImageFix" result="effect1_dropShadow_3618:108186"/>
<feBlend mode="normal" in="SourceGraphic" in2="effect1_dropShadow_3618:108186" result="shape"/>
</filter>
</defs>
</svg>
