<svg width="180" height="183" viewBox="0 0 180 183" fill="none" xmlns="http://www.w3.org/2000/svg">
<g filter="url(#filter0_d_1_12)">
<rect width="180" height="180" rx="12.8571" fill="#F2F2F2"/>
<path fill-rule="evenodd" clip-rule="evenodd" d="M170.357 45C170.357 37.9286 165.857 33.4286 158.786 33.4286C133.661 33.4286 149.172 33.4286 131.143 33.4286C126.174 33.4286 123.933 31.9908 121.179 29.25C115.195 23.6698 100.146 14.7857 67.1318 14.7857C20.5871 14.7857 9.64289 33.4286 9.64289 33.4286C9.64289 33.4286 9.64317 36.4626 9.6433 45C9.6433 51.4286 14.7857 56.5714 21.2143 56.5714C38.2421 56.5714 66.8572 56.5714 66.8572 56.5714L72.6429 61.7143H96.4286L101.571 56.5714C101.571 56.5714 123.448 56.5714 158.786 56.5714C165.857 56.5714 170.357 52.0714 170.357 45C170.357 46.2005 170.357 43.1565 170.357 45Z" fill="#FC79FF"/>
<path fill-rule="evenodd" clip-rule="evenodd" d="M167.143 45C167.143 50.1428 164.571 53.3571 158.786 53.3571L100.286 53.3571L95.1429 58.5H73.9286L68.1429 53.3571C68.1429 53.3571 37.5386 53.3571 21.2143 53.3571C16.0485 53.3571 12.8571 49.5 12.8571 45H9.64282C9.64282 51.4286 14.7857 56.5714 21.2143 56.5714C38.2119 56.5714 66.8571 56.5714 66.8571 56.5714L72.6603 61.7143H96.4286L101.571 56.5714L158.786 56.5714C165.857 56.5714 170.357 52.0714 170.357 45C169.393 45 168.429 44.9999 167.143 45Z" fill="black" fill-opacity="0.25"/>
<path fill-rule="evenodd" clip-rule="evenodd" d="M9.64277 45H12.8571V34.7143C12.8571 34.7143 22.4954 18 67.0408 18C97.291 18 112.858 26.129 119.25 31.5C122.331 34.0908 126.457 36.6121 130.5 36.6429C135.964 36.6429 148.798 36.6429 158.786 36.6429C163.906 36.6429 167.143 40.1786 167.143 44.3571V45H169.714H170.357C170.357 37.9286 165.857 33.4286 158.786 33.4286C133.71 33.4286 148.505 33.4286 130.5 33.4286C126 33.4286 123.537 31.6026 120.995 29.0614C115.03 23.4642 100.01 14.7857 67.0292 14.7857C20.5137 14.7857 9.64277 33.4286 9.64277 33.4286L9.64277 45Z" fill="white" fill-opacity="0.5"/>
<path d="M19.4155 46.3817C18.8448 46.3817 18.3275 46.259 17.8635 46.0137C17.4048 45.763 17.0421 45.419 16.7755 44.9817C16.5141 44.539 16.3835 44.0403 16.3835 43.4857C16.3835 42.931 16.5141 42.435 16.7755 41.9977C17.0421 41.555 17.4048 41.211 17.8635 40.9657C18.3275 40.715 18.8475 40.5897 19.4235 40.5897C19.9088 40.5897 20.3461 40.675 20.7355 40.8457C21.1301 41.0163 21.4608 41.2617 21.7275 41.5817L20.8955 42.3497C20.5168 41.9123 20.0475 41.6937 19.4875 41.6937C19.1408 41.6937 18.8315 41.771 18.5595 41.9257C18.2875 42.075 18.0741 42.2857 17.9195 42.5577C17.7701 42.8297 17.6955 43.139 17.6955 43.4857C17.6955 43.8323 17.7701 44.1417 17.9195 44.4137C18.0741 44.6857 18.2875 44.899 18.5595 45.0537C18.8315 45.203 19.1408 45.2777 19.4875 45.2777C20.0475 45.2777 20.5168 45.0563 20.8955 44.6137L21.7275 45.3817C21.4608 45.707 21.1301 45.955 20.7355 46.1257C20.3408 46.2963 19.9008 46.3817 19.4155 46.3817ZM26.7413 41.9817V46.2857H25.5573V45.7737C25.3919 45.9603 25.1946 46.1043 24.9653 46.2057C24.7359 46.3017 24.4879 46.3497 24.2213 46.3497C23.6559 46.3497 23.2079 46.187 22.8773 45.8617C22.5466 45.5363 22.3813 45.0537 22.3813 44.4137V41.9817H23.6293V44.2297C23.6293 44.923 23.9199 45.2697 24.5013 45.2697C24.7999 45.2697 25.0399 45.1737 25.2213 44.9817C25.4026 44.7843 25.4933 44.4937 25.4933 44.1097V41.9817H26.7413ZM29.6335 41.9177C30.3001 41.9177 30.8121 42.0777 31.1695 42.3977C31.5268 42.7123 31.7055 43.1897 31.7055 43.8297V46.2857H30.5375V45.7497C30.3028 46.1497 29.8655 46.3497 29.2255 46.3497C28.8948 46.3497 28.6068 46.2937 28.3615 46.1817C28.1215 46.0697 27.9375 45.915 27.8095 45.7177C27.6815 45.5203 27.6175 45.2963 27.6175 45.0457C27.6175 44.6457 27.7668 44.331 28.0655 44.1017C28.3695 43.8723 28.8361 43.7577 29.4655 43.7577H30.4575C30.4575 43.4857 30.3748 43.2777 30.2095 43.1337C30.0441 42.9843 29.7961 42.9097 29.4655 42.9097C29.2361 42.9097 29.0095 42.947 28.7855 43.0217C28.5668 43.091 28.3801 43.187 28.2255 43.3097L27.7775 42.4377C28.0121 42.2723 28.2921 42.1443 28.6175 42.0537C28.9481 41.963 29.2868 41.9177 29.6335 41.9177ZM29.5375 45.5097C29.7508 45.5097 29.9401 45.4617 30.1055 45.3657C30.2708 45.2643 30.3881 45.1177 30.4575 44.9257V44.4857H29.6015C29.0895 44.4857 28.8335 44.6537 28.8335 44.9897C28.8335 45.1497 28.8948 45.2777 29.0175 45.3737C29.1455 45.4643 29.3188 45.5097 29.5375 45.5097ZM35.451 41.9177C35.9843 41.9177 36.4136 42.0777 36.739 42.3977C37.0696 42.7177 37.235 43.1923 37.235 43.8217V46.2857H35.987V44.0137C35.987 43.6723 35.9123 43.419 35.763 43.2537C35.6136 43.083 35.3976 42.9977 35.115 42.9977C34.8003 42.9977 34.5496 43.0963 34.363 43.2937C34.1763 43.4857 34.083 43.7737 34.083 44.1577V46.2857H32.835V41.9817H34.027V42.4857C34.1923 42.3043 34.3976 42.1657 34.643 42.0697C34.8883 41.9683 35.1576 41.9177 35.451 41.9177ZM42.7971 40.3497V46.2857H41.6051V45.7897C41.2958 46.163 40.8478 46.3497 40.2611 46.3497C39.8558 46.3497 39.4878 46.259 39.1571 46.0777C38.8318 45.8963 38.5758 45.6377 38.3891 45.3017C38.2024 44.9657 38.1091 44.5763 38.1091 44.1337C38.1091 43.691 38.2024 43.3017 38.3891 42.9657C38.5758 42.6297 38.8318 42.371 39.1571 42.1897C39.4878 42.0083 39.8558 41.9177 40.2611 41.9177C40.8104 41.9177 41.2398 42.091 41.5491 42.4377V40.3497H42.7971ZM40.4771 45.3257C40.7918 45.3257 41.0531 45.219 41.2611 45.0057C41.4691 44.787 41.5731 44.4963 41.5731 44.1337C41.5731 43.771 41.4691 43.483 41.2611 43.2697C41.0531 43.051 40.7918 42.9417 40.4771 42.9417C40.1571 42.9417 39.8931 43.051 39.6851 43.2697C39.4771 43.483 39.3731 43.771 39.3731 44.1337C39.3731 44.4963 39.4771 44.787 39.6851 45.0057C39.8931 45.219 40.1571 45.3257 40.4771 45.3257ZM46.0002 46.3497C45.5468 46.3497 45.1388 46.2563 44.7762 46.0697C44.4188 45.8777 44.1388 45.6137 43.9362 45.2777C43.7335 44.9417 43.6322 44.5603 43.6322 44.1337C43.6322 43.707 43.7335 43.3257 43.9362 42.9897C44.1388 42.6537 44.4188 42.3923 44.7762 42.2057C45.1388 42.0137 45.5468 41.9177 46.0002 41.9177C46.4535 41.9177 46.8588 42.0137 47.2162 42.2057C47.5735 42.3923 47.8535 42.6537 48.0562 42.9897C48.2588 43.3257 48.3602 43.707 48.3602 44.1337C48.3602 44.5603 48.2588 44.9417 48.0562 45.2777C47.8535 45.6137 47.5735 45.8777 47.2162 46.0697C46.8588 46.2563 46.4535 46.3497 46.0002 46.3497ZM46.0002 45.3257C46.3202 45.3257 46.5815 45.219 46.7842 45.0057C46.9922 44.787 47.0962 44.4963 47.0962 44.1337C47.0962 43.771 46.9922 43.483 46.7842 43.2697C46.5815 43.051 46.3202 42.9417 46.0002 42.9417C45.6802 42.9417 45.4162 43.051 45.2082 43.2697C45.0002 43.483 44.8962 43.771 44.8962 44.1337C44.8962 44.4963 45.0002 44.787 45.2082 45.0057C45.4162 45.219 45.6802 45.3257 46.0002 45.3257ZM49.6663 43.4777C49.4477 43.4777 49.2637 43.403 49.1143 43.2537C48.965 43.1043 48.8903 42.9177 48.8903 42.6937C48.8903 42.4643 48.965 42.2803 49.1143 42.1417C49.2637 41.9977 49.4477 41.9257 49.6663 41.9257C49.885 41.9257 50.069 41.9977 50.2183 42.1417C50.3677 42.2803 50.4423 42.4643 50.4423 42.6937C50.4423 42.9177 50.3677 43.1043 50.2183 43.2537C50.069 43.403 49.885 43.4777 49.6663 43.4777ZM49.6663 46.3497C49.4477 46.3497 49.2637 46.275 49.1143 46.1257C48.965 45.9763 48.8903 45.7897 48.8903 45.5657C48.8903 45.3363 48.965 45.1523 49.1143 45.0137C49.2637 44.8697 49.4477 44.7977 49.6663 44.7977C49.885 44.7977 50.069 44.8697 50.2183 45.0137C50.3677 45.1523 50.4423 45.3363 50.4423 45.5657C50.4423 45.7897 50.3677 45.9763 50.2183 46.1257C50.069 46.275 49.885 46.3497 49.6663 46.3497ZM56.0977 41.9177C56.4977 41.9177 56.8604 42.011 57.1857 42.1977C57.5164 42.379 57.775 42.6377 57.9617 42.9737C58.1484 43.3043 58.2417 43.691 58.2417 44.1337C58.2417 44.5763 58.1484 44.9657 57.9617 45.3017C57.775 45.6323 57.5164 45.891 57.1857 46.0777C56.8604 46.259 56.4977 46.3497 56.0977 46.3497C55.5484 46.3497 55.1164 46.1763 54.8017 45.8297V47.8377H53.5537V41.9817H54.7457V42.4777C55.055 42.1043 55.5057 41.9177 56.0977 41.9177ZM55.8817 45.3257C56.2017 45.3257 56.463 45.219 56.6657 45.0057C56.8737 44.787 56.9777 44.4963 56.9777 44.1337C56.9777 43.771 56.8737 43.483 56.6657 43.2697C56.463 43.051 56.2017 42.9417 55.8817 42.9417C55.5617 42.9417 55.2977 43.051 55.0897 43.2697C54.887 43.483 54.7857 43.771 54.7857 44.1337C54.7857 44.4963 54.887 44.787 55.0897 45.0057C55.2977 45.219 55.5617 45.3257 55.8817 45.3257ZM60.2692 42.5497C60.4185 42.3417 60.6185 42.1843 60.8692 42.0777C61.1252 41.971 61.4185 41.9177 61.7492 41.9177V43.0697C61.6105 43.059 61.5172 43.0537 61.4692 43.0537C61.1118 43.0537 60.8318 43.155 60.6292 43.3577C60.4265 43.555 60.3252 43.8537 60.3252 44.2537V46.2857H59.0772V41.9817H60.2692V42.5497ZM66.6682 44.1497C66.6682 44.1657 66.6602 44.2777 66.6442 44.4857H63.3882C63.4468 44.7523 63.5855 44.963 63.8042 45.1177C64.0228 45.2723 64.2948 45.3497 64.6202 45.3497C64.8442 45.3497 65.0415 45.3177 65.2122 45.2537C65.3882 45.1843 65.5508 45.0777 65.7002 44.9337L66.3642 45.6537C65.9588 46.1177 65.3668 46.3497 64.5882 46.3497C64.1028 46.3497 63.6735 46.2563 63.3002 46.0697C62.9268 45.8777 62.6388 45.6137 62.4362 45.2777C62.2335 44.9417 62.1322 44.5603 62.1322 44.1337C62.1322 43.7123 62.2308 43.3337 62.4282 42.9977C62.6308 42.6563 62.9055 42.3923 63.2522 42.2057C63.6042 42.0137 63.9962 41.9177 64.4282 41.9177C64.8495 41.9177 65.2308 42.0083 65.5722 42.1897C65.9135 42.371 66.1802 42.6323 66.3722 42.9737C66.5695 43.3097 66.6682 43.7017 66.6682 44.1497ZM64.4362 42.8617C64.1535 42.8617 63.9162 42.9417 63.7242 43.1017C63.5322 43.2617 63.4148 43.4803 63.3722 43.7577H65.4922C65.4495 43.4857 65.3322 43.2697 65.1402 43.1097C64.9482 42.9443 64.7135 42.8617 64.4362 42.8617ZM68.947 46.3497C68.5897 46.3497 68.2404 46.307 67.899 46.2217C67.5577 46.131 67.2857 46.019 67.083 45.8857L67.499 44.9897C67.691 45.1123 67.923 45.2137 68.195 45.2937C68.467 45.3683 68.7337 45.4057 68.995 45.4057C69.523 45.4057 69.787 45.275 69.787 45.0137C69.787 44.891 69.715 44.803 69.571 44.7497C69.427 44.6963 69.2057 44.651 68.907 44.6137C68.555 44.5603 68.2644 44.499 68.035 44.4297C67.8057 44.3603 67.6057 44.2377 67.435 44.0617C67.2697 43.8857 67.187 43.635 67.187 43.3097C67.187 43.0377 67.2644 42.7977 67.419 42.5897C67.579 42.3763 67.8084 42.211 68.107 42.0937C68.411 41.9763 68.7684 41.9177 69.179 41.9177C69.483 41.9177 69.7844 41.9523 70.083 42.0217C70.387 42.0857 70.6377 42.1763 70.835 42.2937L70.419 43.1817C70.0404 42.9683 69.627 42.8617 69.179 42.8617C68.9124 42.8617 68.7124 42.899 68.579 42.9737C68.4457 43.0483 68.379 43.1443 68.379 43.2617C68.379 43.395 68.451 43.4883 68.595 43.5417C68.739 43.595 68.9684 43.6457 69.283 43.6937C69.635 43.7523 69.923 43.8163 70.147 43.8857C70.371 43.9497 70.5657 44.0697 70.731 44.2457C70.8964 44.4217 70.979 44.667 70.979 44.9817C70.979 45.2483 70.899 45.4857 70.739 45.6937C70.579 45.9017 70.3444 46.0643 70.035 46.1817C69.731 46.2937 69.3684 46.3497 68.947 46.3497ZM71.749 41.9817H72.997V46.2857H71.749V41.9817ZM72.373 41.3817C72.1437 41.3817 71.957 41.315 71.813 41.1817C71.669 41.0483 71.597 40.883 71.597 40.6857C71.597 40.4883 71.669 40.323 71.813 40.1897C71.957 40.0563 72.1437 39.9897 72.373 39.9897C72.6024 39.9897 72.789 40.0537 72.933 40.1817C73.077 40.3097 73.149 40.4697 73.149 40.6617C73.149 40.8697 73.077 41.043 72.933 41.1817C72.789 41.315 72.6024 41.3817 72.373 41.3817ZM76.2033 46.3497C75.7499 46.3497 75.3419 46.2563 74.9793 46.0697C74.6219 45.8777 74.3419 45.6137 74.1393 45.2777C73.9366 44.9417 73.8353 44.5603 73.8353 44.1337C73.8353 43.707 73.9366 43.3257 74.1393 42.9897C74.3419 42.6537 74.6219 42.3923 74.9793 42.2057C75.3419 42.0137 75.7499 41.9177 76.2033 41.9177C76.6566 41.9177 77.0619 42.0137 77.4193 42.2057C77.7766 42.3923 78.0566 42.6537 78.2593 42.9897C78.4619 43.3257 78.5633 43.707 78.5633 44.1337C78.5633 44.5603 78.4619 44.9417 78.2593 45.2777C78.0566 45.6137 77.7766 45.8777 77.4193 46.0697C77.0619 46.2563 76.6566 46.3497 76.2033 46.3497ZM76.2033 45.3257C76.5233 45.3257 76.7846 45.219 76.9873 45.0057C77.1953 44.787 77.2993 44.4963 77.2993 44.1337C77.2993 43.771 77.1953 43.483 76.9873 43.2697C76.7846 43.051 76.5233 42.9417 76.2033 42.9417C75.8833 42.9417 75.6193 43.051 75.4113 43.2697C75.2033 43.483 75.0993 43.771 75.0993 44.1337C75.0993 44.4963 75.2033 44.787 75.4113 45.0057C75.6193 45.219 75.8833 45.3257 76.2033 45.3257ZM82.0135 41.9177C82.5468 41.9177 82.9761 42.0777 83.3015 42.3977C83.6321 42.7177 83.7975 43.1923 83.7975 43.8217V46.2857H82.5495V44.0137C82.5495 43.6723 82.4748 43.419 82.3255 43.2537C82.1761 43.083 81.9601 42.9977 81.6775 42.9977C81.3628 42.9977 81.1121 43.0963 80.9255 43.2937C80.7388 43.4857 80.6455 43.7737 80.6455 44.1577V46.2857H79.3975V41.9817H80.5895V42.4857C80.7548 42.3043 80.9601 42.1657 81.2055 42.0697C81.4508 41.9683 81.7201 41.9177 82.0135 41.9177ZM86.6647 41.9177C87.3314 41.9177 87.8434 42.0777 88.2007 42.3977C88.558 42.7123 88.7367 43.1897 88.7367 43.8297V46.2857H87.5687V45.7497C87.334 46.1497 86.8967 46.3497 86.2567 46.3497C85.926 46.3497 85.638 46.2937 85.3927 46.1817C85.1527 46.0697 84.9687 45.915 84.8407 45.7177C84.7127 45.5203 84.6487 45.2963 84.6487 45.0457C84.6487 44.6457 84.798 44.331 85.0967 44.1017C85.4007 43.8723 85.8674 43.7577 86.4967 43.7577H87.4887C87.4887 43.4857 87.406 43.2777 87.2407 43.1337C87.0754 42.9843 86.8274 42.9097 86.4967 42.9097C86.2674 42.9097 86.0407 42.947 85.8167 43.0217C85.598 43.091 85.4114 43.187 85.2567 43.3097L84.8087 42.4377C85.0434 42.2723 85.3234 42.1443 85.6487 42.0537C85.9794 41.963 86.318 41.9177 86.6647 41.9177ZM86.5687 45.5097C86.782 45.5097 86.9714 45.4617 87.1367 45.3657C87.302 45.2643 87.4194 45.1177 87.4887 44.9257V44.4857H86.6327C86.1207 44.4857 85.8647 44.6537 85.8647 44.9897C85.8647 45.1497 85.926 45.2777 86.0487 45.3737C86.1767 45.4643 86.35 45.5097 86.5687 45.5097ZM91.0582 42.5497C91.2075 42.3417 91.4075 42.1843 91.6582 42.0777C91.9142 41.971 92.2075 41.9177 92.5382 41.9177V43.0697C92.3995 43.059 92.3062 43.0537 92.2582 43.0537C91.9009 43.0537 91.6209 43.155 91.4182 43.3577C91.2155 43.555 91.1142 43.8537 91.1142 44.2537V46.2857H89.8662V41.9817H91.0582V42.5497ZM98.1212 41.9177C98.5212 41.9177 98.8838 42.011 99.2092 42.1977C99.5398 42.379 99.7985 42.6377 99.9852 42.9737C100.172 43.3043 100.265 43.691 100.265 44.1337C100.265 44.5763 100.172 44.9657 99.9852 45.3017C99.7985 45.6323 99.5398 45.891 99.2092 46.0777C98.8838 46.259 98.5212 46.3497 98.1212 46.3497C97.5292 46.3497 97.0785 46.163 96.7692 45.7897V46.2857H95.5772V40.3497H96.8252V42.4377C97.1398 42.091 97.5718 41.9177 98.1212 41.9177ZM97.9052 45.3257C98.2252 45.3257 98.4865 45.219 98.6892 45.0057C98.8972 44.787 99.0012 44.4963 99.0012 44.1337C99.0012 43.771 98.8972 43.483 98.6892 43.2697C98.4865 43.051 98.2252 42.9417 97.9052 42.9417C97.5852 42.9417 97.3212 43.051 97.1132 43.2697C96.9105 43.483 96.8092 43.771 96.8092 44.1337C96.8092 44.4963 96.9105 44.787 97.1132 45.0057C97.3212 45.219 97.5852 45.3257 97.9052 45.3257ZM103.149 46.3497C102.695 46.3497 102.287 46.2563 101.925 46.0697C101.567 45.8777 101.287 45.6137 101.085 45.2777C100.882 44.9417 100.781 44.5603 100.781 44.1337C100.781 43.707 100.882 43.3257 101.085 42.9897C101.287 42.6537 101.567 42.3923 101.925 42.2057C102.287 42.0137 102.695 41.9177 103.149 41.9177C103.602 41.9177 104.007 42.0137 104.365 42.2057C104.722 42.3923 105.002 42.6537 105.205 42.9897C105.407 43.3257 105.509 43.707 105.509 44.1337C105.509 44.5603 105.407 44.9417 105.205 45.2777C105.002 45.6137 104.722 45.8777 104.365 46.0697C104.007 46.2563 103.602 46.3497 103.149 46.3497ZM103.149 45.3257C103.469 45.3257 103.73 45.219 103.933 45.0057C104.141 44.787 104.245 44.4963 104.245 44.1337C104.245 43.771 104.141 43.483 103.933 43.2697C103.73 43.051 103.469 42.9417 103.149 42.9417C102.829 42.9417 102.565 43.051 102.357 43.2697C102.149 43.483 102.045 43.771 102.045 44.1337C102.045 44.4963 102.149 44.787 102.357 45.0057C102.565 45.219 102.829 45.3257 103.149 45.3257ZM109.119 46.0777C108.996 46.1683 108.844 46.2377 108.663 46.2857C108.487 46.3283 108.3 46.3497 108.103 46.3497C107.591 46.3497 107.193 46.219 106.911 45.9577C106.633 45.6963 106.495 45.3123 106.495 44.8057V43.0377H105.831V42.0777H106.495V41.0297H107.743V42.0777H108.815V43.0377H107.743V44.7897C107.743 44.971 107.788 45.1123 107.879 45.2137C107.975 45.3097 108.108 45.3577 108.279 45.3577C108.476 45.3577 108.644 45.3043 108.783 45.1977L109.119 46.0777ZM111.735 46.3497C111.281 46.3497 110.873 46.2563 110.511 46.0697C110.153 45.8777 109.873 45.6137 109.671 45.2777C109.468 44.9417 109.367 44.5603 109.367 44.1337C109.367 43.707 109.468 43.3257 109.671 42.9897C109.873 42.6537 110.153 42.3923 110.511 42.2057C110.873 42.0137 111.281 41.9177 111.735 41.9177C112.188 41.9177 112.593 42.0137 112.951 42.2057C113.308 42.3923 113.588 42.6537 113.791 42.9897C113.993 43.3257 114.095 43.707 114.095 44.1337C114.095 44.5603 113.993 44.9417 113.791 45.2777C113.588 45.6137 113.308 45.8777 112.951 46.0697C112.593 46.2563 112.188 46.3497 111.735 46.3497ZM111.735 45.3257C112.055 45.3257 112.316 45.219 112.519 45.0057C112.727 44.787 112.831 44.4963 112.831 44.1337C112.831 43.771 112.727 43.483 112.519 43.2697C112.316 43.051 112.055 42.9417 111.735 42.9417C111.415 42.9417 111.151 43.051 110.943 43.2697C110.735 43.483 110.631 43.771 110.631 44.1337C110.631 44.4963 110.735 44.787 110.943 45.0057C111.151 45.219 111.415 45.3257 111.735 45.3257ZM112.071 40.2777H113.415L111.967 41.4297H110.991L112.071 40.2777ZM117.545 41.9177C118.078 41.9177 118.507 42.0777 118.833 42.3977C119.163 42.7177 119.329 43.1923 119.329 43.8217V46.2857H118.081V44.0137C118.081 43.6723 118.006 43.419 117.857 43.2537C117.707 43.083 117.491 42.9977 117.209 42.9977C116.894 42.9977 116.643 43.0963 116.457 43.2937C116.27 43.4857 116.177 43.7737 116.177 44.1577V46.2857H114.929V41.9817H116.121V42.4857C116.286 42.3043 116.491 42.1657 116.737 42.0697C116.982 41.9683 117.251 41.9177 117.545 41.9177ZM122.726 41.9817H123.974V46.2857H122.726V41.9817ZM123.35 41.3817C123.12 41.3817 122.934 41.315 122.79 41.1817C122.646 41.0483 122.574 40.883 122.574 40.6857C122.574 40.4883 122.646 40.323 122.79 40.1897C122.934 40.0563 123.12 39.9897 123.35 39.9897C123.579 39.9897 123.766 40.0537 123.91 40.1817C124.054 40.3097 124.126 40.4697 124.126 40.6617C124.126 40.8697 124.054 41.043 123.91 41.1817C123.766 41.315 123.579 41.3817 123.35 41.3817ZM127.748 41.9177C128.281 41.9177 128.711 42.0777 129.036 42.3977C129.367 42.7177 129.532 43.1923 129.532 43.8217V46.2857H128.284V44.0137C128.284 43.6723 128.209 43.419 128.06 43.2537C127.911 43.083 127.695 42.9977 127.412 42.9977C127.097 42.9977 126.847 43.0963 126.66 43.2937C126.473 43.4857 126.38 43.7737 126.38 44.1577V46.2857H125.132V41.9817H126.324V42.4857C126.489 42.3043 126.695 42.1657 126.94 42.0697C127.185 41.9683 127.455 41.9177 127.748 41.9177ZM130.663 41.9817H131.911V46.2857H130.663V41.9817ZM131.287 41.3817C131.058 41.3817 130.871 41.315 130.727 41.1817C130.583 41.0483 130.511 40.883 130.511 40.6857C130.511 40.4883 130.583 40.323 130.727 40.1897C130.871 40.0563 131.058 39.9897 131.287 39.9897C131.516 39.9897 131.703 40.0537 131.847 40.1817C131.991 40.3097 132.063 40.4697 132.063 40.6617C132.063 40.8697 131.991 41.043 131.847 41.1817C131.703 41.315 131.516 41.3817 131.287 41.3817ZM135.149 46.3497C134.691 46.3497 134.277 46.2563 133.909 46.0697C133.547 45.8777 133.261 45.6137 133.053 45.2777C132.851 44.9417 132.749 44.5603 132.749 44.1337C132.749 43.707 132.851 43.3257 133.053 42.9897C133.261 42.6537 133.547 42.3923 133.909 42.2057C134.277 42.0137 134.691 41.9177 135.149 41.9177C135.603 41.9177 135.997 42.0137 136.333 42.2057C136.675 42.3923 136.923 42.6617 137.077 43.0137L136.109 43.5337C135.885 43.139 135.563 42.9417 135.141 42.9417C134.816 42.9417 134.547 43.0483 134.333 43.2617C134.12 43.475 134.013 43.7657 134.013 44.1337C134.013 44.5017 134.12 44.7923 134.333 45.0057C134.547 45.219 134.816 45.3257 135.141 45.3257C135.568 45.3257 135.891 45.1283 136.109 44.7337L137.077 45.2617C136.923 45.603 136.675 45.8697 136.333 46.0617C135.997 46.2537 135.603 46.3497 135.149 46.3497ZM137.796 41.9817H139.044V46.2857H137.796V41.9817ZM138.42 41.3817C138.191 41.3817 138.004 41.315 137.86 41.1817C137.716 41.0483 137.644 40.883 137.644 40.6857C137.644 40.4883 137.716 40.323 137.86 40.1897C138.004 40.0563 138.191 39.9897 138.42 39.9897C138.649 39.9897 138.836 40.0537 138.98 40.1817C139.124 40.3097 139.196 40.4697 139.196 40.6617C139.196 40.8697 139.124 41.043 138.98 41.1817C138.836 41.315 138.649 41.3817 138.42 41.3817ZM141.938 41.9177C142.605 41.9177 143.117 42.0777 143.474 42.3977C143.831 42.7123 144.01 43.1897 144.01 43.8297V46.2857H142.842V45.7497C142.607 46.1497 142.17 46.3497 141.53 46.3497C141.199 46.3497 140.911 46.2937 140.666 46.1817C140.426 46.0697 140.242 45.915 140.114 45.7177C139.986 45.5203 139.922 45.2963 139.922 45.0457C139.922 44.6457 140.071 44.331 140.37 44.1017C140.674 43.8723 141.141 43.7577 141.77 43.7577H142.762C142.762 43.4857 142.679 43.2777 142.514 43.1337C142.349 42.9843 142.101 42.9097 141.77 42.9097C141.541 42.9097 141.314 42.947 141.09 43.0217C140.871 43.091 140.685 43.187 140.53 43.3097L140.082 42.4377C140.317 42.2723 140.597 42.1443 140.922 42.0537C141.253 41.963 141.591 41.9177 141.938 41.9177ZM141.842 45.5097C142.055 45.5097 142.245 45.4617 142.41 45.3657C142.575 45.2643 142.693 45.1177 142.762 44.9257V44.4857H141.906C141.394 44.4857 141.138 44.6537 141.138 44.9897C141.138 45.1497 141.199 45.2777 141.322 45.3737C141.45 45.4643 141.623 45.5097 141.842 45.5097ZM146.332 42.5497C146.481 42.3417 146.681 42.1843 146.932 42.0777C147.188 41.971 147.481 41.9177 147.812 41.9177V43.0697C147.673 43.059 147.58 43.0537 147.532 43.0537C147.174 43.0537 146.894 43.155 146.692 43.3577C146.489 43.555 146.388 43.8537 146.388 44.2537V46.2857H145.14V41.9817H146.332V42.5497ZM148.979 46.3497C148.76 46.3497 148.576 46.275 148.427 46.1257C148.278 45.9763 148.203 45.7897 148.203 45.5657C148.203 45.3363 148.278 45.1523 148.427 45.0137C148.576 44.8697 148.76 44.7977 148.979 44.7977C149.198 44.7977 149.382 44.8697 149.531 45.0137C149.68 45.1523 149.755 45.3363 149.755 45.5657C149.755 45.7897 149.68 45.9763 149.531 46.1257C149.382 46.275 149.198 46.3497 148.979 46.3497Z" fill="#333333"/>
<path fill-rule="evenodd" clip-rule="evenodd" d="M170.357 69.419C170.357 62.3571 164.571 56.5667 157.5 56.5667C117.753 56.5667 101.571 56.5714 101.571 56.5714L96.4285 61.7143H72.6428L66.8571 56.5713H44.4515C37.3801 56.5713 31.5944 62.3572 31.5944 69.4237C31.5944 69.4284 31.5944 69.4332 31.5944 69.4381C31.5944 76.5 37.3801 82.2857 44.4515 82.2857C55.0992 82.2857 66.8572 82.2857 66.8572 82.2857L72.6429 87.4286H96.4286L101.571 82.2857H157.594C164.571 82.2857 170.357 76.5 170.357 69.4334C170.357 69.4286 170.357 69.75 170.357 69.419Z" fill="#30DCFF"/>
<path fill-rule="evenodd" clip-rule="evenodd" d="M170.357 69.4214C170.357 62.3571 164.571 56.5714 157.406 56.5714C117.659 56.5714 101.571 56.5715 101.571 56.5715L96.4286 61.7143H72.6429L66.8571 56.5715H44.3571C37.2857 56.5715 31.5 62.3572 31.5 69.4214C31.5 69.4261 31.5 69.4286 31.5 69.4286H34.7143C34.7143 63 39.2143 59.7858 44.3571 59.7858C53.784 59.7858 65.5714 59.7857 65.5714 59.7857L71.3571 64.9286H97.7143L102.857 59.7857H157.5C163.286 59.7857 167.143 63.6429 167.143 69.4284L170.357 69.4286V69.4214Z" fill="white" fill-opacity="0.5"/>
<path fill-rule="evenodd" clip-rule="evenodd" d="M170.357 69.4285L167.143 69.4285C167.143 75.1957 163.412 79.0714 157.5 79.0714C120.854 79.0714 100.286 79.0714 100.286 79.0714L95.1429 84.2143H73.9286L68.1429 79.0714H44.3571C37.6047 79.0714 34.7143 75.2143 34.7143 69.4295L31.5 69.4285V69.4358C31.5 76.5 37.2857 82.2857 44.3571 82.2857C55.0048 82.2857 66.8571 82.2857 66.8571 82.2857L72.6429 87.4285H96.4286L101.571 82.2857H157.5C164.571 82.2857 170.357 76.5 170.357 69.4285Z" fill="black" fill-opacity="0.25"/>
<path d="M37.8566 74.5714L40.3526 68.9714H41.6326L44.1366 74.5714H42.7766L40.7286 69.6274H41.2406L39.1846 74.5714H37.8566ZM39.1046 73.3714L39.4486 72.3874H42.3286L42.6806 73.3714H39.1046ZM46.0385 74.6354C45.6705 74.6354 45.3158 74.5928 44.9745 74.5074C44.6385 74.4168 44.3718 74.3048 44.1745 74.1714L44.5905 73.2754C44.7878 73.3981 45.0198 73.4994 45.2865 73.5794C45.5585 73.6541 45.8252 73.6914 46.0865 73.6914C46.3745 73.6914 46.5772 73.6568 46.6945 73.5874C46.8172 73.5181 46.8785 73.4221 46.8785 73.2994C46.8785 73.1981 46.8305 73.1234 46.7345 73.0754C46.6438 73.0221 46.5212 72.9821 46.3665 72.9554C46.2118 72.9288 46.0412 72.9021 45.8545 72.8754C45.6732 72.8488 45.4892 72.8141 45.3025 72.7714C45.1158 72.7234 44.9452 72.6541 44.7905 72.5634C44.6358 72.4728 44.5105 72.3501 44.4145 72.1954C44.3238 72.0408 44.2785 71.8408 44.2785 71.5954C44.2785 71.3234 44.3558 71.0834 44.5105 70.8754C44.6705 70.6674 44.8998 70.5048 45.1985 70.3874C45.4972 70.2648 45.8545 70.2034 46.2705 70.2034C46.5638 70.2034 46.8625 70.2354 47.1665 70.2994C47.4705 70.3634 47.7238 70.4568 47.9265 70.5794L47.5105 71.4674C47.3025 71.3448 47.0918 71.2621 46.8785 71.2194C46.6705 71.1714 46.4678 71.1474 46.2705 71.1474C45.9932 71.1474 45.7905 71.1848 45.6625 71.2594C45.5345 71.3341 45.4705 71.4301 45.4705 71.5474C45.4705 71.6541 45.5158 71.7341 45.6065 71.7874C45.7025 71.8408 45.8278 71.8834 45.9825 71.9154C46.1372 71.9474 46.3052 71.9768 46.4865 72.0034C46.6732 72.0248 46.8598 72.0594 47.0465 72.1074C47.2332 72.1554 47.4012 72.2248 47.5505 72.3154C47.7052 72.4008 47.8305 72.5208 47.9265 72.6754C48.0225 72.8248 48.0705 73.0221 48.0705 73.2674C48.0705 73.5341 47.9905 73.7714 47.8305 73.9794C47.6705 74.1821 47.4385 74.3421 47.1345 74.4594C46.8358 74.5768 46.4705 74.6354 46.0385 74.6354ZM48.8405 74.5714V70.2674H50.0885V74.5714H48.8405ZM49.4645 69.6674C49.2352 69.6674 49.0485 69.6008 48.9045 69.4674C48.7605 69.3341 48.6885 69.1688 48.6885 68.9714C48.6885 68.7741 48.7605 68.6088 48.9045 68.4754C49.0485 68.3421 49.2352 68.2754 49.4645 68.2754C49.6938 68.2754 49.8805 68.3394 50.0245 68.4674C50.1685 68.5901 50.2405 68.7501 50.2405 68.9474C50.2405 69.1554 50.1685 69.3288 50.0245 69.4674C49.8858 69.6008 49.6992 69.6674 49.4645 69.6674ZM53.2708 76.1874C52.8654 76.1874 52.4734 76.1368 52.0948 76.0354C51.7214 75.9394 51.4094 75.7928 51.1588 75.5954L51.6548 74.6994C51.8361 74.8488 52.0654 74.9661 52.3428 75.0514C52.6254 75.1421 52.9028 75.1874 53.1748 75.1874C53.6174 75.1874 53.9374 75.0888 54.1348 74.8914C54.3374 74.6941 54.4388 74.4008 54.4388 74.0114V73.3634L54.5188 72.2834L54.5028 71.1954V70.2674H55.6868V73.8514C55.6868 74.6514 55.4788 75.2408 55.0628 75.6194C54.6468 75.9981 54.0494 76.1874 53.2708 76.1874ZM53.0788 74.3634C52.6788 74.3634 52.3161 74.2781 51.9908 74.1074C51.6708 73.9314 51.4121 73.6888 51.2148 73.3794C51.0228 73.0648 50.9268 72.6994 50.9268 72.2834C50.9268 71.8621 51.0228 71.4968 51.2148 71.1874C51.4121 70.8728 51.6708 70.6301 51.9908 70.4594C52.3161 70.2888 52.6788 70.2034 53.0788 70.2034C53.4414 70.2034 53.7614 70.2781 54.0388 70.4274C54.3161 70.5714 54.5321 70.7981 54.6868 71.1074C54.8414 71.4114 54.9188 71.8034 54.9188 72.2834C54.9188 72.7581 54.8414 73.1501 54.6868 73.4594C54.5321 73.7634 54.3161 73.9901 54.0388 74.1394C53.7614 74.2888 53.4414 74.3634 53.0788 74.3634ZM53.3268 73.3394C53.5454 73.3394 53.7401 73.2968 53.9108 73.2114C54.0814 73.1208 54.2148 72.9954 54.3108 72.8354C54.4068 72.6754 54.4548 72.4914 54.4548 72.2834C54.4548 72.0701 54.4068 71.8861 54.3108 71.7314C54.2148 71.5714 54.0814 71.4488 53.9108 71.3634C53.7401 71.2728 53.5454 71.2274 53.3268 71.2274C53.1081 71.2274 52.9134 71.2728 52.7428 71.3634C52.5721 71.4488 52.4361 71.5714 52.3348 71.7314C52.2388 71.8861 52.1908 72.0701 52.1908 72.2834C52.1908 72.4914 52.2388 72.6754 52.3348 72.8354C52.4361 72.9954 52.5721 73.1208 52.7428 73.2114C52.9134 73.2968 53.1081 73.3394 53.3268 73.3394ZM59.4643 70.2034C59.8057 70.2034 60.1097 70.2728 60.3763 70.4114C60.6483 70.5448 60.8617 70.7528 61.0163 71.0354C61.171 71.3128 61.2483 71.6701 61.2483 72.1074V74.5714H60.0003V72.2994C60.0003 71.9528 59.923 71.6968 59.7683 71.5314C59.619 71.3661 59.4057 71.2834 59.1283 71.2834C58.931 71.2834 58.7523 71.3261 58.5923 71.4114C58.4377 71.4914 58.315 71.6168 58.2243 71.7874C58.139 71.9581 58.0963 72.1768 58.0963 72.4434V74.5714H56.8483V70.2674H58.0403V71.4594L57.8163 71.0994C57.971 70.8114 58.1923 70.5901 58.4803 70.4354C58.7683 70.2808 59.0963 70.2034 59.4643 70.2034ZM65.0196 74.5714V73.7314L64.9396 73.5474V72.0434C64.9396 71.7768 64.8569 71.5688 64.6916 71.4194C64.5316 71.2701 64.2836 71.1954 63.9476 71.1954C63.7182 71.1954 63.4916 71.2328 63.2676 71.3074C63.0489 71.3768 62.8622 71.4728 62.7076 71.5954L62.2596 70.7234C62.4942 70.5581 62.7769 70.4301 63.1076 70.3394C63.4382 70.2488 63.7742 70.2034 64.1156 70.2034C64.7716 70.2034 65.2809 70.3581 65.6436 70.6674C66.0062 70.9768 66.1876 71.4594 66.1876 72.1154V74.5714H65.0196ZM63.7076 74.6354C63.3716 74.6354 63.0836 74.5794 62.8436 74.4674C62.6036 74.3501 62.4196 74.1928 62.2916 73.9954C62.1636 73.7981 62.0996 73.5768 62.0996 73.3314C62.0996 73.0754 62.1609 72.8514 62.2836 72.6594C62.4116 72.4674 62.6116 72.3181 62.8836 72.2114C63.1556 72.0994 63.5102 72.0434 63.9476 72.0434H65.0916V72.7714H64.0836C63.7902 72.7714 63.5876 72.8194 63.4756 72.9154C63.3689 73.0114 63.3156 73.1314 63.3156 73.2754C63.3156 73.4354 63.3769 73.5634 63.4996 73.6594C63.6276 73.7501 63.8009 73.7954 64.0196 73.7954C64.2276 73.7954 64.4142 73.7474 64.5796 73.6514C64.7449 73.5501 64.8649 73.4034 64.9396 73.2114L65.1316 73.7874C65.0409 74.0648 64.8756 74.2754 64.6356 74.4194C64.3956 74.5634 64.0862 74.6354 63.7076 74.6354ZM67.3171 74.5714V70.2674H68.5091V71.4834L68.3411 71.1314C68.4691 70.8274 68.6744 70.5981 68.9571 70.4434C69.2397 70.2834 69.5837 70.2034 69.9891 70.2034V71.3554C69.9357 71.3501 69.8877 71.3474 69.8451 71.3474C69.8024 71.3421 69.7571 71.3394 69.7091 71.3394C69.3677 71.3394 69.0904 71.4381 68.8771 71.6354C68.6691 71.8274 68.5651 72.1288 68.5651 72.5394V74.5714H67.3171ZM73.628 74.5714V69.4514L74.188 70.0114H72.508V68.9714H74.924V74.5714H73.628ZM78.2968 74.6674C77.8382 74.6674 77.4275 74.5554 77.0648 74.3314C76.7022 74.1021 76.4168 73.7714 76.2088 73.3394C76.0008 72.9074 75.8968 72.3848 75.8968 71.7714C75.8968 71.1581 76.0008 70.6354 76.2088 70.2034C76.4168 69.7714 76.7022 69.4434 77.0648 69.2194C77.4275 68.9901 77.8382 68.8754 78.2968 68.8754C78.7608 68.8754 79.1715 68.9901 79.5288 69.2194C79.8915 69.4434 80.1768 69.7714 80.3848 70.2034C80.5928 70.6354 80.6968 71.1581 80.6968 71.7714C80.6968 72.3848 80.5928 72.9074 80.3848 73.3394C80.1768 73.7714 79.8915 74.1021 79.5288 74.3314C79.1715 74.5554 78.7608 74.6674 78.2968 74.6674ZM78.2968 73.5714C78.5155 73.5714 78.7048 73.5101 78.8648 73.3874C79.0302 73.2648 79.1582 73.0701 79.2488 72.8034C79.3448 72.5368 79.3928 72.1928 79.3928 71.7714C79.3928 71.3501 79.3448 71.0061 79.2488 70.7394C79.1582 70.4728 79.0302 70.2781 78.8648 70.1554C78.7048 70.0328 78.5155 69.9714 78.2968 69.9714C78.0835 69.9714 77.8942 70.0328 77.7288 70.1554C77.5688 70.2781 77.4408 70.4728 77.3448 70.7394C77.2542 71.0061 77.2088 71.3501 77.2088 71.7714C77.2088 72.1928 77.2542 72.5368 77.3448 72.8034C77.4408 73.0701 77.5688 73.2648 77.7288 73.3874C77.8942 73.5101 78.0835 73.5714 78.2968 73.5714ZM83.7265 74.6674C83.2678 74.6674 82.8572 74.5554 82.4945 74.3314C82.1318 74.1021 81.8465 73.7714 81.6385 73.3394C81.4305 72.9074 81.3265 72.3848 81.3265 71.7714C81.3265 71.1581 81.4305 70.6354 81.6385 70.2034C81.8465 69.7714 82.1318 69.4434 82.4945 69.2194C82.8572 68.9901 83.2678 68.8754 83.7265 68.8754C84.1905 68.8754 84.6012 68.9901 84.9585 69.2194C85.3212 69.4434 85.6065 69.7714 85.8145 70.2034C86.0225 70.6354 86.1265 71.1581 86.1265 71.7714C86.1265 72.3848 86.0225 72.9074 85.8145 73.3394C85.6065 73.7714 85.3212 74.1021 84.9585 74.3314C84.6012 74.5554 84.1905 74.6674 83.7265 74.6674ZM83.7265 73.5714C83.9452 73.5714 84.1345 73.5101 84.2945 73.3874C84.4598 73.2648 84.5878 73.0701 84.6785 72.8034C84.7745 72.5368 84.8225 72.1928 84.8225 71.7714C84.8225 71.3501 84.7745 71.0061 84.6785 70.7394C84.5878 70.4728 84.4598 70.2781 84.2945 70.1554C84.1345 70.0328 83.9452 69.9714 83.7265 69.9714C83.5132 69.9714 83.3238 70.0328 83.1585 70.1554C82.9985 70.2781 82.8705 70.4728 82.7745 70.7394C82.6838 71.0061 82.6385 71.3501 82.6385 71.7714C82.6385 72.1928 82.6838 72.5368 82.7745 72.8034C82.8705 73.0701 82.9985 73.2648 83.1585 73.3874C83.3238 73.5101 83.5132 73.5714 83.7265 73.5714ZM91.9258 74.5714V73.7314L91.8458 73.5474V72.0434C91.8458 71.7768 91.7632 71.5688 91.5978 71.4194C91.4378 71.2701 91.1898 71.1954 90.8538 71.1954C90.6245 71.1954 90.3978 71.2328 90.1738 71.3074C89.9552 71.3768 89.7685 71.4728 89.6138 71.5954L89.1658 70.7234C89.4005 70.5581 89.6832 70.4301 90.0138 70.3394C90.3445 70.2488 90.6805 70.2034 91.0218 70.2034C91.6778 70.2034 92.1872 70.3581 92.5498 70.6674C92.9125 70.9768 93.0938 71.4594 93.0938 72.1154V74.5714H91.9258ZM90.6138 74.6354C90.2778 74.6354 89.9898 74.5794 89.7498 74.4674C89.5098 74.3501 89.3258 74.1928 89.1978 73.9954C89.0698 73.7981 89.0058 73.5768 89.0058 73.3314C89.0058 73.0754 89.0672 72.8514 89.1898 72.6594C89.3178 72.4674 89.5178 72.3181 89.7898 72.2114C90.0618 72.0994 90.4165 72.0434 90.8538 72.0434H91.9978V72.7714H90.9898C90.6965 72.7714 90.4938 72.8194 90.3818 72.9154C90.2752 73.0114 90.2218 73.1314 90.2218 73.2754C90.2218 73.4354 90.2832 73.5634 90.4058 73.6594C90.5338 73.7501 90.7072 73.7954 90.9258 73.7954C91.1338 73.7954 91.3205 73.7474 91.4858 73.6514C91.6512 73.5501 91.7712 73.4034 91.8458 73.2114L92.0378 73.7874C91.9472 74.0648 91.7818 74.2754 91.5418 74.4194C91.3018 74.5634 90.9925 74.6354 90.6138 74.6354ZM95.9369 74.5714L98.3449 71.2514V72.1954L96.0409 68.9714H97.5129L99.1049 71.2194L98.4889 71.2274L100.057 68.9714H101.465L99.1769 72.1394V71.2114L101.601 74.5714H100.105L98.4569 72.1954H99.0489L97.4249 74.5714H95.9369Z" fill="#333333"/>
<path fill-rule="evenodd" clip-rule="evenodd" d="M170.357 95.1333C170.357 88.0714 164.571 82.281 157.5 82.281C117.753 82.281 101.571 82.2857 101.571 82.2857L96.4285 87.4286H72.6428L66.8571 82.2856H44.4515C37.3801 82.2856 31.5944 88.0714 31.5944 95.1379C31.5944 95.1426 31.5944 95.1475 31.5944 95.1524C31.5944 102.214 37.3801 108 44.4515 108C55.0992 108 66.8572 108 66.8572 108L72.6429 113.143H96.4286L101.571 108H157.594C164.571 108 170.357 102.214 170.357 95.1477C170.357 95.1428 170.357 95.4643 170.357 95.1333Z" fill="#30DCFF"/>
<path fill-rule="evenodd" clip-rule="evenodd" d="M170.357 95.1356C170.357 88.0714 164.571 82.2857 157.406 82.2857C117.659 82.2857 101.571 82.2858 101.571 82.2858L96.4286 87.4286H72.6429L66.8571 82.2857H44.3571C37.2857 82.2857 31.5 88.0715 31.5 95.1357C31.5 95.1404 31.5 95.1429 31.5 95.1429H34.7143C34.7143 88.7143 39.2143 85.5 44.3571 85.5C53.784 85.5 65.5714 85.5 65.5714 85.5L71.3571 90.6429H97.7143L102.857 85.5H157.5C163.286 85.5 167.143 89.3571 167.143 95.1427L170.357 95.1429V95.1356Z" fill="white" fill-opacity="0.5"/>
<path fill-rule="evenodd" clip-rule="evenodd" d="M170.357 95.1428L167.143 95.1428C167.143 100.91 163.412 104.786 157.5 104.786C120.854 104.786 100.286 104.786 100.286 104.786L95.1429 109.929H73.9286L68.1429 104.786H44.3571C37.6047 104.786 34.7143 100.929 34.7143 95.1438L31.5 95.1428V95.15C31.5 102.214 37.2857 108 44.3571 108C55.0048 108 66.8571 108 66.8571 108L72.6429 113.143H96.4286L101.571 108H157.5C164.571 108 170.357 102.214 170.357 95.1428Z" fill="black" fill-opacity="0.25"/>
<path d="M38.664 100V94.4H41.208C41.816 94.4 42.352 94.5173 42.816 94.752C43.28 94.9813 43.6427 95.304 43.904 95.72C44.1653 96.136 44.296 96.6293 44.296 97.2C44.296 97.7653 44.1653 98.2587 43.904 98.68C43.6427 99.096 43.28 99.4213 42.816 99.656C42.352 99.8853 41.816 100 41.208 100H38.664ZM39.96 98.936H41.144C41.5173 98.936 41.84 98.8667 42.112 98.728C42.3893 98.584 42.6027 98.3813 42.752 98.12C42.9067 97.8587 42.984 97.552 42.984 97.2C42.984 96.8427 42.9067 96.536 42.752 96.28C42.6027 96.0187 42.3893 95.8187 42.112 95.68C41.84 95.536 41.5173 95.464 41.144 95.464H39.96V98.936ZM45.1854 100V95.696H46.4334V100H45.1854ZM45.8094 95.096C45.58 95.096 45.3934 95.0293 45.2494 94.896C45.1054 94.7627 45.0334 94.5973 45.0334 94.4C45.0334 94.2027 45.1054 94.0373 45.2494 93.904C45.3934 93.7707 45.58 93.704 45.8094 93.704C46.0387 93.704 46.2254 93.768 46.3694 93.896C46.5134 94.0187 46.5854 94.1787 46.5854 94.376C46.5854 94.584 46.5134 94.7573 46.3694 94.896C46.2307 95.0293 46.044 95.096 45.8094 95.096ZM49.0396 100.064C48.6716 100.064 48.317 100.021 47.9756 99.936C47.6396 99.8453 47.373 99.7333 47.1756 99.6L47.5916 98.704C47.789 98.8267 48.021 98.928 48.2876 99.008C48.5596 99.0827 48.8263 99.12 49.0876 99.12C49.3756 99.12 49.5783 99.0853 49.6956 99.016C49.8183 98.9467 49.8796 98.8507 49.8796 98.728C49.8796 98.6267 49.8316 98.552 49.7356 98.504C49.645 98.4507 49.5223 98.4107 49.3676 98.384C49.213 98.3573 49.0423 98.3307 48.8556 98.304C48.6743 98.2773 48.4903 98.2427 48.3036 98.2C48.117 98.152 47.9463 98.0827 47.7916 97.992C47.637 97.9013 47.5116 97.7787 47.4156 97.624C47.325 97.4693 47.2796 97.2693 47.2796 97.024C47.2796 96.752 47.357 96.512 47.5116 96.304C47.6716 96.096 47.901 95.9333 48.1996 95.816C48.4983 95.6933 48.8556 95.632 49.2716 95.632C49.565 95.632 49.8636 95.664 50.1676 95.728C50.4716 95.792 50.725 95.8853 50.9276 96.008L50.5116 96.896C50.3036 96.7733 50.093 96.6907 49.8796 96.648C49.6716 96.6 49.469 96.576 49.2716 96.576C48.9943 96.576 48.7916 96.6133 48.6636 96.688C48.5356 96.7627 48.4716 96.8587 48.4716 96.976C48.4716 97.0827 48.517 97.1627 48.6076 97.216C48.7036 97.2693 48.829 97.312 48.9836 97.344C49.1383 97.376 49.3063 97.4053 49.4876 97.432C49.6743 97.4533 49.861 97.488 50.0476 97.536C50.2343 97.584 50.4023 97.6533 50.5516 97.744C50.7063 97.8293 50.8316 97.9493 50.9276 98.104C51.0236 98.2533 51.0716 98.4507 51.0716 98.696C51.0716 98.9627 50.9916 99.2 50.8316 99.408C50.6716 99.6107 50.4396 99.7707 50.1356 99.888C49.837 100.005 49.4716 100.064 49.0396 100.064ZM57.3536 95.632C57.695 95.632 57.9963 95.7013 58.2576 95.84C58.5243 95.9733 58.7323 96.1813 58.8816 96.464C59.0363 96.7413 59.1136 97.0987 59.1136 97.536V100H57.8656V97.728C57.8656 97.3813 57.7936 97.1253 57.6496 96.96C57.5056 96.7947 57.303 96.712 57.0416 96.712C56.8603 96.712 56.6976 96.7547 56.5536 96.84C56.4096 96.92 56.2976 97.0427 56.2176 97.208C56.1376 97.3733 56.0976 97.584 56.0976 97.84V100H54.8496V97.728C54.8496 97.3813 54.7776 97.1253 54.6336 96.96C54.495 96.7947 54.295 96.712 54.0336 96.712C53.8523 96.712 53.6896 96.7547 53.5456 96.84C53.4016 96.92 53.2896 97.0427 53.2096 97.208C53.1296 97.3733 53.0896 97.584 53.0896 97.84V100H51.8416V95.696H53.0336V96.872L52.8096 96.528C52.959 96.2347 53.1696 96.0133 53.4416 95.864C53.719 95.7093 54.0336 95.632 54.3856 95.632C54.7803 95.632 55.1243 95.7333 55.4176 95.936C55.7163 96.1333 55.9136 96.4373 56.0096 96.848L55.5696 96.728C55.7136 96.392 55.943 96.1253 56.2576 95.928C56.5776 95.7307 56.943 95.632 57.3536 95.632ZM60.2323 100V95.696H61.4803V100H60.2323ZM60.8563 95.096C60.6269 95.096 60.4403 95.0293 60.2963 94.896C60.1523 94.7627 60.0803 94.5973 60.0803 94.4C60.0803 94.2027 60.1523 94.0373 60.2963 93.904C60.4403 93.7707 60.6269 93.704 60.8563 93.704C61.0856 93.704 61.2723 93.768 61.4163 93.896C61.5603 94.0187 61.6323 94.1787 61.6323 94.376C61.6323 94.584 61.5603 94.7573 61.4163 94.896C61.2776 95.0293 61.0909 95.096 60.8563 95.096ZM65.2545 95.632C65.5958 95.632 65.8998 95.7013 66.1665 95.84C66.4385 95.9733 66.6518 96.1813 66.8065 96.464C66.9612 96.7413 67.0385 97.0987 67.0385 97.536V100H65.7905V97.728C65.7905 97.3813 65.7132 97.1253 65.5585 96.96C65.4092 96.7947 65.1958 96.712 64.9185 96.712C64.7212 96.712 64.5425 96.7547 64.3825 96.84C64.2278 96.92 64.1052 97.0453 64.0145 97.216C63.9292 97.3867 63.8865 97.6053 63.8865 97.872V100H62.6385V95.696H63.8305V96.888L63.6065 96.528C63.7612 96.24 63.9825 96.0187 64.2705 95.864C64.5585 95.7093 64.8865 95.632 65.2545 95.632ZM69.9858 100.064C69.6284 100.064 69.3084 99.9947 69.0258 99.856C68.7484 99.7173 68.5324 99.5067 68.3778 99.224C68.2231 98.936 68.1458 98.5707 68.1458 98.128V95.696H69.3938V97.944C69.3938 98.3013 69.4684 98.5653 69.6178 98.736C69.7724 98.9013 69.9884 98.984 70.2658 98.984C70.4578 98.984 70.6284 98.944 70.7778 98.864C70.9271 98.7787 71.0444 98.6507 71.1298 98.48C71.2151 98.304 71.2578 98.0853 71.2578 97.824V95.696H72.5058V100H71.3218V98.816L71.5378 99.16C71.3938 99.4587 71.1804 99.6853 70.8978 99.84C70.6204 99.9893 70.3164 100.064 69.9858 100.064ZM73.6619 100V95.696H74.9099V100H73.6619ZM74.2859 95.096C74.0566 95.096 73.8699 95.0293 73.7259 94.896C73.5819 94.7627 73.5099 94.5973 73.5099 94.4C73.5099 94.2027 73.5819 94.0373 73.7259 93.904C73.8699 93.7707 74.0566 93.704 74.2859 93.704C74.5153 93.704 74.7019 93.768 74.8459 93.896C74.9899 94.0187 75.0619 94.1787 75.0619 94.376C75.0619 94.584 74.9899 94.7573 74.8459 94.896C74.7073 95.0293 74.5206 95.096 74.2859 95.096ZM76.0682 100V95.696H77.2602V96.912L77.0922 96.56C77.2202 96.256 77.4255 96.0267 77.7082 95.872C77.9909 95.712 78.3349 95.632 78.7402 95.632V96.784C78.6869 96.7787 78.6389 96.776 78.5962 96.776C78.5535 96.7707 78.5082 96.768 78.4602 96.768C78.1189 96.768 77.8415 96.8667 77.6282 97.064C77.4202 97.256 77.3162 97.5573 77.3162 97.968V100H76.0682ZM82.3791 100V94.88L82.9391 95.44H81.2591V94.4H83.6751V100H82.3791ZM89.8176 100V99.16L89.7376 98.976V97.472C89.7376 97.2053 89.6549 96.9973 89.4896 96.848C89.3296 96.6987 89.0816 96.624 88.7456 96.624C88.5162 96.624 88.2896 96.6613 88.0656 96.736C87.8469 96.8053 87.6602 96.9013 87.5056 97.024L87.0576 96.152C87.2922 95.9867 87.5749 95.8587 87.9056 95.768C88.2362 95.6773 88.5722 95.632 88.9136 95.632C89.5696 95.632 90.0789 95.7867 90.4416 96.096C90.8042 96.4053 90.9856 96.888 90.9856 97.544V100H89.8176ZM88.5056 100.064C88.1696 100.064 87.8816 100.008 87.6416 99.896C87.4016 99.7787 87.2176 99.6213 87.0896 99.424C86.9616 99.2267 86.8976 99.0053 86.8976 98.76C86.8976 98.504 86.9589 98.28 87.0816 98.088C87.2096 97.896 87.4096 97.7467 87.6816 97.64C87.9536 97.528 88.3082 97.472 88.7456 97.472H89.8896V98.2H88.8816C88.5882 98.2 88.3856 98.248 88.2736 98.344C88.1669 98.44 88.1136 98.56 88.1136 98.704C88.1136 98.864 88.1749 98.992 88.2976 99.088C88.4256 99.1787 88.5989 99.224 88.8176 99.224C89.0256 99.224 89.2122 99.176 89.3776 99.08C89.5429 98.9787 89.6629 98.832 89.7376 98.64L89.9296 99.216C89.8389 99.4933 89.6736 99.704 89.4336 99.848C89.1936 99.992 88.8842 100.064 88.5056 100.064ZM93.8287 100L96.2367 96.68V97.624L93.9327 94.4H95.4047L96.9967 96.648L96.3807 96.656L97.9487 94.4H99.3567L97.0687 97.568V96.64L99.4927 100H97.9967L96.3487 97.624H96.9407L95.3167 100H93.8287Z" fill="#333333"/>
<path fill-rule="evenodd" clip-rule="evenodd" d="M170.357 120.848C170.357 113.786 164.571 107.995 157.5 107.995C117.753 107.995 101.571 108 101.571 108L96.4285 113.143H72.6428L66.8571 108H44.4515C37.3801 108 31.5944 113.786 31.5944 120.852C31.5944 120.857 31.5944 120.862 31.5944 120.867C31.5944 127.929 37.3801 133.714 44.4515 133.714C55.0992 133.714 66.8572 133.714 66.8572 133.714L72.6429 138.857H96.4286L101.571 133.714H157.594C164.571 133.714 170.357 127.929 170.357 120.862C170.357 120.857 170.357 121.179 170.357 120.848Z" fill="#30DCFF"/>
<path fill-rule="evenodd" clip-rule="evenodd" d="M170.357 120.85C170.357 113.786 164.571 108 157.406 108C117.659 108 101.571 108 101.571 108L96.4286 113.143H72.6429L66.8571 108H44.3571C37.2857 108 31.5 113.786 31.5 120.85C31.5 120.855 31.5 120.857 31.5 120.857H34.7143C34.7143 114.429 39.2143 111.214 44.3571 111.214C53.784 111.214 65.5714 111.214 65.5714 111.214L71.3571 116.357H97.7143L102.857 111.214H157.5C163.286 111.214 167.143 115.071 167.143 120.857L170.357 120.857V120.85Z" fill="white" fill-opacity="0.5"/>
<path fill-rule="evenodd" clip-rule="evenodd" d="M170.357 120.857L167.143 120.857C167.143 126.624 163.412 130.5 157.5 130.5C120.854 130.5 100.286 130.5 100.286 130.5L95.1429 135.643H73.9286L68.1429 130.5H44.3571C37.6047 130.5 34.7143 126.643 34.7143 120.858L31.5 120.857V120.864C31.5 127.929 37.2857 133.714 44.3571 133.714C55.0048 133.714 66.8571 133.714 66.8571 133.714L72.6429 138.857H96.4286L101.571 133.714H157.5C164.571 133.714 170.357 127.929 170.357 120.857Z" fill="black" fill-opacity="0.25"/>
<path d="M39.824 126V121.456H38.032V120.4H42.912V121.456H41.12V126H39.824ZM43.4276 126V121.696H44.6196V122.912L44.4516 122.56C44.5796 122.256 44.7849 122.027 45.0676 121.872C45.3502 121.712 45.6942 121.632 46.0996 121.632V122.784C46.0462 122.779 45.9982 122.776 45.9556 122.776C45.9129 122.771 45.8676 122.768 45.8196 122.768C45.4782 122.768 45.2009 122.867 44.9876 123.064C44.7796 123.256 44.6756 123.557 44.6756 123.968V126H43.4276ZM46.8494 126V121.696H48.0974V126H46.8494ZM47.4734 121.096C47.2441 121.096 47.0574 121.029 46.9134 120.896C46.7694 120.763 46.6974 120.597 46.6974 120.4C46.6974 120.203 46.7694 120.037 46.9134 119.904C47.0574 119.771 47.2441 119.704 47.4734 119.704C47.7028 119.704 47.8894 119.768 48.0334 119.896C48.1774 120.019 48.2494 120.179 48.2494 120.376C48.2494 120.584 48.1774 120.757 48.0334 120.896C47.8948 121.029 47.7081 121.096 47.4734 121.096ZM51.7997 126.064C51.437 126.064 51.1197 125.984 50.8477 125.824C50.5757 125.664 50.3624 125.421 50.2077 125.096C50.0584 124.765 49.9837 124.349 49.9837 123.848C49.9837 123.341 50.0557 122.925 50.1997 122.6C50.3437 122.275 50.5517 122.032 50.8237 121.872C51.0957 121.712 51.421 121.632 51.7997 121.632C52.205 121.632 52.5677 121.725 52.8877 121.912C53.213 122.093 53.469 122.349 53.6557 122.68C53.8477 123.011 53.9437 123.4 53.9437 123.848C53.9437 124.301 53.8477 124.693 53.6557 125.024C53.469 125.355 53.213 125.611 52.8877 125.792C52.5677 125.973 52.205 126.064 51.7997 126.064ZM49.2557 127.552V121.696H50.4477V122.576L50.4237 123.856L50.5037 125.128V127.552H49.2557ZM51.5837 125.04C51.7917 125.04 51.9757 124.992 52.1357 124.896C52.301 124.8 52.4317 124.664 52.5277 124.488C52.629 124.307 52.6797 124.093 52.6797 123.848C52.6797 123.597 52.629 123.384 52.5277 123.208C52.4317 123.032 52.301 122.896 52.1357 122.8C51.9757 122.704 51.7917 122.656 51.5837 122.656C51.3757 122.656 51.189 122.704 51.0237 122.8C50.8584 122.896 50.7277 123.032 50.6317 123.208C50.5357 123.384 50.4877 123.597 50.4877 123.848C50.4877 124.093 50.5357 124.307 50.6317 124.488C50.7277 124.664 50.8584 124.8 51.0237 124.896C51.189 124.992 51.3757 125.04 51.5837 125.04ZM54.7791 126V120.064H56.0271V126H54.7791ZM57.1854 126V121.696H58.4334V126H57.1854ZM57.8094 121.096C57.58 121.096 57.3934 121.029 57.2494 120.896C57.1054 120.763 57.0334 120.597 57.0334 120.4C57.0334 120.203 57.1054 120.037 57.2494 119.904C57.3934 119.771 57.58 119.704 57.8094 119.704C58.0387 119.704 58.2254 119.768 58.3694 119.896C58.5134 120.019 58.5854 120.179 58.5854 120.376C58.5854 120.584 58.5134 120.757 58.3694 120.896C58.2307 121.029 58.044 121.096 57.8094 121.096ZM61.6716 126.064C61.2076 126.064 60.7943 125.971 60.4316 125.784C60.069 125.592 59.7836 125.328 59.5756 124.992C59.373 124.656 59.2716 124.275 59.2716 123.848C59.2716 123.416 59.373 123.035 59.5756 122.704C59.7836 122.368 60.069 122.107 60.4316 121.92C60.7943 121.728 61.2076 121.632 61.6716 121.632C62.125 121.632 62.5196 121.728 62.8556 121.92C63.1916 122.107 63.4396 122.376 63.5996 122.728L62.6316 123.248C62.5196 123.045 62.3783 122.896 62.2076 122.8C62.0423 122.704 61.861 122.656 61.6636 122.656C61.4503 122.656 61.2583 122.704 61.0876 122.8C60.917 122.896 60.781 123.032 60.6796 123.208C60.5836 123.384 60.5356 123.597 60.5356 123.848C60.5356 124.099 60.5836 124.312 60.6796 124.488C60.781 124.664 60.917 124.8 61.0876 124.896C61.2583 124.992 61.4503 125.04 61.6636 125.04C61.861 125.04 62.0423 124.995 62.2076 124.904C62.3783 124.808 62.5196 124.656 62.6316 124.448L63.5996 124.976C63.4396 125.323 63.1916 125.592 62.8556 125.784C62.5196 125.971 62.125 126.064 61.6716 126.064ZM66.9582 126V125.16L66.8782 124.976V123.472C66.8782 123.205 66.7955 122.997 66.6302 122.848C66.4702 122.699 66.2222 122.624 65.8862 122.624C65.6569 122.624 65.4302 122.661 65.2062 122.736C64.9875 122.805 64.8009 122.901 64.6462 123.024L64.1982 122.152C64.4329 121.987 64.7155 121.859 65.0462 121.768C65.3769 121.677 65.7129 121.632 66.0542 121.632C66.7102 121.632 67.2195 121.787 67.5822 122.096C67.9449 122.405 68.1262 122.888 68.1262 123.544V126H66.9582ZM65.6462 126.064C65.3102 126.064 65.0222 126.008 64.7822 125.896C64.5422 125.779 64.3582 125.621 64.2302 125.424C64.1022 125.227 64.0382 125.005 64.0382 124.76C64.0382 124.504 64.0995 124.28 64.2222 124.088C64.3502 123.896 64.5502 123.747 64.8222 123.64C65.0942 123.528 65.4489 123.472 65.8862 123.472H67.0302V124.2H66.0222C65.7289 124.2 65.5262 124.248 65.4142 124.344C65.3075 124.44 65.2542 124.56 65.2542 124.704C65.2542 124.864 65.3155 124.992 65.4382 125.088C65.5662 125.179 65.7395 125.224 65.9582 125.224C66.1662 125.224 66.3529 125.176 66.5182 125.08C66.6835 124.979 66.8035 124.832 66.8782 124.64L67.0702 125.216C66.9795 125.493 66.8142 125.704 66.5742 125.848C66.3342 125.992 66.0249 126.064 65.6462 126.064ZM69.2557 126V121.696H70.4477V122.912L70.2797 122.56C70.4077 122.256 70.613 122.027 70.8957 121.872C71.1784 121.712 71.5224 121.632 71.9277 121.632V122.784C71.8744 122.779 71.8264 122.776 71.7837 122.776C71.741 122.771 71.6957 122.768 71.6477 122.768C71.3064 122.768 71.029 122.867 70.8157 123.064C70.6077 123.256 70.5037 123.557 70.5037 123.968V126H69.2557ZM74.4146 126L76.8226 122.68V123.624L74.5186 120.4H75.9906L77.5826 122.648L76.9666 122.656L78.5346 120.4H79.9426L77.6546 123.568V122.64L80.0786 126H78.5826L76.9346 123.624H77.5266L75.9026 126H74.4146Z" fill="#333333"/>
<path fill-rule="evenodd" clip-rule="evenodd" d="M170.357 146.562C170.357 139.5 164.571 133.71 157.5 133.71C117.753 133.71 101.571 133.714 101.571 133.714L96.4285 138.857H72.6428L66.8571 133.714H44.4515C37.3801 133.714 31.5944 139.5 31.5944 146.567C31.5944 146.571 31.5944 146.576 31.5944 146.581C31.5944 153.643 37.3801 159.429 44.4515 159.429C55.0992 159.429 66.8572 159.429 66.8572 159.429L72.6429 164.571H96.4286L101.571 159.429H157.594C164.571 159.429 170.357 153.643 170.357 146.576C170.357 146.571 170.357 146.893 170.357 146.562Z" fill="#30DCFF"/>
<path fill-rule="evenodd" clip-rule="evenodd" d="M170.357 146.564C170.357 139.5 164.571 133.714 157.406 133.714C117.659 133.714 101.571 133.714 101.571 133.714L96.4286 138.857H72.6429L66.8571 133.714H44.3571C37.2857 133.714 31.5 139.5 31.5 146.564C31.5 146.569 31.5 146.571 31.5 146.571H34.7143C34.7143 140.143 39.2143 136.929 44.3571 136.929C53.784 136.929 65.5714 136.929 65.5714 136.929L71.3571 142.071H97.7143L102.857 136.929H157.5C163.286 136.929 167.143 140.786 167.143 146.571L170.357 146.571V146.564Z" fill="white" fill-opacity="0.5"/>
<path fill-rule="evenodd" clip-rule="evenodd" d="M170.357 146.571L167.143 146.571C167.143 152.339 163.412 156.214 157.5 156.214C120.854 156.214 100.286 156.214 100.286 156.214L95.1429 161.357H73.9286L68.1429 156.214H44.3571C37.6047 156.214 34.7143 152.357 34.7143 146.572L31.5 146.571V146.579C31.5 153.643 37.2857 159.429 44.3571 159.429C55.0048 159.429 66.8571 159.429 66.8571 159.429L72.6429 164.571H96.4286L101.571 159.429H157.5C164.571 159.429 170.357 153.643 170.357 146.571Z" fill="black" fill-opacity="0.25"/>
<path d="M40.344 151L37.928 145.4H39.328L41.44 150.36H40.616L42.76 145.4H44.048L41.624 151H40.344ZM46.7473 151V150.16L46.6673 149.976V148.472C46.6673 148.205 46.5846 147.997 46.4193 147.848C46.2593 147.699 46.0113 147.624 45.6753 147.624C45.4459 147.624 45.2193 147.661 44.9953 147.736C44.7766 147.805 44.5899 147.901 44.4353 148.024L43.9873 147.152C44.2219 146.987 44.5046 146.859 44.8353 146.768C45.1659 146.677 45.5019 146.632 45.8433 146.632C46.4993 146.632 47.0086 146.787 47.3713 147.096C47.7339 147.405 47.9153 147.888 47.9153 148.544V151H46.7473ZM45.4353 151.064C45.0993 151.064 44.8113 151.008 44.5713 150.896C44.3313 150.779 44.1473 150.621 44.0193 150.424C43.8913 150.227 43.8273 150.005 43.8273 149.76C43.8273 149.504 43.8886 149.28 44.0113 149.088C44.1393 148.896 44.3393 148.747 44.6113 148.64C44.8833 148.528 45.2379 148.472 45.6753 148.472H46.8193V149.2H45.8113C45.5179 149.2 45.3153 149.248 45.2033 149.344C45.0966 149.44 45.0433 149.56 45.0433 149.704C45.0433 149.864 45.1046 149.992 45.2273 150.088C45.3553 150.179 45.5286 150.224 45.7473 150.224C45.9553 150.224 46.1419 150.176 46.3073 150.08C46.4726 149.979 46.5926 149.832 46.6673 149.64L46.8593 150.216C46.7686 150.493 46.6033 150.704 46.3633 150.848C46.1233 150.992 45.8139 151.064 45.4353 151.064ZM49.0448 151V145.064H50.2928V151H49.0448ZM51.451 151V146.696H52.699V151H51.451ZM52.075 146.096C51.8457 146.096 51.659 146.029 51.515 145.896C51.371 145.763 51.299 145.597 51.299 145.4C51.299 145.203 51.371 145.037 51.515 144.904C51.659 144.771 51.8457 144.704 52.075 144.704C52.3043 144.704 52.491 144.768 52.635 144.896C52.779 145.019 52.851 145.179 52.851 145.376C52.851 145.584 52.779 145.757 52.635 145.896C52.4963 146.029 52.3097 146.096 52.075 146.096ZM55.7053 151.064C55.2999 151.064 54.9346 150.973 54.6093 150.792C54.2839 150.605 54.0253 150.347 53.8333 150.016C53.6466 149.685 53.5533 149.296 53.5533 148.848C53.5533 148.395 53.6466 148.003 53.8333 147.672C54.0253 147.341 54.2839 147.085 54.6093 146.904C54.9346 146.723 55.2999 146.632 55.7053 146.632C56.0679 146.632 56.3853 146.712 56.6573 146.872C56.9293 147.032 57.1399 147.275 57.2893 147.6C57.4386 147.925 57.5133 148.341 57.5133 148.848C57.5133 149.349 57.4413 149.765 57.2973 150.096C57.1533 150.421 56.9453 150.664 56.6733 150.824C56.4066 150.984 56.0839 151.064 55.7053 151.064ZM55.9213 150.04C56.1239 150.04 56.3079 149.992 56.4733 149.896C56.6386 149.8 56.7693 149.664 56.8653 149.488C56.9666 149.307 57.0173 149.093 57.0173 148.848C57.0173 148.597 56.9666 148.384 56.8653 148.208C56.7693 148.032 56.6386 147.896 56.4733 147.8C56.3079 147.704 56.1239 147.656 55.9213 147.656C55.7133 147.656 55.5266 147.704 55.3613 147.8C55.1959 147.896 55.0626 148.032 54.9613 148.208C54.8653 148.384 54.8173 148.597 54.8173 148.848C54.8173 149.093 54.8653 149.307 54.9613 149.488C55.0626 149.664 55.1959 149.8 55.3613 149.896C55.5266 149.992 55.7133 150.04 55.9213 150.04ZM57.0493 151V150.12L57.0733 148.84L56.9933 147.568V145.064H58.2413V151H57.0493ZM62.0363 151V150.16L61.9563 149.976V148.472C61.9563 148.205 61.8736 147.997 61.7083 147.848C61.5483 147.699 61.3003 147.624 60.9643 147.624C60.735 147.624 60.5083 147.661 60.2843 147.736C60.0656 147.805 59.879 147.901 59.7243 148.024L59.2763 147.152C59.511 146.987 59.7936 146.859 60.1243 146.768C60.455 146.677 60.791 146.632 61.1323 146.632C61.7883 146.632 62.2976 146.787 62.6603 147.096C63.023 147.405 63.2043 147.888 63.2043 148.544V151H62.0363ZM60.7243 151.064C60.3883 151.064 60.1003 151.008 59.8603 150.896C59.6203 150.779 59.4363 150.621 59.3083 150.424C59.1803 150.227 59.1163 150.005 59.1163 149.76C59.1163 149.504 59.1776 149.28 59.3003 149.088C59.4283 148.896 59.6283 148.747 59.9003 148.64C60.1723 148.528 60.527 148.472 60.9643 148.472H62.1083V149.2H61.1003C60.807 149.2 60.6043 149.248 60.4923 149.344C60.3856 149.44 60.3323 149.56 60.3323 149.704C60.3323 149.864 60.3936 149.992 60.5163 150.088C60.6443 150.179 60.8176 150.224 61.0363 150.224C61.2443 150.224 61.431 150.176 61.5963 150.08C61.7616 149.979 61.8816 149.832 61.9563 149.64L62.1483 150.216C62.0576 150.493 61.8923 150.704 61.6523 150.848C61.4123 150.992 61.103 151.064 60.7243 151.064ZM64.3338 151V146.696H65.5258V147.912L65.3578 147.56C65.4858 147.256 65.6911 147.027 65.9738 146.872C66.2565 146.712 66.6005 146.632 67.0058 146.632V147.784C66.9525 147.779 66.9045 147.776 66.8618 147.776C66.8191 147.771 66.7738 147.768 66.7258 147.768C66.3845 147.768 66.1071 147.867 65.8938 148.064C65.6858 148.256 65.5818 148.557 65.5818 148.968V151H64.3338ZM69.4928 151L71.9008 147.68V148.624L69.5968 145.4H71.0688L72.6608 147.648L72.0448 147.656L73.6128 145.4H75.0208L72.7328 148.568V147.64L75.1568 151H73.6608L72.0128 148.624H72.6048L70.9808 151H69.4928ZM83.5333 146.632C83.8746 146.632 84.176 146.701 84.4373 146.84C84.704 146.973 84.912 147.181 85.0613 147.464C85.216 147.741 85.2933 148.099 85.2933 148.536V151H84.0453V148.728C84.0453 148.381 83.9733 148.125 83.8293 147.96C83.6853 147.795 83.4826 147.712 83.2213 147.712C83.04 147.712 82.8773 147.755 82.7333 147.84C82.5893 147.92 82.4773 148.043 82.3973 148.208C82.3173 148.373 82.2773 148.584 82.2773 148.84V151H81.0293V148.728C81.0293 148.381 80.9573 148.125 80.8133 147.96C80.6746 147.795 80.4746 147.712 80.2133 147.712C80.032 147.712 79.8693 147.755 79.7253 147.84C79.5813 147.92 79.4693 148.043 79.3893 148.208C79.3093 148.373 79.2693 148.584 79.2693 148.84V151H78.0213V146.696H79.2133V147.872L78.9893 147.528C79.1386 147.235 79.3493 147.013 79.6213 146.864C79.8986 146.709 80.2133 146.632 80.5653 146.632C80.96 146.632 81.304 146.733 81.5973 146.936C81.896 147.133 82.0933 147.437 82.1893 147.848L81.7493 147.728C81.8933 147.392 82.1226 147.125 82.4373 146.928C82.7573 146.731 83.1226 146.632 83.5333 146.632ZM88.5792 151.064C88.0885 151.064 87.6565 150.968 87.2832 150.776C86.9152 150.584 86.6299 150.323 86.4272 149.992C86.2245 149.656 86.1232 149.275 86.1232 148.848C86.1232 148.416 86.2219 148.035 86.4192 147.704C86.6219 147.368 86.8965 147.107 87.2432 146.92C87.5899 146.728 87.9819 146.632 88.4192 146.632C88.8405 146.632 89.2192 146.723 89.5552 146.904C89.8965 147.08 90.1659 147.336 90.3632 147.672C90.5605 148.003 90.6592 148.4 90.6592 148.864C90.6592 148.912 90.6565 148.968 90.6512 149.032C90.6459 149.091 90.6405 149.147 90.6352 149.2H87.1392V148.472H89.9792L89.4992 148.688C89.4992 148.464 89.4539 148.269 89.3632 148.104C89.2725 147.939 89.1472 147.811 88.9872 147.72C88.8272 147.624 88.6405 147.576 88.4272 147.576C88.2139 147.576 88.0245 147.624 87.8592 147.72C87.6992 147.811 87.5739 147.941 87.4832 148.112C87.3925 148.277 87.3472 148.475 87.3472 148.704V148.896C87.3472 149.131 87.3979 149.339 87.4992 149.52C87.6059 149.696 87.7525 149.832 87.9392 149.928C88.1312 150.019 88.3552 150.064 88.6112 150.064C88.8405 150.064 89.0405 150.029 89.2112 149.96C89.3872 149.891 89.5472 149.787 89.6912 149.648L90.3552 150.368C90.1579 150.592 89.9099 150.765 89.6112 150.888C89.3125 151.005 88.9685 151.064 88.5792 151.064ZM94.1061 146.632C94.4474 146.632 94.7514 146.701 95.0181 146.84C95.2901 146.973 95.5034 147.181 95.6581 147.464C95.8127 147.741 95.8901 148.099 95.8901 148.536V151H94.6421V148.728C94.6421 148.381 94.5647 148.125 94.4101 147.96C94.2607 147.795 94.0474 147.712 93.7701 147.712C93.5727 147.712 93.3941 147.755 93.2341 147.84C93.0794 147.92 92.9567 148.045 92.8661 148.216C92.7807 148.387 92.7381 148.605 92.7381 148.872V151H91.4901V146.696H92.6821V147.888L92.4581 147.528C92.6127 147.24 92.8341 147.019 93.1221 146.864C93.4101 146.709 93.7381 146.632 94.1061 146.632ZM99.1006 151.064C98.6419 151.064 98.2339 150.968 97.8766 150.776C97.5246 150.584 97.2446 150.323 97.0366 149.992C96.8339 149.656 96.7326 149.275 96.7326 148.848C96.7326 148.416 96.8339 148.035 97.0366 147.704C97.2446 147.368 97.5246 147.107 97.8766 146.92C98.2339 146.728 98.6419 146.632 99.1006 146.632C99.5539 146.632 99.9592 146.728 100.317 146.92C100.674 147.107 100.954 147.365 101.157 147.696C101.359 148.027 101.461 148.411 101.461 148.848C101.461 149.275 101.359 149.656 101.157 149.992C100.954 150.323 100.674 150.584 100.317 150.776C99.9592 150.968 99.5539 151.064 99.1006 151.064ZM99.1006 150.04C99.3086 150.04 99.4952 149.992 99.6606 149.896C99.8259 149.8 99.9566 149.664 100.053 149.488C100.149 149.307 100.197 149.093 100.197 148.848C100.197 148.597 100.149 148.384 100.053 148.208C99.9566 148.032 99.8259 147.896 99.6606 147.8C99.4952 147.704 99.3086 147.656 99.1006 147.656C98.8926 147.656 98.7059 147.704 98.5406 147.8C98.3752 147.896 98.2419 148.032 98.1406 148.208C98.0446 148.384 97.9966 148.597 97.9966 148.848C97.9966 149.093 98.0446 149.307 98.1406 149.488C98.2419 149.664 98.3752 149.8 98.5406 149.896C98.7059 149.992 98.8926 150.04 99.1006 150.04ZM102.295 151V146.696H103.487V147.912L103.319 147.56C103.447 147.256 103.652 147.027 103.935 146.872C104.217 146.712 104.561 146.632 104.967 146.632V147.784C104.913 147.779 104.865 147.776 104.823 147.776C104.78 147.771 104.735 147.768 104.687 147.768C104.345 147.768 104.068 147.867 103.855 148.064C103.647 148.256 103.543 148.557 103.543 148.968V151H102.295ZM109.838 151.064C109.432 151.064 109.067 150.973 108.742 150.792C108.416 150.611 108.158 150.355 107.966 150.024C107.779 149.693 107.686 149.301 107.686 148.848C107.686 148.4 107.779 148.011 107.966 147.68C108.158 147.349 108.416 147.093 108.742 146.912C109.067 146.725 109.432 146.632 109.838 146.632C110.216 146.632 110.539 146.712 110.806 146.872C111.078 147.032 111.286 147.275 111.43 147.6C111.574 147.925 111.646 148.341 111.646 148.848C111.646 149.349 111.571 149.765 111.422 150.096C111.272 150.421 111.062 150.664 110.79 150.824C110.518 150.984 110.2 151.064 109.838 151.064ZM110.054 150.04C110.256 150.04 110.44 149.992 110.606 149.896C110.771 149.8 110.902 149.664 110.998 149.488C111.099 149.307 111.15 149.093 111.15 148.848C111.15 148.597 111.099 148.384 110.998 148.208C110.902 148.032 110.771 147.896 110.606 147.8C110.44 147.704 110.256 147.656 110.054 147.656C109.846 147.656 109.659 147.704 109.494 147.8C109.328 147.896 109.195 148.032 109.094 148.208C108.998 148.384 108.95 148.597 108.95 148.848C108.95 149.093 108.998 149.307 109.094 149.488C109.195 149.664 109.328 149.8 109.494 149.896C109.659 149.992 109.846 150.04 110.054 150.04ZM111.126 152.552V150.128L111.206 148.856L111.182 147.576V146.696H112.374V152.552H111.126ZM115.345 151.064C114.988 151.064 114.668 150.995 114.385 150.856C114.108 150.717 113.892 150.507 113.737 150.224C113.582 149.936 113.505 149.571 113.505 149.128V146.696H114.753V148.944C114.753 149.301 114.828 149.565 114.977 149.736C115.132 149.901 115.348 149.984 115.625 149.984C115.817 149.984 115.988 149.944 116.137 149.864C116.286 149.779 116.404 149.651 116.489 149.48C116.574 149.304 116.617 149.085 116.617 148.824V146.696H117.865V151H116.681V149.816L116.897 150.16C116.753 150.459 116.54 150.685 116.257 150.84C115.98 150.989 115.676 151.064 115.345 151.064ZM121.157 151.064C120.667 151.064 120.235 150.968 119.861 150.776C119.493 150.584 119.208 150.323 119.005 149.992C118.803 149.656 118.701 149.275 118.701 148.848C118.701 148.416 118.8 148.035 118.997 147.704C119.2 147.368 119.475 147.107 119.821 146.92C120.168 146.728 120.56 146.632 120.997 146.632C121.419 146.632 121.797 146.723 122.133 146.904C122.475 147.08 122.744 147.336 122.941 147.672C123.139 148.003 123.237 148.4 123.237 148.864C123.237 148.912 123.235 148.968 123.229 149.032C123.224 149.091 123.219 149.147 123.213 149.2H119.717V148.472H122.557L122.077 148.688C122.077 148.464 122.032 148.269 121.941 148.104C121.851 147.939 121.725 147.811 121.565 147.72C121.405 147.624 121.219 147.576 121.005 147.576C120.792 147.576 120.603 147.624 120.437 147.72C120.277 147.811 120.152 147.941 120.061 148.112C119.971 148.277 119.925 148.475 119.925 148.704V148.896C119.925 149.131 119.976 149.339 120.077 149.52C120.184 149.696 120.331 149.832 120.517 149.928C120.709 150.019 120.933 150.064 121.189 150.064C121.419 150.064 121.619 150.029 121.789 149.96C121.965 149.891 122.125 149.787 122.269 149.648L122.933 150.368C122.736 150.592 122.488 150.765 122.189 150.888C121.891 151.005 121.547 151.064 121.157 151.064ZM128.038 145.304C128.555 145.304 129 145.411 129.374 145.624C129.747 145.837 130.035 146.149 130.238 146.56C130.44 146.965 130.542 147.472 130.542 148.08C130.542 148.725 130.419 149.272 130.174 149.72C129.934 150.168 129.6 150.509 129.174 150.744C128.747 150.979 128.251 151.096 127.686 151.096C127.392 151.096 127.11 151.064 126.838 151C126.566 150.936 126.331 150.84 126.134 150.712L126.614 149.76C126.768 149.867 126.934 149.941 127.11 149.984C127.286 150.021 127.47 150.04 127.662 150.04C128.142 150.04 128.523 149.893 128.806 149.6C129.094 149.307 129.238 148.872 129.238 148.296C129.238 148.2 129.235 148.093 129.23 147.976C129.224 147.859 129.211 147.741 129.19 147.624L129.542 147.96C129.451 148.168 129.323 148.344 129.158 148.488C128.992 148.627 128.8 148.733 128.582 148.808C128.363 148.877 128.118 148.912 127.846 148.912C127.488 148.912 127.163 148.84 126.87 148.696C126.582 148.552 126.35 148.349 126.174 148.088C126.003 147.827 125.918 147.52 125.918 147.168C125.918 146.784 126.011 146.453 126.198 146.176C126.39 145.899 126.646 145.685 126.966 145.536C127.291 145.381 127.648 145.304 128.038 145.304ZM128.118 146.272C127.931 146.272 127.768 146.307 127.63 146.376C127.491 146.44 127.382 146.536 127.302 146.664C127.222 146.787 127.182 146.933 127.182 147.104C127.182 147.36 127.267 147.565 127.438 147.72C127.614 147.869 127.846 147.944 128.134 147.944C128.32 147.944 128.486 147.909 128.63 147.84C128.779 147.765 128.894 147.664 128.974 147.536C129.054 147.408 129.094 147.264 129.094 147.104C129.094 146.944 129.054 146.803 128.974 146.68C128.899 146.552 128.79 146.453 128.646 146.384C128.502 146.309 128.326 146.272 128.118 146.272ZM133.564 151.096C133.105 151.096 132.694 150.984 132.332 150.76C131.969 150.531 131.684 150.2 131.476 149.768C131.268 149.336 131.164 148.813 131.164 148.2C131.164 147.587 131.268 147.064 131.476 146.632C131.684 146.2 131.969 145.872 132.332 145.648C132.694 145.419 133.105 145.304 133.564 145.304C134.028 145.304 134.438 145.419 134.796 145.648C135.158 145.872 135.444 146.2 135.652 146.632C135.86 147.064 135.964 147.587 135.964 148.2C135.964 148.813 135.86 149.336 135.652 149.768C135.444 150.2 135.158 150.531 134.796 150.76C134.438 150.984 134.028 151.096 133.564 151.096ZM133.564 150C133.782 150 133.972 149.939 134.132 149.816C134.297 149.693 134.425 149.499 134.516 149.232C134.612 148.965 134.66 148.621 134.66 148.2C134.66 147.779 134.612 147.435 134.516 147.168C134.425 146.901 134.297 146.707 134.132 146.584C133.972 146.461 133.782 146.4 133.564 146.4C133.35 146.4 133.161 146.461 132.996 146.584C132.836 146.707 132.708 146.901 132.612 147.168C132.521 147.435 132.476 147.779 132.476 148.2C132.476 148.621 132.521 148.965 132.612 149.232C132.708 149.499 132.836 149.693 132.996 149.816C133.161 149.939 133.35 150 133.564 150ZM141.259 151.064C140.768 151.064 140.336 150.968 139.963 150.776C139.595 150.584 139.31 150.323 139.107 149.992C138.904 149.656 138.803 149.275 138.803 148.848C138.803 148.416 138.902 148.035 139.099 147.704C139.302 147.368 139.576 147.107 139.923 146.92C140.27 146.728 140.662 146.632 141.099 146.632C141.52 146.632 141.899 146.723 142.235 146.904C142.576 147.08 142.846 147.336 143.043 147.672C143.24 148.003 143.339 148.4 143.339 148.864C143.339 148.912 143.336 148.968 143.331 149.032C143.326 149.091 143.32 149.147 143.315 149.2H139.819V148.472H142.659L142.179 148.688C142.179 148.464 142.134 148.269 142.043 148.104C141.952 147.939 141.827 147.811 141.667 147.72C141.507 147.624 141.32 147.576 141.107 147.576C140.894 147.576 140.704 147.624 140.539 147.72C140.379 147.811 140.254 147.941 140.163 148.112C140.072 148.277 140.027 148.475 140.027 148.704V148.896C140.027 149.131 140.078 149.339 140.179 149.52C140.286 149.696 140.432 149.832 140.619 149.928C140.811 150.019 141.035 150.064 141.291 150.064C141.52 150.064 141.72 150.029 141.891 149.96C142.067 149.891 142.227 149.787 142.371 149.648L143.035 150.368C142.838 150.592 142.59 150.765 142.291 150.888C141.992 151.005 141.648 151.064 141.259 151.064ZM146.786 146.632C147.127 146.632 147.431 146.701 147.698 146.84C147.97 146.973 148.183 147.181 148.338 147.464C148.492 147.741 148.57 148.099 148.57 148.536V151H147.322V148.728C147.322 148.381 147.244 148.125 147.09 147.96C146.94 147.795 146.727 147.712 146.45 147.712C146.252 147.712 146.074 147.755 145.914 147.84C145.759 147.92 145.636 148.045 145.546 148.216C145.46 148.387 145.418 148.605 145.418 148.872V151H144.17V146.696H145.362V147.888L145.138 147.528C145.292 147.24 145.514 147.019 145.802 146.864C146.09 146.709 146.418 146.632 146.786 146.632ZM153.447 151V148.712L153.743 149.496L151.279 145.4H152.655L154.543 148.544H153.751L155.647 145.4H156.919L154.455 149.496L154.743 148.712V151H153.447Z" fill="#333333"/>
</g>
<defs>
<filter id="filter0_d_1_12" x="0" y="0" width="180" height="182.571" filterUnits="userSpaceOnUse" color-interpolation-filters="sRGB">
<feFlood flood-opacity="0" result="BackgroundImageFix"/>
<feColorMatrix in="SourceAlpha" type="matrix" values="0 0 0 0 0 0 0 0 0 0 0 0 0 0 0 0 0 0 127 0" result="hardAlpha"/>
<feOffset dy="2.57143"/>
<feColorMatrix type="matrix" values="0 0 0 0 0 0 0 0 0 0 0 0 0 0 0 0 0 0 0.25 0"/>
<feBlend mode="normal" in2="BackgroundImageFix" result="effect1_dropShadow_1_12"/>
<feBlend mode="normal" in="SourceGraphic" in2="effect1_dropShadow_1_12" result="shape"/>
</filter>
</defs>
</svg>
