<svg width="180" height="183" viewBox="0 0 180 183" fill="none" xmlns="http://www.w3.org/2000/svg">
<g filter="url(#filter0_d_11_293)">
<rect width="180" height="180" rx="12.8571" fill="#F2F2F2"/>
<path fill-rule="evenodd" clip-rule="evenodd" d="M170.357 45.0004C170.357 37.929 165.857 33.429 158.786 33.429C133.661 33.429 149.172 33.429 131.143 33.429C126.174 33.429 123.933 31.9912 121.179 29.2504C115.195 23.6702 100.146 14.7861 67.1318 14.7861C20.587 14.7861 9.64282 33.429 9.64282 33.429C9.64282 33.429 9.6431 36.463 9.64324 45.0004C9.64324 51.429 14.7857 56.5718 21.2143 56.5718C38.242 56.5718 66.8571 56.5718 66.8571 56.5718L72.6428 61.7147H96.4285L101.571 56.5718C101.571 56.5718 123.448 56.5718 158.786 56.5718C165.857 56.5718 170.357 52.0718 170.357 45.0004C170.357 46.2009 170.357 43.1569 170.357 45.0004Z" fill="#FC79FF"/>
<path fill-rule="evenodd" clip-rule="evenodd" d="M167.143 45C167.143 50.1429 164.571 53.3571 158.786 53.3571L100.286 53.3571L95.1429 58.5H73.9286L68.1429 53.3571C68.1429 53.3571 37.5386 53.3571 21.2143 53.3571C16.0485 53.3571 12.8571 49.5 12.8571 45H9.64282C9.64282 51.4286 14.7857 56.5714 21.2143 56.5714C38.2119 56.5714 66.8571 56.5714 66.8571 56.5714L72.6603 61.7143H96.4286L101.571 56.5714L158.786 56.5714C165.857 56.5714 170.357 52.0714 170.357 45C169.393 45 168.429 45 167.143 45Z" fill="black" fill-opacity="0.25"/>
<path fill-rule="evenodd" clip-rule="evenodd" d="M9.64282 45.0004H12.8571V34.7147C12.8571 34.7147 22.4955 18.0004 67.0408 18.0004C97.291 18.0004 112.858 26.1294 119.25 31.5004C122.331 34.0912 126.457 36.6125 130.5 36.6433C135.964 36.6433 148.799 36.6433 158.786 36.6433C163.906 36.6433 167.143 40.179 167.143 44.3576V45.0004H169.714H170.357C170.357 37.929 165.857 33.429 158.786 33.429C133.71 33.429 148.505 33.429 130.5 33.429C126 33.429 123.537 31.603 120.995 29.0618C115.03 23.4646 100.01 14.7861 67.0293 14.7861C20.5137 14.7861 9.64282 33.429 9.64282 33.429L9.64282 45.0004Z" fill="white" fill-opacity="0.5"/>
<path fill-rule="evenodd" clip-rule="evenodd" d="M170.357 69.4187C170.357 62.3568 164.571 56.5664 157.5 56.5664C117.753 56.5664 101.571 56.5711 101.571 56.5711L96.4284 61.714H72.6427L66.857 56.571H44.4514C37.38 56.571 31.5942 62.3569 31.5942 69.4233C31.5942 69.4281 31.5942 69.4329 31.5942 69.4378C31.5942 76.4997 37.38 82.2854 44.4514 82.2854C55.099 82.2854 66.8571 82.2854 66.8571 82.2854L72.6428 87.4283H96.4285L101.571 82.2854H157.594C164.571 82.2854 170.357 76.4997 170.357 69.4331C170.357 69.4283 170.357 69.7497 170.357 69.4187Z" fill="#30DCFF"/>
<path fill-rule="evenodd" clip-rule="evenodd" d="M170.357 69.4212C170.357 62.357 164.571 56.5713 157.406 56.5713C117.659 56.5713 101.571 56.5714 101.571 56.5714L96.4286 61.7141H72.6429L66.8571 56.5713H44.3571C37.2857 56.5713 31.5 62.357 31.5 69.4213C31.5 69.426 31.5 69.4285 31.5 69.4285H34.7143C34.7143 62.9999 39.2143 59.7856 44.3571 59.7856C53.784 59.7856 65.5714 59.7856 65.5714 59.7856L71.3571 64.9284H97.7143L102.857 59.7856H157.5C163.286 59.7856 167.143 63.6427 167.143 69.4283L170.357 69.4284V69.4212Z" fill="white" fill-opacity="0.5"/>
<path fill-rule="evenodd" clip-rule="evenodd" d="M170.357 69.4287L167.143 69.4287C167.143 75.1959 163.412 79.0716 157.5 79.0716C120.854 79.0716 100.286 79.0716 100.286 79.0716L95.1429 84.2144H73.9286L68.1429 79.0716H44.3571C37.6047 79.0716 34.7143 75.2144 34.7143 69.4297L31.5 69.4287V69.4359C31.5 76.5001 37.2857 82.2858 44.3571 82.2858C55.0048 82.2858 66.8571 82.2859 66.8571 82.2859L72.6429 87.4287H96.4286L101.571 82.2858H157.5C164.571 82.2858 170.357 76.5001 170.357 69.4287Z" fill="black" fill-opacity="0.25"/>
<path fill-rule="evenodd" clip-rule="evenodd" d="M170.357 95.1335C170.357 88.0717 164.571 82.2812 157.5 82.2812C117.753 82.2812 101.571 82.286 101.571 82.286L96.4284 87.4289H72.6427L66.857 82.2858H44.4514C37.38 82.2858 31.5942 88.0717 31.5942 95.1382C31.5942 95.1429 31.5942 95.1478 31.5942 95.1526C31.5942 102.215 37.38 108 44.4514 108C55.099 108 66.8571 108 66.8571 108L72.6428 113.143H96.4285L101.571 108H157.594C164.571 108 170.357 102.215 170.357 95.148C170.357 95.1431 170.357 95.4645 170.357 95.1335Z" fill="#30DCFF"/>
<path fill-rule="evenodd" clip-rule="evenodd" d="M170.357 95.1361C170.357 88.0718 164.571 82.2861 157.406 82.2861C117.659 82.2861 101.571 82.2862 101.571 82.2862L96.4286 87.429H72.6429L66.8571 82.2862H44.3571C37.2857 82.2862 31.5 88.0719 31.5 95.1361C31.5 95.1408 31.5 95.1433 31.5 95.1433H34.7143C34.7143 88.7147 39.2143 85.5005 44.3571 85.5005C53.784 85.5005 65.5714 85.5004 65.5714 85.5004L71.3571 90.6433H97.7143L102.857 85.5004H157.5C163.286 85.5004 167.143 89.3576 167.143 95.1431L170.357 95.1433V95.1361Z" fill="white" fill-opacity="0.5"/>
<path fill-rule="evenodd" clip-rule="evenodd" d="M170.357 95.1436L167.143 95.1436C167.143 100.911 163.412 104.786 157.5 104.786C120.854 104.786 100.286 104.786 100.286 104.786L95.1429 109.929H73.9286L68.1429 104.786H44.3571C37.6047 104.786 34.7143 100.929 34.7143 95.1445L31.5 95.1436V95.1508C31.5 102.215 37.2857 108.001 44.3571 108.001C55.0048 108.001 66.8571 108.001 66.8571 108.001L72.6429 113.144H96.4286L101.571 108.001H157.5C164.571 108.001 170.357 102.215 170.357 95.1436Z" fill="black" fill-opacity="0.25"/>
<path fill-rule="evenodd" clip-rule="evenodd" d="M170.357 120.847C170.357 113.786 164.571 107.995 157.5 107.995C117.753 107.995 101.571 108 101.571 108L96.4284 113.143H72.6427L66.857 108H44.4514C37.38 108 31.5942 113.786 31.5942 120.852C31.5942 120.857 31.5942 120.862 31.5942 120.866C31.5942 127.928 37.38 133.714 44.4514 133.714C55.099 133.714 66.8571 133.714 66.8571 133.714L72.6428 138.857H96.4285L101.571 133.714H157.594C164.571 133.714 170.357 127.928 170.357 120.862C170.357 120.857 170.357 121.178 170.357 120.847Z" fill="#30DCFF"/>
<path fill-rule="evenodd" clip-rule="evenodd" d="M170.357 120.85C170.357 113.786 164.571 108 157.406 108C117.659 108 101.571 108 101.571 108L96.4286 113.143H72.6429L66.8571 108H44.3571C37.2857 108 31.5 113.786 31.5 120.85C31.5 120.855 31.5 120.857 31.5 120.857H34.7143C34.7143 114.429 39.2143 111.214 44.3571 111.214C53.784 111.214 65.5714 111.214 65.5714 111.214L71.3571 116.357H97.7143L102.857 111.214H157.5C163.286 111.214 167.143 115.071 167.143 120.857L170.357 120.857V120.85Z" fill="white" fill-opacity="0.5"/>
<path fill-rule="evenodd" clip-rule="evenodd" d="M170.357 120.857L167.143 120.857C167.143 126.625 163.412 130.5 157.5 130.5C120.854 130.5 100.286 130.5 100.286 130.5L95.1429 135.643H73.9286L68.1429 130.5H44.3571C37.6047 130.5 34.7143 126.643 34.7143 120.858L31.5 120.857V120.865C31.5 127.929 37.2857 133.715 44.3571 133.715C55.0048 133.715 66.8571 133.715 66.8571 133.715L72.6429 138.857H96.4286L101.571 133.715H157.5C164.571 133.715 170.357 127.929 170.357 120.857Z" fill="black" fill-opacity="0.25"/>
<path fill-rule="evenodd" clip-rule="evenodd" d="M170.357 146.561C170.357 139.499 164.571 133.709 157.5 133.709C117.753 133.709 101.571 133.714 101.571 133.714L96.4284 138.857H72.6427L66.857 133.714H44.4514C37.38 133.714 31.5942 139.499 31.5942 146.566C31.5942 146.571 31.5942 146.575 31.5942 146.58C31.5942 153.642 37.38 159.428 44.4514 159.428C55.099 159.428 66.8571 159.428 66.8571 159.428L72.6428 164.571H96.4285L101.571 159.428H157.594C164.571 159.428 170.357 153.642 170.357 146.576C170.357 146.571 170.357 146.892 170.357 146.561Z" fill="#30DCFF"/>
<path fill-rule="evenodd" clip-rule="evenodd" d="M170.357 146.564C170.357 139.5 164.571 133.714 157.406 133.714C117.659 133.714 101.571 133.714 101.571 133.714L96.4286 138.857H72.6429L66.8571 133.714H44.3571C37.2857 133.714 31.5 139.5 31.5 146.564C31.5 146.569 31.5 146.571 31.5 146.571H34.7143C34.7143 140.142 39.2143 136.928 44.3571 136.928C53.784 136.928 65.5714 136.928 65.5714 136.928L71.3571 142.071H97.7143L102.857 136.928H157.5C163.286 136.928 167.143 140.785 167.143 146.571L170.357 146.571V146.564Z" fill="white" fill-opacity="0.5"/>
<path fill-rule="evenodd" clip-rule="evenodd" d="M170.357 146.571L167.143 146.571C167.143 152.338 163.412 156.214 157.5 156.214C120.854 156.214 100.286 156.214 100.286 156.214L95.1429 161.357H73.9286L68.1429 156.214H44.3571C37.6047 156.214 34.7143 152.357 34.7143 146.572L31.5 146.571V146.579C31.5 153.643 37.2857 159.428 44.3571 159.428C55.0048 159.428 66.8571 159.428 66.8571 159.428L72.6429 164.571H96.4286L101.571 159.428H157.5C164.571 159.428 170.357 153.643 170.357 146.571Z" fill="black" fill-opacity="0.25"/>
</g>
<defs>
<filter id="filter0_d_11_293" x="0" y="0" width="180" height="182.571" filterUnits="userSpaceOnUse" color-interpolation-filters="sRGB">
<feFlood flood-opacity="0" result="BackgroundImageFix"/>
<feColorMatrix in="SourceAlpha" type="matrix" values="0 0 0 0 0 0 0 0 0 0 0 0 0 0 0 0 0 0 127 0" result="hardAlpha"/>
<feOffset dy="2.57143"/>
<feColorMatrix type="matrix" values="0 0 0 0 0 0 0 0 0 0 0 0 0 0 0 0 0 0 0.25 0"/>
<feBlend mode="normal" in2="BackgroundImageFix" result="effect1_dropShadow_11_293"/>
<feBlend mode="normal" in="SourceGraphic" in2="effect1_dropShadow_11_293" result="shape"/>
</filter>
</defs>
</svg>
