<svg width="180" height="183" viewBox="0 0 180 183" fill="none" xmlns="http://www.w3.org/2000/svg">
<g filter="url(#filter0_d_4727_130951)">
<path fill-rule="evenodd" clip-rule="evenodd" d="M170.357 45.0001C170.357 37.9286 165.857 33.4286 158.786 33.4286C133.661 33.4286 149.172 33.4286 131.143 33.4286C126.174 33.4286 123.933 31.9909 121.179 29.2501C115.195 23.6698 100.146 14.7858 67.1318 14.7858C20.587 14.7858 9.64282 33.4286 9.64282 33.4286C9.64282 33.4286 9.6431 36.4626 9.64324 45.0001C9.64324 51.4286 14.7857 56.5715 21.2143 56.5715C38.242 56.5715 66.8571 56.5715 66.8571 56.5715L72.6428 61.7143H96.4285L101.571 56.5715C101.571 56.5715 123.448 56.5715 158.786 56.5715C165.857 56.5715 170.357 52.0715 170.357 45.0001C170.357 46.2006 170.357 43.1565 170.357 45.0001Z" fill="#FC79FF"/>
<path fill-rule="evenodd" clip-rule="evenodd" d="M167.143 45C167.143 50.1429 164.571 53.3571 158.786 53.3571L100.286 53.3571L95.1429 58.5H73.9286L68.1429 53.3571C68.1429 53.3571 37.5386 53.3571 21.2143 53.3571C16.0485 53.3571 12.8571 49.5 12.8571 45H9.64282C9.64282 51.4286 14.7857 56.5714 21.2143 56.5714C38.2119 56.5714 66.8571 56.5714 66.8571 56.5714L72.6603 61.7143H96.4286L101.571 56.5714L158.786 56.5714C165.857 56.5714 170.357 52.0714 170.357 45C169.393 45 168.429 45 167.143 45Z" fill="black" fill-opacity="0.25"/>
<path fill-rule="evenodd" clip-rule="evenodd" d="M9.6427 45.0001H12.857V34.7143C12.857 34.7143 22.4954 18.0001 67.0407 18.0001C97.2909 18.0001 112.858 26.1291 119.25 31.5001C122.331 34.0908 126.457 36.6121 130.5 36.6429C135.964 36.6429 148.798 36.6429 158.786 36.6429C163.905 36.6429 167.143 40.1786 167.143 44.3572V45.0001H169.714H170.357C170.357 37.9286 165.857 33.4286 158.786 33.4286C133.71 33.4286 148.505 33.4286 130.5 33.4286C126 33.4286 123.537 31.6026 120.995 29.0614C115.03 23.4642 100.01 14.7858 67.0291 14.7858C20.5136 14.7858 9.6427 33.4286 9.6427 33.4286L9.6427 45.0001Z" fill="white" fill-opacity="0.5"/>
<path d="M19.4154 46.3818C18.8447 46.3818 18.3274 46.2591 17.8634 46.0138C17.4047 45.7631 17.0421 45.4191 16.7754 44.9818C16.5141 44.5391 16.3834 44.0404 16.3834 43.4858C16.3834 42.9311 16.5141 42.4351 16.7754 41.9978C17.0421 41.5551 17.4047 41.2111 17.8634 40.9658C18.3274 40.7151 18.8474 40.5898 19.4234 40.5898C19.9087 40.5898 20.3461 40.6751 20.7354 40.8458C21.1301 41.0164 21.4607 41.2618 21.7274 41.5818L20.8954 42.3498C20.5167 41.9124 20.0474 41.6938 19.4874 41.6938C19.1407 41.6938 18.8314 41.7711 18.5594 41.9258C18.2874 42.0751 18.0741 42.2858 17.9194 42.5578C17.7701 42.8298 17.6954 43.1391 17.6954 43.4858C17.6954 43.8324 17.7701 44.1418 17.9194 44.4138C18.0741 44.6858 18.2874 44.8991 18.5594 45.0538C18.8314 45.2031 19.1407 45.2778 19.4874 45.2778C20.0474 45.2778 20.5167 45.0564 20.8954 44.6138L21.7274 45.3818C21.4607 45.7071 21.1301 45.9551 20.7354 46.1258C20.3407 46.2964 19.9007 46.3818 19.4154 46.3818ZM26.7412 41.9818V46.2858H25.5572V45.7738C25.3919 45.9604 25.1946 46.1044 24.9652 46.2058C24.7359 46.3018 24.4879 46.3498 24.2212 46.3498C23.6559 46.3498 23.2079 46.1871 22.8772 45.8618C22.5466 45.5364 22.3812 45.0538 22.3812 44.4138V41.9818H23.6292V44.2298C23.6292 44.9231 23.9199 45.2698 24.5012 45.2698C24.7999 45.2698 25.0399 45.1738 25.2212 44.9818C25.4026 44.7844 25.4932 44.4938 25.4932 44.1098V41.9818H26.7412ZM29.6334 41.9178C30.3001 41.9178 30.8121 42.0778 31.1694 42.3978C31.5267 42.7124 31.7054 43.1898 31.7054 43.8298V46.2858H30.5374V45.7498C30.3027 46.1498 29.8654 46.3498 29.2254 46.3498C28.8947 46.3498 28.6067 46.2938 28.3614 46.1818C28.1214 46.0698 27.9374 45.9151 27.8094 45.7178C27.6814 45.5204 27.6174 45.2964 27.6174 45.0458C27.6174 44.6458 27.7667 44.3311 28.0654 44.1018C28.3694 43.8724 28.8361 43.7578 29.4654 43.7578H30.4574C30.4574 43.4858 30.3747 43.2778 30.2094 43.1338C30.0441 42.9844 29.7961 42.9098 29.4654 42.9098C29.2361 42.9098 29.0094 42.9471 28.7854 43.0218C28.5667 43.0911 28.3801 43.1871 28.2254 43.3098L27.7774 42.4378C28.0121 42.2724 28.2921 42.1444 28.6174 42.0538C28.9481 41.9631 29.2867 41.9178 29.6334 41.9178ZM29.5374 45.5098C29.7507 45.5098 29.9401 45.4618 30.1054 45.3658C30.2707 45.2644 30.3881 45.1178 30.4574 44.9258V44.4858H29.6014C29.0894 44.4858 28.8334 44.6538 28.8334 44.9898C28.8334 45.1498 28.8947 45.2778 29.0174 45.3738C29.1454 45.4644 29.3187 45.5098 29.5374 45.5098ZM35.4509 41.9178C35.9842 41.9178 36.4136 42.0778 36.7389 42.3978C37.0696 42.7178 37.2349 43.1924 37.2349 43.8218V46.2858H35.9869V44.0138C35.9869 43.6724 35.9122 43.4191 35.7629 43.2538C35.6136 43.0831 35.3976 42.9978 35.1149 42.9978C34.8002 42.9978 34.5496 43.0964 34.3629 43.2938C34.1762 43.4858 34.0829 43.7738 34.0829 44.1578V46.2858H32.8349V41.9818H34.0269V42.4858C34.1922 42.3044 34.3976 42.1658 34.6429 42.0698C34.8882 41.9684 35.1576 41.9178 35.4509 41.9178ZM42.797 40.3498V46.2858H41.605V45.7898C41.2957 46.1631 40.8477 46.3498 40.261 46.3498C39.8557 46.3498 39.4877 46.2591 39.157 46.0778C38.8317 45.8964 38.5757 45.6378 38.389 45.3018C38.2024 44.9658 38.109 44.5764 38.109 44.1338C38.109 43.6911 38.2024 43.3018 38.389 42.9658C38.5757 42.6298 38.8317 42.3711 39.157 42.1898C39.4877 42.0084 39.8557 41.9178 40.261 41.9178C40.8104 41.9178 41.2397 42.0911 41.549 42.4378V40.3498H42.797ZM40.477 45.3258C40.7917 45.3258 41.053 45.2191 41.261 45.0058C41.469 44.7871 41.573 44.4964 41.573 44.1338C41.573 43.7711 41.469 43.4831 41.261 43.2698C41.053 43.0511 40.7917 42.9418 40.477 42.9418C40.157 42.9418 39.893 43.0511 39.685 43.2698C39.477 43.4831 39.373 43.7711 39.373 44.1338C39.373 44.4964 39.477 44.7871 39.685 45.0058C39.893 45.2191 40.157 45.3258 40.477 45.3258ZM46.0001 46.3498C45.5468 46.3498 45.1388 46.2564 44.7761 46.0698C44.4188 45.8778 44.1388 45.6138 43.9361 45.2778C43.7334 44.9418 43.6321 44.5604 43.6321 44.1338C43.6321 43.7071 43.7334 43.3258 43.9361 42.9898C44.1388 42.6538 44.4188 42.3924 44.7761 42.2058C45.1388 42.0138 45.5468 41.9178 46.0001 41.9178C46.4534 41.9178 46.8588 42.0138 47.2161 42.2058C47.5734 42.3924 47.8534 42.6538 48.0561 42.9898C48.2588 43.3258 48.3601 43.7071 48.3601 44.1338C48.3601 44.5604 48.2588 44.9418 48.0561 45.2778C47.8534 45.6138 47.5734 45.8778 47.2161 46.0698C46.8588 46.2564 46.4534 46.3498 46.0001 46.3498ZM46.0001 45.3258C46.3201 45.3258 46.5814 45.2191 46.7841 45.0058C46.9921 44.7871 47.0961 44.4964 47.0961 44.1338C47.0961 43.7711 46.9921 43.4831 46.7841 43.2698C46.5814 43.0511 46.3201 42.9418 46.0001 42.9418C45.6801 42.9418 45.4161 43.0511 45.2081 43.2698C45.0001 43.4831 44.8961 43.7711 44.8961 44.1338C44.8961 44.4964 45.0001 44.7871 45.2081 45.0058C45.4161 45.2191 45.6801 45.3258 46.0001 45.3258ZM49.6663 43.4778C49.4476 43.4778 49.2636 43.4031 49.1143 43.2538C48.965 43.1044 48.8903 42.9178 48.8903 42.6938C48.8903 42.4644 48.965 42.2804 49.1143 42.1418C49.2636 41.9978 49.4476 41.9258 49.6663 41.9258C49.885 41.9258 50.069 41.9978 50.2183 42.1418C50.3676 42.2804 50.4423 42.4644 50.4423 42.6938C50.4423 42.9178 50.3676 43.1044 50.2183 43.2538C50.069 43.4031 49.885 43.4778 49.6663 43.4778ZM49.6663 46.3498C49.4476 46.3498 49.2636 46.2751 49.1143 46.1258C48.965 45.9764 48.8903 45.7898 48.8903 45.5658C48.8903 45.3364 48.965 45.1524 49.1143 45.0138C49.2636 44.8698 49.4476 44.7978 49.6663 44.7978C49.885 44.7978 50.069 44.8698 50.2183 45.0138C50.3676 45.1524 50.4423 45.3364 50.4423 45.5658C50.4423 45.7898 50.3676 45.9764 50.2183 46.1258C50.069 46.2751 49.885 46.3498 49.6663 46.3498ZM56.0977 41.9178C56.4977 41.9178 56.8603 42.0111 57.1857 42.1978C57.5163 42.3791 57.775 42.6378 57.9617 42.9738C58.1483 43.3044 58.2417 43.6911 58.2417 44.1338C58.2417 44.5764 58.1483 44.9658 57.9617 45.3018C57.775 45.6324 57.5163 45.8911 57.1857 46.0778C56.8603 46.2591 56.4977 46.3498 56.0977 46.3498C55.5483 46.3498 55.1163 46.1764 54.8017 45.8298V47.8378H53.5537V41.9818H54.7457V42.4778C55.055 42.1044 55.5057 41.9178 56.0977 41.9178ZM55.8817 45.3258C56.2017 45.3258 56.463 45.2191 56.6657 45.0058C56.8737 44.7871 56.9777 44.4964 56.9777 44.1338C56.9777 43.7711 56.8737 43.4831 56.6657 43.2698C56.463 43.0511 56.2017 42.9418 55.8817 42.9418C55.5617 42.9418 55.2977 43.0511 55.0897 43.2698C54.887 43.4831 54.7857 43.7711 54.7857 44.1338C54.7857 44.4964 54.887 44.7871 55.0897 45.0058C55.2977 45.2191 55.5617 45.3258 55.8817 45.3258ZM60.2691 42.5498C60.4184 42.3418 60.6184 42.1844 60.8691 42.0778C61.1251 41.9711 61.4184 41.9178 61.7491 41.9178V43.0698C61.6104 43.0591 61.5171 43.0538 61.4691 43.0538C61.1118 43.0538 60.8318 43.1551 60.6291 43.3578C60.4264 43.5551 60.3251 43.8538 60.3251 44.2538V46.2858H59.0771V41.9818H60.2691V42.5498ZM66.6681 44.1498C66.6681 44.1658 66.6601 44.2778 66.6441 44.4858H63.3881C63.4468 44.7524 63.5854 44.9631 63.8041 45.1178C64.0228 45.2724 64.2948 45.3498 64.6201 45.3498C64.8441 45.3498 65.0414 45.3178 65.2121 45.2538C65.3881 45.1844 65.5508 45.0778 65.7001 44.9338L66.3641 45.6538C65.9588 46.1178 65.3668 46.3498 64.5881 46.3498C64.1028 46.3498 63.6734 46.2564 63.3001 46.0698C62.9268 45.8778 62.6388 45.6138 62.4361 45.2778C62.2334 44.9418 62.1321 44.5604 62.1321 44.1338C62.1321 43.7124 62.2308 43.3338 62.4281 42.9978C62.6308 42.6564 62.9054 42.3924 63.2521 42.2058C63.6041 42.0138 63.9961 41.9178 64.4281 41.9178C64.8494 41.9178 65.2308 42.0084 65.5721 42.1898C65.9134 42.3711 66.1801 42.6324 66.3721 42.9738C66.5694 43.3098 66.6681 43.7018 66.6681 44.1498ZM64.4361 42.8618C64.1534 42.8618 63.9161 42.9418 63.7241 43.1018C63.5321 43.2618 63.4148 43.4804 63.3721 43.7578H65.4921C65.4494 43.4858 65.3321 43.2698 65.1401 43.1098C64.9481 42.9444 64.7134 42.8618 64.4361 42.8618ZM68.947 46.3498C68.5896 46.3498 68.2403 46.3071 67.899 46.2218C67.5576 46.1311 67.2856 46.0191 67.083 45.8858L67.499 44.9898C67.691 45.1124 67.923 45.2138 68.195 45.2938C68.467 45.3684 68.7336 45.4058 68.995 45.4058C69.523 45.4058 69.787 45.2751 69.787 45.0138C69.787 44.8911 69.715 44.8031 69.571 44.7498C69.427 44.6964 69.2056 44.6511 68.907 44.6138C68.555 44.5604 68.2643 44.4991 68.035 44.4298C67.8056 44.3604 67.6056 44.2378 67.435 44.0618C67.2696 43.8858 67.187 43.6351 67.187 43.3098C67.187 43.0378 67.2643 42.7978 67.419 42.5898C67.579 42.3764 67.8083 42.2111 68.107 42.0938C68.411 41.9764 68.7683 41.9178 69.179 41.9178C69.483 41.9178 69.7843 41.9524 70.083 42.0218C70.387 42.0858 70.6376 42.1764 70.835 42.2938L70.419 43.1818C70.0403 42.9684 69.627 42.8618 69.179 42.8618C68.9123 42.8618 68.7123 42.8991 68.579 42.9738C68.4456 43.0484 68.379 43.1444 68.379 43.2618C68.379 43.3951 68.451 43.4884 68.595 43.5418C68.739 43.5951 68.9683 43.6458 69.283 43.6938C69.635 43.7524 69.923 43.8164 70.147 43.8858C70.371 43.9498 70.5656 44.0698 70.731 44.2458C70.8963 44.4218 70.979 44.6671 70.979 44.9818C70.979 45.2484 70.899 45.4858 70.739 45.6938C70.579 45.9018 70.3443 46.0644 70.035 46.1818C69.731 46.2938 69.3683 46.3498 68.947 46.3498ZM71.749 41.9818H72.997V46.2858H71.749V41.9818ZM72.373 41.3818C72.1436 41.3818 71.957 41.3151 71.813 41.1818C71.669 41.0484 71.597 40.8831 71.597 40.6858C71.597 40.4884 71.669 40.3231 71.813 40.1898C71.957 40.0564 72.1436 39.9898 72.373 39.9898C72.6023 39.9898 72.789 40.0538 72.933 40.1818C73.077 40.3098 73.149 40.4698 73.149 40.6618C73.149 40.8698 73.077 41.0431 72.933 41.1818C72.789 41.3151 72.6023 41.3818 72.373 41.3818ZM76.2032 46.3498C75.7499 46.3498 75.3419 46.2564 74.9792 46.0698C74.6219 45.8778 74.3419 45.6138 74.1392 45.2778C73.9366 44.9418 73.8352 44.5604 73.8352 44.1338C73.8352 43.7071 73.9366 43.3258 74.1392 42.9898C74.3419 42.6538 74.6219 42.3924 74.9792 42.2058C75.3419 42.0138 75.7499 41.9178 76.2032 41.9178C76.6566 41.9178 77.0619 42.0138 77.4192 42.2058C77.7766 42.3924 78.0566 42.6538 78.2592 42.9898C78.4619 43.3258 78.5632 43.7071 78.5632 44.1338C78.5632 44.5604 78.4619 44.9418 78.2592 45.2778C78.0566 45.6138 77.7766 45.8778 77.4192 46.0698C77.0619 46.2564 76.6566 46.3498 76.2032 46.3498ZM76.2032 45.3258C76.5232 45.3258 76.7846 45.2191 76.9872 45.0058C77.1952 44.7871 77.2992 44.4964 77.2992 44.1338C77.2992 43.7711 77.1952 43.4831 76.9872 43.2698C76.7846 43.0511 76.5232 42.9418 76.2032 42.9418C75.8832 42.9418 75.6192 43.0511 75.4112 43.2698C75.2032 43.4831 75.0992 43.7711 75.0992 44.1338C75.0992 44.4964 75.2032 44.7871 75.4112 45.0058C75.6192 45.2191 75.8832 45.3258 76.2032 45.3258ZM82.0134 41.9178C82.5467 41.9178 82.9761 42.0778 83.3014 42.3978C83.6321 42.7178 83.7974 43.1924 83.7974 43.8218V46.2858H82.5494V44.0138C82.5494 43.6724 82.4747 43.4191 82.3254 43.2538C82.1761 43.0831 81.9601 42.9978 81.6774 42.9978C81.3627 42.9978 81.1121 43.0964 80.9254 43.2938C80.7387 43.4858 80.6454 43.7738 80.6454 44.1578V46.2858H79.3974V41.9818H80.5894V42.4858C80.7547 42.3044 80.9601 42.1658 81.2054 42.0698C81.4507 41.9684 81.7201 41.9178 82.0134 41.9178ZM86.6647 41.9178C87.3313 41.9178 87.8433 42.0778 88.2007 42.3978C88.558 42.7124 88.7367 43.1898 88.7367 43.8298V46.2858H87.5687V45.7498C87.334 46.1498 86.8967 46.3498 86.2567 46.3498C85.926 46.3498 85.638 46.2938 85.3927 46.1818C85.1527 46.0698 84.9687 45.9151 84.8407 45.7178C84.7127 45.5204 84.6487 45.2964 84.6487 45.0458C84.6487 44.6458 84.798 44.3311 85.0967 44.1018C85.4007 43.8724 85.8673 43.7578 86.4967 43.7578H87.4887C87.4887 43.4858 87.406 43.2778 87.2407 43.1338C87.0753 42.9844 86.8273 42.9098 86.4967 42.9098C86.2673 42.9098 86.0407 42.9471 85.8167 43.0218C85.598 43.0911 85.4113 43.1871 85.2567 43.3098L84.8087 42.4378C85.0433 42.2724 85.3233 42.1444 85.6487 42.0538C85.9793 41.9631 86.318 41.9178 86.6647 41.9178ZM86.5687 45.5098C86.782 45.5098 86.9713 45.4618 87.1367 45.3658C87.302 45.2644 87.4193 45.1178 87.4887 44.9258V44.4858H86.6327C86.1207 44.4858 85.8647 44.6538 85.8647 44.9898C85.8647 45.1498 85.926 45.2778 86.0487 45.3738C86.1767 45.4644 86.35 45.5098 86.5687 45.5098ZM91.0582 42.5498C91.2075 42.3418 91.4075 42.1844 91.6582 42.0778C91.9142 41.9711 92.2075 41.9178 92.5382 41.9178V43.0698C92.3995 43.0591 92.3062 43.0538 92.2582 43.0538C91.9008 43.0538 91.6208 43.1551 91.4182 43.3578C91.2155 43.5551 91.1142 43.8538 91.1142 44.2538V46.2858H89.8662V41.9818H91.0582V42.5498ZM98.1211 41.9178C98.5211 41.9178 98.8838 42.0111 99.2091 42.1978C99.5398 42.3791 99.7984 42.6378 99.9851 42.9738C100.172 43.3044 100.265 43.6911 100.265 44.1338C100.265 44.5764 100.172 44.9658 99.9851 45.3018C99.7984 45.6324 99.5398 45.8911 99.2091 46.0778C98.8838 46.2591 98.5211 46.3498 98.1211 46.3498C97.5291 46.3498 97.0784 46.1631 96.7691 45.7898V46.2858H95.5771V40.3498H96.8251V42.4378C97.1398 42.0911 97.5718 41.9178 98.1211 41.9178ZM97.9051 45.3258C98.2251 45.3258 98.4864 45.2191 98.6891 45.0058C98.8971 44.7871 99.0011 44.4964 99.0011 44.1338C99.0011 43.7711 98.8971 43.4831 98.6891 43.2698C98.4864 43.0511 98.2251 42.9418 97.9051 42.9418C97.5851 42.9418 97.3211 43.0511 97.1131 43.2698C96.9104 43.4831 96.8091 43.7711 96.8091 44.1338C96.8091 44.4964 96.9104 44.7871 97.1131 45.0058C97.3211 45.2191 97.5851 45.3258 97.9051 45.3258ZM103.149 46.3498C102.695 46.3498 102.287 46.2564 101.925 46.0698C101.567 45.8778 101.287 45.6138 101.085 45.2778C100.882 44.9418 100.781 44.5604 100.781 44.1338C100.781 43.7071 100.882 43.3258 101.085 42.9898C101.287 42.6538 101.567 42.3924 101.925 42.2058C102.287 42.0138 102.695 41.9178 103.149 41.9178C103.602 41.9178 104.007 42.0138 104.365 42.2058C104.722 42.3924 105.002 42.6538 105.205 42.9898C105.407 43.3258 105.509 43.7071 105.509 44.1338C105.509 44.5604 105.407 44.9418 105.205 45.2778C105.002 45.6138 104.722 45.8778 104.365 46.0698C104.007 46.2564 103.602 46.3498 103.149 46.3498ZM103.149 45.3258C103.469 45.3258 103.73 45.2191 103.933 45.0058C104.141 44.7871 104.245 44.4964 104.245 44.1338C104.245 43.7711 104.141 43.4831 103.933 43.2698C103.73 43.0511 103.469 42.9418 103.149 42.9418C102.829 42.9418 102.565 43.0511 102.357 43.2698C102.149 43.4831 102.045 43.7711 102.045 44.1338C102.045 44.4964 102.149 44.7871 102.357 45.0058C102.565 45.2191 102.829 45.3258 103.149 45.3258ZM109.119 46.0778C108.996 46.1684 108.844 46.2378 108.663 46.2858C108.487 46.3284 108.3 46.3498 108.103 46.3498C107.591 46.3498 107.193 46.2191 106.911 45.9578C106.633 45.6964 106.495 45.3124 106.495 44.8058V43.0378H105.831V42.0778H106.495V41.0298H107.743V42.0778H108.815V43.0378H107.743V44.7898C107.743 44.9711 107.788 45.1124 107.879 45.2138C107.975 45.3098 108.108 45.3578 108.279 45.3578C108.476 45.3578 108.644 45.3044 108.783 45.1978L109.119 46.0778ZM111.734 46.3498C111.281 46.3498 110.873 46.2564 110.51 46.0698C110.153 45.8778 109.873 45.6138 109.67 45.2778C109.468 44.9418 109.366 44.5604 109.366 44.1338C109.366 43.7071 109.468 43.3258 109.67 42.9898C109.873 42.6538 110.153 42.3924 110.51 42.2058C110.873 42.0138 111.281 41.9178 111.734 41.9178C112.188 41.9178 112.593 42.0138 112.95 42.2058C113.308 42.3924 113.588 42.6538 113.79 42.9898C113.993 43.3258 114.094 43.7071 114.094 44.1338C114.094 44.5604 113.993 44.9418 113.79 45.2778C113.588 45.6138 113.308 45.8778 112.95 46.0698C112.593 46.2564 112.188 46.3498 111.734 46.3498ZM111.734 45.3258C112.054 45.3258 112.316 45.2191 112.518 45.0058C112.726 44.7871 112.83 44.4964 112.83 44.1338C112.83 43.7711 112.726 43.4831 112.518 43.2698C112.316 43.0511 112.054 42.9418 111.734 42.9418C111.414 42.9418 111.15 43.0511 110.942 43.2698C110.734 43.4831 110.63 43.7711 110.63 44.1338C110.63 44.4964 110.734 44.7871 110.942 45.0058C111.15 45.2191 111.414 45.3258 111.734 45.3258ZM112.07 40.2778H113.414L111.966 41.4298H110.99L112.07 40.2778ZM117.545 41.9178C118.078 41.9178 118.507 42.0778 118.833 42.3978C119.163 42.7178 119.329 43.1924 119.329 43.8218V46.2858H118.081V44.0138C118.081 43.6724 118.006 43.4191 117.857 43.2538C117.707 43.0831 117.491 42.9978 117.209 42.9978C116.894 42.9978 116.643 43.0964 116.457 43.2938C116.27 43.4858 116.177 43.7738 116.177 44.1578V46.2858H114.929V41.9818H116.121V42.4858C116.286 42.3044 116.491 42.1658 116.737 42.0698C116.982 41.9684 117.251 41.9178 117.545 41.9178ZM122.726 41.9818H123.974V46.2858H122.726V41.9818ZM123.35 41.3818C123.12 41.3818 122.934 41.3151 122.79 41.1818C122.646 41.0484 122.574 40.8831 122.574 40.6858C122.574 40.4884 122.646 40.3231 122.79 40.1898C122.934 40.0564 123.12 39.9898 123.35 39.9898C123.579 39.9898 123.766 40.0538 123.91 40.1818C124.054 40.3098 124.126 40.4698 124.126 40.6618C124.126 40.8698 124.054 41.0431 123.91 41.1818C123.766 41.3151 123.579 41.3818 123.35 41.3818ZM127.748 41.9178C128.281 41.9178 128.71 42.0778 129.036 42.3978C129.366 42.7178 129.532 43.1924 129.532 43.8218V46.2858H128.284V44.0138C128.284 43.6724 128.209 43.4191 128.06 43.2538C127.91 43.0831 127.694 42.9978 127.412 42.9978C127.097 42.9978 126.846 43.0964 126.66 43.2938C126.473 43.4858 126.38 43.7738 126.38 44.1578V46.2858H125.132V41.9818H126.324V42.4858C126.489 42.3044 126.694 42.1658 126.94 42.0698C127.185 41.9684 127.454 41.9178 127.748 41.9178ZM130.663 41.9818H131.911V46.2858H130.663V41.9818ZM131.287 41.3818C131.058 41.3818 130.871 41.3151 130.727 41.1818C130.583 41.0484 130.511 40.8831 130.511 40.6858C130.511 40.4884 130.583 40.3231 130.727 40.1898C130.871 40.0564 131.058 39.9898 131.287 39.9898C131.516 39.9898 131.703 40.0538 131.847 40.1818C131.991 40.3098 132.063 40.4698 132.063 40.6618C132.063 40.8698 131.991 41.0431 131.847 41.1818C131.703 41.3151 131.516 41.3818 131.287 41.3818ZM135.149 46.3498C134.691 46.3498 134.277 46.2564 133.909 46.0698C133.547 45.8778 133.261 45.6138 133.053 45.2778C132.851 44.9418 132.749 44.5604 132.749 44.1338C132.749 43.7071 132.851 43.3258 133.053 42.9898C133.261 42.6538 133.547 42.3924 133.909 42.2058C134.277 42.0138 134.691 41.9178 135.149 41.9178C135.603 41.9178 135.997 42.0138 136.333 42.2058C136.675 42.3924 136.923 42.6618 137.077 43.0138L136.109 43.5338C135.885 43.1391 135.563 42.9418 135.141 42.9418C134.816 42.9418 134.547 43.0484 134.333 43.2618C134.12 43.4751 134.013 43.7658 134.013 44.1338C134.013 44.5018 134.12 44.7924 134.333 45.0058C134.547 45.2191 134.816 45.3258 135.141 45.3258C135.568 45.3258 135.891 45.1284 136.109 44.7338L137.077 45.2618C136.923 45.6031 136.675 45.8698 136.333 46.0618C135.997 46.2538 135.603 46.3498 135.149 46.3498ZM137.796 41.9818H139.044V46.2858H137.796V41.9818ZM138.42 41.3818C138.191 41.3818 138.004 41.3151 137.86 41.1818C137.716 41.0484 137.644 40.8831 137.644 40.6858C137.644 40.4884 137.716 40.3231 137.86 40.1898C138.004 40.0564 138.191 39.9898 138.42 39.9898C138.649 39.9898 138.836 40.0538 138.98 40.1818C139.124 40.3098 139.196 40.4698 139.196 40.6618C139.196 40.8698 139.124 41.0431 138.98 41.1818C138.836 41.3151 138.649 41.3818 138.42 41.3818ZM141.938 41.9178C142.605 41.9178 143.117 42.0778 143.474 42.3978C143.831 42.7124 144.01 43.1898 144.01 43.8298V46.2858H142.842V45.7498C142.607 46.1498 142.17 46.3498 141.53 46.3498C141.199 46.3498 140.911 46.2938 140.666 46.1818C140.426 46.0698 140.242 45.9151 140.114 45.7178C139.986 45.5204 139.922 45.2964 139.922 45.0458C139.922 44.6458 140.071 44.3311 140.37 44.1018C140.674 43.8724 141.141 43.7578 141.77 43.7578H142.762C142.762 43.4858 142.679 43.2778 142.514 43.1338C142.349 42.9844 142.101 42.9098 141.77 42.9098C141.541 42.9098 141.314 42.9471 141.09 43.0218C140.871 43.0911 140.685 43.1871 140.53 43.3098L140.082 42.4378C140.317 42.2724 140.597 42.1444 140.922 42.0538C141.253 41.9631 141.591 41.9178 141.938 41.9178ZM141.842 45.5098C142.055 45.5098 142.245 45.4618 142.41 45.3658C142.575 45.2644 142.693 45.1178 142.762 44.9258V44.4858H141.906C141.394 44.4858 141.138 44.6538 141.138 44.9898C141.138 45.1498 141.199 45.2778 141.322 45.3738C141.45 45.4644 141.623 45.5098 141.842 45.5098ZM146.332 42.5498C146.481 42.3418 146.681 42.1844 146.932 42.0778C147.188 41.9711 147.481 41.9178 147.812 41.9178V43.0698C147.673 43.0591 147.58 43.0538 147.532 43.0538C147.174 43.0538 146.894 43.1551 146.692 43.3578C146.489 43.5551 146.388 43.8538 146.388 44.2538V46.2858H145.14V41.9818H146.332V42.5498ZM148.979 46.3498C148.76 46.3498 148.576 46.2751 148.427 46.1258C148.277 45.9764 148.203 45.7898 148.203 45.5658C148.203 45.3364 148.277 45.1524 148.427 45.0138C148.576 44.8698 148.76 44.7978 148.979 44.7978C149.197 44.7978 149.381 44.8698 149.531 45.0138C149.68 45.1524 149.755 45.3364 149.755 45.5658C149.755 45.7898 149.68 45.9764 149.531 46.1258C149.381 46.2751 149.197 46.3498 148.979 46.3498Z" fill="#333333"/>
<path fill-rule="evenodd" clip-rule="evenodd" d="M170.357 69.4189C170.357 62.3571 164.571 56.5667 157.5 56.5667C117.753 56.5667 101.571 56.5714 101.571 56.5714L96.4285 61.7143H72.6428L66.8571 56.5712H44.4515C37.3801 56.5712 31.5944 62.3571 31.5944 69.4236C31.5944 69.4283 31.5944 69.4332 31.5944 69.438C31.5944 76.5 37.3801 82.2857 44.4515 82.2857C55.0991 82.2857 66.8572 82.2857 66.8572 82.2857L72.6429 87.4285H96.4286L101.571 82.2856H157.594C164.571 82.2856 170.357 76.4999 170.357 69.4334C170.357 69.4285 170.357 69.7499 170.357 69.4189Z" fill="#30DCFF"/>
<path fill-rule="evenodd" clip-rule="evenodd" d="M170.357 69.4213C170.357 62.3571 164.571 56.5714 157.406 56.5714C117.659 56.5714 101.571 56.5715 101.571 56.5715L96.4286 61.7143H72.6429L66.8571 56.5714H44.3571C37.2857 56.5714 31.5 62.3572 31.5 69.4214C31.5 69.4261 31.5 69.4286 31.5 69.4286H34.7143C34.7143 63 39.2143 59.7857 44.3571 59.7857C53.784 59.7857 65.5714 59.7857 65.5714 59.7857L71.3571 64.9286H97.7143L102.857 59.7857H157.5C163.286 59.7857 167.143 63.6428 167.143 69.4284L170.357 69.4286V69.4213Z" fill="white" fill-opacity="0.5"/>
<path fill-rule="evenodd" clip-rule="evenodd" d="M170.357 69.4286L167.143 69.4286C167.143 75.1958 163.412 79.0714 157.5 79.0714C120.854 79.0714 100.286 79.0714 100.286 79.0714L95.1429 84.2143H73.9286L68.1429 79.0714H44.3571C37.6047 79.0714 34.7143 75.2143 34.7143 69.4295L31.5 69.4286V69.4358C31.5 76.5 37.2857 82.2857 44.3571 82.2857C55.0048 82.2857 66.8571 82.2857 66.8571 82.2857L72.6429 87.4286H96.4286L101.571 82.2857H157.5C164.571 82.2857 170.357 76.5 170.357 69.4286Z" fill="black" fill-opacity="0.25"/>
<path d="M43.6886 74.5714L43.6806 71.2114L42.0326 73.9794H41.4486L39.8086 71.2834V74.5714H38.5926V68.9714H39.6646L41.7606 72.4514L43.8246 68.9714H44.8886L44.9046 74.5714H43.6886ZM48.1932 74.6354C47.7399 74.6354 47.3319 74.5421 46.9692 74.3554C46.6119 74.1634 46.3319 73.8994 46.1292 73.5634C45.9265 73.2274 45.8252 72.8461 45.8252 72.4194C45.8252 71.9927 45.9265 71.6114 46.1292 71.2754C46.3319 70.9394 46.6119 70.6781 46.9692 70.4914C47.3319 70.2994 47.7399 70.2034 48.1932 70.2034C48.6465 70.2034 49.0519 70.2994 49.4092 70.4914C49.7665 70.6781 50.0465 70.9394 50.2492 71.2754C50.4519 71.6114 50.5532 71.9927 50.5532 72.4194C50.5532 72.8461 50.4519 73.2274 50.2492 73.5634C50.0465 73.8994 49.7665 74.1634 49.4092 74.3554C49.0519 74.5421 48.6465 74.6354 48.1932 74.6354ZM48.1932 73.6114C48.5132 73.6114 48.7745 73.5047 48.9772 73.2914C49.1852 73.0727 49.2892 72.7821 49.2892 72.4194C49.2892 72.0567 49.1852 71.7687 48.9772 71.5554C48.7745 71.3367 48.5132 71.2274 48.1932 71.2274C47.8732 71.2274 47.6092 71.3367 47.4012 71.5554C47.1932 71.7687 47.0892 72.0567 47.0892 72.4194C47.0892 72.7821 47.1932 73.0727 47.4012 73.2914C47.6092 73.5047 47.8732 73.6114 48.1932 73.6114ZM55.5422 70.2674L53.7262 74.5714H52.4382L50.6302 70.2674H51.9182L53.1102 73.1954L54.3422 70.2674H55.5422ZM60.1503 72.4354C60.1503 72.4514 60.1423 72.5634 60.1263 72.7714H56.8703C56.9289 73.0381 57.0676 73.2487 57.2863 73.4034C57.5049 73.5581 57.7769 73.6354 58.1023 73.6354C58.3263 73.6354 58.5236 73.6034 58.6943 73.5394C58.8703 73.4701 59.0329 73.3634 59.1823 73.2194L59.8463 73.9394C59.4409 74.4034 58.8489 74.6354 58.0703 74.6354C57.5849 74.6354 57.1556 74.5421 56.7823 74.3554C56.4089 74.1634 56.1209 73.8994 55.9183 73.5634C55.7156 73.2274 55.6143 72.8461 55.6143 72.4194C55.6143 71.9981 55.7129 71.6194 55.9103 71.2834C56.1129 70.9421 56.3876 70.6781 56.7343 70.4914C57.0863 70.2994 57.4783 70.2034 57.9103 70.2034C58.3316 70.2034 58.7129 70.2941 59.0543 70.4754C59.3956 70.6567 59.6623 70.9181 59.8543 71.2594C60.0516 71.5954 60.1503 71.9874 60.1503 72.4354ZM57.9183 71.1474C57.6356 71.1474 57.3983 71.2274 57.2063 71.3874C57.0143 71.5474 56.8969 71.7661 56.8543 72.0434H58.9743C58.9316 71.7714 58.8143 71.5554 58.6223 71.3954C58.4303 71.2301 58.1956 71.1474 57.9183 71.1474ZM62.1732 70.8354C62.3225 70.6274 62.5225 70.4701 62.7732 70.3634C63.0292 70.2567 63.3225 70.2034 63.6532 70.2034V71.3554C63.5145 71.3447 63.4212 71.3394 63.3732 71.3394C63.0158 71.3394 62.7358 71.4407 62.5332 71.6434C62.3305 71.8407 62.2292 72.1394 62.2292 72.5394V74.5714H60.9812V70.2674H62.1732V70.8354ZM68.4281 70.2034C69.0948 70.2034 69.6068 70.3634 69.9641 70.6834C70.3214 70.9981 70.5001 71.4754 70.5001 72.1154V74.5714H69.3321V74.0354C69.0974 74.4354 68.6601 74.6354 68.0201 74.6354C67.6894 74.6354 67.4014 74.5794 67.1561 74.4674C66.9161 74.3554 66.7321 74.2007 66.6041 74.0034C66.4761 73.8061 66.4121 73.5821 66.4121 73.3314C66.4121 72.9314 66.5614 72.6167 66.8601 72.3874C67.1641 72.1581 67.6308 72.0434 68.2601 72.0434H69.2521C69.2521 71.7714 69.1694 71.5634 69.0041 71.4194C68.8388 71.2701 68.5908 71.1954 68.2601 71.1954C68.0308 71.1954 67.8041 71.2327 67.5801 71.3074C67.3614 71.3767 67.1748 71.4727 67.0201 71.5954L66.5721 70.7234C66.8068 70.5581 67.0868 70.4301 67.4121 70.3394C67.7428 70.2487 68.0814 70.2034 68.4281 70.2034ZM68.3321 73.7954C68.5454 73.7954 68.7348 73.7474 68.9001 73.6514C69.0654 73.5501 69.1828 73.4034 69.2521 73.2114V72.7714H68.3961C67.8841 72.7714 67.6281 72.9394 67.6281 73.2754C67.6281 73.4354 67.6894 73.5634 67.8121 73.6594C67.9401 73.7501 68.1134 73.7954 68.3321 73.7954ZM72.8216 70.8354C72.9709 70.6274 73.1709 70.4701 73.4216 70.3634C73.6776 70.2567 73.9709 70.2034 74.3016 70.2034V71.3554C74.1629 71.3447 74.0696 71.3394 74.0216 71.3394C73.6643 71.3394 73.3843 71.4407 73.1816 71.6434C72.9789 71.8407 72.8776 72.1394 72.8776 72.5394V74.5714H71.6296V70.2674H72.8216V70.8354ZM76.2357 70.8354C76.385 70.6274 76.585 70.4701 76.8357 70.3634C77.0917 70.2567 77.385 70.2034 77.7157 70.2034V71.3554C77.577 71.3447 77.4837 71.3394 77.4357 71.3394C77.0783 71.3394 76.7983 71.4407 76.5957 71.6434C76.393 71.8407 76.2917 72.1394 76.2917 72.5394V74.5714H75.0437V70.2674H76.2357V70.8354ZM78.4577 70.2674H79.7057V74.5714H78.4577V70.2674ZM79.0817 69.6674C78.8524 69.6674 78.6657 69.6007 78.5217 69.4674C78.3777 69.3341 78.3057 69.1687 78.3057 68.9714C78.3057 68.7741 78.3777 68.6087 78.5217 68.4754C78.6657 68.3421 78.8524 68.2754 79.0817 68.2754C79.311 68.2754 79.4977 68.3394 79.6417 68.4674C79.7857 68.5954 79.8577 68.7554 79.8577 68.9474C79.8577 69.1554 79.7857 69.3287 79.6417 69.4674C79.4977 69.6007 79.311 69.6674 79.0817 69.6674ZM83.408 70.2034C83.808 70.2034 84.1706 70.2967 84.496 70.4834C84.8266 70.6647 85.0853 70.9234 85.272 71.2594C85.4586 71.5901 85.552 71.9767 85.552 72.4194C85.552 72.8621 85.4586 73.2514 85.272 73.5874C85.0853 73.9181 84.8266 74.1767 84.496 74.3634C84.1706 74.5447 83.808 74.6354 83.408 74.6354C82.816 74.6354 82.3653 74.4487 82.056 74.0754V74.5714H80.864V68.6354H82.112V70.7234C82.4266 70.3767 82.8586 70.2034 83.408 70.2034ZM83.192 73.6114C83.512 73.6114 83.7733 73.5047 83.976 73.2914C84.184 73.0727 84.288 72.7821 84.288 72.4194C84.288 72.0567 84.184 71.7687 83.976 71.5554C83.7733 71.3367 83.512 71.2274 83.192 71.2274C82.872 71.2274 82.608 71.3367 82.4 71.5554C82.1973 71.7687 82.096 72.0567 82.096 72.4194C82.096 72.7821 82.1973 73.0727 82.4 73.2914C82.608 73.5047 82.872 73.6114 83.192 73.6114ZM88.0531 70.2034C88.7198 70.2034 89.2318 70.3634 89.5891 70.6834C89.9464 70.9981 90.1251 71.4754 90.1251 72.1154V74.5714H88.9571V74.0354C88.7224 74.4354 88.2851 74.6354 87.6451 74.6354C87.3144 74.6354 87.0264 74.5794 86.7811 74.4674C86.5411 74.3554 86.3571 74.2007 86.2291 74.0034C86.1011 73.8061 86.0371 73.5821 86.0371 73.3314C86.0371 72.9314 86.1864 72.6167 86.4851 72.3874C86.7891 72.1581 87.2558 72.0434 87.8851 72.0434H88.8771C88.8771 71.7714 88.7944 71.5634 88.6291 71.4194C88.4638 71.2701 88.2158 71.1954 87.8851 71.1954C87.6558 71.1954 87.4291 71.2327 87.2051 71.3074C86.9864 71.3767 86.7998 71.4727 86.6451 71.5954L86.1971 70.7234C86.4318 70.5581 86.7118 70.4301 87.0371 70.3394C87.3678 70.2487 87.7064 70.2034 88.0531 70.2034ZM87.9571 73.7954C88.1704 73.7954 88.3598 73.7474 88.5251 73.6514C88.6904 73.5501 88.8078 73.4034 88.8771 73.2114V72.7714H88.0211C87.5091 72.7714 87.2531 72.9394 87.2531 73.2754C87.2531 73.4354 87.3144 73.5634 87.4371 73.6594C87.5651 73.7501 87.7384 73.7954 87.9571 73.7954Z" fill="#333333"/>
<path fill-rule="evenodd" clip-rule="evenodd" d="M170.357 95.1333C170.357 88.0714 164.571 82.281 157.5 82.281C117.753 82.281 101.571 82.2857 101.571 82.2857L96.4285 87.4286H72.6428L66.8571 82.2856H44.4515C37.3801 82.2856 31.5944 88.0715 31.5944 95.1379C31.5944 95.1427 31.5944 95.1475 31.5944 95.1524C31.5944 102.214 37.3801 108 44.4515 108C55.0991 108 66.8572 108 66.8572 108L72.6429 113.143H96.4286L101.571 108H157.594C164.571 108 170.357 102.214 170.357 95.1477C170.357 95.1429 170.357 95.4643 170.357 95.1333Z" fill="#30DCFF"/>
<path fill-rule="evenodd" clip-rule="evenodd" d="M170.357 95.1357C170.357 88.0715 164.571 82.2858 157.406 82.2858C117.659 82.2858 101.571 82.2858 101.571 82.2858L96.4286 87.4286H72.6429L66.8571 82.2858H44.3571C37.2857 82.2858 31.5 88.0715 31.5 95.1357C31.5 95.1404 31.5 95.1429 31.5 95.1429H34.7143C34.7143 88.7143 39.2143 85.5001 44.3571 85.5001C53.784 85.5001 65.5714 85.5001 65.5714 85.5001L71.3571 90.6429H97.7143L102.857 85.5001H157.5C163.286 85.5001 167.143 89.3572 167.143 95.1428L170.357 95.1429V95.1357Z" fill="white" fill-opacity="0.5"/>
<path fill-rule="evenodd" clip-rule="evenodd" d="M170.357 95.1429L167.143 95.1429C167.143 100.91 163.412 104.786 157.5 104.786C120.854 104.786 100.286 104.786 100.286 104.786L95.1429 109.929H73.9286L68.1429 104.786H44.3571C37.6047 104.786 34.7143 100.929 34.7143 95.1439L31.5 95.1429V95.1502C31.5 102.214 37.2857 108 44.3571 108C55.0048 108 66.8571 108 66.8571 108L72.6429 113.143H96.4286L101.571 108H157.5C164.571 108 170.357 102.214 170.357 95.1429Z" fill="black" fill-opacity="0.25"/>
<path d="M43.6886 100.286L43.6806 96.9258L42.0326 99.6938H41.4486L39.8086 96.9978V100.286H38.5926V94.6858H39.6646L41.7606 98.1658L43.8246 94.6858H44.8886L44.9046 100.286H43.6886ZM48.1932 100.35C47.7399 100.35 47.3319 100.256 46.9692 100.07C46.6119 99.8778 46.3319 99.6138 46.1292 99.2778C45.9265 98.9418 45.8252 98.5604 45.8252 98.1338C45.8252 97.7071 45.9265 97.3258 46.1292 96.9898C46.3319 96.6538 46.6119 96.3924 46.9692 96.2058C47.3319 96.0138 47.7399 95.9178 48.1932 95.9178C48.6465 95.9178 49.0519 96.0138 49.4092 96.2058C49.7665 96.3924 50.0465 96.6538 50.2492 96.9898C50.4519 97.3258 50.5532 97.7071 50.5532 98.1338C50.5532 98.5604 50.4519 98.9418 50.2492 99.2778C50.0465 99.6138 49.7665 99.8778 49.4092 100.07C49.0519 100.256 48.6465 100.35 48.1932 100.35ZM48.1932 99.3258C48.5132 99.3258 48.7745 99.2191 48.9772 99.0058C49.1852 98.7871 49.2892 98.4964 49.2892 98.1338C49.2892 97.7711 49.1852 97.4831 48.9772 97.2698C48.7745 97.0511 48.5132 96.9418 48.1932 96.9418C47.8732 96.9418 47.6092 97.0511 47.4012 97.2698C47.1932 97.4831 47.0892 97.7711 47.0892 98.1338C47.0892 98.4964 47.1932 98.7871 47.4012 99.0058C47.6092 99.2191 47.8732 99.3258 48.1932 99.3258ZM55.5422 95.9818L53.7262 100.286H52.4382L50.6302 95.9818H51.9182L53.1102 98.9098L54.3422 95.9818H55.5422ZM60.1503 98.1498C60.1503 98.1658 60.1423 98.2778 60.1263 98.4858H56.8703C56.9289 98.7524 57.0676 98.9631 57.2863 99.1178C57.5049 99.2724 57.7769 99.3498 58.1023 99.3498C58.3263 99.3498 58.5236 99.3178 58.6943 99.2538C58.8703 99.1844 59.0329 99.0778 59.1823 98.9338L59.8463 99.6538C59.4409 100.118 58.8489 100.35 58.0703 100.35C57.5849 100.35 57.1556 100.256 56.7823 100.07C56.4089 99.8778 56.1209 99.6138 55.9183 99.2778C55.7156 98.9418 55.6143 98.5604 55.6143 98.1338C55.6143 97.7124 55.7129 97.3338 55.9103 96.9978C56.1129 96.6564 56.3876 96.3924 56.7343 96.2058C57.0863 96.0138 57.4783 95.9178 57.9103 95.9178C58.3316 95.9178 58.7129 96.0084 59.0543 96.1898C59.3956 96.3711 59.6623 96.6324 59.8543 96.9738C60.0516 97.3098 60.1503 97.7018 60.1503 98.1498ZM57.9183 96.8618C57.6356 96.8618 57.3983 96.9418 57.2063 97.1018C57.0143 97.2618 56.8969 97.4804 56.8543 97.7578H58.9743C58.9316 97.4858 58.8143 97.2698 58.6223 97.1098C58.4303 96.9444 58.1956 96.8618 57.9183 96.8618ZM62.1732 96.5498C62.3225 96.3418 62.5225 96.1844 62.7732 96.0778C63.0292 95.9711 63.3225 95.9178 63.6532 95.9178V97.0698C63.5145 97.0591 63.4212 97.0538 63.3732 97.0538C63.0158 97.0538 62.7358 97.1551 62.5332 97.3578C62.3305 97.5551 62.2292 97.8538 62.2292 98.2538V100.286H60.9812V95.9818H62.1732V96.5498ZM68.4281 95.9178C69.0948 95.9178 69.6068 96.0778 69.9641 96.3978C70.3214 96.7124 70.5001 97.1898 70.5001 97.8298V100.286H69.3321V99.7498C69.0974 100.15 68.6601 100.35 68.0201 100.35C67.6894 100.35 67.4014 100.294 67.1561 100.182C66.9161 100.07 66.7321 99.9151 66.6041 99.7178C66.4761 99.5204 66.4121 99.2964 66.4121 99.0458C66.4121 98.6458 66.5614 98.3311 66.8601 98.1018C67.1641 97.8724 67.6308 97.7578 68.2601 97.7578H69.2521C69.2521 97.4858 69.1694 97.2778 69.0041 97.1338C68.8388 96.9844 68.5908 96.9098 68.2601 96.9098C68.0308 96.9098 67.8041 96.9471 67.5801 97.0218C67.3614 97.0911 67.1748 97.1871 67.0201 97.3098L66.5721 96.4378C66.8068 96.2724 67.0868 96.1444 67.4121 96.0538C67.7428 95.9631 68.0814 95.9178 68.4281 95.9178ZM68.3321 99.5098C68.5454 99.5098 68.7348 99.4618 68.9001 99.3658C69.0654 99.2644 69.1828 99.1178 69.2521 98.9258V98.4858H68.3961C67.8841 98.4858 67.6281 98.6538 67.6281 98.9898C67.6281 99.1498 67.6894 99.2778 67.8121 99.3738C67.9401 99.4644 68.1134 99.5098 68.3321 99.5098ZM72.8216 96.5498C72.9709 96.3418 73.1709 96.1844 73.4216 96.0778C73.6776 95.9711 73.9709 95.9178 74.3016 95.9178V97.0698C74.1629 97.0591 74.0696 97.0538 74.0216 97.0538C73.6643 97.0538 73.3843 97.1551 73.1816 97.3578C72.9789 97.5551 72.8776 97.8538 72.8776 98.2538V100.286H71.6296V95.9818H72.8216V96.5498ZM76.2357 96.5498C76.385 96.3418 76.585 96.1844 76.8357 96.0778C77.0917 95.9711 77.385 95.9178 77.7157 95.9178V97.0698C77.577 97.0591 77.4837 97.0538 77.4357 97.0538C77.0783 97.0538 76.7983 97.1551 76.5957 97.3578C76.393 97.5551 76.2917 97.8538 76.2917 98.2538V100.286H75.0437V95.9818H76.2357V96.5498ZM78.4577 95.9818H79.7057V100.286H78.4577V95.9818ZM79.0817 95.3818C78.8524 95.3818 78.6657 95.3151 78.5217 95.1818C78.3777 95.0484 78.3057 94.8831 78.3057 94.6858C78.3057 94.4884 78.3777 94.3231 78.5217 94.1898C78.6657 94.0564 78.8524 93.9898 79.0817 93.9898C79.311 93.9898 79.4977 94.0538 79.6417 94.1818C79.7857 94.3098 79.8577 94.4698 79.8577 94.6618C79.8577 94.8698 79.7857 95.0431 79.6417 95.1818C79.4977 95.3151 79.311 95.3818 79.0817 95.3818ZM83.408 95.9178C83.808 95.9178 84.1706 96.0111 84.496 96.1978C84.8266 96.3791 85.0853 96.6378 85.272 96.9738C85.4586 97.3044 85.552 97.6911 85.552 98.1338C85.552 98.5764 85.4586 98.9658 85.272 99.3018C85.0853 99.6324 84.8266 99.8911 84.496 100.078C84.1706 100.259 83.808 100.35 83.408 100.35C82.816 100.35 82.3653 100.163 82.056 99.7898V100.286H80.864V94.3498H82.112V96.4378C82.4266 96.0911 82.8586 95.9178 83.408 95.9178ZM83.192 99.3258C83.512 99.3258 83.7733 99.2191 83.976 99.0058C84.184 98.7871 84.288 98.4964 84.288 98.1338C84.288 97.7711 84.184 97.4831 83.976 97.2698C83.7733 97.0511 83.512 96.9418 83.192 96.9418C82.872 96.9418 82.608 97.0511 82.4 97.2698C82.1973 97.4831 82.096 97.7711 82.096 98.1338C82.096 98.4964 82.1973 98.7871 82.4 99.0058C82.608 99.2191 82.872 99.3258 83.192 99.3258ZM88.0531 95.9178C88.7198 95.9178 89.2318 96.0778 89.5891 96.3978C89.9464 96.7124 90.1251 97.1898 90.1251 97.8298V100.286H88.9571V99.7498C88.7224 100.15 88.2851 100.35 87.6451 100.35C87.3144 100.35 87.0264 100.294 86.7811 100.182C86.5411 100.07 86.3571 99.9151 86.2291 99.7178C86.1011 99.5204 86.0371 99.2964 86.0371 99.0458C86.0371 98.6458 86.1864 98.3311 86.4851 98.1018C86.7891 97.8724 87.2558 97.7578 87.8851 97.7578H88.8771C88.8771 97.4858 88.7944 97.2778 88.6291 97.1338C88.4638 96.9844 88.2158 96.9098 87.8851 96.9098C87.6558 96.9098 87.4291 96.9471 87.2051 97.0218C86.9864 97.0911 86.7998 97.1871 86.6451 97.3098L86.1971 96.4378C86.4318 96.2724 86.7118 96.1444 87.0371 96.0538C87.3678 95.9631 87.7064 95.9178 88.0531 95.9178ZM87.9571 99.5098C88.1704 99.5098 88.3598 99.4618 88.5251 99.3658C88.6904 99.2644 88.8078 99.1178 88.8771 98.9258V98.4858H88.0211C87.5091 98.4858 87.2531 98.6538 87.2531 98.9898C87.2531 99.1498 87.3144 99.2778 87.4371 99.3738C87.5651 99.4644 87.7384 99.5098 87.9571 99.5098Z" fill="#333333"/>
<path fill-rule="evenodd" clip-rule="evenodd" d="M170.357 120.848C170.357 113.786 164.571 107.995 157.5 107.995C117.753 107.995 101.571 108 101.571 108L96.4285 113.143H72.6428L66.8571 108H44.4515C37.3801 108 31.5944 113.786 31.5944 120.852C31.5944 120.857 31.5944 120.862 31.5944 120.867C31.5944 127.929 37.3801 133.714 44.4515 133.714C55.0991 133.714 66.8572 133.714 66.8572 133.714L72.6429 138.857H96.4286L101.571 133.714H157.594C164.571 133.714 170.357 127.929 170.357 120.862C170.357 120.857 170.357 121.179 170.357 120.848Z" fill="#30DCFF"/>
<path fill-rule="evenodd" clip-rule="evenodd" d="M170.357 120.85C170.357 113.786 164.571 108 157.406 108C117.659 108 101.571 108 101.571 108L96.4286 113.143H72.6429L66.8571 108H44.3571C37.2857 108 31.5 113.786 31.5 120.85C31.5 120.855 31.5 120.857 31.5 120.857H34.7143C34.7143 114.429 39.2143 111.214 44.3571 111.214C53.784 111.214 65.5714 111.214 65.5714 111.214L71.3571 116.357H97.7143L102.857 111.214H157.5C163.286 111.214 167.143 115.071 167.143 120.857L170.357 120.857V120.85Z" fill="white" fill-opacity="0.5"/>
<path fill-rule="evenodd" clip-rule="evenodd" d="M170.357 120.857L167.143 120.857C167.143 126.624 163.412 130.5 157.5 130.5C120.854 130.5 100.286 130.5 100.286 130.5L95.1429 135.643H73.9286L68.1429 130.5H44.3571C37.6047 130.5 34.7143 126.643 34.7143 120.858L31.5 120.857V120.864C31.5 127.929 37.2857 133.714 44.3571 133.714C55.0048 133.714 66.8571 133.714 66.8571 133.714L72.6429 138.857H96.4286L101.571 133.714H157.5C164.571 133.714 170.357 127.929 170.357 120.857Z" fill="black" fill-opacity="0.25"/>
<path d="M43.6886 126L43.6806 122.64L42.0326 125.408H41.4486L39.8086 122.712V126H38.5926V120.4H39.6646L41.7606 123.88L43.8246 120.4H44.8886L44.9046 126H43.6886ZM48.1932 126.064C47.7399 126.064 47.3319 125.971 46.9692 125.784C46.6119 125.592 46.3319 125.328 46.1292 124.992C45.9265 124.656 45.8252 124.275 45.8252 123.848C45.8252 123.421 45.9265 123.04 46.1292 122.704C46.3319 122.368 46.6119 122.107 46.9692 121.92C47.3319 121.728 47.7399 121.632 48.1932 121.632C48.6465 121.632 49.0519 121.728 49.4092 121.92C49.7665 122.107 50.0465 122.368 50.2492 122.704C50.4519 123.04 50.5532 123.421 50.5532 123.848C50.5532 124.275 50.4519 124.656 50.2492 124.992C50.0465 125.328 49.7665 125.592 49.4092 125.784C49.0519 125.971 48.6465 126.064 48.1932 126.064ZM48.1932 125.04C48.5132 125.04 48.7745 124.933 48.9772 124.72C49.1852 124.501 49.2892 124.211 49.2892 123.848C49.2892 123.485 49.1852 123.197 48.9772 122.984C48.7745 122.765 48.5132 122.656 48.1932 122.656C47.8732 122.656 47.6092 122.765 47.4012 122.984C47.1932 123.197 47.0892 123.485 47.0892 123.848C47.0892 124.211 47.1932 124.501 47.4012 124.72C47.6092 124.933 47.8732 125.04 48.1932 125.04ZM55.5422 121.696L53.7262 126H52.4382L50.6302 121.696H51.9182L53.1102 124.624L54.3422 121.696H55.5422ZM60.1503 123.864C60.1503 123.88 60.1423 123.992 60.1263 124.2H56.8703C56.9289 124.467 57.0676 124.677 57.2863 124.832C57.5049 124.987 57.7769 125.064 58.1023 125.064C58.3263 125.064 58.5236 125.032 58.6943 124.968C58.8703 124.899 59.0329 124.792 59.1823 124.648L59.8463 125.368C59.4409 125.832 58.8489 126.064 58.0703 126.064C57.5849 126.064 57.1556 125.971 56.7823 125.784C56.4089 125.592 56.1209 125.328 55.9183 124.992C55.7156 124.656 55.6143 124.275 55.6143 123.848C55.6143 123.427 55.7129 123.048 55.9103 122.712C56.1129 122.371 56.3876 122.107 56.7343 121.92C57.0863 121.728 57.4783 121.632 57.9103 121.632C58.3316 121.632 58.7129 121.723 59.0543 121.904C59.3956 122.085 59.6623 122.347 59.8543 122.688C60.0516 123.024 60.1503 123.416 60.1503 123.864ZM57.9183 122.576C57.6356 122.576 57.3983 122.656 57.2063 122.816C57.0143 122.976 56.8969 123.195 56.8543 123.472H58.9743C58.9316 123.2 58.8143 122.984 58.6223 122.824C58.4303 122.659 58.1956 122.576 57.9183 122.576ZM62.1732 122.264C62.3225 122.056 62.5225 121.899 62.7732 121.792C63.0292 121.685 63.3225 121.632 63.6532 121.632V122.784C63.5145 122.773 63.4212 122.768 63.3732 122.768C63.0158 122.768 62.7358 122.869 62.5332 123.072C62.3305 123.269 62.2292 123.568 62.2292 123.968V126H60.9812V121.696H62.1732V122.264ZM68.4281 121.632C69.0948 121.632 69.6068 121.792 69.9641 122.112C70.3214 122.427 70.5001 122.904 70.5001 123.544V126H69.3321V125.464C69.0974 125.864 68.6601 126.064 68.0201 126.064C67.6894 126.064 67.4014 126.008 67.1561 125.896C66.9161 125.784 66.7321 125.629 66.6041 125.432C66.4761 125.235 66.4121 125.011 66.4121 124.76C66.4121 124.36 66.5614 124.045 66.8601 123.816C67.1641 123.587 67.6308 123.472 68.2601 123.472H69.2521C69.2521 123.2 69.1694 122.992 69.0041 122.848C68.8388 122.699 68.5908 122.624 68.2601 122.624C68.0308 122.624 67.8041 122.661 67.5801 122.736C67.3614 122.805 67.1748 122.901 67.0201 123.024L66.5721 122.152C66.8068 121.987 67.0868 121.859 67.4121 121.768C67.7428 121.677 68.0814 121.632 68.4281 121.632ZM68.3321 125.224C68.5454 125.224 68.7348 125.176 68.9001 125.08C69.0654 124.979 69.1828 124.832 69.2521 124.64V124.2H68.3961C67.8841 124.2 67.6281 124.368 67.6281 124.704C67.6281 124.864 67.6894 124.992 67.8121 125.088C67.9401 125.179 68.1134 125.224 68.3321 125.224ZM72.8216 122.264C72.9709 122.056 73.1709 121.899 73.4216 121.792C73.6776 121.685 73.9709 121.632 74.3016 121.632V122.784C74.1629 122.773 74.0696 122.768 74.0216 122.768C73.6643 122.768 73.3843 122.869 73.1816 123.072C72.9789 123.269 72.8776 123.568 72.8776 123.968V126H71.6296V121.696H72.8216V122.264ZM76.2357 122.264C76.385 122.056 76.585 121.899 76.8357 121.792C77.0917 121.685 77.385 121.632 77.7157 121.632V122.784C77.577 122.773 77.4837 122.768 77.4357 122.768C77.0783 122.768 76.7983 122.869 76.5957 123.072C76.393 123.269 76.2917 123.568 76.2917 123.968V126H75.0437V121.696H76.2357V122.264ZM78.4577 121.696H79.7057V126H78.4577V121.696ZM79.0817 121.096C78.8524 121.096 78.6657 121.029 78.5217 120.896C78.3777 120.763 78.3057 120.597 78.3057 120.4C78.3057 120.203 78.3777 120.037 78.5217 119.904C78.6657 119.771 78.8524 119.704 79.0817 119.704C79.311 119.704 79.4977 119.768 79.6417 119.896C79.7857 120.024 79.8577 120.184 79.8577 120.376C79.8577 120.584 79.7857 120.757 79.6417 120.896C79.4977 121.029 79.311 121.096 79.0817 121.096ZM83.408 121.632C83.808 121.632 84.1706 121.725 84.496 121.912C84.8266 122.093 85.0853 122.352 85.272 122.688C85.4586 123.019 85.552 123.405 85.552 123.848C85.552 124.291 85.4586 124.68 85.272 125.016C85.0853 125.347 84.8266 125.605 84.496 125.792C84.1706 125.973 83.808 126.064 83.408 126.064C82.816 126.064 82.3653 125.877 82.056 125.504V126H80.864V120.064H82.112V122.152C82.4266 121.805 82.8586 121.632 83.408 121.632ZM83.192 125.04C83.512 125.04 83.7733 124.933 83.976 124.72C84.184 124.501 84.288 124.211 84.288 123.848C84.288 123.485 84.184 123.197 83.976 122.984C83.7733 122.765 83.512 122.656 83.192 122.656C82.872 122.656 82.608 122.765 82.4 122.984C82.1973 123.197 82.096 123.485 82.096 123.848C82.096 124.211 82.1973 124.501 82.4 124.72C82.608 124.933 82.872 125.04 83.192 125.04ZM88.0531 121.632C88.7198 121.632 89.2318 121.792 89.5891 122.112C89.9464 122.427 90.1251 122.904 90.1251 123.544V126H88.9571V125.464C88.7224 125.864 88.2851 126.064 87.6451 126.064C87.3144 126.064 87.0264 126.008 86.7811 125.896C86.5411 125.784 86.3571 125.629 86.2291 125.432C86.1011 125.235 86.0371 125.011 86.0371 124.76C86.0371 124.36 86.1864 124.045 86.4851 123.816C86.7891 123.587 87.2558 123.472 87.8851 123.472H88.8771C88.8771 123.2 88.7944 122.992 88.6291 122.848C88.4638 122.699 88.2158 122.624 87.8851 122.624C87.6558 122.624 87.4291 122.661 87.2051 122.736C86.9864 122.805 86.7998 122.901 86.6451 123.024L86.1971 122.152C86.4318 121.987 86.7118 121.859 87.0371 121.768C87.3678 121.677 87.7064 121.632 88.0531 121.632ZM87.9571 125.224C88.1704 125.224 88.3598 125.176 88.5251 125.08C88.6904 124.979 88.8078 124.832 88.8771 124.64V124.2H88.0211C87.5091 124.2 87.2531 124.368 87.2531 124.704C87.2531 124.864 87.3144 124.992 87.4371 125.088C87.5651 125.179 87.7384 125.224 87.9571 125.224Z" fill="#333333"/>
<path fill-rule="evenodd" clip-rule="evenodd" d="M170.357 146.562C170.357 139.5 164.571 133.709 157.5 133.709C117.753 133.709 101.571 133.714 101.571 133.714L96.4285 138.857H72.6428L66.8571 133.714H44.4515C37.3801 133.714 31.5944 139.5 31.5944 146.566C31.5944 146.571 31.5944 146.576 31.5944 146.581C31.5944 153.643 37.3801 159.428 44.4515 159.428C55.0991 159.428 66.8572 159.428 66.8572 159.428L72.6429 164.571H96.4286L101.571 159.428H157.594C164.571 159.428 170.357 153.643 170.357 146.576C170.357 146.571 170.357 146.893 170.357 146.562Z" fill="#30DCFF"/>
<path fill-rule="evenodd" clip-rule="evenodd" d="M170.357 146.564C170.357 139.5 164.571 133.714 157.406 133.714C117.659 133.714 101.571 133.714 101.571 133.714L96.4286 138.857H72.6429L66.8571 133.714H44.3571C37.2857 133.714 31.5 139.5 31.5 146.564C31.5 146.569 31.5 146.571 31.5 146.571H34.7143C34.7143 140.143 39.2143 136.929 44.3571 136.929C53.784 136.929 65.5714 136.929 65.5714 136.929L71.3571 142.071H97.7143L102.857 136.929H157.5C163.286 136.929 167.143 140.786 167.143 146.571L170.357 146.571V146.564Z" fill="white" fill-opacity="0.5"/>
<path fill-rule="evenodd" clip-rule="evenodd" d="M170.357 146.571L167.143 146.571C167.143 152.339 163.412 156.214 157.5 156.214C120.854 156.214 100.286 156.214 100.286 156.214L95.1429 161.357H73.9286L68.1429 156.214H44.3571C37.6047 156.214 34.7143 152.357 34.7143 146.572L31.5 146.571V146.579C31.5 153.643 37.2857 159.429 44.3571 159.429C55.0048 159.429 66.8571 159.429 66.8571 159.429L72.6429 164.571H96.4286L101.571 159.429H157.5C164.571 159.429 170.357 153.643 170.357 146.571Z" fill="black" fill-opacity="0.25"/>
<path d="M43.6886 151.714L43.6806 148.354L42.0326 151.122H41.4486L39.8086 148.426V151.714H38.5926V146.114H39.6646L41.7606 149.594L43.8246 146.114H44.8886L44.9046 151.714H43.6886ZM48.1932 151.778C47.7399 151.778 47.3319 151.685 46.9692 151.498C46.6119 151.306 46.3319 151.042 46.1292 150.706C45.9265 150.37 45.8252 149.989 45.8252 149.562C45.8252 149.136 45.9265 148.754 46.1292 148.418C46.3319 148.082 46.6119 147.821 46.9692 147.634C47.3319 147.442 47.7399 147.346 48.1932 147.346C48.6465 147.346 49.0519 147.442 49.4092 147.634C49.7665 147.821 50.0465 148.082 50.2492 148.418C50.4519 148.754 50.5532 149.136 50.5532 149.562C50.5532 149.989 50.4519 150.37 50.2492 150.706C50.0465 151.042 49.7665 151.306 49.4092 151.498C49.0519 151.685 48.6465 151.778 48.1932 151.778ZM48.1932 150.754C48.5132 150.754 48.7745 150.648 48.9772 150.434C49.1852 150.216 49.2892 149.925 49.2892 149.562C49.2892 149.2 49.1852 148.912 48.9772 148.698C48.7745 148.48 48.5132 148.37 48.1932 148.37C47.8732 148.37 47.6092 148.48 47.4012 148.698C47.1932 148.912 47.0892 149.2 47.0892 149.562C47.0892 149.925 47.1932 150.216 47.4012 150.434C47.6092 150.648 47.8732 150.754 48.1932 150.754ZM55.5422 147.41L53.7262 151.714H52.4382L50.6302 147.41H51.9182L53.1102 150.338L54.3422 147.41H55.5422ZM60.1503 149.578C60.1503 149.594 60.1423 149.706 60.1263 149.914H56.8703C56.9289 150.181 57.0676 150.392 57.2863 150.546C57.5049 150.701 57.7769 150.778 58.1023 150.778C58.3263 150.778 58.5236 150.746 58.6943 150.682C58.8703 150.613 59.0329 150.506 59.1823 150.362L59.8463 151.082C59.4409 151.546 58.8489 151.778 58.0703 151.778C57.5849 151.778 57.1556 151.685 56.7823 151.498C56.4089 151.306 56.1209 151.042 55.9183 150.706C55.7156 150.37 55.6143 149.989 55.6143 149.562C55.6143 149.141 55.7129 148.762 55.9103 148.426C56.1129 148.085 56.3876 147.821 56.7343 147.634C57.0863 147.442 57.4783 147.346 57.9103 147.346C58.3316 147.346 58.7129 147.437 59.0543 147.618C59.3956 147.8 59.6623 148.061 59.8543 148.402C60.0516 148.738 60.1503 149.13 60.1503 149.578ZM57.9183 148.29C57.6356 148.29 57.3983 148.37 57.2063 148.53C57.0143 148.69 56.8969 148.909 56.8543 149.186H58.9743C58.9316 148.914 58.8143 148.698 58.6223 148.538C58.4303 148.373 58.1956 148.29 57.9183 148.29ZM62.1732 147.978C62.3225 147.77 62.5225 147.613 62.7732 147.506C63.0292 147.4 63.3225 147.346 63.6532 147.346V148.498C63.5145 148.488 63.4212 148.482 63.3732 148.482C63.0158 148.482 62.7358 148.584 62.5332 148.786C62.3305 148.984 62.2292 149.282 62.2292 149.682V151.714H60.9812V147.41H62.1732V147.978ZM68.4281 147.346C69.0948 147.346 69.6068 147.506 69.9641 147.826C70.3214 148.141 70.5001 148.618 70.5001 149.258V151.714H69.3321V151.178C69.0974 151.578 68.6601 151.778 68.0201 151.778C67.6894 151.778 67.4014 151.722 67.1561 151.61C66.9161 151.498 66.7321 151.344 66.6041 151.146C66.4761 150.949 66.4121 150.725 66.4121 150.474C66.4121 150.074 66.5614 149.76 66.8601 149.53C67.1641 149.301 67.6308 149.186 68.2601 149.186H69.2521C69.2521 148.914 69.1694 148.706 69.0041 148.562C68.8388 148.413 68.5908 148.338 68.2601 148.338C68.0308 148.338 67.8041 148.376 67.5801 148.45C67.3614 148.52 67.1748 148.616 67.0201 148.738L66.5721 147.866C66.8068 147.701 67.0868 147.573 67.4121 147.482C67.7428 147.392 68.0814 147.346 68.4281 147.346ZM68.3321 150.938C68.5454 150.938 68.7348 150.89 68.9001 150.794C69.0654 150.693 69.1828 150.546 69.2521 150.354V149.914H68.3961C67.8841 149.914 67.6281 150.082 67.6281 150.418C67.6281 150.578 67.6894 150.706 67.8121 150.802C67.9401 150.893 68.1134 150.938 68.3321 150.938ZM72.8216 147.978C72.9709 147.77 73.1709 147.613 73.4216 147.506C73.6776 147.4 73.9709 147.346 74.3016 147.346V148.498C74.1629 148.488 74.0696 148.482 74.0216 148.482C73.6643 148.482 73.3843 148.584 73.1816 148.786C72.9789 148.984 72.8776 149.282 72.8776 149.682V151.714H71.6296V147.41H72.8216V147.978ZM76.2357 147.978C76.385 147.77 76.585 147.613 76.8357 147.506C77.0917 147.4 77.385 147.346 77.7157 147.346V148.498C77.577 148.488 77.4837 148.482 77.4357 148.482C77.0783 148.482 76.7983 148.584 76.5957 148.786C76.393 148.984 76.2917 149.282 76.2917 149.682V151.714H75.0437V147.41H76.2357V147.978ZM78.4577 147.41H79.7057V151.714H78.4577V147.41ZM79.0817 146.81C78.8524 146.81 78.6657 146.744 78.5217 146.61C78.3777 146.477 78.3057 146.312 78.3057 146.114C78.3057 145.917 78.3777 145.752 78.5217 145.618C78.6657 145.485 78.8524 145.418 79.0817 145.418C79.311 145.418 79.4977 145.482 79.6417 145.61C79.7857 145.738 79.8577 145.898 79.8577 146.09C79.8577 146.298 79.7857 146.472 79.6417 146.61C79.4977 146.744 79.311 146.81 79.0817 146.81ZM83.408 147.346C83.808 147.346 84.1706 147.44 84.496 147.626C84.8266 147.808 85.0853 148.066 85.272 148.402C85.4586 148.733 85.552 149.12 85.552 149.562C85.552 150.005 85.4586 150.394 85.272 150.73C85.0853 151.061 84.8266 151.32 84.496 151.506C84.1706 151.688 83.808 151.778 83.408 151.778C82.816 151.778 82.3653 151.592 82.056 151.218V151.714H80.864V145.778H82.112V147.866C82.4266 147.52 82.8586 147.346 83.408 147.346ZM83.192 150.754C83.512 150.754 83.7733 150.648 83.976 150.434C84.184 150.216 84.288 149.925 84.288 149.562C84.288 149.2 84.184 148.912 83.976 148.698C83.7733 148.48 83.512 148.37 83.192 148.37C82.872 148.37 82.608 148.48 82.4 148.698C82.1973 148.912 82.096 149.2 82.096 149.562C82.096 149.925 82.1973 150.216 82.4 150.434C82.608 150.648 82.872 150.754 83.192 150.754ZM88.0531 147.346C88.7198 147.346 89.2318 147.506 89.5891 147.826C89.9464 148.141 90.1251 148.618 90.1251 149.258V151.714H88.9571V151.178C88.7224 151.578 88.2851 151.778 87.6451 151.778C87.3144 151.778 87.0264 151.722 86.7811 151.61C86.5411 151.498 86.3571 151.344 86.2291 151.146C86.1011 150.949 86.0371 150.725 86.0371 150.474C86.0371 150.074 86.1864 149.76 86.4851 149.53C86.7891 149.301 87.2558 149.186 87.8851 149.186H88.8771C88.8771 148.914 88.7944 148.706 88.6291 148.562C88.4638 148.413 88.2158 148.338 87.8851 148.338C87.6558 148.338 87.4291 148.376 87.2051 148.45C86.9864 148.52 86.7998 148.616 86.6451 148.738L86.1971 147.866C86.4318 147.701 86.7118 147.573 87.0371 147.482C87.3678 147.392 87.7064 147.346 88.0531 147.346ZM87.9571 150.938C88.1704 150.938 88.3598 150.89 88.5251 150.794C88.6904 150.693 88.8078 150.546 88.8771 150.354V149.914H88.0211C87.5091 149.914 87.2531 150.082 87.2531 150.418C87.2531 150.578 87.3144 150.706 87.4371 150.802C87.5651 150.893 87.7384 150.938 87.9571 150.938Z" fill="#333333"/>
</g>
<defs>
<filter id="filter0_d_4727_130951" x="0" y="0" width="180" height="182.571" filterUnits="userSpaceOnUse" color-interpolation-filters="sRGB">
<feFlood flood-opacity="0" result="BackgroundImageFix"/>
<feColorMatrix in="SourceAlpha" type="matrix" values="0 0 0 0 0 0 0 0 0 0 0 0 0 0 0 0 0 0 127 0" result="hardAlpha"/>
<feOffset dy="2.57143"/>
<feColorMatrix type="matrix" values="0 0 0 0 0 0 0 0 0 0 0 0 0 0 0 0 0 0 0.25 0"/>
<feBlend mode="normal" in2="BackgroundImageFix" result="effect1_dropShadow_4727_130951"/>
<feBlend mode="normal" in="SourceGraphic" in2="effect1_dropShadow_4727_130951" result="shape"/>
</filter>
</defs>
</svg>
