<svg width="26" height="20" viewBox="0 0 26 20" fill="none" xmlns="http://www.w3.org/2000/svg">
<path d="M26 6.44715C26 13.3076 17.4953 20 13.0405 20C8.58567 20 0 13.2249 0 6.44715C0 2.4 2.6729 0 6.56075 0C10.2056 0 11.6636 1.98374 13.0405 3.38889C14.3364 2.0664 16.6044 0 19.5203 0C22.8411 0 26 2.47967 26 6.44715Z" fill="#00D8CC"/>
<path d="M24 6.80244C24 12.9768 16.8037 19 13.0343 19C9.2648 19 2 12.9024 2 6.80244C2 3.16 4.26168 1 7.5514 1C10.6355 1 11.8692 2.78537 13.0343 4.05C14.1308 2.85976 16.0498 1 18.5171 1C21.3271 1 24 3.23171 24 6.80244Z" fill="#008E86"/>
</svg>
