<svg width="32" height="34" viewBox="0 0 32 34" fill="none" xmlns="http://www.w3.org/2000/svg">
<path fill-rule="evenodd" clip-rule="evenodd" d="M7.27086 29.1628C2.97086 26.3228 0.130859 21.446 0.130859 15.9108C0.130859 7.15155 7.24286 0.0395508 16.0021 0.0395508C24.7613 0.0395508 31.8733 7.15155 31.8733 15.9108C31.8733 21.446 29.0333 26.3228 24.7333 29.1628V31.7772C24.7333 32.3556 24.5037 32.9108 24.0941 33.3204C23.6853 33.73 23.1301 33.9596 22.5509 33.9596C22.5509 33.9596 22.5509 33.9596 22.5501 33.9596C21.9717 33.9596 21.4165 33.73 21.0069 33.3204C20.5981 32.9108 20.3677 32.3556 20.3677 31.7772V31.1724V31.7772C20.3677 32.3556 20.1381 32.9108 19.7285 33.3204C19.3189 33.73 18.7645 33.9596 18.1853 33.9596H18.1845C17.6061 33.9596 17.0509 33.73 16.6413 33.3204C16.2333 32.9124 16.0037 32.3588 16.0021 31.782C16.0005 32.3588 15.7709 32.9124 15.3629 33.3204C14.9533 33.73 14.3981 33.9596 13.8197 33.9596H13.8189C13.2397 33.9596 12.6853 33.73 12.2757 33.3204C11.8661 32.9108 11.6365 32.3556 11.6365 31.7772V31.1724V31.7772C11.6365 32.3556 11.4061 32.9108 10.9973 33.3204C10.5877 33.73 10.0325 33.9596 9.45406 33.9596C9.45326 33.9596 9.45326 33.9596 9.45326 33.9596C8.87406 33.9596 8.31886 33.73 7.91006 33.3204C7.50046 32.9108 7.27086 32.3556 7.27086 31.7772V29.1628ZM13.5717 23.1692C14.0317 22.2484 14.9725 21.6668 16.0021 21.6668C17.0317 21.6668 17.9725 22.2484 18.4325 23.1692C18.4333 23.17 18.4333 23.1708 18.4341 23.1716C18.7141 23.7324 18.6845 24.398 18.3549 24.9308C18.0253 25.4636 17.4437 25.7884 16.8165 25.7884C16.2813 25.7884 15.7229 25.7884 15.1877 25.7884C14.5605 25.7884 13.9789 25.4636 13.6493 24.9308C13.3197 24.398 13.2901 23.7324 13.5701 23.1716C13.5709 23.1708 13.5709 23.17 13.5717 23.1692ZM24.4749 11.5788C24.7821 11.7468 25.0637 11.958 25.3117 12.206C26.7549 13.6492 26.7549 15.9924 25.3117 17.4364C23.8685 18.8796 21.5253 18.8796 20.0813 17.4364C19.8341 17.1884 19.6229 16.9068 19.4541 16.5996L24.4749 11.5788ZM7.52926 11.5788C7.22206 11.7468 6.94046 11.958 6.69246 12.206C5.24926 13.6492 5.24926 15.9924 6.69246 17.4364C8.13566 18.8796 10.4789 18.8796 11.9229 17.4364C12.1701 17.1884 12.3813 16.9068 12.5501 16.5996L7.52926 11.5788Z" fill="#FF7171"/>
</svg>
