<svg width="536" height="536" viewBox="0 0 536 536" fill="none" xmlns="http://www.w3.org/2000/svg">
<path d="M4.58545 531.414L4.58544 320.683" stroke="#008E86" stroke-width="8" stroke-linecap="round"/>
<path d="M4.58545 268L4.58544 4.58502" stroke="#008E86" stroke-width="8" stroke-linecap="round"/>
<path d="M57.2683 268L57.2683 215.317" stroke="#008E86" stroke-width="8" stroke-linecap="round"/>
<path d="M57.2683 162.634L57.2683 4.58499" stroke="#008E86" stroke-width="8" stroke-linecap="round"/>
<path d="M109.951 478.731L109.951 373.365" stroke="#008E86" stroke-width="8" stroke-linecap="round"/>
<path d="M162.634 268L162.634 162.634" stroke="#008E86" stroke-width="8" stroke-linecap="round"/>
<path d="M162.634 109.951L162.634 57.2679" stroke="#008E86" stroke-width="8" stroke-linecap="round"/>
<path d="M215.317 478.731L215.317 373.365" stroke="#008E86" stroke-width="8" stroke-linecap="round"/>
<path d="M215.317 320.682L215.317 215.317" stroke="#008E86" stroke-width="8" stroke-linecap="round"/>
<path d="M215.317 57.2679L215.317 4.58502" stroke="#008E86" stroke-width="8" stroke-linecap="round"/>
<path d="M268 531.414L268 478.731" stroke="#008E86" stroke-width="8" stroke-linecap="round"/>
<path d="M268 373.365L268 320.683" stroke="#008E86" stroke-width="8" stroke-linecap="round"/>
<path d="M268 215.317L268 162.634" stroke="#008E86" stroke-width="8" stroke-linecap="round"/>
<path d="M320.683 426.048L320.683 373.366" stroke="#008E86" stroke-width="8" stroke-linecap="round"/>
<path d="M320.683 268L320.683 215.317" stroke="#008E86" stroke-width="8" stroke-linecap="round"/>
<path d="M320.683 109.951L320.683 4.58502" stroke="#008E86" stroke-width="8" stroke-linecap="round"/>
<path d="M373.366 373.365L373.366 268" stroke="#008E86" stroke-width="8" stroke-linecap="round"/>
<path d="M373.366 215.317L373.366 162.634" stroke="#008E86" stroke-width="8" stroke-linecap="round"/>
<path d="M426.049 426.048L426.049 373.366" stroke="#008E86" stroke-width="8" stroke-linecap="round"/>
<path d="M426.049 268L426.049 215.317" stroke="#008E86" stroke-width="8" stroke-linecap="round"/>
<path d="M426.049 162.634L426.049 109.951" stroke="#008E86" stroke-width="8" stroke-linecap="round"/>
<path d="M478.732 478.731L478.732 426.048" stroke="#008E86" stroke-width="8" stroke-linecap="round"/>
<path d="M478.732 373.365L478.732 57.2679" stroke="#008E86" stroke-width="8" stroke-linecap="round"/>
<path d="M531.415 531.414L531.415 268" stroke="#008E86" stroke-width="8" stroke-linecap="round"/>
<path d="M531.415 215.317L531.415 4.5849" stroke="#008E86" stroke-width="8" stroke-linecap="round"/>
<path d="M4.58545 531.414L531.415 531.414" stroke="#008E86" stroke-width="8" stroke-linecap="round"/>
<path d="M57.2683 478.731L109.951 478.731" stroke="#008E86" stroke-width="8" stroke-linecap="round"/>
<path d="M162.634 478.731L268 478.731" stroke="#008E86" stroke-width="8" stroke-linecap="round"/>
<path d="M320.683 478.731L478.732 478.731" stroke="#008E86" stroke-width="8" stroke-linecap="round"/>
<path d="M4.58545 426.048L57.2684 426.048" stroke="#008E86" stroke-width="8" stroke-linecap="round"/>
<path d="M109.951 426.048L162.634 426.048" stroke="#008E86" stroke-width="8" stroke-linecap="round"/>
<path d="M268 426.048L426.049 426.048" stroke="#008E86" stroke-width="8" stroke-linecap="round"/>
<path d="M478.732 426.048L531.415 426.048" stroke="#008E86" stroke-width="8" stroke-linecap="round"/>
<path d="M57.2683 373.365L268 373.365" stroke="#008E86" stroke-width="8" stroke-linecap="round"/>
<path d="M426.049 373.365L478.732 373.365" stroke="#008E86" stroke-width="8" stroke-linecap="round"/>
<path d="M57.2683 320.682L215.317 320.682" stroke="#008E86" stroke-width="8" stroke-linecap="round"/>
<path d="M268 320.682L426.049 320.682" stroke="#008E86" stroke-width="8" stroke-linecap="round"/>
<path d="M57.2683 268L162.634 268" stroke="#008E86" stroke-width="8" stroke-linecap="round"/>
<path d="M215.317 268L373.366 268" stroke="#008E86" stroke-width="8" stroke-linecap="round"/>
<path d="M426.049 268L478.732 268" stroke="#008E86" stroke-width="8" stroke-linecap="round"/>
<path d="M57.2683 215.317L109.951 215.317" stroke="#008E86" stroke-width="8" stroke-linecap="round"/>
<path d="M373.366 215.317L426.049 215.317" stroke="#008E86" stroke-width="8" stroke-linecap="round"/>
<path d="M478.732 215.317L531.415 215.317" stroke="#008E86" stroke-width="8" stroke-linecap="round"/>
<path d="M109.951 162.634L373.366 162.634" stroke="#008E86" stroke-width="8" stroke-linecap="round"/>
<path d="M57.2683 109.951L109.951 109.951" stroke="#008E86" stroke-width="8" stroke-linecap="round"/>
<path d="M162.634 109.951L426.049 109.951" stroke="#008E86" stroke-width="8" stroke-linecap="round"/>
<path d="M109.951 57.2679L162.634 57.2679" stroke="#008E86" stroke-width="8" stroke-linecap="round"/>
<path d="M215.317 57.2679L268 57.2679" stroke="#008E86" stroke-width="8" stroke-linecap="round"/>
<path d="M373.366 57.2679L478.732 57.2679" stroke="#008E86" stroke-width="8" stroke-linecap="round"/>
<path d="M4.58545 4.58521L531.415 4.58518" stroke="#008E86" stroke-width="8" stroke-linecap="round"/>
</svg>
