<svg width="536" height="536" viewBox="0 0 536 536" fill="none" xmlns="http://www.w3.org/2000/svg">
<path d="M4.58545 531.414L4.58544 320.683" stroke="#008E86" stroke-width="8" stroke-linecap="round"/>
<path d="M4.58545 268L4.58544 4.58527" stroke="#008E86" stroke-width="8" stroke-linecap="round"/>
<path d="M57.2686 478.732L57.2686 373.366" stroke="#008E86" stroke-width="8" stroke-linecap="round"/>
<path d="M57.2686 268L57.2686 215.317" stroke="#008E86" stroke-width="8" stroke-linecap="round"/>
<path d="M57.2686 109.951L57.2686 57.2682" stroke="#008E86" stroke-width="8" stroke-linecap="round"/>
<path d="M109.951 373.366L109.951 320.683" stroke="#008E86" stroke-width="8" stroke-linecap="round"/>
<path d="M109.951 268L109.951 162.634" stroke="#008E86" stroke-width="8" stroke-linecap="round"/>
<path d="M162.634 478.732L162.634 373.366" stroke="#008E86" stroke-width="8" stroke-linecap="round"/>
<path d="M162.634 320.683L162.634 268" stroke="#008E86" stroke-width="8" stroke-linecap="round"/>
<path d="M162.634 215.317L162.634 57.2682" stroke="#008E86" stroke-width="8" stroke-linecap="round"/>
<path d="M215.317 531.414L215.317 478.732" stroke="#008E86" stroke-width="8" stroke-linecap="round"/>
<path d="M215.317 162.634L215.317 109.951" stroke="#008E86" stroke-width="8" stroke-linecap="round"/>
<path d="M268 373.366L268 320.683" stroke="#008E86" stroke-width="8" stroke-linecap="round"/>
<path d="M268 109.951L268 4.58524" stroke="#008E86" stroke-width="8" stroke-linecap="round"/>
<path d="M320.683 531.414L320.683 426.049" stroke="#008E86" stroke-width="8" stroke-linecap="round"/>
<path d="M320.683 320.683L320.683 215.317" stroke="#008E86" stroke-width="8" stroke-linecap="round"/>
<path d="M373.366 531.414L373.366 478.732" stroke="#008E86" stroke-width="8" stroke-linecap="round"/>
<path d="M373.366 426.049L373.366 320.683" stroke="#008E86" stroke-width="8" stroke-linecap="round"/>
<path d="M373.366 215.317L373.366 162.634" stroke="#008E86" stroke-width="8" stroke-linecap="round"/>
<path d="M373.366 109.951L373.366 57.2682" stroke="#008E86" stroke-width="8" stroke-linecap="round"/>
<path d="M426.049 478.732L426.049 320.683" stroke="#008E86" stroke-width="8" stroke-linecap="round"/>
<path d="M426.049 162.634L426.049 109.951" stroke="#008E86" stroke-width="8" stroke-linecap="round"/>
<path d="M426.049 57.2682L426.049 4.58527" stroke="#008E86" stroke-width="8" stroke-linecap="round"/>
<path d="M478.732 531.414L478.732 478.732" stroke="#008E86" stroke-width="8" stroke-linecap="round"/>
<path d="M478.732 426.049L478.732 373.366" stroke="#008E86" stroke-width="8" stroke-linecap="round"/>
<path d="M478.732 215.317L478.732 162.634" stroke="#008E86" stroke-width="8" stroke-linecap="round"/>
<path d="M478.732 109.951L478.732 57.2682" stroke="#008E86" stroke-width="8" stroke-linecap="round"/>
<path d="M531.415 531.414L531.415 268" stroke="#008E86" stroke-width="8" stroke-linecap="round"/>
<path d="M531.415 215.317L531.415 4.58524" stroke="#008E86" stroke-width="8" stroke-linecap="round"/>
<path d="M4.58545 531.414L531.415 531.414" stroke="#008E86" stroke-width="8" stroke-linecap="round"/>
<path d="M57.2686 478.732L109.951 478.732" stroke="#008E86" stroke-width="8" stroke-linecap="round"/>
<path d="M215.317 478.732L268 478.732" stroke="#008E86" stroke-width="8" stroke-linecap="round"/>
<path d="M57.2686 426.049L109.951 426.049" stroke="#008E86" stroke-width="8" stroke-linecap="round"/>
<path d="M162.634 426.049L320.683 426.049" stroke="#008E86" stroke-width="8" stroke-linecap="round"/>
<path d="M426.049 426.049L478.732 426.049" stroke="#008E86" stroke-width="8" stroke-linecap="round"/>
<path d="M4.58545 373.366L57.2684 373.366" stroke="#008E86" stroke-width="8" stroke-linecap="round"/>
<path d="M109.951 373.366L162.634 373.366" stroke="#008E86" stroke-width="8" stroke-linecap="round"/>
<path d="M215.317 373.366L373.366 373.366" stroke="#008E86" stroke-width="8" stroke-linecap="round"/>
<path d="M57.2686 320.683L109.951 320.683" stroke="#008E86" stroke-width="8" stroke-linecap="round"/>
<path d="M162.634 320.683L215.317 320.683" stroke="#008E86" stroke-width="8" stroke-linecap="round"/>
<path d="M320.683 320.683L373.366 320.683" stroke="#008E86" stroke-width="8" stroke-linecap="round"/>
<path d="M426.049 320.683L531.415 320.683" stroke="#008E86" stroke-width="8" stroke-linecap="round"/>
<path d="M4.58545 268L57.2684 268" stroke="#008E86" stroke-width="8" stroke-linecap="round"/>
<path d="M109.951 268L268 268" stroke="#008E86" stroke-width="8" stroke-linecap="round"/>
<path d="M373.366 268L531.415 268" stroke="#008E86" stroke-width="8" stroke-linecap="round"/>
<path d="M162.634 215.317L531.415 215.317" stroke="#008E86" stroke-width="8" stroke-linecap="round"/>
<path d="M4.58545 162.634L109.951 162.634" stroke="#008E86" stroke-width="8" stroke-linecap="round"/>
<path d="M215.317 162.634L320.683 162.634" stroke="#008E86" stroke-width="8" stroke-linecap="round"/>
<path d="M57.2686 109.951L109.951 109.951" stroke="#008E86" stroke-width="8" stroke-linecap="round"/>
<path d="M215.317 109.951L478.732 109.951" stroke="#008E86" stroke-width="8" stroke-linecap="round"/>
<path d="M57.2686 57.2682L215.317 57.2682" stroke="#008E86" stroke-width="8" stroke-linecap="round"/>
<path d="M320.683 57.2682L373.366 57.2682" stroke="#008E86" stroke-width="8" stroke-linecap="round"/>
<path d="M4.58545 4.58521L531.415 4.58518" stroke="#008E86" stroke-width="8" stroke-linecap="round"/>
</svg>
