<svg width="536" height="536" viewBox="0 0 536 536" fill="none" xmlns="http://www.w3.org/2000/svg">
<path d="M531.415 4.58533L531.415 215.317" stroke="#008E86" stroke-width="8" stroke-linecap="round"/>
<path d="M531.415 268L531.415 531.414" stroke="#008E86" stroke-width="8" stroke-linecap="round"/>
<path d="M478.732 215.317L478.732 268" stroke="#008E86" stroke-width="8" stroke-linecap="round"/>
<path d="M478.732 320.683L478.732 478.732" stroke="#008E86" stroke-width="8" stroke-linecap="round"/>
<path d="M426.049 4.58533L426.049 109.951" stroke="#008E86" stroke-width="8" stroke-linecap="round"/>
<path d="M426.049 162.634L426.049 215.317" stroke="#008E86" stroke-width="8" stroke-linecap="round"/>
<path d="M426.049 320.683L426.049 373.366" stroke="#008E86" stroke-width="8" stroke-linecap="round"/>
<path d="M426.049 426.049L426.049 531.415" stroke="#008E86" stroke-width="8" stroke-linecap="round"/>
<path d="M373.366 4.58533L373.366 109.951" stroke="#008E86" stroke-width="8" stroke-linecap="round"/>
<path d="M373.366 215.317L373.366 426.049" stroke="#008E86" stroke-width="8" stroke-linecap="round"/>
<path d="M320.683 57.2682L320.683 162.634" stroke="#008E86" stroke-width="8" stroke-linecap="round"/>
<path d="M320.683 215.317L320.683 268" stroke="#008E86" stroke-width="8" stroke-linecap="round"/>
<path d="M320.683 320.683L320.683 373.366" stroke="#008E86" stroke-width="8" stroke-linecap="round"/>
<path d="M320.683 426.049L320.683 478.732" stroke="#008E86" stroke-width="8" stroke-linecap="round"/>
<path d="M268 162.634L268 215.317" stroke="#008E86" stroke-width="8" stroke-linecap="round"/>
<path d="M268 373.366L268 426.049" stroke="#008E86" stroke-width="8" stroke-linecap="round"/>
<path d="M268 478.732L268 531.415" stroke="#008E86" stroke-width="8" stroke-linecap="round"/>
<path d="M215.317 109.951L215.317 162.634" stroke="#008E86" stroke-width="8" stroke-linecap="round"/>
<path d="M215.317 215.317L215.317 373.366" stroke="#008E86" stroke-width="8" stroke-linecap="round"/>
<path d="M215.317 426.049L215.317 478.732" stroke="#008E86" stroke-width="8" stroke-linecap="round"/>
<path d="M162.634 57.2682L162.634 109.951" stroke="#008E86" stroke-width="8" stroke-linecap="round"/>
<path d="M162.634 162.634L162.634 268" stroke="#008E86" stroke-width="8" stroke-linecap="round"/>
<path d="M162.634 373.366L162.634 426.049" stroke="#008E86" stroke-width="8" stroke-linecap="round"/>
<path d="M109.951 4.58533L109.951 57.2682" stroke="#008E86" stroke-width="8" stroke-linecap="round"/>
<path d="M109.951 109.951L109.951 162.634" stroke="#008E86" stroke-width="8" stroke-linecap="round"/>
<path d="M109.951 215.317L109.951 268" stroke="#008E86" stroke-width="8" stroke-linecap="round"/>
<path d="M109.951 426.049L109.951 478.732" stroke="#008E86" stroke-width="8" stroke-linecap="round"/>
<path d="M57.2686 162.634L57.2686 215.317" stroke="#008E86" stroke-width="8" stroke-linecap="round"/>
<path d="M57.2686 268L57.2686 320.683" stroke="#008E86" stroke-width="8" stroke-linecap="round"/>
<path d="M57.2686 426.049L57.2686 531.415" stroke="#008E86" stroke-width="8" stroke-linecap="round"/>
<path d="M4.58545 4.58533L4.58544 268" stroke="#008E86" stroke-width="8" stroke-linecap="round"/>
<path d="M4.58545 320.683L4.58544 531.415" stroke="#008E86" stroke-width="8" stroke-linecap="round"/>
<path d="M531.415 4.58533L4.58557 4.5853" stroke="#008E86" stroke-width="8" stroke-linecap="round"/>
<path d="M531.415 57.2682L478.732 57.2682" stroke="#008E86" stroke-width="8" stroke-linecap="round"/>
<path d="M320.683 57.2682L162.634 57.2682" stroke="#008E86" stroke-width="8" stroke-linecap="round"/>
<path d="M109.951 57.2682L57.2685 57.2682" stroke="#008E86" stroke-width="8" stroke-linecap="round"/>
<path d="M478.732 109.951L426.049 109.951" stroke="#008E86" stroke-width="8" stroke-linecap="round"/>
<path d="M268 109.951L215.317 109.951" stroke="#008E86" stroke-width="8" stroke-linecap="round"/>
<path d="M162.634 109.951L109.951 109.951" stroke="#008E86" stroke-width="8" stroke-linecap="round"/>
<path d="M57.2686 109.951L4.5856 109.951" stroke="#008E86" stroke-width="8" stroke-linecap="round"/>
<path d="M478.732 162.634L426.049 162.634" stroke="#008E86" stroke-width="8" stroke-linecap="round"/>
<path d="M373.366 162.634L162.634 162.634" stroke="#008E86" stroke-width="8" stroke-linecap="round"/>
<path d="M531.415 215.317L478.732 215.317" stroke="#008E86" stroke-width="8" stroke-linecap="round"/>
<path d="M426.049 215.317L320.683 215.317" stroke="#008E86" stroke-width="8" stroke-linecap="round"/>
<path d="M109.951 215.317L4.58557 215.317" stroke="#008E86" stroke-width="8" stroke-linecap="round"/>
<path d="M478.732 268L426.049 268" stroke="#008E86" stroke-width="8" stroke-linecap="round"/>
<path d="M320.683 268L215.317 268" stroke="#008E86" stroke-width="8" stroke-linecap="round"/>
<path d="M162.634 268L109.951 268" stroke="#008E86" stroke-width="8" stroke-linecap="round"/>
<path d="M320.683 320.683L4.5855 320.683" stroke="#008E86" stroke-width="8" stroke-linecap="round"/>
<path d="M426.049 373.366L373.366 373.366" stroke="#008E86" stroke-width="8" stroke-linecap="round"/>
<path d="M215.317 373.366L57.2684 373.366" stroke="#008E86" stroke-width="8" stroke-linecap="round"/>
<path d="M478.732 426.049L426.049 426.049" stroke="#008E86" stroke-width="8" stroke-linecap="round"/>
<path d="M373.366 426.049L215.317 426.049" stroke="#008E86" stroke-width="8" stroke-linecap="round"/>
<path d="M162.634 426.049L109.951 426.049" stroke="#008E86" stroke-width="8" stroke-linecap="round"/>
<path d="M373.366 478.732L320.683 478.732" stroke="#008E86" stroke-width="8" stroke-linecap="round"/>
<path d="M215.317 478.732L162.634 478.732" stroke="#008E86" stroke-width="8" stroke-linecap="round"/>
<path d="M531.415 531.415L4.58557 531.415" stroke="#008E86" stroke-width="8" stroke-linecap="round"/>
</svg>
