<svg width="536" height="536" viewBox="0 0 536 536" fill="none" xmlns="http://www.w3.org/2000/svg">
<path d="M4.58545 4.58533H215.317" stroke="#008E86" stroke-width="8" stroke-linecap="round"/>
<path d="M268 4.58533H531.415" stroke="#008E86" stroke-width="8" stroke-linecap="round"/>
<path d="M57.2686 57.2682H162.634" stroke="#008E86" stroke-width="8" stroke-linecap="round"/>
<path d="M215.317 57.2682H320.683" stroke="#008E86" stroke-width="8" stroke-linecap="round"/>
<path d="M373.366 57.2682H426.049" stroke="#008E86" stroke-width="8" stroke-linecap="round"/>
<path d="M109.951 109.951H268" stroke="#008E86" stroke-width="8" stroke-linecap="round"/>
<path d="M320.683 109.951H478.732" stroke="#008E86" stroke-width="8" stroke-linecap="round"/>
<path d="M4.58545 162.634H109.951" stroke="#008E86" stroke-width="8" stroke-linecap="round"/>
<path d="M478.732 162.634H531.415" stroke="#008E86" stroke-width="8" stroke-linecap="round"/>
<path d="M57.2686 215.317H162.634" stroke="#008E86" stroke-width="8" stroke-linecap="round"/>
<path d="M215.317 215.317H320.683" stroke="#008E86" stroke-width="8" stroke-linecap="round"/>
<path d="M373.366 215.317H531.415" stroke="#008E86" stroke-width="8" stroke-linecap="round"/>
<path d="M4.58545 268H109.951" stroke="#008E86" stroke-width="8" stroke-linecap="round"/>
<path d="M215.317 268H373.366" stroke="#008E86" stroke-width="8" stroke-linecap="round"/>
<path d="M162.634 320.683H320.683" stroke="#008E86" stroke-width="8" stroke-linecap="round"/>
<path d="M373.366 320.683H531.415" stroke="#008E86" stroke-width="8" stroke-linecap="round"/>
<path d="M320.683 373.366H478.732" stroke="#008E86" stroke-width="8" stroke-linecap="round"/>
<path d="M57.2686 426.049H373.366" stroke="#008E86" stroke-width="8" stroke-linecap="round"/>
<path d="M478.732 426.049H531.415" stroke="#008E86" stroke-width="8" stroke-linecap="round"/>
<path d="M4.58545 478.732H57.2684" stroke="#008E86" stroke-width="8" stroke-linecap="round"/>
<path d="M109.951 478.732H162.634" stroke="#008E86" stroke-width="8" stroke-linecap="round"/>
<path d="M373.366 478.732H478.732" stroke="#008E86" stroke-width="8" stroke-linecap="round"/>
<path d="M4.58545 531.415H268" stroke="#008E86" stroke-width="8" stroke-linecap="round"/>
<path d="M320.683 531.415H531.415" stroke="#008E86" stroke-width="8" stroke-linecap="round"/>
<path d="M4.58545 4.58533V531.415" stroke="#008E86" stroke-width="8" stroke-linecap="round"/>
<path d="M57.2686 57.2682V109.951" stroke="#008E86" stroke-width="8" stroke-linecap="round"/>
<path d="M57.2686 320.683V426.049" stroke="#008E86" stroke-width="8" stroke-linecap="round"/>
<path d="M109.951 109.951V162.634" stroke="#008E86" stroke-width="8" stroke-linecap="round"/>
<path d="M109.951 268V373.366" stroke="#008E86" stroke-width="8" stroke-linecap="round"/>
<path d="M109.951 426.049V478.732" stroke="#008E86" stroke-width="8" stroke-linecap="round"/>
<path d="M162.634 57.2682V109.951" stroke="#008E86" stroke-width="8" stroke-linecap="round"/>
<path d="M162.634 162.634V320.683" stroke="#008E86" stroke-width="8" stroke-linecap="round"/>
<path d="M162.634 373.366V426.049" stroke="#008E86" stroke-width="8" stroke-linecap="round"/>
<path d="M215.317 109.951V162.634" stroke="#008E86" stroke-width="8" stroke-linecap="round"/>
<path d="M215.317 320.683V373.366" stroke="#008E86" stroke-width="8" stroke-linecap="round"/>
<path d="M215.317 426.049V478.732" stroke="#008E86" stroke-width="8" stroke-linecap="round"/>
<path d="M268 109.951V162.634" stroke="#008E86" stroke-width="8" stroke-linecap="round"/>
<path d="M268 320.683V531.415" stroke="#008E86" stroke-width="8" stroke-linecap="round"/>
<path d="M320.683 57.2682V268" stroke="#008E86" stroke-width="8" stroke-linecap="round"/>
<path d="M320.683 478.732V531.415" stroke="#008E86" stroke-width="8" stroke-linecap="round"/>
<path d="M373.366 162.634V215.317" stroke="#008E86" stroke-width="8" stroke-linecap="round"/>
<path d="M373.366 268V320.683" stroke="#008E86" stroke-width="8" stroke-linecap="round"/>
<path d="M373.366 426.049V478.732" stroke="#008E86" stroke-width="8" stroke-linecap="round"/>
<path d="M426.049 4.58533V57.2683" stroke="#008E86" stroke-width="8" stroke-linecap="round"/>
<path d="M426.049 109.951V162.634" stroke="#008E86" stroke-width="8" stroke-linecap="round"/>
<path d="M426.049 215.317V268" stroke="#008E86" stroke-width="8" stroke-linecap="round"/>
<path d="M426.049 426.049V478.732" stroke="#008E86" stroke-width="8" stroke-linecap="round"/>
<path d="M478.732 57.2682V109.951" stroke="#008E86" stroke-width="8" stroke-linecap="round"/>
<path d="M478.732 268V320.683" stroke="#008E86" stroke-width="8" stroke-linecap="round"/>
<path d="M478.732 373.366V426.049" stroke="#008E86" stroke-width="8" stroke-linecap="round"/>
<path d="M531.415 4.58533V531.415" stroke="#008E86" stroke-width="8" stroke-linecap="round"/>
</svg>
