<svg width="536" height="536" viewBox="0 0 536 536" fill="none" xmlns="http://www.w3.org/2000/svg">
<path d="M4.58545 4.58533H215.317" stroke="#008E86" stroke-width="8" stroke-linecap="round"/>
<path d="M268 4.58533H531.415" stroke="#008E86" stroke-width="8" stroke-linecap="round"/>
<path d="M373.366 57.2683H426.049" stroke="#008E86" stroke-width="8" stroke-linecap="round"/>
<path d="M162.634 109.951H215.317" stroke="#008E86" stroke-width="8" stroke-linecap="round"/>
<path d="M320.683 109.951H373.366" stroke="#008E86" stroke-width="8" stroke-linecap="round"/>
<path d="M478.732 109.951H531.415" stroke="#008E86" stroke-width="8" stroke-linecap="round"/>
<path d="M57.2681 162.634H268" stroke="#008E86" stroke-width="8" stroke-linecap="round"/>
<path d="M373.366 162.634H478.732" stroke="#008E86" stroke-width="8" stroke-linecap="round"/>
<path d="M109.951 215.317H162.634" stroke="#008E86" stroke-width="8" stroke-linecap="round"/>
<path d="M268 215.317H320.683" stroke="#008E86" stroke-width="8" stroke-linecap="round"/>
<path d="M426.049 215.317H531.415" stroke="#008E86" stroke-width="8" stroke-linecap="round"/>
<path d="M57.2681 268H109.951" stroke="#008E86" stroke-width="8" stroke-linecap="round"/>
<path d="M162.634 268H268" stroke="#008E86" stroke-width="8" stroke-linecap="round"/>
<path d="M4.58545 320.683H57.2684" stroke="#008E86" stroke-width="8" stroke-linecap="round"/>
<path d="M109.951 320.683H162.634" stroke="#008E86" stroke-width="8" stroke-linecap="round"/>
<path d="M268 320.683H320.683" stroke="#008E86" stroke-width="8" stroke-linecap="round"/>
<path d="M426.049 320.683H478.732" stroke="#008E86" stroke-width="8" stroke-linecap="round"/>
<path d="M57.2681 373.366H162.634" stroke="#008E86" stroke-width="8" stroke-linecap="round"/>
<path d="M215.317 373.366H268" stroke="#008E86" stroke-width="8" stroke-linecap="round"/>
<path d="M320.683 373.366H426.049" stroke="#008E86" stroke-width="8" stroke-linecap="round"/>
<path d="M4.58545 426.049H109.951" stroke="#008E86" stroke-width="8" stroke-linecap="round"/>
<path d="M215.317 426.049H373.366" stroke="#008E86" stroke-width="8" stroke-linecap="round"/>
<path d="M478.732 426.049H531.415" stroke="#008E86" stroke-width="8" stroke-linecap="round"/>
<path d="M57.2681 478.732H109.951" stroke="#008E86" stroke-width="8" stroke-linecap="round"/>
<path d="M162.634 478.732H320.683" stroke="#008E86" stroke-width="8" stroke-linecap="round"/>
<path d="M373.366 478.732H478.732" stroke="#008E86" stroke-width="8" stroke-linecap="round"/>
<path d="M4.58545 531.415H268" stroke="#008E86" stroke-width="8" stroke-linecap="round"/>
<path d="M320.683 531.415H531.415" stroke="#008E86" stroke-width="8" stroke-linecap="round"/>
<path d="M4.58545 4.58533V531.415" stroke="#008E86" stroke-width="8" stroke-linecap="round"/>
<path d="M57.2681 57.2683V215.317" stroke="#008E86" stroke-width="8" stroke-linecap="round"/>
<path d="M57.2681 268V320.683" stroke="#008E86" stroke-width="8" stroke-linecap="round"/>
<path d="M109.951 4.58533V57.2683" stroke="#008E86" stroke-width="8" stroke-linecap="round"/>
<path d="M109.951 109.951V162.634" stroke="#008E86" stroke-width="8" stroke-linecap="round"/>
<path d="M109.951 215.317V268" stroke="#008E86" stroke-width="8" stroke-linecap="round"/>
<path d="M109.951 478.732V531.415" stroke="#008E86" stroke-width="8" stroke-linecap="round"/>
<path d="M162.634 57.2683V109.951" stroke="#008E86" stroke-width="8" stroke-linecap="round"/>
<path d="M162.634 162.634V215.317" stroke="#008E86" stroke-width="8" stroke-linecap="round"/>
<path d="M162.634 268V478.732" stroke="#008E86" stroke-width="8" stroke-linecap="round"/>
<path d="M215.317 4.58533V109.951" stroke="#008E86" stroke-width="8" stroke-linecap="round"/>
<path d="M215.317 215.317V320.683" stroke="#008E86" stroke-width="8" stroke-linecap="round"/>
<path d="M215.317 373.366V426.049" stroke="#008E86" stroke-width="8" stroke-linecap="round"/>
<path d="M268 57.2683V215.317" stroke="#008E86" stroke-width="8" stroke-linecap="round"/>
<path d="M268 320.683V373.366" stroke="#008E86" stroke-width="8" stroke-linecap="round"/>
<path d="M320.683 4.58533V162.634" stroke="#008E86" stroke-width="8" stroke-linecap="round"/>
<path d="M320.683 215.317V320.683" stroke="#008E86" stroke-width="8" stroke-linecap="round"/>
<path d="M320.683 478.732V531.415" stroke="#008E86" stroke-width="8" stroke-linecap="round"/>
<path d="M373.366 162.634V373.366" stroke="#008E86" stroke-width="8" stroke-linecap="round"/>
<path d="M373.366 426.049V478.732" stroke="#008E86" stroke-width="8" stroke-linecap="round"/>
<path d="M426.049 4.58533V109.951" stroke="#008E86" stroke-width="8" stroke-linecap="round"/>
<path d="M426.049 215.317V320.683" stroke="#008E86" stroke-width="8" stroke-linecap="round"/>
<path d="M426.049 373.366V478.732" stroke="#008E86" stroke-width="8" stroke-linecap="round"/>
<path d="M478.732 57.2683V109.951" stroke="#008E86" stroke-width="8" stroke-linecap="round"/>
<path d="M478.732 268V320.683" stroke="#008E86" stroke-width="8" stroke-linecap="round"/>
<path d="M478.732 373.366V426.049" stroke="#008E86" stroke-width="8" stroke-linecap="round"/>
<path d="M531.415 4.58533V531.415" stroke="#008E86" stroke-width="8" stroke-linecap="round"/>
</svg>
