<svg width="536" height="536" viewBox="0 0 536 536" fill="none" xmlns="http://www.w3.org/2000/svg">
<path d="M4.58545 4.58533H215.317" stroke="#008E86" stroke-width="8" stroke-linecap="round"/>
<path d="M268 4.58533H531.415" stroke="#008E86" stroke-width="8" stroke-linecap="round"/>
<path d="M57.2683 57.2683H162.634" stroke="#008E86" stroke-width="8" stroke-linecap="round"/>
<path d="M320.683 57.2683H478.732" stroke="#008E86" stroke-width="8" stroke-linecap="round"/>
<path d="M4.58545 109.951H109.951" stroke="#008E86" stroke-width="8" stroke-linecap="round"/>
<path d="M162.634 109.951H215.317" stroke="#008E86" stroke-width="8" stroke-linecap="round"/>
<path d="M268 109.951H531.415" stroke="#008E86" stroke-width="8" stroke-linecap="round"/>
<path d="M57.2683 162.634H162.634" stroke="#008E86" stroke-width="8" stroke-linecap="round"/>
<path d="M215.317 162.634H320.683" stroke="#008E86" stroke-width="8" stroke-linecap="round"/>
<path d="M426.049 162.634H478.732" stroke="#008E86" stroke-width="8" stroke-linecap="round"/>
<path d="M4.58545 215.317H57.2684" stroke="#008E86" stroke-width="8" stroke-linecap="round"/>
<path d="M426.049 215.317H478.732" stroke="#008E86" stroke-width="8" stroke-linecap="round"/>
<path d="M57.2683 268H109.951" stroke="#008E86" stroke-width="8" stroke-linecap="round"/>
<path d="M162.634 268H320.683" stroke="#008E86" stroke-width="8" stroke-linecap="round"/>
<path d="M478.732 268H531.415" stroke="#008E86" stroke-width="8" stroke-linecap="round"/>
<path d="M4.58545 320.683H57.2684" stroke="#008E86" stroke-width="8" stroke-linecap="round"/>
<path d="M109.951 320.683H215.317" stroke="#008E86" stroke-width="8" stroke-linecap="round"/>
<path d="M57.2683 373.366H109.951" stroke="#008E86" stroke-width="8" stroke-linecap="round"/>
<path d="M215.317 373.366H426.049" stroke="#008E86" stroke-width="8" stroke-linecap="round"/>
<path d="M4.58545 426.049H57.2684" stroke="#008E86" stroke-width="8" stroke-linecap="round"/>
<path d="M109.951 426.049H215.317" stroke="#008E86" stroke-width="8" stroke-linecap="round"/>
<path d="M268 426.049H478.732" stroke="#008E86" stroke-width="8" stroke-linecap="round"/>
<path d="M57.2683 478.732H162.634" stroke="#008E86" stroke-width="8" stroke-linecap="round"/>
<path d="M215.317 478.732H268" stroke="#008E86" stroke-width="8" stroke-linecap="round"/>
<path d="M373.366 478.732H531.415" stroke="#008E86" stroke-width="8" stroke-linecap="round"/>
<path d="M4.58545 531.415H268" stroke="#008E86" stroke-width="8" stroke-linecap="round"/>
<path d="M320.683 531.415H531.415" stroke="#008E86" stroke-width="8" stroke-linecap="round"/>
<path d="M4.58545 4.58533V531.415" stroke="#008E86" stroke-width="8" stroke-linecap="round"/>
<path d="M57.2683 320.683V373.366" stroke="#008E86" stroke-width="8" stroke-linecap="round"/>
<path d="M57.2683 426.049V478.732" stroke="#008E86" stroke-width="8" stroke-linecap="round"/>
<path d="M109.951 57.2683V109.951" stroke="#008E86" stroke-width="8" stroke-linecap="round"/>
<path d="M109.951 215.317V320.683" stroke="#008E86" stroke-width="8" stroke-linecap="round"/>
<path d="M162.634 162.634V268" stroke="#008E86" stroke-width="8" stroke-linecap="round"/>
<path d="M162.634 320.683V373.366" stroke="#008E86" stroke-width="8" stroke-linecap="round"/>
<path d="M215.317 4.58533V215.317" stroke="#008E86" stroke-width="8" stroke-linecap="round"/>
<path d="M215.317 320.683V478.732" stroke="#008E86" stroke-width="8" stroke-linecap="round"/>
<path d="M268 57.2683V109.951" stroke="#008E86" stroke-width="8" stroke-linecap="round"/>
<path d="M268 215.317V320.683" stroke="#008E86" stroke-width="8" stroke-linecap="round"/>
<path d="M268 478.732V531.415" stroke="#008E86" stroke-width="8" stroke-linecap="round"/>
<path d="M320.683 4.58533V57.2683" stroke="#008E86" stroke-width="8" stroke-linecap="round"/>
<path d="M320.683 162.634V215.317" stroke="#008E86" stroke-width="8" stroke-linecap="round"/>
<path d="M320.683 268V373.366" stroke="#008E86" stroke-width="8" stroke-linecap="round"/>
<path d="M320.683 426.049V531.415" stroke="#008E86" stroke-width="8" stroke-linecap="round"/>
<path d="M373.366 109.951V320.683" stroke="#008E86" stroke-width="8" stroke-linecap="round"/>
<path d="M426.049 215.317V373.366" stroke="#008E86" stroke-width="8" stroke-linecap="round"/>
<path d="M478.732 162.634V215.317" stroke="#008E86" stroke-width="8" stroke-linecap="round"/>
<path d="M478.732 268V320.683" stroke="#008E86" stroke-width="8" stroke-linecap="round"/>
<path d="M478.732 373.366V426.049" stroke="#008E86" stroke-width="8" stroke-linecap="round"/>
<path d="M531.415 4.58533V531.415" stroke="#008E86" stroke-width="8" stroke-linecap="round"/>
</svg>
