<svg width="536" height="536" viewBox="0 0 536 536" fill="none" xmlns="http://www.w3.org/2000/svg">
<path d="M531.415 4.58545L531.415 215.317" stroke="#008E86" stroke-width="8" stroke-linecap="round"/>
<path d="M531.415 268L531.415 531.415" stroke="#008E86" stroke-width="8" stroke-linecap="round"/>
<path d="M478.732 4.58545L478.732 109.951" stroke="#008E86" stroke-width="8" stroke-linecap="round"/>
<path d="M478.732 215.317L478.732 268" stroke="#008E86" stroke-width="8" stroke-linecap="round"/>
<path d="M478.732 373.366L478.732 478.732" stroke="#008E86" stroke-width="8" stroke-linecap="round"/>
<path d="M426.049 109.951L426.049 215.317" stroke="#008E86" stroke-width="8" stroke-linecap="round"/>
<path d="M426.049 268L426.049 373.366" stroke="#008E86" stroke-width="8" stroke-linecap="round"/>
<path d="M373.366 109.951L373.366 162.634" stroke="#008E86" stroke-width="8" stroke-linecap="round"/>
<path d="M373.366 268L373.366 426.049" stroke="#008E86" stroke-width="8" stroke-linecap="round"/>
<path d="M320.683 4.58545L320.683 57.2684" stroke="#008E86" stroke-width="8" stroke-linecap="round"/>
<path d="M268 57.2683L268 109.951" stroke="#008E86" stroke-width="8" stroke-linecap="round"/>
<path d="M268 215.317L268 320.683" stroke="#008E86" stroke-width="8" stroke-linecap="round"/>
<path d="M268 373.366L268 426.049" stroke="#008E86" stroke-width="8" stroke-linecap="round"/>
<path d="M215.317 57.2683L215.317 162.634" stroke="#008E86" stroke-width="8" stroke-linecap="round"/>
<path d="M215.317 426.049L215.317 478.732" stroke="#008E86" stroke-width="8" stroke-linecap="round"/>
<path d="M162.634 4.58545L162.634 57.2684" stroke="#008E86" stroke-width="8" stroke-linecap="round"/>
<path d="M162.634 162.634L162.634 268" stroke="#008E86" stroke-width="8" stroke-linecap="round"/>
<path d="M162.634 478.732L162.634 531.415" stroke="#008E86" stroke-width="8" stroke-linecap="round"/>
<path d="M109.951 4.58545L109.951 57.2684" stroke="#008E86" stroke-width="8" stroke-linecap="round"/>
<path d="M109.951 109.951L109.951 162.634" stroke="#008E86" stroke-width="8" stroke-linecap="round"/>
<path d="M109.951 268L109.951 373.366" stroke="#008E86" stroke-width="8" stroke-linecap="round"/>
<path d="M57.2683 57.2683L57.2683 109.951" stroke="#008E86" stroke-width="8" stroke-linecap="round"/>
<path d="M57.2683 215.317L57.2683 426.049" stroke="#008E86" stroke-width="8" stroke-linecap="round"/>
<path d="M4.58545 4.58545L4.58544 268" stroke="#008E86" stroke-width="8" stroke-linecap="round"/>
<path d="M4.58521 320.683L4.5852 531.415" stroke="#008E86" stroke-width="8" stroke-linecap="round"/>
<path d="M531.415 4.58545L4.58533 4.58543" stroke="#008E86" stroke-width="8" stroke-linecap="round"/>
<path d="M426.049 57.2683L320.683 57.2683" stroke="#008E86" stroke-width="8" stroke-linecap="round"/>
<path d="M268 57.2683L215.317 57.2683" stroke="#008E86" stroke-width="8" stroke-linecap="round"/>
<path d="M478.732 109.951L426.049 109.951" stroke="#008E86" stroke-width="8" stroke-linecap="round"/>
<path d="M373.366 109.951L268 109.951" stroke="#008E86" stroke-width="8" stroke-linecap="round"/>
<path d="M162.634 109.951L57.2682 109.951" stroke="#008E86" stroke-width="8" stroke-linecap="round"/>
<path d="M531.415 162.634L478.732 162.634" stroke="#008E86" stroke-width="8" stroke-linecap="round"/>
<path d="M320.683 162.634L162.634 162.634" stroke="#008E86" stroke-width="8" stroke-linecap="round"/>
<path d="M109.951 162.634L4.58536 162.634" stroke="#008E86" stroke-width="8" stroke-linecap="round"/>
<path d="M478.732 215.317L215.317 215.317" stroke="#008E86" stroke-width="8" stroke-linecap="round"/>
<path d="M162.634 215.317L57.2682 215.317" stroke="#008E86" stroke-width="8" stroke-linecap="round"/>
<path d="M426.049 268L320.683 268" stroke="#008E86" stroke-width="8" stroke-linecap="round"/>
<path d="M215.317 268L162.634 268" stroke="#008E86" stroke-width="8" stroke-linecap="round"/>
<path d="M531.415 320.683L426.049 320.683" stroke="#008E86" stroke-width="8" stroke-linecap="round"/>
<path d="M320.683 320.683L162.634 320.683" stroke="#008E86" stroke-width="8" stroke-linecap="round"/>
<path d="M57.2683 320.683L4.58539 320.683" stroke="#008E86" stroke-width="8" stroke-linecap="round"/>
<path d="M373.366 373.366L320.683 373.366" stroke="#008E86" stroke-width="8" stroke-linecap="round"/>
<path d="M268 373.366L109.951 373.366" stroke="#008E86" stroke-width="8" stroke-linecap="round"/>
<path d="M478.732 426.049L268 426.049" stroke="#008E86" stroke-width="8" stroke-linecap="round"/>
<path d="M215.317 426.049L57.2682 426.049" stroke="#008E86" stroke-width="8" stroke-linecap="round"/>
<path d="M426.049 478.732L215.317 478.732" stroke="#008E86" stroke-width="8" stroke-linecap="round"/>
<path d="M109.951 478.732L4.58536 478.732" stroke="#008E86" stroke-width="8" stroke-linecap="round"/>
<path d="M531.415 531.415L4.58533 531.415" stroke="#008E86" stroke-width="8" stroke-linecap="round"/>
</svg>
