<svg width="35" height="26" viewBox="0 0 35 26" fill="none" xmlns="http://www.w3.org/2000/svg">
<path fill-rule="evenodd" clip-rule="evenodd" d="M13.0399 6.88818L6.98774 0L6.63843 3.3637L6.98774 7.60378L8.41968 10.2875L13.0399 6.88818V6.88818ZM21.9629 6.88818L28.015 0L28.3643 3.3637L28.015 7.60378L26.5831 10.2875L21.9629 6.88818V6.88818Z" fill="#E6C786"/>
<path fill-rule="evenodd" clip-rule="evenodd" d="M17.5009 5.03516L20.911 5.55463L24.3272 7.70142L26.5826 10.298L28.0146 14.32L17.5009 16.863L6.9873 14.32L8.41924 10.298L10.6747 7.70142L14.0909 5.55463L17.5009 5.03516Z" fill="#E55636"/>
<path fill-rule="evenodd" clip-rule="evenodd" d="M14.0909 5.54412L11.5229 2.94415L6.9873 0L8.54877 3.69732L9.01527 6.84191L9.83875 9.99447L12.2442 8.88059L13.8305 7.00314L14.0909 5.54412V5.54412ZM20.911 5.54412L23.479 2.94415L28.0146 0L26.4532 3.69732L25.9867 6.84191L25.1632 9.99447L22.7578 8.88059L21.1715 7.00314L20.911 5.54412V5.54412Z" fill="#99250C"/>
<path fill-rule="evenodd" clip-rule="evenodd" d="M11.8492 21.3105L6.88744 19.9736L0 19.7625L3.7253 16.1656L6.98632 14.2982L12.7471 15.5341L15.2722 14.0077L17.5 13.3373L19.7279 14.0077L22.2529 15.5341L28.0136 14.2982L31.2746 16.1656L35 19.7625L28.1126 19.9736L23.1508 21.3105L17.5 23.6089L11.8492 21.3105V21.3105Z" fill="#E9D6B6"/>
<path fill-rule="evenodd" clip-rule="evenodd" d="M15.1734 24.7334L13.7468 22.9874L11.1168 21.6071L5.57797 20.2251L0 19.7687L5.45 19.1217L11.8248 20.0379L15.6259 22.1154L17.5 22.4203L19.374 22.1154L23.1751 20.0379L29.55 19.1217L35 19.7687L29.422 20.2251L23.8832 21.6071L21.2532 22.9874L19.8265 24.7334L17.5 25.4038L15.1734 24.7334V24.7334Z" fill="#E6C786"/>
<path fill-rule="evenodd" clip-rule="evenodd" d="M17.4994 15.9447L19.2174 15.9761L20.513 16.5586L21.1298 17.5462L20.5292 18.9023L19.0939 19.1121L17.4994 18.7047L15.905 19.1121L14.4697 18.9023L13.8691 17.5462L14.4859 16.5586L15.7815 15.9761L17.4994 15.9447V15.9447Z" fill="black"/>
</svg>
