<svg width="380" height="224" viewBox="0 0 380 224" fill="none" xmlns="http://www.w3.org/2000/svg">
<g filter="url(#filter0_d_4403_110193)">
<rect width="380" height="220" rx="20" fill="#F2F2F2"/>
<path fill-rule="evenodd" clip-rule="evenodd" d="M315 118.985C315 108 306 98.9927 295 98.9927C233.172 98.9927 208 99 208 99L200 107H163L154 98.9998H119.147C108.147 98.9998 99.1467 108 99.1467 118.992C99.1467 119 99.1467 119.007 99.1467 119.015C99.1467 130 108.147 139 119.147 139C135.71 139 154 139 154 139L163 147H200L208 139H295.147C306 139 315 130 315 119.008C315 119 315 119.5 315 118.985Z" fill="#30DCFF"/>
<path fill-rule="evenodd" clip-rule="evenodd" d="M315 118.989C315 108 306 99 294.853 99C233.025 99 208 99.0001 208 99.0001L200 107H163L154 99.0001H119C108 99.0001 99 108 99 118.989C99 118.996 99 119 99 119H104C104 109 111 104 119 104C133.664 104 152 104 152 104L161 112H202L210 104H295C304 104 310 110 310 119L315 119V118.989Z" fill="white" fill-opacity="0.5"/>
<path fill-rule="evenodd" clip-rule="evenodd" d="M315 119L310 119C310 127.971 304.197 134 295 134C237.995 134 206 134 206 134L198 142H165L156 134H119C108.496 134 104 128 104 119.001L99 119V119.011C99 130 108 139 119 139C135.563 139 154 139 154 139L163 147H200L208 139H295C306 139 315 130 315 119Z" fill="black" fill-opacity="0.25"/>
<path d="M110.128 118.6H111.688V127H110.128V118.6ZM117.452 120.52C118.26 120.52 118.908 120.756 119.396 121.228C119.884 121.7 120.128 122.4 120.128 123.328V127H118.628V123.52C118.628 122.96 118.496 122.54 118.232 122.26C117.968 121.972 117.592 121.828 117.104 121.828C116.552 121.828 116.116 121.996 115.796 122.332C115.476 122.66 115.316 123.136 115.316 123.76V127H113.816V120.592H115.244V121.42C115.492 121.124 115.804 120.9 116.18 120.748C116.556 120.596 116.98 120.52 117.452 120.52ZM128.449 120.592V126.028C128.449 128.284 127.297 129.412 124.993 129.412C124.377 129.412 123.793 129.332 123.241 129.172C122.689 129.02 122.233 128.796 121.873 128.5L122.545 127.372C122.825 127.604 123.177 127.788 123.601 127.924C124.033 128.068 124.469 128.14 124.909 128.14C125.613 128.14 126.129 127.98 126.457 127.66C126.785 127.34 126.949 126.852 126.949 126.196V125.86C126.693 126.14 126.381 126.352 126.013 126.496C125.645 126.64 125.241 126.712 124.801 126.712C124.193 126.712 123.641 126.584 123.145 126.328C122.657 126.064 122.269 125.696 121.981 125.224C121.701 124.752 121.561 124.212 121.561 123.604C121.561 122.996 121.701 122.46 121.981 121.996C122.269 121.524 122.657 121.16 123.145 120.904C123.641 120.648 124.193 120.52 124.801 120.52C125.265 120.52 125.685 120.596 126.061 120.748C126.445 120.9 126.765 121.132 127.021 121.444V120.592H128.449ZM125.029 125.44C125.597 125.44 126.061 125.272 126.421 124.936C126.789 124.592 126.973 124.148 126.973 123.604C126.973 123.068 126.789 122.632 126.421 122.296C126.061 121.96 125.597 121.792 125.029 121.792C124.453 121.792 123.981 121.96 123.613 122.296C123.253 122.632 123.073 123.068 123.073 123.604C123.073 124.148 123.253 124.592 123.613 124.936C123.981 125.272 124.453 125.44 125.029 125.44ZM131.85 121.528C132.282 120.856 133.042 120.52 134.13 120.52V121.948C134.002 121.924 133.886 121.912 133.782 121.912C133.198 121.912 132.742 122.084 132.414 122.428C132.086 122.764 131.922 123.252 131.922 123.892V127H130.422V120.592H131.85V121.528ZM141.367 123.832C141.367 123.936 141.359 124.084 141.343 124.276H136.315C136.403 124.748 136.631 125.124 136.999 125.404C137.375 125.676 137.839 125.812 138.391 125.812C139.095 125.812 139.675 125.58 140.131 125.116L140.935 126.04C140.647 126.384 140.283 126.644 139.843 126.82C139.403 126.996 138.907 127.084 138.355 127.084C137.651 127.084 137.031 126.944 136.495 126.664C135.959 126.384 135.543 125.996 135.247 125.5C134.959 124.996 134.815 124.428 134.815 123.796C134.815 123.172 134.955 122.612 135.235 122.116C135.523 121.612 135.919 121.22 136.423 120.94C136.927 120.66 137.495 120.52 138.127 120.52C138.751 120.52 139.307 120.66 139.795 120.94C140.291 121.212 140.675 121.6 140.947 122.104C141.227 122.6 141.367 123.176 141.367 123.832ZM138.127 121.72C137.647 121.72 137.239 121.864 136.903 122.152C136.575 122.432 136.375 122.808 136.303 123.28H139.939C139.875 122.816 139.679 122.44 139.351 122.152C139.023 121.864 138.615 121.72 138.127 121.72ZM144.788 127.084C144.268 127.084 143.76 127.016 143.264 126.88C142.768 126.744 142.372 126.572 142.076 126.364L142.652 125.224C142.94 125.416 143.284 125.572 143.684 125.692C144.092 125.804 144.492 125.86 144.884 125.86C145.78 125.86 146.228 125.624 146.228 125.152C146.228 124.928 146.112 124.772 145.88 124.684C145.656 124.596 145.292 124.512 144.788 124.432C144.26 124.352 143.828 124.26 143.492 124.156C143.164 124.052 142.876 123.872 142.628 123.616C142.388 123.352 142.268 122.988 142.268 122.524C142.268 121.916 142.52 121.432 143.024 121.072C143.536 120.704 144.224 120.52 145.088 120.52C145.528 120.52 145.968 120.572 146.408 120.676C146.848 120.772 147.208 120.904 147.488 121.072L146.912 122.212C146.368 121.892 145.756 121.732 145.076 121.732C144.636 121.732 144.3 121.8 144.068 121.936C143.844 122.064 143.732 122.236 143.732 122.452C143.732 122.692 143.852 122.864 144.092 122.968C144.34 123.064 144.72 123.156 145.232 123.244C145.744 123.324 146.164 123.416 146.492 123.52C146.82 123.624 147.1 123.8 147.332 124.048C147.572 124.296 147.692 124.648 147.692 125.104C147.692 125.704 147.432 126.184 146.912 126.544C146.392 126.904 145.684 127.084 144.788 127.084ZM151.432 120.52C152.376 120.52 153.096 120.748 153.592 121.204C154.096 121.652 154.348 122.332 154.348 123.244V127H152.932V126.22C152.748 126.5 152.484 126.716 152.14 126.868C151.804 127.012 151.396 127.084 150.916 127.084C150.436 127.084 150.016 127.004 149.656 126.844C149.296 126.676 149.016 126.448 148.816 126.16C148.624 125.864 148.528 125.532 148.528 125.164C148.528 124.588 148.74 124.128 149.164 123.784C149.596 123.432 150.272 123.256 151.192 123.256H152.848V123.16C152.848 122.712 152.712 122.368 152.44 122.128C152.176 121.888 151.78 121.768 151.252 121.768C150.892 121.768 150.536 121.824 150.184 121.936C149.84 122.048 149.548 122.204 149.308 122.404L148.72 121.312C149.056 121.056 149.46 120.86 149.932 120.724C150.404 120.588 150.904 120.52 151.432 120.52ZM151.228 125.992C151.604 125.992 151.936 125.908 152.224 125.74C152.52 125.564 152.728 125.316 152.848 124.996V124.252H151.3C150.436 124.252 150.004 124.536 150.004 125.104C150.004 125.376 150.112 125.592 150.328 125.752C150.544 125.912 150.844 125.992 151.228 125.992ZM157.701 121.528C158.133 120.856 158.893 120.52 159.981 120.52V121.948C159.853 121.924 159.737 121.912 159.633 121.912C159.049 121.912 158.593 122.084 158.265 122.428C157.937 122.764 157.773 123.252 157.773 123.892V127H156.273V120.592H157.701V121.528ZM167.077 120.52C168.021 120.52 168.741 120.748 169.237 121.204C169.741 121.652 169.993 122.332 169.993 123.244V127H168.577V126.22C168.393 126.5 168.129 126.716 167.785 126.868C167.449 127.012 167.041 127.084 166.561 127.084C166.081 127.084 165.661 127.004 165.301 126.844C164.941 126.676 164.661 126.448 164.461 126.16C164.269 125.864 164.173 125.532 164.173 125.164C164.173 124.588 164.385 124.128 164.809 123.784C165.241 123.432 165.917 123.256 166.837 123.256H168.493V123.16C168.493 122.712 168.357 122.368 168.085 122.128C167.821 121.888 167.425 121.768 166.897 121.768C166.537 121.768 166.181 121.824 165.829 121.936C165.485 122.048 165.193 122.204 164.953 122.404L164.365 121.312C164.701 121.056 165.105 120.86 165.577 120.724C166.049 120.588 166.549 120.52 167.077 120.52ZM166.873 125.992C167.249 125.992 167.581 125.908 167.869 125.74C168.165 125.564 168.373 125.316 168.493 124.996V124.252H166.945C166.081 124.252 165.649 124.536 165.649 125.104C165.649 125.376 165.757 125.592 165.973 125.752C166.189 125.912 166.489 125.992 166.873 125.992ZM171.918 118.096H173.418V127H171.918V118.096ZM184.727 123.832C184.727 123.936 184.719 124.084 184.703 124.276H179.675C179.763 124.748 179.991 125.124 180.359 125.404C180.735 125.676 181.199 125.812 181.751 125.812C182.455 125.812 183.035 125.58 183.491 125.116L184.295 126.04C184.007 126.384 183.643 126.644 183.203 126.82C182.763 126.996 182.267 127.084 181.715 127.084C181.011 127.084 180.391 126.944 179.855 126.664C179.319 126.384 178.903 125.996 178.607 125.5C178.319 124.996 178.175 124.428 178.175 123.796C178.175 123.172 178.315 122.612 178.595 122.116C178.883 121.612 179.279 121.22 179.783 120.94C180.287 120.66 180.855 120.52 181.487 120.52C182.111 120.52 182.667 120.66 183.155 120.94C183.651 121.212 184.035 121.6 184.307 122.104C184.587 122.6 184.727 123.176 184.727 123.832ZM181.487 121.72C181.007 121.72 180.599 121.864 180.263 122.152C179.935 122.432 179.735 122.808 179.663 123.28H183.299C183.235 122.816 183.039 122.44 182.711 122.152C182.383 121.864 181.975 121.72 181.487 121.72ZM192.444 118.096V127H191.004V126.172C190.756 126.476 190.448 126.704 190.08 126.856C189.72 127.008 189.32 127.084 188.88 127.084C188.264 127.084 187.708 126.948 187.212 126.676C186.724 126.404 186.34 126.02 186.06 125.524C185.78 125.02 185.64 124.444 185.64 123.796C185.64 123.148 185.78 122.576 186.06 122.08C186.34 121.584 186.724 121.2 187.212 120.928C187.708 120.656 188.264 120.52 188.88 120.52C189.304 120.52 189.692 120.592 190.044 120.736C190.396 120.88 190.696 121.096 190.944 121.384V118.096H192.444ZM189.06 125.8C189.42 125.8 189.744 125.72 190.032 125.56C190.32 125.392 190.548 125.156 190.716 124.852C190.884 124.548 190.968 124.196 190.968 123.796C190.968 123.396 190.884 123.044 190.716 122.74C190.548 122.436 190.32 122.204 190.032 122.044C189.744 121.876 189.42 121.792 189.06 121.792C188.7 121.792 188.376 121.876 188.088 122.044C187.8 122.204 187.572 122.436 187.404 122.74C187.236 123.044 187.152 123.396 187.152 123.796C187.152 124.196 187.236 124.548 187.404 124.852C187.572 125.156 187.8 125.392 188.088 125.56C188.376 125.72 188.7 125.8 189.06 125.8ZM194.406 120.592H195.906V127H194.406V120.592ZM195.162 119.536C194.89 119.536 194.662 119.452 194.478 119.284C194.294 119.108 194.202 118.892 194.202 118.636C194.202 118.38 194.294 118.168 194.478 118C194.662 117.824 194.89 117.736 195.162 117.736C195.434 117.736 195.662 117.82 195.846 117.988C196.03 118.148 196.122 118.352 196.122 118.6C196.122 118.864 196.03 119.088 195.846 119.272C195.67 119.448 195.442 119.536 195.162 119.536ZM201.727 126.652C201.551 126.796 201.335 126.904 201.079 126.976C200.831 127.048 200.567 127.084 200.287 127.084C199.583 127.084 199.039 126.9 198.655 126.532C198.271 126.164 198.079 125.628 198.079 124.924V121.84H197.023V120.64H198.079V119.176H199.579V120.64H201.295V121.84H199.579V124.888C199.579 125.2 199.655 125.44 199.807 125.608C199.959 125.768 200.179 125.848 200.467 125.848C200.803 125.848 201.083 125.76 201.307 125.584L201.727 126.652ZM205.63 127.084C204.982 127.084 204.398 126.944 203.878 126.664C203.358 126.384 202.95 125.996 202.654 125.5C202.366 124.996 202.222 124.428 202.222 123.796C202.222 123.164 202.366 122.6 202.654 122.104C202.95 121.608 203.358 121.22 203.878 120.94C204.398 120.66 204.982 120.52 205.63 120.52C206.286 120.52 206.874 120.66 207.394 120.94C207.914 121.22 208.318 121.608 208.606 122.104C208.902 122.6 209.05 123.164 209.05 123.796C209.05 124.428 208.902 124.996 208.606 125.5C208.318 125.996 207.914 126.384 207.394 126.664C206.874 126.944 206.286 127.084 205.63 127.084ZM205.63 125.8C206.182 125.8 206.638 125.616 206.998 125.248C207.358 124.88 207.538 124.396 207.538 123.796C207.538 123.196 207.358 122.712 206.998 122.344C206.638 121.976 206.182 121.792 205.63 121.792C205.078 121.792 204.622 121.976 204.262 122.344C203.91 122.712 203.734 123.196 203.734 123.796C203.734 124.396 203.91 124.88 204.262 125.248C204.622 125.616 205.078 125.8 205.63 125.8ZM211.912 121.528C212.344 120.856 213.104 120.52 214.192 120.52V121.948C214.064 121.924 213.948 121.912 213.844 121.912C213.26 121.912 212.804 122.084 212.476 122.428C212.148 122.764 211.984 123.252 211.984 123.892V127H210.484V120.592H211.912V121.528ZM225.115 118.096V127H223.675V126.172C223.427 126.476 223.119 126.704 222.751 126.856C222.391 127.008 221.991 127.084 221.551 127.084C220.935 127.084 220.379 126.948 219.883 126.676C219.395 126.404 219.011 126.02 218.731 125.524C218.451 125.02 218.311 124.444 218.311 123.796C218.311 123.148 218.451 122.576 218.731 122.08C219.011 121.584 219.395 121.2 219.883 120.928C220.379 120.656 220.935 120.52 221.551 120.52C221.975 120.52 222.363 120.592 222.715 120.736C223.067 120.88 223.367 121.096 223.615 121.384V118.096H225.115ZM221.731 125.8C222.091 125.8 222.415 125.72 222.703 125.56C222.991 125.392 223.219 125.156 223.387 124.852C223.555 124.548 223.639 124.196 223.639 123.796C223.639 123.396 223.555 123.044 223.387 122.74C223.219 122.436 222.991 122.204 222.703 122.044C222.415 121.876 222.091 121.792 221.731 121.792C221.371 121.792 221.047 121.876 220.759 122.044C220.471 122.204 220.243 122.436 220.075 122.74C219.907 123.044 219.823 123.396 219.823 123.796C219.823 124.196 219.907 124.548 220.075 124.852C220.243 125.156 220.471 125.392 220.759 125.56C221.047 125.72 221.371 125.8 221.731 125.8ZM233.102 123.832C233.102 123.936 233.094 124.084 233.078 124.276H228.05C228.138 124.748 228.366 125.124 228.734 125.404C229.11 125.676 229.574 125.812 230.126 125.812C230.83 125.812 231.41 125.58 231.866 125.116L232.67 126.04C232.382 126.384 232.018 126.644 231.578 126.82C231.138 126.996 230.642 127.084 230.09 127.084C229.386 127.084 228.766 126.944 228.23 126.664C227.694 126.384 227.278 125.996 226.982 125.5C226.694 124.996 226.55 124.428 226.55 123.796C226.55 123.172 226.69 122.612 226.97 122.116C227.258 121.612 227.654 121.22 228.158 120.94C228.662 120.66 229.23 120.52 229.862 120.52C230.486 120.52 231.042 120.66 231.53 120.94C232.026 121.212 232.41 121.6 232.682 122.104C232.962 122.6 233.102 123.176 233.102 123.832ZM229.862 121.72C229.382 121.72 228.974 121.864 228.638 122.152C228.31 122.432 228.11 122.808 228.038 123.28H231.674C231.61 122.816 231.414 122.44 231.086 122.152C230.758 121.864 230.35 121.72 229.862 121.72ZM241.711 126.652C241.535 126.796 241.319 126.904 241.063 126.976C240.815 127.048 240.551 127.084 240.271 127.084C239.567 127.084 239.023 126.9 238.639 126.532C238.255 126.164 238.063 125.628 238.063 124.924V121.84H237.007V120.64H238.063V119.176H239.563V120.64H241.279V121.84H239.563V124.888C239.563 125.2 239.639 125.44 239.791 125.608C239.943 125.768 240.163 125.848 240.451 125.848C240.787 125.848 241.067 125.76 241.291 125.584L241.711 126.652ZM248.758 123.832C248.758 123.936 248.75 124.084 248.734 124.276H243.706C243.794 124.748 244.022 125.124 244.39 125.404C244.766 125.676 245.23 125.812 245.782 125.812C246.486 125.812 247.066 125.58 247.522 125.116L248.326 126.04C248.038 126.384 247.674 126.644 247.234 126.82C246.794 126.996 246.298 127.084 245.746 127.084C245.042 127.084 244.422 126.944 243.886 126.664C243.35 126.384 242.934 125.996 242.638 125.5C242.35 124.996 242.206 124.428 242.206 123.796C242.206 123.172 242.346 122.612 242.626 122.116C242.914 121.612 243.31 121.22 243.814 120.94C244.318 120.66 244.886 120.52 245.518 120.52C246.142 120.52 246.698 120.66 247.186 120.94C247.682 121.212 248.066 121.6 248.338 122.104C248.618 122.6 248.758 123.176 248.758 123.832ZM245.518 121.72C245.038 121.72 244.63 121.864 244.294 122.152C243.966 122.432 243.766 122.808 243.694 123.28H247.33C247.266 122.816 247.07 122.44 246.742 122.152C246.414 121.864 246.006 121.72 245.518 121.72ZM254.103 127L252.459 124.78L250.803 127H249.147L251.643 123.748L249.255 120.592H250.923L252.495 122.692L254.067 120.592H255.687L253.287 123.724L255.795 127H254.103ZM260.754 126.652C260.578 126.796 260.362 126.904 260.106 126.976C259.858 127.048 259.594 127.084 259.314 127.084C258.61 127.084 258.066 126.9 257.682 126.532C257.298 126.164 257.106 125.628 257.106 124.924V121.84H256.05V120.64H257.106V119.176H258.606V120.64H260.322V121.84H258.606V124.888C258.606 125.2 258.682 125.44 258.834 125.608C258.986 125.768 259.206 125.848 259.494 125.848C259.83 125.848 260.11 125.76 260.334 125.584L260.754 126.652ZM264.657 127.084C264.009 127.084 263.425 126.944 262.905 126.664C262.385 126.384 261.977 125.996 261.681 125.5C261.393 124.996 261.249 124.428 261.249 123.796C261.249 123.164 261.393 122.6 261.681 122.104C261.977 121.608 262.385 121.22 262.905 120.94C263.425 120.66 264.009 120.52 264.657 120.52C265.313 120.52 265.901 120.66 266.421 120.94C266.941 121.22 267.345 121.608 267.633 122.104C267.929 122.6 268.077 123.164 268.077 123.796C268.077 124.428 267.929 124.996 267.633 125.5C267.345 125.996 266.941 126.384 266.421 126.664C265.901 126.944 265.313 127.084 264.657 127.084ZM264.657 125.8C265.209 125.8 265.665 125.616 266.025 125.248C266.385 124.88 266.565 124.396 266.565 123.796C266.565 123.196 266.385 122.712 266.025 122.344C265.665 121.976 265.209 121.792 264.657 121.792C264.105 121.792 263.649 121.976 263.289 122.344C262.937 122.712 262.761 123.196 262.761 123.796C262.761 124.396 262.937 124.88 263.289 125.248C263.649 125.616 264.105 125.8 264.657 125.8Z" fill="#333333"/>
<path fill-rule="evenodd" clip-rule="evenodd" d="M315 157.985C315 147 306 137.993 295 137.993C233.172 137.993 208 138 208 138L200 146H163L154 138H119.147C108.147 138 99.1467 147 99.1467 157.992C99.1467 158 99.1467 158.007 99.1467 158.015C99.1467 169 108.147 178 119.147 178C135.71 178 154 178 154 178L163 186H200L208 178H295.147C306 178 315 169 315 158.008C315 158 315 158.5 315 157.985Z" fill="#30DCFF"/>
<path fill-rule="evenodd" clip-rule="evenodd" d="M315 157.989C315 147 306 138 294.853 138C233.025 138 208 138 208 138L200 146H163L154 138H119C108 138 99 147 99 157.989C99 157.996 99 158 99 158H104C104 148 111 143 119 143C133.664 143 152 143 152 143L161 151H202L210 143H295C304 143 310 149 310 158L315 158V157.989Z" fill="white" fill-opacity="0.5"/>
<path fill-rule="evenodd" clip-rule="evenodd" d="M315 158L310 158C310 166.971 304.197 173 295 173C237.995 173 206 173 206 173L198 181H165L156 173H119C108.496 173 104 167 104 158.001L99 158V158.011C99 169 108 178 119 178C135.563 178 154 178 154 178L163 186H200L208 178H295C306 178 315 169 315 158Z" fill="black" fill-opacity="0.25"/>
<path d="M115.624 166L113.908 163.54C113.836 163.548 113.728 163.552 113.584 163.552H111.688V166H110.128V157.6H113.584C114.312 157.6 114.944 157.72 115.48 157.96C116.024 158.2 116.44 158.544 116.728 158.992C117.016 159.44 117.16 159.972 117.16 160.588C117.16 161.22 117.004 161.764 116.692 162.22C116.388 162.676 115.948 163.016 115.372 163.24L117.304 166H115.624ZM115.588 160.588C115.588 160.052 115.412 159.64 115.06 159.352C114.708 159.064 114.192 158.92 113.512 158.92H111.688V162.268H113.512C114.192 162.268 114.708 162.124 115.06 161.836C115.412 161.54 115.588 161.124 115.588 160.588ZM124.785 162.832C124.785 162.936 124.777 163.084 124.761 163.276H119.733C119.821 163.748 120.049 164.124 120.417 164.404C120.793 164.676 121.257 164.812 121.809 164.812C122.513 164.812 123.093 164.58 123.549 164.116L124.353 165.04C124.065 165.384 123.701 165.644 123.261 165.82C122.821 165.996 122.325 166.084 121.773 166.084C121.069 166.084 120.449 165.944 119.913 165.664C119.377 165.384 118.961 164.996 118.665 164.5C118.377 163.996 118.233 163.428 118.233 162.796C118.233 162.172 118.373 161.612 118.653 161.116C118.941 160.612 119.337 160.22 119.841 159.94C120.345 159.66 120.913 159.52 121.545 159.52C122.169 159.52 122.725 159.66 123.213 159.94C123.709 160.212 124.093 160.6 124.365 161.104C124.645 161.6 124.785 162.176 124.785 162.832ZM121.545 160.72C121.065 160.72 120.657 160.864 120.321 161.152C119.993 161.432 119.793 161.808 119.721 162.28H123.357C123.293 161.816 123.097 161.44 122.769 161.152C122.441 160.864 122.033 160.72 121.545 160.72ZM132.502 157.096V166H131.062V165.172C130.814 165.476 130.506 165.704 130.138 165.856C129.778 166.008 129.378 166.084 128.938 166.084C128.322 166.084 127.766 165.948 127.27 165.676C126.782 165.404 126.398 165.02 126.118 164.524C125.838 164.02 125.698 163.444 125.698 162.796C125.698 162.148 125.838 161.576 126.118 161.08C126.398 160.584 126.782 160.2 127.27 159.928C127.766 159.656 128.322 159.52 128.938 159.52C129.362 159.52 129.75 159.592 130.102 159.736C130.454 159.88 130.754 160.096 131.002 160.384V157.096H132.502ZM129.118 164.8C129.478 164.8 129.802 164.72 130.09 164.56C130.378 164.392 130.606 164.156 130.774 163.852C130.942 163.548 131.026 163.196 131.026 162.796C131.026 162.396 130.942 162.044 130.774 161.74C130.606 161.436 130.378 161.204 130.09 161.044C129.802 160.876 129.478 160.792 129.118 160.792C128.758 160.792 128.434 160.876 128.146 161.044C127.858 161.204 127.63 161.436 127.462 161.74C127.294 162.044 127.21 162.396 127.21 162.796C127.21 163.196 127.294 163.548 127.462 163.852C127.63 164.156 127.858 164.392 128.146 164.56C128.434 164.72 128.758 164.8 129.118 164.8ZM136.912 159.52C137.856 159.52 138.576 159.748 139.072 160.204C139.576 160.652 139.828 161.332 139.828 162.244V166H138.412V165.22C138.228 165.5 137.964 165.716 137.62 165.868C137.284 166.012 136.876 166.084 136.396 166.084C135.916 166.084 135.496 166.004 135.136 165.844C134.776 165.676 134.496 165.448 134.296 165.16C134.104 164.864 134.008 164.532 134.008 164.164C134.008 163.588 134.22 163.128 134.644 162.784C135.076 162.432 135.752 162.256 136.672 162.256H138.328V162.16C138.328 161.712 138.192 161.368 137.92 161.128C137.656 160.888 137.26 160.768 136.732 160.768C136.372 160.768 136.016 160.824 135.664 160.936C135.32 161.048 135.028 161.204 134.788 161.404L134.2 160.312C134.536 160.056 134.94 159.86 135.412 159.724C135.884 159.588 136.384 159.52 136.912 159.52ZM136.708 164.992C137.084 164.992 137.416 164.908 137.704 164.74C138 164.564 138.208 164.316 138.328 163.996V163.252H136.78C135.916 163.252 135.484 163.536 135.484 164.104C135.484 164.376 135.592 164.592 135.808 164.752C136.024 164.912 136.324 164.992 136.708 164.992ZM144.752 166.084C144.088 166.084 143.492 165.944 142.964 165.664C142.436 165.384 142.024 164.996 141.728 164.5C141.432 163.996 141.284 163.428 141.284 162.796C141.284 162.164 141.432 161.6 141.728 161.104C142.024 160.608 142.432 160.22 142.952 159.94C143.48 159.66 144.08 159.52 144.752 159.52C145.384 159.52 145.936 159.648 146.408 159.904C146.888 160.16 147.248 160.528 147.488 161.008L146.336 161.68C146.152 161.384 145.92 161.164 145.64 161.02C145.368 160.868 145.068 160.792 144.74 160.792C144.18 160.792 143.716 160.976 143.348 161.344C142.98 161.704 142.796 162.188 142.796 162.796C142.796 163.404 142.976 163.892 143.336 164.26C143.704 164.62 144.172 164.8 144.74 164.8C145.068 164.8 145.368 164.728 145.64 164.584C145.92 164.432 146.152 164.208 146.336 163.912L147.488 164.584C147.24 165.064 146.876 165.436 146.396 165.7C145.924 165.956 145.376 166.084 144.752 166.084ZM152.719 165.652C152.543 165.796 152.327 165.904 152.071 165.976C151.823 166.048 151.559 166.084 151.279 166.084C150.575 166.084 150.031 165.9 149.647 165.532C149.263 165.164 149.071 164.628 149.071 163.924V160.84H148.015V159.64H149.071V158.176H150.571V159.64H152.287V160.84H150.571V163.888C150.571 164.2 150.647 164.44 150.799 164.608C150.951 164.768 151.171 164.848 151.459 164.848C151.795 164.848 152.075 164.76 152.299 164.584L152.719 165.652ZM156.401 159.52C157.345 159.52 158.065 159.748 158.561 160.204C159.065 160.652 159.317 161.332 159.317 162.244V166H157.901V165.22C157.717 165.5 157.453 165.716 157.109 165.868C156.773 166.012 156.365 166.084 155.885 166.084C155.405 166.084 154.985 166.004 154.625 165.844C154.265 165.676 153.985 165.448 153.785 165.16C153.593 164.864 153.497 164.532 153.497 164.164C153.497 163.588 153.709 163.128 154.133 162.784C154.565 162.432 155.241 162.256 156.161 162.256H157.817V162.16C157.817 161.712 157.681 161.368 157.409 161.128C157.145 160.888 156.749 160.768 156.221 160.768C155.861 160.768 155.505 160.824 155.153 160.936C154.809 161.048 154.517 161.204 154.277 161.404L153.689 160.312C154.025 160.056 154.429 159.86 154.901 159.724C155.373 159.588 155.873 159.52 156.401 159.52ZM156.197 164.992C156.573 164.992 156.905 164.908 157.193 164.74C157.489 164.564 157.697 164.316 157.817 163.996V163.252H156.269C155.405 163.252 154.973 163.536 154.973 164.104C154.973 164.376 155.081 164.592 155.297 164.752C155.513 164.912 155.813 164.992 156.197 164.992ZM162.67 160.528C163.102 159.856 163.862 159.52 164.95 159.52V160.948C164.822 160.924 164.706 160.912 164.602 160.912C164.018 160.912 163.562 161.084 163.234 161.428C162.906 161.764 162.742 162.252 162.742 162.892V166H161.242V159.592H162.67V160.528Z" fill="#333333"/>
<path fill-rule="evenodd" clip-rule="evenodd" d="M315 81C315 70 308 63 297 63C257.917 63 282.045 63 254 63C246.27 63 242.785 60.7635 238.5 56.5C229.193 47.8197 205.783 34 154.427 34C82.0243 34 65 63 65 63C65 63 65.0004 67.7195 65.0006 81C65.0006 91 73 99 83 99C109.488 99 154 99 154 99L163 107H200L208 99C208 99 242.031 99 297 99C308 99 315 92 315 81C315 78.1323 315 82.8675 315 81Z" fill="#FC79FF"/>
<path fill-rule="evenodd" clip-rule="evenodd" d="M310 81C310 89 306 94 297 94L206 94L198 102H165L156 94C156 94 108.393 94 83.0001 94C74.9643 94 70 88 70 81H65C65 91 73 99 83.0001 99C109.441 99 154 99 154 99L163.027 107H200L208 99L297 99C308 99 315 92 315 81C313.5 81 312 80.9999 310 81Z" fill="black" fill-opacity="0.25"/>
<path fill-rule="evenodd" clip-rule="evenodd" d="M65 81H70V65C70 65 84.993 39 154.286 39C201.342 39 225.557 51.6452 235.5 60C240.292 64.0301 246.712 67.9521 253 68C261.5 68 281.464 68 297 68C304.964 68 310 73.5 310 80V81H314H315C315 70 308 63 297 63C257.993 63 281.008 63 253 63C246 63 242.169 60.1595 238.214 56.2066C228.936 47.4998 205.571 34 154.268 34C81.9103 34 65 63 65 63L65 81Z" fill="white" fill-opacity="0.5"/>
<path d="M80.016 88.144C79.16 88.144 78.384 87.96 77.688 87.592C77 87.216 76.456 86.7 76.056 86.044C75.664 85.38 75.468 84.632 75.468 83.8C75.468 82.968 75.664 82.224 76.056 81.568C76.456 80.904 77 80.388 77.688 80.02C78.384 79.644 79.164 79.456 80.028 79.456C80.756 79.456 81.412 79.584 81.996 79.84C82.588 80.096 83.084 80.464 83.484 80.944L82.236 82.096C81.668 81.44 80.964 81.112 80.124 81.112C79.604 81.112 79.14 81.228 78.732 81.46C78.324 81.684 78.004 82 77.772 82.408C77.548 82.816 77.436 83.28 77.436 83.8C77.436 84.32 77.548 84.784 77.772 85.192C78.004 85.6 78.324 85.92 78.732 86.152C79.14 86.376 79.604 86.488 80.124 86.488C80.964 86.488 81.668 86.156 82.236 85.492L83.484 86.644C83.084 87.132 82.588 87.504 81.996 87.76C81.404 88.016 80.744 88.144 80.016 88.144ZM91.0047 81.544V88H89.2287V87.232C88.9807 87.512 88.6847 87.728 88.3407 87.88C87.9967 88.024 87.6247 88.096 87.2247 88.096C86.3767 88.096 85.7047 87.852 85.2087 87.364C84.7127 86.876 84.4647 86.152 84.4647 85.192V81.544H86.3367V84.916C86.3367 85.956 86.7727 86.476 87.6447 86.476C88.0927 86.476 88.4527 86.332 88.7247 86.044C88.9967 85.748 89.1327 85.312 89.1327 84.736V81.544H91.0047ZM95.343 81.448C96.343 81.448 97.111 81.688 97.647 82.168C98.183 82.64 98.451 83.356 98.451 84.316V88H96.699V87.196C96.347 87.796 95.691 88.096 94.731 88.096C94.235 88.096 93.803 88.012 93.435 87.844C93.075 87.676 92.799 87.444 92.607 87.148C92.415 86.852 92.319 86.516 92.319 86.14C92.319 85.54 92.543 85.068 92.991 84.724C93.447 84.38 94.147 84.208 95.091 84.208H96.579C96.579 83.8 96.455 83.488 96.207 83.272C95.959 83.048 95.587 82.936 95.091 82.936C94.747 82.936 94.407 82.992 94.071 83.104C93.743 83.208 93.463 83.352 93.231 83.536L92.559 82.228C92.911 81.98 93.331 81.788 93.819 81.652C94.315 81.516 94.823 81.448 95.343 81.448ZM95.199 86.836C95.519 86.836 95.803 86.764 96.051 86.62C96.299 86.468 96.475 86.248 96.579 85.96V85.3H95.295C94.527 85.3 94.143 85.552 94.143 86.056C94.143 86.296 94.235 86.488 94.419 86.632C94.611 86.768 94.871 86.836 95.199 86.836ZM104.069 81.448C104.869 81.448 105.513 81.688 106.001 82.168C106.497 82.648 106.745 83.36 106.745 84.304V88H104.873V84.592C104.873 84.08 104.761 83.7 104.537 83.452C104.313 83.196 103.989 83.068 103.565 83.068C103.093 83.068 102.717 83.216 102.437 83.512C102.157 83.8 102.017 84.232 102.017 84.808V88H100.145V81.544H101.933V82.3C102.181 82.028 102.489 81.82 102.857 81.676C103.225 81.524 103.629 81.448 104.069 81.448ZM115.088 79.096V88H113.3V87.256C112.836 87.816 112.164 88.096 111.284 88.096C110.676 88.096 110.124 87.96 109.628 87.688C109.14 87.416 108.756 87.028 108.476 86.524C108.196 86.02 108.056 85.436 108.056 84.772C108.056 84.108 108.196 83.524 108.476 83.02C108.756 82.516 109.14 82.128 109.628 81.856C110.124 81.584 110.676 81.448 111.284 81.448C112.108 81.448 112.752 81.708 113.216 82.228V79.096H115.088ZM111.608 86.56C112.08 86.56 112.472 86.4 112.784 86.08C113.096 85.752 113.252 85.316 113.252 84.772C113.252 84.228 113.096 83.796 112.784 83.476C112.472 83.148 112.08 82.984 111.608 82.984C111.128 82.984 110.732 83.148 110.42 83.476C110.108 83.796 109.952 84.228 109.952 84.772C109.952 85.316 110.108 85.752 110.42 86.08C110.732 86.4 111.128 86.56 111.608 86.56ZM119.893 88.096C119.213 88.096 118.601 87.956 118.057 87.676C117.521 87.388 117.101 86.992 116.797 86.488C116.493 85.984 116.341 85.412 116.341 84.772C116.341 84.132 116.493 83.56 116.797 83.056C117.101 82.552 117.521 82.16 118.057 81.88C118.601 81.592 119.213 81.448 119.893 81.448C120.573 81.448 121.181 81.592 121.717 81.88C122.253 82.16 122.673 82.552 122.977 83.056C123.281 83.56 123.433 84.132 123.433 84.772C123.433 85.412 123.281 85.984 122.977 86.488C122.673 86.992 122.253 87.388 121.717 87.676C121.181 87.956 120.573 88.096 119.893 88.096ZM119.893 86.56C120.373 86.56 120.765 86.4 121.069 86.08C121.381 85.752 121.537 85.316 121.537 84.772C121.537 84.228 121.381 83.796 121.069 83.476C120.765 83.148 120.373 82.984 119.893 82.984C119.413 82.984 119.017 83.148 118.705 83.476C118.393 83.796 118.237 84.228 118.237 84.772C118.237 85.316 118.393 85.752 118.705 86.08C119.017 86.4 119.413 86.56 119.893 86.56ZM125.392 83.788C125.064 83.788 124.788 83.676 124.564 83.452C124.34 83.228 124.228 82.948 124.228 82.612C124.228 82.268 124.34 81.992 124.564 81.784C124.788 81.568 125.064 81.46 125.392 81.46C125.72 81.46 125.996 81.568 126.22 81.784C126.444 81.992 126.556 82.268 126.556 82.612C126.556 82.948 126.444 83.228 126.22 83.452C125.996 83.676 125.72 83.788 125.392 83.788ZM125.392 88.096C125.064 88.096 124.788 87.984 124.564 87.76C124.34 87.536 124.228 87.256 124.228 86.92C124.228 86.576 124.34 86.3 124.564 86.092C124.788 85.876 125.064 85.768 125.392 85.768C125.72 85.768 125.996 85.876 126.22 86.092C126.444 86.3 126.556 86.576 126.556 86.92C126.556 87.256 126.444 87.536 126.22 87.76C125.996 87.984 125.72 88.096 125.392 88.096ZM135.039 81.448C135.639 81.448 136.183 81.588 136.671 81.868C137.167 82.14 137.555 82.528 137.835 83.032C138.115 83.528 138.255 84.108 138.255 84.772C138.255 85.436 138.115 86.02 137.835 86.524C137.555 87.02 137.167 87.408 136.671 87.688C136.183 87.96 135.639 88.096 135.039 88.096C134.215 88.096 133.567 87.836 133.095 87.316V90.328H131.223V81.544H133.011V82.288C133.475 81.728 134.151 81.448 135.039 81.448ZM134.715 86.56C135.195 86.56 135.587 86.4 135.891 86.08C136.203 85.752 136.359 85.316 136.359 84.772C136.359 84.228 136.203 83.796 135.891 83.476C135.587 83.148 135.195 82.984 134.715 82.984C134.235 82.984 133.839 83.148 133.527 83.476C133.223 83.796 133.071 84.228 133.071 84.772C133.071 85.316 133.223 85.752 133.527 86.08C133.839 86.4 134.235 86.56 134.715 86.56ZM141.297 82.396C141.521 82.084 141.821 81.848 142.197 81.688C142.581 81.528 143.021 81.448 143.517 81.448V83.176C143.309 83.16 143.169 83.152 143.097 83.152C142.561 83.152 142.141 83.304 141.837 83.608C141.533 83.904 141.381 84.352 141.381 84.952V88H139.509V81.544H141.297V82.396ZM150.895 84.796C150.895 84.82 150.883 84.988 150.859 85.3H145.975C146.063 85.7 146.271 86.016 146.599 86.248C146.927 86.48 147.335 86.596 147.823 86.596C148.159 86.596 148.455 86.548 148.711 86.452C148.975 86.348 149.219 86.188 149.443 85.972L150.439 87.052C149.831 87.748 148.943 88.096 147.775 88.096C147.047 88.096 146.403 87.956 145.843 87.676C145.283 87.388 144.851 86.992 144.547 86.488C144.243 85.984 144.091 85.412 144.091 84.772C144.091 84.14 144.239 83.572 144.535 83.068C144.839 82.556 145.251 82.16 145.771 81.88C146.299 81.592 146.887 81.448 147.535 81.448C148.167 81.448 148.739 81.584 149.251 81.856C149.763 82.128 150.163 82.52 150.451 83.032C150.747 83.536 150.895 84.124 150.895 84.796ZM147.547 82.864C147.123 82.864 146.767 82.984 146.479 83.224C146.191 83.464 146.015 83.792 145.951 84.208H149.131C149.067 83.8 148.891 83.476 148.603 83.236C148.315 82.988 147.963 82.864 147.547 82.864ZM154.313 88.096C153.777 88.096 153.253 88.032 152.741 87.904C152.229 87.768 151.821 87.6 151.517 87.4L152.141 86.056C152.429 86.24 152.777 86.392 153.185 86.512C153.593 86.624 153.993 86.68 154.385 86.68C155.177 86.68 155.573 86.484 155.573 86.092C155.573 85.908 155.465 85.776 155.249 85.696C155.033 85.616 154.701 85.548 154.253 85.492C153.725 85.412 153.289 85.32 152.945 85.216C152.601 85.112 152.301 84.928 152.045 84.664C151.797 84.4 151.673 84.024 151.673 83.536C151.673 83.128 151.789 82.768 152.021 82.456C152.261 82.136 152.605 81.888 153.053 81.712C153.509 81.536 154.045 81.448 154.661 81.448C155.117 81.448 155.569 81.5 156.017 81.604C156.473 81.7 156.849 81.836 157.145 82.012L156.521 83.344C155.953 83.024 155.333 82.864 154.661 82.864C154.261 82.864 153.961 82.92 153.761 83.032C153.561 83.144 153.461 83.288 153.461 83.464C153.461 83.664 153.569 83.804 153.785 83.884C154.001 83.964 154.345 84.04 154.817 84.112C155.345 84.2 155.777 84.296 156.113 84.4C156.449 84.496 156.741 84.676 156.989 84.94C157.237 85.204 157.361 85.572 157.361 86.044C157.361 86.444 157.241 86.8 157.001 87.112C156.761 87.424 156.409 87.668 155.945 87.844C155.489 88.012 154.945 88.096 154.313 88.096ZM158.516 81.544H160.388V88H158.516V81.544ZM159.452 80.644C159.108 80.644 158.828 80.544 158.612 80.344C158.396 80.144 158.288 79.896 158.288 79.6C158.288 79.304 158.396 79.056 158.612 78.856C158.828 78.656 159.108 78.556 159.452 78.556C159.796 78.556 160.076 78.652 160.292 78.844C160.508 79.036 160.616 79.276 160.616 79.564C160.616 79.876 160.508 80.136 160.292 80.344C160.076 80.544 159.796 80.644 159.452 80.644ZM165.198 88.096C164.518 88.096 163.906 87.956 163.362 87.676C162.826 87.388 162.406 86.992 162.102 86.488C161.798 85.984 161.646 85.412 161.646 84.772C161.646 84.132 161.798 83.56 162.102 83.056C162.406 82.552 162.826 82.16 163.362 81.88C163.906 81.592 164.518 81.448 165.198 81.448C165.878 81.448 166.486 81.592 167.022 81.88C167.558 82.16 167.978 82.552 168.282 83.056C168.586 83.56 168.738 84.132 168.738 84.772C168.738 85.412 168.586 85.984 168.282 86.488C167.978 86.992 167.558 87.388 167.022 87.676C166.486 87.956 165.878 88.096 165.198 88.096ZM165.198 86.56C165.678 86.56 166.07 86.4 166.374 86.08C166.686 85.752 166.842 85.316 166.842 84.772C166.842 84.228 166.686 83.796 166.374 83.476C166.07 83.148 165.678 82.984 165.198 82.984C164.718 82.984 164.322 83.148 164.01 83.476C163.698 83.796 163.542 84.228 163.542 84.772C163.542 85.316 163.698 85.752 164.01 86.08C164.322 86.4 164.718 86.56 165.198 86.56ZM173.913 81.448C174.713 81.448 175.357 81.688 175.845 82.168C176.341 82.648 176.589 83.36 176.589 84.304V88H174.717V84.592C174.717 84.08 174.605 83.7 174.381 83.452C174.157 83.196 173.833 83.068 173.409 83.068C172.937 83.068 172.561 83.216 172.281 83.512C172.001 83.8 171.861 84.232 171.861 84.808V88H169.989V81.544H171.777V82.3C172.025 82.028 172.333 81.82 172.701 81.676C173.069 81.524 173.473 81.448 173.913 81.448ZM180.89 81.448C181.89 81.448 182.658 81.688 183.194 82.168C183.73 82.64 183.998 83.356 183.998 84.316V88H182.246V87.196C181.894 87.796 181.238 88.096 180.278 88.096C179.782 88.096 179.35 88.012 178.982 87.844C178.622 87.676 178.346 87.444 178.154 87.148C177.962 86.852 177.866 86.516 177.866 86.14C177.866 85.54 178.09 85.068 178.538 84.724C178.994 84.38 179.694 84.208 180.638 84.208H182.126C182.126 83.8 182.002 83.488 181.754 83.272C181.506 83.048 181.134 82.936 180.638 82.936C180.294 82.936 179.954 82.992 179.618 83.104C179.29 83.208 179.01 83.352 178.778 83.536L178.106 82.228C178.458 81.98 178.878 81.788 179.366 81.652C179.862 81.516 180.37 81.448 180.89 81.448ZM180.746 86.836C181.066 86.836 181.35 86.764 181.598 86.62C181.846 86.468 182.022 86.248 182.126 85.96V85.3H180.842C180.074 85.3 179.69 85.552 179.69 86.056C179.69 86.296 179.782 86.488 179.966 86.632C180.158 86.768 180.418 86.836 180.746 86.836ZM187.48 82.396C187.704 82.084 188.004 81.848 188.38 81.688C188.764 81.528 189.204 81.448 189.7 81.448V83.176C189.492 83.16 189.352 83.152 189.28 83.152C188.744 83.152 188.324 83.304 188.02 83.608C187.716 83.904 187.564 84.352 187.564 84.952V88H185.692V81.544H187.48V82.396ZM198.075 81.448C198.675 81.448 199.219 81.588 199.707 81.868C200.203 82.14 200.591 82.528 200.871 83.032C201.151 83.528 201.291 84.108 201.291 84.772C201.291 85.436 201.151 86.02 200.871 86.524C200.591 87.02 200.203 87.408 199.707 87.688C199.219 87.96 198.675 88.096 198.075 88.096C197.187 88.096 196.511 87.816 196.047 87.256V88H194.259V79.096H196.131V82.228C196.603 81.708 197.251 81.448 198.075 81.448ZM197.751 86.56C198.231 86.56 198.623 86.4 198.927 86.08C199.239 85.752 199.395 85.316 199.395 84.772C199.395 84.228 199.239 83.796 198.927 83.476C198.623 83.148 198.231 82.984 197.751 82.984C197.271 82.984 196.875 83.148 196.563 83.476C196.259 83.796 196.107 84.228 196.107 84.772C196.107 85.316 196.259 85.752 196.563 86.08C196.875 86.4 197.271 86.56 197.751 86.56ZM205.616 88.096C204.936 88.096 204.324 87.956 203.78 87.676C203.244 87.388 202.824 86.992 202.52 86.488C202.216 85.984 202.064 85.412 202.064 84.772C202.064 84.132 202.216 83.56 202.52 83.056C202.824 82.552 203.244 82.16 203.78 81.88C204.324 81.592 204.936 81.448 205.616 81.448C206.296 81.448 206.904 81.592 207.44 81.88C207.976 82.16 208.396 82.552 208.7 83.056C209.004 83.56 209.156 84.132 209.156 84.772C209.156 85.412 209.004 85.984 208.7 86.488C208.396 86.992 207.976 87.388 207.44 87.676C206.904 87.956 206.296 88.096 205.616 88.096ZM205.616 86.56C206.096 86.56 206.488 86.4 206.792 86.08C207.104 85.752 207.26 85.316 207.26 84.772C207.26 84.228 207.104 83.796 206.792 83.476C206.488 83.148 206.096 82.984 205.616 82.984C205.136 82.984 204.74 83.148 204.428 83.476C204.116 83.796 203.96 84.228 203.96 84.772C203.96 85.316 204.116 85.752 204.428 86.08C204.74 86.4 205.136 86.56 205.616 86.56ZM214.571 87.688C214.387 87.824 214.159 87.928 213.887 88C213.623 88.064 213.343 88.096 213.047 88.096C212.279 88.096 211.683 87.9 211.259 87.508C210.843 87.116 210.635 86.54 210.635 85.78V83.128H209.639V81.688H210.635V80.116H212.507V81.688H214.115V83.128H212.507V85.756C212.507 86.028 212.575 86.24 212.711 86.392C212.855 86.536 213.055 86.608 213.311 86.608C213.607 86.608 213.859 86.528 214.067 86.368L214.571 87.688ZM218.495 88.096C217.815 88.096 217.203 87.956 216.659 87.676C216.123 87.388 215.703 86.992 215.399 86.488C215.095 85.984 214.943 85.412 214.943 84.772C214.943 84.132 215.095 83.56 215.399 83.056C215.703 82.552 216.123 82.16 216.659 81.88C217.203 81.592 217.815 81.448 218.495 81.448C219.175 81.448 219.783 81.592 220.319 81.88C220.855 82.16 221.275 82.552 221.579 83.056C221.883 83.56 222.035 84.132 222.035 84.772C222.035 85.412 221.883 85.984 221.579 86.488C221.275 86.992 220.855 87.388 220.319 87.676C219.783 87.956 219.175 88.096 218.495 88.096ZM218.495 86.56C218.975 86.56 219.367 86.4 219.671 86.08C219.983 85.752 220.139 85.316 220.139 84.772C220.139 84.228 219.983 83.796 219.671 83.476C219.367 83.148 218.975 82.984 218.495 82.984C218.015 82.984 217.619 83.148 217.307 83.476C216.995 83.796 216.839 84.228 216.839 84.772C216.839 85.316 216.995 85.752 217.307 86.08C217.619 86.4 218.015 86.56 218.495 86.56ZM218.999 78.988H221.015L218.843 80.716H217.379L218.999 78.988ZM227.21 81.448C228.01 81.448 228.654 81.688 229.142 82.168C229.638 82.648 229.886 83.36 229.886 84.304V88H228.014V84.592C228.014 84.08 227.902 83.7 227.678 83.452C227.454 83.196 227.13 83.068 226.706 83.068C226.234 83.068 225.858 83.216 225.578 83.512C225.298 83.8 225.158 84.232 225.158 84.808V88H223.286V81.544H225.074V82.3C225.322 82.028 225.63 81.82 225.998 81.676C226.366 81.524 226.77 81.448 227.21 81.448ZM234.981 81.544H236.853V88H234.981V81.544ZM235.917 80.644C235.573 80.644 235.293 80.544 235.077 80.344C234.861 80.144 234.753 79.896 234.753 79.6C234.753 79.304 234.861 79.056 235.077 78.856C235.293 78.656 235.573 78.556 235.917 78.556C236.261 78.556 236.541 78.652 236.757 78.844C236.973 79.036 237.081 79.276 237.081 79.564C237.081 79.876 236.973 80.136 236.757 80.344C236.541 80.544 236.261 80.644 235.917 80.644ZM242.515 81.448C243.315 81.448 243.959 81.688 244.447 82.168C244.943 82.648 245.191 83.36 245.191 84.304V88H243.319V84.592C243.319 84.08 243.207 83.7 242.983 83.452C242.759 83.196 242.435 83.068 242.011 83.068C241.539 83.068 241.163 83.216 240.883 83.512C240.603 83.8 240.463 84.232 240.463 84.808V88H238.591V81.544H240.379V82.3C240.627 82.028 240.935 81.82 241.303 81.676C241.671 81.524 242.075 81.448 242.515 81.448ZM246.887 81.544H248.759V88H246.887V81.544ZM247.823 80.644C247.479 80.644 247.199 80.544 246.983 80.344C246.767 80.144 246.659 79.896 246.659 79.6C246.659 79.304 246.767 79.056 246.983 78.856C247.199 78.656 247.479 78.556 247.823 78.556C248.167 78.556 248.447 78.652 248.663 78.844C248.879 79.036 248.987 79.276 248.987 79.564C248.987 79.876 248.879 80.136 248.663 80.344C248.447 80.544 248.167 80.644 247.823 80.644ZM253.617 88.096C252.929 88.096 252.309 87.956 251.757 87.676C251.213 87.388 250.785 86.992 250.473 86.488C250.169 85.984 250.017 85.412 250.017 84.772C250.017 84.132 250.169 83.56 250.473 83.056C250.785 82.552 251.213 82.16 251.757 81.88C252.309 81.592 252.929 81.448 253.617 81.448C254.297 81.448 254.889 81.592 255.393 81.88C255.905 82.16 256.277 82.564 256.509 83.092L255.057 83.872C254.721 83.28 254.237 82.984 253.605 82.984C253.117 82.984 252.713 83.144 252.393 83.464C252.073 83.784 251.913 84.22 251.913 84.772C251.913 85.324 252.073 85.76 252.393 86.08C252.713 86.4 253.117 86.56 253.605 86.56C254.245 86.56 254.729 86.264 255.057 85.672L256.509 86.464C256.277 86.976 255.905 87.376 255.393 87.664C254.889 87.952 254.297 88.096 253.617 88.096ZM257.587 81.544H259.459V88H257.587V81.544ZM258.523 80.644C258.179 80.644 257.899 80.544 257.683 80.344C257.467 80.144 257.359 79.896 257.359 79.6C257.359 79.304 257.467 79.056 257.683 78.856C257.899 78.656 258.179 78.556 258.523 78.556C258.867 78.556 259.147 78.652 259.363 78.844C259.579 79.036 259.687 79.276 259.687 79.564C259.687 79.876 259.579 80.136 259.363 80.344C259.147 80.544 258.867 80.644 258.523 80.644ZM263.8 81.448C264.8 81.448 265.568 81.688 266.104 82.168C266.64 82.64 266.908 83.356 266.908 84.316V88H265.156V87.196C264.804 87.796 264.148 88.096 263.188 88.096C262.692 88.096 262.26 88.012 261.892 87.844C261.532 87.676 261.256 87.444 261.064 87.148C260.872 86.852 260.776 86.516 260.776 86.14C260.776 85.54 261 85.068 261.448 84.724C261.904 84.38 262.604 84.208 263.548 84.208H265.036C265.036 83.8 264.912 83.488 264.664 83.272C264.416 83.048 264.044 82.936 263.548 82.936C263.204 82.936 262.864 82.992 262.528 83.104C262.2 83.208 261.92 83.352 261.688 83.536L261.016 82.228C261.368 81.98 261.788 81.788 262.276 81.652C262.772 81.516 263.28 81.448 263.8 81.448ZM263.656 86.836C263.976 86.836 264.26 86.764 264.508 86.62C264.756 86.468 264.932 86.248 265.036 85.96V85.3H263.752C262.984 85.3 262.6 85.552 262.6 86.056C262.6 86.296 262.692 86.488 262.876 86.632C263.068 86.768 263.328 86.836 263.656 86.836ZM270.39 82.396C270.614 82.084 270.914 81.848 271.29 81.688C271.674 81.528 272.114 81.448 272.61 81.448V83.176C272.402 83.16 272.262 83.152 272.19 83.152C271.654 83.152 271.234 83.304 270.93 83.608C270.626 83.904 270.474 84.352 270.474 84.952V88H268.602V81.544H270.39V82.396ZM274.361 88.096C274.033 88.096 273.757 87.984 273.533 87.76C273.309 87.536 273.197 87.256 273.197 86.92C273.197 86.576 273.309 86.3 273.533 86.092C273.757 85.876 274.033 85.768 274.361 85.768C274.689 85.768 274.965 85.876 275.189 86.092C275.413 86.3 275.525 86.576 275.525 86.92C275.525 87.256 275.413 87.536 275.189 87.76C274.965 87.984 274.689 88.096 274.361 88.096Z" fill="#333333"/>
</g>
<defs>
<filter id="filter0_d_4403_110193" x="0" y="0" width="380" height="224" filterUnits="userSpaceOnUse" color-interpolation-filters="sRGB">
<feFlood flood-opacity="0" result="BackgroundImageFix"/>
<feColorMatrix in="SourceAlpha" type="matrix" values="0 0 0 0 0 0 0 0 0 0 0 0 0 0 0 0 0 0 127 0" result="hardAlpha"/>
<feOffset dy="4"/>
<feColorMatrix type="matrix" values="0 0 0 0 0 0 0 0 0 0 0 0 0 0 0 0 0 0 0.25 0"/>
<feBlend mode="normal" in2="BackgroundImageFix" result="effect1_dropShadow_4403_110193"/>
<feBlend mode="normal" in="SourceGraphic" in2="effect1_dropShadow_4403_110193" result="shape"/>
</filter>
</defs>
</svg>
