<svg width="380" height="224" viewBox="0 0 380 224" fill="none" xmlns="http://www.w3.org/2000/svg">
<g filter="url(#filter0_d_4403_110096)">
<rect width="380" height="220" rx="20" fill="#F2F2F2"/>
<path fill-rule="evenodd" clip-rule="evenodd" d="M315 99.9851C315 89 306 79.9926 295 79.9926C233.172 79.9926 208 80 208 80L200 88H163L154 79.9998H119.147C108.147 79.9998 99.1467 89 99.1467 99.9923C99.1467 99.9997 99.1467 100.007 99.1467 100.015C99.1467 111 108.147 120 119.147 120C135.71 120 154 120 154 120L163 128H200L208 120H295.147C306 120 315 111 315 100.008C315 100 315 100.5 315 99.9851Z" fill="#30DCFF"/>
<path fill-rule="evenodd" clip-rule="evenodd" d="M315 99.9888C315 89 306 80 294.853 80C233.025 80 208 80.0001 208 80.0001L200 88H163L154 80.0001H119C108 80.0001 99 89.0001 99 99.9888C99 99.9962 99 100 99 100H104C104 90 111 85.0001 119 85.0001C133.664 85.0001 152 85 152 85L161 93H202L210 85H295C304 85 310 91 310 99.9998L315 100V99.9888Z" fill="white" fill-opacity="0.5"/>
<path fill-rule="evenodd" clip-rule="evenodd" d="M315 100L310 100C310 108.971 304.197 115 295 115C237.995 115 206 115 206 115L198 123H165L156 115H119C108.496 115 104 109 104 100.001L99 100V100.011C99 111 108 120 119 120C135.563 120 154 120 154 120L163 128H200L208 120H295C306 120 315 111 315 100Z" fill="black" fill-opacity="0.25"/>
<path d="M116.428 106.692V108H110.128V99.6H116.26V100.908H111.688V103.092H115.744V104.376H111.688V106.692H116.428ZM119.944 108.084C119.424 108.084 118.916 108.016 118.42 107.88C117.924 107.744 117.528 107.572 117.232 107.364L117.808 106.224C118.096 106.416 118.44 106.572 118.84 106.692C119.248 106.804 119.648 106.86 120.04 106.86C120.936 106.86 121.384 106.624 121.384 106.152C121.384 105.928 121.268 105.772 121.036 105.684C120.812 105.596 120.448 105.512 119.944 105.432C119.416 105.352 118.984 105.26 118.648 105.156C118.32 105.052 118.032 104.872 117.784 104.616C117.544 104.352 117.424 103.988 117.424 103.524C117.424 102.916 117.676 102.432 118.18 102.072C118.692 101.704 119.38 101.52 120.244 101.52C120.684 101.52 121.124 101.572 121.564 101.676C122.004 101.772 122.364 101.904 122.644 102.072L122.068 103.212C121.524 102.892 120.912 102.732 120.232 102.732C119.792 102.732 119.456 102.8 119.224 102.936C119 103.064 118.888 103.236 118.888 103.452C118.888 103.692 119.008 103.864 119.248 103.968C119.496 104.064 119.876 104.156 120.388 104.244C120.9 104.324 121.32 104.416 121.648 104.52C121.976 104.624 122.256 104.8 122.488 105.048C122.728 105.296 122.848 105.648 122.848 106.104C122.848 106.704 122.588 107.184 122.068 107.544C121.548 107.904 120.84 108.084 119.944 108.084ZM127.08 108.084C126.416 108.084 125.82 107.944 125.292 107.664C124.764 107.384 124.352 106.996 124.056 106.5C123.76 105.996 123.612 105.428 123.612 104.796C123.612 104.164 123.76 103.6 124.056 103.104C124.352 102.608 124.76 102.22 125.28 101.94C125.808 101.66 126.408 101.52 127.08 101.52C127.712 101.52 128.264 101.648 128.736 101.904C129.216 102.16 129.576 102.528 129.816 103.008L128.664 103.68C128.48 103.384 128.248 103.164 127.968 103.02C127.696 102.868 127.396 102.792 127.068 102.792C126.508 102.792 126.044 102.976 125.676 103.344C125.308 103.704 125.124 104.188 125.124 104.796C125.124 105.404 125.304 105.892 125.664 106.26C126.032 106.62 126.5 106.8 127.068 106.8C127.396 106.8 127.696 106.728 127.968 106.584C128.248 106.432 128.48 106.208 128.664 105.912L129.816 106.584C129.568 107.064 129.204 107.436 128.724 107.7C128.252 107.956 127.704 108.084 127.08 108.084ZM133.561 101.52C134.505 101.52 135.225 101.748 135.721 102.204C136.225 102.652 136.477 103.332 136.477 104.244V108H135.061V107.22C134.877 107.5 134.613 107.716 134.269 107.868C133.933 108.012 133.525 108.084 133.045 108.084C132.565 108.084 132.145 108.004 131.785 107.844C131.425 107.676 131.145 107.448 130.945 107.16C130.753 106.864 130.657 106.532 130.657 106.164C130.657 105.588 130.869 105.128 131.293 104.784C131.725 104.432 132.401 104.256 133.321 104.256H134.977V104.16C134.977 103.712 134.841 103.368 134.569 103.128C134.305 102.888 133.909 102.768 133.381 102.768C133.021 102.768 132.665 102.824 132.313 102.936C131.969 103.048 131.677 103.204 131.437 103.404L130.849 102.312C131.185 102.056 131.589 101.86 132.061 101.724C132.533 101.588 133.033 101.52 133.561 101.52ZM133.357 106.992C133.733 106.992 134.065 106.908 134.353 106.74C134.649 106.564 134.857 106.316 134.977 105.996V105.252H133.429C132.565 105.252 132.133 105.536 132.133 106.104C132.133 106.376 132.241 106.592 132.457 106.752C132.673 106.912 132.973 106.992 133.357 106.992ZM142.038 101.52C142.846 101.52 143.494 101.756 143.982 102.228C144.47 102.7 144.714 103.4 144.714 104.328V108H143.214V104.52C143.214 103.96 143.082 103.54 142.818 103.26C142.554 102.972 142.178 102.828 141.69 102.828C141.138 102.828 140.702 102.996 140.382 103.332C140.062 103.66 139.902 104.136 139.902 104.76V108H138.402V101.592H139.83V102.42C140.078 102.124 140.39 101.9 140.766 101.748C141.142 101.596 141.566 101.52 142.038 101.52ZM152.699 104.832C152.699 104.936 152.691 105.084 152.675 105.276H147.647C147.735 105.748 147.963 106.124 148.331 106.404C148.707 106.676 149.171 106.812 149.723 106.812C150.427 106.812 151.007 106.58 151.463 106.116L152.267 107.04C151.979 107.384 151.615 107.644 151.175 107.82C150.735 107.996 150.239 108.084 149.687 108.084C148.983 108.084 148.363 107.944 147.827 107.664C147.291 107.384 146.875 106.996 146.579 106.5C146.291 105.996 146.147 105.428 146.147 104.796C146.147 104.172 146.287 103.612 146.567 103.116C146.855 102.612 147.251 102.22 147.755 101.94C148.259 101.66 148.827 101.52 149.459 101.52C150.083 101.52 150.639 101.66 151.127 101.94C151.623 102.212 152.007 102.6 152.279 103.104C152.559 103.6 152.699 104.176 152.699 104.832ZM149.459 102.72C148.979 102.72 148.571 102.864 148.235 103.152C147.907 103.432 147.707 103.808 147.635 104.28H151.271C151.207 103.816 151.011 103.44 150.683 103.152C150.355 102.864 149.947 102.72 149.459 102.72ZM156.412 101.52C157.356 101.52 158.076 101.748 158.572 102.204C159.076 102.652 159.328 103.332 159.328 104.244V108H157.912V107.22C157.728 107.5 157.464 107.716 157.12 107.868C156.784 108.012 156.376 108.084 155.896 108.084C155.416 108.084 154.996 108.004 154.636 107.844C154.276 107.676 153.996 107.448 153.796 107.16C153.604 106.864 153.508 106.532 153.508 106.164C153.508 105.588 153.72 105.128 154.144 104.784C154.576 104.432 155.252 104.256 156.172 104.256H157.828V104.16C157.828 103.712 157.692 103.368 157.42 103.128C157.156 102.888 156.76 102.768 156.232 102.768C155.872 102.768 155.516 102.824 155.164 102.936C154.82 103.048 154.528 103.204 154.288 103.404L153.7 102.312C154.036 102.056 154.44 101.86 154.912 101.724C155.384 101.588 155.884 101.52 156.412 101.52ZM156.208 106.992C156.584 106.992 156.916 106.908 157.204 106.74C157.5 106.564 157.708 106.316 157.828 105.996V105.252H156.28C155.416 105.252 154.984 105.536 154.984 106.104C154.984 106.376 155.092 106.592 155.308 106.752C155.524 106.912 155.824 106.992 156.208 106.992ZM162.682 102.528C163.114 101.856 163.874 101.52 164.962 101.52V102.948C164.834 102.924 164.718 102.912 164.614 102.912C164.03 102.912 163.574 103.084 163.246 103.428C162.918 103.764 162.754 104.252 162.754 104.892V108H161.254V101.592H162.682V102.528ZM172.489 108.084C171.841 108.084 171.257 107.944 170.737 107.664C170.217 107.384 169.809 106.996 169.513 106.5C169.225 105.996 169.081 105.428 169.081 104.796C169.081 104.164 169.225 103.6 169.513 103.104C169.809 102.608 170.217 102.22 170.737 101.94C171.257 101.66 171.841 101.52 172.489 101.52C173.145 101.52 173.733 101.66 174.253 101.94C174.773 102.22 175.177 102.608 175.465 103.104C175.761 103.6 175.909 104.164 175.909 104.796C175.909 105.428 175.761 105.996 175.465 106.5C175.177 106.996 174.773 107.384 174.253 107.664C173.733 107.944 173.145 108.084 172.489 108.084ZM172.489 106.8C173.041 106.8 173.497 106.616 173.857 106.248C174.217 105.88 174.397 105.396 174.397 104.796C174.397 104.196 174.217 103.712 173.857 103.344C173.497 102.976 173.041 102.792 172.489 102.792C171.937 102.792 171.481 102.976 171.121 103.344C170.769 103.712 170.593 104.196 170.593 104.796C170.593 105.396 170.769 105.88 171.121 106.248C171.481 106.616 171.937 106.8 172.489 106.8ZM180.895 101.52C181.519 101.52 182.075 101.656 182.563 101.928C183.059 102.2 183.447 102.584 183.727 103.08C184.007 103.576 184.147 104.148 184.147 104.796C184.147 105.444 184.007 106.02 183.727 106.524C183.447 107.02 183.059 107.404 182.563 107.676C182.075 107.948 181.519 108.084 180.895 108.084C180.455 108.084 180.051 108.008 179.683 107.856C179.323 107.704 179.019 107.476 178.771 107.172V108H177.343V99.096H178.843V102.372C179.099 102.092 179.399 101.88 179.743 101.736C180.095 101.592 180.479 101.52 180.895 101.52ZM180.727 106.8C181.279 106.8 181.731 106.616 182.083 106.248C182.443 105.88 182.623 105.396 182.623 104.796C182.623 104.196 182.443 103.712 182.083 103.344C181.731 102.976 181.279 102.792 180.727 102.792C180.367 102.792 180.043 102.876 179.755 103.044C179.467 103.204 179.239 103.436 179.071 103.74C178.903 104.044 178.819 104.396 178.819 104.796C178.819 105.196 178.903 105.548 179.071 105.852C179.239 106.156 179.467 106.392 179.755 106.56C180.043 106.72 180.367 106.8 180.727 106.8ZM184.91 110.412C184.278 110.412 183.798 110.288 183.47 110.04L183.902 108.924C184.126 109.092 184.418 109.176 184.778 109.176C185.058 109.176 185.27 109.088 185.414 108.912C185.566 108.744 185.642 108.492 185.642 108.156V101.592H187.142V108.12C187.142 108.832 186.946 109.392 186.554 109.8C186.162 110.208 185.614 110.412 184.91 110.412ZM186.386 100.536C186.114 100.536 185.886 100.452 185.702 100.284C185.518 100.108 185.426 99.892 185.426 99.636C185.426 99.38 185.518 99.168 185.702 99C185.886 98.824 186.114 98.736 186.386 98.736C186.658 98.736 186.886 98.82 187.07 98.988C187.254 99.148 187.346 99.352 187.346 99.6C187.346 99.864 187.254 100.088 187.07 100.272C186.894 100.448 186.666 100.536 186.386 100.536ZM195.133 104.832C195.133 104.936 195.125 105.084 195.109 105.276H190.081C190.169 105.748 190.397 106.124 190.765 106.404C191.141 106.676 191.605 106.812 192.157 106.812C192.861 106.812 193.441 106.58 193.897 106.116L194.701 107.04C194.413 107.384 194.049 107.644 193.609 107.82C193.169 107.996 192.673 108.084 192.121 108.084C191.417 108.084 190.797 107.944 190.261 107.664C189.725 107.384 189.309 106.996 189.013 106.5C188.725 105.996 188.581 105.428 188.581 104.796C188.581 104.172 188.721 103.612 189.001 103.116C189.289 102.612 189.685 102.22 190.189 101.94C190.693 101.66 191.261 101.52 191.893 101.52C192.517 101.52 193.073 101.66 193.561 101.94C194.057 102.212 194.441 102.6 194.713 103.104C194.993 103.6 195.133 104.176 195.133 104.832ZM191.893 102.72C191.413 102.72 191.005 102.864 190.669 103.152C190.341 103.432 190.141 103.808 190.069 104.28H193.705C193.641 103.816 193.445 103.44 193.117 103.152C192.789 102.864 192.381 102.72 191.893 102.72ZM200.426 107.652C200.25 107.796 200.034 107.904 199.778 107.976C199.53 108.048 199.266 108.084 198.986 108.084C198.282 108.084 197.738 107.9 197.354 107.532C196.97 107.164 196.778 106.628 196.778 105.924V102.84H195.722V101.64H196.778V100.176H198.278V101.64H199.994V102.84H198.278V105.888C198.278 106.2 198.354 106.44 198.506 106.608C198.658 106.768 198.878 106.848 199.166 106.848C199.502 106.848 199.782 106.76 200.006 106.584L200.426 107.652ZM204.329 108.084C203.681 108.084 203.097 107.944 202.577 107.664C202.057 107.384 201.649 106.996 201.353 106.5C201.065 105.996 200.921 105.428 200.921 104.796C200.921 104.164 201.065 103.6 201.353 103.104C201.649 102.608 202.057 102.22 202.577 101.94C203.097 101.66 203.681 101.52 204.329 101.52C204.985 101.52 205.573 101.66 206.093 101.94C206.613 102.22 207.017 102.608 207.305 103.104C207.601 103.6 207.749 104.164 207.749 104.796C207.749 105.428 207.601 105.996 207.305 106.5C207.017 106.996 206.613 107.384 206.093 107.664C205.573 107.944 204.985 108.084 204.329 108.084ZM204.329 106.8C204.881 106.8 205.337 106.616 205.697 106.248C206.057 105.88 206.237 105.396 206.237 104.796C206.237 104.196 206.057 103.712 205.697 103.344C205.337 102.976 204.881 102.792 204.329 102.792C203.777 102.792 203.321 102.976 202.961 103.344C202.609 103.712 202.433 104.196 202.433 104.796C202.433 105.396 202.609 105.88 202.961 106.248C203.321 106.616 203.777 106.8 204.329 106.8Z" fill="#333333"/>
<path fill-rule="evenodd" clip-rule="evenodd" d="M315 138.985C315 128 306 118.993 295 118.993C233.172 118.993 208 119 208 119L200 127H163L154 119H119.147C108.147 119 99.1467 128 99.1467 138.992C99.1467 139 99.1467 139.007 99.1467 139.015C99.1467 150 108.147 159 119.147 159C135.71 159 154 159 154 159L163 167H200L208 159H295.147C306 159 315 150 315 139.008C315 139 315 139.5 315 138.985Z" fill="#30DCFF"/>
<path fill-rule="evenodd" clip-rule="evenodd" d="M315 138.989C315 128 306 119 294.853 119C233.025 119 208 119 208 119L200 127H163L154 119H119C108 119 99 128 99 138.989C99 138.996 99 139 99 139H104C104 129 111 124 119 124C133.664 124 152 124 152 124L161 132H202L210 124H295C304 124 310 130 310 139L315 139V138.989Z" fill="white" fill-opacity="0.5"/>
<path fill-rule="evenodd" clip-rule="evenodd" d="M315 139L310 139C310 147.971 304.197 154 295 154C237.995 154 206 154 206 154L198 162H165L156 154H119C108.496 154 104 148 104 139.001L99 139V139.011C99 150 108 159 119 159C135.563 159 154 159 154 159L163 167H200L208 159H295C306 159 315 150 315 139Z" fill="black" fill-opacity="0.25"/>
<path d="M112.732 147.12C112.084 147.12 111.456 147.028 110.848 146.844C110.248 146.66 109.772 146.416 109.42 146.112L109.96 144.9C110.304 145.172 110.724 145.396 111.22 145.572C111.724 145.74 112.228 145.824 112.732 145.824C113.356 145.824 113.82 145.724 114.124 145.524C114.436 145.324 114.592 145.06 114.592 144.732C114.592 144.492 114.504 144.296 114.328 144.144C114.16 143.984 113.944 143.86 113.68 143.772C113.416 143.684 113.056 143.584 112.6 143.472C111.96 143.32 111.44 143.168 111.04 143.016C110.648 142.864 110.308 142.628 110.02 142.308C109.74 141.98 109.6 141.54 109.6 140.988C109.6 140.524 109.724 140.104 109.972 139.728C110.228 139.344 110.608 139.04 111.112 138.816C111.624 138.592 112.248 138.48 112.984 138.48C113.496 138.48 114 138.544 114.496 138.672C114.992 138.8 115.42 138.984 115.78 139.224L115.288 140.436C114.92 140.22 114.536 140.056 114.136 139.944C113.736 139.832 113.348 139.776 112.972 139.776C112.356 139.776 111.896 139.88 111.592 140.088C111.296 140.296 111.148 140.572 111.148 140.916C111.148 141.156 111.232 141.352 111.4 141.504C111.576 141.656 111.796 141.776 112.06 141.864C112.324 141.952 112.684 142.052 113.14 142.164C113.764 142.308 114.276 142.46 114.676 142.62C115.076 142.772 115.416 143.008 115.696 143.328C115.984 143.648 116.128 144.08 116.128 144.624C116.128 145.088 116 145.508 115.744 145.884C115.496 146.26 115.116 146.56 114.604 146.784C114.092 147.008 113.468 147.12 112.732 147.12ZM117.531 140.592H119.031V147H117.531V140.592ZM118.287 139.536C118.015 139.536 117.787 139.452 117.603 139.284C117.419 139.108 117.327 138.892 117.327 138.636C117.327 138.38 117.419 138.168 117.603 138C117.787 137.824 118.015 137.736 118.287 137.736C118.559 137.736 118.787 137.82 118.971 137.988C119.155 138.148 119.247 138.352 119.247 138.6C119.247 138.864 119.155 139.088 118.971 139.272C118.795 139.448 118.567 139.536 118.287 139.536ZM130.34 143.832C130.34 143.936 130.332 144.084 130.316 144.276H125.288C125.376 144.748 125.604 145.124 125.972 145.404C126.348 145.676 126.812 145.812 127.364 145.812C128.068 145.812 128.648 145.58 129.104 145.116L129.908 146.04C129.62 146.384 129.256 146.644 128.816 146.82C128.376 146.996 127.88 147.084 127.328 147.084C126.624 147.084 126.004 146.944 125.468 146.664C124.932 146.384 124.516 145.996 124.22 145.5C123.932 144.996 123.788 144.428 123.788 143.796C123.788 143.172 123.928 142.612 124.208 142.116C124.496 141.612 124.892 141.22 125.396 140.94C125.9 140.66 126.468 140.52 127.1 140.52C127.724 140.52 128.28 140.66 128.768 140.94C129.264 141.212 129.648 141.6 129.92 142.104C130.2 142.6 130.34 143.176 130.34 143.832ZM127.1 141.72C126.62 141.72 126.212 141.864 125.876 142.152C125.548 142.432 125.348 142.808 125.276 143.28H128.912C128.848 142.816 128.652 142.44 128.324 142.152C127.996 141.864 127.588 141.72 127.1 141.72ZM133.761 147.084C133.241 147.084 132.733 147.016 132.237 146.88C131.741 146.744 131.345 146.572 131.049 146.364L131.625 145.224C131.913 145.416 132.257 145.572 132.657 145.692C133.065 145.804 133.465 145.86 133.857 145.86C134.753 145.86 135.201 145.624 135.201 145.152C135.201 144.928 135.085 144.772 134.853 144.684C134.629 144.596 134.265 144.512 133.761 144.432C133.233 144.352 132.801 144.26 132.465 144.156C132.137 144.052 131.849 143.872 131.601 143.616C131.361 143.352 131.241 142.988 131.241 142.524C131.241 141.916 131.493 141.432 131.997 141.072C132.509 140.704 133.197 140.52 134.061 140.52C134.501 140.52 134.941 140.572 135.381 140.676C135.821 140.772 136.181 140.904 136.461 141.072L135.885 142.212C135.341 141.892 134.729 141.732 134.049 141.732C133.609 141.732 133.273 141.8 133.041 141.936C132.817 142.064 132.705 142.236 132.705 142.452C132.705 142.692 132.825 142.864 133.065 142.968C133.313 143.064 133.693 143.156 134.205 143.244C134.717 143.324 135.137 143.416 135.465 143.52C135.793 143.624 136.073 143.8 136.305 144.048C136.545 144.296 136.665 144.648 136.665 145.104C136.665 145.704 136.405 146.184 135.885 146.544C135.365 146.904 134.657 147.084 133.761 147.084Z" fill="#333333"/>
<path d="M184.008 143.832C184.008 143.936 184 144.084 183.984 144.276H178.956C179.044 144.748 179.272 145.124 179.64 145.404C180.016 145.676 180.48 145.812 181.032 145.812C181.736 145.812 182.316 145.58 182.772 145.116L183.576 146.04C183.288 146.384 182.924 146.644 182.484 146.82C182.044 146.996 181.548 147.084 180.996 147.084C180.292 147.084 179.672 146.944 179.136 146.664C178.6 146.384 178.184 145.996 177.888 145.5C177.6 144.996 177.456 144.428 177.456 143.796C177.456 143.172 177.596 142.612 177.876 142.116C178.164 141.612 178.56 141.22 179.064 140.94C179.568 140.66 180.136 140.52 180.768 140.52C181.392 140.52 181.948 140.66 182.436 140.94C182.932 141.212 183.316 141.6 183.588 142.104C183.868 142.6 184.008 143.176 184.008 143.832ZM180.768 141.72C180.288 141.72 179.88 141.864 179.544 142.152C179.216 142.432 179.016 142.808 178.944 143.28H182.58C182.516 142.816 182.32 142.44 181.992 142.152C181.664 141.864 181.256 141.72 180.768 141.72ZM189.085 140.52C189.893 140.52 190.541 140.756 191.029 141.228C191.517 141.7 191.761 142.4 191.761 143.328V147H190.261V143.52C190.261 142.96 190.129 142.54 189.865 142.26C189.601 141.972 189.225 141.828 188.737 141.828C188.185 141.828 187.749 141.996 187.429 142.332C187.109 142.66 186.949 143.136 186.949 143.76V147H185.449V140.592H186.877V141.42C187.125 141.124 187.437 140.9 187.813 140.748C188.189 140.596 188.613 140.52 189.085 140.52ZM199.547 140.592L196.799 147H195.251L192.502 140.592H194.062L196.055 145.344L198.107 140.592H199.547ZM200.484 140.592H201.984V147H200.484V140.592ZM201.24 139.536C200.968 139.536 200.74 139.452 200.556 139.284C200.372 139.108 200.28 138.892 200.28 138.636C200.28 138.38 200.372 138.168 200.556 138C200.74 137.824 200.968 137.736 201.24 137.736C201.512 137.736 201.74 137.82 201.924 137.988C202.108 138.148 202.2 138.352 202.2 138.6C202.2 138.864 202.108 139.088 201.924 139.272C201.748 139.448 201.52 139.536 201.24 139.536ZM206.401 140.52C207.345 140.52 208.065 140.748 208.561 141.204C209.065 141.652 209.317 142.332 209.317 143.244V147H207.901V146.22C207.717 146.5 207.453 146.716 207.109 146.868C206.773 147.012 206.365 147.084 205.885 147.084C205.405 147.084 204.985 147.004 204.625 146.844C204.265 146.676 203.985 146.448 203.785 146.16C203.593 145.864 203.497 145.532 203.497 145.164C203.497 144.588 203.709 144.128 204.133 143.784C204.565 143.432 205.241 143.256 206.161 143.256H207.817V143.16C207.817 142.712 207.681 142.368 207.409 142.128C207.145 141.888 206.749 141.768 206.221 141.768C205.861 141.768 205.505 141.824 205.153 141.936C204.809 142.048 204.517 142.204 204.277 142.404L203.689 141.312C204.025 141.056 204.429 140.86 204.901 140.724C205.373 140.588 205.873 140.52 206.401 140.52ZM206.197 145.992C206.573 145.992 206.905 145.908 207.193 145.74C207.489 145.564 207.697 145.316 207.817 144.996V144.252H206.269C205.405 144.252 204.973 144.536 204.973 145.104C204.973 145.376 205.081 145.592 205.297 145.752C205.513 145.912 205.813 145.992 206.197 145.992ZM212.67 141.528C213.102 140.856 213.862 140.52 214.95 140.52V141.948C214.822 141.924 214.706 141.912 214.602 141.912C214.018 141.912 213.562 142.084 213.234 142.428C212.906 142.764 212.742 143.252 212.742 143.892V147H211.242V140.592H212.67V141.528ZM222.045 140.52C222.989 140.52 223.709 140.748 224.205 141.204C224.709 141.652 224.961 142.332 224.961 143.244V147H223.545V146.22C223.361 146.5 223.097 146.716 222.753 146.868C222.417 147.012 222.009 147.084 221.529 147.084C221.049 147.084 220.629 147.004 220.269 146.844C219.909 146.676 219.629 146.448 219.429 146.16C219.237 145.864 219.141 145.532 219.141 145.164C219.141 144.588 219.353 144.128 219.777 143.784C220.209 143.432 220.885 143.256 221.805 143.256H223.461V143.16C223.461 142.712 223.325 142.368 223.053 142.128C222.789 141.888 222.393 141.768 221.865 141.768C221.505 141.768 221.149 141.824 220.797 141.936C220.453 142.048 220.161 142.204 219.921 142.404L219.333 141.312C219.669 141.056 220.073 140.86 220.545 140.724C221.017 140.588 221.517 140.52 222.045 140.52ZM221.841 145.992C222.217 145.992 222.549 145.908 222.837 145.74C223.133 145.564 223.341 145.316 223.461 144.996V144.252H221.913C221.049 144.252 220.617 144.536 220.617 145.104C220.617 145.376 220.725 145.592 220.941 145.752C221.157 145.912 221.457 145.992 221.841 145.992ZM230.203 138.096H231.703V147H230.203V138.096ZM236.12 140.52C237.064 140.52 237.784 140.748 238.28 141.204C238.784 141.652 239.036 142.332 239.036 143.244V147H237.62V146.22C237.436 146.5 237.172 146.716 236.828 146.868C236.492 147.012 236.084 147.084 235.604 147.084C235.124 147.084 234.704 147.004 234.344 146.844C233.984 146.676 233.704 146.448 233.504 146.16C233.312 145.864 233.216 145.532 233.216 145.164C233.216 144.588 233.428 144.128 233.852 143.784C234.284 143.432 234.96 143.256 235.88 143.256H237.536V143.16C237.536 142.712 237.4 142.368 237.128 142.128C236.864 141.888 236.468 141.768 235.94 141.768C235.58 141.768 235.224 141.824 234.872 141.936C234.528 142.048 234.236 142.204 233.996 142.404L233.408 141.312C233.744 141.056 234.148 140.86 234.62 140.724C235.092 140.588 235.592 140.52 236.12 140.52ZM235.916 145.992C236.292 145.992 236.624 145.908 236.912 145.74C237.208 145.564 237.416 145.316 237.536 144.996V144.252H235.988C235.124 144.252 234.692 144.536 234.692 145.104C234.692 145.376 234.8 145.592 235.016 145.752C235.232 145.912 235.532 145.992 235.916 145.992ZM250.553 138.096V147H249.113V146.172C248.865 146.476 248.557 146.704 248.189 146.856C247.829 147.008 247.429 147.084 246.989 147.084C246.373 147.084 245.817 146.948 245.321 146.676C244.833 146.404 244.449 146.02 244.169 145.524C243.889 145.02 243.749 144.444 243.749 143.796C243.749 143.148 243.889 142.576 244.169 142.08C244.449 141.584 244.833 141.2 245.321 140.928C245.817 140.656 246.373 140.52 246.989 140.52C247.413 140.52 247.801 140.592 248.153 140.736C248.505 140.88 248.805 141.096 249.053 141.384V138.096H250.553ZM247.169 145.8C247.529 145.8 247.853 145.72 248.141 145.56C248.429 145.392 248.657 145.156 248.825 144.852C248.993 144.548 249.077 144.196 249.077 143.796C249.077 143.396 248.993 143.044 248.825 142.74C248.657 142.436 248.429 142.204 248.141 142.044C247.853 141.876 247.529 141.792 247.169 141.792C246.809 141.792 246.485 141.876 246.197 142.044C245.909 142.204 245.681 142.436 245.513 142.74C245.345 143.044 245.261 143.396 245.261 143.796C245.261 144.196 245.345 144.548 245.513 144.852C245.681 145.156 245.909 145.392 246.197 145.56C246.485 145.72 246.809 145.8 247.169 145.8ZM258.539 143.832C258.539 143.936 258.531 144.084 258.515 144.276H253.487C253.575 144.748 253.803 145.124 254.171 145.404C254.547 145.676 255.011 145.812 255.563 145.812C256.267 145.812 256.847 145.58 257.303 145.116L258.107 146.04C257.819 146.384 257.455 146.644 257.015 146.82C256.575 146.996 256.079 147.084 255.527 147.084C254.823 147.084 254.203 146.944 253.667 146.664C253.131 146.384 252.715 145.996 252.419 145.5C252.131 144.996 251.987 144.428 251.987 143.796C251.987 143.172 252.127 142.612 252.407 142.116C252.695 141.612 253.091 141.22 253.595 140.94C254.099 140.66 254.667 140.52 255.299 140.52C255.923 140.52 256.479 140.66 256.967 140.94C257.463 141.212 257.847 141.6 258.119 142.104C258.399 142.6 258.539 143.176 258.539 143.832ZM255.299 141.72C254.819 141.72 254.411 141.864 254.075 142.152C253.747 142.432 253.547 142.808 253.475 143.28H257.111C257.047 142.816 256.851 142.44 256.523 142.152C256.195 141.864 255.787 141.72 255.299 141.72ZM261.408 141.528C261.84 140.856 262.6 140.52 263.688 140.52V141.948C263.56 141.924 263.444 141.912 263.34 141.912C262.756 141.912 262.3 142.084 261.972 142.428C261.644 142.764 261.48 143.252 261.48 143.892V147H259.98V140.592H261.408V141.528ZM270.926 143.832C270.926 143.936 270.918 144.084 270.902 144.276H265.874C265.962 144.748 266.19 145.124 266.558 145.404C266.934 145.676 267.398 145.812 267.95 145.812C268.654 145.812 269.234 145.58 269.69 145.116L270.494 146.04C270.206 146.384 269.842 146.644 269.402 146.82C268.962 146.996 268.466 147.084 267.914 147.084C267.21 147.084 266.59 146.944 266.054 146.664C265.518 146.384 265.102 145.996 264.806 145.5C264.518 144.996 264.374 144.428 264.374 143.796C264.374 143.172 264.514 142.612 264.794 142.116C265.082 141.612 265.478 141.22 265.982 140.94C266.486 140.66 267.054 140.52 267.686 140.52C268.31 140.52 268.866 140.66 269.354 140.94C269.85 141.212 270.234 141.6 270.506 142.104C270.786 142.6 270.926 143.176 270.926 143.832ZM267.686 141.72C267.206 141.72 266.798 141.864 266.462 142.152C266.134 142.432 265.934 142.808 265.862 143.28H269.498C269.434 142.816 269.238 142.44 268.91 142.152C268.582 141.864 268.174 141.72 267.686 141.72ZM275.307 147.084C274.643 147.084 274.047 146.944 273.519 146.664C272.991 146.384 272.579 145.996 272.283 145.5C271.987 144.996 271.839 144.428 271.839 143.796C271.839 143.164 271.987 142.6 272.283 142.104C272.579 141.608 272.987 141.22 273.507 140.94C274.035 140.66 274.635 140.52 275.307 140.52C275.939 140.52 276.491 140.648 276.963 140.904C277.443 141.16 277.803 141.528 278.043 142.008L276.891 142.68C276.707 142.384 276.475 142.164 276.195 142.02C275.923 141.868 275.623 141.792 275.295 141.792C274.735 141.792 274.271 141.976 273.903 142.344C273.535 142.704 273.351 143.188 273.351 143.796C273.351 144.404 273.531 144.892 273.891 145.26C274.259 145.62 274.727 145.8 275.295 145.8C275.623 145.8 275.923 145.728 276.195 145.584C276.475 145.432 276.707 145.208 276.891 144.912L278.043 145.584C277.795 146.064 277.431 146.436 276.951 146.7C276.479 146.956 275.931 147.084 275.307 147.084ZM282.917 140.52C283.725 140.52 284.373 140.756 284.861 141.228C285.349 141.7 285.593 142.4 285.593 143.328V147H284.093V143.52C284.093 142.96 283.961 142.54 283.697 142.26C283.433 141.972 283.057 141.828 282.569 141.828C282.017 141.828 281.581 141.996 281.261 142.332C280.941 142.66 280.781 143.136 280.781 143.76V147H279.281V138.096H280.781V141.336C281.029 141.072 281.333 140.872 281.693 140.736C282.061 140.592 282.469 140.52 282.917 140.52ZM289.944 140.52C290.888 140.52 291.608 140.748 292.104 141.204C292.608 141.652 292.86 142.332 292.86 143.244V147H291.444V146.22C291.26 146.5 290.996 146.716 290.652 146.868C290.316 147.012 289.908 147.084 289.428 147.084C288.948 147.084 288.528 147.004 288.168 146.844C287.808 146.676 287.528 146.448 287.328 146.16C287.136 145.864 287.04 145.532 287.04 145.164C287.04 144.588 287.252 144.128 287.676 143.784C288.108 143.432 288.784 143.256 289.704 143.256H291.36V143.16C291.36 142.712 291.224 142.368 290.952 142.128C290.688 141.888 290.292 141.768 289.764 141.768C289.404 141.768 289.048 141.824 288.696 141.936C288.352 142.048 288.06 142.204 287.82 142.404L287.232 141.312C287.568 141.056 287.972 140.86 288.444 140.724C288.916 140.588 289.416 140.52 289.944 140.52ZM289.74 145.992C290.116 145.992 290.448 145.908 290.736 145.74C291.032 145.564 291.24 145.316 291.36 144.996V144.252H289.812C288.948 144.252 288.516 144.536 288.516 145.104C288.516 145.376 288.624 145.592 288.84 145.752C289.056 145.912 289.356 145.992 289.74 145.992Z" fill="#333333"/>
<rect x="140" y="133" width="34" height="20" rx="5" fill="#F2F2F2"/>
<path d="M147.583 140.448C148.583 140.448 149.351 140.688 149.887 141.168C150.423 141.64 150.691 142.356 150.691 143.316V147H148.939V146.196C148.587 146.796 147.931 147.096 146.971 147.096C146.475 147.096 146.043 147.012 145.675 146.844C145.315 146.676 145.039 146.444 144.847 146.148C144.655 145.852 144.559 145.516 144.559 145.14C144.559 144.54 144.783 144.068 145.231 143.724C145.687 143.38 146.387 143.208 147.331 143.208H148.819C148.819 142.8 148.695 142.488 148.447 142.272C148.199 142.048 147.827 141.936 147.331 141.936C146.987 141.936 146.647 141.992 146.311 142.104C145.983 142.208 145.703 142.352 145.471 142.536L144.799 141.228C145.151 140.98 145.571 140.788 146.059 140.652C146.555 140.516 147.063 140.448 147.583 140.448ZM147.439 145.836C147.759 145.836 148.043 145.764 148.291 145.62C148.539 145.468 148.715 145.248 148.819 144.96V144.3H147.535C146.767 144.3 146.383 144.552 146.383 145.056C146.383 145.296 146.475 145.488 146.659 145.632C146.851 145.768 147.111 145.836 147.439 145.836ZM157.701 145.56V147H151.941V145.872L155.229 141.984H152.025V140.544H157.593V141.672L154.305 145.56H157.701ZM165.405 140.544V147H163.629V146.232C163.381 146.512 163.085 146.728 162.741 146.88C162.397 147.024 162.025 147.096 161.625 147.096C160.777 147.096 160.105 146.852 159.609 146.364C159.113 145.876 158.865 145.152 158.865 144.192V140.544H160.737V143.916C160.737 144.956 161.173 145.476 162.045 145.476C162.493 145.476 162.853 145.332 163.125 145.044C163.397 144.748 163.533 144.312 163.533 143.736V140.544H165.405ZM167.139 138.096H169.011V147H167.139V138.096Z" fill="#333333"/>
<path fill-rule="evenodd" clip-rule="evenodd" d="M315 177.985C315 167 306 157.993 295 157.993C233.172 157.993 208 158 208 158L200 166H163L154 158H119.147C108.147 158 99.1467 167 99.1467 177.992C99.1467 178 99.1467 178.007 99.1467 178.015C99.1467 189 108.147 198 119.147 198C135.71 198 154 198 154 198L163 206H200L208 198H295.147C306 198 315 189 315 178.008C315 178 315 178.5 315 177.985Z" fill="#30DCFF"/>
<path fill-rule="evenodd" clip-rule="evenodd" d="M315 177.989C315 167 306 158 294.853 158C233.025 158 208 158 208 158L200 166H163L154 158H119C108 158 99 167 99 177.989C99 177.996 99 178 99 178H104C104 168 111 163 119 163C133.664 163 152 163 152 163L161 171H202L210 163H295C304 163 310 169 310 178L315 178V177.989Z" fill="white" fill-opacity="0.5"/>
<path fill-rule="evenodd" clip-rule="evenodd" d="M315 178L310 178C310 186.971 304.197 193 295 193C237.995 193 206 193 206 193L198 201H165L156 193H119C108.496 193 104 187 104 178.001L99 178V178.011C99 189 108 198 119 198C135.563 198 154 198 154 198L163 206H200L208 198H295C306 198 315 189 315 178Z" fill="black" fill-opacity="0.25"/>
<path d="M112.732 186.12C112.084 186.12 111.456 186.028 110.848 185.844C110.248 185.66 109.772 185.416 109.42 185.112L109.96 183.9C110.304 184.172 110.724 184.396 111.22 184.572C111.724 184.74 112.228 184.824 112.732 184.824C113.356 184.824 113.82 184.724 114.124 184.524C114.436 184.324 114.592 184.06 114.592 183.732C114.592 183.492 114.504 183.296 114.328 183.144C114.16 182.984 113.944 182.86 113.68 182.772C113.416 182.684 113.056 182.584 112.6 182.472C111.96 182.32 111.44 182.168 111.04 182.016C110.648 181.864 110.308 181.628 110.02 181.308C109.74 180.98 109.6 180.54 109.6 179.988C109.6 179.524 109.724 179.104 109.972 178.728C110.228 178.344 110.608 178.04 111.112 177.816C111.624 177.592 112.248 177.48 112.984 177.48C113.496 177.48 114 177.544 114.496 177.672C114.992 177.8 115.42 177.984 115.78 178.224L115.288 179.436C114.92 179.22 114.536 179.056 114.136 178.944C113.736 178.832 113.348 178.776 112.972 178.776C112.356 178.776 111.896 178.88 111.592 179.088C111.296 179.296 111.148 179.572 111.148 179.916C111.148 180.156 111.232 180.352 111.4 180.504C111.576 180.656 111.796 180.776 112.06 180.864C112.324 180.952 112.684 181.052 113.14 181.164C113.764 181.308 114.276 181.46 114.676 181.62C115.076 181.772 115.416 182.008 115.696 182.328C115.984 182.648 116.128 183.08 116.128 183.624C116.128 184.088 116 184.508 115.744 184.884C115.496 185.26 115.116 185.56 114.604 185.784C114.092 186.008 113.468 186.12 112.732 186.12ZM117.531 179.592H119.031V186H117.531V179.592ZM118.287 178.536C118.015 178.536 117.787 178.452 117.603 178.284C117.419 178.108 117.327 177.892 117.327 177.636C117.327 177.38 117.419 177.168 117.603 177C117.787 176.824 118.015 176.736 118.287 176.736C118.559 176.736 118.787 176.82 118.971 176.988C119.155 177.148 119.247 177.352 119.247 177.6C119.247 177.864 119.155 178.088 118.971 178.272C118.795 178.448 118.567 178.536 118.287 178.536ZM130.34 182.832C130.34 182.936 130.332 183.084 130.316 183.276H125.288C125.376 183.748 125.604 184.124 125.972 184.404C126.348 184.676 126.812 184.812 127.364 184.812C128.068 184.812 128.648 184.58 129.104 184.116L129.908 185.04C129.62 185.384 129.256 185.644 128.816 185.82C128.376 185.996 127.88 186.084 127.328 186.084C126.624 186.084 126.004 185.944 125.468 185.664C124.932 185.384 124.516 184.996 124.22 184.5C123.932 183.996 123.788 183.428 123.788 182.796C123.788 182.172 123.928 181.612 124.208 181.116C124.496 180.612 124.892 180.22 125.396 179.94C125.9 179.66 126.468 179.52 127.1 179.52C127.724 179.52 128.28 179.66 128.768 179.94C129.264 180.212 129.648 180.6 129.92 181.104C130.2 181.6 130.34 182.176 130.34 182.832ZM127.1 180.72C126.62 180.72 126.212 180.864 125.876 181.152C125.548 181.432 125.348 181.808 125.276 182.28H128.912C128.848 181.816 128.652 181.44 128.324 181.152C127.996 180.864 127.588 180.72 127.1 180.72ZM133.761 186.084C133.241 186.084 132.733 186.016 132.237 185.88C131.741 185.744 131.345 185.572 131.049 185.364L131.625 184.224C131.913 184.416 132.257 184.572 132.657 184.692C133.065 184.804 133.465 184.86 133.857 184.86C134.753 184.86 135.201 184.624 135.201 184.152C135.201 183.928 135.085 183.772 134.853 183.684C134.629 183.596 134.265 183.512 133.761 183.432C133.233 183.352 132.801 183.26 132.465 183.156C132.137 183.052 131.849 182.872 131.601 182.616C131.361 182.352 131.241 181.988 131.241 181.524C131.241 180.916 131.493 180.432 131.997 180.072C132.509 179.704 133.197 179.52 134.061 179.52C134.501 179.52 134.941 179.572 135.381 179.676C135.821 179.772 136.181 179.904 136.461 180.072L135.885 181.212C135.341 180.892 134.729 180.732 134.049 180.732C133.609 180.732 133.273 180.8 133.041 180.936C132.817 181.064 132.705 181.236 132.705 181.452C132.705 181.692 132.825 181.864 133.065 181.968C133.313 182.064 133.693 182.156 134.205 182.244C134.717 182.324 135.137 182.416 135.465 182.52C135.793 182.624 136.073 182.8 136.305 183.048C136.545 183.296 136.665 183.648 136.665 184.104C136.665 184.704 136.405 185.184 135.885 185.544C135.365 185.904 134.657 186.084 133.761 186.084Z" fill="#333333"/>
<path d="M184.008 182.832C184.008 182.936 184 183.084 183.984 183.276H178.956C179.044 183.748 179.272 184.124 179.64 184.404C180.016 184.676 180.48 184.812 181.032 184.812C181.736 184.812 182.316 184.58 182.772 184.116L183.576 185.04C183.288 185.384 182.924 185.644 182.484 185.82C182.044 185.996 181.548 186.084 180.996 186.084C180.292 186.084 179.672 185.944 179.136 185.664C178.6 185.384 178.184 184.996 177.888 184.5C177.6 183.996 177.456 183.428 177.456 182.796C177.456 182.172 177.596 181.612 177.876 181.116C178.164 180.612 178.56 180.22 179.064 179.94C179.568 179.66 180.136 179.52 180.768 179.52C181.392 179.52 181.948 179.66 182.436 179.94C182.932 180.212 183.316 180.6 183.588 181.104C183.868 181.6 184.008 182.176 184.008 182.832ZM180.768 180.72C180.288 180.72 179.88 180.864 179.544 181.152C179.216 181.432 179.016 181.808 178.944 182.28H182.58C182.516 181.816 182.32 181.44 181.992 181.152C181.664 180.864 181.256 180.72 180.768 180.72ZM189.085 179.52C189.893 179.52 190.541 179.756 191.029 180.228C191.517 180.7 191.761 181.4 191.761 182.328V186H190.261V182.52C190.261 181.96 190.129 181.54 189.865 181.26C189.601 180.972 189.225 180.828 188.737 180.828C188.185 180.828 187.749 180.996 187.429 181.332C187.109 181.66 186.949 182.136 186.949 182.76V186H185.449V179.592H186.877V180.42C187.125 180.124 187.437 179.9 187.813 179.748C188.189 179.596 188.613 179.52 189.085 179.52ZM199.547 179.592L196.799 186H195.251L192.502 179.592H194.062L196.055 184.344L198.107 179.592H199.547ZM200.484 179.592H201.984V186H200.484V179.592ZM201.24 178.536C200.968 178.536 200.74 178.452 200.556 178.284C200.372 178.108 200.28 177.892 200.28 177.636C200.28 177.38 200.372 177.168 200.556 177C200.74 176.824 200.968 176.736 201.24 176.736C201.512 176.736 201.74 176.82 201.924 176.988C202.108 177.148 202.2 177.352 202.2 177.6C202.2 177.864 202.108 178.088 201.924 178.272C201.748 178.448 201.52 178.536 201.24 178.536ZM206.401 179.52C207.345 179.52 208.065 179.748 208.561 180.204C209.065 180.652 209.317 181.332 209.317 182.244V186H207.901V185.22C207.717 185.5 207.453 185.716 207.109 185.868C206.773 186.012 206.365 186.084 205.885 186.084C205.405 186.084 204.985 186.004 204.625 185.844C204.265 185.676 203.985 185.448 203.785 185.16C203.593 184.864 203.497 184.532 203.497 184.164C203.497 183.588 203.709 183.128 204.133 182.784C204.565 182.432 205.241 182.256 206.161 182.256H207.817V182.16C207.817 181.712 207.681 181.368 207.409 181.128C207.145 180.888 206.749 180.768 206.221 180.768C205.861 180.768 205.505 180.824 205.153 180.936C204.809 181.048 204.517 181.204 204.277 181.404L203.689 180.312C204.025 180.056 204.429 179.86 204.901 179.724C205.373 179.588 205.873 179.52 206.401 179.52ZM206.197 184.992C206.573 184.992 206.905 184.908 207.193 184.74C207.489 184.564 207.697 184.316 207.817 183.996V183.252H206.269C205.405 183.252 204.973 183.536 204.973 184.104C204.973 184.376 205.081 184.592 205.297 184.752C205.513 184.912 205.813 184.992 206.197 184.992ZM212.67 180.528C213.102 179.856 213.862 179.52 214.95 179.52V180.948C214.822 180.924 214.706 180.912 214.602 180.912C214.018 180.912 213.562 181.084 213.234 181.428C212.906 181.764 212.742 182.252 212.742 182.892V186H211.242V179.592H212.67V180.528ZM222.045 179.52C222.989 179.52 223.709 179.748 224.205 180.204C224.709 180.652 224.961 181.332 224.961 182.244V186H223.545V185.22C223.361 185.5 223.097 185.716 222.753 185.868C222.417 186.012 222.009 186.084 221.529 186.084C221.049 186.084 220.629 186.004 220.269 185.844C219.909 185.676 219.629 185.448 219.429 185.16C219.237 184.864 219.141 184.532 219.141 184.164C219.141 183.588 219.353 183.128 219.777 182.784C220.209 182.432 220.885 182.256 221.805 182.256H223.461V182.16C223.461 181.712 223.325 181.368 223.053 181.128C222.789 180.888 222.393 180.768 221.865 180.768C221.505 180.768 221.149 180.824 220.797 180.936C220.453 181.048 220.161 181.204 219.921 181.404L219.333 180.312C219.669 180.056 220.073 179.86 220.545 179.724C221.017 179.588 221.517 179.52 222.045 179.52ZM221.841 184.992C222.217 184.992 222.549 184.908 222.837 184.74C223.133 184.564 223.341 184.316 223.461 183.996V183.252H221.913C221.049 183.252 220.617 183.536 220.617 184.104C220.617 184.376 220.725 184.592 220.941 184.752C221.157 184.912 221.457 184.992 221.841 184.992ZM230.203 177.096H231.703V186H230.203V177.096ZM236.12 179.52C237.064 179.52 237.784 179.748 238.28 180.204C238.784 180.652 239.036 181.332 239.036 182.244V186H237.62V185.22C237.436 185.5 237.172 185.716 236.828 185.868C236.492 186.012 236.084 186.084 235.604 186.084C235.124 186.084 234.704 186.004 234.344 185.844C233.984 185.676 233.704 185.448 233.504 185.16C233.312 184.864 233.216 184.532 233.216 184.164C233.216 183.588 233.428 183.128 233.852 182.784C234.284 182.432 234.96 182.256 235.88 182.256H237.536V182.16C237.536 181.712 237.4 181.368 237.128 181.128C236.864 180.888 236.468 180.768 235.94 180.768C235.58 180.768 235.224 180.824 234.872 180.936C234.528 181.048 234.236 181.204 233.996 181.404L233.408 180.312C233.744 180.056 234.148 179.86 234.62 179.724C235.092 179.588 235.592 179.52 236.12 179.52ZM235.916 184.992C236.292 184.992 236.624 184.908 236.912 184.74C237.208 184.564 237.416 184.316 237.536 183.996V183.252H235.988C235.124 183.252 234.692 183.536 234.692 184.104C234.692 184.376 234.8 184.592 235.016 184.752C235.232 184.912 235.532 184.992 235.916 184.992ZM244.277 179.592H245.777V186H244.277V179.592ZM245.033 178.536C244.761 178.536 244.533 178.452 244.349 178.284C244.165 178.108 244.073 177.892 244.073 177.636C244.073 177.38 244.165 177.168 244.349 177C244.533 176.824 244.761 176.736 245.033 176.736C245.305 176.736 245.533 176.82 245.717 176.988C245.901 177.148 245.993 177.352 245.993 177.6C245.993 177.864 245.901 178.088 245.717 178.272C245.541 178.448 245.313 178.536 245.033 178.536ZM252.75 184.8V186H247.218V185.052L250.734 180.792H247.29V179.592H252.654V180.54L249.126 184.8H252.75ZM260.303 179.592V188.328H258.803V185.22C258.299 185.796 257.615 186.084 256.751 186.084C256.127 186.084 255.567 185.948 255.071 185.676C254.583 185.404 254.199 185.02 253.919 184.524C253.647 184.028 253.511 183.452 253.511 182.796C253.511 182.148 253.651 181.576 253.931 181.08C254.211 180.584 254.595 180.2 255.083 179.928C255.571 179.656 256.127 179.52 256.751 179.52C257.191 179.52 257.591 179.596 257.951 179.748C258.319 179.9 258.627 180.128 258.875 180.432V179.592H260.303ZM256.919 184.8C257.471 184.8 257.927 184.616 258.287 184.248C258.647 183.88 258.827 183.396 258.827 182.796C258.827 182.196 258.647 181.712 258.287 181.344C257.927 180.976 257.471 180.792 256.919 180.792C256.367 180.792 255.911 180.976 255.551 181.344C255.199 181.712 255.023 182.196 255.023 182.796C255.023 183.396 255.199 183.88 255.551 184.248C255.911 184.616 256.367 184.8 256.919 184.8ZM268.469 179.592V186H267.041V185.184C266.801 185.472 266.501 185.696 266.141 185.856C265.781 186.008 265.393 186.084 264.977 186.084C264.121 186.084 263.445 185.848 262.949 185.376C262.461 184.896 262.217 184.188 262.217 183.252V179.592H263.717V183.048C263.717 183.624 263.845 184.056 264.101 184.344C264.365 184.624 264.737 184.764 265.217 184.764C265.753 184.764 266.177 184.6 266.489 184.272C266.809 183.936 266.969 183.456 266.969 182.832V179.592H268.469ZM270.433 179.592H271.933V186H270.433V179.592ZM271.189 178.536C270.917 178.536 270.689 178.452 270.505 178.284C270.321 178.108 270.229 177.892 270.229 177.636C270.229 177.38 270.321 177.168 270.505 177C270.689 176.824 270.917 176.736 271.189 176.736C271.461 176.736 271.689 176.82 271.873 176.988C272.057 177.148 272.149 177.352 272.149 177.6C272.149 177.864 272.057 178.088 271.873 178.272C271.697 178.448 271.469 178.536 271.189 178.536ZM279.926 182.832C279.926 182.936 279.918 183.084 279.902 183.276H274.874C274.962 183.748 275.19 184.124 275.558 184.404C275.934 184.676 276.398 184.812 276.95 184.812C277.654 184.812 278.234 184.58 278.69 184.116L279.494 185.04C279.206 185.384 278.842 185.644 278.402 185.82C277.962 185.996 277.466 186.084 276.914 186.084C276.21 186.084 275.59 185.944 275.054 185.664C274.518 185.384 274.102 184.996 273.806 184.5C273.518 183.996 273.374 183.428 273.374 182.796C273.374 182.172 273.514 181.612 273.794 181.116C274.082 180.612 274.478 180.22 274.982 179.94C275.486 179.66 276.054 179.52 276.686 179.52C277.31 179.52 277.866 179.66 278.354 179.94C278.85 180.212 279.234 180.6 279.506 181.104C279.786 181.6 279.926 182.176 279.926 182.832ZM276.686 180.72C276.206 180.72 275.798 180.864 275.462 181.152C275.134 181.432 274.934 181.808 274.862 182.28H278.498C278.434 181.816 278.238 181.44 277.91 181.152C277.582 180.864 277.174 180.72 276.686 180.72ZM282.795 180.528C283.227 179.856 283.987 179.52 285.075 179.52V180.948C284.947 180.924 284.831 180.912 284.727 180.912C284.143 180.912 283.687 181.084 283.359 181.428C283.031 181.764 282.867 182.252 282.867 182.892V186H281.367V179.592H282.795V180.528ZM292.565 177.096V186H291.125V185.172C290.877 185.476 290.569 185.704 290.201 185.856C289.841 186.008 289.441 186.084 289.001 186.084C288.385 186.084 287.829 185.948 287.333 185.676C286.845 185.404 286.461 185.02 286.181 184.524C285.901 184.02 285.761 183.444 285.761 182.796C285.761 182.148 285.901 181.576 286.181 181.08C286.461 180.584 286.845 180.2 287.333 179.928C287.829 179.656 288.385 179.52 289.001 179.52C289.425 179.52 289.813 179.592 290.165 179.736C290.517 179.88 290.817 180.096 291.065 180.384V177.096H292.565ZM289.181 184.8C289.541 184.8 289.865 184.72 290.153 184.56C290.441 184.392 290.669 184.156 290.837 183.852C291.005 183.548 291.089 183.196 291.089 182.796C291.089 182.396 291.005 182.044 290.837 181.74C290.669 181.436 290.441 181.204 290.153 181.044C289.865 180.876 289.541 180.792 289.181 180.792C288.821 180.792 288.497 180.876 288.209 181.044C287.921 181.204 287.693 181.436 287.525 181.74C287.357 182.044 287.273 182.396 287.273 182.796C287.273 183.196 287.357 183.548 287.525 183.852C287.693 184.156 287.921 184.392 288.209 184.56C288.497 184.72 288.821 184.8 289.181 184.8ZM296.975 179.52C297.919 179.52 298.639 179.748 299.135 180.204C299.639 180.652 299.891 181.332 299.891 182.244V186H298.475V185.22C298.291 185.5 298.027 185.716 297.683 185.868C297.347 186.012 296.939 186.084 296.459 186.084C295.979 186.084 295.559 186.004 295.199 185.844C294.839 185.676 294.559 185.448 294.359 185.16C294.167 184.864 294.071 184.532 294.071 184.164C294.071 183.588 294.283 183.128 294.707 182.784C295.139 182.432 295.815 182.256 296.735 182.256H298.391V182.16C298.391 181.712 298.255 181.368 297.983 181.128C297.719 180.888 297.323 180.768 296.795 180.768C296.435 180.768 296.079 180.824 295.727 180.936C295.383 181.048 295.091 181.204 294.851 181.404L294.263 180.312C294.599 180.056 295.003 179.86 295.475 179.724C295.947 179.588 296.447 179.52 296.975 179.52ZM296.771 184.992C297.147 184.992 297.479 184.908 297.767 184.74C298.063 184.564 298.271 184.316 298.391 183.996V183.252H296.843C295.979 183.252 295.547 183.536 295.547 184.104C295.547 184.376 295.655 184.592 295.871 184.752C296.087 184.912 296.387 184.992 296.771 184.992Z" fill="#333333"/>
<rect x="140" y="172" width="32" height="20" rx="5" fill="#F2F2F2"/>
<path d="M146.418 180.396C146.642 180.084 146.942 179.848 147.318 179.688C147.702 179.528 148.142 179.448 148.638 179.448V181.176C148.43 181.16 148.29 181.152 148.218 181.152C147.682 181.152 147.262 181.304 146.958 181.608C146.654 181.904 146.502 182.352 146.502 182.952V186H144.63V179.544H146.418V180.396ZM152.764 186.096C152.084 186.096 151.472 185.956 150.928 185.676C150.392 185.388 149.972 184.992 149.668 184.488C149.364 183.984 149.212 183.412 149.212 182.772C149.212 182.132 149.364 181.56 149.668 181.056C149.972 180.552 150.392 180.16 150.928 179.88C151.472 179.592 152.084 179.448 152.764 179.448C153.444 179.448 154.052 179.592 154.588 179.88C155.124 180.16 155.544 180.552 155.848 181.056C156.152 181.56 156.304 182.132 156.304 182.772C156.304 183.412 156.152 183.984 155.848 184.488C155.544 184.992 155.124 185.388 154.588 185.676C154.052 185.956 153.444 186.096 152.764 186.096ZM152.764 184.56C153.244 184.56 153.636 184.4 153.94 184.08C154.252 183.752 154.408 183.316 154.408 182.772C154.408 182.228 154.252 181.796 153.94 181.476C153.636 181.148 153.244 180.984 152.764 180.984C152.284 180.984 151.888 181.148 151.576 181.476C151.264 181.796 151.108 182.228 151.108 182.772C151.108 183.316 151.264 183.752 151.576 184.08C151.888 184.4 152.284 184.56 152.764 184.56ZM157.075 188.424C156.419 188.424 155.919 188.304 155.575 188.064L156.079 186.708C156.295 186.86 156.559 186.936 156.871 186.936C157.111 186.936 157.299 186.856 157.435 186.696C157.571 186.544 157.639 186.312 157.639 186V179.544H159.511V185.988C159.511 186.74 159.295 187.332 158.863 187.764C158.439 188.204 157.843 188.424 157.075 188.424ZM158.575 178.644C158.231 178.644 157.951 178.544 157.735 178.344C157.519 178.144 157.411 177.896 157.411 177.6C157.411 177.304 157.519 177.056 157.735 176.856C157.951 176.656 158.231 176.556 158.575 176.556C158.919 176.556 159.199 176.652 159.415 176.844C159.631 177.036 159.739 177.276 159.739 177.564C159.739 177.876 159.631 178.136 159.415 178.344C159.199 178.544 158.919 178.644 158.575 178.644ZM164.307 186.096C163.627 186.096 163.015 185.956 162.471 185.676C161.935 185.388 161.515 184.992 161.211 184.488C160.907 183.984 160.755 183.412 160.755 182.772C160.755 182.132 160.907 181.56 161.211 181.056C161.515 180.552 161.935 180.16 162.471 179.88C163.015 179.592 163.627 179.448 164.307 179.448C164.987 179.448 165.595 179.592 166.131 179.88C166.667 180.16 167.087 180.552 167.391 181.056C167.695 181.56 167.847 182.132 167.847 182.772C167.847 183.412 167.695 183.984 167.391 184.488C167.087 184.992 166.667 185.388 166.131 185.676C165.595 185.956 164.987 186.096 164.307 186.096ZM164.307 184.56C164.787 184.56 165.179 184.4 165.483 184.08C165.795 183.752 165.951 183.316 165.951 182.772C165.951 182.228 165.795 181.796 165.483 181.476C165.179 181.148 164.787 180.984 164.307 180.984C163.827 180.984 163.431 181.148 163.119 181.476C162.807 181.796 162.651 182.228 162.651 182.772C162.651 183.316 162.807 183.752 163.119 184.08C163.431 184.4 163.827 184.56 164.307 184.56Z" fill="#333333"/>
<path fill-rule="evenodd" clip-rule="evenodd" d="M315 62C315 51 308 44 297 44C257.917 44 282.045 44 254 44C246.27 44 242.785 41.7635 238.5 37.5C229.193 28.8197 205.783 15 154.427 15C82.0243 15 65 44 65 44C65 44 65.0004 48.7195 65.0006 62C65.0006 72 73 80 83 80C109.488 80 154 80 154 80L163 88H200L208 80C208 80 242.031 80 297 80C308 80 315 73 315 62C315 59.1323 315 63.8675 315 62Z" fill="#FC79FF"/>
<path fill-rule="evenodd" clip-rule="evenodd" d="M310 62C310 70 306 75 297 75L206 74.9999L198 83H165L156 74.9999C156 74.9999 108.393 74.9999 83.0001 74.9999C74.9643 74.9999 70 69 70 62H65C65 72 73 80 83.0001 80C109.441 80 154 80 154 80L163.027 88H200L208 80L297 80C308 80 315 73 315 62C313.5 62 312 61.9999 310 62Z" fill="black" fill-opacity="0.25"/>
<path fill-rule="evenodd" clip-rule="evenodd" d="M65 62H70V46C70 46 84.993 20 154.286 20C201.342 20 225.557 32.6452 235.5 41C240.292 45.0301 246.712 48.9521 253 49C261.5 49 281.464 49 297 49C304.964 49 310 54.5 310 61V62H314H315C315 51 308 44 297 44C257.993 44 281.008 44 253 44C246 44 242.169 41.1595 238.214 37.2066C228.936 28.4998 205.571 15 154.268 15C81.9103 15 65 44 65 44L65 62Z" fill="white" fill-opacity="0.5"/>
<path d="M80.016 69.144C79.16 69.144 78.384 68.96 77.688 68.592C77 68.216 76.456 67.7 76.056 67.044C75.664 66.38 75.468 65.632 75.468 64.8C75.468 63.968 75.664 63.224 76.056 62.568C76.456 61.904 77 61.388 77.688 61.02C78.384 60.644 79.164 60.456 80.028 60.456C80.756 60.456 81.412 60.584 81.996 60.84C82.588 61.096 83.084 61.464 83.484 61.944L82.236 63.096C81.668 62.44 80.964 62.112 80.124 62.112C79.604 62.112 79.14 62.228 78.732 62.46C78.324 62.684 78.004 63 77.772 63.408C77.548 63.816 77.436 64.28 77.436 64.8C77.436 65.32 77.548 65.784 77.772 66.192C78.004 66.6 78.324 66.92 78.732 67.152C79.14 67.376 79.604 67.488 80.124 67.488C80.964 67.488 81.668 67.156 82.236 66.492L83.484 67.644C83.084 68.132 82.588 68.504 81.996 68.76C81.404 69.016 80.744 69.144 80.016 69.144ZM91.0047 62.544V69H89.2287V68.232C88.9807 68.512 88.6847 68.728 88.3407 68.88C87.9967 69.024 87.6247 69.096 87.2247 69.096C86.3767 69.096 85.7047 68.852 85.2087 68.364C84.7127 67.876 84.4647 67.152 84.4647 66.192V62.544H86.3367V65.916C86.3367 66.956 86.7727 67.476 87.6447 67.476C88.0927 67.476 88.4527 67.332 88.7247 67.044C88.9967 66.748 89.1327 66.312 89.1327 65.736V62.544H91.0047ZM95.343 62.448C96.343 62.448 97.111 62.688 97.647 63.168C98.183 63.64 98.451 64.356 98.451 65.316V69H96.699V68.196C96.347 68.796 95.691 69.096 94.731 69.096C94.235 69.096 93.803 69.012 93.435 68.844C93.075 68.676 92.799 68.444 92.607 68.148C92.415 67.852 92.319 67.516 92.319 67.14C92.319 66.54 92.543 66.068 92.991 65.724C93.447 65.38 94.147 65.208 95.091 65.208H96.579C96.579 64.8 96.455 64.488 96.207 64.272C95.959 64.048 95.587 63.936 95.091 63.936C94.747 63.936 94.407 63.992 94.071 64.104C93.743 64.208 93.463 64.352 93.231 64.536L92.559 63.228C92.911 62.98 93.331 62.788 93.819 62.652C94.315 62.516 94.823 62.448 95.343 62.448ZM95.199 67.836C95.519 67.836 95.803 67.764 96.051 67.62C96.299 67.468 96.475 67.248 96.579 66.96V66.3H95.295C94.527 66.3 94.143 66.552 94.143 67.056C94.143 67.296 94.235 67.488 94.419 67.632C94.611 67.768 94.871 67.836 95.199 67.836ZM104.069 62.448C104.869 62.448 105.513 62.688 106.001 63.168C106.497 63.648 106.745 64.36 106.745 65.304V69H104.873V65.592C104.873 65.08 104.761 64.7 104.537 64.452C104.313 64.196 103.989 64.068 103.565 64.068C103.093 64.068 102.717 64.216 102.437 64.512C102.157 64.8 102.017 65.232 102.017 65.808V69H100.145V62.544H101.933V63.3C102.181 63.028 102.489 62.82 102.857 62.676C103.225 62.524 103.629 62.448 104.069 62.448ZM115.088 60.096V69H113.3V68.256C112.836 68.816 112.164 69.096 111.284 69.096C110.676 69.096 110.124 68.96 109.628 68.688C109.14 68.416 108.756 68.028 108.476 67.524C108.196 67.02 108.056 66.436 108.056 65.772C108.056 65.108 108.196 64.524 108.476 64.02C108.756 63.516 109.14 63.128 109.628 62.856C110.124 62.584 110.676 62.448 111.284 62.448C112.108 62.448 112.752 62.708 113.216 63.228V60.096H115.088ZM111.608 67.56C112.08 67.56 112.472 67.4 112.784 67.08C113.096 66.752 113.252 66.316 113.252 65.772C113.252 65.228 113.096 64.796 112.784 64.476C112.472 64.148 112.08 63.984 111.608 63.984C111.128 63.984 110.732 64.148 110.42 64.476C110.108 64.796 109.952 65.228 109.952 65.772C109.952 66.316 110.108 66.752 110.42 67.08C110.732 67.4 111.128 67.56 111.608 67.56ZM119.893 69.096C119.213 69.096 118.601 68.956 118.057 68.676C117.521 68.388 117.101 67.992 116.797 67.488C116.493 66.984 116.341 66.412 116.341 65.772C116.341 65.132 116.493 64.56 116.797 64.056C117.101 63.552 117.521 63.16 118.057 62.88C118.601 62.592 119.213 62.448 119.893 62.448C120.573 62.448 121.181 62.592 121.717 62.88C122.253 63.16 122.673 63.552 122.977 64.056C123.281 64.56 123.433 65.132 123.433 65.772C123.433 66.412 123.281 66.984 122.977 67.488C122.673 67.992 122.253 68.388 121.717 68.676C121.181 68.956 120.573 69.096 119.893 69.096ZM119.893 67.56C120.373 67.56 120.765 67.4 121.069 67.08C121.381 66.752 121.537 66.316 121.537 65.772C121.537 65.228 121.381 64.796 121.069 64.476C120.765 64.148 120.373 63.984 119.893 63.984C119.413 63.984 119.017 64.148 118.705 64.476C118.393 64.796 118.237 65.228 118.237 65.772C118.237 66.316 118.393 66.752 118.705 67.08C119.017 67.4 119.413 67.56 119.893 67.56ZM125.392 64.788C125.064 64.788 124.788 64.676 124.564 64.452C124.34 64.228 124.228 63.948 124.228 63.612C124.228 63.268 124.34 62.992 124.564 62.784C124.788 62.568 125.064 62.46 125.392 62.46C125.72 62.46 125.996 62.568 126.22 62.784C126.444 62.992 126.556 63.268 126.556 63.612C126.556 63.948 126.444 64.228 126.22 64.452C125.996 64.676 125.72 64.788 125.392 64.788ZM125.392 69.096C125.064 69.096 124.788 68.984 124.564 68.76C124.34 68.536 124.228 68.256 124.228 67.92C124.228 67.576 124.34 67.3 124.564 67.092C124.788 66.876 125.064 66.768 125.392 66.768C125.72 66.768 125.996 66.876 126.22 67.092C126.444 67.3 126.556 67.576 126.556 67.92C126.556 68.256 126.444 68.536 126.22 68.76C125.996 68.984 125.72 69.096 125.392 69.096ZM135.039 62.448C135.639 62.448 136.183 62.588 136.671 62.868C137.167 63.14 137.555 63.528 137.835 64.032C138.115 64.528 138.255 65.108 138.255 65.772C138.255 66.436 138.115 67.02 137.835 67.524C137.555 68.02 137.167 68.408 136.671 68.688C136.183 68.96 135.639 69.096 135.039 69.096C134.215 69.096 133.567 68.836 133.095 68.316V71.328H131.223V62.544H133.011V63.288C133.475 62.728 134.151 62.448 135.039 62.448ZM134.715 67.56C135.195 67.56 135.587 67.4 135.891 67.08C136.203 66.752 136.359 66.316 136.359 65.772C136.359 65.228 136.203 64.796 135.891 64.476C135.587 64.148 135.195 63.984 134.715 63.984C134.235 63.984 133.839 64.148 133.527 64.476C133.223 64.796 133.071 65.228 133.071 65.772C133.071 66.316 133.223 66.752 133.527 67.08C133.839 67.4 134.235 67.56 134.715 67.56ZM141.297 63.396C141.521 63.084 141.821 62.848 142.197 62.688C142.581 62.528 143.021 62.448 143.517 62.448V64.176C143.309 64.16 143.169 64.152 143.097 64.152C142.561 64.152 142.141 64.304 141.837 64.608C141.533 64.904 141.381 65.352 141.381 65.952V69H139.509V62.544H141.297V63.396ZM150.895 65.796C150.895 65.82 150.883 65.988 150.859 66.3H145.975C146.063 66.7 146.271 67.016 146.599 67.248C146.927 67.48 147.335 67.596 147.823 67.596C148.159 67.596 148.455 67.548 148.711 67.452C148.975 67.348 149.219 67.188 149.443 66.972L150.439 68.052C149.831 68.748 148.943 69.096 147.775 69.096C147.047 69.096 146.403 68.956 145.843 68.676C145.283 68.388 144.851 67.992 144.547 67.488C144.243 66.984 144.091 66.412 144.091 65.772C144.091 65.14 144.239 64.572 144.535 64.068C144.839 63.556 145.251 63.16 145.771 62.88C146.299 62.592 146.887 62.448 147.535 62.448C148.167 62.448 148.739 62.584 149.251 62.856C149.763 63.128 150.163 63.52 150.451 64.032C150.747 64.536 150.895 65.124 150.895 65.796ZM147.547 63.864C147.123 63.864 146.767 63.984 146.479 64.224C146.191 64.464 146.015 64.792 145.951 65.208H149.131C149.067 64.8 148.891 64.476 148.603 64.236C148.315 63.988 147.963 63.864 147.547 63.864ZM154.313 69.096C153.777 69.096 153.253 69.032 152.741 68.904C152.229 68.768 151.821 68.6 151.517 68.4L152.141 67.056C152.429 67.24 152.777 67.392 153.185 67.512C153.593 67.624 153.993 67.68 154.385 67.68C155.177 67.68 155.573 67.484 155.573 67.092C155.573 66.908 155.465 66.776 155.249 66.696C155.033 66.616 154.701 66.548 154.253 66.492C153.725 66.412 153.289 66.32 152.945 66.216C152.601 66.112 152.301 65.928 152.045 65.664C151.797 65.4 151.673 65.024 151.673 64.536C151.673 64.128 151.789 63.768 152.021 63.456C152.261 63.136 152.605 62.888 153.053 62.712C153.509 62.536 154.045 62.448 154.661 62.448C155.117 62.448 155.569 62.5 156.017 62.604C156.473 62.7 156.849 62.836 157.145 63.012L156.521 64.344C155.953 64.024 155.333 63.864 154.661 63.864C154.261 63.864 153.961 63.92 153.761 64.032C153.561 64.144 153.461 64.288 153.461 64.464C153.461 64.664 153.569 64.804 153.785 64.884C154.001 64.964 154.345 65.04 154.817 65.112C155.345 65.2 155.777 65.296 156.113 65.4C156.449 65.496 156.741 65.676 156.989 65.94C157.237 66.204 157.361 66.572 157.361 67.044C157.361 67.444 157.241 67.8 157.001 68.112C156.761 68.424 156.409 68.668 155.945 68.844C155.489 69.012 154.945 69.096 154.313 69.096ZM158.516 62.544H160.388V69H158.516V62.544ZM159.452 61.644C159.108 61.644 158.828 61.544 158.612 61.344C158.396 61.144 158.288 60.896 158.288 60.6C158.288 60.304 158.396 60.056 158.612 59.856C158.828 59.656 159.108 59.556 159.452 59.556C159.796 59.556 160.076 59.652 160.292 59.844C160.508 60.036 160.616 60.276 160.616 60.564C160.616 60.876 160.508 61.136 160.292 61.344C160.076 61.544 159.796 61.644 159.452 61.644ZM165.198 69.096C164.518 69.096 163.906 68.956 163.362 68.676C162.826 68.388 162.406 67.992 162.102 67.488C161.798 66.984 161.646 66.412 161.646 65.772C161.646 65.132 161.798 64.56 162.102 64.056C162.406 63.552 162.826 63.16 163.362 62.88C163.906 62.592 164.518 62.448 165.198 62.448C165.878 62.448 166.486 62.592 167.022 62.88C167.558 63.16 167.978 63.552 168.282 64.056C168.586 64.56 168.738 65.132 168.738 65.772C168.738 66.412 168.586 66.984 168.282 67.488C167.978 67.992 167.558 68.388 167.022 68.676C166.486 68.956 165.878 69.096 165.198 69.096ZM165.198 67.56C165.678 67.56 166.07 67.4 166.374 67.08C166.686 66.752 166.842 66.316 166.842 65.772C166.842 65.228 166.686 64.796 166.374 64.476C166.07 64.148 165.678 63.984 165.198 63.984C164.718 63.984 164.322 64.148 164.01 64.476C163.698 64.796 163.542 65.228 163.542 65.772C163.542 66.316 163.698 66.752 164.01 67.08C164.322 67.4 164.718 67.56 165.198 67.56ZM173.913 62.448C174.713 62.448 175.357 62.688 175.845 63.168C176.341 63.648 176.589 64.36 176.589 65.304V69H174.717V65.592C174.717 65.08 174.605 64.7 174.381 64.452C174.157 64.196 173.833 64.068 173.409 64.068C172.937 64.068 172.561 64.216 172.281 64.512C172.001 64.8 171.861 65.232 171.861 65.808V69H169.989V62.544H171.777V63.3C172.025 63.028 172.333 62.82 172.701 62.676C173.069 62.524 173.473 62.448 173.913 62.448ZM180.89 62.448C181.89 62.448 182.658 62.688 183.194 63.168C183.73 63.64 183.998 64.356 183.998 65.316V69H182.246V68.196C181.894 68.796 181.238 69.096 180.278 69.096C179.782 69.096 179.35 69.012 178.982 68.844C178.622 68.676 178.346 68.444 178.154 68.148C177.962 67.852 177.866 67.516 177.866 67.14C177.866 66.54 178.09 66.068 178.538 65.724C178.994 65.38 179.694 65.208 180.638 65.208H182.126C182.126 64.8 182.002 64.488 181.754 64.272C181.506 64.048 181.134 63.936 180.638 63.936C180.294 63.936 179.954 63.992 179.618 64.104C179.29 64.208 179.01 64.352 178.778 64.536L178.106 63.228C178.458 62.98 178.878 62.788 179.366 62.652C179.862 62.516 180.37 62.448 180.89 62.448ZM180.746 67.836C181.066 67.836 181.35 67.764 181.598 67.62C181.846 67.468 182.022 67.248 182.126 66.96V66.3H180.842C180.074 66.3 179.69 66.552 179.69 67.056C179.69 67.296 179.782 67.488 179.966 67.632C180.158 67.768 180.418 67.836 180.746 67.836ZM187.48 63.396C187.704 63.084 188.004 62.848 188.38 62.688C188.764 62.528 189.204 62.448 189.7 62.448V64.176C189.492 64.16 189.352 64.152 189.28 64.152C188.744 64.152 188.324 64.304 188.02 64.608C187.716 64.904 187.564 65.352 187.564 65.952V69H185.692V62.544H187.48V63.396ZM198.075 62.448C198.675 62.448 199.219 62.588 199.707 62.868C200.203 63.14 200.591 63.528 200.871 64.032C201.151 64.528 201.291 65.108 201.291 65.772C201.291 66.436 201.151 67.02 200.871 67.524C200.591 68.02 200.203 68.408 199.707 68.688C199.219 68.96 198.675 69.096 198.075 69.096C197.187 69.096 196.511 68.816 196.047 68.256V69H194.259V60.096H196.131V63.228C196.603 62.708 197.251 62.448 198.075 62.448ZM197.751 67.56C198.231 67.56 198.623 67.4 198.927 67.08C199.239 66.752 199.395 66.316 199.395 65.772C199.395 65.228 199.239 64.796 198.927 64.476C198.623 64.148 198.231 63.984 197.751 63.984C197.271 63.984 196.875 64.148 196.563 64.476C196.259 64.796 196.107 65.228 196.107 65.772C196.107 66.316 196.259 66.752 196.563 67.08C196.875 67.4 197.271 67.56 197.751 67.56ZM205.616 69.096C204.936 69.096 204.324 68.956 203.78 68.676C203.244 68.388 202.824 67.992 202.52 67.488C202.216 66.984 202.064 66.412 202.064 65.772C202.064 65.132 202.216 64.56 202.52 64.056C202.824 63.552 203.244 63.16 203.78 62.88C204.324 62.592 204.936 62.448 205.616 62.448C206.296 62.448 206.904 62.592 207.44 62.88C207.976 63.16 208.396 63.552 208.7 64.056C209.004 64.56 209.156 65.132 209.156 65.772C209.156 66.412 209.004 66.984 208.7 67.488C208.396 67.992 207.976 68.388 207.44 68.676C206.904 68.956 206.296 69.096 205.616 69.096ZM205.616 67.56C206.096 67.56 206.488 67.4 206.792 67.08C207.104 66.752 207.26 66.316 207.26 65.772C207.26 65.228 207.104 64.796 206.792 64.476C206.488 64.148 206.096 63.984 205.616 63.984C205.136 63.984 204.74 64.148 204.428 64.476C204.116 64.796 203.96 65.228 203.96 65.772C203.96 66.316 204.116 66.752 204.428 67.08C204.74 67.4 205.136 67.56 205.616 67.56ZM214.571 68.688C214.387 68.824 214.159 68.928 213.887 69C213.623 69.064 213.343 69.096 213.047 69.096C212.279 69.096 211.683 68.9 211.259 68.508C210.843 68.116 210.635 67.54 210.635 66.78V64.128H209.639V62.688H210.635V61.116H212.507V62.688H214.115V64.128H212.507V66.756C212.507 67.028 212.575 67.24 212.711 67.392C212.855 67.536 213.055 67.608 213.311 67.608C213.607 67.608 213.859 67.528 214.067 67.368L214.571 68.688ZM218.495 69.096C217.815 69.096 217.203 68.956 216.659 68.676C216.123 68.388 215.703 67.992 215.399 67.488C215.095 66.984 214.943 66.412 214.943 65.772C214.943 65.132 215.095 64.56 215.399 64.056C215.703 63.552 216.123 63.16 216.659 62.88C217.203 62.592 217.815 62.448 218.495 62.448C219.175 62.448 219.783 62.592 220.319 62.88C220.855 63.16 221.275 63.552 221.579 64.056C221.883 64.56 222.035 65.132 222.035 65.772C222.035 66.412 221.883 66.984 221.579 67.488C221.275 67.992 220.855 68.388 220.319 68.676C219.783 68.956 219.175 69.096 218.495 69.096ZM218.495 67.56C218.975 67.56 219.367 67.4 219.671 67.08C219.983 66.752 220.139 66.316 220.139 65.772C220.139 65.228 219.983 64.796 219.671 64.476C219.367 64.148 218.975 63.984 218.495 63.984C218.015 63.984 217.619 64.148 217.307 64.476C216.995 64.796 216.839 65.228 216.839 65.772C216.839 66.316 216.995 66.752 217.307 67.08C217.619 67.4 218.015 67.56 218.495 67.56ZM218.999 59.988H221.015L218.843 61.716H217.379L218.999 59.988ZM227.21 62.448C228.01 62.448 228.654 62.688 229.142 63.168C229.638 63.648 229.886 64.36 229.886 65.304V69H228.014V65.592C228.014 65.08 227.902 64.7 227.678 64.452C227.454 64.196 227.13 64.068 226.706 64.068C226.234 64.068 225.858 64.216 225.578 64.512C225.298 64.8 225.158 65.232 225.158 65.808V69H223.286V62.544H225.074V63.3C225.322 63.028 225.63 62.82 225.998 62.676C226.366 62.524 226.77 62.448 227.21 62.448ZM234.981 62.544H236.853V69H234.981V62.544ZM235.917 61.644C235.573 61.644 235.293 61.544 235.077 61.344C234.861 61.144 234.753 60.896 234.753 60.6C234.753 60.304 234.861 60.056 235.077 59.856C235.293 59.656 235.573 59.556 235.917 59.556C236.261 59.556 236.541 59.652 236.757 59.844C236.973 60.036 237.081 60.276 237.081 60.564C237.081 60.876 236.973 61.136 236.757 61.344C236.541 61.544 236.261 61.644 235.917 61.644ZM242.515 62.448C243.315 62.448 243.959 62.688 244.447 63.168C244.943 63.648 245.191 64.36 245.191 65.304V69H243.319V65.592C243.319 65.08 243.207 64.7 242.983 64.452C242.759 64.196 242.435 64.068 242.011 64.068C241.539 64.068 241.163 64.216 240.883 64.512C240.603 64.8 240.463 65.232 240.463 65.808V69H238.591V62.544H240.379V63.3C240.627 63.028 240.935 62.82 241.303 62.676C241.671 62.524 242.075 62.448 242.515 62.448ZM246.887 62.544H248.759V69H246.887V62.544ZM247.823 61.644C247.479 61.644 247.199 61.544 246.983 61.344C246.767 61.144 246.659 60.896 246.659 60.6C246.659 60.304 246.767 60.056 246.983 59.856C247.199 59.656 247.479 59.556 247.823 59.556C248.167 59.556 248.447 59.652 248.663 59.844C248.879 60.036 248.987 60.276 248.987 60.564C248.987 60.876 248.879 61.136 248.663 61.344C248.447 61.544 248.167 61.644 247.823 61.644ZM253.617 69.096C252.929 69.096 252.309 68.956 251.757 68.676C251.213 68.388 250.785 67.992 250.473 67.488C250.169 66.984 250.017 66.412 250.017 65.772C250.017 65.132 250.169 64.56 250.473 64.056C250.785 63.552 251.213 63.16 251.757 62.88C252.309 62.592 252.929 62.448 253.617 62.448C254.297 62.448 254.889 62.592 255.393 62.88C255.905 63.16 256.277 63.564 256.509 64.092L255.057 64.872C254.721 64.28 254.237 63.984 253.605 63.984C253.117 63.984 252.713 64.144 252.393 64.464C252.073 64.784 251.913 65.22 251.913 65.772C251.913 66.324 252.073 66.76 252.393 67.08C252.713 67.4 253.117 67.56 253.605 67.56C254.245 67.56 254.729 67.264 255.057 66.672L256.509 67.464C256.277 67.976 255.905 68.376 255.393 68.664C254.889 68.952 254.297 69.096 253.617 69.096ZM257.587 62.544H259.459V69H257.587V62.544ZM258.523 61.644C258.179 61.644 257.899 61.544 257.683 61.344C257.467 61.144 257.359 60.896 257.359 60.6C257.359 60.304 257.467 60.056 257.683 59.856C257.899 59.656 258.179 59.556 258.523 59.556C258.867 59.556 259.147 59.652 259.363 59.844C259.579 60.036 259.687 60.276 259.687 60.564C259.687 60.876 259.579 61.136 259.363 61.344C259.147 61.544 258.867 61.644 258.523 61.644ZM263.8 62.448C264.8 62.448 265.568 62.688 266.104 63.168C266.64 63.64 266.908 64.356 266.908 65.316V69H265.156V68.196C264.804 68.796 264.148 69.096 263.188 69.096C262.692 69.096 262.26 69.012 261.892 68.844C261.532 68.676 261.256 68.444 261.064 68.148C260.872 67.852 260.776 67.516 260.776 67.14C260.776 66.54 261 66.068 261.448 65.724C261.904 65.38 262.604 65.208 263.548 65.208H265.036C265.036 64.8 264.912 64.488 264.664 64.272C264.416 64.048 264.044 63.936 263.548 63.936C263.204 63.936 262.864 63.992 262.528 64.104C262.2 64.208 261.92 64.352 261.688 64.536L261.016 63.228C261.368 62.98 261.788 62.788 262.276 62.652C262.772 62.516 263.28 62.448 263.8 62.448ZM263.656 67.836C263.976 67.836 264.26 67.764 264.508 67.62C264.756 67.468 264.932 67.248 265.036 66.96V66.3H263.752C262.984 66.3 262.6 66.552 262.6 67.056C262.6 67.296 262.692 67.488 262.876 67.632C263.068 67.768 263.328 67.836 263.656 67.836ZM270.39 63.396C270.614 63.084 270.914 62.848 271.29 62.688C271.674 62.528 272.114 62.448 272.61 62.448V64.176C272.402 64.16 272.262 64.152 272.19 64.152C271.654 64.152 271.234 64.304 270.93 64.608C270.626 64.904 270.474 65.352 270.474 65.952V69H268.602V62.544H270.39V63.396ZM274.361 69.096C274.033 69.096 273.757 68.984 273.533 68.76C273.309 68.536 273.197 68.256 273.197 67.92C273.197 67.576 273.309 67.3 273.533 67.092C273.757 66.876 274.033 66.768 274.361 66.768C274.689 66.768 274.965 66.876 275.189 67.092C275.413 67.3 275.525 67.576 275.525 67.92C275.525 68.256 275.413 68.536 275.189 68.76C274.965 68.984 274.689 69.096 274.361 69.096Z" fill="#333333"/>
</g>
<defs>
<filter id="filter0_d_4403_110096" x="0" y="0" width="380" height="224" filterUnits="userSpaceOnUse" color-interpolation-filters="sRGB">
<feFlood flood-opacity="0" result="BackgroundImageFix"/>
<feColorMatrix in="SourceAlpha" type="matrix" values="0 0 0 0 0 0 0 0 0 0 0 0 0 0 0 0 0 0 127 0" result="hardAlpha"/>
<feOffset dy="4"/>
<feColorMatrix type="matrix" values="0 0 0 0 0 0 0 0 0 0 0 0 0 0 0 0 0 0 0.25 0"/>
<feBlend mode="normal" in2="BackgroundImageFix" result="effect1_dropShadow_4403_110096"/>
<feBlend mode="normal" in="SourceGraphic" in2="effect1_dropShadow_4403_110096" result="shape"/>
</filter>
</defs>
</svg>
