<svg width="380" height="224" viewBox="0 0 380 224" fill="none" xmlns="http://www.w3.org/2000/svg">
<g filter="url(#filter0_d_4403_110115)">
<rect width="380" height="220" rx="20" fill="#F2F2F2"/>
<path fill-rule="evenodd" clip-rule="evenodd" d="M315 98.9851C315 88 306 78.9926 295 78.9926C233.172 78.9926 208 79 208 79L200 87H163L154 78.9998H119.147C108.147 78.9998 99.1469 88 99.1469 98.9923C99.1469 98.9997 99.1469 99.0072 99.1469 99.0148C99.1469 110 108.147 119 119.147 119C135.71 119 154 119 154 119L163 127H200L208 119H295.147C306 119 315 110 315 99.0075C315 99 315 99.5 315 98.9851Z" fill="#30DCFF"/>
<path fill-rule="evenodd" clip-rule="evenodd" d="M315 98.9888C315 88 306 79 294.853 79C233.025 79 208 79.0001 208 79.0001L200 87H163L154 79.0001H119C108 79.0001 99 88.0001 99 98.9888C99 98.9962 99 99.0001 99 99.0001H104C104 89 111 84.0001 119 84.0001C133.664 84.0001 152 84 152 84L161 92H202L210 84H295C304 84 310 90 310 98.9998L315 99V98.9888Z" fill="white" fill-opacity="0.5"/>
<path fill-rule="evenodd" clip-rule="evenodd" d="M315 99L310 99C310 107.971 304.197 114 295 114C237.995 114 206 114 206 114L198 122H165L156 114H119C108.496 114 104 108 104 99.0014L99 99V99.0112C99 110 108 119 119 119C135.563 119 154 119 154 119L163 127H200L208 119H295C306 119 315 110 315 99Z" fill="black" fill-opacity="0.25"/>
<path d="M110.128 98.6H111.688V107H110.128V98.6ZM117.452 100.52C118.26 100.52 118.908 100.756 119.396 101.228C119.884 101.7 120.128 102.4 120.128 103.328V107H118.628V103.52C118.628 102.96 118.496 102.54 118.232 102.26C117.968 101.972 117.592 101.828 117.104 101.828C116.552 101.828 116.116 101.996 115.796 102.332C115.476 102.66 115.316 103.136 115.316 103.76V107H113.816V100.592H115.244V101.42C115.492 101.124 115.804 100.9 116.18 100.748C116.556 100.596 116.98 100.52 117.452 100.52ZM122.031 100.592H123.531V107H122.031V100.592ZM122.787 99.536C122.515 99.536 122.287 99.452 122.103 99.284C121.919 99.108 121.827 98.892 121.827 98.636C121.827 98.38 121.919 98.168 122.103 98C122.287 97.824 122.515 97.736 122.787 97.736C123.059 97.736 123.287 97.82 123.471 97.988C123.655 98.148 123.747 98.352 123.747 98.6C123.747 98.864 123.655 99.088 123.471 99.272C123.295 99.448 123.067 99.536 122.787 99.536ZM128.44 107.084C127.776 107.084 127.18 106.944 126.652 106.664C126.124 106.384 125.712 105.996 125.416 105.5C125.12 104.996 124.972 104.428 124.972 103.796C124.972 103.164 125.12 102.6 125.416 102.104C125.712 101.608 126.12 101.22 126.64 100.94C127.168 100.66 127.768 100.52 128.44 100.52C129.072 100.52 129.624 100.648 130.096 100.904C130.576 101.16 130.936 101.528 131.176 102.008L130.024 102.68C129.84 102.384 129.608 102.164 129.328 102.02C129.056 101.868 128.756 101.792 128.428 101.792C127.868 101.792 127.404 101.976 127.036 102.344C126.668 102.704 126.484 103.188 126.484 103.796C126.484 104.404 126.664 104.892 127.024 105.26C127.392 105.62 127.86 105.8 128.428 105.8C128.756 105.8 129.056 105.728 129.328 105.584C129.608 105.432 129.84 105.208 130.024 104.912L131.176 105.584C130.928 106.064 130.564 106.436 130.084 106.7C129.612 106.956 129.064 107.084 128.44 107.084ZM132.472 100.592H133.972V107H132.472V100.592ZM133.228 99.536C132.956 99.536 132.728 99.452 132.544 99.284C132.36 99.108 132.268 98.892 132.268 98.636C132.268 98.38 132.36 98.168 132.544 98C132.728 97.824 132.956 97.736 133.228 97.736C133.5 97.736 133.728 97.82 133.912 97.988C134.096 98.148 134.188 98.352 134.188 98.6C134.188 98.864 134.096 99.088 133.912 99.272C133.736 99.448 133.508 99.536 133.228 99.536ZM138.389 100.52C139.333 100.52 140.053 100.748 140.549 101.204C141.053 101.652 141.305 102.332 141.305 103.244V107H139.889V106.22C139.705 106.5 139.441 106.716 139.097 106.868C138.761 107.012 138.353 107.084 137.873 107.084C137.393 107.084 136.973 107.004 136.613 106.844C136.253 106.676 135.973 106.448 135.773 106.16C135.581 105.864 135.485 105.532 135.485 105.164C135.485 104.588 135.697 104.128 136.121 103.784C136.553 103.432 137.229 103.256 138.149 103.256H139.805V103.16C139.805 102.712 139.669 102.368 139.397 102.128C139.133 101.888 138.737 101.768 138.209 101.768C137.849 101.768 137.493 101.824 137.141 101.936C136.797 102.048 136.505 102.204 136.265 102.404L135.677 101.312C136.013 101.056 136.417 100.86 136.889 100.724C137.361 100.588 137.861 100.52 138.389 100.52ZM138.185 105.992C138.561 105.992 138.893 105.908 139.181 105.74C139.477 105.564 139.685 105.316 139.805 104.996V104.252H138.257C137.393 104.252 136.961 104.536 136.961 105.104C136.961 105.376 137.069 105.592 137.285 105.752C137.501 105.912 137.801 105.992 138.185 105.992ZM144.658 101.528C145.09 100.856 145.85 100.52 146.938 100.52V101.948C146.81 101.924 146.694 101.912 146.59 101.912C146.006 101.912 145.55 102.084 145.222 102.428C144.894 102.764 144.73 103.252 144.73 103.892V107H143.23V100.592H144.658V101.528ZM157.61 103.832C157.61 103.936 157.602 104.084 157.586 104.276H152.558C152.646 104.748 152.874 105.124 153.242 105.404C153.618 105.676 154.082 105.812 154.634 105.812C155.338 105.812 155.918 105.58 156.374 105.116L157.178 106.04C156.89 106.384 156.526 106.644 156.086 106.82C155.646 106.996 155.15 107.084 154.598 107.084C153.894 107.084 153.274 106.944 152.738 106.664C152.202 106.384 151.786 105.996 151.49 105.5C151.202 104.996 151.058 104.428 151.058 103.796C151.058 103.172 151.198 102.612 151.478 102.116C151.766 101.612 152.162 101.22 152.666 100.94C153.17 100.66 153.738 100.52 154.37 100.52C154.994 100.52 155.55 100.66 156.038 100.94C156.534 101.212 156.918 101.6 157.19 102.104C157.47 102.6 157.61 103.176 157.61 103.832ZM154.37 101.72C153.89 101.72 153.482 101.864 153.146 102.152C152.818 102.432 152.618 102.808 152.546 103.28H156.182C156.118 102.816 155.922 102.44 155.594 102.152C155.266 101.864 154.858 101.72 154.37 101.72ZM159.05 98.096H160.55V107H159.05V98.096ZM171.86 103.832C171.86 103.936 171.852 104.084 171.836 104.276H166.808C166.896 104.748 167.124 105.124 167.492 105.404C167.868 105.676 168.332 105.812 168.884 105.812C169.588 105.812 170.168 105.58 170.624 105.116L171.428 106.04C171.14 106.384 170.776 106.644 170.336 106.82C169.896 106.996 169.4 107.084 168.848 107.084C168.144 107.084 167.524 106.944 166.988 106.664C166.452 106.384 166.036 105.996 165.74 105.5C165.452 104.996 165.308 104.428 165.308 103.796C165.308 103.172 165.448 102.612 165.728 102.116C166.016 101.612 166.412 101.22 166.916 100.94C167.42 100.66 167.988 100.52 168.62 100.52C169.244 100.52 169.8 100.66 170.288 100.94C170.784 101.212 171.168 101.6 171.44 102.104C171.72 102.6 171.86 103.176 171.86 103.832ZM168.62 101.72C168.14 101.72 167.732 101.864 167.396 102.152C167.068 102.432 166.868 102.808 166.796 103.28H170.432C170.368 102.816 170.172 102.44 169.844 102.152C169.516 101.864 169.108 101.72 168.62 101.72ZM177.205 107L175.561 104.78L173.905 107H172.249L174.745 103.748L172.357 100.592H174.025L175.597 102.692L177.169 100.592H178.789L176.389 103.724L178.897 107H177.205ZM183.556 100.52C184.18 100.52 184.736 100.656 185.224 100.928C185.72 101.2 186.108 101.584 186.388 102.08C186.668 102.576 186.808 103.148 186.808 103.796C186.808 104.444 186.668 105.02 186.388 105.524C186.108 106.02 185.72 106.404 185.224 106.676C184.736 106.948 184.18 107.084 183.556 107.084C182.692 107.084 182.008 106.796 181.504 106.22V109.328H180.004V100.592H181.432V101.432C181.68 101.128 181.984 100.9 182.344 100.748C182.712 100.596 183.116 100.52 183.556 100.52ZM183.388 105.8C183.94 105.8 184.392 105.616 184.744 105.248C185.104 104.88 185.284 104.396 185.284 103.796C185.284 103.196 185.104 102.712 184.744 102.344C184.392 101.976 183.94 101.792 183.388 101.792C183.028 101.792 182.704 101.876 182.416 102.044C182.128 102.204 181.9 102.436 181.732 102.74C181.564 103.044 181.48 103.396 181.48 103.796C181.48 104.196 181.564 104.548 181.732 104.852C181.9 105.156 182.128 105.392 182.416 105.56C182.704 105.72 183.028 105.8 183.388 105.8ZM188.23 98.096H189.73V107H188.23V98.096ZM194.579 107.084C193.931 107.084 193.347 106.944 192.827 106.664C192.307 106.384 191.899 105.996 191.603 105.5C191.315 104.996 191.171 104.428 191.171 103.796C191.171 103.164 191.315 102.6 191.603 102.104C191.899 101.608 192.307 101.22 192.827 100.94C193.347 100.66 193.931 100.52 194.579 100.52C195.235 100.52 195.823 100.66 196.343 100.94C196.863 101.22 197.267 101.608 197.555 102.104C197.851 102.6 197.999 103.164 197.999 103.796C197.999 104.428 197.851 104.996 197.555 105.5C197.267 105.996 196.863 106.384 196.343 106.664C195.823 106.944 195.235 107.084 194.579 107.084ZM194.579 105.8C195.131 105.8 195.587 105.616 195.947 105.248C196.307 104.88 196.487 104.396 196.487 103.796C196.487 103.196 196.307 102.712 195.947 102.344C195.587 101.976 195.131 101.792 194.579 101.792C194.027 101.792 193.571 101.976 193.211 102.344C192.859 102.712 192.683 103.196 192.683 103.796C192.683 104.396 192.859 104.88 193.211 105.248C193.571 105.616 194.027 105.8 194.579 105.8ZM200.861 101.528C201.293 100.856 202.053 100.52 203.141 100.52V101.948C203.013 101.924 202.897 101.912 202.793 101.912C202.209 101.912 201.753 102.084 201.425 102.428C201.097 102.764 200.933 103.252 200.933 103.892V107H199.433V100.592H200.861V101.528ZM206.827 100.52C207.771 100.52 208.491 100.748 208.987 101.204C209.491 101.652 209.743 102.332 209.743 103.244V107H208.327V106.22C208.143 106.5 207.879 106.716 207.535 106.868C207.199 107.012 206.791 107.084 206.311 107.084C205.831 107.084 205.411 107.004 205.051 106.844C204.691 106.676 204.411 106.448 204.211 106.16C204.019 105.864 203.923 105.532 203.923 105.164C203.923 104.588 204.135 104.128 204.559 103.784C204.991 103.432 205.667 103.256 206.587 103.256H208.243V103.16C208.243 102.712 208.107 102.368 207.835 102.128C207.571 101.888 207.175 101.768 206.647 101.768C206.287 101.768 205.931 101.824 205.579 101.936C205.235 102.048 204.943 102.204 204.703 102.404L204.115 101.312C204.451 101.056 204.855 100.86 205.327 100.724C205.799 100.588 206.299 100.52 206.827 100.52ZM206.623 105.992C206.999 105.992 207.331 105.908 207.619 105.74C207.915 105.564 208.123 105.316 208.243 104.996V104.252H206.695C205.831 104.252 205.399 104.536 205.399 105.104C205.399 105.376 205.507 105.592 205.723 105.752C205.939 105.912 206.239 105.992 206.623 105.992ZM218.002 98.096V107H216.562V106.172C216.314 106.476 216.006 106.704 215.638 106.856C215.278 107.008 214.878 107.084 214.438 107.084C213.822 107.084 213.266 106.948 212.77 106.676C212.282 106.404 211.898 106.02 211.618 105.524C211.338 105.02 211.198 104.444 211.198 103.796C211.198 103.148 211.338 102.576 211.618 102.08C211.898 101.584 212.282 101.2 212.77 100.928C213.266 100.656 213.822 100.52 214.438 100.52C214.862 100.52 215.25 100.592 215.602 100.736C215.954 100.88 216.254 101.096 216.502 101.384V98.096H218.002ZM214.618 105.8C214.978 105.8 215.302 105.72 215.59 105.56C215.878 105.392 216.106 105.156 216.274 104.852C216.442 104.548 216.526 104.196 216.526 103.796C216.526 103.396 216.442 103.044 216.274 102.74C216.106 102.436 215.878 102.204 215.59 102.044C215.302 101.876 214.978 101.792 214.618 101.792C214.258 101.792 213.934 101.876 213.646 102.044C213.358 102.204 213.13 102.436 212.962 102.74C212.794 103.044 212.71 103.396 212.71 103.796C212.71 104.196 212.794 104.548 212.962 104.852C213.13 105.156 213.358 105.392 213.646 105.56C213.934 105.72 214.258 105.8 214.618 105.8ZM222.844 107.084C222.196 107.084 221.612 106.944 221.092 106.664C220.572 106.384 220.164 105.996 219.868 105.5C219.58 104.996 219.436 104.428 219.436 103.796C219.436 103.164 219.58 102.6 219.868 102.104C220.164 101.608 220.572 101.22 221.092 100.94C221.612 100.66 222.196 100.52 222.844 100.52C223.5 100.52 224.088 100.66 224.608 100.94C225.128 101.22 225.532 101.608 225.82 102.104C226.116 102.6 226.264 103.164 226.264 103.796C226.264 104.428 226.116 104.996 225.82 105.5C225.532 105.996 225.128 106.384 224.608 106.664C224.088 106.944 223.5 107.084 222.844 107.084ZM222.844 105.8C223.396 105.8 223.852 105.616 224.212 105.248C224.572 104.88 224.752 104.396 224.752 103.796C224.752 103.196 224.572 102.712 224.212 102.344C223.852 101.976 223.396 101.792 222.844 101.792C222.292 101.792 221.836 101.976 221.476 102.344C221.124 102.712 220.948 103.196 220.948 103.796C220.948 104.396 221.124 104.88 221.476 105.248C221.836 105.616 222.292 105.8 222.844 105.8ZM229.127 101.528C229.559 100.856 230.319 100.52 231.407 100.52V101.948C231.279 101.924 231.163 101.912 231.059 101.912C230.475 101.912 230.019 102.084 229.691 102.428C229.363 102.764 229.199 103.252 229.199 103.892V107H227.699V100.592H229.127V101.528Z" fill="#333333"/>
<path fill-rule="evenodd" clip-rule="evenodd" d="M315 137.985C315 127 306 117.993 295 117.993C233.172 117.993 208 118 208 118L200 126H163L154 118H119.147C108.147 118 99.1469 127 99.1469 137.992C99.1469 138 99.1469 138.007 99.1469 138.015C99.1469 149 108.147 158 119.147 158C135.71 158 154 158 154 158L163 166H200L208 158H295.147C306 158 315 149 315 138.008C315 138 315 138.5 315 137.985Z" fill="#30DCFF"/>
<path fill-rule="evenodd" clip-rule="evenodd" d="M315 137.989C315 127 306 118 294.853 118C233.025 118 208 118 208 118L200 126H163L154 118H119C108 118 99 127 99 137.989C99 137.996 99 138 99 138H104C104 128 111 123 119 123C133.664 123 152 123 152 123L161 131H202L210 123H295C304 123 310 129 310 138L315 138V137.989Z" fill="white" fill-opacity="0.5"/>
<path fill-rule="evenodd" clip-rule="evenodd" d="M315 138L310 138C310 146.971 304.197 153 295 153C237.995 153 206 153 206 153L198 161H165L156 153H119C108.496 153 104 147 104 138.001L99 138V138.011C99 149 108 158 119 158C135.563 158 154 158 154 158L163 166H200L208 158H295C306 158 315 149 315 138Z" fill="black" fill-opacity="0.25"/>
<path d="M110.128 137.6H111.688V146H110.128V137.6ZM117.452 139.52C118.26 139.52 118.908 139.756 119.396 140.228C119.884 140.7 120.128 141.4 120.128 142.328V146H118.628V142.52C118.628 141.96 118.496 141.54 118.232 141.26C117.968 140.972 117.592 140.828 117.104 140.828C116.552 140.828 116.116 140.996 115.796 141.332C115.476 141.66 115.316 142.136 115.316 142.76V146H113.816V139.592H115.244V140.42C115.492 140.124 115.804 139.9 116.18 139.748C116.556 139.596 116.98 139.52 117.452 139.52ZM128.449 139.592V145.028C128.449 147.284 127.297 148.412 124.993 148.412C124.377 148.412 123.793 148.332 123.241 148.172C122.689 148.02 122.233 147.796 121.873 147.5L122.545 146.372C122.825 146.604 123.177 146.788 123.601 146.924C124.033 147.068 124.469 147.14 124.909 147.14C125.613 147.14 126.129 146.98 126.457 146.66C126.785 146.34 126.949 145.852 126.949 145.196V144.86C126.693 145.14 126.381 145.352 126.013 145.496C125.645 145.64 125.241 145.712 124.801 145.712C124.193 145.712 123.641 145.584 123.145 145.328C122.657 145.064 122.269 144.696 121.981 144.224C121.701 143.752 121.561 143.212 121.561 142.604C121.561 141.996 121.701 141.46 121.981 140.996C122.269 140.524 122.657 140.16 123.145 139.904C123.641 139.648 124.193 139.52 124.801 139.52C125.265 139.52 125.685 139.596 126.061 139.748C126.445 139.9 126.765 140.132 127.021 140.444V139.592H128.449ZM125.029 144.44C125.597 144.44 126.061 144.272 126.421 143.936C126.789 143.592 126.973 143.148 126.973 142.604C126.973 142.068 126.789 141.632 126.421 141.296C126.061 140.96 125.597 140.792 125.029 140.792C124.453 140.792 123.981 140.96 123.613 141.296C123.253 141.632 123.073 142.068 123.073 142.604C123.073 143.148 123.253 143.592 123.613 143.936C123.981 144.272 124.453 144.44 125.029 144.44ZM131.85 140.528C132.282 139.856 133.042 139.52 134.13 139.52V140.948C134.002 140.924 133.886 140.912 133.782 140.912C133.198 140.912 132.742 141.084 132.414 141.428C132.086 141.764 131.922 142.252 131.922 142.892V146H130.422V139.592H131.85V140.528ZM141.367 142.832C141.367 142.936 141.359 143.084 141.343 143.276H136.315C136.403 143.748 136.631 144.124 136.999 144.404C137.375 144.676 137.839 144.812 138.391 144.812C139.095 144.812 139.675 144.58 140.131 144.116L140.935 145.04C140.647 145.384 140.283 145.644 139.843 145.82C139.403 145.996 138.907 146.084 138.355 146.084C137.651 146.084 137.031 145.944 136.495 145.664C135.959 145.384 135.543 144.996 135.247 144.5C134.959 143.996 134.815 143.428 134.815 142.796C134.815 142.172 134.955 141.612 135.235 141.116C135.523 140.612 135.919 140.22 136.423 139.94C136.927 139.66 137.495 139.52 138.127 139.52C138.751 139.52 139.307 139.66 139.795 139.94C140.291 140.212 140.675 140.6 140.947 141.104C141.227 141.6 141.367 142.176 141.367 142.832ZM138.127 140.72C137.647 140.72 137.239 140.864 136.903 141.152C136.575 141.432 136.375 141.808 136.303 142.28H139.939C139.875 141.816 139.679 141.44 139.351 141.152C139.023 140.864 138.615 140.72 138.127 140.72ZM144.788 146.084C144.268 146.084 143.76 146.016 143.264 145.88C142.768 145.744 142.372 145.572 142.076 145.364L142.652 144.224C142.94 144.416 143.284 144.572 143.684 144.692C144.092 144.804 144.492 144.86 144.884 144.86C145.78 144.86 146.228 144.624 146.228 144.152C146.228 143.928 146.112 143.772 145.88 143.684C145.656 143.596 145.292 143.512 144.788 143.432C144.26 143.352 143.828 143.26 143.492 143.156C143.164 143.052 142.876 142.872 142.628 142.616C142.388 142.352 142.268 141.988 142.268 141.524C142.268 140.916 142.52 140.432 143.024 140.072C143.536 139.704 144.224 139.52 145.088 139.52C145.528 139.52 145.968 139.572 146.408 139.676C146.848 139.772 147.208 139.904 147.488 140.072L146.912 141.212C146.368 140.892 145.756 140.732 145.076 140.732C144.636 140.732 144.3 140.8 144.068 140.936C143.844 141.064 143.732 141.236 143.732 141.452C143.732 141.692 143.852 141.864 144.092 141.968C144.34 142.064 144.72 142.156 145.232 142.244C145.744 142.324 146.164 142.416 146.492 142.52C146.82 142.624 147.1 142.8 147.332 143.048C147.572 143.296 147.692 143.648 147.692 144.104C147.692 144.704 147.432 145.184 146.912 145.544C146.392 145.904 145.684 146.084 144.788 146.084ZM151.432 139.52C152.376 139.52 153.096 139.748 153.592 140.204C154.096 140.652 154.348 141.332 154.348 142.244V146H152.932V145.22C152.748 145.5 152.484 145.716 152.14 145.868C151.804 146.012 151.396 146.084 150.916 146.084C150.436 146.084 150.016 146.004 149.656 145.844C149.296 145.676 149.016 145.448 148.816 145.16C148.624 144.864 148.528 144.532 148.528 144.164C148.528 143.588 148.74 143.128 149.164 142.784C149.596 142.432 150.272 142.256 151.192 142.256H152.848V142.16C152.848 141.712 152.712 141.368 152.44 141.128C152.176 140.888 151.78 140.768 151.252 140.768C150.892 140.768 150.536 140.824 150.184 140.936C149.84 141.048 149.548 141.204 149.308 141.404L148.72 140.312C149.056 140.056 149.46 139.86 149.932 139.724C150.404 139.588 150.904 139.52 151.432 139.52ZM151.228 144.992C151.604 144.992 151.936 144.908 152.224 144.74C152.52 144.564 152.728 144.316 152.848 143.996V143.252H151.3C150.436 143.252 150.004 143.536 150.004 144.104C150.004 144.376 150.112 144.592 150.328 144.752C150.544 144.912 150.844 144.992 151.228 144.992ZM157.701 140.528C158.133 139.856 158.893 139.52 159.981 139.52V140.948C159.853 140.924 159.737 140.912 159.633 140.912C159.049 140.912 158.593 141.084 158.265 141.428C157.937 141.764 157.773 142.252 157.773 142.892V146H156.273V139.592H157.701V140.528ZM167.077 139.52C168.021 139.52 168.741 139.748 169.237 140.204C169.741 140.652 169.993 141.332 169.993 142.244V146H168.577V145.22C168.393 145.5 168.129 145.716 167.785 145.868C167.449 146.012 167.041 146.084 166.561 146.084C166.081 146.084 165.661 146.004 165.301 145.844C164.941 145.676 164.661 145.448 164.461 145.16C164.269 144.864 164.173 144.532 164.173 144.164C164.173 143.588 164.385 143.128 164.809 142.784C165.241 142.432 165.917 142.256 166.837 142.256H168.493V142.16C168.493 141.712 168.357 141.368 168.085 141.128C167.821 140.888 167.425 140.768 166.897 140.768C166.537 140.768 166.181 140.824 165.829 140.936C165.485 141.048 165.193 141.204 164.953 141.404L164.365 140.312C164.701 140.056 165.105 139.86 165.577 139.724C166.049 139.588 166.549 139.52 167.077 139.52ZM166.873 144.992C167.249 144.992 167.581 144.908 167.869 144.74C168.165 144.564 168.373 144.316 168.493 143.996V143.252H166.945C166.081 143.252 165.649 143.536 165.649 144.104C165.649 144.376 165.757 144.592 165.973 144.752C166.189 144.912 166.489 144.992 166.873 144.992ZM171.918 137.096H173.418V146H171.918V137.096ZM182.255 139.52C182.879 139.52 183.435 139.656 183.923 139.928C184.419 140.2 184.807 140.584 185.087 141.08C185.367 141.576 185.507 142.148 185.507 142.796C185.507 143.444 185.367 144.02 185.087 144.524C184.807 145.02 184.419 145.404 183.923 145.676C183.435 145.948 182.879 146.084 182.255 146.084C181.815 146.084 181.411 146.008 181.043 145.856C180.683 145.704 180.379 145.476 180.131 145.172V146H178.703V137.096H180.203V140.372C180.459 140.092 180.759 139.88 181.103 139.736C181.455 139.592 181.839 139.52 182.255 139.52ZM182.087 144.8C182.639 144.8 183.091 144.616 183.443 144.248C183.803 143.88 183.983 143.396 183.983 142.796C183.983 142.196 183.803 141.712 183.443 141.344C183.091 140.976 182.639 140.792 182.087 140.792C181.727 140.792 181.403 140.876 181.115 141.044C180.827 141.204 180.599 141.436 180.431 141.74C180.263 142.044 180.179 142.396 180.179 142.796C180.179 143.196 180.263 143.548 180.431 143.852C180.599 144.156 180.827 144.392 181.115 144.56C181.403 144.72 181.727 144.8 182.087 144.8ZM193.133 139.592V146H191.705V145.184C191.465 145.472 191.165 145.696 190.805 145.856C190.445 146.008 190.057 146.084 189.641 146.084C188.785 146.084 188.109 145.848 187.613 145.376C187.125 144.896 186.881 144.188 186.881 143.252V139.592H188.381V143.048C188.381 143.624 188.509 144.056 188.765 144.344C189.029 144.624 189.401 144.764 189.881 144.764C190.417 144.764 190.841 144.6 191.153 144.272C191.473 143.936 191.633 143.456 191.633 142.832V139.592H193.133ZM197.077 146.084C196.557 146.084 196.049 146.016 195.553 145.88C195.057 145.744 194.661 145.572 194.365 145.364L194.941 144.224C195.229 144.416 195.573 144.572 195.973 144.692C196.381 144.804 196.781 144.86 197.173 144.86C198.069 144.86 198.517 144.624 198.517 144.152C198.517 143.928 198.401 143.772 198.169 143.684C197.945 143.596 197.581 143.512 197.077 143.432C196.549 143.352 196.117 143.26 195.781 143.156C195.453 143.052 195.165 142.872 194.917 142.616C194.677 142.352 194.557 141.988 194.557 141.524C194.557 140.916 194.809 140.432 195.313 140.072C195.825 139.704 196.513 139.52 197.377 139.52C197.817 139.52 198.257 139.572 198.697 139.676C199.137 139.772 199.497 139.904 199.777 140.072L199.201 141.212C198.657 140.892 198.045 140.732 197.365 140.732C196.925 140.732 196.589 140.8 196.357 140.936C196.133 141.064 196.021 141.236 196.021 141.452C196.021 141.692 196.141 141.864 196.381 141.968C196.629 142.064 197.009 142.156 197.521 142.244C198.033 142.324 198.453 142.416 198.781 142.52C199.109 142.624 199.389 142.8 199.621 143.048C199.861 143.296 199.981 143.648 199.981 144.104C199.981 144.704 199.721 145.184 199.201 145.544C198.681 145.904 197.973 146.084 197.077 146.084ZM204.213 146.084C203.549 146.084 202.953 145.944 202.425 145.664C201.897 145.384 201.485 144.996 201.189 144.5C200.893 143.996 200.745 143.428 200.745 142.796C200.745 142.164 200.893 141.6 201.189 141.104C201.485 140.608 201.893 140.22 202.413 139.94C202.941 139.66 203.541 139.52 204.213 139.52C204.845 139.52 205.397 139.648 205.869 139.904C206.349 140.16 206.709 140.528 206.949 141.008L205.797 141.68C205.613 141.384 205.381 141.164 205.101 141.02C204.829 140.868 204.529 140.792 204.201 140.792C203.641 140.792 203.177 140.976 202.809 141.344C202.441 141.704 202.257 142.188 202.257 142.796C202.257 143.404 202.437 143.892 202.797 144.26C203.165 144.62 203.633 144.8 204.201 144.8C204.529 144.8 204.829 144.728 205.101 144.584C205.381 144.432 205.613 144.208 205.797 143.912L206.949 144.584C206.701 145.064 206.337 145.436 205.857 145.7C205.385 145.956 204.837 146.084 204.213 146.084ZM210.694 139.52C211.638 139.52 212.358 139.748 212.854 140.204C213.358 140.652 213.61 141.332 213.61 142.244V146H212.194V145.22C212.01 145.5 211.746 145.716 211.402 145.868C211.066 146.012 210.658 146.084 210.178 146.084C209.698 146.084 209.278 146.004 208.918 145.844C208.558 145.676 208.278 145.448 208.078 145.16C207.886 144.864 207.79 144.532 207.79 144.164C207.79 143.588 208.002 143.128 208.426 142.784C208.858 142.432 209.534 142.256 210.454 142.256H212.11V142.16C212.11 141.712 211.974 141.368 211.702 141.128C211.438 140.888 211.042 140.768 210.514 140.768C210.154 140.768 209.798 140.824 209.446 140.936C209.102 141.048 208.81 141.204 208.57 141.404L207.982 140.312C208.318 140.056 208.722 139.86 209.194 139.724C209.666 139.588 210.166 139.52 210.694 139.52ZM210.49 144.992C210.866 144.992 211.198 144.908 211.486 144.74C211.782 144.564 211.99 144.316 212.11 143.996V143.252H210.562C209.698 143.252 209.266 143.536 209.266 144.104C209.266 144.376 209.374 144.592 209.59 144.752C209.806 144.912 210.106 144.992 210.49 144.992ZM221.869 137.096V146H220.429V145.172C220.181 145.476 219.873 145.704 219.505 145.856C219.145 146.008 218.745 146.084 218.305 146.084C217.689 146.084 217.133 145.948 216.637 145.676C216.149 145.404 215.765 145.02 215.485 144.524C215.205 144.02 215.065 143.444 215.065 142.796C215.065 142.148 215.205 141.576 215.485 141.08C215.765 140.584 216.149 140.2 216.637 139.928C217.133 139.656 217.689 139.52 218.305 139.52C218.729 139.52 219.117 139.592 219.469 139.736C219.821 139.88 220.121 140.096 220.369 140.384V137.096H221.869ZM218.485 144.8C218.845 144.8 219.169 144.72 219.457 144.56C219.745 144.392 219.973 144.156 220.141 143.852C220.309 143.548 220.393 143.196 220.393 142.796C220.393 142.396 220.309 142.044 220.141 141.74C219.973 141.436 219.745 141.204 219.457 141.044C219.169 140.876 218.845 140.792 218.485 140.792C218.125 140.792 217.801 140.876 217.513 141.044C217.225 141.204 216.997 141.436 216.829 141.74C216.661 142.044 216.577 142.396 216.577 142.796C216.577 143.196 216.661 143.548 216.829 143.852C216.997 144.156 217.225 144.392 217.513 144.56C217.801 144.72 218.125 144.8 218.485 144.8ZM226.712 146.084C226.064 146.084 225.48 145.944 224.96 145.664C224.44 145.384 224.032 144.996 223.736 144.5C223.448 143.996 223.304 143.428 223.304 142.796C223.304 142.164 223.448 141.6 223.736 141.104C224.032 140.608 224.44 140.22 224.96 139.94C225.48 139.66 226.064 139.52 226.712 139.52C227.368 139.52 227.956 139.66 228.476 139.94C228.996 140.22 229.4 140.608 229.688 141.104C229.984 141.6 230.132 142.164 230.132 142.796C230.132 143.428 229.984 143.996 229.688 144.5C229.4 144.996 228.996 145.384 228.476 145.664C227.956 145.944 227.368 146.084 226.712 146.084ZM226.712 144.8C227.264 144.8 227.72 144.616 228.08 144.248C228.44 143.88 228.62 143.396 228.62 142.796C228.62 142.196 228.44 141.712 228.08 141.344C227.72 140.976 227.264 140.792 226.712 140.792C226.16 140.792 225.704 140.976 225.344 141.344C224.992 141.712 224.816 142.196 224.816 142.796C224.816 143.396 224.992 143.88 225.344 144.248C225.704 144.616 226.16 144.8 226.712 144.8ZM232.994 140.528C233.426 139.856 234.186 139.52 235.274 139.52V140.948C235.146 140.924 235.03 140.912 234.926 140.912C234.342 140.912 233.886 141.084 233.558 141.428C233.23 141.764 233.066 142.252 233.066 142.892V146H231.566V139.592H232.994V140.528Z" fill="#333333"/>
<path fill-rule="evenodd" clip-rule="evenodd" d="M315 177.985C315 167 306 157.993 295 157.993C233.172 157.993 208 158 208 158L200 166H163L154 158H119.147C108.147 158 99.1469 167 99.1469 177.992C99.1469 178 99.1469 178.007 99.1469 178.015C99.1469 189 108.147 198 119.147 198C135.71 198 154 198 154 198L163 206H200L208 198H295.147C306 198 315 189 315 178.008C315 178 315 178.5 315 177.985Z" fill="#30DCFF"/>
<path fill-rule="evenodd" clip-rule="evenodd" d="M315 177.989C315 167 306 158 294.853 158C233.025 158 208 158 208 158L200 166H163L154 158H119C108 158 99 167 99 177.989C99 177.996 99 178 99 178H104C104 168 111 163 119 163C133.664 163 152 163 152 163L161 171H202L210 163H295C304 163 310 169 310 178L315 178V177.989Z" fill="white" fill-opacity="0.5"/>
<path fill-rule="evenodd" clip-rule="evenodd" d="M315 178L310 178C310 186.971 304.197 193 295 193C237.995 193 206 193 206 193L198 201H165L156 193H119C108.496 193 104 187 104 178.001L99 178V178.011C99 189 108 198 119 198C135.563 198 154 198 154 198L163 206H200L208 198H295C306 198 315 189 315 178Z" fill="black" fill-opacity="0.25"/>
<path d="M110.128 177.6H111.688V186H110.128V177.6ZM117.452 179.52C118.26 179.52 118.908 179.756 119.396 180.228C119.884 180.7 120.128 181.4 120.128 182.328V186H118.628V182.52C118.628 181.96 118.496 181.54 118.232 181.26C117.968 180.972 117.592 180.828 117.104 180.828C116.552 180.828 116.116 180.996 115.796 181.332C115.476 181.66 115.316 182.136 115.316 182.76V186H113.816V179.592H115.244V180.42C115.492 180.124 115.804 179.9 116.18 179.748C116.556 179.596 116.98 179.52 117.452 179.52ZM128.449 179.592V185.028C128.449 187.284 127.297 188.412 124.993 188.412C124.377 188.412 123.793 188.332 123.241 188.172C122.689 188.02 122.233 187.796 121.873 187.5L122.545 186.372C122.825 186.604 123.177 186.788 123.601 186.924C124.033 187.068 124.469 187.14 124.909 187.14C125.613 187.14 126.129 186.98 126.457 186.66C126.785 186.34 126.949 185.852 126.949 185.196V184.86C126.693 185.14 126.381 185.352 126.013 185.496C125.645 185.64 125.241 185.712 124.801 185.712C124.193 185.712 123.641 185.584 123.145 185.328C122.657 185.064 122.269 184.696 121.981 184.224C121.701 183.752 121.561 183.212 121.561 182.604C121.561 181.996 121.701 181.46 121.981 180.996C122.269 180.524 122.657 180.16 123.145 179.904C123.641 179.648 124.193 179.52 124.801 179.52C125.265 179.52 125.685 179.596 126.061 179.748C126.445 179.9 126.765 180.132 127.021 180.444V179.592H128.449ZM125.029 184.44C125.597 184.44 126.061 184.272 126.421 183.936C126.789 183.592 126.973 183.148 126.973 182.604C126.973 182.068 126.789 181.632 126.421 181.296C126.061 180.96 125.597 180.792 125.029 180.792C124.453 180.792 123.981 180.96 123.613 181.296C123.253 181.632 123.073 182.068 123.073 182.604C123.073 183.148 123.253 183.592 123.613 183.936C123.981 184.272 124.453 184.44 125.029 184.44ZM131.85 180.528C132.282 179.856 133.042 179.52 134.13 179.52V180.948C134.002 180.924 133.886 180.912 133.782 180.912C133.198 180.912 132.742 181.084 132.414 181.428C132.086 181.764 131.922 182.252 131.922 182.892V186H130.422V179.592H131.85V180.528ZM141.367 182.832C141.367 182.936 141.359 183.084 141.343 183.276H136.315C136.403 183.748 136.631 184.124 136.999 184.404C137.375 184.676 137.839 184.812 138.391 184.812C139.095 184.812 139.675 184.58 140.131 184.116L140.935 185.04C140.647 185.384 140.283 185.644 139.843 185.82C139.403 185.996 138.907 186.084 138.355 186.084C137.651 186.084 137.031 185.944 136.495 185.664C135.959 185.384 135.543 184.996 135.247 184.5C134.959 183.996 134.815 183.428 134.815 182.796C134.815 182.172 134.955 181.612 135.235 181.116C135.523 180.612 135.919 180.22 136.423 179.94C136.927 179.66 137.495 179.52 138.127 179.52C138.751 179.52 139.307 179.66 139.795 179.94C140.291 180.212 140.675 180.6 140.947 181.104C141.227 181.6 141.367 182.176 141.367 182.832ZM138.127 180.72C137.647 180.72 137.239 180.864 136.903 181.152C136.575 181.432 136.375 181.808 136.303 182.28H139.939C139.875 181.816 139.679 181.44 139.351 181.152C139.023 180.864 138.615 180.72 138.127 180.72ZM144.788 186.084C144.268 186.084 143.76 186.016 143.264 185.88C142.768 185.744 142.372 185.572 142.076 185.364L142.652 184.224C142.94 184.416 143.284 184.572 143.684 184.692C144.092 184.804 144.492 184.86 144.884 184.86C145.78 184.86 146.228 184.624 146.228 184.152C146.228 183.928 146.112 183.772 145.88 183.684C145.656 183.596 145.292 183.512 144.788 183.432C144.26 183.352 143.828 183.26 143.492 183.156C143.164 183.052 142.876 182.872 142.628 182.616C142.388 182.352 142.268 181.988 142.268 181.524C142.268 180.916 142.52 180.432 143.024 180.072C143.536 179.704 144.224 179.52 145.088 179.52C145.528 179.52 145.968 179.572 146.408 179.676C146.848 179.772 147.208 179.904 147.488 180.072L146.912 181.212C146.368 180.892 145.756 180.732 145.076 180.732C144.636 180.732 144.3 180.8 144.068 180.936C143.844 181.064 143.732 181.236 143.732 181.452C143.732 181.692 143.852 181.864 144.092 181.968C144.34 182.064 144.72 182.156 145.232 182.244C145.744 182.324 146.164 182.416 146.492 182.52C146.82 182.624 147.1 182.8 147.332 183.048C147.572 183.296 147.692 183.648 147.692 184.104C147.692 184.704 147.432 185.184 146.912 185.544C146.392 185.904 145.684 186.084 144.788 186.084ZM151.432 179.52C152.376 179.52 153.096 179.748 153.592 180.204C154.096 180.652 154.348 181.332 154.348 182.244V186H152.932V185.22C152.748 185.5 152.484 185.716 152.14 185.868C151.804 186.012 151.396 186.084 150.916 186.084C150.436 186.084 150.016 186.004 149.656 185.844C149.296 185.676 149.016 185.448 148.816 185.16C148.624 184.864 148.528 184.532 148.528 184.164C148.528 183.588 148.74 183.128 149.164 182.784C149.596 182.432 150.272 182.256 151.192 182.256H152.848V182.16C152.848 181.712 152.712 181.368 152.44 181.128C152.176 180.888 151.78 180.768 151.252 180.768C150.892 180.768 150.536 180.824 150.184 180.936C149.84 181.048 149.548 181.204 149.308 181.404L148.72 180.312C149.056 180.056 149.46 179.86 149.932 179.724C150.404 179.588 150.904 179.52 151.432 179.52ZM151.228 184.992C151.604 184.992 151.936 184.908 152.224 184.74C152.52 184.564 152.728 184.316 152.848 183.996V183.252H151.3C150.436 183.252 150.004 183.536 150.004 184.104C150.004 184.376 150.112 184.592 150.328 184.752C150.544 184.912 150.844 184.992 151.228 184.992ZM157.701 180.528C158.133 179.856 158.893 179.52 159.981 179.52V180.948C159.853 180.924 159.737 180.912 159.633 180.912C159.049 180.912 158.593 181.084 158.265 181.428C157.937 181.764 157.773 182.252 157.773 182.892V186H156.273V179.592H157.701V180.528ZM168.265 179.52C169.073 179.52 169.721 179.756 170.209 180.228C170.697 180.7 170.941 181.4 170.941 182.328V186H169.441V182.52C169.441 181.96 169.309 181.54 169.045 181.26C168.781 180.972 168.405 180.828 167.917 180.828C167.365 180.828 166.929 180.996 166.609 181.332C166.289 181.66 166.129 182.136 166.129 182.76V186H164.629V179.592H166.057V180.42C166.305 180.124 166.617 179.9 166.993 179.748C167.369 179.596 167.793 179.52 168.265 179.52ZM175.782 186.084C175.134 186.084 174.55 185.944 174.03 185.664C173.51 185.384 173.102 184.996 172.806 184.5C172.518 183.996 172.374 183.428 172.374 182.796C172.374 182.164 172.518 181.6 172.806 181.104C173.102 180.608 173.51 180.22 174.03 179.94C174.55 179.66 175.134 179.52 175.782 179.52C176.438 179.52 177.026 179.66 177.546 179.94C178.066 180.22 178.47 180.608 178.758 181.104C179.054 181.6 179.202 182.164 179.202 182.796C179.202 183.428 179.054 183.996 178.758 184.5C178.47 184.996 178.066 185.384 177.546 185.664C177.026 185.944 176.438 186.084 175.782 186.084ZM175.782 184.8C176.334 184.8 176.79 184.616 177.15 184.248C177.51 183.88 177.69 183.396 177.69 182.796C177.69 182.196 177.51 181.712 177.15 181.344C176.79 180.976 176.334 180.792 175.782 180.792C175.23 180.792 174.774 180.976 174.414 181.344C174.062 181.712 173.886 182.196 173.886 182.796C173.886 183.396 174.062 183.88 174.414 184.248C174.774 184.616 175.23 184.8 175.782 184.8ZM188.724 179.52C189.532 179.52 190.172 179.756 190.644 180.228C191.116 180.692 191.352 181.392 191.352 182.328V186H189.852V182.52C189.852 181.96 189.728 181.54 189.48 181.26C189.232 180.972 188.876 180.828 188.412 180.828C187.908 180.828 187.504 180.996 187.2 181.332C186.896 181.66 186.744 182.132 186.744 182.748V186H185.244V182.52C185.244 181.96 185.12 181.54 184.872 181.26C184.624 180.972 184.268 180.828 183.804 180.828C183.292 180.828 182.884 180.992 182.58 181.32C182.284 181.648 182.136 182.124 182.136 182.748V186H180.636V179.592H182.064V180.408C182.304 180.12 182.604 179.9 182.964 179.748C183.324 179.596 183.724 179.52 184.164 179.52C184.644 179.52 185.068 179.612 185.436 179.796C185.812 179.972 186.108 180.236 186.324 180.588C186.588 180.252 186.928 179.992 187.344 179.808C187.76 179.616 188.22 179.52 188.724 179.52ZM196.821 179.52C197.445 179.52 198.001 179.656 198.489 179.928C198.985 180.2 199.373 180.584 199.653 181.08C199.933 181.576 200.073 182.148 200.073 182.796C200.073 183.444 199.933 184.02 199.653 184.524C199.373 185.02 198.985 185.404 198.489 185.676C198.001 185.948 197.445 186.084 196.821 186.084C196.381 186.084 195.977 186.008 195.609 185.856C195.249 185.704 194.945 185.476 194.697 185.172V186H193.269V177.096H194.769V180.372C195.025 180.092 195.325 179.88 195.669 179.736C196.021 179.592 196.405 179.52 196.821 179.52ZM196.653 184.8C197.205 184.8 197.657 184.616 198.009 184.248C198.369 183.88 198.549 183.396 198.549 182.796C198.549 182.196 198.369 181.712 198.009 181.344C197.657 180.976 197.205 180.792 196.653 180.792C196.293 180.792 195.969 180.876 195.681 181.044C195.393 181.204 195.165 181.436 194.997 181.74C194.829 182.044 194.745 182.396 194.745 182.796C194.745 183.196 194.829 183.548 194.997 183.852C195.165 184.156 195.393 184.392 195.681 184.56C195.969 184.72 196.293 184.8 196.653 184.8ZM202.924 180.528C203.356 179.856 204.116 179.52 205.204 179.52V180.948C205.076 180.924 204.96 180.912 204.856 180.912C204.272 180.912 203.816 181.084 203.488 181.428C203.16 181.764 202.996 182.252 202.996 182.892V186H201.496V179.592H202.924V180.528ZM212.442 182.832C212.442 182.936 212.434 183.084 212.418 183.276H207.39C207.478 183.748 207.706 184.124 208.074 184.404C208.45 184.676 208.914 184.812 209.466 184.812C210.17 184.812 210.75 184.58 211.206 184.116L212.01 185.04C211.722 185.384 211.358 185.644 210.918 185.82C210.478 185.996 209.982 186.084 209.43 186.084C208.726 186.084 208.106 185.944 207.57 185.664C207.034 185.384 206.618 184.996 206.322 184.5C206.034 183.996 205.89 183.428 205.89 182.796C205.89 182.172 206.03 181.612 206.31 181.116C206.598 180.612 206.994 180.22 207.498 179.94C208.002 179.66 208.57 179.52 209.202 179.52C209.826 179.52 210.382 179.66 210.87 179.94C211.366 180.212 211.75 180.6 212.022 181.104C212.302 181.6 212.442 182.176 212.442 182.832ZM209.202 180.72C208.722 180.72 208.314 180.864 207.978 181.152C207.65 181.432 207.45 181.808 207.378 182.28H211.014C210.95 181.816 210.754 181.44 210.426 181.152C210.098 180.864 209.69 180.72 209.202 180.72ZM223.475 177.096V186H222.035V185.172C221.787 185.476 221.479 185.704 221.111 185.856C220.751 186.008 220.351 186.084 219.911 186.084C219.295 186.084 218.739 185.948 218.243 185.676C217.755 185.404 217.371 185.02 217.091 184.524C216.811 184.02 216.671 183.444 216.671 182.796C216.671 182.148 216.811 181.576 217.091 181.08C217.371 180.584 217.755 180.2 218.243 179.928C218.739 179.656 219.295 179.52 219.911 179.52C220.335 179.52 220.723 179.592 221.075 179.736C221.427 179.88 221.727 180.096 221.975 180.384V177.096H223.475ZM220.091 184.8C220.451 184.8 220.775 184.72 221.063 184.56C221.351 184.392 221.579 184.156 221.747 183.852C221.915 183.548 221.999 183.196 221.999 182.796C221.999 182.396 221.915 182.044 221.747 181.74C221.579 181.436 221.351 181.204 221.063 181.044C220.775 180.876 220.451 180.792 220.091 180.792C219.731 180.792 219.407 180.876 219.119 181.044C218.831 181.204 218.603 181.436 218.435 181.74C218.267 182.044 218.183 182.396 218.183 182.796C218.183 183.196 218.267 183.548 218.435 183.852C218.603 184.156 218.831 184.392 219.119 184.56C219.407 184.72 219.731 184.8 220.091 184.8ZM231.461 182.832C231.461 182.936 231.453 183.084 231.437 183.276H226.409C226.497 183.748 226.725 184.124 227.093 184.404C227.469 184.676 227.933 184.812 228.485 184.812C229.189 184.812 229.769 184.58 230.225 184.116L231.029 185.04C230.741 185.384 230.377 185.644 229.937 185.82C229.497 185.996 229.001 186.084 228.449 186.084C227.745 186.084 227.125 185.944 226.589 185.664C226.053 185.384 225.637 184.996 225.341 184.5C225.053 183.996 224.909 183.428 224.909 182.796C224.909 182.172 225.049 181.612 225.329 181.116C225.617 180.612 226.013 180.22 226.517 179.94C227.021 179.66 227.589 179.52 228.221 179.52C228.845 179.52 229.401 179.66 229.889 179.94C230.385 180.212 230.769 180.6 231.041 181.104C231.321 181.6 231.461 182.176 231.461 182.832ZM228.221 180.72C227.741 180.72 227.333 180.864 226.997 181.152C226.669 181.432 226.469 181.808 226.397 182.28H230.033C229.969 181.816 229.773 181.44 229.445 181.152C229.117 180.864 228.709 180.72 228.221 180.72ZM232.902 177.096H234.402V186H232.902V177.096ZM242.135 179.52C243.079 179.52 243.799 179.748 244.295 180.204C244.799 180.652 245.051 181.332 245.051 182.244V186H243.635V185.22C243.451 185.5 243.187 185.716 242.843 185.868C242.507 186.012 242.099 186.084 241.619 186.084C241.139 186.084 240.719 186.004 240.359 185.844C239.999 185.676 239.719 185.448 239.519 185.16C239.327 184.864 239.231 184.532 239.231 184.164C239.231 183.588 239.443 183.128 239.867 182.784C240.299 182.432 240.975 182.256 241.895 182.256H243.551V182.16C243.551 181.712 243.415 181.368 243.143 181.128C242.879 180.888 242.483 180.768 241.955 180.768C241.595 180.768 241.239 180.824 240.887 180.936C240.543 181.048 240.251 181.204 240.011 181.404L239.423 180.312C239.759 180.056 240.163 179.86 240.635 179.724C241.107 179.588 241.607 179.52 242.135 179.52ZM241.931 184.992C242.307 184.992 242.639 184.908 242.927 184.74C243.223 184.564 243.431 184.316 243.551 183.996V183.252H242.003C241.139 183.252 240.707 183.536 240.707 184.104C240.707 184.376 240.815 184.592 241.031 184.752C241.247 184.912 241.547 184.992 241.931 184.992ZM253.18 179.592V186H251.752V185.184C251.512 185.472 251.212 185.696 250.852 185.856C250.492 186.008 250.104 186.084 249.688 186.084C248.832 186.084 248.156 185.848 247.66 185.376C247.172 184.896 246.928 184.188 246.928 183.252V179.592H248.428V183.048C248.428 183.624 248.556 184.056 248.812 184.344C249.076 184.624 249.448 184.764 249.928 184.764C250.464 184.764 250.888 184.6 251.2 184.272C251.52 183.936 251.68 183.456 251.68 182.832V179.592H253.18ZM258.996 185.652C258.82 185.796 258.604 185.904 258.348 185.976C258.1 186.048 257.836 186.084 257.556 186.084C256.852 186.084 256.308 185.9 255.924 185.532C255.54 185.164 255.348 184.628 255.348 183.924V180.84H254.292V179.64H255.348V178.176H256.848V179.64H258.564V180.84H256.848V183.888C256.848 184.2 256.924 184.44 257.076 184.608C257.228 184.768 257.448 184.848 257.736 184.848C258.072 184.848 258.352 184.76 258.576 184.584L258.996 185.652ZM262.899 186.084C262.251 186.084 261.667 185.944 261.147 185.664C260.627 185.384 260.219 184.996 259.923 184.5C259.635 183.996 259.491 183.428 259.491 182.796C259.491 182.164 259.635 181.6 259.923 181.104C260.219 180.608 260.627 180.22 261.147 179.94C261.667 179.66 262.251 179.52 262.899 179.52C263.555 179.52 264.143 179.66 264.663 179.94C265.183 180.22 265.587 180.608 265.875 181.104C266.171 181.6 266.319 182.164 266.319 182.796C266.319 183.428 266.171 183.996 265.875 184.5C265.587 184.996 265.183 185.384 264.663 185.664C264.143 185.944 263.555 186.084 262.899 186.084ZM262.899 184.8C263.451 184.8 263.907 184.616 264.267 184.248C264.627 183.88 264.807 183.396 264.807 182.796C264.807 182.196 264.627 181.712 264.267 181.344C263.907 180.976 263.451 180.792 262.899 180.792C262.347 180.792 261.891 180.976 261.531 181.344C261.179 181.712 261.003 182.196 261.003 182.796C261.003 183.396 261.179 183.88 261.531 184.248C261.891 184.616 262.347 184.8 262.899 184.8ZM269.182 180.528C269.614 179.856 270.374 179.52 271.462 179.52V180.948C271.334 180.924 271.218 180.912 271.114 180.912C270.53 180.912 270.074 181.084 269.746 181.428C269.418 181.764 269.254 182.252 269.254 182.892V186H267.754V179.592H269.182V180.528Z" fill="#333333"/>
<path fill-rule="evenodd" clip-rule="evenodd" d="M315 61C315 50 308 43 297 43C257.917 43 282.045 43 254 43C246.27 43 242.785 40.7635 238.5 36.5C229.193 27.8197 205.783 14 154.427 14C82.0243 14 65 43 65 43C65 43 65.0004 47.7195 65.0006 61C65.0006 71 73 79 83 79C109.488 79 154 79 154 79L163 87H200L208 79C208 79 242.031 79 297 79C308 79 315 72 315 61C315 58.1323 315 62.8675 315 61Z" fill="#FC79FF"/>
<path fill-rule="evenodd" clip-rule="evenodd" d="M310 61C310 69 306 74 297 74L206 73.9999L198 82H165L156 73.9999C156 73.9999 108.393 73.9999 83.0001 73.9999C74.9643 73.9999 70 68 70 61H65C65 71 73 79 83.0001 79C109.441 79 154 79 154 79L163.027 87H200L208 79L297 79C308 79 315 72 315 61C313.5 61 312 60.9999 310 61Z" fill="black" fill-opacity="0.25"/>
<path fill-rule="evenodd" clip-rule="evenodd" d="M64.9999 61H69.9999V45C69.9999 45 84.9929 19 154.286 19C201.342 19 225.557 31.6452 235.5 40C240.292 44.0301 246.712 47.9521 253 48C261.5 48 281.464 48 297 48C304.964 48 310 53.5 310 60V61H314H315C315 50 308 43 297 43C257.993 43 281.008 43 253 43C246 43 242.168 40.1595 238.214 36.2066C228.936 27.4998 205.57 14 154.268 14C81.9102 14 64.9999 43 64.9999 43L64.9999 61Z" fill="white" fill-opacity="0.5"/>
<path d="M80.016 68.144C79.16 68.144 78.384 67.96 77.688 67.592C77 67.216 76.456 66.7 76.056 66.044C75.664 65.38 75.468 64.632 75.468 63.8C75.468 62.968 75.664 62.224 76.056 61.568C76.456 60.904 77 60.388 77.688 60.02C78.384 59.644 79.164 59.456 80.028 59.456C80.756 59.456 81.412 59.584 81.996 59.84C82.588 60.096 83.084 60.464 83.484 60.944L82.236 62.096C81.668 61.44 80.964 61.112 80.124 61.112C79.604 61.112 79.14 61.228 78.732 61.46C78.324 61.684 78.004 62 77.772 62.408C77.548 62.816 77.436 63.28 77.436 63.8C77.436 64.32 77.548 64.784 77.772 65.192C78.004 65.6 78.324 65.92 78.732 66.152C79.14 66.376 79.604 66.488 80.124 66.488C80.964 66.488 81.668 66.156 82.236 65.492L83.484 66.644C83.084 67.132 82.588 67.504 81.996 67.76C81.404 68.016 80.744 68.144 80.016 68.144ZM91.0047 61.544V68H89.2287V67.232C88.9807 67.512 88.6847 67.728 88.3407 67.88C87.9967 68.024 87.6247 68.096 87.2247 68.096C86.3767 68.096 85.7047 67.852 85.2087 67.364C84.7127 66.876 84.4647 66.152 84.4647 65.192V61.544H86.3367V64.916C86.3367 65.956 86.7727 66.476 87.6447 66.476C88.0927 66.476 88.4527 66.332 88.7247 66.044C88.9967 65.748 89.1327 65.312 89.1327 64.736V61.544H91.0047ZM95.343 61.448C96.343 61.448 97.111 61.688 97.647 62.168C98.183 62.64 98.451 63.356 98.451 64.316V68H96.699V67.196C96.347 67.796 95.691 68.096 94.731 68.096C94.235 68.096 93.803 68.012 93.435 67.844C93.075 67.676 92.799 67.444 92.607 67.148C92.415 66.852 92.319 66.516 92.319 66.14C92.319 65.54 92.543 65.068 92.991 64.724C93.447 64.38 94.147 64.208 95.091 64.208H96.579C96.579 63.8 96.455 63.488 96.207 63.272C95.959 63.048 95.587 62.936 95.091 62.936C94.747 62.936 94.407 62.992 94.071 63.104C93.743 63.208 93.463 63.352 93.231 63.536L92.559 62.228C92.911 61.98 93.331 61.788 93.819 61.652C94.315 61.516 94.823 61.448 95.343 61.448ZM95.199 66.836C95.519 66.836 95.803 66.764 96.051 66.62C96.299 66.468 96.475 66.248 96.579 65.96V65.3H95.295C94.527 65.3 94.143 65.552 94.143 66.056C94.143 66.296 94.235 66.488 94.419 66.632C94.611 66.768 94.871 66.836 95.199 66.836ZM104.069 61.448C104.869 61.448 105.513 61.688 106.001 62.168C106.497 62.648 106.745 63.36 106.745 64.304V68H104.873V64.592C104.873 64.08 104.761 63.7 104.537 63.452C104.313 63.196 103.989 63.068 103.565 63.068C103.093 63.068 102.717 63.216 102.437 63.512C102.157 63.8 102.017 64.232 102.017 64.808V68H100.145V61.544H101.933V62.3C102.181 62.028 102.489 61.82 102.857 61.676C103.225 61.524 103.629 61.448 104.069 61.448ZM115.088 59.096V68H113.3V67.256C112.836 67.816 112.164 68.096 111.284 68.096C110.676 68.096 110.124 67.96 109.628 67.688C109.14 67.416 108.756 67.028 108.476 66.524C108.196 66.02 108.056 65.436 108.056 64.772C108.056 64.108 108.196 63.524 108.476 63.02C108.756 62.516 109.14 62.128 109.628 61.856C110.124 61.584 110.676 61.448 111.284 61.448C112.108 61.448 112.752 61.708 113.216 62.228V59.096H115.088ZM111.608 66.56C112.08 66.56 112.472 66.4 112.784 66.08C113.096 65.752 113.252 65.316 113.252 64.772C113.252 64.228 113.096 63.796 112.784 63.476C112.472 63.148 112.08 62.984 111.608 62.984C111.128 62.984 110.732 63.148 110.42 63.476C110.108 63.796 109.952 64.228 109.952 64.772C109.952 65.316 110.108 65.752 110.42 66.08C110.732 66.4 111.128 66.56 111.608 66.56ZM119.893 68.096C119.213 68.096 118.601 67.956 118.057 67.676C117.521 67.388 117.101 66.992 116.797 66.488C116.493 65.984 116.341 65.412 116.341 64.772C116.341 64.132 116.493 63.56 116.797 63.056C117.101 62.552 117.521 62.16 118.057 61.88C118.601 61.592 119.213 61.448 119.893 61.448C120.573 61.448 121.181 61.592 121.717 61.88C122.253 62.16 122.673 62.552 122.977 63.056C123.281 63.56 123.433 64.132 123.433 64.772C123.433 65.412 123.281 65.984 122.977 66.488C122.673 66.992 122.253 67.388 121.717 67.676C121.181 67.956 120.573 68.096 119.893 68.096ZM119.893 66.56C120.373 66.56 120.765 66.4 121.069 66.08C121.381 65.752 121.537 65.316 121.537 64.772C121.537 64.228 121.381 63.796 121.069 63.476C120.765 63.148 120.373 62.984 119.893 62.984C119.413 62.984 119.017 63.148 118.705 63.476C118.393 63.796 118.237 64.228 118.237 64.772C118.237 65.316 118.393 65.752 118.705 66.08C119.017 66.4 119.413 66.56 119.893 66.56ZM125.392 63.788C125.064 63.788 124.788 63.676 124.564 63.452C124.34 63.228 124.228 62.948 124.228 62.612C124.228 62.268 124.34 61.992 124.564 61.784C124.788 61.568 125.064 61.46 125.392 61.46C125.72 61.46 125.996 61.568 126.22 61.784C126.444 61.992 126.556 62.268 126.556 62.612C126.556 62.948 126.444 63.228 126.22 63.452C125.996 63.676 125.72 63.788 125.392 63.788ZM125.392 68.096C125.064 68.096 124.788 67.984 124.564 67.76C124.34 67.536 124.228 67.256 124.228 66.92C124.228 66.576 124.34 66.3 124.564 66.092C124.788 65.876 125.064 65.768 125.392 65.768C125.72 65.768 125.996 65.876 126.22 66.092C126.444 66.3 126.556 66.576 126.556 66.92C126.556 67.256 126.444 67.536 126.22 67.76C125.996 67.984 125.72 68.096 125.392 68.096ZM135.039 61.448C135.639 61.448 136.183 61.588 136.671 61.868C137.167 62.14 137.555 62.528 137.835 63.032C138.115 63.528 138.255 64.108 138.255 64.772C138.255 65.436 138.115 66.02 137.835 66.524C137.555 67.02 137.167 67.408 136.671 67.688C136.183 67.96 135.639 68.096 135.039 68.096C134.215 68.096 133.567 67.836 133.095 67.316V70.328H131.223V61.544H133.011V62.288C133.475 61.728 134.151 61.448 135.039 61.448ZM134.715 66.56C135.195 66.56 135.587 66.4 135.891 66.08C136.203 65.752 136.359 65.316 136.359 64.772C136.359 64.228 136.203 63.796 135.891 63.476C135.587 63.148 135.195 62.984 134.715 62.984C134.235 62.984 133.839 63.148 133.527 63.476C133.223 63.796 133.071 64.228 133.071 64.772C133.071 65.316 133.223 65.752 133.527 66.08C133.839 66.4 134.235 66.56 134.715 66.56ZM141.297 62.396C141.521 62.084 141.821 61.848 142.197 61.688C142.581 61.528 143.021 61.448 143.517 61.448V63.176C143.309 63.16 143.169 63.152 143.097 63.152C142.561 63.152 142.141 63.304 141.837 63.608C141.533 63.904 141.381 64.352 141.381 64.952V68H139.509V61.544H141.297V62.396ZM150.895 64.796C150.895 64.82 150.883 64.988 150.859 65.3H145.975C146.063 65.7 146.271 66.016 146.599 66.248C146.927 66.48 147.335 66.596 147.823 66.596C148.159 66.596 148.455 66.548 148.711 66.452C148.975 66.348 149.219 66.188 149.443 65.972L150.439 67.052C149.831 67.748 148.943 68.096 147.775 68.096C147.047 68.096 146.403 67.956 145.843 67.676C145.283 67.388 144.851 66.992 144.547 66.488C144.243 65.984 144.091 65.412 144.091 64.772C144.091 64.14 144.239 63.572 144.535 63.068C144.839 62.556 145.251 62.16 145.771 61.88C146.299 61.592 146.887 61.448 147.535 61.448C148.167 61.448 148.739 61.584 149.251 61.856C149.763 62.128 150.163 62.52 150.451 63.032C150.747 63.536 150.895 64.124 150.895 64.796ZM147.547 62.864C147.123 62.864 146.767 62.984 146.479 63.224C146.191 63.464 146.015 63.792 145.951 64.208H149.131C149.067 63.8 148.891 63.476 148.603 63.236C148.315 62.988 147.963 62.864 147.547 62.864ZM154.313 68.096C153.777 68.096 153.253 68.032 152.741 67.904C152.229 67.768 151.821 67.6 151.517 67.4L152.141 66.056C152.429 66.24 152.777 66.392 153.185 66.512C153.593 66.624 153.993 66.68 154.385 66.68C155.177 66.68 155.573 66.484 155.573 66.092C155.573 65.908 155.465 65.776 155.249 65.696C155.033 65.616 154.701 65.548 154.253 65.492C153.725 65.412 153.289 65.32 152.945 65.216C152.601 65.112 152.301 64.928 152.045 64.664C151.797 64.4 151.673 64.024 151.673 63.536C151.673 63.128 151.789 62.768 152.021 62.456C152.261 62.136 152.605 61.888 153.053 61.712C153.509 61.536 154.045 61.448 154.661 61.448C155.117 61.448 155.569 61.5 156.017 61.604C156.473 61.7 156.849 61.836 157.145 62.012L156.521 63.344C155.953 63.024 155.333 62.864 154.661 62.864C154.261 62.864 153.961 62.92 153.761 63.032C153.561 63.144 153.461 63.288 153.461 63.464C153.461 63.664 153.569 63.804 153.785 63.884C154.001 63.964 154.345 64.04 154.817 64.112C155.345 64.2 155.777 64.296 156.113 64.4C156.449 64.496 156.741 64.676 156.989 64.94C157.237 65.204 157.361 65.572 157.361 66.044C157.361 66.444 157.241 66.8 157.001 67.112C156.761 67.424 156.409 67.668 155.945 67.844C155.489 68.012 154.945 68.096 154.313 68.096ZM158.516 61.544H160.388V68H158.516V61.544ZM159.452 60.644C159.108 60.644 158.828 60.544 158.612 60.344C158.396 60.144 158.288 59.896 158.288 59.6C158.288 59.304 158.396 59.056 158.612 58.856C158.828 58.656 159.108 58.556 159.452 58.556C159.796 58.556 160.076 58.652 160.292 58.844C160.508 59.036 160.616 59.276 160.616 59.564C160.616 59.876 160.508 60.136 160.292 60.344C160.076 60.544 159.796 60.644 159.452 60.644ZM165.198 68.096C164.518 68.096 163.906 67.956 163.362 67.676C162.826 67.388 162.406 66.992 162.102 66.488C161.798 65.984 161.646 65.412 161.646 64.772C161.646 64.132 161.798 63.56 162.102 63.056C162.406 62.552 162.826 62.16 163.362 61.88C163.906 61.592 164.518 61.448 165.198 61.448C165.878 61.448 166.486 61.592 167.022 61.88C167.558 62.16 167.978 62.552 168.282 63.056C168.586 63.56 168.738 64.132 168.738 64.772C168.738 65.412 168.586 65.984 168.282 66.488C167.978 66.992 167.558 67.388 167.022 67.676C166.486 67.956 165.878 68.096 165.198 68.096ZM165.198 66.56C165.678 66.56 166.07 66.4 166.374 66.08C166.686 65.752 166.842 65.316 166.842 64.772C166.842 64.228 166.686 63.796 166.374 63.476C166.07 63.148 165.678 62.984 165.198 62.984C164.718 62.984 164.322 63.148 164.01 63.476C163.698 63.796 163.542 64.228 163.542 64.772C163.542 65.316 163.698 65.752 164.01 66.08C164.322 66.4 164.718 66.56 165.198 66.56ZM173.913 61.448C174.713 61.448 175.357 61.688 175.845 62.168C176.341 62.648 176.589 63.36 176.589 64.304V68H174.717V64.592C174.717 64.08 174.605 63.7 174.381 63.452C174.157 63.196 173.833 63.068 173.409 63.068C172.937 63.068 172.561 63.216 172.281 63.512C172.001 63.8 171.861 64.232 171.861 64.808V68H169.989V61.544H171.777V62.3C172.025 62.028 172.333 61.82 172.701 61.676C173.069 61.524 173.473 61.448 173.913 61.448ZM180.89 61.448C181.89 61.448 182.658 61.688 183.194 62.168C183.73 62.64 183.998 63.356 183.998 64.316V68H182.246V67.196C181.894 67.796 181.238 68.096 180.278 68.096C179.782 68.096 179.35 68.012 178.982 67.844C178.622 67.676 178.346 67.444 178.154 67.148C177.962 66.852 177.866 66.516 177.866 66.14C177.866 65.54 178.09 65.068 178.538 64.724C178.994 64.38 179.694 64.208 180.638 64.208H182.126C182.126 63.8 182.002 63.488 181.754 63.272C181.506 63.048 181.134 62.936 180.638 62.936C180.294 62.936 179.954 62.992 179.618 63.104C179.29 63.208 179.01 63.352 178.778 63.536L178.106 62.228C178.458 61.98 178.878 61.788 179.366 61.652C179.862 61.516 180.37 61.448 180.89 61.448ZM180.746 66.836C181.066 66.836 181.35 66.764 181.598 66.62C181.846 66.468 182.022 66.248 182.126 65.96V65.3H180.842C180.074 65.3 179.69 65.552 179.69 66.056C179.69 66.296 179.782 66.488 179.966 66.632C180.158 66.768 180.418 66.836 180.746 66.836ZM187.48 62.396C187.704 62.084 188.004 61.848 188.38 61.688C188.764 61.528 189.204 61.448 189.7 61.448V63.176C189.492 63.16 189.352 63.152 189.28 63.152C188.744 63.152 188.324 63.304 188.02 63.608C187.716 63.904 187.564 64.352 187.564 64.952V68H185.692V61.544H187.48V62.396ZM198.075 61.448C198.675 61.448 199.219 61.588 199.707 61.868C200.203 62.14 200.591 62.528 200.871 63.032C201.151 63.528 201.291 64.108 201.291 64.772C201.291 65.436 201.151 66.02 200.871 66.524C200.591 67.02 200.203 67.408 199.707 67.688C199.219 67.96 198.675 68.096 198.075 68.096C197.187 68.096 196.511 67.816 196.047 67.256V68H194.259V59.096H196.131V62.228C196.603 61.708 197.251 61.448 198.075 61.448ZM197.751 66.56C198.231 66.56 198.623 66.4 198.927 66.08C199.239 65.752 199.395 65.316 199.395 64.772C199.395 64.228 199.239 63.796 198.927 63.476C198.623 63.148 198.231 62.984 197.751 62.984C197.271 62.984 196.875 63.148 196.563 63.476C196.259 63.796 196.107 64.228 196.107 64.772C196.107 65.316 196.259 65.752 196.563 66.08C196.875 66.4 197.271 66.56 197.751 66.56ZM205.616 68.096C204.936 68.096 204.324 67.956 203.78 67.676C203.244 67.388 202.824 66.992 202.52 66.488C202.216 65.984 202.064 65.412 202.064 64.772C202.064 64.132 202.216 63.56 202.52 63.056C202.824 62.552 203.244 62.16 203.78 61.88C204.324 61.592 204.936 61.448 205.616 61.448C206.296 61.448 206.904 61.592 207.44 61.88C207.976 62.16 208.396 62.552 208.7 63.056C209.004 63.56 209.156 64.132 209.156 64.772C209.156 65.412 209.004 65.984 208.7 66.488C208.396 66.992 207.976 67.388 207.44 67.676C206.904 67.956 206.296 68.096 205.616 68.096ZM205.616 66.56C206.096 66.56 206.488 66.4 206.792 66.08C207.104 65.752 207.26 65.316 207.26 64.772C207.26 64.228 207.104 63.796 206.792 63.476C206.488 63.148 206.096 62.984 205.616 62.984C205.136 62.984 204.74 63.148 204.428 63.476C204.116 63.796 203.96 64.228 203.96 64.772C203.96 65.316 204.116 65.752 204.428 66.08C204.74 66.4 205.136 66.56 205.616 66.56ZM214.571 67.688C214.387 67.824 214.159 67.928 213.887 68C213.623 68.064 213.343 68.096 213.047 68.096C212.279 68.096 211.683 67.9 211.259 67.508C210.843 67.116 210.635 66.54 210.635 65.78V63.128H209.639V61.688H210.635V60.116H212.507V61.688H214.115V63.128H212.507V65.756C212.507 66.028 212.575 66.24 212.711 66.392C212.855 66.536 213.055 66.608 213.311 66.608C213.607 66.608 213.859 66.528 214.067 66.368L214.571 67.688ZM218.495 68.096C217.815 68.096 217.203 67.956 216.659 67.676C216.123 67.388 215.703 66.992 215.399 66.488C215.095 65.984 214.943 65.412 214.943 64.772C214.943 64.132 215.095 63.56 215.399 63.056C215.703 62.552 216.123 62.16 216.659 61.88C217.203 61.592 217.815 61.448 218.495 61.448C219.175 61.448 219.783 61.592 220.319 61.88C220.855 62.16 221.275 62.552 221.579 63.056C221.883 63.56 222.035 64.132 222.035 64.772C222.035 65.412 221.883 65.984 221.579 66.488C221.275 66.992 220.855 67.388 220.319 67.676C219.783 67.956 219.175 68.096 218.495 68.096ZM218.495 66.56C218.975 66.56 219.367 66.4 219.671 66.08C219.983 65.752 220.139 65.316 220.139 64.772C220.139 64.228 219.983 63.796 219.671 63.476C219.367 63.148 218.975 62.984 218.495 62.984C218.015 62.984 217.619 63.148 217.307 63.476C216.995 63.796 216.839 64.228 216.839 64.772C216.839 65.316 216.995 65.752 217.307 66.08C217.619 66.4 218.015 66.56 218.495 66.56ZM218.999 58.988H221.015L218.843 60.716H217.379L218.999 58.988ZM227.21 61.448C228.01 61.448 228.654 61.688 229.142 62.168C229.638 62.648 229.886 63.36 229.886 64.304V68H228.014V64.592C228.014 64.08 227.902 63.7 227.678 63.452C227.454 63.196 227.13 63.068 226.706 63.068C226.234 63.068 225.858 63.216 225.578 63.512C225.298 63.8 225.158 64.232 225.158 64.808V68H223.286V61.544H225.074V62.3C225.322 62.028 225.63 61.82 225.998 61.676C226.366 61.524 226.77 61.448 227.21 61.448ZM234.981 61.544H236.853V68H234.981V61.544ZM235.917 60.644C235.573 60.644 235.293 60.544 235.077 60.344C234.861 60.144 234.753 59.896 234.753 59.6C234.753 59.304 234.861 59.056 235.077 58.856C235.293 58.656 235.573 58.556 235.917 58.556C236.261 58.556 236.541 58.652 236.757 58.844C236.973 59.036 237.081 59.276 237.081 59.564C237.081 59.876 236.973 60.136 236.757 60.344C236.541 60.544 236.261 60.644 235.917 60.644ZM242.515 61.448C243.315 61.448 243.959 61.688 244.447 62.168C244.943 62.648 245.191 63.36 245.191 64.304V68H243.319V64.592C243.319 64.08 243.207 63.7 242.983 63.452C242.759 63.196 242.435 63.068 242.011 63.068C241.539 63.068 241.163 63.216 240.883 63.512C240.603 63.8 240.463 64.232 240.463 64.808V68H238.591V61.544H240.379V62.3C240.627 62.028 240.935 61.82 241.303 61.676C241.671 61.524 242.075 61.448 242.515 61.448ZM246.887 61.544H248.759V68H246.887V61.544ZM247.823 60.644C247.479 60.644 247.199 60.544 246.983 60.344C246.767 60.144 246.659 59.896 246.659 59.6C246.659 59.304 246.767 59.056 246.983 58.856C247.199 58.656 247.479 58.556 247.823 58.556C248.167 58.556 248.447 58.652 248.663 58.844C248.879 59.036 248.987 59.276 248.987 59.564C248.987 59.876 248.879 60.136 248.663 60.344C248.447 60.544 248.167 60.644 247.823 60.644ZM253.617 68.096C252.929 68.096 252.309 67.956 251.757 67.676C251.213 67.388 250.785 66.992 250.473 66.488C250.169 65.984 250.017 65.412 250.017 64.772C250.017 64.132 250.169 63.56 250.473 63.056C250.785 62.552 251.213 62.16 251.757 61.88C252.309 61.592 252.929 61.448 253.617 61.448C254.297 61.448 254.889 61.592 255.393 61.88C255.905 62.16 256.277 62.564 256.509 63.092L255.057 63.872C254.721 63.28 254.237 62.984 253.605 62.984C253.117 62.984 252.713 63.144 252.393 63.464C252.073 63.784 251.913 64.22 251.913 64.772C251.913 65.324 252.073 65.76 252.393 66.08C252.713 66.4 253.117 66.56 253.605 66.56C254.245 66.56 254.729 66.264 255.057 65.672L256.509 66.464C256.277 66.976 255.905 67.376 255.393 67.664C254.889 67.952 254.297 68.096 253.617 68.096ZM257.587 61.544H259.459V68H257.587V61.544ZM258.523 60.644C258.179 60.644 257.899 60.544 257.683 60.344C257.467 60.144 257.359 59.896 257.359 59.6C257.359 59.304 257.467 59.056 257.683 58.856C257.899 58.656 258.179 58.556 258.523 58.556C258.867 58.556 259.147 58.652 259.363 58.844C259.579 59.036 259.687 59.276 259.687 59.564C259.687 59.876 259.579 60.136 259.363 60.344C259.147 60.544 258.867 60.644 258.523 60.644ZM263.8 61.448C264.8 61.448 265.568 61.688 266.104 62.168C266.64 62.64 266.908 63.356 266.908 64.316V68H265.156V67.196C264.804 67.796 264.148 68.096 263.188 68.096C262.692 68.096 262.26 68.012 261.892 67.844C261.532 67.676 261.256 67.444 261.064 67.148C260.872 66.852 260.776 66.516 260.776 66.14C260.776 65.54 261 65.068 261.448 64.724C261.904 64.38 262.604 64.208 263.548 64.208H265.036C265.036 63.8 264.912 63.488 264.664 63.272C264.416 63.048 264.044 62.936 263.548 62.936C263.204 62.936 262.864 62.992 262.528 63.104C262.2 63.208 261.92 63.352 261.688 63.536L261.016 62.228C261.368 61.98 261.788 61.788 262.276 61.652C262.772 61.516 263.28 61.448 263.8 61.448ZM263.656 66.836C263.976 66.836 264.26 66.764 264.508 66.62C264.756 66.468 264.932 66.248 265.036 65.96V65.3H263.752C262.984 65.3 262.6 65.552 262.6 66.056C262.6 66.296 262.692 66.488 262.876 66.632C263.068 66.768 263.328 66.836 263.656 66.836ZM270.39 62.396C270.614 62.084 270.914 61.848 271.29 61.688C271.674 61.528 272.114 61.448 272.61 61.448V63.176C272.402 63.16 272.262 63.152 272.19 63.152C271.654 63.152 271.234 63.304 270.93 63.608C270.626 63.904 270.474 64.352 270.474 64.952V68H268.602V61.544H270.39V62.396ZM274.361 68.096C274.033 68.096 273.757 67.984 273.533 67.76C273.309 67.536 273.197 67.256 273.197 66.92C273.197 66.576 273.309 66.3 273.533 66.092C273.757 65.876 274.033 65.768 274.361 65.768C274.689 65.768 274.965 65.876 275.189 66.092C275.413 66.3 275.525 66.576 275.525 66.92C275.525 67.256 275.413 67.536 275.189 67.76C274.965 67.984 274.689 68.096 274.361 68.096Z" fill="#333333"/>
</g>
<defs>
<filter id="filter0_d_4403_110115" x="0" y="0" width="380" height="224" filterUnits="userSpaceOnUse" color-interpolation-filters="sRGB">
<feFlood flood-opacity="0" result="BackgroundImageFix"/>
<feColorMatrix in="SourceAlpha" type="matrix" values="0 0 0 0 0 0 0 0 0 0 0 0 0 0 0 0 0 0 127 0" result="hardAlpha"/>
<feOffset dy="4"/>
<feColorMatrix type="matrix" values="0 0 0 0 0 0 0 0 0 0 0 0 0 0 0 0 0 0 0.25 0"/>
<feBlend mode="normal" in2="BackgroundImageFix" result="effect1_dropShadow_4403_110115"/>
<feBlend mode="normal" in="SourceGraphic" in2="effect1_dropShadow_4403_110115" result="shape"/>
</filter>
</defs>
</svg>
