<svg width="180" height="180" viewBox="0 0 180 180" fill="none" xmlns="http://www.w3.org/2000/svg">
<g clip-path="url(#clip0_5693_197635)">
<rect width="180" height="180" rx="20" fill="#F2F2F2"/>
<g clip-path="url(#clip1_5693_197635)">
<path d="M0 30L-1.31134e-06 0L30 -1.31134e-06L30 10C30 21.0457 21.0457 30 10 30L0 30Z" fill="#333333"/>
<path d="M16.8112 9.8V21H14.2192V11.88H11.9792V9.8H16.8112Z" fill="#F2F2F2"/>
</g>
<path d="M28.6409 120.6H32.1809C33.0689 120.6 33.8569 120.776 34.5449 121.128C35.2329 121.48 35.7649 121.976 36.1409 122.616C36.5249 123.248 36.7169 123.976 36.7169 124.8C36.7169 125.624 36.5249 126.356 36.1409 126.996C35.7649 127.628 35.2329 128.12 34.5449 128.472C33.8569 128.824 33.0689 129 32.1809 129H28.6409V120.6ZM32.1089 127.956C32.7889 127.956 33.3849 127.824 33.8969 127.56C34.4169 127.296 34.8169 126.928 35.0969 126.456C35.3769 125.976 35.5169 125.424 35.5169 124.8C35.5169 124.176 35.3769 123.628 35.0969 123.156C34.8169 122.676 34.4169 122.304 33.8969 122.04C33.3849 121.776 32.7889 121.644 32.1089 121.644H29.8409V127.956H32.1089ZM41.1109 129.072C40.4789 129.072 39.9109 128.932 39.4069 128.652C38.9029 128.372 38.5069 127.988 38.2189 127.5C37.9389 127.004 37.7989 126.444 37.7989 125.82C37.7989 125.196 37.9389 124.64 38.2189 124.152C38.5069 123.656 38.9029 123.272 39.4069 123C39.9109 122.72 40.4789 122.58 41.1109 122.58C41.7429 122.58 42.3069 122.72 42.8029 123C43.3069 123.272 43.6989 123.656 43.9789 124.152C44.2669 124.64 44.4109 125.196 44.4109 125.82C44.4109 126.444 44.2669 127.004 43.9789 127.5C43.6989 127.988 43.3069 128.372 42.8029 128.652C42.3069 128.932 41.7429 129.072 41.1109 129.072ZM41.1109 128.064C41.5189 128.064 41.8829 127.972 42.2029 127.788C42.5309 127.596 42.7869 127.332 42.9709 126.996C43.1549 126.652 43.2469 126.26 43.2469 125.82C43.2469 125.38 43.1549 124.992 42.9709 124.656C42.7869 124.312 42.5309 124.048 42.2029 123.864C41.8829 123.68 41.5189 123.588 41.1109 123.588C40.7029 123.588 40.3349 123.68 40.0069 123.864C39.6869 124.048 39.4309 124.312 39.2389 124.656C39.0549 124.992 38.9629 125.38 38.9629 125.82C38.9629 126.26 39.0549 126.652 39.2389 126.996C39.4309 127.332 39.6869 127.596 40.0069 127.788C40.3349 127.972 40.7029 128.064 41.1109 128.064ZM49.3761 122.58C49.9921 122.58 50.5441 122.716 51.0321 122.988C51.5201 123.26 51.9001 123.64 52.1721 124.128C52.4521 124.616 52.5921 125.18 52.5921 125.82C52.5921 126.46 52.4521 127.028 52.1721 127.524C51.9001 128.012 51.5201 128.392 51.0321 128.664C50.5441 128.936 49.9921 129.072 49.3761 129.072C48.9041 129.072 48.4721 128.98 48.0801 128.796C47.6881 128.612 47.3641 128.344 47.1081 127.992V129H46.0041V120.096H47.1561V123.6C47.4121 123.264 47.7321 123.012 48.1161 122.844C48.5001 122.668 48.9201 122.58 49.3761 122.58ZM49.2801 128.064C49.6881 128.064 50.0521 127.972 50.3721 127.788C50.7001 127.596 50.9561 127.332 51.1401 126.996C51.3321 126.652 51.4281 126.26 51.4281 125.82C51.4281 125.38 51.3321 124.992 51.1401 124.656C50.9561 124.312 50.7001 124.048 50.3721 123.864C50.0521 123.68 49.6881 123.588 49.2801 123.588C48.8801 123.588 48.5161 123.68 48.1881 123.864C47.8601 124.048 47.6041 124.312 47.4201 124.656C47.2361 124.992 47.1441 125.38 47.1441 125.82C47.1441 126.26 47.2361 126.652 47.4201 126.996C47.6041 127.332 47.8601 127.596 48.1881 127.788C48.5161 127.972 48.8801 128.064 49.2801 128.064ZM54.1838 120.096H55.3358V129H54.1838V120.096ZM59.8514 122.58C60.7314 122.58 61.4034 122.796 61.8674 123.228C62.3394 123.66 62.5754 124.304 62.5754 125.16V129H61.4834V128.16C61.2914 128.456 61.0154 128.684 60.6554 128.844C60.3034 128.996 59.8834 129.072 59.3954 129.072C58.6834 129.072 58.1114 128.9 57.6794 128.556C57.2554 128.212 57.0434 127.76 57.0434 127.2C57.0434 126.64 57.2474 126.192 57.6554 125.856C58.0634 125.512 58.7114 125.34 59.5994 125.34H61.4234V125.112C61.4234 124.616 61.2794 124.236 60.9914 123.972C60.7034 123.708 60.2794 123.576 59.7194 123.576C59.3434 123.576 58.9754 123.64 58.6154 123.768C58.2554 123.888 57.9514 124.052 57.7034 124.26L57.2234 123.396C57.5514 123.132 57.9434 122.932 58.3994 122.796C58.8554 122.652 59.3394 122.58 59.8514 122.58ZM59.5874 128.184C60.0274 128.184 60.4074 128.088 60.7274 127.896C61.0474 127.696 61.2794 127.416 61.4234 127.056V126.168H59.6474C58.6714 126.168 58.1834 126.496 58.1834 127.152C58.1834 127.472 58.3074 127.724 58.5554 127.908C58.8034 128.092 59.1474 128.184 59.5874 128.184ZM73.6779 125.856C73.6779 125.944 73.6699 126.06 73.6539 126.204H68.4939C68.5659 126.764 68.8099 127.216 69.2259 127.56C69.6499 127.896 70.1739 128.064 70.7979 128.064C71.5579 128.064 72.1699 127.808 72.6339 127.296L73.2699 128.04C72.9819 128.376 72.6219 128.632 72.1899 128.808C71.7659 128.984 71.2899 129.072 70.7619 129.072C70.0899 129.072 69.4939 128.936 68.9739 128.664C68.4539 128.384 68.0499 127.996 67.7619 127.5C67.4819 127.004 67.3419 126.444 67.3419 125.82C67.3419 125.204 67.4779 124.648 67.7499 124.152C68.0299 123.656 68.4099 123.272 68.8899 123C69.3779 122.72 69.9259 122.58 70.5339 122.58C71.1419 122.58 71.6819 122.72 72.1539 123C72.6339 123.272 73.0059 123.656 73.2699 124.152C73.5419 124.648 73.6779 125.216 73.6779 125.856ZM70.5339 123.552C69.9819 123.552 69.5179 123.72 69.1419 124.056C68.7739 124.392 68.5579 124.832 68.4939 125.376H72.5739C72.5099 124.84 72.2899 124.404 71.9139 124.068C71.5459 123.724 71.0859 123.552 70.5339 123.552ZM75.2775 120.096H76.4295V129H75.2775V120.096ZM85.2238 122.58C85.8398 122.58 86.3918 122.716 86.8798 122.988C87.3678 123.26 87.7478 123.64 88.0198 124.128C88.2998 124.616 88.4398 125.18 88.4398 125.82C88.4398 126.46 88.2998 127.028 88.0198 127.524C87.7478 128.012 87.3678 128.392 86.8798 128.664C86.3918 128.936 85.8398 129.072 85.2238 129.072C84.7678 129.072 84.3478 128.984 83.9638 128.808C83.5878 128.632 83.2678 128.376 83.0038 128.04V131.328H81.8518V122.64H82.9558V123.648C83.2118 123.296 83.5358 123.032 83.9278 122.856C84.3198 122.672 84.7518 122.58 85.2238 122.58ZM85.1278 128.064C85.5358 128.064 85.8998 127.972 86.2198 127.788C86.5478 127.596 86.8038 127.332 86.9878 126.996C87.1798 126.652 87.2758 126.26 87.2758 125.82C87.2758 125.38 87.1798 124.992 86.9878 124.656C86.8038 124.312 86.5478 124.048 86.2198 123.864C85.8998 123.68 85.5358 123.588 85.1278 123.588C84.7278 123.588 84.3638 123.684 84.0358 123.876C83.7158 124.06 83.4598 124.32 83.2678 124.656C83.0838 124.992 82.9918 125.38 82.9918 125.82C82.9918 126.26 83.0838 126.652 83.2678 126.996C83.4518 127.332 83.7078 127.596 84.0358 127.788C84.3638 127.972 84.7278 128.064 85.1278 128.064ZM92.2889 122.58C93.1689 122.58 93.8409 122.796 94.3049 123.228C94.7769 123.66 95.0129 124.304 95.0129 125.16V129H93.9209V128.16C93.7289 128.456 93.4529 128.684 93.0929 128.844C92.7409 128.996 92.3209 129.072 91.8329 129.072C91.1209 129.072 90.5489 128.9 90.1169 128.556C89.6929 128.212 89.4809 127.76 89.4809 127.2C89.4809 126.64 89.6849 126.192 90.0929 125.856C90.5009 125.512 91.1489 125.34 92.0369 125.34H93.8609V125.112C93.8609 124.616 93.7169 124.236 93.4289 123.972C93.1409 123.708 92.7169 123.576 92.1569 123.576C91.7809 123.576 91.4129 123.64 91.0529 123.768C90.6929 123.888 90.3889 124.052 90.1409 124.26L89.6609 123.396C89.9889 123.132 90.3809 122.932 90.8369 122.796C91.2929 122.652 91.7769 122.58 92.2889 122.58ZM92.0249 128.184C92.4649 128.184 92.8449 128.088 93.1649 127.896C93.4849 127.696 93.7169 127.416 93.8609 127.056V126.168H92.0849C91.1089 126.168 90.6209 126.496 90.6209 127.152C90.6209 127.472 90.7449 127.724 90.9929 127.908C91.2409 128.092 91.5849 128.184 92.0249 128.184ZM100.517 122.58C101.133 122.58 101.685 122.716 102.173 122.988C102.661 123.26 103.041 123.64 103.313 124.128C103.593 124.616 103.733 125.18 103.733 125.82C103.733 126.46 103.593 127.028 103.313 127.524C103.041 128.012 102.661 128.392 102.173 128.664C101.685 128.936 101.133 129.072 100.517 129.072C100.061 129.072 99.6407 128.984 99.2567 128.808C98.8807 128.632 98.5607 128.376 98.2967 128.04V131.328H97.1447V122.64H98.2487V123.648C98.5047 123.296 98.8287 123.032 99.2207 122.856C99.6127 122.672 100.045 122.58 100.517 122.58ZM100.421 128.064C100.829 128.064 101.193 127.972 101.513 127.788C101.841 127.596 102.097 127.332 102.281 126.996C102.473 126.652 102.569 126.26 102.569 125.82C102.569 125.38 102.473 124.992 102.281 124.656C102.097 124.312 101.841 124.048 101.513 123.864C101.193 123.68 100.829 123.588 100.421 123.588C100.021 123.588 99.6567 123.684 99.3287 123.876C99.0087 124.06 98.7527 124.32 98.5607 124.656C98.3767 124.992 98.2847 125.38 98.2847 125.82C98.2847 126.26 98.3767 126.652 98.5607 126.996C98.7447 127.332 99.0007 127.596 99.3287 127.788C99.6567 127.972 100.021 128.064 100.421 128.064ZM111.072 125.856C111.072 125.944 111.064 126.06 111.048 126.204H105.888C105.96 126.764 106.204 127.216 106.62 127.56C107.044 127.896 107.568 128.064 108.192 128.064C108.952 128.064 109.564 127.808 110.028 127.296L110.664 128.04C110.376 128.376 110.016 128.632 109.584 128.808C109.16 128.984 108.684 129.072 108.156 129.072C107.484 129.072 106.888 128.936 106.368 128.664C105.848 128.384 105.444 127.996 105.156 127.5C104.876 127.004 104.736 126.444 104.736 125.82C104.736 125.204 104.872 124.648 105.144 124.152C105.424 123.656 105.804 123.272 106.284 123C106.772 122.72 107.32 122.58 107.928 122.58C108.536 122.58 109.076 122.72 109.548 123C110.028 123.272 110.4 123.656 110.664 124.152C110.936 124.648 111.072 125.216 111.072 125.856ZM107.928 123.552C107.376 123.552 106.912 123.72 106.536 124.056C106.168 124.392 105.952 124.832 105.888 125.376H109.968C109.904 124.84 109.684 124.404 109.308 124.068C108.94 123.724 108.48 123.552 107.928 123.552ZM112.672 120.096H113.824V129H112.672V120.096ZM122.618 122.58C123.234 122.58 123.786 122.716 124.274 122.988C124.762 123.26 125.142 123.64 125.414 124.128C125.694 124.616 125.834 125.18 125.834 125.82C125.834 126.46 125.694 127.028 125.414 127.524C125.142 128.012 124.762 128.392 124.274 128.664C123.786 128.936 123.234 129.072 122.618 129.072C122.162 129.072 121.742 128.984 121.358 128.808C120.982 128.632 120.662 128.376 120.398 128.04V131.328H119.246V122.64H120.35V123.648C120.606 123.296 120.93 123.032 121.322 122.856C121.714 122.672 122.146 122.58 122.618 122.58ZM122.522 128.064C122.93 128.064 123.294 127.972 123.614 127.788C123.942 127.596 124.198 127.332 124.382 126.996C124.574 126.652 124.67 126.26 124.67 125.82C124.67 125.38 124.574 124.992 124.382 124.656C124.198 124.312 123.942 124.048 123.614 123.864C123.294 123.68 122.93 123.588 122.522 123.588C122.122 123.588 121.758 123.684 121.43 123.876C121.11 124.06 120.854 124.32 120.662 124.656C120.478 124.992 120.386 125.38 120.386 125.82C120.386 126.26 120.478 126.652 120.662 126.996C120.846 127.332 121.102 127.596 121.43 127.788C121.758 127.972 122.122 128.064 122.522 128.064ZM130.15 129.072C129.518 129.072 128.95 128.932 128.446 128.652C127.942 128.372 127.546 127.988 127.258 127.5C126.978 127.004 126.838 126.444 126.838 125.82C126.838 125.196 126.978 124.64 127.258 124.152C127.546 123.656 127.942 123.272 128.446 123C128.95 122.72 129.518 122.58 130.15 122.58C130.782 122.58 131.346 122.72 131.842 123C132.346 123.272 132.738 123.656 133.018 124.152C133.306 124.64 133.45 125.196 133.45 125.82C133.45 126.444 133.306 127.004 133.018 127.5C132.738 127.988 132.346 128.372 131.842 128.652C131.346 128.932 130.782 129.072 130.15 129.072ZM130.15 128.064C130.558 128.064 130.922 127.972 131.242 127.788C131.57 127.596 131.826 127.332 132.01 126.996C132.194 126.652 132.286 126.26 132.286 125.82C132.286 125.38 132.194 124.992 132.01 124.656C131.826 124.312 131.57 124.048 131.242 123.864C130.922 123.68 130.558 123.588 130.15 123.588C129.742 123.588 129.374 123.68 129.046 123.864C128.726 124.048 128.47 124.312 128.278 124.656C128.094 124.992 128.002 125.38 128.002 125.82C128.002 126.26 128.094 126.652 128.278 126.996C128.47 127.332 128.726 127.596 129.046 127.788C129.374 127.972 129.742 128.064 130.15 128.064ZM136.147 123.708C136.347 123.34 136.643 123.06 137.035 122.868C137.427 122.676 137.903 122.58 138.463 122.58V123.696C138.399 123.688 138.311 123.684 138.199 123.684C137.575 123.684 137.083 123.872 136.723 124.248C136.371 124.616 136.195 125.144 136.195 125.832V129H135.043V122.64H136.147V123.708ZM143.188 120.096H144.34V129H143.188V120.096ZM148.855 122.58C149.735 122.58 150.407 122.796 150.871 123.228C151.343 123.66 151.579 124.304 151.579 125.16V129H150.487V128.16C150.295 128.456 150.019 128.684 149.659 128.844C149.307 128.996 148.887 129.072 148.399 129.072C147.687 129.072 147.115 128.9 146.683 128.556C146.259 128.212 146.047 127.76 146.047 127.2C146.047 126.64 146.251 126.192 146.659 125.856C147.067 125.512 147.715 125.34 148.603 125.34H150.427V125.112C150.427 124.616 150.283 124.236 149.995 123.972C149.707 123.708 149.283 123.576 148.723 123.576C148.347 123.576 147.979 123.64 147.619 123.768C147.259 123.888 146.955 124.052 146.707 124.26L146.227 123.396C146.555 123.132 146.947 122.932 147.403 122.796C147.859 122.652 148.343 122.58 148.855 122.58ZM148.591 128.184C149.031 128.184 149.411 128.088 149.731 127.896C150.051 127.696 150.283 127.416 150.427 127.056V126.168H148.651C147.675 126.168 147.187 126.496 147.187 127.152C147.187 127.472 147.311 127.724 147.559 127.908C147.807 128.092 148.151 128.184 148.591 128.184ZM50.8312 137.58C51.6312 137.58 52.2632 137.812 52.7272 138.276C53.1992 138.74 53.4352 139.428 53.4352 140.34V144H52.2832V140.472C52.2832 139.856 52.1392 139.392 51.8512 139.08C51.5712 138.768 51.1672 138.612 50.6392 138.612C50.0552 138.612 49.5912 138.796 49.2472 139.164C48.9032 139.524 48.7312 140.044 48.7312 140.724V144H47.5792V140.472C47.5792 139.856 47.4352 139.392 47.1472 139.08C46.8672 138.768 46.4632 138.612 45.9352 138.612C45.3512 138.612 44.8872 138.796 44.5432 139.164C44.1992 139.524 44.0272 140.044 44.0272 140.724V144H42.8752V137.64H43.9792V138.588C44.2112 138.26 44.5152 138.012 44.8912 137.844C45.2672 137.668 45.6952 137.58 46.1752 137.58C46.6712 137.58 47.1112 137.68 47.4952 137.88C47.8792 138.08 48.1752 138.372 48.3832 138.756C48.6232 138.388 48.9552 138.1 49.3792 137.892C49.8112 137.684 50.2952 137.58 50.8312 137.58ZM55.5549 137.64H56.7069V144H55.5549V137.64ZM56.1309 136.416C55.9069 136.416 55.7189 136.344 55.5669 136.2C55.4229 136.056 55.3509 135.88 55.3509 135.672C55.3509 135.464 55.4229 135.288 55.5669 135.144C55.7189 134.992 55.9069 134.916 56.1309 134.916C56.3549 134.916 56.5389 134.988 56.6829 135.132C56.8349 135.268 56.9109 135.44 56.9109 135.648C56.9109 135.864 56.8349 136.048 56.6829 136.2C56.5389 136.344 56.3549 136.416 56.1309 136.416ZM62.4825 143.628C62.3145 143.772 62.1065 143.884 61.8585 143.964C61.6105 144.036 61.3545 144.072 61.0905 144.072C60.4505 144.072 59.9545 143.9 59.6025 143.556C59.2505 143.212 59.0745 142.72 59.0745 142.08V138.588H57.9945V137.64H59.0745V136.248H60.2265V137.64H62.0505V138.588H60.2265V142.032C60.2265 142.376 60.3105 142.64 60.4785 142.824C60.6545 143.008 60.9025 143.1 61.2225 143.1C61.5745 143.1 61.8745 143 62.1225 142.8L62.4825 143.628ZM66.1912 137.58C67.0712 137.58 67.7432 137.796 68.2072 138.228C68.6792 138.66 68.9152 139.304 68.9152 140.16V144H67.8232V143.16C67.6312 143.456 67.3552 143.684 66.9952 143.844C66.6432 143.996 66.2232 144.072 65.7352 144.072C65.0232 144.072 64.4512 143.9 64.0192 143.556C63.5952 143.212 63.3832 142.76 63.3832 142.2C63.3832 141.64 63.5872 141.192 63.9952 140.856C64.4032 140.512 65.0512 140.34 65.9392 140.34H67.7632V140.112C67.7632 139.616 67.6192 139.236 67.3312 138.972C67.0432 138.708 66.6192 138.576 66.0592 138.576C65.6832 138.576 65.3152 138.64 64.9552 138.768C64.5952 138.888 64.2912 139.052 64.0432 139.26L63.5632 138.396C63.8912 138.132 64.2832 137.932 64.7392 137.796C65.1952 137.652 65.6792 137.58 66.1912 137.58ZM65.9272 143.184C66.3672 143.184 66.7472 143.088 67.0672 142.896C67.3872 142.696 67.6192 142.416 67.7632 142.056V141.168H65.9872C65.0112 141.168 64.5232 141.496 64.5232 142.152C64.5232 142.472 64.6472 142.724 64.8952 142.908C65.1432 143.092 65.4872 143.184 65.9272 143.184ZM77.0822 135.096V144H75.9782V142.992C75.7222 143.344 75.3982 143.612 75.0062 143.796C74.6142 143.98 74.1822 144.072 73.7102 144.072C73.0942 144.072 72.5422 143.936 72.0542 143.664C71.5662 143.392 71.1822 143.012 70.9022 142.524C70.6302 142.028 70.4942 141.46 70.4942 140.82C70.4942 140.18 70.6302 139.616 70.9022 139.128C71.1822 138.64 71.5662 138.26 72.0542 137.988C72.5422 137.716 73.0942 137.58 73.7102 137.58C74.1662 137.58 74.5862 137.668 74.9702 137.844C75.3542 138.012 75.6742 138.264 75.9302 138.6V135.096H77.0822ZM73.8062 143.064C74.2062 143.064 74.5702 142.972 74.8982 142.788C75.2262 142.596 75.4822 142.332 75.6662 141.996C75.8502 141.652 75.9422 141.26 75.9422 140.82C75.9422 140.38 75.8502 139.992 75.6662 139.656C75.4822 139.312 75.2262 139.048 74.8982 138.864C74.5702 138.68 74.2062 138.588 73.8062 138.588C73.3982 138.588 73.0302 138.68 72.7022 138.864C72.3822 139.048 72.1262 139.312 71.9342 139.656C71.7502 139.992 71.6582 140.38 71.6582 140.82C71.6582 141.26 71.7502 141.652 71.9342 141.996C72.1262 142.332 72.3822 142.596 72.7022 142.788C73.0302 142.972 73.3982 143.064 73.8062 143.064ZM88.4846 135.096V144H87.3806V142.992C87.1246 143.344 86.8006 143.612 86.4086 143.796C86.0166 143.98 85.5846 144.072 85.1126 144.072C84.4966 144.072 83.9446 143.936 83.4566 143.664C82.9686 143.392 82.5846 143.012 82.3046 142.524C82.0326 142.028 81.8966 141.46 81.8966 140.82C81.8966 140.18 82.0326 139.616 82.3046 139.128C82.5846 138.64 82.9686 138.26 83.4566 137.988C83.9446 137.716 84.4966 137.58 85.1126 137.58C85.5686 137.58 85.9886 137.668 86.3726 137.844C86.7566 138.012 87.0766 138.264 87.3326 138.6V135.096H88.4846ZM85.2086 143.064C85.6086 143.064 85.9726 142.972 86.3006 142.788C86.6286 142.596 86.8846 142.332 87.0686 141.996C87.2526 141.652 87.3446 141.26 87.3446 140.82C87.3446 140.38 87.2526 139.992 87.0686 139.656C86.8846 139.312 86.6286 139.048 86.3006 138.864C85.9726 138.68 85.6086 138.588 85.2086 138.588C84.8006 138.588 84.4326 138.68 84.1046 138.864C83.7846 139.048 83.5286 139.312 83.3366 139.656C83.1526 139.992 83.0606 140.38 83.0606 140.82C83.0606 141.26 83.1526 141.652 83.3366 141.996C83.5286 142.332 83.7846 142.596 84.1046 142.788C84.4326 142.972 84.8006 143.064 85.2086 143.064ZM96.4123 140.856C96.4123 140.944 96.4043 141.06 96.3883 141.204H91.2283C91.3003 141.764 91.5443 142.216 91.9603 142.56C92.3843 142.896 92.9083 143.064 93.5323 143.064C94.2923 143.064 94.9043 142.808 95.3683 142.296L96.0043 143.04C95.7163 143.376 95.3563 143.632 94.9243 143.808C94.5003 143.984 94.0243 144.072 93.4963 144.072C92.8243 144.072 92.2283 143.936 91.7083 143.664C91.1883 143.384 90.7843 142.996 90.4963 142.5C90.2163 142.004 90.0763 141.444 90.0763 140.82C90.0763 140.204 90.2123 139.648 90.4843 139.152C90.7643 138.656 91.1443 138.272 91.6243 138C92.1123 137.72 92.6603 137.58 93.2683 137.58C93.8763 137.58 94.4163 137.72 94.8883 138C95.3683 138.272 95.7403 138.656 96.0043 139.152C96.2763 139.648 96.4123 140.216 96.4123 140.856ZM93.2683 138.552C92.7163 138.552 92.2523 138.72 91.8763 139.056C91.5083 139.392 91.2923 139.832 91.2283 140.376H95.3083C95.2443 139.84 95.0243 139.404 94.6483 139.068C94.2803 138.724 93.8203 138.552 93.2683 138.552ZM99.8359 144.072C99.3159 144.072 98.8159 144.004 98.3359 143.868C97.8559 143.724 97.4799 143.544 97.2079 143.328L97.6879 142.416C97.9679 142.616 98.3079 142.776 98.7079 142.896C99.1079 143.016 99.5119 143.076 99.9199 143.076C100.928 143.076 101.432 142.788 101.432 142.212C101.432 142.02 101.364 141.868 101.228 141.756C101.092 141.644 100.92 141.564 100.712 141.516C100.512 141.46 100.224 141.4 99.8479 141.336C99.3359 141.256 98.9159 141.164 98.5879 141.06C98.2679 140.956 97.9919 140.78 97.7599 140.532C97.5279 140.284 97.4119 139.936 97.4119 139.488C97.4119 138.912 97.6519 138.452 98.1319 138.108C98.6119 137.756 99.2559 137.58 100.064 137.58C100.488 137.58 100.912 137.632 101.336 137.736C101.76 137.84 102.108 137.98 102.38 138.156L101.888 139.068C101.368 138.732 100.756 138.564 100.052 138.564C99.5639 138.564 99.1919 138.644 98.9359 138.804C98.6799 138.964 98.5519 139.176 98.5519 139.44C98.5519 139.648 98.6239 139.812 98.7679 139.932C98.9119 140.052 99.0879 140.14 99.2959 140.196C99.5119 140.252 99.8119 140.316 100.196 140.388C100.708 140.476 101.12 140.572 101.432 140.676C101.752 140.772 102.024 140.94 102.248 141.18C102.472 141.42 102.584 141.756 102.584 142.188C102.584 142.764 102.336 143.224 101.84 143.568C101.352 143.904 100.684 144.072 99.8359 144.072ZM110.024 135.096V144H108.92V142.992C108.664 143.344 108.34 143.612 107.948 143.796C107.556 143.98 107.124 144.072 106.652 144.072C106.036 144.072 105.484 143.936 104.996 143.664C104.508 143.392 104.124 143.012 103.844 142.524C103.572 142.028 103.436 141.46 103.436 140.82C103.436 140.18 103.572 139.616 103.844 139.128C104.124 138.64 104.508 138.26 104.996 137.988C105.484 137.716 106.036 137.58 106.652 137.58C107.108 137.58 107.528 137.668 107.912 137.844C108.296 138.012 108.616 138.264 108.872 138.6V135.096H110.024ZM106.748 143.064C107.148 143.064 107.512 142.972 107.84 142.788C108.168 142.596 108.424 142.332 108.608 141.996C108.792 141.652 108.884 141.26 108.884 140.82C108.884 140.38 108.792 139.992 108.608 139.656C108.424 139.312 108.168 139.048 107.84 138.864C107.512 138.68 107.148 138.588 106.748 138.588C106.34 138.588 105.972 138.68 105.644 138.864C105.324 139.048 105.068 139.312 104.876 139.656C104.692 139.992 104.6 140.38 104.6 140.82C104.6 141.26 104.692 141.652 104.876 141.996C105.068 142.332 105.324 142.596 105.644 142.788C105.972 142.972 106.34 143.064 106.748 143.064ZM117.951 140.856C117.951 140.944 117.943 141.06 117.927 141.204H112.767C112.839 141.764 113.083 142.216 113.499 142.56C113.923 142.896 114.447 143.064 115.071 143.064C115.831 143.064 116.443 142.808 116.907 142.296L117.543 143.04C117.255 143.376 116.895 143.632 116.463 143.808C116.039 143.984 115.563 144.072 115.035 144.072C114.363 144.072 113.767 143.936 113.247 143.664C112.727 143.384 112.323 142.996 112.035 142.5C111.755 142.004 111.615 141.444 111.615 140.82C111.615 140.204 111.751 139.648 112.023 139.152C112.303 138.656 112.683 138.272 113.163 138C113.651 137.72 114.199 137.58 114.807 137.58C115.415 137.58 115.955 137.72 116.427 138C116.907 138.272 117.279 138.656 117.543 139.152C117.815 139.648 117.951 140.216 117.951 140.856ZM114.807 138.552C114.255 138.552 113.791 138.72 113.415 139.056C113.047 139.392 112.831 139.832 112.767 140.376H116.847C116.783 139.84 116.563 139.404 116.187 139.068C115.819 138.724 115.359 138.552 114.807 138.552ZM122.774 135.096H123.926V144H122.774V135.096ZM128.441 137.58C129.321 137.58 129.993 137.796 130.457 138.228C130.929 138.66 131.165 139.304 131.165 140.16V144H130.073V143.16C129.881 143.456 129.605 143.684 129.245 143.844C128.893 143.996 128.473 144.072 127.985 144.072C127.273 144.072 126.701 143.9 126.269 143.556C125.845 143.212 125.633 142.76 125.633 142.2C125.633 141.64 125.837 141.192 126.245 140.856C126.653 140.512 127.301 140.34 128.189 140.34H130.013V140.112C130.013 139.616 129.869 139.236 129.581 138.972C129.293 138.708 128.869 138.576 128.309 138.576C127.933 138.576 127.565 138.64 127.205 138.768C126.845 138.888 126.541 139.052 126.293 139.26L125.813 138.396C126.141 138.132 126.533 137.932 126.989 137.796C127.445 137.652 127.929 137.58 128.441 137.58ZM128.177 143.184C128.617 143.184 128.997 143.088 129.317 142.896C129.637 142.696 129.869 142.416 130.013 142.056V141.168H128.237C127.261 141.168 126.773 141.496 126.773 142.152C126.773 142.472 126.897 142.724 127.145 142.908C127.393 143.092 127.737 143.184 128.177 143.184ZM135.121 144.072C134.601 144.072 134.101 144.004 133.621 143.868C133.141 143.724 132.765 143.544 132.493 143.328L132.973 142.416C133.253 142.616 133.593 142.776 133.993 142.896C134.393 143.016 134.797 143.076 135.205 143.076C136.213 143.076 136.717 142.788 136.717 142.212C136.717 142.02 136.649 141.868 136.513 141.756C136.377 141.644 136.205 141.564 135.997 141.516C135.797 141.46 135.509 141.4 135.133 141.336C134.621 141.256 134.201 141.164 133.873 141.06C133.553 140.956 133.277 140.78 133.045 140.532C132.813 140.284 132.697 139.936 132.697 139.488C132.697 138.912 132.937 138.452 133.417 138.108C133.897 137.756 134.541 137.58 135.349 137.58C135.773 137.58 136.197 137.632 136.621 137.736C137.045 137.84 137.393 137.98 137.665 138.156L137.173 139.068C136.653 138.732 136.041 138.564 135.337 138.564C134.849 138.564 134.477 138.644 134.221 138.804C133.965 138.964 133.837 139.176 133.837 139.44C133.837 139.648 133.909 139.812 134.053 139.932C134.197 140.052 134.373 140.14 134.581 140.196C134.797 140.252 135.097 140.316 135.481 140.388C135.993 140.476 136.405 140.572 136.717 140.676C137.037 140.772 137.309 140.94 137.533 141.18C137.757 141.42 137.869 141.756 137.869 142.188C137.869 142.764 137.621 143.224 137.125 143.568C136.637 143.904 135.969 144.072 135.121 144.072ZM68.299 155.856C68.299 155.944 68.291 156.06 68.275 156.204H63.115C63.187 156.764 63.431 157.216 63.847 157.56C64.271 157.896 64.795 158.064 65.419 158.064C66.179 158.064 66.791 157.808 67.255 157.296L67.891 158.04C67.603 158.376 67.243 158.632 66.811 158.808C66.387 158.984 65.911 159.072 65.383 159.072C64.711 159.072 64.115 158.936 63.595 158.664C63.075 158.384 62.671 157.996 62.383 157.5C62.103 157.004 61.963 156.444 61.963 155.82C61.963 155.204 62.099 154.648 62.371 154.152C62.651 153.656 63.031 153.272 63.511 153C63.999 152.72 64.547 152.58 65.155 152.58C65.763 152.58 66.303 152.72 66.775 153C67.255 153.272 67.627 153.656 67.891 154.152C68.163 154.648 68.299 155.216 68.299 155.856ZM65.155 153.552C64.603 153.552 64.139 153.72 63.763 154.056C63.395 154.392 63.179 154.832 63.115 155.376H67.195C67.131 154.84 66.911 154.404 66.535 154.068C66.167 153.724 65.707 153.552 65.155 153.552ZM71.7226 159.072C71.2026 159.072 70.7026 159.004 70.2226 158.868C69.7426 158.724 69.3666 158.544 69.0946 158.328L69.5746 157.416C69.8546 157.616 70.1946 157.776 70.5946 157.896C70.9946 158.016 71.3986 158.076 71.8066 158.076C72.8146 158.076 73.3186 157.788 73.3186 157.212C73.3186 157.02 73.2506 156.868 73.1146 156.756C72.9786 156.644 72.8066 156.564 72.5986 156.516C72.3986 156.46 72.1106 156.4 71.7346 156.336C71.2226 156.256 70.8026 156.164 70.4746 156.06C70.1546 155.956 69.8786 155.78 69.6466 155.532C69.4146 155.284 69.2986 154.936 69.2986 154.488C69.2986 153.912 69.5386 153.452 70.0186 153.108C70.4986 152.756 71.1426 152.58 71.9506 152.58C72.3746 152.58 72.7986 152.632 73.2226 152.736C73.6466 152.84 73.9946 152.98 74.2666 153.156L73.7746 154.068C73.2546 153.732 72.6426 153.564 71.9386 153.564C71.4506 153.564 71.0786 153.644 70.8226 153.804C70.5666 153.964 70.4386 154.176 70.4386 154.44C70.4386 154.648 70.5106 154.812 70.6546 154.932C70.7986 155.052 70.9746 155.14 71.1826 155.196C71.3986 155.252 71.6986 155.316 72.0826 155.388C72.5946 155.476 73.0066 155.572 73.3186 155.676C73.6386 155.772 73.9106 155.94 74.1346 156.18C74.3586 156.42 74.4706 156.756 74.4706 157.188C74.4706 157.764 74.2226 158.224 73.7266 158.568C73.2386 158.904 72.5706 159.072 71.7226 159.072ZM81.9104 152.64V161.328H80.7584V158.04C80.4944 158.376 80.1704 158.632 79.7864 158.808C79.4104 158.984 78.9944 159.072 78.5384 159.072C77.9224 159.072 77.3704 158.936 76.8824 158.664C76.3944 158.392 76.0104 158.012 75.7304 157.524C75.4584 157.028 75.3224 156.46 75.3224 155.82C75.3224 155.18 75.4584 154.616 75.7304 154.128C76.0104 153.64 76.3944 153.26 76.8824 152.988C77.3704 152.716 77.9224 152.58 78.5384 152.58C79.0104 152.58 79.4424 152.672 79.8344 152.856C80.2264 153.032 80.5504 153.296 80.8064 153.648V152.64H81.9104ZM78.6344 158.064C79.0344 158.064 79.3984 157.972 79.7264 157.788C80.0544 157.596 80.3104 157.332 80.4944 156.996C80.6784 156.652 80.7704 156.26 80.7704 155.82C80.7704 155.38 80.6744 154.992 80.4824 154.656C80.2984 154.32 80.0424 154.06 79.7144 153.876C79.3944 153.684 79.0344 153.588 78.6344 153.588C78.2264 153.588 77.8584 153.68 77.5304 153.864C77.2104 154.048 76.9544 154.312 76.7624 154.656C76.5784 154.992 76.4864 155.38 76.4864 155.82C76.4864 156.26 76.5784 156.652 76.7624 156.996C76.9544 157.332 77.2104 157.596 77.5304 157.788C77.8584 157.972 78.2264 158.064 78.6344 158.064ZM90.018 152.64V159H88.926V158.04C88.694 158.368 88.386 158.624 88.002 158.808C87.626 158.984 87.214 159.072 86.766 159.072C85.918 159.072 85.25 158.84 84.762 158.376C84.274 157.904 84.03 157.212 84.03 156.3V152.64H85.182V156.168C85.182 156.784 85.33 157.252 85.626 157.572C85.922 157.884 86.346 158.04 86.898 158.04C87.506 158.04 87.986 157.856 88.338 157.488C88.69 157.12 88.866 156.6 88.866 155.928V152.64H90.018ZM92.2111 152.64H93.3631V159H92.2111V152.64ZM92.7871 151.416C92.5631 151.416 92.3751 151.344 92.2231 151.2C92.0791 151.056 92.0071 150.88 92.0071 150.672C92.0071 150.464 92.0791 150.288 92.2231 150.144C92.3751 149.992 92.5631 149.916 92.7871 149.916C93.0111 149.916 93.1951 149.988 93.3391 150.132C93.4911 150.268 93.5671 150.44 93.5671 150.648C93.5671 150.864 93.4911 151.048 93.3391 151.2C93.1951 151.344 93.0111 151.416 92.7871 151.416ZM98.9587 152.58C99.7667 152.58 100.407 152.816 100.879 153.288C101.359 153.752 101.599 154.436 101.599 155.34V159H100.447V155.472C100.447 154.856 100.299 154.392 100.003 154.08C99.7067 153.768 99.2827 153.612 98.7307 153.612C98.1067 153.612 97.6147 153.796 97.2547 154.164C96.8947 154.524 96.7147 155.044 96.7147 155.724V159H95.5627V152.64H96.6667V153.6C96.8987 153.272 97.2107 153.02 97.6027 152.844C98.0027 152.668 98.4547 152.58 98.9587 152.58ZM106.047 152.58C106.927 152.58 107.599 152.796 108.063 153.228C108.535 153.66 108.771 154.304 108.771 155.16V159H107.679V158.16C107.487 158.456 107.211 158.684 106.851 158.844C106.499 158.996 106.079 159.072 105.591 159.072C104.879 159.072 104.307 158.9 103.875 158.556C103.451 158.212 103.239 157.76 103.239 157.2C103.239 156.64 103.443 156.192 103.851 155.856C104.259 155.512 104.907 155.34 105.795 155.34H107.619V155.112C107.619 154.616 107.475 154.236 107.187 153.972C106.899 153.708 106.475 153.576 105.915 153.576C105.539 153.576 105.171 153.64 104.811 153.768C104.451 153.888 104.147 154.052 103.899 154.26L103.419 153.396C103.747 153.132 104.139 152.932 104.595 152.796C105.051 152.652 105.535 152.58 106.047 152.58ZM105.783 158.184C106.223 158.184 106.603 158.088 106.923 157.896C107.243 157.696 107.475 157.416 107.619 157.056V156.168H105.843C104.867 156.168 104.379 156.496 104.379 157.152C104.379 157.472 104.503 157.724 104.751 157.908C104.999 158.092 105.343 158.184 105.783 158.184ZM112.727 159.072C112.207 159.072 111.707 159.004 111.227 158.868C110.747 158.724 110.371 158.544 110.099 158.328L110.579 157.416C110.859 157.616 111.199 157.776 111.599 157.896C111.999 158.016 112.403 158.076 112.811 158.076C113.819 158.076 114.323 157.788 114.323 157.212C114.323 157.02 114.255 156.868 114.119 156.756C113.983 156.644 113.811 156.564 113.603 156.516C113.403 156.46 113.115 156.4 112.739 156.336C112.227 156.256 111.807 156.164 111.479 156.06C111.159 155.956 110.883 155.78 110.651 155.532C110.419 155.284 110.303 154.936 110.303 154.488C110.303 153.912 110.543 153.452 111.023 153.108C111.503 152.756 112.147 152.58 112.955 152.58C113.379 152.58 113.803 152.632 114.227 152.736C114.651 152.84 114.999 152.98 115.271 153.156L114.779 154.068C114.259 153.732 113.647 153.564 112.943 153.564C112.455 153.564 112.083 153.644 111.827 153.804C111.571 153.964 111.443 154.176 111.443 154.44C111.443 154.648 111.515 154.812 111.659 154.932C111.803 155.052 111.979 155.14 112.187 155.196C112.403 155.252 112.703 155.316 113.087 155.388C113.599 155.476 114.011 155.572 114.323 155.676C114.643 155.772 114.915 155.94 115.139 156.18C115.363 156.42 115.475 156.756 115.475 157.188C115.475 157.764 115.227 158.224 114.731 158.568C114.243 158.904 113.575 159.072 112.727 159.072ZM117.19 159.072C116.966 159.072 116.774 158.996 116.614 158.844C116.454 158.684 116.374 158.484 116.374 158.244C116.374 158.012 116.454 157.82 116.614 157.668C116.774 157.508 116.966 157.428 117.19 157.428C117.414 157.428 117.602 157.504 117.754 157.656C117.906 157.808 117.982 158.004 117.982 158.244C117.982 158.484 117.902 158.684 117.742 158.844C117.59 158.996 117.406 159.072 117.19 159.072Z" fill="#008E86"/>
<rect x="44.7314" y="55" width="63.6396" height="63.6396" transform="rotate(-45 44.7314 55)" fill="#00D8CC" stroke="#00635D" stroke-width="2" stroke-linejoin="round"/>
<path d="M89.7998 14.314V96.2812" stroke="#00635D" stroke-width="2" stroke-dasharray="4 6"/>
<path d="M49.3096 53.1407C49.3096 53.693 49.7573 54.1407 50.3096 54.1407H59.3096C59.8619 54.1407 60.3096 53.693 60.3096 53.1407C60.3096 52.5884 59.8619 52.1407 59.3096 52.1407L51.3096 52.1407L51.3096 44.1407C51.3096 43.5884 50.8619 43.1407 50.3096 43.1407C49.7573 43.1407 49.3096 43.5884 49.3096 44.1407L49.3096 53.1407ZM129.622 54.1407C130.174 54.1407 130.622 53.693 130.622 53.1407V44.1407C130.622 43.5884 130.174 43.1407 129.622 43.1407C129.07 43.1407 128.622 43.5884 128.622 44.1407V52.1407L120.622 52.1407C120.07 52.1407 119.622 52.5884 119.622 53.1407C119.622 53.693 120.07 54.1407 120.622 54.1407H129.622ZM51.0167 53.8478C62.4456 42.4189 76.1297 37.2163 89.7998 37.2163V35.2163C75.5945 35.2163 61.4031 40.633 49.6025 52.4336L51.0167 53.8478ZM89.7998 37.2163C96.5831 37.2163 104.322 39.3219 111.42 42.481C118.517 45.6398 124.876 49.8085 128.915 53.8478L130.329 52.4336C126.072 48.1766 119.489 43.8831 112.233 40.6538C104.978 37.4248 96.9544 35.2163 89.7998 35.2163V37.2163Z" fill="black"/>
</g>
<defs>
<clipPath id="clip0_5693_197635">
<rect width="180" height="180" rx="20" fill="white"/>
</clipPath>
<clipPath id="clip1_5693_197635">
<path d="M0 30L-1.31134e-06 0L30 -1.31134e-06L30 10C30 21.0457 21.0457 30 10 30L0 30Z" fill="white"/>
</clipPath>
</defs>
</svg>
