<svg width="180" height="180" viewBox="0 0 180 180" fill="none" xmlns="http://www.w3.org/2000/svg">
<g clip-path="url(#clip0_5693_197643)">
<rect width="180" height="180" rx="20" fill="#F2F2F2"/>
<g clip-path="url(#clip1_5693_197643)">
<path d="M0 30L-1.31134e-06 0L30 -1.31134e-06L30 10C30 21.0457 21.0457 30 10 30L0 30Z" fill="#333333"/>
<path d="M18.0068 15.112C18.5614 15.3893 18.9828 15.752 19.2708 16.2C19.5694 16.648 19.7188 17.1653 19.7188 17.752C19.7188 18.4453 19.5214 19.0533 19.1267 19.576C18.7321 20.088 18.1774 20.488 17.4628 20.776C16.7481 21.0533 15.9214 21.192 14.9828 21.192C14.0441 21.192 13.2174 21.0533 12.5028 20.776C11.7988 20.488 11.2494 20.088 10.8548 19.576C10.4708 19.0533 10.2788 18.4453 10.2788 17.752C10.2788 17.1653 10.4228 16.648 10.7108 16.2C11.0094 15.752 11.4308 15.3893 11.9748 15.112C11.5588 14.856 11.2388 14.536 11.0148 14.152C10.7908 13.7573 10.6788 13.3093 10.6788 12.808C10.6788 12.1573 10.8601 11.592 11.2228 11.112C11.5854 10.632 12.0921 10.264 12.7428 10.008C13.3934 9.74133 14.1401 9.608 14.9828 9.608C15.8361 9.608 16.5881 9.74133 17.2388 10.008C17.9001 10.264 18.4121 10.632 18.7748 11.112C19.1374 11.592 19.3188 12.1573 19.3188 12.808C19.3188 13.3093 19.2068 13.7573 18.9828 14.152C18.7588 14.536 18.4334 14.856 18.0068 15.112ZM14.9828 11.512C14.4601 11.512 14.0388 11.64 13.7188 11.896C13.4094 12.1413 13.2548 12.4827 13.2548 12.92C13.2548 13.3467 13.4094 13.6827 13.7188 13.928C14.0281 14.1733 14.4494 14.296 14.9828 14.296C15.5161 14.296 15.9428 14.1733 16.2628 13.928C16.5828 13.6827 16.7428 13.3467 16.7428 12.92C16.7428 12.4827 16.5828 12.1413 16.2628 11.896C15.9428 11.64 15.5161 11.512 14.9828 11.512ZM14.9828 19.288C15.6334 19.288 16.1454 19.144 16.5188 18.856C16.9028 18.5573 17.0948 18.1627 17.0948 17.672C17.0948 17.1813 16.9028 16.792 16.5188 16.504C16.1454 16.216 15.6334 16.072 14.9828 16.072C14.3428 16.072 13.8361 16.216 13.4628 16.504C13.0894 16.792 12.9028 17.1813 12.9028 17.672C12.9028 18.1733 13.0894 18.568 13.4628 18.856C13.8361 19.144 14.3428 19.288 14.9828 19.288Z" fill="#F2F2F2"/>
</g>
<path d="M13.5002 120.6H17.0402C17.9282 120.6 18.7162 120.776 19.4042 121.128C20.0922 121.48 20.6242 121.976 21.0002 122.616C21.3842 123.248 21.5762 123.976 21.5762 124.8C21.5762 125.624 21.3842 126.356 21.0002 126.996C20.6242 127.628 20.0922 128.12 19.4042 128.472C18.7162 128.824 17.9282 129 17.0402 129H13.5002V120.6ZM16.9682 127.956C17.6482 127.956 18.2442 127.824 18.7562 127.56C19.2762 127.296 19.6762 126.928 19.9562 126.456C20.2362 125.976 20.3762 125.424 20.3762 124.8C20.3762 124.176 20.2362 123.628 19.9562 123.156C19.6762 122.676 19.2762 122.304 18.7562 122.04C18.2442 121.776 17.6482 121.644 16.9682 121.644H14.7002V127.956H16.9682ZM25.9703 129.072C25.3383 129.072 24.7703 128.932 24.2663 128.652C23.7623 128.372 23.3663 127.988 23.0783 127.5C22.7983 127.004 22.6583 126.444 22.6583 125.82C22.6583 125.196 22.7983 124.64 23.0783 124.152C23.3663 123.656 23.7623 123.272 24.2663 123C24.7703 122.72 25.3383 122.58 25.9703 122.58C26.6023 122.58 27.1663 122.72 27.6623 123C28.1663 123.272 28.5583 123.656 28.8383 124.152C29.1263 124.64 29.2703 125.196 29.2703 125.82C29.2703 126.444 29.1263 127.004 28.8383 127.5C28.5583 127.988 28.1663 128.372 27.6623 128.652C27.1663 128.932 26.6023 129.072 25.9703 129.072ZM25.9703 128.064C26.3783 128.064 26.7423 127.972 27.0623 127.788C27.3903 127.596 27.6463 127.332 27.8303 126.996C28.0143 126.652 28.1063 126.26 28.1063 125.82C28.1063 125.38 28.0143 124.992 27.8303 124.656C27.6463 124.312 27.3903 124.048 27.0623 123.864C26.7423 123.68 26.3783 123.588 25.9703 123.588C25.5623 123.588 25.1943 123.68 24.8663 123.864C24.5463 124.048 24.2903 124.312 24.0983 124.656C23.9143 124.992 23.8223 125.38 23.8223 125.82C23.8223 126.26 23.9143 126.652 24.0983 126.996C24.2903 127.332 24.5463 127.596 24.8663 127.788C25.1943 127.972 25.5623 128.064 25.9703 128.064ZM34.2355 122.58C34.8515 122.58 35.4035 122.716 35.8915 122.988C36.3795 123.26 36.7595 123.64 37.0315 124.128C37.3115 124.616 37.4515 125.18 37.4515 125.82C37.4515 126.46 37.3115 127.028 37.0315 127.524C36.7595 128.012 36.3795 128.392 35.8915 128.664C35.4035 128.936 34.8515 129.072 34.2355 129.072C33.7635 129.072 33.3315 128.98 32.9395 128.796C32.5475 128.612 32.2235 128.344 31.9675 127.992V129H30.8635V120.096H32.0155V123.6C32.2715 123.264 32.5915 123.012 32.9755 122.844C33.3595 122.668 33.7795 122.58 34.2355 122.58ZM34.1395 128.064C34.5475 128.064 34.9115 127.972 35.2315 127.788C35.5595 127.596 35.8155 127.332 35.9995 126.996C36.1915 126.652 36.2875 126.26 36.2875 125.82C36.2875 125.38 36.1915 124.992 35.9995 124.656C35.8155 124.312 35.5595 124.048 35.2315 123.864C34.9115 123.68 34.5475 123.588 34.1395 123.588C33.7395 123.588 33.3755 123.68 33.0475 123.864C32.7195 124.048 32.4635 124.312 32.2795 124.656C32.0955 124.992 32.0035 125.38 32.0035 125.82C32.0035 126.26 32.0955 126.652 32.2795 126.996C32.4635 127.332 32.7195 127.596 33.0475 127.788C33.3755 127.972 33.7395 128.064 34.1395 128.064ZM39.0432 120.096H40.1952V129H39.0432V120.096ZM44.7107 122.58C45.5907 122.58 46.2627 122.796 46.7267 123.228C47.1987 123.66 47.4347 124.304 47.4347 125.16V129H46.3427V128.16C46.1507 128.456 45.8747 128.684 45.5147 128.844C45.1627 128.996 44.7427 129.072 44.2547 129.072C43.5427 129.072 42.9707 128.9 42.5387 128.556C42.1147 128.212 41.9027 127.76 41.9027 127.2C41.9027 126.64 42.1067 126.192 42.5147 125.856C42.9227 125.512 43.5707 125.34 44.4587 125.34H46.2827V125.112C46.2827 124.616 46.1387 124.236 45.8507 123.972C45.5627 123.708 45.1387 123.576 44.5787 123.576C44.2027 123.576 43.8347 123.64 43.4747 123.768C43.1147 123.888 42.8107 124.052 42.5627 124.26L42.0827 123.396C42.4107 123.132 42.8027 122.932 43.2587 122.796C43.7147 122.652 44.1987 122.58 44.7107 122.58ZM44.4467 128.184C44.8867 128.184 45.2667 128.088 45.5867 127.896C45.9067 127.696 46.1387 127.416 46.2827 127.056V126.168H44.5067C43.5307 126.168 43.0427 126.496 43.0427 127.152C43.0427 127.472 43.1667 127.724 43.4147 127.908C43.6627 128.092 44.0067 128.184 44.4467 128.184ZM52.7893 120.096H53.9413V129H52.7893V120.096ZM58.4568 122.58C59.3368 122.58 60.0088 122.796 60.4728 123.228C60.9448 123.66 61.1808 124.304 61.1808 125.16V129H60.0888V128.16C59.8968 128.456 59.6208 128.684 59.2608 128.844C58.9088 128.996 58.4888 129.072 58.0008 129.072C57.2888 129.072 56.7168 128.9 56.2848 128.556C55.8608 128.212 55.6488 127.76 55.6488 127.2C55.6488 126.64 55.8528 126.192 56.2608 125.856C56.6688 125.512 57.3168 125.34 58.2048 125.34H60.0288V125.112C60.0288 124.616 59.8848 124.236 59.5968 123.972C59.3088 123.708 58.8848 123.576 58.3248 123.576C57.9488 123.576 57.5808 123.64 57.2208 123.768C56.8608 123.888 56.5568 124.052 56.3088 124.26L55.8288 123.396C56.1568 123.132 56.5488 122.932 57.0048 122.796C57.4608 122.652 57.9448 122.58 58.4568 122.58ZM58.1928 128.184C58.6328 128.184 59.0128 128.088 59.3328 127.896C59.6528 127.696 59.8848 127.416 60.0288 127.056V126.168H58.2528C57.2768 126.168 56.7888 126.496 56.7888 127.152C56.7888 127.472 56.9128 127.724 57.1608 127.908C57.4088 128.092 57.7528 128.184 58.1928 128.184ZM69.9074 122.58C70.5234 122.58 71.0754 122.716 71.5634 122.988C72.0514 123.26 72.4314 123.64 72.7034 124.128C72.9834 124.616 73.1234 125.18 73.1234 125.82C73.1234 126.46 72.9834 127.028 72.7034 127.524C72.4314 128.012 72.0514 128.392 71.5634 128.664C71.0754 128.936 70.5234 129.072 69.9074 129.072C69.4514 129.072 69.0314 128.984 68.6474 128.808C68.2714 128.632 67.9514 128.376 67.6874 128.04V131.328H66.5354V122.64H67.6394V123.648C67.8954 123.296 68.2194 123.032 68.6114 122.856C69.0034 122.672 69.4354 122.58 69.9074 122.58ZM69.8114 128.064C70.2194 128.064 70.5834 127.972 70.9034 127.788C71.2314 127.596 71.4874 127.332 71.6714 126.996C71.8634 126.652 71.9594 126.26 71.9594 125.82C71.9594 125.38 71.8634 124.992 71.6714 124.656C71.4874 124.312 71.2314 124.048 70.9034 123.864C70.5834 123.68 70.2194 123.588 69.8114 123.588C69.4114 123.588 69.0474 123.684 68.7194 123.876C68.3994 124.06 68.1434 124.32 67.9514 124.656C67.7674 124.992 67.6754 125.38 67.6754 125.82C67.6754 126.26 67.7674 126.652 67.9514 126.996C68.1354 127.332 68.3914 127.596 68.7194 127.788C69.0474 127.972 69.4114 128.064 69.8114 128.064ZM80.643 122.64V129H79.551V128.04C79.319 128.368 79.011 128.624 78.627 128.808C78.251 128.984 77.839 129.072 77.391 129.072C76.543 129.072 75.875 128.84 75.387 128.376C74.899 127.904 74.655 127.212 74.655 126.3V122.64H75.807V126.168C75.807 126.784 75.955 127.252 76.251 127.572C76.547 127.884 76.971 128.04 77.523 128.04C78.131 128.04 78.611 127.856 78.963 127.488C79.315 127.12 79.491 126.6 79.491 125.928V122.64H80.643ZM86.2321 122.58C87.0401 122.58 87.6801 122.816 88.1521 123.288C88.6321 123.752 88.8721 124.436 88.8721 125.34V129H87.7201V125.472C87.7201 124.856 87.5721 124.392 87.2761 124.08C86.9801 123.768 86.5561 123.612 86.0041 123.612C85.3801 123.612 84.8881 123.796 84.5281 124.164C84.1681 124.524 83.9881 125.044 83.9881 125.724V129H82.8361V122.64H83.9401V123.6C84.1721 123.272 84.4841 123.02 84.8761 122.844C85.2761 122.668 85.7281 122.58 86.2321 122.58ZM94.5801 128.628C94.4121 128.772 94.2041 128.884 93.9561 128.964C93.7081 129.036 93.4521 129.072 93.1881 129.072C92.5481 129.072 92.0521 128.9 91.7001 128.556C91.3481 128.212 91.1721 127.72 91.1721 127.08V123.588H90.0921V122.64H91.1721V121.248H92.3241V122.64H94.1481V123.588H92.3241V127.032C92.3241 127.376 92.4081 127.64 92.5761 127.824C92.7521 128.008 93.0001 128.1 93.3201 128.1C93.6721 128.1 93.9721 128 94.2201 127.8L94.5801 128.628ZM98.2889 122.58C99.1689 122.58 99.8409 122.796 100.305 123.228C100.777 123.66 101.013 124.304 101.013 125.16V129H99.9209V128.16C99.7289 128.456 99.4529 128.684 99.0929 128.844C98.7409 128.996 98.3209 129.072 97.8329 129.072C97.1209 129.072 96.5489 128.9 96.1169 128.556C95.6929 128.212 95.4809 127.76 95.4809 127.2C95.4809 126.64 95.6849 126.192 96.0929 125.856C96.5009 125.512 97.1489 125.34 98.0369 125.34H99.8609V125.112C99.8609 124.616 99.7169 124.236 99.4289 123.972C99.1409 123.708 98.7169 123.576 98.1569 123.576C97.7809 123.576 97.4129 123.64 97.0529 123.768C96.6929 123.888 96.3889 124.052 96.1409 124.26L95.6609 123.396C95.9889 123.132 96.3809 122.932 96.8369 122.796C97.2929 122.652 97.7769 122.58 98.2889 122.58ZM98.0249 128.184C98.4649 128.184 98.8449 128.088 99.1649 127.896C99.4849 127.696 99.7169 127.416 99.8609 127.056V126.168H98.0849C97.1089 126.168 96.6209 126.496 96.6209 127.152C96.6209 127.472 96.7449 127.724 96.9929 127.908C97.2409 128.092 97.5849 128.184 98.0249 128.184ZM106.367 122.64H107.519V129H106.367V122.64ZM106.943 121.416C106.719 121.416 106.531 121.344 106.379 121.2C106.235 121.056 106.163 120.88 106.163 120.672C106.163 120.464 106.235 120.288 106.379 120.144C106.531 119.992 106.719 119.916 106.943 119.916C107.167 119.916 107.351 119.988 107.495 120.132C107.647 120.268 107.723 120.44 107.723 120.648C107.723 120.864 107.647 121.048 107.495 121.2C107.351 121.344 107.167 121.416 106.943 121.416ZM113.115 122.58C113.923 122.58 114.563 122.816 115.035 123.288C115.515 123.752 115.755 124.436 115.755 125.34V129H114.603V125.472C114.603 124.856 114.455 124.392 114.159 124.08C113.863 123.768 113.439 123.612 112.887 123.612C112.263 123.612 111.771 123.796 111.411 124.164C111.051 124.524 110.871 125.044 110.871 125.724V129H109.719V122.64H110.823V123.6C111.055 123.272 111.367 123.02 111.759 122.844C112.159 122.668 112.611 122.58 113.115 122.58ZM120.215 120.972C119.527 120.972 119.183 121.344 119.183 122.088V122.64H121.031V123.588H119.207V129H118.055V123.588H116.975V122.64H118.055V122.076C118.055 121.444 118.239 120.944 118.607 120.576C118.975 120.208 119.491 120.024 120.155 120.024C120.411 120.024 120.651 120.056 120.875 120.12C121.099 120.184 121.291 120.276 121.451 120.396L121.103 121.272C120.839 121.072 120.543 120.972 120.215 120.972ZM127.772 125.856C127.772 125.944 127.764 126.06 127.748 126.204H122.588C122.66 126.764 122.904 127.216 123.32 127.56C123.744 127.896 124.268 128.064 124.892 128.064C125.652 128.064 126.264 127.808 126.728 127.296L127.364 128.04C127.076 128.376 126.716 128.632 126.284 128.808C125.86 128.984 125.384 129.072 124.856 129.072C124.184 129.072 123.588 128.936 123.068 128.664C122.548 128.384 122.144 127.996 121.856 127.5C121.576 127.004 121.436 126.444 121.436 125.82C121.436 125.204 121.572 124.648 121.844 124.152C122.124 123.656 122.504 123.272 122.984 123C123.472 122.72 124.02 122.58 124.628 122.58C125.236 122.58 125.776 122.72 126.248 123C126.728 123.272 127.1 123.656 127.364 124.152C127.636 124.648 127.772 125.216 127.772 125.856ZM124.628 123.552C124.076 123.552 123.612 123.72 123.236 124.056C122.868 124.392 122.652 124.832 122.588 125.376H126.668C126.604 124.84 126.384 124.404 126.008 124.068C125.64 123.724 125.18 123.552 124.628 123.552ZM130.475 123.708C130.675 123.34 130.971 123.06 131.363 122.868C131.755 122.676 132.231 122.58 132.791 122.58V123.696C132.727 123.688 132.639 123.684 132.527 123.684C131.903 123.684 131.411 123.872 131.051 124.248C130.699 124.616 130.523 125.144 130.523 125.832V129H129.371V122.64H130.475V123.708ZM134.211 122.64H135.363V129H134.211V122.64ZM134.787 121.416C134.563 121.416 134.375 121.344 134.223 121.2C134.079 121.056 134.007 120.88 134.007 120.672C134.007 120.464 134.079 120.288 134.223 120.144C134.375 119.992 134.563 119.916 134.787 119.916C135.011 119.916 135.195 119.988 135.339 120.132C135.491 120.268 135.567 120.44 135.567 120.648C135.567 120.864 135.491 121.048 135.339 121.2C135.195 121.344 135.011 121.416 134.787 121.416ZM140.287 129.072C139.655 129.072 139.087 128.932 138.583 128.652C138.079 128.372 137.683 127.988 137.395 127.5C137.115 127.004 136.975 126.444 136.975 125.82C136.975 125.196 137.115 124.64 137.395 124.152C137.683 123.656 138.079 123.272 138.583 123C139.087 122.72 139.655 122.58 140.287 122.58C140.919 122.58 141.483 122.72 141.979 123C142.483 123.272 142.875 123.656 143.155 124.152C143.443 124.64 143.587 125.196 143.587 125.82C143.587 126.444 143.443 127.004 143.155 127.5C142.875 127.988 142.483 128.372 141.979 128.652C141.483 128.932 140.919 129.072 140.287 129.072ZM140.287 128.064C140.695 128.064 141.059 127.972 141.379 127.788C141.707 127.596 141.963 127.332 142.147 126.996C142.331 126.652 142.423 126.26 142.423 125.82C142.423 125.38 142.331 124.992 142.147 124.656C141.963 124.312 141.707 124.048 141.379 123.864C141.059 123.68 140.695 123.588 140.287 123.588C139.879 123.588 139.511 123.68 139.183 123.864C138.863 124.048 138.607 124.312 138.415 124.656C138.231 124.992 138.139 125.38 138.139 125.82C138.139 126.26 138.231 126.652 138.415 126.996C138.607 127.332 138.863 127.596 139.183 127.788C139.511 127.972 139.879 128.064 140.287 128.064ZM146.284 123.708C146.484 123.34 146.78 123.06 147.172 122.868C147.564 122.676 148.04 122.58 148.6 122.58V123.696C148.536 123.688 148.448 123.684 148.336 123.684C147.712 123.684 147.22 123.872 146.86 124.248C146.508 124.616 146.332 125.144 146.332 125.832V129H145.18V122.64H146.284V123.708ZM159.324 120.096V129H158.22V127.992C157.964 128.344 157.64 128.612 157.248 128.796C156.856 128.98 156.424 129.072 155.952 129.072C155.336 129.072 154.784 128.936 154.296 128.664C153.808 128.392 153.424 128.012 153.144 127.524C152.872 127.028 152.736 126.46 152.736 125.82C152.736 125.18 152.872 124.616 153.144 124.128C153.424 123.64 153.808 123.26 154.296 122.988C154.784 122.716 155.336 122.58 155.952 122.58C156.408 122.58 156.828 122.668 157.212 122.844C157.596 123.012 157.916 123.264 158.172 123.6V120.096H159.324ZM156.048 128.064C156.448 128.064 156.812 127.972 157.14 127.788C157.468 127.596 157.724 127.332 157.908 126.996C158.092 126.652 158.184 126.26 158.184 125.82C158.184 125.38 158.092 124.992 157.908 124.656C157.724 124.312 157.468 124.048 157.14 123.864C156.812 123.68 156.448 123.588 156.048 123.588C155.64 123.588 155.272 123.68 154.944 123.864C154.624 124.048 154.368 124.312 154.176 124.656C153.992 124.992 153.9 125.38 153.9 125.82C153.9 126.26 153.992 126.652 154.176 126.996C154.368 127.332 154.624 127.596 154.944 127.788C155.272 127.972 155.64 128.064 156.048 128.064ZM167.252 125.856C167.252 125.944 167.244 126.06 167.228 126.204H162.068C162.14 126.764 162.384 127.216 162.8 127.56C163.224 127.896 163.748 128.064 164.372 128.064C165.132 128.064 165.744 127.808 166.208 127.296L166.844 128.04C166.556 128.376 166.196 128.632 165.764 128.808C165.34 128.984 164.864 129.072 164.336 129.072C163.664 129.072 163.068 128.936 162.548 128.664C162.028 128.384 161.624 127.996 161.336 127.5C161.056 127.004 160.916 126.444 160.916 125.82C160.916 125.204 161.052 124.648 161.324 124.152C161.604 123.656 161.984 123.272 162.464 123C162.952 122.72 163.5 122.58 164.108 122.58C164.716 122.58 165.256 122.72 165.728 123C166.208 123.272 166.58 123.656 166.844 124.152C167.116 124.648 167.252 125.216 167.252 125.856ZM164.108 123.552C163.556 123.552 163.092 123.72 162.716 124.056C162.348 124.392 162.132 124.832 162.068 125.376H166.148C166.084 124.84 165.864 124.404 165.488 124.068C165.12 123.724 164.66 123.552 164.108 123.552ZM17.0471 135.096H18.1991V144H17.0471V135.096ZM22.7146 137.58C23.5946 137.58 24.2666 137.796 24.7306 138.228C25.2026 138.66 25.4386 139.304 25.4386 140.16V144H24.3466V143.16C24.1546 143.456 23.8786 143.684 23.5186 143.844C23.1666 143.996 22.7466 144.072 22.2586 144.072C21.5466 144.072 20.9746 143.9 20.5426 143.556C20.1186 143.212 19.9066 142.76 19.9066 142.2C19.9066 141.64 20.1106 141.192 20.5186 140.856C20.9266 140.512 21.5746 140.34 22.4626 140.34H24.2866V140.112C24.2866 139.616 24.1426 139.236 23.8546 138.972C23.5666 138.708 23.1426 138.576 22.5826 138.576C22.2066 138.576 21.8386 138.64 21.4786 138.768C21.1186 138.888 20.8146 139.052 20.5666 139.26L20.0866 138.396C20.4146 138.132 20.8066 137.932 21.2626 137.796C21.7186 137.652 22.2026 137.58 22.7146 137.58ZM22.4506 143.184C22.8906 143.184 23.2706 143.088 23.5906 142.896C23.9106 142.696 24.1426 142.416 24.2866 142.056V141.168H22.5106C21.5346 141.168 21.0466 141.496 21.0466 142.152C21.0466 142.472 21.1706 142.724 21.4186 142.908C21.6666 143.092 22.0106 143.184 22.4506 143.184ZM33.1212 135.972C32.4332 135.972 32.0892 136.344 32.0892 137.088V137.64H33.9372V138.588H32.1132V144H30.9612V138.588H29.8812V137.64H30.9612V137.076C30.9612 136.444 31.1452 135.944 31.5132 135.576C31.8812 135.208 32.3972 135.024 33.0612 135.024C33.3172 135.024 33.5572 135.056 33.7812 135.12C34.0052 135.184 34.1972 135.276 34.3572 135.396L34.0092 136.272C33.7452 136.072 33.4492 135.972 33.1212 135.972ZM35.9892 137.64H37.1412V144H35.9892V137.64ZM36.5652 136.416C36.3412 136.416 36.1532 136.344 36.0012 136.2C35.8572 136.056 35.7852 135.88 35.7852 135.672C35.7852 135.464 35.8572 135.288 36.0012 135.144C36.1532 134.992 36.3412 134.916 36.5652 134.916C36.7892 134.916 36.9732 134.988 37.1172 135.132C37.2692 135.268 37.3452 135.44 37.3452 135.648C37.3452 135.864 37.2692 136.048 37.1172 136.2C36.9732 136.344 36.7892 136.416 36.5652 136.416ZM45.4201 137.64V143.136C45.4201 144.248 45.1441 145.068 44.5921 145.596C44.0401 146.132 43.2161 146.4 42.1201 146.4C41.5201 146.4 40.9481 146.316 40.4041 146.148C39.8601 145.988 39.4201 145.756 39.0841 145.452L39.6361 144.564C39.9321 144.82 40.2961 145.02 40.7281 145.164C41.1681 145.316 41.6201 145.392 42.0841 145.392C42.8281 145.392 43.3761 145.216 43.7281 144.864C44.0881 144.512 44.2681 143.976 44.2681 143.256V142.752C43.9961 143.08 43.6601 143.328 43.2601 143.496C42.8681 143.656 42.4401 143.736 41.9761 143.736C41.3681 143.736 40.8161 143.608 40.3201 143.352C39.8321 143.088 39.4481 142.724 39.1681 142.26C38.8881 141.788 38.7481 141.252 38.7481 140.652C38.7481 140.052 38.8881 139.52 39.1681 139.056C39.4481 138.584 39.8321 138.22 40.3201 137.964C40.8161 137.708 41.3681 137.58 41.9761 137.58C42.4561 137.58 42.9001 137.668 43.3081 137.844C43.7241 138.02 44.0641 138.28 44.3281 138.624V137.64H45.4201ZM42.1081 142.728C42.5241 142.728 42.8961 142.64 43.2241 142.464C43.5601 142.288 43.8201 142.044 44.0041 141.732C44.1961 141.412 44.2921 141.052 44.2921 140.652C44.2921 140.036 44.0881 139.54 43.6801 139.164C43.2721 138.78 42.7481 138.588 42.1081 138.588C41.4601 138.588 40.9321 138.78 40.5241 139.164C40.1161 139.54 39.9121 140.036 39.9121 140.652C39.9121 141.052 40.0041 141.412 40.1881 141.732C40.3801 142.044 40.6401 142.288 40.9681 142.464C41.3041 142.64 41.6841 142.728 42.1081 142.728ZM53.5493 137.64V144H52.4573V143.04C52.2253 143.368 51.9173 143.624 51.5333 143.808C51.1573 143.984 50.7453 144.072 50.2973 144.072C49.4493 144.072 48.7813 143.84 48.2933 143.376C47.8053 142.904 47.5613 142.212 47.5613 141.3V137.64H48.7133V141.168C48.7133 141.784 48.8613 142.252 49.1573 142.572C49.4533 142.884 49.8773 143.04 50.4293 143.04C51.0373 143.04 51.5173 142.856 51.8693 142.488C52.2213 142.12 52.3973 141.6 52.3973 140.928V137.64H53.5493ZM56.8464 138.708C57.0464 138.34 57.3424 138.06 57.7344 137.868C58.1264 137.676 58.6024 137.58 59.1624 137.58V138.696C59.0984 138.688 59.0104 138.684 58.8984 138.684C58.2744 138.684 57.7824 138.872 57.4224 139.248C57.0704 139.616 56.8944 140.144 56.8944 140.832V144H55.7424V137.64H56.8464V138.708ZM62.8865 137.58C63.7665 137.58 64.4385 137.796 64.9025 138.228C65.3745 138.66 65.6105 139.304 65.6105 140.16V144H64.5185V143.16C64.3265 143.456 64.0505 143.684 63.6905 143.844C63.3385 143.996 62.9185 144.072 62.4305 144.072C61.7185 144.072 61.1465 143.9 60.7145 143.556C60.2905 143.212 60.0785 142.76 60.0785 142.2C60.0785 141.64 60.2825 141.192 60.6905 140.856C61.0985 140.512 61.7465 140.34 62.6345 140.34H64.4585V140.112C64.4585 139.616 64.3145 139.236 64.0265 138.972C63.7385 138.708 63.3145 138.576 62.7545 138.576C62.3785 138.576 62.0105 138.64 61.6505 138.768C61.2905 138.888 60.9865 139.052 60.7385 139.26L60.2585 138.396C60.5865 138.132 60.9785 137.932 61.4345 137.796C61.8905 137.652 62.3745 137.58 62.8865 137.58ZM62.6225 143.184C63.0625 143.184 63.4425 143.088 63.7625 142.896C64.0825 142.696 64.3145 142.416 64.4585 142.056V141.168H62.6825C61.7065 141.168 61.2185 141.496 61.2185 142.152C61.2185 142.472 61.3425 142.724 61.5905 142.908C61.8385 143.092 62.1825 143.184 62.6225 143.184ZM74.361 137.58C75.169 137.58 75.809 137.816 76.281 138.288C76.761 138.752 77.001 139.436 77.001 140.34V144H75.849V140.472C75.849 139.856 75.701 139.392 75.405 139.08C75.109 138.768 74.685 138.612 74.133 138.612C73.509 138.612 73.017 138.796 72.657 139.164C72.297 139.524 72.117 140.044 72.117 140.724V144H70.965V135.096H72.117V138.54C72.357 138.236 72.669 138 73.053 137.832C73.445 137.664 73.881 137.58 74.361 137.58ZM81.449 137.58C82.329 137.58 83.001 137.796 83.465 138.228C83.937 138.66 84.173 139.304 84.173 140.16V144H83.081V143.16C82.889 143.456 82.613 143.684 82.253 143.844C81.901 143.996 81.481 144.072 80.993 144.072C80.281 144.072 79.709 143.9 79.277 143.556C78.853 143.212 78.641 142.76 78.641 142.2C78.641 141.64 78.845 141.192 79.253 140.856C79.661 140.512 80.309 140.34 81.197 140.34H83.021V140.112C83.021 139.616 82.877 139.236 82.589 138.972C82.301 138.708 81.877 138.576 81.317 138.576C80.941 138.576 80.573 138.64 80.213 138.768C79.853 138.888 79.549 139.052 79.301 139.26L78.821 138.396C79.149 138.132 79.541 137.932 79.997 137.796C80.453 137.652 80.937 137.58 81.449 137.58ZM81.185 143.184C81.625 143.184 82.005 143.088 82.325 142.896C82.645 142.696 82.877 142.416 83.021 142.056V141.168H81.245C80.269 141.168 79.781 141.496 79.781 142.152C79.781 142.472 79.905 142.724 80.153 142.908C80.401 143.092 80.745 143.184 81.185 143.184ZM89.112 144.072C88.464 144.072 87.884 143.932 87.372 143.652C86.868 143.372 86.472 142.988 86.184 142.5C85.896 142.004 85.752 141.444 85.752 140.82C85.752 140.196 85.896 139.64 86.184 139.152C86.472 138.656 86.868 138.272 87.372 138C87.884 137.72 88.464 137.58 89.112 137.58C89.688 137.58 90.2 137.696 90.648 137.928C91.104 138.16 91.456 138.496 91.704 138.936L90.828 139.5C90.628 139.196 90.38 138.968 90.084 138.816C89.788 138.664 89.46 138.588 89.1 138.588C88.684 138.588 88.308 138.68 87.972 138.864C87.644 139.048 87.384 139.312 87.192 139.656C87.008 139.992 86.916 140.38 86.916 140.82C86.916 141.268 87.008 141.664 87.192 142.008C87.384 142.344 87.644 142.604 87.972 142.788C88.308 142.972 88.684 143.064 89.1 143.064C89.46 143.064 89.788 142.988 90.084 142.836C90.38 142.684 90.628 142.456 90.828 142.152L91.704 142.704C91.456 143.144 91.104 143.484 90.648 143.724C90.2 143.956 89.688 144.072 89.112 144.072ZM93.1955 137.64H94.3475V144H93.1955V137.64ZM93.7715 136.416C93.5475 136.416 93.3595 136.344 93.2075 136.2C93.0635 136.056 92.9915 135.88 92.9915 135.672C92.9915 135.464 93.0635 135.288 93.2075 135.144C93.3595 134.992 93.5475 134.916 93.7715 134.916C93.9955 134.916 94.1795 134.988 94.3235 135.132C94.4755 135.268 94.5515 135.44 94.5515 135.648C94.5515 135.864 94.4755 136.048 94.3235 136.2C94.1795 136.344 93.9955 136.416 93.7715 136.416ZM98.8631 137.58C99.7431 137.58 100.415 137.796 100.879 138.228C101.351 138.66 101.587 139.304 101.587 140.16V144H100.495V143.16C100.303 143.456 100.027 143.684 99.6671 143.844C99.3151 143.996 98.8951 144.072 98.4071 144.072C97.6951 144.072 97.1231 143.9 96.6911 143.556C96.2671 143.212 96.0551 142.76 96.0551 142.2C96.0551 141.64 96.2591 141.192 96.6671 140.856C97.0751 140.512 97.7231 140.34 98.6111 140.34H100.435V140.112C100.435 139.616 100.291 139.236 100.003 138.972C99.7151 138.708 99.2911 138.576 98.7311 138.576C98.3551 138.576 97.9871 138.64 97.6271 138.768C97.2671 138.888 96.9631 139.052 96.7151 139.26L96.2351 138.396C96.5631 138.132 96.9551 137.932 97.4111 137.796C97.8671 137.652 98.3511 137.58 98.8631 137.58ZM98.5991 143.184C99.0391 143.184 99.4191 143.088 99.7391 142.896C100.059 142.696 100.291 142.416 100.435 142.056V141.168H98.6591C97.6831 141.168 97.1951 141.496 97.1951 142.152C97.1951 142.472 97.3191 142.724 97.5671 142.908C97.8151 143.092 98.1591 143.184 98.5991 143.184ZM109.258 137.58C110.138 137.58 110.81 137.796 111.274 138.228C111.746 138.66 111.982 139.304 111.982 140.16V144H110.89V143.16C110.698 143.456 110.422 143.684 110.062 143.844C109.71 143.996 109.29 144.072 108.802 144.072C108.09 144.072 107.518 143.9 107.086 143.556C106.662 143.212 106.45 142.76 106.45 142.2C106.45 141.64 106.654 141.192 107.062 140.856C107.47 140.512 108.118 140.34 109.006 140.34H110.83V140.112C110.83 139.616 110.686 139.236 110.398 138.972C110.11 138.708 109.686 138.576 109.126 138.576C108.75 138.576 108.382 138.64 108.022 138.768C107.662 138.888 107.358 139.052 107.11 139.26L106.63 138.396C106.958 138.132 107.35 137.932 107.806 137.796C108.262 137.652 108.746 137.58 109.258 137.58ZM108.994 143.184C109.434 143.184 109.814 143.088 110.134 142.896C110.454 142.696 110.686 142.416 110.83 142.056V141.168H109.054C108.078 141.168 107.59 141.496 107.59 142.152C107.59 142.472 107.714 142.724 107.962 142.908C108.21 143.092 108.554 143.184 108.994 143.184ZM120.149 135.096V144H119.045V142.992C118.789 143.344 118.465 143.612 118.073 143.796C117.681 143.98 117.249 144.072 116.777 144.072C116.161 144.072 115.609 143.936 115.121 143.664C114.633 143.392 114.249 143.012 113.969 142.524C113.697 142.028 113.561 141.46 113.561 140.82C113.561 140.18 113.697 139.616 113.969 139.128C114.249 138.64 114.633 138.26 115.121 137.988C115.609 137.716 116.161 137.58 116.777 137.58C117.233 137.58 117.653 137.668 118.037 137.844C118.421 138.012 118.741 138.264 118.997 138.6V135.096H120.149ZM116.873 143.064C117.273 143.064 117.637 142.972 117.965 142.788C118.293 142.596 118.549 142.332 118.733 141.996C118.917 141.652 119.009 141.26 119.009 140.82C119.009 140.38 118.917 139.992 118.733 139.656C118.549 139.312 118.293 139.048 117.965 138.864C117.637 138.68 117.273 138.588 116.873 138.588C116.465 138.588 116.097 138.68 115.769 138.864C115.449 139.048 115.193 139.312 115.001 139.656C114.817 139.992 114.725 140.38 114.725 140.82C114.725 141.26 114.817 141.652 115.001 141.996C115.193 142.332 115.449 142.596 115.769 142.788C116.097 142.972 116.465 143.064 116.873 143.064ZM128.076 140.856C128.076 140.944 128.068 141.06 128.052 141.204H122.892C122.964 141.764 123.208 142.216 123.624 142.56C124.048 142.896 124.572 143.064 125.196 143.064C125.956 143.064 126.568 142.808 127.032 142.296L127.668 143.04C127.38 143.376 127.02 143.632 126.588 143.808C126.164 143.984 125.688 144.072 125.16 144.072C124.488 144.072 123.892 143.936 123.372 143.664C122.852 143.384 122.448 142.996 122.16 142.5C121.88 142.004 121.74 141.444 121.74 140.82C121.74 140.204 121.876 139.648 122.148 139.152C122.428 138.656 122.808 138.272 123.288 138C123.776 137.72 124.324 137.58 124.932 137.58C125.54 137.58 126.08 137.72 126.552 138C127.032 138.272 127.404 138.656 127.668 139.152C127.94 139.648 128.076 140.216 128.076 140.856ZM124.932 138.552C124.38 138.552 123.916 138.72 123.54 139.056C123.172 139.392 122.956 139.832 122.892 140.376H126.972C126.908 139.84 126.688 139.404 126.312 139.068C125.944 138.724 125.484 138.552 124.932 138.552ZM133.072 137.58C133.88 137.58 134.52 137.816 134.992 138.288C135.472 138.752 135.712 139.436 135.712 140.34V144H134.56V140.472C134.56 139.856 134.412 139.392 134.116 139.08C133.82 138.768 133.396 138.612 132.844 138.612C132.22 138.612 131.728 138.796 131.368 139.164C131.008 139.524 130.828 140.044 130.828 140.724V144H129.676V137.64H130.78V138.6C131.012 138.272 131.324 138.02 131.716 137.844C132.116 137.668 132.568 137.58 133.072 137.58ZM141.42 143.628C141.252 143.772 141.044 143.884 140.796 143.964C140.548 144.036 140.292 144.072 140.028 144.072C139.388 144.072 138.892 143.9 138.54 143.556C138.188 143.212 138.012 142.72 138.012 142.08V138.588H136.932V137.64H138.012V136.248H139.164V137.64H140.988V138.588H139.164V142.032C139.164 142.376 139.248 142.64 139.416 142.824C139.592 143.008 139.84 143.1 140.16 143.1C140.512 143.1 140.812 143 141.06 142.8L141.42 143.628ZM143.917 138.708C144.117 138.34 144.413 138.06 144.805 137.868C145.197 137.676 145.673 137.58 146.233 137.58V138.696C146.169 138.688 146.081 138.684 145.969 138.684C145.345 138.684 144.853 138.872 144.493 139.248C144.141 139.616 143.965 140.144 143.965 140.832V144H142.813V137.64H143.917V138.708ZM150.318 144.072C149.686 144.072 149.118 143.932 148.614 143.652C148.11 143.372 147.714 142.988 147.426 142.5C147.146 142.004 147.006 141.444 147.006 140.82C147.006 140.196 147.146 139.64 147.426 139.152C147.714 138.656 148.11 138.272 148.614 138C149.118 137.72 149.686 137.58 150.318 137.58C150.95 137.58 151.514 137.72 152.01 138C152.514 138.272 152.906 138.656 153.186 139.152C153.474 139.64 153.618 140.196 153.618 140.82C153.618 141.444 153.474 142.004 153.186 142.5C152.906 142.988 152.514 143.372 152.01 143.652C151.514 143.932 150.95 144.072 150.318 144.072ZM150.318 143.064C150.726 143.064 151.09 142.972 151.41 142.788C151.738 142.596 151.994 142.332 152.178 141.996C152.362 141.652 152.454 141.26 152.454 140.82C152.454 140.38 152.362 139.992 152.178 139.656C151.994 139.312 151.738 139.048 151.41 138.864C151.09 138.68 150.726 138.588 150.318 138.588C149.91 138.588 149.542 138.68 149.214 138.864C148.894 139.048 148.638 139.312 148.446 139.656C148.262 139.992 148.17 140.38 148.17 140.82C148.17 141.26 148.262 141.652 148.446 141.996C148.638 142.332 148.894 142.596 149.214 142.788C149.542 142.972 149.91 143.064 150.318 143.064ZM164.062 137.64L160.978 144.636C160.706 145.284 160.386 145.74 160.018 146.004C159.658 146.268 159.222 146.4 158.71 146.4C158.398 146.4 158.094 146.348 157.798 146.244C157.51 146.148 157.27 146.004 157.078 145.812L157.57 144.948C157.898 145.26 158.278 145.416 158.71 145.416C158.99 145.416 159.222 145.34 159.406 145.188C159.598 145.044 159.77 144.792 159.922 144.432L160.126 143.988L157.318 137.64H158.518L160.738 142.728L162.934 137.64H164.062ZM33.3361 150.096H34.4881V159H33.3361V150.096ZM42.6157 152.64V159H41.5237V158.04C41.2917 158.368 40.9837 158.624 40.5997 158.808C40.2237 158.984 39.8117 159.072 39.3637 159.072C38.5157 159.072 37.8477 158.84 37.3597 158.376C36.8717 157.904 36.6277 157.212 36.6277 156.3V152.64H37.7797V156.168C37.7797 156.784 37.9277 157.252 38.2237 157.572C38.5197 157.884 38.9437 158.04 39.4957 158.04C40.1037 158.04 40.5837 157.856 40.9357 157.488C41.2877 157.12 41.4637 156.6 41.4637 155.928V152.64H42.6157ZM50.5568 155.856C50.5568 155.944 50.5488 156.06 50.5328 156.204H45.3728C45.4448 156.764 45.6888 157.216 46.1048 157.56C46.5288 157.896 47.0528 158.064 47.6768 158.064C48.4368 158.064 49.0488 157.808 49.5128 157.296L50.1488 158.04C49.8608 158.376 49.5008 158.632 49.0688 158.808C48.6448 158.984 48.1688 159.072 47.6408 159.072C46.9688 159.072 46.3728 158.936 45.8528 158.664C45.3328 158.384 44.9288 157.996 44.6408 157.5C44.3608 157.004 44.2208 156.444 44.2208 155.82C44.2208 155.204 44.3568 154.648 44.6288 154.152C44.9088 153.656 45.2888 153.272 45.7688 153C46.2568 152.72 46.8048 152.58 47.4128 152.58C48.0208 152.58 48.5608 152.72 49.0328 153C49.5128 153.272 49.8848 153.656 50.1488 154.152C50.4208 154.648 50.5568 155.216 50.5568 155.856ZM47.4128 153.552C46.8608 153.552 46.3968 153.72 46.0208 154.056C45.6528 154.392 45.4368 154.832 45.3728 155.376H49.4528C49.3888 154.84 49.1688 154.404 48.7928 154.068C48.4248 153.724 47.9648 153.552 47.4128 153.552ZM58.2405 152.64V158.136C58.2405 159.248 57.9645 160.068 57.4125 160.596C56.8605 161.132 56.0365 161.4 54.9405 161.4C54.3405 161.4 53.7685 161.316 53.2245 161.148C52.6805 160.988 52.2405 160.756 51.9045 160.452L52.4565 159.564C52.7525 159.82 53.1165 160.02 53.5485 160.164C53.9885 160.316 54.4405 160.392 54.9045 160.392C55.6485 160.392 56.1965 160.216 56.5485 159.864C56.9085 159.512 57.0885 158.976 57.0885 158.256V157.752C56.8165 158.08 56.4805 158.328 56.0805 158.496C55.6885 158.656 55.2605 158.736 54.7965 158.736C54.1885 158.736 53.6365 158.608 53.1405 158.352C52.6525 158.088 52.2685 157.724 51.9885 157.26C51.7085 156.788 51.5685 156.252 51.5685 155.652C51.5685 155.052 51.7085 154.52 51.9885 154.056C52.2685 153.584 52.6525 153.22 53.1405 152.964C53.6365 152.708 54.1885 152.58 54.7965 152.58C55.2765 152.58 55.7205 152.668 56.1285 152.844C56.5445 153.02 56.8845 153.28 57.1485 153.624V152.64H58.2405ZM54.9285 157.728C55.3445 157.728 55.7165 157.64 56.0445 157.464C56.3805 157.288 56.6405 157.044 56.8245 156.732C57.0165 156.412 57.1125 156.052 57.1125 155.652C57.1125 155.036 56.9085 154.54 56.5005 154.164C56.0925 153.78 55.5685 153.588 54.9285 153.588C54.2805 153.588 53.7525 153.78 53.3445 154.164C52.9365 154.54 52.7325 155.036 52.7325 155.652C52.7325 156.052 52.8245 156.412 53.0085 156.732C53.2005 157.044 53.4605 157.288 53.7885 157.464C54.1245 157.64 54.5045 157.728 54.9285 157.728ZM63.1656 159.072C62.5336 159.072 61.9656 158.932 61.4616 158.652C60.9576 158.372 60.5616 157.988 60.2736 157.5C59.9936 157.004 59.8536 156.444 59.8536 155.82C59.8536 155.196 59.9936 154.64 60.2736 154.152C60.5616 153.656 60.9576 153.272 61.4616 153C61.9656 152.72 62.5336 152.58 63.1656 152.58C63.7976 152.58 64.3616 152.72 64.8576 153C65.3616 153.272 65.7536 153.656 66.0336 154.152C66.3216 154.64 66.4656 155.196 66.4656 155.82C66.4656 156.444 66.3216 157.004 66.0336 157.5C65.7536 157.988 65.3616 158.372 64.8576 158.652C64.3616 158.932 63.7976 159.072 63.1656 159.072ZM63.1656 158.064C63.5736 158.064 63.9376 157.972 64.2576 157.788C64.5856 157.596 64.8416 157.332 65.0256 156.996C65.2096 156.652 65.3016 156.26 65.3016 155.82C65.3016 155.38 65.2096 154.992 65.0256 154.656C64.8416 154.312 64.5856 154.048 64.2576 153.864C63.9376 153.68 63.5736 153.588 63.1656 153.588C62.7576 153.588 62.3896 153.68 62.0616 153.864C61.7416 154.048 61.4856 154.312 61.2936 154.656C61.1096 154.992 61.0176 155.38 61.0176 155.82C61.0176 156.26 61.1096 156.652 61.2936 156.996C61.4856 157.332 61.7416 157.596 62.0616 157.788C62.3896 157.972 62.7576 158.064 63.1656 158.064ZM74.6775 152.58C75.4855 152.58 76.1255 152.816 76.5975 153.288C77.0775 153.752 77.3175 154.436 77.3175 155.34V159H76.1655V155.472C76.1655 154.856 76.0175 154.392 75.7215 154.08C75.4255 153.768 75.0015 153.612 74.4495 153.612C73.8255 153.612 73.3335 153.796 72.9735 154.164C72.6135 154.524 72.4335 155.044 72.4335 155.724V159H71.2815V150.096H72.4335V153.54C72.6735 153.236 72.9855 153 73.3695 152.832C73.7615 152.664 74.1975 152.58 74.6775 152.58ZM81.7654 152.58C82.6454 152.58 83.3174 152.796 83.7814 153.228C84.2534 153.66 84.4894 154.304 84.4894 155.16V159H83.3974V158.16C83.2054 158.456 82.9294 158.684 82.5694 158.844C82.2174 158.996 81.7974 159.072 81.3094 159.072C80.5974 159.072 80.0254 158.9 79.5934 158.556C79.1694 158.212 78.9574 157.76 78.9574 157.2C78.9574 156.64 79.1614 156.192 79.5694 155.856C79.9774 155.512 80.6254 155.34 81.5134 155.34H83.3374V155.112C83.3374 154.616 83.1934 154.236 82.9054 153.972C82.6174 153.708 82.1934 153.576 81.6334 153.576C81.2574 153.576 80.8894 153.64 80.5294 153.768C80.1694 153.888 79.8654 154.052 79.6174 154.26L79.1374 153.396C79.4654 153.132 79.8574 152.932 80.3134 152.796C80.7694 152.652 81.2534 152.58 81.7654 152.58ZM81.5014 158.184C81.9414 158.184 82.3214 158.088 82.6414 157.896C82.9614 157.696 83.1934 157.416 83.3374 157.056V156.168H81.5614C80.5854 156.168 80.0974 156.496 80.0974 157.152C80.0974 157.472 80.2214 157.724 80.4694 157.908C80.7174 158.092 81.0614 158.184 81.5014 158.184ZM89.4285 159.072C88.7805 159.072 88.2005 158.932 87.6885 158.652C87.1845 158.372 86.7885 157.988 86.5005 157.5C86.2125 157.004 86.0685 156.444 86.0685 155.82C86.0685 155.196 86.2125 154.64 86.5005 154.152C86.7885 153.656 87.1845 153.272 87.6885 153C88.2005 152.72 88.7805 152.58 89.4285 152.58C90.0045 152.58 90.5165 152.696 90.9645 152.928C91.4205 153.16 91.7725 153.496 92.0205 153.936L91.1445 154.5C90.9445 154.196 90.6965 153.968 90.4005 153.816C90.1045 153.664 89.7765 153.588 89.4165 153.588C89.0005 153.588 88.6245 153.68 88.2885 153.864C87.9605 154.048 87.7005 154.312 87.5085 154.656C87.3245 154.992 87.2325 155.38 87.2325 155.82C87.2325 156.268 87.3245 156.664 87.5085 157.008C87.7005 157.344 87.9605 157.604 88.2885 157.788C88.6245 157.972 89.0005 158.064 89.4165 158.064C89.7765 158.064 90.1045 157.988 90.4005 157.836C90.6965 157.684 90.9445 157.456 91.1445 157.152L92.0205 157.704C91.7725 158.144 91.4205 158.484 90.9645 158.724C90.5165 158.956 90.0045 159.072 89.4285 159.072ZM93.5119 152.64H94.6639V159H93.5119V152.64ZM94.0879 151.416C93.8639 151.416 93.6759 151.344 93.5239 151.2C93.3799 151.056 93.3079 150.88 93.3079 150.672C93.3079 150.464 93.3799 150.288 93.5239 150.144C93.6759 149.992 93.8639 149.916 94.0879 149.916C94.3119 149.916 94.4959 149.988 94.6399 150.132C94.7919 150.268 94.8679 150.44 94.8679 150.648C94.8679 150.864 94.7919 151.048 94.6399 151.2C94.4959 151.344 94.3119 151.416 94.0879 151.416ZM99.1795 152.58C100.059 152.58 100.731 152.796 101.195 153.228C101.667 153.66 101.903 154.304 101.903 155.16V159H100.811V158.16C100.619 158.456 100.343 158.684 99.9835 158.844C99.6315 158.996 99.2115 159.072 98.7235 159.072C98.0115 159.072 97.4395 158.9 97.0075 158.556C96.5835 158.212 96.3715 157.76 96.3715 157.2C96.3715 156.64 96.5755 156.192 96.9835 155.856C97.3915 155.512 98.0395 155.34 98.9275 155.34H100.751V155.112C100.751 154.616 100.607 154.236 100.319 153.972C100.031 153.708 99.6075 153.576 99.0475 153.576C98.6715 153.576 98.3035 153.64 97.9435 153.768C97.5835 153.888 97.2795 154.052 97.0315 154.26L96.5515 153.396C96.8795 153.132 97.2715 152.932 97.7275 152.796C98.1835 152.652 98.6675 152.58 99.1795 152.58ZM98.9155 158.184C99.3555 158.184 99.7355 158.088 100.055 157.896C100.375 157.696 100.607 157.416 100.751 157.056V156.168H98.9755C97.9995 156.168 97.5115 156.496 97.5115 157.152C97.5115 157.472 97.6355 157.724 97.8835 157.908C98.1315 158.092 98.4755 158.184 98.9155 158.184ZM109.574 152.58C110.454 152.58 111.126 152.796 111.59 153.228C112.062 153.66 112.298 154.304 112.298 155.16V159H111.206V158.16C111.014 158.456 110.738 158.684 110.378 158.844C110.026 158.996 109.606 159.072 109.118 159.072C108.406 159.072 107.834 158.9 107.402 158.556C106.978 158.212 106.766 157.76 106.766 157.2C106.766 156.64 106.97 156.192 107.378 155.856C107.786 155.512 108.434 155.34 109.322 155.34H111.146V155.112C111.146 154.616 111.002 154.236 110.714 153.972C110.426 153.708 110.002 153.576 109.442 153.576C109.066 153.576 108.698 153.64 108.338 153.768C107.978 153.888 107.674 154.052 107.426 154.26L106.946 153.396C107.274 153.132 107.666 152.932 108.122 152.796C108.578 152.652 109.062 152.58 109.574 152.58ZM109.31 158.184C109.75 158.184 110.13 158.088 110.45 157.896C110.77 157.696 111.002 157.416 111.146 157.056V156.168H109.37C108.394 156.168 107.906 156.496 107.906 157.152C107.906 157.472 108.03 157.724 108.278 157.908C108.526 158.092 108.87 158.184 109.31 158.184ZM116.758 150.972C116.07 150.972 115.726 151.344 115.726 152.088V152.64H117.574V153.588H115.75V159H114.598V153.588H113.518V152.64H114.598V152.076C114.598 151.444 114.782 150.944 115.15 150.576C115.518 150.208 116.034 150.024 116.698 150.024C116.954 150.024 117.194 150.056 117.418 150.12C117.642 150.184 117.834 150.276 117.994 150.396L117.646 151.272C117.382 151.072 117.086 150.972 116.758 150.972ZM124.588 152.64V159H123.496V158.04C123.264 158.368 122.956 158.624 122.572 158.808C122.196 158.984 121.784 159.072 121.336 159.072C120.488 159.072 119.82 158.84 119.332 158.376C118.844 157.904 118.6 157.212 118.6 156.3V152.64H119.752V156.168C119.752 156.784 119.9 157.252 120.196 157.572C120.492 157.884 120.916 158.04 121.468 158.04C122.076 158.04 122.556 157.856 122.908 157.488C123.26 157.12 123.436 156.6 123.436 155.928V152.64H124.588ZM132.529 155.856C132.529 155.944 132.521 156.06 132.505 156.204H127.345C127.417 156.764 127.661 157.216 128.077 157.56C128.501 157.896 129.025 158.064 129.649 158.064C130.409 158.064 131.021 157.808 131.485 157.296L132.121 158.04C131.833 158.376 131.473 158.632 131.041 158.808C130.617 158.984 130.141 159.072 129.613 159.072C128.941 159.072 128.345 158.936 127.825 158.664C127.305 158.384 126.901 157.996 126.613 157.5C126.333 157.004 126.193 156.444 126.193 155.82C126.193 155.204 126.329 154.648 126.601 154.152C126.881 153.656 127.261 153.272 127.741 153C128.229 152.72 128.777 152.58 129.385 152.58C129.993 152.58 130.533 152.72 131.005 153C131.485 153.272 131.857 153.656 132.121 154.152C132.393 154.648 132.529 155.216 132.529 155.856ZM129.385 153.552C128.833 153.552 128.369 153.72 127.993 154.056C127.625 154.392 127.409 154.832 127.345 155.376H131.425C131.361 154.84 131.141 154.404 130.765 154.068C130.397 153.724 129.937 153.552 129.385 153.552ZM135.233 153.708C135.433 153.34 135.729 153.06 136.121 152.868C136.513 152.676 136.989 152.58 137.549 152.58V153.696C137.485 153.688 137.397 153.684 137.285 153.684C136.661 153.684 136.169 153.872 135.809 154.248C135.457 154.616 135.281 155.144 135.281 155.832V159H134.129V152.64H135.233V153.708ZM141.273 152.58C142.153 152.58 142.825 152.796 143.289 153.228C143.761 153.66 143.997 154.304 143.997 155.16V159H142.905V158.16C142.713 158.456 142.437 158.684 142.077 158.844C141.725 158.996 141.305 159.072 140.817 159.072C140.105 159.072 139.533 158.9 139.101 158.556C138.677 158.212 138.465 157.76 138.465 157.2C138.465 156.64 138.669 156.192 139.077 155.856C139.485 155.512 140.133 155.34 141.021 155.34H142.845V155.112C142.845 154.616 142.701 154.236 142.413 153.972C142.125 153.708 141.701 153.576 141.141 153.576C140.765 153.576 140.397 153.64 140.037 153.768C139.677 153.888 139.373 154.052 139.125 154.26L138.645 153.396C138.973 153.132 139.365 152.932 139.821 152.796C140.277 152.652 140.761 152.58 141.273 152.58ZM141.009 158.184C141.449 158.184 141.829 158.088 142.149 157.896C142.469 157.696 142.701 157.416 142.845 157.056V156.168H141.069C140.093 156.168 139.605 156.496 139.605 157.152C139.605 157.472 139.729 157.724 139.977 157.908C140.225 158.092 140.569 158.184 141.009 158.184ZM146.405 159.072C146.181 159.072 145.989 158.996 145.829 158.844C145.669 158.684 145.589 158.484 145.589 158.244C145.589 158.012 145.669 157.82 145.829 157.668C145.989 157.508 146.181 157.428 146.405 157.428C146.629 157.428 146.817 157.504 146.969 157.656C147.121 157.808 147.197 158.004 147.197 158.244C147.197 158.484 147.117 158.684 146.957 158.844C146.805 158.996 146.621 159.072 146.405 159.072Z" fill="#008E86"/>
<path d="M31 75.6652L36.794 37.4249L97.4378 100L39.4979 98.0687L31 75.6652Z" fill="#008E86" stroke="#00635D" stroke-width="2" stroke-linejoin="round"/>
<path d="M36.0215 36.6522L53.4035 18.884L57.2661 24.2917L36.4078 77.5964L36.0215 36.6522Z" fill="#00D8CC" stroke="#00635D" stroke-width="2" stroke-linejoin="round"/>
<path d="M48.3815 9.9999L56.1068 14.2488L57.2656 24.2917L46.4502 11.9312L48.3815 9.9999Z" fill="#00D8CC" stroke="#00635D" stroke-width="2" stroke-linejoin="round"/>
<path d="M36.4072 77.5964L48.3815 48.6264L97.4373 99.6135L45.2913 99.6135L36.4072 77.5964Z" fill="#00D8CC" stroke="#00635D" stroke-width="2" stroke-linejoin="round"/>
<path d="M85.8496 87.6394L81.9869 99.9999" stroke="#00635D" stroke-dasharray="2 2"/>
<path d="M90.4844 93.0471L86.6217 99.2274" stroke="#00635D" stroke-dasharray="2 2"/>
<g clip-path="url(#clip2_5693_197643)">
<path d="M83.1543 20.1527L141.719 35.3643L144.761 77.9565L96.0841 71.8719L83.1543 20.1527Z" fill="#008E86" stroke="#00635D" stroke-width="3.04231" stroke-linejoin="round"/>
<path d="M119.662 49.815L155.409 54.3785L122.704 72.6323L119.662 49.815Z" fill="#00D8CC" stroke="#00635D" stroke-width="3.04231" stroke-linejoin="round"/>
<path d="M90 -1.90396L141.719 35.3643L121.944 84.0412L85.4365 87.0835L90 -1.90396Z" fill="#00D8CC" stroke="#00635D" stroke-width="3.04231" stroke-linejoin="round"/>
</g>
<rect x="90.7606" y="14.8284" width="58.4788" height="58.4788" rx="29.2394" stroke="#333333" stroke-width="1.52115"/>
<path d="M90.4506 83.1627C89.8983 83.1627 89.4506 83.6104 89.4506 84.1627C89.4506 84.715 89.8983 85.1627 90.4506 85.1627L90.4506 83.1627ZM120.9 89.5049C121.29 89.1144 121.29 88.4812 120.9 88.0907L114.536 81.7268C114.145 81.3363 113.512 81.3363 113.121 81.7268C112.731 82.1173 112.731 82.7505 113.121 83.141L118.778 88.7978L113.122 94.4547C112.731 94.8452 112.731 95.4784 113.122 95.8689C113.512 96.2595 114.145 96.2595 114.536 95.8689L120.9 89.5049ZM106.674 84.1627L107.381 84.8698C107.667 84.5838 107.752 84.1537 107.598 83.78C107.443 83.4064 107.078 83.1627 106.674 83.1627L106.674 84.1627ZM102.425 88.7979L101.718 88.0908C101.432 88.3768 101.346 88.8069 101.501 89.1806C101.656 89.5542 102.02 89.7979 102.425 89.7979L102.425 88.7979ZM90.4506 85.1627C93.6851 85.1627 100.836 85.1627 106.674 85.1627L106.674 83.1627C100.836 83.1627 93.6851 83.1627 90.4506 83.1627L90.4506 85.1627ZM105.967 83.4556C104.778 84.6447 104.369 85.1541 103.92 85.7022C103.507 86.2078 103.046 86.7625 101.718 88.0908L103.132 89.505C104.508 88.1295 105.013 87.5254 105.468 86.9687C105.889 86.4546 106.252 85.9983 107.381 84.8698L105.967 83.4556ZM102.425 89.7979C105.901 89.7979 117.554 89.7978 120.193 89.7978L120.193 87.7978C117.553 87.7978 105.901 87.7979 102.425 87.7979L102.425 89.7979Z" fill="black"/>
</g>
<defs>
<clipPath id="clip0_5693_197643">
<rect width="180" height="180" rx="20" fill="white"/>
</clipPath>
<clipPath id="clip1_5693_197643">
<path d="M0 30L-1.31134e-06 0L30 -1.31134e-06L30 10C30 21.0457 21.0457 30 10 30L0 30Z" fill="white"/>
</clipPath>
<clipPath id="clip2_5693_197643">
<rect x="90" y="14.0679" width="60" height="60" rx="30" fill="white"/>
</clipPath>
</defs>
</svg>
