<svg width="180" height="180" viewBox="0 0 180 180" fill="none" xmlns="http://www.w3.org/2000/svg">
<g clip-path="url(#clip0_5693_197651)">
<rect width="180" height="180" rx="20" fill="#F2F2F2"/>
<g clip-path="url(#clip1_5693_197651)">
<path d="M0 30L-1.31134e-06 0L30 -1.31134e-06L30 10C30 21.0457 21.0457 30 10 30L0 30Z" fill="#333333"/>
<path d="M14.4663 9.608C16.0343 9.608 17.2609 10.088 18.1463 11.048C19.0316 11.9973 19.4743 13.368 19.4743 15.16C19.4743 16.4293 19.2343 17.5173 18.7543 18.424C18.2849 19.3307 17.6183 20.0187 16.7543 20.488C15.8903 20.9573 14.8929 21.192 13.7623 21.192C13.1649 21.192 12.5943 21.128 12.0503 21C11.5063 20.8613 11.0423 20.6693 10.6583 20.424L11.6183 18.52C12.1623 18.8933 12.8609 19.08 13.7143 19.08C14.6636 19.08 15.4156 18.8027 15.9703 18.248C16.5249 17.6827 16.8236 16.872 16.8663 15.816C16.1943 16.488 15.2663 16.824 14.0823 16.824C13.3676 16.824 12.7169 16.68 12.1303 16.392C11.5436 16.104 11.0796 15.6987 10.7383 15.176C10.3969 14.6427 10.2263 14.0293 10.2263 13.336C10.2263 12.5893 10.4129 11.9333 10.7863 11.368C11.1596 10.8027 11.6663 10.3707 12.3063 10.072C12.9569 9.76267 13.6769 9.608 14.4663 9.608ZM14.6583 14.888C15.2236 14.888 15.6823 14.7333 16.0343 14.424C16.3969 14.104 16.5783 13.6987 16.5783 13.208C16.5783 12.7173 16.4023 12.3173 16.0503 12.008C15.7089 11.6987 15.2343 11.544 14.6263 11.544C14.0716 11.544 13.6183 11.6933 13.2663 11.992C12.9249 12.2907 12.7543 12.696 12.7543 13.208C12.7543 13.72 12.9249 14.1307 13.2663 14.44C13.6183 14.7387 14.0823 14.888 14.6583 14.888Z" fill="#F2F2F2"/>
</g>
<path d="M29.0328 128.6V137H27.8328V133.256H23.0088V137H21.8088V128.6H23.0088V132.212H27.8328V128.6H29.0328ZM33.6951 130.58C34.5751 130.58 35.2471 130.796 35.7111 131.228C36.1831 131.66 36.4191 132.304 36.4191 133.16V137H35.3271V136.16C35.1351 136.456 34.8591 136.684 34.4991 136.844C34.1471 136.996 33.7271 137.072 33.2391 137.072C32.5271 137.072 31.9551 136.9 31.5231 136.556C31.0991 136.212 30.8871 135.76 30.8871 135.2C30.8871 134.64 31.0911 134.192 31.4991 133.856C31.9071 133.512 32.5551 133.34 33.4431 133.34H35.2671V133.112C35.2671 132.616 35.1231 132.236 34.8351 131.972C34.5471 131.708 34.1231 131.576 33.5631 131.576C33.1871 131.576 32.8191 131.64 32.4591 131.768C32.0991 131.888 31.7951 132.052 31.5471 132.26L31.0671 131.396C31.3951 131.132 31.7871 130.932 32.2431 130.796C32.6991 130.652 33.1831 130.58 33.6951 130.58ZM33.4311 136.184C33.8711 136.184 34.2511 136.088 34.5711 135.896C34.8911 135.696 35.1231 135.416 35.2671 135.056V134.168H33.4911C32.5151 134.168 32.0271 134.496 32.0271 135.152C32.0271 135.472 32.1511 135.724 32.3991 135.908C32.6471 136.092 32.9911 136.184 33.4311 136.184ZM43.267 136.052V137H37.939V136.256L41.695 131.588H38.011V130.64H43.171V131.396L39.415 136.052H43.267ZM53.9595 130.64V137H52.8675V136.04C52.6355 136.368 52.3275 136.624 51.9435 136.808C51.5675 136.984 51.1555 137.072 50.7075 137.072C49.8595 137.072 49.1915 136.84 48.7035 136.376C48.2155 135.904 47.9715 135.212 47.9715 134.3V130.64H49.1235V134.168C49.1235 134.784 49.2715 135.252 49.5675 135.572C49.8635 135.884 50.2875 136.04 50.8395 136.04C51.4475 136.04 51.9275 135.856 52.2795 135.488C52.6315 135.12 52.8075 134.6 52.8075 133.928V130.64H53.9595ZM59.5485 130.58C60.3565 130.58 60.9965 130.816 61.4685 131.288C61.9485 131.752 62.1885 132.436 62.1885 133.34V137H61.0365V133.472C61.0365 132.856 60.8885 132.392 60.5925 132.08C60.2965 131.768 59.8725 131.612 59.3205 131.612C58.6965 131.612 58.2045 131.796 57.8445 132.164C57.4845 132.524 57.3045 133.044 57.3045 133.724V137H56.1525V130.64H57.2565V131.6C57.4885 131.272 57.8005 131.02 58.1925 130.844C58.5925 130.668 59.0445 130.58 59.5485 130.58ZM70.3152 137.072C69.6672 137.072 69.0872 136.932 68.5752 136.652C68.0712 136.372 67.6752 135.988 67.3872 135.5C67.0992 135.004 66.9552 134.444 66.9552 133.82C66.9552 133.196 67.0992 132.64 67.3872 132.152C67.6752 131.656 68.0712 131.272 68.5752 131C69.0872 130.72 69.6672 130.58 70.3152 130.58C70.8912 130.58 71.4032 130.696 71.8512 130.928C72.3072 131.16 72.6592 131.496 72.9072 131.936L72.0312 132.5C71.8312 132.196 71.5832 131.968 71.2872 131.816C70.9912 131.664 70.6632 131.588 70.3032 131.588C69.8872 131.588 69.5112 131.68 69.1752 131.864C68.8472 132.048 68.5872 132.312 68.3952 132.656C68.2112 132.992 68.1192 133.38 68.1192 133.82C68.1192 134.268 68.2112 134.664 68.3952 135.008C68.5872 135.344 68.8472 135.604 69.1752 135.788C69.5112 135.972 69.8872 136.064 70.3032 136.064C70.6632 136.064 70.9912 135.988 71.2872 135.836C71.5832 135.684 71.8312 135.456 72.0312 135.152L72.9072 135.704C72.6592 136.144 72.3072 136.484 71.8512 136.724C71.4032 136.956 70.8912 137.072 70.3152 137.072ZM77.0289 137.072C76.3969 137.072 75.8289 136.932 75.3249 136.652C74.8209 136.372 74.4249 135.988 74.1369 135.5C73.8569 135.004 73.7169 134.444 73.7169 133.82C73.7169 133.196 73.8569 132.64 74.1369 132.152C74.4249 131.656 74.8209 131.272 75.3249 131C75.8289 130.72 76.3969 130.58 77.0289 130.58C77.6609 130.58 78.2249 130.72 78.7209 131C79.2249 131.272 79.6169 131.656 79.8969 132.152C80.1849 132.64 80.3289 133.196 80.3289 133.82C80.3289 134.444 80.1849 135.004 79.8969 135.5C79.6169 135.988 79.2249 136.372 78.7209 136.652C78.2249 136.932 77.6609 137.072 77.0289 137.072ZM77.0289 136.064C77.4369 136.064 77.8009 135.972 78.1209 135.788C78.4489 135.596 78.7049 135.332 78.8889 134.996C79.0729 134.652 79.1649 134.26 79.1649 133.82C79.1649 133.38 79.0729 132.992 78.8889 132.656C78.7049 132.312 78.4489 132.048 78.1209 131.864C77.8009 131.68 77.4369 131.588 77.0289 131.588C76.6209 131.588 76.2529 131.68 75.9249 131.864C75.6049 132.048 75.3489 132.312 75.1569 132.656C74.9729 132.992 74.8809 133.38 74.8809 133.82C74.8809 134.26 74.9729 134.652 75.1569 134.996C75.3489 135.332 75.6049 135.596 75.9249 135.788C76.2529 135.972 76.6209 136.064 77.0289 136.064ZM83.0261 131.708C83.2261 131.34 83.5221 131.06 83.9141 130.868C84.3061 130.676 84.7821 130.58 85.3421 130.58V131.696C85.2781 131.688 85.1901 131.684 85.0781 131.684C84.4541 131.684 83.9621 131.872 83.6021 132.248C83.2501 132.616 83.0741 133.144 83.0741 133.832V137H81.9221V130.64H83.0261V131.708ZM90.5957 136.628C90.4277 136.772 90.2197 136.884 89.9717 136.964C89.7237 137.036 89.4677 137.072 89.2037 137.072C88.5637 137.072 88.0677 136.9 87.7157 136.556C87.3637 136.212 87.1877 135.72 87.1877 135.08V131.588H86.1077V130.64H87.1877V129.248H88.3397V130.64H90.1637V131.588H88.3397V135.032C88.3397 135.376 88.4237 135.64 88.5917 135.824C88.7677 136.008 89.0157 136.1 89.3357 136.1C89.6877 136.1 89.9877 136 90.2357 135.8L90.5957 136.628ZM97.5255 133.856C97.5255 133.944 97.5175 134.06 97.5015 134.204H92.3415C92.4135 134.764 92.6575 135.216 93.0735 135.56C93.4975 135.896 94.0215 136.064 94.6455 136.064C95.4055 136.064 96.0175 135.808 96.4815 135.296L97.1175 136.04C96.8295 136.376 96.4695 136.632 96.0375 136.808C95.6135 136.984 95.1375 137.072 94.6095 137.072C93.9375 137.072 93.3415 136.936 92.8215 136.664C92.3015 136.384 91.8975 135.996 91.6095 135.5C91.3295 135.004 91.1895 134.444 91.1895 133.82C91.1895 133.204 91.3255 132.648 91.5975 132.152C91.8775 131.656 92.2575 131.272 92.7375 131C93.2255 130.72 93.7735 130.58 94.3815 130.58C94.9895 130.58 95.5295 130.72 96.0015 131C96.4815 131.272 96.8535 131.656 97.1175 132.152C97.3895 132.648 97.5255 133.216 97.5255 133.856ZM94.3815 131.552C93.8295 131.552 93.3655 131.72 92.9895 132.056C92.6215 132.392 92.4055 132.832 92.3415 133.376H96.4215C96.3575 132.84 96.1375 132.404 95.7615 132.068C95.3935 131.724 94.9335 131.552 94.3815 131.552ZM105.12 137.072C104.472 137.072 103.892 136.932 103.38 136.652C102.876 136.372 102.48 135.988 102.192 135.5C101.904 135.004 101.76 134.444 101.76 133.82C101.76 133.196 101.904 132.64 102.192 132.152C102.48 131.656 102.876 131.272 103.38 131C103.892 130.72 104.472 130.58 105.12 130.58C105.696 130.58 106.208 130.696 106.656 130.928C107.112 131.16 107.464 131.496 107.712 131.936L106.836 132.5C106.636 132.196 106.388 131.968 106.092 131.816C105.796 131.664 105.468 131.588 105.108 131.588C104.692 131.588 104.316 131.68 103.98 131.864C103.652 132.048 103.392 132.312 103.2 132.656C103.016 132.992 102.924 133.38 102.924 133.82C102.924 134.268 103.016 134.664 103.2 135.008C103.392 135.344 103.652 135.604 103.98 135.788C104.316 135.972 104.692 136.064 105.108 136.064C105.468 136.064 105.796 135.988 106.092 135.836C106.388 135.684 106.636 135.456 106.836 135.152L107.712 135.704C107.464 136.144 107.112 136.484 106.656 136.724C106.208 136.956 105.696 137.072 105.12 137.072ZM115.131 130.64V137H114.039V136.04C113.807 136.368 113.499 136.624 113.115 136.808C112.739 136.984 112.327 137.072 111.879 137.072C111.031 137.072 110.363 136.84 109.875 136.376C109.387 135.904 109.143 135.212 109.143 134.3V130.64H110.295V134.168C110.295 134.784 110.443 135.252 110.739 135.572C111.035 135.884 111.459 136.04 112.011 136.04C112.619 136.04 113.099 135.856 113.451 135.488C113.803 135.12 113.979 134.6 113.979 133.928V130.64H115.131ZM119.64 130.58C120.52 130.58 121.192 130.796 121.656 131.228C122.128 131.66 122.364 132.304 122.364 133.16V137H121.272V136.16C121.08 136.456 120.804 136.684 120.444 136.844C120.092 136.996 119.672 137.072 119.184 137.072C118.472 137.072 117.9 136.9 117.468 136.556C117.044 136.212 116.832 135.76 116.832 135.2C116.832 134.64 117.036 134.192 117.444 133.856C117.852 133.512 118.5 133.34 119.388 133.34H121.212V133.112C121.212 132.616 121.068 132.236 120.78 131.972C120.492 131.708 120.068 131.576 119.508 131.576C119.132 131.576 118.764 131.64 118.404 131.768C118.044 131.888 117.74 132.052 117.492 132.26L117.012 131.396C117.34 131.132 117.732 130.932 118.188 130.796C118.644 130.652 119.128 130.58 119.64 130.58ZM119.376 136.184C119.816 136.184 120.196 136.088 120.516 135.896C120.836 135.696 121.068 135.416 121.212 135.056V134.168H119.436C118.46 134.168 117.972 134.496 117.972 135.152C117.972 135.472 118.096 135.724 118.344 135.908C118.592 136.092 118.936 136.184 119.376 136.184ZM130.531 128.096V137H129.427V135.992C129.171 136.344 128.847 136.612 128.455 136.796C128.063 136.98 127.631 137.072 127.159 137.072C126.543 137.072 125.991 136.936 125.503 136.664C125.015 136.392 124.631 136.012 124.351 135.524C124.079 135.028 123.943 134.46 123.943 133.82C123.943 133.18 124.079 132.616 124.351 132.128C124.631 131.64 125.015 131.26 125.503 130.988C125.991 130.716 126.543 130.58 127.159 130.58C127.615 130.58 128.035 130.668 128.419 130.844C128.803 131.012 129.123 131.264 129.379 131.6V128.096H130.531ZM127.255 136.064C127.655 136.064 128.019 135.972 128.347 135.788C128.675 135.596 128.931 135.332 129.115 134.996C129.299 134.652 129.391 134.26 129.391 133.82C129.391 133.38 129.299 132.992 129.115 132.656C128.931 132.312 128.675 132.048 128.347 131.864C128.019 131.68 127.655 131.588 127.255 131.588C126.847 131.588 126.479 131.68 126.151 131.864C125.831 132.048 125.575 132.312 125.383 132.656C125.199 132.992 125.107 133.38 125.107 133.82C125.107 134.26 125.199 134.652 125.383 134.996C125.575 135.332 125.831 135.596 126.151 135.788C126.479 135.972 126.847 136.064 127.255 136.064ZM133.815 131.708C134.015 131.34 134.311 131.06 134.703 130.868C135.095 130.676 135.571 130.58 136.131 130.58V131.696C136.067 131.688 135.979 131.684 135.867 131.684C135.243 131.684 134.751 131.872 134.391 132.248C134.039 132.616 133.863 133.144 133.863 133.832V137H132.711V130.64H133.815V131.708ZM139.855 130.58C140.735 130.58 141.407 130.796 141.871 131.228C142.343 131.66 142.579 132.304 142.579 133.16V137H141.487V136.16C141.295 136.456 141.019 136.684 140.659 136.844C140.307 136.996 139.887 137.072 139.399 137.072C138.687 137.072 138.115 136.9 137.683 136.556C137.259 136.212 137.047 135.76 137.047 135.2C137.047 134.64 137.251 134.192 137.659 133.856C138.067 133.512 138.715 133.34 139.603 133.34H141.427V133.112C141.427 132.616 141.283 132.236 140.995 131.972C140.707 131.708 140.283 131.576 139.723 131.576C139.347 131.576 138.979 131.64 138.619 131.768C138.259 131.888 137.955 132.052 137.707 132.26L137.227 131.396C137.555 131.132 137.947 130.932 138.403 130.796C138.859 130.652 139.343 130.58 139.855 130.58ZM139.591 136.184C140.031 136.184 140.411 136.088 140.731 135.896C141.051 135.696 141.283 135.416 141.427 135.056V134.168H139.651C138.675 134.168 138.187 134.496 138.187 135.152C138.187 135.472 138.311 135.724 138.559 135.908C138.807 136.092 139.151 136.184 139.591 136.184ZM150.746 128.096V137H149.642V135.992C149.386 136.344 149.062 136.612 148.67 136.796C148.278 136.98 147.846 137.072 147.374 137.072C146.758 137.072 146.206 136.936 145.718 136.664C145.23 136.392 144.846 136.012 144.566 135.524C144.294 135.028 144.158 134.46 144.158 133.82C144.158 133.18 144.294 132.616 144.566 132.128C144.846 131.64 145.23 131.26 145.718 130.988C146.206 130.716 146.758 130.58 147.374 130.58C147.83 130.58 148.25 130.668 148.634 130.844C149.018 131.012 149.338 131.264 149.594 131.6V128.096H150.746ZM147.47 136.064C147.87 136.064 148.234 135.972 148.562 135.788C148.89 135.596 149.146 135.332 149.33 134.996C149.514 134.652 149.606 134.26 149.606 133.82C149.606 133.38 149.514 132.992 149.33 132.656C149.146 132.312 148.89 132.048 148.562 131.864C148.234 131.68 147.87 131.588 147.47 131.588C147.062 131.588 146.694 131.68 146.366 131.864C146.046 132.048 145.79 132.312 145.598 132.656C145.414 132.992 145.322 133.38 145.322 133.82C145.322 134.26 145.414 134.652 145.598 134.996C145.79 135.332 146.046 135.596 146.366 135.788C146.694 135.972 147.062 136.064 147.47 136.064ZM155.65 137.072C155.018 137.072 154.45 136.932 153.946 136.652C153.442 136.372 153.046 135.988 152.758 135.5C152.478 135.004 152.338 134.444 152.338 133.82C152.338 133.196 152.478 132.64 152.758 132.152C153.046 131.656 153.442 131.272 153.946 131C154.45 130.72 155.018 130.58 155.65 130.58C156.282 130.58 156.846 130.72 157.342 131C157.846 131.272 158.238 131.656 158.518 132.152C158.806 132.64 158.95 133.196 158.95 133.82C158.95 134.444 158.806 135.004 158.518 135.5C158.238 135.988 157.846 136.372 157.342 136.652C156.846 136.932 156.282 137.072 155.65 137.072ZM155.65 136.064C156.058 136.064 156.422 135.972 156.742 135.788C157.07 135.596 157.326 135.332 157.51 134.996C157.694 134.652 157.786 134.26 157.786 133.82C157.786 133.38 157.694 132.992 157.51 132.656C157.326 132.312 157.07 132.048 156.742 131.864C156.422 131.68 156.058 131.588 155.65 131.588C155.242 131.588 154.874 131.68 154.546 131.864C154.226 132.048 153.97 132.312 153.778 132.656C153.594 132.992 153.502 133.38 153.502 133.82C153.502 134.26 153.594 134.652 153.778 134.996C153.97 135.332 154.226 135.596 154.546 135.788C154.874 135.972 155.242 136.064 155.65 136.064ZM31.549 148.856C31.549 148.944 31.541 149.06 31.525 149.204H26.365C26.437 149.764 26.681 150.216 27.097 150.56C27.521 150.896 28.045 151.064 28.669 151.064C29.429 151.064 30.041 150.808 30.505 150.296L31.141 151.04C30.853 151.376 30.493 151.632 30.061 151.808C29.637 151.984 29.161 152.072 28.633 152.072C27.961 152.072 27.365 151.936 26.845 151.664C26.325 151.384 25.921 150.996 25.633 150.5C25.353 150.004 25.213 149.444 25.213 148.82C25.213 148.204 25.349 147.648 25.621 147.152C25.901 146.656 26.281 146.272 26.761 146C27.249 145.72 27.797 145.58 28.405 145.58C29.013 145.58 29.553 145.72 30.025 146C30.505 146.272 30.877 146.656 31.141 147.152C31.413 147.648 31.549 148.216 31.549 148.856ZM28.405 146.552C27.853 146.552 27.389 146.72 27.013 147.056C26.645 147.392 26.429 147.832 26.365 148.376H30.445C30.381 147.84 30.161 147.404 29.785 147.068C29.417 146.724 28.957 146.552 28.405 146.552ZM36.5446 145.58C37.3526 145.58 37.9926 145.816 38.4646 146.288C38.9446 146.752 39.1846 147.436 39.1846 148.34V152H38.0326V148.472C38.0326 147.856 37.8846 147.392 37.5886 147.08C37.2926 146.768 36.8686 146.612 36.3166 146.612C35.6926 146.612 35.2006 146.796 34.8406 147.164C34.4806 147.524 34.3006 148.044 34.3006 148.724V152H33.1486V145.64H34.2526V146.6C34.4846 146.272 34.7966 146.02 35.1886 145.844C35.5886 145.668 36.0406 145.58 36.5446 145.58ZM50.2873 148.856C50.2873 148.944 50.2793 149.06 50.2633 149.204H45.1033C45.1753 149.764 45.4193 150.216 45.8353 150.56C46.2593 150.896 46.7833 151.064 47.4073 151.064C48.1673 151.064 48.7793 150.808 49.2433 150.296L49.8793 151.04C49.5913 151.376 49.2313 151.632 48.7993 151.808C48.3753 151.984 47.8993 152.072 47.3713 152.072C46.6993 152.072 46.1033 151.936 45.5833 151.664C45.0633 151.384 44.6593 150.996 44.3713 150.5C44.0913 150.004 43.9513 149.444 43.9513 148.82C43.9513 148.204 44.0873 147.648 44.3593 147.152C44.6393 146.656 45.0193 146.272 45.4993 146C45.9873 145.72 46.5353 145.58 47.1433 145.58C47.7513 145.58 48.2913 145.72 48.7633 146C49.2433 146.272 49.6153 146.656 49.8793 147.152C50.1513 147.648 50.2873 148.216 50.2873 148.856ZM47.1433 146.552C46.5913 146.552 46.1273 146.72 45.7513 147.056C45.3833 147.392 45.1673 147.832 45.1033 148.376H49.1833C49.1193 147.84 48.8993 147.404 48.5233 147.068C48.1553 146.724 47.6953 146.552 47.1433 146.552ZM51.8869 143.096H53.0389V152H51.8869V143.096ZM61.2331 152.072C60.5851 152.072 60.0051 151.932 59.4931 151.652C58.9891 151.372 58.5931 150.988 58.3051 150.5C58.0171 150.004 57.8731 149.444 57.8731 148.82C57.8731 148.196 58.0171 147.64 58.3051 147.152C58.5931 146.656 58.9891 146.272 59.4931 146C60.0051 145.72 60.5851 145.58 61.2331 145.58C61.8091 145.58 62.3211 145.696 62.7691 145.928C63.2251 146.16 63.5771 146.496 63.8251 146.936L62.9491 147.5C62.7491 147.196 62.5011 146.968 62.2051 146.816C61.9091 146.664 61.5811 146.588 61.2211 146.588C60.8051 146.588 60.4291 146.68 60.0931 146.864C59.7651 147.048 59.5051 147.312 59.3131 147.656C59.1291 147.992 59.0371 148.38 59.0371 148.82C59.0371 149.268 59.1291 149.664 59.3131 150.008C59.5051 150.344 59.7651 150.604 60.0931 150.788C60.4291 150.972 60.8051 151.064 61.2211 151.064C61.5811 151.064 61.9091 150.988 62.2051 150.836C62.5011 150.684 62.7491 150.456 62.9491 150.152L63.8251 150.704C63.5771 151.144 63.2251 151.484 62.7691 151.724C62.3211 151.956 61.8091 152.072 61.2331 152.072ZM67.9469 152.072C67.3149 152.072 66.7469 151.932 66.2429 151.652C65.7389 151.372 65.3429 150.988 65.0549 150.5C64.7749 150.004 64.6349 149.444 64.6349 148.82C64.6349 148.196 64.7749 147.64 65.0549 147.152C65.3429 146.656 65.7389 146.272 66.2429 146C66.7469 145.72 67.3149 145.58 67.9469 145.58C68.5789 145.58 69.1429 145.72 69.6389 146C70.1429 146.272 70.5349 146.656 70.8149 147.152C71.1029 147.64 71.2469 148.196 71.2469 148.82C71.2469 149.444 71.1029 150.004 70.8149 150.5C70.5349 150.988 70.1429 151.372 69.6389 151.652C69.1429 151.932 68.5789 152.072 67.9469 152.072ZM67.9469 151.064C68.3549 151.064 68.7189 150.972 69.0389 150.788C69.3669 150.596 69.6229 150.332 69.8069 149.996C69.9909 149.652 70.0829 149.26 70.0829 148.82C70.0829 148.38 69.9909 147.992 69.8069 147.656C69.6229 147.312 69.3669 147.048 69.0389 146.864C68.7189 146.68 68.3549 146.588 67.9469 146.588C67.5389 146.588 67.1709 146.68 66.8429 146.864C66.5229 147.048 66.2669 147.312 66.0749 147.656C65.8909 147.992 65.7989 148.38 65.7989 148.82C65.7989 149.26 65.8909 149.652 66.0749 149.996C66.2669 150.332 66.5229 150.596 66.8429 150.788C67.1709 150.972 67.5389 151.064 67.9469 151.064ZM74.664 152.072C74.144 152.072 73.644 152.004 73.164 151.868C72.684 151.724 72.308 151.544 72.036 151.328L72.516 150.416C72.796 150.616 73.136 150.776 73.536 150.896C73.936 151.016 74.34 151.076 74.748 151.076C75.756 151.076 76.26 150.788 76.26 150.212C76.26 150.02 76.192 149.868 76.056 149.756C75.92 149.644 75.748 149.564 75.54 149.516C75.34 149.46 75.052 149.4 74.676 149.336C74.164 149.256 73.744 149.164 73.416 149.06C73.096 148.956 72.82 148.78 72.588 148.532C72.356 148.284 72.24 147.936 72.24 147.488C72.24 146.912 72.48 146.452 72.96 146.108C73.44 145.756 74.084 145.58 74.892 145.58C75.316 145.58 75.74 145.632 76.164 145.736C76.588 145.84 76.936 145.98 77.208 146.156L76.716 147.068C76.196 146.732 75.584 146.564 74.88 146.564C74.392 146.564 74.02 146.644 73.764 146.804C73.508 146.964 73.38 147.176 73.38 147.44C73.38 147.648 73.452 147.812 73.596 147.932C73.74 148.052 73.916 148.14 74.124 148.196C74.34 148.252 74.64 148.316 75.024 148.388C75.536 148.476 75.948 148.572 76.26 148.676C76.58 148.772 76.852 148.94 77.076 149.18C77.3 149.42 77.412 149.756 77.412 150.188C77.412 150.764 77.164 151.224 76.668 151.568C76.18 151.904 75.512 152.072 74.664 152.072ZM82.4278 151.628C82.2598 151.772 82.0518 151.884 81.8038 151.964C81.5558 152.036 81.2998 152.072 81.0358 152.072C80.3958 152.072 79.8998 151.9 79.5478 151.556C79.1958 151.212 79.0198 150.72 79.0198 150.08V146.588H77.9398V145.64H79.0198V144.248H80.1718V145.64H81.9958V146.588H80.1718V150.032C80.1718 150.376 80.2558 150.64 80.4238 150.824C80.5998 151.008 80.8478 151.1 81.1678 151.1C81.5198 151.1 81.8198 151 82.0678 150.8L82.4278 151.628ZM86.1365 145.58C87.0165 145.58 87.6885 145.796 88.1525 146.228C88.6245 146.66 88.8605 147.304 88.8605 148.16V152H87.7685V151.16C87.5765 151.456 87.3005 151.684 86.9405 151.844C86.5885 151.996 86.1685 152.072 85.6805 152.072C84.9685 152.072 84.3965 151.9 83.9645 151.556C83.5405 151.212 83.3285 150.76 83.3285 150.2C83.3285 149.64 83.5325 149.192 83.9405 148.856C84.3485 148.512 84.9965 148.34 85.8845 148.34H87.7085V148.112C87.7085 147.616 87.5645 147.236 87.2765 146.972C86.9885 146.708 86.5645 146.576 86.0045 146.576C85.6285 146.576 85.2605 146.64 84.9005 146.768C84.5405 146.888 84.2365 147.052 83.9885 147.26L83.5085 146.396C83.8365 146.132 84.2285 145.932 84.6845 145.796C85.1405 145.652 85.6245 145.58 86.1365 145.58ZM85.8725 151.184C86.3125 151.184 86.6925 151.088 87.0125 150.896C87.3325 150.696 87.5645 150.416 87.7085 150.056V149.168H85.9325C84.9565 149.168 84.4685 149.496 84.4685 150.152C84.4685 150.472 84.5925 150.724 84.8405 150.908C85.0885 151.092 85.4325 151.184 85.8725 151.184ZM97.0275 143.096V152H95.9235V150.992C95.6675 151.344 95.3435 151.612 94.9515 151.796C94.5595 151.98 94.1275 152.072 93.6555 152.072C93.0395 152.072 92.4875 151.936 91.9995 151.664C91.5115 151.392 91.1275 151.012 90.8475 150.524C90.5755 150.028 90.4395 149.46 90.4395 148.82C90.4395 148.18 90.5755 147.616 90.8475 147.128C91.1275 146.64 91.5115 146.26 91.9995 145.988C92.4875 145.716 93.0395 145.58 93.6555 145.58C94.1115 145.58 94.5315 145.668 94.9155 145.844C95.2995 146.012 95.6195 146.264 95.8755 146.6V143.096H97.0275ZM93.7515 151.064C94.1515 151.064 94.5155 150.972 94.8435 150.788C95.1715 150.596 95.4275 150.332 95.6115 149.996C95.7955 149.652 95.8875 149.26 95.8875 148.82C95.8875 148.38 95.7955 147.992 95.6115 147.656C95.4275 147.312 95.1715 147.048 94.8435 146.864C94.5155 146.68 94.1515 146.588 93.7515 146.588C93.3435 146.588 92.9755 146.68 92.6475 146.864C92.3275 147.048 92.0715 147.312 91.8795 147.656C91.6955 147.992 91.6035 148.38 91.6035 148.82C91.6035 149.26 91.6955 149.652 91.8795 149.996C92.0715 150.332 92.3275 150.596 92.6475 150.788C92.9755 150.972 93.3435 151.064 93.7515 151.064ZM101.931 152.072C101.299 152.072 100.731 151.932 100.227 151.652C99.7232 151.372 99.3272 150.988 99.0392 150.5C98.7592 150.004 98.6192 149.444 98.6192 148.82C98.6192 148.196 98.7592 147.64 99.0392 147.152C99.3272 146.656 99.7232 146.272 100.227 146C100.731 145.72 101.299 145.58 101.931 145.58C102.563 145.58 103.127 145.72 103.623 146C104.127 146.272 104.519 146.656 104.799 147.152C105.087 147.64 105.231 148.196 105.231 148.82C105.231 149.444 105.087 150.004 104.799 150.5C104.519 150.988 104.127 151.372 103.623 151.652C103.127 151.932 102.563 152.072 101.931 152.072ZM101.931 151.064C102.339 151.064 102.703 150.972 103.023 150.788C103.351 150.596 103.607 150.332 103.791 149.996C103.975 149.652 104.067 149.26 104.067 148.82C104.067 148.38 103.975 147.992 103.791 147.656C103.607 147.312 103.351 147.048 103.023 146.864C102.703 146.68 102.339 146.588 101.931 146.588C101.523 146.588 101.155 146.68 100.827 146.864C100.507 147.048 100.251 147.312 100.059 147.656C99.8752 147.992 99.7832 148.38 99.7832 148.82C99.7832 149.26 99.8752 149.652 100.059 149.996C100.251 150.332 100.507 150.596 100.827 150.788C101.155 150.972 101.523 151.064 101.931 151.064ZM110.047 145.64H111.199V152H110.047V145.64ZM110.623 144.416C110.399 144.416 110.211 144.344 110.059 144.2C109.915 144.056 109.843 143.88 109.843 143.672C109.843 143.464 109.915 143.288 110.059 143.144C110.211 142.992 110.399 142.916 110.623 142.916C110.847 142.916 111.031 142.988 111.175 143.132C111.327 143.268 111.403 143.44 111.403 143.648C111.403 143.864 111.327 144.048 111.175 144.2C111.031 144.344 110.847 144.416 110.623 144.416ZM116.795 145.58C117.603 145.58 118.243 145.816 118.715 146.288C119.195 146.752 119.435 147.436 119.435 148.34V152H118.283V148.472C118.283 147.856 118.135 147.392 117.839 147.08C117.543 146.768 117.119 146.612 116.567 146.612C115.943 146.612 115.451 146.796 115.091 147.164C114.731 147.524 114.551 148.044 114.551 148.724V152H113.399V145.64H114.503V146.6C114.735 146.272 115.047 146.02 115.439 145.844C115.839 145.668 116.291 145.58 116.795 145.58ZM123.895 143.972C123.207 143.972 122.863 144.344 122.863 145.088V145.64H124.711V146.588H122.887V152H121.735V146.588H120.655V145.64H121.735V145.076C121.735 144.444 121.919 143.944 122.287 143.576C122.655 143.208 123.171 143.024 123.835 143.024C124.091 143.024 124.331 143.056 124.555 143.12C124.779 143.184 124.971 143.276 125.131 143.396L124.783 144.272C124.519 144.072 124.223 143.972 123.895 143.972ZM131.451 148.856C131.451 148.944 131.443 149.06 131.427 149.204H126.267C126.339 149.764 126.583 150.216 126.999 150.56C127.423 150.896 127.947 151.064 128.571 151.064C129.331 151.064 129.943 150.808 130.407 150.296L131.043 151.04C130.755 151.376 130.395 151.632 129.963 151.808C129.539 151.984 129.063 152.072 128.535 152.072C127.863 152.072 127.267 151.936 126.747 151.664C126.227 151.384 125.823 150.996 125.535 150.5C125.255 150.004 125.115 149.444 125.115 148.82C125.115 148.204 125.251 147.648 125.523 147.152C125.803 146.656 126.183 146.272 126.663 146C127.151 145.72 127.699 145.58 128.307 145.58C128.915 145.58 129.455 145.72 129.927 146C130.407 146.272 130.779 146.656 131.043 147.152C131.315 147.648 131.451 148.216 131.451 148.856ZM128.307 146.552C127.755 146.552 127.291 146.72 126.915 147.056C126.547 147.392 126.331 147.832 126.267 148.376H130.347C130.283 147.84 130.063 147.404 129.687 147.068C129.319 146.724 128.859 146.552 128.307 146.552ZM134.155 146.708C134.355 146.34 134.651 146.06 135.043 145.868C135.435 145.676 135.911 145.58 136.471 145.58V146.696C136.407 146.688 136.319 146.684 136.207 146.684C135.583 146.684 135.091 146.872 134.731 147.248C134.379 147.616 134.203 148.144 134.203 148.832V152H133.051V145.64H134.155V146.708ZM137.891 145.64H139.043V152H137.891V145.64ZM138.467 144.416C138.243 144.416 138.055 144.344 137.903 144.2C137.759 144.056 137.687 143.88 137.687 143.672C137.687 143.464 137.759 143.288 137.903 143.144C138.055 142.992 138.243 142.916 138.467 142.916C138.691 142.916 138.875 142.988 139.019 143.132C139.171 143.268 139.247 143.44 139.247 143.648C139.247 143.864 139.171 144.048 139.019 144.2C138.875 144.344 138.691 144.416 138.467 144.416ZM143.966 152.072C143.334 152.072 142.766 151.932 142.262 151.652C141.758 151.372 141.362 150.988 141.074 150.5C140.794 150.004 140.654 149.444 140.654 148.82C140.654 148.196 140.794 147.64 141.074 147.152C141.362 146.656 141.758 146.272 142.262 146C142.766 145.72 143.334 145.58 143.966 145.58C144.598 145.58 145.162 145.72 145.658 146C146.162 146.272 146.554 146.656 146.834 147.152C147.122 147.64 147.266 148.196 147.266 148.82C147.266 149.444 147.122 150.004 146.834 150.5C146.554 150.988 146.162 151.372 145.658 151.652C145.162 151.932 144.598 152.072 143.966 152.072ZM143.966 151.064C144.374 151.064 144.738 150.972 145.058 150.788C145.386 150.596 145.642 150.332 145.826 149.996C146.01 149.652 146.102 149.26 146.102 148.82C146.102 148.38 146.01 147.992 145.826 147.656C145.642 147.312 145.386 147.048 145.058 146.864C144.738 146.68 144.374 146.588 143.966 146.588C143.558 146.588 143.19 146.68 142.862 146.864C142.542 147.048 142.286 147.312 142.094 147.656C141.91 147.992 141.818 148.38 141.818 148.82C141.818 149.26 141.91 149.652 142.094 149.996C142.286 150.332 142.542 150.596 142.862 150.788C143.19 150.972 143.558 151.064 143.966 151.064ZM149.964 146.708C150.164 146.34 150.46 146.06 150.852 145.868C151.244 145.676 151.72 145.58 152.28 145.58V146.696C152.216 146.688 152.128 146.684 152.016 146.684C151.392 146.684 150.9 146.872 150.54 147.248C150.188 147.616 150.012 148.144 150.012 148.832V152H148.86V145.64H149.964V146.708ZM153.94 152.072C153.716 152.072 153.524 151.996 153.364 151.844C153.204 151.684 153.124 151.484 153.124 151.244C153.124 151.012 153.204 150.82 153.364 150.668C153.524 150.508 153.716 150.428 153.94 150.428C154.164 150.428 154.352 150.504 154.504 150.656C154.656 150.808 154.732 151.004 154.732 151.244C154.732 151.484 154.652 151.684 154.492 151.844C154.34 151.996 154.156 152.072 153.94 152.072Z" fill="#008E86"/>
<path d="M64.8101 75.5951L70.5979 37.3956L114.971 99.1323L73.2989 97.9747L64.8101 75.5951Z" fill="#008E86" stroke="#00635D" stroke-width="2" stroke-linejoin="round"/>
<path d="M69.8262 36.6238L87.1896 18.8745L91.0482 24.2765L70.212 77.5244L69.8262 36.6238Z" fill="#00D8CC" stroke="#00635D" stroke-width="2" stroke-linejoin="round"/>
<path d="M113.813 97.9749L106.096 85.2417L125.003 92.187L113.813 97.9749Z" fill="#00D8CC" stroke="#00635D" stroke-width="2" stroke-linejoin="round"/>
<path d="M82.1734 9.99999L89.8905 14.2444L91.0481 24.2766L80.2441 11.9293L82.1734 9.99999Z" fill="#00D8CC" stroke="#00635D" stroke-width="2" stroke-linejoin="round"/>
<path d="M70.2119 77.5246L82.1734 48.5855L119.601 84.47L115.743 99.5183L79.0866 99.5183L70.2119 77.5246Z" fill="#00D8CC" stroke="#00635D" stroke-width="2" stroke-linejoin="round"/>
<path d="M101.853 99.518L101.852 90.2576L85.2611 86.7848L84.8752 99.132" stroke="#00635D" stroke-width="2" stroke-dasharray="2 2"/>
<path fill-rule="evenodd" clip-rule="evenodd" d="M81.725 99.8234C82.5088 101.703 83.7347 103.484 84.987 104.801L83.9041 106.598C83.4494 105.702 82.5528 105.115 81.5497 105.058C80.547 105 79.589 105.479 79.034 106.316L77.4452 108.715C76.9072 109.556 76.8532 110.619 77.303 111.51C77.7524 112.402 78.6392 112.99 79.6351 113.057C80.6316 113.125 81.5895 112.661 82.1549 111.838L83.7437 109.439L83.7547 109.421L85.4813 106.558L85.9833 109.498C85.9912 109.543 86.0036 109.587 86.0202 109.63C86.0289 109.709 86.0429 109.793 86.0557 109.868L86.6248 112.688C86.7628 113.433 87.1941 114.092 87.8218 114.516C88.4499 114.94 89.2219 115.094 89.9643 114.944C90.7071 114.794 91.358 114.351 91.7716 113.716C92.1852 113.082 92.3265 112.307 92.1641 111.567L91.5949 108.747C91.4634 108.093 91.1049 107.506 90.5822 107.092C90.0595 106.677 89.4064 106.461 88.7401 106.483C88.0732 106.504 87.4357 106.761 86.9405 107.208L86.5829 105.064C87.3943 104.688 88.1748 104.248 88.9165 103.747C91.0819 102.29 93.0793 100.233 93.7584 97.9837C94.2567 96.3206 94.0126 94.7388 93.0322 93.2825C93.027 93.2889 93.0236 93.2839 93.0236 93.2839C93.0085 93.2631 92.9923 93.2435 92.9747 93.2244C92.9639 93.2084 92.9532 93.1924 92.9374 93.1822C92.9276 93.1758 92.9181 93.1678 92.9089 93.1601C92.903 93.1551 92.8971 93.1502 92.8914 93.1458C92.8721 93.1296 92.8519 93.1146 92.8311 93.1006L92.8253 93.092C92.8206 93.0849 92.8108 93.0821 92.8008 93.0792C92.795 93.0775 92.7891 93.0758 92.7841 93.0732C92.7621 93.0618 92.7396 93.0513 92.7168 93.0423C92.7036 93.0368 92.6901 93.0332 92.6765 93.0296C92.6697 93.0278 92.663 93.0261 92.6562 93.024C92.6361 93.0179 92.6147 93.0127 92.592 93.0083C92.5694 93.0038 92.5492 93.0031 92.529 93.0024C92.5228 93.0022 92.5163 93.0018 92.5096 93.0014C92.4947 93.0005 92.4788 92.9996 92.4632 93.0002C92.4451 93.0009 92.4302 93.003 92.4149 93.0051C92.411 93.0056 92.4072 93.0061 92.4032 93.0066C92.3807 93.0087 92.3593 93.0123 92.3367 93.0168C92.326 93.0241 92.3122 93.0269 92.2985 93.0296C92.2919 93.0309 92.2854 93.0323 92.2792 93.0341C92.2577 93.0402 92.236 93.0477 92.2152 93.0558C92.1949 93.0682 92.1752 93.0814 92.1565 93.0952L92.1171 93.1217L92.1073 93.1284C92.0867 93.1411 92.0666 93.1546 92.0474 93.1687C92.0302 93.1803 92.013 93.1919 92.0024 93.2097C91.9937 93.2241 91.9836 93.2348 91.9738 93.2454C91.9711 93.2482 91.9685 93.251 91.966 93.2539C91.9493 93.2734 91.9339 93.2939 91.9197 93.3154L91.9111 93.3212L86.1945 102.808L85.6858 99.8234H84.3431L84.8015 102.51C84.1818 101.682 83.6205 100.764 83.1792 99.8234H81.725ZM78.9858 111.498C79.6629 111.947 80.5746 111.774 81.0403 111.108L82.6203 108.722L82.6767 108.629C83.0842 107.929 82.8598 107.031 82.1712 106.605C81.4824 106.178 80.5794 106.378 80.1341 107.055L78.5453 109.454C78.1131 110.142 78.3088 111.049 78.9858 111.498ZM89.3914 107.918C88.9297 107.728 88.4048 107.781 87.9902 108.058L87.9956 108.062C87.4926 108.397 87.2402 109.002 87.3557 109.596L87.9248 112.417C87.995 112.814 88.2226 113.166 88.5561 113.393C88.8893 113.62 89.3005 113.703 89.6959 113.623C90.0915 113.543 90.4376 113.307 90.6565 112.968C90.8752 112.629 90.9484 112.216 90.8586 111.823L90.2894 109.002C90.1896 108.514 89.8527 108.107 89.3914 107.918ZM87.5949 103.031C90.3102 101.404 91.9973 99.2113 92.4774 97.6086L92.4828 97.6122C92.7507 96.7638 92.7314 95.8507 92.4256 95.0149L87.5949 103.031Z" fill="black"/>
</g>
<defs>
<clipPath id="clip0_5693_197651">
<rect width="180" height="180" rx="20" fill="white"/>
</clipPath>
<clipPath id="clip1_5693_197651">
<path d="M0 30L-1.31134e-06 0L30 -1.31134e-06L30 10C30 21.0457 21.0457 30 10 30L0 30Z" fill="white"/>
</clipPath>
</defs>
</svg>
