<svg width="180" height="180" viewBox="0 0 180 180" fill="none" xmlns="http://www.w3.org/2000/svg">
<g clip-path="url(#clip0_5698_199205)">
<rect width="180" height="180" rx="20" fill="#F2F2F2"/>

<path d="M24.5862 120.6H28.1262C29.0142 120.6 29.8022 120.776 30.4902 121.128C31.1782 121.48 31.7102 121.976 32.0862 122.616C32.4702 123.248 32.6622 123.976 32.6622 124.8C32.6622 125.624 32.4702 126.356 32.0862 126.996C31.7102 127.628 31.1782 128.12 30.4902 128.472C29.8022 128.824 29.0142 129 28.1262 129H24.5862V120.6ZM28.0542 127.956C28.7342 127.956 29.3302 127.824 29.8422 127.56C30.3622 127.296 30.7622 126.928 31.0422 126.456C31.3222 125.976 31.4622 125.424 31.4622 124.8C31.4622 124.176 31.3222 123.628 31.0422 123.156C30.7622 122.676 30.3622 122.304 29.8422 122.04C29.3302 121.776 28.7342 121.644 28.0542 121.644H25.7862V127.956H28.0542ZM37.0562 129.072C36.4242 129.072 35.8562 128.932 35.3522 128.652C34.8482 128.372 34.4522 127.988 34.1642 127.5C33.8842 127.004 33.7442 126.444 33.7442 125.82C33.7442 125.196 33.8842 124.64 34.1642 124.152C34.4522 123.656 34.8482 123.272 35.3522 123C35.8562 122.72 36.4242 122.58 37.0562 122.58C37.6882 122.58 38.2522 122.72 38.7482 123C39.2522 123.272 39.6442 123.656 39.9242 124.152C40.2122 124.64 40.3562 125.196 40.3562 125.82C40.3562 126.444 40.2122 127.004 39.9242 127.5C39.6442 127.988 39.2522 128.372 38.7482 128.652C38.2522 128.932 37.6882 129.072 37.0562 129.072ZM37.0562 128.064C37.4642 128.064 37.8282 127.972 38.1482 127.788C38.4762 127.596 38.7322 127.332 38.9162 126.996C39.1002 126.652 39.1922 126.26 39.1922 125.82C39.1922 125.38 39.1002 124.992 38.9162 124.656C38.7322 124.312 38.4762 124.048 38.1482 123.864C37.8282 123.68 37.4642 123.588 37.0562 123.588C36.6482 123.588 36.2802 123.68 35.9522 123.864C35.6322 124.048 35.3762 124.312 35.1842 124.656C35.0002 124.992 34.9082 125.38 34.9082 125.82C34.9082 126.26 35.0002 126.652 35.1842 126.996C35.3762 127.332 35.6322 127.596 35.9522 127.788C36.2802 127.972 36.6482 128.064 37.0562 128.064ZM45.3214 122.58C45.9374 122.58 46.4894 122.716 46.9774 122.988C47.4654 123.26 47.8454 123.64 48.1174 124.128C48.3974 124.616 48.5374 125.18 48.5374 125.82C48.5374 126.46 48.3974 127.028 48.1174 127.524C47.8454 128.012 47.4654 128.392 46.9774 128.664C46.4894 128.936 45.9374 129.072 45.3214 129.072C44.8494 129.072 44.4174 128.98 44.0254 128.796C43.6334 128.612 43.3094 128.344 43.0534 127.992V129H41.9494V120.096H43.1014V123.6C43.3574 123.264 43.6774 123.012 44.0614 122.844C44.4454 122.668 44.8654 122.58 45.3214 122.58ZM45.2254 128.064C45.6334 128.064 45.9974 127.972 46.3174 127.788C46.6454 127.596 46.9014 127.332 47.0854 126.996C47.2774 126.652 47.3734 126.26 47.3734 125.82C47.3734 125.38 47.2774 124.992 47.0854 124.656C46.9014 124.312 46.6454 124.048 46.3174 123.864C45.9974 123.68 45.6334 123.588 45.2254 123.588C44.8254 123.588 44.4614 123.68 44.1334 123.864C43.8054 124.048 43.5494 124.312 43.3654 124.656C43.1814 124.992 43.0894 125.38 43.0894 125.82C43.0894 126.26 43.1814 126.652 43.3654 126.996C43.5494 127.332 43.8054 127.596 44.1334 127.788C44.4614 127.972 44.8254 128.064 45.2254 128.064ZM50.1291 120.096H51.2811V129H50.1291V120.096ZM55.7967 122.58C56.6767 122.58 57.3487 122.796 57.8127 123.228C58.2847 123.66 58.5207 124.304 58.5207 125.16V129H57.4287V128.16C57.2367 128.456 56.9607 128.684 56.6007 128.844C56.2487 128.996 55.8287 129.072 55.3407 129.072C54.6287 129.072 54.0567 128.9 53.6247 128.556C53.2007 128.212 52.9887 127.76 52.9887 127.2C52.9887 126.64 53.1927 126.192 53.6007 125.856C54.0087 125.512 54.6567 125.34 55.5447 125.34H57.3687V125.112C57.3687 124.616 57.2247 124.236 56.9367 123.972C56.6487 123.708 56.2247 123.576 55.6647 123.576C55.2887 123.576 54.9207 123.64 54.5607 123.768C54.2007 123.888 53.8967 124.052 53.6487 124.26L53.1687 123.396C53.4967 123.132 53.8887 122.932 54.3447 122.796C54.8007 122.652 55.2847 122.58 55.7967 122.58ZM55.5327 128.184C55.9727 128.184 56.3527 128.088 56.6727 127.896C56.9927 127.696 57.2247 127.416 57.3687 127.056V126.168H55.5927C54.6167 126.168 54.1287 126.496 54.1287 127.152C54.1287 127.472 54.2527 127.724 54.5007 127.908C54.7487 128.092 55.0927 128.184 55.5327 128.184ZM69.6232 125.856C69.6232 125.944 69.6152 126.06 69.5992 126.204H64.4392C64.5112 126.764 64.7552 127.216 65.1712 127.56C65.5952 127.896 66.1192 128.064 66.7432 128.064C67.5032 128.064 68.1152 127.808 68.5792 127.296L69.2152 128.04C68.9272 128.376 68.5672 128.632 68.1352 128.808C67.7112 128.984 67.2352 129.072 66.7072 129.072C66.0352 129.072 65.4392 128.936 64.9192 128.664C64.3992 128.384 63.9952 127.996 63.7072 127.5C63.4272 127.004 63.2872 126.444 63.2872 125.82C63.2872 125.204 63.4232 124.648 63.6952 124.152C63.9752 123.656 64.3552 123.272 64.8352 123C65.3232 122.72 65.8712 122.58 66.4792 122.58C67.0872 122.58 67.6272 122.72 68.0992 123C68.5792 123.272 68.9512 123.656 69.2152 124.152C69.4872 124.648 69.6232 125.216 69.6232 125.856ZM66.4792 123.552C65.9272 123.552 65.4632 123.72 65.0872 124.056C64.7192 124.392 64.5032 124.832 64.4392 125.376H68.5192C68.4552 124.84 68.2352 124.404 67.8592 124.068C67.4912 123.724 67.0312 123.552 66.4792 123.552ZM71.2229 120.096H72.3749V129H71.2229V120.096ZM77.7971 120.096H78.9491V129H77.7971V120.096ZM83.4646 122.58C84.3446 122.58 85.0166 122.796 85.4806 123.228C85.9526 123.66 86.1886 124.304 86.1886 125.16V129H85.0966V128.16C84.9046 128.456 84.6286 128.684 84.2686 128.844C83.9166 128.996 83.4966 129.072 83.0086 129.072C82.2966 129.072 81.7246 128.9 81.2926 128.556C80.8686 128.212 80.6566 127.76 80.6566 127.2C80.6566 126.64 80.8606 126.192 81.2686 125.856C81.6766 125.512 82.3246 125.34 83.2126 125.34H85.0366V125.112C85.0366 124.616 84.8926 124.236 84.6046 123.972C84.3166 123.708 83.8926 123.576 83.3326 123.576C82.9566 123.576 82.5886 123.64 82.2286 123.768C81.8686 123.888 81.5646 124.052 81.3166 124.26L80.8366 123.396C81.1646 123.132 81.5566 122.932 82.0126 122.796C82.4686 122.652 82.9526 122.58 83.4646 122.58ZM83.2006 128.184C83.6406 128.184 84.0206 128.088 84.3406 127.896C84.6606 127.696 84.8926 127.416 85.0366 127.056V126.168H83.2606C82.2846 126.168 81.7966 126.496 81.7966 127.152C81.7966 127.472 81.9206 127.724 82.1686 127.908C82.4166 128.092 82.7606 128.184 83.2006 128.184ZM94.3557 120.096V129H93.2517V127.992C92.9957 128.344 92.6717 128.612 92.2797 128.796C91.8877 128.98 91.4557 129.072 90.9837 129.072C90.3677 129.072 89.8157 128.936 89.3277 128.664C88.8397 128.392 88.4557 128.012 88.1757 127.524C87.9037 127.028 87.7677 126.46 87.7677 125.82C87.7677 125.18 87.9037 124.616 88.1757 124.128C88.4557 123.64 88.8397 123.26 89.3277 122.988C89.8157 122.716 90.3677 122.58 90.9837 122.58C91.4397 122.58 91.8597 122.668 92.2437 122.844C92.6277 123.012 92.9477 123.264 93.2037 123.6V120.096H94.3557ZM91.0797 128.064C91.4797 128.064 91.8437 127.972 92.1717 127.788C92.4997 127.596 92.7557 127.332 92.9397 126.996C93.1237 126.652 93.2157 126.26 93.2157 125.82C93.2157 125.38 93.1237 124.992 92.9397 124.656C92.7557 124.312 92.4997 124.048 92.1717 123.864C91.8437 123.68 91.4797 123.588 91.0797 123.588C90.6717 123.588 90.3037 123.68 89.9757 123.864C89.6557 124.048 89.3997 124.312 89.2077 124.656C89.0237 124.992 88.9317 125.38 88.9317 125.82C88.9317 126.26 89.0237 126.652 89.2077 126.996C89.3997 127.332 89.6557 127.596 89.9757 127.788C90.3037 127.972 90.6717 128.064 91.0797 128.064ZM99.2594 129.072C98.6274 129.072 98.0594 128.932 97.5554 128.652C97.0514 128.372 96.6554 127.988 96.3674 127.5C96.0874 127.004 95.9474 126.444 95.9474 125.82C95.9474 125.196 96.0874 124.64 96.3674 124.152C96.6554 123.656 97.0514 123.272 97.5554 123C98.0594 122.72 98.6274 122.58 99.2594 122.58C99.8914 122.58 100.455 122.72 100.951 123C101.455 123.272 101.847 123.656 102.127 124.152C102.415 124.64 102.559 125.196 102.559 125.82C102.559 126.444 102.415 127.004 102.127 127.5C101.847 127.988 101.455 128.372 100.951 128.652C100.455 128.932 99.8914 129.072 99.2594 129.072ZM99.2594 128.064C99.6674 128.064 100.031 127.972 100.351 127.788C100.679 127.596 100.935 127.332 101.119 126.996C101.303 126.652 101.395 126.26 101.395 125.82C101.395 125.38 101.303 124.992 101.119 124.656C100.935 124.312 100.679 124.048 100.351 123.864C100.031 123.68 99.6674 123.588 99.2594 123.588C98.8514 123.588 98.4834 123.68 98.1554 123.864C97.8354 124.048 97.5794 124.312 97.3874 124.656C97.2034 124.992 97.1114 125.38 97.1114 125.82C97.1114 126.26 97.2034 126.652 97.3874 126.996C97.5794 127.332 97.8354 127.596 98.1554 127.788C98.4834 127.972 98.8514 128.064 99.2594 128.064ZM109.199 129.072C108.679 129.072 108.179 129.004 107.699 128.868C107.219 128.724 106.843 128.544 106.571 128.328L107.051 127.416C107.331 127.616 107.671 127.776 108.071 127.896C108.471 128.016 108.875 128.076 109.283 128.076C110.291 128.076 110.795 127.788 110.795 127.212C110.795 127.02 110.727 126.868 110.591 126.756C110.455 126.644 110.283 126.564 110.075 126.516C109.875 126.46 109.587 126.4 109.211 126.336C108.699 126.256 108.279 126.164 107.951 126.06C107.631 125.956 107.355 125.78 107.123 125.532C106.891 125.284 106.775 124.936 106.775 124.488C106.775 123.912 107.015 123.452 107.495 123.108C107.975 122.756 108.619 122.58 109.427 122.58C109.851 122.58 110.275 122.632 110.699 122.736C111.123 122.84 111.471 122.98 111.743 123.156L111.251 124.068C110.731 123.732 110.119 123.564 109.415 123.564C108.927 123.564 108.555 123.644 108.299 123.804C108.043 123.964 107.915 124.176 107.915 124.44C107.915 124.648 107.987 124.812 108.131 124.932C108.275 125.052 108.451 125.14 108.659 125.196C108.875 125.252 109.175 125.316 109.559 125.388C110.071 125.476 110.483 125.572 110.795 125.676C111.115 125.772 111.387 125.94 111.611 126.18C111.835 126.42 111.947 126.756 111.947 127.188C111.947 127.764 111.699 128.224 111.203 128.568C110.715 128.904 110.047 129.072 109.199 129.072ZM119.315 122.64V129H118.223V128.04C117.991 128.368 117.683 128.624 117.299 128.808C116.923 128.984 116.511 129.072 116.063 129.072C115.215 129.072 114.547 128.84 114.059 128.376C113.571 127.904 113.327 127.212 113.327 126.3V122.64H114.479V126.168C114.479 126.784 114.627 127.252 114.923 127.572C115.219 127.884 115.643 128.04 116.195 128.04C116.803 128.04 117.283 127.856 117.635 127.488C117.987 127.12 118.163 126.6 118.163 125.928V122.64H119.315ZM124.88 122.58C125.496 122.58 126.048 122.716 126.536 122.988C127.024 123.26 127.404 123.64 127.676 124.128C127.956 124.616 128.096 125.18 128.096 125.82C128.096 126.46 127.956 127.028 127.676 127.524C127.404 128.012 127.024 128.392 126.536 128.664C126.048 128.936 125.496 129.072 124.88 129.072C124.424 129.072 124.004 128.984 123.62 128.808C123.244 128.632 122.924 128.376 122.66 128.04V131.328H121.508V122.64H122.612V123.648C122.868 123.296 123.192 123.032 123.584 122.856C123.976 122.672 124.408 122.58 124.88 122.58ZM124.784 128.064C125.192 128.064 125.556 127.972 125.876 127.788C126.204 127.596 126.46 127.332 126.644 126.996C126.836 126.652 126.932 126.26 126.932 125.82C126.932 125.38 126.836 124.992 126.644 124.656C126.46 124.312 126.204 124.048 125.876 123.864C125.556 123.68 125.192 123.588 124.784 123.588C124.384 123.588 124.02 123.684 123.692 123.876C123.372 124.06 123.116 124.32 122.924 124.656C122.74 124.992 122.648 125.38 122.648 125.82C122.648 126.26 122.74 126.652 122.924 126.996C123.108 127.332 123.364 127.596 123.692 127.788C124.02 127.972 124.384 128.064 124.784 128.064ZM135.436 125.856C135.436 125.944 135.428 126.06 135.412 126.204H130.252C130.324 126.764 130.568 127.216 130.984 127.56C131.408 127.896 131.932 128.064 132.556 128.064C133.316 128.064 133.928 127.808 134.392 127.296L135.028 128.04C134.74 128.376 134.38 128.632 133.948 128.808C133.524 128.984 133.048 129.072 132.52 129.072C131.848 129.072 131.252 128.936 130.732 128.664C130.212 128.384 129.808 127.996 129.52 127.5C129.24 127.004 129.1 126.444 129.1 125.82C129.1 125.204 129.236 124.648 129.508 124.152C129.788 123.656 130.168 123.272 130.648 123C131.136 122.72 131.684 122.58 132.292 122.58C132.9 122.58 133.44 122.72 133.912 123C134.392 123.272 134.764 123.656 135.028 124.152C135.3 124.648 135.436 125.216 135.436 125.856ZM132.292 123.552C131.74 123.552 131.276 123.72 130.9 124.056C130.532 124.392 130.316 124.832 130.252 125.376H134.332C134.268 124.84 134.048 124.404 133.672 124.068C133.304 123.724 132.844 123.552 132.292 123.552ZM138.139 123.708C138.339 123.34 138.635 123.06 139.027 122.868C139.419 122.676 139.895 122.58 140.455 122.58V123.696C140.391 123.688 140.303 123.684 140.191 123.684C139.567 123.684 139.075 123.872 138.715 124.248C138.363 124.616 138.187 125.144 138.187 125.832V129H137.035V122.64H138.139V123.708ZM141.875 122.64H143.027V129H141.875V122.64ZM142.451 121.416C142.227 121.416 142.039 121.344 141.887 121.2C141.743 121.056 141.671 120.88 141.671 120.672C141.671 120.464 141.743 120.288 141.887 120.144C142.039 119.992 142.227 119.916 142.451 119.916C142.675 119.916 142.859 119.988 143.003 120.132C143.155 120.268 143.231 120.44 143.231 120.648C143.231 120.864 143.155 121.048 143.003 121.2C142.859 121.344 142.675 121.416 142.451 121.416ZM147.951 129.072C147.319 129.072 146.751 128.932 146.247 128.652C145.743 128.372 145.347 127.988 145.059 127.5C144.779 127.004 144.639 126.444 144.639 125.82C144.639 125.196 144.779 124.64 145.059 124.152C145.347 123.656 145.743 123.272 146.247 123C146.751 122.72 147.319 122.58 147.951 122.58C148.583 122.58 149.147 122.72 149.643 123C150.147 123.272 150.539 123.656 150.819 124.152C151.107 124.64 151.251 125.196 151.251 125.82C151.251 126.444 151.107 127.004 150.819 127.5C150.539 127.988 150.147 128.372 149.643 128.652C149.147 128.932 148.583 129.072 147.951 129.072ZM147.951 128.064C148.359 128.064 148.723 127.972 149.043 127.788C149.371 127.596 149.627 127.332 149.811 126.996C149.995 126.652 150.087 126.26 150.087 125.82C150.087 125.38 149.995 124.992 149.811 124.656C149.627 124.312 149.371 124.048 149.043 123.864C148.723 123.68 148.359 123.588 147.951 123.588C147.543 123.588 147.175 123.68 146.847 123.864C146.527 124.048 146.271 124.312 146.079 124.656C145.895 124.992 145.803 125.38 145.803 125.82C145.803 126.26 145.895 126.652 146.079 126.996C146.271 127.332 146.527 127.596 146.847 127.788C147.175 127.972 147.543 128.064 147.951 128.064ZM153.948 123.708C154.148 123.34 154.444 123.06 154.836 122.868C155.228 122.676 155.704 122.58 156.264 122.58V123.696C156.2 123.688 156.112 123.684 156 123.684C155.376 123.684 154.884 123.872 154.524 124.248C154.172 124.616 153.996 125.144 153.996 125.832V129H152.844V122.64H153.948V123.708ZM29.7825 137.64L26.6985 144.636C26.4265 145.284 26.1065 145.74 25.7385 146.004C25.3785 146.268 24.9425 146.4 24.4305 146.4C24.1185 146.4 23.8145 146.348 23.5185 146.244C23.2305 146.148 22.9905 146.004 22.7985 145.812L23.2905 144.948C23.6185 145.26 23.9985 145.416 24.4305 145.416C24.7105 145.416 24.9425 145.34 25.1265 145.188C25.3185 145.044 25.4905 144.792 25.6425 144.432L25.8465 143.988L23.0385 137.64H24.2385L26.4585 142.728L28.6545 137.64H29.7825ZM39.8283 140.856C39.8283 140.944 39.8203 141.06 39.8043 141.204H34.6443C34.7163 141.764 34.9603 142.216 35.3763 142.56C35.8003 142.896 36.3243 143.064 36.9483 143.064C37.7083 143.064 38.3203 142.808 38.7843 142.296L39.4203 143.04C39.1323 143.376 38.7723 143.632 38.3403 143.808C37.9163 143.984 37.4403 144.072 36.9123 144.072C36.2403 144.072 35.6443 143.936 35.1243 143.664C34.6043 143.384 34.2003 142.996 33.9123 142.5C33.6323 142.004 33.4923 141.444 33.4923 140.82C33.4923 140.204 33.6283 139.648 33.9003 139.152C34.1803 138.656 34.5603 138.272 35.0403 138C35.5283 137.72 36.0763 137.58 36.6843 137.58C37.2923 137.58 37.8323 137.72 38.3043 138C38.7843 138.272 39.1563 138.656 39.4203 139.152C39.6923 139.648 39.8283 140.216 39.8283 140.856ZM36.6843 138.552C36.1323 138.552 35.6683 138.72 35.2923 139.056C34.9243 139.392 34.7083 139.832 34.6443 140.376H38.7243C38.6603 139.84 38.4403 139.404 38.0643 139.068C37.6963 138.724 37.2363 138.552 36.6843 138.552ZM41.4279 135.096H42.5799V144H41.4279V135.096ZM48.0022 135.096H49.1542V144H48.0022V135.096ZM53.6697 137.58C54.5497 137.58 55.2217 137.796 55.6857 138.228C56.1577 138.66 56.3937 139.304 56.3937 140.16V144H55.3017V143.16C55.1097 143.456 54.8337 143.684 54.4737 143.844C54.1217 143.996 53.7017 144.072 53.2137 144.072C52.5017 144.072 51.9297 143.9 51.4977 143.556C51.0737 143.212 50.8617 142.76 50.8617 142.2C50.8617 141.64 51.0657 141.192 51.4737 140.856C51.8817 140.512 52.5297 140.34 53.4177 140.34H55.2417V140.112C55.2417 139.616 55.0977 139.236 54.8097 138.972C54.5217 138.708 54.0977 138.576 53.5377 138.576C53.1617 138.576 52.7937 138.64 52.4337 138.768C52.0737 138.888 51.7697 139.052 51.5217 139.26L51.0417 138.396C51.3697 138.132 51.7617 137.932 52.2177 137.796C52.6737 137.652 53.1577 137.58 53.6697 137.58ZM53.4057 143.184C53.8457 143.184 54.2257 143.088 54.5457 142.896C54.8657 142.696 55.0977 142.416 55.2417 142.056V141.168H53.4657C52.4897 141.168 52.0017 141.496 52.0017 142.152C52.0017 142.472 52.1257 142.724 52.3737 142.908C52.6217 143.092 52.9657 143.184 53.4057 143.184ZM64.5608 135.096V144H63.4568V142.992C63.2008 143.344 62.8768 143.612 62.4848 143.796C62.0928 143.98 61.6608 144.072 61.1888 144.072C60.5728 144.072 60.0208 143.936 59.5328 143.664C59.0448 143.392 58.6608 143.012 58.3808 142.524C58.1088 142.028 57.9728 141.46 57.9728 140.82C57.9728 140.18 58.1088 139.616 58.3808 139.128C58.6608 138.64 59.0448 138.26 59.5328 137.988C60.0208 137.716 60.5728 137.58 61.1888 137.58C61.6448 137.58 62.0648 137.668 62.4488 137.844C62.8328 138.012 63.1528 138.264 63.4088 138.6V135.096H64.5608ZM61.2848 143.064C61.6848 143.064 62.0488 142.972 62.3768 142.788C62.7048 142.596 62.9608 142.332 63.1448 141.996C63.3288 141.652 63.4208 141.26 63.4208 140.82C63.4208 140.38 63.3288 139.992 63.1448 139.656C62.9608 139.312 62.7048 139.048 62.3768 138.864C62.0488 138.68 61.6848 138.588 61.2848 138.588C60.8768 138.588 60.5088 138.68 60.1808 138.864C59.8608 139.048 59.6048 139.312 59.4128 139.656C59.2288 139.992 59.1368 140.38 59.1368 140.82C59.1368 141.26 59.2288 141.652 59.4128 141.996C59.6048 142.332 59.8608 142.596 60.1808 142.788C60.5088 142.972 60.8768 143.064 61.2848 143.064ZM69.4644 144.072C68.8324 144.072 68.2644 143.932 67.7604 143.652C67.2564 143.372 66.8604 142.988 66.5724 142.5C66.2924 142.004 66.1524 141.444 66.1524 140.82C66.1524 140.196 66.2924 139.64 66.5724 139.152C66.8604 138.656 67.2564 138.272 67.7604 138C68.2644 137.72 68.8324 137.58 69.4644 137.58C70.0964 137.58 70.6604 137.72 71.1564 138C71.6604 138.272 72.0524 138.656 72.3324 139.152C72.6204 139.64 72.7644 140.196 72.7644 140.82C72.7644 141.444 72.6204 142.004 72.3324 142.5C72.0524 142.988 71.6604 143.372 71.1564 143.652C70.6604 143.932 70.0964 144.072 69.4644 144.072ZM69.4644 143.064C69.8724 143.064 70.2364 142.972 70.5564 142.788C70.8844 142.596 71.1404 142.332 71.3244 141.996C71.5084 141.652 71.6004 141.26 71.6004 140.82C71.6004 140.38 71.5084 139.992 71.3244 139.656C71.1404 139.312 70.8844 139.048 70.5564 138.864C70.2364 138.68 69.8724 138.588 69.4644 138.588C69.0564 138.588 68.6884 138.68 68.3604 138.864C68.0404 139.048 67.7844 139.312 67.5924 139.656C67.4084 139.992 67.3164 140.38 67.3164 140.82C67.3164 141.26 67.4084 141.652 67.5924 141.996C67.7844 142.332 68.0404 142.596 68.3604 142.788C68.6884 142.972 69.0564 143.064 69.4644 143.064ZM77.5803 137.64H78.7323V144H77.5803V137.64ZM78.1563 136.416C77.9323 136.416 77.7443 136.344 77.5923 136.2C77.4483 136.056 77.3763 135.88 77.3763 135.672C77.3763 135.464 77.4483 135.288 77.5923 135.144C77.7443 134.992 77.9323 134.916 78.1563 134.916C78.3803 134.916 78.5643 134.988 78.7083 135.132C78.8603 135.268 78.9363 135.44 78.9363 135.648C78.9363 135.864 78.8603 136.048 78.7083 136.2C78.5643 136.344 78.3803 136.416 78.1563 136.416ZM84.3278 137.58C85.1358 137.58 85.7758 137.816 86.2478 138.288C86.7278 138.752 86.9678 139.436 86.9678 140.34V144H85.8158V140.472C85.8158 139.856 85.6678 139.392 85.3718 139.08C85.0758 138.768 84.6518 138.612 84.0998 138.612C83.4758 138.612 82.9838 138.796 82.6238 139.164C82.2638 139.524 82.0838 140.044 82.0838 140.724V144H80.9318V137.64H82.0358V138.6C82.2678 138.272 82.5798 138.02 82.9718 137.844C83.3718 137.668 83.8238 137.58 84.3278 137.58ZM91.4278 135.972C90.7398 135.972 90.3958 136.344 90.3958 137.088V137.64H92.2438V138.588H90.4198V144H89.2678V138.588H88.1878V137.64H89.2678V137.076C89.2678 136.444 89.4518 135.944 89.8198 135.576C90.1878 135.208 90.7038 135.024 91.3678 135.024C91.6238 135.024 91.8638 135.056 92.0878 135.12C92.3118 135.184 92.5038 135.276 92.6638 135.396L92.3158 136.272C92.0518 136.072 91.7558 135.972 91.4278 135.972ZM98.9845 140.856C98.9845 140.944 98.9765 141.06 98.9605 141.204H93.8005C93.8725 141.764 94.1165 142.216 94.5325 142.56C94.9565 142.896 95.4805 143.064 96.1045 143.064C96.8645 143.064 97.4765 142.808 97.9405 142.296L98.5765 143.04C98.2885 143.376 97.9285 143.632 97.4965 143.808C97.0725 143.984 96.5965 144.072 96.0685 144.072C95.3965 144.072 94.8005 143.936 94.2805 143.664C93.7605 143.384 93.3565 142.996 93.0685 142.5C92.7885 142.004 92.6485 141.444 92.6485 140.82C92.6485 140.204 92.7845 139.648 93.0565 139.152C93.3365 138.656 93.7165 138.272 94.1965 138C94.6845 137.72 95.2325 137.58 95.8405 137.58C96.4485 137.58 96.9885 137.72 97.4605 138C97.9405 138.272 98.3125 138.656 98.5765 139.152C98.8485 139.648 98.9845 140.216 98.9845 140.856ZM95.8405 138.552C95.2885 138.552 94.8245 138.72 94.4485 139.056C94.0805 139.392 93.8645 139.832 93.8005 140.376H97.8805C97.8165 139.84 97.5965 139.404 97.2205 139.068C96.8525 138.724 96.3925 138.552 95.8405 138.552ZM101.688 138.708C101.888 138.34 102.184 138.06 102.576 137.868C102.968 137.676 103.444 137.58 104.004 137.58V138.696C103.94 138.688 103.852 138.684 103.74 138.684C103.116 138.684 102.624 138.872 102.264 139.248C101.912 139.616 101.736 140.144 101.736 140.832V144H100.584V137.64H101.688V138.708ZM105.424 137.64H106.576V144H105.424V137.64ZM106 136.416C105.776 136.416 105.588 136.344 105.436 136.2C105.292 136.056 105.22 135.88 105.22 135.672C105.22 135.464 105.292 135.288 105.436 135.144C105.588 134.992 105.776 134.916 106 134.916C106.224 134.916 106.408 134.988 106.552 135.132C106.704 135.268 106.78 135.44 106.78 135.648C106.78 135.864 106.704 136.048 106.552 136.2C106.408 136.344 106.224 136.416 106 136.416ZM111.5 144.072C110.868 144.072 110.3 143.932 109.796 143.652C109.292 143.372 108.896 142.988 108.608 142.5C108.328 142.004 108.188 141.444 108.188 140.82C108.188 140.196 108.328 139.64 108.608 139.152C108.896 138.656 109.292 138.272 109.796 138C110.3 137.72 110.868 137.58 111.5 137.58C112.132 137.58 112.696 137.72 113.192 138C113.696 138.272 114.088 138.656 114.368 139.152C114.656 139.64 114.8 140.196 114.8 140.82C114.8 141.444 114.656 142.004 114.368 142.5C114.088 142.988 113.696 143.372 113.192 143.652C112.696 143.932 112.132 144.072 111.5 144.072ZM111.5 143.064C111.908 143.064 112.272 142.972 112.592 142.788C112.92 142.596 113.176 142.332 113.36 141.996C113.544 141.652 113.636 141.26 113.636 140.82C113.636 140.38 113.544 139.992 113.36 139.656C113.176 139.312 112.92 139.048 112.592 138.864C112.272 138.68 111.908 138.588 111.5 138.588C111.092 138.588 110.724 138.68 110.396 138.864C110.076 139.048 109.82 139.312 109.628 139.656C109.444 139.992 109.352 140.38 109.352 140.82C109.352 141.26 109.444 141.652 109.628 141.996C109.82 142.332 110.076 142.596 110.396 142.788C110.724 142.972 111.092 143.064 111.5 143.064ZM117.497 138.708C117.697 138.34 117.993 138.06 118.385 137.868C118.777 137.676 119.253 137.58 119.813 137.58V138.696C119.749 138.688 119.661 138.684 119.549 138.684C118.925 138.684 118.433 138.872 118.073 139.248C117.721 139.616 117.545 140.144 117.545 140.832V144H116.393V137.64H117.497V138.708ZM127.933 137.58C128.741 137.58 129.381 137.816 129.853 138.288C130.333 138.752 130.573 139.436 130.573 140.34V144H129.421V140.472C129.421 139.856 129.273 139.392 128.977 139.08C128.681 138.768 128.257 138.612 127.705 138.612C127.081 138.612 126.589 138.796 126.229 139.164C125.869 139.524 125.689 140.044 125.689 140.724V144H124.537V135.096H125.689V138.54C125.929 138.236 126.241 138 126.625 137.832C127.017 137.664 127.453 137.58 127.933 137.58ZM135.021 137.58C135.901 137.58 136.573 137.796 137.037 138.228C137.509 138.66 137.745 139.304 137.745 140.16V144H136.653V143.16C136.461 143.456 136.185 143.684 135.825 143.844C135.473 143.996 135.053 144.072 134.565 144.072C133.853 144.072 133.281 143.9 132.849 143.556C132.425 143.212 132.213 142.76 132.213 142.2C132.213 141.64 132.417 141.192 132.825 140.856C133.233 140.512 133.881 140.34 134.769 140.34H136.593V140.112C136.593 139.616 136.449 139.236 136.161 138.972C135.873 138.708 135.449 138.576 134.889 138.576C134.513 138.576 134.145 138.64 133.785 138.768C133.425 138.888 133.121 139.052 132.873 139.26L132.393 138.396C132.721 138.132 133.113 137.932 133.569 137.796C134.025 137.652 134.509 137.58 135.021 137.58ZM134.757 143.184C135.197 143.184 135.577 143.088 135.897 142.896C136.217 142.696 136.449 142.416 136.593 142.056V141.168H134.817C133.841 141.168 133.353 141.496 133.353 142.152C133.353 142.472 133.477 142.724 133.725 142.908C133.973 143.092 134.317 143.184 134.757 143.184ZM141.701 144.072C141.181 144.072 140.681 144.004 140.201 143.868C139.721 143.724 139.345 143.544 139.073 143.328L139.553 142.416C139.833 142.616 140.173 142.776 140.573 142.896C140.973 143.016 141.377 143.076 141.785 143.076C142.793 143.076 143.297 142.788 143.297 142.212C143.297 142.02 143.229 141.868 143.093 141.756C142.957 141.644 142.785 141.564 142.577 141.516C142.377 141.46 142.089 141.4 141.713 141.336C141.201 141.256 140.781 141.164 140.453 141.06C140.133 140.956 139.857 140.78 139.625 140.532C139.393 140.284 139.277 139.936 139.277 139.488C139.277 138.912 139.517 138.452 139.997 138.108C140.477 137.756 141.121 137.58 141.929 137.58C142.353 137.58 142.777 137.632 143.201 137.736C143.625 137.84 143.973 137.98 144.245 138.156L143.753 139.068C143.233 138.732 142.621 138.564 141.917 138.564C141.429 138.564 141.057 138.644 140.801 138.804C140.545 138.964 140.417 139.176 140.417 139.44C140.417 139.648 140.489 139.812 140.633 139.932C140.777 140.052 140.953 140.14 141.161 140.196C141.377 140.252 141.677 140.316 142.061 140.388C142.573 140.476 142.985 140.572 143.297 140.676C143.617 140.772 143.889 140.94 144.113 141.18C144.337 141.42 144.449 141.756 144.449 142.188C144.449 142.764 144.201 143.224 143.705 143.568C143.217 143.904 142.549 144.072 141.701 144.072ZM149.465 143.628C149.297 143.772 149.089 143.884 148.841 143.964C148.593 144.036 148.337 144.072 148.073 144.072C147.433 144.072 146.937 143.9 146.585 143.556C146.233 143.212 146.057 142.72 146.057 142.08V138.588H144.977V137.64H146.057V136.248H147.209V137.64H149.033V138.588H147.209V142.032C147.209 142.376 147.293 142.64 147.461 142.824C147.637 143.008 147.885 143.1 148.205 143.1C148.557 143.1 148.857 143 149.105 142.8L149.465 143.628ZM153.174 137.58C154.054 137.58 154.726 137.796 155.19 138.228C155.662 138.66 155.898 139.304 155.898 140.16V144H154.806V143.16C154.614 143.456 154.338 143.684 153.978 143.844C153.626 143.996 153.206 144.072 152.718 144.072C152.006 144.072 151.434 143.9 151.002 143.556C150.578 143.212 150.366 142.76 150.366 142.2C150.366 141.64 150.57 141.192 150.978 140.856C151.386 140.512 152.034 140.34 152.922 140.34H154.746V140.112C154.746 139.616 154.602 139.236 154.314 138.972C154.026 138.708 153.602 138.576 153.042 138.576C152.666 138.576 152.298 138.64 151.938 138.768C151.578 138.888 151.274 139.052 151.026 139.26L150.546 138.396C150.874 138.132 151.266 137.932 151.722 137.796C152.178 137.652 152.662 137.58 153.174 137.58ZM152.91 143.184C153.35 143.184 153.73 143.088 154.05 142.896C154.37 142.696 154.602 142.416 154.746 142.056V141.168H152.97C151.994 141.168 151.506 141.496 151.506 142.152C151.506 142.472 151.63 142.724 151.878 142.908C152.126 143.092 152.47 143.184 152.91 143.184ZM33.6057 150.096H34.7577V159H33.6057V150.096ZM39.2732 152.58C40.1532 152.58 40.8252 152.796 41.2892 153.228C41.7612 153.66 41.9972 154.304 41.9972 155.16V159H40.9052V158.16C40.7132 158.456 40.4372 158.684 40.0772 158.844C39.7252 158.996 39.3052 159.072 38.8172 159.072C38.1052 159.072 37.5332 158.9 37.1012 158.556C36.6772 158.212 36.4652 157.76 36.4652 157.2C36.4652 156.64 36.6692 156.192 37.0772 155.856C37.4852 155.512 38.1332 155.34 39.0212 155.34H40.8452V155.112C40.8452 154.616 40.7012 154.236 40.4132 153.972C40.1252 153.708 39.7012 153.576 39.1412 153.576C38.7652 153.576 38.3972 153.64 38.0372 153.768C37.6772 153.888 37.3732 154.052 37.1252 154.26L36.6452 153.396C36.9732 153.132 37.3652 152.932 37.8212 152.796C38.2772 152.652 38.7612 152.58 39.2732 152.58ZM39.0092 158.184C39.4492 158.184 39.8292 158.088 40.1492 157.896C40.4692 157.696 40.7012 157.416 40.8452 157.056V156.168H39.0692C38.0932 156.168 37.6052 156.496 37.6052 157.152C37.6052 157.472 37.7292 157.724 37.9772 157.908C38.2252 158.092 38.5692 158.184 39.0092 158.184ZM55.3078 152.58C56.1078 152.58 56.7398 152.812 57.2038 153.276C57.6758 153.74 57.9118 154.428 57.9118 155.34V159H56.7598V155.472C56.7598 154.856 56.6158 154.392 56.3278 154.08C56.0478 153.768 55.6438 153.612 55.1158 153.612C54.5318 153.612 54.0678 153.796 53.7238 154.164C53.3798 154.524 53.2078 155.044 53.2078 155.724V159H52.0558V155.472C52.0558 154.856 51.9118 154.392 51.6238 154.08C51.3438 153.768 50.9398 153.612 50.4118 153.612C49.8278 153.612 49.3638 153.796 49.0198 154.164C48.6758 154.524 48.5038 155.044 48.5038 155.724V159H47.3518V152.64H48.4558V153.588C48.6878 153.26 48.9918 153.012 49.3678 152.844C49.7438 152.668 50.1718 152.58 50.6518 152.58C51.1478 152.58 51.5878 152.68 51.9718 152.88C52.3558 153.08 52.6518 153.372 52.8598 153.756C53.0998 153.388 53.4318 153.1 53.8558 152.892C54.2878 152.684 54.7718 152.58 55.3078 152.58ZM60.0315 152.64H61.1835V159H60.0315V152.64ZM60.6075 151.416C60.3835 151.416 60.1955 151.344 60.0435 151.2C59.8995 151.056 59.8275 150.88 59.8275 150.672C59.8275 150.464 59.8995 150.288 60.0435 150.144C60.1955 149.992 60.3835 149.916 60.6075 149.916C60.8315 149.916 61.0155 149.988 61.1595 150.132C61.3115 150.268 61.3875 150.44 61.3875 150.648C61.3875 150.864 61.3115 151.048 61.1595 151.2C61.0155 151.344 60.8315 151.416 60.6075 151.416ZM66.959 158.628C66.791 158.772 66.583 158.884 66.335 158.964C66.087 159.036 65.831 159.072 65.567 159.072C64.927 159.072 64.431 158.9 64.079 158.556C63.727 158.212 63.551 157.72 63.551 157.08V153.588H62.471V152.64H63.551V151.248H64.703V152.64H66.527V153.588H64.703V157.032C64.703 157.376 64.787 157.64 64.955 157.824C65.131 158.008 65.379 158.1 65.699 158.1C66.051 158.1 66.351 158 66.599 157.8L66.959 158.628ZM70.6678 152.58C71.5478 152.58 72.2198 152.796 72.6838 153.228C73.1558 153.66 73.3918 154.304 73.3918 155.16V159H72.2998V158.16C72.1078 158.456 71.8318 158.684 71.4718 158.844C71.1198 158.996 70.6998 159.072 70.2118 159.072C69.4998 159.072 68.9278 158.9 68.4958 158.556C68.0718 158.212 67.8598 157.76 67.8598 157.2C67.8598 156.64 68.0638 156.192 68.4718 155.856C68.8798 155.512 69.5278 155.34 70.4158 155.34H72.2398V155.112C72.2398 154.616 72.0958 154.236 71.8078 153.972C71.5198 153.708 71.0958 153.576 70.5358 153.576C70.1598 153.576 69.7918 153.64 69.4318 153.768C69.0718 153.888 68.7678 154.052 68.5198 154.26L68.0398 153.396C68.3678 153.132 68.7598 152.932 69.2158 152.796C69.6718 152.652 70.1558 152.58 70.6678 152.58ZM70.4038 158.184C70.8438 158.184 71.2238 158.088 71.5438 157.896C71.8638 157.696 72.0958 157.416 72.2398 157.056V156.168H70.4638C69.4878 156.168 68.9998 156.496 68.9998 157.152C68.9998 157.472 69.1238 157.724 69.3718 157.908C69.6198 158.092 69.9638 158.184 70.4038 158.184ZM81.5588 150.096V159H80.4548V157.992C80.1988 158.344 79.8748 158.612 79.4828 158.796C79.0908 158.98 78.6588 159.072 78.1868 159.072C77.5708 159.072 77.0188 158.936 76.5308 158.664C76.0428 158.392 75.6588 158.012 75.3788 157.524C75.1068 157.028 74.9708 156.46 74.9708 155.82C74.9708 155.18 75.1068 154.616 75.3788 154.128C75.6588 153.64 76.0428 153.26 76.5308 152.988C77.0188 152.716 77.5708 152.58 78.1868 152.58C78.6428 152.58 79.0628 152.668 79.4468 152.844C79.8308 153.012 80.1508 153.264 80.4068 153.6V150.096H81.5588ZM78.2828 158.064C78.6828 158.064 79.0468 157.972 79.3748 157.788C79.7028 157.596 79.9588 157.332 80.1428 156.996C80.3268 156.652 80.4188 156.26 80.4188 155.82C80.4188 155.38 80.3268 154.992 80.1428 154.656C79.9588 154.312 79.7028 154.048 79.3748 153.864C79.0468 153.68 78.6828 153.588 78.2828 153.588C77.8748 153.588 77.5068 153.68 77.1788 153.864C76.8588 154.048 76.6028 154.312 76.4108 154.656C76.2268 154.992 76.1348 155.38 76.1348 155.82C76.1348 156.26 76.2268 156.652 76.4108 156.996C76.6028 157.332 76.8588 157.596 77.1788 157.788C77.5068 157.972 77.8748 158.064 78.2828 158.064ZM92.9611 150.096V159H91.8571V157.992C91.6011 158.344 91.2771 158.612 90.8851 158.796C90.4931 158.98 90.0611 159.072 89.5891 159.072C88.9731 159.072 88.4211 158.936 87.9331 158.664C87.4451 158.392 87.0611 158.012 86.7811 157.524C86.5091 157.028 86.3731 156.46 86.3731 155.82C86.3731 155.18 86.5091 154.616 86.7811 154.128C87.0611 153.64 87.4451 153.26 87.9331 152.988C88.4211 152.716 88.9731 152.58 89.5891 152.58C90.0451 152.58 90.4651 152.668 90.8491 152.844C91.2331 153.012 91.5531 153.264 91.8091 153.6V150.096H92.9611ZM89.6851 158.064C90.0851 158.064 90.4491 157.972 90.7771 157.788C91.1051 157.596 91.3611 157.332 91.5451 156.996C91.7291 156.652 91.8211 156.26 91.8211 155.82C91.8211 155.38 91.7291 154.992 91.5451 154.656C91.3611 154.312 91.1051 154.048 90.7771 153.864C90.4491 153.68 90.0851 153.588 89.6851 153.588C89.2771 153.588 88.9091 153.68 88.5811 153.864C88.2611 154.048 88.0051 154.312 87.8131 154.656C87.6291 154.992 87.5371 155.38 87.5371 155.82C87.5371 156.26 87.6291 156.652 87.8131 156.996C88.0051 157.332 88.2611 157.596 88.5811 157.788C88.9091 157.972 89.2771 158.064 89.6851 158.064ZM100.889 155.856C100.889 155.944 100.881 156.06 100.865 156.204H95.7048C95.7768 156.764 96.0208 157.216 96.4368 157.56C96.8608 157.896 97.3848 158.064 98.0088 158.064C98.7688 158.064 99.3808 157.808 99.8448 157.296L100.481 158.04C100.193 158.376 99.8328 158.632 99.4008 158.808C98.9768 158.984 98.5008 159.072 97.9728 159.072C97.3008 159.072 96.7048 158.936 96.1848 158.664C95.6648 158.384 95.2608 157.996 94.9728 157.5C94.6928 157.004 94.5528 156.444 94.5528 155.82C94.5528 155.204 94.6888 154.648 94.9608 154.152C95.2408 153.656 95.6208 153.272 96.1008 153C96.5888 152.72 97.1368 152.58 97.7448 152.58C98.3528 152.58 98.8928 152.72 99.3648 153C99.8448 153.272 100.217 153.656 100.481 154.152C100.753 154.648 100.889 155.216 100.889 155.856ZM97.7448 153.552C97.1928 153.552 96.7288 153.72 96.3528 154.056C95.9848 154.392 95.7688 154.832 95.7048 155.376H99.7848C99.7208 154.84 99.5008 154.404 99.1248 154.068C98.7568 153.724 98.2968 153.552 97.7448 153.552ZM105.711 150.096H106.863V159H105.711V150.096ZM111.379 152.58C112.259 152.58 112.931 152.796 113.395 153.228C113.867 153.66 114.103 154.304 114.103 155.16V159H113.011V158.16C112.819 158.456 112.543 158.684 112.183 158.844C111.831 158.996 111.411 159.072 110.923 159.072C110.211 159.072 109.639 158.9 109.207 158.556C108.783 158.212 108.571 157.76 108.571 157.2C108.571 156.64 108.775 156.192 109.183 155.856C109.591 155.512 110.239 155.34 111.127 155.34H112.951V155.112C112.951 154.616 112.807 154.236 112.519 153.972C112.231 153.708 111.807 153.576 111.247 153.576C110.871 153.576 110.503 153.64 110.143 153.768C109.783 153.888 109.479 154.052 109.231 154.26L108.751 153.396C109.079 153.132 109.471 152.932 109.927 152.796C110.383 152.652 110.867 152.58 111.379 152.58ZM111.115 158.184C111.555 158.184 111.935 158.088 112.255 157.896C112.575 157.696 112.807 157.416 112.951 157.056V156.168H111.175C110.199 156.168 109.711 156.496 109.711 157.152C109.711 157.472 109.835 157.724 110.083 157.908C110.331 158.092 110.675 158.184 111.115 158.184ZM122.853 152.58C123.661 152.58 124.301 152.816 124.773 153.288C125.253 153.752 125.493 154.436 125.493 155.34V159H124.341V155.472C124.341 154.856 124.193 154.392 123.897 154.08C123.601 153.768 123.177 153.612 122.625 153.612C122.001 153.612 121.509 153.796 121.149 154.164C120.789 154.524 120.609 155.044 120.609 155.724V159H119.457V150.096H120.609V153.54C120.849 153.236 121.161 153 121.545 152.832C121.937 152.664 122.373 152.58 122.853 152.58ZM130.384 159.072C129.752 159.072 129.184 158.932 128.68 158.652C128.176 158.372 127.78 157.988 127.492 157.5C127.212 157.004 127.072 156.444 127.072 155.82C127.072 155.196 127.212 154.64 127.492 154.152C127.78 153.656 128.176 153.272 128.68 153C129.184 152.72 129.752 152.58 130.384 152.58C131.016 152.58 131.58 152.72 132.076 153C132.58 153.272 132.972 153.656 133.252 154.152C133.54 154.64 133.684 155.196 133.684 155.82C133.684 156.444 133.54 157.004 133.252 157.5C132.972 157.988 132.58 158.372 132.076 158.652C131.58 158.932 131.016 159.072 130.384 159.072ZM130.384 158.064C130.792 158.064 131.156 157.972 131.476 157.788C131.804 157.596 132.06 157.332 132.244 156.996C132.428 156.652 132.52 156.26 132.52 155.82C132.52 155.38 132.428 154.992 132.244 154.656C132.06 154.312 131.804 154.048 131.476 153.864C131.156 153.68 130.792 153.588 130.384 153.588C129.976 153.588 129.608 153.68 129.28 153.864C128.96 154.048 128.704 154.312 128.512 154.656C128.328 154.992 128.236 155.38 128.236 155.82C128.236 156.26 128.328 156.652 128.512 156.996C128.704 157.332 128.96 157.596 129.28 157.788C129.608 157.972 129.976 158.064 130.384 158.064ZM134.462 161.4C134.182 161.4 133.922 161.368 133.682 161.304C133.442 161.24 133.242 161.144 133.082 161.016L133.454 160.128C133.694 160.328 134.006 160.428 134.39 160.428C134.694 160.428 134.926 160.332 135.086 160.14C135.254 159.956 135.338 159.68 135.338 159.312V152.64H136.49V159.288C136.49 159.944 136.314 160.46 135.962 160.836C135.61 161.212 135.11 161.4 134.462 161.4ZM135.914 151.416C135.69 151.416 135.502 151.344 135.35 151.2C135.206 151.056 135.134 150.88 135.134 150.672C135.134 150.464 135.206 150.288 135.35 150.144C135.502 149.992 135.69 149.916 135.914 149.916C136.138 149.916 136.322 149.988 136.466 150.132C136.618 150.268 136.694 150.44 136.694 150.648C136.694 150.864 136.618 151.048 136.466 151.2C136.322 151.344 136.138 151.416 135.914 151.416ZM141.004 152.58C141.884 152.58 142.556 152.796 143.02 153.228C143.492 153.66 143.728 154.304 143.728 155.16V159H142.636V158.16C142.444 158.456 142.168 158.684 141.808 158.844C141.456 158.996 141.036 159.072 140.548 159.072C139.836 159.072 139.264 158.9 138.832 158.556C138.408 158.212 138.196 157.76 138.196 157.2C138.196 156.64 138.4 156.192 138.808 155.856C139.216 155.512 139.864 155.34 140.752 155.34H142.576V155.112C142.576 154.616 142.432 154.236 142.144 153.972C141.856 153.708 141.432 153.576 140.872 153.576C140.496 153.576 140.128 153.64 139.768 153.768C139.408 153.888 139.104 154.052 138.856 154.26L138.376 153.396C138.704 153.132 139.096 152.932 139.552 152.796C140.008 152.652 140.492 152.58 141.004 152.58ZM140.74 158.184C141.18 158.184 141.56 158.088 141.88 157.896C142.2 157.696 142.432 157.416 142.576 157.056V156.168H140.8C139.824 156.168 139.336 156.496 139.336 157.152C139.336 157.472 139.46 157.724 139.708 157.908C139.956 158.092 140.3 158.184 140.74 158.184ZM146.136 159.072C145.912 159.072 145.72 158.996 145.56 158.844C145.4 158.684 145.32 158.484 145.32 158.244C145.32 158.012 145.4 157.82 145.56 157.668C145.72 157.508 145.912 157.428 146.136 157.428C146.36 157.428 146.548 157.504 146.7 157.656C146.852 157.808 146.928 158.004 146.928 158.244C146.928 158.484 146.848 158.684 146.688 158.844C146.536 158.996 146.352 159.072 146.136 159.072Z" fill="#008E86"/>
<path d="M45 55L67.5 32.5H112.5L135 55L112.5 77.5H67.5L45 55Z" fill="#00D8CC" stroke="#00635D" stroke-width="2" stroke-linejoin="round"/>
<path d="M67.5 32.5L112.5 32.5L90 55L67.5 32.5Z" fill="#008E86" stroke="#00635D" stroke-width="2" stroke-linejoin="round"/>
<path d="M112.5 77.5L67.5 77.5L90 55L112.5 77.5Z" fill="#008E86" stroke="#00635D" stroke-width="2" stroke-linejoin="round"/>
<path d="M57 44H123" stroke="#333333" stroke-width="2" stroke-dasharray="4 6"/>
<path d="M56 66H124" stroke="#333333" stroke-width="2" stroke-dasharray="4 6"/>
<path opacity="0.25" d="M90 32L90 78" stroke="#333333" stroke-width="2"/>
<path opacity="0.25" d="M45 55L135 55" stroke="#333333" stroke-width="2"/>
<path d="M88.349 49.9371C88.8666 49.7444 89.1299 49.1685 88.9371 48.651L85.796 40.2169C85.6032 39.6994 85.0274 39.4361 84.5098 39.6288C83.9923 39.8216 83.729 40.3974 83.9217 40.915L86.7139 48.4119L79.2169 51.204C78.6994 51.3968 78.4361 51.9726 78.6288 52.4902C78.8216 53.0077 79.3974 53.271 79.915 53.0783L88.349 49.9371ZM88.4158 34.9094C88.9181 34.6798 89.1391 34.0864 88.9094 33.5841C88.6798 33.0819 88.0864 32.8609 87.5842 33.0906L88.4158 34.9094ZM88.4159 48.0906C83.6963 45.9325 82 43.5465 82 41.5314L80 41.5314C80 44.7882 82.6958 47.6742 87.5842 49.9094L88.4159 48.0906ZM82 41.5314C82 40.6168 82.6575 39.3702 83.9298 38.0631C85.163 36.7962 86.8105 35.6435 88.4158 34.9094L87.5842 33.0906C85.7581 33.9255 83.9057 35.2205 82.4967 36.6681C81.1268 38.0754 80 39.8099 80 41.5314L82 41.5314Z" fill="black"/>
<path d="M93.651 58.0629C93.1334 58.2556 92.8701 58.8315 93.0629 59.349L96.204 67.7831C96.3968 68.3006 96.9726 68.5639 97.4902 68.3712C98.0077 68.1784 98.271 67.6026 98.0783 67.085L95.2861 59.5881L102.783 56.796C103.301 56.6032 103.564 56.0274 103.371 55.5098C103.178 54.9923 102.603 54.729 102.085 54.9217L93.651 58.0629ZM93.5842 73.0906C93.0819 73.3202 92.8609 73.9136 93.0906 74.4158C93.3202 74.9181 93.9136 75.1391 94.4158 74.9094L93.5842 73.0906ZM93.5842 59.9094C98.3037 62.0675 100 64.4535 100 66.4686L102 66.4686C102 63.2118 99.3042 60.3258 94.4159 58.0906L93.5842 59.9094ZM100 66.4686C100 67.3832 99.3425 68.6298 98.0702 69.9369C96.837 71.2038 95.1895 72.3565 93.5842 73.0906L94.4158 74.9094C96.2419 74.0745 98.0943 72.7795 99.5033 71.3319C100.873 69.9246 102 68.1901 102 66.4686L100 66.4686Z" fill="black"/>
</g>
<defs>
<clipPath id="clip0_5698_199205">
<rect width="180" height="180" rx="20" fill="white"/>
</clipPath>
<clipPath id="clip1_5698_199205">
<path d="M0 30L-1.31134e-06 0L30 -1.31134e-06L30 10C30 21.0457 21.0457 30 10 30L0 30Z" fill="white"/>
</clipPath>
</defs>
</svg>
