<svg width="180" height="180" viewBox="0 0 180 180" fill="none" xmlns="http://www.w3.org/2000/svg">
<g clip-path="url(#clip0_5698_199224)">
<rect width="180" height="180" rx="20" fill="#F2F2F2"/>
<g clip-path="url(#clip1_5698_199224)">
<path d="M0 30L-1.31134e-06 0L30 -1.31134e-06L30 10C30 21.0457 21.0457 30 10 30L0 30Z" fill="#333333"/>
<path d="M14.7062 14.008C16.2849 14.008 17.4475 14.3227 18.1942 14.952C18.9515 15.5813 19.3302 16.424 19.3302 17.48C19.3302 18.1627 19.1595 18.7867 18.8182 19.352C18.4769 19.9067 17.9542 20.3547 17.2502 20.696C16.5569 21.0267 15.6982 21.192 14.6742 21.192C13.8849 21.192 13.1062 21.0907 12.3382 20.888C11.5809 20.6747 10.9355 20.376 10.4022 19.992L11.4262 18.008C11.8529 18.328 12.3435 18.5787 12.8982 18.76C13.4529 18.9307 14.0235 19.016 14.6102 19.016C15.2609 19.016 15.7729 18.888 16.1462 18.632C16.5195 18.376 16.7062 18.0187 16.7062 17.56C16.7062 17.08 16.5089 16.7173 16.1142 16.472C15.7302 16.2267 15.0582 16.104 14.0982 16.104H11.2342L11.8102 9.8H18.6422V11.88H13.9702L13.7942 14.008H14.7062Z" fill="#F2F2F2"/>
</g>
<path d="M23.8538 135.6H27.3938C28.2818 135.6 29.0698 135.776 29.7578 136.128C30.4458 136.48 30.9778 136.976 31.3538 137.616C31.7378 138.248 31.9298 138.976 31.9298 139.8C31.9298 140.624 31.7378 141.356 31.3538 141.996C30.9778 142.628 30.4458 143.12 29.7578 143.472C29.0698 143.824 28.2818 144 27.3938 144H23.8538V135.6ZM27.3218 142.956C28.0018 142.956 28.5978 142.824 29.1098 142.56C29.6298 142.296 30.0298 141.928 30.3098 141.456C30.5898 140.976 30.7298 140.424 30.7298 139.8C30.7298 139.176 30.5898 138.628 30.3098 138.156C30.0298 137.676 29.6298 137.304 29.1098 137.04C28.5978 136.776 28.0018 136.644 27.3218 136.644H25.0538V142.956H27.3218ZM39.3478 140.856C39.3478 140.944 39.3398 141.06 39.3238 141.204H34.1638C34.2358 141.764 34.4798 142.216 34.8958 142.56C35.3198 142.896 35.8438 143.064 36.4678 143.064C37.2278 143.064 37.8398 142.808 38.3038 142.296L38.9398 143.04C38.6518 143.376 38.2918 143.632 37.8598 143.808C37.4358 143.984 36.9598 144.072 36.4318 144.072C35.7598 144.072 35.1638 143.936 34.6438 143.664C34.1238 143.384 33.7198 142.996 33.4318 142.5C33.1518 142.004 33.0118 141.444 33.0118 140.82C33.0118 140.204 33.1478 139.648 33.4198 139.152C33.6998 138.656 34.0798 138.272 34.5598 138C35.0478 137.72 35.5958 137.58 36.2038 137.58C36.8118 137.58 37.3518 137.72 37.8238 138C38.3038 138.272 38.6758 138.656 38.9398 139.152C39.2118 139.648 39.3478 140.216 39.3478 140.856ZM36.2038 138.552C35.6518 138.552 35.1878 138.72 34.8118 139.056C34.4438 139.392 34.2278 139.832 34.1638 140.376H38.2438C38.1798 139.84 37.9598 139.404 37.5838 139.068C37.2158 138.724 36.7558 138.552 36.2038 138.552ZM42.7715 144.072C42.2515 144.072 41.7515 144.004 41.2715 143.868C40.7915 143.724 40.4155 143.544 40.1435 143.328L40.6235 142.416C40.9035 142.616 41.2435 142.776 41.6435 142.896C42.0435 143.016 42.4475 143.076 42.8555 143.076C43.8635 143.076 44.3675 142.788 44.3675 142.212C44.3675 142.02 44.2995 141.868 44.1635 141.756C44.0275 141.644 43.8555 141.564 43.6475 141.516C43.4475 141.46 43.1595 141.4 42.7835 141.336C42.2715 141.256 41.8515 141.164 41.5235 141.06C41.2035 140.956 40.9275 140.78 40.6955 140.532C40.4635 140.284 40.3475 139.936 40.3475 139.488C40.3475 138.912 40.5875 138.452 41.0675 138.108C41.5475 137.756 42.1915 137.58 42.9995 137.58C43.4235 137.58 43.8475 137.632 44.2715 137.736C44.6955 137.84 45.0435 137.98 45.3155 138.156L44.8235 139.068C44.3035 138.732 43.6915 138.564 42.9875 138.564C42.4995 138.564 42.1275 138.644 41.8715 138.804C41.6155 138.964 41.4875 139.176 41.4875 139.44C41.4875 139.648 41.5595 139.812 41.7035 139.932C41.8475 140.052 42.0235 140.14 42.2315 140.196C42.4475 140.252 42.7475 140.316 43.1315 140.388C43.6435 140.476 44.0555 140.572 44.3675 140.676C44.6875 140.772 44.9595 140.94 45.1835 141.18C45.4075 141.42 45.5195 141.756 45.5195 142.188C45.5195 142.764 45.2715 143.224 44.7755 143.568C44.2875 143.904 43.6195 144.072 42.7715 144.072ZM52.9592 135.096V144H51.8552V142.992C51.5992 143.344 51.2752 143.612 50.8832 143.796C50.4912 143.98 50.0592 144.072 49.5872 144.072C48.9712 144.072 48.4192 143.936 47.9312 143.664C47.4432 143.392 47.0592 143.012 46.7792 142.524C46.5072 142.028 46.3712 141.46 46.3712 140.82C46.3712 140.18 46.5072 139.616 46.7792 139.128C47.0592 138.64 47.4432 138.26 47.9312 137.988C48.4192 137.716 48.9712 137.58 49.5872 137.58C50.0432 137.58 50.4632 137.668 50.8472 137.844C51.2312 138.012 51.5512 138.264 51.8072 138.6V135.096H52.9592ZM49.6832 143.064C50.0832 143.064 50.4472 142.972 50.7752 142.788C51.1032 142.596 51.3592 142.332 51.5432 141.996C51.7272 141.652 51.8192 141.26 51.8192 140.82C51.8192 140.38 51.7272 139.992 51.5432 139.656C51.3592 139.312 51.1032 139.048 50.7752 138.864C50.4472 138.68 50.0832 138.588 49.6832 138.588C49.2752 138.588 48.9072 138.68 48.5792 138.864C48.2592 139.048 48.0032 139.312 47.8112 139.656C47.6272 139.992 47.5352 140.38 47.5352 140.82C47.5352 141.26 47.6272 141.652 47.8112 141.996C48.0032 142.332 48.2592 142.596 48.5792 142.788C48.9072 142.972 49.2752 143.064 49.6832 143.064ZM57.8629 144.072C57.2309 144.072 56.6629 143.932 56.1589 143.652C55.6549 143.372 55.2589 142.988 54.9709 142.5C54.6909 142.004 54.5509 141.444 54.5509 140.82C54.5509 140.196 54.6909 139.64 54.9709 139.152C55.2589 138.656 55.6549 138.272 56.1589 138C56.6629 137.72 57.2309 137.58 57.8629 137.58C58.4949 137.58 59.0589 137.72 59.5549 138C60.0589 138.272 60.4509 138.656 60.7309 139.152C61.0189 139.64 61.1629 140.196 61.1629 140.82C61.1629 141.444 61.0189 142.004 60.7309 142.5C60.4509 142.988 60.0589 143.372 59.5549 143.652C59.0589 143.932 58.4949 144.072 57.8629 144.072ZM57.8629 143.064C58.2709 143.064 58.6349 142.972 58.9549 142.788C59.2829 142.596 59.5389 142.332 59.7229 141.996C59.9069 141.652 59.9989 141.26 59.9989 140.82C59.9989 140.38 59.9069 139.992 59.7229 139.656C59.5389 139.312 59.2829 139.048 58.9549 138.864C58.6349 138.68 58.2709 138.588 57.8629 138.588C57.4549 138.588 57.0869 138.68 56.7589 138.864C56.4389 139.048 56.1829 139.312 55.9909 139.656C55.8069 139.992 55.7149 140.38 55.7149 140.82C55.7149 141.26 55.8069 141.652 55.9909 141.996C56.1829 142.332 56.4389 142.596 56.7589 142.788C57.0869 142.972 57.4549 143.064 57.8629 143.064ZM66.1281 137.58C66.7441 137.58 67.2961 137.716 67.7841 137.988C68.2721 138.26 68.6521 138.64 68.9241 139.128C69.2041 139.616 69.3441 140.18 69.3441 140.82C69.3441 141.46 69.2041 142.028 68.9241 142.524C68.6521 143.012 68.2721 143.392 67.7841 143.664C67.2961 143.936 66.7441 144.072 66.1281 144.072C65.6561 144.072 65.2241 143.98 64.8321 143.796C64.4401 143.612 64.1161 143.344 63.8601 142.992V144H62.7561V135.096H63.9081V138.6C64.1641 138.264 64.4841 138.012 64.8681 137.844C65.2521 137.668 65.6721 137.58 66.1281 137.58ZM66.0321 143.064C66.4401 143.064 66.8041 142.972 67.1241 142.788C67.4521 142.596 67.7081 142.332 67.8921 141.996C68.0841 141.652 68.1801 141.26 68.1801 140.82C68.1801 140.38 68.0841 139.992 67.8921 139.656C67.7081 139.312 67.4521 139.048 67.1241 138.864C66.8041 138.68 66.4401 138.588 66.0321 138.588C65.6321 138.588 65.2681 138.68 64.9401 138.864C64.6121 139.048 64.3561 139.312 64.1721 139.656C63.9881 139.992 63.8961 140.38 63.8961 140.82C63.8961 141.26 63.9881 141.652 64.1721 141.996C64.3561 142.332 64.6121 142.596 64.9401 142.788C65.2681 142.972 65.6321 143.064 66.0321 143.064ZM70.9358 135.096H72.0878V144H70.9358V135.096ZM76.6033 137.58C77.4833 137.58 78.1553 137.796 78.6193 138.228C79.0913 138.66 79.3273 139.304 79.3273 140.16V144H78.2353V143.16C78.0433 143.456 77.7673 143.684 77.4073 143.844C77.0553 143.996 76.6353 144.072 76.1473 144.072C75.4353 144.072 74.8633 143.9 74.4313 143.556C74.0073 143.212 73.7953 142.76 73.7953 142.2C73.7953 141.64 73.9993 141.192 74.4073 140.856C74.8153 140.512 75.4633 140.34 76.3513 140.34H78.1753V140.112C78.1753 139.616 78.0313 139.236 77.7433 138.972C77.4553 138.708 77.0313 138.576 76.4713 138.576C76.0953 138.576 75.7273 138.64 75.3673 138.768C75.0073 138.888 74.7033 139.052 74.4553 139.26L73.9753 138.396C74.3033 138.132 74.6953 137.932 75.1513 137.796C75.6073 137.652 76.0913 137.58 76.6033 137.58ZM76.3393 143.184C76.7793 143.184 77.1593 143.088 77.4793 142.896C77.7993 142.696 78.0313 142.416 78.1753 142.056V141.168H76.3993C75.4233 141.168 74.9353 141.496 74.9353 142.152C74.9353 142.472 75.0593 142.724 75.3073 142.908C75.5553 143.092 75.8993 143.184 76.3393 143.184ZM88.2578 143.628C88.0898 143.772 87.8818 143.884 87.6338 143.964C87.3858 144.036 87.1298 144.072 86.8658 144.072C86.2258 144.072 85.7298 143.9 85.3778 143.556C85.0258 143.212 84.8498 142.72 84.8498 142.08V138.588H83.7698V137.64H84.8498V136.248H86.0018V137.64H87.8258V138.588H86.0018V142.032C86.0018 142.376 86.0858 142.64 86.2538 142.824C86.4298 143.008 86.6778 143.1 86.9978 143.1C87.3498 143.1 87.6498 143 87.8978 142.8L88.2578 143.628ZM92.1637 144.072C91.5317 144.072 90.9637 143.932 90.4597 143.652C89.9557 143.372 89.5597 142.988 89.2717 142.5C88.9917 142.004 88.8517 141.444 88.8517 140.82C88.8517 140.196 88.9917 139.64 89.2717 139.152C89.5597 138.656 89.9557 138.272 90.4597 138C90.9637 137.72 91.5317 137.58 92.1637 137.58C92.7957 137.58 93.3597 137.72 93.8557 138C94.3597 138.272 94.7517 138.656 95.0317 139.152C95.3197 139.64 95.4637 140.196 95.4637 140.82C95.4637 141.444 95.3197 142.004 95.0317 142.5C94.7517 142.988 94.3597 143.372 93.8557 143.652C93.3597 143.932 92.7957 144.072 92.1637 144.072ZM92.1637 143.064C92.5717 143.064 92.9357 142.972 93.2557 142.788C93.5837 142.596 93.8397 142.332 94.0237 141.996C94.2077 141.652 94.2997 141.26 94.2997 140.82C94.2997 140.38 94.2077 139.992 94.0237 139.656C93.8397 139.312 93.5837 139.048 93.2557 138.864C92.9357 138.68 92.5717 138.588 92.1637 138.588C91.7557 138.588 91.3877 138.68 91.0597 138.864C90.7397 139.048 90.4837 139.312 90.2917 139.656C90.1077 139.992 90.0157 140.38 90.0157 140.82C90.0157 141.26 90.1077 141.652 90.2917 141.996C90.4837 142.332 90.7397 142.596 91.0597 142.788C91.3877 142.972 91.7557 143.064 92.1637 143.064ZM103.057 135.096V144H101.953V142.992C101.697 143.344 101.373 143.612 100.981 143.796C100.589 143.98 100.157 144.072 99.6848 144.072C99.0688 144.072 98.5168 143.936 98.0288 143.664C97.5408 143.392 97.1568 143.012 96.8768 142.524C96.6048 142.028 96.4688 141.46 96.4688 140.82C96.4688 140.18 96.6048 139.616 96.8768 139.128C97.1568 138.64 97.5408 138.26 98.0288 137.988C98.5168 137.716 99.0688 137.58 99.6848 137.58C100.141 137.58 100.561 137.668 100.945 137.844C101.329 138.012 101.649 138.264 101.905 138.6V135.096H103.057ZM99.7808 143.064C100.181 143.064 100.545 142.972 100.873 142.788C101.201 142.596 101.457 142.332 101.641 141.996C101.825 141.652 101.917 141.26 101.917 140.82C101.917 140.38 101.825 139.992 101.641 139.656C101.457 139.312 101.201 139.048 100.873 138.864C100.545 138.68 100.181 138.588 99.7808 138.588C99.3728 138.588 99.0048 138.68 98.6768 138.864C98.3568 139.048 98.1008 139.312 97.9088 139.656C97.7248 139.992 97.6328 140.38 97.6328 140.82C97.6328 141.26 97.7248 141.652 97.9088 141.996C98.1008 142.332 98.3568 142.596 98.6768 142.788C99.0048 142.972 99.3728 143.064 99.7808 143.064ZM107.553 137.58C108.433 137.58 109.105 137.796 109.569 138.228C110.041 138.66 110.277 139.304 110.277 140.16V144H109.185V143.16C108.993 143.456 108.717 143.684 108.357 143.844C108.005 143.996 107.585 144.072 107.097 144.072C106.385 144.072 105.813 143.9 105.381 143.556C104.957 143.212 104.745 142.76 104.745 142.2C104.745 141.64 104.949 141.192 105.357 140.856C105.765 140.512 106.413 140.34 107.301 140.34H109.125V140.112C109.125 139.616 108.981 139.236 108.693 138.972C108.405 138.708 107.981 138.576 107.421 138.576C107.045 138.576 106.677 138.64 106.317 138.768C105.957 138.888 105.653 139.052 105.405 139.26L104.925 138.396C105.253 138.132 105.645 137.932 106.101 137.796C106.557 137.652 107.041 137.58 107.553 137.58ZM107.289 143.184C107.729 143.184 108.109 143.088 108.429 142.896C108.749 142.696 108.981 142.416 109.125 142.056V141.168H107.349C106.373 141.168 105.885 141.496 105.885 142.152C105.885 142.472 106.009 142.724 106.257 142.908C106.505 143.092 106.849 143.184 107.289 143.184ZM115.631 135.096H116.783V144H115.631V135.096ZM121.299 137.58C122.179 137.58 122.851 137.796 123.315 138.228C123.787 138.66 124.023 139.304 124.023 140.16V144H122.931V143.16C122.739 143.456 122.463 143.684 122.103 143.844C121.751 143.996 121.331 144.072 120.843 144.072C120.131 144.072 119.559 143.9 119.127 143.556C118.703 143.212 118.491 142.76 118.491 142.2C118.491 141.64 118.695 141.192 119.103 140.856C119.511 140.512 120.159 140.34 121.047 140.34H122.871V140.112C122.871 139.616 122.727 139.236 122.439 138.972C122.151 138.708 121.727 138.576 121.167 138.576C120.791 138.576 120.423 138.64 120.063 138.768C119.703 138.888 119.399 139.052 119.151 139.26L118.671 138.396C118.999 138.132 119.391 137.932 119.847 137.796C120.303 137.652 120.787 137.58 121.299 137.58ZM121.035 143.184C121.475 143.184 121.855 143.088 122.175 142.896C122.495 142.696 122.727 142.416 122.871 142.056V141.168H121.095C120.119 141.168 119.631 141.496 119.631 142.152C119.631 142.472 119.755 142.724 120.003 142.908C120.251 143.092 120.595 143.184 121.035 143.184ZM132.773 137.58C133.581 137.58 134.221 137.816 134.693 138.288C135.173 138.752 135.413 139.436 135.413 140.34V144H134.261V140.472C134.261 139.856 134.113 139.392 133.817 139.08C133.521 138.768 133.097 138.612 132.545 138.612C131.921 138.612 131.429 138.796 131.069 139.164C130.709 139.524 130.529 140.044 130.529 140.724V144H129.377V135.096H130.529V138.54C130.769 138.236 131.081 138 131.465 137.832C131.857 137.664 132.293 137.58 132.773 137.58ZM140.304 144.072C139.672 144.072 139.104 143.932 138.6 143.652C138.096 143.372 137.7 142.988 137.412 142.5C137.132 142.004 136.992 141.444 136.992 140.82C136.992 140.196 137.132 139.64 137.412 139.152C137.7 138.656 138.096 138.272 138.6 138C139.104 137.72 139.672 137.58 140.304 137.58C140.936 137.58 141.5 137.72 141.996 138C142.5 138.272 142.892 138.656 143.172 139.152C143.46 139.64 143.604 140.196 143.604 140.82C143.604 141.444 143.46 142.004 143.172 142.5C142.892 142.988 142.5 143.372 141.996 143.652C141.5 143.932 140.936 144.072 140.304 144.072ZM140.304 143.064C140.712 143.064 141.076 142.972 141.396 142.788C141.724 142.596 141.98 142.332 142.164 141.996C142.348 141.652 142.44 141.26 142.44 140.82C142.44 140.38 142.348 139.992 142.164 139.656C141.98 139.312 141.724 139.048 141.396 138.864C141.076 138.68 140.712 138.588 140.304 138.588C139.896 138.588 139.528 138.68 139.2 138.864C138.88 139.048 138.624 139.312 138.432 139.656C138.248 139.992 138.156 140.38 138.156 140.82C138.156 141.26 138.248 141.652 138.432 141.996C138.624 142.332 138.88 142.596 139.2 142.788C139.528 142.972 139.896 143.064 140.304 143.064ZM144.381 146.4C144.101 146.4 143.841 146.368 143.601 146.304C143.361 146.24 143.161 146.144 143.001 146.016L143.373 145.128C143.613 145.328 143.925 145.428 144.309 145.428C144.613 145.428 144.845 145.332 145.005 145.14C145.173 144.956 145.257 144.68 145.257 144.312V137.64H146.409V144.288C146.409 144.944 146.233 145.46 145.881 145.836C145.529 146.212 145.029 146.4 144.381 146.4ZM145.833 136.416C145.609 136.416 145.421 136.344 145.269 136.2C145.125 136.056 145.053 135.88 145.053 135.672C145.053 135.464 145.125 135.288 145.269 135.144C145.421 134.992 145.609 134.916 145.833 134.916C146.057 134.916 146.241 134.988 146.385 135.132C146.537 135.268 146.613 135.44 146.613 135.648C146.613 135.864 146.537 136.048 146.385 136.2C146.241 136.344 146.057 136.416 145.833 136.416ZM150.924 137.58C151.804 137.58 152.476 137.796 152.94 138.228C153.412 138.66 153.648 139.304 153.648 140.16V144H152.556V143.16C152.364 143.456 152.088 143.684 151.728 143.844C151.376 143.996 150.956 144.072 150.468 144.072C149.756 144.072 149.184 143.9 148.752 143.556C148.328 143.212 148.116 142.76 148.116 142.2C148.116 141.64 148.32 141.192 148.728 140.856C149.136 140.512 149.784 140.34 150.672 140.34H152.496V140.112C152.496 139.616 152.352 139.236 152.064 138.972C151.776 138.708 151.352 138.576 150.792 138.576C150.416 138.576 150.048 138.64 149.688 138.768C149.328 138.888 149.024 139.052 148.776 139.26L148.296 138.396C148.624 138.132 149.016 137.932 149.472 137.796C149.928 137.652 150.412 137.58 150.924 137.58ZM150.66 143.184C151.1 143.184 151.48 143.088 151.8 142.896C152.12 142.696 152.352 142.416 152.496 142.056V141.168H150.72C149.744 141.168 149.256 141.496 149.256 142.152C149.256 142.472 149.38 142.724 149.628 142.908C149.876 143.092 150.22 143.184 150.66 143.184ZM156.056 144.072C155.832 144.072 155.64 143.996 155.479 143.844C155.32 143.684 155.24 143.484 155.24 143.244C155.24 143.012 155.32 142.82 155.479 142.668C155.64 142.508 155.832 142.428 156.056 142.428C156.28 142.428 156.468 142.504 156.62 142.656C156.772 142.808 156.848 143.004 156.848 143.244C156.848 143.484 156.768 143.684 156.608 143.844C156.456 143.996 156.272 144.072 156.056 144.072Z" fill="#008E86"/>
<rect x="45" y="55" width="63.6396" height="63.6396" transform="rotate(-45 45 55)" fill="#00D8CC" stroke="#00635D" stroke-width="2" stroke-linejoin="round"/>
<path d="M56 66L124 66" stroke="#00635D" stroke-width="2" stroke-dasharray="4 6"/>
<path opacity="0.25" d="M90 11V100" stroke="#333333" stroke-width="2"/>
<path opacity="0.25" d="M45 55L135 55" stroke="#333333" stroke-width="2"/>
<path opacity="0.25" d="M56 44L124 44" stroke="#333333" stroke-width="2"/>
<path opacity="0.25" d="M124 66L56 66" stroke="#333333" stroke-width="2"/>
<path opacity="0.25" d="M66 34H114" stroke="#333333" stroke-width="2"/>
<path opacity="0.25" d="M114 76L66 76" stroke="#333333" stroke-width="2"/>
<path opacity="0.25" d="M76 24H104" stroke="#333333" stroke-width="2"/>
<path opacity="0.25" d="M104 86L76 86" stroke="#333333" stroke-width="2"/>
<path d="M75.997 48C76.5493 47.9984 76.9984 48.4447 77 48.997L77.0268 57.997C77.0285 58.5493 76.5821 58.9983 76.0298 59C75.4775 59.0016 75.0285 58.5552 75.0268 58.0029L75.003 50.003L67.003 50.0268C66.4507 50.0285 66.0017 49.5821 66 49.0298C65.9984 48.4775 66.4448 48.0285 66.9971 48.0268L75.997 48ZM76.7092 81.295C77.0986 81.6867 77.0967 82.3199 76.705 82.7092C76.3133 83.0986 75.6801 83.0967 75.2908 82.705L76.7092 81.295ZM76.7092 49.705C72.0905 54.3513 70 59.8975 70 65.431L68 65.431C68 59.3661 70.3017 53.3139 75.2908 48.295L76.7092 49.705ZM70 65.431C70 68.146 70.8413 71.2836 72.1277 74.1911C73.4139 77.0981 75.102 79.6782 76.7092 81.295L75.2908 82.705C73.4667 80.87 71.6547 78.065 70.2987 75.0003C68.943 71.9361 68 68.5151 68 65.431L70 65.431Z" fill="black"/>
</g>
<defs>
<clipPath id="clip0_5698_199224">
<rect width="180" height="180" rx="20" fill="white"/>
</clipPath>
<clipPath id="clip1_5698_199224">
<path d="M0 30L-1.31134e-06 0L30 -1.31134e-06L30 10C30 21.0457 21.0457 30 10 30L0 30Z" fill="white"/>
</clipPath>
</defs>
</svg>
