<svg width="180" height="180" viewBox="0 0 180 180" fill="none" xmlns="http://www.w3.org/2000/svg">
<g clip-path="url(#clip0_5698_199245)">
<rect width="180" height="180" rx="20" fill="#F2F2F2"/>
<g clip-path="url(#clip1_5698_199245)">
<path d="M0 30L-1.31134e-06 0L30 -1.31134e-06L30 10C30 21.0457 21.0457 30 10 30L0 30Z" fill="#333333"/>
<path d="M19.4311 9.8V11.48L15.2711 21H12.4551L16.4711 11.912H12.7591V13.736H10.4551V9.8H19.4311Z" fill="#F2F2F2"/>
</g>
<path d="M24.1526 120.6H27.6926C28.5806 120.6 29.3686 120.776 30.0566 121.128C30.7446 121.48 31.2766 121.976 31.6526 122.616C32.0366 123.248 32.2286 123.976 32.2286 124.8C32.2286 125.624 32.0366 126.356 31.6526 126.996C31.2766 127.628 30.7446 128.12 30.0566 128.472C29.3686 128.824 28.5806 129 27.6926 129H24.1526V120.6ZM27.6206 127.956C28.3006 127.956 28.8966 127.824 29.4086 127.56C29.9286 127.296 30.3286 126.928 30.6086 126.456C30.8886 125.976 31.0286 125.424 31.0286 124.8C31.0286 124.176 30.8886 123.628 30.6086 123.156C30.3286 122.676 29.9286 122.304 29.4086 122.04C28.8966 121.776 28.3006 121.644 27.6206 121.644H25.3526V127.956H27.6206ZM36.6226 129.072C35.9906 129.072 35.4226 128.932 34.9186 128.652C34.4146 128.372 34.0186 127.988 33.7306 127.5C33.4506 127.004 33.3106 126.444 33.3106 125.82C33.3106 125.196 33.4506 124.64 33.7306 124.152C34.0186 123.656 34.4146 123.272 34.9186 123C35.4226 122.72 35.9906 122.58 36.6226 122.58C37.2546 122.58 37.8186 122.72 38.3146 123C38.8186 123.272 39.2106 123.656 39.4906 124.152C39.7786 124.64 39.9226 125.196 39.9226 125.82C39.9226 126.444 39.7786 127.004 39.4906 127.5C39.2106 127.988 38.8186 128.372 38.3146 128.652C37.8186 128.932 37.2546 129.072 36.6226 129.072ZM36.6226 128.064C37.0306 128.064 37.3946 127.972 37.7146 127.788C38.0426 127.596 38.2986 127.332 38.4826 126.996C38.6666 126.652 38.7586 126.26 38.7586 125.82C38.7586 125.38 38.6666 124.992 38.4826 124.656C38.2986 124.312 38.0426 124.048 37.7146 123.864C37.3946 123.68 37.0306 123.588 36.6226 123.588C36.2146 123.588 35.8466 123.68 35.5186 123.864C35.1986 124.048 34.9426 124.312 34.7506 124.656C34.5666 124.992 34.4746 125.38 34.4746 125.82C34.4746 126.26 34.5666 126.652 34.7506 126.996C34.9426 127.332 35.1986 127.596 35.5186 127.788C35.8466 127.972 36.2146 128.064 36.6226 128.064ZM44.8878 122.58C45.5038 122.58 46.0558 122.716 46.5438 122.988C47.0318 123.26 47.4118 123.64 47.6838 124.128C47.9638 124.616 48.1038 125.18 48.1038 125.82C48.1038 126.46 47.9638 127.028 47.6838 127.524C47.4118 128.012 47.0318 128.392 46.5438 128.664C46.0558 128.936 45.5038 129.072 44.8878 129.072C44.4158 129.072 43.9838 128.98 43.5918 128.796C43.1998 128.612 42.8758 128.344 42.6198 127.992V129H41.5158V120.096H42.6678V123.6C42.9238 123.264 43.2438 123.012 43.6278 122.844C44.0118 122.668 44.4318 122.58 44.8878 122.58ZM44.7918 128.064C45.1998 128.064 45.5638 127.972 45.8838 127.788C46.2118 127.596 46.4678 127.332 46.6518 126.996C46.8438 126.652 46.9398 126.26 46.9398 125.82C46.9398 125.38 46.8438 124.992 46.6518 124.656C46.4678 124.312 46.2118 124.048 45.8838 123.864C45.5638 123.68 45.1998 123.588 44.7918 123.588C44.3918 123.588 44.0278 123.68 43.6998 123.864C43.3718 124.048 43.1158 124.312 42.9318 124.656C42.7478 124.992 42.6558 125.38 42.6558 125.82C42.6558 126.26 42.7478 126.652 42.9318 126.996C43.1158 127.332 43.3718 127.596 43.6998 127.788C44.0278 127.972 44.3918 128.064 44.7918 128.064ZM49.6955 120.096H50.8475V129H49.6955V120.096ZM55.3631 122.58C56.2431 122.58 56.9151 122.796 57.3791 123.228C57.8511 123.66 58.0871 124.304 58.0871 125.16V129H56.9951V128.16C56.8031 128.456 56.5271 128.684 56.1671 128.844C55.8151 128.996 55.3951 129.072 54.9071 129.072C54.1951 129.072 53.6231 128.9 53.1911 128.556C52.7671 128.212 52.5551 127.76 52.5551 127.2C52.5551 126.64 52.7591 126.192 53.1671 125.856C53.5751 125.512 54.2231 125.34 55.1111 125.34H56.9351V125.112C56.9351 124.616 56.7911 124.236 56.5031 123.972C56.2151 123.708 55.7911 123.576 55.2311 123.576C54.8551 123.576 54.4871 123.64 54.1271 123.768C53.7671 123.888 53.4631 124.052 53.2151 124.26L52.7351 123.396C53.0631 123.132 53.4551 122.932 53.9111 122.796C54.3671 122.652 54.8511 122.58 55.3631 122.58ZM55.0991 128.184C55.5391 128.184 55.9191 128.088 56.2391 127.896C56.5591 127.696 56.7911 127.416 56.9351 127.056V126.168H55.1591C54.1831 126.168 53.6951 126.496 53.6951 127.152C53.6951 127.472 53.8191 127.724 54.0671 127.908C54.3151 128.092 54.6591 128.184 55.0991 128.184ZM63.4416 120.096H64.5936V129H63.4416V120.096ZM69.1092 122.58C69.9892 122.58 70.6612 122.796 71.1252 123.228C71.5972 123.66 71.8332 124.304 71.8332 125.16V129H70.7412V128.16C70.5492 128.456 70.2732 128.684 69.9132 128.844C69.5612 128.996 69.1412 129.072 68.6532 129.072C67.9412 129.072 67.3692 128.9 66.9372 128.556C66.5132 128.212 66.3012 127.76 66.3012 127.2C66.3012 126.64 66.5052 126.192 66.9132 125.856C67.3212 125.512 67.9692 125.34 68.8572 125.34H70.6812V125.112C70.6812 124.616 70.5372 124.236 70.2492 123.972C69.9612 123.708 69.5372 123.576 68.9772 123.576C68.6012 123.576 68.2332 123.64 67.8732 123.768C67.5132 123.888 67.2092 124.052 66.9612 124.26L66.4812 123.396C66.8092 123.132 67.2012 122.932 67.6572 122.796C68.1132 122.652 68.5972 122.58 69.1092 122.58ZM68.8452 128.184C69.2852 128.184 69.6652 128.088 69.9852 127.896C70.3052 127.696 70.5372 127.416 70.6812 127.056V126.168H68.9052C67.9292 126.168 67.4412 126.496 67.4412 127.152C67.4412 127.472 67.5652 127.724 67.8132 127.908C68.0612 128.092 68.4052 128.184 68.8452 128.184ZM82.9357 125.856C82.9357 125.944 82.9277 126.06 82.9117 126.204H77.7517C77.8237 126.764 78.0677 127.216 78.4837 127.56C78.9077 127.896 79.4317 128.064 80.0557 128.064C80.8157 128.064 81.4277 127.808 81.8917 127.296L82.5277 128.04C82.2397 128.376 81.8797 128.632 81.4477 128.808C81.0237 128.984 80.5477 129.072 80.0197 129.072C79.3477 129.072 78.7517 128.936 78.2317 128.664C77.7117 128.384 77.3077 127.996 77.0197 127.5C76.7397 127.004 76.5997 126.444 76.5997 125.82C76.5997 125.204 76.7357 124.648 77.0077 124.152C77.2877 123.656 77.6677 123.272 78.1477 123C78.6357 122.72 79.1837 122.58 79.7917 122.58C80.3997 122.58 80.9397 122.72 81.4117 123C81.8917 123.272 82.2637 123.656 82.5277 124.152C82.7997 124.648 82.9357 125.216 82.9357 125.856ZM79.7917 123.552C79.2397 123.552 78.7757 123.72 78.3997 124.056C78.0317 124.392 77.8157 124.832 77.7517 125.376H81.8317C81.7677 124.84 81.5477 124.404 81.1717 124.068C80.8037 123.724 80.3437 123.552 79.7917 123.552ZM86.3594 129.072C85.8394 129.072 85.3394 129.004 84.8594 128.868C84.3794 128.724 84.0034 128.544 83.7314 128.328L84.2114 127.416C84.4914 127.616 84.8314 127.776 85.2314 127.896C85.6314 128.016 86.0354 128.076 86.4434 128.076C87.4514 128.076 87.9554 127.788 87.9554 127.212C87.9554 127.02 87.8874 126.868 87.7514 126.756C87.6154 126.644 87.4434 126.564 87.2354 126.516C87.0354 126.46 86.7474 126.4 86.3714 126.336C85.8594 126.256 85.4394 126.164 85.1114 126.06C84.7914 125.956 84.5154 125.78 84.2834 125.532C84.0514 125.284 83.9354 124.936 83.9354 124.488C83.9354 123.912 84.1754 123.452 84.6554 123.108C85.1354 122.756 85.7794 122.58 86.5874 122.58C87.0114 122.58 87.4354 122.632 87.8594 122.736C88.2834 122.84 88.6314 122.98 88.9034 123.156L88.4114 124.068C87.8914 123.732 87.2794 123.564 86.5754 123.564C86.0874 123.564 85.7154 123.644 85.4594 123.804C85.2034 123.964 85.0754 124.176 85.0754 124.44C85.0754 124.648 85.1474 124.812 85.2914 124.932C85.4354 125.052 85.6114 125.14 85.8194 125.196C86.0354 125.252 86.3354 125.316 86.7194 125.388C87.2314 125.476 87.6434 125.572 87.9554 125.676C88.2754 125.772 88.5474 125.94 88.7714 126.18C88.9954 126.42 89.1074 126.756 89.1074 127.188C89.1074 127.764 88.8594 128.224 88.3634 128.568C87.8754 128.904 87.2074 129.072 86.3594 129.072ZM96.5471 122.64V131.328H95.3951V128.04C95.1311 128.376 94.8071 128.632 94.4231 128.808C94.0471 128.984 93.6311 129.072 93.1751 129.072C92.5591 129.072 92.0071 128.936 91.5191 128.664C91.0311 128.392 90.6471 128.012 90.3671 127.524C90.0951 127.028 89.9591 126.46 89.9591 125.82C89.9591 125.18 90.0951 124.616 90.3671 124.128C90.6471 123.64 91.0311 123.26 91.5191 122.988C92.0071 122.716 92.5591 122.58 93.1751 122.58C93.6471 122.58 94.0791 122.672 94.4711 122.856C94.8631 123.032 95.1871 123.296 95.4431 123.648V122.64H96.5471ZM93.2711 128.064C93.6711 128.064 94.0351 127.972 94.3631 127.788C94.6911 127.596 94.9471 127.332 95.1311 126.996C95.3151 126.652 95.4071 126.26 95.4071 125.82C95.4071 125.38 95.3111 124.992 95.1191 124.656C94.9351 124.32 94.6791 124.06 94.3511 123.876C94.0311 123.684 93.6711 123.588 93.2711 123.588C92.8631 123.588 92.4951 123.68 92.1671 123.864C91.8471 124.048 91.5911 124.312 91.3991 124.656C91.2151 124.992 91.1231 125.38 91.1231 125.82C91.1231 126.26 91.2151 126.652 91.3991 126.996C91.5911 127.332 91.8471 127.596 92.1671 127.788C92.4951 127.972 92.8631 128.064 93.2711 128.064ZM104.655 122.64V129H103.563V128.04C103.331 128.368 103.023 128.624 102.639 128.808C102.263 128.984 101.851 129.072 101.403 129.072C100.555 129.072 99.8868 128.84 99.3988 128.376C98.9108 127.904 98.6668 127.212 98.6668 126.3V122.64H99.8188V126.168C99.8188 126.784 99.9668 127.252 100.263 127.572C100.559 127.884 100.983 128.04 101.535 128.04C102.143 128.04 102.623 127.856 102.975 127.488C103.327 127.12 103.503 126.6 103.503 125.928V122.64H104.655ZM106.848 122.64H108V129H106.848V122.64ZM107.424 121.416C107.2 121.416 107.012 121.344 106.86 121.2C106.716 121.056 106.644 120.88 106.644 120.672C106.644 120.464 106.716 120.288 106.86 120.144C107.012 119.992 107.2 119.916 107.424 119.916C107.648 119.916 107.832 119.988 107.976 120.132C108.128 120.268 108.204 120.44 108.204 120.648C108.204 120.864 108.128 121.048 107.976 121.2C107.832 121.344 107.648 121.416 107.424 121.416ZM113.595 122.58C114.403 122.58 115.043 122.816 115.515 123.288C115.995 123.752 116.235 124.436 116.235 125.34V129H115.083V125.472C115.083 124.856 114.935 124.392 114.639 124.08C114.343 123.768 113.919 123.612 113.367 123.612C112.743 123.612 112.251 123.796 111.891 124.164C111.531 124.524 111.351 125.044 111.351 125.724V129H110.199V122.64H111.303V123.6C111.535 123.272 111.847 123.02 112.239 122.844C112.639 122.668 113.091 122.58 113.595 122.58ZM120.683 122.58C121.563 122.58 122.235 122.796 122.699 123.228C123.171 123.66 123.407 124.304 123.407 125.16V129H122.315V128.16C122.123 128.456 121.847 128.684 121.487 128.844C121.135 128.996 120.715 129.072 120.227 129.072C119.515 129.072 118.943 128.9 118.511 128.556C118.087 128.212 117.875 127.76 117.875 127.2C117.875 126.64 118.079 126.192 118.487 125.856C118.895 125.512 119.543 125.34 120.431 125.34H122.255V125.112C122.255 124.616 122.111 124.236 121.823 123.972C121.535 123.708 121.111 123.576 120.551 123.576C120.175 123.576 119.807 123.64 119.447 123.768C119.087 123.888 118.783 124.052 118.535 124.26L118.055 123.396C118.383 123.132 118.775 122.932 119.231 122.796C119.687 122.652 120.171 122.58 120.683 122.58ZM120.419 128.184C120.859 128.184 121.239 128.088 121.559 127.896C121.879 127.696 122.111 127.416 122.255 127.056V126.168H120.479C119.503 126.168 119.015 126.496 119.015 127.152C119.015 127.472 119.139 127.724 119.387 127.908C119.635 128.092 119.979 128.184 120.419 128.184ZM134.51 125.856C134.51 125.944 134.502 126.06 134.486 126.204H129.326C129.398 126.764 129.642 127.216 130.058 127.56C130.482 127.896 131.006 128.064 131.63 128.064C132.39 128.064 133.002 127.808 133.466 127.296L134.102 128.04C133.814 128.376 133.454 128.632 133.022 128.808C132.598 128.984 132.122 129.072 131.594 129.072C130.922 129.072 130.326 128.936 129.806 128.664C129.286 128.384 128.882 127.996 128.594 127.5C128.314 127.004 128.174 126.444 128.174 125.82C128.174 125.204 128.31 124.648 128.582 124.152C128.862 123.656 129.242 123.272 129.722 123C130.21 122.72 130.758 122.58 131.366 122.58C131.974 122.58 132.514 122.72 132.986 123C133.466 123.272 133.838 123.656 134.102 124.152C134.374 124.648 134.51 125.216 134.51 125.856ZM131.366 123.552C130.814 123.552 130.35 123.72 129.974 124.056C129.606 124.392 129.39 124.832 129.326 125.376H133.406C133.342 124.84 133.122 124.404 132.746 124.068C132.378 123.724 131.918 123.552 131.366 123.552ZM139.506 122.58C140.314 122.58 140.954 122.816 141.426 123.288C141.906 123.752 142.146 124.436 142.146 125.34V129H140.994V125.472C140.994 124.856 140.846 124.392 140.55 124.08C140.254 123.768 139.83 123.612 139.278 123.612C138.654 123.612 138.162 123.796 137.802 124.164C137.442 124.524 137.262 125.044 137.262 125.724V129H136.11V122.64H137.214V123.6C137.446 123.272 137.758 123.02 138.15 122.844C138.55 122.668 139.002 122.58 139.506 122.58ZM153.248 125.856C153.248 125.944 153.24 126.06 153.224 126.204H148.064C148.136 126.764 148.38 127.216 148.796 127.56C149.22 127.896 149.744 128.064 150.368 128.064C151.128 128.064 151.74 127.808 152.204 127.296L152.84 128.04C152.552 128.376 152.192 128.632 151.76 128.808C151.336 128.984 150.86 129.072 150.332 129.072C149.66 129.072 149.064 128.936 148.544 128.664C148.024 128.384 147.62 127.996 147.332 127.5C147.052 127.004 146.912 126.444 146.912 125.82C146.912 125.204 147.048 124.648 147.32 124.152C147.6 123.656 147.98 123.272 148.46 123C148.948 122.72 149.496 122.58 150.104 122.58C150.712 122.58 151.252 122.72 151.724 123C152.204 123.272 152.576 123.656 152.84 124.152C153.112 124.648 153.248 125.216 153.248 125.856ZM150.104 123.552C149.552 123.552 149.088 123.72 148.712 124.056C148.344 124.392 148.128 124.832 148.064 125.376H152.144C152.08 124.84 151.86 124.404 151.484 124.068C151.116 123.724 150.656 123.552 150.104 123.552ZM154.848 120.096H156V129H154.848V120.096ZM32.3342 135.096V144H31.2302V142.992C30.9742 143.344 30.6502 143.612 30.2582 143.796C29.8662 143.98 29.4342 144.072 28.9622 144.072C28.3462 144.072 27.7942 143.936 27.3062 143.664C26.8182 143.392 26.4342 143.012 26.1542 142.524C25.8822 142.028 25.7462 141.46 25.7462 140.82C25.7462 140.18 25.8822 139.616 26.1542 139.128C26.4342 138.64 26.8182 138.26 27.3062 137.988C27.7942 137.716 28.3462 137.58 28.9622 137.58C29.4182 137.58 29.8382 137.668 30.2222 137.844C30.6062 138.012 30.9262 138.264 31.1822 138.6V135.096H32.3342ZM29.0582 143.064C29.4582 143.064 29.8222 142.972 30.1502 142.788C30.4782 142.596 30.7342 142.332 30.9182 141.996C31.1022 141.652 31.1942 141.26 31.1942 140.82C31.1942 140.38 31.1022 139.992 30.9182 139.656C30.7342 139.312 30.4782 139.048 30.1502 138.864C29.8222 138.68 29.4582 138.588 29.0582 138.588C28.6502 138.588 28.2822 138.68 27.9542 138.864C27.6342 139.048 27.3782 139.312 27.1862 139.656C27.0022 139.992 26.9102 140.38 26.9102 140.82C26.9102 141.26 27.0022 141.652 27.1862 141.996C27.3782 142.332 27.6342 142.596 27.9542 142.788C28.2822 142.972 28.6502 143.064 29.0582 143.064ZM37.2379 144.072C36.6059 144.072 36.0379 143.932 35.5339 143.652C35.0299 143.372 34.6339 142.988 34.3459 142.5C34.0659 142.004 33.9259 141.444 33.9259 140.82C33.9259 140.196 34.0659 139.64 34.3459 139.152C34.6339 138.656 35.0299 138.272 35.5339 138C36.0379 137.72 36.6059 137.58 37.2379 137.58C37.8699 137.58 38.4339 137.72 38.9299 138C39.4339 138.272 39.8259 138.656 40.1059 139.152C40.3939 139.64 40.5379 140.196 40.5379 140.82C40.5379 141.444 40.3939 142.004 40.1059 142.5C39.8259 142.988 39.4339 143.372 38.9299 143.652C38.4339 143.932 37.8699 144.072 37.2379 144.072ZM37.2379 143.064C37.6459 143.064 38.0099 142.972 38.3299 142.788C38.6579 142.596 38.9139 142.332 39.0979 141.996C39.2819 141.652 39.3739 141.26 39.3739 140.82C39.3739 140.38 39.2819 139.992 39.0979 139.656C38.9139 139.312 38.6579 139.048 38.3299 138.864C38.0099 138.68 37.6459 138.588 37.2379 138.588C36.8299 138.588 36.4619 138.68 36.1339 138.864C35.8139 139.048 35.5579 139.312 35.3659 139.656C35.1819 139.992 35.0899 140.38 35.0899 140.82C35.0899 141.26 35.1819 141.652 35.3659 141.996C35.5579 142.332 35.8139 142.596 36.1339 142.788C36.4619 142.972 36.8299 143.064 37.2379 143.064ZM45.5031 137.58C46.1191 137.58 46.6711 137.716 47.1591 137.988C47.6471 138.26 48.0271 138.64 48.2991 139.128C48.5791 139.616 48.7191 140.18 48.7191 140.82C48.7191 141.46 48.5791 142.028 48.2991 142.524C48.0271 143.012 47.6471 143.392 47.1591 143.664C46.6711 143.936 46.1191 144.072 45.5031 144.072C45.0311 144.072 44.5991 143.98 44.2071 143.796C43.8151 143.612 43.4911 143.344 43.2351 142.992V144H42.1311V135.096H43.2831V138.6C43.5391 138.264 43.8591 138.012 44.2431 137.844C44.6271 137.668 45.0471 137.58 45.5031 137.58ZM45.4071 143.064C45.8151 143.064 46.1791 142.972 46.4991 142.788C46.8271 142.596 47.0831 142.332 47.2671 141.996C47.4591 141.652 47.5551 141.26 47.5551 140.82C47.5551 140.38 47.4591 139.992 47.2671 139.656C47.0831 139.312 46.8271 139.048 46.4991 138.864C46.1791 138.68 45.8151 138.588 45.4071 138.588C45.0071 138.588 44.6431 138.68 44.3151 138.864C43.9871 139.048 43.7311 139.312 43.5471 139.656C43.3631 139.992 43.2711 140.38 43.2711 140.82C43.2711 141.26 43.3631 141.652 43.5471 141.996C43.7311 142.332 43.9871 142.596 44.3151 142.788C44.6431 142.972 45.0071 143.064 45.4071 143.064ZM50.3108 135.096H51.4628V144H50.3108V135.096ZM59.4103 140.856C59.4103 140.944 59.4023 141.06 59.3863 141.204H54.2263C54.2983 141.764 54.5423 142.216 54.9583 142.56C55.3823 142.896 55.9063 143.064 56.5303 143.064C57.2903 143.064 57.9023 142.808 58.3663 142.296L59.0023 143.04C58.7143 143.376 58.3543 143.632 57.9223 143.808C57.4983 143.984 57.0223 144.072 56.4943 144.072C55.8223 144.072 55.2263 143.936 54.7063 143.664C54.1863 143.384 53.7823 142.996 53.4943 142.5C53.2143 142.004 53.0743 141.444 53.0743 140.82C53.0743 140.204 53.2103 139.648 53.4823 139.152C53.7623 138.656 54.1423 138.272 54.6223 138C55.1103 137.72 55.6583 137.58 56.2663 137.58C56.8743 137.58 57.4143 137.72 57.8863 138C58.3663 138.272 58.7383 138.656 59.0023 139.152C59.2743 139.648 59.4103 140.216 59.4103 140.856ZM56.2663 138.552C55.7143 138.552 55.2503 138.72 54.8743 139.056C54.5063 139.392 54.2903 139.832 54.2263 140.376H58.3063C58.2423 139.84 58.0223 139.404 57.6463 139.068C57.2783 138.724 56.8183 138.552 56.2663 138.552ZM56.9863 135.156H58.4503L56.4343 136.716H55.3543L56.9863 135.156ZM62.834 144.072C62.314 144.072 61.814 144.004 61.334 143.868C60.854 143.724 60.478 143.544 60.206 143.328L60.686 142.416C60.966 142.616 61.306 142.776 61.706 142.896C62.106 143.016 62.51 143.076 62.918 143.076C63.926 143.076 64.43 142.788 64.43 142.212C64.43 142.02 64.362 141.868 64.226 141.756C64.09 141.644 63.918 141.564 63.71 141.516C63.51 141.46 63.222 141.4 62.846 141.336C62.334 141.256 61.914 141.164 61.586 141.06C61.266 140.956 60.99 140.78 60.758 140.532C60.526 140.284 60.41 139.936 60.41 139.488C60.41 138.912 60.65 138.452 61.13 138.108C61.61 137.756 62.254 137.58 63.062 137.58C63.486 137.58 63.91 137.632 64.334 137.736C64.758 137.84 65.106 137.98 65.378 138.156L64.886 139.068C64.366 138.732 63.754 138.564 63.05 138.564C62.562 138.564 62.19 138.644 61.934 138.804C61.678 138.964 61.55 139.176 61.55 139.44C61.55 139.648 61.622 139.812 61.766 139.932C61.91 140.052 62.086 140.14 62.294 140.196C62.51 140.252 62.81 140.316 63.194 140.388C63.706 140.476 64.118 140.572 64.43 140.676C64.75 140.772 65.022 140.94 65.246 141.18C65.47 141.42 65.582 141.756 65.582 142.188C65.582 142.764 65.334 143.224 64.838 143.568C64.35 143.904 63.682 144.072 62.834 144.072ZM70.2443 137.64H71.3963V144H70.2443V137.64ZM70.8203 136.416C70.5963 136.416 70.4083 136.344 70.2563 136.2C70.1123 136.056 70.0403 135.88 70.0403 135.672C70.0403 135.464 70.1123 135.288 70.2563 135.144C70.4083 134.992 70.5963 134.916 70.8203 134.916C71.0443 134.916 71.2283 134.988 71.3723 135.132C71.5243 135.268 71.6003 135.44 71.6003 135.648C71.6003 135.864 71.5243 136.048 71.3723 136.2C71.2283 136.344 71.0443 136.416 70.8203 136.416ZM76.9919 137.58C77.7999 137.58 78.4399 137.816 78.9119 138.288C79.3919 138.752 79.6319 139.436 79.6319 140.34V144H78.4799V140.472C78.4799 139.856 78.3319 139.392 78.0359 139.08C77.7399 138.768 77.3159 138.612 76.7639 138.612C76.1399 138.612 75.6479 138.796 75.2879 139.164C74.9279 139.524 74.7479 140.044 74.7479 140.724V144H73.5959V137.64H74.6999V138.6C74.9319 138.272 75.2439 138.02 75.6359 137.844C76.0359 137.668 76.4879 137.58 76.9919 137.58ZM87.799 135.096V144H86.695V142.992C86.439 143.344 86.115 143.612 85.723 143.796C85.331 143.98 84.899 144.072 84.427 144.072C83.811 144.072 83.259 143.936 82.771 143.664C82.283 143.392 81.899 143.012 81.619 142.524C81.347 142.028 81.211 141.46 81.211 140.82C81.211 140.18 81.347 139.616 81.619 139.128C81.899 138.64 82.283 138.26 82.771 137.988C83.259 137.716 83.811 137.58 84.427 137.58C84.883 137.58 85.303 137.668 85.687 137.844C86.071 138.012 86.391 138.264 86.647 138.6V135.096H87.799ZM84.523 143.064C84.923 143.064 85.287 142.972 85.615 142.788C85.943 142.596 86.199 142.332 86.383 141.996C86.567 141.652 86.659 141.26 86.659 140.82C86.659 140.38 86.567 139.992 86.383 139.656C86.199 139.312 85.943 139.048 85.615 138.864C85.287 138.68 84.923 138.588 84.523 138.588C84.115 138.588 83.747 138.68 83.419 138.864C83.099 139.048 82.843 139.312 82.651 139.656C82.467 139.992 82.375 140.38 82.375 140.82C82.375 141.26 82.467 141.652 82.651 141.996C82.843 142.332 83.099 142.596 83.419 142.788C83.747 142.972 84.115 143.064 84.523 143.064ZM89.9787 137.64H91.1307V144H89.9787V137.64ZM90.5547 136.416C90.3307 136.416 90.1427 136.344 89.9907 136.2C89.8467 136.056 89.7747 135.88 89.7747 135.672C89.7747 135.464 89.8467 135.288 89.9907 135.144C90.1427 134.992 90.3307 134.916 90.5547 134.916C90.7787 134.916 90.9627 134.988 91.1067 135.132C91.2587 135.268 91.3347 135.44 91.3347 135.648C91.3347 135.864 91.2587 136.048 91.1067 136.2C90.9627 136.344 90.7787 136.416 90.5547 136.416ZM96.1023 144.072C95.4543 144.072 94.8743 143.932 94.3623 143.652C93.8583 143.372 93.4623 142.988 93.1743 142.5C92.8863 142.004 92.7423 141.444 92.7423 140.82C92.7423 140.196 92.8863 139.64 93.1743 139.152C93.4623 138.656 93.8583 138.272 94.3623 138C94.8743 137.72 95.4543 137.58 96.1023 137.58C96.6783 137.58 97.1903 137.696 97.6383 137.928C98.0943 138.16 98.4463 138.496 98.6943 138.936L97.8183 139.5C97.6183 139.196 97.3703 138.968 97.0743 138.816C96.7783 138.664 96.4503 138.588 96.0903 138.588C95.6743 138.588 95.2983 138.68 94.9623 138.864C94.6343 139.048 94.3743 139.312 94.1823 139.656C93.9983 139.992 93.9063 140.38 93.9063 140.82C93.9063 141.268 93.9983 141.664 94.1823 142.008C94.3743 142.344 94.6343 142.604 94.9623 142.788C95.2983 142.972 95.6743 143.064 96.0903 143.064C96.4503 143.064 96.7783 142.988 97.0743 142.836C97.3703 142.684 97.6183 142.456 97.8183 142.152L98.6943 142.704C98.4463 143.144 98.0943 143.484 97.6383 143.724C97.1903 143.956 96.6783 144.072 96.1023 144.072ZM102.502 137.58C103.382 137.58 104.054 137.796 104.518 138.228C104.99 138.66 105.226 139.304 105.226 140.16V144H104.134V143.16C103.942 143.456 103.666 143.684 103.306 143.844C102.954 143.996 102.534 144.072 102.046 144.072C101.334 144.072 100.762 143.9 100.33 143.556C99.9058 143.212 99.6938 142.76 99.6938 142.2C99.6938 141.64 99.8978 141.192 100.306 140.856C100.714 140.512 101.362 140.34 102.25 140.34H104.074V140.112C104.074 139.616 103.93 139.236 103.642 138.972C103.354 138.708 102.93 138.576 102.37 138.576C101.994 138.576 101.626 138.64 101.266 138.768C100.906 138.888 100.602 139.052 100.354 139.26L99.8738 138.396C100.202 138.132 100.594 137.932 101.05 137.796C101.506 137.652 101.99 137.58 102.502 137.58ZM102.238 143.184C102.678 143.184 103.058 143.088 103.378 142.896C103.698 142.696 103.93 142.416 104.074 142.056V141.168H102.298C101.322 141.168 100.834 141.496 100.834 142.152C100.834 142.472 100.958 142.724 101.206 142.908C101.454 143.092 101.798 143.184 102.238 143.184ZM113.393 135.096V144H112.289V142.992C112.033 143.344 111.709 143.612 111.317 143.796C110.925 143.98 110.493 144.072 110.021 144.072C109.405 144.072 108.853 143.936 108.365 143.664C107.877 143.392 107.493 143.012 107.213 142.524C106.941 142.028 106.805 141.46 106.805 140.82C106.805 140.18 106.941 139.616 107.213 139.128C107.493 138.64 107.877 138.26 108.365 137.988C108.853 137.716 109.405 137.58 110.021 137.58C110.477 137.58 110.897 137.668 111.281 137.844C111.665 138.012 111.985 138.264 112.241 138.6V135.096H113.393ZM110.117 143.064C110.517 143.064 110.881 142.972 111.209 142.788C111.537 142.596 111.793 142.332 111.977 141.996C112.161 141.652 112.253 141.26 112.253 140.82C112.253 140.38 112.161 139.992 111.977 139.656C111.793 139.312 111.537 139.048 111.209 138.864C110.881 138.68 110.517 138.588 110.117 138.588C109.709 138.588 109.341 138.68 109.013 138.864C108.693 139.048 108.437 139.312 108.245 139.656C108.061 139.992 107.969 140.38 107.969 140.82C107.969 141.26 108.061 141.652 108.245 141.996C108.437 142.332 108.693 142.596 109.013 142.788C109.341 142.972 109.709 143.064 110.117 143.064ZM118.296 144.072C117.664 144.072 117.096 143.932 116.592 143.652C116.088 143.372 115.692 142.988 115.404 142.5C115.124 142.004 114.984 141.444 114.984 140.82C114.984 140.196 115.124 139.64 115.404 139.152C115.692 138.656 116.088 138.272 116.592 138C117.096 137.72 117.664 137.58 118.296 137.58C118.928 137.58 119.492 137.72 119.988 138C120.492 138.272 120.884 138.656 121.164 139.152C121.452 139.64 121.596 140.196 121.596 140.82C121.596 141.444 121.452 142.004 121.164 142.5C120.884 142.988 120.492 143.372 119.988 143.652C119.492 143.932 118.928 144.072 118.296 144.072ZM118.296 143.064C118.704 143.064 119.068 142.972 119.388 142.788C119.716 142.596 119.972 142.332 120.156 141.996C120.34 141.652 120.432 141.26 120.432 140.82C120.432 140.38 120.34 139.992 120.156 139.656C119.972 139.312 119.716 139.048 119.388 138.864C119.068 138.68 118.704 138.588 118.296 138.588C117.888 138.588 117.52 138.68 117.192 138.864C116.872 139.048 116.616 139.312 116.424 139.656C116.24 139.992 116.148 140.38 116.148 140.82C116.148 141.26 116.24 141.652 116.424 141.996C116.616 142.332 116.872 142.596 117.192 142.788C117.52 142.972 117.888 143.064 118.296 143.064ZM132.16 140.856C132.16 140.944 132.152 141.06 132.136 141.204H126.976C127.048 141.764 127.292 142.216 127.708 142.56C128.132 142.896 128.656 143.064 129.28 143.064C130.04 143.064 130.652 142.808 131.116 142.296L131.752 143.04C131.464 143.376 131.104 143.632 130.672 143.808C130.248 143.984 129.772 144.072 129.244 144.072C128.572 144.072 127.976 143.936 127.456 143.664C126.936 143.384 126.532 142.996 126.244 142.5C125.964 142.004 125.824 141.444 125.824 140.82C125.824 140.204 125.96 139.648 126.232 139.152C126.512 138.656 126.892 138.272 127.372 138C127.86 137.72 128.408 137.58 129.016 137.58C129.624 137.58 130.164 137.72 130.636 138C131.116 138.272 131.488 138.656 131.752 139.152C132.024 139.648 132.16 140.216 132.16 140.856ZM129.016 138.552C128.464 138.552 128 138.72 127.624 139.056C127.256 139.392 127.04 139.832 126.976 140.376H131.056C130.992 139.84 130.772 139.404 130.396 139.068C130.028 138.724 129.568 138.552 129.016 138.552ZM137.156 137.58C137.964 137.58 138.604 137.816 139.076 138.288C139.556 138.752 139.796 139.436 139.796 140.34V144H138.644V140.472C138.644 139.856 138.496 139.392 138.2 139.08C137.904 138.768 137.48 138.612 136.928 138.612C136.304 138.612 135.812 138.796 135.452 139.164C135.092 139.524 134.912 140.044 134.912 140.724V144H133.76V137.64H134.864V138.6C135.096 138.272 135.408 138.02 135.8 137.844C136.2 137.668 136.652 137.58 137.156 137.58ZM150.899 140.856C150.899 140.944 150.891 141.06 150.875 141.204H145.715C145.787 141.764 146.031 142.216 146.447 142.56C146.871 142.896 147.395 143.064 148.019 143.064C148.779 143.064 149.391 142.808 149.855 142.296L150.491 143.04C150.203 143.376 149.843 143.632 149.411 143.808C148.987 143.984 148.511 144.072 147.983 144.072C147.311 144.072 146.715 143.936 146.195 143.664C145.675 143.384 145.271 142.996 144.983 142.5C144.703 142.004 144.563 141.444 144.563 140.82C144.563 140.204 144.699 139.648 144.971 139.152C145.251 138.656 145.631 138.272 146.111 138C146.599 137.72 147.147 137.58 147.755 137.58C148.363 137.58 148.903 137.72 149.375 138C149.855 138.272 150.227 138.656 150.491 139.152C150.763 139.648 150.899 140.216 150.899 140.856ZM147.755 138.552C147.203 138.552 146.739 138.72 146.363 139.056C145.995 139.392 145.779 139.832 145.715 140.376H149.795C149.731 139.84 149.511 139.404 149.135 139.068C148.767 138.724 148.307 138.552 147.755 138.552ZM152.498 135.096H153.65V144H152.498V135.096ZM34.4924 152.64V158.136C34.4924 159.248 34.2164 160.068 33.6644 160.596C33.1124 161.132 32.2884 161.4 31.1924 161.4C30.5924 161.4 30.0204 161.316 29.4764 161.148C28.9324 160.988 28.4924 160.756 28.1564 160.452L28.7084 159.564C29.0044 159.82 29.3684 160.02 29.8004 160.164C30.2404 160.316 30.6924 160.392 31.1564 160.392C31.9004 160.392 32.4484 160.216 32.8004 159.864C33.1604 159.512 33.3404 158.976 33.3404 158.256V157.752C33.0684 158.08 32.7324 158.328 32.3324 158.496C31.9404 158.656 31.5124 158.736 31.0484 158.736C30.4404 158.736 29.8884 158.608 29.3924 158.352C28.9044 158.088 28.5204 157.724 28.2404 157.26C27.9604 156.788 27.8204 156.252 27.8204 155.652C27.8204 155.052 27.9604 154.52 28.2404 154.056C28.5204 153.584 28.9044 153.22 29.3924 152.964C29.8884 152.708 30.4404 152.58 31.0484 152.58C31.5284 152.58 31.9724 152.668 32.3804 152.844C32.7964 153.02 33.1364 153.28 33.4004 153.624V152.64H34.4924ZM31.1804 157.728C31.5964 157.728 31.9684 157.64 32.2964 157.464C32.6324 157.288 32.8924 157.044 33.0764 156.732C33.2684 156.412 33.3644 156.052 33.3644 155.652C33.3644 155.036 33.1604 154.54 32.7524 154.164C32.3444 153.78 31.8204 153.588 31.1804 153.588C30.5324 153.588 30.0044 153.78 29.5964 154.164C29.1884 154.54 28.9844 155.036 28.9844 155.652C28.9844 156.052 29.0764 156.412 29.2604 156.732C29.4524 157.044 29.7124 157.288 30.0404 157.464C30.3764 157.64 30.7564 157.728 31.1804 157.728ZM37.7976 153.708C37.9976 153.34 38.2936 153.06 38.6856 152.868C39.0776 152.676 39.5536 152.58 40.1136 152.58V153.696C40.0496 153.688 39.9616 153.684 39.8496 153.684C39.2256 153.684 38.7336 153.872 38.3736 154.248C38.0216 154.616 37.8456 155.144 37.8456 155.832V159H36.6936V152.64H37.7976V153.708ZM43.8377 152.58C44.7177 152.58 45.3897 152.796 45.8537 153.228C46.3257 153.66 46.5617 154.304 46.5617 155.16V159H45.4697V158.16C45.2777 158.456 45.0017 158.684 44.6417 158.844C44.2897 158.996 43.8697 159.072 43.3817 159.072C42.6697 159.072 42.0977 158.9 41.6657 158.556C41.2417 158.212 41.0297 157.76 41.0297 157.2C41.0297 156.64 41.2337 156.192 41.6417 155.856C42.0497 155.512 42.6977 155.34 43.5857 155.34H45.4097V155.112C45.4097 154.616 45.2657 154.236 44.9777 153.972C44.6897 153.708 44.2657 153.576 43.7057 153.576C43.3297 153.576 42.9617 153.64 42.6017 153.768C42.2417 153.888 41.9377 154.052 41.6897 154.26L41.2097 153.396C41.5377 153.132 41.9297 152.932 42.3857 152.796C42.8417 152.652 43.3257 152.58 43.8377 152.58ZM43.5737 158.184C44.0137 158.184 44.3937 158.088 44.7137 157.896C45.0337 157.696 45.2657 157.416 45.4097 157.056V156.168H43.6337C42.6577 156.168 42.1697 156.496 42.1697 157.152C42.1697 157.472 42.2937 157.724 42.5417 157.908C42.7897 158.092 43.1337 158.184 43.5737 158.184ZM44.6537 150.156H46.1177L44.1017 151.716H43.0217L44.6537 150.156ZM51.0216 150.972C50.3336 150.972 49.9896 151.344 49.9896 152.088V152.64H51.8376V153.588H50.0136V159H48.8616V153.588H47.7816V152.64H48.8616V152.076C48.8616 151.444 49.0456 150.944 49.4136 150.576C49.7816 150.208 50.2976 150.024 50.9616 150.024C51.2176 150.024 51.4576 150.056 51.6816 150.12C51.9056 150.184 52.0976 150.276 52.2576 150.396L51.9096 151.272C51.6456 151.072 51.3496 150.972 51.0216 150.972ZM53.8896 152.64H55.0416V159H53.8896V152.64ZM54.4656 151.416C54.2416 151.416 54.0536 151.344 53.9016 151.2C53.7576 151.056 53.6856 150.88 53.6856 150.672C53.6856 150.464 53.7576 150.288 53.9016 150.144C54.0536 149.992 54.2416 149.916 54.4656 149.916C54.6896 149.916 54.8736 149.988 55.0176 150.132C55.1696 150.268 55.2456 150.44 55.2456 150.648C55.2456 150.864 55.1696 151.048 55.0176 151.2C54.8736 151.344 54.6896 151.416 54.4656 151.416ZM60.0085 159.072C59.3605 159.072 58.7805 158.932 58.2685 158.652C57.7645 158.372 57.3685 157.988 57.0805 157.5C56.7925 157.004 56.6485 156.444 56.6485 155.82C56.6485 155.196 56.7925 154.64 57.0805 154.152C57.3685 153.656 57.7645 153.272 58.2685 153C58.7805 152.72 59.3605 152.58 60.0085 152.58C60.5845 152.58 61.0965 152.696 61.5445 152.928C62.0005 153.16 62.3525 153.496 62.6005 153.936L61.7245 154.5C61.5245 154.196 61.2765 153.968 60.9805 153.816C60.6845 153.664 60.3565 153.588 59.9965 153.588C59.5805 153.588 59.2045 153.68 58.8685 153.864C58.5405 154.048 58.2805 154.312 58.0885 154.656C57.9045 154.992 57.8125 155.38 57.8125 155.82C57.8125 156.268 57.9045 156.664 58.0885 157.008C58.2805 157.344 58.5405 157.604 58.8685 157.788C59.2045 157.972 59.5805 158.064 59.9965 158.064C60.3565 158.064 60.6845 157.988 60.9805 157.836C61.2765 157.684 61.5245 157.456 61.7245 157.152L62.6005 157.704C62.3525 158.144 62.0005 158.484 61.5445 158.724C61.0965 158.956 60.5845 159.072 60.0085 159.072ZM66.7223 159.072C66.0903 159.072 65.5223 158.932 65.0183 158.652C64.5143 158.372 64.1183 157.988 63.8303 157.5C63.5503 157.004 63.4103 156.444 63.4103 155.82C63.4103 155.196 63.5503 154.64 63.8303 154.152C64.1183 153.656 64.5143 153.272 65.0183 153C65.5223 152.72 66.0903 152.58 66.7223 152.58C67.3543 152.58 67.9183 152.72 68.4143 153C68.9183 153.272 69.3103 153.656 69.5903 154.152C69.8783 154.64 70.0223 155.196 70.0223 155.82C70.0223 156.444 69.8783 157.004 69.5903 157.5C69.3103 157.988 68.9183 158.372 68.4143 158.652C67.9183 158.932 67.3543 159.072 66.7223 159.072ZM66.7223 158.064C67.1303 158.064 67.4943 157.972 67.8143 157.788C68.1423 157.596 68.3983 157.332 68.5823 156.996C68.7663 156.652 68.8583 156.26 68.8583 155.82C68.8583 155.38 68.7663 154.992 68.5823 154.656C68.3983 154.312 68.1423 154.048 67.8143 153.864C67.4943 153.68 67.1303 153.588 66.7223 153.588C66.3143 153.588 65.9463 153.68 65.6183 153.864C65.2983 154.048 65.0423 154.312 64.8503 154.656C64.6663 154.992 64.5743 155.38 64.5743 155.82C64.5743 156.26 64.6663 156.652 64.8503 156.996C65.0423 157.332 65.2983 157.596 65.6183 157.788C65.9463 157.972 66.3143 158.064 66.7223 158.064ZM80.8381 150.096V159H79.7341V157.992C79.4781 158.344 79.1541 158.612 78.7621 158.796C78.3701 158.98 77.9381 159.072 77.4661 159.072C76.8501 159.072 76.2981 158.936 75.8101 158.664C75.3221 158.392 74.9381 158.012 74.6581 157.524C74.3861 157.028 74.2501 156.46 74.2501 155.82C74.2501 155.18 74.3861 154.616 74.6581 154.128C74.9381 153.64 75.3221 153.26 75.8101 152.988C76.2981 152.716 76.8501 152.58 77.4661 152.58C77.9221 152.58 78.3421 152.668 78.7261 152.844C79.1101 153.012 79.4301 153.264 79.6861 153.6V150.096H80.8381ZM77.5621 158.064C77.9621 158.064 78.3261 157.972 78.6541 157.788C78.9821 157.596 79.2381 157.332 79.4221 156.996C79.6061 156.652 79.6981 156.26 79.6981 155.82C79.6981 155.38 79.6061 154.992 79.4221 154.656C79.2381 154.312 78.9821 154.048 78.6541 153.864C78.3261 153.68 77.9621 153.588 77.5621 153.588C77.1541 153.588 76.7861 153.68 76.4581 153.864C76.1381 154.048 75.8821 154.312 75.6901 154.656C75.5061 154.992 75.4141 155.38 75.4141 155.82C75.4141 156.26 75.5061 156.652 75.6901 156.996C75.8821 157.332 76.1381 157.596 76.4581 157.788C76.7861 157.972 77.1541 158.064 77.5621 158.064ZM88.7658 155.856C88.7658 155.944 88.7578 156.06 88.7418 156.204H83.5818C83.6538 156.764 83.8978 157.216 84.3138 157.56C84.7378 157.896 85.2618 158.064 85.8858 158.064C86.6458 158.064 87.2578 157.808 87.7218 157.296L88.3578 158.04C88.0698 158.376 87.7098 158.632 87.2778 158.808C86.8538 158.984 86.3778 159.072 85.8498 159.072C85.1778 159.072 84.5818 158.936 84.0618 158.664C83.5418 158.384 83.1378 157.996 82.8498 157.5C82.5698 157.004 82.4298 156.444 82.4298 155.82C82.4298 155.204 82.5658 154.648 82.8378 154.152C83.1178 153.656 83.4978 153.272 83.9778 153C84.4658 152.72 85.0138 152.58 85.6218 152.58C86.2298 152.58 86.7698 152.72 87.2418 153C87.7218 153.272 88.0938 153.656 88.3578 154.152C88.6298 154.648 88.7658 155.216 88.7658 155.856ZM85.6218 153.552C85.0698 153.552 84.6058 153.72 84.2298 154.056C83.8618 154.392 83.6458 154.832 83.5818 155.376H87.6618C87.5978 154.84 87.3778 154.404 87.0018 154.068C86.6338 153.724 86.1738 153.552 85.6218 153.552ZM99.3361 155.856C99.3361 155.944 99.3281 156.06 99.3121 156.204H94.1521C94.2241 156.764 94.4681 157.216 94.8841 157.56C95.3081 157.896 95.8321 158.064 96.4561 158.064C97.2161 158.064 97.8281 157.808 98.2921 157.296L98.9281 158.04C98.6401 158.376 98.2801 158.632 97.8481 158.808C97.4241 158.984 96.9481 159.072 96.4201 159.072C95.7481 159.072 95.1521 158.936 94.6321 158.664C94.1121 158.384 93.7081 157.996 93.4201 157.5C93.1401 157.004 93.0001 156.444 93.0001 155.82C93.0001 155.204 93.1361 154.648 93.4081 154.152C93.6881 153.656 94.0681 153.272 94.5481 153C95.0361 152.72 95.5841 152.58 96.1921 152.58C96.8001 152.58 97.3401 152.72 97.8121 153C98.2921 153.272 98.6641 153.656 98.9281 154.152C99.2001 154.648 99.3361 155.216 99.3361 155.856ZM96.1921 153.552C95.6401 153.552 95.1761 153.72 94.8001 154.056C94.4321 154.392 94.2161 154.832 94.1521 155.376H98.2321C98.1681 154.84 97.9481 154.404 97.5721 154.068C97.2041 153.724 96.7441 153.552 96.1921 153.552ZM102.76 159.072C102.24 159.072 101.74 159.004 101.26 158.868C100.78 158.724 100.404 158.544 100.132 158.328L100.612 157.416C100.892 157.616 101.232 157.776 101.632 157.896C102.032 158.016 102.436 158.076 102.844 158.076C103.852 158.076 104.356 157.788 104.356 157.212C104.356 157.02 104.288 156.868 104.152 156.756C104.016 156.644 103.844 156.564 103.636 156.516C103.436 156.46 103.148 156.4 102.772 156.336C102.26 156.256 101.84 156.164 101.512 156.06C101.192 155.956 100.916 155.78 100.684 155.532C100.452 155.284 100.336 154.936 100.336 154.488C100.336 153.912 100.576 153.452 101.056 153.108C101.536 152.756 102.18 152.58 102.988 152.58C103.412 152.58 103.836 152.632 104.26 152.736C104.684 152.84 105.032 152.98 105.304 153.156L104.812 154.068C104.292 153.732 103.68 153.564 102.976 153.564C102.488 153.564 102.116 153.644 101.86 153.804C101.604 153.964 101.476 154.176 101.476 154.44C101.476 154.648 101.548 154.812 101.692 154.932C101.836 155.052 102.012 155.14 102.22 155.196C102.436 155.252 102.736 155.316 103.12 155.388C103.632 155.476 104.044 155.572 104.356 155.676C104.676 155.772 104.948 155.94 105.172 156.18C105.396 156.42 105.508 156.756 105.508 157.188C105.508 157.764 105.26 158.224 104.764 158.568C104.276 158.904 103.608 159.072 102.76 159.072ZM110.523 158.628C110.355 158.772 110.147 158.884 109.899 158.964C109.651 159.036 109.395 159.072 109.131 159.072C108.491 159.072 107.995 158.9 107.643 158.556C107.291 158.212 107.115 157.72 107.115 157.08V153.588H106.035V152.64H107.115V151.248H108.267V152.64H110.091V153.588H108.267V157.032C108.267 157.376 108.351 157.64 108.519 157.824C108.695 158.008 108.943 158.1 109.263 158.1C109.615 158.1 109.915 158 110.163 157.8L110.523 158.628ZM117.453 155.856C117.453 155.944 117.445 156.06 117.429 156.204H112.269C112.341 156.764 112.585 157.216 113.001 157.56C113.425 157.896 113.949 158.064 114.573 158.064C115.333 158.064 115.945 157.808 116.409 157.296L117.045 158.04C116.757 158.376 116.397 158.632 115.965 158.808C115.541 158.984 115.065 159.072 114.537 159.072C113.865 159.072 113.269 158.936 112.749 158.664C112.229 158.384 111.825 157.996 111.537 157.5C111.257 157.004 111.117 156.444 111.117 155.82C111.117 155.204 111.253 154.648 111.525 154.152C111.805 153.656 112.185 153.272 112.665 153C113.153 152.72 113.701 152.58 114.309 152.58C114.917 152.58 115.457 152.72 115.929 153C116.409 153.272 116.781 153.656 117.045 154.152C117.317 154.648 117.453 155.216 117.453 155.856ZM114.309 153.552C113.757 153.552 113.293 153.72 112.917 154.056C112.549 154.392 112.333 154.832 112.269 155.376H116.349C116.285 154.84 116.065 154.404 115.689 154.068C115.321 153.724 114.861 153.552 114.309 153.552ZM125.648 152.58C126.264 152.58 126.816 152.716 127.304 152.988C127.792 153.26 128.172 153.64 128.444 154.128C128.724 154.616 128.864 155.18 128.864 155.82C128.864 156.46 128.724 157.028 128.444 157.524C128.172 158.012 127.792 158.392 127.304 158.664C126.816 158.936 126.264 159.072 125.648 159.072C125.192 159.072 124.772 158.984 124.388 158.808C124.012 158.632 123.692 158.376 123.428 158.04V161.328H122.276V152.64H123.38V153.648C123.636 153.296 123.96 153.032 124.352 152.856C124.744 152.672 125.176 152.58 125.648 152.58ZM125.552 158.064C125.96 158.064 126.324 157.972 126.644 157.788C126.972 157.596 127.228 157.332 127.412 156.996C127.604 156.652 127.7 156.26 127.7 155.82C127.7 155.38 127.604 154.992 127.412 154.656C127.228 154.312 126.972 154.048 126.644 153.864C126.324 153.68 125.96 153.588 125.552 153.588C125.152 153.588 124.788 153.684 124.46 153.876C124.14 154.06 123.884 154.32 123.692 154.656C123.508 154.992 123.416 155.38 123.416 155.82C123.416 156.26 123.508 156.652 123.692 156.996C123.876 157.332 124.132 157.596 124.46 157.788C124.788 157.972 125.152 158.064 125.552 158.064ZM132.713 152.58C133.593 152.58 134.265 152.796 134.729 153.228C135.201 153.66 135.437 154.304 135.437 155.16V159H134.345V158.16C134.153 158.456 133.877 158.684 133.517 158.844C133.165 158.996 132.745 159.072 132.257 159.072C131.545 159.072 130.973 158.9 130.541 158.556C130.117 158.212 129.905 157.76 129.905 157.2C129.905 156.64 130.109 156.192 130.517 155.856C130.925 155.512 131.573 155.34 132.461 155.34H134.285V155.112C134.285 154.616 134.141 154.236 133.853 153.972C133.565 153.708 133.141 153.576 132.581 153.576C132.205 153.576 131.837 153.64 131.477 153.768C131.117 153.888 130.813 154.052 130.565 154.26L130.085 153.396C130.413 153.132 130.805 152.932 131.261 152.796C131.717 152.652 132.201 152.58 132.713 152.58ZM132.449 158.184C132.889 158.184 133.269 158.088 133.589 157.896C133.909 157.696 134.141 157.416 134.285 157.056V156.168H132.509C131.533 156.168 131.045 156.496 131.045 157.152C131.045 157.472 131.169 157.724 131.417 157.908C131.665 158.092 132.009 158.184 132.449 158.184ZM139.393 159.072C138.873 159.072 138.373 159.004 137.893 158.868C137.413 158.724 137.037 158.544 136.765 158.328L137.245 157.416C137.525 157.616 137.865 157.776 138.265 157.896C138.665 158.016 139.069 158.076 139.477 158.076C140.485 158.076 140.989 157.788 140.989 157.212C140.989 157.02 140.921 156.868 140.785 156.756C140.649 156.644 140.477 156.564 140.269 156.516C140.069 156.46 139.781 156.4 139.405 156.336C138.893 156.256 138.473 156.164 138.145 156.06C137.825 155.956 137.549 155.78 137.317 155.532C137.085 155.284 136.969 154.936 136.969 154.488C136.969 153.912 137.209 153.452 137.689 153.108C138.169 152.756 138.813 152.58 139.621 152.58C140.045 152.58 140.469 152.632 140.893 152.736C141.317 152.84 141.665 152.98 141.937 153.156L141.445 154.068C140.925 153.732 140.313 153.564 139.609 153.564C139.121 153.564 138.749 153.644 138.493 153.804C138.237 153.964 138.109 154.176 138.109 154.44C138.109 154.648 138.181 154.812 138.325 154.932C138.469 155.052 138.645 155.14 138.853 155.196C139.069 155.252 139.369 155.316 139.753 155.388C140.265 155.476 140.677 155.572 140.989 155.676C141.309 155.772 141.581 155.94 141.805 156.18C142.029 156.42 142.141 156.756 142.141 157.188C142.141 157.764 141.893 158.224 141.397 158.568C140.909 158.904 140.241 159.072 139.393 159.072ZM146.304 159.072C145.672 159.072 145.104 158.932 144.6 158.652C144.096 158.372 143.7 157.988 143.412 157.5C143.132 157.004 142.992 156.444 142.992 155.82C142.992 155.196 143.132 154.64 143.412 154.152C143.7 153.656 144.096 153.272 144.6 153C145.104 152.72 145.672 152.58 146.304 152.58C146.936 152.58 147.5 152.72 147.996 153C148.5 153.272 148.892 153.656 149.172 154.152C149.46 154.64 149.604 155.196 149.604 155.82C149.604 156.444 149.46 157.004 149.172 157.5C148.892 157.988 148.5 158.372 147.996 158.652C147.5 158.932 146.936 159.072 146.304 159.072ZM146.304 158.064C146.712 158.064 147.076 157.972 147.396 157.788C147.724 157.596 147.98 157.332 148.164 156.996C148.348 156.652 148.44 156.26 148.44 155.82C148.44 155.38 148.348 154.992 148.164 154.656C147.98 154.312 147.724 154.048 147.396 153.864C147.076 153.68 146.712 153.588 146.304 153.588C145.896 153.588 145.528 153.68 145.2 153.864C144.88 154.048 144.624 154.312 144.432 154.656C144.248 154.992 144.156 155.38 144.156 155.82C144.156 156.26 144.248 156.652 144.432 156.996C144.624 157.332 144.88 157.596 145.2 157.788C145.528 157.972 145.896 158.064 146.304 158.064ZM151.333 159.072C151.109 159.072 150.917 158.996 150.757 158.844C150.597 158.684 150.517 158.484 150.517 158.244C150.517 158.012 150.597 157.82 150.757 157.668C150.917 157.508 151.109 157.428 151.333 157.428C151.557 157.428 151.745 157.504 151.897 157.656C152.049 157.808 152.125 158.004 152.125 158.244C152.125 158.484 152.045 158.684 151.885 158.844C151.733 158.996 151.549 159.072 151.333 159.072Z" fill="#008E86"/>
<path d="M45 55L90 10L135 55L124 66L56 66L45 55Z" fill="#00D8CC" stroke="#00635D" stroke-width="2" stroke-linejoin="round"/>
<path opacity="0.25" d="M45 55L135 55" stroke="#333333" stroke-width="2"/>
<path opacity="0.25" d="M66 34H114" stroke="#333333" stroke-width="2"/>
<path opacity="0.25" d="M76 24H104" stroke="#333333" stroke-width="2"/>
<path d="M67 55L56 66H124L113 55H67Z" fill="#008E86" stroke="#00635D" stroke-width="2" stroke-linejoin="round"/>
<path d="M90 77L68 55H112L90 77Z" fill="#00D8CC" stroke="#00635D" stroke-width="2" stroke-linejoin="round"/>
<path d="M79 66H101" stroke="#333333" stroke-width="2" stroke-dasharray="4 6"/>
<path opacity="0.25" d="M90 11V77" stroke="#333333" stroke-width="2"/>
<path opacity="0.25" d="M56 44L124 44" stroke="#333333" stroke-width="2"/>
<path d="M75.997 48C76.5493 47.9984 76.9984 48.4447 77 48.997L77.0268 57.997C77.0285 58.5493 76.5821 58.9983 76.0298 59C75.4775 59.0016 75.0285 58.5552 75.0268 58.0029L75.003 50.003L67.003 50.0268C66.4507 50.0285 66.0017 49.5821 66 49.0298C65.9984 48.4775 66.4448 48.0285 66.9971 48.0268L75.997 48ZM76.7092 81.295C77.0986 81.6867 77.0967 82.3199 76.705 82.7092C76.3133 83.0986 75.6801 83.0967 75.2908 82.705L76.7092 81.295ZM76.7092 49.705C72.0905 54.3513 70 59.8975 70 65.431L68 65.431C68 59.3661 70.3017 53.3139 75.2908 48.295L76.7092 49.705ZM70 65.431C70 68.146 70.8413 71.2836 72.1277 74.1911C73.4139 77.0981 75.102 79.6782 76.7092 81.295L75.2908 82.705C73.4667 80.87 71.6547 78.065 70.2987 75.0003C68.943 71.9361 68 68.5151 68 65.431L70 65.431Z" fill="black"/>
</g>
<defs>
<clipPath id="clip0_5698_199245">
<rect width="180" height="180" rx="20" fill="white"/>
</clipPath>
<clipPath id="clip1_5698_199245">
<path d="M0 30L-1.31134e-06 0L30 -1.31134e-06L30 10C30 21.0457 21.0457 30 10 30L0 30Z" fill="white"/>
</clipPath>
</defs>
</svg>
