<svg width="180" height="180" viewBox="0 0 180 180" fill="none" xmlns="http://www.w3.org/2000/svg">
<g clip-path="url(#clip0_5698_199256)">
<rect width="180" height="180" rx="20" fill="#F2F2F2"/>
<g clip-path="url(#clip1_5698_199256)">
<path d="M0 30L-1.31134e-06 0L30 -1.31134e-06L30 10C30 21.0457 21.0457 30 10 30L0 30Z" fill="#333333"/>
<path d="M18.0068 15.112C18.5614 15.3893 18.9828 15.752 19.2708 16.2C19.5694 16.648 19.7188 17.1653 19.7188 17.752C19.7188 18.4453 19.5214 19.0533 19.1267 19.576C18.7321 20.088 18.1774 20.488 17.4628 20.776C16.7481 21.0533 15.9214 21.192 14.9828 21.192C14.0441 21.192 13.2174 21.0533 12.5028 20.776C11.7988 20.488 11.2494 20.088 10.8548 19.576C10.4708 19.0533 10.2788 18.4453 10.2788 17.752C10.2788 17.1653 10.4228 16.648 10.7108 16.2C11.0094 15.752 11.4308 15.3893 11.9748 15.112C11.5588 14.856 11.2388 14.536 11.0148 14.152C10.7908 13.7573 10.6788 13.3093 10.6788 12.808C10.6788 12.1573 10.8601 11.592 11.2228 11.112C11.5854 10.632 12.0921 10.264 12.7428 10.008C13.3934 9.74133 14.1401 9.608 14.9828 9.608C15.8361 9.608 16.5881 9.74133 17.2388 10.008C17.9001 10.264 18.4121 10.632 18.7748 11.112C19.1374 11.592 19.3188 12.1573 19.3188 12.808C19.3188 13.3093 19.2068 13.7573 18.9828 14.152C18.7588 14.536 18.4334 14.856 18.0068 15.112ZM14.9828 11.512C14.4601 11.512 14.0388 11.64 13.7188 11.896C13.4094 12.1413 13.2548 12.4827 13.2548 12.92C13.2548 13.3467 13.4094 13.6827 13.7188 13.928C14.0281 14.1733 14.4494 14.296 14.9828 14.296C15.5161 14.296 15.9428 14.1733 16.2628 13.928C16.5828 13.6827 16.7428 13.3467 16.7428 12.92C16.7428 12.4827 16.5828 12.1413 16.2628 11.896C15.9428 11.64 15.5161 11.512 14.9828 11.512ZM14.9828 19.288C15.6334 19.288 16.1454 19.144 16.5188 18.856C16.9028 18.5573 17.0948 18.1627 17.0948 17.672C17.0948 17.1813 16.9028 16.792 16.5188 16.504C16.1454 16.216 15.6334 16.072 14.9828 16.072C14.3428 16.072 13.8361 16.216 13.4628 16.504C13.0894 16.792 12.9028 17.1813 12.9028 17.672C12.9028 18.1733 13.0894 18.568 13.4628 18.856C13.8361 19.144 14.3428 19.288 14.9828 19.288Z" fill="#F2F2F2"/>
</g>
<path d="M27.5948 137L25.7828 134.42C25.5588 134.436 25.3828 134.444 25.2548 134.444H23.1788V137H21.9788V128.6H25.2548C26.3428 128.6 27.1988 128.86 27.8228 129.38C28.4468 129.9 28.7588 130.616 28.7588 131.528C28.7588 132.176 28.5988 132.728 28.2788 133.184C27.9588 133.64 27.5028 133.972 26.9108 134.18L28.9028 137H27.5948ZM25.2188 133.424C25.9788 133.424 26.5588 133.26 26.9588 132.932C27.3588 132.604 27.5588 132.136 27.5588 131.528C27.5588 130.92 27.3588 130.456 26.9588 130.136C26.5588 129.808 25.9788 129.644 25.2188 129.644H23.1788V133.424H25.2188ZM36.2775 133.856C36.2775 133.944 36.2695 134.06 36.2535 134.204H31.0935C31.1655 134.764 31.4095 135.216 31.8255 135.56C32.2495 135.896 32.7735 136.064 33.3975 136.064C34.1575 136.064 34.7695 135.808 35.2335 135.296L35.8695 136.04C35.5815 136.376 35.2215 136.632 34.7895 136.808C34.3655 136.984 33.8895 137.072 33.3615 137.072C32.6895 137.072 32.0935 136.936 31.5735 136.664C31.0535 136.384 30.6495 135.996 30.3615 135.5C30.0815 135.004 29.9415 134.444 29.9415 133.82C29.9415 133.204 30.0775 132.648 30.3495 132.152C30.6295 131.656 31.0095 131.272 31.4895 131C31.9775 130.72 32.5255 130.58 33.1335 130.58C33.7415 130.58 34.2815 130.72 34.7535 131C35.2335 131.272 35.6055 131.656 35.8695 132.152C36.1415 132.648 36.2775 133.216 36.2775 133.856ZM33.1335 131.552C32.5815 131.552 32.1175 131.72 31.7415 132.056C31.3735 132.392 31.1575 132.832 31.0935 133.376H35.1735C35.1095 132.84 34.8895 132.404 34.5135 132.068C34.1455 131.724 33.6855 131.552 33.1335 131.552ZM41.2492 130.58C41.8652 130.58 42.4172 130.716 42.9052 130.988C43.3932 131.26 43.7732 131.64 44.0452 132.128C44.3252 132.616 44.4652 133.18 44.4652 133.82C44.4652 134.46 44.3252 135.028 44.0452 135.524C43.7732 136.012 43.3932 136.392 42.9052 136.664C42.4172 136.936 41.8652 137.072 41.2492 137.072C40.7932 137.072 40.3732 136.984 39.9892 136.808C39.6132 136.632 39.2932 136.376 39.0292 136.04V139.328H37.8772V130.64H38.9812V131.648C39.2372 131.296 39.5612 131.032 39.9532 130.856C40.3452 130.672 40.7772 130.58 41.2492 130.58ZM41.1532 136.064C41.5612 136.064 41.9252 135.972 42.2452 135.788C42.5732 135.596 42.8292 135.332 43.0132 134.996C43.2052 134.652 43.3012 134.26 43.3012 133.82C43.3012 133.38 43.2052 132.992 43.0132 132.656C42.8292 132.312 42.5732 132.048 42.2452 131.864C41.9252 131.68 41.5612 131.588 41.1532 131.588C40.7532 131.588 40.3892 131.684 40.0612 131.876C39.7412 132.06 39.4852 132.32 39.2932 132.656C39.1092 132.992 39.0172 133.38 39.0172 133.82C39.0172 134.26 39.1092 134.652 39.2932 134.996C39.4772 135.332 39.7332 135.596 40.0612 135.788C40.3892 135.972 40.7532 136.064 41.1532 136.064ZM46.0568 130.64H47.2088V137H46.0568V130.64ZM46.6328 129.416C46.4088 129.416 46.2208 129.344 46.0688 129.2C45.9248 129.056 45.8528 128.88 45.8528 128.672C45.8528 128.464 45.9248 128.288 46.0688 128.144C46.2208 127.992 46.4088 127.916 46.6328 127.916C46.8568 127.916 47.0408 127.988 47.1848 128.132C47.3368 128.268 47.4128 128.44 47.4128 128.648C47.4128 128.864 47.3368 129.048 47.1848 129.2C47.0408 129.344 46.8568 129.416 46.6328 129.416ZM52.9844 136.628C52.8164 136.772 52.6084 136.884 52.3604 136.964C52.1124 137.036 51.8564 137.072 51.5924 137.072C50.9524 137.072 50.4564 136.9 50.1044 136.556C49.7524 136.212 49.5764 135.72 49.5764 135.08V131.588H48.4964V130.64H49.5764V129.248H50.7284V130.64H52.5524V131.588H50.7284V135.032C50.7284 135.376 50.8124 135.64 50.9804 135.824C51.1564 136.008 51.4044 136.1 51.7244 136.1C52.0764 136.1 52.3764 136 52.6244 135.8L52.9844 136.628ZM59.9142 133.856C59.9142 133.944 59.9062 134.06 59.8902 134.204H54.7302C54.8022 134.764 55.0462 135.216 55.4622 135.56C55.8862 135.896 56.4102 136.064 57.0342 136.064C57.7942 136.064 58.4062 135.808 58.8702 135.296L59.5062 136.04C59.2182 136.376 58.8582 136.632 58.4262 136.808C58.0022 136.984 57.5262 137.072 56.9982 137.072C56.3262 137.072 55.7302 136.936 55.2102 136.664C54.6902 136.384 54.2862 135.996 53.9982 135.5C53.7182 135.004 53.5782 134.444 53.5782 133.82C53.5782 133.204 53.7142 132.648 53.9862 132.152C54.2662 131.656 54.6462 131.272 55.1262 131C55.6142 130.72 56.1622 130.58 56.7702 130.58C57.3782 130.58 57.9182 130.72 58.3902 131C58.8702 131.272 59.2422 131.656 59.5062 132.152C59.7782 132.648 59.9142 133.216 59.9142 133.856ZM56.7702 131.552C56.2182 131.552 55.7542 131.72 55.3782 132.056C55.0102 132.392 54.7942 132.832 54.7302 133.376H58.8102C58.7462 132.84 58.5262 132.404 58.1502 132.068C57.7822 131.724 57.3222 131.552 56.7702 131.552ZM64.7365 128.096H65.8885V137H64.7365V128.096ZM70.8121 137.072C70.1801 137.072 69.6121 136.932 69.1081 136.652C68.6041 136.372 68.2081 135.988 67.9201 135.5C67.6401 135.004 67.5001 134.444 67.5001 133.82C67.5001 133.196 67.6401 132.64 67.9201 132.152C68.2081 131.656 68.6041 131.272 69.1081 131C69.6121 130.72 70.1801 130.58 70.8121 130.58C71.4441 130.58 72.0081 130.72 72.5041 131C73.0081 131.272 73.4001 131.656 73.6801 132.152C73.9681 132.64 74.1121 133.196 74.1121 133.82C74.1121 134.444 73.9681 135.004 73.6801 135.5C73.4001 135.988 73.0081 136.372 72.5041 136.652C72.0081 136.932 71.4441 137.072 70.8121 137.072ZM70.8121 136.064C71.2201 136.064 71.5841 135.972 71.9041 135.788C72.2321 135.596 72.4881 135.332 72.6721 134.996C72.8561 134.652 72.9481 134.26 72.9481 133.82C72.9481 133.38 72.8561 132.992 72.6721 132.656C72.4881 132.312 72.2321 132.048 71.9041 131.864C71.5841 131.68 71.2201 131.588 70.8121 131.588C70.4041 131.588 70.0361 131.68 69.7081 131.864C69.3881 132.048 69.1321 132.312 68.9401 132.656C68.7561 132.992 68.6641 133.38 68.6641 133.82C68.6641 134.26 68.7561 134.652 68.9401 134.996C69.1321 135.332 69.3881 135.596 69.7081 135.788C70.0361 135.972 70.4041 136.064 70.8121 136.064ZM77.5293 137.072C77.0093 137.072 76.5093 137.004 76.0293 136.868C75.5493 136.724 75.1733 136.544 74.9013 136.328L75.3813 135.416C75.6613 135.616 76.0013 135.776 76.4013 135.896C76.8013 136.016 77.2053 136.076 77.6133 136.076C78.6213 136.076 79.1253 135.788 79.1253 135.212C79.1253 135.02 79.0573 134.868 78.9213 134.756C78.7853 134.644 78.6133 134.564 78.4053 134.516C78.2053 134.46 77.9173 134.4 77.5413 134.336C77.0293 134.256 76.6093 134.164 76.2813 134.06C75.9613 133.956 75.6853 133.78 75.4533 133.532C75.2213 133.284 75.1053 132.936 75.1053 132.488C75.1053 131.912 75.3453 131.452 75.8253 131.108C76.3053 130.756 76.9493 130.58 77.7573 130.58C78.1813 130.58 78.6053 130.632 79.0293 130.736C79.4533 130.84 79.8013 130.98 80.0733 131.156L79.5813 132.068C79.0613 131.732 78.4493 131.564 77.7453 131.564C77.2573 131.564 76.8853 131.644 76.6293 131.804C76.3733 131.964 76.2453 132.176 76.2453 132.44C76.2453 132.648 76.3173 132.812 76.4613 132.932C76.6053 133.052 76.7813 133.14 76.9893 133.196C77.2053 133.252 77.5053 133.316 77.8893 133.388C78.4013 133.476 78.8133 133.572 79.1253 133.676C79.4453 133.772 79.7173 133.94 79.9413 134.18C80.1653 134.42 80.2773 134.756 80.2773 135.188C80.2773 135.764 80.0293 136.224 79.5333 136.568C79.0453 136.904 78.3773 137.072 77.5293 137.072ZM88.3117 130.58C88.9277 130.58 89.4797 130.716 89.9677 130.988C90.4557 131.26 90.8357 131.64 91.1077 132.128C91.3877 132.616 91.5277 133.18 91.5277 133.82C91.5277 134.46 91.3877 135.028 91.1077 135.524C90.8357 136.012 90.4557 136.392 89.9677 136.664C89.4797 136.936 88.9277 137.072 88.3117 137.072C87.8557 137.072 87.4357 136.984 87.0517 136.808C86.6757 136.632 86.3557 136.376 86.0917 136.04V139.328H84.9397V130.64H86.0437V131.648C86.2997 131.296 86.6237 131.032 87.0157 130.856C87.4077 130.672 87.8397 130.58 88.3117 130.58ZM88.2157 136.064C88.6237 136.064 88.9877 135.972 89.3077 135.788C89.6357 135.596 89.8917 135.332 90.0757 134.996C90.2677 134.652 90.3637 134.26 90.3637 133.82C90.3637 133.38 90.2677 132.992 90.0757 132.656C89.8917 132.312 89.6357 132.048 89.3077 131.864C88.9877 131.68 88.6237 131.588 88.2157 131.588C87.8157 131.588 87.4517 131.684 87.1237 131.876C86.8037 132.06 86.5477 132.32 86.3557 132.656C86.1717 132.992 86.0797 133.38 86.0797 133.82C86.0797 134.26 86.1717 134.652 86.3557 134.996C86.5397 135.332 86.7957 135.596 87.1237 135.788C87.4517 135.972 87.8157 136.064 88.2157 136.064ZM95.3768 130.58C96.2568 130.58 96.9288 130.796 97.3928 131.228C97.8648 131.66 98.1008 132.304 98.1008 133.16V137H97.0088V136.16C96.8168 136.456 96.5408 136.684 96.1808 136.844C95.8288 136.996 95.4088 137.072 94.9208 137.072C94.2088 137.072 93.6368 136.9 93.2048 136.556C92.7808 136.212 92.5688 135.76 92.5688 135.2C92.5688 134.64 92.7728 134.192 93.1808 133.856C93.5888 133.512 94.2368 133.34 95.1248 133.34H96.9488V133.112C96.9488 132.616 96.8048 132.236 96.5168 131.972C96.2288 131.708 95.8048 131.576 95.2448 131.576C94.8688 131.576 94.5008 131.64 94.1408 131.768C93.7808 131.888 93.4768 132.052 93.2288 132.26L92.7488 131.396C93.0768 131.132 93.4688 130.932 93.9248 130.796C94.3808 130.652 94.8648 130.58 95.3768 130.58ZM95.1128 136.184C95.5528 136.184 95.9328 136.088 96.2528 135.896C96.5728 135.696 96.8048 135.416 96.9488 135.056V134.168H95.1728C94.1968 134.168 93.7088 134.496 93.7088 135.152C93.7088 135.472 93.8328 135.724 94.0808 135.908C94.3288 136.092 94.6728 136.184 95.1128 136.184ZM102.057 137.072C101.537 137.072 101.037 137.004 100.557 136.868C100.077 136.724 99.7006 136.544 99.4286 136.328L99.9086 135.416C100.189 135.616 100.529 135.776 100.929 135.896C101.329 136.016 101.733 136.076 102.141 136.076C103.149 136.076 103.653 135.788 103.653 135.212C103.653 135.02 103.585 134.868 103.449 134.756C103.313 134.644 103.141 134.564 102.933 134.516C102.733 134.46 102.445 134.4 102.069 134.336C101.557 134.256 101.137 134.164 100.809 134.06C100.489 133.956 100.213 133.78 99.9806 133.532C99.7486 133.284 99.6326 132.936 99.6326 132.488C99.6326 131.912 99.8726 131.452 100.353 131.108C100.833 130.756 101.477 130.58 102.285 130.58C102.709 130.58 103.133 130.632 103.557 130.736C103.981 130.84 104.329 130.98 104.601 131.156L104.109 132.068C103.589 131.732 102.977 131.564 102.273 131.564C101.785 131.564 101.413 131.644 101.157 131.804C100.901 131.964 100.773 132.176 100.773 132.44C100.773 132.648 100.845 132.812 100.989 132.932C101.133 133.052 101.309 133.14 101.517 133.196C101.733 133.252 102.033 133.316 102.417 133.388C102.929 133.476 103.341 133.572 103.653 133.676C103.973 133.772 104.245 133.94 104.469 134.18C104.693 134.42 104.805 134.756 104.805 135.188C104.805 135.764 104.557 136.224 104.061 136.568C103.573 136.904 102.905 137.072 102.057 137.072ZM108.968 137.072C108.336 137.072 107.768 136.932 107.264 136.652C106.76 136.372 106.364 135.988 106.076 135.5C105.796 135.004 105.656 134.444 105.656 133.82C105.656 133.196 105.796 132.64 106.076 132.152C106.364 131.656 106.76 131.272 107.264 131C107.768 130.72 108.336 130.58 108.968 130.58C109.6 130.58 110.164 130.72 110.66 131C111.164 131.272 111.556 131.656 111.836 132.152C112.124 132.64 112.268 133.196 112.268 133.82C112.268 134.444 112.124 135.004 111.836 135.5C111.556 135.988 111.164 136.372 110.66 136.652C110.164 136.932 109.6 137.072 108.968 137.072ZM108.968 136.064C109.376 136.064 109.74 135.972 110.06 135.788C110.388 135.596 110.644 135.332 110.828 134.996C111.012 134.652 111.104 134.26 111.104 133.82C111.104 133.38 111.012 132.992 110.828 132.656C110.644 132.312 110.388 132.048 110.06 131.864C109.74 131.68 109.376 131.588 108.968 131.588C108.56 131.588 108.192 131.68 107.864 131.864C107.544 132.048 107.288 132.312 107.096 132.656C106.912 132.992 106.82 133.38 106.82 133.82C106.82 134.26 106.912 134.652 107.096 134.996C107.288 135.332 107.544 135.596 107.864 135.788C108.192 135.972 108.56 136.064 108.968 136.064ZM115.686 137.072C115.166 137.072 114.666 137.004 114.186 136.868C113.706 136.724 113.33 136.544 113.058 136.328L113.538 135.416C113.818 135.616 114.158 135.776 114.558 135.896C114.958 136.016 115.362 136.076 115.77 136.076C116.778 136.076 117.282 135.788 117.282 135.212C117.282 135.02 117.214 134.868 117.078 134.756C116.942 134.644 116.77 134.564 116.562 134.516C116.362 134.46 116.074 134.4 115.698 134.336C115.186 134.256 114.766 134.164 114.438 134.06C114.118 133.956 113.842 133.78 113.61 133.532C113.378 133.284 113.262 132.936 113.262 132.488C113.262 131.912 113.502 131.452 113.982 131.108C114.462 130.756 115.106 130.58 115.914 130.58C116.338 130.58 116.762 130.632 117.186 130.736C117.61 130.84 117.958 130.98 118.23 131.156L117.738 132.068C117.218 131.732 116.606 131.564 115.902 131.564C115.414 131.564 115.042 131.644 114.786 131.804C114.53 131.964 114.402 132.176 114.402 132.44C114.402 132.648 114.474 132.812 114.618 132.932C114.762 133.052 114.938 133.14 115.146 133.196C115.362 133.252 115.662 133.316 116.046 133.388C116.558 133.476 116.97 133.572 117.282 133.676C117.602 133.772 117.874 133.94 118.098 134.18C118.322 134.42 118.434 134.756 118.434 135.188C118.434 135.764 118.186 136.224 117.69 136.568C117.202 136.904 116.534 137.072 115.686 137.072ZM124.98 131.948C126.18 131.948 127.06 132.176 127.62 132.632C128.188 133.08 128.472 133.696 128.472 134.48C128.472 134.976 128.352 135.424 128.112 135.824C127.88 136.216 127.524 136.528 127.044 136.76C126.572 136.984 125.988 137.096 125.292 137.096C124.7 137.096 124.128 137.008 123.576 136.832C123.024 136.648 122.568 136.396 122.208 136.076L122.76 135.128C123.048 135.4 123.416 135.62 123.864 135.788C124.312 135.948 124.784 136.028 125.28 136.028C125.912 136.028 126.4 135.896 126.744 135.632C127.096 135.36 127.272 134.992 127.272 134.528C127.272 134.024 127.08 133.644 126.696 133.388C126.312 133.124 125.656 132.992 124.728 132.992H122.82L123.264 128.6H128.004V129.644H124.272L124.044 131.948H124.98ZM129.579 133.208H132.807V134.204H129.579V133.208ZM140.067 128.6V129.416L136.671 137H135.399L138.723 129.644H134.883V131.144H133.731V128.6H140.067ZM150.606 133.856C150.606 133.944 150.598 134.06 150.582 134.204H145.422C145.494 134.764 145.738 135.216 146.154 135.56C146.578 135.896 147.102 136.064 147.726 136.064C148.486 136.064 149.098 135.808 149.562 135.296L150.198 136.04C149.91 136.376 149.55 136.632 149.118 136.808C148.694 136.984 148.218 137.072 147.69 137.072C147.018 137.072 146.422 136.936 145.902 136.664C145.382 136.384 144.978 135.996 144.69 135.5C144.41 135.004 144.27 134.444 144.27 133.82C144.27 133.204 144.406 132.648 144.678 132.152C144.958 131.656 145.338 131.272 145.818 131C146.306 130.72 146.854 130.58 147.462 130.58C148.07 130.58 148.61 130.72 149.082 131C149.562 131.272 149.934 131.656 150.198 132.152C150.47 132.648 150.606 133.216 150.606 133.856ZM147.462 131.552C146.91 131.552 146.446 131.72 146.07 132.056C145.702 132.392 145.486 132.832 145.422 133.376H149.502C149.438 132.84 149.218 132.404 148.842 132.068C148.474 131.724 148.014 131.552 147.462 131.552ZM155.601 130.58C156.409 130.58 157.049 130.816 157.521 131.288C158.001 131.752 158.241 132.436 158.241 133.34V137H157.089V133.472C157.089 132.856 156.941 132.392 156.645 132.08C156.349 131.768 155.925 131.612 155.373 131.612C154.749 131.612 154.257 131.796 153.897 132.164C153.537 132.524 153.357 133.044 153.357 133.724V137H152.205V130.64H153.309V131.6C153.541 131.272 153.853 131.02 154.245 130.844C154.645 130.668 155.097 130.58 155.601 130.58ZM32.3635 143.096H33.5155V152H32.3635V143.096ZM38.031 145.58C38.911 145.58 39.583 145.796 40.047 146.228C40.519 146.66 40.755 147.304 40.755 148.16V152H39.663V151.16C39.471 151.456 39.195 151.684 38.835 151.844C38.483 151.996 38.063 152.072 37.575 152.072C36.863 152.072 36.291 151.9 35.859 151.556C35.435 151.212 35.223 150.76 35.223 150.2C35.223 149.64 35.427 149.192 35.835 148.856C36.243 148.512 36.891 148.34 37.779 148.34H39.603V148.112C39.603 147.616 39.459 147.236 39.171 146.972C38.883 146.708 38.459 146.576 37.899 146.576C37.523 146.576 37.155 146.64 36.795 146.768C36.435 146.888 36.131 147.052 35.883 147.26L35.403 146.396C35.731 146.132 36.123 145.932 36.579 145.796C37.035 145.652 37.519 145.58 38.031 145.58ZM37.767 151.184C38.207 151.184 38.587 151.088 38.907 150.896C39.227 150.696 39.459 150.416 39.603 150.056V149.168H37.827C36.851 149.168 36.363 149.496 36.363 150.152C36.363 150.472 36.487 150.724 36.735 150.908C36.983 151.092 37.327 151.184 37.767 151.184ZM51.8576 148.856C51.8576 148.944 51.8496 149.06 51.8336 149.204H46.6736C46.7456 149.764 46.9896 150.216 47.4056 150.56C47.8296 150.896 48.3536 151.064 48.9776 151.064C49.7376 151.064 50.3496 150.808 50.8136 150.296L51.4496 151.04C51.1616 151.376 50.8016 151.632 50.3696 151.808C49.9456 151.984 49.4696 152.072 48.9416 152.072C48.2696 152.072 47.6736 151.936 47.1536 151.664C46.6336 151.384 46.2296 150.996 45.9416 150.5C45.6616 150.004 45.5216 149.444 45.5216 148.82C45.5216 148.204 45.6576 147.648 45.9296 147.152C46.2096 146.656 46.5896 146.272 47.0696 146C47.5576 145.72 48.1056 145.58 48.7136 145.58C49.3216 145.58 49.8616 145.72 50.3336 146C50.8136 146.272 51.1856 146.656 51.4496 147.152C51.7216 147.648 51.8576 148.216 51.8576 148.856ZM48.7136 146.552C48.1616 146.552 47.6976 146.72 47.3216 147.056C46.9536 147.392 46.7376 147.832 46.6736 148.376H50.7536C50.6896 147.84 50.4696 147.404 50.0936 147.068C49.7256 146.724 49.2656 146.552 48.7136 146.552ZM55.2812 152.072C54.7612 152.072 54.2612 152.004 53.7812 151.868C53.3012 151.724 52.9252 151.544 52.6532 151.328L53.1332 150.416C53.4132 150.616 53.7532 150.776 54.1532 150.896C54.5532 151.016 54.9572 151.076 55.3652 151.076C56.3732 151.076 56.8772 150.788 56.8772 150.212C56.8772 150.02 56.8092 149.868 56.6732 149.756C56.5372 149.644 56.3652 149.564 56.1572 149.516C55.9572 149.46 55.6692 149.4 55.2932 149.336C54.7812 149.256 54.3612 149.164 54.0332 149.06C53.7132 148.956 53.4372 148.78 53.2052 148.532C52.9732 148.284 52.8572 147.936 52.8572 147.488C52.8572 146.912 53.0972 146.452 53.5772 146.108C54.0572 145.756 54.7012 145.58 55.5092 145.58C55.9332 145.58 56.3572 145.632 56.7812 145.736C57.2052 145.84 57.5532 145.98 57.8252 146.156L57.3332 147.068C56.8132 146.732 56.2012 146.564 55.4972 146.564C55.0092 146.564 54.6372 146.644 54.3812 146.804C54.1252 146.964 53.9972 147.176 53.9972 147.44C53.9972 147.648 54.0692 147.812 54.2132 147.932C54.3572 148.052 54.5332 148.14 54.7412 148.196C54.9572 148.252 55.2572 148.316 55.6412 148.388C56.1532 148.476 56.5652 148.572 56.8772 148.676C57.1972 148.772 57.4692 148.94 57.6932 149.18C57.9172 149.42 58.0292 149.756 58.0292 150.188C58.0292 150.764 57.7812 151.224 57.2852 151.568C56.7972 151.904 56.1292 152.072 55.2812 152.072ZM65.469 145.64V154.328H64.317V151.04C64.053 151.376 63.729 151.632 63.345 151.808C62.969 151.984 62.553 152.072 62.097 152.072C61.481 152.072 60.929 151.936 60.441 151.664C59.953 151.392 59.569 151.012 59.289 150.524C59.017 150.028 58.881 149.46 58.881 148.82C58.881 148.18 59.017 147.616 59.289 147.128C59.569 146.64 59.953 146.26 60.441 145.988C60.929 145.716 61.481 145.58 62.097 145.58C62.569 145.58 63.001 145.672 63.393 145.856C63.785 146.032 64.109 146.296 64.365 146.648V145.64H65.469ZM62.193 151.064C62.593 151.064 62.957 150.972 63.285 150.788C63.613 150.596 63.869 150.332 64.053 149.996C64.237 149.652 64.329 149.26 64.329 148.82C64.329 148.38 64.233 147.992 64.041 147.656C63.857 147.32 63.601 147.06 63.273 146.876C62.953 146.684 62.593 146.588 62.193 146.588C61.785 146.588 61.417 146.68 61.089 146.864C60.769 147.048 60.513 147.312 60.321 147.656C60.137 147.992 60.045 148.38 60.045 148.82C60.045 149.26 60.137 149.652 60.321 149.996C60.513 150.332 60.769 150.596 61.089 150.788C61.417 150.972 61.785 151.064 62.193 151.064ZM73.5766 145.64V152H72.4846V151.04C72.2526 151.368 71.9446 151.624 71.5606 151.808C71.1846 151.984 70.7726 152.072 70.3246 152.072C69.4766 152.072 68.8086 151.84 68.3206 151.376C67.8326 150.904 67.5886 150.212 67.5886 149.3V145.64H68.7406V149.168C68.7406 149.784 68.8886 150.252 69.1846 150.572C69.4806 150.884 69.9046 151.04 70.4566 151.04C71.0646 151.04 71.5446 150.856 71.8966 150.488C72.2486 150.12 72.4246 149.6 72.4246 148.928V145.64H73.5766ZM75.7697 145.64H76.9217V152H75.7697V145.64ZM76.3457 144.416C76.1217 144.416 75.9337 144.344 75.7817 144.2C75.6377 144.056 75.5657 143.88 75.5657 143.672C75.5657 143.464 75.6377 143.288 75.7817 143.144C75.9337 142.992 76.1217 142.916 76.3457 142.916C76.5697 142.916 76.7537 142.988 76.8977 143.132C77.0497 143.268 77.1257 143.44 77.1257 143.648C77.1257 143.864 77.0497 144.048 76.8977 144.2C76.7537 144.344 76.5697 144.416 76.3457 144.416ZM82.5173 145.58C83.3253 145.58 83.9653 145.816 84.4373 146.288C84.9173 146.752 85.1573 147.436 85.1573 148.34V152H84.0053V148.472C84.0053 147.856 83.8573 147.392 83.5613 147.08C83.2653 146.768 82.8413 146.612 82.2893 146.612C81.6653 146.612 81.1733 146.796 80.8133 147.164C80.4533 147.524 80.2733 148.044 80.2733 148.724V152H79.1213V145.64H80.2253V146.6C80.4573 146.272 80.7693 146.02 81.1613 145.844C81.5613 145.668 82.0133 145.58 82.5173 145.58ZM89.6053 145.58C90.4853 145.58 91.1573 145.796 91.6213 146.228C92.0933 146.66 92.3293 147.304 92.3293 148.16V152H91.2373V151.16C91.0453 151.456 90.7693 151.684 90.4093 151.844C90.0573 151.996 89.6373 152.072 89.1493 152.072C88.4373 152.072 87.8653 151.9 87.4333 151.556C87.0093 151.212 86.7973 150.76 86.7973 150.2C86.7973 149.64 87.0013 149.192 87.4093 148.856C87.8173 148.512 88.4653 148.34 89.3533 148.34H91.1773V148.112C91.1773 147.616 91.0333 147.236 90.7453 146.972C90.4573 146.708 90.0333 146.576 89.4733 146.576C89.0973 146.576 88.7293 146.64 88.3693 146.768C88.0093 146.888 87.7053 147.052 87.4573 147.26L86.9773 146.396C87.3053 146.132 87.6973 145.932 88.1533 145.796C88.6093 145.652 89.0933 145.58 89.6053 145.58ZM89.3413 151.184C89.7813 151.184 90.1613 151.088 90.4813 150.896C90.8013 150.696 91.0333 150.416 91.1773 150.056V149.168H89.4013C88.4253 149.168 87.9373 149.496 87.9373 150.152C87.9373 150.472 88.0613 150.724 88.3093 150.908C88.5573 151.092 88.9013 151.184 89.3413 151.184ZM100.408 152.072C99.7758 152.072 99.2078 151.932 98.7038 151.652C98.1998 151.372 97.8038 150.988 97.5158 150.5C97.2358 150.004 97.0958 149.444 97.0958 148.82C97.0958 148.196 97.2358 147.64 97.5158 147.152C97.8038 146.656 98.1998 146.272 98.7038 146C99.2078 145.72 99.7758 145.58 100.408 145.58C101.04 145.58 101.604 145.72 102.1 146C102.604 146.272 102.996 146.656 103.276 147.152C103.564 147.64 103.708 148.196 103.708 148.82C103.708 149.444 103.564 150.004 103.276 150.5C102.996 150.988 102.604 151.372 102.1 151.652C101.604 151.932 101.04 152.072 100.408 152.072ZM100.408 151.064C100.816 151.064 101.18 150.972 101.5 150.788C101.828 150.596 102.084 150.332 102.268 149.996C102.452 149.652 102.544 149.26 102.544 148.82C102.544 148.38 102.452 147.992 102.268 147.656C102.084 147.312 101.828 147.048 101.5 146.864C101.18 146.68 100.816 146.588 100.408 146.588C99.9998 146.588 99.6318 146.68 99.3038 146.864C98.9838 147.048 98.7278 147.312 98.5358 147.656C98.3518 147.992 98.2598 148.38 98.2598 148.82C98.2598 149.26 98.3518 149.652 98.5358 149.996C98.7278 150.332 98.9838 150.596 99.3038 150.788C99.6318 150.972 99.9998 151.064 100.408 151.064ZM108.673 145.58C109.289 145.58 109.841 145.716 110.329 145.988C110.817 146.26 111.197 146.64 111.469 147.128C111.749 147.616 111.889 148.18 111.889 148.82C111.889 149.46 111.749 150.028 111.469 150.524C111.197 151.012 110.817 151.392 110.329 151.664C109.841 151.936 109.289 152.072 108.673 152.072C108.217 152.072 107.797 151.984 107.413 151.808C107.037 151.632 106.717 151.376 106.453 151.04V154.328H105.301V145.64H106.405V146.648C106.661 146.296 106.985 146.032 107.377 145.856C107.769 145.672 108.201 145.58 108.673 145.58ZM108.577 151.064C108.985 151.064 109.349 150.972 109.669 150.788C109.997 150.596 110.253 150.332 110.437 149.996C110.629 149.652 110.725 149.26 110.725 148.82C110.725 148.38 110.629 147.992 110.437 147.656C110.253 147.312 109.997 147.048 109.669 146.864C109.349 146.68 108.985 146.588 108.577 146.588C108.177 146.588 107.813 146.684 107.485 146.876C107.165 147.06 106.909 147.32 106.717 147.656C106.533 147.992 106.441 148.38 106.441 148.82C106.441 149.26 106.533 149.652 106.717 149.996C106.901 150.332 107.157 150.596 107.485 150.788C107.813 150.972 108.177 151.064 108.577 151.064ZM119.409 145.64V152H118.317V151.04C118.085 151.368 117.777 151.624 117.393 151.808C117.017 151.984 116.605 152.072 116.157 152.072C115.309 152.072 114.641 151.84 114.153 151.376C113.665 150.904 113.421 150.212 113.421 149.3V145.64H114.573V149.168C114.573 149.784 114.721 150.252 115.017 150.572C115.313 150.884 115.737 151.04 116.289 151.04C116.897 151.04 117.377 150.856 117.729 150.488C118.081 150.12 118.257 149.6 118.257 148.928V145.64H119.409ZM127.35 148.856C127.35 148.944 127.342 149.06 127.326 149.204H122.166C122.238 149.764 122.482 150.216 122.898 150.56C123.322 150.896 123.846 151.064 124.47 151.064C125.23 151.064 125.842 150.808 126.306 150.296L126.942 151.04C126.654 151.376 126.294 151.632 125.862 151.808C125.438 151.984 124.962 152.072 124.434 152.072C123.762 152.072 123.166 151.936 122.646 151.664C122.126 151.384 121.722 150.996 121.434 150.5C121.154 150.004 121.014 149.444 121.014 148.82C121.014 148.204 121.15 147.648 121.422 147.152C121.702 146.656 122.082 146.272 122.562 146C123.05 145.72 123.598 145.58 124.206 145.58C124.814 145.58 125.354 145.72 125.826 146C126.306 146.272 126.678 146.656 126.942 147.152C127.214 147.648 127.35 148.216 127.35 148.856ZM124.206 146.552C123.654 146.552 123.19 146.72 122.814 147.056C122.446 147.392 122.23 147.832 122.166 148.376H126.246C126.182 147.84 125.962 147.404 125.586 147.068C125.218 146.724 124.758 146.552 124.206 146.552ZM130.773 152.072C130.253 152.072 129.753 152.004 129.273 151.868C128.793 151.724 128.417 151.544 128.145 151.328L128.625 150.416C128.905 150.616 129.245 150.776 129.645 150.896C130.045 151.016 130.449 151.076 130.857 151.076C131.865 151.076 132.369 150.788 132.369 150.212C132.369 150.02 132.301 149.868 132.165 149.756C132.029 149.644 131.857 149.564 131.649 149.516C131.449 149.46 131.161 149.4 130.785 149.336C130.273 149.256 129.853 149.164 129.525 149.06C129.205 148.956 128.929 148.78 128.697 148.532C128.465 148.284 128.349 147.936 128.349 147.488C128.349 146.912 128.589 146.452 129.069 146.108C129.549 145.756 130.193 145.58 131.001 145.58C131.425 145.58 131.849 145.632 132.273 145.736C132.697 145.84 133.045 145.98 133.317 146.156L132.825 147.068C132.305 146.732 131.693 146.564 130.989 146.564C130.501 146.564 130.129 146.644 129.873 146.804C129.617 146.964 129.489 147.176 129.489 147.44C129.489 147.648 129.561 147.812 129.705 147.932C129.849 148.052 130.025 148.14 130.233 148.196C130.449 148.252 130.749 148.316 131.133 148.388C131.645 148.476 132.057 148.572 132.369 148.676C132.689 148.772 132.961 148.94 133.185 149.18C133.409 149.42 133.521 149.756 133.521 150.188C133.521 150.764 133.273 151.224 132.777 151.568C132.289 151.904 131.621 152.072 130.773 152.072ZM138.537 151.628C138.369 151.772 138.161 151.884 137.913 151.964C137.665 152.036 137.409 152.072 137.145 152.072C136.505 152.072 136.009 151.9 135.657 151.556C135.305 151.212 135.129 150.72 135.129 150.08V146.588H134.049V145.64H135.129V144.248H136.281V145.64H138.105V146.588H136.281V150.032C136.281 150.376 136.365 150.64 136.533 150.824C136.709 151.008 136.957 151.1 137.277 151.1C137.629 151.1 137.929 151 138.177 150.8L138.537 151.628ZM142.246 145.58C143.126 145.58 143.798 145.796 144.262 146.228C144.734 146.66 144.97 147.304 144.97 148.16V152H143.878V151.16C143.686 151.456 143.41 151.684 143.05 151.844C142.698 151.996 142.278 152.072 141.79 152.072C141.078 152.072 140.506 151.9 140.074 151.556C139.65 151.212 139.438 150.76 139.438 150.2C139.438 149.64 139.642 149.192 140.05 148.856C140.458 148.512 141.106 148.34 141.994 148.34H143.818V148.112C143.818 147.616 143.674 147.236 143.386 146.972C143.098 146.708 142.674 146.576 142.114 146.576C141.738 146.576 141.37 146.64 141.01 146.768C140.65 146.888 140.346 147.052 140.098 147.26L139.618 146.396C139.946 146.132 140.338 145.932 140.794 145.796C141.25 145.652 141.734 145.58 142.246 145.58ZM141.982 151.184C142.422 151.184 142.802 151.088 143.122 150.896C143.442 150.696 143.674 150.416 143.818 150.056V149.168H142.042C141.066 149.168 140.578 149.496 140.578 150.152C140.578 150.472 140.702 150.724 140.95 150.908C141.198 151.092 141.542 151.184 141.982 151.184ZM147.378 152.072C147.154 152.072 146.962 151.996 146.802 151.844C146.642 151.684 146.562 151.484 146.562 151.244C146.562 151.012 146.642 150.82 146.802 150.668C146.962 150.508 147.154 150.428 147.378 150.428C147.602 150.428 147.79 150.504 147.942 150.656C148.094 150.808 148.17 151.004 148.17 151.244C148.17 151.484 148.09 151.684 147.93 151.844C147.778 151.996 147.594 152.072 147.378 152.072Z" fill="#008E86"/>
<path d="M45 55L90 10L135 55L124 66L56 66L45 55Z" fill="#00D8CC" stroke="#00635D" stroke-width="2" stroke-linejoin="round"/>
<path d="M56 44L124 44" stroke="#333333" stroke-width="2" stroke-dasharray="4 6"/>
<path opacity="0.25" d="M45 55L135 55" stroke="#333333" stroke-width="2"/>
<path opacity="0.25" d="M66 34H114" stroke="#333333" stroke-width="2"/>
<path opacity="0.25" d="M76 24H104" stroke="#333333" stroke-width="2"/>
<path d="M67 55L56 66H124L113 55H67Z" fill="#008E86" stroke="#00635D" stroke-width="2" stroke-linejoin="round"/>
<path d="M101 66L112 55L68 55L79 66L101 66Z" fill="#00D8CC" stroke="#00635D" stroke-width="2" stroke-linejoin="round"/>
<path d="M90 55L101 66L79 66L90 55Z" fill="#008E86" stroke="#00635D" stroke-width="2" stroke-linejoin="round"/>
<path opacity="0.25" d="M90 11V66" stroke="#333333" stroke-width="2"/>
<path opacity="0.25" d="M56 44L124 44" stroke="#333333" stroke-width="2"/>
<path d="M86.0124 61.9999C86.5646 61.9931 87.0068 61.5398 86.9999 60.9876L86.8883 51.9883C86.8814 51.436 86.4282 50.9939 85.876 51.0008C85.3237 51.0076 84.8816 51.4609 84.8884 52.0131L84.9877 60.0125L76.9883 60.1117C76.436 60.1186 75.9939 60.5718 76.0008 61.124C76.0076 61.6763 76.4609 62.1184 77.0131 62.1116L86.0124 61.9999ZM86.6983 29.7158C87.0936 29.3302 87.1015 28.6971 86.7158 28.3017C86.3302 27.9064 85.6971 27.8985 85.3017 28.2842L86.6983 29.7158ZM86.6983 60.2842C82.0828 55.7818 80 50.4146 80 45.0669L78 45.0669C78 50.9661 80.3094 56.8458 85.3017 61.7158L86.6983 60.2842ZM80 45.0669C80 42.4456 80.8381 39.4112 82.123 36.595C83.4073 33.7802 85.0931 31.2817 86.6983 29.7158L85.3017 28.2842C83.4755 30.0656 81.6613 32.7888 80.3035 35.7648C78.9462 38.7395 78 42.0649 78 45.0669L80 45.0669Z" fill="black"/>
</g>
<defs>
<clipPath id="clip0_5698_199256">
<rect width="180" height="180" rx="20" fill="white"/>
</clipPath>
<clipPath id="clip1_5698_199256">
<path d="M0 30L-1.31134e-06 0L30 -1.31134e-06L30 10C30 21.0457 21.0457 30 10 30L0 30Z" fill="white"/>
</clipPath>
</defs>
</svg>
