<svg width="180" height="180" viewBox="0 0 180 180" fill="none" xmlns="http://www.w3.org/2000/svg">
<g clip-path="url(#clip0_5706_201366)">
<rect width="180" height="180" rx="20" fill="#F2F2F2"/>

<path d="M37.3596 120.6H40.8996C41.7876 120.6 42.5756 120.776 43.2636 121.128C43.9516 121.48 44.4836 121.976 44.8596 122.616C45.2436 123.248 45.4356 123.976 45.4356 124.8C45.4356 125.624 45.2436 126.356 44.8596 126.996C44.4836 127.628 43.9516 128.12 43.2636 128.472C42.5756 128.824 41.7876 129 40.8996 129H37.3596V120.6ZM40.8276 127.956C41.5076 127.956 42.1036 127.824 42.6156 127.56C43.1356 127.296 43.5356 126.928 43.8156 126.456C44.0956 125.976 44.2356 125.424 44.2356 124.8C44.2356 124.176 44.0956 123.628 43.8156 123.156C43.5356 122.676 43.1356 122.304 42.6156 122.04C42.1036 121.776 41.5076 121.644 40.8276 121.644H38.5596V127.956H40.8276ZM49.8297 129.072C49.1977 129.072 48.6297 128.932 48.1257 128.652C47.6217 128.372 47.2257 127.988 46.9377 127.5C46.6577 127.004 46.5177 126.444 46.5177 125.82C46.5177 125.196 46.6577 124.64 46.9377 124.152C47.2257 123.656 47.6217 123.272 48.1257 123C48.6297 122.72 49.1977 122.58 49.8297 122.58C50.4617 122.58 51.0257 122.72 51.5217 123C52.0257 123.272 52.4177 123.656 52.6977 124.152C52.9857 124.64 53.1297 125.196 53.1297 125.82C53.1297 126.444 52.9857 127.004 52.6977 127.5C52.4177 127.988 52.0257 128.372 51.5217 128.652C51.0257 128.932 50.4617 129.072 49.8297 129.072ZM49.8297 128.064C50.2377 128.064 50.6017 127.972 50.9217 127.788C51.2497 127.596 51.5057 127.332 51.6897 126.996C51.8737 126.652 51.9657 126.26 51.9657 125.82C51.9657 125.38 51.8737 124.992 51.6897 124.656C51.5057 124.312 51.2497 124.048 50.9217 123.864C50.6017 123.68 50.2377 123.588 49.8297 123.588C49.4217 123.588 49.0537 123.68 48.7257 123.864C48.4057 124.048 48.1497 124.312 47.9577 124.656C47.7737 124.992 47.6817 125.38 47.6817 125.82C47.6817 126.26 47.7737 126.652 47.9577 126.996C48.1497 127.332 48.4057 127.596 48.7257 127.788C49.0537 127.972 49.4217 128.064 49.8297 128.064ZM58.0949 122.58C58.7109 122.58 59.2629 122.716 59.7509 122.988C60.2389 123.26 60.6189 123.64 60.8909 124.128C61.1709 124.616 61.3109 125.18 61.3109 125.82C61.3109 126.46 61.1709 127.028 60.8909 127.524C60.6189 128.012 60.2389 128.392 59.7509 128.664C59.2629 128.936 58.7109 129.072 58.0949 129.072C57.6229 129.072 57.1909 128.98 56.7989 128.796C56.4069 128.612 56.0829 128.344 55.8269 127.992V129H54.7229V120.096H55.8749V123.6C56.1309 123.264 56.4509 123.012 56.8349 122.844C57.2189 122.668 57.6389 122.58 58.0949 122.58ZM57.9989 128.064C58.4069 128.064 58.7709 127.972 59.0909 127.788C59.4189 127.596 59.6749 127.332 59.8589 126.996C60.0509 126.652 60.1469 126.26 60.1469 125.82C60.1469 125.38 60.0509 124.992 59.8589 124.656C59.6749 124.312 59.4189 124.048 59.0909 123.864C58.7709 123.68 58.4069 123.588 57.9989 123.588C57.5989 123.588 57.2349 123.68 56.9069 123.864C56.5789 124.048 56.3229 124.312 56.1389 124.656C55.9549 124.992 55.8629 125.38 55.8629 125.82C55.8629 126.26 55.9549 126.652 56.1389 126.996C56.3229 127.332 56.5789 127.596 56.9069 127.788C57.2349 127.972 57.5989 128.064 57.9989 128.064ZM62.9025 120.096H64.0545V129H62.9025V120.096ZM68.5701 122.58C69.4501 122.58 70.1221 122.796 70.5861 123.228C71.0581 123.66 71.2941 124.304 71.2941 125.16V129H70.2021V128.16C70.0101 128.456 69.7341 128.684 69.3741 128.844C69.0221 128.996 68.6021 129.072 68.1141 129.072C67.4021 129.072 66.8301 128.9 66.3981 128.556C65.9741 128.212 65.7621 127.76 65.7621 127.2C65.7621 126.64 65.9661 126.192 66.3741 125.856C66.7821 125.512 67.4301 125.34 68.3181 125.34H70.1421V125.112C70.1421 124.616 69.9981 124.236 69.7101 123.972C69.4221 123.708 68.9981 123.576 68.4381 123.576C68.0621 123.576 67.6941 123.64 67.3341 123.768C66.9741 123.888 66.6701 124.052 66.4221 124.26L65.9421 123.396C66.2701 123.132 66.6621 122.932 67.1181 122.796C67.5741 122.652 68.0581 122.58 68.5701 122.58ZM68.3061 128.184C68.7461 128.184 69.1261 128.088 69.4461 127.896C69.7661 127.696 69.9981 127.416 70.1421 127.056V126.168H68.3661C67.3901 126.168 66.9021 126.496 66.9021 127.152C66.9021 127.472 67.0261 127.724 67.2741 127.908C67.5221 128.092 67.8661 128.184 68.3061 128.184ZM76.6486 120.096H77.8006V129H76.6486V120.096ZM82.3162 122.58C83.1962 122.58 83.8682 122.796 84.3322 123.228C84.8042 123.66 85.0402 124.304 85.0402 125.16V129H83.9482V128.16C83.7562 128.456 83.4802 128.684 83.1202 128.844C82.7682 128.996 82.3482 129.072 81.8602 129.072C81.1482 129.072 80.5762 128.9 80.1442 128.556C79.7202 128.212 79.5082 127.76 79.5082 127.2C79.5082 126.64 79.7122 126.192 80.1202 125.856C80.5282 125.512 81.1762 125.34 82.0642 125.34H83.8882V125.112C83.8882 124.616 83.7442 124.236 83.4562 123.972C83.1682 123.708 82.7442 123.576 82.1842 123.576C81.8082 123.576 81.4402 123.64 81.0802 123.768C80.7202 123.888 80.4162 124.052 80.1682 124.26L79.6882 123.396C80.0162 123.132 80.4082 122.932 80.8642 122.796C81.3202 122.652 81.8042 122.58 82.3162 122.58ZM82.0522 128.184C82.4922 128.184 82.8722 128.088 83.1922 127.896C83.5122 127.696 83.7442 127.416 83.8882 127.056V126.168H82.1122C81.1362 126.168 80.6482 126.496 80.6482 127.152C80.6482 127.472 80.7722 127.724 81.0202 127.908C81.2682 128.092 81.6122 128.184 82.0522 128.184ZM93.7667 122.58C94.3827 122.58 94.9347 122.716 95.4227 122.988C95.9107 123.26 96.2907 123.64 96.5627 124.128C96.8427 124.616 96.9827 125.18 96.9827 125.82C96.9827 126.46 96.8427 127.028 96.5627 127.524C96.2907 128.012 95.9107 128.392 95.4227 128.664C94.9347 128.936 94.3827 129.072 93.7667 129.072C93.3107 129.072 92.8907 128.984 92.5067 128.808C92.1307 128.632 91.8107 128.376 91.5467 128.04V131.328H90.3947V122.64H91.4987V123.648C91.7547 123.296 92.0787 123.032 92.4707 122.856C92.8627 122.672 93.2947 122.58 93.7667 122.58ZM93.6707 128.064C94.0787 128.064 94.4427 127.972 94.7627 127.788C95.0907 127.596 95.3467 127.332 95.5307 126.996C95.7227 126.652 95.8187 126.26 95.8187 125.82C95.8187 125.38 95.7227 124.992 95.5307 124.656C95.3467 124.312 95.0907 124.048 94.7627 123.864C94.4427 123.68 94.0787 123.588 93.6707 123.588C93.2707 123.588 92.9067 123.684 92.5787 123.876C92.2587 124.06 92.0027 124.32 91.8107 124.656C91.6267 124.992 91.5347 125.38 91.5347 125.82C91.5347 126.26 91.6267 126.652 91.8107 126.996C91.9947 127.332 92.2507 127.596 92.5787 127.788C92.9067 127.972 93.2707 128.064 93.6707 128.064ZM100.832 122.58C101.712 122.58 102.384 122.796 102.848 123.228C103.32 123.66 103.556 124.304 103.556 125.16V129H102.464V128.16C102.272 128.456 101.996 128.684 101.636 128.844C101.284 128.996 100.864 129.072 100.376 129.072C99.6638 129.072 99.0918 128.9 98.6598 128.556C98.2358 128.212 98.0238 127.76 98.0238 127.2C98.0238 126.64 98.2278 126.192 98.6358 125.856C99.0438 125.512 99.6918 125.34 100.58 125.34H102.404V125.112C102.404 124.616 102.26 124.236 101.972 123.972C101.684 123.708 101.26 123.576 100.7 123.576C100.324 123.576 99.9558 123.64 99.5958 123.768C99.2358 123.888 98.9318 124.052 98.6838 124.26L98.2038 123.396C98.5318 123.132 98.9238 122.932 99.3798 122.796C99.8358 122.652 100.32 122.58 100.832 122.58ZM100.568 128.184C101.008 128.184 101.388 128.088 101.708 127.896C102.028 127.696 102.26 127.416 102.404 127.056V126.168H100.628C99.6518 126.168 99.1638 126.496 99.1638 127.152C99.1638 127.472 99.2878 127.724 99.5358 127.908C99.7838 128.092 100.128 128.184 100.568 128.184ZM106.792 123.708C106.992 123.34 107.288 123.06 107.68 122.868C108.072 122.676 108.548 122.58 109.108 122.58V123.696C109.044 123.688 108.956 123.684 108.844 123.684C108.22 123.684 107.728 123.872 107.368 124.248C107.016 124.616 106.84 125.144 106.84 125.832V129H105.688V122.64H106.792V123.708ZM114.361 128.628C114.193 128.772 113.985 128.884 113.737 128.964C113.489 129.036 113.233 129.072 112.969 129.072C112.329 129.072 111.833 128.9 111.481 128.556C111.129 128.212 110.953 127.72 110.953 127.08V123.588H109.873V122.64H110.953V121.248H112.105V122.64H113.929V123.588H112.105V127.032C112.105 127.376 112.189 127.64 112.357 127.824C112.533 128.008 112.781 128.1 113.101 128.1C113.453 128.1 113.753 128 114.001 127.8L114.361 128.628ZM121.291 125.856C121.291 125.944 121.283 126.06 121.267 126.204H116.107C116.179 126.764 116.423 127.216 116.839 127.56C117.263 127.896 117.787 128.064 118.411 128.064C119.171 128.064 119.783 127.808 120.247 127.296L120.883 128.04C120.595 128.376 120.235 128.632 119.803 128.808C119.379 128.984 118.903 129.072 118.375 129.072C117.703 129.072 117.107 128.936 116.587 128.664C116.067 128.384 115.663 127.996 115.375 127.5C115.095 127.004 114.955 126.444 114.955 125.82C114.955 125.204 115.091 124.648 115.363 124.152C115.643 123.656 116.023 123.272 116.503 123C116.991 122.72 117.539 122.58 118.147 122.58C118.755 122.58 119.295 122.72 119.767 123C120.247 123.272 120.619 123.656 120.883 124.152C121.155 124.648 121.291 125.216 121.291 125.856ZM118.147 123.552C117.595 123.552 117.131 123.72 116.755 124.056C116.387 124.392 116.171 124.832 116.107 125.376H120.187C120.123 124.84 119.903 124.404 119.527 124.068C119.159 123.724 118.699 123.552 118.147 123.552ZM132.113 120.096V129H131.009V127.992C130.753 128.344 130.429 128.612 130.037 128.796C129.645 128.98 129.213 129.072 128.741 129.072C128.125 129.072 127.573 128.936 127.085 128.664C126.597 128.392 126.213 128.012 125.933 127.524C125.661 127.028 125.525 126.46 125.525 125.82C125.525 125.18 125.661 124.616 125.933 124.128C126.213 123.64 126.597 123.26 127.085 122.988C127.573 122.716 128.125 122.58 128.741 122.58C129.197 122.58 129.617 122.668 130.001 122.844C130.385 123.012 130.705 123.264 130.961 123.6V120.096H132.113ZM128.837 128.064C129.237 128.064 129.601 127.972 129.929 127.788C130.257 127.596 130.513 127.332 130.697 126.996C130.881 126.652 130.973 126.26 130.973 125.82C130.973 125.38 130.881 124.992 130.697 124.656C130.513 124.312 130.257 124.048 129.929 123.864C129.601 123.68 129.237 123.588 128.837 123.588C128.429 123.588 128.061 123.68 127.733 123.864C127.413 124.048 127.157 124.312 126.965 124.656C126.781 124.992 126.689 125.38 126.689 125.82C126.689 126.26 126.781 126.652 126.965 126.996C127.157 127.332 127.413 127.596 127.733 127.788C128.061 127.972 128.429 128.064 128.837 128.064ZM140.041 125.856C140.041 125.944 140.033 126.06 140.017 126.204H134.857C134.929 126.764 135.173 127.216 135.589 127.56C136.013 127.896 136.537 128.064 137.161 128.064C137.921 128.064 138.533 127.808 138.997 127.296L139.633 128.04C139.345 128.376 138.985 128.632 138.553 128.808C138.129 128.984 137.653 129.072 137.125 129.072C136.453 129.072 135.857 128.936 135.337 128.664C134.817 128.384 134.413 127.996 134.125 127.5C133.845 127.004 133.705 126.444 133.705 125.82C133.705 125.204 133.841 124.648 134.113 124.152C134.393 123.656 134.773 123.272 135.253 123C135.741 122.72 136.289 122.58 136.897 122.58C137.505 122.58 138.045 122.72 138.517 123C138.997 123.272 139.369 123.656 139.633 124.152C139.905 124.648 140.041 125.216 140.041 125.856ZM136.897 123.552C136.345 123.552 135.881 123.72 135.505 124.056C135.137 124.392 134.921 124.832 134.857 125.376H138.937C138.873 124.84 138.653 124.404 138.277 124.068C137.909 123.724 137.449 123.552 136.897 123.552ZM141.641 120.096H142.793V129H141.641V120.096ZM63.9425 137.58C64.5585 137.58 65.1105 137.716 65.5985 137.988C66.0865 138.26 66.4665 138.64 66.7385 139.128C67.0185 139.616 67.1585 140.18 67.1585 140.82C67.1585 141.46 67.0185 142.028 66.7385 142.524C66.4665 143.012 66.0865 143.392 65.5985 143.664C65.1105 143.936 64.5585 144.072 63.9425 144.072C63.4865 144.072 63.0665 143.984 62.6825 143.808C62.3065 143.632 61.9865 143.376 61.7225 143.04V146.328H60.5705V137.64H61.6745V138.648C61.9305 138.296 62.2545 138.032 62.6465 137.856C63.0385 137.672 63.4705 137.58 63.9425 137.58ZM63.8465 143.064C64.2545 143.064 64.6185 142.972 64.9385 142.788C65.2665 142.596 65.5225 142.332 65.7065 141.996C65.8985 141.652 65.9945 141.26 65.9945 140.82C65.9945 140.38 65.8985 139.992 65.7065 139.656C65.5225 139.312 65.2665 139.048 64.9385 138.864C64.6185 138.68 64.2545 138.588 63.8465 138.588C63.4465 138.588 63.0825 138.684 62.7545 138.876C62.4345 139.06 62.1785 139.32 61.9865 139.656C61.8025 139.992 61.7105 140.38 61.7105 140.82C61.7105 141.26 61.8025 141.652 61.9865 141.996C62.1705 142.332 62.4265 142.596 62.7545 142.788C63.0825 142.972 63.4465 143.064 63.8465 143.064ZM71.0076 137.58C71.8876 137.58 72.5596 137.796 73.0236 138.228C73.4956 138.66 73.7316 139.304 73.7316 140.16V144H72.6396V143.16C72.4476 143.456 72.1716 143.684 71.8116 143.844C71.4596 143.996 71.0396 144.072 70.5516 144.072C69.8396 144.072 69.2676 143.9 68.8356 143.556C68.4116 143.212 68.1996 142.76 68.1996 142.2C68.1996 141.64 68.4036 141.192 68.8116 140.856C69.2196 140.512 69.8676 140.34 70.7556 140.34H72.5796V140.112C72.5796 139.616 72.4356 139.236 72.1476 138.972C71.8596 138.708 71.4356 138.576 70.8756 138.576C70.4996 138.576 70.1316 138.64 69.7716 138.768C69.4116 138.888 69.1076 139.052 68.8596 139.26L68.3796 138.396C68.7076 138.132 69.0996 137.932 69.5556 137.796C70.0116 137.652 70.4956 137.58 71.0076 137.58ZM70.7436 143.184C71.1836 143.184 71.5636 143.088 71.8836 142.896C72.2036 142.696 72.4356 142.416 72.5796 142.056V141.168H70.8036C69.8276 141.168 69.3396 141.496 69.3396 142.152C69.3396 142.472 69.4636 142.724 69.7116 142.908C69.9596 143.092 70.3036 143.184 70.7436 143.184ZM79.2355 137.58C79.8515 137.58 80.4035 137.716 80.8915 137.988C81.3795 138.26 81.7595 138.64 82.0315 139.128C82.3115 139.616 82.4515 140.18 82.4515 140.82C82.4515 141.46 82.3115 142.028 82.0315 142.524C81.7595 143.012 81.3795 143.392 80.8915 143.664C80.4035 143.936 79.8515 144.072 79.2355 144.072C78.7795 144.072 78.3595 143.984 77.9755 143.808C77.5995 143.632 77.2795 143.376 77.0155 143.04V146.328H75.8635V137.64H76.9675V138.648C77.2235 138.296 77.5475 138.032 77.9395 137.856C78.3315 137.672 78.7635 137.58 79.2355 137.58ZM79.1395 143.064C79.5475 143.064 79.9115 142.972 80.2315 142.788C80.5595 142.596 80.8155 142.332 80.9995 141.996C81.1915 141.652 81.2875 141.26 81.2875 140.82C81.2875 140.38 81.1915 139.992 80.9995 139.656C80.8155 139.312 80.5595 139.048 80.2315 138.864C79.9115 138.68 79.5475 138.588 79.1395 138.588C78.7395 138.588 78.3755 138.684 78.0475 138.876C77.7275 139.06 77.4715 139.32 77.2795 139.656C77.0955 139.992 77.0035 140.38 77.0035 140.82C77.0035 141.26 77.0955 141.652 77.2795 141.996C77.4635 142.332 77.7195 142.596 78.0475 142.788C78.3755 142.972 78.7395 143.064 79.1395 143.064ZM89.7912 140.856C89.7912 140.944 89.7832 141.06 89.7672 141.204H84.6072C84.6792 141.764 84.9232 142.216 85.3392 142.56C85.7632 142.896 86.2872 143.064 86.9112 143.064C87.6712 143.064 88.2832 142.808 88.7472 142.296L89.3832 143.04C89.0952 143.376 88.7352 143.632 88.3032 143.808C87.8792 143.984 87.4032 144.072 86.8752 144.072C86.2032 144.072 85.6072 143.936 85.0872 143.664C84.5672 143.384 84.1632 142.996 83.8752 142.5C83.5952 142.004 83.4552 141.444 83.4552 140.82C83.4552 140.204 83.5912 139.648 83.8632 139.152C84.1432 138.656 84.5232 138.272 85.0032 138C85.4912 137.72 86.0392 137.58 86.6472 137.58C87.2552 137.58 87.7952 137.72 88.2672 138C88.7472 138.272 89.1192 138.656 89.3832 139.152C89.6552 139.648 89.7912 140.216 89.7912 140.856ZM86.6472 138.552C86.0952 138.552 85.6312 138.72 85.2552 139.056C84.8872 139.392 84.6712 139.832 84.6072 140.376H88.6872C88.6232 139.84 88.4032 139.404 88.0272 139.068C87.6592 138.724 87.1992 138.552 86.6472 138.552ZM91.3908 135.096H92.5428V144H91.3908V135.096ZM103.965 137.64V146.328H102.813V143.04C102.549 143.376 102.225 143.632 101.841 143.808C101.465 143.984 101.049 144.072 100.593 144.072C99.977 144.072 99.425 143.936 98.937 143.664C98.449 143.392 98.065 143.012 97.785 142.524C97.513 142.028 97.377 141.46 97.377 140.82C97.377 140.18 97.513 139.616 97.785 139.128C98.065 138.64 98.449 138.26 98.937 137.988C99.425 137.716 99.977 137.58 100.593 137.58C101.065 137.58 101.497 137.672 101.889 137.856C102.281 138.032 102.605 138.296 102.861 138.648V137.64H103.965ZM100.689 143.064C101.089 143.064 101.453 142.972 101.781 142.788C102.109 142.596 102.365 142.332 102.549 141.996C102.733 141.652 102.825 141.26 102.825 140.82C102.825 140.38 102.729 139.992 102.537 139.656C102.353 139.32 102.097 139.06 101.769 138.876C101.449 138.684 101.089 138.588 100.689 138.588C100.281 138.588 99.913 138.68 99.585 138.864C99.265 139.048 99.009 139.312 98.817 139.656C98.633 139.992 98.541 140.38 98.541 140.82C98.541 141.26 98.633 141.652 98.817 141.996C99.009 142.332 99.265 142.596 99.585 142.788C99.913 142.972 100.281 143.064 100.689 143.064ZM112.073 137.64V144H110.981V143.04C110.749 143.368 110.441 143.624 110.057 143.808C109.681 143.984 109.269 144.072 108.821 144.072C107.973 144.072 107.305 143.84 106.817 143.376C106.329 142.904 106.085 142.212 106.085 141.3V137.64H107.237V141.168C107.237 141.784 107.385 142.252 107.681 142.572C107.977 142.884 108.401 143.04 108.953 143.04C109.561 143.04 110.041 142.856 110.393 142.488C110.745 142.12 110.921 141.6 110.921 140.928V137.64H112.073ZM120.014 140.856C120.014 140.944 120.006 141.06 119.99 141.204H114.83C114.902 141.764 115.146 142.216 115.562 142.56C115.986 142.896 116.51 143.064 117.134 143.064C117.894 143.064 118.506 142.808 118.97 142.296L119.606 143.04C119.318 143.376 118.958 143.632 118.526 143.808C118.102 143.984 117.626 144.072 117.098 144.072C116.426 144.072 115.83 143.936 115.31 143.664C114.79 143.384 114.386 142.996 114.098 142.5C113.818 142.004 113.678 141.444 113.678 140.82C113.678 140.204 113.814 139.648 114.086 139.152C114.366 138.656 114.746 138.272 115.226 138C115.714 137.72 116.262 137.58 116.87 137.58C117.478 137.58 118.018 137.72 118.49 138C118.97 138.272 119.342 138.656 119.606 139.152C119.878 139.648 120.014 140.216 120.014 140.856ZM116.87 138.552C116.318 138.552 115.854 138.72 115.478 139.056C115.11 139.392 114.894 139.832 114.83 140.376H118.91C118.846 139.84 118.626 139.404 118.25 139.068C117.882 138.724 117.422 138.552 116.87 138.552ZM25.3738 159.072C24.7258 159.072 24.1458 158.932 23.6338 158.652C23.1298 158.372 22.7338 157.988 22.4458 157.5C22.1578 157.004 22.0138 156.444 22.0138 155.82C22.0138 155.196 22.1578 154.64 22.4458 154.152C22.7338 153.656 23.1298 153.272 23.6338 153C24.1458 152.72 24.7258 152.58 25.3738 152.58C25.9498 152.58 26.4618 152.696 26.9098 152.928C27.3658 153.16 27.7178 153.496 27.9658 153.936L27.0898 154.5C26.8898 154.196 26.6418 153.968 26.3458 153.816C26.0498 153.664 25.7218 153.588 25.3618 153.588C24.9458 153.588 24.5698 153.68 24.2338 153.864C23.9058 154.048 23.6458 154.312 23.4538 154.656C23.2698 154.992 23.1778 155.38 23.1778 155.82C23.1778 156.268 23.2698 156.664 23.4538 157.008C23.6458 157.344 23.9058 157.604 24.2338 157.788C24.5698 157.972 24.9458 158.064 25.3618 158.064C25.7218 158.064 26.0498 157.988 26.3458 157.836C26.6418 157.684 26.8898 157.456 27.0898 157.152L27.9658 157.704C27.7178 158.144 27.3658 158.484 26.9098 158.724C26.4618 158.956 25.9498 159.072 25.3738 159.072ZM32.0875 159.072C31.4555 159.072 30.8875 158.932 30.3835 158.652C29.8795 158.372 29.4835 157.988 29.1955 157.5C28.9155 157.004 28.7755 156.444 28.7755 155.82C28.7755 155.196 28.9155 154.64 29.1955 154.152C29.4835 153.656 29.8795 153.272 30.3835 153C30.8875 152.72 31.4555 152.58 32.0875 152.58C32.7195 152.58 33.2835 152.72 33.7795 153C34.2835 153.272 34.6755 153.656 34.9555 154.152C35.2435 154.64 35.3875 155.196 35.3875 155.82C35.3875 156.444 35.2435 157.004 34.9555 157.5C34.6755 157.988 34.2835 158.372 33.7795 158.652C33.2835 158.932 32.7195 159.072 32.0875 159.072ZM32.0875 158.064C32.4955 158.064 32.8595 157.972 33.1795 157.788C33.5075 157.596 33.7635 157.332 33.9475 156.996C34.1315 156.652 34.2235 156.26 34.2235 155.82C34.2235 155.38 34.1315 154.992 33.9475 154.656C33.7635 154.312 33.5075 154.048 33.1795 153.864C32.8595 153.68 32.4955 153.588 32.0875 153.588C31.6795 153.588 31.3115 153.68 30.9835 153.864C30.6635 154.048 30.4075 154.312 30.2155 154.656C30.0315 154.992 29.9395 155.38 29.9395 155.82C29.9395 156.26 30.0315 156.652 30.2155 156.996C30.4075 157.332 30.6635 157.596 30.9835 157.788C31.3115 157.972 31.6795 158.064 32.0875 158.064ZM38.0847 153.708C38.2847 153.34 38.5807 153.06 38.9727 152.868C39.3647 152.676 39.8407 152.58 40.4007 152.58V153.696C40.3367 153.688 40.2487 153.684 40.1367 153.684C39.5127 153.684 39.0207 153.872 38.6607 154.248C38.3087 154.616 38.1327 155.144 38.1327 155.832V159H36.9807V152.64H38.0847V153.708ZM42.9245 153.708C43.1245 153.34 43.4205 153.06 43.8125 152.868C44.2045 152.676 44.6805 152.58 45.2405 152.58V153.696C45.1765 153.688 45.0885 153.684 44.9765 153.684C44.3525 153.684 43.8605 153.872 43.5005 154.248C43.1485 154.616 42.9725 155.144 42.9725 155.832V159H41.8205V152.64H42.9245V153.708ZM52.3498 155.856C52.3498 155.944 52.3418 156.06 52.3258 156.204H47.1658C47.2378 156.764 47.4818 157.216 47.8978 157.56C48.3218 157.896 48.8458 158.064 49.4698 158.064C50.2298 158.064 50.8418 157.808 51.3058 157.296L51.9418 158.04C51.6538 158.376 51.2938 158.632 50.8618 158.808C50.4378 158.984 49.9618 159.072 49.4338 159.072C48.7618 159.072 48.1658 158.936 47.6458 158.664C47.1258 158.384 46.7218 157.996 46.4338 157.5C46.1538 157.004 46.0138 156.444 46.0138 155.82C46.0138 155.204 46.1498 154.648 46.4218 154.152C46.7018 153.656 47.0818 153.272 47.5618 153C48.0498 152.72 48.5978 152.58 49.2058 152.58C49.8138 152.58 50.3538 152.72 50.8258 153C51.3058 153.272 51.6778 153.656 51.9418 154.152C52.2138 154.648 52.3498 155.216 52.3498 155.856ZM49.2058 153.552C48.6538 153.552 48.1898 153.72 47.8138 154.056C47.4458 154.392 47.2298 154.832 47.1658 155.376H51.2458C51.1818 154.84 50.9618 154.404 50.5858 154.068C50.2178 153.724 49.7578 153.552 49.2058 153.552ZM55.7734 159.072C55.2534 159.072 54.7534 159.004 54.2734 158.868C53.7934 158.724 53.4174 158.544 53.1454 158.328L53.6254 157.416C53.9054 157.616 54.2454 157.776 54.6454 157.896C55.0454 158.016 55.4494 158.076 55.8574 158.076C56.8654 158.076 57.3694 157.788 57.3694 157.212C57.3694 157.02 57.3014 156.868 57.1654 156.756C57.0294 156.644 56.8574 156.564 56.6494 156.516C56.4494 156.46 56.1614 156.4 55.7854 156.336C55.2734 156.256 54.8534 156.164 54.5254 156.06C54.2054 155.956 53.9294 155.78 53.6974 155.532C53.4654 155.284 53.3494 154.936 53.3494 154.488C53.3494 153.912 53.5894 153.452 54.0694 153.108C54.5494 152.756 55.1934 152.58 56.0014 152.58C56.4254 152.58 56.8494 152.632 57.2734 152.736C57.6974 152.84 58.0454 152.98 58.3174 153.156L57.8254 154.068C57.3054 153.732 56.6934 153.564 55.9894 153.564C55.5014 153.564 55.1294 153.644 54.8734 153.804C54.6174 153.964 54.4894 154.176 54.4894 154.44C54.4894 154.648 54.5614 154.812 54.7054 154.932C54.8494 155.052 55.0254 155.14 55.2334 155.196C55.4494 155.252 55.7494 155.316 56.1334 155.388C56.6454 155.476 57.0574 155.572 57.3694 155.676C57.6894 155.772 57.9614 155.94 58.1854 156.18C58.4094 156.42 58.5214 156.756 58.5214 157.188C58.5214 157.764 58.2734 158.224 57.7774 158.568C57.2894 158.904 56.6214 159.072 55.7734 159.072ZM63.3331 152.58C63.9491 152.58 64.5011 152.716 64.9891 152.988C65.4771 153.26 65.8571 153.64 66.1291 154.128C66.4091 154.616 66.5491 155.18 66.5491 155.82C66.5491 156.46 66.4091 157.028 66.1291 157.524C65.8571 158.012 65.4771 158.392 64.9891 158.664C64.5011 158.936 63.9491 159.072 63.3331 159.072C62.8771 159.072 62.4571 158.984 62.0731 158.808C61.6971 158.632 61.3771 158.376 61.1131 158.04V161.328H59.9611V152.64H61.0651V153.648C61.3211 153.296 61.6451 153.032 62.0371 152.856C62.4291 152.672 62.8611 152.58 63.3331 152.58ZM63.2371 158.064C63.6451 158.064 64.0091 157.972 64.3291 157.788C64.6571 157.596 64.9131 157.332 65.0971 156.996C65.2891 156.652 65.3851 156.26 65.3851 155.82C65.3851 155.38 65.2891 154.992 65.0971 154.656C64.9131 154.312 64.6571 154.048 64.3291 153.864C64.0091 153.68 63.6451 153.588 63.2371 153.588C62.8371 153.588 62.4731 153.684 62.1451 153.876C61.8251 154.06 61.5691 154.32 61.3771 154.656C61.1931 154.992 61.1011 155.38 61.1011 155.82C61.1011 156.26 61.1931 156.652 61.3771 156.996C61.5611 157.332 61.8171 157.596 62.1451 157.788C62.4731 157.972 62.8371 158.064 63.2371 158.064ZM70.8648 159.072C70.2328 159.072 69.6648 158.932 69.1608 158.652C68.6568 158.372 68.2608 157.988 67.9728 157.5C67.6928 157.004 67.5528 156.444 67.5528 155.82C67.5528 155.196 67.6928 154.64 67.9728 154.152C68.2608 153.656 68.6568 153.272 69.1608 153C69.6648 152.72 70.2328 152.58 70.8648 152.58C71.4968 152.58 72.0608 152.72 72.5568 153C73.0608 153.272 73.4528 153.656 73.7328 154.152C74.0208 154.64 74.1648 155.196 74.1648 155.82C74.1648 156.444 74.0208 157.004 73.7328 157.5C73.4528 157.988 73.0608 158.372 72.5568 158.652C72.0608 158.932 71.4968 159.072 70.8648 159.072ZM70.8648 158.064C71.2728 158.064 71.6368 157.972 71.9568 157.788C72.2848 157.596 72.5408 157.332 72.7248 156.996C72.9088 156.652 73.0008 156.26 73.0008 155.82C73.0008 155.38 72.9088 154.992 72.7248 154.656C72.5408 154.312 72.2848 154.048 71.9568 153.864C71.6368 153.68 71.2728 153.588 70.8648 153.588C70.4568 153.588 70.0888 153.68 69.7608 153.864C69.4408 154.048 69.1848 154.312 68.9928 154.656C68.8088 154.992 68.7168 155.38 68.7168 155.82C68.7168 156.26 68.8088 156.652 68.9928 156.996C69.1848 157.332 69.4408 157.596 69.7608 157.788C70.0888 157.972 70.4568 158.064 70.8648 158.064ZM79.154 152.58C79.962 152.58 80.602 152.816 81.074 153.288C81.554 153.752 81.794 154.436 81.794 155.34V159H80.642V155.472C80.642 154.856 80.494 154.392 80.198 154.08C79.902 153.768 79.478 153.612 78.926 153.612C78.302 153.612 77.81 153.796 77.45 154.164C77.09 154.524 76.91 155.044 76.91 155.724V159H75.758V152.64H76.862V153.6C77.094 153.272 77.406 153.02 77.798 152.844C78.198 152.668 78.65 152.58 79.154 152.58ZM89.9611 150.096V159H88.8571V157.992C88.6011 158.344 88.2771 158.612 87.8851 158.796C87.4931 158.98 87.0611 159.072 86.5891 159.072C85.9731 159.072 85.4211 158.936 84.9331 158.664C84.4451 158.392 84.0611 158.012 83.7811 157.524C83.5091 157.028 83.3731 156.46 83.3731 155.82C83.3731 155.18 83.5091 154.616 83.7811 154.128C84.0611 153.64 84.4451 153.26 84.9331 152.988C85.4211 152.716 85.9731 152.58 86.5891 152.58C87.0451 152.58 87.4651 152.668 87.8491 152.844C88.2331 153.012 88.5531 153.264 88.8091 153.6V150.096H89.9611ZM86.6851 158.064C87.0851 158.064 87.4491 157.972 87.7771 157.788C88.1051 157.596 88.3611 157.332 88.5451 156.996C88.7291 156.652 88.8211 156.26 88.8211 155.82C88.8211 155.38 88.7291 154.992 88.5451 154.656C88.3611 154.312 88.1051 154.048 87.7771 153.864C87.4491 153.68 87.0851 153.588 86.6851 153.588C86.2771 153.588 85.9091 153.68 85.5811 153.864C85.2611 154.048 85.0051 154.312 84.8131 154.656C84.6291 154.992 84.5371 155.38 84.5371 155.82C84.5371 156.26 84.6291 156.652 84.8131 156.996C85.0051 157.332 85.2611 157.596 85.5811 157.788C85.9091 157.972 86.2771 158.064 86.6851 158.064ZM97.8888 155.856C97.8888 155.944 97.8808 156.06 97.8648 156.204H92.7048C92.7768 156.764 93.0208 157.216 93.4368 157.56C93.8608 157.896 94.3848 158.064 95.0088 158.064C95.7688 158.064 96.3808 157.808 96.8448 157.296L97.4808 158.04C97.1928 158.376 96.8328 158.632 96.4008 158.808C95.9768 158.984 95.5008 159.072 94.9728 159.072C94.3008 159.072 93.7048 158.936 93.1848 158.664C92.6648 158.384 92.2608 157.996 91.9728 157.5C91.6928 157.004 91.5528 156.444 91.5528 155.82C91.5528 155.204 91.6888 154.648 91.9608 154.152C92.2408 153.656 92.6208 153.272 93.1008 153C93.5888 152.72 94.1368 152.58 94.7448 152.58C95.3528 152.58 95.8928 152.72 96.3648 153C96.8448 153.272 97.2168 153.656 97.4808 154.152C97.7528 154.648 97.8888 155.216 97.8888 155.856ZM94.7448 153.552C94.1928 153.552 93.7288 153.72 93.3528 154.056C92.9848 154.392 92.7688 154.832 92.7048 155.376H96.7848C96.7208 154.84 96.5008 154.404 96.1248 154.068C95.7568 153.724 95.2968 153.552 94.7448 153.552ZM105.027 152.58C105.907 152.58 106.579 152.796 107.043 153.228C107.515 153.66 107.751 154.304 107.751 155.16V159H106.659V158.16C106.467 158.456 106.191 158.684 105.831 158.844C105.479 158.996 105.059 159.072 104.571 159.072C103.859 159.072 103.287 158.9 102.855 158.556C102.431 158.212 102.219 157.76 102.219 157.2C102.219 156.64 102.423 156.192 102.831 155.856C103.239 155.512 103.887 155.34 104.775 155.34H106.599V155.112C106.599 154.616 106.455 154.236 106.167 153.972C105.879 153.708 105.455 153.576 104.895 153.576C104.519 153.576 104.151 153.64 103.791 153.768C103.431 153.888 103.127 154.052 102.879 154.26L102.399 153.396C102.727 153.132 103.119 152.932 103.575 152.796C104.031 152.652 104.515 152.58 105.027 152.58ZM104.763 158.184C105.203 158.184 105.583 158.088 105.903 157.896C106.223 157.696 106.455 157.416 106.599 157.056V156.168H104.823C103.847 156.168 103.359 156.496 103.359 157.152C103.359 157.472 103.483 157.724 103.731 157.908C103.979 158.092 104.323 158.184 104.763 158.184ZM113.106 150.096H114.258V159H113.106V150.096ZM118.773 152.58C119.653 152.58 120.325 152.796 120.789 153.228C121.261 153.66 121.497 154.304 121.497 155.16V159H120.405V158.16C120.213 158.456 119.937 158.684 119.577 158.844C119.225 158.996 118.805 159.072 118.317 159.072C117.605 159.072 117.033 158.9 116.601 158.556C116.177 158.212 115.965 157.76 115.965 157.2C115.965 156.64 116.169 156.192 116.577 155.856C116.985 155.512 117.633 155.34 118.521 155.34H120.345V155.112C120.345 154.616 120.201 154.236 119.913 153.972C119.625 153.708 119.201 153.576 118.641 153.576C118.265 153.576 117.897 153.64 117.537 153.768C117.177 153.888 116.873 154.052 116.625 154.26L116.145 153.396C116.473 153.132 116.865 152.932 117.321 152.796C117.777 152.652 118.261 152.58 118.773 152.58ZM118.509 158.184C118.949 158.184 119.329 158.088 119.649 157.896C119.969 157.696 120.201 157.416 120.345 157.056V156.168H118.569C117.593 156.168 117.105 156.496 117.105 157.152C117.105 157.472 117.229 157.724 117.477 157.908C117.725 158.092 118.069 158.184 118.509 158.184ZM129.168 152.58C130.048 152.58 130.72 152.796 131.184 153.228C131.656 153.66 131.892 154.304 131.892 155.16V159H130.8V158.16C130.608 158.456 130.332 158.684 129.972 158.844C129.62 158.996 129.2 159.072 128.712 159.072C128 159.072 127.428 158.9 126.996 158.556C126.572 158.212 126.36 157.76 126.36 157.2C126.36 156.64 126.564 156.192 126.972 155.856C127.38 155.512 128.028 155.34 128.916 155.34H130.74V155.112C130.74 154.616 130.596 154.236 130.308 153.972C130.02 153.708 129.596 153.576 129.036 153.576C128.66 153.576 128.292 153.64 127.932 153.768C127.572 153.888 127.268 154.052 127.02 154.26L126.54 153.396C126.868 153.132 127.26 152.932 127.716 152.796C128.172 152.652 128.656 152.58 129.168 152.58ZM128.904 158.184C129.344 158.184 129.724 158.088 130.044 157.896C130.364 157.696 130.596 157.416 130.74 157.056V156.168H128.964C127.988 156.168 127.5 156.496 127.5 157.152C127.5 157.472 127.624 157.724 127.872 157.908C128.12 158.092 128.464 158.184 128.904 158.184ZM134.024 150.096H135.176V159H134.024V150.096ZM143.123 155.856C143.123 155.944 143.115 156.06 143.099 156.204H137.939C138.011 156.764 138.255 157.216 138.671 157.56C139.095 157.896 139.619 158.064 140.243 158.064C141.003 158.064 141.615 157.808 142.079 157.296L142.715 158.04C142.427 158.376 142.067 158.632 141.635 158.808C141.211 158.984 140.735 159.072 140.207 159.072C139.535 159.072 138.939 158.936 138.419 158.664C137.899 158.384 137.495 157.996 137.207 157.5C136.927 157.004 136.787 156.444 136.787 155.82C136.787 155.204 136.923 154.648 137.195 154.152C137.475 153.656 137.855 153.272 138.335 153C138.823 152.72 139.371 152.58 139.979 152.58C140.587 152.58 141.127 152.72 141.599 153C142.079 153.272 142.451 153.656 142.715 154.152C142.987 154.648 143.123 155.216 143.123 155.856ZM139.979 153.552C139.427 153.552 138.963 153.72 138.587 154.056C138.219 154.392 138.003 154.832 137.939 155.376H142.019C141.955 154.84 141.735 154.404 141.359 154.068C140.991 153.724 140.531 153.552 139.979 153.552ZM148.299 158.628C148.131 158.772 147.923 158.884 147.675 158.964C147.427 159.036 147.171 159.072 146.907 159.072C146.267 159.072 145.771 158.9 145.419 158.556C145.067 158.212 144.891 157.72 144.891 157.08V153.588H143.811V152.64H144.891V151.248H146.043V152.64H147.867V153.588H146.043V157.032C146.043 157.376 146.127 157.64 146.295 157.824C146.471 158.008 146.719 158.1 147.039 158.1C147.391 158.1 147.691 158 147.939 157.8L148.299 158.628ZM152.008 152.58C152.888 152.58 153.56 152.796 154.024 153.228C154.496 153.66 154.732 154.304 154.732 155.16V159H153.64V158.16C153.448 158.456 153.172 158.684 152.812 158.844C152.46 158.996 152.04 159.072 151.552 159.072C150.84 159.072 150.268 158.9 149.836 158.556C149.412 158.212 149.2 157.76 149.2 157.2C149.2 156.64 149.404 156.192 149.812 155.856C150.22 155.512 150.868 155.34 151.756 155.34H153.58V155.112C153.58 154.616 153.436 154.236 153.148 153.972C152.86 153.708 152.436 153.576 151.876 153.576C151.5 153.576 151.132 153.64 150.772 153.768C150.412 153.888 150.108 154.052 149.86 154.26L149.38 153.396C149.708 153.132 150.1 152.932 150.556 152.796C151.012 152.652 151.496 152.58 152.008 152.58ZM151.744 158.184C152.184 158.184 152.564 158.088 152.884 157.896C153.204 157.696 153.436 157.416 153.58 157.056V156.168H151.804C150.828 156.168 150.34 156.496 150.34 157.152C150.34 157.472 150.464 157.724 150.712 157.908C150.96 158.092 151.304 158.184 151.744 158.184ZM157.139 159.072C156.915 159.072 156.723 158.996 156.563 158.844C156.403 158.684 156.323 158.484 156.323 158.244C156.323 158.012 156.403 157.82 156.563 157.668C156.723 157.508 156.915 157.428 157.139 157.428C157.363 157.428 157.551 157.504 157.703 157.656C157.855 157.808 157.931 158.004 157.931 158.244C157.931 158.484 157.851 158.684 157.691 158.844C157.539 158.996 157.355 159.072 157.139 159.072Z" fill="#008E86"/>
<path d="M47.3604 68.1577L62.2488 39.9423L51.5367 31.9308L53.2355 24.9349L72.4377 24.2671L81.0621 39.9423L78.7108 75.2116L66.9544 84.6167L47.3604 68.1577Z" fill="#008E86" stroke="#00635D" stroke-width="2" stroke-linejoin="round"/>
<path d="M62.2493 39.9423L51.5372 31.9308L53.236 24.9349L69.2263 26.0367L62.2493 39.9423Z" fill="#00D8CC" stroke="#00635D" stroke-width="2" stroke-linejoin="round"/>
<path d="M62.2484 39.9421L53.9437 33.4652L57.3397 27.0978L69.2254 26.0366L62.2484 39.9421Z" fill="#008E86" stroke="#00635D" stroke-width="2" stroke-linejoin="round"/>
<path d="M64.6011 41.5098L70.8712 28.1858L57.1553 27.0102L54.0203 33.6722L64.6011 41.5098Z" fill="#00D8CC" stroke="#00635D" stroke-width="2" stroke-linejoin="round"/>
<path d="M52.847 67.3741L70.8704 28.186L81.0593 39.9424L78.7111 75.2117L52.847 67.3741Z" fill="#008E86" stroke="#00635D" stroke-width="2" stroke-linejoin="round"/>
<path d="M53.3214 67.345L71.0235 28.8557L81.0307 40.4025L78.7243 75.0429L53.3214 67.345Z" fill="#008E86" stroke="#00635D" stroke-width="2" stroke-linejoin="round"/>
<path d="M71.7962 60.4169L150.314 85.82L77.9545 85.8199L71.7962 60.4169Z" fill="#008E86" stroke="#00635D" stroke-width="2" stroke-linejoin="round"/>
<path d="M53.3208 67.3452L71.7958 60.4169L101.047 90.4388L67.177 84.2805L53.3208 67.3452Z" fill="#008E86" stroke="#00635D" stroke-width="2" stroke-linejoin="round"/>
<path d="M81.0322 87.36L71.7948 61.1873" stroke="#333333" stroke-width="2" stroke-dasharray="4 6"/>
<path d="M95.6329 76.6166C95.7381 76.0744 96.2629 75.7202 96.8051 75.8254C97.3473 75.9306 97.7015 76.4554 97.5962 76.9976L95.6329 76.6166ZM61.6456 91.7668C61.419 91.2632 61.6434 90.6711 62.1471 90.4444L70.354 86.7503C70.8576 86.5236 71.4496 86.7481 71.6763 87.2517C71.903 87.7553 71.6785 88.3473 71.1749 88.574L63.8799 91.8577L67.1636 99.1527C67.3903 99.6564 67.1658 100.248 66.6622 100.475C66.1585 100.702 65.5665 100.477 65.3398 99.9737L61.6456 91.7668ZM97.5962 76.9976C96.125 84.5781 91.6412 90.1037 85.2813 92.8638C78.9457 95.6133 70.86 95.574 62.203 92.2914L62.9121 90.4213C71.2039 93.5654 78.7351 93.5244 84.4851 91.0291C90.2107 88.5443 94.281 83.5819 95.6329 76.6166L97.5962 76.9976Z" fill="black"/>
</g>
<defs>
<clipPath id="clip0_5706_201366">
<rect width="180" height="180" rx="20" fill="white"/>
</clipPath>
<clipPath id="clip1_5706_201366">
<path d="M0 30L-1.31134e-06 0L30 -1.31134e-06L30 10C30 21.0457 21.0457 30 10 30L0 30Z" fill="white"/>
</clipPath>
</defs>
</svg>
