<svg width="180" height="180" viewBox="0 0 180 180" fill="none" xmlns="http://www.w3.org/2000/svg">
<g clip-path="url(#clip0_5706_201388)">
<rect width="180" height="180" rx="20" fill="#F2F2F2"/>
<g clip-path="url(#clip1_5706_201388)">
<path d="M0 30L-1.31134e-06 0L30 -1.31134e-06L30 10C30 21.0457 21.0457 30 10 30L0 30Z" fill="#333333"/>
<path d="M12.0924 9.8V21H9.50044V11.88H7.26044V9.8H12.0924ZM22.4061 18.888V21H13.9421V19.32L18.2621 15.24C18.7207 14.8027 19.0301 14.4293 19.1901 14.12C19.3501 13.8 19.4301 13.4853 19.4301 13.176C19.4301 12.728 19.2754 12.3867 18.9661 12.152C18.6674 11.9067 18.2247 11.784 17.6381 11.784C17.1474 11.784 16.7047 11.88 16.3101 12.072C15.9154 12.2533 15.5847 12.5307 15.3181 12.904L13.4301 11.688C13.8674 11.0373 14.4701 10.5307 15.2381 10.168C16.0061 9.79467 16.8861 9.608 17.8781 9.608C18.7101 9.608 19.4354 9.74667 20.0541 10.024C20.6834 10.2907 21.1687 10.6747 21.5101 11.176C21.8621 11.6667 22.0381 12.248 22.0381 12.92C22.0381 13.528 21.9101 14.0987 21.6541 14.632C21.3981 15.1653 20.9021 15.7733 20.1661 16.456L17.5901 18.888H22.4061Z" fill="#F2F2F2"/>
</g>
<path d="M30.1057 120.6H33.6457C34.5337 120.6 35.3217 120.776 36.0097 121.128C36.6977 121.48 37.2297 121.976 37.6057 122.616C37.9897 123.248 38.1817 123.976 38.1817 124.8C38.1817 125.624 37.9897 126.356 37.6057 126.996C37.2297 127.628 36.6977 128.12 36.0097 128.472C35.3217 128.824 34.5337 129 33.6457 129H30.1057V120.6ZM33.5737 127.956C34.2537 127.956 34.8497 127.824 35.3617 127.56C35.8817 127.296 36.2817 126.928 36.5617 126.456C36.8417 125.976 36.9817 125.424 36.9817 124.8C36.9817 124.176 36.8417 123.628 36.5617 123.156C36.2817 122.676 35.8817 122.304 35.3617 122.04C34.8497 121.776 34.2537 121.644 33.5737 121.644H31.3057V127.956H33.5737ZM42.5758 129.072C41.9438 129.072 41.3758 128.932 40.8718 128.652C40.3678 128.372 39.9718 127.988 39.6838 127.5C39.4038 127.004 39.2638 126.444 39.2638 125.82C39.2638 125.196 39.4038 124.64 39.6838 124.152C39.9718 123.656 40.3678 123.272 40.8718 123C41.3758 122.72 41.9438 122.58 42.5758 122.58C43.2078 122.58 43.7718 122.72 44.2678 123C44.7718 123.272 45.1638 123.656 45.4438 124.152C45.7318 124.64 45.8758 125.196 45.8758 125.82C45.8758 126.444 45.7318 127.004 45.4438 127.5C45.1638 127.988 44.7718 128.372 44.2678 128.652C43.7718 128.932 43.2078 129.072 42.5758 129.072ZM42.5758 128.064C42.9838 128.064 43.3478 127.972 43.6678 127.788C43.9958 127.596 44.2518 127.332 44.4358 126.996C44.6198 126.652 44.7118 126.26 44.7118 125.82C44.7118 125.38 44.6198 124.992 44.4358 124.656C44.2518 124.312 43.9958 124.048 43.6678 123.864C43.3478 123.68 42.9838 123.588 42.5758 123.588C42.1678 123.588 41.7998 123.68 41.4718 123.864C41.1518 124.048 40.8958 124.312 40.7038 124.656C40.5198 124.992 40.4278 125.38 40.4278 125.82C40.4278 126.26 40.5198 126.652 40.7038 126.996C40.8958 127.332 41.1518 127.596 41.4718 127.788C41.7998 127.972 42.1678 128.064 42.5758 128.064ZM50.841 122.58C51.457 122.58 52.009 122.716 52.497 122.988C52.985 123.26 53.365 123.64 53.637 124.128C53.917 124.616 54.057 125.18 54.057 125.82C54.057 126.46 53.917 127.028 53.637 127.524C53.365 128.012 52.985 128.392 52.497 128.664C52.009 128.936 51.457 129.072 50.841 129.072C50.369 129.072 49.937 128.98 49.545 128.796C49.153 128.612 48.829 128.344 48.573 127.992V129H47.469V120.096H48.621V123.6C48.877 123.264 49.197 123.012 49.581 122.844C49.965 122.668 50.385 122.58 50.841 122.58ZM50.745 128.064C51.153 128.064 51.517 127.972 51.837 127.788C52.165 127.596 52.421 127.332 52.605 126.996C52.797 126.652 52.893 126.26 52.893 125.82C52.893 125.38 52.797 124.992 52.605 124.656C52.421 124.312 52.165 124.048 51.837 123.864C51.517 123.68 51.153 123.588 50.745 123.588C50.345 123.588 49.981 123.68 49.653 123.864C49.325 124.048 49.069 124.312 48.885 124.656C48.701 124.992 48.609 125.38 48.609 125.82C48.609 126.26 48.701 126.652 48.885 126.996C49.069 127.332 49.325 127.596 49.653 127.788C49.981 127.972 50.345 128.064 50.745 128.064ZM55.6486 120.096H56.8006V129H55.6486V120.096ZM61.3162 122.58C62.1962 122.58 62.8682 122.796 63.3322 123.228C63.8042 123.66 64.0402 124.304 64.0402 125.16V129H62.9482V128.16C62.7562 128.456 62.4802 128.684 62.1202 128.844C61.7682 128.996 61.3482 129.072 60.8602 129.072C60.1482 129.072 59.5762 128.9 59.1442 128.556C58.7202 128.212 58.5082 127.76 58.5082 127.2C58.5082 126.64 58.7122 126.192 59.1202 125.856C59.5282 125.512 60.1762 125.34 61.0642 125.34H62.8882V125.112C62.8882 124.616 62.7442 124.236 62.4562 123.972C62.1682 123.708 61.7442 123.576 61.1842 123.576C60.8082 123.576 60.4402 123.64 60.0802 123.768C59.7202 123.888 59.4162 124.052 59.1682 124.26L58.6882 123.396C59.0162 123.132 59.4082 122.932 59.8642 122.796C60.3202 122.652 60.8042 122.58 61.3162 122.58ZM61.0522 128.184C61.4922 128.184 61.8722 128.088 62.1922 127.896C62.5122 127.696 62.7442 127.416 62.8882 127.056V126.168H61.1122C60.1362 126.168 59.6482 126.496 59.6482 127.152C59.6482 127.472 59.7722 127.724 60.0202 127.908C60.2682 128.092 60.6122 128.184 61.0522 128.184ZM69.3947 120.096H70.5467V129H69.3947V120.096ZM75.0623 122.58C75.9423 122.58 76.6143 122.796 77.0783 123.228C77.5503 123.66 77.7863 124.304 77.7863 125.16V129H76.6943V128.16C76.5023 128.456 76.2263 128.684 75.8663 128.844C75.5143 128.996 75.0943 129.072 74.6063 129.072C73.8943 129.072 73.3223 128.9 72.8903 128.556C72.4663 128.212 72.2543 127.76 72.2543 127.2C72.2543 126.64 72.4583 126.192 72.8663 125.856C73.2743 125.512 73.9223 125.34 74.8103 125.34H76.6343V125.112C76.6343 124.616 76.4903 124.236 76.2023 123.972C75.9143 123.708 75.4903 123.576 74.9303 123.576C74.5543 123.576 74.1863 123.64 73.8263 123.768C73.4663 123.888 73.1623 124.052 72.9143 124.26L72.4343 123.396C72.7623 123.132 73.1543 122.932 73.6103 122.796C74.0663 122.652 74.5503 122.58 75.0623 122.58ZM74.7983 128.184C75.2383 128.184 75.6183 128.088 75.9383 127.896C76.2583 127.696 76.4903 127.416 76.6343 127.056V126.168H74.8583C73.8823 126.168 73.3943 126.496 73.3943 127.152C73.3943 127.472 73.5183 127.724 73.7663 127.908C74.0143 128.092 74.3583 128.184 74.7983 128.184ZM86.5128 122.58C87.1288 122.58 87.6808 122.716 88.1688 122.988C88.6568 123.26 89.0368 123.64 89.3088 124.128C89.5888 124.616 89.7288 125.18 89.7288 125.82C89.7288 126.46 89.5888 127.028 89.3088 127.524C89.0368 128.012 88.6568 128.392 88.1688 128.664C87.6808 128.936 87.1288 129.072 86.5128 129.072C86.0568 129.072 85.6368 128.984 85.2528 128.808C84.8768 128.632 84.5568 128.376 84.2928 128.04V131.328H83.1408V122.64H84.2448V123.648C84.5008 123.296 84.8248 123.032 85.2168 122.856C85.6088 122.672 86.0408 122.58 86.5128 122.58ZM86.4168 128.064C86.8248 128.064 87.1888 127.972 87.5088 127.788C87.8368 127.596 88.0928 127.332 88.2768 126.996C88.4688 126.652 88.5648 126.26 88.5648 125.82C88.5648 125.38 88.4688 124.992 88.2768 124.656C88.0928 124.312 87.8368 124.048 87.5088 123.864C87.1888 123.68 86.8248 123.588 86.4168 123.588C86.0168 123.588 85.6528 123.684 85.3248 123.876C85.0048 124.06 84.7488 124.32 84.5568 124.656C84.3728 124.992 84.2808 125.38 84.2808 125.82C84.2808 126.26 84.3728 126.652 84.5568 126.996C84.7408 127.332 84.9968 127.596 85.3248 127.788C85.6528 127.972 86.0168 128.064 86.4168 128.064ZM97.2485 122.64V129H96.1565V128.04C95.9245 128.368 95.6165 128.624 95.2325 128.808C94.8565 128.984 94.4445 129.072 93.9965 129.072C93.1485 129.072 92.4805 128.84 91.9925 128.376C91.5045 127.904 91.2605 127.212 91.2605 126.3V122.64H92.4125V126.168C92.4125 126.784 92.5605 127.252 92.8565 127.572C93.1525 127.884 93.5765 128.04 94.1285 128.04C94.7365 128.04 95.2165 127.856 95.5685 127.488C95.9205 127.12 96.0965 126.6 96.0965 125.928V122.64H97.2485ZM102.838 122.58C103.646 122.58 104.286 122.816 104.758 123.288C105.238 123.752 105.478 124.436 105.478 125.34V129H104.326V125.472C104.326 124.856 104.178 124.392 103.882 124.08C103.586 123.768 103.162 123.612 102.61 123.612C101.986 123.612 101.494 123.796 101.134 124.164C100.774 124.524 100.594 125.044 100.594 125.724V129H99.4416V122.64H100.546V123.6C100.778 123.272 101.09 123.02 101.482 122.844C101.882 122.668 102.334 122.58 102.838 122.58ZM111.186 128.628C111.018 128.772 110.81 128.884 110.562 128.964C110.314 129.036 110.058 129.072 109.794 129.072C109.154 129.072 108.658 128.9 108.306 128.556C107.954 128.212 107.778 127.72 107.778 127.08V123.588H106.698V122.64H107.778V121.248H108.93V122.64H110.754V123.588H108.93V127.032C108.93 127.376 109.014 127.64 109.182 127.824C109.358 128.008 109.606 128.1 109.926 128.1C110.278 128.1 110.578 128 110.826 127.8L111.186 128.628ZM114.894 122.58C115.774 122.58 116.446 122.796 116.91 123.228C117.382 123.66 117.618 124.304 117.618 125.16V129H116.526V128.16C116.334 128.456 116.058 128.684 115.698 128.844C115.346 128.996 114.926 129.072 114.438 129.072C113.726 129.072 113.154 128.9 112.722 128.556C112.298 128.212 112.086 127.76 112.086 127.2C112.086 126.64 112.29 126.192 112.698 125.856C113.106 125.512 113.754 125.34 114.642 125.34H116.466V125.112C116.466 124.616 116.322 124.236 116.034 123.972C115.746 123.708 115.322 123.576 114.762 123.576C114.386 123.576 114.018 123.64 113.658 123.768C113.298 123.888 112.994 124.052 112.746 124.26L112.266 123.396C112.594 123.132 112.986 122.932 113.442 122.796C113.898 122.652 114.382 122.58 114.894 122.58ZM114.63 128.184C115.07 128.184 115.45 128.088 115.77 127.896C116.09 127.696 116.322 127.416 116.466 127.056V126.168H114.69C113.714 126.168 113.226 126.496 113.226 127.152C113.226 127.472 113.35 127.724 113.598 127.908C113.846 128.092 114.19 128.184 114.63 128.184ZM128.973 120.096V129H127.869V127.992C127.613 128.344 127.289 128.612 126.897 128.796C126.505 128.98 126.073 129.072 125.601 129.072C124.985 129.072 124.433 128.936 123.945 128.664C123.457 128.392 123.073 128.012 122.793 127.524C122.521 127.028 122.385 126.46 122.385 125.82C122.385 125.18 122.521 124.616 122.793 124.128C123.073 123.64 123.457 123.26 123.945 122.988C124.433 122.716 124.985 122.58 125.601 122.58C126.057 122.58 126.477 122.668 126.861 122.844C127.245 123.012 127.565 123.264 127.821 123.6V120.096H128.973ZM125.697 128.064C126.097 128.064 126.461 127.972 126.789 127.788C127.117 127.596 127.373 127.332 127.557 126.996C127.741 126.652 127.833 126.26 127.833 125.82C127.833 125.38 127.741 124.992 127.557 124.656C127.373 124.312 127.117 124.048 126.789 123.864C126.461 123.68 126.097 123.588 125.697 123.588C125.289 123.588 124.921 123.68 124.593 123.864C124.273 124.048 124.017 124.312 123.825 124.656C123.641 124.992 123.549 125.38 123.549 125.82C123.549 126.26 123.641 126.652 123.825 126.996C124.017 127.332 124.273 127.596 124.593 127.788C124.921 127.972 125.289 128.064 125.697 128.064ZM136.901 125.856C136.901 125.944 136.893 126.06 136.877 126.204H131.717C131.789 126.764 132.033 127.216 132.449 127.56C132.873 127.896 133.397 128.064 134.021 128.064C134.781 128.064 135.393 127.808 135.857 127.296L136.493 128.04C136.205 128.376 135.845 128.632 135.413 128.808C134.989 128.984 134.513 129.072 133.985 129.072C133.313 129.072 132.717 128.936 132.197 128.664C131.677 128.384 131.273 127.996 130.985 127.5C130.705 127.004 130.565 126.444 130.565 125.82C130.565 125.204 130.701 124.648 130.973 124.152C131.253 123.656 131.633 123.272 132.113 123C132.601 122.72 133.149 122.58 133.757 122.58C134.365 122.58 134.905 122.72 135.377 123C135.857 123.272 136.229 123.656 136.493 124.152C136.765 124.648 136.901 125.216 136.901 125.856ZM133.757 123.552C133.205 123.552 132.741 123.72 132.365 124.056C131.997 124.392 131.781 124.832 131.717 125.376H135.797C135.733 124.84 135.513 124.404 135.137 124.068C134.769 123.724 134.309 123.552 133.757 123.552ZM141.723 120.096H142.875V129H141.723V120.096ZM147.39 122.58C148.27 122.58 148.942 122.796 149.406 123.228C149.878 123.66 150.114 124.304 150.114 125.16V129H149.022V128.16C148.83 128.456 148.554 128.684 148.194 128.844C147.842 128.996 147.422 129.072 146.934 129.072C146.222 129.072 145.65 128.9 145.218 128.556C144.794 128.212 144.582 127.76 144.582 127.2C144.582 126.64 144.786 126.192 145.194 125.856C145.602 125.512 146.25 125.34 147.138 125.34H148.962V125.112C148.962 124.616 148.818 124.236 148.53 123.972C148.242 123.708 147.818 123.576 147.258 123.576C146.882 123.576 146.514 123.64 146.154 123.768C145.794 123.888 145.49 124.052 145.242 124.26L144.762 123.396C145.09 123.132 145.482 122.932 145.938 122.796C146.394 122.652 146.878 122.58 147.39 122.58ZM147.126 128.184C147.566 128.184 147.946 128.088 148.266 127.896C148.586 127.696 148.818 127.416 148.962 127.056V126.168H147.186C146.21 126.168 145.722 126.496 145.722 127.152C145.722 127.472 145.846 127.724 146.094 127.908C146.342 128.092 146.686 128.184 147.126 128.184ZM25.7967 137.58C26.6767 137.58 27.3487 137.796 27.8127 138.228C28.2847 138.66 28.5207 139.304 28.5207 140.16V144H27.4287V143.16C27.2367 143.456 26.9607 143.684 26.6007 143.844C26.2487 143.996 25.8287 144.072 25.3407 144.072C24.6287 144.072 24.0567 143.9 23.6247 143.556C23.2007 143.212 22.9887 142.76 22.9887 142.2C22.9887 141.64 23.1927 141.192 23.6007 140.856C24.0087 140.512 24.6567 140.34 25.5447 140.34H27.3687V140.112C27.3687 139.616 27.2247 139.236 26.9367 138.972C26.6487 138.708 26.2247 138.576 25.6647 138.576C25.2887 138.576 24.9207 138.64 24.5607 138.768C24.2007 138.888 23.8967 139.052 23.6487 139.26L23.1687 138.396C23.4967 138.132 23.8887 137.932 24.3447 137.796C24.8007 137.652 25.2847 137.58 25.7967 137.58ZM25.5327 143.184C25.9727 143.184 26.3527 143.088 26.6727 142.896C26.9927 142.696 27.2247 142.416 27.3687 142.056V141.168H25.5927C24.6167 141.168 24.1287 141.496 24.1287 142.152C24.1287 142.472 24.2527 142.724 24.5007 142.908C24.7487 143.092 25.0927 143.184 25.5327 143.184ZM30.6525 135.096H31.8045V144H30.6525V135.096ZM39.7521 140.856C39.7521 140.944 39.7441 141.06 39.7281 141.204H34.5681C34.6401 141.764 34.8841 142.216 35.3001 142.56C35.7241 142.896 36.2481 143.064 36.8721 143.064C37.6321 143.064 38.2441 142.808 38.7081 142.296L39.3441 143.04C39.0561 143.376 38.6961 143.632 38.2641 143.808C37.8401 143.984 37.3641 144.072 36.8361 144.072C36.1641 144.072 35.5681 143.936 35.0481 143.664C34.5281 143.384 34.1241 142.996 33.8361 142.5C33.5561 142.004 33.4161 141.444 33.4161 140.82C33.4161 140.204 33.5521 139.648 33.8241 139.152C34.1041 138.656 34.4841 138.272 34.9641 138C35.4521 137.72 36.0001 137.58 36.6081 137.58C37.2161 137.58 37.7561 137.72 38.2281 138C38.7081 138.272 39.0801 138.656 39.3441 139.152C39.6161 139.648 39.7521 140.216 39.7521 140.856ZM36.6081 138.552C36.0561 138.552 35.5921 138.72 35.2161 139.056C34.8481 139.392 34.6321 139.832 34.5681 140.376H38.6481C38.5841 139.84 38.3641 139.404 37.9881 139.068C37.6201 138.724 37.1601 138.552 36.6081 138.552ZM44.9278 143.628C44.7598 143.772 44.5518 143.884 44.3038 143.964C44.0558 144.036 43.7998 144.072 43.5358 144.072C42.8958 144.072 42.3998 143.9 42.0478 143.556C41.6958 143.212 41.5198 142.72 41.5198 142.08V138.588H40.4398V137.64H41.5198V136.248H42.6718V137.64H44.4958V138.588H42.6718V142.032C42.6718 142.376 42.7558 142.64 42.9238 142.824C43.0998 143.008 43.3478 143.1 43.6678 143.1C44.0198 143.1 44.3198 143 44.5678 142.8L44.9278 143.628ZM48.6365 137.58C49.5165 137.58 50.1885 137.796 50.6525 138.228C51.1245 138.66 51.3605 139.304 51.3605 140.16V144H50.2685V143.16C50.0765 143.456 49.8005 143.684 49.4405 143.844C49.0885 143.996 48.6685 144.072 48.1805 144.072C47.4685 144.072 46.8965 143.9 46.4645 143.556C46.0405 143.212 45.8285 142.76 45.8285 142.2C45.8285 141.64 46.0325 141.192 46.4405 140.856C46.8485 140.512 47.4965 140.34 48.3845 140.34H50.2085V140.112C50.2085 139.616 50.0645 139.236 49.7765 138.972C49.4885 138.708 49.0645 138.576 48.5045 138.576C48.1285 138.576 47.7605 138.64 47.4005 138.768C47.0405 138.888 46.7365 139.052 46.4885 139.26L46.0085 138.396C46.3365 138.132 46.7285 137.932 47.1845 137.796C47.6405 137.652 48.1245 137.58 48.6365 137.58ZM48.3725 143.184C48.8125 143.184 49.1925 143.088 49.5125 142.896C49.8325 142.696 50.0645 142.416 50.2085 142.056V141.168H48.4325C47.4565 141.168 46.9685 141.496 46.9685 142.152C46.9685 142.472 47.0925 142.724 47.3405 142.908C47.5885 143.092 47.9325 143.184 48.3725 143.184ZM60.111 137.58C60.919 137.58 61.559 137.816 62.031 138.288C62.511 138.752 62.751 139.436 62.751 140.34V144H61.599V140.472C61.599 139.856 61.451 139.392 61.155 139.08C60.859 138.768 60.435 138.612 59.883 138.612C59.259 138.612 58.767 138.796 58.407 139.164C58.047 139.524 57.867 140.044 57.867 140.724V144H56.715V135.096H57.867V138.54C58.107 138.236 58.419 138 58.803 137.832C59.195 137.664 59.631 137.58 60.111 137.58ZM67.199 137.58C68.079 137.58 68.751 137.796 69.215 138.228C69.687 138.66 69.923 139.304 69.923 140.16V144H68.831V143.16C68.639 143.456 68.363 143.684 68.003 143.844C67.651 143.996 67.231 144.072 66.743 144.072C66.031 144.072 65.459 143.9 65.027 143.556C64.603 143.212 64.391 142.76 64.391 142.2C64.391 141.64 64.595 141.192 65.003 140.856C65.411 140.512 66.059 140.34 66.947 140.34H68.771V140.112C68.771 139.616 68.627 139.236 68.339 138.972C68.051 138.708 67.627 138.576 67.067 138.576C66.691 138.576 66.323 138.64 65.963 138.768C65.603 138.888 65.299 139.052 65.051 139.26L64.571 138.396C64.899 138.132 65.291 137.932 65.747 137.796C66.203 137.652 66.687 137.58 67.199 137.58ZM66.935 143.184C67.375 143.184 67.755 143.088 68.075 142.896C68.395 142.696 68.627 142.416 68.771 142.056V141.168H66.995C66.019 141.168 65.531 141.496 65.531 142.152C65.531 142.472 65.655 142.724 65.903 142.908C66.151 143.092 66.495 143.184 66.935 143.184ZM74.862 144.072C74.214 144.072 73.634 143.932 73.122 143.652C72.618 143.372 72.222 142.988 71.934 142.5C71.646 142.004 71.502 141.444 71.502 140.82C71.502 140.196 71.646 139.64 71.934 139.152C72.222 138.656 72.618 138.272 73.122 138C73.634 137.72 74.214 137.58 74.862 137.58C75.438 137.58 75.95 137.696 76.398 137.928C76.854 138.16 77.206 138.496 77.454 138.936L76.578 139.5C76.378 139.196 76.13 138.968 75.834 138.816C75.538 138.664 75.21 138.588 74.85 138.588C74.434 138.588 74.058 138.68 73.722 138.864C73.394 139.048 73.134 139.312 72.942 139.656C72.758 139.992 72.666 140.38 72.666 140.82C72.666 141.268 72.758 141.664 72.942 142.008C73.134 142.344 73.394 142.604 73.722 142.788C74.058 142.972 74.434 143.064 74.85 143.064C75.21 143.064 75.538 142.988 75.834 142.836C76.13 142.684 76.378 142.456 76.578 142.152L77.454 142.704C77.206 143.144 76.854 143.484 76.398 143.724C75.95 143.956 75.438 144.072 74.862 144.072ZM78.9455 137.64H80.0975V144H78.9455V137.64ZM79.5215 136.416C79.2975 136.416 79.1095 136.344 78.9575 136.2C78.8135 136.056 78.7415 135.88 78.7415 135.672C78.7415 135.464 78.8135 135.288 78.9575 135.144C79.1095 134.992 79.2975 134.916 79.5215 134.916C79.7455 134.916 79.9295 134.988 80.0735 135.132C80.2255 135.268 80.3015 135.44 80.3015 135.648C80.3015 135.864 80.2255 136.048 80.0735 136.2C79.9295 136.344 79.7455 136.416 79.5215 136.416ZM84.6131 137.58C85.4931 137.58 86.1651 137.796 86.6291 138.228C87.1011 138.66 87.3371 139.304 87.3371 140.16V144H86.2451V143.16C86.0531 143.456 85.7771 143.684 85.4171 143.844C85.0651 143.996 84.6451 144.072 84.1571 144.072C83.4451 144.072 82.8731 143.9 82.4411 143.556C82.0171 143.212 81.8051 142.76 81.8051 142.2C81.8051 141.64 82.0091 141.192 82.4171 140.856C82.8251 140.512 83.4731 140.34 84.3611 140.34H86.1851V140.112C86.1851 139.616 86.0411 139.236 85.7531 138.972C85.4651 138.708 85.0411 138.576 84.4811 138.576C84.1051 138.576 83.7371 138.64 83.3771 138.768C83.0171 138.888 82.7131 139.052 82.4651 139.26L81.9851 138.396C82.3131 138.132 82.7051 137.932 83.1611 137.796C83.6171 137.652 84.1011 137.58 84.6131 137.58ZM84.3491 143.184C84.7891 143.184 85.1691 143.088 85.4891 142.896C85.8091 142.696 86.0411 142.416 86.1851 142.056V141.168H84.4091C83.4331 141.168 82.9451 141.496 82.9451 142.152C82.9451 142.472 83.0691 142.724 83.3171 142.908C83.5651 143.092 83.9091 143.184 84.3491 143.184ZM95.0076 137.58C95.8876 137.58 96.5596 137.796 97.0236 138.228C97.4956 138.66 97.7316 139.304 97.7316 140.16V144H96.6396V143.16C96.4476 143.456 96.1716 143.684 95.8116 143.844C95.4596 143.996 95.0396 144.072 94.5516 144.072C93.8396 144.072 93.2676 143.9 92.8356 143.556C92.4116 143.212 92.1996 142.76 92.1996 142.2C92.1996 141.64 92.4036 141.192 92.8116 140.856C93.2196 140.512 93.8676 140.34 94.7556 140.34H96.5796V140.112C96.5796 139.616 96.4356 139.236 96.1476 138.972C95.8596 138.708 95.4356 138.576 94.8756 138.576C94.4996 138.576 94.1316 138.64 93.7716 138.768C93.4116 138.888 93.1076 139.052 92.8596 139.26L92.3796 138.396C92.7076 138.132 93.0996 137.932 93.5556 137.796C94.0116 137.652 94.4956 137.58 95.0076 137.58ZM94.7436 143.184C95.1836 143.184 95.5636 143.088 95.8836 142.896C96.2036 142.696 96.4356 142.416 96.5796 142.056V141.168H94.8036C93.8276 141.168 93.3396 141.496 93.3396 142.152C93.3396 142.472 93.4636 142.724 93.7116 142.908C93.9596 143.092 94.3036 143.184 94.7436 143.184ZM100.967 138.708C101.167 138.34 101.463 138.06 101.855 137.868C102.247 137.676 102.723 137.58 103.283 137.58V138.696C103.219 138.688 103.131 138.684 103.019 138.684C102.395 138.684 101.903 138.872 101.543 139.248C101.191 139.616 101.015 140.144 101.015 140.832V144H99.8635V137.64H100.967V138.708ZM105.807 138.708C106.007 138.34 106.303 138.06 106.695 137.868C107.087 137.676 107.563 137.58 108.123 137.58V138.696C108.059 138.688 107.971 138.684 107.859 138.684C107.235 138.684 106.743 138.872 106.383 139.248C106.031 139.616 105.855 140.144 105.855 140.832V144H104.703V137.64H105.807V138.708ZM109.543 137.64H110.695V144H109.543V137.64ZM110.119 136.416C109.895 136.416 109.707 136.344 109.555 136.2C109.411 136.056 109.339 135.88 109.339 135.672C109.339 135.464 109.411 135.288 109.555 135.144C109.707 134.992 109.895 134.916 110.119 134.916C110.343 134.916 110.527 134.988 110.671 135.132C110.823 135.268 110.899 135.44 110.899 135.648C110.899 135.864 110.823 136.048 110.671 136.2C110.527 136.344 110.343 136.416 110.119 136.416ZM116.267 137.58C116.883 137.58 117.435 137.716 117.923 137.988C118.411 138.26 118.791 138.64 119.063 139.128C119.343 139.616 119.483 140.18 119.483 140.82C119.483 141.46 119.343 142.028 119.063 142.524C118.791 143.012 118.411 143.392 117.923 143.664C117.435 143.936 116.883 144.072 116.267 144.072C115.795 144.072 115.363 143.98 114.971 143.796C114.579 143.612 114.255 143.344 113.999 142.992V144H112.895V135.096H114.047V138.6C114.303 138.264 114.623 138.012 115.007 137.844C115.391 137.668 115.811 137.58 116.267 137.58ZM116.171 143.064C116.579 143.064 116.943 142.972 117.263 142.788C117.591 142.596 117.847 142.332 118.031 141.996C118.223 141.652 118.319 141.26 118.319 140.82C118.319 140.38 118.223 139.992 118.031 139.656C117.847 139.312 117.591 139.048 117.263 138.864C116.943 138.68 116.579 138.588 116.171 138.588C115.771 138.588 115.407 138.68 115.079 138.864C114.751 139.048 114.495 139.312 114.311 139.656C114.127 139.992 114.035 140.38 114.035 140.82C114.035 141.26 114.127 141.652 114.311 141.996C114.495 142.332 114.751 142.596 115.079 142.788C115.407 142.972 115.771 143.064 116.171 143.064ZM123.332 137.58C124.212 137.58 124.884 137.796 125.348 138.228C125.82 138.66 126.056 139.304 126.056 140.16V144H124.964V143.16C124.772 143.456 124.496 143.684 124.136 143.844C123.784 143.996 123.364 144.072 122.876 144.072C122.164 144.072 121.592 143.9 121.16 143.556C120.736 143.212 120.524 142.76 120.524 142.2C120.524 141.64 120.728 141.192 121.136 140.856C121.544 140.512 122.192 140.34 123.08 140.34H124.904V140.112C124.904 139.616 124.76 139.236 124.472 138.972C124.184 138.708 123.76 138.576 123.2 138.576C122.824 138.576 122.456 138.64 122.096 138.768C121.736 138.888 121.432 139.052 121.184 139.26L120.704 138.396C121.032 138.132 121.424 137.932 121.88 137.796C122.336 137.652 122.82 137.58 123.332 137.58ZM123.068 143.184C123.508 143.184 123.888 143.088 124.208 142.896C124.528 142.696 124.76 142.416 124.904 142.056V141.168H123.128C122.152 141.168 121.664 141.496 121.664 142.152C121.664 142.472 121.788 142.724 122.036 142.908C122.284 143.092 122.628 143.184 123.068 143.184ZM134.782 137.58C135.398 137.58 135.95 137.716 136.438 137.988C136.926 138.26 137.306 138.64 137.578 139.128C137.858 139.616 137.998 140.18 137.998 140.82C137.998 141.46 137.858 142.028 137.578 142.524C137.306 143.012 136.926 143.392 136.438 143.664C135.95 143.936 135.398 144.072 134.782 144.072C134.326 144.072 133.906 143.984 133.522 143.808C133.146 143.632 132.826 143.376 132.562 143.04V146.328H131.41V137.64H132.514V138.648C132.77 138.296 133.094 138.032 133.486 137.856C133.878 137.672 134.31 137.58 134.782 137.58ZM134.686 143.064C135.094 143.064 135.458 142.972 135.778 142.788C136.106 142.596 136.362 142.332 136.546 141.996C136.738 141.652 136.834 141.26 136.834 140.82C136.834 140.38 136.738 139.992 136.546 139.656C136.362 139.312 136.106 139.048 135.778 138.864C135.458 138.68 135.094 138.588 134.686 138.588C134.286 138.588 133.922 138.684 133.594 138.876C133.274 139.06 133.018 139.32 132.826 139.656C132.642 139.992 132.55 140.38 132.55 140.82C132.55 141.26 132.642 141.652 132.826 141.996C133.01 142.332 133.266 142.596 133.594 142.788C133.922 142.972 134.286 143.064 134.686 143.064ZM141.847 137.58C142.727 137.58 143.399 137.796 143.863 138.228C144.335 138.66 144.571 139.304 144.571 140.16V144H143.479V143.16C143.287 143.456 143.011 143.684 142.651 143.844C142.299 143.996 141.879 144.072 141.391 144.072C140.679 144.072 140.107 143.9 139.675 143.556C139.251 143.212 139.039 142.76 139.039 142.2C139.039 141.64 139.243 141.192 139.651 140.856C140.059 140.512 140.707 140.34 141.595 140.34H143.419V140.112C143.419 139.616 143.275 139.236 142.987 138.972C142.699 138.708 142.275 138.576 141.715 138.576C141.339 138.576 140.971 138.64 140.611 138.768C140.251 138.888 139.947 139.052 139.699 139.26L139.219 138.396C139.547 138.132 139.939 137.932 140.395 137.796C140.851 137.652 141.335 137.58 141.847 137.58ZM141.583 143.184C142.023 143.184 142.403 143.088 142.723 142.896C143.043 142.696 143.275 142.416 143.419 142.056V141.168H141.643C140.667 141.168 140.179 141.496 140.179 142.152C140.179 142.472 140.303 142.724 140.551 142.908C140.799 143.092 141.143 143.184 141.583 143.184ZM147.807 138.708C148.007 138.34 148.303 138.06 148.695 137.868C149.087 137.676 149.563 137.58 150.123 137.58V138.696C150.059 138.688 149.971 138.684 149.859 138.684C149.235 138.684 148.743 138.872 148.383 139.248C148.031 139.616 147.855 140.144 147.855 140.832V144H146.703V137.64H147.807V138.708ZM153.847 137.58C154.727 137.58 155.399 137.796 155.863 138.228C156.335 138.66 156.571 139.304 156.571 140.16V144H155.479V143.16C155.287 143.456 155.011 143.684 154.651 143.844C154.299 143.996 153.879 144.072 153.391 144.072C152.679 144.072 152.107 143.9 151.675 143.556C151.251 143.212 151.039 142.76 151.039 142.2C151.039 141.64 151.243 141.192 151.651 140.856C152.059 140.512 152.707 140.34 153.595 140.34H155.419V140.112C155.419 139.616 155.275 139.236 154.987 138.972C154.699 138.708 154.275 138.576 153.715 138.576C153.339 138.576 152.971 138.64 152.611 138.768C152.251 138.888 151.947 139.052 151.699 139.26L151.219 138.396C151.547 138.132 151.939 137.932 152.395 137.796C152.851 137.652 153.335 137.58 153.847 137.58ZM153.583 143.184C154.023 143.184 154.403 143.088 154.723 142.896C155.043 142.696 155.275 142.416 155.419 142.056V141.168H153.643C152.667 141.168 152.179 141.496 152.179 142.152C152.179 142.472 152.303 142.724 152.551 142.908C152.799 143.092 153.143 143.184 153.583 143.184ZM45.0256 150.096V159H43.9216V157.992C43.6656 158.344 43.3416 158.612 42.9496 158.796C42.5576 158.98 42.1256 159.072 41.6536 159.072C41.0376 159.072 40.4856 158.936 39.9976 158.664C39.5096 158.392 39.1256 158.012 38.8456 157.524C38.5736 157.028 38.4376 156.46 38.4376 155.82C38.4376 155.18 38.5736 154.616 38.8456 154.128C39.1256 153.64 39.5096 153.26 39.9976 152.988C40.4856 152.716 41.0376 152.58 41.6536 152.58C42.1096 152.58 42.5296 152.668 42.9136 152.844C43.2976 153.012 43.6176 153.264 43.8736 153.6V150.096H45.0256ZM41.7496 158.064C42.1496 158.064 42.5136 157.972 42.8416 157.788C43.1696 157.596 43.4256 157.332 43.6096 156.996C43.7936 156.652 43.8856 156.26 43.8856 155.82C43.8856 155.38 43.7936 154.992 43.6096 154.656C43.4256 154.312 43.1696 154.048 42.8416 153.864C42.5136 153.68 42.1496 153.588 41.7496 153.588C41.3416 153.588 40.9736 153.68 40.6456 153.864C40.3256 154.048 40.0696 154.312 39.8776 154.656C39.6936 154.992 39.6016 155.38 39.6016 155.82C39.6016 156.26 39.6936 156.652 39.8776 156.996C40.0696 157.332 40.3256 157.596 40.6456 157.788C40.9736 157.972 41.3416 158.064 41.7496 158.064ZM49.5213 152.58C50.4013 152.58 51.0733 152.796 51.5373 153.228C52.0093 153.66 52.2453 154.304 52.2453 155.16V159H51.1533V158.16C50.9613 158.456 50.6853 158.684 50.3253 158.844C49.9733 158.996 49.5533 159.072 49.0653 159.072C48.3533 159.072 47.7813 158.9 47.3493 158.556C46.9253 158.212 46.7133 157.76 46.7133 157.2C46.7133 156.64 46.9173 156.192 47.3253 155.856C47.7333 155.512 48.3813 155.34 49.2693 155.34H51.0933V155.112C51.0933 154.616 50.9493 154.236 50.6613 153.972C50.3733 153.708 49.9493 153.576 49.3893 153.576C49.0133 153.576 48.6453 153.64 48.2853 153.768C47.9253 153.888 47.6213 154.052 47.3733 154.26L46.8933 153.396C47.2213 153.132 47.6133 152.932 48.0693 152.796C48.5253 152.652 49.0093 152.58 49.5213 152.58ZM49.2573 158.184C49.6973 158.184 50.0773 158.088 50.3973 157.896C50.7173 157.696 50.9493 157.416 51.0933 157.056V156.168H49.3173C48.3413 156.168 47.8533 156.496 47.8533 157.152C47.8533 157.472 47.9773 157.724 48.2253 157.908C48.4733 158.092 48.8173 158.184 49.2573 158.184ZM55.4812 153.708C55.6812 153.34 55.9772 153.06 56.3692 152.868C56.7612 152.676 57.2372 152.58 57.7972 152.58V153.696C57.7332 153.688 57.6452 153.684 57.5332 153.684C56.9092 153.684 56.4172 153.872 56.0572 154.248C55.7052 154.616 55.5292 155.144 55.5292 155.832V159H54.3772V152.64H55.4812V153.708ZM59.217 150.096H60.369V159H59.217V150.096ZM68.3166 155.856C68.3166 155.944 68.3086 156.06 68.2926 156.204H63.1326C63.2046 156.764 63.4486 157.216 63.8646 157.56C64.2886 157.896 64.8126 158.064 65.4366 158.064C66.1966 158.064 66.8086 157.808 67.2726 157.296L67.9086 158.04C67.6206 158.376 67.2606 158.632 66.8286 158.808C66.4046 158.984 65.9286 159.072 65.4006 159.072C64.7286 159.072 64.1326 158.936 63.6126 158.664C63.0926 158.384 62.6886 157.996 62.4006 157.5C62.1206 157.004 61.9806 156.444 61.9806 155.82C61.9806 155.204 62.1166 154.648 62.3886 154.152C62.6686 153.656 63.0486 153.272 63.5286 153C64.0166 152.72 64.5646 152.58 65.1726 152.58C65.7806 152.58 66.3206 152.72 66.7926 153C67.2726 153.272 67.6446 153.656 67.9086 154.152C68.1806 154.648 68.3166 155.216 68.3166 155.856ZM65.1726 153.552C64.6206 153.552 64.1566 153.72 63.7806 154.056C63.4126 154.392 63.1966 154.832 63.1326 155.376H67.2126C67.1486 154.84 66.9286 154.404 66.5526 154.068C66.1846 153.724 65.7246 153.552 65.1726 153.552ZM78.8869 155.856C78.8869 155.944 78.8789 156.06 78.8629 156.204H73.7029C73.7749 156.764 74.0189 157.216 74.4349 157.56C74.8589 157.896 75.3829 158.064 76.0069 158.064C76.7669 158.064 77.3789 157.808 77.8429 157.296L78.4789 158.04C78.1909 158.376 77.8309 158.632 77.3989 158.808C76.9749 158.984 76.4989 159.072 75.9709 159.072C75.2989 159.072 74.7029 158.936 74.1829 158.664C73.6629 158.384 73.2589 157.996 72.9709 157.5C72.6909 157.004 72.5509 156.444 72.5509 155.82C72.5509 155.204 72.6869 154.648 72.9589 154.152C73.2389 153.656 73.6189 153.272 74.0989 153C74.5869 152.72 75.1349 152.58 75.7429 152.58C76.3509 152.58 76.8909 152.72 77.3629 153C77.8429 153.272 78.2149 153.656 78.4789 154.152C78.7509 154.648 78.8869 155.216 78.8869 155.856ZM75.7429 153.552C75.1909 153.552 74.7269 153.72 74.3509 154.056C73.9829 154.392 73.7669 154.832 73.7029 155.376H77.7829C77.7189 154.84 77.4989 154.404 77.1229 154.068C76.7549 153.724 76.2949 153.552 75.7429 153.552ZM82.3105 159.072C81.7905 159.072 81.2905 159.004 80.8105 158.868C80.3305 158.724 79.9545 158.544 79.6825 158.328L80.1625 157.416C80.4425 157.616 80.7825 157.776 81.1825 157.896C81.5825 158.016 81.9865 158.076 82.3945 158.076C83.4025 158.076 83.9065 157.788 83.9065 157.212C83.9065 157.02 83.8385 156.868 83.7025 156.756C83.5665 156.644 83.3945 156.564 83.1865 156.516C82.9865 156.46 82.6985 156.4 82.3225 156.336C81.8105 156.256 81.3905 156.164 81.0625 156.06C80.7425 155.956 80.4665 155.78 80.2345 155.532C80.0025 155.284 79.8865 154.936 79.8865 154.488C79.8865 153.912 80.1265 153.452 80.6065 153.108C81.0865 152.756 81.7305 152.58 82.5385 152.58C82.9625 152.58 83.3865 152.632 83.8105 152.736C84.2345 152.84 84.5825 152.98 84.8545 153.156L84.3625 154.068C83.8425 153.732 83.2305 153.564 82.5265 153.564C82.0385 153.564 81.6665 153.644 81.4105 153.804C81.1545 153.964 81.0265 154.176 81.0265 154.44C81.0265 154.648 81.0985 154.812 81.2425 154.932C81.3865 155.052 81.5625 155.14 81.7705 155.196C81.9865 155.252 82.2865 155.316 82.6705 155.388C83.1825 155.476 83.5945 155.572 83.9065 155.676C84.2265 155.772 84.4985 155.94 84.7225 156.18C84.9465 156.42 85.0585 156.756 85.0585 157.188C85.0585 157.764 84.8105 158.224 84.3145 158.568C83.8265 158.904 83.1585 159.072 82.3105 159.072ZM90.0743 158.628C89.9063 158.772 89.6983 158.884 89.4503 158.964C89.2023 159.036 88.9463 159.072 88.6823 159.072C88.0423 159.072 87.5463 158.9 87.1943 158.556C86.8423 158.212 86.6663 157.72 86.6663 157.08V153.588H85.5863V152.64H86.6663V151.248H87.8183V152.64H89.6423V153.588H87.8183V157.032C87.8183 157.376 87.9023 157.64 88.0703 157.824C88.2463 158.008 88.4943 158.1 88.8143 158.1C89.1663 158.1 89.4663 158 89.7143 157.8L90.0743 158.628ZM93.783 152.58C94.663 152.58 95.335 152.796 95.799 153.228C96.271 153.66 96.507 154.304 96.507 155.16V159H95.415V158.16C95.223 158.456 94.947 158.684 94.587 158.844C94.235 158.996 93.815 159.072 93.327 159.072C92.615 159.072 92.043 158.9 91.611 158.556C91.187 158.212 90.975 157.76 90.975 157.2C90.975 156.64 91.179 156.192 91.587 155.856C91.995 155.512 92.643 155.34 93.531 155.34H95.355V155.112C95.355 154.616 95.211 154.236 94.923 153.972C94.635 153.708 94.211 153.576 93.651 153.576C93.275 153.576 92.907 153.64 92.547 153.768C92.187 153.888 91.883 154.052 91.635 154.26L91.155 153.396C91.483 153.132 91.875 152.932 92.331 152.796C92.787 152.652 93.271 152.58 93.783 152.58ZM93.519 158.184C93.959 158.184 94.339 158.088 94.659 157.896C94.979 157.696 95.211 157.416 95.355 157.056V156.168H93.579C92.603 156.168 92.115 156.496 92.115 157.152C92.115 157.472 92.239 157.724 92.487 157.908C92.735 158.092 93.079 158.184 93.519 158.184ZM102.011 152.58C102.627 152.58 103.179 152.716 103.667 152.988C104.155 153.26 104.535 153.64 104.807 154.128C105.087 154.616 105.227 155.18 105.227 155.82C105.227 156.46 105.087 157.028 104.807 157.524C104.535 158.012 104.155 158.392 103.667 158.664C103.179 158.936 102.627 159.072 102.011 159.072C101.539 159.072 101.107 158.98 100.715 158.796C100.323 158.612 99.9989 158.344 99.7429 157.992V159H98.6389V150.096H99.7909V153.6C100.047 153.264 100.367 153.012 100.751 152.844C101.135 152.668 101.555 152.58 102.011 152.58ZM101.915 158.064C102.323 158.064 102.687 157.972 103.007 157.788C103.335 157.596 103.591 157.332 103.775 156.996C103.967 156.652 104.063 156.26 104.063 155.82C104.063 155.38 103.967 154.992 103.775 154.656C103.591 154.312 103.335 154.048 103.007 153.864C102.687 153.68 102.323 153.588 101.915 153.588C101.515 153.588 101.151 153.68 100.823 153.864C100.495 154.048 100.239 154.312 100.055 154.656C99.8709 154.992 99.7789 155.38 99.7789 155.82C99.7789 156.26 99.8709 156.652 100.055 156.996C100.239 157.332 100.495 157.596 100.823 157.788C101.151 157.972 101.515 158.064 101.915 158.064ZM106.819 152.64H107.971V159H106.819V152.64ZM107.395 151.416C107.171 151.416 106.983 151.344 106.831 151.2C106.687 151.056 106.615 150.88 106.615 150.672C106.615 150.464 106.687 150.288 106.831 150.144C106.983 149.992 107.171 149.916 107.395 149.916C107.619 149.916 107.803 149.988 107.947 150.132C108.099 150.268 108.175 150.44 108.175 150.648C108.175 150.864 108.099 151.048 107.947 151.2C107.803 151.344 107.619 151.416 107.395 151.416ZM110.17 150.096H111.322V159H110.17V150.096ZM113.522 152.64H114.674V159H113.522V152.64ZM114.098 151.416C113.874 151.416 113.686 151.344 113.534 151.2C113.39 151.056 113.318 150.88 113.318 150.672C113.318 150.464 113.39 150.288 113.534 150.144C113.686 149.992 113.874 149.916 114.098 149.916C114.322 149.916 114.506 149.988 114.65 150.132C114.802 150.268 114.878 150.44 114.878 150.648C114.878 150.864 114.802 151.048 114.65 151.2C114.506 151.344 114.322 151.416 114.098 151.416ZM122.873 150.096V159H121.769V157.992C121.513 158.344 121.189 158.612 120.797 158.796C120.405 158.98 119.973 159.072 119.501 159.072C118.885 159.072 118.333 158.936 117.845 158.664C117.357 158.392 116.973 158.012 116.693 157.524C116.421 157.028 116.285 156.46 116.285 155.82C116.285 155.18 116.421 154.616 116.693 154.128C116.973 153.64 117.357 153.26 117.845 152.988C118.333 152.716 118.885 152.58 119.501 152.58C119.957 152.58 120.377 152.668 120.761 152.844C121.145 153.012 121.465 153.264 121.721 153.6V150.096H122.873ZM119.597 158.064C119.997 158.064 120.361 157.972 120.689 157.788C121.017 157.596 121.273 157.332 121.457 156.996C121.641 156.652 121.733 156.26 121.733 155.82C121.733 155.38 121.641 154.992 121.457 154.656C121.273 154.312 121.017 154.048 120.689 153.864C120.361 153.68 119.997 153.588 119.597 153.588C119.189 153.588 118.821 153.68 118.493 153.864C118.173 154.048 117.917 154.312 117.725 154.656C117.541 154.992 117.449 155.38 117.449 155.82C117.449 156.26 117.541 156.652 117.725 156.996C117.917 157.332 118.173 157.596 118.493 157.788C118.821 157.972 119.189 158.064 119.597 158.064ZM127.369 152.58C128.249 152.58 128.921 152.796 129.385 153.228C129.857 153.66 130.093 154.304 130.093 155.16V159H129.001V158.16C128.809 158.456 128.533 158.684 128.173 158.844C127.821 158.996 127.401 159.072 126.913 159.072C126.201 159.072 125.629 158.9 125.197 158.556C124.773 158.212 124.561 157.76 124.561 157.2C124.561 156.64 124.765 156.192 125.173 155.856C125.581 155.512 126.229 155.34 127.117 155.34H128.941V155.112C128.941 154.616 128.797 154.236 128.509 153.972C128.221 153.708 127.797 153.576 127.237 153.576C126.861 153.576 126.493 153.64 126.133 153.768C125.773 153.888 125.469 154.052 125.221 154.26L124.741 153.396C125.069 153.132 125.461 152.932 125.917 152.796C126.373 152.652 126.857 152.58 127.369 152.58ZM127.105 158.184C127.545 158.184 127.925 158.088 128.245 157.896C128.565 157.696 128.797 157.416 128.941 157.056V156.168H127.165C126.189 156.168 125.701 156.496 125.701 157.152C125.701 157.472 125.825 157.724 126.073 157.908C126.321 158.092 126.665 158.184 127.105 158.184ZM138.26 150.096V159H137.156V157.992C136.9 158.344 136.576 158.612 136.184 158.796C135.792 158.98 135.36 159.072 134.888 159.072C134.272 159.072 133.72 158.936 133.232 158.664C132.744 158.392 132.36 158.012 132.08 157.524C131.808 157.028 131.672 156.46 131.672 155.82C131.672 155.18 131.808 154.616 132.08 154.128C132.36 153.64 132.744 153.26 133.232 152.988C133.72 152.716 134.272 152.58 134.888 152.58C135.344 152.58 135.764 152.668 136.148 152.844C136.532 153.012 136.852 153.264 137.108 153.6V150.096H138.26ZM134.984 158.064C135.384 158.064 135.748 157.972 136.076 157.788C136.404 157.596 136.66 157.332 136.844 156.996C137.028 156.652 137.12 156.26 137.12 155.82C137.12 155.38 137.028 154.992 136.844 154.656C136.66 154.312 136.404 154.048 136.076 153.864C135.748 153.68 135.384 153.588 134.984 153.588C134.576 153.588 134.208 153.68 133.88 153.864C133.56 154.048 133.304 154.312 133.112 154.656C132.928 154.992 132.836 155.38 132.836 155.82C132.836 156.26 132.928 156.652 133.112 156.996C133.304 157.332 133.56 157.596 133.88 157.788C134.208 157.972 134.576 158.064 134.984 158.064ZM140.716 159.072C140.492 159.072 140.3 158.996 140.14 158.844C139.98 158.684 139.9 158.484 139.9 158.244C139.9 158.012 139.98 157.82 140.14 157.668C140.3 157.508 140.492 157.428 140.716 157.428C140.94 157.428 141.128 157.504 141.28 157.656C141.432 157.808 141.508 158.004 141.508 158.244C141.508 158.484 141.428 158.684 141.268 158.844C141.116 158.996 140.932 159.072 140.716 159.072Z" fill="#008E86"/>
<path d="M57.6878 60.7344L71.8975 33.8052L61.6738 26.159L63.2951 19.482L81.6219 18.8446L89.8532 33.8052L87.6091 67.4667L76.3886 76.4431L57.6878 60.7344Z" fill="#008E86" stroke="#00635D" stroke-width="2" stroke-linejoin="round"/>
<path d="M71.898 33.8054L61.6743 26.1592L63.2956 19.4822L78.5569 20.5338L71.898 33.8054Z" fill="#00D8CC" stroke="#00635D" stroke-width="2" stroke-linejoin="round"/>
<path d="M71.8978 33.8052L63.9717 27.6236L67.2129 21.5464L78.5567 20.5336L71.8978 33.8052Z" fill="#008E86" stroke="#00635D" stroke-width="2" stroke-linejoin="round"/>
<path d="M74.1428 35.3011L80.1271 22.5845L67.0365 21.4625L64.0444 27.8208L74.1428 35.3011Z" fill="#00D8CC" stroke="#00635D" stroke-width="2" stroke-linejoin="round"/>
<path d="M62.9241 59.9864L80.1259 22.5848L89.8504 33.8052L87.6092 67.4667L62.9241 59.9864Z" fill="#008E86" stroke="#00635D" stroke-width="2" stroke-linejoin="round"/>
<path d="M63.3768 59.9591L80.272 23.2244L89.823 34.2448L87.6218 67.3061L63.3768 59.9591Z" fill="#008E86" stroke="#00635D" stroke-width="2" stroke-linejoin="round"/>
<path d="M107.457 77.5919L127.294 36.4489L123.621 67.3061L107.457 77.5919Z" fill="#008E86" stroke="#00635D" stroke-width="2" stroke-linejoin="round"/>
<path d="M81.0099 53.3465L123.621 67.3061L107.457 77.5916L86.8874 77.5915L81.0099 53.3465Z" fill="#008E86" stroke="#00635D" stroke-width="2" stroke-linejoin="round"/>
<path d="M63.3766 59.9588L81.0094 53.3464L89.8242 78.3266L76.6011 76.1221L63.3766 59.9588Z" fill="#008E86" stroke="#00635D" stroke-width="2" stroke-linejoin="round"/>
<path d="M81.009 53.3465L89.8238 78.3266L66.3142 98.1634L81.009 53.3465Z" fill="#00D8CC" stroke="#00635D" stroke-width="2" stroke-linejoin="round"/>
<path d="M67.7834 77.5918H96.4365" stroke="#333333" stroke-width="2" stroke-dasharray="4 6"/>
<path d="M66.8277 91.5431C67.2789 91.8616 67.3865 92.4855 67.068 92.9367C66.7495 93.3879 66.1256 93.4955 65.6744 93.177L66.8277 91.5431ZM66.9307 56.0203C67.4829 56.0203 67.9307 56.468 67.9307 57.0203L67.9307 66.0203C67.9307 66.5725 67.4829 67.0203 66.9307 67.0203C66.3784 67.0203 65.9307 66.5725 65.9307 66.0203L65.9307 58.0203L57.9307 58.0203C57.3784 58.0203 56.9307 57.5725 56.9307 57.0203C56.9307 56.468 57.3784 56.0203 57.9307 56.0203L66.9307 56.0203ZM65.6744 93.177C59.6417 88.9187 56.5814 82.8379 56.6711 76.2058C56.7603 69.6002 59.969 62.5678 66.2236 56.3132L67.6378 57.7274C61.6594 63.7058 58.7515 70.2656 58.6709 76.2328C58.5906 82.1735 61.307 87.6461 66.8277 91.5431L65.6744 93.177Z" fill="black"/>
</g>
<defs>
<clipPath id="clip0_5706_201388">
<rect width="180" height="180" rx="20" fill="white"/>
</clipPath>
<clipPath id="clip1_5706_201388">
<path d="M0 30L-1.31134e-06 0L30 -1.31134e-06L30 10C30 21.0457 21.0457 30 10 30L0 30Z" fill="white"/>
</clipPath>
</defs>
</svg>
