<svg width="180" height="180" viewBox="0 0 180 180" fill="none" xmlns="http://www.w3.org/2000/svg">
<g clip-path="url(#clip0_5698_200144)">
<rect width="180" height="180" rx="20" fill="#F2F2F2"/>
<g clip-path="url(#clip1_5698_200144)">
<path d="M0 30L-1.31134e-06 0L30 -1.31134e-06L30 10C30 21.0457 21.0457 30 10 30L0 30Z" fill="#333333"/>
<path d="M16.8112 9.8V21H14.2192V11.88H11.9792V9.8H16.8112Z" fill="#F2F2F2"/>
</g>
<path d="M31.5881 120.6H35.1281C36.0161 120.6 36.8041 120.776 37.4921 121.128C38.1801 121.48 38.7121 121.976 39.0881 122.616C39.4721 123.248 39.6641 123.976 39.6641 124.8C39.6641 125.624 39.4721 126.356 39.0881 126.996C38.7121 127.628 38.1801 128.12 37.4921 128.472C36.8041 128.824 36.0161 129 35.1281 129H31.5881V120.6ZM35.0561 127.956C35.7361 127.956 36.3321 127.824 36.8441 127.56C37.3641 127.296 37.7641 126.928 38.0441 126.456C38.3241 125.976 38.4641 125.424 38.4641 124.8C38.4641 124.176 38.3241 123.628 38.0441 123.156C37.7641 122.676 37.3641 122.304 36.8441 122.04C36.3321 121.776 35.7361 121.644 35.0561 121.644H32.7881V127.956H35.0561ZM44.0582 129.072C43.4262 129.072 42.8582 128.932 42.3542 128.652C41.8502 128.372 41.4542 127.988 41.1662 127.5C40.8862 127.004 40.7462 126.444 40.7462 125.82C40.7462 125.196 40.8862 124.64 41.1662 124.152C41.4542 123.656 41.8502 123.272 42.3542 123C42.8582 122.72 43.4262 122.58 44.0582 122.58C44.6902 122.58 45.2542 122.72 45.7502 123C46.2542 123.272 46.6462 123.656 46.9262 124.152C47.2142 124.64 47.3582 125.196 47.3582 125.82C47.3582 126.444 47.2142 127.004 46.9262 127.5C46.6462 127.988 46.2542 128.372 45.7502 128.652C45.2542 128.932 44.6902 129.072 44.0582 129.072ZM44.0582 128.064C44.4662 128.064 44.8302 127.972 45.1502 127.788C45.4782 127.596 45.7342 127.332 45.9182 126.996C46.1022 126.652 46.1942 126.26 46.1942 125.82C46.1942 125.38 46.1022 124.992 45.9182 124.656C45.7342 124.312 45.4782 124.048 45.1502 123.864C44.8302 123.68 44.4662 123.588 44.0582 123.588C43.6502 123.588 43.2822 123.68 42.9542 123.864C42.6342 124.048 42.3782 124.312 42.1862 124.656C42.0022 124.992 41.9102 125.38 41.9102 125.82C41.9102 126.26 42.0022 126.652 42.1862 126.996C42.3782 127.332 42.6342 127.596 42.9542 127.788C43.2822 127.972 43.6502 128.064 44.0582 128.064ZM52.3234 122.58C52.9394 122.58 53.4914 122.716 53.9794 122.988C54.4674 123.26 54.8474 123.64 55.1194 124.128C55.3994 124.616 55.5394 125.18 55.5394 125.82C55.5394 126.46 55.3994 127.028 55.1194 127.524C54.8474 128.012 54.4674 128.392 53.9794 128.664C53.4914 128.936 52.9394 129.072 52.3234 129.072C51.8514 129.072 51.4194 128.98 51.0274 128.796C50.6354 128.612 50.3114 128.344 50.0554 127.992V129H48.9514V120.096H50.1034V123.6C50.3594 123.264 50.6794 123.012 51.0634 122.844C51.4474 122.668 51.8674 122.58 52.3234 122.58ZM52.2274 128.064C52.6354 128.064 52.9994 127.972 53.3194 127.788C53.6474 127.596 53.9034 127.332 54.0874 126.996C54.2794 126.652 54.3754 126.26 54.3754 125.82C54.3754 125.38 54.2794 124.992 54.0874 124.656C53.9034 124.312 53.6474 124.048 53.3194 123.864C52.9994 123.68 52.6354 123.588 52.2274 123.588C51.8274 123.588 51.4634 123.68 51.1354 123.864C50.8074 124.048 50.5514 124.312 50.3674 124.656C50.1834 124.992 50.0914 125.38 50.0914 125.82C50.0914 126.26 50.1834 126.652 50.3674 126.996C50.5514 127.332 50.8074 127.596 51.1354 127.788C51.4634 127.972 51.8274 128.064 52.2274 128.064ZM57.1311 120.096H58.2831V129H57.1311V120.096ZM62.7986 122.58C63.6786 122.58 64.3506 122.796 64.8146 123.228C65.2866 123.66 65.5226 124.304 65.5226 125.16V129H64.4306V128.16C64.2386 128.456 63.9626 128.684 63.6026 128.844C63.2506 128.996 62.8306 129.072 62.3426 129.072C61.6306 129.072 61.0586 128.9 60.6266 128.556C60.2026 128.212 59.9906 127.76 59.9906 127.2C59.9906 126.64 60.1946 126.192 60.6026 125.856C61.0106 125.512 61.6586 125.34 62.5466 125.34H64.3706V125.112C64.3706 124.616 64.2266 124.236 63.9386 123.972C63.6506 123.708 63.2266 123.576 62.6666 123.576C62.2906 123.576 61.9226 123.64 61.5626 123.768C61.2026 123.888 60.8986 124.052 60.6506 124.26L60.1706 123.396C60.4986 123.132 60.8906 122.932 61.3466 122.796C61.8026 122.652 62.2866 122.58 62.7986 122.58ZM62.5346 128.184C62.9746 128.184 63.3546 128.088 63.6746 127.896C63.9946 127.696 64.2266 127.416 64.3706 127.056V126.168H62.5946C61.6186 126.168 61.1306 126.496 61.1306 127.152C61.1306 127.472 61.2546 127.724 61.5026 127.908C61.7506 128.092 62.0946 128.184 62.5346 128.184ZM76.5052 122.64L73.4212 129.636C73.1492 130.284 72.8292 130.74 72.4612 131.004C72.1012 131.268 71.6652 131.4 71.1532 131.4C70.8412 131.4 70.5372 131.348 70.2412 131.244C69.9532 131.148 69.7132 131.004 69.5212 130.812L70.0132 129.948C70.3412 130.26 70.7212 130.416 71.1532 130.416C71.4332 130.416 71.6652 130.34 71.8492 130.188C72.0412 130.044 72.2132 129.792 72.3652 129.432L72.5692 128.988L69.7612 122.64H70.9612L73.1812 127.728L75.3772 122.64H76.5052ZM86.8029 120.096V129H85.6989V127.992C85.4429 128.344 85.1189 128.612 84.7269 128.796C84.3349 128.98 83.9029 129.072 83.4309 129.072C82.8149 129.072 82.2629 128.936 81.7749 128.664C81.2869 128.392 80.9029 128.012 80.6229 127.524C80.3509 127.028 80.2149 126.46 80.2149 125.82C80.2149 125.18 80.3509 124.616 80.6229 124.128C80.9029 123.64 81.2869 123.26 81.7749 122.988C82.2629 122.716 82.8149 122.58 83.4309 122.58C83.8869 122.58 84.3069 122.668 84.6909 122.844C85.0749 123.012 85.3949 123.264 85.6509 123.6V120.096H86.8029ZM83.5269 128.064C83.9269 128.064 84.2909 127.972 84.6189 127.788C84.9469 127.596 85.2029 127.332 85.3869 126.996C85.5709 126.652 85.6629 126.26 85.6629 125.82C85.6629 125.38 85.5709 124.992 85.3869 124.656C85.2029 124.312 84.9469 124.048 84.6189 123.864C84.2909 123.68 83.9269 123.588 83.5269 123.588C83.1189 123.588 82.7509 123.68 82.4229 123.864C82.1029 124.048 81.8469 124.312 81.6549 124.656C81.4709 124.992 81.3789 125.38 81.3789 125.82C81.3789 126.26 81.4709 126.652 81.6549 126.996C81.8469 127.332 82.1029 127.596 82.4229 127.788C82.7509 127.972 83.1189 128.064 83.5269 128.064ZM94.7306 125.856C94.7306 125.944 94.7226 126.06 94.7066 126.204H89.5466C89.6186 126.764 89.8626 127.216 90.2786 127.56C90.7026 127.896 91.2266 128.064 91.8506 128.064C92.6106 128.064 93.2226 127.808 93.6866 127.296L94.3226 128.04C94.0346 128.376 93.6746 128.632 93.2426 128.808C92.8186 128.984 92.3426 129.072 91.8146 129.072C91.1426 129.072 90.5466 128.936 90.0266 128.664C89.5066 128.384 89.1026 127.996 88.8146 127.5C88.5346 127.004 88.3946 126.444 88.3946 125.82C88.3946 125.204 88.5306 124.648 88.8026 124.152C89.0826 123.656 89.4626 123.272 89.9426 123C90.4306 122.72 90.9786 122.58 91.5866 122.58C92.1946 122.58 92.7346 122.72 93.2066 123C93.6866 123.272 94.0586 123.656 94.3226 124.152C94.5946 124.648 94.7306 125.216 94.7306 125.856ZM91.5866 123.552C91.0346 123.552 90.5706 123.72 90.1946 124.056C89.8266 124.392 89.6106 124.832 89.5466 125.376H93.6266C93.5626 124.84 93.3426 124.404 92.9666 124.068C92.5986 123.724 92.1386 123.552 91.5866 123.552ZM98.1543 129.072C97.6343 129.072 97.1343 129.004 96.6543 128.868C96.1743 128.724 95.7983 128.544 95.5263 128.328L96.0063 127.416C96.2863 127.616 96.6263 127.776 97.0263 127.896C97.4263 128.016 97.8303 128.076 98.2383 128.076C99.2463 128.076 99.7503 127.788 99.7503 127.212C99.7503 127.02 99.6823 126.868 99.5463 126.756C99.4103 126.644 99.2383 126.564 99.0303 126.516C98.8303 126.46 98.5423 126.4 98.1663 126.336C97.6543 126.256 97.2343 126.164 96.9063 126.06C96.5863 125.956 96.3103 125.78 96.0783 125.532C95.8463 125.284 95.7303 124.936 95.7303 124.488C95.7303 123.912 95.9703 123.452 96.4503 123.108C96.9303 122.756 97.5743 122.58 98.3823 122.58C98.8063 122.58 99.2303 122.632 99.6543 122.736C100.078 122.84 100.426 122.98 100.698 123.156L100.206 124.068C99.6863 123.732 99.0743 123.564 98.3703 123.564C97.8823 123.564 97.5103 123.644 97.2543 123.804C96.9983 123.964 96.8703 124.176 96.8703 124.44C96.8703 124.648 96.9423 124.812 97.0863 124.932C97.2303 125.052 97.4063 125.14 97.6143 125.196C97.8303 125.252 98.1303 125.316 98.5143 125.388C99.0263 125.476 99.4383 125.572 99.7503 125.676C100.07 125.772 100.342 125.94 100.566 126.18C100.79 126.42 100.902 126.756 100.902 127.188C100.902 127.764 100.654 128.224 100.158 128.568C99.6703 128.904 99.0023 129.072 98.1543 129.072ZM108.342 120.096V129H107.238V127.992C106.982 128.344 106.658 128.612 106.266 128.796C105.874 128.98 105.442 129.072 104.97 129.072C104.354 129.072 103.802 128.936 103.314 128.664C102.826 128.392 102.442 128.012 102.162 127.524C101.89 127.028 101.754 126.46 101.754 125.82C101.754 125.18 101.89 124.616 102.162 124.128C102.442 123.64 102.826 123.26 103.314 122.988C103.802 122.716 104.354 122.58 104.97 122.58C105.426 122.58 105.846 122.668 106.23 122.844C106.614 123.012 106.934 123.264 107.19 123.6V120.096H108.342ZM105.066 128.064C105.466 128.064 105.83 127.972 106.158 127.788C106.486 127.596 106.742 127.332 106.926 126.996C107.11 126.652 107.202 126.26 107.202 125.82C107.202 125.38 107.11 124.992 106.926 124.656C106.742 124.312 106.486 124.048 106.158 123.864C105.83 123.68 105.466 123.588 105.066 123.588C104.658 123.588 104.29 123.68 103.962 123.864C103.642 124.048 103.386 124.312 103.194 124.656C103.01 124.992 102.918 125.38 102.918 125.82C102.918 126.26 103.01 126.652 103.194 126.996C103.386 127.332 103.642 127.596 103.962 127.788C104.29 127.972 104.658 128.064 105.066 128.064ZM113.246 129.072C112.614 129.072 112.046 128.932 111.542 128.652C111.038 128.372 110.642 127.988 110.354 127.5C110.074 127.004 109.934 126.444 109.934 125.82C109.934 125.196 110.074 124.64 110.354 124.152C110.642 123.656 111.038 123.272 111.542 123C112.046 122.72 112.614 122.58 113.246 122.58C113.878 122.58 114.442 122.72 114.938 123C115.442 123.272 115.834 123.656 116.114 124.152C116.402 124.64 116.546 125.196 116.546 125.82C116.546 126.444 116.402 127.004 116.114 127.5C115.834 127.988 115.442 128.372 114.938 128.652C114.442 128.932 113.878 129.072 113.246 129.072ZM113.246 128.064C113.654 128.064 114.018 127.972 114.338 127.788C114.666 127.596 114.922 127.332 115.106 126.996C115.29 126.652 115.382 126.26 115.382 125.82C115.382 125.38 115.29 124.992 115.106 124.656C114.922 124.312 114.666 124.048 114.338 123.864C114.018 123.68 113.654 123.588 113.246 123.588C112.838 123.588 112.47 123.68 112.142 123.864C111.822 124.048 111.566 124.312 111.374 124.656C111.19 124.992 111.098 125.38 111.098 125.82C111.098 126.26 111.19 126.652 111.374 126.996C111.566 127.332 111.822 127.596 112.142 127.788C112.47 127.972 112.838 128.064 113.246 128.064ZM121.511 122.58C122.127 122.58 122.679 122.716 123.167 122.988C123.655 123.26 124.035 123.64 124.307 124.128C124.587 124.616 124.727 125.18 124.727 125.82C124.727 126.46 124.587 127.028 124.307 127.524C124.035 128.012 123.655 128.392 123.167 128.664C122.679 128.936 122.127 129.072 121.511 129.072C121.039 129.072 120.607 128.98 120.215 128.796C119.823 128.612 119.499 128.344 119.243 127.992V129H118.139V120.096H119.291V123.6C119.547 123.264 119.867 123.012 120.251 122.844C120.635 122.668 121.055 122.58 121.511 122.58ZM121.415 128.064C121.823 128.064 122.187 127.972 122.507 127.788C122.835 127.596 123.091 127.332 123.275 126.996C123.467 126.652 123.563 126.26 123.563 125.82C123.563 125.38 123.467 124.992 123.275 124.656C123.091 124.312 122.835 124.048 122.507 123.864C122.187 123.68 121.823 123.588 121.415 123.588C121.015 123.588 120.651 123.68 120.323 123.864C119.995 124.048 119.739 124.312 119.555 124.656C119.371 124.992 119.279 125.38 119.279 125.82C119.279 126.26 119.371 126.652 119.555 126.996C119.739 127.332 119.995 127.596 120.323 127.788C120.651 127.972 121.015 128.064 121.415 128.064ZM126.319 120.096H127.471V129H126.319V120.096ZM131.986 122.58C132.866 122.58 133.538 122.796 134.002 123.228C134.474 123.66 134.71 124.304 134.71 125.16V129H133.618V128.16C133.426 128.456 133.15 128.684 132.79 128.844C132.438 128.996 132.018 129.072 131.53 129.072C130.818 129.072 130.246 128.9 129.814 128.556C129.39 128.212 129.178 127.76 129.178 127.2C129.178 126.64 129.382 126.192 129.79 125.856C130.198 125.512 130.846 125.34 131.734 125.34H133.558V125.112C133.558 124.616 133.414 124.236 133.126 123.972C132.838 123.708 132.414 123.576 131.854 123.576C131.478 123.576 131.11 123.64 130.75 123.768C130.39 123.888 130.086 124.052 129.838 124.26L129.358 123.396C129.686 123.132 130.078 122.932 130.534 122.796C130.99 122.652 131.474 122.58 131.986 122.58ZM131.722 128.184C132.162 128.184 132.542 128.088 132.862 127.896C133.182 127.696 133.414 127.416 133.558 127.056V126.168H131.782C130.806 126.168 130.318 126.496 130.318 127.152C130.318 127.472 130.442 127.724 130.69 127.908C130.938 128.092 131.282 128.184 131.722 128.184ZM145.813 125.856C145.813 125.944 145.805 126.06 145.789 126.204H140.629C140.701 126.764 140.945 127.216 141.361 127.56C141.785 127.896 142.309 128.064 142.933 128.064C143.693 128.064 144.305 127.808 144.769 127.296L145.405 128.04C145.117 128.376 144.757 128.632 144.325 128.808C143.901 128.984 143.425 129.072 142.897 129.072C142.225 129.072 141.629 128.936 141.109 128.664C140.589 128.384 140.185 127.996 139.897 127.5C139.617 127.004 139.477 126.444 139.477 125.82C139.477 125.204 139.613 124.648 139.885 124.152C140.165 123.656 140.545 123.272 141.025 123C141.513 122.72 142.061 122.58 142.669 122.58C143.277 122.58 143.817 122.72 144.289 123C144.769 123.272 145.141 123.656 145.405 124.152C145.677 124.648 145.813 125.216 145.813 125.856ZM142.669 123.552C142.117 123.552 141.653 123.72 141.277 124.056C140.909 124.392 140.693 124.832 140.629 125.376H144.709C144.645 124.84 144.425 124.404 144.049 124.068C143.681 123.724 143.221 123.552 142.669 123.552ZM147.412 120.096H148.564V129H147.412V120.096ZM38.7296 137.58C39.3456 137.58 39.8976 137.716 40.3856 137.988C40.8736 138.26 41.2536 138.64 41.5256 139.128C41.8056 139.616 41.9456 140.18 41.9456 140.82C41.9456 141.46 41.8056 142.028 41.5256 142.524C41.2536 143.012 40.8736 143.392 40.3856 143.664C39.8976 143.936 39.3456 144.072 38.7296 144.072C38.2736 144.072 37.8536 143.984 37.4696 143.808C37.0936 143.632 36.7736 143.376 36.5096 143.04V146.328H35.3576V137.64H36.4616V138.648C36.7176 138.296 37.0416 138.032 37.4336 137.856C37.8256 137.672 38.2576 137.58 38.7296 137.58ZM38.6336 143.064C39.0416 143.064 39.4056 142.972 39.7256 142.788C40.0536 142.596 40.3096 142.332 40.4936 141.996C40.6856 141.652 40.7816 141.26 40.7816 140.82C40.7816 140.38 40.6856 139.992 40.4936 139.656C40.3096 139.312 40.0536 139.048 39.7256 138.864C39.4056 138.68 39.0416 138.588 38.6336 138.588C38.2336 138.588 37.8696 138.684 37.5416 138.876C37.2216 139.06 36.9656 139.32 36.7736 139.656C36.5896 139.992 36.4976 140.38 36.4976 140.82C36.4976 141.26 36.5896 141.652 36.7736 141.996C36.9576 142.332 37.2136 142.596 37.5416 142.788C37.8696 142.972 38.2336 143.064 38.6336 143.064ZM45.7947 137.58C46.6747 137.58 47.3467 137.796 47.8107 138.228C48.2827 138.66 48.5187 139.304 48.5187 140.16V144H47.4267V143.16C47.2347 143.456 46.9587 143.684 46.5987 143.844C46.2467 143.996 45.8267 144.072 45.3387 144.072C44.6267 144.072 44.0547 143.9 43.6227 143.556C43.1987 143.212 42.9867 142.76 42.9867 142.2C42.9867 141.64 43.1907 141.192 43.5987 140.856C44.0067 140.512 44.6547 140.34 45.5427 140.34H47.3667V140.112C47.3667 139.616 47.2227 139.236 46.9347 138.972C46.6467 138.708 46.2227 138.576 45.6627 138.576C45.2867 138.576 44.9187 138.64 44.5587 138.768C44.1987 138.888 43.8947 139.052 43.6467 139.26L43.1667 138.396C43.4947 138.132 43.8867 137.932 44.3427 137.796C44.7987 137.652 45.2827 137.58 45.7947 137.58ZM45.5307 143.184C45.9707 143.184 46.3507 143.088 46.6707 142.896C46.9907 142.696 47.2227 142.416 47.3667 142.056V141.168H45.5907C44.6147 141.168 44.1267 141.496 44.1267 142.152C44.1267 142.472 44.2507 142.724 44.4987 142.908C44.7467 143.092 45.0907 143.184 45.5307 143.184ZM54.0226 137.58C54.6386 137.58 55.1906 137.716 55.6786 137.988C56.1666 138.26 56.5466 138.64 56.8186 139.128C57.0986 139.616 57.2386 140.18 57.2386 140.82C57.2386 141.46 57.0986 142.028 56.8186 142.524C56.5466 143.012 56.1666 143.392 55.6786 143.664C55.1906 143.936 54.6386 144.072 54.0226 144.072C53.5666 144.072 53.1466 143.984 52.7626 143.808C52.3866 143.632 52.0666 143.376 51.8026 143.04V146.328H50.6506V137.64H51.7546V138.648C52.0106 138.296 52.3346 138.032 52.7266 137.856C53.1186 137.672 53.5506 137.58 54.0226 137.58ZM53.9266 143.064C54.3346 143.064 54.6986 142.972 55.0186 142.788C55.3466 142.596 55.6026 142.332 55.7866 141.996C55.9786 141.652 56.0746 141.26 56.0746 140.82C56.0746 140.38 55.9786 139.992 55.7866 139.656C55.6026 139.312 55.3466 139.048 55.0186 138.864C54.6986 138.68 54.3346 138.588 53.9266 138.588C53.5266 138.588 53.1626 138.684 52.8346 138.876C52.5146 139.06 52.2586 139.32 52.0666 139.656C51.8826 139.992 51.7906 140.38 51.7906 140.82C51.7906 141.26 51.8826 141.652 52.0666 141.996C52.2506 142.332 52.5066 142.596 52.8346 142.788C53.1626 142.972 53.5266 143.064 53.9266 143.064ZM64.5783 140.856C64.5783 140.944 64.5703 141.06 64.5543 141.204H59.3943C59.4663 141.764 59.7103 142.216 60.1263 142.56C60.5503 142.896 61.0743 143.064 61.6983 143.064C62.4583 143.064 63.0703 142.808 63.5343 142.296L64.1703 143.04C63.8823 143.376 63.5223 143.632 63.0903 143.808C62.6663 143.984 62.1903 144.072 61.6623 144.072C60.9903 144.072 60.3943 143.936 59.8743 143.664C59.3543 143.384 58.9503 142.996 58.6623 142.5C58.3823 142.004 58.2423 141.444 58.2423 140.82C58.2423 140.204 58.3783 139.648 58.6503 139.152C58.9303 138.656 59.3103 138.272 59.7903 138C60.2783 137.72 60.8263 137.58 61.4343 137.58C62.0423 137.58 62.5823 137.72 63.0543 138C63.5343 138.272 63.9063 138.656 64.1703 139.152C64.4423 139.648 64.5783 140.216 64.5783 140.856ZM61.4343 138.552C60.8823 138.552 60.4183 138.72 60.0423 139.056C59.6743 139.392 59.4583 139.832 59.3943 140.376H63.4743C63.4103 139.84 63.1903 139.404 62.8143 139.068C62.4463 138.724 61.9863 138.552 61.4343 138.552ZM66.1779 135.096H67.3299V144H66.1779V135.096ZM76.1242 137.58C76.7402 137.58 77.2922 137.716 77.7802 137.988C78.2682 138.26 78.6482 138.64 78.9202 139.128C79.2002 139.616 79.3402 140.18 79.3402 140.82C79.3402 141.46 79.2002 142.028 78.9202 142.524C78.6482 143.012 78.2682 143.392 77.7802 143.664C77.2922 143.936 76.7402 144.072 76.1242 144.072C75.6682 144.072 75.2482 143.984 74.8642 143.808C74.4882 143.632 74.1682 143.376 73.9042 143.04V146.328H72.7522V137.64H73.8562V138.648C74.1122 138.296 74.4362 138.032 74.8282 137.856C75.2202 137.672 75.6522 137.58 76.1242 137.58ZM76.0282 143.064C76.4362 143.064 76.8002 142.972 77.1202 142.788C77.4482 142.596 77.7042 142.332 77.8882 141.996C78.0802 141.652 78.1762 141.26 78.1762 140.82C78.1762 140.38 78.0802 139.992 77.8882 139.656C77.7042 139.312 77.4482 139.048 77.1202 138.864C76.8002 138.68 76.4362 138.588 76.0282 138.588C75.6282 138.588 75.2642 138.684 74.9362 138.876C74.6162 139.06 74.3602 139.32 74.1682 139.656C73.9842 139.992 73.8922 140.38 73.8922 140.82C73.8922 141.26 73.9842 141.652 74.1682 141.996C74.3522 142.332 74.6082 142.596 74.9362 142.788C75.2642 142.972 75.6282 143.064 76.0282 143.064ZM83.6558 144.072C83.0238 144.072 82.4558 143.932 81.9518 143.652C81.4478 143.372 81.0518 142.988 80.7638 142.5C80.4838 142.004 80.3438 141.444 80.3438 140.82C80.3438 140.196 80.4838 139.64 80.7638 139.152C81.0518 138.656 81.4478 138.272 81.9518 138C82.4558 137.72 83.0238 137.58 83.6558 137.58C84.2878 137.58 84.8518 137.72 85.3478 138C85.8518 138.272 86.2438 138.656 86.5238 139.152C86.8118 139.64 86.9558 140.196 86.9558 140.82C86.9558 141.444 86.8118 142.004 86.5238 142.5C86.2438 142.988 85.8518 143.372 85.3478 143.652C84.8518 143.932 84.2878 144.072 83.6558 144.072ZM83.6558 143.064C84.0638 143.064 84.4278 142.972 84.7478 142.788C85.0758 142.596 85.3318 142.332 85.5158 141.996C85.6998 141.652 85.7918 141.26 85.7918 140.82C85.7918 140.38 85.6998 139.992 85.5158 139.656C85.3318 139.312 85.0758 139.048 84.7478 138.864C84.4278 138.68 84.0638 138.588 83.6558 138.588C83.2478 138.588 82.8798 138.68 82.5518 138.864C82.2318 139.048 81.9758 139.312 81.7838 139.656C81.5998 139.992 81.5078 140.38 81.5078 140.82C81.5078 141.26 81.5998 141.652 81.7838 141.996C81.9758 142.332 82.2318 142.596 82.5518 142.788C82.8798 142.972 83.2478 143.064 83.6558 143.064ZM89.653 138.708C89.853 138.34 90.149 138.06 90.541 137.868C90.933 137.676 91.409 137.58 91.969 137.58V138.696C91.905 138.688 91.817 138.684 91.705 138.684C91.081 138.684 90.589 138.872 90.229 139.248C89.877 139.616 89.701 140.144 89.701 140.832V144H88.549V137.64H89.653V138.708ZM96.6936 135.096H97.8456V144H96.6936V135.096ZM102.361 137.58C103.241 137.58 103.913 137.796 104.377 138.228C104.849 138.66 105.085 139.304 105.085 140.16V144H103.993V143.16C103.801 143.456 103.525 143.684 103.165 143.844C102.813 143.996 102.393 144.072 101.905 144.072C101.193 144.072 100.621 143.9 100.189 143.556C99.7651 143.212 99.5531 142.76 99.5531 142.2C99.5531 141.64 99.7571 141.192 100.165 140.856C100.573 140.512 101.221 140.34 102.109 140.34H103.933V140.112C103.933 139.616 103.789 139.236 103.501 138.972C103.213 138.708 102.789 138.576 102.229 138.576C101.853 138.576 101.485 138.64 101.125 138.768C100.765 138.888 100.461 139.052 100.213 139.26L99.7331 138.396C100.061 138.132 100.453 137.932 100.909 137.796C101.365 137.652 101.849 137.58 102.361 137.58ZM102.097 143.184C102.537 143.184 102.917 143.088 103.237 142.896C103.557 142.696 103.789 142.416 103.933 142.056V141.168H102.157C101.181 141.168 100.693 141.496 100.693 142.152C100.693 142.472 100.817 142.724 101.065 142.908C101.313 143.092 101.657 143.184 102.097 143.184ZM118.396 137.58C119.196 137.58 119.828 137.812 120.292 138.276C120.764 138.74 121 139.428 121 140.34V144H119.848V140.472C119.848 139.856 119.704 139.392 119.416 139.08C119.136 138.768 118.732 138.612 118.204 138.612C117.62 138.612 117.156 138.796 116.812 139.164C116.468 139.524 116.296 140.044 116.296 140.724V144H115.144V140.472C115.144 139.856 115 139.392 114.712 139.08C114.432 138.768 114.028 138.612 113.5 138.612C112.916 138.612 112.452 138.796 112.108 139.164C111.764 139.524 111.592 140.044 111.592 140.724V144H110.44V137.64H111.544V138.588C111.776 138.26 112.08 138.012 112.456 137.844C112.832 137.668 113.26 137.58 113.74 137.58C114.236 137.58 114.676 137.68 115.06 137.88C115.444 138.08 115.74 138.372 115.948 138.756C116.188 138.388 116.52 138.1 116.944 137.892C117.376 137.684 117.86 137.58 118.396 137.58ZM123.119 137.64H124.271V144H123.119V137.64ZM123.695 136.416C123.471 136.416 123.283 136.344 123.131 136.2C122.987 136.056 122.915 135.88 122.915 135.672C122.915 135.464 122.987 135.288 123.131 135.144C123.283 134.992 123.471 134.916 123.695 134.916C123.919 134.916 124.103 134.988 124.247 135.132C124.399 135.268 124.475 135.44 124.475 135.648C124.475 135.864 124.399 136.048 124.247 136.2C124.103 136.344 123.919 136.416 123.695 136.416ZM130.047 143.628C129.879 143.772 129.671 143.884 129.423 143.964C129.175 144.036 128.919 144.072 128.655 144.072C128.015 144.072 127.519 143.9 127.167 143.556C126.815 143.212 126.639 142.72 126.639 142.08V138.588H125.559V137.64H126.639V136.248H127.791V137.64H129.615V138.588H127.791V142.032C127.791 142.376 127.875 142.64 128.043 142.824C128.219 143.008 128.467 143.1 128.787 143.1C129.139 143.1 129.439 143 129.687 142.8L130.047 143.628ZM133.756 137.58C134.636 137.58 135.308 137.796 135.772 138.228C136.244 138.66 136.48 139.304 136.48 140.16V144H135.388V143.16C135.196 143.456 134.92 143.684 134.56 143.844C134.208 143.996 133.788 144.072 133.3 144.072C132.588 144.072 132.016 143.9 131.584 143.556C131.16 143.212 130.948 142.76 130.948 142.2C130.948 141.64 131.152 141.192 131.56 140.856C131.968 140.512 132.616 140.34 133.504 140.34H135.328V140.112C135.328 139.616 135.184 139.236 134.896 138.972C134.608 138.708 134.184 138.576 133.624 138.576C133.248 138.576 132.88 138.64 132.52 138.768C132.16 138.888 131.856 139.052 131.608 139.26L131.128 138.396C131.456 138.132 131.848 137.932 132.304 137.796C132.76 137.652 133.244 137.58 133.756 137.58ZM133.492 143.184C133.932 143.184 134.312 143.088 134.632 142.896C134.952 142.696 135.184 142.416 135.328 142.056V141.168H133.552C132.576 141.168 132.088 141.496 132.088 142.152C132.088 142.472 132.212 142.724 132.46 142.908C132.708 143.092 133.052 143.184 133.492 143.184ZM144.647 135.096V144H143.543V142.992C143.287 143.344 142.963 143.612 142.571 143.796C142.179 143.98 141.747 144.072 141.275 144.072C140.659 144.072 140.107 143.936 139.619 143.664C139.131 143.392 138.747 143.012 138.467 142.524C138.195 142.028 138.059 141.46 138.059 140.82C138.059 140.18 138.195 139.616 138.467 139.128C138.747 138.64 139.131 138.26 139.619 137.988C140.107 137.716 140.659 137.58 141.275 137.58C141.731 137.58 142.151 137.668 142.535 137.844C142.919 138.012 143.239 138.264 143.495 138.6V135.096H144.647ZM141.371 143.064C141.771 143.064 142.135 142.972 142.463 142.788C142.791 142.596 143.047 142.332 143.231 141.996C143.415 141.652 143.507 141.26 143.507 140.82C143.507 140.38 143.415 139.992 143.231 139.656C143.047 139.312 142.791 139.048 142.463 138.864C142.135 138.68 141.771 138.588 141.371 138.588C140.963 138.588 140.595 138.68 140.267 138.864C139.947 139.048 139.691 139.312 139.499 139.656C139.315 139.992 139.223 140.38 139.223 140.82C139.223 141.26 139.315 141.652 139.499 141.996C139.691 142.332 139.947 142.596 140.267 142.788C140.595 142.972 140.963 143.064 141.371 143.064ZM38.5275 150.096V159H37.4235V157.992C37.1675 158.344 36.8435 158.612 36.4515 158.796C36.0595 158.98 35.6275 159.072 35.1555 159.072C34.5395 159.072 33.9875 158.936 33.4995 158.664C33.0115 158.392 32.6275 158.012 32.3475 157.524C32.0755 157.028 31.9395 156.46 31.9395 155.82C31.9395 155.18 32.0755 154.616 32.3475 154.128C32.6275 153.64 33.0115 153.26 33.4995 152.988C33.9875 152.716 34.5395 152.58 35.1555 152.58C35.6115 152.58 36.0315 152.668 36.4155 152.844C36.7995 153.012 37.1195 153.264 37.3755 153.6V150.096H38.5275ZM35.2515 158.064C35.6515 158.064 36.0155 157.972 36.3435 157.788C36.6715 157.596 36.9275 157.332 37.1115 156.996C37.2955 156.652 37.3875 156.26 37.3875 155.82C37.3875 155.38 37.2955 154.992 37.1115 154.656C36.9275 154.312 36.6715 154.048 36.3435 153.864C36.0155 153.68 35.6515 153.588 35.2515 153.588C34.8435 153.588 34.4755 153.68 34.1475 153.864C33.8275 154.048 33.5715 154.312 33.3795 154.656C33.1955 154.992 33.1035 155.38 33.1035 155.82C33.1035 156.26 33.1955 156.652 33.3795 156.996C33.5715 157.332 33.8275 157.596 34.1475 157.788C34.4755 157.972 34.8435 158.064 35.2515 158.064ZM46.4552 155.856C46.4552 155.944 46.4472 156.06 46.4312 156.204H41.2712C41.3432 156.764 41.5872 157.216 42.0032 157.56C42.4272 157.896 42.9512 158.064 43.5752 158.064C44.3352 158.064 44.9472 157.808 45.4112 157.296L46.0472 158.04C45.7592 158.376 45.3992 158.632 44.9672 158.808C44.5432 158.984 44.0672 159.072 43.5392 159.072C42.8672 159.072 42.2712 158.936 41.7512 158.664C41.2312 158.384 40.8272 157.996 40.5392 157.5C40.2592 157.004 40.1192 156.444 40.1192 155.82C40.1192 155.204 40.2552 154.648 40.5272 154.152C40.8072 153.656 41.1872 153.272 41.6672 153C42.1552 152.72 42.7032 152.58 43.3112 152.58C43.9192 152.58 44.4592 152.72 44.9312 153C45.4112 153.272 45.7832 153.656 46.0472 154.152C46.3192 154.648 46.4552 155.216 46.4552 155.856ZM43.3112 153.552C42.7592 153.552 42.2952 153.72 41.9192 154.056C41.5512 154.392 41.3352 154.832 41.2712 155.376H45.3512C45.2872 154.84 45.0672 154.404 44.6912 154.068C44.3232 153.724 43.8632 153.552 43.3112 153.552ZM49.8789 159.072C49.3589 159.072 48.8589 159.004 48.3789 158.868C47.8989 158.724 47.5229 158.544 47.2509 158.328L47.7309 157.416C48.0109 157.616 48.3509 157.776 48.7509 157.896C49.1509 158.016 49.5549 158.076 49.9629 158.076C50.9709 158.076 51.4749 157.788 51.4749 157.212C51.4749 157.02 51.4069 156.868 51.2709 156.756C51.1349 156.644 50.9629 156.564 50.7549 156.516C50.5549 156.46 50.2669 156.4 49.8909 156.336C49.3789 156.256 48.9589 156.164 48.6309 156.06C48.3109 155.956 48.0349 155.78 47.8029 155.532C47.5709 155.284 47.4549 154.936 47.4549 154.488C47.4549 153.912 47.6949 153.452 48.1749 153.108C48.6549 152.756 49.2989 152.58 50.1069 152.58C50.5309 152.58 50.9549 152.632 51.3789 152.736C51.8029 152.84 52.1509 152.98 52.4229 153.156L51.9309 154.068C51.4109 153.732 50.7989 153.564 50.0949 153.564C49.6069 153.564 49.2349 153.644 48.9789 153.804C48.7229 153.964 48.5949 154.176 48.5949 154.44C48.5949 154.648 48.6669 154.812 48.8109 154.932C48.9549 155.052 49.1309 155.14 49.3389 155.196C49.5549 155.252 49.8549 155.316 50.2389 155.388C50.7509 155.476 51.1629 155.572 51.4749 155.676C51.7949 155.772 52.0669 155.94 52.2909 156.18C52.5149 156.42 52.6269 156.756 52.6269 157.188C52.6269 157.764 52.3789 158.224 51.8829 158.568C51.3949 158.904 50.7269 159.072 49.8789 159.072ZM60.0666 150.096V159H58.9626V157.992C58.7066 158.344 58.3826 158.612 57.9906 158.796C57.5986 158.98 57.1666 159.072 56.6946 159.072C56.0786 159.072 55.5266 158.936 55.0386 158.664C54.5506 158.392 54.1666 158.012 53.8866 157.524C53.6146 157.028 53.4786 156.46 53.4786 155.82C53.4786 155.18 53.6146 154.616 53.8866 154.128C54.1666 153.64 54.5506 153.26 55.0386 152.988C55.5266 152.716 56.0786 152.58 56.6946 152.58C57.1506 152.58 57.5706 152.668 57.9546 152.844C58.3386 153.012 58.6586 153.264 58.9146 153.6V150.096H60.0666ZM56.7906 158.064C57.1906 158.064 57.5546 157.972 57.8826 157.788C58.2106 157.596 58.4666 157.332 58.6506 156.996C58.8346 156.652 58.9266 156.26 58.9266 155.82C58.9266 155.38 58.8346 154.992 58.6506 154.656C58.4666 154.312 58.2106 154.048 57.8826 153.864C57.5546 153.68 57.1906 153.588 56.7906 153.588C56.3826 153.588 56.0146 153.68 55.6866 153.864C55.3666 154.048 55.1106 154.312 54.9186 154.656C54.7346 154.992 54.6426 155.38 54.6426 155.82C54.6426 156.26 54.7346 156.652 54.9186 156.996C55.1106 157.332 55.3666 157.596 55.6866 157.788C56.0146 157.972 56.3826 158.064 56.7906 158.064ZM67.9943 155.856C67.9943 155.944 67.9863 156.06 67.9703 156.204H62.8103C62.8823 156.764 63.1263 157.216 63.5423 157.56C63.9663 157.896 64.4903 158.064 65.1143 158.064C65.8743 158.064 66.4863 157.808 66.9503 157.296L67.5863 158.04C67.2983 158.376 66.9383 158.632 66.5063 158.808C66.0823 158.984 65.6063 159.072 65.0783 159.072C64.4063 159.072 63.8103 158.936 63.2903 158.664C62.7703 158.384 62.3663 157.996 62.0783 157.5C61.7983 157.004 61.6583 156.444 61.6583 155.82C61.6583 155.204 61.7943 154.648 62.0663 154.152C62.3463 153.656 62.7263 153.272 63.2063 153C63.6943 152.72 64.2423 152.58 64.8503 152.58C65.4583 152.58 65.9983 152.72 66.4703 153C66.9503 153.272 67.3223 153.656 67.5863 154.152C67.8583 154.648 67.9943 155.216 67.9943 155.856ZM64.8503 153.552C64.2983 153.552 63.8343 153.72 63.4583 154.056C63.0903 154.392 62.8743 154.832 62.8103 155.376H66.8903C66.8263 154.84 66.6063 154.404 66.2303 154.068C65.8623 153.724 65.4023 153.552 64.8503 153.552ZM72.8166 150.096H73.9686V159H72.8166V150.096ZM78.4842 152.58C79.3642 152.58 80.0362 152.796 80.5002 153.228C80.9722 153.66 81.2082 154.304 81.2082 155.16V159H80.1162V158.16C79.9242 158.456 79.6482 158.684 79.2882 158.844C78.9362 158.996 78.5162 159.072 78.0282 159.072C77.3162 159.072 76.7442 158.9 76.3122 158.556C75.8882 158.212 75.6762 157.76 75.6762 157.2C75.6762 156.64 75.8802 156.192 76.2882 155.856C76.6962 155.512 77.3442 155.34 78.2322 155.34H80.0562V155.112C80.0562 154.616 79.9122 154.236 79.6242 153.972C79.3362 153.708 78.9122 153.576 78.3522 153.576C77.9762 153.576 77.6082 153.64 77.2482 153.768C76.8882 153.888 76.5842 154.052 76.3362 154.26L75.8562 153.396C76.1842 153.132 76.5762 152.932 77.0322 152.796C77.4882 152.652 77.9722 152.58 78.4842 152.58ZM78.2202 158.184C78.6602 158.184 79.0402 158.088 79.3602 157.896C79.6802 157.696 79.9122 157.416 80.0562 157.056V156.168H78.2802C77.3042 156.168 76.8162 156.496 76.8162 157.152C76.8162 157.472 76.9402 157.724 77.1882 157.908C77.4362 158.092 77.7802 158.184 78.2202 158.184ZM85.164 159.072C84.644 159.072 84.144 159.004 83.664 158.868C83.184 158.724 82.808 158.544 82.536 158.328L83.016 157.416C83.296 157.616 83.636 157.776 84.036 157.896C84.436 158.016 84.84 158.076 85.248 158.076C86.256 158.076 86.76 157.788 86.76 157.212C86.76 157.02 86.692 156.868 86.556 156.756C86.42 156.644 86.248 156.564 86.04 156.516C85.84 156.46 85.552 156.4 85.176 156.336C84.664 156.256 84.244 156.164 83.916 156.06C83.596 155.956 83.32 155.78 83.088 155.532C82.856 155.284 82.74 154.936 82.74 154.488C82.74 153.912 82.98 153.452 83.46 153.108C83.94 152.756 84.584 152.58 85.392 152.58C85.816 152.58 86.24 152.632 86.664 152.736C87.088 152.84 87.436 152.98 87.708 153.156L87.216 154.068C86.696 153.732 86.084 153.564 85.38 153.564C84.892 153.564 84.52 153.644 84.264 153.804C84.008 153.964 83.88 154.176 83.88 154.44C83.88 154.648 83.952 154.812 84.096 154.932C84.24 155.052 84.416 155.14 84.624 155.196C84.84 155.252 85.14 155.316 85.524 155.388C86.036 155.476 86.448 155.572 86.76 155.676C87.08 155.772 87.352 155.94 87.576 156.18C87.8 156.42 87.912 156.756 87.912 157.188C87.912 157.764 87.664 158.224 87.168 158.568C86.68 158.904 86.012 159.072 85.164 159.072ZM98.3224 155.856C98.3224 155.944 98.3144 156.06 98.2984 156.204H93.1384C93.2104 156.764 93.4544 157.216 93.8704 157.56C94.2944 157.896 94.8184 158.064 95.4424 158.064C96.2024 158.064 96.8144 157.808 97.2784 157.296L97.9144 158.04C97.6264 158.376 97.2664 158.632 96.8344 158.808C96.4104 158.984 95.9344 159.072 95.4064 159.072C94.7344 159.072 94.1384 158.936 93.6184 158.664C93.0984 158.384 92.6944 157.996 92.4064 157.5C92.1264 157.004 91.9864 156.444 91.9864 155.82C91.9864 155.204 92.1224 154.648 92.3944 154.152C92.6744 153.656 93.0544 153.272 93.5344 153C94.0224 152.72 94.5704 152.58 95.1784 152.58C95.7864 152.58 96.3264 152.72 96.7984 153C97.2784 153.272 97.6504 153.656 97.9144 154.152C98.1864 154.648 98.3224 155.216 98.3224 155.856ZM95.1784 153.552C94.6264 153.552 94.1624 153.72 93.7864 154.056C93.4184 154.392 93.2024 154.832 93.1384 155.376H97.2184C97.1544 154.84 96.9344 154.404 96.5584 154.068C96.1904 153.724 95.7304 153.552 95.1784 153.552ZM101.746 159.072C101.226 159.072 100.726 159.004 100.246 158.868C99.7661 158.724 99.3901 158.544 99.1181 158.328L99.5981 157.416C99.8781 157.616 100.218 157.776 100.618 157.896C101.018 158.016 101.422 158.076 101.83 158.076C102.838 158.076 103.342 157.788 103.342 157.212C103.342 157.02 103.274 156.868 103.138 156.756C103.002 156.644 102.83 156.564 102.622 156.516C102.422 156.46 102.134 156.4 101.758 156.336C101.246 156.256 100.826 156.164 100.498 156.06C100.178 155.956 99.9021 155.78 99.6701 155.532C99.4381 155.284 99.3221 154.936 99.3221 154.488C99.3221 153.912 99.5621 153.452 100.042 153.108C100.522 152.756 101.166 152.58 101.974 152.58C102.398 152.58 102.822 152.632 103.246 152.736C103.67 152.84 104.018 152.98 104.29 153.156L103.798 154.068C103.278 153.732 102.666 153.564 101.962 153.564C101.474 153.564 101.102 153.644 100.846 153.804C100.59 153.964 100.462 154.176 100.462 154.44C100.462 154.648 100.534 154.812 100.678 154.932C100.822 155.052 100.998 155.14 101.206 155.196C101.422 155.252 101.722 155.316 102.106 155.388C102.618 155.476 103.03 155.572 103.342 155.676C103.662 155.772 103.934 155.94 104.158 156.18C104.382 156.42 104.494 156.756 104.494 157.188C104.494 157.764 104.246 158.224 103.75 158.568C103.262 158.904 102.594 159.072 101.746 159.072ZM111.934 152.64V161.328H110.782V158.04C110.518 158.376 110.194 158.632 109.81 158.808C109.434 158.984 109.018 159.072 108.562 159.072C107.946 159.072 107.394 158.936 106.906 158.664C106.418 158.392 106.034 158.012 105.754 157.524C105.482 157.028 105.346 156.46 105.346 155.82C105.346 155.18 105.482 154.616 105.754 154.128C106.034 153.64 106.418 153.26 106.906 152.988C107.394 152.716 107.946 152.58 108.562 152.58C109.034 152.58 109.466 152.672 109.858 152.856C110.25 153.032 110.574 153.296 110.83 153.648V152.64H111.934ZM108.658 158.064C109.058 158.064 109.422 157.972 109.75 157.788C110.078 157.596 110.334 157.332 110.518 156.996C110.702 156.652 110.794 156.26 110.794 155.82C110.794 155.38 110.698 154.992 110.506 154.656C110.322 154.32 110.066 154.06 109.738 153.876C109.418 153.684 109.058 153.588 108.658 153.588C108.25 153.588 107.882 153.68 107.554 153.864C107.234 154.048 106.978 154.312 106.786 154.656C106.602 154.992 106.51 155.38 106.51 155.82C106.51 156.26 106.602 156.652 106.786 156.996C106.978 157.332 107.234 157.596 107.554 157.788C107.882 157.972 108.25 158.064 108.658 158.064ZM120.041 152.64V159H118.949V158.04C118.717 158.368 118.409 158.624 118.025 158.808C117.649 158.984 117.237 159.072 116.789 159.072C115.941 159.072 115.273 158.84 114.785 158.376C114.297 157.904 114.053 157.212 114.053 156.3V152.64H115.205V156.168C115.205 156.784 115.353 157.252 115.649 157.572C115.945 157.884 116.369 158.04 116.921 158.04C117.529 158.04 118.009 157.856 118.361 157.488C118.713 157.12 118.889 156.6 118.889 155.928V152.64H120.041ZM122.235 152.64H123.387V159H122.235V152.64ZM122.811 151.416C122.587 151.416 122.399 151.344 122.247 151.2C122.103 151.056 122.031 150.88 122.031 150.672C122.031 150.464 122.103 150.288 122.247 150.144C122.399 149.992 122.587 149.916 122.811 149.916C123.035 149.916 123.219 149.988 123.363 150.132C123.515 150.268 123.591 150.44 123.591 150.648C123.591 150.864 123.515 151.048 123.363 151.2C123.219 151.344 123.035 151.416 122.811 151.416ZM128.982 152.58C129.79 152.58 130.43 152.816 130.902 153.288C131.382 153.752 131.622 154.436 131.622 155.34V159H130.47V155.472C130.47 154.856 130.322 154.392 130.026 154.08C129.73 153.768 129.306 153.612 128.754 153.612C128.13 153.612 127.638 153.796 127.278 154.164C126.918 154.524 126.738 155.044 126.738 155.724V159H125.586V152.64H126.69V153.6C126.922 153.272 127.234 153.02 127.626 152.844C128.026 152.668 128.478 152.58 128.982 152.58ZM136.07 152.58C136.95 152.58 137.622 152.796 138.086 153.228C138.558 153.66 138.794 154.304 138.794 155.16V159H137.702V158.16C137.51 158.456 137.234 158.684 136.874 158.844C136.522 158.996 136.102 159.072 135.614 159.072C134.902 159.072 134.33 158.9 133.898 158.556C133.474 158.212 133.262 157.76 133.262 157.2C133.262 156.64 133.466 156.192 133.874 155.856C134.282 155.512 134.93 155.34 135.818 155.34H137.642V155.112C137.642 154.616 137.498 154.236 137.21 153.972C136.922 153.708 136.498 153.576 135.938 153.576C135.562 153.576 135.194 153.64 134.834 153.768C134.474 153.888 134.17 154.052 133.922 154.26L133.442 153.396C133.77 153.132 134.162 152.932 134.618 152.796C135.074 152.652 135.558 152.58 136.07 152.58ZM135.806 158.184C136.246 158.184 136.626 158.088 136.946 157.896C137.266 157.696 137.498 157.416 137.642 157.056V156.168H135.866C134.89 156.168 134.402 156.496 134.402 157.152C134.402 157.472 134.526 157.724 134.774 157.908C135.022 158.092 135.366 158.184 135.806 158.184ZM142.75 159.072C142.23 159.072 141.73 159.004 141.25 158.868C140.77 158.724 140.394 158.544 140.122 158.328L140.602 157.416C140.882 157.616 141.222 157.776 141.622 157.896C142.022 158.016 142.426 158.076 142.834 158.076C143.842 158.076 144.346 157.788 144.346 157.212C144.346 157.02 144.278 156.868 144.142 156.756C144.006 156.644 143.834 156.564 143.626 156.516C143.426 156.46 143.138 156.4 142.762 156.336C142.25 156.256 141.83 156.164 141.502 156.06C141.182 155.956 140.906 155.78 140.674 155.532C140.442 155.284 140.326 154.936 140.326 154.488C140.326 153.912 140.566 153.452 141.046 153.108C141.526 152.756 142.17 152.58 142.978 152.58C143.402 152.58 143.826 152.632 144.25 152.736C144.674 152.84 145.022 152.98 145.294 153.156L144.802 154.068C144.282 153.732 143.67 153.564 142.966 153.564C142.478 153.564 142.106 153.644 141.85 153.804C141.594 153.964 141.466 154.176 141.466 154.44C141.466 154.648 141.538 154.812 141.682 154.932C141.826 155.052 142.002 155.14 142.21 155.196C142.426 155.252 142.726 155.316 143.11 155.388C143.622 155.476 144.034 155.572 144.346 155.676C144.666 155.772 144.938 155.94 145.162 156.18C145.386 156.42 145.498 156.756 145.498 157.188C145.498 157.764 145.25 158.224 144.754 158.568C144.266 158.904 143.598 159.072 142.75 159.072ZM147.214 159.072C146.99 159.072 146.798 158.996 146.638 158.844C146.478 158.684 146.398 158.484 146.398 158.244C146.398 158.012 146.478 157.82 146.638 157.668C146.798 157.508 146.99 157.428 147.214 157.428C147.438 157.428 147.626 157.504 147.778 157.656C147.93 157.808 148.006 158.004 148.006 158.244C148.006 158.484 147.926 158.684 147.766 158.844C147.614 158.996 147.43 159.072 147.214 159.072Z" fill="#008E86"/>
<rect x="45" y="55" width="63.6396" height="63.6396" transform="rotate(-45 45 55)" fill="#00D8CC" stroke="#00635D" stroke-width="2" stroke-linejoin="round"/>
<path d="M135 55L45 55" stroke="#333333" stroke-width="2" stroke-dasharray="4 6"/>
<path d="M92.9244 95.9539C93.4767 95.9539 93.9244 95.5061 93.9244 94.9539L93.9244 85.9539C93.9244 85.4016 93.4767 84.9539 92.9244 84.9539C92.3721 84.9539 91.9244 85.4016 91.9244 85.9539L91.9244 93.9539L83.9244 93.9539C83.3721 93.9539 82.9244 94.4016 82.9244 94.9539C82.9244 95.5061 83.3721 95.9539 83.9244 95.9539L92.9244 95.9539ZM93.9244 15.6415C93.9244 15.0892 93.4767 14.6415 92.9244 14.6415L83.9244 14.6415C83.3721 14.6415 82.9244 15.0892 82.9244 15.6415C82.9244 16.1937 83.3721 16.6415 83.9244 16.6415L91.9244 16.6415L91.9244 24.6415C91.9244 25.1937 92.3721 25.6415 92.9244 25.6415C93.4767 25.6415 93.9244 25.1937 93.9244 24.6415L93.9244 15.6415ZM93.6315 94.2467C82.2026 82.8178 77 69.1337 77 55.4636L75 55.4636C75 69.6689 80.4167 83.8603 92.2173 95.661L93.6315 94.2467ZM77 55.4636C77 48.6804 79.1056 40.9413 82.2647 33.8436C85.4235 26.7465 89.5922 20.3879 93.6315 16.3486L92.2173 14.9344C87.9603 19.1913 83.6668 25.7749 80.4375 33.0303C77.2085 40.2852 75 48.3091 75 55.4636L77 55.4636Z" fill="black"/>
</g>
<defs>
<clipPath id="clip0_5698_200144">
<rect width="180" height="180" rx="20" fill="white"/>
</clipPath>
<clipPath id="clip1_5698_200144">
<path d="M0 30L-1.31134e-06 0L30 -1.31134e-06L30 10C30 21.0457 21.0457 30 10 30L0 30Z" fill="white"/>
</clipPath>
</defs>
</svg>
