<svg width="180" height="180" viewBox="0 0 180 180" fill="none" xmlns="http://www.w3.org/2000/svg">
<g clip-path="url(#clip0_5698_200156)">
<rect width="180" height="180" rx="20" fill="#F2F2F2"/>
<g clip-path="url(#clip1_5698_200156)">
<path d="M0 30L-1.31134e-06 0L30 -1.31134e-06L30 10C30 21.0457 21.0457 30 10 30L0 30Z" fill="#333333"/>
<path d="M20.3644 18.648H18.5404V21H16.0124V18.648H9.98038V16.904L15.2604 9.8H17.9804L13.0844 16.536H16.0924V14.44H18.5404V16.536H20.3644V18.648Z" fill="#F2F2F2"/>
</g>
<path d="M33.6975 120.6H34.8975V127.956H39.4455V129H33.6975V120.6ZM40.6545 122.64H41.8065V129H40.6545V122.64ZM41.2305 121.416C41.0065 121.416 40.8185 121.344 40.6665 121.2C40.5225 121.056 40.4505 120.88 40.4505 120.672C40.4505 120.464 40.5225 120.288 40.6665 120.144C40.8185 119.992 41.0065 119.916 41.2305 119.916C41.4545 119.916 41.6385 119.988 41.7825 120.132C41.9345 120.268 42.0105 120.44 42.0105 120.648C42.0105 120.864 41.9345 121.048 41.7825 121.2C41.6385 121.344 41.4545 121.416 41.2305 121.416ZM47.3781 122.58C47.9941 122.58 48.5461 122.716 49.0341 122.988C49.5221 123.26 49.9021 123.64 50.1741 124.128C50.4541 124.616 50.5941 125.18 50.5941 125.82C50.5941 126.46 50.4541 127.028 50.1741 127.524C49.9021 128.012 49.5221 128.392 49.0341 128.664C48.5461 128.936 47.9941 129.072 47.3781 129.072C46.9061 129.072 46.4741 128.98 46.0821 128.796C45.6901 128.612 45.3661 128.344 45.1101 127.992V129H44.0061V120.096H45.1581V123.6C45.4141 123.264 45.7341 123.012 46.1181 122.844C46.5021 122.668 46.9221 122.58 47.3781 122.58ZM47.2821 128.064C47.6901 128.064 48.0541 127.972 48.3741 127.788C48.7021 127.596 48.9581 127.332 49.1421 126.996C49.3341 126.652 49.4301 126.26 49.4301 125.82C49.4301 125.38 49.3341 124.992 49.1421 124.656C48.9581 124.312 48.7021 124.048 48.3741 123.864C48.0541 123.68 47.6901 123.588 47.2821 123.588C46.8821 123.588 46.5181 123.68 46.1901 123.864C45.8621 124.048 45.6061 124.312 45.4221 124.656C45.2381 124.992 45.1461 125.38 45.1461 125.82C45.1461 126.26 45.2381 126.652 45.4221 126.996C45.6061 127.332 45.8621 127.596 46.1901 127.788C46.5181 127.972 46.8821 128.064 47.2821 128.064ZM57.9338 125.856C57.9338 125.944 57.9258 126.06 57.9098 126.204H52.7498C52.8218 126.764 53.0658 127.216 53.4818 127.56C53.9058 127.896 54.4298 128.064 55.0538 128.064C55.8138 128.064 56.4258 127.808 56.8898 127.296L57.5258 128.04C57.2378 128.376 56.8778 128.632 56.4458 128.808C56.0218 128.984 55.5458 129.072 55.0178 129.072C54.3458 129.072 53.7498 128.936 53.2298 128.664C52.7098 128.384 52.3058 127.996 52.0178 127.5C51.7378 127.004 51.5978 126.444 51.5978 125.82C51.5978 125.204 51.7338 124.648 52.0058 124.152C52.2858 123.656 52.6658 123.272 53.1458 123C53.6338 122.72 54.1818 122.58 54.7898 122.58C55.3978 122.58 55.9378 122.72 56.4098 123C56.8898 123.272 57.2618 123.656 57.5258 124.152C57.7978 124.648 57.9338 125.216 57.9338 125.856ZM54.7898 123.552C54.2378 123.552 53.7738 123.72 53.3978 124.056C53.0298 124.392 52.8138 124.832 52.7498 125.376H56.8298C56.7658 124.84 56.5458 124.404 56.1698 124.068C55.8018 123.724 55.3418 123.552 54.7898 123.552ZM60.6374 123.708C60.8374 123.34 61.1334 123.06 61.5254 122.868C61.9174 122.676 62.3934 122.58 62.9534 122.58V123.696C62.8894 123.688 62.8014 123.684 62.6894 123.684C62.0654 123.684 61.5734 123.872 61.2134 124.248C60.8614 124.616 60.6854 125.144 60.6854 125.832V129H59.5334V122.64H60.6374V123.708ZM66.6775 122.58C67.5575 122.58 68.2295 122.796 68.6935 123.228C69.1655 123.66 69.4015 124.304 69.4015 125.16V129H68.3095V128.16C68.1175 128.456 67.8415 128.684 67.4815 128.844C67.1295 128.996 66.7095 129.072 66.2215 129.072C65.5095 129.072 64.9375 128.9 64.5055 128.556C64.0815 128.212 63.8695 127.76 63.8695 127.2C63.8695 126.64 64.0735 126.192 64.4815 125.856C64.8895 125.512 65.5375 125.34 66.4255 125.34H68.2495V125.112C68.2495 124.616 68.1055 124.236 67.8175 123.972C67.5295 123.708 67.1055 123.576 66.5455 123.576C66.1695 123.576 65.8015 123.64 65.4415 123.768C65.0815 123.888 64.7775 124.052 64.5295 124.26L64.0495 123.396C64.3775 123.132 64.7695 122.932 65.2255 122.796C65.6815 122.652 66.1655 122.58 66.6775 122.58ZM66.4135 128.184C66.8535 128.184 67.2335 128.088 67.5535 127.896C67.8735 127.696 68.1055 127.416 68.2495 127.056V126.168H66.4735C65.4975 126.168 65.0095 126.496 65.0095 127.152C65.0095 127.472 65.1335 127.724 65.3815 127.908C65.6295 128.092 65.9735 128.184 66.4135 128.184ZM74.7561 120.096H75.9081V129H74.7561V120.096ZM80.4236 122.58C81.3036 122.58 81.9756 122.796 82.4396 123.228C82.9116 123.66 83.1476 124.304 83.1476 125.16V129H82.0556V128.16C81.8636 128.456 81.5876 128.684 81.2276 128.844C80.8756 128.996 80.4556 129.072 79.9676 129.072C79.2556 129.072 78.6836 128.9 78.2516 128.556C77.8276 128.212 77.6156 127.76 77.6156 127.2C77.6156 126.64 77.8196 126.192 78.2276 125.856C78.6356 125.512 79.2836 125.34 80.1716 125.34H81.9956V125.112C81.9956 124.616 81.8516 124.236 81.5636 123.972C81.2756 123.708 80.8516 123.576 80.2916 123.576C79.9156 123.576 79.5476 123.64 79.1876 123.768C78.8276 123.888 78.5236 124.052 78.2756 124.26L77.7956 123.396C78.1236 123.132 78.5156 122.932 78.9716 122.796C79.4276 122.652 79.9116 122.58 80.4236 122.58ZM80.1596 128.184C80.5996 128.184 80.9796 128.088 81.2996 127.896C81.6196 127.696 81.8516 127.416 81.9956 127.056V126.168H80.2196C79.2436 126.168 78.7556 126.496 78.7556 127.152C78.7556 127.472 78.8796 127.724 79.1276 127.908C79.3756 128.092 79.7196 128.184 80.1596 128.184ZM87.1035 129.072C86.5835 129.072 86.0835 129.004 85.6035 128.868C85.1235 128.724 84.7475 128.544 84.4755 128.328L84.9555 127.416C85.2355 127.616 85.5755 127.776 85.9755 127.896C86.3755 128.016 86.7795 128.076 87.1875 128.076C88.1955 128.076 88.6995 127.788 88.6995 127.212C88.6995 127.02 88.6315 126.868 88.4955 126.756C88.3595 126.644 88.1875 126.564 87.9795 126.516C87.7795 126.46 87.4915 126.4 87.1155 126.336C86.6035 126.256 86.1835 126.164 85.8555 126.06C85.5355 125.956 85.2595 125.78 85.0275 125.532C84.7955 125.284 84.6795 124.936 84.6795 124.488C84.6795 123.912 84.9195 123.452 85.3995 123.108C85.8795 122.756 86.5235 122.58 87.3315 122.58C87.7555 122.58 88.1795 122.632 88.6035 122.736C89.0275 122.84 89.3755 122.98 89.6475 123.156L89.1555 124.068C88.6355 123.732 88.0235 123.564 87.3195 123.564C86.8315 123.564 86.4595 123.644 86.2035 123.804C85.9475 123.964 85.8195 124.176 85.8195 124.44C85.8195 124.648 85.8915 124.812 86.0355 124.932C86.1795 125.052 86.3555 125.14 86.5635 125.196C86.7795 125.252 87.0795 125.316 87.4635 125.388C87.9755 125.476 88.3875 125.572 88.6995 125.676C89.0195 125.772 89.2915 125.94 89.5155 126.18C89.7395 126.42 89.8515 126.756 89.8515 127.188C89.8515 127.764 89.6035 128.224 89.1075 128.568C88.6195 128.904 87.9515 129.072 87.1035 129.072ZM97.2859 129.072C96.6379 129.072 96.0579 128.932 95.5459 128.652C95.0419 128.372 94.6459 127.988 94.3579 127.5C94.0699 127.004 93.9259 126.444 93.9259 125.82C93.9259 125.196 94.0699 124.64 94.3579 124.152C94.6459 123.656 95.0419 123.272 95.5459 123C96.0579 122.72 96.6379 122.58 97.2859 122.58C97.8619 122.58 98.3739 122.696 98.8219 122.928C99.2779 123.16 99.6299 123.496 99.8779 123.936L99.0019 124.5C98.8019 124.196 98.5539 123.968 98.2579 123.816C97.9619 123.664 97.6339 123.588 97.2739 123.588C96.8579 123.588 96.4819 123.68 96.1459 123.864C95.8179 124.048 95.5579 124.312 95.3659 124.656C95.1819 124.992 95.0899 125.38 95.0899 125.82C95.0899 126.268 95.1819 126.664 95.3659 127.008C95.5579 127.344 95.8179 127.604 96.1459 127.788C96.4819 127.972 96.8579 128.064 97.2739 128.064C97.6339 128.064 97.9619 127.988 98.2579 127.836C98.5539 127.684 98.8019 127.456 99.0019 127.152L99.8779 127.704C99.6299 128.144 99.2779 128.484 98.8219 128.724C98.3739 128.956 97.8619 129.072 97.2859 129.072ZM103.685 122.58C104.565 122.58 105.237 122.796 105.701 123.228C106.173 123.66 106.409 124.304 106.409 125.16V129H105.317V128.16C105.125 128.456 104.849 128.684 104.489 128.844C104.137 128.996 103.717 129.072 103.229 129.072C102.517 129.072 101.945 128.9 101.513 128.556C101.089 128.212 100.877 127.76 100.877 127.2C100.877 126.64 101.081 126.192 101.489 125.856C101.897 125.512 102.545 125.34 103.433 125.34H105.257V125.112C105.257 124.616 105.113 124.236 104.825 123.972C104.537 123.708 104.113 123.576 103.553 123.576C103.177 123.576 102.809 123.64 102.449 123.768C102.089 123.888 101.785 124.052 101.537 124.26L101.057 123.396C101.385 123.132 101.777 122.932 102.233 122.796C102.689 122.652 103.173 122.58 103.685 122.58ZM103.421 128.184C103.861 128.184 104.241 128.088 104.561 127.896C104.881 127.696 105.113 127.416 105.257 127.056V126.168H103.481C102.505 126.168 102.017 126.496 102.017 127.152C102.017 127.472 102.141 127.724 102.389 127.908C102.637 128.092 102.981 128.184 103.421 128.184ZM109.645 123.708C109.845 123.34 110.141 123.06 110.533 122.868C110.925 122.676 111.401 122.58 111.961 122.58V123.696C111.897 123.688 111.809 123.684 111.697 123.684C111.073 123.684 110.581 123.872 110.221 124.248C109.869 124.616 109.693 125.144 109.693 125.832V129H108.541V122.64H109.645V123.708ZM115.685 122.58C116.565 122.58 117.237 122.796 117.701 123.228C118.173 123.66 118.409 124.304 118.409 125.16V129H117.317V128.16C117.125 128.456 116.849 128.684 116.489 128.844C116.137 128.996 115.717 129.072 115.229 129.072C114.517 129.072 113.945 128.9 113.513 128.556C113.089 128.212 112.877 127.76 112.877 127.2C112.877 126.64 113.081 126.192 113.489 125.856C113.897 125.512 114.545 125.34 115.433 125.34H117.257V125.112C117.257 124.616 117.113 124.236 116.825 123.972C116.537 123.708 116.113 123.576 115.553 123.576C115.177 123.576 114.809 123.64 114.449 123.768C114.089 123.888 113.785 124.052 113.537 124.26L113.057 123.396C113.385 123.132 113.777 122.932 114.233 122.796C114.689 122.652 115.173 122.58 115.685 122.58ZM115.421 128.184C115.861 128.184 116.241 128.088 116.561 127.896C116.881 127.696 117.113 127.416 117.257 127.056V126.168H115.481C114.505 126.168 114.017 126.496 114.017 127.152C114.017 127.472 114.141 127.724 114.389 127.908C114.637 128.092 114.981 128.184 115.421 128.184ZM122.365 129.072C121.845 129.072 121.345 129.004 120.865 128.868C120.385 128.724 120.009 128.544 119.737 128.328L120.217 127.416C120.497 127.616 120.837 127.776 121.237 127.896C121.637 128.016 122.041 128.076 122.449 128.076C123.457 128.076 123.961 127.788 123.961 127.212C123.961 127.02 123.893 126.868 123.757 126.756C123.621 126.644 123.449 126.564 123.241 126.516C123.041 126.46 122.753 126.4 122.377 126.336C121.865 126.256 121.445 126.164 121.117 126.06C120.797 125.956 120.521 125.78 120.289 125.532C120.057 125.284 119.941 124.936 119.941 124.488C119.941 123.912 120.181 123.452 120.661 123.108C121.141 122.756 121.785 122.58 122.593 122.58C123.017 122.58 123.441 122.632 123.865 122.736C124.289 122.84 124.637 122.98 124.909 123.156L124.417 124.068C123.897 123.732 123.285 123.564 122.581 123.564C122.093 123.564 121.721 123.644 121.465 123.804C121.209 123.964 121.081 124.176 121.081 124.44C121.081 124.648 121.153 124.812 121.297 124.932C121.441 125.052 121.617 125.14 121.825 125.196C122.041 125.252 122.341 125.316 122.725 125.388C123.237 125.476 123.649 125.572 123.961 125.676C124.281 125.772 124.553 125.94 124.777 126.18C125.001 126.42 125.113 126.756 125.113 127.188C125.113 127.764 124.865 128.224 124.369 128.568C123.881 128.904 123.213 129.072 122.365 129.072ZM135.776 120.096V129H134.672V127.992C134.416 128.344 134.092 128.612 133.7 128.796C133.308 128.98 132.876 129.072 132.404 129.072C131.788 129.072 131.236 128.936 130.748 128.664C130.26 128.392 129.876 128.012 129.596 127.524C129.324 127.028 129.188 126.46 129.188 125.82C129.188 125.18 129.324 124.616 129.596 124.128C129.876 123.64 130.26 123.26 130.748 122.988C131.236 122.716 131.788 122.58 132.404 122.58C132.86 122.58 133.28 122.668 133.664 122.844C134.048 123.012 134.368 123.264 134.624 123.6V120.096H135.776ZM132.5 128.064C132.9 128.064 133.264 127.972 133.592 127.788C133.92 127.596 134.176 127.332 134.36 126.996C134.544 126.652 134.636 126.26 134.636 125.82C134.636 125.38 134.544 124.992 134.36 124.656C134.176 124.312 133.92 124.048 133.592 123.864C133.264 123.68 132.9 123.588 132.5 123.588C132.092 123.588 131.724 123.68 131.396 123.864C131.076 124.048 130.82 124.312 130.628 124.656C130.444 124.992 130.352 125.38 130.352 125.82C130.352 126.26 130.444 126.652 130.628 126.996C130.82 127.332 131.076 127.596 131.396 127.788C131.724 127.972 132.092 128.064 132.5 128.064ZM143.703 125.856C143.703 125.944 143.695 126.06 143.679 126.204H138.519C138.591 126.764 138.835 127.216 139.251 127.56C139.675 127.896 140.199 128.064 140.823 128.064C141.583 128.064 142.195 127.808 142.659 127.296L143.295 128.04C143.007 128.376 142.647 128.632 142.215 128.808C141.791 128.984 141.315 129.072 140.787 129.072C140.115 129.072 139.519 128.936 138.999 128.664C138.479 128.384 138.075 127.996 137.787 127.5C137.507 127.004 137.367 126.444 137.367 125.82C137.367 125.204 137.503 124.648 137.775 124.152C138.055 123.656 138.435 123.272 138.915 123C139.403 122.72 139.951 122.58 140.559 122.58C141.167 122.58 141.707 122.72 142.179 123C142.659 123.272 143.031 123.656 143.295 124.152C143.567 124.648 143.703 125.216 143.703 125.856ZM140.559 123.552C140.007 123.552 139.543 123.72 139.167 124.056C138.799 124.392 138.583 124.832 138.519 125.376H142.599C142.535 124.84 142.315 124.404 141.939 124.068C141.571 123.724 141.111 123.552 140.559 123.552ZM145.303 120.096H146.455V129H145.303V120.096ZM29.1671 137.58C29.7831 137.58 30.3351 137.716 30.8231 137.988C31.3111 138.26 31.6911 138.64 31.9631 139.128C32.2431 139.616 32.3831 140.18 32.3831 140.82C32.3831 141.46 32.2431 142.028 31.9631 142.524C31.6911 143.012 31.3111 143.392 30.8231 143.664C30.3351 143.936 29.7831 144.072 29.1671 144.072C28.7111 144.072 28.2911 143.984 27.9071 143.808C27.5311 143.632 27.2111 143.376 26.9471 143.04V146.328H25.7951V137.64H26.8991V138.648C27.1551 138.296 27.4791 138.032 27.8711 137.856C28.2631 137.672 28.6951 137.58 29.1671 137.58ZM29.0711 143.064C29.4791 143.064 29.8431 142.972 30.1631 142.788C30.4911 142.596 30.7471 142.332 30.9311 141.996C31.1231 141.652 31.2191 141.26 31.2191 140.82C31.2191 140.38 31.1231 139.992 30.9311 139.656C30.7471 139.312 30.4911 139.048 30.1631 138.864C29.8431 138.68 29.4791 138.588 29.0711 138.588C28.6711 138.588 28.3071 138.684 27.9791 138.876C27.6591 139.06 27.4031 139.32 27.2111 139.656C27.0271 139.992 26.9351 140.38 26.9351 140.82C26.9351 141.26 27.0271 141.652 27.2111 141.996C27.3951 142.332 27.6511 142.596 27.9791 142.788C28.3071 142.972 28.6711 143.064 29.0711 143.064ZM36.2322 137.58C37.1122 137.58 37.7842 137.796 38.2482 138.228C38.7202 138.66 38.9562 139.304 38.9562 140.16V144H37.8642V143.16C37.6722 143.456 37.3962 143.684 37.0362 143.844C36.6842 143.996 36.2642 144.072 35.7762 144.072C35.0642 144.072 34.4922 143.9 34.0602 143.556C33.6362 143.212 33.4242 142.76 33.4242 142.2C33.4242 141.64 33.6282 141.192 34.0362 140.856C34.4442 140.512 35.0922 140.34 35.9802 140.34H37.8042V140.112C37.8042 139.616 37.6602 139.236 37.3722 138.972C37.0842 138.708 36.6602 138.576 36.1002 138.576C35.7242 138.576 35.3562 138.64 34.9962 138.768C34.6362 138.888 34.3322 139.052 34.0842 139.26L33.6042 138.396C33.9322 138.132 34.3242 137.932 34.7802 137.796C35.2362 137.652 35.7202 137.58 36.2322 137.58ZM35.9682 143.184C36.4082 143.184 36.7882 143.088 37.1082 142.896C37.4282 142.696 37.6602 142.416 37.8042 142.056V141.168H36.0282C35.0522 141.168 34.5642 141.496 34.5642 142.152C34.5642 142.472 34.6882 142.724 34.9362 142.908C35.1842 143.092 35.5282 143.184 35.9682 143.184ZM44.4601 137.58C45.0761 137.58 45.6281 137.716 46.1161 137.988C46.6041 138.26 46.9841 138.64 47.2561 139.128C47.5361 139.616 47.6761 140.18 47.6761 140.82C47.6761 141.46 47.5361 142.028 47.2561 142.524C46.9841 143.012 46.6041 143.392 46.1161 143.664C45.6281 143.936 45.0761 144.072 44.4601 144.072C44.0041 144.072 43.5841 143.984 43.2001 143.808C42.8241 143.632 42.5041 143.376 42.2401 143.04V146.328H41.0881V137.64H42.1921V138.648C42.4481 138.296 42.7721 138.032 43.1641 137.856C43.5561 137.672 43.9881 137.58 44.4601 137.58ZM44.3641 143.064C44.7721 143.064 45.1361 142.972 45.4561 142.788C45.7841 142.596 46.0401 142.332 46.2241 141.996C46.4161 141.652 46.5121 141.26 46.5121 140.82C46.5121 140.38 46.4161 139.992 46.2241 139.656C46.0401 139.312 45.7841 139.048 45.4561 138.864C45.1361 138.68 44.7721 138.588 44.3641 138.588C43.9641 138.588 43.6001 138.684 43.2721 138.876C42.9521 139.06 42.6961 139.32 42.5041 139.656C42.3201 139.992 42.2281 140.38 42.2281 140.82C42.2281 141.26 42.3201 141.652 42.5041 141.996C42.6881 142.332 42.9441 142.596 43.2721 142.788C43.6001 142.972 43.9641 143.064 44.3641 143.064ZM55.0158 140.856C55.0158 140.944 55.0078 141.06 54.9918 141.204H49.8318C49.9038 141.764 50.1478 142.216 50.5638 142.56C50.9878 142.896 51.5118 143.064 52.1358 143.064C52.8958 143.064 53.5078 142.808 53.9718 142.296L54.6078 143.04C54.3198 143.376 53.9598 143.632 53.5278 143.808C53.1038 143.984 52.6278 144.072 52.0998 144.072C51.4278 144.072 50.8318 143.936 50.3118 143.664C49.7918 143.384 49.3878 142.996 49.0998 142.5C48.8198 142.004 48.6798 141.444 48.6798 140.82C48.6798 140.204 48.8158 139.648 49.0878 139.152C49.3678 138.656 49.7478 138.272 50.2278 138C50.7158 137.72 51.2638 137.58 51.8718 137.58C52.4798 137.58 53.0198 137.72 53.4918 138C53.9718 138.272 54.3438 138.656 54.6078 139.152C54.8798 139.648 55.0158 140.216 55.0158 140.856ZM51.8718 138.552C51.3198 138.552 50.8558 138.72 50.4798 139.056C50.1118 139.392 49.8958 139.832 49.8318 140.376H53.9118C53.8478 139.84 53.6278 139.404 53.2518 139.068C52.8838 138.724 52.4238 138.552 51.8718 138.552ZM56.6154 135.096H57.7674V144H56.6154V135.096ZM69.1897 137.64V146.328H68.0377V143.04C67.7737 143.376 67.4497 143.632 67.0657 143.808C66.6897 143.984 66.2737 144.072 65.8177 144.072C65.2017 144.072 64.6497 143.936 64.1617 143.664C63.6737 143.392 63.2897 143.012 63.0097 142.524C62.7377 142.028 62.6017 141.46 62.6017 140.82C62.6017 140.18 62.7377 139.616 63.0097 139.128C63.2897 138.64 63.6737 138.26 64.1617 137.988C64.6497 137.716 65.2017 137.58 65.8177 137.58C66.2897 137.58 66.7217 137.672 67.1137 137.856C67.5057 138.032 67.8297 138.296 68.0857 138.648V137.64H69.1897ZM65.9137 143.064C66.3137 143.064 66.6777 142.972 67.0057 142.788C67.3337 142.596 67.5897 142.332 67.7737 141.996C67.9577 141.652 68.0497 141.26 68.0497 140.82C68.0497 140.38 67.9537 139.992 67.7617 139.656C67.5777 139.32 67.3217 139.06 66.9937 138.876C66.6737 138.684 66.3137 138.588 65.9137 138.588C65.5057 138.588 65.1377 138.68 64.8097 138.864C64.4897 139.048 64.2337 139.312 64.0417 139.656C63.8577 139.992 63.7657 140.38 63.7657 140.82C63.7657 141.26 63.8577 141.652 64.0417 141.996C64.2337 142.332 64.4897 142.596 64.8097 142.788C65.1377 142.972 65.5057 143.064 65.9137 143.064ZM77.2973 137.64V144H76.2053V143.04C75.9733 143.368 75.6653 143.624 75.2813 143.808C74.9053 143.984 74.4933 144.072 74.0453 144.072C73.1973 144.072 72.5293 143.84 72.0413 143.376C71.5533 142.904 71.3093 142.212 71.3093 141.3V137.64H72.4613V141.168C72.4613 141.784 72.6093 142.252 72.9053 142.572C73.2013 142.884 73.6253 143.04 74.1773 143.04C74.7853 143.04 75.2653 142.856 75.6173 142.488C75.9693 142.12 76.1453 141.6 76.1453 140.928V137.64H77.2973ZM85.2384 140.856C85.2384 140.944 85.2304 141.06 85.2144 141.204H80.0544C80.1264 141.764 80.3704 142.216 80.7864 142.56C81.2104 142.896 81.7344 143.064 82.3584 143.064C83.1184 143.064 83.7304 142.808 84.1944 142.296L84.8304 143.04C84.5424 143.376 84.1824 143.632 83.7504 143.808C83.3264 143.984 82.8504 144.072 82.3224 144.072C81.6504 144.072 81.0544 143.936 80.5344 143.664C80.0144 143.384 79.6104 142.996 79.3224 142.5C79.0424 142.004 78.9024 141.444 78.9024 140.82C78.9024 140.204 79.0384 139.648 79.3104 139.152C79.5904 138.656 79.9704 138.272 80.4504 138C80.9384 137.72 81.4864 137.58 82.0944 137.58C82.7024 137.58 83.2424 137.72 83.7144 138C84.1944 138.272 84.5664 138.656 84.8304 139.152C85.1024 139.648 85.2384 140.216 85.2384 140.856ZM82.0944 138.552C81.5424 138.552 81.0784 138.72 80.7024 139.056C80.3344 139.392 80.1184 139.832 80.0544 140.376H84.1344C84.0704 139.84 83.8504 139.404 83.4744 139.068C83.1064 138.724 82.6464 138.552 82.0944 138.552ZM95.8088 140.856C95.8088 140.944 95.8008 141.06 95.7848 141.204H90.6248C90.6968 141.764 90.9408 142.216 91.3568 142.56C91.7808 142.896 92.3048 143.064 92.9288 143.064C93.6888 143.064 94.3008 142.808 94.7648 142.296L95.4008 143.04C95.1128 143.376 94.7528 143.632 94.3208 143.808C93.8968 143.984 93.4208 144.072 92.8928 144.072C92.2208 144.072 91.6248 143.936 91.1048 143.664C90.5848 143.384 90.1808 142.996 89.8928 142.5C89.6128 142.004 89.4728 141.444 89.4728 140.82C89.4728 140.204 89.6088 139.648 89.8808 139.152C90.1608 138.656 90.5408 138.272 91.0208 138C91.5088 137.72 92.0568 137.58 92.6648 137.58C93.2728 137.58 93.8128 137.72 94.2848 138C94.7648 138.272 95.1368 138.656 95.4008 139.152C95.6728 139.648 95.8088 140.216 95.8088 140.856ZM92.6648 138.552C92.1128 138.552 91.6488 138.72 91.2728 139.056C90.9048 139.392 90.6888 139.832 90.6248 140.376H94.7048C94.6408 139.84 94.4208 139.404 94.0448 139.068C93.6768 138.724 93.2168 138.552 92.6648 138.552ZM99.2324 144.072C98.7124 144.072 98.2124 144.004 97.7324 143.868C97.2524 143.724 96.8764 143.544 96.6044 143.328L97.0844 142.416C97.3644 142.616 97.7044 142.776 98.1044 142.896C98.5044 143.016 98.9084 143.076 99.3164 143.076C100.324 143.076 100.828 142.788 100.828 142.212C100.828 142.02 100.76 141.868 100.624 141.756C100.488 141.644 100.316 141.564 100.108 141.516C99.9084 141.46 99.6204 141.4 99.2444 141.336C98.7324 141.256 98.3124 141.164 97.9844 141.06C97.6644 140.956 97.3884 140.78 97.1564 140.532C96.9244 140.284 96.8084 139.936 96.8084 139.488C96.8084 138.912 97.0484 138.452 97.5284 138.108C98.0084 137.756 98.6524 137.58 99.4604 137.58C99.8844 137.58 100.308 137.632 100.732 137.736C101.156 137.84 101.504 137.98 101.776 138.156L101.284 139.068C100.764 138.732 100.152 138.564 99.4484 138.564C98.9604 138.564 98.5884 138.644 98.3324 138.804C98.0764 138.964 97.9484 139.176 97.9484 139.44C97.9484 139.648 98.0204 139.812 98.1644 139.932C98.3084 140.052 98.4844 140.14 98.6924 140.196C98.9084 140.252 99.2084 140.316 99.5924 140.388C100.104 140.476 100.516 140.572 100.828 140.676C101.148 140.772 101.42 140.94 101.644 141.18C101.868 141.42 101.98 141.756 101.98 142.188C101.98 142.764 101.732 143.224 101.236 143.568C100.748 143.904 100.08 144.072 99.2324 144.072ZM106.996 143.628C106.828 143.772 106.62 143.884 106.372 143.964C106.124 144.036 105.868 144.072 105.604 144.072C104.964 144.072 104.468 143.9 104.116 143.556C103.764 143.212 103.588 142.72 103.588 142.08V138.588H102.508V137.64H103.588V136.248H104.74V137.64H106.564V138.588H104.74V142.032C104.74 142.376 104.824 142.64 104.992 142.824C105.168 143.008 105.416 143.1 105.736 143.1C106.088 143.1 106.388 143 106.636 142.8L106.996 143.628ZM110.705 137.58C111.585 137.58 112.257 137.796 112.721 138.228C113.193 138.66 113.429 139.304 113.429 140.16V144H112.337V143.16C112.145 143.456 111.869 143.684 111.509 143.844C111.157 143.996 110.737 144.072 110.249 144.072C109.537 144.072 108.965 143.9 108.533 143.556C108.109 143.212 107.897 142.76 107.897 142.2C107.897 141.64 108.101 141.192 108.509 140.856C108.917 140.512 109.565 140.34 110.453 140.34H112.277V140.112C112.277 139.616 112.133 139.236 111.845 138.972C111.557 138.708 111.133 138.576 110.573 138.576C110.197 138.576 109.829 138.64 109.469 138.768C109.109 138.888 108.805 139.052 108.557 139.26L108.077 138.396C108.405 138.132 108.797 137.932 109.253 137.796C109.709 137.652 110.193 137.58 110.705 137.58ZM110.441 143.184C110.881 143.184 111.261 143.088 111.581 142.896C111.901 142.696 112.133 142.416 112.277 142.056V141.168H110.501C109.525 141.168 109.037 141.496 109.037 142.152C109.037 142.472 109.161 142.724 109.409 142.908C109.657 143.092 110.001 143.184 110.441 143.184ZM111.521 135.156H112.985L110.969 136.716H109.889L111.521 135.156ZM118.957 137.58C119.765 137.58 120.405 137.816 120.877 138.288C121.357 138.752 121.597 139.436 121.597 140.34V144H120.445V140.472C120.445 139.856 120.297 139.392 120.001 139.08C119.705 138.768 119.281 138.612 118.729 138.612C118.105 138.612 117.613 138.796 117.253 139.164C116.893 139.524 116.713 140.044 116.713 140.724V144H115.561V137.64H116.665V138.6C116.897 138.272 117.209 138.02 117.601 137.844C118.001 137.668 118.453 137.58 118.957 137.58ZM132.699 140.856C132.699 140.944 132.691 141.06 132.675 141.204H127.515C127.587 141.764 127.831 142.216 128.247 142.56C128.671 142.896 129.195 143.064 129.819 143.064C130.579 143.064 131.191 142.808 131.655 142.296L132.291 143.04C132.003 143.376 131.643 143.632 131.211 143.808C130.787 143.984 130.311 144.072 129.783 144.072C129.111 144.072 128.515 143.936 127.995 143.664C127.475 143.384 127.071 142.996 126.783 142.5C126.503 142.004 126.363 141.444 126.363 140.82C126.363 140.204 126.499 139.648 126.771 139.152C127.051 138.656 127.431 138.272 127.911 138C128.399 137.72 128.947 137.58 129.555 137.58C130.163 137.58 130.703 137.72 131.175 138C131.655 138.272 132.027 138.656 132.291 139.152C132.563 139.648 132.699 140.216 132.699 140.856ZM129.555 138.552C129.003 138.552 128.539 138.72 128.163 139.056C127.795 139.392 127.579 139.832 127.515 140.376H131.595C131.531 139.84 131.311 139.404 130.935 139.068C130.567 138.724 130.107 138.552 129.555 138.552ZM137.695 137.58C138.503 137.58 139.143 137.816 139.615 138.288C140.095 138.752 140.335 139.436 140.335 140.34V144H139.183V140.472C139.183 139.856 139.035 139.392 138.739 139.08C138.443 138.768 138.019 138.612 137.467 138.612C136.843 138.612 136.351 138.796 135.991 139.164C135.631 139.524 135.451 140.044 135.451 140.724V144H134.299V137.64H135.403V138.6C135.635 138.272 135.947 138.02 136.339 137.844C136.739 137.668 137.191 137.58 137.695 137.58ZM151.438 140.856C151.438 140.944 151.43 141.06 151.414 141.204H146.254C146.326 141.764 146.57 142.216 146.986 142.56C147.41 142.896 147.934 143.064 148.558 143.064C149.318 143.064 149.93 142.808 150.394 142.296L151.03 143.04C150.742 143.376 150.382 143.632 149.95 143.808C149.526 143.984 149.05 144.072 148.522 144.072C147.85 144.072 147.254 143.936 146.734 143.664C146.214 143.384 145.81 142.996 145.522 142.5C145.242 142.004 145.102 141.444 145.102 140.82C145.102 140.204 145.238 139.648 145.51 139.152C145.79 138.656 146.17 138.272 146.65 138C147.138 137.72 147.686 137.58 148.294 137.58C148.902 137.58 149.442 137.72 149.914 138C150.394 138.272 150.766 138.656 151.03 139.152C151.302 139.648 151.438 140.216 151.438 140.856ZM148.294 138.552C147.742 138.552 147.278 138.72 146.902 139.056C146.534 139.392 146.318 139.832 146.254 140.376H150.334C150.27 139.84 150.05 139.404 149.674 139.068C149.306 138.724 148.846 138.552 148.294 138.552ZM153.037 135.096H154.189V144H153.037V135.096ZM34.549 152.64H35.701V159H34.549V152.64ZM35.125 151.416C34.901 151.416 34.713 151.344 34.561 151.2C34.417 151.056 34.345 150.88 34.345 150.672C34.345 150.464 34.417 150.288 34.561 150.144C34.713 149.992 34.901 149.916 35.125 149.916C35.349 149.916 35.533 149.988 35.677 150.132C35.829 150.268 35.905 150.44 35.905 150.648C35.905 150.864 35.829 151.048 35.677 151.2C35.533 151.344 35.349 151.416 35.125 151.416ZM41.2966 152.58C42.1046 152.58 42.7446 152.816 43.2166 153.288C43.6966 153.752 43.9366 154.436 43.9366 155.34V159H42.7846V155.472C42.7846 154.856 42.6366 154.392 42.3406 154.08C42.0446 153.768 41.6206 153.612 41.0686 153.612C40.4446 153.612 39.9526 153.796 39.5926 154.164C39.2326 154.524 39.0526 155.044 39.0526 155.724V159H37.9006V152.64H39.0046V153.6C39.2366 153.272 39.5486 153.02 39.9406 152.844C40.3406 152.668 40.7926 152.58 41.2966 152.58ZM49.6446 158.628C49.4766 158.772 49.2686 158.884 49.0206 158.964C48.7726 159.036 48.5166 159.072 48.2526 159.072C47.6126 159.072 47.1166 158.9 46.7646 158.556C46.4126 158.212 46.2366 157.72 46.2366 157.08V153.588H45.1566V152.64H46.2366V151.248H47.3886V152.64H49.2126V153.588H47.3886V157.032C47.3886 157.376 47.4726 157.64 47.6406 157.824C47.8166 158.008 48.0646 158.1 48.3846 158.1C48.7366 158.1 49.0366 158 49.2846 157.8L49.6446 158.628ZM56.5744 155.856C56.5744 155.944 56.5664 156.06 56.5504 156.204H51.3904C51.4624 156.764 51.7064 157.216 52.1224 157.56C52.5464 157.896 53.0704 158.064 53.6944 158.064C54.4544 158.064 55.0664 157.808 55.5304 157.296L56.1664 158.04C55.8784 158.376 55.5184 158.632 55.0864 158.808C54.6624 158.984 54.1864 159.072 53.6584 159.072C52.9864 159.072 52.3904 158.936 51.8704 158.664C51.3504 158.384 50.9464 157.996 50.6584 157.5C50.3784 157.004 50.2384 156.444 50.2384 155.82C50.2384 155.204 50.3744 154.648 50.6464 154.152C50.9264 153.656 51.3064 153.272 51.7864 153C52.2744 152.72 52.8224 152.58 53.4304 152.58C54.0384 152.58 54.5784 152.72 55.0504 153C55.5304 153.272 55.9024 153.656 56.1664 154.152C56.4384 154.648 56.5744 155.216 56.5744 155.856ZM53.4304 153.552C52.8784 153.552 52.4144 153.72 52.0384 154.056C51.6704 154.392 51.4544 154.832 51.3904 155.376H55.4704C55.4064 154.84 55.1864 154.404 54.8104 154.068C54.4424 153.724 53.9824 153.552 53.4304 153.552ZM59.278 153.708C59.478 153.34 59.774 153.06 60.166 152.868C60.558 152.676 61.034 152.58 61.594 152.58V153.696C61.53 153.688 61.442 153.684 61.33 153.684C60.706 153.684 60.214 153.872 59.854 154.248C59.502 154.616 59.326 155.144 59.326 155.832V159H58.174V152.64H59.278V153.708ZM63.0139 152.64H64.1659V159H63.0139V152.64ZM63.5899 151.416C63.3659 151.416 63.1779 151.344 63.0259 151.2C62.8819 151.056 62.8099 150.88 62.8099 150.672C62.8099 150.464 62.8819 150.288 63.0259 150.144C63.1779 149.992 63.3659 149.916 63.5899 149.916C63.8139 149.916 63.9979 149.988 64.1419 150.132C64.2939 150.268 64.3699 150.44 64.3699 150.648C64.3699 150.864 64.2939 151.048 64.1419 151.2C63.9979 151.344 63.8139 151.416 63.5899 151.416ZM69.0894 159.072C68.4574 159.072 67.8894 158.932 67.3854 158.652C66.8814 158.372 66.4854 157.988 66.1974 157.5C65.9174 157.004 65.7774 156.444 65.7774 155.82C65.7774 155.196 65.9174 154.64 66.1974 154.152C66.4854 153.656 66.8814 153.272 67.3854 153C67.8894 152.72 68.4574 152.58 69.0894 152.58C69.7214 152.58 70.2854 152.72 70.7814 153C71.2854 153.272 71.6774 153.656 71.9574 154.152C72.2454 154.64 72.3894 155.196 72.3894 155.82C72.3894 156.444 72.2454 157.004 71.9574 157.5C71.6774 157.988 71.2854 158.372 70.7814 158.652C70.2854 158.932 69.7214 159.072 69.0894 159.072ZM69.0894 158.064C69.4974 158.064 69.8614 157.972 70.1814 157.788C70.5094 157.596 70.7654 157.332 70.9494 156.996C71.1334 156.652 71.2254 156.26 71.2254 155.82C71.2254 155.38 71.1334 154.992 70.9494 154.656C70.7654 154.312 70.5094 154.048 70.1814 153.864C69.8614 153.68 69.4974 153.588 69.0894 153.588C68.6814 153.588 68.3134 153.68 67.9854 153.864C67.6654 154.048 67.4094 154.312 67.2174 154.656C67.0334 154.992 66.9414 155.38 66.9414 155.82C66.9414 156.26 67.0334 156.652 67.2174 156.996C67.4094 157.332 67.6654 157.596 67.9854 157.788C68.3134 157.972 68.6814 158.064 69.0894 158.064ZM75.0866 153.708C75.2866 153.34 75.5826 153.06 75.9746 152.868C76.3666 152.676 76.8426 152.58 77.4026 152.58V153.696C77.3386 153.688 77.2506 153.684 77.1386 153.684C76.5146 153.684 76.0226 153.872 75.6626 154.248C75.3106 154.616 75.1346 155.144 75.1346 155.832V159H73.9826V152.64H75.0866V153.708ZM88.1272 150.096V159H87.0232V157.992C86.7672 158.344 86.4432 158.612 86.0512 158.796C85.6592 158.98 85.2272 159.072 84.7552 159.072C84.1392 159.072 83.5872 158.936 83.0992 158.664C82.6112 158.392 82.2272 158.012 81.9472 157.524C81.6752 157.028 81.5392 156.46 81.5392 155.82C81.5392 155.18 81.6752 154.616 81.9472 154.128C82.2272 153.64 82.6112 153.26 83.0992 152.988C83.5872 152.716 84.1392 152.58 84.7552 152.58C85.2112 152.58 85.6312 152.668 86.0152 152.844C86.3992 153.012 86.7192 153.264 86.9752 153.6V150.096H88.1272ZM84.8512 158.064C85.2512 158.064 85.6152 157.972 85.9432 157.788C86.2712 157.596 86.5272 157.332 86.7112 156.996C86.8952 156.652 86.9872 156.26 86.9872 155.82C86.9872 155.38 86.8952 154.992 86.7112 154.656C86.5272 154.312 86.2712 154.048 85.9432 153.864C85.6152 153.68 85.2512 153.588 84.8512 153.588C84.4432 153.588 84.0752 153.68 83.7472 153.864C83.4272 154.048 83.1712 154.312 82.9792 154.656C82.7952 154.992 82.7032 155.38 82.7032 155.82C82.7032 156.26 82.7952 156.652 82.9792 156.996C83.1712 157.332 83.4272 157.596 83.7472 157.788C84.0752 157.972 84.4432 158.064 84.8512 158.064ZM96.0548 155.856C96.0548 155.944 96.0468 156.06 96.0308 156.204H90.8708C90.9428 156.764 91.1868 157.216 91.6028 157.56C92.0268 157.896 92.5508 158.064 93.1748 158.064C93.9348 158.064 94.5468 157.808 95.0108 157.296L95.6468 158.04C95.3588 158.376 94.9988 158.632 94.5668 158.808C94.1428 158.984 93.6668 159.072 93.1388 159.072C92.4668 159.072 91.8708 158.936 91.3508 158.664C90.8308 158.384 90.4268 157.996 90.1388 157.5C89.8588 157.004 89.7188 156.444 89.7188 155.82C89.7188 155.204 89.8548 154.648 90.1268 154.152C90.4068 153.656 90.7868 153.272 91.2668 153C91.7548 152.72 92.3028 152.58 92.9108 152.58C93.5188 152.58 94.0588 152.72 94.5308 153C95.0108 153.272 95.3828 153.656 95.6468 154.152C95.9188 154.648 96.0548 155.216 96.0548 155.856ZM92.9108 153.552C92.3588 153.552 91.8948 153.72 91.5188 154.056C91.1508 154.392 90.9348 154.832 90.8708 155.376H94.9508C94.8868 154.84 94.6668 154.404 94.2908 154.068C93.9228 153.724 93.4628 153.552 92.9108 153.552ZM97.6545 150.096H98.8065V159H97.6545V150.096ZM110.229 150.096V159H109.125V157.992C108.869 158.344 108.545 158.612 108.153 158.796C107.761 158.98 107.329 159.072 106.857 159.072C106.241 159.072 105.689 158.936 105.201 158.664C104.713 158.392 104.329 158.012 104.049 157.524C103.777 157.028 103.641 156.46 103.641 155.82C103.641 155.18 103.777 154.616 104.049 154.128C104.329 153.64 104.713 153.26 105.201 152.988C105.689 152.716 106.241 152.58 106.857 152.58C107.313 152.58 107.733 152.668 108.117 152.844C108.501 153.012 108.821 153.264 109.077 153.6V150.096H110.229ZM106.953 158.064C107.353 158.064 107.717 157.972 108.045 157.788C108.373 157.596 108.629 157.332 108.813 156.996C108.997 156.652 109.089 156.26 109.089 155.82C109.089 155.38 108.997 154.992 108.813 154.656C108.629 154.312 108.373 154.048 108.045 153.864C107.717 153.68 107.353 153.588 106.953 153.588C106.545 153.588 106.177 153.68 105.849 153.864C105.529 154.048 105.273 154.312 105.081 154.656C104.897 154.992 104.805 155.38 104.805 155.82C104.805 156.26 104.897 156.652 105.081 156.996C105.273 157.332 105.529 157.596 105.849 157.788C106.177 157.972 106.545 158.064 106.953 158.064ZM115.132 159.072C114.5 159.072 113.932 158.932 113.428 158.652C112.924 158.372 112.528 157.988 112.24 157.5C111.96 157.004 111.82 156.444 111.82 155.82C111.82 155.196 111.96 154.64 112.24 154.152C112.528 153.656 112.924 153.272 113.428 153C113.932 152.72 114.5 152.58 115.132 152.58C115.764 152.58 116.328 152.72 116.824 153C117.328 153.272 117.72 153.656 118 154.152C118.288 154.64 118.432 155.196 118.432 155.82C118.432 156.444 118.288 157.004 118 157.5C117.72 157.988 117.328 158.372 116.824 158.652C116.328 158.932 115.764 159.072 115.132 159.072ZM115.132 158.064C115.54 158.064 115.904 157.972 116.224 157.788C116.552 157.596 116.808 157.332 116.992 156.996C117.176 156.652 117.268 156.26 117.268 155.82C117.268 155.38 117.176 154.992 116.992 154.656C116.808 154.312 116.552 154.048 116.224 153.864C115.904 153.68 115.54 153.588 115.132 153.588C114.724 153.588 114.356 153.68 114.028 153.864C113.708 154.048 113.452 154.312 113.26 154.656C113.076 154.992 112.984 155.38 112.984 155.82C112.984 156.26 113.076 156.652 113.26 156.996C113.452 157.332 113.708 157.596 114.028 157.788C114.356 157.972 114.724 158.064 115.132 158.064ZM123.398 152.58C124.014 152.58 124.566 152.716 125.054 152.988C125.542 153.26 125.922 153.64 126.194 154.128C126.474 154.616 126.614 155.18 126.614 155.82C126.614 156.46 126.474 157.028 126.194 157.524C125.922 158.012 125.542 158.392 125.054 158.664C124.566 158.936 124.014 159.072 123.398 159.072C122.926 159.072 122.494 158.98 122.102 158.796C121.71 158.612 121.386 158.344 121.13 157.992V159H120.026V150.096H121.178V153.6C121.434 153.264 121.754 153.012 122.138 152.844C122.522 152.668 122.942 152.58 123.398 152.58ZM123.302 158.064C123.71 158.064 124.074 157.972 124.394 157.788C124.722 157.596 124.978 157.332 125.162 156.996C125.354 156.652 125.45 156.26 125.45 155.82C125.45 155.38 125.354 154.992 125.162 154.656C124.978 154.312 124.722 154.048 124.394 153.864C124.074 153.68 123.71 153.588 123.302 153.588C122.902 153.588 122.538 153.68 122.21 153.864C121.882 154.048 121.626 154.312 121.442 154.656C121.258 154.992 121.166 155.38 121.166 155.82C121.166 156.26 121.258 156.652 121.442 156.996C121.626 157.332 121.882 157.596 122.21 157.788C122.538 157.972 122.902 158.064 123.302 158.064ZM128.205 150.096H129.357V159H128.205V150.096ZM137.305 155.856C137.305 155.944 137.297 156.06 137.281 156.204H132.121C132.193 156.764 132.437 157.216 132.853 157.56C133.277 157.896 133.801 158.064 134.425 158.064C135.185 158.064 135.797 157.808 136.261 157.296L136.897 158.04C136.609 158.376 136.249 158.632 135.817 158.808C135.393 158.984 134.917 159.072 134.389 159.072C133.717 159.072 133.121 158.936 132.601 158.664C132.081 158.384 131.677 157.996 131.389 157.5C131.109 157.004 130.969 156.444 130.969 155.82C130.969 155.204 131.105 154.648 131.377 154.152C131.657 153.656 132.037 153.272 132.517 153C133.005 152.72 133.553 152.58 134.161 152.58C134.769 152.58 135.309 152.72 135.781 153C136.261 153.272 136.633 153.656 136.897 154.152C137.169 154.648 137.305 155.216 137.305 155.856ZM134.161 153.552C133.609 153.552 133.145 153.72 132.769 154.056C132.401 154.392 132.185 154.832 132.121 155.376H136.201C136.137 154.84 135.917 154.404 135.541 154.068C135.173 153.724 134.713 153.552 134.161 153.552ZM134.881 150.156H136.345L134.329 151.716H133.249L134.881 150.156ZM140.729 159.072C140.209 159.072 139.709 159.004 139.229 158.868C138.749 158.724 138.373 158.544 138.101 158.328L138.581 157.416C138.861 157.616 139.201 157.776 139.601 157.896C140.001 158.016 140.405 158.076 140.812 158.076C141.821 158.076 142.325 157.788 142.325 157.212C142.325 157.02 142.257 156.868 142.121 156.756C141.985 156.644 141.813 156.564 141.605 156.516C141.405 156.46 141.117 156.4 140.741 156.336C140.229 156.256 139.809 156.164 139.481 156.06C139.161 155.956 138.885 155.78 138.653 155.532C138.421 155.284 138.305 154.936 138.305 154.488C138.305 153.912 138.545 153.452 139.025 153.108C139.505 152.756 140.149 152.58 140.957 152.58C141.381 152.58 141.805 152.632 142.229 152.736C142.653 152.84 143.001 152.98 143.273 153.156L142.781 154.068C142.261 153.732 141.649 153.564 140.945 153.564C140.457 153.564 140.085 153.644 139.829 153.804C139.573 153.964 139.445 154.176 139.445 154.44C139.445 154.648 139.517 154.812 139.661 154.932C139.805 155.052 139.981 155.14 140.189 155.196C140.405 155.252 140.705 155.316 141.089 155.388C141.601 155.476 142.013 155.572 142.325 155.676C142.645 155.772 142.917 155.94 143.141 156.18C143.365 156.42 143.477 156.756 143.477 157.188C143.477 157.764 143.229 158.224 142.733 158.568C142.245 158.904 141.577 159.072 140.729 159.072ZM145.192 159.072C144.968 159.072 144.776 158.996 144.616 158.844C144.456 158.684 144.376 158.484 144.376 158.244C144.376 158.012 144.456 157.82 144.616 157.668C144.776 157.508 144.968 157.428 145.192 157.428C145.416 157.428 145.604 157.504 145.756 157.656C145.908 157.808 145.984 158.004 145.984 158.244C145.984 158.484 145.904 158.684 145.744 158.844C145.592 158.996 145.408 159.072 145.192 159.072Z" fill="#008E86"/>
<path d="M45 56.5L84 40.5L78 56.6339L84 72.7677L45 56.5Z" fill="#008E86" stroke="#00635D" stroke-width="2" stroke-linejoin="round"/>
<path d="M84.0001 40.4999L135 56.4999L83.9999 72.4999L78 56.4999L84.0001 40.4999Z" fill="#008E86" stroke="#00635D" stroke-width="2" stroke-linejoin="round"/>
<path d="M135 56.5L45 56.5" stroke="#00635D" stroke-width="2"/>
<path d="M81.9996 53.5C81.4473 53.5 80.9996 53.0523 80.9996 52.5C80.9996 51.9477 81.4473 51.5 81.9996 51.5L81.9996 53.5ZM65.3265 44.7394C64.9182 44.3676 64.8885 43.7352 65.2603 43.3268L71.3193 36.6718C71.6911 36.2634 72.3236 36.2338 72.732 36.6056C73.1404 36.9774 73.17 37.6099 72.7982 38.0183L67.4124 43.9338L73.328 49.3196C73.7363 49.6914 73.766 50.3238 73.3942 50.7322C73.0224 51.1406 72.3899 51.1703 71.9815 50.7984L65.3265 44.7394ZM81.9996 51.5C86.9562 51.5 90.2763 50.8747 92.0106 50.0565C92.9037 49.6352 93.1618 49.265 93.2118 49.1093C93.2253 49.0674 93.295 48.8602 92.8209 48.4216C92.3394 47.9762 91.4535 47.4656 90.064 46.9727C88.6914 46.4858 86.8945 46.0395 84.6551 45.6829C80.1775 44.9698 73.9986 44.6262 66.0466 44.9989L65.9529 43.0011C74.0011 42.6238 80.3223 42.9677 84.9697 43.7078C87.2928 44.0777 89.2146 44.5493 90.7327 45.0878C92.2338 45.6203 93.4105 46.2425 94.1789 46.9534C94.9548 47.6711 95.462 48.6435 95.116 49.7208C94.8066 50.6842 93.9084 51.3726 92.864 51.8653C90.7232 52.8753 87.0432 53.5 81.9996 53.5L81.9996 51.5Z" fill="black"/>
<path d="M81.8724 58.5C81.3201 58.5 80.8724 58.9477 80.8724 59.5C80.8724 60.0523 81.3201 60.5 81.8724 60.5L81.8724 58.5ZM65.3285 67.5996C64.9192 67.9705 64.8882 68.6029 65.259 69.0121L71.303 75.6807C71.6738 76.09 72.3062 76.121 72.7155 75.7502C73.1247 75.3793 73.1558 74.7469 72.7849 74.3376L67.4125 68.4099L73.3402 63.0376C73.7494 62.6667 73.7805 62.0343 73.4096 61.6251C73.0387 61.2158 72.4063 61.1848 71.9971 61.5557L65.3285 67.5996ZM81.8724 60.5C86.7859 60.5 90.0708 61.1499 91.7836 61.9971C92.6588 62.43 92.9267 62.8154 92.9837 63.0014C93.0112 63.0915 93.0523 63.3341 92.5849 63.7874C92.1069 64.2509 91.2302 64.7804 89.8556 65.2916C88.497 65.7969 86.7172 66.2605 84.4981 66.631C80.0607 67.3719 73.935 67.7293 66.0491 67.3417L65.9509 69.3393C73.9377 69.7318 80.2125 69.3742 84.8274 68.6037C87.1344 68.2185 89.0439 67.7274 90.5528 67.1662C92.0458 66.6109 93.2151 65.9622 93.9772 65.2232C94.7498 64.4739 95.2249 63.4896 94.896 62.4157C94.5964 61.4377 93.7172 60.7222 92.6703 60.2044C90.5388 59.1501 86.8793 58.5 81.8724 58.5L81.8724 60.5Z" fill="black"/>
</g>
<defs>
<clipPath id="clip0_5698_200156">
<rect width="180" height="180" rx="20" fill="white"/>
</clipPath>
<clipPath id="clip1_5698_200156">
<path d="M0 30L-1.31134e-06 0L30 -1.31134e-06L30 10C30 21.0457 21.0457 30 10 30L0 30Z" fill="white"/>
</clipPath>
</defs>
</svg>
