<svg width="180" height="180" viewBox="0 0 180 180" fill="none" xmlns="http://www.w3.org/2000/svg">
<g clip-path="url(#clip0_5698_200164)">
<rect width="180" height="180" rx="20" fill="#F2F2F2"/>

<path d="M27.3401 113.6H30.8801C31.7681 113.6 32.5561 113.776 33.2441 114.128C33.9321 114.48 34.4641 114.976 34.8401 115.616C35.2241 116.248 35.4161 116.976 35.4161 117.8C35.4161 118.624 35.2241 119.356 34.8401 119.996C34.4641 120.628 33.9321 121.12 33.2441 121.472C32.5561 121.824 31.7681 122 30.8801 122H27.3401V113.6ZM30.8081 120.956C31.4881 120.956 32.0841 120.824 32.5961 120.56C33.1161 120.296 33.5161 119.928 33.7961 119.456C34.0761 118.976 34.2161 118.424 34.2161 117.8C34.2161 117.176 34.0761 116.628 33.7961 116.156C33.5161 115.676 33.1161 115.304 32.5961 115.04C32.0841 114.776 31.4881 114.644 30.8081 114.644H28.5401V120.956H30.8081ZM39.8101 122.072C39.1781 122.072 38.6101 121.932 38.1061 121.652C37.6021 121.372 37.2061 120.988 36.9181 120.5C36.6381 120.004 36.4981 119.444 36.4981 118.82C36.4981 118.196 36.6381 117.64 36.9181 117.152C37.2061 116.656 37.6021 116.272 38.1061 116C38.6101 115.72 39.1781 115.58 39.8101 115.58C40.4421 115.58 41.0061 115.72 41.5021 116C42.0061 116.272 42.3981 116.656 42.6781 117.152C42.9661 117.64 43.1101 118.196 43.1101 118.82C43.1101 119.444 42.9661 120.004 42.6781 120.5C42.3981 120.988 42.0061 121.372 41.5021 121.652C41.0061 121.932 40.4421 122.072 39.8101 122.072ZM39.8101 121.064C40.2181 121.064 40.5821 120.972 40.9021 120.788C41.2301 120.596 41.4861 120.332 41.6701 119.996C41.8541 119.652 41.9461 119.26 41.9461 118.82C41.9461 118.38 41.8541 117.992 41.6701 117.656C41.4861 117.312 41.2301 117.048 40.9021 116.864C40.5821 116.68 40.2181 116.588 39.8101 116.588C39.4021 116.588 39.0341 116.68 38.7061 116.864C38.3861 117.048 38.1301 117.312 37.9381 117.656C37.7541 117.992 37.6621 118.38 37.6621 118.82C37.6621 119.26 37.7541 119.652 37.9381 119.996C38.1301 120.332 38.3861 120.596 38.7061 120.788C39.0341 120.972 39.4021 121.064 39.8101 121.064ZM48.0753 115.58C48.6913 115.58 49.2433 115.716 49.7313 115.988C50.2193 116.26 50.5993 116.64 50.8713 117.128C51.1513 117.616 51.2913 118.18 51.2913 118.82C51.2913 119.46 51.1513 120.028 50.8713 120.524C50.5993 121.012 50.2193 121.392 49.7313 121.664C49.2433 121.936 48.6913 122.072 48.0753 122.072C47.6033 122.072 47.1713 121.98 46.7793 121.796C46.3873 121.612 46.0633 121.344 45.8073 120.992V122H44.7033V113.096H45.8553V116.6C46.1113 116.264 46.4313 116.012 46.8153 115.844C47.1993 115.668 47.6193 115.58 48.0753 115.58ZM47.9793 121.064C48.3873 121.064 48.7513 120.972 49.0713 120.788C49.3993 120.596 49.6553 120.332 49.8393 119.996C50.0313 119.652 50.1273 119.26 50.1273 118.82C50.1273 118.38 50.0313 117.992 49.8393 117.656C49.6553 117.312 49.3993 117.048 49.0713 116.864C48.7513 116.68 48.3873 116.588 47.9793 116.588C47.5793 116.588 47.2153 116.68 46.8873 116.864C46.5593 117.048 46.3033 117.312 46.1193 117.656C45.9353 117.992 45.8433 118.38 45.8433 118.82C45.8433 119.26 45.9353 119.652 46.1193 119.996C46.3033 120.332 46.5593 120.596 46.8873 120.788C47.2153 120.972 47.5793 121.064 47.9793 121.064ZM52.883 113.096H54.035V122H52.883V113.096ZM58.5506 115.58C59.4306 115.58 60.1026 115.796 60.5666 116.228C61.0386 116.66 61.2746 117.304 61.2746 118.16V122H60.1826V121.16C59.9906 121.456 59.7146 121.684 59.3546 121.844C59.0026 121.996 58.5826 122.072 58.0946 122.072C57.3826 122.072 56.8106 121.9 56.3786 121.556C55.9546 121.212 55.7426 120.76 55.7426 120.2C55.7426 119.64 55.9466 119.192 56.3546 118.856C56.7626 118.512 57.4106 118.34 58.2986 118.34H60.1226V118.112C60.1226 117.616 59.9786 117.236 59.6906 116.972C59.4026 116.708 58.9786 116.576 58.4186 116.576C58.0426 116.576 57.6746 116.64 57.3146 116.768C56.9546 116.888 56.6506 117.052 56.4026 117.26L55.9226 116.396C56.2506 116.132 56.6426 115.932 57.0986 115.796C57.5546 115.652 58.0386 115.58 58.5506 115.58ZM58.2866 121.184C58.7266 121.184 59.1066 121.088 59.4266 120.896C59.7466 120.696 59.9786 120.416 60.1226 120.056V119.168H58.3466C57.3706 119.168 56.8826 119.496 56.8826 120.152C56.8826 120.472 57.0066 120.724 57.2546 120.908C57.5026 121.092 57.8466 121.184 58.2866 121.184ZM66.6291 113.096H67.7811V122H66.6291V113.096ZM72.2967 115.58C73.1767 115.58 73.8487 115.796 74.3127 116.228C74.7847 116.66 75.0207 117.304 75.0207 118.16V122H73.9287V121.16C73.7367 121.456 73.4607 121.684 73.1007 121.844C72.7487 121.996 72.3287 122.072 71.8407 122.072C71.1287 122.072 70.5567 121.9 70.1247 121.556C69.7007 121.212 69.4887 120.76 69.4887 120.2C69.4887 119.64 69.6927 119.192 70.1007 118.856C70.5087 118.512 71.1567 118.34 72.0447 118.34H73.8687V118.112C73.8687 117.616 73.7247 117.236 73.4367 116.972C73.1487 116.708 72.7247 116.576 72.1647 116.576C71.7887 116.576 71.4207 116.64 71.0607 116.768C70.7007 116.888 70.3967 117.052 70.1487 117.26L69.6687 116.396C69.9967 116.132 70.3887 115.932 70.8447 115.796C71.3007 115.652 71.7847 115.58 72.2967 115.58ZM72.0327 121.184C72.4727 121.184 72.8527 121.088 73.1727 120.896C73.4927 120.696 73.7247 120.416 73.8687 120.056V119.168H72.0927C71.1167 119.168 70.6287 119.496 70.6287 120.152C70.6287 120.472 70.7527 120.724 71.0007 120.908C71.2487 121.092 71.5927 121.184 72.0327 121.184ZM82.7032 113.972C82.0152 113.972 81.6712 114.344 81.6712 115.088V115.64H83.5192V116.588H81.6952V122H80.5432V116.588H79.4632V115.64H80.5432V115.076C80.5432 114.444 80.7272 113.944 81.0952 113.576C81.4632 113.208 81.9792 113.024 82.6432 113.024C82.8992 113.024 83.1392 113.056 83.3632 113.12C83.5872 113.184 83.7792 113.276 83.9392 113.396L83.5912 114.272C83.3272 114.072 83.0312 113.972 82.7032 113.972ZM85.5712 115.64H86.7232V122H85.5712V115.64ZM86.1472 114.416C85.9232 114.416 85.7352 114.344 85.5832 114.2C85.4392 114.056 85.3672 113.88 85.3672 113.672C85.3672 113.464 85.4392 113.288 85.5832 113.144C85.7352 112.992 85.9232 112.916 86.1472 112.916C86.3712 112.916 86.5552 112.988 86.6992 113.132C86.8512 113.268 86.9272 113.44 86.9272 113.648C86.9272 113.864 86.8512 114.048 86.6992 114.2C86.5552 114.344 86.3712 114.416 86.1472 114.416ZM95.0022 115.64V121.136C95.0022 122.248 94.7262 123.068 94.1742 123.596C93.6222 124.132 92.7982 124.4 91.7022 124.4C91.1022 124.4 90.5302 124.316 89.9862 124.148C89.4422 123.988 89.0022 123.756 88.6662 123.452L89.2182 122.564C89.5142 122.82 89.8782 123.02 90.3102 123.164C90.7502 123.316 91.2022 123.392 91.6662 123.392C92.4102 123.392 92.9582 123.216 93.3102 122.864C93.6702 122.512 93.8502 121.976 93.8502 121.256V120.752C93.5782 121.08 93.2422 121.328 92.8422 121.496C92.4502 121.656 92.0222 121.736 91.5582 121.736C90.9502 121.736 90.3982 121.608 89.9022 121.352C89.4142 121.088 89.0302 120.724 88.7502 120.26C88.4702 119.788 88.3302 119.252 88.3302 118.652C88.3302 118.052 88.4702 117.52 88.7502 117.056C89.0302 116.584 89.4142 116.22 89.9022 115.964C90.3982 115.708 90.9502 115.58 91.5582 115.58C92.0382 115.58 92.4822 115.668 92.8902 115.844C93.3062 116.02 93.6462 116.28 93.9102 116.624V115.64H95.0022ZM91.6902 120.728C92.1062 120.728 92.4782 120.64 92.8062 120.464C93.1422 120.288 93.4022 120.044 93.5862 119.732C93.7782 119.412 93.8742 119.052 93.8742 118.652C93.8742 118.036 93.6702 117.54 93.2622 117.164C92.8542 116.78 92.3302 116.588 91.6902 116.588C91.0422 116.588 90.5142 116.78 90.1062 117.164C89.6982 117.54 89.4942 118.036 89.4942 118.652C89.4942 119.052 89.5862 119.412 89.7702 119.732C89.9622 120.044 90.2222 120.288 90.5502 120.464C90.8862 120.64 91.2662 120.728 91.6902 120.728ZM103.131 115.64V122H102.039V121.04C101.807 121.368 101.499 121.624 101.115 121.808C100.739 121.984 100.327 122.072 99.8793 122.072C99.0313 122.072 98.3633 121.84 97.8753 121.376C97.3873 120.904 97.1433 120.212 97.1433 119.3V115.64H98.2953V119.168C98.2953 119.784 98.4433 120.252 98.7393 120.572C99.0353 120.884 99.4593 121.04 100.011 121.04C100.619 121.04 101.099 120.856 101.451 120.488C101.803 120.12 101.979 119.6 101.979 118.928V115.64H103.131ZM106.428 116.708C106.628 116.34 106.924 116.06 107.316 115.868C107.708 115.676 108.184 115.58 108.744 115.58V116.696C108.68 116.688 108.592 116.684 108.48 116.684C107.856 116.684 107.364 116.872 107.004 117.248C106.652 117.616 106.476 118.144 106.476 118.832V122H105.324V115.64H106.428V116.708ZM112.469 115.58C113.349 115.58 114.021 115.796 114.485 116.228C114.957 116.66 115.193 117.304 115.193 118.16V122H114.101V121.16C113.909 121.456 113.633 121.684 113.273 121.844C112.921 121.996 112.501 122.072 112.013 122.072C111.301 122.072 110.729 121.9 110.297 121.556C109.873 121.212 109.661 120.76 109.661 120.2C109.661 119.64 109.865 119.192 110.273 118.856C110.681 118.512 111.329 118.34 112.217 118.34H114.041V118.112C114.041 117.616 113.897 117.236 113.609 116.972C113.321 116.708 112.897 116.576 112.337 116.576C111.961 116.576 111.593 116.64 111.233 116.768C110.873 116.888 110.569 117.052 110.321 117.26L109.841 116.396C110.169 116.132 110.561 115.932 111.017 115.796C111.473 115.652 111.957 115.58 112.469 115.58ZM112.205 121.184C112.645 121.184 113.025 121.088 113.345 120.896C113.665 120.696 113.897 120.416 114.041 120.056V119.168H112.265C111.289 119.168 110.801 119.496 110.801 120.152C110.801 120.472 110.925 120.724 111.173 120.908C111.421 121.092 111.765 121.184 112.205 121.184ZM123.919 115.58C124.535 115.58 125.087 115.716 125.575 115.988C126.063 116.26 126.443 116.64 126.715 117.128C126.995 117.616 127.135 118.18 127.135 118.82C127.135 119.46 126.995 120.028 126.715 120.524C126.443 121.012 126.063 121.392 125.575 121.664C125.087 121.936 124.535 122.072 123.919 122.072C123.463 122.072 123.043 121.984 122.659 121.808C122.283 121.632 121.963 121.376 121.699 121.04V124.328H120.547V115.64H121.651V116.648C121.907 116.296 122.231 116.032 122.623 115.856C123.015 115.672 123.447 115.58 123.919 115.58ZM123.823 121.064C124.231 121.064 124.595 120.972 124.915 120.788C125.243 120.596 125.499 120.332 125.683 119.996C125.875 119.652 125.971 119.26 125.971 118.82C125.971 118.38 125.875 117.992 125.683 117.656C125.499 117.312 125.243 117.048 124.915 116.864C124.595 116.68 124.231 116.588 123.823 116.588C123.423 116.588 123.059 116.684 122.731 116.876C122.411 117.06 122.155 117.32 121.963 117.656C121.779 117.992 121.687 118.38 121.687 118.82C121.687 119.26 121.779 119.652 121.963 119.996C122.147 120.332 122.403 120.596 122.731 120.788C123.059 120.972 123.423 121.064 123.823 121.064ZM131.451 122.072C130.819 122.072 130.251 121.932 129.747 121.652C129.243 121.372 128.847 120.988 128.559 120.5C128.279 120.004 128.139 119.444 128.139 118.82C128.139 118.196 128.279 117.64 128.559 117.152C128.847 116.656 129.243 116.272 129.747 116C130.251 115.72 130.819 115.58 131.451 115.58C132.083 115.58 132.647 115.72 133.143 116C133.647 116.272 134.039 116.656 134.319 117.152C134.607 117.64 134.751 118.196 134.751 118.82C134.751 119.444 134.607 120.004 134.319 120.5C134.039 120.988 133.647 121.372 133.143 121.652C132.647 121.932 132.083 122.072 131.451 122.072ZM131.451 121.064C131.859 121.064 132.223 120.972 132.543 120.788C132.871 120.596 133.127 120.332 133.311 119.996C133.495 119.652 133.587 119.26 133.587 118.82C133.587 118.38 133.495 117.992 133.311 117.656C133.127 117.312 132.871 117.048 132.543 116.864C132.223 116.68 131.859 116.588 131.451 116.588C131.043 116.588 130.675 116.68 130.347 116.864C130.027 117.048 129.771 117.312 129.579 117.656C129.395 117.992 129.303 118.38 129.303 118.82C129.303 119.26 129.395 119.652 129.579 119.996C129.771 120.332 130.027 120.596 130.347 120.788C130.675 120.972 131.043 121.064 131.451 121.064ZM137.448 116.708C137.648 116.34 137.944 116.06 138.336 115.868C138.728 115.676 139.204 115.58 139.764 115.58V116.696C139.7 116.688 139.612 116.684 139.5 116.684C138.876 116.684 138.384 116.872 138.024 117.248C137.672 117.616 137.496 118.144 137.496 118.832V122H136.344V115.64H137.448V116.708ZM144.488 113.096H145.64V122H144.488V113.096ZM150.156 115.58C151.036 115.58 151.708 115.796 152.172 116.228C152.644 116.66 152.88 117.304 152.88 118.16V122H151.788V121.16C151.596 121.456 151.32 121.684 150.96 121.844C150.608 121.996 150.188 122.072 149.7 122.072C148.988 122.072 148.416 121.9 147.984 121.556C147.56 121.212 147.348 120.76 147.348 120.2C147.348 119.64 147.552 119.192 147.96 118.856C148.368 118.512 149.016 118.34 149.904 118.34H151.728V118.112C151.728 117.616 151.584 117.236 151.296 116.972C151.008 116.708 150.584 116.576 150.024 116.576C149.648 116.576 149.28 116.64 148.92 116.768C148.56 116.888 148.256 117.052 148.008 117.26L147.528 116.396C147.856 116.132 148.248 115.932 148.704 115.796C149.16 115.652 149.644 115.58 150.156 115.58ZM149.892 121.184C150.332 121.184 150.712 121.088 151.032 120.896C151.352 120.696 151.584 120.416 151.728 120.056V119.168H149.952C148.976 119.168 148.488 119.496 148.488 120.152C148.488 120.472 148.612 120.724 148.86 120.908C149.108 121.092 149.452 121.184 149.892 121.184ZM44.0871 130.58C44.8871 130.58 45.5191 130.812 45.9831 131.276C46.4551 131.74 46.6911 132.428 46.6911 133.34V137H45.5391V133.472C45.5391 132.856 45.3951 132.392 45.1071 132.08C44.8271 131.768 44.4231 131.612 43.8951 131.612C43.3111 131.612 42.8471 131.796 42.5031 132.164C42.1591 132.524 41.9871 133.044 41.9871 133.724V137H40.8351V133.472C40.8351 132.856 40.6911 132.392 40.4031 132.08C40.1231 131.768 39.7191 131.612 39.1911 131.612C38.6071 131.612 38.1431 131.796 37.7991 132.164C37.4551 132.524 37.2831 133.044 37.2831 133.724V137H36.1311V130.64H37.2351V131.588C37.4671 131.26 37.7711 131.012 38.1471 130.844C38.5231 130.668 38.9511 130.58 39.4311 130.58C39.9271 130.58 40.3671 130.68 40.7511 130.88C41.1351 131.08 41.4311 131.372 41.6391 131.756C41.8791 131.388 42.2111 131.1 42.6351 130.892C43.0671 130.684 43.5511 130.58 44.0871 130.58ZM48.8108 130.64H49.9628V137H48.8108V130.64ZM49.3868 129.416C49.1628 129.416 48.9748 129.344 48.8228 129.2C48.6788 129.056 48.6068 128.88 48.6068 128.672C48.6068 128.464 48.6788 128.288 48.8228 128.144C48.9748 127.992 49.1628 127.916 49.3868 127.916C49.6108 127.916 49.7948 127.988 49.9388 128.132C50.0908 128.268 50.1668 128.44 50.1668 128.648C50.1668 128.864 50.0908 129.048 49.9388 129.2C49.7948 129.344 49.6108 129.416 49.3868 129.416ZM55.7383 136.628C55.5703 136.772 55.3623 136.884 55.1143 136.964C54.8663 137.036 54.6103 137.072 54.3463 137.072C53.7063 137.072 53.2103 136.9 52.8583 136.556C52.5063 136.212 52.3303 135.72 52.3303 135.08V131.588H51.2503V130.64H52.3303V129.248H53.4823V130.64H55.3063V131.588H53.4823V135.032C53.4823 135.376 53.5663 135.64 53.7343 135.824C53.9103 136.008 54.1583 136.1 54.4783 136.1C54.8303 136.1 55.1303 136 55.3783 135.8L55.7383 136.628ZM59.4471 130.58C60.3271 130.58 60.9991 130.796 61.4631 131.228C61.9351 131.66 62.1711 132.304 62.1711 133.16V137H61.0791V136.16C60.8871 136.456 60.6111 136.684 60.2511 136.844C59.8991 136.996 59.4791 137.072 58.9911 137.072C58.2791 137.072 57.7071 136.9 57.2751 136.556C56.8511 136.212 56.6391 135.76 56.6391 135.2C56.6391 134.64 56.8431 134.192 57.2511 133.856C57.6591 133.512 58.3071 133.34 59.1951 133.34H61.0191V133.112C61.0191 132.616 60.8751 132.236 60.5871 131.972C60.2991 131.708 59.8751 131.576 59.3151 131.576C58.9391 131.576 58.5711 131.64 58.2111 131.768C57.8511 131.888 57.5471 132.052 57.2991 132.26L56.8191 131.396C57.1471 131.132 57.5391 130.932 57.9951 130.796C58.4511 130.652 58.9351 130.58 59.4471 130.58ZM59.1831 136.184C59.6231 136.184 60.0031 136.088 60.3231 135.896C60.6431 135.696 60.8751 135.416 61.0191 135.056V134.168H59.2431C58.2671 134.168 57.7791 134.496 57.7791 135.152C57.7791 135.472 57.9031 135.724 58.1511 135.908C58.3991 136.092 58.7431 136.184 59.1831 136.184ZM70.3381 128.096V137H69.2341V135.992C68.9781 136.344 68.6541 136.612 68.2621 136.796C67.8701 136.98 67.4381 137.072 66.9661 137.072C66.3501 137.072 65.7981 136.936 65.3101 136.664C64.8221 136.392 64.4381 136.012 64.1581 135.524C63.8861 135.028 63.7501 134.46 63.7501 133.82C63.7501 133.18 63.8861 132.616 64.1581 132.128C64.4381 131.64 64.8221 131.26 65.3101 130.988C65.7981 130.716 66.3501 130.58 66.9661 130.58C67.4221 130.58 67.8421 130.668 68.2261 130.844C68.6101 131.012 68.9301 131.264 69.1861 131.6V128.096H70.3381ZM67.0621 136.064C67.4621 136.064 67.8261 135.972 68.1541 135.788C68.4821 135.596 68.7381 135.332 68.9221 134.996C69.1061 134.652 69.1981 134.26 69.1981 133.82C69.1981 133.38 69.1061 132.992 68.9221 132.656C68.7381 132.312 68.4821 132.048 68.1541 131.864C67.8261 131.68 67.4621 131.588 67.0621 131.588C66.6541 131.588 66.2861 131.68 65.9581 131.864C65.6381 132.048 65.3821 132.312 65.1901 132.656C65.0061 132.992 64.9141 133.38 64.9141 133.82C64.9141 134.26 65.0061 134.652 65.1901 134.996C65.3821 135.332 65.6381 135.596 65.9581 135.788C66.2861 135.972 66.6541 136.064 67.0621 136.064ZM81.7404 128.096V137H80.6364V135.992C80.3804 136.344 80.0564 136.612 79.6644 136.796C79.2724 136.98 78.8404 137.072 78.3684 137.072C77.7524 137.072 77.2004 136.936 76.7124 136.664C76.2244 136.392 75.8404 136.012 75.5604 135.524C75.2884 135.028 75.1524 134.46 75.1524 133.82C75.1524 133.18 75.2884 132.616 75.5604 132.128C75.8404 131.64 76.2244 131.26 76.7124 130.988C77.2004 130.716 77.7524 130.58 78.3684 130.58C78.8244 130.58 79.2444 130.668 79.6284 130.844C80.0124 131.012 80.3324 131.264 80.5884 131.6V128.096H81.7404ZM78.4644 136.064C78.8644 136.064 79.2284 135.972 79.5564 135.788C79.8844 135.596 80.1404 135.332 80.3244 134.996C80.5084 134.652 80.6004 134.26 80.6004 133.82C80.6004 133.38 80.5084 132.992 80.3244 132.656C80.1404 132.312 79.8844 132.048 79.5564 131.864C79.2284 131.68 78.8644 131.588 78.4644 131.588C78.0564 131.588 77.6884 131.68 77.3604 131.864C77.0404 132.048 76.7844 132.312 76.5924 132.656C76.4084 132.992 76.3164 133.38 76.3164 133.82C76.3164 134.26 76.4084 134.652 76.5924 134.996C76.7844 135.332 77.0404 135.596 77.3604 135.788C77.6884 135.972 78.0564 136.064 78.4644 136.064ZM89.6681 133.856C89.6681 133.944 89.6601 134.06 89.6441 134.204H84.4841C84.5561 134.764 84.8001 135.216 85.2161 135.56C85.6401 135.896 86.1641 136.064 86.7881 136.064C87.5481 136.064 88.1601 135.808 88.6241 135.296L89.2601 136.04C88.9721 136.376 88.6121 136.632 88.1801 136.808C87.7561 136.984 87.2801 137.072 86.7521 137.072C86.0801 137.072 85.4841 136.936 84.9641 136.664C84.4441 136.384 84.0401 135.996 83.7521 135.5C83.4721 135.004 83.3321 134.444 83.3321 133.82C83.3321 133.204 83.4681 132.648 83.7401 132.152C84.0201 131.656 84.4001 131.272 84.8801 131C85.3681 130.72 85.9161 130.58 86.5241 130.58C87.1321 130.58 87.6721 130.72 88.1441 131C88.6241 131.272 88.9961 131.656 89.2601 132.152C89.5321 132.648 89.6681 133.216 89.6681 133.856ZM86.5241 131.552C85.9721 131.552 85.5081 131.72 85.1321 132.056C84.7641 132.392 84.5481 132.832 84.4841 133.376H88.5641C88.5001 132.84 88.2801 132.404 87.9041 132.068C87.5361 131.724 87.0761 131.552 86.5241 131.552ZM90.4518 139.4C90.1718 139.4 89.9118 139.368 89.6718 139.304C89.4318 139.24 89.2318 139.144 89.0718 139.016L89.4438 138.128C89.6838 138.328 89.9958 138.428 90.3798 138.428C90.6838 138.428 90.9158 138.332 91.0758 138.14C91.2438 137.956 91.3278 137.68 91.3278 137.312V130.64H92.4798V137.288C92.4798 137.944 92.3038 138.46 91.9518 138.836C91.5998 139.212 91.0998 139.4 90.4518 139.4ZM91.9038 129.416C91.6798 129.416 91.4918 129.344 91.3398 129.2C91.1958 129.056 91.1238 128.88 91.1238 128.672C91.1238 128.464 91.1958 128.288 91.3398 128.144C91.4918 127.992 91.6798 127.916 91.9038 127.916C92.1278 127.916 92.3118 127.988 92.4558 128.132C92.6078 128.268 92.6838 128.44 92.6838 128.648C92.6838 128.864 92.6078 129.048 92.4558 129.2C92.3118 129.344 92.1278 129.416 91.9038 129.416ZM96.9939 130.58C97.8739 130.58 98.5459 130.796 99.0099 131.228C99.4819 131.66 99.7179 132.304 99.7179 133.16V137H98.6259V136.16C98.4339 136.456 98.1579 136.684 97.7979 136.844C97.4459 136.996 97.0259 137.072 96.5379 137.072C95.8259 137.072 95.2539 136.9 94.8219 136.556C94.3979 136.212 94.1859 135.76 94.1859 135.2C94.1859 134.64 94.3899 134.192 94.7979 133.856C95.2059 133.512 95.8539 133.34 96.7419 133.34H98.5659V133.112C98.5659 132.616 98.4219 132.236 98.1339 131.972C97.8459 131.708 97.4219 131.576 96.8619 131.576C96.4859 131.576 96.1179 131.64 95.7579 131.768C95.3979 131.888 95.0939 132.052 94.8459 132.26L94.3659 131.396C94.6939 131.132 95.0859 130.932 95.5419 130.796C95.9979 130.652 96.4819 130.58 96.9939 130.58ZM96.7299 136.184C97.1699 136.184 97.5499 136.088 97.8699 135.896C98.1899 135.696 98.4219 135.416 98.5659 135.056V134.168H96.7899C95.8139 134.168 95.3259 134.496 95.3259 135.152C95.3259 135.472 95.4499 135.724 95.6979 135.908C95.9459 136.092 96.2899 136.184 96.7299 136.184ZM105.246 130.58C106.054 130.58 106.694 130.816 107.166 131.288C107.646 131.752 107.886 132.436 107.886 133.34V137H106.734V133.472C106.734 132.856 106.586 132.392 106.29 132.08C105.994 131.768 105.57 131.612 105.018 131.612C104.394 131.612 103.902 131.796 103.542 132.164C103.182 132.524 103.002 133.044 103.002 133.724V137H101.85V130.64H102.954V131.6C103.186 131.272 103.498 131.02 103.89 130.844C104.29 130.668 104.742 130.58 105.246 130.58ZM116.053 128.096V137H114.949V135.992C114.693 136.344 114.369 136.612 113.977 136.796C113.585 136.98 113.153 137.072 112.681 137.072C112.065 137.072 111.513 136.936 111.025 136.664C110.537 136.392 110.153 136.012 109.873 135.524C109.601 135.028 109.465 134.46 109.465 133.82C109.465 133.18 109.601 132.616 109.873 132.128C110.153 131.64 110.537 131.26 111.025 130.988C111.513 130.716 112.065 130.58 112.681 130.58C113.137 130.58 113.557 130.668 113.941 130.844C114.325 131.012 114.645 131.264 114.901 131.6V128.096H116.053ZM112.777 136.064C113.177 136.064 113.541 135.972 113.869 135.788C114.197 135.596 114.453 135.332 114.637 134.996C114.821 134.652 114.913 134.26 114.913 133.82C114.913 133.38 114.821 132.992 114.637 132.656C114.453 132.312 114.197 132.048 113.869 131.864C113.541 131.68 113.177 131.588 112.777 131.588C112.369 131.588 112.001 131.68 111.673 131.864C111.353 132.048 111.097 132.312 110.905 132.656C110.721 132.992 110.629 133.38 110.629 133.82C110.629 134.26 110.721 134.652 110.905 134.996C111.097 135.332 111.353 135.596 111.673 135.788C112.001 135.972 112.369 136.064 112.777 136.064ZM120.957 137.072C120.325 137.072 119.757 136.932 119.253 136.652C118.749 136.372 118.353 135.988 118.065 135.5C117.785 135.004 117.645 134.444 117.645 133.82C117.645 133.196 117.785 132.64 118.065 132.152C118.353 131.656 118.749 131.272 119.253 131C119.757 130.72 120.325 130.58 120.957 130.58C121.589 130.58 122.153 130.72 122.649 131C123.153 131.272 123.545 131.656 123.825 132.152C124.113 132.64 124.257 133.196 124.257 133.82C124.257 134.444 124.113 135.004 123.825 135.5C123.545 135.988 123.153 136.372 122.649 136.652C122.153 136.932 121.589 137.072 120.957 137.072ZM120.957 136.064C121.365 136.064 121.729 135.972 122.049 135.788C122.377 135.596 122.633 135.332 122.817 134.996C123.001 134.652 123.093 134.26 123.093 133.82C123.093 133.38 123.001 132.992 122.817 132.656C122.633 132.312 122.377 132.048 122.049 131.864C121.729 131.68 121.365 131.588 120.957 131.588C120.549 131.588 120.181 131.68 119.853 131.864C119.533 132.048 119.277 132.312 119.085 132.656C118.901 132.992 118.809 133.38 118.809 133.82C118.809 134.26 118.901 134.652 119.085 134.996C119.277 135.332 119.533 135.596 119.853 135.788C120.181 135.972 120.549 136.064 120.957 136.064ZM129.072 128.096H130.224V137H129.072V128.096ZM135.148 137.072C134.516 137.072 133.948 136.932 133.444 136.652C132.94 136.372 132.544 135.988 132.256 135.5C131.976 135.004 131.836 134.444 131.836 133.82C131.836 133.196 131.976 132.64 132.256 132.152C132.544 131.656 132.94 131.272 133.444 131C133.948 130.72 134.516 130.58 135.148 130.58C135.78 130.58 136.344 130.72 136.84 131C137.344 131.272 137.736 131.656 138.016 132.152C138.304 132.64 138.448 133.196 138.448 133.82C138.448 134.444 138.304 135.004 138.016 135.5C137.736 135.988 137.344 136.372 136.84 136.652C136.344 136.932 135.78 137.072 135.148 137.072ZM135.148 136.064C135.556 136.064 135.92 135.972 136.24 135.788C136.568 135.596 136.824 135.332 137.008 134.996C137.192 134.652 137.284 134.26 137.284 133.82C137.284 133.38 137.192 132.992 137.008 132.656C136.824 132.312 136.568 132.048 136.24 131.864C135.92 131.68 135.556 131.588 135.148 131.588C134.74 131.588 134.372 131.68 134.044 131.864C133.724 132.048 133.468 132.312 133.276 132.656C133.092 132.992 133 133.38 133 133.82C133 134.26 133.092 134.652 133.276 134.996C133.468 135.332 133.724 135.596 134.044 135.788C134.372 135.972 134.74 136.064 135.148 136.064ZM141.865 137.072C141.345 137.072 140.845 137.004 140.365 136.868C139.885 136.724 139.509 136.544 139.237 136.328L139.717 135.416C139.997 135.616 140.337 135.776 140.737 135.896C141.137 136.016 141.541 136.076 141.949 136.076C142.957 136.076 143.461 135.788 143.461 135.212C143.461 135.02 143.393 134.868 143.257 134.756C143.121 134.644 142.949 134.564 142.741 134.516C142.541 134.46 142.253 134.4 141.877 134.336C141.365 134.256 140.945 134.164 140.617 134.06C140.297 133.956 140.021 133.78 139.789 133.532C139.557 133.284 139.441 132.936 139.441 132.488C139.441 131.912 139.681 131.452 140.161 131.108C140.641 130.756 141.285 130.58 142.093 130.58C142.517 130.58 142.941 130.632 143.365 130.736C143.789 130.84 144.137 130.98 144.409 131.156L143.917 132.068C143.397 131.732 142.785 131.564 142.081 131.564C141.593 131.564 141.221 131.644 140.965 131.804C140.709 131.964 140.581 132.176 140.581 132.44C140.581 132.648 140.653 132.812 140.797 132.932C140.941 133.052 141.117 133.14 141.325 133.196C141.541 133.252 141.841 133.316 142.225 133.388C142.737 133.476 143.149 133.572 143.461 133.676C143.781 133.772 144.053 133.94 144.277 134.18C144.501 134.42 144.613 134.756 144.613 135.188C144.613 135.764 144.365 136.224 143.869 136.568C143.381 136.904 142.713 137.072 141.865 137.072ZM35.592 143.096V152H34.488V150.992C34.232 151.344 33.908 151.612 33.516 151.796C33.124 151.98 32.692 152.072 32.22 152.072C31.604 152.072 31.052 151.936 30.564 151.664C30.076 151.392 29.692 151.012 29.412 150.524C29.14 150.028 29.004 149.46 29.004 148.82C29.004 148.18 29.14 147.616 29.412 147.128C29.692 146.64 30.076 146.26 30.564 145.988C31.052 145.716 31.604 145.58 32.22 145.58C32.676 145.58 33.096 145.668 33.48 145.844C33.864 146.012 34.184 146.264 34.44 146.6V143.096H35.592ZM32.316 151.064C32.716 151.064 33.08 150.972 33.408 150.788C33.736 150.596 33.992 150.332 34.176 149.996C34.36 149.652 34.452 149.26 34.452 148.82C34.452 148.38 34.36 147.992 34.176 147.656C33.992 147.312 33.736 147.048 33.408 146.864C33.08 146.68 32.716 146.588 32.316 146.588C31.908 146.588 31.54 146.68 31.212 146.864C30.892 147.048 30.636 147.312 30.444 147.656C30.26 147.992 30.168 148.38 30.168 148.82C30.168 149.26 30.26 149.652 30.444 149.996C30.636 150.332 30.892 150.596 31.212 150.788C31.54 150.972 31.908 151.064 32.316 151.064ZM40.4957 152.072C39.8637 152.072 39.2957 151.932 38.7917 151.652C38.2877 151.372 37.8917 150.988 37.6037 150.5C37.3237 150.004 37.1837 149.444 37.1837 148.82C37.1837 148.196 37.3237 147.64 37.6037 147.152C37.8917 146.656 38.2877 146.272 38.7917 146C39.2957 145.72 39.8637 145.58 40.4957 145.58C41.1277 145.58 41.6917 145.72 42.1877 146C42.6917 146.272 43.0837 146.656 43.3637 147.152C43.6517 147.64 43.7957 148.196 43.7957 148.82C43.7957 149.444 43.6517 150.004 43.3637 150.5C43.0837 150.988 42.6917 151.372 42.1877 151.652C41.6917 151.932 41.1277 152.072 40.4957 152.072ZM40.4957 151.064C40.9037 151.064 41.2677 150.972 41.5877 150.788C41.9157 150.596 42.1717 150.332 42.3557 149.996C42.5397 149.652 42.6317 149.26 42.6317 148.82C42.6317 148.38 42.5397 147.992 42.3557 147.656C42.1717 147.312 41.9157 147.048 41.5877 146.864C41.2677 146.68 40.9037 146.588 40.4957 146.588C40.0877 146.588 39.7197 146.68 39.3917 146.864C39.0717 147.048 38.8157 147.312 38.6237 147.656C38.4397 147.992 38.3477 148.38 38.3477 148.82C38.3477 149.26 38.4397 149.652 38.6237 149.996C38.8157 150.332 39.0717 150.596 39.3917 150.788C39.7197 150.972 40.0877 151.064 40.4957 151.064ZM48.7609 145.58C49.3769 145.58 49.9289 145.716 50.4169 145.988C50.9049 146.26 51.2849 146.64 51.5569 147.128C51.8369 147.616 51.9769 148.18 51.9769 148.82C51.9769 149.46 51.8369 150.028 51.5569 150.524C51.2849 151.012 50.9049 151.392 50.4169 151.664C49.9289 151.936 49.3769 152.072 48.7609 152.072C48.2889 152.072 47.8569 151.98 47.4649 151.796C47.0729 151.612 46.7489 151.344 46.4929 150.992V152H45.3889V143.096H46.5409V146.6C46.7969 146.264 47.1169 146.012 47.5009 145.844C47.8849 145.668 48.3049 145.58 48.7609 145.58ZM48.6649 151.064C49.0729 151.064 49.4369 150.972 49.7569 150.788C50.0849 150.596 50.3409 150.332 50.5249 149.996C50.7169 149.652 50.8129 149.26 50.8129 148.82C50.8129 148.38 50.7169 147.992 50.5249 147.656C50.3409 147.312 50.0849 147.048 49.7569 146.864C49.4369 146.68 49.0729 146.588 48.6649 146.588C48.2649 146.588 47.9009 146.68 47.5729 146.864C47.2449 147.048 46.9889 147.312 46.8049 147.656C46.6209 147.992 46.5289 148.38 46.5289 148.82C46.5289 149.26 46.6209 149.652 46.8049 149.996C46.9889 150.332 47.2449 150.596 47.5729 150.788C47.9009 150.972 48.2649 151.064 48.6649 151.064ZM53.5686 143.096H54.7206V152H53.5686V143.096ZM62.6681 148.856C62.6681 148.944 62.6601 149.06 62.6441 149.204H57.4841C57.5561 149.764 57.8001 150.216 58.2161 150.56C58.6401 150.896 59.1641 151.064 59.7881 151.064C60.5481 151.064 61.1601 150.808 61.6241 150.296L62.2601 151.04C61.9721 151.376 61.6121 151.632 61.1801 151.808C60.7561 151.984 60.2801 152.072 59.7521 152.072C59.0801 152.072 58.4841 151.936 57.9641 151.664C57.4441 151.384 57.0401 150.996 56.7521 150.5C56.4721 150.004 56.3321 149.444 56.3321 148.82C56.3321 148.204 56.4681 147.648 56.7401 147.152C57.0201 146.656 57.4001 146.272 57.8801 146C58.3681 145.72 58.9161 145.58 59.5241 145.58C60.1321 145.58 60.6721 145.72 61.1441 146C61.6241 146.272 61.9961 146.656 62.2601 147.152C62.5321 147.648 62.6681 148.216 62.6681 148.856ZM59.5241 146.552C58.9721 146.552 58.5081 146.72 58.1321 147.056C57.7641 147.392 57.5481 147.832 57.4841 148.376H61.5641C61.5001 147.84 61.2801 147.404 60.9041 147.068C60.5361 146.724 60.0761 146.552 59.5241 146.552ZM67.0398 152.072C66.3918 152.072 65.8118 151.932 65.2998 151.652C64.7958 151.372 64.3998 150.988 64.1118 150.5C63.8238 150.004 63.6798 149.444 63.6798 148.82C63.6798 148.196 63.8238 147.64 64.1118 147.152C64.3998 146.656 64.7958 146.272 65.2998 146C65.8118 145.72 66.3918 145.58 67.0398 145.58C67.6158 145.58 68.1278 145.696 68.5758 145.928C69.0318 146.16 69.3838 146.496 69.6318 146.936L68.7558 147.5C68.5558 147.196 68.3078 146.968 68.0118 146.816C67.7158 146.664 67.3878 146.588 67.0278 146.588C66.6118 146.588 66.2358 146.68 65.8998 146.864C65.5718 147.048 65.3118 147.312 65.1198 147.656C64.9358 147.992 64.8438 148.38 64.8438 148.82C64.8438 149.268 64.9358 149.664 65.1198 150.008C65.3118 150.344 65.5718 150.604 65.8998 150.788C66.2358 150.972 66.6118 151.064 67.0278 151.064C67.3878 151.064 67.7158 150.988 68.0118 150.836C68.3078 150.684 68.5558 150.456 68.7558 150.152L69.6318 150.704C69.3838 151.144 69.0318 151.484 68.5758 151.724C68.1278 151.956 67.6158 152.072 67.0398 152.072ZM76.7775 148.856C76.7775 148.944 76.7695 149.06 76.7535 149.204H71.5935C71.6655 149.764 71.9095 150.216 72.3255 150.56C72.7495 150.896 73.2735 151.064 73.8975 151.064C74.6575 151.064 75.2695 150.808 75.7335 150.296L76.3695 151.04C76.0815 151.376 75.7215 151.632 75.2895 151.808C74.8655 151.984 74.3895 152.072 73.8615 152.072C73.1895 152.072 72.5935 151.936 72.0735 151.664C71.5535 151.384 71.1495 150.996 70.8615 150.5C70.5815 150.004 70.4415 149.444 70.4415 148.82C70.4415 148.204 70.5775 147.648 70.8495 147.152C71.1295 146.656 71.5095 146.272 71.9895 146C72.4775 145.72 73.0255 145.58 73.6335 145.58C74.2415 145.58 74.7815 145.72 75.2535 146C75.7335 146.272 76.1055 146.656 76.3695 147.152C76.6415 147.648 76.7775 148.216 76.7775 148.856ZM73.6335 146.552C73.0815 146.552 72.6175 146.72 72.2415 147.056C71.8735 147.392 71.6575 147.832 71.5935 148.376H75.6735C75.6095 147.84 75.3895 147.404 75.0135 147.068C74.6455 146.724 74.1855 146.552 73.6335 146.552ZM80.2012 152.072C79.6812 152.072 79.1812 152.004 78.7012 151.868C78.2212 151.724 77.8452 151.544 77.5732 151.328L78.0532 150.416C78.3332 150.616 78.6732 150.776 79.0732 150.896C79.4732 151.016 79.8772 151.076 80.2852 151.076C81.2932 151.076 81.7972 150.788 81.7972 150.212C81.7972 150.02 81.7292 149.868 81.5932 149.756C81.4572 149.644 81.2852 149.564 81.0772 149.516C80.8772 149.46 80.5892 149.4 80.2132 149.336C79.7012 149.256 79.2812 149.164 78.9532 149.06C78.6332 148.956 78.3572 148.78 78.1252 148.532C77.8932 148.284 77.7772 147.936 77.7772 147.488C77.7772 146.912 78.0172 146.452 78.4972 146.108C78.9772 145.756 79.6212 145.58 80.4292 145.58C80.8532 145.58 81.2772 145.632 81.7012 145.736C82.1252 145.84 82.4732 145.98 82.7452 146.156L82.2532 147.068C81.7332 146.732 81.1212 146.564 80.4172 146.564C79.9292 146.564 79.5572 146.644 79.3012 146.804C79.0452 146.964 78.9172 147.176 78.9172 147.44C78.9172 147.648 78.9892 147.812 79.1332 147.932C79.2772 148.052 79.4532 148.14 79.6612 148.196C79.8772 148.252 80.1772 148.316 80.5612 148.388C81.0732 148.476 81.4852 148.572 81.7972 148.676C82.1172 148.772 82.3892 148.94 82.6132 149.18C82.8372 149.42 82.9492 149.756 82.9492 150.188C82.9492 150.764 82.7012 151.224 82.2052 151.568C81.7172 151.904 81.0492 152.072 80.2012 152.072ZM93.3595 148.856C93.3595 148.944 93.3515 149.06 93.3355 149.204H88.1755C88.2475 149.764 88.4915 150.216 88.9075 150.56C89.3315 150.896 89.8555 151.064 90.4795 151.064C91.2395 151.064 91.8515 150.808 92.3155 150.296L92.9515 151.04C92.6635 151.376 92.3035 151.632 91.8715 151.808C91.4475 151.984 90.9715 152.072 90.4435 152.072C89.7715 152.072 89.1755 151.936 88.6555 151.664C88.1355 151.384 87.7315 150.996 87.4435 150.5C87.1635 150.004 87.0235 149.444 87.0235 148.82C87.0235 148.204 87.1595 147.648 87.4315 147.152C87.7115 146.656 88.0915 146.272 88.5715 146C89.0595 145.72 89.6075 145.58 90.2155 145.58C90.8235 145.58 91.3635 145.72 91.8355 146C92.3155 146.272 92.6875 146.656 92.9515 147.152C93.2235 147.648 93.3595 148.216 93.3595 148.856ZM90.2155 146.552C89.6635 146.552 89.1995 146.72 88.8235 147.056C88.4555 147.392 88.2395 147.832 88.1755 148.376H92.2555C92.1915 147.84 91.9715 147.404 91.5955 147.068C91.2275 146.724 90.7675 146.552 90.2155 146.552ZM98.3552 145.58C99.1632 145.58 99.8032 145.816 100.275 146.288C100.755 146.752 100.995 147.436 100.995 148.34V152H99.8432V148.472C99.8432 147.856 99.6952 147.392 99.3992 147.08C99.1032 146.768 98.6792 146.612 98.1272 146.612C97.5032 146.612 97.0112 146.796 96.6512 147.164C96.2912 147.524 96.1112 148.044 96.1112 148.724V152H94.9592V145.64H96.0632V146.6C96.2952 146.272 96.6072 146.02 96.9992 145.844C97.3992 145.668 97.8512 145.58 98.3552 145.58ZM106.35 143.096H107.502V152H106.35V143.096ZM112.017 145.58C112.897 145.58 113.569 145.796 114.033 146.228C114.505 146.66 114.741 147.304 114.741 148.16V152H113.649V151.16C113.457 151.456 113.181 151.684 112.821 151.844C112.469 151.996 112.049 152.072 111.561 152.072C110.849 152.072 110.277 151.9 109.845 151.556C109.421 151.212 109.209 150.76 109.209 150.2C109.209 149.64 109.413 149.192 109.821 148.856C110.229 148.512 110.877 148.34 111.765 148.34H113.589V148.112C113.589 147.616 113.445 147.236 113.157 146.972C112.869 146.708 112.445 146.576 111.885 146.576C111.509 146.576 111.141 146.64 110.781 146.768C110.421 146.888 110.117 147.052 109.869 147.26L109.389 146.396C109.717 146.132 110.109 145.932 110.565 145.796C111.021 145.652 111.505 145.58 112.017 145.58ZM111.753 151.184C112.193 151.184 112.573 151.088 112.893 150.896C113.213 150.696 113.445 150.416 113.589 150.056V149.168H111.813C110.837 149.168 110.349 149.496 110.349 150.152C110.349 150.472 110.473 150.724 110.721 150.908C110.969 151.092 111.313 151.184 111.753 151.184ZM123.468 145.58C124.084 145.58 124.636 145.716 125.124 145.988C125.612 146.26 125.992 146.64 126.264 147.128C126.544 147.616 126.684 148.18 126.684 148.82C126.684 149.46 126.544 150.028 126.264 150.524C125.992 151.012 125.612 151.392 125.124 151.664C124.636 151.936 124.084 152.072 123.468 152.072C123.012 152.072 122.592 151.984 122.208 151.808C121.832 151.632 121.512 151.376 121.248 151.04V154.328H120.096V145.64H121.2V146.648C121.456 146.296 121.78 146.032 122.172 145.856C122.564 145.672 122.996 145.58 123.468 145.58ZM123.372 151.064C123.78 151.064 124.144 150.972 124.464 150.788C124.792 150.596 125.048 150.332 125.232 149.996C125.424 149.652 125.52 149.26 125.52 148.82C125.52 148.38 125.424 147.992 125.232 147.656C125.048 147.312 124.792 147.048 124.464 146.864C124.144 146.68 123.78 146.588 123.372 146.588C122.972 146.588 122.608 146.684 122.28 146.876C121.96 147.06 121.704 147.32 121.512 147.656C121.328 147.992 121.236 148.38 121.236 148.82C121.236 149.26 121.328 149.652 121.512 149.996C121.696 150.332 121.952 150.596 122.28 150.788C122.608 150.972 122.972 151.064 123.372 151.064ZM130.533 145.58C131.413 145.58 132.085 145.796 132.549 146.228C133.021 146.66 133.257 147.304 133.257 148.16V152H132.165V151.16C131.973 151.456 131.697 151.684 131.337 151.844C130.985 151.996 130.565 152.072 130.077 152.072C129.365 152.072 128.793 151.9 128.361 151.556C127.937 151.212 127.725 150.76 127.725 150.2C127.725 149.64 127.929 149.192 128.337 148.856C128.745 148.512 129.393 148.34 130.281 148.34H132.105V148.112C132.105 147.616 131.961 147.236 131.673 146.972C131.385 146.708 130.961 146.576 130.401 146.576C130.025 146.576 129.657 146.64 129.297 146.768C128.937 146.888 128.633 147.052 128.385 147.26L127.905 146.396C128.233 146.132 128.625 145.932 129.081 145.796C129.537 145.652 130.021 145.58 130.533 145.58ZM130.269 151.184C130.709 151.184 131.089 151.088 131.409 150.896C131.729 150.696 131.961 150.416 132.105 150.056V149.168H130.329C129.353 149.168 128.865 149.496 128.865 150.152C128.865 150.472 128.989 150.724 129.237 150.908C129.485 151.092 129.829 151.184 130.269 151.184ZM136.493 146.708C136.693 146.34 136.989 146.06 137.381 145.868C137.773 145.676 138.249 145.58 138.809 145.58V146.696C138.745 146.688 138.657 146.684 138.545 146.684C137.921 146.684 137.429 146.872 137.069 147.248C136.717 147.616 136.541 148.144 136.541 148.832V152H135.389V145.64H136.493V146.708ZM144.063 151.628C143.895 151.772 143.687 151.884 143.439 151.964C143.191 152.036 142.935 152.072 142.671 152.072C142.031 152.072 141.535 151.9 141.183 151.556C140.831 151.212 140.655 150.72 140.655 150.08V146.588H139.575V145.64H140.655V144.248H141.807V145.64H143.631V146.588H141.807V150.032C141.807 150.376 141.891 150.64 142.059 150.824C142.235 151.008 142.483 151.1 142.803 151.1C143.155 151.1 143.455 151 143.703 150.8L144.063 151.628ZM150.992 148.856C150.992 148.944 150.984 149.06 150.968 149.204H145.808C145.88 149.764 146.124 150.216 146.54 150.56C146.964 150.896 147.488 151.064 148.112 151.064C148.872 151.064 149.484 150.808 149.948 150.296L150.584 151.04C150.296 151.376 149.936 151.632 149.504 151.808C149.08 151.984 148.604 152.072 148.076 152.072C147.404 152.072 146.808 151.936 146.288 151.664C145.768 151.384 145.364 150.996 145.076 150.5C144.796 150.004 144.656 149.444 144.656 148.82C144.656 148.204 144.792 147.648 145.064 147.152C145.344 146.656 145.724 146.272 146.204 146C146.692 145.72 147.24 145.58 147.848 145.58C148.456 145.58 148.996 145.72 149.468 146C149.948 146.272 150.32 146.656 150.584 147.152C150.856 147.648 150.992 148.216 150.992 148.856ZM147.848 146.552C147.296 146.552 146.832 146.72 146.456 147.056C146.088 147.392 145.872 147.832 145.808 148.376H149.888C149.824 147.84 149.604 147.404 149.228 147.068C148.86 146.724 148.4 146.552 147.848 146.552ZM72.2248 163.856C72.2248 163.944 72.2168 164.06 72.2008 164.204H67.0408C67.1128 164.764 67.3568 165.216 67.7728 165.56C68.1968 165.896 68.7208 166.064 69.3448 166.064C70.1048 166.064 70.7168 165.808 71.1808 165.296L71.8168 166.04C71.5288 166.376 71.1688 166.632 70.7368 166.808C70.3128 166.984 69.8368 167.072 69.3088 167.072C68.6368 167.072 68.0408 166.936 67.5208 166.664C67.0008 166.384 66.5968 165.996 66.3088 165.5C66.0288 165.004 65.8888 164.444 65.8888 163.82C65.8888 163.204 66.0248 162.648 66.2968 162.152C66.5768 161.656 66.9568 161.272 67.4368 161C67.9248 160.72 68.4728 160.58 69.0808 160.58C69.6888 160.58 70.2288 160.72 70.7008 161C71.1808 161.272 71.5528 161.656 71.8168 162.152C72.0888 162.648 72.2248 163.216 72.2248 163.856ZM69.0808 161.552C68.5288 161.552 68.0648 161.72 67.6888 162.056C67.3208 162.392 67.1048 162.832 67.0408 163.376H71.1208C71.0568 162.84 70.8368 162.404 70.4608 162.068C70.0928 161.724 69.6328 161.552 69.0808 161.552ZM77.7046 167L75.8686 164.564L74.0086 167H72.7246L75.2326 163.748L72.8446 160.64H74.1286L75.8806 162.932L77.6206 160.64H78.8806L76.4806 163.748L79.0126 167H77.7046ZM83.8457 166.628C83.6777 166.772 83.4697 166.884 83.2217 166.964C82.9737 167.036 82.7177 167.072 82.4537 167.072C81.8137 167.072 81.3177 166.9 80.9657 166.556C80.6137 166.212 80.4377 165.72 80.4377 165.08V161.588H79.3577V160.64H80.4377V159.248H81.5897V160.64H83.4137V161.588H81.5897V165.032C81.5897 165.376 81.6737 165.64 81.8417 165.824C82.0177 166.008 82.2657 166.1 82.5857 166.1C82.9377 166.1 83.2377 166 83.4857 165.8L83.8457 166.628ZM90.7755 163.856C90.7755 163.944 90.7675 164.06 90.7515 164.204H85.5915C85.6635 164.764 85.9075 165.216 86.3235 165.56C86.7475 165.896 87.2715 166.064 87.8955 166.064C88.6555 166.064 89.2675 165.808 89.7315 165.296L90.3675 166.04C90.0795 166.376 89.7195 166.632 89.2875 166.808C88.8635 166.984 88.3875 167.072 87.8595 167.072C87.1875 167.072 86.5915 166.936 86.0715 166.664C85.5515 166.384 85.1475 165.996 84.8595 165.5C84.5795 165.004 84.4395 164.444 84.4395 163.82C84.4395 163.204 84.5755 162.648 84.8475 162.152C85.1275 161.656 85.5075 161.272 85.9875 161C86.4755 160.72 87.0235 160.58 87.6315 160.58C88.2395 160.58 88.7795 160.72 89.2515 161C89.7315 161.272 90.1035 161.656 90.3675 162.152C90.6395 162.648 90.7755 163.216 90.7755 163.856ZM87.6315 161.552C87.0795 161.552 86.6155 161.72 86.2395 162.056C85.8715 162.392 85.6555 162.832 85.5915 163.376H89.6715C89.6075 162.84 89.3875 162.404 89.0115 162.068C88.6435 161.724 88.1835 161.552 87.6315 161.552ZM93.4792 161.708C93.6792 161.34 93.9752 161.06 94.3672 160.868C94.7592 160.676 95.2352 160.58 95.7952 160.58V161.696C95.7312 161.688 95.6432 161.684 95.5312 161.684C94.9072 161.684 94.4152 161.872 94.0552 162.248C93.7032 162.616 93.5272 163.144 93.5272 163.832V167H92.3752V160.64H93.4792V161.708ZM97.215 160.64H98.367V167H97.215V160.64ZM97.791 159.416C97.567 159.416 97.379 159.344 97.227 159.2C97.083 159.056 97.011 158.88 97.011 158.672C97.011 158.464 97.083 158.288 97.227 158.144C97.379 157.992 97.567 157.916 97.791 157.916C98.015 157.916 98.199 157.988 98.343 158.132C98.495 158.268 98.571 158.44 98.571 158.648C98.571 158.864 98.495 159.048 98.343 159.2C98.199 159.344 98.015 159.416 97.791 159.416ZM103.291 167.072C102.659 167.072 102.091 166.932 101.587 166.652C101.083 166.372 100.687 165.988 100.399 165.5C100.119 165.004 99.9786 164.444 99.9786 163.82C99.9786 163.196 100.119 162.64 100.399 162.152C100.687 161.656 101.083 161.272 101.587 161C102.091 160.72 102.659 160.58 103.291 160.58C103.923 160.58 104.487 160.72 104.983 161C105.487 161.272 105.879 161.656 106.159 162.152C106.447 162.64 106.591 163.196 106.591 163.82C106.591 164.444 106.447 165.004 106.159 165.5C105.879 165.988 105.487 166.372 104.983 166.652C104.487 166.932 103.923 167.072 103.291 167.072ZM103.291 166.064C103.699 166.064 104.063 165.972 104.383 165.788C104.711 165.596 104.967 165.332 105.151 164.996C105.335 164.652 105.427 164.26 105.427 163.82C105.427 163.38 105.335 162.992 105.151 162.656C104.967 162.312 104.711 162.048 104.383 161.864C104.063 161.68 103.699 161.588 103.291 161.588C102.883 161.588 102.515 161.68 102.187 161.864C101.867 162.048 101.611 162.312 101.419 162.656C101.235 162.992 101.143 163.38 101.143 163.82C101.143 164.26 101.235 164.652 101.419 164.996C101.611 165.332 101.867 165.596 102.187 165.788C102.515 165.972 102.883 166.064 103.291 166.064ZM109.288 161.708C109.488 161.34 109.784 161.06 110.176 160.868C110.568 160.676 111.044 160.58 111.604 160.58V161.696C111.54 161.688 111.452 161.684 111.34 161.684C110.716 161.684 110.224 161.872 109.864 162.248C109.512 162.616 109.336 163.144 109.336 163.832V167H108.184V160.64H109.288V161.708ZM113.264 167.072C113.04 167.072 112.848 166.996 112.688 166.844C112.528 166.684 112.448 166.484 112.448 166.244C112.448 166.012 112.528 165.82 112.688 165.668C112.848 165.508 113.04 165.428 113.264 165.428C113.488 165.428 113.676 165.504 113.828 165.656C113.98 165.808 114.056 166.004 114.056 166.244C114.056 166.484 113.976 166.684 113.816 166.844C113.664 166.996 113.48 167.072 113.264 167.072Z" fill="#008E86"/>
<path d="M79.0001 59.3208C79.2104 58.8101 79.7949 58.5666 80.3056 58.7769C80.8162 58.9872 81.0598 59.5716 80.8495 60.0823L79.0001 59.3208ZM48.5409 20.5454C49.0228 20.2756 49.6322 20.4476 49.9019 20.9296L54.2979 28.783C54.5676 29.2649 54.3956 29.8743 53.9137 30.144C53.4318 30.4138 52.8224 30.2418 52.5527 29.7598L48.6452 22.779L41.6644 26.6865C41.1825 26.9563 40.5731 26.7843 40.3033 26.3024C40.0336 25.8204 40.2056 25.2111 40.6875 24.9413L48.5409 20.5454ZM80.8495 60.0823C74.9476 74.4154 68.5439 84.5078 62.5665 90.238C59.5794 93.1015 56.6363 94.9358 53.8556 95.608C51.0296 96.2912 48.4055 95.7607 46.2146 93.9747C44.0652 92.2225 42.4206 89.3353 41.3145 85.4575C40.2052 81.5681 39.6126 76.5963 39.6338 70.5597C39.6762 58.4852 42.1755 42.0189 48.0669 21.1464L49.9917 21.6897C44.1295 42.4588 41.6754 58.735 41.6338 70.5667C41.613 76.4832 42.1958 81.2555 43.2379 84.9089C44.2832 88.574 45.7659 91.0285 47.4784 92.4245C49.1495 93.7869 51.1219 94.2113 53.3856 93.664C55.6947 93.1058 58.3347 91.5242 61.1824 88.7942C66.8748 83.3374 73.1483 73.5324 79.0001 59.3208L80.8495 60.0823Z" fill="black"/>
<path d="M81.9399 33.5074L150.447 54.9999L81.9396 76.4924L73.8801 54.9999L81.9399 33.5074Z" fill="#008E86" stroke="#00635D" stroke-width="2" stroke-linejoin="round"/>
<path d="M29.5518 55L107.462 55.1798L81.9397 76.8521L29.5518 55Z" fill="#008E86" stroke="#00635D" stroke-width="2" stroke-linejoin="round"/>
<path d="M29.5518 55L81.9397 33.5075L107.462 55H29.5518Z" fill="#008E86" stroke="#00635D" stroke-width="2" stroke-linejoin="round"/>
<path d="M150.447 55L29.552 55" stroke="#00635D" stroke-width="2"/>
<path d="M150.447 55L29.552 55" stroke="#333333" stroke-width="2" stroke-dasharray="4 6"/>
<path d="M79.9248 59.7016C69.7986 84.2937 58.3015 96.0491 50.3726 94.8067" stroke="black" stroke-width="2" stroke-linecap="round"/>
</g>
<defs>
<clipPath id="clip0_5698_200164">
<rect width="180" height="180" rx="20" fill="white"/>
</clipPath>
<clipPath id="clip1_5698_200164">
<path d="M0 30L-1.31134e-06 0L30 -1.31134e-06L30 10C30 21.0457 21.0457 30 10 30L0 30Z" fill="white"/>
</clipPath>
</defs>
</svg>
