<svg width="180" height="180" viewBox="0 0 180 180" fill="none" xmlns="http://www.w3.org/2000/svg">
<g clip-path="url(#clip0_5698_200168)">
<rect width="180" height="180" rx="20" fill="#F2F2F2"/>

<path d="M27.0471 120.6H30.5871C31.4751 120.6 32.2631 120.776 32.9511 121.128C33.6391 121.48 34.1711 121.976 34.5471 122.616C34.9311 123.248 35.1231 123.976 35.1231 124.8C35.1231 125.624 34.9311 126.356 34.5471 126.996C34.1711 127.628 33.6391 128.12 32.9511 128.472C32.2631 128.824 31.4751 129 30.5871 129H27.0471V120.6ZM30.5151 127.956C31.1951 127.956 31.7911 127.824 32.3031 127.56C32.8231 127.296 33.2231 126.928 33.5031 126.456C33.7831 125.976 33.9231 125.424 33.9231 124.8C33.9231 124.176 33.7831 123.628 33.5031 123.156C33.2231 122.676 32.8231 122.304 32.3031 122.04C31.7911 121.776 31.1951 121.644 30.5151 121.644H28.2471V127.956H30.5151ZM39.5172 129.072C38.8852 129.072 38.3172 128.932 37.8132 128.652C37.3092 128.372 36.9132 127.988 36.6252 127.5C36.3452 127.004 36.2052 126.444 36.2052 125.82C36.2052 125.196 36.3452 124.64 36.6252 124.152C36.9132 123.656 37.3092 123.272 37.8132 123C38.3172 122.72 38.8852 122.58 39.5172 122.58C40.1492 122.58 40.7132 122.72 41.2092 123C41.7132 123.272 42.1052 123.656 42.3852 124.152C42.6732 124.64 42.8172 125.196 42.8172 125.82C42.8172 126.444 42.6732 127.004 42.3852 127.5C42.1052 127.988 41.7132 128.372 41.2092 128.652C40.7132 128.932 40.1492 129.072 39.5172 129.072ZM39.5172 128.064C39.9252 128.064 40.2892 127.972 40.6092 127.788C40.9372 127.596 41.1932 127.332 41.3772 126.996C41.5612 126.652 41.6532 126.26 41.6532 125.82C41.6532 125.38 41.5612 124.992 41.3772 124.656C41.1932 124.312 40.9372 124.048 40.6092 123.864C40.2892 123.68 39.9252 123.588 39.5172 123.588C39.1092 123.588 38.7412 123.68 38.4132 123.864C38.0932 124.048 37.8372 124.312 37.6452 124.656C37.4612 124.992 37.3692 125.38 37.3692 125.82C37.3692 126.26 37.4612 126.652 37.6452 126.996C37.8372 127.332 38.0932 127.596 38.4132 127.788C38.7412 127.972 39.1092 128.064 39.5172 128.064ZM47.7824 122.58C48.3984 122.58 48.9504 122.716 49.4384 122.988C49.9264 123.26 50.3064 123.64 50.5784 124.128C50.8584 124.616 50.9984 125.18 50.9984 125.82C50.9984 126.46 50.8584 127.028 50.5784 127.524C50.3064 128.012 49.9264 128.392 49.4384 128.664C48.9504 128.936 48.3984 129.072 47.7824 129.072C47.3104 129.072 46.8784 128.98 46.4864 128.796C46.0944 128.612 45.7704 128.344 45.5144 127.992V129H44.4104V120.096H45.5624V123.6C45.8184 123.264 46.1384 123.012 46.5224 122.844C46.9064 122.668 47.3264 122.58 47.7824 122.58ZM47.6864 128.064C48.0944 128.064 48.4584 127.972 48.7784 127.788C49.1064 127.596 49.3624 127.332 49.5464 126.996C49.7384 126.652 49.8344 126.26 49.8344 125.82C49.8344 125.38 49.7384 124.992 49.5464 124.656C49.3624 124.312 49.1064 124.048 48.7784 123.864C48.4584 123.68 48.0944 123.588 47.6864 123.588C47.2864 123.588 46.9224 123.68 46.5944 123.864C46.2664 124.048 46.0104 124.312 45.8264 124.656C45.6424 124.992 45.5504 125.38 45.5504 125.82C45.5504 126.26 45.6424 126.652 45.8264 126.996C46.0104 127.332 46.2664 127.596 46.5944 127.788C46.9224 127.972 47.2864 128.064 47.6864 128.064ZM52.59 120.096H53.742V129H52.59V120.096ZM58.2576 122.58C59.1376 122.58 59.8096 122.796 60.2736 123.228C60.7456 123.66 60.9816 124.304 60.9816 125.16V129H59.8896V128.16C59.6976 128.456 59.4216 128.684 59.0616 128.844C58.7096 128.996 58.2896 129.072 57.8016 129.072C57.0896 129.072 56.5176 128.9 56.0856 128.556C55.6616 128.212 55.4496 127.76 55.4496 127.2C55.4496 126.64 55.6536 126.192 56.0616 125.856C56.4696 125.512 57.1176 125.34 58.0056 125.34H59.8296V125.112C59.8296 124.616 59.6856 124.236 59.3976 123.972C59.1096 123.708 58.6856 123.576 58.1256 123.576C57.7496 123.576 57.3816 123.64 57.0216 123.768C56.6616 123.888 56.3576 124.052 56.1096 124.26L55.6296 123.396C55.9576 123.132 56.3496 122.932 56.8056 122.796C57.2616 122.652 57.7456 122.58 58.2576 122.58ZM57.9936 128.184C58.4336 128.184 58.8136 128.088 59.1336 127.896C59.4536 127.696 59.6856 127.416 59.8296 127.056V126.168H58.0536C57.0776 126.168 56.5896 126.496 56.5896 127.152C56.5896 127.472 56.7136 127.724 56.9616 127.908C57.2096 128.092 57.5536 128.184 57.9936 128.184ZM66.3361 120.096H67.4881V129H66.3361V120.096ZM72.0037 122.58C72.8837 122.58 73.5557 122.796 74.0197 123.228C74.4917 123.66 74.7277 124.304 74.7277 125.16V129H73.6357V128.16C73.4437 128.456 73.1677 128.684 72.8077 128.844C72.4557 128.996 72.0357 129.072 71.5477 129.072C70.8357 129.072 70.2637 128.9 69.8317 128.556C69.4077 128.212 69.1957 127.76 69.1957 127.2C69.1957 126.64 69.3997 126.192 69.8077 125.856C70.2157 125.512 70.8637 125.34 71.7517 125.34H73.5757V125.112C73.5757 124.616 73.4317 124.236 73.1437 123.972C72.8557 123.708 72.4317 123.576 71.8717 123.576C71.4957 123.576 71.1277 123.64 70.7677 123.768C70.4077 123.888 70.1037 124.052 69.8557 124.26L69.3757 123.396C69.7037 123.132 70.0957 122.932 70.5517 122.796C71.0077 122.652 71.4917 122.58 72.0037 122.58ZM71.7397 128.184C72.1797 128.184 72.5597 128.088 72.8797 127.896C73.1997 127.696 73.4317 127.416 73.5757 127.056V126.168H71.7997C70.8237 126.168 70.3357 126.496 70.3357 127.152C70.3357 127.472 70.4597 127.724 70.7077 127.908C70.9557 128.092 71.2997 128.184 71.7397 128.184ZM85.8302 125.856C85.8302 125.944 85.8222 126.06 85.8062 126.204H80.6462C80.7182 126.764 80.9622 127.216 81.3782 127.56C81.8022 127.896 82.3262 128.064 82.9502 128.064C83.7102 128.064 84.3222 127.808 84.7862 127.296L85.4222 128.04C85.1342 128.376 84.7742 128.632 84.3422 128.808C83.9182 128.984 83.4422 129.072 82.9142 129.072C82.2422 129.072 81.6462 128.936 81.1262 128.664C80.6062 128.384 80.2022 127.996 79.9142 127.5C79.6342 127.004 79.4942 126.444 79.4942 125.82C79.4942 125.204 79.6302 124.648 79.9022 124.152C80.1822 123.656 80.5622 123.272 81.0422 123C81.5302 122.72 82.0782 122.58 82.6862 122.58C83.2942 122.58 83.8342 122.72 84.3062 123C84.7862 123.272 85.1582 123.656 85.4222 124.152C85.6942 124.648 85.8302 125.216 85.8302 125.856ZM82.6862 123.552C82.1342 123.552 81.6702 123.72 81.2942 124.056C80.9262 124.392 80.7102 124.832 80.6462 125.376H84.7262C84.6622 124.84 84.4422 124.404 84.0662 124.068C83.6982 123.724 83.2382 123.552 82.6862 123.552ZM89.2539 129.072C88.7339 129.072 88.2339 129.004 87.7539 128.868C87.2739 128.724 86.8979 128.544 86.6259 128.328L87.1059 127.416C87.3859 127.616 87.7259 127.776 88.1259 127.896C88.5259 128.016 88.9299 128.076 89.3379 128.076C90.3459 128.076 90.8499 127.788 90.8499 127.212C90.8499 127.02 90.7819 126.868 90.6459 126.756C90.5099 126.644 90.3379 126.564 90.1299 126.516C89.9299 126.46 89.6419 126.4 89.2659 126.336C88.7539 126.256 88.3339 126.164 88.0059 126.06C87.6859 125.956 87.4099 125.78 87.1779 125.532C86.9459 125.284 86.8299 124.936 86.8299 124.488C86.8299 123.912 87.0699 123.452 87.5499 123.108C88.0299 122.756 88.6739 122.58 89.4819 122.58C89.9059 122.58 90.3299 122.632 90.7539 122.736C91.1779 122.84 91.5259 122.98 91.7979 123.156L91.3059 124.068C90.7859 123.732 90.1739 123.564 89.4699 123.564C88.9819 123.564 88.6099 123.644 88.3539 123.804C88.0979 123.964 87.9699 124.176 87.9699 124.44C87.9699 124.648 88.0419 124.812 88.1859 124.932C88.3299 125.052 88.5059 125.14 88.7139 125.196C88.9299 125.252 89.2299 125.316 89.6139 125.388C90.1259 125.476 90.5379 125.572 90.8499 125.676C91.1699 125.772 91.4419 125.94 91.6659 126.18C91.8899 126.42 92.0019 126.756 92.0019 127.188C92.0019 127.764 91.7539 128.224 91.2579 128.568C90.7699 128.904 90.1019 129.072 89.2539 129.072ZM99.4416 122.64V131.328H98.2896V128.04C98.0256 128.376 97.7016 128.632 97.3176 128.808C96.9416 128.984 96.5256 129.072 96.0696 129.072C95.4536 129.072 94.9016 128.936 94.4136 128.664C93.9256 128.392 93.5416 128.012 93.2616 127.524C92.9896 127.028 92.8536 126.46 92.8536 125.82C92.8536 125.18 92.9896 124.616 93.2616 124.128C93.5416 123.64 93.9256 123.26 94.4136 122.988C94.9016 122.716 95.4536 122.58 96.0696 122.58C96.5416 122.58 96.9736 122.672 97.3656 122.856C97.7576 123.032 98.0816 123.296 98.3376 123.648V122.64H99.4416ZM96.1656 128.064C96.5656 128.064 96.9296 127.972 97.2576 127.788C97.5856 127.596 97.8416 127.332 98.0256 126.996C98.2096 126.652 98.3016 126.26 98.3016 125.82C98.3016 125.38 98.2056 124.992 98.0136 124.656C97.8296 124.32 97.5736 124.06 97.2456 123.876C96.9256 123.684 96.5656 123.588 96.1656 123.588C95.7576 123.588 95.3896 123.68 95.0616 123.864C94.7416 124.048 94.4856 124.312 94.2936 124.656C94.1096 124.992 94.0176 125.38 94.0176 125.82C94.0176 126.26 94.1096 126.652 94.2936 126.996C94.4856 127.332 94.7416 127.596 95.0616 127.788C95.3896 127.972 95.7576 128.064 96.1656 128.064ZM107.549 122.64V129H106.457V128.04C106.225 128.368 105.917 128.624 105.533 128.808C105.157 128.984 104.745 129.072 104.297 129.072C103.449 129.072 102.781 128.84 102.293 128.376C101.805 127.904 101.561 127.212 101.561 126.3V122.64H102.713V126.168C102.713 126.784 102.861 127.252 103.157 127.572C103.453 127.884 103.877 128.04 104.429 128.04C105.037 128.04 105.517 127.856 105.869 127.488C106.221 127.12 106.397 126.6 106.397 125.928V122.64H107.549ZM109.742 122.64H110.894V129H109.742V122.64ZM110.318 121.416C110.094 121.416 109.906 121.344 109.754 121.2C109.61 121.056 109.538 120.88 109.538 120.672C109.538 120.464 109.61 120.288 109.754 120.144C109.906 119.992 110.094 119.916 110.318 119.916C110.542 119.916 110.726 119.988 110.87 120.132C111.022 120.268 111.098 120.44 111.098 120.648C111.098 120.864 111.022 121.048 110.87 121.2C110.726 121.344 110.542 121.416 110.318 121.416ZM116.49 122.58C117.298 122.58 117.938 122.816 118.41 123.288C118.89 123.752 119.13 124.436 119.13 125.34V129H117.978V125.472C117.978 124.856 117.83 124.392 117.534 124.08C117.238 123.768 116.814 123.612 116.262 123.612C115.638 123.612 115.146 123.796 114.786 124.164C114.426 124.524 114.246 125.044 114.246 125.724V129H113.094V122.64H114.198V123.6C114.43 123.272 114.742 123.02 115.134 122.844C115.534 122.668 115.986 122.58 116.49 122.58ZM123.578 122.58C124.458 122.58 125.13 122.796 125.594 123.228C126.066 123.66 126.302 124.304 126.302 125.16V129H125.21V128.16C125.018 128.456 124.742 128.684 124.382 128.844C124.03 128.996 123.61 129.072 123.122 129.072C122.41 129.072 121.838 128.9 121.406 128.556C120.982 128.212 120.77 127.76 120.77 127.2C120.77 126.64 120.974 126.192 121.382 125.856C121.79 125.512 122.438 125.34 123.326 125.34H125.15V125.112C125.15 124.616 125.006 124.236 124.718 123.972C124.43 123.708 124.006 123.576 123.446 123.576C123.07 123.576 122.702 123.64 122.342 123.768C121.982 123.888 121.678 124.052 121.43 124.26L120.95 123.396C121.278 123.132 121.67 122.932 122.126 122.796C122.582 122.652 123.066 122.58 123.578 122.58ZM123.314 128.184C123.754 128.184 124.134 128.088 124.454 127.896C124.774 127.696 125.006 127.416 125.15 127.056V126.168H123.374C122.398 126.168 121.91 126.496 121.91 127.152C121.91 127.472 122.034 127.724 122.282 127.908C122.53 128.092 122.874 128.184 123.314 128.184ZM137.656 122.64V131.328H136.504V128.04C136.24 128.376 135.916 128.632 135.532 128.808C135.156 128.984 134.74 129.072 134.284 129.072C133.668 129.072 133.116 128.936 132.628 128.664C132.14 128.392 131.756 128.012 131.476 127.524C131.204 127.028 131.068 126.46 131.068 125.82C131.068 125.18 131.204 124.616 131.476 124.128C131.756 123.64 132.14 123.26 132.628 122.988C133.116 122.716 133.668 122.58 134.284 122.58C134.756 122.58 135.188 122.672 135.58 122.856C135.972 123.032 136.296 123.296 136.552 123.648V122.64H137.656ZM134.38 128.064C134.78 128.064 135.144 127.972 135.472 127.788C135.8 127.596 136.056 127.332 136.24 126.996C136.424 126.652 136.516 126.26 136.516 125.82C136.516 125.38 136.42 124.992 136.228 124.656C136.044 124.32 135.788 124.06 135.46 123.876C135.14 123.684 134.78 123.588 134.38 123.588C133.972 123.588 133.604 123.68 133.276 123.864C132.956 124.048 132.7 124.312 132.508 124.656C132.324 124.992 132.232 125.38 132.232 125.82C132.232 126.26 132.324 126.652 132.508 126.996C132.7 127.332 132.956 127.596 133.276 127.788C133.604 127.972 133.972 128.064 134.38 128.064ZM145.764 122.64V129H144.672V128.04C144.44 128.368 144.132 128.624 143.748 128.808C143.372 128.984 142.96 129.072 142.512 129.072C141.664 129.072 140.996 128.84 140.508 128.376C140.02 127.904 139.776 127.212 139.776 126.3V122.64H140.928V126.168C140.928 126.784 141.076 127.252 141.372 127.572C141.668 127.884 142.092 128.04 142.644 128.04C143.252 128.04 143.732 127.856 144.084 127.488C144.436 127.12 144.612 126.6 144.612 125.928V122.64H145.764ZM153.705 125.856C153.705 125.944 153.697 126.06 153.681 126.204H148.521C148.593 126.764 148.837 127.216 149.253 127.56C149.677 127.896 150.201 128.064 150.825 128.064C151.585 128.064 152.197 127.808 152.661 127.296L153.297 128.04C153.009 128.376 152.649 128.632 152.217 128.808C151.793 128.984 151.317 129.072 150.789 129.072C150.117 129.072 149.521 128.936 149.001 128.664C148.481 128.384 148.077 127.996 147.789 127.5C147.509 127.004 147.369 126.444 147.369 125.82C147.369 125.204 147.505 124.648 147.777 124.152C148.057 123.656 148.437 123.272 148.917 123C149.405 122.72 149.953 122.58 150.561 122.58C151.169 122.58 151.709 122.72 152.181 123C152.661 123.272 153.033 123.656 153.297 124.152C153.569 124.648 153.705 125.216 153.705 125.856ZM150.561 123.552C150.009 123.552 149.545 123.72 149.169 124.056C148.801 124.392 148.585 124.832 148.521 125.376H152.601C152.537 124.84 152.317 124.404 151.941 124.068C151.573 123.724 151.113 123.552 150.561 123.552ZM38.2715 143.628C38.1035 143.772 37.8955 143.884 37.6475 143.964C37.3995 144.036 37.1435 144.072 36.8795 144.072C36.2395 144.072 35.7435 143.9 35.3915 143.556C35.0395 143.212 34.8635 142.72 34.8635 142.08V138.588H33.7835V137.64H34.8635V136.248H36.0155V137.64H37.8395V138.588H36.0155V142.032C36.0155 142.376 36.0995 142.64 36.2675 142.824C36.4435 143.008 36.6915 143.1 37.0115 143.1C37.3635 143.1 37.6635 143 37.9115 142.8L38.2715 143.628ZM45.2013 140.856C45.2013 140.944 45.1933 141.06 45.1773 141.204H40.0173C40.0893 141.764 40.3333 142.216 40.7493 142.56C41.1733 142.896 41.6973 143.064 42.3213 143.064C43.0813 143.064 43.6933 142.808 44.1573 142.296L44.7933 143.04C44.5053 143.376 44.1453 143.632 43.7133 143.808C43.2893 143.984 42.8133 144.072 42.2853 144.072C41.6133 144.072 41.0173 143.936 40.4973 143.664C39.9773 143.384 39.5733 142.996 39.2853 142.5C39.0053 142.004 38.8653 141.444 38.8653 140.82C38.8653 140.204 39.0013 139.648 39.2733 139.152C39.5533 138.656 39.9333 138.272 40.4133 138C40.9013 137.72 41.4493 137.58 42.0573 137.58C42.6653 137.58 43.2053 137.72 43.6773 138C44.1573 138.272 44.5293 138.656 44.7933 139.152C45.0653 139.648 45.2013 140.216 45.2013 140.856ZM42.0573 138.552C41.5053 138.552 41.0413 138.72 40.6653 139.056C40.2973 139.392 40.0813 139.832 40.0173 140.376H44.0973C44.0333 139.84 43.8133 139.404 43.4373 139.068C43.0693 138.724 42.6093 138.552 42.0573 138.552ZM50.0236 137.64H51.1756V144H50.0236V137.64ZM50.5996 136.416C50.3756 136.416 50.1876 136.344 50.0356 136.2C49.8916 136.056 49.8196 135.88 49.8196 135.672C49.8196 135.464 49.8916 135.288 50.0356 135.144C50.1876 134.992 50.3756 134.916 50.5996 134.916C50.8236 134.916 51.0076 134.988 51.1516 135.132C51.3036 135.268 51.3796 135.44 51.3796 135.648C51.3796 135.864 51.3036 136.048 51.1516 136.2C51.0076 136.344 50.8236 136.416 50.5996 136.416ZM56.7712 137.58C57.5792 137.58 58.2192 137.816 58.6912 138.288C59.1712 138.752 59.4112 139.436 59.4112 140.34V144H58.2592V140.472C58.2592 139.856 58.1112 139.392 57.8152 139.08C57.5192 138.768 57.0952 138.612 56.5432 138.612C55.9192 138.612 55.4272 138.796 55.0672 139.164C54.7072 139.524 54.5272 140.044 54.5272 140.724V144H53.3752V137.64H54.4792V138.6C54.7112 138.272 55.0232 138.02 55.4152 137.844C55.8152 137.668 56.2672 137.58 56.7712 137.58ZM67.5783 135.096V144H66.4743V142.992C66.2183 143.344 65.8943 143.612 65.5023 143.796C65.1103 143.98 64.6783 144.072 64.2063 144.072C63.5903 144.072 63.0383 143.936 62.5503 143.664C62.0623 143.392 61.6783 143.012 61.3983 142.524C61.1263 142.028 60.9903 141.46 60.9903 140.82C60.9903 140.18 61.1263 139.616 61.3983 139.128C61.6783 138.64 62.0623 138.26 62.5503 137.988C63.0383 137.716 63.5903 137.58 64.2063 137.58C64.6623 137.58 65.0823 137.668 65.4663 137.844C65.8503 138.012 66.1703 138.264 66.4263 138.6V135.096H67.5783ZM64.3023 143.064C64.7023 143.064 65.0663 142.972 65.3943 142.788C65.7223 142.596 65.9783 142.332 66.1623 141.996C66.3463 141.652 66.4383 141.26 66.4383 140.82C66.4383 140.38 66.3463 139.992 66.1623 139.656C65.9783 139.312 65.7223 139.048 65.3943 138.864C65.0663 138.68 64.7023 138.588 64.3023 138.588C63.8943 138.588 63.5263 138.68 63.1983 138.864C62.8783 139.048 62.6223 139.312 62.4303 139.656C62.2463 139.992 62.1543 140.38 62.1543 140.82C62.1543 141.26 62.2463 141.652 62.4303 141.996C62.6223 142.332 62.8783 142.596 63.1983 142.788C63.5263 142.972 63.8943 143.064 64.3023 143.064ZM69.758 137.64H70.91V144H69.758V137.64ZM70.334 136.416C70.11 136.416 69.922 136.344 69.77 136.2C69.626 136.056 69.554 135.88 69.554 135.672C69.554 135.464 69.626 135.288 69.77 135.144C69.922 134.992 70.11 134.916 70.334 134.916C70.558 134.916 70.742 134.988 70.886 135.132C71.038 135.268 71.114 135.44 71.114 135.648C71.114 135.864 71.038 136.048 70.886 136.2C70.742 136.344 70.558 136.416 70.334 136.416ZM75.8816 144.072C75.2336 144.072 74.6536 143.932 74.1416 143.652C73.6376 143.372 73.2416 142.988 72.9536 142.5C72.6656 142.004 72.5216 141.444 72.5216 140.82C72.5216 140.196 72.6656 139.64 72.9536 139.152C73.2416 138.656 73.6376 138.272 74.1416 138C74.6536 137.72 75.2336 137.58 75.8816 137.58C76.4576 137.58 76.9696 137.696 77.4176 137.928C77.8736 138.16 78.2256 138.496 78.4736 138.936L77.5976 139.5C77.3976 139.196 77.1496 138.968 76.8536 138.816C76.5576 138.664 76.2296 138.588 75.8696 138.588C75.4536 138.588 75.0776 138.68 74.7416 138.864C74.4136 139.048 74.1536 139.312 73.9616 139.656C73.7776 139.992 73.6856 140.38 73.6856 140.82C73.6856 141.268 73.7776 141.664 73.9616 142.008C74.1536 142.344 74.4136 142.604 74.7416 142.788C75.0776 142.972 75.4536 143.064 75.8696 143.064C76.2296 143.064 76.5576 142.988 76.8536 142.836C77.1496 142.684 77.3976 142.456 77.5976 142.152L78.4736 142.704C78.2256 143.144 77.8736 143.484 77.4176 143.724C76.9696 143.956 76.4576 144.072 75.8816 144.072ZM82.281 137.58C83.161 137.58 83.833 137.796 84.297 138.228C84.769 138.66 85.005 139.304 85.005 140.16V144H83.913V143.16C83.721 143.456 83.445 143.684 83.085 143.844C82.733 143.996 82.313 144.072 81.825 144.072C81.113 144.072 80.541 143.9 80.109 143.556C79.685 143.212 79.473 142.76 79.473 142.2C79.473 141.64 79.677 141.192 80.085 140.856C80.493 140.512 81.141 140.34 82.029 140.34H83.853V140.112C83.853 139.616 83.709 139.236 83.421 138.972C83.133 138.708 82.709 138.576 82.149 138.576C81.773 138.576 81.405 138.64 81.045 138.768C80.685 138.888 80.381 139.052 80.133 139.26L79.653 138.396C79.981 138.132 80.373 137.932 80.829 137.796C81.285 137.652 81.769 137.58 82.281 137.58ZM82.017 143.184C82.457 143.184 82.837 143.088 83.157 142.896C83.477 142.696 83.709 142.416 83.853 142.056V141.168H82.077C81.101 141.168 80.613 141.496 80.613 142.152C80.613 142.472 80.737 142.724 80.985 142.908C81.233 143.092 81.577 143.184 82.017 143.184ZM96.1076 140.856C96.1076 140.944 96.0996 141.06 96.0836 141.204H90.9236C90.9956 141.764 91.2396 142.216 91.6556 142.56C92.0796 142.896 92.6036 143.064 93.2276 143.064C93.9876 143.064 94.5996 142.808 95.0636 142.296L95.6996 143.04C95.4116 143.376 95.0516 143.632 94.6196 143.808C94.1956 143.984 93.7196 144.072 93.1916 144.072C92.5196 144.072 91.9236 143.936 91.4036 143.664C90.8836 143.384 90.4796 142.996 90.1916 142.5C89.9116 142.004 89.7716 141.444 89.7716 140.82C89.7716 140.204 89.9076 139.648 90.1796 139.152C90.4596 138.656 90.8396 138.272 91.3196 138C91.8076 137.72 92.3556 137.58 92.9636 137.58C93.5716 137.58 94.1116 137.72 94.5836 138C95.0636 138.272 95.4356 138.656 95.6996 139.152C95.9716 139.648 96.1076 140.216 96.1076 140.856ZM92.9636 138.552C92.4116 138.552 91.9476 138.72 91.5716 139.056C91.2036 139.392 90.9876 139.832 90.9236 140.376H95.0036C94.9396 139.84 94.7196 139.404 94.3436 139.068C93.9756 138.724 93.5156 138.552 92.9636 138.552ZM97.7072 135.096H98.8592V144H97.7072V135.096ZM110.365 137.64V143.136C110.365 144.248 110.089 145.068 109.537 145.596C108.985 146.132 108.161 146.4 107.065 146.4C106.465 146.4 105.893 146.316 105.349 146.148C104.805 145.988 104.365 145.756 104.029 145.452L104.581 144.564C104.877 144.82 105.241 145.02 105.673 145.164C106.113 145.316 106.565 145.392 107.029 145.392C107.773 145.392 108.321 145.216 108.673 144.864C109.033 144.512 109.213 143.976 109.213 143.256V142.752C108.941 143.08 108.605 143.328 108.205 143.496C107.813 143.656 107.385 143.736 106.921 143.736C106.313 143.736 105.761 143.608 105.265 143.352C104.777 143.088 104.393 142.724 104.113 142.26C103.833 141.788 103.693 141.252 103.693 140.652C103.693 140.052 103.833 139.52 104.113 139.056C104.393 138.584 104.777 138.22 105.265 137.964C105.761 137.708 106.313 137.58 106.921 137.58C107.401 137.58 107.845 137.668 108.253 137.844C108.669 138.02 109.009 138.28 109.273 138.624V137.64H110.365ZM107.053 142.728C107.469 142.728 107.841 142.64 108.169 142.464C108.505 142.288 108.765 142.044 108.949 141.732C109.141 141.412 109.237 141.052 109.237 140.652C109.237 140.036 109.033 139.54 108.625 139.164C108.217 138.78 107.693 138.588 107.053 138.588C106.405 138.588 105.877 138.78 105.469 139.164C105.061 139.54 104.857 140.036 104.857 140.652C104.857 141.052 104.949 141.412 105.133 141.732C105.325 142.044 105.585 142.288 105.913 142.464C106.249 142.64 106.629 142.728 107.053 142.728ZM113.671 138.708C113.871 138.34 114.167 138.06 114.559 137.868C114.951 137.676 115.427 137.58 115.987 137.58V138.696C115.923 138.688 115.835 138.684 115.723 138.684C115.099 138.684 114.607 138.872 114.247 139.248C113.895 139.616 113.719 140.144 113.719 140.832V144H112.567V137.64H113.671V138.708ZM119.711 137.58C120.591 137.58 121.263 137.796 121.727 138.228C122.199 138.66 122.435 139.304 122.435 140.16V144H121.343V143.16C121.151 143.456 120.875 143.684 120.515 143.844C120.163 143.996 119.743 144.072 119.255 144.072C118.543 144.072 117.971 143.9 117.539 143.556C117.115 143.212 116.903 142.76 116.903 142.2C116.903 141.64 117.107 141.192 117.515 140.856C117.923 140.512 118.571 140.34 119.459 140.34H121.283V140.112C121.283 139.616 121.139 139.236 120.851 138.972C120.563 138.708 120.139 138.576 119.579 138.576C119.203 138.576 118.835 138.64 118.475 138.768C118.115 138.888 117.811 139.052 117.563 139.26L117.083 138.396C117.411 138.132 117.803 137.932 118.259 137.796C118.715 137.652 119.199 137.58 119.711 137.58ZM119.447 143.184C119.887 143.184 120.267 143.088 120.587 142.896C120.907 142.696 121.139 142.416 121.283 142.056V141.168H119.507C118.531 141.168 118.043 141.496 118.043 142.152C118.043 142.472 118.167 142.724 118.415 142.908C118.663 143.092 119.007 143.184 119.447 143.184ZM120.527 135.156H121.991L119.975 136.716H118.895L120.527 135.156ZM126.895 135.972C126.207 135.972 125.863 136.344 125.863 137.088V137.64H127.711V138.588H125.887V144H124.735V138.588H123.655V137.64H124.735V137.076C124.735 136.444 124.919 135.944 125.287 135.576C125.655 135.208 126.171 135.024 126.835 135.024C127.091 135.024 127.331 135.056 127.555 135.12C127.779 135.184 127.971 135.276 128.131 135.396L127.783 136.272C127.519 136.072 127.223 135.972 126.895 135.972ZM129.763 137.64H130.915V144H129.763V137.64ZM130.339 136.416C130.115 136.416 129.927 136.344 129.775 136.2C129.631 136.056 129.559 135.88 129.559 135.672C129.559 135.464 129.631 135.288 129.775 135.144C129.927 134.992 130.115 134.916 130.339 134.916C130.563 134.916 130.747 134.988 130.891 135.132C131.043 135.268 131.119 135.44 131.119 135.648C131.119 135.864 131.043 136.048 130.891 136.2C130.747 136.344 130.563 136.416 130.339 136.416ZM135.882 144.072C135.234 144.072 134.654 143.932 134.142 143.652C133.638 143.372 133.242 142.988 132.954 142.5C132.666 142.004 132.522 141.444 132.522 140.82C132.522 140.196 132.666 139.64 132.954 139.152C133.242 138.656 133.638 138.272 134.142 138C134.654 137.72 135.234 137.58 135.882 137.58C136.458 137.58 136.97 137.696 137.418 137.928C137.874 138.16 138.226 138.496 138.474 138.936L137.598 139.5C137.398 139.196 137.15 138.968 136.854 138.816C136.558 138.664 136.23 138.588 135.87 138.588C135.454 138.588 135.078 138.68 134.742 138.864C134.414 139.048 134.154 139.312 133.962 139.656C133.778 139.992 133.686 140.38 133.686 140.82C133.686 141.268 133.778 141.664 133.962 142.008C134.154 142.344 134.414 142.604 134.742 142.788C135.078 142.972 135.454 143.064 135.87 143.064C136.23 143.064 136.558 142.988 136.854 142.836C137.15 142.684 137.398 142.456 137.598 142.152L138.474 142.704C138.226 143.144 137.874 143.484 137.418 143.724C136.97 143.956 136.458 144.072 135.882 144.072ZM142.595 144.072C141.963 144.072 141.395 143.932 140.891 143.652C140.387 143.372 139.991 142.988 139.703 142.5C139.423 142.004 139.283 141.444 139.283 140.82C139.283 140.196 139.423 139.64 139.703 139.152C139.991 138.656 140.387 138.272 140.891 138C141.395 137.72 141.963 137.58 142.595 137.58C143.227 137.58 143.791 137.72 144.287 138C144.791 138.272 145.183 138.656 145.463 139.152C145.751 139.64 145.895 140.196 145.895 140.82C145.895 141.444 145.751 142.004 145.463 142.5C145.183 142.988 144.791 143.372 144.287 143.652C143.791 143.932 143.227 144.072 142.595 144.072ZM142.595 143.064C143.003 143.064 143.367 142.972 143.687 142.788C144.015 142.596 144.271 142.332 144.455 141.996C144.639 141.652 144.731 141.26 144.731 140.82C144.731 140.38 144.639 139.992 144.455 139.656C144.271 139.312 144.015 139.048 143.687 138.864C143.367 138.68 143.003 138.588 142.595 138.588C142.187 138.588 141.819 138.68 141.491 138.864C141.171 139.048 140.915 139.312 140.723 139.656C140.539 139.992 140.447 140.38 140.447 140.82C140.447 141.26 140.539 141.652 140.723 141.996C140.915 142.332 141.171 142.596 141.491 142.788C141.819 142.972 142.187 143.064 142.595 143.064ZM51.0759 152.58C51.8839 152.58 52.5239 152.816 52.9959 153.288C53.4759 153.752 53.7159 154.436 53.7159 155.34V159H52.5639V155.472C52.5639 154.856 52.4159 154.392 52.1199 154.08C51.8239 153.768 51.3999 153.612 50.8479 153.612C50.2239 153.612 49.7319 153.796 49.3719 154.164C49.0119 154.524 48.8319 155.044 48.8319 155.724V159H47.6799V150.096H48.8319V153.54C49.0719 153.236 49.3839 153 49.7679 152.832C50.1599 152.664 50.5959 152.58 51.0759 152.58ZM58.1639 152.58C59.0439 152.58 59.7159 152.796 60.1799 153.228C60.6519 153.66 60.8879 154.304 60.8879 155.16V159H59.7959V158.16C59.6039 158.456 59.3279 158.684 58.9679 158.844C58.6159 158.996 58.1959 159.072 57.7079 159.072C56.9959 159.072 56.4239 158.9 55.9919 158.556C55.5679 158.212 55.3559 157.76 55.3559 157.2C55.3559 156.64 55.5599 156.192 55.9679 155.856C56.3759 155.512 57.0239 155.34 57.9119 155.34H59.7359V155.112C59.7359 154.616 59.5919 154.236 59.3039 153.972C59.0159 153.708 58.5919 153.576 58.0319 153.576C57.6559 153.576 57.2879 153.64 56.9279 153.768C56.5679 153.888 56.2639 154.052 56.0159 154.26L55.5359 153.396C55.8639 153.132 56.2559 152.932 56.7119 152.796C57.1679 152.652 57.6519 152.58 58.1639 152.58ZM57.8999 158.184C58.3399 158.184 58.7199 158.088 59.0399 157.896C59.3599 157.696 59.5919 157.416 59.7359 157.056V156.168H57.9599C56.9839 156.168 56.4959 156.496 56.4959 157.152C56.4959 157.472 56.6199 157.724 56.8679 157.908C57.1159 158.092 57.4599 158.184 57.8999 158.184ZM65.8269 159.072C65.1789 159.072 64.5989 158.932 64.0869 158.652C63.5829 158.372 63.1869 157.988 62.8989 157.5C62.6109 157.004 62.4669 156.444 62.4669 155.82C62.4669 155.196 62.6109 154.64 62.8989 154.152C63.1869 153.656 63.5829 153.272 64.0869 153C64.5989 152.72 65.1789 152.58 65.8269 152.58C66.4029 152.58 66.9149 152.696 67.3629 152.928C67.8189 153.16 68.1709 153.496 68.4189 153.936L67.5429 154.5C67.3429 154.196 67.0949 153.968 66.7989 153.816C66.5029 153.664 66.1749 153.588 65.8149 153.588C65.3989 153.588 65.0229 153.68 64.6869 153.864C64.3589 154.048 64.0989 154.312 63.9069 154.656C63.7229 154.992 63.6309 155.38 63.6309 155.82C63.6309 156.268 63.7229 156.664 63.9069 157.008C64.0989 157.344 64.3589 157.604 64.6869 157.788C65.0229 157.972 65.3989 158.064 65.8149 158.064C66.1749 158.064 66.5029 157.988 66.7989 157.836C67.0949 157.684 67.3429 157.456 67.5429 157.152L68.4189 157.704C68.1709 158.144 67.8189 158.484 67.3629 158.724C66.9149 158.956 66.4029 159.072 65.8269 159.072ZM69.9104 152.64H71.0624V159H69.9104V152.64ZM70.4864 151.416C70.2624 151.416 70.0744 151.344 69.9224 151.2C69.7784 151.056 69.7064 150.88 69.7064 150.672C69.7064 150.464 69.7784 150.288 69.9224 150.144C70.0744 149.992 70.2624 149.916 70.4864 149.916C70.7104 149.916 70.8944 149.988 71.0384 150.132C71.1904 150.268 71.2664 150.44 71.2664 150.648C71.2664 150.864 71.1904 151.048 71.0384 151.2C70.8944 151.344 70.7104 151.416 70.4864 151.416ZM75.5779 152.58C76.4579 152.58 77.1299 152.796 77.5939 153.228C78.0659 153.66 78.3019 154.304 78.3019 155.16V159H77.2099V158.16C77.0179 158.456 76.7419 158.684 76.3819 158.844C76.0299 158.996 75.6099 159.072 75.1219 159.072C74.4099 159.072 73.8379 158.9 73.4059 158.556C72.9819 158.212 72.7699 157.76 72.7699 157.2C72.7699 156.64 72.9739 156.192 73.3819 155.856C73.7899 155.512 74.4379 155.34 75.3259 155.34H77.1499V155.112C77.1499 154.616 77.0059 154.236 76.7179 153.972C76.4299 153.708 76.0059 153.576 75.4459 153.576C75.0699 153.576 74.7019 153.64 74.3419 153.768C73.9819 153.888 73.6779 154.052 73.4299 154.26L72.9499 153.396C73.2779 153.132 73.6699 152.932 74.1259 152.796C74.5819 152.652 75.0659 152.58 75.5779 152.58ZM75.3139 158.184C75.7539 158.184 76.1339 158.088 76.4539 157.896C76.7739 157.696 77.0059 157.416 77.1499 157.056V156.168H75.3739C74.3979 156.168 73.9099 156.496 73.9099 157.152C73.9099 157.472 74.0339 157.724 74.2819 157.908C74.5299 158.092 74.8739 158.184 75.3139 158.184ZM85.9725 152.58C86.8525 152.58 87.5245 152.796 87.9885 153.228C88.4605 153.66 88.6965 154.304 88.6965 155.16V159H87.6045V158.16C87.4125 158.456 87.1365 158.684 86.7765 158.844C86.4245 158.996 86.0045 159.072 85.5165 159.072C84.8045 159.072 84.2325 158.9 83.8005 158.556C83.3765 158.212 83.1645 157.76 83.1645 157.2C83.1645 156.64 83.3685 156.192 83.7765 155.856C84.1845 155.512 84.8325 155.34 85.7205 155.34H87.5445V155.112C87.5445 154.616 87.4005 154.236 87.1125 153.972C86.8245 153.708 86.4005 153.576 85.8405 153.576C85.4645 153.576 85.0965 153.64 84.7365 153.768C84.3765 153.888 84.0725 154.052 83.8245 154.26L83.3445 153.396C83.6725 153.132 84.0645 152.932 84.5205 152.796C84.9765 152.652 85.4605 152.58 85.9725 152.58ZM85.7085 158.184C86.1485 158.184 86.5285 158.088 86.8485 157.896C87.1685 157.696 87.4005 157.416 87.5445 157.056V156.168H85.7685C84.7925 156.168 84.3045 156.496 84.3045 157.152C84.3045 157.472 84.4285 157.724 84.6765 157.908C84.9245 158.092 85.2685 158.184 85.7085 158.184ZM96.8635 150.096V159H95.7595V157.992C95.5035 158.344 95.1795 158.612 94.7875 158.796C94.3955 158.98 93.9635 159.072 93.4915 159.072C92.8755 159.072 92.3235 158.936 91.8355 158.664C91.3475 158.392 90.9635 158.012 90.6835 157.524C90.4115 157.028 90.2755 156.46 90.2755 155.82C90.2755 155.18 90.4115 154.616 90.6835 154.128C90.9635 153.64 91.3475 153.26 91.8355 152.988C92.3235 152.716 92.8755 152.58 93.4915 152.58C93.9475 152.58 94.3675 152.668 94.7515 152.844C95.1355 153.012 95.4555 153.264 95.7115 153.6V150.096H96.8635ZM93.5875 158.064C93.9875 158.064 94.3515 157.972 94.6795 157.788C95.0075 157.596 95.2635 157.332 95.4475 156.996C95.6315 156.652 95.7235 156.26 95.7235 155.82C95.7235 155.38 95.6315 154.992 95.4475 154.656C95.2635 154.312 95.0075 154.048 94.6795 153.864C94.3515 153.68 93.9875 153.588 93.5875 153.588C93.1795 153.588 92.8115 153.68 92.4835 153.864C92.1635 154.048 91.9075 154.312 91.7155 154.656C91.5315 154.992 91.4395 155.38 91.4395 155.82C91.4395 156.26 91.5315 156.652 91.7155 156.996C91.9075 157.332 92.1635 157.596 92.4835 157.788C92.8115 157.972 93.1795 158.064 93.5875 158.064ZM104.791 155.856C104.791 155.944 104.783 156.06 104.767 156.204H99.6072C99.6792 156.764 99.9232 157.216 100.339 157.56C100.763 157.896 101.287 158.064 101.911 158.064C102.671 158.064 103.283 157.808 103.747 157.296L104.383 158.04C104.095 158.376 103.735 158.632 103.303 158.808C102.879 158.984 102.403 159.072 101.875 159.072C101.203 159.072 100.607 158.936 100.087 158.664C99.5672 158.384 99.1632 157.996 98.8752 157.5C98.5952 157.004 98.4552 156.444 98.4552 155.82C98.4552 155.204 98.5912 154.648 98.8632 154.152C99.1432 153.656 99.5232 153.272 100.003 153C100.491 152.72 101.039 152.58 101.647 152.58C102.255 152.58 102.795 152.72 103.267 153C103.747 153.272 104.119 153.656 104.383 154.152C104.655 154.648 104.791 155.216 104.791 155.856ZM101.647 153.552C101.095 153.552 100.631 153.72 100.255 154.056C99.8872 154.392 99.6712 154.832 99.6072 155.376H103.687C103.623 154.84 103.403 154.404 103.027 154.068C102.659 153.724 102.199 153.552 101.647 153.552ZM109.787 152.58C110.595 152.58 111.235 152.816 111.707 153.288C112.187 153.752 112.427 154.436 112.427 155.34V159H111.275V155.472C111.275 154.856 111.127 154.392 110.831 154.08C110.535 153.768 110.111 153.612 109.559 153.612C108.935 153.612 108.443 153.796 108.083 154.164C107.723 154.524 107.543 155.044 107.543 155.724V159H106.391V152.64H107.495V153.6C107.727 153.272 108.039 153.02 108.431 152.844C108.831 152.668 109.283 152.58 109.787 152.58ZM118.135 158.628C117.967 158.772 117.759 158.884 117.511 158.964C117.263 159.036 117.007 159.072 116.743 159.072C116.103 159.072 115.607 158.9 115.255 158.556C114.903 158.212 114.727 157.72 114.727 157.08V153.588H113.647V152.64H114.727V151.248H115.879V152.64H117.703V153.588H115.879V157.032C115.879 157.376 115.963 157.64 116.131 157.824C116.307 158.008 116.555 158.1 116.875 158.1C117.227 158.1 117.527 158 117.775 157.8L118.135 158.628ZM120.632 153.708C120.832 153.34 121.128 153.06 121.52 152.868C121.912 152.676 122.388 152.58 122.948 152.58V153.696C122.884 153.688 122.796 153.684 122.684 153.684C122.06 153.684 121.568 153.872 121.208 154.248C120.856 154.616 120.68 155.144 120.68 155.832V159H119.528V152.64H120.632V153.708ZM127.033 159.072C126.401 159.072 125.833 158.932 125.329 158.652C124.825 158.372 124.429 157.988 124.141 157.5C123.861 157.004 123.721 156.444 123.721 155.82C123.721 155.196 123.861 154.64 124.141 154.152C124.429 153.656 124.825 153.272 125.329 153C125.833 152.72 126.401 152.58 127.033 152.58C127.665 152.58 128.229 152.72 128.725 153C129.229 153.272 129.621 153.656 129.901 154.152C130.189 154.64 130.333 155.196 130.333 155.82C130.333 156.444 130.189 157.004 129.901 157.5C129.621 157.988 129.229 158.372 128.725 158.652C128.229 158.932 127.665 159.072 127.033 159.072ZM127.033 158.064C127.441 158.064 127.805 157.972 128.125 157.788C128.453 157.596 128.709 157.332 128.893 156.996C129.077 156.652 129.169 156.26 129.169 155.82C129.169 155.38 129.077 154.992 128.893 154.656C128.709 154.312 128.453 154.048 128.125 153.864C127.805 153.68 127.441 153.588 127.033 153.588C126.625 153.588 126.257 153.68 125.929 153.864C125.609 154.048 125.353 154.312 125.161 154.656C124.977 154.992 124.885 155.38 124.885 155.82C124.885 156.26 124.977 156.652 125.161 156.996C125.353 157.332 125.609 157.596 125.929 157.788C126.257 157.972 126.625 158.064 127.033 158.064ZM132.061 159.072C131.837 159.072 131.645 158.996 131.485 158.844C131.325 158.684 131.245 158.484 131.245 158.244C131.245 158.012 131.325 157.82 131.485 157.668C131.645 157.508 131.837 157.428 132.061 157.428C132.285 157.428 132.473 157.504 132.625 157.656C132.777 157.808 132.853 158.004 132.853 158.244C132.853 158.484 132.773 158.684 132.613 158.844C132.461 158.996 132.277 159.072 132.061 159.072Z" fill="#008E86"/>
<path d="M36.1836 44.7874C35.6892 44.5412 35.0888 44.7424 34.8426 45.2367C34.5964 45.7311 34.7975 46.3314 35.2919 46.5777L36.1836 44.7874ZM75.3239 17.3132C75.0478 16.8349 74.4362 16.671 73.9579 16.9471L66.1637 21.4471C65.6854 21.7233 65.5215 22.3349 65.7977 22.8132C66.0738 23.2914 66.6854 23.4553 67.1637 23.1792L74.0919 19.1792L78.0919 26.1074C78.368 26.5857 78.9796 26.7496 79.4579 26.4734C79.9362 26.1973 80.1001 25.5857 79.8239 25.1074L75.3239 17.3132ZM35.2919 46.5777C43.4798 50.6558 51.9293 49.6958 59.1216 44.5801C66.2742 39.4925 72.1365 30.3405 75.4238 18.072L73.492 17.5543C70.285 29.523 64.6265 38.2102 57.9623 42.9503C51.3378 47.6622 43.6743 48.5183 36.1836 44.7874L35.2919 46.5777Z" fill="black"/>
<path d="M83.3101 45.0583L144.893 64.9822L76.065 64.9822L83.3101 45.0583Z" fill="#008E86" stroke="#00635D" stroke-width="2" stroke-linejoin="round"/>
<path d="M36.2178 64.9824L83.3108 45.0585L106.253 64.9824H36.2178Z" fill="#008E86" stroke="#00635D" stroke-width="2" stroke-linejoin="round"/>
<path d="M82.1025 64.9823L68.8199 49.2847" stroke="#333333" stroke-width="2" stroke-dasharray="4 6"/>
</g>
<defs>
<clipPath id="clip0_5698_200168">
<rect width="180" height="180" rx="20" fill="white"/>
</clipPath>
<clipPath id="clip1_5698_200168">
<path d="M0 30L-1.31134e-06 0L30 -1.31134e-06L30 10C30 21.0457 21.0457 30 10 30L0 30Z" fill="white"/>
</clipPath>
</defs>
</svg>
