<svg width="180" height="180" viewBox="0 0 180 180" fill="none" xmlns="http://www.w3.org/2000/svg">
<g clip-path="url(#clip0_5698_200172)">
<rect width="180" height="180" rx="20" fill="#F2F2F2"/>
<g clip-path="url(#clip1_5698_200172)">
<path d="M0 30L-1.31134e-06 0L30 -1.31134e-06L30 10C30 21.0457 21.0457 30 10 30L0 30Z" fill="#333333"/>
<path d="M18.0068 15.112C18.5614 15.3893 18.9828 15.752 19.2708 16.2C19.5694 16.648 19.7188 17.1653 19.7188 17.752C19.7188 18.4453 19.5214 19.0533 19.1267 19.576C18.7321 20.088 18.1774 20.488 17.4628 20.776C16.7481 21.0533 15.9214 21.192 14.9828 21.192C14.0441 21.192 13.2174 21.0533 12.5028 20.776C11.7988 20.488 11.2494 20.088 10.8548 19.576C10.4708 19.0533 10.2788 18.4453 10.2788 17.752C10.2788 17.1653 10.4228 16.648 10.7108 16.2C11.0094 15.752 11.4308 15.3893 11.9748 15.112C11.5588 14.856 11.2388 14.536 11.0148 14.152C10.7908 13.7573 10.6788 13.3093 10.6788 12.808C10.6788 12.1573 10.8601 11.592 11.2228 11.112C11.5854 10.632 12.0921 10.264 12.7428 10.008C13.3934 9.74133 14.1401 9.608 14.9828 9.608C15.8361 9.608 16.5881 9.74133 17.2388 10.008C17.9001 10.264 18.4121 10.632 18.7748 11.112C19.1374 11.592 19.3188 12.1573 19.3188 12.808C19.3188 13.3093 19.2068 13.7573 18.9828 14.152C18.7588 14.536 18.4334 14.856 18.0068 15.112ZM14.9828 11.512C14.4601 11.512 14.0388 11.64 13.7188 11.896C13.4094 12.1413 13.2548 12.4827 13.2548 12.92C13.2548 13.3467 13.4094 13.6827 13.7188 13.928C14.0281 14.1733 14.4494 14.296 14.9828 14.296C15.5161 14.296 15.9428 14.1733 16.2628 13.928C16.5828 13.6827 16.7428 13.3467 16.7428 12.92C16.7428 12.4827 16.5828 12.1413 16.2628 11.896C15.9428 11.64 15.5161 11.512 14.9828 11.512ZM14.9828 19.288C15.6334 19.288 16.1454 19.144 16.5188 18.856C16.9028 18.5573 17.0948 18.1627 17.0948 17.672C17.0948 17.1813 16.9028 16.792 16.5188 16.504C16.1454 16.216 15.6334 16.072 14.9828 16.072C14.3428 16.072 13.8361 16.216 13.4628 16.504C13.0894 16.792 12.9028 17.1813 12.9028 17.672C12.9028 18.1733 13.0894 18.568 13.4628 18.856C13.8361 19.144 14.3428 19.288 14.9828 19.288Z" fill="#F2F2F2"/>
</g>
<path d="M37.0283 122L35.2163 119.42C34.9923 119.436 34.8163 119.444 34.6883 119.444H32.6123V122H31.4123V113.6H34.6883C35.7763 113.6 36.6323 113.86 37.2563 114.38C37.8803 114.9 38.1923 115.616 38.1923 116.528C38.1923 117.176 38.0323 117.728 37.7123 118.184C37.3923 118.64 36.9363 118.972 36.3443 119.18L38.3363 122H37.0283ZM34.6523 118.424C35.4123 118.424 35.9923 118.26 36.3923 117.932C36.7923 117.604 36.9923 117.136 36.9923 116.528C36.9923 115.92 36.7923 115.456 36.3923 115.136C35.9923 114.808 35.4123 114.644 34.6523 114.644H32.6123V118.424H34.6523ZM45.7111 118.856C45.7111 118.944 45.7031 119.06 45.6871 119.204H40.5271C40.5991 119.764 40.8431 120.216 41.2591 120.56C41.6831 120.896 42.2071 121.064 42.8311 121.064C43.5911 121.064 44.2031 120.808 44.6671 120.296L45.3031 121.04C45.0151 121.376 44.6551 121.632 44.2231 121.808C43.7991 121.984 43.3231 122.072 42.7951 122.072C42.1231 122.072 41.5271 121.936 41.0071 121.664C40.4871 121.384 40.0831 120.996 39.7951 120.5C39.5151 120.004 39.3751 119.444 39.3751 118.82C39.3751 118.204 39.5111 117.648 39.7831 117.152C40.0631 116.656 40.4431 116.272 40.9231 116C41.4111 115.72 41.9591 115.58 42.5671 115.58C43.1751 115.58 43.7151 115.72 44.1871 116C44.6671 116.272 45.0391 116.656 45.3031 117.152C45.5751 117.648 45.7111 118.216 45.7111 118.856ZM42.5671 116.552C42.0151 116.552 41.5511 116.72 41.1751 117.056C40.8071 117.392 40.5911 117.832 40.5271 118.376H44.6071C44.5431 117.84 44.3231 117.404 43.9471 117.068C43.5791 116.724 43.1191 116.552 42.5671 116.552ZM49.451 115.58C50.331 115.58 51.003 115.796 51.467 116.228C51.939 116.66 52.175 117.304 52.175 118.16V122H51.083V121.16C50.891 121.456 50.615 121.684 50.255 121.844C49.903 121.996 49.483 122.072 48.995 122.072C48.283 122.072 47.711 121.9 47.279 121.556C46.855 121.212 46.643 120.76 46.643 120.2C46.643 119.64 46.847 119.192 47.255 118.856C47.663 118.512 48.311 118.34 49.199 118.34H51.023V118.112C51.023 117.616 50.879 117.236 50.591 116.972C50.303 116.708 49.879 116.576 49.319 116.576C48.943 116.576 48.575 116.64 48.215 116.768C47.855 116.888 47.551 117.052 47.303 117.26L46.823 116.396C47.151 116.132 47.543 115.932 47.999 115.796C48.455 115.652 48.939 115.58 49.451 115.58ZM49.187 121.184C49.627 121.184 50.007 121.088 50.327 120.896C50.647 120.696 50.879 120.416 51.023 120.056V119.168H49.247C48.271 119.168 47.783 119.496 47.783 120.152C47.783 120.472 47.907 120.724 48.155 120.908C48.403 121.092 48.747 121.184 49.187 121.184ZM54.3068 113.096H55.4588V122H54.3068V113.096ZM57.6584 115.64H58.8104V122H57.6584V115.64ZM58.2344 114.416C58.0104 114.416 57.8224 114.344 57.6704 114.2C57.5264 114.056 57.4544 113.88 57.4544 113.672C57.4544 113.464 57.5264 113.288 57.6704 113.144C57.8224 112.992 58.0104 112.916 58.2344 112.916C58.4584 112.916 58.6424 112.988 58.7864 113.132C58.9384 113.268 59.0144 113.44 59.0144 113.648C59.0144 113.864 58.9384 114.048 58.7864 114.2C58.6424 114.344 58.4584 114.416 58.2344 114.416ZM65.726 121.052V122H60.398V121.256L64.154 116.588H60.47V115.64H65.63V116.396L61.874 121.052H65.726ZM69.5838 115.58C70.4638 115.58 71.1358 115.796 71.5998 116.228C72.0718 116.66 72.3078 117.304 72.3078 118.16V122H71.2158V121.16C71.0238 121.456 70.7478 121.684 70.3878 121.844C70.0358 121.996 69.6158 122.072 69.1278 122.072C68.4158 122.072 67.8438 121.9 67.4118 121.556C66.9878 121.212 66.7758 120.76 66.7758 120.2C66.7758 119.64 66.9798 119.192 67.3878 118.856C67.7958 118.512 68.4438 118.34 69.3318 118.34H71.1558V118.112C71.1558 117.616 71.0118 117.236 70.7238 116.972C70.4358 116.708 70.0118 116.576 69.4518 116.576C69.0758 116.576 68.7078 116.64 68.3478 116.768C67.9878 116.888 67.6838 117.052 67.4358 117.26L66.9558 116.396C67.2838 116.132 67.6758 115.932 68.1318 115.796C68.5878 115.652 69.0718 115.58 69.5838 115.58ZM69.3198 121.184C69.7598 121.184 70.1398 121.088 70.4598 120.896C70.7798 120.696 71.0118 120.416 71.1558 120.056V119.168H69.3798C68.4038 119.168 67.9158 119.496 67.9158 120.152C67.9158 120.472 68.0398 120.724 68.2878 120.908C68.5358 121.092 68.8798 121.184 69.3198 121.184ZM83.5903 115.64V122H82.4983V121.04C82.2663 121.368 81.9583 121.624 81.5743 121.808C81.1983 121.984 80.7863 122.072 80.3383 122.072C79.4903 122.072 78.8223 121.84 78.3343 121.376C77.8463 120.904 77.6023 120.212 77.6023 119.3V115.64H78.7543V119.168C78.7543 119.784 78.9023 120.252 79.1983 120.572C79.4943 120.884 79.9183 121.04 80.4703 121.04C81.0783 121.04 81.5583 120.856 81.9103 120.488C82.2623 120.12 82.4383 119.6 82.4383 118.928V115.64H83.5903ZM89.1794 115.58C89.9874 115.58 90.6274 115.816 91.0994 116.288C91.5794 116.752 91.8194 117.436 91.8194 118.34V122H90.6674V118.472C90.6674 117.856 90.5194 117.392 90.2234 117.08C89.9274 116.768 89.5034 116.612 88.9514 116.612C88.3274 116.612 87.8354 116.796 87.4754 117.164C87.1154 117.524 86.9354 118.044 86.9354 118.724V122H85.7834V115.64H86.8874V116.6C87.1194 116.272 87.4314 116.02 87.8234 115.844C88.2234 115.668 88.6754 115.58 89.1794 115.58ZM98.998 122.072C98.478 122.072 97.978 122.004 97.498 121.868C97.018 121.724 96.642 121.544 96.37 121.328L96.85 120.416C97.13 120.616 97.47 120.776 97.87 120.896C98.27 121.016 98.674 121.076 99.082 121.076C100.09 121.076 100.594 120.788 100.594 120.212C100.594 120.02 100.526 119.868 100.39 119.756C100.254 119.644 100.082 119.564 99.874 119.516C99.674 119.46 99.386 119.4 99.01 119.336C98.498 119.256 98.078 119.164 97.75 119.06C97.43 118.956 97.154 118.78 96.922 118.532C96.69 118.284 96.574 117.936 96.574 117.488C96.574 116.912 96.814 116.452 97.294 116.108C97.774 115.756 98.418 115.58 99.226 115.58C99.65 115.58 100.074 115.632 100.498 115.736C100.922 115.84 101.27 115.98 101.542 116.156L101.05 117.068C100.53 116.732 99.918 116.564 99.214 116.564C98.726 116.564 98.354 116.644 98.098 116.804C97.842 116.964 97.714 117.176 97.714 117.44C97.714 117.648 97.786 117.812 97.93 117.932C98.074 118.052 98.25 118.14 98.458 118.196C98.674 118.252 98.974 118.316 99.358 118.388C99.87 118.476 100.282 118.572 100.594 118.676C100.914 118.772 101.186 118.94 101.41 119.18C101.634 119.42 101.746 119.756 101.746 120.188C101.746 120.764 101.498 121.224 101.002 121.568C100.514 121.904 99.846 122.072 98.998 122.072ZM108.934 118.856C108.934 118.944 108.926 119.06 108.91 119.204H103.75C103.822 119.764 104.066 120.216 104.482 120.56C104.906 120.896 105.43 121.064 106.054 121.064C106.814 121.064 107.426 120.808 107.89 120.296L108.526 121.04C108.238 121.376 107.878 121.632 107.446 121.808C107.022 121.984 106.546 122.072 106.018 122.072C105.346 122.072 104.75 121.936 104.23 121.664C103.71 121.384 103.306 120.996 103.018 120.5C102.738 120.004 102.598 119.444 102.598 118.82C102.598 118.204 102.734 117.648 103.006 117.152C103.286 116.656 103.666 116.272 104.146 116C104.634 115.72 105.182 115.58 105.79 115.58C106.398 115.58 106.938 115.72 107.41 116C107.89 116.272 108.262 116.656 108.526 117.152C108.798 117.648 108.934 118.216 108.934 118.856ZM105.79 116.552C105.238 116.552 104.774 116.72 104.398 117.056C104.03 117.392 103.814 117.832 103.75 118.376H107.83C107.766 117.84 107.546 117.404 107.17 117.068C106.802 116.724 106.342 116.552 105.79 116.552ZM116.617 115.64V121.136C116.617 122.248 116.341 123.068 115.789 123.596C115.237 124.132 114.413 124.4 113.317 124.4C112.717 124.4 112.145 124.316 111.601 124.148C111.057 123.988 110.617 123.756 110.281 123.452L110.833 122.564C111.129 122.82 111.493 123.02 111.925 123.164C112.365 123.316 112.817 123.392 113.281 123.392C114.025 123.392 114.573 123.216 114.925 122.864C115.285 122.512 115.465 121.976 115.465 121.256V120.752C115.193 121.08 114.857 121.328 114.457 121.496C114.065 121.656 113.637 121.736 113.173 121.736C112.565 121.736 112.013 121.608 111.517 121.352C111.029 121.088 110.645 120.724 110.365 120.26C110.085 119.788 109.945 119.252 109.945 118.652C109.945 118.052 110.085 117.52 110.365 117.056C110.645 116.584 111.029 116.22 111.517 115.964C112.013 115.708 112.565 115.58 113.173 115.58C113.653 115.58 114.097 115.668 114.505 115.844C114.921 116.02 115.261 116.28 115.525 116.624V115.64H116.617ZM113.305 120.728C113.721 120.728 114.093 120.64 114.421 120.464C114.757 120.288 115.017 120.044 115.201 119.732C115.393 119.412 115.489 119.052 115.489 118.652C115.489 118.036 115.285 117.54 114.877 117.164C114.469 116.78 113.945 116.588 113.305 116.588C112.657 116.588 112.129 116.78 111.721 117.164C111.313 117.54 111.109 118.036 111.109 118.652C111.109 119.052 111.201 119.412 111.385 119.732C111.577 120.044 111.837 120.288 112.165 120.464C112.501 120.64 112.881 120.728 113.305 120.728ZM124.747 115.64V122H123.655V121.04C123.423 121.368 123.115 121.624 122.731 121.808C122.355 121.984 121.943 122.072 121.495 122.072C120.647 122.072 119.979 121.84 119.491 121.376C119.003 120.904 118.759 120.212 118.759 119.3V115.64H119.911V119.168C119.911 119.784 120.059 120.252 120.355 120.572C120.651 120.884 121.075 121.04 121.627 121.04C122.235 121.04 122.715 120.856 123.067 120.488C123.419 120.12 123.595 119.6 123.595 118.928V115.64H124.747ZM130.336 115.58C131.144 115.58 131.784 115.816 132.256 116.288C132.736 116.752 132.976 117.436 132.976 118.34V122H131.824V118.472C131.824 117.856 131.676 117.392 131.38 117.08C131.084 116.768 130.66 116.612 130.108 116.612C129.484 116.612 128.992 116.796 128.632 117.164C128.272 117.524 128.092 118.044 128.092 118.724V122H126.94V115.64H128.044V116.6C128.276 116.272 128.588 116.02 128.98 115.844C129.38 115.668 129.832 115.58 130.336 115.58ZM141.143 113.096V122H140.039V120.992C139.783 121.344 139.459 121.612 139.067 121.796C138.675 121.98 138.243 122.072 137.771 122.072C137.155 122.072 136.603 121.936 136.115 121.664C135.627 121.392 135.243 121.012 134.963 120.524C134.691 120.028 134.555 119.46 134.555 118.82C134.555 118.18 134.691 117.616 134.963 117.128C135.243 116.64 135.627 116.26 136.115 115.988C136.603 115.716 137.155 115.58 137.771 115.58C138.227 115.58 138.647 115.668 139.031 115.844C139.415 116.012 139.735 116.264 139.991 116.6V113.096H141.143ZM137.867 121.064C138.267 121.064 138.631 120.972 138.959 120.788C139.287 120.596 139.543 120.332 139.727 119.996C139.911 119.652 140.003 119.26 140.003 118.82C140.003 118.38 139.911 117.992 139.727 117.656C139.543 117.312 139.287 117.048 138.959 116.864C138.631 116.68 138.267 116.588 137.867 116.588C137.459 116.588 137.091 116.68 136.763 116.864C136.443 117.048 136.187 117.312 135.995 117.656C135.811 117.992 135.719 118.38 135.719 118.82C135.719 119.26 135.811 119.652 135.995 119.996C136.187 120.332 136.443 120.596 136.763 120.788C137.091 120.972 137.459 121.064 137.867 121.064ZM146.046 122.072C145.414 122.072 144.846 121.932 144.342 121.652C143.838 121.372 143.442 120.988 143.154 120.5C142.874 120.004 142.734 119.444 142.734 118.82C142.734 118.196 142.874 117.64 143.154 117.152C143.442 116.656 143.838 116.272 144.342 116C144.846 115.72 145.414 115.58 146.046 115.58C146.678 115.58 147.242 115.72 147.738 116C148.242 116.272 148.634 116.656 148.914 117.152C149.202 117.64 149.346 118.196 149.346 118.82C149.346 119.444 149.202 120.004 148.914 120.5C148.634 120.988 148.242 121.372 147.738 121.652C147.242 121.932 146.678 122.072 146.046 122.072ZM146.046 121.064C146.454 121.064 146.818 120.972 147.138 120.788C147.466 120.596 147.722 120.332 147.906 119.996C148.09 119.652 148.182 119.26 148.182 118.82C148.182 118.38 148.09 117.992 147.906 117.656C147.722 117.312 147.466 117.048 147.138 116.864C146.818 116.68 146.454 116.588 146.046 116.588C145.638 116.588 145.27 116.68 144.942 116.864C144.622 117.048 144.366 117.312 144.174 117.656C143.99 117.992 143.898 118.38 143.898 118.82C143.898 119.26 143.99 119.652 144.174 119.996C144.366 120.332 144.622 120.596 144.942 120.788C145.27 120.972 145.638 121.064 146.046 121.064ZM33.2365 128.096V137H32.1325V135.992C31.8765 136.344 31.5525 136.612 31.1605 136.796C30.7685 136.98 30.3365 137.072 29.8645 137.072C29.2485 137.072 28.6965 136.936 28.2085 136.664C27.7205 136.392 27.3365 136.012 27.0565 135.524C26.7845 135.028 26.6485 134.46 26.6485 133.82C26.6485 133.18 26.7845 132.616 27.0565 132.128C27.3365 131.64 27.7205 131.26 28.2085 130.988C28.6965 130.716 29.2485 130.58 29.8645 130.58C30.3205 130.58 30.7405 130.668 31.1245 130.844C31.5085 131.012 31.8285 131.264 32.0845 131.6V128.096H33.2365ZM29.9605 136.064C30.3605 136.064 30.7245 135.972 31.0525 135.788C31.3805 135.596 31.6365 135.332 31.8205 134.996C32.0045 134.652 32.0965 134.26 32.0965 133.82C32.0965 133.38 32.0045 132.992 31.8205 132.656C31.6365 132.312 31.3805 132.048 31.0525 131.864C30.7245 131.68 30.3605 131.588 29.9605 131.588C29.5525 131.588 29.1845 131.68 28.8565 131.864C28.5365 132.048 28.2805 132.312 28.0885 132.656C27.9045 132.992 27.8125 133.38 27.8125 133.82C27.8125 134.26 27.9045 134.652 28.0885 134.996C28.2805 135.332 28.5365 135.596 28.8565 135.788C29.1845 135.972 29.5525 136.064 29.9605 136.064ZM38.1402 137.072C37.5082 137.072 36.9402 136.932 36.4362 136.652C35.9322 136.372 35.5362 135.988 35.2482 135.5C34.9682 135.004 34.8282 134.444 34.8282 133.82C34.8282 133.196 34.9682 132.64 35.2482 132.152C35.5362 131.656 35.9322 131.272 36.4362 131C36.9402 130.72 37.5082 130.58 38.1402 130.58C38.7722 130.58 39.3362 130.72 39.8322 131C40.3362 131.272 40.7282 131.656 41.0082 132.152C41.2962 132.64 41.4402 133.196 41.4402 133.82C41.4402 134.444 41.2962 135.004 41.0082 135.5C40.7282 135.988 40.3362 136.372 39.8322 136.652C39.3362 136.932 38.7722 137.072 38.1402 137.072ZM38.1402 136.064C38.5482 136.064 38.9122 135.972 39.2322 135.788C39.5602 135.596 39.8162 135.332 40.0002 134.996C40.1842 134.652 40.2762 134.26 40.2762 133.82C40.2762 133.38 40.1842 132.992 40.0002 132.656C39.8162 132.312 39.5602 132.048 39.2322 131.864C38.9122 131.68 38.5482 131.588 38.1402 131.588C37.7322 131.588 37.3642 131.68 37.0362 131.864C36.7162 132.048 36.4602 132.312 36.2682 132.656C36.0842 132.992 35.9922 133.38 35.9922 133.82C35.9922 134.26 36.0842 134.652 36.2682 134.996C36.4602 135.332 36.7162 135.596 37.0362 135.788C37.3642 135.972 37.7322 136.064 38.1402 136.064ZM46.4054 130.58C47.0214 130.58 47.5734 130.716 48.0614 130.988C48.5494 131.26 48.9294 131.64 49.2014 132.128C49.4814 132.616 49.6214 133.18 49.6214 133.82C49.6214 134.46 49.4814 135.028 49.2014 135.524C48.9294 136.012 48.5494 136.392 48.0614 136.664C47.5734 136.936 47.0214 137.072 46.4054 137.072C45.9334 137.072 45.5014 136.98 45.1094 136.796C44.7174 136.612 44.3934 136.344 44.1374 135.992V137H43.0334V128.096H44.1854V131.6C44.4414 131.264 44.7614 131.012 45.1454 130.844C45.5294 130.668 45.9494 130.58 46.4054 130.58ZM46.3094 136.064C46.7174 136.064 47.0814 135.972 47.4014 135.788C47.7294 135.596 47.9854 135.332 48.1694 134.996C48.3614 134.652 48.4574 134.26 48.4574 133.82C48.4574 133.38 48.3614 132.992 48.1694 132.656C47.9854 132.312 47.7294 132.048 47.4014 131.864C47.0814 131.68 46.7174 131.588 46.3094 131.588C45.9094 131.588 45.5454 131.68 45.2174 131.864C44.8894 132.048 44.6334 132.312 44.4494 132.656C44.2654 132.992 44.1734 133.38 44.1734 133.82C44.1734 134.26 44.2654 134.652 44.4494 134.996C44.6334 135.332 44.8894 135.596 45.2174 135.788C45.5454 135.972 45.9094 136.064 46.3094 136.064ZM51.2131 128.096H52.3651V137H51.2131V128.096ZM60.3127 133.856C60.3127 133.944 60.3047 134.06 60.2887 134.204H55.1287C55.2007 134.764 55.4447 135.216 55.8607 135.56C56.2847 135.896 56.8087 136.064 57.4327 136.064C58.1927 136.064 58.8047 135.808 59.2687 135.296L59.9047 136.04C59.6167 136.376 59.2567 136.632 58.8247 136.808C58.4007 136.984 57.9247 137.072 57.3967 137.072C56.7247 137.072 56.1287 136.936 55.6087 136.664C55.0887 136.384 54.6847 135.996 54.3967 135.5C54.1167 135.004 53.9767 134.444 53.9767 133.82C53.9767 133.204 54.1127 132.648 54.3847 132.152C54.6647 131.656 55.0447 131.272 55.5247 131C56.0127 130.72 56.5607 130.58 57.1687 130.58C57.7767 130.58 58.3167 130.72 58.7887 131C59.2687 131.272 59.6407 131.656 59.9047 132.152C60.1767 132.648 60.3127 133.216 60.3127 133.856ZM57.1687 131.552C56.6167 131.552 56.1527 131.72 55.7767 132.056C55.4087 132.392 55.1927 132.832 55.1287 133.376H59.2087C59.1447 132.84 58.9247 132.404 58.5487 132.068C58.1807 131.724 57.7207 131.552 57.1687 131.552ZM57.8887 128.156H59.3527L57.3367 129.716H56.2567L57.8887 128.156ZM63.7363 137.072C63.2163 137.072 62.7163 137.004 62.2363 136.868C61.7563 136.724 61.3803 136.544 61.1083 136.328L61.5883 135.416C61.8683 135.616 62.2083 135.776 62.6083 135.896C63.0083 136.016 63.4123 136.076 63.8203 136.076C64.8283 136.076 65.3323 135.788 65.3323 135.212C65.3323 135.02 65.2643 134.868 65.1283 134.756C64.9923 134.644 64.8203 134.564 64.6123 134.516C64.4123 134.46 64.1243 134.4 63.7483 134.336C63.2363 134.256 62.8163 134.164 62.4883 134.06C62.1683 133.956 61.8923 133.78 61.6603 133.532C61.4283 133.284 61.3123 132.936 61.3123 132.488C61.3123 131.912 61.5523 131.452 62.0323 131.108C62.5123 130.756 63.1563 130.58 63.9643 130.58C64.3883 130.58 64.8123 130.632 65.2363 130.736C65.6603 130.84 66.0083 130.98 66.2803 131.156L65.7883 132.068C65.2683 131.732 64.6563 131.564 63.9523 131.564C63.4643 131.564 63.0923 131.644 62.8363 131.804C62.5803 131.964 62.4523 132.176 62.4523 132.44C62.4523 132.648 62.5243 132.812 62.6683 132.932C62.8123 133.052 62.9883 133.14 63.1963 133.196C63.4123 133.252 63.7123 133.316 64.0963 133.388C64.6083 133.476 65.0203 133.572 65.3323 133.676C65.6523 133.772 65.9243 133.94 66.1483 134.18C66.3723 134.42 66.4843 134.756 66.4843 135.188C66.4843 135.764 66.2363 136.224 65.7403 136.568C65.2523 136.904 64.5843 137.072 63.7363 137.072ZM71.1467 130.64H72.2987V137H71.1467V130.64ZM71.7227 129.416C71.4987 129.416 71.3107 129.344 71.1587 129.2C71.0147 129.056 70.9427 128.88 70.9427 128.672C70.9427 128.464 71.0147 128.288 71.1587 128.144C71.3107 127.992 71.4987 127.916 71.7227 127.916C71.9467 127.916 72.1307 127.988 72.2747 128.132C72.4267 128.268 72.5027 128.44 72.5027 128.648C72.5027 128.864 72.4267 129.048 72.2747 129.2C72.1307 129.344 71.9467 129.416 71.7227 129.416ZM77.8943 130.58C78.7023 130.58 79.3423 130.816 79.8143 131.288C80.2943 131.752 80.5343 132.436 80.5343 133.34V137H79.3823V133.472C79.3823 132.856 79.2343 132.392 78.9383 132.08C78.6423 131.768 78.2183 131.612 77.6663 131.612C77.0423 131.612 76.5503 131.796 76.1903 132.164C75.8303 132.524 75.6503 133.044 75.6503 133.724V137H74.4983V130.64H75.6023V131.6C75.8343 131.272 76.1463 131.02 76.5383 130.844C76.9383 130.668 77.3903 130.58 77.8943 130.58ZM86.2422 136.628C86.0742 136.772 85.8662 136.884 85.6182 136.964C85.3702 137.036 85.1142 137.072 84.8502 137.072C84.2102 137.072 83.7142 136.9 83.3622 136.556C83.0102 136.212 82.8342 135.72 82.8342 135.08V131.588H81.7542V130.64H82.8342V129.248H83.9862V130.64H85.8102V131.588H83.9862V135.032C83.9862 135.376 84.0702 135.64 84.2382 135.824C84.4142 136.008 84.6622 136.1 84.9822 136.1C85.3342 136.1 85.6342 136 85.8822 135.8L86.2422 136.628ZM93.172 133.856C93.172 133.944 93.164 134.06 93.148 134.204H87.988C88.06 134.764 88.304 135.216 88.72 135.56C89.144 135.896 89.668 136.064 90.292 136.064C91.052 136.064 91.664 135.808 92.128 135.296L92.764 136.04C92.476 136.376 92.116 136.632 91.684 136.808C91.26 136.984 90.784 137.072 90.256 137.072C89.584 137.072 88.988 136.936 88.468 136.664C87.948 136.384 87.544 135.996 87.256 135.5C86.976 135.004 86.836 134.444 86.836 133.82C86.836 133.204 86.972 132.648 87.244 132.152C87.524 131.656 87.904 131.272 88.384 131C88.872 130.72 89.42 130.58 90.028 130.58C90.636 130.58 91.176 130.72 91.648 131C92.128 131.272 92.5 131.656 92.764 132.152C93.036 132.648 93.172 133.216 93.172 133.856ZM90.028 131.552C89.476 131.552 89.012 131.72 88.636 132.056C88.268 132.392 88.052 132.832 87.988 133.376H92.068C92.004 132.84 91.784 132.404 91.408 132.068C91.04 131.724 90.58 131.552 90.028 131.552ZM95.8757 131.708C96.0757 131.34 96.3717 131.06 96.7637 130.868C97.1557 130.676 97.6317 130.58 98.1917 130.58V131.696C98.1277 131.688 98.0397 131.684 97.9277 131.684C97.3037 131.684 96.8117 131.872 96.4517 132.248C96.0997 132.616 95.9237 133.144 95.9237 133.832V137H94.7717V130.64H95.8757V131.708ZM103.008 130.58C103.816 130.58 104.456 130.816 104.928 131.288C105.408 131.752 105.648 132.436 105.648 133.34V137H104.496V133.472C104.496 132.856 104.348 132.392 104.052 132.08C103.756 131.768 103.332 131.612 102.78 131.612C102.156 131.612 101.664 131.796 101.304 132.164C100.944 132.524 100.764 133.044 100.764 133.724V137H99.6115V130.64H100.716V131.6C100.948 131.272 101.26 131.02 101.652 130.844C102.052 130.668 102.504 130.58 103.008 130.58ZM110.539 137.072C109.907 137.072 109.339 136.932 108.835 136.652C108.331 136.372 107.935 135.988 107.647 135.5C107.367 135.004 107.227 134.444 107.227 133.82C107.227 133.196 107.367 132.64 107.647 132.152C107.935 131.656 108.331 131.272 108.835 131C109.339 130.72 109.907 130.58 110.539 130.58C111.171 130.58 111.735 130.72 112.231 131C112.735 131.272 113.127 131.656 113.407 132.152C113.695 132.64 113.839 133.196 113.839 133.82C113.839 134.444 113.695 135.004 113.407 135.5C113.127 135.988 112.735 136.372 112.231 136.652C111.735 136.932 111.171 137.072 110.539 137.072ZM110.539 136.064C110.947 136.064 111.311 135.972 111.631 135.788C111.959 135.596 112.215 135.332 112.399 134.996C112.583 134.652 112.675 134.26 112.675 133.82C112.675 133.38 112.583 132.992 112.399 132.656C112.215 132.312 111.959 132.048 111.631 131.864C111.311 131.68 110.947 131.588 110.539 131.588C110.131 131.588 109.763 131.68 109.435 131.864C109.115 132.048 108.859 132.312 108.667 132.656C108.483 132.992 108.391 133.38 108.391 133.82C108.391 134.26 108.483 134.652 108.667 134.996C108.859 135.332 109.115 135.596 109.435 135.788C109.763 135.972 110.131 136.064 110.539 136.064ZM121.427 137.072C120.779 137.072 120.199 136.932 119.687 136.652C119.183 136.372 118.787 135.988 118.499 135.5C118.211 135.004 118.067 134.444 118.067 133.82C118.067 133.196 118.211 132.64 118.499 132.152C118.787 131.656 119.183 131.272 119.687 131C120.199 130.72 120.779 130.58 121.427 130.58C122.003 130.58 122.515 130.696 122.963 130.928C123.419 131.16 123.771 131.496 124.019 131.936L123.143 132.5C122.943 132.196 122.695 131.968 122.399 131.816C122.103 131.664 121.775 131.588 121.415 131.588C120.999 131.588 120.623 131.68 120.287 131.864C119.959 132.048 119.699 132.312 119.507 132.656C119.323 132.992 119.231 133.38 119.231 133.82C119.231 134.268 119.323 134.664 119.507 135.008C119.699 135.344 119.959 135.604 120.287 135.788C120.623 135.972 120.999 136.064 121.415 136.064C121.775 136.064 122.103 135.988 122.399 135.836C122.695 135.684 122.943 135.456 123.143 135.152L124.019 135.704C123.771 136.144 123.419 136.484 122.963 136.724C122.515 136.956 122.003 137.072 121.427 137.072ZM128.14 137.072C127.508 137.072 126.94 136.932 126.436 136.652C125.932 136.372 125.536 135.988 125.248 135.5C124.968 135.004 124.828 134.444 124.828 133.82C124.828 133.196 124.968 132.64 125.248 132.152C125.536 131.656 125.932 131.272 126.436 131C126.94 130.72 127.508 130.58 128.14 130.58C128.772 130.58 129.336 130.72 129.832 131C130.336 131.272 130.728 131.656 131.008 132.152C131.296 132.64 131.44 133.196 131.44 133.82C131.44 134.444 131.296 135.004 131.008 135.5C130.728 135.988 130.336 136.372 129.832 136.652C129.336 136.932 128.772 137.072 128.14 137.072ZM128.14 136.064C128.548 136.064 128.912 135.972 129.232 135.788C129.56 135.596 129.816 135.332 130 134.996C130.184 134.652 130.276 134.26 130.276 133.82C130.276 133.38 130.184 132.992 130 132.656C129.816 132.312 129.56 132.048 129.232 131.864C128.912 131.68 128.548 131.588 128.14 131.588C127.732 131.588 127.364 131.68 127.036 131.864C126.716 132.048 126.46 132.312 126.268 132.656C126.084 132.992 125.992 133.38 125.992 133.82C125.992 134.26 126.084 134.652 126.268 134.996C126.46 135.332 126.716 135.596 127.036 135.788C127.364 135.972 127.732 136.064 128.14 136.064ZM136.429 130.58C137.237 130.58 137.877 130.816 138.349 131.288C138.829 131.752 139.069 132.436 139.069 133.34V137H137.917V133.472C137.917 132.856 137.769 132.392 137.473 132.08C137.177 131.768 136.753 131.612 136.201 131.612C135.577 131.612 135.085 131.796 134.725 132.164C134.365 132.524 134.185 133.044 134.185 133.724V137H133.033V130.64H134.137V131.6C134.369 131.272 134.681 131.02 135.073 130.844C135.473 130.668 135.925 130.58 136.429 130.58ZM144.424 128.096H145.576V137H144.424V128.096ZM150.092 130.58C150.972 130.58 151.644 130.796 152.108 131.228C152.58 131.66 152.816 132.304 152.816 133.16V137H151.724V136.16C151.532 136.456 151.256 136.684 150.896 136.844C150.544 136.996 150.124 137.072 149.636 137.072C148.924 137.072 148.352 136.9 147.92 136.556C147.496 136.212 147.284 135.76 147.284 135.2C147.284 134.64 147.488 134.192 147.896 133.856C148.304 133.512 148.952 133.34 149.84 133.34H151.664V133.112C151.664 132.616 151.52 132.236 151.232 131.972C150.944 131.708 150.52 131.576 149.96 131.576C149.584 131.576 149.216 131.64 148.856 131.768C148.496 131.888 148.192 132.052 147.944 132.26L147.464 131.396C147.792 131.132 148.184 130.932 148.64 130.796C149.096 130.652 149.58 130.58 150.092 130.58ZM149.828 136.184C150.268 136.184 150.648 136.088 150.968 135.896C151.288 135.696 151.52 135.416 151.664 135.056V134.168H149.888C148.912 134.168 148.424 134.496 148.424 135.152C148.424 135.472 148.548 135.724 148.796 135.908C149.044 136.092 149.388 136.184 149.828 136.184ZM37.0558 145.58C37.8558 145.58 38.4878 145.812 38.9518 146.276C39.4238 146.74 39.6598 147.428 39.6598 148.34V152H38.5078V148.472C38.5078 147.856 38.3638 147.392 38.0758 147.08C37.7958 146.768 37.3918 146.612 36.8638 146.612C36.2798 146.612 35.8158 146.796 35.4718 147.164C35.1278 147.524 34.9558 148.044 34.9558 148.724V152H33.8038V148.472C33.8038 147.856 33.6598 147.392 33.3718 147.08C33.0918 146.768 32.6878 146.612 32.1598 146.612C31.5758 146.612 31.1118 146.796 30.7678 147.164C30.4238 147.524 30.2518 148.044 30.2518 148.724V152H29.0998V145.64H30.2038V146.588C30.4358 146.26 30.7398 146.012 31.1158 145.844C31.4918 145.668 31.9198 145.58 32.3998 145.58C32.8958 145.58 33.3358 145.68 33.7198 145.88C34.1038 146.08 34.3998 146.372 34.6078 146.756C34.8478 146.388 35.1798 146.1 35.6038 145.892C36.0358 145.684 36.5198 145.58 37.0558 145.58ZM41.7795 145.64H42.9315V152H41.7795V145.64ZM42.3555 144.416C42.1315 144.416 41.9435 144.344 41.7915 144.2C41.6475 144.056 41.5755 143.88 41.5755 143.672C41.5755 143.464 41.6475 143.288 41.7915 143.144C41.9435 142.992 42.1315 142.916 42.3555 142.916C42.5795 142.916 42.7635 142.988 42.9075 143.132C43.0595 143.268 43.1355 143.44 43.1355 143.648C43.1355 143.864 43.0595 144.048 42.9075 144.2C42.7635 144.344 42.5795 144.416 42.3555 144.416ZM46.9551 152.072C46.4351 152.072 45.9351 152.004 45.4551 151.868C44.9751 151.724 44.5991 151.544 44.3271 151.328L44.8071 150.416C45.0871 150.616 45.4271 150.776 45.8271 150.896C46.2271 151.016 46.6311 151.076 47.0391 151.076C48.0471 151.076 48.5511 150.788 48.5511 150.212C48.5511 150.02 48.4831 149.868 48.3471 149.756C48.2111 149.644 48.0391 149.564 47.8311 149.516C47.6311 149.46 47.3431 149.4 46.9671 149.336C46.4551 149.256 46.0351 149.164 45.7071 149.06C45.3871 148.956 45.1111 148.78 44.8791 148.532C44.6471 148.284 44.5311 147.936 44.5311 147.488C44.5311 146.912 44.7711 146.452 45.2511 146.108C45.7311 145.756 46.3751 145.58 47.1831 145.58C47.6071 145.58 48.0311 145.632 48.4551 145.736C48.8791 145.84 49.2271 145.98 49.4991 146.156L49.0071 147.068C48.4871 146.732 47.8751 146.564 47.1711 146.564C46.6831 146.564 46.3111 146.644 46.0551 146.804C45.7991 146.964 45.6711 147.176 45.6711 147.44C45.6711 147.648 45.7431 147.812 45.8871 147.932C46.0311 148.052 46.2071 148.14 46.4151 148.196C46.6311 148.252 46.9311 148.316 47.3151 148.388C47.8271 148.476 48.2391 148.572 48.5511 148.676C48.8711 148.772 49.1431 148.94 49.3671 149.18C49.5911 149.42 49.7031 149.756 49.7031 150.188C49.7031 150.764 49.4551 151.224 48.9591 151.568C48.4711 151.904 47.8031 152.072 46.9551 152.072ZM59.0988 145.58C59.8988 145.58 60.5308 145.812 60.9948 146.276C61.4668 146.74 61.7028 147.428 61.7028 148.34V152H60.5508V148.472C60.5508 147.856 60.4068 147.392 60.1188 147.08C59.8388 146.768 59.4348 146.612 58.9068 146.612C58.3228 146.612 57.8588 146.796 57.5148 147.164C57.1708 147.524 56.9988 148.044 56.9988 148.724V152H55.8468V148.472C55.8468 147.856 55.7028 147.392 55.4148 147.08C55.1348 146.768 54.7308 146.612 54.2028 146.612C53.6188 146.612 53.1548 146.796 52.8108 147.164C52.4668 147.524 52.2948 148.044 52.2948 148.724V152H51.1428V145.64H52.2468V146.588C52.4788 146.26 52.7828 146.012 53.1588 145.844C53.5348 145.668 53.9628 145.58 54.4428 145.58C54.9388 145.58 55.3788 145.68 55.7628 145.88C56.1468 146.08 56.4428 146.372 56.6508 146.756C56.8908 146.388 57.2228 146.1 57.6468 145.892C58.0788 145.684 58.5628 145.58 59.0988 145.58ZM66.1385 145.58C67.0185 145.58 67.6905 145.796 68.1545 146.228C68.6265 146.66 68.8625 147.304 68.8625 148.16V152H67.7705V151.16C67.5785 151.456 67.3025 151.684 66.9425 151.844C66.5905 151.996 66.1705 152.072 65.6825 152.072C64.9705 152.072 64.3985 151.9 63.9665 151.556C63.5425 151.212 63.3305 150.76 63.3305 150.2C63.3305 149.64 63.5345 149.192 63.9425 148.856C64.3505 148.512 64.9985 148.34 65.8865 148.34H67.7105V148.112C67.7105 147.616 67.5665 147.236 67.2785 146.972C66.9905 146.708 66.5665 146.576 66.0065 146.576C65.6305 146.576 65.2625 146.64 64.9025 146.768C64.5425 146.888 64.2385 147.052 63.9905 147.26L63.5105 146.396C63.8385 146.132 64.2305 145.932 64.6865 145.796C65.1425 145.652 65.6265 145.58 66.1385 145.58ZM65.8745 151.184C66.3145 151.184 66.6945 151.088 67.0145 150.896C67.3345 150.696 67.5665 150.416 67.7105 150.056V149.168H65.9345C64.9585 149.168 64.4705 149.496 64.4705 150.152C64.4705 150.472 64.5945 150.724 64.8425 150.908C65.0905 151.092 65.4345 151.184 65.8745 151.184ZM79.965 148.856C79.965 148.944 79.957 149.06 79.941 149.204H74.781C74.853 149.764 75.097 150.216 75.513 150.56C75.937 150.896 76.461 151.064 77.085 151.064C77.845 151.064 78.457 150.808 78.921 150.296L79.557 151.04C79.269 151.376 78.909 151.632 78.477 151.808C78.053 151.984 77.577 152.072 77.049 152.072C76.377 152.072 75.781 151.936 75.261 151.664C74.741 151.384 74.337 150.996 74.049 150.5C73.769 150.004 73.629 149.444 73.629 148.82C73.629 148.204 73.765 147.648 74.037 147.152C74.317 146.656 74.697 146.272 75.177 146C75.665 145.72 76.213 145.58 76.821 145.58C77.429 145.58 77.969 145.72 78.441 146C78.921 146.272 79.293 146.656 79.557 147.152C79.829 147.648 79.965 148.216 79.965 148.856ZM76.821 146.552C76.269 146.552 75.805 146.72 75.429 147.056C75.061 147.392 74.845 147.832 74.781 148.376H78.861C78.797 147.84 78.577 147.404 78.201 147.068C77.833 146.724 77.373 146.552 76.821 146.552ZM83.3887 152.072C82.8687 152.072 82.3687 152.004 81.8887 151.868C81.4087 151.724 81.0327 151.544 80.7607 151.328L81.2407 150.416C81.5207 150.616 81.8607 150.776 82.2607 150.896C82.6607 151.016 83.0647 151.076 83.4727 151.076C84.4807 151.076 84.9847 150.788 84.9847 150.212C84.9847 150.02 84.9167 149.868 84.7807 149.756C84.6447 149.644 84.4727 149.564 84.2647 149.516C84.0647 149.46 83.7767 149.4 83.4007 149.336C82.8887 149.256 82.4687 149.164 82.1407 149.06C81.8207 148.956 81.5447 148.78 81.3127 148.532C81.0807 148.284 80.9647 147.936 80.9647 147.488C80.9647 146.912 81.2047 146.452 81.6847 146.108C82.1647 145.756 82.8087 145.58 83.6167 145.58C84.0407 145.58 84.4647 145.632 84.8887 145.736C85.3127 145.84 85.6607 145.98 85.9327 146.156L85.4407 147.068C84.9207 146.732 84.3087 146.564 83.6047 146.564C83.1167 146.564 82.7447 146.644 82.4887 146.804C82.2327 146.964 82.1047 147.176 82.1047 147.44C82.1047 147.648 82.1767 147.812 82.3207 147.932C82.4647 148.052 82.6407 148.14 82.8487 148.196C83.0647 148.252 83.3647 148.316 83.7487 148.388C84.2607 148.476 84.6727 148.572 84.9847 148.676C85.3047 148.772 85.5767 148.94 85.8007 149.18C86.0247 149.42 86.1367 149.756 86.1367 150.188C86.1367 150.764 85.8887 151.224 85.3927 151.568C84.9047 151.904 84.2367 152.072 83.3887 152.072ZM93.5764 145.64V154.328H92.4244V151.04C92.1604 151.376 91.8364 151.632 91.4524 151.808C91.0764 151.984 90.6604 152.072 90.2044 152.072C89.5884 152.072 89.0364 151.936 88.5484 151.664C88.0604 151.392 87.6764 151.012 87.3964 150.524C87.1244 150.028 86.9884 149.46 86.9884 148.82C86.9884 148.18 87.1244 147.616 87.3964 147.128C87.6764 146.64 88.0604 146.26 88.5484 145.988C89.0364 145.716 89.5884 145.58 90.2044 145.58C90.6764 145.58 91.1084 145.672 91.5004 145.856C91.8924 146.032 92.2164 146.296 92.4724 146.648V145.64H93.5764ZM90.3004 151.064C90.7004 151.064 91.0644 150.972 91.3924 150.788C91.7204 150.596 91.9764 150.332 92.1604 149.996C92.3444 149.652 92.4364 149.26 92.4364 148.82C92.4364 148.38 92.3404 147.992 92.1484 147.656C91.9644 147.32 91.7084 147.06 91.3804 146.876C91.0604 146.684 90.7004 146.588 90.3004 146.588C89.8924 146.588 89.5244 146.68 89.1964 146.864C88.8764 147.048 88.6204 147.312 88.4284 147.656C88.2444 147.992 88.1524 148.38 88.1524 148.82C88.1524 149.26 88.2444 149.652 88.4284 149.996C88.6204 150.332 88.8764 150.596 89.1964 150.788C89.5244 150.972 89.8924 151.064 90.3004 151.064ZM101.684 145.64V152H100.592V151.04C100.36 151.368 100.052 151.624 99.6681 151.808C99.2921 151.984 98.8801 152.072 98.4321 152.072C97.5841 152.072 96.9161 151.84 96.4281 151.376C95.9401 150.904 95.6961 150.212 95.6961 149.3V145.64H96.8481V149.168C96.8481 149.784 96.9961 150.252 97.2921 150.572C97.5881 150.884 98.0121 151.04 98.5641 151.04C99.1721 151.04 99.6521 150.856 100.004 150.488C100.356 150.12 100.532 149.6 100.532 148.928V145.64H101.684ZM103.877 145.64H105.029V152H103.877V145.64ZM104.453 144.416C104.229 144.416 104.041 144.344 103.889 144.2C103.745 144.056 103.673 143.88 103.673 143.672C103.673 143.464 103.745 143.288 103.889 143.144C104.041 142.992 104.229 142.916 104.453 142.916C104.677 142.916 104.861 142.988 105.005 143.132C105.157 143.268 105.233 143.44 105.233 143.648C105.233 143.864 105.157 144.048 105.005 144.2C104.861 144.344 104.677 144.416 104.453 144.416ZM110.625 145.58C111.433 145.58 112.073 145.816 112.545 146.288C113.025 146.752 113.265 147.436 113.265 148.34V152H112.113V148.472C112.113 147.856 111.965 147.392 111.669 147.08C111.373 146.768 110.949 146.612 110.397 146.612C109.773 146.612 109.281 146.796 108.921 147.164C108.561 147.524 108.381 148.044 108.381 148.724V152H107.229V145.64H108.333V146.6C108.565 146.272 108.877 146.02 109.269 145.844C109.669 145.668 110.121 145.58 110.625 145.58ZM117.713 145.58C118.593 145.58 119.265 145.796 119.729 146.228C120.201 146.66 120.437 147.304 120.437 148.16V152H119.345V151.16C119.153 151.456 118.877 151.684 118.517 151.844C118.165 151.996 117.745 152.072 117.257 152.072C116.545 152.072 115.973 151.9 115.541 151.556C115.117 151.212 114.905 150.76 114.905 150.2C114.905 149.64 115.109 149.192 115.517 148.856C115.925 148.512 116.573 148.34 117.461 148.34H119.285V148.112C119.285 147.616 119.141 147.236 118.853 146.972C118.565 146.708 118.141 146.576 117.581 146.576C117.205 146.576 116.837 146.64 116.477 146.768C116.117 146.888 115.813 147.052 115.565 147.26L115.085 146.396C115.413 146.132 115.805 145.932 116.261 145.796C116.717 145.652 117.201 145.58 117.713 145.58ZM117.449 151.184C117.889 151.184 118.269 151.088 118.589 150.896C118.909 150.696 119.141 150.416 119.285 150.056V149.168H117.509C116.533 149.168 116.045 149.496 116.045 150.152C116.045 150.472 116.169 150.724 116.417 150.908C116.665 151.092 117.009 151.184 117.449 151.184ZM129.163 145.58C129.779 145.58 130.331 145.716 130.819 145.988C131.307 146.26 131.687 146.64 131.959 147.128C132.239 147.616 132.379 148.18 132.379 148.82C132.379 149.46 132.239 150.028 131.959 150.524C131.687 151.012 131.307 151.392 130.819 151.664C130.331 151.936 129.779 152.072 129.163 152.072C128.707 152.072 128.287 151.984 127.903 151.808C127.527 151.632 127.207 151.376 126.943 151.04V154.328H125.791V145.64H126.895V146.648C127.151 146.296 127.475 146.032 127.867 145.856C128.259 145.672 128.691 145.58 129.163 145.58ZM129.067 151.064C129.475 151.064 129.839 150.972 130.159 150.788C130.487 150.596 130.743 150.332 130.927 149.996C131.119 149.652 131.215 149.26 131.215 148.82C131.215 148.38 131.119 147.992 130.927 147.656C130.743 147.312 130.487 147.048 130.159 146.864C129.839 146.68 129.475 146.588 129.067 146.588C128.667 146.588 128.303 146.684 127.975 146.876C127.655 147.06 127.399 147.32 127.207 147.656C127.023 147.992 126.931 148.38 126.931 148.82C126.931 149.26 127.023 149.652 127.207 149.996C127.391 150.332 127.647 150.596 127.975 150.788C128.303 150.972 128.667 151.064 129.067 151.064ZM136.228 145.58C137.108 145.58 137.78 145.796 138.244 146.228C138.716 146.66 138.952 147.304 138.952 148.16V152H137.86V151.16C137.668 151.456 137.392 151.684 137.032 151.844C136.68 151.996 136.26 152.072 135.772 152.072C135.06 152.072 134.488 151.9 134.056 151.556C133.632 151.212 133.42 150.76 133.42 150.2C133.42 149.64 133.624 149.192 134.032 148.856C134.44 148.512 135.088 148.34 135.976 148.34H137.8V148.112C137.8 147.616 137.656 147.236 137.368 146.972C137.08 146.708 136.656 146.576 136.096 146.576C135.72 146.576 135.352 146.64 134.992 146.768C134.632 146.888 134.328 147.052 134.08 147.26L133.6 146.396C133.928 146.132 134.32 145.932 134.776 145.796C135.232 145.652 135.716 145.58 136.228 145.58ZM135.964 151.184C136.404 151.184 136.784 151.088 137.104 150.896C137.424 150.696 137.656 150.416 137.8 150.056V149.168H136.024C135.048 149.168 134.56 149.496 134.56 150.152C134.56 150.472 134.684 150.724 134.932 150.908C135.18 151.092 135.524 151.184 135.964 151.184ZM142.188 146.708C142.388 146.34 142.684 146.06 143.076 145.868C143.468 145.676 143.944 145.58 144.504 145.58V146.696C144.44 146.688 144.352 146.684 144.24 146.684C143.616 146.684 143.124 146.872 142.764 147.248C142.412 147.616 142.236 148.144 142.236 148.832V152H141.084V145.64H142.188V146.708ZM148.228 145.58C149.108 145.58 149.78 145.796 150.244 146.228C150.716 146.66 150.952 147.304 150.952 148.16V152H149.86V151.16C149.668 151.456 149.392 151.684 149.032 151.844C148.68 151.996 148.26 152.072 147.772 152.072C147.06 152.072 146.488 151.9 146.056 151.556C145.632 151.212 145.42 150.76 145.42 150.2C145.42 149.64 145.624 149.192 146.032 148.856C146.44 148.512 147.088 148.34 147.976 148.34H149.8V148.112C149.8 147.616 149.656 147.236 149.368 146.972C149.08 146.708 148.656 146.576 148.096 146.576C147.72 146.576 147.352 146.64 146.992 146.768C146.632 146.888 146.328 147.052 146.08 147.26L145.6 146.396C145.928 146.132 146.32 145.932 146.776 145.796C147.232 145.652 147.716 145.58 148.228 145.58ZM147.964 151.184C148.404 151.184 148.784 151.088 149.104 150.896C149.424 150.696 149.656 150.416 149.8 150.056V149.168H148.024C147.048 149.168 146.56 149.496 146.56 150.152C146.56 150.472 146.684 150.724 146.932 150.908C147.18 151.092 147.524 151.184 147.964 151.184ZM41.4298 158.972C40.7418 158.972 40.3978 159.344 40.3978 160.088V160.64H42.2458V161.588H40.4218V167H39.2698V161.588H38.1898V160.64H39.2698V160.076C39.2698 159.444 39.4538 158.944 39.8218 158.576C40.1898 158.208 40.7058 158.024 41.3698 158.024C41.6258 158.024 41.8658 158.056 42.0898 158.12C42.3138 158.184 42.5058 158.276 42.6658 158.396L42.3178 159.272C42.0538 159.072 41.7578 158.972 41.4298 158.972ZM45.9625 167.072C45.3305 167.072 44.7625 166.932 44.2585 166.652C43.7545 166.372 43.3585 165.988 43.0705 165.5C42.7905 165.004 42.6505 164.444 42.6505 163.82C42.6505 163.196 42.7905 162.64 43.0705 162.152C43.3585 161.656 43.7545 161.272 44.2585 161C44.7625 160.72 45.3305 160.58 45.9625 160.58C46.5945 160.58 47.1585 160.72 47.6545 161C48.1585 161.272 48.5505 161.656 48.8305 162.152C49.1185 162.64 49.2625 163.196 49.2625 163.82C49.2625 164.444 49.1185 165.004 48.8305 165.5C48.5505 165.988 48.1585 166.372 47.6545 166.652C47.1585 166.932 46.5945 167.072 45.9625 167.072ZM45.9625 166.064C46.3705 166.064 46.7345 165.972 47.0545 165.788C47.3825 165.596 47.6385 165.332 47.8225 164.996C48.0065 164.652 48.0985 164.26 48.0985 163.82C48.0985 163.38 48.0065 162.992 47.8225 162.656C47.6385 162.312 47.3825 162.048 47.0545 161.864C46.7345 161.68 46.3705 161.588 45.9625 161.588C45.5545 161.588 45.1865 161.68 44.8585 161.864C44.5385 162.048 44.2825 162.312 44.0905 162.656C43.9065 162.992 43.8145 163.38 43.8145 163.82C43.8145 164.26 43.9065 164.652 44.0905 164.996C44.2825 165.332 44.5385 165.596 44.8585 165.788C45.1865 165.972 45.5545 166.064 45.9625 166.064ZM51.9597 161.708C52.1597 161.34 52.4557 161.06 52.8477 160.868C53.2397 160.676 53.7157 160.58 54.2757 160.58V161.696C54.2117 161.688 54.1237 161.684 54.0117 161.684C53.3877 161.684 52.8957 161.872 52.5357 162.248C52.1837 162.616 52.0077 163.144 52.0077 163.832V167H50.8557V160.64H51.9597V161.708ZM63.6515 160.58C64.4515 160.58 65.0835 160.812 65.5475 161.276C66.0195 161.74 66.2555 162.428 66.2555 163.34V167H65.1035V163.472C65.1035 162.856 64.9595 162.392 64.6715 162.08C64.3915 161.768 63.9875 161.612 63.4595 161.612C62.8755 161.612 62.4115 161.796 62.0675 162.164C61.7235 162.524 61.5515 163.044 61.5515 163.724V167H60.3995V163.472C60.3995 162.856 60.2555 162.392 59.9675 162.08C59.6875 161.768 59.2835 161.612 58.7555 161.612C58.1715 161.612 57.7075 161.796 57.3635 162.164C57.0195 162.524 56.8475 163.044 56.8475 163.724V167H55.6955V160.64H56.7995V161.588C57.0315 161.26 57.3355 161.012 57.7115 160.844C58.0875 160.668 58.5155 160.58 58.9955 160.58C59.4915 160.58 59.9315 160.68 60.3155 160.88C60.6995 161.08 60.9955 161.372 61.2035 161.756C61.4435 161.388 61.7755 161.1 62.1995 160.892C62.6315 160.684 63.1155 160.58 63.6515 160.58ZM70.6912 160.58C71.5712 160.58 72.2432 160.796 72.7072 161.228C73.1792 161.66 73.4152 162.304 73.4152 163.16V167H72.3232V166.16C72.1312 166.456 71.8552 166.684 71.4952 166.844C71.1432 166.996 70.7232 167.072 70.2352 167.072C69.5232 167.072 68.9512 166.9 68.5192 166.556C68.0952 166.212 67.8832 165.76 67.8832 165.2C67.8832 164.64 68.0872 164.192 68.4952 163.856C68.9032 163.512 69.5512 163.34 70.4392 163.34H72.2632V163.112C72.2632 162.616 72.1192 162.236 71.8312 161.972C71.5432 161.708 71.1192 161.576 70.5592 161.576C70.1832 161.576 69.8152 161.64 69.4552 161.768C69.0952 161.888 68.7912 162.052 68.5432 162.26L68.0632 161.396C68.3912 161.132 68.7832 160.932 69.2392 160.796C69.6952 160.652 70.1792 160.58 70.6912 160.58ZM70.4272 166.184C70.8672 166.184 71.2472 166.088 71.5672 165.896C71.8872 165.696 72.1192 165.416 72.2632 165.056V164.168H70.4872C69.5112 164.168 69.0232 164.496 69.0232 165.152C69.0232 165.472 69.1472 165.724 69.3952 165.908C69.6432 166.092 69.9872 166.184 70.4272 166.184ZM76.6511 161.708C76.8511 161.34 77.1471 161.06 77.5391 160.868C77.9311 160.676 78.4071 160.58 78.9671 160.58V161.696C78.9031 161.688 78.8151 161.684 78.7031 161.684C78.0791 161.684 77.5871 161.872 77.2271 162.248C76.8751 162.616 76.6991 163.144 76.6991 163.832V167H75.5471V160.64H76.6511V161.708ZM83.6916 158.096H84.8436V167H83.6916V158.096ZM89.3592 160.58C90.2392 160.58 90.9112 160.796 91.3752 161.228C91.8472 161.66 92.0832 162.304 92.0832 163.16V167H90.9912V166.16C90.7992 166.456 90.5232 166.684 90.1632 166.844C89.8112 166.996 89.3912 167.072 88.9032 167.072C88.1912 167.072 87.6192 166.9 87.1872 166.556C86.7632 166.212 86.5512 165.76 86.5512 165.2C86.5512 164.64 86.7552 164.192 87.1632 163.856C87.5712 163.512 88.2192 163.34 89.1072 163.34H90.9312V163.112C90.9312 162.616 90.7872 162.236 90.4992 161.972C90.2112 161.708 89.7872 161.576 89.2272 161.576C88.8512 161.576 88.4832 161.64 88.1232 161.768C87.7632 161.888 87.4592 162.052 87.2112 162.26L86.7312 161.396C87.0592 161.132 87.4512 160.932 87.9072 160.796C88.3632 160.652 88.8472 160.58 89.3592 160.58ZM89.0952 166.184C89.5352 166.184 89.9152 166.088 90.2352 165.896C90.5552 165.696 90.7872 165.416 90.9312 165.056V164.168H89.1552C88.1792 164.168 87.6912 164.496 87.6912 165.152C87.6912 165.472 87.8152 165.724 88.0632 165.908C88.3112 166.092 88.6552 166.184 89.0952 166.184ZM100.21 167.072C99.5617 167.072 98.9817 166.932 98.4697 166.652C97.9657 166.372 97.5697 165.988 97.2817 165.5C96.9937 165.004 96.8497 164.444 96.8497 163.82C96.8497 163.196 96.9937 162.64 97.2817 162.152C97.5697 161.656 97.9657 161.272 98.4697 161C98.9817 160.72 99.5617 160.58 100.21 160.58C100.786 160.58 101.298 160.696 101.746 160.928C102.202 161.16 102.554 161.496 102.802 161.936L101.926 162.5C101.726 162.196 101.478 161.968 101.182 161.816C100.886 161.664 100.558 161.588 100.198 161.588C99.7817 161.588 99.4057 161.68 99.0697 161.864C98.7417 162.048 98.4817 162.312 98.2897 162.656C98.1057 162.992 98.0137 163.38 98.0137 163.82C98.0137 164.268 98.1057 164.664 98.2897 165.008C98.4817 165.344 98.7417 165.604 99.0697 165.788C99.4057 165.972 99.7817 166.064 100.198 166.064C100.558 166.064 100.886 165.988 101.182 165.836C101.478 165.684 101.726 165.456 101.926 165.152L102.802 165.704C102.554 166.144 102.202 166.484 101.746 166.724C101.298 166.956 100.786 167.072 100.21 167.072ZM106.609 160.58C107.489 160.58 108.161 160.796 108.625 161.228C109.097 161.66 109.333 162.304 109.333 163.16V167H108.241V166.16C108.049 166.456 107.773 166.684 107.413 166.844C107.061 166.996 106.641 167.072 106.153 167.072C105.441 167.072 104.869 166.9 104.437 166.556C104.013 166.212 103.801 165.76 103.801 165.2C103.801 164.64 104.005 164.192 104.413 163.856C104.821 163.512 105.469 163.34 106.357 163.34H108.181V163.112C108.181 162.616 108.037 162.236 107.749 161.972C107.461 161.708 107.037 161.576 106.477 161.576C106.101 161.576 105.733 161.64 105.373 161.768C105.013 161.888 104.709 162.052 104.461 162.26L103.981 161.396C104.309 161.132 104.701 160.932 105.157 160.796C105.613 160.652 106.097 160.58 106.609 160.58ZM106.345 166.184C106.785 166.184 107.165 166.088 107.485 165.896C107.805 165.696 108.037 165.416 108.181 165.056V164.168H106.405C105.429 164.168 104.941 164.496 104.941 165.152C104.941 165.472 105.065 165.724 105.313 165.908C105.561 166.092 105.905 166.184 106.345 166.184ZM114.837 160.58C115.453 160.58 116.005 160.716 116.493 160.988C116.981 161.26 117.361 161.64 117.633 162.128C117.913 162.616 118.053 163.18 118.053 163.82C118.053 164.46 117.913 165.028 117.633 165.524C117.361 166.012 116.981 166.392 116.493 166.664C116.005 166.936 115.453 167.072 114.837 167.072C114.365 167.072 113.933 166.98 113.541 166.796C113.149 166.612 112.825 166.344 112.569 165.992V167H111.465V158.096H112.617V161.6C112.873 161.264 113.193 161.012 113.577 160.844C113.961 160.668 114.381 160.58 114.837 160.58ZM114.741 166.064C115.149 166.064 115.513 165.972 115.833 165.788C116.161 165.596 116.417 165.332 116.601 164.996C116.793 164.652 116.889 164.26 116.889 163.82C116.889 163.38 116.793 162.992 116.601 162.656C116.417 162.312 116.161 162.048 115.833 161.864C115.513 161.68 115.149 161.588 114.741 161.588C114.341 161.588 113.977 161.68 113.649 161.864C113.321 162.048 113.065 162.312 112.881 162.656C112.697 162.992 112.605 163.38 112.605 163.82C112.605 164.26 112.697 164.652 112.881 164.996C113.065 165.332 113.321 165.596 113.649 165.788C113.977 165.972 114.341 166.064 114.741 166.064ZM125.393 163.856C125.393 163.944 125.385 164.06 125.369 164.204H120.209C120.281 164.764 120.525 165.216 120.941 165.56C121.365 165.896 121.889 166.064 122.513 166.064C123.273 166.064 123.885 165.808 124.349 165.296L124.985 166.04C124.697 166.376 124.337 166.632 123.905 166.808C123.481 166.984 123.005 167.072 122.477 167.072C121.805 167.072 121.209 166.936 120.689 166.664C120.169 166.384 119.765 165.996 119.477 165.5C119.197 165.004 119.057 164.444 119.057 163.82C119.057 163.204 119.193 162.648 119.465 162.152C119.745 161.656 120.125 161.272 120.605 161C121.093 160.72 121.641 160.58 122.249 160.58C122.857 160.58 123.397 160.72 123.869 161C124.349 161.272 124.721 161.656 124.985 162.152C125.257 162.648 125.393 163.216 125.393 163.856ZM122.249 161.552C121.697 161.552 121.233 161.72 120.857 162.056C120.489 162.392 120.273 162.832 120.209 163.376H124.289C124.225 162.84 124.005 162.404 123.629 162.068C123.261 161.724 122.801 161.552 122.249 161.552ZM131.65 166.052V167H126.322V166.256L130.078 161.588H126.394V160.64H131.554V161.396L127.798 166.052H131.65ZM135.508 160.58C136.388 160.58 137.06 160.796 137.524 161.228C137.996 161.66 138.232 162.304 138.232 163.16V167H137.14V166.16C136.948 166.456 136.672 166.684 136.312 166.844C135.96 166.996 135.54 167.072 135.052 167.072C134.34 167.072 133.768 166.9 133.336 166.556C132.912 166.212 132.7 165.76 132.7 165.2C132.7 164.64 132.904 164.192 133.312 163.856C133.72 163.512 134.368 163.34 135.256 163.34H137.08V163.112C137.08 162.616 136.936 162.236 136.648 161.972C136.36 161.708 135.936 161.576 135.376 161.576C135 161.576 134.632 161.64 134.272 161.768C133.912 161.888 133.608 162.052 133.36 162.26L132.88 161.396C133.208 161.132 133.6 160.932 134.056 160.796C134.512 160.652 134.996 160.58 135.508 160.58ZM135.244 166.184C135.684 166.184 136.064 166.088 136.384 165.896C136.704 165.696 136.936 165.416 137.08 165.056V164.168H135.304C134.328 164.168 133.84 164.496 133.84 165.152C133.84 165.472 133.964 165.724 134.212 165.908C134.46 166.092 134.804 166.184 135.244 166.184ZM140.639 167.072C140.415 167.072 140.223 166.996 140.063 166.844C139.903 166.684 139.823 166.484 139.823 166.244C139.823 166.012 139.903 165.82 140.063 165.668C140.223 165.508 140.415 165.428 140.639 165.428C140.863 165.428 141.051 165.504 141.203 165.656C141.355 165.808 141.431 166.004 141.431 166.244C141.431 166.484 141.351 166.684 141.191 166.844C141.039 166.996 140.855 167.072 140.639 167.072Z" fill="#008E86"/>
<path d="M59.4359 57.4984L87.3655 8.3181L83.7225 62.9629L74.615 70.2489L59.4359 57.4984Z" fill="#008E86" stroke="#00635D" stroke-width="2" stroke-linejoin="round"/>
<path d="M63.6861 56.8912L87.3655 8.31805L83.7226 62.9629L63.6861 56.8912Z" fill="#008E86" stroke="#00635D" stroke-width="2" stroke-linejoin="round"/>
<path d="M87.9727 44.7482L74.615 28.9619" stroke="#333333" stroke-width="2" stroke-dasharray="4 6"/>
<path d="M72.7071 11.2189C72.8123 10.6767 73.3372 10.3225 73.8793 10.4277C74.4215 10.533 74.7757 11.0578 74.6705 11.5999L72.7071 11.2189ZM31.7089 29.3642C31.4822 28.8606 31.7067 28.2686 32.2103 28.0419L40.4172 24.3477C40.9208 24.121 41.5128 24.3455 41.7395 24.8491C41.9662 25.3527 41.7417 25.9448 41.2381 26.1715L33.9431 29.4552L37.2268 36.7502C37.4535 37.2538 37.229 37.8458 36.7254 38.0725C36.2218 38.2992 35.6297 38.0747 35.403 37.5711L31.7089 29.3642ZM74.6705 11.5999C72.9087 20.6776 67.5444 27.2828 59.9405 30.5827C52.3609 33.872 42.6678 33.8329 32.2662 29.8888L32.9753 28.0187C43.0117 31.8244 52.1504 31.7832 59.1443 28.748C66.1139 25.7234 71.0647 19.6814 72.7071 11.2189L74.6705 11.5999Z" fill="black"/>
<path d="M78.2576 51.4268L140.188 71.4633L83.1148 71.4632L78.2576 51.4268Z" fill="#008E86" stroke="#00635D" stroke-width="2" stroke-linejoin="round"/>
<path d="M63.686 56.8914L78.258 51.4268L101.33 75.1063L74.615 70.249L63.686 56.8914Z" fill="#008E86" stroke="#00635D" stroke-width="2" stroke-linejoin="round"/>
</g>
<defs>
<clipPath id="clip0_5698_200172">
<rect width="180" height="180" rx="20" fill="white"/>
</clipPath>
<clipPath id="clip1_5698_200172">
<path d="M0 30L-1.31134e-06 0L30 -1.31134e-06L30 10C30 21.0457 21.0457 30 10 30L0 30Z" fill="white"/>
</clipPath>
</defs>
</svg>
