<svg width="180" height="180" viewBox="0 0 180 180" fill="none" xmlns="http://www.w3.org/2000/svg">
<g clip-path="url(#clip0_5698_200176)">
<rect width="180" height="180" rx="20" fill="#F2F2F2"/>
<g clip-path="url(#clip1_5698_200176)">
<path d="M0 30L-1.31134e-06 0L30 -1.31134e-06L30 10C30 21.0457 21.0457 30 10 30L0 30Z" fill="#333333"/>
<path d="M14.4663 9.608C16.0343 9.608 17.2609 10.088 18.1463 11.048C19.0316 11.9973 19.4743 13.368 19.4743 15.16C19.4743 16.4293 19.2343 17.5173 18.7543 18.424C18.2849 19.3307 17.6183 20.0187 16.7543 20.488C15.8903 20.9573 14.8929 21.192 13.7623 21.192C13.1649 21.192 12.5943 21.128 12.0503 21C11.5063 20.8613 11.0423 20.6693 10.6583 20.424L11.6183 18.52C12.1623 18.8933 12.8609 19.08 13.7143 19.08C14.6636 19.08 15.4156 18.8027 15.9703 18.248C16.5249 17.6827 16.8236 16.872 16.8663 15.816C16.1943 16.488 15.2663 16.824 14.0823 16.824C13.3676 16.824 12.7169 16.68 12.1303 16.392C11.5436 16.104 11.0796 15.6987 10.7383 15.176C10.3969 14.6427 10.2263 14.0293 10.2263 13.336C10.2263 12.5893 10.4129 11.9333 10.7863 11.368C11.1596 10.8027 11.6663 10.3707 12.3063 10.072C12.9569 9.76267 13.6769 9.608 14.4663 9.608ZM14.6583 14.888C15.2236 14.888 15.6823 14.7333 16.0343 14.424C16.3969 14.104 16.5783 13.6987 16.5783 13.208C16.5783 12.7173 16.4023 12.3173 16.0503 12.008C15.7089 11.6987 15.2343 11.544 14.6263 11.544C14.0716 11.544 13.6183 11.6933 13.2663 11.992C12.9249 12.2907 12.7543 12.696 12.7543 13.208C12.7543 13.72 12.9249 14.1307 13.2663 14.44C13.6183 14.7387 14.0823 14.888 14.6583 14.888Z" fill="#F2F2F2"/>
</g>
<path d="M30.1057 113.6H33.6457C34.5337 113.6 35.3217 113.776 36.0097 114.128C36.6977 114.48 37.2297 114.976 37.6057 115.616C37.9897 116.248 38.1817 116.976 38.1817 117.8C38.1817 118.624 37.9897 119.356 37.6057 119.996C37.2297 120.628 36.6977 121.12 36.0097 121.472C35.3217 121.824 34.5337 122 33.6457 122H30.1057V113.6ZM33.5737 120.956C34.2537 120.956 34.8497 120.824 35.3617 120.56C35.8817 120.296 36.2817 119.928 36.5617 119.456C36.8417 118.976 36.9817 118.424 36.9817 117.8C36.9817 117.176 36.8417 116.628 36.5617 116.156C36.2817 115.676 35.8817 115.304 35.3617 115.04C34.8497 114.776 34.2537 114.644 33.5737 114.644H31.3057V120.956H33.5737ZM42.5758 122.072C41.9438 122.072 41.3758 121.932 40.8718 121.652C40.3678 121.372 39.9718 120.988 39.6838 120.5C39.4038 120.004 39.2638 119.444 39.2638 118.82C39.2638 118.196 39.4038 117.64 39.6838 117.152C39.9718 116.656 40.3678 116.272 40.8718 116C41.3758 115.72 41.9438 115.58 42.5758 115.58C43.2078 115.58 43.7718 115.72 44.2678 116C44.7718 116.272 45.1638 116.656 45.4438 117.152C45.7318 117.64 45.8758 118.196 45.8758 118.82C45.8758 119.444 45.7318 120.004 45.4438 120.5C45.1638 120.988 44.7718 121.372 44.2678 121.652C43.7718 121.932 43.2078 122.072 42.5758 122.072ZM42.5758 121.064C42.9838 121.064 43.3478 120.972 43.6678 120.788C43.9958 120.596 44.2518 120.332 44.4358 119.996C44.6198 119.652 44.7118 119.26 44.7118 118.82C44.7118 118.38 44.6198 117.992 44.4358 117.656C44.2518 117.312 43.9958 117.048 43.6678 116.864C43.3478 116.68 42.9838 116.588 42.5758 116.588C42.1678 116.588 41.7998 116.68 41.4718 116.864C41.1518 117.048 40.8958 117.312 40.7038 117.656C40.5198 117.992 40.4278 118.38 40.4278 118.82C40.4278 119.26 40.5198 119.652 40.7038 119.996C40.8958 120.332 41.1518 120.596 41.4718 120.788C41.7998 120.972 42.1678 121.064 42.5758 121.064ZM50.841 115.58C51.457 115.58 52.009 115.716 52.497 115.988C52.985 116.26 53.365 116.64 53.637 117.128C53.917 117.616 54.057 118.18 54.057 118.82C54.057 119.46 53.917 120.028 53.637 120.524C53.365 121.012 52.985 121.392 52.497 121.664C52.009 121.936 51.457 122.072 50.841 122.072C50.369 122.072 49.937 121.98 49.545 121.796C49.153 121.612 48.829 121.344 48.573 120.992V122H47.469V113.096H48.621V116.6C48.877 116.264 49.197 116.012 49.581 115.844C49.965 115.668 50.385 115.58 50.841 115.58ZM50.745 121.064C51.153 121.064 51.517 120.972 51.837 120.788C52.165 120.596 52.421 120.332 52.605 119.996C52.797 119.652 52.893 119.26 52.893 118.82C52.893 118.38 52.797 117.992 52.605 117.656C52.421 117.312 52.165 117.048 51.837 116.864C51.517 116.68 51.153 116.588 50.745 116.588C50.345 116.588 49.981 116.68 49.653 116.864C49.325 117.048 49.069 117.312 48.885 117.656C48.701 117.992 48.609 118.38 48.609 118.82C48.609 119.26 48.701 119.652 48.885 119.996C49.069 120.332 49.325 120.596 49.653 120.788C49.981 120.972 50.345 121.064 50.745 121.064ZM55.6486 113.096H56.8006V122H55.6486V113.096ZM61.3162 115.58C62.1962 115.58 62.8682 115.796 63.3322 116.228C63.8042 116.66 64.0402 117.304 64.0402 118.16V122H62.9482V121.16C62.7562 121.456 62.4802 121.684 62.1202 121.844C61.7682 121.996 61.3482 122.072 60.8602 122.072C60.1482 122.072 59.5762 121.9 59.1442 121.556C58.7202 121.212 58.5082 120.76 58.5082 120.2C58.5082 119.64 58.7122 119.192 59.1202 118.856C59.5282 118.512 60.1762 118.34 61.0642 118.34H62.8882V118.112C62.8882 117.616 62.7442 117.236 62.4562 116.972C62.1682 116.708 61.7442 116.576 61.1842 116.576C60.8082 116.576 60.4402 116.64 60.0802 116.768C59.7202 116.888 59.4162 117.052 59.1682 117.26L58.6882 116.396C59.0162 116.132 59.4082 115.932 59.8642 115.796C60.3202 115.652 60.8042 115.58 61.3162 115.58ZM61.0522 121.184C61.4922 121.184 61.8722 121.088 62.1922 120.896C62.5122 120.696 62.7442 120.416 62.8882 120.056V119.168H61.1122C60.1362 119.168 59.6482 119.496 59.6482 120.152C59.6482 120.472 59.7722 120.724 60.0202 120.908C60.2682 121.092 60.6122 121.184 61.0522 121.184ZM69.3947 113.096H70.5467V122H69.3947V113.096ZM75.0623 115.58C75.9423 115.58 76.6143 115.796 77.0783 116.228C77.5503 116.66 77.7863 117.304 77.7863 118.16V122H76.6943V121.16C76.5023 121.456 76.2263 121.684 75.8663 121.844C75.5143 121.996 75.0943 122.072 74.6063 122.072C73.8943 122.072 73.3223 121.9 72.8903 121.556C72.4663 121.212 72.2543 120.76 72.2543 120.2C72.2543 119.64 72.4583 119.192 72.8663 118.856C73.2743 118.512 73.9223 118.34 74.8103 118.34H76.6343V118.112C76.6343 117.616 76.4903 117.236 76.2023 116.972C75.9143 116.708 75.4903 116.576 74.9303 116.576C74.5543 116.576 74.1863 116.64 73.8263 116.768C73.4663 116.888 73.1623 117.052 72.9143 117.26L72.4343 116.396C72.7623 116.132 73.1543 115.932 73.6103 115.796C74.0663 115.652 74.5503 115.58 75.0623 115.58ZM74.7983 121.184C75.2383 121.184 75.6183 121.088 75.9383 120.896C76.2583 120.696 76.4903 120.416 76.6343 120.056V119.168H74.8583C73.8823 119.168 73.3943 119.496 73.3943 120.152C73.3943 120.472 73.5183 120.724 73.7663 120.908C74.0143 121.092 74.3583 121.184 74.7983 121.184ZM86.5128 115.58C87.1288 115.58 87.6808 115.716 88.1688 115.988C88.6568 116.26 89.0368 116.64 89.3088 117.128C89.5888 117.616 89.7288 118.18 89.7288 118.82C89.7288 119.46 89.5888 120.028 89.3088 120.524C89.0368 121.012 88.6568 121.392 88.1688 121.664C87.6808 121.936 87.1288 122.072 86.5128 122.072C86.0568 122.072 85.6368 121.984 85.2528 121.808C84.8768 121.632 84.5568 121.376 84.2928 121.04V124.328H83.1408V115.64H84.2448V116.648C84.5008 116.296 84.8248 116.032 85.2168 115.856C85.6088 115.672 86.0408 115.58 86.5128 115.58ZM86.4168 121.064C86.8248 121.064 87.1888 120.972 87.5088 120.788C87.8368 120.596 88.0928 120.332 88.2768 119.996C88.4688 119.652 88.5648 119.26 88.5648 118.82C88.5648 118.38 88.4688 117.992 88.2768 117.656C88.0928 117.312 87.8368 117.048 87.5088 116.864C87.1888 116.68 86.8248 116.588 86.4168 116.588C86.0168 116.588 85.6528 116.684 85.3248 116.876C85.0048 117.06 84.7488 117.32 84.5568 117.656C84.3728 117.992 84.2808 118.38 84.2808 118.82C84.2808 119.26 84.3728 119.652 84.5568 119.996C84.7408 120.332 84.9968 120.596 85.3248 120.788C85.6528 120.972 86.0168 121.064 86.4168 121.064ZM97.2485 115.64V122H96.1565V121.04C95.9245 121.368 95.6165 121.624 95.2325 121.808C94.8565 121.984 94.4445 122.072 93.9965 122.072C93.1485 122.072 92.4805 121.84 91.9925 121.376C91.5045 120.904 91.2605 120.212 91.2605 119.3V115.64H92.4125V119.168C92.4125 119.784 92.5605 120.252 92.8565 120.572C93.1525 120.884 93.5765 121.04 94.1285 121.04C94.7365 121.04 95.2165 120.856 95.5685 120.488C95.9205 120.12 96.0965 119.6 96.0965 118.928V115.64H97.2485ZM102.838 115.58C103.646 115.58 104.286 115.816 104.758 116.288C105.238 116.752 105.478 117.436 105.478 118.34V122H104.326V118.472C104.326 117.856 104.178 117.392 103.882 117.08C103.586 116.768 103.162 116.612 102.61 116.612C101.986 116.612 101.494 116.796 101.134 117.164C100.774 117.524 100.594 118.044 100.594 118.724V122H99.4416V115.64H100.546V116.6C100.778 116.272 101.09 116.02 101.482 115.844C101.882 115.668 102.334 115.58 102.838 115.58ZM111.186 121.628C111.018 121.772 110.81 121.884 110.562 121.964C110.314 122.036 110.058 122.072 109.794 122.072C109.154 122.072 108.658 121.9 108.306 121.556C107.954 121.212 107.778 120.72 107.778 120.08V116.588H106.698V115.64H107.778V114.248H108.93V115.64H110.754V116.588H108.93V120.032C108.93 120.376 109.014 120.64 109.182 120.824C109.358 121.008 109.606 121.1 109.926 121.1C110.278 121.1 110.578 121 110.826 120.8L111.186 121.628ZM114.894 115.58C115.774 115.58 116.446 115.796 116.91 116.228C117.382 116.66 117.618 117.304 117.618 118.16V122H116.526V121.16C116.334 121.456 116.058 121.684 115.698 121.844C115.346 121.996 114.926 122.072 114.438 122.072C113.726 122.072 113.154 121.9 112.722 121.556C112.298 121.212 112.086 120.76 112.086 120.2C112.086 119.64 112.29 119.192 112.698 118.856C113.106 118.512 113.754 118.34 114.642 118.34H116.466V118.112C116.466 117.616 116.322 117.236 116.034 116.972C115.746 116.708 115.322 116.576 114.762 116.576C114.386 116.576 114.018 116.64 113.658 116.768C113.298 116.888 112.994 117.052 112.746 117.26L112.266 116.396C112.594 116.132 112.986 115.932 113.442 115.796C113.898 115.652 114.382 115.58 114.894 115.58ZM114.63 121.184C115.07 121.184 115.45 121.088 115.77 120.896C116.09 120.696 116.322 120.416 116.466 120.056V119.168H114.69C113.714 119.168 113.226 119.496 113.226 120.152C113.226 120.472 113.35 120.724 113.598 120.908C113.846 121.092 114.19 121.184 114.63 121.184ZM128.973 113.096V122H127.869V120.992C127.613 121.344 127.289 121.612 126.897 121.796C126.505 121.98 126.073 122.072 125.601 122.072C124.985 122.072 124.433 121.936 123.945 121.664C123.457 121.392 123.073 121.012 122.793 120.524C122.521 120.028 122.385 119.46 122.385 118.82C122.385 118.18 122.521 117.616 122.793 117.128C123.073 116.64 123.457 116.26 123.945 115.988C124.433 115.716 124.985 115.58 125.601 115.58C126.057 115.58 126.477 115.668 126.861 115.844C127.245 116.012 127.565 116.264 127.821 116.6V113.096H128.973ZM125.697 121.064C126.097 121.064 126.461 120.972 126.789 120.788C127.117 120.596 127.373 120.332 127.557 119.996C127.741 119.652 127.833 119.26 127.833 118.82C127.833 118.38 127.741 117.992 127.557 117.656C127.373 117.312 127.117 117.048 126.789 116.864C126.461 116.68 126.097 116.588 125.697 116.588C125.289 116.588 124.921 116.68 124.593 116.864C124.273 117.048 124.017 117.312 123.825 117.656C123.641 117.992 123.549 118.38 123.549 118.82C123.549 119.26 123.641 119.652 123.825 119.996C124.017 120.332 124.273 120.596 124.593 120.788C124.921 120.972 125.289 121.064 125.697 121.064ZM136.901 118.856C136.901 118.944 136.893 119.06 136.877 119.204H131.717C131.789 119.764 132.033 120.216 132.449 120.56C132.873 120.896 133.397 121.064 134.021 121.064C134.781 121.064 135.393 120.808 135.857 120.296L136.493 121.04C136.205 121.376 135.845 121.632 135.413 121.808C134.989 121.984 134.513 122.072 133.985 122.072C133.313 122.072 132.717 121.936 132.197 121.664C131.677 121.384 131.273 120.996 130.985 120.5C130.705 120.004 130.565 119.444 130.565 118.82C130.565 118.204 130.701 117.648 130.973 117.152C131.253 116.656 131.633 116.272 132.113 116C132.601 115.72 133.149 115.58 133.757 115.58C134.365 115.58 134.905 115.72 135.377 116C135.857 116.272 136.229 116.656 136.493 117.152C136.765 117.648 136.901 118.216 136.901 118.856ZM133.757 116.552C133.205 116.552 132.741 116.72 132.365 117.056C131.997 117.392 131.781 117.832 131.717 118.376H135.797C135.733 117.84 135.513 117.404 135.137 117.068C134.769 116.724 134.309 116.552 133.757 116.552ZM141.723 113.096H142.875V122H141.723V113.096ZM147.39 115.58C148.27 115.58 148.942 115.796 149.406 116.228C149.878 116.66 150.114 117.304 150.114 118.16V122H149.022V121.16C148.83 121.456 148.554 121.684 148.194 121.844C147.842 121.996 147.422 122.072 146.934 122.072C146.222 122.072 145.65 121.9 145.218 121.556C144.794 121.212 144.582 120.76 144.582 120.2C144.582 119.64 144.786 119.192 145.194 118.856C145.602 118.512 146.25 118.34 147.138 118.34H148.962V118.112C148.962 117.616 148.818 117.236 148.53 116.972C148.242 116.708 147.818 116.576 147.258 116.576C146.882 116.576 146.514 116.64 146.154 116.768C145.794 116.888 145.49 117.052 145.242 117.26L144.762 116.396C145.09 116.132 145.482 115.932 145.938 115.796C146.394 115.652 146.878 115.58 147.39 115.58ZM147.126 121.184C147.566 121.184 147.946 121.088 148.266 120.896C148.586 120.696 148.818 120.416 148.962 120.056V119.168H147.186C146.21 119.168 145.722 119.496 145.722 120.152C145.722 120.472 145.846 120.724 146.094 120.908C146.342 121.092 146.686 121.184 147.126 121.184ZM47.4519 137.072C46.8039 137.072 46.2239 136.932 45.7119 136.652C45.2079 136.372 44.8119 135.988 44.5239 135.5C44.2359 135.004 44.0919 134.444 44.0919 133.82C44.0919 133.196 44.2359 132.64 44.5239 132.152C44.8119 131.656 45.2079 131.272 45.7119 131C46.2239 130.72 46.8039 130.58 47.4519 130.58C48.0279 130.58 48.5399 130.696 48.9879 130.928C49.4439 131.16 49.7959 131.496 50.0439 131.936L49.1679 132.5C48.9679 132.196 48.7199 131.968 48.4239 131.816C48.1279 131.664 47.7999 131.588 47.4399 131.588C47.0239 131.588 46.6479 131.68 46.3119 131.864C45.9839 132.048 45.7239 132.312 45.5319 132.656C45.3479 132.992 45.2559 133.38 45.2559 133.82C45.2559 134.268 45.3479 134.664 45.5319 135.008C45.7239 135.344 45.9839 135.604 46.3119 135.788C46.6479 135.972 47.0239 136.064 47.4399 136.064C47.7999 136.064 48.1279 135.988 48.4239 135.836C48.7199 135.684 48.9679 135.456 49.1679 135.152L50.0439 135.704C49.7959 136.144 49.4439 136.484 48.9879 136.724C48.5399 136.956 48.0279 137.072 47.4519 137.072ZM53.8514 130.58C54.7314 130.58 55.4034 130.796 55.8674 131.228C56.3394 131.66 56.5754 132.304 56.5754 133.16V137H55.4834V136.16C55.2914 136.456 55.0154 136.684 54.6554 136.844C54.3034 136.996 53.8834 137.072 53.3954 137.072C52.6834 137.072 52.1114 136.9 51.6794 136.556C51.2554 136.212 51.0434 135.76 51.0434 135.2C51.0434 134.64 51.2474 134.192 51.6554 133.856C52.0634 133.512 52.7114 133.34 53.5994 133.34H55.4234V133.112C55.4234 132.616 55.2794 132.236 54.9914 131.972C54.7034 131.708 54.2794 131.576 53.7194 131.576C53.3434 131.576 52.9754 131.64 52.6154 131.768C52.2554 131.888 51.9514 132.052 51.7034 132.26L51.2234 131.396C51.5514 131.132 51.9434 130.932 52.3994 130.796C52.8554 130.652 53.3394 130.58 53.8514 130.58ZM53.5874 136.184C54.0274 136.184 54.4074 136.088 54.7274 135.896C55.0474 135.696 55.2794 135.416 55.4234 135.056V134.168H53.6474C52.6714 134.168 52.1834 134.496 52.1834 135.152C52.1834 135.472 52.3074 135.724 52.5554 135.908C52.8034 136.092 53.1474 136.184 53.5874 136.184ZM62.0792 130.58C62.6952 130.58 63.2472 130.716 63.7352 130.988C64.2232 131.26 64.6032 131.64 64.8752 132.128C65.1552 132.616 65.2952 133.18 65.2952 133.82C65.2952 134.46 65.1552 135.028 64.8752 135.524C64.6032 136.012 64.2232 136.392 63.7352 136.664C63.2472 136.936 62.6952 137.072 62.0792 137.072C61.6072 137.072 61.1752 136.98 60.7832 136.796C60.3912 136.612 60.0672 136.344 59.8112 135.992V137H58.7072V128.096H59.8592V131.6C60.1152 131.264 60.4352 131.012 60.8192 130.844C61.2032 130.668 61.6232 130.58 62.0792 130.58ZM61.9832 136.064C62.3912 136.064 62.7552 135.972 63.0752 135.788C63.4032 135.596 63.6592 135.332 63.8432 134.996C64.0352 134.652 64.1312 134.26 64.1312 133.82C64.1312 133.38 64.0352 132.992 63.8432 132.656C63.6592 132.312 63.4032 132.048 63.0752 131.864C62.7552 131.68 62.3912 131.588 61.9832 131.588C61.5832 131.588 61.2192 131.68 60.8912 131.864C60.5632 132.048 60.3072 132.312 60.1232 132.656C59.9392 132.992 59.8472 133.38 59.8472 133.82C59.8472 134.26 59.9392 134.652 60.1232 134.996C60.3072 135.332 60.5632 135.596 60.8912 135.788C61.2192 135.972 61.5832 136.064 61.9832 136.064ZM72.6349 133.856C72.6349 133.944 72.6269 134.06 72.6109 134.204H67.4509C67.5229 134.764 67.7669 135.216 68.1829 135.56C68.6069 135.896 69.1309 136.064 69.7549 136.064C70.5149 136.064 71.1269 135.808 71.5909 135.296L72.2269 136.04C71.9389 136.376 71.5789 136.632 71.1469 136.808C70.7229 136.984 70.2469 137.072 69.7189 137.072C69.0469 137.072 68.4509 136.936 67.9309 136.664C67.4109 136.384 67.0069 135.996 66.7189 135.5C66.4389 135.004 66.2989 134.444 66.2989 133.82C66.2989 133.204 66.4349 132.648 66.7069 132.152C66.9869 131.656 67.3669 131.272 67.8469 131C68.3349 130.72 68.8829 130.58 69.4909 130.58C70.0989 130.58 70.6389 130.72 71.1109 131C71.5909 131.272 71.9629 131.656 72.2269 132.152C72.4989 132.648 72.6349 133.216 72.6349 133.856ZM69.4909 131.552C68.9389 131.552 68.4749 131.72 68.0989 132.056C67.7309 132.392 67.5149 132.832 67.4509 133.376H71.5309C71.4669 132.84 71.2469 132.404 70.8709 132.068C70.5029 131.724 70.0429 131.552 69.4909 131.552ZM78.892 136.052V137H73.564V136.256L77.32 131.588H73.636V130.64H78.796V131.396L75.04 136.052H78.892ZM82.7498 130.58C83.6298 130.58 84.3018 130.796 84.7658 131.228C85.2378 131.66 85.4738 132.304 85.4738 133.16V137H84.3818V136.16C84.1898 136.456 83.9138 136.684 83.5538 136.844C83.2018 136.996 82.7818 137.072 82.2938 137.072C81.5818 137.072 81.0098 136.9 80.5778 136.556C80.1538 136.212 79.9418 135.76 79.9418 135.2C79.9418 134.64 80.1458 134.192 80.5538 133.856C80.9618 133.512 81.6098 133.34 82.4978 133.34H84.3218V133.112C84.3218 132.616 84.1778 132.236 83.8898 131.972C83.6018 131.708 83.1778 131.576 82.6178 131.576C82.2418 131.576 81.8738 131.64 81.5138 131.768C81.1538 131.888 80.8498 132.052 80.6018 132.26L80.1218 131.396C80.4498 131.132 80.8418 130.932 81.2978 130.796C81.7538 130.652 82.2378 130.58 82.7498 130.58ZM82.4858 136.184C82.9258 136.184 83.3058 136.088 83.6258 135.896C83.9458 135.696 84.1778 135.416 84.3218 135.056V134.168H82.5458C81.5698 134.168 81.0818 134.496 81.0818 135.152C81.0818 135.472 81.2058 135.724 81.4538 135.908C81.7018 136.092 82.0458 136.184 82.4858 136.184ZM94.2243 130.58C95.0323 130.58 95.6723 130.816 96.1443 131.288C96.6243 131.752 96.8643 132.436 96.8643 133.34V137H95.7123V133.472C95.7123 132.856 95.5643 132.392 95.2683 132.08C94.9723 131.768 94.5483 131.612 93.9963 131.612C93.3723 131.612 92.8803 131.796 92.5203 132.164C92.1603 132.524 91.9803 133.044 91.9803 133.724V137H90.8283V128.096H91.9803V131.54C92.2203 131.236 92.5323 131 92.9163 130.832C93.3083 130.664 93.7443 130.58 94.2243 130.58ZM101.312 130.58C102.192 130.58 102.864 130.796 103.328 131.228C103.8 131.66 104.036 132.304 104.036 133.16V137H102.944V136.16C102.752 136.456 102.476 136.684 102.116 136.844C101.764 136.996 101.344 137.072 100.856 137.072C100.144 137.072 99.5723 136.9 99.1403 136.556C98.7163 136.212 98.5043 135.76 98.5043 135.2C98.5043 134.64 98.7083 134.192 99.1163 133.856C99.5243 133.512 100.172 133.34 101.06 133.34H102.884V133.112C102.884 132.616 102.74 132.236 102.452 131.972C102.164 131.708 101.74 131.576 101.18 131.576C100.804 131.576 100.436 131.64 100.076 131.768C99.7163 131.888 99.4123 132.052 99.1643 132.26L98.6843 131.396C99.0123 131.132 99.4043 130.932 99.8603 130.796C100.316 130.652 100.8 130.58 101.312 130.58ZM101.048 136.184C101.488 136.184 101.868 136.088 102.188 135.896C102.508 135.696 102.74 135.416 102.884 135.056V134.168H101.108C100.132 134.168 99.6443 134.496 99.6443 135.152C99.6443 135.472 99.7683 135.724 100.016 135.908C100.264 136.092 100.608 136.184 101.048 136.184ZM108.975 137.072C108.327 137.072 107.747 136.932 107.235 136.652C106.731 136.372 106.335 135.988 106.047 135.5C105.759 135.004 105.615 134.444 105.615 133.82C105.615 133.196 105.759 132.64 106.047 132.152C106.335 131.656 106.731 131.272 107.235 131C107.747 130.72 108.327 130.58 108.975 130.58C109.551 130.58 110.063 130.696 110.511 130.928C110.967 131.16 111.319 131.496 111.567 131.936L110.691 132.5C110.491 132.196 110.243 131.968 109.947 131.816C109.651 131.664 109.323 131.588 108.963 131.588C108.547 131.588 108.171 131.68 107.835 131.864C107.507 132.048 107.247 132.312 107.055 132.656C106.871 132.992 106.779 133.38 106.779 133.82C106.779 134.268 106.871 134.664 107.055 135.008C107.247 135.344 107.507 135.604 107.835 135.788C108.171 135.972 108.547 136.064 108.963 136.064C109.323 136.064 109.651 135.988 109.947 135.836C110.243 135.684 110.491 135.456 110.691 135.152L111.567 135.704C111.319 136.144 110.967 136.484 110.511 136.724C110.063 136.956 109.551 137.072 108.975 137.072ZM113.059 130.64H114.211V137H113.059V130.64ZM113.635 129.416C113.411 129.416 113.223 129.344 113.071 129.2C112.927 129.056 112.855 128.88 112.855 128.672C112.855 128.464 112.927 128.288 113.071 128.144C113.223 127.992 113.411 127.916 113.635 127.916C113.859 127.916 114.043 127.988 114.187 128.132C114.339 128.268 114.415 128.44 114.415 128.648C114.415 128.864 114.339 129.048 114.187 129.2C114.043 129.344 113.859 129.416 113.635 129.416ZM118.726 130.58C119.606 130.58 120.278 130.796 120.742 131.228C121.214 131.66 121.45 132.304 121.45 133.16V137H120.358V136.16C120.166 136.456 119.89 136.684 119.53 136.844C119.178 136.996 118.758 137.072 118.27 137.072C117.558 137.072 116.986 136.9 116.554 136.556C116.13 136.212 115.918 135.76 115.918 135.2C115.918 134.64 116.122 134.192 116.53 133.856C116.938 133.512 117.586 133.34 118.474 133.34H120.298V133.112C120.298 132.616 120.154 132.236 119.866 131.972C119.578 131.708 119.154 131.576 118.594 131.576C118.218 131.576 117.85 131.64 117.49 131.768C117.13 131.888 116.826 132.052 116.578 132.26L116.098 131.396C116.426 131.132 116.818 130.932 117.274 130.796C117.73 130.652 118.214 130.58 118.726 130.58ZM118.462 136.184C118.902 136.184 119.282 136.088 119.602 135.896C119.922 135.696 120.154 135.416 120.298 135.056V134.168H118.522C117.546 134.168 117.058 134.496 117.058 135.152C117.058 135.472 117.182 135.724 117.43 135.908C117.678 136.092 118.022 136.184 118.462 136.184ZM132.553 133.856C132.553 133.944 132.545 134.06 132.529 134.204H127.369C127.441 134.764 127.685 135.216 128.101 135.56C128.525 135.896 129.049 136.064 129.673 136.064C130.433 136.064 131.045 135.808 131.509 135.296L132.145 136.04C131.857 136.376 131.497 136.632 131.065 136.808C130.641 136.984 130.165 137.072 129.637 137.072C128.965 137.072 128.369 136.936 127.849 136.664C127.329 136.384 126.925 135.996 126.637 135.5C126.357 135.004 126.217 134.444 126.217 133.82C126.217 133.204 126.353 132.648 126.625 132.152C126.905 131.656 127.285 131.272 127.765 131C128.253 130.72 128.801 130.58 129.409 130.58C130.017 130.58 130.557 130.72 131.029 131C131.509 131.272 131.881 131.656 132.145 132.152C132.417 132.648 132.553 133.216 132.553 133.856ZM129.409 131.552C128.857 131.552 128.393 131.72 128.017 132.056C127.649 132.392 127.433 132.832 127.369 133.376H131.449C131.385 132.84 131.165 132.404 130.789 132.068C130.421 131.724 129.961 131.552 129.409 131.552ZM134.153 128.096H135.305V137H134.153V128.096ZM24.9162 145.64H26.0682V152H24.9162V145.64ZM25.4922 144.416C25.2682 144.416 25.0802 144.344 24.9282 144.2C24.7842 144.056 24.7122 143.88 24.7122 143.672C24.7122 143.464 24.7842 143.288 24.9282 143.144C25.0802 142.992 25.2682 142.916 25.4922 142.916C25.7162 142.916 25.9002 142.988 26.0442 143.132C26.1962 143.268 26.2722 143.44 26.2722 143.648C26.2722 143.864 26.1962 144.048 26.0442 144.2C25.9002 144.344 25.7162 144.416 25.4922 144.416ZM31.6638 145.58C32.4718 145.58 33.1118 145.816 33.5838 146.288C34.0638 146.752 34.3038 147.436 34.3038 148.34V152H33.1518V148.472C33.1518 147.856 33.0038 147.392 32.7078 147.08C32.4118 146.768 31.9878 146.612 31.4358 146.612C30.8118 146.612 30.3198 146.796 29.9598 147.164C29.5998 147.524 29.4198 148.044 29.4198 148.724V152H28.2678V145.64H29.3718V146.6C29.6038 146.272 29.9158 146.02 30.3078 145.844C30.7078 145.668 31.1598 145.58 31.6638 145.58ZM40.0118 151.628C39.8438 151.772 39.6358 151.884 39.3878 151.964C39.1398 152.036 38.8838 152.072 38.6198 152.072C37.9798 152.072 37.4838 151.9 37.1318 151.556C36.7798 151.212 36.6038 150.72 36.6038 150.08V146.588H35.5238V145.64H36.6038V144.248H37.7558V145.64H39.5798V146.588H37.7558V150.032C37.7558 150.376 37.8398 150.64 38.0078 150.824C38.1838 151.008 38.4318 151.1 38.7518 151.1C39.1038 151.1 39.4038 151 39.6518 150.8L40.0118 151.628ZM46.9416 148.856C46.9416 148.944 46.9336 149.06 46.9176 149.204H41.7576C41.8296 149.764 42.0736 150.216 42.4896 150.56C42.9136 150.896 43.4376 151.064 44.0616 151.064C44.8216 151.064 45.4336 150.808 45.8976 150.296L46.5336 151.04C46.2456 151.376 45.8856 151.632 45.4536 151.808C45.0296 151.984 44.5536 152.072 44.0256 152.072C43.3536 152.072 42.7576 151.936 42.2376 151.664C41.7176 151.384 41.3136 150.996 41.0256 150.5C40.7456 150.004 40.6056 149.444 40.6056 148.82C40.6056 148.204 40.7416 147.648 41.0136 147.152C41.2936 146.656 41.6736 146.272 42.1536 146C42.6416 145.72 43.1896 145.58 43.7976 145.58C44.4056 145.58 44.9456 145.72 45.4176 146C45.8976 146.272 46.2696 146.656 46.5336 147.152C46.8056 147.648 46.9416 148.216 46.9416 148.856ZM43.7976 146.552C43.2456 146.552 42.7816 146.72 42.4056 147.056C42.0376 147.392 41.8216 147.832 41.7576 148.376H45.8376C45.7736 147.84 45.5536 147.404 45.1776 147.068C44.8096 146.724 44.3496 146.552 43.7976 146.552ZM49.6452 146.708C49.8452 146.34 50.1412 146.06 50.5332 145.868C50.9252 145.676 51.4012 145.58 51.9612 145.58V146.696C51.8972 146.688 51.8092 146.684 51.6972 146.684C51.0732 146.684 50.5812 146.872 50.2212 147.248C49.8692 147.616 49.6932 148.144 49.6932 148.832V152H48.5412V145.64H49.6452V146.708ZM53.3811 145.64H54.5331V152H53.3811V145.64ZM53.9571 144.416C53.7331 144.416 53.5451 144.344 53.3931 144.2C53.2491 144.056 53.1771 143.88 53.1771 143.672C53.1771 143.464 53.2491 143.288 53.3931 143.144C53.5451 142.992 53.7331 142.916 53.9571 142.916C54.1811 142.916 54.3651 142.988 54.5091 143.132C54.6611 143.268 54.7371 143.44 54.7371 143.648C54.7371 143.864 54.6611 144.048 54.5091 144.2C54.3651 144.344 54.1811 144.416 53.9571 144.416ZM59.4566 152.072C58.8246 152.072 58.2566 151.932 57.7526 151.652C57.2486 151.372 56.8526 150.988 56.5646 150.5C56.2846 150.004 56.1446 149.444 56.1446 148.82C56.1446 148.196 56.2846 147.64 56.5646 147.152C56.8526 146.656 57.2486 146.272 57.7526 146C58.2566 145.72 58.8246 145.58 59.4566 145.58C60.0886 145.58 60.6526 145.72 61.1486 146C61.6526 146.272 62.0446 146.656 62.3246 147.152C62.6126 147.64 62.7566 148.196 62.7566 148.82C62.7566 149.444 62.6126 150.004 62.3246 150.5C62.0446 150.988 61.6526 151.372 61.1486 151.652C60.6526 151.932 60.0886 152.072 59.4566 152.072ZM59.4566 151.064C59.8646 151.064 60.2286 150.972 60.5486 150.788C60.8766 150.596 61.1326 150.332 61.3166 149.996C61.5006 149.652 61.5926 149.26 61.5926 148.82C61.5926 148.38 61.5006 147.992 61.3166 147.656C61.1326 147.312 60.8766 147.048 60.5486 146.864C60.2286 146.68 59.8646 146.588 59.4566 146.588C59.0486 146.588 58.6806 146.68 58.3526 146.864C58.0326 147.048 57.7766 147.312 57.5846 147.656C57.4006 147.992 57.3086 148.38 57.3086 148.82C57.3086 149.26 57.4006 149.652 57.5846 149.996C57.7766 150.332 58.0326 150.596 58.3526 150.788C58.6806 150.972 59.0486 151.064 59.4566 151.064ZM65.4538 146.708C65.6538 146.34 65.9498 146.06 66.3418 145.868C66.7338 145.676 67.2098 145.58 67.7698 145.58V146.696C67.7058 146.688 67.6178 146.684 67.5058 146.684C66.8818 146.684 66.3898 146.872 66.0298 147.248C65.6778 147.616 65.5018 148.144 65.5018 148.832V152H64.3498V145.64H65.4538V146.708ZM75.8663 145.58C76.4823 145.58 77.0343 145.716 77.5223 145.988C78.0103 146.26 78.3903 146.64 78.6623 147.128C78.9423 147.616 79.0823 148.18 79.0823 148.82C79.0823 149.46 78.9423 150.028 78.6623 150.524C78.3903 151.012 78.0103 151.392 77.5223 151.664C77.0343 151.936 76.4823 152.072 75.8663 152.072C75.4103 152.072 74.9903 151.984 74.6063 151.808C74.2303 151.632 73.9103 151.376 73.6463 151.04V154.328H72.4943V145.64H73.5983V146.648C73.8543 146.296 74.1783 146.032 74.5703 145.856C74.9623 145.672 75.3943 145.58 75.8663 145.58ZM75.7703 151.064C76.1783 151.064 76.5423 150.972 76.8623 150.788C77.1903 150.596 77.4463 150.332 77.6303 149.996C77.8223 149.652 77.9183 149.26 77.9183 148.82C77.9183 148.38 77.8223 147.992 77.6303 147.656C77.4463 147.312 77.1903 147.048 76.8623 146.864C76.5423 146.68 76.1783 146.588 75.7703 146.588C75.3703 146.588 75.0063 146.684 74.6783 146.876C74.3583 147.06 74.1023 147.32 73.9103 147.656C73.7263 147.992 73.6343 148.38 73.6343 148.82C73.6343 149.26 73.7263 149.652 73.9103 149.996C74.0943 150.332 74.3503 150.596 74.6783 150.788C75.0063 150.972 75.3703 151.064 75.7703 151.064ZM82.9314 145.58C83.8114 145.58 84.4834 145.796 84.9474 146.228C85.4194 146.66 85.6554 147.304 85.6554 148.16V152H84.5634V151.16C84.3714 151.456 84.0954 151.684 83.7354 151.844C83.3834 151.996 82.9634 152.072 82.4754 152.072C81.7634 152.072 81.1914 151.9 80.7594 151.556C80.3354 151.212 80.1234 150.76 80.1234 150.2C80.1234 149.64 80.3274 149.192 80.7354 148.856C81.1434 148.512 81.7914 148.34 82.6794 148.34H84.5034V148.112C84.5034 147.616 84.3594 147.236 84.0714 146.972C83.7834 146.708 83.3594 146.576 82.7994 146.576C82.4234 146.576 82.0554 146.64 81.6954 146.768C81.3354 146.888 81.0314 147.052 80.7834 147.26L80.3034 146.396C80.6314 146.132 81.0234 145.932 81.4794 145.796C81.9354 145.652 82.4194 145.58 82.9314 145.58ZM82.6674 151.184C83.1074 151.184 83.4874 151.088 83.8074 150.896C84.1274 150.696 84.3594 150.416 84.5034 150.056V149.168H82.7274C81.7514 149.168 81.2634 149.496 81.2634 150.152C81.2634 150.472 81.3874 150.724 81.6354 150.908C81.8834 151.092 82.2274 151.184 82.6674 151.184ZM88.8913 146.708C89.0913 146.34 89.3873 146.06 89.7793 145.868C90.1713 145.676 90.6473 145.58 91.2073 145.58V146.696C91.1433 146.688 91.0553 146.684 90.9433 146.684C90.3193 146.684 89.8273 146.872 89.4673 147.248C89.1153 147.616 88.9393 148.144 88.9393 148.832V152H87.7873V145.64H88.8913V146.708ZM94.9314 145.58C95.8114 145.58 96.4834 145.796 96.9474 146.228C97.4194 146.66 97.6554 147.304 97.6554 148.16V152H96.5634V151.16C96.3714 151.456 96.0954 151.684 95.7354 151.844C95.3834 151.996 94.9634 152.072 94.4754 152.072C93.7634 152.072 93.1914 151.9 92.7594 151.556C92.3354 151.212 92.1234 150.76 92.1234 150.2C92.1234 149.64 92.3274 149.192 92.7354 148.856C93.1434 148.512 93.7914 148.34 94.6794 148.34H96.5034V148.112C96.5034 147.616 96.3594 147.236 96.0714 146.972C95.7834 146.708 95.3594 146.576 94.7994 146.576C94.4234 146.576 94.0554 146.64 93.6954 146.768C93.3354 146.888 93.0314 147.052 92.7834 147.26L92.3034 146.396C92.6314 146.132 93.0234 145.932 93.4794 145.796C93.9354 145.652 94.4194 145.58 94.9314 145.58ZM94.6674 151.184C95.1074 151.184 95.4874 151.088 95.8074 150.896C96.1274 150.696 96.3594 150.416 96.5034 150.056V149.168H94.7274C93.7514 149.168 93.2634 149.496 93.2634 150.152C93.2634 150.472 93.3874 150.724 93.6354 150.908C93.8834 151.092 94.2274 151.184 94.6674 151.184ZM109.01 143.096V152H107.906V150.992C107.65 151.344 107.326 151.612 106.934 151.796C106.542 151.98 106.11 152.072 105.638 152.072C105.022 152.072 104.47 151.936 103.982 151.664C103.494 151.392 103.11 151.012 102.83 150.524C102.558 150.028 102.422 149.46 102.422 148.82C102.422 148.18 102.558 147.616 102.83 147.128C103.11 146.64 103.494 146.26 103.982 145.988C104.47 145.716 105.022 145.58 105.638 145.58C106.094 145.58 106.514 145.668 106.898 145.844C107.282 146.012 107.602 146.264 107.858 146.6V143.096H109.01ZM105.734 151.064C106.134 151.064 106.498 150.972 106.826 150.788C107.154 150.596 107.41 150.332 107.594 149.996C107.778 149.652 107.87 149.26 107.87 148.82C107.87 148.38 107.778 147.992 107.594 147.656C107.41 147.312 107.154 147.048 106.826 146.864C106.498 146.68 106.134 146.588 105.734 146.588C105.326 146.588 104.958 146.68 104.63 146.864C104.31 147.048 104.054 147.312 103.862 147.656C103.678 147.992 103.586 148.38 103.586 148.82C103.586 149.26 103.678 149.652 103.862 149.996C104.054 150.332 104.31 150.596 104.63 150.788C104.958 150.972 105.326 151.064 105.734 151.064ZM116.938 148.856C116.938 148.944 116.93 149.06 116.914 149.204H111.754C111.826 149.764 112.07 150.216 112.486 150.56C112.91 150.896 113.434 151.064 114.058 151.064C114.818 151.064 115.43 150.808 115.894 150.296L116.53 151.04C116.242 151.376 115.882 151.632 115.45 151.808C115.026 151.984 114.55 152.072 114.022 152.072C113.35 152.072 112.754 151.936 112.234 151.664C111.714 151.384 111.31 150.996 111.022 150.5C110.742 150.004 110.602 149.444 110.602 148.82C110.602 148.204 110.738 147.648 111.01 147.152C111.29 146.656 111.67 146.272 112.15 146C112.638 145.72 113.186 145.58 113.794 145.58C114.402 145.58 114.942 145.72 115.414 146C115.894 146.272 116.266 146.656 116.53 147.152C116.802 147.648 116.938 148.216 116.938 148.856ZM113.794 146.552C113.242 146.552 112.778 146.72 112.402 147.056C112.034 147.392 111.818 147.832 111.754 148.376H115.834C115.77 147.84 115.55 147.404 115.174 147.068C114.806 146.724 114.346 146.552 113.794 146.552ZM120.865 143.972C120.177 143.972 119.833 144.344 119.833 145.088V145.64H121.681V146.588H119.857V152H118.705V146.588H117.625V145.64H118.705V145.076C118.705 144.444 118.889 143.944 119.257 143.576C119.625 143.208 120.141 143.024 120.805 143.024C121.061 143.024 121.301 143.056 121.525 143.12C121.749 143.184 121.941 143.276 122.101 143.396L121.753 144.272C121.489 144.072 121.193 143.972 120.865 143.972ZM123.733 145.64H124.885V152H123.733V145.64ZM124.309 144.416C124.085 144.416 123.897 144.344 123.745 144.2C123.601 144.056 123.529 143.88 123.529 143.672C123.529 143.464 123.601 143.288 123.745 143.144C123.897 142.992 124.085 142.916 124.309 142.916C124.533 142.916 124.717 142.988 124.861 143.132C125.013 143.268 125.089 143.44 125.089 143.648C125.089 143.864 125.013 144.048 124.861 144.2C124.717 144.344 124.533 144.416 124.309 144.416ZM130.476 145.58C131.284 145.58 131.924 145.816 132.396 146.288C132.876 146.752 133.116 147.436 133.116 148.34V152H131.964V148.472C131.964 147.856 131.816 147.392 131.52 147.08C131.224 146.768 130.8 146.612 130.248 146.612C129.624 146.612 129.132 146.796 128.772 147.164C128.412 147.524 128.232 148.044 128.232 148.724V152H127.08V145.64H128.184V146.6C128.416 146.272 128.728 146.02 129.12 145.844C129.52 145.668 129.972 145.58 130.476 145.58ZM135.248 145.64H136.4V152H135.248V145.64ZM135.824 144.416C135.6 144.416 135.412 144.344 135.26 144.2C135.116 144.056 135.044 143.88 135.044 143.672C135.044 143.464 135.116 143.288 135.26 143.144C135.412 142.992 135.6 142.916 135.824 142.916C136.048 142.916 136.232 142.988 136.376 143.132C136.528 143.268 136.604 143.44 136.604 143.648C136.604 143.864 136.528 144.048 136.376 144.2C136.232 144.344 136.048 144.416 135.824 144.416ZM139.704 146.708C139.904 146.34 140.2 146.06 140.592 145.868C140.984 145.676 141.46 145.58 142.02 145.58V146.696C141.956 146.688 141.868 146.684 141.756 146.684C141.132 146.684 140.64 146.872 140.28 147.248C139.928 147.616 139.752 148.144 139.752 148.832V152H138.6V145.64H139.704V146.708ZM146.744 143.096H147.896V152H146.744V143.096ZM152.412 145.58C153.292 145.58 153.964 145.796 154.428 146.228C154.9 146.66 155.136 147.304 155.136 148.16V152H154.044V151.16C153.852 151.456 153.576 151.684 153.216 151.844C152.864 151.996 152.444 152.072 151.956 152.072C151.244 152.072 150.672 151.9 150.24 151.556C149.816 151.212 149.604 150.76 149.604 150.2C149.604 149.64 149.808 149.192 150.216 148.856C150.624 148.512 151.272 148.34 152.16 148.34H153.984V148.112C153.984 147.616 153.84 147.236 153.552 146.972C153.264 146.708 152.84 146.576 152.28 146.576C151.904 146.576 151.536 146.64 151.176 146.768C150.816 146.888 150.512 147.052 150.264 147.26L149.784 146.396C150.112 146.132 150.504 145.932 150.96 145.796C151.416 145.652 151.9 145.58 152.412 145.58ZM152.148 151.184C152.588 151.184 152.968 151.088 153.288 150.896C153.608 150.696 153.84 150.416 153.984 150.056V149.168H152.208C151.232 149.168 150.744 149.496 150.744 150.152C150.744 150.472 150.868 150.724 151.116 150.908C151.364 151.092 151.708 151.184 152.148 151.184ZM37.504 158.972C36.816 158.972 36.472 159.344 36.472 160.088V160.64H38.32V161.588H36.496V167H35.344V161.588H34.264V160.64H35.344V160.076C35.344 159.444 35.528 158.944 35.896 158.576C36.264 158.208 36.78 158.024 37.444 158.024C37.7 158.024 37.94 158.056 38.164 158.12C38.388 158.184 38.58 158.276 38.74 158.396L38.392 159.272C38.128 159.072 37.832 158.972 37.504 158.972ZM42.0367 167.072C41.4047 167.072 40.8367 166.932 40.3327 166.652C39.8287 166.372 39.4327 165.988 39.1447 165.5C38.8647 165.004 38.7247 164.444 38.7247 163.82C38.7247 163.196 38.8647 162.64 39.1447 162.152C39.4327 161.656 39.8287 161.272 40.3327 161C40.8367 160.72 41.4047 160.58 42.0367 160.58C42.6687 160.58 43.2327 160.72 43.7287 161C44.2327 161.272 44.6247 161.656 44.9047 162.152C45.1927 162.64 45.3367 163.196 45.3367 163.82C45.3367 164.444 45.1927 165.004 44.9047 165.5C44.6247 165.988 44.2327 166.372 43.7287 166.652C43.2327 166.932 42.6687 167.072 42.0367 167.072ZM42.0367 166.064C42.4447 166.064 42.8087 165.972 43.1287 165.788C43.4567 165.596 43.7127 165.332 43.8967 164.996C44.0807 164.652 44.1727 164.26 44.1727 163.82C44.1727 163.38 44.0807 162.992 43.8967 162.656C43.7127 162.312 43.4567 162.048 43.1287 161.864C42.8087 161.68 42.4447 161.588 42.0367 161.588C41.6287 161.588 41.2607 161.68 40.9327 161.864C40.6127 162.048 40.3567 162.312 40.1647 162.656C39.9807 162.992 39.8887 163.38 39.8887 163.82C39.8887 164.26 39.9807 164.652 40.1647 164.996C40.3567 165.332 40.6127 165.596 40.9327 165.788C41.2607 165.972 41.6287 166.064 42.0367 166.064ZM48.0339 161.708C48.2339 161.34 48.5299 161.06 48.9219 160.868C49.3139 160.676 49.7899 160.58 50.3499 160.58V161.696C50.2859 161.688 50.1979 161.684 50.0859 161.684C49.4619 161.684 48.9699 161.872 48.6099 162.248C48.2579 162.616 48.0819 163.144 48.0819 163.832V167H46.9299V160.64H48.0339V161.708ZM59.7257 160.58C60.5257 160.58 61.1577 160.812 61.6217 161.276C62.0937 161.74 62.3297 162.428 62.3297 163.34V167H61.1777V163.472C61.1777 162.856 61.0337 162.392 60.7457 162.08C60.4657 161.768 60.0617 161.612 59.5337 161.612C58.9497 161.612 58.4857 161.796 58.1417 162.164C57.7977 162.524 57.6257 163.044 57.6257 163.724V167H56.4737V163.472C56.4737 162.856 56.3297 162.392 56.0417 162.08C55.7617 161.768 55.3577 161.612 54.8297 161.612C54.2457 161.612 53.7817 161.796 53.4377 162.164C53.0937 162.524 52.9217 163.044 52.9217 163.724V167H51.7697V160.64H52.8737V161.588C53.1057 161.26 53.4097 161.012 53.7857 160.844C54.1617 160.668 54.5897 160.58 55.0697 160.58C55.5657 160.58 56.0057 160.68 56.3897 160.88C56.7737 161.08 57.0697 161.372 57.2777 161.756C57.5177 161.388 57.8497 161.1 58.2737 160.892C58.7057 160.684 59.1897 160.58 59.7257 160.58ZM66.7654 160.58C67.6454 160.58 68.3174 160.796 68.7814 161.228C69.2534 161.66 69.4894 162.304 69.4894 163.16V167H68.3974V166.16C68.2054 166.456 67.9294 166.684 67.5694 166.844C67.2174 166.996 66.7974 167.072 66.3094 167.072C65.5974 167.072 65.0254 166.9 64.5934 166.556C64.1694 166.212 63.9574 165.76 63.9574 165.2C63.9574 164.64 64.1614 164.192 64.5694 163.856C64.9774 163.512 65.6254 163.34 66.5134 163.34H68.3374V163.112C68.3374 162.616 68.1934 162.236 67.9054 161.972C67.6174 161.708 67.1934 161.576 66.6334 161.576C66.2574 161.576 65.8894 161.64 65.5294 161.768C65.1694 161.888 64.8654 162.052 64.6174 162.26L64.1374 161.396C64.4654 161.132 64.8574 160.932 65.3134 160.796C65.7694 160.652 66.2534 160.58 66.7654 160.58ZM66.5014 166.184C66.9414 166.184 67.3214 166.088 67.6414 165.896C67.9614 165.696 68.1934 165.416 68.3374 165.056V164.168H66.5614C65.5854 164.168 65.0974 164.496 65.0974 165.152C65.0974 165.472 65.2214 165.724 65.4694 165.908C65.7174 166.092 66.0614 166.184 66.5014 166.184ZM80.844 158.096V167H79.74V165.992C79.484 166.344 79.16 166.612 78.768 166.796C78.376 166.98 77.944 167.072 77.472 167.072C76.856 167.072 76.304 166.936 75.816 166.664C75.328 166.392 74.944 166.012 74.664 165.524C74.392 165.028 74.256 164.46 74.256 163.82C74.256 163.18 74.392 162.616 74.664 162.128C74.944 161.64 75.328 161.26 75.816 160.988C76.304 160.716 76.856 160.58 77.472 160.58C77.928 160.58 78.348 160.668 78.732 160.844C79.116 161.012 79.436 161.264 79.692 161.6V158.096H80.844ZM77.568 166.064C77.968 166.064 78.332 165.972 78.66 165.788C78.988 165.596 79.244 165.332 79.428 164.996C79.612 164.652 79.704 164.26 79.704 163.82C79.704 163.38 79.612 162.992 79.428 162.656C79.244 162.312 78.988 162.048 78.66 161.864C78.332 161.68 77.968 161.588 77.568 161.588C77.16 161.588 76.792 161.68 76.464 161.864C76.144 162.048 75.888 162.312 75.696 162.656C75.512 162.992 75.42 163.38 75.42 163.82C75.42 164.26 75.512 164.652 75.696 164.996C75.888 165.332 76.144 165.596 76.464 165.788C76.792 165.972 77.16 166.064 77.568 166.064ZM88.7716 163.856C88.7716 163.944 88.7636 164.06 88.7476 164.204H83.5876C83.6596 164.764 83.9036 165.216 84.3196 165.56C84.7436 165.896 85.2676 166.064 85.8916 166.064C86.6516 166.064 87.2636 165.808 87.7276 165.296L88.3636 166.04C88.0756 166.376 87.7156 166.632 87.2836 166.808C86.8596 166.984 86.3836 167.072 85.8556 167.072C85.1836 167.072 84.5876 166.936 84.0676 166.664C83.5476 166.384 83.1436 165.996 82.8556 165.5C82.5756 165.004 82.4356 164.444 82.4356 163.82C82.4356 163.204 82.5716 162.648 82.8436 162.152C83.1236 161.656 83.5036 161.272 83.9836 161C84.4716 160.72 85.0196 160.58 85.6276 160.58C86.2356 160.58 86.7756 160.72 87.2476 161C87.7276 161.272 88.0996 161.656 88.3636 162.152C88.6356 162.648 88.7716 163.216 88.7716 163.856ZM85.6276 161.552C85.0756 161.552 84.6116 161.72 84.2356 162.056C83.8676 162.392 83.6516 162.832 83.5876 163.376H87.6676C87.6036 162.84 87.3836 162.404 87.0076 162.068C86.6396 161.724 86.1796 161.552 85.6276 161.552ZM93.594 158.096H94.746V167H93.594V158.096ZM99.2615 160.58C100.142 160.58 100.814 160.796 101.278 161.228C101.75 161.66 101.986 162.304 101.986 163.16V167H100.894V166.16C100.702 166.456 100.426 166.684 100.066 166.844C99.7135 166.996 99.2935 167.072 98.8055 167.072C98.0935 167.072 97.5215 166.9 97.0895 166.556C96.6655 166.212 96.4535 165.76 96.4535 165.2C96.4535 164.64 96.6575 164.192 97.0655 163.856C97.4735 163.512 98.1215 163.34 99.0095 163.34H100.834V163.112C100.834 162.616 100.69 162.236 100.402 161.972C100.114 161.708 99.6895 161.576 99.1295 161.576C98.7535 161.576 98.3855 161.64 98.0255 161.768C97.6655 161.888 97.3615 162.052 97.1135 162.26L96.6335 161.396C96.9615 161.132 97.3535 160.932 97.8095 160.796C98.2655 160.652 98.7495 160.58 99.2615 160.58ZM98.9975 166.184C99.4375 166.184 99.8175 166.088 100.138 165.896C100.458 165.696 100.69 165.416 100.834 165.056V164.168H99.0575C98.0815 164.168 97.5935 164.496 97.5935 165.152C97.5935 165.472 97.7175 165.724 97.9655 165.908C98.2135 166.092 98.5575 166.184 98.9975 166.184ZM109.668 158.972C108.98 158.972 108.636 159.344 108.636 160.088V160.64H110.484V161.588H108.66V167H107.508V161.588H106.428V160.64H107.508V160.076C107.508 159.444 107.692 158.944 108.06 158.576C108.428 158.208 108.944 158.024 109.608 158.024C109.864 158.024 110.104 158.056 110.328 158.12C110.552 158.184 110.744 158.276 110.904 158.396L110.556 159.272C110.292 159.072 109.996 158.972 109.668 158.972ZM112.536 160.64H113.688V167H112.536V160.64ZM113.112 159.416C112.888 159.416 112.7 159.344 112.548 159.2C112.404 159.056 112.332 158.88 112.332 158.672C112.332 158.464 112.404 158.288 112.548 158.144C112.7 157.992 112.888 157.916 113.112 157.916C113.336 157.916 113.52 157.988 113.664 158.132C113.816 158.268 113.892 158.44 113.892 158.648C113.892 158.864 113.816 159.048 113.664 159.2C113.52 159.344 113.336 159.416 113.112 159.416ZM121.967 160.64V166.136C121.967 167.248 121.691 168.068 121.139 168.596C120.587 169.132 119.763 169.4 118.667 169.4C118.067 169.4 117.495 169.316 116.951 169.148C116.407 168.988 115.967 168.756 115.631 168.452L116.183 167.564C116.479 167.82 116.843 168.02 117.275 168.164C117.715 168.316 118.167 168.392 118.631 168.392C119.375 168.392 119.923 168.216 120.275 167.864C120.635 167.512 120.815 166.976 120.815 166.256V165.752C120.543 166.08 120.207 166.328 119.807 166.496C119.415 166.656 118.987 166.736 118.523 166.736C117.915 166.736 117.363 166.608 116.867 166.352C116.379 166.088 115.995 165.724 115.715 165.26C115.435 164.788 115.295 164.252 115.295 163.652C115.295 163.052 115.435 162.52 115.715 162.056C115.995 161.584 116.379 161.22 116.867 160.964C117.363 160.708 117.915 160.58 118.523 160.58C119.003 160.58 119.447 160.668 119.855 160.844C120.271 161.02 120.611 161.28 120.875 161.624V160.64H121.967ZM118.655 165.728C119.071 165.728 119.443 165.64 119.771 165.464C120.107 165.288 120.367 165.044 120.551 164.732C120.743 164.412 120.839 164.052 120.839 163.652C120.839 163.036 120.635 162.54 120.227 162.164C119.819 161.78 119.295 161.588 118.655 161.588C118.007 161.588 117.479 161.78 117.071 162.164C116.663 162.54 116.459 163.036 116.459 163.652C116.459 164.052 116.551 164.412 116.735 164.732C116.927 165.044 117.187 165.288 117.515 165.464C117.851 165.64 118.231 165.728 118.655 165.728ZM130.096 160.64V167H129.004V166.04C128.772 166.368 128.464 166.624 128.08 166.808C127.704 166.984 127.292 167.072 126.844 167.072C125.996 167.072 125.328 166.84 124.84 166.376C124.352 165.904 124.108 165.212 124.108 164.3V160.64H125.26V164.168C125.26 164.784 125.408 165.252 125.704 165.572C126 165.884 126.424 166.04 126.976 166.04C127.584 166.04 128.064 165.856 128.416 165.488C128.768 165.12 128.944 164.6 128.944 163.928V160.64H130.096ZM133.393 161.708C133.593 161.34 133.889 161.06 134.281 160.868C134.673 160.676 135.149 160.58 135.709 160.58V161.696C135.645 161.688 135.557 161.684 135.445 161.684C134.821 161.684 134.329 161.872 133.969 162.248C133.617 162.616 133.441 163.144 133.441 163.832V167H132.289V160.64H133.393V161.708ZM139.433 160.58C140.313 160.58 140.985 160.796 141.449 161.228C141.921 161.66 142.157 162.304 142.157 163.16V167H141.065V166.16C140.873 166.456 140.597 166.684 140.237 166.844C139.885 166.996 139.465 167.072 138.977 167.072C138.265 167.072 137.693 166.9 137.261 166.556C136.837 166.212 136.625 165.76 136.625 165.2C136.625 164.64 136.829 164.192 137.237 163.856C137.645 163.512 138.293 163.34 139.181 163.34H141.005V163.112C141.005 162.616 140.861 162.236 140.573 161.972C140.285 161.708 139.861 161.576 139.301 161.576C138.925 161.576 138.557 161.64 138.197 161.768C137.837 161.888 137.533 162.052 137.285 162.26L136.805 161.396C137.133 161.132 137.525 160.932 137.981 160.796C138.437 160.652 138.921 160.58 139.433 160.58ZM139.169 166.184C139.609 166.184 139.989 166.088 140.309 165.896C140.629 165.696 140.861 165.416 141.005 165.056V164.168H139.229C138.253 164.168 137.765 164.496 137.765 165.152C137.765 165.472 137.889 165.724 138.137 165.908C138.385 166.092 138.729 166.184 139.169 166.184ZM144.565 167.072C144.341 167.072 144.149 166.996 143.989 166.844C143.829 166.684 143.749 166.484 143.749 166.244C143.749 166.012 143.829 165.82 143.989 165.668C144.149 165.508 144.341 165.428 144.565 165.428C144.789 165.428 144.977 165.504 145.129 165.656C145.281 165.808 145.357 166.004 145.357 166.244C145.357 166.484 145.277 166.684 145.117 166.844C144.965 166.996 144.781 167.072 144.565 167.072Z" fill="#008E86"/>
<path d="M51.3139 79.3935L63.1475 56.9672L48.8196 45.7541L71.2459 44.5082L78.1008 56.9672L76.2319 85L66.8877 92.4755L51.3139 79.3935Z" fill="#008E86" stroke="#00635D" stroke-width="2" stroke-linejoin="round"/>
<path d="M65.017 58.2132L70.0006 47.623L48.1973 45.7542L65.017 58.2132Z" fill="#00D8CC" stroke="#00635D" stroke-width="2" stroke-linejoin="round"/>
<path d="M55.6747 78.7707L70.0002 47.6231L78.0986 56.9674L76.2321 85.0002L55.6747 78.7707Z" fill="#008E86" stroke="#00635D" stroke-width="2" stroke-linejoin="round"/>
<path d="M50.0658 59.4592L65.0166 38.2788" stroke="#333333" stroke-width="2" stroke-dasharray="4 6"/>
<path d="M73.1545 20.5155C73.2597 19.9734 73.7846 19.6192 74.3267 19.7244C74.8689 19.8296 75.2231 20.3544 75.1179 20.8966L73.1545 20.5155ZM31.0884 39.1171C30.8617 38.6134 31.0862 38.0214 31.5899 37.7947L39.7967 34.1005C40.3004 33.8738 40.8924 34.0983 41.1191 34.602C41.3458 35.1056 41.1213 35.6976 40.6177 35.9243L33.3227 39.208L36.6064 46.503C36.8331 47.0066 36.6086 47.5987 36.105 47.8254C35.6013 48.0521 35.0093 47.8276 34.7826 47.3239L31.0884 39.1171ZM75.1179 20.8966C73.3118 30.2023 67.8135 36.9719 60.0201 40.354C52.2511 43.7256 42.3131 43.6865 31.6458 39.6416L32.3549 37.7716C42.6569 41.678 52.0405 41.6368 59.2239 38.5193C66.3829 35.4125 71.4678 29.2061 73.1545 20.5155L75.1179 20.8966Z" fill="black"/>
<path d="M70.6258 73.164L134.167 93.7215L75.6094 93.7214L70.6258 73.164Z" fill="#008E86" stroke="#00635D" stroke-width="2" stroke-linejoin="round"/>
<g clip-path="url(#clip2_5698_200176)">
<path d="M90.782 109.089L118.933 55.7396L98.6786 40.5915L101.891 27.3637L138.198 26.101L154.505 55.7396L150.059 122.426L127.83 140.21L90.782 109.089Z" fill="#008E86" stroke="#00635D" stroke-width="1.60526" stroke-linejoin="round"/>
<path d="M118.933 55.7397L98.6788 40.5916L101.891 27.3638L132.125 29.4472L118.933 55.7397Z" fill="#00D8CC" stroke="#00635D" stroke-width="1.60526" stroke-linejoin="round"/>
<path d="M118.932 55.7398L103.23 43.4933L109.651 31.4538L132.124 29.4473L118.932 55.7398Z" fill="#008E86" stroke="#00635D" stroke-width="1.60526" stroke-linejoin="round"/>
<path d="M123.378 58.7037L135.234 33.5109L109.3 31.288L103.372 43.8844L123.378 58.7037Z" fill="#00D8CC" stroke="#00635D" stroke-width="1.60526" stroke-linejoin="round"/>
<path d="M101.156 107.607L135.235 33.5108L154.5 55.7398L150.06 122.427L101.156 107.607Z" fill="#008E86" stroke="#00635D" stroke-width="1.60526" stroke-linejoin="round"/>
</g>
<rect x="94.6118" y="15.6118" width="58.7763" height="58.7763" rx="29.3882" stroke="#333333" stroke-width="1.22369"/>
<path d="M55.6746 78.7707L70.6255 73.164L94.2975 97.4592L66.8877 92.4756L55.6746 78.7707Z" fill="#008E86" stroke="#00635D" stroke-width="2" stroke-linejoin="round"/>
</g>
<defs>
<clipPath id="clip0_5698_200176">
<rect width="180" height="180" rx="20" fill="white"/>
</clipPath>
<clipPath id="clip1_5698_200176">
<path d="M0 30L-1.31134e-06 0L30 -1.31134e-06L30 10C30 21.0457 21.0457 30 10 30L0 30Z" fill="white"/>
</clipPath>
<clipPath id="clip2_5698_200176">
<rect x="94" y="15" width="60" height="60" rx="30" fill="white"/>
</clipPath>
</defs>
</svg>
