<svg width="180" height="180" viewBox="0 0 180 180" fill="none" xmlns="http://www.w3.org/2000/svg">
<g clip-path="url(#clip0_5717_200059)">
<rect width="180" height="180" rx="20" fill="#F2F2F2"/>

<path d="M22.4534 128.6H25.9934C26.8814 128.6 27.6694 128.776 28.3574 129.128C29.0454 129.48 29.5774 129.976 29.9534 130.616C30.3374 131.248 30.5294 131.976 30.5294 132.8C30.5294 133.624 30.3374 134.356 29.9534 134.996C29.5774 135.628 29.0454 136.12 28.3574 136.472C27.6694 136.824 26.8814 137 25.9934 137H22.4534V128.6ZM25.9214 135.956C26.6014 135.956 27.1974 135.824 27.7094 135.56C28.2294 135.296 28.6294 134.928 28.9094 134.456C29.1894 133.976 29.3294 133.424 29.3294 132.8C29.3294 132.176 29.1894 131.628 28.9094 131.156C28.6294 130.676 28.2294 130.304 27.7094 130.04C27.1974 129.776 26.6014 129.644 25.9214 129.644H23.6534V135.956H25.9214ZM34.9234 137.072C34.2914 137.072 33.7234 136.932 33.2194 136.652C32.7154 136.372 32.3194 135.988 32.0314 135.5C31.7514 135.004 31.6114 134.444 31.6114 133.82C31.6114 133.196 31.7514 132.64 32.0314 132.152C32.3194 131.656 32.7154 131.272 33.2194 131C33.7234 130.72 34.2914 130.58 34.9234 130.58C35.5554 130.58 36.1194 130.72 36.6154 131C37.1194 131.272 37.5114 131.656 37.7914 132.152C38.0794 132.64 38.2234 133.196 38.2234 133.82C38.2234 134.444 38.0794 135.004 37.7914 135.5C37.5114 135.988 37.1194 136.372 36.6154 136.652C36.1194 136.932 35.5554 137.072 34.9234 137.072ZM34.9234 136.064C35.3314 136.064 35.6954 135.972 36.0154 135.788C36.3434 135.596 36.5994 135.332 36.7834 134.996C36.9674 134.652 37.0594 134.26 37.0594 133.82C37.0594 133.38 36.9674 132.992 36.7834 132.656C36.5994 132.312 36.3434 132.048 36.0154 131.864C35.6954 131.68 35.3314 131.588 34.9234 131.588C34.5154 131.588 34.1474 131.68 33.8194 131.864C33.4994 132.048 33.2434 132.312 33.0514 132.656C32.8674 132.992 32.7754 133.38 32.7754 133.82C32.7754 134.26 32.8674 134.652 33.0514 134.996C33.2434 135.332 33.4994 135.596 33.8194 135.788C34.1474 135.972 34.5154 136.064 34.9234 136.064ZM43.1886 130.58C43.8046 130.58 44.3566 130.716 44.8446 130.988C45.3326 131.26 45.7126 131.64 45.9846 132.128C46.2646 132.616 46.4046 133.18 46.4046 133.82C46.4046 134.46 46.2646 135.028 45.9846 135.524C45.7126 136.012 45.3326 136.392 44.8446 136.664C44.3566 136.936 43.8046 137.072 43.1886 137.072C42.7166 137.072 42.2846 136.98 41.8926 136.796C41.5006 136.612 41.1766 136.344 40.9206 135.992V137H39.8166V128.096H40.9686V131.6C41.2246 131.264 41.5446 131.012 41.9286 130.844C42.3126 130.668 42.7326 130.58 43.1886 130.58ZM43.0926 136.064C43.5006 136.064 43.8646 135.972 44.1846 135.788C44.5126 135.596 44.7686 135.332 44.9526 134.996C45.1446 134.652 45.2406 134.26 45.2406 133.82C45.2406 133.38 45.1446 132.992 44.9526 132.656C44.7686 132.312 44.5126 132.048 44.1846 131.864C43.8646 131.68 43.5006 131.588 43.0926 131.588C42.6926 131.588 42.3286 131.68 42.0006 131.864C41.6726 132.048 41.4166 132.312 41.2326 132.656C41.0486 132.992 40.9566 133.38 40.9566 133.82C40.9566 134.26 41.0486 134.652 41.2326 134.996C41.4166 135.332 41.6726 135.596 42.0006 135.788C42.3286 135.972 42.6926 136.064 43.0926 136.064ZM47.9963 128.096H49.1483V137H47.9963V128.096ZM53.6639 130.58C54.5439 130.58 55.2159 130.796 55.6799 131.228C56.1519 131.66 56.3879 132.304 56.3879 133.16V137H55.2959V136.16C55.1039 136.456 54.8279 136.684 54.4679 136.844C54.1159 136.996 53.6959 137.072 53.2079 137.072C52.4959 137.072 51.9239 136.9 51.4919 136.556C51.0679 136.212 50.8559 135.76 50.8559 135.2C50.8559 134.64 51.0599 134.192 51.4679 133.856C51.8759 133.512 52.5239 133.34 53.4119 133.34H55.2359V133.112C55.2359 132.616 55.0919 132.236 54.8039 131.972C54.5159 131.708 54.0919 131.576 53.5319 131.576C53.1559 131.576 52.7879 131.64 52.4279 131.768C52.0679 131.888 51.7639 132.052 51.5159 132.26L51.0359 131.396C51.3639 131.132 51.7559 130.932 52.2119 130.796C52.6679 130.652 53.1519 130.58 53.6639 130.58ZM53.3999 136.184C53.8399 136.184 54.2199 136.088 54.5399 135.896C54.8599 135.696 55.0919 135.416 55.2359 135.056V134.168H53.4599C52.4839 134.168 51.9959 134.496 51.9959 135.152C51.9959 135.472 52.1199 135.724 52.3679 135.908C52.6159 136.092 52.9599 136.184 53.3999 136.184ZM67.7424 128.096V137H66.6384V135.992C66.3824 136.344 66.0584 136.612 65.6664 136.796C65.2744 136.98 64.8424 137.072 64.3704 137.072C63.7544 137.072 63.2024 136.936 62.7144 136.664C62.2264 136.392 61.8424 136.012 61.5624 135.524C61.2904 135.028 61.1544 134.46 61.1544 133.82C61.1544 133.18 61.2904 132.616 61.5624 132.128C61.8424 131.64 62.2264 131.26 62.7144 130.988C63.2024 130.716 63.7544 130.58 64.3704 130.58C64.8264 130.58 65.2464 130.668 65.6304 130.844C66.0144 131.012 66.3344 131.264 66.5904 131.6V128.096H67.7424ZM64.4664 136.064C64.8664 136.064 65.2304 135.972 65.5584 135.788C65.8864 135.596 66.1424 135.332 66.3264 134.996C66.5104 134.652 66.6024 134.26 66.6024 133.82C66.6024 133.38 66.5104 132.992 66.3264 132.656C66.1424 132.312 65.8864 132.048 65.5584 131.864C65.2304 131.68 64.8664 131.588 64.4664 131.588C64.0584 131.588 63.6904 131.68 63.3624 131.864C63.0424 132.048 62.7864 132.312 62.5944 132.656C62.4104 132.992 62.3184 133.38 62.3184 133.82C62.3184 134.26 62.4104 134.652 62.5944 134.996C62.7864 135.332 63.0424 135.596 63.3624 135.788C63.6904 135.972 64.0584 136.064 64.4664 136.064ZM72.6461 137.072C72.0141 137.072 71.4461 136.932 70.9421 136.652C70.4381 136.372 70.0421 135.988 69.7541 135.5C69.4741 135.004 69.3341 134.444 69.3341 133.82C69.3341 133.196 69.4741 132.64 69.7541 132.152C70.0421 131.656 70.4381 131.272 70.9421 131C71.4461 130.72 72.0141 130.58 72.6461 130.58C73.2781 130.58 73.8421 130.72 74.3381 131C74.8421 131.272 75.2341 131.656 75.5141 132.152C75.8021 132.64 75.9461 133.196 75.9461 133.82C75.9461 134.444 75.8021 135.004 75.5141 135.5C75.2341 135.988 74.8421 136.372 74.3381 136.652C73.8421 136.932 73.2781 137.072 72.6461 137.072ZM72.6461 136.064C73.0541 136.064 73.4181 135.972 73.7381 135.788C74.0661 135.596 74.3221 135.332 74.5061 134.996C74.6901 134.652 74.7821 134.26 74.7821 133.82C74.7821 133.38 74.6901 132.992 74.5061 132.656C74.3221 132.312 74.0661 132.048 73.7381 131.864C73.4181 131.68 73.0541 131.588 72.6461 131.588C72.2381 131.588 71.8701 131.68 71.5421 131.864C71.2221 132.048 70.9661 132.312 70.7741 132.656C70.5901 132.992 70.4981 133.38 70.4981 133.82C70.4981 134.26 70.5901 134.652 70.7741 134.996C70.9661 135.332 71.2221 135.596 71.5421 135.788C71.8701 135.972 72.2381 136.064 72.6461 136.064ZM79.3633 137.072C78.8433 137.072 78.3433 137.004 77.8633 136.868C77.3833 136.724 77.0073 136.544 76.7353 136.328L77.2153 135.416C77.4953 135.616 77.8353 135.776 78.2353 135.896C78.6353 136.016 79.0393 136.076 79.4473 136.076C80.4553 136.076 80.9593 135.788 80.9593 135.212C80.9593 135.02 80.8913 134.868 80.7553 134.756C80.6193 134.644 80.4473 134.564 80.2393 134.516C80.0393 134.46 79.7513 134.4 79.3753 134.336C78.8633 134.256 78.4433 134.164 78.1153 134.06C77.7953 133.956 77.5193 133.78 77.2873 133.532C77.0553 133.284 76.9393 132.936 76.9393 132.488C76.9393 131.912 77.1793 131.452 77.6593 131.108C78.1393 130.756 78.7833 130.58 79.5913 130.58C80.0153 130.58 80.4393 130.632 80.8633 130.736C81.2873 130.84 81.6353 130.98 81.9073 131.156L81.4153 132.068C80.8953 131.732 80.2833 131.564 79.5793 131.564C79.0913 131.564 78.7193 131.644 78.4633 131.804C78.2073 131.964 78.0793 132.176 78.0793 132.44C78.0793 132.648 78.1513 132.812 78.2953 132.932C78.4393 133.052 78.6153 133.14 78.8233 133.196C79.0393 133.252 79.3393 133.316 79.7233 133.388C80.2353 133.476 80.6473 133.572 80.9593 133.676C81.2793 133.772 81.5513 133.94 81.7753 134.18C81.9993 134.42 82.1113 134.756 82.1113 135.188C82.1113 135.764 81.8633 136.224 81.3673 136.568C80.8793 136.904 80.2113 137.072 79.3633 137.072ZM89.5456 137.072C88.8976 137.072 88.3176 136.932 87.8056 136.652C87.3016 136.372 86.9056 135.988 86.6176 135.5C86.3296 135.004 86.1856 134.444 86.1856 133.82C86.1856 133.196 86.3296 132.64 86.6176 132.152C86.9056 131.656 87.3016 131.272 87.8056 131C88.3176 130.72 88.8976 130.58 89.5456 130.58C90.1216 130.58 90.6336 130.696 91.0816 130.928C91.5376 131.16 91.8896 131.496 92.1376 131.936L91.2616 132.5C91.0616 132.196 90.8136 131.968 90.5176 131.816C90.2216 131.664 89.8936 131.588 89.5336 131.588C89.1176 131.588 88.7416 131.68 88.4056 131.864C88.0776 132.048 87.8176 132.312 87.6256 132.656C87.4416 132.992 87.3496 133.38 87.3496 133.82C87.3496 134.268 87.4416 134.664 87.6256 135.008C87.8176 135.344 88.0776 135.604 88.4056 135.788C88.7416 135.972 89.1176 136.064 89.5336 136.064C89.8936 136.064 90.2216 135.988 90.5176 135.836C90.8136 135.684 91.0616 135.456 91.2616 135.152L92.1376 135.704C91.8896 136.144 91.5376 136.484 91.0816 136.724C90.6336 136.956 90.1216 137.072 89.5456 137.072ZM96.2594 137.072C95.6274 137.072 95.0594 136.932 94.5554 136.652C94.0514 136.372 93.6554 135.988 93.3674 135.5C93.0874 135.004 92.9474 134.444 92.9474 133.82C92.9474 133.196 93.0874 132.64 93.3674 132.152C93.6554 131.656 94.0514 131.272 94.5554 131C95.0594 130.72 95.6274 130.58 96.2594 130.58C96.8914 130.58 97.4554 130.72 97.9514 131C98.4554 131.272 98.8474 131.656 99.1274 132.152C99.4154 132.64 99.5594 133.196 99.5594 133.82C99.5594 134.444 99.4154 135.004 99.1274 135.5C98.8474 135.988 98.4554 136.372 97.9514 136.652C97.4554 136.932 96.8914 137.072 96.2594 137.072ZM96.2594 136.064C96.6674 136.064 97.0314 135.972 97.3514 135.788C97.6794 135.596 97.9354 135.332 98.1194 134.996C98.3034 134.652 98.3954 134.26 98.3954 133.82C98.3954 133.38 98.3034 132.992 98.1194 132.656C97.9354 132.312 97.6794 132.048 97.3514 131.864C97.0314 131.68 96.6674 131.588 96.2594 131.588C95.8514 131.588 95.4834 131.68 95.1554 131.864C94.8354 132.048 94.5794 132.312 94.3874 132.656C94.2034 132.992 94.1114 133.38 94.1114 133.82C94.1114 134.26 94.2034 134.652 94.3874 134.996C94.5794 135.332 94.8354 135.596 95.1554 135.788C95.4834 135.972 95.8514 136.064 96.2594 136.064ZM102.977 137.072C102.457 137.072 101.957 137.004 101.477 136.868C100.997 136.724 100.621 136.544 100.349 136.328L100.829 135.416C101.109 135.616 101.449 135.776 101.849 135.896C102.249 136.016 102.653 136.076 103.061 136.076C104.069 136.076 104.573 135.788 104.573 135.212C104.573 135.02 104.505 134.868 104.369 134.756C104.233 134.644 104.061 134.564 103.853 134.516C103.653 134.46 103.365 134.4 102.989 134.336C102.477 134.256 102.057 134.164 101.729 134.06C101.409 133.956 101.133 133.78 100.901 133.532C100.669 133.284 100.553 132.936 100.553 132.488C100.553 131.912 100.793 131.452 101.273 131.108C101.753 130.756 102.397 130.58 103.205 130.58C103.629 130.58 104.053 130.632 104.477 130.736C104.901 130.84 105.249 130.98 105.521 131.156L105.029 132.068C104.509 131.732 103.897 131.564 103.193 131.564C102.705 131.564 102.333 131.644 102.077 131.804C101.821 131.964 101.693 132.176 101.693 132.44C101.693 132.648 101.765 132.812 101.909 132.932C102.053 133.052 102.229 133.14 102.437 133.196C102.653 133.252 102.953 133.316 103.337 133.388C103.849 133.476 104.261 133.572 104.573 133.676C104.893 133.772 105.165 133.94 105.389 134.18C105.613 134.42 105.725 134.756 105.725 135.188C105.725 135.764 105.477 136.224 104.981 136.568C104.493 136.904 103.825 137.072 102.977 137.072ZM110.74 136.628C110.572 136.772 110.364 136.884 110.116 136.964C109.868 137.036 109.612 137.072 109.348 137.072C108.708 137.072 108.212 136.9 107.86 136.556C107.508 136.212 107.332 135.72 107.332 135.08V131.588H106.252V130.64H107.332V129.248H108.484V130.64H110.308V131.588H108.484V135.032C108.484 135.376 108.568 135.64 108.736 135.824C108.912 136.008 109.16 136.1 109.48 136.1C109.832 136.1 110.132 136 110.38 135.8L110.74 136.628ZM114.449 130.58C115.329 130.58 116.001 130.796 116.465 131.228C116.937 131.66 117.173 132.304 117.173 133.16V137H116.081V136.16C115.889 136.456 115.613 136.684 115.253 136.844C114.901 136.996 114.481 137.072 113.993 137.072C113.281 137.072 112.709 136.9 112.277 136.556C111.853 136.212 111.641 135.76 111.641 135.2C111.641 134.64 111.845 134.192 112.253 133.856C112.661 133.512 113.309 133.34 114.197 133.34H116.021V133.112C116.021 132.616 115.877 132.236 115.589 131.972C115.301 131.708 114.877 131.576 114.317 131.576C113.941 131.576 113.573 131.64 113.213 131.768C112.853 131.888 112.549 132.052 112.301 132.26L111.821 131.396C112.149 131.132 112.541 130.932 112.997 130.796C113.453 130.652 113.937 130.58 114.449 130.58ZM114.185 136.184C114.625 136.184 115.005 136.088 115.325 135.896C115.645 135.696 115.877 135.416 116.021 135.056V134.168H114.245C113.269 134.168 112.781 134.496 112.781 135.152C112.781 135.472 112.905 135.724 113.153 135.908C113.401 136.092 113.745 136.184 114.185 136.184ZM125.34 128.096V137H124.236V135.992C123.98 136.344 123.656 136.612 123.264 136.796C122.872 136.98 122.44 137.072 121.968 137.072C121.352 137.072 120.8 136.936 120.312 136.664C119.824 136.392 119.44 136.012 119.16 135.524C118.888 135.028 118.752 134.46 118.752 133.82C118.752 133.18 118.888 132.616 119.16 132.128C119.44 131.64 119.824 131.26 120.312 130.988C120.8 130.716 121.352 130.58 121.968 130.58C122.424 130.58 122.844 130.668 123.228 130.844C123.612 131.012 123.932 131.264 124.188 131.6V128.096H125.34ZM122.064 136.064C122.464 136.064 122.828 135.972 123.156 135.788C123.484 135.596 123.74 135.332 123.924 134.996C124.108 134.652 124.2 134.26 124.2 133.82C124.2 133.38 124.108 132.992 123.924 132.656C123.74 132.312 123.484 132.048 123.156 131.864C122.828 131.68 122.464 131.588 122.064 131.588C121.656 131.588 121.288 131.68 120.96 131.864C120.64 132.048 120.384 132.312 120.192 132.656C120.008 132.992 119.916 133.38 119.916 133.82C119.916 134.26 120.008 134.652 120.192 134.996C120.384 135.332 120.64 135.596 120.96 135.788C121.288 135.972 121.656 136.064 122.064 136.064ZM130.244 137.072C129.612 137.072 129.044 136.932 128.54 136.652C128.036 136.372 127.64 135.988 127.352 135.5C127.072 135.004 126.932 134.444 126.932 133.82C126.932 133.196 127.072 132.64 127.352 132.152C127.64 131.656 128.036 131.272 128.54 131C129.044 130.72 129.612 130.58 130.244 130.58C130.876 130.58 131.44 130.72 131.936 131C132.44 131.272 132.832 131.656 133.112 132.152C133.4 132.64 133.544 133.196 133.544 133.82C133.544 134.444 133.4 135.004 133.112 135.5C132.832 135.988 132.44 136.372 131.936 136.652C131.44 136.932 130.876 137.072 130.244 137.072ZM130.244 136.064C130.652 136.064 131.016 135.972 131.336 135.788C131.664 135.596 131.92 135.332 132.104 134.996C132.288 134.652 132.38 134.26 132.38 133.82C132.38 133.38 132.288 132.992 132.104 132.656C131.92 132.312 131.664 132.048 131.336 131.864C131.016 131.68 130.652 131.588 130.244 131.588C129.836 131.588 129.468 131.68 129.14 131.864C128.82 132.048 128.564 132.312 128.372 132.656C128.188 132.992 128.096 133.38 128.096 133.82C128.096 134.26 128.188 134.652 128.372 134.996C128.564 135.332 128.82 135.596 129.14 135.788C129.468 135.972 129.836 136.064 130.244 136.064ZM136.961 137.072C136.441 137.072 135.941 137.004 135.461 136.868C134.981 136.724 134.605 136.544 134.333 136.328L134.813 135.416C135.093 135.616 135.433 135.776 135.833 135.896C136.233 136.016 136.637 136.076 137.045 136.076C138.053 136.076 138.557 135.788 138.557 135.212C138.557 135.02 138.489 134.868 138.353 134.756C138.217 134.644 138.045 134.564 137.837 134.516C137.637 134.46 137.349 134.4 136.973 134.336C136.461 134.256 136.041 134.164 135.713 134.06C135.393 133.956 135.117 133.78 134.885 133.532C134.653 133.284 134.537 132.936 134.537 132.488C134.537 131.912 134.777 131.452 135.257 131.108C135.737 130.756 136.381 130.58 137.189 130.58C137.613 130.58 138.037 130.632 138.461 130.736C138.885 130.84 139.233 130.98 139.505 131.156L139.013 132.068C138.493 131.732 137.881 131.564 137.177 131.564C136.689 131.564 136.317 131.644 136.061 131.804C135.805 131.964 135.677 132.176 135.677 132.44C135.677 132.648 135.749 132.812 135.893 132.932C136.037 133.052 136.213 133.14 136.421 133.196C136.637 133.252 136.937 133.316 137.321 133.388C137.833 133.476 138.245 133.572 138.557 133.676C138.877 133.772 139.149 133.94 139.373 134.18C139.597 134.42 139.709 134.756 139.709 135.188C139.709 135.764 139.461 136.224 138.965 136.568C138.477 136.904 137.809 137.072 136.961 137.072ZM150.371 128.096V137H149.267V135.992C149.011 136.344 148.687 136.612 148.295 136.796C147.903 136.98 147.471 137.072 146.999 137.072C146.383 137.072 145.831 136.936 145.343 136.664C144.855 136.392 144.471 136.012 144.191 135.524C143.919 135.028 143.783 134.46 143.783 133.82C143.783 133.18 143.919 132.616 144.191 132.128C144.471 131.64 144.855 131.26 145.343 130.988C145.831 130.716 146.383 130.58 146.999 130.58C147.455 130.58 147.875 130.668 148.259 130.844C148.643 131.012 148.963 131.264 149.219 131.6V128.096H150.371ZM147.095 136.064C147.495 136.064 147.859 135.972 148.187 135.788C148.515 135.596 148.771 135.332 148.955 134.996C149.139 134.652 149.231 134.26 149.231 133.82C149.231 133.38 149.139 132.992 148.955 132.656C148.771 132.312 148.515 132.048 148.187 131.864C147.859 131.68 147.495 131.588 147.095 131.588C146.687 131.588 146.319 131.68 145.991 131.864C145.671 132.048 145.415 132.312 145.223 132.656C145.039 132.992 144.947 133.38 144.947 133.82C144.947 134.26 145.039 134.652 145.223 134.996C145.415 135.332 145.671 135.596 145.991 135.788C146.319 135.972 146.687 136.064 147.095 136.064ZM158.299 133.856C158.299 133.944 158.291 134.06 158.275 134.204H153.115C153.187 134.764 153.431 135.216 153.847 135.56C154.271 135.896 154.795 136.064 155.419 136.064C156.179 136.064 156.791 135.808 157.255 135.296L157.891 136.04C157.603 136.376 157.243 136.632 156.811 136.808C156.387 136.984 155.911 137.072 155.383 137.072C154.711 137.072 154.115 136.936 153.595 136.664C153.075 136.384 152.671 135.996 152.383 135.5C152.103 135.004 151.963 134.444 151.963 133.82C151.963 133.204 152.099 132.648 152.371 132.152C152.651 131.656 153.031 131.272 153.511 131C153.999 130.72 154.547 130.58 155.155 130.58C155.763 130.58 156.303 130.72 156.775 131C157.255 131.272 157.627 131.656 157.891 132.152C158.163 132.648 158.299 133.216 158.299 133.856ZM155.155 131.552C154.603 131.552 154.139 131.72 153.763 132.056C153.395 132.392 153.179 132.832 153.115 133.376H157.195C157.131 132.84 156.911 132.404 156.535 132.068C156.167 131.724 155.707 131.552 155.155 131.552ZM23.3459 143.096H24.4979V152H23.3459V143.096ZM29.0135 145.58C29.8935 145.58 30.5655 145.796 31.0295 146.228C31.5015 146.66 31.7375 147.304 31.7375 148.16V152H30.6455V151.16C30.4535 151.456 30.1775 151.684 29.8175 151.844C29.4655 151.996 29.0455 152.072 28.5575 152.072C27.8455 152.072 27.2735 151.9 26.8415 151.556C26.4175 151.212 26.2055 150.76 26.2055 150.2C26.2055 149.64 26.4095 149.192 26.8175 148.856C27.2255 148.512 27.8735 148.34 28.7615 148.34H30.5855V148.112C30.5855 147.616 30.4415 147.236 30.1535 146.972C29.8655 146.708 29.4415 146.576 28.8815 146.576C28.5055 146.576 28.1375 146.64 27.7775 146.768C27.4175 146.888 27.1135 147.052 26.8655 147.26L26.3855 146.396C26.7135 146.132 27.1055 145.932 27.5615 145.796C28.0175 145.652 28.5015 145.58 29.0135 145.58ZM28.7495 151.184C29.1895 151.184 29.5695 151.088 29.8895 150.896C30.2095 150.696 30.4415 150.416 30.5855 150.056V149.168H28.8095C27.8335 149.168 27.3455 149.496 27.3455 150.152C27.3455 150.472 27.4695 150.724 27.7175 150.908C27.9655 151.092 28.3095 151.184 28.7495 151.184ZM40.488 145.58C41.296 145.58 41.936 145.816 42.408 146.288C42.888 146.752 43.128 147.436 43.128 148.34V152H41.976V148.472C41.976 147.856 41.828 147.392 41.532 147.08C41.236 146.768 40.812 146.612 40.26 146.612C39.636 146.612 39.144 146.796 38.784 147.164C38.424 147.524 38.244 148.044 38.244 148.724V152H37.092V143.096H38.244V146.54C38.484 146.236 38.796 146 39.18 145.832C39.572 145.664 40.008 145.58 40.488 145.58ZM48.0191 152.072C47.3871 152.072 46.8191 151.932 46.3151 151.652C45.8111 151.372 45.4151 150.988 45.1271 150.5C44.8471 150.004 44.7071 149.444 44.7071 148.82C44.7071 148.196 44.8471 147.64 45.1271 147.152C45.4151 146.656 45.8111 146.272 46.3151 146C46.8191 145.72 47.3871 145.58 48.0191 145.58C48.6511 145.58 49.2151 145.72 49.7111 146C50.2151 146.272 50.6071 146.656 50.8871 147.152C51.1751 147.64 51.3191 148.196 51.3191 148.82C51.3191 149.444 51.1751 150.004 50.8871 150.5C50.6071 150.988 50.2151 151.372 49.7111 151.652C49.2151 151.932 48.6511 152.072 48.0191 152.072ZM48.0191 151.064C48.4271 151.064 48.7911 150.972 49.1111 150.788C49.4391 150.596 49.6951 150.332 49.8791 149.996C50.0631 149.652 50.1551 149.26 50.1551 148.82C50.1551 148.38 50.0631 147.992 49.8791 147.656C49.6951 147.312 49.4391 147.048 49.1111 146.864C48.7911 146.68 48.4271 146.588 48.0191 146.588C47.6111 146.588 47.2431 146.68 46.9151 146.864C46.5951 147.048 46.3391 147.312 46.1471 147.656C45.9631 147.992 45.8711 148.38 45.8711 148.82C45.8711 149.26 45.9631 149.652 46.1471 149.996C46.3391 150.332 46.5951 150.596 46.9151 150.788C47.2431 150.972 47.6111 151.064 48.0191 151.064ZM52.0963 154.4C51.8163 154.4 51.5563 154.368 51.3163 154.304C51.0763 154.24 50.8763 154.144 50.7163 154.016L51.0883 153.128C51.3283 153.328 51.6403 153.428 52.0243 153.428C52.3283 153.428 52.5603 153.332 52.7203 153.14C52.8883 152.956 52.9723 152.68 52.9723 152.312V145.64H54.1243V152.288C54.1243 152.944 53.9483 153.46 53.5963 153.836C53.2443 154.212 52.7443 154.4 52.0963 154.4ZM53.5483 144.416C53.3243 144.416 53.1363 144.344 52.9843 144.2C52.8403 144.056 52.7683 143.88 52.7683 143.672C52.7683 143.464 52.8403 143.288 52.9843 143.144C53.1363 142.992 53.3243 142.916 53.5483 142.916C53.7723 142.916 53.9563 142.988 54.1003 143.132C54.2523 143.268 54.3283 143.44 54.3283 143.648C54.3283 143.864 54.2523 144.048 54.1003 144.2C53.9563 144.344 53.7723 144.416 53.5483 144.416ZM58.6385 145.58C59.5185 145.58 60.1905 145.796 60.6545 146.228C61.1265 146.66 61.3625 147.304 61.3625 148.16V152H60.2705V151.16C60.0785 151.456 59.8025 151.684 59.4425 151.844C59.0905 151.996 58.6705 152.072 58.1825 152.072C57.4705 152.072 56.8985 151.9 56.4665 151.556C56.0425 151.212 55.8305 150.76 55.8305 150.2C55.8305 149.64 56.0345 149.192 56.4425 148.856C56.8505 148.512 57.4985 148.34 58.3865 148.34H60.2105V148.112C60.2105 147.616 60.0665 147.236 59.7785 146.972C59.4905 146.708 59.0665 146.576 58.5065 146.576C58.1305 146.576 57.7625 146.64 57.4025 146.768C57.0425 146.888 56.7385 147.052 56.4905 147.26L56.0105 146.396C56.3385 146.132 56.7305 145.932 57.1865 145.796C57.6425 145.652 58.1265 145.58 58.6385 145.58ZM58.3745 151.184C58.8145 151.184 59.1945 151.088 59.5145 150.896C59.8345 150.696 60.0665 150.416 60.2105 150.056V149.168H58.4345C57.4585 149.168 56.9705 149.496 56.9705 150.152C56.9705 150.472 57.0945 150.724 57.3425 150.908C57.5905 151.092 57.9345 151.184 58.3745 151.184ZM70.113 145.58C70.921 145.58 71.561 145.816 72.033 146.288C72.513 146.752 72.753 147.436 72.753 148.34V152H71.601V148.472C71.601 147.856 71.453 147.392 71.157 147.08C70.861 146.768 70.437 146.612 69.885 146.612C69.261 146.612 68.769 146.796 68.409 147.164C68.049 147.524 67.869 148.044 67.869 148.724V152H66.717V143.096H67.869V146.54C68.109 146.236 68.421 146 68.805 145.832C69.197 145.664 69.633 145.58 70.113 145.58ZM77.201 145.58C78.081 145.58 78.753 145.796 79.217 146.228C79.689 146.66 79.925 147.304 79.925 148.16V152H78.833V151.16C78.641 151.456 78.365 151.684 78.005 151.844C77.653 151.996 77.233 152.072 76.745 152.072C76.033 152.072 75.461 151.9 75.029 151.556C74.605 151.212 74.393 150.76 74.393 150.2C74.393 149.64 74.597 149.192 75.005 148.856C75.413 148.512 76.061 148.34 76.949 148.34H78.773V148.112C78.773 147.616 78.629 147.236 78.341 146.972C78.053 146.708 77.629 146.576 77.069 146.576C76.693 146.576 76.325 146.64 75.965 146.768C75.605 146.888 75.301 147.052 75.053 147.26L74.573 146.396C74.901 146.132 75.293 145.932 75.749 145.796C76.205 145.652 76.689 145.58 77.201 145.58ZM76.937 151.184C77.377 151.184 77.757 151.088 78.077 150.896C78.397 150.696 78.629 150.416 78.773 150.056V149.168H76.997C76.021 149.168 75.533 149.496 75.533 150.152C75.533 150.472 75.657 150.724 75.905 150.908C76.153 151.092 76.497 151.184 76.937 151.184ZM84.864 152.072C84.216 152.072 83.636 151.932 83.124 151.652C82.62 151.372 82.224 150.988 81.936 150.5C81.648 150.004 81.504 149.444 81.504 148.82C81.504 148.196 81.648 147.64 81.936 147.152C82.224 146.656 82.62 146.272 83.124 146C83.636 145.72 84.216 145.58 84.864 145.58C85.44 145.58 85.952 145.696 86.4 145.928C86.856 146.16 87.208 146.496 87.456 146.936L86.58 147.5C86.38 147.196 86.132 146.968 85.836 146.816C85.54 146.664 85.212 146.588 84.852 146.588C84.436 146.588 84.06 146.68 83.724 146.864C83.396 147.048 83.136 147.312 82.944 147.656C82.76 147.992 82.668 148.38 82.668 148.82C82.668 149.268 82.76 149.664 82.944 150.008C83.136 150.344 83.396 150.604 83.724 150.788C84.06 150.972 84.436 151.064 84.852 151.064C85.212 151.064 85.54 150.988 85.836 150.836C86.132 150.684 86.38 150.456 86.58 150.152L87.456 150.704C87.208 151.144 86.856 151.484 86.4 151.724C85.952 151.956 85.44 152.072 84.864 152.072ZM88.9475 145.64H90.0995V152H88.9475V145.64ZM89.5235 144.416C89.2995 144.416 89.1115 144.344 88.9595 144.2C88.8155 144.056 88.7435 143.88 88.7435 143.672C88.7435 143.464 88.8155 143.288 88.9595 143.144C89.1115 142.992 89.2995 142.916 89.5235 142.916C89.7475 142.916 89.9315 142.988 90.0755 143.132C90.2275 143.268 90.3035 143.44 90.3035 143.648C90.3035 143.864 90.2275 144.048 90.0755 144.2C89.9315 144.344 89.7475 144.416 89.5235 144.416ZM94.615 145.58C95.495 145.58 96.167 145.796 96.631 146.228C97.103 146.66 97.339 147.304 97.339 148.16V152H96.247V151.16C96.055 151.456 95.779 151.684 95.419 151.844C95.067 151.996 94.647 152.072 94.159 152.072C93.447 152.072 92.875 151.9 92.443 151.556C92.019 151.212 91.807 150.76 91.807 150.2C91.807 149.64 92.011 149.192 92.419 148.856C92.827 148.512 93.475 148.34 94.363 148.34H96.187V148.112C96.187 147.616 96.043 147.236 95.755 146.972C95.467 146.708 95.043 146.576 94.483 146.576C94.107 146.576 93.739 146.64 93.379 146.768C93.019 146.888 92.715 147.052 92.467 147.26L91.987 146.396C92.315 146.132 92.707 145.932 93.163 145.796C93.619 145.652 94.103 145.58 94.615 145.58ZM94.351 151.184C94.791 151.184 95.171 151.088 95.491 150.896C95.811 150.696 96.043 150.416 96.187 150.056V149.168H94.411C93.435 149.168 92.947 149.496 92.947 150.152C92.947 150.472 93.071 150.724 93.319 150.908C93.567 151.092 93.911 151.184 94.351 151.184ZM108.442 148.856C108.442 148.944 108.434 149.06 108.418 149.204H103.258C103.33 149.764 103.574 150.216 103.99 150.56C104.414 150.896 104.938 151.064 105.562 151.064C106.322 151.064 106.934 150.808 107.398 150.296L108.034 151.04C107.746 151.376 107.386 151.632 106.954 151.808C106.53 151.984 106.054 152.072 105.526 152.072C104.854 152.072 104.258 151.936 103.738 151.664C103.218 151.384 102.814 150.996 102.526 150.5C102.246 150.004 102.106 149.444 102.106 148.82C102.106 148.204 102.242 147.648 102.514 147.152C102.794 146.656 103.174 146.272 103.654 146C104.142 145.72 104.69 145.58 105.298 145.58C105.906 145.58 106.446 145.72 106.918 146C107.398 146.272 107.77 146.656 108.034 147.152C108.306 147.648 108.442 148.216 108.442 148.856ZM105.298 146.552C104.746 146.552 104.282 146.72 103.906 147.056C103.538 147.392 103.322 147.832 103.258 148.376H107.338C107.274 147.84 107.054 147.404 106.678 147.068C106.31 146.724 105.85 146.552 105.298 146.552ZM110.041 143.096H111.193V152H110.041V143.096ZM119.387 152.072C118.739 152.072 118.159 151.932 117.647 151.652C117.143 151.372 116.747 150.988 116.459 150.5C116.171 150.004 116.027 149.444 116.027 148.82C116.027 148.196 116.171 147.64 116.459 147.152C116.747 146.656 117.143 146.272 117.647 146C118.159 145.72 118.739 145.58 119.387 145.58C119.963 145.58 120.475 145.696 120.923 145.928C121.379 146.16 121.731 146.496 121.979 146.936L121.103 147.5C120.903 147.196 120.655 146.968 120.359 146.816C120.063 146.664 119.735 146.588 119.375 146.588C118.959 146.588 118.583 146.68 118.247 146.864C117.919 147.048 117.659 147.312 117.467 147.656C117.283 147.992 117.191 148.38 117.191 148.82C117.191 149.268 117.283 149.664 117.467 150.008C117.659 150.344 117.919 150.604 118.247 150.788C118.583 150.972 118.959 151.064 119.375 151.064C119.735 151.064 120.063 150.988 120.359 150.836C120.655 150.684 120.903 150.456 121.103 150.152L121.979 150.704C121.731 151.144 121.379 151.484 120.923 151.724C120.475 151.956 119.963 152.072 119.387 152.072ZM129.125 148.856C129.125 148.944 129.117 149.06 129.101 149.204H123.941C124.013 149.764 124.257 150.216 124.673 150.56C125.097 150.896 125.621 151.064 126.245 151.064C127.005 151.064 127.617 150.808 128.081 150.296L128.717 151.04C128.429 151.376 128.069 151.632 127.637 151.808C127.213 151.984 126.737 152.072 126.209 152.072C125.537 152.072 124.941 151.936 124.421 151.664C123.901 151.384 123.497 150.996 123.209 150.5C122.929 150.004 122.789 149.444 122.789 148.82C122.789 148.204 122.925 147.648 123.197 147.152C123.477 146.656 123.857 146.272 124.337 146C124.825 145.72 125.373 145.58 125.981 145.58C126.589 145.58 127.129 145.72 127.601 146C128.081 146.272 128.453 146.656 128.717 147.152C128.989 147.648 129.125 148.216 129.125 148.856ZM125.981 146.552C125.429 146.552 124.965 146.72 124.589 147.056C124.221 147.392 124.005 147.832 123.941 148.376H128.021C127.957 147.84 127.737 147.404 127.361 147.068C126.993 146.724 126.533 146.552 125.981 146.552ZM134.121 145.58C134.929 145.58 135.569 145.816 136.041 146.288C136.521 146.752 136.761 147.436 136.761 148.34V152H135.609V148.472C135.609 147.856 135.461 147.392 135.165 147.08C134.869 146.768 134.445 146.612 133.893 146.612C133.269 146.612 132.777 146.796 132.417 147.164C132.057 147.524 131.877 148.044 131.877 148.724V152H130.725V145.64H131.829V146.6C132.061 146.272 132.373 146.02 132.765 145.844C133.165 145.668 133.617 145.58 134.121 145.58ZM142.469 151.628C142.301 151.772 142.093 151.884 141.845 151.964C141.597 152.036 141.341 152.072 141.077 152.072C140.437 152.072 139.941 151.9 139.589 151.556C139.237 151.212 139.061 150.72 139.061 150.08V146.588H137.981V145.64H139.061V144.248H140.213V145.64H142.037V146.588H140.213V150.032C140.213 150.376 140.297 150.64 140.465 150.824C140.641 151.008 140.889 151.1 141.209 151.1C141.561 151.1 141.861 151 142.109 150.8L142.469 151.628ZM144.966 146.708C145.166 146.34 145.462 146.06 145.854 145.868C146.246 145.676 146.722 145.58 147.282 145.58V146.696C147.218 146.688 147.13 146.684 147.018 146.684C146.394 146.684 145.902 146.872 145.542 147.248C145.19 147.616 145.014 148.144 145.014 148.832V152H143.862V145.64H144.966V146.708ZM151.367 152.072C150.735 152.072 150.167 151.932 149.663 151.652C149.159 151.372 148.763 150.988 148.475 150.5C148.195 150.004 148.055 149.444 148.055 148.82C148.055 148.196 148.195 147.64 148.475 147.152C148.763 146.656 149.159 146.272 149.663 146C150.167 145.72 150.735 145.58 151.367 145.58C151.999 145.58 152.563 145.72 153.059 146C153.563 146.272 153.955 146.656 154.235 147.152C154.523 147.64 154.667 148.196 154.667 148.82C154.667 149.444 154.523 150.004 154.235 150.5C153.955 150.988 153.563 151.372 153.059 151.652C152.563 151.932 151.999 152.072 151.367 152.072ZM151.367 151.064C151.775 151.064 152.139 150.972 152.459 150.788C152.787 150.596 153.043 150.332 153.227 149.996C153.411 149.652 153.503 149.26 153.503 148.82C153.503 148.38 153.411 147.992 153.227 147.656C153.043 147.312 152.787 147.048 152.459 146.864C152.139 146.68 151.775 146.588 151.367 146.588C150.959 146.588 150.591 146.68 150.263 146.864C149.943 147.048 149.687 147.312 149.495 147.656C149.311 147.992 149.219 148.38 149.219 148.82C149.219 149.26 149.311 149.652 149.495 149.996C149.687 150.332 149.943 150.596 150.263 150.788C150.591 150.972 150.959 151.064 151.367 151.064ZM156.395 152.072C156.171 152.072 155.979 151.996 155.819 151.844C155.659 151.684 155.579 151.484 155.579 151.244C155.579 151.012 155.659 150.82 155.819 150.668C155.979 150.508 156.171 150.428 156.395 150.428C156.619 150.428 156.807 150.504 156.959 150.656C157.111 150.808 157.187 151.004 157.187 151.244C157.187 151.484 157.107 151.684 156.947 151.844C156.795 151.996 156.611 152.072 156.395 152.072Z" fill="#008E86"/>
<rect x="45.9824" y="55" width="63.6396" height="63.6396" transform="rotate(-45 45.9824 55)" fill="#00D8CC" stroke="#00635D" stroke-width="2" stroke-linejoin="round"/>
<path d="M110.965 29.9998L45.969 55.2934" stroke="#333333" stroke-width="2" stroke-dasharray="4 6"/>
<path d="M110.966 79.9998L45.9702 55.2934" stroke="#333333" stroke-width="2" stroke-dasharray="4 6"/>
<path opacity="0.25" d="M135.982 55L45.9824 55" stroke="#333333" stroke-width="2"/>
<path d="M84.9377 20.3641C84.3856 20.3787 83.9499 20.8381 83.9645 21.3902C83.9791 21.9423 84.4386 22.378 84.9906 22.3634L84.9377 20.3641ZM112.523 50.3361C112.903 50.7369 113.536 50.7536 113.937 50.3736L120.467 44.1803C120.868 43.8003 120.884 43.1673 120.504 42.7666C120.124 42.3659 119.491 42.3491 119.091 42.7292L113.286 48.2343L107.781 42.4296C107.401 42.0289 106.768 42.0121 106.367 42.3922C105.966 42.7722 105.95 43.4052 106.33 43.8059L112.523 50.3361ZM84.9906 22.3634C93.2369 22.145 99.9352 25.0211 104.704 29.7898L106.118 28.3756C100.946 23.2034 93.7104 20.1317 84.9377 20.3641L84.9906 22.3634ZM104.704 29.7898C107.051 32.1366 108.985 35.6125 110.314 39.2897C111.641 42.9646 112.325 46.7371 112.249 49.6215L114.248 49.6745C114.333 46.4807 113.584 42.4558 112.195 38.6102C110.806 34.7669 108.742 30.9993 106.118 28.3756L104.704 29.7898Z" fill="black"/>
<path d="M113.937 59.2742C113.537 58.8942 112.904 58.9109 112.524 59.3117L106.331 65.8419C105.95 66.2426 105.967 66.8756 106.368 67.2556C106.769 67.6357 107.402 67.6189 107.782 67.2182L113.287 61.4135L119.091 66.9186C119.492 67.2987 120.125 67.2819 120.505 66.8812C120.885 66.4805 120.868 65.8475 120.468 65.4675L113.937 59.2742ZM84.9915 87.2844C84.4394 87.2698 83.98 87.7055 83.9654 88.2576C83.9508 88.8097 84.3865 89.2691 84.9386 89.2837L84.9915 87.2844ZM112.25 60.0263C112.468 68.2725 109.592 74.9709 104.823 79.7396L106.237 81.1538C111.41 75.9817 114.481 68.7461 114.249 59.9733L112.25 60.0263ZM104.823 79.7396C102.476 82.0864 99.0005 84.021 95.3234 85.3492C91.6485 86.6765 87.876 87.3608 84.9915 87.2844L84.9386 89.2837C88.1323 89.3683 92.1572 88.6192 96.0028 87.2302C99.8461 85.8421 103.614 83.7776 106.237 81.1538L104.823 79.7396Z" fill="black"/>
</g>
<defs>
<clipPath id="clip0_5717_200059">
<rect width="180" height="180" rx="20" fill="white"/>
</clipPath>
<clipPath id="clip1_5717_200059">
<path d="M0 30L-1.31134e-06 0L30 -1.31134e-06L30 10C30 21.0457 21.0457 30 10 30L0 30Z" fill="white"/>
</clipPath>
</defs>
</svg>
