<svg width="180" height="180" viewBox="0 0 180 180" fill="none" xmlns="http://www.w3.org/2000/svg">
<g clip-path="url(#clip0_5717_200092)">
<rect width="180" height="180" rx="20" fill="#F2F2F2"/>
<g clip-path="url(#clip1_5717_200092)">
<path d="M0 30L-1.31134e-06 0L30 -1.31134e-06L30 10C30 21.0457 21.0457 30 10 30L0 30Z" fill="#333333"/>
<path d="M14.7062 14.008C16.2849 14.008 17.4475 14.3227 18.1942 14.952C18.9515 15.5813 19.3302 16.424 19.3302 17.48C19.3302 18.1627 19.1595 18.7867 18.8182 19.352C18.4769 19.9067 17.9542 20.3547 17.2502 20.696C16.5569 21.0267 15.6982 21.192 14.6742 21.192C13.8849 21.192 13.1062 21.0907 12.3382 20.888C11.5809 20.6747 10.9355 20.376 10.4022 19.992L11.4262 18.008C11.8529 18.328 12.3435 18.5787 12.8982 18.76C13.4529 18.9307 14.0235 19.016 14.6102 19.016C15.2609 19.016 15.7729 18.888 16.1462 18.632C16.5195 18.376 16.7062 18.0187 16.7062 17.56C16.7062 17.08 16.5089 16.7173 16.1142 16.472C15.7302 16.2267 15.0582 16.104 14.0982 16.104H11.2342L11.8102 9.8H18.6422V11.88H13.9702L13.7942 14.008H14.7062Z" fill="#F2F2F2"/>
</g>
<path d="M46.1838 128.6H49.7238C50.6118 128.6 51.3998 128.776 52.0878 129.128C52.7758 129.48 53.3078 129.976 53.6838 130.616C54.0678 131.248 54.2598 131.976 54.2598 132.8C54.2598 133.624 54.0678 134.356 53.6838 134.996C53.3078 135.628 52.7758 136.12 52.0878 136.472C51.3998 136.824 50.6118 137 49.7238 137H46.1838V128.6ZM49.6518 135.956C50.3318 135.956 50.9278 135.824 51.4398 135.56C51.9598 135.296 52.3598 134.928 52.6398 134.456C52.9198 133.976 53.0598 133.424 53.0598 132.8C53.0598 132.176 52.9198 131.628 52.6398 131.156C52.3598 130.676 51.9598 130.304 51.4398 130.04C50.9278 129.776 50.3318 129.644 49.6518 129.644H47.3838V135.956H49.6518ZM58.6539 137.072C58.0219 137.072 57.4539 136.932 56.9499 136.652C56.4459 136.372 56.0499 135.988 55.7619 135.5C55.4819 135.004 55.3419 134.444 55.3419 133.82C55.3419 133.196 55.4819 132.64 55.7619 132.152C56.0499 131.656 56.4459 131.272 56.9499 131C57.4539 130.72 58.0219 130.58 58.6539 130.58C59.2859 130.58 59.8499 130.72 60.3459 131C60.8499 131.272 61.2419 131.656 61.5219 132.152C61.8099 132.64 61.9539 133.196 61.9539 133.82C61.9539 134.444 61.8099 135.004 61.5219 135.5C61.2419 135.988 60.8499 136.372 60.3459 136.652C59.8499 136.932 59.2859 137.072 58.6539 137.072ZM58.6539 136.064C59.0619 136.064 59.4259 135.972 59.7459 135.788C60.0739 135.596 60.3299 135.332 60.5139 134.996C60.6979 134.652 60.7899 134.26 60.7899 133.82C60.7899 133.38 60.6979 132.992 60.5139 132.656C60.3299 132.312 60.0739 132.048 59.7459 131.864C59.4259 131.68 59.0619 131.588 58.6539 131.588C58.2459 131.588 57.8779 131.68 57.5499 131.864C57.2299 132.048 56.9739 132.312 56.7819 132.656C56.5979 132.992 56.5059 133.38 56.5059 133.82C56.5059 134.26 56.5979 134.652 56.7819 134.996C56.9739 135.332 57.2299 135.596 57.5499 135.788C57.8779 135.972 58.2459 136.064 58.6539 136.064ZM66.9191 130.58C67.5351 130.58 68.0871 130.716 68.5751 130.988C69.0631 131.26 69.4431 131.64 69.7151 132.128C69.9951 132.616 70.1351 133.18 70.1351 133.82C70.1351 134.46 69.9951 135.028 69.7151 135.524C69.4431 136.012 69.0631 136.392 68.5751 136.664C68.0871 136.936 67.5351 137.072 66.9191 137.072C66.4471 137.072 66.0151 136.98 65.6231 136.796C65.2311 136.612 64.9071 136.344 64.6511 135.992V137H63.5471V128.096H64.6991V131.6C64.9551 131.264 65.2751 131.012 65.6591 130.844C66.0431 130.668 66.4631 130.58 66.9191 130.58ZM66.8231 136.064C67.2311 136.064 67.5951 135.972 67.9151 135.788C68.2431 135.596 68.4991 135.332 68.6831 134.996C68.8751 134.652 68.9711 134.26 68.9711 133.82C68.9711 133.38 68.8751 132.992 68.6831 132.656C68.4991 132.312 68.2431 132.048 67.9151 131.864C67.5951 131.68 67.2311 131.588 66.8231 131.588C66.4231 131.588 66.0591 131.68 65.7311 131.864C65.4031 132.048 65.1471 132.312 64.9631 132.656C64.7791 132.992 64.6871 133.38 64.6871 133.82C64.6871 134.26 64.7791 134.652 64.9631 134.996C65.1471 135.332 65.4031 135.596 65.7311 135.788C66.0591 135.972 66.4231 136.064 66.8231 136.064ZM71.7268 128.096H72.8788V137H71.7268V128.096ZM77.3943 130.58C78.2743 130.58 78.9463 130.796 79.4103 131.228C79.8823 131.66 80.1183 132.304 80.1183 133.16V137H79.0263V136.16C78.8343 136.456 78.5583 136.684 78.1983 136.844C77.8463 136.996 77.4263 137.072 76.9383 137.072C76.2263 137.072 75.6543 136.9 75.2223 136.556C74.7983 136.212 74.5863 135.76 74.5863 135.2C74.5863 134.64 74.7903 134.192 75.1983 133.856C75.6063 133.512 76.2543 133.34 77.1423 133.34H78.9663V133.112C78.9663 132.616 78.8223 132.236 78.5343 131.972C78.2463 131.708 77.8223 131.576 77.2623 131.576C76.8863 131.576 76.5183 131.64 76.1583 131.768C75.7983 131.888 75.4943 132.052 75.2463 132.26L74.7663 131.396C75.0943 131.132 75.4863 130.932 75.9423 130.796C76.3983 130.652 76.8823 130.58 77.3943 130.58ZM77.1303 136.184C77.5703 136.184 77.9503 136.088 78.2703 135.896C78.5903 135.696 78.8223 135.416 78.9663 135.056V134.168H77.1903C76.2143 134.168 75.7263 134.496 75.7263 135.152C75.7263 135.472 75.8503 135.724 76.0983 135.908C76.3463 136.092 76.6903 136.184 77.1303 136.184ZM85.4729 128.096H86.6249V137H85.4729V128.096ZM91.1404 130.58C92.0204 130.58 92.6924 130.796 93.1564 131.228C93.6284 131.66 93.8644 132.304 93.8644 133.16V137H92.7724V136.16C92.5804 136.456 92.3044 136.684 91.9444 136.844C91.5924 136.996 91.1724 137.072 90.6844 137.072C89.9724 137.072 89.4004 136.9 88.9684 136.556C88.5444 136.212 88.3324 135.76 88.3324 135.2C88.3324 134.64 88.5364 134.192 88.9444 133.856C89.3524 133.512 90.0004 133.34 90.8884 133.34H92.7124V133.112C92.7124 132.616 92.5684 132.236 92.2804 131.972C91.9924 131.708 91.5684 131.576 91.0084 131.576C90.6324 131.576 90.2644 131.64 89.9044 131.768C89.5444 131.888 89.2404 132.052 88.9924 132.26L88.5124 131.396C88.8404 131.132 89.2324 130.932 89.6884 130.796C90.1444 130.652 90.6284 130.58 91.1404 130.58ZM90.8764 136.184C91.3164 136.184 91.6964 136.088 92.0164 135.896C92.3364 135.696 92.5684 135.416 92.7124 135.056V134.168H90.9364C89.9604 134.168 89.4724 134.496 89.4724 135.152C89.4724 135.472 89.5964 135.724 89.8444 135.908C90.0924 136.092 90.4364 136.184 90.8764 136.184ZM101.547 128.972C100.859 128.972 100.515 129.344 100.515 130.088V130.64H102.363V131.588H100.539V137H99.387V131.588H98.307V130.64H99.387V130.076C99.387 129.444 99.571 128.944 99.939 128.576C100.307 128.208 100.823 128.024 101.487 128.024C101.743 128.024 101.983 128.056 102.207 128.12C102.431 128.184 102.623 128.276 102.783 128.396L102.435 129.272C102.171 129.072 101.875 128.972 101.547 128.972ZM104.415 130.64H105.567V137H104.415V130.64ZM104.991 129.416C104.767 129.416 104.579 129.344 104.427 129.2C104.283 129.056 104.211 128.88 104.211 128.672C104.211 128.464 104.283 128.288 104.427 128.144C104.579 127.992 104.767 127.916 104.991 127.916C105.215 127.916 105.399 127.988 105.543 128.132C105.695 128.268 105.771 128.44 105.771 128.648C105.771 128.864 105.695 129.048 105.543 129.2C105.399 129.344 105.215 129.416 104.991 129.416ZM113.846 130.64V136.136C113.846 137.248 113.57 138.068 113.018 138.596C112.466 139.132 111.642 139.4 110.546 139.4C109.946 139.4 109.374 139.316 108.83 139.148C108.286 138.988 107.846 138.756 107.51 138.452L108.062 137.564C108.358 137.82 108.722 138.02 109.154 138.164C109.594 138.316 110.046 138.392 110.51 138.392C111.254 138.392 111.802 138.216 112.154 137.864C112.514 137.512 112.694 136.976 112.694 136.256V135.752C112.422 136.08 112.086 136.328 111.686 136.496C111.294 136.656 110.866 136.736 110.402 136.736C109.794 136.736 109.242 136.608 108.746 136.352C108.258 136.088 107.874 135.724 107.594 135.26C107.314 134.788 107.174 134.252 107.174 133.652C107.174 133.052 107.314 132.52 107.594 132.056C107.874 131.584 108.258 131.22 108.746 130.964C109.242 130.708 109.794 130.58 110.402 130.58C110.882 130.58 111.326 130.668 111.734 130.844C112.15 131.02 112.49 131.28 112.754 131.624V130.64H113.846ZM110.534 135.728C110.95 135.728 111.322 135.64 111.65 135.464C111.986 135.288 112.246 135.044 112.43 134.732C112.622 134.412 112.718 134.052 112.718 133.652C112.718 133.036 112.514 132.54 112.106 132.164C111.698 131.78 111.174 131.588 110.534 131.588C109.886 131.588 109.358 131.78 108.95 132.164C108.542 132.54 108.338 133.036 108.338 133.652C108.338 134.052 108.43 134.412 108.614 134.732C108.806 135.044 109.066 135.288 109.394 135.464C109.73 135.64 110.11 135.728 110.534 135.728ZM121.975 130.64V137H120.883V136.04C120.651 136.368 120.343 136.624 119.959 136.808C119.583 136.984 119.171 137.072 118.723 137.072C117.875 137.072 117.207 136.84 116.719 136.376C116.231 135.904 115.987 135.212 115.987 134.3V130.64H117.139V134.168C117.139 134.784 117.287 135.252 117.583 135.572C117.879 135.884 118.303 136.04 118.855 136.04C119.463 136.04 119.943 135.856 120.295 135.488C120.647 135.12 120.823 134.6 120.823 133.928V130.64H121.975ZM125.272 131.708C125.472 131.34 125.768 131.06 126.16 130.868C126.552 130.676 127.028 130.58 127.588 130.58V131.696C127.524 131.688 127.436 131.684 127.324 131.684C126.7 131.684 126.208 131.872 125.848 132.248C125.496 132.616 125.32 133.144 125.32 133.832V137H124.168V130.64H125.272V131.708ZM131.312 130.58C132.192 130.58 132.864 130.796 133.328 131.228C133.8 131.66 134.036 132.304 134.036 133.16V137H132.944V136.16C132.752 136.456 132.476 136.684 132.116 136.844C131.764 136.996 131.344 137.072 130.856 137.072C130.144 137.072 129.572 136.9 129.14 136.556C128.716 136.212 128.504 135.76 128.504 135.2C128.504 134.64 128.708 134.192 129.116 133.856C129.524 133.512 130.172 133.34 131.06 133.34H132.884V133.112C132.884 132.616 132.74 132.236 132.452 131.972C132.164 131.708 131.74 131.576 131.18 131.576C130.804 131.576 130.436 131.64 130.076 131.768C129.716 131.888 129.412 132.052 129.164 132.26L128.684 131.396C129.012 131.132 129.404 130.932 129.86 130.796C130.316 130.652 130.8 130.58 131.312 130.58ZM131.048 136.184C131.488 136.184 131.868 136.088 132.188 135.896C132.508 135.696 132.74 135.416 132.884 135.056V134.168H131.108C130.132 134.168 129.644 134.496 129.644 135.152C129.644 135.472 129.768 135.724 130.016 135.908C130.264 136.092 130.608 136.184 131.048 136.184ZM56.0675 145.58C56.6835 145.58 57.2355 145.716 57.7235 145.988C58.2115 146.26 58.5915 146.64 58.8635 147.128C59.1435 147.616 59.2835 148.18 59.2835 148.82C59.2835 149.46 59.1435 150.028 58.8635 150.524C58.5915 151.012 58.2115 151.392 57.7235 151.664C57.2355 151.936 56.6835 152.072 56.0675 152.072C55.6115 152.072 55.1915 151.984 54.8075 151.808C54.4315 151.632 54.1115 151.376 53.8475 151.04V154.328H52.6955V145.64H53.7995V146.648C54.0555 146.296 54.3795 146.032 54.7715 145.856C55.1635 145.672 55.5955 145.58 56.0675 145.58ZM55.9715 151.064C56.3795 151.064 56.7435 150.972 57.0635 150.788C57.3915 150.596 57.6475 150.332 57.8315 149.996C58.0235 149.652 58.1195 149.26 58.1195 148.82C58.1195 148.38 58.0235 147.992 57.8315 147.656C57.6475 147.312 57.3915 147.048 57.0635 146.864C56.7435 146.68 56.3795 146.588 55.9715 146.588C55.5715 146.588 55.2075 146.684 54.8795 146.876C54.5595 147.06 54.3035 147.32 54.1115 147.656C53.9275 147.992 53.8355 148.38 53.8355 148.82C53.8355 149.26 53.9275 149.652 54.1115 149.996C54.2955 150.332 54.5515 150.596 54.8795 150.788C55.2075 150.972 55.5715 151.064 55.9715 151.064ZM63.5992 152.072C62.9672 152.072 62.3992 151.932 61.8952 151.652C61.3912 151.372 60.9952 150.988 60.7072 150.5C60.4272 150.004 60.2872 149.444 60.2872 148.82C60.2872 148.196 60.4272 147.64 60.7072 147.152C60.9952 146.656 61.3912 146.272 61.8952 146C62.3992 145.72 62.9672 145.58 63.5992 145.58C64.2312 145.58 64.7952 145.72 65.2912 146C65.7952 146.272 66.1872 146.656 66.4672 147.152C66.7552 147.64 66.8992 148.196 66.8992 148.82C66.8992 149.444 66.7552 150.004 66.4672 150.5C66.1872 150.988 65.7952 151.372 65.2912 151.652C64.7952 151.932 64.2312 152.072 63.5992 152.072ZM63.5992 151.064C64.0072 151.064 64.3712 150.972 64.6912 150.788C65.0192 150.596 65.2752 150.332 65.4592 149.996C65.6432 149.652 65.7352 149.26 65.7352 148.82C65.7352 148.38 65.6432 147.992 65.4592 147.656C65.2752 147.312 65.0192 147.048 64.6912 146.864C64.3712 146.68 64.0072 146.588 63.5992 146.588C63.1912 146.588 62.8232 146.68 62.4952 146.864C62.1752 147.048 61.9192 147.312 61.7272 147.656C61.5432 147.992 61.4512 148.38 61.4512 148.82C61.4512 149.26 61.5432 149.652 61.7272 149.996C61.9192 150.332 62.1752 150.596 62.4952 150.788C62.8232 150.972 63.1912 151.064 63.5992 151.064ZM69.5964 146.708C69.7964 146.34 70.0924 146.06 70.4844 145.868C70.8764 145.676 71.3524 145.58 71.9124 145.58V146.696C71.8484 146.688 71.7604 146.684 71.6484 146.684C71.0244 146.684 70.5324 146.872 70.1724 147.248C69.8204 147.616 69.6444 148.144 69.6444 148.832V152H68.4924V145.64H69.5964V146.708ZM76.6369 143.096H77.7889V152H76.6369V143.096ZM82.3045 145.58C83.1845 145.58 83.8565 145.796 84.3205 146.228C84.7925 146.66 85.0285 147.304 85.0285 148.16V152H83.9365V151.16C83.7445 151.456 83.4685 151.684 83.1085 151.844C82.7565 151.996 82.3365 152.072 81.8485 152.072C81.1365 152.072 80.5645 151.9 80.1325 151.556C79.7085 151.212 79.4965 150.76 79.4965 150.2C79.4965 149.64 79.7005 149.192 80.1085 148.856C80.5165 148.512 81.1645 148.34 82.0525 148.34H83.8765V148.112C83.8765 147.616 83.7325 147.236 83.4445 146.972C83.1565 146.708 82.7325 146.576 82.1725 146.576C81.7965 146.576 81.4285 146.64 81.0685 146.768C80.7085 146.888 80.4045 147.052 80.1565 147.26L79.6765 146.396C80.0045 146.132 80.3965 145.932 80.8525 145.796C81.3085 145.652 81.7925 145.58 82.3045 145.58ZM82.0405 151.184C82.4805 151.184 82.8605 151.088 83.1805 150.896C83.5005 150.696 83.7325 150.416 83.8765 150.056V149.168H82.1005C81.1245 149.168 80.6365 149.496 80.6365 150.152C80.6365 150.472 80.7605 150.724 81.0085 150.908C81.2565 151.092 81.6005 151.184 82.0405 151.184ZM98.339 145.58C99.139 145.58 99.771 145.812 100.235 146.276C100.707 146.74 100.943 147.428 100.943 148.34V152H99.791V148.472C99.791 147.856 99.647 147.392 99.359 147.08C99.079 146.768 98.675 146.612 98.147 146.612C97.563 146.612 97.099 146.796 96.755 147.164C96.411 147.524 96.239 148.044 96.239 148.724V152H95.087V148.472C95.087 147.856 94.943 147.392 94.655 147.08C94.375 146.768 93.971 146.612 93.443 146.612C92.859 146.612 92.395 146.796 92.051 147.164C91.707 147.524 91.535 148.044 91.535 148.724V152H90.383V145.64H91.487V146.588C91.719 146.26 92.023 146.012 92.399 145.844C92.775 145.668 93.203 145.58 93.683 145.58C94.179 145.58 94.619 145.68 95.003 145.88C95.387 146.08 95.683 146.372 95.891 146.756C96.131 146.388 96.463 146.1 96.887 145.892C97.319 145.684 97.803 145.58 98.339 145.58ZM103.063 145.64H104.215V152H103.063V145.64ZM103.639 144.416C103.415 144.416 103.227 144.344 103.075 144.2C102.931 144.056 102.859 143.88 102.859 143.672C102.859 143.464 102.931 143.288 103.075 143.144C103.227 142.992 103.415 142.916 103.639 142.916C103.863 142.916 104.047 142.988 104.191 143.132C104.343 143.268 104.419 143.44 104.419 143.648C104.419 143.864 104.343 144.048 104.191 144.2C104.047 144.344 103.863 144.416 103.639 144.416ZM109.99 151.628C109.822 151.772 109.614 151.884 109.366 151.964C109.118 152.036 108.862 152.072 108.598 152.072C107.958 152.072 107.462 151.9 107.11 151.556C106.758 151.212 106.582 150.72 106.582 150.08V146.588H105.502V145.64H106.582V144.248H107.734V145.64H109.558V146.588H107.734V150.032C107.734 150.376 107.818 150.64 107.986 150.824C108.162 151.008 108.41 151.1 108.73 151.1C109.082 151.1 109.382 151 109.63 150.8L109.99 151.628ZM113.699 145.58C114.579 145.58 115.251 145.796 115.715 146.228C116.187 146.66 116.423 147.304 116.423 148.16V152H115.331V151.16C115.139 151.456 114.863 151.684 114.503 151.844C114.151 151.996 113.731 152.072 113.243 152.072C112.531 152.072 111.959 151.9 111.527 151.556C111.103 151.212 110.891 150.76 110.891 150.2C110.891 149.64 111.095 149.192 111.503 148.856C111.911 148.512 112.559 148.34 113.447 148.34H115.271V148.112C115.271 147.616 115.127 147.236 114.839 146.972C114.551 146.708 114.127 146.576 113.567 146.576C113.191 146.576 112.823 146.64 112.463 146.768C112.103 146.888 111.799 147.052 111.551 147.26L111.071 146.396C111.399 146.132 111.791 145.932 112.247 145.796C112.703 145.652 113.187 145.58 113.699 145.58ZM113.435 151.184C113.875 151.184 114.255 151.088 114.575 150.896C114.895 150.696 115.127 150.416 115.271 150.056V149.168H113.495C112.519 149.168 112.031 149.496 112.031 150.152C112.031 150.472 112.155 150.724 112.403 150.908C112.651 151.092 112.995 151.184 113.435 151.184ZM124.59 143.096V152H123.486V150.992C123.23 151.344 122.906 151.612 122.514 151.796C122.122 151.98 121.69 152.072 121.218 152.072C120.602 152.072 120.05 151.936 119.562 151.664C119.074 151.392 118.69 151.012 118.41 150.524C118.138 150.028 118.002 149.46 118.002 148.82C118.002 148.18 118.138 147.616 118.41 147.128C118.69 146.64 119.074 146.26 119.562 145.988C120.05 145.716 120.602 145.58 121.218 145.58C121.674 145.58 122.094 145.668 122.478 145.844C122.862 146.012 123.182 146.264 123.438 146.6V143.096H124.59ZM121.314 151.064C121.714 151.064 122.078 150.972 122.406 150.788C122.734 150.596 122.99 150.332 123.174 149.996C123.358 149.652 123.45 149.26 123.45 148.82C123.45 148.38 123.358 147.992 123.174 147.656C122.99 147.312 122.734 147.048 122.406 146.864C122.078 146.68 121.714 146.588 121.314 146.588C120.906 146.588 120.538 146.68 120.21 146.864C119.89 147.048 119.634 147.312 119.442 147.656C119.258 147.992 119.166 148.38 119.166 148.82C119.166 149.26 119.258 149.652 119.442 149.996C119.634 150.332 119.89 150.596 120.21 150.788C120.538 150.972 120.906 151.064 121.314 151.064ZM127.046 152.072C126.822 152.072 126.63 151.996 126.47 151.844C126.31 151.684 126.23 151.484 126.23 151.244C126.23 151.012 126.31 150.82 126.47 150.668C126.63 150.508 126.822 150.428 127.046 150.428C127.27 150.428 127.458 150.504 127.61 150.656C127.762 150.808 127.838 151.004 127.838 151.244C127.838 151.484 127.758 151.684 127.598 151.844C127.446 151.996 127.262 152.072 127.046 152.072Z" fill="#008E86"/>
<path d="M118.007 31.1373C117.53 30.8577 116.918 31.0172 116.638 31.4935L112.082 39.2553C111.803 39.7316 111.962 40.3443 112.439 40.6239C112.915 40.9035 113.528 40.744 113.807 40.2677L117.857 33.3683L124.756 37.4179C125.232 37.6974 125.845 37.538 126.125 37.0617C126.404 36.5854 126.245 35.9726 125.768 35.693L118.007 31.1373ZM75.439 52.655C75.2485 52.1366 74.6738 51.8708 74.1554 52.0613C73.6371 52.2518 73.3713 52.8265 73.5618 53.3449L75.439 52.655ZM103.5 84.0975L103.693 85.0787L103.5 84.0975ZM116.533 32.2516C120.019 45.6478 119.65 57.866 116.899 66.9948C114.131 76.1828 109.05 81.9878 103.307 83.1162L103.693 85.0787C110.515 83.738 115.961 77.0417 118.814 67.5719C121.686 58.0429 122.034 45.4468 118.468 31.7478L116.533 32.2516ZM103.307 83.1162C99.2404 83.9154 94.5492 82.4366 89.6962 77.642C84.833 72.8374 79.8922 64.7722 75.439 52.655L73.5618 53.3449C78.069 65.6092 83.1387 73.9749 88.2906 79.0648C93.4526 84.1646 98.781 86.0439 103.693 85.0787L103.307 83.1162Z" fill="black"/>
<path d="M110 49L123 54.0001L110 59L110 49Z" fill="#00D8CC" stroke="#00635D" stroke-width="2" stroke-linejoin="round"/>
<path d="M42 54L87.5 36.5L102.5 54L87.5 71.5L42 54Z" fill="#008E86" stroke="#00635D" stroke-width="2" stroke-linejoin="round"/>
<path d="M87.5 36.5L110 45.5L110 62.5L87.5 71.5L96.5 54.0001L87.5 36.5Z" fill="#00D8CC" stroke="#00635D" stroke-width="2" stroke-linejoin="round"/>
<path d="M123 54L42 54" stroke="#333333" stroke-width="2" stroke-dasharray="4 6"/>
<path d="M74.5003 53C83.4607 77.3815 94.5213 85.8619 103.5 84.0975" stroke="black" stroke-width="2" stroke-linecap="round"/>
</g>
<defs>
<clipPath id="clip0_5717_200092">
<rect width="180" height="180" rx="20" fill="white"/>
</clipPath>
<clipPath id="clip1_5717_200092">
<path d="M0 30L-1.31134e-06 0L30 -1.31134e-06L30 10C30 21.0457 21.0457 30 10 30L0 30Z" fill="white"/>
</clipPath>
</defs>
</svg>
