<svg width="180" height="180" viewBox="0 0 180 180" fill="none" xmlns="http://www.w3.org/2000/svg">
<g clip-path="url(#clip0_5717_206345)">
<rect width="180" height="180" rx="20" fill="#F2F2F2"/>

<path d="M31.8284 128.6H35.3684C36.2564 128.6 37.0444 128.776 37.7324 129.128C38.4204 129.48 38.9524 129.976 39.3284 130.616C39.7124 131.248 39.9044 131.976 39.9044 132.8C39.9044 133.624 39.7124 134.356 39.3284 134.996C38.9524 135.628 38.4204 136.12 37.7324 136.472C37.0444 136.824 36.2564 137 35.3684 137H31.8284V128.6ZM35.2964 135.956C35.9764 135.956 36.5724 135.824 37.0844 135.56C37.6044 135.296 38.0044 134.928 38.2844 134.456C38.5644 133.976 38.7044 133.424 38.7044 132.8C38.7044 132.176 38.5644 131.628 38.2844 131.156C38.0044 130.676 37.6044 130.304 37.0844 130.04C36.5724 129.776 35.9764 129.644 35.2964 129.644H33.0284V135.956H35.2964ZM44.2984 137.072C43.6664 137.072 43.0984 136.932 42.5944 136.652C42.0904 136.372 41.6944 135.988 41.4064 135.5C41.1264 135.004 40.9864 134.444 40.9864 133.82C40.9864 133.196 41.1264 132.64 41.4064 132.152C41.6944 131.656 42.0904 131.272 42.5944 131C43.0984 130.72 43.6664 130.58 44.2984 130.58C44.9304 130.58 45.4944 130.72 45.9904 131C46.4944 131.272 46.8864 131.656 47.1664 132.152C47.4544 132.64 47.5984 133.196 47.5984 133.82C47.5984 134.444 47.4544 135.004 47.1664 135.5C46.8864 135.988 46.4944 136.372 45.9904 136.652C45.4944 136.932 44.9304 137.072 44.2984 137.072ZM44.2984 136.064C44.7064 136.064 45.0704 135.972 45.3904 135.788C45.7184 135.596 45.9744 135.332 46.1584 134.996C46.3424 134.652 46.4344 134.26 46.4344 133.82C46.4344 133.38 46.3424 132.992 46.1584 132.656C45.9744 132.312 45.7184 132.048 45.3904 131.864C45.0704 131.68 44.7064 131.588 44.2984 131.588C43.8904 131.588 43.5224 131.68 43.1944 131.864C42.8744 132.048 42.6184 132.312 42.4264 132.656C42.2424 132.992 42.1504 133.38 42.1504 133.82C42.1504 134.26 42.2424 134.652 42.4264 134.996C42.6184 135.332 42.8744 135.596 43.1944 135.788C43.5224 135.972 43.8904 136.064 44.2984 136.064ZM52.5636 130.58C53.1796 130.58 53.7316 130.716 54.2196 130.988C54.7076 131.26 55.0876 131.64 55.3596 132.128C55.6396 132.616 55.7796 133.18 55.7796 133.82C55.7796 134.46 55.6396 135.028 55.3596 135.524C55.0876 136.012 54.7076 136.392 54.2196 136.664C53.7316 136.936 53.1796 137.072 52.5636 137.072C52.0916 137.072 51.6596 136.98 51.2676 136.796C50.8756 136.612 50.5516 136.344 50.2956 135.992V137H49.1916V128.096H50.3436V131.6C50.5996 131.264 50.9196 131.012 51.3036 130.844C51.6876 130.668 52.1076 130.58 52.5636 130.58ZM52.4676 136.064C52.8756 136.064 53.2396 135.972 53.5596 135.788C53.8876 135.596 54.1436 135.332 54.3276 134.996C54.5196 134.652 54.6156 134.26 54.6156 133.82C54.6156 133.38 54.5196 132.992 54.3276 132.656C54.1436 132.312 53.8876 132.048 53.5596 131.864C53.2396 131.68 52.8756 131.588 52.4676 131.588C52.0676 131.588 51.7036 131.68 51.3756 131.864C51.0476 132.048 50.7916 132.312 50.6076 132.656C50.4236 132.992 50.3316 133.38 50.3316 133.82C50.3316 134.26 50.4236 134.652 50.6076 134.996C50.7916 135.332 51.0476 135.596 51.3756 135.788C51.7036 135.972 52.0676 136.064 52.4676 136.064ZM57.3713 128.096H58.5233V137H57.3713V128.096ZM63.0389 130.58C63.9189 130.58 64.5909 130.796 65.0549 131.228C65.5269 131.66 65.7629 132.304 65.7629 133.16V137H64.6709V136.16C64.4789 136.456 64.2029 136.684 63.8429 136.844C63.4909 136.996 63.0709 137.072 62.5829 137.072C61.8709 137.072 61.2989 136.9 60.8669 136.556C60.4429 136.212 60.2309 135.76 60.2309 135.2C60.2309 134.64 60.4349 134.192 60.8429 133.856C61.2509 133.512 61.8989 133.34 62.7869 133.34H64.6109V133.112C64.6109 132.616 64.4669 132.236 64.1789 131.972C63.8909 131.708 63.4669 131.576 62.9069 131.576C62.5309 131.576 62.1629 131.64 61.8029 131.768C61.4429 131.888 61.1389 132.052 60.8909 132.26L60.4109 131.396C60.7389 131.132 61.1309 130.932 61.5869 130.796C62.0429 130.652 62.5269 130.58 63.0389 130.58ZM62.7749 136.184C63.2149 136.184 63.5949 136.088 63.9149 135.896C64.2349 135.696 64.4669 135.416 64.6109 135.056V134.168H62.8349C61.8589 134.168 61.3709 134.496 61.3709 135.152C61.3709 135.472 61.4949 135.724 61.7429 135.908C61.9909 136.092 62.3349 136.184 62.7749 136.184ZM77.1174 128.096V137H76.0134V135.992C75.7574 136.344 75.4334 136.612 75.0414 136.796C74.6494 136.98 74.2174 137.072 73.7454 137.072C73.1294 137.072 72.5774 136.936 72.0894 136.664C71.6014 136.392 71.2174 136.012 70.9374 135.524C70.6654 135.028 70.5294 134.46 70.5294 133.82C70.5294 133.18 70.6654 132.616 70.9374 132.128C71.2174 131.64 71.6014 131.26 72.0894 130.988C72.5774 130.716 73.1294 130.58 73.7454 130.58C74.2014 130.58 74.6214 130.668 75.0054 130.844C75.3894 131.012 75.7094 131.264 75.9654 131.6V128.096H77.1174ZM73.8414 136.064C74.2414 136.064 74.6054 135.972 74.9334 135.788C75.2614 135.596 75.5174 135.332 75.7014 134.996C75.8854 134.652 75.9774 134.26 75.9774 133.82C75.9774 133.38 75.8854 132.992 75.7014 132.656C75.5174 132.312 75.2614 132.048 74.9334 131.864C74.6054 131.68 74.2414 131.588 73.8414 131.588C73.4334 131.588 73.0654 131.68 72.7374 131.864C72.4174 132.048 72.1614 132.312 71.9694 132.656C71.7854 132.992 71.6934 133.38 71.6934 133.82C71.6934 134.26 71.7854 134.652 71.9694 134.996C72.1614 135.332 72.4174 135.596 72.7374 135.788C73.0654 135.972 73.4334 136.064 73.8414 136.064ZM82.0211 137.072C81.3891 137.072 80.8211 136.932 80.3171 136.652C79.8131 136.372 79.4171 135.988 79.1291 135.5C78.8491 135.004 78.7091 134.444 78.7091 133.82C78.7091 133.196 78.8491 132.64 79.1291 132.152C79.4171 131.656 79.8131 131.272 80.3171 131C80.8211 130.72 81.3891 130.58 82.0211 130.58C82.6531 130.58 83.2171 130.72 83.7131 131C84.2171 131.272 84.6091 131.656 84.8891 132.152C85.1771 132.64 85.3211 133.196 85.3211 133.82C85.3211 134.444 85.1771 135.004 84.8891 135.5C84.6091 135.988 84.2171 136.372 83.7131 136.652C83.2171 136.932 82.6531 137.072 82.0211 137.072ZM82.0211 136.064C82.4291 136.064 82.7931 135.972 83.1131 135.788C83.4411 135.596 83.6971 135.332 83.8811 134.996C84.0651 134.652 84.1571 134.26 84.1571 133.82C84.1571 133.38 84.0651 132.992 83.8811 132.656C83.6971 132.312 83.4411 132.048 83.1131 131.864C82.7931 131.68 82.4291 131.588 82.0211 131.588C81.6131 131.588 81.2451 131.68 80.9171 131.864C80.5971 132.048 80.3411 132.312 80.1491 132.656C79.9651 132.992 79.8731 133.38 79.8731 133.82C79.8731 134.26 79.9651 134.652 80.1491 134.996C80.3411 135.332 80.5971 135.596 80.9171 135.788C81.2451 135.972 81.6131 136.064 82.0211 136.064ZM88.7383 137.072C88.2183 137.072 87.7183 137.004 87.2383 136.868C86.7583 136.724 86.3823 136.544 86.1103 136.328L86.5903 135.416C86.8703 135.616 87.2103 135.776 87.6103 135.896C88.0103 136.016 88.4143 136.076 88.8223 136.076C89.8303 136.076 90.3343 135.788 90.3343 135.212C90.3343 135.02 90.2663 134.868 90.1303 134.756C89.9943 134.644 89.8223 134.564 89.6143 134.516C89.4143 134.46 89.1263 134.4 88.7503 134.336C88.2383 134.256 87.8183 134.164 87.4903 134.06C87.1703 133.956 86.8943 133.78 86.6623 133.532C86.4303 133.284 86.3143 132.936 86.3143 132.488C86.3143 131.912 86.5543 131.452 87.0343 131.108C87.5143 130.756 88.1583 130.58 88.9663 130.58C89.3903 130.58 89.8143 130.632 90.2383 130.736C90.6623 130.84 91.0103 130.98 91.2823 131.156L90.7903 132.068C90.2703 131.732 89.6583 131.564 88.9543 131.564C88.4663 131.564 88.0943 131.644 87.8383 131.804C87.5823 131.964 87.4543 132.176 87.4543 132.44C87.4543 132.648 87.5263 132.812 87.6703 132.932C87.8143 133.052 87.9903 133.14 88.1983 133.196C88.4143 133.252 88.7143 133.316 89.0983 133.388C89.6103 133.476 90.0223 133.572 90.3343 133.676C90.6543 133.772 90.9263 133.94 91.1503 134.18C91.3743 134.42 91.4863 134.756 91.4863 135.188C91.4863 135.764 91.2383 136.224 90.7423 136.568C90.2543 136.904 89.5863 137.072 88.7383 137.072ZM98.9206 137.072C98.2726 137.072 97.6926 136.932 97.1806 136.652C96.6766 136.372 96.2806 135.988 95.9926 135.5C95.7046 135.004 95.5606 134.444 95.5606 133.82C95.5606 133.196 95.7046 132.64 95.9926 132.152C96.2806 131.656 96.6766 131.272 97.1806 131C97.6926 130.72 98.2726 130.58 98.9206 130.58C99.4966 130.58 100.009 130.696 100.457 130.928C100.913 131.16 101.265 131.496 101.513 131.936L100.637 132.5C100.437 132.196 100.189 131.968 99.8926 131.816C99.5966 131.664 99.2686 131.588 98.9086 131.588C98.4926 131.588 98.1166 131.68 97.7806 131.864C97.4526 132.048 97.1926 132.312 97.0006 132.656C96.8166 132.992 96.7246 133.38 96.7246 133.82C96.7246 134.268 96.8166 134.664 97.0006 135.008C97.1926 135.344 97.4526 135.604 97.7806 135.788C98.1166 135.972 98.4926 136.064 98.9086 136.064C99.2686 136.064 99.5966 135.988 99.8926 135.836C100.189 135.684 100.437 135.456 100.637 135.152L101.513 135.704C101.265 136.144 100.913 136.484 100.457 136.724C100.009 136.956 99.4966 137.072 98.9206 137.072ZM105.634 137.072C105.002 137.072 104.434 136.932 103.93 136.652C103.426 136.372 103.03 135.988 102.742 135.5C102.462 135.004 102.322 134.444 102.322 133.82C102.322 133.196 102.462 132.64 102.742 132.152C103.03 131.656 103.426 131.272 103.93 131C104.434 130.72 105.002 130.58 105.634 130.58C106.266 130.58 106.83 130.72 107.326 131C107.83 131.272 108.222 131.656 108.502 132.152C108.79 132.64 108.934 133.196 108.934 133.82C108.934 134.444 108.79 135.004 108.502 135.5C108.222 135.988 107.83 136.372 107.326 136.652C106.83 136.932 106.266 137.072 105.634 137.072ZM105.634 136.064C106.042 136.064 106.406 135.972 106.726 135.788C107.054 135.596 107.31 135.332 107.494 134.996C107.678 134.652 107.77 134.26 107.77 133.82C107.77 133.38 107.678 132.992 107.494 132.656C107.31 132.312 107.054 132.048 106.726 131.864C106.406 131.68 106.042 131.588 105.634 131.588C105.226 131.588 104.858 131.68 104.53 131.864C104.21 132.048 103.954 132.312 103.762 132.656C103.578 132.992 103.486 133.38 103.486 133.82C103.486 134.26 103.578 134.652 103.762 134.996C103.954 135.332 104.21 135.596 104.53 135.788C104.858 135.972 105.226 136.064 105.634 136.064ZM112.352 137.072C111.832 137.072 111.332 137.004 110.852 136.868C110.372 136.724 109.996 136.544 109.724 136.328L110.204 135.416C110.484 135.616 110.824 135.776 111.224 135.896C111.624 136.016 112.028 136.076 112.436 136.076C113.444 136.076 113.948 135.788 113.948 135.212C113.948 135.02 113.88 134.868 113.744 134.756C113.608 134.644 113.436 134.564 113.228 134.516C113.028 134.46 112.74 134.4 112.364 134.336C111.852 134.256 111.432 134.164 111.104 134.06C110.784 133.956 110.508 133.78 110.276 133.532C110.044 133.284 109.928 132.936 109.928 132.488C109.928 131.912 110.168 131.452 110.648 131.108C111.128 130.756 111.772 130.58 112.58 130.58C113.004 130.58 113.428 130.632 113.852 130.736C114.276 130.84 114.624 130.98 114.896 131.156L114.404 132.068C113.884 131.732 113.272 131.564 112.568 131.564C112.08 131.564 111.708 131.644 111.452 131.804C111.196 131.964 111.068 132.176 111.068 132.44C111.068 132.648 111.14 132.812 111.284 132.932C111.428 133.052 111.604 133.14 111.812 133.196C112.028 133.252 112.328 133.316 112.712 133.388C113.224 133.476 113.636 133.572 113.948 133.676C114.268 133.772 114.54 133.94 114.764 134.18C114.988 134.42 115.1 134.756 115.1 135.188C115.1 135.764 114.852 136.224 114.356 136.568C113.868 136.904 113.2 137.072 112.352 137.072ZM120.115 136.628C119.947 136.772 119.739 136.884 119.491 136.964C119.243 137.036 118.987 137.072 118.723 137.072C118.083 137.072 117.587 136.9 117.235 136.556C116.883 136.212 116.707 135.72 116.707 135.08V131.588H115.627V130.64H116.707V129.248H117.859V130.64H119.683V131.588H117.859V135.032C117.859 135.376 117.943 135.64 118.111 135.824C118.287 136.008 118.535 136.1 118.855 136.1C119.207 136.1 119.507 136 119.755 135.8L120.115 136.628ZM123.824 130.58C124.704 130.58 125.376 130.796 125.84 131.228C126.312 131.66 126.548 132.304 126.548 133.16V137H125.456V136.16C125.264 136.456 124.988 136.684 124.628 136.844C124.276 136.996 123.856 137.072 123.368 137.072C122.656 137.072 122.084 136.9 121.652 136.556C121.228 136.212 121.016 135.76 121.016 135.2C121.016 134.64 121.22 134.192 121.628 133.856C122.036 133.512 122.684 133.34 123.572 133.34H125.396V133.112C125.396 132.616 125.252 132.236 124.964 131.972C124.676 131.708 124.252 131.576 123.692 131.576C123.316 131.576 122.948 131.64 122.588 131.768C122.228 131.888 121.924 132.052 121.676 132.26L121.196 131.396C121.524 131.132 121.916 130.932 122.372 130.796C122.828 130.652 123.312 130.58 123.824 130.58ZM123.56 136.184C124 136.184 124.38 136.088 124.7 135.896C125.02 135.696 125.252 135.416 125.396 135.056V134.168H123.62C122.644 134.168 122.156 134.496 122.156 135.152C122.156 135.472 122.28 135.724 122.528 135.908C122.776 136.092 123.12 136.184 123.56 136.184ZM134.715 128.096V137H133.611V135.992C133.355 136.344 133.031 136.612 132.639 136.796C132.247 136.98 131.815 137.072 131.343 137.072C130.727 137.072 130.175 136.936 129.687 136.664C129.199 136.392 128.815 136.012 128.535 135.524C128.263 135.028 128.127 134.46 128.127 133.82C128.127 133.18 128.263 132.616 128.535 132.128C128.815 131.64 129.199 131.26 129.687 130.988C130.175 130.716 130.727 130.58 131.343 130.58C131.799 130.58 132.219 130.668 132.603 130.844C132.987 131.012 133.307 131.264 133.563 131.6V128.096H134.715ZM131.439 136.064C131.839 136.064 132.203 135.972 132.531 135.788C132.859 135.596 133.115 135.332 133.299 134.996C133.483 134.652 133.575 134.26 133.575 133.82C133.575 133.38 133.483 132.992 133.299 132.656C133.115 132.312 132.859 132.048 132.531 131.864C132.203 131.68 131.839 131.588 131.439 131.588C131.031 131.588 130.663 131.68 130.335 131.864C130.015 132.048 129.759 132.312 129.567 132.656C129.383 132.992 129.291 133.38 129.291 133.82C129.291 134.26 129.383 134.652 129.567 134.996C129.759 135.332 130.015 135.596 130.335 135.788C130.663 135.972 131.031 136.064 131.439 136.064ZM139.619 137.072C138.987 137.072 138.419 136.932 137.915 136.652C137.411 136.372 137.015 135.988 136.727 135.5C136.447 135.004 136.307 134.444 136.307 133.82C136.307 133.196 136.447 132.64 136.727 132.152C137.015 131.656 137.411 131.272 137.915 131C138.419 130.72 138.987 130.58 139.619 130.58C140.251 130.58 140.815 130.72 141.311 131C141.815 131.272 142.207 131.656 142.487 132.152C142.775 132.64 142.919 133.196 142.919 133.82C142.919 134.444 142.775 135.004 142.487 135.5C142.207 135.988 141.815 136.372 141.311 136.652C140.815 136.932 140.251 137.072 139.619 137.072ZM139.619 136.064C140.027 136.064 140.391 135.972 140.711 135.788C141.039 135.596 141.295 135.332 141.479 134.996C141.663 134.652 141.755 134.26 141.755 133.82C141.755 133.38 141.663 132.992 141.479 132.656C141.295 132.312 141.039 132.048 140.711 131.864C140.391 131.68 140.027 131.588 139.619 131.588C139.211 131.588 138.843 131.68 138.515 131.864C138.195 132.048 137.939 132.312 137.747 132.656C137.563 132.992 137.471 133.38 137.471 133.82C137.471 134.26 137.563 134.652 137.747 134.996C137.939 135.332 138.195 135.596 138.515 135.788C138.843 135.972 139.211 136.064 139.619 136.064ZM146.336 137.072C145.816 137.072 145.316 137.004 144.836 136.868C144.356 136.724 143.98 136.544 143.708 136.328L144.188 135.416C144.468 135.616 144.808 135.776 145.208 135.896C145.608 136.016 146.012 136.076 146.42 136.076C147.428 136.076 147.932 135.788 147.932 135.212C147.932 135.02 147.864 134.868 147.728 134.756C147.592 134.644 147.42 134.564 147.212 134.516C147.012 134.46 146.724 134.4 146.348 134.336C145.836 134.256 145.416 134.164 145.088 134.06C144.768 133.956 144.492 133.78 144.26 133.532C144.028 133.284 143.912 132.936 143.912 132.488C143.912 131.912 144.152 131.452 144.632 131.108C145.112 130.756 145.756 130.58 146.564 130.58C146.988 130.58 147.412 130.632 147.836 130.736C148.26 130.84 148.608 130.98 148.88 131.156L148.388 132.068C147.868 131.732 147.256 131.564 146.552 131.564C146.064 131.564 145.692 131.644 145.436 131.804C145.18 131.964 145.052 132.176 145.052 132.44C145.052 132.648 145.124 132.812 145.268 132.932C145.412 133.052 145.588 133.14 145.796 133.196C146.012 133.252 146.312 133.316 146.696 133.388C147.208 133.476 147.62 133.572 147.932 133.676C148.252 133.772 148.524 133.94 148.748 134.18C148.972 134.42 149.084 134.756 149.084 135.188C149.084 135.764 148.836 136.224 148.34 136.568C147.852 136.904 147.184 137.072 146.336 137.072ZM66.2834 143.096V152H65.1794V150.992C64.9234 151.344 64.5994 151.612 64.2074 151.796C63.8154 151.98 63.3834 152.072 62.9114 152.072C62.2954 152.072 61.7434 151.936 61.2554 151.664C60.7674 151.392 60.3834 151.012 60.1034 150.524C59.8314 150.028 59.6954 149.46 59.6954 148.82C59.6954 148.18 59.8314 147.616 60.1034 147.128C60.3834 146.64 60.7674 146.26 61.2554 145.988C61.7434 145.716 62.2954 145.58 62.9114 145.58C63.3674 145.58 63.7874 145.668 64.1714 145.844C64.5554 146.012 64.8754 146.264 65.1314 146.6V143.096H66.2834ZM63.0074 151.064C63.4074 151.064 63.7714 150.972 64.0994 150.788C64.4274 150.596 64.6834 150.332 64.8674 149.996C65.0514 149.652 65.1434 149.26 65.1434 148.82C65.1434 148.38 65.0514 147.992 64.8674 147.656C64.6834 147.312 64.4274 147.048 64.0994 146.864C63.7714 146.68 63.4074 146.588 63.0074 146.588C62.5994 146.588 62.2314 146.68 61.9034 146.864C61.5834 147.048 61.3274 147.312 61.1354 147.656C60.9514 147.992 60.8594 148.38 60.8594 148.82C60.8594 149.26 60.9514 149.652 61.1354 149.996C61.3274 150.332 61.5834 150.596 61.9034 150.788C62.2314 150.972 62.5994 151.064 63.0074 151.064ZM74.2111 148.856C74.2111 148.944 74.2031 149.06 74.1871 149.204H69.0271C69.0991 149.764 69.3431 150.216 69.7591 150.56C70.1831 150.896 70.7071 151.064 71.3311 151.064C72.0911 151.064 72.7031 150.808 73.1671 150.296L73.8031 151.04C73.5151 151.376 73.1551 151.632 72.7231 151.808C72.2991 151.984 71.8231 152.072 71.2951 152.072C70.6231 152.072 70.0271 151.936 69.5071 151.664C68.9871 151.384 68.5831 150.996 68.2951 150.5C68.0151 150.004 67.8751 149.444 67.8751 148.82C67.8751 148.204 68.0111 147.648 68.2831 147.152C68.5631 146.656 68.9431 146.272 69.4231 146C69.9111 145.72 70.4591 145.58 71.0671 145.58C71.6751 145.58 72.2151 145.72 72.6871 146C73.1671 146.272 73.5391 146.656 73.8031 147.152C74.0751 147.648 74.2111 148.216 74.2111 148.856ZM71.0671 146.552C70.5151 146.552 70.0511 146.72 69.6751 147.056C69.3071 147.392 69.0911 147.832 69.0271 148.376H73.1071C73.0431 147.84 72.8231 147.404 72.4471 147.068C72.0791 146.724 71.6191 146.552 71.0671 146.552ZM79.0334 143.096H80.1854V152H79.0334V143.096ZM84.701 145.58C85.581 145.58 86.253 145.796 86.717 146.228C87.189 146.66 87.425 147.304 87.425 148.16V152H86.333V151.16C86.141 151.456 85.865 151.684 85.505 151.844C85.153 151.996 84.733 152.072 84.245 152.072C83.533 152.072 82.961 151.9 82.529 151.556C82.105 151.212 81.893 150.76 81.893 150.2C81.893 149.64 82.097 149.192 82.505 148.856C82.913 148.512 83.561 148.34 84.449 148.34H86.273V148.112C86.273 147.616 86.129 147.236 85.841 146.972C85.553 146.708 85.129 146.576 84.569 146.576C84.193 146.576 83.825 146.64 83.465 146.768C83.105 146.888 82.801 147.052 82.553 147.26L82.073 146.396C82.401 146.132 82.793 145.932 83.249 145.796C83.705 145.652 84.189 145.58 84.701 145.58ZM84.437 151.184C84.877 151.184 85.257 151.088 85.577 150.896C85.897 150.696 86.129 150.416 86.273 150.056V149.168H84.497C83.521 149.168 83.033 149.496 83.033 150.152C83.033 150.472 83.157 150.724 83.405 150.908C83.653 151.092 83.997 151.184 84.437 151.184ZM96.1755 145.58C96.9835 145.58 97.6235 145.816 98.0955 146.288C98.5755 146.752 98.8155 147.436 98.8155 148.34V152H97.6635V148.472C97.6635 147.856 97.5155 147.392 97.2195 147.08C96.9235 146.768 96.4995 146.612 95.9475 146.612C95.3235 146.612 94.8315 146.796 94.4715 147.164C94.1115 147.524 93.9315 148.044 93.9315 148.724V152H92.7795V143.096H93.9315V146.54C94.1715 146.236 94.4835 146 94.8675 145.832C95.2595 145.664 95.6955 145.58 96.1755 145.58ZM103.707 152.072C103.075 152.072 102.507 151.932 102.003 151.652C101.499 151.372 101.103 150.988 100.815 150.5C100.535 150.004 100.395 149.444 100.395 148.82C100.395 148.196 100.535 147.64 100.815 147.152C101.103 146.656 101.499 146.272 102.003 146C102.507 145.72 103.075 145.58 103.707 145.58C104.339 145.58 104.903 145.72 105.399 146C105.903 146.272 106.295 146.656 106.575 147.152C106.863 147.64 107.007 148.196 107.007 148.82C107.007 149.444 106.863 150.004 106.575 150.5C106.295 150.988 105.903 151.372 105.399 151.652C104.903 151.932 104.339 152.072 103.707 152.072ZM103.707 151.064C104.115 151.064 104.479 150.972 104.799 150.788C105.127 150.596 105.383 150.332 105.567 149.996C105.751 149.652 105.843 149.26 105.843 148.82C105.843 148.38 105.751 147.992 105.567 147.656C105.383 147.312 105.127 147.048 104.799 146.864C104.479 146.68 104.115 146.588 103.707 146.588C103.299 146.588 102.931 146.68 102.603 146.864C102.283 147.048 102.027 147.312 101.835 147.656C101.651 147.992 101.559 148.38 101.559 148.82C101.559 149.26 101.651 149.652 101.835 149.996C102.027 150.332 102.283 150.596 102.603 150.788C102.931 150.972 103.299 151.064 103.707 151.064ZM107.784 154.4C107.504 154.4 107.244 154.368 107.004 154.304C106.764 154.24 106.564 154.144 106.404 154.016L106.776 153.128C107.016 153.328 107.328 153.428 107.712 153.428C108.016 153.428 108.248 153.332 108.408 153.14C108.576 152.956 108.66 152.68 108.66 152.312V145.64H109.812V152.288C109.812 152.944 109.636 153.46 109.284 153.836C108.932 154.212 108.432 154.4 107.784 154.4ZM109.236 144.416C109.012 144.416 108.824 144.344 108.672 144.2C108.528 144.056 108.456 143.88 108.456 143.672C108.456 143.464 108.528 143.288 108.672 143.144C108.824 142.992 109.012 142.916 109.236 142.916C109.46 142.916 109.644 142.988 109.788 143.132C109.94 143.268 110.016 143.44 110.016 143.648C110.016 143.864 109.94 144.048 109.788 144.2C109.644 144.344 109.46 144.416 109.236 144.416ZM114.326 145.58C115.206 145.58 115.878 145.796 116.342 146.228C116.814 146.66 117.05 147.304 117.05 148.16V152H115.958V151.16C115.766 151.456 115.49 151.684 115.13 151.844C114.778 151.996 114.358 152.072 113.87 152.072C113.158 152.072 112.586 151.9 112.154 151.556C111.73 151.212 111.518 150.76 111.518 150.2C111.518 149.64 111.722 149.192 112.13 148.856C112.538 148.512 113.186 148.34 114.074 148.34H115.898V148.112C115.898 147.616 115.754 147.236 115.466 146.972C115.178 146.708 114.754 146.576 114.194 146.576C113.818 146.576 113.45 146.64 113.09 146.768C112.73 146.888 112.426 147.052 112.178 147.26L111.698 146.396C112.026 146.132 112.418 145.932 112.874 145.796C113.33 145.652 113.814 145.58 114.326 145.58ZM114.062 151.184C114.502 151.184 114.882 151.088 115.202 150.896C115.522 150.696 115.754 150.416 115.898 150.056V149.168H114.122C113.146 149.168 112.658 149.496 112.658 150.152C112.658 150.472 112.782 150.724 113.03 150.908C113.278 151.092 113.622 151.184 114.062 151.184ZM119.458 152.072C119.234 152.072 119.042 151.996 118.882 151.844C118.722 151.684 118.642 151.484 118.642 151.244C118.642 151.012 118.722 150.82 118.882 150.668C119.042 150.508 119.234 150.428 119.458 150.428C119.682 150.428 119.87 150.504 120.022 150.656C120.174 150.808 120.25 151.004 120.25 151.244C120.25 151.484 120.17 151.684 120.01 151.844C119.858 151.996 119.674 152.072 119.458 152.072Z" fill="#008E86"/>
<rect x="47.5176" y="55" width="63.6396" height="63.6396" transform="rotate(-45 47.5176 55)" fill="#00D8CC" stroke="#00635D" stroke-width="2" stroke-linejoin="round"/>
<path d="M104.498 21.9998L47.5061 55.2933" stroke="#333333" stroke-width="2" stroke-dasharray="4 6"/>
<path d="M104.5 87.9997L47.5067 55.2933" stroke="#333333" stroke-width="2" stroke-dasharray="4 6"/>
<path opacity="0.25" d="M137.518 55L47.5176 55" stroke="#333333" stroke-width="2"/>
<path d="M103.991 70.1279C103.509 69.8573 102.9 70.0282 102.629 70.5097L98.2189 78.3552C97.9483 78.8366 98.1192 79.4463 98.6006 79.7169C99.0821 79.9875 99.6917 79.8166 99.9624 79.3352L103.882 72.3614L110.856 76.2814C111.338 76.552 111.947 76.3811 112.218 75.8997C112.488 75.4182 112.318 74.8086 111.836 74.5379L103.991 70.1279ZM86.6295 87.1778C86.0977 87.0288 85.5458 87.339 85.3967 87.8708C85.2476 88.4026 85.5579 88.9545 86.0897 89.1036L86.6295 87.1778ZM102.538 71.2696C104.445 78.0725 103.416 82.6845 100.766 85.3344L102.18 86.7486C105.555 83.374 106.468 77.8786 104.464 70.7297L102.538 71.2696ZM100.766 85.3344C99.4938 86.6066 97.229 87.4388 94.5399 87.7512C91.8826 88.0599 88.9886 87.8391 86.6295 87.1778L86.0897 89.1036C88.7133 89.8391 91.87 90.0748 94.7707 89.7378C97.6397 89.4045 100.44 88.4886 102.18 86.7486L100.766 85.3344Z" fill="black"/>
<path d="M85.2307 20.544C84.6989 20.6931 84.3887 21.2451 84.5378 21.7768C84.6868 22.3086 85.2388 22.6189 85.7706 22.4698L85.2307 20.544ZM101.77 39.138C102.041 39.6194 102.65 39.7903 103.132 39.5197L110.977 35.1097C111.459 34.8391 111.63 34.2294 111.359 33.748C111.088 33.2665 110.479 33.0956 109.997 33.3663L103.023 37.2863L99.1034 30.3125C98.8328 29.831 98.2231 29.6601 97.7417 29.9308C97.2603 30.2014 97.0894 30.811 97.36 31.2925L101.77 39.138ZM85.7706 22.4698C92.5735 20.5628 97.1855 21.5916 99.8354 24.2415L101.25 22.8273C97.875 19.4527 92.3796 18.5401 85.2307 20.544L85.7706 22.4698ZM99.8354 24.2415C101.108 25.5138 101.94 27.7786 102.252 30.4677C102.561 33.1249 102.34 36.019 101.679 38.3781L103.605 38.9179C104.34 36.2942 104.576 33.1376 104.239 30.2368C103.905 27.3679 102.99 24.5673 101.25 22.8273L99.8354 24.2415Z" fill="black"/>
</g>
<defs>
<clipPath id="clip0_5717_206345">
<rect width="180" height="180" rx="20" fill="white"/>
</clipPath>
<clipPath id="clip1_5717_206345">
<path d="M0 30L-1.31134e-06 0L30 -1.31134e-06L30 10C30 21.0457 21.0457 30 10 30L0 30Z" fill="white"/>
</clipPath>
</defs>
</svg>
