<svg width="180" height="180" viewBox="0 0 180 180" fill="none" xmlns="http://www.w3.org/2000/svg">
<g clip-path="url(#clip0_5717_206361)">
<rect width="180" height="180" rx="20" fill="#F2F2F2"/>
<g clip-path="url(#clip1_5717_206361)">
<path d="M0 30L-1.31134e-06 0L30 -1.31134e-06L30 10C30 21.0457 21.0457 30 10 30L0 30Z" fill="#333333"/>
<path d="M15.9223 13.976C16.6369 13.976 17.2876 14.12 17.8743 14.408C18.4609 14.696 18.9249 15.1067 19.2663 15.64C19.6076 16.1627 19.7783 16.7707 19.7783 17.464C19.7783 18.2107 19.5916 18.8667 19.2183 19.432C18.8449 19.9973 18.3329 20.4347 17.6823 20.744C17.0423 21.0427 16.3276 21.192 15.5383 21.192C13.9703 21.192 12.7436 20.712 11.8583 19.752C10.9729 18.792 10.5303 17.4213 10.5303 15.64C10.5303 14.3707 10.7703 13.2827 11.2503 12.376C11.7303 11.4693 12.3969 10.7813 13.2503 10.312C14.1143 9.84267 15.1116 9.608 16.2423 9.608C16.8396 9.608 17.4103 9.67733 17.9543 9.816C18.5089 9.944 18.9783 10.1307 19.3623 10.376L18.4023 12.28C17.8476 11.9067 17.1489 11.72 16.3063 11.72C15.3569 11.72 14.6049 11.9973 14.0503 12.552C13.4956 13.1067 13.1969 13.912 13.1543 14.968C13.8156 14.3067 14.7383 13.976 15.9223 13.976ZM15.3943 19.256C15.9489 19.256 16.3969 19.1067 16.7383 18.808C17.0903 18.5093 17.2663 18.104 17.2663 17.592C17.2663 17.08 17.0903 16.6747 16.7383 16.376C16.3969 16.0667 15.9383 15.912 15.3623 15.912C14.7969 15.912 14.3329 16.072 13.9703 16.392C13.6076 16.7013 13.4263 17.1013 13.4263 17.592C13.4263 18.0827 13.6023 18.4827 13.9543 18.792C14.3063 19.1013 14.7863 19.256 15.3943 19.256Z" fill="#F2F2F2"/>
</g>
<path d="M46.3538 120.6H49.8938C50.7818 120.6 51.5698 120.776 52.2578 121.128C52.9458 121.48 53.4778 121.976 53.8538 122.616C54.2378 123.248 54.4298 123.976 54.4298 124.8C54.4298 125.624 54.2378 126.356 53.8538 126.996C53.4778 127.628 52.9458 128.12 52.2578 128.472C51.5698 128.824 50.7818 129 49.8938 129H46.3538V120.6ZM49.8218 127.956C50.5018 127.956 51.0978 127.824 51.6098 127.56C52.1298 127.296 52.5298 126.928 52.8098 126.456C53.0898 125.976 53.2298 125.424 53.2298 124.8C53.2298 124.176 53.0898 123.628 52.8098 123.156C52.5298 122.676 52.1298 122.304 51.6098 122.04C51.0978 121.776 50.5018 121.644 49.8218 121.644H47.5538V127.956H49.8218ZM58.8238 129.072C58.1918 129.072 57.6238 128.932 57.1198 128.652C56.6158 128.372 56.2198 127.988 55.9318 127.5C55.6518 127.004 55.5118 126.444 55.5118 125.82C55.5118 125.196 55.6518 124.64 55.9318 124.152C56.2198 123.656 56.6158 123.272 57.1198 123C57.6238 122.72 58.1918 122.58 58.8238 122.58C59.4558 122.58 60.0198 122.72 60.5158 123C61.0198 123.272 61.4118 123.656 61.6918 124.152C61.9798 124.64 62.1238 125.196 62.1238 125.82C62.1238 126.444 61.9798 127.004 61.6918 127.5C61.4118 127.988 61.0198 128.372 60.5158 128.652C60.0198 128.932 59.4558 129.072 58.8238 129.072ZM58.8238 128.064C59.2318 128.064 59.5958 127.972 59.9158 127.788C60.2438 127.596 60.4998 127.332 60.6838 126.996C60.8678 126.652 60.9598 126.26 60.9598 125.82C60.9598 125.38 60.8678 124.992 60.6838 124.656C60.4998 124.312 60.2438 124.048 59.9158 123.864C59.5958 123.68 59.2318 123.588 58.8238 123.588C58.4158 123.588 58.0478 123.68 57.7198 123.864C57.3998 124.048 57.1438 124.312 56.9518 124.656C56.7678 124.992 56.6758 125.38 56.6758 125.82C56.6758 126.26 56.7678 126.652 56.9518 126.996C57.1438 127.332 57.3998 127.596 57.7198 127.788C58.0478 127.972 58.4158 128.064 58.8238 128.064ZM67.089 122.58C67.705 122.58 68.257 122.716 68.745 122.988C69.233 123.26 69.613 123.64 69.885 124.128C70.165 124.616 70.305 125.18 70.305 125.82C70.305 126.46 70.165 127.028 69.885 127.524C69.613 128.012 69.233 128.392 68.745 128.664C68.257 128.936 67.705 129.072 67.089 129.072C66.617 129.072 66.185 128.98 65.793 128.796C65.401 128.612 65.077 128.344 64.821 127.992V129H63.717V120.096H64.869V123.6C65.125 123.264 65.445 123.012 65.829 122.844C66.213 122.668 66.633 122.58 67.089 122.58ZM66.993 128.064C67.401 128.064 67.765 127.972 68.085 127.788C68.413 127.596 68.669 127.332 68.853 126.996C69.045 126.652 69.141 126.26 69.141 125.82C69.141 125.38 69.045 124.992 68.853 124.656C68.669 124.312 68.413 124.048 68.085 123.864C67.765 123.68 67.401 123.588 66.993 123.588C66.593 123.588 66.229 123.68 65.901 123.864C65.573 124.048 65.317 124.312 65.133 124.656C64.949 124.992 64.857 125.38 64.857 125.82C64.857 126.26 64.949 126.652 65.133 126.996C65.317 127.332 65.573 127.596 65.901 127.788C66.229 127.972 66.593 128.064 66.993 128.064ZM71.8967 120.096H73.0487V129H71.8967V120.096ZM77.5643 122.58C78.4443 122.58 79.1163 122.796 79.5803 123.228C80.0523 123.66 80.2883 124.304 80.2883 125.16V129H79.1963V128.16C79.0043 128.456 78.7283 128.684 78.3683 128.844C78.0163 128.996 77.5963 129.072 77.1083 129.072C76.3963 129.072 75.8243 128.9 75.3923 128.556C74.9683 128.212 74.7563 127.76 74.7563 127.2C74.7563 126.64 74.9603 126.192 75.3683 125.856C75.7763 125.512 76.4243 125.34 77.3123 125.34H79.1363V125.112C79.1363 124.616 78.9923 124.236 78.7043 123.972C78.4163 123.708 77.9923 123.576 77.4323 123.576C77.0563 123.576 76.6883 123.64 76.3283 123.768C75.9683 123.888 75.6643 124.052 75.4163 124.26L74.9363 123.396C75.2643 123.132 75.6563 122.932 76.1123 122.796C76.5683 122.652 77.0523 122.58 77.5643 122.58ZM77.3003 128.184C77.7403 128.184 78.1203 128.088 78.4403 127.896C78.7603 127.696 78.9923 127.416 79.1363 127.056V126.168H77.3603C76.3843 126.168 75.8963 126.496 75.8963 127.152C75.8963 127.472 76.0203 127.724 76.2683 127.908C76.5163 128.092 76.8603 128.184 77.3003 128.184ZM85.6428 120.096H86.7948V129H85.6428V120.096ZM91.3103 122.58C92.1903 122.58 92.8623 122.796 93.3263 123.228C93.7983 123.66 94.0343 124.304 94.0343 125.16V129H92.9423V128.16C92.7503 128.456 92.4743 128.684 92.1143 128.844C91.7623 128.996 91.3423 129.072 90.8543 129.072C90.1423 129.072 89.5703 128.9 89.1383 128.556C88.7143 128.212 88.5023 127.76 88.5023 127.2C88.5023 126.64 88.7063 126.192 89.1143 125.856C89.5223 125.512 90.1703 125.34 91.0583 125.34H92.8823V125.112C92.8823 124.616 92.7383 124.236 92.4503 123.972C92.1623 123.708 91.7383 123.576 91.1783 123.576C90.8023 123.576 90.4343 123.64 90.0743 123.768C89.7143 123.888 89.4103 124.052 89.1623 124.26L88.6823 123.396C89.0103 123.132 89.4023 122.932 89.8583 122.796C90.3143 122.652 90.7983 122.58 91.3103 122.58ZM91.0463 128.184C91.4863 128.184 91.8663 128.088 92.1863 127.896C92.5063 127.696 92.7383 127.416 92.8823 127.056V126.168H91.1063C90.1303 126.168 89.6423 126.496 89.6423 127.152C89.6423 127.472 89.7663 127.724 90.0143 127.908C90.2623 128.092 90.6063 128.184 91.0463 128.184ZM102.761 122.58C103.377 122.58 103.929 122.716 104.417 122.988C104.905 123.26 105.285 123.64 105.557 124.128C105.837 124.616 105.977 125.18 105.977 125.82C105.977 126.46 105.837 127.028 105.557 127.524C105.285 128.012 104.905 128.392 104.417 128.664C103.929 128.936 103.377 129.072 102.761 129.072C102.305 129.072 101.885 128.984 101.501 128.808C101.125 128.632 100.805 128.376 100.541 128.04V131.328H99.3889V122.64H100.493V123.648C100.749 123.296 101.073 123.032 101.465 122.856C101.857 122.672 102.289 122.58 102.761 122.58ZM102.665 128.064C103.073 128.064 103.437 127.972 103.757 127.788C104.085 127.596 104.341 127.332 104.525 126.996C104.717 126.652 104.813 126.26 104.813 125.82C104.813 125.38 104.717 124.992 104.525 124.656C104.341 124.312 104.085 124.048 103.757 123.864C103.437 123.68 103.073 123.588 102.665 123.588C102.265 123.588 101.901 123.684 101.573 123.876C101.253 124.06 100.997 124.32 100.805 124.656C100.621 124.992 100.529 125.38 100.529 125.82C100.529 126.26 100.621 126.652 100.805 126.996C100.989 127.332 101.245 127.596 101.573 127.788C101.901 127.972 102.265 128.064 102.665 128.064ZM113.497 122.64V129H112.405V128.04C112.173 128.368 111.865 128.624 111.481 128.808C111.105 128.984 110.693 129.072 110.245 129.072C109.397 129.072 108.729 128.84 108.241 128.376C107.753 127.904 107.509 127.212 107.509 126.3V122.64H108.661V126.168C108.661 126.784 108.809 127.252 109.105 127.572C109.401 127.884 109.825 128.04 110.377 128.04C110.985 128.04 111.465 127.856 111.817 127.488C112.169 127.12 112.345 126.6 112.345 125.928V122.64H113.497ZM119.086 122.58C119.894 122.58 120.534 122.816 121.006 123.288C121.486 123.752 121.726 124.436 121.726 125.34V129H120.574V125.472C120.574 124.856 120.426 124.392 120.13 124.08C119.834 123.768 119.41 123.612 118.858 123.612C118.234 123.612 117.742 123.796 117.382 124.164C117.022 124.524 116.842 125.044 116.842 125.724V129H115.69V122.64H116.794V123.6C117.026 123.272 117.338 123.02 117.73 122.844C118.13 122.668 118.582 122.58 119.086 122.58ZM127.434 128.628C127.266 128.772 127.058 128.884 126.81 128.964C126.562 129.036 126.306 129.072 126.042 129.072C125.402 129.072 124.906 128.9 124.554 128.556C124.202 128.212 124.026 127.72 124.026 127.08V123.588H122.946V122.64H124.026V121.248H125.178V122.64H127.002V123.588H125.178V127.032C125.178 127.376 125.262 127.64 125.43 127.824C125.606 128.008 125.854 128.1 126.174 128.1C126.526 128.1 126.826 128 127.074 127.8L127.434 128.628ZM131.142 122.58C132.022 122.58 132.694 122.796 133.158 123.228C133.63 123.66 133.866 124.304 133.866 125.16V129H132.774V128.16C132.582 128.456 132.306 128.684 131.946 128.844C131.594 128.996 131.174 129.072 130.686 129.072C129.974 129.072 129.402 128.9 128.97 128.556C128.546 128.212 128.334 127.76 128.334 127.2C128.334 126.64 128.538 126.192 128.946 125.856C129.354 125.512 130.002 125.34 130.89 125.34H132.714V125.112C132.714 124.616 132.57 124.236 132.282 123.972C131.994 123.708 131.57 123.576 131.01 123.576C130.634 123.576 130.266 123.64 129.906 123.768C129.546 123.888 129.242 124.052 128.994 124.26L128.514 123.396C128.842 123.132 129.234 122.932 129.69 122.796C130.146 122.652 130.63 122.58 131.142 122.58ZM130.878 128.184C131.318 128.184 131.698 128.088 132.018 127.896C132.338 127.696 132.57 127.416 132.714 127.056V126.168H130.938C129.962 126.168 129.474 126.496 129.474 127.152C129.474 127.472 129.598 127.724 129.846 127.908C130.094 128.092 130.438 128.184 130.878 128.184ZM41.0898 144.072C40.5698 144.072 40.0698 144.004 39.5898 143.868C39.1098 143.724 38.7338 143.544 38.4618 143.328L38.9418 142.416C39.2218 142.616 39.5618 142.776 39.9618 142.896C40.3618 143.016 40.7658 143.076 41.1738 143.076C42.1818 143.076 42.6858 142.788 42.6858 142.212C42.6858 142.02 42.6178 141.868 42.4818 141.756C42.3458 141.644 42.1738 141.564 41.9658 141.516C41.7658 141.46 41.4778 141.4 41.1018 141.336C40.5898 141.256 40.1698 141.164 39.8418 141.06C39.5218 140.956 39.2458 140.78 39.0138 140.532C38.7818 140.284 38.6658 139.936 38.6658 139.488C38.6658 138.912 38.9058 138.452 39.3858 138.108C39.8658 137.756 40.5098 137.58 41.3178 137.58C41.7418 137.58 42.1658 137.632 42.5898 137.736C43.0138 137.84 43.3618 137.98 43.6338 138.156L43.1418 139.068C42.6218 138.732 42.0098 138.564 41.3058 138.564C40.8178 138.564 40.4458 138.644 40.1898 138.804C39.9338 138.964 39.8058 139.176 39.8058 139.44C39.8058 139.648 39.8778 139.812 40.0218 139.932C40.1658 140.052 40.3418 140.14 40.5498 140.196C40.7658 140.252 41.0658 140.316 41.4498 140.388C41.9618 140.476 42.3738 140.572 42.6858 140.676C43.0058 140.772 43.2778 140.94 43.5018 141.18C43.7258 141.42 43.8378 141.756 43.8378 142.188C43.8378 142.764 43.5898 143.224 43.0938 143.568C42.6058 143.904 41.9378 144.072 41.0898 144.072ZM51.2055 137.64V144H50.1135V143.04C49.8815 143.368 49.5735 143.624 49.1895 143.808C48.8135 143.984 48.4015 144.072 47.9535 144.072C47.1055 144.072 46.4375 143.84 45.9495 143.376C45.4615 142.904 45.2175 142.212 45.2175 141.3V137.64H46.3695V141.168C46.3695 141.784 46.5175 142.252 46.8135 142.572C47.1095 142.884 47.5335 143.04 48.0855 143.04C48.6935 143.04 49.1735 142.856 49.5255 142.488C49.8775 142.12 50.0535 141.6 50.0535 140.928V137.64H51.2055ZM56.7706 137.58C57.3866 137.58 57.9386 137.716 58.4266 137.988C58.9146 138.26 59.2946 138.64 59.5666 139.128C59.8466 139.616 59.9866 140.18 59.9866 140.82C59.9866 141.46 59.8466 142.028 59.5666 142.524C59.2946 143.012 58.9146 143.392 58.4266 143.664C57.9386 143.936 57.3866 144.072 56.7706 144.072C56.3146 144.072 55.8946 143.984 55.5106 143.808C55.1346 143.632 54.8146 143.376 54.5506 143.04V146.328H53.3986V137.64H54.5026V138.648C54.7586 138.296 55.0826 138.032 55.4746 137.856C55.8666 137.672 56.2986 137.58 56.7706 137.58ZM56.6746 143.064C57.0826 143.064 57.4466 142.972 57.7666 142.788C58.0946 142.596 58.3506 142.332 58.5346 141.996C58.7266 141.652 58.8226 141.26 58.8226 140.82C58.8226 140.38 58.7266 139.992 58.5346 139.656C58.3506 139.312 58.0946 139.048 57.7666 138.864C57.4466 138.68 57.0826 138.588 56.6746 138.588C56.2746 138.588 55.9106 138.684 55.5826 138.876C55.2626 139.06 55.0066 139.32 54.8146 139.656C54.6306 139.992 54.5386 140.38 54.5386 140.82C54.5386 141.26 54.6306 141.652 54.8146 141.996C54.9986 142.332 55.2546 142.596 55.5826 142.788C55.9106 142.972 56.2746 143.064 56.6746 143.064ZM67.3263 140.856C67.3263 140.944 67.3183 141.06 67.3023 141.204H62.1423C62.2143 141.764 62.4583 142.216 62.8743 142.56C63.2983 142.896 63.8223 143.064 64.4463 143.064C65.2063 143.064 65.8183 142.808 66.2823 142.296L66.9183 143.04C66.6303 143.376 66.2703 143.632 65.8383 143.808C65.4143 143.984 64.9383 144.072 64.4103 144.072C63.7383 144.072 63.1423 143.936 62.6223 143.664C62.1023 143.384 61.6983 142.996 61.4103 142.5C61.1303 142.004 60.9903 141.444 60.9903 140.82C60.9903 140.204 61.1263 139.648 61.3983 139.152C61.6783 138.656 62.0583 138.272 62.5383 138C63.0263 137.72 63.5743 137.58 64.1823 137.58C64.7903 137.58 65.3303 137.72 65.8023 138C66.2823 138.272 66.6543 138.656 66.9183 139.152C67.1903 139.648 67.3263 140.216 67.3263 140.856ZM64.1823 138.552C63.6303 138.552 63.1663 138.72 62.7903 139.056C62.4223 139.392 62.2063 139.832 62.1423 140.376H66.2223C66.1583 139.84 65.9383 139.404 65.5623 139.068C65.1943 138.724 64.7343 138.552 64.1823 138.552ZM70.03 138.708C70.23 138.34 70.526 138.06 70.918 137.868C71.31 137.676 71.786 137.58 72.346 137.58V138.696C72.282 138.688 72.194 138.684 72.082 138.684C71.458 138.684 70.966 138.872 70.606 139.248C70.254 139.616 70.078 140.144 70.078 140.832V144H68.926V137.64H70.03V138.708ZM73.7658 137.64H74.9178V144H73.7658V137.64ZM74.3418 136.416C74.1178 136.416 73.9298 136.344 73.7778 136.2C73.6338 136.056 73.5618 135.88 73.5618 135.672C73.5618 135.464 73.6338 135.288 73.7778 135.144C73.9298 134.992 74.1178 134.916 74.3418 134.916C74.5658 134.916 74.7498 134.988 74.8938 135.132C75.0458 135.268 75.1218 135.44 75.1218 135.648C75.1218 135.864 75.0458 136.048 74.8938 136.2C74.7498 136.344 74.5658 136.416 74.3418 136.416ZM79.8414 144.072C79.2094 144.072 78.6414 143.932 78.1374 143.652C77.6334 143.372 77.2374 142.988 76.9494 142.5C76.6694 142.004 76.5294 141.444 76.5294 140.82C76.5294 140.196 76.6694 139.64 76.9494 139.152C77.2374 138.656 77.6334 138.272 78.1374 138C78.6414 137.72 79.2094 137.58 79.8414 137.58C80.4734 137.58 81.0374 137.72 81.5334 138C82.0374 138.272 82.4294 138.656 82.7094 139.152C82.9974 139.64 83.1414 140.196 83.1414 140.82C83.1414 141.444 82.9974 142.004 82.7094 142.5C82.4294 142.988 82.0374 143.372 81.5334 143.652C81.0374 143.932 80.4734 144.072 79.8414 144.072ZM79.8414 143.064C80.2494 143.064 80.6134 142.972 80.9334 142.788C81.2614 142.596 81.5174 142.332 81.7014 141.996C81.8854 141.652 81.9774 141.26 81.9774 140.82C81.9774 140.38 81.8854 139.992 81.7014 139.656C81.5174 139.312 81.2614 139.048 80.9334 138.864C80.6134 138.68 80.2494 138.588 79.8414 138.588C79.4334 138.588 79.0654 138.68 78.7374 138.864C78.4174 139.048 78.1614 139.312 77.9694 139.656C77.7854 139.992 77.6934 140.38 77.6934 140.82C77.6934 141.26 77.7854 141.652 77.9694 141.996C78.1614 142.332 78.4174 142.596 78.7374 142.788C79.0654 142.972 79.4334 143.064 79.8414 143.064ZM85.8386 138.708C86.0386 138.34 86.3346 138.06 86.7266 137.868C87.1186 137.676 87.5946 137.58 88.1546 137.58V138.696C88.0906 138.688 88.0026 138.684 87.8906 138.684C87.2666 138.684 86.7746 138.872 86.4146 139.248C86.0626 139.616 85.8866 140.144 85.8866 140.832V144H84.7346V137.64H85.8386V138.708ZM95.6511 144.072C95.0031 144.072 94.4231 143.932 93.9111 143.652C93.4071 143.372 93.0111 142.988 92.7231 142.5C92.4351 142.004 92.2911 141.444 92.2911 140.82C92.2911 140.196 92.4351 139.64 92.7231 139.152C93.0111 138.656 93.4071 138.272 93.9111 138C94.4231 137.72 95.0031 137.58 95.6511 137.58C96.2271 137.58 96.7391 137.696 97.1871 137.928C97.6431 138.16 97.9951 138.496 98.2431 138.936L97.3671 139.5C97.1671 139.196 96.9191 138.968 96.6231 138.816C96.3271 138.664 95.9991 138.588 95.6391 138.588C95.2231 138.588 94.8471 138.68 94.5111 138.864C94.1831 139.048 93.9231 139.312 93.7311 139.656C93.5471 139.992 93.4551 140.38 93.4551 140.82C93.4551 141.268 93.5471 141.664 93.7311 142.008C93.9231 142.344 94.1831 142.604 94.5111 142.788C94.8471 142.972 95.2231 143.064 95.6391 143.064C95.9991 143.064 96.3271 142.988 96.6231 142.836C96.9191 142.684 97.1671 142.456 97.3671 142.152L98.2431 142.704C97.9951 143.144 97.6431 143.484 97.1871 143.724C96.7391 143.956 96.2271 144.072 95.6511 144.072ZM102.365 144.072C101.733 144.072 101.165 143.932 100.661 143.652C100.157 143.372 99.7608 142.988 99.4728 142.5C99.1928 142.004 99.0528 141.444 99.0528 140.82C99.0528 140.196 99.1928 139.64 99.4728 139.152C99.7608 138.656 100.157 138.272 100.661 138C101.165 137.72 101.733 137.58 102.365 137.58C102.997 137.58 103.561 137.72 104.057 138C104.561 138.272 104.953 138.656 105.233 139.152C105.521 139.64 105.665 140.196 105.665 140.82C105.665 141.444 105.521 142.004 105.233 142.5C104.953 142.988 104.561 143.372 104.057 143.652C103.561 143.932 102.997 144.072 102.365 144.072ZM102.365 143.064C102.773 143.064 103.137 142.972 103.457 142.788C103.785 142.596 104.041 142.332 104.225 141.996C104.409 141.652 104.501 141.26 104.501 140.82C104.501 140.38 104.409 139.992 104.225 139.656C104.041 139.312 103.785 139.048 103.457 138.864C103.137 138.68 102.773 138.588 102.365 138.588C101.957 138.588 101.589 138.68 101.261 138.864C100.941 139.048 100.685 139.312 100.493 139.656C100.309 139.992 100.217 140.38 100.217 140.82C100.217 141.26 100.309 141.652 100.493 141.996C100.685 142.332 100.941 142.596 101.261 142.788C101.589 142.972 101.957 143.064 102.365 143.064ZM115.214 137.58C116.014 137.58 116.646 137.812 117.11 138.276C117.582 138.74 117.818 139.428 117.818 140.34V144H116.666V140.472C116.666 139.856 116.522 139.392 116.234 139.08C115.954 138.768 115.55 138.612 115.022 138.612C114.438 138.612 113.974 138.796 113.63 139.164C113.286 139.524 113.114 140.044 113.114 140.724V144H111.962V140.472C111.962 139.856 111.818 139.392 111.53 139.08C111.25 138.768 110.846 138.612 110.318 138.612C109.734 138.612 109.27 138.796 108.926 139.164C108.582 139.524 108.41 140.044 108.41 140.724V144H107.258V137.64H108.362V138.588C108.594 138.26 108.898 138.012 109.274 137.844C109.65 137.668 110.078 137.58 110.558 137.58C111.054 137.58 111.494 137.68 111.878 137.88C112.262 138.08 112.558 138.372 112.766 138.756C113.006 138.388 113.338 138.1 113.762 137.892C114.194 137.684 114.678 137.58 115.214 137.58ZM122.697 144.072C122.065 144.072 121.497 143.932 120.993 143.652C120.489 143.372 120.093 142.988 119.805 142.5C119.525 142.004 119.385 141.444 119.385 140.82C119.385 140.196 119.525 139.64 119.805 139.152C120.093 138.656 120.489 138.272 120.993 138C121.497 137.72 122.065 137.58 122.697 137.58C123.329 137.58 123.893 137.72 124.389 138C124.893 138.272 125.285 138.656 125.565 139.152C125.853 139.64 125.997 140.196 125.997 140.82C125.997 141.444 125.853 142.004 125.565 142.5C125.285 142.988 124.893 143.372 124.389 143.652C123.893 143.932 123.329 144.072 122.697 144.072ZM122.697 143.064C123.105 143.064 123.469 142.972 123.789 142.788C124.117 142.596 124.373 142.332 124.557 141.996C124.741 141.652 124.833 141.26 124.833 140.82C124.833 140.38 124.741 139.992 124.557 139.656C124.373 139.312 124.117 139.048 123.789 138.864C123.469 138.68 123.105 138.588 122.697 138.588C122.289 138.588 121.921 138.68 121.593 138.864C121.273 139.048 121.017 139.312 120.825 139.656C120.641 139.992 120.549 140.38 120.549 140.82C120.549 141.26 120.641 141.652 120.825 141.996C121.017 142.332 121.273 142.596 121.593 142.788C121.921 142.972 122.289 143.064 122.697 143.064ZM134.389 143.628C134.221 143.772 134.013 143.884 133.765 143.964C133.517 144.036 133.261 144.072 132.997 144.072C132.357 144.072 131.861 143.9 131.509 143.556C131.157 143.212 130.981 142.72 130.981 142.08V138.588H129.901V137.64H130.981V136.248H132.133V137.64H133.957V138.588H132.133V142.032C132.133 142.376 132.217 142.64 132.385 142.824C132.561 143.008 132.809 143.1 133.129 143.1C133.481 143.1 133.781 143 134.029 142.8L134.389 143.628ZM141.319 140.856C141.319 140.944 141.311 141.06 141.295 141.204H136.135C136.207 141.764 136.451 142.216 136.867 142.56C137.291 142.896 137.815 143.064 138.439 143.064C139.199 143.064 139.811 142.808 140.275 142.296L140.911 143.04C140.623 143.376 140.263 143.632 139.831 143.808C139.407 143.984 138.931 144.072 138.403 144.072C137.731 144.072 137.135 143.936 136.615 143.664C136.095 143.384 135.691 142.996 135.403 142.5C135.123 142.004 134.983 141.444 134.983 140.82C134.983 140.204 135.119 139.648 135.391 139.152C135.671 138.656 136.051 138.272 136.531 138C137.019 137.72 137.567 137.58 138.175 137.58C138.783 137.58 139.323 137.72 139.795 138C140.275 138.272 140.647 138.656 140.911 139.152C141.183 139.648 141.319 140.216 141.319 140.856ZM138.175 138.552C137.623 138.552 137.159 138.72 136.783 139.056C136.415 139.392 136.199 139.832 136.135 140.376H140.215C140.151 139.84 139.931 139.404 139.555 139.068C139.187 138.724 138.727 138.552 138.175 138.552ZM41.0705 152.64H42.2225V159H41.0705V152.64ZM41.6465 151.416C41.4225 151.416 41.2345 151.344 41.0825 151.2C40.9385 151.056 40.8665 150.88 40.8665 150.672C40.8665 150.464 40.9385 150.288 41.0825 150.144C41.2345 149.992 41.4225 149.916 41.6465 149.916C41.8705 149.916 42.0545 149.988 42.1985 150.132C42.3505 150.268 42.4265 150.44 42.4265 150.648C42.4265 150.864 42.3505 151.048 42.1985 151.2C42.0545 151.344 41.8705 151.416 41.6465 151.416ZM47.8181 152.58C48.6261 152.58 49.2661 152.816 49.7381 153.288C50.2181 153.752 50.4581 154.436 50.4581 155.34V159H49.3061V155.472C49.3061 154.856 49.1581 154.392 48.8621 154.08C48.5661 153.768 48.1421 153.612 47.5901 153.612C46.9661 153.612 46.4741 153.796 46.1141 154.164C45.7541 154.524 45.5741 155.044 45.5741 155.724V159H44.4221V152.64H45.5261V153.6C45.7581 153.272 46.0701 153.02 46.4621 152.844C46.8621 152.668 47.3141 152.58 47.8181 152.58ZM58.6252 150.096V159H57.5212V157.992C57.2652 158.344 56.9412 158.612 56.5492 158.796C56.1572 158.98 55.7252 159.072 55.2532 159.072C54.6372 159.072 54.0852 158.936 53.5972 158.664C53.1092 158.392 52.7252 158.012 52.4452 157.524C52.1732 157.028 52.0372 156.46 52.0372 155.82C52.0372 155.18 52.1732 154.616 52.4452 154.128C52.7252 153.64 53.1092 153.26 53.5972 152.988C54.0852 152.716 54.6372 152.58 55.2532 152.58C55.7092 152.58 56.1292 152.668 56.5132 152.844C56.8972 153.012 57.2172 153.264 57.4732 153.6V150.096H58.6252ZM55.3492 158.064C55.7492 158.064 56.1132 157.972 56.4412 157.788C56.7692 157.596 57.0252 157.332 57.2092 156.996C57.3932 156.652 57.4852 156.26 57.4852 155.82C57.4852 155.38 57.3932 154.992 57.2092 154.656C57.0252 154.312 56.7692 154.048 56.4412 153.864C56.1132 153.68 55.7492 153.588 55.3492 153.588C54.9412 153.588 54.5732 153.68 54.2452 153.864C53.9252 154.048 53.6692 154.312 53.4772 154.656C53.2932 154.992 53.2012 155.38 53.2012 155.82C53.2012 156.26 53.2932 156.652 53.4772 156.996C53.6692 157.332 53.9252 157.596 54.2452 157.788C54.5732 157.972 54.9412 158.064 55.3492 158.064ZM60.8049 152.64H61.9569V159H60.8049V152.64ZM61.3809 151.416C61.1569 151.416 60.9689 151.344 60.8169 151.2C60.6729 151.056 60.6009 150.88 60.6009 150.672C60.6009 150.464 60.6729 150.288 60.8169 150.144C60.9689 149.992 61.1569 149.916 61.3809 149.916C61.6049 149.916 61.7889 149.988 61.9329 150.132C62.0849 150.268 62.1609 150.44 62.1609 150.648C62.1609 150.864 62.0849 151.048 61.9329 151.2C61.7889 151.344 61.6049 151.416 61.3809 151.416ZM66.9285 159.072C66.2805 159.072 65.7005 158.932 65.1885 158.652C64.6845 158.372 64.2885 157.988 64.0005 157.5C63.7125 157.004 63.5685 156.444 63.5685 155.82C63.5685 155.196 63.7125 154.64 64.0005 154.152C64.2885 153.656 64.6845 153.272 65.1885 153C65.7005 152.72 66.2805 152.58 66.9285 152.58C67.5045 152.58 68.0165 152.696 68.4645 152.928C68.9205 153.16 69.2725 153.496 69.5205 153.936L68.6445 154.5C68.4445 154.196 68.1965 153.968 67.9005 153.816C67.6045 153.664 67.2765 153.588 66.9165 153.588C66.5005 153.588 66.1245 153.68 65.7885 153.864C65.4605 154.048 65.2005 154.312 65.0085 154.656C64.8245 154.992 64.7325 155.38 64.7325 155.82C64.7325 156.268 64.8245 156.664 65.0085 157.008C65.2005 157.344 65.4605 157.604 65.7885 157.788C66.1245 157.972 66.5005 158.064 66.9165 158.064C67.2765 158.064 67.6045 157.988 67.9005 157.836C68.1965 157.684 68.4445 157.456 68.6445 157.152L69.5205 157.704C69.2725 158.144 68.9205 158.484 68.4645 158.724C68.0165 158.956 67.5045 159.072 66.9285 159.072ZM73.3279 152.58C74.2079 152.58 74.8799 152.796 75.3439 153.228C75.8159 153.66 76.0519 154.304 76.0519 155.16V159H74.9599V158.16C74.7679 158.456 74.4919 158.684 74.1319 158.844C73.7799 158.996 73.3599 159.072 72.8719 159.072C72.1599 159.072 71.5879 158.9 71.1559 158.556C70.7319 158.212 70.5199 157.76 70.5199 157.2C70.5199 156.64 70.7239 156.192 71.1319 155.856C71.5399 155.512 72.1879 155.34 73.0759 155.34H74.8999V155.112C74.8999 154.616 74.7559 154.236 74.4679 153.972C74.1799 153.708 73.7559 153.576 73.1959 153.576C72.8199 153.576 72.4519 153.64 72.0919 153.768C71.7319 153.888 71.4279 154.052 71.1799 154.26L70.6999 153.396C71.0279 153.132 71.4199 152.932 71.8759 152.796C72.3319 152.652 72.8159 152.58 73.3279 152.58ZM73.0639 158.184C73.5039 158.184 73.8839 158.088 74.2039 157.896C74.5239 157.696 74.7559 157.416 74.8999 157.056V156.168H73.1239C72.1479 156.168 71.6599 156.496 71.6599 157.152C71.6599 157.472 71.7839 157.724 72.0319 157.908C72.2799 158.092 72.6239 158.184 73.0639 158.184ZM87.1545 155.856C87.1545 155.944 87.1465 156.06 87.1305 156.204H81.9705C82.0425 156.764 82.2865 157.216 82.7025 157.56C83.1265 157.896 83.6505 158.064 84.2745 158.064C85.0345 158.064 85.6465 157.808 86.1105 157.296L86.7465 158.04C86.4585 158.376 86.0985 158.632 85.6665 158.808C85.2425 158.984 84.7665 159.072 84.2385 159.072C83.5665 159.072 82.9705 158.936 82.4505 158.664C81.9305 158.384 81.5265 157.996 81.2385 157.5C80.9585 157.004 80.8185 156.444 80.8185 155.82C80.8185 155.204 80.9545 154.648 81.2265 154.152C81.5065 153.656 81.8865 153.272 82.3665 153C82.8545 152.72 83.4025 152.58 84.0105 152.58C84.6185 152.58 85.1585 152.72 85.6305 153C86.1105 153.272 86.4825 153.656 86.7465 154.152C87.0185 154.648 87.1545 155.216 87.1545 155.856ZM84.0105 153.552C83.4585 153.552 82.9945 153.72 82.6185 154.056C82.2505 154.392 82.0345 154.832 81.9705 155.376H86.0505C85.9865 154.84 85.7665 154.404 85.3905 154.068C85.0225 153.724 84.5625 153.552 84.0105 153.552ZM88.7541 150.096H89.9061V159H88.7541V150.096ZM101.412 152.64V158.136C101.412 159.248 101.136 160.068 100.584 160.596C100.032 161.132 99.2083 161.4 98.1123 161.4C97.5123 161.4 96.9403 161.316 96.3963 161.148C95.8523 160.988 95.4123 160.756 95.0763 160.452L95.6283 159.564C95.9243 159.82 96.2883 160.02 96.7203 160.164C97.1603 160.316 97.6123 160.392 98.0763 160.392C98.8203 160.392 99.3683 160.216 99.7203 159.864C100.08 159.512 100.26 158.976 100.26 158.256V157.752C99.9883 158.08 99.6523 158.328 99.2523 158.496C98.8603 158.656 98.4323 158.736 97.9683 158.736C97.3603 158.736 96.8083 158.608 96.3123 158.352C95.8243 158.088 95.4403 157.724 95.1603 157.26C94.8803 156.788 94.7403 156.252 94.7403 155.652C94.7403 155.052 94.8803 154.52 95.1603 154.056C95.4403 153.584 95.8243 153.22 96.3123 152.964C96.8083 152.708 97.3603 152.58 97.9683 152.58C98.4483 152.58 98.8923 152.668 99.3003 152.844C99.7163 153.02 100.056 153.28 100.32 153.624V152.64H101.412ZM98.1003 157.728C98.5163 157.728 98.8883 157.64 99.2163 157.464C99.5523 157.288 99.8123 157.044 99.9963 156.732C100.188 156.412 100.284 156.052 100.284 155.652C100.284 155.036 100.08 154.54 99.6723 154.164C99.2643 153.78 98.7403 153.588 98.1003 153.588C97.4523 153.588 96.9243 153.78 96.5163 154.164C96.1083 154.54 95.9043 155.036 95.9043 155.652C95.9043 156.052 95.9963 156.412 96.1803 156.732C96.3723 157.044 96.6323 157.288 96.9603 157.464C97.2963 157.64 97.6763 157.728 98.1003 157.728ZM104.717 153.708C104.917 153.34 105.213 153.06 105.605 152.868C105.997 152.676 106.473 152.58 107.033 152.58V153.696C106.969 153.688 106.881 153.684 106.769 153.684C106.145 153.684 105.653 153.872 105.293 154.248C104.941 154.616 104.765 155.144 104.765 155.832V159H103.613V152.64H104.717V153.708ZM110.758 152.58C111.638 152.58 112.31 152.796 112.774 153.228C113.246 153.66 113.482 154.304 113.482 155.16V159H112.39V158.16C112.198 158.456 111.922 158.684 111.562 158.844C111.21 158.996 110.79 159.072 110.302 159.072C109.59 159.072 109.018 158.9 108.586 158.556C108.162 158.212 107.95 157.76 107.95 157.2C107.95 156.64 108.154 156.192 108.562 155.856C108.97 155.512 109.618 155.34 110.506 155.34H112.33V155.112C112.33 154.616 112.186 154.236 111.898 153.972C111.61 153.708 111.186 153.576 110.626 153.576C110.25 153.576 109.882 153.64 109.522 153.768C109.162 153.888 108.858 154.052 108.61 154.26L108.13 153.396C108.458 153.132 108.85 152.932 109.306 152.796C109.762 152.652 110.246 152.58 110.758 152.58ZM110.494 158.184C110.934 158.184 111.314 158.088 111.634 157.896C111.954 157.696 112.186 157.416 112.33 157.056V156.168H110.554C109.578 156.168 109.09 156.496 109.09 157.152C109.09 157.472 109.214 157.724 109.462 157.908C109.71 158.092 110.054 158.184 110.494 158.184ZM111.574 150.156H113.038L111.022 151.716H109.942L111.574 150.156ZM117.941 150.972C117.253 150.972 116.909 151.344 116.909 152.088V152.64H118.757V153.588H116.933V159H115.781V153.588H114.701V152.64H115.781V152.076C115.781 151.444 115.965 150.944 116.333 150.576C116.701 150.208 117.217 150.024 117.881 150.024C118.137 150.024 118.377 150.056 118.601 150.12C118.825 150.184 119.017 150.276 119.177 150.396L118.829 151.272C118.565 151.072 118.269 150.972 117.941 150.972ZM120.809 152.64H121.961V159H120.809V152.64ZM121.385 151.416C121.161 151.416 120.973 151.344 120.821 151.2C120.677 151.056 120.605 150.88 120.605 150.672C120.605 150.464 120.677 150.288 120.821 150.144C120.973 149.992 121.161 149.916 121.385 149.916C121.609 149.916 121.793 149.988 121.937 150.132C122.089 150.268 122.165 150.44 122.165 150.648C122.165 150.864 122.089 151.048 121.937 151.2C121.793 151.344 121.609 151.416 121.385 151.416ZM126.928 159.072C126.28 159.072 125.7 158.932 125.188 158.652C124.684 158.372 124.288 157.988 124 157.5C123.712 157.004 123.568 156.444 123.568 155.82C123.568 155.196 123.712 154.64 124 154.152C124.288 153.656 124.684 153.272 125.188 153C125.7 152.72 126.28 152.58 126.928 152.58C127.504 152.58 128.016 152.696 128.464 152.928C128.92 153.16 129.272 153.496 129.52 153.936L128.644 154.5C128.444 154.196 128.196 153.968 127.9 153.816C127.604 153.664 127.276 153.588 126.916 153.588C126.5 153.588 126.124 153.68 125.788 153.864C125.46 154.048 125.2 154.312 125.008 154.656C124.824 154.992 124.732 155.38 124.732 155.82C124.732 156.268 124.824 156.664 125.008 157.008C125.2 157.344 125.46 157.604 125.788 157.788C126.124 157.972 126.5 158.064 126.916 158.064C127.276 158.064 127.604 157.988 127.9 157.836C128.196 157.684 128.444 157.456 128.644 157.152L129.52 157.704C129.272 158.144 128.92 158.484 128.464 158.724C128.016 158.956 127.504 159.072 126.928 159.072ZM133.642 159.072C133.01 159.072 132.442 158.932 131.938 158.652C131.434 158.372 131.038 157.988 130.75 157.5C130.47 157.004 130.33 156.444 130.33 155.82C130.33 155.196 130.47 154.64 130.75 154.152C131.038 153.656 131.434 153.272 131.938 153C132.442 152.72 133.01 152.58 133.642 152.58C134.274 152.58 134.838 152.72 135.334 153C135.838 153.272 136.23 153.656 136.51 154.152C136.798 154.64 136.942 155.196 136.942 155.82C136.942 156.444 136.798 157.004 136.51 157.5C136.23 157.988 135.838 158.372 135.334 158.652C134.838 158.932 134.274 159.072 133.642 159.072ZM133.642 158.064C134.05 158.064 134.414 157.972 134.734 157.788C135.062 157.596 135.318 157.332 135.502 156.996C135.686 156.652 135.778 156.26 135.778 155.82C135.778 155.38 135.686 154.992 135.502 154.656C135.318 154.312 135.062 154.048 134.734 153.864C134.414 153.68 134.05 153.588 133.642 153.588C133.234 153.588 132.866 153.68 132.538 153.864C132.218 154.048 131.962 154.312 131.77 154.656C131.586 154.992 131.494 155.38 131.494 155.82C131.494 156.26 131.586 156.652 131.77 156.996C131.962 157.332 132.218 157.596 132.538 157.788C132.866 157.972 133.234 158.064 133.642 158.064ZM138.671 159.072C138.447 159.072 138.255 158.996 138.095 158.844C137.935 158.684 137.855 158.484 137.855 158.244C137.855 158.012 137.935 157.82 138.095 157.668C138.255 157.508 138.447 157.428 138.671 157.428C138.895 157.428 139.083 157.504 139.235 157.656C139.387 157.808 139.463 158.004 139.463 158.244C139.463 158.484 139.383 158.684 139.223 158.844C139.071 158.996 138.887 159.072 138.671 159.072Z" fill="#008E86"/>
<path d="M72.1611 45.8105C63.7521 47.1835 59.8791 50.2652 60.1783 52.8105" stroke="black" stroke-width="2" stroke-linecap="round"/>
<path d="M105.683 33.6722C106.158 33.3918 106.317 32.7788 106.037 32.303L101.467 24.5491C101.187 24.0733 100.574 23.9149 100.098 24.1953C99.6223 24.4756 99.4639 25.0887 99.7443 25.5645L103.806 32.4568L96.9134 36.5183C96.4376 36.7987 96.2792 37.4117 96.5596 37.8876C96.84 38.3634 97.453 38.5218 97.9288 38.2414L105.683 33.6722ZM67.5025 42.7123C68.0475 42.6233 68.4172 42.1093 68.3282 41.5642C68.2392 41.0192 67.7252 40.6494 67.1801 40.7384L67.5025 42.7123ZM105.425 31.8425C83.0109 26.0499 67.1306 29.2508 59.8709 33.5976C58.0581 34.683 56.7079 35.8849 55.9603 37.1091C55.2 38.3541 55.0001 39.7691 55.8401 40.9745C56.6148 42.0862 58.0937 42.7314 59.9619 43.0083C61.869 43.2909 64.3806 43.2221 67.5025 42.7123L67.1801 40.7384C64.1778 41.2287 61.888 41.2719 60.2551 41.0299C58.5835 40.7821 57.7841 40.266 57.4809 39.831C57.2431 39.4897 57.1657 38.9727 57.6672 38.1515C58.1813 37.3095 59.2321 36.3111 60.8984 35.3135C67.555 31.3279 82.84 28.0715 104.925 33.7789L105.425 31.8425Z" fill="black"/>
<path d="M61.9551 23.1821L125.595 86.8217L79.267 87.1626L61.9551 23.1821Z" fill="#00D8CC" stroke="#00635D" stroke-width="2" stroke-linejoin="round"/>
<path d="M62.3086 22.8291L79.62 86.8101L88.8138 81.8617L83.1569 59.9414L62.3086 22.8291Z" fill="#008E86" stroke="#00635D" stroke-width="2" stroke-linejoin="round"/>
<path d="M78.207 65.0589L88.2743 81.1546L83.3245 59.9414L78.207 65.0589Z" fill="#00D8CC" stroke="#00635D" stroke-width="2" stroke-linejoin="round"/>
<path d="M78.207 65.0593L88.2743 81.155L92.5169 73.3769L78.207 65.0593Z" fill="#008E86" stroke="#00635D" stroke-width="2" stroke-linejoin="round"/>
<path d="M82.6543 42.8103L71.6543 61.8103" stroke="#333333" stroke-width="2" stroke-dasharray="4 4"/>
<path d="M106.118 46.1137C106.285 45.5874 105.994 45.025 105.468 44.8575L96.8918 42.1286C96.3655 41.9611 95.8031 42.252 95.6357 42.7783C95.4682 43.3046 95.7591 43.867 96.2854 44.0344L103.909 46.4601L101.483 54.0835C101.316 54.6098 101.606 55.1722 102.133 55.3397C102.659 55.5071 103.221 55.2162 103.389 54.69L106.118 46.1137ZM61.1728 52.6937C61.1084 52.1452 60.6114 51.7528 60.0629 51.8173C59.5144 51.8818 59.122 52.3787 59.1865 52.9272L61.1728 52.6937ZM104.705 44.9222C90.5016 52.2688 79.5335 55.1803 72.1065 55.6801C68.386 55.9304 65.6098 55.5719 63.7722 54.9085C61.8866 54.2278 61.249 53.3419 61.1728 52.6937L59.1865 52.9272C59.3965 54.7138 60.9541 56.0175 63.0931 56.7897C65.28 57.5792 68.3577 57.9368 72.2408 57.6755C80.0212 57.152 91.2594 54.1286 105.624 46.6987L104.705 44.9222Z" fill="black"/>
</g>
<defs>
<clipPath id="clip0_5717_206361">
<rect width="180" height="180" rx="20" fill="white"/>
</clipPath>
<clipPath id="clip1_5717_206361">
<path d="M0 30L-1.31134e-06 0L30 -1.31134e-06L30 10C30 21.0457 21.0457 30 10 30L0 30Z" fill="white"/>
</clipPath>
</defs>
</svg>
