<svg width="180" height="180" viewBox="0 0 180 180" fill="none" xmlns="http://www.w3.org/2000/svg">
<g clip-path="url(#clip0_5717_206373)">
<rect width="180" height="180" rx="20" fill="#F2F2F2"/>
<g clip-path="url(#clip1_5717_206373)">
<path d="M0 30L-1.31134e-06 0L30 -1.31134e-06L30 10C30 21.0457 21.0457 30 10 30L0 30Z" fill="#333333"/>
<path d="M14.4663 9.608C16.0343 9.608 17.2609 10.088 18.1463 11.048C19.0316 11.9973 19.4743 13.368 19.4743 15.16C19.4743 16.4293 19.2343 17.5173 18.7543 18.424C18.2849 19.3307 17.6183 20.0187 16.7543 20.488C15.8903 20.9573 14.8929 21.192 13.7623 21.192C13.1649 21.192 12.5943 21.128 12.0503 21C11.5063 20.8613 11.0423 20.6693 10.6583 20.424L11.6183 18.52C12.1623 18.8933 12.8609 19.08 13.7143 19.08C14.6636 19.08 15.4156 18.8027 15.9703 18.248C16.5249 17.6827 16.8236 16.872 16.8663 15.816C16.1943 16.488 15.2663 16.824 14.0823 16.824C13.3676 16.824 12.7169 16.68 12.1303 16.392C11.5436 16.104 11.0796 15.6987 10.7383 15.176C10.3969 14.6427 10.2263 14.0293 10.2263 13.336C10.2263 12.5893 10.4129 11.9333 10.7863 11.368C11.1596 10.8027 11.6663 10.3707 12.3063 10.072C12.9569 9.76267 13.6769 9.608 14.4663 9.608ZM14.6583 14.888C15.2236 14.888 15.6823 14.7333 16.0343 14.424C16.3969 14.104 16.5783 13.6987 16.5783 13.208C16.5783 12.7173 16.4023 12.3173 16.0503 12.008C15.7089 11.6987 15.2343 11.544 14.6263 11.544C14.0716 11.544 13.6183 11.6933 13.2663 11.992C12.9249 12.2907 12.7543 12.696 12.7543 13.208C12.7543 13.72 12.9249 14.1307 13.2663 14.44C13.6183 14.7387 14.0823 14.888 14.6583 14.888Z" fill="#F2F2F2"/>
</g>
<path d="M30.1057 113.6H33.6457C34.5337 113.6 35.3217 113.776 36.0097 114.128C36.6977 114.48 37.2297 114.976 37.6057 115.616C37.9897 116.248 38.1817 116.976 38.1817 117.8C38.1817 118.624 37.9897 119.356 37.6057 119.996C37.2297 120.628 36.6977 121.12 36.0097 121.472C35.3217 121.824 34.5337 122 33.6457 122H30.1057V113.6ZM33.5737 120.956C34.2537 120.956 34.8497 120.824 35.3617 120.56C35.8817 120.296 36.2817 119.928 36.5617 119.456C36.8417 118.976 36.9817 118.424 36.9817 117.8C36.9817 117.176 36.8417 116.628 36.5617 116.156C36.2817 115.676 35.8817 115.304 35.3617 115.04C34.8497 114.776 34.2537 114.644 33.5737 114.644H31.3057V120.956H33.5737ZM42.5758 122.072C41.9438 122.072 41.3758 121.932 40.8718 121.652C40.3678 121.372 39.9718 120.988 39.6838 120.5C39.4038 120.004 39.2638 119.444 39.2638 118.82C39.2638 118.196 39.4038 117.64 39.6838 117.152C39.9718 116.656 40.3678 116.272 40.8718 116C41.3758 115.72 41.9438 115.58 42.5758 115.58C43.2078 115.58 43.7718 115.72 44.2678 116C44.7718 116.272 45.1638 116.656 45.4438 117.152C45.7318 117.64 45.8758 118.196 45.8758 118.82C45.8758 119.444 45.7318 120.004 45.4438 120.5C45.1638 120.988 44.7718 121.372 44.2678 121.652C43.7718 121.932 43.2078 122.072 42.5758 122.072ZM42.5758 121.064C42.9838 121.064 43.3478 120.972 43.6678 120.788C43.9958 120.596 44.2518 120.332 44.4358 119.996C44.6198 119.652 44.7118 119.26 44.7118 118.82C44.7118 118.38 44.6198 117.992 44.4358 117.656C44.2518 117.312 43.9958 117.048 43.6678 116.864C43.3478 116.68 42.9838 116.588 42.5758 116.588C42.1678 116.588 41.7998 116.68 41.4718 116.864C41.1518 117.048 40.8958 117.312 40.7038 117.656C40.5198 117.992 40.4278 118.38 40.4278 118.82C40.4278 119.26 40.5198 119.652 40.7038 119.996C40.8958 120.332 41.1518 120.596 41.4718 120.788C41.7998 120.972 42.1678 121.064 42.5758 121.064ZM50.841 115.58C51.457 115.58 52.009 115.716 52.497 115.988C52.985 116.26 53.365 116.64 53.637 117.128C53.917 117.616 54.057 118.18 54.057 118.82C54.057 119.46 53.917 120.028 53.637 120.524C53.365 121.012 52.985 121.392 52.497 121.664C52.009 121.936 51.457 122.072 50.841 122.072C50.369 122.072 49.937 121.98 49.545 121.796C49.153 121.612 48.829 121.344 48.573 120.992V122H47.469V113.096H48.621V116.6C48.877 116.264 49.197 116.012 49.581 115.844C49.965 115.668 50.385 115.58 50.841 115.58ZM50.745 121.064C51.153 121.064 51.517 120.972 51.837 120.788C52.165 120.596 52.421 120.332 52.605 119.996C52.797 119.652 52.893 119.26 52.893 118.82C52.893 118.38 52.797 117.992 52.605 117.656C52.421 117.312 52.165 117.048 51.837 116.864C51.517 116.68 51.153 116.588 50.745 116.588C50.345 116.588 49.981 116.68 49.653 116.864C49.325 117.048 49.069 117.312 48.885 117.656C48.701 117.992 48.609 118.38 48.609 118.82C48.609 119.26 48.701 119.652 48.885 119.996C49.069 120.332 49.325 120.596 49.653 120.788C49.981 120.972 50.345 121.064 50.745 121.064ZM55.6486 113.096H56.8006V122H55.6486V113.096ZM61.3162 115.58C62.1962 115.58 62.8682 115.796 63.3322 116.228C63.8042 116.66 64.0402 117.304 64.0402 118.16V122H62.9482V121.16C62.7562 121.456 62.4802 121.684 62.1202 121.844C61.7682 121.996 61.3482 122.072 60.8602 122.072C60.1482 122.072 59.5762 121.9 59.1442 121.556C58.7202 121.212 58.5082 120.76 58.5082 120.2C58.5082 119.64 58.7122 119.192 59.1202 118.856C59.5282 118.512 60.1762 118.34 61.0642 118.34H62.8882V118.112C62.8882 117.616 62.7442 117.236 62.4562 116.972C62.1682 116.708 61.7442 116.576 61.1842 116.576C60.8082 116.576 60.4402 116.64 60.0802 116.768C59.7202 116.888 59.4162 117.052 59.1682 117.26L58.6882 116.396C59.0162 116.132 59.4082 115.932 59.8642 115.796C60.3202 115.652 60.8042 115.58 61.3162 115.58ZM61.0522 121.184C61.4922 121.184 61.8722 121.088 62.1922 120.896C62.5122 120.696 62.7442 120.416 62.8882 120.056V119.168H61.1122C60.1362 119.168 59.6482 119.496 59.6482 120.152C59.6482 120.472 59.7722 120.724 60.0202 120.908C60.2682 121.092 60.6122 121.184 61.0522 121.184ZM69.3947 113.096H70.5467V122H69.3947V113.096ZM75.0623 115.58C75.9423 115.58 76.6143 115.796 77.0783 116.228C77.5503 116.66 77.7863 117.304 77.7863 118.16V122H76.6943V121.16C76.5023 121.456 76.2263 121.684 75.8663 121.844C75.5143 121.996 75.0943 122.072 74.6063 122.072C73.8943 122.072 73.3223 121.9 72.8903 121.556C72.4663 121.212 72.2543 120.76 72.2543 120.2C72.2543 119.64 72.4583 119.192 72.8663 118.856C73.2743 118.512 73.9223 118.34 74.8103 118.34H76.6343V118.112C76.6343 117.616 76.4903 117.236 76.2023 116.972C75.9143 116.708 75.4903 116.576 74.9303 116.576C74.5543 116.576 74.1863 116.64 73.8263 116.768C73.4663 116.888 73.1623 117.052 72.9143 117.26L72.4343 116.396C72.7623 116.132 73.1543 115.932 73.6103 115.796C74.0663 115.652 74.5503 115.58 75.0623 115.58ZM74.7983 121.184C75.2383 121.184 75.6183 121.088 75.9383 120.896C76.2583 120.696 76.4903 120.416 76.6343 120.056V119.168H74.8583C73.8823 119.168 73.3943 119.496 73.3943 120.152C73.3943 120.472 73.5183 120.724 73.7663 120.908C74.0143 121.092 74.3583 121.184 74.7983 121.184ZM86.5128 115.58C87.1288 115.58 87.6808 115.716 88.1688 115.988C88.6568 116.26 89.0368 116.64 89.3088 117.128C89.5888 117.616 89.7288 118.18 89.7288 118.82C89.7288 119.46 89.5888 120.028 89.3088 120.524C89.0368 121.012 88.6568 121.392 88.1688 121.664C87.6808 121.936 87.1288 122.072 86.5128 122.072C86.0568 122.072 85.6368 121.984 85.2528 121.808C84.8768 121.632 84.5568 121.376 84.2928 121.04V124.328H83.1408V115.64H84.2448V116.648C84.5008 116.296 84.8248 116.032 85.2168 115.856C85.6088 115.672 86.0408 115.58 86.5128 115.58ZM86.4168 121.064C86.8248 121.064 87.1888 120.972 87.5088 120.788C87.8368 120.596 88.0928 120.332 88.2768 119.996C88.4688 119.652 88.5648 119.26 88.5648 118.82C88.5648 118.38 88.4688 117.992 88.2768 117.656C88.0928 117.312 87.8368 117.048 87.5088 116.864C87.1888 116.68 86.8248 116.588 86.4168 116.588C86.0168 116.588 85.6528 116.684 85.3248 116.876C85.0048 117.06 84.7488 117.32 84.5568 117.656C84.3728 117.992 84.2808 118.38 84.2808 118.82C84.2808 119.26 84.3728 119.652 84.5568 119.996C84.7408 120.332 84.9968 120.596 85.3248 120.788C85.6528 120.972 86.0168 121.064 86.4168 121.064ZM97.2485 115.64V122H96.1565V121.04C95.9245 121.368 95.6165 121.624 95.2325 121.808C94.8565 121.984 94.4445 122.072 93.9965 122.072C93.1485 122.072 92.4805 121.84 91.9925 121.376C91.5045 120.904 91.2605 120.212 91.2605 119.3V115.64H92.4125V119.168C92.4125 119.784 92.5605 120.252 92.8565 120.572C93.1525 120.884 93.5765 121.04 94.1285 121.04C94.7365 121.04 95.2165 120.856 95.5685 120.488C95.9205 120.12 96.0965 119.6 96.0965 118.928V115.64H97.2485ZM102.838 115.58C103.646 115.58 104.286 115.816 104.758 116.288C105.238 116.752 105.478 117.436 105.478 118.34V122H104.326V118.472C104.326 117.856 104.178 117.392 103.882 117.08C103.586 116.768 103.162 116.612 102.61 116.612C101.986 116.612 101.494 116.796 101.134 117.164C100.774 117.524 100.594 118.044 100.594 118.724V122H99.4416V115.64H100.546V116.6C100.778 116.272 101.09 116.02 101.482 115.844C101.882 115.668 102.334 115.58 102.838 115.58ZM111.186 121.628C111.018 121.772 110.81 121.884 110.562 121.964C110.314 122.036 110.058 122.072 109.794 122.072C109.154 122.072 108.658 121.9 108.306 121.556C107.954 121.212 107.778 120.72 107.778 120.08V116.588H106.698V115.64H107.778V114.248H108.93V115.64H110.754V116.588H108.93V120.032C108.93 120.376 109.014 120.64 109.182 120.824C109.358 121.008 109.606 121.1 109.926 121.1C110.278 121.1 110.578 121 110.826 120.8L111.186 121.628ZM114.894 115.58C115.774 115.58 116.446 115.796 116.91 116.228C117.382 116.66 117.618 117.304 117.618 118.16V122H116.526V121.16C116.334 121.456 116.058 121.684 115.698 121.844C115.346 121.996 114.926 122.072 114.438 122.072C113.726 122.072 113.154 121.9 112.722 121.556C112.298 121.212 112.086 120.76 112.086 120.2C112.086 119.64 112.29 119.192 112.698 118.856C113.106 118.512 113.754 118.34 114.642 118.34H116.466V118.112C116.466 117.616 116.322 117.236 116.034 116.972C115.746 116.708 115.322 116.576 114.762 116.576C114.386 116.576 114.018 116.64 113.658 116.768C113.298 116.888 112.994 117.052 112.746 117.26L112.266 116.396C112.594 116.132 112.986 115.932 113.442 115.796C113.898 115.652 114.382 115.58 114.894 115.58ZM114.63 121.184C115.07 121.184 115.45 121.088 115.77 120.896C116.09 120.696 116.322 120.416 116.466 120.056V119.168H114.69C113.714 119.168 113.226 119.496 113.226 120.152C113.226 120.472 113.35 120.724 113.598 120.908C113.846 121.092 114.19 121.184 114.63 121.184ZM128.973 113.096V122H127.869V120.992C127.613 121.344 127.289 121.612 126.897 121.796C126.505 121.98 126.073 122.072 125.601 122.072C124.985 122.072 124.433 121.936 123.945 121.664C123.457 121.392 123.073 121.012 122.793 120.524C122.521 120.028 122.385 119.46 122.385 118.82C122.385 118.18 122.521 117.616 122.793 117.128C123.073 116.64 123.457 116.26 123.945 115.988C124.433 115.716 124.985 115.58 125.601 115.58C126.057 115.58 126.477 115.668 126.861 115.844C127.245 116.012 127.565 116.264 127.821 116.6V113.096H128.973ZM125.697 121.064C126.097 121.064 126.461 120.972 126.789 120.788C127.117 120.596 127.373 120.332 127.557 119.996C127.741 119.652 127.833 119.26 127.833 118.82C127.833 118.38 127.741 117.992 127.557 117.656C127.373 117.312 127.117 117.048 126.789 116.864C126.461 116.68 126.097 116.588 125.697 116.588C125.289 116.588 124.921 116.68 124.593 116.864C124.273 117.048 124.017 117.312 123.825 117.656C123.641 117.992 123.549 118.38 123.549 118.82C123.549 119.26 123.641 119.652 123.825 119.996C124.017 120.332 124.273 120.596 124.593 120.788C124.921 120.972 125.289 121.064 125.697 121.064ZM136.901 118.856C136.901 118.944 136.893 119.06 136.877 119.204H131.717C131.789 119.764 132.033 120.216 132.449 120.56C132.873 120.896 133.397 121.064 134.021 121.064C134.781 121.064 135.393 120.808 135.857 120.296L136.493 121.04C136.205 121.376 135.845 121.632 135.413 121.808C134.989 121.984 134.513 122.072 133.985 122.072C133.313 122.072 132.717 121.936 132.197 121.664C131.677 121.384 131.273 120.996 130.985 120.5C130.705 120.004 130.565 119.444 130.565 118.82C130.565 118.204 130.701 117.648 130.973 117.152C131.253 116.656 131.633 116.272 132.113 116C132.601 115.72 133.149 115.58 133.757 115.58C134.365 115.58 134.905 115.72 135.377 116C135.857 116.272 136.229 116.656 136.493 117.152C136.765 117.648 136.901 118.216 136.901 118.856ZM133.757 116.552C133.205 116.552 132.741 116.72 132.365 117.056C131.997 117.392 131.781 117.832 131.717 118.376H135.797C135.733 117.84 135.513 117.404 135.137 117.068C134.769 116.724 134.309 116.552 133.757 116.552ZM141.723 113.096H142.875V122H141.723V113.096ZM147.39 115.58C148.27 115.58 148.942 115.796 149.406 116.228C149.878 116.66 150.114 117.304 150.114 118.16V122H149.022V121.16C148.83 121.456 148.554 121.684 148.194 121.844C147.842 121.996 147.422 122.072 146.934 122.072C146.222 122.072 145.65 121.9 145.218 121.556C144.794 121.212 144.582 120.76 144.582 120.2C144.582 119.64 144.786 119.192 145.194 118.856C145.602 118.512 146.25 118.34 147.138 118.34H148.962V118.112C148.962 117.616 148.818 117.236 148.53 116.972C148.242 116.708 147.818 116.576 147.258 116.576C146.882 116.576 146.514 116.64 146.154 116.768C145.794 116.888 145.49 117.052 145.242 117.26L144.762 116.396C145.09 116.132 145.482 115.932 145.938 115.796C146.394 115.652 146.878 115.58 147.39 115.58ZM147.126 121.184C147.566 121.184 147.946 121.088 148.266 120.896C148.586 120.696 148.818 120.416 148.962 120.056V119.168H147.186C146.21 119.168 145.722 119.496 145.722 120.152C145.722 120.472 145.846 120.724 146.094 120.908C146.342 121.092 146.686 121.184 147.126 121.184ZM28.6667 137.072C28.0187 137.072 27.4387 136.932 26.9267 136.652C26.4227 136.372 26.0267 135.988 25.7387 135.5C25.4507 135.004 25.3067 134.444 25.3067 133.82C25.3067 133.196 25.4507 132.64 25.7387 132.152C26.0267 131.656 26.4227 131.272 26.9267 131C27.4387 130.72 28.0187 130.58 28.6667 130.58C29.2427 130.58 29.7547 130.696 30.2027 130.928C30.6587 131.16 31.0107 131.496 31.2587 131.936L30.3827 132.5C30.1827 132.196 29.9347 131.968 29.6387 131.816C29.3427 131.664 29.0147 131.588 28.6547 131.588C28.2387 131.588 27.8627 131.68 27.5267 131.864C27.1987 132.048 26.9387 132.312 26.7467 132.656C26.5627 132.992 26.4707 133.38 26.4707 133.82C26.4707 134.268 26.5627 134.664 26.7467 135.008C26.9387 135.344 27.1987 135.604 27.5267 135.788C27.8627 135.972 28.2387 136.064 28.6547 136.064C29.0147 136.064 29.3427 135.988 29.6387 135.836C29.9347 135.684 30.1827 135.456 30.3827 135.152L31.2587 135.704C31.0107 136.144 30.6587 136.484 30.2027 136.724C29.7547 136.956 29.2427 137.072 28.6667 137.072ZM35.0662 130.58C35.9462 130.58 36.6182 130.796 37.0822 131.228C37.5542 131.66 37.7902 132.304 37.7902 133.16V137H36.6982V136.16C36.5062 136.456 36.2302 136.684 35.8702 136.844C35.5182 136.996 35.0982 137.072 34.6102 137.072C33.8982 137.072 33.3262 136.9 32.8942 136.556C32.4702 136.212 32.2582 135.76 32.2582 135.2C32.2582 134.64 32.4622 134.192 32.8702 133.856C33.2782 133.512 33.9262 133.34 34.8142 133.34H36.6382V133.112C36.6382 132.616 36.4942 132.236 36.2062 131.972C35.9182 131.708 35.4942 131.576 34.9342 131.576C34.5582 131.576 34.1902 131.64 33.8302 131.768C33.4702 131.888 33.1662 132.052 32.9182 132.26L32.4382 131.396C32.7662 131.132 33.1582 130.932 33.6142 130.796C34.0702 130.652 34.5542 130.58 35.0662 130.58ZM34.8022 136.184C35.2422 136.184 35.6222 136.088 35.9422 135.896C36.2622 135.696 36.4942 135.416 36.6382 135.056V134.168H34.8622C33.8862 134.168 33.3982 134.496 33.3982 135.152C33.3982 135.472 33.5222 135.724 33.7702 135.908C34.0182 136.092 34.3622 136.184 34.8022 136.184ZM43.2941 130.58C43.9101 130.58 44.4621 130.716 44.9501 130.988C45.4381 131.26 45.8181 131.64 46.0901 132.128C46.3701 132.616 46.5101 133.18 46.5101 133.82C46.5101 134.46 46.3701 135.028 46.0901 135.524C45.8181 136.012 45.4381 136.392 44.9501 136.664C44.4621 136.936 43.9101 137.072 43.2941 137.072C42.8221 137.072 42.3901 136.98 41.9981 136.796C41.6061 136.612 41.2821 136.344 41.0261 135.992V137H39.9221V128.096H41.0741V131.6C41.3301 131.264 41.6501 131.012 42.0341 130.844C42.4181 130.668 42.8381 130.58 43.2941 130.58ZM43.1981 136.064C43.6061 136.064 43.9701 135.972 44.2901 135.788C44.6181 135.596 44.8741 135.332 45.0581 134.996C45.2501 134.652 45.3461 134.26 45.3461 133.82C45.3461 133.38 45.2501 132.992 45.0581 132.656C44.8741 132.312 44.6181 132.048 44.2901 131.864C43.9701 131.68 43.6061 131.588 43.1981 131.588C42.7981 131.588 42.4341 131.68 42.1061 131.864C41.7781 132.048 41.5221 132.312 41.3381 132.656C41.1541 132.992 41.0621 133.38 41.0621 133.82C41.0621 134.26 41.1541 134.652 41.3381 134.996C41.5221 135.332 41.7781 135.596 42.1061 135.788C42.4341 135.972 42.7981 136.064 43.1981 136.064ZM53.8498 133.856C53.8498 133.944 53.8418 134.06 53.8258 134.204H48.6658C48.7378 134.764 48.9818 135.216 49.3978 135.56C49.8218 135.896 50.3458 136.064 50.9698 136.064C51.7298 136.064 52.3418 135.808 52.8058 135.296L53.4418 136.04C53.1538 136.376 52.7938 136.632 52.3618 136.808C51.9378 136.984 51.4618 137.072 50.9338 137.072C50.2618 137.072 49.6658 136.936 49.1458 136.664C48.6258 136.384 48.2218 135.996 47.9338 135.5C47.6538 135.004 47.5138 134.444 47.5138 133.82C47.5138 133.204 47.6498 132.648 47.9218 132.152C48.2018 131.656 48.5818 131.272 49.0618 131C49.5498 130.72 50.0978 130.58 50.7058 130.58C51.3138 130.58 51.8538 130.72 52.3258 131C52.8058 131.272 53.1778 131.656 53.4418 132.152C53.7138 132.648 53.8498 133.216 53.8498 133.856ZM50.7058 131.552C50.1538 131.552 49.6898 131.72 49.3138 132.056C48.9458 132.392 48.7298 132.832 48.6658 133.376H52.7458C52.6818 132.84 52.4618 132.404 52.0858 132.068C51.7178 131.724 51.2578 131.552 50.7058 131.552ZM60.1068 136.052V137H54.7788V136.256L58.5348 131.588H54.8508V130.64H60.0108V131.396L56.2548 136.052H60.1068ZM63.9646 130.58C64.8446 130.58 65.5166 130.796 65.9806 131.228C66.4526 131.66 66.6886 132.304 66.6886 133.16V137H65.5966V136.16C65.4046 136.456 65.1286 136.684 64.7686 136.844C64.4166 136.996 63.9966 137.072 63.5086 137.072C62.7966 137.072 62.2246 136.9 61.7926 136.556C61.3686 136.212 61.1566 135.76 61.1566 135.2C61.1566 134.64 61.3606 134.192 61.7686 133.856C62.1766 133.512 62.8246 133.34 63.7126 133.34H65.5366V133.112C65.5366 132.616 65.3926 132.236 65.1046 131.972C64.8166 131.708 64.3926 131.576 63.8326 131.576C63.4566 131.576 63.0886 131.64 62.7286 131.768C62.3686 131.888 62.0646 132.052 61.8166 132.26L61.3366 131.396C61.6646 131.132 62.0566 130.932 62.5126 130.796C62.9686 130.652 63.4526 130.58 63.9646 130.58ZM63.7006 136.184C64.1406 136.184 64.5206 136.088 64.8406 135.896C65.1606 135.696 65.3926 135.416 65.5366 135.056V134.168H63.7606C62.7846 134.168 62.2966 134.496 62.2966 135.152C62.2966 135.472 62.4206 135.724 62.6686 135.908C62.9166 136.092 63.2606 136.184 63.7006 136.184ZM75.4392 130.58C76.2472 130.58 76.8872 130.816 77.3592 131.288C77.8392 131.752 78.0792 132.436 78.0792 133.34V137H76.9272V133.472C76.9272 132.856 76.7792 132.392 76.4832 132.08C76.1872 131.768 75.7632 131.612 75.2112 131.612C74.5872 131.612 74.0952 131.796 73.7352 132.164C73.3752 132.524 73.1952 133.044 73.1952 133.724V137H72.0432V128.096H73.1952V131.54C73.4352 131.236 73.7472 131 74.1312 130.832C74.5232 130.664 74.9592 130.58 75.4392 130.58ZM82.5271 130.58C83.4071 130.58 84.0791 130.796 84.5431 131.228C85.0151 131.66 85.2511 132.304 85.2511 133.16V137H84.1591V136.16C83.9671 136.456 83.6911 136.684 83.3311 136.844C82.9791 136.996 82.5591 137.072 82.0711 137.072C81.3591 137.072 80.7871 136.9 80.3551 136.556C79.9311 136.212 79.7191 135.76 79.7191 135.2C79.7191 134.64 79.9231 134.192 80.3311 133.856C80.7391 133.512 81.3871 133.34 82.2751 133.34H84.0991V133.112C84.0991 132.616 83.9551 132.236 83.6671 131.972C83.3791 131.708 82.9551 131.576 82.3951 131.576C82.0191 131.576 81.6511 131.64 81.2911 131.768C80.9311 131.888 80.6271 132.052 80.3791 132.26L79.8991 131.396C80.2271 131.132 80.6191 130.932 81.0751 130.796C81.5311 130.652 82.0151 130.58 82.5271 130.58ZM82.2631 136.184C82.7031 136.184 83.0831 136.088 83.4031 135.896C83.7231 135.696 83.9551 135.416 84.0991 135.056V134.168H82.3231C81.3471 134.168 80.8591 134.496 80.8591 135.152C80.8591 135.472 80.9831 135.724 81.2311 135.908C81.4791 136.092 81.8231 136.184 82.2631 136.184ZM90.1902 137.072C89.5422 137.072 88.9622 136.932 88.4502 136.652C87.9462 136.372 87.5502 135.988 87.2622 135.5C86.9742 135.004 86.8302 134.444 86.8302 133.82C86.8302 133.196 86.9742 132.64 87.2622 132.152C87.5502 131.656 87.9462 131.272 88.4502 131C88.9622 130.72 89.5422 130.58 90.1902 130.58C90.7662 130.58 91.2782 130.696 91.7262 130.928C92.1822 131.16 92.5342 131.496 92.7822 131.936L91.9062 132.5C91.7062 132.196 91.4582 131.968 91.1622 131.816C90.8662 131.664 90.5382 131.588 90.1782 131.588C89.7622 131.588 89.3862 131.68 89.0502 131.864C88.7222 132.048 88.4622 132.312 88.2702 132.656C88.0862 132.992 87.9942 133.38 87.9942 133.82C87.9942 134.268 88.0862 134.664 88.2702 135.008C88.4622 135.344 88.7222 135.604 89.0502 135.788C89.3862 135.972 89.7622 136.064 90.1782 136.064C90.5382 136.064 90.8662 135.988 91.1622 135.836C91.4582 135.684 91.7062 135.456 91.9062 135.152L92.7822 135.704C92.5342 136.144 92.1822 136.484 91.7262 136.724C91.2782 136.956 90.7662 137.072 90.1902 137.072ZM94.2736 130.64H95.4256V137H94.2736V130.64ZM94.8496 129.416C94.6256 129.416 94.4376 129.344 94.2856 129.2C94.1416 129.056 94.0696 128.88 94.0696 128.672C94.0696 128.464 94.1416 128.288 94.2856 128.144C94.4376 127.992 94.6256 127.916 94.8496 127.916C95.0736 127.916 95.2576 127.988 95.4016 128.132C95.5536 128.268 95.6296 128.44 95.6296 128.648C95.6296 128.864 95.5536 129.048 95.4016 129.2C95.2576 129.344 95.0736 129.416 94.8496 129.416ZM99.9412 130.58C100.821 130.58 101.493 130.796 101.957 131.228C102.429 131.66 102.665 132.304 102.665 133.16V137H101.573V136.16C101.381 136.456 101.105 136.684 100.745 136.844C100.393 136.996 99.9732 137.072 99.4852 137.072C98.7732 137.072 98.2012 136.9 97.7692 136.556C97.3452 136.212 97.1332 135.76 97.1332 135.2C97.1332 134.64 97.3372 134.192 97.7452 133.856C98.1532 133.512 98.8012 133.34 99.6892 133.34H101.513V133.112C101.513 132.616 101.369 132.236 101.081 131.972C100.793 131.708 100.369 131.576 99.8092 131.576C99.4332 131.576 99.0652 131.64 98.7052 131.768C98.3452 131.888 98.0412 132.052 97.7932 132.26L97.3132 131.396C97.6412 131.132 98.0332 130.932 98.4892 130.796C98.9452 130.652 99.4292 130.58 99.9412 130.58ZM99.6772 136.184C100.117 136.184 100.497 136.088 100.817 135.896C101.137 135.696 101.369 135.416 101.513 135.056V134.168H99.7372C98.7612 134.168 98.2732 134.496 98.2732 135.152C98.2732 135.472 98.3972 135.724 98.6452 135.908C98.8932 136.092 99.2372 136.184 99.6772 136.184ZM110.336 130.58C111.216 130.58 111.888 130.796 112.352 131.228C112.824 131.66 113.06 132.304 113.06 133.16V137H111.968V136.16C111.776 136.456 111.5 136.684 111.14 136.844C110.788 136.996 110.368 137.072 109.88 137.072C109.168 137.072 108.596 136.9 108.164 136.556C107.74 136.212 107.528 135.76 107.528 135.2C107.528 134.64 107.732 134.192 108.14 133.856C108.548 133.512 109.196 133.34 110.084 133.34H111.908V133.112C111.908 132.616 111.764 132.236 111.476 131.972C111.188 131.708 110.764 131.576 110.204 131.576C109.828 131.576 109.46 131.64 109.1 131.768C108.74 131.888 108.436 132.052 108.188 132.26L107.708 131.396C108.036 131.132 108.428 130.932 108.884 130.796C109.34 130.652 109.824 130.58 110.336 130.58ZM110.072 136.184C110.512 136.184 110.892 136.088 111.212 135.896C111.532 135.696 111.764 135.416 111.908 135.056V134.168H110.132C109.156 134.168 108.668 134.496 108.668 135.152C108.668 135.472 108.792 135.724 109.04 135.908C109.288 136.092 109.632 136.184 110.072 136.184ZM121.227 128.096V137H120.123V135.992C119.867 136.344 119.543 136.612 119.151 136.796C118.759 136.98 118.327 137.072 117.855 137.072C117.239 137.072 116.687 136.936 116.199 136.664C115.711 136.392 115.327 136.012 115.047 135.524C114.775 135.028 114.639 134.46 114.639 133.82C114.639 133.18 114.775 132.616 115.047 132.128C115.327 131.64 115.711 131.26 116.199 130.988C116.687 130.716 117.239 130.58 117.855 130.58C118.311 130.58 118.731 130.668 119.115 130.844C119.499 131.012 119.819 131.264 120.075 131.6V128.096H121.227ZM117.951 136.064C118.351 136.064 118.715 135.972 119.043 135.788C119.371 135.596 119.627 135.332 119.811 134.996C119.995 134.652 120.087 134.26 120.087 133.82C120.087 133.38 119.995 132.992 119.811 132.656C119.627 132.312 119.371 132.048 119.043 131.864C118.715 131.68 118.351 131.588 117.951 131.588C117.543 131.588 117.175 131.68 116.847 131.864C116.527 132.048 116.271 132.312 116.079 132.656C115.895 132.992 115.803 133.38 115.803 133.82C115.803 134.26 115.895 134.652 116.079 134.996C116.271 135.332 116.527 135.596 116.847 135.788C117.175 135.972 117.543 136.064 117.951 136.064ZM129.154 133.856C129.154 133.944 129.146 134.06 129.13 134.204H123.97C124.042 134.764 124.286 135.216 124.702 135.56C125.126 135.896 125.65 136.064 126.274 136.064C127.034 136.064 127.646 135.808 128.11 135.296L128.746 136.04C128.458 136.376 128.098 136.632 127.666 136.808C127.242 136.984 126.766 137.072 126.238 137.072C125.566 137.072 124.97 136.936 124.45 136.664C123.93 136.384 123.526 135.996 123.238 135.5C122.958 135.004 122.818 134.444 122.818 133.82C122.818 133.204 122.954 132.648 123.226 132.152C123.506 131.656 123.886 131.272 124.366 131C124.854 130.72 125.402 130.58 126.01 130.58C126.618 130.58 127.158 130.72 127.63 131C128.11 131.272 128.482 131.656 128.746 132.152C129.018 132.648 129.154 133.216 129.154 133.856ZM126.01 131.552C125.458 131.552 124.994 131.72 124.618 132.056C124.25 132.392 124.034 132.832 123.97 133.376H128.05C127.986 132.84 127.766 132.404 127.39 132.068C127.022 131.724 126.562 131.552 126.01 131.552ZM134.15 130.58C134.958 130.58 135.598 130.816 136.07 131.288C136.55 131.752 136.79 132.436 136.79 133.34V137H135.638V133.472C135.638 132.856 135.49 132.392 135.194 132.08C134.898 131.768 134.474 131.612 133.922 131.612C133.298 131.612 132.806 131.796 132.446 132.164C132.086 132.524 131.906 133.044 131.906 133.724V137H130.754V130.64H131.858V131.6C132.09 131.272 132.402 131.02 132.794 130.844C133.194 130.668 133.646 130.58 134.15 130.58ZM142.498 136.628C142.33 136.772 142.122 136.884 141.874 136.964C141.626 137.036 141.37 137.072 141.106 137.072C140.466 137.072 139.97 136.9 139.618 136.556C139.266 136.212 139.09 135.72 139.09 135.08V131.588H138.01V130.64H139.09V129.248H140.242V130.64H142.066V131.588H140.242V135.032C140.242 135.376 140.326 135.64 140.494 135.824C140.67 136.008 140.918 136.1 141.238 136.1C141.59 136.1 141.89 136 142.138 135.8L142.498 136.628ZM144.995 131.708C145.195 131.34 145.491 131.06 145.883 130.868C146.275 130.676 146.751 130.58 147.311 130.58V131.696C147.247 131.688 147.159 131.684 147.047 131.684C146.423 131.684 145.931 131.872 145.571 132.248C145.219 132.616 145.043 133.144 145.043 133.832V137H143.891V130.64H144.995V131.708ZM151.396 137.072C150.764 137.072 150.196 136.932 149.692 136.652C149.188 136.372 148.792 135.988 148.504 135.5C148.224 135.004 148.084 134.444 148.084 133.82C148.084 133.196 148.224 132.64 148.504 132.152C148.792 131.656 149.188 131.272 149.692 131C150.196 130.72 150.764 130.58 151.396 130.58C152.028 130.58 152.592 130.72 153.088 131C153.592 131.272 153.984 131.656 154.264 132.152C154.552 132.64 154.696 133.196 154.696 133.82C154.696 134.444 154.552 135.004 154.264 135.5C153.984 135.988 153.592 136.372 153.088 136.652C152.592 136.932 152.028 137.072 151.396 137.072ZM151.396 136.064C151.804 136.064 152.168 135.972 152.488 135.788C152.816 135.596 153.072 135.332 153.256 134.996C153.44 134.652 153.532 134.26 153.532 133.82C153.532 133.38 153.44 132.992 153.256 132.656C153.072 132.312 152.816 132.048 152.488 131.864C152.168 131.68 151.804 131.588 151.396 131.588C150.988 131.588 150.62 131.68 150.292 131.864C149.972 132.048 149.716 132.312 149.524 132.656C149.34 132.992 149.248 133.38 149.248 133.82C149.248 134.26 149.34 134.652 149.524 134.996C149.716 135.332 149.972 135.596 150.292 135.788C150.62 135.972 150.988 136.064 151.396 136.064ZM35.3606 145.64L32.2766 152.636C32.0046 153.284 31.6846 153.74 31.3166 154.004C30.9566 154.268 30.5206 154.4 30.0086 154.4C29.6966 154.4 29.3926 154.348 29.0966 154.244C28.8086 154.148 28.5686 154.004 28.3766 153.812L28.8686 152.948C29.1966 153.26 29.5766 153.416 30.0086 153.416C30.2886 153.416 30.5206 153.34 30.7046 153.188C30.8966 153.044 31.0686 152.792 31.2206 152.432L31.4246 151.988L28.6166 145.64H29.8166L32.0366 150.728L34.2326 145.64H35.3606ZM39.6584 143.096H40.8104V152H39.6584V143.096ZM48.938 145.64V152H47.846V151.04C47.614 151.368 47.306 151.624 46.922 151.808C46.546 151.984 46.134 152.072 45.686 152.072C44.838 152.072 44.17 151.84 43.682 151.376C43.194 150.904 42.95 150.212 42.95 149.3V145.64H44.102V149.168C44.102 149.784 44.25 150.252 44.546 150.572C44.842 150.884 45.266 151.04 45.818 151.04C46.426 151.04 46.906 150.856 47.258 150.488C47.61 150.12 47.786 149.6 47.786 148.928V145.64H48.938ZM56.8791 148.856C56.8791 148.944 56.8711 149.06 56.8551 149.204H51.6951C51.7671 149.764 52.0111 150.216 52.4271 150.56C52.8511 150.896 53.3751 151.064 53.9991 151.064C54.7591 151.064 55.3711 150.808 55.8351 150.296L56.4711 151.04C56.1831 151.376 55.8231 151.632 55.3911 151.808C54.9671 151.984 54.4911 152.072 53.9631 152.072C53.2911 152.072 52.6951 151.936 52.1751 151.664C51.6551 151.384 51.2511 150.996 50.9631 150.5C50.6831 150.004 50.5431 149.444 50.5431 148.82C50.5431 148.204 50.6791 147.648 50.9511 147.152C51.2311 146.656 51.6111 146.272 52.0911 146C52.5791 145.72 53.1271 145.58 53.7351 145.58C54.3431 145.58 54.8831 145.72 55.3551 146C55.8351 146.272 56.2071 146.656 56.4711 147.152C56.7431 147.648 56.8791 148.216 56.8791 148.856ZM53.7351 146.552C53.1831 146.552 52.7191 146.72 52.3431 147.056C51.9751 147.392 51.7591 147.832 51.6951 148.376H55.7751C55.7111 147.84 55.4911 147.404 55.1151 147.068C54.7471 146.724 54.2871 146.552 53.7351 146.552ZM64.5627 145.64V151.136C64.5627 152.248 64.2867 153.068 63.7347 153.596C63.1827 154.132 62.3587 154.4 61.2627 154.4C60.6627 154.4 60.0907 154.316 59.5467 154.148C59.0027 153.988 58.5627 153.756 58.2267 153.452L58.7787 152.564C59.0747 152.82 59.4387 153.02 59.8707 153.164C60.3107 153.316 60.7627 153.392 61.2267 153.392C61.9707 153.392 62.5187 153.216 62.8707 152.864C63.2307 152.512 63.4107 151.976 63.4107 151.256V150.752C63.1387 151.08 62.8027 151.328 62.4027 151.496C62.0107 151.656 61.5827 151.736 61.1187 151.736C60.5107 151.736 59.9587 151.608 59.4627 151.352C58.9747 151.088 58.5907 150.724 58.3107 150.26C58.0307 149.788 57.8907 149.252 57.8907 148.652C57.8907 148.052 58.0307 147.52 58.3107 147.056C58.5907 146.584 58.9747 146.22 59.4627 145.964C59.9587 145.708 60.5107 145.58 61.1187 145.58C61.5987 145.58 62.0427 145.668 62.4507 145.844C62.8667 146.02 63.2067 146.28 63.4707 146.624V145.64H64.5627ZM61.2507 150.728C61.6667 150.728 62.0387 150.64 62.3667 150.464C62.7027 150.288 62.9627 150.044 63.1467 149.732C63.3387 149.412 63.4347 149.052 63.4347 148.652C63.4347 148.036 63.2307 147.54 62.8227 147.164C62.4147 146.78 61.8907 146.588 61.2507 146.588C60.6027 146.588 60.0747 146.78 59.6667 147.164C59.2587 147.54 59.0547 148.036 59.0547 148.652C59.0547 149.052 59.1467 149.412 59.3307 149.732C59.5227 150.044 59.7827 150.288 60.1107 150.464C60.4467 150.64 60.8267 150.728 61.2507 150.728ZM69.4879 152.072C68.8559 152.072 68.2879 151.932 67.7839 151.652C67.2799 151.372 66.8839 150.988 66.5959 150.5C66.3159 150.004 66.1759 149.444 66.1759 148.82C66.1759 148.196 66.3159 147.64 66.5959 147.152C66.8839 146.656 67.2799 146.272 67.7839 146C68.2879 145.72 68.8559 145.58 69.4879 145.58C70.1199 145.58 70.6839 145.72 71.1799 146C71.6839 146.272 72.0759 146.656 72.3559 147.152C72.6439 147.64 72.7879 148.196 72.7879 148.82C72.7879 149.444 72.6439 150.004 72.3559 150.5C72.0759 150.988 71.6839 151.372 71.1799 151.652C70.6839 151.932 70.1199 152.072 69.4879 152.072ZM69.4879 151.064C69.8959 151.064 70.2599 150.972 70.5799 150.788C70.9079 150.596 71.1639 150.332 71.3479 149.996C71.5319 149.652 71.6239 149.26 71.6239 148.82C71.6239 148.38 71.5319 147.992 71.3479 147.656C71.1639 147.312 70.9079 147.048 70.5799 146.864C70.2599 146.68 69.8959 146.588 69.4879 146.588C69.0799 146.588 68.7119 146.68 68.3839 146.864C68.0639 147.048 67.8079 147.312 67.6159 147.656C67.4319 147.992 67.3399 148.38 67.3399 148.82C67.3399 149.26 67.4319 149.652 67.6159 149.996C67.8079 150.332 68.0639 150.596 68.3839 150.788C68.7119 150.972 69.0799 151.064 69.4879 151.064ZM80.9997 145.58C81.8077 145.58 82.4477 145.816 82.9197 146.288C83.3997 146.752 83.6397 147.436 83.6397 148.34V152H82.4877V148.472C82.4877 147.856 82.3397 147.392 82.0437 147.08C81.7477 146.768 81.3237 146.612 80.7717 146.612C80.1477 146.612 79.6557 146.796 79.2957 147.164C78.9357 147.524 78.7557 148.044 78.7557 148.724V152H77.6037V143.096H78.7557V146.54C78.9957 146.236 79.3077 146 79.6917 145.832C80.0837 145.664 80.5197 145.58 80.9997 145.58ZM88.0877 145.58C88.9677 145.58 89.6397 145.796 90.1037 146.228C90.5757 146.66 90.8117 147.304 90.8117 148.16V152H89.7197V151.16C89.5277 151.456 89.2517 151.684 88.8917 151.844C88.5397 151.996 88.1197 152.072 87.6317 152.072C86.9197 152.072 86.3477 151.9 85.9157 151.556C85.4917 151.212 85.2797 150.76 85.2797 150.2C85.2797 149.64 85.4837 149.192 85.8917 148.856C86.2997 148.512 86.9477 148.34 87.8357 148.34H89.6597V148.112C89.6597 147.616 89.5157 147.236 89.2277 146.972C88.9397 146.708 88.5157 146.576 87.9557 146.576C87.5797 146.576 87.2117 146.64 86.8517 146.768C86.4917 146.888 86.1877 147.052 85.9397 147.26L85.4597 146.396C85.7877 146.132 86.1797 145.932 86.6357 145.796C87.0917 145.652 87.5757 145.58 88.0877 145.58ZM87.8237 151.184C88.2637 151.184 88.6437 151.088 88.9637 150.896C89.2837 150.696 89.5157 150.416 89.6597 150.056V149.168H87.8837C86.9077 149.168 86.4197 149.496 86.4197 150.152C86.4197 150.472 86.5437 150.724 86.7917 150.908C87.0397 151.092 87.3837 151.184 87.8237 151.184ZM95.7507 152.072C95.1027 152.072 94.5227 151.932 94.0107 151.652C93.5067 151.372 93.1107 150.988 92.8227 150.5C92.5347 150.004 92.3907 149.444 92.3907 148.82C92.3907 148.196 92.5347 147.64 92.8227 147.152C93.1107 146.656 93.5067 146.272 94.0107 146C94.5227 145.72 95.1027 145.58 95.7507 145.58C96.3267 145.58 96.8387 145.696 97.2867 145.928C97.7427 146.16 98.0947 146.496 98.3427 146.936L97.4667 147.5C97.2667 147.196 97.0187 146.968 96.7227 146.816C96.4267 146.664 96.0987 146.588 95.7387 146.588C95.3227 146.588 94.9467 146.68 94.6107 146.864C94.2827 147.048 94.0227 147.312 93.8307 147.656C93.6467 147.992 93.5547 148.38 93.5547 148.82C93.5547 149.268 93.6467 149.664 93.8307 150.008C94.0227 150.344 94.2827 150.604 94.6107 150.788C94.9467 150.972 95.3227 151.064 95.7387 151.064C96.0987 151.064 96.4267 150.988 96.7227 150.836C97.0187 150.684 97.2667 150.456 97.4667 150.152L98.3427 150.704C98.0947 151.144 97.7427 151.484 97.2867 151.724C96.8387 151.956 96.3267 152.072 95.7507 152.072ZM99.8342 145.64H100.986V152H99.8342V145.64ZM100.41 144.416C100.186 144.416 99.9982 144.344 99.8462 144.2C99.7022 144.056 99.6302 143.88 99.6302 143.672C99.6302 143.464 99.7022 143.288 99.8462 143.144C99.9982 142.992 100.186 142.916 100.41 142.916C100.634 142.916 100.818 142.988 100.962 143.132C101.114 143.268 101.19 143.44 101.19 143.648C101.19 143.864 101.114 144.048 100.962 144.2C100.818 144.344 100.634 144.416 100.41 144.416ZM105.502 145.58C106.382 145.58 107.054 145.796 107.518 146.228C107.99 146.66 108.226 147.304 108.226 148.16V152H107.134V151.16C106.942 151.456 106.666 151.684 106.306 151.844C105.954 151.996 105.534 152.072 105.046 152.072C104.334 152.072 103.762 151.9 103.33 151.556C102.906 151.212 102.694 150.76 102.694 150.2C102.694 149.64 102.898 149.192 103.306 148.856C103.714 148.512 104.362 148.34 105.25 148.34H107.074V148.112C107.074 147.616 106.93 147.236 106.642 146.972C106.354 146.708 105.93 146.576 105.37 146.576C104.994 146.576 104.626 146.64 104.266 146.768C103.906 146.888 103.602 147.052 103.354 147.26L102.874 146.396C103.202 146.132 103.594 145.932 104.05 145.796C104.506 145.652 104.99 145.58 105.502 145.58ZM105.238 151.184C105.678 151.184 106.058 151.088 106.378 150.896C106.698 150.696 106.93 150.416 107.074 150.056V149.168H105.298C104.322 149.168 103.834 149.496 103.834 150.152C103.834 150.472 103.958 150.724 104.206 150.908C104.454 151.092 104.798 151.184 105.238 151.184ZM115.896 145.58C116.776 145.58 117.448 145.796 117.912 146.228C118.384 146.66 118.62 147.304 118.62 148.16V152H117.528V151.16C117.336 151.456 117.06 151.684 116.7 151.844C116.348 151.996 115.928 152.072 115.44 152.072C114.728 152.072 114.156 151.9 113.724 151.556C113.3 151.212 113.088 150.76 113.088 150.2C113.088 149.64 113.292 149.192 113.7 148.856C114.108 148.512 114.756 148.34 115.644 148.34H117.468V148.112C117.468 147.616 117.324 147.236 117.036 146.972C116.748 146.708 116.324 146.576 115.764 146.576C115.388 146.576 115.02 146.64 114.66 146.768C114.3 146.888 113.996 147.052 113.748 147.26L113.268 146.396C113.596 146.132 113.988 145.932 114.444 145.796C114.9 145.652 115.384 145.58 115.896 145.58ZM115.632 151.184C116.072 151.184 116.452 151.088 116.772 150.896C117.092 150.696 117.324 150.416 117.468 150.056V149.168H115.692C114.716 149.168 114.228 149.496 114.228 150.152C114.228 150.472 114.352 150.724 114.6 150.908C114.848 151.092 115.192 151.184 115.632 151.184ZM123.08 143.972C122.392 143.972 122.048 144.344 122.048 145.088V145.64H123.896V146.588H122.072V152H120.92V146.588H119.84V145.64H120.92V145.076C120.92 144.444 121.104 143.944 121.472 143.576C121.84 143.208 122.356 143.024 123.02 143.024C123.276 143.024 123.516 143.056 123.74 143.12C123.964 143.184 124.156 143.276 124.316 143.396L123.968 144.272C123.704 144.072 123.408 143.972 123.08 143.972ZM130.911 145.64V152H129.819V151.04C129.587 151.368 129.279 151.624 128.895 151.808C128.519 151.984 128.107 152.072 127.659 152.072C126.811 152.072 126.143 151.84 125.655 151.376C125.167 150.904 124.923 150.212 124.923 149.3V145.64H126.075V149.168C126.075 149.784 126.223 150.252 126.519 150.572C126.815 150.884 127.239 151.04 127.791 151.04C128.399 151.04 128.879 150.856 129.231 150.488C129.583 150.12 129.759 149.6 129.759 148.928V145.64H130.911ZM138.852 148.856C138.852 148.944 138.844 149.06 138.828 149.204H133.668C133.74 149.764 133.984 150.216 134.4 150.56C134.824 150.896 135.348 151.064 135.972 151.064C136.732 151.064 137.344 150.808 137.808 150.296L138.444 151.04C138.156 151.376 137.796 151.632 137.364 151.808C136.94 151.984 136.464 152.072 135.936 152.072C135.264 152.072 134.668 151.936 134.148 151.664C133.628 151.384 133.224 150.996 132.936 150.5C132.656 150.004 132.516 149.444 132.516 148.82C132.516 148.204 132.652 147.648 132.924 147.152C133.204 146.656 133.584 146.272 134.064 146C134.552 145.72 135.1 145.58 135.708 145.58C136.316 145.58 136.856 145.72 137.328 146C137.808 146.272 138.18 146.656 138.444 147.152C138.716 147.648 138.852 148.216 138.852 148.856ZM135.708 146.552C135.156 146.552 134.692 146.72 134.316 147.056C133.948 147.392 133.732 147.832 133.668 148.376H137.748C137.684 147.84 137.464 147.404 137.088 147.068C136.72 146.724 136.26 146.552 135.708 146.552ZM141.555 146.708C141.755 146.34 142.051 146.06 142.443 145.868C142.835 145.676 143.311 145.58 143.871 145.58V146.696C143.807 146.688 143.719 146.684 143.607 146.684C142.983 146.684 142.491 146.872 142.131 147.248C141.779 147.616 141.603 148.144 141.603 148.832V152H140.451V145.64H141.555V146.708ZM147.596 145.58C148.476 145.58 149.148 145.796 149.612 146.228C150.084 146.66 150.32 147.304 150.32 148.16V152H149.228V151.16C149.036 151.456 148.76 151.684 148.4 151.844C148.048 151.996 147.628 152.072 147.14 152.072C146.428 152.072 145.856 151.9 145.424 151.556C145 151.212 144.788 150.76 144.788 150.2C144.788 149.64 144.992 149.192 145.4 148.856C145.808 148.512 146.456 148.34 147.344 148.34H149.168V148.112C149.168 147.616 149.024 147.236 148.736 146.972C148.448 146.708 148.024 146.576 147.464 146.576C147.088 146.576 146.72 146.64 146.36 146.768C146 146.888 145.696 147.052 145.448 147.26L144.968 146.396C145.296 146.132 145.688 145.932 146.144 145.796C146.6 145.652 147.084 145.58 147.596 145.58ZM147.332 151.184C147.772 151.184 148.152 151.088 148.472 150.896C148.792 150.696 149.024 150.416 149.168 150.056V149.168H147.392C146.416 149.168 145.928 149.496 145.928 150.152C145.928 150.472 146.052 150.724 146.3 150.908C146.548 151.092 146.892 151.184 147.332 151.184ZM36.1339 160.58C36.7499 160.58 37.3019 160.716 37.7899 160.988C38.2779 161.26 38.6579 161.64 38.9299 162.128C39.2099 162.616 39.3499 163.18 39.3499 163.82C39.3499 164.46 39.2099 165.028 38.9299 165.524C38.6579 166.012 38.2779 166.392 37.7899 166.664C37.3019 166.936 36.7499 167.072 36.1339 167.072C35.6779 167.072 35.2579 166.984 34.8739 166.808C34.4979 166.632 34.1779 166.376 33.9139 166.04V169.328H32.7619V160.64H33.8659V161.648C34.1219 161.296 34.4459 161.032 34.8379 160.856C35.2299 160.672 35.6619 160.58 36.1339 160.58ZM36.0379 166.064C36.4459 166.064 36.8099 165.972 37.1299 165.788C37.4579 165.596 37.7139 165.332 37.8979 164.996C38.0899 164.652 38.1859 164.26 38.1859 163.82C38.1859 163.38 38.0899 162.992 37.8979 162.656C37.7139 162.312 37.4579 162.048 37.1299 161.864C36.8099 161.68 36.4459 161.588 36.0379 161.588C35.6379 161.588 35.2739 161.684 34.9459 161.876C34.6259 162.06 34.3699 162.32 34.1779 162.656C33.9939 162.992 33.9019 163.38 33.9019 163.82C33.9019 164.26 33.9939 164.652 34.1779 164.996C34.3619 165.332 34.6179 165.596 34.9459 165.788C35.2739 165.972 35.6379 166.064 36.0379 166.064ZM43.199 160.58C44.079 160.58 44.751 160.796 45.215 161.228C45.687 161.66 45.923 162.304 45.923 163.16V167H44.831V166.16C44.639 166.456 44.363 166.684 44.003 166.844C43.651 166.996 43.231 167.072 42.743 167.072C42.031 167.072 41.459 166.9 41.027 166.556C40.603 166.212 40.391 165.76 40.391 165.2C40.391 164.64 40.595 164.192 41.003 163.856C41.411 163.512 42.059 163.34 42.947 163.34H44.771V163.112C44.771 162.616 44.627 162.236 44.339 161.972C44.051 161.708 43.627 161.576 43.067 161.576C42.691 161.576 42.323 161.64 41.963 161.768C41.603 161.888 41.299 162.052 41.051 162.26L40.571 161.396C40.899 161.132 41.291 160.932 41.747 160.796C42.203 160.652 42.687 160.58 43.199 160.58ZM42.935 166.184C43.375 166.184 43.755 166.088 44.075 165.896C44.395 165.696 44.627 165.416 44.771 165.056V164.168H42.995C42.019 164.168 41.531 164.496 41.531 165.152C41.531 165.472 41.655 165.724 41.903 165.908C42.151 166.092 42.495 166.184 42.935 166.184ZM49.1589 161.708C49.3589 161.34 49.6549 161.06 50.0469 160.868C50.4389 160.676 50.9149 160.58 51.4749 160.58V161.696C51.4109 161.688 51.3229 161.684 51.2109 161.684C50.5869 161.684 50.0949 161.872 49.7349 162.248C49.3829 162.616 49.2069 163.144 49.2069 163.832V167H48.0549V160.64H49.1589V161.708ZM55.199 160.58C56.079 160.58 56.751 160.796 57.215 161.228C57.687 161.66 57.923 162.304 57.923 163.16V167H56.831V166.16C56.639 166.456 56.363 166.684 56.003 166.844C55.651 166.996 55.231 167.072 54.743 167.072C54.031 167.072 53.459 166.9 53.027 166.556C52.603 166.212 52.391 165.76 52.391 165.2C52.391 164.64 52.595 164.192 53.003 163.856C53.411 163.512 54.059 163.34 54.947 163.34H56.771V163.112C56.771 162.616 56.627 162.236 56.339 161.972C56.051 161.708 55.627 161.576 55.067 161.576C54.691 161.576 54.323 161.64 53.963 161.768C53.603 161.888 53.299 162.052 53.051 162.26L52.571 161.396C52.899 161.132 53.291 160.932 53.747 160.796C54.203 160.652 54.687 160.58 55.199 160.58ZM54.935 166.184C55.375 166.184 55.755 166.088 56.075 165.896C56.395 165.696 56.627 165.416 56.771 165.056V164.168H54.995C54.019 164.168 53.531 164.496 53.531 165.152C53.531 165.472 53.655 165.724 53.903 165.908C54.151 166.092 54.495 166.184 54.935 166.184ZM69.2775 158.096V167H68.1735V165.992C67.9175 166.344 67.5935 166.612 67.2015 166.796C66.8095 166.98 66.3775 167.072 65.9055 167.072C65.2895 167.072 64.7375 166.936 64.2495 166.664C63.7615 166.392 63.3775 166.012 63.0975 165.524C62.8255 165.028 62.6895 164.46 62.6895 163.82C62.6895 163.18 62.8255 162.616 63.0975 162.128C63.3775 161.64 63.7615 161.26 64.2495 160.988C64.7375 160.716 65.2895 160.58 65.9055 160.58C66.3615 160.58 66.7815 160.668 67.1655 160.844C67.5495 161.012 67.8695 161.264 68.1255 161.6V158.096H69.2775ZM66.0015 166.064C66.4015 166.064 66.7655 165.972 67.0935 165.788C67.4215 165.596 67.6775 165.332 67.8615 164.996C68.0455 164.652 68.1375 164.26 68.1375 163.82C68.1375 163.38 68.0455 162.992 67.8615 162.656C67.6775 162.312 67.4215 162.048 67.0935 161.864C66.7655 161.68 66.4015 161.588 66.0015 161.588C65.5935 161.588 65.2255 161.68 64.8975 161.864C64.5775 162.048 64.3215 162.312 64.1295 162.656C63.9455 162.992 63.8535 163.38 63.8535 163.82C63.8535 164.26 63.9455 164.652 64.1295 164.996C64.3215 165.332 64.5775 165.596 64.8975 165.788C65.2255 165.972 65.5935 166.064 66.0015 166.064ZM77.2052 163.856C77.2052 163.944 77.1972 164.06 77.1812 164.204H72.0212C72.0932 164.764 72.3372 165.216 72.7532 165.56C73.1772 165.896 73.7012 166.064 74.3252 166.064C75.0852 166.064 75.6972 165.808 76.1612 165.296L76.7972 166.04C76.5092 166.376 76.1492 166.632 75.7172 166.808C75.2932 166.984 74.8172 167.072 74.2892 167.072C73.6172 167.072 73.0212 166.936 72.5012 166.664C71.9812 166.384 71.5772 165.996 71.2892 165.5C71.0092 165.004 70.8692 164.444 70.8692 163.82C70.8692 163.204 71.0052 162.648 71.2772 162.152C71.5572 161.656 71.9372 161.272 72.4172 161C72.9052 160.72 73.4532 160.58 74.0612 160.58C74.6692 160.58 75.2092 160.72 75.6812 161C76.1612 161.272 76.5332 161.656 76.7972 162.152C77.0692 162.648 77.2052 163.216 77.2052 163.856ZM74.0612 161.552C73.5092 161.552 73.0452 161.72 72.6692 162.056C72.3012 162.392 72.0852 162.832 72.0212 163.376H76.1012C76.0372 162.84 75.8172 162.404 75.4412 162.068C75.0732 161.724 74.6132 161.552 74.0612 161.552ZM81.1329 158.972C80.4449 158.972 80.1009 159.344 80.1009 160.088V160.64H81.9489V161.588H80.1249V167H78.9729V161.588H77.8929V160.64H78.9729V160.076C78.9729 159.444 79.1569 158.944 79.5249 158.576C79.8929 158.208 80.4089 158.024 81.0729 158.024C81.3289 158.024 81.5689 158.056 81.7929 158.12C82.0169 158.184 82.2089 158.276 82.3689 158.396L82.0209 159.272C81.7569 159.072 81.4609 158.972 81.1329 158.972ZM84.0009 160.64H85.1529V167H84.0009V160.64ZM84.5769 159.416C84.3529 159.416 84.1649 159.344 84.0129 159.2C83.8689 159.056 83.7969 158.88 83.7969 158.672C83.7969 158.464 83.8689 158.288 84.0129 158.144C84.1649 157.992 84.3529 157.916 84.5769 157.916C84.8009 157.916 84.9849 157.988 85.1289 158.132C85.2809 158.268 85.3569 158.44 85.3569 158.648C85.3569 158.864 85.2809 159.048 85.1289 159.2C84.9849 159.344 84.8009 159.416 84.5769 159.416ZM90.7439 160.58C91.5519 160.58 92.1919 160.816 92.6639 161.288C93.1439 161.752 93.3839 162.436 93.3839 163.34V167H92.2319V163.472C92.2319 162.856 92.0839 162.392 91.7879 162.08C91.4919 161.768 91.0679 161.612 90.5159 161.612C89.8919 161.612 89.3999 161.796 89.0399 162.164C88.6799 162.524 88.4999 163.044 88.4999 163.724V167H87.3479V160.64H88.4519V161.6C88.6839 161.272 88.9959 161.02 89.3879 160.844C89.7879 160.668 90.2399 160.58 90.7439 160.58ZM95.5158 160.64H96.6678V167H95.5158V160.64ZM96.0918 159.416C95.8678 159.416 95.6798 159.344 95.5278 159.2C95.3838 159.056 95.3118 158.88 95.3118 158.672C95.3118 158.464 95.3838 158.288 95.5278 158.144C95.6798 157.992 95.8678 157.916 96.0918 157.916C96.3158 157.916 96.4998 157.988 96.6438 158.132C96.7958 158.268 96.8718 158.44 96.8718 158.648C96.8718 158.864 96.7958 159.048 96.6438 159.2C96.4998 159.344 96.3158 159.416 96.0918 159.416ZM99.9714 161.708C100.171 161.34 100.467 161.06 100.859 160.868C101.251 160.676 101.727 160.58 102.287 160.58V161.696C102.223 161.688 102.135 161.684 102.023 161.684C101.399 161.684 100.907 161.872 100.547 162.248C100.195 162.616 100.019 163.144 100.019 163.832V167H98.8674V160.64H99.9714V161.708ZM112.76 163.856C112.76 163.944 112.752 164.06 112.736 164.204H107.576C107.648 164.764 107.892 165.216 108.308 165.56C108.732 165.896 109.256 166.064 109.88 166.064C110.64 166.064 111.252 165.808 111.716 165.296L112.352 166.04C112.064 166.376 111.704 166.632 111.272 166.808C110.848 166.984 110.372 167.072 109.844 167.072C109.172 167.072 108.576 166.936 108.056 166.664C107.536 166.384 107.132 165.996 106.844 165.5C106.564 165.004 106.424 164.444 106.424 163.82C106.424 163.204 106.56 162.648 106.832 162.152C107.112 161.656 107.492 161.272 107.972 161C108.46 160.72 109.008 160.58 109.616 160.58C110.224 160.58 110.764 160.72 111.236 161C111.716 161.272 112.088 161.656 112.352 162.152C112.624 162.648 112.76 163.216 112.76 163.856ZM109.616 161.552C109.064 161.552 108.6 161.72 108.224 162.056C107.856 162.392 107.64 162.832 107.576 163.376H111.656C111.592 162.84 111.372 162.404 110.996 162.068C110.628 161.724 110.168 161.552 109.616 161.552ZM114.36 158.096H115.512V167H114.36V158.096ZM124.306 160.58C124.922 160.58 125.474 160.716 125.962 160.988C126.45 161.26 126.83 161.64 127.102 162.128C127.382 162.616 127.522 163.18 127.522 163.82C127.522 164.46 127.382 165.028 127.102 165.524C126.83 166.012 126.45 166.392 125.962 166.664C125.474 166.936 124.922 167.072 124.306 167.072C123.85 167.072 123.43 166.984 123.046 166.808C122.67 166.632 122.35 166.376 122.086 166.04V169.328H120.934V160.64H122.038V161.648C122.294 161.296 122.618 161.032 123.01 160.856C123.402 160.672 123.834 160.58 124.306 160.58ZM124.21 166.064C124.618 166.064 124.982 165.972 125.302 165.788C125.63 165.596 125.886 165.332 126.07 164.996C126.262 164.652 126.358 164.26 126.358 163.82C126.358 163.38 126.262 162.992 126.07 162.656C125.886 162.312 125.63 162.048 125.302 161.864C124.982 161.68 124.618 161.588 124.21 161.588C123.81 161.588 123.446 161.684 123.118 161.876C122.798 162.06 122.542 162.32 122.35 162.656C122.166 162.992 122.074 163.38 122.074 163.82C122.074 164.26 122.166 164.652 122.35 164.996C122.534 165.332 122.79 165.596 123.118 165.788C123.446 165.972 123.81 166.064 124.21 166.064ZM129.113 160.64H130.265V167H129.113V160.64ZM129.689 159.416C129.465 159.416 129.277 159.344 129.125 159.2C128.981 159.056 128.909 158.88 128.909 158.672C128.909 158.464 128.981 158.288 129.125 158.144C129.277 157.992 129.465 157.916 129.689 157.916C129.913 157.916 130.097 157.988 130.241 158.132C130.393 158.268 130.469 158.44 130.469 158.648C130.469 158.864 130.393 159.048 130.241 159.2C130.097 159.344 129.913 159.416 129.689 159.416ZM135.237 167.072C134.589 167.072 134.009 166.932 133.497 166.652C132.993 166.372 132.597 165.988 132.309 165.5C132.021 165.004 131.877 164.444 131.877 163.82C131.877 163.196 132.021 162.64 132.309 162.152C132.597 161.656 132.993 161.272 133.497 161C134.009 160.72 134.589 160.58 135.237 160.58C135.813 160.58 136.325 160.696 136.773 160.928C137.229 161.16 137.581 161.496 137.829 161.936L136.953 162.5C136.753 162.196 136.505 161.968 136.209 161.816C135.913 161.664 135.585 161.588 135.225 161.588C134.809 161.588 134.433 161.68 134.097 161.864C133.769 162.048 133.509 162.312 133.317 162.656C133.133 162.992 133.041 163.38 133.041 163.82C133.041 164.268 133.133 164.664 133.317 165.008C133.509 165.344 133.769 165.604 134.097 165.788C134.433 165.972 134.809 166.064 135.225 166.064C135.585 166.064 135.913 165.988 136.209 165.836C136.505 165.684 136.753 165.456 136.953 165.152L137.829 165.704C137.581 166.144 137.229 166.484 136.773 166.724C136.325 166.956 135.813 167.072 135.237 167.072ZM141.951 167.072C141.319 167.072 140.751 166.932 140.247 166.652C139.743 166.372 139.347 165.988 139.059 165.5C138.779 165.004 138.639 164.444 138.639 163.82C138.639 163.196 138.779 162.64 139.059 162.152C139.347 161.656 139.743 161.272 140.247 161C140.751 160.72 141.319 160.58 141.951 160.58C142.583 160.58 143.147 160.72 143.643 161C144.147 161.272 144.539 161.656 144.819 162.152C145.107 162.64 145.251 163.196 145.251 163.82C145.251 164.444 145.107 165.004 144.819 165.5C144.539 165.988 144.147 166.372 143.643 166.652C143.147 166.932 142.583 167.072 141.951 167.072ZM141.951 166.064C142.359 166.064 142.723 165.972 143.043 165.788C143.371 165.596 143.627 165.332 143.811 164.996C143.995 164.652 144.087 164.26 144.087 163.82C144.087 163.38 143.995 162.992 143.811 162.656C143.627 162.312 143.371 162.048 143.043 161.864C142.723 161.68 142.359 161.588 141.951 161.588C141.543 161.588 141.175 161.68 140.847 161.864C140.527 162.048 140.271 162.312 140.079 162.656C139.895 162.992 139.803 163.38 139.803 163.82C139.803 164.26 139.895 164.652 140.079 164.996C140.271 165.332 140.527 165.596 140.847 165.788C141.175 165.972 141.543 166.064 141.951 166.064ZM146.979 167.072C146.755 167.072 146.563 166.996 146.403 166.844C146.243 166.684 146.163 166.484 146.163 166.244C146.163 166.012 146.243 165.82 146.403 165.668C146.563 165.508 146.755 165.428 146.979 165.428C147.203 165.428 147.391 165.504 147.543 165.656C147.695 165.808 147.771 166.004 147.771 166.244C147.771 166.484 147.691 166.684 147.531 166.844C147.379 166.996 147.195 167.072 146.979 167.072Z" fill="#008E86"/>
<path d="M41 46.5L47.5 75L63.3138 72.8617L57.6569 50.9414L53.5 31L41 46.5Z" fill="#008E86" stroke="#00635D" stroke-width="2" stroke-linejoin="round"/>
<path d="M58 54.4109L81.2973 77.8218L58.1335 77.9922L58 54.4109Z" fill="#00D8CC" stroke="#00635D" stroke-width="2" stroke-linejoin="round"/>
<path d="M53.5003 31L76.7976 54.4109L76 68.9999L69 78.1627L53.7673 78.1627L45.5 48L53.5003 31Z" fill="#00D8CC" stroke="#00635D" stroke-width="2" stroke-linejoin="round"/>
<path d="M45.5 47.5L54.12 77.8101L63.3138 72.8617L57.6569 50.9414L50.5 38L45.5 47.5Z" fill="#008E86" stroke="#00635D" stroke-width="2" stroke-linejoin="round"/>
<path d="M45.5 48L76.5 31.5L53.5 31L45.5 48Z" fill="#008E86" stroke="#00635D" stroke-width="2" stroke-linejoin="round"/>
<path d="M52.707 56.0589L62.7743 72.1546L57.8245 50.9414L52.707 56.0589Z" fill="#00D8CC" stroke="#00635D" stroke-width="2" stroke-linejoin="round"/>
<path d="M52.707 56.0593L62.7743 72.155L67.0169 64.3769L52.707 56.0593Z" fill="#008E86" stroke="#00635D" stroke-width="2" stroke-linejoin="round"/>
<path d="M62 28L66 41" stroke="#333333" stroke-width="2" stroke-dasharray="4 4"/>
<path d="M54.8572 22.6203C54.3108 22.7004 53.9327 23.2083 54.0128 23.7547C54.0929 24.3012 54.6008 24.6792 55.1473 24.5991L54.8572 22.6203ZM89.1606 22.4929C89.4904 22.0499 89.3986 21.4234 88.9556 21.0937L81.736 15.7199C81.293 15.3901 80.6665 15.4819 80.3367 15.925C80.007 16.368 80.0988 16.9945 80.5418 17.3242L86.9592 22.1009L82.1825 28.5183C81.8527 28.9614 81.9445 29.5878 82.3876 29.9176C82.8306 30.2474 83.4571 30.1555 83.7868 29.7125L89.1606 22.4929ZM72.5202 21.0422L73.2238 21.7529C73.5308 21.449 73.6079 20.9822 73.415 20.5957C73.2221 20.2091 72.8027 19.9902 72.3752 20.0528L72.5202 21.0422ZM69.1727 24.7078L68.4692 23.9971C68.1622 24.3011 68.085 24.7678 68.278 25.1544C68.4709 25.5409 68.8903 25.7599 69.3177 25.6972L69.1727 24.7078ZM55.1473 24.5991C58.6399 24.0873 66.3619 22.9555 72.6653 22.0317L72.3752 20.0528C66.0718 20.9766 58.3499 22.1084 54.8572 22.6203L55.1473 24.5991ZM71.8167 20.3316C70.8405 21.298 70.5261 21.7024 70.1811 22.1365C69.8799 22.5157 69.5404 22.9368 68.4692 23.9971L69.8762 25.4185C71.0011 24.305 71.3941 23.8249 71.7471 23.3806C72.0564 22.9913 72.3177 22.6498 73.2238 21.7529L71.8167 20.3316ZM69.3177 25.6972C73.0715 25.1471 85.6538 23.3029 88.5035 22.8853L88.2135 20.9064C85.3637 21.3241 72.7815 23.1682 69.0277 23.7184L69.3177 25.6972Z" fill="black"/>
<g clip-path="url(#clip2_5717_206373)">
<path d="M155 51L125 60L138.5 59.5L155 51Z" fill="#008E86" stroke="#00635D" stroke-width="2" stroke-linejoin="round"/>
<path d="M117.57 37L160 80.1856L158.547 107.098L145.799 124L118.057 124L103 68.3595L117.57 37Z" fill="#00D8CC" stroke="#00635D" stroke-width="2" stroke-linejoin="round"/>
<path d="M142 52.5L131 53.4706L132 37.5L142 52.5Z" fill="#008E86" stroke="#00635D" stroke-width="2" stroke-linejoin="round"/>
<path d="M155.5 51L125 60L133 48L155.5 51Z" fill="#008E86" stroke="#00635D" stroke-width="2" stroke-linejoin="round"/>
<path d="M117.452 69.5L134.5 53.5L132 37.5L117.451 37L117.452 69.5Z" fill="#008E86" stroke="#00635D" stroke-width="2" stroke-linejoin="round"/>
<path d="M103 67.4202L118.485 123L135 113.926L124.838 73.7308L111.982 50L103 67.4202Z" fill="#008E86" stroke="#00635D" stroke-width="2" stroke-linejoin="round"/>
<path d="M103 69L134.5 54L132 37.5L117.452 37L103 69Z" fill="#008E86" stroke="#00635D" stroke-width="2" stroke-linejoin="round"/>
</g>
<rect x="100.612" y="21.6118" width="58.7763" height="58.7763" rx="29.3882" stroke="#333333" stroke-width="1.22369"/>
<path d="M66 27L69.2773 40" stroke="#333333" stroke-width="2" stroke-dasharray="4 4"/>
</g>
<defs>
<clipPath id="clip0_5717_206373">
<rect width="180" height="180" rx="20" fill="white"/>
</clipPath>
<clipPath id="clip1_5717_206373">
<path d="M0 30L-1.31134e-06 0L30 -1.31134e-06L30 10C30 21.0457 21.0457 30 10 30L0 30Z" fill="white"/>
</clipPath>
<clipPath id="clip2_5717_206373">
<rect x="100" y="21" width="60" height="60" rx="30" fill="white"/>
</clipPath>
</defs>
</svg>
