<svg width="180" height="180" viewBox="0 0 180 180" fill="none" xmlns="http://www.w3.org/2000/svg">
<g clip-path="url(#clip0_5726_207347)">
<rect width="180" height="180" rx="20" fill="#F2F2F2"/>
<g clip-path="url(#clip1_5726_207347)">
<path d="M0 30L-1.31134e-06 0L30 -1.31134e-06L30 10C30 21.0457 21.0457 30 10 30L0 30Z" fill="#333333"/>
<path d="M19.2733 18.888V21H10.8092V19.32L15.1293 15.24C15.5879 14.8027 15.8973 14.4293 16.0573 14.12C16.2173 13.8 16.2973 13.4853 16.2973 13.176C16.2973 12.728 16.1426 12.3867 15.8333 12.152C15.5346 11.9067 15.0919 11.784 14.5052 11.784C14.0146 11.784 13.5719 11.88 13.1773 12.072C12.7826 12.2533 12.4519 12.5307 12.1853 12.904L10.2973 11.688C10.7346 11.0373 11.3373 10.5307 12.1053 10.168C12.8733 9.79467 13.7533 9.608 14.7453 9.608C15.5773 9.608 16.3026 9.74667 16.9213 10.024C17.5506 10.2907 18.0359 10.6747 18.3773 11.176C18.7293 11.6667 18.9053 12.248 18.9053 12.92C18.9053 13.528 18.7773 14.0987 18.5213 14.632C18.2653 15.1653 17.7693 15.7733 17.0333 16.456L14.4573 18.888H19.2733Z" fill="#F2F2F2"/>
</g>
<path d="M40.0842 120.6H43.6242C44.5122 120.6 45.3002 120.776 45.9882 121.128C46.6762 121.48 47.2082 121.976 47.5842 122.616C47.9682 123.248 48.1602 123.976 48.1602 124.8C48.1602 125.624 47.9682 126.356 47.5842 126.996C47.2082 127.628 46.6762 128.12 45.9882 128.472C45.3002 128.824 44.5122 129 43.6242 129H40.0842V120.6ZM43.5522 127.956C44.2322 127.956 44.8282 127.824 45.3402 127.56C45.8602 127.296 46.2602 126.928 46.5402 126.456C46.8202 125.976 46.9602 125.424 46.9602 124.8C46.9602 124.176 46.8202 123.628 46.5402 123.156C46.2602 122.676 45.8602 122.304 45.3402 122.04C44.8282 121.776 44.2322 121.644 43.5522 121.644H41.2842V127.956H43.5522ZM52.5543 129.072C51.9223 129.072 51.3543 128.932 50.8503 128.652C50.3463 128.372 49.9503 127.988 49.6623 127.5C49.3823 127.004 49.2423 126.444 49.2423 125.82C49.2423 125.196 49.3823 124.64 49.6623 124.152C49.9503 123.656 50.3463 123.272 50.8503 123C51.3543 122.72 51.9223 122.58 52.5543 122.58C53.1863 122.58 53.7503 122.72 54.2463 123C54.7503 123.272 55.1423 123.656 55.4223 124.152C55.7103 124.64 55.8543 125.196 55.8543 125.82C55.8543 126.444 55.7103 127.004 55.4223 127.5C55.1423 127.988 54.7503 128.372 54.2463 128.652C53.7503 128.932 53.1863 129.072 52.5543 129.072ZM52.5543 128.064C52.9623 128.064 53.3263 127.972 53.6463 127.788C53.9743 127.596 54.2303 127.332 54.4143 126.996C54.5983 126.652 54.6903 126.26 54.6903 125.82C54.6903 125.38 54.5983 124.992 54.4143 124.656C54.2303 124.312 53.9743 124.048 53.6463 123.864C53.3263 123.68 52.9623 123.588 52.5543 123.588C52.1463 123.588 51.7783 123.68 51.4503 123.864C51.1303 124.048 50.8743 124.312 50.6823 124.656C50.4983 124.992 50.4063 125.38 50.4063 125.82C50.4063 126.26 50.4983 126.652 50.6823 126.996C50.8743 127.332 51.1303 127.596 51.4503 127.788C51.7783 127.972 52.1463 128.064 52.5543 128.064ZM60.8195 122.58C61.4355 122.58 61.9875 122.716 62.4755 122.988C62.9635 123.26 63.3435 123.64 63.6155 124.128C63.8955 124.616 64.0355 125.18 64.0355 125.82C64.0355 126.46 63.8955 127.028 63.6155 127.524C63.3435 128.012 62.9635 128.392 62.4755 128.664C61.9875 128.936 61.4355 129.072 60.8195 129.072C60.3475 129.072 59.9155 128.98 59.5235 128.796C59.1315 128.612 58.8075 128.344 58.5515 127.992V129H57.4475V120.096H58.5995V123.6C58.8555 123.264 59.1755 123.012 59.5595 122.844C59.9435 122.668 60.3635 122.58 60.8195 122.58ZM60.7235 128.064C61.1315 128.064 61.4955 127.972 61.8155 127.788C62.1435 127.596 62.3995 127.332 62.5835 126.996C62.7755 126.652 62.8715 126.26 62.8715 125.82C62.8715 125.38 62.7755 124.992 62.5835 124.656C62.3995 124.312 62.1435 124.048 61.8155 123.864C61.4955 123.68 61.1315 123.588 60.7235 123.588C60.3235 123.588 59.9595 123.68 59.6315 123.864C59.3035 124.048 59.0475 124.312 58.8635 124.656C58.6795 124.992 58.5875 125.38 58.5875 125.82C58.5875 126.26 58.6795 126.652 58.8635 126.996C59.0475 127.332 59.3035 127.596 59.6315 127.788C59.9595 127.972 60.3235 128.064 60.7235 128.064ZM65.6272 120.096H66.7792V129H65.6272V120.096ZM71.2947 122.58C72.1747 122.58 72.8467 122.796 73.3107 123.228C73.7827 123.66 74.0187 124.304 74.0187 125.16V129H72.9267V128.16C72.7347 128.456 72.4587 128.684 72.0987 128.844C71.7467 128.996 71.3267 129.072 70.8387 129.072C70.1267 129.072 69.5547 128.9 69.1227 128.556C68.6987 128.212 68.4867 127.76 68.4867 127.2C68.4867 126.64 68.6907 126.192 69.0987 125.856C69.5067 125.512 70.1547 125.34 71.0427 125.34H72.8667V125.112C72.8667 124.616 72.7227 124.236 72.4347 123.972C72.1467 123.708 71.7227 123.576 71.1627 123.576C70.7867 123.576 70.4187 123.64 70.0587 123.768C69.6987 123.888 69.3947 124.052 69.1467 124.26L68.6667 123.396C68.9947 123.132 69.3867 122.932 69.8427 122.796C70.2987 122.652 70.7827 122.58 71.2947 122.58ZM71.0307 128.184C71.4707 128.184 71.8507 128.088 72.1707 127.896C72.4907 127.696 72.7227 127.416 72.8667 127.056V126.168H71.0907C70.1147 126.168 69.6267 126.496 69.6267 127.152C69.6267 127.472 69.7507 127.724 69.9987 127.908C70.2467 128.092 70.5907 128.184 71.0307 128.184ZM85.3013 122.64V129H84.2093V128.04C83.9773 128.368 83.6693 128.624 83.2853 128.808C82.9093 128.984 82.4973 129.072 82.0493 129.072C81.2013 129.072 80.5333 128.84 80.0452 128.376C79.5573 127.904 79.3133 127.212 79.3133 126.3V122.64H80.4653V126.168C80.4653 126.784 80.6133 127.252 80.9093 127.572C81.2053 127.884 81.6293 128.04 82.1813 128.04C82.7893 128.04 83.2693 127.856 83.6213 127.488C83.9733 127.12 84.1493 126.6 84.1493 125.928V122.64H85.3013ZM90.8903 122.58C91.6983 122.58 92.3383 122.816 92.8103 123.288C93.2903 123.752 93.5303 124.436 93.5303 125.34V129H92.3783V125.472C92.3783 124.856 92.2303 124.392 91.9343 124.08C91.6383 123.768 91.2143 123.612 90.6623 123.612C90.0383 123.612 89.5463 123.796 89.1863 124.164C88.8263 124.524 88.6463 125.044 88.6463 125.724V129H87.4943V122.64H88.5983V123.6C88.8303 123.272 89.1423 123.02 89.5343 122.844C89.9343 122.668 90.3863 122.58 90.8903 122.58ZM98.4215 129.072C97.7895 129.072 97.2215 128.932 96.7175 128.652C96.2135 128.372 95.8175 127.988 95.5295 127.5C95.2495 127.004 95.1095 126.444 95.1095 125.82C95.1095 125.196 95.2495 124.64 95.5295 124.152C95.8175 123.656 96.2135 123.272 96.7175 123C97.2215 122.72 97.7895 122.58 98.4215 122.58C99.0535 122.58 99.6175 122.72 100.113 123C100.617 123.272 101.009 123.656 101.289 124.152C101.577 124.64 101.721 125.196 101.721 125.82C101.721 126.444 101.577 127.004 101.289 127.5C101.009 127.988 100.617 128.372 100.113 128.652C99.6175 128.932 99.0535 129.072 98.4215 129.072ZM98.4215 128.064C98.8295 128.064 99.1935 127.972 99.5135 127.788C99.8415 127.596 100.097 127.332 100.281 126.996C100.465 126.652 100.557 126.26 100.557 125.82C100.557 125.38 100.465 124.992 100.281 124.656C100.097 124.312 99.8415 124.048 99.5135 123.864C99.1935 123.68 98.8295 123.588 98.4215 123.588C98.0135 123.588 97.6455 123.68 97.3175 123.864C96.9975 124.048 96.7415 124.312 96.5495 124.656C96.3655 124.992 96.2735 125.38 96.2735 125.82C96.2735 126.26 96.3655 126.652 96.5495 126.996C96.7415 127.332 96.9975 127.596 97.3175 127.788C97.6455 127.972 98.0135 128.064 98.4215 128.064ZM112.537 120.096V129H111.433V127.992C111.177 128.344 110.853 128.612 110.461 128.796C110.069 128.98 109.637 129.072 109.165 129.072C108.549 129.072 107.997 128.936 107.509 128.664C107.021 128.392 106.637 128.012 106.357 127.524C106.085 127.028 105.949 126.46 105.949 125.82C105.949 125.18 106.085 124.616 106.357 124.128C106.637 123.64 107.021 123.26 107.509 122.988C107.997 122.716 108.549 122.58 109.165 122.58C109.621 122.58 110.041 122.668 110.425 122.844C110.809 123.012 111.129 123.264 111.385 123.6V120.096H112.537ZM109.261 128.064C109.661 128.064 110.025 127.972 110.353 127.788C110.681 127.596 110.937 127.332 111.121 126.996C111.305 126.652 111.397 126.26 111.397 125.82C111.397 125.38 111.305 124.992 111.121 124.656C110.937 124.312 110.681 124.048 110.353 123.864C110.025 123.68 109.661 123.588 109.261 123.588C108.853 123.588 108.485 123.68 108.157 123.864C107.837 124.048 107.581 124.312 107.389 124.656C107.205 124.992 107.113 125.38 107.113 125.82C107.113 126.26 107.205 126.652 107.389 126.996C107.581 127.332 107.837 127.596 108.157 127.788C108.485 127.972 108.853 128.064 109.261 128.064ZM120.465 125.856C120.465 125.944 120.457 126.06 120.441 126.204H115.281C115.353 126.764 115.597 127.216 116.013 127.56C116.437 127.896 116.961 128.064 117.585 128.064C118.345 128.064 118.957 127.808 119.421 127.296L120.057 128.04C119.769 128.376 119.409 128.632 118.977 128.808C118.553 128.984 118.077 129.072 117.549 129.072C116.877 129.072 116.281 128.936 115.761 128.664C115.241 128.384 114.837 127.996 114.549 127.5C114.269 127.004 114.129 126.444 114.129 125.82C114.129 125.204 114.265 124.648 114.537 124.152C114.817 123.656 115.197 123.272 115.677 123C116.165 122.72 116.713 122.58 117.321 122.58C117.929 122.58 118.469 122.72 118.941 123C119.421 123.272 119.793 123.656 120.057 124.152C120.329 124.648 120.465 125.216 120.465 125.856ZM117.321 123.552C116.769 123.552 116.305 123.72 115.929 124.056C115.561 124.392 115.345 124.832 115.281 125.376H119.361C119.297 124.84 119.077 124.404 118.701 124.068C118.333 123.724 117.873 123.552 117.321 123.552ZM125.287 120.096H126.439V129H125.287V120.096ZM131.363 129.072C130.731 129.072 130.163 128.932 129.659 128.652C129.155 128.372 128.759 127.988 128.471 127.5C128.191 127.004 128.051 126.444 128.051 125.82C128.051 125.196 128.191 124.64 128.471 124.152C128.759 123.656 129.155 123.272 129.659 123C130.163 122.72 130.731 122.58 131.363 122.58C131.995 122.58 132.559 122.72 133.055 123C133.559 123.272 133.951 123.656 134.231 124.152C134.519 124.64 134.663 125.196 134.663 125.82C134.663 126.444 134.519 127.004 134.231 127.5C133.951 127.988 133.559 128.372 133.055 128.652C132.559 128.932 131.995 129.072 131.363 129.072ZM131.363 128.064C131.771 128.064 132.135 127.972 132.455 127.788C132.783 127.596 133.039 127.332 133.223 126.996C133.407 126.652 133.499 126.26 133.499 125.82C133.499 125.38 133.407 124.992 133.223 124.656C133.039 124.312 132.783 124.048 132.455 123.864C132.135 123.68 131.771 123.588 131.363 123.588C130.955 123.588 130.587 123.68 130.259 123.864C129.939 124.048 129.683 124.312 129.491 124.656C129.307 124.992 129.215 125.38 129.215 125.82C129.215 126.26 129.307 126.652 129.491 126.996C129.683 127.332 129.939 127.596 130.259 127.788C130.587 127.972 130.955 128.064 131.363 128.064ZM138.08 129.072C137.56 129.072 137.06 129.004 136.58 128.868C136.1 128.724 135.724 128.544 135.452 128.328L135.932 127.416C136.212 127.616 136.552 127.776 136.952 127.896C137.352 128.016 137.756 128.076 138.164 128.076C139.172 128.076 139.676 127.788 139.676 127.212C139.676 127.02 139.608 126.868 139.472 126.756C139.336 126.644 139.164 126.564 138.956 126.516C138.756 126.46 138.468 126.4 138.092 126.336C137.58 126.256 137.16 126.164 136.832 126.06C136.512 125.956 136.236 125.78 136.004 125.532C135.772 125.284 135.656 124.936 135.656 124.488C135.656 123.912 135.896 123.452 136.376 123.108C136.856 122.756 137.5 122.58 138.308 122.58C138.732 122.58 139.156 122.632 139.58 122.736C140.004 122.84 140.352 122.98 140.624 123.156L140.132 124.068C139.612 123.732 139 123.564 138.296 123.564C137.808 123.564 137.436 123.644 137.18 123.804C136.924 123.964 136.796 124.176 136.796 124.44C136.796 124.648 136.868 124.812 137.012 124.932C137.156 125.052 137.332 125.14 137.54 125.196C137.756 125.252 138.056 125.316 138.44 125.388C138.952 125.476 139.364 125.572 139.676 125.676C139.996 125.772 140.268 125.94 140.492 126.18C140.716 126.42 140.828 126.756 140.828 127.188C140.828 127.764 140.58 128.224 140.084 128.568C139.596 128.904 138.928 129.072 138.08 129.072ZM35.616 144.072C34.968 144.072 34.388 143.932 33.876 143.652C33.372 143.372 32.976 142.988 32.688 142.5C32.4 142.004 32.256 141.444 32.256 140.82C32.256 140.196 32.4 139.64 32.688 139.152C32.976 138.656 33.372 138.272 33.876 138C34.388 137.72 34.968 137.58 35.616 137.58C36.192 137.58 36.704 137.696 37.152 137.928C37.608 138.16 37.96 138.496 38.208 138.936L37.332 139.5C37.132 139.196 36.884 138.968 36.588 138.816C36.292 138.664 35.964 138.588 35.604 138.588C35.188 138.588 34.812 138.68 34.476 138.864C34.148 139.048 33.888 139.312 33.696 139.656C33.512 139.992 33.42 140.38 33.42 140.82C33.42 141.268 33.512 141.664 33.696 142.008C33.888 142.344 34.148 142.604 34.476 142.788C34.812 142.972 35.188 143.064 35.604 143.064C35.964 143.064 36.292 142.988 36.588 142.836C36.884 142.684 37.132 142.456 37.332 142.152L38.208 142.704C37.96 143.144 37.608 143.484 37.152 143.724C36.704 143.956 36.192 144.072 35.616 144.072ZM42.3297 144.072C41.6977 144.072 41.1297 143.932 40.6257 143.652C40.1217 143.372 39.7257 142.988 39.4377 142.5C39.1577 142.004 39.0177 141.444 39.0177 140.82C39.0177 140.196 39.1577 139.64 39.4377 139.152C39.7257 138.656 40.1217 138.272 40.6257 138C41.1297 137.72 41.6977 137.58 42.3297 137.58C42.9617 137.58 43.5257 137.72 44.0217 138C44.5257 138.272 44.9177 138.656 45.1977 139.152C45.4857 139.64 45.6297 140.196 45.6297 140.82C45.6297 141.444 45.4857 142.004 45.1977 142.5C44.9177 142.988 44.5257 143.372 44.0217 143.652C43.5257 143.932 42.9617 144.072 42.3297 144.072ZM42.3297 143.064C42.7377 143.064 43.1017 142.972 43.4217 142.788C43.7497 142.596 44.0057 142.332 44.1897 141.996C44.3737 141.652 44.4657 141.26 44.4657 140.82C44.4657 140.38 44.3737 139.992 44.1897 139.656C44.0057 139.312 43.7497 139.048 43.4217 138.864C43.1017 138.68 42.7377 138.588 42.3297 138.588C41.9217 138.588 41.5537 138.68 41.2257 138.864C40.9057 139.048 40.6497 139.312 40.4577 139.656C40.2737 139.992 40.1817 140.38 40.1817 140.82C40.1817 141.26 40.2737 141.652 40.4577 141.996C40.6497 142.332 40.9057 142.596 41.2257 142.788C41.5537 142.972 41.9217 143.064 42.3297 143.064ZM49.0469 144.072C48.5269 144.072 48.0269 144.004 47.5469 143.868C47.0669 143.724 46.6909 143.544 46.4189 143.328L46.8989 142.416C47.1789 142.616 47.5189 142.776 47.9189 142.896C48.3189 143.016 48.7229 143.076 49.1309 143.076C50.1389 143.076 50.6429 142.788 50.6429 142.212C50.6429 142.02 50.5749 141.868 50.4389 141.756C50.3029 141.644 50.1309 141.564 49.9229 141.516C49.7229 141.46 49.4349 141.4 49.0589 141.336C48.5469 141.256 48.1269 141.164 47.7989 141.06C47.4789 140.956 47.2029 140.78 46.9709 140.532C46.7389 140.284 46.6229 139.936 46.6229 139.488C46.6229 138.912 46.8629 138.452 47.3429 138.108C47.8229 137.756 48.4669 137.58 49.2749 137.58C49.6989 137.58 50.1229 137.632 50.5469 137.736C50.9709 137.84 51.3189 137.98 51.5909 138.156L51.0989 139.068C50.5789 138.732 49.9669 138.564 49.2629 138.564C48.7749 138.564 48.4029 138.644 48.1469 138.804C47.8909 138.964 47.7629 139.176 47.7629 139.44C47.7629 139.648 47.8349 139.812 47.9789 139.932C48.1229 140.052 48.2989 140.14 48.5069 140.196C48.7229 140.252 49.0229 140.316 49.4069 140.388C49.9189 140.476 50.3309 140.572 50.6429 140.676C50.9629 140.772 51.2349 140.94 51.4589 141.18C51.6829 141.42 51.7949 141.756 51.7949 142.188C51.7949 142.764 51.5469 143.224 51.0509 143.568C50.5629 143.904 49.8949 144.072 49.0469 144.072ZM56.8106 143.628C56.6426 143.772 56.4346 143.884 56.1866 143.964C55.9386 144.036 55.6826 144.072 55.4186 144.072C54.7786 144.072 54.2826 143.9 53.9306 143.556C53.5786 143.212 53.4026 142.72 53.4026 142.08V138.588H52.3226V137.64H53.4026V136.248H54.5546V137.64H56.3786V138.588H54.5546V142.032C54.5546 142.376 54.6386 142.64 54.8066 142.824C54.9826 143.008 55.2306 143.1 55.5506 143.1C55.9026 143.1 56.2026 143 56.4506 142.8L56.8106 143.628ZM60.5193 137.58C61.3993 137.58 62.0713 137.796 62.5353 138.228C63.0073 138.66 63.2433 139.304 63.2433 140.16V144H62.1513V143.16C61.9593 143.456 61.6833 143.684 61.3233 143.844C60.9713 143.996 60.5513 144.072 60.0633 144.072C59.3513 144.072 58.7793 143.9 58.3473 143.556C57.9233 143.212 57.7113 142.76 57.7113 142.2C57.7113 141.64 57.9153 141.192 58.3233 140.856C58.7313 140.512 59.3793 140.34 60.2673 140.34H62.0913V140.112C62.0913 139.616 61.9473 139.236 61.6593 138.972C61.3713 138.708 60.9473 138.576 60.3873 138.576C60.0113 138.576 59.6433 138.64 59.2833 138.768C58.9233 138.888 58.6193 139.052 58.3713 139.26L57.8913 138.396C58.2193 138.132 58.6113 137.932 59.0673 137.796C59.5233 137.652 60.0073 137.58 60.5193 137.58ZM60.2553 143.184C60.6953 143.184 61.0753 143.088 61.3953 142.896C61.7153 142.696 61.9473 142.416 62.0913 142.056V141.168H60.3153C59.3393 141.168 58.8513 141.496 58.8513 142.152C58.8513 142.472 58.9753 142.724 59.2233 142.908C59.4713 143.092 59.8153 143.184 60.2553 143.184ZM71.4104 135.096V144H70.3064V142.992C70.0504 143.344 69.7264 143.612 69.3344 143.796C68.9424 143.98 68.5104 144.072 68.0384 144.072C67.4224 144.072 66.8704 143.936 66.3824 143.664C65.8944 143.392 65.5104 143.012 65.2304 142.524C64.9584 142.028 64.8224 141.46 64.8224 140.82C64.8224 140.18 64.9584 139.616 65.2304 139.128C65.5104 138.64 65.8944 138.26 66.3824 137.988C66.8704 137.716 67.4224 137.58 68.0384 137.58C68.4944 137.58 68.9144 137.668 69.2984 137.844C69.6824 138.012 70.0024 138.264 70.2584 138.6V135.096H71.4104ZM68.1344 143.064C68.5344 143.064 68.8984 142.972 69.2264 142.788C69.5544 142.596 69.8104 142.332 69.9944 141.996C70.1784 141.652 70.2704 141.26 70.2704 140.82C70.2704 140.38 70.1784 139.992 69.9944 139.656C69.8104 139.312 69.5544 139.048 69.2264 138.864C68.8984 138.68 68.5344 138.588 68.1344 138.588C67.7264 138.588 67.3584 138.68 67.0304 138.864C66.7104 139.048 66.4544 139.312 66.2624 139.656C66.0784 139.992 65.9864 140.38 65.9864 140.82C65.9864 141.26 66.0784 141.652 66.2624 141.996C66.4544 142.332 66.7104 142.596 67.0304 142.788C67.3584 142.972 67.7264 143.064 68.1344 143.064ZM76.314 144.072C75.682 144.072 75.114 143.932 74.61 143.652C74.106 143.372 73.71 142.988 73.422 142.5C73.142 142.004 73.002 141.444 73.002 140.82C73.002 140.196 73.142 139.64 73.422 139.152C73.71 138.656 74.106 138.272 74.61 138C75.114 137.72 75.682 137.58 76.314 137.58C76.946 137.58 77.51 137.72 78.006 138C78.51 138.272 78.902 138.656 79.182 139.152C79.47 139.64 79.614 140.196 79.614 140.82C79.614 141.444 79.47 142.004 79.182 142.5C78.902 142.988 78.51 143.372 78.006 143.652C77.51 143.932 76.946 144.072 76.314 144.072ZM76.314 143.064C76.722 143.064 77.086 142.972 77.406 142.788C77.734 142.596 77.99 142.332 78.174 141.996C78.358 141.652 78.45 141.26 78.45 140.82C78.45 140.38 78.358 139.992 78.174 139.656C77.99 139.312 77.734 139.048 77.406 138.864C77.086 138.68 76.722 138.588 76.314 138.588C75.906 138.588 75.538 138.68 75.21 138.864C74.89 139.048 74.634 139.312 74.442 139.656C74.258 139.992 74.166 140.38 74.166 140.82C74.166 141.26 74.258 141.652 74.442 141.996C74.634 142.332 74.89 142.596 75.21 142.788C75.538 142.972 75.906 143.064 76.314 143.064ZM83.0312 144.072C82.5112 144.072 82.0112 144.004 81.5312 143.868C81.0512 143.724 80.6752 143.544 80.4032 143.328L80.8832 142.416C81.1632 142.616 81.5032 142.776 81.9032 142.896C82.3032 143.016 82.7072 143.076 83.1152 143.076C84.1232 143.076 84.6272 142.788 84.6272 142.212C84.6272 142.02 84.5592 141.868 84.4232 141.756C84.2872 141.644 84.1152 141.564 83.9072 141.516C83.7072 141.46 83.4192 141.4 83.0432 141.336C82.5312 141.256 82.1112 141.164 81.7832 141.06C81.4632 140.956 81.1872 140.78 80.9552 140.532C80.7232 140.284 80.6072 139.936 80.6072 139.488C80.6072 138.912 80.8472 138.452 81.3272 138.108C81.8072 137.756 82.4512 137.58 83.2592 137.58C83.6832 137.58 84.1072 137.632 84.5312 137.736C84.9552 137.84 85.3032 137.98 85.5752 138.156L85.0832 139.068C84.5632 138.732 83.9512 138.564 83.2472 138.564C82.7592 138.564 82.3872 138.644 82.1312 138.804C81.8752 138.964 81.7472 139.176 81.7472 139.44C81.7472 139.648 81.8192 139.812 81.9632 139.932C82.1072 140.052 82.2832 140.14 82.4912 140.196C82.7072 140.252 83.0072 140.316 83.3912 140.388C83.9032 140.476 84.3152 140.572 84.6272 140.676C84.9472 140.772 85.2192 140.94 85.4432 141.18C85.6672 141.42 85.7792 141.756 85.7792 142.188C85.7792 142.764 85.5312 143.224 85.0352 143.568C84.5472 143.904 83.8792 144.072 83.0312 144.072ZM96.4416 135.096V144H95.3376V142.992C95.0816 143.344 94.7576 143.612 94.3656 143.796C93.9736 143.98 93.5416 144.072 93.0696 144.072C92.4536 144.072 91.9016 143.936 91.4136 143.664C90.9256 143.392 90.5416 143.012 90.2616 142.524C89.9896 142.028 89.8536 141.46 89.8536 140.82C89.8536 140.18 89.9896 139.616 90.2616 139.128C90.5416 138.64 90.9256 138.26 91.4136 137.988C91.9016 137.716 92.4536 137.58 93.0696 137.58C93.5256 137.58 93.9456 137.668 94.3296 137.844C94.7136 138.012 95.0336 138.264 95.2896 138.6V135.096H96.4416ZM93.1656 143.064C93.5656 143.064 93.9296 142.972 94.2576 142.788C94.5856 142.596 94.8416 142.332 95.0256 141.996C95.2096 141.652 95.3016 141.26 95.3016 140.82C95.3016 140.38 95.2096 139.992 95.0256 139.656C94.8416 139.312 94.5856 139.048 94.2576 138.864C93.9296 138.68 93.5656 138.588 93.1656 138.588C92.7576 138.588 92.3896 138.68 92.0616 138.864C91.7416 139.048 91.4856 139.312 91.2936 139.656C91.1096 139.992 91.0176 140.38 91.0176 140.82C91.0176 141.26 91.1096 141.652 91.2936 141.996C91.4856 142.332 91.7416 142.596 92.0616 142.788C92.3896 142.972 92.7576 143.064 93.1656 143.064ZM104.369 140.856C104.369 140.944 104.361 141.06 104.345 141.204H99.1853C99.2573 141.764 99.5013 142.216 99.9173 142.56C100.341 142.896 100.865 143.064 101.489 143.064C102.249 143.064 102.861 142.808 103.325 142.296L103.961 143.04C103.673 143.376 103.313 143.632 102.881 143.808C102.457 143.984 101.981 144.072 101.453 144.072C100.781 144.072 100.185 143.936 99.6653 143.664C99.1453 143.384 98.7413 142.996 98.4533 142.5C98.1733 142.004 98.0333 141.444 98.0333 140.82C98.0333 140.204 98.1693 139.648 98.4413 139.152C98.7213 138.656 99.1013 138.272 99.5813 138C100.069 137.72 100.617 137.58 101.225 137.58C101.833 137.58 102.373 137.72 102.845 138C103.325 138.272 103.697 138.656 103.961 139.152C104.233 139.648 104.369 140.216 104.369 140.856ZM101.225 138.552C100.673 138.552 100.209 138.72 99.8333 139.056C99.4653 139.392 99.2493 139.832 99.1853 140.376H103.265C103.201 139.84 102.981 139.404 102.605 139.068C102.237 138.724 101.777 138.552 101.225 138.552ZM109.192 135.096H110.344V144H109.192V135.096ZM114.859 137.58C115.739 137.58 116.411 137.796 116.875 138.228C117.347 138.66 117.583 139.304 117.583 140.16V144H116.491V143.16C116.299 143.456 116.023 143.684 115.663 143.844C115.311 143.996 114.891 144.072 114.403 144.072C113.691 144.072 113.119 143.9 112.687 143.556C112.263 143.212 112.051 142.76 112.051 142.2C112.051 141.64 112.255 141.192 112.663 140.856C113.071 140.512 113.719 140.34 114.607 140.34H116.431V140.112C116.431 139.616 116.287 139.236 115.999 138.972C115.711 138.708 115.287 138.576 114.727 138.576C114.351 138.576 113.983 138.64 113.623 138.768C113.263 138.888 112.959 139.052 112.711 139.26L112.231 138.396C112.559 138.132 112.951 137.932 113.407 137.796C113.863 137.652 114.347 137.58 114.859 137.58ZM114.595 143.184C115.035 143.184 115.415 143.088 115.735 142.896C116.055 142.696 116.287 142.416 116.431 142.056V141.168H114.655C113.679 141.168 113.191 141.496 113.191 142.152C113.191 142.472 113.315 142.724 113.563 142.908C113.811 143.092 114.155 143.184 114.595 143.184ZM126.334 137.58C127.142 137.58 127.782 137.816 128.254 138.288C128.734 138.752 128.974 139.436 128.974 140.34V144H127.822V140.472C127.822 139.856 127.674 139.392 127.378 139.08C127.082 138.768 126.658 138.612 126.106 138.612C125.482 138.612 124.99 138.796 124.63 139.164C124.27 139.524 124.09 140.044 124.09 140.724V144H122.938V135.096H124.09V138.54C124.33 138.236 124.642 138 125.026 137.832C125.418 137.664 125.854 137.58 126.334 137.58ZM133.865 144.072C133.233 144.072 132.665 143.932 132.161 143.652C131.657 143.372 131.261 142.988 130.973 142.5C130.693 142.004 130.553 141.444 130.553 140.82C130.553 140.196 130.693 139.64 130.973 139.152C131.261 138.656 131.657 138.272 132.161 138C132.665 137.72 133.233 137.58 133.865 137.58C134.497 137.58 135.061 137.72 135.557 138C136.061 138.272 136.453 138.656 136.733 139.152C137.021 139.64 137.165 140.196 137.165 140.82C137.165 141.444 137.021 142.004 136.733 142.5C136.453 142.988 136.061 143.372 135.557 143.652C135.061 143.932 134.497 144.072 133.865 144.072ZM133.865 143.064C134.273 143.064 134.637 142.972 134.957 142.788C135.285 142.596 135.541 142.332 135.725 141.996C135.909 141.652 136.001 141.26 136.001 140.82C136.001 140.38 135.909 139.992 135.725 139.656C135.541 139.312 135.285 139.048 134.957 138.864C134.637 138.68 134.273 138.588 133.865 138.588C133.457 138.588 133.089 138.68 132.761 138.864C132.441 139.048 132.185 139.312 131.993 139.656C131.809 139.992 131.717 140.38 131.717 140.82C131.717 141.26 131.809 141.652 131.993 141.996C132.185 142.332 132.441 142.596 132.761 142.788C133.089 142.972 133.457 143.064 133.865 143.064ZM137.942 146.4C137.662 146.4 137.402 146.368 137.162 146.304C136.922 146.24 136.722 146.144 136.562 146.016L136.934 145.128C137.174 145.328 137.486 145.428 137.87 145.428C138.174 145.428 138.406 145.332 138.566 145.14C138.734 144.956 138.818 144.68 138.818 144.312V137.64H139.97V144.288C139.97 144.944 139.794 145.46 139.442 145.836C139.09 146.212 138.59 146.4 137.942 146.4ZM139.394 136.416C139.17 136.416 138.982 136.344 138.83 136.2C138.686 136.056 138.614 135.88 138.614 135.672C138.614 135.464 138.686 135.288 138.83 135.144C138.982 134.992 139.17 134.916 139.394 134.916C139.618 134.916 139.802 134.988 139.946 135.132C140.098 135.268 140.174 135.44 140.174 135.648C140.174 135.864 140.098 136.048 139.946 136.2C139.802 136.344 139.618 136.416 139.394 136.416ZM144.484 137.58C145.364 137.58 146.036 137.796 146.5 138.228C146.972 138.66 147.208 139.304 147.208 140.16V144H146.116V143.16C145.924 143.456 145.648 143.684 145.288 143.844C144.936 143.996 144.516 144.072 144.028 144.072C143.316 144.072 142.744 143.9 142.312 143.556C141.888 143.212 141.676 142.76 141.676 142.2C141.676 141.64 141.88 141.192 142.288 140.856C142.696 140.512 143.344 140.34 144.232 140.34H146.056V140.112C146.056 139.616 145.912 139.236 145.624 138.972C145.336 138.708 144.912 138.576 144.352 138.576C143.976 138.576 143.608 138.64 143.248 138.768C142.888 138.888 142.584 139.052 142.336 139.26L141.856 138.396C142.184 138.132 142.576 137.932 143.032 137.796C143.488 137.652 143.972 137.58 144.484 137.58ZM144.22 143.184C144.66 143.184 145.04 143.088 145.36 142.896C145.68 142.696 145.912 142.416 146.056 142.056V141.168H144.28C143.304 141.168 142.816 141.496 142.816 142.152C142.816 142.472 142.94 142.724 143.188 142.908C143.436 143.092 143.78 143.184 144.22 143.184ZM48.4275 152.58C49.2355 152.58 49.8755 152.816 50.3475 153.288C50.8275 153.752 51.0675 154.436 51.0675 155.34V159H49.9155V155.472C49.9155 154.856 49.7675 154.392 49.4715 154.08C49.1755 153.768 48.7515 153.612 48.1995 153.612C47.5755 153.612 47.0835 153.796 46.7235 154.164C46.3635 154.524 46.1835 155.044 46.1835 155.724V159H45.0315V150.096H46.1835V153.54C46.4235 153.236 46.7355 153 47.1195 152.832C47.5115 152.664 47.9475 152.58 48.4275 152.58ZM55.5154 152.58C56.3954 152.58 57.0674 152.796 57.5314 153.228C58.0034 153.66 58.2394 154.304 58.2394 155.16V159H57.1474V158.16C56.9554 158.456 56.6794 158.684 56.3194 158.844C55.9674 158.996 55.5474 159.072 55.0594 159.072C54.3474 159.072 53.7754 158.9 53.3434 158.556C52.9194 158.212 52.7074 157.76 52.7074 157.2C52.7074 156.64 52.9114 156.192 53.3194 155.856C53.7274 155.512 54.3754 155.34 55.2634 155.34H57.0874V155.112C57.0874 154.616 56.9434 154.236 56.6554 153.972C56.3674 153.708 55.9434 153.576 55.3834 153.576C55.0074 153.576 54.6394 153.64 54.2794 153.768C53.9194 153.888 53.6154 154.052 53.3674 154.26L52.8874 153.396C53.2154 153.132 53.6074 152.932 54.0634 152.796C54.5194 152.652 55.0034 152.58 55.5154 152.58ZM55.2514 158.184C55.6914 158.184 56.0714 158.088 56.3914 157.896C56.7114 157.696 56.9434 157.416 57.0874 157.056V156.168H55.3114C54.3354 156.168 53.8474 156.496 53.8474 157.152C53.8474 157.472 53.9714 157.724 54.2194 157.908C54.4674 158.092 54.8114 158.184 55.2514 158.184ZM63.1785 159.072C62.5305 159.072 61.9505 158.932 61.4385 158.652C60.9345 158.372 60.5385 157.988 60.2505 157.5C59.9625 157.004 59.8185 156.444 59.8185 155.82C59.8185 155.196 59.9625 154.64 60.2505 154.152C60.5385 153.656 60.9345 153.272 61.4385 153C61.9505 152.72 62.5305 152.58 63.1785 152.58C63.7545 152.58 64.2665 152.696 64.7145 152.928C65.1705 153.16 65.5225 153.496 65.7705 153.936L64.8945 154.5C64.6945 154.196 64.4465 153.968 64.1505 153.816C63.8545 153.664 63.5265 153.588 63.1665 153.588C62.7505 153.588 62.3745 153.68 62.0385 153.864C61.7105 154.048 61.4505 154.312 61.2585 154.656C61.0745 154.992 60.9825 155.38 60.9825 155.82C60.9825 156.268 61.0745 156.664 61.2585 157.008C61.4505 157.344 61.7105 157.604 62.0385 157.788C62.3745 157.972 62.7505 158.064 63.1665 158.064C63.5265 158.064 63.8545 157.988 64.1505 157.836C64.4465 157.684 64.6945 157.456 64.8945 157.152L65.7705 157.704C65.5225 158.144 65.1705 158.484 64.7145 158.724C64.2665 158.956 63.7545 159.072 63.1785 159.072ZM67.2619 152.64H68.4139V159H67.2619V152.64ZM67.8379 151.416C67.6139 151.416 67.4259 151.344 67.2739 151.2C67.1299 151.056 67.0579 150.88 67.0579 150.672C67.0579 150.464 67.1299 150.288 67.2739 150.144C67.4259 149.992 67.6139 149.916 67.8379 149.916C68.0619 149.916 68.2459 149.988 68.3899 150.132C68.5419 150.268 68.6179 150.44 68.6179 150.648C68.6179 150.864 68.5419 151.048 68.3899 151.2C68.2459 151.344 68.0619 151.416 67.8379 151.416ZM72.9295 152.58C73.8095 152.58 74.4815 152.796 74.9455 153.228C75.4175 153.66 75.6535 154.304 75.6535 155.16V159H74.5615V158.16C74.3695 158.456 74.0935 158.684 73.7335 158.844C73.3815 158.996 72.9615 159.072 72.4735 159.072C71.7615 159.072 71.1895 158.9 70.7575 158.556C70.3335 158.212 70.1215 157.76 70.1215 157.2C70.1215 156.64 70.3255 156.192 70.7335 155.856C71.1415 155.512 71.7895 155.34 72.6775 155.34H74.5015V155.112C74.5015 154.616 74.3575 154.236 74.0695 153.972C73.7815 153.708 73.3575 153.576 72.7975 153.576C72.4215 153.576 72.0535 153.64 71.6935 153.768C71.3335 153.888 71.0295 154.052 70.7815 154.26L70.3015 153.396C70.6295 153.132 71.0215 152.932 71.4775 152.796C71.9335 152.652 72.4175 152.58 72.9295 152.58ZM72.6655 158.184C73.1055 158.184 73.4855 158.088 73.8055 157.896C74.1255 157.696 74.3575 157.416 74.5015 157.056V156.168H72.7255C71.7495 156.168 71.2615 156.496 71.2615 157.152C71.2615 157.472 71.3855 157.724 71.6335 157.908C71.8815 158.092 72.2255 158.184 72.6655 158.184ZM86.756 155.856C86.756 155.944 86.748 156.06 86.732 156.204H81.572C81.644 156.764 81.888 157.216 82.304 157.56C82.728 157.896 83.252 158.064 83.876 158.064C84.636 158.064 85.248 157.808 85.712 157.296L86.348 158.04C86.06 158.376 85.7 158.632 85.268 158.808C84.844 158.984 84.368 159.072 83.84 159.072C83.168 159.072 82.572 158.936 82.052 158.664C81.532 158.384 81.128 157.996 80.84 157.5C80.56 157.004 80.42 156.444 80.42 155.82C80.42 155.204 80.556 154.648 80.828 154.152C81.108 153.656 81.488 153.272 81.968 153C82.456 152.72 83.004 152.58 83.612 152.58C84.22 152.58 84.76 152.72 85.232 153C85.712 153.272 86.084 153.656 86.348 154.152C86.62 154.648 86.756 155.216 86.756 155.856ZM83.612 153.552C83.06 153.552 82.596 153.72 82.22 154.056C81.852 154.392 81.636 154.832 81.572 155.376H85.652C85.588 154.84 85.368 154.404 84.992 154.068C84.624 153.724 84.164 153.552 83.612 153.552ZM88.3557 150.096H89.5077V159H88.3557V150.096ZM97.7019 159.072C97.0539 159.072 96.4739 158.932 95.9619 158.652C95.4579 158.372 95.0619 157.988 94.7739 157.5C94.4859 157.004 94.3419 156.444 94.3419 155.82C94.3419 155.196 94.4859 154.64 94.7739 154.152C95.0619 153.656 95.4579 153.272 95.9619 153C96.4739 152.72 97.0539 152.58 97.7019 152.58C98.2779 152.58 98.7899 152.696 99.2379 152.928C99.6939 153.16 100.046 153.496 100.294 153.936L99.4179 154.5C99.2179 154.196 98.9699 153.968 98.6739 153.816C98.3779 153.664 98.0499 153.588 97.6899 153.588C97.2739 153.588 96.8979 153.68 96.5619 153.864C96.2339 154.048 95.9739 154.312 95.7819 154.656C95.5979 154.992 95.5059 155.38 95.5059 155.82C95.5059 156.268 95.5979 156.664 95.7819 157.008C95.9739 157.344 96.2339 157.604 96.5619 157.788C96.8979 157.972 97.2739 158.064 97.6899 158.064C98.0499 158.064 98.3779 157.988 98.6739 157.836C98.9699 157.684 99.2179 157.456 99.4179 157.152L100.294 157.704C100.046 158.144 99.6939 158.484 99.2379 158.724C98.7899 158.956 98.2779 159.072 97.7019 159.072ZM107.44 155.856C107.44 155.944 107.432 156.06 107.416 156.204H102.256C102.328 156.764 102.572 157.216 102.988 157.56C103.412 157.896 103.936 158.064 104.56 158.064C105.32 158.064 105.932 157.808 106.396 157.296L107.032 158.04C106.744 158.376 106.384 158.632 105.952 158.808C105.528 158.984 105.052 159.072 104.524 159.072C103.852 159.072 103.256 158.936 102.736 158.664C102.216 158.384 101.812 157.996 101.524 157.5C101.244 157.004 101.104 156.444 101.104 155.82C101.104 155.204 101.24 154.648 101.512 154.152C101.792 153.656 102.172 153.272 102.652 153C103.14 152.72 103.688 152.58 104.296 152.58C104.904 152.58 105.444 152.72 105.916 153C106.396 153.272 106.768 153.656 107.032 154.152C107.304 154.648 107.44 155.216 107.44 155.856ZM104.296 153.552C103.744 153.552 103.28 153.72 102.904 154.056C102.536 154.392 102.32 154.832 102.256 155.376H106.336C106.272 154.84 106.052 154.404 105.676 154.068C105.308 153.724 104.848 153.552 104.296 153.552ZM112.435 152.58C113.243 152.58 113.883 152.816 114.355 153.288C114.835 153.752 115.075 154.436 115.075 155.34V159H113.923V155.472C113.923 154.856 113.775 154.392 113.479 154.08C113.183 153.768 112.759 153.612 112.207 153.612C111.583 153.612 111.091 153.796 110.731 154.164C110.371 154.524 110.191 155.044 110.191 155.724V159H109.039V152.64H110.143V153.6C110.375 153.272 110.687 153.02 111.079 152.844C111.479 152.668 111.931 152.58 112.435 152.58ZM120.783 158.628C120.615 158.772 120.407 158.884 120.159 158.964C119.911 159.036 119.655 159.072 119.391 159.072C118.751 159.072 118.255 158.9 117.903 158.556C117.551 158.212 117.375 157.72 117.375 157.08V153.588H116.295V152.64H117.375V151.248H118.527V152.64H120.351V153.588H118.527V157.032C118.527 157.376 118.611 157.64 118.779 157.824C118.955 158.008 119.203 158.1 119.523 158.1C119.875 158.1 120.175 158 120.423 157.8L120.783 158.628ZM123.28 153.708C123.48 153.34 123.776 153.06 124.168 152.868C124.56 152.676 125.036 152.58 125.596 152.58V153.696C125.532 153.688 125.444 153.684 125.332 153.684C124.708 153.684 124.216 153.872 123.856 154.248C123.504 154.616 123.328 155.144 123.328 155.832V159H122.176V152.64H123.28V153.708ZM129.681 159.072C129.049 159.072 128.481 158.932 127.977 158.652C127.473 158.372 127.077 157.988 126.789 157.5C126.509 157.004 126.369 156.444 126.369 155.82C126.369 155.196 126.509 154.64 126.789 154.152C127.077 153.656 127.473 153.272 127.977 153C128.481 152.72 129.049 152.58 129.681 152.58C130.313 152.58 130.877 152.72 131.373 153C131.877 153.272 132.269 153.656 132.549 154.152C132.837 154.64 132.981 155.196 132.981 155.82C132.981 156.444 132.837 157.004 132.549 157.5C132.269 157.988 131.877 158.372 131.373 158.652C130.877 158.932 130.313 159.072 129.681 159.072ZM129.681 158.064C130.089 158.064 130.453 157.972 130.773 157.788C131.101 157.596 131.357 157.332 131.541 156.996C131.725 156.652 131.817 156.26 131.817 155.82C131.817 155.38 131.725 154.992 131.541 154.656C131.357 154.312 131.101 154.048 130.773 153.864C130.453 153.68 130.089 153.588 129.681 153.588C129.273 153.588 128.905 153.68 128.577 153.864C128.257 154.048 128.001 154.312 127.809 154.656C127.625 154.992 127.533 155.38 127.533 155.82C127.533 156.26 127.625 156.652 127.809 156.996C128.001 157.332 128.257 157.596 128.577 157.788C128.905 157.972 129.273 158.064 129.681 158.064ZM134.71 159.072C134.486 159.072 134.294 158.996 134.134 158.844C133.974 158.684 133.894 158.484 133.894 158.244C133.894 158.012 133.974 157.82 134.134 157.668C134.294 157.508 134.486 157.428 134.71 157.428C134.934 157.428 135.122 157.504 135.274 157.656C135.426 157.808 135.502 158.004 135.502 158.244C135.502 158.484 135.422 158.684 135.262 158.844C135.11 158.996 134.926 159.072 134.71 159.072Z" fill="#008E86"/>
<rect x="45.0117" y="55" width="63.6396" height="63.6396" transform="rotate(-45 45.0117 55)" fill="#008E86" stroke="#00635D" stroke-width="2" stroke-linejoin="round"/>
<path d="M111.494 78.2585L45.0001 55.2932" stroke="#333333" stroke-width="2" stroke-dasharray="4 6"/>
<path opacity="0.25" d="M135.012 55L45.0117 55" stroke="#333333" stroke-width="2"/>
<path d="M112.792 59.1487C112.387 58.7734 111.754 58.7974 111.378 59.2025L105.261 65.8039C104.886 66.209 104.91 66.8417 105.315 67.2171C105.72 67.5925 106.353 67.5684 106.728 67.1633L112.166 61.2954L118.034 66.7331C118.439 67.1085 119.071 67.0844 119.447 66.6793C119.822 66.2742 119.798 65.6415 119.393 65.2661L112.792 59.1487ZM83.8914 87.1415C83.3395 87.1205 82.8751 87.5509 82.8541 88.1028C82.8331 88.6547 83.2635 89.1191 83.8154 89.1401L83.8914 87.1415ZM111.113 59.9203C111.43 68.2613 108.6 74.9939 103.842 79.7525L105.256 81.1667C110.429 75.9933 113.449 68.7112 113.111 59.8442L111.113 59.9203ZM103.842 79.7525C101.501 82.0936 98.013 84.0074 94.3123 85.3066C90.6147 86.6047 86.8095 87.2526 83.8914 87.1415L83.8154 89.1401C87.043 89.2629 91.1026 88.5531 94.9749 87.1937C98.8441 85.8353 102.631 83.7914 105.256 81.1667L103.842 79.7525Z" fill="black"/>
</g>
<defs>
<clipPath id="clip0_5726_207347">
<rect width="180" height="180" rx="20" fill="white"/>
</clipPath>
<clipPath id="clip1_5726_207347">
<path d="M0 30L-1.31134e-06 0L30 -1.31134e-06L30 10C30 21.0457 21.0457 30 10 30L0 30Z" fill="white"/>
</clipPath>
</defs>
</svg>
