<svg width="180" height="180" viewBox="0 0 180 180" fill="none" xmlns="http://www.w3.org/2000/svg">
<g clip-path="url(#clip0_5726_207351)">
<rect width="180" height="180" rx="20" fill="#F2F2F2"/>
<g clip-path="url(#clip1_5726_207351)">
<path d="M0 30L-1.31134e-06 0L30 -1.31134e-06L30 10C30 21.0457 21.0457 30 10 30L0 30Z" fill="#333333"/>
<path d="M16.1216 14.36C17.103 14.52 17.855 14.888 18.3776 15.464C18.9003 16.0293 19.1616 16.7333 19.1616 17.576C19.1616 18.2267 18.991 18.8293 18.6496 19.384C18.3083 19.928 17.7856 20.3653 17.0816 20.696C16.3883 21.0267 15.535 21.192 14.5216 21.192C13.7323 21.192 12.9536 21.0907 12.1856 20.888C11.4283 20.6747 10.783 20.376 10.2496 19.992L11.2576 18.008C11.6843 18.328 12.175 18.5787 12.7296 18.76C13.295 18.9307 13.871 19.016 14.4576 19.016C15.1083 19.016 15.6203 18.8933 15.9936 18.648C16.367 18.392 16.5536 18.0347 16.5536 17.576C16.5536 16.6587 15.855 16.2 14.4576 16.2H13.2736V14.488L15.5776 11.88H10.8096V9.8H18.6496V11.48L16.1216 14.36Z" fill="#F2F2F2"/>
</g>
<path d="M61.7245 139.752H62.8765V143.028C62.4605 143.372 61.9765 143.636 61.4245 143.82C60.8725 144.004 60.2965 144.096 59.6965 144.096C58.8485 144.096 58.0845 143.912 57.4045 143.544C56.7245 143.168 56.1885 142.656 55.7965 142.008C55.4125 141.352 55.2205 140.616 55.2205 139.8C55.2205 138.984 55.4125 138.248 55.7965 137.592C56.1885 136.936 56.7245 136.424 57.4045 136.056C58.0925 135.688 58.8645 135.504 59.7205 135.504C60.3925 135.504 61.0005 135.616 61.5445 135.84C62.0965 136.056 62.5645 136.376 62.9485 136.8L62.2045 137.544C61.5325 136.896 60.7205 136.572 59.7685 136.572C59.1285 136.572 58.5525 136.712 58.0405 136.992C57.5365 137.264 57.1405 137.648 56.8525 138.144C56.5645 138.632 56.4205 139.184 56.4205 139.8C56.4205 140.408 56.5645 140.96 56.8525 141.456C57.1405 141.944 57.5365 142.328 58.0405 142.608C58.5525 142.888 59.1245 143.028 59.7565 143.028C60.5085 143.028 61.1645 142.848 61.7245 142.488V139.752ZM65.0061 137.64H66.1581V144H65.0061V137.64ZM65.5821 136.416C65.3581 136.416 65.1701 136.344 65.0181 136.2C64.8741 136.056 64.8021 135.88 64.8021 135.672C64.8021 135.464 64.8741 135.288 65.0181 135.144C65.1701 134.992 65.3581 134.916 65.5821 134.916C65.8061 134.916 65.9901 134.988 66.1341 135.132C66.2861 135.268 66.3621 135.44 66.3621 135.648C66.3621 135.864 66.2861 136.048 66.1341 136.2C65.9901 136.344 65.8061 136.416 65.5821 136.416ZM69.4616 138.708C69.6616 138.34 69.9576 138.06 70.3496 137.868C70.7416 137.676 71.2176 137.58 71.7776 137.58V138.696C71.7136 138.688 71.6256 138.684 71.5136 138.684C70.8896 138.684 70.3976 138.872 70.0376 139.248C69.6856 139.616 69.5096 140.144 69.5096 140.832V144H68.3576V137.64H69.4616V138.708ZM75.5018 137.58C76.3818 137.58 77.0538 137.796 77.5178 138.228C77.9898 138.66 78.2258 139.304 78.2258 140.16V144H77.1338V143.16C76.9418 143.456 76.6658 143.684 76.3058 143.844C75.9538 143.996 75.5338 144.072 75.0458 144.072C74.3338 144.072 73.7618 143.9 73.3298 143.556C72.9058 143.212 72.6938 142.76 72.6938 142.2C72.6938 141.64 72.8978 141.192 73.3058 140.856C73.7138 140.512 74.3618 140.34 75.2498 140.34H77.0738V140.112C77.0738 139.616 76.9298 139.236 76.6418 138.972C76.3538 138.708 75.9298 138.576 75.3698 138.576C74.9938 138.576 74.6258 138.64 74.2658 138.768C73.9058 138.888 73.6018 139.052 73.3538 139.26L72.8738 138.396C73.2018 138.132 73.5938 137.932 74.0498 137.796C74.5058 137.652 74.9898 137.58 75.5018 137.58ZM75.2378 143.184C75.6778 143.184 76.0578 143.088 76.3778 142.896C76.6978 142.696 76.9298 142.416 77.0738 142.056V141.168H75.2978C74.3218 141.168 73.8338 141.496 73.8338 142.152C73.8338 142.472 73.9578 142.724 74.2058 142.908C74.4538 143.092 74.7978 143.184 75.2378 143.184ZM83.5803 135.096H84.7323V144H83.5803V135.096ZM89.2478 137.58C90.1278 137.58 90.7998 137.796 91.2638 138.228C91.7358 138.66 91.9718 139.304 91.9718 140.16V144H90.8798V143.16C90.6878 143.456 90.4118 143.684 90.0518 143.844C89.6998 143.996 89.2798 144.072 88.7918 144.072C88.0798 144.072 87.5078 143.9 87.0758 143.556C86.6518 143.212 86.4398 142.76 86.4398 142.2C86.4398 141.64 86.6438 141.192 87.0518 140.856C87.4598 140.512 88.1078 140.34 88.9958 140.34H90.8198V140.112C90.8198 139.616 90.6758 139.236 90.3878 138.972C90.0998 138.708 89.6758 138.576 89.1158 138.576C88.7398 138.576 88.3718 138.64 88.0118 138.768C87.6518 138.888 87.3478 139.052 87.0998 139.26L86.6198 138.396C86.9478 138.132 87.3398 137.932 87.7958 137.796C88.2518 137.652 88.7358 137.58 89.2478 137.58ZM88.9838 143.184C89.4238 143.184 89.8038 143.088 90.1238 142.896C90.4438 142.696 90.6758 142.416 90.8198 142.056V141.168H89.0438C88.0678 141.168 87.5798 141.496 87.5798 142.152C87.5798 142.472 87.7038 142.724 87.9518 142.908C88.1998 143.092 88.5438 143.184 88.9838 143.184ZM100.722 137.58C101.53 137.58 102.17 137.816 102.642 138.288C103.122 138.752 103.362 139.436 103.362 140.34V144H102.21V140.472C102.21 139.856 102.062 139.392 101.766 139.08C101.47 138.768 101.046 138.612 100.494 138.612C99.8704 138.612 99.3784 138.796 99.0184 139.164C98.6584 139.524 98.4784 140.044 98.4784 140.724V144H97.3264V135.096H98.4784V138.54C98.7184 138.236 99.0304 138 99.4144 137.832C99.8064 137.664 100.242 137.58 100.722 137.58ZM108.254 144.072C107.622 144.072 107.054 143.932 106.55 143.652C106.046 143.372 105.65 142.988 105.362 142.5C105.082 142.004 104.942 141.444 104.942 140.82C104.942 140.196 105.082 139.64 105.362 139.152C105.65 138.656 106.046 138.272 106.55 138C107.054 137.72 107.622 137.58 108.254 137.58C108.886 137.58 109.45 137.72 109.946 138C110.45 138.272 110.842 138.656 111.122 139.152C111.41 139.64 111.554 140.196 111.554 140.82C111.554 141.444 111.41 142.004 111.122 142.5C110.842 142.988 110.45 143.372 109.946 143.652C109.45 143.932 108.886 144.072 108.254 144.072ZM108.254 143.064C108.662 143.064 109.026 142.972 109.346 142.788C109.674 142.596 109.93 142.332 110.114 141.996C110.298 141.652 110.39 141.26 110.39 140.82C110.39 140.38 110.298 139.992 110.114 139.656C109.93 139.312 109.674 139.048 109.346 138.864C109.026 138.68 108.662 138.588 108.254 138.588C107.846 138.588 107.478 138.68 107.15 138.864C106.83 139.048 106.574 139.312 106.382 139.656C106.198 139.992 106.106 140.38 106.106 140.82C106.106 141.26 106.198 141.652 106.382 141.996C106.574 142.332 106.83 142.596 107.15 142.788C107.478 142.972 107.846 143.064 108.254 143.064ZM112.331 146.4C112.051 146.4 111.791 146.368 111.551 146.304C111.311 146.24 111.111 146.144 110.951 146.016L111.323 145.128C111.563 145.328 111.875 145.428 112.259 145.428C112.563 145.428 112.795 145.332 112.955 145.14C113.123 144.956 113.207 144.68 113.207 144.312V137.64H114.359V144.288C114.359 144.944 114.183 145.46 113.831 145.836C113.479 146.212 112.979 146.4 112.331 146.4ZM113.783 136.416C113.559 136.416 113.371 136.344 113.219 136.2C113.075 136.056 113.003 135.88 113.003 135.672C113.003 135.464 113.075 135.288 113.219 135.144C113.371 134.992 113.559 134.916 113.783 134.916C114.007 134.916 114.191 134.988 114.335 135.132C114.487 135.268 114.563 135.44 114.563 135.648C114.563 135.864 114.487 136.048 114.335 136.2C114.191 136.344 114.007 136.416 113.783 136.416ZM118.873 137.58C119.753 137.58 120.425 137.796 120.889 138.228C121.361 138.66 121.597 139.304 121.597 140.16V144H120.505V143.16C120.313 143.456 120.037 143.684 119.677 143.844C119.325 143.996 118.905 144.072 118.417 144.072C117.705 144.072 117.133 143.9 116.701 143.556C116.277 143.212 116.065 142.76 116.065 142.2C116.065 141.64 116.269 141.192 116.677 140.856C117.085 140.512 117.733 140.34 118.621 140.34H120.445V140.112C120.445 139.616 120.301 139.236 120.013 138.972C119.725 138.708 119.301 138.576 118.741 138.576C118.365 138.576 117.997 138.64 117.637 138.768C117.277 138.888 116.973 139.052 116.725 139.26L116.245 138.396C116.573 138.132 116.965 137.932 117.421 137.796C117.877 137.652 118.361 137.58 118.873 137.58ZM118.609 143.184C119.049 143.184 119.429 143.088 119.749 142.896C120.069 142.696 120.301 142.416 120.445 142.056V141.168H118.669C117.693 141.168 117.205 141.496 117.205 142.152C117.205 142.472 117.329 142.724 117.577 142.908C117.825 143.092 118.169 143.184 118.609 143.184ZM124.005 144.072C123.781 144.072 123.589 143.996 123.429 143.844C123.269 143.684 123.189 143.484 123.189 143.244C123.189 143.012 123.269 142.82 123.429 142.668C123.589 142.508 123.781 142.428 124.005 142.428C124.229 142.428 124.417 142.504 124.569 142.656C124.721 142.808 124.797 143.004 124.797 143.244C124.797 143.484 124.717 143.684 124.557 143.844C124.405 143.996 124.221 144.072 124.005 144.072Z" fill="#008E86"/>
<path d="M45 66.2415L90 21.2415L135 66.2415L111.741 89.5001L45 66.2415Z" fill="#008E86" stroke="#00635D" stroke-width="2" stroke-linejoin="round"/>
<path d="M45 66.2415H111.741L111.741 89.5001L45 66.2415Z" fill="#00D8CC" stroke="#00635D" stroke-width="2" stroke-linejoin="round"/>
<path opacity="0.25" d="M135 66.2415H45" stroke="#333333" stroke-width="2"/>
<path d="M142.304 25.9682C141.751 25.9682 141.304 26.4159 141.304 26.9682L141.304 35.9682C141.304 36.5205 141.751 36.9682 142.304 36.9682C142.856 36.9682 143.304 36.5205 143.304 35.9682L143.304 27.9682L151.304 27.9683C151.856 27.9684 152.304 27.5206 152.304 26.9684C152.304 26.4161 151.856 25.9684 151.304 25.9683L142.304 25.9682ZM137.347 47.8711L137.347 46.8711L137.347 47.8711ZM122.539 40.4837C122.148 40.0932 121.515 40.0932 121.124 40.4837C120.734 40.8742 120.734 41.5074 121.124 41.8979L122.539 40.4837ZM141.597 27.6753C146.427 32.5059 146.97 37.3236 145.6 40.8562C144.199 44.4686 140.774 46.8711 137.347 46.8711L137.347 48.8711C141.677 48.8711 145.795 45.8862 147.465 41.5793C149.166 37.1925 148.308 31.5588 143.011 26.2611L141.597 27.6753ZM137.347 46.8711C134.743 46.8711 132.777 45.6697 131.366 43.8005C129.934 41.9039 129.083 39.3202 128.831 36.678C128.578 34.0328 128.935 31.4435 129.798 29.5599C130.659 27.6795 131.92 26.6753 133.468 26.6753L133.468 24.6753C130.846 24.6753 129.025 26.4455 127.98 28.7269C126.936 31.005 126.562 33.9646 126.84 36.8684C127.118 39.7751 128.06 42.7404 129.77 45.0055C131.5 47.2981 134.025 48.8711 137.347 48.8711L137.347 46.8711ZM133.468 26.6753C134.605 26.6753 135.424 27.0486 136.024 27.6383C136.643 28.2469 137.093 29.1529 137.335 30.305C137.821 32.6237 137.405 35.6813 136.215 38.3605C135.019 41.0522 133.147 43.1386 130.916 43.809C128.77 44.4542 125.939 43.8838 122.539 40.4837L121.124 41.8979C124.836 45.609 128.396 46.6549 131.492 45.7243C134.504 44.8189 136.725 42.1375 138.042 39.1725C139.365 36.195 139.882 32.707 139.292 29.8943C138.995 28.4807 138.405 27.1745 137.426 26.2124C136.429 25.2313 135.095 24.6753 133.468 24.6753L133.468 26.6753Z" fill="black"/>
</g>
<defs>
<clipPath id="clip0_5726_207351">
<rect width="180" height="180" rx="20" fill="white"/>
</clipPath>
<clipPath id="clip1_5726_207351">
<path d="M0 30L-1.31134e-06 0L30 -1.31134e-06L30 10C30 21.0457 21.0457 30 10 30L0 30Z" fill="white"/>
</clipPath>
</defs>
</svg>
