<svg width="180" height="180" viewBox="0 0 180 180" fill="none" xmlns="http://www.w3.org/2000/svg">
<g clip-path="url(#clip0_5726_207359)">
<rect width="180" height="180" rx="20" fill="#F2F2F2"/>

<path d="M21.9553 120.6H25.4953C26.3833 120.6 27.1713 120.776 27.8593 121.128C28.5473 121.48 29.0793 121.976 29.4553 122.616C29.8393 123.248 30.0313 123.976 30.0313 124.8C30.0313 125.624 29.8393 126.356 29.4553 126.996C29.0793 127.628 28.5473 128.12 27.8593 128.472C27.1713 128.824 26.3833 129 25.4953 129H21.9553V120.6ZM25.4233 127.956C26.1033 127.956 26.6993 127.824 27.2113 127.56C27.7313 127.296 28.1313 126.928 28.4113 126.456C28.6913 125.976 28.8313 125.424 28.8313 124.8C28.8313 124.176 28.6913 123.628 28.4113 123.156C28.1313 122.676 27.7313 122.304 27.2113 122.04C26.6993 121.776 26.1033 121.644 25.4233 121.644H23.1553V127.956H25.4233ZM34.4254 129.072C33.7934 129.072 33.2254 128.932 32.7214 128.652C32.2174 128.372 31.8214 127.988 31.5334 127.5C31.2534 127.004 31.1134 126.444 31.1134 125.82C31.1134 125.196 31.2534 124.64 31.5334 124.152C31.8214 123.656 32.2174 123.272 32.7214 123C33.2254 122.72 33.7934 122.58 34.4254 122.58C35.0574 122.58 35.6214 122.72 36.1174 123C36.6214 123.272 37.0134 123.656 37.2934 124.152C37.5814 124.64 37.7254 125.196 37.7254 125.82C37.7254 126.444 37.5814 127.004 37.2934 127.5C37.0134 127.988 36.6214 128.372 36.1174 128.652C35.6214 128.932 35.0574 129.072 34.4254 129.072ZM34.4254 128.064C34.8334 128.064 35.1974 127.972 35.5174 127.788C35.8454 127.596 36.1014 127.332 36.2854 126.996C36.4694 126.652 36.5614 126.26 36.5614 125.82C36.5614 125.38 36.4694 124.992 36.2854 124.656C36.1014 124.312 35.8454 124.048 35.5174 123.864C35.1974 123.68 34.8334 123.588 34.4254 123.588C34.0174 123.588 33.6494 123.68 33.3214 123.864C33.0014 124.048 32.7454 124.312 32.5534 124.656C32.3694 124.992 32.2774 125.38 32.2774 125.82C32.2774 126.26 32.3694 126.652 32.5534 126.996C32.7454 127.332 33.0014 127.596 33.3214 127.788C33.6494 127.972 34.0174 128.064 34.4254 128.064ZM42.6906 122.58C43.3066 122.58 43.8586 122.716 44.3466 122.988C44.8346 123.26 45.2146 123.64 45.4866 124.128C45.7666 124.616 45.9066 125.18 45.9066 125.82C45.9066 126.46 45.7666 127.028 45.4866 127.524C45.2146 128.012 44.8346 128.392 44.3466 128.664C43.8586 128.936 43.3066 129.072 42.6906 129.072C42.2186 129.072 41.7866 128.98 41.3946 128.796C41.0026 128.612 40.6786 128.344 40.4226 127.992V129H39.3186V120.096H40.4706V123.6C40.7266 123.264 41.0466 123.012 41.4306 122.844C41.8146 122.668 42.2346 122.58 42.6906 122.58ZM42.5946 128.064C43.0026 128.064 43.3666 127.972 43.6866 127.788C44.0146 127.596 44.2706 127.332 44.4546 126.996C44.6466 126.652 44.7426 126.26 44.7426 125.82C44.7426 125.38 44.6466 124.992 44.4546 124.656C44.2706 124.312 44.0146 124.048 43.6866 123.864C43.3666 123.68 43.0026 123.588 42.5946 123.588C42.1946 123.588 41.8306 123.68 41.5026 123.864C41.1746 124.048 40.9186 124.312 40.7346 124.656C40.5506 124.992 40.4586 125.38 40.4586 125.82C40.4586 126.26 40.5506 126.652 40.7346 126.996C40.9186 127.332 41.1746 127.596 41.5026 127.788C41.8306 127.972 42.1946 128.064 42.5946 128.064ZM47.4983 120.096H48.6503V129H47.4983V120.096ZM53.1658 122.58C54.0458 122.58 54.7178 122.796 55.1818 123.228C55.6538 123.66 55.8898 124.304 55.8898 125.16V129H54.7978V128.16C54.6058 128.456 54.3298 128.684 53.9698 128.844C53.6178 128.996 53.1978 129.072 52.7098 129.072C51.9978 129.072 51.4258 128.9 50.9938 128.556C50.5698 128.212 50.3578 127.76 50.3578 127.2C50.3578 126.64 50.5618 126.192 50.9698 125.856C51.3778 125.512 52.0258 125.34 52.9138 125.34H54.7378V125.112C54.7378 124.616 54.5938 124.236 54.3058 123.972C54.0178 123.708 53.5938 123.576 53.0338 123.576C52.6578 123.576 52.2898 123.64 51.9298 123.768C51.5698 123.888 51.2658 124.052 51.0178 124.26L50.5378 123.396C50.8658 123.132 51.2578 122.932 51.7138 122.796C52.1698 122.652 52.6538 122.58 53.1658 122.58ZM52.9018 128.184C53.3418 128.184 53.7218 128.088 54.0418 127.896C54.3618 127.696 54.5938 127.416 54.7378 127.056V126.168H52.9618C51.9858 126.168 51.4978 126.496 51.4978 127.152C51.4978 127.472 51.6218 127.724 51.8698 127.908C52.1178 128.092 52.4618 128.184 52.9018 128.184ZM61.2443 120.096H62.3963V129H61.2443V120.096ZM66.9119 122.58C67.7919 122.58 68.4639 122.796 68.9279 123.228C69.3999 123.66 69.6359 124.304 69.6359 125.16V129H68.5439V128.16C68.3519 128.456 68.0759 128.684 67.7159 128.844C67.3639 128.996 66.9439 129.072 66.4559 129.072C65.7439 129.072 65.1719 128.9 64.7399 128.556C64.3159 128.212 64.1039 127.76 64.1039 127.2C64.1039 126.64 64.3079 126.192 64.7159 125.856C65.1239 125.512 65.7719 125.34 66.6599 125.34H68.4839V125.112C68.4839 124.616 68.3399 124.236 68.0519 123.972C67.7639 123.708 67.3399 123.576 66.7799 123.576C66.4039 123.576 66.0359 123.64 65.6759 123.768C65.3159 123.888 65.0119 124.052 64.7639 124.26L64.2839 123.396C64.6119 123.132 65.0039 122.932 65.4599 122.796C65.9159 122.652 66.3999 122.58 66.9119 122.58ZM66.6479 128.184C67.0879 128.184 67.4679 128.088 67.7879 127.896C68.1079 127.696 68.3399 127.416 68.4839 127.056V126.168H66.7079C65.7319 126.168 65.2439 126.496 65.2439 127.152C65.2439 127.472 65.3679 127.724 65.6159 127.908C65.8639 128.092 66.2079 128.184 66.6479 128.184ZM73.5918 129.072C73.0718 129.072 72.5718 129.004 72.0918 128.868C71.6118 128.724 71.2358 128.544 70.9638 128.328L71.4438 127.416C71.7238 127.616 72.0638 127.776 72.4638 127.896C72.8638 128.016 73.2678 128.076 73.6758 128.076C74.6838 128.076 75.1878 127.788 75.1878 127.212C75.1878 127.02 75.1198 126.868 74.9838 126.756C74.8478 126.644 74.6758 126.564 74.4678 126.516C74.2678 126.46 73.9798 126.4 73.6038 126.336C73.0918 126.256 72.6718 126.164 72.3438 126.06C72.0238 125.956 71.7478 125.78 71.5158 125.532C71.2838 125.284 71.1678 124.936 71.1678 124.488C71.1678 123.912 71.4078 123.452 71.8878 123.108C72.3678 122.756 73.0118 122.58 73.8198 122.58C74.2438 122.58 74.6678 122.632 75.0918 122.736C75.5158 122.84 75.8638 122.98 76.1358 123.156L75.6438 124.068C75.1238 123.732 74.5118 123.564 73.8078 123.564C73.3198 123.564 72.9478 123.644 72.6918 123.804C72.4358 123.964 72.3078 124.176 72.3078 124.44C72.3078 124.648 72.3798 124.812 72.5238 124.932C72.6678 125.052 72.8438 125.14 73.0518 125.196C73.2678 125.252 73.5678 125.316 73.9518 125.388C74.4638 125.476 74.8758 125.572 75.1878 125.676C75.5078 125.772 75.7798 125.94 76.0038 126.18C76.2278 126.42 76.3398 126.756 76.3398 127.188C76.3398 127.764 76.0918 128.224 75.5958 128.568C75.1078 128.904 74.4398 129.072 73.5918 129.072ZM87.0022 120.096V129H85.8982V127.992C85.6422 128.344 85.3182 128.612 84.9262 128.796C84.5342 128.98 84.1022 129.072 83.6302 129.072C83.0142 129.072 82.4622 128.936 81.9742 128.664C81.4862 128.392 81.1022 128.012 80.8222 127.524C80.5502 127.028 80.4142 126.46 80.4142 125.82C80.4142 125.18 80.5502 124.616 80.8222 124.128C81.1022 123.64 81.4862 123.26 81.9742 122.988C82.4622 122.716 83.0142 122.58 83.6302 122.58C84.0862 122.58 84.5062 122.668 84.8902 122.844C85.2742 123.012 85.5942 123.264 85.8502 123.6V120.096H87.0022ZM83.7262 128.064C84.1262 128.064 84.4902 127.972 84.8182 127.788C85.1462 127.596 85.4022 127.332 85.5862 126.996C85.7702 126.652 85.8622 126.26 85.8622 125.82C85.8622 125.38 85.7702 124.992 85.5862 124.656C85.4022 124.312 85.1462 124.048 84.8182 123.864C84.4902 123.68 84.1262 123.588 83.7262 123.588C83.3182 123.588 82.9502 123.68 82.6222 123.864C82.3022 124.048 82.0462 124.312 81.8542 124.656C81.6702 124.992 81.5782 125.38 81.5782 125.82C81.5782 126.26 81.6702 126.652 81.8542 126.996C82.0462 127.332 82.3022 127.596 82.6222 127.788C82.9502 127.972 83.3182 128.064 83.7262 128.064ZM91.9058 129.072C91.2738 129.072 90.7058 128.932 90.2018 128.652C89.6978 128.372 89.3018 127.988 89.0138 127.5C88.7338 127.004 88.5938 126.444 88.5938 125.82C88.5938 125.196 88.7338 124.64 89.0138 124.152C89.3018 123.656 89.6978 123.272 90.2018 123C90.7058 122.72 91.2738 122.58 91.9058 122.58C92.5378 122.58 93.1018 122.72 93.5978 123C94.1018 123.272 94.4938 123.656 94.7738 124.152C95.0618 124.64 95.2058 125.196 95.2058 125.82C95.2058 126.444 95.0618 127.004 94.7738 127.5C94.4938 127.988 94.1018 128.372 93.5978 128.652C93.1018 128.932 92.5378 129.072 91.9058 129.072ZM91.9058 128.064C92.3138 128.064 92.6778 127.972 92.9978 127.788C93.3258 127.596 93.5818 127.332 93.7658 126.996C93.9498 126.652 94.0418 126.26 94.0418 125.82C94.0418 125.38 93.9498 124.992 93.7658 124.656C93.5818 124.312 93.3258 124.048 92.9978 123.864C92.6778 123.68 92.3138 123.588 91.9058 123.588C91.4978 123.588 91.1298 123.68 90.8018 123.864C90.4818 124.048 90.2258 124.312 90.0338 124.656C89.8498 124.992 89.7578 125.38 89.7578 125.82C89.7578 126.26 89.8498 126.652 90.0338 126.996C90.2258 127.332 90.4818 127.596 90.8018 127.788C91.1298 127.972 91.4978 128.064 91.9058 128.064ZM98.623 129.072C98.103 129.072 97.603 129.004 97.123 128.868C96.643 128.724 96.267 128.544 95.995 128.328L96.475 127.416C96.755 127.616 97.095 127.776 97.495 127.896C97.895 128.016 98.299 128.076 98.707 128.076C99.715 128.076 100.219 127.788 100.219 127.212C100.219 127.02 100.151 126.868 100.015 126.756C99.879 126.644 99.707 126.564 99.499 126.516C99.299 126.46 99.011 126.4 98.635 126.336C98.123 126.256 97.703 126.164 97.375 126.06C97.055 125.956 96.779 125.78 96.547 125.532C96.315 125.284 96.199 124.936 96.199 124.488C96.199 123.912 96.439 123.452 96.919 123.108C97.399 122.756 98.043 122.58 98.851 122.58C99.275 122.58 99.699 122.632 100.123 122.736C100.547 122.84 100.895 122.98 101.167 123.156L100.675 124.068C100.155 123.732 99.543 123.564 98.839 123.564C98.351 123.564 97.979 123.644 97.723 123.804C97.467 123.964 97.339 124.176 97.339 124.44C97.339 124.648 97.411 124.812 97.555 124.932C97.699 125.052 97.875 125.14 98.083 125.196C98.299 125.252 98.599 125.316 98.983 125.388C99.495 125.476 99.907 125.572 100.219 125.676C100.539 125.772 100.811 125.94 101.035 126.18C101.259 126.42 101.371 126.756 101.371 127.188C101.371 127.764 101.123 128.224 100.627 128.568C100.139 128.904 99.471 129.072 98.623 129.072ZM111.781 125.856C111.781 125.944 111.773 126.06 111.757 126.204H106.597C106.669 126.764 106.913 127.216 107.329 127.56C107.753 127.896 108.277 128.064 108.901 128.064C109.661 128.064 110.273 127.808 110.737 127.296L111.373 128.04C111.085 128.376 110.725 128.632 110.293 128.808C109.869 128.984 109.393 129.072 108.865 129.072C108.193 129.072 107.597 128.936 107.077 128.664C106.557 128.384 106.153 127.996 105.865 127.5C105.585 127.004 105.445 126.444 105.445 125.82C105.445 125.204 105.581 124.648 105.853 124.152C106.133 123.656 106.513 123.272 106.993 123C107.481 122.72 108.029 122.58 108.637 122.58C109.245 122.58 109.785 122.72 110.257 123C110.737 123.272 111.109 123.656 111.373 124.152C111.645 124.648 111.781 125.216 111.781 125.856ZM108.637 123.552C108.085 123.552 107.621 123.72 107.245 124.056C106.877 124.392 106.661 124.832 106.597 125.376H110.677C110.613 124.84 110.393 124.404 110.017 124.068C109.649 123.724 109.189 123.552 108.637 123.552ZM115.205 129.072C114.685 129.072 114.185 129.004 113.705 128.868C113.225 128.724 112.849 128.544 112.577 128.328L113.057 127.416C113.337 127.616 113.677 127.776 114.077 127.896C114.477 128.016 114.881 128.076 115.289 128.076C116.297 128.076 116.801 127.788 116.801 127.212C116.801 127.02 116.733 126.868 116.597 126.756C116.461 126.644 116.289 126.564 116.081 126.516C115.881 126.46 115.593 126.4 115.217 126.336C114.705 126.256 114.285 126.164 113.957 126.06C113.637 125.956 113.361 125.78 113.129 125.532C112.897 125.284 112.781 124.936 112.781 124.488C112.781 123.912 113.021 123.452 113.501 123.108C113.981 122.756 114.625 122.58 115.433 122.58C115.857 122.58 116.281 122.632 116.705 122.736C117.129 122.84 117.477 122.98 117.749 123.156L117.257 124.068C116.737 123.732 116.125 123.564 115.421 123.564C114.933 123.564 114.561 123.644 114.305 123.804C114.049 123.964 113.921 124.176 113.921 124.44C113.921 124.648 113.993 124.812 114.137 124.932C114.281 125.052 114.457 125.14 114.665 125.196C114.881 125.252 115.181 125.316 115.565 125.388C116.077 125.476 116.489 125.572 116.801 125.676C117.121 125.772 117.393 125.94 117.617 126.18C117.841 126.42 117.953 126.756 117.953 127.188C117.953 127.764 117.705 128.224 117.209 128.568C116.721 128.904 116.053 129.072 115.205 129.072ZM125.393 122.64V131.328H124.241V128.04C123.977 128.376 123.653 128.632 123.269 128.808C122.893 128.984 122.477 129.072 122.021 129.072C121.405 129.072 120.853 128.936 120.365 128.664C119.877 128.392 119.493 128.012 119.213 127.524C118.941 127.028 118.805 126.46 118.805 125.82C118.805 125.18 118.941 124.616 119.213 124.128C119.493 123.64 119.877 123.26 120.365 122.988C120.853 122.716 121.405 122.58 122.021 122.58C122.493 122.58 122.925 122.672 123.317 122.856C123.709 123.032 124.033 123.296 124.289 123.648V122.64H125.393ZM122.117 128.064C122.517 128.064 122.881 127.972 123.209 127.788C123.537 127.596 123.793 127.332 123.977 126.996C124.161 126.652 124.253 126.26 124.253 125.82C124.253 125.38 124.157 124.992 123.965 124.656C123.781 124.32 123.525 124.06 123.197 123.876C122.877 123.684 122.517 123.588 122.117 123.588C121.709 123.588 121.341 123.68 121.013 123.864C120.693 124.048 120.437 124.312 120.245 124.656C120.061 124.992 119.969 125.38 119.969 125.82C119.969 126.26 120.061 126.652 120.245 126.996C120.437 127.332 120.693 127.596 121.013 127.788C121.341 127.972 121.709 128.064 122.117 128.064ZM133.5 122.64V129H132.408V128.04C132.176 128.368 131.868 128.624 131.484 128.808C131.108 128.984 130.696 129.072 130.248 129.072C129.4 129.072 128.732 128.84 128.244 128.376C127.756 127.904 127.512 127.212 127.512 126.3V122.64H128.664V126.168C128.664 126.784 128.812 127.252 129.108 127.572C129.404 127.884 129.828 128.04 130.38 128.04C130.988 128.04 131.468 127.856 131.82 127.488C132.172 127.12 132.348 126.6 132.348 125.928V122.64H133.5ZM135.694 122.64H136.846V129H135.694V122.64ZM136.27 121.416C136.046 121.416 135.858 121.344 135.706 121.2C135.562 121.056 135.49 120.88 135.49 120.672C135.49 120.464 135.562 120.288 135.706 120.144C135.858 119.992 136.046 119.916 136.27 119.916C136.494 119.916 136.678 119.988 136.822 120.132C136.974 120.268 137.05 120.44 137.05 120.648C137.05 120.864 136.974 121.048 136.822 121.2C136.678 121.344 136.494 121.416 136.27 121.416ZM142.441 122.58C143.249 122.58 143.889 122.816 144.361 123.288C144.841 123.752 145.081 124.436 145.081 125.34V129H143.929V125.472C143.929 124.856 143.781 124.392 143.485 124.08C143.189 123.768 142.765 123.612 142.213 123.612C141.589 123.612 141.097 123.796 140.737 124.164C140.377 124.524 140.197 125.044 140.197 125.724V129H139.045V122.64H140.149V123.6C140.381 123.272 140.693 123.02 141.085 122.844C141.485 122.668 141.937 122.58 142.441 122.58ZM149.529 122.58C150.409 122.58 151.081 122.796 151.545 123.228C152.017 123.66 152.253 124.304 152.253 125.16V129H151.161V128.16C150.969 128.456 150.693 128.684 150.333 128.844C149.981 128.996 149.561 129.072 149.073 129.072C148.361 129.072 147.789 128.9 147.357 128.556C146.933 128.212 146.721 127.76 146.721 127.2C146.721 126.64 146.925 126.192 147.333 125.856C147.741 125.512 148.389 125.34 149.277 125.34H151.101V125.112C151.101 124.616 150.957 124.236 150.669 123.972C150.381 123.708 149.957 123.576 149.397 123.576C149.021 123.576 148.653 123.64 148.293 123.768C147.933 123.888 147.629 124.052 147.381 124.26L146.901 123.396C147.229 123.132 147.621 122.932 148.077 122.796C148.533 122.652 149.017 122.58 149.529 122.58ZM149.265 128.184C149.705 128.184 150.085 128.088 150.405 127.896C150.725 127.696 150.957 127.416 151.101 127.056V126.168H149.325C148.349 126.168 147.861 126.496 147.861 127.152C147.861 127.472 147.985 127.724 148.233 127.908C148.481 128.092 148.825 128.184 149.265 128.184ZM156.209 129.072C155.689 129.072 155.189 129.004 154.709 128.868C154.229 128.724 153.853 128.544 153.581 128.328L154.061 127.416C154.341 127.616 154.681 127.776 155.081 127.896C155.481 128.016 155.885 128.076 156.293 128.076C157.301 128.076 157.805 127.788 157.805 127.212C157.805 127.02 157.737 126.868 157.601 126.756C157.465 126.644 157.293 126.564 157.085 126.516C156.885 126.46 156.597 126.4 156.221 126.336C155.709 126.256 155.289 126.164 154.961 126.06C154.641 125.956 154.365 125.78 154.133 125.532C153.901 125.284 153.785 124.936 153.785 124.488C153.785 123.912 154.025 123.452 154.505 123.108C154.985 122.756 155.629 122.58 156.437 122.58C156.861 122.58 157.285 122.632 157.709 122.736C158.133 122.84 158.481 122.98 158.753 123.156L158.261 124.068C157.741 123.732 157.129 123.564 156.425 123.564C155.937 123.564 155.565 123.644 155.309 123.804C155.053 123.964 154.925 124.176 154.925 124.44C154.925 124.648 154.997 124.812 155.141 124.932C155.285 125.052 155.461 125.14 155.669 125.196C155.885 125.252 156.185 125.316 156.569 125.388C157.081 125.476 157.493 125.572 157.805 125.676C158.125 125.772 158.397 125.94 158.621 126.18C158.845 126.42 158.957 126.756 158.957 127.188C158.957 127.764 158.709 128.224 158.213 128.568C157.725 128.904 157.057 129.072 156.209 129.072ZM27.26 137.64V146.328H26.108V143.04C25.844 143.376 25.52 143.632 25.136 143.808C24.76 143.984 24.344 144.072 23.888 144.072C23.272 144.072 22.72 143.936 22.232 143.664C21.744 143.392 21.36 143.012 21.08 142.524C20.808 142.028 20.672 141.46 20.672 140.82C20.672 140.18 20.808 139.616 21.08 139.128C21.36 138.64 21.744 138.26 22.232 137.988C22.72 137.716 23.272 137.58 23.888 137.58C24.36 137.58 24.792 137.672 25.184 137.856C25.576 138.032 25.9 138.296 26.156 138.648V137.64H27.26ZM23.984 143.064C24.384 143.064 24.748 142.972 25.076 142.788C25.404 142.596 25.66 142.332 25.844 141.996C26.028 141.652 26.12 141.26 26.12 140.82C26.12 140.38 26.024 139.992 25.832 139.656C25.648 139.32 25.392 139.06 25.064 138.876C24.744 138.684 24.384 138.588 23.984 138.588C23.576 138.588 23.208 138.68 22.88 138.864C22.56 139.048 22.304 139.312 22.112 139.656C21.928 139.992 21.836 140.38 21.836 140.82C21.836 141.26 21.928 141.652 22.112 141.996C22.304 142.332 22.56 142.596 22.88 142.788C23.208 142.972 23.576 143.064 23.984 143.064ZM35.3677 137.64V144H34.2757V143.04C34.0437 143.368 33.7357 143.624 33.3517 143.808C32.9757 143.984 32.5637 144.072 32.1157 144.072C31.2677 144.072 30.5997 143.84 30.1117 143.376C29.6237 142.904 29.3797 142.212 29.3797 141.3V137.64H30.5317V141.168C30.5317 141.784 30.6797 142.252 30.9757 142.572C31.2717 142.884 31.6957 143.04 32.2477 143.04C32.8557 143.04 33.3357 142.856 33.6877 142.488C34.0397 142.12 34.2157 141.6 34.2157 140.928V137.64H35.3677ZM43.3088 140.856C43.3088 140.944 43.3008 141.06 43.2848 141.204H38.1248C38.1968 141.764 38.4408 142.216 38.8568 142.56C39.2808 142.896 39.8048 143.064 40.4288 143.064C41.1888 143.064 41.8008 142.808 42.2648 142.296L42.9008 143.04C42.6128 143.376 42.2528 143.632 41.8208 143.808C41.3968 143.984 40.9208 144.072 40.3928 144.072C39.7208 144.072 39.1248 143.936 38.6048 143.664C38.0848 143.384 37.6808 142.996 37.3928 142.5C37.1128 142.004 36.9728 141.444 36.9728 140.82C36.9728 140.204 37.1088 139.648 37.3808 139.152C37.6608 138.656 38.0408 138.272 38.5208 138C39.0088 137.72 39.5568 137.58 40.1648 137.58C40.7728 137.58 41.3128 137.72 41.7848 138C42.2648 138.272 42.6368 138.656 42.9008 139.152C43.1728 139.648 43.3088 140.216 43.3088 140.856ZM40.1648 138.552C39.6128 138.552 39.1488 138.72 38.7728 139.056C38.4048 139.392 38.1888 139.832 38.1248 140.376H42.2048C42.1408 139.84 41.9208 139.404 41.5448 139.068C41.1768 138.724 40.7168 138.552 40.1648 138.552ZM51.7071 143.628C51.5391 143.772 51.3311 143.884 51.0831 143.964C50.8351 144.036 50.5791 144.072 50.3151 144.072C49.6751 144.072 49.1791 143.9 48.8271 143.556C48.4751 143.212 48.2991 142.72 48.2991 142.08V138.588H47.2191V137.64H48.2991V136.248H49.4511V137.64H51.2751V138.588H49.4511V142.032C49.4511 142.376 49.5351 142.64 49.7031 142.824C49.8791 143.008 50.1271 143.1 50.4471 143.1C50.7991 143.1 51.0991 143 51.3471 142.8L51.7071 143.628ZM58.6369 140.856C58.6369 140.944 58.6289 141.06 58.6129 141.204H53.4529C53.5249 141.764 53.7689 142.216 54.1849 142.56C54.6089 142.896 55.1329 143.064 55.7569 143.064C56.5169 143.064 57.1289 142.808 57.5929 142.296L58.2289 143.04C57.9409 143.376 57.5809 143.632 57.1489 143.808C56.7249 143.984 56.2489 144.072 55.7209 144.072C55.0489 144.072 54.4529 143.936 53.9329 143.664C53.4129 143.384 53.0089 142.996 52.7209 142.5C52.4409 142.004 52.3009 141.444 52.3009 140.82C52.3009 140.204 52.4369 139.648 52.7089 139.152C52.9889 138.656 53.3689 138.272 53.8489 138C54.3369 137.72 54.8849 137.58 55.4929 137.58C56.1009 137.58 56.6409 137.72 57.1129 138C57.5929 138.272 57.9649 138.656 58.2289 139.152C58.5009 139.648 58.6369 140.216 58.6369 140.856ZM55.4929 138.552C54.9409 138.552 54.4769 138.72 54.1009 139.056C53.7329 139.392 53.5169 139.832 53.4529 140.376H57.5329C57.4689 139.84 57.2489 139.404 56.8729 139.068C56.5049 138.724 56.0449 138.552 55.4929 138.552ZM63.4592 137.64H64.6112V144H63.4592V137.64ZM64.0352 136.416C63.8112 136.416 63.6232 136.344 63.4712 136.2C63.3272 136.056 63.2552 135.88 63.2552 135.672C63.2552 135.464 63.3272 135.288 63.4712 135.144C63.6232 134.992 63.8112 134.916 64.0352 134.916C64.2592 134.916 64.4432 134.988 64.5872 135.132C64.7392 135.268 64.8152 135.44 64.8152 135.648C64.8152 135.864 64.7392 136.048 64.5872 136.2C64.4432 136.344 64.2592 136.416 64.0352 136.416ZM70.2068 137.58C71.0148 137.58 71.6548 137.816 72.1268 138.288C72.6068 138.752 72.8468 139.436 72.8468 140.34V144H71.6948V140.472C71.6948 139.856 71.5468 139.392 71.2508 139.08C70.9548 138.768 70.5308 138.612 69.9788 138.612C69.3548 138.612 68.8628 138.796 68.5028 139.164C68.1428 139.524 67.9628 140.044 67.9628 140.724V144H66.8108V137.64H67.9148V138.6C68.1468 138.272 68.4588 138.02 68.8508 137.844C69.2508 137.668 69.7028 137.58 70.2068 137.58ZM81.0139 135.096V144H79.9099V142.992C79.6539 143.344 79.3299 143.612 78.9379 143.796C78.5459 143.98 78.1139 144.072 77.6419 144.072C77.0259 144.072 76.4739 143.936 75.9859 143.664C75.4979 143.392 75.1139 143.012 74.8339 142.524C74.5619 142.028 74.4259 141.46 74.4259 140.82C74.4259 140.18 74.5619 139.616 74.8339 139.128C75.1139 138.64 75.4979 138.26 75.9859 137.988C76.4739 137.716 77.0259 137.58 77.6419 137.58C78.0979 137.58 78.5179 137.668 78.9019 137.844C79.2859 138.012 79.6059 138.264 79.8619 138.6V135.096H81.0139ZM77.7379 143.064C78.1379 143.064 78.5019 142.972 78.8299 142.788C79.1579 142.596 79.4139 142.332 79.5979 141.996C79.7819 141.652 79.8739 141.26 79.8739 140.82C79.8739 140.38 79.7819 139.992 79.5979 139.656C79.4139 139.312 79.1579 139.048 78.8299 138.864C78.5019 138.68 78.1379 138.588 77.7379 138.588C77.3299 138.588 76.9619 138.68 76.6339 138.864C76.3139 139.048 76.0579 139.312 75.8659 139.656C75.6819 139.992 75.5899 140.38 75.5899 140.82C75.5899 141.26 75.6819 141.652 75.8659 141.996C76.0579 142.332 76.3139 142.596 76.6339 142.788C76.9619 142.972 77.3299 143.064 77.7379 143.064ZM83.1936 137.64H84.3456V144H83.1936V137.64ZM83.7696 136.416C83.5456 136.416 83.3576 136.344 83.2056 136.2C83.0616 136.056 82.9896 135.88 82.9896 135.672C82.9896 135.464 83.0616 135.288 83.2056 135.144C83.3576 134.992 83.5456 134.916 83.7696 134.916C83.9936 134.916 84.1776 134.988 84.3216 135.132C84.4736 135.268 84.5496 135.44 84.5496 135.648C84.5496 135.864 84.4736 136.048 84.3216 136.2C84.1776 136.344 83.9936 136.416 83.7696 136.416ZM89.3171 144.072C88.6691 144.072 88.0891 143.932 87.5771 143.652C87.0731 143.372 86.6771 142.988 86.3891 142.5C86.1011 142.004 85.9571 141.444 85.9571 140.82C85.9571 140.196 86.1011 139.64 86.3891 139.152C86.6771 138.656 87.0731 138.272 87.5771 138C88.0891 137.72 88.6691 137.58 89.3171 137.58C89.8931 137.58 90.4051 137.696 90.8531 137.928C91.3091 138.16 91.6611 138.496 91.9091 138.936L91.0331 139.5C90.8331 139.196 90.5851 138.968 90.2891 138.816C89.9931 138.664 89.6651 138.588 89.3051 138.588C88.8891 138.588 88.5131 138.68 88.1771 138.864C87.8491 139.048 87.5891 139.312 87.3971 139.656C87.2131 139.992 87.1211 140.38 87.1211 140.82C87.1211 141.268 87.2131 141.664 87.3971 142.008C87.5891 142.344 87.8491 142.604 88.1771 142.788C88.5131 142.972 88.8891 143.064 89.3051 143.064C89.6651 143.064 89.9931 142.988 90.2891 142.836C90.5851 142.684 90.8331 142.456 91.0331 142.152L91.9091 142.704C91.6611 143.144 91.3091 143.484 90.8531 143.724C90.4051 143.956 89.8931 144.072 89.3171 144.072ZM95.7166 137.58C96.5966 137.58 97.2686 137.796 97.7326 138.228C98.2046 138.66 98.4406 139.304 98.4406 140.16V144H97.3486V143.16C97.1566 143.456 96.8806 143.684 96.5206 143.844C96.1686 143.996 95.7486 144.072 95.2606 144.072C94.5486 144.072 93.9766 143.9 93.5446 143.556C93.1206 143.212 92.9086 142.76 92.9086 142.2C92.9086 141.64 93.1126 141.192 93.5206 140.856C93.9286 140.512 94.5766 140.34 95.4646 140.34H97.2886V140.112C97.2886 139.616 97.1446 139.236 96.8566 138.972C96.5686 138.708 96.1446 138.576 95.5846 138.576C95.2086 138.576 94.8406 138.64 94.4806 138.768C94.1206 138.888 93.8166 139.052 93.5686 139.26L93.0886 138.396C93.4166 138.132 93.8086 137.932 94.2646 137.796C94.7206 137.652 95.2046 137.58 95.7166 137.58ZM95.4526 143.184C95.8926 143.184 96.2726 143.088 96.5926 142.896C96.9126 142.696 97.1446 142.416 97.2886 142.056V141.168H95.5126C94.5366 141.168 94.0486 141.496 94.0486 142.152C94.0486 142.472 94.1726 142.724 94.4206 142.908C94.6686 143.092 95.0126 143.184 95.4526 143.184ZM109.543 140.856C109.543 140.944 109.535 141.06 109.519 141.204H104.359C104.431 141.764 104.675 142.216 105.091 142.56C105.515 142.896 106.039 143.064 106.663 143.064C107.423 143.064 108.035 142.808 108.499 142.296L109.135 143.04C108.847 143.376 108.487 143.632 108.055 143.808C107.631 143.984 107.155 144.072 106.627 144.072C105.955 144.072 105.359 143.936 104.839 143.664C104.319 143.384 103.915 142.996 103.627 142.5C103.347 142.004 103.207 141.444 103.207 140.82C103.207 140.204 103.343 139.648 103.615 139.152C103.895 138.656 104.275 138.272 104.755 138C105.243 137.72 105.791 137.58 106.399 137.58C107.007 137.58 107.547 137.72 108.019 138C108.499 138.272 108.871 138.656 109.135 139.152C109.407 139.648 109.543 140.216 109.543 140.856ZM106.399 138.552C105.847 138.552 105.383 138.72 105.007 139.056C104.639 139.392 104.423 139.832 104.359 140.376H108.439C108.375 139.84 108.155 139.404 107.779 139.068C107.411 138.724 106.951 138.552 106.399 138.552ZM111.143 135.096H112.295V144H111.143V135.096ZM123.801 137.64V143.136C123.801 144.248 123.525 145.068 122.973 145.596C122.421 146.132 121.597 146.4 120.501 146.4C119.901 146.4 119.329 146.316 118.785 146.148C118.241 145.988 117.801 145.756 117.465 145.452L118.017 144.564C118.313 144.82 118.677 145.02 119.109 145.164C119.549 145.316 120.001 145.392 120.465 145.392C121.209 145.392 121.757 145.216 122.109 144.864C122.469 144.512 122.649 143.976 122.649 143.256V142.752C122.377 143.08 122.041 143.328 121.641 143.496C121.249 143.656 120.821 143.736 120.357 143.736C119.749 143.736 119.197 143.608 118.701 143.352C118.213 143.088 117.829 142.724 117.549 142.26C117.269 141.788 117.129 141.252 117.129 140.652C117.129 140.052 117.269 139.52 117.549 139.056C117.829 138.584 118.213 138.22 118.701 137.964C119.197 137.708 119.749 137.58 120.357 137.58C120.837 137.58 121.281 137.668 121.689 137.844C122.105 138.02 122.445 138.28 122.709 138.624V137.64H123.801ZM120.489 142.728C120.905 142.728 121.277 142.64 121.605 142.464C121.941 142.288 122.201 142.044 122.385 141.732C122.577 141.412 122.673 141.052 122.673 140.652C122.673 140.036 122.469 139.54 122.061 139.164C121.653 138.78 121.129 138.588 120.489 138.588C119.841 138.588 119.313 138.78 118.905 139.164C118.497 139.54 118.293 140.036 118.293 140.652C118.293 141.052 118.385 141.412 118.569 141.732C118.761 142.044 119.021 142.288 119.349 142.464C119.685 142.64 120.065 142.728 120.489 142.728ZM127.106 138.708C127.306 138.34 127.602 138.06 127.994 137.868C128.386 137.676 128.862 137.58 129.422 137.58V138.696C129.358 138.688 129.27 138.684 129.158 138.684C128.534 138.684 128.042 138.872 127.682 139.248C127.33 139.616 127.154 140.144 127.154 140.832V144H126.002V137.64H127.106V138.708ZM133.146 137.58C134.026 137.58 134.698 137.796 135.162 138.228C135.634 138.66 135.87 139.304 135.87 140.16V144H134.778V143.16C134.586 143.456 134.31 143.684 133.95 143.844C133.598 143.996 133.178 144.072 132.69 144.072C131.978 144.072 131.406 143.9 130.974 143.556C130.55 143.212 130.338 142.76 130.338 142.2C130.338 141.64 130.542 141.192 130.95 140.856C131.358 140.512 132.006 140.34 132.894 140.34H134.718V140.112C134.718 139.616 134.574 139.236 134.286 138.972C133.998 138.708 133.574 138.576 133.014 138.576C132.638 138.576 132.27 138.64 131.91 138.768C131.55 138.888 131.246 139.052 130.998 139.26L130.518 138.396C130.846 138.132 131.238 137.932 131.694 137.796C132.15 137.652 132.634 137.58 133.146 137.58ZM132.882 143.184C133.322 143.184 133.702 143.088 134.022 142.896C134.342 142.696 134.574 142.416 134.718 142.056V141.168H132.942C131.966 141.168 131.478 141.496 131.478 142.152C131.478 142.472 131.602 142.724 131.85 142.908C132.098 143.092 132.442 143.184 132.882 143.184ZM133.962 135.156H135.426L133.41 136.716H132.33L133.962 135.156ZM140.33 135.972C139.642 135.972 139.298 136.344 139.298 137.088V137.64H141.146V138.588H139.322V144H138.17V138.588H137.09V137.64H138.17V137.076C138.17 136.444 138.354 135.944 138.722 135.576C139.09 135.208 139.606 135.024 140.27 135.024C140.526 135.024 140.766 135.056 140.99 135.12C141.214 135.184 141.406 135.276 141.566 135.396L141.218 136.272C140.954 136.072 140.658 135.972 140.33 135.972ZM143.198 137.64H144.35V144H143.198V137.64ZM143.774 136.416C143.55 136.416 143.362 136.344 143.21 136.2C143.066 136.056 142.994 135.88 142.994 135.672C142.994 135.464 143.066 135.288 143.21 135.144C143.362 134.992 143.55 134.916 143.774 134.916C143.998 134.916 144.182 134.988 144.326 135.132C144.478 135.268 144.554 135.44 144.554 135.648C144.554 135.864 144.478 136.048 144.326 136.2C144.182 136.344 143.998 136.416 143.774 136.416ZM149.317 144.072C148.669 144.072 148.089 143.932 147.577 143.652C147.073 143.372 146.677 142.988 146.389 142.5C146.101 142.004 145.957 141.444 145.957 140.82C145.957 140.196 146.101 139.64 146.389 139.152C146.677 138.656 147.073 138.272 147.577 138C148.089 137.72 148.669 137.58 149.317 137.58C149.893 137.58 150.405 137.696 150.853 137.928C151.309 138.16 151.661 138.496 151.909 138.936L151.033 139.5C150.833 139.196 150.585 138.968 150.289 138.816C149.993 138.664 149.665 138.588 149.305 138.588C148.889 138.588 148.513 138.68 148.177 138.864C147.849 139.048 147.589 139.312 147.397 139.656C147.213 139.992 147.121 140.38 147.121 140.82C147.121 141.268 147.213 141.664 147.397 142.008C147.589 142.344 147.849 142.604 148.177 142.788C148.513 142.972 148.889 143.064 149.305 143.064C149.665 143.064 149.993 142.988 150.289 142.836C150.585 142.684 150.833 142.456 151.033 142.152L151.909 142.704C151.661 143.144 151.309 143.484 150.853 143.724C150.405 143.956 149.893 144.072 149.317 144.072ZM156.031 144.072C155.399 144.072 154.831 143.932 154.327 143.652C153.823 143.372 153.427 142.988 153.139 142.5C152.859 142.004 152.719 141.444 152.719 140.82C152.719 140.196 152.859 139.64 153.139 139.152C153.427 138.656 153.823 138.272 154.327 138C154.831 137.72 155.399 137.58 156.031 137.58C156.663 137.58 157.227 137.72 157.723 138C158.227 138.272 158.619 138.656 158.899 139.152C159.187 139.64 159.331 140.196 159.331 140.82C159.331 141.444 159.187 142.004 158.899 142.5C158.619 142.988 158.227 143.372 157.723 143.652C157.227 143.932 156.663 144.072 156.031 144.072ZM156.031 143.064C156.439 143.064 156.803 142.972 157.123 142.788C157.451 142.596 157.707 142.332 157.891 141.996C158.075 141.652 158.167 141.26 158.167 140.82C158.167 140.38 158.075 139.992 157.891 139.656C157.707 139.312 157.451 139.048 157.123 138.864C156.803 138.68 156.439 138.588 156.031 138.588C155.623 138.588 155.255 138.68 154.927 138.864C154.607 139.048 154.351 139.312 154.159 139.656C153.975 139.992 153.883 140.38 153.883 140.82C153.883 141.26 153.975 141.652 154.159 141.996C154.351 142.332 154.607 142.596 154.927 142.788C155.255 142.972 155.623 143.064 156.031 143.064ZM51.6204 152.64L48.5364 159.636C48.2644 160.284 47.9444 160.74 47.5764 161.004C47.2164 161.268 46.7804 161.4 46.2684 161.4C45.9564 161.4 45.6524 161.348 45.3564 161.244C45.0684 161.148 44.8284 161.004 44.6364 160.812L45.1284 159.948C45.4564 160.26 45.8364 160.416 46.2684 160.416C46.5484 160.416 46.7804 160.34 46.9644 160.188C47.1564 160.044 47.3284 159.792 47.4804 159.432L47.6844 158.988L44.8764 152.64H46.0764L48.2964 157.728L50.4924 152.64H51.6204ZM62.0022 152.64V158.136C62.0022 159.248 61.7262 160.068 61.1742 160.596C60.6222 161.132 59.7982 161.4 58.7022 161.4C58.1022 161.4 57.5302 161.316 56.9862 161.148C56.4422 160.988 56.0022 160.756 55.6662 160.452L56.2182 159.564C56.5142 159.82 56.8782 160.02 57.3102 160.164C57.7502 160.316 58.2022 160.392 58.6662 160.392C59.4102 160.392 59.9582 160.216 60.3102 159.864C60.6702 159.512 60.8502 158.976 60.8502 158.256V157.752C60.5782 158.08 60.2422 158.328 59.8422 158.496C59.4502 158.656 59.0222 158.736 58.5582 158.736C57.9502 158.736 57.3982 158.608 56.9022 158.352C56.4142 158.088 56.0302 157.724 55.7502 157.26C55.4702 156.788 55.3302 156.252 55.3302 155.652C55.3302 155.052 55.4702 154.52 55.7502 154.056C56.0302 153.584 56.4142 153.22 56.9022 152.964C57.3982 152.708 57.9502 152.58 58.5582 152.58C59.0382 152.58 59.4822 152.668 59.8902 152.844C60.3062 153.02 60.6462 153.28 60.9102 153.624V152.64H62.0022ZM58.6902 157.728C59.1062 157.728 59.4782 157.64 59.8062 157.464C60.1422 157.288 60.4022 157.044 60.5862 156.732C60.7782 156.412 60.8742 156.052 60.8742 155.652C60.8742 155.036 60.6702 154.54 60.2622 154.164C59.8542 153.78 59.3302 153.588 58.6902 153.588C58.0422 153.588 57.5142 153.78 57.1062 154.164C56.6982 154.54 56.4942 155.036 56.4942 155.652C56.4942 156.052 56.5862 156.412 56.7702 156.732C56.9622 157.044 57.2222 157.288 57.5502 157.464C57.8862 157.64 58.2662 157.728 58.6902 157.728ZM64.2033 152.64H65.3553V159H64.2033V152.64ZM64.7793 151.416C64.5553 151.416 64.3673 151.344 64.2153 151.2C64.0713 151.056 63.9993 150.88 63.9993 150.672C63.9993 150.464 64.0713 150.288 64.2153 150.144C64.3673 149.992 64.5553 149.916 64.7793 149.916C65.0033 149.916 65.1873 149.988 65.3313 150.132C65.4833 150.268 65.5593 150.44 65.5593 150.648C65.5593 150.864 65.4833 151.048 65.3313 151.2C65.1873 151.344 65.0033 151.416 64.7793 151.416ZM68.6589 153.708C68.8589 153.34 69.1549 153.06 69.5469 152.868C69.9389 152.676 70.4149 152.58 70.9749 152.58V153.696C70.9109 153.688 70.8229 153.684 70.7109 153.684C70.0869 153.684 69.5949 153.872 69.2349 154.248C68.8829 154.616 68.7069 155.144 68.7069 155.832V159H67.5549V152.64H68.6589V153.708ZM74.699 152.58C75.579 152.58 76.251 152.796 76.715 153.228C77.187 153.66 77.423 154.304 77.423 155.16V159H76.331V158.16C76.139 158.456 75.863 158.684 75.503 158.844C75.151 158.996 74.731 159.072 74.243 159.072C73.531 159.072 72.959 158.9 72.527 158.556C72.103 158.212 71.891 157.76 71.891 157.2C71.891 156.64 72.095 156.192 72.503 155.856C72.911 155.512 73.559 155.34 74.447 155.34H76.271V155.112C76.271 154.616 76.127 154.236 75.839 153.972C75.551 153.708 75.127 153.576 74.567 153.576C74.191 153.576 73.823 153.64 73.463 153.768C73.103 153.888 72.799 154.052 72.551 154.26L72.071 153.396C72.399 153.132 72.791 152.932 73.247 152.796C73.703 152.652 74.187 152.58 74.699 152.58ZM74.435 158.184C74.875 158.184 75.255 158.088 75.575 157.896C75.895 157.696 76.127 157.416 76.271 157.056V156.168H74.495C73.519 156.168 73.031 156.496 73.031 157.152C73.031 157.472 73.155 157.724 73.403 157.908C73.651 158.092 73.995 158.184 74.435 158.184ZM82.7775 150.096H83.9295V159H82.7775V150.096ZM88.4451 152.58C89.3251 152.58 89.9971 152.796 90.4611 153.228C90.9331 153.66 91.1691 154.304 91.1691 155.16V159H90.0771V158.16C89.8851 158.456 89.6091 158.684 89.2491 158.844C88.8971 158.996 88.4771 159.072 87.9891 159.072C87.2771 159.072 86.7051 158.9 86.2731 158.556C85.8491 158.212 85.6371 157.76 85.6371 157.2C85.6371 156.64 85.8411 156.192 86.2491 155.856C86.6571 155.512 87.3051 155.34 88.1931 155.34H90.0171V155.112C90.0171 154.616 89.8731 154.236 89.5851 153.972C89.2971 153.708 88.8731 153.576 88.3131 153.576C87.9371 153.576 87.5691 153.64 87.2091 153.768C86.8491 153.888 86.5451 154.052 86.2971 154.26L85.8171 153.396C86.1451 153.132 86.5371 152.932 86.9931 152.796C87.4491 152.652 87.9331 152.58 88.4451 152.58ZM88.1811 158.184C88.6211 158.184 89.0011 158.088 89.3211 157.896C89.6411 157.696 89.8731 157.416 90.0171 157.056V156.168H88.2411C87.2651 156.168 86.7771 156.496 86.7771 157.152C86.7771 157.472 86.9011 157.724 87.1491 157.908C87.3971 158.092 87.7411 158.184 88.1811 158.184ZM98.8516 150.972C98.1636 150.972 97.8196 151.344 97.8196 152.088V152.64H99.6676V153.588H97.8436V159H96.6916V153.588H95.6116V152.64H96.6916V152.076C96.6916 151.444 96.8756 150.944 97.2436 150.576C97.6116 150.208 98.1276 150.024 98.7916 150.024C99.0476 150.024 99.2876 150.056 99.5116 150.12C99.7356 150.184 99.9276 150.276 100.088 150.396L99.7396 151.272C99.4756 151.072 99.1796 150.972 98.8516 150.972ZM101.72 152.64H102.872V159H101.72V152.64ZM102.296 151.416C102.072 151.416 101.884 151.344 101.732 151.2C101.588 151.056 101.516 150.88 101.516 150.672C101.516 150.464 101.588 150.288 101.732 150.144C101.884 149.992 102.072 149.916 102.296 149.916C102.52 149.916 102.704 149.988 102.848 150.132C103 150.268 103.076 150.44 103.076 150.648C103.076 150.864 103 151.048 102.848 151.2C102.704 151.344 102.52 151.416 102.296 151.416ZM111.151 152.64V158.136C111.151 159.248 110.875 160.068 110.323 160.596C109.771 161.132 108.947 161.4 107.851 161.4C107.251 161.4 106.679 161.316 106.135 161.148C105.591 160.988 105.151 160.756 104.815 160.452L105.367 159.564C105.663 159.82 106.027 160.02 106.459 160.164C106.899 160.316 107.351 160.392 107.815 160.392C108.559 160.392 109.107 160.216 109.459 159.864C109.819 159.512 109.999 158.976 109.999 158.256V157.752C109.727 158.08 109.391 158.328 108.991 158.496C108.599 158.656 108.171 158.736 107.707 158.736C107.099 158.736 106.547 158.608 106.051 158.352C105.563 158.088 105.179 157.724 104.899 157.26C104.619 156.788 104.479 156.252 104.479 155.652C104.479 155.052 104.619 154.52 104.899 154.056C105.179 153.584 105.563 153.22 106.051 152.964C106.547 152.708 107.099 152.58 107.707 152.58C108.187 152.58 108.631 152.668 109.039 152.844C109.455 153.02 109.795 153.28 110.059 153.624V152.64H111.151ZM107.839 157.728C108.255 157.728 108.627 157.64 108.955 157.464C109.291 157.288 109.551 157.044 109.735 156.732C109.927 156.412 110.023 156.052 110.023 155.652C110.023 155.036 109.819 154.54 109.411 154.164C109.003 153.78 108.479 153.588 107.839 153.588C107.191 153.588 106.663 153.78 106.255 154.164C105.847 154.54 105.643 155.036 105.643 155.652C105.643 156.052 105.735 156.412 105.919 156.732C106.111 157.044 106.371 157.288 106.699 157.464C107.035 157.64 107.415 157.728 107.839 157.728ZM119.28 152.64V159H118.188V158.04C117.956 158.368 117.648 158.624 117.264 158.808C116.888 158.984 116.476 159.072 116.028 159.072C115.18 159.072 114.512 158.84 114.024 158.376C113.536 157.904 113.292 157.212 113.292 156.3V152.64H114.444V156.168C114.444 156.784 114.592 157.252 114.888 157.572C115.184 157.884 115.608 158.04 116.16 158.04C116.768 158.04 117.248 157.856 117.6 157.488C117.952 157.12 118.128 156.6 118.128 155.928V152.64H119.28ZM122.577 153.708C122.777 153.34 123.073 153.06 123.465 152.868C123.857 152.676 124.333 152.58 124.893 152.58V153.696C124.829 153.688 124.741 153.684 124.629 153.684C124.005 153.684 123.513 153.872 123.153 154.248C122.801 154.616 122.625 155.144 122.625 155.832V159H121.473V152.64H122.577V153.708ZM128.617 152.58C129.497 152.58 130.169 152.796 130.633 153.228C131.105 153.66 131.341 154.304 131.341 155.16V159H130.249V158.16C130.057 158.456 129.781 158.684 129.421 158.844C129.069 158.996 128.649 159.072 128.161 159.072C127.449 159.072 126.877 158.9 126.445 158.556C126.021 158.212 125.809 157.76 125.809 157.2C125.809 156.64 126.013 156.192 126.421 155.856C126.829 155.512 127.477 155.34 128.365 155.34H130.189V155.112C130.189 154.616 130.045 154.236 129.757 153.972C129.469 153.708 129.045 153.576 128.485 153.576C128.109 153.576 127.741 153.64 127.381 153.768C127.021 153.888 126.717 154.052 126.469 154.26L125.989 153.396C126.317 153.132 126.709 152.932 127.165 152.796C127.621 152.652 128.105 152.58 128.617 152.58ZM128.353 158.184C128.793 158.184 129.173 158.088 129.493 157.896C129.813 157.696 130.045 157.416 130.189 157.056V156.168H128.413C127.437 156.168 126.949 156.496 126.949 157.152C126.949 157.472 127.073 157.724 127.321 157.908C127.569 158.092 127.913 158.184 128.353 158.184ZM133.749 159.072C133.525 159.072 133.333 158.996 133.173 158.844C133.013 158.684 132.933 158.484 132.933 158.244C132.933 158.012 133.013 157.82 133.173 157.668C133.333 157.508 133.525 157.428 133.749 157.428C133.973 157.428 134.161 157.504 134.313 157.656C134.465 157.808 134.541 158.004 134.541 158.244C134.541 158.484 134.461 158.684 134.301 158.844C134.149 158.996 133.965 159.072 133.749 159.072Z" fill="#008E86"/>
<path d="M44 66L72.5 37.5L134 66L57 77.7586L44 66Z" fill="#00D8CC" stroke="#00635D" stroke-width="2" stroke-linejoin="round"/>
<path d="M133.371 65.7585L72.5 65.7585L72.5 37.7585L133.371 65.7585Z" fill="#008E86" stroke="#00635D" stroke-width="2" stroke-linejoin="round"/>
<path d="M126.315 28.7268C125.763 28.7268 125.315 29.1745 125.315 29.7268L125.315 38.7268C125.315 39.279 125.763 39.7268 126.315 39.7268C126.868 39.7268 127.315 39.2791 127.315 38.7268L127.315 30.7268L135.315 30.7269C135.868 30.7269 136.315 30.2792 136.315 29.7269C136.315 29.1746 135.868 28.7269 135.315 28.7269L126.315 28.7268ZM121.359 50.6297L121.359 49.6297L121.359 50.6297ZM106.55 43.2422C106.16 42.8517 105.527 42.8517 105.136 43.2422C104.746 43.6328 104.746 44.2659 105.136 44.6565L106.55 43.2422ZM125.608 30.4339C130.439 35.2644 130.982 40.0822 129.612 43.6147C128.211 47.2272 124.786 49.6297 121.359 49.6297L121.359 51.6297C125.689 51.6297 129.806 48.6448 131.477 44.3378C133.178 39.951 132.32 34.3174 127.023 29.0197L125.608 30.4339ZM121.359 49.6297C118.755 49.6297 116.789 48.4282 115.378 46.5591C113.946 44.6625 113.095 42.0788 112.842 39.4365C112.589 36.7914 112.947 34.202 113.809 32.3184C114.671 30.438 115.932 29.4338 117.48 29.4338L117.48 27.4338C114.858 27.4338 113.036 29.2041 111.991 31.4854C110.948 33.7636 110.574 36.7232 110.851 39.627C111.129 42.5337 112.071 45.4989 113.781 47.7641C115.512 50.0566 118.036 51.6297 121.359 51.6297L121.359 49.6297ZM117.48 29.4338C118.616 29.4338 119.436 29.8071 120.036 30.3968C120.654 31.0054 121.105 31.9114 121.346 33.0635C121.833 35.3822 121.416 38.4399 120.226 41.119C119.03 43.8107 117.158 45.8972 114.928 46.5675C112.782 47.2127 109.951 46.6424 106.55 43.2422L105.136 44.6565C108.847 48.3676 112.408 49.4135 115.504 48.4829C118.516 47.5774 120.737 44.8961 122.054 41.931C123.377 38.9535 123.894 35.4656 123.304 32.6528C123.007 31.2392 122.416 29.9331 121.438 28.9709C120.441 27.9899 119.107 27.4338 117.48 27.4338L117.48 29.4338Z" fill="black"/>
<path d="M88 44.7585H65" stroke="#333333" stroke-width="2" stroke-dasharray="4 4"/>
<path d="M53 74.7585L53 56.7585" stroke="#333333" stroke-width="2" stroke-dasharray="4 4"/>
<path opacity="0.25" d="M134.012 66H44.0117" stroke="#333333" stroke-width="2"/>
<path opacity="0.25" d="M134 65.7588H44" stroke="#333333" stroke-width="2"/>
<path d="M88.6788 33.0251C88.2737 32.6497 87.641 32.6737 87.2656 33.0788C86.8902 33.4839 86.9143 34.1166 87.3194 34.492L88.6788 33.0251ZM86.9998 56.3369C86.9788 56.8887 87.4092 57.3532 87.9611 57.3742L96.9546 57.7164C97.5065 57.7374 97.9709 57.307 97.9919 56.7552C98.0129 56.2033 97.5825 55.7389 97.0306 55.7178L89.0364 55.4136L89.3406 47.4194C89.3616 46.8675 88.9313 46.4031 88.3794 46.3821C87.8275 46.3611 87.3631 46.7915 87.3421 47.3434L86.9998 56.3369ZM87.3194 34.492C90.7004 37.6252 92.207 41.3383 92.207 45.0194L94.207 45.0194C94.207 40.7517 92.4459 36.5159 88.6788 33.0251L87.3194 34.492ZM92.207 45.0194C92.207 46.8061 91.6032 48.9016 90.659 50.8674C89.7162 52.8304 88.4822 54.5638 87.3194 55.6414L88.6788 57.1084C90.0689 55.8202 91.4389 53.8631 92.4618 51.7334C93.4834 49.6065 94.207 47.2071 94.207 45.0194L92.207 45.0194Z" fill="black"/>
<path d="M44.2665 52.7005C43.8911 53.1056 43.9152 53.7383 44.3203 54.1137C44.7254 54.4891 45.3581 54.465 45.7335 54.0599L44.2665 52.7005ZM65.0324 54.3795C65.5843 54.4005 66.0487 53.9701 66.0697 53.4182L66.4119 44.4247C66.4329 43.8729 66.0026 43.4084 65.4507 43.3874C64.8988 43.3664 64.4344 43.7968 64.4134 44.3487L64.1091 52.3429L56.1149 52.0387C55.563 52.0177 55.0986 52.448 55.0776 52.9999C55.0566 53.5518 55.487 54.0162 56.0389 54.0372L65.0324 54.3795ZM45.7335 54.0599C48.4938 51.0812 51.7595 49.7585 54.9932 49.7585V47.7585C51.1729 47.7585 47.3846 49.3357 44.2665 52.7005L45.7335 54.0599ZM54.9932 49.7585C56.5562 49.7585 58.3987 50.2877 60.1342 51.1212C61.8668 51.9534 63.3925 53.0408 64.3369 54.0599L65.8039 52.7005C64.6489 51.4541 62.8995 50.2307 61.0001 49.3184C59.1036 48.4075 56.9572 47.7585 54.9932 47.7585V49.7585Z" fill="black"/>
</g>
<defs>
<clipPath id="clip0_5726_207359">
<rect width="180" height="180" rx="20" fill="white"/>
</clipPath>
<clipPath id="clip1_5726_207359">
<path d="M0 30L-1.31134e-06 0L30 -1.31134e-06L30 10C30 21.0457 21.0457 30 10 30L0 30Z" fill="white"/>
</clipPath>
</defs>
</svg>
