<svg width="180" height="180" viewBox="0 0 180 180" fill="none" xmlns="http://www.w3.org/2000/svg">
<g clip-path="url(#clip0_5726_207816)">
<rect width="180" height="180" rx="20" fill="#F2F2F2"/>
<g clip-path="url(#clip1_5726_207816)">
<path d="M0 30L-1.31134e-06 0L30 -1.31134e-06L30 10C30 21.0457 21.0457 30 10 30L0 30Z" fill="#333333"/>
<path d="M16.1216 14.36C17.103 14.52 17.855 14.888 18.3776 15.464C18.9003 16.0293 19.1616 16.7333 19.1616 17.576C19.1616 18.2267 18.991 18.8293 18.6496 19.384C18.3083 19.928 17.7856 20.3653 17.0816 20.696C16.3883 21.0267 15.535 21.192 14.5216 21.192C13.7323 21.192 12.9536 21.0907 12.1856 20.888C11.4283 20.6747 10.783 20.376 10.2496 19.992L11.2576 18.008C11.6843 18.328 12.175 18.5787 12.7296 18.76C13.295 18.9307 13.871 19.016 14.4576 19.016C15.1083 19.016 15.6203 18.8933 15.9936 18.648C16.367 18.392 16.5536 18.0347 16.5536 17.576C16.5536 16.6587 15.855 16.2 14.4576 16.2H13.2736V14.488L15.5776 11.88H10.8096V9.8H18.6496V11.48L16.1216 14.36Z" fill="#F2F2F2"/>
</g>
<path d="M40.342 113.6H43.882C44.77 113.6 45.558 113.776 46.246 114.128C46.934 114.48 47.466 114.976 47.842 115.616C48.226 116.248 48.418 116.976 48.418 117.8C48.418 118.624 48.226 119.356 47.842 119.996C47.466 120.628 46.934 121.12 46.246 121.472C45.558 121.824 44.77 122 43.882 122H40.342V113.6ZM43.81 120.956C44.49 120.956 45.086 120.824 45.598 120.56C46.118 120.296 46.518 119.928 46.798 119.456C47.078 118.976 47.218 118.424 47.218 117.8C47.218 117.176 47.078 116.628 46.798 116.156C46.518 115.676 46.118 115.304 45.598 115.04C45.086 114.776 44.49 114.644 43.81 114.644H41.542V120.956H43.81ZM52.8121 122.072C52.1801 122.072 51.6121 121.932 51.1081 121.652C50.6041 121.372 50.2081 120.988 49.9201 120.5C49.6401 120.004 49.5001 119.444 49.5001 118.82C49.5001 118.196 49.6401 117.64 49.9201 117.152C50.2081 116.656 50.6041 116.272 51.1081 116C51.6121 115.72 52.1801 115.58 52.8121 115.58C53.4441 115.58 54.0081 115.72 54.5041 116C55.0081 116.272 55.4001 116.656 55.6801 117.152C55.9681 117.64 56.1121 118.196 56.1121 118.82C56.1121 119.444 55.9681 120.004 55.6801 120.5C55.4001 120.988 55.0081 121.372 54.5041 121.652C54.0081 121.932 53.4441 122.072 52.8121 122.072ZM52.8121 121.064C53.2201 121.064 53.5841 120.972 53.9041 120.788C54.2321 120.596 54.4881 120.332 54.6721 119.996C54.8561 119.652 54.9481 119.26 54.9481 118.82C54.9481 118.38 54.8561 117.992 54.6721 117.656C54.4881 117.312 54.2321 117.048 53.9041 116.864C53.5841 116.68 53.2201 116.588 52.8121 116.588C52.4041 116.588 52.0361 116.68 51.7081 116.864C51.3881 117.048 51.1321 117.312 50.9401 117.656C50.7561 117.992 50.6641 118.38 50.6641 118.82C50.6641 119.26 50.7561 119.652 50.9401 119.996C51.1321 120.332 51.3881 120.596 51.7081 120.788C52.0361 120.972 52.4041 121.064 52.8121 121.064ZM61.0773 115.58C61.6933 115.58 62.2453 115.716 62.7333 115.988C63.2213 116.26 63.6013 116.64 63.8733 117.128C64.1533 117.616 64.2933 118.18 64.2933 118.82C64.2933 119.46 64.1533 120.028 63.8733 120.524C63.6013 121.012 63.2213 121.392 62.7333 121.664C62.2453 121.936 61.6933 122.072 61.0773 122.072C60.6053 122.072 60.1733 121.98 59.7813 121.796C59.3893 121.612 59.0653 121.344 58.8093 120.992V122H57.7053V113.096H58.8573V116.6C59.1133 116.264 59.4333 116.012 59.8173 115.844C60.2013 115.668 60.6213 115.58 61.0773 115.58ZM60.9813 121.064C61.3893 121.064 61.7533 120.972 62.0733 120.788C62.4013 120.596 62.6573 120.332 62.8413 119.996C63.0333 119.652 63.1293 119.26 63.1293 118.82C63.1293 118.38 63.0333 117.992 62.8413 117.656C62.6573 117.312 62.4013 117.048 62.0733 116.864C61.7533 116.68 61.3893 116.588 60.9813 116.588C60.5813 116.588 60.2173 116.68 59.8893 116.864C59.5613 117.048 59.3053 117.312 59.1213 117.656C58.9373 117.992 58.8453 118.38 58.8453 118.82C58.8453 119.26 58.9373 119.652 59.1213 119.996C59.3053 120.332 59.5613 120.596 59.8893 120.788C60.2173 120.972 60.5813 121.064 60.9813 121.064ZM65.885 113.096H67.037V122H65.885V113.096ZM71.5525 115.58C72.4325 115.58 73.1045 115.796 73.5685 116.228C74.0405 116.66 74.2765 117.304 74.2765 118.16V122H73.1845V121.16C72.9925 121.456 72.7165 121.684 72.3565 121.844C72.0045 121.996 71.5845 122.072 71.0965 122.072C70.3845 122.072 69.8125 121.9 69.3805 121.556C68.9565 121.212 68.7445 120.76 68.7445 120.2C68.7445 119.64 68.9485 119.192 69.3565 118.856C69.7645 118.512 70.4125 118.34 71.3005 118.34H73.1245V118.112C73.1245 117.616 72.9805 117.236 72.6925 116.972C72.4045 116.708 71.9805 116.576 71.4205 116.576C71.0445 116.576 70.6765 116.64 70.3165 116.768C69.9565 116.888 69.6525 117.052 69.4045 117.26L68.9245 116.396C69.2525 116.132 69.6445 115.932 70.1005 115.796C70.5565 115.652 71.0405 115.58 71.5525 115.58ZM71.2885 121.184C71.7285 121.184 72.1085 121.088 72.4285 120.896C72.7485 120.696 72.9805 120.416 73.1245 120.056V119.168H71.3485C70.3725 119.168 69.8845 119.496 69.8845 120.152C69.8845 120.472 70.0085 120.724 70.2565 120.908C70.5045 121.092 70.8485 121.184 71.2885 121.184ZM79.6311 113.096H80.7831V122H79.6311V113.096ZM85.2986 115.58C86.1786 115.58 86.8506 115.796 87.3146 116.228C87.7866 116.66 88.0226 117.304 88.0226 118.16V122H86.9306V121.16C86.7386 121.456 86.4626 121.684 86.1026 121.844C85.7506 121.996 85.3306 122.072 84.8426 122.072C84.1306 122.072 83.5586 121.9 83.1266 121.556C82.7026 121.212 82.4906 120.76 82.4906 120.2C82.4906 119.64 82.6946 119.192 83.1026 118.856C83.5106 118.512 84.1586 118.34 85.0466 118.34H86.8706V118.112C86.8706 117.616 86.7266 117.236 86.4386 116.972C86.1506 116.708 85.7266 116.576 85.1666 116.576C84.7906 116.576 84.4226 116.64 84.0626 116.768C83.7026 116.888 83.3986 117.052 83.1506 117.26L82.6706 116.396C82.9986 116.132 83.3906 115.932 83.8466 115.796C84.3026 115.652 84.7866 115.58 85.2986 115.58ZM85.0346 121.184C85.4746 121.184 85.8546 121.088 86.1746 120.896C86.4946 120.696 86.7266 120.416 86.8706 120.056V119.168H85.0946C84.1186 119.168 83.6306 119.496 83.6306 120.152C83.6306 120.472 83.7546 120.724 84.0026 120.908C84.2506 121.092 84.5946 121.184 85.0346 121.184ZM91.9785 122.072C91.4585 122.072 90.9585 122.004 90.4785 121.868C89.9985 121.724 89.6225 121.544 89.3505 121.328L89.8305 120.416C90.1105 120.616 90.4505 120.776 90.8505 120.896C91.2505 121.016 91.6545 121.076 92.0625 121.076C93.0705 121.076 93.5745 120.788 93.5745 120.212C93.5745 120.02 93.5065 119.868 93.3705 119.756C93.2345 119.644 93.0625 119.564 92.8545 119.516C92.6545 119.46 92.3665 119.4 91.9905 119.336C91.4785 119.256 91.0585 119.164 90.7305 119.06C90.4105 118.956 90.1345 118.78 89.9025 118.532C89.6705 118.284 89.5545 117.936 89.5545 117.488C89.5545 116.912 89.7945 116.452 90.2745 116.108C90.7545 115.756 91.3985 115.58 92.2065 115.58C92.6305 115.58 93.0545 115.632 93.4785 115.736C93.9025 115.84 94.2505 115.98 94.5225 116.156L94.0305 117.068C93.5105 116.732 92.8985 116.564 92.1945 116.564C91.7065 116.564 91.3345 116.644 91.0785 116.804C90.8225 116.964 90.6945 117.176 90.6945 117.44C90.6945 117.648 90.7665 117.812 90.9105 117.932C91.0545 118.052 91.2305 118.14 91.4385 118.196C91.6545 118.252 91.9545 118.316 92.3385 118.388C92.8505 118.476 93.2625 118.572 93.5745 118.676C93.8945 118.772 94.1665 118.94 94.3905 119.18C94.6145 119.42 94.7265 119.756 94.7265 120.188C94.7265 120.764 94.4785 121.224 93.9825 121.568C93.4945 121.904 92.8265 122.072 91.9785 122.072ZM102.761 115.58C103.377 115.58 103.929 115.716 104.417 115.988C104.905 116.26 105.285 116.64 105.557 117.128C105.837 117.616 105.977 118.18 105.977 118.82C105.977 119.46 105.837 120.028 105.557 120.524C105.285 121.012 104.905 121.392 104.417 121.664C103.929 121.936 103.377 122.072 102.761 122.072C102.305 122.072 101.885 121.984 101.501 121.808C101.125 121.632 100.805 121.376 100.541 121.04V124.328H99.3889V115.64H100.493V116.648C100.749 116.296 101.073 116.032 101.465 115.856C101.857 115.672 102.289 115.58 102.761 115.58ZM102.665 121.064C103.073 121.064 103.437 120.972 103.757 120.788C104.085 120.596 104.341 120.332 104.525 119.996C104.717 119.652 104.813 119.26 104.813 118.82C104.813 118.38 104.717 117.992 104.525 117.656C104.341 117.312 104.085 117.048 103.757 116.864C103.437 116.68 103.073 116.588 102.665 116.588C102.265 116.588 101.901 116.684 101.573 116.876C101.253 117.06 100.997 117.32 100.805 117.656C100.621 117.992 100.529 118.38 100.529 118.82C100.529 119.26 100.621 119.652 100.805 119.996C100.989 120.332 101.245 120.596 101.573 120.788C101.901 120.972 102.265 121.064 102.665 121.064ZM113.497 115.64V122H112.405V121.04C112.173 121.368 111.865 121.624 111.481 121.808C111.105 121.984 110.693 122.072 110.245 122.072C109.397 122.072 108.729 121.84 108.241 121.376C107.753 120.904 107.509 120.212 107.509 119.3V115.64H108.661V119.168C108.661 119.784 108.809 120.252 109.105 120.572C109.401 120.884 109.825 121.04 110.377 121.04C110.985 121.04 111.465 120.856 111.817 120.488C112.169 120.12 112.345 119.6 112.345 118.928V115.64H113.497ZM119.086 115.58C119.894 115.58 120.534 115.816 121.006 116.288C121.486 116.752 121.726 117.436 121.726 118.34V122H120.574V118.472C120.574 117.856 120.426 117.392 120.13 117.08C119.834 116.768 119.41 116.612 118.858 116.612C118.234 116.612 117.742 116.796 117.382 117.164C117.022 117.524 116.842 118.044 116.842 118.724V122H115.69V115.64H116.794V116.6C117.026 116.272 117.338 116.02 117.73 115.844C118.13 115.668 118.582 115.58 119.086 115.58ZM127.434 121.628C127.266 121.772 127.058 121.884 126.81 121.964C126.562 122.036 126.306 122.072 126.042 122.072C125.402 122.072 124.906 121.9 124.554 121.556C124.202 121.212 124.026 120.72 124.026 120.08V116.588H122.946V115.64H124.026V114.248H125.178V115.64H127.002V116.588H125.178V120.032C125.178 120.376 125.262 120.64 125.43 120.824C125.606 121.008 125.854 121.1 126.174 121.1C126.526 121.1 126.826 121 127.074 120.8L127.434 121.628ZM131.142 115.58C132.022 115.58 132.694 115.796 133.158 116.228C133.63 116.66 133.866 117.304 133.866 118.16V122H132.774V121.16C132.582 121.456 132.306 121.684 131.946 121.844C131.594 121.996 131.174 122.072 130.686 122.072C129.974 122.072 129.402 121.9 128.97 121.556C128.546 121.212 128.334 120.76 128.334 120.2C128.334 119.64 128.538 119.192 128.946 118.856C129.354 118.512 130.002 118.34 130.89 118.34H132.714V118.112C132.714 117.616 132.57 117.236 132.282 116.972C131.994 116.708 131.57 116.576 131.01 116.576C130.634 116.576 130.266 116.64 129.906 116.768C129.546 116.888 129.242 117.052 128.994 117.26L128.514 116.396C128.842 116.132 129.234 115.932 129.69 115.796C130.146 115.652 130.63 115.58 131.142 115.58ZM130.878 121.184C131.318 121.184 131.698 121.088 132.018 120.896C132.338 120.696 132.57 120.416 132.714 120.056V119.168H130.938C129.962 119.168 129.474 119.496 129.474 120.152C129.474 120.472 129.598 120.724 129.846 120.908C130.094 121.092 130.438 121.184 130.878 121.184ZM137.822 122.072C137.302 122.072 136.802 122.004 136.322 121.868C135.842 121.724 135.466 121.544 135.194 121.328L135.674 120.416C135.954 120.616 136.294 120.776 136.694 120.896C137.094 121.016 137.498 121.076 137.906 121.076C138.914 121.076 139.418 120.788 139.418 120.212C139.418 120.02 139.35 119.868 139.214 119.756C139.078 119.644 138.906 119.564 138.698 119.516C138.498 119.46 138.21 119.4 137.834 119.336C137.322 119.256 136.902 119.164 136.574 119.06C136.254 118.956 135.978 118.78 135.746 118.532C135.514 118.284 135.398 117.936 135.398 117.488C135.398 116.912 135.638 116.452 136.118 116.108C136.598 115.756 137.242 115.58 138.05 115.58C138.474 115.58 138.898 115.632 139.322 115.736C139.746 115.84 140.094 115.98 140.366 116.156L139.874 117.068C139.354 116.732 138.742 116.564 138.038 116.564C137.55 116.564 137.178 116.644 136.922 116.804C136.666 116.964 136.538 117.176 136.538 117.44C136.538 117.648 136.61 117.812 136.754 117.932C136.898 118.052 137.074 118.14 137.282 118.196C137.498 118.252 137.798 118.316 138.182 118.388C138.694 118.476 139.106 118.572 139.418 118.676C139.738 118.772 140.01 118.94 140.234 119.18C140.458 119.42 140.57 119.756 140.57 120.188C140.57 120.764 140.322 121.224 139.826 121.568C139.338 121.904 138.67 122.072 137.822 122.072ZM29.5158 130.64H30.6678V137H29.5158V130.64ZM30.0918 129.416C29.8678 129.416 29.6798 129.344 29.5278 129.2C29.3838 129.056 29.3118 128.88 29.3118 128.672C29.3118 128.464 29.3838 128.288 29.5278 128.144C29.6798 127.992 29.8678 127.916 30.0918 127.916C30.3158 127.916 30.4998 127.988 30.6438 128.132C30.7958 128.268 30.8718 128.44 30.8718 128.648C30.8718 128.864 30.7958 129.048 30.6438 129.2C30.4998 129.344 30.3158 129.416 30.0918 129.416ZM36.2634 130.58C37.0714 130.58 37.7114 130.816 38.1834 131.288C38.6634 131.752 38.9034 132.436 38.9034 133.34V137H37.7514V133.472C37.7514 132.856 37.6034 132.392 37.3074 132.08C37.0114 131.768 36.5874 131.612 36.0354 131.612C35.4114 131.612 34.9194 131.796 34.5594 132.164C34.1994 132.524 34.0194 133.044 34.0194 133.724V137H32.8674V130.64H33.9714V131.6C34.2034 131.272 34.5154 131.02 34.9074 130.844C35.3074 130.668 35.7594 130.58 36.2634 130.58ZM43.3634 128.972C42.6754 128.972 42.3314 129.344 42.3314 130.088V130.64H44.1794V131.588H42.3554V137H41.2034V131.588H40.1234V130.64H41.2034V130.076C41.2034 129.444 41.3874 128.944 41.7554 128.576C42.1234 128.208 42.6394 128.024 43.3034 128.024C43.5594 128.024 43.7994 128.056 44.0234 128.12C44.2474 128.184 44.4394 128.276 44.5994 128.396L44.2514 129.272C43.9874 129.072 43.6914 128.972 43.3634 128.972ZM50.9201 133.856C50.9201 133.944 50.9121 134.06 50.8961 134.204H45.7361C45.8081 134.764 46.0521 135.216 46.4681 135.56C46.8921 135.896 47.4161 136.064 48.0401 136.064C48.8001 136.064 49.4121 135.808 49.8761 135.296L50.5121 136.04C50.2241 136.376 49.8641 136.632 49.4321 136.808C49.0081 136.984 48.5321 137.072 48.0041 137.072C47.3321 137.072 46.7361 136.936 46.2161 136.664C45.6961 136.384 45.2921 135.996 45.0041 135.5C44.7241 135.004 44.5841 134.444 44.5841 133.82C44.5841 133.204 44.7201 132.648 44.9921 132.152C45.2721 131.656 45.6521 131.272 46.1321 131C46.6201 130.72 47.1681 130.58 47.7761 130.58C48.3841 130.58 48.9241 130.72 49.3961 131C49.8761 131.272 50.2481 131.656 50.5121 132.152C50.7841 132.648 50.9201 133.216 50.9201 133.856ZM47.7761 131.552C47.2241 131.552 46.7601 131.72 46.3841 132.056C46.0161 132.392 45.8001 132.832 45.7361 133.376H49.8161C49.7521 132.84 49.5321 132.404 49.1561 132.068C48.7881 131.724 48.3281 131.552 47.7761 131.552ZM53.6237 131.708C53.8237 131.34 54.1197 131.06 54.5117 130.868C54.9037 130.676 55.3797 130.58 55.9397 130.58V131.696C55.8757 131.688 55.7877 131.684 55.6757 131.684C55.0517 131.684 54.5597 131.872 54.1997 132.248C53.8477 132.616 53.6717 133.144 53.6717 133.832V137H52.5197V130.64H53.6237V131.708ZM57.3596 130.64H58.5116V137H57.3596V130.64ZM57.9356 129.416C57.7116 129.416 57.5236 129.344 57.3716 129.2C57.2276 129.056 57.1556 128.88 57.1556 128.672C57.1556 128.464 57.2276 128.288 57.3716 128.144C57.5236 127.992 57.7116 127.916 57.9356 127.916C58.1596 127.916 58.3436 127.988 58.4876 128.132C58.6396 128.268 58.7156 128.44 58.7156 128.648C58.7156 128.864 58.6396 129.048 58.4876 129.2C58.3436 129.344 58.1596 129.416 57.9356 129.416ZM63.4351 137.072C62.8031 137.072 62.2351 136.932 61.7311 136.652C61.2271 136.372 60.8311 135.988 60.5431 135.5C60.2631 135.004 60.1231 134.444 60.1231 133.82C60.1231 133.196 60.2631 132.64 60.5431 132.152C60.8311 131.656 61.2271 131.272 61.7311 131C62.2351 130.72 62.8031 130.58 63.4351 130.58C64.0671 130.58 64.6311 130.72 65.1271 131C65.6311 131.272 66.0231 131.656 66.3031 132.152C66.5911 132.64 66.7351 133.196 66.7351 133.82C66.7351 134.444 66.5911 135.004 66.3031 135.5C66.0231 135.988 65.6311 136.372 65.1271 136.652C64.6311 136.932 64.0671 137.072 63.4351 137.072ZM63.4351 136.064C63.8431 136.064 64.2071 135.972 64.5271 135.788C64.8551 135.596 65.1111 135.332 65.2951 134.996C65.4791 134.652 65.5711 134.26 65.5711 133.82C65.5711 133.38 65.4791 132.992 65.2951 132.656C65.1111 132.312 64.8551 132.048 64.5271 131.864C64.2071 131.68 63.8431 131.588 63.4351 131.588C63.0271 131.588 62.6591 131.68 62.3311 131.864C62.0111 132.048 61.7551 132.312 61.5631 132.656C61.3791 132.992 61.2871 133.38 61.2871 133.82C61.2871 134.26 61.3791 134.652 61.5631 134.996C61.7551 135.332 62.0111 135.596 62.3311 135.788C62.6591 135.972 63.0271 136.064 63.4351 136.064ZM69.4323 131.708C69.6323 131.34 69.9283 131.06 70.3203 130.868C70.7123 130.676 71.1883 130.58 71.7483 130.58V131.696C71.6843 131.688 71.5963 131.684 71.4843 131.684C70.8603 131.684 70.3683 131.872 70.0083 132.248C69.6563 132.616 69.4803 133.144 69.4803 133.832V137H68.3283V130.64H69.4323V131.708ZM78.8576 133.856C78.8576 133.944 78.8496 134.06 78.8336 134.204H73.6736C73.7456 134.764 73.9896 135.216 74.4056 135.56C74.8296 135.896 75.3536 136.064 75.9776 136.064C76.7376 136.064 77.3496 135.808 77.8136 135.296L78.4496 136.04C78.1616 136.376 77.8016 136.632 77.3696 136.808C76.9456 136.984 76.4696 137.072 75.9416 137.072C75.2696 137.072 74.6736 136.936 74.1536 136.664C73.6336 136.384 73.2296 135.996 72.9416 135.5C72.6616 135.004 72.5216 134.444 72.5216 133.82C72.5216 133.204 72.6576 132.648 72.9296 132.152C73.2096 131.656 73.5896 131.272 74.0696 131C74.5576 130.72 75.1056 130.58 75.7136 130.58C76.3216 130.58 76.8616 130.72 77.3336 131C77.8136 131.272 78.1856 131.656 78.4496 132.152C78.7216 132.648 78.8576 133.216 78.8576 133.856ZM75.7136 131.552C75.1616 131.552 74.6976 131.72 74.3216 132.056C73.9536 132.392 73.7376 132.832 73.6736 133.376H77.7536C77.6896 132.84 77.4696 132.404 77.0936 132.068C76.7256 131.724 76.2656 131.552 75.7136 131.552ZM82.2812 137.072C81.7612 137.072 81.2612 137.004 80.7812 136.868C80.3012 136.724 79.9252 136.544 79.6532 136.328L80.1332 135.416C80.4132 135.616 80.7532 135.776 81.1532 135.896C81.5532 136.016 81.9572 136.076 82.3652 136.076C83.3732 136.076 83.8772 135.788 83.8772 135.212C83.8772 135.02 83.8092 134.868 83.6732 134.756C83.5372 134.644 83.3652 134.564 83.1572 134.516C82.9572 134.46 82.6692 134.4 82.2932 134.336C81.7812 134.256 81.3612 134.164 81.0332 134.06C80.7132 133.956 80.4372 133.78 80.2052 133.532C79.9732 133.284 79.8572 132.936 79.8572 132.488C79.8572 131.912 80.0972 131.452 80.5772 131.108C81.0572 130.756 81.7012 130.58 82.5092 130.58C82.9332 130.58 83.3572 130.632 83.7812 130.736C84.2052 130.84 84.5532 130.98 84.8252 131.156L84.3332 132.068C83.8132 131.732 83.2012 131.564 82.4972 131.564C82.0092 131.564 81.6372 131.644 81.3812 131.804C81.1252 131.964 80.9972 132.176 80.9972 132.44C80.9972 132.648 81.0692 132.812 81.2132 132.932C81.3572 133.052 81.5332 133.14 81.7412 133.196C81.9572 133.252 82.2572 133.316 82.6412 133.388C83.1532 133.476 83.5652 133.572 83.8772 133.676C84.1972 133.772 84.4692 133.94 84.6932 134.18C84.9172 134.42 85.0292 134.756 85.0292 135.188C85.0292 135.764 84.7812 136.224 84.2852 136.568C83.7972 136.904 83.1292 137.072 82.2812 137.072ZM95.6916 128.096V137H94.5876V135.992C94.3316 136.344 94.0076 136.612 93.6156 136.796C93.2236 136.98 92.7916 137.072 92.3196 137.072C91.7036 137.072 91.1516 136.936 90.6636 136.664C90.1756 136.392 89.7916 136.012 89.5116 135.524C89.2396 135.028 89.1036 134.46 89.1036 133.82C89.1036 133.18 89.2396 132.616 89.5116 132.128C89.7916 131.64 90.1756 131.26 90.6636 130.988C91.1516 130.716 91.7036 130.58 92.3196 130.58C92.7756 130.58 93.1956 130.668 93.5796 130.844C93.9636 131.012 94.2836 131.264 94.5396 131.6V128.096H95.6916ZM92.4156 136.064C92.8156 136.064 93.1796 135.972 93.5076 135.788C93.8356 135.596 94.0916 135.332 94.2756 134.996C94.4596 134.652 94.5516 134.26 94.5516 133.82C94.5516 133.38 94.4596 132.992 94.2756 132.656C94.0916 132.312 93.8356 132.048 93.5076 131.864C93.1796 131.68 92.8156 131.588 92.4156 131.588C92.0076 131.588 91.6396 131.68 91.3116 131.864C90.9916 132.048 90.7356 132.312 90.5436 132.656C90.3596 132.992 90.2676 133.38 90.2676 133.82C90.2676 134.26 90.3596 134.652 90.5436 134.996C90.7356 135.332 90.9916 135.596 91.3116 135.788C91.6396 135.972 92.0076 136.064 92.4156 136.064ZM103.619 133.856C103.619 133.944 103.611 134.06 103.595 134.204H98.4353C98.5073 134.764 98.7513 135.216 99.1673 135.56C99.5913 135.896 100.115 136.064 100.739 136.064C101.499 136.064 102.111 135.808 102.575 135.296L103.211 136.04C102.923 136.376 102.563 136.632 102.131 136.808C101.707 136.984 101.231 137.072 100.703 137.072C100.031 137.072 99.4353 136.936 98.9153 136.664C98.3953 136.384 97.9913 135.996 97.7033 135.5C97.4233 135.004 97.2833 134.444 97.2833 133.82C97.2833 133.204 97.4193 132.648 97.6913 132.152C97.9713 131.656 98.3513 131.272 98.8313 131C99.3193 130.72 99.8673 130.58 100.475 130.58C101.083 130.58 101.623 130.72 102.095 131C102.575 131.272 102.947 131.656 103.211 132.152C103.483 132.648 103.619 133.216 103.619 133.856ZM100.475 131.552C99.9233 131.552 99.4593 131.72 99.0833 132.056C98.7153 132.392 98.4993 132.832 98.4353 133.376H102.515C102.451 132.84 102.231 132.404 101.855 132.068C101.487 131.724 101.027 131.552 100.475 131.552ZM105.219 128.096H106.371V137H105.219V128.096ZM112.897 131.708C113.097 131.34 113.393 131.06 113.785 130.868C114.177 130.676 114.653 130.58 115.213 130.58V131.696C115.149 131.688 115.061 131.684 114.949 131.684C114.325 131.684 113.833 131.872 113.473 132.248C113.121 132.616 112.945 133.144 112.945 133.832V137H111.793V130.64H112.897V131.708ZM119.298 137.072C118.666 137.072 118.098 136.932 117.594 136.652C117.09 136.372 116.694 135.988 116.406 135.5C116.126 135.004 115.986 134.444 115.986 133.82C115.986 133.196 116.126 132.64 116.406 132.152C116.694 131.656 117.09 131.272 117.594 131C118.098 130.72 118.666 130.58 119.298 130.58C119.93 130.58 120.494 130.72 120.99 131C121.494 131.272 121.886 131.656 122.166 132.152C122.454 132.64 122.598 133.196 122.598 133.82C122.598 134.444 122.454 135.004 122.166 135.5C121.886 135.988 121.494 136.372 120.99 136.652C120.494 136.932 119.93 137.072 119.298 137.072ZM119.298 136.064C119.706 136.064 120.07 135.972 120.39 135.788C120.718 135.596 120.974 135.332 121.158 134.996C121.342 134.652 121.434 134.26 121.434 133.82C121.434 133.38 121.342 132.992 121.158 132.656C120.974 132.312 120.718 132.048 120.39 131.864C120.07 131.68 119.706 131.588 119.298 131.588C118.89 131.588 118.522 131.68 118.194 131.864C117.874 132.048 117.618 132.312 117.426 132.656C117.242 132.992 117.15 133.38 117.15 133.82C117.15 134.26 117.242 134.652 117.426 134.996C117.618 135.332 117.874 135.596 118.194 135.788C118.522 135.972 118.89 136.064 119.298 136.064ZM132.148 130.58C132.948 130.58 133.58 130.812 134.044 131.276C134.516 131.74 134.752 132.428 134.752 133.34V137H133.6V133.472C133.6 132.856 133.456 132.392 133.168 132.08C132.888 131.768 132.484 131.612 131.956 131.612C131.372 131.612 130.908 131.796 130.564 132.164C130.22 132.524 130.048 133.044 130.048 133.724V137H128.896V133.472C128.896 132.856 128.752 132.392 128.464 132.08C128.184 131.768 127.78 131.612 127.252 131.612C126.668 131.612 126.204 131.796 125.86 132.164C125.516 132.524 125.344 133.044 125.344 133.724V137H124.192V130.64H125.296V131.588C125.528 131.26 125.832 131.012 126.208 130.844C126.584 130.668 127.012 130.58 127.492 130.58C127.988 130.58 128.428 130.68 128.812 130.88C129.196 131.08 129.492 131.372 129.7 131.756C129.94 131.388 130.272 131.1 130.696 130.892C131.128 130.684 131.612 130.58 132.148 130.58ZM140.243 130.58C140.859 130.58 141.411 130.716 141.899 130.988C142.387 131.26 142.767 131.64 143.039 132.128C143.319 132.616 143.459 133.18 143.459 133.82C143.459 134.46 143.319 135.028 143.039 135.524C142.767 136.012 142.387 136.392 141.899 136.664C141.411 136.936 140.859 137.072 140.243 137.072C139.771 137.072 139.339 136.98 138.947 136.796C138.555 136.612 138.231 136.344 137.975 135.992V137H136.871V128.096H138.023V131.6C138.279 131.264 138.599 131.012 138.983 130.844C139.367 130.668 139.787 130.58 140.243 130.58ZM140.147 136.064C140.555 136.064 140.919 135.972 141.239 135.788C141.567 135.596 141.823 135.332 142.007 134.996C142.199 134.652 142.295 134.26 142.295 133.82C142.295 133.38 142.199 132.992 142.007 132.656C141.823 132.312 141.567 132.048 141.239 131.864C140.919 131.68 140.555 131.588 140.147 131.588C139.747 131.588 139.383 131.68 139.055 131.864C138.727 132.048 138.471 132.312 138.287 132.656C138.103 132.992 138.011 133.38 138.011 133.82C138.011 134.26 138.103 134.652 138.287 134.996C138.471 135.332 138.727 135.596 139.055 135.788C139.383 135.972 139.747 136.064 140.147 136.064ZM147.775 137.072C147.143 137.072 146.575 136.932 146.071 136.652C145.567 136.372 145.171 135.988 144.883 135.5C144.603 135.004 144.463 134.444 144.463 133.82C144.463 133.196 144.603 132.64 144.883 132.152C145.171 131.656 145.567 131.272 146.071 131C146.575 130.72 147.143 130.58 147.775 130.58C148.407 130.58 148.971 130.72 149.467 131C149.971 131.272 150.363 131.656 150.643 132.152C150.931 132.64 151.075 133.196 151.075 133.82C151.075 134.444 150.931 135.004 150.643 135.5C150.363 135.988 149.971 136.372 149.467 136.652C148.971 136.932 148.407 137.072 147.775 137.072ZM147.775 136.064C148.183 136.064 148.547 135.972 148.867 135.788C149.195 135.596 149.451 135.332 149.635 134.996C149.819 134.652 149.911 134.26 149.911 133.82C149.911 133.38 149.819 132.992 149.635 132.656C149.451 132.312 149.195 132.048 148.867 131.864C148.547 131.68 148.183 131.588 147.775 131.588C147.367 131.588 146.999 131.68 146.671 131.864C146.351 132.048 146.095 132.312 145.903 132.656C145.719 132.992 145.627 133.38 145.627 133.82C145.627 134.26 145.719 134.652 145.903 134.996C146.095 135.332 146.351 135.596 146.671 135.788C146.999 135.972 147.367 136.064 147.775 136.064ZM25.5583 145.58C26.3663 145.58 27.0063 145.816 27.4783 146.288C27.9583 146.752 28.1983 147.436 28.1983 148.34V152H27.0463V148.472C27.0463 147.856 26.8983 147.392 26.6023 147.08C26.3063 146.768 25.8823 146.612 25.3303 146.612C24.7063 146.612 24.2143 146.796 23.8543 147.164C23.4943 147.524 23.3143 148.044 23.3143 148.724V152H22.1623V143.096H23.3143V146.54C23.5543 146.236 23.8663 146 24.2503 145.832C24.6423 145.664 25.0783 145.58 25.5583 145.58ZM32.6463 145.58C33.5263 145.58 34.1983 145.796 34.6623 146.228C35.1343 146.66 35.3703 147.304 35.3703 148.16V152H34.2783V151.16C34.0863 151.456 33.8103 151.684 33.4503 151.844C33.0983 151.996 32.6783 152.072 32.1903 152.072C31.4783 152.072 30.9063 151.9 30.4743 151.556C30.0503 151.212 29.8383 150.76 29.8383 150.2C29.8383 149.64 30.0423 149.192 30.4503 148.856C30.8583 148.512 31.5063 148.34 32.3943 148.34H34.2183V148.112C34.2183 147.616 34.0743 147.236 33.7863 146.972C33.4983 146.708 33.0743 146.576 32.5143 146.576C32.1383 146.576 31.7703 146.64 31.4103 146.768C31.0503 146.888 30.7463 147.052 30.4983 147.26L30.0183 146.396C30.3463 146.132 30.7383 145.932 31.1943 145.796C31.6503 145.652 32.1343 145.58 32.6463 145.58ZM32.3823 151.184C32.8223 151.184 33.2023 151.088 33.5223 150.896C33.8423 150.696 34.0743 150.416 34.2183 150.056V149.168H32.4423C31.4663 149.168 30.9783 149.496 30.9783 150.152C30.9783 150.472 31.1023 150.724 31.3503 150.908C31.5983 151.092 31.9423 151.184 32.3823 151.184ZM40.3093 152.072C39.6613 152.072 39.0813 151.932 38.5693 151.652C38.0653 151.372 37.6693 150.988 37.3813 150.5C37.0933 150.004 36.9493 149.444 36.9493 148.82C36.9493 148.196 37.0933 147.64 37.3813 147.152C37.6693 146.656 38.0653 146.272 38.5693 146C39.0813 145.72 39.6613 145.58 40.3093 145.58C40.8853 145.58 41.3973 145.696 41.8453 145.928C42.3013 146.16 42.6533 146.496 42.9013 146.936L42.0253 147.5C41.8253 147.196 41.5773 146.968 41.2813 146.816C40.9853 146.664 40.6573 146.588 40.2973 146.588C39.8813 146.588 39.5053 146.68 39.1693 146.864C38.8413 147.048 38.5813 147.312 38.3893 147.656C38.2053 147.992 38.1133 148.38 38.1133 148.82C38.1133 149.268 38.2053 149.664 38.3893 150.008C38.5813 150.344 38.8413 150.604 39.1693 150.788C39.5053 150.972 39.8813 151.064 40.2973 151.064C40.6573 151.064 40.9853 150.988 41.2813 150.836C41.5773 150.684 41.8253 150.456 42.0253 150.152L42.9013 150.704C42.6533 151.144 42.3013 151.484 41.8453 151.724C41.3973 151.956 40.8853 152.072 40.3093 152.072ZM44.3928 145.64H45.5448V152H44.3928V145.64ZM44.9688 144.416C44.7448 144.416 44.5568 144.344 44.4048 144.2C44.2608 144.056 44.1888 143.88 44.1888 143.672C44.1888 143.464 44.2608 143.288 44.4048 143.144C44.5568 142.992 44.7448 142.916 44.9688 142.916C45.1928 142.916 45.3768 142.988 45.5208 143.132C45.6728 143.268 45.7488 143.44 45.7488 143.648C45.7488 143.864 45.6728 144.048 45.5208 144.2C45.3768 144.344 45.1928 144.416 44.9688 144.416ZM50.0603 145.58C50.9403 145.58 51.6123 145.796 52.0763 146.228C52.5483 146.66 52.7843 147.304 52.7843 148.16V152H51.6923V151.16C51.5003 151.456 51.2243 151.684 50.8643 151.844C50.5123 151.996 50.0923 152.072 49.6043 152.072C48.8923 152.072 48.3203 151.9 47.8883 151.556C47.4643 151.212 47.2523 150.76 47.2523 150.2C47.2523 149.64 47.4563 149.192 47.8643 148.856C48.2723 148.512 48.9203 148.34 49.8083 148.34H51.6323V148.112C51.6323 147.616 51.4883 147.236 51.2003 146.972C50.9123 146.708 50.4883 146.576 49.9283 146.576C49.5523 146.576 49.1843 146.64 48.8243 146.768C48.4643 146.888 48.1603 147.052 47.9123 147.26L47.4323 146.396C47.7603 146.132 48.1523 145.932 48.6083 145.796C49.0643 145.652 49.5483 145.58 50.0603 145.58ZM49.7963 151.184C50.2363 151.184 50.6163 151.088 50.9363 150.896C51.2563 150.696 51.4883 150.416 51.6323 150.056V149.168H49.8563C48.8803 149.168 48.3923 149.496 48.3923 150.152C48.3923 150.472 48.5163 150.724 48.7643 150.908C49.0123 151.092 49.3563 151.184 49.7963 151.184ZM60.4549 145.58C61.3349 145.58 62.0069 145.796 62.4709 146.228C62.9429 146.66 63.1789 147.304 63.1789 148.16V152H62.0869V151.16C61.8949 151.456 61.6189 151.684 61.2589 151.844C60.9069 151.996 60.4869 152.072 59.9989 152.072C59.2869 152.072 58.7149 151.9 58.2829 151.556C57.8589 151.212 57.6469 150.76 57.6469 150.2C57.6469 149.64 57.8509 149.192 58.2589 148.856C58.6669 148.512 59.3149 148.34 60.2029 148.34H62.0269V148.112C62.0269 147.616 61.8829 147.236 61.5949 146.972C61.3069 146.708 60.8829 146.576 60.3229 146.576C59.9469 146.576 59.5789 146.64 59.2189 146.768C58.8589 146.888 58.5549 147.052 58.3069 147.26L57.8269 146.396C58.1549 146.132 58.5469 145.932 59.0029 145.796C59.4589 145.652 59.9429 145.58 60.4549 145.58ZM60.1909 151.184C60.6309 151.184 61.0109 151.088 61.3309 150.896C61.6509 150.696 61.8829 150.416 62.0269 150.056V149.168H60.2509C59.2749 149.168 58.7869 149.496 58.7869 150.152C58.7869 150.472 58.9109 150.724 59.1589 150.908C59.4069 151.092 59.7509 151.184 60.1909 151.184ZM66.4148 146.708C66.6148 146.34 66.9108 146.06 67.3027 145.868C67.6948 145.676 68.1708 145.58 68.7308 145.58V146.696C68.6668 146.688 68.5788 146.684 68.4668 146.684C67.8428 146.684 67.3508 146.872 66.9908 147.248C66.6388 147.616 66.4628 148.144 66.4628 148.832V152H65.3108V145.64H66.4148V146.708ZM71.2546 146.708C71.4546 146.34 71.7506 146.06 72.1426 145.868C72.5346 145.676 73.0106 145.58 73.5706 145.58V146.696C73.5066 146.688 73.4186 146.684 73.3066 146.684C72.6826 146.684 72.1906 146.872 71.8306 147.248C71.4786 147.616 71.3026 148.144 71.3026 148.832V152H70.1506V145.64H71.2546V146.708ZM74.9904 145.64H76.1424V152H74.9904V145.64ZM75.5664 144.416C75.3424 144.416 75.1544 144.344 75.0024 144.2C74.8584 144.056 74.7864 143.88 74.7864 143.672C74.7864 143.464 74.8584 143.288 75.0024 143.144C75.1544 142.992 75.3424 142.916 75.5664 142.916C75.7904 142.916 75.9744 142.988 76.1184 143.132C76.2704 143.268 76.3464 143.44 76.3464 143.648C76.3464 143.864 76.2704 144.048 76.1184 144.2C75.9744 144.344 75.7904 144.416 75.5664 144.416ZM81.714 145.58C82.33 145.58 82.882 145.716 83.37 145.988C83.858 146.26 84.238 146.64 84.51 147.128C84.79 147.616 84.93 148.18 84.93 148.82C84.93 149.46 84.79 150.028 84.51 150.524C84.238 151.012 83.858 151.392 83.37 151.664C82.882 151.936 82.33 152.072 81.714 152.072C81.242 152.072 80.81 151.98 80.418 151.796C80.026 151.612 79.702 151.344 79.446 150.992V152H78.342V143.096H79.494V146.6C79.75 146.264 80.07 146.012 80.454 145.844C80.838 145.668 81.258 145.58 81.714 145.58ZM81.618 151.064C82.026 151.064 82.39 150.972 82.71 150.788C83.038 150.596 83.294 150.332 83.478 149.996C83.67 149.652 83.766 149.26 83.766 148.82C83.766 148.38 83.67 147.992 83.478 147.656C83.294 147.312 83.038 147.048 82.71 146.864C82.39 146.68 82.026 146.588 81.618 146.588C81.218 146.588 80.854 146.68 80.526 146.864C80.198 147.048 79.942 147.312 79.758 147.656C79.574 147.992 79.482 148.38 79.482 148.82C79.482 149.26 79.574 149.652 79.758 149.996C79.942 150.332 80.198 150.596 80.526 150.788C80.854 150.972 81.218 151.064 81.618 151.064ZM88.7791 145.58C89.6591 145.58 90.3311 145.796 90.7951 146.228C91.2671 146.66 91.5031 147.304 91.5031 148.16V152H90.4111V151.16C90.2191 151.456 89.9431 151.684 89.5831 151.844C89.2311 151.996 88.8111 152.072 88.3231 152.072C87.6111 152.072 87.0391 151.9 86.6071 151.556C86.1831 151.212 85.9711 150.76 85.9711 150.2C85.9711 149.64 86.1751 149.192 86.5831 148.856C86.9911 148.512 87.6391 148.34 88.5271 148.34H90.3511V148.112C90.3511 147.616 90.2071 147.236 89.9191 146.972C89.6311 146.708 89.2071 146.576 88.6471 146.576C88.2711 146.576 87.9031 146.64 87.5431 146.768C87.1831 146.888 86.8791 147.052 86.6311 147.26L86.1511 146.396C86.4791 146.132 86.8711 145.932 87.3271 145.796C87.7831 145.652 88.2671 145.58 88.7791 145.58ZM88.5151 151.184C88.9551 151.184 89.3351 151.088 89.6551 150.896C89.9751 150.696 90.2071 150.416 90.3511 150.056V149.168H88.5751C87.5991 149.168 87.1111 149.496 87.1111 150.152C87.1111 150.472 87.2351 150.724 87.4831 150.908C87.7311 151.092 88.0751 151.184 88.5151 151.184ZM93.923 150.428C94.147 150.428 94.331 150.508 94.475 150.668C94.627 150.82 94.703 151.012 94.703 151.244C94.703 151.364 94.687 151.48 94.655 151.592C94.631 151.704 94.579 151.876 94.499 152.108L93.935 153.776H93.179L93.623 151.988C93.471 151.932 93.347 151.84 93.251 151.712C93.163 151.576 93.119 151.42 93.119 151.244C93.119 151.004 93.195 150.808 93.347 150.656C93.499 150.504 93.691 150.428 93.923 150.428ZM101.904 143.972C101.216 143.972 100.872 144.344 100.872 145.088V145.64H102.72V146.588H100.896V152H99.7444V146.588H98.6644V145.64H99.7444V145.076C99.7444 144.444 99.9284 143.944 100.296 143.576C100.664 143.208 101.18 143.024 101.844 143.024C102.1 143.024 102.34 143.056 102.564 143.12C102.788 143.184 102.98 143.276 103.14 143.396L102.792 144.272C102.528 144.072 102.232 143.972 101.904 143.972ZM106.437 152.072C105.805 152.072 105.237 151.932 104.733 151.652C104.229 151.372 103.833 150.988 103.545 150.5C103.265 150.004 103.125 149.444 103.125 148.82C103.125 148.196 103.265 147.64 103.545 147.152C103.833 146.656 104.229 146.272 104.733 146C105.237 145.72 105.805 145.58 106.437 145.58C107.069 145.58 107.633 145.72 108.129 146C108.633 146.272 109.025 146.656 109.305 147.152C109.593 147.64 109.737 148.196 109.737 148.82C109.737 149.444 109.593 150.004 109.305 150.5C109.025 150.988 108.633 151.372 108.129 151.652C107.633 151.932 107.069 152.072 106.437 152.072ZM106.437 151.064C106.845 151.064 107.209 150.972 107.529 150.788C107.857 150.596 108.113 150.332 108.297 149.996C108.481 149.652 108.573 149.26 108.573 148.82C108.573 148.38 108.481 147.992 108.297 147.656C108.113 147.312 107.857 147.048 107.529 146.864C107.209 146.68 106.845 146.588 106.437 146.588C106.029 146.588 105.661 146.68 105.333 146.864C105.013 147.048 104.757 147.312 104.565 147.656C104.381 147.992 104.289 148.38 104.289 148.82C104.289 149.26 104.381 149.652 104.565 149.996C104.757 150.332 105.013 150.596 105.333 150.788C105.661 150.972 106.029 151.064 106.437 151.064ZM112.434 146.708C112.634 146.34 112.93 146.06 113.322 145.868C113.714 145.676 114.19 145.58 114.75 145.58V146.696C114.686 146.688 114.598 146.684 114.486 146.684C113.862 146.684 113.37 146.872 113.01 147.248C112.658 147.616 112.482 148.144 112.482 148.832V152H111.33V145.64H112.434V146.708ZM124.126 145.58C124.926 145.58 125.558 145.812 126.022 146.276C126.494 146.74 126.73 147.428 126.73 148.34V152H125.578V148.472C125.578 147.856 125.434 147.392 125.146 147.08C124.866 146.768 124.462 146.612 123.934 146.612C123.35 146.612 122.886 146.796 122.542 147.164C122.198 147.524 122.026 148.044 122.026 148.724V152H120.874V148.472C120.874 147.856 120.73 147.392 120.442 147.08C120.162 146.768 119.758 146.612 119.23 146.612C118.646 146.612 118.182 146.796 117.838 147.164C117.494 147.524 117.322 148.044 117.322 148.724V152H116.17V145.64H117.274V146.588C117.506 146.26 117.81 146.012 118.186 145.844C118.562 145.668 118.99 145.58 119.47 145.58C119.966 145.58 120.406 145.68 120.79 145.88C121.174 146.08 121.47 146.372 121.678 146.756C121.918 146.388 122.25 146.1 122.674 145.892C123.106 145.684 123.59 145.58 124.126 145.58ZM131.166 145.58C132.046 145.58 132.718 145.796 133.182 146.228C133.654 146.66 133.89 147.304 133.89 148.16V152H132.798V151.16C132.606 151.456 132.33 151.684 131.97 151.844C131.618 151.996 131.198 152.072 130.71 152.072C129.998 152.072 129.426 151.9 128.994 151.556C128.57 151.212 128.358 150.76 128.358 150.2C128.358 149.64 128.562 149.192 128.97 148.856C129.378 148.512 130.026 148.34 130.914 148.34H132.738V148.112C132.738 147.616 132.594 147.236 132.306 146.972C132.018 146.708 131.594 146.576 131.034 146.576C130.658 146.576 130.29 146.64 129.93 146.768C129.57 146.888 129.266 147.052 129.018 147.26L128.538 146.396C128.866 146.132 129.258 145.932 129.714 145.796C130.17 145.652 130.654 145.58 131.166 145.58ZM130.902 151.184C131.342 151.184 131.722 151.088 132.042 150.896C132.362 150.696 132.594 150.416 132.738 150.056V149.168H130.962C129.986 149.168 129.498 149.496 129.498 150.152C129.498 150.472 129.622 150.724 129.87 150.908C130.118 151.092 130.462 151.184 130.902 151.184ZM139.418 145.58C140.226 145.58 140.866 145.816 141.338 146.288C141.818 146.752 142.058 147.436 142.058 148.34V152H140.906V148.472C140.906 147.856 140.758 147.392 140.462 147.08C140.166 146.768 139.742 146.612 139.19 146.612C138.566 146.612 138.074 146.796 137.714 147.164C137.354 147.524 137.174 148.044 137.174 148.724V152H136.022V145.64H137.126V146.6C137.358 146.272 137.67 146.02 138.062 145.844C138.462 145.668 138.914 145.58 139.418 145.58ZM150.225 143.096V152H149.121V150.992C148.865 151.344 148.541 151.612 148.149 151.796C147.757 151.98 147.325 152.072 146.853 152.072C146.237 152.072 145.685 151.936 145.197 151.664C144.709 151.392 144.325 151.012 144.045 150.524C143.773 150.028 143.637 149.46 143.637 148.82C143.637 148.18 143.773 147.616 144.045 147.128C144.325 146.64 144.709 146.26 145.197 145.988C145.685 145.716 146.237 145.58 146.853 145.58C147.309 145.58 147.729 145.668 148.113 145.844C148.497 146.012 148.817 146.264 149.073 146.6V143.096H150.225ZM146.949 151.064C147.349 151.064 147.713 150.972 148.041 150.788C148.369 150.596 148.625 150.332 148.809 149.996C148.993 149.652 149.085 149.26 149.085 148.82C149.085 148.38 148.993 147.992 148.809 147.656C148.625 147.312 148.369 147.048 148.041 146.864C147.713 146.68 147.349 146.588 146.949 146.588C146.541 146.588 146.173 146.68 145.845 146.864C145.525 147.048 145.269 147.312 145.077 147.656C144.893 147.992 144.801 148.38 144.801 148.82C144.801 149.26 144.893 149.652 145.077 149.996C145.269 150.332 145.525 150.596 145.845 150.788C146.173 150.972 146.541 151.064 146.949 151.064ZM155.129 152.072C154.497 152.072 153.929 151.932 153.425 151.652C152.921 151.372 152.525 150.988 152.237 150.5C151.957 150.004 151.817 149.444 151.817 148.82C151.817 148.196 151.957 147.64 152.237 147.152C152.525 146.656 152.921 146.272 153.425 146C153.929 145.72 154.497 145.58 155.129 145.58C155.761 145.58 156.325 145.72 156.821 146C157.325 146.272 157.717 146.656 157.997 147.152C158.285 147.64 158.429 148.196 158.429 148.82C158.429 149.444 158.285 150.004 157.997 150.5C157.717 150.988 157.325 151.372 156.821 151.652C156.325 151.932 155.761 152.072 155.129 152.072ZM155.129 151.064C155.537 151.064 155.901 150.972 156.221 150.788C156.549 150.596 156.805 150.332 156.989 149.996C157.173 149.652 157.265 149.26 157.265 148.82C157.265 148.38 157.173 147.992 156.989 147.656C156.805 147.312 156.549 147.048 156.221 146.864C155.901 146.68 155.537 146.588 155.129 146.588C154.721 146.588 154.353 146.68 154.025 146.864C153.705 147.048 153.449 147.312 153.257 147.656C153.073 147.992 152.981 148.38 152.981 148.82C152.981 149.26 153.073 149.652 153.257 149.996C153.449 150.332 153.705 150.596 154.025 150.788C154.353 150.972 154.721 151.064 155.129 151.064ZM61.6838 158.096H62.8358V167H61.6838V158.096ZM67.3514 160.58C68.2314 160.58 68.9034 160.796 69.3674 161.228C69.8394 161.66 70.0754 162.304 70.0754 163.16V167H68.9834V166.16C68.7914 166.456 68.5154 166.684 68.1554 166.844C67.8034 166.996 67.3834 167.072 66.8954 167.072C66.1834 167.072 65.6114 166.9 65.1794 166.556C64.7554 166.212 64.5434 165.76 64.5434 165.2C64.5434 164.64 64.7474 164.192 65.1554 163.856C65.5634 163.512 66.2114 163.34 67.0994 163.34H68.9234V163.112C68.9234 162.616 68.7794 162.236 68.4914 161.972C68.2034 161.708 67.7794 161.576 67.2194 161.576C66.8434 161.576 66.4754 161.64 66.1154 161.768C65.7554 161.888 65.4514 162.052 65.2034 162.26L64.7234 161.396C65.0514 161.132 65.4434 160.932 65.8994 160.796C66.3554 160.652 66.8394 160.58 67.3514 160.58ZM67.0874 166.184C67.5274 166.184 67.9074 166.088 68.2274 165.896C68.5474 165.696 68.7794 165.416 68.9234 165.056V164.168H67.1474C66.1714 164.168 65.6834 164.496 65.6834 165.152C65.6834 165.472 65.8074 165.724 66.0554 165.908C66.3034 166.092 66.6474 166.184 67.0874 166.184ZM74.0312 167.072C73.5112 167.072 73.0112 167.004 72.5312 166.868C72.0512 166.724 71.6752 166.544 71.4032 166.328L71.8832 165.416C72.1632 165.616 72.5032 165.776 72.9032 165.896C73.3032 166.016 73.7072 166.076 74.1152 166.076C75.1232 166.076 75.6272 165.788 75.6272 165.212C75.6272 165.02 75.5592 164.868 75.4232 164.756C75.2872 164.644 75.1152 164.564 74.9072 164.516C74.7072 164.46 74.4192 164.4 74.0432 164.336C73.5312 164.256 73.1112 164.164 72.7832 164.06C72.4632 163.956 72.1872 163.78 71.9552 163.532C71.7232 163.284 71.6072 162.936 71.6072 162.488C71.6072 161.912 71.8472 161.452 72.3272 161.108C72.8072 160.756 73.4512 160.58 74.2592 160.58C74.6832 160.58 75.1072 160.632 75.5312 160.736C75.9552 160.84 76.3032 160.98 76.5752 161.156L76.0832 162.068C75.5632 161.732 74.9512 161.564 74.2472 161.564C73.7592 161.564 73.3872 161.644 73.1312 161.804C72.8752 161.964 72.7472 162.176 72.7472 162.44C72.7472 162.648 72.8192 162.812 72.9632 162.932C73.1072 163.052 73.2832 163.14 73.4912 163.196C73.7072 163.252 74.0072 163.316 74.3912 163.388C74.9032 163.476 75.3152 163.572 75.6272 163.676C75.9472 163.772 76.2192 163.94 76.4432 164.18C76.6672 164.42 76.7792 164.756 76.7792 165.188C76.7792 165.764 76.5312 166.224 76.0352 166.568C75.5472 166.904 74.8792 167.072 74.0312 167.072ZM84.1656 167.072C83.5336 167.072 82.9656 166.932 82.4616 166.652C81.9576 166.372 81.5616 165.988 81.2736 165.5C80.9936 165.004 80.8536 164.444 80.8536 163.82C80.8536 163.196 80.9936 162.64 81.2736 162.152C81.5616 161.656 81.9576 161.272 82.4616 161C82.9656 160.72 83.5336 160.58 84.1656 160.58C84.7976 160.58 85.3616 160.72 85.8576 161C86.3616 161.272 86.7536 161.656 87.0336 162.152C87.3216 162.64 87.4656 163.196 87.4656 163.82C87.4656 164.444 87.3216 165.004 87.0336 165.5C86.7536 165.988 86.3616 166.372 85.8576 166.652C85.3616 166.932 84.7976 167.072 84.1656 167.072ZM84.1656 166.064C84.5736 166.064 84.9376 165.972 85.2576 165.788C85.5856 165.596 85.8416 165.332 86.0256 164.996C86.2096 164.652 86.3016 164.26 86.3016 163.82C86.3016 163.38 86.2096 162.992 86.0256 162.656C85.8416 162.312 85.5856 162.048 85.2576 161.864C84.9376 161.68 84.5736 161.588 84.1656 161.588C83.7576 161.588 83.3896 161.68 83.0616 161.864C82.7416 162.048 82.4856 162.312 82.2936 162.656C82.1096 162.992 82.0176 163.38 82.0176 163.82C82.0176 164.26 82.1096 164.652 82.2936 164.996C82.4856 165.332 82.7416 165.596 83.0616 165.788C83.3896 165.972 83.7576 166.064 84.1656 166.064ZM90.1628 161.708C90.3628 161.34 90.6588 161.06 91.0508 160.868C91.4428 160.676 91.9188 160.58 92.4788 160.58V161.696C92.4148 161.688 92.3268 161.684 92.2148 161.684C91.5908 161.684 91.0988 161.872 90.7388 162.248C90.3868 162.616 90.2108 163.144 90.2108 163.832V167H89.0588V160.64H90.1628V161.708ZM99.588 163.856C99.588 163.944 99.58 164.06 99.564 164.204H94.404C94.476 164.764 94.72 165.216 95.136 165.56C95.56 165.896 96.084 166.064 96.708 166.064C97.468 166.064 98.08 165.808 98.544 165.296L99.18 166.04C98.892 166.376 98.532 166.632 98.1 166.808C97.676 166.984 97.2 167.072 96.672 167.072C96 167.072 95.404 166.936 94.884 166.664C94.364 166.384 93.96 165.996 93.672 165.5C93.392 165.004 93.252 164.444 93.252 163.82C93.252 163.204 93.388 162.648 93.66 162.152C93.94 161.656 94.32 161.272 94.8 161C95.288 160.72 95.836 160.58 96.444 160.58C97.052 160.58 97.592 160.72 98.064 161C98.544 161.272 98.916 161.656 99.18 162.152C99.452 162.648 99.588 163.216 99.588 163.856ZM96.444 161.552C95.892 161.552 95.428 161.72 95.052 162.056C94.684 162.392 94.468 162.832 94.404 163.376H98.484C98.42 162.84 98.2 162.404 97.824 162.068C97.456 161.724 96.996 161.552 96.444 161.552ZM100.372 169.4C100.092 169.4 99.8317 169.368 99.5917 169.304C99.3517 169.24 99.1517 169.144 98.9917 169.016L99.3637 168.128C99.6037 168.328 99.9157 168.428 100.3 168.428C100.604 168.428 100.836 168.332 100.996 168.14C101.164 167.956 101.248 167.68 101.248 167.312V160.64H102.4V167.288C102.4 167.944 102.224 168.46 101.872 168.836C101.52 169.212 101.02 169.4 100.372 169.4ZM101.824 159.416C101.6 159.416 101.412 159.344 101.26 159.2C101.116 159.056 101.044 158.88 101.044 158.672C101.044 158.464 101.116 158.288 101.26 158.144C101.412 157.992 101.6 157.916 101.824 157.916C102.048 157.916 102.232 157.988 102.376 158.132C102.528 158.268 102.604 158.44 102.604 158.648C102.604 158.864 102.528 159.048 102.376 159.2C102.232 159.344 102.048 159.416 101.824 159.416ZM106.914 160.58C107.794 160.58 108.466 160.796 108.93 161.228C109.402 161.66 109.638 162.304 109.638 163.16V167H108.546V166.16C108.354 166.456 108.078 166.684 107.718 166.844C107.366 166.996 106.946 167.072 106.458 167.072C105.746 167.072 105.174 166.9 104.742 166.556C104.318 166.212 104.106 165.76 104.106 165.2C104.106 164.64 104.31 164.192 104.718 163.856C105.126 163.512 105.774 163.34 106.662 163.34H108.486V163.112C108.486 162.616 108.342 162.236 108.054 161.972C107.766 161.708 107.342 161.576 106.782 161.576C106.406 161.576 106.038 161.64 105.678 161.768C105.318 161.888 105.014 162.052 104.766 162.26L104.286 161.396C104.614 161.132 105.006 160.932 105.462 160.796C105.918 160.652 106.402 160.58 106.914 160.58ZM106.65 166.184C107.09 166.184 107.47 166.088 107.79 165.896C108.11 165.696 108.342 165.416 108.486 165.056V164.168H106.71C105.734 164.168 105.246 164.496 105.246 165.152C105.246 165.472 105.37 165.724 105.618 165.908C105.866 166.092 106.21 166.184 106.65 166.184ZM113.594 167.072C113.074 167.072 112.574 167.004 112.094 166.868C111.614 166.724 111.238 166.544 110.966 166.328L111.446 165.416C111.726 165.616 112.066 165.776 112.466 165.896C112.866 166.016 113.27 166.076 113.678 166.076C114.686 166.076 115.19 165.788 115.19 165.212C115.19 165.02 115.122 164.868 114.986 164.756C114.85 164.644 114.678 164.564 114.47 164.516C114.27 164.46 113.982 164.4 113.606 164.336C113.094 164.256 112.674 164.164 112.346 164.06C112.026 163.956 111.75 163.78 111.518 163.532C111.286 163.284 111.17 162.936 111.17 162.488C111.17 161.912 111.41 161.452 111.89 161.108C112.37 160.756 113.014 160.58 113.822 160.58C114.246 160.58 114.67 160.632 115.094 160.736C115.518 160.84 115.866 160.98 116.138 161.156L115.646 162.068C115.126 161.732 114.514 161.564 113.81 161.564C113.322 161.564 112.95 161.644 112.694 161.804C112.438 161.964 112.31 162.176 112.31 162.44C112.31 162.648 112.382 162.812 112.526 162.932C112.67 163.052 112.846 163.14 113.054 163.196C113.27 163.252 113.57 163.316 113.954 163.388C114.466 163.476 114.878 163.572 115.19 163.676C115.51 163.772 115.782 163.94 116.006 164.18C116.23 164.42 116.342 164.756 116.342 165.188C116.342 165.764 116.094 166.224 115.598 166.568C115.11 166.904 114.442 167.072 113.594 167.072ZM118.057 167.072C117.833 167.072 117.641 166.996 117.481 166.844C117.321 166.684 117.241 166.484 117.241 166.244C117.241 166.012 117.321 165.82 117.481 165.668C117.641 165.508 117.833 165.428 118.057 165.428C118.281 165.428 118.469 165.504 118.621 165.656C118.773 165.808 118.849 166.004 118.849 166.244C118.849 166.484 118.769 166.684 118.609 166.844C118.457 166.996 118.273 167.072 118.057 167.072Z" fill="#008E86"/>
<path d="M67 67.5L89.5 45L89.5 90L67 67.5Z" fill="#00D8CC" stroke="#00635D" stroke-width="2" stroke-linejoin="round"/>
<path d="M89.5 45L112 67.4999L89.5 90L89.5 45Z" fill="#00D8CC" stroke="#00635D" stroke-width="2" stroke-linejoin="round"/>
<path d="M107.523 72L90 66" stroke="#333333" stroke-width="2" stroke-dasharray="4 4"/>
<path d="M72.022 72L89 66" stroke="#333333" stroke-width="2" stroke-dasharray="4 4"/>
<path d="M70.2467 59.4805C69.7752 59.7681 69.6261 60.3834 69.9136 60.855L74.5992 68.539C74.8868 69.0105 75.5021 69.1597 75.9737 68.8722C76.4452 68.5846 76.5943 67.9693 76.3068 67.4977L72.1418 60.6675L78.972 56.5025C79.4436 56.2149 79.5927 55.5996 79.3052 55.128C79.0177 54.6565 78.4023 54.5074 77.9308 54.7949L70.2467 59.4805ZM80.2346 78.1119C80.0789 78.6418 80.3822 79.1976 80.9121 79.3533C81.442 79.509 81.9978 79.2056 82.1535 78.6758L80.2346 78.1119ZM70.5318 61.3062C74.5775 62.2869 77.4455 64.5639 79.136 67.492L80.8681 66.492C78.894 63.0728 75.5605 60.4672 71.0029 59.3625L70.5318 61.3062ZM79.136 67.492C79.9547 68.91 80.4504 70.8453 80.6232 72.8321C80.7957 74.8167 80.6366 76.7436 80.2346 78.1119L82.1535 78.6758C82.6427 77.0107 82.8038 74.8235 82.6156 72.6589C82.4276 70.4965 81.8817 68.2476 80.8681 66.492L79.136 67.492Z" fill="black"/>
<path d="M96.7478 78.6758C96.9035 79.2057 97.4593 79.509 97.9892 79.3533C98.519 79.1976 98.8224 78.6419 98.6667 78.112L96.7478 78.6758ZM108.988 60.855C109.275 60.3835 109.126 59.7681 108.655 59.4806L100.97 54.7949C100.499 54.5074 99.8836 54.6566 99.5961 55.1281C99.3085 55.5996 99.4577 56.215 99.9292 56.5025L106.759 60.6675L102.594 67.4978C102.307 67.9693 102.456 68.5847 102.928 68.8722C103.399 69.1597 104.014 69.0106 104.302 68.5391L108.988 60.855ZM98.6667 78.112C97.4931 74.118 98.0311 70.4957 99.7216 67.5676L97.9896 66.5676C96.0155 69.9868 95.4257 74.1765 96.7478 78.6758L98.6667 78.112ZM99.7216 67.5676C100.54 66.1495 101.969 64.7526 103.603 63.6096C105.235 62.4679 106.983 61.6422 108.369 61.3062L107.898 59.3625C106.212 59.7714 104.237 60.7254 102.457 61.9707C100.678 63.2147 99.0032 64.812 97.9896 66.5676L99.7216 67.5676Z" fill="black"/>
</g>
<defs>
<clipPath id="clip0_5726_207816">
<rect width="180" height="180" rx="20" fill="white"/>
</clipPath>
<clipPath id="clip1_5726_207816">
<path d="M0 30L-1.31134e-06 0L30 -1.31134e-06L30 10C30 21.0457 21.0457 30 10 30L0 30Z" fill="white"/>
</clipPath>
</defs>
</svg>
