<svg width="180" height="180" viewBox="0 0 180 180" fill="none" xmlns="http://www.w3.org/2000/svg">
<g clip-path="url(#clip0_5726_207820)">
<rect width="180" height="180" rx="20" fill="#F2F2F2"/>

<path d="M40.4827 120.6H44.0227C44.9107 120.6 45.6987 120.776 46.3867 121.128C47.0747 121.48 47.6067 121.976 47.9827 122.616C48.3667 123.248 48.5587 123.976 48.5587 124.8C48.5587 125.624 48.3667 126.356 47.9827 126.996C47.6067 127.628 47.0747 128.12 46.3867 128.472C45.6987 128.824 44.9107 129 44.0227 129H40.4827V120.6ZM43.9507 127.956C44.6307 127.956 45.2267 127.824 45.7387 127.56C46.2587 127.296 46.6587 126.928 46.9387 126.456C47.2187 125.976 47.3587 125.424 47.3587 124.8C47.3587 124.176 47.2187 123.628 46.9387 123.156C46.6587 122.676 46.2587 122.304 45.7387 122.04C45.2267 121.776 44.6307 121.644 43.9507 121.644H41.6827V127.956H43.9507ZM52.9527 129.072C52.3207 129.072 51.7527 128.932 51.2487 128.652C50.7447 128.372 50.3487 127.988 50.0607 127.5C49.7807 127.004 49.6407 126.444 49.6407 125.82C49.6407 125.196 49.7807 124.64 50.0607 124.152C50.3487 123.656 50.7447 123.272 51.2487 123C51.7527 122.72 52.3207 122.58 52.9527 122.58C53.5847 122.58 54.1487 122.72 54.6447 123C55.1487 123.272 55.5407 123.656 55.8207 124.152C56.1087 124.64 56.2527 125.196 56.2527 125.82C56.2527 126.444 56.1087 127.004 55.8207 127.5C55.5407 127.988 55.1487 128.372 54.6447 128.652C54.1487 128.932 53.5847 129.072 52.9527 129.072ZM52.9527 128.064C53.3607 128.064 53.7247 127.972 54.0447 127.788C54.3727 127.596 54.6287 127.332 54.8127 126.996C54.9967 126.652 55.0887 126.26 55.0887 125.82C55.0887 125.38 54.9967 124.992 54.8127 124.656C54.6287 124.312 54.3727 124.048 54.0447 123.864C53.7247 123.68 53.3607 123.588 52.9527 123.588C52.5447 123.588 52.1767 123.68 51.8487 123.864C51.5287 124.048 51.2727 124.312 51.0807 124.656C50.8967 124.992 50.8047 125.38 50.8047 125.82C50.8047 126.26 50.8967 126.652 51.0807 126.996C51.2727 127.332 51.5287 127.596 51.8487 127.788C52.1767 127.972 52.5447 128.064 52.9527 128.064ZM61.2179 122.58C61.8339 122.58 62.3859 122.716 62.8739 122.988C63.3619 123.26 63.7419 123.64 64.0139 124.128C64.2939 124.616 64.4339 125.18 64.4339 125.82C64.4339 126.46 64.2939 127.028 64.0139 127.524C63.7419 128.012 63.3619 128.392 62.8739 128.664C62.3859 128.936 61.8339 129.072 61.2179 129.072C60.7459 129.072 60.3139 128.98 59.9219 128.796C59.5299 128.612 59.2059 128.344 58.9499 127.992V129H57.8459V120.096H58.9979V123.6C59.2539 123.264 59.5739 123.012 59.9579 122.844C60.3419 122.668 60.7619 122.58 61.2179 122.58ZM61.1219 128.064C61.5299 128.064 61.8939 127.972 62.2139 127.788C62.5419 127.596 62.7979 127.332 62.9819 126.996C63.1739 126.652 63.2699 126.26 63.2699 125.82C63.2699 125.38 63.1739 124.992 62.9819 124.656C62.7979 124.312 62.5419 124.048 62.2139 123.864C61.8939 123.68 61.5299 123.588 61.1219 123.588C60.7219 123.588 60.3579 123.68 60.0299 123.864C59.7019 124.048 59.4459 124.312 59.2619 124.656C59.0779 124.992 58.9859 125.38 58.9859 125.82C58.9859 126.26 59.0779 126.652 59.2619 126.996C59.4459 127.332 59.7019 127.596 60.0299 127.788C60.3579 127.972 60.7219 128.064 61.1219 128.064ZM66.0256 120.096H67.1776V129H66.0256V120.096ZM71.6932 122.58C72.5732 122.58 73.2452 122.796 73.7092 123.228C74.1812 123.66 74.4172 124.304 74.4172 125.16V129H73.3252V128.16C73.1332 128.456 72.8572 128.684 72.4972 128.844C72.1452 128.996 71.7252 129.072 71.2372 129.072C70.5252 129.072 69.9532 128.9 69.5212 128.556C69.0972 128.212 68.8852 127.76 68.8852 127.2C68.8852 126.64 69.0892 126.192 69.4972 125.856C69.9052 125.512 70.5532 125.34 71.4412 125.34H73.2652V125.112C73.2652 124.616 73.1212 124.236 72.8332 123.972C72.5452 123.708 72.1212 123.576 71.5612 123.576C71.1852 123.576 70.8172 123.64 70.4572 123.768C70.0972 123.888 69.7932 124.052 69.5452 124.26L69.0652 123.396C69.3932 123.132 69.7852 122.932 70.2412 122.796C70.6972 122.652 71.1812 122.58 71.6932 122.58ZM71.4292 128.184C71.8692 128.184 72.2492 128.088 72.5692 127.896C72.8892 127.696 73.1212 127.416 73.2652 127.056V126.168H71.4892C70.5132 126.168 70.0252 126.496 70.0252 127.152C70.0252 127.472 70.1492 127.724 70.3972 127.908C70.6452 128.092 70.9892 128.184 71.4292 128.184ZM79.7717 120.096H80.9237V129H79.7717V120.096ZM85.4393 122.58C86.3193 122.58 86.9913 122.796 87.4553 123.228C87.9273 123.66 88.1633 124.304 88.1633 125.16V129H87.0713V128.16C86.8793 128.456 86.6033 128.684 86.2433 128.844C85.8913 128.996 85.4713 129.072 84.9833 129.072C84.2713 129.072 83.6993 128.9 83.2673 128.556C82.8433 128.212 82.6313 127.76 82.6313 127.2C82.6313 126.64 82.8353 126.192 83.2433 125.856C83.6513 125.512 84.2993 125.34 85.1873 125.34H87.0113V125.112C87.0113 124.616 86.8673 124.236 86.5793 123.972C86.2913 123.708 85.8673 123.576 85.3073 123.576C84.9313 123.576 84.5633 123.64 84.2033 123.768C83.8433 123.888 83.5393 124.052 83.2913 124.26L82.8113 123.396C83.1393 123.132 83.5313 122.932 83.9873 122.796C84.4433 122.652 84.9273 122.58 85.4393 122.58ZM85.1753 128.184C85.6153 128.184 85.9953 128.088 86.3153 127.896C86.6353 127.696 86.8673 127.416 87.0113 127.056V126.168H85.2353C84.2593 126.168 83.7713 126.496 83.7713 127.152C83.7713 127.472 83.8953 127.724 84.1433 127.908C84.3913 128.092 84.7353 128.184 85.1753 128.184ZM99.2658 125.856C99.2658 125.944 99.2578 126.06 99.2418 126.204H94.0818C94.1538 126.764 94.3978 127.216 94.8138 127.56C95.2378 127.896 95.7618 128.064 96.3858 128.064C97.1458 128.064 97.7578 127.808 98.2218 127.296L98.8578 128.04C98.5698 128.376 98.2098 128.632 97.7778 128.808C97.3538 128.984 96.8778 129.072 96.3498 129.072C95.6778 129.072 95.0818 128.936 94.5618 128.664C94.0418 128.384 93.6378 127.996 93.3498 127.5C93.0698 127.004 92.9298 126.444 92.9298 125.82C92.9298 125.204 93.0658 124.648 93.3378 124.152C93.6178 123.656 93.9978 123.272 94.4778 123C94.9658 122.72 95.5138 122.58 96.1218 122.58C96.7298 122.58 97.2698 122.72 97.7418 123C98.2218 123.272 98.5938 123.656 98.8578 124.152C99.1298 124.648 99.2658 125.216 99.2658 125.856ZM96.1218 123.552C95.5698 123.552 95.1058 123.72 94.7298 124.056C94.3618 124.392 94.1458 124.832 94.0818 125.376H98.1618C98.0978 124.84 97.8778 124.404 97.5018 124.068C97.1338 123.724 96.6738 123.552 96.1218 123.552ZM102.689 129.072C102.169 129.072 101.669 129.004 101.189 128.868C100.709 128.724 100.333 128.544 100.061 128.328L100.541 127.416C100.821 127.616 101.161 127.776 101.561 127.896C101.961 128.016 102.365 128.076 102.773 128.076C103.781 128.076 104.285 127.788 104.285 127.212C104.285 127.02 104.217 126.868 104.081 126.756C103.945 126.644 103.773 126.564 103.565 126.516C103.365 126.46 103.077 126.4 102.701 126.336C102.189 126.256 101.769 126.164 101.441 126.06C101.121 125.956 100.845 125.78 100.613 125.532C100.381 125.284 100.265 124.936 100.265 124.488C100.265 123.912 100.505 123.452 100.985 123.108C101.465 122.756 102.109 122.58 102.917 122.58C103.341 122.58 103.765 122.632 104.189 122.736C104.613 122.84 104.961 122.98 105.233 123.156L104.741 124.068C104.221 123.732 103.609 123.564 102.905 123.564C102.417 123.564 102.045 123.644 101.789 123.804C101.533 123.964 101.405 124.176 101.405 124.44C101.405 124.648 101.477 124.812 101.621 124.932C101.765 125.052 101.941 125.14 102.149 125.196C102.365 125.252 102.665 125.316 103.049 125.388C103.561 125.476 103.973 125.572 104.285 125.676C104.605 125.772 104.877 125.94 105.101 126.18C105.325 126.42 105.437 126.756 105.437 127.188C105.437 127.764 105.189 128.224 104.693 128.568C104.205 128.904 103.537 129.072 102.689 129.072ZM112.877 122.64V131.328H111.725V128.04C111.461 128.376 111.137 128.632 110.753 128.808C110.377 128.984 109.961 129.072 109.505 129.072C108.889 129.072 108.337 128.936 107.849 128.664C107.361 128.392 106.977 128.012 106.697 127.524C106.425 127.028 106.289 126.46 106.289 125.82C106.289 125.18 106.425 124.616 106.697 124.128C106.977 123.64 107.361 123.26 107.849 122.988C108.337 122.716 108.889 122.58 109.505 122.58C109.977 122.58 110.409 122.672 110.801 122.856C111.193 123.032 111.517 123.296 111.773 123.648V122.64H112.877ZM109.601 128.064C110.001 128.064 110.365 127.972 110.693 127.788C111.021 127.596 111.277 127.332 111.461 126.996C111.645 126.652 111.737 126.26 111.737 125.82C111.737 125.38 111.641 124.992 111.449 124.656C111.265 124.32 111.009 124.06 110.681 123.876C110.361 123.684 110.001 123.588 109.601 123.588C109.193 123.588 108.825 123.68 108.497 123.864C108.177 124.048 107.921 124.312 107.729 124.656C107.545 124.992 107.453 125.38 107.453 125.82C107.453 126.26 107.545 126.652 107.729 126.996C107.921 127.332 108.177 127.596 108.497 127.788C108.825 127.972 109.193 128.064 109.601 128.064ZM120.985 122.64V129H119.893V128.04C119.661 128.368 119.353 128.624 118.969 128.808C118.593 128.984 118.181 129.072 117.733 129.072C116.885 129.072 116.217 128.84 115.729 128.376C115.241 127.904 114.997 127.212 114.997 126.3V122.64H116.149V126.168C116.149 126.784 116.297 127.252 116.593 127.572C116.889 127.884 117.313 128.04 117.865 128.04C118.473 128.04 118.953 127.856 119.305 127.488C119.657 127.12 119.833 126.6 119.833 125.928V122.64H120.985ZM123.178 122.64H124.33V129H123.178V122.64ZM123.754 121.416C123.53 121.416 123.342 121.344 123.19 121.2C123.046 121.056 122.974 120.88 122.974 120.672C122.974 120.464 123.046 120.288 123.19 120.144C123.342 119.992 123.53 119.916 123.754 119.916C123.978 119.916 124.162 119.988 124.306 120.132C124.458 120.268 124.534 120.44 124.534 120.648C124.534 120.864 124.458 121.048 124.306 121.2C124.162 121.344 123.978 121.416 123.754 121.416ZM129.926 122.58C130.734 122.58 131.374 122.816 131.846 123.288C132.326 123.752 132.566 124.436 132.566 125.34V129H131.414V125.472C131.414 124.856 131.266 124.392 130.97 124.08C130.674 123.768 130.25 123.612 129.698 123.612C129.074 123.612 128.582 123.796 128.222 124.164C127.862 124.524 127.682 125.044 127.682 125.724V129H126.53V122.64H127.634V123.6C127.866 123.272 128.178 123.02 128.57 122.844C128.97 122.668 129.422 122.58 129.926 122.58ZM137.013 122.58C137.893 122.58 138.565 122.796 139.029 123.228C139.501 123.66 139.737 124.304 139.737 125.16V129H138.645V128.16C138.453 128.456 138.177 128.684 137.817 128.844C137.465 128.996 137.045 129.072 136.557 129.072C135.845 129.072 135.273 128.9 134.841 128.556C134.417 128.212 134.205 127.76 134.205 127.2C134.205 126.64 134.409 126.192 134.817 125.856C135.225 125.512 135.873 125.34 136.761 125.34H138.585V125.112C138.585 124.616 138.441 124.236 138.153 123.972C137.865 123.708 137.441 123.576 136.881 123.576C136.505 123.576 136.137 123.64 135.777 123.768C135.417 123.888 135.113 124.052 134.865 124.26L134.385 123.396C134.713 123.132 135.105 122.932 135.561 122.796C136.017 122.652 136.501 122.58 137.013 122.58ZM136.749 128.184C137.189 128.184 137.569 128.088 137.889 127.896C138.209 127.696 138.441 127.416 138.585 127.056V126.168H136.809C135.833 126.168 135.345 126.496 135.345 127.152C135.345 127.472 135.469 127.724 135.717 127.908C135.965 128.092 136.309 128.184 136.749 128.184ZM49.7324 144.072C49.2124 144.072 48.7124 144.004 48.2324 143.868C47.7524 143.724 47.3764 143.544 47.1044 143.328L47.5844 142.416C47.8644 142.616 48.2044 142.776 48.6044 142.896C49.0044 143.016 49.4084 143.076 49.8164 143.076C50.8244 143.076 51.3284 142.788 51.3284 142.212C51.3284 142.02 51.2604 141.868 51.1244 141.756C50.9884 141.644 50.8164 141.564 50.6084 141.516C50.4084 141.46 50.1204 141.4 49.7444 141.336C49.2324 141.256 48.8124 141.164 48.4844 141.06C48.1644 140.956 47.8884 140.78 47.6564 140.532C47.4244 140.284 47.3084 139.936 47.3084 139.488C47.3084 138.912 47.5484 138.452 48.0284 138.108C48.5084 137.756 49.1524 137.58 49.9604 137.58C50.3844 137.58 50.8084 137.632 51.2324 137.736C51.6564 137.84 52.0044 137.98 52.2764 138.156L51.7844 139.068C51.2644 138.732 50.6524 138.564 49.9484 138.564C49.4604 138.564 49.0884 138.644 48.8324 138.804C48.5764 138.964 48.4484 139.176 48.4484 139.44C48.4484 139.648 48.5204 139.812 48.6644 139.932C48.8084 140.052 48.9844 140.14 49.1924 140.196C49.4084 140.252 49.7084 140.316 50.0924 140.388C50.6044 140.476 51.0164 140.572 51.3284 140.676C51.6484 140.772 51.9204 140.94 52.1444 141.18C52.3684 141.42 52.4804 141.756 52.4804 142.188C52.4804 142.764 52.2324 143.224 51.7364 143.568C51.2484 143.904 50.5804 144.072 49.7324 144.072ZM59.8481 137.64V144H58.7561V143.04C58.5241 143.368 58.2161 143.624 57.8321 143.808C57.4561 143.984 57.0441 144.072 56.5961 144.072C55.7481 144.072 55.0801 143.84 54.5921 143.376C54.1041 142.904 53.8601 142.212 53.8601 141.3V137.64H55.0121V141.168C55.0121 141.784 55.1601 142.252 55.4561 142.572C55.7521 142.884 56.1761 143.04 56.7281 143.04C57.3361 143.04 57.8161 142.856 58.1681 142.488C58.5201 142.12 58.6961 141.6 58.6961 140.928V137.64H59.8481ZM65.4132 137.58C66.0292 137.58 66.5812 137.716 67.0692 137.988C67.5572 138.26 67.9372 138.64 68.2092 139.128C68.4892 139.616 68.6292 140.18 68.6292 140.82C68.6292 141.46 68.4892 142.028 68.2092 142.524C67.9372 143.012 67.5572 143.392 67.0692 143.664C66.5812 143.936 66.0292 144.072 65.4132 144.072C64.9572 144.072 64.5372 143.984 64.1532 143.808C63.7772 143.632 63.4572 143.376 63.1932 143.04V146.328H62.0412V137.64H63.1452V138.648C63.4012 138.296 63.7252 138.032 64.1172 137.856C64.5092 137.672 64.9412 137.58 65.4132 137.58ZM65.3172 143.064C65.7252 143.064 66.0892 142.972 66.4092 142.788C66.7372 142.596 66.9932 142.332 67.1772 141.996C67.3692 141.652 67.4652 141.26 67.4652 140.82C67.4652 140.38 67.3692 139.992 67.1772 139.656C66.9932 139.312 66.7372 139.048 66.4092 138.864C66.0892 138.68 65.7252 138.588 65.3172 138.588C64.9172 138.588 64.5532 138.684 64.2252 138.876C63.9052 139.06 63.6492 139.32 63.4572 139.656C63.2732 139.992 63.1812 140.38 63.1812 140.82C63.1812 141.26 63.2732 141.652 63.4572 141.996C63.6412 142.332 63.8972 142.596 64.2252 142.788C64.5532 142.972 64.9172 143.064 65.3172 143.064ZM75.9689 140.856C75.9689 140.944 75.9609 141.06 75.9449 141.204H70.7849C70.8569 141.764 71.1009 142.216 71.5169 142.56C71.9409 142.896 72.4649 143.064 73.0889 143.064C73.8489 143.064 74.4609 142.808 74.9249 142.296L75.5609 143.04C75.2729 143.376 74.9129 143.632 74.4809 143.808C74.0569 143.984 73.5809 144.072 73.0529 144.072C72.3809 144.072 71.7849 143.936 71.2649 143.664C70.7449 143.384 70.3409 142.996 70.0529 142.5C69.7729 142.004 69.6329 141.444 69.6329 140.82C69.6329 140.204 69.7689 139.648 70.0409 139.152C70.3209 138.656 70.7009 138.272 71.1809 138C71.6689 137.72 72.2169 137.58 72.8249 137.58C73.4329 137.58 73.9729 137.72 74.4449 138C74.9249 138.272 75.2969 138.656 75.5609 139.152C75.8329 139.648 75.9689 140.216 75.9689 140.856ZM72.8249 138.552C72.2729 138.552 71.8089 138.72 71.4329 139.056C71.0649 139.392 70.8489 139.832 70.7849 140.376H74.8649C74.8009 139.84 74.5809 139.404 74.2049 139.068C73.8369 138.724 73.3769 138.552 72.8249 138.552ZM78.6726 138.708C78.8726 138.34 79.1686 138.06 79.5606 137.868C79.9526 137.676 80.4286 137.58 80.9886 137.58V138.696C80.9246 138.688 80.8366 138.684 80.7246 138.684C80.1006 138.684 79.6086 138.872 79.2486 139.248C78.8966 139.616 78.7206 140.144 78.7206 140.832V144H77.5686V137.64H78.6726V138.708ZM82.4084 137.64H83.5604V144H82.4084V137.64ZM82.9844 136.416C82.7604 136.416 82.5724 136.344 82.4204 136.2C82.2764 136.056 82.2044 135.88 82.2044 135.672C82.2044 135.464 82.2764 135.288 82.4204 135.144C82.5724 134.992 82.7604 134.916 82.9844 134.916C83.2084 134.916 83.3924 134.988 83.5364 135.132C83.6884 135.268 83.7644 135.44 83.7644 135.648C83.7644 135.864 83.6884 136.048 83.5364 136.2C83.3924 136.344 83.2084 136.416 82.9844 136.416ZM88.484 144.072C87.852 144.072 87.284 143.932 86.78 143.652C86.276 143.372 85.88 142.988 85.592 142.5C85.312 142.004 85.172 141.444 85.172 140.82C85.172 140.196 85.312 139.64 85.592 139.152C85.88 138.656 86.276 138.272 86.78 138C87.284 137.72 87.852 137.58 88.484 137.58C89.116 137.58 89.68 137.72 90.176 138C90.68 138.272 91.072 138.656 91.352 139.152C91.64 139.64 91.784 140.196 91.784 140.82C91.784 141.444 91.64 142.004 91.352 142.5C91.072 142.988 90.68 143.372 90.176 143.652C89.68 143.932 89.116 144.072 88.484 144.072ZM88.484 143.064C88.892 143.064 89.256 142.972 89.576 142.788C89.904 142.596 90.16 142.332 90.344 141.996C90.528 141.652 90.62 141.26 90.62 140.82C90.62 140.38 90.528 139.992 90.344 139.656C90.16 139.312 89.904 139.048 89.576 138.864C89.256 138.68 88.892 138.588 88.484 138.588C88.076 138.588 87.708 138.68 87.38 138.864C87.06 139.048 86.804 139.312 86.612 139.656C86.428 139.992 86.336 140.38 86.336 140.82C86.336 141.26 86.428 141.652 86.612 141.996C86.804 142.332 87.06 142.596 87.38 142.788C87.708 142.972 88.076 143.064 88.484 143.064ZM94.4812 138.708C94.6812 138.34 94.9772 138.06 95.3692 137.868C95.7612 137.676 96.2372 137.58 96.7972 137.58V138.696C96.7332 138.688 96.6452 138.684 96.5332 138.684C95.9092 138.684 95.4172 138.872 95.0572 139.248C94.7052 139.616 94.5292 140.144 94.5292 140.832V144H93.3772V137.64H94.4812V138.708ZM104.918 137.58C105.726 137.58 106.366 137.816 106.838 138.288C107.318 138.752 107.558 139.436 107.558 140.34V144H106.406V140.472C106.406 139.856 106.258 139.392 105.962 139.08C105.666 138.768 105.242 138.612 104.69 138.612C104.066 138.612 103.574 138.796 103.214 139.164C102.854 139.524 102.674 140.044 102.674 140.724V144H101.522V135.096H102.674V138.54C102.914 138.236 103.226 138 103.61 137.832C104.002 137.664 104.438 137.58 104.918 137.58ZM112.006 137.58C112.886 137.58 113.558 137.796 114.022 138.228C114.494 138.66 114.73 139.304 114.73 140.16V144H113.638V143.16C113.446 143.456 113.17 143.684 112.81 143.844C112.458 143.996 112.038 144.072 111.55 144.072C110.838 144.072 110.266 143.9 109.834 143.556C109.41 143.212 109.198 142.76 109.198 142.2C109.198 141.64 109.402 141.192 109.81 140.856C110.218 140.512 110.866 140.34 111.754 140.34H113.578V140.112C113.578 139.616 113.434 139.236 113.146 138.972C112.858 138.708 112.434 138.576 111.874 138.576C111.498 138.576 111.13 138.64 110.77 138.768C110.41 138.888 110.106 139.052 109.858 139.26L109.378 138.396C109.706 138.132 110.098 137.932 110.554 137.796C111.01 137.652 111.494 137.58 112.006 137.58ZM111.742 143.184C112.182 143.184 112.562 143.088 112.882 142.896C113.202 142.696 113.434 142.416 113.578 142.056V141.168H111.802C110.826 141.168 110.338 141.496 110.338 142.152C110.338 142.472 110.462 142.724 110.71 142.908C110.958 143.092 111.302 143.184 111.742 143.184ZM119.669 144.072C119.021 144.072 118.441 143.932 117.929 143.652C117.425 143.372 117.029 142.988 116.741 142.5C116.453 142.004 116.309 141.444 116.309 140.82C116.309 140.196 116.453 139.64 116.741 139.152C117.029 138.656 117.425 138.272 117.929 138C118.441 137.72 119.021 137.58 119.669 137.58C120.245 137.58 120.757 137.696 121.205 137.928C121.661 138.16 122.013 138.496 122.261 138.936L121.385 139.5C121.185 139.196 120.937 138.968 120.641 138.816C120.345 138.664 120.017 138.588 119.657 138.588C119.241 138.588 118.865 138.68 118.529 138.864C118.201 139.048 117.941 139.312 117.749 139.656C117.565 139.992 117.473 140.38 117.473 140.82C117.473 141.268 117.565 141.664 117.749 142.008C117.941 142.344 118.201 142.604 118.529 142.788C118.865 142.972 119.241 143.064 119.657 143.064C120.017 143.064 120.345 142.988 120.641 142.836C120.937 142.684 121.185 142.456 121.385 142.152L122.261 142.704C122.013 143.144 121.661 143.484 121.205 143.724C120.757 143.956 120.245 144.072 119.669 144.072ZM123.752 137.64H124.904V144H123.752V137.64ZM124.328 136.416C124.104 136.416 123.916 136.344 123.764 136.2C123.62 136.056 123.548 135.88 123.548 135.672C123.548 135.464 123.62 135.288 123.764 135.144C123.916 134.992 124.104 134.916 124.328 134.916C124.552 134.916 124.736 134.988 124.88 135.132C125.032 135.268 125.108 135.44 125.108 135.648C125.108 135.864 125.032 136.048 124.88 136.2C124.736 136.344 124.552 136.416 124.328 136.416ZM129.42 137.58C130.3 137.58 130.972 137.796 131.436 138.228C131.908 138.66 132.144 139.304 132.144 140.16V144H131.052V143.16C130.86 143.456 130.584 143.684 130.224 143.844C129.872 143.996 129.452 144.072 128.964 144.072C128.252 144.072 127.68 143.9 127.248 143.556C126.824 143.212 126.612 142.76 126.612 142.2C126.612 141.64 126.816 141.192 127.224 140.856C127.632 140.512 128.28 140.34 129.168 140.34H130.992V140.112C130.992 139.616 130.848 139.236 130.56 138.972C130.272 138.708 129.848 138.576 129.288 138.576C128.912 138.576 128.544 138.64 128.184 138.768C127.824 138.888 127.52 139.052 127.272 139.26L126.792 138.396C127.12 138.132 127.512 137.932 127.968 137.796C128.424 137.652 128.908 137.58 129.42 137.58ZM129.156 143.184C129.596 143.184 129.976 143.088 130.296 142.896C130.616 142.696 130.848 142.416 130.992 142.056V141.168H129.216C128.24 141.168 127.752 141.496 127.752 142.152C127.752 142.472 127.876 142.724 128.124 142.908C128.372 143.092 128.716 143.184 129.156 143.184ZM65.283 152.58C66.163 152.58 66.835 152.796 67.299 153.228C67.771 153.66 68.007 154.304 68.007 155.16V159H66.915V158.16C66.723 158.456 66.447 158.684 66.087 158.844C65.735 158.996 65.315 159.072 64.827 159.072C64.115 159.072 63.543 158.9 63.111 158.556C62.687 158.212 62.475 157.76 62.475 157.2C62.475 156.64 62.679 156.192 63.087 155.856C63.495 155.512 64.143 155.34 65.031 155.34H66.855V155.112C66.855 154.616 66.711 154.236 66.423 153.972C66.135 153.708 65.711 153.576 65.151 153.576C64.775 153.576 64.407 153.64 64.047 153.768C63.687 153.888 63.383 154.052 63.135 154.26L62.655 153.396C62.983 153.132 63.375 152.932 63.831 152.796C64.287 152.652 64.771 152.58 65.283 152.58ZM65.019 158.184C65.459 158.184 65.839 158.088 66.159 157.896C66.479 157.696 66.711 157.416 66.855 157.056V156.168H65.079C64.103 156.168 63.615 156.496 63.615 157.152C63.615 157.472 63.739 157.724 63.987 157.908C64.235 158.092 64.579 158.184 65.019 158.184ZM76.174 150.096V159H75.07V157.992C74.814 158.344 74.49 158.612 74.098 158.796C73.706 158.98 73.274 159.072 72.802 159.072C72.186 159.072 71.634 158.936 71.146 158.664C70.658 158.392 70.274 158.012 69.994 157.524C69.722 157.028 69.586 156.46 69.586 155.82C69.586 155.18 69.722 154.616 69.994 154.128C70.274 153.64 70.658 153.26 71.146 152.988C71.634 152.716 72.186 152.58 72.802 152.58C73.258 152.58 73.678 152.668 74.062 152.844C74.446 153.012 74.766 153.264 75.022 153.6V150.096H76.174ZM72.898 158.064C73.298 158.064 73.662 157.972 73.99 157.788C74.318 157.596 74.574 157.332 74.758 156.996C74.942 156.652 75.034 156.26 75.034 155.82C75.034 155.38 74.942 154.992 74.758 154.656C74.574 154.312 74.318 154.048 73.99 153.864C73.662 153.68 73.298 153.588 72.898 153.588C72.49 153.588 72.122 153.68 71.794 153.864C71.474 154.048 71.218 154.312 71.026 154.656C70.842 154.992 70.75 155.38 70.75 155.82C70.75 156.26 70.842 156.652 71.026 156.996C71.218 157.332 71.474 157.596 71.794 157.788C72.122 157.972 72.49 158.064 72.898 158.064ZM84.1017 155.856C84.1017 155.944 84.0937 156.06 84.0777 156.204H78.9177C78.9897 156.764 79.2337 157.216 79.6497 157.56C80.0737 157.896 80.5977 158.064 81.2217 158.064C81.9817 158.064 82.5937 157.808 83.0577 157.296L83.6937 158.04C83.4057 158.376 83.0457 158.632 82.6137 158.808C82.1897 158.984 81.7137 159.072 81.1857 159.072C80.5137 159.072 79.9177 158.936 79.3977 158.664C78.8777 158.384 78.4737 157.996 78.1857 157.5C77.9057 157.004 77.7657 156.444 77.7657 155.82C77.7657 155.204 77.9017 154.648 78.1737 154.152C78.4537 153.656 78.8337 153.272 79.3137 153C79.8017 152.72 80.3497 152.58 80.9577 152.58C81.5657 152.58 82.1057 152.72 82.5777 153C83.0577 153.272 83.4297 153.656 83.6937 154.152C83.9657 154.648 84.1017 155.216 84.1017 155.856ZM80.9577 153.552C80.4057 153.552 79.9417 153.72 79.5657 154.056C79.1977 154.392 78.9817 154.832 78.9177 155.376H82.9977C82.9337 154.84 82.7137 154.404 82.3377 154.068C81.9697 153.724 81.5097 153.552 80.9577 153.552ZM85.7014 150.096H86.8534V159H85.7014V150.096ZM91.3689 152.58C92.2489 152.58 92.9209 152.796 93.3849 153.228C93.8569 153.66 94.0929 154.304 94.0929 155.16V159H93.0009V158.16C92.8089 158.456 92.5329 158.684 92.1729 158.844C91.8209 158.996 91.4009 159.072 90.9129 159.072C90.2009 159.072 89.6289 158.9 89.1969 158.556C88.7729 158.212 88.5609 157.76 88.5609 157.2C88.5609 156.64 88.7649 156.192 89.1729 155.856C89.5809 155.512 90.2289 155.34 91.1169 155.34H92.9409V155.112C92.9409 154.616 92.7969 154.236 92.5089 153.972C92.2209 153.708 91.7969 153.576 91.2369 153.576C90.8609 153.576 90.4929 153.64 90.1329 153.768C89.7729 153.888 89.4689 154.052 89.2209 154.26L88.7409 153.396C89.0689 153.132 89.4609 152.932 89.9169 152.796C90.3729 152.652 90.8569 152.58 91.3689 152.58ZM91.1049 158.184C91.5449 158.184 91.9249 158.088 92.2449 157.896C92.5649 157.696 92.7969 157.416 92.9409 157.056V156.168H91.1649C90.1889 156.168 89.7009 156.496 89.7009 157.152C89.7009 157.472 89.8249 157.724 90.0729 157.908C90.3209 158.092 90.6649 158.184 91.1049 158.184ZM99.6208 152.58C100.429 152.58 101.069 152.816 101.541 153.288C102.021 153.752 102.261 154.436 102.261 155.34V159H101.109V155.472C101.109 154.856 100.961 154.392 100.665 154.08C100.369 153.768 99.9448 153.612 99.3928 153.612C98.7688 153.612 98.2768 153.796 97.9168 154.164C97.5568 154.524 97.3768 155.044 97.3768 155.724V159H96.2248V152.64H97.3288V153.6C97.5608 153.272 97.8728 153.02 98.2648 152.844C98.6648 152.668 99.1168 152.58 99.6208 152.58ZM107.969 158.628C107.801 158.772 107.593 158.884 107.345 158.964C107.097 159.036 106.841 159.072 106.577 159.072C105.937 159.072 105.441 158.9 105.089 158.556C104.737 158.212 104.561 157.72 104.561 157.08V153.588H103.481V152.64H104.561V151.248H105.713V152.64H107.537V153.588H105.713V157.032C105.713 157.376 105.797 157.64 105.965 157.824C106.141 158.008 106.389 158.1 106.709 158.1C107.061 158.1 107.361 158 107.609 157.8L107.969 158.628ZM114.899 155.856C114.899 155.944 114.891 156.06 114.875 156.204H109.715C109.787 156.764 110.031 157.216 110.447 157.56C110.871 157.896 111.395 158.064 112.019 158.064C112.779 158.064 113.391 157.808 113.855 157.296L114.491 158.04C114.203 158.376 113.843 158.632 113.411 158.808C112.987 158.984 112.511 159.072 111.983 159.072C111.311 159.072 110.715 158.936 110.195 158.664C109.675 158.384 109.271 157.996 108.983 157.5C108.703 157.004 108.563 156.444 108.563 155.82C108.563 155.204 108.699 154.648 108.971 154.152C109.251 153.656 109.631 153.272 110.111 153C110.599 152.72 111.147 152.58 111.755 152.58C112.363 152.58 112.903 152.72 113.375 153C113.855 153.272 114.227 153.656 114.491 154.152C114.763 154.648 114.899 155.216 114.899 155.856ZM111.755 153.552C111.203 153.552 110.739 153.72 110.363 154.056C109.995 154.392 109.779 154.832 109.715 155.376H113.795C113.731 154.84 113.511 154.404 113.135 154.068C112.767 153.724 112.307 153.552 111.755 153.552ZM116.774 159.072C116.55 159.072 116.358 158.996 116.198 158.844C116.038 158.684 115.958 158.484 115.958 158.244C115.958 158.012 116.038 157.82 116.198 157.668C116.358 157.508 116.55 157.428 116.774 157.428C116.998 157.428 117.186 157.504 117.338 157.656C117.49 157.808 117.566 158.004 117.566 158.244C117.566 158.484 117.486 158.684 117.326 158.844C117.174 158.996 116.99 159.072 116.774 159.072Z" fill="#008E86"/>
<path d="M67 67.4998L89.5 44.9998L89.5 89.9997L67 67.4998Z" fill="#00D8CC" stroke="#00635D" stroke-width="2" stroke-linejoin="round"/>
<path d="M89.5 44.9998L112 67.4997L89.5 89.9997L89.5 44.9998Z" fill="#00D8CC" stroke="#00635D" stroke-width="2" stroke-linejoin="round"/>
<path d="M67 67.4995L89.5 44.9995L89.5 65.9995L71.5 71.9995L67 67.4995Z" fill="#00D8CC" stroke="#00635D" stroke-width="2" stroke-linejoin="round"/>
<path d="M89.4999 44.9998L112 67.4998L107.5 71.9998L89.5 65.9998L89.4999 44.9998Z" fill="#00D8CC" stroke="#00635D" stroke-width="2" stroke-linejoin="round"/>
<path d="M99 55L80 55" stroke="#333333" stroke-width="2" stroke-dasharray="4 4"/>
<path d="M90 66.0002L72 72.0002L72 48.0003L90 66.0002Z" fill="#00D8CC" stroke="#00635D" stroke-width="2" stroke-linejoin="round"/>
<path d="M107 72.5L89 66L107 48L107 72.5Z" fill="#00D8CC" stroke="#00635D" stroke-width="2" stroke-linejoin="round"/>
<path d="M66.6926 63.853C67.2448 63.8397 67.6816 63.3814 67.6684 62.8293L67.4525 53.8319C67.4392 53.2797 66.9809 52.8429 66.4288 52.8561C65.8767 52.8694 65.4398 53.3277 65.4531 53.8798L65.645 61.8775L57.6473 62.0694C57.0951 62.0827 56.6583 62.541 56.6715 63.0931C56.6848 63.6453 57.1431 64.0821 57.6952 64.0689L66.6926 63.853ZM67.3586 42.7238C67.7584 42.3428 67.7736 41.7098 67.3925 41.31C67.0115 40.9102 66.3785 40.895 65.9787 41.2761L67.3586 42.7238ZM67.3586 62.1294C64.3452 59.2573 63 55.8513 63 52.4702L61 52.4702C61 56.4184 62.5841 60.3416 65.9787 63.5771L67.3586 62.1294ZM63 52.4702C63 50.8328 63.5384 48.9089 64.3822 47.102C65.2251 45.297 66.3263 43.7077 67.3586 42.7238L65.9787 41.2761C64.7225 42.4734 63.4894 44.287 62.57 46.2557C61.6517 48.2224 61 50.443 61 52.4702L63 52.4702Z" fill="black"/>
</g>
<defs>
<clipPath id="clip0_5726_207820">
<rect width="180" height="180" rx="20" fill="white"/>
</clipPath>
<clipPath id="clip1_5726_207820">
<path d="M0 30L-1.31134e-06 0L30 -1.31134e-06L30 10C30 21.0457 21.0457 30 10 30L0 30Z" fill="white"/>
</clipPath>
</defs>
</svg>
