<svg width="180" height="180" viewBox="0 0 180 180" fill="none" xmlns="http://www.w3.org/2000/svg">
<g clip-path="url(#clip0_5726_207824)">
<rect width="180" height="180" rx="20" fill="#F2F2F2"/>
<g clip-path="url(#clip1_5726_207824)">
<path d="M0 30L-1.31134e-06 0L30 -1.31134e-06L30 10C30 21.0457 21.0457 30 10 30L0 30Z" fill="#333333"/>
<path d="M14.7062 14.008C16.2849 14.008 17.4475 14.3227 18.1942 14.952C18.9515 15.5813 19.3302 16.424 19.3302 17.48C19.3302 18.1627 19.1595 18.7867 18.8182 19.352C18.4769 19.9067 17.9542 20.3547 17.2502 20.696C16.5569 21.0267 15.6982 21.192 14.6742 21.192C13.8849 21.192 13.1062 21.0907 12.3382 20.888C11.5809 20.6747 10.9355 20.376 10.4022 19.992L11.4262 18.008C11.8529 18.328 12.3435 18.5787 12.8982 18.76C13.4529 18.9307 14.0235 19.016 14.6102 19.016C15.2609 19.016 15.7729 18.888 16.1462 18.632C16.5195 18.376 16.7062 18.0187 16.7062 17.56C16.7062 17.08 16.5089 16.7173 16.1142 16.472C15.7302 16.2267 15.0582 16.104 14.0982 16.104H11.2342L11.8102 9.8H18.6422V11.88H13.9702L13.7942 14.008H14.7062Z" fill="#F2F2F2"/>
</g>
<path d="M40.4827 120.6H44.0227C44.9107 120.6 45.6987 120.776 46.3867 121.128C47.0747 121.48 47.6067 121.976 47.9827 122.616C48.3667 123.248 48.5587 123.976 48.5587 124.8C48.5587 125.624 48.3667 126.356 47.9827 126.996C47.6067 127.628 47.0747 128.12 46.3867 128.472C45.6987 128.824 44.9107 129 44.0227 129H40.4827V120.6ZM43.9507 127.956C44.6307 127.956 45.2267 127.824 45.7387 127.56C46.2587 127.296 46.6587 126.928 46.9387 126.456C47.2187 125.976 47.3587 125.424 47.3587 124.8C47.3587 124.176 47.2187 123.628 46.9387 123.156C46.6587 122.676 46.2587 122.304 45.7387 122.04C45.2267 121.776 44.6307 121.644 43.9507 121.644H41.6827V127.956H43.9507ZM52.9527 129.072C52.3207 129.072 51.7527 128.932 51.2487 128.652C50.7447 128.372 50.3487 127.988 50.0607 127.5C49.7807 127.004 49.6407 126.444 49.6407 125.82C49.6407 125.196 49.7807 124.64 50.0607 124.152C50.3487 123.656 50.7447 123.272 51.2487 123C51.7527 122.72 52.3207 122.58 52.9527 122.58C53.5847 122.58 54.1487 122.72 54.6447 123C55.1487 123.272 55.5407 123.656 55.8207 124.152C56.1087 124.64 56.2527 125.196 56.2527 125.82C56.2527 126.444 56.1087 127.004 55.8207 127.5C55.5407 127.988 55.1487 128.372 54.6447 128.652C54.1487 128.932 53.5847 129.072 52.9527 129.072ZM52.9527 128.064C53.3607 128.064 53.7247 127.972 54.0447 127.788C54.3727 127.596 54.6287 127.332 54.8127 126.996C54.9967 126.652 55.0887 126.26 55.0887 125.82C55.0887 125.38 54.9967 124.992 54.8127 124.656C54.6287 124.312 54.3727 124.048 54.0447 123.864C53.7247 123.68 53.3607 123.588 52.9527 123.588C52.5447 123.588 52.1767 123.68 51.8487 123.864C51.5287 124.048 51.2727 124.312 51.0807 124.656C50.8967 124.992 50.8047 125.38 50.8047 125.82C50.8047 126.26 50.8967 126.652 51.0807 126.996C51.2727 127.332 51.5287 127.596 51.8487 127.788C52.1767 127.972 52.5447 128.064 52.9527 128.064ZM61.2179 122.58C61.8339 122.58 62.3859 122.716 62.8739 122.988C63.3619 123.26 63.7419 123.64 64.0139 124.128C64.2939 124.616 64.4339 125.18 64.4339 125.82C64.4339 126.46 64.2939 127.028 64.0139 127.524C63.7419 128.012 63.3619 128.392 62.8739 128.664C62.3859 128.936 61.8339 129.072 61.2179 129.072C60.7459 129.072 60.3139 128.98 59.9219 128.796C59.5299 128.612 59.2059 128.344 58.9499 127.992V129H57.8459V120.096H58.9979V123.6C59.2539 123.264 59.5739 123.012 59.9579 122.844C60.3419 122.668 60.7619 122.58 61.2179 122.58ZM61.1219 128.064C61.5299 128.064 61.8939 127.972 62.2139 127.788C62.5419 127.596 62.7979 127.332 62.9819 126.996C63.1739 126.652 63.2699 126.26 63.2699 125.82C63.2699 125.38 63.1739 124.992 62.9819 124.656C62.7979 124.312 62.5419 124.048 62.2139 123.864C61.8939 123.68 61.5299 123.588 61.1219 123.588C60.7219 123.588 60.3579 123.68 60.0299 123.864C59.7019 124.048 59.4459 124.312 59.2619 124.656C59.0779 124.992 58.9859 125.38 58.9859 125.82C58.9859 126.26 59.0779 126.652 59.2619 126.996C59.4459 127.332 59.7019 127.596 60.0299 127.788C60.3579 127.972 60.7219 128.064 61.1219 128.064ZM66.0256 120.096H67.1776V129H66.0256V120.096ZM71.6932 122.58C72.5732 122.58 73.2452 122.796 73.7092 123.228C74.1812 123.66 74.4172 124.304 74.4172 125.16V129H73.3252V128.16C73.1332 128.456 72.8572 128.684 72.4972 128.844C72.1452 128.996 71.7252 129.072 71.2372 129.072C70.5252 129.072 69.9532 128.9 69.5212 128.556C69.0972 128.212 68.8852 127.76 68.8852 127.2C68.8852 126.64 69.0892 126.192 69.4972 125.856C69.9052 125.512 70.5532 125.34 71.4412 125.34H73.2652V125.112C73.2652 124.616 73.1212 124.236 72.8332 123.972C72.5452 123.708 72.1212 123.576 71.5612 123.576C71.1852 123.576 70.8172 123.64 70.4572 123.768C70.0972 123.888 69.7932 124.052 69.5452 124.26L69.0652 123.396C69.3932 123.132 69.7852 122.932 70.2412 122.796C70.6972 122.652 71.1812 122.58 71.6932 122.58ZM71.4292 128.184C71.8692 128.184 72.2492 128.088 72.5692 127.896C72.8892 127.696 73.1212 127.416 73.2652 127.056V126.168H71.4892C70.5132 126.168 70.0252 126.496 70.0252 127.152C70.0252 127.472 70.1492 127.724 70.3972 127.908C70.6452 128.092 70.9892 128.184 71.4292 128.184ZM79.7717 120.096H80.9237V129H79.7717V120.096ZM85.4393 122.58C86.3193 122.58 86.9913 122.796 87.4553 123.228C87.9273 123.66 88.1633 124.304 88.1633 125.16V129H87.0713V128.16C86.8793 128.456 86.6033 128.684 86.2433 128.844C85.8913 128.996 85.4713 129.072 84.9833 129.072C84.2713 129.072 83.6993 128.9 83.2673 128.556C82.8433 128.212 82.6313 127.76 82.6313 127.2C82.6313 126.64 82.8353 126.192 83.2433 125.856C83.6513 125.512 84.2993 125.34 85.1873 125.34H87.0113V125.112C87.0113 124.616 86.8673 124.236 86.5793 123.972C86.2913 123.708 85.8673 123.576 85.3073 123.576C84.9313 123.576 84.5633 123.64 84.2033 123.768C83.8433 123.888 83.5393 124.052 83.2913 124.26L82.8113 123.396C83.1393 123.132 83.5313 122.932 83.9873 122.796C84.4433 122.652 84.9273 122.58 85.4393 122.58ZM85.1753 128.184C85.6153 128.184 85.9953 128.088 86.3153 127.896C86.6353 127.696 86.8673 127.416 87.0113 127.056V126.168H85.2353C84.2593 126.168 83.7713 126.496 83.7713 127.152C83.7713 127.472 83.8953 127.724 84.1433 127.908C84.3913 128.092 84.7353 128.184 85.1753 128.184ZM99.2658 125.856C99.2658 125.944 99.2578 126.06 99.2418 126.204H94.0818C94.1538 126.764 94.3978 127.216 94.8138 127.56C95.2378 127.896 95.7618 128.064 96.3858 128.064C97.1458 128.064 97.7578 127.808 98.2218 127.296L98.8578 128.04C98.5698 128.376 98.2098 128.632 97.7778 128.808C97.3538 128.984 96.8778 129.072 96.3498 129.072C95.6778 129.072 95.0818 128.936 94.5618 128.664C94.0418 128.384 93.6378 127.996 93.3498 127.5C93.0698 127.004 92.9298 126.444 92.9298 125.82C92.9298 125.204 93.0658 124.648 93.3378 124.152C93.6178 123.656 93.9978 123.272 94.4778 123C94.9658 122.72 95.5138 122.58 96.1218 122.58C96.7298 122.58 97.2698 122.72 97.7418 123C98.2218 123.272 98.5938 123.656 98.8578 124.152C99.1298 124.648 99.2658 125.216 99.2658 125.856ZM96.1218 123.552C95.5698 123.552 95.1058 123.72 94.7298 124.056C94.3618 124.392 94.1458 124.832 94.0818 125.376H98.1618C98.0978 124.84 97.8778 124.404 97.5018 124.068C97.1338 123.724 96.6738 123.552 96.1218 123.552ZM102.689 129.072C102.169 129.072 101.669 129.004 101.189 128.868C100.709 128.724 100.333 128.544 100.061 128.328L100.541 127.416C100.821 127.616 101.161 127.776 101.561 127.896C101.961 128.016 102.365 128.076 102.773 128.076C103.781 128.076 104.285 127.788 104.285 127.212C104.285 127.02 104.217 126.868 104.081 126.756C103.945 126.644 103.773 126.564 103.565 126.516C103.365 126.46 103.077 126.4 102.701 126.336C102.189 126.256 101.769 126.164 101.441 126.06C101.121 125.956 100.845 125.78 100.613 125.532C100.381 125.284 100.265 124.936 100.265 124.488C100.265 123.912 100.505 123.452 100.985 123.108C101.465 122.756 102.109 122.58 102.917 122.58C103.341 122.58 103.765 122.632 104.189 122.736C104.613 122.84 104.961 122.98 105.233 123.156L104.741 124.068C104.221 123.732 103.609 123.564 102.905 123.564C102.417 123.564 102.045 123.644 101.789 123.804C101.533 123.964 101.405 124.176 101.405 124.44C101.405 124.648 101.477 124.812 101.621 124.932C101.765 125.052 101.941 125.14 102.149 125.196C102.365 125.252 102.665 125.316 103.049 125.388C103.561 125.476 103.973 125.572 104.285 125.676C104.605 125.772 104.877 125.94 105.101 126.18C105.325 126.42 105.437 126.756 105.437 127.188C105.437 127.764 105.189 128.224 104.693 128.568C104.205 128.904 103.537 129.072 102.689 129.072ZM112.877 122.64V131.328H111.725V128.04C111.461 128.376 111.137 128.632 110.753 128.808C110.377 128.984 109.961 129.072 109.505 129.072C108.889 129.072 108.337 128.936 107.849 128.664C107.361 128.392 106.977 128.012 106.697 127.524C106.425 127.028 106.289 126.46 106.289 125.82C106.289 125.18 106.425 124.616 106.697 124.128C106.977 123.64 107.361 123.26 107.849 122.988C108.337 122.716 108.889 122.58 109.505 122.58C109.977 122.58 110.409 122.672 110.801 122.856C111.193 123.032 111.517 123.296 111.773 123.648V122.64H112.877ZM109.601 128.064C110.001 128.064 110.365 127.972 110.693 127.788C111.021 127.596 111.277 127.332 111.461 126.996C111.645 126.652 111.737 126.26 111.737 125.82C111.737 125.38 111.641 124.992 111.449 124.656C111.265 124.32 111.009 124.06 110.681 123.876C110.361 123.684 110.001 123.588 109.601 123.588C109.193 123.588 108.825 123.68 108.497 123.864C108.177 124.048 107.921 124.312 107.729 124.656C107.545 124.992 107.453 125.38 107.453 125.82C107.453 126.26 107.545 126.652 107.729 126.996C107.921 127.332 108.177 127.596 108.497 127.788C108.825 127.972 109.193 128.064 109.601 128.064ZM120.985 122.64V129H119.893V128.04C119.661 128.368 119.353 128.624 118.969 128.808C118.593 128.984 118.181 129.072 117.733 129.072C116.885 129.072 116.217 128.84 115.729 128.376C115.241 127.904 114.997 127.212 114.997 126.3V122.64H116.149V126.168C116.149 126.784 116.297 127.252 116.593 127.572C116.889 127.884 117.313 128.04 117.865 128.04C118.473 128.04 118.953 127.856 119.305 127.488C119.657 127.12 119.833 126.6 119.833 125.928V122.64H120.985ZM123.178 122.64H124.33V129H123.178V122.64ZM123.754 121.416C123.53 121.416 123.342 121.344 123.19 121.2C123.046 121.056 122.974 120.88 122.974 120.672C122.974 120.464 123.046 120.288 123.19 120.144C123.342 119.992 123.53 119.916 123.754 119.916C123.978 119.916 124.162 119.988 124.306 120.132C124.458 120.268 124.534 120.44 124.534 120.648C124.534 120.864 124.458 121.048 124.306 121.2C124.162 121.344 123.978 121.416 123.754 121.416ZM129.926 122.58C130.734 122.58 131.374 122.816 131.846 123.288C132.326 123.752 132.566 124.436 132.566 125.34V129H131.414V125.472C131.414 124.856 131.266 124.392 130.97 124.08C130.674 123.768 130.25 123.612 129.698 123.612C129.074 123.612 128.582 123.796 128.222 124.164C127.862 124.524 127.682 125.044 127.682 125.724V129H126.53V122.64H127.634V123.6C127.866 123.272 128.178 123.02 128.57 122.844C128.97 122.668 129.422 122.58 129.926 122.58ZM137.013 122.58C137.893 122.58 138.565 122.796 139.029 123.228C139.501 123.66 139.737 124.304 139.737 125.16V129H138.645V128.16C138.453 128.456 138.177 128.684 137.817 128.844C137.465 128.996 137.045 129.072 136.557 129.072C135.845 129.072 135.273 128.9 134.841 128.556C134.417 128.212 134.205 127.76 134.205 127.2C134.205 126.64 134.409 126.192 134.817 125.856C135.225 125.512 135.873 125.34 136.761 125.34H138.585V125.112C138.585 124.616 138.441 124.236 138.153 123.972C137.865 123.708 137.441 123.576 136.881 123.576C136.505 123.576 136.137 123.64 135.777 123.768C135.417 123.888 135.113 124.052 134.865 124.26L134.385 123.396C134.713 123.132 135.105 122.932 135.561 122.796C136.017 122.652 136.501 122.58 137.013 122.58ZM136.749 128.184C137.189 128.184 137.569 128.088 137.889 127.896C138.209 127.696 138.441 127.416 138.585 127.056V126.168H136.809C135.833 126.168 135.345 126.496 135.345 127.152C135.345 127.472 135.469 127.724 135.717 127.908C135.965 128.092 136.309 128.184 136.749 128.184ZM26.5041 137.64H27.6561V144H26.5041V137.64ZM27.0801 136.416C26.8561 136.416 26.6681 136.344 26.5161 136.2C26.3721 136.056 26.3001 135.88 26.3001 135.672C26.3001 135.464 26.3721 135.288 26.5161 135.144C26.6681 134.992 26.8561 134.916 27.0801 134.916C27.3041 134.916 27.4881 134.988 27.6321 135.132C27.7841 135.268 27.8601 135.44 27.8601 135.648C27.8601 135.864 27.7841 136.048 27.6321 136.2C27.4881 136.344 27.3041 136.416 27.0801 136.416ZM33.2517 137.58C34.0597 137.58 34.6997 137.816 35.1717 138.288C35.6517 138.752 35.8917 139.436 35.8917 140.34V144H34.7397V140.472C34.7397 139.856 34.5917 139.392 34.2957 139.08C33.9997 138.768 33.5757 138.612 33.0237 138.612C32.3997 138.612 31.9077 138.796 31.5477 139.164C31.1877 139.524 31.0077 140.044 31.0077 140.724V144H29.8557V137.64H30.9597V138.6C31.1917 138.272 31.5037 138.02 31.8957 137.844C32.2957 137.668 32.7477 137.58 33.2517 137.58ZM40.3516 135.972C39.6636 135.972 39.3196 136.344 39.3196 137.088V137.64H41.1676V138.588H39.3436V144H38.1916V138.588H37.1116V137.64H38.1916V137.076C38.1916 136.444 38.3756 135.944 38.7436 135.576C39.1116 135.208 39.6276 135.024 40.2916 135.024C40.5476 135.024 40.7876 135.056 41.0116 135.12C41.2356 135.184 41.4276 135.276 41.5876 135.396L41.2396 136.272C40.9756 136.072 40.6796 135.972 40.3516 135.972ZM47.9084 140.856C47.9084 140.944 47.9004 141.06 47.8844 141.204H42.7244C42.7964 141.764 43.0404 142.216 43.4564 142.56C43.8804 142.896 44.4044 143.064 45.0284 143.064C45.7884 143.064 46.4004 142.808 46.8644 142.296L47.5004 143.04C47.2124 143.376 46.8524 143.632 46.4204 143.808C45.9964 143.984 45.5204 144.072 44.9924 144.072C44.3204 144.072 43.7244 143.936 43.2044 143.664C42.6844 143.384 42.2804 142.996 41.9924 142.5C41.7124 142.004 41.5724 141.444 41.5724 140.82C41.5724 140.204 41.7084 139.648 41.9804 139.152C42.2604 138.656 42.6404 138.272 43.1204 138C43.6084 137.72 44.1564 137.58 44.7644 137.58C45.3724 137.58 45.9124 137.72 46.3844 138C46.8644 138.272 47.2364 138.656 47.5004 139.152C47.7724 139.648 47.9084 140.216 47.9084 140.856ZM44.7644 138.552C44.2124 138.552 43.7484 138.72 43.3724 139.056C43.0044 139.392 42.7884 139.832 42.7244 140.376H46.8044C46.7404 139.84 46.5204 139.404 46.1444 139.068C45.7764 138.724 45.3164 138.552 44.7644 138.552ZM50.612 138.708C50.812 138.34 51.108 138.06 51.5 137.868C51.892 137.676 52.368 137.58 52.928 137.58V138.696C52.864 138.688 52.776 138.684 52.664 138.684C52.04 138.684 51.548 138.872 51.188 139.248C50.836 139.616 50.66 140.144 50.66 140.832V144H49.508V137.64H50.612V138.708ZM54.3479 137.64H55.4999V144H54.3479V137.64ZM54.9239 136.416C54.6999 136.416 54.5119 136.344 54.3599 136.2C54.2159 136.056 54.1439 135.88 54.1439 135.672C54.1439 135.464 54.2159 135.288 54.3599 135.144C54.5119 134.992 54.6999 134.916 54.9239 134.916C55.1479 134.916 55.3319 134.988 55.4759 135.132C55.6279 135.268 55.7039 135.44 55.7039 135.648C55.7039 135.864 55.6279 136.048 55.4759 136.2C55.3319 136.344 55.1479 136.416 54.9239 136.416ZM60.4234 144.072C59.7914 144.072 59.2234 143.932 58.7194 143.652C58.2154 143.372 57.8194 142.988 57.5314 142.5C57.2514 142.004 57.1114 141.444 57.1114 140.82C57.1114 140.196 57.2514 139.64 57.5314 139.152C57.8194 138.656 58.2154 138.272 58.7194 138C59.2234 137.72 59.7914 137.58 60.4234 137.58C61.0554 137.58 61.6194 137.72 62.1154 138C62.6194 138.272 63.0114 138.656 63.2914 139.152C63.5794 139.64 63.7234 140.196 63.7234 140.82C63.7234 141.444 63.5794 142.004 63.2914 142.5C63.0114 142.988 62.6194 143.372 62.1154 143.652C61.6194 143.932 61.0554 144.072 60.4234 144.072ZM60.4234 143.064C60.8314 143.064 61.1954 142.972 61.5154 142.788C61.8434 142.596 62.0994 142.332 62.2834 141.996C62.4674 141.652 62.5594 141.26 62.5594 140.82C62.5594 140.38 62.4674 139.992 62.2834 139.656C62.0994 139.312 61.8434 139.048 61.5154 138.864C61.1954 138.68 60.8314 138.588 60.4234 138.588C60.0154 138.588 59.6474 138.68 59.3194 138.864C58.9994 139.048 58.7434 139.312 58.5514 139.656C58.3674 139.992 58.2754 140.38 58.2754 140.82C58.2754 141.26 58.3674 141.652 58.5514 141.996C58.7434 142.332 58.9994 142.596 59.3194 142.788C59.6474 142.972 60.0154 143.064 60.4234 143.064ZM66.4206 138.708C66.6206 138.34 66.9166 138.06 67.3086 137.868C67.7006 137.676 68.1766 137.58 68.7366 137.58V138.696C68.6726 138.688 68.5846 138.684 68.4726 138.684C67.8486 138.684 67.3566 138.872 66.9966 139.248C66.6446 139.616 66.4686 140.144 66.4686 140.832V144H65.3166V137.64H66.4206V138.708ZM76.8571 137.58C77.6651 137.58 78.3051 137.816 78.7771 138.288C79.2571 138.752 79.4971 139.436 79.4971 140.34V144H78.3451V140.472C78.3451 139.856 78.1971 139.392 77.9011 139.08C77.6051 138.768 77.1811 138.612 76.6291 138.612C76.0051 138.612 75.5131 138.796 75.1531 139.164C74.7931 139.524 74.6131 140.044 74.6131 140.724V144H73.4611V135.096H74.6131V138.54C74.8531 138.236 75.1651 138 75.5491 137.832C75.9411 137.664 76.3771 137.58 76.8571 137.58ZM83.9451 137.58C84.8251 137.58 85.4971 137.796 85.9611 138.228C86.4331 138.66 86.6691 139.304 86.6691 140.16V144H85.5771V143.16C85.3851 143.456 85.1091 143.684 84.7491 143.844C84.3971 143.996 83.9771 144.072 83.4891 144.072C82.7771 144.072 82.2051 143.9 81.7731 143.556C81.3491 143.212 81.1371 142.76 81.1371 142.2C81.1371 141.64 81.3411 141.192 81.7491 140.856C82.1571 140.512 82.8051 140.34 83.6931 140.34H85.5171V140.112C85.5171 139.616 85.3731 139.236 85.0851 138.972C84.7971 138.708 84.3731 138.576 83.8131 138.576C83.4371 138.576 83.0691 138.64 82.7091 138.768C82.3491 138.888 82.0451 139.052 81.7971 139.26L81.3171 138.396C81.6451 138.132 82.0371 137.932 82.4931 137.796C82.9491 137.652 83.4331 137.58 83.9451 137.58ZM83.6811 143.184C84.1211 143.184 84.5011 143.088 84.8211 142.896C85.1411 142.696 85.3731 142.416 85.5171 142.056V141.168H83.7411C82.7651 141.168 82.2771 141.496 82.2771 142.152C82.2771 142.472 82.4011 142.724 82.6491 142.908C82.8971 143.092 83.2411 143.184 83.6811 143.184ZM91.6081 144.072C90.9601 144.072 90.3801 143.932 89.8681 143.652C89.3641 143.372 88.9681 142.988 88.6801 142.5C88.3921 142.004 88.2481 141.444 88.2481 140.82C88.2481 140.196 88.3921 139.64 88.6801 139.152C88.9681 138.656 89.3641 138.272 89.8681 138C90.3801 137.72 90.9601 137.58 91.6081 137.58C92.1841 137.58 92.6961 137.696 93.1441 137.928C93.6001 138.16 93.9521 138.496 94.2001 138.936L93.3241 139.5C93.1241 139.196 92.8761 138.968 92.5801 138.816C92.2841 138.664 91.9561 138.588 91.5961 138.588C91.1801 138.588 90.8041 138.68 90.4681 138.864C90.1401 139.048 89.8801 139.312 89.6881 139.656C89.5041 139.992 89.4121 140.38 89.4121 140.82C89.4121 141.268 89.5041 141.664 89.6881 142.008C89.8801 142.344 90.1401 142.604 90.4681 142.788C90.8041 142.972 91.1801 143.064 91.5961 143.064C91.9561 143.064 92.2841 142.988 92.5801 142.836C92.8761 142.684 93.1241 142.456 93.3241 142.152L94.2001 142.704C93.9521 143.144 93.6001 143.484 93.1441 143.724C92.6961 143.956 92.1841 144.072 91.6081 144.072ZM95.6916 137.64H96.8436V144H95.6916V137.64ZM96.2676 136.416C96.0436 136.416 95.8556 136.344 95.7036 136.2C95.5596 136.056 95.4876 135.88 95.4876 135.672C95.4876 135.464 95.5596 135.288 95.7036 135.144C95.8556 134.992 96.0436 134.916 96.2676 134.916C96.4916 134.916 96.6756 134.988 96.8196 135.132C96.9716 135.268 97.0476 135.44 97.0476 135.648C97.0476 135.864 96.9716 136.048 96.8196 136.2C96.6756 136.344 96.4916 136.416 96.2676 136.416ZM101.359 137.58C102.239 137.58 102.911 137.796 103.375 138.228C103.847 138.66 104.083 139.304 104.083 140.16V144H102.991V143.16C102.799 143.456 102.523 143.684 102.163 143.844C101.811 143.996 101.391 144.072 100.903 144.072C100.191 144.072 99.6192 143.9 99.1872 143.556C98.7632 143.212 98.5512 142.76 98.5512 142.2C98.5512 141.64 98.7552 141.192 99.1632 140.856C99.5712 140.512 100.219 140.34 101.107 140.34H102.931V140.112C102.931 139.616 102.787 139.236 102.499 138.972C102.211 138.708 101.787 138.576 101.227 138.576C100.851 138.576 100.483 138.64 100.123 138.768C99.7632 138.888 99.4592 139.052 99.2112 139.26L98.7312 138.396C99.0592 138.132 99.4512 137.932 99.9072 137.796C100.363 137.652 100.847 137.58 101.359 137.58ZM101.095 143.184C101.535 143.184 101.915 143.088 102.235 142.896C102.555 142.696 102.787 142.416 102.931 142.056V141.168H101.155C100.179 141.168 99.6912 141.496 99.6912 142.152C99.6912 142.472 99.8152 142.724 100.063 142.908C100.311 143.092 100.655 143.184 101.095 143.184ZM109.438 135.096H110.59V144H109.438V135.096ZM115.105 137.58C115.985 137.58 116.657 137.796 117.121 138.228C117.593 138.66 117.829 139.304 117.829 140.16V144H116.737V143.16C116.545 143.456 116.269 143.684 115.909 143.844C115.557 143.996 115.137 144.072 114.649 144.072C113.937 144.072 113.365 143.9 112.933 143.556C112.509 143.212 112.297 142.76 112.297 142.2C112.297 141.64 112.501 141.192 112.909 140.856C113.317 140.512 113.965 140.34 114.853 140.34H116.677V140.112C116.677 139.616 116.533 139.236 116.245 138.972C115.957 138.708 115.533 138.576 114.973 138.576C114.597 138.576 114.229 138.64 113.869 138.768C113.509 138.888 113.205 139.052 112.957 139.26L112.477 138.396C112.805 138.132 113.197 137.932 113.653 137.796C114.109 137.652 114.593 137.58 115.105 137.58ZM114.841 143.184C115.281 143.184 115.661 143.088 115.981 142.896C116.301 142.696 116.533 142.416 116.677 142.056V141.168H114.901C113.925 141.168 113.437 141.496 113.437 142.152C113.437 142.472 113.561 142.724 113.809 142.908C114.057 143.092 114.401 143.184 114.841 143.184ZM126.556 137.58C127.172 137.58 127.724 137.716 128.212 137.988C128.7 138.26 129.08 138.64 129.352 139.128C129.632 139.616 129.772 140.18 129.772 140.82C129.772 141.46 129.632 142.028 129.352 142.524C129.08 143.012 128.7 143.392 128.212 143.664C127.724 143.936 127.172 144.072 126.556 144.072C126.1 144.072 125.68 143.984 125.296 143.808C124.92 143.632 124.6 143.376 124.336 143.04V146.328H123.184V137.64H124.288V138.648C124.544 138.296 124.868 138.032 125.26 137.856C125.652 137.672 126.084 137.58 126.556 137.58ZM126.46 143.064C126.868 143.064 127.232 142.972 127.552 142.788C127.88 142.596 128.136 142.332 128.32 141.996C128.512 141.652 128.608 141.26 128.608 140.82C128.608 140.38 128.512 139.992 128.32 139.656C128.136 139.312 127.88 139.048 127.552 138.864C127.232 138.68 126.868 138.588 126.46 138.588C126.06 138.588 125.696 138.684 125.368 138.876C125.048 139.06 124.792 139.32 124.6 139.656C124.416 139.992 124.324 140.38 124.324 140.82C124.324 141.26 124.416 141.652 124.6 141.996C124.784 142.332 125.04 142.596 125.368 142.788C125.696 142.972 126.06 143.064 126.46 143.064ZM133.621 137.58C134.501 137.58 135.173 137.796 135.637 138.228C136.109 138.66 136.345 139.304 136.345 140.16V144H135.253V143.16C135.061 143.456 134.785 143.684 134.425 143.844C134.073 143.996 133.653 144.072 133.165 144.072C132.453 144.072 131.881 143.9 131.449 143.556C131.025 143.212 130.813 142.76 130.813 142.2C130.813 141.64 131.017 141.192 131.425 140.856C131.833 140.512 132.481 140.34 133.369 140.34H135.193V140.112C135.193 139.616 135.049 139.236 134.761 138.972C134.473 138.708 134.049 138.576 133.489 138.576C133.113 138.576 132.745 138.64 132.385 138.768C132.025 138.888 131.721 139.052 131.473 139.26L130.993 138.396C131.321 138.132 131.713 137.932 132.169 137.796C132.625 137.652 133.109 137.58 133.621 137.58ZM133.357 143.184C133.797 143.184 134.177 143.088 134.497 142.896C134.817 142.696 135.049 142.416 135.193 142.056V141.168H133.417C132.441 141.168 131.953 141.496 131.953 142.152C131.953 142.472 132.077 142.724 132.325 142.908C132.573 143.092 132.917 143.184 133.357 143.184ZM139.581 138.708C139.781 138.34 140.077 138.06 140.469 137.868C140.861 137.676 141.337 137.58 141.897 137.58V138.696C141.833 138.688 141.745 138.684 141.633 138.684C141.009 138.684 140.517 138.872 140.157 139.248C139.805 139.616 139.629 140.144 139.629 140.832V144H138.477V137.64H139.581V138.708ZM147.15 143.628C146.982 143.772 146.774 143.884 146.526 143.964C146.278 144.036 146.022 144.072 145.758 144.072C145.118 144.072 144.622 143.9 144.27 143.556C143.918 143.212 143.742 142.72 143.742 142.08V138.588H142.662V137.64H143.742V136.248H144.894V137.64H146.718V138.588H144.894V142.032C144.894 142.376 144.978 142.64 145.146 142.824C145.322 143.008 145.57 143.1 145.89 143.1C146.242 143.1 146.542 143 146.79 142.8L147.15 143.628ZM154.08 140.856C154.08 140.944 154.072 141.06 154.056 141.204H148.896C148.968 141.764 149.212 142.216 149.628 142.56C150.052 142.896 150.576 143.064 151.2 143.064C151.96 143.064 152.572 142.808 153.036 142.296L153.672 143.04C153.384 143.376 153.024 143.632 152.592 143.808C152.168 143.984 151.692 144.072 151.164 144.072C150.492 144.072 149.896 143.936 149.376 143.664C148.856 143.384 148.452 142.996 148.164 142.5C147.884 142.004 147.744 141.444 147.744 140.82C147.744 140.204 147.88 139.648 148.152 139.152C148.432 138.656 148.812 138.272 149.292 138C149.78 137.72 150.328 137.58 150.936 137.58C151.544 137.58 152.084 137.72 152.556 138C153.036 138.272 153.408 138.656 153.672 139.152C153.944 139.648 154.08 140.216 154.08 140.856ZM150.936 138.552C150.384 138.552 149.92 138.72 149.544 139.056C149.176 139.392 148.96 139.832 148.896 140.376H152.976C152.912 139.84 152.692 139.404 152.316 139.068C151.948 138.724 151.488 138.552 150.936 138.552ZM25.9299 150.096V159H24.8259V157.992C24.5699 158.344 24.2459 158.612 23.8539 158.796C23.4619 158.98 23.0299 159.072 22.5579 159.072C21.9419 159.072 21.3899 158.936 20.9019 158.664C20.4139 158.392 20.0299 158.012 19.7499 157.524C19.4779 157.028 19.3419 156.46 19.3419 155.82C19.3419 155.18 19.4779 154.616 19.7499 154.128C20.0299 153.64 20.4139 153.26 20.9019 152.988C21.3899 152.716 21.9419 152.58 22.5579 152.58C23.0139 152.58 23.4339 152.668 23.8179 152.844C24.2019 153.012 24.5219 153.264 24.7779 153.6V150.096H25.9299ZM22.6539 158.064C23.0539 158.064 23.4179 157.972 23.7459 157.788C24.0739 157.596 24.3299 157.332 24.5139 156.996C24.6979 156.652 24.7899 156.26 24.7899 155.82C24.7899 155.38 24.6979 154.992 24.5139 154.656C24.3299 154.312 24.0739 154.048 23.7459 153.864C23.4179 153.68 23.0539 153.588 22.6539 153.588C22.2459 153.588 21.8779 153.68 21.5499 153.864C21.2299 154.048 20.9739 154.312 20.7819 154.656C20.5979 154.992 20.5059 155.38 20.5059 155.82C20.5059 156.26 20.5979 156.652 20.7819 156.996C20.9739 157.332 21.2299 157.596 21.5499 157.788C21.8779 157.972 22.2459 158.064 22.6539 158.064ZM33.8576 155.856C33.8576 155.944 33.8496 156.06 33.8336 156.204H28.6736C28.7456 156.764 28.9896 157.216 29.4056 157.56C29.8296 157.896 30.3536 158.064 30.9776 158.064C31.7376 158.064 32.3496 157.808 32.8136 157.296L33.4496 158.04C33.1616 158.376 32.8016 158.632 32.3696 158.808C31.9456 158.984 31.4696 159.072 30.9416 159.072C30.2696 159.072 29.6736 158.936 29.1536 158.664C28.6336 158.384 28.2296 157.996 27.9416 157.5C27.6616 157.004 27.5216 156.444 27.5216 155.82C27.5216 155.204 27.6576 154.648 27.9296 154.152C28.2096 153.656 28.5896 153.272 29.0696 153C29.5576 152.72 30.1056 152.58 30.7136 152.58C31.3216 152.58 31.8616 152.72 32.3336 153C32.8136 153.272 33.1856 153.656 33.4496 154.152C33.7216 154.648 33.8576 155.216 33.8576 155.856ZM30.7136 153.552C30.1616 153.552 29.6976 153.72 29.3216 154.056C28.9536 154.392 28.7376 154.832 28.6736 155.376H32.7536C32.6896 154.84 32.4696 154.404 32.0936 154.068C31.7256 153.724 31.2656 153.552 30.7136 153.552ZM40.9959 152.58C41.8759 152.58 42.5479 152.796 43.0119 153.228C43.4839 153.66 43.7199 154.304 43.7199 155.16V159H42.6279V158.16C42.4359 158.456 42.1599 158.684 41.7999 158.844C41.4479 158.996 41.0279 159.072 40.5399 159.072C39.8279 159.072 39.2559 158.9 38.8239 158.556C38.3999 158.212 38.1879 157.76 38.1879 157.2C38.1879 156.64 38.3919 156.192 38.7999 155.856C39.2079 155.512 39.8559 155.34 40.7439 155.34H42.5679V155.112C42.5679 154.616 42.4239 154.236 42.1359 153.972C41.8479 153.708 41.4239 153.576 40.8639 153.576C40.4879 153.576 40.1199 153.64 39.7599 153.768C39.3999 153.888 39.0959 154.052 38.8479 154.26L38.3679 153.396C38.6959 153.132 39.0879 152.932 39.5439 152.796C39.9999 152.652 40.4839 152.58 40.9959 152.58ZM40.7319 158.184C41.1719 158.184 41.5519 158.088 41.8719 157.896C42.1919 157.696 42.4239 157.416 42.5679 157.056V156.168H40.7919C39.8159 156.168 39.3279 156.496 39.3279 157.152C39.3279 157.472 39.4519 157.724 39.6999 157.908C39.9479 158.092 40.2919 158.184 40.7319 158.184ZM49.4278 158.628C49.2598 158.772 49.0518 158.884 48.8038 158.964C48.5558 159.036 48.2998 159.072 48.0358 159.072C47.3958 159.072 46.8998 158.9 46.5478 158.556C46.1958 158.212 46.0198 157.72 46.0198 157.08V153.588H44.9398V152.64H46.0198V151.248H47.1718V152.64H48.9958V153.588H47.1718V157.032C47.1718 157.376 47.2558 157.64 47.4238 157.824C47.5998 158.008 47.8478 158.1 48.1678 158.1C48.5198 158.1 48.8198 158 49.0678 157.8L49.4278 158.628ZM51.9245 153.708C52.1245 153.34 52.4205 153.06 52.8125 152.868C53.2045 152.676 53.6805 152.58 54.2405 152.58V153.696C54.1765 153.688 54.0885 153.684 53.9765 153.684C53.3525 153.684 52.8605 153.872 52.5005 154.248C52.1485 154.616 51.9725 155.144 51.9725 155.832V159H50.8205V152.64H51.9245V153.708ZM57.9646 152.58C58.8446 152.58 59.5166 152.796 59.9806 153.228C60.4526 153.66 60.6886 154.304 60.6886 155.16V159H59.5966V158.16C59.4046 158.456 59.1286 158.684 58.7686 158.844C58.4166 158.996 57.9966 159.072 57.5086 159.072C56.7966 159.072 56.2246 158.9 55.7926 158.556C55.3686 158.212 55.1566 157.76 55.1566 157.2C55.1566 156.64 55.3606 156.192 55.7686 155.856C56.1766 155.512 56.8246 155.34 57.7126 155.34H59.5366V155.112C59.5366 154.616 59.3926 154.236 59.1046 153.972C58.8166 153.708 58.3926 153.576 57.8326 153.576C57.4566 153.576 57.0886 153.64 56.7286 153.768C56.3686 153.888 56.0646 154.052 55.8166 154.26L55.3366 153.396C55.6646 153.132 56.0566 152.932 56.5126 152.796C56.9686 152.652 57.4526 152.58 57.9646 152.58ZM57.7006 158.184C58.1406 158.184 58.5206 158.088 58.8406 157.896C59.1606 157.696 59.3926 157.416 59.5366 157.056V156.168H57.7606C56.7846 156.168 56.2966 156.496 56.2966 157.152C56.2966 157.472 56.4206 157.724 56.6686 157.908C56.9166 158.092 57.2606 158.184 57.7006 158.184ZM58.7806 150.156H60.2446L58.2286 151.716H57.1486L58.7806 150.156ZM64.6445 159.072C64.1245 159.072 63.6245 159.004 63.1445 158.868C62.6645 158.724 62.2885 158.544 62.0165 158.328L62.4965 157.416C62.7765 157.616 63.1165 157.776 63.5165 157.896C63.9165 158.016 64.3205 158.076 64.7285 158.076C65.7365 158.076 66.2405 157.788 66.2405 157.212C66.2405 157.02 66.1725 156.868 66.0365 156.756C65.9005 156.644 65.7285 156.564 65.5205 156.516C65.3205 156.46 65.0325 156.4 64.6565 156.336C64.1445 156.256 63.7245 156.164 63.3965 156.06C63.0765 155.956 62.8005 155.78 62.5685 155.532C62.3365 155.284 62.2205 154.936 62.2205 154.488C62.2205 153.912 62.4605 153.452 62.9405 153.108C63.4205 152.756 64.0645 152.58 64.8725 152.58C65.2965 152.58 65.7205 152.632 66.1445 152.736C66.5685 152.84 66.9165 152.98 67.1885 153.156L66.6965 154.068C66.1765 153.732 65.5645 153.564 64.8605 153.564C64.3725 153.564 64.0005 153.644 63.7445 153.804C63.4885 153.964 63.3605 154.176 63.3605 154.44C63.3605 154.648 63.4325 154.812 63.5765 154.932C63.7205 155.052 63.8965 155.14 64.1045 155.196C64.3205 155.252 64.6205 155.316 65.0045 155.388C65.5165 155.476 65.9285 155.572 66.2405 155.676C66.5605 155.772 66.8325 155.94 67.0565 156.18C67.2805 156.42 67.3925 156.756 67.3925 157.188C67.3925 157.764 67.1445 158.224 66.6485 158.568C66.1605 158.904 65.4925 159.072 64.6445 159.072ZM77.6829 152.64L74.5989 159.636C74.3269 160.284 74.0069 160.74 73.6389 161.004C73.2789 161.268 72.8429 161.4 72.3309 161.4C72.0189 161.4 71.7149 161.348 71.4189 161.244C71.1309 161.148 70.8909 161.004 70.6989 160.812L71.1909 159.948C71.5189 160.26 71.8989 160.416 72.3309 160.416C72.6109 160.416 72.8429 160.34 73.0269 160.188C73.2189 160.044 73.3909 159.792 73.5429 159.432L73.7469 158.988L70.9389 152.64H72.1389L74.3589 157.728L76.5549 152.64H77.6829ZM88.0647 152.64V158.136C88.0647 159.248 87.7887 160.068 87.2367 160.596C86.6847 161.132 85.8607 161.4 84.7647 161.4C84.1647 161.4 83.5927 161.316 83.0487 161.148C82.5047 160.988 82.0647 160.756 81.7287 160.452L82.2807 159.564C82.5767 159.82 82.9407 160.02 83.3727 160.164C83.8127 160.316 84.2647 160.392 84.7287 160.392C85.4727 160.392 86.0207 160.216 86.3727 159.864C86.7327 159.512 86.9127 158.976 86.9127 158.256V157.752C86.6407 158.08 86.3047 158.328 85.9047 158.496C85.5127 158.656 85.0847 158.736 84.6207 158.736C84.0127 158.736 83.4607 158.608 82.9647 158.352C82.4767 158.088 82.0927 157.724 81.8127 157.26C81.5327 156.788 81.3927 156.252 81.3927 155.652C81.3927 155.052 81.5327 154.52 81.8127 154.056C82.0927 153.584 82.4767 153.22 82.9647 152.964C83.4607 152.708 84.0127 152.58 84.6207 152.58C85.1007 152.58 85.5447 152.668 85.9527 152.844C86.3687 153.02 86.7087 153.28 86.9727 153.624V152.64H88.0647ZM84.7527 157.728C85.1687 157.728 85.5407 157.64 85.8687 157.464C86.2047 157.288 86.4647 157.044 86.6487 156.732C86.8407 156.412 86.9367 156.052 86.9367 155.652C86.9367 155.036 86.7327 154.54 86.3247 154.164C85.9167 153.78 85.3927 153.588 84.7527 153.588C84.1047 153.588 83.5767 153.78 83.1687 154.164C82.7607 154.54 82.5567 155.036 82.5567 155.652C82.5567 156.052 82.6487 156.412 82.8327 156.732C83.0247 157.044 83.2847 157.288 83.6127 157.464C83.9487 157.64 84.3287 157.728 84.7527 157.728ZM90.2658 152.64H91.4178V159H90.2658V152.64ZM90.8418 151.416C90.6178 151.416 90.4298 151.344 90.2778 151.2C90.1338 151.056 90.0618 150.88 90.0618 150.672C90.0618 150.464 90.1338 150.288 90.2778 150.144C90.4298 149.992 90.6178 149.916 90.8418 149.916C91.0658 149.916 91.2498 149.988 91.3938 150.132C91.5458 150.268 91.6218 150.44 91.6218 150.648C91.6218 150.864 91.5458 151.048 91.3938 151.2C91.2498 151.344 91.0658 151.416 90.8418 151.416ZM94.7214 153.708C94.9214 153.34 95.2174 153.06 95.6094 152.868C96.0014 152.676 96.4774 152.58 97.0374 152.58V153.696C96.9734 153.688 96.8854 153.684 96.7734 153.684C96.1494 153.684 95.6574 153.872 95.2974 154.248C94.9454 154.616 94.7694 155.144 94.7694 155.832V159H93.6174V152.64H94.7214V153.708ZM100.762 152.58C101.642 152.58 102.314 152.796 102.778 153.228C103.25 153.66 103.486 154.304 103.486 155.16V159H102.394V158.16C102.202 158.456 101.926 158.684 101.566 158.844C101.214 158.996 100.794 159.072 100.306 159.072C99.5935 159.072 99.0215 158.9 98.5895 158.556C98.1655 158.212 97.9535 157.76 97.9535 157.2C97.9535 156.64 98.1575 156.192 98.5655 155.856C98.9735 155.512 99.6215 155.34 100.51 155.34H102.334V155.112C102.334 154.616 102.19 154.236 101.902 153.972C101.614 153.708 101.19 153.576 100.63 153.576C100.254 153.576 99.8855 153.64 99.5255 153.768C99.1655 153.888 98.8615 154.052 98.6135 154.26L98.1335 153.396C98.4615 153.132 98.8535 152.932 99.3095 152.796C99.7655 152.652 100.25 152.58 100.762 152.58ZM100.498 158.184C100.938 158.184 101.318 158.088 101.638 157.896C101.958 157.696 102.19 157.416 102.334 157.056V156.168H100.558C99.5815 156.168 99.0935 156.496 99.0935 157.152C99.0935 157.472 99.2175 157.724 99.4655 157.908C99.7135 158.092 100.058 158.184 100.498 158.184ZM108.84 150.096H109.992V159H108.84V150.096ZM114.508 152.58C115.388 152.58 116.06 152.796 116.524 153.228C116.996 153.66 117.232 154.304 117.232 155.16V159H116.14V158.16C115.948 158.456 115.672 158.684 115.312 158.844C114.96 158.996 114.54 159.072 114.052 159.072C113.34 159.072 112.768 158.9 112.336 158.556C111.912 158.212 111.7 157.76 111.7 157.2C111.7 156.64 111.904 156.192 112.312 155.856C112.72 155.512 113.368 155.34 114.256 155.34H116.08V155.112C116.08 154.616 115.936 154.236 115.648 153.972C115.36 153.708 114.936 153.576 114.376 153.576C114 153.576 113.632 153.64 113.272 153.768C112.912 153.888 112.608 154.052 112.36 154.26L111.88 153.396C112.208 153.132 112.6 152.932 113.056 152.796C113.512 152.652 113.996 152.58 114.508 152.58ZM114.244 158.184C114.684 158.184 115.064 158.088 115.384 157.896C115.704 157.696 115.936 157.416 116.08 157.056V156.168H114.304C113.328 156.168 112.84 156.496 112.84 157.152C112.84 157.472 112.964 157.724 113.212 157.908C113.46 158.092 113.804 158.184 114.244 158.184ZM124.914 150.972C124.226 150.972 123.882 151.344 123.882 152.088V152.64H125.73V153.588H123.906V159H122.754V153.588H121.674V152.64H122.754V152.076C122.754 151.444 122.938 150.944 123.306 150.576C123.674 150.208 124.19 150.024 124.854 150.024C125.11 150.024 125.35 150.056 125.574 150.12C125.798 150.184 125.99 150.276 126.15 150.396L125.802 151.272C125.538 151.072 125.242 150.972 124.914 150.972ZM127.782 152.64H128.934V159H127.782V152.64ZM128.358 151.416C128.134 151.416 127.946 151.344 127.794 151.2C127.65 151.056 127.578 150.88 127.578 150.672C127.578 150.464 127.65 150.288 127.794 150.144C127.946 149.992 128.134 149.916 128.358 149.916C128.582 149.916 128.766 149.988 128.91 150.132C129.062 150.268 129.138 150.44 129.138 150.648C129.138 150.864 129.062 151.048 128.91 151.2C128.766 151.344 128.582 151.416 128.358 151.416ZM137.213 152.64V158.136C137.213 159.248 136.937 160.068 136.385 160.596C135.833 161.132 135.009 161.4 133.913 161.4C133.313 161.4 132.741 161.316 132.197 161.148C131.653 160.988 131.213 160.756 130.877 160.452L131.429 159.564C131.725 159.82 132.089 160.02 132.521 160.164C132.961 160.316 133.413 160.392 133.877 160.392C134.621 160.392 135.169 160.216 135.521 159.864C135.881 159.512 136.061 158.976 136.061 158.256V157.752C135.789 158.08 135.453 158.328 135.053 158.496C134.661 158.656 134.233 158.736 133.769 158.736C133.161 158.736 132.609 158.608 132.113 158.352C131.625 158.088 131.241 157.724 130.961 157.26C130.681 156.788 130.541 156.252 130.541 155.652C130.541 155.052 130.681 154.52 130.961 154.056C131.241 153.584 131.625 153.22 132.113 152.964C132.609 152.708 133.161 152.58 133.769 152.58C134.249 152.58 134.693 152.668 135.101 152.844C135.517 153.02 135.857 153.28 136.121 153.624V152.64H137.213ZM133.901 157.728C134.317 157.728 134.689 157.64 135.017 157.464C135.353 157.288 135.613 157.044 135.797 156.732C135.989 156.412 136.085 156.052 136.085 155.652C136.085 155.036 135.881 154.54 135.473 154.164C135.065 153.78 134.541 153.588 133.901 153.588C133.253 153.588 132.725 153.78 132.317 154.164C131.909 154.54 131.705 155.036 131.705 155.652C131.705 156.052 131.797 156.412 131.981 156.732C132.173 157.044 132.433 157.288 132.761 157.464C133.097 157.64 133.477 157.728 133.901 157.728ZM145.342 152.64V159H144.25V158.04C144.018 158.368 143.71 158.624 143.326 158.808C142.95 158.984 142.538 159.072 142.09 159.072C141.242 159.072 140.574 158.84 140.086 158.376C139.598 157.904 139.354 157.212 139.354 156.3V152.64H140.506V156.168C140.506 156.784 140.654 157.252 140.95 157.572C141.246 157.884 141.67 158.04 142.222 158.04C142.83 158.04 143.31 157.856 143.662 157.488C144.014 157.12 144.19 156.6 144.19 155.928V152.64H145.342ZM148.639 153.708C148.839 153.34 149.135 153.06 149.527 152.868C149.919 152.676 150.395 152.58 150.955 152.58V153.696C150.891 153.688 150.803 153.684 150.691 153.684C150.067 153.684 149.575 153.872 149.215 154.248C148.863 154.616 148.687 155.144 148.687 155.832V159H147.535V152.64H148.639V153.708ZM154.679 152.58C155.559 152.58 156.231 152.796 156.695 153.228C157.167 153.66 157.403 154.304 157.403 155.16V159H156.311V158.16C156.119 158.456 155.843 158.684 155.483 158.844C155.131 158.996 154.711 159.072 154.223 159.072C153.511 159.072 152.939 158.9 152.507 158.556C152.083 158.212 151.871 157.76 151.871 157.2C151.871 156.64 152.075 156.192 152.483 155.856C152.891 155.512 153.539 155.34 154.427 155.34H156.251V155.112C156.251 154.616 156.107 154.236 155.819 153.972C155.531 153.708 155.107 153.576 154.547 153.576C154.171 153.576 153.803 153.64 153.443 153.768C153.083 153.888 152.779 154.052 152.531 154.26L152.051 153.396C152.379 153.132 152.771 152.932 153.227 152.796C153.683 152.652 154.167 152.58 154.679 152.58ZM154.415 158.184C154.855 158.184 155.235 158.088 155.555 157.896C155.875 157.696 156.107 157.416 156.251 157.056V156.168H154.475C153.499 156.168 153.011 156.496 153.011 157.152C153.011 157.472 153.135 157.724 153.383 157.908C153.631 158.092 153.975 158.184 154.415 158.184ZM159.811 159.072C159.587 159.072 159.395 158.996 159.235 158.844C159.075 158.684 158.995 158.484 158.995 158.244C158.995 158.012 159.075 157.82 159.235 157.668C159.395 157.508 159.587 157.428 159.811 157.428C160.035 157.428 160.223 157.504 160.375 157.656C160.527 157.808 160.603 158.004 160.603 158.244C160.603 158.484 160.523 158.684 160.363 158.844C160.211 158.996 160.027 159.072 159.811 159.072Z" fill="#008E86"/>
<path d="M68 66.4998L90.5 64.5001L90.5 88.9997L68 66.4998Z" fill="#00D8CC" stroke="#00635D" stroke-width="2" stroke-linejoin="round"/>
<path d="M90.5 64L113 66.4996L90.4996 88.9996L90.5 64Z" fill="#00D8CC" stroke="#00635D" stroke-width="2" stroke-linejoin="round"/>
<path d="M68 66.4998L81.4996 53.0001L90.5 53.0001L90.5 64.9998L72.5 70.9998L68 66.4998Z" fill="#00D8CC" stroke="#00635D" stroke-width="2" stroke-linejoin="round"/>
<path d="M90.4999 53.0001L99.9997 53.0001L113 66.4997L108.5 70.9997L90.4997 64.9997L90.4999 53.0001Z" fill="#00D8CC" stroke="#00635D" stroke-width="2" stroke-linejoin="round"/>
<path d="M100 80L81 80" stroke="#333333" stroke-width="2" stroke-dasharray="4 4"/>
<path d="M91 65.0002L73 71.0002L73 47.0003L91 65.0002Z" fill="#00D8CC" stroke="#00635D" stroke-width="2" stroke-linejoin="round"/>
<path d="M108 71.5L90 65L108 47L108 71.5Z" fill="#00D8CC" stroke="#00635D" stroke-width="2" stroke-linejoin="round"/>
<path d="M134.315 60.9682C133.763 60.9682 133.315 61.4159 133.315 61.9682L133.315 70.9682C133.315 71.5205 133.763 71.9682 134.315 71.9682C134.868 71.9682 135.315 71.5205 135.315 70.9682L135.315 62.9682L143.315 62.9683C143.868 62.9684 144.315 62.5206 144.315 61.9684C144.315 61.4161 143.868 60.9684 143.315 60.9683L134.315 60.9682ZM129.359 82.8711L129.359 81.8711L129.359 82.8711ZM114.55 75.4837C114.16 75.0932 113.527 75.0932 113.136 75.4837C112.746 75.8742 112.746 76.5074 113.136 76.8979L114.55 75.4837ZM133.608 62.6753C138.439 67.5059 138.982 72.3236 137.612 75.8562C136.211 79.4686 132.786 81.8711 129.359 81.8711L129.359 83.8711C133.689 83.8711 137.806 80.8862 139.477 76.5793C141.178 72.1925 140.32 66.5588 135.023 61.2611L133.608 62.6753ZM129.359 81.8711C126.755 81.8711 124.789 80.6697 123.378 78.8005C121.946 76.9039 121.095 74.3202 120.842 71.678C120.589 69.0328 120.947 66.4435 121.809 64.5599C122.671 62.6795 123.932 61.6753 125.48 61.6753L125.48 59.6753C122.858 59.6753 121.036 61.4455 119.991 63.7269C118.948 66.005 118.574 68.9646 118.851 71.8684C119.129 74.7751 120.071 77.7404 121.781 80.0055C123.512 82.2981 126.036 83.8711 129.359 83.8711L129.359 81.8711ZM125.48 61.6753C126.616 61.6753 127.436 62.0486 128.036 62.6383C128.654 63.2469 129.105 64.1529 129.346 65.305C129.833 67.6237 129.416 70.6813 128.226 73.3605C127.03 76.0522 125.158 78.1386 122.928 78.809C120.782 79.4542 117.951 78.8838 114.55 75.4837L113.136 76.8979C116.847 80.609 120.408 81.6549 123.504 80.7243C126.516 79.8189 128.737 77.1375 130.054 74.1725C131.377 71.195 131.894 67.707 131.304 64.8943C131.007 63.4807 130.416 62.1745 129.438 61.2124C128.441 60.2313 127.107 59.6753 125.48 59.6753L125.48 61.6753Z" fill="black"/>
<path d="M87.7712 92.4356C88.1522 92.0358 88.1371 91.4028 87.7373 91.0218L81.2225 84.8123C80.8227 84.4312 80.1897 84.4464 79.8087 84.8462C79.4276 85.246 79.4428 85.879 79.8426 86.26L85.6335 91.7796L80.114 97.5705C79.7329 97.9702 79.7481 98.6032 80.1479 98.9843C80.5477 99.3653 81.1807 99.3501 81.5617 98.9504L87.7712 92.4356ZM73.3015 77.0241C73.3148 76.472 72.8779 76.0136 72.3258 76.0004C71.7737 75.9871 71.3153 76.424 71.3021 76.9761L73.3015 77.0241ZM87.0233 90.7459C82.8617 90.8458 79.502 89.3886 77.1113 86.9978L75.6971 88.4121C78.4888 91.2038 82.3831 92.8578 87.0713 92.7453L87.0233 90.7459ZM77.1113 86.9978C75.9535 85.84 74.9738 84.0989 74.2927 82.2245C73.6124 80.3522 73.2673 78.4498 73.3015 77.0241L71.3021 76.9761C71.2605 78.7111 71.6709 80.8654 72.4129 82.9076C73.1542 84.9476 74.2636 86.9786 75.6971 88.4121L77.1113 86.9978Z" fill="black"/>
</g>
<defs>
<clipPath id="clip0_5726_207824">
<rect width="180" height="180" rx="20" fill="white"/>
</clipPath>
<clipPath id="clip1_5726_207824">
<path d="M0 30L-1.31134e-06 0L30 -1.31134e-06L30 10C30 21.0457 21.0457 30 10 30L0 30Z" fill="white"/>
</clipPath>
</defs>
</svg>
