<svg width="380" height="480" viewBox="0 0 380 480" fill="none" xmlns="http://www.w3.org/2000/svg">
<path d="M380 480H0L169.544 51.6777C176.882 33.1404 203.118 33.1404 210.456 51.6777L380 480Z" fill="#69E485"/>
<path d="M208.594 46.9948L259.162 174.799C260.706 178.703 257.044 182.656 253.034 181.415L225.456 172.879C222.946 172.102 220.264 173.4 219.315 175.849L192.111 246.063C191.004 248.921 187.609 250.119 184.953 248.589L134.654 219.605C132.543 218.389 129.863 218.871 128.308 220.746L99.2476 255.795C95.6156 260.175 88.6554 256.054 90.7495 250.763L171.401 46.9928C178.071 30.1389 201.925 30.1402 208.594 46.9948Z" fill="#F2F2F2"/>
</svg>
