<svg width="342" height="51" viewBox="0 0 342 51" fill="none" xmlns="http://www.w3.org/2000/svg">
<path fill-rule="evenodd" clip-rule="evenodd" d="M342 20.9851C342 10 333 0.992676 322 0.992676C260.172 0.992676 122 1 122 1L112 11H72L62 0.999769H20C9 0.999769 0 10 0 20.9923C0 20.9996 3.06627e-10 21.0072 0 21.0148C-4.45292e-07 32 9 41 20 41C36.563 41 62 41 62 41L72 50.9996H112L122 41H322.147C333 41 342 32 342 21.0076C342 21 342 20.9924 342 20.9851Z" fill="#30DCFF"/>
<path fill-rule="evenodd" clip-rule="evenodd" d="M342 20.9888C342 10 333 1 321.853 1C260.025 1 122 1 122 1L112 11H72L62 1H20C9 1 0 10 0 20.9888C0 20.9961 0 21 0 21H5C5 13 12 6 20 6C34.6641 6 60 6 60 6L70 16H114.136L124 6H322C331 6 337 12 337 20.9998L342 21V20.9888Z" fill="#93EDFF"/>
<path fill-rule="evenodd" clip-rule="evenodd" d="M342 21L337 21C337 29.9711 331.197 36 322 36C264.995 36 120 36 120 36L110 46H74L64 36H20C11 36 5 30 5 21.0015V21H0V21.0112C-6.17981e-10 32 9 41 20 41C36.563 41 62 41 62 41L72 51H112L122 41H322C333 41 342 32 342 21Z" fill="#08A0BF"/>
</svg>
