<svg width="80" height="84" viewBox="0 0 80 84" fill="none" xmlns="http://www.w3.org/2000/svg">
<g filter="url(#filter0_d)">
<path d="M0 40C0 17.9086 17.9086 0 40 0C62.0914 0 80 17.9086 80 40C80 62.0914 62.0914 80 40 80C17.9086 80 0 62.0914 0 40Z" fill="#FF7171"/>
<path fill-rule="evenodd" clip-rule="evenodd" d="M48.2353 38.8235H25.8823C22.6336 38.8235 20 41.4571 20 44.7059V54.1176C20 57.3664 22.6336 60 25.8823 60H54.1176C57.3664 60 60 57.3664 60 54.1176V44.7059C60 41.4571 57.3664 38.8235 54.1176 38.8235H50.5882V30.5882C50.5882 24.7405 45.8477 20 40 20H39.9999C37.1918 20 34.4986 21.1155 32.513 23.1012C30.5273 25.0869 29.4118 27.78 29.4118 30.5882C29.4118 30.5292 29.4151 30.4798 29.4217 30.4392C29.415 30.4872 29.4118 30.5373 29.4118 30.5882C29.4118 31.2172 29.9064 31.7316 30.5277 31.7632L30.5882 31.7647L30.6388 31.7596C30.864 31.7315 31.7647 31.5583 31.7647 30.5882C31.7647 28.4041 32.6323 26.3094 34.1767 24.765C35.7212 23.2206 37.8158 22.3529 39.9999 22.3529H40C44.5482 22.3529 48.2353 26.04 48.2353 30.5882V38.8235H48.2353ZM57.6471 44.7059V54.1176C57.6471 56.0669 56.0669 57.647 54.1177 57.647H25.8824C23.9331 57.647 22.353 56.0669 22.353 54.1176C22.353 54.1176 22.353 44.7059 22.353 44.7059C22.353 42.7566 23.9331 41.1765 25.8824 41.1765H54.1177C56.0669 41.1765 57.6471 42.7566 57.6471 44.7059Z" fill="white"/>
<path fill-rule="evenodd" clip-rule="evenodd" d="M40.0259 47.7723L36.1292 43.8756C35.6701 43.4165 34.9246 43.4165 34.4654 43.8756C34.0063 44.3347 34.0063 45.0802 34.4654 45.5394L38.3621 49.4361L34.4654 53.3327C34.0063 53.7919 34.0063 54.5374 34.4654 54.9965C34.9246 55.4556 35.6701 55.4556 36.1292 54.9965L40.0259 51.0998L43.9226 54.9965C44.3817 55.4556 45.1272 55.4556 45.5864 54.9965C46.0455 54.5374 46.0455 53.7919 45.5864 53.3327L41.6897 49.4361L45.5864 45.5394C46.0455 45.0802 46.0455 44.3347 45.5864 43.8756C45.1272 43.4165 44.3817 43.4165 43.9226 43.8756L40.0259 47.7723Z" fill="white"/>
</g>
<defs>
<filter id="filter0_d" x="0" y="0" width="80" height="84" filterUnits="userSpaceOnUse" color-interpolation-filters="sRGB">
<feFlood flood-opacity="0" result="BackgroundImageFix"/>
<feColorMatrix in="SourceAlpha" type="matrix" values="0 0 0 0 0 0 0 0 0 0 0 0 0 0 0 0 0 0 127 0" result="hardAlpha"/>
<feOffset dy="4"/>
<feColorMatrix type="matrix" values="0 0 0 0 0 0 0 0 0 0 0 0 0 0 0 0 0 0 0.25 0"/>
<feBlend mode="normal" in2="BackgroundImageFix" result="effect1_dropShadow"/>
<feBlend mode="normal" in="SourceGraphic" in2="effect1_dropShadow" result="shape"/>
</filter>
</defs>
</svg>
