<svg width="80" height="84" viewBox="0 0 80 84" fill="none" xmlns="http://www.w3.org/2000/svg">
<g filter="url(#filter0_d)">
<path d="M0 40C0 17.9086 17.9086 0 40 0C62.0914 0 80 17.9086 80 40C80 62.0914 62.0914 80 40 80C17.9086 80 0 62.0914 0 40Z" fill="#FF7171"/>
<path fill-rule="evenodd" clip-rule="evenodd" d="M53.5538 32.9915C56.0462 35.4328 57.6423 38.1021 57.6423 39.9861C57.6423 41.6654 56.3577 43.9739 54.3198 46.1905C51.0874 49.7065 45.8806 52.9237 40.0002 52.9237C37.9273 52.9237 35.9378 52.5214 34.0899 51.8487C33.4799 51.6267 32.8044 51.9417 32.5824 52.5517C32.3604 53.1616 32.6753 53.8371 33.2853 54.0592C35.3846 54.8232 37.6453 55.276 40.0002 55.276C46.5831 55.276 52.4328 51.7186 56.0514 47.7825C58.5812 45.0308 59.9945 42.0708 59.9945 39.9861C59.9945 37.6812 58.2489 34.2978 55.1997 31.311C54.736 30.8568 53.9907 30.8645 53.5365 31.3282C53.0823 31.792 53.09 32.5372 53.5537 32.9915H53.5538Z" fill="white"/>
<path fill-rule="evenodd" clip-rule="evenodd" d="M39.962 27.0444L39.9965 27.0444C41.9802 27.0444 43.8874 27.4129 45.6673 28.034C46.2802 28.2479 46.9514 27.9239 47.1653 27.311C47.3792 26.6982 47.0553 26.0269 46.4424 25.8131C44.4352 25.1126 42.2849 24.6986 40.0493 24.6922L39.9965 24.6921C33.4135 24.6921 27.5639 28.2495 23.9453 32.1856C21.4155 34.9373 20.0021 37.8973 20.0021 39.9819C20.0021 42.2195 21.6421 45.471 24.5285 48.3899C24.9849 48.8515 25.7302 48.8556 26.1918 48.3992C26.6534 47.9428 26.6575 47.1975 26.2011 46.7359C23.8517 44.36 22.3544 41.8032 22.3544 39.9819C22.3544 38.3027 23.6391 35.9942 25.6769 33.7776C28.9029 30.2686 34.0953 27.0573 39.962 27.0444H39.962Z" fill="white"/>
<path fill-rule="evenodd" clip-rule="evenodd" d="M48.6384 36.2447C49.1356 37.3908 49.4112 38.6547 49.4112 39.9826C49.4112 45.1756 45.1952 49.3917 40.0021 49.3917C38.6743 49.3917 37.4103 49.1161 36.2642 48.6189L48.6383 36.2448L48.6384 36.2447ZM31.3489 43.6813C30.8624 42.5458 30.593 41.2954 30.593 39.9826C30.593 34.7896 34.809 30.5735 40.0021 30.5735C41.3149 30.5735 42.5652 30.8429 43.7007 31.3294L31.3489 43.6813L31.3489 43.6813Z" fill="white"/>
<path fill-rule="evenodd" clip-rule="evenodd" d="M22.0097 59.6363L59.6557 21.9902C60.1147 21.5312 60.1147 20.7859 59.6557 20.3269C59.1967 19.8679 58.4514 19.8679 57.9924 20.3269L20.3464 57.973C19.8874 58.432 19.8874 59.1773 20.3464 59.6363C20.8054 60.0953 21.5507 60.0953 22.0097 59.6363Z" fill="white"/>
</g>
<defs>
<filter id="filter0_d" x="0" y="0" width="80" height="84" filterUnits="userSpaceOnUse" color-interpolation-filters="sRGB">
<feFlood flood-opacity="0" result="BackgroundImageFix"/>
<feColorMatrix in="SourceAlpha" type="matrix" values="0 0 0 0 0 0 0 0 0 0 0 0 0 0 0 0 0 0 127 0" result="hardAlpha"/>
<feOffset dy="4"/>
<feColorMatrix type="matrix" values="0 0 0 0 0 0 0 0 0 0 0 0 0 0 0 0 0 0 0.25 0"/>
<feBlend mode="normal" in2="BackgroundImageFix" result="effect1_dropShadow"/>
<feBlend mode="normal" in="SourceGraphic" in2="effect1_dropShadow" result="shape"/>
</filter>
</defs>
</svg>
