<svg width="380" height="180" viewBox="0 0 380 180" fill="none" xmlns="http://www.w3.org/2000/svg">
<rect width="380" height="180" rx="20" fill="white"/>
<rect x="20" y="20" width="40" height="40" rx="20" fill="#3FDFE9"/>
<path d="M45.7555 42.8325H44.1794C42.9329 42.8325 41.9207 43.8496 41.9207 45.0982V46.6792C41.9207 47.9295 42.9346 48.9449 44.1794 48.9449H45.7555C47.0019 48.9449 48.0142 47.9278 48.0142 46.6792V45.0982C48.0158 43.8496 47.0019 42.8325 45.7555 42.8325ZM46.3427 46.6792C46.3427 47.0031 46.08 47.2666 45.7571 47.2666H44.181C43.8581 47.2666 43.5955 47.0031 43.5955 46.6792V45.0982C43.5955 44.7743 43.8581 44.5108 44.181 44.5108H45.7571C46.08 44.5108 46.3427 44.7743 46.3427 45.0982V46.6792Z" fill="#F2F2F2"/>
<path d="M52.4999 35.7367C52.4999 35.2551 52.351 34.7935 52.0682 34.4042L47.7482 28.4379C47.3232 27.8521 46.6406 27.5031 45.9195 27.5031H34.0838C33.3627 27.5031 32.6801 27.8521 32.2551 28.4379L27.9351 34.4059C27.6523 34.7952 27.5034 35.2551 27.5034 35.7367V36.9871C27.5034 37.0206 27.5101 37.0525 27.5135 37.0844C27.5101 37.118 27.5034 37.1499 27.5034 37.1818C27.5034 38.4556 28.1375 39.5817 29.1046 40.2631V50.2321C29.1046 51.4825 30.1185 52.4978 31.3633 52.4978H32.3438C33.5902 52.4978 34.6025 51.4808 34.6025 50.2321V44.9237C34.6025 44.5998 34.8652 44.3363 35.1881 44.3363H38.5795C38.9024 44.3363 39.1651 44.5998 39.1651 44.9237V50.2321C39.1651 51.4825 40.179 52.4978 41.4238 52.4978H48.6383C49.8848 52.4978 50.897 51.4808 50.897 50.2321V40.2631C51.8641 39.5817 52.4999 38.4556 52.4999 37.1818C52.4999 37.1482 52.4932 37.1163 52.4898 37.0844C52.4932 37.0525 52.4999 37.0206 52.4999 36.9871V35.7367ZM29.1765 35.7367C29.1765 35.6109 29.215 35.4917 29.2886 35.391L33.6103 29.423C33.7207 29.272 33.8981 29.1813 34.0838 29.1813H45.9195C46.1069 29.1813 46.2842 29.272 46.393 29.423L50.7147 35.391C50.7883 35.4917 50.8268 35.6109 50.8268 35.7367V36.9871C50.8268 37.0206 50.8335 37.0525 50.8368 37.0844C50.8335 37.1163 50.8268 37.1482 50.8268 37.1818C50.8268 38.3314 49.8948 39.2679 48.7471 39.2679C47.5993 39.2679 46.6674 38.3331 46.6674 37.1818C46.6674 36.7185 46.2926 36.3426 45.8308 36.3426C45.369 36.3426 44.9943 36.7185 44.9943 37.1818C44.9943 38.3314 44.0623 39.2679 42.9146 39.2679C41.7685 39.2679 40.8365 38.3331 40.8365 37.1818C40.8365 36.7185 40.4618 36.3426 40 36.3426C39.5382 36.3426 39.1634 36.7185 39.1634 37.1818C39.1634 38.3314 38.2315 39.2679 37.0837 39.2679C35.936 39.2679 35.004 38.3331 35.004 37.1818C35.004 36.7185 34.6293 36.3426 34.1675 36.3426C33.7057 36.3426 33.3309 36.7185 33.3309 37.1818C33.3309 38.3314 32.399 39.2679 31.2512 39.2679C30.1085 39.2679 29.1765 38.3331 29.1765 37.1818C29.1765 37.1482 29.1698 37.1163 29.1665 37.0844C29.1698 37.0525 29.1765 37.0206 29.1765 36.9871V35.7367ZM49.2256 50.2338C49.2256 50.5577 48.9629 50.8212 48.64 50.8212H41.4255C41.1026 50.8212 40.8399 50.5577 40.8399 50.2338V44.9254C40.8399 43.6751 39.826 42.6597 38.5812 42.6597H35.1897C33.9433 42.6597 32.931 43.6767 32.931 44.9254V50.2338C32.931 50.5577 32.6684 50.8212 32.3454 50.8212H31.365C31.0421 50.8212 30.7794 50.5577 30.7794 50.2338V40.9143C30.935 40.9344 31.0939 40.9462 31.2562 40.9462C32.4324 40.9462 33.4832 40.4007 34.1725 39.5481C34.8601 40.4007 35.9125 40.9462 37.0887 40.9462C38.2649 40.9462 39.3157 40.4007 40.005 39.5481C40.6927 40.4007 41.745 40.9462 42.9196 40.9462C44.0958 40.9462 45.1465 40.4007 45.8358 39.5481C46.5235 40.4007 47.5759 40.9462 48.7521 40.9462C48.9144 40.9462 49.0733 40.9344 49.2289 40.9143V50.2338H49.2256Z" fill="#F2F2F2"/>
<path d="M90 33.92V36H81.328V24.8H89.792V26.88H83.904V29.312H89.104V31.328H83.904V33.92H90ZM91.2539 30.496H95.7819V32.496H91.2539V30.496ZM100.642 36.128C99.9271 36.128 99.2284 36.0427 98.5458 35.872C97.8631 35.6907 97.3191 35.4667 96.9138 35.2L97.7458 33.408C98.1298 33.6533 98.5938 33.856 99.1378 34.016C99.6818 34.1653 100.215 34.24 100.738 34.24C101.794 34.24 102.322 33.9787 102.322 33.456C102.322 33.2107 102.178 33.0347 101.89 32.928C101.602 32.8213 101.159 32.7307 100.562 32.656C99.8578 32.5493 99.2764 32.4267 98.8178 32.288C98.3591 32.1493 97.9591 31.904 97.6178 31.552C97.2871 31.2 97.1217 30.6987 97.1217 30.048C97.1217 29.504 97.2764 29.024 97.5858 28.608C97.9058 28.1813 98.3644 27.8507 98.9618 27.616C99.5698 27.3813 100.284 27.264 101.106 27.264C101.714 27.264 102.316 27.3333 102.914 27.472C103.522 27.6 104.023 27.7813 104.418 28.016L103.586 29.792C102.828 29.3653 102.002 29.152 101.106 29.152C100.572 29.152 100.172 29.2267 99.9058 29.376C99.6391 29.5253 99.5058 29.7173 99.5058 29.952C99.5058 30.2187 99.6498 30.4053 99.9378 30.512C100.226 30.6187 100.684 30.72 101.314 30.816C102.018 30.9333 102.594 31.0613 103.042 31.2C103.49 31.328 103.879 31.568 104.21 31.92C104.54 32.272 104.706 32.7627 104.706 33.392C104.706 33.9253 104.546 34.4 104.226 34.816C103.906 35.232 103.436 35.5573 102.818 35.792C102.21 36.016 101.484 36.128 100.642 36.128ZM111.798 35.584C111.552 35.7653 111.248 35.904 110.886 36C110.534 36.0853 110.16 36.128 109.766 36.128C108.742 36.128 107.947 35.8667 107.382 35.344C106.827 34.8213 106.55 34.0533 106.55 33.04V29.504H105.222V27.584H106.55V25.488H109.046V27.584H111.19V29.504H109.046V33.008C109.046 33.3707 109.136 33.6533 109.318 33.856C109.51 34.048 109.776 34.144 110.118 34.144C110.512 34.144 110.848 34.0373 111.126 33.824L111.798 35.584ZM117.029 36.128C116.123 36.128 115.307 35.9413 114.581 35.568C113.867 35.184 113.307 34.656 112.901 33.984C112.496 33.312 112.293 32.5493 112.293 31.696C112.293 30.8427 112.496 30.08 112.901 29.408C113.307 28.736 113.867 28.2133 114.581 27.84C115.307 27.456 116.123 27.264 117.029 27.264C117.936 27.264 118.747 27.456 119.461 27.84C120.176 28.2133 120.736 28.736 121.141 29.408C121.547 30.08 121.749 30.8427 121.749 31.696C121.749 32.5493 121.547 33.312 121.141 33.984C120.736 34.656 120.176 35.184 119.461 35.568C118.747 35.9413 117.936 36.128 117.029 36.128ZM117.029 34.08C117.669 34.08 118.192 33.8667 118.597 33.44C119.013 33.0027 119.221 32.4213 119.221 31.696C119.221 30.9707 119.013 30.3947 118.597 29.968C118.192 29.5307 117.669 29.312 117.029 29.312C116.389 29.312 115.861 29.5307 115.445 29.968C115.029 30.3947 114.821 30.9707 114.821 31.696C114.821 32.4213 115.029 33.0027 115.445 33.44C115.861 33.8667 116.389 34.08 117.029 34.08ZM125.802 28.528C126.1 28.112 126.5 27.7973 127.002 27.584C127.514 27.3707 128.1 27.264 128.762 27.264V29.568C128.484 29.5467 128.298 29.536 128.202 29.536C127.487 29.536 126.927 29.7387 126.522 30.144C126.116 30.5387 125.914 31.136 125.914 31.936V36H123.418V27.392H125.802V28.528ZM138.6 31.728C138.6 31.76 138.584 31.984 138.552 32.4H132.04C132.157 32.9333 132.434 33.3547 132.872 33.664C133.309 33.9733 133.853 34.128 134.504 34.128C134.952 34.128 135.346 34.064 135.688 33.936C136.04 33.7973 136.365 33.584 136.664 33.296L137.992 34.736C137.181 35.664 135.997 36.128 134.44 36.128C133.469 36.128 132.61 35.9413 131.864 35.568C131.117 35.184 130.541 34.656 130.136 33.984C129.73 33.312 129.528 32.5493 129.528 31.696C129.528 30.8533 129.725 30.096 130.12 29.424C130.525 28.7413 131.074 28.2133 131.768 27.84C132.472 27.456 133.256 27.264 134.12 27.264C134.962 27.264 135.725 27.4453 136.408 27.808C137.09 28.1707 137.624 28.6933 138.008 29.376C138.402 30.048 138.6 30.832 138.6 31.728ZM134.136 29.152C133.57 29.152 133.096 29.312 132.712 29.632C132.328 29.952 132.093 30.3893 132.008 30.944H136.248C136.162 30.4 135.928 29.968 135.544 29.648C135.16 29.3173 134.69 29.152 134.136 29.152Z" fill="#00635D"/>
<path d="M20.032 96L25.152 84.8H26.32L31.44 96H30.192L25.488 85.488H25.968L21.264 96H20.032ZM22.048 93.008L22.4 92.048H28.912L29.264 93.008H22.048ZM37.3408 87.52C38.0234 87.52 38.6208 87.6533 39.1328 87.92C39.6554 88.176 40.0608 88.5707 40.3488 89.104C40.6474 89.6373 40.7968 90.3093 40.7968 91.12V96H39.6608V91.232C39.6608 90.3467 39.4368 89.68 38.9888 89.232C38.5514 88.7733 37.9328 88.544 37.1328 88.544C36.5354 88.544 36.0128 88.6667 35.5648 88.912C35.1274 89.1467 34.7861 89.4933 34.5408 89.952C34.3061 90.4 34.1888 90.944 34.1888 91.584V96H33.0528V87.6H34.1408V89.904L33.9648 89.472C34.2314 88.864 34.6581 88.3893 35.2448 88.048C35.8314 87.696 36.5301 87.52 37.3408 87.52ZM46.5213 96.08C45.7319 96.08 45.1239 95.8667 44.6973 95.44C44.2706 95.0133 44.0573 94.4107 44.0573 93.632V85.744H45.1933V93.568C45.1933 94.0587 45.3159 94.4373 45.5613 94.704C45.8173 94.9707 46.1799 95.104 46.6493 95.104C47.1506 95.104 47.5666 94.96 47.8973 94.672L48.2973 95.488C48.0733 95.6907 47.8013 95.84 47.4813 95.936C47.1719 96.032 46.8519 96.08 46.5213 96.08ZM42.5533 88.544V87.6H47.7533V88.544H42.5533ZM50.3653 96V87.6H51.5013V96H50.3653ZM50.9413 85.744C50.7066 85.744 50.5093 85.664 50.3493 85.504C50.1893 85.344 50.1093 85.152 50.1093 84.928C50.1093 84.704 50.1893 84.5173 50.3493 84.368C50.5093 84.208 50.7066 84.128 50.9413 84.128C51.1759 84.128 51.3733 84.2027 51.5333 84.352C51.6933 84.5013 51.7733 84.688 51.7733 84.912C51.7733 85.1467 51.6933 85.344 51.5333 85.504C51.3839 85.664 51.1866 85.744 50.9413 85.744ZM58.2461 99.184C57.4781 99.184 56.7421 99.072 56.0381 98.848C55.3341 98.624 54.7635 98.304 54.3261 97.888L54.9021 97.024C55.2968 97.376 55.7821 97.6533 56.3581 97.856C56.9448 98.0693 57.5635 98.176 58.2141 98.176C59.2808 98.176 60.0648 97.9253 60.5661 97.424C61.0675 96.9333 61.3181 96.1653 61.3181 95.12V93.024L61.4781 91.584L61.3661 90.144V87.6H62.4541V94.976C62.4541 96.4267 62.0968 97.488 61.3821 98.16C60.6781 98.8427 59.6328 99.184 58.2461 99.184ZM58.0381 95.68C57.2381 95.68 56.5181 95.5093 55.8781 95.168C55.2381 94.816 54.7315 94.3307 54.3581 93.712C53.9955 93.0933 53.8141 92.384 53.8141 91.584C53.8141 90.784 53.9955 90.08 54.3581 89.472C54.7315 88.8533 55.2381 88.3733 55.8781 88.032C56.5181 87.6907 57.2381 87.52 58.0381 87.52C58.7848 87.52 59.4568 87.6747 60.0541 87.984C60.6515 88.2933 61.1261 88.752 61.4781 89.36C61.8301 89.968 62.0061 90.7093 62.0061 91.584C62.0061 92.4587 61.8301 93.2 61.4781 93.808C61.1261 94.416 60.6515 94.88 60.0541 95.2C59.4568 95.52 58.7848 95.68 58.0381 95.68ZM58.1501 94.672C58.7688 94.672 59.3181 94.544 59.7981 94.288C60.2781 94.0213 60.6568 93.6587 60.9341 93.2C61.2115 92.7307 61.3501 92.192 61.3501 91.584C61.3501 90.976 61.2115 90.4427 60.9341 89.984C60.6568 89.5253 60.2781 89.168 59.7981 88.912C59.3181 88.6453 58.7688 88.512 58.1501 88.512C57.5421 88.512 56.9928 88.6453 56.5021 88.912C56.0221 89.168 55.6435 89.5253 55.3661 89.984C55.0995 90.4427 54.9661 90.976 54.9661 91.584C54.9661 92.192 55.0995 92.7307 55.3661 93.2C55.6435 93.6587 56.0221 94.0213 56.5021 94.288C56.9928 94.544 57.5421 94.672 58.1501 94.672ZM69.0873 96.08C68.3726 96.08 67.7486 95.9467 67.2153 95.68C66.6819 95.4133 66.2659 95.0133 65.9673 94.48C65.6793 93.9467 65.5353 93.28 65.5353 92.48V87.6H66.6713V92.352C66.6713 93.248 66.8899 93.9253 67.3273 94.384C67.7753 94.832 68.3993 95.056 69.1993 95.056C69.7859 95.056 70.2926 94.9387 70.7193 94.704C71.1566 94.4587 71.4873 94.1067 71.7113 93.648C71.9459 93.1893 72.0633 92.64 72.0633 92V87.6H73.1993V96H72.1112V93.696L72.2873 94.112C72.0206 94.7307 71.6046 95.216 71.0393 95.568C70.4846 95.9093 69.8339 96.08 69.0873 96.08ZM76.3653 96V87.6H77.5013V96H76.3653ZM76.9413 85.744C76.7066 85.744 76.5093 85.664 76.3493 85.504C76.1893 85.344 76.1093 85.152 76.1093 84.928C76.1093 84.704 76.1893 84.5173 76.3493 84.368C76.5093 84.208 76.7066 84.128 76.9413 84.128C77.1759 84.128 77.3733 84.2027 77.5333 84.352C77.6933 84.5013 77.7733 84.688 77.7733 84.912C77.7733 85.1467 77.6933 85.344 77.5333 85.504C77.3839 85.664 77.1866 85.744 76.9413 85.744ZM84.0061 96.08C83.2061 96.08 82.4861 95.8987 81.8461 95.536C81.2168 95.1733 80.7208 94.672 80.3581 94.032C79.9955 93.3813 79.8141 92.6347 79.8141 91.792C79.8141 90.9387 79.9955 90.192 80.3581 89.552C80.7208 88.912 81.2168 88.416 81.8461 88.064C82.4861 87.7013 83.2061 87.52 84.0061 87.52C84.7421 87.52 85.3981 87.6853 85.9741 88.016C86.5608 88.3467 87.0248 88.832 87.3661 89.472C87.7181 90.1013 87.8941 90.8747 87.8941 91.792C87.8941 92.6987 87.7235 93.472 87.3821 94.112C87.0408 94.752 86.5768 95.2427 85.9901 95.584C85.4141 95.9147 84.7528 96.08 84.0061 96.08ZM84.0861 95.072C84.6835 95.072 85.2168 94.9387 85.6861 94.672C86.1661 94.3947 86.5395 94.0107 86.8061 93.52C87.0835 93.0187 87.2221 92.4427 87.2221 91.792C87.2221 91.1307 87.0835 90.5547 86.8061 90.064C86.5395 89.5733 86.1661 89.1947 85.6861 88.928C85.2168 88.6507 84.6835 88.512 84.0861 88.512C83.4995 88.512 82.9715 88.6507 82.5021 88.928C82.0328 89.1947 81.6595 89.5733 81.3821 90.064C81.1048 90.5547 80.9661 91.1307 80.9661 91.792C80.9661 92.4427 81.1048 93.0187 81.3821 93.52C81.6595 94.0107 82.0328 94.3947 82.5021 94.672C82.9715 94.9387 83.4995 95.072 84.0861 95.072ZM87.2541 96V93.472L87.3661 91.776L87.2061 90.08V84.128H88.3421V96H87.2541ZM96.7699 96V94.144L96.7219 93.84V90.736C96.7219 90.0213 96.5192 89.472 96.1139 89.088C95.7192 88.704 95.1272 88.512 94.3379 88.512C93.7939 88.512 93.2765 88.6027 92.7859 88.784C92.2952 88.9653 91.8792 89.2053 91.5379 89.504L91.0259 88.656C91.4525 88.2933 91.9645 88.016 92.5619 87.824C93.1592 87.6213 93.7885 87.52 94.4499 87.52C95.5379 87.52 96.3752 87.792 96.9619 88.336C97.5592 88.8693 97.8579 89.6853 97.8579 90.784V96H96.7699ZM93.8739 96.08C93.2445 96.08 92.6952 95.9787 92.2259 95.776C91.7672 95.5627 91.4152 95.2747 91.1699 94.912C90.9245 94.5387 90.8019 94.112 90.8019 93.632C90.8019 93.1947 90.9032 92.8 91.1059 92.448C91.3192 92.0853 91.6605 91.7973 92.1299 91.584C92.6099 91.36 93.2499 91.248 94.0499 91.248H96.9459V92.096H94.0819C93.2712 92.096 92.7059 92.24 92.3859 92.528C92.0765 92.816 91.9219 93.1733 91.9219 93.6C91.9219 94.08 92.1085 94.464 92.4819 94.752C92.8552 95.04 93.3779 95.184 94.0499 95.184C94.6899 95.184 95.2392 95.04 95.6979 94.752C96.1672 94.4533 96.5085 94.0267 96.7219 93.472L96.9779 94.256C96.7645 94.8107 96.3912 95.2533 95.8579 95.584C95.3352 95.9147 94.6739 96.08 93.8739 96.08ZM104.287 96.08C103.487 96.08 102.767 95.8987 102.127 95.536C101.498 95.1733 101.002 94.672 100.639 94.032C100.277 93.3813 100.095 92.6347 100.095 91.792C100.095 90.9387 100.277 90.192 100.639 89.552C101.002 88.912 101.498 88.416 102.127 88.064C102.767 87.7013 103.487 87.52 104.287 87.52C105.023 87.52 105.679 87.6853 106.255 88.016C106.842 88.3467 107.306 88.832 107.647 89.472C107.999 90.1013 108.175 90.8747 108.175 91.792C108.175 92.6987 108.005 93.472 107.663 94.112C107.322 94.752 106.858 95.2427 106.271 95.584C105.695 95.9147 105.034 96.08 104.287 96.08ZM104.367 95.072C104.965 95.072 105.498 94.9387 105.967 94.672C106.447 94.3947 106.821 94.0107 107.087 93.52C107.365 93.0187 107.503 92.4427 107.503 91.792C107.503 91.1307 107.365 90.5547 107.087 90.064C106.821 89.5733 106.447 89.1947 105.967 88.928C105.498 88.6507 104.965 88.512 104.367 88.512C103.781 88.512 103.253 88.6507 102.783 88.928C102.314 89.1947 101.941 89.5733 101.663 90.064C101.386 90.5547 101.247 91.1307 101.247 91.792C101.247 92.4427 101.386 93.0187 101.663 93.52C101.941 94.0107 102.314 94.3947 102.783 94.672C103.253 94.9387 103.781 95.072 104.367 95.072ZM107.535 96V93.472L107.647 91.776L107.487 90.08V84.128H108.623V96H107.535ZM115.355 96.08C114.48 96.08 113.712 95.8987 113.051 95.536C112.39 95.1627 111.872 94.656 111.499 94.016C111.126 93.3653 110.939 92.624 110.939 91.792C110.939 90.96 111.115 90.224 111.467 89.584C111.83 88.944 112.32 88.4427 112.939 88.08C113.568 87.7067 114.272 87.52 115.051 87.52C115.84 87.52 116.539 87.7013 117.147 88.064C117.766 88.416 118.251 88.9173 118.603 89.568C118.955 90.208 119.131 90.9493 119.131 91.792C119.131 91.8453 119.126 91.904 119.115 91.968C119.115 92.0213 119.115 92.08 119.115 92.144H111.803V91.296H118.507L118.059 91.632C118.059 91.024 117.926 90.4853 117.659 90.016C117.403 89.536 117.051 89.1627 116.603 88.896C116.155 88.6293 115.638 88.496 115.051 88.496C114.475 88.496 113.958 88.6293 113.499 88.896C113.04 89.1627 112.683 89.536 112.427 90.016C112.171 90.496 112.043 91.0453 112.043 91.664V91.84C112.043 92.48 112.182 93.0453 112.459 93.536C112.747 94.016 113.142 94.3947 113.643 94.672C114.155 94.9387 114.736 95.072 115.387 95.072C115.899 95.072 116.374 94.9813 116.811 94.8C117.259 94.6187 117.643 94.3413 117.963 93.968L118.603 94.704C118.23 95.152 117.76 95.4933 117.195 95.728C116.64 95.9627 116.027 96.08 115.355 96.08Z" fill="#828282"/>
<path d="M167.79 52.58V60H167.11V58.96C166.897 59.3133 166.613 59.5833 166.26 59.77C165.913 59.9567 165.52 60.05 165.08 60.05C164.587 60.05 164.14 59.9367 163.74 59.71C163.34 59.4833 163.027 59.1667 162.8 58.76C162.573 58.3533 162.46 57.89 162.46 57.37C162.46 56.85 162.573 56.3867 162.8 55.98C163.027 55.5733 163.34 55.26 163.74 55.04C164.14 54.8133 164.587 54.7 165.08 54.7C165.507 54.7 165.89 54.79 166.23 54.97C166.577 55.1433 166.86 55.4 167.08 55.74V52.58H167.79ZM165.14 59.42C165.507 59.42 165.837 59.3367 166.13 59.17C166.43 58.9967 166.663 58.7533 166.83 58.44C167.003 58.1267 167.09 57.77 167.09 57.37C167.09 56.97 167.003 56.6133 166.83 56.3C166.663 55.9867 166.43 55.7467 166.13 55.58C165.837 55.4067 165.507 55.32 165.14 55.32C164.767 55.32 164.43 55.4067 164.13 55.58C163.837 55.7467 163.603 55.9867 163.43 56.3C163.263 56.6133 163.18 56.97 163.18 57.37C163.18 57.77 163.263 58.1267 163.43 58.44C163.603 58.7533 163.837 58.9967 164.13 59.17C164.43 59.3367 164.767 59.42 165.14 59.42ZM174.347 57.59H169.947C169.987 58.1367 170.197 58.58 170.577 58.92C170.957 59.2533 171.437 59.42 172.017 59.42C172.344 59.42 172.644 59.3633 172.917 59.25C173.191 59.13 173.427 58.9567 173.627 58.73L174.027 59.19C173.794 59.47 173.501 59.6833 173.147 59.83C172.801 59.9767 172.417 60.05 171.997 60.05C171.457 60.05 170.977 59.9367 170.557 59.71C170.144 59.4767 169.821 59.1567 169.587 58.75C169.354 58.3433 169.237 57.8833 169.237 57.37C169.237 56.8567 169.347 56.3967 169.567 55.99C169.794 55.5833 170.101 55.2667 170.487 55.04C170.881 54.8133 171.321 54.7 171.807 54.7C172.294 54.7 172.731 54.8133 173.117 55.04C173.504 55.2667 173.807 55.5833 174.027 55.99C174.247 56.39 174.357 56.85 174.357 57.37L174.347 57.59ZM171.807 55.31C171.301 55.31 170.874 55.4733 170.527 55.8C170.187 56.12 169.994 56.54 169.947 57.06H173.677C173.631 56.54 173.434 56.12 173.087 55.8C172.747 55.4733 172.321 55.31 171.807 55.31ZM182.73 59.36V60H177.82V59.49L180.73 56.64C181.096 56.28 181.343 55.97 181.47 55.71C181.603 55.4433 181.67 55.1767 181.67 54.91C181.67 54.4967 181.526 54.1767 181.24 53.95C180.96 53.7167 180.556 53.6 180.03 53.6C179.21 53.6 178.573 53.86 178.12 54.38L177.61 53.94C177.883 53.62 178.23 53.3733 178.65 53.2C179.076 53.0267 179.556 52.94 180.09 52.94C180.803 52.94 181.366 53.11 181.78 53.45C182.2 53.7833 182.41 54.2433 182.41 54.83C182.41 55.19 182.33 55.5367 182.17 55.87C182.01 56.2033 181.706 56.5867 181.26 57.02L178.88 59.36H182.73ZM188.87 60.05C188.364 60.05 187.907 59.9367 187.5 59.71C187.094 59.4767 186.774 59.1567 186.54 58.75C186.307 58.3433 186.19 57.8833 186.19 57.37C186.19 56.8567 186.307 56.3967 186.54 55.99C186.774 55.5833 187.094 55.2667 187.5 55.04C187.907 54.8133 188.364 54.7 188.87 54.7C189.377 54.7 189.834 54.8133 190.24 55.04C190.647 55.2667 190.964 55.5833 191.19 55.99C191.424 56.3967 191.54 56.8567 191.54 57.37C191.54 57.8833 191.424 58.3433 191.19 58.75C190.964 59.1567 190.647 59.4767 190.24 59.71C189.834 59.9367 189.377 60.05 188.87 60.05ZM188.87 59.42C189.244 59.42 189.577 59.3367 189.87 59.17C190.17 58.9967 190.404 58.7533 190.57 58.44C190.737 58.1267 190.82 57.77 190.82 57.37C190.82 56.97 190.737 56.6133 190.57 56.3C190.404 55.9867 190.17 55.7467 189.87 55.58C189.577 55.4067 189.244 55.32 188.87 55.32C188.497 55.32 188.16 55.4067 187.86 55.58C187.567 55.7467 187.334 55.9867 187.16 56.3C186.994 56.6133 186.91 56.97 186.91 57.37C186.91 57.77 186.994 58.1267 187.16 58.44C187.334 58.7533 187.567 58.9967 187.86 59.17C188.16 59.3367 188.497 59.42 188.87 59.42ZM195.7 54.7C196.193 54.7 196.64 54.8133 197.04 55.04C197.44 55.26 197.753 55.5733 197.98 55.98C198.207 56.3867 198.32 56.85 198.32 57.37C198.32 57.8967 198.207 58.3633 197.98 58.77C197.753 59.1767 197.44 59.4933 197.04 59.72C196.647 59.94 196.2 60.05 195.7 60.05C195.273 60.05 194.887 59.9633 194.54 59.79C194.2 59.61 193.92 59.35 193.7 59.01V61.94H192.99V54.74H193.67V55.78C193.883 55.4333 194.163 55.1667 194.51 54.98C194.863 54.7933 195.26 54.7 195.7 54.7ZM195.65 59.42C196.017 59.42 196.35 59.3367 196.65 59.17C196.95 58.9967 197.183 58.7533 197.35 58.44C197.523 58.1267 197.61 57.77 197.61 57.37C197.61 56.97 197.523 56.6167 197.35 56.31C197.183 55.9967 196.95 55.7533 196.65 55.58C196.35 55.4067 196.017 55.32 195.65 55.32C195.277 55.32 194.94 55.4067 194.64 55.58C194.347 55.7533 194.113 55.9967 193.94 56.31C193.773 56.6167 193.69 56.97 193.69 57.37C193.69 57.77 193.773 58.1267 193.94 58.44C194.113 58.7533 194.347 58.9967 194.64 59.17C194.94 59.3367 195.277 59.42 195.65 59.42ZM199.767 54.74H200.477V60H199.767V54.74ZM200.127 53.59C199.981 53.59 199.857 53.54 199.757 53.44C199.657 53.34 199.607 53.22 199.607 53.08C199.607 52.9467 199.657 52.83 199.757 52.73C199.857 52.63 199.981 52.58 200.127 52.58C200.274 52.58 200.397 52.63 200.497 52.73C200.597 52.8233 200.647 52.9367 200.647 53.07C200.647 53.2167 200.597 53.34 200.497 53.44C200.397 53.54 200.274 53.59 200.127 53.59ZM205.133 54.7C205.793 54.7 206.316 54.8933 206.703 55.28C207.096 55.66 207.293 56.2167 207.293 56.95V60H206.583V57.02C206.583 56.4733 206.446 56.0567 206.173 55.77C205.9 55.4833 205.51 55.34 205.003 55.34C204.436 55.34 203.986 55.51 203.653 55.85C203.326 56.1833 203.163 56.6467 203.163 57.24V60H202.453V54.74H203.133V55.71C203.326 55.39 203.593 55.1433 203.933 54.97C204.28 54.79 204.68 54.7 205.133 54.7ZM209.22 54.74H209.93V60H209.22V54.74ZM209.58 53.59C209.434 53.59 209.31 53.54 209.21 53.44C209.11 53.34 209.06 53.22 209.06 53.08C209.06 52.9467 209.11 52.83 209.21 52.73C209.31 52.63 209.434 52.58 209.58 52.58C209.727 52.58 209.85 52.63 209.95 52.73C210.05 52.8233 210.1 52.9367 210.1 53.07C210.1 53.2167 210.05 53.34 209.95 53.44C209.85 53.54 209.727 53.59 209.58 53.59ZM214.056 60.05C213.549 60.05 213.093 59.9367 212.686 59.71C212.279 59.4767 211.959 59.1567 211.726 58.75C211.493 58.3433 211.376 57.8833 211.376 57.37C211.376 56.8567 211.493 56.3967 211.726 55.99C211.959 55.5833 212.279 55.2667 212.686 55.04C213.093 54.8133 213.549 54.7 214.056 54.7C214.563 54.7 215.019 54.8133 215.426 55.04C215.833 55.2667 216.149 55.5833 216.376 55.99C216.609 56.3967 216.726 56.8567 216.726 57.37C216.726 57.8833 216.609 58.3433 216.376 58.75C216.149 59.1567 215.833 59.4767 215.426 59.71C215.019 59.9367 214.563 60.05 214.056 60.05ZM214.056 59.42C214.429 59.42 214.763 59.3367 215.056 59.17C215.356 58.9967 215.589 58.7533 215.756 58.44C215.923 58.1267 216.006 57.77 216.006 57.37C216.006 56.97 215.923 56.6133 215.756 56.3C215.589 55.9867 215.356 55.7467 215.056 55.58C214.763 55.4067 214.429 55.32 214.056 55.32C213.683 55.32 213.346 55.4067 213.046 55.58C212.753 55.7467 212.519 55.9867 212.346 56.3C212.179 56.6133 212.096 56.97 212.096 57.37C212.096 57.77 212.179 58.1267 212.346 58.44C212.519 58.7533 212.753 58.9967 213.046 59.17C213.346 59.3367 213.683 59.42 214.056 59.42ZM220.856 54.7C221.516 54.7 222.039 54.8933 222.426 55.28C222.819 55.66 223.016 56.2167 223.016 56.95V60H222.306V57.02C222.306 56.4733 222.169 56.0567 221.896 55.77C221.622 55.4833 221.232 55.34 220.726 55.34C220.159 55.34 219.709 55.51 219.376 55.85C219.049 56.1833 218.886 56.6467 218.886 57.24V60H218.176V54.74H218.856V55.71C219.049 55.39 219.316 55.1433 219.656 54.97C220.002 54.79 220.402 54.7 220.856 54.7ZM229.543 57.59H225.143C225.183 58.1367 225.393 58.58 225.773 58.92C226.153 59.2533 226.633 59.42 227.213 59.42C227.539 59.42 227.839 59.3633 228.113 59.25C228.386 59.13 228.623 58.9567 228.823 58.73L229.223 59.19C228.989 59.47 228.696 59.6833 228.343 59.83C227.996 59.9767 227.613 60.05 227.193 60.05C226.653 60.05 226.173 59.9367 225.753 59.71C225.339 59.4767 225.016 59.1567 224.783 58.75C224.549 58.3433 224.433 57.8833 224.433 57.37C224.433 56.8567 224.543 56.3967 224.763 55.99C224.989 55.5833 225.296 55.2667 225.683 55.04C226.076 54.8133 226.516 54.7 227.003 54.7C227.489 54.7 227.926 54.8133 228.313 55.04C228.699 55.2667 229.003 55.5833 229.223 55.99C229.443 56.39 229.553 56.85 229.553 57.37L229.543 57.59ZM227.003 55.31C226.496 55.31 226.069 55.4733 225.723 55.8C225.383 56.12 225.189 56.54 225.143 57.06H228.873C228.826 56.54 228.629 56.12 228.283 55.8C227.943 55.4733 227.516 55.31 227.003 55.31ZM232.408 60.05C231.981 60.05 231.571 59.99 231.178 59.87C230.791 59.7433 230.488 59.5867 230.268 59.4L230.588 58.84C230.808 59.0133 231.084 59.1567 231.418 59.27C231.751 59.3767 232.098 59.43 232.458 59.43C232.938 59.43 233.291 59.3567 233.518 59.21C233.751 59.0567 233.868 58.8433 233.868 58.57C233.868 58.3767 233.804 58.2267 233.678 58.12C233.551 58.0067 233.391 57.9233 233.198 57.87C233.004 57.81 232.748 57.7533 232.428 57.7C232.001 57.62 231.658 57.54 231.398 57.46C231.138 57.3733 230.914 57.23 230.728 57.03C230.548 56.83 230.458 56.5533 230.458 56.2C230.458 55.76 230.641 55.4 231.008 55.12C231.374 54.84 231.884 54.7 232.538 54.7C232.878 54.7 233.218 54.7467 233.558 54.84C233.898 54.9267 234.178 55.0433 234.398 55.19L234.088 55.76C233.654 55.46 233.138 55.31 232.538 55.31C232.084 55.31 231.741 55.39 231.508 55.55C231.281 55.71 231.168 55.92 231.168 56.18C231.168 56.38 231.231 56.54 231.358 56.66C231.491 56.78 231.654 56.87 231.848 56.93C232.041 56.9833 232.308 57.04 232.648 57.1C233.068 57.18 233.404 57.26 233.658 57.34C233.911 57.42 234.128 57.5567 234.308 57.75C234.488 57.9433 234.578 58.21 234.578 58.55C234.578 59.01 234.384 59.3767 233.998 59.65C233.618 59.9167 233.088 60.05 232.408 60.05Z" fill="#828282"/>
<path d="M206.688 96.096C205.845 96.096 205.067 95.9573 204.352 95.68C203.637 95.392 203.019 94.992 202.496 94.48C201.973 93.968 201.563 93.3653 201.264 92.672C200.976 91.9787 200.832 91.2213 200.832 90.4C200.832 89.5787 200.976 88.8213 201.264 88.128C201.563 87.4347 201.973 86.832 202.496 86.32C203.029 85.808 203.653 85.4133 204.368 85.136C205.083 84.848 205.861 84.704 206.704 84.704C207.515 84.704 208.277 84.8427 208.992 85.12C209.707 85.3867 210.309 85.792 210.8 86.336L210.048 87.088C209.589 86.6187 209.083 86.2827 208.528 86.08C207.973 85.8667 207.376 85.76 206.736 85.76C206.064 85.76 205.44 85.8773 204.864 86.112C204.288 86.336 203.787 86.6613 203.36 87.088C202.933 87.504 202.597 87.9947 202.352 88.56C202.117 89.1147 202 89.728 202 90.4C202 91.072 202.117 91.6907 202.352 92.256C202.597 92.8107 202.933 93.3013 203.36 93.728C203.787 94.144 204.288 94.4693 204.864 94.704C205.44 94.928 206.064 95.04 206.736 95.04C207.376 95.04 207.973 94.9333 208.528 94.72C209.083 94.5067 209.589 94.1653 210.048 93.696L210.8 94.448C210.309 94.992 209.707 95.4027 208.992 95.68C208.277 95.9573 207.509 96.096 206.688 96.096ZM216.133 96.08C215.322 96.08 214.592 95.8987 213.941 95.536C213.301 95.1627 212.794 94.656 212.421 94.016C212.048 93.3653 211.861 92.624 211.861 91.792C211.861 90.9493 212.048 90.208 212.421 89.568C212.794 88.928 213.301 88.4267 213.941 88.064C214.581 87.7013 215.312 87.52 216.133 87.52C216.965 87.52 217.701 87.7013 218.341 88.064C218.992 88.4267 219.498 88.928 219.861 89.568C220.234 90.208 220.421 90.9493 220.421 91.792C220.421 92.624 220.234 93.3653 219.861 94.016C219.498 94.656 218.992 95.1627 218.341 95.536C217.69 95.8987 216.954 96.08 216.133 96.08ZM216.133 95.072C216.741 95.072 217.28 94.9387 217.749 94.672C218.218 94.3947 218.586 94.0107 218.853 93.52C219.13 93.0187 219.269 92.4427 219.269 91.792C219.269 91.1307 219.13 90.5547 218.853 90.064C218.586 89.5733 218.218 89.1947 217.749 88.928C217.28 88.6507 216.746 88.512 216.149 88.512C215.552 88.512 215.018 88.6507 214.549 88.928C214.08 89.1947 213.706 89.5733 213.429 90.064C213.152 90.5547 213.013 91.1307 213.013 91.792C213.013 92.4427 213.152 93.0187 213.429 93.52C213.706 94.0107 214.08 94.3947 214.549 94.672C215.018 94.9387 215.546 95.072 216.133 95.072ZM233.236 87.52C233.919 87.52 234.511 87.6533 235.012 87.92C235.524 88.176 235.919 88.5707 236.196 89.104C236.484 89.6373 236.628 90.3093 236.628 91.12V96H235.492V91.232C235.492 90.3467 235.279 89.68 234.852 89.232C234.436 88.7733 233.844 88.544 233.076 88.544C232.5 88.544 231.999 88.6667 231.572 88.912C231.156 89.1467 230.831 89.4933 230.596 89.952C230.372 90.4 230.26 90.944 230.26 91.584V96H229.124V91.232C229.124 90.3467 228.911 89.68 228.484 89.232C228.058 88.7733 227.46 88.544 226.692 88.544C226.127 88.544 225.631 88.6667 225.204 88.912C224.778 89.1467 224.447 89.4933 224.212 89.952C223.988 90.4 223.876 90.944 223.876 91.584V96H222.74V87.6H223.828V89.872L223.652 89.472C223.908 88.864 224.319 88.3893 224.884 88.048C225.46 87.696 226.138 87.52 226.916 87.52C227.738 87.52 228.436 87.728 229.012 88.144C229.588 88.5493 229.962 89.1627 230.132 89.984L229.684 89.808C229.93 89.1253 230.362 88.576 230.98 88.16C231.61 87.7333 232.362 87.52 233.236 87.52ZM244.045 96.08C243.32 96.08 242.664 95.9147 242.077 95.584C241.49 95.2427 241.021 94.7573 240.669 94.128C240.328 93.488 240.157 92.7093 240.157 91.792C240.157 90.8747 240.328 90.1013 240.669 89.472C241.01 88.832 241.474 88.3467 242.061 88.016C242.648 87.6853 243.309 87.52 244.045 87.52C244.845 87.52 245.56 87.7013 246.189 88.064C246.829 88.416 247.33 88.9173 247.693 89.568C248.056 90.208 248.237 90.9493 248.237 91.792C248.237 92.6453 248.056 93.392 247.693 94.032C247.33 94.672 246.829 95.1733 246.189 95.536C245.56 95.8987 244.845 96.08 244.045 96.08ZM239.709 99.104V87.6H240.797V90.128L240.685 91.808L240.845 93.504V99.104H239.709ZM243.965 95.072C244.562 95.072 245.096 94.9387 245.565 94.672C246.034 94.3947 246.408 94.0107 246.685 93.52C246.962 93.0187 247.101 92.4427 247.101 91.792C247.101 91.1413 246.962 90.5707 246.685 90.08C246.408 89.5893 246.034 89.2053 245.565 88.928C245.096 88.6507 244.562 88.512 243.965 88.512C243.368 88.512 242.829 88.6507 242.349 88.928C241.88 89.2053 241.506 89.5893 241.229 90.08C240.962 90.5707 240.829 91.1413 240.829 91.792C240.829 92.4427 240.962 93.0187 241.229 93.52C241.506 94.0107 241.88 94.3947 242.349 94.672C242.829 94.9387 243.368 95.072 243.965 95.072ZM250.553 96V87.6H251.641V89.888L251.529 89.488C251.763 88.848 252.158 88.3627 252.713 88.032C253.267 87.6907 253.955 87.52 254.777 87.52V88.624C254.734 88.624 254.691 88.624 254.649 88.624C254.606 88.6133 254.563 88.608 254.521 88.608C253.635 88.608 252.942 88.88 252.441 89.424C251.939 89.9573 251.689 90.72 251.689 91.712V96H250.553ZM261.489 96V94.144L261.441 93.84V90.736C261.441 90.0213 261.238 89.472 260.833 89.088C260.438 88.704 259.846 88.512 259.057 88.512C258.513 88.512 257.995 88.6027 257.505 88.784C257.014 88.9653 256.598 89.2053 256.257 89.504L255.745 88.656C256.171 88.2933 256.683 88.016 257.281 87.824C257.878 87.6213 258.507 87.52 259.169 87.52C260.257 87.52 261.094 87.792 261.681 88.336C262.278 88.8693 262.577 89.6853 262.577 90.784V96H261.489ZM258.593 96.08C257.963 96.08 257.414 95.9787 256.945 95.776C256.486 95.5627 256.134 95.2747 255.889 94.912C255.643 94.5387 255.521 94.112 255.521 93.632C255.521 93.1947 255.622 92.8 255.825 92.448C256.038 92.0853 256.379 91.7973 256.849 91.584C257.329 91.36 257.969 91.248 258.769 91.248H261.665V92.096H258.801C257.99 92.096 257.425 92.24 257.105 92.528C256.795 92.816 256.641 93.1733 256.641 93.6C256.641 94.08 256.827 94.464 257.201 94.752C257.574 95.04 258.097 95.184 258.769 95.184C259.409 95.184 259.958 95.04 260.417 94.752C260.886 94.4533 261.227 94.0267 261.441 93.472L261.697 94.256C261.483 94.8107 261.11 95.2533 260.577 95.584C260.054 95.9147 259.393 96.08 258.593 96.08ZM273.434 99.184C272.666 99.184 271.93 99.072 271.226 98.848C270.522 98.624 269.951 98.304 269.514 97.888L270.09 97.024C270.484 97.376 270.97 97.6533 271.546 97.856C272.132 98.0693 272.751 98.176 273.402 98.176C274.468 98.176 275.252 97.9253 275.754 97.424C276.255 96.9333 276.506 96.1653 276.506 95.12V93.024L276.666 91.584L276.554 90.144V87.6H277.642V94.976C277.642 96.4267 277.284 97.488 276.57 98.16C275.866 98.8427 274.82 99.184 273.434 99.184ZM273.226 95.68C272.426 95.68 271.706 95.5093 271.066 95.168C270.426 94.816 269.919 94.3307 269.546 93.712C269.183 93.0933 269.002 92.384 269.002 91.584C269.002 90.784 269.183 90.08 269.546 89.472C269.919 88.8533 270.426 88.3733 271.066 88.032C271.706 87.6907 272.426 87.52 273.226 87.52C273.972 87.52 274.644 87.6747 275.242 87.984C275.839 88.2933 276.314 88.752 276.666 89.36C277.018 89.968 277.194 90.7093 277.194 91.584C277.194 92.4587 277.018 93.2 276.666 93.808C276.314 94.416 275.839 94.88 275.242 95.2C274.644 95.52 273.972 95.68 273.226 95.68ZM273.338 94.672C273.956 94.672 274.506 94.544 274.986 94.288C275.466 94.0213 275.844 93.6587 276.122 93.2C276.399 92.7307 276.538 92.192 276.538 91.584C276.538 90.976 276.399 90.4427 276.122 89.984C275.844 89.5253 275.466 89.168 274.986 88.912C274.506 88.6453 273.956 88.512 273.338 88.512C272.73 88.512 272.18 88.6453 271.69 88.912C271.21 89.168 270.831 89.5253 270.554 89.984C270.287 90.4427 270.154 90.976 270.154 91.584C270.154 92.192 270.287 92.7307 270.554 93.2C270.831 93.6587 271.21 94.0213 271.69 94.288C272.18 94.544 272.73 94.672 273.338 94.672ZM286.067 96V94.144L286.019 93.84V90.736C286.019 90.0213 285.816 89.472 285.411 89.088C285.016 88.704 284.424 88.512 283.635 88.512C283.091 88.512 282.573 88.6027 282.083 88.784C281.592 88.9653 281.176 89.2053 280.835 89.504L280.323 88.656C280.749 88.2933 281.261 88.016 281.859 87.824C282.456 87.6213 283.085 87.52 283.747 87.52C284.835 87.52 285.672 87.792 286.259 88.336C286.856 88.8693 287.155 89.6853 287.155 90.784V96H286.067ZM283.171 96.08C282.541 96.08 281.992 95.9787 281.523 95.776C281.064 95.5627 280.712 95.2747 280.467 94.912C280.221 94.5387 280.099 94.112 280.099 93.632C280.099 93.1947 280.2 92.8 280.403 92.448C280.616 92.0853 280.957 91.7973 281.427 91.584C281.907 91.36 282.547 91.248 283.347 91.248H286.243V92.096H283.379C282.568 92.096 282.003 92.24 281.683 92.528C281.373 92.816 281.219 93.1733 281.219 93.6C281.219 94.08 281.405 94.464 281.779 94.752C282.152 95.04 282.675 95.184 283.347 95.184C283.987 95.184 284.536 95.04 284.995 94.752C285.464 94.4533 285.805 94.0267 286.019 93.472L286.275 94.256C286.061 94.8107 285.688 95.2533 285.155 95.584C284.632 95.9147 283.971 96.08 283.171 96.08ZM290.24 96V87.6H291.328V89.888L291.216 89.488C291.451 88.848 291.846 88.3627 292.4 88.032C292.955 87.6907 293.643 87.52 294.464 87.52V88.624C294.422 88.624 294.379 88.624 294.336 88.624C294.294 88.6133 294.251 88.608 294.208 88.608C293.323 88.608 292.63 88.88 292.128 89.424C291.627 89.9573 291.376 90.72 291.376 91.712V96H290.24ZM301.176 96V94.144L301.128 93.84V90.736C301.128 90.0213 300.925 89.472 300.52 89.088C300.125 88.704 299.533 88.512 298.744 88.512C298.2 88.512 297.683 88.6027 297.192 88.784C296.701 88.9653 296.285 89.2053 295.944 89.504L295.432 88.656C295.859 88.2933 296.371 88.016 296.968 87.824C297.565 87.6213 298.195 87.52 298.856 87.52C299.944 87.52 300.781 87.792 301.368 88.336C301.965 88.8693 302.264 89.6853 302.264 90.784V96H301.176ZM298.28 96.08C297.651 96.08 297.101 95.9787 296.632 95.776C296.173 95.5627 295.821 95.2747 295.576 94.912C295.331 94.5387 295.208 94.112 295.208 93.632C295.208 93.1947 295.309 92.8 295.512 92.448C295.725 92.0853 296.067 91.7973 296.536 91.584C297.016 91.36 297.656 91.248 298.456 91.248H301.352V92.096H298.488C297.677 92.096 297.112 92.24 296.792 92.528C296.483 92.816 296.328 93.1733 296.328 93.6C296.328 94.08 296.515 94.464 296.888 94.752C297.261 95.04 297.784 95.184 298.456 95.184C299.096 95.184 299.645 95.04 300.104 94.752C300.573 94.4533 300.915 94.0267 301.128 93.472L301.384 94.256C301.171 94.8107 300.797 95.2533 300.264 95.584C299.741 95.9147 299.08 96.08 298.28 96.08ZM309.638 87.52C310.32 87.52 310.918 87.6533 311.43 87.92C311.952 88.176 312.358 88.5707 312.646 89.104C312.944 89.6373 313.094 90.3093 313.094 91.12V96H311.958V91.232C311.958 90.3467 311.734 89.68 311.286 89.232C310.848 88.7733 310.23 88.544 309.43 88.544C308.832 88.544 308.31 88.6667 307.862 88.912C307.424 89.1467 307.083 89.4933 306.838 89.952C306.603 90.4 306.486 90.944 306.486 91.584V96H305.35V87.6H306.438V89.904L306.262 89.472C306.528 88.864 306.955 88.3893 307.542 88.048C308.128 87.696 308.827 87.52 309.638 87.52ZM318.818 96.08C318.029 96.08 317.421 95.8667 316.994 95.44C316.567 95.0133 316.354 94.4107 316.354 93.632V85.744H317.49V93.568C317.49 94.0587 317.613 94.4373 317.858 94.704C318.114 94.9707 318.477 95.104 318.946 95.104C319.447 95.104 319.863 94.96 320.194 94.672L320.594 95.488C320.37 95.6907 320.098 95.84 319.778 95.936C319.469 96.032 319.149 96.08 318.818 96.08ZM314.85 88.544V87.6H320.05V88.544H314.85ZM322.662 96V87.6H323.798V96H322.662ZM323.238 85.744C323.003 85.744 322.806 85.664 322.646 85.504C322.486 85.344 322.406 85.152 322.406 84.928C322.406 84.704 322.486 84.5173 322.646 84.368C322.806 84.208 323.003 84.128 323.238 84.128C323.473 84.128 323.67 84.2027 323.83 84.352C323.99 84.5013 324.07 84.688 324.07 84.912C324.07 85.1467 323.99 85.344 323.83 85.504C323.681 85.664 323.483 85.744 323.238 85.744ZM330.303 96.08C329.503 96.08 328.783 95.8987 328.143 95.536C327.514 95.1733 327.018 94.672 326.655 94.032C326.292 93.3813 326.111 92.6347 326.111 91.792C326.111 90.9387 326.292 90.192 326.655 89.552C327.018 88.912 327.514 88.416 328.143 88.064C328.783 87.7013 329.503 87.52 330.303 87.52C331.039 87.52 331.695 87.6853 332.271 88.016C332.858 88.3467 333.322 88.832 333.663 89.472C334.015 90.1013 334.191 90.8747 334.191 91.792C334.191 92.6987 334.02 93.472 333.679 94.112C333.338 94.752 332.874 95.2427 332.287 95.584C331.711 95.9147 331.05 96.08 330.303 96.08ZM330.383 95.072C330.98 95.072 331.514 94.9387 331.983 94.672C332.463 94.3947 332.836 94.0107 333.103 93.52C333.38 93.0187 333.519 92.4427 333.519 91.792C333.519 91.1307 333.38 90.5547 333.103 90.064C332.836 89.5733 332.463 89.1947 331.983 88.928C331.514 88.6507 330.98 88.512 330.383 88.512C329.796 88.512 329.268 88.6507 328.799 88.928C328.33 89.1947 327.956 89.5733 327.679 90.064C327.402 90.5547 327.263 91.1307 327.263 91.792C327.263 92.4427 327.402 93.0187 327.679 93.52C327.956 94.0107 328.33 94.3947 328.799 94.672C329.268 94.9387 329.796 95.072 330.383 95.072ZM333.551 96V93.472L333.663 91.776L333.503 90.08V84.128H334.639V96H333.551ZM343.067 96V94.144L343.019 93.84V90.736C343.019 90.0213 342.816 89.472 342.411 89.088C342.016 88.704 341.424 88.512 340.635 88.512C340.091 88.512 339.573 88.6027 339.083 88.784C338.592 88.9653 338.176 89.2053 337.835 89.504L337.323 88.656C337.749 88.2933 338.261 88.016 338.859 87.824C339.456 87.6213 340.085 87.52 340.747 87.52C341.835 87.52 342.672 87.792 343.259 88.336C343.856 88.8693 344.155 89.6853 344.155 90.784V96H343.067ZM340.171 96.08C339.541 96.08 338.992 95.9787 338.523 95.776C338.064 95.5627 337.712 95.2747 337.467 94.912C337.221 94.5387 337.099 94.112 337.099 93.632C337.099 93.1947 337.2 92.8 337.403 92.448C337.616 92.0853 337.957 91.7973 338.427 91.584C338.907 91.36 339.547 91.248 340.347 91.248H343.243V92.096H340.379C339.568 92.096 339.003 92.24 338.683 92.528C338.373 92.816 338.219 93.1733 338.219 93.6C338.219 94.08 338.405 94.464 338.779 94.752C339.152 95.04 339.675 95.184 340.347 95.184C340.987 95.184 341.536 95.04 341.995 94.752C342.464 94.4533 342.805 94.0267 343.019 93.472L343.275 94.256C343.061 94.8107 342.688 95.2533 342.155 95.584C341.632 95.9147 340.971 96.08 340.171 96.08Z" fill="#828282"/>
<path d="M22.352 116V105.76L23.472 106.88H20.112V104.8H24.944V116H22.352ZM42.9729 107.264C43.6555 107.264 44.2582 107.403 44.7809 107.68C45.3142 107.947 45.7302 108.363 46.0289 108.928C46.3382 109.483 46.4929 110.197 46.4929 111.072V116H43.9969V111.456C43.9969 110.763 43.8529 110.251 43.5649 109.92C43.2769 109.589 42.8715 109.424 42.3489 109.424C41.9862 109.424 41.6609 109.509 41.3729 109.68C41.0849 109.84 40.8609 110.085 40.7009 110.416C40.5409 110.747 40.4609 111.168 40.4609 111.68V116H37.9649V111.456C37.9649 110.763 37.8209 110.251 37.5329 109.92C37.2555 109.589 36.8555 109.424 36.3329 109.424C35.9702 109.424 35.6449 109.509 35.3569 109.68C35.0689 109.84 34.8449 110.085 34.6849 110.416C34.5249 110.747 34.4449 111.168 34.4449 111.68V116H31.9489V107.392H34.3329V109.744L33.8849 109.056C34.1835 108.469 34.6049 108.027 35.1489 107.728C35.7035 107.419 36.3329 107.264 37.0369 107.264C37.8262 107.264 38.5142 107.467 39.1009 107.872C39.6982 108.267 40.0929 108.875 40.2849 109.696L39.4049 109.456C39.6929 108.784 40.1515 108.251 40.7809 107.856C41.4209 107.461 42.1515 107.264 42.9729 107.264ZM53.0646 116.128C52.0833 116.128 51.2193 115.936 50.4726 115.552C49.7366 115.168 49.166 114.645 48.7606 113.984C48.3553 113.312 48.1526 112.549 48.1526 111.696C48.1526 110.832 48.35 110.069 48.7446 109.408C49.15 108.736 49.6993 108.213 50.3926 107.84C51.086 107.456 51.87 107.264 52.7446 107.264C53.5873 107.264 54.3446 107.445 55.0166 107.808C55.6993 108.16 56.238 108.672 56.6326 109.344C57.0273 110.005 57.2246 110.8 57.2246 111.728C57.2246 111.824 57.2193 111.936 57.2086 112.064C57.198 112.181 57.1873 112.293 57.1766 112.4H50.1846V110.944H55.8646L54.9046 111.376C54.9046 110.928 54.814 110.539 54.6326 110.208C54.4513 109.877 54.2006 109.621 53.8806 109.44C53.5606 109.248 53.1873 109.152 52.7606 109.152C52.334 109.152 51.9553 109.248 51.6246 109.44C51.3046 109.621 51.054 109.883 50.8726 110.224C50.6913 110.555 50.6006 110.949 50.6006 111.408V111.792C50.6006 112.261 50.702 112.677 50.9046 113.04C51.118 113.392 51.4113 113.664 51.7846 113.856C52.1686 114.037 52.6166 114.128 53.1286 114.128C53.5873 114.128 53.9873 114.059 54.3286 113.92C54.6806 113.781 55.0006 113.573 55.2886 113.296L56.6166 114.736C56.222 115.184 55.726 115.531 55.1286 115.776C54.5313 116.011 53.8433 116.128 53.0646 116.128ZM49.4806 106.288L51.5926 103.984H53.8006L55.9126 106.288H54.0886L51.8806 104.368H53.5126L51.3046 106.288H49.4806ZM61.7824 116.128C61.0464 116.128 60.337 116.043 59.6544 115.872C58.9824 115.691 58.449 115.467 58.0544 115.2L58.8864 113.408C59.281 113.653 59.745 113.856 60.2784 114.016C60.8224 114.165 61.3557 114.24 61.8784 114.24C62.4544 114.24 62.8597 114.171 63.0944 114.032C63.3397 113.893 63.4624 113.701 63.4624 113.456C63.4624 113.253 63.3664 113.104 63.1744 113.008C62.993 112.901 62.7477 112.821 62.4384 112.768C62.129 112.715 61.7877 112.661 61.4144 112.608C61.0517 112.555 60.6837 112.485 60.3104 112.4C59.937 112.304 59.5957 112.165 59.2864 111.984C58.977 111.803 58.7264 111.557 58.5344 111.248C58.353 110.939 58.2624 110.539 58.2624 110.048C58.2624 109.504 58.417 109.024 58.7264 108.608C59.0464 108.192 59.505 107.867 60.1024 107.632C60.6997 107.387 61.4144 107.264 62.2464 107.264C62.833 107.264 63.4304 107.328 64.0384 107.456C64.6464 107.584 65.153 107.771 65.5584 108.016L64.7264 109.792C64.3104 109.547 63.889 109.381 63.4624 109.296C63.0464 109.2 62.641 109.152 62.2464 109.152C61.6917 109.152 61.2864 109.227 61.0304 109.376C60.7744 109.525 60.6464 109.717 60.6464 109.952C60.6464 110.165 60.737 110.325 60.9184 110.432C61.1104 110.539 61.361 110.624 61.6704 110.688C61.9797 110.752 62.3157 110.811 62.6784 110.864C63.0517 110.907 63.425 110.976 63.7984 111.072C64.1717 111.168 64.5077 111.307 64.8064 111.488C65.1157 111.659 65.3664 111.899 65.5584 112.208C65.7504 112.507 65.8464 112.901 65.8464 113.392C65.8464 113.925 65.6864 114.4 65.3664 114.816C65.0464 115.221 64.5824 115.541 63.9744 115.776C63.377 116.011 62.6464 116.128 61.7824 116.128Z" fill="#4F4F4F"/>
<path d="M199.856 116L204.848 104.8H207.408L212.416 116H209.696L205.6 106.112H206.624L202.512 116H199.856ZM202.352 113.6L203.04 111.632H208.8L209.504 113.6H202.352ZM223.021 116.128C222.296 116.128 221.661 115.968 221.117 115.648C220.573 115.328 220.147 114.843 219.837 114.192C219.539 113.531 219.389 112.699 219.389 111.696C219.389 110.683 219.533 109.851 219.821 109.2C220.109 108.549 220.525 108.064 221.069 107.744C221.613 107.424 222.264 107.264 223.021 107.264C223.832 107.264 224.557 107.451 225.197 107.824C225.848 108.187 226.36 108.699 226.733 109.36C227.117 110.021 227.309 110.8 227.309 111.696C227.309 112.603 227.117 113.387 226.733 114.048C226.36 114.709 225.848 115.221 225.197 115.584C224.557 115.947 223.832 116.128 223.021 116.128ZM217.933 119.104V107.392H220.317V109.152L220.269 111.712L220.429 114.256V119.104H217.933ZM222.589 114.08C223.005 114.08 223.373 113.984 223.693 113.792C224.024 113.6 224.285 113.328 224.477 112.976C224.68 112.613 224.781 112.187 224.781 111.696C224.781 111.195 224.68 110.768 224.477 110.416C224.285 110.064 224.024 109.792 223.693 109.6C223.373 109.408 223.005 109.312 222.589 109.312C222.173 109.312 221.8 109.408 221.469 109.6C221.139 109.792 220.877 110.064 220.685 110.416C220.493 110.768 220.397 111.195 220.397 111.696C220.397 112.187 220.493 112.613 220.685 112.976C220.877 113.328 221.139 113.6 221.469 113.792C221.8 113.984 222.173 114.08 222.589 114.08ZM234.12 116V114.32L233.96 113.952V110.944C233.96 110.411 233.794 109.995 233.464 109.696C233.144 109.397 232.648 109.248 231.976 109.248C231.517 109.248 231.064 109.323 230.616 109.472C230.178 109.611 229.805 109.803 229.496 110.048L228.6 108.304C229.069 107.973 229.634 107.717 230.296 107.536C230.957 107.355 231.629 107.264 232.312 107.264C233.624 107.264 234.642 107.573 235.368 108.192C236.093 108.811 236.456 109.776 236.456 111.088V116H234.12ZM231.496 116.128C230.824 116.128 230.248 116.016 229.768 115.792C229.288 115.557 228.92 115.243 228.664 114.848C228.408 114.453 228.28 114.011 228.28 113.52C228.28 113.008 228.402 112.56 228.648 112.176C228.904 111.792 229.304 111.493 229.848 111.28C230.392 111.056 231.101 110.944 231.976 110.944H234.264V112.4H232.248C231.661 112.4 231.256 112.496 231.032 112.688C230.818 112.88 230.712 113.12 230.712 113.408C230.712 113.728 230.834 113.984 231.08 114.176C231.336 114.357 231.682 114.448 232.12 114.448C232.536 114.448 232.909 114.352 233.24 114.16C233.57 113.957 233.81 113.664 233.96 113.28L234.344 114.432C234.162 114.987 233.832 115.408 233.352 115.696C232.872 115.984 232.253 116.128 231.496 116.128ZM238.715 116V107.392H241.099V109.824L240.763 109.12C241.019 108.512 241.429 108.053 241.995 107.744C242.56 107.424 243.248 107.264 244.059 107.264V109.568C243.952 109.557 243.856 109.552 243.771 109.552C243.685 109.541 243.595 109.536 243.499 109.536C242.816 109.536 242.261 109.733 241.835 110.128C241.419 110.512 241.211 111.115 241.211 111.936V116H238.715ZM249.36 116.128C248.346 116.128 247.557 115.872 246.992 115.36C246.426 114.837 246.144 114.064 246.144 113.04V105.488H248.64V113.008C248.64 113.371 248.736 113.653 248.928 113.856C249.12 114.048 249.381 114.144 249.712 114.144C250.106 114.144 250.442 114.037 250.72 113.824L251.392 115.584C251.136 115.765 250.826 115.904 250.464 116C250.112 116.085 249.744 116.128 249.36 116.128ZM244.816 109.504V107.584H250.784V109.504H244.816ZM252.793 116V107.392H255.289V116H252.793ZM254.041 106.192C253.582 106.192 253.209 106.059 252.921 105.792C252.633 105.525 252.489 105.195 252.489 104.8C252.489 104.405 252.633 104.075 252.921 103.808C253.209 103.541 253.582 103.408 254.041 103.408C254.499 103.408 254.873 103.536 255.161 103.792C255.449 104.037 255.593 104.357 255.593 104.752C255.593 105.168 255.449 105.515 255.161 105.792C254.883 106.059 254.51 106.192 254.041 106.192ZM257.605 116V107.392H259.989V109.824L259.653 109.12C259.909 108.512 260.32 108.053 260.885 107.744C261.45 107.424 262.138 107.264 262.949 107.264V109.568C262.842 109.557 262.746 109.552 262.661 109.552C262.576 109.541 262.485 109.536 262.389 109.536C261.706 109.536 261.152 109.733 260.725 110.128C260.309 110.512 260.101 111.115 260.101 111.936V116H257.605ZM272.723 116.128C271.912 116.128 271.182 115.947 270.531 115.584C269.88 115.211 269.363 114.693 268.979 114.032C268.606 113.371 268.419 112.592 268.419 111.696C268.419 110.789 268.606 110.005 268.979 109.344C269.363 108.683 269.88 108.171 270.531 107.808C271.182 107.445 271.912 107.264 272.723 107.264C273.448 107.264 274.083 107.424 274.627 107.744C275.171 108.064 275.592 108.549 275.891 109.2C276.19 109.851 276.339 110.683 276.339 111.696C276.339 112.699 276.195 113.531 275.907 114.192C275.619 114.843 275.203 115.328 274.659 115.648C274.126 115.968 273.48 116.128 272.723 116.128ZM273.155 114.08C273.56 114.08 273.928 113.984 274.259 113.792C274.59 113.6 274.851 113.328 275.043 112.976C275.246 112.613 275.347 112.187 275.347 111.696C275.347 111.195 275.246 110.768 275.043 110.416C274.851 110.064 274.59 109.792 274.259 109.6C273.928 109.408 273.56 109.312 273.155 109.312C272.739 109.312 272.366 109.408 272.035 109.6C271.704 109.792 271.438 110.064 271.235 110.416C271.043 110.768 270.947 111.195 270.947 111.696C270.947 112.187 271.043 112.613 271.235 112.976C271.438 113.328 271.704 113.6 272.035 113.792C272.366 113.984 272.739 114.08 273.155 114.08ZM275.411 116V114.24L275.459 111.68L275.299 109.136V104.128H277.795V116H275.411ZM284.377 116.128C283.396 116.128 282.532 115.936 281.785 115.552C281.049 115.168 280.478 114.645 280.073 113.984C279.668 113.312 279.465 112.549 279.465 111.696C279.465 110.832 279.662 110.069 280.057 109.408C280.462 108.736 281.012 108.213 281.705 107.84C282.398 107.456 283.182 107.264 284.057 107.264C284.9 107.264 285.657 107.445 286.329 107.808C287.012 108.16 287.55 108.672 287.945 109.344C288.34 110.005 288.537 110.8 288.537 111.728C288.537 111.824 288.532 111.936 288.521 112.064C288.51 112.181 288.5 112.293 288.489 112.4H281.497V110.944H287.177L286.217 111.376C286.217 110.928 286.126 110.539 285.945 110.208C285.764 109.877 285.513 109.621 285.193 109.44C284.873 109.248 284.5 109.152 284.073 109.152C283.646 109.152 283.268 109.248 282.937 109.44C282.617 109.621 282.366 109.883 282.185 110.224C282.004 110.555 281.913 110.949 281.913 111.408V111.792C281.913 112.261 282.014 112.677 282.217 113.04C282.43 113.392 282.724 113.664 283.097 113.856C283.481 114.037 283.929 114.128 284.441 114.128C284.9 114.128 285.3 114.059 285.641 113.92C285.993 113.781 286.313 113.573 286.601 113.296L287.929 114.736C287.534 115.184 287.038 115.531 286.441 115.776C285.844 116.011 285.156 116.128 284.377 116.128ZM298.01 117.92V102.88H299.61V117.92H298.01ZM298.586 116.192C297.69 116.192 296.831 116.075 296.01 115.84C295.189 115.595 294.527 115.28 294.026 114.896L294.906 112.944C295.386 113.285 295.951 113.568 296.602 113.792C297.263 114.005 297.93 114.112 298.602 114.112C299.114 114.112 299.525 114.064 299.834 113.968C300.154 113.861 300.389 113.717 300.538 113.536C300.687 113.355 300.762 113.147 300.762 112.912C300.762 112.613 300.645 112.379 300.41 112.208C300.175 112.027 299.866 111.883 299.482 111.776C299.098 111.659 298.671 111.552 298.202 111.456C297.743 111.349 297.279 111.221 296.81 111.072C296.351 110.923 295.93 110.731 295.546 110.496C295.162 110.261 294.847 109.952 294.602 109.568C294.367 109.184 294.25 108.693 294.25 108.096C294.25 107.456 294.421 106.875 294.762 106.352C295.114 105.819 295.637 105.397 296.33 105.088C297.034 104.768 297.914 104.608 298.97 104.608C299.674 104.608 300.367 104.693 301.05 104.864C301.733 105.024 302.335 105.269 302.858 105.6L302.058 107.568C301.535 107.269 301.013 107.051 300.49 106.912C299.967 106.763 299.455 106.688 298.954 106.688C298.453 106.688 298.042 106.747 297.722 106.864C297.402 106.981 297.173 107.136 297.034 107.328C296.895 107.509 296.826 107.723 296.826 107.968C296.826 108.256 296.943 108.491 297.178 108.672C297.413 108.843 297.722 108.981 298.106 109.088C298.49 109.195 298.911 109.301 299.37 109.408C299.839 109.515 300.303 109.637 300.762 109.776C301.231 109.915 301.658 110.101 302.042 110.336C302.426 110.571 302.735 110.88 302.97 111.264C303.215 111.648 303.338 112.133 303.338 112.72C303.338 113.349 303.162 113.925 302.81 114.448C302.458 114.971 301.93 115.392 301.226 115.712C300.533 116.032 299.653 116.192 298.586 116.192ZM304.309 116V114.32L308.629 110.24C308.971 109.931 309.221 109.653 309.381 109.408C309.541 109.163 309.648 108.939 309.701 108.736C309.765 108.533 309.797 108.347 309.797 108.176C309.797 107.728 309.643 107.387 309.333 107.152C309.035 106.907 308.592 106.784 308.005 106.784C307.536 106.784 307.099 106.875 306.693 107.056C306.299 107.237 305.963 107.52 305.685 107.904L303.797 106.688C304.224 106.048 304.821 105.541 305.589 105.168C306.357 104.795 307.243 104.608 308.245 104.608C309.077 104.608 309.803 104.747 310.421 105.024C311.051 105.291 311.536 105.669 311.877 106.16C312.229 106.651 312.405 107.237 312.405 107.92C312.405 108.283 312.357 108.645 312.261 109.008C312.176 109.36 311.995 109.733 311.717 110.128C311.451 110.523 311.056 110.965 310.533 111.456L306.949 114.832L306.453 113.888H312.773V116H304.309ZM318.643 116.192C317.725 116.192 316.904 115.968 316.179 115.52C315.453 115.061 314.883 114.4 314.467 113.536C314.051 112.672 313.843 111.627 313.843 110.4C313.843 109.173 314.051 108.128 314.467 107.264C314.883 106.4 315.453 105.744 316.179 105.296C316.904 104.837 317.725 104.608 318.643 104.608C319.571 104.608 320.392 104.837 321.107 105.296C321.832 105.744 322.403 106.4 322.819 107.264C323.235 108.128 323.443 109.173 323.443 110.4C323.443 111.627 323.235 112.672 322.819 113.536C322.403 114.4 321.832 115.061 321.107 115.52C320.392 115.968 319.571 116.192 318.643 116.192ZM318.643 114C319.08 114 319.459 113.877 319.779 113.632C320.109 113.387 320.365 112.997 320.547 112.464C320.739 111.931 320.835 111.243 320.835 110.4C320.835 109.557 320.739 108.869 320.547 108.336C320.365 107.803 320.109 107.413 319.779 107.168C319.459 106.923 319.08 106.8 318.643 106.8C318.216 106.8 317.837 106.923 317.507 107.168C317.187 107.413 316.931 107.803 316.739 108.336C316.557 108.869 316.467 109.557 316.467 110.4C316.467 111.243 316.557 111.931 316.739 112.464C316.931 112.997 317.187 113.387 317.507 113.632C317.837 113.877 318.216 114 318.643 114ZM329.502 116.192C328.585 116.192 327.763 115.968 327.038 115.52C326.313 115.061 325.742 114.4 325.326 113.536C324.91 112.672 324.702 111.627 324.702 110.4C324.702 109.173 324.91 108.128 325.326 107.264C325.742 106.4 326.313 105.744 327.038 105.296C327.763 104.837 328.585 104.608 329.502 104.608C330.43 104.608 331.251 104.837 331.966 105.296C332.691 105.744 333.262 106.4 333.678 107.264C334.094 108.128 334.302 109.173 334.302 110.4C334.302 111.627 334.094 112.672 333.678 113.536C333.262 114.4 332.691 115.061 331.966 115.52C331.251 115.968 330.43 116.192 329.502 116.192ZM329.502 114C329.939 114 330.318 113.877 330.638 113.632C330.969 113.387 331.225 112.997 331.406 112.464C331.598 111.931 331.694 111.243 331.694 110.4C331.694 109.557 331.598 108.869 331.406 108.336C331.225 107.803 330.969 107.413 330.638 107.168C330.318 106.923 329.939 106.8 329.502 106.8C329.075 106.8 328.697 106.923 328.366 107.168C328.046 107.413 327.79 107.803 327.598 108.336C327.417 108.869 327.326 109.557 327.326 110.4C327.326 111.243 327.417 111.931 327.598 112.464C327.79 112.997 328.046 113.387 328.366 113.632C328.697 113.877 329.075 114 329.502 114ZM336.83 116.128C336.404 116.128 336.036 115.984 335.726 115.696C335.428 115.397 335.278 115.019 335.278 114.56C335.278 114.101 335.428 113.733 335.726 113.456C336.036 113.168 336.404 113.024 336.83 113.024C337.268 113.024 337.636 113.168 337.934 113.456C338.233 113.733 338.382 114.101 338.382 114.56C338.382 115.019 338.233 115.397 337.934 115.696C337.636 115.984 337.268 116.128 336.83 116.128ZM344.143 116.192C343.225 116.192 342.404 115.968 341.679 115.52C340.953 115.061 340.383 114.4 339.967 113.536C339.551 112.672 339.343 111.627 339.343 110.4C339.343 109.173 339.551 108.128 339.967 107.264C340.383 106.4 340.953 105.744 341.679 105.296C342.404 104.837 343.225 104.608 344.143 104.608C345.071 104.608 345.892 104.837 346.607 105.296C347.332 105.744 347.903 106.4 348.319 107.264C348.735 108.128 348.943 109.173 348.943 110.4C348.943 111.627 348.735 112.672 348.319 113.536C347.903 114.4 347.332 115.061 346.607 115.52C345.892 115.968 345.071 116.192 344.143 116.192ZM344.143 114C344.58 114 344.959 113.877 345.279 113.632C345.609 113.387 345.865 112.997 346.047 112.464C346.239 111.931 346.335 111.243 346.335 110.4C346.335 109.557 346.239 108.869 346.047 108.336C345.865 107.803 345.609 107.413 345.279 107.168C344.959 106.923 344.58 106.8 344.143 106.8C343.716 106.8 343.337 106.923 343.007 107.168C342.687 107.413 342.431 107.803 342.239 108.336C342.057 108.869 341.967 109.557 341.967 110.4C341.967 111.243 342.057 111.931 342.239 112.464C342.431 112.997 342.687 113.387 343.007 113.632C343.337 113.877 343.716 114 344.143 114ZM355.002 116.192C354.085 116.192 353.263 115.968 352.538 115.52C351.813 115.061 351.242 114.4 350.826 113.536C350.41 112.672 350.202 111.627 350.202 110.4C350.202 109.173 350.41 108.128 350.826 107.264C351.242 106.4 351.813 105.744 352.538 105.296C353.263 104.837 354.085 104.608 355.002 104.608C355.93 104.608 356.751 104.837 357.466 105.296C358.191 105.744 358.762 106.4 359.178 107.264C359.594 108.128 359.802 109.173 359.802 110.4C359.802 111.627 359.594 112.672 359.178 113.536C358.762 114.4 358.191 115.061 357.466 115.52C356.751 115.968 355.93 116.192 355.002 116.192ZM355.002 114C355.439 114 355.818 113.877 356.138 113.632C356.469 113.387 356.725 112.997 356.906 112.464C357.098 111.931 357.194 111.243 357.194 110.4C357.194 109.557 357.098 108.869 356.906 108.336C356.725 107.803 356.469 107.413 356.138 107.168C355.818 106.923 355.439 106.8 355.002 106.8C354.575 106.8 354.197 106.923 353.866 107.168C353.546 107.413 353.29 107.803 353.098 108.336C352.917 108.869 352.826 109.557 352.826 110.4C352.826 111.243 352.917 111.931 353.098 112.464C353.29 112.997 353.546 113.387 353.866 113.632C354.197 113.877 354.575 114 355.002 114ZM365.862 116.192C364.944 116.192 364.123 115.968 363.398 115.52C362.672 115.061 362.102 114.4 361.686 113.536C361.27 112.672 361.062 111.627 361.062 110.4C361.062 109.173 361.27 108.128 361.686 107.264C362.102 106.4 362.672 105.744 363.398 105.296C364.123 104.837 364.944 104.608 365.862 104.608C366.79 104.608 367.611 104.837 368.326 105.296C369.051 105.744 369.622 106.4 370.038 107.264C370.454 108.128 370.662 109.173 370.662 110.4C370.662 111.627 370.454 112.672 370.038 113.536C369.622 114.4 369.051 115.061 368.326 115.52C367.611 115.968 366.79 116.192 365.862 116.192ZM365.862 114C366.299 114 366.678 113.877 366.998 113.632C367.328 113.387 367.584 112.997 367.766 112.464C367.958 111.931 368.054 111.243 368.054 110.4C368.054 109.557 367.958 108.869 367.766 108.336C367.584 107.803 367.328 107.413 366.998 107.168C366.678 106.923 366.299 106.8 365.862 106.8C365.435 106.8 365.056 106.923 364.726 107.168C364.406 107.413 364.15 107.803 363.958 108.336C363.776 108.869 363.686 109.557 363.686 110.4C363.686 111.243 363.776 111.931 363.958 112.464C364.15 112.997 364.406 113.387 364.726 113.632C365.056 113.877 365.435 114 365.862 114Z" fill="#4F4F4F"/>
<path d="M94.008 156.192C93.112 156.192 92.2533 156.075 91.432 155.84C90.6107 155.595 89.9493 155.28 89.448 154.896L90.328 152.944C90.808 153.285 91.3733 153.568 92.024 153.792C92.6853 154.005 93.352 154.112 94.024 154.112C94.536 154.112 94.9467 154.064 95.256 153.968C95.576 153.861 95.8107 153.717 95.96 153.536C96.1093 153.355 96.184 153.147 96.184 152.912C96.184 152.613 96.0667 152.379 95.832 152.208C95.5973 152.027 95.288 151.883 94.904 151.776C94.52 151.659 94.0933 151.552 93.624 151.456C93.1653 151.349 92.7013 151.221 92.232 151.072C91.7733 150.923 91.352 150.731 90.968 150.496C90.584 150.261 90.2693 149.952 90.024 149.568C89.7893 149.184 89.672 148.693 89.672 148.096C89.672 147.456 89.8427 146.875 90.184 146.352C90.536 145.819 91.0587 145.397 91.752 145.088C92.456 144.768 93.336 144.608 94.392 144.608C95.096 144.608 95.7893 144.693 96.472 144.864C97.1547 145.024 97.7573 145.269 98.28 145.6L97.48 147.568C96.9573 147.269 96.4347 147.051 95.912 146.912C95.3893 146.763 94.8773 146.688 94.376 146.688C93.8747 146.688 93.464 146.747 93.144 146.864C92.824 146.981 92.5947 147.136 92.456 147.328C92.3173 147.509 92.248 147.723 92.248 147.968C92.248 148.256 92.3653 148.491 92.6 148.672C92.8347 148.843 93.144 148.981 93.528 149.088C93.912 149.195 94.3333 149.301 94.792 149.408C95.2613 149.515 95.7253 149.637 96.184 149.776C96.6533 149.915 97.08 150.101 97.464 150.336C97.848 150.571 98.1573 150.88 98.392 151.264C98.6373 151.648 98.76 152.133 98.76 152.72C98.76 153.349 98.584 153.925 98.232 154.448C97.88 154.971 97.352 155.392 96.648 155.712C95.9547 156.032 95.0747 156.192 94.008 156.192ZM100.531 156V144.8H103.123V156H100.531ZM105.781 156V144.8H107.925L112.693 152.704H111.557L116.245 144.8H118.373L118.405 156H115.973L115.957 148.528H116.405L112.661 154.816H111.493L107.669 148.528H108.213V156H105.781Z" fill="#4F4F4F"/>
<path d="M201.328 156V144.8H203.472L210.08 152.864H209.04V144.8H211.6V156H209.472L202.848 147.936H203.888V156H201.328ZM212.778 156L217.77 144.8H220.33L225.338 156H222.618L218.522 146.112H219.546L215.434 156H212.778ZM215.274 153.6L215.962 151.632H221.722L222.426 153.6H215.274ZM220.25 143.936C219.973 143.936 219.727 143.888 219.514 143.792C219.301 143.685 219.109 143.568 218.938 143.44C218.767 143.301 218.607 143.184 218.458 143.088C218.309 142.981 218.159 142.928 218.01 142.928C217.797 142.928 217.621 143.008 217.482 143.168C217.343 143.317 217.263 143.536 217.242 143.824H215.978C215.999 143.109 216.175 142.544 216.506 142.128C216.837 141.701 217.285 141.488 217.85 141.488C218.127 141.488 218.373 141.541 218.586 141.648C218.799 141.744 218.991 141.861 219.162 142C219.343 142.139 219.509 142.261 219.658 142.368C219.807 142.464 219.951 142.512 220.09 142.512C220.314 142.512 220.495 142.437 220.634 142.288C220.773 142.128 220.847 141.915 220.858 141.648H222.122C222.111 142.331 221.935 142.885 221.594 143.312C221.263 143.728 220.815 143.936 220.25 143.936ZM231.784 156.192C230.898 156.192 230.077 156.048 229.32 155.76C228.573 155.472 227.922 155.067 227.368 154.544C226.824 154.021 226.397 153.408 226.088 152.704C225.789 152 225.64 151.232 225.64 150.4C225.64 149.568 225.789 148.8 226.088 148.096C226.397 147.392 226.829 146.779 227.384 146.256C227.938 145.733 228.589 145.328 229.336 145.04C230.082 144.752 230.893 144.608 231.768 144.608C232.653 144.608 233.464 144.752 234.2 145.04C234.946 145.328 235.592 145.733 236.136 146.256C236.69 146.779 237.122 147.392 237.432 148.096C237.741 148.789 237.896 149.557 237.896 150.4C237.896 151.232 237.741 152.005 237.432 152.72C237.122 153.424 236.69 154.037 236.136 154.56C235.592 155.072 234.946 155.472 234.2 155.76C233.464 156.048 232.658 156.192 231.784 156.192ZM231.768 153.984C232.269 153.984 232.728 153.899 233.144 153.728C233.57 153.557 233.944 153.312 234.264 152.992C234.584 152.672 234.829 152.293 235 151.856C235.181 151.419 235.272 150.933 235.272 150.4C235.272 149.867 235.181 149.381 235 148.944C234.829 148.507 234.584 148.128 234.264 147.808C233.954 147.488 233.586 147.243 233.16 147.072C232.733 146.901 232.269 146.816 231.768 146.816C231.266 146.816 230.802 146.901 230.376 147.072C229.96 147.243 229.592 147.488 229.272 147.808C228.952 148.128 228.701 148.507 228.52 148.944C228.349 149.381 228.264 149.867 228.264 150.4C228.264 150.923 228.349 151.408 228.52 151.856C228.701 152.293 228.946 152.672 229.256 152.992C229.576 153.312 229.949 153.557 230.376 153.728C230.802 153.899 231.266 153.984 231.768 153.984Z" fill="#4F4F4F"/>
<path d="M21.824 136V124.8H26.016C26.9653 124.8 27.7813 124.955 28.464 125.264C29.1467 125.563 29.6693 126 30.032 126.576C30.4053 127.141 30.592 127.829 30.592 128.64C30.592 129.429 30.4053 130.112 30.032 130.688C29.6693 131.253 29.1467 131.691 28.464 132C27.7813 132.309 26.9653 132.464 26.016 132.464H22.48L23.008 131.904V136H21.824ZM23.008 132L22.48 131.424H25.984C27.104 131.424 27.952 131.184 28.528 130.704C29.1147 130.213 29.408 129.525 29.408 128.64C29.408 127.744 29.1147 127.051 28.528 126.56C27.952 126.069 27.104 125.824 25.984 125.824H22.48L23.008 125.264V132ZM38.098 136V134.144L38.05 133.84V130.736C38.05 130.021 37.8473 129.472 37.442 129.088C37.0473 128.704 36.4553 128.512 35.666 128.512C35.122 128.512 34.6047 128.603 34.114 128.784C33.6233 128.965 33.2073 129.205 32.866 129.504L32.354 128.656C32.7807 128.293 33.2927 128.016 33.89 127.824C34.4873 127.621 35.1167 127.52 35.778 127.52C36.866 127.52 37.7033 127.792 38.29 128.336C38.8873 128.869 39.186 129.685 39.186 130.784V136H38.098ZM35.202 136.08C34.5727 136.08 34.0233 135.979 33.554 135.776C33.0953 135.563 32.7433 135.275 32.498 134.912C32.2527 134.539 32.13 134.112 32.13 133.632C32.13 133.195 32.2313 132.8 32.434 132.448C32.6473 132.085 32.9887 131.797 33.458 131.584C33.938 131.36 34.578 131.248 35.378 131.248H38.274V132.096H35.41C34.5993 132.096 34.034 132.24 33.714 132.528C33.4047 132.816 33.25 133.173 33.25 133.6C33.25 134.08 33.4367 134.464 33.81 134.752C34.1833 135.04 34.706 135.184 35.378 135.184C36.018 135.184 36.5673 135.04 37.026 134.752C37.4953 134.453 37.8367 134.027 38.05 133.472L38.306 134.256C38.0927 134.811 37.7193 135.253 37.186 135.584C36.6633 135.915 36.002 136.08 35.202 136.08ZM45.8555 139.184C45.0875 139.184 44.3515 139.072 43.6475 138.848C42.9435 138.624 42.3728 138.304 41.9355 137.888L42.5115 137.024C42.9062 137.376 43.3915 137.653 43.9675 137.856C44.5542 138.069 45.1728 138.176 45.8235 138.176C46.8902 138.176 47.6742 137.925 48.1755 137.424C48.6768 136.933 48.9275 136.165 48.9275 135.12V133.024L49.0875 131.584L48.9755 130.144V127.6H50.0635V134.976C50.0635 136.427 49.7062 137.488 48.9915 138.16C48.2875 138.843 47.2422 139.184 45.8555 139.184ZM45.6475 135.68C44.8475 135.68 44.1275 135.509 43.4875 135.168C42.8475 134.816 42.3408 134.331 41.9675 133.712C41.6048 133.093 41.4235 132.384 41.4235 131.584C41.4235 130.784 41.6048 130.08 41.9675 129.472C42.3408 128.853 42.8475 128.373 43.4875 128.032C44.1275 127.691 44.8475 127.52 45.6475 127.52C46.3942 127.52 47.0662 127.675 47.6635 127.984C48.2608 128.293 48.7355 128.752 49.0875 129.36C49.4395 129.968 49.6155 130.709 49.6155 131.584C49.6155 132.459 49.4395 133.2 49.0875 133.808C48.7355 134.416 48.2608 134.88 47.6635 135.2C47.0662 135.52 46.3942 135.68 45.6475 135.68ZM45.7595 134.672C46.3782 134.672 46.9275 134.544 47.4075 134.288C47.8875 134.021 48.2662 133.659 48.5435 133.2C48.8208 132.731 48.9595 132.192 48.9595 131.584C48.9595 130.976 48.8208 130.443 48.5435 129.984C48.2662 129.525 47.8875 129.168 47.4075 128.912C46.9275 128.645 46.3782 128.512 45.7595 128.512C45.1515 128.512 44.6022 128.645 44.1115 128.912C43.6315 129.168 43.2528 129.525 42.9755 129.984C42.7088 130.443 42.5755 130.976 42.5755 131.584C42.5755 132.192 42.7088 132.731 42.9755 133.2C43.2528 133.659 43.6315 134.021 44.1115 134.288C44.6022 134.544 45.1515 134.672 45.7595 134.672ZM58.4886 136V134.144L58.4406 133.84V130.736C58.4406 130.021 58.238 129.472 57.8326 129.088C57.438 128.704 56.846 128.512 56.0566 128.512C55.5126 128.512 54.9953 128.603 54.5046 128.784C54.014 128.965 53.598 129.205 53.2566 129.504L52.7446 128.656C53.1713 128.293 53.6833 128.016 54.2806 127.824C54.878 127.621 55.5073 127.52 56.1686 127.52C57.2566 127.52 58.094 127.792 58.6806 128.336C59.278 128.869 59.5766 129.685 59.5766 130.784V136H58.4886ZM55.5926 136.08C54.9633 136.08 54.414 135.979 53.9446 135.776C53.486 135.563 53.134 135.275 52.8886 134.912C52.6433 134.539 52.5206 134.112 52.5206 133.632C52.5206 133.195 52.622 132.8 52.8246 132.448C53.038 132.085 53.3793 131.797 53.8486 131.584C54.3286 131.36 54.9686 131.248 55.7686 131.248H58.6646V132.096H55.8006C54.99 132.096 54.4246 132.24 54.1046 132.528C53.7953 132.816 53.6406 133.173 53.6406 133.6C53.6406 134.08 53.8273 134.464 54.2006 134.752C54.574 135.04 55.0966 135.184 55.7686 135.184C56.4086 135.184 56.958 135.04 57.4166 134.752C57.886 134.453 58.2273 134.027 58.4406 133.472L58.6966 134.256C58.4833 134.811 58.11 135.253 57.5766 135.584C57.054 135.915 56.3926 136.08 55.5926 136.08ZM73.1581 127.52C73.8408 127.52 74.4328 127.653 74.9341 127.92C75.4461 128.176 75.8408 128.571 76.1181 129.104C76.4061 129.637 76.5501 130.309 76.5501 131.12V136H75.4141V131.232C75.4141 130.347 75.2008 129.68 74.7741 129.232C74.3581 128.773 73.7661 128.544 72.9981 128.544C72.4221 128.544 71.9208 128.667 71.4941 128.912C71.0781 129.147 70.7528 129.493 70.5181 129.952C70.2941 130.4 70.1821 130.944 70.1821 131.584V136H69.0461V131.232C69.0461 130.347 68.8328 129.68 68.4061 129.232C67.9795 128.773 67.3821 128.544 66.6141 128.544C66.0488 128.544 65.5528 128.667 65.1261 128.912C64.6995 129.147 64.3688 129.493 64.1341 129.952C63.9101 130.4 63.7981 130.944 63.7981 131.584V136H62.6621V127.6H63.7501V129.872L63.5741 129.472C63.8301 128.864 64.2408 128.389 64.8061 128.048C65.3821 127.696 66.0595 127.52 66.8381 127.52C67.6595 127.52 68.3581 127.728 68.9341 128.144C69.5101 128.549 69.8835 129.163 70.0541 129.984L69.6061 129.808C69.8515 129.125 70.2835 128.576 70.9021 128.16C71.5315 127.733 72.2835 127.52 73.1581 127.52ZM83.1989 136.08C82.3242 136.08 81.5562 135.899 80.8949 135.536C80.2335 135.163 79.7162 134.656 79.3429 134.016C78.9695 133.365 78.7829 132.624 78.7829 131.792C78.7829 130.96 78.9589 130.224 79.3109 129.584C79.6735 128.944 80.1642 128.443 80.7829 128.08C81.4122 127.707 82.1162 127.52 82.8949 127.52C83.6842 127.52 84.3829 127.701 84.9909 128.064C85.6095 128.416 86.0949 128.917 86.4469 129.568C86.7989 130.208 86.9749 130.949 86.9749 131.792C86.9749 131.845 86.9695 131.904 86.9589 131.968C86.9589 132.021 86.9589 132.08 86.9589 132.144H79.6469V131.296H86.3509L85.9029 131.632C85.9029 131.024 85.7695 130.485 85.5029 130.016C85.2469 129.536 84.8949 129.163 84.4469 128.896C83.9989 128.629 83.4815 128.496 82.8949 128.496C82.3189 128.496 81.8015 128.629 81.3429 128.896C80.8842 129.163 80.5269 129.536 80.2709 130.016C80.0149 130.496 79.8869 131.045 79.8869 131.664V131.84C79.8869 132.48 80.0255 133.045 80.3029 133.536C80.5909 134.016 80.9855 134.395 81.4869 134.672C81.9989 134.939 82.5802 135.072 83.2309 135.072C83.7429 135.072 84.2175 134.981 84.6549 134.8C85.1029 134.619 85.4869 134.341 85.8069 133.968L86.4469 134.704C86.0735 135.152 85.6042 135.493 85.0389 135.728C84.4842 135.963 83.8709 136.08 83.1989 136.08ZM93.5751 127.52C94.2578 127.52 94.8551 127.653 95.3671 127.92C95.8898 128.176 96.2951 128.571 96.5831 129.104C96.8818 129.637 97.0311 130.309 97.0311 131.12V136H95.8951V131.232C95.8951 130.347 95.6711 129.68 95.2231 129.232C94.7858 128.773 94.1671 128.544 93.3671 128.544C92.7698 128.544 92.2471 128.667 91.7991 128.912C91.3618 129.147 91.0205 129.493 90.7751 129.952C90.5405 130.4 90.4231 130.944 90.4231 131.584V136H89.2871V127.6H90.3751V129.904L90.1991 129.472C90.4658 128.864 90.8925 128.389 91.4791 128.048C92.0658 127.696 92.7645 127.52 93.5751 127.52ZM102.756 136.08C101.966 136.08 101.358 135.867 100.932 135.44C100.505 135.013 100.292 134.411 100.292 133.632V125.744H101.428V133.568C101.428 134.059 101.55 134.437 101.796 134.704C102.052 134.971 102.414 135.104 102.884 135.104C103.385 135.104 103.801 134.96 104.132 134.672L104.532 135.488C104.308 135.691 104.036 135.84 103.716 135.936C103.406 136.032 103.086 136.08 102.756 136.08ZM98.7876 128.544V127.6H103.988V128.544H98.7876ZM109.727 136.08C108.916 136.08 108.185 135.899 107.535 135.536C106.895 135.163 106.388 134.656 106.015 134.016C105.641 133.365 105.455 132.624 105.455 131.792C105.455 130.949 105.641 130.208 106.015 129.568C106.388 128.928 106.895 128.427 107.535 128.064C108.175 127.701 108.905 127.52 109.727 127.52C110.559 127.52 111.295 127.701 111.935 128.064C112.585 128.427 113.092 128.928 113.455 129.568C113.828 130.208 114.015 130.949 114.015 131.792C114.015 132.624 113.828 133.365 113.455 134.016C113.092 134.656 112.585 135.163 111.935 135.536C111.284 135.899 110.548 136.08 109.727 136.08ZM109.727 135.072C110.335 135.072 110.873 134.939 111.343 134.672C111.812 134.395 112.18 134.011 112.447 133.52C112.724 133.019 112.863 132.443 112.863 131.792C112.863 131.131 112.724 130.555 112.447 130.064C112.18 129.573 111.812 129.195 111.343 128.928C110.873 128.651 110.34 128.512 109.743 128.512C109.145 128.512 108.612 128.651 108.143 128.928C107.673 129.195 107.3 129.573 107.023 130.064C106.745 130.555 106.607 131.131 106.607 131.792C106.607 132.443 106.745 133.019 107.023 133.52C107.3 134.011 107.673 134.395 108.143 134.672C108.612 134.939 109.14 135.072 109.727 135.072ZM124.01 136.08C123.178 136.08 122.431 135.899 121.77 135.536C121.119 135.163 120.607 134.656 120.234 134.016C119.86 133.365 119.674 132.624 119.674 131.792C119.674 130.949 119.86 130.208 120.234 129.568C120.607 128.928 121.119 128.427 121.77 128.064C122.431 127.701 123.178 127.52 124.01 127.52C124.724 127.52 125.37 127.659 125.946 127.936C126.522 128.213 126.975 128.629 127.306 129.184L126.458 129.76C126.17 129.333 125.812 129.019 125.386 128.816C124.959 128.613 124.495 128.512 123.994 128.512C123.396 128.512 122.858 128.651 122.378 128.928C121.898 129.195 121.519 129.573 121.242 130.064C120.964 130.555 120.826 131.131 120.826 131.792C120.826 132.453 120.964 133.029 121.242 133.52C121.519 134.011 121.898 134.395 122.378 134.672C122.858 134.939 123.396 135.072 123.994 135.072C124.495 135.072 124.959 134.971 125.386 134.768C125.812 134.565 126.17 134.256 126.458 133.84L127.306 134.416C126.975 134.96 126.522 135.376 125.946 135.664C125.37 135.941 124.724 136.08 124.01 136.08ZM132.821 136.08C132.01 136.08 131.279 135.899 130.629 135.536C129.989 135.163 129.482 134.656 129.109 134.016C128.735 133.365 128.549 132.624 128.549 131.792C128.549 130.949 128.735 130.208 129.109 129.568C129.482 128.928 129.989 128.427 130.629 128.064C131.269 127.701 131.999 127.52 132.821 127.52C133.653 127.52 134.389 127.701 135.029 128.064C135.679 128.427 136.186 128.928 136.549 129.568C136.922 130.208 137.109 130.949 137.109 131.792C137.109 132.624 136.922 133.365 136.549 134.016C136.186 134.656 135.679 135.163 135.029 135.536C134.378 135.899 133.642 136.08 132.821 136.08ZM132.821 135.072C133.429 135.072 133.967 134.939 134.437 134.672C134.906 134.395 135.274 134.011 135.541 133.52C135.818 133.019 135.957 132.443 135.957 131.792C135.957 131.131 135.818 130.555 135.541 130.064C135.274 129.573 134.906 129.195 134.437 128.928C133.967 128.651 133.434 128.512 132.837 128.512C132.239 128.512 131.706 128.651 131.237 128.928C130.767 129.195 130.394 129.573 130.117 130.064C129.839 130.555 129.701 131.131 129.701 131.792C129.701 132.443 129.839 133.019 130.117 133.52C130.394 134.011 130.767 134.395 131.237 134.672C131.706 134.939 132.234 135.072 132.821 135.072ZM143.716 127.52C144.398 127.52 144.996 127.653 145.508 127.92C146.03 128.176 146.436 128.571 146.724 129.104C147.022 129.637 147.172 130.309 147.172 131.12V136H146.036V131.232C146.036 130.347 145.812 129.68 145.364 129.232C144.926 128.773 144.308 128.544 143.508 128.544C142.91 128.544 142.388 128.667 141.94 128.912C141.502 129.147 141.161 129.493 140.916 129.952C140.681 130.4 140.564 130.944 140.564 131.584V136H139.428V127.6H140.516V129.904L140.34 129.472C140.606 128.864 141.033 128.389 141.62 128.048C142.206 127.696 142.905 127.52 143.716 127.52ZM152.896 136.08C152.107 136.08 151.499 135.867 151.072 135.44C150.646 135.013 150.432 134.411 150.432 133.632V125.744H151.568V133.568C151.568 134.059 151.691 134.437 151.936 134.704C152.192 134.971 152.555 135.104 153.024 135.104C153.526 135.104 153.942 134.96 154.272 134.672L154.672 135.488C154.448 135.691 154.176 135.84 153.856 135.936C153.547 136.032 153.227 136.08 152.896 136.08ZM148.928 128.544V127.6H154.128V128.544H148.928ZM156.74 136V127.6H157.828V129.888L157.716 129.488C157.951 128.848 158.346 128.363 158.9 128.032C159.455 127.691 160.143 127.52 160.964 127.52V128.624C160.922 128.624 160.879 128.624 160.836 128.624C160.794 128.613 160.751 128.608 160.708 128.608C159.823 128.608 159.13 128.88 158.628 129.424C158.127 129.957 157.876 130.72 157.876 131.712V136H156.74ZM167.676 136V134.144L167.628 133.84V130.736C167.628 130.021 167.425 129.472 167.02 129.088C166.625 128.704 166.033 128.512 165.244 128.512C164.7 128.512 164.183 128.603 163.692 128.784C163.201 128.965 162.785 129.205 162.444 129.504L161.932 128.656C162.359 128.293 162.871 128.016 163.468 127.824C164.065 127.621 164.695 127.52 165.356 127.52C166.444 127.52 167.281 127.792 167.868 128.336C168.465 128.869 168.764 129.685 168.764 130.784V136H167.676ZM164.78 136.08C164.151 136.08 163.601 135.979 163.132 135.776C162.673 135.563 162.321 135.275 162.076 134.912C161.831 134.539 161.708 134.112 161.708 133.632C161.708 133.195 161.809 132.8 162.012 132.448C162.225 132.085 162.567 131.797 163.036 131.584C163.516 131.36 164.156 131.248 164.956 131.248H167.852V132.096H164.988C164.177 132.096 163.612 132.24 163.292 132.528C162.983 132.816 162.828 133.173 162.828 133.6C162.828 134.08 163.015 134.464 163.388 134.752C163.761 135.04 164.284 135.184 164.956 135.184C165.596 135.184 166.145 135.04 166.604 134.752C167.073 134.453 167.415 134.027 167.628 133.472L167.884 134.256C167.671 134.811 167.297 135.253 166.764 135.584C166.241 135.915 165.58 136.08 164.78 136.08ZM25.152 156.08C24.2773 156.08 23.5093 155.899 22.848 155.536C22.1867 155.163 21.6693 154.656 21.296 154.016C20.9227 153.365 20.736 152.624 20.736 151.792C20.736 150.96 20.912 150.224 21.264 149.584C21.6267 148.944 22.1173 148.443 22.736 148.08C23.3653 147.707 24.0693 147.52 24.848 147.52C25.6373 147.52 26.336 147.701 26.944 148.064C27.5627 148.416 28.048 148.917 28.4 149.568C28.752 150.208 28.928 150.949 28.928 151.792C28.928 151.845 28.9227 151.904 28.912 151.968C28.912 152.021 28.912 152.08 28.912 152.144H21.6V151.296H28.304L27.856 151.632C27.856 151.024 27.7227 150.485 27.456 150.016C27.2 149.536 26.848 149.163 26.4 148.896C25.952 148.629 25.4347 148.496 24.848 148.496C24.272 148.496 23.7547 148.629 23.296 148.896C22.8373 149.163 22.48 149.536 22.224 150.016C21.968 150.496 21.84 151.045 21.84 151.664V151.84C21.84 152.48 21.9787 153.045 22.256 153.536C22.544 154.016 22.9387 154.395 23.44 154.672C23.952 154.939 24.5333 155.072 25.184 155.072C25.696 155.072 26.1707 154.981 26.608 154.8C27.056 154.619 27.44 154.341 27.76 153.968L28.4 154.704C28.0267 155.152 27.5573 155.493 26.992 155.728C26.4373 155.963 25.824 156.08 25.152 156.08ZM35.5283 147.52C36.2109 147.52 36.8083 147.653 37.3203 147.92C37.8429 148.176 38.2483 148.571 38.5363 149.104C38.8349 149.637 38.9843 150.309 38.9843 151.12V156H37.8483V151.232C37.8483 150.347 37.6243 149.68 37.1763 149.232C36.7389 148.773 36.1203 148.544 35.3203 148.544C34.7229 148.544 34.2003 148.667 33.7523 148.912C33.3149 149.147 32.9736 149.493 32.7283 149.952C32.4936 150.4 32.3763 150.944 32.3763 151.584V156H31.2403V147.6H32.3283V149.904L32.1523 149.472C32.4189 148.864 32.8456 148.389 33.4323 148.048C34.0189 147.696 34.7176 147.52 35.5283 147.52ZM44.7088 156.08C43.9194 156.08 43.3114 155.867 42.8848 155.44C42.4581 155.013 42.2448 154.411 42.2448 153.632V145.744H43.3808V153.568C43.3808 154.059 43.5034 154.437 43.7488 154.704C44.0048 154.971 44.3674 155.104 44.8368 155.104C45.3381 155.104 45.7541 154.96 46.0848 154.672L46.4848 155.488C46.2608 155.691 45.9888 155.84 45.6688 155.936C45.3594 156.032 45.0394 156.08 44.7088 156.08ZM40.7408 148.544V147.6H45.9408V148.544H40.7408ZM48.5528 156V147.6H49.6408V149.888L49.5288 149.488C49.7634 148.848 50.1581 148.363 50.7128 148.032C51.2674 147.691 51.9554 147.52 52.7768 147.52V148.624C52.7341 148.624 52.6914 148.624 52.6488 148.624C52.6061 148.613 52.5634 148.608 52.5208 148.608C51.6354 148.608 50.9421 148.88 50.4408 149.424C49.9394 149.957 49.6888 150.72 49.6888 151.712V156H48.5528ZM58.3395 156.08C57.4648 156.08 56.6968 155.899 56.0355 155.536C55.3742 155.163 54.8568 154.656 54.4835 154.016C54.1102 153.365 53.9235 152.624 53.9235 151.792C53.9235 150.96 54.0995 150.224 54.4515 149.584C54.8142 148.944 55.3048 148.443 55.9235 148.08C56.5528 147.707 57.2568 147.52 58.0355 147.52C58.8248 147.52 59.5235 147.701 60.1315 148.064C60.7502 148.416 61.2355 148.917 61.5875 149.568C61.9395 150.208 62.1155 150.949 62.1155 151.792C62.1155 151.845 62.1102 151.904 62.0995 151.968C62.0995 152.021 62.0995 152.08 62.0995 152.144H54.7875V151.296H61.4915L61.0435 151.632C61.0435 151.024 60.9102 150.485 60.6435 150.016C60.3875 149.536 60.0355 149.163 59.5875 148.896C59.1395 148.629 58.6222 148.496 58.0355 148.496C57.4595 148.496 56.9422 148.629 56.4835 148.896C56.0248 149.163 55.6675 149.536 55.4115 150.016C55.1555 150.496 55.0275 151.045 55.0275 151.664V151.84C55.0275 152.48 55.1662 153.045 55.4435 153.536C55.7315 154.016 56.1262 154.395 56.6275 154.672C57.1395 154.939 57.7208 155.072 58.3715 155.072C58.8835 155.072 59.3582 154.981 59.7955 154.8C60.2435 154.619 60.6275 154.341 60.9475 153.968L61.5875 154.704C61.2142 155.152 60.7448 155.493 60.1795 155.728C59.6248 155.963 59.0115 156.08 58.3395 156.08ZM68.0118 159.184C67.2438 159.184 66.5078 159.072 65.8038 158.848C65.0998 158.624 64.5291 158.304 64.0918 157.888L64.6678 157.024C65.0624 157.376 65.5478 157.653 66.1238 157.856C66.7104 158.069 67.3291 158.176 67.9798 158.176C69.0464 158.176 69.8304 157.925 70.3318 157.424C70.8331 156.933 71.0838 156.165 71.0838 155.12V153.024L71.2438 151.584L71.1318 150.144V147.6H72.2198V154.976C72.2198 156.427 71.8624 157.488 71.1478 158.16C70.4438 158.843 69.3984 159.184 68.0118 159.184ZM67.8038 155.68C67.0038 155.68 66.2838 155.509 65.6438 155.168C65.0038 154.816 64.4971 154.331 64.1238 153.712C63.7611 153.093 63.5798 152.384 63.5798 151.584C63.5798 150.784 63.7611 150.08 64.1238 149.472C64.4971 148.853 65.0038 148.373 65.6438 148.032C66.2838 147.691 67.0038 147.52 67.8038 147.52C68.5504 147.52 69.2224 147.675 69.8198 147.984C70.4171 148.293 70.8918 148.752 71.2438 149.36C71.5958 149.968 71.7718 150.709 71.7718 151.584C71.7718 152.459 71.5958 153.2 71.2438 153.808C70.8918 154.416 70.4171 154.88 69.8198 155.2C69.2224 155.52 68.5504 155.68 67.8038 155.68ZM67.9158 154.672C68.5344 154.672 69.0838 154.544 69.5638 154.288C70.0438 154.021 70.4224 153.659 70.6998 153.2C70.9771 152.731 71.1158 152.192 71.1158 151.584C71.1158 150.976 70.9771 150.443 70.6998 149.984C70.4224 149.525 70.0438 149.168 69.5638 148.912C69.0838 148.645 68.5344 148.512 67.9158 148.512C67.3078 148.512 66.7584 148.645 66.2678 148.912C65.7878 149.168 65.4091 149.525 65.1318 149.984C64.8651 150.443 64.7318 150.976 64.7318 151.584C64.7318 152.192 64.8651 152.731 65.1318 153.2C65.4091 153.659 65.7878 154.021 66.2678 154.288C66.7584 154.544 67.3078 154.672 67.9158 154.672ZM80.6449 156V154.144L80.5969 153.84V150.736C80.5969 150.021 80.3942 149.472 79.9889 149.088C79.5942 148.704 79.0022 148.512 78.2129 148.512C77.6689 148.512 77.1515 148.603 76.6609 148.784C76.1702 148.965 75.7542 149.205 75.4129 149.504L74.9009 148.656C75.3275 148.293 75.8395 148.016 76.4369 147.824C77.0342 147.621 77.6635 147.52 78.3249 147.52C79.4129 147.52 80.2502 147.792 80.8369 148.336C81.4342 148.869 81.7329 149.685 81.7329 150.784V156H80.6449ZM77.7489 156.08C77.1195 156.08 76.5702 155.979 76.1009 155.776C75.6422 155.563 75.2902 155.275 75.0449 154.912C74.7995 154.539 74.6769 154.112 74.6769 153.632C74.6769 153.195 74.7782 152.8 74.9809 152.448C75.1942 152.085 75.5355 151.797 76.0049 151.584C76.4849 151.36 77.1249 151.248 77.9249 151.248H80.8209V152.096H77.9569C77.1462 152.096 76.5809 152.24 76.2609 152.528C75.9515 152.816 75.7969 153.173 75.7969 153.6C75.7969 154.08 75.9835 154.464 76.3569 154.752C76.7302 155.04 77.2529 155.184 77.9249 155.184C78.5649 155.184 79.1142 155.04 79.5729 154.752C80.0422 154.453 80.3835 154.027 80.5969 153.472L80.8529 154.256C80.6395 154.811 80.2662 155.253 79.7329 155.584C79.2102 155.915 78.5489 156.08 77.7489 156.08Z" fill="#828282"/>
<path d="M209.472 136L206.912 132.4C206.624 132.432 206.325 132.448 206.016 132.448H203.008V136H201.824V124.8H206.016C207.445 124.8 208.565 125.141 209.376 125.824C210.187 126.507 210.592 127.445 210.592 128.64C210.592 129.515 210.368 130.256 209.92 130.864C209.483 131.461 208.853 131.893 208.032 132.16L210.768 136H209.472ZM205.984 131.44C207.093 131.44 207.941 131.195 208.528 130.704C209.115 130.213 209.408 129.525 209.408 128.64C209.408 127.733 209.115 127.04 208.528 126.56C207.941 126.069 207.093 125.824 205.984 125.824H203.008V131.44H205.984ZM220.475 132.144H213.435C213.499 133.019 213.835 133.728 214.443 134.272C215.051 134.805 215.819 135.072 216.747 135.072C217.269 135.072 217.749 134.981 218.187 134.8C218.624 134.608 219.003 134.331 219.323 133.968L219.963 134.704C219.589 135.152 219.12 135.493 218.555 135.728C218 135.963 217.387 136.08 216.715 136.08C215.851 136.08 215.083 135.899 214.411 135.536C213.749 135.163 213.232 134.651 212.859 134C212.485 133.349 212.299 132.613 212.299 131.792C212.299 130.971 212.475 130.235 212.827 129.584C213.189 128.933 213.68 128.427 214.299 128.064C214.928 127.701 215.632 127.52 216.411 127.52C217.189 127.52 217.888 127.701 218.507 128.064C219.125 128.427 219.611 128.933 219.963 129.584C220.315 130.224 220.491 130.96 220.491 131.792L220.475 132.144ZM216.411 128.496C215.6 128.496 214.917 128.757 214.363 129.28C213.819 129.792 213.509 130.464 213.435 131.296H219.403C219.328 130.464 219.013 129.792 218.459 129.28C217.915 128.757 217.232 128.496 216.411 128.496ZM230.131 132.144H223.091C223.155 133.019 223.491 133.728 224.099 134.272C224.707 134.805 225.475 135.072 226.403 135.072C226.925 135.072 227.405 134.981 227.843 134.8C228.28 134.608 228.659 134.331 228.979 133.968L229.619 134.704C229.245 135.152 228.776 135.493 228.211 135.728C227.656 135.963 227.043 136.08 226.371 136.08C225.507 136.08 224.739 135.899 224.067 135.536C223.405 135.163 222.888 134.651 222.515 134C222.141 133.349 221.955 132.613 221.955 131.792C221.955 130.971 222.131 130.235 222.483 129.584C222.845 128.933 223.336 128.427 223.955 128.064C224.584 127.701 225.288 127.52 226.067 127.52C226.845 127.52 227.544 127.701 228.163 128.064C228.781 128.427 229.267 128.933 229.619 129.584C229.971 130.224 230.147 130.96 230.147 131.792L230.131 132.144ZM226.067 128.496C225.256 128.496 224.573 128.757 224.019 129.28C223.475 129.792 223.165 130.464 223.091 131.296H229.059C228.984 130.464 228.669 129.792 228.115 129.28C227.571 128.757 226.888 128.496 226.067 128.496ZM242.955 127.52C244.011 127.52 244.838 127.824 245.435 128.432C246.043 129.04 246.347 129.936 246.347 131.12V136H245.211V131.232C245.211 130.357 244.998 129.691 244.571 129.232C244.155 128.773 243.563 128.544 242.795 128.544C241.92 128.544 241.232 128.816 240.731 129.36C240.23 129.893 239.979 130.635 239.979 131.584V136H238.843V131.232C238.843 130.357 238.63 129.691 238.203 129.232C237.787 128.773 237.19 128.544 236.411 128.544C235.547 128.544 234.859 128.816 234.347 129.36C233.846 129.893 233.595 130.635 233.595 131.584V136H232.459V127.584H233.547V129.12C233.846 128.608 234.262 128.213 234.795 127.936C235.328 127.659 235.942 127.52 236.635 127.52C237.339 127.52 237.947 127.669 238.459 127.968C238.982 128.267 239.371 128.709 239.627 129.296C239.936 128.741 240.379 128.309 240.955 128C241.542 127.68 242.208 127.52 242.955 127.52ZM253.764 127.52C254.553 127.52 255.268 127.701 255.908 128.064C256.548 128.416 257.049 128.917 257.412 129.568C257.774 130.219 257.956 130.96 257.956 131.792C257.956 132.624 257.774 133.365 257.412 134.016C257.049 134.667 256.548 135.173 255.908 135.536C255.268 135.899 254.553 136.08 253.764 136.08C253.06 136.08 252.425 135.931 251.86 135.632C251.305 135.333 250.857 134.901 250.516 134.336V136H249.428V124.128H250.564V129.184C250.916 128.64 251.364 128.229 251.908 127.952C252.462 127.664 253.081 127.52 253.764 127.52ZM253.684 135.072C254.27 135.072 254.804 134.939 255.284 134.672C255.764 134.395 256.137 134.005 256.404 133.504C256.681 133.003 256.82 132.432 256.82 131.792C256.82 131.152 256.681 130.581 256.404 130.08C256.137 129.579 255.764 129.195 255.284 128.928C254.804 128.651 254.27 128.512 253.684 128.512C253.086 128.512 252.548 128.651 252.068 128.928C251.598 129.195 251.225 129.579 250.948 130.08C250.681 130.581 250.548 131.152 250.548 131.792C250.548 132.432 250.681 133.003 250.948 133.504C251.225 134.005 251.598 134.395 252.068 134.672C252.548 134.939 253.086 135.072 253.684 135.072ZM263.712 136.08C262.901 136.08 262.17 135.899 261.52 135.536C260.869 135.163 260.357 134.651 259.984 134C259.61 133.349 259.424 132.613 259.424 131.792C259.424 130.971 259.61 130.235 259.984 129.584C260.357 128.933 260.869 128.427 261.52 128.064C262.17 127.701 262.901 127.52 263.712 127.52C264.522 127.52 265.253 127.701 265.904 128.064C266.554 128.427 267.061 128.933 267.424 129.584C267.797 130.235 267.984 130.971 267.984 131.792C267.984 132.613 267.797 133.349 267.424 134C267.061 134.651 266.554 135.163 265.904 135.536C265.253 135.899 264.522 136.08 263.712 136.08ZM263.712 135.072C264.309 135.072 264.842 134.939 265.312 134.672C265.792 134.395 266.165 134.005 266.432 133.504C266.698 133.003 266.832 132.432 266.832 131.792C266.832 131.152 266.698 130.581 266.432 130.08C266.165 129.579 265.792 129.195 265.312 128.928C264.842 128.651 264.309 128.512 263.712 128.512C263.114 128.512 262.576 128.651 262.096 128.928C261.626 129.195 261.253 129.579 260.976 130.08C260.709 130.581 260.576 131.152 260.576 131.792C260.576 132.432 260.709 133.003 260.976 133.504C261.253 134.005 261.626 134.395 262.096 134.672C262.576 134.939 263.114 135.072 263.712 135.072ZM270.303 124.128H271.439V136H270.303V124.128ZM276.856 136.08C276.173 136.08 275.517 135.984 274.888 135.792C274.269 135.589 273.784 135.339 273.432 135.04L273.944 134.144C274.296 134.421 274.738 134.651 275.272 134.832C275.805 135.003 276.36 135.088 276.936 135.088C277.704 135.088 278.269 134.971 278.632 134.736C279.005 134.491 279.192 134.149 279.192 133.712C279.192 133.403 279.09 133.163 278.888 132.992C278.685 132.811 278.429 132.677 278.12 132.592C277.81 132.496 277.4 132.405 276.888 132.32C276.205 132.192 275.656 132.064 275.24 131.936C274.824 131.797 274.466 131.568 274.168 131.248C273.88 130.928 273.736 130.485 273.736 129.92C273.736 129.216 274.029 128.64 274.616 128.192C275.202 127.744 276.018 127.52 277.064 127.52C277.608 127.52 278.152 127.595 278.696 127.744C279.24 127.883 279.688 128.069 280.04 128.304L279.544 129.216C278.85 128.736 278.024 128.496 277.064 128.496C276.338 128.496 275.789 128.624 275.416 128.88C275.053 129.136 274.872 129.472 274.872 129.888C274.872 130.208 274.973 130.464 275.176 130.656C275.389 130.848 275.65 130.992 275.96 131.088C276.269 131.173 276.696 131.264 277.24 131.36C277.912 131.488 278.45 131.616 278.856 131.744C279.261 131.872 279.608 132.091 279.896 132.4C280.184 132.709 280.328 133.136 280.328 133.68C280.328 134.416 280.018 135.003 279.4 135.44C278.792 135.867 277.944 136.08 276.856 136.08ZM285.868 136.08C285.057 136.08 284.326 135.899 283.676 135.536C283.025 135.163 282.513 134.651 282.14 134C281.766 133.349 281.58 132.613 281.58 131.792C281.58 130.971 281.766 130.235 282.14 129.584C282.513 128.933 283.025 128.427 283.676 128.064C284.326 127.701 285.057 127.52 285.868 127.52C286.678 127.52 287.409 127.701 288.06 128.064C288.71 128.427 289.217 128.933 289.58 129.584C289.953 130.235 290.14 130.971 290.14 131.792C290.14 132.613 289.953 133.349 289.58 134C289.217 134.651 288.71 135.163 288.06 135.536C287.409 135.899 286.678 136.08 285.868 136.08ZM285.868 135.072C286.465 135.072 286.998 134.939 287.468 134.672C287.948 134.395 288.321 134.005 288.588 133.504C288.854 133.003 288.988 132.432 288.988 131.792C288.988 131.152 288.854 130.581 288.588 130.08C288.321 129.579 287.948 129.195 287.468 128.928C286.998 128.651 286.465 128.512 285.868 128.512C285.27 128.512 284.732 128.651 284.252 128.928C283.782 129.195 283.409 129.579 283.132 130.08C282.865 130.581 282.732 131.152 282.732 131.792C282.732 132.432 282.865 133.003 283.132 133.504C283.409 134.005 283.782 134.395 284.252 134.672C284.732 134.939 285.27 135.072 285.868 135.072ZM294.715 136.08C294.032 136.08 293.376 135.984 292.747 135.792C292.128 135.589 291.643 135.339 291.291 135.04L291.803 134.144C292.155 134.421 292.598 134.651 293.131 134.832C293.664 135.003 294.219 135.088 294.795 135.088C295.563 135.088 296.128 134.971 296.491 134.736C296.864 134.491 297.051 134.149 297.051 133.712C297.051 133.403 296.95 133.163 296.747 132.992C296.544 132.811 296.288 132.677 295.979 132.592C295.67 132.496 295.259 132.405 294.747 132.32C294.064 132.192 293.515 132.064 293.099 131.936C292.683 131.797 292.326 131.568 292.027 131.248C291.739 130.928 291.595 130.485 291.595 129.92C291.595 129.216 291.888 128.64 292.475 128.192C293.062 127.744 293.878 127.52 294.923 127.52C295.467 127.52 296.011 127.595 296.555 127.744C297.099 127.883 297.547 128.069 297.899 128.304L297.403 129.216C296.71 128.736 295.883 128.496 294.923 128.496C294.198 128.496 293.648 128.624 293.275 128.88C292.912 129.136 292.731 129.472 292.731 129.888C292.731 130.208 292.832 130.464 293.035 130.656C293.248 130.848 293.51 130.992 293.819 131.088C294.128 131.173 294.555 131.264 295.099 131.36C295.771 131.488 296.31 131.616 296.715 131.744C297.12 131.872 297.467 132.091 297.755 132.4C298.043 132.709 298.187 133.136 298.187 133.68C298.187 134.416 297.878 135.003 297.259 135.44C296.651 135.867 295.803 136.08 294.715 136.08Z" fill="#828282"/>
<path d="M90.9296 52.1667L90.9293 52.1667L88.3197 51.7715L88.3194 51.7714C88.0692 51.7334 87.86 51.5714 87.7553 51.3489C87.7551 51.3485 87.7549 51.3481 87.7547 51.3476L86.5898 48.8879C86.5898 48.8879 86.5897 48.8878 86.5897 48.8878C86.472 48.6399 86.2438 48.5 85.9995 48.5C85.7557 48.5 85.5282 48.6395 85.4102 48.8876L90.9296 52.1667ZM90.9296 52.1667C91.1724 52.2033 91.3816 52.3775 91.4649 52.6441C91.5488 52.9123 91.4791 53.1939 91.2923 53.3835L91.292 53.3837L89.4081 55.2975C89.4079 55.2978 89.4076 55.298 89.4074 55.2983C89.2322 55.4755 89.1593 55.7227 89.1976 55.9593L89.1978 55.9606L89.6431 58.6659L89.6432 58.6664C89.6894 58.9455 89.5808 59.2114 89.3731 59.3685C89.1687 59.5231 88.9117 59.5413 88.6912 59.4208C88.6912 59.4208 88.6912 59.4208 88.6911 59.4208L86.3572 58.1432L86.357 58.1431C86.1359 58.0223 85.8681 58.0206 85.6447 58.1436C85.6442 58.1438 85.6438 58.1441 85.6433 58.1443L83.3113 59.4208L83.3111 59.421C83.2127 59.4749 83.1092 59.5 83.0094 59.5C82.8792 59.5 82.7469 59.4582 82.6298 59.3697C82.4221 59.2121 82.3133 58.9458 82.3594 58.6674L82.3595 58.6668L82.8048 55.9615L82.805 55.9602C82.8439 55.7198 82.7667 55.475 82.5972 55.3012L82.5972 55.3012L82.5955 55.2995L80.7081 53.384C80.708 53.3839 80.708 53.3839 80.7079 53.3838C80.5211 53.1936 80.4513 52.9116 80.5349 52.6441C80.6183 52.3775 80.8274 52.2033 81.0703 52.1667L81.0706 52.1666L83.6792 51.7715L83.6795 51.7714C83.9334 51.7328 84.1382 51.5684 84.2421 51.3521L84.2432 51.3497L85.4101 48.8879L90.9296 52.1667Z" fill="#EDCA71" stroke="#EDCA71"/>
<path d="M125.648 53.7345C125.968 53.4106 126.08 52.9356 125.942 52.4949C125.804 52.0541 125.445 51.7388 125.004 51.6723L122.395 51.2771C122.313 51.2648 122.243 51.2116 122.208 51.1356L121.041 48.6735C120.844 48.2584 120.445 48 119.999 48C119.554 48 119.155 48.2584 118.958 48.6735L117.791 51.1356C117.755 51.2116 117.686 51.2648 117.604 51.2771L114.996 51.6723C114.555 51.7388 114.195 52.0541 114.058 52.4949C113.92 52.9356 114.033 53.4106 114.352 53.7345L116.239 55.6504C116.298 55.7103 116.325 55.7958 116.311 55.8803L115.866 58.5856C115.79 59.0425 115.968 59.4956 116.328 59.7682C116.531 59.9221 116.769 60 117.009 60C117.194 60 117.38 59.9535 117.551 59.8594L119.885 58.5818C119.957 58.5419 120.044 58.5419 120.117 58.5818L122.451 59.8594C122.845 60.075 123.314 60.0399 123.675 59.7673C124.035 59.4947 124.212 59.0416 124.136 58.5847L123.691 55.8794C123.677 55.7948 123.704 55.7093 123.763 55.6495L125.648 53.7345Z" fill="#EDCA71"/>
<path d="M107.93 52.1667L107.929 52.1667L105.32 51.7715L105.319 51.7714C105.069 51.7334 104.86 51.5714 104.755 51.3489C104.755 51.3485 104.755 51.3481 104.755 51.3476L103.59 48.8879C103.59 48.8879 103.59 48.8878 103.59 48.8878C103.472 48.6399 103.244 48.5 102.999 48.5C102.756 48.5 102.528 48.6395 102.41 48.8876L107.93 52.1667ZM107.93 52.1667C108.172 52.2033 108.382 52.3775 108.465 52.6441C108.549 52.9123 108.479 53.1939 108.292 53.3835L108.292 53.3837L106.408 55.2975C106.408 55.2978 106.408 55.298 106.407 55.2983C106.232 55.4755 106.159 55.7227 106.198 55.9593L106.198 55.9606L106.643 58.6659L106.643 58.6664C106.689 58.9455 106.581 59.2114 106.373 59.3685C106.169 59.5231 105.912 59.5413 105.691 59.4208C105.691 59.4208 105.691 59.4208 105.691 59.4208L103.357 58.1432L103.357 58.1431C103.136 58.0223 102.868 58.0206 102.645 58.1436C102.644 58.1438 102.644 58.1441 102.643 58.1443L100.311 59.4208L100.311 59.421C100.213 59.4749 100.109 59.5 100.009 59.5C99.8792 59.5 99.7469 59.4582 99.6298 59.3697C99.4221 59.2121 99.3133 58.9458 99.3594 58.6674L99.3595 58.6668L99.8048 55.9615L99.805 55.9602C99.8439 55.7198 99.7667 55.475 99.5972 55.3012L99.5972 55.3012L99.5955 55.2995L97.7081 53.384C97.708 53.3839 97.708 53.3839 97.7079 53.3838C97.5211 53.1936 97.4513 52.9116 97.5349 52.6441C97.6183 52.3775 97.8274 52.2033 98.0703 52.1667L98.0706 52.1666L100.679 51.7715L100.68 51.7714C100.933 51.7328 101.138 51.5684 101.242 51.3521L101.243 51.3497L102.41 48.8879L107.93 52.1667Z" fill="#EDCA71" stroke="#EDCA71"/>
<path d="M141.936 53.0324L141.936 53.033L140.053 54.9456C140.052 54.9461 140.052 54.9467 140.051 54.9472C139.76 55.2418 139.641 55.6507 139.704 56.0392L139.704 56.0418L140.15 58.7471L140.15 58.7482C140.167 58.8495 140.127 58.9281 140.071 58.9697C140.043 58.9913 140.019 58.9979 140.001 58.9993C139.983 59.0006 139.96 58.9977 139.931 58.9821L137.597 57.7046L137.597 57.7043C137.228 57.5026 136.779 57.4992 136.404 57.7053C136.403 57.7058 136.402 57.7064 136.401 57.7069L134.071 58.9822L134.071 58.9825C134.046 58.9963 134.025 59 134.009 59C133.989 59 133.962 58.9941 133.932 58.971C133.876 58.9283 133.836 58.8489 133.853 58.7491L133.853 58.748L134.298 56.0427L134.299 56.0401C134.363 55.6439 134.236 55.2397 133.955 54.952L133.955 54.952L133.952 54.9486L132.065 53.0335C132.065 53.0334 132.064 53.0333 132.064 53.0332C132.009 52.9767 131.983 52.8876 132.012 52.7933C132.027 52.7454 132.051 52.7142 132.072 52.6951C132.094 52.6762 132.118 52.6652 132.145 52.6611L132.145 52.661L134.754 52.2659L134.755 52.2658C135.181 52.2009 135.521 51.9252 135.693 51.5685L135.693 51.5685L135.695 51.5639L136.862 49.1024C136.862 49.1023 136.862 49.1022 136.862 49.1021C136.882 49.0592 136.908 49.0343 136.929 49.0206C136.95 49.0071 136.973 49 136.999 49C137.026 49 137.049 49.0072 137.071 49.0209C137.092 49.0349 137.118 49.0597 137.138 49.102C137.138 49.1021 137.138 49.1022 137.138 49.1024L138.303 51.5625C138.477 51.9314 138.825 52.202 139.244 52.2658L139.245 52.2659L141.854 52.661L141.855 52.6611C141.882 52.6652 141.906 52.6762 141.927 52.6951C141.949 52.7142 141.973 52.7454 141.988 52.7933C142.018 52.889 141.991 52.9773 141.936 53.0324Z" stroke="#EDCA71" stroke-width="2"/>
<path d="M158.936 53.0324L158.936 53.033L157.053 54.9456C157.052 54.9461 157.052 54.9467 157.051 54.9472C156.76 55.2418 156.641 55.6507 156.704 56.0392L156.704 56.0418L157.15 58.7471L157.15 58.7482C157.167 58.8495 157.127 58.9281 157.071 58.9697C157.043 58.9913 157.019 58.9979 157.001 58.9993C156.983 59.0006 156.96 58.9977 156.931 58.9821L154.597 57.7046L154.597 57.7043C154.228 57.5026 153.779 57.4992 153.404 57.7053C153.403 57.7058 153.402 57.7064 153.401 57.7069L151.071 58.9822L151.071 58.9825C151.046 58.9963 151.025 59 151.009 59C150.989 59 150.962 58.9941 150.932 58.971C150.876 58.9283 150.836 58.8489 150.853 58.7491L150.853 58.748L151.298 56.0427L151.299 56.0401C151.363 55.6439 151.236 55.2397 150.955 54.952L150.955 54.952L150.952 54.9486L149.065 53.0335C149.065 53.0334 149.064 53.0333 149.064 53.0332C149.009 52.9767 148.983 52.8876 149.012 52.7933C149.027 52.7454 149.051 52.7142 149.072 52.6951C149.094 52.6762 149.118 52.6652 149.145 52.6611L149.145 52.661L151.754 52.2659L151.755 52.2658C152.181 52.2009 152.521 51.9252 152.693 51.5685L152.693 51.5685L152.695 51.5639L153.862 49.1024C153.862 49.1023 153.862 49.1022 153.862 49.1021C153.882 49.0592 153.908 49.0343 153.929 49.0206C153.95 49.0071 153.973 49 153.999 49C154.026 49 154.049 49.0072 154.071 49.0209C154.092 49.0349 154.118 49.0597 154.138 49.102C154.138 49.1021 154.138 49.1022 154.138 49.1024L155.303 51.5625C155.477 51.9314 155.825 52.202 156.244 52.2658L156.245 52.2659L158.854 52.661L158.855 52.6611C158.882 52.6652 158.906 52.6762 158.927 52.6951C158.949 52.7142 158.973 52.7454 158.988 52.7933C159.018 52.889 158.991 52.9773 158.936 53.0324Z" stroke="#EDCA71" stroke-width="2"/>
</svg>
