<svg width="250" height="193" viewBox="0 0 250 193" fill="none" xmlns="http://www.w3.org/2000/svg">
<path fill-rule="evenodd" clip-rule="evenodd" d="M250 47C250 36 243 29 232 29C192.917 29 217.045 29 189 29C181.27 29 177.785 26.7635 173.5 22.5C164.193 13.8197 140.783 0 89.4273 0C17.0243 0 0 29 0 29C0 29 0.000429251 33.7195 0.000643877 47C0.000643877 57 8 65 18 65C44.4876 65 89 65 89 65L98 73H135L143 65C143 65 177.031 65 232 65C243 65 250 58 250 47C250 48.8675 250 44.1323 250 47Z" fill="#FC79FF"/>
<path fill-rule="evenodd" clip-rule="evenodd" d="M245 47C245 55 241 60 232 60L141 60L133 68H100L91 60C91 60 43.3934 60 18.0001 60C9.96434 60 4.99996 54 4.99996 47H0C0 57 8 65 18.0001 65C44.4408 65 89 65 89 65L98.0272 73H135L143 65L232 65C243 65 250 58 250 47C248.5 47 247 46.9999 245 47Z" fill="black" fill-opacity="0.25"/>
<path fill-rule="evenodd" clip-rule="evenodd" d="M0 47H5V31C5 31 19.993 5 89.2858 5C136.342 5 160.557 17.6452 170.5 26C175.292 30.0301 181.712 33.9521 188 34C196.5 34 216.464 34 232 34C239.964 34 245 39.5 245 46V47H249H250C250 36 243 29 232 29C192.993 29 216.008 29 188 29C181 29 177.169 26.1595 173.214 22.2066C163.936 13.4998 140.571 0 89.2678 0C16.9103 0 0 29 0 29L0 47Z" fill="white" fill-opacity="0.5"/>
<path d="M15.064 52.144C14.408 52.144 13.796 52.036 13.228 51.82C12.668 51.604 12.18 51.3 11.764 50.908C11.356 50.516 11.036 50.056 10.804 49.528C10.58 49 10.468 48.424 10.468 47.8C10.468 47.176 10.58 46.6 10.804 46.072C11.036 45.544 11.36 45.084 11.776 44.692C12.192 44.3 12.68 43.996 13.24 43.78C13.8 43.564 14.408 43.456 15.064 43.456C15.728 43.456 16.336 43.564 16.888 43.78C17.448 43.996 17.932 44.3 18.34 44.692C18.756 45.076 19.08 45.532 19.312 46.06C19.544 46.588 19.66 47.168 19.66 47.8C19.66 48.424 19.544 49.004 19.312 49.54C19.08 50.068 18.756 50.528 18.34 50.92C17.932 51.304 17.448 51.604 16.888 51.82C16.336 52.036 15.728 52.144 15.064 52.144ZM17.812 53.932C17.484 53.932 17.172 53.896 16.876 53.824C16.588 53.752 16.3 53.636 16.012 53.476C15.732 53.316 15.436 53.1 15.124 52.828C14.82 52.556 14.488 52.22 14.128 51.82L16.168 51.304C16.384 51.6 16.584 51.836 16.768 52.012C16.952 52.188 17.128 52.312 17.296 52.384C17.472 52.456 17.656 52.492 17.848 52.492C18.36 52.492 18.816 52.284 19.216 51.868L20.08 52.9C19.512 53.588 18.756 53.932 17.812 53.932ZM15.064 50.488C15.44 50.488 15.784 50.424 16.096 50.296C16.416 50.168 16.696 49.984 16.936 49.744C17.176 49.504 17.36 49.22 17.488 48.892C17.624 48.556 17.692 48.192 17.692 47.8C17.692 47.4 17.624 47.036 17.488 46.708C17.36 46.38 17.176 46.096 16.936 45.856C16.696 45.616 16.416 45.432 16.096 45.304C15.784 45.176 15.44 45.112 15.064 45.112C14.688 45.112 14.34 45.176 14.02 45.304C13.7 45.432 13.42 45.616 13.18 45.856C12.948 46.096 12.764 46.38 12.628 46.708C12.5 47.036 12.436 47.4 12.436 47.8C12.436 48.192 12.5 48.556 12.628 48.892C12.764 49.22 12.948 49.504 13.18 49.744C13.42 49.984 13.7 50.168 14.02 50.296C14.34 50.424 14.688 50.488 15.064 50.488ZM23.713 52.096C23.177 52.096 22.697 51.992 22.273 51.784C21.857 51.576 21.533 51.26 21.301 50.836C21.069 50.404 20.953 49.856 20.953 49.192V45.544H22.825V48.916C22.825 49.452 22.937 49.848 23.161 50.104C23.393 50.352 23.717 50.476 24.133 50.476C24.421 50.476 24.677 50.416 24.901 50.296C25.125 50.168 25.301 49.976 25.429 49.72C25.557 49.456 25.621 49.128 25.621 48.736V45.544H27.493V52H25.717V50.224L26.041 50.74C25.825 51.188 25.505 51.528 25.081 51.76C24.665 51.984 24.209 52.096 23.713 52.096ZM33.1873 52V50.74L33.0673 50.464V48.208C33.0673 47.808 32.9433 47.496 32.6953 47.272C32.4553 47.048 32.0833 46.936 31.5793 46.936C31.2353 46.936 30.8953 46.992 30.5593 47.104C30.2313 47.208 29.9513 47.352 29.7193 47.536L29.0473 46.228C29.3993 45.98 29.8233 45.788 30.3193 45.652C30.8153 45.516 31.3193 45.448 31.8313 45.448C32.8153 45.448 33.5793 45.68 34.1233 46.144C34.6673 46.608 34.9393 47.332 34.9393 48.316V52H33.1873ZM31.2193 52.096C30.7153 52.096 30.2833 52.012 29.9233 51.844C29.5633 51.668 29.2873 51.432 29.0953 51.136C28.9033 50.84 28.8073 50.508 28.8073 50.14C28.8073 49.756 28.8993 49.42 29.0833 49.132C29.2753 48.844 29.5753 48.62 29.9833 48.46C30.3913 48.292 30.9233 48.208 31.5793 48.208H33.2953V49.3H31.7833C31.3433 49.3 31.0393 49.372 30.8713 49.516C30.7113 49.66 30.6313 49.84 30.6313 50.056C30.6313 50.296 30.7233 50.488 30.9073 50.632C31.0993 50.768 31.3593 50.836 31.6873 50.836C31.9993 50.836 32.2793 50.764 32.5273 50.62C32.7753 50.468 32.9553 50.248 33.0673 49.96L33.3553 50.824C33.2193 51.24 32.9713 51.556 32.6113 51.772C32.2513 51.988 31.7873 52.096 31.2193 52.096ZM40.5575 45.448C41.0695 45.448 41.5255 45.552 41.9255 45.76C42.3335 45.96 42.6535 46.272 42.8855 46.696C43.1175 47.112 43.2335 47.648 43.2335 48.304V52H41.3615V48.592C41.3615 48.072 41.2455 47.688 41.0135 47.44C40.7895 47.192 40.4695 47.068 40.0535 47.068C39.7575 47.068 39.4895 47.132 39.2495 47.26C39.0175 47.38 38.8335 47.568 38.6975 47.824C38.5695 48.08 38.5055 48.408 38.5055 48.808V52H36.6335V45.544H38.4215V47.332L38.0855 46.792C38.3175 46.36 38.6495 46.028 39.0815 45.796C39.5135 45.564 40.0055 45.448 40.5575 45.448ZM47.7493 52.096C47.1413 52.096 46.5933 51.96 46.1053 51.688C45.6173 51.408 45.2293 51.02 44.9413 50.524C44.6613 50.028 44.5213 49.444 44.5213 48.772C44.5213 48.092 44.6613 47.504 44.9413 47.008C45.2293 46.512 45.6173 46.128 46.1053 45.856C46.5933 45.584 47.1413 45.448 47.7493 45.448C48.2933 45.448 48.7693 45.568 49.1773 45.808C49.5853 46.048 49.9013 46.412 50.1253 46.9C50.3493 47.388 50.4613 48.012 50.4613 48.772C50.4613 49.524 50.3533 50.148 50.1373 50.644C49.9213 51.132 49.6093 51.496 49.2013 51.736C48.8013 51.976 48.3173 52.096 47.7493 52.096ZM48.0733 50.56C48.3773 50.56 48.6533 50.488 48.9013 50.344C49.1493 50.2 49.3453 49.996 49.4893 49.732C49.6413 49.46 49.7173 49.14 49.7173 48.772C49.7173 48.396 49.6413 48.076 49.4893 47.812C49.3453 47.548 49.1493 47.344 48.9013 47.2C48.6533 47.056 48.3773 46.984 48.0733 46.984C47.7613 46.984 47.4813 47.056 47.2333 47.2C46.9853 47.344 46.7853 47.548 46.6333 47.812C46.4893 48.076 46.4173 48.396 46.4173 48.772C46.4173 49.14 46.4893 49.46 46.6333 49.732C46.7853 49.996 46.9853 50.2 47.2333 50.344C47.4813 50.488 47.7613 50.56 48.0733 50.56ZM49.7653 52V50.68L49.8013 48.76L49.6813 46.852V43.096H51.5533V52H49.7653ZM56.3579 52.096C55.6699 52.096 55.0579 51.952 54.5219 51.664C53.9939 51.376 53.5739 50.984 53.2619 50.488C52.9579 49.984 52.8059 49.412 52.8059 48.772C52.8059 48.124 52.9579 47.552 53.2619 47.056C53.5739 46.552 53.9939 46.16 54.5219 45.88C55.0579 45.592 55.6699 45.448 56.3579 45.448C57.0379 45.448 57.6459 45.592 58.1819 45.88C58.7179 46.16 59.1379 46.548 59.4419 47.044C59.7459 47.54 59.8979 48.116 59.8979 48.772C59.8979 49.412 59.7459 49.984 59.4419 50.488C59.1379 50.984 58.7179 51.376 58.1819 51.664C57.6459 51.952 57.0379 52.096 56.3579 52.096ZM56.3579 50.56C56.6699 50.56 56.9499 50.488 57.1979 50.344C57.4459 50.2 57.6419 49.996 57.7859 49.732C57.9299 49.46 58.0019 49.14 58.0019 48.772C58.0019 48.396 57.9299 48.076 57.7859 47.812C57.6419 47.548 57.4459 47.344 57.1979 47.2C56.9499 47.056 56.6699 46.984 56.3579 46.984C56.0459 46.984 55.7659 47.056 55.5179 47.2C55.2699 47.344 55.0699 47.548 54.9179 47.812C54.7739 48.076 54.7019 48.396 54.7019 48.772C54.7019 49.14 54.7739 49.46 54.9179 49.732C55.0699 49.996 55.2699 50.2 55.5179 50.344C55.7659 50.488 56.0459 50.56 56.3579 50.56ZM61.8572 47.788C61.5372 47.788 61.2612 47.68 61.0292 47.464C60.8052 47.24 60.6932 46.956 60.6932 46.612C60.6932 46.268 60.8052 45.992 61.0292 45.784C61.2612 45.568 61.5372 45.46 61.8572 45.46C62.1852 45.46 62.4612 45.568 62.6852 45.784C62.9092 45.992 63.0212 46.268 63.0212 46.612C63.0212 46.956 62.9092 47.24 62.6852 47.464C62.4612 47.68 62.1852 47.788 61.8572 47.788ZM61.8572 52.096C61.5372 52.096 61.2612 51.988 61.0292 51.772C60.8052 51.548 60.6932 51.264 60.6932 50.92C60.6932 50.576 60.8052 50.3 61.0292 50.092C61.2612 49.876 61.5372 49.768 61.8572 49.768C62.1852 49.768 62.4612 49.876 62.6852 50.092C62.9092 50.3 63.0212 50.576 63.0212 50.92C63.0212 51.264 62.9092 51.548 62.6852 51.772C62.4612 51.988 62.1852 52.096 61.8572 52.096ZM71.5042 52.096C70.9602 52.096 70.4842 51.976 70.0762 51.736C69.6682 51.496 69.3482 51.132 69.1162 50.644C68.8922 50.148 68.7802 49.524 68.7802 48.772C68.7802 48.012 68.8882 47.388 69.1042 46.9C69.3202 46.412 69.6322 46.048 70.0402 45.808C70.4482 45.568 70.9362 45.448 71.5042 45.448C72.1122 45.448 72.6562 45.588 73.1362 45.868C73.6242 46.14 74.0082 46.524 74.2882 47.02C74.5762 47.516 74.7202 48.1 74.7202 48.772C74.7202 49.452 74.5762 50.04 74.2882 50.536C74.0082 51.032 73.6242 51.416 73.1362 51.688C72.6562 51.96 72.1122 52.096 71.5042 52.096ZM67.6882 54.328V45.544H69.4762V46.864L69.4402 48.784L69.5602 50.692V54.328H67.6882ZM71.1802 50.56C71.4922 50.56 71.7682 50.488 72.0082 50.344C72.2562 50.2 72.4522 49.996 72.5962 49.732C72.7482 49.46 72.8242 49.14 72.8242 48.772C72.8242 48.396 72.7482 48.076 72.5962 47.812C72.4522 47.548 72.2562 47.344 72.0082 47.2C71.7682 47.056 71.4922 46.984 71.1802 46.984C70.8682 46.984 70.5882 47.056 70.3402 47.2C70.0922 47.344 69.8962 47.548 69.7522 47.812C69.6082 48.076 69.5362 48.396 69.5362 48.772C69.5362 49.14 69.6082 49.46 69.7522 49.732C69.8962 49.996 70.0922 50.2 70.3402 50.344C70.5882 50.488 70.8682 50.56 71.1802 50.56ZM75.9734 52V45.544H77.7614V47.368L77.5094 46.84C77.7014 46.384 78.0094 46.04 78.4334 45.808C78.8574 45.568 79.3734 45.448 79.9814 45.448V47.176C79.9014 47.168 79.8294 47.164 79.7654 47.164C79.7014 47.156 79.6334 47.152 79.5614 47.152C79.0494 47.152 78.6334 47.3 78.3134 47.596C78.0014 47.884 77.8454 48.336 77.8454 48.952V52H75.9734ZM84.2516 52.096C83.5156 52.096 82.8676 51.952 82.3076 51.664C81.7556 51.376 81.3276 50.984 81.0236 50.488C80.7196 49.984 80.5676 49.412 80.5676 48.772C80.5676 48.124 80.7156 47.552 81.0116 47.056C81.3156 46.552 81.7276 46.16 82.2476 45.88C82.7676 45.592 83.3556 45.448 84.0116 45.448C84.6436 45.448 85.2116 45.584 85.7156 45.856C86.2276 46.12 86.6316 46.504 86.9276 47.008C87.2236 47.504 87.3716 48.1 87.3716 48.796C87.3716 48.868 87.3676 48.952 87.3596 49.048C87.3516 49.136 87.3436 49.22 87.3356 49.3H82.0916V48.208H86.3516L85.6316 48.532C85.6316 48.196 85.5636 47.904 85.4276 47.656C85.2916 47.408 85.1036 47.216 84.8636 47.08C84.6236 46.936 84.3436 46.864 84.0236 46.864C83.7036 46.864 83.4196 46.936 83.1716 47.08C82.9316 47.216 82.7436 47.412 82.6076 47.668C82.4716 47.916 82.4036 48.212 82.4036 48.556V48.844C82.4036 49.196 82.4796 49.508 82.6316 49.78C82.7916 50.044 83.0116 50.248 83.2916 50.392C83.5796 50.528 83.9156 50.596 84.2996 50.596C84.6436 50.596 84.9436 50.544 85.1996 50.44C85.4636 50.336 85.7036 50.18 85.9196 49.972L86.9156 51.052C86.6196 51.388 86.2476 51.648 85.7996 51.832C85.3516 52.008 84.8356 52.096 84.2516 52.096ZM90.7899 52.096C90.2379 52.096 89.7059 52.032 89.1939 51.904C88.6899 51.768 88.2899 51.6 87.9939 51.4L88.6179 50.056C88.9139 50.24 89.2619 50.392 89.6619 50.512C90.0699 50.624 90.4699 50.68 90.8619 50.68C91.2939 50.68 91.5979 50.628 91.7739 50.524C91.9579 50.42 92.0499 50.276 92.0499 50.092C92.0499 49.94 91.9779 49.828 91.8339 49.756C91.6979 49.676 91.5139 49.616 91.2819 49.576C91.0499 49.536 90.7939 49.496 90.5139 49.456C90.2419 49.416 89.9659 49.364 89.6859 49.3C89.4059 49.228 89.1499 49.124 88.9179 48.988C88.6859 48.852 88.4979 48.668 88.3539 48.436C88.2179 48.204 88.1499 47.904 88.1499 47.536C88.1499 47.128 88.2659 46.768 88.4979 46.456C88.7379 46.144 89.0819 45.9 89.5299 45.724C89.9779 45.54 90.5139 45.448 91.1379 45.448C91.5779 45.448 92.0259 45.496 92.4819 45.592C92.9379 45.688 93.3179 45.828 93.6219 46.012L92.9979 47.344C92.6859 47.16 92.3699 47.036 92.0499 46.972C91.7379 46.9 91.4339 46.864 91.1379 46.864C90.7219 46.864 90.4179 46.92 90.2259 47.032C90.0339 47.144 89.9379 47.288 89.9379 47.464C89.9379 47.624 90.0059 47.744 90.1419 47.824C90.2859 47.904 90.4739 47.968 90.7059 48.016C90.9379 48.064 91.1899 48.108 91.4619 48.148C91.7419 48.18 92.0219 48.232 92.3019 48.304C92.5819 48.376 92.8339 48.48 93.0579 48.616C93.2899 48.744 93.4779 48.924 93.6219 49.156C93.7659 49.38 93.8379 49.676 93.8379 50.044C93.8379 50.444 93.7179 50.8 93.4779 51.112C93.2379 51.416 92.8899 51.656 92.4339 51.832C91.9859 52.008 91.4379 52.096 90.7899 52.096ZM97.1649 52.096C96.6129 52.096 96.0809 52.032 95.5689 51.904C95.0649 51.768 94.6649 51.6 94.3689 51.4L94.9929 50.056C95.2889 50.24 95.6369 50.392 96.0369 50.512C96.4449 50.624 96.8449 50.68 97.2369 50.68C97.6689 50.68 97.9729 50.628 98.1489 50.524C98.3329 50.42 98.4249 50.276 98.4249 50.092C98.4249 49.94 98.3529 49.828 98.2089 49.756C98.0729 49.676 97.8889 49.616 97.6569 49.576C97.4249 49.536 97.1689 49.496 96.8889 49.456C96.6169 49.416 96.3409 49.364 96.0609 49.3C95.7809 49.228 95.5249 49.124 95.2929 48.988C95.0609 48.852 94.8729 48.668 94.7289 48.436C94.5929 48.204 94.5249 47.904 94.5249 47.536C94.5249 47.128 94.6409 46.768 94.8729 46.456C95.1129 46.144 95.4569 45.9 95.9049 45.724C96.3529 45.54 96.8889 45.448 97.5129 45.448C97.9529 45.448 98.4009 45.496 98.8569 45.592C99.3129 45.688 99.6929 45.828 99.9969 46.012L99.3729 47.344C99.0609 47.16 98.7449 47.036 98.4249 46.972C98.1129 46.9 97.8089 46.864 97.5129 46.864C97.0969 46.864 96.7929 46.92 96.6009 47.032C96.4089 47.144 96.3129 47.288 96.3129 47.464C96.3129 47.624 96.3809 47.744 96.5169 47.824C96.6609 47.904 96.8489 47.968 97.0809 48.016C97.3129 48.064 97.5649 48.108 97.8369 48.148C98.1169 48.18 98.3969 48.232 98.6769 48.304C98.9569 48.376 99.2089 48.48 99.4329 48.616C99.6649 48.744 99.8529 48.924 99.9969 49.156C100.141 49.38 100.213 49.676 100.213 50.044C100.213 50.444 100.093 50.8 99.8529 51.112C99.6129 51.416 99.2649 51.656 98.8089 51.832C98.3609 52.008 97.8129 52.096 97.1649 52.096ZM101.368 52V45.544H103.24V52H101.368ZM102.304 44.644C101.96 44.644 101.68 44.544 101.464 44.344C101.248 44.144 101.14 43.896 101.14 43.6C101.14 43.304 101.248 43.056 101.464 42.856C101.68 42.656 101.96 42.556 102.304 42.556C102.648 42.556 102.928 42.652 103.144 42.844C103.36 43.028 103.468 43.268 103.468 43.564C103.468 43.876 103.36 44.136 103.144 44.344C102.936 44.544 102.656 44.644 102.304 44.644ZM108.049 52.096C107.361 52.096 106.749 51.952 106.213 51.664C105.685 51.376 105.265 50.984 104.953 50.488C104.649 49.984 104.497 49.412 104.497 48.772C104.497 48.124 104.649 47.552 104.953 47.056C105.265 46.552 105.685 46.16 106.213 45.88C106.749 45.592 107.361 45.448 108.049 45.448C108.729 45.448 109.337 45.592 109.873 45.88C110.409 46.16 110.829 46.548 111.133 47.044C111.437 47.54 111.589 48.116 111.589 48.772C111.589 49.412 111.437 49.984 111.133 50.488C110.829 50.984 110.409 51.376 109.873 51.664C109.337 51.952 108.729 52.096 108.049 52.096ZM108.049 50.56C108.361 50.56 108.641 50.488 108.889 50.344C109.137 50.2 109.333 49.996 109.477 49.732C109.621 49.46 109.693 49.14 109.693 48.772C109.693 48.396 109.621 48.076 109.477 47.812C109.333 47.548 109.137 47.344 108.889 47.2C108.641 47.056 108.361 46.984 108.049 46.984C107.737 46.984 107.457 47.056 107.209 47.2C106.961 47.344 106.761 47.548 106.609 47.812C106.465 48.076 106.393 48.396 106.393 48.772C106.393 49.14 106.465 49.46 106.609 49.732C106.761 49.996 106.961 50.2 107.209 50.344C107.457 50.488 107.737 50.56 108.049 50.56ZM116.765 45.448C117.277 45.448 117.733 45.552 118.133 45.76C118.541 45.96 118.861 46.272 119.093 46.696C119.325 47.112 119.441 47.648 119.441 48.304V52H117.569V48.592C117.569 48.072 117.453 47.688 117.221 47.44C116.997 47.192 116.677 47.068 116.261 47.068C115.965 47.068 115.697 47.132 115.457 47.26C115.225 47.38 115.041 47.568 114.905 47.824C114.777 48.08 114.713 48.408 114.713 48.808V52H112.841V45.544H114.629V47.332L114.293 46.792C114.525 46.36 114.857 46.028 115.289 45.796C115.721 45.564 116.213 45.448 116.765 45.448ZM124.388 52.096C123.652 52.096 123.004 51.952 122.444 51.664C121.892 51.376 121.464 50.984 121.16 50.488C120.856 49.984 120.704 49.412 120.704 48.772C120.704 48.124 120.852 47.552 121.148 47.056C121.452 46.552 121.864 46.16 122.384 45.88C122.904 45.592 123.492 45.448 124.148 45.448C124.78 45.448 125.348 45.584 125.852 45.856C126.364 46.12 126.768 46.504 127.064 47.008C127.36 47.504 127.508 48.1 127.508 48.796C127.508 48.868 127.504 48.952 127.496 49.048C127.488 49.136 127.48 49.22 127.472 49.3H122.228V48.208H126.488L125.768 48.532C125.768 48.196 125.7 47.904 125.564 47.656C125.428 47.408 125.24 47.216 125 47.08C124.76 46.936 124.48 46.864 124.16 46.864C123.84 46.864 123.556 46.936 123.308 47.08C123.068 47.216 122.88 47.412 122.744 47.668C122.608 47.916 122.54 48.212 122.54 48.556V48.844C122.54 49.196 122.616 49.508 122.768 49.78C122.928 50.044 123.148 50.248 123.428 50.392C123.716 50.528 124.052 50.596 124.436 50.596C124.78 50.596 125.08 50.544 125.336 50.44C125.6 50.336 125.84 50.18 126.056 49.972L127.052 51.052C126.756 51.388 126.384 51.648 125.936 51.832C125.488 52.008 124.972 52.096 124.388 52.096ZM132.153 52V45.544H134.025V52H132.153ZM133.089 44.644C132.745 44.644 132.465 44.544 132.249 44.344C132.033 44.144 131.925 43.896 131.925 43.6C131.925 43.304 132.033 43.056 132.249 42.856C132.465 42.656 132.745 42.556 133.089 42.556C133.433 42.556 133.713 42.652 133.929 42.844C134.145 43.028 134.253 43.268 134.253 43.564C134.253 43.876 134.145 44.136 133.929 44.344C133.721 44.544 133.441 44.644 133.089 44.644ZM139.686 45.448C140.198 45.448 140.654 45.552 141.054 45.76C141.462 45.96 141.782 46.272 142.014 46.696C142.246 47.112 142.362 47.648 142.362 48.304V52H140.49V48.592C140.49 48.072 140.374 47.688 140.142 47.44C139.918 47.192 139.598 47.068 139.182 47.068C138.886 47.068 138.618 47.132 138.378 47.26C138.146 47.38 137.962 47.568 137.826 47.824C137.698 48.08 137.634 48.408 137.634 48.808V52H135.762V45.544H137.55V47.332L137.214 46.792C137.446 46.36 137.778 46.028 138.21 45.796C138.642 45.564 139.134 45.448 139.686 45.448ZM144.059 52V45.544H145.931V52H144.059ZM144.995 44.644C144.651 44.644 144.371 44.544 144.155 44.344C143.939 44.144 143.831 43.896 143.831 43.6C143.831 43.304 143.939 43.056 144.155 42.856C144.371 42.656 144.651 42.556 144.995 42.556C145.339 42.556 145.619 42.652 145.835 42.844C146.051 43.028 146.159 43.268 146.159 43.564C146.159 43.876 146.051 44.136 145.835 44.344C145.627 44.544 145.347 44.644 144.995 44.644ZM150.789 52.096C150.093 52.096 149.473 51.956 148.929 51.676C148.385 51.388 147.957 50.992 147.645 50.488C147.341 49.984 147.189 49.412 147.189 48.772C147.189 48.124 147.341 47.552 147.645 47.056C147.957 46.552 148.385 46.16 148.929 45.88C149.473 45.592 150.093 45.448 150.789 45.448C151.469 45.448 152.061 45.592 152.565 45.88C153.069 46.16 153.441 46.564 153.681 47.092L152.229 47.872C152.061 47.568 151.849 47.344 151.593 47.2C151.345 47.056 151.073 46.984 150.777 46.984C150.457 46.984 150.169 47.056 149.913 47.2C149.657 47.344 149.453 47.548 149.301 47.812C149.157 48.076 149.085 48.396 149.085 48.772C149.085 49.148 149.157 49.468 149.301 49.732C149.453 49.996 149.657 50.2 149.913 50.344C150.169 50.488 150.457 50.56 150.777 50.56C151.073 50.56 151.345 50.492 151.593 50.356C151.849 50.212 152.061 49.984 152.229 49.672L153.681 50.464C153.441 50.984 153.069 51.388 152.565 51.676C152.061 51.956 151.469 52.096 150.789 52.096ZM154.723 52V45.544H156.595V52H154.723ZM155.659 44.644C155.315 44.644 155.035 44.544 154.819 44.344C154.603 44.144 154.495 43.896 154.495 43.6C154.495 43.304 154.603 43.056 154.819 42.856C155.035 42.656 155.315 42.556 155.659 42.556C156.003 42.556 156.283 42.652 156.499 42.844C156.715 43.028 156.823 43.268 156.823 43.564C156.823 43.876 156.715 44.136 156.499 44.344C156.291 44.544 156.011 44.644 155.659 44.644ZM162.293 52V50.74L162.173 50.464V48.208C162.173 47.808 162.049 47.496 161.801 47.272C161.561 47.048 161.189 46.936 160.685 46.936C160.341 46.936 160.001 46.992 159.665 47.104C159.337 47.208 159.057 47.352 158.825 47.536L158.153 46.228C158.505 45.98 158.929 45.788 159.425 45.652C159.921 45.516 160.425 45.448 160.937 45.448C161.921 45.448 162.685 45.68 163.229 46.144C163.773 46.608 164.045 47.332 164.045 48.316V52H162.293ZM160.325 52.096C159.821 52.096 159.389 52.012 159.029 51.844C158.669 51.668 158.393 51.432 158.201 51.136C158.009 50.84 157.913 50.508 157.913 50.14C157.913 49.756 158.005 49.42 158.189 49.132C158.381 48.844 158.681 48.62 159.089 48.46C159.497 48.292 160.029 48.208 160.685 48.208H162.401V49.3H160.889C160.449 49.3 160.145 49.372 159.977 49.516C159.817 49.66 159.737 49.84 159.737 50.056C159.737 50.296 159.829 50.488 160.013 50.632C160.205 50.768 160.465 50.836 160.793 50.836C161.105 50.836 161.385 50.764 161.633 50.62C161.881 50.468 162.061 50.248 162.173 49.96L162.461 50.824C162.325 51.24 162.077 51.556 161.717 51.772C161.357 51.988 160.893 52.096 160.325 52.096ZM165.739 52V45.544H167.527V47.368L167.275 46.84C167.467 46.384 167.775 46.04 168.199 45.808C168.623 45.568 169.139 45.448 169.747 45.448V47.176C169.667 47.168 169.595 47.164 169.531 47.164C169.467 47.156 169.399 47.152 169.327 47.152C168.815 47.152 168.399 47.3 168.079 47.596C167.767 47.884 167.611 48.336 167.611 48.952V52H165.739ZM171.498 52.096C171.178 52.096 170.902 51.988 170.67 51.772C170.446 51.548 170.334 51.264 170.334 50.92C170.334 50.576 170.446 50.3 170.67 50.092C170.902 49.876 171.178 49.768 171.498 49.768C171.826 49.768 172.102 49.876 172.326 50.092C172.55 50.3 172.662 50.576 172.662 50.92C172.662 51.264 172.55 51.548 172.326 51.772C172.102 51.988 171.826 52.096 171.498 52.096Z" fill="#333333"/>
<path fill-rule="evenodd" clip-rule="evenodd" d="M250 124.985C250 114 241 104.992 230 104.992C168.172 104.992 143 105 143 105L135 113H97.9998L88.9998 104.999H54.1467C43.1467 104.999 34.1467 114 34.1467 124.992C34.1467 124.999 34.1467 125.007 34.1467 125.014C34.1467 136 43.1467 145 54.1467 145C70.7097 145 89 145 89 145L98 153H135L143 145H230.147C241 145 250 136 250 125.007C250 125 250 125.5 250 124.985Z" fill="#30DCFF"/>
<path fill-rule="evenodd" clip-rule="evenodd" d="M250 124.989C250 114 241 105 229.853 105C168.025 105 143 105 143 105L135 113H98L89 105H54C43 105 34 114 34 124.989C34 124.996 34 125 34 125H39C39 115 46 110 54 110C68.6641 110 87 110 87 110L96 118H137L145 110H230C239 110 245 116 245 125L250 125V124.989Z" fill="white" fill-opacity="0.5"/>
<path fill-rule="evenodd" clip-rule="evenodd" d="M250 125L245 125C245 133.971 239.197 140 230 140C172.995 140 141 140 141 140L133 148H100L91 140H54C43.4962 140 39 134 39 125.001L34 125V125.011C34 136 43 145 54 145C70.563 145 89 145 89 145L98 153H135L143 145H230C241 145 250 136 250 125Z" fill="black" fill-opacity="0.25"/>
<path d="M43.892 132L47.636 123.6H49.556L53.312 132H51.272L48.2 124.584H48.968L45.884 132H43.892ZM45.764 130.2L46.28 128.724H50.6L51.128 130.2H45.764ZM56.7649 132.096C56.1569 132.096 55.6089 131.96 55.1209 131.688C54.6329 131.408 54.2449 131.02 53.9569 130.524C53.6769 130.028 53.5369 129.444 53.5369 128.772C53.5369 128.092 53.6769 127.504 53.9569 127.008C54.2449 126.512 54.6329 126.128 55.1209 125.856C55.6089 125.584 56.1569 125.448 56.7649 125.448C57.3089 125.448 57.7849 125.568 58.1929 125.808C58.6009 126.048 58.9169 126.412 59.1409 126.9C59.3649 127.388 59.4769 128.012 59.4769 128.772C59.4769 129.524 59.3689 130.148 59.1529 130.644C58.9369 131.132 58.6249 131.496 58.2169 131.736C57.8169 131.976 57.3329 132.096 56.7649 132.096ZM57.0889 130.56C57.3929 130.56 57.6689 130.488 57.9169 130.344C58.1649 130.2 58.3609 129.996 58.5049 129.732C58.6569 129.46 58.7329 129.14 58.7329 128.772C58.7329 128.396 58.6569 128.076 58.5049 127.812C58.3609 127.548 58.1649 127.344 57.9169 127.2C57.6689 127.056 57.3929 126.984 57.0889 126.984C56.7769 126.984 56.4969 127.056 56.2489 127.2C56.0009 127.344 55.8009 127.548 55.6489 127.812C55.5049 128.076 55.4329 128.396 55.4329 128.772C55.4329 129.14 55.5049 129.46 55.6489 129.732C55.8009 129.996 56.0009 130.2 56.2489 130.344C56.4969 130.488 56.7769 130.56 57.0889 130.56ZM58.7809 132V130.68L58.8169 128.76L58.6969 126.852V123.096H60.5689V132H58.7809ZM62.3015 132V125.544H64.1735V132H62.3015ZM63.2375 124.644C62.8935 124.644 62.6135 124.544 62.3975 124.344C62.1815 124.144 62.0735 123.896 62.0735 123.6C62.0735 123.304 62.1815 123.056 62.3975 122.856C62.6135 122.656 62.8935 122.556 63.2375 122.556C63.5815 122.556 63.8615 122.652 64.0775 122.844C64.2935 123.028 64.4015 123.268 64.4015 123.564C64.4015 123.876 64.2935 124.136 64.0775 124.344C63.8695 124.544 63.5895 124.644 63.2375 124.644ZM69.0309 132.096C68.3349 132.096 67.7149 131.956 67.1709 131.676C66.6269 131.388 66.1989 130.992 65.8869 130.488C65.5829 129.984 65.4309 129.412 65.4309 128.772C65.4309 128.124 65.5829 127.552 65.8869 127.056C66.1989 126.552 66.6269 126.16 67.1709 125.88C67.7149 125.592 68.3349 125.448 69.0309 125.448C69.7109 125.448 70.3029 125.592 70.8069 125.88C71.3109 126.16 71.6829 126.564 71.9229 127.092L70.4709 127.872C70.3029 127.568 70.0909 127.344 69.8349 127.2C69.5869 127.056 69.3149 126.984 69.0189 126.984C68.6989 126.984 68.4109 127.056 68.1549 127.2C67.8989 127.344 67.6949 127.548 67.5429 127.812C67.3989 128.076 67.3269 128.396 67.3269 128.772C67.3269 129.148 67.3989 129.468 67.5429 129.732C67.6949 129.996 67.8989 130.2 68.1549 130.344C68.4109 130.488 68.6989 130.56 69.0189 130.56C69.3149 130.56 69.5869 130.492 69.8349 130.356C70.0909 130.212 70.3029 129.984 70.4709 129.672L71.9229 130.464C71.6829 130.984 71.3109 131.388 70.8069 131.676C70.3029 131.956 69.7109 132.096 69.0309 132.096ZM72.9656 132V125.544H74.8376V132H72.9656ZM73.9016 124.644C73.5576 124.644 73.2776 124.544 73.0616 124.344C72.8456 124.144 72.7376 123.896 72.7376 123.6C72.7376 123.304 72.8456 123.056 73.0616 122.856C73.2776 122.656 73.5576 122.556 73.9016 122.556C74.2456 122.556 74.5256 122.652 74.7416 122.844C74.9576 123.028 75.0656 123.268 75.0656 123.564C75.0656 123.876 74.9576 124.136 74.7416 124.344C74.5336 124.544 74.2536 124.644 73.9016 124.644ZM79.6469 132.096C78.9589 132.096 78.3469 131.952 77.8109 131.664C77.2829 131.376 76.8629 130.984 76.5509 130.488C76.2469 129.984 76.0949 129.412 76.0949 128.772C76.0949 128.124 76.2469 127.552 76.5509 127.056C76.8629 126.552 77.2829 126.16 77.8109 125.88C78.3469 125.592 78.9589 125.448 79.6469 125.448C80.3269 125.448 80.9349 125.592 81.4709 125.88C82.0069 126.16 82.4269 126.548 82.7309 127.044C83.0349 127.54 83.1869 128.116 83.1869 128.772C83.1869 129.412 83.0349 129.984 82.7309 130.488C82.4269 130.984 82.0069 131.376 81.4709 131.664C80.9349 131.952 80.3269 132.096 79.6469 132.096ZM79.6469 130.56C79.9589 130.56 80.2389 130.488 80.4869 130.344C80.7349 130.2 80.9309 129.996 81.0749 129.732C81.2189 129.46 81.2909 129.14 81.2909 128.772C81.2909 128.396 81.2189 128.076 81.0749 127.812C80.9309 127.548 80.7349 127.344 80.4869 127.2C80.2389 127.056 79.9589 126.984 79.6469 126.984C79.3349 126.984 79.0549 127.056 78.8069 127.2C78.5589 127.344 78.3589 127.548 78.2069 127.812C78.0629 128.076 77.9909 128.396 77.9909 128.772C77.9909 129.14 78.0629 129.46 78.2069 129.732C78.3589 129.996 78.5589 130.2 78.8069 130.344C79.0549 130.488 79.3349 130.56 79.6469 130.56ZM88.3622 125.448C88.8742 125.448 89.3302 125.552 89.7302 125.76C90.1382 125.96 90.4582 126.272 90.6902 126.696C90.9222 127.112 91.0382 127.648 91.0382 128.304V132H89.1662V128.592C89.1662 128.072 89.0502 127.688 88.8182 127.44C88.5942 127.192 88.2742 127.068 87.8582 127.068C87.5622 127.068 87.2942 127.132 87.0542 127.26C86.8222 127.38 86.6382 127.568 86.5022 127.824C86.3742 128.08 86.3102 128.408 86.3102 128.808V132H84.4382V125.544H86.2262V127.332L85.8902 126.792C86.1222 126.36 86.4542 126.028 86.8862 125.796C87.3182 125.564 87.8102 125.448 88.3622 125.448ZM96.6951 132V130.74L96.5751 130.464V128.208C96.5751 127.808 96.4511 127.496 96.2031 127.272C95.9631 127.048 95.5911 126.936 95.0871 126.936C94.7431 126.936 94.4031 126.992 94.0671 127.104C93.7391 127.208 93.4591 127.352 93.2271 127.536L92.5551 126.228C92.9071 125.98 93.3311 125.788 93.8271 125.652C94.3231 125.516 94.8271 125.448 95.3391 125.448C96.3231 125.448 97.0871 125.68 97.6311 126.144C98.1751 126.608 98.4471 127.332 98.4471 128.316V132H96.6951ZM94.7271 132.096C94.2231 132.096 93.7911 132.012 93.4311 131.844C93.0711 131.668 92.7951 131.432 92.6031 131.136C92.4111 130.84 92.3151 130.508 92.3151 130.14C92.3151 129.756 92.4071 129.42 92.5911 129.132C92.7831 128.844 93.0831 128.62 93.4911 128.46C93.8991 128.292 94.4311 128.208 95.0871 128.208H96.8031V129.3H95.2911C94.8511 129.3 94.5471 129.372 94.3791 129.516C94.2191 129.66 94.1391 129.84 94.1391 130.056C94.1391 130.296 94.2311 130.488 94.4151 130.632C94.6071 130.768 94.8671 130.836 95.1951 130.836C95.5071 130.836 95.7871 130.764 96.0351 130.62C96.2831 130.468 96.4631 130.248 96.5751 129.96L96.8631 130.824C96.7271 131.24 96.4791 131.556 96.1191 131.772C95.7591 131.988 95.2951 132.096 94.7271 132.096ZM100.141 132V125.544H101.929V127.368L101.677 126.84C101.869 126.384 102.177 126.04 102.601 125.808C103.025 125.568 103.541 125.448 104.149 125.448V127.176C104.069 127.168 103.997 127.164 103.933 127.164C103.869 127.156 103.801 127.152 103.729 127.152C103.217 127.152 102.801 127.3 102.481 127.596C102.169 127.884 102.013 128.336 102.013 128.952V132H100.141Z" fill="#333333"/>
<path fill-rule="evenodd" clip-rule="evenodd" d="M250 164.985C250 154 241 144.992 230 144.992C168.172 144.992 143 145 143 145L135 153H97.9998L88.9998 144.999H54.1467C43.1467 144.999 34.1467 154 34.1467 164.992C34.1467 164.999 34.1467 165.007 34.1467 165.014C34.1467 176 43.1467 185 54.1467 185C70.7097 185 89 185 89 185L98 193H135L143 185H230.147C241 185 250 176 250 165.007C250 165 250 165.5 250 164.985Z" fill="#30DCFF"/>
<path fill-rule="evenodd" clip-rule="evenodd" d="M250 164.989C250 154 241 145 229.853 145C168.025 145 143 145 143 145L135 153H98L89 145H54C43 145 34 154 34 164.989C34 164.996 34 165 34 165H39C39 155 46 150 54 150C68.6641 150 87 150 87 150L96 158H137L145 150H230C239 150 245 156 245 165L250 165V164.989Z" fill="white" fill-opacity="0.5"/>
<path fill-rule="evenodd" clip-rule="evenodd" d="M250 165L245 165C245 173.971 239.197 180 230 180C172.995 180 141 180 141 180L133 188H100L91 180H54C43.4962 180 39 174 39 165.001L34 165V165.011C34 176 43 185 54 185C70.563 185 89 185 89 185L98 193H135L143 185H230C241 185 250 176 250 165Z" fill="black" fill-opacity="0.25"/>
<rect x="49" y="153" width="23" height="23" rx="5" fill="#F2F2F2"/>
<path d="M57.269 164.02C58.005 164.14 58.569 164.416 58.961 164.848C59.353 165.272 59.549 165.8 59.549 166.432C59.549 166.92 59.421 167.372 59.165 167.788C58.909 168.196 58.517 168.524 57.989 168.772C57.469 169.02 56.829 169.144 56.069 169.144C55.477 169.144 54.893 169.068 54.317 168.916C53.749 168.756 53.265 168.532 52.865 168.244L53.621 166.756C53.941 166.996 54.309 167.184 54.725 167.32C55.149 167.448 55.581 167.512 56.021 167.512C56.509 167.512 56.893 167.42 57.173 167.236C57.453 167.044 57.593 166.776 57.593 166.432C57.593 165.744 57.069 165.4 56.021 165.4H55.133V164.116L56.861 162.16H53.285V160.6H59.165V161.86L57.269 164.02ZM64.0465 169.144C63.3505 169.144 62.7305 168.972 62.1865 168.628C61.6425 168.284 61.2145 167.788 60.9025 167.14C60.5985 166.484 60.4465 165.704 60.4465 164.8C60.4465 163.896 60.5985 163.12 60.9025 162.472C61.2145 161.816 61.6425 161.316 62.1865 160.972C62.7305 160.628 63.3505 160.456 64.0465 160.456C64.7425 160.456 65.3625 160.628 65.9065 160.972C66.4505 161.316 66.8745 161.816 67.1785 162.472C67.4905 163.12 67.6465 163.896 67.6465 164.8C67.6465 165.704 67.4905 166.484 67.1785 167.14C66.8745 167.788 66.4505 168.284 65.9065 168.628C65.3625 168.972 64.7425 169.144 64.0465 169.144ZM64.0465 167.5C64.5585 167.5 64.9585 167.28 65.2465 166.84C65.5425 166.4 65.6905 165.72 65.6905 164.8C65.6905 163.88 65.5425 163.2 65.2465 162.76C64.9585 162.32 64.5585 162.1 64.0465 162.1C63.5425 162.1 63.1425 162.32 62.8465 162.76C62.5585 163.2 62.4145 163.88 62.4145 164.8C62.4145 165.72 62.5585 166.4 62.8465 166.84C63.1425 167.28 63.5425 167.5 64.0465 167.5Z" fill="#333333"/>
<path fill-rule="evenodd" clip-rule="evenodd" d="M250 84.9846C250 73.9995 241 64.9922 230 64.9922C168.172 64.9922 143 64.9995 143 64.9995L135 72.9996H97.9998L88.9998 64.9993H54.1467C43.1467 64.9993 34.1467 73.9995 34.1467 84.9919C34.1467 84.9992 34.1467 85.0068 34.1467 85.0143C34.1467 95.9995 43.1467 105 54.1467 105C70.7097 105 89 105 89 105L98 113H135L143 105H230.147C241 105 250 95.9995 250 85.0071C250 84.9995 250 85.4995 250 84.9846Z" fill="#30DCFF"/>
<path fill-rule="evenodd" clip-rule="evenodd" d="M250 84.9888C250 74 241 65 229.853 65C168.025 65 143 65.0001 143 65.0001L135 73H98L89 65.0001H54C43 65.0001 34 74.0001 34 84.9888C34 84.9962 34 85.0001 34 85.0001H39C39 75 46 70.0001 54 70.0001C68.6641 70.0001 87 70 87 70L96 78H137L145 70H230C239 70 245 76 245 84.9998L250 85V84.9888Z" fill="white" fill-opacity="0.5"/>
<path fill-rule="evenodd" clip-rule="evenodd" d="M250 85L245 85C245 93.9711 239.197 100 230 100C172.995 100 141 100 141 100L133 108H100L91 100H54C43.4962 100 39 94 39 85.0015L34 85V85.0112C34 96 43 105 54 105C70.563 105 89 105 89 105L98 113H135L143 105H230C241 105 250 96 250 85Z" fill="black" fill-opacity="0.25"/>
<rect x="49" y="73" width="23" height="23" rx="5" fill="#F2F2F2"/>
<path d="M57.269 84.02C58.005 84.14 58.569 84.416 58.961 84.848C59.353 85.272 59.549 85.8 59.549 86.432C59.549 86.92 59.421 87.372 59.165 87.788C58.909 88.196 58.517 88.524 57.989 88.772C57.469 89.02 56.829 89.144 56.069 89.144C55.477 89.144 54.893 89.068 54.317 88.916C53.749 88.756 53.265 88.532 52.865 88.244L53.621 86.756C53.941 86.996 54.309 87.184 54.725 87.32C55.149 87.448 55.581 87.512 56.021 87.512C56.509 87.512 56.893 87.42 57.173 87.236C57.453 87.044 57.593 86.776 57.593 86.432C57.593 85.744 57.069 85.4 56.021 85.4H55.133V84.116L56.861 82.16H53.285V80.6H59.165V81.86L57.269 84.02ZM64.0465 89.144C63.3505 89.144 62.7305 88.972 62.1865 88.628C61.6425 88.284 61.2145 87.788 60.9025 87.14C60.5985 86.484 60.4465 85.704 60.4465 84.8C60.4465 83.896 60.5985 83.12 60.9025 82.472C61.2145 81.816 61.6425 81.316 62.1865 80.972C62.7305 80.628 63.3505 80.456 64.0465 80.456C64.7425 80.456 65.3625 80.628 65.9065 80.972C66.4505 81.316 66.8745 81.816 67.1785 82.472C67.4905 83.12 67.6465 83.896 67.6465 84.8C67.6465 85.704 67.4905 86.484 67.1785 87.14C66.8745 87.788 66.4505 88.284 65.9065 88.628C65.3625 88.972 64.7425 89.144 64.0465 89.144ZM64.0465 87.5C64.5585 87.5 64.9585 87.28 65.2465 86.84C65.5425 86.4 65.6905 85.72 65.6905 84.8C65.6905 83.88 65.5425 83.2 65.2465 82.76C64.9585 82.32 64.5585 82.1 64.0465 82.1C63.5425 82.1 63.1425 82.32 62.8465 82.76C62.5585 83.2 62.4145 83.88 62.4145 84.8C62.4145 85.72 62.5585 86.4 62.8465 86.84C63.1425 87.28 63.5425 87.5 64.0465 87.5Z" fill="#333333"/>
</svg>
