<svg width="80" height="80" viewBox="0 0 80 80" fill="none" xmlns="http://www.w3.org/2000/svg">
<path fill-rule="evenodd" clip-rule="evenodd" d="M49.0663 5.92008C51.474 5.37041 55.4249 5.53532 57.1628 5.86511C65.6738 7.48027 68.7716 31.1364 63.9138 43.6922C59.193 55.8936 49.4355 68.7654 39.9797 73.1186C35.7075 75.0854 24.9707 75.0996 22.1914 72.0622C12.8936 61.9011 34.6896 56.428 42.1351 38.2922C48.2437 23.4129 39.1164 8.19164 49.0663 5.92008Z" fill="#00D8CC"/>
<path fill-rule="evenodd" clip-rule="evenodd" d="M45.9416 12.8999C45.359 14.7848 45.9824 16.1378 47.297 17.3921C48.5011 18.541 50.5489 19.5663 51.93 21.5437C52.8743 22.8958 52.9127 24.4812 52.639 25.9137C52.3325 27.5184 51.6219 28.9602 51.0689 29.8256C50.5937 30.5696 50.8118 31.5594 51.5557 32.0347C52.2996 32.5099 53.2894 32.2919 53.7647 31.5479C54.6235 30.2037 55.7639 27.7808 55.9551 25.2134C56.0939 23.3495 55.7454 21.4198 54.5527 19.712C53.2449 17.8395 51.4555 16.6696 50.0957 15.5848C49.7916 15.3422 49.5149 15.1067 49.2909 14.8586C49.0313 14.571 48.867 14.2683 48.998 13.8446C49.2586 13.0012 48.7856 12.1048 47.9421 11.8441C47.0987 11.5834 46.2023 12.0565 45.9416 12.8999Z" fill="#00A49A"/>
<path fill-rule="evenodd" clip-rule="evenodd" d="M43.8909 41.1519C43.3082 43.0368 43.9316 44.3898 45.2462 45.6441C46.4503 46.7929 48.4981 47.8182 49.8792 49.7957C50.8235 51.1478 50.8619 52.7332 50.5882 54.1657C50.2817 55.7704 49.5711 57.2122 49.0182 58.0776C48.5429 58.8216 48.761 59.8114 49.5049 60.2867C50.2488 60.7619 51.2386 60.5439 51.7139 59.7999C52.5727 58.4557 53.7131 56.0328 53.9043 53.4654C54.0431 51.6015 53.6946 49.6718 52.5019 47.964C51.1941 46.0915 49.4047 44.9216 48.0449 43.8368C47.7408 43.5941 47.4641 43.3587 47.2401 43.1106C46.9805 42.823 46.8162 42.5203 46.9472 42.0966C47.2079 41.2531 46.7348 40.3568 45.8914 40.0961C45.0479 39.8354 44.1515 40.3085 43.8909 41.1519Z" fill="#00A49A"/>
<path fill-rule="evenodd" clip-rule="evenodd" d="M62.9189 25.4592C60.9462 25.4846 59.8505 26.494 59.0615 28.1307C58.3388 29.6298 57.9932 31.8937 56.5364 33.8162C55.5404 35.1306 54.0437 35.6548 52.5964 35.8352C50.9753 36.0372 49.3848 35.8045 48.3913 35.5446C47.5372 35.3212 46.6625 35.8333 46.4391 36.6873C46.2157 37.5414 46.7277 38.4161 47.5818 38.6395C49.125 39.0431 51.7812 39.3829 54.2829 38.775C56.0992 38.3337 57.8281 37.4085 59.0861 35.7482C60.4655 33.9278 61.0282 31.8653 61.6421 30.2377C61.7794 29.8737 61.9183 29.538 62.0855 29.2485C62.2793 28.913 62.5168 28.6636 62.9603 28.6578C63.843 28.6464 64.5504 27.9205 64.539 27.0378C64.5275 26.1551 63.8017 25.4477 62.9189 25.4592Z" fill="#00A49A"/>
<path fill-rule="evenodd" clip-rule="evenodd" d="M40.7356 44.7153C38.9895 45.6337 38.4716 47.0305 38.5117 48.8471C38.5484 50.5108 39.2684 52.6849 38.8434 55.0591C38.5528 56.6825 37.4573 57.8292 36.2497 58.647C34.897 59.563 33.3743 60.0779 32.371 60.2975C31.5087 60.4862 30.9618 61.3396 31.1505 62.2019C31.3393 63.0643 32.1927 63.6112 33.055 63.4224C34.6132 63.0814 37.1342 62.1781 39.0871 60.5006C40.505 59.2826 41.6253 57.6733 41.9923 55.6228C42.3948 53.3747 41.9596 51.2815 41.7677 49.5526C41.7247 49.1659 41.6961 48.8038 41.7136 48.4699C41.7339 48.083 41.8322 47.7529 42.2248 47.5465C43.0061 47.1355 43.3067 46.1676 42.8958 45.3863C42.4848 44.605 41.5169 44.3043 40.7356 44.7153Z" fill="#00A49A"/>
<path fill-rule="evenodd" clip-rule="evenodd" d="M42.1096 63.8538C40.302 63.0634 38.8876 63.5311 37.4937 64.6967C36.2171 65.7643 34.9686 67.6843 32.8487 68.8349C31.3993 69.6216 29.8195 69.4819 28.4267 69.0493C26.8666 68.5647 25.5136 67.6969 24.7156 67.0503C24.0297 66.4946 23.0217 66.6003 22.466 67.2863C21.9102 67.9722 22.0159 68.9802 22.7018 69.5359C23.9412 70.5401 26.2209 71.945 28.7507 72.423C30.5873 72.7699 32.5439 72.6401 34.3747 71.6464C36.382 70.5569 37.7453 68.91 38.9757 67.6805C39.251 67.4055 39.5159 67.157 39.7876 66.9622C40.1025 66.7364 40.4218 66.6071 40.8281 66.7848C41.637 67.1385 42.5808 66.7689 42.9344 65.96C43.2881 65.1512 42.9185 64.2074 42.1096 63.8538Z" fill="#00A49A"/>
</svg>
