<svg width="80" height="80" viewBox="0 0 80 80" fill="none" xmlns="http://www.w3.org/2000/svg">
<path fill-rule="evenodd" clip-rule="evenodd" d="M39.9941 10.4966C55.9282 7.17305 72.628 24.0177 69.486 39.9886C66.4263 55.5409 56.3516 72.8336 39.9941 69.4805C24.0487 66.2118 13.3559 56.0135 10.5022 39.9886C7.60351 23.7115 23.395 13.9589 39.9941 10.4966Z" fill="#F2F2F2"/>
<path fill-rule="evenodd" clip-rule="evenodd" d="M17.7772 23.5563C18.7717 21.9416 18.8324 18.7337 18.0281 16.7759C17.23 14.8332 12.7326 14.0367 14.3535 11.7564C15.4142 10.2642 20.1164 12.5529 21.6136 14.7569C22.8813 16.6231 23.14 19.4162 24.6212 19.4297C30.8892 19.4872 14.297 29.2061 17.7772 23.5563Z" fill="#F2F2F2"/>
<path fill-rule="evenodd" clip-rule="evenodd" d="M54.6201 15.5775C56.5048 15.3675 59.0705 13.4408 60.1184 11.6018C61.1582 9.77714 59.0177 5.74232 61.8126 5.61622C63.6414 5.53369 64.732 10.6483 63.9165 13.1849C63.226 15.3327 61.184 17.2558 62.085 18.4315C65.8978 23.4068 48.0253 16.3123 54.6201 15.5775Z" fill="#F2F2F2"/>
<path fill-rule="evenodd" clip-rule="evenodd" d="M17.286 36.1231C17.2968 34.2268 15.6817 31.4544 13.9771 30.1996C12.2859 28.9545 8.02935 30.6109 8.22935 27.8204C8.36021 25.9944 13.567 25.5064 15.9915 26.6115C18.0443 27.5472 19.7167 29.7992 20.9892 29.0411C26.3745 25.8331 17.2484 42.7587 17.286 36.1231Z" fill="#F2F2F2"/>
<path fill-rule="evenodd" clip-rule="evenodd" d="M64.809 47.1473C63.5626 48.5765 62.9755 51.7309 63.4472 53.7943C63.9151 55.8416 68.2204 57.3665 66.2468 59.3494C64.9554 60.647 60.6933 57.6166 59.5786 55.1965C58.6348 53.1473 58.8386 50.3498 57.3798 50.0929C51.2065 49.0062 69.1703 42.1462 64.809 47.1473Z" fill="#F2F2F2"/>
<path fill-rule="evenodd" clip-rule="evenodd" d="M23.6227 58.4416C21.7336 58.2759 18.8386 59.6591 17.4486 61.2554C16.0696 62.8393 17.3727 67.2169 14.6078 66.7896C12.7986 66.51 12.7377 61.2807 14.0372 58.9547C15.1375 56.9851 17.5185 55.5023 16.867 54.1721C14.1097 48.5428 30.233 59.0212 23.6227 58.4416Z" fill="#F2F2F2"/>
<path fill-rule="evenodd" clip-rule="evenodd" d="M51.0649 66.4305C49.5969 67.631 48.4904 70.6428 48.6101 72.756C48.7289 74.8527 52.7185 77.0764 50.4409 78.7012C48.9506 79.7644 45.2555 76.0637 44.5615 73.4912C43.9739 71.313 44.6429 68.589 43.2476 68.0917C37.3431 65.9874 56.2014 62.2297 51.0649 66.4305Z" fill="#F2F2F2"/>
<path fill-rule="evenodd" clip-rule="evenodd" d="M37.5105 11.6082C35.6645 11.1742 33.3479 8.9543 32.5275 7.00313C31.7135 5.06717 34.3214 1.31745 31.5617 0.857838C29.7559 0.55707 28.0612 5.50448 28.5673 8.12045C28.9958 10.3354 30.793 12.489 29.7578 13.5484C25.3771 18.0318 43.97 13.1268 37.5105 11.6082Z" fill="#F2F2F2"/>
<path fill-rule="evenodd" clip-rule="evenodd" d="M24.103 61.3995C24.9218 63.11 24.6439 66.3065 23.6376 68.1686C22.6392 70.0162 18.0829 70.3342 19.4543 72.7727C20.3517 74.3683 25.269 72.5882 26.9903 70.5543C28.4477 68.8322 28.9994 66.082 30.4738 66.2246C36.713 66.8284 21.2379 55.4143 24.103 61.3995Z" fill="#F2F2F2"/>
<path fill-rule="evenodd" clip-rule="evenodd" d="M50.827 67.9316C52.4415 66.9368 55.6495 66.8759 57.6074 67.68C59.5501 68.4779 60.3471 72.9752 62.6273 71.3541C64.1193 70.2933 61.8302 65.5913 59.626 64.0943C57.7597 62.8268 54.9666 62.5683 54.9529 61.0872C54.8949 54.8191 45.1775 71.4122 50.827 67.9316Z" fill="#F2F2F2"/>
<path fill-rule="evenodd" clip-rule="evenodd" d="M16.8454 37.9937C15.9626 39.6721 13.2331 41.3586 11.1386 41.6639C9.06049 41.9669 6.08383 38.5027 4.94736 41.0592C4.20375 42.7321 8.5687 45.6123 11.2281 45.7778C13.4797 45.9179 16.0149 44.7176 16.7812 45.9852C20.0239 51.3496 19.934 32.1207 16.8454 37.9937Z" fill="#F2F2F2"/>
<path fill-rule="evenodd" clip-rule="evenodd" d="M63.2039 43.9788C64.7523 42.884 67.95 42.6203 69.9549 43.299C71.9441 43.9724 73.0239 48.4104 75.197 46.6483C76.619 45.4954 74.0371 40.9475 71.7427 39.5929C69.8 38.4459 66.9961 38.3645 66.8888 36.8872C66.4346 30.6354 57.7859 47.8097 63.2039 43.9788Z" fill="#F2F2F2"/>
<path fill-rule="evenodd" clip-rule="evenodd" d="M67.3367 36.3943C67.951 34.6002 70.389 32.5143 72.4117 31.8908C74.4186 31.2721 77.8922 34.2378 78.6223 31.537C79.1001 29.7698 74.3444 27.5944 71.6912 27.8396C69.4448 28.047 67.1241 29.6227 66.1721 28.4878C62.1437 23.6854 65.1871 42.6721 67.3367 36.3943Z" fill="#F2F2F2"/>
</svg>
