<svg width="200" height="114" viewBox="0 0 200 114" fill="none" xmlns="http://www.w3.org/2000/svg">
<path d="M90.0959 5.64532L15.2417 48.3122C8.51108 52.1487 8.51109 61.8513 15.2417 65.6878L90.0959 108.355C96.235 111.854 103.765 111.854 109.904 108.355L184.758 65.6878C191.489 61.8513 191.489 52.1487 184.758 48.3122L109.904 5.64531C103.765 2.14604 96.235 2.14605 90.0959 5.64532Z" fill="#EDCA71"/>
<path d="M31.1184 57.16C30.6704 57.16 30.3024 57.0267 30.0144 56.76C29.7371 56.4827 29.5984 56.136 29.5984 55.72C29.5984 55.3147 29.7424 54.9733 30.0304 54.696C30.3184 54.408 30.6811 54.264 31.1184 54.264C31.5664 54.264 31.9344 54.408 32.2224 54.696C32.5104 54.9733 32.6544 55.3147 32.6544 55.72C32.6544 56.136 32.5104 56.4827 32.2224 56.76C31.9344 57.0267 31.5664 57.16 31.1184 57.16ZM31.2944 65.64C30.0678 65.64 29.0811 65.3787 28.3344 64.856C27.5984 64.344 27.2304 63.6347 27.2304 62.728C27.2304 62.3013 27.3051 61.928 27.4544 61.608C27.6038 61.2773 27.7798 61.0053 27.9824 60.792C28.1851 60.568 28.4518 60.3067 28.7824 60.008C29.1664 59.6773 29.4491 59.3893 29.6304 59.144C29.8224 58.8987 29.9184 58.6107 29.9184 58.28H32.3344C32.3344 58.824 32.2064 59.2827 31.9504 59.656C31.7051 60.0187 31.3478 60.4027 30.8784 60.808C30.5264 61.128 30.2651 61.4 30.0944 61.624C29.9344 61.8373 29.8544 62.0827 29.8544 62.36C29.8544 62.712 30.0091 62.9947 30.3184 63.208C30.6384 63.432 31.0544 63.544 31.5664 63.544C32.0678 63.544 32.5158 63.4427 32.9104 63.24C33.3051 63.0373 33.6304 62.744 33.8864 62.36L35.8224 63.496C35.3744 64.1787 34.7718 64.7067 34.0144 65.08C33.2571 65.4533 32.3504 65.64 31.2944 65.64ZM45.8203 60.92V63H37.1483V51.8H45.6123V53.88H39.7243V56.312H44.9243V58.328H39.7243V60.92H45.8203ZM50.5402 63.128C49.8255 63.128 49.1269 63.0427 48.4442 62.872C47.7615 62.6907 47.2175 62.4667 46.8122 62.2L47.6442 60.408C48.0282 60.6533 48.4922 60.856 49.0362 61.016C49.5802 61.1653 50.1135 61.24 50.6362 61.24C51.6922 61.24 52.2202 60.9787 52.2202 60.456C52.2202 60.2107 52.0762 60.0347 51.7882 59.928C51.5002 59.8213 51.0575 59.7307 50.4602 59.656C49.7562 59.5493 49.1749 59.4267 48.7162 59.288C48.2575 59.1493 47.8575 58.904 47.5162 58.552C47.1855 58.2 47.0202 57.6987 47.0202 57.048C47.0202 56.504 47.1749 56.024 47.4842 55.608C47.8042 55.1813 48.2629 54.8507 48.8602 54.616C49.4682 54.3813 50.1829 54.264 51.0042 54.264C51.6122 54.264 52.2149 54.3333 52.8122 54.472C53.4202 54.6 53.9215 54.7813 54.3162 55.016L53.4842 56.792C52.7269 56.3653 51.9002 56.152 51.0042 56.152C50.4709 56.152 50.0709 56.2267 49.8042 56.376C49.5375 56.5253 49.4042 56.7173 49.4042 56.952C49.4042 57.2187 49.5482 57.4053 49.8362 57.512C50.1242 57.6187 50.5829 57.72 51.2122 57.816C51.9162 57.9333 52.4922 58.0613 52.9402 58.2C53.3882 58.328 53.7775 58.568 54.1082 58.92C54.4389 59.272 54.6042 59.7627 54.6042 60.392C54.6042 60.9253 54.4442 61.4 54.1242 61.816C53.8042 62.232 53.3349 62.5573 52.7162 62.792C52.1082 63.016 51.3829 63.128 50.5402 63.128ZM61.6962 62.584C61.4509 62.7653 61.1469 62.904 60.7842 63C60.4322 63.0853 60.0589 63.128 59.6642 63.128C58.6402 63.128 57.8455 62.8667 57.2802 62.344C56.7255 61.8213 56.4482 61.0533 56.4482 60.04V56.504H55.1202V54.584H56.4482V52.488H58.9442V54.584H61.0882V56.504H58.9442V60.008C58.9442 60.3707 59.0349 60.6533 59.2162 60.856C59.4082 61.048 59.6749 61.144 60.0162 61.144C60.4109 61.144 60.7469 61.0373 61.0242 60.824L61.6962 62.584ZM66.5693 54.264C67.9026 54.264 68.9266 54.584 69.6413 55.224C70.356 55.8533 70.7133 56.808 70.7133 58.088V63H68.3773V61.928C67.908 62.728 67.0333 63.128 65.7533 63.128C65.092 63.128 64.516 63.016 64.0253 62.792C63.5453 62.568 63.1773 62.2587 62.9213 61.864C62.6653 61.4693 62.5373 61.0213 62.5373 60.52C62.5373 59.72 62.836 59.0907 63.4333 58.632C64.0413 58.1733 64.9746 57.944 66.2333 57.944H68.2173C68.2173 57.4 68.052 56.984 67.7213 56.696C67.3906 56.3973 66.8946 56.248 66.2333 56.248C65.7746 56.248 65.3213 56.3227 64.8733 56.472C64.436 56.6107 64.0626 56.8027 63.7533 57.048L62.8573 55.304C63.3266 54.9733 63.8866 54.7173 64.5373 54.536C65.1986 54.3547 65.876 54.264 66.5693 54.264ZM66.3773 61.448C66.804 61.448 67.1826 61.352 67.5133 61.16C67.844 60.9573 68.0786 60.664 68.2173 60.28V59.4H66.5053C65.4813 59.4 64.9693 59.736 64.9693 60.408C64.9693 60.728 65.092 60.984 65.3373 61.176C65.5933 61.3573 65.94 61.448 66.3773 61.448ZM67.5293 50.984H70.2173L67.3213 53.288H65.3693L67.5293 50.984ZM81.6636 63.128C80.7462 63.128 79.9196 62.9413 79.1836 62.568C78.4582 62.184 77.8876 61.656 77.4716 60.984C77.0662 60.312 76.8636 59.5493 76.8636 58.696C76.8636 57.8427 77.0662 57.08 77.4716 56.408C77.8876 55.736 78.4582 55.2133 79.1836 54.84C79.9196 54.456 80.7462 54.264 81.6636 54.264C82.5702 54.264 83.3596 54.456 84.0316 54.84C84.7142 55.2133 85.2102 55.752 85.5196 56.456L83.5836 57.496C83.1356 56.7067 82.4902 56.312 81.6476 56.312C80.9969 56.312 80.4582 56.5253 80.0316 56.952C79.6049 57.3787 79.3916 57.96 79.3916 58.696C79.3916 59.432 79.6049 60.0133 80.0316 60.44C80.4582 60.8667 80.9969 61.08 81.6476 61.08C82.5009 61.08 83.1462 60.6853 83.5836 59.896L85.5196 60.952C85.2102 61.6347 84.7142 62.168 84.0316 62.552C83.3596 62.936 82.5702 63.128 81.6636 63.128ZM90.9433 63.128C90.0366 63.128 89.2206 62.9413 88.4953 62.568C87.7806 62.184 87.2206 61.656 86.8153 60.984C86.41 60.312 86.2073 59.5493 86.2073 58.696C86.2073 57.8427 86.41 57.08 86.8153 56.408C87.2206 55.736 87.7806 55.2133 88.4953 54.84C89.2206 54.456 90.0366 54.264 90.9433 54.264C91.85 54.264 92.6606 54.456 93.3753 54.84C94.09 55.2133 94.65 55.736 95.0553 56.408C95.4606 57.08 95.6633 57.8427 95.6633 58.696C95.6633 59.5493 95.4606 60.312 95.0553 60.984C94.65 61.656 94.09 62.184 93.3753 62.568C92.6606 62.9413 91.85 63.128 90.9433 63.128ZM90.9433 61.08C91.5833 61.08 92.106 60.8667 92.5113 60.44C92.9273 60.0027 93.1353 59.4213 93.1353 58.696C93.1353 57.9707 92.9273 57.3947 92.5113 56.968C92.106 56.5307 91.5833 56.312 90.9433 56.312C90.3033 56.312 89.7753 56.5307 89.3593 56.968C88.9433 57.3947 88.7353 57.9707 88.7353 58.696C88.7353 59.4213 88.9433 60.0027 89.3593 60.44C89.7753 60.8667 90.3033 61.08 90.9433 61.08ZM102.564 54.264C103.63 54.264 104.489 54.584 105.14 55.224C105.801 55.864 106.132 56.8133 106.132 58.072V63H103.636V58.456C103.636 57.7733 103.486 57.2667 103.188 56.936C102.889 56.5947 102.457 56.424 101.892 56.424C101.262 56.424 100.761 56.6213 100.388 57.016C100.014 57.4 99.8277 57.976 99.8277 58.744V63H97.3317V54.392H99.7157V55.4C100.046 55.0373 100.457 54.76 100.948 54.568C101.438 54.3653 101.977 54.264 102.564 54.264ZM116.92 58.728C116.92 58.76 116.904 58.984 116.872 59.4H110.36C110.477 59.9333 110.755 60.3547 111.192 60.664C111.629 60.9733 112.173 61.128 112.824 61.128C113.272 61.128 113.667 61.064 114.008 60.936C114.36 60.7973 114.685 60.584 114.984 60.296L116.312 61.736C115.501 62.664 114.317 63.128 112.76 63.128C111.789 63.128 110.931 62.9413 110.184 62.568C109.437 62.184 108.861 61.656 108.456 60.984C108.051 60.312 107.848 59.5493 107.848 58.696C107.848 57.8533 108.045 57.096 108.44 56.424C108.845 55.7413 109.395 55.2133 110.088 54.84C110.792 54.456 111.576 54.264 112.44 54.264C113.283 54.264 114.045 54.4453 114.728 54.808C115.411 55.1707 115.944 55.6933 116.328 56.376C116.723 57.048 116.92 57.832 116.92 58.728ZM112.456 56.152C111.891 56.152 111.416 56.312 111.032 56.632C110.648 56.952 110.413 57.3893 110.328 57.944H114.568C114.483 57.4 114.248 56.968 113.864 56.648C113.48 56.3173 113.011 56.152 112.456 56.152ZM122.742 63.128C121.824 63.128 120.998 62.9413 120.262 62.568C119.536 62.184 118.966 61.656 118.55 60.984C118.144 60.312 117.942 59.5493 117.942 58.696C117.942 57.8427 118.144 57.08 118.55 56.408C118.966 55.736 119.536 55.2133 120.262 54.84C120.998 54.456 121.824 54.264 122.742 54.264C123.648 54.264 124.438 54.456 125.11 54.84C125.792 55.2133 126.288 55.752 126.598 56.456L124.662 57.496C124.214 56.7067 123.568 56.312 122.726 56.312C122.075 56.312 121.536 56.5253 121.11 56.952C120.683 57.3787 120.47 57.96 120.47 58.696C120.47 59.432 120.683 60.0133 121.11 60.44C121.536 60.8667 122.075 61.08 122.726 61.08C123.579 61.08 124.224 60.6853 124.662 59.896L126.598 60.952C126.288 61.6347 125.792 62.168 125.11 62.552C124.438 62.936 123.648 63.128 122.742 63.128ZM133.712 62.584C133.466 62.7653 133.162 62.904 132.8 63C132.448 63.0853 132.074 63.128 131.68 63.128C130.656 63.128 129.861 62.8667 129.296 62.344C128.741 61.8213 128.464 61.0533 128.464 60.04V56.504H127.136V54.584H128.464V52.488H130.96V54.584H133.104V56.504H130.96V60.008C130.96 60.3707 131.05 60.6533 131.232 60.856C131.424 61.048 131.69 61.144 132.032 61.144C132.426 61.144 132.762 61.0373 133.04 60.824L133.712 62.584ZM138.585 54.264C139.918 54.264 140.942 54.584 141.657 55.224C142.372 55.8533 142.729 56.808 142.729 58.088V63H140.393V61.928C139.924 62.728 139.049 63.128 137.769 63.128C137.108 63.128 136.532 63.016 136.041 62.792C135.561 62.568 135.193 62.2587 134.937 61.864C134.681 61.4693 134.553 61.0213 134.553 60.52C134.553 59.72 134.852 59.0907 135.449 58.632C136.057 58.1733 136.99 57.944 138.249 57.944H140.233C140.233 57.4 140.068 56.984 139.737 56.696C139.406 56.3973 138.91 56.248 138.249 56.248C137.79 56.248 137.337 56.3227 136.889 56.472C136.452 56.6107 136.078 56.8027 135.769 57.048L134.873 55.304C135.342 54.9733 135.902 54.7173 136.553 54.536C137.214 54.3547 137.892 54.264 138.585 54.264ZM138.393 61.448C138.82 61.448 139.198 61.352 139.529 61.16C139.86 60.9573 140.094 60.664 140.233 60.28V59.4H138.521C137.497 59.4 136.985 59.736 136.985 60.408C136.985 60.728 137.108 60.984 137.353 61.176C137.609 61.3573 137.956 61.448 138.393 61.448ZM153.85 51.128V63H151.466V62.008C150.847 62.7547 149.951 63.128 148.778 63.128C147.967 63.128 147.231 62.9467 146.57 62.584C145.919 62.2213 145.407 61.704 145.034 61.032C144.66 60.36 144.474 59.5813 144.474 58.696C144.474 57.8107 144.66 57.032 145.034 56.36C145.407 55.688 145.919 55.1707 146.57 54.808C147.231 54.4453 147.967 54.264 148.778 54.264C149.876 54.264 150.735 54.6107 151.354 55.304V51.128H153.85ZM149.21 61.08C149.839 61.08 150.362 60.8667 150.778 60.44C151.194 60.0027 151.402 59.4213 151.402 58.696C151.402 57.9707 151.194 57.3947 150.778 56.968C150.362 56.5307 149.839 56.312 149.21 56.312C148.57 56.312 148.042 56.5307 147.626 56.968C147.21 57.3947 147.002 57.9707 147.002 58.696C147.002 59.4213 147.21 60.0027 147.626 60.44C148.042 60.8667 148.57 61.08 149.21 61.08ZM159.632 54.264C160.965 54.264 161.989 54.584 162.704 55.224C163.418 55.8533 163.776 56.808 163.776 58.088V63H161.44V61.928C160.97 62.728 160.096 63.128 158.816 63.128C158.154 63.128 157.578 63.016 157.088 62.792C156.608 62.568 156.24 62.2587 155.984 61.864C155.728 61.4693 155.6 61.0213 155.6 60.52C155.6 59.72 155.898 59.0907 156.496 58.632C157.104 58.1733 158.037 57.944 159.296 57.944H161.28C161.28 57.4 161.114 56.984 160.784 56.696C160.453 56.3973 159.957 56.248 159.296 56.248C158.837 56.248 158.384 56.3227 157.936 56.472C157.498 56.6107 157.125 56.8027 156.816 57.048L155.92 55.304C156.389 54.9733 156.949 54.7173 157.6 54.536C158.261 54.3547 158.938 54.264 159.632 54.264ZM159.44 61.448C159.866 61.448 160.245 61.352 160.576 61.16C160.906 60.9573 161.141 60.664 161.28 60.28V59.4H159.568C158.544 59.4 158.032 59.736 158.032 60.408C158.032 60.728 158.154 60.984 158.4 61.176C158.656 61.3573 159.002 61.448 159.44 61.448ZM167.652 59.112C167.652 58.5573 167.774 58.0987 168.02 57.736C168.276 57.3733 168.644 56.9733 169.124 56.536C169.476 56.216 169.732 55.9493 169.892 55.736C170.062 55.512 170.148 55.2613 170.148 54.984C170.148 54.5893 169.988 54.28 169.668 54.056C169.358 53.8213 168.942 53.704 168.42 53.704C167.918 53.704 167.47 53.8107 167.076 54.024C166.692 54.2267 166.366 54.5147 166.1 54.888L164.164 53.752C164.612 53.0693 165.214 52.5413 165.972 52.168C166.74 51.7947 167.646 51.608 168.692 51.608C169.918 51.608 170.9 51.8693 171.636 52.392C172.382 52.9147 172.756 53.64 172.756 54.568C172.756 55.0053 172.681 55.3893 172.532 55.72C172.393 56.0507 172.217 56.3333 172.004 56.568C171.801 56.792 171.534 57.0533 171.204 57.352C170.809 57.704 170.521 58.0027 170.34 58.248C170.158 58.4827 170.068 58.7707 170.068 59.112H167.652ZM168.868 63.128C168.43 63.128 168.062 62.9893 167.764 62.712C167.476 62.424 167.332 62.0773 167.332 61.672C167.332 61.2667 167.476 60.9307 167.764 60.664C168.052 60.3867 168.42 60.248 168.868 60.248C169.316 60.248 169.684 60.3867 169.972 60.664C170.26 60.9307 170.404 61.2667 170.404 61.672C170.404 62.0773 170.254 62.424 169.956 62.712C169.668 62.9893 169.305 63.128 168.868 63.128Z" fill="#4F4F4F"/>
</svg>
