<svg width="280" height="80" viewBox="0 0 280 80" fill="none" xmlns="http://www.w3.org/2000/svg">
<rect width="280" height="80" rx="20" fill="#E78CFE"/>
<path d="M72.1951 17.2H76.0831V30.832H84.5071V34H72.1951V17.2ZM91.7641 20.896C93.7641 20.896 95.3001 21.376 96.3721 22.336C97.4441 23.28 97.9801 24.712 97.9801 26.632V34H94.4761V32.392C93.7721 33.592 92.4601 34.192 90.5401 34.192C89.5481 34.192 88.6841 34.024 87.9481 33.688C87.2281 33.352 86.6761 32.888 86.2921 32.296C85.9081 31.704 85.7161 31.032 85.7161 30.28C85.7161 29.08 86.1641 28.136 87.0601 27.448C87.9721 26.76 89.3721 26.416 91.2601 26.416H94.2361C94.2361 25.6 93.9881 24.976 93.4921 24.544C92.9961 24.096 92.2521 23.872 91.2601 23.872C90.5721 23.872 89.8921 23.984 89.2201 24.208C88.5641 24.416 88.0041 24.704 87.5401 25.072L86.1961 22.456C86.9001 21.96 87.7401 21.576 88.7161 21.304C89.7081 21.032 90.7241 20.896 91.7641 20.896ZM91.4761 31.672C92.1161 31.672 92.6841 31.528 93.1801 31.24C93.6761 30.936 94.0281 30.496 94.2361 29.92V28.6H91.6681C90.1321 28.6 89.3641 29.104 89.3641 30.112C89.3641 30.592 89.5481 30.976 89.9161 31.264C90.3001 31.536 90.8201 31.672 91.4761 31.672ZM108.166 16.192H111.91V34H108.166V16.192ZM120.592 20.896C122.592 20.896 124.128 21.376 125.2 22.336C126.272 23.28 126.808 24.712 126.808 26.632V34H123.304V32.392C122.6 33.592 121.288 34.192 119.368 34.192C118.376 34.192 117.512 34.024 116.776 33.688C116.056 33.352 115.504 32.888 115.12 32.296C114.736 31.704 114.544 31.032 114.544 30.28C114.544 29.08 114.992 28.136 115.888 27.448C116.8 26.76 118.2 26.416 120.088 26.416H123.064C123.064 25.6 122.816 24.976 122.32 24.544C121.824 24.096 121.08 23.872 120.088 23.872C119.4 23.872 118.72 23.984 118.048 24.208C117.392 24.416 116.832 24.704 116.368 25.072L115.024 22.456C115.728 21.96 116.568 21.576 117.544 21.304C118.536 21.032 119.552 20.896 120.592 20.896ZM120.304 31.672C120.944 31.672 121.512 31.528 122.008 31.24C122.504 30.936 122.856 30.496 123.064 29.92V28.6H120.496C118.96 28.6 118.192 29.104 118.192 30.112C118.192 30.592 118.376 30.976 118.744 31.264C119.128 31.536 119.648 31.672 120.304 31.672ZM122.032 15.976H126.064L121.72 19.432H118.792L122.032 15.976ZM146.733 20.896C148.349 20.896 149.629 21.376 150.573 22.336C151.533 23.28 152.013 24.704 152.013 26.608V34H148.269V27.184C148.269 26.16 148.053 25.4 147.621 24.904C147.205 24.392 146.605 24.136 145.821 24.136C144.941 24.136 144.245 24.424 143.733 25C143.221 25.56 142.965 26.4 142.965 27.52V34H139.221V27.184C139.221 25.152 138.405 24.136 136.773 24.136C135.909 24.136 135.221 24.424 134.709 25C134.197 25.56 133.941 26.4 133.941 27.52V34H130.197V21.088H133.773V22.576C134.253 22.032 134.837 21.616 135.525 21.328C136.229 21.04 136.997 20.896 137.829 20.896C138.741 20.896 139.565 21.08 140.301 21.448C141.037 21.8 141.629 22.32 142.077 23.008C142.605 22.336 143.269 21.816 144.069 21.448C144.885 21.08 145.773 20.896 146.733 20.896ZM163.001 20.896C164.201 20.896 165.289 21.176 166.265 21.736C167.257 22.28 168.033 23.056 168.593 24.064C169.153 25.056 169.433 26.216 169.433 27.544C169.433 28.872 169.153 30.04 168.593 31.048C168.033 32.04 167.257 32.816 166.265 33.376C165.289 33.92 164.201 34.192 163.001 34.192C161.353 34.192 160.057 33.672 159.113 32.632V38.656H155.369V21.088H158.945V22.576C159.873 21.456 161.225 20.896 163.001 20.896ZM162.353 31.12C163.313 31.12 164.097 30.8 164.705 30.16C165.329 29.504 165.641 28.632 165.641 27.544C165.641 26.456 165.329 25.592 164.705 24.952C164.097 24.296 163.313 23.968 162.353 23.968C161.393 23.968 160.601 24.296 159.977 24.952C159.369 25.592 159.065 26.456 159.065 27.544C159.065 28.632 159.369 29.504 159.977 30.16C160.601 30.8 161.393 31.12 162.353 31.12ZM176.936 20.896C178.936 20.896 180.472 21.376 181.544 22.336C182.616 23.28 183.152 24.712 183.152 26.632V34H179.648V32.392C178.944 33.592 177.632 34.192 175.712 34.192C174.72 34.192 173.856 34.024 173.12 33.688C172.4 33.352 171.848 32.888 171.464 32.296C171.08 31.704 170.888 31.032 170.888 30.28C170.888 29.08 171.336 28.136 172.232 27.448C173.144 26.76 174.544 26.416 176.432 26.416H179.408C179.408 25.6 179.16 24.976 178.664 24.544C178.168 24.096 177.424 23.872 176.432 23.872C175.744 23.872 175.064 23.984 174.392 24.208C173.736 24.416 173.176 24.704 172.712 25.072L171.368 22.456C172.072 21.96 172.912 21.576 173.888 21.304C174.88 21.032 175.896 20.896 176.936 20.896ZM176.648 31.672C177.288 31.672 177.856 31.528 178.352 31.24C178.848 30.936 179.2 30.496 179.408 29.92V28.6H176.84C175.304 28.6 174.536 29.104 174.536 30.112C174.536 30.592 174.72 30.976 175.088 31.264C175.472 31.536 175.992 31.672 176.648 31.672ZM190.117 22.792C190.565 22.168 191.165 21.696 191.917 21.376C192.685 21.056 193.565 20.896 194.557 20.896V24.352C194.141 24.32 193.861 24.304 193.717 24.304C192.645 24.304 191.805 24.608 191.197 25.216C190.589 25.808 190.285 26.704 190.285 27.904V34H186.541V21.088H190.117V22.792ZM201.92 20.896C203.92 20.896 205.456 21.376 206.528 22.336C207.6 23.28 208.136 24.712 208.136 26.632V34H204.632V32.392C203.928 33.592 202.616 34.192 200.696 34.192C199.704 34.192 198.84 34.024 198.104 33.688C197.384 33.352 196.832 32.888 196.448 32.296C196.064 31.704 195.872 31.032 195.872 30.28C195.872 29.08 196.32 28.136 197.216 27.448C198.128 26.76 199.528 26.416 201.416 26.416H204.392C204.392 25.6 204.144 24.976 203.648 24.544C203.152 24.096 202.408 23.872 201.416 23.872C200.728 23.872 200.048 23.984 199.376 24.208C198.72 24.416 198.16 24.704 197.696 25.072L196.352 22.456C197.056 21.96 197.896 21.576 198.872 21.304C199.864 21.032 200.88 20.896 201.92 20.896ZM201.632 31.672C202.272 31.672 202.84 31.528 203.336 31.24C203.832 30.936 204.184 30.496 204.392 29.92V28.6H201.824C200.288 28.6 199.52 29.104 199.52 30.112C199.52 30.592 199.704 30.976 200.072 31.264C200.456 31.536 200.976 31.672 201.632 31.672ZM74.4354 49.896C76.0354 49.896 77.3234 50.376 78.2994 51.336C79.2914 52.296 79.7874 53.72 79.7874 55.608V63H76.0434V56.184C76.0434 55.16 75.8194 54.4 75.3714 53.904C74.9234 53.392 74.2754 53.136 73.4274 53.136C72.4834 53.136 71.7314 53.432 71.1714 54.024C70.6114 54.6 70.3314 55.464 70.3314 56.616V63H66.5874V50.088H70.1634V51.6C70.6594 51.056 71.2754 50.64 72.0114 50.352C72.7474 50.048 73.5554 49.896 74.4354 49.896ZM89.4658 63.192C88.1058 63.192 86.8818 62.912 85.7938 62.352C84.7218 61.776 83.8818 60.984 83.2738 59.976C82.6658 58.968 82.3618 57.824 82.3618 56.544C82.3618 55.264 82.6658 54.12 83.2738 53.112C83.8818 52.104 84.7218 51.32 85.7938 50.76C86.8818 50.184 88.1058 49.896 89.4658 49.896C90.8258 49.896 92.0418 50.184 93.1138 50.76C94.1858 51.32 95.0258 52.104 95.6338 53.112C96.2418 54.12 96.5458 55.264 96.5458 56.544C96.5458 57.824 96.2418 58.968 95.6338 59.976C95.0258 60.984 94.1858 61.776 93.1138 62.352C92.0418 62.912 90.8258 63.192 89.4658 63.192ZM89.4658 60.12C90.4258 60.12 91.2098 59.8 91.8178 59.16C92.4418 58.504 92.7538 57.632 92.7538 56.544C92.7538 55.456 92.4418 54.592 91.8178 53.952C91.2098 53.296 90.4258 52.968 89.4658 52.968C88.5058 52.968 87.7138 53.296 87.0898 53.952C86.4658 54.592 86.1538 55.456 86.1538 56.544C86.1538 57.632 86.4658 58.504 87.0898 59.16C87.7138 59.8 88.5058 60.12 89.4658 60.12ZM109.949 50.376H113.261V53.256H110.045V63H106.301V53.256H104.309V50.376H106.301V49.8C106.301 48.328 106.733 47.16 107.597 46.296C108.477 45.432 109.709 45 111.293 45C111.853 45 112.381 45.064 112.877 45.192C113.389 45.304 113.813 45.472 114.149 45.696L113.165 48.408C112.733 48.104 112.229 47.952 111.653 47.952C110.517 47.952 109.949 48.576 109.949 49.824V50.376ZM128.134 50.088V63H124.582V61.464C124.086 62.024 123.494 62.456 122.806 62.76C122.118 63.048 121.374 63.192 120.574 63.192C118.878 63.192 117.534 62.704 116.542 61.728C115.55 60.752 115.054 59.304 115.054 57.384V50.088H118.798V56.832C118.798 58.912 119.67 59.952 121.414 59.952C122.31 59.952 123.03 59.664 123.574 59.088C124.118 58.496 124.39 57.624 124.39 56.472V50.088H128.134ZM139.451 49.896C141.051 49.896 142.339 50.376 143.315 51.336C144.307 52.296 144.803 53.72 144.803 55.608V63H141.059V56.184C141.059 55.16 140.835 54.4 140.387 53.904C139.939 53.392 139.291 53.136 138.443 53.136C137.499 53.136 136.747 53.432 136.187 54.024C135.627 54.6 135.347 55.464 135.347 56.616V63H131.603V50.088H135.179V51.6C135.675 51.056 136.291 50.64 137.027 50.352C137.763 50.048 138.571 49.896 139.451 49.896ZM154.577 63.192C153.201 63.192 151.961 62.912 150.857 62.352C149.769 61.776 148.913 60.984 148.289 59.976C147.681 58.968 147.377 57.824 147.377 56.544C147.377 55.264 147.681 54.12 148.289 53.112C148.913 52.104 149.769 51.32 150.857 50.76C151.961 50.184 153.201 49.896 154.577 49.896C155.937 49.896 157.121 50.184 158.129 50.76C159.153 51.32 159.897 52.128 160.361 53.184L157.457 54.744C156.785 53.56 155.817 52.968 154.553 52.968C153.577 52.968 152.769 53.288 152.129 53.928C151.489 54.568 151.169 55.44 151.169 56.544C151.169 57.648 151.489 58.52 152.129 59.16C152.769 59.8 153.577 60.12 154.553 60.12C155.833 60.12 156.801 59.528 157.457 58.344L160.361 59.928C159.897 60.952 159.153 61.752 158.129 62.328C157.121 62.904 155.937 63.192 154.577 63.192ZM162.517 50.088H166.261V63H162.517V50.088ZM164.389 48.288C163.701 48.288 163.141 48.088 162.709 47.688C162.277 47.288 162.061 46.792 162.061 46.2C162.061 45.608 162.277 45.112 162.709 44.712C163.141 44.312 163.701 44.112 164.389 44.112C165.077 44.112 165.637 44.304 166.069 44.688C166.501 45.072 166.717 45.552 166.717 46.128C166.717 46.752 166.501 47.272 166.069 47.688C165.637 48.088 165.077 48.288 164.389 48.288ZM175.88 63.192C174.52 63.192 173.296 62.912 172.208 62.352C171.136 61.776 170.296 60.984 169.688 59.976C169.08 58.968 168.776 57.824 168.776 56.544C168.776 55.264 169.08 54.12 169.688 53.112C170.296 52.104 171.136 51.32 172.208 50.76C173.296 50.184 174.52 49.896 175.88 49.896C177.24 49.896 178.456 50.184 179.528 50.76C180.6 51.32 181.44 52.104 182.048 53.112C182.656 54.12 182.96 55.264 182.96 56.544C182.96 57.824 182.656 58.968 182.048 59.976C181.44 60.984 180.6 61.776 179.528 62.352C178.456 62.912 177.24 63.192 175.88 63.192ZM175.88 60.12C176.84 60.12 177.624 59.8 178.232 59.16C178.856 58.504 179.168 57.632 179.168 56.544C179.168 55.456 178.856 54.592 178.232 53.952C177.624 53.296 176.84 52.968 175.88 52.968C174.92 52.968 174.128 53.296 173.504 53.952C172.88 54.592 172.568 55.456 172.568 56.544C172.568 57.632 172.88 58.504 173.504 59.16C174.128 59.8 174.92 60.12 175.88 60.12ZM193.31 49.896C194.91 49.896 196.198 50.376 197.174 51.336C198.166 52.296 198.662 53.72 198.662 55.608V63H194.918V56.184C194.918 55.16 194.694 54.4 194.246 53.904C193.798 53.392 193.15 53.136 192.302 53.136C191.358 53.136 190.606 53.432 190.046 54.024C189.486 54.6 189.206 55.464 189.206 56.616V63H185.462V50.088H189.038V51.6C189.534 51.056 190.15 50.64 190.886 50.352C191.622 50.048 192.43 49.896 193.31 49.896ZM207.264 49.896C209.264 49.896 210.8 50.376 211.872 51.336C212.944 52.28 213.48 53.712 213.48 55.632V63H209.976V61.392C209.272 62.592 207.96 63.192 206.04 63.192C205.048 63.192 204.184 63.024 203.448 62.688C202.728 62.352 202.176 61.888 201.792 61.296C201.408 60.704 201.216 60.032 201.216 59.28C201.216 58.08 201.664 57.136 202.56 56.448C203.472 55.76 204.872 55.416 206.76 55.416H209.736C209.736 54.6 209.488 53.976 208.992 53.544C208.496 53.096 207.752 52.872 206.76 52.872C206.072 52.872 205.392 52.984 204.72 53.208C204.064 53.416 203.504 53.704 203.04 54.072L201.696 51.456C202.4 50.96 203.24 50.576 204.216 50.304C205.208 50.032 206.224 49.896 207.264 49.896ZM206.976 60.672C207.616 60.672 208.184 60.528 208.68 60.24C209.176 59.936 209.528 59.496 209.736 58.92V57.6H207.168C205.632 57.6 204.864 58.104 204.864 59.112C204.864 59.592 205.048 59.976 205.416 60.264C205.8 60.536 206.32 60.672 206.976 60.672Z" fill="#4F4F4F"/>
</svg>
