<svg width="280" height="80" viewBox="0 0 280 80" fill="none" xmlns="http://www.w3.org/2000/svg">
<rect width="280" height="80" rx="20" fill="#69E485"/>
<path d="M61.5389 34.8H64.1309V43.888H69.7469V46H61.5389V34.8ZM71.0192 34.128H73.5152V46H71.0192V34.128ZM84.2637 41.728C84.2637 41.76 84.2477 41.984 84.2157 42.4H77.7037C77.821 42.9333 78.0984 43.3547 78.5357 43.664C78.973 43.9733 79.517 44.128 80.1677 44.128C80.6157 44.128 81.0104 44.064 81.3517 43.936C81.7037 43.7973 82.029 43.584 82.3277 43.296L83.6557 44.736C82.845 45.664 81.661 46.128 80.1037 46.128C79.133 46.128 78.2744 45.9413 77.5277 45.568C76.781 45.184 76.205 44.656 75.7997 43.984C75.3944 43.312 75.1917 42.5493 75.1917 41.696C75.1917 40.8533 75.389 40.096 75.7837 39.424C76.189 38.7413 76.7384 38.2133 77.4317 37.84C78.1357 37.456 78.9197 37.264 79.7837 37.264C80.6264 37.264 81.389 37.4453 82.0717 37.808C82.7544 38.1707 83.2877 38.6933 83.6717 39.376C84.0664 40.048 84.2637 40.832 84.2637 41.728ZM79.7997 39.152C79.2344 39.152 78.7597 39.312 78.3757 39.632C77.9917 39.952 77.757 40.3893 77.6717 40.944H81.9117C81.8264 40.4 81.5917 39.968 81.2077 39.648C80.8237 39.3173 80.3544 39.152 79.7997 39.152ZM94.3132 37.392L90.6812 46H88.1052L84.4892 37.392H87.0652L89.4492 43.248L91.9132 37.392H94.3132ZM98.5224 37.264C99.8558 37.264 100.88 37.584 101.594 38.224C102.309 38.8533 102.666 39.808 102.666 41.088V46H100.33V44.928C99.8611 45.728 98.9864 46.128 97.7064 46.128C97.0451 46.128 96.4691 46.016 95.9784 45.792C95.4984 45.568 95.1304 45.2587 94.8744 44.864C94.6184 44.4693 94.4904 44.0213 94.4904 43.52C94.4904 42.72 94.7891 42.0907 95.3864 41.632C95.9944 41.1733 96.9278 40.944 98.1864 40.944H100.17C100.17 40.4 100.005 39.984 99.6744 39.696C99.3438 39.3973 98.8478 39.248 98.1864 39.248C97.7278 39.248 97.2744 39.3227 96.8264 39.472C96.3891 39.6107 96.0158 39.8027 95.7064 40.048L94.8104 38.304C95.2798 37.9733 95.8398 37.7173 96.4904 37.536C97.1518 37.3547 97.8291 37.264 98.5224 37.264ZM98.3304 44.448C98.7571 44.448 99.1358 44.352 99.4664 44.16C99.7971 43.9573 100.032 43.664 100.17 43.28V42.4H98.4584C97.4344 42.4 96.9224 42.736 96.9224 43.408C96.9224 43.728 97.0451 43.984 97.2904 44.176C97.5464 44.3573 97.8931 44.448 98.3304 44.448ZM107.309 38.528C107.608 38.112 108.008 37.7973 108.509 37.584C109.021 37.3707 109.608 37.264 110.269 37.264V39.568C109.992 39.5467 109.805 39.536 109.709 39.536C108.995 39.536 108.435 39.7387 108.029 40.144C107.624 40.5387 107.421 41.136 107.421 41.936V46H104.925V37.392H107.309V38.528ZM119.819 37.264C121.153 37.264 122.177 37.584 122.891 38.224C123.606 38.8533 123.963 39.808 123.963 41.088V46H121.627V44.928C121.158 45.728 120.283 46.128 119.003 46.128C118.342 46.128 117.766 46.016 117.275 45.792C116.795 45.568 116.427 45.2587 116.171 44.864C115.915 44.4693 115.787 44.0213 115.787 43.52C115.787 42.72 116.086 42.0907 116.683 41.632C117.291 41.1733 118.225 40.944 119.483 40.944H121.467C121.467 40.4 121.302 39.984 120.971 39.696C120.641 39.3973 120.145 39.248 119.483 39.248C119.025 39.248 118.571 39.3227 118.123 39.472C117.686 39.6107 117.313 39.8027 117.003 40.048L116.107 38.304C116.577 37.9733 117.137 37.7173 117.787 37.536C118.449 37.3547 119.126 37.264 119.819 37.264ZM119.627 44.448C120.054 44.448 120.433 44.352 120.763 44.16C121.094 43.9573 121.329 43.664 121.467 43.28V42.4H119.755C118.731 42.4 118.219 42.736 118.219 43.408C118.219 43.728 118.342 43.984 118.587 44.176C118.843 44.3573 119.19 44.448 119.627 44.448ZM133.138 38.528C133.436 38.112 133.836 37.7973 134.338 37.584C134.85 37.3707 135.436 37.264 136.098 37.264V39.568C135.82 39.5467 135.634 39.536 135.538 39.536C134.823 39.536 134.263 39.7387 133.858 40.144C133.452 40.5387 133.25 41.136 133.25 41.936V46H130.754V37.392H133.138V38.528ZM145.936 41.728C145.936 41.76 145.92 41.984 145.888 42.4H139.376C139.493 42.9333 139.77 43.3547 140.208 43.664C140.645 43.9733 141.189 44.128 141.84 44.128C142.288 44.128 142.682 44.064 143.024 43.936C143.376 43.7973 143.701 43.584 144 43.296L145.328 44.736C144.517 45.664 143.333 46.128 141.776 46.128C140.805 46.128 139.946 45.9413 139.2 45.568C138.453 45.184 137.877 44.656 137.472 43.984C137.066 43.312 136.864 42.5493 136.864 41.696C136.864 40.8533 137.061 40.096 137.456 39.424C137.861 38.7413 138.41 38.2133 139.104 37.84C139.808 37.456 140.592 37.264 141.456 37.264C142.298 37.264 143.061 37.4453 143.744 37.808C144.426 38.1707 144.96 38.6933 145.344 39.376C145.738 40.048 145.936 40.832 145.936 41.728ZM141.472 39.152C140.906 39.152 140.432 39.312 140.048 39.632C139.664 39.952 139.429 40.3893 139.344 40.944H143.584C143.498 40.4 143.264 39.968 142.88 39.648C142.496 39.3173 142.026 39.152 141.472 39.152ZM152.685 37.264C153.485 37.264 154.211 37.4507 154.861 37.824C155.523 38.1867 156.04 38.704 156.413 39.376C156.787 40.0373 156.973 40.8107 156.973 41.696C156.973 42.5813 156.787 43.36 156.413 44.032C156.04 44.6933 155.523 45.2107 154.861 45.584C154.211 45.9467 153.485 46.128 152.685 46.128C151.587 46.128 150.723 45.7813 150.093 45.088V49.104H147.597V37.392H149.981V38.384C150.6 37.6373 151.501 37.264 152.685 37.264ZM152.253 44.08C152.893 44.08 153.416 43.8667 153.821 43.44C154.237 43.0027 154.445 42.4213 154.445 41.696C154.445 40.9707 154.237 40.3947 153.821 39.968C153.416 39.5307 152.893 39.312 152.253 39.312C151.613 39.312 151.085 39.5307 150.669 39.968C150.264 40.3947 150.061 40.9707 150.061 41.696C150.061 42.4213 150.264 43.0027 150.669 43.44C151.085 43.8667 151.613 44.08 152.253 44.08ZM161.976 37.264C163.309 37.264 164.333 37.584 165.048 38.224C165.762 38.8533 166.12 39.808 166.12 41.088V46H163.784V44.928C163.314 45.728 162.44 46.128 161.16 46.128C160.498 46.128 159.922 46.016 159.432 45.792C158.952 45.568 158.584 45.2587 158.328 44.864C158.072 44.4693 157.944 44.0213 157.944 43.52C157.944 42.72 158.242 42.0907 158.84 41.632C159.448 41.1733 160.381 40.944 161.64 40.944H163.624C163.624 40.4 163.458 39.984 163.128 39.696C162.797 39.3973 162.301 39.248 161.64 39.248C161.181 39.248 160.728 39.3227 160.28 39.472C159.842 39.6107 159.469 39.8027 159.16 40.048L158.264 38.304C158.733 37.9733 159.293 37.7173 159.944 37.536C160.605 37.3547 161.282 37.264 161.976 37.264ZM161.784 44.448C162.21 44.448 162.589 44.352 162.92 44.16C163.25 43.9573 163.485 43.664 163.624 43.28V42.4H161.912C160.888 42.4 160.376 42.736 160.376 43.408C160.376 43.728 160.498 43.984 160.744 44.176C161 44.3573 161.346 44.448 161.784 44.448ZM170.763 38.528C171.061 38.112 171.461 37.7973 171.963 37.584C172.475 37.3707 173.061 37.264 173.723 37.264V39.568C173.445 39.5467 173.259 39.536 173.163 39.536C172.448 39.536 171.888 39.7387 171.483 40.144C171.077 40.5387 170.875 41.136 170.875 41.936V46H168.379V37.392H170.763V38.528ZM178.632 37.264C179.965 37.264 180.989 37.584 181.704 38.224C182.418 38.8533 182.776 39.808 182.776 41.088V46H180.44V44.928C179.97 45.728 179.096 46.128 177.816 46.128C177.154 46.128 176.578 46.016 176.088 45.792C175.608 45.568 175.24 45.2587 174.984 44.864C174.728 44.4693 174.6 44.0213 174.6 43.52C174.6 42.72 174.898 42.0907 175.496 41.632C176.104 41.1733 177.037 40.944 178.296 40.944H180.28C180.28 40.4 180.114 39.984 179.784 39.696C179.453 39.3973 178.957 39.248 178.296 39.248C177.837 39.248 177.384 39.3227 176.936 39.472C176.498 39.6107 176.125 39.8027 175.816 40.048L174.92 38.304C175.389 37.9733 175.949 37.7173 176.6 37.536C177.261 37.3547 177.938 37.264 178.632 37.264ZM178.44 44.448C178.866 44.448 179.245 44.352 179.576 44.16C179.906 43.9573 180.141 43.664 180.28 43.28V42.4H178.568C177.544 42.4 177.032 42.736 177.032 43.408C177.032 43.728 177.154 43.984 177.4 44.176C177.656 44.3573 178.002 44.448 178.44 44.448ZM189.289 46.128C188.371 46.128 187.545 45.9413 186.809 45.568C186.083 45.184 185.513 44.656 185.097 43.984C184.691 43.312 184.489 42.5493 184.489 41.696C184.489 40.8427 184.691 40.08 185.097 39.408C185.513 38.736 186.083 38.2133 186.809 37.84C187.545 37.456 188.371 37.264 189.289 37.264C190.195 37.264 190.985 37.456 191.657 37.84C192.339 38.2133 192.835 38.752 193.145 39.456L191.209 40.496C190.761 39.7067 190.115 39.312 189.273 39.312C188.622 39.312 188.083 39.5253 187.657 39.952C187.23 40.3787 187.017 40.96 187.017 41.696C187.017 42.432 187.23 43.0133 187.657 43.44C188.083 43.8667 188.622 44.08 189.273 44.08C190.126 44.08 190.771 43.6853 191.209 42.896L193.145 43.952C192.835 44.6347 192.339 45.168 191.657 45.552C190.985 45.936 190.195 46.128 189.289 46.128ZM194.582 37.392H197.078V46H194.582V37.392ZM195.83 36.192C195.371 36.192 194.998 36.0587 194.71 35.792C194.422 35.5253 194.278 35.1947 194.278 34.8C194.278 34.4053 194.422 34.0747 194.71 33.808C194.998 33.5413 195.371 33.408 195.83 33.408C196.288 33.408 196.662 33.536 196.95 33.792C197.238 34.048 197.382 34.368 197.382 34.752C197.382 35.168 197.238 35.5147 196.95 35.792C196.662 36.0587 196.288 36.192 195.83 36.192ZM203.49 46.128C202.584 46.128 201.768 45.9413 201.042 45.568C200.328 45.184 199.768 44.656 199.362 43.984C198.957 43.312 198.754 42.5493 198.754 41.696C198.754 40.8427 198.957 40.08 199.362 39.408C199.768 38.736 200.328 38.2133 201.042 37.84C201.768 37.456 202.584 37.264 203.49 37.264C204.397 37.264 205.208 37.456 205.922 37.84C206.637 38.2133 207.197 38.736 207.602 39.408C208.008 40.08 208.21 40.8427 208.21 41.696C208.21 42.5493 208.008 43.312 207.602 43.984C207.197 44.656 206.637 45.184 205.922 45.568C205.208 45.9413 204.397 46.128 203.49 46.128ZM203.49 44.08C204.13 44.08 204.653 43.8667 205.058 43.44C205.474 43.0027 205.682 42.4213 205.682 41.696C205.682 40.9707 205.474 40.3947 205.058 39.968C204.653 39.5307 204.13 39.312 203.49 39.312C202.85 39.312 202.322 39.5307 201.906 39.968C201.49 40.3947 201.282 40.9707 201.282 41.696C201.282 42.4213 201.49 43.0027 201.906 43.44C202.322 43.8667 202.85 44.08 203.49 44.08ZM204.162 33.984H206.85L203.954 36.288H202.002L204.162 33.984ZM215.111 37.264C216.177 37.264 217.036 37.584 217.687 38.224C218.348 38.864 218.679 39.8133 218.679 41.072V46H216.183V41.456C216.183 40.7733 216.033 40.2667 215.735 39.936C215.436 39.5947 215.004 39.424 214.439 39.424C213.809 39.424 213.308 39.6213 212.935 40.016C212.561 40.4 212.375 40.976 212.375 41.744V46H209.879V37.392H212.263V38.4C212.593 38.0373 213.004 37.76 213.495 37.568C213.985 37.3653 214.524 37.264 215.111 37.264Z" fill="#4F4F4F"/>
</svg>
