<svg width="380" height="210" viewBox="0 0 380 210" fill="none" xmlns="http://www.w3.org/2000/svg">
<path fill-rule="evenodd" clip-rule="evenodd" d="M99.9798 0.998165H24.9951C18.3659 0.998165 12.0084 3.61911 7.32094 8.28425C2.63347 12.9494 0 19.2766 0 25.8742C0 64.1026 0 136.869 0 175.079C0 188.805 11.1712 199.937 24.9632 199.954C54.5764 199.992 99.9798 200.05 99.9798 200.05L110.979 209.978H148.968L159.968 200.05L355.005 200.043C361.634 200.043 367.992 197.422 372.68 192.756C377.367 188.091 380 181.763 380 175.166C380 175.158 380 175.151 380 175.143C379.999 161.405 368.809 150.269 355.005 150.269C293.552 150.269 159.968 150.276 159.968 150.276L148.976 160.204H110.979L99.9798 150.276H64.9869C58.3578 150.276 52.0002 147.655 47.3128 142.99C42.6253 138.325 39.9918 131.998 39.9918 125.4V75.6481C39.9918 69.0507 42.6253 62.7232 47.3128 58.0581C52.0002 53.393 58.3578 50.7723 64.9869 50.7723H99.9798L110.979 60.7005H148.968L159.968 50.7723C159.968 50.7723 293.538 50.8065 354.998 50.8232C361.629 50.8251 367.988 48.2047 372.677 43.5391C377.366 38.8734 380 32.5448 380 25.946C380 25.9192 380 25.8922 380 25.8655C379.999 12.1275 368.809 0.990875 355.005 0.990875C293.552 0.990875 159.968 0.998165 159.968 0.998165L148.976 10.9264H110.977L99.9798 0.998165Z" fill="#FFDE6C"/>
<path fill-rule="evenodd" clip-rule="evenodd" d="M380 25.8739C380 19.277 377.367 12.9503 372.68 8.28536C367.993 3.62069 361.636 1 355.007 1C293.554 1 159.968 1 159.968 1L148.976 10.9283H110.977L99.9798 1H25.0337C18.3942 1 12.0269 3.62499 7.33221 8.2973C2.63755 12.9696 0 19.3067 0 25.9145C0 55.3881 0 100.504 0 100.504H5.9988V25.9107C5.9988 20.7381 8.06335 15.7775 11.7382 12.1202C15.4133 8.46255 20.3976 6.40784 25.595 6.40784C52.4837 6.40784 97.5249 6.40784 97.5249 6.40784L108.525 16.3361H151.468L162.468 6.40784H354.442C359.63 6.40784 364.605 8.45873 368.273 12.1097C371.941 15.7603 374.002 20.7118 374.002 25.8749V25.8761H380V25.8739Z" fill="#FFF0BD"/>
<path fill-rule="evenodd" clip-rule="evenodd" d="M380 175.171C380 168.574 377.367 162.248 372.68 157.583C367.993 152.918 361.636 150.297 355.007 150.297C293.554 150.297 159.939 150.297 159.939 150.297L148.939 160.226H110.951L99.9511 150.297H64.8046C58.1423 150.297 51.7557 147.65 47.063 142.944C42.37 138.238 39.7593 131.861 39.8102 125.231C39.9055 112.848 40 100.523 40 100.523H34.0012C34.0012 100.523 33.9165 112.762 33.8268 125.709C33.7716 133.636 36.8972 141.257 42.5102 146.882C48.1229 152.507 55.7589 155.67 63.7238 155.67C80.2954 155.67 97.4961 155.67 97.4961 155.67L108.496 165.634H151.439L162.439 155.705C162.439 155.705 298.622 155.713 354.431 155.716C365.231 155.717 373.989 164.424 374.002 175.173L380 175.173V175.171Z" fill="#FFF0BD"/>
<path fill-rule="evenodd" clip-rule="evenodd" d="M380 175.173H374.001C374.001 180.341 371.939 185.297 368.268 188.95C364.596 192.604 359.617 194.657 354.425 194.657C297.754 194.657 157.483 194.657 157.483 194.657L146.484 204.585H113.464L102.465 194.657H25.575C14.7633 194.657 5.9988 185.934 5.9988 175.174C5.9988 147.605 5.9988 100.523 5.9988 100.523H0C0 100.523 0 145.723 0 175.214C0 188.953 11.1906 200.09 24.9951 200.09C54.5946 200.09 99.9311 200.09 99.9311 200.09L110.979 210H148.968L160.017 200.09H355.005C368.809 200.09 380 188.953 380 175.215C380 175.187 380 175.173 380 175.173Z" fill="#EBC541"/>
<path fill-rule="evenodd" clip-rule="evenodd" d="M380 25.8801H374.001V25.8818C374.001 31.048 371.939 36.0023 368.269 39.6554C364.598 43.3084 359.62 45.3605 354.429 45.3605C297.76 45.3605 157.482 45.3608 157.482 45.3608L146.491 55.2812H113.472L102.473 45.3529H64.9032C47.8363 45.3529 34.001 59.1224 34.001 76.1077C34.001 88.7553 34.001 100.497 34.001 100.497H39.9998V75.6432C39.9998 69.0459 42.6332 62.7184 47.3207 58.0533C52.0082 53.3881 58.3657 50.7674 64.9948 50.7674C81.4577 50.7674 99.9878 50.7674 99.9878 50.7674L110.987 60.6957H148.976L159.967 50.7755C159.967 50.7755 293.539 50.813 354.999 50.8283C361.629 50.83 367.988 48.21 372.677 43.5449C377.365 38.8797 380 32.5515 380 25.9532C380 25.905 380 25.8801 380 25.8801Z" fill="#EBC541"/>
</svg>
