<svg width="580" height="106" viewBox="0 0 580 106" fill="none" xmlns="http://www.w3.org/2000/svg">
<path d="M168.764 105.464C168.764 103.276 168.649 95.6733 168.649 91.6418V81.9661C168.649 79.8952 168.419 77.7099 168.074 76.9047L168.534 76.6748C171.53 79.5502 176.255 81.5054 182.94 81.5054C197.69 81.5054 207.813 70.8069 207.813 55.3652C207.813 40.0388 196.999 28.6489 181.096 28.6489C170.032 28.6489 162.323 33.8246 158.297 37.16V91.6418C158.297 95.6733 158.181 103.276 158.181 105.464H168.764ZM168.649 41.9978C171.069 40.3845 175.794 38.3101 181.096 38.3101C190.776 38.3101 197.46 45.5701 197.46 55.3652C197.46 65.1603 191.353 71.844 182.479 71.844C174.988 71.844 170.378 67.5804 168.649 65.0451V41.9978Z" fill="#E55636"/>
<path d="M273.172 56.6249C273.287 55.82 273.287 55.2449 273.287 54.325C273.287 41.887 265.339 28.6489 249.213 28.6489C234.815 28.6489 224.807 39.58 224.807 54.44C224.807 69.192 233.664 81.5054 251.056 81.5054C260.501 81.5054 268.103 76.79 272.941 71.3826L265.8 64.5802C262.229 69.192 256.815 72.0745 251.056 72.0745C241.61 72.0745 236.312 65.7332 235.275 56.6249H273.172ZM249.213 37.619C257.045 37.619 261.653 43.2712 262.344 47.8851H235.851C237.694 41.5409 242.532 37.619 249.213 37.619Z" fill="#E55636"/>
<path d="M300.602 30.0312H290.25C290.25 32.2191 290.365 39.8193 290.365 43.8496V66.3047C290.365 70.3351 290.25 77.9352 290.25 80.1231H300.832C300.832 77.9352 300.717 70.3351 300.717 66.3047V50.874C300.717 42.3416 306.595 37.3887 313.28 37.3887C319.159 37.3887 323.884 40.9596 323.884 50.1744V66.3007C323.884 70.3322 323.769 77.9346 323.769 80.1231H334.352C334.352 77.9346 334.237 70.3322 334.237 66.3007V47.9858C334.237 35.8938 327.45 28.6489 315.586 28.6489C307.978 28.6489 302.331 32.4438 300.487 36.8137L300.027 36.5837C300.257 35.904 300.487 32.6798 300.602 30.0312Z" fill="#E55636"/>
<path d="M385.529 34.6285C382.078 31.5236 377.245 28.6489 371.363 28.6489C362.033 28.6489 356.397 34.8584 356.397 41.1916C356.397 49.6037 362.838 53.6369 369.287 57.5547C373.555 60.2052 377.822 62.8557 377.822 66.428C377.822 69.424 374.823 72.0745 370.671 72.0745C365.829 72.0745 361.458 69.0783 357.892 65.9669L351.329 73.4545C357.087 78.2851 362.723 81.5054 370.671 81.5054C381.848 81.5054 388.174 74.2597 388.174 66.428C388.174 57.0938 381.273 53.0606 374.823 49.0274C371.017 46.7229 366.289 44.6485 366.289 41.1916C366.289 38.6563 368.365 37.1583 371.363 37.1583C374.823 37.1583 377.937 39.3477 380.008 41.4219L385.529 34.6285Z" fill="#E55636"/>
<path d="M427.25 81.5054C436.241 81.5054 444.411 77.7101 448.207 75.0649V46.9606C448.207 43.1584 447.517 40.2729 446.136 37.8498C442.571 31.6392 435.319 28.6489 427.711 28.6489C419.874 28.6489 413.883 31.4091 410.087 33.4793L414.228 42.1197C416.877 40.6191 421.372 38.0798 427.711 38.0798C432.552 38.0798 437.509 40.6191 437.969 45.4656C438.084 46.7304 438.66 49.1453 439.005 50.1802L438.544 50.4104C436.241 47.4204 431.515 45.1205 425.406 45.1205C414.228 45.1205 405.141 51.5602 405.141 62.391C405.141 73.7998 413.998 81.5054 427.25 81.5054ZM427.25 72.3049C419.759 72.3049 415.033 68.5008 415.033 62.391C415.033 56.973 419.874 53.63 425.406 53.63C432.091 53.63 436.471 57.3188 437.854 59.5092V69.3076C435.895 70.691 431.63 72.3049 427.25 72.3049Z" fill="#E55636"/>
<path d="M475.757 12.761H465.175C465.175 14.9497 465.29 22.5521 465.29 26.5836V66.3088C465.29 70.3403 465.175 77.9427 465.175 80.1312H475.757C475.757 77.9427 475.642 70.3403 475.642 66.3088V40.1612C477.025 40.1612 482.323 40.2764 483.705 40.2764V29.9239C482.323 29.9239 478.983 30.0393 475.642 30.0393V26.5836C475.642 22.5521 475.757 14.9497 475.757 12.761Z" fill="#E55636"/>
<path d="M515.71 12.761H505.127C505.127 14.9497 505.242 22.5521 505.242 26.5836V66.3088C505.242 70.3403 505.127 77.9427 505.127 80.1312H515.71C515.71 77.9427 515.595 70.3403 515.595 66.3088V40.1612C516.977 40.1612 522.275 40.2764 523.658 40.2764V29.9239C522.275 29.9239 518.935 30.0393 515.595 30.0393V26.5836C515.595 22.5521 515.71 14.9497 515.71 12.761Z" fill="#E55636"/>
<path d="M559.043 81.5054C568.034 81.5054 576.204 77.7101 580 75.0649V46.9606C580 43.1584 579.309 40.2729 577.929 37.8498C574.363 31.6392 567.111 28.6489 559.504 28.6489C551.667 28.6489 545.676 31.4091 541.88 33.4793L546.021 42.1197C548.67 40.6191 553.165 38.0798 559.504 38.0798C564.345 38.0798 569.301 40.6191 569.762 45.4656C569.877 46.7304 570.452 49.1453 570.797 50.1802L570.337 50.4104C568.033 47.4204 563.308 45.1205 557.199 45.1205C546.021 45.1205 536.934 51.5602 536.934 62.391C536.934 73.7998 545.791 81.5054 559.043 81.5054ZM559.043 72.3049C551.551 72.3049 546.826 68.5008 546.826 62.391C546.826 56.973 551.667 53.63 557.199 53.63C563.884 53.63 568.264 57.3188 569.647 59.5092V69.3076C567.688 70.691 563.423 72.3049 559.043 72.3049Z" fill="#E55636"/>
<path d="M52.7275 105.455C81.8481 105.455 105.455 81.8481 105.455 52.7275C105.455 23.6069 81.8481 0 52.7275 0C23.6069 0 0 23.6069 0 52.7275C0 81.8481 23.6069 105.455 52.7275 105.455Z" fill="#008E86"/>
<path fill-rule="evenodd" clip-rule="evenodd" d="M40.1492 30.4089L23.0841 10.9863L22.0991 20.4709L23.0841 32.4266L27.1217 39.9939L40.1492 30.4089ZM65.3093 30.4089L82.3744 10.9863L83.3594 20.4709L82.3744 32.4266L78.3368 39.9939L65.3093 30.4089Z" fill="#E6C786"/>
<path fill-rule="evenodd" clip-rule="evenodd" d="M52.7272 25.184L62.3425 26.6488L71.975 32.7021L78.3348 40.0237L82.3724 51.3643L52.7272 58.5347L23.082 51.3643L27.1196 40.0237L33.4794 32.7021L43.1119 26.6488L52.7272 25.184Z" fill="#E55636"/>
<path fill-rule="evenodd" clip-rule="evenodd" d="M43.1119 26.619L35.871 19.2879L23.082 10.9863L27.4849 21.4116L28.8003 30.2784L31.1222 39.1676L37.9047 36.0268L42.3777 30.733L43.1119 26.619ZM62.3425 26.619L69.5834 19.2879L82.3724 10.9863L77.9697 21.4116L76.6544 30.2784L74.3324 39.1676L67.5499 36.0268L63.077 30.733L62.3425 26.619Z" fill="#99250C"/>
<path fill-rule="evenodd" clip-rule="evenodd" d="M36.7917 71.0752L22.8011 67.3055L3.38062 66.7105L13.8848 56.5682L23.0799 51.3027L39.3235 54.7877L46.4433 50.4837L52.725 48.5933L59.007 50.4837L66.1268 54.7877L82.3702 51.3027L91.5653 56.5682L102.07 66.7105L82.6492 67.3055L68.6586 71.0752L52.725 77.556L36.7917 71.0752Z" fill="#E9D6B6"/>
<path fill-rule="evenodd" clip-rule="evenodd" d="M46.1649 80.7267L42.1422 75.8036L34.7266 71.9116L19.1088 68.0148L3.38062 66.7277L18.7479 64.9036L36.7229 67.4869L47.4409 73.3449L52.725 74.2044L58.0092 73.3449L68.7272 67.4869L86.7024 64.9036L102.07 66.7277L86.3415 68.0148L70.7237 71.9116L63.3079 75.8036L59.2852 80.7267L52.725 82.6171L46.1649 80.7267Z" fill="#E6C786"/>
<path fill-rule="evenodd" clip-rule="evenodd" d="M52.7238 55.9456L57.5679 56.0341L61.2211 57.6768L62.9603 60.4613L61.2669 64.2852L57.2196 64.8768L52.7238 63.728L48.228 64.8768L44.181 64.2852L42.4875 60.4613L44.2267 57.6768L47.8798 56.0341L52.7238 55.9456Z" fill="black"/>
</svg>
