<svg width="380" height="180" viewBox="0 0 380 180" fill="none" xmlns="http://www.w3.org/2000/svg">
<rect width="380" height="180" rx="20" fill="white"/>
<rect x="20" y="20" width="40" height="40" rx="20" fill="#1B6893"/>
<path d="M45.7556 42.8324H44.1795C42.933 42.8324 41.9208 43.8494 41.9208 45.0981V46.679C41.9208 47.9294 42.9347 48.9447 44.1795 48.9447H45.7556C47.0021 48.9447 48.0143 47.9277 48.0143 46.679V45.0981C48.016 43.8494 47.0021 42.8324 45.7556 42.8324ZM46.3428 46.679C46.3428 47.003 46.0802 47.2664 45.7573 47.2664H44.1812C43.8583 47.2664 43.5956 47.003 43.5956 46.679V45.0981C43.5956 44.7742 43.8583 44.5107 44.1812 44.5107H45.7573C46.0802 44.5107 46.3428 44.7742 46.3428 45.0981V46.679Z" fill="#F2F2F2"/>
<path d="M52.5 35.7367C52.5 35.255 52.3511 34.7935 52.0683 34.4041L47.7483 28.4378C47.3234 27.8521 46.6407 27.503 45.9196 27.503H34.0839C33.3628 27.503 32.6802 27.8521 32.2552 28.4378L27.9352 34.4058C27.6524 34.7952 27.5035 35.255 27.5035 35.7367V36.987C27.5035 37.0206 27.5102 37.0525 27.5136 37.0844C27.5102 37.1179 27.5035 37.1498 27.5035 37.1817C27.5035 38.4555 28.1377 39.5816 29.1047 40.263V50.2321C29.1047 51.4824 30.1186 52.4978 31.3634 52.4978H32.3439C33.5904 52.4978 34.6026 51.4807 34.6026 50.2321V44.9237C34.6026 44.5997 34.8653 44.3362 35.1882 44.3362H38.5796C38.9025 44.3362 39.1652 44.5997 39.1652 44.9237V50.2321C39.1652 51.4824 40.1791 52.4978 41.4239 52.4978H48.6384C49.8849 52.4978 50.8972 51.4807 50.8972 50.2321V40.263C51.8642 39.5816 52.5 38.4555 52.5 37.1817C52.5 37.1481 52.4933 37.1162 52.49 37.0844C52.4933 37.0525 52.5 37.0206 52.5 36.987V35.7367ZM29.1767 35.7367C29.1767 35.6108 29.2151 35.4917 29.2888 35.391L33.6104 29.423C33.7209 29.2719 33.8982 29.1813 34.0839 29.1813H45.9196C46.107 29.1813 46.2844 29.2719 46.3931 29.423L50.7148 35.391C50.7884 35.4917 50.8269 35.6108 50.8269 35.7367V36.987C50.8269 37.0206 50.8336 37.0525 50.8369 37.0844C50.8336 37.1162 50.8269 37.1481 50.8269 37.1817C50.8269 38.3313 49.895 39.2678 48.7472 39.2678C47.5994 39.2678 46.6675 38.333 46.6675 37.1817C46.6675 36.7185 46.2927 36.3425 45.8309 36.3425C45.3692 36.3425 44.9944 36.7185 44.9944 37.1817C44.9944 38.3313 44.0624 39.2678 42.9147 39.2678C41.7686 39.2678 40.8367 38.333 40.8367 37.1817C40.8367 36.7185 40.4619 36.3425 40.0001 36.3425C39.5383 36.3425 39.1635 36.7185 39.1635 37.1817C39.1635 38.3313 38.2316 39.2678 37.0838 39.2678C35.9361 39.2678 35.0042 38.333 35.0042 37.1817C35.0042 36.7185 34.6294 36.3425 34.1676 36.3425C33.7058 36.3425 33.331 36.7185 33.331 37.1817C33.331 38.3313 32.3991 39.2678 31.2513 39.2678C30.1086 39.2678 29.1767 38.333 29.1767 37.1817C29.1767 37.1481 29.17 37.1162 29.1666 37.0844C29.17 37.0525 29.1767 37.0206 29.1767 36.987V35.7367ZM49.2257 50.2338C49.2257 50.5577 48.963 50.8212 48.6401 50.8212H41.4256C41.1027 50.8212 40.84 50.5577 40.84 50.2338V44.9253C40.84 43.675 39.8261 42.6596 38.5813 42.6596H35.1899C33.9434 42.6596 32.9312 43.6767 32.9312 44.9253V50.2338C32.9312 50.5577 32.6685 50.8212 32.3456 50.8212H31.3651C31.0422 50.8212 30.7795 50.5577 30.7795 50.2338V40.9142C30.9351 40.9344 31.0941 40.9461 31.2564 40.9461C32.4326 40.9461 33.4833 40.4007 34.1726 39.5481C34.8603 40.4007 35.9127 40.9461 37.0889 40.9461C38.2651 40.9461 39.3158 40.4007 40.0051 39.5481C40.6928 40.4007 41.7452 40.9461 42.9197 40.9461C44.0959 40.9461 45.1466 40.4007 45.836 39.5481C46.5236 40.4007 47.576 40.9461 48.7522 40.9461C48.9145 40.9461 49.0735 40.9344 49.2291 40.9142V50.2338H49.2257Z" fill="#F2F2F2"/>
<path d="M90 33.92V36H81.328V24.8H89.792V26.88H83.904V29.312H89.104V31.328H83.904V33.92H90ZM91.2539 30.496H95.7819V32.496H91.2539V30.496ZM102.978 27.264C104.044 27.264 104.903 27.584 105.554 28.224C106.215 28.864 106.546 29.8133 106.546 31.072V36H104.05V31.456C104.05 30.7733 103.9 30.2667 103.602 29.936C103.303 29.5947 102.871 29.424 102.306 29.424C101.676 29.424 101.175 29.6213 100.802 30.016C100.428 30.4 100.242 30.976 100.242 31.744V36H97.7458V27.392H100.13V28.4C100.46 28.0373 100.871 27.76 101.362 27.568C101.852 27.3653 102.391 27.264 102.978 27.264ZM108.808 24.128H111.304V36H108.808V24.128ZM113.621 27.392H116.117V36H113.621V27.392ZM115.573 23.984H118.261L115.365 26.288H113.413L115.573 23.984ZM123.665 27.264C124.732 27.264 125.591 27.584 126.241 28.224C126.903 28.864 127.233 29.8133 127.233 31.072V36H124.737V31.456C124.737 30.7733 124.588 30.2667 124.289 29.936C123.991 29.5947 123.559 29.424 122.993 29.424C122.364 29.424 121.863 29.6213 121.489 30.016C121.116 30.4 120.929 30.976 120.929 31.744V36H118.433V27.392H120.817V28.4C121.148 28.0373 121.559 27.76 122.049 27.568C122.54 27.3653 123.079 27.264 123.665 27.264ZM138.022 31.728C138.022 31.76 138.006 31.984 137.974 32.4H131.462C131.579 32.9333 131.856 33.3547 132.294 33.664C132.731 33.9733 133.275 34.128 133.926 34.128C134.374 34.128 134.768 34.064 135.11 33.936C135.462 33.7973 135.787 33.584 136.086 33.296L137.414 34.736C136.603 35.664 135.419 36.128 133.862 36.128C132.891 36.128 132.032 35.9413 131.286 35.568C130.539 35.184 129.963 34.656 129.558 33.984C129.152 33.312 128.95 32.5493 128.95 31.696C128.95 30.8533 129.147 30.096 129.542 29.424C129.947 28.7413 130.496 28.2133 131.19 27.84C131.894 27.456 132.678 27.264 133.542 27.264C134.384 27.264 135.147 27.4453 135.83 27.808C136.512 28.1707 137.046 28.6933 137.43 29.376C137.824 30.048 138.022 30.832 138.022 31.728ZM133.558 29.152C132.992 29.152 132.518 29.312 132.134 29.632C131.75 29.952 131.515 30.3893 131.43 30.944H135.67C135.584 30.4 135.35 29.968 134.966 29.648C134.582 29.3173 134.112 29.152 133.558 29.152ZM142.921 27.264C144.254 27.264 145.278 27.584 145.993 28.224C146.708 28.8533 147.065 29.808 147.065 31.088V36H144.729V34.928C144.26 35.728 143.385 36.128 142.105 36.128C141.444 36.128 140.868 36.016 140.377 35.792C139.897 35.568 139.529 35.2587 139.273 34.864C139.017 34.4693 138.889 34.0213 138.889 33.52C138.889 32.72 139.188 32.0907 139.785 31.632C140.393 31.1733 141.326 30.944 142.585 30.944H144.569C144.569 30.4 144.404 29.984 144.073 29.696C143.742 29.3973 143.246 29.248 142.585 29.248C142.126 29.248 141.673 29.3227 141.225 29.472C140.788 29.6107 140.414 29.8027 140.105 30.048L139.209 28.304C139.678 27.9733 140.238 27.7173 140.889 27.536C141.55 27.3547 142.228 27.264 142.921 27.264ZM142.729 34.448C143.156 34.448 143.534 34.352 143.865 34.16C144.196 33.9573 144.43 33.664 144.569 33.28V32.4H142.857C141.833 32.4 141.321 32.736 141.321 33.408C141.321 33.728 141.444 33.984 141.689 34.176C141.945 34.3573 142.292 34.448 142.729 34.448Z" fill="#00635D"/>
<path d="M28.848 93.008H22.608L21.264 96H20.032L25.152 84.8H26.32L31.44 96H30.192L28.848 93.008ZM28.416 92.048L25.728 86.032L23.04 92.048H28.416ZM37.3408 87.52C38.3968 87.52 39.2341 87.8293 39.8528 88.448C40.4821 89.056 40.7968 89.9467 40.7968 91.12V96H39.6608V91.232C39.6608 90.3573 39.4421 89.6907 39.0048 89.232C38.5674 88.7733 37.9434 88.544 37.1328 88.544C36.2261 88.544 35.5061 88.816 34.9728 89.36C34.4501 89.8933 34.1888 90.6347 34.1888 91.584V96H33.0528V87.584H34.1408V89.136C34.4501 88.624 34.8768 88.2293 35.4208 87.952C35.9754 87.664 36.6154 87.52 37.3408 87.52ZM48.3129 95.488C48.0995 95.68 47.8329 95.8293 47.5129 95.936C47.2035 96.032 46.8782 96.08 46.5369 96.08C45.7475 96.08 45.1395 95.8667 44.7129 95.44C44.2862 95.0133 44.0729 94.4107 44.0729 93.632V88.544H42.5689V87.584H44.0729V85.744H45.2089V87.584H47.7689V88.544H45.2089V93.568C45.2089 94.0693 45.3315 94.4533 45.5769 94.72C45.8329 94.976 46.1955 95.104 46.6649 95.104C46.8995 95.104 47.1235 95.0667 47.3369 94.992C47.5609 94.9173 47.7529 94.8107 47.9129 94.672L48.3129 95.488ZM50.3809 87.584H51.5169V96H50.3809V87.584ZM50.9569 85.744C50.7222 85.744 50.5249 85.664 50.3649 85.504C50.2049 85.344 50.1249 85.152 50.1249 84.928C50.1249 84.7147 50.2049 84.528 50.3649 84.368C50.5249 84.208 50.7222 84.128 50.9569 84.128C51.1915 84.128 51.3889 84.208 51.5489 84.368C51.7089 84.5173 51.7889 84.6987 51.7889 84.912C51.7889 85.1467 51.7089 85.344 51.5489 85.504C51.3889 85.664 51.1915 85.744 50.9569 85.744ZM62.4698 87.584V94.976C62.4698 96.4053 62.1178 97.4613 61.4138 98.144C60.7204 98.8373 59.6698 99.184 58.2618 99.184C57.4831 99.184 56.7418 99.0667 56.0378 98.832C55.3444 98.608 54.7791 98.2933 54.3418 97.888L54.9178 97.024C55.3231 97.3867 55.8138 97.6693 56.3898 97.872C56.9764 98.0747 57.5898 98.176 58.2298 98.176C59.2964 98.176 60.0804 97.9253 60.5818 97.424C61.0831 96.9333 61.3338 96.1653 61.3338 95.12V94.048C60.9818 94.5813 60.5178 94.9867 59.9418 95.264C59.3764 95.5413 58.7471 95.68 58.0538 95.68C57.2644 95.68 56.5444 95.5093 55.8938 95.168C55.2538 94.816 54.7471 94.3307 54.3738 93.712C54.0111 93.0827 53.8298 92.3733 53.8298 91.584C53.8298 90.7947 54.0111 90.0907 54.3738 89.472C54.7471 88.8533 55.2538 88.3733 55.8938 88.032C56.5338 87.6907 57.2538 87.52 58.0538 87.52C58.7684 87.52 59.4138 87.664 59.9898 87.952C60.5658 88.24 61.0298 88.656 61.3818 89.2V87.584H62.4698ZM58.1658 94.672C58.7738 94.672 59.3231 94.544 59.8138 94.288C60.3044 94.0213 60.6831 93.6533 60.9498 93.184C61.2271 92.7147 61.3658 92.1813 61.3658 91.584C61.3658 90.9867 61.2271 90.4587 60.9498 90C60.6831 89.5307 60.3044 89.168 59.8138 88.912C59.3338 88.6453 58.7844 88.512 58.1658 88.512C57.5578 88.512 57.0084 88.64 56.5178 88.896C56.0378 89.152 55.6591 89.5147 55.3818 89.984C55.1151 90.4533 54.9818 90.9867 54.9818 91.584C54.9818 92.1813 55.1151 92.7147 55.3818 93.184C55.6591 93.6533 56.0378 94.0213 56.5178 94.288C57.0084 94.544 57.5578 94.672 58.1658 94.672ZM73.2305 87.584V96H72.1425V94.464C71.8438 94.976 71.4332 95.376 70.9105 95.664C70.3878 95.9413 69.7905 96.08 69.1185 96.08C68.0198 96.08 67.1505 95.776 66.5105 95.168C65.8812 94.5493 65.5665 93.648 65.5665 92.464V87.584H66.7025V92.352C66.7025 93.2373 66.9212 93.9093 67.3585 94.368C67.7958 94.8267 68.4198 95.056 69.2305 95.056C70.1158 95.056 70.8145 94.7893 71.3265 94.256C71.8385 93.712 72.0945 92.96 72.0945 92V87.584H73.2305ZM67.9825 85.904C67.7905 85.904 67.6252 85.84 67.4865 85.712C67.3585 85.584 67.2945 85.4187 67.2945 85.216C67.2945 85.024 67.3585 84.864 67.4865 84.736C67.6252 84.5973 67.7905 84.528 67.9825 84.528C68.1638 84.528 68.3238 84.5973 68.4625 84.736C68.6012 84.864 68.6705 85.024 68.6705 85.216C68.6705 85.408 68.6012 85.5733 68.4625 85.712C68.3345 85.84 68.1745 85.904 67.9825 85.904ZM70.8305 85.904C70.6385 85.904 70.4732 85.84 70.3345 85.712C70.2065 85.5733 70.1425 85.408 70.1425 85.216C70.1425 85.024 70.2118 84.864 70.3505 84.736C70.4892 84.5973 70.6492 84.528 70.8305 84.528C71.0225 84.528 71.1825 84.5973 71.3105 84.736C71.4492 84.864 71.5185 85.024 71.5185 85.216C71.5185 85.4187 71.4492 85.584 71.3105 85.712C71.1825 85.84 71.0225 85.904 70.8305 85.904ZM83.7401 92.144H76.7001C76.7641 93.0187 77.1001 93.728 77.7081 94.272C78.3161 94.8053 79.0841 95.072 80.0121 95.072C80.5348 95.072 81.0148 94.9813 81.4521 94.8C81.8895 94.608 82.2681 94.3307 82.5881 93.968L83.2281 94.704C82.8548 95.152 82.3855 95.4933 81.8201 95.728C81.2655 95.9627 80.6521 96.08 79.9801 96.08C79.1161 96.08 78.3481 95.8987 77.6761 95.536C77.0148 95.1627 76.4975 94.6507 76.1241 94C75.7508 93.3493 75.5641 92.6133 75.5641 91.792C75.5641 90.9707 75.7401 90.2347 76.0921 89.584C76.4548 88.9333 76.9455 88.4267 77.5641 88.064C78.1935 87.7013 78.8975 87.52 79.6761 87.52C80.4548 87.52 81.1535 87.7013 81.7721 88.064C82.3908 88.4267 82.8761 88.9333 83.2281 89.584C83.5801 90.224 83.7561 90.96 83.7561 91.792L83.7401 92.144ZM79.6761 88.496C78.8655 88.496 78.1828 88.7573 77.6281 89.28C77.0841 89.792 76.7748 90.464 76.7001 91.296H82.6681C82.5935 90.464 82.2788 89.792 81.7241 89.28C81.1801 88.7573 80.4975 88.496 79.6761 88.496ZM93.7484 84.128V96H92.6604V94.336C92.319 94.9013 91.8657 95.3333 91.3004 95.632C90.7457 95.9307 90.1164 96.08 89.4124 96.08C88.623 96.08 87.9084 95.8987 87.2684 95.536C86.6284 95.1733 86.127 94.6667 85.7644 94.016C85.4017 93.3653 85.2204 92.624 85.2204 91.792C85.2204 90.96 85.4017 90.2187 85.7644 89.568C86.127 88.9173 86.6284 88.416 87.2684 88.064C87.9084 87.7013 88.623 87.52 89.4124 87.52C90.095 87.52 90.7084 87.664 91.2524 87.952C91.807 88.2293 92.2604 88.64 92.6124 89.184V84.128H93.7484ZM89.5084 95.072C90.095 95.072 90.623 94.9387 91.0924 94.672C91.5724 94.3947 91.9457 94.0053 92.2124 93.504C92.4897 93.0027 92.6284 92.432 92.6284 91.792C92.6284 91.152 92.4897 90.5813 92.2124 90.08C91.9457 89.5787 91.5724 89.1947 91.0924 88.928C90.623 88.6507 90.095 88.512 89.5084 88.512C88.911 88.512 88.3724 88.6507 87.8924 88.928C87.423 89.1947 87.0497 89.5787 86.7724 90.08C86.5057 90.5813 86.3724 91.152 86.3724 91.792C86.3724 92.432 86.5057 93.0027 86.7724 93.504C87.0497 94.0053 87.423 94.3947 87.8924 94.672C88.3724 94.9387 88.911 95.072 89.5084 95.072ZM99.8561 87.52C100.955 87.52 101.797 87.7973 102.384 88.352C102.971 88.896 103.264 89.7067 103.264 90.784V96H102.176V94.688C101.92 95.1253 101.541 95.4667 101.04 95.712C100.549 95.9573 99.9628 96.08 99.2801 96.08C98.3415 96.08 97.5948 95.856 97.0401 95.408C96.4855 94.96 96.2081 94.368 96.2081 93.632C96.2081 92.9173 96.4641 92.3413 96.9761 91.904C97.4988 91.4667 98.3255 91.248 99.4561 91.248H102.128V90.736C102.128 90.0107 101.925 89.4613 101.52 89.088C101.115 88.704 100.523 88.512 99.7441 88.512C99.2108 88.512 98.6988 88.6027 98.2081 88.784C97.7175 88.9547 97.2961 89.1947 96.9441 89.504L96.4321 88.656C96.8588 88.2933 97.3708 88.016 97.9681 87.824C98.5655 87.6213 99.1948 87.52 99.8561 87.52ZM99.4561 95.184C100.096 95.184 100.645 95.04 101.104 94.752C101.563 94.4533 101.904 94.0267 102.128 93.472V92.096H99.4881C98.0481 92.096 97.3281 92.5973 97.3281 93.6C97.3281 94.0907 97.5148 94.48 97.8881 94.768C98.2615 95.0453 98.7841 95.184 99.4561 95.184ZM114.061 84.128V96H112.973V94.336C112.632 94.9013 112.178 95.3333 111.613 95.632C111.058 95.9307 110.429 96.08 109.725 96.08C108.936 96.08 108.221 95.8987 107.581 95.536C106.941 95.1733 106.44 94.6667 106.077 94.016C105.714 93.3653 105.533 92.624 105.533 91.792C105.533 90.96 105.714 90.2187 106.077 89.568C106.44 88.9173 106.941 88.416 107.581 88.064C108.221 87.7013 108.936 87.52 109.725 87.52C110.408 87.52 111.021 87.664 111.565 87.952C112.12 88.2293 112.573 88.64 112.925 89.184V84.128H114.061ZM109.821 95.072C110.408 95.072 110.936 94.9387 111.405 94.672C111.885 94.3947 112.258 94.0053 112.525 93.504C112.802 93.0027 112.941 92.432 112.941 91.792C112.941 91.152 112.802 90.5813 112.525 90.08C112.258 89.5787 111.885 89.1947 111.405 88.928C110.936 88.6507 110.408 88.512 109.821 88.512C109.224 88.512 108.685 88.6507 108.205 88.928C107.736 89.1947 107.362 89.5787 107.085 90.08C106.818 90.5813 106.685 91.152 106.685 91.792C106.685 92.432 106.818 93.0027 107.085 93.504C107.362 94.0053 107.736 94.3947 108.205 94.672C108.685 94.9387 109.224 95.072 109.821 95.072Z" fill="#828282"/>
<path d="M167.79 52.58V60H167.11V58.96C166.897 59.3133 166.613 59.5833 166.26 59.77C165.913 59.9567 165.52 60.05 165.08 60.05C164.587 60.05 164.14 59.9367 163.74 59.71C163.34 59.4833 163.027 59.1667 162.8 58.76C162.573 58.3533 162.46 57.89 162.46 57.37C162.46 56.85 162.573 56.3867 162.8 55.98C163.027 55.5733 163.34 55.26 163.74 55.04C164.14 54.8133 164.587 54.7 165.08 54.7C165.507 54.7 165.89 54.79 166.23 54.97C166.577 55.1433 166.86 55.4 167.08 55.74V52.58H167.79ZM165.14 59.42C165.507 59.42 165.837 59.3367 166.13 59.17C166.43 58.9967 166.663 58.7533 166.83 58.44C167.003 58.1267 167.09 57.77 167.09 57.37C167.09 56.97 167.003 56.6133 166.83 56.3C166.663 55.9867 166.43 55.7467 166.13 55.58C165.837 55.4067 165.507 55.32 165.14 55.32C164.767 55.32 164.43 55.4067 164.13 55.58C163.837 55.7467 163.603 55.9867 163.43 56.3C163.263 56.6133 163.18 56.97 163.18 57.37C163.18 57.77 163.263 58.1267 163.43 58.44C163.603 58.7533 163.837 58.9967 164.13 59.17C164.43 59.3367 164.767 59.42 165.14 59.42ZM174.347 57.59H169.947C169.987 58.1367 170.197 58.58 170.577 58.92C170.957 59.2533 171.437 59.42 172.017 59.42C172.344 59.42 172.644 59.3633 172.917 59.25C173.191 59.13 173.427 58.9567 173.627 58.73L174.027 59.19C173.794 59.47 173.501 59.6833 173.147 59.83C172.801 59.9767 172.417 60.05 171.997 60.05C171.457 60.05 170.977 59.9367 170.557 59.71C170.144 59.4767 169.821 59.1567 169.587 58.75C169.354 58.3433 169.237 57.8833 169.237 57.37C169.237 56.8567 169.347 56.3967 169.567 55.99C169.794 55.5833 170.101 55.2667 170.487 55.04C170.881 54.8133 171.321 54.7 171.807 54.7C172.294 54.7 172.731 54.8133 173.117 55.04C173.504 55.2667 173.807 55.5833 174.027 55.99C174.247 56.39 174.357 56.85 174.357 57.37L174.347 57.59ZM171.807 55.31C171.301 55.31 170.874 55.4733 170.527 55.8C170.187 56.12 169.994 56.54 169.947 57.06H173.677C173.631 56.54 173.434 56.12 173.087 55.8C172.747 55.4733 172.321 55.31 171.807 55.31ZM180.85 55.81C181.31 55.81 181.716 55.8967 182.07 56.07C182.43 56.2433 182.71 56.49 182.91 56.81C183.11 57.1233 183.21 57.49 183.21 57.91C183.21 58.3367 183.106 58.7133 182.9 59.04C182.693 59.3667 182.406 59.62 182.04 59.8C181.68 59.9733 181.273 60.06 180.82 60.06C179.893 60.06 179.183 59.7567 178.69 59.15C178.196 58.5367 177.95 57.6733 177.95 56.56C177.95 55.78 178.083 55.12 178.35 54.58C178.616 54.04 178.99 53.6333 179.47 53.36C179.95 53.08 180.51 52.94 181.15 52.94C181.843 52.94 182.396 53.0667 182.81 53.32L182.52 53.9C182.186 53.68 181.733 53.57 181.16 53.57C180.386 53.57 179.78 53.8167 179.34 54.31C178.9 54.7967 178.68 55.5067 178.68 56.44C178.68 56.6067 178.69 56.7967 178.71 57.01C178.883 56.63 179.16 56.3367 179.54 56.13C179.92 55.9167 180.356 55.81 180.85 55.81ZM180.79 59.45C181.296 59.45 181.706 59.3133 182.02 59.04C182.34 58.76 182.5 58.39 182.5 57.93C182.5 57.47 182.34 57.1033 182.02 56.83C181.706 56.5567 181.28 56.42 180.74 56.42C180.386 56.42 180.073 56.4867 179.8 56.62C179.533 56.7533 179.323 56.9367 179.17 57.17C179.016 57.4033 178.94 57.6633 178.94 57.95C178.94 58.2167 179.01 58.4633 179.15 58.69C179.296 58.9167 179.51 59.1 179.79 59.24C180.07 59.38 180.403 59.45 180.79 59.45ZM188.053 56.33C188.493 56.4767 188.83 56.6967 189.063 56.99C189.303 57.2833 189.423 57.6367 189.423 58.05C189.423 58.4567 189.313 58.8133 189.093 59.12C188.873 59.42 188.557 59.6533 188.143 59.82C187.737 59.98 187.257 60.06 186.703 60.06C185.863 60.06 185.203 59.88 184.723 59.52C184.243 59.16 184.003 58.67 184.003 58.05C184.003 57.63 184.117 57.2767 184.343 56.99C184.577 56.6967 184.913 56.4767 185.353 56.33C184.993 56.19 184.72 55.99 184.533 55.73C184.347 55.4633 184.253 55.15 184.253 54.79C184.253 54.2233 184.473 53.7733 184.913 53.44C185.36 53.1067 185.957 52.94 186.703 52.94C187.197 52.94 187.627 53.0167 187.993 53.17C188.367 53.3167 188.657 53.53 188.863 53.81C189.07 54.09 189.173 54.4167 189.173 54.79C189.173 55.15 189.077 55.4633 188.883 55.73C188.69 55.99 188.413 56.19 188.053 56.33ZM184.973 54.81C184.973 55.1967 185.127 55.5033 185.433 55.73C185.74 55.9567 186.163 56.07 186.703 56.07C187.243 56.07 187.667 55.9567 187.973 55.73C188.287 55.5033 188.443 55.2 188.443 54.82C188.443 54.4267 188.283 54.1167 187.963 53.89C187.65 53.6633 187.23 53.55 186.703 53.55C186.17 53.55 185.747 53.6633 185.433 53.89C185.127 54.1167 184.973 54.4233 184.973 54.81ZM186.703 59.45C187.323 59.45 187.807 59.3233 188.153 59.07C188.507 58.8167 188.683 58.4733 188.683 58.04C188.683 57.6067 188.507 57.2667 188.153 57.02C187.807 56.7667 187.323 56.64 186.703 56.64C186.09 56.64 185.607 56.7667 185.253 57.02C184.907 57.2667 184.733 57.6067 184.733 58.04C184.733 58.48 184.907 58.8267 185.253 59.08C185.6 59.3267 186.083 59.45 186.703 59.45ZM192.26 55.87C193.274 55.87 194.01 56.0533 194.47 56.42C194.937 56.78 195.17 57.2867 195.17 57.94C195.17 58.3467 195.074 58.71 194.88 59.03C194.694 59.35 194.41 59.6033 194.03 59.79C193.65 59.97 193.184 60.06 192.63 60.06C192.13 60.06 191.654 59.98 191.2 59.82C190.754 59.6533 190.394 59.4333 190.12 59.16L190.47 58.59C190.704 58.83 191.01 59.0267 191.39 59.18C191.77 59.3267 192.18 59.4 192.62 59.4C193.2 59.4 193.647 59.27 193.96 59.01C194.28 58.75 194.44 58.4033 194.44 57.97C194.44 57.49 194.26 57.1267 193.9 56.88C193.547 56.6333 192.947 56.51 192.1 56.51H190.61L190.97 53H194.8V53.64H191.6L191.36 55.87H192.26ZM202.034 58.16H200.634V60H199.914V58.16H195.964V57.64L199.674 53H200.474L196.894 57.52H199.934V55.9H200.634V57.52H202.034V58.16ZM204.798 52.94C205.724 52.94 206.434 53.2467 206.928 53.86C207.421 54.4667 207.668 55.3267 207.668 56.44C207.668 57.22 207.534 57.88 207.268 58.42C207.001 58.96 206.628 59.37 206.148 59.65C205.668 59.9233 205.108 60.06 204.468 60.06C203.774 60.06 203.221 59.9333 202.808 59.68L203.098 59.1C203.431 59.32 203.884 59.43 204.458 59.43C205.231 59.43 205.838 59.1867 206.278 58.7C206.718 58.2067 206.938 57.4933 206.938 56.56C206.938 56.3867 206.928 56.1967 206.908 55.99C206.734 56.37 206.458 56.6667 206.078 56.88C205.698 57.0867 205.261 57.19 204.768 57.19C204.308 57.19 203.898 57.1033 203.538 56.93C203.184 56.7567 202.908 56.5133 202.708 56.2C202.508 55.88 202.408 55.51 202.408 55.09C202.408 54.6633 202.511 54.2867 202.718 53.96C202.924 53.6333 203.208 53.3833 203.568 53.21C203.934 53.03 204.344 52.94 204.798 52.94ZM204.878 56.58C205.231 56.58 205.541 56.5133 205.808 56.38C206.081 56.2467 206.294 56.0633 206.448 55.83C206.601 55.5967 206.678 55.3367 206.678 55.05C206.678 54.7833 206.604 54.5367 206.458 54.31C206.318 54.0833 206.108 53.9 205.828 53.76C205.548 53.62 205.214 53.55 204.828 53.55C204.321 53.55 203.908 53.69 203.588 53.97C203.274 54.2433 203.118 54.61 203.118 55.07C203.118 55.53 203.274 55.8967 203.588 56.17C203.908 56.4433 204.338 56.58 204.878 56.58ZM213.472 59.36V60H208.562V59.49L211.472 56.64C211.839 56.28 212.085 55.97 212.212 55.71C212.345 55.4433 212.412 55.1767 212.412 54.91C212.412 54.4967 212.269 54.1767 211.982 53.95C211.702 53.7167 211.299 53.6 210.772 53.6C209.952 53.6 209.315 53.86 208.862 54.38L208.352 53.94C208.625 53.62 208.972 53.3733 209.392 53.2C209.819 53.0267 210.299 52.94 210.832 52.94C211.545 52.94 212.109 53.11 212.522 53.45C212.942 53.7833 213.152 54.2433 213.152 54.83C213.152 55.19 213.072 55.5367 212.912 55.87C212.752 56.2033 212.449 56.5867 212.002 57.02L209.622 59.36H213.472ZM219.613 60.05C219.106 60.05 218.649 59.9367 218.243 59.71C217.836 59.4767 217.516 59.1567 217.283 58.75C217.049 58.3433 216.933 57.8833 216.933 57.37C216.933 56.8567 217.049 56.3967 217.283 55.99C217.516 55.5833 217.836 55.2667 218.243 55.04C218.649 54.8133 219.106 54.7 219.613 54.7C220.119 54.7 220.576 54.8133 220.983 55.04C221.389 55.2667 221.706 55.5833 221.933 55.99C222.166 56.3967 222.283 56.8567 222.283 57.37C222.283 57.8833 222.166 58.3433 221.933 58.75C221.706 59.1567 221.389 59.4767 220.983 59.71C220.576 59.9367 220.119 60.05 219.613 60.05ZM219.613 59.42C219.986 59.42 220.319 59.3367 220.613 59.17C220.913 58.9967 221.146 58.7533 221.313 58.44C221.479 58.1267 221.563 57.77 221.563 57.37C221.563 56.97 221.479 56.6133 221.313 56.3C221.146 55.9867 220.913 55.7467 220.613 55.58C220.319 55.4067 219.986 55.32 219.613 55.32C219.239 55.32 218.903 55.4067 218.603 55.58C218.309 55.7467 218.076 55.9867 217.903 56.3C217.736 56.6133 217.653 56.97 217.653 57.37C217.653 57.77 217.736 58.1267 217.903 58.44C218.076 58.7533 218.309 58.9967 218.603 59.17C218.903 59.3367 219.239 59.42 219.613 59.42ZM226.442 54.7C226.936 54.7 227.382 54.8133 227.782 55.04C228.182 55.26 228.496 55.5733 228.722 55.98C228.949 56.3867 229.062 56.85 229.062 57.37C229.062 57.8967 228.949 58.3633 228.722 58.77C228.496 59.1767 228.182 59.4933 227.782 59.72C227.389 59.94 226.942 60.05 226.442 60.05C226.016 60.05 225.629 59.9633 225.282 59.79C224.942 59.61 224.662 59.35 224.442 59.01V61.94H223.732V54.74H224.412V55.78C224.626 55.4333 224.906 55.1667 225.252 54.98C225.606 54.7933 226.002 54.7 226.442 54.7ZM226.392 59.42C226.759 59.42 227.092 59.3367 227.392 59.17C227.692 58.9967 227.926 58.7533 228.092 58.44C228.266 58.1267 228.352 57.77 228.352 57.37C228.352 56.97 228.266 56.6167 228.092 56.31C227.926 55.9967 227.692 55.7533 227.392 55.58C227.092 55.4067 226.759 55.32 226.392 55.32C226.019 55.32 225.682 55.4067 225.382 55.58C225.089 55.7533 224.856 55.9967 224.682 56.31C224.516 56.6167 224.432 56.97 224.432 57.37C224.432 57.77 224.516 58.1267 224.682 58.44C224.856 58.7533 225.089 58.9967 225.382 59.17C225.682 59.3367 226.019 59.42 226.392 59.42ZM230.51 54.74H231.22V60H230.51V54.74ZM230.87 53.59C230.723 53.59 230.6 53.54 230.5 53.44C230.4 53.34 230.35 53.22 230.35 53.08C230.35 52.9467 230.4 52.83 230.5 52.73C230.6 52.63 230.723 52.58 230.87 52.58C231.016 52.58 231.14 52.63 231.24 52.73C231.34 52.8233 231.39 52.9367 231.39 53.07C231.39 53.2167 231.34 53.34 231.24 53.44C231.14 53.54 231.016 53.59 230.87 53.59ZM235.875 54.7C236.535 54.7 237.058 54.8933 237.445 55.28C237.838 55.66 238.035 56.2167 238.035 56.95V60H237.325V57.02C237.325 56.4733 237.188 56.0567 236.915 55.77C236.642 55.4833 236.252 55.34 235.745 55.34C235.178 55.34 234.728 55.51 234.395 55.85C234.068 56.1833 233.905 56.6467 233.905 57.24V60H233.195V54.74H233.875V55.71C234.068 55.39 234.335 55.1433 234.675 54.97C235.022 54.79 235.422 54.7 235.875 54.7ZM239.963 54.74H240.673V60H239.963V54.74ZM240.323 53.59C240.176 53.59 240.053 53.54 239.953 53.44C239.853 53.34 239.803 53.22 239.803 53.08C239.803 52.9467 239.853 52.83 239.953 52.73C240.053 52.63 240.176 52.58 240.323 52.58C240.469 52.58 240.593 52.63 240.693 52.73C240.793 52.8233 240.843 52.9367 240.843 53.07C240.843 53.2167 240.793 53.34 240.693 53.44C240.593 53.54 240.469 53.59 240.323 53.59ZM244.798 60.05C244.292 60.05 243.835 59.9367 243.428 59.71C243.022 59.4767 242.702 59.1567 242.468 58.75C242.235 58.3433 242.118 57.8833 242.118 57.37C242.118 56.8567 242.235 56.3967 242.468 55.99C242.702 55.5833 243.022 55.2667 243.428 55.04C243.835 54.8133 244.292 54.7 244.798 54.7C245.305 54.7 245.762 54.8133 246.168 55.04C246.575 55.2667 246.892 55.5833 247.118 55.99C247.352 56.3967 247.468 56.8567 247.468 57.37C247.468 57.8833 247.352 58.3433 247.118 58.75C246.892 59.1567 246.575 59.4767 246.168 59.71C245.762 59.9367 245.305 60.05 244.798 60.05ZM244.798 59.42C245.172 59.42 245.505 59.3367 245.798 59.17C246.098 58.9967 246.332 58.7533 246.498 58.44C246.665 58.1267 246.748 57.77 246.748 57.37C246.748 56.97 246.665 56.6133 246.498 56.3C246.332 55.9867 246.098 55.7467 245.798 55.58C245.505 55.4067 245.172 55.32 244.798 55.32C244.425 55.32 244.088 55.4067 243.788 55.58C243.495 55.7467 243.262 55.9867 243.088 56.3C242.922 56.6133 242.838 56.97 242.838 57.37C242.838 57.77 242.922 58.1267 243.088 58.44C243.262 58.7533 243.495 58.9967 243.788 59.17C244.088 59.3367 244.425 59.42 244.798 59.42ZM251.598 54.7C252.258 54.7 252.781 54.8933 253.168 55.28C253.561 55.66 253.758 56.2167 253.758 56.95V60H253.048V57.02C253.048 56.4733 252.911 56.0567 252.638 55.77C252.364 55.4833 251.974 55.34 251.468 55.34C250.901 55.34 250.451 55.51 250.118 55.85C249.791 56.1833 249.628 56.6467 249.628 57.24V60H248.918V54.74H249.598V55.71C249.791 55.39 250.058 55.1433 250.398 54.97C250.744 54.79 251.144 54.7 251.598 54.7ZM260.285 57.59H255.885C255.925 58.1367 256.135 58.58 256.515 58.92C256.895 59.2533 257.375 59.42 257.955 59.42C258.282 59.42 258.582 59.3633 258.855 59.25C259.128 59.13 259.365 58.9567 259.565 58.73L259.965 59.19C259.732 59.47 259.438 59.6833 259.085 59.83C258.738 59.9767 258.355 60.05 257.935 60.05C257.395 60.05 256.915 59.9367 256.495 59.71C256.082 59.4767 255.758 59.1567 255.525 58.75C255.292 58.3433 255.175 57.8833 255.175 57.37C255.175 56.8567 255.285 56.3967 255.505 55.99C255.732 55.5833 256.038 55.2667 256.425 55.04C256.818 54.8133 257.258 54.7 257.745 54.7C258.232 54.7 258.668 54.8133 259.055 55.04C259.442 55.2667 259.745 55.5833 259.965 55.99C260.185 56.39 260.295 56.85 260.295 57.37L260.285 57.59ZM257.745 55.31C257.238 55.31 256.812 55.4733 256.465 55.8C256.125 56.12 255.932 56.54 255.885 57.06H259.615C259.568 56.54 259.372 56.12 259.025 55.8C258.685 55.4733 258.258 55.31 257.745 55.31ZM263.15 60.05C262.723 60.05 262.313 59.99 261.92 59.87C261.533 59.7433 261.23 59.5867 261.01 59.4L261.33 58.84C261.55 59.0133 261.827 59.1567 262.16 59.27C262.493 59.3767 262.84 59.43 263.2 59.43C263.68 59.43 264.033 59.3567 264.26 59.21C264.493 59.0567 264.61 58.8433 264.61 58.57C264.61 58.3767 264.547 58.2267 264.42 58.12C264.293 58.0067 264.133 57.9233 263.94 57.87C263.747 57.81 263.49 57.7533 263.17 57.7C262.743 57.62 262.4 57.54 262.14 57.46C261.88 57.3733 261.657 57.23 261.47 57.03C261.29 56.83 261.2 56.5533 261.2 56.2C261.2 55.76 261.383 55.4 261.75 55.12C262.117 54.84 262.627 54.7 263.28 54.7C263.62 54.7 263.96 54.7467 264.3 54.84C264.64 54.9267 264.92 55.0433 265.14 55.19L264.83 55.76C264.397 55.46 263.88 55.31 263.28 55.31C262.827 55.31 262.483 55.39 262.25 55.55C262.023 55.71 261.91 55.92 261.91 56.18C261.91 56.38 261.973 56.54 262.1 56.66C262.233 56.78 262.397 56.87 262.59 56.93C262.783 56.9833 263.05 57.04 263.39 57.1C263.81 57.18 264.147 57.26 264.4 57.34C264.653 57.42 264.87 57.5567 265.05 57.75C265.23 57.9433 265.32 58.21 265.32 58.55C265.32 59.01 265.127 59.3767 264.74 59.65C264.36 59.9167 263.83 60.05 263.15 60.05Z" fill="#828282"/>
<path d="M206.688 96.096C205.579 96.096 204.576 95.8507 203.68 95.36C202.795 94.8693 202.096 94.192 201.584 93.328C201.083 92.4533 200.832 91.4773 200.832 90.4C200.832 89.3227 201.083 88.352 201.584 87.488C202.096 86.6133 202.8 85.9307 203.696 85.44C204.592 84.9493 205.595 84.704 206.704 84.704C207.536 84.704 208.304 84.8427 209.008 85.12C209.712 85.3973 210.309 85.8027 210.8 86.336L210.048 87.088C209.173 86.2027 208.069 85.76 206.736 85.76C205.851 85.76 205.045 85.9627 204.32 86.368C203.595 86.7733 203.024 87.328 202.608 88.032C202.203 88.736 202 89.5253 202 90.4C202 91.2747 202.203 92.064 202.608 92.768C203.024 93.472 203.595 94.0267 204.32 94.432C205.045 94.8373 205.851 95.04 206.736 95.04C208.08 95.04 209.184 94.592 210.048 93.696L210.8 94.448C210.309 94.9813 209.707 95.392 208.992 95.68C208.288 95.9573 207.52 96.096 206.688 96.096ZM216.149 96.08C215.338 96.08 214.608 95.8987 213.957 95.536C213.306 95.1627 212.794 94.6507 212.421 94C212.048 93.3493 211.861 92.6133 211.861 91.792C211.861 90.9707 212.048 90.2347 212.421 89.584C212.794 88.9333 213.306 88.4267 213.957 88.064C214.608 87.7013 215.338 87.52 216.149 87.52C216.96 87.52 217.69 87.7013 218.341 88.064C218.992 88.4267 219.498 88.9333 219.861 89.584C220.234 90.2347 220.421 90.9707 220.421 91.792C220.421 92.6133 220.234 93.3493 219.861 94C219.498 94.6507 218.992 95.1627 218.341 95.536C217.69 95.8987 216.96 96.08 216.149 96.08ZM216.149 95.072C216.746 95.072 217.28 94.9387 217.749 94.672C218.229 94.3947 218.602 94.0053 218.869 93.504C219.136 93.0027 219.269 92.432 219.269 91.792C219.269 91.152 219.136 90.5813 218.869 90.08C218.602 89.5787 218.229 89.1947 217.749 88.928C217.28 88.6507 216.746 88.512 216.149 88.512C215.552 88.512 215.013 88.6507 214.533 88.928C214.064 89.1947 213.69 89.5787 213.413 90.08C213.146 90.5813 213.013 91.152 213.013 91.792C213.013 92.432 213.146 93.0027 213.413 93.504C213.69 94.0053 214.064 94.3947 214.533 94.672C215.013 94.9387 215.552 95.072 216.149 95.072ZM233.236 87.52C234.292 87.52 235.119 87.824 235.716 88.432C236.324 89.04 236.628 89.936 236.628 91.12V96H235.492V91.232C235.492 90.3573 235.279 89.6907 234.852 89.232C234.436 88.7733 233.844 88.544 233.076 88.544C232.202 88.544 231.514 88.816 231.012 89.36C230.511 89.8933 230.26 90.6347 230.26 91.584V96H229.124V91.232C229.124 90.3573 228.911 89.6907 228.484 89.232C228.068 88.7733 227.471 88.544 226.692 88.544C225.828 88.544 225.14 88.816 224.628 89.36C224.127 89.8933 223.876 90.6347 223.876 91.584V96H222.74V87.584H223.828V89.12C224.127 88.608 224.543 88.2133 225.076 87.936C225.61 87.6587 226.223 87.52 226.916 87.52C227.62 87.52 228.228 87.6693 228.74 87.968C229.263 88.2667 229.652 88.7093 229.908 89.296C230.218 88.7413 230.66 88.3093 231.236 88C231.823 87.68 232.49 87.52 233.236 87.52ZM244.045 87.52C244.834 87.52 245.549 87.7013 246.189 88.064C246.829 88.416 247.33 88.9173 247.693 89.568C248.056 90.2187 248.237 90.96 248.237 91.792C248.237 92.6347 248.056 93.3813 247.693 94.032C247.33 94.6827 246.829 95.1893 246.189 95.552C245.56 95.904 244.845 96.08 244.045 96.08C243.362 96.08 242.744 95.9413 242.189 95.664C241.645 95.376 241.197 94.96 240.845 94.416V99.104H239.709V87.584H240.797V89.248C241.138 88.6933 241.586 88.2667 242.141 87.968C242.706 87.6693 243.341 87.52 244.045 87.52ZM243.965 95.072C244.552 95.072 245.085 94.9387 245.565 94.672C246.045 94.3947 246.418 94.0053 246.685 93.504C246.962 93.0027 247.101 92.432 247.101 91.792C247.101 91.152 246.962 90.5867 246.685 90.096C246.418 89.5947 246.045 89.2053 245.565 88.928C245.085 88.6507 244.552 88.512 243.965 88.512C243.368 88.512 242.829 88.6507 242.349 88.928C241.88 89.2053 241.506 89.5947 241.229 90.096C240.962 90.5867 240.829 91.152 240.829 91.792C240.829 92.432 240.962 93.0027 241.229 93.504C241.506 94.0053 241.88 94.3947 242.349 94.672C242.829 94.9387 243.368 95.072 243.965 95.072ZM251.641 89.232C251.907 88.6667 252.302 88.24 252.825 87.952C253.358 87.664 254.014 87.52 254.793 87.52V88.624L254.521 88.608C253.635 88.608 252.942 88.88 252.441 89.424C251.939 89.968 251.689 90.7307 251.689 91.712V96H250.553V87.584H251.641V89.232ZM259.778 87.52C260.877 87.52 261.719 87.7973 262.306 88.352C262.893 88.896 263.186 89.7067 263.186 90.784V96H262.098V94.688C261.842 95.1253 261.463 95.4667 260.962 95.712C260.471 95.9573 259.885 96.08 259.202 96.08C258.263 96.08 257.517 95.856 256.962 95.408C256.407 94.96 256.13 94.368 256.13 93.632C256.13 92.9173 256.386 92.3413 256.898 91.904C257.421 91.4667 258.247 91.248 259.378 91.248H262.05V90.736C262.05 90.0107 261.847 89.4613 261.442 89.088C261.037 88.704 260.445 88.512 259.666 88.512C259.133 88.512 258.621 88.6027 258.13 88.784C257.639 88.9547 257.218 89.1947 256.866 89.504L256.354 88.656C256.781 88.2933 257.293 88.016 257.89 87.824C258.487 87.6213 259.117 87.52 259.778 87.52ZM259.378 95.184C260.018 95.184 260.567 95.04 261.026 94.752C261.485 94.4533 261.826 94.0267 262.05 93.472V92.096H259.41C257.97 92.096 257.25 92.5973 257.25 93.6C257.25 94.0907 257.437 94.48 257.81 94.768C258.183 95.0453 258.706 95.184 259.378 95.184ZM273.403 87.52C274.502 87.52 275.344 87.7973 275.931 88.352C276.518 88.896 276.811 89.7067 276.811 90.784V96H275.723V94.688C275.467 95.1253 275.088 95.4667 274.587 95.712C274.096 95.9573 273.51 96.08 272.827 96.08C271.888 96.08 271.142 95.856 270.587 95.408C270.032 94.96 269.755 94.368 269.755 93.632C269.755 92.9173 270.011 92.3413 270.523 91.904C271.046 91.4667 271.872 91.248 273.003 91.248H275.675V90.736C275.675 90.0107 275.472 89.4613 275.067 89.088C274.662 88.704 274.07 88.512 273.291 88.512C272.758 88.512 272.246 88.6027 271.755 88.784C271.264 88.9547 270.843 89.1947 270.491 89.504L269.979 88.656C270.406 88.2933 270.918 88.016 271.515 87.824C272.112 87.6213 272.742 87.52 273.403 87.52ZM273.003 95.184C273.643 95.184 274.192 95.04 274.651 94.752C275.11 94.4533 275.451 94.0267 275.675 93.472V92.096H273.035C271.595 92.096 270.875 92.5973 270.875 93.6C270.875 94.0907 271.062 94.48 271.435 94.768C271.808 95.0453 272.331 95.184 273.003 95.184ZM282.153 96.08C281.47 96.08 280.814 95.984 280.185 95.792C279.566 95.5893 279.081 95.3387 278.729 95.04L279.241 94.144C279.593 94.4213 280.035 94.6507 280.569 94.832C281.102 95.0027 281.657 95.088 282.233 95.088C283.001 95.088 283.566 94.9707 283.929 94.736C284.302 94.4907 284.489 94.1493 284.489 93.712C284.489 93.4027 284.387 93.1627 284.185 92.992C283.982 92.8107 283.726 92.6773 283.417 92.592C283.107 92.496 282.697 92.4053 282.185 92.32C281.502 92.192 280.953 92.064 280.537 91.936C280.121 91.7973 279.763 91.568 279.465 91.248C279.177 90.928 279.033 90.4853 279.033 89.92C279.033 89.216 279.326 88.64 279.913 88.192C280.499 87.744 281.315 87.52 282.361 87.52C282.905 87.52 283.449 87.5947 283.993 87.744C284.537 87.8827 284.985 88.0693 285.337 88.304L284.841 89.216C284.147 88.736 283.321 88.496 282.361 88.496C281.635 88.496 281.086 88.624 280.713 88.88C280.35 89.136 280.169 89.472 280.169 89.888C280.169 90.208 280.27 90.464 280.473 90.656C280.686 90.848 280.947 90.992 281.257 91.088C281.566 91.1733 281.993 91.264 282.536 91.36C283.209 91.488 283.747 91.616 284.153 91.744C284.558 91.872 284.905 92.0907 285.193 92.4C285.481 92.7093 285.625 93.136 285.625 93.68C285.625 94.416 285.315 95.0027 284.697 95.44C284.089 95.8667 283.241 96.08 282.153 96.08ZM295.053 92.144H288.013C288.077 93.0187 288.413 93.728 289.021 94.272C289.629 94.8053 290.397 95.072 291.325 95.072C291.847 95.072 292.327 94.9813 292.765 94.8C293.202 94.608 293.581 94.3307 293.901 93.968L294.541 94.704C294.167 95.152 293.698 95.4933 293.133 95.728C292.578 95.9627 291.965 96.08 291.293 96.08C290.429 96.08 289.661 95.8987 288.989 95.536C288.327 95.1627 287.81 94.6507 287.437 94C287.063 93.3493 286.877 92.6133 286.877 91.792C286.877 90.9707 287.053 90.2347 287.405 89.584C287.767 88.9333 288.258 88.4267 288.877 88.064C289.506 87.7013 290.21 87.52 290.989 87.52C291.767 87.52 292.466 87.7013 293.085 88.064C293.703 88.4267 294.189 88.9333 294.541 89.584C294.893 90.224 295.069 90.96 295.069 91.792L295.053 92.144ZM290.989 88.496C290.178 88.496 289.495 88.7573 288.941 89.28C288.397 89.792 288.087 90.464 288.013 91.296H293.981C293.906 90.464 293.591 89.792 293.037 89.28C292.493 88.7573 291.81 88.496 290.989 88.496ZM305.173 87.584V94.976C305.173 96.4053 304.821 97.4613 304.117 98.144C303.424 98.8373 302.373 99.184 300.965 99.184C300.186 99.184 299.445 99.0667 298.741 98.832C298.048 98.608 297.482 98.2933 297.045 97.888L297.621 97.024C298.026 97.3867 298.517 97.6693 299.093 97.872C299.68 98.0747 300.293 98.176 300.933 98.176C302 98.176 302.784 97.9253 303.285 97.424C303.786 96.9333 304.037 96.1653 304.037 95.12V94.048C303.685 94.5813 303.221 94.9867 302.645 95.264C302.08 95.5413 301.45 95.68 300.757 95.68C299.968 95.68 299.248 95.5093 298.597 95.168C297.957 94.816 297.45 94.3307 297.077 93.712C296.714 93.0827 296.533 92.3733 296.533 91.584C296.533 90.7947 296.714 90.0907 297.077 89.472C297.45 88.8533 297.957 88.3733 298.597 88.032C299.237 87.6907 299.957 87.52 300.757 87.52C301.472 87.52 302.117 87.664 302.693 87.952C303.269 88.24 303.733 88.656 304.085 89.2V87.584H305.173ZM300.869 94.672C301.477 94.672 302.026 94.544 302.517 94.288C303.008 94.0213 303.386 93.6533 303.653 93.184C303.93 92.7147 304.069 92.1813 304.069 91.584C304.069 90.9867 303.93 90.4587 303.653 90C303.386 89.5307 303.008 89.168 302.517 88.912C302.037 88.6453 301.488 88.512 300.869 88.512C300.261 88.512 299.712 88.64 299.221 88.896C298.741 89.152 298.362 89.5147 298.085 89.984C297.818 90.4533 297.685 90.9867 297.685 91.584C297.685 92.1813 297.818 92.7147 298.085 93.184C298.362 93.6533 298.741 94.0213 299.221 94.288C299.712 94.544 300.261 94.672 300.869 94.672ZM315.934 87.584V96H314.846V94.464C314.547 94.976 314.136 95.376 313.614 95.664C313.091 95.9413 312.494 96.08 311.822 96.08C310.723 96.08 309.854 95.776 309.214 95.168C308.584 94.5493 308.27 93.648 308.27 92.464V87.584H309.406V92.352C309.406 93.2373 309.624 93.9093 310.062 94.368C310.499 94.8267 311.123 95.056 311.934 95.056C312.819 95.056 313.518 94.7893 314.03 94.256C314.542 93.712 314.798 92.96 314.798 92V87.584H315.934ZM320.203 89.232C320.47 88.6667 320.865 88.24 321.387 87.952C321.921 87.664 322.577 87.52 323.355 87.52V88.624L323.083 88.608C322.198 88.608 321.505 88.88 321.003 89.424C320.502 89.968 320.251 90.7307 320.251 91.712V96H319.115V87.584H320.203V89.232ZM328.341 87.52C329.439 87.52 330.282 87.7973 330.869 88.352C331.455 88.896 331.749 89.7067 331.749 90.784V96H330.661V94.688C330.405 95.1253 330.026 95.4667 329.525 95.712C329.034 95.9573 328.447 96.08 327.765 96.08C326.826 96.08 326.079 95.856 325.525 95.408C324.97 94.96 324.693 94.368 324.693 93.632C324.693 92.9173 324.949 92.3413 325.461 91.904C325.983 91.4667 326.81 91.248 327.941 91.248H330.613V90.736C330.613 90.0107 330.41 89.4613 330.005 89.088C329.599 88.704 329.007 88.512 328.229 88.512C327.695 88.512 327.183 88.6027 326.693 88.784C326.202 88.9547 325.781 89.1947 325.429 89.504L324.917 88.656C325.343 88.2933 325.855 88.016 326.453 87.824C327.05 87.6213 327.679 87.52 328.341 87.52ZM327.941 95.184C328.581 95.184 329.13 95.04 329.589 94.752C330.047 94.4533 330.389 94.0267 330.613 93.472V92.096H327.973C326.533 92.096 325.812 92.5973 325.812 93.6C325.812 94.0907 325.999 94.48 326.373 94.768C326.746 95.0453 327.269 95.184 327.941 95.184ZM342.545 84.128V96H341.457V94.336C341.116 94.9013 340.663 95.3333 340.097 95.632C339.543 95.9307 338.913 96.08 338.209 96.08C337.42 96.08 336.705 95.8987 336.065 95.536C335.425 95.1733 334.924 94.6667 334.561 94.016C334.199 93.3653 334.017 92.624 334.017 91.792C334.017 90.96 334.199 90.2187 334.561 89.568C334.924 88.9173 335.425 88.416 336.065 88.064C336.705 87.7013 337.42 87.52 338.209 87.52C338.892 87.52 339.505 87.664 340.049 87.952C340.604 88.2293 341.057 88.64 341.409 89.184V84.128H342.545ZM338.305 95.072C338.892 95.072 339.42 94.9387 339.889 94.672C340.369 94.3947 340.743 94.0053 341.009 93.504C341.287 93.0027 341.425 92.432 341.425 91.792C341.425 91.152 341.287 90.5813 341.009 90.08C340.743 89.5787 340.369 89.1947 339.889 88.928C339.42 88.6507 338.892 88.512 338.305 88.512C337.708 88.512 337.169 88.6507 336.689 88.928C336.22 89.1947 335.847 89.5787 335.569 90.08C335.303 90.5813 335.169 91.152 335.169 91.792C335.169 92.432 335.303 93.0027 335.569 93.504C335.847 94.0053 336.22 94.3947 336.689 94.672C337.169 94.9387 337.708 95.072 338.305 95.072ZM348.653 87.52C349.752 87.52 350.594 87.7973 351.181 88.352C351.768 88.896 352.061 89.7067 352.061 90.784V96H350.973V94.688C350.717 95.1253 350.338 95.4667 349.837 95.712C349.346 95.9573 348.76 96.08 348.077 96.08C347.138 96.08 346.392 95.856 345.837 95.408C345.282 94.96 345.005 94.368 345.005 93.632C345.005 92.9173 345.261 92.3413 345.773 91.904C346.296 91.4667 347.122 91.248 348.253 91.248H350.925V90.736C350.925 90.0107 350.722 89.4613 350.317 89.088C349.912 88.704 349.32 88.512 348.541 88.512C348.008 88.512 347.496 88.6027 347.005 88.784C346.514 88.9547 346.093 89.1947 345.741 89.504L345.229 88.656C345.656 88.2933 346.168 88.016 346.765 87.824C347.362 87.6213 347.992 87.52 348.653 87.52ZM348.253 95.184C348.893 95.184 349.442 95.04 349.901 94.752C350.36 94.4533 350.701 94.0267 350.925 93.472V92.096H348.285C346.845 92.096 346.125 92.5973 346.125 93.6C346.125 94.0907 346.312 94.48 346.685 94.768C347.058 95.0453 347.581 95.184 348.253 95.184Z" fill="#828282"/>
<path d="M24.464 109.008C26.0427 109.008 27.2053 109.323 27.952 109.952C28.7093 110.581 29.088 111.424 29.088 112.48C29.088 113.163 28.9173 113.787 28.576 114.352C28.2347 114.907 27.712 115.355 27.008 115.696C26.3147 116.027 25.456 116.192 24.432 116.192C23.6427 116.192 22.864 116.091 22.096 115.888C21.3387 115.675 20.6933 115.376 20.16 114.992L21.184 113.008C21.6107 113.328 22.1013 113.579 22.656 113.76C23.2107 113.931 23.7813 114.016 24.368 114.016C25.0187 114.016 25.5307 113.888 25.904 113.632C26.2773 113.376 26.464 113.019 26.464 112.56C26.464 112.08 26.2667 111.717 25.872 111.472C25.488 111.227 24.816 111.104 23.856 111.104H20.992L21.568 104.8H28.4V106.88H23.728L23.552 109.008H24.464ZM38.6709 107.264C40.0042 107.264 41.0282 107.584 41.7429 108.224C42.4575 108.853 42.8149 109.808 42.8149 111.088V116H40.4789V114.928C40.0095 115.728 39.1349 116.128 37.8549 116.128C37.1935 116.128 36.6175 116.016 36.1269 115.792C35.6469 115.568 35.2789 115.259 35.0229 114.864C34.7669 114.469 34.6389 114.021 34.6389 113.52C34.6389 112.72 34.9375 112.091 35.5349 111.632C36.1429 111.173 37.0762 110.944 38.3349 110.944H40.3189C40.3189 110.4 40.1535 109.984 39.8229 109.696C39.4922 109.397 38.9962 109.248 38.3349 109.248C37.8762 109.248 37.4229 109.323 36.9749 109.472C36.5375 109.611 36.1642 109.803 35.8549 110.048L34.9589 108.304C35.4282 107.973 35.9882 107.717 36.6389 107.536C37.3002 107.355 37.9775 107.264 38.6709 107.264ZM38.4789 114.448C38.9055 114.448 39.2842 114.352 39.6149 114.16C39.9455 113.957 40.1802 113.664 40.3189 113.28V112.4H38.6069C37.5829 112.4 37.0709 112.736 37.0709 113.408C37.0709 113.728 37.1935 113.984 37.4389 114.176C37.6949 114.357 38.0415 114.448 38.4789 114.448ZM50.3059 107.264C51.3725 107.264 52.2312 107.584 52.8819 108.224C53.5432 108.864 53.8739 109.813 53.8739 111.072V116H51.3779V111.456C51.3779 110.773 51.2285 110.267 50.9299 109.936C50.6312 109.595 50.1992 109.424 49.6339 109.424C49.0045 109.424 48.5032 109.621 48.1299 110.016C47.7565 110.4 47.5699 110.976 47.5699 111.744V116H45.0739V107.392H47.4579V108.4C47.7885 108.037 48.1992 107.76 48.6899 107.568C49.1805 107.365 49.7192 107.264 50.3059 107.264ZM50.6899 106.336C50.4019 106.336 50.1459 106.283 49.9219 106.176C49.7085 106.059 49.4685 105.904 49.2019 105.712C49.0312 105.584 48.8872 105.488 48.7699 105.424C48.6632 105.36 48.5565 105.328 48.4499 105.328C48.2259 105.328 48.0445 105.408 47.9059 105.568C47.7672 105.717 47.6925 105.936 47.6819 106.224H46.4179C46.4392 105.509 46.6152 104.944 46.9459 104.528C47.2872 104.101 47.7352 103.888 48.2899 103.888C48.5672 103.888 48.8125 103.947 49.0259 104.064C49.2499 104.171 49.5005 104.325 49.7779 104.528C49.9485 104.656 50.0872 104.752 50.1939 104.816C50.3112 104.88 50.4232 104.912 50.5299 104.912C50.7432 104.912 50.9192 104.837 51.0579 104.688C51.2072 104.528 51.2872 104.315 51.2979 104.048H52.5619C52.5405 104.741 52.3592 105.296 52.0179 105.712C51.6872 106.128 51.2445 106.336 50.6899 106.336ZM60.3261 116.128C59.4195 116.128 58.6035 115.941 57.8781 115.568C57.1635 115.184 56.6035 114.656 56.1981 113.984C55.7928 113.312 55.5901 112.549 55.5901 111.696C55.5901 110.843 55.7928 110.08 56.1981 109.408C56.6035 108.736 57.1635 108.213 57.8781 107.84C58.6035 107.456 59.4195 107.264 60.3261 107.264C61.2328 107.264 62.0435 107.456 62.7581 107.84C63.4728 108.213 64.0328 108.736 64.4381 109.408C64.8435 110.08 65.0461 110.843 65.0461 111.696C65.0461 112.549 64.8435 113.312 64.4381 113.984C64.0328 114.656 63.4728 115.184 62.7581 115.568C62.0435 115.941 61.2328 116.128 60.3261 116.128ZM60.3261 114.08C60.9661 114.08 61.4888 113.867 61.8941 113.44C62.3101 113.003 62.5181 112.421 62.5181 111.696C62.5181 110.971 62.3101 110.395 61.8941 109.968C61.4888 109.531 60.9661 109.312 60.3261 109.312C59.6861 109.312 59.1581 109.531 58.7421 109.968C58.3261 110.395 58.1181 110.971 58.1181 111.696C58.1181 112.421 58.3261 113.003 58.7421 113.44C59.1581 113.867 59.6861 114.08 60.3261 114.08ZM69.6105 116.128C68.8958 116.128 68.1972 116.043 67.5145 115.872C66.8318 115.691 66.2878 115.467 65.8825 115.2L66.7145 113.408C67.0985 113.653 67.5625 113.856 68.1065 114.016C68.6505 114.165 69.1838 114.24 69.7065 114.24C70.7625 114.24 71.2905 113.979 71.2905 113.456C71.2905 113.211 71.1465 113.035 70.8585 112.928C70.5705 112.821 70.1278 112.731 69.5305 112.656C68.8265 112.549 68.2452 112.427 67.7865 112.288C67.3278 112.149 66.9278 111.904 66.5865 111.552C66.2558 111.2 66.0905 110.699 66.0905 110.048C66.0905 109.504 66.2452 109.024 66.5545 108.608C66.8745 108.181 67.3332 107.851 67.9305 107.616C68.5385 107.381 69.2532 107.264 70.0745 107.264C70.6825 107.264 71.2852 107.333 71.8825 107.472C72.4905 107.6 72.9918 107.781 73.3865 108.016L72.5545 109.792C71.7972 109.365 70.9705 109.152 70.0745 109.152C69.5412 109.152 69.1412 109.227 68.8745 109.376C68.6078 109.525 68.4745 109.717 68.4745 109.952C68.4745 110.219 68.6185 110.405 68.9065 110.512C69.1945 110.619 69.6532 110.72 70.2825 110.816C70.9865 110.933 71.5625 111.061 72.0105 111.2C72.4585 111.328 72.8478 111.568 73.1785 111.92C73.5092 112.272 73.6745 112.763 73.6745 113.392C73.6745 113.925 73.5145 114.4 73.1945 114.816C72.8745 115.232 72.4052 115.557 71.7865 115.792C71.1785 116.016 70.4532 116.128 69.6105 116.128ZM88.2898 107.392L84.4018 116.528C84.0071 117.52 83.5164 118.219 82.9298 118.624C82.3538 119.029 81.6551 119.232 80.8338 119.232C80.3858 119.232 79.9431 119.163 79.5058 119.024C79.0684 118.885 78.7111 118.693 78.4337 118.448L79.3458 116.672C79.5378 116.843 79.7564 116.976 80.0018 117.072C80.2578 117.168 80.5084 117.216 80.7538 117.216C81.0951 117.216 81.3724 117.131 81.5858 116.96C81.7991 116.8 81.9911 116.528 82.1618 116.144L82.1938 116.064L78.4657 107.392H81.0418L83.4578 113.232L85.8898 107.392H88.2898ZM97.6315 104.8V116H95.0395V106.88H92.7995V104.8H97.6315ZM115.66 107.264C116.738 107.264 117.591 107.584 118.22 108.224C118.86 108.853 119.18 109.803 119.18 111.072V116H116.684V111.456C116.684 110.773 116.54 110.267 116.252 109.936C115.975 109.595 115.575 109.424 115.052 109.424C114.466 109.424 114.002 109.616 113.66 110C113.319 110.373 113.148 110.933 113.148 111.68V116H110.652V111.456C110.652 110.101 110.108 109.424 109.02 109.424C108.444 109.424 107.986 109.616 107.644 110C107.303 110.373 107.132 110.933 107.132 111.68V116H104.636V107.392H107.02V108.384C107.34 108.021 107.73 107.744 108.188 107.552C108.658 107.36 109.17 107.264 109.724 107.264C110.332 107.264 110.882 107.387 111.372 107.632C111.863 107.867 112.258 108.213 112.556 108.672C112.908 108.224 113.351 107.877 113.884 107.632C114.428 107.387 115.02 107.264 115.66 107.264ZM129.943 111.728C129.943 111.76 129.927 111.984 129.895 112.4H123.383C123.501 112.933 123.778 113.355 124.215 113.664C124.653 113.973 125.197 114.128 125.847 114.128C126.295 114.128 126.69 114.064 127.031 113.936C127.383 113.797 127.709 113.584 128.007 113.296L129.335 114.736C128.525 115.664 127.341 116.128 125.783 116.128C124.813 116.128 123.954 115.941 123.207 115.568C122.461 115.184 121.885 114.656 121.479 113.984C121.074 113.312 120.871 112.549 120.871 111.696C120.871 110.853 121.069 110.096 121.463 109.424C121.869 108.741 122.418 108.213 123.111 107.84C123.815 107.456 124.599 107.264 125.463 107.264C126.306 107.264 127.069 107.445 127.751 107.808C128.434 108.171 128.967 108.693 129.351 109.376C129.746 110.048 129.943 110.832 129.943 111.728ZM125.479 109.152C124.914 109.152 124.439 109.312 124.055 109.632C123.671 109.952 123.437 110.389 123.351 110.944H127.591C127.506 110.4 127.271 109.968 126.887 109.648C126.503 109.317 126.034 109.152 125.479 109.152ZM134.501 116.128C133.786 116.128 133.088 116.043 132.405 115.872C131.722 115.691 131.178 115.467 130.773 115.2L131.605 113.408C131.989 113.653 132.453 113.856 132.997 114.016C133.541 114.165 134.074 114.24 134.597 114.24C135.653 114.24 136.181 113.979 136.181 113.456C136.181 113.211 136.037 113.035 135.749 112.928C135.461 112.821 135.018 112.731 134.421 112.656C133.717 112.549 133.136 112.427 132.677 112.288C132.218 112.149 131.818 111.904 131.477 111.552C131.146 111.2 130.981 110.699 130.981 110.048C130.981 109.504 131.136 109.024 131.445 108.608C131.765 108.181 132.224 107.851 132.821 107.616C133.429 107.381 134.144 107.264 134.965 107.264C135.573 107.264 136.176 107.333 136.773 107.472C137.381 107.6 137.882 107.781 138.277 108.016L137.445 109.792C136.688 109.365 135.861 109.152 134.965 109.152C134.432 109.152 134.032 109.227 133.765 109.376C133.498 109.525 133.365 109.717 133.365 109.952C133.365 110.219 133.509 110.405 133.797 110.512C134.085 110.619 134.544 110.72 135.173 110.816C135.877 110.933 136.453 111.061 136.901 111.2C137.349 111.328 137.738 111.568 138.069 111.92C138.4 112.272 138.565 112.763 138.565 113.392C138.565 113.925 138.405 114.4 138.085 114.816C137.765 115.232 137.296 115.557 136.677 115.792C136.069 116.016 135.344 116.128 134.501 116.128Z" fill="#4F4F4F"/>
<path d="M205.008 116.192C204.123 116.192 203.264 116.075 202.432 115.84C201.611 115.595 200.949 115.28 200.448 114.896L201.328 112.944C201.808 113.296 202.379 113.579 203.04 113.792C203.701 114.005 204.363 114.112 205.024 114.112C205.76 114.112 206.304 114.005 206.656 113.792C207.008 113.568 207.184 113.275 207.184 112.912C207.184 112.645 207.077 112.427 206.864 112.256C206.661 112.075 206.395 111.931 206.064 111.824C205.744 111.717 205.307 111.6 204.752 111.472C203.899 111.269 203.2 111.067 202.656 110.864C202.112 110.661 201.643 110.336 201.248 109.888C200.864 109.44 200.672 108.843 200.672 108.096C200.672 107.445 200.848 106.859 201.2 106.336C201.552 105.803 202.08 105.381 202.784 105.072C203.499 104.763 204.368 104.608 205.392 104.608C206.107 104.608 206.805 104.693 207.488 104.864C208.171 105.035 208.768 105.28 209.28 105.6L208.48 107.568C207.445 106.981 206.411 106.688 205.376 106.688C204.651 106.688 204.112 106.805 203.76 107.04C203.419 107.275 203.248 107.584 203.248 107.968C203.248 108.352 203.445 108.64 203.84 108.832C204.245 109.013 204.859 109.195 205.68 109.376C206.533 109.579 207.232 109.781 207.776 109.984C208.32 110.187 208.784 110.507 209.168 110.944C209.563 111.381 209.76 111.973 209.76 112.72C209.76 113.36 209.579 113.947 209.216 114.48C208.864 115.003 208.331 115.419 207.616 115.728C206.901 116.037 206.032 116.192 205.008 116.192ZM211.355 107.392H213.851V116H211.355V107.392ZM212.603 106.192C212.144 106.192 211.771 106.059 211.483 105.792C211.195 105.525 211.051 105.195 211.051 104.8C211.051 104.405 211.195 104.075 211.483 103.808C211.771 103.541 212.144 103.408 212.603 103.408C213.062 103.408 213.435 103.536 213.723 103.792C214.011 104.048 214.155 104.368 214.155 104.752C214.155 105.168 214.011 105.515 213.723 105.792C213.435 106.059 213.062 106.192 212.603 106.192ZM224.6 111.728C224.6 111.76 224.584 111.984 224.552 112.4H218.04C218.157 112.933 218.434 113.355 218.872 113.664C219.309 113.973 219.853 114.128 220.504 114.128C220.952 114.128 221.346 114.064 221.688 113.936C222.04 113.797 222.365 113.584 222.664 113.296L223.992 114.736C223.181 115.664 221.997 116.128 220.44 116.128C219.469 116.128 218.61 115.941 217.864 115.568C217.117 115.184 216.541 114.656 216.136 113.984C215.73 113.312 215.528 112.549 215.528 111.696C215.528 110.853 215.725 110.096 216.12 109.424C216.525 108.741 217.074 108.213 217.768 107.84C218.472 107.456 219.256 107.264 220.12 107.264C220.962 107.264 221.725 107.445 222.408 107.808C223.09 108.171 223.624 108.693 224.008 109.376C224.402 110.048 224.6 110.832 224.6 111.728ZM220.136 109.152C219.57 109.152 219.096 109.312 218.712 109.632C218.328 109.952 218.093 110.389 218.008 110.944H222.248C222.162 110.4 221.928 109.968 221.544 109.648C221.16 109.317 220.69 109.152 220.136 109.152ZM237.285 107.264C238.363 107.264 239.216 107.584 239.845 108.224C240.485 108.853 240.805 109.803 240.805 111.072V116H238.309V111.456C238.309 110.773 238.165 110.267 237.877 109.936C237.6 109.595 237.2 109.424 236.677 109.424C236.091 109.424 235.627 109.616 235.285 110C234.944 110.373 234.773 110.933 234.773 111.68V116H232.277V111.456C232.277 110.101 231.733 109.424 230.645 109.424C230.069 109.424 229.611 109.616 229.269 110C228.928 110.373 228.757 110.933 228.757 111.68V116H226.261V107.392H228.645V108.384C228.965 108.021 229.355 107.744 229.813 107.552C230.283 107.36 230.795 107.264 231.349 107.264C231.957 107.264 232.507 107.387 232.997 107.632C233.488 107.867 233.883 108.213 234.181 108.672C234.533 108.224 234.976 107.877 235.509 107.632C236.053 107.387 236.645 107.264 237.285 107.264ZM248.131 107.264C248.931 107.264 249.656 107.451 250.307 107.824C250.968 108.187 251.485 108.704 251.859 109.376C252.232 110.037 252.419 110.811 252.419 111.696C252.419 112.581 252.232 113.36 251.859 114.032C251.485 114.693 250.968 115.211 250.307 115.584C249.656 115.947 248.931 116.128 248.131 116.128C247.032 116.128 246.168 115.781 245.539 115.088V119.104H243.043V107.392H245.427V108.384C246.045 107.637 246.947 107.264 248.131 107.264ZM247.699 114.08C248.339 114.08 248.861 113.867 249.267 113.44C249.683 113.003 249.891 112.421 249.891 111.696C249.891 110.971 249.683 110.395 249.267 109.968C248.861 109.531 248.339 109.312 247.699 109.312C247.059 109.312 246.531 109.531 246.115 109.968C245.709 110.395 245.507 110.971 245.507 111.696C245.507 112.421 245.709 113.003 246.115 113.44C246.531 113.867 247.059 114.08 247.699 114.08ZM256.474 108.528C256.772 108.112 257.172 107.797 257.674 107.584C258.186 107.371 258.772 107.264 259.434 107.264V109.568C259.156 109.547 258.97 109.536 258.874 109.536C258.159 109.536 257.599 109.739 257.194 110.144C256.788 110.539 256.586 111.136 256.586 111.936V116H254.09V107.392H256.474V108.528ZM269.272 111.728C269.272 111.76 269.256 111.984 269.224 112.4H262.712C262.829 112.933 263.106 113.355 263.544 113.664C263.981 113.973 264.525 114.128 265.176 114.128C265.624 114.128 266.018 114.064 266.36 113.936C266.712 113.797 267.037 113.584 267.336 113.296L268.664 114.736C267.853 115.664 266.669 116.128 265.112 116.128C264.141 116.128 263.282 115.941 262.536 115.568C261.789 115.184 261.213 114.656 260.808 113.984C260.402 113.312 260.2 112.549 260.2 111.696C260.2 110.853 260.397 110.096 260.792 109.424C261.197 108.741 261.746 108.213 262.44 107.84C263.144 107.456 263.928 107.264 264.792 107.264C265.634 107.264 266.397 107.445 267.08 107.808C267.762 108.171 268.296 108.693 268.68 109.376C269.074 110.048 269.272 110.832 269.272 111.728ZM264.808 109.152C264.242 109.152 263.768 109.312 263.384 109.632C263 109.952 262.765 110.389 262.68 110.944H266.92C266.834 110.4 266.6 109.968 266.216 109.648C265.832 109.317 265.362 109.152 264.808 109.152Z" fill="#4F4F4F"/>
<path d="M31.6 144.8V156H29.472L23.888 149.2V156H21.328V144.8H23.472L29.04 151.6V144.8H31.6ZM38.1699 156.128C37.2632 156.128 36.4472 155.941 35.7219 155.568C35.0072 155.184 34.4472 154.656 34.0419 153.984C33.6365 153.312 33.4339 152.549 33.4339 151.696C33.4339 150.843 33.6365 150.08 34.0419 149.408C34.4472 148.736 35.0072 148.213 35.7219 147.84C36.4472 147.456 37.2632 147.264 38.1699 147.264C39.0765 147.264 39.8872 147.456 40.6019 147.84C41.3165 148.213 41.8765 148.736 42.2819 149.408C42.6872 150.08 42.8899 150.843 42.8899 151.696C42.8899 152.549 42.6872 153.312 42.2819 153.984C41.8765 154.656 41.3165 155.184 40.6019 155.568C39.8872 155.941 39.0765 156.128 38.1699 156.128ZM38.1699 154.08C38.8099 154.08 39.3325 153.867 39.7379 153.44C40.1539 153.003 40.3619 152.421 40.3619 151.696C40.3619 150.971 40.1539 150.395 39.7379 149.968C39.3325 149.531 38.8099 149.312 38.1699 149.312C37.5299 149.312 37.0019 149.531 36.5859 149.968C36.1699 150.395 35.9619 150.971 35.9619 151.696C35.9619 152.421 36.1699 153.003 36.5859 153.44C37.0019 153.867 37.5299 154.08 38.1699 154.08Z" fill="#4F4F4F"/>
<path d="M205.008 156.192C204.123 156.192 203.264 156.075 202.432 155.84C201.611 155.595 200.949 155.28 200.448 154.896L201.328 152.944C201.808 153.296 202.379 153.579 203.04 153.792C203.701 154.005 204.363 154.112 205.024 154.112C205.76 154.112 206.304 154.005 206.656 153.792C207.008 153.568 207.184 153.275 207.184 152.912C207.184 152.645 207.077 152.427 206.864 152.256C206.661 152.075 206.395 151.931 206.064 151.824C205.744 151.717 205.307 151.6 204.752 151.472C203.899 151.269 203.2 151.067 202.656 150.864C202.112 150.661 201.643 150.336 201.248 149.888C200.864 149.44 200.672 148.843 200.672 148.096C200.672 147.445 200.848 146.859 201.2 146.336C201.552 145.803 202.08 145.381 202.784 145.072C203.499 144.763 204.368 144.608 205.392 144.608C206.107 144.608 206.805 144.693 207.488 144.864C208.171 145.035 208.768 145.28 209.28 145.6L208.48 147.568C207.445 146.981 206.411 146.688 205.376 146.688C204.651 146.688 204.112 146.805 203.76 147.04C203.419 147.275 203.248 147.584 203.248 147.968C203.248 148.352 203.445 148.64 203.84 148.832C204.245 149.013 204.859 149.195 205.68 149.376C206.533 149.579 207.232 149.781 207.776 149.984C208.32 150.187 208.784 150.507 209.168 150.944C209.563 151.381 209.76 151.973 209.76 152.72C209.76 153.36 209.579 153.947 209.216 154.48C208.864 155.003 208.331 155.419 207.616 155.728C206.901 156.037 206.032 156.192 205.008 156.192ZM211.531 144.8H214.123V156H211.531V144.8ZM213.531 141.584H216.219L213.323 143.888H211.371L213.531 141.584Z" fill="#4F4F4F"/>
<path d="M26.016 124.8C27.4453 124.8 28.5653 125.141 29.376 125.824C30.1867 126.507 30.592 127.445 30.592 128.64C30.592 129.835 30.1867 130.773 29.376 131.456C28.5653 132.128 27.4453 132.464 26.016 132.464H23.008V136H21.824V124.8H26.016ZM25.984 131.424C27.0933 131.424 27.9413 131.184 28.528 130.704C29.1147 130.213 29.408 129.525 29.408 128.64C29.408 127.733 29.1147 127.04 28.528 126.56C27.9413 126.069 27.0933 125.824 25.984 125.824H23.008V131.424H25.984ZM35.778 127.52C36.8767 127.52 37.7193 127.797 38.306 128.352C38.8927 128.896 39.186 129.707 39.186 130.784V136H38.098V134.688C37.842 135.125 37.4633 135.467 36.962 135.712C36.4713 135.957 35.8847 136.08 35.202 136.08C34.2633 136.08 33.5167 135.856 32.962 135.408C32.4073 134.96 32.13 134.368 32.13 133.632C32.13 132.917 32.386 132.341 32.898 131.904C33.4207 131.467 34.2473 131.248 35.378 131.248H38.05V130.736C38.05 130.011 37.8473 129.461 37.442 129.088C37.0367 128.704 36.4447 128.512 35.666 128.512C35.1327 128.512 34.6207 128.603 34.13 128.784C33.6393 128.955 33.218 129.195 32.866 129.504L32.354 128.656C32.7807 128.293 33.2927 128.016 33.89 127.824C34.4873 127.621 35.1167 127.52 35.778 127.52ZM35.378 135.184C36.018 135.184 36.5673 135.04 37.026 134.752C37.4847 134.453 37.826 134.027 38.05 133.472V132.096H35.41C33.97 132.096 33.25 132.597 33.25 133.6C33.25 134.091 33.4367 134.48 33.81 134.768C34.1833 135.045 34.706 135.184 35.378 135.184ZM50.0948 127.584V134.976C50.0948 136.405 49.7428 137.461 49.0388 138.144C48.3454 138.837 47.2948 139.184 45.8868 139.184C45.1081 139.184 44.3668 139.067 43.6628 138.832C42.9694 138.608 42.4041 138.293 41.9668 137.888L42.5428 137.024C42.9481 137.387 43.4388 137.669 44.0148 137.872C44.6014 138.075 45.2148 138.176 45.8548 138.176C46.9214 138.176 47.7054 137.925 48.2068 137.424C48.7081 136.933 48.9588 136.165 48.9588 135.12V134.048C48.6068 134.581 48.1428 134.987 47.5668 135.264C47.0014 135.541 46.3721 135.68 45.6788 135.68C44.8894 135.68 44.1694 135.509 43.5188 135.168C42.8788 134.816 42.3721 134.331 41.9988 133.712C41.6361 133.083 41.4548 132.373 41.4548 131.584C41.4548 130.795 41.6361 130.091 41.9988 129.472C42.3721 128.853 42.8788 128.373 43.5188 128.032C44.1588 127.691 44.8788 127.52 45.6788 127.52C46.3934 127.52 47.0388 127.664 47.6148 127.952C48.1908 128.24 48.6548 128.656 49.0068 129.2V127.584H50.0948ZM45.7908 134.672C46.3988 134.672 46.9481 134.544 47.4388 134.288C47.9294 134.021 48.3081 133.653 48.5748 133.184C48.8521 132.715 48.9908 132.181 48.9908 131.584C48.9908 130.987 48.8521 130.459 48.5748 130C48.3081 129.531 47.9294 129.168 47.4388 128.912C46.9588 128.645 46.4094 128.512 45.7908 128.512C45.1828 128.512 44.6334 128.64 44.1428 128.896C43.6628 129.152 43.2841 129.515 43.0068 129.984C42.7401 130.453 42.6068 130.987 42.6068 131.584C42.6068 132.181 42.7401 132.715 43.0068 133.184C43.2841 133.653 43.6628 134.021 44.1428 134.288C44.6334 134.544 45.1828 134.672 45.7908 134.672ZM56.7115 136.08C55.9008 136.08 55.1702 135.899 54.5195 135.536C53.8688 135.163 53.3568 134.651 52.9835 134C52.6102 133.349 52.4235 132.613 52.4235 131.792C52.4235 130.971 52.6102 130.235 52.9835 129.584C53.3568 128.933 53.8688 128.427 54.5195 128.064C55.1702 127.701 55.9008 127.52 56.7115 127.52C57.5222 127.52 58.2528 127.701 58.9035 128.064C59.5542 128.427 60.0608 128.933 60.4235 129.584C60.7968 130.235 60.9835 130.971 60.9835 131.792C60.9835 132.613 60.7968 133.349 60.4235 134C60.0608 134.651 59.5542 135.163 58.9035 135.536C58.2528 135.899 57.5222 136.08 56.7115 136.08ZM56.7115 135.072C57.3088 135.072 57.8422 134.939 58.3115 134.672C58.7915 134.395 59.1648 134.005 59.4315 133.504C59.6982 133.003 59.8315 132.432 59.8315 131.792C59.8315 131.152 59.6982 130.581 59.4315 130.08C59.1648 129.579 58.7915 129.195 58.3115 128.928C57.8422 128.651 57.3088 128.512 56.7115 128.512C56.1142 128.512 55.5755 128.651 55.0955 128.928C54.6262 129.195 54.2528 129.579 53.9755 130.08C53.7088 130.581 53.5755 131.152 53.5755 131.792C53.5755 132.432 53.7088 133.003 53.9755 133.504C54.2528 134.005 54.6262 134.395 55.0955 134.672C55.5755 134.939 56.1142 135.072 56.7115 135.072ZM70.9783 136.08C70.1463 136.08 69.3996 135.899 68.7383 135.536C68.0876 135.173 67.5756 134.667 67.2023 134.016C66.8289 133.355 66.6423 132.613 66.6423 131.792C66.6423 130.971 66.8289 130.235 67.2023 129.584C67.5756 128.933 68.0876 128.427 68.7383 128.064C69.3996 127.701 70.1463 127.52 70.9783 127.52C71.7036 127.52 72.3489 127.664 72.9143 127.952C73.4903 128.229 73.9436 128.64 74.2743 129.184L73.4263 129.76C73.1489 129.344 72.7969 129.035 72.3703 128.832C71.9436 128.619 71.4796 128.512 70.9783 128.512C70.3703 128.512 69.8209 128.651 69.3303 128.928C68.8503 129.195 68.4716 129.579 68.1943 130.08C67.9276 130.581 67.7943 131.152 67.7943 131.792C67.7943 132.443 67.9276 133.019 68.1943 133.52C68.4716 134.011 68.8503 134.395 69.3303 134.672C69.8209 134.939 70.3703 135.072 70.9783 135.072C71.4796 135.072 71.9436 134.971 72.3703 134.768C72.7969 134.565 73.1489 134.256 73.4263 133.84L74.2743 134.416C73.9436 134.96 73.4903 135.376 72.9143 135.664C72.3383 135.941 71.6929 136.08 70.9783 136.08ZM79.8053 136.08C78.9946 136.08 78.2639 135.899 77.6133 135.536C76.9626 135.163 76.4506 134.651 76.0773 134C75.7039 133.349 75.5173 132.613 75.5173 131.792C75.5173 130.971 75.7039 130.235 76.0773 129.584C76.4506 128.933 76.9626 128.427 77.6133 128.064C78.2639 127.701 78.9946 127.52 79.8053 127.52C80.6159 127.52 81.3466 127.701 81.9973 128.064C82.6479 128.427 83.1546 128.933 83.5173 129.584C83.8906 130.235 84.0773 130.971 84.0773 131.792C84.0773 132.613 83.8906 133.349 83.5173 134C83.1546 134.651 82.6479 135.163 81.9973 135.536C81.3466 135.899 80.6159 136.08 79.8053 136.08ZM79.8053 135.072C80.4026 135.072 80.9359 134.939 81.4053 134.672C81.8853 134.395 82.2586 134.005 82.5253 133.504C82.7919 133.003 82.9253 132.432 82.9253 131.792C82.9253 131.152 82.7919 130.581 82.5253 130.08C82.2586 129.579 81.8853 129.195 81.4053 128.928C80.9359 128.651 80.4026 128.512 79.8053 128.512C79.2079 128.512 78.6693 128.651 78.1893 128.928C77.7199 129.195 77.3466 129.579 77.0693 130.08C76.8026 130.581 76.6693 131.152 76.6693 131.792C76.6693 132.432 76.8026 133.003 77.0693 133.504C77.3466 134.005 77.7199 134.395 78.1893 134.672C78.6693 134.939 79.2079 135.072 79.8053 135.072ZM90.6845 127.52C91.7405 127.52 92.5778 127.829 93.1965 128.448C93.8258 129.056 94.1405 129.947 94.1405 131.12V136H93.0045V131.232C93.0045 130.357 92.7858 129.691 92.3485 129.232C91.9112 128.773 91.2872 128.544 90.4765 128.544C89.5698 128.544 88.8498 128.816 88.3165 129.36C87.7938 129.893 87.5325 130.635 87.5325 131.584V136H86.3965V127.584H87.4845V129.136C87.7938 128.624 88.2205 128.229 88.7645 127.952C89.3192 127.664 89.9592 127.52 90.6845 127.52ZM101.657 135.488C101.443 135.68 101.177 135.829 100.857 135.936C100.547 136.032 100.222 136.08 99.8806 136.08C99.0913 136.08 98.4833 135.867 98.0566 135.44C97.63 135.013 97.4166 134.411 97.4166 133.632V128.544H95.9126V127.584H97.4166V125.744H98.5526V127.584H101.113V128.544H98.5526V133.568C98.5526 134.069 98.6753 134.453 98.9206 134.72C99.1766 134.976 99.5393 135.104 100.009 135.104C100.243 135.104 100.467 135.067 100.681 134.992C100.905 134.917 101.097 134.811 101.257 134.672L101.657 135.488ZM104.813 129.232C105.079 128.667 105.474 128.24 105.997 127.952C106.53 127.664 107.186 127.52 107.965 127.52V128.624L107.693 128.608C106.807 128.608 106.114 128.88 105.613 129.424C105.111 129.968 104.861 130.731 104.861 131.712V136H103.725V127.584H104.813V129.232ZM112.95 127.52C114.049 127.52 114.891 127.797 115.478 128.352C116.065 128.896 116.358 129.707 116.358 130.784V136H115.27V134.688C115.014 135.125 114.635 135.467 114.134 135.712C113.643 135.957 113.057 136.08 112.374 136.08C111.435 136.08 110.689 135.856 110.134 135.408C109.579 134.96 109.302 134.368 109.302 133.632C109.302 132.917 109.558 132.341 110.07 131.904C110.593 131.467 111.419 131.248 112.55 131.248H115.222V130.736C115.222 130.011 115.019 129.461 114.614 129.088C114.209 128.704 113.617 128.512 112.838 128.512C112.305 128.512 111.793 128.603 111.302 128.784C110.811 128.955 110.39 129.195 110.038 129.504L109.526 128.656C109.953 128.293 110.465 128.016 111.062 127.824C111.659 127.621 112.289 127.52 112.95 127.52ZM112.55 135.184C113.19 135.184 113.739 135.04 114.198 134.752C114.657 134.453 114.998 134.027 115.222 133.472V132.096H112.582C111.142 132.096 110.422 132.597 110.422 133.6C110.422 134.091 110.609 134.48 110.982 134.768C111.355 135.045 111.878 135.184 112.55 135.184ZM130.959 132.144H123.919C123.983 133.019 124.319 133.728 124.927 134.272C125.535 134.805 126.303 135.072 127.231 135.072C127.754 135.072 128.234 134.981 128.671 134.8C129.108 134.608 129.487 134.331 129.807 133.968L130.447 134.704C130.074 135.152 129.604 135.493 129.039 135.728C128.484 135.963 127.871 136.08 127.199 136.08C126.335 136.08 125.567 135.899 124.895 135.536C124.234 135.163 123.716 134.651 123.343 134C122.97 133.349 122.783 132.613 122.783 131.792C122.783 130.971 122.959 130.235 123.311 129.584C123.674 128.933 124.164 128.427 124.783 128.064C125.412 127.701 126.116 127.52 126.895 127.52C127.674 127.52 128.372 127.701 128.991 128.064C129.61 128.427 130.095 128.933 130.447 129.584C130.799 130.224 130.975 130.96 130.975 131.792L130.959 132.144ZM126.895 128.496C126.084 128.496 125.402 128.757 124.847 129.28C124.303 129.792 123.994 130.464 123.919 131.296H129.887C129.812 130.464 129.498 129.792 128.943 129.28C128.399 128.757 127.716 128.496 126.895 128.496ZM137.575 127.52C138.631 127.52 139.468 127.829 140.087 128.448C140.716 129.056 141.031 129.947 141.031 131.12V136H139.895V131.232C139.895 130.357 139.676 129.691 139.239 129.232C138.802 128.773 138.178 128.544 137.367 128.544C136.46 128.544 135.74 128.816 135.207 129.36C134.684 129.893 134.423 130.635 134.423 131.584V136H133.287V127.584H134.375V129.136C134.684 128.624 135.111 128.229 135.655 127.952C136.21 127.664 136.85 127.52 137.575 127.52ZM148.547 135.488C148.334 135.68 148.067 135.829 147.747 135.936C147.438 136.032 147.113 136.08 146.771 136.08C145.982 136.08 145.374 135.867 144.947 135.44C144.521 135.013 144.307 134.411 144.307 133.632V128.544H142.803V127.584H144.307V125.744H145.443V127.584H148.003V128.544H145.443V133.568C145.443 134.069 145.566 134.453 145.811 134.72C146.067 134.976 146.43 135.104 146.899 135.104C147.134 135.104 147.358 135.067 147.571 134.992C147.795 134.917 147.987 134.811 148.147 134.672L148.547 135.488ZM151.703 129.232C151.97 128.667 152.365 128.24 152.887 127.952C153.421 127.664 154.077 127.52 154.855 127.52V128.624L154.583 128.608C153.698 128.608 153.005 128.88 152.503 129.424C152.002 129.968 151.751 130.731 151.751 131.712V136H150.615V127.584H151.703V129.232ZM164.162 132.144H157.122C157.186 133.019 157.522 133.728 158.13 134.272C158.738 134.805 159.506 135.072 160.434 135.072C160.957 135.072 161.437 134.981 161.874 134.8C162.311 134.608 162.69 134.331 163.01 133.968L163.65 134.704C163.277 135.152 162.807 135.493 162.242 135.728C161.687 135.963 161.074 136.08 160.402 136.08C159.538 136.08 158.77 135.899 158.098 135.536C157.437 135.163 156.919 134.651 156.546 134C156.173 133.349 155.986 132.613 155.986 131.792C155.986 130.971 156.162 130.235 156.514 129.584C156.877 128.933 157.367 128.427 157.986 128.064C158.615 127.701 159.319 127.52 160.098 127.52C160.877 127.52 161.575 127.701 162.194 128.064C162.813 128.427 163.298 128.933 163.65 129.584C164.002 130.224 164.178 130.96 164.178 131.792L164.162 132.144ZM160.098 128.496C159.287 128.496 158.605 128.757 158.05 129.28C157.506 129.792 157.197 130.464 157.122 131.296H163.09C163.015 130.464 162.701 129.792 162.146 129.28C161.602 128.757 160.919 128.496 160.098 128.496ZM174.282 127.584V134.976C174.282 136.405 173.93 137.461 173.226 138.144C172.533 138.837 171.482 139.184 170.074 139.184C169.296 139.184 168.554 139.067 167.85 138.832C167.157 138.608 166.592 138.293 166.154 137.888L166.73 137.024C167.136 137.387 167.626 137.669 168.202 137.872C168.789 138.075 169.402 138.176 170.042 138.176C171.109 138.176 171.893 137.925 172.394 137.424C172.896 136.933 173.146 136.165 173.146 135.12V134.048C172.794 134.581 172.33 134.987 171.754 135.264C171.189 135.541 170.56 135.68 169.866 135.68C169.077 135.68 168.357 135.509 167.706 135.168C167.066 134.816 166.56 134.331 166.186 133.712C165.824 133.083 165.642 132.373 165.642 131.584C165.642 130.795 165.824 130.091 166.186 129.472C166.56 128.853 167.066 128.373 167.706 128.032C168.346 127.691 169.066 127.52 169.866 127.52C170.581 127.52 171.226 127.664 171.802 127.952C172.378 128.24 172.842 128.656 173.194 129.2V127.584H174.282ZM169.978 134.672C170.586 134.672 171.136 134.544 171.626 134.288C172.117 134.021 172.496 133.653 172.762 133.184C173.04 132.715 173.178 132.181 173.178 131.584C173.178 130.987 173.04 130.459 172.762 130C172.496 129.531 172.117 129.168 171.626 128.912C171.146 128.645 170.597 128.512 169.978 128.512C169.37 128.512 168.821 128.64 168.33 128.896C167.85 129.152 167.472 129.515 167.194 129.984C166.928 130.453 166.794 130.987 166.794 131.584C166.794 132.181 166.928 132.715 167.194 133.184C167.472 133.653 167.85 134.021 168.33 134.288C168.821 134.544 169.37 134.672 169.978 134.672ZM180.403 127.52C181.502 127.52 182.344 127.797 182.931 128.352C183.518 128.896 183.811 129.707 183.811 130.784V136H182.723V134.688C182.467 135.125 182.088 135.467 181.587 135.712C181.096 135.957 180.51 136.08 179.827 136.08C178.888 136.08 178.142 135.856 177.587 135.408C177.032 134.96 176.755 134.368 176.755 133.632C176.755 132.917 177.011 132.341 177.523 131.904C178.046 131.467 178.872 131.248 180.003 131.248H182.675V130.736C182.675 130.011 182.472 129.461 182.067 129.088C181.662 128.704 181.07 128.512 180.291 128.512C179.758 128.512 179.246 128.603 178.755 128.784C178.264 128.955 177.843 129.195 177.491 129.504L176.979 128.656C177.406 128.293 177.918 128.016 178.515 127.824C179.112 127.621 179.742 127.52 180.403 127.52ZM180.003 135.184C180.643 135.184 181.192 135.04 181.651 134.752C182.11 134.453 182.451 134.027 182.675 133.472V132.096H180.035C178.595 132.096 177.875 132.597 177.875 133.6C177.875 134.091 178.062 134.48 178.435 134.768C178.808 135.045 179.331 135.184 180.003 135.184Z" fill="#828282"/>
<path d="M209.472 136L206.912 132.4C206.624 132.432 206.325 132.448 206.016 132.448H203.008V136H201.824V124.8H206.016C207.445 124.8 208.565 125.141 209.376 125.824C210.187 126.507 210.592 127.445 210.592 128.64C210.592 129.515 210.368 130.256 209.92 130.864C209.483 131.461 208.853 131.893 208.032 132.16L210.768 136H209.472ZM205.984 131.44C207.093 131.44 207.941 131.195 208.528 130.704C209.115 130.213 209.408 129.525 209.408 128.64C209.408 127.733 209.115 127.04 208.528 126.56C207.941 126.069 207.093 125.824 205.984 125.824H203.008V131.44H205.984ZM220.475 132.144H213.435C213.499 133.019 213.835 133.728 214.443 134.272C215.051 134.805 215.819 135.072 216.747 135.072C217.269 135.072 217.749 134.981 218.187 134.8C218.624 134.608 219.003 134.331 219.323 133.968L219.963 134.704C219.589 135.152 219.12 135.493 218.555 135.728C218 135.963 217.387 136.08 216.715 136.08C215.851 136.08 215.083 135.899 214.411 135.536C213.749 135.163 213.232 134.651 212.859 134C212.485 133.349 212.299 132.613 212.299 131.792C212.299 130.971 212.475 130.235 212.827 129.584C213.189 128.933 213.68 128.427 214.299 128.064C214.928 127.701 215.632 127.52 216.411 127.52C217.189 127.52 217.888 127.701 218.507 128.064C219.125 128.427 219.611 128.933 219.963 129.584C220.315 130.224 220.491 130.96 220.491 131.792L220.475 132.144ZM216.411 128.496C215.6 128.496 214.917 128.757 214.363 129.28C213.819 129.792 213.509 130.464 213.435 131.296H219.403C219.328 130.464 219.013 129.792 218.459 129.28C217.915 128.757 217.232 128.496 216.411 128.496ZM230.131 132.144H223.091C223.155 133.019 223.491 133.728 224.099 134.272C224.707 134.805 225.475 135.072 226.403 135.072C226.925 135.072 227.405 134.981 227.843 134.8C228.28 134.608 228.659 134.331 228.979 133.968L229.619 134.704C229.245 135.152 228.776 135.493 228.211 135.728C227.656 135.963 227.043 136.08 226.371 136.08C225.507 136.08 224.739 135.899 224.067 135.536C223.405 135.163 222.888 134.651 222.515 134C222.141 133.349 221.955 132.613 221.955 131.792C221.955 130.971 222.131 130.235 222.483 129.584C222.845 128.933 223.336 128.427 223.955 128.064C224.584 127.701 225.288 127.52 226.067 127.52C226.845 127.52 227.544 127.701 228.163 128.064C228.781 128.427 229.267 128.933 229.619 129.584C229.971 130.224 230.147 130.96 230.147 131.792L230.131 132.144ZM226.067 128.496C225.256 128.496 224.573 128.757 224.019 129.28C223.475 129.792 223.165 130.464 223.091 131.296H229.059C228.984 130.464 228.669 129.792 228.115 129.28C227.571 128.757 226.888 128.496 226.067 128.496ZM242.955 127.52C244.011 127.52 244.838 127.824 245.435 128.432C246.043 129.04 246.347 129.936 246.347 131.12V136H245.211V131.232C245.211 130.357 244.998 129.691 244.571 129.232C244.155 128.773 243.563 128.544 242.795 128.544C241.92 128.544 241.232 128.816 240.731 129.36C240.23 129.893 239.979 130.635 239.979 131.584V136H238.843V131.232C238.843 130.357 238.63 129.691 238.203 129.232C237.787 128.773 237.19 128.544 236.411 128.544C235.547 128.544 234.859 128.816 234.347 129.36C233.846 129.893 233.595 130.635 233.595 131.584V136H232.459V127.584H233.547V129.12C233.846 128.608 234.262 128.213 234.795 127.936C235.328 127.659 235.942 127.52 236.635 127.52C237.339 127.52 237.947 127.669 238.459 127.968C238.982 128.267 239.371 128.709 239.627 129.296C239.936 128.741 240.379 128.309 240.955 128C241.542 127.68 242.208 127.52 242.955 127.52ZM253.764 127.52C254.553 127.52 255.268 127.701 255.908 128.064C256.548 128.416 257.049 128.917 257.412 129.568C257.774 130.219 257.956 130.96 257.956 131.792C257.956 132.624 257.774 133.365 257.412 134.016C257.049 134.667 256.548 135.173 255.908 135.536C255.268 135.899 254.553 136.08 253.764 136.08C253.06 136.08 252.425 135.931 251.86 135.632C251.305 135.333 250.857 134.901 250.516 134.336V136H249.428V124.128H250.564V129.184C250.916 128.64 251.364 128.229 251.908 127.952C252.462 127.664 253.081 127.52 253.764 127.52ZM253.684 135.072C254.27 135.072 254.804 134.939 255.284 134.672C255.764 134.395 256.137 134.005 256.404 133.504C256.681 133.003 256.82 132.432 256.82 131.792C256.82 131.152 256.681 130.581 256.404 130.08C256.137 129.579 255.764 129.195 255.284 128.928C254.804 128.651 254.27 128.512 253.684 128.512C253.086 128.512 252.548 128.651 252.068 128.928C251.598 129.195 251.225 129.579 250.948 130.08C250.681 130.581 250.548 131.152 250.548 131.792C250.548 132.432 250.681 133.003 250.948 133.504C251.225 134.005 251.598 134.395 252.068 134.672C252.548 134.939 253.086 135.072 253.684 135.072ZM263.712 136.08C262.901 136.08 262.17 135.899 261.52 135.536C260.869 135.163 260.357 134.651 259.984 134C259.61 133.349 259.424 132.613 259.424 131.792C259.424 130.971 259.61 130.235 259.984 129.584C260.357 128.933 260.869 128.427 261.52 128.064C262.17 127.701 262.901 127.52 263.712 127.52C264.522 127.52 265.253 127.701 265.904 128.064C266.554 128.427 267.061 128.933 267.424 129.584C267.797 130.235 267.984 130.971 267.984 131.792C267.984 132.613 267.797 133.349 267.424 134C267.061 134.651 266.554 135.163 265.904 135.536C265.253 135.899 264.522 136.08 263.712 136.08ZM263.712 135.072C264.309 135.072 264.842 134.939 265.312 134.672C265.792 134.395 266.165 134.005 266.432 133.504C266.698 133.003 266.832 132.432 266.832 131.792C266.832 131.152 266.698 130.581 266.432 130.08C266.165 129.579 265.792 129.195 265.312 128.928C264.842 128.651 264.309 128.512 263.712 128.512C263.114 128.512 262.576 128.651 262.096 128.928C261.626 129.195 261.253 129.579 260.976 130.08C260.709 130.581 260.576 131.152 260.576 131.792C260.576 132.432 260.709 133.003 260.976 133.504C261.253 134.005 261.626 134.395 262.096 134.672C262.576 134.939 263.114 135.072 263.712 135.072ZM270.303 124.128H271.439V136H270.303V124.128ZM276.856 136.08C276.173 136.08 275.517 135.984 274.888 135.792C274.269 135.589 273.784 135.339 273.432 135.04L273.944 134.144C274.296 134.421 274.738 134.651 275.272 134.832C275.805 135.003 276.36 135.088 276.936 135.088C277.704 135.088 278.269 134.971 278.632 134.736C279.005 134.491 279.192 134.149 279.192 133.712C279.192 133.403 279.09 133.163 278.888 132.992C278.685 132.811 278.429 132.677 278.12 132.592C277.81 132.496 277.4 132.405 276.888 132.32C276.205 132.192 275.656 132.064 275.24 131.936C274.824 131.797 274.466 131.568 274.168 131.248C273.88 130.928 273.736 130.485 273.736 129.92C273.736 129.216 274.029 128.64 274.616 128.192C275.202 127.744 276.018 127.52 277.064 127.52C277.608 127.52 278.152 127.595 278.696 127.744C279.24 127.883 279.688 128.069 280.04 128.304L279.544 129.216C278.85 128.736 278.024 128.496 277.064 128.496C276.338 128.496 275.789 128.624 275.416 128.88C275.053 129.136 274.872 129.472 274.872 129.888C274.872 130.208 274.973 130.464 275.176 130.656C275.389 130.848 275.65 130.992 275.96 131.088C276.269 131.173 276.696 131.264 277.24 131.36C277.912 131.488 278.45 131.616 278.856 131.744C279.261 131.872 279.608 132.091 279.896 132.4C280.184 132.709 280.328 133.136 280.328 133.68C280.328 134.416 280.018 135.003 279.4 135.44C278.792 135.867 277.944 136.08 276.856 136.08ZM285.868 136.08C285.057 136.08 284.326 135.899 283.676 135.536C283.025 135.163 282.513 134.651 282.14 134C281.766 133.349 281.58 132.613 281.58 131.792C281.58 130.971 281.766 130.235 282.14 129.584C282.513 128.933 283.025 128.427 283.676 128.064C284.326 127.701 285.057 127.52 285.868 127.52C286.678 127.52 287.409 127.701 288.06 128.064C288.71 128.427 289.217 128.933 289.58 129.584C289.953 130.235 290.14 130.971 290.14 131.792C290.14 132.613 289.953 133.349 289.58 134C289.217 134.651 288.71 135.163 288.06 135.536C287.409 135.899 286.678 136.08 285.868 136.08ZM285.868 135.072C286.465 135.072 286.998 134.939 287.468 134.672C287.948 134.395 288.321 134.005 288.588 133.504C288.854 133.003 288.988 132.432 288.988 131.792C288.988 131.152 288.854 130.581 288.588 130.08C288.321 129.579 287.948 129.195 287.468 128.928C286.998 128.651 286.465 128.512 285.868 128.512C285.27 128.512 284.732 128.651 284.252 128.928C283.782 129.195 283.409 129.579 283.132 130.08C282.865 130.581 282.732 131.152 282.732 131.792C282.732 132.432 282.865 133.003 283.132 133.504C283.409 134.005 283.782 134.395 284.252 134.672C284.732 134.939 285.27 135.072 285.868 135.072ZM294.715 136.08C294.032 136.08 293.376 135.984 292.747 135.792C292.128 135.589 291.643 135.339 291.291 135.04L291.803 134.144C292.155 134.421 292.598 134.651 293.131 134.832C293.664 135.003 294.219 135.088 294.795 135.088C295.563 135.088 296.128 134.971 296.491 134.736C296.864 134.491 297.051 134.149 297.051 133.712C297.051 133.403 296.95 133.163 296.747 132.992C296.544 132.811 296.288 132.677 295.979 132.592C295.67 132.496 295.259 132.405 294.747 132.32C294.064 132.192 293.515 132.064 293.099 131.936C292.683 131.797 292.326 131.568 292.027 131.248C291.739 130.928 291.595 130.485 291.595 129.92C291.595 129.216 291.888 128.64 292.475 128.192C293.062 127.744 293.878 127.52 294.923 127.52C295.467 127.52 296.011 127.595 296.555 127.744C297.099 127.883 297.547 128.069 297.899 128.304L297.403 129.216C296.71 128.736 295.883 128.496 294.923 128.496C294.198 128.496 293.648 128.624 293.275 128.88C292.912 129.136 292.731 129.472 292.731 129.888C292.731 130.208 292.832 130.464 293.035 130.656C293.248 130.848 293.51 130.992 293.819 131.088C294.128 131.173 294.555 131.264 295.099 131.36C295.771 131.488 296.31 131.616 296.715 131.744C297.12 131.872 297.467 132.091 297.755 132.4C298.043 132.709 298.187 133.136 298.187 133.68C298.187 134.416 297.878 135.003 297.259 135.44C296.651 135.867 295.803 136.08 294.715 136.08Z" fill="#828282"/>
<path d="M90.9293 52.1667L90.9296 52.1667C91.1724 52.2033 91.3816 52.3775 91.4649 52.6441C91.5488 52.9123 91.4791 53.1939 91.2923 53.3835L91.292 53.3837L89.4081 55.2975C89.4078 55.2978 89.4075 55.2981 89.4072 55.2984C89.2322 55.4756 89.1593 55.7228 89.1976 55.9593L89.1978 55.9606L89.6431 58.6659L89.6432 58.6664C89.6894 58.9455 89.5808 59.2114 89.3731 59.3685C89.1687 59.5231 88.9116 59.5414 88.6911 59.4208L86.3572 58.1432L86.357 58.1431C86.1359 58.0222 85.8678 58.0206 85.6444 58.1437C85.644 58.1439 85.6437 58.1441 85.6433 58.1443L83.3113 59.4208L83.3111 59.421C83.2127 59.4749 83.1092 59.5 83.0094 59.5C82.8791 59.5 82.7468 59.4581 82.6297 59.3696C82.4221 59.212 82.3133 58.9457 82.3594 58.6674L82.3595 58.6668L82.8048 55.9615L82.805 55.9602C82.8439 55.7198 82.7667 55.475 82.5972 55.3012L82.5972 55.3012L82.5955 55.2995L80.7081 53.384C80.708 53.3839 80.708 53.3839 80.7079 53.3838C80.5211 53.1936 80.4513 52.9116 80.5349 52.6441C80.6183 52.3775 80.8274 52.2033 81.0703 52.1667L81.0706 52.1666L83.6792 51.7715L83.6795 51.7714C83.9334 51.7328 84.1382 51.5684 84.2421 51.3521L84.2432 51.3497L85.4101 48.8879C85.528 48.6396 85.7556 48.5 85.9995 48.5C86.2437 48.5 86.472 48.6399 86.5897 48.8877C86.5897 48.8878 86.5898 48.8879 86.5898 48.8879L87.7547 51.3476C87.7549 51.348 87.7551 51.3484 87.7553 51.3488C87.86 51.5714 88.0691 51.7334 88.3194 51.7714L88.3197 51.7715L90.9293 52.1667Z" fill="#EDCA71" stroke="#EDCA71"/>
<path d="M125.648 53.7345C125.968 53.4106 126.08 52.9356 125.942 52.4949C125.804 52.0541 125.445 51.7388 125.004 51.6723L122.395 51.2771C122.313 51.2648 122.243 51.2116 122.208 51.1356L121.041 48.6735C120.844 48.2584 120.445 48 119.999 48C119.554 48 119.155 48.2584 118.958 48.6735L117.791 51.1356C117.755 51.2116 117.686 51.2648 117.604 51.2771L114.996 51.6723C114.555 51.7388 114.195 52.0541 114.058 52.4949C113.92 52.9356 114.033 53.4106 114.352 53.7345L116.239 55.6504C116.298 55.7103 116.325 55.7958 116.311 55.8803L115.866 58.5856C115.79 59.0425 115.968 59.4956 116.328 59.7682C116.531 59.9221 116.769 60 117.009 60C117.194 60 117.38 59.9535 117.551 59.8594L119.885 58.5818C119.957 58.5419 120.044 58.5419 120.117 58.5818L122.451 59.8594C122.845 60.075 123.314 60.0399 123.675 59.7673C124.035 59.4947 124.212 59.0416 124.136 58.5847L123.691 55.8794C123.677 55.7948 123.704 55.7093 123.763 55.6495L125.648 53.7345Z" fill="#EDCA71"/>
<path d="M107.929 52.1667L107.93 52.1667C108.172 52.2033 108.382 52.3775 108.465 52.6441C108.549 52.9123 108.479 53.1939 108.292 53.3835L108.292 53.3837L106.408 55.2975C106.408 55.2978 106.408 55.2981 106.407 55.2984C106.232 55.4756 106.159 55.7228 106.198 55.9593L106.198 55.9606L106.643 58.6659L106.643 58.6664C106.689 58.9455 106.581 59.2114 106.373 59.3685C106.169 59.5231 105.912 59.5414 105.691 59.4208L103.357 58.1432L103.357 58.1431C103.136 58.0222 102.868 58.0206 102.644 58.1437C102.644 58.1439 102.644 58.1441 102.643 58.1443L100.311 59.4208L100.311 59.421C100.213 59.4749 100.109 59.5 100.009 59.5C99.8791 59.5 99.7468 59.4581 99.6297 59.3696C99.4221 59.212 99.3133 58.9457 99.3594 58.6674L99.3595 58.6668L99.8048 55.9615L99.805 55.9602C99.8439 55.7198 99.7667 55.475 99.5972 55.3012L99.5972 55.3012L99.5955 55.2995L97.7081 53.384C97.708 53.3839 97.708 53.3839 97.7079 53.3838C97.5211 53.1936 97.4513 52.9116 97.5349 52.6441C97.6183 52.3775 97.8274 52.2033 98.0703 52.1667L98.0706 52.1666L100.679 51.7715L100.68 51.7714C100.933 51.7328 101.138 51.5684 101.242 51.3521L101.243 51.3497L102.41 48.8879C102.528 48.6396 102.756 48.5 102.999 48.5C103.244 48.5 103.472 48.6399 103.59 48.8877C103.59 48.8878 103.59 48.8879 103.59 48.8879L104.755 51.3476C104.755 51.348 104.755 51.3484 104.755 51.3488C104.86 51.5714 105.069 51.7334 105.319 51.7714L105.32 51.7715L107.929 52.1667Z" fill="#EDCA71" stroke="#EDCA71"/>
<path d="M141.936 53.0324L141.936 53.033L140.053 54.9456C140.052 54.9461 140.052 54.9467 140.051 54.9472C139.76 55.2418 139.641 55.6507 139.704 56.0392L139.704 56.0418L140.15 58.7471L140.15 58.7482C140.167 58.8495 140.127 58.9281 140.071 58.9697C140.043 58.9913 140.019 58.9979 140.001 58.9993C139.983 59.0006 139.96 58.9977 139.931 58.9822C139.931 58.9822 139.931 58.9821 139.931 58.9821L137.597 57.7046L137.597 57.7043C137.228 57.5027 136.779 57.4992 136.404 57.7052C136.403 57.7058 136.402 57.7063 136.401 57.7069L134.071 58.9822L134.071 58.9825C134.046 58.9963 134.025 59 134.009 59C133.989 59 133.962 58.9941 133.932 58.971C133.876 58.9284 133.836 58.8489 133.853 58.7491L133.853 58.748L134.298 56.0427L134.299 56.0401C134.363 55.6439 134.236 55.2397 133.955 54.952L133.955 54.952L133.952 54.9486L132.065 53.0335C132.065 53.0334 132.064 53.0333 132.064 53.0332C132.009 52.9767 131.983 52.8876 132.012 52.7933C132.027 52.7454 132.051 52.7142 132.072 52.6951C132.094 52.6762 132.118 52.6652 132.145 52.6611L132.145 52.661L134.754 52.2659L134.755 52.2658C135.181 52.2009 135.521 51.9252 135.693 51.5685L135.693 51.5685L135.695 51.5639L136.862 49.1024C136.862 49.1023 136.862 49.1022 136.862 49.1021C136.882 49.0592 136.908 49.0343 136.929 49.0206C136.95 49.0071 136.973 49 136.999 49C137.026 49 137.049 49.0072 137.071 49.0209C137.092 49.0349 137.118 49.0598 137.138 49.1021C137.138 49.1022 137.138 49.1023 137.138 49.1024L138.303 51.5624C138.477 51.9313 138.825 52.202 139.244 52.2658L139.245 52.2659L141.854 52.661L141.855 52.6611C141.882 52.6652 141.906 52.6762 141.927 52.6951C141.949 52.7142 141.973 52.7454 141.988 52.7933L142.942 52.4949L141.988 52.7933C142.018 52.889 141.991 52.9773 141.936 53.0324Z" stroke="#EDCA71" stroke-width="2"/>
<path d="M158.936 53.0324L158.936 53.033L157.053 54.9456C157.052 54.9461 157.052 54.9467 157.051 54.9472C156.76 55.2418 156.641 55.6507 156.704 56.0392L156.704 56.0418L157.15 58.7471L157.15 58.7482C157.167 58.8495 157.127 58.9281 157.071 58.9697C157.043 58.9913 157.019 58.9979 157.001 58.9993C156.983 59.0006 156.96 58.9977 156.931 58.9822C156.931 58.9822 156.931 58.9821 156.931 58.9821L154.597 57.7046L154.597 57.7043C154.228 57.5027 153.779 57.4992 153.404 57.7052C153.403 57.7058 153.402 57.7063 153.401 57.7069L151.071 58.9822L151.071 58.9825C151.046 58.9963 151.025 59 151.009 59C150.989 59 150.962 58.9941 150.932 58.971C150.876 58.9284 150.836 58.8489 150.853 58.7491L150.853 58.748L151.298 56.0427L151.299 56.0401C151.363 55.6439 151.236 55.2397 150.955 54.952L150.955 54.952L150.952 54.9486L149.065 53.0335C149.065 53.0334 149.064 53.0333 149.064 53.0332C149.009 52.9767 148.983 52.8876 149.012 52.7933C149.027 52.7454 149.051 52.7142 149.072 52.6951C149.094 52.6762 149.118 52.6652 149.145 52.6611L149.145 52.661L151.754 52.2659L151.755 52.2658C152.181 52.2009 152.521 51.9252 152.693 51.5685L152.693 51.5685L152.695 51.5639L153.862 49.1024C153.862 49.1023 153.862 49.1022 153.862 49.1021C153.882 49.0592 153.908 49.0343 153.929 49.0206C153.95 49.0071 153.973 49 153.999 49C154.026 49 154.049 49.0072 154.071 49.0209C154.092 49.0349 154.118 49.0598 154.138 49.1021C154.138 49.1022 154.138 49.1023 154.138 49.1024L155.303 51.5624C155.477 51.9313 155.825 52.202 156.244 52.2658L156.245 52.2659L158.854 52.661L158.855 52.6611C158.882 52.6652 158.906 52.6762 158.927 52.6951C158.949 52.7142 158.973 52.7454 158.988 52.7933L159.942 52.4949L158.988 52.7933C159.018 52.889 158.991 52.9773 158.936 53.0324Z" stroke="#EDCA71" stroke-width="2"/>
</svg>
