<svg width="50" height="50" viewBox="0 0 50 50" fill="none" xmlns="http://www.w3.org/2000/svg">
<path fill-rule="evenodd" clip-rule="evenodd" d="M5.9082 28.9607V24.9995L27.0016 3.90608C34.7497 4.53749 40.4184 7.97163 44.0736 14.1195V34.5754L5.90827 45.4553V35.8309C6.00974 35.8399 6.11243 35.8445 6.21614 35.8445C8.11955 35.8445 9.66487 34.2992 9.66487 32.3958C9.66487 30.4924 8.11955 28.9471 6.21614 28.9471C6.11243 28.9471 6.00974 28.9517 5.90827 28.9607H5.9082Z" fill="#FFE263"/>
<path fill-rule="evenodd" clip-rule="evenodd" d="M5.9082 29.9734V24.9913L44.0735 14.1113V34.5672L5.9082 45.4471V35.8268C6.43733 36.1576 7.06262 36.3488 7.73224 36.3488C9.63563 36.3488 11.1809 34.8035 11.1809 32.9001C11.1809 30.9967 9.63563 29.4514 7.73224 29.4514C7.06262 29.4514 6.43733 29.6427 5.9082 29.9734Z" fill="#FFB720"/>
<path d="M25.6289 32.2394C27.5335 32.2394 29.0776 30.6954 29.0776 28.7907C29.0776 26.886 27.5335 25.342 25.6289 25.342C23.7242 25.342 22.1802 26.886 22.1802 28.7907C22.1802 30.6954 23.7242 32.2394 25.6289 32.2394Z" fill="#FFE263"/>
<path d="M14.3858 28.7958C15.117 28.7958 15.7099 28.203 15.7099 27.4717C15.7099 26.7404 15.117 26.1476 14.3858 26.1476C13.6545 26.1476 13.0616 26.7404 13.0616 27.4717C13.0616 28.203 13.6545 28.7958 14.3858 28.7958Z" fill="#FFE263"/>
<path d="M18.9559 40.1335C20.1821 40.1335 21.1761 39.1395 21.1761 37.9134C21.1761 36.6872 20.1821 35.6932 18.9559 35.6932C17.7297 35.6932 16.7357 36.6872 16.7357 37.9134C16.7357 39.1395 17.7297 40.1335 18.9559 40.1335Z" fill="#FFE263"/>
<path d="M7.95253 44.2009C8.68382 44.2009 9.27665 43.6081 9.27665 42.8768C9.27665 42.1455 8.68382 41.5527 7.95253 41.5527C7.22124 41.5527 6.62842 42.1455 6.62842 42.8768C6.62842 43.6081 7.22124 44.2009 7.95253 44.2009Z" fill="#FFE263"/>
<path d="M39.0935 34.0219C40.5332 34.0219 41.7003 32.8548 41.7003 31.4152C41.7003 29.9755 40.5332 28.8084 39.0935 28.8084C37.6539 28.8084 36.4868 29.9755 36.4868 31.4152C36.4868 32.8548 37.6539 34.0219 39.0935 34.0219Z" fill="#FFE263"/>
<path d="M36.9497 26.1454C38.8503 26.1454 40.391 24.6047 40.391 22.7042C40.391 20.8036 38.8503 19.2629 36.9497 19.2629C35.0491 19.2629 33.5084 20.8036 33.5084 22.7042C33.5084 24.6047 35.0491 26.1454 36.9497 26.1454Z" fill="#FFE263"/>
<path d="M27.7525 10.9245C28.4837 10.9245 29.0766 10.3317 29.0766 9.60043C29.0766 8.86915 28.4837 8.27632 27.7525 8.27632C27.0212 8.27632 26.4283 8.86915 26.4283 9.60043C26.4283 10.3317 27.0212 10.9245 27.7525 10.9245Z" fill="#FFB720"/>
<path d="M36.5584 13.2784C37.7846 13.2784 38.7786 12.2843 38.7786 11.0582C38.7786 9.83201 37.7846 8.838 36.5584 8.838C35.3323 8.838 34.3383 9.83201 34.3383 11.0582C34.3383 12.2843 35.3323 13.2784 36.5584 13.2784Z" fill="#FFB720"/>
<path d="M19.3709 18.991C20.5971 18.991 21.5911 17.997 21.5911 16.7709C21.5911 15.5447 20.5971 14.5507 19.3709 14.5507C18.1448 14.5507 17.1508 15.5447 17.1508 16.7709C17.1508 17.997 18.1448 18.991 19.3709 18.991Z" fill="#FFB720"/>
</svg>
