<svg width="1180" height="208" viewBox="0 0 1180 208" fill="none" xmlns="http://www.w3.org/2000/svg">
<rect width="69.5859" height="69.3332" rx="5" fill="#333333"/>
<rect x="139.172" y="1.52588e-05" width="69.5859" height="69.3332" rx="5" fill="#333333"/>
<rect x="208.757" y="1.52588e-05" width="68.1053" height="69.3332" rx="5" fill="#333333"/>
<rect x="276.864" y="1.52588e-05" width="69.5859" height="69.3332" rx="5" fill="#333333"/>
<rect x="416.035" y="1.52588e-05" width="69.5859" height="69.3332" rx="5" fill="#333333"/>
<rect x="485.621" y="1.52588e-05" width="69.5859" height="69.3332" rx="5" fill="#333333"/>
<rect x="555.207" y="1.52588e-05" width="69.5859" height="69.3332" rx="5" fill="#333333"/>
<rect x="694.38" y="1.52588e-05" width="69.5859" height="69.3332" rx="5" fill="#333333"/>
<rect x="763.965" y="1.52588e-05" width="68.1053" height="69.3332" rx="5" fill="#333333"/>
<rect x="832.069" y="1.52588e-05" width="69.5859" height="69.3332" rx="5" fill="#333333"/>
<rect x="971.241" y="1.52588e-05" width="69.5859" height="69.3332" rx="5" fill="#333333"/>
<rect x="1040.83" y="1.52588e-05" width="69.5859" height="69.3332" rx="5" fill="#333333"/>
<rect x="1110.41" y="1.52588e-05" width="69.5859" height="69.3332" rx="5" fill="#333333"/>
<rect y="69.3334" width="69.5859" height="69.3332" rx="5" fill="#333333"/>
<rect x="139.172" y="69.3334" width="69.5859" height="69.3332" rx="5" fill="#333333"/>
<rect x="276.864" y="69.3334" width="69.5859" height="69.3332" rx="5" fill="#333333"/>
<rect x="416.035" y="69.3334" width="69.5859" height="69.3332" rx="5" fill="#333333"/>
<rect x="555.207" y="69.3334" width="69.5859" height="69.3332" rx="5" fill="#333333"/>
<rect x="694.38" y="69.3334" width="69.5859" height="69.3332" rx="5" fill="#333333"/>
<rect x="832.069" y="69.3334" width="69.5859" height="69.3332" rx="5" fill="#333333"/>
<rect x="971.241" y="69.3334" width="69.5859" height="69.3332" rx="5" fill="#333333"/>
<rect y="138.667" width="69.5859" height="69.3332" rx="5" fill="#333333"/>
<rect x="69.5867" y="138.667" width="69.5859" height="69.3332" rx="5" fill="#333333"/>
<rect x="139.172" y="138.667" width="69.5859" height="69.3332" rx="5" fill="#333333"/>
<rect x="276.864" y="138.667" width="69.5859" height="69.3332" rx="5" fill="#333333"/>
<rect x="346.449" y="138.667" width="69.5859" height="69.3332" rx="5" fill="#333333"/>
<rect x="416.035" y="138.667" width="69.5859" height="69.3332" rx="5" fill="#333333"/>
<rect x="555.207" y="138.667" width="69.5859" height="69.3332" rx="5" fill="#333333"/>
<rect x="624.792" y="138.667" width="69.5859" height="69.3332" rx="5" fill="#333333"/>
<rect x="694.38" y="138.667" width="69.5859" height="69.3332" rx="5" fill="#333333"/>
<rect x="832.069" y="138.667" width="69.5859" height="69.3332" rx="5" fill="#333333"/>
<rect x="901.657" y="138.667" width="69.5859" height="69.3332" rx="5" fill="#333333"/>
<rect x="971.241" y="138.667" width="69.5859" height="69.3332" rx="5" fill="#333333"/>
</svg>
