<svg width="80" height="84" viewBox="0 0 80 84" fill="none" xmlns="http://www.w3.org/2000/svg">
<g filter="url(#filter0_d_3017_99776)">
<rect width="80" height="80" rx="15" fill="white"/>
<path fill-rule="evenodd" clip-rule="evenodd" d="M16.2335 44.1534L32.2196 54.8108C35.5424 57.026 39.9931 54.644 39.9931 50.6505L39.9931 45.8931C40.3162 45.9587 40.6506 45.9931 40.9931 45.9931L60.9931 45.9931C63.7545 45.9931 65.9931 43.7545 65.9931 40.9931L65.9931 38.9931C65.9931 36.2317 63.7545 33.9931 60.9931 33.9931L40.9931 33.9931C40.6506 33.9931 40.3162 34.0275 39.9931 34.0931L39.9931 29.3357C39.9931 25.3422 35.5424 22.9603 32.2196 25.1754L16.2335 35.8329C13.2648 37.812 13.2648 42.1743 16.2335 44.1534Z" fill="#F97D61"/>
</g>
<defs>
<filter id="filter0_d_3017_99776" x="0" y="0" width="80" height="84" filterUnits="userSpaceOnUse" color-interpolation-filters="sRGB">
<feFlood flood-opacity="0" result="BackgroundImageFix"/>
<feColorMatrix in="SourceAlpha" type="matrix" values="0 0 0 0 0 0 0 0 0 0 0 0 0 0 0 0 0 0 127 0" result="hardAlpha"/>
<feOffset dy="4"/>
<feColorMatrix type="matrix" values="0 0 0 0 0 0 0 0 0 0 0 0 0 0 0 0 0 0 0.25 0"/>
<feBlend mode="normal" in2="BackgroundImageFix" result="effect1_dropShadow_3017_99776"/>
<feBlend mode="normal" in="SourceGraphic" in2="effect1_dropShadow_3017_99776" result="shape"/>
</filter>
</defs>
</svg>
