<svg width="20" height="20" viewBox="0 0 20 20" fill="none" xmlns="http://www.w3.org/2000/svg">
<rect x="2" y="2" width="16" height="16" fill="#828282"/>
<rect x="3" y="3" width="6" height="6" fill="#F2F2F2"/>
<rect x="3" y="11" width="6" height="6" fill="#F2F2F2"/>
<rect x="11" y="3" width="6" height="6" fill="#F2F2F2"/>
<rect x="11" y="11" width="6" height="6" fill="#F2F2F2"/>
<rect x="4" y="5" width="1" height="1" fill="#BCB66F"/>
<rect x="6.00012" y="5" width="1" height="1" fill="#71A8FE"/>
<rect x="4.99988" y="5" width="1" height="1" fill="#C9C485"/>
<rect x="4" y="6.00006" width="1" height="1" fill="#588AB6"/>
<rect x="4.99988" y="6.00006" width="1" height="1" fill="#4B7CA7"/>
<rect x="6.00012" y="6.00006" width="1" height="1" fill="#588AB6"/>
<rect x="4" y="7" width="1" height="1" fill="#6C4FA6"/>
<rect x="4.99988" y="7" width="1" height="1" fill="#6A99CA"/>
<rect x="6.00012" y="7" width="1" height="1" fill="#6E4AA5"/>
<rect x="7.00012" y="4" width="1" height="1" fill="#81A8F1"/>
<rect x="6.00012" y="4" width="1" height="1" fill="#71A8FE"/>
<rect x="4.99988" y="4" width="1" height="1" fill="#71A8FE"/>
<rect x="4" y="4" width="1" height="1" fill="#71A8FE"/>
<rect x="7.00012" y="5" width="1" height="1" fill="#B89E83"/>
<rect x="7.00012" y="6.00006" width="1" height="1" fill="#C7BF62"/>
<rect x="7.00012" y="7" width="1" height="1" fill="#ACBAA9"/>
<rect x="4" y="12" width="0.99999" height="1" fill="#A0546C"/>
<rect x="5.00024" y="12" width="0.99999" height="1" fill="#4A1616"/>
<rect x="6.00012" y="12" width="0.99999" height="1" fill="#82363F"/>
<rect x="7.00012" y="12" width="0.99999" height="1" fill="#71A8FE"/>
<rect x="4" y="12.9999" width="0.99999" height="1" fill="#B2871E"/>
<rect x="5.00024" y="12.9999" width="0.99999" height="1" fill="#846C17"/>
<rect x="6.00012" y="12.9999" width="0.99999" height="1" fill="#BD8D22"/>
<rect x="7.00012" y="12.9999" width="0.99999" height="1" fill="#D99B39"/>
<rect x="4" y="14.0001" width="0.99999" height="1" fill="#A3941A"/>
<rect x="5.00024" y="14.0001" width="0.99999" height="1" fill="#B5AC12"/>
<rect x="6.00012" y="14.0001" width="0.99999" height="1" fill="#BCAB1B"/>
<rect x="7.00012" y="14.0001" width="0.99999" height="1" fill="#68672C"/>
<rect x="4" y="15" width="0.99999" height="1" fill="#BE9D1A"/>
<rect x="5.00024" y="15" width="0.99999" height="1" fill="#988F12"/>
<rect x="6.00012" y="15" width="0.99999" height="1" fill="#886D1A"/>
<rect x="7.00012" y="15" width="0.99999" height="1" fill="#C0B75B"/>
<rect x="12" y="4" width="0.999979" height="1" fill="#588AB6"/>
<rect x="12.9998" y="4" width="0.999979" height="1" fill="#4B7CA7"/>
<rect x="14.0001" y="4" width="0.999979" height="1" fill="#588AB6"/>
<rect x="12" y="4.99994" width="0.999979" height="1" fill="#6C4FA6"/>
<rect x="12.9998" y="4.99994" width="0.999979" height="1" fill="#6A99CA"/>
<rect x="14.0001" y="4.99994" width="0.999979" height="1" fill="#6E4AA5"/>
<rect x="12" y="6.00006" width="0.999979" height="1" fill="#AB2E53"/>
<rect x="12.9998" y="6.00006" width="0.999979" height="1" fill="#703791"/>
<rect x="14.0001" y="6.00006" width="0.999979" height="1" fill="#AB2E53"/>
<rect x="12" y="7" width="0.999979" height="1" fill="#E25527"/>
<rect x="12.9998" y="7" width="0.999979" height="1" fill="#CE4237"/>
<rect x="14.0001" y="7" width="0.999979" height="1" fill="#E45B26"/>
<rect x="15.0001" y="4" width="0.999979" height="1" fill="#C7BF62"/>
<rect x="15.0001" y="4.99994" width="0.999979" height="1" fill="#ACBAA9"/>
<rect x="15.0001" y="6.00006" width="0.999979" height="1" fill="#74BBD0"/>
<rect x="15.0001" y="7" width="0.999979" height="1" fill="#008240"/>
<rect x="12" y="12" width="0.999979" height="1" fill="#A3941A"/>
<rect x="13.0002" y="12" width="0.999979" height="1" fill="#B5AC12"/>
<rect x="14.0001" y="12" width="0.999979" height="1" fill="#BCAB1B"/>
<rect x="15.0001" y="12" width="0.999979" height="1" fill="#68672C"/>
<rect x="12" y="13" width="0.999979" height="1" fill="#BE9D1A"/>
<rect x="13.0002" y="13" width="0.999979" height="1" fill="#988F12"/>
<rect x="14.0001" y="13" width="0.999979" height="1" fill="#886D1A"/>
<rect x="15.0001" y="13" width="0.999979" height="1" fill="#C0B75B"/>
<rect x="12" y="14" width="0.999979" height="1" fill="#92A44B"/>
<rect x="13.0002" y="14" width="0.999979" height="1" fill="#9F910A"/>
<rect x="14.0001" y="14" width="0.999979" height="1" fill="#B3A915"/>
<rect x="15.0001" y="14" width="0.999979" height="1" fill="#7ABBB1"/>
<rect x="12" y="15" width="0.999979" height="1" fill="#008240"/>
<rect x="13.0002" y="15" width="0.999979" height="1" fill="#18361E"/>
<rect x="14.0001" y="15" width="0.999979" height="1" fill="#206F3A"/>
<rect x="15.0001" y="15" width="0.999979" height="1" fill="#008240"/>
</svg>
