<svg width="20" height="20" viewBox="0 0 20 20" fill="none" xmlns="http://www.w3.org/2000/svg">
<rect x="1" y="1" width="6" height="18" fill="#828282"/>
<rect x="7" y="3" width="2" height="1" fill="#828282"/>
<rect x="7" y="9" width="2" height="1" fill="#828282"/>
<rect x="7" y="15" width="2" height="1" fill="#828282"/>
<rect x="2" y="2" width="4" height="4" fill="#F2F2F2"/>
<rect x="3" y="3" width="1" height="1" fill="#219653"/>
<rect x="4" y="3" width="1" height="1" fill="#27AE60"/>
<rect x="3" y="4" width="1" height="1" fill="#6FCF97"/>
<rect x="4" y="4" width="1" height="1" fill="#69E485"/>
<rect x="2" y="14" width="4" height="4" fill="#F2F2F2"/>
<rect x="3" y="15" width="1" height="1" fill="#EB5757"/>
<rect x="4" y="15" width="1" height="1" fill="#F2C94C"/>
<rect x="3" y="16" width="1" height="1" fill="#F2994A"/>
<rect x="4" y="16" width="1" height="1" fill="#F97D61"/>
<rect x="2" y="8" width="4" height="4" fill="#F2F2F2"/>
<rect x="3" y="9" width="1" height="1" fill="#2F80ED"/>
<rect x="4" y="9" width="1" height="1" fill="#2D9CDB"/>
<rect x="3" y="10" width="1" height="1" fill="#56CCF2"/>
<rect x="4" y="10" width="1" height="1" fill="#3FDFE9"/>
<rect x="11" y="1" width="6" height="18" fill="#828282"/>
<rect x="17" y="3" width="2" height="1" fill="#828282"/>
<rect x="17" y="9" width="2" height="1" fill="#828282"/>
<rect x="17" y="15" width="2" height="1" fill="#828282"/>
<rect x="12" y="8" width="4" height="4" fill="#F2F2F2"/>
<rect x="13" y="9" width="1" height="1" fill="#219653"/>
<rect x="14" y="9" width="1" height="1" fill="#27AE60"/>
<rect x="13" y="10" width="1" height="1" fill="#6FCF97"/>
<rect x="14" y="10" width="1" height="1" fill="#69E485"/>
<rect x="12" y="2" width="4" height="4" fill="#F2F2F2"/>
<rect x="13" y="3" width="1" height="1" fill="#EB5757"/>
<rect x="14" y="3" width="1" height="1" fill="#F2C94C"/>
<rect x="13" y="4" width="1" height="1" fill="#F2994A"/>
<rect x="14" y="4" width="1" height="1" fill="#F97D61"/>
<rect x="12" y="14" width="4" height="4" fill="#F2F2F2"/>
<rect x="13" y="15" width="1" height="1" fill="#2F80ED"/>
<rect x="14" y="15" width="1" height="1" fill="#2D9CDB"/>
<rect x="13" y="16" width="1" height="1" fill="#56CCF2"/>
<rect x="14" y="16" width="1" height="1" fill="#3FDFE9"/>
</svg>
