<svg width="8" height="6" viewBox="0 0 8 6" fill="none" xmlns="http://www.w3.org/2000/svg">
<rect y="1" width="1" height="1" fill="#BCB66F"/>
<rect x="2" y="1" width="1" height="1" fill="#71A8FE"/>
<rect x="1" y="1" width="1" height="1" fill="#C9C485"/>
<rect y="2" width="1" height="1" fill="#588AB6"/>
<rect x="1" y="2" width="1" height="1" fill="#4B7CA7"/>
<rect x="2" y="2" width="1" height="1" fill="#588AB6"/>
<rect y="3" width="1" height="1" fill="#6C4FA6"/>
<rect x="1" y="3" width="1" height="1" fill="#6A99CA"/>
<rect x="2" y="3" width="1" height="1" fill="#6E4AA5"/>
<rect y="4" width="1" height="1" fill="#AB2E53"/>
<rect x="1" y="4" width="1" height="1" fill="#703791"/>
<rect x="2" y="4" width="1" height="1" fill="#AB2E53"/>
<rect y="5" width="1" height="1" fill="#E25527"/>
<rect x="1" y="5" width="1" height="1" fill="#CE4237"/>
<rect x="2" y="5" width="1" height="1" fill="#E45B26"/>
<rect x="3" width="1" height="1" fill="#81A8F1"/>
<rect x="2" width="1" height="1" fill="#71A8FE"/>
<rect x="1" width="1" height="1" fill="#71A8FE"/>
<rect width="1" height="1" fill="#71A8FE"/>
<rect x="4" width="1" height="1" fill="#A0546C"/>
<rect x="5" width="1" height="1" fill="#4A1616"/>
<rect x="6" width="1" height="1" fill="#82363F"/>
<rect x="7" width="1" height="1" fill="#71A8FE"/>
<rect x="3" y="1" width="1" height="1" fill="#B89E83"/>
<rect x="4" y="1" width="1" height="1" fill="#B2871E"/>
<rect x="5" y="1" width="1" height="1" fill="#846C17"/>
<rect x="6" y="1" width="1" height="1" fill="#BD8D22"/>
<rect x="7" y="1" width="1" height="1" fill="#D99B39"/>
<rect x="3" y="2" width="1" height="1" fill="#C7BF62"/>
<rect x="4" y="2" width="1" height="1" fill="#A3941A"/>
<rect x="5" y="2" width="1" height="1" fill="#B5AC12"/>
<rect x="6" y="2" width="1" height="1" fill="#BCAB1B"/>
<rect x="7" y="2" width="1" height="1" fill="#68672C"/>
<rect x="3" y="3" width="1" height="1" fill="#ACBAA9"/>
<rect x="4" y="3" width="1" height="1" fill="#BE9D1A"/>
<rect x="5" y="3" width="1" height="1" fill="#988F12"/>
<rect x="6" y="3" width="1" height="1" fill="#886D1A"/>
<rect x="7" y="3" width="1" height="1" fill="#C0B75B"/>
<rect x="3" y="4" width="1" height="1" fill="#74BBD0"/>
<rect x="4" y="4" width="1" height="1" fill="#92A44B"/>
<rect x="5" y="4" width="1" height="1" fill="#9F910A"/>
<rect x="6" y="4" width="1" height="1" fill="#B3A915"/>
<rect x="7" y="4" width="1" height="1" fill="#7ABBB1"/>
<rect x="3" y="5" width="1" height="1" fill="#008240"/>
<rect x="4" y="5" width="1" height="1" fill="#008240"/>
<rect x="5" y="5" width="1" height="1" fill="#18361E"/>
<rect x="6" y="5" width="1" height="1" fill="#206F3A"/>
<rect x="7" y="5" width="1" height="1" fill="#008240"/>
</svg>
