<svg width="20" height="20" viewBox="0 0 20 20" fill="none" xmlns="http://www.w3.org/2000/svg">
<rect width="12" height="20" fill="#828282"/>
<rect x="1" y="1" width="10" height="18" fill="#E0E0E0"/>
<rect x="2" y="2" width="8" height="7" fill="#F2F2F2"/>
<rect x="3" y="3" width="1" height="1" fill="#70A7FE"/>
<rect x="4" y="3" width="1" height="1" fill="#80B0FE"/>
<rect x="5" y="3" width="1" height="1" fill="#69A2FE"/>
<rect x="6" y="3" width="1" height="1" fill="#69A2FE"/>
<rect x="7" y="3" width="1" height="1" fill="#69A2FE"/>
<rect x="8" y="3" width="1" height="1" fill="#69A2FE"/>
<rect x="3" y="4" width="1" height="1" fill="#ACCDDE"/>
<rect x="4" y="4" width="1" height="1" fill="#C5E4F7"/>
<rect x="5" y="4" width="1" height="1" fill="#C3E0FF"/>
<rect x="6" y="4" width="1" height="1" fill="#AFD1FE"/>
<rect x="7" y="4" width="1" height="1" fill="#AFD1FE"/>
<rect x="8" y="4" width="1" height="1" fill="#BBD9FF"/>
<rect x="3" y="5" width="1" height="1" fill="#4A715C"/>
<rect x="4" y="5" width="1" height="1" fill="#58816C"/>
<rect x="5" y="5" width="1" height="1" fill="#58816C"/>
<rect x="6" y="5" width="1" height="1" fill="#8AACA5"/>
<rect x="7" y="5" width="1" height="1" fill="#B1CFDB"/>
<rect x="8" y="5" width="1" height="1" fill="#C3DEF7"/>
<rect x="3" y="6" width="1" height="1" fill="#31525D"/>
<rect x="4" y="6" width="1" height="1" fill="#395B60"/>
<rect x="5" y="6" width="1" height="1" fill="#587775"/>
<rect x="6" y="6" width="1" height="1" fill="#587775"/>
<rect x="7" y="6" width="1" height="1" fill="#73918B"/>
<rect x="8" y="6" width="1" height="1" fill="#84A299"/>
<rect x="3" y="7" width="1" height="1" fill="#223B43"/>
<rect x="4" y="7" width="1" height="1" fill="#2A494E"/>
<rect x="5" y="7" width="1" height="1" fill="#39504E"/>
<rect x="6" y="7" width="1" height="1" fill="#406260"/>
<rect x="7" y="7" width="1" height="1" fill="#526864"/>
<rect x="8" y="7" width="1" height="1" fill="#648178"/>
<rect x="2" y="11" width="8" height="7" fill="#F2F2F2"/>
<rect x="3" y="12" width="1" height="1" fill="#CF8E51"/>
<rect x="4" y="12" width="1" height="1" fill="#C67849"/>
<rect x="5" y="12" width="1" height="1" fill="#ABD6D5"/>
<rect x="6" y="12" width="1" height="1" fill="#C0E2FA"/>
<rect x="7" y="12" width="1" height="1" fill="#C9E0FA"/>
<rect x="8" y="12" width="1" height="1" fill="#C3E0FF"/>
<rect x="3" y="13" width="1" height="1" fill="#DA6927"/>
<rect x="4" y="13" width="1" height="1" fill="#AA7933"/>
<rect x="5" y="13" width="1" height="1" fill="#8EB369"/>
<rect x="6" y="13" width="1" height="1" fill="#87B65D"/>
<rect x="7" y="13" width="1" height="1" fill="#BEC3C6"/>
<rect x="8" y="13" width="1" height="1" fill="#8C8FDA"/>
<rect x="3" y="14" width="1" height="1" fill="#D5E090"/>
<rect x="4" y="14" width="1" height="1" fill="#87B65D"/>
<rect x="5" y="14" width="1" height="1" fill="#7BA65A"/>
<rect x="6" y="14" width="1" height="1" fill="#8CB964"/>
<rect x="7" y="14" width="1" height="1" fill="#ACBF83"/>
<rect x="8" y="14" width="1" height="1" fill="#AFB3BB"/>
<rect x="3" y="15" width="1" height="1" fill="#BFD57E"/>
<rect x="4" y="15" width="1" height="1" fill="#8CB964"/>
<rect x="5" y="15" width="1" height="1" fill="#D5E090"/>
<rect x="6" y="15" width="1" height="1" fill="#7BA65A"/>
<rect x="7" y="15" width="1" height="1" fill="#ACBF83"/>
<rect x="8" y="15" width="1" height="1" fill="#AFB3BB"/>
<rect x="3" y="16" width="1" height="1" fill="#7BA65A"/>
<rect x="4" y="16" width="1" height="1" fill="#D5E090"/>
<rect x="5" y="16" width="1" height="1" fill="#87B65D"/>
<rect x="6" y="16" width="1" height="1" fill="#8CB964"/>
<rect x="7" y="16" width="1" height="1" fill="#7BA65A"/>
<rect x="8" y="16" width="1" height="1" fill="#EBEFA3"/>
<rect x="13" y="3" width="7" height="1" fill="#828282"/>
<rect x="13" y="12" width="7" height="1" fill="#828282"/>
<rect x="13" y="5" width="4" height="1" fill="#828282"/>
<rect x="13" y="14" width="4" height="1" fill="#828282"/>
<rect x="13" y="7" width="5" height="1" fill="#828282"/>
<rect x="13" y="16" width="5" height="1" fill="#828282"/>
</svg>
