<svg width="20" height="20" viewBox="0 0 20 20" fill="none" xmlns="http://www.w3.org/2000/svg">
<rect width="20" height="20" fill="#828282"/>
<rect x="1" y="3" width="18" height="14" fill="#F2F2F2"/>
<rect x="2" y="6" width="2" height="2" fill="#BCB66F"/>
<rect x="6" y="6" width="2" height="2" fill="#71A8FE"/>
<rect x="4" y="6" width="2" height="2" fill="#C9C485"/>
<rect x="2" y="8" width="2" height="2" fill="#588AB6"/>
<rect x="4" y="8" width="2" height="2" fill="#4B7CA7"/>
<rect x="6" y="8" width="2" height="2" fill="#588AB6"/>
<rect x="2" y="10" width="2" height="2" fill="#6C4FA6"/>
<rect x="4" y="10" width="2" height="2" fill="#6A99CA"/>
<rect x="6" y="10" width="2" height="2" fill="#6E4AA5"/>
<rect x="2" y="12" width="2" height="2" fill="#AB2E53"/>
<rect x="4" y="12" width="2" height="2" fill="#703791"/>
<rect x="6" y="12" width="2" height="2" fill="#AB2E53"/>
<rect x="2" y="14" width="2" height="2" fill="#E25527"/>
<rect x="4" y="14" width="2" height="2" fill="#CE4237"/>
<rect x="6" y="14" width="2" height="2" fill="#E45B26"/>
<rect x="8" y="4" width="2" height="2" fill="#81A8F1"/>
<rect x="6" y="4" width="2" height="2" fill="#71A8FE"/>
<rect x="4" y="4" width="2" height="2" fill="#71A8FE"/>
<rect x="2" y="4" width="2" height="2" fill="#71A8FE"/>
<rect x="10" y="4" width="2" height="2" fill="#A0546C"/>
<rect x="12" y="4" width="2" height="2" fill="#4A1616"/>
<rect x="14" y="4" width="2" height="2" fill="#82363F"/>
<rect x="16" y="4" width="2" height="2" fill="#71A8FE"/>
<rect x="8" y="6" width="2" height="2" fill="#B89E83"/>
<rect x="10" y="6" width="2" height="2" fill="#B2871E"/>
<rect x="12" y="6" width="2" height="2" fill="#846C17"/>
<rect x="14" y="6" width="2" height="2" fill="#BD8D22"/>
<rect x="16" y="6" width="2" height="2" fill="#D99B39"/>
<rect x="8" y="8" width="2" height="2" fill="#C7BF62"/>
<rect x="10" y="8" width="2" height="2" fill="#A3941A"/>
<rect x="12" y="8" width="2" height="2" fill="#B5AC12"/>
<rect x="14" y="8" width="2" height="2" fill="#BCAB1B"/>
<rect x="16" y="8" width="2" height="2" fill="#68672C"/>
<rect x="8" y="10" width="2" height="2" fill="#ACBAA9"/>
<rect x="10" y="10" width="2" height="2" fill="#BE9D1A"/>
<rect x="12" y="10" width="2" height="2" fill="#988F12"/>
<rect x="14" y="10" width="2" height="2" fill="#886D1A"/>
<rect x="16" y="10" width="2" height="2" fill="#C0B75B"/>
<rect x="8" y="12" width="2" height="2" fill="#74BBD0"/>
<rect x="10" y="12" width="2" height="2" fill="#92A44B"/>
<rect x="12" y="12" width="2" height="2" fill="#9F910A"/>
<rect x="14" y="12" width="2" height="2" fill="#B3A915"/>
<rect x="16" y="12" width="2" height="2" fill="#7ABBB1"/>
<rect x="8" y="14" width="2" height="2" fill="#008240"/>
<rect x="10" y="14" width="2" height="2" fill="#008240"/>
<rect x="12" y="14" width="2" height="2" fill="#18361E"/>
<rect x="14" y="14" width="2" height="2" fill="#206F3A"/>
<rect x="16" y="14" width="2" height="2" fill="#008240"/>
</svg>
