<svg width="20" height="20" viewBox="0 0 20 20" fill="none" xmlns="http://www.w3.org/2000/svg">
<rect x="1" y="1" width="7" height="18" fill="#828282"/>
<rect x="10" y="2" width="9" height="1" fill="#828282"/>
<rect x="10" y="8" width="9" height="1" fill="#828282"/>
<rect x="10" y="14" width="9" height="1" fill="#828282"/>
<rect x="10" y="4" width="9" height="1" fill="#006C8E"/>
<rect x="10" y="10" width="9" height="1" fill="#006C8E"/>
<rect x="10" y="16" width="9" height="1" fill="#006C8E"/>
<rect x="2" y="2" width="5" height="4" fill="#F2F2F2"/>
<rect x="3" y="3" width="1" height="1" fill="#219653"/>
<rect x="5" y="3" width="1" height="1" fill="#219653"/>
<rect x="4" y="3" width="1" height="1" fill="#27AE60"/>
<rect x="3" y="4" width="1" height="1" fill="#6FCF97"/>
<rect x="5" y="4" width="1" height="1" fill="#6FCF97"/>
<rect x="4" y="4" width="1" height="1" fill="#69E485"/>
<rect x="2" y="14" width="5" height="4" fill="#F2F2F2"/>
<rect x="3" y="15" width="1" height="1" fill="#EB5757"/>
<rect x="5" y="15" width="1" height="1" fill="#EB5757"/>
<rect x="4" y="15" width="1" height="1" fill="#F2C94C"/>
<rect x="3" y="16" width="1" height="1" fill="#F2994A"/>
<rect x="5" y="16" width="1" height="1" fill="#F2994A"/>
<rect x="4" y="16" width="1" height="1" fill="#F97D61"/>
<rect x="2" y="8" width="5" height="4" fill="#F2F2F2"/>
<rect x="3" y="9" width="1" height="1" fill="#2F80ED"/>
<rect x="5" y="9" width="1" height="1" fill="#2F80ED"/>
<rect x="4" y="9" width="1" height="1" fill="#2D9CDB"/>
<rect x="3" y="10" width="1" height="1" fill="#56CCF2"/>
<rect x="5" y="10" width="1" height="1" fill="#56CCF2"/>
<rect x="4" y="10" width="1" height="1" fill="#3FDFE9"/>
</svg>
