<svg width="31" height="41" viewBox="0 0 31 41" fill="none" xmlns="http://www.w3.org/2000/svg">
<path d="M29.1289 8.45679L25.1211 7.29322L24.7029 8.73374L23.2623 8.31552L22.4012 8.06552L20.9607 7.6473L21.3789 6.20678L17.3711 5.04322L16.9529 6.48373L15.5123 6.06552L14.6512 5.81552L13.2107 5.3973L13.6289 3.95678L9.62107 2.79322L9.20286 4.23373L7.76234 3.81552L6.90123 3.56552L5.46071 3.1473L5.87893 1.70679L1.87108 0.543215L1.5 1.82136V1.95556H1.46104L1.45286 1.98373L1.3558 1.95556H0V6.24444H1.5V7.74444V8.65556V10.1556H0V14.4444H1.5V15.9444V16.8556V18.3556H0V22.6444H1.5V24.1444V25.0556V26.5556H0V30.8444H1.5V32.3444V33.2556V34.7556H0V39.0444H1.5V39.5H2.07407V41H8.25926V39.5H9.75926H10.9074H12.4074V41H18.5926V39.5H20.0926H21.2407H22.7407V41H28.9259V39.5H29.5V39.0556H31V34.9444H29.5V33.4444V32.5556V31.0556H31V26.9444H29.5V25.4444V24.5556V23.0556H31V18.9444H29.5V17.4444V16.5556V15.0556H31V10.9444H29.5V10.1265L28.7107 9.8973L29.1289 8.45679Z" stroke="#828282" stroke-width="3" stroke-miterlimit="16" stroke-linecap="square" stroke-dasharray="1 8"/>
<path d="M0 0H22L31 9L0 41V0Z" fill="#828282"/>
<path d="M2.00027 2H20V11H29V12.5L2.00024 39L2.00027 2Z" fill="#F2F2F2"/>
<path d="M22.077 3.15387L22.0769 9H28L22.077 3.15387Z" fill="#F2F2F2"/>
</svg>
