<svg width="20" height="14" viewBox="0 0 20 14" fill="none" xmlns="http://www.w3.org/2000/svg">
<rect width="20" height="14" fill="#828282"/>
<rect x="13" y="2" width="6" height="11" fill="#56CCF2"/>
<rect x="1" y="2" width="12" height="11" fill="#E0E0E0"/>
<rect x="5" y="2" width="1" height="11" fill="#828282"/>
<rect width="2" height="1" transform="matrix(1 0 0 -1 17 2)" fill="#BDBDBD"/>
<rect width="2" height="1" transform="matrix(1 0 0 -1 13 2)" fill="#BDBDBD"/>
<rect x="14" y="3" width="4" height="9" fill="#2D9CDB"/>
<rect width="4" height="1" transform="matrix(-1 0 0 1 18 4)" fill="#E0E0E0"/>
<rect width="4" height="1" transform="matrix(-1 0 0 1 18 6)" fill="#E0E0E0"/>
<rect width="4" height="1" transform="matrix(-1 0 0 1 18 8)" fill="#E0E0E0"/>
<rect width="4" height="1" transform="matrix(-1 0 0 1 18 10)" fill="#E0E0E0"/>
</svg>
