<svg width="160" height="160" viewBox="0 0 160 160" fill="none" xmlns="http://www.w3.org/2000/svg">
<path d="M25 17.75C25 12.9175 28.9175 9 33.75 9H105L135 39V140.25C135 145.082 131.082 149 126.25 149H33.75C28.9175 149 25 145.082 25 140.25V17.75Z" fill="#F2F2F2"/>
<path d="M105 30.25V9L135 39H113.75C108.918 39 105 35.0825 105 30.25Z" fill="#BDBDBD"/>
<rect x="38.75" y="52.75" width="52.5" height="52.5" rx="5.25" fill="#2C5DAB"/>
<path d="M95.625 61.5H124.5C125.466 61.5 126.25 62.2835 126.25 63.25V63.25C126.25 64.2165 125.466 65 124.5 65H95.625V61.5Z" fill="#50A2D9"/>
<path d="M95.625 72H124.5C125.466 72 126.25 72.7835 126.25 73.75V73.75C126.25 74.7165 125.466 75.5 124.5 75.5H95.625V72Z" fill="#3B7ABE"/>
<path d="M95.625 82.5H124.5C125.466 82.5 126.25 83.2835 126.25 84.25V84.25C126.25 85.2165 125.466 86 124.5 86H95.625V82.5Z" fill="#2C5DAB"/>
<path d="M95.625 93H124.5C125.466 93 126.25 93.7835 126.25 94.75V94.75C126.25 95.7165 125.466 96.5 124.5 96.5H95.625V93Z" fill="#20438E"/>
<path d="M85.0978 66.8125L77.2578 91.3125H68.4028L64.4478 78.2225L60.2828 91.3125H51.4278L43.5878 66.8125H52.0928L56.3628 80.7425L60.8778 66.8125H68.4728L72.7428 80.9175L77.2578 66.8125H85.0978Z" fill="#F2F2F2"/>
</svg>
