<svg width="380" height="380" viewBox="0 0 380 380" fill="none" xmlns="http://www.w3.org/2000/svg">
<g clip-path="url(#clip0_10_2912)">
<rect width="380" height="380" rx="20" fill="#333333"/>
<path d="M170.304 171.559L71.4467 129.191C63.3656 125.728 63.3656 114.272 71.4467 110.809L170.304 68.4411C182.881 63.0508 197.119 63.0508 209.696 68.4411L308.553 110.809C316.634 114.272 316.634 125.728 308.553 129.191L209.696 171.559C197.118 176.949 182.881 176.949 170.304 171.559Z" fill="#EDCA71"/>
<path d="M183.809 126L183.793 119.28L180.497 124.816H179.329L176.049 119.424V126H173.617V114.8H175.761L179.953 121.76L184.081 114.8H186.209L186.241 126H183.809ZM196.178 118.448L190.85 120.4L196.178 122.336V124.336L188.562 121.44V119.36L196.178 116.464V118.448ZM205.436 120.112C205.991 120.389 206.412 120.752 206.7 121.2C206.999 121.648 207.148 122.165 207.148 122.752C207.148 123.445 206.951 124.053 206.556 124.576C206.162 125.088 205.607 125.488 204.892 125.776C204.178 126.053 203.351 126.192 202.412 126.192C201.474 126.192 200.647 126.053 199.932 125.776C199.228 125.488 198.679 125.088 198.284 124.576C197.9 124.053 197.708 123.445 197.708 122.752C197.708 122.165 197.852 121.648 198.14 121.2C198.439 120.752 198.86 120.389 199.404 120.112C198.988 119.856 198.668 119.536 198.444 119.152C198.22 118.757 198.108 118.309 198.108 117.808C198.108 117.157 198.29 116.592 198.652 116.112C199.015 115.632 199.522 115.264 200.172 115.008C200.823 114.741 201.57 114.608 202.412 114.608C203.266 114.608 204.018 114.741 204.668 115.008C205.33 115.264 205.842 115.632 206.204 116.112C206.567 116.592 206.748 117.157 206.748 117.808C206.748 118.309 206.636 118.757 206.412 119.152C206.188 119.536 205.863 119.856 205.436 120.112ZM202.412 116.512C201.89 116.512 201.468 116.64 201.148 116.896C200.839 117.141 200.684 117.483 200.684 117.92C200.684 118.347 200.839 118.683 201.148 118.928C201.458 119.173 201.879 119.296 202.412 119.296C202.946 119.296 203.372 119.173 203.692 118.928C204.012 118.683 204.172 118.347 204.172 117.92C204.172 117.483 204.012 117.141 203.692 116.896C203.372 116.64 202.946 116.512 202.412 116.512ZM202.412 124.288C203.063 124.288 203.575 124.144 203.948 123.856C204.332 123.557 204.524 123.163 204.524 122.672C204.524 122.181 204.332 121.792 203.948 121.504C203.575 121.216 203.063 121.072 202.412 121.072C201.772 121.072 201.266 121.216 200.892 121.504C200.519 121.792 200.332 122.181 200.332 122.672C200.332 123.173 200.519 123.568 200.892 123.856C201.266 124.144 201.772 124.288 202.412 124.288Z" fill="#4F4F4F"/>
<path d="M10 119C9.44772 119 9 119.448 9 120C9 120.552 9.44772 121 10 121L10 119ZM50 120L40 114.226L40 125.774L50 120ZM10 121L41 121L41 119L10 119L10 121Z" fill="white"/>
<path d="M191 186C191 185.448 190.552 185 190 185C189.448 185 189 185.448 189 186L191 186ZM190 216L195.774 206L184.226 206L190 216ZM189 186L189 207L191 207L191 186L189 186Z" fill="white"/>
<path d="M191 236C191 235.448 190.552 235 190 235C189.448 235 189 235.448 189 236L191 236ZM190 266L195.774 256L184.226 256L190 266ZM189 236L189 257L191 257L191 236L189 236Z" fill="white"/>
<path d="M330 119C329.448 119 329 119.448 329 120C329 120.552 329.448 121 330 121L330 119ZM348.5 120L348.5 121C349.052 121 349.5 120.552 349.5 120L348.5 120ZM348.5 37.5L342.726 47.5L354.274 47.5L348.5 37.5ZM330 121L348.5 121L348.5 119L330 119L330 121ZM349.5 120L349.5 46.5L347.5 46.5L347.5 120L349.5 120Z" fill="white"/>
<path d="M312 21C312.552 21 313 20.5523 313 20C313 19.4477 312.552 19 312 19L312 21ZM190 20L190 19C189.735 19 189.48 19.1053 189.293 19.2929C189.105 19.4804 189 19.7348 189 20L190 20ZM190 61.5L195.774 51.5L184.226 51.5L190 61.5ZM312 19L190 19L190 21L312 21L312 19ZM189 20L189 52.5L191 52.5L191 20L189 20Z" fill="white"/>
<rect x="50" y="280" width="280" height="80" rx="20" fill="#69E485"/>
<path d="M133.492 326V314.8H136.084V326H133.492ZM138.742 326V314.8H140.886L147.494 322.864H146.454V314.8H149.014V326H146.886L140.262 317.936H141.302V326H138.742ZM155.344 326.192C154.448 326.192 153.589 326.075 152.768 325.84C151.947 325.595 151.285 325.28 150.784 324.896L151.664 322.944C152.144 323.285 152.709 323.568 153.36 323.792C154.021 324.005 154.688 324.112 155.36 324.112C155.872 324.112 156.283 324.064 156.592 323.968C156.912 323.861 157.147 323.717 157.296 323.536C157.445 323.355 157.52 323.147 157.52 322.912C157.52 322.613 157.403 322.379 157.168 322.208C156.933 322.027 156.624 321.883 156.24 321.776C155.856 321.659 155.429 321.552 154.96 321.456C154.501 321.349 154.037 321.221 153.568 321.072C153.109 320.923 152.688 320.731 152.304 320.496C151.92 320.261 151.605 319.952 151.36 319.568C151.125 319.184 151.008 318.693 151.008 318.096C151.008 317.456 151.179 316.875 151.52 316.352C151.872 315.819 152.395 315.397 153.088 315.088C153.792 314.768 154.672 314.608 155.728 314.608C156.432 314.608 157.125 314.693 157.808 314.864C158.491 315.024 159.093 315.269 159.616 315.6L158.816 317.568C158.293 317.269 157.771 317.051 157.248 316.912C156.725 316.763 156.213 316.688 155.712 316.688C155.211 316.688 154.8 316.747 154.48 316.864C154.16 316.981 153.931 317.136 153.792 317.328C153.653 317.509 153.584 317.723 153.584 317.968C153.584 318.256 153.701 318.491 153.936 318.672C154.171 318.843 154.48 318.981 154.864 319.088C155.248 319.195 155.669 319.301 156.128 319.408C156.597 319.515 157.061 319.637 157.52 319.776C157.989 319.915 158.416 320.101 158.8 320.336C159.184 320.571 159.493 320.88 159.728 321.264C159.973 321.648 160.096 322.133 160.096 322.72C160.096 323.349 159.92 323.925 159.568 324.448C159.216 324.971 158.688 325.392 157.984 325.712C157.291 326.032 156.411 326.192 155.344 326.192ZM164.031 326V316.912H160.447V314.8H170.207V316.912H166.623V326H164.031ZM171.601 326V314.8H176.449C177.452 314.8 178.316 314.965 179.041 315.296C179.767 315.616 180.327 316.08 180.721 316.688C181.116 317.296 181.313 318.021 181.313 318.864C181.313 319.696 181.116 320.416 180.721 321.024C180.327 321.621 179.767 322.08 179.041 322.4C178.316 322.72 177.452 322.88 176.449 322.88H173.041L174.193 321.744V326H171.601ZM178.721 326L175.921 321.936H178.689L181.521 326H178.721ZM174.193 322.032L173.041 320.816H176.305C177.105 320.816 177.703 320.645 178.097 320.304C178.492 319.952 178.689 319.472 178.689 318.864C178.689 318.245 178.492 317.765 178.097 317.424C177.703 317.083 177.105 316.912 176.305 316.912H173.041L174.193 315.68V322.032ZM188.343 326.192C186.754 326.192 185.511 325.749 184.615 324.864C183.719 323.979 183.271 322.715 183.271 321.072V314.8H185.863V320.976C185.863 322.043 186.082 322.811 186.519 323.28C186.956 323.749 187.57 323.984 188.359 323.984C189.148 323.984 189.762 323.749 190.199 323.28C190.636 322.811 190.855 322.043 190.855 320.976V314.8H193.415V321.072C193.415 322.715 192.967 323.979 192.071 324.864C191.175 325.749 189.932 326.192 188.343 326.192ZM201.336 326.192C200.472 326.192 199.667 326.053 198.92 325.776C198.184 325.488 197.544 325.083 197 324.56C196.456 324.037 196.03 323.424 195.72 322.72C195.422 322.016 195.272 321.243 195.272 320.4C195.272 319.557 195.422 318.784 195.72 318.08C196.03 317.376 196.456 316.763 197 316.24C197.555 315.717 198.2 315.317 198.936 315.04C199.672 314.752 200.478 314.608 201.352 314.608C202.323 314.608 203.198 314.779 203.976 315.12C204.766 315.451 205.427 315.941 205.96 316.592L204.296 318.128C203.912 317.691 203.486 317.365 203.016 317.152C202.547 316.928 202.035 316.816 201.48 316.816C200.958 316.816 200.478 316.901 200.04 317.072C199.603 317.243 199.224 317.488 198.904 317.808C198.584 318.128 198.334 318.507 198.152 318.944C197.982 319.381 197.896 319.867 197.896 320.4C197.896 320.933 197.982 321.419 198.152 321.856C198.334 322.293 198.584 322.672 198.904 322.992C199.224 323.312 199.603 323.557 200.04 323.728C200.478 323.899 200.958 323.984 201.48 323.984C202.035 323.984 202.547 323.877 203.016 323.664C203.486 323.44 203.912 323.104 204.296 322.656L205.96 324.192C205.427 324.843 204.766 325.339 203.976 325.68C203.198 326.021 202.318 326.192 201.336 326.192ZM209.921 326V316.912H206.337V314.8H216.097V316.912H212.513V326H209.921ZM217.492 326V314.8H220.084V326H217.492ZM228.182 326.192C227.297 326.192 226.475 326.048 225.718 325.76C224.971 325.472 224.321 325.067 223.766 324.544C223.222 324.021 222.795 323.408 222.486 322.704C222.187 322 222.038 321.232 222.038 320.4C222.038 319.568 222.187 318.8 222.486 318.096C222.795 317.392 223.227 316.779 223.782 316.256C224.337 315.733 224.987 315.328 225.734 315.04C226.481 314.752 227.291 314.608 228.166 314.608C229.051 314.608 229.862 314.752 230.598 315.04C231.345 315.328 231.99 315.733 232.534 316.256C233.089 316.779 233.521 317.392 233.83 318.096C234.139 318.789 234.294 319.557 234.294 320.4C234.294 321.232 234.139 322.005 233.83 322.72C233.521 323.424 233.089 324.037 232.534 324.56C231.99 325.072 231.345 325.472 230.598 325.76C229.862 326.048 229.057 326.192 228.182 326.192ZM228.166 323.984C228.667 323.984 229.126 323.899 229.542 323.728C229.969 323.557 230.342 323.312 230.662 322.992C230.982 322.672 231.227 322.293 231.398 321.856C231.579 321.419 231.67 320.933 231.67 320.4C231.67 319.867 231.579 319.381 231.398 318.944C231.227 318.507 230.982 318.128 230.662 317.808C230.353 317.488 229.985 317.243 229.558 317.072C229.131 316.901 228.667 316.816 228.166 316.816C227.665 316.816 227.201 316.901 226.774 317.072C226.358 317.243 225.99 317.488 225.67 317.808C225.35 318.128 225.099 318.507 224.918 318.944C224.747 319.381 224.662 319.867 224.662 320.4C224.662 320.923 224.747 321.408 224.918 321.856C225.099 322.293 225.345 322.672 225.654 322.992C225.974 323.312 226.347 323.557 226.774 323.728C227.201 323.899 227.665 323.984 228.166 323.984ZM236.242 326V314.8H238.386L244.994 322.864H243.954V314.8H246.514V326H244.386L237.762 317.936H238.802V326H236.242Z" fill="#4F4F4F"/>
<path d="M337.889 14.8V26H335.761L330.177 19.2V26H327.617V14.8H329.761L335.329 21.6V14.8H337.889ZM345.963 26.192C344.8 26.192 343.75 25.9413 342.811 25.44C341.883 24.9387 341.152 24.2507 340.619 23.376C340.096 22.4907 339.835 21.4987 339.835 20.4C339.835 19.3013 340.096 18.3147 340.619 17.44C341.152 16.5547 341.883 15.8613 342.811 15.36C343.75 14.8587 344.8 14.608 345.963 14.608C347.126 14.608 348.171 14.8587 349.099 15.36C350.027 15.8613 350.758 16.5547 351.291 17.44C351.824 18.3147 352.091 19.3013 352.091 20.4C352.091 21.4987 351.824 22.4907 351.291 23.376C350.758 24.2507 350.027 24.9387 349.099 25.44C348.171 25.9413 347.126 26.192 345.963 26.192ZM345.963 23.984C346.624 23.984 347.222 23.8347 347.755 23.536C348.288 23.2267 348.704 22.8 349.003 22.256C349.312 21.712 349.467 21.0933 349.467 20.4C349.467 19.7067 349.312 19.088 349.003 18.544C348.704 18 348.288 17.5787 347.755 17.28C347.222 16.9707 346.624 16.816 345.963 16.816C345.302 16.816 344.704 16.9707 344.171 17.28C343.638 17.5787 343.216 18 342.907 18.544C342.608 19.088 342.459 19.7067 342.459 20.4C342.459 21.0933 342.608 21.712 342.907 22.256C343.216 22.8 343.638 23.2267 344.171 23.536C344.704 23.8347 345.302 23.984 345.963 23.984Z" fill="white"/>
<path d="M178.284 232V227.424L178.876 228.992L173.948 220.8H176.7L180.476 227.088H178.892L182.684 220.8H185.228L180.3 228.992L180.876 227.424V232H178.284ZM188.603 225.312H193.995V227.328H188.603V225.312ZM188.795 229.92H194.891V232H186.219V220.8H194.683V222.88H188.795V229.92ZM200.633 232.192C199.737 232.192 198.878 232.075 198.057 231.84C197.236 231.595 196.574 231.28 196.073 230.896L196.953 228.944C197.433 229.285 197.998 229.568 198.649 229.792C199.31 230.005 199.977 230.112 200.649 230.112C201.161 230.112 201.572 230.064 201.881 229.968C202.201 229.861 202.436 229.717 202.585 229.536C202.734 229.355 202.809 229.147 202.809 228.912C202.809 228.613 202.692 228.379 202.457 228.208C202.222 228.027 201.913 227.883 201.529 227.776C201.145 227.659 200.718 227.552 200.249 227.456C199.79 227.349 199.326 227.221 198.857 227.072C198.398 226.923 197.977 226.731 197.593 226.496C197.209 226.261 196.894 225.952 196.649 225.568C196.414 225.184 196.297 224.693 196.297 224.096C196.297 223.456 196.468 222.875 196.809 222.352C197.161 221.819 197.684 221.397 198.377 221.088C199.081 220.768 199.961 220.608 201.017 220.608C201.721 220.608 202.414 220.693 203.097 220.864C203.78 221.024 204.382 221.269 204.905 221.6L204.105 223.568C203.582 223.269 203.06 223.051 202.537 222.912C202.014 222.763 201.502 222.688 201.001 222.688C200.5 222.688 200.089 222.747 199.769 222.864C199.449 222.981 199.22 223.136 199.081 223.328C198.942 223.509 198.873 223.723 198.873 223.968C198.873 224.256 198.99 224.491 199.225 224.672C199.46 224.843 199.769 224.981 200.153 225.088C200.537 225.195 200.958 225.301 201.417 225.408C201.886 225.515 202.35 225.637 202.809 225.776C203.278 225.915 203.705 226.101 204.089 226.336C204.473 226.571 204.782 226.88 205.017 227.264C205.262 227.648 205.385 228.133 205.385 228.72C205.385 229.349 205.209 229.925 204.857 230.448C204.505 230.971 203.977 231.392 203.273 231.712C202.58 232.032 201.7 232.192 200.633 232.192Z" fill="white"/>
</g>
<defs>
<clipPath id="clip0_10_2912">
<rect width="380" height="380" rx="20" fill="white"/>
</clipPath>
</defs>
</svg>
