<svg width="280" height="284" viewBox="0 0 280 284" fill="none" xmlns="http://www.w3.org/2000/svg">
<g filter="url(#filter0_d_4415_112640)">
<rect id="bg" width="280" height="280" rx="20"/>
<path fill-rule="evenodd" clip-rule="evenodd" d="M265 50.17C265 40.38 257.839 33 248 33C208.917 33 232.045 33 204 33C196.27 33 192.785 30.7635 188.5 26.5C179.193 17.8197 155.783 3 104.427 3C32.0243 3 15 32.6322 15 32.6322C15 32.6322 15.0004 37.0196 15.0006 50.3C15.0006 60.09 23.161 68 33 68C59.4876 68 105 68 105 68L113 76H150L158 68C158 68 192.031 68 247 68C257.733 68 265 60.98 265 51.19C265 49.3223 265 52.0375 265 50.17Z" fill="#FC79FF"/>
<path fill-rule="evenodd" clip-rule="evenodd" d="M260 51C260 59 256 62.9999 247 62.9999L156 62.9999L148 70.9999H115L106 62.9999C106 62.9999 58.3933 62.9999 33 62.9999C24.9643 62.9999 20 57.9999 20 50.9999H15C15 60.6249 23.1785 67.9999 33 67.9999C59.4408 67.9999 104 67.9999 104 67.9999L113.027 75.9999H150L158 67.9999L247 67.9999C258.607 67.9999 265 62.375 265 51C263.5 51 262 50.9999 260 51Z" fill="#CD5ACF"/>
<path fill-rule="evenodd" clip-rule="evenodd" d="M15 51H20V34C20 34 34.993 8 104.286 8C151.342 8 175.557 21.6452 185.5 30C190.292 34.0301 196.712 37.9521 203 38C211.5 38 232.5 38 248.036 38C256 38 260 43.5 260 50V51H265V50.3058C265 40.4876 257.857 33 248.036 33C209.029 33 231.008 33 203 33C197.281 32.9998 192.169 30.1595 188.214 26.2066C178.936 17.4998 155.571 3 104.268 3C31.9103 3 15.0007 32.4545 15.0007 32.4545L15 51Z" fill="#FDACFF"/>
<path d="M30.016 55.144C29.16 55.144 28.384 54.96 27.688 54.592C27 54.216 26.456 53.7 26.056 53.044C25.664 52.38 25.468 51.632 25.468 50.8C25.468 49.968 25.664 49.224 26.056 48.568C26.456 47.904 27 47.388 27.688 47.02C28.384 46.644 29.164 46.456 30.028 46.456C30.756 46.456 31.412 46.584 31.996 46.84C32.588 47.096 33.084 47.464 33.484 47.944L32.236 49.096C31.668 48.44 30.964 48.112 30.124 48.112C29.604 48.112 29.14 48.228 28.732 48.46C28.324 48.684 28.004 49 27.772 49.408C27.548 49.816 27.436 50.28 27.436 50.8C27.436 51.32 27.548 51.784 27.772 52.192C28.004 52.6 28.324 52.92 28.732 53.152C29.14 53.376 29.604 53.488 30.124 53.488C30.964 53.488 31.668 53.156 32.236 52.492L33.484 53.644C33.084 54.132 32.588 54.504 31.996 54.76C31.404 55.016 30.744 55.144 30.016 55.144ZM41.0047 48.544V55H39.2287V54.232C38.9807 54.512 38.6847 54.728 38.3407 54.88C37.9967 55.024 37.6247 55.096 37.2247 55.096C36.3767 55.096 35.7047 54.852 35.2087 54.364C34.7127 53.876 34.4647 53.152 34.4647 52.192V48.544H36.3367V51.916C36.3367 52.956 36.7727 53.476 37.6447 53.476C38.0927 53.476 38.4527 53.332 38.7247 53.044C38.9967 52.748 39.1327 52.312 39.1327 51.736V48.544H41.0047ZM45.343 48.448C46.343 48.448 47.111 48.688 47.647 49.168C48.183 49.64 48.451 50.356 48.451 51.316V55H46.699V54.196C46.347 54.796 45.691 55.096 44.731 55.096C44.235 55.096 43.803 55.012 43.435 54.844C43.075 54.676 42.799 54.444 42.607 54.148C42.415 53.852 42.319 53.516 42.319 53.14C42.319 52.54 42.543 52.068 42.991 51.724C43.447 51.38 44.147 51.208 45.091 51.208H46.579C46.579 50.8 46.455 50.488 46.207 50.272C45.959 50.048 45.587 49.936 45.091 49.936C44.747 49.936 44.407 49.992 44.071 50.104C43.743 50.208 43.463 50.352 43.231 50.536L42.559 49.228C42.911 48.98 43.331 48.788 43.819 48.652C44.315 48.516 44.823 48.448 45.343 48.448ZM45.199 53.836C45.519 53.836 45.803 53.764 46.051 53.62C46.299 53.468 46.475 53.248 46.579 52.96V52.3H45.295C44.527 52.3 44.143 52.552 44.143 53.056C44.143 53.296 44.235 53.488 44.419 53.632C44.611 53.768 44.871 53.836 45.199 53.836ZM54.0693 48.448C54.8693 48.448 55.5133 48.688 56.0013 49.168C56.4973 49.648 56.7453 50.36 56.7453 51.304V55H54.8733V51.592C54.8733 51.08 54.7613 50.7 54.5373 50.452C54.3133 50.196 53.9893 50.068 53.5653 50.068C53.0933 50.068 52.7173 50.216 52.4373 50.512C52.1573 50.8 52.0173 51.232 52.0173 51.808V55H50.1453V48.544H51.9333V49.3C52.1813 49.028 52.4893 48.82 52.8573 48.676C53.2253 48.524 53.6293 48.448 54.0693 48.448ZM65.0884 46.096V55H63.3004V54.256C62.8364 54.816 62.1644 55.096 61.2844 55.096C60.6764 55.096 60.1244 54.96 59.6284 54.688C59.1404 54.416 58.7564 54.028 58.4764 53.524C58.1964 53.02 58.0564 52.436 58.0564 51.772C58.0564 51.108 58.1964 50.524 58.4764 50.02C58.7564 49.516 59.1404 49.128 59.6284 48.856C60.1244 48.584 60.6764 48.448 61.2844 48.448C62.1084 48.448 62.7524 48.708 63.2164 49.228V46.096H65.0884ZM61.6084 53.56C62.0804 53.56 62.4724 53.4 62.7844 53.08C63.0964 52.752 63.2524 52.316 63.2524 51.772C63.2524 51.228 63.0964 50.796 62.7844 50.476C62.4724 50.148 62.0804 49.984 61.6084 49.984C61.1284 49.984 60.7324 50.148 60.4204 50.476C60.1084 50.796 59.9524 51.228 59.9524 51.772C59.9524 52.316 60.1084 52.752 60.4204 53.08C60.7324 53.4 61.1284 53.56 61.6084 53.56ZM69.893 55.096C69.213 55.096 68.601 54.956 68.057 54.676C67.521 54.388 67.101 53.992 66.797 53.488C66.493 52.984 66.341 52.412 66.341 51.772C66.341 51.132 66.493 50.56 66.797 50.056C67.101 49.552 67.521 49.16 68.057 48.88C68.601 48.592 69.213 48.448 69.893 48.448C70.573 48.448 71.181 48.592 71.717 48.88C72.253 49.16 72.673 49.552 72.977 50.056C73.281 50.56 73.433 51.132 73.433 51.772C73.433 52.412 73.281 52.984 72.977 53.488C72.673 53.992 72.253 54.388 71.717 54.676C71.181 54.956 70.573 55.096 69.893 55.096ZM69.893 53.56C70.373 53.56 70.765 53.4 71.069 53.08C71.381 52.752 71.537 52.316 71.537 51.772C71.537 51.228 71.381 50.796 71.069 50.476C70.765 50.148 70.373 49.984 69.893 49.984C69.413 49.984 69.017 50.148 68.705 50.476C68.393 50.796 68.237 51.228 68.237 51.772C68.237 52.316 68.393 52.752 68.705 53.08C69.017 53.4 69.413 53.56 69.893 53.56ZM75.3923 50.788C75.0643 50.788 74.7883 50.676 74.5643 50.452C74.3403 50.228 74.2283 49.948 74.2283 49.612C74.2283 49.268 74.3403 48.992 74.5643 48.784C74.7883 48.568 75.0643 48.46 75.3923 48.46C75.7203 48.46 75.9963 48.568 76.2203 48.784C76.4443 48.992 76.5563 49.268 76.5563 49.612C76.5563 49.948 76.4443 50.228 76.2203 50.452C75.9963 50.676 75.7203 50.788 75.3923 50.788ZM75.3923 55.096C75.0643 55.096 74.7883 54.984 74.5643 54.76C74.3403 54.536 74.2283 54.256 74.2283 53.92C74.2283 53.576 74.3403 53.3 74.5643 53.092C74.7883 52.876 75.0643 52.768 75.3923 52.768C75.7203 52.768 75.9963 52.876 76.2203 53.092C76.4443 53.3 76.5563 53.576 76.5563 53.92C76.5563 54.256 76.4443 54.536 76.2203 54.76C75.9963 54.984 75.7203 55.096 75.3923 55.096ZM85.0394 48.448C85.6394 48.448 86.1834 48.588 86.6714 48.868C87.1674 49.14 87.5554 49.528 87.8354 50.032C88.1154 50.528 88.2554 51.108 88.2554 51.772C88.2554 52.436 88.1154 53.02 87.8354 53.524C87.5554 54.02 87.1674 54.408 86.6714 54.688C86.1834 54.96 85.6394 55.096 85.0394 55.096C84.2154 55.096 83.5674 54.836 83.0954 54.316V57.328H81.2234V48.544H83.0114V49.288C83.4754 48.728 84.1514 48.448 85.0394 48.448ZM84.7154 53.56C85.1954 53.56 85.5874 53.4 85.8914 53.08C86.2034 52.752 86.3594 52.316 86.3594 51.772C86.3594 51.228 86.2034 50.796 85.8914 50.476C85.5874 50.148 85.1954 49.984 84.7154 49.984C84.2354 49.984 83.8394 50.148 83.5274 50.476C83.2234 50.796 83.0714 51.228 83.0714 51.772C83.0714 52.316 83.2234 52.752 83.5274 53.08C83.8394 53.4 84.2354 53.56 84.7154 53.56ZM91.2965 49.396C91.5205 49.084 91.8205 48.848 92.1965 48.688C92.5805 48.528 93.0205 48.448 93.5165 48.448V50.176C93.3085 50.16 93.1685 50.152 93.0965 50.152C92.5605 50.152 92.1405 50.304 91.8365 50.608C91.5325 50.904 91.3805 51.352 91.3805 51.952V55H89.5085V48.544H91.2965V49.396ZM100.895 51.796C100.895 51.82 100.883 51.988 100.859 52.3H95.975C96.063 52.7 96.271 53.016 96.599 53.248C96.927 53.48 97.335 53.596 97.823 53.596C98.159 53.596 98.455 53.548 98.711 53.452C98.975 53.348 99.219 53.188 99.443 52.972L100.439 54.052C99.831 54.748 98.943 55.096 97.775 55.096C97.047 55.096 96.403 54.956 95.843 54.676C95.283 54.388 94.851 53.992 94.547 53.488C94.243 52.984 94.091 52.412 94.091 51.772C94.091 51.14 94.239 50.572 94.535 50.068C94.839 49.556 95.251 49.16 95.771 48.88C96.299 48.592 96.887 48.448 97.535 48.448C98.167 48.448 98.739 48.584 99.251 48.856C99.763 49.128 100.163 49.52 100.451 50.032C100.747 50.536 100.895 51.124 100.895 51.796ZM97.547 49.864C97.123 49.864 96.767 49.984 96.479 50.224C96.191 50.464 96.015 50.792 95.951 51.208H99.131C99.067 50.8 98.891 50.476 98.603 50.236C98.315 49.988 97.963 49.864 97.547 49.864ZM104.313 55.096C103.777 55.096 103.253 55.032 102.741 54.904C102.229 54.768 101.821 54.6 101.517 54.4L102.141 53.056C102.429 53.24 102.777 53.392 103.185 53.512C103.593 53.624 103.993 53.68 104.385 53.68C105.177 53.68 105.573 53.484 105.573 53.092C105.573 52.908 105.465 52.776 105.249 52.696C105.033 52.616 104.701 52.548 104.253 52.492C103.725 52.412 103.289 52.32 102.945 52.216C102.601 52.112 102.301 51.928 102.045 51.664C101.797 51.4 101.673 51.024 101.673 50.536C101.673 50.128 101.789 49.768 102.021 49.456C102.261 49.136 102.605 48.888 103.053 48.712C103.509 48.536 104.045 48.448 104.661 48.448C105.117 48.448 105.569 48.5 106.017 48.604C106.473 48.7 106.849 48.836 107.145 49.012L106.521 50.344C105.953 50.024 105.333 49.864 104.661 49.864C104.261 49.864 103.961 49.92 103.761 50.032C103.561 50.144 103.461 50.288 103.461 50.464C103.461 50.664 103.569 50.804 103.785 50.884C104.001 50.964 104.345 51.04 104.817 51.112C105.345 51.2 105.777 51.296 106.113 51.4C106.449 51.496 106.741 51.676 106.989 51.94C107.237 52.204 107.361 52.572 107.361 53.044C107.361 53.444 107.241 53.8 107.001 54.112C106.761 54.424 106.409 54.668 105.945 54.844C105.489 55.012 104.945 55.096 104.313 55.096ZM108.516 48.544H110.388V55H108.516V48.544ZM109.452 47.644C109.108 47.644 108.828 47.544 108.612 47.344C108.396 47.144 108.288 46.896 108.288 46.6C108.288 46.304 108.396 46.056 108.612 45.856C108.828 45.656 109.108 45.556 109.452 45.556C109.796 45.556 110.076 45.652 110.292 45.844C110.508 46.036 110.616 46.276 110.616 46.564C110.616 46.876 110.508 47.136 110.292 47.344C110.076 47.544 109.796 47.644 109.452 47.644ZM115.198 55.096C114.518 55.096 113.906 54.956 113.362 54.676C112.826 54.388 112.406 53.992 112.102 53.488C111.798 52.984 111.646 52.412 111.646 51.772C111.646 51.132 111.798 50.56 112.102 50.056C112.406 49.552 112.826 49.16 113.362 48.88C113.906 48.592 114.518 48.448 115.198 48.448C115.878 48.448 116.486 48.592 117.022 48.88C117.558 49.16 117.978 49.552 118.282 50.056C118.586 50.56 118.738 51.132 118.738 51.772C118.738 52.412 118.586 52.984 118.282 53.488C117.978 53.992 117.558 54.388 117.022 54.676C116.486 54.956 115.878 55.096 115.198 55.096ZM115.198 53.56C115.678 53.56 116.07 53.4 116.374 53.08C116.686 52.752 116.842 52.316 116.842 51.772C116.842 51.228 116.686 50.796 116.374 50.476C116.07 50.148 115.678 49.984 115.198 49.984C114.718 49.984 114.322 50.148 114.01 50.476C113.698 50.796 113.542 51.228 113.542 51.772C113.542 52.316 113.698 52.752 114.01 53.08C114.322 53.4 114.718 53.56 115.198 53.56ZM123.913 48.448C124.713 48.448 125.357 48.688 125.845 49.168C126.341 49.648 126.589 50.36 126.589 51.304V55H124.717V51.592C124.717 51.08 124.605 50.7 124.381 50.452C124.157 50.196 123.833 50.068 123.409 50.068C122.937 50.068 122.561 50.216 122.281 50.512C122.001 50.8 121.861 51.232 121.861 51.808V55H119.989V48.544H121.777V49.3C122.025 49.028 122.333 48.82 122.701 48.676C123.069 48.524 123.473 48.448 123.913 48.448ZM130.89 48.448C131.89 48.448 132.658 48.688 133.194 49.168C133.73 49.64 133.998 50.356 133.998 51.316V55H132.246V54.196C131.894 54.796 131.238 55.096 130.278 55.096C129.782 55.096 129.35 55.012 128.982 54.844C128.622 54.676 128.346 54.444 128.154 54.148C127.962 53.852 127.866 53.516 127.866 53.14C127.866 52.54 128.09 52.068 128.538 51.724C128.994 51.38 129.694 51.208 130.638 51.208H132.126C132.126 50.8 132.002 50.488 131.754 50.272C131.506 50.048 131.134 49.936 130.638 49.936C130.294 49.936 129.954 49.992 129.618 50.104C129.29 50.208 129.01 50.352 128.778 50.536L128.106 49.228C128.458 48.98 128.878 48.788 129.366 48.652C129.862 48.516 130.37 48.448 130.89 48.448ZM130.746 53.836C131.066 53.836 131.35 53.764 131.598 53.62C131.846 53.468 132.022 53.248 132.126 52.96V52.3H130.842C130.074 52.3 129.69 52.552 129.69 53.056C129.69 53.296 129.782 53.488 129.966 53.632C130.158 53.768 130.418 53.836 130.746 53.836ZM137.48 49.396C137.704 49.084 138.004 48.848 138.38 48.688C138.764 48.528 139.204 48.448 139.7 48.448V50.176C139.492 50.16 139.352 50.152 139.28 50.152C138.744 50.152 138.324 50.304 138.02 50.608C137.716 50.904 137.564 51.352 137.564 51.952V55H135.692V48.544H137.48V49.396ZM144.259 48.544H146.131V55H144.259V48.544ZM145.195 47.644C144.851 47.644 144.571 47.544 144.355 47.344C144.139 47.144 144.031 46.896 144.031 46.6C144.031 46.304 144.139 46.056 144.355 45.856C144.571 45.656 144.851 45.556 145.195 45.556C145.539 45.556 145.819 45.652 146.035 45.844C146.251 46.036 146.359 46.276 146.359 46.564C146.359 46.876 146.251 47.136 146.035 47.344C145.819 47.544 145.539 47.644 145.195 47.644ZM151.792 48.448C152.592 48.448 153.236 48.688 153.724 49.168C154.22 49.648 154.468 50.36 154.468 51.304V55H152.596V51.592C152.596 51.08 152.484 50.7 152.26 50.452C152.036 50.196 151.712 50.068 151.288 50.068C150.816 50.068 150.44 50.216 150.16 50.512C149.88 50.8 149.74 51.232 149.74 51.808V55H147.868V48.544H149.656V49.3C149.904 49.028 150.212 48.82 150.58 48.676C150.948 48.524 151.352 48.448 151.792 48.448ZM156.165 48.544H158.037V55H156.165V48.544ZM157.101 47.644C156.757 47.644 156.477 47.544 156.261 47.344C156.045 47.144 155.937 46.896 155.937 46.6C155.937 46.304 156.045 46.056 156.261 45.856C156.477 45.656 156.757 45.556 157.101 45.556C157.445 45.556 157.725 45.652 157.941 45.844C158.157 46.036 158.265 46.276 158.265 46.564C158.265 46.876 158.157 47.136 157.941 47.344C157.725 47.544 157.445 47.644 157.101 47.644ZM162.894 55.096C162.206 55.096 161.586 54.956 161.034 54.676C160.49 54.388 160.062 53.992 159.75 53.488C159.446 52.984 159.294 52.412 159.294 51.772C159.294 51.132 159.446 50.56 159.75 50.056C160.062 49.552 160.49 49.16 161.034 48.88C161.586 48.592 162.206 48.448 162.894 48.448C163.574 48.448 164.166 48.592 164.67 48.88C165.182 49.16 165.554 49.564 165.786 50.092L164.334 50.872C163.998 50.28 163.514 49.984 162.882 49.984C162.394 49.984 161.99 50.144 161.67 50.464C161.35 50.784 161.19 51.22 161.19 51.772C161.19 52.324 161.35 52.76 161.67 53.08C161.99 53.4 162.394 53.56 162.882 53.56C163.522 53.56 164.006 53.264 164.334 52.672L165.786 53.464C165.554 53.976 165.182 54.376 164.67 54.664C164.166 54.952 163.574 55.096 162.894 55.096ZM166.864 48.544H168.736V55H166.864V48.544ZM167.8 47.644C167.456 47.644 167.176 47.544 166.96 47.344C166.744 47.144 166.636 46.896 166.636 46.6C166.636 46.304 166.744 46.056 166.96 45.856C167.176 45.656 167.456 45.556 167.8 45.556C168.144 45.556 168.424 45.652 168.64 45.844C168.856 46.036 168.964 46.276 168.964 46.564C168.964 46.876 168.856 47.136 168.64 47.344C168.424 47.544 168.144 47.644 167.8 47.644ZM173.077 48.448C174.077 48.448 174.845 48.688 175.381 49.168C175.917 49.64 176.185 50.356 176.185 51.316V55H174.433V54.196C174.081 54.796 173.425 55.096 172.465 55.096C171.969 55.096 171.537 55.012 171.169 54.844C170.809 54.676 170.533 54.444 170.341 54.148C170.149 53.852 170.053 53.516 170.053 53.14C170.053 52.54 170.277 52.068 170.725 51.724C171.181 51.38 171.881 51.208 172.825 51.208H174.313C174.313 50.8 174.189 50.488 173.941 50.272C173.693 50.048 173.321 49.936 172.825 49.936C172.481 49.936 172.141 49.992 171.805 50.104C171.477 50.208 171.197 50.352 170.965 50.536L170.293 49.228C170.645 48.98 171.065 48.788 171.553 48.652C172.049 48.516 172.557 48.448 173.077 48.448ZM172.933 53.836C173.253 53.836 173.537 53.764 173.785 53.62C174.033 53.468 174.209 53.248 174.313 52.96V52.3H173.029C172.261 52.3 171.877 52.552 171.877 53.056C171.877 53.296 171.969 53.488 172.153 53.632C172.345 53.768 172.605 53.836 172.933 53.836ZM179.668 49.396C179.892 49.084 180.192 48.848 180.568 48.688C180.952 48.528 181.392 48.448 181.888 48.448V50.176C181.68 50.16 181.54 50.152 181.468 50.152C180.932 50.152 180.512 50.304 180.208 50.608C179.904 50.904 179.752 51.352 179.752 51.952V55H177.88V48.544H179.668V49.396ZM183.638 55.096C183.31 55.096 183.034 54.984 182.81 54.76C182.586 54.536 182.474 54.256 182.474 53.92C182.474 53.576 182.586 53.3 182.81 53.092C183.034 52.876 183.31 52.768 183.638 52.768C183.966 52.768 184.242 52.876 184.466 53.092C184.69 53.3 184.802 53.576 184.802 53.92C184.802 54.256 184.69 54.536 184.466 54.76C184.242 54.984 183.966 55.096 183.638 55.096Z" fill="#333333"/>
<path fill-rule="evenodd" clip-rule="evenodd" d="M265 127.985C265 117 256 107.993 245 107.993C183.172 107.993 158 108 158 108L150 116H113L104 108H69.1467C58.1467 108 49.1467 117 49.1467 127.992C49.1467 128 49.1467 128.007 49.1467 128.015C49.1467 139 58.1467 148 69.1467 148C85.7097 148 104 148 104 148L113 156H150L158 148H245.147C256 148 265 139 265 128.008C265 128 265 128.5 265 127.985Z" fill="#30DCFF"/>
<path fill-rule="evenodd" clip-rule="evenodd" d="M265 127.989C265 117 256 108 244.853 108C183.025 108 158 108 158 108L150 116H113L104 108H69C58 108 49 117 49 127.989C49 127.996 49 128 49 128H54C54 118 61 113 69 113C83.6641 113 102 113 102 113L111 121H152L160 113H245C254 113 260 119 260 128L265 128V127.989Z" fill="#93EDFF"/>
<path fill-rule="evenodd" clip-rule="evenodd" d="M265 128L260 128C260 136.971 254.197 143 245 143C187.995 143 156 143 156 143L148 151H115L106 143H69C58.4962 143 54 137 54 128.001L49 128V128.011C49 139 58 148 69 148C85.563 148 104 148 104 148L113 156H150L158 148H245C256 148 265 139 265 128Z" fill="#08A0BF"/>
<path d="M67.64 135L67.628 129.96L65.156 134.112H64.28L61.82 130.068V135H59.996V126.6H61.604L64.748 131.82L67.844 126.6H69.44L69.464 135H67.64ZM77.8289 128.544V135H76.0529V134.232C75.8049 134.512 75.5089 134.728 75.1649 134.88C74.8209 135.024 74.4489 135.096 74.0489 135.096C73.2009 135.096 72.5289 134.852 72.0329 134.364C71.5369 133.876 71.2889 133.152 71.2889 132.192V128.544H73.1609V131.916C73.1609 132.956 73.5969 133.476 74.4689 133.476C74.9169 133.476 75.2769 133.332 75.5489 133.044C75.8209 132.748 75.9569 132.312 75.9569 131.736V128.544H77.8289ZM79.5632 126.096H81.4352V135H79.5632V126.096ZM87.8053 134.688C87.6213 134.824 87.3933 134.928 87.1213 135C86.8573 135.064 86.5773 135.096 86.2813 135.096C85.5133 135.096 84.9173 134.9 84.4933 134.508C84.0773 134.116 83.8693 133.54 83.8693 132.78V130.128H82.8733V128.688H83.8693V127.116H85.7413V128.688H87.3493V130.128H85.7413V132.756C85.7413 133.028 85.8093 133.24 85.9453 133.392C86.0893 133.536 86.2893 133.608 86.5453 133.608C86.8413 133.608 87.0933 133.528 87.3013 133.368L87.8053 134.688ZM88.8562 128.544H90.7282V135H88.8562V128.544ZM89.7922 127.644C89.4482 127.644 89.1682 127.544 88.9522 127.344C88.7362 127.144 88.6282 126.896 88.6282 126.6C88.6282 126.304 88.7362 126.056 88.9522 125.856C89.1682 125.656 89.4482 125.556 89.7922 125.556C90.1362 125.556 90.4162 125.652 90.6322 125.844C90.8482 126.036 90.9562 126.276 90.9562 126.564C90.9562 126.876 90.8482 127.136 90.6322 127.344C90.4162 127.544 90.1362 127.644 89.7922 127.644ZM96.2816 128.448C96.8816 128.448 97.4256 128.588 97.9136 128.868C98.4096 129.14 98.7976 129.528 99.0776 130.032C99.3576 130.528 99.4976 131.108 99.4976 131.772C99.4976 132.436 99.3576 133.02 99.0776 133.524C98.7976 134.02 98.4096 134.408 97.9136 134.688C97.4256 134.96 96.8816 135.096 96.2816 135.096C95.4576 135.096 94.8096 134.836 94.3376 134.316V137.328H92.4656V128.544H94.2536V129.288C94.7176 128.728 95.3936 128.448 96.2816 128.448ZM95.9576 133.56C96.4376 133.56 96.8296 133.4 97.1336 133.08C97.4456 132.752 97.6016 132.316 97.6016 131.772C97.6016 131.228 97.4456 130.796 97.1336 130.476C96.8296 130.148 96.4376 129.984 95.9576 129.984C95.4776 129.984 95.0816 130.148 94.7696 130.476C94.4656 130.796 94.3136 131.228 94.3136 131.772C94.3136 132.316 94.4656 132.752 94.7696 133.08C95.0816 133.4 95.4776 133.56 95.9576 133.56ZM100.751 126.096H102.623V135H100.751V126.096ZM104.36 128.544H106.232V135H104.36V128.544ZM105.296 127.644C104.952 127.644 104.672 127.544 104.456 127.344C104.24 127.144 104.132 126.896 104.132 126.6C104.132 126.304 104.24 126.056 104.456 125.856C104.672 125.656 104.952 125.556 105.296 125.556C105.64 125.556 105.92 125.652 106.136 125.844C106.352 126.036 106.46 126.276 106.46 126.564C106.46 126.876 106.352 127.136 106.136 127.344C105.92 127.544 105.64 127.644 105.296 127.644ZM111.089 135.096C110.401 135.096 109.781 134.956 109.229 134.676C108.685 134.388 108.257 133.992 107.945 133.488C107.641 132.984 107.489 132.412 107.489 131.772C107.489 131.132 107.641 130.56 107.945 130.056C108.257 129.552 108.685 129.16 109.229 128.88C109.781 128.592 110.401 128.448 111.089 128.448C111.769 128.448 112.361 128.592 112.865 128.88C113.377 129.16 113.749 129.564 113.981 130.092L112.529 130.872C112.193 130.28 111.709 129.984 111.077 129.984C110.589 129.984 110.185 130.144 109.865 130.464C109.545 130.784 109.385 131.22 109.385 131.772C109.385 132.324 109.545 132.76 109.865 133.08C110.185 133.4 110.589 133.56 111.077 133.56C111.717 133.56 112.201 133.264 112.529 132.672L113.981 133.464C113.749 133.976 113.377 134.376 112.865 134.664C112.361 134.952 111.769 135.096 111.089 135.096ZM117.663 128.448C118.663 128.448 119.431 128.688 119.967 129.168C120.503 129.64 120.771 130.356 120.771 131.316V135H119.019V134.196C118.667 134.796 118.011 135.096 117.051 135.096C116.555 135.096 116.123 135.012 115.755 134.844C115.395 134.676 115.119 134.444 114.927 134.148C114.735 133.852 114.639 133.516 114.639 133.14C114.639 132.54 114.863 132.068 115.311 131.724C115.767 131.38 116.467 131.208 117.411 131.208H118.899C118.899 130.8 118.775 130.488 118.527 130.272C118.279 130.048 117.907 129.936 117.411 129.936C117.067 129.936 116.727 129.992 116.391 130.104C116.063 130.208 115.783 130.352 115.551 130.536L114.879 129.228C115.231 128.98 115.651 128.788 116.139 128.652C116.635 128.516 117.143 128.448 117.663 128.448ZM117.519 133.836C117.839 133.836 118.123 133.764 118.371 133.62C118.619 133.468 118.795 133.248 118.899 132.96V132.3H117.615C116.847 132.3 116.463 132.552 116.463 133.056C116.463 133.296 116.555 133.488 116.739 133.632C116.931 133.768 117.191 133.836 117.519 133.836ZM124.254 129.396C124.478 129.084 124.778 128.848 125.154 128.688C125.538 128.528 125.978 128.448 126.474 128.448V130.176C126.266 130.16 126.126 130.152 126.054 130.152C125.518 130.152 125.098 130.304 124.794 130.608C124.49 130.904 124.338 131.352 124.338 131.952V135H122.466V128.544H124.254V129.396Z" fill="#333333"/>
<path fill-rule="evenodd" clip-rule="evenodd" d="M265 207.985C265 197 256 187.993 245 187.993C183.172 187.993 158 188 158 188L150 196H113L104 188H69.1467C58.1467 188 49.1467 197 49.1467 207.992C49.1467 208 49.1467 208.007 49.1467 208.015C49.1467 219 58.1467 228 69.1467 228C85.7097 228 104 228 104 228L113 236H150L158 228H245.147C256 228 265 219 265 208.008C265 208 265 208.5 265 207.985Z" fill="#30DCFF"/>
<path fill-rule="evenodd" clip-rule="evenodd" d="M265 207.989C265 197 256 188 244.853 188C183.025 188 158 188 158 188L150 196H113L104 188H69C58 188 49 197 49 207.989C49 207.996 49 208 49 208H54C54 198 61 193 69 193C83.6641 193 102 193 102 193L111 201H152L160 193H245C254 193 260 199 260 208L265 208V207.989Z" fill="#93EDFF"/>
<path fill-rule="evenodd" clip-rule="evenodd" d="M265 208L260 208C260 216.971 254.197 223 245 223C187.995 223 156 223 156 223L148 231H115L106 223H69C58.4962 223 54 217 54 208.001L49 208V208.011C49 219 58 228 69 228C85.563 228 104 228 104 228L113 236H150L158 228H245C256 228 265 219 265 208Z" fill="#08A0BF"/>
<path d="M65.348 215L63.728 212.66H63.632H61.94V215H59.996V206.6H63.632C64.376 206.6 65.02 206.724 65.564 206.972C66.116 207.22 66.54 207.572 66.836 208.028C67.132 208.484 67.28 209.024 67.28 209.648C67.28 210.272 67.128 210.812 66.824 211.268C66.528 211.716 66.104 212.06 65.552 212.3L67.436 215H65.348ZM65.312 209.648C65.312 209.176 65.16 208.816 64.856 208.568C64.552 208.312 64.108 208.184 63.524 208.184H61.94V211.112H63.524C64.108 211.112 64.552 210.984 64.856 210.728C65.16 210.472 65.312 210.112 65.312 209.648ZM75.0122 211.796C75.0122 211.82 75.0002 211.988 74.9762 212.3H70.0922C70.1802 212.7 70.3882 213.016 70.7162 213.248C71.0442 213.48 71.4522 213.596 71.9402 213.596C72.2762 213.596 72.5722 213.548 72.8282 213.452C73.0922 213.348 73.3362 213.188 73.5602 212.972L74.5562 214.052C73.9482 214.748 73.0602 215.096 71.8922 215.096C71.1642 215.096 70.5202 214.956 69.9602 214.676C69.4002 214.388 68.9682 213.992 68.6642 213.488C68.3602 212.984 68.2082 212.412 68.2082 211.772C68.2082 211.14 68.3562 210.572 68.6522 210.068C68.9562 209.556 69.3682 209.16 69.8882 208.88C70.4162 208.592 71.0042 208.448 71.6522 208.448C72.2842 208.448 72.8562 208.584 73.3682 208.856C73.8802 209.128 74.2802 209.52 74.5682 210.032C74.8642 210.536 75.0122 211.124 75.0122 211.796ZM71.6642 209.864C71.2402 209.864 70.8842 209.984 70.5962 210.224C70.3082 210.464 70.1322 210.792 70.0682 211.208H73.2482C73.1842 210.8 73.0082 210.476 72.7202 210.236C72.4322 209.988 72.0802 209.864 71.6642 209.864ZM78.4305 215.096C77.8945 215.096 77.3705 215.032 76.8585 214.904C76.3465 214.768 75.9385 214.6 75.6345 214.4L76.2585 213.056C76.5465 213.24 76.8945 213.392 77.3025 213.512C77.7105 213.624 78.1105 213.68 78.5025 213.68C79.2945 213.68 79.6905 213.484 79.6905 213.092C79.6905 212.908 79.5825 212.776 79.3665 212.696C79.1505 212.616 78.8185 212.548 78.3705 212.492C77.8425 212.412 77.4065 212.32 77.0625 212.216C76.7185 212.112 76.4185 211.928 76.1625 211.664C75.9145 211.4 75.7905 211.024 75.7905 210.536C75.7905 210.128 75.9065 209.768 76.1385 209.456C76.3785 209.136 76.7225 208.888 77.1705 208.712C77.6265 208.536 78.1625 208.448 78.7785 208.448C79.2345 208.448 79.6865 208.5 80.1345 208.604C80.5905 208.7 80.9665 208.836 81.2625 209.012L80.6385 210.344C80.0705 210.024 79.4505 209.864 78.7785 209.864C78.3785 209.864 78.0785 209.92 77.8785 210.032C77.6785 210.144 77.5785 210.288 77.5785 210.464C77.5785 210.664 77.6865 210.804 77.9025 210.884C78.1185 210.964 78.4625 211.04 78.9345 211.112C79.4625 211.2 79.8945 211.296 80.2305 211.4C80.5665 211.496 80.8585 211.676 81.1065 211.94C81.3545 212.204 81.4785 212.572 81.4785 213.044C81.4785 213.444 81.3585 213.8 81.1185 214.112C80.8785 214.424 80.5265 214.668 80.0625 214.844C79.6065 215.012 79.0625 215.096 78.4305 215.096ZM86.7975 214.688C86.6135 214.824 86.3855 214.928 86.1135 215C85.8495 215.064 85.5695 215.096 85.2735 215.096C84.5055 215.096 83.9095 214.9 83.4855 214.508C83.0695 214.116 82.8615 213.54 82.8615 212.78V210.128H81.8655V208.688H82.8615V207.116H84.7335V208.688H86.3415V210.128H84.7335V212.756C84.7335 213.028 84.8015 213.24 84.9375 213.392C85.0815 213.536 85.2815 213.608 85.5375 213.608C85.8335 213.608 86.0855 213.528 86.2935 213.368L86.7975 214.688ZM90.4524 208.448C91.4524 208.448 92.2204 208.688 92.7564 209.168C93.2924 209.64 93.5604 210.356 93.5604 211.316V215H91.8084V214.196C91.4564 214.796 90.8004 215.096 89.8404 215.096C89.3444 215.096 88.9124 215.012 88.5444 214.844C88.1844 214.676 87.9084 214.444 87.7164 214.148C87.5244 213.852 87.4284 213.516 87.4284 213.14C87.4284 212.54 87.6524 212.068 88.1004 211.724C88.5564 211.38 89.2564 211.208 90.2004 211.208H91.6884C91.6884 210.8 91.5644 210.488 91.3164 210.272C91.0684 210.048 90.6964 209.936 90.2004 209.936C89.8564 209.936 89.5164 209.992 89.1804 210.104C88.8524 210.208 88.5724 210.352 88.3404 210.536L87.6684 209.228C88.0204 208.98 88.4404 208.788 88.9284 208.652C89.4244 208.516 89.9324 208.448 90.4524 208.448ZM90.3084 213.836C90.6284 213.836 90.9124 213.764 91.1604 213.62C91.4084 213.468 91.5844 213.248 91.6884 212.96V212.3H90.4044C89.6364 212.3 89.2524 212.552 89.2524 213.056C89.2524 213.296 89.3444 213.488 89.5284 213.632C89.7204 213.768 89.9804 213.836 90.3084 213.836ZM97.0426 209.396C97.2666 209.084 97.5666 208.848 97.9426 208.688C98.3266 208.528 98.7666 208.448 99.2626 208.448V210.176C99.0546 210.16 98.9146 210.152 98.8426 210.152C98.3066 210.152 97.8866 210.304 97.5826 210.608C97.2786 210.904 97.1266 211.352 97.1266 211.952V215H95.2546V208.544H97.0426V209.396Z" fill="#333333"/>
<path fill-rule="evenodd" clip-rule="evenodd" d="M265 167.985C265 157 256 147.993 245 147.993C183.172 147.993 158 148 158 148L150 156H113L104 148H69.1467C58.1467 148 49.1467 157 49.1467 167.992C49.1467 168 49.1467 168.007 49.1467 168.015C49.1467 179 58.1467 188 69.1467 188C85.7097 188 104 188 104 188L113 196H150L158 188H245.147C256 188 265 179 265 168.008C265 168 265 168.5 265 167.985Z" fill="#30DCFF"/>
<path fill-rule="evenodd" clip-rule="evenodd" d="M265 167.989C265 157 256 148 244.853 148C183.025 148 158 148 158 148L150 156H113L104 148H69C58 148 49 157 49 167.989C49 167.996 49 168 49 168H54C54 158 61 153 69 153C83.6641 153 102 153 102 153L111 161H152L160 153H245C254 153 260 159 260 168L265 168V167.989Z" fill="#93EDFF"/>
<path fill-rule="evenodd" clip-rule="evenodd" d="M265 168L260 168C260 176.971 254.197 183 245 183C187.995 183 156 183 156 183L148 191H115L106 183H69C58.4962 183 54 177 54 168.001L49 168V168.011C49 179 58 188 69 188C85.563 188 104 188 104 188L113 196H150L158 188H245C256 188 265 179 265 168Z" fill="#08A0BF"/>
<rect x="64" y="156" width="23" height="23" rx="5" fill="#F2F2F2"/>
<path d="M73.29 163.6V172H71.346V165.16H69.666V163.6H73.29ZM77.6293 166.756C78.8133 166.756 79.6853 166.992 80.2453 167.464C80.8133 167.936 81.0973 168.568 81.0973 169.36C81.0973 169.872 80.9693 170.34 80.7133 170.764C80.4573 171.18 80.0653 171.516 79.5373 171.772C79.0173 172.02 78.3733 172.144 77.6053 172.144C77.0133 172.144 76.4293 172.068 75.8533 171.916C75.2853 171.756 74.8013 171.532 74.4013 171.244L75.1693 169.756C75.4893 169.996 75.8573 170.184 76.2733 170.32C76.6893 170.448 77.1173 170.512 77.5573 170.512C78.0453 170.512 78.4293 170.416 78.7093 170.224C78.9893 170.032 79.1293 169.764 79.1293 169.42C79.1293 169.06 78.9813 168.788 78.6853 168.604C78.3973 168.42 77.8933 168.328 77.1733 168.328H75.0253L75.4573 163.6H80.5813V165.16H77.0773L76.9453 166.756H77.6293Z" fill="#333333"/>
<path fill-rule="evenodd" clip-rule="evenodd" d="M265 247.985C265 237 256 227.993 245 227.993C183.172 227.993 158 228 158 228L150 236H113L104 228H69.1467C58.1467 228 49.1467 237 49.1467 247.992C49.1467 248 49.1467 248.007 49.1467 248.015C49.1467 259 58.1467 268 69.1467 268C85.7097 268 104 268 104 268L113 276H150L158 268H245.147C256 268 265 259 265 248.008C265 248 265 248.5 265 247.985Z" fill="#30DCFF"/>
<path fill-rule="evenodd" clip-rule="evenodd" d="M265 247.989C265 237 256 228 244.853 228C183.025 228 158 228 158 228L150 236H113L104 228H69C58 228 49 237 49 247.989C49 247.996 49 248 49 248H54C54 238 61 233 69 233C83.6641 233 102 233 102 233L111 241H152L160 233H245C254 233 260 239 260 248L265 248V247.989Z" fill="#93EDFF"/>
<path fill-rule="evenodd" clip-rule="evenodd" d="M265 248L260 248C260 256.971 254.197 263 245 263C187.995 263 156 263 156 263L148 271H115L106 263H69C58.4962 263 54 257 54 248.001L49 248V248.011C49 259 58 268 69 268C85.563 268 104 268 104 268L113 276H150L158 268H245C256 268 265 259 265 248Z" fill="#08A0BF"/>
<rect x="64" y="236" width="23" height="23" rx="5" fill="#F2F2F2"/>
<path d="M75.1366 250.416V252H68.7886V250.74L72.0286 247.68C72.3726 247.352 72.6046 247.072 72.7246 246.84C72.8446 246.6 72.9046 246.364 72.9046 246.132C72.9046 245.796 72.7886 245.54 72.5566 245.364C72.3326 245.18 72.0006 245.088 71.5606 245.088C71.1926 245.088 70.8606 245.16 70.5646 245.304C70.2686 245.44 70.0206 245.648 69.8206 245.928L68.4046 245.016C68.7326 244.528 69.1846 244.148 69.7606 243.876C70.3366 243.596 70.9966 243.456 71.7406 243.456C72.3646 243.456 72.9086 243.56 73.3726 243.768C73.8446 243.968 74.2086 244.256 74.4646 244.632C74.7286 245 74.8606 245.436 74.8606 245.94C74.8606 246.396 74.7646 246.824 74.5726 247.224C74.3806 247.624 74.0086 248.08 73.4566 248.592L71.5246 250.416H75.1366ZM78.8187 246.756C80.0027 246.756 80.8747 246.992 81.4347 247.464C82.0027 247.936 82.2867 248.568 82.2867 249.36C82.2867 249.872 82.1587 250.34 81.9027 250.764C81.6467 251.18 81.2547 251.516 80.7267 251.772C80.2067 252.02 79.5627 252.144 78.7947 252.144C78.2027 252.144 77.6187 252.068 77.0427 251.916C76.4747 251.756 75.9907 251.532 75.5907 251.244L76.3587 249.756C76.6787 249.996 77.0467 250.184 77.4627 250.32C77.8787 250.448 78.3067 250.512 78.7467 250.512C79.2347 250.512 79.6187 250.416 79.8987 250.224C80.1787 250.032 80.3187 249.764 80.3187 249.42C80.3187 249.06 80.1707 248.788 79.8747 248.604C79.5867 248.42 79.0827 248.328 78.3627 248.328H76.2147L76.6467 243.6H81.7707V245.16H78.2667L78.1347 246.756H78.8187Z" fill="#333333"/>
<path fill-rule="evenodd" clip-rule="evenodd" d="M265 87.9851C265 77 256 67.9927 245 67.9927C183.172 67.9927 158 68 158 68L150 76.0001H113L104 67.9998H69.1467C58.1467 67.9998 49.1467 77 49.1467 87.9924C49.1467 87.9997 49.1467 88.0072 49.1467 88.0148C49.1467 99 58.1467 108 69.1467 108C85.7097 108 104 108 104 108L113 116H150L158 108H245.147C256 108 265 99 265 88.0076C265 88 265 88.5 265 87.9851Z" fill="#30DCFF"/>
<path fill-rule="evenodd" clip-rule="evenodd" d="M265 87.9888C265 77 256 68 244.853 68C183.025 68 158 68.0001 158 68.0001L150 76H113L104 68.0001H69C58 68.0001 49 77.0001 49 87.9888C49 87.9962 49 88.0001 49 88.0001H54C54 78 61 73.0001 69 73.0001C83.6641 73.0001 102 73 102 73L111 81H152L160 73H245C254 73 260 79 260 87.9998L265 88V87.9888Z" fill="#93EDFF"/>
<path fill-rule="evenodd" clip-rule="evenodd" d="M265 87.9999L260 87.9999C260 96.9711 254.197 103 245 103C187.995 103 156 103 156 103L148 111H115L106 103H69C58.4962 103 54 96.9999 54 88.0014L49 87.9999V88.0112C49 98.9999 58 108 69 108C85.563 108 104 108 104 108L113 116H150L158 108H245C256 108 265 98.9999 265 87.9999Z" fill="#08A0BF"/>
<rect x="64" y="76" width="23" height="23" rx="5" fill="#F2F2F2"/>
<path d="M75.2796 86.756C76.4636 86.756 77.3356 86.992 77.8956 87.464C78.4636 87.936 78.7476 88.568 78.7476 89.36C78.7476 89.872 78.6196 90.34 78.3636 90.764C78.1076 91.18 77.7156 91.516 77.1876 91.772C76.6676 92.02 76.0236 92.144 75.2556 92.144C74.6636 92.144 74.0796 92.068 73.5036 91.916C72.9356 91.756 72.4516 91.532 72.0516 91.244L72.8196 89.756C73.1396 89.996 73.5076 90.184 73.9236 90.32C74.3396 90.448 74.7676 90.512 75.2076 90.512C75.6956 90.512 76.0796 90.416 76.3596 90.224C76.6396 90.032 76.7796 89.764 76.7796 89.42C76.7796 89.06 76.6316 88.788 76.3356 88.604C76.0476 88.42 75.5436 88.328 74.8236 88.328H72.6756L73.1076 83.6H78.2316V85.16H74.7276L74.5956 86.756H75.2796Z" fill="#333333"/>
</g>
<defs>
<filter id="filter0_d_4415_112640" x="0" y="0" width="280" height="284" filterUnits="userSpaceOnUse" color-interpolation-filters="sRGB">
<feFlood flood-opacity="0" result="BackgroundImageFix"/>
<feColorMatrix in="SourceAlpha" type="matrix" values="0 0 0 0 0 0 0 0 0 0 0 0 0 0 0 0 0 0 127 0" result="hardAlpha"/>
<feOffset dy="4"/>
<feColorMatrix type="matrix" values="0 0 0 0 0 0 0 0 0 0 0 0 0 0 0 0 0 0 0.25 0"/>
<feBlend mode="normal" in2="BackgroundImageFix" result="effect1_dropShadow_4415_112640"/>
<feBlend mode="normal" in="SourceGraphic" in2="effect1_dropShadow_4415_112640" result="shape"/>
</filter>
</defs>
</svg>
