<svg width="180" height="184" viewBox="0 0 180 184" fill="none" xmlns="http://www.w3.org/2000/svg">
<g id="Reir">
<rect id="bg" width="180" height="180" rx="10"/>
<g id="&#195;&#129;tomo_IDE_ContenedorTop">
<g id="Group">
<path id="Vector" fill-rule="evenodd" clip-rule="evenodd" d="M12 140H27V138.009C27 135.357 28.0338 132.813 29.874 130.938C31.7142 129.062 34.2101 128.009 36.8125 128.009H51.6818L56 132H72.5L76.8182 128.009C76.8182 128.009 135.057 128.026 159.185 128.032C161.788 128.033 164.284 126.98 166.125 125.104C167.966 123.229 169 120.684 169 118.032C169 118.021 169 118.01 169 117.999C169 112.477 164.607 108 159.187 108C135.062 108 77 107.991 77 107.991L73 111.991L56 111.991L52 108H21.8125C19.2101 108 16.7142 109.054 14.874 110.929C13.0338 112.804 12 115.348 12 118V140Z" fill="#FFDE6C"/>
<path id="Vector_2" fill-rule="evenodd" clip-rule="evenodd" d="M168.999 117.999C168.999 115.347 167.966 112.804 166.126 110.929C164.286 109.054 161.79 108 159.188 108C135.063 108 77 108 77 108L72.9814 111.991H55.9629L52 108H21.8277C19.2212 108 16.7215 109.055 14.8785 110.933C13.0354 112.812 12 115.359 12 118.015C12 127.402 12 140 12 140H14.355V118.014C14.355 113.684 17.7992 110.174 22.048 110.174C32.604 110.174 51.0362 110.174 51.0362 110.174L55 114.165H73.9597L77.9814 110.174H158.966C161.002 110.174 162.956 110.998 164.396 112.466C165.836 113.934 166.645 115.924 166.645 118L168.999 117.999Z" fill="#FFF0BD"/>
<path id="Vector_3" fill-rule="evenodd" clip-rule="evenodd" d="M168.997 118.002H166.642C166.642 120.079 165.832 122.071 164.391 123.54C162.95 125.008 160.996 125.833 158.958 125.833C136.711 125.833 76 125.833 76 125.833L71.5 129.821H56.9756L52.4756 125.83H36.7765C30.0765 125.83 24.645 131.365 24.645 138.193C24.645 139.291 24.645 139.998 24.645 139.998H27V138.006C27 135.354 28.0338 132.811 29.874 130.935C31.7142 129.06 34.2101 128.006 36.8125 128.006C43.2755 128.006 51.5001 128.006 51.5001 128.006L56.0001 131.998H72.4754L76.9754 128.01C76.9754 128.01 135.054 128.025 159.182 128.031C161.784 128.032 164.281 126.978 166.122 125.103C167.962 123.228 168.996 120.684 168.997 118.031C168.997 118.012 168.997 118.002 168.997 118.002Z" fill="#EBC541"/>
<path id="Repetir" d="M24.232 123L23.152 121.44H23.088H21.96V123H20.664V117.4H23.088C23.584 117.4 24.0133 117.483 24.376 117.648C24.744 117.813 25.0267 118.048 25.224 118.352C25.4213 118.656 25.52 119.016 25.52 119.432C25.52 119.848 25.4187 120.208 25.216 120.512C25.0187 120.811 24.736 121.04 24.368 121.2L25.624 123H24.232ZM24.208 119.432C24.208 119.117 24.1067 118.877 23.904 118.712C23.7013 118.541 23.4053 118.456 23.016 118.456H21.96V120.408H23.016C23.4053 120.408 23.7013 120.323 23.904 120.152C24.1067 119.981 24.208 119.741 24.208 119.432ZM30.6748 120.864C30.6748 120.88 30.6668 120.992 30.6508 121.2H27.3948C27.4535 121.467 27.5921 121.677 27.8108 121.832C28.0295 121.987 28.3015 122.064 28.6268 122.064C28.8508 122.064 29.0481 122.032 29.2188 121.968C29.3948 121.899 29.5575 121.792 29.7068 121.648L30.3708 122.368C29.9655 122.832 29.3735 123.064 28.5948 123.064C28.1095 123.064 27.6801 122.971 27.3068 122.784C26.9335 122.592 26.6455 122.328 26.4428 121.992C26.2401 121.656 26.1388 121.275 26.1388 120.848C26.1388 120.427 26.2375 120.048 26.4348 119.712C26.6375 119.371 26.9121 119.107 27.2588 118.92C27.6108 118.728 28.0028 118.632 28.4348 118.632C28.8561 118.632 29.2375 118.723 29.5788 118.904C29.9201 119.085 30.1868 119.347 30.3788 119.688C30.5761 120.024 30.6748 120.416 30.6748 120.864ZM28.4428 119.576C28.1601 119.576 27.9228 119.656 27.7308 119.816C27.5388 119.976 27.4215 120.195 27.3788 120.472H29.4988C29.4561 120.2 29.3388 119.984 29.1468 119.824C28.9548 119.659 28.7201 119.576 28.4428 119.576ZM34.0497 118.632C34.4497 118.632 34.8124 118.725 35.1377 118.912C35.4684 119.093 35.727 119.352 35.9137 119.688C36.1004 120.019 36.1937 120.405 36.1937 120.848C36.1937 121.291 36.1004 121.68 35.9137 122.016C35.727 122.347 35.4684 122.605 35.1377 122.792C34.8124 122.973 34.4497 123.064 34.0497 123.064C33.5004 123.064 33.0684 122.891 32.7537 122.544V124.552H31.5057V118.696H32.6977V119.192C33.007 118.819 33.4577 118.632 34.0497 118.632ZM33.8337 122.04C34.1537 122.04 34.415 121.933 34.6177 121.72C34.8257 121.501 34.9297 121.211 34.9297 120.848C34.9297 120.485 34.8257 120.197 34.6177 119.984C34.415 119.765 34.1537 119.656 33.8337 119.656C33.5137 119.656 33.2497 119.765 33.0417 119.984C32.839 120.197 32.7377 120.485 32.7377 120.848C32.7377 121.211 32.839 121.501 33.0417 121.72C33.2497 121.933 33.5137 122.04 33.8337 122.04ZM41.2451 120.864C41.2451 120.88 41.2371 120.992 41.2211 121.2H37.9651C38.0238 121.467 38.1625 121.677 38.3811 121.832C38.5998 121.987 38.8718 122.064 39.1971 122.064C39.4211 122.064 39.6185 122.032 39.7891 121.968C39.9651 121.899 40.1278 121.792 40.2771 121.648L40.9411 122.368C40.5358 122.832 39.9438 123.064 39.1651 123.064C38.6798 123.064 38.2505 122.971 37.8771 122.784C37.5038 122.592 37.2158 122.328 37.0131 121.992C36.8105 121.656 36.7091 121.275 36.7091 120.848C36.7091 120.427 36.8078 120.048 37.0051 119.712C37.2078 119.371 37.4825 119.107 37.8291 118.92C38.1811 118.728 38.5731 118.632 39.0051 118.632C39.4265 118.632 39.8078 118.723 40.1491 118.904C40.4905 119.085 40.7571 119.347 40.9491 119.688C41.1465 120.024 41.2451 120.416 41.2451 120.864ZM39.0131 119.576C38.7305 119.576 38.4931 119.656 38.3011 119.816C38.1091 119.976 37.9918 120.195 37.9491 120.472H40.0691C40.0265 120.2 39.9091 119.984 39.7171 119.824C39.5251 119.659 39.2905 119.576 39.0131 119.576ZM44.852 122.792C44.7293 122.883 44.5773 122.952 44.396 123C44.22 123.043 44.0333 123.064 43.836 123.064C43.324 123.064 42.9267 122.933 42.644 122.672C42.3667 122.411 42.228 122.027 42.228 121.52V119.752H41.564V118.792H42.228V117.744H43.476V118.792H44.548V119.752H43.476V121.504C43.476 121.685 43.5213 121.827 43.612 121.928C43.708 122.024 43.8413 122.072 44.012 122.072C44.2093 122.072 44.3773 122.019 44.516 121.912L44.852 122.792ZM45.5526 118.696H46.8006V123H45.5526V118.696ZM46.1766 118.096C45.9472 118.096 45.7606 118.029 45.6166 117.896C45.4726 117.763 45.4006 117.597 45.4006 117.4C45.4006 117.203 45.4726 117.037 45.6166 116.904C45.7606 116.771 45.9472 116.704 46.1766 116.704C46.4059 116.704 46.5926 116.768 46.7366 116.896C46.8806 117.024 46.9526 117.184 46.9526 117.376C46.9526 117.584 46.8806 117.757 46.7366 117.896C46.5926 118.029 46.4059 118.096 46.1766 118.096ZM49.1508 119.264C49.3001 119.056 49.5001 118.899 49.7508 118.792C50.0068 118.685 50.3001 118.632 50.6308 118.632V119.784C50.4921 119.773 50.3988 119.768 50.3508 119.768C49.9935 119.768 49.7135 119.869 49.5108 120.072C49.3081 120.269 49.2068 120.568 49.2068 120.968V123H47.9588V118.696H49.1508V119.264Z" fill="#333333"/>
<rect id="Rectangle 27" x="58" y="114" width="13" height="13" rx="5" fill="#F2F2F2"/>
<path id="3" d="M65.3412 120.02C66.0772 120.14 66.6412 120.416 67.0332 120.848C67.4252 121.272 67.6212 121.8 67.6212 122.432C67.6212 122.92 67.4932 123.372 67.2372 123.788C66.9812 124.196 66.5892 124.524 66.0612 124.772C65.5412 125.02 64.9012 125.144 64.1412 125.144C63.5492 125.144 62.9652 125.068 62.3892 124.916C61.8212 124.756 61.3372 124.532 60.9372 124.244L61.6932 122.756C62.0132 122.996 62.3812 123.184 62.7972 123.32C63.2212 123.448 63.6532 123.512 64.0932 123.512C64.5812 123.512 64.9652 123.42 65.2452 123.236C65.5252 123.044 65.6652 122.776 65.6652 122.432C65.6652 121.744 65.1412 121.4 64.0932 121.4H63.2052V120.116L64.9332 118.16H61.3572V116.6H67.2372V117.86L65.3412 120.02Z" fill="#008E86"/>
<path id="veces" d="M81.848 118.696L80.032 123H78.744L76.936 118.696H78.224L79.416 121.624L80.648 118.696H81.848ZM86.4561 120.864C86.4561 120.88 86.4481 120.992 86.4321 121.2H83.1761C83.2347 121.467 83.3734 121.677 83.5921 121.832C83.8107 121.987 84.0827 122.064 84.4081 122.064C84.6321 122.064 84.8294 122.032 85.0001 121.968C85.1761 121.899 85.3387 121.792 85.4881 121.648L86.1521 122.368C85.7467 122.832 85.1547 123.064 84.3761 123.064C83.8907 123.064 83.4614 122.971 83.0881 122.784C82.7147 122.592 82.4267 122.328 82.2241 121.992C82.0214 121.656 81.9201 121.275 81.9201 120.848C81.9201 120.427 82.0187 120.048 82.2161 119.712C82.4187 119.371 82.6934 119.107 83.0401 118.92C83.3921 118.728 83.7841 118.632 84.2161 118.632C84.6374 118.632 85.0187 118.723 85.3601 118.904C85.7014 119.085 85.9681 119.347 86.1601 119.688C86.3574 120.024 86.4561 120.416 86.4561 120.864ZM84.2241 119.576C83.9414 119.576 83.7041 119.656 83.5121 119.816C83.3201 119.976 83.2027 120.195 83.1601 120.472H85.2801C85.2374 120.2 85.1201 119.984 84.9281 119.824C84.7361 119.659 84.5014 119.576 84.2241 119.576ZM89.3669 123.064C88.9083 123.064 88.4949 122.971 88.1269 122.784C87.7643 122.592 87.4789 122.328 87.2709 121.992C87.0683 121.656 86.9669 121.275 86.9669 120.848C86.9669 120.421 87.0683 120.04 87.2709 119.704C87.4789 119.368 87.7643 119.107 88.1269 118.92C88.4949 118.728 88.9083 118.632 89.3669 118.632C89.8203 118.632 90.2149 118.728 90.5509 118.92C90.8923 119.107 91.1403 119.376 91.2949 119.728L90.3269 120.248C90.1029 119.853 89.7803 119.656 89.3589 119.656C89.0336 119.656 88.7643 119.763 88.5509 119.976C88.3376 120.189 88.2309 120.48 88.2309 120.848C88.2309 121.216 88.3376 121.507 88.5509 121.72C88.7643 121.933 89.0336 122.04 89.3589 122.04C89.7856 122.04 90.1083 121.843 90.3269 121.448L91.2949 121.976C91.1403 122.317 90.8923 122.584 90.5509 122.776C90.2149 122.968 89.8203 123.064 89.3669 123.064ZM96.1748 120.864C96.1748 120.88 96.1668 120.992 96.1508 121.2H92.8948C92.9535 121.467 93.0921 121.677 93.3108 121.832C93.5295 121.987 93.8015 122.064 94.1268 122.064C94.3508 122.064 94.5481 122.032 94.7188 121.968C94.8948 121.899 95.0575 121.792 95.2068 121.648L95.8708 122.368C95.4655 122.832 94.8735 123.064 94.0948 123.064C93.6095 123.064 93.1801 122.971 92.8068 122.784C92.4335 122.592 92.1455 122.328 91.9428 121.992C91.7401 121.656 91.6388 121.275 91.6388 120.848C91.6388 120.427 91.7375 120.048 91.9348 119.712C92.1375 119.371 92.4121 119.107 92.7588 118.92C93.1108 118.728 93.5028 118.632 93.9348 118.632C94.3561 118.632 94.7375 118.723 95.0788 118.904C95.4201 119.085 95.6868 119.347 95.8788 119.688C96.0761 120.024 96.1748 120.416 96.1748 120.864ZM93.9428 119.576C93.6601 119.576 93.4228 119.656 93.2308 119.816C93.0388 119.976 92.9215 120.195 92.8788 120.472H94.9988C94.9561 120.2 94.8388 119.984 94.6468 119.824C94.4548 119.659 94.2201 119.576 93.9428 119.576ZM98.4537 123.064C98.0964 123.064 97.747 123.021 97.4057 122.936C97.0644 122.845 96.7924 122.733 96.5897 122.6L97.0057 121.704C97.1977 121.827 97.4297 121.928 97.7017 122.008C97.9737 122.083 98.2404 122.12 98.5017 122.12C99.0297 122.12 99.2937 121.989 99.2937 121.728C99.2937 121.605 99.2217 121.517 99.0777 121.464C98.9337 121.411 98.7124 121.365 98.4137 121.328C98.0617 121.275 97.771 121.213 97.5417 121.144C97.3124 121.075 97.1124 120.952 96.9417 120.776C96.7764 120.6 96.6937 120.349 96.6937 120.024C96.6937 119.752 96.771 119.512 96.9257 119.304C97.0857 119.091 97.315 118.925 97.6137 118.808C97.9177 118.691 98.275 118.632 98.6857 118.632C98.9897 118.632 99.291 118.667 99.5897 118.736C99.8937 118.8 100.144 118.891 100.342 119.008L99.9257 119.896C99.547 119.683 99.1337 119.576 98.6857 119.576C98.419 119.576 98.219 119.613 98.0857 119.688C97.9524 119.763 97.8857 119.859 97.8857 119.976C97.8857 120.109 97.9577 120.203 98.1017 120.256C98.2457 120.309 98.475 120.36 98.7897 120.408C99.1417 120.467 99.4297 120.531 99.6537 120.6C99.8777 120.664 100.072 120.784 100.238 120.96C100.403 121.136 100.486 121.381 100.486 121.696C100.486 121.963 100.406 122.2 100.246 122.408C100.086 122.616 99.851 122.779 99.5417 122.896C99.2377 123.008 98.875 123.064 98.4537 123.064Z" fill="#333333"/>
</g>
</g>
<g id="&#195;&#129;tomo_IDE_ContenedorBase">
<g id="Group_2">
<path id="Vector_4" fill-rule="evenodd" clip-rule="evenodd" d="M27 137H12V158.971C12 164.488 16.3856 168.964 21.8 168.971C33.4255 168.986 52 169.009 52 169.009L56.3182 173H72.6819L77.0001 169.009H159.187C161.79 169.009 164.286 167.955 166.126 166.08C167.966 164.204 169 161.661 169 159.008C169 159.005 169 159.002 169 158.999C169 153.477 164.607 149 159.187 149C135.062 149 77 149 77 149L72.6849 152.991H56.3182L52 149H36.8125C34.2101 149 31.7142 147.946 29.874 146.071C28.0338 144.196 27 141.652 27 139V137Z" fill="#FFDE6C"/>
<path id="Vector_5" fill-rule="evenodd" clip-rule="evenodd" d="M168.996 158.999C168.996 156.347 167.962 153.804 166.122 151.929C164.282 150.053 161.787 149 159.184 149C135.059 149 77.0001 149 77.0001 149L72.6818 152.991H56.3183L52.0001 149L36.9302 149C31.5109 149 27.1177 144.523 27.1177 139C27.1177 137.806 27.1177 137 27.1177 137H24.7627C24.7627 137 24.7627 137.879 24.7627 139.198C24.7627 145.804 30.0177 151.16 36.5 151.16C42.9699 151.16 51.0363 151.16 51.0363 151.16L55.3545 155.165H73.6632L77.9814 151.174C77.9814 151.174 137.049 151.177 158.958 151.178C163.198 151.179 166.637 154.679 166.642 159L168.996 158.999Z" fill="#FFF0BD"/>
<path id="Vector_6" fill-rule="evenodd" clip-rule="evenodd" d="M169 159H166.645C166.645 161.077 165.835 163.069 164.394 164.538C162.953 166.007 160.998 166.832 158.96 166.832C136.712 166.832 76.0053 166.832 76.0053 166.832L71.6871 170.823H56.5436L52.2254 166.832H22.0402C17.7957 166.832 14.355 163.326 14.355 159C14.355 150.161 14.355 137 14.355 137H12C12 137 12 149.623 12 159.016C12 161.669 13.0338 164.212 14.874 166.088C16.7142 167.963 19.2101 169.016 21.8125 169.016C33.4326 169.016 51.2308 169.016 51.2308 169.016L55.5681 173H72.6626L77 169.016H159.187C164.606 169.016 169 164.54 169 159.017C169 159.006 169 159 169 159Z" fill="#EBC541"/>
</g>
</g>
<g id="Cuando">
<g id="&#195;&#129;tomo_IDE_Cabezote3">
<g id="&#195;&#129;tomo_IDE_Cabezote1">
<g id="1">
<path id="Vector_7" fill-rule="evenodd" clip-rule="evenodd" d="M169.22 32.3182C169.22 26.5922 164.531 21.9505 158.747 21.9505C140.439 21.9505 111.658 21.9505 98.5207 21.9505C95.8392 21.9504 93.2599 20.932 91.3143 19.1053C86.9544 15.0187 75.9488 8 51.8916 8C17.9749 8 10 21.9505 10 21.9505C10 21.9505 10.0002 28.7144 10.0003 34.9667C10.0004 40.6928 14.6893 45.3346 20.4732 45.3346C32.8812 45.3346 51.8913 45.3346 51.8913 45.3346L56.5001 49.4728H72.4206L77.0263 45.3346C77.0263 45.3346 132.997 45.3346 158.747 45.3346C161.525 45.3346 164.189 44.2422 166.153 42.2977C168.117 40.3532 169.22 37.7158 169.22 34.966C169.22 34.0867 169.22 33.1974 169.22 32.3182Z" fill="#FC79FF"/>
<path id="Vector_8" fill-rule="evenodd" clip-rule="evenodd" d="M169.22 33.4394H166.707V33.8785C166.707 36.2592 165.751 38.5423 164.051 40.2257C162.351 41.9091 160.044 42.8548 157.64 42.8548H75.9852L71.3794 46.9929H57.5413L52.9325 42.8548C52.9325 42.8548 33.4971 42.8548 21.5805 42.8548C19.1758 42.8548 16.8696 41.9091 15.1692 40.2257C13.4688 38.5423 12.5135 36.2592 12.5135 33.8785V33.4394H10V34.9827C10 37.7325 11.1034 40.3697 13.0675 42.3142C15.0315 44.2586 17.6953 45.3509 20.4729 45.3509C32.8811 45.3509 51.8913 45.3509 51.8913 45.3509L56.5001 49.489H72.4206L77.0263 45.3509H158.747C164.531 45.3509 169.22 40.7091 169.22 34.9829C169.22 34.0449 169.22 33.4394 169.22 33.4394Z" fill="#CD5ACF"/>
<path id="Vector_9" fill-rule="evenodd" clip-rule="evenodd" d="M10 33.4232H12.5135V23.1985C12.5135 23.1985 19.3642 10.496 51.8819 10.496C73.9643 10.496 85.0076 16.9654 89.6736 20.8874C91.9226 22.7793 94.7717 23.8281 97.7227 23.8506C111.426 23.9617 140.331 24.2455 157.64 24.3774C162.659 24.4156 166.707 28.4541 166.707 33.4224V33.4232H169.22V32.3187C169.22 26.5925 164.531 21.9505 158.747 21.9505C140.442 21.9505 111.671 21.9505 98.5276 21.9505C95.8436 21.9504 93.2621 20.9301 91.3159 19.1003C86.9616 15.013 75.967 8 51.8916 8C17.9356 8 10.0003 21.9505 10.0003 21.9505L10 33.4232Z" fill="#FDACFF"/>
</g>
</g>
</g>
<path id="Cuando: presionar bot&#195;&#179;n animar." d="M23.8191 35.951C23.2484 35.951 22.7311 35.8284 22.2671 35.583C21.8084 35.3324 21.4458 34.9884 21.1791 34.551C20.9178 34.1084 20.7871 33.6097 20.7871 33.055C20.7871 32.5004 20.9178 32.0044 21.1791 31.567C21.4458 31.1244 21.8084 30.7804 22.2671 30.535C22.7311 30.2844 23.2511 30.159 23.8271 30.159C24.3124 30.159 24.7498 30.2444 25.1391 30.415C25.5338 30.5857 25.8644 30.831 26.1311 31.151L25.2991 31.919C24.9204 31.4817 24.4511 31.263 23.8911 31.263C23.5444 31.263 23.2351 31.3404 22.9631 31.495C22.6911 31.6444 22.4778 31.855 22.3231 32.127C22.1738 32.399 22.0991 32.7084 22.0991 33.055C22.0991 33.4017 22.1738 33.711 22.3231 33.983C22.4778 34.255 22.6911 34.4684 22.9631 34.623C23.2351 34.7724 23.5444 34.847 23.8911 34.847C24.4511 34.847 24.9204 34.6257 25.2991 34.183L26.1311 34.951C25.8644 35.2764 25.5338 35.5244 25.1391 35.695C24.7444 35.8657 24.3044 35.951 23.8191 35.951ZM31.1449 31.551V35.855H29.9609V35.343C29.7956 35.5297 29.5982 35.6737 29.3689 35.775C29.1396 35.871 28.8916 35.919 28.6249 35.919C28.0596 35.919 27.6116 35.7564 27.2809 35.431C26.9502 35.1057 26.7849 34.623 26.7849 33.983V31.551H28.0329V33.799C28.0329 34.4924 28.3236 34.839 28.9049 34.839C29.2036 34.839 29.4436 34.743 29.6249 34.551C29.8062 34.3537 29.8969 34.063 29.8969 33.679V31.551H31.1449ZM34.0371 31.487C34.7038 31.487 35.2158 31.647 35.5731 31.967C35.9304 32.2817 36.1091 32.759 36.1091 33.399V35.855H34.9411V35.319C34.7064 35.719 34.2691 35.919 33.6291 35.919C33.2984 35.919 33.0104 35.863 32.7651 35.751C32.5251 35.639 32.3411 35.4844 32.2131 35.287C32.0851 35.0897 32.0211 34.8657 32.0211 34.615C32.0211 34.215 32.1704 33.9004 32.4691 33.671C32.7731 33.4417 33.2398 33.327 33.8691 33.327H34.8611C34.8611 33.055 34.7784 32.847 34.6131 32.703C34.4478 32.5537 34.1998 32.479 33.8691 32.479C33.6398 32.479 33.4131 32.5164 33.1891 32.591C32.9704 32.6604 32.7838 32.7564 32.6291 32.879L32.1811 32.007C32.4158 31.8417 32.6958 31.7137 33.0211 31.623C33.3518 31.5324 33.6904 31.487 34.0371 31.487ZM33.9411 35.079C34.1544 35.079 34.3438 35.031 34.5091 34.935C34.6744 34.8337 34.7918 34.687 34.8611 34.495V34.055H34.0051C33.4931 34.055 33.2371 34.223 33.2371 34.559C33.2371 34.719 33.2984 34.847 33.4211 34.943C33.5491 35.0337 33.7224 35.079 33.9411 35.079ZM39.8546 31.487C40.3879 31.487 40.8173 31.647 41.1426 31.967C41.4733 32.287 41.6386 32.7617 41.6386 33.391V35.855H40.3906V33.583C40.3906 33.2417 40.3159 32.9884 40.1666 32.823C40.0173 32.6524 39.8013 32.567 39.5186 32.567C39.2039 32.567 38.9533 32.6657 38.7666 32.863C38.5799 33.055 38.4866 33.343 38.4866 33.727V35.855H37.2386V31.551H38.4306V32.055C38.5959 31.8737 38.8013 31.735 39.0466 31.639C39.2919 31.5377 39.5613 31.487 39.8546 31.487ZM47.2007 29.919V35.855H46.0087V35.359C45.6994 35.7324 45.2514 35.919 44.6647 35.919C44.2594 35.919 43.8914 35.8284 43.5607 35.647C43.2354 35.4657 42.9794 35.207 42.7927 34.871C42.6061 34.535 42.5127 34.1457 42.5127 33.703C42.5127 33.2604 42.6061 32.871 42.7927 32.535C42.9794 32.199 43.2354 31.9404 43.5607 31.759C43.8914 31.5777 44.2594 31.487 44.6647 31.487C45.2141 31.487 45.6434 31.6604 45.9527 32.007V29.919H47.2007ZM44.8807 34.895C45.1954 34.895 45.4567 34.7884 45.6647 34.575C45.8727 34.3564 45.9767 34.0657 45.9767 33.703C45.9767 33.3404 45.8727 33.0524 45.6647 32.839C45.4567 32.6204 45.1954 32.511 44.8807 32.511C44.5607 32.511 44.2967 32.6204 44.0887 32.839C43.8807 33.0524 43.7767 33.3404 43.7767 33.703C43.7767 34.0657 43.8807 34.3564 44.0887 34.575C44.2967 34.7884 44.5607 34.895 44.8807 34.895ZM50.4038 35.919C49.9505 35.919 49.5425 35.8257 49.1798 35.639C48.8225 35.447 48.5425 35.183 48.3398 34.847C48.1371 34.511 48.0358 34.1297 48.0358 33.703C48.0358 33.2764 48.1371 32.895 48.3398 32.559C48.5425 32.223 48.8225 31.9617 49.1798 31.775C49.5425 31.583 49.9505 31.487 50.4038 31.487C50.8571 31.487 51.2625 31.583 51.6198 31.775C51.9771 31.9617 52.2571 32.223 52.4598 32.559C52.6625 32.895 52.7638 33.2764 52.7638 33.703C52.7638 34.1297 52.6625 34.511 52.4598 34.847C52.2571 35.183 51.9771 35.447 51.6198 35.639C51.2625 35.8257 50.8571 35.919 50.4038 35.919ZM50.4038 34.895C50.7238 34.895 50.9851 34.7884 51.1878 34.575C51.3958 34.3564 51.4998 34.0657 51.4998 33.703C51.4998 33.3404 51.3958 33.0524 51.1878 32.839C50.9851 32.6204 50.7238 32.511 50.4038 32.511C50.0838 32.511 49.8198 32.6204 49.6118 32.839C49.4038 33.0524 49.2998 33.3404 49.2998 33.703C49.2998 34.0657 49.4038 34.3564 49.6118 34.575C49.8198 34.7884 50.0838 34.895 50.4038 34.895ZM54.07 33.047C53.8513 33.047 53.6673 32.9724 53.518 32.823C53.3686 32.6737 53.294 32.487 53.294 32.263C53.294 32.0337 53.3686 31.8497 53.518 31.711C53.6673 31.567 53.8513 31.495 54.07 31.495C54.2886 31.495 54.4726 31.567 54.622 31.711C54.7713 31.8497 54.846 32.0337 54.846 32.263C54.846 32.487 54.7713 32.6737 54.622 32.823C54.4726 32.9724 54.2886 33.047 54.07 33.047ZM54.07 35.919C53.8513 35.919 53.6673 35.8444 53.518 35.695C53.3686 35.5457 53.294 35.359 53.294 35.135C53.294 34.9057 53.3686 34.7217 53.518 34.583C53.6673 34.439 53.8513 34.367 54.07 34.367C54.2886 34.367 54.4726 34.439 54.622 34.583C54.7713 34.7217 54.846 34.9057 54.846 35.135C54.846 35.359 54.7713 35.5457 54.622 35.695C54.4726 35.8444 54.2886 35.919 54.07 35.919ZM60.5013 31.487C60.9013 31.487 61.264 31.5804 61.5893 31.767C61.92 31.9484 62.1787 32.207 62.3653 32.543C62.552 32.8737 62.6453 33.2604 62.6453 33.703C62.6453 34.1457 62.552 34.535 62.3653 34.871C62.1787 35.2017 61.92 35.4604 61.5893 35.647C61.264 35.8284 60.9013 35.919 60.5013 35.919C59.952 35.919 59.52 35.7457 59.2053 35.399V37.407H57.9573V31.551H59.1493V32.047C59.4587 31.6737 59.9093 31.487 60.5013 31.487ZM60.2853 34.895C60.6053 34.895 60.8667 34.7884 61.0693 34.575C61.2773 34.3564 61.3813 34.0657 61.3813 33.703C61.3813 33.3404 61.2773 33.0524 61.0693 32.839C60.8667 32.6204 60.6053 32.511 60.2853 32.511C59.9653 32.511 59.7013 32.6204 59.4933 32.839C59.2907 33.0524 59.1893 33.3404 59.1893 33.703C59.1893 34.0657 59.2907 34.3564 59.4933 34.575C59.7013 34.7884 59.9653 34.895 60.2853 34.895ZM64.6728 32.119C64.8221 31.911 65.0221 31.7537 65.2728 31.647C65.5288 31.5404 65.8221 31.487 66.1528 31.487V32.639C66.0141 32.6284 65.9208 32.623 65.8728 32.623C65.5155 32.623 65.2355 32.7244 65.0328 32.927C64.8301 33.1244 64.7288 33.423 64.7288 33.823V35.855H63.4808V31.551H64.6728V32.119ZM71.0718 33.719C71.0718 33.735 71.0638 33.847 71.0478 34.055H67.7918C67.8505 34.3217 67.9891 34.5324 68.2078 34.687C68.4265 34.8417 68.6985 34.919 69.0238 34.919C69.2478 34.919 69.4451 34.887 69.6158 34.823C69.7918 34.7537 69.9545 34.647 70.1038 34.503L70.7678 35.223C70.3625 35.687 69.7705 35.919 68.9918 35.919C68.5065 35.919 68.0771 35.8257 67.7038 35.639C67.3305 35.447 67.0425 35.183 66.8398 34.847C66.6371 34.511 66.5358 34.1297 66.5358 33.703C66.5358 33.2817 66.6345 32.903 66.8318 32.567C67.0345 32.2257 67.3091 31.9617 67.6558 31.775C68.0078 31.583 68.3998 31.487 68.8318 31.487C69.2531 31.487 69.6345 31.5777 69.9758 31.759C70.3171 31.9404 70.5838 32.2017 70.7758 32.543C70.9731 32.879 71.0718 33.271 71.0718 33.719ZM68.8398 32.431C68.5571 32.431 68.3198 32.511 68.1278 32.671C67.9358 32.831 67.8185 33.0497 67.7758 33.327H69.8958C69.8531 33.055 69.7358 32.839 69.5438 32.679C69.3518 32.5137 69.1171 32.431 68.8398 32.431ZM73.3507 35.919C72.9933 35.919 72.644 35.8764 72.3027 35.791C71.9613 35.7004 71.6893 35.5884 71.4867 35.455L71.9027 34.559C72.0947 34.6817 72.3267 34.783 72.5987 34.863C72.8707 34.9377 73.1373 34.975 73.3987 34.975C73.9267 34.975 74.1907 34.8444 74.1907 34.583C74.1907 34.4604 74.1187 34.3724 73.9747 34.319C73.8307 34.2657 73.6093 34.2204 73.3107 34.183C72.9587 34.1297 72.668 34.0684 72.4387 33.999C72.2093 33.9297 72.0093 33.807 71.8387 33.631C71.6733 33.455 71.5907 33.2044 71.5907 32.879C71.5907 32.607 71.668 32.367 71.8227 32.159C71.9827 31.9457 72.212 31.7804 72.5107 31.663C72.8147 31.5457 73.172 31.487 73.5827 31.487C73.8867 31.487 74.188 31.5217 74.4867 31.591C74.7907 31.655 75.0413 31.7457 75.2387 31.863L74.8227 32.751C74.444 32.5377 74.0307 32.431 73.5827 32.431C73.316 32.431 73.116 32.4684 72.9827 32.543C72.8493 32.6177 72.7827 32.7137 72.7827 32.831C72.7827 32.9644 72.8547 33.0577 72.9987 33.111C73.1427 33.1644 73.372 33.215 73.6867 33.263C74.0387 33.3217 74.3267 33.3857 74.5507 33.455C74.7747 33.519 74.9693 33.639 75.1347 33.815C75.3 33.991 75.3827 34.2364 75.3827 34.551C75.3827 34.8177 75.3027 35.055 75.1427 35.263C74.9827 35.471 74.748 35.6337 74.4387 35.751C74.1347 35.863 73.772 35.919 73.3507 35.919ZM76.1527 31.551H77.4007V35.855H76.1527V31.551ZM76.7767 30.951C76.5473 30.951 76.3607 30.8844 76.2167 30.751C76.0727 30.6177 76.0007 30.4524 76.0007 30.255C76.0007 30.0577 76.0727 29.8924 76.2167 29.759C76.3607 29.6257 76.5473 29.559 76.7767 29.559C77.006 29.559 77.1927 29.623 77.3367 29.751C77.4807 29.879 77.5527 30.039 77.5527 30.231C77.5527 30.439 77.4807 30.6124 77.3367 30.751C77.1927 30.8844 77.006 30.951 76.7767 30.951ZM80.6069 35.919C80.1536 35.919 79.7456 35.8257 79.3829 35.639C79.0256 35.447 78.7456 35.183 78.5429 34.847C78.3402 34.511 78.2389 34.1297 78.2389 33.703C78.2389 33.2764 78.3402 32.895 78.5429 32.559C78.7456 32.223 79.0256 31.9617 79.3829 31.775C79.7456 31.583 80.1536 31.487 80.6069 31.487C81.0602 31.487 81.4656 31.583 81.8229 31.775C82.1802 31.9617 82.4602 32.223 82.6629 32.559C82.8656 32.895 82.9669 33.2764 82.9669 33.703C82.9669 34.1297 82.8656 34.511 82.6629 34.847C82.4602 35.183 82.1802 35.447 81.8229 35.639C81.4656 35.8257 81.0602 35.919 80.6069 35.919ZM80.6069 34.895C80.9269 34.895 81.1882 34.7884 81.3909 34.575C81.5989 34.3564 81.7029 34.0657 81.7029 33.703C81.7029 33.3404 81.5989 33.0524 81.3909 32.839C81.1882 32.6204 80.9269 32.511 80.6069 32.511C80.2869 32.511 80.0229 32.6204 79.8149 32.839C79.6069 33.0524 79.5029 33.3404 79.5029 33.703C79.5029 34.0657 79.6069 34.3564 79.8149 34.575C80.0229 34.7884 80.2869 34.895 80.6069 34.895ZM86.4171 31.487C86.9504 31.487 87.3798 31.647 87.7051 31.967C88.0358 32.287 88.2011 32.7617 88.2011 33.391V35.855H86.9531V33.583C86.9531 33.2417 86.8784 32.9884 86.7291 32.823C86.5798 32.6524 86.3638 32.567 86.0811 32.567C85.7664 32.567 85.5158 32.6657 85.3291 32.863C85.1424 33.055 85.0491 33.343 85.0491 33.727V35.855H83.8011V31.551H84.9931V32.055C85.1584 31.8737 85.3638 31.735 85.6091 31.639C85.8544 31.5377 86.1238 31.487 86.4171 31.487ZM91.0683 31.487C91.735 31.487 92.247 31.647 92.6043 31.967C92.9617 32.2817 93.1403 32.759 93.1403 33.399V35.855H91.9723V35.319C91.7377 35.719 91.3003 35.919 90.6603 35.919C90.3297 35.919 90.0417 35.863 89.7963 35.751C89.5563 35.639 89.3723 35.4844 89.2443 35.287C89.1163 35.0897 89.0523 34.8657 89.0523 34.615C89.0523 34.215 89.2017 33.9004 89.5003 33.671C89.8043 33.4417 90.271 33.327 90.9003 33.327H91.8923C91.8923 33.055 91.8097 32.847 91.6443 32.703C91.479 32.5537 91.231 32.479 90.9003 32.479C90.671 32.479 90.4443 32.5164 90.2203 32.591C90.0017 32.6604 89.815 32.7564 89.6603 32.879L89.2123 32.007C89.447 31.8417 89.727 31.7137 90.0523 31.623C90.383 31.5324 90.7217 31.487 91.0683 31.487ZM90.9723 35.079C91.1857 35.079 91.375 35.031 91.5403 34.935C91.7057 34.8337 91.823 34.687 91.8923 34.495V34.055H91.0363C90.5243 34.055 90.2683 34.223 90.2683 34.559C90.2683 34.719 90.3297 34.847 90.4523 34.943C90.5803 35.0337 90.7537 35.079 90.9723 35.079ZM95.4618 32.119C95.6112 31.911 95.8112 31.7537 96.0618 31.647C96.3178 31.5404 96.6112 31.487 96.9418 31.487V32.639C96.8032 32.6284 96.7098 32.623 96.6618 32.623C96.3045 32.623 96.0245 32.7244 95.8218 32.927C95.6192 33.1244 95.5178 33.423 95.5178 33.823V35.855H94.2698V31.551H95.4618V32.119ZM102.525 31.487C102.925 31.487 103.287 31.5804 103.613 31.767C103.943 31.9484 104.202 32.207 104.389 32.543C104.575 32.8737 104.669 33.2604 104.669 33.703C104.669 34.1457 104.575 34.535 104.389 34.871C104.202 35.2017 103.943 35.4604 103.613 35.647C103.287 35.8284 102.925 35.919 102.525 35.919C101.933 35.919 101.482 35.7324 101.173 35.359V35.855H99.9808V29.919H101.229V32.007C101.543 31.6604 101.975 31.487 102.525 31.487ZM102.309 34.895C102.629 34.895 102.89 34.7884 103.093 34.575C103.301 34.3564 103.405 34.0657 103.405 33.703C103.405 33.3404 103.301 33.0524 103.093 32.839C102.89 32.6204 102.629 32.511 102.309 32.511C101.989 32.511 101.725 32.6204 101.517 32.839C101.314 33.0524 101.213 33.3404 101.213 33.703C101.213 34.0657 101.314 34.3564 101.517 34.575C101.725 34.7884 101.989 34.895 102.309 34.895ZM107.552 35.919C107.099 35.919 106.691 35.8257 106.328 35.639C105.971 35.447 105.691 35.183 105.488 34.847C105.286 34.511 105.184 34.1297 105.184 33.703C105.184 33.2764 105.286 32.895 105.488 32.559C105.691 32.223 105.971 31.9617 106.328 31.775C106.691 31.583 107.099 31.487 107.552 31.487C108.006 31.487 108.411 31.583 108.768 31.775C109.126 31.9617 109.406 32.223 109.608 32.559C109.811 32.895 109.912 33.2764 109.912 33.703C109.912 34.1297 109.811 34.511 109.608 34.847C109.406 35.183 109.126 35.447 108.768 35.639C108.411 35.8257 108.006 35.919 107.552 35.919ZM107.552 34.895C107.872 34.895 108.134 34.7884 108.336 34.575C108.544 34.3564 108.648 34.0657 108.648 33.703C108.648 33.3404 108.544 33.0524 108.336 32.839C108.134 32.6204 107.872 32.511 107.552 32.511C107.232 32.511 106.968 32.6204 106.76 32.839C106.552 33.0524 106.448 33.3404 106.448 33.703C106.448 34.0657 106.552 34.3564 106.76 34.575C106.968 34.7884 107.232 34.895 107.552 34.895ZM113.522 35.647C113.4 35.7377 113.248 35.807 113.066 35.855C112.89 35.8977 112.704 35.919 112.506 35.919C111.994 35.919 111.597 35.7884 111.314 35.527C111.037 35.2657 110.898 34.8817 110.898 34.375V32.607H110.234V31.647H110.898V30.599H112.146V31.647H113.218V32.607H112.146V34.359C112.146 34.5404 112.192 34.6817 112.282 34.783C112.378 34.879 112.512 34.927 112.682 34.927C112.88 34.927 113.048 34.8737 113.186 34.767L113.522 35.647ZM116.138 35.919C115.685 35.919 115.277 35.8257 114.914 35.639C114.557 35.447 114.277 35.183 114.074 34.847C113.871 34.511 113.77 34.1297 113.77 33.703C113.77 33.2764 113.871 32.895 114.074 32.559C114.277 32.223 114.557 31.9617 114.914 31.775C115.277 31.583 115.685 31.487 116.138 31.487C116.591 31.487 116.997 31.583 117.354 31.775C117.711 31.9617 117.991 32.223 118.194 32.559C118.397 32.895 118.498 33.2764 118.498 33.703C118.498 34.1297 118.397 34.511 118.194 34.847C117.991 35.183 117.711 35.447 117.354 35.639C116.997 35.8257 116.591 35.919 116.138 35.919ZM116.138 34.895C116.458 34.895 116.719 34.7884 116.922 34.575C117.13 34.3564 117.234 34.0657 117.234 33.703C117.234 33.3404 117.13 33.0524 116.922 32.839C116.719 32.6204 116.458 32.511 116.138 32.511C115.818 32.511 115.554 32.6204 115.346 32.839C115.138 33.0524 115.034 33.3404 115.034 33.703C115.034 34.0657 115.138 34.3564 115.346 34.575C115.554 34.7884 115.818 34.895 116.138 34.895ZM116.474 29.847H117.818L116.37 30.999H115.394L116.474 29.847ZM121.948 31.487C122.482 31.487 122.911 31.647 123.236 31.967C123.567 32.287 123.732 32.7617 123.732 33.391V35.855H122.484V33.583C122.484 33.2417 122.41 32.9884 122.26 32.823C122.111 32.6524 121.895 32.567 121.612 32.567C121.298 32.567 121.047 32.6657 120.86 32.863C120.674 33.055 120.58 33.343 120.58 33.727V35.855H119.332V31.551H120.524V32.055C120.69 31.8737 120.895 31.735 121.14 31.639C121.386 31.5377 121.655 31.487 121.948 31.487ZM128.865 31.487C129.532 31.487 130.044 31.647 130.401 31.967C130.759 32.2817 130.937 32.759 130.937 33.399V35.855H129.769V35.319C129.535 35.719 129.097 35.919 128.457 35.919C128.127 35.919 127.839 35.863 127.593 35.751C127.353 35.639 127.169 35.4844 127.041 35.287C126.913 35.0897 126.849 34.8657 126.849 34.615C126.849 34.215 126.999 33.9004 127.297 33.671C127.601 33.4417 128.068 33.327 128.697 33.327H129.689C129.689 33.055 129.607 32.847 129.441 32.703C129.276 32.5537 129.028 32.479 128.697 32.479C128.468 32.479 128.241 32.5164 128.017 32.591C127.799 32.6604 127.612 32.7564 127.457 32.879L127.009 32.007C127.244 31.8417 127.524 31.7137 127.849 31.623C128.18 31.5324 128.519 31.487 128.865 31.487ZM128.769 35.079C128.983 35.079 129.172 35.031 129.337 34.935C129.503 34.8337 129.62 34.687 129.689 34.495V34.055H128.833C128.321 34.055 128.065 34.223 128.065 34.559C128.065 34.719 128.127 34.847 128.249 34.943C128.377 35.0337 128.551 35.079 128.769 35.079ZM134.683 31.487C135.216 31.487 135.645 31.647 135.971 31.967C136.301 32.287 136.467 32.7617 136.467 33.391V35.855H135.219V33.583C135.219 33.2417 135.144 32.9884 134.995 32.823C134.845 32.6524 134.629 32.567 134.347 32.567C134.032 32.567 133.781 32.6657 133.595 32.863C133.408 33.055 133.315 33.343 133.315 33.727V35.855H132.067V31.551H133.259V32.055C133.424 31.8737 133.629 31.735 133.875 31.639C134.12 31.5377 134.389 31.487 134.683 31.487ZM137.598 31.551H138.846V35.855H137.598V31.551ZM138.222 30.951C137.993 30.951 137.806 30.8844 137.662 30.751C137.518 30.6177 137.446 30.4524 137.446 30.255C137.446 30.0577 137.518 29.8924 137.662 29.759C137.806 29.6257 137.993 29.559 138.222 29.559C138.451 29.559 138.638 29.623 138.782 29.751C138.926 29.879 138.998 30.039 138.998 30.231C138.998 30.439 138.926 30.6124 138.782 30.751C138.638 30.8844 138.451 30.951 138.222 30.951ZM145.516 31.487C146.055 31.487 146.482 31.647 146.796 31.967C147.116 32.2817 147.276 32.7564 147.276 33.391V35.855H146.028V33.583C146.028 33.2417 145.956 32.9884 145.812 32.823C145.674 32.6524 145.474 32.567 145.212 32.567C144.919 32.567 144.687 32.663 144.516 32.855C144.346 33.0417 144.26 33.3217 144.26 33.695V35.855H143.012V33.583C143.012 32.9057 142.74 32.567 142.196 32.567C141.908 32.567 141.679 32.663 141.508 32.855C141.338 33.0417 141.252 33.3217 141.252 33.695V35.855H140.004V31.551H141.196V32.047C141.356 31.8657 141.551 31.727 141.78 31.631C142.015 31.535 142.271 31.487 142.548 31.487C142.852 31.487 143.127 31.5484 143.372 31.671C143.618 31.7884 143.815 31.9617 143.964 32.191C144.14 31.967 144.362 31.7937 144.628 31.671C144.9 31.5484 145.196 31.487 145.516 31.487ZM150.131 31.487C150.798 31.487 151.31 31.647 151.667 31.967C152.024 32.2817 152.203 32.759 152.203 33.399V35.855H151.035V35.319C150.8 35.719 150.363 35.919 149.723 35.919C149.392 35.919 149.104 35.863 148.859 35.751C148.619 35.639 148.435 35.4844 148.307 35.287C148.179 35.0897 148.115 34.8657 148.115 34.615C148.115 34.215 148.264 33.9004 148.563 33.671C148.867 33.4417 149.334 33.327 149.963 33.327H150.955C150.955 33.055 150.872 32.847 150.707 32.703C150.542 32.5537 150.294 32.479 149.963 32.479C149.734 32.479 149.507 32.5164 149.283 32.591C149.064 32.6604 148.878 32.7564 148.723 32.879L148.275 32.007C148.51 31.8417 148.79 31.7137 149.115 31.623C149.446 31.5324 149.784 31.487 150.131 31.487ZM150.035 35.079C150.248 35.079 150.438 35.031 150.603 34.935C150.768 34.8337 150.886 34.687 150.955 34.495V34.055H150.099C149.587 34.055 149.331 34.223 149.331 34.559C149.331 34.719 149.392 34.847 149.515 34.943C149.643 35.0337 149.816 35.079 150.035 35.079ZM154.524 32.119C154.674 31.911 154.874 31.7537 155.124 31.647C155.38 31.5404 155.674 31.487 156.004 31.487V32.639C155.866 32.6284 155.772 32.623 155.724 32.623C155.367 32.623 155.087 32.7244 154.884 32.927C154.682 33.1244 154.58 33.423 154.58 33.823V35.855H153.332V31.551H154.524V32.119ZM157.172 35.919C156.953 35.919 156.769 35.8444 156.62 35.695C156.47 35.5457 156.396 35.359 156.396 35.135C156.396 34.9057 156.47 34.7217 156.62 34.583C156.769 34.439 156.953 34.367 157.172 34.367C157.39 34.367 157.574 34.439 157.724 34.583C157.873 34.7217 157.948 34.9057 157.948 35.135C157.948 35.359 157.873 35.5457 157.724 35.695C157.574 35.8444 157.39 35.919 157.172 35.919Z" fill="#333333"/>
</g>
<g id="Dibujar">
<g id="&#195;&#129;tomo_IDE_Bloque3">
<g id="&#195;&#129;tomo_IDE_Bloque1">
<g id="2">
<path id="Vector_10" fill-rule="evenodd" clip-rule="evenodd" d="M168.801 55.6466C168.801 52.8221 167.701 50.1134 165.742 48.1162C163.783 46.119 161.127 44.997 158.357 44.997C132.678 44.997 76.8921 44.9999 76.8921 44.9999L72.2991 49.2503H56.4223L51.8261 44.9999H37.2042C34.4342 44.9999 31.7777 46.122 29.8191 48.1191C27.8604 50.1163 26.76 52.8251 26.76 55.6496C26.76 55.6526 26.76 55.6558 26.76 55.659C26.76 58.4834 27.8604 61.1921 29.8191 63.1893C31.7777 65.1865 34.4342 66.3085 37.2042 66.3085C44.0833 66.3085 51.8261 66.3085 51.8261 66.3085L56.4223 70.5589H72.2959L76.8921 66.3085L158.357 66.3056C161.127 66.3056 163.783 65.1836 165.742 63.1864C167.701 61.1892 168.801 58.4805 168.801 55.656C168.801 55.6528 168.801 55.6496 168.801 55.6466Z" fill="#30DCFF"/>
<path id="Vector_11" fill-rule="evenodd" clip-rule="evenodd" d="M168.801 55.65C168.801 52.8255 167.701 50.1168 165.742 48.1196C163.783 46.1224 161.127 45.0004 158.357 45.0004C132.678 45.0004 76.8921 45.0004 76.8921 45.0004L72.2991 49.2508H56.4223L51.8261 45.0004H37.2042C34.4342 45.0004 31.7777 46.1224 29.8191 48.1196C27.8604 50.1168 26.76 52.8255 26.76 55.65C26.76 55.6531 26.76 55.6547 26.76 55.6547H29.2666C29.2666 51.0492 32.9282 47.3155 37.4449 47.3155C43.5352 47.3155 50.8003 47.3155 50.8003 47.3155L55.3965 51.5659H73.3405L77.9367 47.3155H158.117C162.633 47.3155 166.295 51.0491 166.295 55.6546L168.801 55.6547V55.65Z" fill="#93EDFF"/>
<path id="Vector_12" fill-rule="evenodd" clip-rule="evenodd" d="M168.801 55.652H166.294V55.6526C166.294 57.8633 165.433 59.9836 163.9 61.5468C162.367 63.1101 160.288 63.9883 158.12 63.9883C134.444 63.9883 75.8539 63.9883 75.8539 63.9883L71.2577 68.2387H57.4606L52.8644 63.9883H37.4416C32.9267 63.9883 29.2666 60.2563 29.2666 55.6526V55.652H26.76V55.6567C26.76 58.4812 27.8604 61.1899 29.8191 63.1871C31.7777 65.1843 34.4342 66.3063 37.2042 66.3063C44.0833 66.3063 51.8261 66.3063 51.8261 66.3063L56.4223 70.5567H72.2959L76.8921 66.3063H158.357C164.125 66.3063 168.801 61.5385 168.801 55.657C168.801 55.6536 168.801 55.652 168.801 55.652Z" fill="#08A0BF"/>
</g>
</g>
</g>
<path id="Inclinar torso a la izquierda" d="M35.664 53.7352H36.96V59.3352H35.664V53.7352ZM40.817 54.9672C41.3503 54.9672 41.7797 55.1272 42.105 55.4472C42.4357 55.7672 42.601 56.2419 42.601 56.8712V59.3352H41.353V57.0632C41.353 56.7219 41.2783 56.4685 41.129 56.3032C40.9797 56.1325 40.7637 56.0472 40.481 56.0472C40.1663 56.0472 39.9157 56.1459 39.729 56.3432C39.5423 56.5352 39.449 56.8232 39.449 57.2072V59.3352H38.201V55.0312H39.393V55.5352C39.5583 55.3539 39.7637 55.2152 40.009 55.1192C40.2543 55.0179 40.5237 54.9672 40.817 54.9672ZM45.8591 59.3992C45.4005 59.3992 44.9871 59.3059 44.6191 59.1192C44.2565 58.9272 43.9711 58.6632 43.7631 58.3272C43.5605 57.9912 43.4591 57.6099 43.4591 57.1832C43.4591 56.7565 43.5605 56.3752 43.7631 56.0392C43.9711 55.7032 44.2565 55.4419 44.6191 55.2552C44.9871 55.0632 45.4005 54.9672 45.8591 54.9672C46.3125 54.9672 46.7071 55.0632 47.0431 55.2552C47.3845 55.4419 47.6325 55.7112 47.7871 56.0632L46.8191 56.5832C46.5951 56.1885 46.2725 55.9912 45.8511 55.9912C45.5258 55.9912 45.2565 56.0979 45.0431 56.3112C44.8298 56.5245 44.7231 56.8152 44.7231 57.1832C44.7231 57.5512 44.8298 57.8419 45.0431 58.0552C45.2565 58.2685 45.5258 58.3752 45.8511 58.3752C46.2778 58.3752 46.6005 58.1779 46.8191 57.7832L47.7871 58.3112C47.6325 58.6525 47.3845 58.9192 47.0431 59.1112C46.7071 59.3032 46.3125 59.3992 45.8591 59.3992ZM48.4744 53.3992H49.7224V59.3352H48.4744V53.3992ZM50.8807 55.0312H52.1287V59.3352H50.8807V55.0312ZM51.5047 54.4312C51.2754 54.4312 51.0887 54.3645 50.9447 54.2312C50.8007 54.0979 50.7287 53.9325 50.7287 53.7352C50.7287 53.5379 50.8007 53.3725 50.9447 53.2392C51.0887 53.1059 51.2754 53.0392 51.5047 53.0392C51.734 53.0392 51.9207 53.1032 52.0647 53.2312C52.2087 53.3592 52.2807 53.5192 52.2807 53.7112C52.2807 53.9192 52.2087 54.0925 52.0647 54.2312C51.9207 54.3645 51.734 54.4312 51.5047 54.4312ZM55.9029 54.9672C56.4363 54.9672 56.8656 55.1272 57.1909 55.4472C57.5216 55.7672 57.6869 56.2419 57.6869 56.8712V59.3352H56.4389V57.0632C56.4389 56.7219 56.3643 56.4685 56.2149 56.3032C56.0656 56.1325 55.8496 56.0472 55.5669 56.0472C55.2523 56.0472 55.0016 56.1459 54.8149 56.3432C54.6283 56.5352 54.5349 56.8232 54.5349 57.2072V59.3352H53.2869V55.0312H54.4789V55.5352C54.6443 55.3539 54.8496 55.2152 55.0949 55.1192C55.3403 55.0179 55.6096 54.9672 55.9029 54.9672ZM60.5542 54.9672C61.2209 54.9672 61.7329 55.1272 62.0902 55.4472C62.4475 55.7619 62.6262 56.2392 62.6262 56.8792V59.3352H61.4582V58.7992C61.2235 59.1992 60.7862 59.3992 60.1462 59.3992C59.8155 59.3992 59.5275 59.3432 59.2822 59.2312C59.0422 59.1192 58.8582 58.9645 58.7302 58.7672C58.6022 58.5699 58.5382 58.3459 58.5382 58.0952C58.5382 57.6952 58.6875 57.3805 58.9862 57.1512C59.2902 56.9219 59.7569 56.8072 60.3862 56.8072H61.3782C61.3782 56.5352 61.2955 56.3272 61.1302 56.1832C60.9649 56.0339 60.7169 55.9592 60.3862 55.9592C60.1569 55.9592 59.9302 55.9965 59.7062 56.0712C59.4875 56.1405 59.3009 56.2365 59.1462 56.3592L58.6982 55.4872C58.9329 55.3219 59.2129 55.1939 59.5382 55.1032C59.8689 55.0125 60.2075 54.9672 60.5542 54.9672ZM60.4582 58.5592C60.6715 58.5592 60.8609 58.5112 61.0262 58.4152C61.1915 58.3139 61.3089 58.1672 61.3782 57.9752V57.5352H60.5222C60.0102 57.5352 59.7542 57.7032 59.7542 58.0392C59.7542 58.1992 59.8155 58.3272 59.9382 58.4232C60.0662 58.5139 60.2395 58.5592 60.4582 58.5592ZM64.9477 55.5992C65.097 55.3912 65.297 55.2339 65.5477 55.1272C65.8037 55.0205 66.097 54.9672 66.4277 54.9672V56.1192C66.289 56.1085 66.1957 56.1032 66.1477 56.1032C65.7904 56.1032 65.5104 56.2045 65.3077 56.4072C65.105 56.6045 65.0037 56.9032 65.0037 57.3032V59.3352H63.7557V55.0312H64.9477V55.5992ZM72.2426 59.1272C72.12 59.2179 71.968 59.2872 71.7866 59.3352C71.6106 59.3779 71.424 59.3992 71.2266 59.3992C70.7146 59.3992 70.3173 59.2685 70.0346 59.0072C69.7573 58.7459 69.6186 58.3619 69.6186 57.8552V56.0872H68.9546V55.1272H69.6186V54.0792H70.8666V55.1272H71.9386V56.0872H70.8666V57.8392C70.8666 58.0205 70.912 58.1619 71.0026 58.2632C71.0986 58.3592 71.232 58.4072 71.4026 58.4072C71.6 58.4072 71.768 58.3539 71.9066 58.2472L72.2426 59.1272ZM74.8584 59.3992C74.405 59.3992 73.997 59.3059 73.6344 59.1192C73.277 58.9272 72.997 58.6632 72.7944 58.3272C72.5917 57.9912 72.4904 57.6099 72.4904 57.1832C72.4904 56.7565 72.5917 56.3752 72.7944 56.0392C72.997 55.7032 73.277 55.4419 73.6344 55.2552C73.997 55.0632 74.405 54.9672 74.8584 54.9672C75.3117 54.9672 75.717 55.0632 76.0744 55.2552C76.4317 55.4419 76.7117 55.7032 76.9144 56.0392C77.117 56.3752 77.2184 56.7565 77.2184 57.1832C77.2184 57.6099 77.117 57.9912 76.9144 58.3272C76.7117 58.6632 76.4317 58.9272 76.0744 59.1192C75.717 59.3059 75.3117 59.3992 74.8584 59.3992ZM74.8584 58.3752C75.1784 58.3752 75.4397 58.2685 75.6424 58.0552C75.8504 57.8365 75.9544 57.5459 75.9544 57.1832C75.9544 56.8205 75.8504 56.5325 75.6424 56.3192C75.4397 56.1005 75.1784 55.9912 74.8584 55.9912C74.5384 55.9912 74.2744 56.1005 74.0664 56.3192C73.8584 56.5325 73.7544 56.8205 73.7544 57.1832C73.7544 57.5459 73.8584 57.8365 74.0664 58.0552C74.2744 58.2685 74.5384 58.3752 74.8584 58.3752ZM79.2446 55.5992C79.3939 55.3912 79.5939 55.2339 79.8446 55.1272C80.1006 55.0205 80.3939 54.9672 80.7246 54.9672V56.1192C80.5859 56.1085 80.4926 56.1032 80.4446 56.1032C80.0872 56.1032 79.8072 56.2045 79.6046 56.4072C79.4019 56.6045 79.3006 56.9032 79.3006 57.3032V59.3352H78.0526V55.0312H79.2446V55.5992ZM82.9303 59.3992C82.5729 59.3992 82.2236 59.3565 81.8823 59.2712C81.5409 59.1805 81.2689 59.0685 81.0663 58.9352L81.4823 58.0392C81.6743 58.1619 81.9063 58.2632 82.1783 58.3432C82.4503 58.4179 82.7169 58.4552 82.9783 58.4552C83.5063 58.4552 83.7703 58.3245 83.7703 58.0632C83.7703 57.9405 83.6983 57.8525 83.5543 57.7992C83.4103 57.7459 83.1889 57.7005 82.8903 57.6632C82.5383 57.6099 82.2476 57.5485 82.0183 57.4792C81.7889 57.4099 81.5889 57.2872 81.4183 57.1112C81.2529 56.9352 81.1702 56.6845 81.1702 56.3592C81.1702 56.0872 81.2476 55.8472 81.4023 55.6392C81.5623 55.4259 81.7916 55.2605 82.0903 55.1432C82.3943 55.0259 82.7516 54.9672 83.1623 54.9672C83.4663 54.9672 83.7676 55.0019 84.0663 55.0712C84.3703 55.1352 84.6209 55.2259 84.8183 55.3432L84.4023 56.2312C84.0236 56.0179 83.6103 55.9112 83.1623 55.9112C82.8956 55.9112 82.6956 55.9485 82.5623 56.0232C82.4289 56.0979 82.3623 56.1939 82.3623 56.3112C82.3623 56.4445 82.4343 56.5379 82.5783 56.5912C82.7223 56.6445 82.9516 56.6952 83.2663 56.7432C83.6183 56.8019 83.9063 56.8659 84.1303 56.9352C84.3543 56.9992 84.5489 57.1192 84.7143 57.2952C84.8796 57.4712 84.9623 57.7165 84.9623 58.0312C84.9623 58.2979 84.8823 58.5352 84.7223 58.7432C84.5623 58.9512 84.3276 59.1139 84.0183 59.2312C83.7143 59.3432 83.3516 59.3992 82.9303 59.3992ZM87.7803 59.3992C87.3269 59.3992 86.9189 59.3059 86.5563 59.1192C86.1989 58.9272 85.9189 58.6632 85.7163 58.3272C85.5136 57.9912 85.4123 57.6099 85.4123 57.1832C85.4123 56.7565 85.5136 56.3752 85.7163 56.0392C85.9189 55.7032 86.1989 55.4419 86.5563 55.2552C86.9189 55.0632 87.3269 54.9672 87.7803 54.9672C88.2336 54.9672 88.6389 55.0632 88.9963 55.2552C89.3536 55.4419 89.6336 55.7032 89.8363 56.0392C90.0389 56.3752 90.1403 56.7565 90.1403 57.1832C90.1403 57.6099 90.0389 57.9912 89.8363 58.3272C89.6336 58.6632 89.3536 58.9272 88.9963 59.1192C88.6389 59.3059 88.2336 59.3992 87.7803 59.3992ZM87.7803 58.3752C88.1003 58.3752 88.3616 58.2685 88.5643 58.0552C88.7723 57.8365 88.8763 57.5459 88.8763 57.1832C88.8763 56.8205 88.7723 56.5325 88.5643 56.3192C88.3616 56.1005 88.1003 55.9912 87.7803 55.9912C87.4603 55.9912 87.1963 56.1005 86.9883 56.3192C86.7803 56.5325 86.6763 56.8205 86.6763 57.1832C86.6763 57.5459 86.7803 57.8365 86.9883 58.0552C87.1963 58.2685 87.4603 58.3752 87.7803 58.3752ZM94.9761 54.9672C95.6427 54.9672 96.1547 55.1272 96.5121 55.4472C96.8694 55.7619 97.0481 56.2392 97.0481 56.8792V59.3352H95.8801V58.7992C95.6454 59.1992 95.2081 59.3992 94.5681 59.3992C94.2374 59.3992 93.9494 59.3432 93.7041 59.2312C93.4641 59.1192 93.2801 58.9645 93.1521 58.7672C93.0241 58.5699 92.9601 58.3459 92.9601 58.0952C92.9601 57.6952 93.1094 57.3805 93.4081 57.1512C93.7121 56.9219 94.1787 56.8072 94.8081 56.8072H95.8001C95.8001 56.5352 95.7174 56.3272 95.5521 56.1832C95.3867 56.0339 95.1387 55.9592 94.8081 55.9592C94.5787 55.9592 94.3521 55.9965 94.1281 56.0712C93.9094 56.1405 93.7227 56.2365 93.5681 56.3592L93.1201 55.4872C93.3547 55.3219 93.6347 55.1939 93.9601 55.1032C94.2907 55.0125 94.6294 54.9672 94.9761 54.9672ZM94.8801 58.5592C95.0934 58.5592 95.2827 58.5112 95.4481 58.4152C95.6134 58.3139 95.7307 58.1672 95.8001 57.9752V57.5352H94.9441C94.4321 57.5352 94.1761 57.7032 94.1761 58.0392C94.1761 58.1992 94.2374 58.3272 94.3601 58.4232C94.4881 58.5139 94.6614 58.5592 94.8801 58.5592ZM100.443 53.3992H101.691V59.3352H100.443V53.3992ZM104.585 54.9672C105.252 54.9672 105.764 55.1272 106.121 55.4472C106.479 55.7619 106.657 56.2392 106.657 56.8792V59.3352H105.489V58.7992C105.255 59.1992 104.817 59.3992 104.177 59.3992C103.847 59.3992 103.559 59.3432 103.313 59.2312C103.073 59.1192 102.889 58.9645 102.761 58.7672C102.633 58.5699 102.569 58.3459 102.569 58.0952C102.569 57.6952 102.719 57.3805 103.017 57.1512C103.321 56.9219 103.788 56.8072 104.417 56.8072H105.409C105.409 56.5352 105.327 56.3272 105.161 56.1832C104.996 56.0339 104.748 55.9592 104.417 55.9592C104.188 55.9592 103.961 55.9965 103.737 56.0712C103.519 56.1405 103.332 56.2365 103.177 56.3592L102.729 55.4872C102.964 55.3219 103.244 55.1939 103.569 55.1032C103.9 55.0125 104.239 54.9672 104.585 54.9672ZM104.489 58.5592C104.703 58.5592 104.892 58.5112 105.057 58.4152C105.223 58.3139 105.34 58.1672 105.409 57.9752V57.5352H104.553C104.041 57.5352 103.785 57.7032 103.785 58.0392C103.785 58.1992 103.847 58.3272 103.969 58.4232C104.097 58.5139 104.271 58.5592 104.489 58.5592ZM110.053 55.0312H111.301V59.3352H110.053V55.0312ZM110.677 54.4312C110.447 54.4312 110.261 54.3645 110.117 54.2312C109.973 54.0979 109.901 53.9325 109.901 53.7352C109.901 53.5379 109.973 53.3725 110.117 53.2392C110.261 53.1059 110.447 53.0392 110.677 53.0392C110.906 53.0392 111.093 53.1032 111.237 53.2312C111.381 53.3592 111.453 53.5192 111.453 53.7112C111.453 53.9192 111.381 54.0925 111.237 54.2312C111.093 54.3645 110.906 54.4312 110.677 54.4312ZM116.003 58.3752V59.3352H112.163V58.5832L114.355 55.9912H112.219V55.0312H115.931V55.7832L113.739 58.3752H116.003ZM121.116 55.0312V60.8872H119.868V58.8792C119.559 59.2259 119.129 59.3992 118.58 59.3992C118.175 59.3992 117.807 59.3085 117.476 59.1272C117.151 58.9459 116.895 58.6872 116.708 58.3512C116.521 58.0152 116.428 57.6259 116.428 57.1832C116.428 56.7405 116.521 56.3512 116.708 56.0152C116.895 55.6792 117.151 55.4205 117.476 55.2392C117.807 55.0579 118.175 54.9672 118.58 54.9672C119.167 54.9672 119.615 55.1539 119.924 55.5272V55.0312H121.116ZM118.796 58.3752C119.111 58.3752 119.372 58.2685 119.58 58.0552C119.788 57.8365 119.892 57.5459 119.892 57.1832C119.892 56.8205 119.788 56.5325 119.58 56.3192C119.372 56.1005 119.111 55.9912 118.796 55.9912C118.476 55.9912 118.212 56.1005 118.004 56.3192C117.796 56.5325 117.692 56.8205 117.692 57.1832C117.692 57.5459 117.796 57.8365 118.004 58.0552C118.212 58.2685 118.476 58.3752 118.796 58.3752ZM126.607 55.0312V59.3352H125.423V58.8232C125.258 59.0099 125.061 59.1539 124.831 59.2552C124.602 59.3512 124.354 59.3992 124.087 59.3992C123.522 59.3992 123.074 59.2365 122.743 58.9112C122.413 58.5859 122.247 58.1032 122.247 57.4632V55.0312H123.495V57.2792C123.495 57.9725 123.786 58.3192 124.367 58.3192C124.666 58.3192 124.906 58.2232 125.087 58.0312C125.269 57.8339 125.359 57.5432 125.359 57.1592V55.0312H126.607ZM127.764 55.0312H129.012V59.3352H127.764V55.0312ZM128.388 54.4312C128.158 54.4312 127.972 54.3645 127.828 54.2312C127.684 54.0979 127.612 53.9325 127.612 53.7352C127.612 53.5379 127.684 53.3725 127.828 53.2392C127.972 53.1059 128.158 53.0392 128.388 53.0392C128.617 53.0392 128.804 53.1032 128.948 53.2312C129.092 53.3592 129.164 53.5192 129.164 53.7112C129.164 53.9192 129.092 54.0925 128.948 54.2312C128.804 54.3645 128.617 54.4312 128.388 54.4312ZM134.386 57.1992C134.386 57.2152 134.378 57.3272 134.362 57.5352H131.106C131.164 57.8019 131.303 58.0125 131.522 58.1672C131.74 58.3219 132.012 58.3992 132.338 58.3992C132.562 58.3992 132.759 58.3672 132.93 58.3032C133.106 58.2339 133.268 58.1272 133.418 57.9832L134.082 58.7032C133.676 59.1672 133.084 59.3992 132.306 59.3992C131.82 59.3992 131.391 59.3059 131.018 59.1192C130.644 58.9272 130.356 58.6632 130.154 58.3272C129.951 57.9912 129.85 57.6099 129.85 57.1832C129.85 56.7619 129.948 56.3832 130.146 56.0472C130.348 55.7059 130.623 55.4419 130.97 55.2552C131.322 55.0632 131.714 54.9672 132.146 54.9672C132.567 54.9672 132.948 55.0579 133.29 55.2392C133.631 55.4205 133.898 55.6819 134.09 56.0232C134.287 56.3592 134.386 56.7512 134.386 57.1992ZM132.154 55.9112C131.871 55.9112 131.634 55.9912 131.442 56.1512C131.25 56.3112 131.132 56.5299 131.09 56.8072H133.21C133.167 56.5352 133.05 56.3192 132.858 56.1592C132.666 55.9939 132.431 55.9112 132.154 55.9112ZM136.409 55.5992C136.558 55.3912 136.758 55.2339 137.009 55.1272C137.265 55.0205 137.558 54.9672 137.889 54.9672V56.1192C137.75 56.1085 137.657 56.1032 137.609 56.1032C137.251 56.1032 136.971 56.2045 136.769 56.4072C136.566 56.6045 136.465 56.9032 136.465 57.3032V59.3352H135.217V55.0312H136.409V55.5992ZM142.976 53.3992V59.3352H141.784V58.8392C141.474 59.2125 141.026 59.3992 140.44 59.3992C140.034 59.3992 139.666 59.3085 139.336 59.1272C139.01 58.9459 138.754 58.6872 138.568 58.3512C138.381 58.0152 138.288 57.6259 138.288 57.1832C138.288 56.7405 138.381 56.3512 138.568 56.0152C138.754 55.6792 139.01 55.4205 139.336 55.2392C139.666 55.0579 140.034 54.9672 140.44 54.9672C140.989 54.9672 141.418 55.1405 141.728 55.4872V53.3992H142.976ZM140.656 58.3752C140.97 58.3752 141.232 58.2685 141.44 58.0552C141.648 57.8365 141.752 57.5459 141.752 57.1832C141.752 56.8205 141.648 56.5325 141.44 56.3192C141.232 56.1005 140.97 55.9912 140.656 55.9912C140.336 55.9912 140.072 56.1005 139.864 56.3192C139.656 56.5325 139.552 56.8205 139.552 57.1832C139.552 57.5459 139.656 57.8365 139.864 58.0552C140.072 58.2685 140.336 58.3752 140.656 58.3752ZM145.867 54.9672C146.533 54.9672 147.045 55.1272 147.403 55.4472C147.76 55.7619 147.939 56.2392 147.939 56.8792V59.3352H146.771V58.7992C146.536 59.1992 146.099 59.3992 145.459 59.3992C145.128 59.3992 144.84 59.3432 144.595 59.2312C144.355 59.1192 144.171 58.9645 144.043 58.7672C143.915 58.5699 143.851 58.3459 143.851 58.0952C143.851 57.6952 144 57.3805 144.299 57.1512C144.603 56.9219 145.069 56.8072 145.699 56.8072H146.691C146.691 56.5352 146.608 56.3272 146.443 56.1832C146.277 56.0339 146.029 55.9592 145.699 55.9592C145.469 55.9592 145.243 55.9965 145.019 56.0712C144.8 56.1405 144.613 56.2365 144.459 56.3592L144.011 55.4872C144.245 55.3219 144.525 55.1939 144.851 55.1032C145.181 55.0125 145.52 54.9672 145.867 54.9672ZM145.771 58.5592C145.984 58.5592 146.173 58.5112 146.339 58.4152C146.504 58.3139 146.621 58.1672 146.691 57.9752V57.5352H145.835C145.323 57.5352 145.067 57.7032 145.067 58.0392C145.067 58.1992 145.128 58.3272 145.251 58.4232C145.379 58.5139 145.552 58.5592 145.771 58.5592Z" fill="#333333"/>
</g>
<g id="Dibujar_2">
<g id="&#195;&#129;tomo_IDE_Bloque3_2">
<g id="&#195;&#129;tomo_IDE_Bloque1_2">
<g id="2_2">
<path id="Vector_13" fill-rule="evenodd" clip-rule="evenodd" d="M169.041 76.9818C169.041 74.1573 167.941 71.4486 165.982 69.4514C164.023 67.4542 161.367 66.3322 158.597 66.3322C132.918 66.3322 77.1321 66.3351 77.1321 66.3351L72.5391 70.5855H56.6623L52.0661 66.3351H37.4442C34.6742 66.3351 32.0177 67.4572 30.0591 69.4543C28.1004 71.4515 27 74.1603 27 76.9848C27 76.9878 27 76.991 27 76.9942C27 79.8186 28.1004 82.5273 30.0591 84.5245C32.0177 86.5217 34.6742 87.6437 37.4442 87.6437C44.3233 87.6437 52.0661 87.6437 52.0661 87.6437L56.6623 91.8941H72.5359L77.1321 87.6437L158.597 87.6408C161.367 87.6408 164.023 86.5188 165.982 84.5216C167.941 82.5244 169.041 79.8157 169.041 76.9912C169.041 76.988 169.041 76.9848 169.041 76.9818Z" fill="#30DCFF"/>
<path id="Vector_14" fill-rule="evenodd" clip-rule="evenodd" d="M169.041 76.9852C169.041 74.1607 167.941 71.452 165.982 69.4548C164.023 67.4576 161.367 66.3356 158.597 66.3356C132.918 66.3356 77.1321 66.3356 77.1321 66.3356L72.5391 70.586H56.6623L52.0661 66.3356H37.4442C34.6742 66.3356 32.0177 67.4576 30.0591 69.4548C28.1004 71.452 27 74.1607 27 76.9852C27 76.9883 27 76.9899 27 76.9899H29.5066C29.5066 72.3844 33.1682 68.6507 37.6849 68.6507C43.7752 68.6507 51.0403 68.6507 51.0403 68.6507L55.6365 72.9011H73.5804L78.1767 68.6507H158.357C162.873 68.6507 166.535 72.3843 166.535 76.9898L169.041 76.9899V76.9852Z" fill="#93EDFF"/>
<path id="Vector_15" fill-rule="evenodd" clip-rule="evenodd" d="M169.041 76.9872H166.534V76.9878C166.534 79.1986 165.673 81.3188 164.14 82.882C162.607 84.4453 160.528 85.3235 158.36 85.3235C134.684 85.3235 76.0939 85.3235 76.0939 85.3235L71.4977 89.5739H57.7006L53.1044 85.3235H37.6815C33.1667 85.3235 29.5066 81.5915 29.5066 76.9878V76.9872H27V76.9919C27 79.8164 28.1004 82.5251 30.0591 84.5223C32.0177 86.5195 34.6742 87.6415 37.4442 87.6415C44.3233 87.6415 52.0661 87.6415 52.0661 87.6415L56.6623 91.8919H72.5359L77.1321 87.6415H158.597C164.365 87.6415 169.041 82.8737 169.041 76.9922C169.041 76.9888 169.041 76.9872 169.041 76.9872Z" fill="#08A0BF"/>
</g>
</g>
</g>
<path id="Manos a la panza" d="M41 80.6704L40.992 77.3104L39.344 80.0784H38.76L37.12 77.3824V80.6704H35.904V75.0704H36.976L39.072 78.5504L41.136 75.0704H42.2L42.216 80.6704H41ZM45.1926 76.3024C45.8593 76.3024 46.3713 76.4624 46.7286 76.7824C47.0859 77.0971 47.2646 77.5744 47.2646 78.2144V80.6704H46.0966V80.1344C45.8619 80.5344 45.4246 80.7344 44.7846 80.7344C44.4539 80.7344 44.1659 80.6784 43.9206 80.5664C43.6806 80.4544 43.4966 80.2997 43.3686 80.1024C43.2406 79.9051 43.1766 79.6811 43.1766 79.4304C43.1766 79.0304 43.3259 78.7157 43.6246 78.4864C43.9286 78.2571 44.3953 78.1424 45.0246 78.1424H46.0166C46.0166 77.8704 45.9339 77.6624 45.7686 77.5184C45.6033 77.3691 45.3553 77.2944 45.0246 77.2944C44.7953 77.2944 44.5686 77.3317 44.3446 77.4064C44.1259 77.4757 43.9393 77.5717 43.7846 77.6944L43.3366 76.8224C43.5713 76.6571 43.8513 76.5291 44.1766 76.4384C44.5073 76.3477 44.8459 76.3024 45.1926 76.3024ZM45.0966 79.8944C45.3099 79.8944 45.4993 79.8464 45.6646 79.7504C45.8299 79.6491 45.9473 79.5024 46.0166 79.3104V78.8704H45.1606C44.6486 78.8704 44.3926 79.0384 44.3926 79.3744C44.3926 79.5344 44.4539 79.6624 44.5766 79.7584C44.7046 79.8491 44.8779 79.8944 45.0966 79.8944ZM51.0101 76.3024C51.5434 76.3024 51.9728 76.4624 52.2981 76.7824C52.6288 77.1024 52.7941 77.5771 52.7941 78.2064V80.6704H51.5461V78.3984C51.5461 78.0571 51.4714 77.8037 51.3221 77.6384C51.1728 77.4677 50.9568 77.3824 50.6741 77.3824C50.3594 77.3824 50.1088 77.4811 49.9221 77.6784C49.7354 77.8704 49.6421 78.1584 49.6421 78.5424V80.6704H48.3941V76.3664H49.5861V76.8704C49.7514 76.6891 49.9568 76.5504 50.2021 76.4544C50.4474 76.3531 50.7168 76.3024 51.0101 76.3024ZM56.0202 80.7344C55.5669 80.7344 55.1589 80.6411 54.7962 80.4544C54.4389 80.2624 54.1589 79.9984 53.9562 79.6624C53.7536 79.3264 53.6522 78.9451 53.6522 78.5184C53.6522 78.0917 53.7536 77.7104 53.9562 77.3744C54.1589 77.0384 54.4389 76.7771 54.7962 76.5904C55.1589 76.3984 55.5669 76.3024 56.0202 76.3024C56.4736 76.3024 56.8789 76.3984 57.2362 76.5904C57.5936 76.7771 57.8736 77.0384 58.0762 77.3744C58.2789 77.7104 58.3802 78.0917 58.3802 78.5184C58.3802 78.9451 58.2789 79.3264 58.0762 79.6624C57.8736 79.9984 57.5936 80.2624 57.2362 80.4544C56.8789 80.6411 56.4736 80.7344 56.0202 80.7344ZM56.0202 79.7104C56.3402 79.7104 56.6016 79.6037 56.8042 79.3904C57.0122 79.1717 57.1162 78.8811 57.1162 78.5184C57.1162 78.1557 57.0122 77.8677 56.8042 77.6544C56.6016 77.4357 56.3402 77.3264 56.0202 77.3264C55.7002 77.3264 55.4362 77.4357 55.2282 77.6544C55.0202 77.8677 54.9162 78.1557 54.9162 78.5184C54.9162 78.8811 55.0202 79.1717 55.2282 79.3904C55.4362 79.6037 55.7002 79.7104 56.0202 79.7104ZM60.6624 80.7344C60.3051 80.7344 59.9558 80.6917 59.6144 80.6064C59.2731 80.5157 59.0011 80.4037 58.7984 80.2704L59.2144 79.3744C59.4064 79.4971 59.6384 79.5984 59.9104 79.6784C60.1824 79.7531 60.4491 79.7904 60.7104 79.7904C61.2384 79.7904 61.5024 79.6597 61.5024 79.3984C61.5024 79.2757 61.4304 79.1877 61.2864 79.1344C61.1424 79.0811 60.9211 79.0357 60.6224 78.9984C60.2704 78.9451 59.9798 78.8837 59.7504 78.8144C59.5211 78.7451 59.3211 78.6224 59.1504 78.4464C58.9851 78.2704 58.9024 78.0197 58.9024 77.6944C58.9024 77.4224 58.9798 77.1824 59.1344 76.9744C59.2944 76.7611 59.5238 76.5957 59.8224 76.4784C60.1264 76.3611 60.4838 76.3024 60.8944 76.3024C61.1984 76.3024 61.4998 76.3371 61.7984 76.4064C62.1024 76.4704 62.3531 76.5611 62.5504 76.6784L62.1344 77.5664C61.7558 77.3531 61.3424 77.2464 60.8944 77.2464C60.6278 77.2464 60.4278 77.2837 60.2944 77.3584C60.1611 77.4331 60.0944 77.5291 60.0944 77.6464C60.0944 77.7797 60.1664 77.8731 60.3104 77.9264C60.4544 77.9797 60.6838 78.0304 60.9984 78.0784C61.3504 78.1371 61.6384 78.2011 61.8624 78.2704C62.0864 78.3344 62.2811 78.4544 62.4464 78.6304C62.6118 78.8064 62.6944 79.0517 62.6944 79.3664C62.6944 79.6331 62.6144 79.8704 62.4544 80.0784C62.2944 80.2864 62.0598 80.4491 61.7504 80.5664C61.4464 80.6784 61.0838 80.7344 60.6624 80.7344ZM67.4661 76.3024C68.1327 76.3024 68.6447 76.4624 69.0021 76.7824C69.3594 77.0971 69.5381 77.5744 69.5381 78.2144V80.6704H68.3701V80.1344C68.1354 80.5344 67.6981 80.7344 67.0581 80.7344C66.7274 80.7344 66.4394 80.6784 66.1941 80.5664C65.9541 80.4544 65.7701 80.2997 65.6421 80.1024C65.5141 79.9051 65.4501 79.6811 65.4501 79.4304C65.4501 79.0304 65.5994 78.7157 65.8981 78.4864C66.2021 78.2571 66.6687 78.1424 67.2981 78.1424H68.2901C68.2901 77.8704 68.2074 77.6624 68.0421 77.5184C67.8767 77.3691 67.6287 77.2944 67.2981 77.2944C67.0687 77.2944 66.8421 77.3317 66.6181 77.4064C66.3994 77.4757 66.2127 77.5717 66.0581 77.6944L65.6101 76.8224C65.8447 76.6571 66.1247 76.5291 66.4501 76.4384C66.7807 76.3477 67.1194 76.3024 67.4661 76.3024ZM67.3701 79.8944C67.5834 79.8944 67.7727 79.8464 67.9381 79.7504C68.1034 79.6491 68.2207 79.5024 68.2901 79.3104V78.8704H67.4341C66.9221 78.8704 66.6661 79.0384 66.6661 79.3744C66.6661 79.5344 66.7274 79.6624 66.8501 79.7584C66.9781 79.8491 67.1514 79.8944 67.3701 79.8944ZM72.9332 74.7344H74.1812V80.6704H72.9332V74.7344ZM77.0754 76.3024C77.7421 76.3024 78.2541 76.4624 78.6114 76.7824C78.9688 77.0971 79.1474 77.5744 79.1474 78.2144V80.6704H77.9794V80.1344C77.7448 80.5344 77.3074 80.7344 76.6674 80.7344C76.3368 80.7344 76.0488 80.6784 75.8034 80.5664C75.5634 80.4544 75.3794 80.2997 75.2514 80.1024C75.1234 79.9051 75.0594 79.6811 75.0594 79.4304C75.0594 79.0304 75.2088 78.7157 75.5074 78.4864C75.8114 78.2571 76.2781 78.1424 76.9074 78.1424H77.8994C77.8994 77.8704 77.8168 77.6624 77.6514 77.5184C77.4861 77.3691 77.2381 77.2944 76.9074 77.2944C76.6781 77.2944 76.4514 77.3317 76.2274 77.4064C76.0088 77.4757 75.8221 77.5717 75.6674 77.6944L75.2194 76.8224C75.4541 76.6571 75.7341 76.5291 76.0594 76.4384C76.3901 76.3477 76.7288 76.3024 77.0754 76.3024ZM76.9794 79.8944C77.1928 79.8944 77.3821 79.8464 77.5474 79.7504C77.7128 79.6491 77.8301 79.5024 77.8994 79.3104V78.8704H77.0434C76.5314 78.8704 76.2754 79.0384 76.2754 79.3744C76.2754 79.5344 76.3368 79.6624 76.4594 79.7584C76.5874 79.8491 76.7608 79.8944 76.9794 79.8944ZM85.0866 76.3024C85.4866 76.3024 85.8492 76.3957 86.1746 76.5824C86.5052 76.7637 86.7639 77.0224 86.9506 77.3584C87.1372 77.6891 87.2306 78.0757 87.2306 78.5184C87.2306 78.9611 87.1372 79.3504 86.9506 79.6864C86.7639 80.0171 86.5052 80.2757 86.1746 80.4624C85.8492 80.6437 85.4866 80.7344 85.0866 80.7344C84.5372 80.7344 84.1052 80.5611 83.7906 80.2144V82.2224H82.5426V76.3664H83.7346V76.8624C84.0439 76.4891 84.4946 76.3024 85.0866 76.3024ZM84.8706 79.7104C85.1906 79.7104 85.4519 79.6037 85.6546 79.3904C85.8626 79.1717 85.9666 78.8811 85.9666 78.5184C85.9666 78.1557 85.8626 77.8677 85.6546 77.6544C85.4519 77.4357 85.1906 77.3264 84.8706 77.3264C84.5506 77.3264 84.2866 77.4357 84.0786 77.6544C83.8759 77.8677 83.7746 78.1557 83.7746 78.5184C83.7746 78.8811 83.8759 79.1717 84.0786 79.3904C84.2866 79.6037 84.5506 79.7104 84.8706 79.7104ZM89.7317 76.3024C90.3983 76.3024 90.9103 76.4624 91.2677 76.7824C91.625 77.0971 91.8037 77.5744 91.8037 78.2144V80.6704H90.6357V80.1344C90.401 80.5344 89.9637 80.7344 89.3237 80.7344C88.993 80.7344 88.705 80.6784 88.4597 80.5664C88.2197 80.4544 88.0357 80.2997 87.9077 80.1024C87.7797 79.9051 87.7157 79.6811 87.7157 79.4304C87.7157 79.0304 87.865 78.7157 88.1637 78.4864C88.4677 78.2571 88.9343 78.1424 89.5637 78.1424H90.5557C90.5557 77.8704 90.473 77.6624 90.3077 77.5184C90.1423 77.3691 89.8943 77.2944 89.5637 77.2944C89.3343 77.2944 89.1077 77.3317 88.8837 77.4064C88.665 77.4757 88.4783 77.5717 88.3237 77.6944L87.8757 76.8224C88.1103 76.6571 88.3903 76.5291 88.7157 76.4384C89.0463 76.3477 89.385 76.3024 89.7317 76.3024ZM89.6357 79.8944C89.849 79.8944 90.0383 79.8464 90.2037 79.7504C90.369 79.6491 90.4863 79.5024 90.5557 79.3104V78.8704H89.6997C89.1877 78.8704 88.9317 79.0384 88.9317 79.3744C88.9317 79.5344 88.993 79.6624 89.1157 79.7584C89.2437 79.8491 89.417 79.8944 89.6357 79.8944ZM95.5492 76.3024C96.0825 76.3024 96.5118 76.4624 96.8372 76.7824C97.1678 77.1024 97.3332 77.5771 97.3332 78.2064V80.6704H96.0852V78.3984C96.0852 78.0571 96.0105 77.8037 95.8612 77.6384C95.7118 77.4677 95.4958 77.3824 95.2132 77.3824C94.8985 77.3824 94.6478 77.4811 94.4612 77.6784C94.2745 77.8704 94.1812 78.1584 94.1812 78.5424V80.6704H92.9332V76.3664H94.1252V76.8704C94.2905 76.6891 94.4958 76.5504 94.7412 76.4544C94.9865 76.3531 95.2558 76.3024 95.5492 76.3024ZM102.008 79.7104V80.6704H98.1684V79.9184L100.36 77.3264H98.2244V76.3664H101.936V77.1184L99.7444 79.7104H102.008ZM104.544 76.3024C105.211 76.3024 105.723 76.4624 106.08 76.7824C106.438 77.0971 106.616 77.5744 106.616 78.2144V80.6704H105.448V80.1344C105.214 80.5344 104.776 80.7344 104.136 80.7344C103.806 80.7344 103.518 80.6784 103.272 80.5664C103.032 80.4544 102.848 80.2997 102.72 80.1024C102.592 79.9051 102.528 79.6811 102.528 79.4304C102.528 79.0304 102.678 78.7157 102.976 78.4864C103.28 78.2571 103.747 78.1424 104.376 78.1424H105.368C105.368 77.8704 105.286 77.6624 105.12 77.5184C104.955 77.3691 104.707 77.2944 104.376 77.2944C104.147 77.2944 103.92 77.3317 103.696 77.4064C103.478 77.4757 103.291 77.5717 103.136 77.6944L102.688 76.8224C102.923 76.6571 103.203 76.5291 103.528 76.4384C103.859 76.3477 104.198 76.3024 104.544 76.3024ZM104.448 79.8944C104.662 79.8944 104.851 79.8464 105.016 79.7504C105.182 79.6491 105.299 79.5024 105.368 79.3104V78.8704H104.512C104 78.8704 103.744 79.0384 103.744 79.3744C103.744 79.5344 103.806 79.6624 103.928 79.7584C104.056 79.8491 104.23 79.8944 104.448 79.8944Z" fill="#333333"/>
</g>
<g id="Dibujar_3">
<g id="&#195;&#129;tomo_IDE_Bloque3_3">
<g id="&#195;&#129;tomo_IDE_Bloque1_3">
<g id="2_3">
<path id="Vector_16" fill-rule="evenodd" clip-rule="evenodd" d="M169.041 97.6466C169.041 94.8221 167.941 92.1134 165.982 90.1162C164.023 88.119 161.367 86.997 158.597 86.997C132.918 86.997 77.1321 86.9999 77.1321 86.9999L72.5391 91.2503H56.6623L52.0661 86.9999H37.4442C34.6742 86.9999 32.0177 88.122 30.0591 90.1191C28.1004 92.1163 27 94.8251 27 97.6496C27 97.6526 27 97.6558 27 97.659C27 100.483 28.1004 103.192 30.0591 105.189C32.0177 107.186 34.6742 108.309 37.4442 108.309C44.3233 108.309 52.0661 108.309 52.0661 108.309L56.6623 112.559H72.5359L77.1321 108.309L158.597 108.306C161.367 108.306 164.023 107.184 165.982 105.186C167.941 103.189 169.041 100.48 169.041 97.656C169.041 97.6528 169.041 97.6496 169.041 97.6466Z" fill="#30DCFF"/>
<path id="Vector_17" fill-rule="evenodd" clip-rule="evenodd" d="M169.041 97.65C169.041 94.8255 167.941 92.1168 165.982 90.1196C164.023 88.1224 161.367 87.0004 158.597 87.0004C132.918 87.0004 77.1321 87.0004 77.1321 87.0004L72.5391 91.2508H56.6623L52.0661 87.0004H37.4442C34.6742 87.0004 32.0177 88.1224 30.0591 90.1196C28.1004 92.1168 27 94.8255 27 97.65C27 97.6531 27 97.6547 27 97.6547H29.5066C29.5066 93.0492 33.1682 89.3155 37.6849 89.3155C43.7752 89.3155 51.0403 89.3155 51.0403 89.3155L55.6365 93.5659H73.5804L78.1767 89.3155H158.357C162.873 89.3155 166.535 93.0491 166.535 97.6546L169.041 97.6547V97.65Z" fill="#93EDFF"/>
<path id="Vector_18" fill-rule="evenodd" clip-rule="evenodd" d="M169.041 97.652H166.534V97.6526C166.534 99.8633 165.673 101.984 164.14 103.547C162.607 105.11 160.528 105.988 158.36 105.988C134.684 105.988 76.0939 105.988 76.0939 105.988L71.4977 110.239H57.7006L53.1044 105.988H37.6815C33.1667 105.988 29.5066 102.256 29.5066 97.6526V97.652H27V97.6567C27 100.481 28.1004 103.19 30.0591 105.187C32.0177 107.184 34.6742 108.306 37.4442 108.306C44.3233 108.306 52.0661 108.306 52.0661 108.306L56.6623 112.557H72.5359L77.1321 108.306H158.597C164.365 108.306 169.041 103.539 169.041 97.657C169.041 97.6536 169.041 97.652 169.041 97.652Z" fill="#08A0BF"/>
</g>
</g>
</g>
<path id="Cerrar los ojos" d="M38.584 101.431C38.0133 101.431 37.496 101.309 37.032 101.063C36.5733 100.813 36.2107 100.469 35.944 100.031C35.6827 99.5885 35.552 99.0899 35.552 98.5352C35.552 97.9805 35.6827 97.4845 35.944 97.0472C36.2107 96.6045 36.5733 96.2605 37.032 96.0152C37.496 95.7645 38.016 95.6392 38.592 95.6392C39.0773 95.6392 39.5147 95.7245 39.904 95.8952C40.2987 96.0659 40.6293 96.3112 40.896 96.6312L40.064 97.3992C39.6853 96.9619 39.216 96.7432 38.656 96.7432C38.3093 96.7432 38 96.8205 37.728 96.9752C37.456 97.1245 37.2427 97.3352 37.088 97.6072C36.9387 97.8792 36.864 98.1885 36.864 98.5352C36.864 98.8819 36.9387 99.1912 37.088 99.4632C37.2427 99.7352 37.456 99.9485 37.728 100.103C38 100.253 38.3093 100.327 38.656 100.327C39.216 100.327 39.6853 100.106 40.064 99.6632L40.896 100.431C40.6293 100.757 40.2987 101.005 39.904 101.175C39.5093 101.346 39.0693 101.431 38.584 101.431ZM45.7507 99.1992C45.7507 99.2152 45.7427 99.3272 45.7267 99.5352H42.4707C42.5294 99.8019 42.6681 100.013 42.8867 100.167C43.1054 100.322 43.3774 100.399 43.7027 100.399C43.9267 100.399 44.1241 100.367 44.2947 100.303C44.4707 100.234 44.6334 100.127 44.7827 99.9832L45.4467 100.703C45.0414 101.167 44.4494 101.399 43.6707 101.399C43.1854 101.399 42.7561 101.306 42.3827 101.119C42.0094 100.927 41.7214 100.663 41.5187 100.327C41.3161 99.9912 41.2147 99.6099 41.2147 99.1832C41.2147 98.7619 41.3134 98.3832 41.5107 98.0472C41.7134 97.7059 41.9881 97.4419 42.3347 97.2552C42.6867 97.0632 43.0787 96.9672 43.5107 96.9672C43.9321 96.9672 44.3134 97.0579 44.6547 97.2392C44.9961 97.4205 45.2627 97.6819 45.4547 98.0232C45.6521 98.3592 45.7507 98.7512 45.7507 99.1992ZM43.5187 97.9112C43.2361 97.9112 42.9987 97.9912 42.8067 98.1512C42.6147 98.3112 42.4974 98.5299 42.4547 98.8072H44.5747C44.5321 98.5352 44.4147 98.3192 44.2227 98.1592C44.0307 97.9939 43.7961 97.9112 43.5187 97.9112ZM47.7736 97.5992C47.9229 97.3912 48.1229 97.2339 48.3736 97.1272C48.6296 97.0205 48.9229 96.9672 49.2536 96.9672V98.1192C49.1149 98.1085 49.0216 98.1032 48.9736 98.1032C48.6163 98.1032 48.3363 98.2045 48.1336 98.4072C47.9309 98.6045 47.8296 98.9032 47.8296 99.3032V101.335H46.5816V97.0312H47.7736V97.5992ZM51.1877 97.5992C51.337 97.3912 51.537 97.2339 51.7877 97.1272C52.0437 97.0205 52.337 96.9672 52.6677 96.9672V98.1192C52.529 98.1085 52.4357 98.1032 52.3877 98.1032C52.0303 98.1032 51.7503 98.2045 51.5477 98.4072C51.345 98.6045 51.2437 98.9032 51.2437 99.3032V101.335H49.9957V97.0312H51.1877V97.5992ZM55.1223 96.9672C55.789 96.9672 56.301 97.1272 56.6583 97.4472C57.0156 97.7619 57.1943 98.2392 57.1943 98.8792V101.335H56.0263V100.799C55.7916 101.199 55.3543 101.399 54.7143 101.399C54.3836 101.399 54.0956 101.343 53.8503 101.231C53.6103 101.119 53.4263 100.965 53.2983 100.767C53.1703 100.57 53.1063 100.346 53.1063 100.095C53.1063 99.6952 53.2556 99.3805 53.5543 99.1512C53.8583 98.9219 54.325 98.8072 54.9543 98.8072H55.9463C55.9463 98.5352 55.8636 98.3272 55.6983 98.1832C55.533 98.0339 55.285 97.9592 54.9543 97.9592C54.725 97.9592 54.4983 97.9965 54.2743 98.0712C54.0556 98.1405 53.869 98.2365 53.7143 98.3592L53.2663 97.4872C53.501 97.3219 53.781 97.1939 54.1063 97.1032C54.437 97.0125 54.7756 96.9672 55.1223 96.9672ZM55.0263 100.559C55.2396 100.559 55.429 100.511 55.5943 100.415C55.7596 100.314 55.877 100.167 55.9463 99.9752V99.5352H55.0903C54.5783 99.5352 54.3223 99.7032 54.3223 100.039C54.3223 100.199 54.3836 100.327 54.5063 100.423C54.6343 100.514 54.8076 100.559 55.0263 100.559ZM59.5158 97.5992C59.6651 97.3912 59.8651 97.2339 60.1158 97.1272C60.3718 97.0205 60.6651 96.9672 60.9958 96.9672V98.1192C60.8571 98.1085 60.7638 98.1032 60.7158 98.1032C60.3585 98.1032 60.0785 98.2045 59.8758 98.4072C59.6731 98.6045 59.5718 98.9032 59.5718 99.3032V101.335H58.3238V97.0312H59.5158V97.5992ZM64.0347 95.3992H65.2827V101.335H64.0347V95.3992ZM68.489 101.399C68.0357 101.399 67.6277 101.306 67.265 101.119C66.9077 100.927 66.6277 100.663 66.425 100.327C66.2223 99.9912 66.121 99.6099 66.121 99.1832C66.121 98.7565 66.2223 98.3752 66.425 98.0392C66.6277 97.7032 66.9077 97.4419 67.265 97.2552C67.6277 97.0632 68.0357 96.9672 68.489 96.9672C68.9423 96.9672 69.3477 97.0632 69.705 97.2552C70.0623 97.4419 70.3423 97.7032 70.545 98.0392C70.7477 98.3752 70.849 98.7565 70.849 99.1832C70.849 99.6099 70.7477 99.9912 70.545 100.327C70.3423 100.663 70.0623 100.927 69.705 101.119C69.3477 101.306 68.9423 101.399 68.489 101.399ZM68.489 100.375C68.809 100.375 69.0703 100.269 69.273 100.055C69.481 99.8365 69.585 99.5459 69.585 99.1832C69.585 98.8205 69.481 98.5325 69.273 98.3192C69.0703 98.1005 68.809 97.9912 68.489 97.9912C68.169 97.9912 67.905 98.1005 67.697 98.3192C67.489 98.5325 67.385 98.8205 67.385 99.1832C67.385 99.5459 67.489 99.8365 67.697 100.055C67.905 100.269 68.169 100.375 68.489 100.375ZM73.1312 101.399C72.7738 101.399 72.4245 101.357 72.0832 101.271C71.7418 101.181 71.4698 101.069 71.2672 100.935L71.6832 100.039C71.8752 100.162 72.1072 100.263 72.3792 100.343C72.6512 100.418 72.9178 100.455 73.1792 100.455C73.7072 100.455 73.9712 100.325 73.9712 100.063C73.9712 99.9405 73.8992 99.8525 73.7552 99.7992C73.6112 99.7459 73.3898 99.7005 73.0912 99.6632C72.7392 99.6099 72.4485 99.5485 72.2192 99.4792C71.9898 99.4099 71.7898 99.2872 71.6192 99.1112C71.4538 98.9352 71.3712 98.6845 71.3712 98.3592C71.3712 98.0872 71.4485 97.8472 71.6032 97.6392C71.7632 97.4259 71.9925 97.2605 72.2912 97.1432C72.5952 97.0259 72.9525 96.9672 73.3632 96.9672C73.6672 96.9672 73.9685 97.0019 74.2672 97.0712C74.5712 97.1352 74.8218 97.2259 75.0192 97.3432L74.6032 98.2312C74.2245 98.0179 73.8112 97.9112 73.3632 97.9112C73.0965 97.9112 72.8965 97.9485 72.7632 98.0232C72.6298 98.0979 72.5632 98.1939 72.5632 98.3112C72.5632 98.4445 72.6352 98.5379 72.7792 98.5912C72.9232 98.6445 73.1525 98.6952 73.4672 98.7432C73.8192 98.8019 74.1072 98.8659 74.3312 98.9352C74.5552 98.9992 74.7498 99.1192 74.9152 99.2952C75.0805 99.4712 75.1632 99.7165 75.1632 100.031C75.1632 100.298 75.0832 100.535 74.9232 100.743C74.7632 100.951 74.5285 101.114 74.2192 101.231C73.9152 101.343 73.5525 101.399 73.1312 101.399ZM80.2468 101.399C79.7935 101.399 79.3855 101.306 79.0228 101.119C78.6655 100.927 78.3855 100.663 78.1828 100.327C77.9801 99.9912 77.8788 99.6099 77.8788 99.1832C77.8788 98.7565 77.9801 98.3752 78.1828 98.0392C78.3855 97.7032 78.6655 97.4419 79.0228 97.2552C79.3855 97.0632 79.7935 96.9672 80.2468 96.9672C80.7001 96.9672 81.1055 97.0632 81.4628 97.2552C81.8201 97.4419 82.1001 97.7032 82.3028 98.0392C82.5055 98.3752 82.6068 98.7565 82.6068 99.1832C82.6068 99.6099 82.5055 99.9912 82.3028 100.327C82.1001 100.663 81.8201 100.927 81.4628 101.119C81.1055 101.306 80.7001 101.399 80.2468 101.399ZM80.2468 100.375C80.5668 100.375 80.8281 100.269 81.0308 100.055C81.2388 99.8365 81.3428 99.5459 81.3428 99.1832C81.3428 98.8205 81.2388 98.5325 81.0308 98.3192C80.8281 98.1005 80.5668 97.9912 80.2468 97.9912C79.9268 97.9912 79.6628 98.1005 79.4548 98.3192C79.2468 98.5325 79.1428 98.8205 79.1428 99.1832C79.1428 99.5459 79.2468 99.8365 79.4548 100.055C79.6628 100.269 79.9268 100.375 80.2468 100.375ZM83.121 102.951C82.6837 102.951 82.3503 102.871 82.121 102.711L82.457 101.807C82.601 101.909 82.777 101.959 82.985 101.959C83.145 101.959 83.2703 101.906 83.361 101.799C83.4517 101.698 83.497 101.543 83.497 101.335V97.0312H84.745V101.327C84.745 101.829 84.601 102.223 84.313 102.511C84.0303 102.805 83.633 102.951 83.121 102.951ZM84.121 96.4312C83.8917 96.4312 83.705 96.3645 83.561 96.2312C83.417 96.0979 83.345 95.9325 83.345 95.7352C83.345 95.5379 83.417 95.3725 83.561 95.2392C83.705 95.1059 83.8917 95.0392 84.121 95.0392C84.3503 95.0392 84.537 95.1032 84.681 95.2312C84.825 95.3592 84.897 95.5192 84.897 95.7112C84.897 95.9192 84.825 96.0925 84.681 96.2312C84.537 96.3645 84.3503 96.4312 84.121 96.4312ZM87.9421 101.399C87.4888 101.399 87.0808 101.306 86.7181 101.119C86.3608 100.927 86.0808 100.663 85.8781 100.327C85.6754 99.9912 85.5741 99.6099 85.5741 99.1832C85.5741 98.7565 85.6754 98.3752 85.8781 98.0392C86.0808 97.7032 86.3608 97.4419 86.7181 97.2552C87.0808 97.0632 87.4888 96.9672 87.9421 96.9672C88.3954 96.9672 88.8008 97.0632 89.1581 97.2552C89.5154 97.4419 89.7954 97.7032 89.9981 98.0392C90.2008 98.3752 90.3021 98.7565 90.3021 99.1832C90.3021 99.6099 90.2008 99.9912 89.9981 100.327C89.7954 100.663 89.5154 100.927 89.1581 101.119C88.8008 101.306 88.3954 101.399 87.9421 101.399ZM87.9421 100.375C88.2621 100.375 88.5234 100.269 88.7261 100.055C88.9341 99.8365 89.0381 99.5459 89.0381 99.1832C89.0381 98.8205 88.9341 98.5325 88.7261 98.3192C88.5234 98.1005 88.2621 97.9912 87.9421 97.9912C87.6221 97.9912 87.3581 98.1005 87.1501 98.3192C86.9421 98.5325 86.8381 98.8205 86.8381 99.1832C86.8381 99.5459 86.9421 99.8365 87.1501 100.055C87.3581 100.269 87.6221 100.375 87.9421 100.375ZM92.5843 101.399C92.227 101.399 91.8776 101.357 91.5363 101.271C91.195 101.181 90.923 101.069 90.7203 100.935L91.1363 100.039C91.3283 100.162 91.5603 100.263 91.8323 100.343C92.1043 100.418 92.371 100.455 92.6323 100.455C93.1603 100.455 93.4243 100.325 93.4243 100.063C93.4243 99.9405 93.3523 99.8525 93.2083 99.7992C93.0643 99.7459 92.843 99.7005 92.5443 99.6632C92.1923 99.6099 91.9016 99.5485 91.6723 99.4792C91.443 99.4099 91.243 99.2872 91.0723 99.1112C90.907 98.9352 90.8243 98.6845 90.8243 98.3592C90.8243 98.0872 90.9016 97.8472 91.0563 97.6392C91.2163 97.4259 91.4456 97.2605 91.7443 97.1432C92.0483 97.0259 92.4056 96.9672 92.8163 96.9672C93.1203 96.9672 93.4216 97.0019 93.7203 97.0712C94.0243 97.1352 94.275 97.2259 94.4723 97.3432L94.0563 98.2312C93.6776 98.0179 93.2643 97.9112 92.8163 97.9112C92.5496 97.9112 92.3496 97.9485 92.2163 98.0232C92.083 98.0979 92.0163 98.1939 92.0163 98.3112C92.0163 98.4445 92.0883 98.5379 92.2323 98.5912C92.3763 98.6445 92.6056 98.6952 92.9203 98.7432C93.2723 98.8019 93.5603 98.8659 93.7843 98.9352C94.0083 98.9992 94.203 99.1192 94.3683 99.2952C94.5336 99.4712 94.6163 99.7165 94.6163 100.031C94.6163 100.298 94.5363 100.535 94.3763 100.743C94.2163 100.951 93.9816 101.114 93.6723 101.231C93.3683 101.343 93.0056 101.399 92.5843 101.399Z" fill="#333333"/>
</g>
<g id="Dibujar_4">
<g id="&#195;&#129;tomo_IDE_Bloque3_4">
<g id="&#195;&#129;tomo_IDE_Bloque1_4">
<g id="2_4">
<path id="Vector_19" fill-rule="evenodd" clip-rule="evenodd" d="M168.801 138.647C168.801 135.822 167.701 133.113 165.742 131.116C163.783 129.119 161.127 127.997 158.357 127.997C132.678 127.997 76.8921 128 76.8921 128L72.2991 132.25H56.4223L51.8261 128H37.2042C34.4342 128 31.7777 129.122 29.8191 131.119C27.8604 133.116 26.76 135.825 26.76 138.65C26.76 138.653 26.76 138.656 26.76 138.659C26.76 141.483 27.8604 144.192 29.8191 146.189C31.7777 148.186 34.4342 149.309 37.2042 149.309C44.0833 149.309 51.8261 149.309 51.8261 149.309L56.4223 153.559H72.2959L76.8921 149.309L158.357 149.306C161.127 149.306 163.783 148.184 165.742 146.186C167.701 144.189 168.801 141.48 168.801 138.656C168.801 138.653 168.801 138.65 168.801 138.647Z" fill="#30DCFF"/>
<path id="Vector_20" fill-rule="evenodd" clip-rule="evenodd" d="M168.801 138.65C168.801 135.826 167.701 133.117 165.742 131.12C163.783 129.122 161.127 128 158.357 128C132.678 128 76.8921 128 76.8921 128L72.2991 132.251H56.4223L51.8261 128H37.2042C34.4342 128 31.7777 129.122 29.8191 131.12C27.8604 133.117 26.76 135.826 26.76 138.65C26.76 138.653 26.76 138.655 26.76 138.655H29.2666C29.2666 134.049 32.9282 130.316 37.4449 130.316C43.5352 130.316 50.8003 130.316 50.8003 130.316L55.3965 134.566H73.3405L77.9367 130.316H158.117C162.633 130.316 166.295 134.049 166.295 138.655L168.801 138.655V138.65Z" fill="#93EDFF"/>
<path id="Vector_21" fill-rule="evenodd" clip-rule="evenodd" d="M168.801 138.652H166.294V138.653C166.294 140.863 165.433 142.984 163.9 144.547C162.367 146.11 160.288 146.988 158.12 146.988C134.444 146.988 75.8539 146.988 75.8539 146.988L71.2577 151.239H57.4606L52.8644 146.988H37.4416C32.9267 146.988 29.2666 143.256 29.2666 138.653V138.652H26.76V138.657C26.76 141.481 27.8604 144.19 29.8191 146.187C31.7777 148.184 34.4342 149.306 37.2042 149.306C44.0833 149.306 51.8261 149.306 51.8261 149.306L56.4223 153.557H72.2959L76.8921 149.306H158.357C164.125 149.306 168.801 144.539 168.801 138.657C168.801 138.654 168.801 138.652 168.801 138.652Z" fill="#08A0BF"/>
</g>
</g>
</g>
<path id="Doblar las piernas" d="M35.664 136.735H38.208C38.816 136.735 39.352 136.853 39.816 137.087C40.2853 137.317 40.648 137.642 40.904 138.063C41.1653 138.485 41.296 138.975 41.296 139.535C41.296 140.095 41.1653 140.586 40.904 141.007C40.648 141.429 40.2853 141.757 39.816 141.991C39.352 142.221 38.816 142.335 38.208 142.335H35.664V136.735ZM38.144 141.271C38.704 141.271 39.1493 141.117 39.48 140.807C39.816 140.493 39.984 140.069 39.984 139.535C39.984 139.002 39.816 138.581 39.48 138.271C39.1493 137.957 38.704 137.799 38.144 137.799H36.96V141.271H38.144ZM44.2334 142.399C43.78 142.399 43.372 142.306 43.0094 142.119C42.652 141.927 42.372 141.663 42.1694 141.327C41.9667 140.991 41.8654 140.61 41.8654 140.183C41.8654 139.757 41.9667 139.375 42.1694 139.039C42.372 138.703 42.652 138.442 43.0094 138.255C43.372 138.063 43.78 137.967 44.2334 137.967C44.6867 137.967 45.092 138.063 45.4494 138.255C45.8067 138.442 46.0867 138.703 46.2894 139.039C46.492 139.375 46.5934 139.757 46.5934 140.183C46.5934 140.61 46.492 140.991 46.2894 141.327C46.0867 141.663 45.8067 141.927 45.4494 142.119C45.092 142.306 44.6867 142.399 44.2334 142.399ZM44.2334 141.375C44.5534 141.375 44.8147 141.269 45.0174 141.055C45.2254 140.837 45.3294 140.546 45.3294 140.183C45.3294 139.821 45.2254 139.533 45.0174 139.319C44.8147 139.101 44.5534 138.991 44.2334 138.991C43.9134 138.991 43.6494 139.101 43.4414 139.319C43.2334 139.533 43.1294 139.821 43.1294 140.183C43.1294 140.546 43.2334 140.837 43.4414 141.055C43.6494 141.269 43.9134 141.375 44.2334 141.375ZM49.9716 137.967C50.3716 137.967 50.7342 138.061 51.0596 138.247C51.3902 138.429 51.6489 138.687 51.8356 139.023C52.0222 139.354 52.1156 139.741 52.1156 140.183C52.1156 140.626 52.0222 141.015 51.8356 141.351C51.6489 141.682 51.3902 141.941 51.0596 142.127C50.7342 142.309 50.3716 142.399 49.9716 142.399C49.3796 142.399 48.9289 142.213 48.6196 141.839V142.335H47.4276V136.399H48.6756V138.487C48.9902 138.141 49.4222 137.967 49.9716 137.967ZM49.7556 141.375C50.0756 141.375 50.3369 141.269 50.5396 141.055C50.7476 140.837 50.8516 140.546 50.8516 140.183C50.8516 139.821 50.7476 139.533 50.5396 139.319C50.3369 139.101 50.0756 138.991 49.7556 138.991C49.4356 138.991 49.1716 139.101 48.9636 139.319C48.7609 139.533 48.6596 139.821 48.6596 140.183C48.6596 140.546 48.7609 140.837 48.9636 141.055C49.1716 141.269 49.4356 141.375 49.7556 141.375ZM52.951 136.399H54.199V142.335H52.951V136.399ZM57.0933 137.967C57.7599 137.967 58.2719 138.127 58.6293 138.447C58.9866 138.762 59.1653 139.239 59.1653 139.879V142.335H57.9973V141.799C57.7626 142.199 57.3253 142.399 56.6853 142.399C56.3546 142.399 56.0666 142.343 55.8213 142.231C55.5813 142.119 55.3973 141.965 55.2693 141.767C55.1413 141.57 55.0773 141.346 55.0773 141.095C55.0773 140.695 55.2266 140.381 55.5253 140.151C55.8293 139.922 56.2959 139.807 56.9253 139.807H57.9173C57.9173 139.535 57.8346 139.327 57.6693 139.183C57.5039 139.034 57.2559 138.959 56.9253 138.959C56.6959 138.959 56.4693 138.997 56.2453 139.071C56.0266 139.141 55.8399 139.237 55.6853 139.359L55.2373 138.487C55.4719 138.322 55.7519 138.194 56.0773 138.103C56.4079 138.013 56.7466 137.967 57.0933 137.967ZM56.9973 141.559C57.2106 141.559 57.3999 141.511 57.5653 141.415C57.7306 141.314 57.8479 141.167 57.9173 140.975V140.535H57.0613C56.5493 140.535 56.2933 140.703 56.2933 141.039C56.2933 141.199 56.3546 141.327 56.4773 141.423C56.6053 141.514 56.7786 141.559 56.9973 141.559ZM61.4868 138.599C61.6361 138.391 61.8361 138.234 62.0868 138.127C62.3428 138.021 62.6361 137.967 62.9668 137.967V139.119C62.8281 139.109 62.7348 139.103 62.6868 139.103C62.3294 139.103 62.0494 139.205 61.8468 139.407C61.6441 139.605 61.5428 139.903 61.5428 140.303V142.335H60.2948V138.031H61.4868V138.599ZM66.0057 136.399H67.2537V142.335H66.0057V136.399ZM70.1479 137.967C70.8146 137.967 71.3266 138.127 71.6839 138.447C72.0413 138.762 72.2199 139.239 72.2199 139.879V142.335H71.0519V141.799C70.8173 142.199 70.3799 142.399 69.7399 142.399C69.4093 142.399 69.1213 142.343 68.8759 142.231C68.6359 142.119 68.4519 141.965 68.3239 141.767C68.1959 141.57 68.1319 141.346 68.1319 141.095C68.1319 140.695 68.2813 140.381 68.5799 140.151C68.8839 139.922 69.3506 139.807 69.9799 139.807H70.9719C70.9719 139.535 70.8893 139.327 70.7239 139.183C70.5586 139.034 70.3106 138.959 69.9799 138.959C69.7506 138.959 69.5239 138.997 69.2999 139.071C69.0813 139.141 68.8946 139.237 68.7399 139.359L68.2919 138.487C68.5266 138.322 68.8066 138.194 69.1319 138.103C69.4626 138.013 69.8013 137.967 70.1479 137.967ZM70.0519 141.559C70.2653 141.559 70.4546 141.511 70.6199 141.415C70.7853 141.314 70.9026 141.167 70.9719 140.975V140.535H70.1159C69.6039 140.535 69.3479 140.703 69.3479 141.039C69.3479 141.199 69.4093 141.327 69.5319 141.423C69.6599 141.514 69.8333 141.559 70.0519 141.559ZM74.7974 142.399C74.4401 142.399 74.0908 142.357 73.7494 142.271C73.4081 142.181 73.1361 142.069 72.9334 141.935L73.3494 141.039C73.5414 141.162 73.7734 141.263 74.0454 141.343C74.3174 141.418 74.5841 141.455 74.8454 141.455C75.3734 141.455 75.6374 141.325 75.6374 141.063C75.6374 140.941 75.5654 140.853 75.4214 140.799C75.2774 140.746 75.0561 140.701 74.7574 140.663C74.4054 140.61 74.1148 140.549 73.8854 140.479C73.6561 140.41 73.4561 140.287 73.2854 140.111C73.1201 139.935 73.0374 139.685 73.0374 139.359C73.0374 139.087 73.1148 138.847 73.2694 138.639C73.4294 138.426 73.6588 138.261 73.9574 138.143C74.2614 138.026 74.6188 137.967 75.0294 137.967C75.3334 137.967 75.6348 138.002 75.9334 138.071C76.2374 138.135 76.4881 138.226 76.6854 138.343L76.2694 139.231C75.8908 139.018 75.4774 138.911 75.0294 138.911C74.7628 138.911 74.5628 138.949 74.4294 139.023C74.2961 139.098 74.2294 139.194 74.2294 139.311C74.2294 139.445 74.3014 139.538 74.4454 139.591C74.5894 139.645 74.8188 139.695 75.1334 139.743C75.4854 139.802 75.7734 139.866 75.9974 139.935C76.2214 139.999 76.4161 140.119 76.5814 140.295C76.7468 140.471 76.8294 140.717 76.8294 141.031C76.8294 141.298 76.7494 141.535 76.5894 141.743C76.4294 141.951 76.1948 142.114 75.8854 142.231C75.5814 142.343 75.2188 142.399 74.7974 142.399ZM82.4091 137.967C82.8091 137.967 83.1717 138.061 83.4971 138.247C83.8277 138.429 84.0864 138.687 84.2731 139.023C84.4597 139.354 84.5531 139.741 84.5531 140.183C84.5531 140.626 84.4597 141.015 84.2731 141.351C84.0864 141.682 83.8277 141.941 83.4971 142.127C83.1717 142.309 82.8091 142.399 82.4091 142.399C81.8597 142.399 81.4277 142.226 81.1131 141.879V143.887H79.8651V138.031H81.0571V138.527C81.3664 138.154 81.8171 137.967 82.4091 137.967ZM82.1931 141.375C82.5131 141.375 82.7744 141.269 82.9771 141.055C83.1851 140.837 83.2891 140.546 83.2891 140.183C83.2891 139.821 83.1851 139.533 82.9771 139.319C82.7744 139.101 82.5131 138.991 82.1931 138.991C81.8731 138.991 81.6091 139.101 81.4011 139.319C81.1984 139.533 81.0971 139.821 81.0971 140.183C81.0971 140.546 81.1984 140.837 81.4011 141.055C81.6091 141.269 81.8731 141.375 82.1931 141.375ZM85.3885 138.031H86.6365V142.335H85.3885V138.031ZM86.0125 137.431C85.7832 137.431 85.5965 137.365 85.4525 137.231C85.3085 137.098 85.2365 136.933 85.2365 136.735C85.2365 136.538 85.3085 136.373 85.4525 136.239C85.5965 136.106 85.7832 136.039 86.0125 136.039C86.2418 136.039 86.4285 136.103 86.5725 136.231C86.7165 136.359 86.7885 136.519 86.7885 136.711C86.7885 136.919 86.7165 137.093 86.5725 137.231C86.4285 137.365 86.2418 137.431 86.0125 137.431ZM92.0108 140.199C92.0108 140.215 92.0028 140.327 91.9868 140.535H88.7308C88.7894 140.802 88.9281 141.013 89.1468 141.167C89.3654 141.322 89.6374 141.399 89.9628 141.399C90.1868 141.399 90.3841 141.367 90.5548 141.303C90.7308 141.234 90.8934 141.127 91.0428 140.983L91.7068 141.703C91.3014 142.167 90.7094 142.399 89.9308 142.399C89.4454 142.399 89.0161 142.306 88.6428 142.119C88.2694 141.927 87.9814 141.663 87.7788 141.327C87.5761 140.991 87.4748 140.61 87.4748 140.183C87.4748 139.762 87.5734 139.383 87.7708 139.047C87.9734 138.706 88.2481 138.442 88.5948 138.255C88.9468 138.063 89.3388 137.967 89.7708 137.967C90.1921 137.967 90.5734 138.058 90.9148 138.239C91.2561 138.421 91.5228 138.682 91.7148 139.023C91.9121 139.359 92.0108 139.751 92.0108 140.199ZM89.7788 138.911C89.4961 138.911 89.2588 138.991 89.0668 139.151C88.8748 139.311 88.7574 139.53 88.7148 139.807H90.8348C90.7921 139.535 90.6748 139.319 90.4828 139.159C90.2908 138.994 90.0561 138.911 89.7788 138.911ZM94.0336 138.599C94.183 138.391 94.383 138.234 94.6336 138.127C94.8896 138.021 95.183 137.967 95.5136 137.967V139.119C95.375 139.109 95.2816 139.103 95.2336 139.103C94.8763 139.103 94.5963 139.205 94.3936 139.407C94.191 139.605 94.0896 139.903 94.0896 140.303V142.335H92.8416V138.031H94.0336V138.599ZM98.8717 137.967C99.405 137.967 99.8344 138.127 100.16 138.447C100.49 138.767 100.656 139.242 100.656 139.871V142.335H99.4077V140.063C99.4077 139.722 99.333 139.469 99.1837 139.303C99.0344 139.133 98.8184 139.047 98.5357 139.047C98.221 139.047 97.9704 139.146 97.7837 139.343C97.597 139.535 97.5037 139.823 97.5037 140.207V142.335H96.2557V138.031H97.4477V138.535C97.613 138.354 97.8184 138.215 98.0637 138.119C98.309 138.018 98.5784 137.967 98.8717 137.967ZM103.523 137.967C104.19 137.967 104.702 138.127 105.059 138.447C105.416 138.762 105.595 139.239 105.595 139.879V142.335H104.427V141.799C104.192 142.199 103.755 142.399 103.115 142.399C102.784 142.399 102.496 142.343 102.251 142.231C102.011 142.119 101.827 141.965 101.699 141.767C101.571 141.57 101.507 141.346 101.507 141.095C101.507 140.695 101.656 140.381 101.955 140.151C102.259 139.922 102.726 139.807 103.355 139.807H104.347C104.347 139.535 104.264 139.327 104.099 139.183C103.934 139.034 103.686 138.959 103.355 138.959C103.126 138.959 102.899 138.997 102.675 139.071C102.456 139.141 102.27 139.237 102.115 139.359L101.667 138.487C101.902 138.322 102.182 138.194 102.507 138.103C102.838 138.013 103.176 137.967 103.523 137.967ZM103.427 141.559C103.64 141.559 103.83 141.511 103.995 141.415C104.16 141.314 104.278 141.167 104.347 140.975V140.535H103.491C102.979 140.535 102.723 140.703 102.723 141.039C102.723 141.199 102.784 141.327 102.907 141.423C103.035 141.514 103.208 141.559 103.427 141.559ZM108.172 142.399C107.815 142.399 107.466 142.357 107.124 142.271C106.783 142.181 106.511 142.069 106.308 141.935L106.724 141.039C106.916 141.162 107.148 141.263 107.42 141.343C107.692 141.418 107.959 141.455 108.22 141.455C108.748 141.455 109.012 141.325 109.012 141.063C109.012 140.941 108.94 140.853 108.796 140.799C108.652 140.746 108.431 140.701 108.132 140.663C107.78 140.61 107.49 140.549 107.26 140.479C107.031 140.41 106.831 140.287 106.66 140.111C106.495 139.935 106.412 139.685 106.412 139.359C106.412 139.087 106.49 138.847 106.644 138.639C106.804 138.426 107.034 138.261 107.332 138.143C107.636 138.026 107.994 137.967 108.404 137.967C108.708 137.967 109.01 138.002 109.308 138.071C109.612 138.135 109.863 138.226 110.06 138.343L109.644 139.231C109.266 139.018 108.852 138.911 108.404 138.911C108.138 138.911 107.938 138.949 107.804 139.023C107.671 139.098 107.604 139.194 107.604 139.311C107.604 139.445 107.676 139.538 107.82 139.591C107.964 139.645 108.194 139.695 108.508 139.743C108.86 139.802 109.148 139.866 109.372 139.935C109.596 139.999 109.791 140.119 109.956 140.295C110.122 140.471 110.204 140.717 110.204 141.031C110.204 141.298 110.124 141.535 109.964 141.743C109.804 141.951 109.57 142.114 109.26 142.231C108.956 142.343 108.594 142.399 108.172 142.399Z" fill="#333333"/>
</g>
</g>
<defs>
<filter id="filter0_d_3618:107908" x="0" y="0" width="180" height="184" filterUnits="userSpaceOnUse" color-interpolation-filters="sRGB">
<feFlood flood-opacity="0" result="BackgroundImageFix"/>
<feColorMatrix in="SourceAlpha" type="matrix" values="0 0 0 0 0 0 0 0 0 0 0 0 0 0 0 0 0 0 127 0" result="hardAlpha"/>
<feOffset dy="4"/>
<feColorMatrix type="matrix" values="0 0 0 0 0 0 0 0 0 0 0 0 0 0 0 0 0 0 0.25 0"/>
<feBlend mode="normal" in2="BackgroundImageFix" result="effect1_dropShadow_3618:107908"/>
<feBlend mode="normal" in="SourceGraphic" in2="effect1_dropShadow_3618:107908" result="shape"/>
</filter>
</defs>
</svg>
