<svg width="380" height="180" viewBox="0 0 380 180" fill="none" xmlns="http://www.w3.org/2000/svg">
<rect width="380" height="180" rx="20" fill="white"/>
<rect x="20" y="20" width="40" height="40" rx="20" fill="#3FDFE9"/>
<path d="M45.7555 42.8325H44.1794C42.9329 42.8325 41.9207 43.8496 41.9207 45.0982V46.6792C41.9207 47.9295 42.9346 48.9449 44.1794 48.9449H45.7555C47.0019 48.9449 48.0142 47.9278 48.0142 46.6792V45.0982C48.0158 43.8496 47.0019 42.8325 45.7555 42.8325ZM46.3427 46.6792C46.3427 47.0031 46.08 47.2666 45.7571 47.2666H44.181C43.8581 47.2666 43.5955 47.0031 43.5955 46.6792V45.0982C43.5955 44.7743 43.8581 44.5108 44.181 44.5108H45.7571C46.08 44.5108 46.3427 44.7743 46.3427 45.0982V46.6792Z" fill="#F2F2F2"/>
<path d="M52.4999 35.7367C52.4999 35.2551 52.351 34.7935 52.0682 34.4042L47.7482 28.4379C47.3232 27.8521 46.6406 27.5031 45.9195 27.5031H34.0838C33.3627 27.5031 32.6801 27.8521 32.2551 28.4379L27.9351 34.4059C27.6523 34.7952 27.5034 35.2551 27.5034 35.7367V36.9871C27.5034 37.0206 27.5101 37.0525 27.5135 37.0844C27.5101 37.118 27.5034 37.1499 27.5034 37.1818C27.5034 38.4556 28.1375 39.5817 29.1046 40.2631V50.2321C29.1046 51.4825 30.1185 52.4978 31.3633 52.4978H32.3438C33.5902 52.4978 34.6025 51.4808 34.6025 50.2321V44.9237C34.6025 44.5998 34.8652 44.3363 35.1881 44.3363H38.5795C38.9024 44.3363 39.1651 44.5998 39.1651 44.9237V50.2321C39.1651 51.4825 40.179 52.4978 41.4238 52.4978H48.6383C49.8848 52.4978 50.897 51.4808 50.897 50.2321V40.2631C51.8641 39.5817 52.4999 38.4556 52.4999 37.1818C52.4999 37.1482 52.4932 37.1163 52.4898 37.0844C52.4932 37.0525 52.4999 37.0206 52.4999 36.9871V35.7367ZM29.1765 35.7367C29.1765 35.6109 29.215 35.4917 29.2886 35.391L33.6103 29.423C33.7207 29.272 33.8981 29.1813 34.0838 29.1813H45.9195C46.1069 29.1813 46.2842 29.272 46.393 29.423L50.7147 35.391C50.7883 35.4917 50.8268 35.6109 50.8268 35.7367V36.9871C50.8268 37.0206 50.8335 37.0525 50.8368 37.0844C50.8335 37.1163 50.8268 37.1482 50.8268 37.1818C50.8268 38.3314 49.8948 39.2679 48.7471 39.2679C47.5993 39.2679 46.6674 38.3331 46.6674 37.1818C46.6674 36.7185 46.2926 36.3426 45.8308 36.3426C45.369 36.3426 44.9943 36.7185 44.9943 37.1818C44.9943 38.3314 44.0623 39.2679 42.9146 39.2679C41.7685 39.2679 40.8365 38.3331 40.8365 37.1818C40.8365 36.7185 40.4618 36.3426 40 36.3426C39.5382 36.3426 39.1634 36.7185 39.1634 37.1818C39.1634 38.3314 38.2315 39.2679 37.0837 39.2679C35.936 39.2679 35.004 38.3331 35.004 37.1818C35.004 36.7185 34.6293 36.3426 34.1675 36.3426C33.7057 36.3426 33.3309 36.7185 33.3309 37.1818C33.3309 38.3314 32.399 39.2679 31.2512 39.2679C30.1085 39.2679 29.1765 38.3331 29.1765 37.1818C29.1765 37.1482 29.1698 37.1163 29.1665 37.0844C29.1698 37.0525 29.1765 37.0206 29.1765 36.9871V35.7367ZM49.2256 50.2338C49.2256 50.5577 48.9629 50.8212 48.64 50.8212H41.4255C41.1026 50.8212 40.8399 50.5577 40.8399 50.2338V44.9254C40.8399 43.6751 39.826 42.6597 38.5812 42.6597H35.1897C33.9433 42.6597 32.931 43.6767 32.931 44.9254V50.2338C32.931 50.5577 32.6684 50.8212 32.3454 50.8212H31.365C31.0421 50.8212 30.7794 50.5577 30.7794 50.2338V40.9143C30.935 40.9344 31.0939 40.9462 31.2562 40.9462C32.4324 40.9462 33.4832 40.4007 34.1725 39.5481C34.8601 40.4007 35.9125 40.9462 37.0887 40.9462C38.2649 40.9462 39.3157 40.4007 40.005 39.5481C40.6927 40.4007 41.745 40.9462 42.9196 40.9462C44.0958 40.9462 45.1465 40.4007 45.8358 39.5481C46.5235 40.4007 47.5759 40.9462 48.7521 40.9462C48.9144 40.9462 49.0733 40.9344 49.2289 40.9143V50.2338H49.2256Z" fill="#F2F2F2"/>
<path d="M90 33.92V36H81.328V24.8H89.792V26.88H83.904V29.312H89.104V31.328H83.904V33.92H90ZM91.2539 30.496H95.7819V32.496H91.2539V30.496ZM100.642 36.128C99.9271 36.128 99.2284 36.0427 98.5458 35.872C97.8631 35.6907 97.3191 35.4667 96.9138 35.2L97.7458 33.408C98.1298 33.6533 98.5938 33.856 99.1378 34.016C99.6818 34.1653 100.215 34.24 100.738 34.24C101.794 34.24 102.322 33.9787 102.322 33.456C102.322 33.2107 102.178 33.0347 101.89 32.928C101.602 32.8213 101.159 32.7307 100.562 32.656C99.8578 32.5493 99.2764 32.4267 98.8178 32.288C98.3591 32.1493 97.9591 31.904 97.6178 31.552C97.2871 31.2 97.1217 30.6987 97.1217 30.048C97.1217 29.504 97.2764 29.024 97.5858 28.608C97.9058 28.1813 98.3644 27.8507 98.9618 27.616C99.5698 27.3813 100.284 27.264 101.106 27.264C101.714 27.264 102.316 27.3333 102.914 27.472C103.522 27.6 104.023 27.7813 104.418 28.016L103.586 29.792C102.828 29.3653 102.002 29.152 101.106 29.152C100.572 29.152 100.172 29.2267 99.9058 29.376C99.6391 29.5253 99.5058 29.7173 99.5058 29.952C99.5058 30.2187 99.6498 30.4053 99.9378 30.512C100.226 30.6187 100.684 30.72 101.314 30.816C102.018 30.9333 102.594 31.0613 103.042 31.2C103.49 31.328 103.879 31.568 104.21 31.92C104.54 32.272 104.706 32.7627 104.706 33.392C104.706 33.9253 104.546 34.4 104.226 34.816C103.906 35.232 103.436 35.5573 102.818 35.792C102.21 36.016 101.484 36.128 100.642 36.128ZM111.798 35.584C111.552 35.7653 111.248 35.904 110.886 36C110.534 36.0853 110.16 36.128 109.766 36.128C108.742 36.128 107.947 35.8667 107.382 35.344C106.827 34.8213 106.55 34.0533 106.55 33.04V29.504H105.222V27.584H106.55V25.488H109.046V27.584H111.19V29.504H109.046V33.008C109.046 33.3707 109.136 33.6533 109.318 33.856C109.51 34.048 109.776 34.144 110.118 34.144C110.512 34.144 110.848 34.0373 111.126 33.824L111.798 35.584ZM117.029 36.128C116.123 36.128 115.307 35.9413 114.581 35.568C113.867 35.184 113.307 34.656 112.901 33.984C112.496 33.312 112.293 32.5493 112.293 31.696C112.293 30.8427 112.496 30.08 112.901 29.408C113.307 28.736 113.867 28.2133 114.581 27.84C115.307 27.456 116.123 27.264 117.029 27.264C117.936 27.264 118.747 27.456 119.461 27.84C120.176 28.2133 120.736 28.736 121.141 29.408C121.547 30.08 121.749 30.8427 121.749 31.696C121.749 32.5493 121.547 33.312 121.141 33.984C120.736 34.656 120.176 35.184 119.461 35.568C118.747 35.9413 117.936 36.128 117.029 36.128ZM117.029 34.08C117.669 34.08 118.192 33.8667 118.597 33.44C119.013 33.0027 119.221 32.4213 119.221 31.696C119.221 30.9707 119.013 30.3947 118.597 29.968C118.192 29.5307 117.669 29.312 117.029 29.312C116.389 29.312 115.861 29.5307 115.445 29.968C115.029 30.3947 114.821 30.9707 114.821 31.696C114.821 32.4213 115.029 33.0027 115.445 33.44C115.861 33.8667 116.389 34.08 117.029 34.08ZM125.802 28.528C126.1 28.112 126.5 27.7973 127.002 27.584C127.514 27.3707 128.1 27.264 128.762 27.264V29.568C128.484 29.5467 128.298 29.536 128.202 29.536C127.487 29.536 126.927 29.7387 126.522 30.144C126.116 30.5387 125.914 31.136 125.914 31.936V36H123.418V27.392H125.802V28.528ZM138.6 31.728C138.6 31.76 138.584 31.984 138.552 32.4H132.04C132.157 32.9333 132.434 33.3547 132.872 33.664C133.309 33.9733 133.853 34.128 134.504 34.128C134.952 34.128 135.346 34.064 135.688 33.936C136.04 33.7973 136.365 33.584 136.664 33.296L137.992 34.736C137.181 35.664 135.997 36.128 134.44 36.128C133.469 36.128 132.61 35.9413 131.864 35.568C131.117 35.184 130.541 34.656 130.136 33.984C129.73 33.312 129.528 32.5493 129.528 31.696C129.528 30.8533 129.725 30.096 130.12 29.424C130.525 28.7413 131.074 28.2133 131.768 27.84C132.472 27.456 133.256 27.264 134.12 27.264C134.962 27.264 135.725 27.4453 136.408 27.808C137.09 28.1707 137.624 28.6933 138.008 29.376C138.402 30.048 138.6 30.832 138.6 31.728ZM134.136 29.152C133.57 29.152 133.096 29.312 132.712 29.632C132.328 29.952 132.093 30.3893 132.008 30.944H136.248C136.162 30.4 135.928 29.968 135.544 29.648C135.16 29.3173 134.69 29.152 134.136 29.152Z" fill="#00635D"/>
<path d="M20.032 96L25.152 84.8H26.32L31.44 96H30.192L25.488 85.488H25.968L21.264 96H20.032ZM22.048 93.008L22.4 92.048H28.912L29.264 93.008H22.048ZM37.3408 87.52C38.0234 87.52 38.6208 87.6533 39.1328 87.92C39.6554 88.176 40.0608 88.5707 40.3488 89.104C40.6474 89.6373 40.7968 90.3093 40.7968 91.12V96H39.6608V91.232C39.6608 90.3467 39.4368 89.68 38.9888 89.232C38.5514 88.7733 37.9328 88.544 37.1328 88.544C36.5354 88.544 36.0128 88.6667 35.5648 88.912C35.1274 89.1467 34.7861 89.4933 34.5408 89.952C34.3061 90.4 34.1888 90.944 34.1888 91.584V96H33.0528V87.6H34.1408V89.904L33.9648 89.472C34.2314 88.864 34.6581 88.3893 35.2448 88.048C35.8314 87.696 36.5301 87.52 37.3408 87.52ZM46.5213 96.08C45.7319 96.08 45.1239 95.8667 44.6973 95.44C44.2706 95.0133 44.0573 94.4107 44.0573 93.632V85.744H45.1933V93.568C45.1933 94.0587 45.3159 94.4373 45.5613 94.704C45.8173 94.9707 46.1799 95.104 46.6493 95.104C47.1506 95.104 47.5666 94.96 47.8973 94.672L48.2973 95.488C48.0733 95.6907 47.8013 95.84 47.4813 95.936C47.1719 96.032 46.8519 96.08 46.5213 96.08ZM42.5533 88.544V87.6H47.7533V88.544H42.5533ZM50.3653 96V87.6H51.5013V96H50.3653ZM50.9413 85.744C50.7066 85.744 50.5093 85.664 50.3493 85.504C50.1893 85.344 50.1093 85.152 50.1093 84.928C50.1093 84.704 50.1893 84.5173 50.3493 84.368C50.5093 84.208 50.7066 84.128 50.9413 84.128C51.1759 84.128 51.3733 84.2027 51.5333 84.352C51.6933 84.5013 51.7733 84.688 51.7733 84.912C51.7733 85.1467 51.6933 85.344 51.5333 85.504C51.3839 85.664 51.1866 85.744 50.9413 85.744ZM58.0061 96.08C57.2061 96.08 56.4861 95.8987 55.8461 95.536C55.2168 95.1733 54.7208 94.672 54.3581 94.032C53.9955 93.392 53.8141 92.6453 53.8141 91.792C53.8141 90.9493 53.9955 90.208 54.3581 89.568C54.7208 88.9173 55.2168 88.416 55.8461 88.064C56.4861 87.7013 57.2061 87.52 58.0061 87.52C58.7528 87.52 59.4141 87.6853 59.9901 88.016C60.5768 88.3467 61.0408 88.832 61.3821 89.472C61.7235 90.1013 61.8941 90.8747 61.8941 91.792C61.8941 92.7093 61.7181 93.488 61.3661 94.128C61.0248 94.7573 60.5608 95.2427 59.9741 95.584C59.3981 95.9147 58.7421 96.08 58.0061 96.08ZM58.0861 95.072C58.6835 95.072 59.2168 94.9387 59.6861 94.672C60.1661 94.3947 60.5395 94.0107 60.8061 93.52C61.0835 93.0187 61.2221 92.4427 61.2221 91.792C61.2221 91.1413 61.0835 90.5707 60.8061 90.08C60.5395 89.5893 60.1661 89.2053 59.6861 88.928C59.2168 88.6507 58.6835 88.512 58.0861 88.512C57.4995 88.512 56.9715 88.6507 56.5021 88.928C56.0328 89.2053 55.6595 89.5893 55.3821 90.08C55.1048 90.5707 54.9661 91.1413 54.9661 91.792C54.9661 92.4427 55.1048 93.0187 55.3821 93.52C55.6595 94.0107 56.0328 94.3947 56.5021 94.672C56.9715 94.9387 57.4995 95.072 58.0861 95.072ZM61.2061 99.104V93.504L61.3661 91.808L61.2541 90.128V87.6H62.3421V99.104H61.2061ZM68.9779 96.08C68.2632 96.08 67.6392 95.9467 67.1059 95.68C66.5725 95.4133 66.1565 95.0133 65.8579 94.48C65.5699 93.9467 65.4259 93.28 65.4259 92.48V87.6H66.5619V92.352C66.5619 93.248 66.7805 93.9253 67.2179 94.384C67.6659 94.832 68.2899 95.056 69.0899 95.056C69.6765 95.056 70.1832 94.9387 70.6099 94.704C71.0472 94.4587 71.3779 94.1067 71.6019 93.648C71.8365 93.1893 71.9539 92.64 71.9539 92V87.6H73.0899V96H72.0019V93.696L72.1779 94.112C71.9112 94.7307 71.4952 95.216 70.9299 95.568C70.3752 95.9093 69.7245 96.08 68.9779 96.08ZM76.2559 96V87.6H77.3919V96H76.2559ZM76.8319 85.744C76.5972 85.744 76.3999 85.664 76.2399 85.504C76.0799 85.344 75.9999 85.152 75.9999 84.928C75.9999 84.704 76.0799 84.5173 76.2399 84.368C76.3999 84.208 76.5972 84.128 76.8319 84.128C77.0665 84.128 77.2639 84.2027 77.4239 84.352C77.5839 84.5013 77.6639 84.688 77.6639 84.912C77.6639 85.1467 77.5839 85.344 77.4239 85.504C77.2745 85.664 77.0772 85.744 76.8319 85.744ZM83.2088 96.08C82.4194 96.08 81.8114 95.8667 81.3848 95.44C80.9581 95.0133 80.7448 94.4107 80.7448 93.632V85.744H81.8808V93.568C81.8808 94.0587 82.0034 94.4373 82.2488 94.704C82.5048 94.9707 82.8674 95.104 83.3368 95.104C83.8381 95.104 84.2541 94.96 84.5848 94.672L84.9848 95.488C84.7608 95.6907 84.4888 95.84 84.1688 95.936C83.8594 96.032 83.5394 96.08 83.2088 96.08ZM79.2408 88.544V87.6H84.4408V88.544H79.2408ZM86.9605 99.184C86.5658 99.184 86.1872 99.12 85.8245 98.992C85.4725 98.864 85.1685 98.672 84.9125 98.416L85.4405 97.568C85.6538 97.7707 85.8832 97.9253 86.1285 98.032C86.3845 98.1493 86.6672 98.208 86.9765 98.208C87.3498 98.208 87.6698 98.1013 87.9365 97.888C88.2138 97.6853 88.4752 97.3227 88.7205 96.8L89.2645 95.568L89.3925 95.392L92.8485 87.6H93.9685L89.7605 97.008C89.5258 97.552 89.2645 97.984 88.9765 98.304C88.6992 98.624 88.3952 98.848 88.0645 98.976C87.7338 99.1147 87.3658 99.184 86.9605 99.184ZM89.2005 96.24L85.3285 87.6H86.5125L89.9365 95.312L89.2005 96.24Z" fill="#828282"/>
<path d="M167.79 52.58V60H167.11V58.96C166.897 59.3133 166.613 59.5833 166.26 59.77C165.913 59.9567 165.52 60.05 165.08 60.05C164.587 60.05 164.14 59.9367 163.74 59.71C163.34 59.4833 163.027 59.1667 162.8 58.76C162.573 58.3533 162.46 57.89 162.46 57.37C162.46 56.85 162.573 56.3867 162.8 55.98C163.027 55.5733 163.34 55.26 163.74 55.04C164.14 54.8133 164.587 54.7 165.08 54.7C165.507 54.7 165.89 54.79 166.23 54.97C166.577 55.1433 166.86 55.4 167.08 55.74V52.58H167.79ZM165.14 59.42C165.507 59.42 165.837 59.3367 166.13 59.17C166.43 58.9967 166.663 58.7533 166.83 58.44C167.003 58.1267 167.09 57.77 167.09 57.37C167.09 56.97 167.003 56.6133 166.83 56.3C166.663 55.9867 166.43 55.7467 166.13 55.58C165.837 55.4067 165.507 55.32 165.14 55.32C164.767 55.32 164.43 55.4067 164.13 55.58C163.837 55.7467 163.603 55.9867 163.43 56.3C163.263 56.6133 163.18 56.97 163.18 57.37C163.18 57.77 163.263 58.1267 163.43 58.44C163.603 58.7533 163.837 58.9967 164.13 59.17C164.43 59.3367 164.767 59.42 165.14 59.42ZM174.347 57.59H169.947C169.987 58.1367 170.197 58.58 170.577 58.92C170.957 59.2533 171.437 59.42 172.017 59.42C172.344 59.42 172.644 59.3633 172.917 59.25C173.191 59.13 173.427 58.9567 173.627 58.73L174.027 59.19C173.794 59.47 173.501 59.6833 173.147 59.83C172.801 59.9767 172.417 60.05 171.997 60.05C171.457 60.05 170.977 59.9367 170.557 59.71C170.144 59.4767 169.821 59.1567 169.587 58.75C169.354 58.3433 169.237 57.8833 169.237 57.37C169.237 56.8567 169.347 56.3967 169.567 55.99C169.794 55.5833 170.101 55.2667 170.487 55.04C170.881 54.8133 171.321 54.7 171.807 54.7C172.294 54.7 172.731 54.8133 173.117 55.04C173.504 55.2667 173.807 55.5833 174.027 55.99C174.247 56.39 174.357 56.85 174.357 57.37L174.347 57.59ZM171.807 55.31C171.301 55.31 170.874 55.4733 170.527 55.8C170.187 56.12 169.994 56.54 169.947 57.06H173.677C173.631 56.54 173.434 56.12 173.087 55.8C172.747 55.4733 172.321 55.31 171.807 55.31ZM182.73 59.36V60H177.82V59.49L180.73 56.64C181.096 56.28 181.343 55.97 181.47 55.71C181.603 55.4433 181.67 55.1767 181.67 54.91C181.67 54.4967 181.526 54.1767 181.24 53.95C180.96 53.7167 180.556 53.6 180.03 53.6C179.21 53.6 178.573 53.86 178.12 54.38L177.61 53.94C177.883 53.62 178.23 53.3733 178.65 53.2C179.076 53.0267 179.556 52.94 180.09 52.94C180.803 52.94 181.366 53.11 181.78 53.45C182.2 53.7833 182.41 54.2433 182.41 54.83C182.41 55.19 182.33 55.5367 182.17 55.87C182.01 56.2033 181.706 56.5867 181.26 57.02L178.88 59.36H182.73ZM188.87 60.05C188.364 60.05 187.907 59.9367 187.5 59.71C187.094 59.4767 186.774 59.1567 186.54 58.75C186.307 58.3433 186.19 57.8833 186.19 57.37C186.19 56.8567 186.307 56.3967 186.54 55.99C186.774 55.5833 187.094 55.2667 187.5 55.04C187.907 54.8133 188.364 54.7 188.87 54.7C189.377 54.7 189.834 54.8133 190.24 55.04C190.647 55.2667 190.964 55.5833 191.19 55.99C191.424 56.3967 191.54 56.8567 191.54 57.37C191.54 57.8833 191.424 58.3433 191.19 58.75C190.964 59.1567 190.647 59.4767 190.24 59.71C189.834 59.9367 189.377 60.05 188.87 60.05ZM188.87 59.42C189.244 59.42 189.577 59.3367 189.87 59.17C190.17 58.9967 190.404 58.7533 190.57 58.44C190.737 58.1267 190.82 57.77 190.82 57.37C190.82 56.97 190.737 56.6133 190.57 56.3C190.404 55.9867 190.17 55.7467 189.87 55.58C189.577 55.4067 189.244 55.32 188.87 55.32C188.497 55.32 188.16 55.4067 187.86 55.58C187.567 55.7467 187.334 55.9867 187.16 56.3C186.994 56.6133 186.91 56.97 186.91 57.37C186.91 57.77 186.994 58.1267 187.16 58.44C187.334 58.7533 187.567 58.9967 187.86 59.17C188.16 59.3367 188.497 59.42 188.87 59.42ZM195.7 54.7C196.193 54.7 196.64 54.8133 197.04 55.04C197.44 55.26 197.753 55.5733 197.98 55.98C198.207 56.3867 198.32 56.85 198.32 57.37C198.32 57.8967 198.207 58.3633 197.98 58.77C197.753 59.1767 197.44 59.4933 197.04 59.72C196.647 59.94 196.2 60.05 195.7 60.05C195.273 60.05 194.887 59.9633 194.54 59.79C194.2 59.61 193.92 59.35 193.7 59.01V61.94H192.99V54.74H193.67V55.78C193.883 55.4333 194.163 55.1667 194.51 54.98C194.863 54.7933 195.26 54.7 195.7 54.7ZM195.65 59.42C196.017 59.42 196.35 59.3367 196.65 59.17C196.95 58.9967 197.183 58.7533 197.35 58.44C197.523 58.1267 197.61 57.77 197.61 57.37C197.61 56.97 197.523 56.6167 197.35 56.31C197.183 55.9967 196.95 55.7533 196.65 55.58C196.35 55.4067 196.017 55.32 195.65 55.32C195.277 55.32 194.94 55.4067 194.64 55.58C194.347 55.7533 194.113 55.9967 193.94 56.31C193.773 56.6167 193.69 56.97 193.69 57.37C193.69 57.77 193.773 58.1267 193.94 58.44C194.113 58.7533 194.347 58.9967 194.64 59.17C194.94 59.3367 195.277 59.42 195.65 59.42ZM199.767 54.74H200.477V60H199.767V54.74ZM200.127 53.59C199.981 53.59 199.857 53.54 199.757 53.44C199.657 53.34 199.607 53.22 199.607 53.08C199.607 52.9467 199.657 52.83 199.757 52.73C199.857 52.63 199.981 52.58 200.127 52.58C200.274 52.58 200.397 52.63 200.497 52.73C200.597 52.8233 200.647 52.9367 200.647 53.07C200.647 53.2167 200.597 53.34 200.497 53.44C200.397 53.54 200.274 53.59 200.127 53.59ZM205.133 54.7C205.793 54.7 206.316 54.8933 206.703 55.28C207.096 55.66 207.293 56.2167 207.293 56.95V60H206.583V57.02C206.583 56.4733 206.446 56.0567 206.173 55.77C205.9 55.4833 205.51 55.34 205.003 55.34C204.436 55.34 203.986 55.51 203.653 55.85C203.326 56.1833 203.163 56.6467 203.163 57.24V60H202.453V54.74H203.133V55.71C203.326 55.39 203.593 55.1433 203.933 54.97C204.28 54.79 204.68 54.7 205.133 54.7ZM209.22 54.74H209.93V60H209.22V54.74ZM209.58 53.59C209.434 53.59 209.31 53.54 209.21 53.44C209.11 53.34 209.06 53.22 209.06 53.08C209.06 52.9467 209.11 52.83 209.21 52.73C209.31 52.63 209.434 52.58 209.58 52.58C209.727 52.58 209.85 52.63 209.95 52.73C210.05 52.8233 210.1 52.9367 210.1 53.07C210.1 53.2167 210.05 53.34 209.95 53.44C209.85 53.54 209.727 53.59 209.58 53.59ZM214.056 60.05C213.549 60.05 213.093 59.9367 212.686 59.71C212.279 59.4767 211.959 59.1567 211.726 58.75C211.493 58.3433 211.376 57.8833 211.376 57.37C211.376 56.8567 211.493 56.3967 211.726 55.99C211.959 55.5833 212.279 55.2667 212.686 55.04C213.093 54.8133 213.549 54.7 214.056 54.7C214.563 54.7 215.019 54.8133 215.426 55.04C215.833 55.2667 216.149 55.5833 216.376 55.99C216.609 56.3967 216.726 56.8567 216.726 57.37C216.726 57.8833 216.609 58.3433 216.376 58.75C216.149 59.1567 215.833 59.4767 215.426 59.71C215.019 59.9367 214.563 60.05 214.056 60.05ZM214.056 59.42C214.429 59.42 214.763 59.3367 215.056 59.17C215.356 58.9967 215.589 58.7533 215.756 58.44C215.923 58.1267 216.006 57.77 216.006 57.37C216.006 56.97 215.923 56.6133 215.756 56.3C215.589 55.9867 215.356 55.7467 215.056 55.58C214.763 55.4067 214.429 55.32 214.056 55.32C213.683 55.32 213.346 55.4067 213.046 55.58C212.753 55.7467 212.519 55.9867 212.346 56.3C212.179 56.6133 212.096 56.97 212.096 57.37C212.096 57.77 212.179 58.1267 212.346 58.44C212.519 58.7533 212.753 58.9967 213.046 59.17C213.346 59.3367 213.683 59.42 214.056 59.42ZM220.856 54.7C221.516 54.7 222.039 54.8933 222.426 55.28C222.819 55.66 223.016 56.2167 223.016 56.95V60H222.306V57.02C222.306 56.4733 222.169 56.0567 221.896 55.77C221.622 55.4833 221.232 55.34 220.726 55.34C220.159 55.34 219.709 55.51 219.376 55.85C219.049 56.1833 218.886 56.6467 218.886 57.24V60H218.176V54.74H218.856V55.71C219.049 55.39 219.316 55.1433 219.656 54.97C220.002 54.79 220.402 54.7 220.856 54.7ZM229.543 57.59H225.143C225.183 58.1367 225.393 58.58 225.773 58.92C226.153 59.2533 226.633 59.42 227.213 59.42C227.539 59.42 227.839 59.3633 228.113 59.25C228.386 59.13 228.623 58.9567 228.823 58.73L229.223 59.19C228.989 59.47 228.696 59.6833 228.343 59.83C227.996 59.9767 227.613 60.05 227.193 60.05C226.653 60.05 226.173 59.9367 225.753 59.71C225.339 59.4767 225.016 59.1567 224.783 58.75C224.549 58.3433 224.433 57.8833 224.433 57.37C224.433 56.8567 224.543 56.3967 224.763 55.99C224.989 55.5833 225.296 55.2667 225.683 55.04C226.076 54.8133 226.516 54.7 227.003 54.7C227.489 54.7 227.926 54.8133 228.313 55.04C228.699 55.2667 229.003 55.5833 229.223 55.99C229.443 56.39 229.553 56.85 229.553 57.37L229.543 57.59ZM227.003 55.31C226.496 55.31 226.069 55.4733 225.723 55.8C225.383 56.12 225.189 56.54 225.143 57.06H228.873C228.826 56.54 228.629 56.12 228.283 55.8C227.943 55.4733 227.516 55.31 227.003 55.31ZM232.408 60.05C231.981 60.05 231.571 59.99 231.178 59.87C230.791 59.7433 230.488 59.5867 230.268 59.4L230.588 58.84C230.808 59.0133 231.084 59.1567 231.418 59.27C231.751 59.3767 232.098 59.43 232.458 59.43C232.938 59.43 233.291 59.3567 233.518 59.21C233.751 59.0567 233.868 58.8433 233.868 58.57C233.868 58.3767 233.804 58.2267 233.678 58.12C233.551 58.0067 233.391 57.9233 233.198 57.87C233.004 57.81 232.748 57.7533 232.428 57.7C232.001 57.62 231.658 57.54 231.398 57.46C231.138 57.3733 230.914 57.23 230.728 57.03C230.548 56.83 230.458 56.5533 230.458 56.2C230.458 55.76 230.641 55.4 231.008 55.12C231.374 54.84 231.884 54.7 232.538 54.7C232.878 54.7 233.218 54.7467 233.558 54.84C233.898 54.9267 234.178 55.0433 234.398 55.19L234.088 55.76C233.654 55.46 233.138 55.31 232.538 55.31C232.084 55.31 231.741 55.39 231.508 55.55C231.281 55.71 231.168 55.92 231.168 56.18C231.168 56.38 231.231 56.54 231.358 56.66C231.491 56.78 231.654 56.87 231.848 56.93C232.041 56.9833 232.308 57.04 232.648 57.1C233.068 57.18 233.404 57.26 233.658 57.34C233.911 57.42 234.128 57.5567 234.308 57.75C234.488 57.9433 234.578 58.21 234.578 58.55C234.578 59.01 234.384 59.3767 233.998 59.65C233.618 59.9167 233.088 60.05 232.408 60.05Z" fill="#828282"/>
<path d="M200.032 96L205.152 84.8H206.32L211.44 96H210.192L205.488 85.488H205.968L201.264 96H200.032ZM202.048 93.008L202.4 92.048H208.912L209.264 93.008H202.048ZM215.231 96.08C214.537 96.08 213.881 95.984 213.263 95.792C212.644 95.5893 212.159 95.3387 211.807 95.04L212.319 94.144C212.66 94.4 213.097 94.624 213.631 94.816C214.164 94.9973 214.724 95.088 215.311 95.088C216.111 95.088 216.687 94.9653 217.039 94.72C217.391 94.464 217.567 94.128 217.567 93.712C217.567 93.4027 217.465 93.1627 217.263 92.992C217.071 92.8107 216.815 92.6773 216.495 92.592C216.175 92.496 215.817 92.416 215.423 92.352C215.028 92.288 214.633 92.2133 214.239 92.128C213.855 92.0427 213.503 91.92 213.183 91.76C212.863 91.5893 212.601 91.36 212.399 91.072C212.207 90.784 212.111 90.4 212.111 89.92C212.111 89.4613 212.239 89.0507 212.495 88.688C212.751 88.3253 213.124 88.0427 213.615 87.84C214.116 87.6267 214.724 87.52 215.439 87.52C215.983 87.52 216.527 87.5947 217.071 87.744C217.615 87.8827 218.063 88.0693 218.415 88.304L217.919 89.216C217.545 88.96 217.145 88.7787 216.719 88.672C216.292 88.5547 215.865 88.496 215.439 88.496C214.681 88.496 214.121 88.6293 213.759 88.896C213.407 89.152 213.231 89.4827 213.231 89.888C213.231 90.208 213.327 90.4587 213.519 90.64C213.721 90.8213 213.983 90.9653 214.303 91.072C214.633 91.168 214.991 91.248 215.375 91.312C215.769 91.376 216.159 91.456 216.543 91.552C216.937 91.6373 217.295 91.76 217.615 91.92C217.945 92.0693 218.207 92.288 218.399 92.576C218.601 92.8533 218.703 93.2213 218.703 93.68C218.703 94.1707 218.564 94.5973 218.287 94.96C218.02 95.312 217.625 95.5893 217.103 95.792C216.591 95.984 215.967 96.08 215.231 96.08ZM223.043 96.08C222.35 96.08 221.694 95.984 221.075 95.792C220.456 95.5893 219.971 95.3387 219.619 95.04L220.131 94.144C220.472 94.4 220.91 94.624 221.443 94.816C221.976 94.9973 222.536 95.088 223.123 95.088C223.923 95.088 224.499 94.9653 224.851 94.72C225.203 94.464 225.379 94.128 225.379 93.712C225.379 93.4027 225.278 93.1627 225.075 92.992C224.883 92.8107 224.627 92.6773 224.307 92.592C223.987 92.496 223.63 92.416 223.235 92.352C222.84 92.288 222.446 92.2133 222.051 92.128C221.667 92.0427 221.315 91.92 220.995 91.76C220.675 91.5893 220.414 91.36 220.211 91.072C220.019 90.784 219.923 90.4 219.923 89.92C219.923 89.4613 220.051 89.0507 220.307 88.688C220.563 88.3253 220.936 88.0427 221.427 87.84C221.928 87.6267 222.536 87.52 223.251 87.52C223.795 87.52 224.339 87.5947 224.883 87.744C225.427 87.8827 225.875 88.0693 226.227 88.304L225.731 89.216C225.358 88.96 224.958 88.7787 224.531 88.672C224.104 88.5547 223.678 88.496 223.251 88.496C222.494 88.496 221.934 88.6293 221.571 88.896C221.219 89.152 221.043 89.4827 221.043 89.888C221.043 90.208 221.139 90.4587 221.331 90.64C221.534 90.8213 221.795 90.9653 222.115 91.072C222.446 91.168 222.803 91.248 223.187 91.312C223.582 91.376 223.971 91.456 224.355 91.552C224.75 91.6373 225.107 91.76 225.427 91.92C225.758 92.0693 226.019 92.288 226.211 92.576C226.414 92.8533 226.515 93.2213 226.515 93.68C226.515 94.1707 226.376 94.5973 226.099 94.96C225.832 95.312 225.438 95.5893 224.915 95.792C224.403 95.984 223.779 96.08 223.043 96.08ZM232.072 96.08C231.357 96.08 230.733 95.9467 230.2 95.68C229.666 95.4133 229.25 95.0133 228.952 94.48C228.664 93.9467 228.52 93.28 228.52 92.48V87.6H229.656V92.352C229.656 93.248 229.874 93.9253 230.312 94.384C230.76 94.832 231.384 95.056 232.184 95.056C232.77 95.056 233.277 94.9387 233.704 94.704C234.141 94.4587 234.472 94.1067 234.696 93.648C234.93 93.1893 235.048 92.64 235.048 92V87.6H236.184V96H235.096V93.696L235.272 94.112C235.005 94.7307 234.589 95.216 234.024 95.568C233.469 95.9093 232.818 96.08 232.072 96.08ZM239.35 96V87.6H240.438V89.888L240.326 89.488C240.56 88.848 240.955 88.3627 241.51 88.032C242.064 87.6907 242.752 87.52 243.574 87.52V88.624C243.531 88.624 243.488 88.624 243.446 88.624C243.403 88.6133 243.36 88.608 243.318 88.608C242.432 88.608 241.739 88.88 241.238 89.424C240.736 89.9573 240.486 90.72 240.486 91.712V96H239.35ZM249.136 96.08C248.262 96.08 247.494 95.8987 246.832 95.536C246.171 95.1627 245.654 94.656 245.28 94.016C244.907 93.3653 244.72 92.624 244.72 91.792C244.72 90.96 244.896 90.224 245.248 89.584C245.611 88.944 246.102 88.4427 246.72 88.08C247.35 87.7067 248.054 87.52 248.832 87.52C249.622 87.52 250.32 87.7013 250.928 88.064C251.547 88.416 252.032 88.9173 252.384 89.568C252.736 90.208 252.912 90.9493 252.912 91.792C252.912 91.8453 252.907 91.904 252.896 91.968C252.896 92.0213 252.896 92.08 252.896 92.144H245.584V91.296H252.288L251.84 91.632C251.84 91.024 251.707 90.4853 251.44 90.016C251.184 89.536 250.832 89.1627 250.384 88.896C249.936 88.6293 249.419 88.496 248.832 88.496C248.256 88.496 247.739 88.6293 247.28 88.896C246.822 89.1627 246.464 89.536 246.208 90.016C245.952 90.496 245.824 91.0453 245.824 91.664V91.84C245.824 92.48 245.963 93.0453 246.24 93.536C246.528 94.016 246.923 94.3947 247.424 94.672C247.936 94.9387 248.518 95.072 249.168 95.072C249.68 95.072 250.155 94.9813 250.592 94.8C251.04 94.6187 251.424 94.3413 251.744 93.968L252.384 94.704C252.011 95.152 251.542 95.4933 250.976 95.728C250.422 95.9627 249.808 96.08 249.136 96.08ZM258.569 96.08C257.769 96.08 257.049 95.8987 256.409 95.536C255.779 95.1733 255.283 94.672 254.921 94.032C254.558 93.3813 254.377 92.6347 254.377 91.792C254.377 90.9387 254.558 90.192 254.921 89.552C255.283 88.912 255.779 88.416 256.409 88.064C257.049 87.7013 257.769 87.52 258.569 87.52C259.305 87.52 259.961 87.6853 260.537 88.016C261.123 88.3467 261.587 88.832 261.929 89.472C262.281 90.1013 262.457 90.8747 262.457 91.792C262.457 92.6987 262.286 93.472 261.945 94.112C261.603 94.752 261.139 95.2427 260.553 95.584C259.977 95.9147 259.315 96.08 258.569 96.08ZM258.649 95.072C259.246 95.072 259.779 94.9387 260.249 94.672C260.729 94.3947 261.102 94.0107 261.369 93.52C261.646 93.0187 261.785 92.4427 261.785 91.792C261.785 91.1307 261.646 90.5547 261.369 90.064C261.102 89.5733 260.729 89.1947 260.249 88.928C259.779 88.6507 259.246 88.512 258.649 88.512C258.062 88.512 257.534 88.6507 257.065 88.928C256.595 89.1947 256.222 89.5733 255.945 90.064C255.667 90.5547 255.529 91.1307 255.529 91.792C255.529 92.4427 255.667 93.0187 255.945 93.52C256.222 94.0107 256.595 94.3947 257.065 94.672C257.534 94.9387 258.062 95.072 258.649 95.072ZM261.817 96V93.472L261.929 91.776L261.769 90.08V84.128H262.905V96H261.817ZM274.592 96.08C273.867 96.08 273.211 95.9147 272.624 95.584C272.037 95.2427 271.568 94.7573 271.216 94.128C270.875 93.488 270.704 92.7093 270.704 91.792C270.704 90.8747 270.875 90.1013 271.216 89.472C271.557 88.832 272.021 88.3467 272.608 88.016C273.195 87.6853 273.856 87.52 274.592 87.52C275.392 87.52 276.107 87.7013 276.736 88.064C277.376 88.416 277.877 88.9173 278.24 89.568C278.603 90.208 278.784 90.9493 278.784 91.792C278.784 92.6453 278.603 93.392 278.24 94.032C277.877 94.672 277.376 95.1733 276.736 95.536C276.107 95.8987 275.392 96.08 274.592 96.08ZM270.256 99.104V87.6H271.344V90.128L271.232 91.808L271.392 93.504V99.104H270.256ZM274.512 95.072C275.109 95.072 275.643 94.9387 276.112 94.672C276.581 94.3947 276.955 94.0107 277.232 93.52C277.509 93.0187 277.648 92.4427 277.648 91.792C277.648 91.1413 277.509 90.5707 277.232 90.08C276.955 89.5893 276.581 89.2053 276.112 88.928C275.643 88.6507 275.109 88.512 274.512 88.512C273.915 88.512 273.376 88.6507 272.896 88.928C272.427 89.2053 272.053 89.5893 271.776 90.08C271.509 90.5707 271.376 91.1413 271.376 91.792C271.376 92.4427 271.509 93.0187 271.776 93.52C272.053 94.0107 272.427 94.3947 272.896 94.672C273.376 94.9387 273.915 95.072 274.512 95.072ZM284.572 96.08C283.857 96.08 283.233 95.9467 282.7 95.68C282.166 95.4133 281.75 95.0133 281.452 94.48C281.164 93.9467 281.02 93.28 281.02 92.48V87.6H282.156V92.352C282.156 93.248 282.374 93.9253 282.812 94.384C283.26 94.832 283.884 95.056 284.684 95.056C285.27 95.056 285.777 94.9387 286.204 94.704C286.641 94.4587 286.972 94.1067 287.196 93.648C287.43 93.1893 287.548 92.64 287.548 92V87.6H288.684V96H287.596V93.696L287.772 94.112C287.505 94.7307 287.089 95.216 286.524 95.568C285.969 95.9093 285.318 96.08 284.572 96.08ZM291.85 96V87.6H292.938V89.888L292.826 89.488C293.06 88.848 293.455 88.3627 294.01 88.032C294.564 87.6907 295.252 87.52 296.074 87.52V88.624C296.031 88.624 295.988 88.624 295.946 88.624C295.903 88.6133 295.86 88.608 295.818 88.608C294.932 88.608 294.239 88.88 293.738 89.424C293.236 89.9573 292.986 90.72 292.986 91.712V96H291.85ZM301.556 96.08C300.724 96.08 299.978 95.8987 299.316 95.536C298.666 95.1627 298.154 94.656 297.78 94.016C297.407 93.3653 297.22 92.624 297.22 91.792C297.22 90.9493 297.407 90.208 297.78 89.568C298.154 88.928 298.666 88.4267 299.316 88.064C299.978 87.7013 300.724 87.52 301.556 87.52C302.271 87.52 302.916 87.6587 303.492 87.936C304.068 88.2133 304.522 88.6293 304.852 89.184L304.004 89.76C303.716 89.3333 303.359 89.0187 302.932 88.816C302.506 88.6133 302.042 88.512 301.54 88.512C300.943 88.512 300.404 88.6507 299.924 88.928C299.444 89.1947 299.066 89.5733 298.788 90.064C298.511 90.5547 298.372 91.1307 298.372 91.792C298.372 92.4533 298.511 93.0293 298.788 93.52C299.066 94.0107 299.444 94.3947 299.924 94.672C300.404 94.9387 300.943 95.072 301.54 95.072C302.042 95.072 302.506 94.9707 302.932 94.768C303.359 94.5653 303.716 94.256 304.004 93.84L304.852 94.416C304.522 94.96 304.068 95.376 303.492 95.664C302.916 95.9413 302.271 96.08 301.556 96.08ZM311.247 87.52C311.93 87.52 312.527 87.6533 313.039 87.92C313.562 88.176 313.967 88.5707 314.255 89.104C314.554 89.6373 314.703 90.3093 314.703 91.12V96H313.567V91.232C313.567 90.3467 313.343 89.68 312.895 89.232C312.458 88.7733 311.839 88.544 311.039 88.544C310.442 88.544 309.919 88.6667 309.471 88.912C309.034 89.1467 308.692 89.4933 308.447 89.952C308.212 90.4 308.095 90.944 308.095 91.584V96H306.959V84.128H308.095V89.904L307.871 89.472C308.138 88.864 308.564 88.3893 309.151 88.048C309.738 87.696 310.436 87.52 311.247 87.52ZM323.036 96V94.144L322.988 93.84V90.736C322.988 90.0213 322.785 89.472 322.38 89.088C321.985 88.704 321.393 88.512 320.604 88.512C320.06 88.512 319.542 88.6027 319.052 88.784C318.561 88.9653 318.145 89.2053 317.804 89.504L317.292 88.656C317.718 88.2933 318.23 88.016 318.828 87.824C319.425 87.6213 320.054 87.52 320.716 87.52C321.804 87.52 322.641 87.792 323.228 88.336C323.825 88.8693 324.124 89.6853 324.124 90.784V96H323.036ZM320.14 96.08C319.51 96.08 318.961 95.9787 318.492 95.776C318.033 95.5627 317.681 95.2747 317.436 94.912C317.19 94.5387 317.068 94.112 317.068 93.632C317.068 93.1947 317.169 92.8 317.372 92.448C317.585 92.0853 317.926 91.7973 318.396 91.584C318.876 91.36 319.516 91.248 320.316 91.248H323.212V92.096H320.348C319.537 92.096 318.972 92.24 318.652 92.528C318.342 92.816 318.188 93.1733 318.188 93.6C318.188 94.08 318.374 94.464 318.748 94.752C319.121 95.04 319.644 95.184 320.316 95.184C320.956 95.184 321.505 95.04 321.964 94.752C322.433 94.4533 322.774 94.0267 322.988 93.472L323.244 94.256C323.03 94.8107 322.657 95.2533 322.124 95.584C321.601 95.9147 320.94 96.08 320.14 96.08ZM329.465 96.08C328.772 96.08 328.116 95.984 327.497 95.792C326.878 95.5893 326.393 95.3387 326.041 95.04L326.553 94.144C326.894 94.4 327.332 94.624 327.865 94.816C328.398 94.9973 328.958 95.088 329.545 95.088C330.345 95.088 330.921 94.9653 331.273 94.72C331.625 94.464 331.801 94.128 331.801 93.712C331.801 93.4027 331.7 93.1627 331.497 92.992C331.305 92.8107 331.049 92.6773 330.729 92.592C330.409 92.496 330.052 92.416 329.657 92.352C329.262 92.288 328.868 92.2133 328.473 92.128C328.089 92.0427 327.737 91.92 327.417 91.76C327.097 91.5893 326.836 91.36 326.633 91.072C326.441 90.784 326.345 90.4 326.345 89.92C326.345 89.4613 326.473 89.0507 326.729 88.688C326.985 88.3253 327.358 88.0427 327.849 87.84C328.35 87.6267 328.958 87.52 329.673 87.52C330.217 87.52 330.761 87.5947 331.305 87.744C331.849 87.8827 332.297 88.0693 332.649 88.304L332.153 89.216C331.78 88.96 331.38 88.7787 330.953 88.672C330.526 88.5547 330.1 88.496 329.673 88.496C328.916 88.496 328.356 88.6293 327.993 88.896C327.641 89.152 327.465 89.4827 327.465 89.888C327.465 90.208 327.561 90.4587 327.753 90.64C327.956 90.8213 328.217 90.9653 328.537 91.072C328.868 91.168 329.225 91.248 329.609 91.312C330.004 91.376 330.393 91.456 330.777 91.552C331.172 91.6373 331.529 91.76 331.849 91.92C332.18 92.0693 332.441 92.288 332.633 92.576C332.836 92.8533 332.937 93.2213 332.937 93.68C332.937 94.1707 332.798 94.5973 332.521 94.96C332.254 95.312 331.86 95.5893 331.337 95.792C330.825 95.984 330.201 96.08 329.465 96.08ZM338.59 96.08C337.715 96.08 336.947 95.8987 336.286 95.536C335.624 95.1627 335.107 94.656 334.734 94.016C334.36 93.3653 334.174 92.624 334.174 91.792C334.174 90.96 334.35 90.224 334.702 89.584C335.064 88.944 335.555 88.4427 336.174 88.08C336.803 87.7067 337.507 87.52 338.286 87.52C339.075 87.52 339.774 87.7013 340.382 88.064C341 88.416 341.486 88.9173 341.838 89.568C342.19 90.208 342.366 90.9493 342.366 91.792C342.366 91.8453 342.36 91.904 342.35 91.968C342.35 92.0213 342.35 92.08 342.35 92.144H335.038V91.296H341.742L341.294 91.632C341.294 91.024 341.16 90.4853 340.894 90.016C340.638 89.536 340.286 89.1627 339.838 88.896C339.39 88.6293 338.872 88.496 338.286 88.496C337.71 88.496 337.192 88.6293 336.734 88.896C336.275 89.1627 335.918 89.536 335.662 90.016C335.406 90.496 335.278 91.0453 335.278 91.664V91.84C335.278 92.48 335.416 93.0453 335.694 93.536C335.982 94.016 336.376 94.3947 336.878 94.672C337.39 94.9387 337.971 95.072 338.622 95.072C339.134 95.072 339.608 94.9813 340.046 94.8C340.494 94.6187 340.878 94.3413 341.198 93.968L341.838 94.704C341.464 95.152 340.995 95.4933 340.43 95.728C339.875 95.9627 339.262 96.08 338.59 96.08Z" fill="#828282"/>
<path d="M22.352 116V105.76L23.472 106.88H20.112V104.8H24.944V116H22.352ZM32.1249 116V104.8H34.2689L39.0369 112.704H37.9009L42.5889 104.8H44.7169L44.7489 116H42.3169L42.3009 108.528H42.7489L39.0049 114.816H37.8369L34.0129 108.528H34.5569V116H32.1249ZM51.3261 116.128C50.4088 116.128 49.5928 115.936 48.8781 115.552C48.1741 115.168 47.6141 114.645 47.1981 113.984C46.7928 113.312 46.5901 112.549 46.5901 111.696C46.5901 110.832 46.7928 110.069 47.1981 109.408C47.6141 108.736 48.1741 108.213 48.8781 107.84C49.5928 107.456 50.4088 107.264 51.3261 107.264C52.2328 107.264 53.0435 107.456 53.7581 107.84C54.4728 108.213 55.0328 108.731 55.4381 109.392C55.8435 110.053 56.0461 110.821 56.0461 111.696C56.0461 112.549 55.8435 113.312 55.4381 113.984C55.0328 114.645 54.4728 115.168 53.7581 115.552C53.0435 115.936 52.2328 116.128 51.3261 116.128ZM51.3261 114.08C51.7421 114.08 52.1155 113.984 52.4461 113.792C52.7768 113.6 53.0381 113.328 53.2301 112.976C53.4221 112.613 53.5181 112.187 53.5181 111.696C53.5181 111.195 53.4221 110.768 53.2301 110.416C53.0381 110.064 52.7768 109.792 52.4461 109.6C52.1155 109.408 51.7421 109.312 51.3261 109.312C50.9101 109.312 50.5368 109.408 50.2061 109.6C49.8755 109.792 49.6088 110.064 49.4061 110.416C49.2141 110.768 49.1181 111.195 49.1181 111.696C49.1181 112.187 49.2141 112.613 49.4061 112.976C49.6088 113.328 49.8755 113.6 50.2061 113.792C50.5368 113.984 50.9101 114.08 51.3261 114.08ZM62.9465 107.264C63.6292 107.264 64.2372 107.403 64.7705 107.68C65.3145 107.947 65.7412 108.363 66.0505 108.928C66.3598 109.483 66.5145 110.197 66.5145 111.072V116H64.0185V111.456C64.0185 110.763 63.8638 110.251 63.5545 109.92C63.2558 109.589 62.8292 109.424 62.2745 109.424C61.8798 109.424 61.5225 109.509 61.2025 109.68C60.8932 109.84 60.6478 110.091 60.4665 110.432C60.2958 110.773 60.2105 111.211 60.2105 111.744V116H57.7145V107.392H60.0985V109.776L59.6505 109.056C59.9598 108.48 60.4025 108.037 60.9785 107.728C61.5545 107.419 62.2105 107.264 62.9465 107.264ZM72.297 116.128C71.2837 116.128 70.4943 115.872 69.929 115.36C69.3637 114.837 69.081 114.064 69.081 113.04V105.488H71.577V113.008C71.577 113.371 71.673 113.653 71.865 113.856C72.057 114.048 72.3183 114.144 72.649 114.144C73.0437 114.144 73.3797 114.037 73.657 113.824L74.329 115.584C74.073 115.765 73.7637 115.904 73.401 116C73.049 116.085 72.681 116.128 72.297 116.128ZM67.753 109.504V107.584H73.721V109.504H67.753ZM80.9621 107.264C81.6448 107.264 82.2528 107.403 82.7861 107.68C83.3301 107.947 83.7568 108.363 84.0661 108.928C84.3755 109.483 84.5301 110.197 84.5301 111.072V116H82.0341V111.456C82.0341 110.763 81.8795 110.251 81.5701 109.92C81.2715 109.589 80.8448 109.424 80.2901 109.424C79.8955 109.424 79.5381 109.509 79.2181 109.68C78.9088 109.84 78.6635 110.091 78.4821 110.432C78.3115 110.773 78.2261 111.211 78.2261 111.744V116H75.7301V104.128H78.2261V109.776L77.6661 109.056C77.9755 108.48 78.4181 108.037 78.9941 107.728C79.5701 107.419 80.2261 107.264 80.9621 107.264Z" fill="#4F4F4F"/>
<path d="M203.728 109.84H209.104V111.92H203.728V109.84ZM203.92 116H201.328V104.8H209.792V106.88H203.92V116ZM211.215 116V107.392H213.599V109.824L213.263 109.12C213.519 108.512 213.929 108.053 214.495 107.744C215.06 107.424 215.748 107.264 216.559 107.264V109.568C216.452 109.557 216.356 109.552 216.271 109.552C216.185 109.541 216.095 109.536 215.999 109.536C215.316 109.536 214.761 109.733 214.335 110.128C213.919 110.512 213.711 111.115 213.711 111.936V116H211.215ZM222.076 116.128C221.159 116.128 220.343 115.936 219.628 115.552C218.924 115.168 218.364 114.645 217.948 113.984C217.543 113.312 217.34 112.549 217.34 111.696C217.34 110.832 217.543 110.069 217.948 109.408C218.364 108.736 218.924 108.213 219.628 107.84C220.343 107.456 221.159 107.264 222.076 107.264C222.983 107.264 223.793 107.456 224.508 107.84C225.223 108.213 225.783 108.731 226.188 109.392C226.593 110.053 226.796 110.821 226.796 111.696C226.796 112.549 226.593 113.312 226.188 113.984C225.783 114.645 225.223 115.168 224.508 115.552C223.793 115.936 222.983 116.128 222.076 116.128ZM222.076 114.08C222.492 114.08 222.865 113.984 223.196 113.792C223.527 113.6 223.788 113.328 223.98 112.976C224.172 112.613 224.268 112.187 224.268 111.696C224.268 111.195 224.172 110.768 223.98 110.416C223.788 110.064 223.527 109.792 223.196 109.6C222.865 109.408 222.492 109.312 222.076 109.312C221.66 109.312 221.287 109.408 220.956 109.6C220.625 109.792 220.359 110.064 220.156 110.416C219.964 110.768 219.868 111.195 219.868 111.696C219.868 112.187 219.964 112.613 220.156 112.976C220.359 113.328 220.625 113.6 220.956 113.792C221.287 113.984 221.66 114.08 222.076 114.08ZM239.489 107.264C240.171 107.264 240.774 107.403 241.297 107.68C241.83 107.947 242.246 108.363 242.545 108.928C242.854 109.483 243.009 110.197 243.009 111.072V116H240.513V111.456C240.513 110.763 240.369 110.251 240.081 109.92C239.793 109.589 239.387 109.424 238.865 109.424C238.502 109.424 238.177 109.509 237.889 109.68C237.601 109.84 237.377 110.085 237.217 110.416C237.057 110.747 236.977 111.168 236.977 111.68V116H234.481V111.456C234.481 110.763 234.337 110.251 234.049 109.92C233.771 109.589 233.371 109.424 232.849 109.424C232.486 109.424 232.161 109.509 231.873 109.68C231.585 109.84 231.361 110.085 231.201 110.416C231.041 110.747 230.961 111.168 230.961 111.68V116H228.465V107.392H230.849V109.744L230.401 109.056C230.699 108.469 231.121 108.027 231.665 107.728C232.219 107.419 232.849 107.264 233.553 107.264C234.342 107.264 235.03 107.467 235.617 107.872C236.214 108.267 236.609 108.875 236.801 109.696L235.921 109.456C236.209 108.784 236.667 108.251 237.297 107.856C237.937 107.461 238.667 107.264 239.489 107.264ZM253.057 117.92V102.88H254.657V117.92H253.057ZM253.633 116.192C252.737 116.192 251.878 116.075 251.057 115.84C250.236 115.595 249.574 115.28 249.073 114.896L249.953 112.944C250.433 113.285 250.998 113.568 251.649 113.792C252.31 114.005 252.977 114.112 253.649 114.112C254.161 114.112 254.572 114.064 254.881 113.968C255.201 113.861 255.436 113.717 255.585 113.536C255.734 113.355 255.809 113.147 255.809 112.912C255.809 112.613 255.692 112.379 255.457 112.208C255.222 112.027 254.913 111.883 254.529 111.776C254.145 111.659 253.718 111.552 253.249 111.456C252.79 111.349 252.326 111.221 251.857 111.072C251.398 110.923 250.977 110.731 250.593 110.496C250.209 110.261 249.894 109.952 249.649 109.568C249.414 109.184 249.297 108.693 249.297 108.096C249.297 107.456 249.468 106.875 249.809 106.352C250.161 105.819 250.684 105.397 251.377 105.088C252.081 104.768 252.961 104.608 254.017 104.608C254.721 104.608 255.414 104.693 256.097 104.864C256.78 105.024 257.382 105.269 257.905 105.6L257.105 107.568C256.582 107.269 256.06 107.051 255.537 106.912C255.014 106.763 254.502 106.688 254.001 106.688C253.5 106.688 253.089 106.747 252.769 106.864C252.449 106.981 252.22 107.136 252.081 107.328C251.942 107.509 251.873 107.723 251.873 107.968C251.873 108.256 251.99 108.491 252.225 108.672C252.46 108.843 252.769 108.981 253.153 109.088C253.537 109.195 253.958 109.301 254.417 109.408C254.886 109.515 255.35 109.637 255.809 109.776C256.278 109.915 256.705 110.101 257.089 110.336C257.473 110.571 257.782 110.88 258.017 111.264C258.262 111.648 258.385 112.133 258.385 112.72C258.385 113.349 258.209 113.925 257.857 114.448C257.505 114.971 256.977 115.392 256.273 115.712C255.58 116.032 254.7 116.192 253.633 116.192ZM259.356 116V114.32L263.676 110.24C264.017 109.931 264.268 109.653 264.428 109.408C264.588 109.163 264.695 108.939 264.748 108.736C264.812 108.533 264.844 108.347 264.844 108.176C264.844 107.728 264.689 107.387 264.38 107.152C264.081 106.907 263.639 106.784 263.052 106.784C262.583 106.784 262.145 106.875 261.74 107.056C261.345 107.237 261.009 107.52 260.732 107.904L258.844 106.688C259.271 106.048 259.868 105.541 260.636 105.168C261.404 104.795 262.289 104.608 263.292 104.608C264.124 104.608 264.849 104.747 265.468 105.024C266.097 105.291 266.583 105.669 266.924 106.16C267.276 106.651 267.452 107.237 267.452 107.92C267.452 108.283 267.404 108.645 267.308 109.008C267.223 109.36 267.041 109.733 266.764 110.128C266.497 110.523 266.103 110.965 265.58 111.456L261.996 114.832L261.5 113.888H267.82V116H259.356ZM273.69 116.192C272.772 116.192 271.951 115.968 271.226 115.52C270.5 115.061 269.93 114.4 269.514 113.536C269.098 112.672 268.89 111.627 268.89 110.4C268.89 109.173 269.098 108.128 269.514 107.264C269.93 106.4 270.5 105.744 271.226 105.296C271.951 104.837 272.772 104.608 273.69 104.608C274.618 104.608 275.439 104.837 276.154 105.296C276.879 105.744 277.45 106.4 277.866 107.264C278.282 108.128 278.49 109.173 278.49 110.4C278.49 111.627 278.282 112.672 277.866 113.536C277.45 114.4 276.879 115.061 276.154 115.52C275.439 115.968 274.618 116.192 273.69 116.192ZM273.69 114C274.127 114 274.506 113.877 274.826 113.632C275.156 113.387 275.412 112.997 275.594 112.464C275.786 111.931 275.882 111.243 275.882 110.4C275.882 109.557 275.786 108.869 275.594 108.336C275.412 107.803 275.156 107.413 274.826 107.168C274.506 106.923 274.127 106.8 273.69 106.8C273.263 106.8 272.884 106.923 272.554 107.168C272.234 107.413 271.978 107.803 271.786 108.336C271.604 108.869 271.514 109.557 271.514 110.4C271.514 111.243 271.604 111.931 271.786 112.464C271.978 112.997 272.234 113.387 272.554 113.632C272.884 113.877 273.263 114 273.69 114ZM284.549 116.192C283.632 116.192 282.81 115.968 282.085 115.52C281.36 115.061 280.789 114.4 280.373 113.536C279.957 112.672 279.749 111.627 279.749 110.4C279.749 109.173 279.957 108.128 280.373 107.264C280.789 106.4 281.36 105.744 282.085 105.296C282.81 104.837 283.632 104.608 284.549 104.608C285.477 104.608 286.298 104.837 287.013 105.296C287.738 105.744 288.309 106.4 288.725 107.264C289.141 108.128 289.349 109.173 289.349 110.4C289.349 111.627 289.141 112.672 288.725 113.536C288.309 114.4 287.738 115.061 287.013 115.52C286.298 115.968 285.477 116.192 284.549 116.192ZM284.549 114C284.986 114 285.365 113.877 285.685 113.632C286.016 113.387 286.272 112.997 286.453 112.464C286.645 111.931 286.741 111.243 286.741 110.4C286.741 109.557 286.645 108.869 286.453 108.336C286.272 107.803 286.016 107.413 285.685 107.168C285.365 106.923 284.986 106.8 284.549 106.8C284.122 106.8 283.744 106.923 283.413 107.168C283.093 107.413 282.837 107.803 282.645 108.336C282.464 108.869 282.373 109.557 282.373 110.4C282.373 111.243 282.464 111.931 282.645 112.464C282.837 112.997 283.093 113.387 283.413 113.632C283.744 113.877 284.122 114 284.549 114ZM291.877 116.128C291.451 116.128 291.083 115.984 290.773 115.696C290.475 115.397 290.325 115.019 290.325 114.56C290.325 114.101 290.475 113.733 290.773 113.456C291.083 113.168 291.451 113.024 291.877 113.024C292.315 113.024 292.683 113.168 292.981 113.456C293.28 113.733 293.429 114.101 293.429 114.56C293.429 115.019 293.28 115.397 292.981 115.696C292.683 115.984 292.315 116.128 291.877 116.128ZM299.19 116.192C298.272 116.192 297.451 115.968 296.726 115.52C296 115.061 295.43 114.4 295.014 113.536C294.598 112.672 294.39 111.627 294.39 110.4C294.39 109.173 294.598 108.128 295.014 107.264C295.43 106.4 296 105.744 296.726 105.296C297.451 104.837 298.272 104.608 299.19 104.608C300.118 104.608 300.939 104.837 301.654 105.296C302.379 105.744 302.95 106.4 303.366 107.264C303.782 108.128 303.99 109.173 303.99 110.4C303.99 111.627 303.782 112.672 303.366 113.536C302.95 114.4 302.379 115.061 301.654 115.52C300.939 115.968 300.118 116.192 299.19 116.192ZM299.19 114C299.627 114 300.006 113.877 300.326 113.632C300.656 113.387 300.912 112.997 301.094 112.464C301.286 111.931 301.382 111.243 301.382 110.4C301.382 109.557 301.286 108.869 301.094 108.336C300.912 107.803 300.656 107.413 300.326 107.168C300.006 106.923 299.627 106.8 299.19 106.8C298.763 106.8 298.384 106.923 298.054 107.168C297.734 107.413 297.478 107.803 297.286 108.336C297.104 108.869 297.014 109.557 297.014 110.4C297.014 111.243 297.104 111.931 297.286 112.464C297.478 112.997 297.734 113.387 298.054 113.632C298.384 113.877 298.763 114 299.19 114ZM310.049 116.192C309.132 116.192 308.31 115.968 307.585 115.52C306.86 115.061 306.289 114.4 305.873 113.536C305.457 112.672 305.249 111.627 305.249 110.4C305.249 109.173 305.457 108.128 305.873 107.264C306.289 106.4 306.86 105.744 307.585 105.296C308.31 104.837 309.132 104.608 310.049 104.608C310.977 104.608 311.798 104.837 312.513 105.296C313.238 105.744 313.809 106.4 314.225 107.264C314.641 108.128 314.849 109.173 314.849 110.4C314.849 111.627 314.641 112.672 314.225 113.536C313.809 114.4 313.238 115.061 312.513 115.52C311.798 115.968 310.977 116.192 310.049 116.192ZM310.049 114C310.486 114 310.865 113.877 311.185 113.632C311.516 113.387 311.772 112.997 311.953 112.464C312.145 111.931 312.241 111.243 312.241 110.4C312.241 109.557 312.145 108.869 311.953 108.336C311.772 107.803 311.516 107.413 311.185 107.168C310.865 106.923 310.486 106.8 310.049 106.8C309.622 106.8 309.244 106.923 308.913 107.168C308.593 107.413 308.337 107.803 308.145 108.336C307.964 108.869 307.873 109.557 307.873 110.4C307.873 111.243 307.964 111.931 308.145 112.464C308.337 112.997 308.593 113.387 308.913 113.632C309.244 113.877 309.622 114 310.049 114ZM320.908 116.192C319.991 116.192 319.17 115.968 318.444 115.52C317.719 115.061 317.148 114.4 316.732 113.536C316.316 112.672 316.108 111.627 316.108 110.4C316.108 109.173 316.316 108.128 316.732 107.264C317.148 106.4 317.719 105.744 318.444 105.296C319.17 104.837 319.991 104.608 320.908 104.608C321.836 104.608 322.658 104.837 323.372 105.296C324.098 105.744 324.668 106.4 325.084 107.264C325.5 108.128 325.708 109.173 325.708 110.4C325.708 111.627 325.5 112.672 325.084 113.536C324.668 114.4 324.098 115.061 323.372 115.52C322.658 115.968 321.836 116.192 320.908 116.192ZM320.908 114C321.346 114 321.724 113.877 322.044 113.632C322.375 113.387 322.631 112.997 322.812 112.464C323.004 111.931 323.1 111.243 323.1 110.4C323.1 109.557 323.004 108.869 322.812 108.336C322.631 107.803 322.375 107.413 322.044 107.168C321.724 106.923 321.346 106.8 320.908 106.8C320.482 106.8 320.103 106.923 319.772 107.168C319.452 107.413 319.196 107.803 319.004 108.336C318.823 108.869 318.732 109.557 318.732 110.4C318.732 111.243 318.823 111.931 319.004 112.464C319.196 112.997 319.452 113.387 319.772 113.632C320.103 113.877 320.482 114 320.908 114Z" fill="#4F4F4F"/>
<path d="M92.112 156V151.424L92.704 152.992L87.776 144.8H90.528L94.304 151.088H92.72L96.512 144.8H99.056L94.128 152.992L94.704 151.424V156H92.112ZM102.431 149.312H107.823V151.328H102.431V149.312ZM102.623 153.92H108.719V156H100.047V144.8H108.511V146.88H102.623V153.92ZM114.461 156.192C113.565 156.192 112.706 156.075 111.885 155.84C111.064 155.595 110.402 155.28 109.901 154.896L110.781 152.944C111.261 153.285 111.826 153.568 112.477 153.792C113.138 154.005 113.805 154.112 114.477 154.112C114.989 154.112 115.4 154.064 115.709 153.968C116.029 153.861 116.264 153.717 116.413 153.536C116.562 153.355 116.637 153.147 116.637 152.912C116.637 152.613 116.52 152.379 116.285 152.208C116.05 152.027 115.741 151.883 115.357 151.776C114.973 151.659 114.546 151.552 114.077 151.456C113.618 151.349 113.154 151.221 112.685 151.072C112.226 150.923 111.805 150.731 111.421 150.496C111.037 150.261 110.722 149.952 110.477 149.568C110.242 149.184 110.125 148.693 110.125 148.096C110.125 147.456 110.296 146.875 110.637 146.352C110.989 145.819 111.512 145.397 112.205 145.088C112.909 144.768 113.789 144.608 114.845 144.608C115.549 144.608 116.242 144.693 116.925 144.864C117.608 145.024 118.21 145.269 118.733 145.6L117.933 147.568C117.41 147.269 116.888 147.051 116.365 146.912C115.842 146.763 115.33 146.688 114.829 146.688C114.328 146.688 113.917 146.747 113.597 146.864C113.277 146.981 113.048 147.136 112.909 147.328C112.77 147.509 112.701 147.723 112.701 147.968C112.701 148.256 112.818 148.491 113.053 148.672C113.288 148.843 113.597 148.981 113.981 149.088C114.365 149.195 114.786 149.301 115.245 149.408C115.714 149.515 116.178 149.637 116.637 149.776C117.106 149.915 117.533 150.101 117.917 150.336C118.301 150.571 118.61 150.88 118.845 151.264C119.09 151.648 119.213 152.133 119.213 152.72C119.213 153.349 119.037 153.925 118.685 154.448C118.333 154.971 117.805 155.392 117.101 155.712C116.408 156.032 115.528 156.192 114.461 156.192Z" fill="#4F4F4F"/>
<path d="M211.6 144.8V156H209.472L203.888 149.2V156H201.328V144.8H203.472L209.04 151.6V144.8H211.6ZM219.674 156.192C218.511 156.192 217.461 155.941 216.522 155.44C215.594 154.939 214.863 154.251 214.33 153.376C213.807 152.491 213.546 151.499 213.546 150.4C213.546 149.301 213.807 148.315 214.33 147.44C214.863 146.555 215.594 145.861 216.522 145.36C217.461 144.859 218.511 144.608 219.674 144.608C220.837 144.608 221.882 144.859 222.81 145.36C223.738 145.861 224.469 146.555 225.002 147.44C225.535 148.315 225.802 149.301 225.802 150.4C225.802 151.499 225.535 152.491 225.002 153.376C224.469 154.251 223.738 154.939 222.81 155.44C221.882 155.941 220.837 156.192 219.674 156.192ZM219.674 153.984C220.335 153.984 220.933 153.835 221.466 153.536C221.999 153.227 222.415 152.8 222.714 152.256C223.023 151.712 223.178 151.093 223.178 150.4C223.178 149.707 223.023 149.088 222.714 148.544C222.415 148 221.999 147.579 221.466 147.28C220.933 146.971 220.335 146.816 219.674 146.816C219.013 146.816 218.415 146.971 217.882 147.28C217.349 147.579 216.927 148 216.618 148.544C216.319 149.088 216.17 149.707 216.17 150.4C216.17 151.093 216.319 151.712 216.618 152.256C216.927 152.8 217.349 153.227 217.882 153.536C218.415 153.835 219.013 153.984 219.674 153.984Z" fill="#4F4F4F"/>
<path d="M21.824 136V124.8H26.016C26.9653 124.8 27.7813 124.955 28.464 125.264C29.1467 125.563 29.6693 126 30.032 126.576C30.4053 127.141 30.592 127.829 30.592 128.64C30.592 129.429 30.4053 130.112 30.032 130.688C29.6693 131.253 29.1467 131.691 28.464 132C27.7813 132.309 26.9653 132.464 26.016 132.464H22.48L23.008 131.904V136H21.824ZM23.008 132L22.48 131.424H25.984C27.104 131.424 27.952 131.184 28.528 130.704C29.1147 130.213 29.408 129.525 29.408 128.64C29.408 127.744 29.1147 127.051 28.528 126.56C27.952 126.069 27.104 125.824 25.984 125.824H22.48L23.008 125.264V132ZM38.098 136V134.144L38.05 133.84V130.736C38.05 130.021 37.8473 129.472 37.442 129.088C37.0473 128.704 36.4553 128.512 35.666 128.512C35.122 128.512 34.6047 128.603 34.114 128.784C33.6233 128.965 33.2073 129.205 32.866 129.504L32.354 128.656C32.7807 128.293 33.2927 128.016 33.89 127.824C34.4873 127.621 35.1167 127.52 35.778 127.52C36.866 127.52 37.7033 127.792 38.29 128.336C38.8873 128.869 39.186 129.685 39.186 130.784V136H38.098ZM35.202 136.08C34.5727 136.08 34.0233 135.979 33.554 135.776C33.0953 135.563 32.7433 135.275 32.498 134.912C32.2527 134.539 32.13 134.112 32.13 133.632C32.13 133.195 32.2313 132.8 32.434 132.448C32.6473 132.085 32.9887 131.797 33.458 131.584C33.938 131.36 34.578 131.248 35.378 131.248H38.274V132.096H35.41C34.5993 132.096 34.034 132.24 33.714 132.528C33.4047 132.816 33.25 133.173 33.25 133.6C33.25 134.08 33.4367 134.464 33.81 134.752C34.1833 135.04 34.706 135.184 35.378 135.184C36.018 135.184 36.5673 135.04 37.026 134.752C37.4953 134.453 37.8367 134.027 38.05 133.472L38.306 134.256C38.0927 134.811 37.7193 135.253 37.186 135.584C36.6633 135.915 36.002 136.08 35.202 136.08ZM42.1793 139.184C41.7846 139.184 41.4059 139.12 41.0433 138.992C40.6913 138.864 40.3872 138.672 40.1312 138.416L40.6593 137.568C40.8726 137.771 41.1019 137.925 41.3473 138.032C41.6033 138.149 41.8859 138.208 42.1953 138.208C42.5686 138.208 42.8886 138.101 43.1553 137.888C43.4326 137.685 43.6939 137.323 43.9393 136.8L44.4833 135.568L44.6113 135.392L48.0673 127.6H49.1873L44.9793 137.008C44.7446 137.552 44.4833 137.984 44.1953 138.304C43.9179 138.624 43.6139 138.848 43.2833 138.976C42.9526 139.115 42.5846 139.184 42.1793 139.184ZM44.4193 136.24L40.5473 127.6H41.7313L45.1553 135.312L44.4193 136.24ZM61.2831 127.52C61.9658 127.52 62.5578 127.653 63.0591 127.92C63.5711 128.176 63.9658 128.571 64.2431 129.104C64.5311 129.637 64.6751 130.309 64.6751 131.12V136H63.5391V131.232C63.5391 130.347 63.3258 129.68 62.8991 129.232C62.4831 128.773 61.8911 128.544 61.1231 128.544C60.5471 128.544 60.0458 128.667 59.6191 128.912C59.2031 129.147 58.8778 129.493 58.6431 129.952C58.4191 130.4 58.3071 130.944 58.3071 131.584V136H57.1711V131.232C57.1711 130.347 56.9578 129.68 56.5311 129.232C56.1045 128.773 55.5071 128.544 54.7391 128.544C54.1738 128.544 53.6778 128.667 53.2511 128.912C52.8245 129.147 52.4938 129.493 52.2591 129.952C52.0351 130.4 51.9231 130.944 51.9231 131.584V136H50.7871V127.6H51.8751V129.872L51.6991 129.472C51.9551 128.864 52.3658 128.389 52.9311 128.048C53.5071 127.696 54.1845 127.52 54.9631 127.52C55.7845 127.52 56.4831 127.728 57.0591 128.144C57.6351 128.549 58.0085 129.163 58.1791 129.984L57.7311 129.808C57.9765 129.125 58.4085 128.576 59.0271 128.16C59.6565 127.733 60.4085 127.52 61.2831 127.52ZM71.3239 136.08C70.4492 136.08 69.6812 135.899 69.0199 135.536C68.3585 135.163 67.8412 134.656 67.4679 134.016C67.0945 133.365 66.9079 132.624 66.9079 131.792C66.9079 130.96 67.0839 130.224 67.4359 129.584C67.7985 128.944 68.2892 128.443 68.9079 128.08C69.5372 127.707 70.2412 127.52 71.0199 127.52C71.8092 127.52 72.5079 127.701 73.1159 128.064C73.7345 128.416 74.2199 128.917 74.5719 129.568C74.9239 130.208 75.0999 130.949 75.0999 131.792C75.0999 131.845 75.0945 131.904 75.0839 131.968C75.0839 132.021 75.0839 132.08 75.0839 132.144H67.7719V131.296H74.4759L74.0279 131.632C74.0279 131.024 73.8945 130.485 73.6279 130.016C73.3719 129.536 73.0199 129.163 72.5719 128.896C72.1239 128.629 71.6065 128.496 71.0199 128.496C70.4439 128.496 69.9265 128.629 69.4679 128.896C69.0092 129.163 68.6519 129.536 68.3959 130.016C68.1399 130.496 68.0119 131.045 68.0119 131.664V131.84C68.0119 132.48 68.1505 133.045 68.4279 133.536C68.7159 134.016 69.1105 134.395 69.6119 134.672C70.1239 134.939 70.7052 135.072 71.3559 135.072C71.8679 135.072 72.3425 134.981 72.7799 134.8C73.2279 134.619 73.6119 134.341 73.9319 133.968L74.5719 134.704C74.1985 135.152 73.7292 135.493 73.1639 135.728C72.6092 135.963 71.9959 136.08 71.3239 136.08ZM81.7001 127.52C82.3828 127.52 82.9801 127.653 83.4921 127.92C84.0148 128.176 84.4201 128.571 84.7081 129.104C85.0068 129.637 85.1561 130.309 85.1561 131.12V136H84.0201V131.232C84.0201 130.347 83.7961 129.68 83.3481 129.232C82.9108 128.773 82.2921 128.544 81.4921 128.544C80.8948 128.544 80.3721 128.667 79.9241 128.912C79.4868 129.147 79.1455 129.493 78.9001 129.952C78.6655 130.4 78.5481 130.944 78.5481 131.584V136H77.4121V127.6H78.5001V129.904L78.3241 129.472C78.5908 128.864 79.0175 128.389 79.6041 128.048C80.1908 127.696 80.8895 127.52 81.7001 127.52ZM90.8806 136.08C90.0913 136.08 89.4833 135.867 89.0566 135.44C88.63 135.013 88.4166 134.411 88.4166 133.632V125.744H89.5526V133.568C89.5526 134.059 89.6753 134.437 89.9206 134.704C90.1766 134.971 90.5393 135.104 91.0086 135.104C91.51 135.104 91.926 134.96 92.2566 134.672L92.6566 135.488C92.4326 135.691 92.1606 135.84 91.8406 135.936C91.5313 136.032 91.2113 136.08 90.8806 136.08ZM86.9126 128.544V127.6H92.1126V128.544H86.9126ZM104.176 136V134.144L104.128 133.84V130.736C104.128 130.021 103.925 129.472 103.52 129.088C103.125 128.704 102.533 128.512 101.744 128.512C101.2 128.512 100.683 128.603 100.192 128.784C99.7015 128.965 99.2855 129.205 98.9441 129.504L98.4321 128.656C98.8588 128.293 99.3708 128.016 99.9681 127.824C100.565 127.621 101.195 127.52 101.856 127.52C102.944 127.52 103.781 127.792 104.368 128.336C104.965 128.869 105.264 129.685 105.264 130.784V136H104.176ZM101.28 136.08C100.651 136.08 100.101 135.979 99.6321 135.776C99.1735 135.563 98.8215 135.275 98.5761 134.912C98.3308 134.539 98.2081 134.112 98.2081 133.632C98.2081 133.195 98.3095 132.8 98.5121 132.448C98.7255 132.085 99.0668 131.797 99.5361 131.584C100.016 131.36 100.656 131.248 101.456 131.248H104.352V132.096H101.488C100.677 132.096 100.112 132.24 99.7921 132.528C99.4828 132.816 99.3281 133.173 99.3281 133.6C99.3281 134.08 99.5148 134.464 99.8881 134.752C100.261 135.04 100.784 135.184 101.456 135.184C102.096 135.184 102.645 135.04 103.104 134.752C103.573 134.453 103.915 134.027 104.128 133.472L104.384 134.256C104.171 134.811 103.797 135.253 103.264 135.584C102.741 135.915 102.08 136.08 101.28 136.08ZM111.934 139.184C111.166 139.184 110.43 139.072 109.726 138.848C109.022 138.624 108.451 138.304 108.014 137.888L108.59 137.024C108.984 137.376 109.47 137.653 110.046 137.856C110.632 138.069 111.251 138.176 111.902 138.176C112.968 138.176 113.752 137.925 114.254 137.424C114.755 136.933 115.006 136.165 115.006 135.12V133.024L115.166 131.584L115.054 130.144V127.6H116.142V134.976C116.142 136.427 115.784 137.488 115.07 138.16C114.366 138.843 113.32 139.184 111.934 139.184ZM111.726 135.68C110.926 135.68 110.206 135.509 109.566 135.168C108.926 134.816 108.419 134.331 108.046 133.712C107.683 133.093 107.502 132.384 107.502 131.584C107.502 130.784 107.683 130.08 108.046 129.472C108.419 128.853 108.926 128.373 109.566 128.032C110.206 127.691 110.926 127.52 111.726 127.52C112.472 127.52 113.144 127.675 113.742 127.984C114.339 128.293 114.814 128.752 115.166 129.36C115.518 129.968 115.694 130.709 115.694 131.584C115.694 132.459 115.518 133.2 115.166 133.808C114.814 134.416 114.339 134.88 113.742 135.2C113.144 135.52 112.472 135.68 111.726 135.68ZM111.838 134.672C112.456 134.672 113.006 134.544 113.486 134.288C113.966 134.021 114.344 133.659 114.622 133.2C114.899 132.731 115.038 132.192 115.038 131.584C115.038 130.976 114.899 130.443 114.622 129.984C114.344 129.525 113.966 129.168 113.486 128.912C113.006 128.645 112.456 128.512 111.838 128.512C111.23 128.512 110.68 128.645 110.19 128.912C109.71 129.168 109.331 129.525 109.054 129.984C108.787 130.443 108.654 130.976 108.654 131.584C108.654 132.192 108.787 132.731 109.054 133.2C109.331 133.659 109.71 134.021 110.19 134.288C110.68 134.544 111.23 134.672 111.838 134.672ZM124.567 136V134.144L124.519 133.84V130.736C124.519 130.021 124.316 129.472 123.911 129.088C123.516 128.704 122.924 128.512 122.135 128.512C121.591 128.512 121.073 128.603 120.583 128.784C120.092 128.965 119.676 129.205 119.335 129.504L118.823 128.656C119.249 128.293 119.761 128.016 120.359 127.824C120.956 127.621 121.585 127.52 122.247 127.52C123.335 127.52 124.172 127.792 124.759 128.336C125.356 128.869 125.655 129.685 125.655 130.784V136H124.567ZM121.671 136.08C121.041 136.08 120.492 135.979 120.023 135.776C119.564 135.563 119.212 135.275 118.967 134.912C118.721 134.539 118.599 134.112 118.599 133.632C118.599 133.195 118.7 132.8 118.903 132.448C119.116 132.085 119.457 131.797 119.927 131.584C120.407 131.36 121.047 131.248 121.847 131.248H124.743V132.096H121.879C121.068 132.096 120.503 132.24 120.183 132.528C119.873 132.816 119.719 133.173 119.719 133.6C119.719 134.08 119.905 134.464 120.279 134.752C120.652 135.04 121.175 135.184 121.847 135.184C122.487 135.184 123.036 135.04 123.495 134.752C123.964 134.453 124.305 134.027 124.519 133.472L124.775 134.256C124.561 134.811 124.188 135.253 123.655 135.584C123.132 135.915 122.471 136.08 121.671 136.08ZM128.74 136V127.6H129.876V136H128.74ZM129.316 125.744C129.082 125.744 128.884 125.664 128.724 125.504C128.564 125.344 128.484 125.152 128.484 124.928C128.484 124.704 128.564 124.517 128.724 124.368C128.884 124.208 129.082 124.128 129.316 124.128C129.551 124.128 129.748 124.203 129.908 124.352C130.068 124.501 130.148 124.688 130.148 124.912C130.148 125.147 130.068 125.344 129.908 125.504C129.759 125.664 129.562 125.744 129.316 125.744ZM137.325 127.52C138.008 127.52 138.605 127.653 139.117 127.92C139.64 128.176 140.045 128.571 140.333 129.104C140.632 129.637 140.781 130.309 140.781 131.12V136H139.645V131.232C139.645 130.347 139.421 129.68 138.973 129.232C138.536 128.773 137.917 128.544 137.117 128.544C136.52 128.544 135.997 128.667 135.549 128.912C135.112 129.147 134.77 129.493 134.525 129.952C134.29 130.4 134.173 130.944 134.173 131.584V136H133.037V127.6H134.125V129.904L133.949 129.472C134.216 128.864 134.642 128.389 135.229 128.048C135.816 127.696 136.514 127.52 137.325 127.52ZM146.106 136.08C145.412 136.08 144.756 135.984 144.138 135.792C143.519 135.589 143.034 135.339 142.682 135.04L143.194 134.144C143.535 134.4 143.972 134.624 144.506 134.816C145.039 134.997 145.599 135.088 146.186 135.088C146.986 135.088 147.562 134.965 147.914 134.72C148.266 134.464 148.442 134.128 148.442 133.712C148.442 133.403 148.34 133.163 148.138 132.992C147.946 132.811 147.69 132.677 147.37 132.592C147.05 132.496 146.692 132.416 146.298 132.352C145.903 132.288 145.508 132.213 145.114 132.128C144.73 132.043 144.378 131.92 144.058 131.76C143.738 131.589 143.476 131.36 143.274 131.072C143.082 130.784 142.986 130.4 142.986 129.92C142.986 129.461 143.114 129.051 143.37 128.688C143.626 128.325 143.999 128.043 144.49 127.84C144.991 127.627 145.599 127.52 146.314 127.52C146.858 127.52 147.402 127.595 147.946 127.744C148.49 127.883 148.938 128.069 149.29 128.304L148.794 129.216C148.42 128.96 148.02 128.779 147.594 128.672C147.167 128.555 146.74 128.496 146.314 128.496C145.556 128.496 144.996 128.629 144.634 128.896C144.282 129.152 144.106 129.483 144.106 129.888C144.106 130.208 144.202 130.459 144.394 130.64C144.596 130.821 144.858 130.965 145.178 131.072C145.508 131.168 145.866 131.248 146.25 131.312C146.644 131.376 147.034 131.456 147.418 131.552C147.812 131.637 148.17 131.76 148.49 131.92C148.82 132.069 149.082 132.288 149.274 132.576C149.476 132.853 149.578 133.221 149.578 133.68C149.578 134.171 149.439 134.597 149.162 134.96C148.895 135.312 148.5 135.589 147.978 135.792C147.466 135.984 146.842 136.08 146.106 136.08ZM154.318 136.08C153.529 136.08 152.921 135.867 152.494 135.44C152.067 135.013 151.854 134.411 151.854 133.632V125.744H152.99V133.568C152.99 134.059 153.113 134.437 153.358 134.704C153.614 134.971 153.977 135.104 154.446 135.104C154.947 135.104 155.363 134.96 155.694 134.672L156.094 135.488C155.87 135.691 155.598 135.84 155.278 135.936C154.969 136.032 154.649 136.08 154.318 136.08ZM150.35 128.544V127.6H155.55V128.544H150.35ZM24.928 156.08C24.128 156.08 23.408 155.899 22.768 155.536C22.1387 155.173 21.6427 154.672 21.28 154.032C20.9173 153.381 20.736 152.635 20.736 151.792C20.736 150.939 20.9173 150.192 21.28 149.552C21.6427 148.912 22.1387 148.416 22.768 148.064C23.408 147.701 24.128 147.52 24.928 147.52C25.664 147.52 26.32 147.685 26.896 148.016C27.4827 148.347 27.9467 148.832 28.288 149.472C28.64 150.101 28.816 150.875 28.816 151.792C28.816 152.699 28.6453 153.472 28.304 154.112C27.9627 154.752 27.4987 155.243 26.912 155.584C26.336 155.915 25.6747 156.08 24.928 156.08ZM25.008 155.072C25.6053 155.072 26.1387 154.939 26.608 154.672C27.088 154.395 27.4613 154.011 27.728 153.52C28.0053 153.019 28.144 152.443 28.144 151.792C28.144 151.131 28.0053 150.555 27.728 150.064C27.4613 149.573 27.088 149.195 26.608 148.928C26.1387 148.651 25.6053 148.512 25.008 148.512C24.4213 148.512 23.8933 148.651 23.424 148.928C22.9547 149.195 22.5813 149.573 22.304 150.064C22.0267 150.555 21.888 151.131 21.888 151.792C21.888 152.443 22.0267 153.019 22.304 153.52C22.5813 154.011 22.9547 154.395 23.424 154.672C23.8933 154.939 24.4213 155.072 25.008 155.072ZM28.176 156V153.472L28.288 151.776L28.128 150.08V144.128H29.264V156H28.176ZM35.9958 156.08C35.1211 156.08 34.3531 155.899 33.6918 155.536C33.0304 155.163 32.5131 154.656 32.1398 154.016C31.7664 153.365 31.5798 152.624 31.5798 151.792C31.5798 150.96 31.7558 150.224 32.1078 149.584C32.4704 148.944 32.9611 148.443 33.5798 148.08C34.2091 147.707 34.9131 147.52 35.6918 147.52C36.4811 147.52 37.1798 147.701 37.7878 148.064C38.4064 148.416 38.8918 148.917 39.2438 149.568C39.5958 150.208 39.7718 150.949 39.7718 151.792C39.7718 151.845 39.7664 151.904 39.7558 151.968C39.7558 152.021 39.7558 152.08 39.7558 152.144H32.4438V151.296H39.1478L38.6998 151.632C38.6998 151.024 38.5664 150.485 38.2998 150.016C38.0438 149.536 37.6918 149.163 37.2438 148.896C36.7958 148.629 36.2784 148.496 35.6918 148.496C35.1158 148.496 34.5984 148.629 34.1398 148.896C33.6811 149.163 33.3238 149.536 33.0678 150.016C32.8118 150.496 32.6838 151.045 32.6838 151.664V151.84C32.6838 152.48 32.8224 153.045 33.0998 153.536C33.3878 154.016 33.7824 154.395 34.2838 154.672C34.7958 154.939 35.3771 155.072 36.0278 155.072C36.5398 155.072 37.0144 154.981 37.4518 154.8C37.8998 154.619 38.2838 154.341 38.6038 153.968L39.2438 154.704C38.8704 155.152 38.4011 155.493 37.8358 155.728C37.2811 155.963 36.6678 156.08 35.9958 156.08ZM42.084 156V144.128H43.22V156H42.084ZM46.3809 156V147.6H47.5169V156H46.3809ZM46.9569 145.744C46.7222 145.744 46.5249 145.664 46.3649 145.504C46.2049 145.344 46.1249 145.152 46.1249 144.928C46.1249 144.704 46.2049 144.517 46.3649 144.368C46.5249 144.208 46.7222 144.128 46.9569 144.128C47.1915 144.128 47.3889 144.203 47.5489 144.352C47.7089 144.501 47.7889 144.688 47.7889 144.912C47.7889 145.147 47.7089 145.344 47.5489 145.504C47.3995 145.664 47.2022 145.744 46.9569 145.744ZM52.8378 156L49.1098 147.6H50.2938L53.7178 155.392H53.1578L56.6298 147.6H57.7498L54.0058 156H52.8378ZM62.6833 156.08C61.8086 156.08 61.0406 155.899 60.3793 155.536C59.7179 155.163 59.2006 154.656 58.8273 154.016C58.4539 153.365 58.2673 152.624 58.2673 151.792C58.2673 150.96 58.4433 150.224 58.7953 149.584C59.1579 148.944 59.6486 148.443 60.2673 148.08C60.8966 147.707 61.6006 147.52 62.3793 147.52C63.1686 147.52 63.8673 147.701 64.4753 148.064C65.0939 148.416 65.5793 148.917 65.9313 149.568C66.2833 150.208 66.4593 150.949 66.4593 151.792C66.4593 151.845 66.4539 151.904 66.4433 151.968C66.4433 152.021 66.4433 152.08 66.4433 152.144H59.1313V151.296H65.8353L65.3873 151.632C65.3873 151.024 65.2539 150.485 64.9873 150.016C64.7313 149.536 64.3793 149.163 63.9313 148.896C63.4833 148.629 62.9659 148.496 62.3793 148.496C61.8033 148.496 61.2859 148.629 60.8273 148.896C60.3686 149.163 60.0113 149.536 59.7553 150.016C59.4993 150.496 59.3713 151.045 59.3713 151.664V151.84C59.3713 152.48 59.5099 153.045 59.7873 153.536C60.0753 154.016 60.4699 154.395 60.9713 154.672C61.4833 154.939 62.0646 155.072 62.7153 155.072C63.2273 155.072 63.7019 154.981 64.1393 154.8C64.5873 154.619 64.9713 154.341 65.2913 153.968L65.9313 154.704C65.5579 155.152 65.0886 155.493 64.5233 155.728C63.9686 155.963 63.3553 156.08 62.6833 156.08ZM68.7715 156V147.6H69.8595V149.888L69.7475 149.488C69.9822 148.848 70.3768 148.363 70.9315 148.032C71.4862 147.691 72.1742 147.52 72.9955 147.52V148.624C72.9528 148.624 72.9102 148.624 72.8675 148.624C72.8248 148.613 72.7822 148.608 72.7395 148.608C71.8542 148.608 71.1608 148.88 70.6595 149.424C70.1582 149.957 69.9075 150.72 69.9075 151.712V156H68.7715ZM75.4918 159.184C75.0971 159.184 74.7184 159.12 74.3558 158.992C74.0038 158.864 73.6997 158.672 73.4437 158.416L73.9718 157.568C74.1851 157.771 74.4144 157.925 74.6598 158.032C74.9158 158.149 75.1984 158.208 75.5078 158.208C75.8811 158.208 76.2011 158.101 76.4678 157.888C76.7451 157.685 77.0064 157.323 77.2518 156.8L77.7958 155.568L77.9238 155.392L81.3798 147.6H82.4998L78.2918 157.008C78.0571 157.552 77.7958 157.984 77.5078 158.304C77.2304 158.624 76.9264 158.848 76.5958 158.976C76.2651 159.115 75.8971 159.184 75.4918 159.184ZM77.7318 156.24L73.8598 147.6H75.0438L78.4678 155.312L77.7318 156.24Z" fill="#828282"/>
<path d="M201.824 136V124.8H206.016C206.965 124.8 207.781 124.955 208.464 125.264C209.147 125.563 209.669 126 210.032 126.576C210.405 127.141 210.592 127.829 210.592 128.64C210.592 129.429 210.405 130.112 210.032 130.688C209.669 131.253 209.147 131.691 208.464 132C207.781 132.299 206.965 132.448 206.016 132.448H202.48L203.008 131.904V136H201.824ZM209.472 136L206.592 131.936H207.872L210.768 136H209.472ZM203.008 132L202.48 131.44H205.984C207.104 131.44 207.952 131.195 208.528 130.704C209.115 130.213 209.408 129.525 209.408 128.64C209.408 127.744 209.115 127.051 208.528 126.56C207.952 126.069 207.104 125.824 205.984 125.824H202.48L203.008 125.264V132ZM216.715 136.08C215.84 136.08 215.072 135.899 214.411 135.536C213.749 135.163 213.232 134.656 212.859 134.016C212.485 133.365 212.299 132.624 212.299 131.792C212.299 130.96 212.475 130.224 212.827 129.584C213.189 128.944 213.68 128.443 214.299 128.08C214.928 127.707 215.632 127.52 216.411 127.52C217.2 127.52 217.899 127.701 218.507 128.064C219.125 128.416 219.611 128.917 219.963 129.568C220.315 130.208 220.491 130.949 220.491 131.792C220.491 131.845 220.485 131.904 220.475 131.968C220.475 132.021 220.475 132.08 220.475 132.144H213.163V131.296H219.867L219.419 131.632C219.419 131.024 219.285 130.485 219.019 130.016C218.763 129.536 218.411 129.163 217.963 128.896C217.515 128.629 216.997 128.496 216.411 128.496C215.835 128.496 215.317 128.629 214.859 128.896C214.4 129.163 214.043 129.536 213.787 130.016C213.531 130.496 213.403 131.045 213.403 131.664V131.84C213.403 132.48 213.541 133.045 213.819 133.536C214.107 134.016 214.501 134.395 215.003 134.672C215.515 134.939 216.096 135.072 216.747 135.072C217.259 135.072 217.733 134.981 218.171 134.8C218.619 134.619 219.003 134.341 219.323 133.968L219.963 134.704C219.589 135.152 219.12 135.493 218.555 135.728C218 135.963 217.387 136.08 216.715 136.08ZM222.995 136V126.544C222.995 125.797 223.213 125.195 223.651 124.736C224.088 124.277 224.717 124.048 225.539 124.048C225.859 124.048 226.168 124.091 226.467 124.176C226.765 124.261 227.016 124.395 227.219 124.576L226.835 125.424C226.675 125.285 226.488 125.184 226.275 125.12C226.061 125.045 225.832 125.008 225.587 125.008C225.107 125.008 224.739 125.141 224.483 125.408C224.227 125.675 224.099 126.069 224.099 126.592V127.872L224.131 128.4V136H222.995ZM221.491 128.544V127.6H226.691V128.544H221.491ZM231.697 136.08C230.982 136.08 230.358 135.947 229.825 135.68C229.291 135.413 228.875 135.013 228.577 134.48C228.289 133.947 228.145 133.28 228.145 132.48V127.6H229.281V132.352C229.281 133.248 229.499 133.925 229.937 134.384C230.385 134.832 231.009 135.056 231.809 135.056C232.395 135.056 232.902 134.939 233.329 134.704C233.766 134.459 234.097 134.107 234.321 133.648C234.555 133.189 234.673 132.64 234.673 132V127.6H235.809V136H234.721V133.696L234.897 134.112C234.63 134.731 234.214 135.216 233.649 135.568C233.094 135.909 232.443 136.08 231.697 136.08ZM243.263 127.52C243.945 127.52 244.543 127.653 245.055 127.92C245.577 128.176 245.983 128.571 246.271 129.104C246.569 129.637 246.719 130.309 246.719 131.12V136H245.583V131.232C245.583 130.347 245.359 129.68 244.911 129.232C244.473 128.773 243.855 128.544 243.055 128.544C242.457 128.544 241.935 128.667 241.487 128.912C241.049 129.147 240.708 129.493 240.463 129.952C240.228 130.4 240.111 130.944 240.111 131.584V136H238.975V127.6H240.063V129.904L239.887 129.472C240.153 128.864 240.58 128.389 241.167 128.048C241.753 127.696 242.452 127.52 243.263 127.52ZM253.131 136.08C252.331 136.08 251.611 135.899 250.971 135.536C250.342 135.173 249.846 134.672 249.483 134.032C249.12 133.381 248.939 132.635 248.939 131.792C248.939 130.939 249.12 130.192 249.483 129.552C249.846 128.912 250.342 128.416 250.971 128.064C251.611 127.701 252.331 127.52 253.131 127.52C253.867 127.52 254.523 127.685 255.099 128.016C255.686 128.347 256.15 128.832 256.491 129.472C256.843 130.101 257.019 130.875 257.019 131.792C257.019 132.699 256.848 133.472 256.507 134.112C256.166 134.752 255.702 135.243 255.115 135.584C254.539 135.915 253.878 136.08 253.131 136.08ZM253.211 135.072C253.808 135.072 254.342 134.939 254.811 134.672C255.291 134.395 255.664 134.011 255.931 133.52C256.208 133.019 256.347 132.443 256.347 131.792C256.347 131.131 256.208 130.555 255.931 130.064C255.664 129.573 255.291 129.195 254.811 128.928C254.342 128.651 253.808 128.512 253.211 128.512C252.624 128.512 252.096 128.651 251.627 128.928C251.158 129.195 250.784 129.573 250.507 130.064C250.23 130.555 250.091 131.131 250.091 131.792C250.091 132.443 250.23 133.019 250.507 133.52C250.784 134.011 251.158 134.395 251.627 134.672C252.096 134.939 252.624 135.072 253.211 135.072ZM256.379 136V133.472L256.491 131.776L256.331 130.08V124.128H257.467V136H256.379ZM262.887 136.08C262.194 136.08 261.538 135.984 260.919 135.792C260.3 135.589 259.815 135.339 259.463 135.04L259.975 134.144C260.316 134.4 260.754 134.624 261.287 134.816C261.82 134.997 262.38 135.088 262.967 135.088C263.767 135.088 264.343 134.965 264.695 134.72C265.047 134.464 265.223 134.128 265.223 133.712C265.223 133.403 265.122 133.163 264.919 132.992C264.727 132.811 264.471 132.677 264.151 132.592C263.831 132.496 263.474 132.416 263.079 132.352C262.684 132.288 262.29 132.213 261.895 132.128C261.511 132.043 261.159 131.92 260.839 131.76C260.519 131.589 260.258 131.36 260.055 131.072C259.863 130.784 259.767 130.4 259.767 129.92C259.767 129.461 259.895 129.051 260.151 128.688C260.407 128.325 260.78 128.043 261.271 127.84C261.772 127.627 262.38 127.52 263.095 127.52C263.639 127.52 264.183 127.595 264.727 127.744C265.271 127.883 265.719 128.069 266.071 128.304L265.575 129.216C265.202 128.96 264.802 128.779 264.375 128.672C263.948 128.555 263.522 128.496 263.095 128.496C262.338 128.496 261.778 128.629 261.415 128.896C261.063 129.152 260.887 129.483 260.887 129.888C260.887 130.208 260.983 130.459 261.175 130.64C261.378 130.821 261.639 130.965 261.959 131.072C262.29 131.168 262.647 131.248 263.031 131.312C263.426 131.376 263.815 131.456 264.199 131.552C264.594 131.637 264.951 131.76 265.271 131.92C265.602 132.069 265.863 132.288 266.055 132.576C266.258 132.853 266.359 133.221 266.359 133.68C266.359 134.171 266.22 134.597 265.943 134.96C265.676 135.312 265.282 135.589 264.759 135.792C264.247 135.984 263.623 136.08 262.887 136.08Z" fill="#828282"/>
<path d="M90.9296 52.1667L90.9293 52.1667L88.3197 51.7715L88.3194 51.7714C88.0692 51.7334 87.86 51.5714 87.7553 51.3489C87.7551 51.3485 87.7549 51.3481 87.7547 51.3476L86.5898 48.8879C86.5898 48.8879 86.5897 48.8878 86.5897 48.8878C86.472 48.6399 86.2438 48.5 85.9995 48.5C85.7557 48.5 85.5282 48.6395 85.4102 48.8876L90.9296 52.1667ZM90.9296 52.1667C91.1724 52.2033 91.3816 52.3775 91.4649 52.6441C91.5488 52.9123 91.4791 53.1939 91.2923 53.3835L91.292 53.3837L89.4081 55.2975C89.4079 55.2978 89.4076 55.298 89.4074 55.2983C89.2322 55.4755 89.1593 55.7227 89.1976 55.9593L89.1978 55.9606L89.6431 58.6659L89.6432 58.6664C89.6894 58.9455 89.5808 59.2114 89.3731 59.3685C89.1687 59.5231 88.9117 59.5413 88.6912 59.4208C88.6912 59.4208 88.6912 59.4208 88.6911 59.4208L86.3572 58.1432L86.357 58.1431C86.1359 58.0223 85.8681 58.0206 85.6447 58.1436C85.6442 58.1438 85.6438 58.1441 85.6433 58.1443L83.3113 59.4208L83.3111 59.421C83.2127 59.4749 83.1092 59.5 83.0094 59.5C82.8792 59.5 82.7469 59.4582 82.6298 59.3697C82.4221 59.2121 82.3133 58.9458 82.3594 58.6674L82.3595 58.6668L82.8048 55.9615L82.805 55.9602C82.8439 55.7198 82.7667 55.475 82.5972 55.3012L82.5972 55.3012L82.5955 55.2995L80.7081 53.384C80.708 53.3839 80.708 53.3839 80.7079 53.3838C80.5211 53.1936 80.4513 52.9116 80.5349 52.6441C80.6183 52.3775 80.8274 52.2033 81.0703 52.1667L81.0706 52.1666L83.6792 51.7715L83.6795 51.7714C83.9334 51.7328 84.1382 51.5684 84.2421 51.3521L84.2432 51.3497L85.4101 48.8879L90.9296 52.1667Z" fill="#EDCA71" stroke="#EDCA71"/>
<path d="M125.648 53.7345C125.968 53.4106 126.08 52.9356 125.942 52.4949C125.804 52.0541 125.445 51.7388 125.004 51.6723L122.395 51.2771C122.313 51.2648 122.243 51.2116 122.208 51.1356L121.041 48.6735C120.844 48.2584 120.445 48 119.999 48C119.554 48 119.155 48.2584 118.958 48.6735L117.791 51.1356C117.755 51.2116 117.686 51.2648 117.604 51.2771L114.996 51.6723C114.555 51.7388 114.195 52.0541 114.058 52.4949C113.92 52.9356 114.033 53.4106 114.352 53.7345L116.239 55.6504C116.298 55.7103 116.325 55.7958 116.311 55.8803L115.866 58.5856C115.79 59.0425 115.968 59.4956 116.328 59.7682C116.531 59.9221 116.769 60 117.009 60C117.194 60 117.38 59.9535 117.551 59.8594L119.885 58.5818C119.957 58.5419 120.044 58.5419 120.117 58.5818L122.451 59.8594C122.845 60.075 123.314 60.0399 123.675 59.7673C124.035 59.4947 124.212 59.0416 124.136 58.5847L123.691 55.8794C123.677 55.7948 123.704 55.7093 123.763 55.6495L125.648 53.7345Z" fill="#EDCA71"/>
<path d="M107.93 52.1667L107.929 52.1667L105.32 51.7715L105.319 51.7714C105.069 51.7334 104.86 51.5714 104.755 51.3489C104.755 51.3485 104.755 51.3481 104.755 51.3476L103.59 48.8879C103.59 48.8879 103.59 48.8878 103.59 48.8878C103.472 48.6399 103.244 48.5 102.999 48.5C102.756 48.5 102.528 48.6395 102.41 48.8876L107.93 52.1667ZM107.93 52.1667C108.172 52.2033 108.382 52.3775 108.465 52.6441C108.549 52.9123 108.479 53.1939 108.292 53.3835L108.292 53.3837L106.408 55.2975C106.408 55.2978 106.408 55.298 106.407 55.2983C106.232 55.4755 106.159 55.7227 106.198 55.9593L106.198 55.9606L106.643 58.6659L106.643 58.6664C106.689 58.9455 106.581 59.2114 106.373 59.3685C106.169 59.5231 105.912 59.5413 105.691 59.4208C105.691 59.4208 105.691 59.4208 105.691 59.4208L103.357 58.1432L103.357 58.1431C103.136 58.0223 102.868 58.0206 102.645 58.1436C102.644 58.1438 102.644 58.1441 102.643 58.1443L100.311 59.4208L100.311 59.421C100.213 59.4749 100.109 59.5 100.009 59.5C99.8792 59.5 99.7469 59.4582 99.6298 59.3697C99.4221 59.2121 99.3133 58.9458 99.3594 58.6674L99.3595 58.6668L99.8048 55.9615L99.805 55.9602C99.8439 55.7198 99.7667 55.475 99.5972 55.3012L99.5972 55.3012L99.5955 55.2995L97.7081 53.384C97.708 53.3839 97.708 53.3839 97.7079 53.3838C97.5211 53.1936 97.4513 52.9116 97.5349 52.6441C97.6183 52.3775 97.8274 52.2033 98.0703 52.1667L98.0706 52.1666L100.679 51.7715L100.68 51.7714C100.933 51.7328 101.138 51.5684 101.242 51.3521L101.243 51.3497L102.41 48.8879L107.93 52.1667Z" fill="#EDCA71" stroke="#EDCA71"/>
<path d="M141.936 53.0324L141.936 53.033L140.053 54.9456C140.052 54.9461 140.052 54.9467 140.051 54.9472C139.76 55.2418 139.641 55.6507 139.704 56.0392L139.704 56.0418L140.15 58.7471L140.15 58.7482C140.167 58.8495 140.127 58.9281 140.071 58.9697C140.043 58.9913 140.019 58.9979 140.001 58.9993C139.983 59.0006 139.96 58.9977 139.931 58.9821L137.597 57.7046L137.597 57.7043C137.228 57.5026 136.779 57.4992 136.404 57.7053C136.403 57.7058 136.402 57.7064 136.401 57.7069L134.071 58.9822L134.071 58.9825C134.046 58.9963 134.025 59 134.009 59C133.989 59 133.962 58.9941 133.932 58.971C133.876 58.9283 133.836 58.8489 133.853 58.7491L133.853 58.748L134.298 56.0427L134.299 56.0401C134.363 55.6439 134.236 55.2397 133.955 54.952L133.955 54.952L133.952 54.9486L132.065 53.0335C132.065 53.0334 132.064 53.0333 132.064 53.0332C132.009 52.9767 131.983 52.8876 132.012 52.7933C132.027 52.7454 132.051 52.7142 132.072 52.6951C132.094 52.6762 132.118 52.6652 132.145 52.6611L132.145 52.661L134.754 52.2659L134.755 52.2658C135.181 52.2009 135.521 51.9252 135.693 51.5685L135.693 51.5685L135.695 51.5639L136.862 49.1024C136.862 49.1023 136.862 49.1022 136.862 49.1021C136.882 49.0592 136.908 49.0343 136.929 49.0206C136.95 49.0071 136.973 49 136.999 49C137.026 49 137.049 49.0072 137.071 49.0209C137.092 49.0349 137.118 49.0597 137.138 49.102C137.138 49.1021 137.138 49.1022 137.138 49.1024L138.303 51.5625C138.477 51.9314 138.825 52.202 139.244 52.2658L139.245 52.2659L141.854 52.661L141.855 52.6611C141.882 52.6652 141.906 52.6762 141.927 52.6951C141.949 52.7142 141.973 52.7454 141.988 52.7933C142.018 52.889 141.991 52.9773 141.936 53.0324Z" stroke="#EDCA71" stroke-width="2"/>
<path d="M158.936 53.0324L158.936 53.033L157.053 54.9456C157.052 54.9461 157.052 54.9467 157.051 54.9472C156.76 55.2418 156.641 55.6507 156.704 56.0392L156.704 56.0418L157.15 58.7471L157.15 58.7482C157.167 58.8495 157.127 58.9281 157.071 58.9697C157.043 58.9913 157.019 58.9979 157.001 58.9993C156.983 59.0006 156.96 58.9977 156.931 58.9821L154.597 57.7046L154.597 57.7043C154.228 57.5026 153.779 57.4992 153.404 57.7053C153.403 57.7058 153.402 57.7064 153.401 57.7069L151.071 58.9822L151.071 58.9825C151.046 58.9963 151.025 59 151.009 59C150.989 59 150.962 58.9941 150.932 58.971C150.876 58.9283 150.836 58.8489 150.853 58.7491L150.853 58.748L151.298 56.0427L151.299 56.0401C151.363 55.6439 151.236 55.2397 150.955 54.952L150.955 54.952L150.952 54.9486L149.065 53.0335C149.065 53.0334 149.064 53.0333 149.064 53.0332C149.009 52.9767 148.983 52.8876 149.012 52.7933C149.027 52.7454 149.051 52.7142 149.072 52.6951C149.094 52.6762 149.118 52.6652 149.145 52.6611L149.145 52.661L151.754 52.2659L151.755 52.2658C152.181 52.2009 152.521 51.9252 152.693 51.5685L152.693 51.5685L152.695 51.5639L153.862 49.1024C153.862 49.1023 153.862 49.1022 153.862 49.1021C153.882 49.0592 153.908 49.0343 153.929 49.0206C153.95 49.0071 153.973 49 153.999 49C154.026 49 154.049 49.0072 154.071 49.0209C154.092 49.0349 154.118 49.0597 154.138 49.102C154.138 49.1021 154.138 49.1022 154.138 49.1024L155.303 51.5625C155.477 51.9314 155.825 52.202 156.244 52.2658L156.245 52.2659L158.854 52.661L158.855 52.6611C158.882 52.6652 158.906 52.6762 158.927 52.6951C158.949 52.7142 158.973 52.7454 158.988 52.7933C159.018 52.889 158.991 52.9773 158.936 53.0324Z" stroke="#EDCA71" stroke-width="2"/>
</svg>
