<svg width="380" height="180" viewBox="0 0 380 180" fill="none" xmlns="http://www.w3.org/2000/svg">
<rect width="380" height="180" rx="20" fill="white"/>
<rect x="20" y="20" width="40" height="40" rx="20" fill="#FF7171"/>
<path d="M45.7555 42.8323H44.1794C42.9329 42.8323 41.9207 43.8493 41.9207 45.098V46.6789C41.9207 47.9292 42.9346 48.9446 44.1794 48.9446H45.7555C47.0019 48.9446 48.0142 47.9276 48.0142 46.6789V45.098C48.0158 43.8493 47.0019 42.8323 45.7555 42.8323ZM46.3427 46.6789C46.3427 47.0028 46.08 47.2663 45.7571 47.2663H44.181C43.8581 47.2663 43.5955 47.0028 43.5955 46.6789V45.098C43.5955 44.7741 43.8581 44.5106 44.181 44.5106H45.7571C46.08 44.5106 46.3427 44.7741 46.3427 45.098V46.6789Z" fill="#F2F2F2"/>
<path d="M52.4999 35.7366C52.4999 35.255 52.351 34.7934 52.0682 34.4041L47.7482 28.4377C47.3232 27.852 46.6406 27.5029 45.9195 27.5029H34.0838C33.3627 27.5029 32.6801 27.852 32.2551 28.4377L27.9351 34.4057C27.6523 34.7951 27.5034 35.255 27.5034 35.7366V36.987C27.5034 37.0205 27.5101 37.0524 27.5135 37.0843C27.5101 37.1179 27.5034 37.1497 27.5034 37.1816C27.5034 38.4555 28.1375 39.5816 29.1046 40.263V50.232C29.1046 51.4823 30.1185 52.4977 31.3633 52.4977H32.3438C33.5902 52.4977 34.6025 51.4807 34.6025 50.232V44.9236C34.6025 44.5997 34.8652 44.3362 35.1881 44.3362H38.5795C38.9024 44.3362 39.1651 44.5997 39.1651 44.9236V50.232C39.1651 51.4823 40.179 52.4977 41.4238 52.4977H48.6383C49.8848 52.4977 50.897 51.4807 50.897 50.232V40.263C51.8641 39.5816 52.4999 38.4555 52.4999 37.1816C52.4999 37.1481 52.4932 37.1162 52.4898 37.0843C52.4932 37.0524 52.4999 37.0205 52.4999 36.987V35.7366ZM29.1765 35.7366C29.1765 35.6108 29.215 35.4916 29.2886 35.3909L33.6103 29.4229C33.7207 29.2718 33.8981 29.1812 34.0838 29.1812H45.9195C46.1069 29.1812 46.2842 29.2718 46.393 29.4229L50.7147 35.3909C50.7883 35.4916 50.8268 35.6108 50.8268 35.7366V36.987C50.8268 37.0205 50.8335 37.0524 50.8368 37.0843C50.8335 37.1162 50.8268 37.1481 50.8268 37.1816C50.8268 38.3313 49.8948 39.2677 48.7471 39.2677C47.5993 39.2677 46.6674 38.3329 46.6674 37.1816C46.6674 36.7184 46.2926 36.3425 45.8308 36.3425C45.369 36.3425 44.9943 36.7184 44.9943 37.1816C44.9943 38.3313 44.0623 39.2677 42.9146 39.2677C41.7685 39.2677 40.8365 38.3329 40.8365 37.1816C40.8365 36.7184 40.4618 36.3425 40 36.3425C39.5382 36.3425 39.1634 36.7184 39.1634 37.1816C39.1634 38.3313 38.2315 39.2677 37.0837 39.2677C35.936 39.2677 35.004 38.3329 35.004 37.1816C35.004 36.7184 34.6293 36.3425 34.1675 36.3425C33.7057 36.3425 33.3309 36.7184 33.3309 37.1816C33.3309 38.3313 32.399 39.2677 31.2512 39.2677C30.1085 39.2677 29.1765 38.3329 29.1765 37.1816C29.1765 37.1481 29.1698 37.1162 29.1665 37.0843C29.1698 37.0524 29.1765 37.0205 29.1765 36.987V35.7366ZM49.2256 50.2337C49.2256 50.5576 48.9629 50.8211 48.64 50.8211H41.4255C41.1026 50.8211 40.8399 50.5576 40.8399 50.2337V44.9253C40.8399 43.6749 39.826 42.6596 38.5812 42.6596H35.1897C33.9433 42.6596 32.931 43.6766 32.931 44.9253V50.2337C32.931 50.5576 32.6684 50.8211 32.3454 50.8211H31.365C31.0421 50.8211 30.7794 50.5576 30.7794 50.2337V40.9142C30.935 40.9343 31.0939 40.946 31.2562 40.946C32.4324 40.946 33.4832 40.4006 34.1725 39.548C34.8601 40.4006 35.9125 40.946 37.0887 40.946C38.2649 40.946 39.3157 40.4006 40.005 39.548C40.6927 40.4006 41.745 40.946 42.9196 40.946C44.0958 40.946 45.1465 40.4006 45.8358 39.548C46.5235 40.4006 47.5759 40.946 48.7521 40.946C48.9144 40.946 49.0733 40.9343 49.2289 40.9142V50.2337H49.2256Z" fill="#F2F2F2"/>
<path d="M90 33.92V36H81.328V24.8H89.792V26.88H83.904V29.312H89.104V31.328H83.904V33.92H90ZM91.2539 30.496H95.7819V32.496H91.2539V30.496ZM102.062 36.128C101.145 36.128 100.318 35.9413 99.582 35.568C98.8567 35.184 98.286 34.656 97.87 33.984C97.4647 33.312 97.262 32.5493 97.262 31.696C97.262 30.8427 97.4647 30.08 97.87 29.408C98.286 28.736 98.8567 28.2133 99.582 27.84C100.318 27.456 101.145 27.264 102.062 27.264C102.969 27.264 103.758 27.456 104.43 27.84C105.113 28.2133 105.609 28.752 105.918 29.456L103.982 30.496C103.534 29.7067 102.889 29.312 102.046 29.312C101.395 29.312 100.857 29.5253 100.43 29.952C100.003 30.3787 99.79 30.96 99.79 31.696C99.79 32.432 100.003 33.0133 100.43 33.44C100.857 33.8667 101.395 34.08 102.046 34.08C102.899 34.08 103.545 33.6853 103.982 32.896L105.918 33.952C105.609 34.6347 105.113 35.168 104.43 35.552C103.758 35.936 102.969 36.128 102.062 36.128ZM111.342 36.128C110.435 36.128 109.619 35.9413 108.894 35.568C108.179 35.184 107.619 34.656 107.214 33.984C106.808 33.312 106.606 32.5493 106.606 31.696C106.606 30.8427 106.808 30.08 107.214 29.408C107.619 28.736 108.179 28.2133 108.894 27.84C109.619 27.456 110.435 27.264 111.342 27.264C112.248 27.264 113.059 27.456 113.774 27.84C114.488 28.2133 115.048 28.736 115.454 29.408C115.859 30.08 116.062 30.8427 116.062 31.696C116.062 32.5493 115.859 33.312 115.454 33.984C115.048 34.656 114.488 35.184 113.774 35.568C113.059 35.9413 112.248 36.128 111.342 36.128ZM111.342 34.08C111.982 34.08 112.504 33.8667 112.91 33.44C113.326 33.0027 113.534 32.4213 113.534 31.696C113.534 30.9707 113.326 30.3947 112.91 29.968C112.504 29.5307 111.982 29.312 111.342 29.312C110.702 29.312 110.174 29.5307 109.758 29.968C109.342 30.3947 109.134 30.9707 109.134 31.696C109.134 32.4213 109.342 33.0027 109.758 33.44C110.174 33.8667 110.702 34.08 111.342 34.08ZM128.754 27.264C129.831 27.264 130.685 27.584 131.314 28.224C131.954 28.8533 132.274 29.8027 132.274 31.072V36H129.778V31.456C129.778 30.7733 129.634 30.2667 129.346 29.936C129.069 29.5947 128.669 29.424 128.146 29.424C127.559 29.424 127.095 29.616 126.754 30C126.413 30.3733 126.242 30.9333 126.242 31.68V36H123.746V31.456C123.746 30.1013 123.202 29.424 122.114 29.424C121.538 29.424 121.079 29.616 120.738 30C120.397 30.3733 120.226 30.9333 120.226 31.68V36H117.73V27.392H120.114V28.384C120.434 28.0213 120.823 27.744 121.282 27.552C121.751 27.36 122.263 27.264 122.818 27.264C123.426 27.264 123.975 27.3867 124.466 27.632C124.957 27.8667 125.351 28.2133 125.65 28.672C126.002 28.224 126.445 27.8773 126.978 27.632C127.522 27.3867 128.114 27.264 128.754 27.264Z" fill="#00635D"/>
<path d="M20.032 96L25.152 84.8H26.32L31.44 96H30.192L25.488 85.488H25.968L21.264 96H20.032ZM22.048 93.008L22.4 92.048H28.912L29.264 93.008H22.048ZM37.3408 87.52C38.0234 87.52 38.6208 87.6533 39.1328 87.92C39.6554 88.176 40.0608 88.5707 40.3488 89.104C40.6474 89.6373 40.7968 90.3093 40.7968 91.12V96H39.6608V91.232C39.6608 90.3467 39.4368 89.68 38.9888 89.232C38.5514 88.7733 37.9328 88.544 37.1328 88.544C36.5354 88.544 36.0128 88.6667 35.5648 88.912C35.1274 89.1467 34.7861 89.4933 34.5408 89.952C34.3061 90.4 34.1888 90.944 34.1888 91.584V96H33.0528V87.6H34.1408V89.904L33.9648 89.472C34.2314 88.864 34.6581 88.3893 35.2448 88.048C35.8314 87.696 36.5301 87.52 37.3408 87.52ZM46.5213 96.08C45.7319 96.08 45.1239 95.8667 44.6973 95.44C44.2706 95.0133 44.0573 94.4107 44.0573 93.632V85.744H45.1933V93.568C45.1933 94.0587 45.3159 94.4373 45.5613 94.704C45.8173 94.9707 46.1799 95.104 46.6493 95.104C47.1506 95.104 47.5666 94.96 47.8973 94.672L48.2973 95.488C48.0733 95.6907 47.8013 95.84 47.4813 95.936C47.1719 96.032 46.8519 96.08 46.5213 96.08ZM42.5533 88.544V87.6H47.7533V88.544H42.5533ZM50.3653 96V87.6H51.5013V96H50.3653ZM50.9413 85.744C50.7066 85.744 50.5093 85.664 50.3493 85.504C50.1893 85.344 50.1093 85.152 50.1093 84.928C50.1093 84.704 50.1893 84.5173 50.3493 84.368C50.5093 84.208 50.7066 84.128 50.9413 84.128C51.1759 84.128 51.3733 84.2027 51.5333 84.352C51.6933 84.5013 51.7733 84.688 51.7733 84.912C51.7733 85.1467 51.6933 85.344 51.5333 85.504C51.3839 85.664 51.1866 85.744 50.9413 85.744ZM58.0061 96.08C57.2061 96.08 56.4861 95.8987 55.8461 95.536C55.2168 95.1733 54.7208 94.672 54.3581 94.032C53.9955 93.392 53.8141 92.6453 53.8141 91.792C53.8141 90.9493 53.9955 90.208 54.3581 89.568C54.7208 88.9173 55.2168 88.416 55.8461 88.064C56.4861 87.7013 57.2061 87.52 58.0061 87.52C58.7528 87.52 59.4141 87.6853 59.9901 88.016C60.5768 88.3467 61.0408 88.832 61.3821 89.472C61.7235 90.1013 61.8941 90.8747 61.8941 91.792C61.8941 92.7093 61.7181 93.488 61.3661 94.128C61.0248 94.7573 60.5608 95.2427 59.9741 95.584C59.3981 95.9147 58.7421 96.08 58.0061 96.08ZM58.0861 95.072C58.6835 95.072 59.2168 94.9387 59.6861 94.672C60.1661 94.3947 60.5395 94.0107 60.8061 93.52C61.0835 93.0187 61.2221 92.4427 61.2221 91.792C61.2221 91.1413 61.0835 90.5707 60.8061 90.08C60.5395 89.5893 60.1661 89.2053 59.6861 88.928C59.2168 88.6507 58.6835 88.512 58.0861 88.512C57.4995 88.512 56.9715 88.6507 56.5021 88.928C56.0328 89.2053 55.6595 89.5893 55.3821 90.08C55.1048 90.5707 54.9661 91.1413 54.9661 91.792C54.9661 92.4427 55.1048 93.0187 55.3821 93.52C55.6595 94.0107 56.0328 94.3947 56.5021 94.672C56.9715 94.9387 57.4995 95.072 58.0861 95.072ZM61.2061 99.104V93.504L61.3661 91.808L61.2541 90.128V87.6H62.3421V99.104H61.2061ZM68.9779 96.08C68.2632 96.08 67.6392 95.9467 67.1059 95.68C66.5725 95.4133 66.1565 95.0133 65.8579 94.48C65.5699 93.9467 65.4259 93.28 65.4259 92.48V87.6H66.5619V92.352C66.5619 93.248 66.7805 93.9253 67.2179 94.384C67.6659 94.832 68.2899 95.056 69.0899 95.056C69.6765 95.056 70.1832 94.9387 70.6099 94.704C71.0472 94.4587 71.3779 94.1067 71.6019 93.648C71.8365 93.1893 71.9539 92.64 71.9539 92V87.6H73.0899V96H72.0019V93.696L72.1779 94.112C71.9112 94.7307 71.4952 95.216 70.9299 95.568C70.3752 95.9093 69.7245 96.08 68.9779 96.08ZM76.2559 96V87.6H77.3919V96H76.2559ZM76.8319 85.744C76.5972 85.744 76.3999 85.664 76.2399 85.504C76.0799 85.344 75.9999 85.152 75.9999 84.928C75.9999 84.704 76.0799 84.5173 76.2399 84.368C76.3999 84.208 76.5972 84.128 76.8319 84.128C77.0665 84.128 77.2639 84.2027 77.4239 84.352C77.5839 84.5013 77.6639 84.688 77.6639 84.912C77.6639 85.1467 77.5839 85.344 77.4239 85.504C77.2745 85.664 77.0772 85.744 76.8319 85.744ZM83.2088 96.08C82.4194 96.08 81.8114 95.8667 81.3848 95.44C80.9581 95.0133 80.7448 94.4107 80.7448 93.632V85.744H81.8808V93.568C81.8808 94.0587 82.0034 94.4373 82.2488 94.704C82.5048 94.9707 82.8674 95.104 83.3368 95.104C83.8381 95.104 84.2541 94.96 84.5848 94.672L84.9848 95.488C84.7608 95.6907 84.4888 95.84 84.1688 95.936C83.8594 96.032 83.5394 96.08 83.2088 96.08ZM79.2408 88.544V87.6H84.4408V88.544H79.2408ZM86.9605 99.184C86.5658 99.184 86.1872 99.12 85.8245 98.992C85.4725 98.864 85.1685 98.672 84.9125 98.416L85.4405 97.568C85.6538 97.7707 85.8832 97.9253 86.1285 98.032C86.3845 98.1493 86.6672 98.208 86.9765 98.208C87.3498 98.208 87.6698 98.1013 87.9365 97.888C88.2138 97.6853 88.4752 97.3227 88.7205 96.8L89.2645 95.568L89.3925 95.392L92.8485 87.6H93.9685L89.7605 97.008C89.5258 97.552 89.2645 97.984 88.9765 98.304C88.6992 98.624 88.3952 98.848 88.0645 98.976C87.7338 99.1147 87.3658 99.184 86.9605 99.184ZM89.2005 96.24L85.3285 87.6H86.5125L89.9365 95.312L89.2005 96.24Z" fill="#828282"/>
<path d="M167.79 52.58V60H167.11V58.96C166.897 59.3133 166.613 59.5833 166.26 59.77C165.913 59.9567 165.52 60.05 165.08 60.05C164.587 60.05 164.14 59.9367 163.74 59.71C163.34 59.4833 163.027 59.1667 162.8 58.76C162.573 58.3533 162.46 57.89 162.46 57.37C162.46 56.85 162.573 56.3867 162.8 55.98C163.027 55.5733 163.34 55.26 163.74 55.04C164.14 54.8133 164.587 54.7 165.08 54.7C165.507 54.7 165.89 54.79 166.23 54.97C166.577 55.1433 166.86 55.4 167.08 55.74V52.58H167.79ZM165.14 59.42C165.507 59.42 165.837 59.3367 166.13 59.17C166.43 58.9967 166.663 58.7533 166.83 58.44C167.003 58.1267 167.09 57.77 167.09 57.37C167.09 56.97 167.003 56.6133 166.83 56.3C166.663 55.9867 166.43 55.7467 166.13 55.58C165.837 55.4067 165.507 55.32 165.14 55.32C164.767 55.32 164.43 55.4067 164.13 55.58C163.837 55.7467 163.603 55.9867 163.43 56.3C163.263 56.6133 163.18 56.97 163.18 57.37C163.18 57.77 163.263 58.1267 163.43 58.44C163.603 58.7533 163.837 58.9967 164.13 59.17C164.43 59.3367 164.767 59.42 165.14 59.42ZM174.347 57.59H169.947C169.987 58.1367 170.197 58.58 170.577 58.92C170.957 59.2533 171.437 59.42 172.017 59.42C172.344 59.42 172.644 59.3633 172.917 59.25C173.191 59.13 173.427 58.9567 173.627 58.73L174.027 59.19C173.794 59.47 173.501 59.6833 173.147 59.83C172.801 59.9767 172.417 60.05 171.997 60.05C171.457 60.05 170.977 59.9367 170.557 59.71C170.144 59.4767 169.821 59.1567 169.587 58.75C169.354 58.3433 169.237 57.8833 169.237 57.37C169.237 56.8567 169.347 56.3967 169.567 55.99C169.794 55.5833 170.101 55.2667 170.487 55.04C170.881 54.8133 171.321 54.7 171.807 54.7C172.294 54.7 172.731 54.8133 173.117 55.04C173.504 55.2667 173.807 55.5833 174.027 55.99C174.247 56.39 174.357 56.85 174.357 57.37L174.347 57.59ZM171.807 55.31C171.301 55.31 170.874 55.4733 170.527 55.8C170.187 56.12 169.994 56.54 169.947 57.06H173.677C173.631 56.54 173.434 56.12 173.087 55.8C172.747 55.4733 172.321 55.31 171.807 55.31ZM179.89 53V60H179.17V53.64H177.52V53H179.89ZM184.353 60.06C183.813 60.06 183.33 59.9167 182.903 59.63C182.483 59.3433 182.153 58.9333 181.913 58.4C181.68 57.86 181.563 57.2267 181.563 56.5C181.563 55.7733 181.68 55.1433 181.913 54.61C182.153 54.07 182.483 53.6567 182.903 53.37C183.33 53.0833 183.813 52.94 184.353 52.94C184.893 52.94 185.373 53.0833 185.793 53.37C186.22 53.6567 186.553 54.07 186.793 54.61C187.033 55.1433 187.153 55.7733 187.153 56.5C187.153 57.2267 187.033 57.86 186.793 58.4C186.553 58.9333 186.22 59.3433 185.793 59.63C185.373 59.9167 184.893 60.06 184.353 60.06ZM184.353 59.4C184.76 59.4 185.116 59.2867 185.423 59.06C185.736 58.8333 185.98 58.5033 186.153 58.07C186.326 57.6367 186.413 57.1133 186.413 56.5C186.413 55.8867 186.326 55.3633 186.153 54.93C185.98 54.4967 185.736 54.1667 185.423 53.94C185.116 53.7133 184.76 53.6 184.353 53.6C183.946 53.6 183.586 53.7133 183.273 53.94C182.966 54.1667 182.726 54.4967 182.553 54.93C182.38 55.3633 182.293 55.8867 182.293 56.5C182.293 57.1133 182.38 57.6367 182.553 58.07C182.726 58.5033 182.966 58.8333 183.273 59.06C183.586 59.2867 183.946 59.4 184.353 59.4ZM193.421 60.05C192.915 60.05 192.458 59.9367 192.051 59.71C191.645 59.4767 191.325 59.1567 191.091 58.75C190.858 58.3433 190.741 57.8833 190.741 57.37C190.741 56.8567 190.858 56.3967 191.091 55.99C191.325 55.5833 191.645 55.2667 192.051 55.04C192.458 54.8133 192.915 54.7 193.421 54.7C193.928 54.7 194.385 54.8133 194.791 55.04C195.198 55.2667 195.515 55.5833 195.741 55.99C195.975 56.3967 196.091 56.8567 196.091 57.37C196.091 57.8833 195.975 58.3433 195.741 58.75C195.515 59.1567 195.198 59.4767 194.791 59.71C194.385 59.9367 193.928 60.05 193.421 60.05ZM193.421 59.42C193.795 59.42 194.128 59.3367 194.421 59.17C194.721 58.9967 194.955 58.7533 195.121 58.44C195.288 58.1267 195.371 57.77 195.371 57.37C195.371 56.97 195.288 56.6133 195.121 56.3C194.955 55.9867 194.721 55.7467 194.421 55.58C194.128 55.4067 193.795 55.32 193.421 55.32C193.048 55.32 192.711 55.4067 192.411 55.58C192.118 55.7467 191.885 55.9867 191.711 56.3C191.545 56.6133 191.461 56.97 191.461 57.37C191.461 57.77 191.545 58.1267 191.711 58.44C191.885 58.7533 192.118 58.9967 192.411 59.17C192.711 59.3367 193.048 59.42 193.421 59.42ZM200.251 54.7C200.744 54.7 201.191 54.8133 201.591 55.04C201.991 55.26 202.304 55.5733 202.531 55.98C202.757 56.3867 202.871 56.85 202.871 57.37C202.871 57.8967 202.757 58.3633 202.531 58.77C202.304 59.1767 201.991 59.4933 201.591 59.72C201.197 59.94 200.751 60.05 200.251 60.05C199.824 60.05 199.437 59.9633 199.091 59.79C198.751 59.61 198.471 59.35 198.251 59.01V61.94H197.541V54.74H198.221V55.78C198.434 55.4333 198.714 55.1667 199.061 54.98C199.414 54.7933 199.811 54.7 200.251 54.7ZM200.201 59.42C200.567 59.42 200.901 59.3367 201.201 59.17C201.501 58.9967 201.734 58.7533 201.901 58.44C202.074 58.1267 202.161 57.77 202.161 57.37C202.161 56.97 202.074 56.6167 201.901 56.31C201.734 55.9967 201.501 55.7533 201.201 55.58C200.901 55.4067 200.567 55.32 200.201 55.32C199.827 55.32 199.491 55.4067 199.191 55.58C198.897 55.7533 198.664 55.9967 198.491 56.31C198.324 56.6167 198.241 56.97 198.241 57.37C198.241 57.77 198.324 58.1267 198.491 58.44C198.664 58.7533 198.897 58.9967 199.191 59.17C199.491 59.3367 199.827 59.42 200.201 59.42ZM204.318 54.74H205.028V60H204.318V54.74ZM204.678 53.59C204.531 53.59 204.408 53.54 204.308 53.44C204.208 53.34 204.158 53.22 204.158 53.08C204.158 52.9467 204.208 52.83 204.308 52.73C204.408 52.63 204.531 52.58 204.678 52.58C204.825 52.58 204.948 52.63 205.048 52.73C205.148 52.8233 205.198 52.9367 205.198 53.07C205.198 53.2167 205.148 53.34 205.048 53.44C204.948 53.54 204.825 53.59 204.678 53.59ZM209.684 54.7C210.344 54.7 210.867 54.8933 211.254 55.28C211.647 55.66 211.844 56.2167 211.844 56.95V60H211.134V57.02C211.134 56.4733 210.997 56.0567 210.724 55.77C210.45 55.4833 210.06 55.34 209.554 55.34C208.987 55.34 208.537 55.51 208.204 55.85C207.877 56.1833 207.714 56.6467 207.714 57.24V60H207.004V54.74H207.684V55.71C207.877 55.39 208.144 55.1433 208.484 54.97C208.83 54.79 209.23 54.7 209.684 54.7ZM213.771 54.74H214.481V60H213.771V54.74ZM214.131 53.59C213.985 53.59 213.861 53.54 213.761 53.44C213.661 53.34 213.611 53.22 213.611 53.08C213.611 52.9467 213.661 52.83 213.761 52.73C213.861 52.63 213.985 52.58 214.131 52.58C214.278 52.58 214.401 52.63 214.501 52.73C214.601 52.8233 214.651 52.9367 214.651 53.07C214.651 53.2167 214.601 53.34 214.501 53.44C214.401 53.54 214.278 53.59 214.131 53.59ZM218.607 60.05C218.1 60.05 217.643 59.9367 217.237 59.71C216.83 59.4767 216.51 59.1567 216.277 58.75C216.043 58.3433 215.927 57.8833 215.927 57.37C215.927 56.8567 216.043 56.3967 216.277 55.99C216.51 55.5833 216.83 55.2667 217.237 55.04C217.643 54.8133 218.1 54.7 218.607 54.7C219.113 54.7 219.57 54.8133 219.977 55.04C220.383 55.2667 220.7 55.5833 220.927 55.99C221.16 56.3967 221.277 56.8567 221.277 57.37C221.277 57.8833 221.16 58.3433 220.927 58.75C220.7 59.1567 220.383 59.4767 219.977 59.71C219.57 59.9367 219.113 60.05 218.607 60.05ZM218.607 59.42C218.98 59.42 219.313 59.3367 219.607 59.17C219.907 58.9967 220.14 58.7533 220.307 58.44C220.473 58.1267 220.557 57.77 220.557 57.37C220.557 56.97 220.473 56.6133 220.307 56.3C220.14 55.9867 219.907 55.7467 219.607 55.58C219.313 55.4067 218.98 55.32 218.607 55.32C218.233 55.32 217.897 55.4067 217.597 55.58C217.303 55.7467 217.07 55.9867 216.897 56.3C216.73 56.6133 216.647 56.97 216.647 57.37C216.647 57.77 216.73 58.1267 216.897 58.44C217.07 58.7533 217.303 58.9967 217.597 59.17C217.897 59.3367 218.233 59.42 218.607 59.42ZM225.406 54.7C226.066 54.7 226.59 54.8933 226.976 55.28C227.37 55.66 227.566 56.2167 227.566 56.95V60H226.856V57.02C226.856 56.4733 226.72 56.0567 226.446 55.77C226.173 55.4833 225.783 55.34 225.276 55.34C224.71 55.34 224.26 55.51 223.926 55.85C223.6 56.1833 223.436 56.6467 223.436 57.24V60H222.726V54.74H223.406V55.71C223.6 55.39 223.866 55.1433 224.206 54.97C224.553 54.79 224.953 54.7 225.406 54.7ZM234.093 57.59H229.693C229.733 58.1367 229.943 58.58 230.323 58.92C230.703 59.2533 231.183 59.42 231.763 59.42C232.09 59.42 232.39 59.3633 232.663 59.25C232.937 59.13 233.173 58.9567 233.373 58.73L233.773 59.19C233.54 59.47 233.247 59.6833 232.893 59.83C232.547 59.9767 232.163 60.05 231.743 60.05C231.203 60.05 230.723 59.9367 230.303 59.71C229.89 59.4767 229.567 59.1567 229.333 58.75C229.1 58.3433 228.983 57.8833 228.983 57.37C228.983 56.8567 229.093 56.3967 229.313 55.99C229.54 55.5833 229.847 55.2667 230.233 55.04C230.627 54.8133 231.067 54.7 231.553 54.7C232.04 54.7 232.477 54.8133 232.863 55.04C233.25 55.2667 233.553 55.5833 233.773 55.99C233.993 56.39 234.103 56.85 234.103 57.37L234.093 57.59ZM231.553 55.31C231.047 55.31 230.62 55.4733 230.273 55.8C229.933 56.12 229.74 56.54 229.693 57.06H233.423C233.377 56.54 233.18 56.12 232.833 55.8C232.493 55.4733 232.067 55.31 231.553 55.31ZM236.959 60.05C236.532 60.05 236.122 59.99 235.729 59.87C235.342 59.7433 235.039 59.5867 234.819 59.4L235.139 58.84C235.359 59.0133 235.635 59.1567 235.969 59.27C236.302 59.3767 236.649 59.43 237.009 59.43C237.489 59.43 237.842 59.3567 238.069 59.21C238.302 59.0567 238.419 58.8433 238.419 58.57C238.419 58.3767 238.355 58.2267 238.229 58.12C238.102 58.0067 237.942 57.9233 237.749 57.87C237.555 57.81 237.299 57.7533 236.979 57.7C236.552 57.62 236.209 57.54 235.949 57.46C235.689 57.3733 235.465 57.23 235.279 57.03C235.099 56.83 235.009 56.5533 235.009 56.2C235.009 55.76 235.192 55.4 235.559 55.12C235.925 54.84 236.435 54.7 237.089 54.7C237.429 54.7 237.769 54.7467 238.109 54.84C238.449 54.9267 238.729 55.0433 238.949 55.19L238.639 55.76C238.205 55.46 237.689 55.31 237.089 55.31C236.635 55.31 236.292 55.39 236.059 55.55C235.832 55.71 235.719 55.92 235.719 56.18C235.719 56.38 235.782 56.54 235.909 56.66C236.042 56.78 236.205 56.87 236.399 56.93C236.592 56.9833 236.859 57.04 237.199 57.1C237.619 57.18 237.955 57.26 238.209 57.34C238.462 57.42 238.679 57.5567 238.859 57.75C239.039 57.9433 239.129 58.21 239.129 58.55C239.129 59.01 238.935 59.3767 238.549 59.65C238.169 59.9167 237.639 60.05 236.959 60.05Z" fill="#828282"/>
<path d="M200.032 96L205.152 84.8H206.32L211.44 96H210.192L205.488 85.488H205.968L201.264 96H200.032ZM202.048 93.008L202.4 92.048H208.912L209.264 93.008H202.048ZM215.231 96.08C214.537 96.08 213.881 95.984 213.263 95.792C212.644 95.5893 212.159 95.3387 211.807 95.04L212.319 94.144C212.66 94.4 213.097 94.624 213.631 94.816C214.164 94.9973 214.724 95.088 215.311 95.088C216.111 95.088 216.687 94.9653 217.039 94.72C217.391 94.464 217.567 94.128 217.567 93.712C217.567 93.4027 217.465 93.1627 217.263 92.992C217.071 92.8107 216.815 92.6773 216.495 92.592C216.175 92.496 215.817 92.416 215.423 92.352C215.028 92.288 214.633 92.2133 214.239 92.128C213.855 92.0427 213.503 91.92 213.183 91.76C212.863 91.5893 212.601 91.36 212.399 91.072C212.207 90.784 212.111 90.4 212.111 89.92C212.111 89.4613 212.239 89.0507 212.495 88.688C212.751 88.3253 213.124 88.0427 213.615 87.84C214.116 87.6267 214.724 87.52 215.439 87.52C215.983 87.52 216.527 87.5947 217.071 87.744C217.615 87.8827 218.063 88.0693 218.415 88.304L217.919 89.216C217.545 88.96 217.145 88.7787 216.719 88.672C216.292 88.5547 215.865 88.496 215.439 88.496C214.681 88.496 214.121 88.6293 213.759 88.896C213.407 89.152 213.231 89.4827 213.231 89.888C213.231 90.208 213.327 90.4587 213.519 90.64C213.721 90.8213 213.983 90.9653 214.303 91.072C214.633 91.168 214.991 91.248 215.375 91.312C215.769 91.376 216.159 91.456 216.543 91.552C216.937 91.6373 217.295 91.76 217.615 91.92C217.945 92.0693 218.207 92.288 218.399 92.576C218.601 92.8533 218.703 93.2213 218.703 93.68C218.703 94.1707 218.564 94.5973 218.287 94.96C218.02 95.312 217.625 95.5893 217.103 95.792C216.591 95.984 215.967 96.08 215.231 96.08ZM223.043 96.08C222.35 96.08 221.694 95.984 221.075 95.792C220.456 95.5893 219.971 95.3387 219.619 95.04L220.131 94.144C220.472 94.4 220.91 94.624 221.443 94.816C221.976 94.9973 222.536 95.088 223.123 95.088C223.923 95.088 224.499 94.9653 224.851 94.72C225.203 94.464 225.379 94.128 225.379 93.712C225.379 93.4027 225.278 93.1627 225.075 92.992C224.883 92.8107 224.627 92.6773 224.307 92.592C223.987 92.496 223.63 92.416 223.235 92.352C222.84 92.288 222.446 92.2133 222.051 92.128C221.667 92.0427 221.315 91.92 220.995 91.76C220.675 91.5893 220.414 91.36 220.211 91.072C220.019 90.784 219.923 90.4 219.923 89.92C219.923 89.4613 220.051 89.0507 220.307 88.688C220.563 88.3253 220.936 88.0427 221.427 87.84C221.928 87.6267 222.536 87.52 223.251 87.52C223.795 87.52 224.339 87.5947 224.883 87.744C225.427 87.8827 225.875 88.0693 226.227 88.304L225.731 89.216C225.358 88.96 224.958 88.7787 224.531 88.672C224.104 88.5547 223.678 88.496 223.251 88.496C222.494 88.496 221.934 88.6293 221.571 88.896C221.219 89.152 221.043 89.4827 221.043 89.888C221.043 90.208 221.139 90.4587 221.331 90.64C221.534 90.8213 221.795 90.9653 222.115 91.072C222.446 91.168 222.803 91.248 223.187 91.312C223.582 91.376 223.971 91.456 224.355 91.552C224.75 91.6373 225.107 91.76 225.427 91.92C225.758 92.0693 226.019 92.288 226.211 92.576C226.414 92.8533 226.515 93.2213 226.515 93.68C226.515 94.1707 226.376 94.5973 226.099 94.96C225.832 95.312 225.438 95.5893 224.915 95.792C224.403 95.984 223.779 96.08 223.043 96.08ZM232.072 96.08C231.357 96.08 230.733 95.9467 230.2 95.68C229.666 95.4133 229.25 95.0133 228.952 94.48C228.664 93.9467 228.52 93.28 228.52 92.48V87.6H229.656V92.352C229.656 93.248 229.874 93.9253 230.312 94.384C230.76 94.832 231.384 95.056 232.184 95.056C232.77 95.056 233.277 94.9387 233.704 94.704C234.141 94.4587 234.472 94.1067 234.696 93.648C234.93 93.1893 235.048 92.64 235.048 92V87.6H236.184V96H235.096V93.696L235.272 94.112C235.005 94.7307 234.589 95.216 234.024 95.568C233.469 95.9093 232.818 96.08 232.072 96.08ZM239.35 96V87.6H240.438V89.888L240.326 89.488C240.56 88.848 240.955 88.3627 241.51 88.032C242.064 87.6907 242.752 87.52 243.574 87.52V88.624C243.531 88.624 243.488 88.624 243.446 88.624C243.403 88.6133 243.36 88.608 243.318 88.608C242.432 88.608 241.739 88.88 241.238 89.424C240.736 89.9573 240.486 90.72 240.486 91.712V96H239.35ZM249.136 96.08C248.262 96.08 247.494 95.8987 246.832 95.536C246.171 95.1627 245.654 94.656 245.28 94.016C244.907 93.3653 244.72 92.624 244.72 91.792C244.72 90.96 244.896 90.224 245.248 89.584C245.611 88.944 246.102 88.4427 246.72 88.08C247.35 87.7067 248.054 87.52 248.832 87.52C249.622 87.52 250.32 87.7013 250.928 88.064C251.547 88.416 252.032 88.9173 252.384 89.568C252.736 90.208 252.912 90.9493 252.912 91.792C252.912 91.8453 252.907 91.904 252.896 91.968C252.896 92.0213 252.896 92.08 252.896 92.144H245.584V91.296H252.288L251.84 91.632C251.84 91.024 251.707 90.4853 251.44 90.016C251.184 89.536 250.832 89.1627 250.384 88.896C249.936 88.6293 249.419 88.496 248.832 88.496C248.256 88.496 247.739 88.6293 247.28 88.896C246.822 89.1627 246.464 89.536 246.208 90.016C245.952 90.496 245.824 91.0453 245.824 91.664V91.84C245.824 92.48 245.963 93.0453 246.24 93.536C246.528 94.016 246.923 94.3947 247.424 94.672C247.936 94.9387 248.518 95.072 249.168 95.072C249.68 95.072 250.155 94.9813 250.592 94.8C251.04 94.6187 251.424 94.3413 251.744 93.968L252.384 94.704C252.011 95.152 251.542 95.4933 250.976 95.728C250.422 95.9627 249.808 96.08 249.136 96.08ZM258.569 96.08C257.769 96.08 257.049 95.8987 256.409 95.536C255.779 95.1733 255.283 94.672 254.921 94.032C254.558 93.3813 254.377 92.6347 254.377 91.792C254.377 90.9387 254.558 90.192 254.921 89.552C255.283 88.912 255.779 88.416 256.409 88.064C257.049 87.7013 257.769 87.52 258.569 87.52C259.305 87.52 259.961 87.6853 260.537 88.016C261.123 88.3467 261.587 88.832 261.929 89.472C262.281 90.1013 262.457 90.8747 262.457 91.792C262.457 92.6987 262.286 93.472 261.945 94.112C261.603 94.752 261.139 95.2427 260.553 95.584C259.977 95.9147 259.315 96.08 258.569 96.08ZM258.649 95.072C259.246 95.072 259.779 94.9387 260.249 94.672C260.729 94.3947 261.102 94.0107 261.369 93.52C261.646 93.0187 261.785 92.4427 261.785 91.792C261.785 91.1307 261.646 90.5547 261.369 90.064C261.102 89.5733 260.729 89.1947 260.249 88.928C259.779 88.6507 259.246 88.512 258.649 88.512C258.062 88.512 257.534 88.6507 257.065 88.928C256.595 89.1947 256.222 89.5733 255.945 90.064C255.667 90.5547 255.529 91.1307 255.529 91.792C255.529 92.4427 255.667 93.0187 255.945 93.52C256.222 94.0107 256.595 94.3947 257.065 94.672C257.534 94.9387 258.062 95.072 258.649 95.072ZM261.817 96V93.472L261.929 91.776L261.769 90.08V84.128H262.905V96H261.817ZM274.592 96.08C273.867 96.08 273.211 95.9147 272.624 95.584C272.037 95.2427 271.568 94.7573 271.216 94.128C270.875 93.488 270.704 92.7093 270.704 91.792C270.704 90.8747 270.875 90.1013 271.216 89.472C271.557 88.832 272.021 88.3467 272.608 88.016C273.195 87.6853 273.856 87.52 274.592 87.52C275.392 87.52 276.107 87.7013 276.736 88.064C277.376 88.416 277.877 88.9173 278.24 89.568C278.603 90.208 278.784 90.9493 278.784 91.792C278.784 92.6453 278.603 93.392 278.24 94.032C277.877 94.672 277.376 95.1733 276.736 95.536C276.107 95.8987 275.392 96.08 274.592 96.08ZM270.256 99.104V87.6H271.344V90.128L271.232 91.808L271.392 93.504V99.104H270.256ZM274.512 95.072C275.109 95.072 275.643 94.9387 276.112 94.672C276.581 94.3947 276.955 94.0107 277.232 93.52C277.509 93.0187 277.648 92.4427 277.648 91.792C277.648 91.1413 277.509 90.5707 277.232 90.08C276.955 89.5893 276.581 89.2053 276.112 88.928C275.643 88.6507 275.109 88.512 274.512 88.512C273.915 88.512 273.376 88.6507 272.896 88.928C272.427 89.2053 272.053 89.5893 271.776 90.08C271.509 90.5707 271.376 91.1413 271.376 91.792C271.376 92.4427 271.509 93.0187 271.776 93.52C272.053 94.0107 272.427 94.3947 272.896 94.672C273.376 94.9387 273.915 95.072 274.512 95.072ZM284.572 96.08C283.857 96.08 283.233 95.9467 282.7 95.68C282.166 95.4133 281.75 95.0133 281.452 94.48C281.164 93.9467 281.02 93.28 281.02 92.48V87.6H282.156V92.352C282.156 93.248 282.374 93.9253 282.812 94.384C283.26 94.832 283.884 95.056 284.684 95.056C285.27 95.056 285.777 94.9387 286.204 94.704C286.641 94.4587 286.972 94.1067 287.196 93.648C287.43 93.1893 287.548 92.64 287.548 92V87.6H288.684V96H287.596V93.696L287.772 94.112C287.505 94.7307 287.089 95.216 286.524 95.568C285.969 95.9093 285.318 96.08 284.572 96.08ZM291.85 96V87.6H292.938V89.888L292.826 89.488C293.06 88.848 293.455 88.3627 294.01 88.032C294.564 87.6907 295.252 87.52 296.074 87.52V88.624C296.031 88.624 295.988 88.624 295.946 88.624C295.903 88.6133 295.86 88.608 295.818 88.608C294.932 88.608 294.239 88.88 293.738 89.424C293.236 89.9573 292.986 90.72 292.986 91.712V96H291.85ZM301.556 96.08C300.724 96.08 299.978 95.8987 299.316 95.536C298.666 95.1627 298.154 94.656 297.78 94.016C297.407 93.3653 297.22 92.624 297.22 91.792C297.22 90.9493 297.407 90.208 297.78 89.568C298.154 88.928 298.666 88.4267 299.316 88.064C299.978 87.7013 300.724 87.52 301.556 87.52C302.271 87.52 302.916 87.6587 303.492 87.936C304.068 88.2133 304.522 88.6293 304.852 89.184L304.004 89.76C303.716 89.3333 303.359 89.0187 302.932 88.816C302.506 88.6133 302.042 88.512 301.54 88.512C300.943 88.512 300.404 88.6507 299.924 88.928C299.444 89.1947 299.066 89.5733 298.788 90.064C298.511 90.5547 298.372 91.1307 298.372 91.792C298.372 92.4533 298.511 93.0293 298.788 93.52C299.066 94.0107 299.444 94.3947 299.924 94.672C300.404 94.9387 300.943 95.072 301.54 95.072C302.042 95.072 302.506 94.9707 302.932 94.768C303.359 94.5653 303.716 94.256 304.004 93.84L304.852 94.416C304.522 94.96 304.068 95.376 303.492 95.664C302.916 95.9413 302.271 96.08 301.556 96.08ZM311.247 87.52C311.93 87.52 312.527 87.6533 313.039 87.92C313.562 88.176 313.967 88.5707 314.255 89.104C314.554 89.6373 314.703 90.3093 314.703 91.12V96H313.567V91.232C313.567 90.3467 313.343 89.68 312.895 89.232C312.458 88.7733 311.839 88.544 311.039 88.544C310.442 88.544 309.919 88.6667 309.471 88.912C309.034 89.1467 308.692 89.4933 308.447 89.952C308.212 90.4 308.095 90.944 308.095 91.584V96H306.959V84.128H308.095V89.904L307.871 89.472C308.138 88.864 308.564 88.3893 309.151 88.048C309.738 87.696 310.436 87.52 311.247 87.52ZM323.036 96V94.144L322.988 93.84V90.736C322.988 90.0213 322.785 89.472 322.38 89.088C321.985 88.704 321.393 88.512 320.604 88.512C320.06 88.512 319.542 88.6027 319.052 88.784C318.561 88.9653 318.145 89.2053 317.804 89.504L317.292 88.656C317.718 88.2933 318.23 88.016 318.828 87.824C319.425 87.6213 320.054 87.52 320.716 87.52C321.804 87.52 322.641 87.792 323.228 88.336C323.825 88.8693 324.124 89.6853 324.124 90.784V96H323.036ZM320.14 96.08C319.51 96.08 318.961 95.9787 318.492 95.776C318.033 95.5627 317.681 95.2747 317.436 94.912C317.19 94.5387 317.068 94.112 317.068 93.632C317.068 93.1947 317.169 92.8 317.372 92.448C317.585 92.0853 317.926 91.7973 318.396 91.584C318.876 91.36 319.516 91.248 320.316 91.248H323.212V92.096H320.348C319.537 92.096 318.972 92.24 318.652 92.528C318.342 92.816 318.188 93.1733 318.188 93.6C318.188 94.08 318.374 94.464 318.748 94.752C319.121 95.04 319.644 95.184 320.316 95.184C320.956 95.184 321.505 95.04 321.964 94.752C322.433 94.4533 322.774 94.0267 322.988 93.472L323.244 94.256C323.03 94.8107 322.657 95.2533 322.124 95.584C321.601 95.9147 320.94 96.08 320.14 96.08ZM329.465 96.08C328.772 96.08 328.116 95.984 327.497 95.792C326.878 95.5893 326.393 95.3387 326.041 95.04L326.553 94.144C326.894 94.4 327.332 94.624 327.865 94.816C328.398 94.9973 328.958 95.088 329.545 95.088C330.345 95.088 330.921 94.9653 331.273 94.72C331.625 94.464 331.801 94.128 331.801 93.712C331.801 93.4027 331.7 93.1627 331.497 92.992C331.305 92.8107 331.049 92.6773 330.729 92.592C330.409 92.496 330.052 92.416 329.657 92.352C329.262 92.288 328.868 92.2133 328.473 92.128C328.089 92.0427 327.737 91.92 327.417 91.76C327.097 91.5893 326.836 91.36 326.633 91.072C326.441 90.784 326.345 90.4 326.345 89.92C326.345 89.4613 326.473 89.0507 326.729 88.688C326.985 88.3253 327.358 88.0427 327.849 87.84C328.35 87.6267 328.958 87.52 329.673 87.52C330.217 87.52 330.761 87.5947 331.305 87.744C331.849 87.8827 332.297 88.0693 332.649 88.304L332.153 89.216C331.78 88.96 331.38 88.7787 330.953 88.672C330.526 88.5547 330.1 88.496 329.673 88.496C328.916 88.496 328.356 88.6293 327.993 88.896C327.641 89.152 327.465 89.4827 327.465 89.888C327.465 90.208 327.561 90.4587 327.753 90.64C327.956 90.8213 328.217 90.9653 328.537 91.072C328.868 91.168 329.225 91.248 329.609 91.312C330.004 91.376 330.393 91.456 330.777 91.552C331.172 91.6373 331.529 91.76 331.849 91.92C332.18 92.0693 332.441 92.288 332.633 92.576C332.836 92.8533 332.937 93.2213 332.937 93.68C332.937 94.1707 332.798 94.5973 332.521 94.96C332.254 95.312 331.86 95.5893 331.337 95.792C330.825 95.984 330.201 96.08 329.465 96.08ZM338.59 96.08C337.715 96.08 336.947 95.8987 336.286 95.536C335.624 95.1627 335.107 94.656 334.734 94.016C334.36 93.3653 334.174 92.624 334.174 91.792C334.174 90.96 334.35 90.224 334.702 89.584C335.064 88.944 335.555 88.4427 336.174 88.08C336.803 87.7067 337.507 87.52 338.286 87.52C339.075 87.52 339.774 87.7013 340.382 88.064C341 88.416 341.486 88.9173 341.838 89.568C342.19 90.208 342.366 90.9493 342.366 91.792C342.366 91.8453 342.36 91.904 342.35 91.968C342.35 92.0213 342.35 92.08 342.35 92.144H335.038V91.296H341.742L341.294 91.632C341.294 91.024 341.16 90.4853 340.894 90.016C340.638 89.536 340.286 89.1627 339.838 88.896C339.39 88.6293 338.872 88.496 338.286 88.496C337.71 88.496 337.192 88.6293 336.734 88.896C336.275 89.1627 335.918 89.536 335.662 90.016C335.406 90.496 335.278 91.0453 335.278 91.664V91.84C335.278 92.48 335.416 93.0453 335.694 93.536C335.982 94.016 336.376 94.3947 336.878 94.672C337.39 94.9387 337.971 95.072 338.622 95.072C339.134 95.072 339.608 94.9813 340.046 94.8C340.494 94.6187 340.878 94.3413 341.198 93.968L341.838 94.704C341.464 95.152 340.995 95.4933 340.43 95.728C339.875 95.9627 339.262 96.08 338.59 96.08Z" fill="#828282"/>
<path d="M24.256 116.192C23.4773 116.192 22.704 116.091 21.936 115.888C21.168 115.675 20.5173 115.376 19.984 114.992L20.992 113.008C21.4187 113.317 21.9147 113.563 22.48 113.744C23.0453 113.925 23.616 114.016 24.192 114.016C24.8427 114.016 25.3547 113.888 25.728 113.632C26.1013 113.376 26.288 113.024 26.288 112.576C26.288 112.149 26.1227 111.813 25.792 111.568C25.4613 111.323 24.928 111.2 24.192 111.2H23.008V109.488L26.128 105.952L26.416 106.88H20.544V104.8H28.384V106.48L25.28 110.016L23.968 109.264H24.72C26.096 109.264 27.136 109.573 27.84 110.192C28.544 110.811 28.896 111.605 28.896 112.576C28.896 113.205 28.7307 113.797 28.4 114.352C28.0693 114.896 27.5627 115.339 26.88 115.68C26.1973 116.021 25.3227 116.192 24.256 116.192ZM35.328 116V104.8H37.472L42.24 112.704H41.104L45.792 104.8H47.92L47.952 116H45.52L45.504 108.528H45.952L42.208 114.816H41.04L37.216 108.528H37.76V116H35.328ZM54.5293 116.128C53.6119 116.128 52.7959 115.936 52.0813 115.552C51.3773 115.168 50.8173 114.645 50.4013 113.984C49.9959 113.312 49.7933 112.549 49.7933 111.696C49.7933 110.832 49.9959 110.069 50.4013 109.408C50.8173 108.736 51.3773 108.213 52.0813 107.84C52.7959 107.456 53.6119 107.264 54.5293 107.264C55.4359 107.264 56.2466 107.456 56.9613 107.84C57.6759 108.213 58.2359 108.731 58.6413 109.392C59.0466 110.053 59.2493 110.821 59.2493 111.696C59.2493 112.549 59.0466 113.312 58.6413 113.984C58.2359 114.645 57.6759 115.168 56.9613 115.552C56.2466 115.936 55.4359 116.128 54.5293 116.128ZM54.5293 114.08C54.9453 114.08 55.3186 113.984 55.6493 113.792C55.9799 113.6 56.2413 113.328 56.4333 112.976C56.6253 112.613 56.7213 112.187 56.7213 111.696C56.7213 111.195 56.6253 110.768 56.4333 110.416C56.2413 110.064 55.9799 109.792 55.6493 109.6C55.3186 109.408 54.9453 109.312 54.5293 109.312C54.1133 109.312 53.7399 109.408 53.4093 109.6C53.0786 109.792 52.8119 110.064 52.6093 110.416C52.4173 110.768 52.3213 111.195 52.3213 111.696C52.3213 112.187 52.4173 112.613 52.6093 112.976C52.8119 113.328 53.0786 113.6 53.4093 113.792C53.7399 113.984 54.1133 114.08 54.5293 114.08ZM66.1496 107.264C66.8323 107.264 67.4403 107.403 67.9736 107.68C68.5176 107.947 68.9443 108.363 69.2536 108.928C69.563 109.483 69.7176 110.197 69.7176 111.072V116H67.2216V111.456C67.2216 110.763 67.067 110.251 66.7576 109.92C66.459 109.589 66.0323 109.424 65.4776 109.424C65.083 109.424 64.7256 109.509 64.4056 109.68C64.0963 109.84 63.851 110.091 63.6696 110.432C63.499 110.773 63.4136 111.211 63.4136 111.744V116H60.9176V107.392H63.3016V109.776L62.8536 109.056C63.163 108.48 63.6056 108.037 64.1816 107.728C64.7576 107.419 65.4136 107.264 66.1496 107.264ZM75.5001 116.128C74.4868 116.128 73.6975 115.872 73.1321 115.36C72.5668 114.837 72.2841 114.064 72.2841 113.04V105.488H74.7801V113.008C74.7801 113.371 74.8761 113.653 75.0681 113.856C75.2601 114.048 75.5215 114.144 75.8521 114.144C76.2468 114.144 76.5828 114.037 76.8601 113.824L77.5321 115.584C77.2761 115.765 76.9668 115.904 76.6041 116C76.2521 116.085 75.8841 116.128 75.5001 116.128ZM70.9561 109.504V107.584H76.9241V109.504H70.9561ZM84.1653 107.264C84.8479 107.264 85.4559 107.403 85.9893 107.68C86.5333 107.947 86.9599 108.363 87.2693 108.928C87.5786 109.483 87.7333 110.197 87.7333 111.072V116H85.2373V111.456C85.2373 110.763 85.0826 110.251 84.7733 109.92C84.4746 109.589 84.0479 109.424 83.4933 109.424C83.0986 109.424 82.7413 109.509 82.4213 109.68C82.1119 109.84 81.8666 110.091 81.6853 110.432C81.5146 110.773 81.4293 111.211 81.4293 111.744V116H78.9333V104.128H81.4293V109.776L80.8693 109.056C81.1786 108.48 81.6213 108.037 82.1973 107.728C82.7733 107.419 83.4293 107.264 84.1653 107.264ZM92.8918 116.128C92.1558 116.128 91.4464 116.043 90.7638 115.872C90.0918 115.691 89.5584 115.467 89.1638 115.2L89.9958 113.408C90.3904 113.653 90.8544 113.856 91.3878 114.016C91.9318 114.165 92.4651 114.24 92.9878 114.24C93.5638 114.24 93.9691 114.171 94.2038 114.032C94.4491 113.893 94.5718 113.701 94.5718 113.456C94.5718 113.253 94.4758 113.104 94.2838 113.008C94.1024 112.901 93.8571 112.821 93.5477 112.768C93.2384 112.715 92.8971 112.661 92.5238 112.608C92.1611 112.555 91.7931 112.485 91.4198 112.4C91.0464 112.304 90.7051 112.165 90.3958 111.984C90.0864 111.803 89.8358 111.557 89.6438 111.248C89.4624 110.939 89.3717 110.539 89.3717 110.048C89.3717 109.504 89.5264 109.024 89.8358 108.608C90.1558 108.192 90.6144 107.867 91.2118 107.632C91.8091 107.387 92.5238 107.264 93.3558 107.264C93.9424 107.264 94.5398 107.328 95.1478 107.456C95.7558 107.584 96.2624 107.771 96.6678 108.016L95.8358 109.792C95.4198 109.547 94.9984 109.381 94.5718 109.296C94.1558 109.2 93.7504 109.152 93.3558 109.152C92.8011 109.152 92.3958 109.227 92.1398 109.376C91.8838 109.525 91.7558 109.717 91.7558 109.952C91.7558 110.165 91.8464 110.325 92.0278 110.432C92.2198 110.539 92.4704 110.624 92.7798 110.688C93.0891 110.752 93.4251 110.811 93.7878 110.864C94.1611 110.907 94.5344 110.976 94.9078 111.072C95.2811 111.168 95.6171 111.307 95.9158 111.488C96.2251 111.659 96.4758 111.899 96.6678 112.208C96.8598 112.507 96.9558 112.901 96.9558 113.392C96.9558 113.925 96.7958 114.4 96.4758 114.816C96.1558 115.221 95.6918 115.541 95.0838 115.776C94.4864 116.011 93.7558 116.128 92.8918 116.128Z" fill="#4F4F4F"/>
<path d="M211.6 104.8V116H209.472L203.888 109.2V116H201.328V104.8H203.472L209.04 111.6V104.8H211.6ZM218.17 116.128C217.263 116.128 216.447 115.941 215.722 115.568C215.007 115.184 214.447 114.656 214.042 113.984C213.637 113.312 213.434 112.549 213.434 111.696C213.434 110.843 213.637 110.08 214.042 109.408C214.447 108.736 215.007 108.213 215.722 107.84C216.447 107.456 217.263 107.264 218.17 107.264C219.077 107.264 219.887 107.456 220.602 107.84C221.317 108.213 221.877 108.736 222.282 109.408C222.687 110.08 222.89 110.843 222.89 111.696C222.89 112.549 222.687 113.312 222.282 113.984C221.877 114.656 221.317 115.184 220.602 115.568C219.887 115.941 219.077 116.128 218.17 116.128ZM218.17 114.08C218.81 114.08 219.333 113.867 219.738 113.44C220.154 113.003 220.362 112.421 220.362 111.696C220.362 110.971 220.154 110.395 219.738 109.968C219.333 109.531 218.81 109.312 218.17 109.312C217.53 109.312 217.002 109.531 216.586 109.968C216.17 110.395 215.962 110.971 215.962 111.696C215.962 112.421 216.17 113.003 216.586 113.44C217.002 113.867 217.53 114.08 218.17 114.08Z" fill="#4F4F4F"/>
<path d="M96.112 156V151.424L96.704 152.992L91.776 144.8H94.528L98.304 151.088H96.72L100.512 144.8H103.056L98.128 152.992L98.704 151.424V156H96.112ZM106.431 149.312H111.823V151.328H106.431V149.312ZM106.623 153.92H112.719V156H104.047V144.8H112.511V146.88H106.623V153.92ZM118.461 156.192C117.565 156.192 116.706 156.075 115.885 155.84C115.064 155.595 114.402 155.28 113.901 154.896L114.781 152.944C115.261 153.285 115.826 153.568 116.477 153.792C117.138 154.005 117.805 154.112 118.477 154.112C118.989 154.112 119.4 154.064 119.709 153.968C120.029 153.861 120.264 153.717 120.413 153.536C120.562 153.355 120.637 153.147 120.637 152.912C120.637 152.613 120.52 152.379 120.285 152.208C120.05 152.027 119.741 151.883 119.357 151.776C118.973 151.659 118.546 151.552 118.077 151.456C117.618 151.349 117.154 151.221 116.685 151.072C116.226 150.923 115.805 150.731 115.421 150.496C115.037 150.261 114.722 149.952 114.477 149.568C114.242 149.184 114.125 148.693 114.125 148.096C114.125 147.456 114.296 146.875 114.637 146.352C114.989 145.819 115.512 145.397 116.205 145.088C116.909 144.768 117.789 144.608 118.845 144.608C119.549 144.608 120.242 144.693 120.925 144.864C121.608 145.024 122.21 145.269 122.733 145.6L121.933 147.568C121.41 147.269 120.888 147.051 120.365 146.912C119.842 146.763 119.33 146.688 118.829 146.688C118.328 146.688 117.917 146.747 117.597 146.864C117.277 146.981 117.048 147.136 116.909 147.328C116.77 147.509 116.701 147.723 116.701 147.968C116.701 148.256 116.818 148.491 117.053 148.672C117.288 148.843 117.597 148.981 117.981 149.088C118.365 149.195 118.786 149.301 119.245 149.408C119.714 149.515 120.178 149.637 120.637 149.776C121.106 149.915 121.533 150.101 121.917 150.336C122.301 150.571 122.61 150.88 122.845 151.264C123.09 151.648 123.213 152.133 123.213 152.72C123.213 153.349 123.037 153.925 122.685 154.448C122.333 154.971 121.805 155.392 121.101 155.712C120.408 156.032 119.528 156.192 118.461 156.192Z" fill="#4F4F4F"/>
<path d="M211.6 144.8V156H209.472L203.888 149.2V156H201.328V144.8H203.472L209.04 151.6V144.8H211.6ZM219.674 156.192C218.511 156.192 217.461 155.941 216.522 155.44C215.594 154.939 214.863 154.251 214.33 153.376C213.807 152.491 213.546 151.499 213.546 150.4C213.546 149.301 213.807 148.315 214.33 147.44C214.863 146.555 215.594 145.861 216.522 145.36C217.461 144.859 218.511 144.608 219.674 144.608C220.837 144.608 221.882 144.859 222.81 145.36C223.738 145.861 224.469 146.555 225.002 147.44C225.535 148.315 225.802 149.301 225.802 150.4C225.802 151.499 225.535 152.491 225.002 153.376C224.469 154.251 223.738 154.939 222.81 155.44C221.882 155.941 220.837 156.192 219.674 156.192ZM219.674 153.984C220.335 153.984 220.933 153.835 221.466 153.536C221.999 153.227 222.415 152.8 222.714 152.256C223.023 151.712 223.178 151.093 223.178 150.4C223.178 149.707 223.023 149.088 222.714 148.544C222.415 148 221.999 147.579 221.466 147.28C220.933 146.971 220.335 146.816 219.674 146.816C219.013 146.816 218.415 146.971 217.882 147.28C217.349 147.579 216.927 148 216.618 148.544C216.319 149.088 216.17 149.707 216.17 150.4C216.17 151.093 216.319 151.712 216.618 152.256C216.927 152.8 217.349 153.227 217.882 153.536C218.415 153.835 219.013 153.984 219.674 153.984Z" fill="#4F4F4F"/>
<path d="M21.824 136V124.8H26.016C26.9653 124.8 27.7813 124.955 28.464 125.264C29.1467 125.563 29.6693 126 30.032 126.576C30.4053 127.141 30.592 127.829 30.592 128.64C30.592 129.429 30.4053 130.112 30.032 130.688C29.6693 131.253 29.1467 131.691 28.464 132C27.7813 132.309 26.9653 132.464 26.016 132.464H22.48L23.008 131.904V136H21.824ZM23.008 132L22.48 131.424H25.984C27.104 131.424 27.952 131.184 28.528 130.704C29.1147 130.213 29.408 129.525 29.408 128.64C29.408 127.744 29.1147 127.051 28.528 126.56C27.952 126.069 27.104 125.824 25.984 125.824H22.48L23.008 125.264V132ZM38.098 136V134.144L38.05 133.84V130.736C38.05 130.021 37.8473 129.472 37.442 129.088C37.0473 128.704 36.4553 128.512 35.666 128.512C35.122 128.512 34.6047 128.603 34.114 128.784C33.6233 128.965 33.2073 129.205 32.866 129.504L32.354 128.656C32.7807 128.293 33.2927 128.016 33.89 127.824C34.4873 127.621 35.1167 127.52 35.778 127.52C36.866 127.52 37.7033 127.792 38.29 128.336C38.8873 128.869 39.186 129.685 39.186 130.784V136H38.098ZM35.202 136.08C34.5727 136.08 34.0233 135.979 33.554 135.776C33.0953 135.563 32.7433 135.275 32.498 134.912C32.2527 134.539 32.13 134.112 32.13 133.632C32.13 133.195 32.2313 132.8 32.434 132.448C32.6473 132.085 32.9887 131.797 33.458 131.584C33.938 131.36 34.578 131.248 35.378 131.248H38.274V132.096H35.41C34.5993 132.096 34.034 132.24 33.714 132.528C33.4047 132.816 33.25 133.173 33.25 133.6C33.25 134.08 33.4367 134.464 33.81 134.752C34.1833 135.04 34.706 135.184 35.378 135.184C36.018 135.184 36.5673 135.04 37.026 134.752C37.4953 134.453 37.8367 134.027 38.05 133.472L38.306 134.256C38.0927 134.811 37.7193 135.253 37.186 135.584C36.6633 135.915 36.002 136.08 35.202 136.08ZM42.1793 139.184C41.7846 139.184 41.4059 139.12 41.0433 138.992C40.6913 138.864 40.3872 138.672 40.1312 138.416L40.6593 137.568C40.8726 137.771 41.1019 137.925 41.3473 138.032C41.6033 138.149 41.8859 138.208 42.1953 138.208C42.5686 138.208 42.8886 138.101 43.1553 137.888C43.4326 137.685 43.6939 137.323 43.9393 136.8L44.4833 135.568L44.6113 135.392L48.0673 127.6H49.1873L44.9793 137.008C44.7446 137.552 44.4833 137.984 44.1953 138.304C43.9179 138.624 43.6139 138.848 43.2833 138.976C42.9526 139.115 42.5846 139.184 42.1793 139.184ZM44.4193 136.24L40.5473 127.6H41.7313L45.1553 135.312L44.4193 136.24ZM61.2831 127.52C61.9658 127.52 62.5578 127.653 63.0591 127.92C63.5711 128.176 63.9658 128.571 64.2431 129.104C64.5311 129.637 64.6751 130.309 64.6751 131.12V136H63.5391V131.232C63.5391 130.347 63.3258 129.68 62.8991 129.232C62.4831 128.773 61.8911 128.544 61.1231 128.544C60.5471 128.544 60.0458 128.667 59.6191 128.912C59.2031 129.147 58.8778 129.493 58.6431 129.952C58.4191 130.4 58.3071 130.944 58.3071 131.584V136H57.1711V131.232C57.1711 130.347 56.9578 129.68 56.5311 129.232C56.1045 128.773 55.5071 128.544 54.7391 128.544C54.1738 128.544 53.6778 128.667 53.2511 128.912C52.8245 129.147 52.4938 129.493 52.2591 129.952C52.0351 130.4 51.9231 130.944 51.9231 131.584V136H50.7871V127.6H51.8751V129.872L51.6991 129.472C51.9551 128.864 52.3658 128.389 52.9311 128.048C53.5071 127.696 54.1845 127.52 54.9631 127.52C55.7845 127.52 56.4831 127.728 57.0591 128.144C57.6351 128.549 58.0085 129.163 58.1791 129.984L57.7311 129.808C57.9765 129.125 58.4085 128.576 59.0271 128.16C59.6565 127.733 60.4085 127.52 61.2831 127.52ZM71.3239 136.08C70.4492 136.08 69.6812 135.899 69.0199 135.536C68.3585 135.163 67.8412 134.656 67.4679 134.016C67.0945 133.365 66.9079 132.624 66.9079 131.792C66.9079 130.96 67.0839 130.224 67.4359 129.584C67.7985 128.944 68.2892 128.443 68.9079 128.08C69.5372 127.707 70.2412 127.52 71.0199 127.52C71.8092 127.52 72.5079 127.701 73.1159 128.064C73.7345 128.416 74.2199 128.917 74.5719 129.568C74.9239 130.208 75.0999 130.949 75.0999 131.792C75.0999 131.845 75.0945 131.904 75.0839 131.968C75.0839 132.021 75.0839 132.08 75.0839 132.144H67.7719V131.296H74.4759L74.0279 131.632C74.0279 131.024 73.8945 130.485 73.6279 130.016C73.3719 129.536 73.0199 129.163 72.5719 128.896C72.1239 128.629 71.6065 128.496 71.0199 128.496C70.4439 128.496 69.9265 128.629 69.4679 128.896C69.0092 129.163 68.6519 129.536 68.3959 130.016C68.1399 130.496 68.0119 131.045 68.0119 131.664V131.84C68.0119 132.48 68.1505 133.045 68.4279 133.536C68.7159 134.016 69.1105 134.395 69.6119 134.672C70.1239 134.939 70.7052 135.072 71.3559 135.072C71.8679 135.072 72.3425 134.981 72.7799 134.8C73.2279 134.619 73.6119 134.341 73.9319 133.968L74.5719 134.704C74.1985 135.152 73.7292 135.493 73.1639 135.728C72.6092 135.963 71.9959 136.08 71.3239 136.08ZM81.7001 127.52C82.3828 127.52 82.9801 127.653 83.4921 127.92C84.0148 128.176 84.4201 128.571 84.7081 129.104C85.0068 129.637 85.1561 130.309 85.1561 131.12V136H84.0201V131.232C84.0201 130.347 83.7961 129.68 83.3481 129.232C82.9108 128.773 82.2921 128.544 81.4921 128.544C80.8948 128.544 80.3721 128.667 79.9241 128.912C79.4868 129.147 79.1455 129.493 78.9001 129.952C78.6655 130.4 78.5481 130.944 78.5481 131.584V136H77.4121V127.6H78.5001V129.904L78.3241 129.472C78.5908 128.864 79.0175 128.389 79.6041 128.048C80.1908 127.696 80.8895 127.52 81.7001 127.52ZM90.8806 136.08C90.0913 136.08 89.4833 135.867 89.0566 135.44C88.63 135.013 88.4166 134.411 88.4166 133.632V125.744H89.5526V133.568C89.5526 134.059 89.6753 134.437 89.9206 134.704C90.1766 134.971 90.5393 135.104 91.0086 135.104C91.51 135.104 91.926 134.96 92.2566 134.672L92.6566 135.488C92.4326 135.691 92.1606 135.84 91.8406 135.936C91.5313 136.032 91.2113 136.08 90.8806 136.08ZM86.9126 128.544V127.6H92.1126V128.544H86.9126ZM104.176 136V134.144L104.128 133.84V130.736C104.128 130.021 103.925 129.472 103.52 129.088C103.125 128.704 102.533 128.512 101.744 128.512C101.2 128.512 100.683 128.603 100.192 128.784C99.7015 128.965 99.2855 129.205 98.9441 129.504L98.4321 128.656C98.8588 128.293 99.3708 128.016 99.9681 127.824C100.565 127.621 101.195 127.52 101.856 127.52C102.944 127.52 103.781 127.792 104.368 128.336C104.965 128.869 105.264 129.685 105.264 130.784V136H104.176ZM101.28 136.08C100.651 136.08 100.101 135.979 99.6321 135.776C99.1735 135.563 98.8215 135.275 98.5761 134.912C98.3308 134.539 98.2081 134.112 98.2081 133.632C98.2081 133.195 98.3095 132.8 98.5121 132.448C98.7255 132.085 99.0668 131.797 99.5361 131.584C100.016 131.36 100.656 131.248 101.456 131.248H104.352V132.096H101.488C100.677 132.096 100.112 132.24 99.7921 132.528C99.4828 132.816 99.3281 133.173 99.3281 133.6C99.3281 134.08 99.5148 134.464 99.8881 134.752C100.261 135.04 100.784 135.184 101.456 135.184C102.096 135.184 102.645 135.04 103.104 134.752C103.573 134.453 103.915 134.027 104.128 133.472L104.384 134.256C104.171 134.811 103.797 135.253 103.264 135.584C102.741 135.915 102.08 136.08 101.28 136.08ZM111.934 139.184C111.166 139.184 110.43 139.072 109.726 138.848C109.022 138.624 108.451 138.304 108.014 137.888L108.59 137.024C108.984 137.376 109.47 137.653 110.046 137.856C110.632 138.069 111.251 138.176 111.902 138.176C112.968 138.176 113.752 137.925 114.254 137.424C114.755 136.933 115.006 136.165 115.006 135.12V133.024L115.166 131.584L115.054 130.144V127.6H116.142V134.976C116.142 136.427 115.784 137.488 115.07 138.16C114.366 138.843 113.32 139.184 111.934 139.184ZM111.726 135.68C110.926 135.68 110.206 135.509 109.566 135.168C108.926 134.816 108.419 134.331 108.046 133.712C107.683 133.093 107.502 132.384 107.502 131.584C107.502 130.784 107.683 130.08 108.046 129.472C108.419 128.853 108.926 128.373 109.566 128.032C110.206 127.691 110.926 127.52 111.726 127.52C112.472 127.52 113.144 127.675 113.742 127.984C114.339 128.293 114.814 128.752 115.166 129.36C115.518 129.968 115.694 130.709 115.694 131.584C115.694 132.459 115.518 133.2 115.166 133.808C114.814 134.416 114.339 134.88 113.742 135.2C113.144 135.52 112.472 135.68 111.726 135.68ZM111.838 134.672C112.456 134.672 113.006 134.544 113.486 134.288C113.966 134.021 114.344 133.659 114.622 133.2C114.899 132.731 115.038 132.192 115.038 131.584C115.038 130.976 114.899 130.443 114.622 129.984C114.344 129.525 113.966 129.168 113.486 128.912C113.006 128.645 112.456 128.512 111.838 128.512C111.23 128.512 110.68 128.645 110.19 128.912C109.71 129.168 109.331 129.525 109.054 129.984C108.787 130.443 108.654 130.976 108.654 131.584C108.654 132.192 108.787 132.731 109.054 133.2C109.331 133.659 109.71 134.021 110.19 134.288C110.68 134.544 111.23 134.672 111.838 134.672ZM124.567 136V134.144L124.519 133.84V130.736C124.519 130.021 124.316 129.472 123.911 129.088C123.516 128.704 122.924 128.512 122.135 128.512C121.591 128.512 121.073 128.603 120.583 128.784C120.092 128.965 119.676 129.205 119.335 129.504L118.823 128.656C119.249 128.293 119.761 128.016 120.359 127.824C120.956 127.621 121.585 127.52 122.247 127.52C123.335 127.52 124.172 127.792 124.759 128.336C125.356 128.869 125.655 129.685 125.655 130.784V136H124.567ZM121.671 136.08C121.041 136.08 120.492 135.979 120.023 135.776C119.564 135.563 119.212 135.275 118.967 134.912C118.721 134.539 118.599 134.112 118.599 133.632C118.599 133.195 118.7 132.8 118.903 132.448C119.116 132.085 119.457 131.797 119.927 131.584C120.407 131.36 121.047 131.248 121.847 131.248H124.743V132.096H121.879C121.068 132.096 120.503 132.24 120.183 132.528C119.873 132.816 119.719 133.173 119.719 133.6C119.719 134.08 119.905 134.464 120.279 134.752C120.652 135.04 121.175 135.184 121.847 135.184C122.487 135.184 123.036 135.04 123.495 134.752C123.964 134.453 124.305 134.027 124.519 133.472L124.775 134.256C124.561 134.811 124.188 135.253 123.655 135.584C123.132 135.915 122.471 136.08 121.671 136.08ZM128.74 136V127.6H129.876V136H128.74ZM129.316 125.744C129.082 125.744 128.884 125.664 128.724 125.504C128.564 125.344 128.484 125.152 128.484 124.928C128.484 124.704 128.564 124.517 128.724 124.368C128.884 124.208 129.082 124.128 129.316 124.128C129.551 124.128 129.748 124.203 129.908 124.352C130.068 124.501 130.148 124.688 130.148 124.912C130.148 125.147 130.068 125.344 129.908 125.504C129.759 125.664 129.562 125.744 129.316 125.744ZM137.325 127.52C138.008 127.52 138.605 127.653 139.117 127.92C139.64 128.176 140.045 128.571 140.333 129.104C140.632 129.637 140.781 130.309 140.781 131.12V136H139.645V131.232C139.645 130.347 139.421 129.68 138.973 129.232C138.536 128.773 137.917 128.544 137.117 128.544C136.52 128.544 135.997 128.667 135.549 128.912C135.112 129.147 134.77 129.493 134.525 129.952C134.29 130.4 134.173 130.944 134.173 131.584V136H133.037V127.6H134.125V129.904L133.949 129.472C134.216 128.864 134.642 128.389 135.229 128.048C135.816 127.696 136.514 127.52 137.325 127.52ZM146.106 136.08C145.412 136.08 144.756 135.984 144.138 135.792C143.519 135.589 143.034 135.339 142.682 135.04L143.194 134.144C143.535 134.4 143.972 134.624 144.506 134.816C145.039 134.997 145.599 135.088 146.186 135.088C146.986 135.088 147.562 134.965 147.914 134.72C148.266 134.464 148.442 134.128 148.442 133.712C148.442 133.403 148.34 133.163 148.138 132.992C147.946 132.811 147.69 132.677 147.37 132.592C147.05 132.496 146.692 132.416 146.298 132.352C145.903 132.288 145.508 132.213 145.114 132.128C144.73 132.043 144.378 131.92 144.058 131.76C143.738 131.589 143.476 131.36 143.274 131.072C143.082 130.784 142.986 130.4 142.986 129.92C142.986 129.461 143.114 129.051 143.37 128.688C143.626 128.325 143.999 128.043 144.49 127.84C144.991 127.627 145.599 127.52 146.314 127.52C146.858 127.52 147.402 127.595 147.946 127.744C148.49 127.883 148.938 128.069 149.29 128.304L148.794 129.216C148.42 128.96 148.02 128.779 147.594 128.672C147.167 128.555 146.74 128.496 146.314 128.496C145.556 128.496 144.996 128.629 144.634 128.896C144.282 129.152 144.106 129.483 144.106 129.888C144.106 130.208 144.202 130.459 144.394 130.64C144.596 130.821 144.858 130.965 145.178 131.072C145.508 131.168 145.866 131.248 146.25 131.312C146.644 131.376 147.034 131.456 147.418 131.552C147.812 131.637 148.17 131.76 148.49 131.92C148.82 132.069 149.082 132.288 149.274 132.576C149.476 132.853 149.578 133.221 149.578 133.68C149.578 134.171 149.439 134.597 149.162 134.96C148.895 135.312 148.5 135.589 147.978 135.792C147.466 135.984 146.842 136.08 146.106 136.08ZM154.318 136.08C153.529 136.08 152.921 135.867 152.494 135.44C152.067 135.013 151.854 134.411 151.854 133.632V125.744H152.99V133.568C152.99 134.059 153.113 134.437 153.358 134.704C153.614 134.971 153.977 135.104 154.446 135.104C154.947 135.104 155.363 134.96 155.694 134.672L156.094 135.488C155.87 135.691 155.598 135.84 155.278 135.936C154.969 136.032 154.649 136.08 154.318 136.08ZM150.35 128.544V127.6H155.55V128.544H150.35ZM24.928 156.08C24.128 156.08 23.408 155.899 22.768 155.536C22.1387 155.173 21.6427 154.672 21.28 154.032C20.9173 153.381 20.736 152.635 20.736 151.792C20.736 150.939 20.9173 150.192 21.28 149.552C21.6427 148.912 22.1387 148.416 22.768 148.064C23.408 147.701 24.128 147.52 24.928 147.52C25.664 147.52 26.32 147.685 26.896 148.016C27.4827 148.347 27.9467 148.832 28.288 149.472C28.64 150.101 28.816 150.875 28.816 151.792C28.816 152.699 28.6453 153.472 28.304 154.112C27.9627 154.752 27.4987 155.243 26.912 155.584C26.336 155.915 25.6747 156.08 24.928 156.08ZM25.008 155.072C25.6053 155.072 26.1387 154.939 26.608 154.672C27.088 154.395 27.4613 154.011 27.728 153.52C28.0053 153.019 28.144 152.443 28.144 151.792C28.144 151.131 28.0053 150.555 27.728 150.064C27.4613 149.573 27.088 149.195 26.608 148.928C26.1387 148.651 25.6053 148.512 25.008 148.512C24.4213 148.512 23.8933 148.651 23.424 148.928C22.9547 149.195 22.5813 149.573 22.304 150.064C22.0267 150.555 21.888 151.131 21.888 151.792C21.888 152.443 22.0267 153.019 22.304 153.52C22.5813 154.011 22.9547 154.395 23.424 154.672C23.8933 154.939 24.4213 155.072 25.008 155.072ZM28.176 156V153.472L28.288 151.776L28.128 150.08V144.128H29.264V156H28.176ZM35.9958 156.08C35.1211 156.08 34.3531 155.899 33.6918 155.536C33.0304 155.163 32.5131 154.656 32.1398 154.016C31.7664 153.365 31.5798 152.624 31.5798 151.792C31.5798 150.96 31.7558 150.224 32.1078 149.584C32.4704 148.944 32.9611 148.443 33.5798 148.08C34.2091 147.707 34.9131 147.52 35.6918 147.52C36.4811 147.52 37.1798 147.701 37.7878 148.064C38.4064 148.416 38.8918 148.917 39.2438 149.568C39.5958 150.208 39.7718 150.949 39.7718 151.792C39.7718 151.845 39.7664 151.904 39.7558 151.968C39.7558 152.021 39.7558 152.08 39.7558 152.144H32.4438V151.296H39.1478L38.6998 151.632C38.6998 151.024 38.5664 150.485 38.2998 150.016C38.0438 149.536 37.6918 149.163 37.2438 148.896C36.7958 148.629 36.2784 148.496 35.6918 148.496C35.1158 148.496 34.5984 148.629 34.1398 148.896C33.6811 149.163 33.3238 149.536 33.0678 150.016C32.8118 150.496 32.6838 151.045 32.6838 151.664V151.84C32.6838 152.48 32.8224 153.045 33.0998 153.536C33.3878 154.016 33.7824 154.395 34.2838 154.672C34.7958 154.939 35.3771 155.072 36.0278 155.072C36.5398 155.072 37.0144 154.981 37.4518 154.8C37.8998 154.619 38.2838 154.341 38.6038 153.968L39.2438 154.704C38.8704 155.152 38.4011 155.493 37.8358 155.728C37.2811 155.963 36.6678 156.08 35.9958 156.08ZM42.084 156V144.128H43.22V156H42.084ZM46.3809 156V147.6H47.5169V156H46.3809ZM46.9569 145.744C46.7222 145.744 46.5249 145.664 46.3649 145.504C46.2049 145.344 46.1249 145.152 46.1249 144.928C46.1249 144.704 46.2049 144.517 46.3649 144.368C46.5249 144.208 46.7222 144.128 46.9569 144.128C47.1915 144.128 47.3889 144.203 47.5489 144.352C47.7089 144.501 47.7889 144.688 47.7889 144.912C47.7889 145.147 47.7089 145.344 47.5489 145.504C47.3995 145.664 47.2022 145.744 46.9569 145.744ZM52.8378 156L49.1098 147.6H50.2938L53.7178 155.392H53.1578L56.6298 147.6H57.7498L54.0058 156H52.8378ZM62.6833 156.08C61.8086 156.08 61.0406 155.899 60.3793 155.536C59.7179 155.163 59.2006 154.656 58.8273 154.016C58.4539 153.365 58.2673 152.624 58.2673 151.792C58.2673 150.96 58.4433 150.224 58.7953 149.584C59.1579 148.944 59.6486 148.443 60.2673 148.08C60.8966 147.707 61.6006 147.52 62.3793 147.52C63.1686 147.52 63.8673 147.701 64.4753 148.064C65.0939 148.416 65.5793 148.917 65.9313 149.568C66.2833 150.208 66.4593 150.949 66.4593 151.792C66.4593 151.845 66.4539 151.904 66.4433 151.968C66.4433 152.021 66.4433 152.08 66.4433 152.144H59.1313V151.296H65.8353L65.3873 151.632C65.3873 151.024 65.2539 150.485 64.9873 150.016C64.7313 149.536 64.3793 149.163 63.9313 148.896C63.4833 148.629 62.9659 148.496 62.3793 148.496C61.8033 148.496 61.2859 148.629 60.8273 148.896C60.3686 149.163 60.0113 149.536 59.7553 150.016C59.4993 150.496 59.3713 151.045 59.3713 151.664V151.84C59.3713 152.48 59.5099 153.045 59.7873 153.536C60.0753 154.016 60.4699 154.395 60.9713 154.672C61.4833 154.939 62.0646 155.072 62.7153 155.072C63.2273 155.072 63.7019 154.981 64.1393 154.8C64.5873 154.619 64.9713 154.341 65.2913 153.968L65.9313 154.704C65.5579 155.152 65.0886 155.493 64.5233 155.728C63.9686 155.963 63.3553 156.08 62.6833 156.08ZM68.7715 156V147.6H69.8595V149.888L69.7475 149.488C69.9822 148.848 70.3768 148.363 70.9315 148.032C71.4862 147.691 72.1742 147.52 72.9955 147.52V148.624C72.9528 148.624 72.9102 148.624 72.8675 148.624C72.8248 148.613 72.7822 148.608 72.7395 148.608C71.8542 148.608 71.1608 148.88 70.6595 149.424C70.1582 149.957 69.9075 150.72 69.9075 151.712V156H68.7715ZM75.4918 159.184C75.0971 159.184 74.7184 159.12 74.3558 158.992C74.0038 158.864 73.6997 158.672 73.4437 158.416L73.9718 157.568C74.1851 157.771 74.4144 157.925 74.6598 158.032C74.9158 158.149 75.1984 158.208 75.5078 158.208C75.8811 158.208 76.2011 158.101 76.4678 157.888C76.7451 157.685 77.0064 157.323 77.2518 156.8L77.7958 155.568L77.9238 155.392L81.3798 147.6H82.4998L78.2918 157.008C78.0571 157.552 77.7958 157.984 77.5078 158.304C77.2304 158.624 76.9264 158.848 76.5958 158.976C76.2651 159.115 75.8971 159.184 75.4918 159.184ZM77.7318 156.24L73.8598 147.6H75.0438L78.4678 155.312L77.7318 156.24Z" fill="#828282"/>
<path d="M201.824 136V124.8H206.016C206.965 124.8 207.781 124.955 208.464 125.264C209.147 125.563 209.669 126 210.032 126.576C210.405 127.141 210.592 127.829 210.592 128.64C210.592 129.429 210.405 130.112 210.032 130.688C209.669 131.253 209.147 131.691 208.464 132C207.781 132.299 206.965 132.448 206.016 132.448H202.48L203.008 131.904V136H201.824ZM209.472 136L206.592 131.936H207.872L210.768 136H209.472ZM203.008 132L202.48 131.44H205.984C207.104 131.44 207.952 131.195 208.528 130.704C209.115 130.213 209.408 129.525 209.408 128.64C209.408 127.744 209.115 127.051 208.528 126.56C207.952 126.069 207.104 125.824 205.984 125.824H202.48L203.008 125.264V132ZM216.715 136.08C215.84 136.08 215.072 135.899 214.411 135.536C213.749 135.163 213.232 134.656 212.859 134.016C212.485 133.365 212.299 132.624 212.299 131.792C212.299 130.96 212.475 130.224 212.827 129.584C213.189 128.944 213.68 128.443 214.299 128.08C214.928 127.707 215.632 127.52 216.411 127.52C217.2 127.52 217.899 127.701 218.507 128.064C219.125 128.416 219.611 128.917 219.963 129.568C220.315 130.208 220.491 130.949 220.491 131.792C220.491 131.845 220.485 131.904 220.475 131.968C220.475 132.021 220.475 132.08 220.475 132.144H213.163V131.296H219.867L219.419 131.632C219.419 131.024 219.285 130.485 219.019 130.016C218.763 129.536 218.411 129.163 217.963 128.896C217.515 128.629 216.997 128.496 216.411 128.496C215.835 128.496 215.317 128.629 214.859 128.896C214.4 129.163 214.043 129.536 213.787 130.016C213.531 130.496 213.403 131.045 213.403 131.664V131.84C213.403 132.48 213.541 133.045 213.819 133.536C214.107 134.016 214.501 134.395 215.003 134.672C215.515 134.939 216.096 135.072 216.747 135.072C217.259 135.072 217.733 134.981 218.171 134.8C218.619 134.619 219.003 134.341 219.323 133.968L219.963 134.704C219.589 135.152 219.12 135.493 218.555 135.728C218 135.963 217.387 136.08 216.715 136.08ZM222.995 136V126.544C222.995 125.797 223.213 125.195 223.651 124.736C224.088 124.277 224.717 124.048 225.539 124.048C225.859 124.048 226.168 124.091 226.467 124.176C226.765 124.261 227.016 124.395 227.219 124.576L226.835 125.424C226.675 125.285 226.488 125.184 226.275 125.12C226.061 125.045 225.832 125.008 225.587 125.008C225.107 125.008 224.739 125.141 224.483 125.408C224.227 125.675 224.099 126.069 224.099 126.592V127.872L224.131 128.4V136H222.995ZM221.491 128.544V127.6H226.691V128.544H221.491ZM231.697 136.08C230.982 136.08 230.358 135.947 229.825 135.68C229.291 135.413 228.875 135.013 228.577 134.48C228.289 133.947 228.145 133.28 228.145 132.48V127.6H229.281V132.352C229.281 133.248 229.499 133.925 229.937 134.384C230.385 134.832 231.009 135.056 231.809 135.056C232.395 135.056 232.902 134.939 233.329 134.704C233.766 134.459 234.097 134.107 234.321 133.648C234.555 133.189 234.673 132.64 234.673 132V127.6H235.809V136H234.721V133.696L234.897 134.112C234.63 134.731 234.214 135.216 233.649 135.568C233.094 135.909 232.443 136.08 231.697 136.08ZM243.263 127.52C243.945 127.52 244.543 127.653 245.055 127.92C245.577 128.176 245.983 128.571 246.271 129.104C246.569 129.637 246.719 130.309 246.719 131.12V136H245.583V131.232C245.583 130.347 245.359 129.68 244.911 129.232C244.473 128.773 243.855 128.544 243.055 128.544C242.457 128.544 241.935 128.667 241.487 128.912C241.049 129.147 240.708 129.493 240.463 129.952C240.228 130.4 240.111 130.944 240.111 131.584V136H238.975V127.6H240.063V129.904L239.887 129.472C240.153 128.864 240.58 128.389 241.167 128.048C241.753 127.696 242.452 127.52 243.263 127.52ZM253.131 136.08C252.331 136.08 251.611 135.899 250.971 135.536C250.342 135.173 249.846 134.672 249.483 134.032C249.12 133.381 248.939 132.635 248.939 131.792C248.939 130.939 249.12 130.192 249.483 129.552C249.846 128.912 250.342 128.416 250.971 128.064C251.611 127.701 252.331 127.52 253.131 127.52C253.867 127.52 254.523 127.685 255.099 128.016C255.686 128.347 256.15 128.832 256.491 129.472C256.843 130.101 257.019 130.875 257.019 131.792C257.019 132.699 256.848 133.472 256.507 134.112C256.166 134.752 255.702 135.243 255.115 135.584C254.539 135.915 253.878 136.08 253.131 136.08ZM253.211 135.072C253.808 135.072 254.342 134.939 254.811 134.672C255.291 134.395 255.664 134.011 255.931 133.52C256.208 133.019 256.347 132.443 256.347 131.792C256.347 131.131 256.208 130.555 255.931 130.064C255.664 129.573 255.291 129.195 254.811 128.928C254.342 128.651 253.808 128.512 253.211 128.512C252.624 128.512 252.096 128.651 251.627 128.928C251.158 129.195 250.784 129.573 250.507 130.064C250.23 130.555 250.091 131.131 250.091 131.792C250.091 132.443 250.23 133.019 250.507 133.52C250.784 134.011 251.158 134.395 251.627 134.672C252.096 134.939 252.624 135.072 253.211 135.072ZM256.379 136V133.472L256.491 131.776L256.331 130.08V124.128H257.467V136H256.379ZM262.887 136.08C262.194 136.08 261.538 135.984 260.919 135.792C260.3 135.589 259.815 135.339 259.463 135.04L259.975 134.144C260.316 134.4 260.754 134.624 261.287 134.816C261.82 134.997 262.38 135.088 262.967 135.088C263.767 135.088 264.343 134.965 264.695 134.72C265.047 134.464 265.223 134.128 265.223 133.712C265.223 133.403 265.122 133.163 264.919 132.992C264.727 132.811 264.471 132.677 264.151 132.592C263.831 132.496 263.474 132.416 263.079 132.352C262.684 132.288 262.29 132.213 261.895 132.128C261.511 132.043 261.159 131.92 260.839 131.76C260.519 131.589 260.258 131.36 260.055 131.072C259.863 130.784 259.767 130.4 259.767 129.92C259.767 129.461 259.895 129.051 260.151 128.688C260.407 128.325 260.78 128.043 261.271 127.84C261.772 127.627 262.38 127.52 263.095 127.52C263.639 127.52 264.183 127.595 264.727 127.744C265.271 127.883 265.719 128.069 266.071 128.304L265.575 129.216C265.202 128.96 264.802 128.779 264.375 128.672C263.948 128.555 263.522 128.496 263.095 128.496C262.338 128.496 261.778 128.629 261.415 128.896C261.063 129.152 260.887 129.483 260.887 129.888C260.887 130.208 260.983 130.459 261.175 130.64C261.378 130.821 261.639 130.965 261.959 131.072C262.29 131.168 262.647 131.248 263.031 131.312C263.426 131.376 263.815 131.456 264.199 131.552C264.594 131.637 264.951 131.76 265.271 131.92C265.602 132.069 265.863 132.288 266.055 132.576C266.258 132.853 266.359 133.221 266.359 133.68C266.359 134.171 266.22 134.597 265.943 134.96C265.676 135.312 265.282 135.589 264.759 135.792C264.247 135.984 263.623 136.08 262.887 136.08Z" fill="#828282"/>
<path d="M90.9362 53.0324L90.9357 53.033L89.053 54.9456C89.0524 54.9461 89.0519 54.9467 89.0514 54.9472C88.7605 55.2418 88.6411 55.6507 88.704 56.0392L88.7044 56.0418L89.1497 58.7471L89.1499 58.7482C89.1667 58.8495 89.1265 58.9281 89.0715 58.9697C89.0429 58.9913 89.0186 58.9979 89.0006 58.9993C88.9827 59.0006 88.9595 58.9977 88.9311 58.9821L86.5973 57.7046L86.5968 57.7043C86.2277 57.5026 85.7787 57.4992 85.404 57.7053C85.403 57.7058 85.4021 57.7064 85.4012 57.7069L83.0713 58.9822L83.0707 58.9825C83.0455 58.9963 83.0246 59 83.0094 59C82.9887 59 82.9623 58.9941 82.9316 58.971C82.8757 58.9283 82.8362 58.8489 82.8527 58.7491L82.8529 58.748L83.2982 56.0427L83.2986 56.0401C83.3627 55.6439 83.2357 55.2397 82.9551 54.952L82.9551 54.952L82.9517 54.9486L81.0646 53.0335C81.0646 53.0334 81.0645 53.0333 81.0644 53.0332C81.009 52.9767 80.9827 52.8876 81.0122 52.7933C81.0271 52.7454 81.0507 52.7142 81.0725 52.6951C81.094 52.6762 81.1179 52.6652 81.1449 52.6611L81.1455 52.661L83.7541 52.2659L83.7547 52.2658C84.1812 52.2009 84.5215 51.9252 84.6928 51.5685L84.6928 51.5685L84.695 51.5639L85.8617 49.1024C85.8618 49.1023 85.8618 49.1022 85.8619 49.1021C85.8823 49.0592 85.9079 49.0343 85.9292 49.0206C85.9501 49.0071 85.9729 49 85.9995 49C86.0262 49 86.0494 49.0072 86.0707 49.0209C86.0923 49.0349 86.1178 49.0597 86.1379 49.102C86.138 49.1021 86.138 49.1022 86.1381 49.1024L87.3033 51.5625C87.4771 51.9314 87.825 52.202 88.2443 52.2658L88.2449 52.2659L90.8544 52.661L90.855 52.6611C90.882 52.6652 90.9059 52.6762 90.9273 52.6951C90.9491 52.7142 90.9727 52.7454 90.9877 52.7933C91.0176 52.889 90.9906 52.9773 90.9362 53.0324Z" fill="#EDCA71" stroke="#EDCA71" stroke-width="2"/>
<path d="M124.936 53.0324L124.936 53.033L123.053 54.9456C123.052 54.9461 123.052 54.9467 123.051 54.9472C122.76 55.2418 122.641 55.6507 122.704 56.0392L122.704 56.0418L123.15 58.7471L123.15 58.7482C123.167 58.8495 123.127 58.9281 123.071 58.9697C123.043 58.9913 123.019 58.9979 123.001 58.9993C122.983 59.0006 122.96 58.9977 122.931 58.9821L120.597 57.7046L120.597 57.7043C120.228 57.5026 119.779 57.4992 119.404 57.7053C119.403 57.7058 119.402 57.7064 119.401 57.7069L117.071 58.9822L117.071 58.9825C117.046 58.9963 117.025 59 117.009 59C116.989 59 116.962 58.9941 116.932 58.971C116.876 58.9283 116.836 58.8489 116.853 58.7491L116.853 58.748L117.298 56.0427L117.299 56.0401C117.363 55.6439 117.236 55.2397 116.955 54.952L116.955 54.952L116.952 54.9486L115.065 53.0335C115.065 53.0334 115.064 53.0333 115.064 53.0332C115.009 52.9767 114.983 52.8876 115.012 52.7933C115.027 52.7454 115.051 52.7142 115.072 52.6951C115.094 52.6762 115.118 52.6652 115.145 52.6611L115.145 52.661L117.754 52.2659L117.755 52.2658C118.181 52.2009 118.521 51.9252 118.693 51.5685L118.693 51.5685L118.695 51.5639L119.862 49.1024C119.862 49.1023 119.862 49.1022 119.862 49.1021C119.882 49.0592 119.908 49.0343 119.929 49.0206C119.95 49.0071 119.973 49 119.999 49C120.026 49 120.049 49.0072 120.071 49.0209C120.092 49.0349 120.118 49.0597 120.138 49.102C120.138 49.1021 120.138 49.1022 120.138 49.1024L121.303 51.5625C121.477 51.9314 121.825 52.202 122.244 52.2658L122.245 52.2659L124.854 52.661L124.855 52.6611C124.882 52.6652 124.906 52.6762 124.927 52.6951C124.949 52.7142 124.973 52.7454 124.988 52.7933C125.018 52.889 124.991 52.9773 124.936 53.0324Z" stroke="#EDCA71" stroke-width="2"/>
<path d="M107.936 53.0324L107.936 53.033L106.053 54.9456C106.052 54.9461 106.052 54.9467 106.051 54.9472C105.76 55.2418 105.641 55.6507 105.704 56.0392L105.704 56.0418L106.15 58.7471L106.15 58.7482C106.167 58.8495 106.127 58.9281 106.071 58.9697C106.043 58.9913 106.019 58.9979 106.001 58.9993C105.983 59.0006 105.96 58.9977 105.931 58.9821L103.597 57.7046L103.597 57.7043C103.228 57.5026 102.779 57.4992 102.404 57.7053C102.403 57.7058 102.402 57.7064 102.401 57.7069L100.071 58.9822L100.071 58.9825C100.046 58.9963 100.025 59 100.009 59C99.9887 59 99.9623 58.9941 99.9316 58.971C99.8757 58.9283 99.8362 58.8489 99.8527 58.7491L99.8529 58.748L100.298 56.0427L100.299 56.0401C100.363 55.6439 100.236 55.2397 99.9551 54.952L99.9551 54.952L99.9517 54.9486L98.0646 53.0335C98.0646 53.0334 98.0645 53.0333 98.0644 53.0332C98.009 52.9767 97.9827 52.8876 98.0122 52.7933C98.0271 52.7454 98.0507 52.7142 98.0725 52.6951C98.094 52.6762 98.1179 52.6652 98.1449 52.6611L98.1455 52.661L100.754 52.2659L100.755 52.2658C101.181 52.2009 101.521 51.9252 101.693 51.5685L101.693 51.5685L101.695 51.5639L102.862 49.1024C102.862 49.1023 102.862 49.1022 102.862 49.1021C102.882 49.0592 102.908 49.0343 102.929 49.0206C102.95 49.0071 102.973 49 102.999 49C103.026 49 103.049 49.0072 103.071 49.0209C103.092 49.0349 103.118 49.0597 103.138 49.102C103.138 49.1021 103.138 49.1022 103.138 49.1024L104.303 51.5625C104.477 51.9314 104.825 52.202 105.244 52.2658L105.245 52.2659L107.854 52.661L107.855 52.6611C107.882 52.6652 107.906 52.6762 107.927 52.6951C107.949 52.7142 107.973 52.7454 107.988 52.7933C108.018 52.889 107.991 52.9773 107.936 53.0324Z" stroke="#EDCA71" stroke-width="2"/>
<path d="M141.936 53.0324L141.936 53.033L140.053 54.9456C140.052 54.9461 140.052 54.9467 140.051 54.9472C139.76 55.2418 139.641 55.6507 139.704 56.0392L139.704 56.0418L140.15 58.7471L140.15 58.7482C140.167 58.8495 140.127 58.9281 140.071 58.9697C140.043 58.9913 140.019 58.9979 140.001 58.9993C139.983 59.0006 139.96 58.9977 139.931 58.9821L137.597 57.7046L137.597 57.7043C137.228 57.5026 136.779 57.4992 136.404 57.7053C136.403 57.7058 136.402 57.7064 136.401 57.7069L134.071 58.9822L134.071 58.9825C134.046 58.9963 134.025 59 134.009 59C133.989 59 133.962 58.9941 133.932 58.971C133.876 58.9283 133.836 58.8489 133.853 58.7491L133.853 58.748L134.298 56.0427L134.299 56.0401C134.363 55.6439 134.236 55.2397 133.955 54.952L133.955 54.952L133.952 54.9486L132.065 53.0335C132.065 53.0334 132.064 53.0333 132.064 53.0332C132.009 52.9767 131.983 52.8876 132.012 52.7933C132.027 52.7454 132.051 52.7142 132.072 52.6951C132.094 52.6762 132.118 52.6652 132.145 52.6611L132.145 52.661L134.754 52.2659L134.755 52.2658C135.181 52.2009 135.521 51.9252 135.693 51.5685L135.693 51.5685L135.695 51.5639L136.862 49.1024C136.862 49.1023 136.862 49.1022 136.862 49.1021C136.882 49.0592 136.908 49.0343 136.929 49.0206C136.95 49.0071 136.973 49 136.999 49C137.026 49 137.049 49.0072 137.071 49.0209C137.092 49.0349 137.118 49.0597 137.138 49.102C137.138 49.1021 137.138 49.1022 137.138 49.1024L138.303 51.5625C138.477 51.9314 138.825 52.202 139.244 52.2658L139.245 52.2659L141.854 52.661L141.855 52.6611C141.882 52.6652 141.906 52.6762 141.927 52.6951C141.949 52.7142 141.973 52.7454 141.988 52.7933C142.018 52.889 141.991 52.9773 141.936 53.0324Z" stroke="#EDCA71" stroke-width="2"/>
<path d="M158.936 53.0324L158.936 53.033L157.053 54.9456C157.052 54.9461 157.052 54.9467 157.051 54.9472C156.76 55.2418 156.641 55.6507 156.704 56.0392L156.704 56.0418L157.15 58.7471L157.15 58.7482C157.167 58.8495 157.127 58.9281 157.071 58.9697C157.043 58.9913 157.019 58.9979 157.001 58.9993C156.983 59.0006 156.96 58.9977 156.931 58.9821L154.597 57.7046L154.597 57.7043C154.228 57.5026 153.779 57.4992 153.404 57.7053C153.403 57.7058 153.402 57.7064 153.401 57.7069L151.071 58.9822L151.071 58.9825C151.046 58.9963 151.025 59 151.009 59C150.989 59 150.962 58.9941 150.932 58.971C150.876 58.9283 150.836 58.8489 150.853 58.7491L150.853 58.748L151.298 56.0427L151.299 56.0401C151.363 55.6439 151.236 55.2397 150.955 54.952L150.955 54.952L150.952 54.9486L149.065 53.0335C149.065 53.0334 149.064 53.0333 149.064 53.0332C149.009 52.9767 148.983 52.8876 149.012 52.7933C149.027 52.7454 149.051 52.7142 149.072 52.6951C149.094 52.6762 149.118 52.6652 149.145 52.6611L149.145 52.661L151.754 52.2659L151.755 52.2658C152.181 52.2009 152.521 51.9252 152.693 51.5685L152.693 51.5685L152.695 51.5639L153.862 49.1024C153.862 49.1023 153.862 49.1022 153.862 49.1021C153.882 49.0592 153.908 49.0343 153.929 49.0206C153.95 49.0071 153.973 49 153.999 49C154.026 49 154.049 49.0072 154.071 49.0209C154.092 49.0349 154.118 49.0597 154.138 49.102C154.138 49.1021 154.138 49.1022 154.138 49.1024L155.303 51.5625C155.477 51.9314 155.825 52.202 156.244 52.2658L156.245 52.2659L158.854 52.661L158.855 52.6611C158.882 52.6652 158.906 52.6762 158.927 52.6951C158.949 52.7142 158.973 52.7454 158.988 52.7933C159.018 52.889 158.991 52.9773 158.936 53.0324Z" stroke="#EDCA71" stroke-width="2"/>
</svg>
