<svg width="380" height="180" viewBox="0 0 380 180" fill="none" xmlns="http://www.w3.org/2000/svg">
<rect width="380" height="180" rx="20" fill="white"/>
<rect x="20" y="20" width="40" height="40" rx="20" fill="#E78CFE"/>
<path d="M45.7555 42.8325H44.1794C42.9329 42.8325 41.9207 43.8496 41.9207 45.0982V46.6792C41.9207 47.9295 42.9346 48.9449 44.1794 48.9449H45.7555C47.0019 48.9449 48.0142 47.9278 48.0142 46.6792V45.0982C48.0158 43.8496 47.0019 42.8325 45.7555 42.8325ZM46.3427 46.6792C46.3427 47.0031 46.08 47.2666 45.7571 47.2666H44.181C43.8581 47.2666 43.5955 47.0031 43.5955 46.6792V45.0982C43.5955 44.7743 43.8581 44.5108 44.181 44.5108H45.7571C46.08 44.5108 46.3427 44.7743 46.3427 45.0982V46.6792Z" fill="#F2F2F2"/>
<path d="M52.4999 35.7367C52.4999 35.2551 52.351 34.7935 52.0682 34.4042L47.7482 28.4379C47.3232 27.8521 46.6406 27.5031 45.9195 27.5031H34.0838C33.3627 27.5031 32.6801 27.8521 32.2551 28.4379L27.9351 34.4059C27.6523 34.7952 27.5034 35.2551 27.5034 35.7367V36.9871C27.5034 37.0206 27.5101 37.0525 27.5135 37.0844C27.5101 37.118 27.5034 37.1499 27.5034 37.1818C27.5034 38.4556 28.1375 39.5817 29.1046 40.2631V50.2321C29.1046 51.4825 30.1185 52.4978 31.3633 52.4978H32.3438C33.5902 52.4978 34.6025 51.4808 34.6025 50.2321V44.9237C34.6025 44.5998 34.8652 44.3363 35.1881 44.3363H38.5795C38.9024 44.3363 39.1651 44.5998 39.1651 44.9237V50.2321C39.1651 51.4825 40.179 52.4978 41.4238 52.4978H48.6383C49.8848 52.4978 50.897 51.4808 50.897 50.2321V40.2631C51.8641 39.5817 52.4999 38.4556 52.4999 37.1818C52.4999 37.1482 52.4932 37.1163 52.4898 37.0844C52.4932 37.0525 52.4999 37.0206 52.4999 36.9871V35.7367ZM29.1765 35.7367C29.1765 35.6109 29.215 35.4917 29.2886 35.391L33.6103 29.423C33.7207 29.272 33.8981 29.1813 34.0838 29.1813H45.9195C46.1069 29.1813 46.2842 29.272 46.393 29.423L50.7147 35.391C50.7883 35.4917 50.8268 35.6109 50.8268 35.7367V36.9871C50.8268 37.0206 50.8335 37.0525 50.8368 37.0844C50.8335 37.1163 50.8268 37.1482 50.8268 37.1818C50.8268 38.3314 49.8948 39.2679 48.7471 39.2679C47.5993 39.2679 46.6674 38.3331 46.6674 37.1818C46.6674 36.7185 46.2926 36.3426 45.8308 36.3426C45.369 36.3426 44.9943 36.7185 44.9943 37.1818C44.9943 38.3314 44.0623 39.2679 42.9146 39.2679C41.7685 39.2679 40.8365 38.3331 40.8365 37.1818C40.8365 36.7185 40.4618 36.3426 40 36.3426C39.5382 36.3426 39.1634 36.7185 39.1634 37.1818C39.1634 38.3314 38.2315 39.2679 37.0837 39.2679C35.936 39.2679 35.004 38.3331 35.004 37.1818C35.004 36.7185 34.6293 36.3426 34.1675 36.3426C33.7057 36.3426 33.3309 36.7185 33.3309 37.1818C33.3309 38.3314 32.399 39.2679 31.2512 39.2679C30.1085 39.2679 29.1765 38.3331 29.1765 37.1818C29.1765 37.1482 29.1698 37.1163 29.1665 37.0844C29.1698 37.0525 29.1765 37.0206 29.1765 36.9871V35.7367ZM49.2256 50.2338C49.2256 50.5577 48.9629 50.8212 48.64 50.8212H41.4255C41.1026 50.8212 40.8399 50.5577 40.8399 50.2338V44.9254C40.8399 43.6751 39.826 42.6597 38.5812 42.6597H35.1897C33.9433 42.6597 32.931 43.6767 32.931 44.9254V50.2338C32.931 50.5577 32.6684 50.8212 32.3454 50.8212H31.365C31.0421 50.8212 30.7794 50.5577 30.7794 50.2338V40.9143C30.935 40.9344 31.0939 40.9462 31.2562 40.9462C32.4324 40.9462 33.4832 40.4007 34.1725 39.5481C34.8601 40.4007 35.9125 40.9462 37.0887 40.9462C38.2649 40.9462 39.3157 40.4007 40.005 39.5481C40.6927 40.4007 41.745 40.9462 42.9196 40.9462C44.0958 40.9462 45.1465 40.4007 45.8358 39.5481C46.5235 40.4007 47.5759 40.9462 48.7521 40.9462C48.9144 40.9462 49.0733 40.9344 49.2289 40.9143V50.2338H49.2256Z" fill="#F2F2F2"/>
<path d="M83.648 26.912H80.064V24.8H89.824V26.912H86.24V36H83.648V26.912ZM90.8551 27.392H93.3511V36H90.8551V27.392ZM92.1031 26.192C91.6445 26.192 91.2711 26.0587 90.9831 25.792C90.6951 25.5253 90.5511 25.1947 90.5511 24.8C90.5511 24.4053 90.6951 24.0747 90.9831 23.808C91.2711 23.5413 91.6445 23.408 92.1031 23.408C92.5618 23.408 92.9351 23.536 93.2231 23.792C93.5111 24.048 93.6551 24.368 93.6551 24.752C93.6551 25.168 93.5111 25.5147 93.2231 25.792C92.9351 26.0587 92.5618 26.192 92.1031 26.192ZM104.1 31.728C104.1 31.76 104.084 31.984 104.052 32.4H97.5396C97.657 32.9333 97.9343 33.3547 98.3716 33.664C98.809 33.9733 99.353 34.128 100.004 34.128C100.452 34.128 100.846 34.064 101.188 33.936C101.54 33.7973 101.865 33.584 102.164 33.296L103.492 34.736C102.681 35.664 101.497 36.128 99.9396 36.128C98.969 36.128 98.1103 35.9413 97.3636 35.568C96.617 35.184 96.041 34.656 95.6356 33.984C95.2303 33.312 95.0276 32.5493 95.0276 31.696C95.0276 30.8533 95.225 30.096 95.6196 29.424C96.025 28.7413 96.5743 28.2133 97.2676 27.84C97.9716 27.456 98.7556 27.264 99.6196 27.264C100.462 27.264 101.225 27.4453 101.908 27.808C102.59 28.1707 103.124 28.6933 103.508 29.376C103.902 30.048 104.1 30.832 104.1 31.728ZM99.6356 29.152C99.0703 29.152 98.5956 29.312 98.2116 29.632C97.8276 29.952 97.593 30.3893 97.5076 30.944H101.748C101.662 30.4 101.428 29.968 101.044 29.648C100.66 29.3173 100.19 29.152 99.6356 29.152ZM110.993 27.264C112.06 27.264 112.919 27.584 113.569 28.224C114.231 28.864 114.561 29.8133 114.561 31.072V36H112.065V31.456C112.065 30.7733 111.916 30.2667 111.617 29.936C111.319 29.5947 110.887 29.424 110.321 29.424C109.692 29.424 109.191 29.6213 108.817 30.016C108.444 30.4 108.257 30.976 108.257 31.744V36H105.761V27.392H108.145V28.4C108.476 28.0373 108.887 27.76 109.377 27.568C109.868 27.3653 110.407 27.264 110.993 27.264ZM125.686 24.128V36H123.302V35.008C122.683 35.7547 121.787 36.128 120.614 36.128C119.803 36.128 119.067 35.9467 118.406 35.584C117.755 35.2213 117.243 34.704 116.87 34.032C116.496 33.36 116.31 32.5813 116.31 31.696C116.31 30.8107 116.496 30.032 116.87 29.36C117.243 28.688 117.755 28.1707 118.406 27.808C119.067 27.4453 119.803 27.264 120.614 27.264C121.712 27.264 122.571 27.6107 123.19 28.304V24.128H125.686ZM121.046 34.08C121.675 34.08 122.198 33.8667 122.614 33.44C123.03 33.0027 123.238 32.4213 123.238 31.696C123.238 30.9707 123.03 30.3947 122.614 29.968C122.198 29.5307 121.675 29.312 121.046 29.312C120.406 29.312 119.878 29.5307 119.462 29.968C119.046 30.3947 118.838 30.9707 118.838 31.696C118.838 32.4213 119.046 33.0027 119.462 33.44C119.878 33.8667 120.406 34.08 121.046 34.08ZM127.996 27.392H130.492V36H127.996V27.392ZM129.244 26.192C128.785 26.192 128.412 26.0587 128.124 25.792C127.836 25.5253 127.692 25.1947 127.692 24.8C127.692 24.4053 127.836 24.0747 128.124 23.808C128.412 23.5413 128.785 23.408 129.244 23.408C129.702 23.408 130.076 23.536 130.364 23.792C130.652 24.048 130.796 24.368 130.796 24.752C130.796 25.168 130.652 25.5147 130.364 25.792C130.076 26.0587 129.702 26.192 129.244 26.192ZM138.36 35.584C138.115 35.7653 137.811 35.904 137.448 36C137.096 36.0853 136.723 36.128 136.328 36.128C135.304 36.128 134.51 35.8667 133.944 35.344C133.39 34.8213 133.112 34.0533 133.112 33.04V29.504H131.784V27.584H133.112V25.488H135.608V27.584H137.752V29.504H135.608V33.008C135.608 33.3707 135.699 33.6533 135.88 33.856C136.072 34.048 136.339 34.144 136.68 34.144C137.075 34.144 137.411 34.0373 137.688 33.824L138.36 35.584ZM143.233 27.264C144.567 27.264 145.591 27.584 146.305 28.224C147.02 28.8533 147.377 29.808 147.377 31.088V36H145.041V34.928C144.572 35.728 143.697 36.128 142.417 36.128C141.756 36.128 141.18 36.016 140.689 35.792C140.209 35.568 139.841 35.2587 139.585 34.864C139.329 34.4693 139.201 34.0213 139.201 33.52C139.201 32.72 139.5 32.0907 140.097 31.632C140.705 31.1733 141.639 30.944 142.897 30.944H144.881C144.881 30.4 144.716 29.984 144.385 29.696C144.055 29.3973 143.559 29.248 142.897 29.248C142.439 29.248 141.985 29.3227 141.537 29.472C141.1 29.6107 140.727 29.8027 140.417 30.048L139.521 28.304C139.991 27.9733 140.551 27.7173 141.201 27.536C141.863 27.3547 142.54 27.264 143.233 27.264ZM143.041 34.448C143.468 34.448 143.847 34.352 144.177 34.16C144.508 33.9573 144.743 33.664 144.881 33.28V32.4H143.169C142.145 32.4 141.633 32.736 141.633 33.408C141.633 33.728 141.756 33.984 142.001 34.176C142.257 34.3573 142.604 34.448 143.041 34.448ZM150.58 36.128C150.143 36.128 149.775 35.9787 149.476 35.68C149.178 35.3813 149.028 35.008 149.028 34.56C149.028 34.1013 149.178 33.7333 149.476 33.456C149.775 33.168 150.143 33.024 150.58 33.024C151.018 33.024 151.386 33.168 151.684 33.456C151.983 33.7333 152.132 34.1013 152.132 34.56C152.132 35.008 151.983 35.3813 151.684 35.68C151.386 35.9787 151.018 36.128 150.58 36.128ZM157.875 36.128C156.957 36.128 156.131 35.9413 155.395 35.568C154.669 35.184 154.099 34.656 153.683 33.984C153.277 33.312 153.075 32.5493 153.075 31.696C153.075 30.8427 153.277 30.08 153.683 29.408C154.099 28.736 154.669 28.2133 155.395 27.84C156.131 27.456 156.957 27.264 157.875 27.264C158.781 27.264 159.571 27.456 160.243 27.84C160.925 28.2133 161.421 28.752 161.731 29.456L159.795 30.496C159.347 29.7067 158.701 29.312 157.859 29.312C157.208 29.312 156.669 29.5253 156.243 29.952C155.816 30.3787 155.603 30.96 155.603 31.696C155.603 32.432 155.816 33.0133 156.243 33.44C156.669 33.8667 157.208 34.08 157.859 34.08C158.712 34.08 159.357 33.6853 159.795 32.896L161.731 33.952C161.421 34.6347 160.925 35.168 160.243 35.552C159.571 35.936 158.781 36.128 157.875 36.128ZM167.154 36.128C166.248 36.128 165.432 35.9413 164.706 35.568C163.992 35.184 163.432 34.656 163.026 33.984C162.621 33.312 162.418 32.5493 162.418 31.696C162.418 30.8427 162.621 30.08 163.026 29.408C163.432 28.736 163.992 28.2133 164.706 27.84C165.432 27.456 166.248 27.264 167.154 27.264C168.061 27.264 168.872 27.456 169.586 27.84C170.301 28.2133 170.861 28.736 171.266 29.408C171.672 30.08 171.874 30.8427 171.874 31.696C171.874 32.5493 171.672 33.312 171.266 33.984C170.861 34.656 170.301 35.184 169.586 35.568C168.872 35.9413 168.061 36.128 167.154 36.128ZM167.154 34.08C167.794 34.08 168.317 33.8667 168.722 33.44C169.138 33.0027 169.346 32.4213 169.346 31.696C169.346 30.9707 169.138 30.3947 168.722 29.968C168.317 29.5307 167.794 29.312 167.154 29.312C166.514 29.312 165.986 29.5307 165.57 29.968C165.154 30.3947 164.946 30.9707 164.946 31.696C164.946 32.4213 165.154 33.0027 165.57 33.44C165.986 33.8667 166.514 34.08 167.154 34.08Z" fill="#00635D"/>
<path d="M20.032 96L25.152 84.8H26.32L31.44 96H30.192L25.488 85.488H25.968L21.264 96H20.032ZM22.048 93.008L22.4 92.048H28.912L29.264 93.008H22.048ZM37.3408 87.52C38.0234 87.52 38.6208 87.6533 39.1328 87.92C39.6554 88.176 40.0608 88.5707 40.3488 89.104C40.6474 89.6373 40.7968 90.3093 40.7968 91.12V96H39.6608V91.232C39.6608 90.3467 39.4368 89.68 38.9888 89.232C38.5514 88.7733 37.9328 88.544 37.1328 88.544C36.5354 88.544 36.0128 88.6667 35.5648 88.912C35.1274 89.1467 34.7861 89.4933 34.5408 89.952C34.3061 90.4 34.1888 90.944 34.1888 91.584V96H33.0528V87.6H34.1408V89.904L33.9648 89.472C34.2314 88.864 34.6581 88.3893 35.2448 88.048C35.8314 87.696 36.5301 87.52 37.3408 87.52ZM46.5213 96.08C45.7319 96.08 45.1239 95.8667 44.6973 95.44C44.2706 95.0133 44.0573 94.4107 44.0573 93.632V85.744H45.1933V93.568C45.1933 94.0587 45.3159 94.4373 45.5613 94.704C45.8173 94.9707 46.1799 95.104 46.6493 95.104C47.1506 95.104 47.5666 94.96 47.8973 94.672L48.2973 95.488C48.0733 95.6907 47.8013 95.84 47.4813 95.936C47.1719 96.032 46.8519 96.08 46.5213 96.08ZM42.5533 88.544V87.6H47.7533V88.544H42.5533ZM50.3653 96V87.6H51.5013V96H50.3653ZM50.9413 85.744C50.7066 85.744 50.5093 85.664 50.3493 85.504C50.1893 85.344 50.1093 85.152 50.1093 84.928C50.1093 84.704 50.1893 84.5173 50.3493 84.368C50.5093 84.208 50.7066 84.128 50.9413 84.128C51.1759 84.128 51.3733 84.2027 51.5333 84.352C51.6933 84.5013 51.7733 84.688 51.7733 84.912C51.7733 85.1467 51.6933 85.344 51.5333 85.504C51.3839 85.664 51.1866 85.744 50.9413 85.744ZM58.0061 96.08C57.2061 96.08 56.4861 95.8987 55.8461 95.536C55.2168 95.1733 54.7208 94.672 54.3581 94.032C53.9955 93.392 53.8141 92.6453 53.8141 91.792C53.8141 90.9493 53.9955 90.208 54.3581 89.568C54.7208 88.9173 55.2168 88.416 55.8461 88.064C56.4861 87.7013 57.2061 87.52 58.0061 87.52C58.7528 87.52 59.4141 87.6853 59.9901 88.016C60.5768 88.3467 61.0408 88.832 61.3821 89.472C61.7235 90.1013 61.8941 90.8747 61.8941 91.792C61.8941 92.7093 61.7181 93.488 61.3661 94.128C61.0248 94.7573 60.5608 95.2427 59.9741 95.584C59.3981 95.9147 58.7421 96.08 58.0061 96.08ZM58.0861 95.072C58.6835 95.072 59.2168 94.9387 59.6861 94.672C60.1661 94.3947 60.5395 94.0107 60.8061 93.52C61.0835 93.0187 61.2221 92.4427 61.2221 91.792C61.2221 91.1413 61.0835 90.5707 60.8061 90.08C60.5395 89.5893 60.1661 89.2053 59.6861 88.928C59.2168 88.6507 58.6835 88.512 58.0861 88.512C57.4995 88.512 56.9715 88.6507 56.5021 88.928C56.0328 89.2053 55.6595 89.5893 55.3821 90.08C55.1048 90.5707 54.9661 91.1413 54.9661 91.792C54.9661 92.4427 55.1048 93.0187 55.3821 93.52C55.6595 94.0107 56.0328 94.3947 56.5021 94.672C56.9715 94.9387 57.4995 95.072 58.0861 95.072ZM61.2061 99.104V93.504L61.3661 91.808L61.2541 90.128V87.6H62.3421V99.104H61.2061ZM68.9779 96.08C68.2632 96.08 67.6392 95.9467 67.1059 95.68C66.5725 95.4133 66.1565 95.0133 65.8579 94.48C65.5699 93.9467 65.4259 93.28 65.4259 92.48V87.6H66.5619V92.352C66.5619 93.248 66.7805 93.9253 67.2179 94.384C67.6659 94.832 68.2899 95.056 69.0899 95.056C69.6765 95.056 70.1832 94.9387 70.6099 94.704C71.0472 94.4587 71.3779 94.1067 71.6019 93.648C71.8365 93.1893 71.9539 92.64 71.9539 92V87.6H73.0899V96H72.0019V93.696L72.1779 94.112C71.9112 94.7307 71.4952 95.216 70.9299 95.568C70.3752 95.9093 69.7245 96.08 68.9779 96.08ZM76.2559 96V87.6H77.3919V96H76.2559ZM76.8319 85.744C76.5972 85.744 76.3999 85.664 76.2399 85.504C76.0799 85.344 75.9999 85.152 75.9999 84.928C75.9999 84.704 76.0799 84.5173 76.2399 84.368C76.3999 84.208 76.5972 84.128 76.8319 84.128C77.0665 84.128 77.2639 84.2027 77.4239 84.352C77.5839 84.5013 77.6639 84.688 77.6639 84.912C77.6639 85.1467 77.5839 85.344 77.4239 85.504C77.2745 85.664 77.0772 85.744 76.8319 85.744ZM83.2088 96.08C82.4194 96.08 81.8114 95.8667 81.3848 95.44C80.9581 95.0133 80.7448 94.4107 80.7448 93.632V85.744H81.8808V93.568C81.8808 94.0587 82.0034 94.4373 82.2488 94.704C82.5048 94.9707 82.8674 95.104 83.3368 95.104C83.8381 95.104 84.2541 94.96 84.5848 94.672L84.9848 95.488C84.7608 95.6907 84.4888 95.84 84.1688 95.936C83.8594 96.032 83.5394 96.08 83.2088 96.08ZM79.2408 88.544V87.6H84.4408V88.544H79.2408ZM86.9605 99.184C86.5658 99.184 86.1872 99.12 85.8245 98.992C85.4725 98.864 85.1685 98.672 84.9125 98.416L85.4405 97.568C85.6538 97.7707 85.8832 97.9253 86.1285 98.032C86.3845 98.1493 86.6672 98.208 86.9765 98.208C87.3498 98.208 87.6698 98.1013 87.9365 97.888C88.2138 97.6853 88.4752 97.3227 88.7205 96.8L89.2645 95.568L89.3925 95.392L92.8485 87.6H93.9685L89.7605 97.008C89.5258 97.552 89.2645 97.984 88.9765 98.304C88.6992 98.624 88.3952 98.848 88.0645 98.976C87.7338 99.1147 87.3658 99.184 86.9605 99.184ZM89.2005 96.24L85.3285 87.6H86.5125L89.9365 95.312L89.2005 96.24Z" fill="#828282"/>
<path d="M163.11 60V54.09C163.11 53.6233 163.247 53.2467 163.52 52.96C163.793 52.6733 164.187 52.53 164.7 52.53C164.9 52.53 165.093 52.5567 165.28 52.61C165.467 52.6633 165.623 52.7467 165.75 52.86L165.51 53.39C165.41 53.3033 165.293 53.24 165.16 53.2C165.027 53.1533 164.883 53.13 164.73 53.13C164.43 53.13 164.2 53.2133 164.04 53.38C163.88 53.5467 163.8 53.7933 163.8 54.12V54.92L163.82 55.25V60H163.11ZM162.17 55.34V54.75H165.42V55.34H162.17ZM166.379 60V54.75H167.059V56.18L166.989 55.93C167.135 55.53 167.382 55.2267 167.729 55.02C168.075 54.8067 168.505 54.7 169.019 54.7V55.39C168.992 55.39 168.965 55.39 168.939 55.39C168.912 55.3833 168.885 55.38 168.859 55.38C168.305 55.38 167.872 55.55 167.559 55.89C167.245 56.2233 167.089 56.7 167.089 57.32V60H166.379ZM172.405 60.05C171.899 60.05 171.442 59.9367 171.035 59.71C170.635 59.4767 170.319 59.16 170.085 58.76C169.852 58.3533 169.735 57.89 169.735 57.37C169.735 56.8433 169.852 56.38 170.085 55.98C170.319 55.58 170.635 55.2667 171.035 55.04C171.435 54.8133 171.892 54.7 172.405 54.7C172.925 54.7 173.385 54.8133 173.785 55.04C174.192 55.2667 174.509 55.58 174.735 55.98C174.969 56.38 175.085 56.8433 175.085 57.37C175.085 57.89 174.969 58.3533 174.735 58.76C174.509 59.16 174.192 59.4767 173.785 59.71C173.379 59.9367 172.919 60.05 172.405 60.05ZM172.405 59.42C172.785 59.42 173.122 59.3367 173.415 59.17C173.709 58.9967 173.939 58.7567 174.105 58.45C174.279 58.1367 174.365 57.7767 174.365 57.37C174.365 56.9567 174.279 56.5967 174.105 56.29C173.939 55.9833 173.709 55.7467 173.415 55.58C173.122 55.4067 172.789 55.32 172.415 55.32C172.042 55.32 171.709 55.4067 171.415 55.58C171.122 55.7467 170.889 55.9833 170.715 56.29C170.542 56.5967 170.455 56.9567 170.455 57.37C170.455 57.7767 170.542 58.1367 170.715 58.45C170.889 58.7567 171.122 58.9967 171.415 59.17C171.709 59.3367 172.039 59.42 172.405 59.42ZM183.095 54.7C183.522 54.7 183.892 54.7833 184.205 54.95C184.525 55.11 184.772 55.3567 184.945 55.69C185.125 56.0233 185.215 56.4433 185.215 56.95V60H184.505V57.02C184.505 56.4667 184.372 56.05 184.105 55.77C183.845 55.4833 183.475 55.34 182.995 55.34C182.635 55.34 182.322 55.4167 182.055 55.57C181.795 55.7167 181.592 55.9333 181.445 56.22C181.305 56.5 181.235 56.84 181.235 57.24V60H180.525V57.02C180.525 56.4667 180.392 56.05 180.125 55.77C179.858 55.4833 179.485 55.34 179.005 55.34C178.652 55.34 178.342 55.4167 178.075 55.57C177.808 55.7167 177.602 55.9333 177.455 56.22C177.315 56.5 177.245 56.84 177.245 57.24V60H176.535V54.75H177.215V56.17L177.105 55.92C177.265 55.54 177.522 55.2433 177.875 55.03C178.235 54.81 178.658 54.7 179.145 54.7C179.658 54.7 180.095 54.83 180.455 55.09C180.815 55.3433 181.048 55.7267 181.155 56.24L180.875 56.13C181.028 55.7033 181.298 55.36 181.685 55.1C182.078 54.8333 182.548 54.7 183.095 54.7ZM191.378 60.06C190.871 60.06 190.391 59.98 189.938 59.82C189.491 59.6533 189.131 59.4333 188.858 59.16L189.208 58.59C189.434 58.8233 189.738 59.0167 190.118 59.17C190.504 59.3233 190.924 59.4 191.378 59.4C191.958 59.4 192.401 59.2733 192.708 59.02C193.021 58.7667 193.178 58.4267 193.178 58C193.178 57.5733 193.024 57.2333 192.718 56.98C192.418 56.7267 191.941 56.6 191.288 56.6H190.788V56.07L192.948 53.36L193.048 53.64H189.148V53H193.648V53.51L191.488 56.22L191.138 55.99H191.408C192.248 55.99 192.874 56.1767 193.288 56.55C193.708 56.9233 193.918 57.4033 193.918 57.99C193.918 58.3833 193.824 58.7367 193.638 59.05C193.451 59.3633 193.168 59.61 192.788 59.79C192.414 59.97 191.944 60.06 191.378 60.06ZM194.812 58.16V57.64L198.522 53H199.322L195.642 57.64L195.252 57.52H200.882V58.16H194.812ZM198.762 60V58.16L198.782 57.52V55.9H199.482V60H198.762ZM204.301 60.06C203.741 60.06 203.258 59.98 202.851 59.82C202.451 59.66 202.141 59.43 201.921 59.13C201.708 58.8233 201.601 58.4633 201.601 58.05C201.601 57.65 201.704 57.31 201.911 57.03C202.124 56.7433 202.431 56.5233 202.831 56.37C203.238 56.2167 203.728 56.14 204.301 56.14C204.868 56.14 205.354 56.2167 205.761 56.37C206.168 56.5233 206.478 56.7433 206.691 57.03C206.911 57.31 207.021 57.65 207.021 58.05C207.021 58.4633 206.911 58.8233 206.691 59.13C206.471 59.43 206.158 59.66 205.751 59.82C205.344 59.98 204.861 60.06 204.301 60.06ZM204.301 59.45C204.921 59.45 205.404 59.3233 205.751 59.07C206.104 58.8167 206.281 58.4733 206.281 58.04C206.281 57.6067 206.104 57.2667 205.751 57.02C205.404 56.7667 204.921 56.64 204.301 56.64C203.681 56.64 203.198 56.7667 202.851 57.02C202.504 57.2667 202.331 57.6067 202.331 58.04C202.331 58.4733 202.504 58.8167 202.851 59.07C203.198 59.3233 203.681 59.45 204.301 59.45ZM204.301 56.55C203.781 56.55 203.338 56.48 202.971 56.34C202.611 56.2 202.334 56 202.141 55.74C201.948 55.4733 201.851 55.1567 201.851 54.79C201.851 54.4033 201.951 54.0733 202.151 53.8C202.358 53.52 202.644 53.3067 203.011 53.16C203.378 53.0133 203.808 52.94 204.301 52.94C204.794 52.94 205.224 53.0133 205.591 53.16C205.964 53.3067 206.254 53.52 206.461 53.8C206.668 54.0733 206.771 54.4033 206.771 54.79C206.771 55.1567 206.674 55.4733 206.481 55.74C206.288 56 206.004 56.2 205.631 56.34C205.264 56.48 204.821 56.55 204.301 56.55ZM204.301 56.07C204.848 56.07 205.274 55.9567 205.581 55.73C205.888 55.5033 206.041 55.2 206.041 54.82C206.041 54.42 205.881 54.11 205.561 53.89C205.248 53.6633 204.828 53.55 204.301 53.55C203.774 53.55 203.354 53.6633 203.041 53.89C202.728 54.11 202.571 54.4167 202.571 54.81C202.571 55.1967 202.721 55.5033 203.021 55.73C203.328 55.9567 203.754 56.07 204.301 56.07ZM210.198 52.94C210.818 52.94 211.341 53.08 211.768 53.36C212.195 53.6333 212.518 54.03 212.738 54.55C212.958 55.07 213.068 55.7 213.068 56.44C213.068 57.2267 212.931 57.89 212.658 58.43C212.391 58.97 212.018 59.3767 211.538 59.65C211.058 59.9233 210.501 60.06 209.868 60.06C209.555 60.06 209.255 60.03 208.968 59.97C208.688 59.91 208.435 59.8133 208.208 59.68L208.498 59.1C208.678 59.22 208.885 59.3067 209.118 59.36C209.358 59.4067 209.605 59.43 209.858 59.43C210.611 59.43 211.211 59.19 211.658 58.71C212.111 58.23 212.338 57.5133 212.338 56.56C212.338 56.4067 212.328 56.2233 212.308 56.01C212.295 55.7967 212.258 55.5833 212.198 55.37L212.448 55.56C212.381 55.9067 212.238 56.2033 212.018 56.45C211.805 56.69 211.538 56.8733 211.218 57C210.905 57.1267 210.555 57.19 210.168 57.19C209.708 57.19 209.298 57.1033 208.938 56.93C208.585 56.7567 208.308 56.5133 208.108 56.2C207.908 55.8867 207.808 55.5167 207.808 55.09C207.808 54.65 207.911 54.27 208.118 53.95C208.325 53.63 208.608 53.3833 208.968 53.21C209.335 53.03 209.745 52.94 210.198 52.94ZM210.228 53.55C209.895 53.55 209.598 53.6133 209.338 53.74C209.085 53.86 208.885 54.0333 208.738 54.26C208.591 54.4867 208.518 54.7567 208.518 55.07C208.518 55.53 208.675 55.8967 208.988 56.17C209.308 56.4433 209.738 56.58 210.278 56.58C210.638 56.58 210.951 56.5133 211.218 56.38C211.491 56.2467 211.701 56.0633 211.848 55.83C212.001 55.5967 212.078 55.3367 212.078 55.05C212.078 54.79 212.008 54.5467 211.868 54.32C211.728 54.0933 211.521 53.91 211.248 53.77C210.975 53.6233 210.635 53.55 210.228 53.55ZM213.982 60V59.49L216.892 56.64C217.158 56.38 217.358 56.1533 217.492 55.96C217.625 55.76 217.715 55.5733 217.762 55.4C217.808 55.2267 217.832 55.0633 217.832 54.91C217.832 54.5033 217.692 54.1833 217.412 53.95C217.138 53.7167 216.732 53.6 216.192 53.6C215.778 53.6 215.412 53.6633 215.092 53.79C214.778 53.9167 214.508 54.1133 214.282 54.38L213.772 53.94C214.045 53.62 214.395 53.3733 214.822 53.2C215.248 53.0267 215.725 52.94 216.252 52.94C216.725 52.94 217.135 53.0167 217.482 53.17C217.828 53.3167 218.095 53.5333 218.282 53.82C218.475 54.1067 218.572 54.4433 218.572 54.83C218.572 55.0567 218.538 55.28 218.472 55.5C218.412 55.72 218.298 55.9533 218.132 56.2C217.972 56.44 217.735 56.7133 217.422 57.02L214.752 59.64L214.552 59.36H218.892V60H213.982ZM219.451 58.16V57.64L223.161 53H223.961L220.281 57.64L219.891 57.52H225.521V58.16H219.451ZM223.401 60V58.16L223.421 57.52V55.9H224.121V60H223.401ZM229.052 60.06C228.432 60.06 227.909 59.9233 227.482 59.65C227.055 59.37 226.732 58.97 226.512 58.45C226.292 57.9233 226.182 57.2933 226.182 56.56C226.182 55.7667 226.315 55.1033 226.582 54.57C226.855 54.03 227.232 53.6233 227.712 53.35C228.192 53.0767 228.749 52.94 229.382 52.94C229.695 52.94 229.995 52.97 230.282 53.03C230.569 53.09 230.822 53.1867 231.042 53.32L230.752 53.9C230.572 53.78 230.365 53.6967 230.132 53.65C229.899 53.5967 229.652 53.57 229.392 53.57C228.639 53.57 228.035 53.81 227.582 54.29C227.135 54.77 226.912 55.4867 226.912 56.44C226.912 56.5867 226.919 56.77 226.932 56.99C226.952 57.2033 226.992 57.4167 227.052 57.63L226.802 57.44C226.875 57.0933 227.019 56.8 227.232 56.56C227.445 56.3133 227.712 56.1267 228.032 56C228.352 55.8733 228.702 55.81 229.082 55.81C229.549 55.81 229.959 55.8967 230.312 56.07C230.665 56.2433 230.942 56.4867 231.142 56.8C231.342 57.1133 231.442 57.4833 231.442 57.91C231.442 58.3433 231.339 58.7233 231.132 59.05C230.925 59.37 230.639 59.62 230.272 59.8C229.912 59.9733 229.505 60.06 229.052 60.06ZM229.022 59.45C229.355 59.45 229.649 59.39 229.902 59.27C230.162 59.1433 230.365 58.9667 230.512 58.74C230.659 58.5067 230.732 58.2367 230.732 57.93C230.732 57.47 230.572 57.1033 230.252 56.83C229.939 56.5567 229.512 56.42 228.972 56.42C228.612 56.42 228.299 56.4867 228.032 56.62C227.765 56.7533 227.555 56.9367 227.402 57.17C227.249 57.3967 227.172 57.6567 227.172 57.95C227.172 58.2033 227.242 58.4467 227.382 58.68C227.522 58.9067 227.729 59.0933 228.002 59.24C228.282 59.38 228.622 59.45 229.022 59.45ZM237.503 60.05C236.996 60.05 236.54 59.9367 236.133 59.71C235.733 59.4767 235.416 59.16 235.183 58.76C234.95 58.3533 234.833 57.89 234.833 57.37C234.833 56.8433 234.95 56.38 235.183 55.98C235.416 55.58 235.733 55.2667 236.133 55.04C236.533 54.8133 236.99 54.7 237.503 54.7C238.023 54.7 238.483 54.8133 238.883 55.04C239.29 55.2667 239.606 55.58 239.833 55.98C240.066 56.38 240.183 56.8433 240.183 57.37C240.183 57.89 240.066 58.3533 239.833 58.76C239.606 59.16 239.29 59.4767 238.883 59.71C238.476 59.9367 238.016 60.05 237.503 60.05ZM237.503 59.42C237.883 59.42 238.22 59.3367 238.513 59.17C238.806 58.9967 239.036 58.7567 239.203 58.45C239.376 58.1367 239.463 57.7767 239.463 57.37C239.463 56.9567 239.376 56.5967 239.203 56.29C239.036 55.9833 238.806 55.7467 238.513 55.58C238.22 55.4067 237.886 55.32 237.513 55.32C237.14 55.32 236.806 55.4067 236.513 55.58C236.22 55.7467 235.986 55.9833 235.813 56.29C235.64 56.5967 235.553 56.9567 235.553 57.37C235.553 57.7767 235.64 58.1367 235.813 58.45C235.986 58.7567 236.22 58.9967 236.513 59.17C236.806 59.3367 237.136 59.42 237.503 59.42ZM244.343 60.05C243.889 60.05 243.479 59.9467 243.113 59.74C242.746 59.5267 242.453 59.2233 242.233 58.83C242.019 58.43 241.913 57.9433 241.913 57.37C241.913 56.7967 242.019 56.3133 242.233 55.92C242.446 55.52 242.736 55.2167 243.103 55.01C243.469 54.8033 243.883 54.7 244.343 54.7C244.843 54.7 245.289 54.8133 245.683 55.04C246.083 55.26 246.396 55.5733 246.623 55.98C246.849 56.38 246.963 56.8433 246.963 57.37C246.963 57.9033 246.849 58.37 246.623 58.77C246.396 59.17 246.083 59.4833 245.683 59.71C245.289 59.9367 244.843 60.05 244.343 60.05ZM241.633 61.94V54.75H242.313V56.33L242.243 57.38L242.343 58.44V61.94H241.633ZM244.293 59.42C244.666 59.42 244.999 59.3367 245.293 59.17C245.586 58.9967 245.819 58.7567 245.993 58.45C246.166 58.1367 246.253 57.7767 246.253 57.37C246.253 56.9633 246.166 56.6067 245.993 56.3C245.819 55.9933 245.586 55.7533 245.293 55.58C244.999 55.4067 244.666 55.32 244.293 55.32C243.919 55.32 243.583 55.4067 243.283 55.58C242.989 55.7533 242.756 55.9933 242.583 56.3C242.416 56.6067 242.333 56.9633 242.333 57.37C242.333 57.7767 242.416 58.1367 242.583 58.45C242.756 58.7567 242.989 58.9967 243.283 59.17C243.583 59.3367 243.919 59.42 244.293 59.42ZM248.41 60V54.75H249.12V60H248.41ZM248.77 53.59C248.623 53.59 248.5 53.54 248.4 53.44C248.3 53.34 248.25 53.22 248.25 53.08C248.25 52.94 248.3 52.8233 248.4 52.73C248.5 52.63 248.623 52.58 248.77 52.58C248.917 52.58 249.04 52.6267 249.14 52.72C249.24 52.8133 249.29 52.93 249.29 53.07C249.29 53.2167 249.24 53.34 249.14 53.44C249.047 53.54 248.923 53.59 248.77 53.59ZM253.775 54.7C254.202 54.7 254.575 54.7833 254.895 54.95C255.222 55.11 255.475 55.3567 255.655 55.69C255.842 56.0233 255.935 56.4433 255.935 56.95V60H255.225V57.02C255.225 56.4667 255.085 56.05 254.805 55.77C254.532 55.4833 254.145 55.34 253.645 55.34C253.272 55.34 252.945 55.4167 252.665 55.57C252.392 55.7167 252.179 55.9333 252.025 56.22C251.879 56.5 251.805 56.84 251.805 57.24V60H251.095V54.75H251.775V56.19L251.665 55.92C251.832 55.54 252.099 55.2433 252.465 55.03C252.832 54.81 253.269 54.7 253.775 54.7ZM257.853 60V54.75H258.563V60H257.853ZM258.213 53.59C258.067 53.59 257.943 53.54 257.843 53.44C257.743 53.34 257.693 53.22 257.693 53.08C257.693 52.94 257.743 52.8233 257.843 52.73C257.943 52.63 258.067 52.58 258.213 52.58C258.36 52.58 258.483 52.6267 258.583 52.72C258.683 52.8133 258.733 52.93 258.733 53.07C258.733 53.2167 258.683 53.34 258.583 53.44C258.49 53.54 258.367 53.59 258.213 53.59ZM262.679 60.05C262.172 60.05 261.715 59.9367 261.309 59.71C260.909 59.4767 260.592 59.16 260.359 58.76C260.125 58.3533 260.009 57.89 260.009 57.37C260.009 56.8433 260.125 56.38 260.359 55.98C260.592 55.58 260.909 55.2667 261.309 55.04C261.709 54.8133 262.165 54.7 262.679 54.7C263.199 54.7 263.659 54.8133 264.059 55.04C264.465 55.2667 264.782 55.58 265.009 55.98C265.242 56.38 265.359 56.8433 265.359 57.37C265.359 57.89 265.242 58.3533 265.009 58.76C264.782 59.16 264.465 59.4767 264.059 59.71C263.652 59.9367 263.192 60.05 262.679 60.05ZM262.679 59.42C263.059 59.42 263.395 59.3367 263.689 59.17C263.982 58.9967 264.212 58.7567 264.379 58.45C264.552 58.1367 264.639 57.7767 264.639 57.37C264.639 56.9567 264.552 56.5967 264.379 56.29C264.212 55.9833 263.982 55.7467 263.689 55.58C263.395 55.4067 263.062 55.32 262.689 55.32C262.315 55.32 261.982 55.4067 261.689 55.58C261.395 55.7467 261.162 55.9833 260.989 56.29C260.815 56.5967 260.729 56.9567 260.729 57.37C260.729 57.7767 260.815 58.1367 260.989 58.45C261.162 58.7567 261.395 58.9967 261.689 59.17C261.982 59.3367 262.312 59.42 262.679 59.42ZM269.488 54.7C269.915 54.7 270.288 54.7833 270.608 54.95C270.935 55.11 271.188 55.3567 271.368 55.69C271.555 56.0233 271.648 56.4433 271.648 56.95V60H270.938V57.02C270.938 56.4667 270.798 56.05 270.518 55.77C270.245 55.4833 269.858 55.34 269.358 55.34C268.985 55.34 268.658 55.4167 268.378 55.57C268.105 55.7167 267.892 55.9333 267.738 56.22C267.592 56.5 267.518 56.84 267.518 57.24V60H266.808V54.75H267.488V56.19L267.378 55.92C267.545 55.54 267.812 55.2433 268.178 55.03C268.545 54.81 268.982 54.7 269.488 54.7ZM274.976 60.05C274.543 60.05 274.133 59.99 273.746 59.87C273.36 59.7433 273.056 59.5867 272.836 59.4L273.156 58.84C273.37 59 273.643 59.14 273.976 59.26C274.31 59.3733 274.66 59.43 275.026 59.43C275.526 59.43 275.886 59.3533 276.106 59.2C276.326 59.04 276.436 58.83 276.436 58.57C276.436 58.3767 276.373 58.2267 276.246 58.12C276.126 58.0067 275.966 57.9233 275.766 57.87C275.566 57.81 275.343 57.76 275.096 57.72C274.85 57.68 274.603 57.6333 274.356 57.58C274.116 57.5267 273.896 57.45 273.696 57.35C273.496 57.2433 273.333 57.1 273.206 56.92C273.086 56.74 273.026 56.5 273.026 56.2C273.026 55.9133 273.106 55.6567 273.266 55.43C273.426 55.2033 273.66 55.0267 273.966 54.9C274.28 54.7667 274.66 54.7 275.106 54.7C275.446 54.7 275.786 54.7467 276.126 54.84C276.466 54.9267 276.746 55.0433 276.966 55.19L276.656 55.76C276.423 55.6 276.173 55.4867 275.906 55.42C275.64 55.3467 275.373 55.31 275.106 55.31C274.633 55.31 274.283 55.3933 274.056 55.56C273.836 55.72 273.726 55.9267 273.726 56.18C273.726 56.38 273.786 56.5367 273.906 56.65C274.033 56.7633 274.196 56.8533 274.396 56.92C274.603 56.98 274.826 57.03 275.066 57.07C275.313 57.11 275.556 57.16 275.796 57.22C276.043 57.2733 276.266 57.35 276.466 57.45C276.673 57.5433 276.836 57.68 276.956 57.86C277.083 58.0333 277.146 58.2633 277.146 58.55C277.146 58.8567 277.06 59.1233 276.886 59.35C276.72 59.57 276.473 59.7433 276.146 59.87C275.826 59.99 275.436 60.05 274.976 60.05Z" fill="#828282"/>
<path d="M200.032 96L205.152 84.8H206.32L211.44 96H210.192L205.488 85.488H205.968L201.264 96H200.032ZM202.048 93.008L202.4 92.048H208.912L209.264 93.008H202.048ZM215.231 96.08C214.537 96.08 213.881 95.984 213.263 95.792C212.644 95.5893 212.159 95.3387 211.807 95.04L212.319 94.144C212.66 94.4 213.097 94.624 213.631 94.816C214.164 94.9973 214.724 95.088 215.311 95.088C216.111 95.088 216.687 94.9653 217.039 94.72C217.391 94.464 217.567 94.128 217.567 93.712C217.567 93.4027 217.465 93.1627 217.263 92.992C217.071 92.8107 216.815 92.6773 216.495 92.592C216.175 92.496 215.817 92.416 215.423 92.352C215.028 92.288 214.633 92.2133 214.239 92.128C213.855 92.0427 213.503 91.92 213.183 91.76C212.863 91.5893 212.601 91.36 212.399 91.072C212.207 90.784 212.111 90.4 212.111 89.92C212.111 89.4613 212.239 89.0507 212.495 88.688C212.751 88.3253 213.124 88.0427 213.615 87.84C214.116 87.6267 214.724 87.52 215.439 87.52C215.983 87.52 216.527 87.5947 217.071 87.744C217.615 87.8827 218.063 88.0693 218.415 88.304L217.919 89.216C217.545 88.96 217.145 88.7787 216.719 88.672C216.292 88.5547 215.865 88.496 215.439 88.496C214.681 88.496 214.121 88.6293 213.759 88.896C213.407 89.152 213.231 89.4827 213.231 89.888C213.231 90.208 213.327 90.4587 213.519 90.64C213.721 90.8213 213.983 90.9653 214.303 91.072C214.633 91.168 214.991 91.248 215.375 91.312C215.769 91.376 216.159 91.456 216.543 91.552C216.937 91.6373 217.295 91.76 217.615 91.92C217.945 92.0693 218.207 92.288 218.399 92.576C218.601 92.8533 218.703 93.2213 218.703 93.68C218.703 94.1707 218.564 94.5973 218.287 94.96C218.02 95.312 217.625 95.5893 217.103 95.792C216.591 95.984 215.967 96.08 215.231 96.08ZM223.043 96.08C222.35 96.08 221.694 95.984 221.075 95.792C220.456 95.5893 219.971 95.3387 219.619 95.04L220.131 94.144C220.472 94.4 220.91 94.624 221.443 94.816C221.976 94.9973 222.536 95.088 223.123 95.088C223.923 95.088 224.499 94.9653 224.851 94.72C225.203 94.464 225.379 94.128 225.379 93.712C225.379 93.4027 225.278 93.1627 225.075 92.992C224.883 92.8107 224.627 92.6773 224.307 92.592C223.987 92.496 223.63 92.416 223.235 92.352C222.84 92.288 222.446 92.2133 222.051 92.128C221.667 92.0427 221.315 91.92 220.995 91.76C220.675 91.5893 220.414 91.36 220.211 91.072C220.019 90.784 219.923 90.4 219.923 89.92C219.923 89.4613 220.051 89.0507 220.307 88.688C220.563 88.3253 220.936 88.0427 221.427 87.84C221.928 87.6267 222.536 87.52 223.251 87.52C223.795 87.52 224.339 87.5947 224.883 87.744C225.427 87.8827 225.875 88.0693 226.227 88.304L225.731 89.216C225.358 88.96 224.958 88.7787 224.531 88.672C224.104 88.5547 223.678 88.496 223.251 88.496C222.494 88.496 221.934 88.6293 221.571 88.896C221.219 89.152 221.043 89.4827 221.043 89.888C221.043 90.208 221.139 90.4587 221.331 90.64C221.534 90.8213 221.795 90.9653 222.115 91.072C222.446 91.168 222.803 91.248 223.187 91.312C223.582 91.376 223.971 91.456 224.355 91.552C224.75 91.6373 225.107 91.76 225.427 91.92C225.758 92.0693 226.019 92.288 226.211 92.576C226.414 92.8533 226.515 93.2213 226.515 93.68C226.515 94.1707 226.376 94.5973 226.099 94.96C225.832 95.312 225.438 95.5893 224.915 95.792C224.403 95.984 223.779 96.08 223.043 96.08ZM232.072 96.08C231.357 96.08 230.733 95.9467 230.2 95.68C229.666 95.4133 229.25 95.0133 228.952 94.48C228.664 93.9467 228.52 93.28 228.52 92.48V87.6H229.656V92.352C229.656 93.248 229.874 93.9253 230.312 94.384C230.76 94.832 231.384 95.056 232.184 95.056C232.77 95.056 233.277 94.9387 233.704 94.704C234.141 94.4587 234.472 94.1067 234.696 93.648C234.93 93.1893 235.048 92.64 235.048 92V87.6H236.184V96H235.096V93.696L235.272 94.112C235.005 94.7307 234.589 95.216 234.024 95.568C233.469 95.9093 232.818 96.08 232.072 96.08ZM239.35 96V87.6H240.438V89.888L240.326 89.488C240.56 88.848 240.955 88.3627 241.51 88.032C242.064 87.6907 242.752 87.52 243.574 87.52V88.624C243.531 88.624 243.488 88.624 243.446 88.624C243.403 88.6133 243.36 88.608 243.318 88.608C242.432 88.608 241.739 88.88 241.238 89.424C240.736 89.9573 240.486 90.72 240.486 91.712V96H239.35ZM249.136 96.08C248.262 96.08 247.494 95.8987 246.832 95.536C246.171 95.1627 245.654 94.656 245.28 94.016C244.907 93.3653 244.72 92.624 244.72 91.792C244.72 90.96 244.896 90.224 245.248 89.584C245.611 88.944 246.102 88.4427 246.72 88.08C247.35 87.7067 248.054 87.52 248.832 87.52C249.622 87.52 250.32 87.7013 250.928 88.064C251.547 88.416 252.032 88.9173 252.384 89.568C252.736 90.208 252.912 90.9493 252.912 91.792C252.912 91.8453 252.907 91.904 252.896 91.968C252.896 92.0213 252.896 92.08 252.896 92.144H245.584V91.296H252.288L251.84 91.632C251.84 91.024 251.707 90.4853 251.44 90.016C251.184 89.536 250.832 89.1627 250.384 88.896C249.936 88.6293 249.419 88.496 248.832 88.496C248.256 88.496 247.739 88.6293 247.28 88.896C246.822 89.1627 246.464 89.536 246.208 90.016C245.952 90.496 245.824 91.0453 245.824 91.664V91.84C245.824 92.48 245.963 93.0453 246.24 93.536C246.528 94.016 246.923 94.3947 247.424 94.672C247.936 94.9387 248.518 95.072 249.168 95.072C249.68 95.072 250.155 94.9813 250.592 94.8C251.04 94.6187 251.424 94.3413 251.744 93.968L252.384 94.704C252.011 95.152 251.542 95.4933 250.976 95.728C250.422 95.9627 249.808 96.08 249.136 96.08ZM258.569 96.08C257.769 96.08 257.049 95.8987 256.409 95.536C255.779 95.1733 255.283 94.672 254.921 94.032C254.558 93.3813 254.377 92.6347 254.377 91.792C254.377 90.9387 254.558 90.192 254.921 89.552C255.283 88.912 255.779 88.416 256.409 88.064C257.049 87.7013 257.769 87.52 258.569 87.52C259.305 87.52 259.961 87.6853 260.537 88.016C261.123 88.3467 261.587 88.832 261.929 89.472C262.281 90.1013 262.457 90.8747 262.457 91.792C262.457 92.6987 262.286 93.472 261.945 94.112C261.603 94.752 261.139 95.2427 260.553 95.584C259.977 95.9147 259.315 96.08 258.569 96.08ZM258.649 95.072C259.246 95.072 259.779 94.9387 260.249 94.672C260.729 94.3947 261.102 94.0107 261.369 93.52C261.646 93.0187 261.785 92.4427 261.785 91.792C261.785 91.1307 261.646 90.5547 261.369 90.064C261.102 89.5733 260.729 89.1947 260.249 88.928C259.779 88.6507 259.246 88.512 258.649 88.512C258.062 88.512 257.534 88.6507 257.065 88.928C256.595 89.1947 256.222 89.5733 255.945 90.064C255.667 90.5547 255.529 91.1307 255.529 91.792C255.529 92.4427 255.667 93.0187 255.945 93.52C256.222 94.0107 256.595 94.3947 257.065 94.672C257.534 94.9387 258.062 95.072 258.649 95.072ZM261.817 96V93.472L261.929 91.776L261.769 90.08V84.128H262.905V96H261.817ZM274.592 96.08C273.867 96.08 273.211 95.9147 272.624 95.584C272.037 95.2427 271.568 94.7573 271.216 94.128C270.875 93.488 270.704 92.7093 270.704 91.792C270.704 90.8747 270.875 90.1013 271.216 89.472C271.557 88.832 272.021 88.3467 272.608 88.016C273.195 87.6853 273.856 87.52 274.592 87.52C275.392 87.52 276.107 87.7013 276.736 88.064C277.376 88.416 277.877 88.9173 278.24 89.568C278.603 90.208 278.784 90.9493 278.784 91.792C278.784 92.6453 278.603 93.392 278.24 94.032C277.877 94.672 277.376 95.1733 276.736 95.536C276.107 95.8987 275.392 96.08 274.592 96.08ZM270.256 99.104V87.6H271.344V90.128L271.232 91.808L271.392 93.504V99.104H270.256ZM274.512 95.072C275.109 95.072 275.643 94.9387 276.112 94.672C276.581 94.3947 276.955 94.0107 277.232 93.52C277.509 93.0187 277.648 92.4427 277.648 91.792C277.648 91.1413 277.509 90.5707 277.232 90.08C276.955 89.5893 276.581 89.2053 276.112 88.928C275.643 88.6507 275.109 88.512 274.512 88.512C273.915 88.512 273.376 88.6507 272.896 88.928C272.427 89.2053 272.053 89.5893 271.776 90.08C271.509 90.5707 271.376 91.1413 271.376 91.792C271.376 92.4427 271.509 93.0187 271.776 93.52C272.053 94.0107 272.427 94.3947 272.896 94.672C273.376 94.9387 273.915 95.072 274.512 95.072ZM284.572 96.08C283.857 96.08 283.233 95.9467 282.7 95.68C282.166 95.4133 281.75 95.0133 281.452 94.48C281.164 93.9467 281.02 93.28 281.02 92.48V87.6H282.156V92.352C282.156 93.248 282.374 93.9253 282.812 94.384C283.26 94.832 283.884 95.056 284.684 95.056C285.27 95.056 285.777 94.9387 286.204 94.704C286.641 94.4587 286.972 94.1067 287.196 93.648C287.43 93.1893 287.548 92.64 287.548 92V87.6H288.684V96H287.596V93.696L287.772 94.112C287.505 94.7307 287.089 95.216 286.524 95.568C285.969 95.9093 285.318 96.08 284.572 96.08ZM291.85 96V87.6H292.938V89.888L292.826 89.488C293.06 88.848 293.455 88.3627 294.01 88.032C294.564 87.6907 295.252 87.52 296.074 87.52V88.624C296.031 88.624 295.988 88.624 295.946 88.624C295.903 88.6133 295.86 88.608 295.818 88.608C294.932 88.608 294.239 88.88 293.738 89.424C293.236 89.9573 292.986 90.72 292.986 91.712V96H291.85ZM301.556 96.08C300.724 96.08 299.978 95.8987 299.316 95.536C298.666 95.1627 298.154 94.656 297.78 94.016C297.407 93.3653 297.22 92.624 297.22 91.792C297.22 90.9493 297.407 90.208 297.78 89.568C298.154 88.928 298.666 88.4267 299.316 88.064C299.978 87.7013 300.724 87.52 301.556 87.52C302.271 87.52 302.916 87.6587 303.492 87.936C304.068 88.2133 304.522 88.6293 304.852 89.184L304.004 89.76C303.716 89.3333 303.359 89.0187 302.932 88.816C302.506 88.6133 302.042 88.512 301.54 88.512C300.943 88.512 300.404 88.6507 299.924 88.928C299.444 89.1947 299.066 89.5733 298.788 90.064C298.511 90.5547 298.372 91.1307 298.372 91.792C298.372 92.4533 298.511 93.0293 298.788 93.52C299.066 94.0107 299.444 94.3947 299.924 94.672C300.404 94.9387 300.943 95.072 301.54 95.072C302.042 95.072 302.506 94.9707 302.932 94.768C303.359 94.5653 303.716 94.256 304.004 93.84L304.852 94.416C304.522 94.96 304.068 95.376 303.492 95.664C302.916 95.9413 302.271 96.08 301.556 96.08ZM311.247 87.52C311.93 87.52 312.527 87.6533 313.039 87.92C313.562 88.176 313.967 88.5707 314.255 89.104C314.554 89.6373 314.703 90.3093 314.703 91.12V96H313.567V91.232C313.567 90.3467 313.343 89.68 312.895 89.232C312.458 88.7733 311.839 88.544 311.039 88.544C310.442 88.544 309.919 88.6667 309.471 88.912C309.034 89.1467 308.692 89.4933 308.447 89.952C308.212 90.4 308.095 90.944 308.095 91.584V96H306.959V84.128H308.095V89.904L307.871 89.472C308.138 88.864 308.564 88.3893 309.151 88.048C309.738 87.696 310.436 87.52 311.247 87.52ZM323.036 96V94.144L322.988 93.84V90.736C322.988 90.0213 322.785 89.472 322.38 89.088C321.985 88.704 321.393 88.512 320.604 88.512C320.06 88.512 319.542 88.6027 319.052 88.784C318.561 88.9653 318.145 89.2053 317.804 89.504L317.292 88.656C317.718 88.2933 318.23 88.016 318.828 87.824C319.425 87.6213 320.054 87.52 320.716 87.52C321.804 87.52 322.641 87.792 323.228 88.336C323.825 88.8693 324.124 89.6853 324.124 90.784V96H323.036ZM320.14 96.08C319.51 96.08 318.961 95.9787 318.492 95.776C318.033 95.5627 317.681 95.2747 317.436 94.912C317.19 94.5387 317.068 94.112 317.068 93.632C317.068 93.1947 317.169 92.8 317.372 92.448C317.585 92.0853 317.926 91.7973 318.396 91.584C318.876 91.36 319.516 91.248 320.316 91.248H323.212V92.096H320.348C319.537 92.096 318.972 92.24 318.652 92.528C318.342 92.816 318.188 93.1733 318.188 93.6C318.188 94.08 318.374 94.464 318.748 94.752C319.121 95.04 319.644 95.184 320.316 95.184C320.956 95.184 321.505 95.04 321.964 94.752C322.433 94.4533 322.774 94.0267 322.988 93.472L323.244 94.256C323.03 94.8107 322.657 95.2533 322.124 95.584C321.601 95.9147 320.94 96.08 320.14 96.08ZM329.465 96.08C328.772 96.08 328.116 95.984 327.497 95.792C326.878 95.5893 326.393 95.3387 326.041 95.04L326.553 94.144C326.894 94.4 327.332 94.624 327.865 94.816C328.398 94.9973 328.958 95.088 329.545 95.088C330.345 95.088 330.921 94.9653 331.273 94.72C331.625 94.464 331.801 94.128 331.801 93.712C331.801 93.4027 331.7 93.1627 331.497 92.992C331.305 92.8107 331.049 92.6773 330.729 92.592C330.409 92.496 330.052 92.416 329.657 92.352C329.262 92.288 328.868 92.2133 328.473 92.128C328.089 92.0427 327.737 91.92 327.417 91.76C327.097 91.5893 326.836 91.36 326.633 91.072C326.441 90.784 326.345 90.4 326.345 89.92C326.345 89.4613 326.473 89.0507 326.729 88.688C326.985 88.3253 327.358 88.0427 327.849 87.84C328.35 87.6267 328.958 87.52 329.673 87.52C330.217 87.52 330.761 87.5947 331.305 87.744C331.849 87.8827 332.297 88.0693 332.649 88.304L332.153 89.216C331.78 88.96 331.38 88.7787 330.953 88.672C330.526 88.5547 330.1 88.496 329.673 88.496C328.916 88.496 328.356 88.6293 327.993 88.896C327.641 89.152 327.465 89.4827 327.465 89.888C327.465 90.208 327.561 90.4587 327.753 90.64C327.956 90.8213 328.217 90.9653 328.537 91.072C328.868 91.168 329.225 91.248 329.609 91.312C330.004 91.376 330.393 91.456 330.777 91.552C331.172 91.6373 331.529 91.76 331.849 91.92C332.18 92.0693 332.441 92.288 332.633 92.576C332.836 92.8533 332.937 93.2213 332.937 93.68C332.937 94.1707 332.798 94.5973 332.521 94.96C332.254 95.312 331.86 95.5893 331.337 95.792C330.825 95.984 330.201 96.08 329.465 96.08ZM338.59 96.08C337.715 96.08 336.947 95.8987 336.286 95.536C335.624 95.1627 335.107 94.656 334.734 94.016C334.36 93.3653 334.174 92.624 334.174 91.792C334.174 90.96 334.35 90.224 334.702 89.584C335.064 88.944 335.555 88.4427 336.174 88.08C336.803 87.7067 337.507 87.52 338.286 87.52C339.075 87.52 339.774 87.7013 340.382 88.064C341 88.416 341.486 88.9173 341.838 89.568C342.19 90.208 342.366 90.9493 342.366 91.792C342.366 91.8453 342.36 91.904 342.35 91.968C342.35 92.0213 342.35 92.08 342.35 92.144H335.038V91.296H341.742L341.294 91.632C341.294 91.024 341.16 90.4853 340.894 90.016C340.638 89.536 340.286 89.1627 339.838 88.896C339.39 88.6293 338.872 88.496 338.286 88.496C337.71 88.496 337.192 88.6293 336.734 88.896C336.275 89.1627 335.918 89.536 335.662 90.016C335.406 90.496 335.278 91.0453 335.278 91.664V91.84C335.278 92.48 335.416 93.0453 335.694 93.536C335.982 94.016 336.376 94.3947 336.878 94.672C337.39 94.9387 337.971 95.072 338.622 95.072C339.134 95.072 339.608 94.9813 340.046 94.8C340.494 94.6187 340.878 94.3413 341.198 93.968L341.838 94.704C341.464 95.152 340.995 95.4933 340.43 95.728C339.875 95.9627 339.262 96.08 338.59 96.08Z" fill="#828282"/>
<path d="M22.352 116V105.76L23.472 106.88H20.112V104.8H24.944V116H22.352ZM31.6896 116.192C30.7723 116.192 29.951 115.968 29.2256 115.52C28.5003 115.061 27.9296 114.4 27.5136 113.536C27.0976 112.672 26.8896 111.627 26.8896 110.4C26.8896 109.173 27.0976 108.128 27.5136 107.264C27.9296 106.4 28.5003 105.744 29.2256 105.296C29.951 104.837 30.7723 104.608 31.6896 104.608C32.6176 104.608 33.439 104.837 34.1536 105.296C34.879 105.744 35.4496 106.4 35.8656 107.264C36.2816 108.128 36.4896 109.173 36.4896 110.4C36.4896 111.627 36.2816 112.672 35.8656 113.536C35.4496 114.4 34.879 115.061 34.1536 115.52C33.439 115.968 32.6176 116.192 31.6896 116.192ZM31.6896 114C32.127 114 32.5056 113.877 32.8256 113.632C33.1563 113.387 33.4123 112.997 33.5936 112.464C33.7856 111.931 33.8816 111.243 33.8816 110.4C33.8816 109.557 33.7856 108.869 33.5936 108.336C33.4123 107.803 33.1563 107.413 32.8256 107.168C32.5056 106.923 32.127 106.8 31.6896 106.8C31.263 106.8 30.8843 106.923 30.5536 107.168C30.2336 107.413 29.9776 107.803 29.7856 108.336C29.6043 108.869 29.5136 109.557 29.5136 110.4C29.5136 111.243 29.6043 111.931 29.7856 112.464C29.9776 112.997 30.2336 113.387 30.5536 113.632C30.8843 113.877 31.263 114 31.6896 114ZM45.7682 116V111.424L46.3602 112.992L41.4322 104.8H44.1843L47.9603 111.088H46.3763L50.1683 104.8H52.7123L47.7843 112.992L48.3603 111.424V116H45.7682ZM56.9396 116.128C55.9583 116.128 55.0943 115.936 54.3476 115.552C53.6116 115.168 53.041 114.645 52.6356 113.984C52.2303 113.312 52.0276 112.549 52.0276 111.696C52.0276 110.832 52.225 110.069 52.6196 109.408C53.025 108.736 53.5743 108.213 54.2676 107.84C54.961 107.456 55.745 107.264 56.6196 107.264C57.4623 107.264 58.2196 107.445 58.8916 107.808C59.5743 108.16 60.113 108.672 60.5076 109.344C60.9023 110.005 61.0996 110.8 61.0996 111.728C61.0996 111.824 61.0943 111.936 61.0836 112.064C61.073 112.181 61.0623 112.293 61.0516 112.4H54.0596V110.944H59.7396L58.7796 111.376C58.7796 110.928 58.689 110.539 58.5076 110.208C58.3263 109.877 58.0756 109.621 57.7556 109.44C57.4356 109.248 57.0623 109.152 56.6356 109.152C56.209 109.152 55.8303 109.248 55.4996 109.44C55.1796 109.621 54.929 109.883 54.7476 110.224C54.5663 110.555 54.4756 110.949 54.4756 111.408V111.792C54.4756 112.261 54.577 112.677 54.7796 113.04C54.993 113.392 55.2863 113.664 55.6596 113.856C56.0436 114.037 56.4916 114.128 57.0036 114.128C57.4623 114.128 57.8623 114.059 58.2036 113.92C58.5556 113.781 58.8756 113.573 59.1636 113.296L60.4916 114.736C60.097 115.184 59.601 115.531 59.0036 115.776C58.4063 116.011 57.7183 116.128 56.9396 116.128ZM67.807 116V114.32L67.647 113.952V110.944C67.647 110.411 67.4817 109.995 67.151 109.696C66.831 109.397 66.335 109.248 65.663 109.248C65.2043 109.248 64.751 109.323 64.303 109.472C63.8657 109.611 63.4923 109.803 63.183 110.048L62.287 108.304C62.7563 107.973 63.3217 107.717 63.983 107.536C64.6443 107.355 65.3163 107.264 65.999 107.264C67.311 107.264 68.3297 107.573 69.055 108.192C69.7803 108.811 70.143 109.776 70.143 111.088V116H67.807ZM65.183 116.128C64.511 116.128 63.935 116.016 63.455 115.792C62.975 115.557 62.607 115.243 62.351 114.848C62.095 114.453 61.967 114.011 61.967 113.52C61.967 113.008 62.0897 112.56 62.335 112.176C62.591 111.792 62.991 111.493 63.535 111.28C64.079 111.056 64.7883 110.944 65.663 110.944H67.951V112.4H65.935C65.3483 112.4 64.943 112.496 64.719 112.688C64.5057 112.88 64.399 113.12 64.399 113.408C64.399 113.728 64.5217 113.984 64.767 114.176C65.023 114.357 65.3697 114.448 65.807 114.448C66.223 114.448 66.5963 114.352 66.927 114.16C67.2577 113.957 67.4977 113.664 67.647 113.28L68.031 114.432C67.8497 114.987 67.519 115.408 67.039 115.696C66.559 115.984 65.9403 116.128 65.183 116.128ZM72.402 116V107.392H74.786V109.824L74.45 109.12C74.706 108.512 75.1167 108.053 75.682 107.744C76.2473 107.424 76.9353 107.264 77.746 107.264V109.568C77.6393 109.557 77.5433 109.552 77.458 109.552C77.3727 109.541 77.282 109.536 77.186 109.536C76.5033 109.536 75.9487 109.733 75.522 110.128C75.106 110.512 74.898 111.115 74.898 111.936V116H72.402ZM82.1886 116.128C81.4526 116.128 80.7433 116.043 80.0606 115.872C79.3886 115.691 78.8553 115.467 78.4606 115.2L79.2926 113.408C79.6873 113.653 80.1513 113.856 80.6846 114.016C81.2286 114.165 81.762 114.24 82.2846 114.24C82.8606 114.24 83.266 114.171 83.5006 114.032C83.746 113.893 83.8686 113.701 83.8686 113.456C83.8686 113.253 83.7726 113.104 83.5806 113.008C83.3993 112.901 83.154 112.821 82.8446 112.768C82.5353 112.715 82.194 112.661 81.8206 112.608C81.458 112.555 81.09 112.485 80.7166 112.4C80.3433 112.304 80.002 112.165 79.6926 111.984C79.3833 111.803 79.1326 111.557 78.9406 111.248C78.7593 110.939 78.6686 110.539 78.6686 110.048C78.6686 109.504 78.8233 109.024 79.1326 108.608C79.4526 108.192 79.9113 107.867 80.5086 107.632C81.106 107.387 81.8206 107.264 82.6526 107.264C83.2393 107.264 83.8366 107.328 84.4446 107.456C85.0526 107.584 85.5593 107.771 85.9646 108.016L85.1326 109.792C84.7166 109.547 84.2953 109.381 83.8686 109.296C83.4526 109.2 83.0473 109.152 82.6526 109.152C82.098 109.152 81.6926 109.227 81.4366 109.376C81.1806 109.525 81.0526 109.717 81.0526 109.952C81.0526 110.165 81.1433 110.325 81.3246 110.432C81.5166 110.539 81.7673 110.624 82.0766 110.688C82.386 110.752 82.722 110.811 83.0846 110.864C83.458 110.907 83.8313 110.976 84.2046 111.072C84.578 111.168 84.914 111.307 85.2126 111.488C85.522 111.659 85.7726 111.899 85.9646 112.208C86.1566 112.507 86.2526 112.901 86.2526 113.392C86.2526 113.925 86.0926 114.4 85.7726 114.816C85.4526 115.221 84.9886 115.541 84.3806 115.776C83.7833 116.011 83.0526 116.128 82.1886 116.128ZM93.5879 116L98.0999 105.792L98.7719 106.912H92.7399L93.8919 105.696V108.736H91.5879V104.8H100.564V106.48L96.4039 116H93.5879ZM106.953 116V104.8H109.097L113.865 112.704H112.729L117.417 104.8H119.545L119.577 116H117.145L117.129 108.528H117.577L113.833 114.816H112.665L108.841 108.528H109.385V116H106.953ZM126.154 116.128C125.237 116.128 124.421 115.936 123.706 115.552C123.002 115.168 122.442 114.645 122.026 113.984C121.621 113.312 121.418 112.549 121.418 111.696C121.418 110.832 121.621 110.069 122.026 109.408C122.442 108.736 123.002 108.213 123.706 107.84C124.421 107.456 125.237 107.264 126.154 107.264C127.061 107.264 127.872 107.456 128.586 107.84C129.301 108.213 129.861 108.731 130.266 109.392C130.672 110.053 130.874 110.821 130.874 111.696C130.874 112.549 130.672 113.312 130.266 113.984C129.861 114.645 129.301 115.168 128.586 115.552C127.872 115.936 127.061 116.128 126.154 116.128ZM126.154 114.08C126.57 114.08 126.944 113.984 127.274 113.792C127.605 113.6 127.866 113.328 128.058 112.976C128.25 112.613 128.346 112.187 128.346 111.696C128.346 111.195 128.25 110.768 128.058 110.416C127.866 110.064 127.605 109.792 127.274 109.6C126.944 109.408 126.57 109.312 126.154 109.312C125.738 109.312 125.365 109.408 125.034 109.6C124.704 109.792 124.437 110.064 124.234 110.416C124.042 110.768 123.946 111.195 123.946 111.696C123.946 112.187 124.042 112.613 124.234 112.976C124.437 113.328 124.704 113.6 125.034 113.792C125.365 113.984 125.738 114.08 126.154 114.08ZM137.775 107.264C138.457 107.264 139.065 107.403 139.599 107.68C140.143 107.947 140.569 108.363 140.879 108.928C141.188 109.483 141.343 110.197 141.343 111.072V116H138.847V111.456C138.847 110.763 138.692 110.251 138.383 109.92C138.084 109.589 137.657 109.424 137.103 109.424C136.708 109.424 136.351 109.509 136.031 109.68C135.721 109.84 135.476 110.091 135.295 110.432C135.124 110.773 135.039 111.211 135.039 111.744V116H132.543V107.392H134.927V109.776L134.479 109.056C134.788 108.48 135.231 108.037 135.807 107.728C136.383 107.419 137.039 107.264 137.775 107.264ZM147.125 116.128C146.112 116.128 145.322 115.872 144.757 115.36C144.192 114.837 143.909 114.064 143.909 113.04V105.488H146.405V113.008C146.405 113.371 146.501 113.653 146.693 113.856C146.885 114.048 147.146 114.144 147.477 114.144C147.872 114.144 148.208 114.037 148.485 113.824L149.157 115.584C148.901 115.765 148.592 115.904 148.229 116C147.877 116.085 147.509 116.128 147.125 116.128ZM142.581 109.504V107.584H148.549V109.504H142.581ZM155.79 107.264C156.473 107.264 157.081 107.403 157.614 107.68C158.158 107.947 158.585 108.363 158.894 108.928C159.204 109.483 159.358 110.197 159.358 111.072V116H156.862V111.456C156.862 110.763 156.708 110.251 156.398 109.92C156.1 109.589 155.673 109.424 155.118 109.424C154.724 109.424 154.366 109.509 154.046 109.68C153.737 109.84 153.492 110.091 153.31 110.432C153.14 110.773 153.054 111.211 153.054 111.744V116H150.558V104.128H153.054V109.776L152.494 109.056C152.804 108.48 153.246 108.037 153.822 107.728C154.398 107.419 155.054 107.264 155.79 107.264ZM164.517 116.128C163.781 116.128 163.071 116.043 162.389 115.872C161.717 115.691 161.183 115.467 160.789 115.2L161.621 113.408C162.015 113.653 162.479 113.856 163.013 114.016C163.557 114.165 164.09 114.24 164.613 114.24C165.189 114.24 165.594 114.171 165.829 114.032C166.074 113.893 166.197 113.701 166.197 113.456C166.197 113.253 166.101 113.104 165.909 113.008C165.727 112.901 165.482 112.821 165.173 112.768C164.863 112.715 164.522 112.661 164.149 112.608C163.786 112.555 163.418 112.485 163.045 112.4C162.671 112.304 162.33 112.165 162.021 111.984C161.711 111.803 161.461 111.557 161.269 111.248C161.087 110.939 160.997 110.539 160.997 110.048C160.997 109.504 161.151 109.024 161.461 108.608C161.781 108.192 162.239 107.867 162.837 107.632C163.434 107.387 164.149 107.264 164.981 107.264C165.567 107.264 166.165 107.328 166.773 107.456C167.381 107.584 167.887 107.771 168.293 108.016L167.461 109.792C167.045 109.547 166.623 109.381 166.197 109.296C165.781 109.2 165.375 109.152 164.981 109.152C164.426 109.152 164.021 109.227 163.765 109.376C163.509 109.525 163.381 109.717 163.381 109.952C163.381 110.165 163.471 110.325 163.653 110.432C163.845 110.539 164.095 110.624 164.405 110.688C164.714 110.752 165.05 110.811 165.413 110.864C165.786 110.907 166.159 110.976 166.533 111.072C166.906 111.168 167.242 111.307 167.541 111.488C167.85 111.659 168.101 111.899 168.293 112.208C168.485 112.507 168.581 112.901 168.581 113.392C168.581 113.925 168.421 114.4 168.101 114.816C167.781 115.221 167.317 115.541 166.709 115.776C166.111 116.011 165.381 116.128 164.517 116.128Z" fill="#4F4F4F"/>
<path d="M199.856 116L204.848 104.8H207.408L212.416 116H209.696L205.6 106.112H206.624L202.512 116H199.856ZM202.352 113.6L203.04 111.632H208.8L209.504 113.6H202.352ZM213.402 116V104.128H215.898V116H213.402ZM220.183 116L217.079 107.392H219.431L222.007 114.8H220.887L223.575 107.392H225.687L228.295 114.8H227.175L229.831 107.392H232.039L228.919 116H226.503L224.215 109.648H224.951L222.583 116H220.183ZM238.198 116V114.32L238.038 113.952V110.944C238.038 110.411 237.872 109.995 237.542 109.696C237.222 109.397 236.726 109.248 236.054 109.248C235.595 109.248 235.142 109.323 234.694 109.472C234.256 109.611 233.883 109.803 233.574 110.048L232.678 108.304C233.147 107.973 233.712 107.717 234.374 107.536C235.035 107.355 235.707 107.264 236.39 107.264C237.702 107.264 238.72 107.573 239.446 108.192C240.171 108.811 240.534 109.776 240.534 111.088V116H238.198ZM235.574 116.128C234.902 116.128 234.326 116.016 233.846 115.792C233.366 115.557 232.998 115.243 232.742 114.848C232.486 114.453 232.358 114.011 232.358 113.52C232.358 113.008 232.48 112.56 232.726 112.176C232.982 111.792 233.382 111.493 233.926 111.28C234.47 111.056 235.179 110.944 236.054 110.944H238.342V112.4H236.326C235.739 112.4 235.334 112.496 235.11 112.688C234.896 112.88 234.79 113.12 234.79 113.408C234.79 113.728 234.912 113.984 235.158 114.176C235.414 114.357 235.76 114.448 236.198 114.448C236.614 114.448 236.987 114.352 237.318 114.16C237.648 113.957 237.888 113.664 238.038 113.28L238.422 114.432C238.24 114.987 237.91 115.408 237.43 115.696C236.95 115.984 236.331 116.128 235.574 116.128ZM243.724 119.232C243.276 119.232 242.834 119.163 242.396 119.024C241.959 118.885 241.602 118.693 241.324 118.448L242.236 116.672C242.428 116.843 242.647 116.976 242.892 117.072C243.148 117.168 243.399 117.216 243.644 117.216C243.996 117.216 244.274 117.131 244.476 116.96C244.69 116.8 244.882 116.528 245.052 116.144L245.5 115.088L245.692 114.816L248.78 107.392H251.18L247.292 116.528C247.015 117.221 246.695 117.765 246.332 118.16C245.98 118.555 245.586 118.832 245.148 118.992C244.722 119.152 244.247 119.232 243.724 119.232ZM245.196 116.336L241.356 107.392H243.932L246.908 114.592L245.196 116.336ZM254.97 116.128C254.234 116.128 253.525 116.043 252.842 115.872C252.17 115.691 251.637 115.467 251.242 115.2L252.074 113.408C252.469 113.653 252.933 113.856 253.466 114.016C254.01 114.165 254.543 114.24 255.066 114.24C255.642 114.24 256.047 114.171 256.282 114.032C256.527 113.893 256.65 113.701 256.65 113.456C256.65 113.253 256.554 113.104 256.362 113.008C256.181 112.901 255.935 112.821 255.626 112.768C255.317 112.715 254.975 112.661 254.602 112.608C254.239 112.555 253.871 112.485 253.498 112.4C253.125 112.304 252.783 112.165 252.474 111.984C252.165 111.803 251.914 111.557 251.722 111.248C251.541 110.939 251.45 110.539 251.45 110.048C251.45 109.504 251.605 109.024 251.914 108.608C252.234 108.192 252.693 107.867 253.29 107.632C253.887 107.387 254.602 107.264 255.434 107.264C256.021 107.264 256.618 107.328 257.226 107.456C257.834 107.584 258.341 107.771 258.746 108.016L257.914 109.792C257.498 109.547 257.077 109.381 256.65 109.296C256.234 109.2 255.829 109.152 255.434 109.152C254.879 109.152 254.474 109.227 254.218 109.376C253.962 109.525 253.834 109.717 253.834 109.952C253.834 110.165 253.925 110.325 254.106 110.432C254.298 110.539 254.549 110.624 254.858 110.688C255.167 110.752 255.503 110.811 255.866 110.864C256.239 110.907 256.613 110.976 256.986 111.072C257.359 111.168 257.695 111.307 257.994 111.488C258.303 111.659 258.554 111.899 258.746 112.208C258.938 112.507 259.034 112.901 259.034 113.392C259.034 113.925 258.874 114.4 258.554 114.816C258.234 115.221 257.77 115.541 257.162 115.776C256.565 116.011 255.834 116.128 254.97 116.128Z" fill="#4F4F4F"/>
<path d="M106.112 156V151.424L106.704 152.992L101.776 144.8H104.528L108.304 151.088H106.72L110.512 144.8H113.056L108.128 152.992L108.704 151.424V156H106.112ZM116.431 149.312H121.823V151.328H116.431V149.312ZM116.623 153.92H122.719V156H114.047V144.8H122.511V146.88H116.623V153.92ZM128.461 156.192C127.565 156.192 126.706 156.075 125.885 155.84C125.064 155.595 124.402 155.28 123.901 154.896L124.781 152.944C125.261 153.285 125.826 153.568 126.477 153.792C127.138 154.005 127.805 154.112 128.477 154.112C128.989 154.112 129.4 154.064 129.709 153.968C130.029 153.861 130.264 153.717 130.413 153.536C130.562 153.355 130.637 153.147 130.637 152.912C130.637 152.613 130.52 152.379 130.285 152.208C130.05 152.027 129.741 151.883 129.357 151.776C128.973 151.659 128.546 151.552 128.077 151.456C127.618 151.349 127.154 151.221 126.685 151.072C126.226 150.923 125.805 150.731 125.421 150.496C125.037 150.261 124.722 149.952 124.477 149.568C124.242 149.184 124.125 148.693 124.125 148.096C124.125 147.456 124.296 146.875 124.637 146.352C124.989 145.819 125.512 145.397 126.205 145.088C126.909 144.768 127.789 144.608 128.845 144.608C129.549 144.608 130.242 144.693 130.925 144.864C131.608 145.024 132.21 145.269 132.733 145.6L131.933 147.568C131.41 147.269 130.888 147.051 130.365 146.912C129.842 146.763 129.33 146.688 128.829 146.688C128.328 146.688 127.917 146.747 127.597 146.864C127.277 146.981 127.048 147.136 126.909 147.328C126.77 147.509 126.701 147.723 126.701 147.968C126.701 148.256 126.818 148.491 127.053 148.672C127.288 148.843 127.597 148.981 127.981 149.088C128.365 149.195 128.786 149.301 129.245 149.408C129.714 149.515 130.178 149.637 130.637 149.776C131.106 149.915 131.533 150.101 131.917 150.336C132.301 150.571 132.61 150.88 132.845 151.264C133.09 151.648 133.213 152.133 133.213 152.72C133.213 153.349 133.037 153.925 132.685 154.448C132.333 154.971 131.805 155.392 131.101 155.712C130.408 156.032 129.528 156.192 128.461 156.192Z" fill="#4F4F4F"/>
<path d="M204.112 156V151.424L204.704 152.992L199.776 144.8H202.528L206.304 151.088H204.72L208.512 144.8H211.056L206.128 152.992L206.704 151.424V156H204.112ZM214.431 149.312H219.823V151.328H214.431V149.312ZM214.623 153.92H220.719V156H212.047V144.8H220.511V146.88H214.623V153.92ZM226.461 156.192C225.565 156.192 224.706 156.075 223.885 155.84C223.064 155.595 222.402 155.28 221.901 154.896L222.781 152.944C223.261 153.285 223.826 153.568 224.477 153.792C225.138 154.005 225.805 154.112 226.477 154.112C226.989 154.112 227.4 154.064 227.709 153.968C228.029 153.861 228.264 153.717 228.413 153.536C228.562 153.355 228.637 153.147 228.637 152.912C228.637 152.613 228.52 152.379 228.285 152.208C228.05 152.027 227.741 151.883 227.357 151.776C226.973 151.659 226.546 151.552 226.077 151.456C225.618 151.349 225.154 151.221 224.685 151.072C224.226 150.923 223.805 150.731 223.421 150.496C223.037 150.261 222.722 149.952 222.477 149.568C222.242 149.184 222.125 148.693 222.125 148.096C222.125 147.456 222.296 146.875 222.637 146.352C222.989 145.819 223.512 145.397 224.205 145.088C224.909 144.768 225.789 144.608 226.845 144.608C227.549 144.608 228.242 144.693 228.925 144.864C229.608 145.024 230.21 145.269 230.733 145.6L229.933 147.568C229.41 147.269 228.888 147.051 228.365 146.912C227.842 146.763 227.33 146.688 226.829 146.688C226.328 146.688 225.917 146.747 225.597 146.864C225.277 146.981 225.048 147.136 224.909 147.328C224.77 147.509 224.701 147.723 224.701 147.968C224.701 148.256 224.818 148.491 225.053 148.672C225.288 148.843 225.597 148.981 225.981 149.088C226.365 149.195 226.786 149.301 227.245 149.408C227.714 149.515 228.178 149.637 228.637 149.776C229.106 149.915 229.533 150.101 229.917 150.336C230.301 150.571 230.61 150.88 230.845 151.264C231.09 151.648 231.213 152.133 231.213 152.72C231.213 153.349 231.037 153.925 230.685 154.448C230.333 154.971 229.805 155.392 229.101 155.712C228.408 156.032 227.528 156.192 226.461 156.192Z" fill="#4F4F4F"/>
<path d="M21.824 136V124.8H26.016C26.9653 124.8 27.7813 124.955 28.464 125.264C29.1467 125.563 29.6693 126 30.032 126.576C30.4053 127.141 30.592 127.829 30.592 128.64C30.592 129.429 30.4053 130.112 30.032 130.688C29.6693 131.253 29.1467 131.691 28.464 132C27.7813 132.309 26.9653 132.464 26.016 132.464H22.48L23.008 131.904V136H21.824ZM23.008 132L22.48 131.424H25.984C27.104 131.424 27.952 131.184 28.528 130.704C29.1147 130.213 29.408 129.525 29.408 128.64C29.408 127.744 29.1147 127.051 28.528 126.56C27.952 126.069 27.104 125.824 25.984 125.824H22.48L23.008 125.264V132ZM38.098 136V134.144L38.05 133.84V130.736C38.05 130.021 37.8473 129.472 37.442 129.088C37.0473 128.704 36.4553 128.512 35.666 128.512C35.122 128.512 34.6047 128.603 34.114 128.784C33.6233 128.965 33.2073 129.205 32.866 129.504L32.354 128.656C32.7807 128.293 33.2927 128.016 33.89 127.824C34.4873 127.621 35.1167 127.52 35.778 127.52C36.866 127.52 37.7033 127.792 38.29 128.336C38.8873 128.869 39.186 129.685 39.186 130.784V136H38.098ZM35.202 136.08C34.5727 136.08 34.0233 135.979 33.554 135.776C33.0953 135.563 32.7433 135.275 32.498 134.912C32.2527 134.539 32.13 134.112 32.13 133.632C32.13 133.195 32.2313 132.8 32.434 132.448C32.6473 132.085 32.9887 131.797 33.458 131.584C33.938 131.36 34.578 131.248 35.378 131.248H38.274V132.096H35.41C34.5993 132.096 34.034 132.24 33.714 132.528C33.4047 132.816 33.25 133.173 33.25 133.6C33.25 134.08 33.4367 134.464 33.81 134.752C34.1833 135.04 34.706 135.184 35.378 135.184C36.018 135.184 36.5673 135.04 37.026 134.752C37.4953 134.453 37.8367 134.027 38.05 133.472L38.306 134.256C38.0927 134.811 37.7193 135.253 37.186 135.584C36.6633 135.915 36.002 136.08 35.202 136.08ZM42.1793 139.184C41.7846 139.184 41.4059 139.12 41.0433 138.992C40.6913 138.864 40.3872 138.672 40.1312 138.416L40.6593 137.568C40.8726 137.771 41.1019 137.925 41.3473 138.032C41.6033 138.149 41.8859 138.208 42.1953 138.208C42.5686 138.208 42.8886 138.101 43.1553 137.888C43.4326 137.685 43.6939 137.323 43.9393 136.8L44.4833 135.568L44.6113 135.392L48.0673 127.6H49.1873L44.9793 137.008C44.7446 137.552 44.4833 137.984 44.1953 138.304C43.9179 138.624 43.6139 138.848 43.2833 138.976C42.9526 139.115 42.5846 139.184 42.1793 139.184ZM44.4193 136.24L40.5473 127.6H41.7313L45.1553 135.312L44.4193 136.24ZM61.2831 127.52C61.9658 127.52 62.5578 127.653 63.0591 127.92C63.5711 128.176 63.9658 128.571 64.2431 129.104C64.5311 129.637 64.6751 130.309 64.6751 131.12V136H63.5391V131.232C63.5391 130.347 63.3258 129.68 62.8991 129.232C62.4831 128.773 61.8911 128.544 61.1231 128.544C60.5471 128.544 60.0458 128.667 59.6191 128.912C59.2031 129.147 58.8778 129.493 58.6431 129.952C58.4191 130.4 58.3071 130.944 58.3071 131.584V136H57.1711V131.232C57.1711 130.347 56.9578 129.68 56.5311 129.232C56.1045 128.773 55.5071 128.544 54.7391 128.544C54.1738 128.544 53.6778 128.667 53.2511 128.912C52.8245 129.147 52.4938 129.493 52.2591 129.952C52.0351 130.4 51.9231 130.944 51.9231 131.584V136H50.7871V127.6H51.8751V129.872L51.6991 129.472C51.9551 128.864 52.3658 128.389 52.9311 128.048C53.5071 127.696 54.1845 127.52 54.9631 127.52C55.7845 127.52 56.4831 127.728 57.0591 128.144C57.6351 128.549 58.0085 129.163 58.1791 129.984L57.7311 129.808C57.9765 129.125 58.4085 128.576 59.0271 128.16C59.6565 127.733 60.4085 127.52 61.2831 127.52ZM71.3239 136.08C70.4492 136.08 69.6812 135.899 69.0199 135.536C68.3585 135.163 67.8412 134.656 67.4679 134.016C67.0945 133.365 66.9079 132.624 66.9079 131.792C66.9079 130.96 67.0839 130.224 67.4359 129.584C67.7985 128.944 68.2892 128.443 68.9079 128.08C69.5372 127.707 70.2412 127.52 71.0199 127.52C71.8092 127.52 72.5079 127.701 73.1159 128.064C73.7345 128.416 74.2199 128.917 74.5719 129.568C74.9239 130.208 75.0999 130.949 75.0999 131.792C75.0999 131.845 75.0945 131.904 75.0839 131.968C75.0839 132.021 75.0839 132.08 75.0839 132.144H67.7719V131.296H74.4759L74.0279 131.632C74.0279 131.024 73.8945 130.485 73.6279 130.016C73.3719 129.536 73.0199 129.163 72.5719 128.896C72.1239 128.629 71.6065 128.496 71.0199 128.496C70.4439 128.496 69.9265 128.629 69.4679 128.896C69.0092 129.163 68.6519 129.536 68.3959 130.016C68.1399 130.496 68.0119 131.045 68.0119 131.664V131.84C68.0119 132.48 68.1505 133.045 68.4279 133.536C68.7159 134.016 69.1105 134.395 69.6119 134.672C70.1239 134.939 70.7052 135.072 71.3559 135.072C71.8679 135.072 72.3425 134.981 72.7799 134.8C73.2279 134.619 73.6119 134.341 73.9319 133.968L74.5719 134.704C74.1985 135.152 73.7292 135.493 73.1639 135.728C72.6092 135.963 71.9959 136.08 71.3239 136.08ZM81.7001 127.52C82.3828 127.52 82.9801 127.653 83.4921 127.92C84.0148 128.176 84.4201 128.571 84.7081 129.104C85.0068 129.637 85.1561 130.309 85.1561 131.12V136H84.0201V131.232C84.0201 130.347 83.7961 129.68 83.3481 129.232C82.9108 128.773 82.2921 128.544 81.4921 128.544C80.8948 128.544 80.3721 128.667 79.9241 128.912C79.4868 129.147 79.1455 129.493 78.9001 129.952C78.6655 130.4 78.5481 130.944 78.5481 131.584V136H77.4121V127.6H78.5001V129.904L78.3241 129.472C78.5908 128.864 79.0175 128.389 79.6041 128.048C80.1908 127.696 80.8895 127.52 81.7001 127.52ZM90.8806 136.08C90.0913 136.08 89.4833 135.867 89.0566 135.44C88.63 135.013 88.4166 134.411 88.4166 133.632V125.744H89.5526V133.568C89.5526 134.059 89.6753 134.437 89.9206 134.704C90.1766 134.971 90.5393 135.104 91.0086 135.104C91.51 135.104 91.926 134.96 92.2566 134.672L92.6566 135.488C92.4326 135.691 92.1606 135.84 91.8406 135.936C91.5313 136.032 91.2113 136.08 90.8806 136.08ZM86.9126 128.544V127.6H92.1126V128.544H86.9126ZM104.176 136V134.144L104.128 133.84V130.736C104.128 130.021 103.925 129.472 103.52 129.088C103.125 128.704 102.533 128.512 101.744 128.512C101.2 128.512 100.683 128.603 100.192 128.784C99.7015 128.965 99.2855 129.205 98.9441 129.504L98.4321 128.656C98.8588 128.293 99.3708 128.016 99.9681 127.824C100.565 127.621 101.195 127.52 101.856 127.52C102.944 127.52 103.781 127.792 104.368 128.336C104.965 128.869 105.264 129.685 105.264 130.784V136H104.176ZM101.28 136.08C100.651 136.08 100.101 135.979 99.6321 135.776C99.1735 135.563 98.8215 135.275 98.5761 134.912C98.3308 134.539 98.2081 134.112 98.2081 133.632C98.2081 133.195 98.3095 132.8 98.5121 132.448C98.7255 132.085 99.0668 131.797 99.5361 131.584C100.016 131.36 100.656 131.248 101.456 131.248H104.352V132.096H101.488C100.677 132.096 100.112 132.24 99.7921 132.528C99.4828 132.816 99.3281 133.173 99.3281 133.6C99.3281 134.08 99.5148 134.464 99.8881 134.752C100.261 135.04 100.784 135.184 101.456 135.184C102.096 135.184 102.645 135.04 103.104 134.752C103.573 134.453 103.915 134.027 104.128 133.472L104.384 134.256C104.171 134.811 103.797 135.253 103.264 135.584C102.741 135.915 102.08 136.08 101.28 136.08ZM111.934 139.184C111.166 139.184 110.43 139.072 109.726 138.848C109.022 138.624 108.451 138.304 108.014 137.888L108.59 137.024C108.984 137.376 109.47 137.653 110.046 137.856C110.632 138.069 111.251 138.176 111.902 138.176C112.968 138.176 113.752 137.925 114.254 137.424C114.755 136.933 115.006 136.165 115.006 135.12V133.024L115.166 131.584L115.054 130.144V127.6H116.142V134.976C116.142 136.427 115.784 137.488 115.07 138.16C114.366 138.843 113.32 139.184 111.934 139.184ZM111.726 135.68C110.926 135.68 110.206 135.509 109.566 135.168C108.926 134.816 108.419 134.331 108.046 133.712C107.683 133.093 107.502 132.384 107.502 131.584C107.502 130.784 107.683 130.08 108.046 129.472C108.419 128.853 108.926 128.373 109.566 128.032C110.206 127.691 110.926 127.52 111.726 127.52C112.472 127.52 113.144 127.675 113.742 127.984C114.339 128.293 114.814 128.752 115.166 129.36C115.518 129.968 115.694 130.709 115.694 131.584C115.694 132.459 115.518 133.2 115.166 133.808C114.814 134.416 114.339 134.88 113.742 135.2C113.144 135.52 112.472 135.68 111.726 135.68ZM111.838 134.672C112.456 134.672 113.006 134.544 113.486 134.288C113.966 134.021 114.344 133.659 114.622 133.2C114.899 132.731 115.038 132.192 115.038 131.584C115.038 130.976 114.899 130.443 114.622 129.984C114.344 129.525 113.966 129.168 113.486 128.912C113.006 128.645 112.456 128.512 111.838 128.512C111.23 128.512 110.68 128.645 110.19 128.912C109.71 129.168 109.331 129.525 109.054 129.984C108.787 130.443 108.654 130.976 108.654 131.584C108.654 132.192 108.787 132.731 109.054 133.2C109.331 133.659 109.71 134.021 110.19 134.288C110.68 134.544 111.23 134.672 111.838 134.672ZM124.567 136V134.144L124.519 133.84V130.736C124.519 130.021 124.316 129.472 123.911 129.088C123.516 128.704 122.924 128.512 122.135 128.512C121.591 128.512 121.073 128.603 120.583 128.784C120.092 128.965 119.676 129.205 119.335 129.504L118.823 128.656C119.249 128.293 119.761 128.016 120.359 127.824C120.956 127.621 121.585 127.52 122.247 127.52C123.335 127.52 124.172 127.792 124.759 128.336C125.356 128.869 125.655 129.685 125.655 130.784V136H124.567ZM121.671 136.08C121.041 136.08 120.492 135.979 120.023 135.776C119.564 135.563 119.212 135.275 118.967 134.912C118.721 134.539 118.599 134.112 118.599 133.632C118.599 133.195 118.7 132.8 118.903 132.448C119.116 132.085 119.457 131.797 119.927 131.584C120.407 131.36 121.047 131.248 121.847 131.248H124.743V132.096H121.879C121.068 132.096 120.503 132.24 120.183 132.528C119.873 132.816 119.719 133.173 119.719 133.6C119.719 134.08 119.905 134.464 120.279 134.752C120.652 135.04 121.175 135.184 121.847 135.184C122.487 135.184 123.036 135.04 123.495 134.752C123.964 134.453 124.305 134.027 124.519 133.472L124.775 134.256C124.561 134.811 124.188 135.253 123.655 135.584C123.132 135.915 122.471 136.08 121.671 136.08ZM128.74 136V127.6H129.876V136H128.74ZM129.316 125.744C129.082 125.744 128.884 125.664 128.724 125.504C128.564 125.344 128.484 125.152 128.484 124.928C128.484 124.704 128.564 124.517 128.724 124.368C128.884 124.208 129.082 124.128 129.316 124.128C129.551 124.128 129.748 124.203 129.908 124.352C130.068 124.501 130.148 124.688 130.148 124.912C130.148 125.147 130.068 125.344 129.908 125.504C129.759 125.664 129.562 125.744 129.316 125.744ZM137.325 127.52C138.008 127.52 138.605 127.653 139.117 127.92C139.64 128.176 140.045 128.571 140.333 129.104C140.632 129.637 140.781 130.309 140.781 131.12V136H139.645V131.232C139.645 130.347 139.421 129.68 138.973 129.232C138.536 128.773 137.917 128.544 137.117 128.544C136.52 128.544 135.997 128.667 135.549 128.912C135.112 129.147 134.77 129.493 134.525 129.952C134.29 130.4 134.173 130.944 134.173 131.584V136H133.037V127.6H134.125V129.904L133.949 129.472C134.216 128.864 134.642 128.389 135.229 128.048C135.816 127.696 136.514 127.52 137.325 127.52ZM146.106 136.08C145.412 136.08 144.756 135.984 144.138 135.792C143.519 135.589 143.034 135.339 142.682 135.04L143.194 134.144C143.535 134.4 143.972 134.624 144.506 134.816C145.039 134.997 145.599 135.088 146.186 135.088C146.986 135.088 147.562 134.965 147.914 134.72C148.266 134.464 148.442 134.128 148.442 133.712C148.442 133.403 148.34 133.163 148.138 132.992C147.946 132.811 147.69 132.677 147.37 132.592C147.05 132.496 146.692 132.416 146.298 132.352C145.903 132.288 145.508 132.213 145.114 132.128C144.73 132.043 144.378 131.92 144.058 131.76C143.738 131.589 143.476 131.36 143.274 131.072C143.082 130.784 142.986 130.4 142.986 129.92C142.986 129.461 143.114 129.051 143.37 128.688C143.626 128.325 143.999 128.043 144.49 127.84C144.991 127.627 145.599 127.52 146.314 127.52C146.858 127.52 147.402 127.595 147.946 127.744C148.49 127.883 148.938 128.069 149.29 128.304L148.794 129.216C148.42 128.96 148.02 128.779 147.594 128.672C147.167 128.555 146.74 128.496 146.314 128.496C145.556 128.496 144.996 128.629 144.634 128.896C144.282 129.152 144.106 129.483 144.106 129.888C144.106 130.208 144.202 130.459 144.394 130.64C144.596 130.821 144.858 130.965 145.178 131.072C145.508 131.168 145.866 131.248 146.25 131.312C146.644 131.376 147.034 131.456 147.418 131.552C147.812 131.637 148.17 131.76 148.49 131.92C148.82 132.069 149.082 132.288 149.274 132.576C149.476 132.853 149.578 133.221 149.578 133.68C149.578 134.171 149.439 134.597 149.162 134.96C148.895 135.312 148.5 135.589 147.978 135.792C147.466 135.984 146.842 136.08 146.106 136.08ZM154.318 136.08C153.529 136.08 152.921 135.867 152.494 135.44C152.067 135.013 151.854 134.411 151.854 133.632V125.744H152.99V133.568C152.99 134.059 153.113 134.437 153.358 134.704C153.614 134.971 153.977 135.104 154.446 135.104C154.947 135.104 155.363 134.96 155.694 134.672L156.094 135.488C155.87 135.691 155.598 135.84 155.278 135.936C154.969 136.032 154.649 136.08 154.318 136.08ZM150.35 128.544V127.6H155.55V128.544H150.35ZM24.928 156.08C24.128 156.08 23.408 155.899 22.768 155.536C22.1387 155.173 21.6427 154.672 21.28 154.032C20.9173 153.381 20.736 152.635 20.736 151.792C20.736 150.939 20.9173 150.192 21.28 149.552C21.6427 148.912 22.1387 148.416 22.768 148.064C23.408 147.701 24.128 147.52 24.928 147.52C25.664 147.52 26.32 147.685 26.896 148.016C27.4827 148.347 27.9467 148.832 28.288 149.472C28.64 150.101 28.816 150.875 28.816 151.792C28.816 152.699 28.6453 153.472 28.304 154.112C27.9627 154.752 27.4987 155.243 26.912 155.584C26.336 155.915 25.6747 156.08 24.928 156.08ZM25.008 155.072C25.6053 155.072 26.1387 154.939 26.608 154.672C27.088 154.395 27.4613 154.011 27.728 153.52C28.0053 153.019 28.144 152.443 28.144 151.792C28.144 151.131 28.0053 150.555 27.728 150.064C27.4613 149.573 27.088 149.195 26.608 148.928C26.1387 148.651 25.6053 148.512 25.008 148.512C24.4213 148.512 23.8933 148.651 23.424 148.928C22.9547 149.195 22.5813 149.573 22.304 150.064C22.0267 150.555 21.888 151.131 21.888 151.792C21.888 152.443 22.0267 153.019 22.304 153.52C22.5813 154.011 22.9547 154.395 23.424 154.672C23.8933 154.939 24.4213 155.072 25.008 155.072ZM28.176 156V153.472L28.288 151.776L28.128 150.08V144.128H29.264V156H28.176ZM35.9958 156.08C35.1211 156.08 34.3531 155.899 33.6918 155.536C33.0304 155.163 32.5131 154.656 32.1398 154.016C31.7664 153.365 31.5798 152.624 31.5798 151.792C31.5798 150.96 31.7558 150.224 32.1078 149.584C32.4704 148.944 32.9611 148.443 33.5798 148.08C34.2091 147.707 34.9131 147.52 35.6918 147.52C36.4811 147.52 37.1798 147.701 37.7878 148.064C38.4064 148.416 38.8918 148.917 39.2438 149.568C39.5958 150.208 39.7718 150.949 39.7718 151.792C39.7718 151.845 39.7664 151.904 39.7558 151.968C39.7558 152.021 39.7558 152.08 39.7558 152.144H32.4438V151.296H39.1478L38.6998 151.632C38.6998 151.024 38.5664 150.485 38.2998 150.016C38.0438 149.536 37.6918 149.163 37.2438 148.896C36.7958 148.629 36.2784 148.496 35.6918 148.496C35.1158 148.496 34.5984 148.629 34.1398 148.896C33.6811 149.163 33.3238 149.536 33.0678 150.016C32.8118 150.496 32.6838 151.045 32.6838 151.664V151.84C32.6838 152.48 32.8224 153.045 33.0998 153.536C33.3878 154.016 33.7824 154.395 34.2838 154.672C34.7958 154.939 35.3771 155.072 36.0278 155.072C36.5398 155.072 37.0144 154.981 37.4518 154.8C37.8998 154.619 38.2838 154.341 38.6038 153.968L39.2438 154.704C38.8704 155.152 38.4011 155.493 37.8358 155.728C37.2811 155.963 36.6678 156.08 35.9958 156.08ZM42.084 156V144.128H43.22V156H42.084ZM46.3809 156V147.6H47.5169V156H46.3809ZM46.9569 145.744C46.7222 145.744 46.5249 145.664 46.3649 145.504C46.2049 145.344 46.1249 145.152 46.1249 144.928C46.1249 144.704 46.2049 144.517 46.3649 144.368C46.5249 144.208 46.7222 144.128 46.9569 144.128C47.1915 144.128 47.3889 144.203 47.5489 144.352C47.7089 144.501 47.7889 144.688 47.7889 144.912C47.7889 145.147 47.7089 145.344 47.5489 145.504C47.3995 145.664 47.2022 145.744 46.9569 145.744ZM52.8378 156L49.1098 147.6H50.2938L53.7178 155.392H53.1578L56.6298 147.6H57.7498L54.0058 156H52.8378ZM62.6833 156.08C61.8086 156.08 61.0406 155.899 60.3793 155.536C59.7179 155.163 59.2006 154.656 58.8273 154.016C58.4539 153.365 58.2673 152.624 58.2673 151.792C58.2673 150.96 58.4433 150.224 58.7953 149.584C59.1579 148.944 59.6486 148.443 60.2673 148.08C60.8966 147.707 61.6006 147.52 62.3793 147.52C63.1686 147.52 63.8673 147.701 64.4753 148.064C65.0939 148.416 65.5793 148.917 65.9313 149.568C66.2833 150.208 66.4593 150.949 66.4593 151.792C66.4593 151.845 66.4539 151.904 66.4433 151.968C66.4433 152.021 66.4433 152.08 66.4433 152.144H59.1313V151.296H65.8353L65.3873 151.632C65.3873 151.024 65.2539 150.485 64.9873 150.016C64.7313 149.536 64.3793 149.163 63.9313 148.896C63.4833 148.629 62.9659 148.496 62.3793 148.496C61.8033 148.496 61.2859 148.629 60.8273 148.896C60.3686 149.163 60.0113 149.536 59.7553 150.016C59.4993 150.496 59.3713 151.045 59.3713 151.664V151.84C59.3713 152.48 59.5099 153.045 59.7873 153.536C60.0753 154.016 60.4699 154.395 60.9713 154.672C61.4833 154.939 62.0646 155.072 62.7153 155.072C63.2273 155.072 63.7019 154.981 64.1393 154.8C64.5873 154.619 64.9713 154.341 65.2913 153.968L65.9313 154.704C65.5579 155.152 65.0886 155.493 64.5233 155.728C63.9686 155.963 63.3553 156.08 62.6833 156.08ZM68.7715 156V147.6H69.8595V149.888L69.7475 149.488C69.9822 148.848 70.3768 148.363 70.9315 148.032C71.4862 147.691 72.1742 147.52 72.9955 147.52V148.624C72.9528 148.624 72.9102 148.624 72.8675 148.624C72.8248 148.613 72.7822 148.608 72.7395 148.608C71.8542 148.608 71.1608 148.88 70.6595 149.424C70.1582 149.957 69.9075 150.72 69.9075 151.712V156H68.7715ZM75.4918 159.184C75.0971 159.184 74.7184 159.12 74.3558 158.992C74.0038 158.864 73.6997 158.672 73.4437 158.416L73.9718 157.568C74.1851 157.771 74.4144 157.925 74.6598 158.032C74.9158 158.149 75.1984 158.208 75.5078 158.208C75.8811 158.208 76.2011 158.101 76.4678 157.888C76.7451 157.685 77.0064 157.323 77.2518 156.8L77.7958 155.568L77.9238 155.392L81.3798 147.6H82.4998L78.2918 157.008C78.0571 157.552 77.7958 157.984 77.5078 158.304C77.2304 158.624 76.9264 158.848 76.5958 158.976C76.2651 159.115 75.8971 159.184 75.4918 159.184ZM77.7318 156.24L73.8598 147.6H75.0438L78.4678 155.312L77.7318 156.24Z" fill="#828282"/>
<path d="M201.824 136V124.8H206.016C206.965 124.8 207.781 124.955 208.464 125.264C209.147 125.563 209.669 126 210.032 126.576C210.405 127.141 210.592 127.829 210.592 128.64C210.592 129.429 210.405 130.112 210.032 130.688C209.669 131.253 209.147 131.691 208.464 132C207.781 132.299 206.965 132.448 206.016 132.448H202.48L203.008 131.904V136H201.824ZM209.472 136L206.592 131.936H207.872L210.768 136H209.472ZM203.008 132L202.48 131.44H205.984C207.104 131.44 207.952 131.195 208.528 130.704C209.115 130.213 209.408 129.525 209.408 128.64C209.408 127.744 209.115 127.051 208.528 126.56C207.952 126.069 207.104 125.824 205.984 125.824H202.48L203.008 125.264V132ZM216.715 136.08C215.84 136.08 215.072 135.899 214.411 135.536C213.749 135.163 213.232 134.656 212.859 134.016C212.485 133.365 212.299 132.624 212.299 131.792C212.299 130.96 212.475 130.224 212.827 129.584C213.189 128.944 213.68 128.443 214.299 128.08C214.928 127.707 215.632 127.52 216.411 127.52C217.2 127.52 217.899 127.701 218.507 128.064C219.125 128.416 219.611 128.917 219.963 129.568C220.315 130.208 220.491 130.949 220.491 131.792C220.491 131.845 220.485 131.904 220.475 131.968C220.475 132.021 220.475 132.08 220.475 132.144H213.163V131.296H219.867L219.419 131.632C219.419 131.024 219.285 130.485 219.019 130.016C218.763 129.536 218.411 129.163 217.963 128.896C217.515 128.629 216.997 128.496 216.411 128.496C215.835 128.496 215.317 128.629 214.859 128.896C214.4 129.163 214.043 129.536 213.787 130.016C213.531 130.496 213.403 131.045 213.403 131.664V131.84C213.403 132.48 213.541 133.045 213.819 133.536C214.107 134.016 214.501 134.395 215.003 134.672C215.515 134.939 216.096 135.072 216.747 135.072C217.259 135.072 217.733 134.981 218.171 134.8C218.619 134.619 219.003 134.341 219.323 133.968L219.963 134.704C219.589 135.152 219.12 135.493 218.555 135.728C218 135.963 217.387 136.08 216.715 136.08ZM222.995 136V126.544C222.995 125.797 223.213 125.195 223.651 124.736C224.088 124.277 224.717 124.048 225.539 124.048C225.859 124.048 226.168 124.091 226.467 124.176C226.765 124.261 227.016 124.395 227.219 124.576L226.835 125.424C226.675 125.285 226.488 125.184 226.275 125.12C226.061 125.045 225.832 125.008 225.587 125.008C225.107 125.008 224.739 125.141 224.483 125.408C224.227 125.675 224.099 126.069 224.099 126.592V127.872L224.131 128.4V136H222.995ZM221.491 128.544V127.6H226.691V128.544H221.491ZM231.697 136.08C230.982 136.08 230.358 135.947 229.825 135.68C229.291 135.413 228.875 135.013 228.577 134.48C228.289 133.947 228.145 133.28 228.145 132.48V127.6H229.281V132.352C229.281 133.248 229.499 133.925 229.937 134.384C230.385 134.832 231.009 135.056 231.809 135.056C232.395 135.056 232.902 134.939 233.329 134.704C233.766 134.459 234.097 134.107 234.321 133.648C234.555 133.189 234.673 132.64 234.673 132V127.6H235.809V136H234.721V133.696L234.897 134.112C234.63 134.731 234.214 135.216 233.649 135.568C233.094 135.909 232.443 136.08 231.697 136.08ZM243.263 127.52C243.945 127.52 244.543 127.653 245.055 127.92C245.577 128.176 245.983 128.571 246.271 129.104C246.569 129.637 246.719 130.309 246.719 131.12V136H245.583V131.232C245.583 130.347 245.359 129.68 244.911 129.232C244.473 128.773 243.855 128.544 243.055 128.544C242.457 128.544 241.935 128.667 241.487 128.912C241.049 129.147 240.708 129.493 240.463 129.952C240.228 130.4 240.111 130.944 240.111 131.584V136H238.975V127.6H240.063V129.904L239.887 129.472C240.153 128.864 240.58 128.389 241.167 128.048C241.753 127.696 242.452 127.52 243.263 127.52ZM253.131 136.08C252.331 136.08 251.611 135.899 250.971 135.536C250.342 135.173 249.846 134.672 249.483 134.032C249.12 133.381 248.939 132.635 248.939 131.792C248.939 130.939 249.12 130.192 249.483 129.552C249.846 128.912 250.342 128.416 250.971 128.064C251.611 127.701 252.331 127.52 253.131 127.52C253.867 127.52 254.523 127.685 255.099 128.016C255.686 128.347 256.15 128.832 256.491 129.472C256.843 130.101 257.019 130.875 257.019 131.792C257.019 132.699 256.848 133.472 256.507 134.112C256.166 134.752 255.702 135.243 255.115 135.584C254.539 135.915 253.878 136.08 253.131 136.08ZM253.211 135.072C253.808 135.072 254.342 134.939 254.811 134.672C255.291 134.395 255.664 134.011 255.931 133.52C256.208 133.019 256.347 132.443 256.347 131.792C256.347 131.131 256.208 130.555 255.931 130.064C255.664 129.573 255.291 129.195 254.811 128.928C254.342 128.651 253.808 128.512 253.211 128.512C252.624 128.512 252.096 128.651 251.627 128.928C251.158 129.195 250.784 129.573 250.507 130.064C250.23 130.555 250.091 131.131 250.091 131.792C250.091 132.443 250.23 133.019 250.507 133.52C250.784 134.011 251.158 134.395 251.627 134.672C252.096 134.939 252.624 135.072 253.211 135.072ZM256.379 136V133.472L256.491 131.776L256.331 130.08V124.128H257.467V136H256.379ZM262.887 136.08C262.194 136.08 261.538 135.984 260.919 135.792C260.3 135.589 259.815 135.339 259.463 135.04L259.975 134.144C260.316 134.4 260.754 134.624 261.287 134.816C261.82 134.997 262.38 135.088 262.967 135.088C263.767 135.088 264.343 134.965 264.695 134.72C265.047 134.464 265.223 134.128 265.223 133.712C265.223 133.403 265.122 133.163 264.919 132.992C264.727 132.811 264.471 132.677 264.151 132.592C263.831 132.496 263.474 132.416 263.079 132.352C262.684 132.288 262.29 132.213 261.895 132.128C261.511 132.043 261.159 131.92 260.839 131.76C260.519 131.589 260.258 131.36 260.055 131.072C259.863 130.784 259.767 130.4 259.767 129.92C259.767 129.461 259.895 129.051 260.151 128.688C260.407 128.325 260.78 128.043 261.271 127.84C261.772 127.627 262.38 127.52 263.095 127.52C263.639 127.52 264.183 127.595 264.727 127.744C265.271 127.883 265.719 128.069 266.071 128.304L265.575 129.216C265.202 128.96 264.802 128.779 264.375 128.672C263.948 128.555 263.522 128.496 263.095 128.496C262.338 128.496 261.778 128.629 261.415 128.896C261.063 129.152 260.887 129.483 260.887 129.888C260.887 130.208 260.983 130.459 261.175 130.64C261.378 130.821 261.639 130.965 261.959 131.072C262.29 131.168 262.647 131.248 263.031 131.312C263.426 131.376 263.815 131.456 264.199 131.552C264.594 131.637 264.951 131.76 265.271 131.92C265.602 132.069 265.863 132.288 266.055 132.576C266.258 132.853 266.359 133.221 266.359 133.68C266.359 134.171 266.22 134.597 265.943 134.96C265.676 135.312 265.282 135.589 264.759 135.792C264.247 135.984 263.623 136.08 262.887 136.08Z" fill="#828282"/>
<path d="M90.9296 52.1667L90.9293 52.1667L88.3197 51.7715L88.3194 51.7714C88.0692 51.7334 87.86 51.5714 87.7553 51.3489C87.7551 51.3485 87.7549 51.3481 87.7547 51.3476L86.5898 48.8879C86.5898 48.8879 86.5897 48.8878 86.5897 48.8878C86.472 48.6399 86.2438 48.5 85.9995 48.5C85.7557 48.5 85.5282 48.6395 85.4102 48.8876L90.9296 52.1667ZM90.9296 52.1667C91.1724 52.2033 91.3816 52.3775 91.4649 52.6441C91.5488 52.9123 91.4791 53.1939 91.2923 53.3835L91.292 53.3837L89.4081 55.2975C89.4079 55.2978 89.4076 55.298 89.4074 55.2983C89.2322 55.4755 89.1593 55.7227 89.1976 55.9593L89.1978 55.9606L89.6431 58.6659L89.6432 58.6664C89.6894 58.9455 89.5808 59.2114 89.3731 59.3685C89.1687 59.5231 88.9117 59.5413 88.6912 59.4208C88.6912 59.4208 88.6912 59.4208 88.6911 59.4208L86.3572 58.1432L86.357 58.1431C86.1359 58.0223 85.8681 58.0206 85.6447 58.1436C85.6442 58.1438 85.6438 58.1441 85.6433 58.1443L83.3113 59.4208L83.3111 59.421C83.2127 59.4749 83.1092 59.5 83.0094 59.5C82.8792 59.5 82.7469 59.4582 82.6298 59.3697C82.4221 59.2121 82.3133 58.9458 82.3594 58.6674L82.3595 58.6668L82.8048 55.9615L82.805 55.9602C82.8439 55.7198 82.7667 55.475 82.5972 55.3012L82.5972 55.3012L82.5955 55.2995L80.7081 53.384C80.708 53.3839 80.708 53.3839 80.7079 53.3838C80.5211 53.1936 80.4513 52.9116 80.5349 52.6441C80.6183 52.3775 80.8274 52.2033 81.0703 52.1667L81.0706 52.1666L83.6792 51.7715L83.6795 51.7714C83.9334 51.7328 84.1382 51.5684 84.2421 51.3521L84.2432 51.3497L85.4101 48.8879L90.9296 52.1667Z" fill="#EDCA71" stroke="#EDCA71"/>
<path d="M124.93 52.1667L124.929 52.1667L122.32 51.7715L122.319 51.7714C122.069 51.7334 121.86 51.5714 121.755 51.3489C121.755 51.3485 121.755 51.3481 121.755 51.3476L120.59 48.8879C120.59 48.8879 120.59 48.8878 120.59 48.8878C120.472 48.6399 120.244 48.5 119.999 48.5C119.756 48.5 119.528 48.6395 119.41 48.8876L124.93 52.1667ZM124.93 52.1667C125.172 52.2033 125.382 52.3775 125.465 52.6441C125.549 52.9123 125.479 53.1939 125.292 53.3835L125.292 53.3837L123.408 55.2975C123.408 55.2978 123.408 55.298 123.407 55.2983C123.232 55.4755 123.159 55.7227 123.198 55.9593L123.198 55.9606L123.643 58.6659L123.643 58.6664C123.689 58.9455 123.581 59.2114 123.373 59.3685C123.169 59.5231 122.912 59.5413 122.691 59.4208C122.691 59.4208 122.691 59.4208 122.691 59.4208L120.357 58.1432L120.357 58.1431C120.136 58.0223 119.868 58.0206 119.645 58.1436C119.644 58.1438 119.644 58.1441 119.643 58.1443L117.311 59.4208L117.311 59.421C117.213 59.4749 117.109 59.5 117.009 59.5C116.879 59.5 116.747 59.4582 116.63 59.3697C116.422 59.2121 116.313 58.9458 116.359 58.6674L116.36 58.6668L116.805 55.9615L116.805 55.9602C116.844 55.7198 116.767 55.475 116.597 55.3012L116.597 55.3012L116.595 55.2995L114.708 53.384C114.708 53.3839 114.708 53.3839 114.708 53.3838C114.521 53.1936 114.451 52.9116 114.535 52.6441C114.618 52.3775 114.827 52.2033 115.07 52.1667L115.071 52.1666L117.679 51.7715L117.68 51.7714C117.933 51.7328 118.138 51.5684 118.242 51.3521L118.243 51.3497L119.41 48.8879L124.93 52.1667Z" fill="#EDCA71" stroke="#EDCA71"/>
<path d="M107.93 52.1667L107.929 52.1667L105.32 51.7715L105.319 51.7714C105.069 51.7334 104.86 51.5714 104.755 51.3489C104.755 51.3485 104.755 51.3481 104.755 51.3476L103.59 48.8879C103.59 48.8879 103.59 48.8878 103.59 48.8878C103.472 48.6399 103.244 48.5 102.999 48.5C102.756 48.5 102.528 48.6395 102.41 48.8876L107.93 52.1667ZM107.93 52.1667C108.172 52.2033 108.382 52.3775 108.465 52.6441C108.549 52.9123 108.479 53.1939 108.292 53.3835L108.292 53.3837L106.408 55.2975C106.408 55.2978 106.408 55.298 106.407 55.2983C106.232 55.4755 106.159 55.7227 106.198 55.9593L106.198 55.9606L106.643 58.6659L106.643 58.6664C106.689 58.9455 106.581 59.2114 106.373 59.3685C106.169 59.5231 105.912 59.5413 105.691 59.4208C105.691 59.4208 105.691 59.4208 105.691 59.4208L103.357 58.1432L103.357 58.1431C103.136 58.0223 102.868 58.0206 102.645 58.1436C102.644 58.1438 102.644 58.1441 102.643 58.1443L100.311 59.4208L100.311 59.421C100.213 59.4749 100.109 59.5 100.009 59.5C99.8792 59.5 99.7469 59.4582 99.6298 59.3697C99.4221 59.2121 99.3133 58.9458 99.3594 58.6674L99.3595 58.6668L99.8048 55.9615L99.805 55.9602C99.8439 55.7198 99.7667 55.475 99.5972 55.3012L99.5972 55.3012L99.5955 55.2995L97.7081 53.384C97.708 53.3839 97.708 53.3839 97.7079 53.3838C97.5211 53.1936 97.4513 52.9116 97.5349 52.6441C97.6183 52.3775 97.8274 52.2033 98.0703 52.1667L98.0706 52.1666L100.679 51.7715L100.68 51.7714C100.933 51.7328 101.138 51.5684 101.242 51.3521L101.243 51.3497L102.41 48.8879L107.93 52.1667Z" fill="#EDCA71" stroke="#EDCA71"/>
<path d="M141.93 52.1667L141.929 52.1667L139.32 51.7715L139.319 51.7714C139.069 51.7334 138.86 51.5714 138.755 51.3489C138.755 51.3485 138.755 51.3481 138.755 51.3476L137.59 48.8879C137.59 48.8879 137.59 48.8878 137.59 48.8878C137.472 48.6399 137.244 48.5 136.999 48.5C136.756 48.5 136.528 48.6395 136.41 48.8876L141.93 52.1667ZM141.93 52.1667C142.172 52.2033 142.382 52.3775 142.465 52.6441C142.549 52.9123 142.479 53.1939 142.292 53.3835L142.292 53.3837L140.408 55.2975C140.408 55.2978 140.408 55.298 140.407 55.2983C140.232 55.4755 140.159 55.7227 140.198 55.9593L140.198 55.9606L140.643 58.6659L140.643 58.6664C140.689 58.9455 140.581 59.2114 140.373 59.3685C140.169 59.5231 139.912 59.5413 139.691 59.4208C139.691 59.4208 139.691 59.4208 139.691 59.4208L137.357 58.1432L137.357 58.1431C137.136 58.0223 136.868 58.0206 136.645 58.1436C136.644 58.1438 136.644 58.1441 136.643 58.1443L134.311 59.4208L134.311 59.421C134.213 59.4749 134.109 59.5 134.009 59.5C133.879 59.5 133.747 59.4582 133.63 59.3697C133.422 59.2121 133.313 58.9458 133.359 58.6674L133.36 58.6668L133.805 55.9615L133.805 55.9602C133.844 55.7198 133.767 55.475 133.597 55.3012L133.597 55.3012L133.595 55.2995L131.708 53.384C131.708 53.3839 131.708 53.3839 131.708 53.3838C131.521 53.1936 131.451 52.9116 131.535 52.6441C131.618 52.3775 131.827 52.2033 132.07 52.1667L132.071 52.1666L134.679 51.7715L134.68 51.7714C134.933 51.7328 135.138 51.5684 135.242 51.3521L135.243 51.3497L136.41 48.8879L141.93 52.1667Z" fill="#EDCA71" stroke="#EDCA71"/>
<path d="M158.93 52.1667L158.929 52.1667L156.32 51.7715L156.319 51.7714C156.069 51.7334 155.86 51.5714 155.755 51.3489C155.755 51.3485 155.755 51.3481 155.755 51.3476L154.59 48.8879C154.59 48.8879 154.59 48.8878 154.59 48.8878C154.472 48.6399 154.244 48.5 153.999 48.5C153.756 48.5 153.528 48.6395 153.41 48.8876L158.93 52.1667ZM158.93 52.1667C159.172 52.2033 159.382 52.3775 159.465 52.6441C159.549 52.9123 159.479 53.1939 159.292 53.3835L159.292 53.3837L157.408 55.2975C157.408 55.2978 157.408 55.298 157.407 55.2983C157.232 55.4755 157.159 55.7227 157.198 55.9593L157.198 55.9606L157.643 58.6659L157.643 58.6664C157.689 58.9455 157.581 59.2114 157.373 59.3685C157.169 59.5231 156.912 59.5413 156.691 59.4208C156.691 59.4208 156.691 59.4208 156.691 59.4208L154.357 58.1432L154.357 58.1431C154.136 58.0223 153.868 58.0206 153.645 58.1436C153.644 58.1438 153.644 58.1441 153.643 58.1443L151.311 59.4208L151.311 59.421C151.213 59.4749 151.109 59.5 151.009 59.5C150.879 59.5 150.747 59.4582 150.63 59.3697C150.422 59.2121 150.313 58.9458 150.359 58.6674L150.36 58.6668L150.805 55.9615L150.805 55.9602C150.844 55.7198 150.767 55.475 150.597 55.3012L150.597 55.3012L150.595 55.2995L148.708 53.384C148.708 53.3839 148.708 53.3839 148.708 53.3838C148.521 53.1936 148.451 52.9116 148.535 52.6441C148.618 52.3775 148.827 52.2033 149.07 52.1667L149.071 52.1666L151.679 51.7715L151.68 51.7714C151.933 51.7328 152.138 51.5684 152.242 51.3521L152.243 51.3497L153.41 48.8879L158.93 52.1667Z" fill="#EDCA71" stroke="#EDCA71"/>
</svg>
