<svg width="40" height="40" viewBox="0 0 40 40" fill="none" xmlns="http://www.w3.org/2000/svg">
<path d="M20 40C31.0457 40 40 31.0457 40 20C40 8.95431 31.0457 0 20 0C8.9543 0 0 8.95431 0 20C0 31.0457 8.9543 40 20 40Z" fill="#008E86"/>
<path fill-rule="evenodd" clip-rule="evenodd" d="M15.2289 11.5341L8.75593 4.16699L8.38232 7.76458L8.75593 12.2995L10.2874 15.1698L15.2289 11.5341ZM24.7723 11.5341L31.2453 4.16699L31.6189 7.76458L31.2453 12.2995L29.7138 15.1698L24.7723 11.5341Z" fill="#E6C786"/>
<path fill-rule="evenodd" clip-rule="evenodd" d="M20 9.55225L23.6472 10.1078L27.3009 12.4039L29.7132 15.1811L31.2447 19.4827L20 22.2025L8.75537 19.4827L10.2869 15.1811L12.6992 12.4039L16.3529 10.1078L20 9.55225Z" fill="#E55636"/>
<path fill-rule="evenodd" clip-rule="evenodd" d="M16.3529 10.0966L13.6063 7.31586L8.75537 4.16699L10.4254 8.1214L10.9243 11.4846L11.8051 14.8564L14.3777 13.6651L16.0744 11.6571L16.3529 10.0966ZM23.6472 10.0966L26.3937 7.31586L31.2447 4.16699L29.5747 8.1214L29.0758 11.4846L28.1951 14.8564L25.6224 13.6651L23.9258 11.6571L23.6472 10.0966Z" fill="#99250C"/>
<path fill-rule="evenodd" clip-rule="evenodd" d="M13.9554 26.9592L8.64857 25.5293L1.28223 25.3037L5.26655 21.4566L8.75432 19.4594L14.9157 20.7813L17.6163 19.1487L19.999 18.4316L22.3818 19.1487L25.0824 20.7813L31.2437 19.4594L34.7314 21.4566L38.7158 25.3037L31.3495 25.5293L26.0427 26.9592L19.999 29.4175L13.9554 26.9592Z" fill="#E9D6B6"/>
<path fill-rule="evenodd" clip-rule="evenodd" d="M17.5107 30.6202L15.9848 28.7528L13.172 27.2765L7.24805 25.7984L1.28223 25.3102L7.11118 24.6183L13.9293 25.5982L17.9947 27.8201L19.999 28.1462L22.0033 27.8201L26.0687 25.5982L32.8869 24.6183L38.7158 25.3102L32.75 25.7984L26.8261 27.2765L24.0132 28.7528L22.4873 30.6202L19.999 31.3372L17.5107 30.6202Z" fill="#E6C786"/>
<path fill-rule="evenodd" clip-rule="evenodd" d="M19.9984 21.2203L21.8358 21.2539L23.2215 21.877L23.8812 22.9332L23.2389 24.3836L21.7037 24.608L19.9984 24.1723L18.2931 24.608L16.7581 24.3836L16.1157 22.9332L16.7754 21.877L18.161 21.2539L19.9984 21.2203Z" fill="black"/>
</svg>
