<svg width="40" height="40" viewBox="0 0 40 40" fill="none" xmlns="http://www.w3.org/2000/svg">
<g clip-path="url(#clip0_5076_184054)">
<path d="M20 40C31.0457 40 40 31.0457 40 20C40 8.95431 31.0457 0 20 0C8.95431 0 0 8.95431 0 20C0 31.0457 8.95431 40 20 40Z" fill="#454545"/>
<path d="M19.9979 38.2771C30.0933 38.2771 38.2771 30.0933 38.2771 19.9979C38.2771 9.90262 30.0933 1.71875 19.9979 1.71875C9.90263 1.71875 1.71875 9.90262 1.71875 19.9979C1.71875 30.0933 9.90263 38.2771 19.9979 38.2771Z" fill="#B1B1B1"/>
<path d="M19.9991 36.6095C29.1727 36.6095 36.6095 29.1727 36.6095 19.9991C36.6095 10.8254 29.1727 3.38867 19.9991 3.38867C10.8254 3.38867 3.38867 10.8254 3.38867 19.9991C3.38867 29.1727 10.8254 36.6095 19.9991 36.6095Z" fill="#808080"/>
<path fill-rule="evenodd" clip-rule="evenodd" d="M12.0996 1.624C14.5228 0.5792 17.1948 0 20.0004 0C22.806 0 25.478 0.5792 27.9012 1.624L27.9012 20C27.9012 24.3608 24.3612 27.9008 20.0004 27.9008C15.6396 27.9008 12.0996 24.3608 12.0996 20L12.0996 1.624Z" fill="#222222"/>
<path d="M20.0018 26.0778C23.3575 26.0778 26.0778 23.3575 26.0778 20.0018C26.0778 16.6461 23.3575 13.9258 20.0018 13.9258C16.6461 13.9258 13.9258 16.6461 13.9258 20.0018C13.9258 23.3575 16.6461 26.0778 20.0018 26.0778Z" fill="#3F3F3F"/>
<path d="M20.0027 24.5659C22.5228 24.5659 24.5659 22.5228 24.5659 20.0027C24.5659 17.4825 22.5228 15.4395 20.0027 15.4395C17.4825 15.4395 15.4395 17.4825 15.4395 20.0027C15.4395 22.5228 17.4825 24.5659 20.0027 24.5659Z" fill="#F7F7F7"/>
<path d="M19.996 24.1424C22.286 24.1424 24.1424 22.286 24.1424 19.996C24.1424 17.706 22.286 15.8496 19.996 15.8496C17.706 15.8496 15.8496 17.706 15.8496 19.996C15.8496 22.286 17.706 24.1424 19.996 24.1424Z" fill="#262626"/>
<path d="M19.9966 11.8975C20.4963 11.8975 20.9014 11.4924 20.9014 10.9927C20.9014 10.493 20.4963 10.0879 19.9966 10.0879C19.4969 10.0879 19.0918 10.493 19.0918 10.9927C19.0918 11.4924 19.4969 11.8975 19.9966 11.8975Z" fill="#00FF85"/>
<path fill-rule="evenodd" clip-rule="evenodd" d="M21.172 2.55856C21.172 2.37536 21.0232 2.22656 20.8392 2.22656L19.1512 2.22656C18.9672 2.22656 18.8184 2.37536 18.8184 2.55856C18.8184 2.74256 18.9672 2.89136 19.1512 2.89136L20.8392 2.89136C21.0232 2.89136 21.172 2.74256 21.172 2.55856Z" fill="#B1B1B1"/>
</g>
<defs>
<clipPath id="clip0_5076_184054">
<rect width="40" height="40" fill="white"/>
</clipPath>
</defs>
</svg>
