<svg width="380" height="380" viewBox="0 0 380 380" fill="none" xmlns="http://www.w3.org/2000/svg">
<g clip-path="url(#clip0_10_3067)">
<rect width="380" height="380" rx="20" fill="#333333"/>
<path d="M170.304 171.559L71.4467 129.191C63.3656 125.728 63.3656 114.272 71.4467 110.809L170.304 68.4411C182.881 63.0508 197.119 63.0508 209.696 68.4411L308.553 110.809C316.634 114.272 316.634 125.728 308.553 129.191L209.696 171.559C197.118 176.949 182.881 176.949 170.304 171.559Z" fill="#EDCA71"/>
<path d="M189.404 114.8L185.74 126H182.956L180.492 118.416L177.948 126H175.18L171.5 114.8H174.188L176.716 122.672L179.356 114.8H181.756L184.316 122.736L186.924 114.8H189.404ZM190.75 117.44H198.366V119.392H190.75V117.44ZM190.75 121.408H198.366V123.36H190.75V121.408ZM203.8 119.008C205.379 119.008 206.541 119.323 207.288 119.952C208.045 120.581 208.424 121.424 208.424 122.48C208.424 123.163 208.253 123.787 207.912 124.352C207.571 124.907 207.048 125.355 206.344 125.696C205.651 126.027 204.792 126.192 203.768 126.192C202.979 126.192 202.2 126.091 201.432 125.888C200.675 125.675 200.029 125.376 199.496 124.992L200.52 123.008C200.947 123.328 201.437 123.579 201.992 123.76C202.547 123.931 203.117 124.016 203.704 124.016C204.355 124.016 204.867 123.888 205.24 123.632C205.613 123.376 205.8 123.019 205.8 122.56C205.8 122.08 205.603 121.717 205.208 121.472C204.824 121.227 204.152 121.104 203.192 121.104H200.328L200.904 114.8H207.736V116.88H203.064L202.888 119.008H203.8Z" fill="#4F4F4F"/>
<path d="M10 119C9.44772 119 9 119.448 9 120C9 120.552 9.44772 121 10 121L10 119ZM50 120L40 114.226L40 125.774L50 120ZM10 121L41 121L41 119L10 119L10 121Z" fill="white"/>
<path d="M191 186C191 185.448 190.552 185 190 185C189.448 185 189 185.448 189 186L191 186ZM190 216L195.774 206L184.226 206L190 216ZM189 186L189 207L191 207L191 186L189 186Z" fill="white"/>
<path d="M191 236C191 235.448 190.552 235 190 235C189.448 235 189 235.448 189 236L191 236ZM190 266L195.774 256L184.226 256L190 266ZM189 236L189 257L191 257L191 236L189 236Z" fill="white"/>
<path d="M330 119C329.448 119 329 119.448 329 120C329 120.552 329.448 121 330 121L330 119ZM348.5 120L348.5 121C349.052 121 349.5 120.552 349.5 120L348.5 120ZM348.5 37.5L342.726 47.5L354.274 47.5L348.5 37.5ZM330 121L348.5 121L348.5 119L330 119L330 121ZM349.5 120L349.5 46.5L347.5 46.5L347.5 120L349.5 120Z" fill="white"/>
<path d="M312 21C312.552 21 313 20.5523 313 20C313 19.4477 312.552 19 312 19L312 21ZM190 20L190 19C189.735 19 189.48 19.1053 189.293 19.2929C189.105 19.4804 189 19.7348 189 20L190 20ZM190 61.5L195.774 51.5L184.226 51.5L190 61.5ZM312 19L190 19L190 21L312 21L312 19ZM189 20L189 52.5L191 52.5L191 20L189 20Z" fill="white"/>
<rect x="50" y="280" width="280" height="80" rx="20" fill="#69E485"/>
<path d="M141.523 326V314.8H144.115V326H141.523ZM146.773 326V314.8H148.917L155.525 322.864H154.485V314.8H157.045V326H154.917L148.293 317.936H149.333V326H146.773ZM163.375 326.192C162.479 326.192 161.621 326.075 160.799 325.84C159.978 325.595 159.317 325.28 158.815 324.896L159.695 322.944C160.175 323.285 160.741 323.568 161.391 323.792C162.053 324.005 162.719 324.112 163.391 324.112C163.903 324.112 164.314 324.064 164.623 323.968C164.943 323.861 165.178 323.717 165.327 323.536C165.477 323.355 165.551 323.147 165.551 322.912C165.551 322.613 165.434 322.379 165.199 322.208C164.965 322.027 164.655 321.883 164.271 321.776C163.887 321.659 163.461 321.552 162.991 321.456C162.533 321.349 162.069 321.221 161.599 321.072C161.141 320.923 160.719 320.731 160.335 320.496C159.951 320.261 159.637 319.952 159.391 319.568C159.157 319.184 159.039 318.693 159.039 318.096C159.039 317.456 159.21 316.875 159.551 316.352C159.903 315.819 160.426 315.397 161.119 315.088C161.823 314.768 162.703 314.608 163.759 314.608C164.463 314.608 165.157 314.693 165.839 314.864C166.522 315.024 167.125 315.269 167.647 315.6L166.847 317.568C166.325 317.269 165.802 317.051 165.279 316.912C164.757 316.763 164.245 316.688 163.743 316.688C163.242 316.688 162.831 316.747 162.511 316.864C162.191 316.981 161.962 317.136 161.823 317.328C161.685 317.509 161.615 317.723 161.615 317.968C161.615 318.256 161.733 318.491 161.967 318.672C162.202 318.843 162.511 318.981 162.895 319.088C163.279 319.195 163.701 319.301 164.159 319.408C164.629 319.515 165.093 319.637 165.551 319.776C166.021 319.915 166.447 320.101 166.831 320.336C167.215 320.571 167.525 320.88 167.759 321.264C168.005 321.648 168.127 322.133 168.127 322.72C168.127 323.349 167.951 323.925 167.599 324.448C167.247 324.971 166.719 325.392 166.015 325.712C165.322 326.032 164.442 326.192 163.375 326.192ZM172.062 326V316.912H168.478V314.8H178.238V316.912H174.654V326H172.062ZM179.633 326V314.8H184.481C185.483 314.8 186.347 314.965 187.073 315.296C187.798 315.616 188.358 316.08 188.753 316.688C189.147 317.296 189.345 318.021 189.345 318.864C189.345 319.696 189.147 320.416 188.753 321.024C188.358 321.621 187.798 322.08 187.073 322.4C186.347 322.72 185.483 322.88 184.481 322.88H181.073L182.225 321.744V326H179.633ZM186.753 326L183.953 321.936H186.721L189.553 326H186.753ZM182.225 322.032L181.073 320.816H184.337C185.137 320.816 185.734 320.645 186.129 320.304C186.523 319.952 186.721 319.472 186.721 318.864C186.721 318.245 186.523 317.765 186.129 317.424C185.734 317.083 185.137 316.912 184.337 316.912H181.073L182.225 315.68V322.032ZM196.374 326.192C194.785 326.192 193.542 325.749 192.646 324.864C191.75 323.979 191.302 322.715 191.302 321.072V314.8H193.894V320.976C193.894 322.043 194.113 322.811 194.55 323.28C194.988 323.749 195.601 323.984 196.39 323.984C197.18 323.984 197.793 323.749 198.23 323.28C198.668 322.811 198.886 322.043 198.886 320.976V314.8H201.446V321.072C201.446 322.715 200.998 323.979 200.102 324.864C199.206 325.749 197.964 326.192 196.374 326.192ZM209.368 326.192C208.504 326.192 207.698 326.053 206.952 325.776C206.216 325.488 205.576 325.083 205.032 324.56C204.488 324.037 204.061 323.424 203.752 322.72C203.453 322.016 203.304 321.243 203.304 320.4C203.304 319.557 203.453 318.784 203.752 318.08C204.061 317.376 204.488 316.763 205.032 316.24C205.586 315.717 206.232 315.317 206.968 315.04C207.704 314.752 208.509 314.608 209.384 314.608C210.354 314.608 211.229 314.779 212.008 315.12C212.797 315.451 213.458 315.941 213.992 316.592L212.328 318.128C211.944 317.691 211.517 317.365 211.048 317.152C210.578 316.928 210.066 316.816 209.512 316.816C208.989 316.816 208.509 316.901 208.072 317.072C207.634 317.243 207.256 317.488 206.936 317.808C206.616 318.128 206.365 318.507 206.184 318.944C206.013 319.381 205.928 319.867 205.928 320.4C205.928 320.933 206.013 321.419 206.184 321.856C206.365 322.293 206.616 322.672 206.936 322.992C207.256 323.312 207.634 323.557 208.072 323.728C208.509 323.899 208.989 323.984 209.512 323.984C210.066 323.984 210.578 323.877 211.048 323.664C211.517 323.44 211.944 323.104 212.328 322.656L213.992 324.192C213.458 324.843 212.797 325.339 212.008 325.68C211.229 326.021 210.349 326.192 209.368 326.192ZM208.504 329.712C208.226 329.712 207.954 329.68 207.688 329.616C207.432 329.552 207.208 329.472 207.016 329.376L207.4 328.304C207.56 328.379 207.725 328.437 207.896 328.48C208.066 328.523 208.248 328.544 208.44 328.544C208.738 328.544 208.952 328.496 209.08 328.4C209.208 328.304 209.272 328.181 209.272 328.032C209.272 327.893 209.208 327.781 209.08 327.696C208.962 327.611 208.765 327.568 208.488 327.568H207.944L208.36 325.872H209.688L209.464 326.8C209.944 326.853 210.296 327.003 210.52 327.248C210.744 327.504 210.856 327.797 210.856 328.128C210.856 328.608 210.642 328.992 210.216 329.28C209.789 329.568 209.218 329.712 208.504 329.712ZM214.067 326L219.059 314.8H221.619L226.627 326H223.907L219.811 316.112H220.835L216.723 326H214.067ZM216.563 323.6L217.251 321.632H223.011L223.715 323.6H216.563ZM221.539 313.936C221.262 313.936 221.016 313.888 220.803 313.792C220.59 313.685 220.398 313.568 220.227 313.44C220.056 313.301 219.896 313.184 219.747 313.088C219.598 312.981 219.448 312.928 219.299 312.928C219.086 312.928 218.91 313.008 218.771 313.168C218.632 313.317 218.552 313.536 218.531 313.824H217.267C217.288 313.109 217.464 312.544 217.795 312.128C218.126 311.701 218.574 311.488 219.139 311.488C219.416 311.488 219.662 311.541 219.875 311.648C220.088 311.744 220.28 311.861 220.451 312C220.632 312.139 220.798 312.261 220.947 312.368C221.096 312.464 221.24 312.512 221.379 312.512C221.603 312.512 221.784 312.437 221.923 312.288C222.062 312.128 222.136 311.915 222.147 311.648H223.411C223.4 312.331 223.224 312.885 222.883 313.312C222.552 313.728 222.104 313.936 221.539 313.936ZM233.073 326.192C232.187 326.192 231.366 326.048 230.609 325.76C229.862 325.472 229.211 325.067 228.657 324.544C228.113 324.021 227.686 323.408 227.377 322.704C227.078 322 226.929 321.232 226.929 320.4C226.929 319.568 227.078 318.8 227.377 318.096C227.686 317.392 228.118 316.779 228.673 316.256C229.227 315.733 229.878 315.328 230.625 315.04C231.371 314.752 232.182 314.608 233.057 314.608C233.942 314.608 234.753 314.752 235.489 315.04C236.235 315.328 236.881 315.733 237.425 316.256C237.979 316.779 238.411 317.392 238.721 318.096C239.03 318.789 239.185 319.557 239.185 320.4C239.185 321.232 239.03 322.005 238.721 322.72C238.411 323.424 237.979 324.037 237.425 324.56C236.881 325.072 236.235 325.472 235.489 325.76C234.753 326.048 233.947 326.192 233.073 326.192ZM233.057 323.984C233.558 323.984 234.017 323.899 234.433 323.728C234.859 323.557 235.233 323.312 235.553 322.992C235.873 322.672 236.118 322.293 236.289 321.856C236.47 321.419 236.561 320.933 236.561 320.4C236.561 319.867 236.47 319.381 236.289 318.944C236.118 318.507 235.873 318.128 235.553 317.808C235.243 317.488 234.875 317.243 234.449 317.072C234.022 316.901 233.558 316.816 233.057 316.816C232.555 316.816 232.091 316.901 231.665 317.072C231.249 317.243 230.881 317.488 230.561 317.808C230.241 318.128 229.99 318.507 229.809 318.944C229.638 319.381 229.553 319.867 229.553 320.4C229.553 320.923 229.638 321.408 229.809 321.856C229.99 322.293 230.235 322.672 230.545 322.992C230.865 323.312 231.238 323.557 231.665 323.728C232.091 323.899 232.555 323.984 233.057 323.984Z" fill="#4F4F4F"/>
<path d="M321.57 26V14.8H323.714L330.322 22.864H329.282V14.8H331.842V26H329.714L323.09 17.936H324.13V26H321.57ZM333.02 26L338.012 14.8H340.572L345.58 26H342.86L338.764 16.112H339.788L335.676 26H333.02ZM335.516 23.6L336.204 21.632H341.964L342.668 23.6H335.516ZM340.492 13.936C340.215 13.936 339.969 13.888 339.756 13.792C339.543 13.6853 339.351 13.568 339.18 13.44C339.009 13.3013 338.849 13.184 338.7 13.088C338.551 12.9813 338.401 12.928 338.252 12.928C338.039 12.928 337.863 13.008 337.724 13.168C337.585 13.3173 337.505 13.536 337.484 13.824H336.22C336.241 13.1093 336.417 12.544 336.748 12.128C337.079 11.7013 337.527 11.488 338.092 11.488C338.369 11.488 338.615 11.5413 338.828 11.648C339.041 11.744 339.233 11.8613 339.404 12C339.585 12.1387 339.751 12.2613 339.9 12.368C340.049 12.464 340.193 12.512 340.332 12.512C340.556 12.512 340.737 12.4373 340.876 12.288C341.015 12.128 341.089 11.9147 341.1 11.648H342.364C342.353 12.3307 342.177 12.8853 341.836 13.312C341.505 13.728 341.057 13.936 340.492 13.936ZM352.026 26.192C351.14 26.192 350.319 26.048 349.562 25.76C348.815 25.472 348.164 25.0667 347.61 24.544C347.066 24.0213 346.639 23.408 346.33 22.704C346.031 22 345.882 21.232 345.882 20.4C345.882 19.568 346.031 18.8 346.33 18.096C346.639 17.392 347.071 16.7787 347.626 16.256C348.18 15.7333 348.831 15.328 349.578 15.04C350.324 14.752 351.135 14.608 352.01 14.608C352.895 14.608 353.706 14.752 354.442 15.04C355.188 15.328 355.834 15.7333 356.378 16.256C356.932 16.7787 357.364 17.392 357.674 18.096C357.983 18.7893 358.138 19.5573 358.138 20.4C358.138 21.232 357.983 22.0053 357.674 22.72C357.364 23.424 356.932 24.0373 356.378 24.56C355.834 25.072 355.188 25.472 354.442 25.76C353.706 26.048 352.9 26.192 352.026 26.192ZM352.01 23.984C352.511 23.984 352.97 23.8987 353.386 23.728C353.812 23.5573 354.186 23.312 354.506 22.992C354.826 22.672 355.071 22.2933 355.242 21.856C355.423 21.4187 355.514 20.9333 355.514 20.4C355.514 19.8667 355.423 19.3813 355.242 18.944C355.071 18.5067 354.826 18.128 354.506 17.808C354.196 17.488 353.828 17.2427 353.402 17.072C352.975 16.9013 352.511 16.816 352.01 16.816C351.508 16.816 351.044 16.9013 350.618 17.072C350.202 17.2427 349.834 17.488 349.514 17.808C349.194 18.128 348.943 18.5067 348.762 18.944C348.591 19.3813 348.506 19.8667 348.506 20.4C348.506 20.9227 348.591 21.408 348.762 21.856C348.943 22.2933 349.188 22.672 349.498 22.992C349.818 23.312 350.191 23.5573 350.618 23.728C351.044 23.8987 351.508 23.984 352.01 23.984Z" fill="white"/>
<path d="M180.141 232.192C179.245 232.192 178.386 232.075 177.565 231.84C176.743 231.595 176.082 231.28 175.581 230.896L176.461 228.944C176.941 229.285 177.506 229.568 178.157 229.792C178.818 230.005 179.485 230.112 180.157 230.112C180.669 230.112 181.079 230.064 181.389 229.968C181.709 229.861 181.943 229.717 182.093 229.536C182.242 229.355 182.317 229.147 182.317 228.912C182.317 228.613 182.199 228.379 181.965 228.208C181.73 228.027 181.421 227.883 181.037 227.776C180.653 227.659 180.226 227.552 179.757 227.456C179.298 227.349 178.834 227.221 178.365 227.072C177.906 226.923 177.485 226.731 177.101 226.496C176.717 226.261 176.402 225.952 176.157 225.568C175.922 225.184 175.805 224.693 175.805 224.096C175.805 223.456 175.975 222.875 176.317 222.352C176.669 221.819 177.191 221.397 177.885 221.088C178.589 220.768 179.469 220.608 180.525 220.608C181.229 220.608 181.922 220.693 182.605 220.864C183.287 221.024 183.89 221.269 184.413 221.6L183.613 223.568C183.09 223.269 182.567 223.051 182.045 222.912C181.522 222.763 181.01 222.688 180.509 222.688C180.007 222.688 179.597 222.747 179.277 222.864C178.957 222.981 178.727 223.136 178.589 223.328C178.45 223.509 178.381 223.723 178.381 223.968C178.381 224.256 178.498 224.491 178.733 224.672C178.967 224.843 179.277 224.981 179.661 225.088C180.045 225.195 180.466 225.301 180.925 225.408C181.394 225.515 181.858 225.637 182.317 225.776C182.786 225.915 183.213 226.101 183.597 226.336C183.981 226.571 184.29 226.88 184.525 227.264C184.77 227.648 184.893 228.133 184.893 228.72C184.893 229.349 184.717 229.925 184.365 230.448C184.013 230.971 183.485 231.392 182.781 231.712C182.087 232.032 181.207 232.192 180.141 232.192ZM186.664 232V220.8H189.256V232H186.664ZM191.914 232V220.8H194.058L198.826 228.704H197.69L202.378 220.8H204.506L204.538 232H202.106L202.09 224.528H202.538L198.794 230.816H197.626L193.802 224.528H194.346V232H191.914Z" fill="white"/>
</g>
<defs>
<clipPath id="clip0_10_3067">
<rect width="380" height="380" rx="20" fill="white"/>
</clipPath>
</defs>
</svg>
