<svg width="64" height="64" viewBox="0 0 64 64" fill="none" xmlns="http://www.w3.org/2000/svg">
<path d="M45.9167 13.3333C47.6656 13.3333 49.0833 14.7511 49.0833 16.5V16.5C49.0833 18.2489 47.6656 19.6667 45.9167 19.6667L39.5833 19.6667C37.8344 19.6667 36.4167 18.2489 36.4167 16.5V16.5C36.4167 14.7511 37.8344 13.3333 39.5833 13.3333L45.9167 13.3333Z" fill="#333333"/>
<path d="M20.5833 13.3333C22.3322 13.3333 23.75 14.7511 23.75 16.5V16.5C23.75 18.2489 22.3322 19.6667 20.5833 19.6667L14.25 19.6667C12.5011 19.6667 11.0833 18.2489 11.0833 16.5V16.5C11.0833 14.7511 12.5011 13.3333 14.25 13.3333L20.5833 13.3333Z" fill="#333333"/>
<path d="M45.9167 45C47.6656 45 49.0833 46.4178 49.0833 48.1667V48.1667C49.0833 49.9156 47.6656 51.3333 45.9167 51.3333L39.5833 51.3333C37.8344 51.3333 36.4167 49.9156 36.4167 48.1667V48.1667C36.4167 46.4178 37.8344 45 39.5833 45L45.9167 45Z" fill="#333333"/>
<path d="M20.5833 45C22.3322 45 23.75 46.4178 23.75 48.1667V48.1667C23.75 49.9156 22.3322 51.3333 20.5833 51.3333L14.25 51.3333C12.5011 51.3333 11.0833 49.9156 11.0833 48.1667V48.1667C11.0833 46.4178 12.5011 45 14.25 45L20.5833 45Z" fill="#333333"/>
<path d="M45.4978 17.4625C51.2933 18.7504 55.4167 23.8907 55.4167 29.8275L55.4167 34.8392C55.4167 40.776 51.2933 45.9163 45.4978 47.2042L43.8813 47.5634C42.077 47.9644 40.2342 48.1667 38.3858 48.1667L14.25 48.1667C10.7522 48.1667 7.91667 45.3311 7.91667 41.8333L7.91667 22.8333C7.91667 19.3355 10.7522 16.5 14.25 16.5L38.3858 16.5C40.2342 16.5 42.077 16.7023 43.8813 17.1033L45.4978 17.4625Z" fill="#E78CFE"/>
<path d="M13.1944 19.6667C15.5263 19.6667 17.4167 21.557 17.4167 23.8889L17.4167 40.7778C17.4167 43.1096 15.5263 45 13.1944 45V45C12.0285 45 11.0833 44.0548 11.0833 42.8889L11.0833 21.7778C11.0833 20.6118 12.0285 19.6667 13.1944 19.6667V19.6667Z" fill="#4F4F4F"/>
<path d="M34.3056 45C31.9737 45 30.0833 43.1096 30.0833 40.7778L30.0833 23.8889C30.0833 21.557 31.9737 19.6667 34.3056 19.6667V19.6667C35.4715 19.6667 36.4167 20.6118 36.4167 21.7778L36.4167 42.8889C36.4167 44.0548 35.4715 45 34.3056 45V45Z" fill="#4F4F4F"/>
<path d="M30.0833 19.1389C30.0833 20.3048 29.1382 21.25 27.9722 21.25L19.5278 21.25C18.3618 21.25 17.4167 20.3048 17.4167 19.1389V19.1389C17.4167 18.5559 17.8893 18.0833 18.4722 18.0833L29.0278 18.0833C29.6107 18.0833 30.0833 18.5559 30.0833 19.1389V19.1389Z" fill="#4F4F4F"/>
<path d="M17.4167 45.5278C17.4167 44.3618 18.3618 43.4167 19.5278 43.4167L27.9722 43.4167C29.1382 43.4167 30.0833 44.3618 30.0833 45.5278V45.5278C30.0833 46.1107 29.6107 46.5833 29.0278 46.5833L18.4722 46.5833C17.8893 46.5833 17.4167 46.1107 17.4167 45.5278V45.5278Z" fill="#4F4F4F"/>
<rect opacity="0.25" x="28.5" y="22.8333" width="19" height="9.5" rx="3.16667" transform="rotate(90 28.5 22.8333)" fill="white"/>
<path opacity="0.25" d="M50.0847 23.6949C51.3778 24.1259 52.25 25.336 52.25 26.6991L52.25 37.9676C52.25 39.3306 51.3778 40.5407 50.0847 40.9718L42.1681 43.6107C40.1175 44.2942 38 42.7679 38 40.6065L38 24.0602C38 21.8988 40.1175 20.3725 42.1681 21.056L50.0847 23.6949Z" fill="white"/>
</svg>
