<svg width="380" height="190" viewBox="0 0 380 190" fill="none" xmlns="http://www.w3.org/2000/svg" shape-rendering="crispEdges">
<g stroke-linejoin="round">
<rect width="63.3333" height="63.3333" transform="translate(380 126.667) rotate(-180)" fill="#4F4F4F"/>
<rect x="373.667" y="126.667" width="6.33333" height="6.33333" transform="rotate(-180 373.667 126.667)" fill="#333333"/>
<rect x="373.667" y="114" width="6.33333" height="6.33333" transform="rotate(-180 373.667 114)" fill="#333333"/>
<rect x="380" y="120.333" width="6.33333" height="6.33333" transform="rotate(-180 380 120.333)" fill="#333333"/>
<rect x="373.667" y="101.333" width="6.33333" height="6.33333" transform="rotate(-180 373.667 101.333)" fill="#333333"/>
<rect x="380" y="107.667" width="6.33333" height="6.33333" transform="rotate(-180 380 107.667)" fill="#333333"/>
<rect x="373.667" y="88.6667" width="6.33333" height="6.33333" transform="rotate(-180 373.667 88.6667)" fill="#333333"/>
<rect x="380" y="95" width="6.33333" height="6.33333" transform="rotate(-180 380 95)" fill="#333333"/>
<rect x="373.667" y="76" width="6.33333" height="6.33333" transform="rotate(-180 373.667 76)" fill="#333333"/>
<rect x="380" y="82.3334" width="6.33333" height="6.33333" transform="rotate(-180 380 82.3334)" fill="#333333"/>
<rect x="380" y="69.6668" width="6.33333" height="6.33333" transform="rotate(-180 380 69.6668)" fill="#333333"/>
<rect x="373.667" y="120.333" width="6.33333" height="6.33333" transform="rotate(-180 373.667 120.333)" fill="#F2F2F2"/>
<rect x="380" y="126.667" width="6.33333" height="6.33333" transform="rotate(-180 380 126.667)" fill="#F2F2F2"/>
<rect x="373.667" y="107.667" width="6.33333" height="6.33333" transform="rotate(-180 373.667 107.667)" fill="#F2F2F2"/>
<rect x="380" y="114" width="6.33333" height="6.33333" transform="rotate(-180 380 114)" fill="#F2F2F2"/>
<rect x="373.667" y="95" width="6.33333" height="6.33333" transform="rotate(-180 373.667 95)" fill="#F2F2F2"/>
<rect x="380" y="101.333" width="6.33333" height="6.33333" transform="rotate(-180 380 101.333)" fill="#F2F2F2"/>
<rect x="373.667" y="82.3334" width="6.33333" height="6.33333" transform="rotate(-180 373.667 82.3334)" fill="#F2F2F2"/>
<rect x="380" y="88.6667" width="6.33333" height="6.33333" transform="rotate(-180 380 88.6667)" fill="#F2F2F2"/>
<rect x="373.667" y="69.6668" width="6.33333" height="6.33333" transform="rotate(-180 373.667 69.6668)" fill="#F2F2F2"/>
<rect x="380" y="76" width="6.33333" height="6.33333" transform="rotate(-180 380 76)" fill="#F2F2F2"/>
<path d="M364.167 107.081L357.517 107.097L362.995 110.358L362.995 111.514L357.659 114.76L364.167 114.76L364.167 117.167L353.083 117.167L353.083 115.045L359.971 110.897L353.083 106.812L353.083 104.706L364.167 104.674L364.167 107.081Z" fill="#00D8CC"/>
<path d="M362.108 94.2084L364.167 94.2084L364.167 102.79L353.083 102.79L353.083 94.4142L355.142 94.4142L355.142 100.241L357.548 100.241L357.548 95.095L359.543 95.095L359.543 100.241L362.108 100.241L362.108 94.2084Z" fill="#00D8CC"/>
<path d="M355.173 89.2367L355.173 92.7834L353.083 92.7834L353.083 83.125L355.173 83.125L355.173 86.6717L364.167 86.6717L364.167 89.2367L355.173 89.2367Z" fill="#00D8CC"/>
<path d="M361.792 76.5067L361.792 81.6525L364.167 82.6342L364.167 85.2625L353.083 80.3225L353.083 77.7892L364.167 72.8334L364.167 75.525L361.792 76.5067ZM359.844 77.3142L355.601 79.0717L359.844 80.8292L359.844 77.3142Z" fill="#00D8CC"/>
</g>
<rect width="63.3333" height="63.3333" transform="translate(190 63.3333) rotate(90)" fill="#4F4F4F"/>
<rect x="181.75" y="93.75" width="3.16667" height="15.8333" transform="rotate(90 181.75 93.75)" fill="#EDCA71"/>
<rect x="150.083" y="93.75" width="3.16667" height="15.8333" transform="rotate(90 150.083 93.75)" fill="#EDCA71"/>
<rect width="63.3333" height="63.3333" transform="translate(253.333 63.3333) rotate(90)" fill="#4F4F4F"/>
<rect x="245.083" y="93.75" width="3.16667" height="15.8333" transform="rotate(90 245.083 93.75)" fill="#EDCA71"/>
<rect x="213.417" y="93.75" width="3.16667" height="15.8333" transform="rotate(90 213.417 93.75)" fill="#EDCA71"/>
<rect width="63.3333" height="63.3333" transform="translate(316.667 63.3333) rotate(90)" fill="#4F4F4F"/>
<rect x="308.417" y="93.75" width="3.16667" height="15.8333" transform="rotate(90 308.417 93.75)" fill="#EDCA71"/>
<rect x="276.75" y="93.75" width="3.16667" height="15.8333" transform="rotate(90 276.75 93.75)" fill="#EDCA71"/>
<rect width="63.3333" height="63.3333" transform="translate(126.667 63.3333) rotate(90)" fill="#4F4F4F"/>
<rect x="118.417" y="93.75" width="3.16667" height="15.8333" transform="rotate(90 118.417 93.75)" fill="#EDCA71"/>
<rect x="86.7499" y="93.75" width="3.16667" height="15.8333" transform="rotate(90 86.7499 93.75)" fill="#EDCA71"/>
<g stroke-linejoin="round">
<rect width="63.3333" height="63.3333" transform="translate(0 190) rotate(-90)" fill="#BDBDBD"/>
<rect x="15.8334" y="174.167" width="47.5" height="47.5" transform="rotate(-90 15.8334 174.167)" fill="#008E86"/>
<rect x="47.5" y="126.667" width="15.8333" height="15.8333" fill="#BDBDBD"/>
</g>
<g stroke-linejoin="round">
<rect width="63.3333" height="63.3333" fill="#BDBDBD"/>
<rect x="15.8334" y="15.8333" width="47.5" height="47.5" fill="#008E86"/>
<rect x="63.3334" y="47.5" width="15.8333" height="15.8333" transform="rotate(90 63.3334 47.5)" fill="#BDBDBD"/>
</g>
<g stroke-linejoin="round">
<rect width="63.3333" height="63.3333" transform="translate(380 126.667) rotate(90)" fill="#BDBDBD"/>
<rect x="364.167" y="142.5" width="31.6667" height="47.5" transform="rotate(90 364.167 142.5)" fill="#008E86"/>
</g>
<g stroke-linejoin="round">
<rect width="63.3333" height="63.3333" transform="translate(380) rotate(90)" fill="#BDBDBD"/>
<rect x="364.167" y="15.8333" width="31.6667" height="47.5" transform="rotate(90 364.167 15.8333)" fill="#008E86"/>
</g>
<g stroke-linejoin="round">
<rect width="63.3333" height="63.3333" transform="translate(126.667 126.667) rotate(90)" fill="#BDBDBD"/>
<rect x="126.667" y="142.5" width="31.6667" height="63.3333" transform="rotate(90 126.667 142.5)" fill="#008E86"/>
</g>
<g stroke-linejoin="round">
<rect width="63.3333" height="63.3333" transform="translate(126.667) rotate(90)" fill="#BDBDBD"/>
<rect x="126.667" y="15.8333" width="31.6667" height="63.3333" transform="rotate(90 126.667 15.8333)" fill="#008E86"/>
</g>
<g stroke-linejoin="round">
<rect width="63.3333" height="63.3333" transform="translate(190 126.667) rotate(90)" fill="#BDBDBD"/>
<rect x="190" y="142.5" width="31.6667" height="63.3333" transform="rotate(90 190 142.5)" fill="#008E86"/>
</g>
<g stroke-linejoin="round">
<rect width="63.3333" height="63.3333" transform="translate(253.333 126.667) rotate(90)" fill="#BDBDBD"/>
<rect x="253.333" y="142.5" width="31.6667" height="63.3333" transform="rotate(90 253.333 142.5)" fill="#008E86"/>
</g>
<g stroke-linejoin="round">
<rect width="63.3333" height="63.3333" transform="translate(316.667 126.667) rotate(90)" fill="#BDBDBD"/>
<rect x="316.667" y="142.5" width="31.6667" height="63.3333" transform="rotate(90 316.667 142.5)" fill="#008E86"/>
</g>
<g stroke-linejoin="round">
<rect width="63.3333" height="63.3333" transform="translate(190) rotate(90)" fill="#BDBDBD"/>
<rect x="190" y="15.8333" width="31.6667" height="63.3333" transform="rotate(90 190 15.8333)" fill="#008E86"/>
</g>
<g stroke-linejoin="round">
<rect width="63.3333" height="63.3333" transform="translate(253.333) rotate(90)" fill="#BDBDBD"/>
<rect x="253.333" y="15.8333" width="31.6667" height="63.3333" transform="rotate(90 253.333 15.8333)" fill="#008E86"/>
</g>
<g stroke-linejoin="round">
<rect width="63.3333" height="63.3333" transform="translate(316.667) rotate(90)" fill="#BDBDBD"/>
<rect x="316.667" y="15.8333" width="31.6667" height="63.3333" transform="rotate(90 316.667 15.8333)" fill="#008E86"/>
</g>
<g stroke-linejoin="round">
<rect width="63.3333" height="63.3333" transform="translate(0 63.3333)" fill="#BDBDBD"/>
<rect x="15.8334" y="63.3333" width="31.6667" height="63.3333" fill="#008E86"/>
</g>
<defs>
<clipPath id="clip0_4651_125543">
<rect width="63.3333" height="63.3333" fill="white" transform="translate(380 126.667) rotate(-180)"/>
</clipPath>
<clipPath id="clip1_4651_125543">
<rect width="63.3333" height="63.3333" fill="white" transform="translate(0 190) rotate(-90)"/>
</clipPath>
<clipPath id="clip2_4651_125543">
<rect width="63.3333" height="63.3333" fill="white"/>
</clipPath>
<clipPath id="clip3_4651_125543">
<rect width="63.3333" height="63.3333" fill="white" transform="translate(380 126.667) rotate(90)"/>
</clipPath>
<clipPath id="clip4_4651_125543">
<rect width="63.3333" height="63.3333" fill="white" transform="translate(380) rotate(90)"/>
</clipPath>
<clipPath id="clip5_4651_125543">
<rect width="63.3333" height="63.3333" fill="white" transform="translate(126.667 126.667) rotate(90)"/>
</clipPath>
<clipPath id="clip6_4651_125543">
<rect width="63.3333" height="63.3333" fill="white" transform="translate(126.667) rotate(90)"/>
</clipPath>
<clipPath id="clip7_4651_125543">
<rect width="63.3333" height="63.3333" fill="white" transform="translate(190 126.667) rotate(90)"/>
</clipPath>
<clipPath id="clip8_4651_125543">
<rect width="63.3333" height="63.3333" fill="white" transform="translate(253.333 126.667) rotate(90)"/>
</clipPath>
<clipPath id="clip9_4651_125543">
<rect width="63.3333" height="63.3333" fill="white" transform="translate(316.667 126.667) rotate(90)"/>
</clipPath>
<clipPath id="clip10_4651_125543">
<rect width="63.3333" height="63.3333" fill="white" transform="translate(190) rotate(90)"/>
</clipPath>
<clipPath id="clip11_4651_125543">
<rect width="63.3333" height="63.3333" fill="white" transform="translate(253.333) rotate(90)"/>
</clipPath>
<clipPath id="clip12_4651_125543">
<rect width="63.3333" height="63.3333" fill="white" transform="translate(316.667) rotate(90)"/>
</clipPath>
<clipPath id="clip13_4651_125543">
<rect width="63.3333" height="63.3333" fill="white" transform="translate(0 63.3333)"/>
</clipPath>
</defs>
</svg>
