<svg width="80" height="84" viewBox="0 0 80 84" fill="none" xmlns="http://www.w3.org/2000/svg">
<g filter="url(#filter0_d)">
<path d="M0 40C0 17.9086 17.9086 0 40 0C62.0914 0 80 17.9086 80 40C80 62.0914 62.0914 80 40 80C17.9086 80 0 62.0914 0 40Z" fill="#69E485"/>
<path fill-rule="evenodd" clip-rule="evenodd" d="M29.4764 38.4118H25.8823C22.6336 38.4118 20 41.0454 20 44.2941L20 54.1176C20 57.3664 22.6336 60 25.8823 60H54.1176C57.3664 60 60 57.3664 60 54.1176V44.2941C60 41.0454 57.3664 38.4118 54.1176 38.4118H50.5236C49.9384 33.1177 45.4501 29 40 29C34.5499 29 30.0616 33.1177 29.4764 38.4118ZM25.8823 40.7647H54.1176C56.0669 40.7647 57.647 42.3449 57.647 44.2941V54.1176C57.647 56.0669 56.0669 57.6471 54.1176 57.6471H25.8823C23.9331 57.6471 22.3529 56.0669 22.3529 54.1177V44.2941C22.3529 42.3449 23.9331 40.7647 25.8823 40.7647ZM48.1519 38.4118C47.5812 34.421 44.1489 31.3529 40 31.3529C35.8511 31.3529 32.4188 34.421 31.8481 38.4118H48.1519Z" fill="#333333"/>
<path fill-rule="evenodd" clip-rule="evenodd" d="M32.11 49.8351L36.8159 54.541C37.2753 55.0004 38.0202 55.0004 38.4796 54.541L47.8914 45.1292C48.3505 44.6701 48.3505 43.9246 47.8914 43.4654C47.4323 43.0063 46.6868 43.0063 46.2276 43.4654C46.2276 43.4654 39.9484 49.7446 37.6477 52.0453L33.7738 48.1713C33.3146 47.7122 32.5691 47.7122 32.11 48.1713C31.6508 48.6305 31.6508 49.376 32.11 49.8351Z" fill="#333333"/>
</g>
<defs>
<filter id="filter0_d" x="0" y="0" width="80" height="84" filterUnits="userSpaceOnUse" color-interpolation-filters="sRGB">
<feFlood flood-opacity="0" result="BackgroundImageFix"/>
<feColorMatrix in="SourceAlpha" type="matrix" values="0 0 0 0 0 0 0 0 0 0 0 0 0 0 0 0 0 0 127 0" result="hardAlpha"/>
<feOffset dy="4"/>
<feColorMatrix type="matrix" values="0 0 0 0 0 0 0 0 0 0 0 0 0 0 0 0 0 0 0.25 0"/>
<feBlend mode="normal" in2="BackgroundImageFix" result="effect1_dropShadow"/>
<feBlend mode="normal" in="SourceGraphic" in2="effect1_dropShadow" result="shape"/>
</filter>
</defs>
</svg>
