<svg width="80" height="84" viewBox="0 0 80 84" fill="none" xmlns="http://www.w3.org/2000/svg">
<g filter="url(#filter0_d)">
<path d="M0 40C0 17.9086 17.9086 0 40 0C62.0914 0 80 17.9086 80 40C80 62.0914 62.0914 80 40 80C17.9086 80 0 62.0914 0 40Z" fill="#333333"/>
<path fill-rule="evenodd" clip-rule="evenodd" d="M39.9933 24.7026C33.4063 24.7026 27.5531 28.2622 23.9322 32.2007C21.4009 34.9541 19.9866 37.916 19.9866 40.0019C19.9866 42.0878 21.4009 45.0497 23.9322 47.8031C27.5531 51.7416 33.4063 55.3012 39.9933 55.3012C46.5803 55.3012 52.4336 51.7416 56.0544 47.8031C58.5858 45.0497 60 42.0878 60 40.0019C60 37.916 58.5858 34.9541 56.0544 32.2007C52.4336 28.2622 46.5803 24.7026 39.9933 24.7026ZM39.9933 27.0564C45.8773 27.0564 51.0873 30.2755 54.3218 33.7937C56.3609 36.0117 57.6464 38.3216 57.6464 40.0019C57.6464 41.6822 56.3609 43.9921 54.3218 46.2101C51.0874 49.7282 45.8774 52.9474 39.9933 52.9474C34.1093 52.9474 28.8993 49.7282 25.6649 46.2101C23.6257 43.9921 22.3403 41.6822 22.3403 40.0019C22.3403 38.3216 23.6257 36.0117 25.6649 33.7937C28.8993 30.2755 34.1093 27.0564 39.9933 27.0564Z" fill="white"/>
<path d="M39.9988 49.4173C45.1985 49.4173 49.4137 45.2021 49.4137 40.0023C49.4137 34.8026 45.1985 30.5874 39.9988 30.5874C34.7991 30.5874 30.5839 34.8026 30.5839 40.0023C30.5839 45.2021 34.7991 49.4173 39.9988 49.4173Z" fill="white"/>
</g>
<defs>
<filter id="filter0_d" x="0" y="0" width="80" height="84" filterUnits="userSpaceOnUse" color-interpolation-filters="sRGB">
<feFlood flood-opacity="0" result="BackgroundImageFix"/>
<feColorMatrix in="SourceAlpha" type="matrix" values="0 0 0 0 0 0 0 0 0 0 0 0 0 0 0 0 0 0 127 0" result="hardAlpha"/>
<feOffset dy="4"/>
<feColorMatrix type="matrix" values="0 0 0 0 0 0 0 0 0 0 0 0 0 0 0 0 0 0 0.25 0"/>
<feBlend mode="normal" in2="BackgroundImageFix" result="effect1_dropShadow"/>
<feBlend mode="normal" in="SourceGraphic" in2="effect1_dropShadow" result="shape"/>
</filter>
</defs>
</svg>
