<svg width="580" height="580" viewBox="0 0 580 580" fill="none" xmlns="http://www.w3.org/2000/svg">
<path d="M360.859 381.262H219.058V461.085H360.859V381.262Z" fill="#3C3C3C"/>
<path d="M508.432 453.196H71.5088V469.073H508.432V453.196Z" fill="#5D5D5D"/>
<path d="M546.06 110.803H33.8428V397.157H546.06V110.803Z" fill="#212121"/>
<path d="M542.615 116.892H37.2412V391.126H542.615V116.892Z" fill="#E6E6E6"/>
<path d="M546.06 110.803H33.8428V184.564H546.06V110.803Z" fill="#2C5DAB"/>
<path d="M505.589 198.455H74.3408V394.119H505.589V198.455Z" fill="white"/>
<path d="M120.295 251.909V255.491H116.678V251.909H120.295ZM119.474 258.287L120.435 271.847V277.527H116.538V271.847L117.447 258.287H119.474Z" fill="#20438E"/>
<path d="M127.3 270.447V244.829H130.69V255.349H144.005V244.829H147.396V270.447H144.005V258.372H130.69V270.447H127.3Z" fill="#20438E"/>
<path d="M151.372 261.183C151.372 257.746 152.328 255.201 154.238 253.546C155.834 252.171 157.779 251.484 160.074 251.484C162.626 251.484 164.711 252.32 166.33 253.992C167.95 255.663 168.759 257.973 168.759 260.92C168.759 263.309 168.401 265.187 167.684 266.556C166.968 267.925 165.925 268.988 164.556 269.745C163.188 270.502 161.694 270.881 160.074 270.881C157.477 270.881 155.377 270.048 153.775 268.382C152.173 266.716 151.372 264.316 151.372 261.183ZM154.605 261.183C154.605 263.559 155.123 265.339 156.16 266.521C157.197 267.703 158.502 268.295 160.074 268.295C161.635 268.295 162.934 267.701 163.971 266.512C165.008 265.324 165.526 263.512 165.526 261.078C165.526 258.783 165.005 257.044 163.963 255.862C162.92 254.679 161.624 254.088 160.074 254.088C158.502 254.088 157.197 254.676 156.16 255.853C155.123 257.029 154.605 258.806 154.605 261.183Z" fill="#20438E"/>
<path d="M175.616 244.829H172.471V270.447H175.616V244.829Z" fill="#20438E"/>
<path d="M192.585 268.172C191.42 269.163 190.299 269.861 189.221 270.269C188.144 270.677 186.987 270.881 185.752 270.881C183.714 270.881 182.147 270.383 181.052 269.387C179.957 268.391 179.409 267.118 179.409 265.569C179.409 264.66 179.616 263.83 180.03 263.079C180.443 262.327 180.985 261.724 181.655 261.27C182.324 260.816 183.079 260.472 183.918 260.239C184.535 260.076 185.467 259.919 186.714 259.767C189.253 259.464 191.123 259.103 192.323 258.684C192.334 258.253 192.34 257.979 192.34 257.862C192.34 256.581 192.043 255.678 191.449 255.154C190.645 254.443 189.451 254.088 187.867 254.088C186.387 254.088 185.295 254.347 184.59 254.866C183.886 255.384 183.364 256.301 183.026 257.618L179.951 257.198C180.23 255.882 180.691 254.819 181.331 254.009C181.972 253.2 182.898 252.576 184.11 252.139C185.321 251.703 186.725 251.484 188.321 251.484C189.906 251.484 191.193 251.671 192.183 252.043C193.173 252.416 193.901 252.885 194.367 253.45C194.833 254.015 195.16 254.729 195.346 255.591C195.451 256.127 195.503 257.094 195.503 258.492V262.686C195.503 265.609 195.57 267.459 195.704 268.234C195.838 269.008 196.103 269.751 196.499 270.462H193.214C192.888 269.809 192.678 269.046 192.585 268.172ZM192.323 261.148C191.181 261.614 189.469 262.01 187.185 262.336C185.892 262.522 184.978 262.732 184.442 262.965C183.906 263.198 183.493 263.539 183.201 263.987C182.91 264.436 182.764 264.934 182.764 265.481C182.764 266.32 183.082 267.019 183.717 267.578C184.352 268.137 185.281 268.417 186.504 268.417C187.715 268.417 188.793 268.152 189.737 267.622C190.68 267.092 191.373 266.367 191.816 265.446C192.154 264.736 192.323 263.687 192.323 262.301V261.148Z" fill="#20438E"/>
<path d="M202.035 264.086L201.074 250.508V244.829H204.971V250.508L204.062 264.086H202.035ZM201.214 270.447V266.865H204.831V270.447H201.214Z" fill="#20438E"/>
<path fill-rule="evenodd" clip-rule="evenodd" d="M196.194 130.09C196.194 127.104 193.77 124.68 190.784 124.68H142.622C139.636 124.68 137.212 127.104 137.212 130.09V146.32C137.212 149.306 139.636 151.73 142.622 151.73H190.784C193.77 151.73 196.194 149.306 196.194 146.32V130.09Z" fill="#50A2D9"/>
<path fill-rule="evenodd" clip-rule="evenodd" d="M253.218 130.09C253.218 127.104 250.794 124.68 247.808 124.68H212.432C209.446 124.68 207.021 127.104 207.021 130.09V146.32C207.021 149.306 209.446 151.73 212.432 151.73H247.808C250.794 151.73 253.218 149.306 253.218 146.32V130.09Z" fill="#50A2D9"/>
<path fill-rule="evenodd" clip-rule="evenodd" d="M329.748 130.09C329.748 127.104 327.323 124.68 324.338 124.68H269.497C266.511 124.68 264.087 127.104 264.087 130.09V146.32C264.087 149.306 266.511 151.73 269.497 151.73H324.338C327.323 151.73 329.748 149.306 329.748 146.32V130.09Z" fill="#50A2D9"/>
<path fill-rule="evenodd" clip-rule="evenodd" d="M478.081 130.09C478.081 127.104 475.657 124.68 472.671 124.68H345.962C342.976 124.68 340.552 127.104 340.552 130.09V146.32C340.552 149.306 342.976 151.73 345.962 151.73H472.671C475.657 151.73 478.081 149.306 478.081 146.32V130.09Z" fill="#50A2D9"/>
<path fill-rule="evenodd" clip-rule="evenodd" d="M511.663 133.173L523.419 144.929C523.871 145.382 524.606 145.382 525.059 144.929C525.511 144.477 525.511 143.742 525.059 143.289L513.303 131.533C512.85 131.081 512.115 131.081 511.663 131.533C511.21 131.986 511.21 132.721 511.663 133.173Z" fill="#E6E6E6"/>
<path fill-rule="evenodd" clip-rule="evenodd" d="M513.303 144.929L525.059 133.173C525.511 132.721 525.511 131.986 525.059 131.533C524.606 131.081 523.871 131.081 523.419 131.533L511.663 143.289C511.21 143.742 511.21 144.477 511.663 144.929C512.115 145.382 512.85 145.382 513.303 144.929Z" fill="#E6E6E6"/>
<path fill-rule="evenodd" clip-rule="evenodd" d="M132.292 168.178C132.292 164.608 129.393 161.709 125.822 161.709H89.3063C85.7355 161.709 82.8369 164.608 82.8369 168.178V187.586C82.8369 191.157 85.7355 194.056 89.3063 194.056H125.822C129.393 194.056 132.292 191.157 132.292 187.586V168.178Z" fill="#E6E6E6"/>
<path fill-rule="evenodd" clip-rule="evenodd" d="M78.0794 168.356C78.0794 164.687 75.101 161.709 71.4325 161.709H49.2687C45.6003 161.709 42.6221 164.687 42.6221 168.356V174.053C42.6221 177.721 45.6003 180.7 49.2687 180.7H71.4325C75.101 180.7 78.0794 177.721 78.0794 174.053V168.356Z" fill="#20438E"/>
<path fill-rule="evenodd" clip-rule="evenodd" d="M124.525 170.208C124.525 168.917 123.476 167.869 122.185 167.869H91.4069C90.1155 167.869 89.0674 168.917 89.0674 170.208V172.213C89.0674 173.504 90.1155 174.553 91.4069 174.553H122.185C123.476 174.553 124.525 173.504 124.525 172.213V170.208Z" fill="#20438E"/>
<path fill-rule="evenodd" clip-rule="evenodd" d="M73.7822 170.208C73.7822 168.917 72.7341 167.869 71.4427 167.869H49.3512C48.0601 167.869 47.0117 168.917 47.0117 170.208V172.213C47.0117 173.504 48.0601 174.553 49.3512 174.553H71.4427C72.7341 174.553 73.7822 173.504 73.7822 172.213V170.208Z" fill="#3B7ABE"/>
<path fill-rule="evenodd" clip-rule="evenodd" d="M212.328 168.356C212.328 164.687 209.35 161.709 205.682 161.709H143.859C140.19 161.709 137.212 164.687 137.212 168.356V174.053C137.212 177.721 140.19 180.7 143.859 180.7H205.682C209.35 180.7 212.328 177.721 212.328 174.053V168.356Z" fill="#20438E"/>
<path fill-rule="evenodd" clip-rule="evenodd" d="M242.565 168.356C242.565 164.687 239.587 161.709 235.918 161.709H223.722C220.054 161.709 217.075 164.687 217.075 168.356V174.053C217.075 177.721 220.054 180.7 223.722 180.7H235.918C239.587 180.7 242.565 177.721 242.565 174.053V168.356Z" fill="#20438E"/>
<path fill-rule="evenodd" clip-rule="evenodd" d="M313.092 168.356C313.092 164.687 310.114 161.709 306.446 161.709H254.166C250.498 161.709 247.52 164.687 247.52 168.356V174.053C247.52 177.721 250.498 180.7 254.166 180.7H306.446C310.114 180.7 313.092 177.721 313.092 174.053V168.356Z" fill="#20438E"/>
<path fill-rule="evenodd" clip-rule="evenodd" d="M362.614 168.356C362.614 164.687 359.635 161.709 355.967 161.709H324.542C320.874 161.709 317.896 164.687 317.896 168.356V174.053C317.896 177.721 320.874 180.7 324.542 180.7H355.967C359.635 180.7 362.614 177.721 362.614 174.053V168.356Z" fill="#20438E"/>
<path fill-rule="evenodd" clip-rule="evenodd" d="M482.454 168.356C482.454 164.687 479.476 161.709 475.808 161.709H374.103C370.434 161.709 367.456 164.687 367.456 168.356V174.053C367.456 177.721 370.434 180.7 374.103 180.7H475.808C479.476 180.7 482.454 177.721 482.454 174.053V168.356Z" fill="#20438E"/>
<path fill-rule="evenodd" clip-rule="evenodd" d="M205.747 170.208C205.747 168.917 204.699 167.869 203.408 167.869H146.207C144.916 167.869 143.867 168.917 143.867 170.208V172.213C143.867 173.504 144.916 174.553 146.207 174.553H203.408C204.699 174.553 205.747 173.504 205.747 172.213V170.208Z" fill="#3B7ABE"/>
<path fill-rule="evenodd" clip-rule="evenodd" d="M239.061 170.208C239.061 168.917 238.013 167.869 236.721 167.869H222.955C221.664 167.869 220.615 168.917 220.615 170.208V172.213C220.615 173.504 221.664 174.553 222.955 174.553H236.721C238.013 174.553 239.061 173.504 239.061 172.213V170.208Z" fill="#3B7ABE"/>
<path fill-rule="evenodd" clip-rule="evenodd" d="M356.625 170.208C356.625 168.917 355.577 167.869 354.285 167.869H326.041C324.75 167.869 323.701 168.917 323.701 170.208V172.213C323.701 173.504 324.75 174.553 326.041 174.553H354.285C355.577 174.553 356.625 173.504 356.625 172.213V170.208Z" fill="#3B7ABE"/>
<path fill-rule="evenodd" clip-rule="evenodd" d="M307.762 170.208C307.762 168.917 306.713 167.869 305.422 167.869H255.098C253.807 167.869 252.759 168.917 252.759 170.208V172.213C252.759 173.504 253.807 174.553 255.098 174.553H305.422C306.713 174.553 307.762 173.504 307.762 172.213V170.208Z" fill="#3B7ABE"/>
<path fill-rule="evenodd" clip-rule="evenodd" d="M477.014 170.208C477.014 168.917 475.966 167.869 474.674 167.869H375.035C373.743 167.869 372.695 168.917 372.695 170.208V172.213C372.695 173.504 373.743 174.553 375.035 174.553H474.674C475.966 174.553 477.014 173.504 477.014 172.213V170.208Z" fill="#3B7ABE"/>
<path fill-rule="evenodd" clip-rule="evenodd" d="M126.407 130.09C126.407 127.104 123.983 124.68 120.997 124.68H48.0319C45.0462 124.68 42.6221 127.104 42.6221 130.09V146.32C42.6221 149.306 45.0462 151.73 48.0319 151.73H120.997C123.983 151.73 126.407 149.306 126.407 146.32V130.09Z" fill="white"/>
<path d="M81.0946 134.823L81.0852 129.961L78.673 134.013H78.2344L75.8223 129.989V134.823H74.9072V128.149H75.689L78.4729 132.84L81.2185 128.149H82.0003L82.01 134.823H81.0946Z" fill="#20438E"/>
<path d="M83.8488 129.747H84.7639V134.8H83.8488V129.747ZM84.3063 128.775C84.1285 128.775 83.9807 128.718 83.863 128.603C83.7455 128.489 83.6865 128.349 83.6865 128.184C83.6865 128.018 83.7455 127.877 83.863 127.759C83.9807 127.642 84.1285 127.583 84.3063 127.583C84.4842 127.583 84.6319 127.639 84.7497 127.75C84.8671 127.861 84.9261 127.999 84.9261 128.165C84.9261 128.336 84.8671 128.481 84.7497 128.598C84.6319 128.716 84.4842 128.775 84.3063 128.775Z" fill="#20438E"/>
<path d="M88.763 134.865C88.2482 134.865 87.7889 134.754 87.3854 134.531C86.9818 134.309 86.6657 134.002 86.4369 133.611C86.2081 133.22 86.0938 132.777 86.0938 132.281C86.0938 131.785 86.2081 131.342 86.4369 130.951C86.6657 130.56 86.9818 130.255 87.3854 130.036C87.7889 129.817 88.2482 129.707 88.763 129.707C89.2208 129.707 89.6291 129.799 89.9882 129.983C90.3472 130.168 90.6255 130.435 90.8225 130.784L90.1265 131.232C89.9676 130.991 89.7705 130.81 89.5353 130.689C89.3002 130.568 89.0397 130.508 88.7536 130.508C88.4229 130.508 88.126 130.581 87.8621 130.727C87.5983 130.873 87.3918 131.082 87.2423 131.352C87.0932 131.622 87.0183 131.932 87.0183 132.281C87.0183 132.637 87.0932 132.95 87.2423 133.22C87.3918 133.49 87.5983 133.699 87.8621 133.845C88.126 133.991 88.4229 134.064 88.7536 134.064C89.0397 134.064 89.3002 134.004 89.5353 133.883C89.7705 133.762 89.9676 133.581 90.1265 133.339L90.8225 133.778C90.6255 134.127 90.3472 134.396 89.9882 134.584C89.6291 134.771 89.2208 134.865 88.763 134.865Z" fill="#20438E"/>
<path d="M92.9183 130.603C93.0772 130.311 93.3123 130.088 93.6238 129.936C93.9352 129.783 94.3134 129.707 94.7582 129.707V130.594C94.7075 130.587 94.6374 130.584 94.5486 130.584C94.0527 130.584 93.6636 130.732 93.3805 131.027C93.0978 131.323 92.9564 131.744 92.9564 132.291V134.808H92.041V129.755H92.9183V130.603Z" fill="#20438E"/>
<path d="M97.929 134.865C97.4269 134.865 96.9758 134.754 96.5753 134.531C96.1748 134.309 95.8617 134.002 95.6363 133.611C95.4106 133.22 95.2979 132.777 95.2979 132.281C95.2979 131.785 95.4106 131.342 95.6363 130.951C95.8617 130.56 96.1748 130.255 96.5753 130.036C96.9758 129.817 97.4269 129.707 97.929 129.707C98.4311 129.707 98.8808 129.817 99.2783 130.036C99.6754 130.255 99.9868 130.56 100.213 130.951C100.438 131.342 100.551 131.785 100.551 132.281C100.551 132.777 100.438 133.22 100.213 133.611C99.9868 134.002 99.6754 134.309 99.2783 134.531C98.8808 134.754 98.4311 134.865 97.929 134.865ZM97.929 134.064C98.2532 134.064 98.5441 133.989 98.8015 133.84C99.0589 133.69 99.2607 133.481 99.4068 133.211C99.553 132.94 99.6261 132.631 99.6261 132.281C99.6261 131.932 99.553 131.622 99.4068 131.352C99.2607 131.082 99.0589 130.873 98.8015 130.727C98.5441 130.581 98.2532 130.508 97.929 130.508C97.6051 130.508 97.3142 130.581 97.0568 130.727C96.7993 130.873 96.5959 131.082 96.4467 131.352C96.2973 131.622 96.2227 131.932 96.2227 132.281C96.2227 132.631 96.2973 132.94 96.4467 133.211C96.5959 133.481 96.7993 133.69 97.0568 133.84C97.3142 133.989 97.6051 134.064 97.929 134.064Z" fill="#20438E"/>
<path d="M103.333 134.865C102.92 134.865 102.523 134.809 102.141 134.698C101.76 134.587 101.461 134.445 101.245 134.274L101.626 133.549C101.849 133.708 102.119 133.835 102.437 133.93C102.755 134.026 103.076 134.073 103.4 134.073C104.201 134.073 104.601 133.845 104.601 133.387C104.601 133.235 104.547 133.114 104.439 133.025C104.331 132.936 104.196 132.871 104.034 132.829C103.872 132.788 103.641 132.742 103.342 132.691C102.936 132.628 102.604 132.554 102.346 132.472C102.089 132.389 101.868 132.249 101.683 132.052C101.499 131.855 101.407 131.579 101.407 131.223C101.407 130.765 101.598 130.398 101.979 130.122C102.361 129.845 102.872 129.707 103.514 129.707C103.851 129.707 104.188 129.748 104.525 129.831C104.861 129.914 105.138 130.025 105.354 130.165L104.963 130.889C104.55 130.622 104.064 130.489 103.504 130.489C103.117 130.489 102.821 130.552 102.618 130.679C102.415 130.807 102.313 130.975 102.313 131.185C102.313 131.35 102.37 131.48 102.484 131.576C102.599 131.671 102.74 131.741 102.909 131.785C103.077 131.83 103.314 131.881 103.619 131.938C104.026 132.008 104.355 132.082 104.606 132.162C104.857 132.241 105.071 132.377 105.249 132.567C105.427 132.758 105.516 133.025 105.516 133.368C105.516 133.826 105.321 134.189 104.93 134.46C104.539 134.73 104.007 134.865 103.333 134.865Z" fill="#20438E"/>
<path d="M108.691 134.865C108.189 134.865 107.738 134.754 107.337 134.531C106.937 134.309 106.623 134.002 106.398 133.611C106.172 133.22 106.06 132.777 106.06 132.281C106.06 131.785 106.172 131.342 106.398 130.951C106.623 130.56 106.937 130.255 107.337 130.036C107.738 129.817 108.189 129.707 108.691 129.707C109.193 129.707 109.643 129.817 110.04 130.036C110.437 130.255 110.749 130.56 110.974 130.951C111.2 131.342 111.313 131.785 111.313 132.281C111.313 132.777 111.2 133.22 110.974 133.611C110.749 134.002 110.437 134.309 110.04 134.531C109.643 134.754 109.193 134.865 108.691 134.865ZM108.691 134.064C109.015 134.064 109.306 133.989 109.563 133.84C109.821 133.69 110.022 133.481 110.169 133.211C110.315 132.94 110.388 132.631 110.388 132.281C110.388 131.932 110.315 131.622 110.169 131.352C110.022 131.082 109.821 130.873 109.563 130.727C109.306 130.581 109.015 130.508 108.691 130.508C108.366 130.508 108.076 130.581 107.818 130.727C107.561 130.873 107.358 131.082 107.208 131.352C107.059 131.622 106.984 131.932 106.984 132.281C106.984 132.631 107.059 132.94 107.208 133.211C107.358 133.481 107.561 133.69 107.818 133.84C108.076 133.989 108.366 134.064 108.691 134.064Z" fill="#20438E"/>
<path d="M114.439 128.407C113.893 128.407 113.619 128.703 113.619 129.294V129.732H115.088V130.485H113.639V134.785H112.723V130.485H111.865V129.732H112.723V129.284C112.723 128.782 112.869 128.385 113.162 128.092C113.454 127.8 113.864 127.654 114.392 127.654C114.595 127.654 114.786 127.679 114.964 127.73C115.142 127.781 115.294 127.854 115.421 127.949L115.145 128.645C114.935 128.487 114.7 128.407 114.439 128.407Z" fill="#20438E"/>
<path d="M118.829 134.508C118.696 134.623 118.53 134.71 118.333 134.77C118.136 134.831 117.933 134.861 117.723 134.861C117.215 134.861 116.821 134.724 116.541 134.451C116.261 134.178 116.122 133.787 116.122 133.278V130.504H115.264V129.751H116.122V128.645H117.037V129.751H118.486V130.504H117.037V133.24C117.037 133.513 117.105 133.723 117.242 133.869C117.379 134.016 117.574 134.089 117.828 134.089C118.108 134.089 118.346 134.009 118.543 133.85L118.829 134.508Z" fill="#20438E"/>
<path d="M89.1191 138.982L85.8629 148.723H84.4018L81.7439 140.944L79.086 148.723H77.5971L74.3408 138.982H75.7741L78.4042 146.9L81.1455 138.982H82.4257L85.1114 146.942L87.7972 138.982H89.1191Z" fill="#20438E"/>
<path d="M93.1913 148.776C92.4585 148.776 91.7997 148.614 91.2153 148.289C90.6308 147.964 90.1738 147.517 89.8446 146.946C89.5153 146.375 89.3506 145.728 89.3506 145.005C89.3506 144.281 89.5153 143.634 89.8446 143.064C90.1738 142.493 90.6308 142.048 91.2153 141.728C91.7997 141.408 92.4585 141.248 93.1913 141.248C93.9241 141.248 94.5806 141.408 95.1603 141.728C95.74 142.048 96.1948 142.493 96.524 143.064C96.8533 143.634 97.0181 144.281 97.0181 145.005C97.0181 145.728 96.8533 146.375 96.524 146.946C96.1948 147.517 95.74 147.964 95.1603 148.289C94.5806 148.614 93.9241 148.776 93.1913 148.776ZM93.1913 147.607C93.6644 147.607 94.0888 147.498 94.4645 147.28C94.8403 147.062 95.1347 146.756 95.3482 146.362C95.5617 145.967 95.6682 145.515 95.6682 145.005C95.6682 144.495 95.5617 144.042 95.3482 143.648C95.1347 143.254 94.8403 142.95 94.4645 142.737C94.0888 142.523 93.6644 142.416 93.1913 142.416C92.7182 142.416 92.2937 142.523 91.918 142.737C91.5423 142.95 91.2453 143.254 91.0274 143.648C90.8095 144.042 90.7004 144.495 90.7004 145.005C90.7004 145.515 90.8095 145.967 91.0274 146.362C91.2453 146.756 91.5423 147.062 91.918 147.28C92.2937 147.498 92.7182 147.607 93.1913 147.607Z" fill="#20438E"/>
<path d="M100.118 142.556C100.35 142.129 100.693 141.804 101.148 141.582C101.602 141.359 102.155 141.248 102.804 141.248V142.542C102.73 142.533 102.628 142.528 102.498 142.528C101.774 142.528 101.206 142.743 100.793 143.175C100.38 143.606 100.174 144.221 100.174 145.019V148.692H98.8379V141.317H100.118V142.556Z" fill="#20438E"/>
<path d="M111.434 138.415V148.741H110.153V147.572C109.856 147.98 109.481 148.291 109.026 148.504C108.572 148.718 108.071 148.824 107.523 148.824C106.809 148.824 106.169 148.666 105.603 148.351C105.037 148.036 104.594 147.593 104.274 147.022C103.954 146.452 103.794 145.795 103.794 145.053C103.794 144.311 103.954 143.657 104.274 143.091C104.594 142.525 105.037 142.084 105.603 141.769C106.169 141.454 106.809 141.296 107.523 141.296C108.052 141.296 108.539 141.396 108.984 141.595C109.43 141.795 109.801 142.089 110.098 142.479V138.415H111.434ZM107.635 147.655C108.099 147.655 108.521 147.546 108.901 147.328C109.281 147.11 109.578 146.804 109.792 146.41C110.005 146.016 110.112 145.563 110.112 145.053C110.112 144.543 110.005 144.091 109.792 143.696C109.578 143.302 109.281 142.998 108.901 142.785C108.521 142.571 108.099 142.465 107.635 142.465C107.162 142.465 106.737 142.571 106.361 142.785C105.986 142.998 105.689 143.302 105.471 143.696C105.253 144.091 105.144 144.543 105.144 145.053C105.144 145.563 105.253 146.016 105.471 146.41C105.689 146.804 105.986 147.11 106.361 147.328C106.737 147.546 107.162 147.655 107.635 147.655Z" fill="#20438E"/>
<path d="M53.5926 128.787H68.2044C68.706 128.784 69.1154 129.186 69.1212 129.687V146.655C69.1154 147.156 68.7048 147.556 68.2044 147.55H53.5926C53.3501 147.55 53.1178 147.456 52.9424 147.289C52.7713 147.122 52.675 146.894 52.6758 146.655V129.688C52.6744 129.447 52.7707 129.216 52.9424 129.048C53.1203 128.885 53.3513 128.793 53.5926 128.787Z" fill="#50A2D9"/>
<path d="M69.1212 142.876H52.6758V146.666C52.6816 147.167 53.0921 147.567 53.5925 147.561H68.2044C68.7048 147.567 69.1153 147.167 69.1212 146.666V142.876Z" fill="#20438E"/>
<path d="M69.1215 138.203H52.6758V142.894H69.1215V138.203Z" fill="#2C5DAB"/>
<path d="M69.1215 133.46H52.6758V138.15H69.1215V133.46Z" fill="#3B7ABE"/>
<path d="M58.5081 132.61H58.0566C58.0989 132.673 58.1307 132.745 58.1496 132.821H58.2412C58.6055 132.821 58.9044 133.109 58.9177 133.471H59.186V133.305C59.1891 132.937 58.8932 132.635 58.5248 132.632H58.5081V132.61ZM59.186 138.162H58.918V138.162H59.186V138.162Z" fill="#489ED7"/>
<path d="M59.2085 142.876H58.9405V143.282C58.9399 143.318 58.9366 143.354 58.9305 143.389V143.465C58.9291 143.522 58.9207 143.577 58.9062 143.629C59.0872 143.509 59.2068 143.303 59.2085 143.07V142.876Z" fill="#22418A"/>
<path d="M59.1743 138.203H58.9062V142.894H59.1743V138.203Z" fill="#265AA9"/>
<path d="M59.1745 133.46H58.9062C58.9065 133.465 58.9065 133.471 58.9065 133.476V138.15H59.1745V133.46Z" fill="#3677BC"/>
<path d="M52.6758 143.23V145.163H57.2331C57.239 145.163 57.2451 145.163 57.2509 145.163C57.7188 145.163 58.1062 144.802 58.1424 144.339C58.1081 144.353 58.0728 144.365 58.0361 144.373C57.8844 144.65 57.5908 144.835 57.2562 144.835C57.2487 144.835 57.2409 144.835 57.2331 144.835H52.6758V143.23Z" fill="#223F84"/>
<path d="M58.1482 132.822H58.0566C58.0689 132.872 58.0756 132.924 58.0758 132.978V133.1H58.1259C58.1296 133.099 58.1332 133.099 58.1368 133.099C58.4009 133.099 58.6305 133.251 58.7427 133.472H58.8248C58.8114 133.11 58.5125 132.822 58.1482 132.822ZM58.8251 138.163H58.815V138.163H58.8251V138.163Z" fill="#3E95D1"/>
<path d="M58.8468 133.46H58.7646C58.8095 133.548 58.8353 133.648 58.837 133.754V138.15H58.847V133.476C58.847 133.471 58.847 133.465 58.8468 133.46Z" fill="#2A70B8"/>
<path d="M58.779 143.584C58.7448 143.607 58.7083 143.626 58.6699 143.643C58.6076 143.723 58.5277 143.788 58.4361 143.833C58.4161 143.909 58.383 143.98 58.3398 144.043C58.5519 143.974 58.7184 143.801 58.779 143.584Z" fill="#223F84"/>
<path d="M58.898 143.372C58.8785 143.483 58.8317 143.585 58.7646 143.671C58.8031 143.654 58.8395 143.635 58.8737 143.612C58.8882 143.56 58.8966 143.505 58.898 143.448V143.372Z" fill="#223E80"/>
<path d="M58.7152 143.655C58.6493 143.683 58.578 143.701 58.5032 143.707C58.5006 143.755 58.4931 143.801 58.4814 143.845C58.573 143.8 58.6529 143.735 58.7152 143.655Z" fill="#233C7B"/>
<path d="M58.1176 133.105C58.114 133.105 58.1104 133.105 58.1067 133.106H58.0566V133.414C58.1412 133.421 58.2217 133.443 58.2946 133.478H58.7235C58.6113 133.257 58.3817 133.105 58.1176 133.105ZM58.7958 138.169H58.6795V138.169H58.7958V138.169Z" fill="#368CCA"/>
<path d="M58.8268 142.876H58.7105V143.232C58.7088 143.431 58.6206 143.61 58.4817 143.732C58.4817 143.734 58.4814 143.737 58.4814 143.74C58.5563 143.734 58.6276 143.716 58.6935 143.688C58.7606 143.602 58.8073 143.5 58.8268 143.389V142.876Z" fill="#243A77"/>
<path d="M58.881 138.203H58.7646V142.894H58.881V138.203Z" fill="#144E9F"/>
<path d="M58.7687 133.46H58.3398C58.5658 133.568 58.7225 133.798 58.7248 134.066V138.15H58.8411V133.754C58.8394 133.648 58.8135 133.548 58.7687 133.46Z" fill="#216AB3"/>
<path d="M57.4842 132.327H57.4786C57.4728 132.327 57.4675 132.327 57.4613 132.327L57.4388 132.327H52.6758V132.93V132.51H57.4555C57.4613 132.51 57.4672 132.51 57.473 132.51C57.6141 132.51 57.7458 132.553 57.8549 132.627H58.0438C57.9233 132.446 57.7174 132.327 57.4842 132.327Z" fill="#4EA1D9"/>
<path d="M57.9624 132.61H57.7734C57.855 132.665 57.9243 132.737 57.9755 132.821H58.0554C58.0364 132.745 58.0047 132.673 57.9624 132.61Z" fill="#479DD6"/>
<path d="M58.1365 132.822H58.0566C58.107 132.905 58.1404 132.999 58.1518 133.1H58.1557V132.978C58.1554 132.924 58.1488 132.872 58.1365 132.822Z" fill="#3D94D0"/>
<path d="M58.0361 144.363C57.9868 144.374 57.9359 144.38 57.8833 144.38H57.7463C57.6044 144.475 57.4338 144.53 57.2509 144.53C57.2451 144.53 57.239 144.53 57.2331 144.53H52.6758V144.825H57.2331C57.2409 144.825 57.2487 144.825 57.2562 144.825C57.5908 144.825 57.8844 144.639 58.0361 144.363Z" fill="#243973"/>
<path d="M52.6758 143.23V144.54H57.2331C57.239 144.54 57.2451 144.541 57.2509 144.541C57.4338 144.541 57.6044 144.485 57.7463 144.391H53.1147C53.032 144.391 52.956 144.362 52.8965 144.313H52.6758V143.23Z" fill="#203265"/>
<path d="M52.7754 144.08H52.6758V144.285H52.8965C52.8341 144.234 52.7902 144.162 52.7754 144.08Z" fill="#1C2C5B"/>
<path d="M52.7701 143.655H52.6758V144.066H52.7754C52.7724 144.05 52.7707 144.033 52.7701 144.016V143.655Z" fill="#17254E"/>
<path d="M52.6869 143.584H52.6758V143.656H52.7701V143.637C52.7637 143.638 52.7573 143.638 52.7509 143.638C52.7295 143.638 52.7081 143.637 52.6869 143.634V143.584Z" fill="#0F1E44"/>
<path d="M58.0566 133.389V133.453H58.2946C58.2217 133.418 58.1412 133.396 58.0566 133.389ZM58.6795 138.144H58.4513V138.144H58.6795V138.144Z" fill="#2E82BD"/>
<path d="M58.7102 142.876H58.482V143.71C58.482 143.717 58.4817 143.724 58.4814 143.732C58.6203 143.61 58.7085 143.431 58.7102 143.232V142.876Z" fill="#233771"/>
<path d="M58.7097 138.203H58.4814V142.894H58.7097V138.203Z" fill="#154895"/>
<path d="M58.2946 133.46H58.0566V133.477C58.1716 133.564 58.2509 133.665 58.2509 133.782V134.073C58.3734 134.195 58.4499 134.363 58.4513 134.549V138.15H58.6795V134.066C58.6773 133.798 58.5206 133.568 58.2946 133.46Z" fill="#1D62A7"/>
<path d="M52.759 143.584H52.6758V143.584C52.6969 143.584 52.7184 143.584 52.7398 143.584C52.7462 143.584 52.7526 143.584 52.759 143.584V143.584Z" fill="#0A1C40"/>
<path d="M52.6758 143.23V143.613H52.759V143.283C52.7287 143.27 52.7008 143.252 52.6758 143.23Z" fill="#071A3B"/>
<path d="M52.6402 132.964C52.5773 133.024 52.5372 133.108 52.5342 133.201V142.999C52.5358 143.094 52.5762 143.179 52.6402 143.24V143.023C52.6049 142.97 52.5843 142.907 52.5843 142.838V141.127H52.6402V132.964Z" fill="#CBCBCB"/>
<path d="M52.6758 143.018V143.229C52.7008 143.25 52.7287 143.268 52.759 143.282V143.096C52.727 143.075 52.6989 143.048 52.6758 143.018Z" fill="#081837"/>
<path d="M58.0566 133.53V133.779C58.1034 133.858 58.1346 133.947 58.1463 134.041C58.1838 134.067 58.2192 134.095 58.2509 134.127V133.836C58.2509 133.719 58.1716 133.618 58.0566 133.53Z" fill="#185189"/>
<path d="M58.0566 133.743V133.956C58.0878 133.97 58.1179 133.986 58.1463 134.005C58.1346 133.91 58.1034 133.821 58.0566 133.743Z" fill="#14497D"/>
<path d="M58.3567 144.08C58.291 144.101 58.2208 144.113 58.1485 144.113C58.1426 144.113 58.1368 144.112 58.1309 144.112H58.0589V144.279C58.0586 144.294 58.0578 144.308 58.0566 144.323C58.1785 144.272 58.2826 144.187 58.3567 144.08Z" fill="#223F84"/>
<path d="M58.1652 144.08H58.1468C58.1287 144.166 58.0978 144.248 58.0566 144.324C58.0934 144.315 58.1287 144.304 58.163 144.29C58.1641 144.276 58.1649 144.261 58.1652 144.247V144.08Z" fill="#233C7B"/>
<path d="M58.4507 143.867C58.36 143.912 58.2581 143.937 58.1502 143.937C58.1485 143.937 58.1465 143.937 58.1446 143.937H58.0566V144.11H58.1287C58.1346 144.11 58.1404 144.11 58.1463 144.11C58.2186 144.11 58.2887 144.098 58.3544 144.077C58.3976 144.014 58.4307 143.943 58.4507 143.867Z" fill="#233C7B"/>
<path d="M58.4724 143.726C58.4688 143.726 58.4652 143.726 58.4619 143.726C58.3514 143.819 58.2105 143.877 58.0566 143.883V143.934H58.1446C58.1465 143.934 58.1485 143.934 58.1502 143.934C58.2581 143.934 58.36 143.909 58.4507 143.864C58.4624 143.819 58.4699 143.773 58.4724 143.726Z" fill="#243973"/>
<path d="M58.1533 144.08H58.0306C57.9638 144.183 57.8761 144.273 57.7734 144.341H57.9104C57.963 144.341 58.0139 144.335 58.0632 144.324C58.1044 144.248 58.1352 144.166 58.1533 144.08Z" fill="#21346B"/>
<path d="M57.9244 144.08H57.7148C57.5637 144.195 57.3756 144.263 57.1718 144.263C57.166 144.263 57.1599 144.263 57.154 144.263H52.8174C52.8769 144.312 52.9529 144.341 53.0356 144.341H57.6672C57.7699 144.273 57.8576 144.183 57.9244 144.08Z" fill="#202E60"/>
<path d="M58.0561 143.938H58.0013C57.9785 143.999 57.9498 144.057 57.915 144.111H58.0378C58.0483 144.06 58.0548 144.008 58.0561 143.955V143.938Z" fill="#213166"/>
<path d="M58.0693 143.938H57.9446C57.8956 144.003 57.8377 144.061 57.7734 144.111H57.983C58.0178 144.057 58.0465 143.999 58.0693 143.938Z" fill="#1D2C5C"/>
<path d="M58.0564 143.867H57.9501C57.939 143.867 57.9273 143.867 57.915 143.867H58.0397C58.0456 143.867 58.0514 143.867 58.0564 143.867Z" fill="#1A2A56"/>
<path d="M53.2241 144.08H52.6758C52.6905 144.162 52.7345 144.234 52.7968 144.285H57.1335C57.1393 144.285 57.1455 144.285 57.1513 144.285C57.355 144.285 57.5432 144.217 57.6943 144.102H53.3426C53.3009 144.101 53.2608 144.094 53.2241 144.08Z" fill="#1B2957"/>
<path d="M57.8836 143.938H57.6698C57.5279 144.033 57.3573 144.089 57.1747 144.089C57.1672 144.089 57.1594 144.089 57.1516 144.089H53.2422C53.2789 144.102 53.319 144.11 53.3608 144.111H57.7124C57.7767 144.061 57.8346 144.003 57.8836 143.938Z" fill="#1A2653"/>
<path d="M58.0223 143.867H57.8405C57.8188 143.867 57.7965 143.867 57.7734 143.867H57.9872C57.9994 143.867 58.0111 143.867 58.0223 143.867Z" fill="#18244F"/>
<path d="M52.9288 143.655H52.6758V144.016C52.6763 144.033 52.678 144.05 52.6811 144.066H53.2293C53.1108 144.021 53.0248 143.91 53.0153 143.778C52.978 143.744 52.9482 143.702 52.9288 143.655Z" fill="#14234B"/>
<path d="M53.1006 143.796C53.11 143.928 53.196 144.039 53.3146 144.084H57.224C57.2318 144.084 57.2396 144.085 57.2471 144.085C57.4297 144.085 57.6003 144.029 57.7423 143.934H53.4496C53.3814 143.934 53.3179 143.914 53.2651 143.878C53.2024 143.867 53.146 143.838 53.1006 143.796Z" fill="#122148"/>
<path d="M53.2422 143.867C53.2951 143.867 53.3585 143.867 53.4267 143.867H57.7194C57.7425 143.867 57.7647 143.867 57.7864 143.867H53.3109C53.3093 143.867 53.3073 143.867 53.3054 143.867C53.2839 143.867 53.2628 143.867 53.2422 143.867Z" fill="#101F46"/>
<path d="M52.9207 143.655H52.7203C52.7056 143.655 52.6908 143.655 52.6758 143.655V143.655H52.9288C52.9257 143.655 52.9229 143.655 52.9207 143.655Z" fill="#0C1D42"/>
<path d="M58.4619 143.726C58.4474 143.726 58.4326 143.727 58.4179 143.727H58.0566V143.883C58.2105 143.876 58.3514 143.818 58.4619 143.726Z" fill="#22356C"/>
<path d="M58.4733 142.876H58.2297C58.2144 142.916 58.1955 142.955 58.1733 142.991V142.992C58.1721 143.131 58.1293 143.26 58.0566 143.367V143.742H58.4179C58.4326 143.742 58.4474 143.742 58.4619 143.741C58.4655 143.738 58.4691 143.735 58.4727 143.732C58.473 143.724 58.4733 143.717 58.4733 143.71V142.876Z" fill="#213369"/>
<path d="M58.5834 138.203H58.383V142.666C58.3819 142.746 58.3666 142.822 58.3398 142.894H58.5834V138.203Z" fill="#1A458B"/>
<path d="M58.3398 134.097V138.174H58.5402V134.572C58.5388 134.386 58.4623 134.218 58.3398 134.097Z" fill="#1C5D9E"/>
<path d="M58.0539 143.726H57.9963C57.9743 143.78 57.947 143.833 57.915 143.882H58.0213C58.0367 143.831 58.0478 143.779 58.0539 143.726Z" fill="#192753"/>
<path d="M58.1198 143.442C58.1165 143.55 58.0945 143.652 58.0566 143.747H58.1143C58.1173 143.722 58.1193 143.696 58.1198 143.67V143.442Z" fill="#192651"/>
<path d="M58.0364 143.726H57.9232C57.8798 143.783 57.8294 143.836 57.7734 143.882H57.9552C57.9872 143.833 58.0145 143.78 58.0364 143.726Z" fill="#14234B"/>
<path d="M58.0915 143.372C58.0856 143.38 58.0795 143.389 58.0731 143.397C58.0461 143.526 57.991 143.645 57.915 143.746H58.0283C58.0662 143.652 58.0881 143.549 58.0915 143.442V143.372Z" fill="#15234B"/>
<path d="M53.0447 143.655H52.959C52.9785 143.702 53.0082 143.744 53.0455 143.778C53.045 143.77 53.0447 143.762 53.0447 143.754V143.655Z" fill="#122148"/>
<path d="M53.1251 143.655H53.1006V143.754C53.1006 143.762 53.1009 143.77 53.1014 143.778C53.1468 143.819 53.2033 143.848 53.2659 143.86C53.1955 143.813 53.144 143.74 53.1251 143.655Z" fill="#101F46"/>
<path d="M53.5217 143.655H53.1006C53.1195 143.74 53.171 143.813 53.2414 143.86C53.262 143.864 53.2832 143.866 53.3046 143.866C53.3065 143.866 53.3085 143.866 53.3102 143.866H57.7857C57.8416 143.82 57.892 143.768 57.9354 143.71H53.7048C53.6374 143.709 53.5748 143.689 53.5217 143.655Z" fill="#0F1E44"/>
<path d="M58.0972 143.372C57.9734 143.537 57.776 143.643 57.5542 143.643C57.5526 143.643 57.5506 143.643 57.5487 143.643H57.4404C57.3753 143.659 57.3076 143.667 57.2383 143.667C57.2269 143.667 57.2155 143.666 57.2041 143.666H53.5254C53.5785 143.7 53.6412 143.719 53.7085 143.721H57.9391C58.0151 143.619 58.0702 143.5 58.0972 143.372Z" fill="#0C1D42"/>
<path d="M53.0528 143.655H52.959C52.9612 143.655 52.964 143.655 52.9671 143.655H53.0528V143.655Z" fill="#0A1C40"/>
<path d="M53.4944 143.655H53.1006C53.1017 143.655 53.1031 143.655 53.1048 143.655H53.5258C53.515 143.655 53.5044 143.655 53.4944 143.655Z" fill="#071D3D"/>
<path d="M57.4718 143.655H53.5254C53.5354 143.655 53.546 143.655 53.5568 143.655H57.2356C57.247 143.655 57.2584 143.655 57.2698 143.655C57.3391 143.655 57.4067 143.655 57.4718 143.655Z" fill="#071A3C"/>
<path d="M52.9084 143.584H52.6758V143.584C52.6908 143.584 52.7056 143.584 52.7203 143.584H52.9207C52.9154 143.584 52.9112 143.584 52.9084 143.584Z" fill="#081B3E"/>
<path d="M52.6758 143.301V143.631H52.9085C52.9057 143.615 52.9043 143.598 52.904 143.581V143.33H52.8202C52.8183 143.33 52.8166 143.33 52.8147 143.33C52.7651 143.33 52.7181 143.32 52.6758 143.301Z" fill="#07193A"/>
<path d="M58.1733 142.947C58.141 142.999 58.1017 143.047 58.0566 143.089V143.323C58.1293 143.216 58.1721 143.087 58.1733 142.948V142.947Z" fill="#1F2D5E"/>
<path d="M58.1654 143.088C58.1395 143.113 58.1114 143.135 58.0816 143.155C57.9642 143.387 57.7482 143.56 57.4902 143.62H57.5985C57.6004 143.62 57.6024 143.62 57.6041 143.62C57.8259 143.62 58.0232 143.514 58.147 143.349C58.1576 143.298 58.164 143.246 58.1654 143.193V143.088Z" fill="#081B3E"/>
<path d="M53.065 143.584H52.959C52.9618 143.584 52.9659 143.584 52.9712 143.584H53.065V143.584Z" fill="#071B3D"/>
<path d="M53.4476 143.584H53.1006C53.1006 143.584 53.1017 143.584 53.1042 143.584H53.498C53.4796 143.584 53.4627 143.584 53.4476 143.584Z" fill="#071A3A"/>
<path d="M57.972 143.159C57.9498 143.174 57.9267 143.188 57.9024 143.2C57.7394 143.428 57.4725 143.575 57.1744 143.575C57.1644 143.575 57.1543 143.575 57.1443 143.575H53.3838C53.3988 143.593 53.4158 143.61 53.4342 143.625H57.3806C57.6386 143.564 57.8546 143.392 57.972 143.159Z" fill="#07193A"/>
<path d="M53.0695 143.301H52.959V143.552C52.9593 143.569 52.9607 143.585 52.9634 143.601H53.0695V143.301Z" fill="#071937"/>
<path d="M53.3678 143.301H53.1006V143.601H53.4476C53.4009 143.545 53.3717 143.473 53.3678 143.395V143.301Z" fill="#081837"/>
<path d="M57.9823 143.23C57.8899 143.277 57.7853 143.304 57.6742 143.304H53.3838V143.398C53.3877 143.477 53.4169 143.548 53.4637 143.605H57.2242C57.2342 143.605 57.2442 143.605 57.2543 143.605C57.5523 143.605 57.8192 143.458 57.9823 143.23Z" fill="#081836"/>
<path d="M58.2979 138.203H58.1982V142.894H58.2547C58.2815 142.822 58.2968 142.746 58.2979 142.666V138.203Z" fill="#203B73"/>
<path d="M58.1982 134.026C58.2013 134.051 58.203 134.077 58.2032 134.104V138.188H58.3029V134.111C58.2712 134.08 58.2358 134.051 58.1982 134.026Z" fill="#164D83"/>
<path d="M52.6758 143.088V143.274C52.7181 143.294 52.7651 143.304 52.8147 143.304C52.8166 143.304 52.8183 143.304 52.8202 143.304H52.904V143.136L52.8642 143.143H52.8589C52.7913 143.143 52.7284 143.123 52.6758 143.088Z" fill="#081836"/>
<path d="M58.1733 142.876H58.0647C58.0628 142.898 58.0603 142.92 58.0566 142.941V143.133C58.1017 143.092 58.141 143.044 58.1733 142.991V142.876Z" fill="#192450"/>
<path d="M58.1652 138.203H58.0706V141.799C58.0706 141.821 58.0669 141.843 58.06 141.865V142.794C58.06 142.813 58.06 142.831 58.0594 142.85C58.0589 142.865 58.058 142.879 58.0566 142.894H58.1652V138.203Z" fill="#1F3569"/>
<path d="M58.0566 133.955V138.167H58.1513V134.083C58.151 134.056 58.1493 134.03 58.1463 134.005C58.1179 133.986 58.0878 133.969 58.0566 133.955Z" fill="#154676"/>
<path d="M58.1404 142.947C58.1257 143.039 58.097 143.125 58.0566 143.205C58.0864 143.185 58.1145 143.163 58.1404 143.139V142.947Z" fill="#07193A"/>
<path d="M58.0684 142.876H58.0681C58.0445 143.011 57.991 143.135 57.915 143.241C57.9393 143.228 57.9624 143.215 57.9846 143.2C58.025 143.12 58.0536 143.033 58.0684 142.941V142.876Z" fill="#081836"/>
<path d="M53.0695 143.088L52.959 143.108V143.276H53.0695V143.088Z" fill="#081836"/>
<path d="M53.3678 143.088L53.1006 143.136V143.327H53.3678V143.088Z" fill="#081834"/>
<path d="M58.1354 142.876H54.5104L53.3838 143.076V143.315H57.6742C57.7853 143.315 57.8899 143.288 57.9823 143.241C58.0583 143.135 58.1117 143.011 58.1354 142.876Z" fill="#081834"/>
<path d="M58.1419 141.885C57.9919 142.215 57.1138 142.484 56.7687 142.484L54.5166 142.884H58.1416C58.1416 142.883 58.1419 142.882 58.1419 142.881V141.885Z" fill="#0D2144"/>
<path d="M57.473 132.539C57.4672 132.539 57.4613 132.539 57.4555 132.539H52.6758V132.959V132.728H53.5118C53.5694 132.683 53.6424 132.656 53.7214 132.656H57.8549C57.7458 132.582 57.6141 132.539 57.473 132.539Z" fill="#4098D4"/>
<path d="M53.735 132.61C53.6559 132.61 53.583 132.637 53.5254 132.682H57.4576L57.4649 132.682C57.4741 132.681 57.4833 132.681 57.4924 132.681C57.6469 132.681 57.7902 132.733 57.9049 132.821H58.0705C58.0193 132.737 57.95 132.665 57.8684 132.61H53.735Z" fill="#3B94D0"/>
<path d="M58.0806 132.822H57.915C58.0083 132.894 58.0826 132.989 58.1285 133.1H58.1758C58.1644 132.999 58.131 132.905 58.0806 132.822Z" fill="#338AC9"/>
<path d="M52.6933 142.876H52.6758V143.021C52.6989 143.051 52.727 143.078 52.759 143.099V142.932C52.7348 142.917 52.7128 142.897 52.6933 142.876Z" fill="#081836"/>
<path d="M52.6758 142.947V143.113C52.7284 143.148 52.7913 143.168 52.8589 143.168H52.8642L52.904 143.16V142.994L52.8642 143.001H52.8589C52.7913 143.001 52.7284 142.981 52.6758 142.947Z" fill="#081835"/>
<path d="M53.0695 142.947L52.959 142.967V143.133L53.0695 143.113V142.947Z" fill="#081834"/>
<path d="M53.3678 142.876L53.1006 142.924V143.09L53.3678 143.042V142.876Z" fill="#091833"/>
<path d="M54.5104 142.876H53.5744L53.3838 142.91V143.076L54.5104 142.876Z" fill="#091734"/>
<path d="M58.0866 141.672C57.9366 142.003 57.0585 142.271 56.7134 142.271L53.5254 142.838H54.4614L56.7134 142.438C57.0585 142.438 57.9366 142.169 58.0866 141.839V141.672Z" fill="#0B2042"/>
<path d="M53.5118 132.681H52.6758V132.911C52.7367 132.857 52.8166 132.825 52.904 132.825H53.3888C53.3944 132.824 53.4002 132.823 53.4058 132.822C53.4281 132.766 53.4651 132.717 53.5118 132.681Z" fill="#338AC8"/>
<path d="M57.4569 132.681C57.4477 132.681 57.4385 132.681 57.4293 132.681L57.4221 132.682H53.4898C53.4431 132.719 53.4061 132.767 53.3838 132.823C53.398 132.822 53.4122 132.821 53.4266 132.821H57.8693C57.7547 132.733 57.6113 132.681 57.4569 132.681Z" fill="#2F87C3"/>
<path d="M53.4275 132.822C53.413 132.822 53.3988 132.823 53.3846 132.825C53.3843 132.826 53.3841 132.827 53.3838 132.828H56.3453C56.6779 132.829 57.0052 132.909 57.3013 133.061C57.3116 133.073 57.3297 133.086 57.3539 133.1H58.0836C58.0377 132.989 57.9634 132.894 57.8702 132.822H53.4275Z" fill="#307EB6"/>
<path d="M58.0784 133.105H57.3486C57.3595 133.112 57.3717 133.118 57.3848 133.124C57.5262 133.149 57.6564 133.207 57.7667 133.291C57.8471 133.327 57.9286 133.367 58.0038 133.411H58.0745C58.0928 133.411 58.1115 133.412 58.1296 133.414V133.339C58.1262 133.256 58.1084 133.178 58.0784 133.105Z" fill="#2C78AB"/>
<path d="M57.3486 133.106C57.4396 133.151 57.583 133.205 57.7305 133.272C57.6203 133.188 57.49 133.13 57.3486 133.106Z" fill="#1F567C"/>
<path d="M58.1273 133.389H58.0566C58.0928 133.41 58.1273 133.432 58.1596 133.455H58.1824V133.391C58.1643 133.39 58.1457 133.389 58.1273 133.389Z" fill="#2971A3"/>
<path d="M53.3888 132.822H52.904C52.8166 132.822 52.7367 132.855 52.6758 132.908V133.1H53.1186C53.1403 132.959 53.2497 132.848 53.3888 132.822Z" fill="#2872A3"/>
<path d="M53.387 132.822H53.3708C53.2317 132.848 53.1223 132.959 53.1006 133.1H53.3558C53.3586 133.1 53.3614 133.099 53.3641 133.099V132.939C53.365 132.898 53.3731 132.858 53.387 132.822Z" fill="#286C9C"/>
<path d="M56.3681 132.822H53.4066C53.3927 132.858 53.3846 132.898 53.3838 132.939V133.099C53.4019 133.096 53.4202 133.094 53.4392 133.094C53.4408 133.094 53.4428 133.094 53.4445 133.094H57.3767C57.3525 133.081 57.3344 133.068 57.3241 133.056C57.028 132.904 56.7007 132.824 56.3681 132.822Z" fill="#296997"/>
<path d="M53.4392 133.105C53.4202 133.105 53.4019 133.107 53.3838 133.11V133.112H57.2309C57.2401 133.111 57.249 133.111 57.2582 133.111C57.311 133.111 57.3625 133.116 57.4129 133.125C57.3998 133.118 57.3876 133.112 57.3767 133.106H53.4445C53.4428 133.106 53.4408 133.105 53.4392 133.105ZM57.7947 133.291C57.8418 133.327 57.8855 133.367 57.9247 133.412H58.0319C57.9567 133.368 57.8752 133.328 57.7947 133.291Z" fill="#256490"/>
<path d="M53.1186 133.105H52.6758V133.306H53.115V133.15C53.1152 133.135 53.1163 133.12 53.1186 133.105Z" fill="#1E5377"/>
<path d="M53.3594 133.105H53.1042C53.102 133.12 53.1009 133.135 53.1006 133.15V133.306H53.1109C53.1546 133.203 53.2473 133.127 53.3594 133.105Z" fill="#1E5075"/>
<path d="M53.3575 133.105H53.3491C53.237 133.127 53.1443 133.203 53.1006 133.306H53.3575V133.105Z" fill="#1C4F71"/>
<path d="M57.2582 133.105C57.249 133.105 57.2401 133.105 57.2309 133.106H53.3838V133.306H57.2242L57.2356 133.305H57.2465C57.3948 133.305 57.5345 133.341 57.6575 133.406H57.9247C57.8855 133.362 57.8418 133.321 57.7947 133.285C57.6472 133.218 57.5039 133.164 57.4129 133.119C57.3625 133.11 57.311 133.105 57.2582 133.105Z" fill="#1D4D6F"/>
<path d="M53.115 133.318H52.6758V133.484H52.6763V133.418C52.6975 133.413 52.7189 133.411 52.7403 133.411C52.7615 133.411 52.7829 133.413 52.8041 133.418H53.0997C53.1022 133.392 53.1074 133.368 53.115 133.345V133.318Z" fill="#194B6C"/>
<path d="M53.3678 133.318H53.1109C53.107 133.327 53.1036 133.336 53.1006 133.345V133.418H53.3071C53.309 133.418 53.3107 133.418 53.3127 133.418C53.3143 133.418 53.3163 133.418 53.3179 133.418H53.3678V133.318Z" fill="#1B4766"/>
<path d="M57.2465 133.318H57.2356L57.2242 133.319H53.3838V133.418H57.6575C57.5345 133.354 57.3948 133.318 57.2465 133.318Z" fill="#1A4565"/>
<path d="M58.0222 133.389H57.915C57.934 133.41 57.9518 133.432 57.9685 133.455H58.1252C58.0929 133.432 58.0584 133.41 58.0222 133.389Z" fill="#205F89"/>
<path d="M58.0717 133.46H57.915C57.9468 133.503 57.9746 133.55 57.9983 133.599C58.035 133.637 58.0676 133.68 58.0946 133.725V133.477C58.0873 133.471 58.0795 133.465 58.0717 133.46Z" fill="#154779"/>
<path d="M57.899 133.389H57.6318C57.636 133.391 57.6402 133.393 57.6444 133.395C57.7142 133.405 57.7807 133.426 57.842 133.455H57.9524C57.9358 133.432 57.9179 133.41 57.899 133.389Z" fill="#1A4B6B"/>
<path d="M57.8839 133.46H57.7734C57.8461 133.495 57.9115 133.542 57.9671 133.599C57.9435 133.55 57.9156 133.503 57.8839 133.46Z" fill="#12375E"/>
<path d="M52.7398 133.389C52.7184 133.389 52.6969 133.391 52.6758 133.395V133.461H53.0977V133.422C53.0977 133.413 53.0983 133.404 53.0991 133.395H52.8035C52.7824 133.391 52.7609 133.389 52.7398 133.389Z" fill="#1B4766"/>
<path d="M53.0977 133.46H52.6758V133.46H53.0704C53.0788 133.46 53.088 133.46 53.0977 133.46V133.46Z" fill="#0F365A"/>
<path d="M53.3071 133.389H53.1006V133.455H53.1106C53.1657 133.415 53.2336 133.39 53.3071 133.389Z" fill="#184460"/>
<path d="M53.0704 133.53H52.6758V133.764H52.9872V133.747C52.9886 133.664 53.0198 133.588 53.0704 133.53Z" fill="#103256"/>
<path d="M52.9872 133.743H52.6758V134.037H52.8116C52.8525 133.973 52.9143 133.923 52.9872 133.897V133.743Z" fill="#103052"/>
<path d="M52.7415 142.876H52.6758C52.6953 142.876 52.7172 142.876 52.7415 142.876V142.876Z" fill="#081835"/>
<path d="M52.6758 142.664V142.836C52.6813 142.843 52.6872 142.85 52.6933 142.857H52.759V142.742C52.727 142.72 52.6989 142.694 52.6758 142.664Z" fill="#0E2245"/>
<path d="M52.8116 134.097H52.6758V134.419H52.759V134.269C52.7609 134.205 52.7801 134.147 52.8116 134.097Z" fill="#0D2F4F"/>
<path d="M52.759 138.203H52.6758V142.7C52.6989 142.73 52.727 142.757 52.759 142.778V138.203Z" fill="#0E2245"/>
<path d="M52.759 134.38H52.6758V138.17H52.759V134.38Z" fill="#0D2D4E"/>
<path d="M58.0566 133.601C58.1051 133.703 58.1348 133.815 58.1412 133.935C58.1451 133.936 58.1493 133.938 58.1529 133.94V133.727C58.1259 133.682 58.0934 133.639 58.0566 133.601Z" fill="#12426F"/>
<path d="M57.6318 133.389C57.665 133.407 57.6967 133.427 57.7273 133.449H57.8294C57.7682 133.419 57.7017 133.399 57.6318 133.389Z" fill="#1B4665"/>
<path d="M57.8756 133.46H57.7734C57.9268 133.57 58.0437 133.728 58.1024 133.913C58.1199 133.919 58.1372 133.925 58.1539 133.933C58.1475 133.814 58.1177 133.701 58.0693 133.599C58.0136 133.542 57.9482 133.495 57.8756 133.46Z" fill="#0F3559"/>
<path d="M53.3577 133.389H53.2971C53.2236 133.39 53.1557 133.415 53.1006 133.455H53.3577V133.389Z" fill="#19415E"/>
<path d="M53.3678 133.46H53.1106C53.1073 133.46 53.1039 133.46 53.1006 133.46V133.46H53.3678V133.46Z" fill="#0F3154"/>
<path d="M57.5799 133.389H53.3838V133.455H57.7655C57.7349 133.434 57.7032 133.414 57.6701 133.395C57.6406 133.391 57.6102 133.389 57.5799 133.389Z" fill="#19415E"/>
<path d="M57.7655 133.46H53.3838V133.51H57.2523C57.5493 133.511 57.8112 133.659 57.9712 133.883C58.0138 133.889 58.0547 133.899 58.0945 133.913C58.0358 133.728 57.9189 133.57 57.7655 133.46Z" fill="#0F3154"/>
<path d="M53.0695 133.53H53.0422C52.9915 133.588 52.9604 133.664 52.959 133.747V133.764H53.0695V133.53Z" fill="#0F3154"/>
<path d="M53.0695 133.743H52.959V133.897C52.9935 133.884 53.0308 133.877 53.0695 133.876V133.743Z" fill="#0E2F50"/>
<path d="M53.368 133.53H53.1006V133.764H53.368V133.53Z" fill="#0E2F50"/>
<path d="M57.2523 133.53H53.3838V133.764H57.2242C57.232 133.763 57.2395 133.763 57.2473 133.763C57.419 133.763 57.5799 133.812 57.7163 133.897H57.8691V133.897H57.8743C57.9072 133.897 57.9395 133.899 57.9712 133.904C57.8112 133.679 57.5493 133.532 57.2523 133.53Z" fill="#0D2F4F"/>
<path d="M53.368 133.743H53.1006V133.876H53.368V133.743Z" fill="#0D2D4E"/>
<path d="M57.2473 133.743C57.2395 133.743 57.232 133.743 57.2242 133.743H53.3838V133.877H57.7163C57.5799 133.792 57.419 133.743 57.2473 133.743Z" fill="#0D2D4E"/>
<path d="M52.993 133.955C52.9201 133.981 52.8583 134.031 52.8174 134.096H52.993V133.955Z" fill="#0E2F50"/>
<path d="M52.904 142.876H52.6758V142.932C52.7284 142.967 52.7913 142.987 52.8589 142.987H52.8642L52.904 142.98V142.876Z" fill="#081834"/>
<path d="M52.6758 142.734V142.85H52.904V142.782L52.8642 142.789H52.8589C52.7913 142.789 52.7284 142.769 52.6758 142.734Z" fill="#0F2145"/>
<path d="M52.904 134.097H52.7284C52.6969 134.147 52.6777 134.205 52.6758 134.269V134.419H52.904V134.097Z" fill="#0D2D4E"/>
<path d="M52.904 138.203H52.6758V142.778C52.7284 142.812 52.7913 142.832 52.8589 142.832H52.8642L52.904 142.825V138.203Z" fill="#0F2145"/>
<path d="M52.904 134.38H52.6758V138.17H52.904V134.38Z" fill="#0D2E4E"/>
<path d="M57.915 133.884C58.0177 134.028 58.0784 134.205 58.0795 134.395V134.172C58.0784 134.082 58.0642 133.995 58.0383 133.914C57.9985 133.9 57.9576 133.89 57.915 133.884Z" fill="#0F3051"/>
<path d="M53.0695 133.884C53.0308 133.885 52.9935 133.892 52.959 133.905V134.045H53.0695V133.884Z" fill="#0D2F4F"/>
<path d="M57.7899 133.884H57.7846V133.885H57.6318C57.8759 134.037 58.0415 134.304 58.0513 134.613V138.158V134.402C58.0501 134.212 57.9895 134.035 57.8868 133.891C57.855 133.887 57.8228 133.884 57.7899 133.884Z" fill="#0D2F4F"/>
<path d="M53.368 133.884H53.1006V134.045H53.368V133.884Z" fill="#0D2E4E"/>
<path d="M57.7163 133.884H53.3838V134.045H57.2242C57.232 134.045 57.2395 134.045 57.2473 134.045C57.726 134.045 58.1206 134.426 58.1357 134.906V134.612C58.1259 134.303 57.9603 134.036 57.7163 133.884Z" fill="#0D2D4D"/>
<path d="M53.0695 142.876H52.959V142.98L53.0695 142.96V142.876Z" fill="#081834"/>
<path d="M53.0695 142.805L52.959 142.825V142.893H53.0695V142.805Z" fill="#0D2144"/>
<path d="M53.3678 142.876H53.1006V142.958L53.3678 142.91V142.876Z" fill="#091734"/>
<path d="M53.3678 142.734L53.1006 142.782V142.874H53.3678V142.734Z" fill="#0B2042"/>
<path d="M53.5744 142.876H53.3838V142.876L53.5744 142.876Z" fill="#091734"/>
<path d="M58.1357 141.531C57.9857 141.86 57.1076 142.124 56.7625 142.124L53.3838 142.73V142.869H53.5744L56.7625 142.302C57.1076 142.302 57.9857 142.033 58.1357 141.703V141.531Z" fill="#0B2042"/>
<path d="M53.0695 134.097H52.959V134.419H53.0695V134.097Z" fill="#0D2E4E"/>
<path d="M53.0695 138.203H52.959V142.825L53.0695 142.806V138.203Z" fill="#0D2144"/>
<path d="M53.0695 134.38H52.959V138.17H53.0695V134.38Z" fill="#0D2D4D"/>
<path d="M53.368 134.097H53.1006V134.419H53.368V134.097Z" fill="#0C2D4C"/>
<path d="M57.2473 134.026C57.2395 134.026 57.232 134.026 57.2242 134.026H53.3838V134.348H57.2242C57.232 134.348 57.2401 134.348 57.2479 134.348C57.7179 134.348 58.109 134.716 58.1357 135.188V138.139V134.887C58.1206 134.406 57.726 134.026 57.2473 134.026Z" fill="#0C2C4B"/>
<path d="M53.3678 138.203H53.1006V142.802L53.3678 142.755V138.203Z" fill="#0B2042"/>
<path d="M53.368 134.38H53.1006V138.17H53.368V134.38Z" fill="#0C2C4B"/>
<path d="M58.1357 138.203H53.3838V142.755L56.7625 142.149C57.1076 142.149 57.9857 141.885 58.1357 141.556V138.203Z" fill="#0B2042"/>
<path d="M57.2479 134.38C57.2401 134.38 57.232 134.38 57.2242 134.38H53.3838V138.17H58.1357V135.22C58.109 134.748 57.7179 134.38 57.2479 134.38Z" fill="#0B2C4B"/>
<path d="M48.0648 132.822H57.1912C57.6891 132.819 58.0968 133.219 58.1026 133.717V142.648C58.0999 143.149 57.6916 143.551 57.1912 143.549H48.0648C47.8243 143.543 47.5942 143.448 47.4202 143.282C47.2491 143.115 47.1528 142.887 47.1533 142.648V133.712C47.1622 133.216 47.5688 132.819 48.0648 132.822Z" fill="#2C5DAB"/>
<path d="M55.492 141.507H54.2638L52.8241 136.883L51.3179 141.507H50.0836L48.7109 134.805H49.9452L50.9012 139.495L52.3409 134.938H53.369L54.7417 139.495L55.6977 134.805H56.8646L55.492 141.507Z" fill="white"/>
<path d="M546.06 110.803H33.8428V116.864H546.06V110.803Z" fill="#212121"/>
<path d="M546.06 391.103H33.8428V397.164H546.06V391.103Z" fill="#212121"/>
<path d="M37.2646 110.803H33.8428V397.157H37.2646V110.803Z" fill="#212121"/>
<path d="M546.039 110.803H542.617V397.157H546.039V110.803Z" fill="#212121"/>
</svg>
