<svg width="180" height="180" viewBox="0 0 180 180" fill="none" xmlns="http://www.w3.org/2000/svg">
<rect width="180" height="180" rx="20" fill="#F2F2F2"/>
<path d="M30.0178 122V113.6H33.2938C34.0298 113.6 34.6578 113.716 35.1778 113.948C35.6978 114.18 36.0978 114.516 36.3778 114.956C36.6578 115.396 36.7978 115.92 36.7978 116.528C36.7978 117.136 36.6578 117.66 36.3778 118.1C36.0978 118.532 35.6978 118.864 35.1778 119.096C34.6578 119.328 34.0298 119.444 33.2938 119.444H30.6778L31.2178 118.892V122H30.0178ZM35.6338 122L33.4978 118.952H34.7818L36.9418 122H35.6338ZM31.2178 119.012L30.6778 118.424H33.2578C34.0258 118.424 34.6058 118.26 34.9978 117.932C35.3978 117.596 35.5978 117.128 35.5978 116.528C35.5978 115.928 35.3978 115.464 34.9978 115.136C34.6058 114.808 34.0258 114.644 33.2578 114.644H30.6778L31.2178 114.044V119.012ZM41.4006 122.072C40.7206 122.072 40.1206 121.932 39.6006 121.652C39.0886 121.372 38.6886 120.988 38.4006 120.5C38.1206 120.012 37.9806 119.452 37.9806 118.82C37.9806 118.188 38.1166 117.628 38.3886 117.14C38.6686 116.652 39.0486 116.272 39.5286 116C40.0166 115.72 40.5646 115.58 41.1726 115.58C41.7886 115.58 42.3326 115.716 42.8046 115.988C43.2766 116.26 43.6446 116.644 43.9086 117.14C44.1806 117.628 44.3166 118.2 44.3166 118.856C44.3166 118.904 44.3126 118.96 44.3046 119.024C44.3046 119.088 44.3006 119.148 44.2926 119.204H38.8806V118.376H43.6926L43.2246 118.664C43.2326 118.256 43.1486 117.892 42.9726 117.572C42.7966 117.252 42.5526 117.004 42.2406 116.828C41.9366 116.644 41.5806 116.552 41.1726 116.552C40.7726 116.552 40.4166 116.644 40.1046 116.828C39.7926 117.004 39.5486 117.256 39.3726 117.584C39.1966 117.904 39.1086 118.272 39.1086 118.688V118.88C39.1086 119.304 39.2046 119.684 39.3966 120.02C39.5966 120.348 39.8726 120.604 40.2246 120.788C40.5766 120.972 40.9806 121.064 41.4366 121.064C41.8126 121.064 42.1526 121 42.4566 120.872C42.7686 120.744 43.0406 120.552 43.2726 120.296L43.9086 121.04C43.6206 121.376 43.2606 121.632 42.8286 121.808C42.4046 121.984 41.9286 122.072 41.4006 122.072ZM49.2882 122.072C48.7602 122.072 48.2762 121.952 47.8362 121.712C47.4042 121.464 47.0562 121.1 46.7922 120.62C46.5362 120.14 46.4082 119.54 46.4082 118.82C46.4082 118.1 46.5322 117.5 46.7802 117.02C47.0362 116.54 47.3802 116.18 47.8122 115.94C48.2522 115.7 48.7442 115.58 49.2882 115.58C49.9122 115.58 50.4642 115.716 50.9442 115.988C51.4242 116.26 51.8042 116.64 52.0842 117.128C52.3642 117.608 52.5042 118.172 52.5042 118.82C52.5042 119.468 52.3642 120.036 52.0842 120.524C51.8042 121.012 51.4242 121.392 50.9442 121.664C50.4642 121.936 49.9122 122.072 49.2882 122.072ZM45.9162 124.328V115.64H47.0202V117.356L46.9482 118.832L47.0682 120.308V124.328H45.9162ZM49.1922 121.064C49.6002 121.064 49.9642 120.972 50.2842 120.788C50.6122 120.604 50.8682 120.344 51.0522 120.008C51.2442 119.664 51.3402 119.268 51.3402 118.82C51.3402 118.364 51.2442 117.972 51.0522 117.644C50.8682 117.308 50.6122 117.048 50.2842 116.864C49.9642 116.68 49.6002 116.588 49.1922 116.588C48.7922 116.588 48.4282 116.68 48.1002 116.864C47.7802 117.048 47.5242 117.308 47.3322 117.644C47.1482 117.972 47.0562 118.364 47.0562 118.82C47.0562 119.268 47.1482 119.664 47.3322 120.008C47.5242 120.344 47.7802 120.604 48.1002 120.788C48.4282 120.972 48.7922 121.064 49.1922 121.064ZM56.9279 122.072C56.2479 122.072 55.6479 121.932 55.1279 121.652C54.6159 121.372 54.2159 120.988 53.9279 120.5C53.6479 120.012 53.5079 119.452 53.5079 118.82C53.5079 118.188 53.6439 117.628 53.9159 117.14C54.1959 116.652 54.5759 116.272 55.0559 116C55.5439 115.72 56.0919 115.58 56.6999 115.58C57.3159 115.58 57.8599 115.716 58.3319 115.988C58.8039 116.26 59.1719 116.644 59.4359 117.14C59.7079 117.628 59.8439 118.2 59.8439 118.856C59.8439 118.904 59.8399 118.96 59.8319 119.024C59.8319 119.088 59.8279 119.148 59.8199 119.204H54.4079V118.376H59.2199L58.7519 118.664C58.7599 118.256 58.6759 117.892 58.4999 117.572C58.3239 117.252 58.0799 117.004 57.7679 116.828C57.4639 116.644 57.1079 116.552 56.6999 116.552C56.2999 116.552 55.9439 116.644 55.6319 116.828C55.3199 117.004 55.0759 117.256 54.8999 117.584C54.7239 117.904 54.6359 118.272 54.6359 118.688V118.88C54.6359 119.304 54.7319 119.684 54.9239 120.02C55.1239 120.348 55.3999 120.604 55.7519 120.788C56.1039 120.972 56.5079 121.064 56.9639 121.064C57.3399 121.064 57.6799 121 57.9839 120.872C58.2959 120.744 58.5679 120.552 58.7999 120.296L59.4359 121.04C59.1479 121.376 58.7879 121.632 58.3559 121.808C57.9319 121.984 57.4559 122.072 56.9279 122.072ZM65.2158 122V120.656L65.1558 120.404V118.112C65.1558 117.624 65.0118 117.248 64.7238 116.984C64.4438 116.712 64.0198 116.576 63.4518 116.576C63.0758 116.576 62.7078 116.64 62.3478 116.768C61.9878 116.888 61.6838 117.052 61.4358 117.26L60.9558 116.396C61.2838 116.132 61.6758 115.932 62.1318 115.796C62.5958 115.652 63.0798 115.58 63.5838 115.58C64.4558 115.58 65.1278 115.792 65.5998 116.216C66.0718 116.64 66.3078 117.288 66.3078 118.16V122H65.2158ZM63.1278 122.072C62.6558 122.072 62.2398 121.992 61.8798 121.832C61.5278 121.672 61.2558 121.452 61.0638 121.172C60.8718 120.884 60.7758 120.56 60.7758 120.2C60.7758 119.856 60.8558 119.544 61.0158 119.264C61.1838 118.984 61.4518 118.76 61.8198 118.592C62.1958 118.424 62.6998 118.34 63.3318 118.34H65.3478V119.168H63.3798C62.8038 119.168 62.4158 119.264 62.2158 119.456C62.0158 119.648 61.9158 119.88 61.9158 120.152C61.9158 120.464 62.0398 120.716 62.2878 120.908C62.5358 121.092 62.8798 121.184 63.3198 121.184C63.7518 121.184 64.1278 121.088 64.4478 120.896C64.7758 120.704 65.0118 120.424 65.1558 120.056L65.3838 120.848C65.2318 121.224 64.9638 121.524 64.5798 121.748C64.1958 121.964 63.7118 122.072 63.1278 122.072ZM70.6237 122.072C69.9837 122.072 69.4877 121.9 69.1357 121.556C68.7837 121.212 68.6077 120.72 68.6077 120.08V114.248H69.7597V120.032C69.7597 120.376 69.8437 120.64 70.0117 120.824C70.1877 121.008 70.4357 121.1 70.7557 121.1C71.1157 121.1 71.4157 121 71.6557 120.8L72.0157 121.628C71.8397 121.78 71.6277 121.892 71.3797 121.964C71.1397 122.036 70.8877 122.072 70.6237 122.072ZM67.5277 116.588V115.64H71.5837V116.588H67.5277ZM78.8151 122.072C78.1751 122.072 77.6791 121.9 77.3271 121.556C76.9751 121.212 76.7991 120.72 76.7991 120.08V114.248H77.9511V120.032C77.9511 120.376 78.0351 120.64 78.2031 120.824C78.3791 121.008 78.6271 121.1 78.9471 121.1C79.3071 121.1 79.6071 121 79.8471 120.8L80.2071 121.628C80.0311 121.78 79.8191 121.892 79.5711 121.964C79.3311 122.036 79.0791 122.072 78.8151 122.072ZM75.7191 116.588V115.64H79.7751V116.588H75.7191ZM84.9958 115.58C85.5158 115.58 85.9718 115.68 86.3638 115.88C86.7638 116.08 87.0758 116.384 87.2998 116.792C87.5238 117.2 87.6358 117.716 87.6358 118.34V122H86.4838V118.472C86.4838 117.856 86.3318 117.392 86.0278 117.08C85.7318 116.768 85.3118 116.612 84.7678 116.612C84.3598 116.612 84.0038 116.692 83.6998 116.852C83.3958 117.012 83.1598 117.248 82.9918 117.56C82.8318 117.872 82.7518 118.26 82.7518 118.724V122H81.5998V113.096H82.7518V117.356L82.5238 116.9C82.7318 116.484 83.0518 116.16 83.4838 115.928C83.9158 115.696 84.4198 115.58 84.9958 115.58ZM92.5998 122.072C91.9198 122.072 91.3198 121.932 90.7998 121.652C90.2878 121.372 89.8878 120.988 89.5998 120.5C89.3198 120.012 89.1798 119.452 89.1798 118.82C89.1798 118.188 89.3158 117.628 89.5878 117.14C89.8678 116.652 90.2478 116.272 90.7278 116C91.2158 115.72 91.7638 115.58 92.3718 115.58C92.9878 115.58 93.5318 115.716 94.0038 115.988C94.4758 116.26 94.8438 116.644 95.1078 117.14C95.3798 117.628 95.5158 118.2 95.5158 118.856C95.5158 118.904 95.5118 118.96 95.5038 119.024C95.5038 119.088 95.4998 119.148 95.4918 119.204H90.0798V118.376H94.8918L94.4238 118.664C94.4318 118.256 94.3478 117.892 94.1718 117.572C93.9958 117.252 93.7518 117.004 93.4398 116.828C93.1358 116.644 92.7798 116.552 92.3718 116.552C91.9718 116.552 91.6158 116.644 91.3038 116.828C90.9918 117.004 90.7478 117.256 90.5718 117.584C90.3958 117.904 90.3078 118.272 90.3078 118.688V118.88C90.3078 119.304 90.4038 119.684 90.5958 120.02C90.7958 120.348 91.0718 120.604 91.4238 120.788C91.7758 120.972 92.1798 121.064 92.6358 121.064C93.0118 121.064 93.3518 121 93.6558 120.872C93.9678 120.744 94.2398 120.552 94.4718 120.296L95.1078 121.04C94.8198 121.376 94.4598 121.632 94.0278 121.808C93.6038 121.984 93.1278 122.072 92.5998 122.072ZM103.71 122.072C103.182 122.072 102.698 121.952 102.258 121.712C101.826 121.464 101.478 121.1 101.214 120.62C100.958 120.14 100.83 119.54 100.83 118.82C100.83 118.1 100.954 117.5 101.202 117.02C101.458 116.54 101.802 116.18 102.234 115.94C102.674 115.7 103.166 115.58 103.71 115.58C104.334 115.58 104.886 115.716 105.366 115.988C105.846 116.26 106.226 116.64 106.506 117.128C106.786 117.608 106.926 118.172 106.926 118.82C106.926 119.468 106.786 120.036 106.506 120.524C106.226 121.012 105.846 121.392 105.366 121.664C104.886 121.936 104.334 122.072 103.71 122.072ZM100.338 124.328V115.64H101.442V117.356L101.37 118.832L101.49 120.308V124.328H100.338ZM103.614 121.064C104.022 121.064 104.386 120.972 104.706 120.788C105.034 120.604 105.29 120.344 105.474 120.008C105.666 119.664 105.762 119.268 105.762 118.82C105.762 118.364 105.666 117.972 105.474 117.644C105.29 117.308 105.034 117.048 104.706 116.864C104.386 116.68 104.022 116.588 103.614 116.588C103.214 116.588 102.85 116.68 102.522 116.864C102.202 117.048 101.946 117.308 101.754 117.644C101.57 117.972 101.478 118.364 101.478 118.82C101.478 119.268 101.57 119.664 101.754 120.008C101.946 120.344 102.202 120.604 102.522 120.788C102.85 120.972 103.214 121.064 103.614 121.064ZM108.518 122V115.64H109.622V117.368L109.514 116.936C109.69 116.496 109.986 116.16 110.402 115.928C110.818 115.696 111.33 115.58 111.938 115.58V116.696C111.89 116.688 111.842 116.684 111.794 116.684C111.754 116.684 111.714 116.684 111.674 116.684C111.058 116.684 110.57 116.868 110.21 117.236C109.85 117.604 109.67 118.136 109.67 118.832V122H108.518ZM116.131 122.072C115.451 122.072 114.851 121.932 114.331 121.652C113.819 121.372 113.419 120.988 113.131 120.5C112.851 120.012 112.711 119.452 112.711 118.82C112.711 118.188 112.847 117.628 113.119 117.14C113.399 116.652 113.779 116.272 114.259 116C114.747 115.72 115.295 115.58 115.903 115.58C116.519 115.58 117.063 115.716 117.535 115.988C118.007 116.26 118.375 116.644 118.639 117.14C118.911 117.628 119.047 118.2 119.047 118.856C119.047 118.904 119.043 118.96 119.035 119.024C119.035 119.088 119.031 119.148 119.023 119.204H113.611V118.376H118.423L117.955 118.664C117.963 118.256 117.879 117.892 117.703 117.572C117.527 117.252 117.283 117.004 116.971 116.828C116.667 116.644 116.311 116.552 115.903 116.552C115.503 116.552 115.147 116.644 114.835 116.828C114.523 117.004 114.279 117.256 114.103 117.584C113.927 117.904 113.839 118.272 113.839 118.688V118.88C113.839 119.304 113.935 119.684 114.127 120.02C114.327 120.348 114.603 120.604 114.955 120.788C115.307 120.972 115.711 121.064 116.167 121.064C116.543 121.064 116.883 121 117.187 120.872C117.499 120.744 117.771 120.552 118.003 120.296L118.639 121.04C118.351 121.376 117.991 121.632 117.559 121.808C117.135 121.984 116.659 122.072 116.131 122.072ZM122.198 122L119.413 115.64H120.614L123.086 121.4H122.51L125.03 115.64H126.158L123.374 122H122.198ZM127.233 122V115.64H128.385V122H127.233ZM127.809 114.416C127.585 114.416 127.397 114.344 127.245 114.2C127.101 114.056 127.029 113.88 127.029 113.672C127.029 113.456 127.101 113.276 127.245 113.132C127.397 112.988 127.585 112.916 127.809 112.916C128.033 112.916 128.217 112.988 128.361 113.132C128.513 113.268 128.589 113.44 128.589 113.648C128.589 113.864 128.517 114.048 128.373 114.2C128.229 114.344 128.041 114.416 127.809 114.416ZM133.308 122.072C132.668 122.072 132.1 121.932 131.604 121.652C131.108 121.372 130.716 120.988 130.428 120.5C130.14 120.004 129.996 119.444 129.996 118.82C129.996 118.188 130.14 117.628 130.428 117.14C130.716 116.652 131.108 116.272 131.604 116C132.1 115.72 132.668 115.58 133.308 115.58C133.94 115.58 134.504 115.72 135 116C135.504 116.272 135.896 116.652 136.176 117.14C136.464 117.62 136.608 118.18 136.608 118.82C136.608 119.452 136.464 120.012 136.176 120.5C135.896 120.988 135.504 121.372 135 121.652C134.504 121.932 133.94 122.072 133.308 122.072ZM133.308 121.064C133.716 121.064 134.08 120.972 134.4 120.788C134.728 120.604 134.984 120.344 135.168 120.008C135.352 119.664 135.444 119.268 135.444 118.82C135.444 118.364 135.352 117.972 135.168 117.644C134.984 117.308 134.728 117.048 134.4 116.864C134.08 116.68 133.716 116.588 133.308 116.588C132.9 116.588 132.536 116.68 132.216 116.864C131.896 117.048 131.64 117.308 131.448 117.644C131.256 117.972 131.16 118.364 131.16 118.82C131.16 119.268 131.256 119.664 131.448 120.008C131.64 120.344 131.896 120.604 132.216 120.788C132.536 120.972 132.9 121.064 133.308 121.064ZM140.877 122.072C140.333 122.072 139.853 121.972 139.437 121.772C139.029 121.572 138.709 121.268 138.477 120.86C138.253 120.444 138.141 119.924 138.141 119.3V115.64H139.293V119.168C139.293 119.792 139.441 120.26 139.737 120.572C140.041 120.884 140.465 121.04 141.009 121.04C141.409 121.04 141.757 120.96 142.053 120.8C142.349 120.632 142.577 120.392 142.737 120.08C142.897 119.76 142.977 119.376 142.977 118.928V115.64H144.129V122H143.037V120.284L143.217 120.74C143.009 121.164 142.697 121.492 142.281 121.724C141.865 121.956 141.397 122.072 140.877 122.072ZM148.146 122.072C147.618 122.072 147.114 122 146.634 121.856C146.162 121.712 145.79 121.536 145.518 121.328L145.998 120.416C146.27 120.6 146.606 120.756 147.006 120.884C147.406 121.012 147.814 121.076 148.23 121.076C148.766 121.076 149.15 121 149.382 120.848C149.622 120.696 149.742 120.484 149.742 120.212C149.742 120.012 149.67 119.856 149.526 119.744C149.382 119.632 149.19 119.548 148.95 119.492C148.718 119.436 148.458 119.388 148.17 119.348C147.882 119.3 147.594 119.244 147.306 119.18C147.018 119.108 146.754 119.012 146.514 118.892C146.274 118.764 146.082 118.592 145.938 118.376C145.794 118.152 145.722 117.856 145.722 117.488C145.722 117.104 145.83 116.768 146.046 116.48C146.262 116.192 146.566 115.972 146.958 115.82C147.358 115.66 147.83 115.58 148.374 115.58C148.79 115.58 149.21 115.632 149.634 115.736C150.066 115.832 150.418 115.972 150.69 116.156L150.198 117.068C149.91 116.876 149.61 116.744 149.298 116.672C148.986 116.6 148.674 116.564 148.362 116.564C147.858 116.564 147.482 116.648 147.234 116.816C146.986 116.976 146.862 117.184 146.862 117.44C146.862 117.656 146.934 117.824 147.078 117.944C147.23 118.056 147.422 118.144 147.654 118.208C147.894 118.272 148.158 118.328 148.446 118.376C148.734 118.416 149.022 118.472 149.31 118.544C149.598 118.608 149.858 118.7 150.09 118.82C150.33 118.94 150.522 119.108 150.666 119.324C150.818 119.54 150.894 119.828 150.894 120.188C150.894 120.572 150.782 120.904 150.558 121.184C150.334 121.464 150.018 121.684 149.61 121.844C149.202 121.996 148.714 122.072 148.146 122.072ZM41.4883 137.072C40.9603 137.072 40.4563 137 39.9763 136.856C39.5043 136.712 39.1323 136.536 38.8603 136.328L39.3403 135.416C39.6123 135.6 39.9483 135.756 40.3483 135.884C40.7483 136.012 41.1563 136.076 41.5723 136.076C42.1083 136.076 42.4923 136 42.7243 135.848C42.9643 135.696 43.0843 135.484 43.0843 135.212C43.0843 135.012 43.0123 134.856 42.8683 134.744C42.7243 134.632 42.5323 134.548 42.2923 134.492C42.0603 134.436 41.8003 134.388 41.5123 134.348C41.2243 134.3 40.9363 134.244 40.6483 134.18C40.3603 134.108 40.0963 134.012 39.8563 133.892C39.6163 133.764 39.4243 133.592 39.2803 133.376C39.1363 133.152 39.0643 132.856 39.0643 132.488C39.0643 132.104 39.1723 131.768 39.3883 131.48C39.6043 131.192 39.9083 130.972 40.3003 130.82C40.7003 130.66 41.1723 130.58 41.7163 130.58C42.1323 130.58 42.5523 130.632 42.9763 130.736C43.4083 130.832 43.7603 130.972 44.0323 131.156L43.5403 132.068C43.2523 131.876 42.9523 131.744 42.6403 131.672C42.3283 131.6 42.0163 131.564 41.7043 131.564C41.2003 131.564 40.8243 131.648 40.5763 131.816C40.3283 131.976 40.2043 132.184 40.2043 132.44C40.2043 132.656 40.2763 132.824 40.4203 132.944C40.5723 133.056 40.7643 133.144 40.9963 133.208C41.2363 133.272 41.5003 133.328 41.7883 133.376C42.0763 133.416 42.3643 133.472 42.6523 133.544C42.9403 133.608 43.2003 133.7 43.4323 133.82C43.6723 133.94 43.8643 134.108 44.0083 134.324C44.1603 134.54 44.2363 134.828 44.2363 135.188C44.2363 135.572 44.1243 135.904 43.9003 136.184C43.6763 136.464 43.3603 136.684 42.9523 136.844C42.5443 136.996 42.0563 137.072 41.4883 137.072ZM47.86 137.072C47.22 137.072 46.724 136.9 46.372 136.556C46.02 136.212 45.844 135.72 45.844 135.08V129.248H46.996V135.032C46.996 135.376 47.08 135.64 47.248 135.824C47.424 136.008 47.672 136.1 47.992 136.1C48.352 136.1 48.652 136 48.892 135.8L49.252 136.628C49.076 136.78 48.864 136.892 48.616 136.964C48.376 137.036 48.124 137.072 47.86 137.072ZM44.764 131.588V130.64H48.82V131.588H44.764ZM53.2658 137.072C52.5858 137.072 51.9858 136.932 51.4658 136.652C50.9538 136.372 50.5538 135.988 50.2658 135.5C49.9858 135.012 49.8458 134.452 49.8458 133.82C49.8458 133.188 49.9818 132.628 50.2538 132.14C50.5338 131.652 50.9138 131.272 51.3938 131C51.8818 130.72 52.4298 130.58 53.0378 130.58C53.6538 130.58 54.1978 130.716 54.6698 130.988C55.1418 131.26 55.5098 131.644 55.7738 132.14C56.0458 132.628 56.1818 133.2 56.1818 133.856C56.1818 133.904 56.1778 133.96 56.1698 134.024C56.1698 134.088 56.1658 134.148 56.1578 134.204H50.7458V133.376H55.5578L55.0898 133.664C55.0978 133.256 55.0138 132.892 54.8378 132.572C54.6618 132.252 54.4178 132.004 54.1058 131.828C53.8018 131.644 53.4458 131.552 53.0378 131.552C52.6378 131.552 52.2818 131.644 51.9698 131.828C51.6578 132.004 51.4138 132.256 51.2378 132.584C51.0618 132.904 50.9738 133.272 50.9738 133.688V133.88C50.9738 134.304 51.0698 134.684 51.2618 135.02C51.4618 135.348 51.7378 135.604 52.0898 135.788C52.4418 135.972 52.8458 136.064 53.3018 136.064C53.6778 136.064 54.0178 136 54.3218 135.872C54.6338 135.744 54.9058 135.552 55.1378 135.296L55.7738 136.04C55.4858 136.376 55.1258 136.632 54.6938 136.808C54.2698 136.984 53.7938 137.072 53.2658 137.072ZM61.1535 137.072C60.6255 137.072 60.1415 136.952 59.7015 136.712C59.2695 136.464 58.9215 136.1 58.6575 135.62C58.4015 135.14 58.2735 134.54 58.2735 133.82C58.2735 133.1 58.3975 132.5 58.6455 132.02C58.9015 131.54 59.2455 131.18 59.6775 130.94C60.1175 130.7 60.6095 130.58 61.1535 130.58C61.7775 130.58 62.3295 130.716 62.8095 130.988C63.2895 131.26 63.6695 131.64 63.9495 132.128C64.2295 132.608 64.3695 133.172 64.3695 133.82C64.3695 134.468 64.2295 135.036 63.9495 135.524C63.6695 136.012 63.2895 136.392 62.8095 136.664C62.3295 136.936 61.7775 137.072 61.1535 137.072ZM57.7815 139.328V130.64H58.8855V132.356L58.8135 133.832L58.9335 135.308V139.328H57.7815ZM61.0575 136.064C61.4655 136.064 61.8295 135.972 62.1495 135.788C62.4775 135.604 62.7335 135.344 62.9175 135.008C63.1095 134.664 63.2055 134.268 63.2055 133.82C63.2055 133.364 63.1095 132.972 62.9175 132.644C62.7335 132.308 62.4775 132.048 62.1495 131.864C61.8295 131.68 61.4655 131.588 61.0575 131.588C60.6575 131.588 60.2935 131.68 59.9655 131.864C59.6455 132.048 59.3895 132.308 59.1975 132.644C59.0135 132.972 58.9215 133.364 58.9215 133.82C58.9215 134.268 59.0135 134.664 59.1975 135.008C59.3895 135.344 59.6455 135.604 59.9655 135.788C60.2935 135.972 60.6575 136.064 61.0575 136.064ZM65.3645 138.776L65.9645 136.352L66.1205 137.048C65.8885 137.048 65.6925 136.976 65.5325 136.832C65.3805 136.688 65.3045 136.492 65.3045 136.244C65.3045 136.004 65.3805 135.808 65.5325 135.656C65.6925 135.504 65.8845 135.428 66.1085 135.428C66.3405 135.428 66.5285 135.508 66.6725 135.668C66.8165 135.82 66.8885 136.012 66.8885 136.244C66.8885 136.324 66.8805 136.404 66.8645 136.484C66.8565 136.556 66.8365 136.644 66.8045 136.748C66.7805 136.844 66.7405 136.964 66.6845 137.108L66.1205 138.776H65.3645ZM79.7179 130.58C80.2299 130.58 80.6819 130.68 81.0739 130.88C81.4659 131.08 81.7699 131.384 81.9859 131.792C82.2099 132.2 82.3219 132.716 82.3219 133.34V137H81.1699V133.472C81.1699 132.856 81.0259 132.392 80.7379 132.08C80.4499 131.768 80.0459 131.612 79.5259 131.612C79.1419 131.612 78.8059 131.692 78.5179 131.852C78.2299 132.012 78.0059 132.248 77.8459 132.56C77.6939 132.872 77.6179 133.26 77.6179 133.724V137H76.4659V133.472C76.4659 132.856 76.3219 132.392 76.0339 132.08C75.7539 131.768 75.3499 131.612 74.8219 131.612C74.4459 131.612 74.1139 131.692 73.8259 131.852C73.5379 132.012 73.3139 132.248 73.1539 132.56C72.9939 132.872 72.9139 133.26 72.9139 133.724V137H71.7619V130.64H72.8659V132.332L72.6859 131.9C72.8859 131.484 73.1939 131.16 73.6099 130.928C74.0259 130.696 74.5099 130.58 75.0619 130.58C75.6699 130.58 76.1939 130.732 76.6339 131.036C77.0739 131.332 77.3619 131.784 77.4979 132.392L77.0299 132.2C77.2219 131.712 77.5579 131.32 78.0379 131.024C78.5179 130.728 79.0779 130.58 79.7179 130.58ZM88.3896 137V135.656L88.3296 135.404V133.112C88.3296 132.624 88.1856 132.248 87.8976 131.984C87.6176 131.712 87.1936 131.576 86.6256 131.576C86.2496 131.576 85.8816 131.64 85.5216 131.768C85.1616 131.888 84.8576 132.052 84.6096 132.26L84.1296 131.396C84.4576 131.132 84.8496 130.932 85.3056 130.796C85.7696 130.652 86.2536 130.58 86.7576 130.58C87.6296 130.58 88.3016 130.792 88.7736 131.216C89.2456 131.64 89.4816 132.288 89.4816 133.16V137H88.3896ZM86.3016 137.072C85.8296 137.072 85.4136 136.992 85.0536 136.832C84.7016 136.672 84.4296 136.452 84.2376 136.172C84.0456 135.884 83.9496 135.56 83.9496 135.2C83.9496 134.856 84.0296 134.544 84.1896 134.264C84.3576 133.984 84.6256 133.76 84.9936 133.592C85.3696 133.424 85.8736 133.34 86.5056 133.34H88.5216V134.168H86.5536C85.9776 134.168 85.5896 134.264 85.3896 134.456C85.1896 134.648 85.0896 134.88 85.0896 135.152C85.0896 135.464 85.2136 135.716 85.4616 135.908C85.7096 136.092 86.0536 136.184 86.4936 136.184C86.9256 136.184 87.3016 136.088 87.6216 135.896C87.9496 135.704 88.1856 135.424 88.3296 135.056L88.5576 135.848C88.4056 136.224 88.1376 136.524 87.7536 136.748C87.3696 136.964 86.8856 137.072 86.3016 137.072ZM92.5495 135.464L92.5735 133.988L96.2335 130.64H97.6255L94.8175 133.4L94.1935 133.928L92.5495 135.464ZM91.6135 137V128.096H92.7655V137H91.6135ZM96.4735 137L93.9775 133.904L94.7215 132.98L97.8895 137H96.4735ZM99.008 137V130.64H100.16V137H99.008ZM99.584 129.416C99.36 129.416 99.172 129.344 99.02 129.2C98.876 129.056 98.804 128.88 98.804 128.672C98.804 128.456 98.876 128.276 99.02 128.132C99.172 127.988 99.36 127.916 99.584 127.916C99.808 127.916 99.992 127.988 100.136 128.132C100.288 128.268 100.364 128.44 100.364 128.648C100.364 128.864 100.292 129.048 100.148 129.2C100.004 129.344 99.816 129.416 99.584 129.416ZM105.756 130.58C106.276 130.58 106.732 130.68 107.124 130.88C107.524 131.08 107.836 131.384 108.06 131.792C108.284 132.2 108.396 132.716 108.396 133.34V137H107.244V133.472C107.244 132.856 107.092 132.392 106.788 132.08C106.492 131.768 106.072 131.612 105.528 131.612C105.12 131.612 104.764 131.692 104.46 131.852C104.156 132.012 103.92 132.248 103.752 132.56C103.592 132.872 103.512 133.26 103.512 133.724V137H102.36V130.64H103.464V132.356L103.284 131.9C103.492 131.484 103.812 131.16 104.244 130.928C104.676 130.696 105.18 130.58 105.756 130.58ZM113.312 139.4C112.728 139.4 112.16 139.316 111.608 139.148C111.064 138.988 110.62 138.756 110.276 138.452L110.828 137.564C111.124 137.82 111.488 138.02 111.92 138.164C112.352 138.316 112.804 138.392 113.276 138.392C114.028 138.392 114.58 138.216 114.932 137.864C115.284 137.512 115.46 136.976 115.46 136.256V134.912L115.58 133.652L115.52 132.38V130.64H116.612V136.136C116.612 137.256 116.332 138.08 115.772 138.608C115.212 139.136 114.392 139.4 113.312 139.4ZM113.168 136.736C112.552 136.736 112 136.608 111.512 136.352C111.032 136.088 110.648 135.724 110.36 135.26C110.08 134.796 109.94 134.26 109.94 133.652C109.94 133.036 110.08 132.5 110.36 132.044C110.648 131.58 111.032 131.22 111.512 130.964C112 130.708 112.552 130.58 113.168 130.58C113.712 130.58 114.208 130.692 114.656 130.916C115.104 131.132 115.46 131.468 115.724 131.924C115.996 132.38 116.132 132.956 116.132 133.652C116.132 134.34 115.996 134.912 115.724 135.368C115.46 135.824 115.104 136.168 114.656 136.4C114.208 136.624 113.712 136.736 113.168 136.736ZM113.3 135.728C113.724 135.728 114.1 135.64 114.428 135.464C114.756 135.288 115.012 135.044 115.196 134.732C115.388 134.42 115.484 134.06 115.484 133.652C115.484 133.244 115.388 132.884 115.196 132.572C115.012 132.26 114.756 132.02 114.428 131.852C114.1 131.676 113.724 131.588 113.3 131.588C112.876 131.588 112.496 131.676 112.16 131.852C111.832 132.02 111.572 132.26 111.38 132.572C111.196 132.884 111.104 133.244 111.104 133.652C111.104 134.06 111.196 134.42 111.38 134.732C111.572 135.044 111.832 135.288 112.16 135.464C112.496 135.64 112.876 135.728 113.3 135.728ZM124.219 137.072C123.579 137.072 123.083 136.9 122.731 136.556C122.379 136.212 122.203 135.72 122.203 135.08V129.248H123.355V135.032C123.355 135.376 123.439 135.64 123.607 135.824C123.783 136.008 124.031 136.1 124.351 136.1C124.711 136.1 125.011 136 125.251 135.8L125.611 136.628C125.435 136.78 125.223 136.892 124.975 136.964C124.735 137.036 124.483 137.072 124.219 137.072ZM121.123 131.588V130.64H125.179V131.588H121.123ZM130.4 130.58C130.92 130.58 131.376 130.68 131.768 130.88C132.168 131.08 132.48 131.384 132.704 131.792C132.928 132.2 133.04 132.716 133.04 133.34V137H131.888V133.472C131.888 132.856 131.736 132.392 131.432 132.08C131.136 131.768 130.716 131.612 130.172 131.612C129.764 131.612 129.408 131.692 129.104 131.852C128.8 132.012 128.564 132.248 128.396 132.56C128.236 132.872 128.156 133.26 128.156 133.724V137H127.004V128.096H128.156V132.356L127.928 131.9C128.136 131.484 128.456 131.16 128.888 130.928C129.32 130.696 129.824 130.58 130.4 130.58ZM138.004 137.072C137.324 137.072 136.724 136.932 136.204 136.652C135.692 136.372 135.292 135.988 135.004 135.5C134.724 135.012 134.584 134.452 134.584 133.82C134.584 133.188 134.72 132.628 134.992 132.14C135.272 131.652 135.652 131.272 136.132 131C136.62 130.72 137.168 130.58 137.776 130.58C138.392 130.58 138.936 130.716 139.408 130.988C139.88 131.26 140.248 131.644 140.512 132.14C140.784 132.628 140.92 133.2 140.92 133.856C140.92 133.904 140.916 133.96 140.908 134.024C140.908 134.088 140.904 134.148 140.896 134.204H135.484V133.376H140.296L139.828 133.664C139.836 133.256 139.752 132.892 139.576 132.572C139.4 132.252 139.156 132.004 138.844 131.828C138.54 131.644 138.184 131.552 137.776 131.552C137.376 131.552 137.02 131.644 136.708 131.828C136.396 132.004 136.152 132.256 135.976 132.584C135.8 132.904 135.712 133.272 135.712 133.688V133.88C135.712 134.304 135.808 134.684 136 135.02C136.2 135.348 136.476 135.604 136.828 135.788C137.18 135.972 137.584 136.064 138.04 136.064C138.416 136.064 138.756 136 139.06 135.872C139.372 135.744 139.644 135.552 139.876 135.296L140.512 136.04C140.224 136.376 139.864 136.632 139.432 136.808C139.008 136.984 138.532 137.072 138.004 137.072ZM41.5598 152.072C40.9438 152.072 40.3918 151.936 39.9038 151.664C39.4238 151.392 39.0438 151.012 38.7638 150.524C38.4838 150.036 38.3438 149.468 38.3438 148.82C38.3438 148.172 38.4838 147.608 38.7638 147.128C39.0438 146.64 39.4238 146.26 39.9038 145.988C40.3918 145.716 40.9438 145.58 41.5598 145.58C42.0958 145.58 42.5798 145.7 43.0118 145.94C43.4438 146.18 43.7878 146.54 44.0438 147.02C44.3078 147.5 44.4398 148.1 44.4398 148.82C44.4398 149.54 44.3118 150.14 44.0558 150.62C43.8078 151.1 43.4678 151.464 43.0358 151.712C42.6038 151.952 42.1118 152.072 41.5598 152.072ZM41.6558 151.064C42.0558 151.064 42.4158 150.972 42.7358 150.788C43.0638 150.604 43.3198 150.344 43.5038 150.008C43.6958 149.664 43.7918 149.268 43.7918 148.82C43.7918 148.364 43.6958 147.972 43.5038 147.644C43.3198 147.308 43.0638 147.048 42.7358 146.864C42.4158 146.68 42.0558 146.588 41.6558 146.588C41.2478 146.588 40.8838 146.68 40.5638 146.864C40.2438 147.048 39.9878 147.308 39.7958 147.644C39.6038 147.972 39.5078 148.364 39.5078 148.82C39.5078 149.268 39.6038 149.664 39.7958 150.008C39.9878 150.344 40.2438 150.604 40.5638 150.788C40.8838 150.972 41.2478 151.064 41.6558 151.064ZM43.8278 152V150.284L43.8998 148.808L43.7798 147.332V143.096H44.9318V152H43.8278ZM49.8355 152.072C49.1955 152.072 48.6275 151.932 48.1315 151.652C47.6355 151.372 47.2435 150.988 46.9555 150.5C46.6675 150.004 46.5235 149.444 46.5235 148.82C46.5235 148.188 46.6675 147.628 46.9555 147.14C47.2435 146.652 47.6355 146.272 48.1315 146C48.6275 145.72 49.1955 145.58 49.8355 145.58C50.4675 145.58 51.0315 145.72 51.5275 146C52.0315 146.272 52.4235 146.652 52.7035 147.14C52.9915 147.62 53.1355 148.18 53.1355 148.82C53.1355 149.452 52.9915 150.012 52.7035 150.5C52.4235 150.988 52.0315 151.372 51.5275 151.652C51.0315 151.932 50.4675 152.072 49.8355 152.072ZM49.8355 151.064C50.2435 151.064 50.6075 150.972 50.9275 150.788C51.2555 150.604 51.5115 150.344 51.6955 150.008C51.8795 149.664 51.9715 149.268 51.9715 148.82C51.9715 148.364 51.8795 147.972 51.6955 147.644C51.5115 147.308 51.2555 147.048 50.9275 146.864C50.6075 146.68 50.2435 146.588 49.8355 146.588C49.4275 146.588 49.0635 146.68 48.7435 146.864C48.4235 147.048 48.1675 147.308 47.9755 147.644C47.7835 147.972 47.6875 148.364 47.6875 148.82C47.6875 149.268 47.7835 149.664 47.9755 150.008C48.1675 150.344 48.4235 150.604 48.7435 150.788C49.0635 150.972 49.4275 151.064 49.8355 151.064ZM57.4047 152.072C56.8607 152.072 56.3807 151.972 55.9647 151.772C55.5567 151.572 55.2367 151.268 55.0047 150.86C54.7807 150.444 54.6687 149.924 54.6687 149.3V145.64H55.8207V149.168C55.8207 149.792 55.9687 150.26 56.2647 150.572C56.5687 150.884 56.9927 151.04 57.5367 151.04C57.9367 151.04 58.2847 150.96 58.5807 150.8C58.8767 150.632 59.1047 150.392 59.2647 150.08C59.4247 149.76 59.5047 149.376 59.5047 148.928V145.64H60.6567V152H59.5647V150.284L59.7447 150.74C59.5367 151.164 59.2247 151.492 58.8087 151.724C58.3927 151.956 57.9247 152.072 57.4047 152.072ZM66.2218 152.072C65.6778 152.072 65.1858 151.952 64.7458 151.712C64.3138 151.464 63.9698 151.1 63.7138 150.62C63.4658 150.14 63.3418 149.54 63.3418 148.82C63.3418 148.1 63.4698 147.5 63.7258 147.02C63.9898 146.54 64.3378 146.18 64.7698 145.94C65.2098 145.7 65.6938 145.58 66.2218 145.58C66.8458 145.58 67.3978 145.716 67.8778 145.988C68.3578 146.26 68.7378 146.64 69.0178 147.128C69.2978 147.608 69.4378 148.172 69.4378 148.82C69.4378 149.468 69.2978 150.036 69.0178 150.524C68.7378 151.012 68.3578 151.392 67.8778 151.664C67.3978 151.936 66.8458 152.072 66.2218 152.072ZM62.8498 152V143.096H64.0018V147.332L63.8818 148.808L63.9538 150.284V152H62.8498ZM66.1258 151.064C66.5338 151.064 66.8978 150.972 67.2178 150.788C67.5458 150.604 67.8018 150.344 67.9858 150.008C68.1778 149.664 68.2738 149.268 68.2738 148.82C68.2738 148.364 68.1778 147.972 67.9858 147.644C67.8018 147.308 67.5458 147.048 67.2178 146.864C66.8978 146.68 66.5338 146.588 66.1258 146.588C65.7258 146.588 65.3618 146.68 65.0338 146.864C64.7138 147.048 64.4578 147.308 64.2658 147.644C64.0818 147.972 63.9898 148.364 63.9898 148.82C63.9898 149.268 64.0818 149.664 64.2658 150.008C64.4578 150.344 64.7138 150.604 65.0338 150.788C65.3618 150.972 65.7258 151.064 66.1258 151.064ZM71.0295 152V143.096H72.1815V152H71.0295ZM77.2131 152.072C76.5331 152.072 75.9331 151.932 75.4131 151.652C74.9011 151.372 74.5011 150.988 74.2131 150.5C73.9331 150.012 73.7931 149.452 73.7931 148.82C73.7931 148.188 73.9291 147.628 74.2011 147.14C74.4811 146.652 74.8611 146.272 75.3411 146C75.8291 145.72 76.3771 145.58 76.9851 145.58C77.6011 145.58 78.1451 145.716 78.6171 145.988C79.0891 146.26 79.4571 146.644 79.7211 147.14C79.9931 147.628 80.1291 148.2 80.1291 148.856C80.1291 148.904 80.1251 148.96 80.1171 149.024C80.1171 149.088 80.1131 149.148 80.1051 149.204H74.6931V148.376H79.5051L79.0371 148.664C79.0451 148.256 78.9611 147.892 78.7851 147.572C78.6091 147.252 78.3651 147.004 78.0531 146.828C77.7491 146.644 77.3931 146.552 76.9851 146.552C76.5851 146.552 76.2291 146.644 75.9171 146.828C75.6051 147.004 75.3611 147.256 75.1851 147.584C75.0091 147.904 74.9211 148.272 74.9211 148.688V148.88C74.9211 149.304 75.0171 149.684 75.2091 150.02C75.4091 150.348 75.6851 150.604 76.0371 150.788C76.3891 150.972 76.7931 151.064 77.2491 151.064C77.6251 151.064 77.9651 151 78.2691 150.872C78.5811 150.744 78.8531 150.552 79.0851 150.296L79.7211 151.04C79.4331 151.376 79.0731 151.632 78.6411 151.808C78.2171 151.984 77.7411 152.072 77.2131 152.072ZM88.8994 152V150.656L88.8394 150.404V148.112C88.8394 147.624 88.6954 147.248 88.4074 146.984C88.1274 146.712 87.7034 146.576 87.1354 146.576C86.7594 146.576 86.3914 146.64 86.0314 146.768C85.6714 146.888 85.3674 147.052 85.1194 147.26L84.6394 146.396C84.9674 146.132 85.3594 145.932 85.8154 145.796C86.2794 145.652 86.7634 145.58 87.2674 145.58C88.1394 145.58 88.8114 145.792 89.2834 146.216C89.7554 146.64 89.9914 147.288 89.9914 148.16V152H88.8994ZM86.8114 152.072C86.3394 152.072 85.9234 151.992 85.5634 151.832C85.2114 151.672 84.9394 151.452 84.7474 151.172C84.5554 150.884 84.4594 150.56 84.4594 150.2C84.4594 149.856 84.5394 149.544 84.6994 149.264C84.8674 148.984 85.1354 148.76 85.5034 148.592C85.8794 148.424 86.3834 148.34 87.0154 148.34H89.0314V149.168H87.0634C86.4874 149.168 86.0994 149.264 85.8994 149.456C85.6994 149.648 85.5994 149.88 85.5994 150.152C85.5994 150.464 85.7234 150.716 85.9714 150.908C86.2194 151.092 86.5634 151.184 87.0034 151.184C87.4354 151.184 87.8114 151.088 88.1314 150.896C88.4594 150.704 88.6954 150.424 88.8394 150.056L89.0674 150.848C88.9154 151.224 88.6474 151.524 88.2634 151.748C87.8794 151.964 87.3954 152.072 86.8114 152.072ZM92.1233 152V143.096H93.2753V152H92.1233ZM98.1988 152.072C97.5588 152.072 96.9908 151.932 96.4948 151.652C95.9988 151.372 95.6068 150.988 95.3188 150.5C95.0308 150.004 94.8868 149.444 94.8868 148.82C94.8868 148.188 95.0308 147.628 95.3188 147.14C95.6068 146.652 95.9988 146.272 96.4948 146C96.9908 145.72 97.5588 145.58 98.1988 145.58C98.8308 145.58 99.3948 145.72 99.8908 146C100.395 146.272 100.787 146.652 101.067 147.14C101.355 147.62 101.499 148.18 101.499 148.82C101.499 149.452 101.355 150.012 101.067 150.5C100.787 150.988 100.395 151.372 99.8908 151.652C99.3948 151.932 98.8308 152.072 98.1988 152.072ZM98.1988 151.064C98.6068 151.064 98.9708 150.972 99.2908 150.788C99.6188 150.604 99.8748 150.344 100.059 150.008C100.243 149.664 100.335 149.268 100.335 148.82C100.335 148.364 100.243 147.972 100.059 147.644C99.8748 147.308 99.6188 147.048 99.2908 146.864C98.9708 146.68 98.6068 146.588 98.1988 146.588C97.7908 146.588 97.4268 146.68 97.1068 146.864C96.7868 147.048 96.5308 147.308 96.3388 147.644C96.1468 147.972 96.0508 148.364 96.0508 148.82C96.0508 149.268 96.1468 149.664 96.3388 150.008C96.5308 150.344 96.7868 150.604 97.1068 150.788C97.4268 150.972 97.7908 151.064 98.1988 151.064ZM106.488 145.58C107.008 145.58 107.464 145.68 107.856 145.88C108.256 146.08 108.568 146.384 108.792 146.792C109.016 147.2 109.128 147.716 109.128 148.34V152H107.976V148.472C107.976 147.856 107.824 147.392 107.52 147.08C107.224 146.768 106.804 146.612 106.26 146.612C105.852 146.612 105.496 146.692 105.192 146.852C104.888 147.012 104.652 147.248 104.484 147.56C104.324 147.872 104.244 148.26 104.244 148.724V152H103.092V145.64H104.196V147.356L104.016 146.9C104.224 146.484 104.544 146.16 104.976 145.928C105.408 145.696 105.912 145.58 106.488 145.58ZM114.044 154.4C113.46 154.4 112.892 154.316 112.34 154.148C111.796 153.988 111.352 153.756 111.008 153.452L111.56 152.564C111.856 152.82 112.22 153.02 112.652 153.164C113.084 153.316 113.536 153.392 114.008 153.392C114.76 153.392 115.312 153.216 115.664 152.864C116.016 152.512 116.192 151.976 116.192 151.256V149.912L116.312 148.652L116.252 147.38V145.64H117.344V151.136C117.344 152.256 117.064 153.08 116.504 153.608C115.944 154.136 115.124 154.4 114.044 154.4ZM113.9 151.736C113.284 151.736 112.732 151.608 112.244 151.352C111.764 151.088 111.38 150.724 111.092 150.26C110.812 149.796 110.672 149.26 110.672 148.652C110.672 148.036 110.812 147.5 111.092 147.044C111.38 146.58 111.764 146.22 112.244 145.964C112.732 145.708 113.284 145.58 113.9 145.58C114.444 145.58 114.94 145.692 115.388 145.916C115.836 146.132 116.192 146.468 116.456 146.924C116.728 147.38 116.864 147.956 116.864 148.652C116.864 149.34 116.728 149.912 116.456 150.368C116.192 150.824 115.836 151.168 115.388 151.4C114.94 151.624 114.444 151.736 113.9 151.736ZM114.032 150.728C114.456 150.728 114.832 150.64 115.16 150.464C115.488 150.288 115.744 150.044 115.928 149.732C116.12 149.42 116.216 149.06 116.216 148.652C116.216 148.244 116.12 147.884 115.928 147.572C115.744 147.26 115.488 147.02 115.16 146.852C114.832 146.676 114.456 146.588 114.032 146.588C113.608 146.588 113.228 146.676 112.892 146.852C112.564 147.02 112.304 147.26 112.112 147.572C111.928 147.884 111.836 148.244 111.836 148.652C111.836 149.06 111.928 149.42 112.112 149.732C112.304 150.044 112.564 150.288 112.892 150.464C113.228 150.64 113.608 150.728 114.032 150.728ZM124.952 152.072C124.312 152.072 123.816 151.9 123.464 151.556C123.112 151.212 122.936 150.72 122.936 150.08V144.248H124.088V150.032C124.088 150.376 124.172 150.64 124.34 150.824C124.516 151.008 124.764 151.1 125.084 151.1C125.444 151.1 125.744 151 125.984 150.8L126.344 151.628C126.168 151.78 125.956 151.892 125.708 151.964C125.468 152.036 125.216 152.072 124.952 152.072ZM121.856 146.588V145.64H125.912V146.588H121.856ZM131.133 145.58C131.653 145.58 132.109 145.68 132.501 145.88C132.901 146.08 133.213 146.384 133.437 146.792C133.661 147.2 133.773 147.716 133.773 148.34V152H132.621V148.472C132.621 147.856 132.469 147.392 132.165 147.08C131.869 146.768 131.449 146.612 130.905 146.612C130.497 146.612 130.141 146.692 129.837 146.852C129.533 147.012 129.297 147.248 129.129 147.56C128.969 147.872 128.889 148.26 128.889 148.724V152H127.737V143.096H128.889V147.356L128.661 146.9C128.869 146.484 129.189 146.16 129.621 145.928C130.053 145.696 130.557 145.58 131.133 145.58ZM138.737 152.072C138.057 152.072 137.457 151.932 136.937 151.652C136.425 151.372 136.025 150.988 135.737 150.5C135.457 150.012 135.317 149.452 135.317 148.82C135.317 148.188 135.453 147.628 135.725 147.14C136.005 146.652 136.385 146.272 136.865 146C137.353 145.72 137.901 145.58 138.509 145.58C139.125 145.58 139.669 145.716 140.141 145.988C140.613 146.26 140.981 146.644 141.245 147.14C141.517 147.628 141.653 148.2 141.653 148.856C141.653 148.904 141.649 148.96 141.641 149.024C141.641 149.088 141.637 149.148 141.629 149.204H136.217V148.376H141.029L140.561 148.664C140.569 148.256 140.485 147.892 140.309 147.572C140.133 147.252 139.889 147.004 139.577 146.828C139.273 146.644 138.917 146.552 138.509 146.552C138.109 146.552 137.753 146.644 137.441 146.828C137.129 147.004 136.885 147.256 136.709 147.584C136.533 147.904 136.445 148.272 136.445 148.688V148.88C136.445 149.304 136.541 149.684 136.733 150.02C136.933 150.348 137.209 150.604 137.561 150.788C137.913 150.972 138.317 151.064 138.773 151.064C139.149 151.064 139.489 151 139.793 150.872C140.105 150.744 140.377 150.552 140.609 150.296L141.245 151.04C140.957 151.376 140.597 151.632 140.165 151.808C139.741 151.984 139.265 152.072 138.737 152.072ZM59.1907 167.072C58.5747 167.072 58.0227 166.936 57.5347 166.664C57.0547 166.392 56.6747 166.012 56.3947 165.524C56.1147 165.036 55.9747 164.468 55.9747 163.82C55.9747 163.172 56.1147 162.608 56.3947 162.128C56.6747 161.64 57.0547 161.26 57.5347 160.988C58.0227 160.716 58.5747 160.58 59.1907 160.58C59.7267 160.58 60.2107 160.7 60.6427 160.94C61.0747 161.18 61.4187 161.54 61.6747 162.02C61.9387 162.5 62.0707 163.1 62.0707 163.82C62.0707 164.54 61.9427 165.14 61.6867 165.62C61.4387 166.1 61.0987 166.464 60.6667 166.712C60.2347 166.952 59.7427 167.072 59.1907 167.072ZM59.2867 166.064C59.6867 166.064 60.0467 165.972 60.3667 165.788C60.6947 165.604 60.9507 165.344 61.1347 165.008C61.3267 164.664 61.4227 164.268 61.4227 163.82C61.4227 163.364 61.3267 162.972 61.1347 162.644C60.9507 162.308 60.6947 162.048 60.3667 161.864C60.0467 161.68 59.6867 161.588 59.2867 161.588C58.8787 161.588 58.5147 161.68 58.1947 161.864C57.8747 162.048 57.6187 162.308 57.4267 162.644C57.2347 162.972 57.1387 163.364 57.1387 163.82C57.1387 164.268 57.2347 164.664 57.4267 165.008C57.6187 165.344 57.8747 165.604 58.1947 165.788C58.5147 165.972 58.8787 166.064 59.2867 166.064ZM61.4587 167V165.284L61.5307 163.808L61.4107 162.332V158.096H62.5627V167H61.4587ZM67.4664 167.072C66.8264 167.072 66.2584 166.932 65.7624 166.652C65.2664 166.372 64.8744 165.988 64.5864 165.5C64.2984 165.004 64.1544 164.444 64.1544 163.82C64.1544 163.188 64.2984 162.628 64.5864 162.14C64.8744 161.652 65.2664 161.272 65.7624 161C66.2584 160.72 66.8264 160.58 67.4664 160.58C68.0984 160.58 68.6624 160.72 69.1584 161C69.6624 161.272 70.0544 161.652 70.3344 162.14C70.6224 162.62 70.7664 163.18 70.7664 163.82C70.7664 164.452 70.6224 165.012 70.3344 165.5C70.0544 165.988 69.6624 166.372 69.1584 166.652C68.6624 166.932 68.0984 167.072 67.4664 167.072ZM67.4664 166.064C67.8744 166.064 68.2384 165.972 68.5584 165.788C68.8864 165.604 69.1424 165.344 69.3264 165.008C69.5104 164.664 69.6024 164.268 69.6024 163.82C69.6024 163.364 69.5104 162.972 69.3264 162.644C69.1424 162.308 68.8864 162.048 68.5584 161.864C68.2384 161.68 67.8744 161.588 67.4664 161.588C67.0584 161.588 66.6944 161.68 66.3744 161.864C66.0544 162.048 65.7984 162.308 65.6064 162.644C65.4144 162.972 65.3184 163.364 65.3184 163.82C65.3184 164.268 65.4144 164.664 65.6064 165.008C65.7984 165.344 66.0544 165.604 66.3744 165.788C66.6944 165.972 67.0584 166.064 67.4664 166.064ZM74.5436 167.072C73.9036 167.072 73.4076 166.9 73.0556 166.556C72.7036 166.212 72.5276 165.72 72.5276 165.08V159.248H73.6796V165.032C73.6796 165.376 73.7636 165.64 73.9316 165.824C74.1076 166.008 74.3556 166.1 74.6756 166.1C75.0356 166.1 75.3356 166 75.5756 165.8L75.9356 166.628C75.7596 166.78 75.5476 166.892 75.2996 166.964C75.0596 167.036 74.8076 167.072 74.5436 167.072ZM71.4476 161.588V160.64H75.5036V161.588H71.4476ZM79.36 167.072C78.72 167.072 78.224 166.9 77.872 166.556C77.52 166.212 77.344 165.72 77.344 165.08V159.248H78.496V165.032C78.496 165.376 78.58 165.64 78.748 165.824C78.924 166.008 79.172 166.1 79.492 166.1C79.852 166.1 80.152 166 80.392 165.8L80.752 166.628C80.576 166.78 80.364 166.892 80.116 166.964C79.876 167.036 79.624 167.072 79.36 167.072ZM76.264 161.588V160.64H80.32V161.588H76.264ZM84.7658 167.072C84.0858 167.072 83.4858 166.932 82.9658 166.652C82.4538 166.372 82.0538 165.988 81.7658 165.5C81.4858 165.012 81.3458 164.452 81.3458 163.82C81.3458 163.188 81.4818 162.628 81.7538 162.14C82.0338 161.652 82.4138 161.272 82.8938 161C83.3818 160.72 83.9298 160.58 84.5378 160.58C85.1538 160.58 85.6978 160.716 86.1698 160.988C86.6418 161.26 87.0098 161.644 87.2738 162.14C87.5458 162.628 87.6818 163.2 87.6818 163.856C87.6818 163.904 87.6778 163.96 87.6698 164.024C87.6698 164.088 87.6658 164.148 87.6578 164.204H82.2458V163.376H87.0578L86.5898 163.664C86.5978 163.256 86.5138 162.892 86.3378 162.572C86.1618 162.252 85.9178 162.004 85.6058 161.828C85.3018 161.644 84.9458 161.552 84.5378 161.552C84.1378 161.552 83.7818 161.644 83.4698 161.828C83.1578 162.004 82.9138 162.256 82.7378 162.584C82.5618 162.904 82.4738 163.272 82.4738 163.688V163.88C82.4738 164.304 82.5698 164.684 82.7618 165.02C82.9618 165.348 83.2378 165.604 83.5898 165.788C83.9418 165.972 84.3458 166.064 84.8018 166.064C85.1778 166.064 85.5178 166 85.8218 165.872C86.1338 165.744 86.4058 165.552 86.6378 165.296L87.2738 166.04C86.9858 166.376 86.6258 166.632 86.1938 166.808C85.7698 166.984 85.2938 167.072 84.7658 167.072ZM91.9095 167.072C91.2935 167.072 90.7415 166.936 90.2535 166.664C89.7735 166.392 89.3935 166.012 89.1135 165.524C88.8335 165.036 88.6935 164.468 88.6935 163.82C88.6935 163.172 88.8335 162.608 89.1135 162.128C89.3935 161.64 89.7735 161.26 90.2535 160.988C90.7415 160.716 91.2935 160.58 91.9095 160.58C92.4455 160.58 92.9295 160.7 93.3615 160.94C93.7935 161.18 94.1375 161.54 94.3935 162.02C94.6575 162.5 94.7895 163.1 94.7895 163.82C94.7895 164.54 94.6615 165.14 94.4055 165.62C94.1575 166.1 93.8175 166.464 93.3855 166.712C92.9535 166.952 92.4615 167.072 91.9095 167.072ZM92.0055 166.064C92.4055 166.064 92.7655 165.972 93.0855 165.788C93.4135 165.604 93.6695 165.344 93.8535 165.008C94.0455 164.664 94.1415 164.268 94.1415 163.82C94.1415 163.364 94.0455 162.972 93.8535 162.644C93.6695 162.308 93.4135 162.048 93.0855 161.864C92.7655 161.68 92.4055 161.588 92.0055 161.588C91.5975 161.588 91.2335 161.68 90.9135 161.864C90.5935 162.048 90.3375 162.308 90.1455 162.644C89.9535 162.972 89.8575 163.364 89.8575 163.82C89.8575 164.268 89.9535 164.664 90.1455 165.008C90.3375 165.344 90.5935 165.604 90.9135 165.788C91.2335 165.972 91.5975 166.064 92.0055 166.064ZM94.1775 167V165.284L94.2495 163.808L94.1295 162.332V158.096H95.2815V167H94.1775ZM100.684 167V158.096H101.836V167H100.684ZM104.035 167V160.64H105.187V167H104.035ZM104.611 159.416C104.387 159.416 104.199 159.344 104.047 159.2C103.903 159.056 103.831 158.88 103.831 158.672C103.831 158.456 103.903 158.276 104.047 158.132C104.199 157.988 104.387 157.916 104.611 157.916C104.835 157.916 105.019 157.988 105.163 158.132C105.315 158.268 105.391 158.44 105.391 158.648C105.391 158.864 105.319 159.048 105.175 159.2C105.031 159.344 104.843 159.416 104.611 159.416ZM110.783 160.58C111.303 160.58 111.759 160.68 112.151 160.88C112.551 161.08 112.863 161.384 113.087 161.792C113.311 162.2 113.423 162.716 113.423 163.34V167H112.271V163.472C112.271 162.856 112.119 162.392 111.815 162.08C111.519 161.768 111.099 161.612 110.555 161.612C110.147 161.612 109.791 161.692 109.487 161.852C109.183 162.012 108.947 162.248 108.779 162.56C108.619 162.872 108.539 163.26 108.539 163.724V167H107.387V160.64H108.491V162.356L108.311 161.9C108.519 161.484 108.839 161.16 109.271 160.928C109.703 160.696 110.207 160.58 110.783 160.58ZM118.387 167.072C117.707 167.072 117.107 166.932 116.587 166.652C116.075 166.372 115.675 165.988 115.387 165.5C115.107 165.012 114.967 164.452 114.967 163.82C114.967 163.188 115.103 162.628 115.375 162.14C115.655 161.652 116.035 161.272 116.515 161C117.003 160.72 117.551 160.58 118.159 160.58C118.775 160.58 119.319 160.716 119.791 160.988C120.263 161.26 120.631 161.644 120.895 162.14C121.167 162.628 121.303 163.2 121.303 163.856C121.303 163.904 121.299 163.96 121.291 164.024C121.291 164.088 121.287 164.148 121.279 164.204H115.867V163.376H120.679L120.211 163.664C120.219 163.256 120.135 162.892 119.959 162.572C119.783 162.252 119.539 162.004 119.227 161.828C118.923 161.644 118.567 161.552 118.159 161.552C117.759 161.552 117.403 161.644 117.091 161.828C116.779 162.004 116.535 162.256 116.359 162.584C116.183 162.904 116.095 163.272 116.095 163.688V163.88C116.095 164.304 116.191 164.684 116.383 165.02C116.583 165.348 116.859 165.604 117.211 165.788C117.563 165.972 117.967 166.064 118.423 166.064C118.799 166.064 119.139 166 119.443 165.872C119.755 165.744 120.027 165.552 120.259 165.296L120.895 166.04C120.607 166.376 120.247 166.632 119.815 166.808C119.391 166.984 118.915 167.072 118.387 167.072ZM123.179 167.072C122.955 167.072 122.763 166.996 122.603 166.844C122.443 166.684 122.363 166.484 122.363 166.244C122.363 166.004 122.443 165.808 122.603 165.656C122.763 165.504 122.955 165.428 123.179 165.428C123.395 165.428 123.579 165.504 123.731 165.656C123.891 165.808 123.971 166.004 123.971 166.244C123.971 166.484 123.891 166.684 123.731 166.844C123.579 166.996 123.395 167.072 123.179 167.072Z" fill="#008E86"/>
<path d="M87.9391 25.3554C87.3902 25.2944 86.8958 25.6899 86.8348 26.2388C86.7738 26.7877 87.1693 27.2821 87.7182 27.3431L87.9391 25.3554ZM78.1253 12.045C77.5979 12.2092 77.3035 12.7697 77.4676 13.2971L80.1424 21.8904C80.3066 22.4177 80.8671 22.7122 81.3944 22.548C81.9218 22.3839 82.2162 21.8233 82.0521 21.296L79.6745 13.6575L87.313 11.2799C87.8403 11.1158 88.1348 10.5552 87.9706 10.0279C87.8065 9.50055 87.2459 9.20613 86.7186 9.37026L78.1253 12.045ZM87.7182 27.3431C89.801 27.5746 91.667 27.5244 92.9385 27.03C93.588 26.7775 94.2092 26.3586 94.5338 25.6734C94.8682 24.9678 94.7842 24.2026 94.4817 23.4923C93.9073 22.1435 92.3772 20.5759 89.9237 18.7614C87.4247 16.9133 83.8211 14.7059 78.8875 12.1146L77.9574 13.8852C82.8432 16.4514 86.3489 18.6052 88.7345 20.3695C91.1656 22.1673 92.2954 23.463 92.6416 24.2759C92.7994 24.6464 92.7408 24.7868 92.7264 24.8171C92.7023 24.8679 92.6007 25.0155 92.2137 25.166C91.4125 25.4775 89.9517 25.579 87.9391 25.3554L87.7182 27.3431Z" fill="black"/>
<path d="M59.4028 77.5296L64.7529 42.219L120.75 100L67.2496 98.2166L59.4028 77.5296Z" fill="#008E86" stroke="#00635D" stroke-width="2" stroke-linejoin="round"/>
<path d="M64.0395 41.5052L90.0766 15.4682L64.3962 79.3125L64.0395 41.5052Z" fill="#00D8CC" stroke="#00635D" stroke-width="2" stroke-linejoin="round"/>
<path d="M64.3965 79.3123L75.4533 52.5618L120.751 99.6426L72.5999 99.6426L64.3965 79.3123Z" fill="#00D8CC" stroke="#00635D" stroke-width="2" stroke-linejoin="round"/>
<path d="M81.5166 25.8125L81.5166 33.6593" stroke="#00635D" stroke-width="2" stroke-dasharray="2 2"/>
<path d="M86.848 32.1512C86.6046 31.6554 86.0054 31.4508 85.5097 31.6943C85.0139 31.9377 84.8094 32.5369 85.0528 33.0326L86.848 32.1512ZM70.3766 20.8652C69.8458 20.7128 69.2919 21.0196 69.1395 21.5504L66.6557 30.2009C66.5033 30.7317 66.8101 31.2856 67.3409 31.438C67.8717 31.5905 68.4256 31.2837 68.578 30.7528L70.7859 23.0635L78.4752 25.2713C79.006 25.4238 79.5599 25.117 79.7123 24.5862C79.8647 24.0553 79.558 23.5014 79.0271 23.349L70.3766 20.8652ZM85.0528 33.0326C85.8191 34.5933 86.2975 35.8592 86.5439 36.8419C86.7976 37.8533 86.7753 38.4474 86.6836 38.7375C86.6439 38.863 86.6033 38.8944 86.5999 38.8972C86.5974 38.8992 86.5669 38.9259 86.4581 38.9342C86.1974 38.9539 85.6874 38.8492 84.8974 38.4171C83.3513 37.5716 81.2109 35.739 78.764 32.8598C76.3312 29.997 73.6391 26.1512 70.9755 21.3419L69.2259 22.3109C71.9451 27.2205 74.7105 31.1785 77.24 34.1549C79.7555 37.1149 82.082 39.157 83.9377 40.1718C84.8485 40.6699 85.773 40.9918 86.6093 40.9284C87.049 40.8951 87.4825 40.7529 87.8508 40.4577C88.2181 40.1632 88.455 39.7692 88.5906 39.3403C88.8494 38.5215 88.7687 37.4909 88.4839 36.3553C88.1919 35.1911 87.6517 33.7879 86.848 32.1512L85.0528 33.0326Z" fill="black"/>
</svg>
