<svg width="180" height="180" viewBox="0 0 180 180" fill="none" xmlns="http://www.w3.org/2000/svg">
<g clip-path="url(#clip0_14_2836)">
<rect width="180" height="180" rx="20" fill="#F2F2F2"/>
<g clip-path="url(#clip1_14_2836)">
<path d="M0 30L-1.31134e-06 0L30 -1.31134e-06L30 10C30 21.0457 21.0457 30 10 30L0 30Z" fill="#333333"/>
<path d="M19.4311 9.8V11.48L15.2711 21H12.4551L16.4711 11.912H12.7591V13.736H10.4551V9.8H19.4311Z" fill="#F2F2F2"/>
</g>
<path d="M37.9181 124.572H42.2501V125.604H37.9181V124.572ZM38.0381 129H36.8381V120.6H42.7661V121.644H38.0381V129ZM46.8121 129.072C46.1721 129.072 45.6041 128.932 45.1081 128.652C44.6121 128.372 44.2201 127.988 43.9321 127.5C43.6441 127.004 43.5001 126.444 43.5001 125.82C43.5001 125.188 43.6441 124.628 43.9321 124.14C44.2201 123.652 44.6121 123.272 45.1081 123C45.6041 122.72 46.1721 122.58 46.8121 122.58C47.4441 122.58 48.0081 122.72 48.5041 123C49.0081 123.272 49.4001 123.652 49.6801 124.14C49.9681 124.62 50.1121 125.18 50.1121 125.82C50.1121 126.452 49.9681 127.012 49.6801 127.5C49.4001 127.988 49.0081 128.372 48.5041 128.652C48.0081 128.932 47.4441 129.072 46.8121 129.072ZM46.8121 128.064C47.2201 128.064 47.5841 127.972 47.9041 127.788C48.2321 127.604 48.4881 127.344 48.6721 127.008C48.8561 126.664 48.9481 126.268 48.9481 125.82C48.9481 125.364 48.8561 124.972 48.6721 124.644C48.4881 124.308 48.2321 124.048 47.9041 123.864C47.5841 123.68 47.2201 123.588 46.8121 123.588C46.4041 123.588 46.0401 123.68 45.7201 123.864C45.4001 124.048 45.1441 124.308 44.9521 124.644C44.7601 124.972 44.6641 125.364 44.6641 125.82C44.6641 126.268 44.7601 126.664 44.9521 127.008C45.1441 127.344 45.4001 127.604 45.7201 127.788C46.0401 127.972 46.4041 128.064 46.8121 128.064ZM51.7053 129V120.096H52.8573V129H51.7053ZM57.6848 129.072C57.0688 129.072 56.5168 128.936 56.0288 128.664C55.5488 128.392 55.1688 128.012 54.8888 127.524C54.6088 127.036 54.4688 126.468 54.4688 125.82C54.4688 125.172 54.6088 124.608 54.8888 124.128C55.1688 123.64 55.5488 123.26 56.0288 122.988C56.5168 122.716 57.0688 122.58 57.6848 122.58C58.2208 122.58 58.7048 122.7 59.1368 122.94C59.5688 123.18 59.9128 123.54 60.1688 124.02C60.4328 124.5 60.5648 125.1 60.5648 125.82C60.5648 126.54 60.4368 127.14 60.1808 127.62C59.9328 128.1 59.5928 128.464 59.1608 128.712C58.7288 128.952 58.2368 129.072 57.6848 129.072ZM57.7808 128.064C58.1808 128.064 58.5408 127.972 58.8608 127.788C59.1888 127.604 59.4448 127.344 59.6288 127.008C59.8208 126.664 59.9168 126.268 59.9168 125.82C59.9168 125.364 59.8208 124.972 59.6288 124.644C59.4448 124.308 59.1888 124.048 58.8608 123.864C58.5408 123.68 58.1808 123.588 57.7808 123.588C57.3728 123.588 57.0088 123.68 56.6888 123.864C56.3688 124.048 56.1128 124.308 55.9208 124.644C55.7288 124.972 55.6328 125.364 55.6328 125.82C55.6328 126.268 55.7288 126.664 55.9208 127.008C56.1128 127.344 56.3688 127.604 56.6888 127.788C57.0088 127.972 57.3728 128.064 57.7808 128.064ZM59.9528 129V127.284L60.0248 125.808L59.9048 124.332V120.096H61.0568V129H59.9528ZM68.6432 129.072C68.0032 129.072 67.5072 128.9 67.1552 128.556C66.8032 128.212 66.6272 127.72 66.6272 127.08V121.248H67.7792V127.032C67.7792 127.376 67.8632 127.64 68.0312 127.824C68.2072 128.008 68.4552 128.1 68.7752 128.1C69.1352 128.1 69.4352 128 69.6752 127.8L70.0352 128.628C69.8592 128.78 69.6472 128.892 69.3992 128.964C69.1592 129.036 68.9072 129.072 68.6432 129.072ZM65.5472 123.588V122.64H69.6032V123.588H65.5472ZM74.8239 122.58C75.3439 122.58 75.7999 122.68 76.1919 122.88C76.5919 123.08 76.9039 123.384 77.1279 123.792C77.3519 124.2 77.4639 124.716 77.4639 125.34V129H76.3119V125.472C76.3119 124.856 76.1599 124.392 75.8559 124.08C75.5599 123.768 75.1399 123.612 74.5959 123.612C74.1879 123.612 73.8319 123.692 73.5279 123.852C73.2239 124.012 72.9879 124.248 72.8199 124.56C72.6599 124.872 72.5799 125.26 72.5799 125.724V129H71.4279V120.096H72.5799V124.356L72.3519 123.9C72.5599 123.484 72.8799 123.16 73.3119 122.928C73.7439 122.696 74.2479 122.58 74.8239 122.58ZM82.4279 129.072C81.7479 129.072 81.1479 128.932 80.6279 128.652C80.1159 128.372 79.7159 127.988 79.4279 127.5C79.1479 127.012 79.0079 126.452 79.0079 125.82C79.0079 125.188 79.1439 124.628 79.4159 124.14C79.6959 123.652 80.0759 123.272 80.5559 123C81.0439 122.72 81.5919 122.58 82.1999 122.58C82.8159 122.58 83.3599 122.716 83.8319 122.988C84.3039 123.26 84.6719 123.644 84.9359 124.14C85.2079 124.628 85.3439 125.2 85.3439 125.856C85.3439 125.904 85.3399 125.96 85.3319 126.024C85.3319 126.088 85.3279 126.148 85.3199 126.204H79.9079V125.376H84.7199L84.2519 125.664C84.2599 125.256 84.1759 124.892 83.9999 124.572C83.8239 124.252 83.5799 124.004 83.2679 123.828C82.9639 123.644 82.6079 123.552 82.1999 123.552C81.7999 123.552 81.4439 123.644 81.1319 123.828C80.8199 124.004 80.5759 124.256 80.3999 124.584C80.2239 124.904 80.1359 125.272 80.1359 125.688V125.88C80.1359 126.304 80.2319 126.684 80.4239 127.02C80.6239 127.348 80.8999 127.604 81.2519 127.788C81.6039 127.972 82.0079 128.064 82.4639 128.064C82.8399 128.064 83.1799 128 83.4839 127.872C83.7959 127.744 84.0679 127.552 84.2999 127.296L84.9359 128.04C84.6479 128.376 84.2879 128.632 83.8559 128.808C83.4319 128.984 82.9559 129.072 82.4279 129.072ZM92.3502 129.072C91.7102 129.072 91.2142 128.9 90.8622 128.556C90.5102 128.212 90.3342 127.72 90.3342 127.08V121.248H91.4862V127.032C91.4862 127.376 91.5702 127.64 91.7382 127.824C91.9142 128.008 92.1622 128.1 92.4822 128.1C92.8422 128.1 93.1422 128 93.3822 127.8L93.7422 128.628C93.5662 128.78 93.3542 128.892 93.1062 128.964C92.8662 129.036 92.6142 129.072 92.3502 129.072ZM89.2542 123.588V122.64H93.3102V123.588H89.2542ZM97.648 129.072C97.008 129.072 96.44 128.932 95.944 128.652C95.448 128.372 95.056 127.988 94.768 127.5C94.48 127.004 94.336 126.444 94.336 125.82C94.336 125.188 94.48 124.628 94.768 124.14C95.056 123.652 95.448 123.272 95.944 123C96.44 122.72 97.008 122.58 97.648 122.58C98.28 122.58 98.844 122.72 99.34 123C99.844 123.272 100.236 123.652 100.516 124.14C100.804 124.62 100.948 125.18 100.948 125.82C100.948 126.452 100.804 127.012 100.516 127.5C100.236 127.988 99.844 128.372 99.34 128.652C98.844 128.932 98.28 129.072 97.648 129.072ZM97.648 128.064C98.056 128.064 98.42 127.972 98.74 127.788C99.068 127.604 99.324 127.344 99.508 127.008C99.692 126.664 99.784 126.268 99.784 125.82C99.784 125.364 99.692 124.972 99.508 124.644C99.324 124.308 99.068 124.048 98.74 123.864C98.42 123.68 98.056 123.588 97.648 123.588C97.24 123.588 96.876 123.68 96.556 123.864C96.236 124.048 95.98 124.308 95.788 124.644C95.596 124.972 95.5 125.364 95.5 125.82C95.5 126.268 95.596 126.664 95.788 127.008C95.98 127.344 96.236 127.604 96.556 127.788C96.876 127.972 97.24 128.064 97.648 128.064ZM105.913 129.072C105.385 129.072 104.901 128.952 104.461 128.712C104.029 128.464 103.681 128.1 103.417 127.62C103.161 127.14 103.033 126.54 103.033 125.82C103.033 125.1 103.157 124.5 103.405 124.02C103.661 123.54 104.005 123.18 104.437 122.94C104.877 122.7 105.369 122.58 105.913 122.58C106.537 122.58 107.089 122.716 107.569 122.988C108.049 123.26 108.429 123.64 108.709 124.128C108.989 124.608 109.129 125.172 109.129 125.82C109.129 126.468 108.989 127.036 108.709 127.524C108.429 128.012 108.049 128.392 107.569 128.664C107.089 128.936 106.537 129.072 105.913 129.072ZM102.541 131.328V122.64H103.645V124.356L103.573 125.832L103.693 127.308V131.328H102.541ZM105.817 128.064C106.225 128.064 106.589 127.972 106.909 127.788C107.237 127.604 107.493 127.344 107.677 127.008C107.869 126.664 107.965 126.268 107.965 125.82C107.965 125.364 107.869 124.972 107.677 124.644C107.493 124.308 107.237 124.048 106.909 123.864C106.589 123.68 106.225 123.588 105.817 123.588C105.417 123.588 105.053 123.68 104.725 123.864C104.405 124.048 104.149 124.308 103.957 124.644C103.773 124.972 103.681 125.364 103.681 125.82C103.681 126.268 103.773 126.664 103.957 127.008C104.149 127.344 104.405 127.604 104.725 127.788C105.053 127.972 105.417 128.064 105.817 128.064ZM116.128 129.072C115.488 129.072 114.992 128.9 114.64 128.556C114.288 128.212 114.112 127.72 114.112 127.08V121.248H115.264V127.032C115.264 127.376 115.348 127.64 115.516 127.824C115.692 128.008 115.94 128.1 116.26 128.1C116.62 128.1 116.92 128 117.16 127.8L117.52 128.628C117.344 128.78 117.132 128.892 116.884 128.964C116.644 129.036 116.392 129.072 116.128 129.072ZM113.032 123.588V122.64H117.088V123.588H113.032ZM118.912 129V122.64H120.064V129H118.912ZM119.488 121.416C119.264 121.416 119.076 121.344 118.924 121.2C118.78 121.056 118.708 120.88 118.708 120.672C118.708 120.456 118.78 120.276 118.924 120.132C119.076 119.988 119.264 119.916 119.488 119.916C119.712 119.916 119.896 119.988 120.04 120.132C120.192 120.268 120.268 120.44 120.268 120.648C120.268 120.864 120.196 121.048 120.052 121.2C119.908 121.344 119.72 121.416 119.488 121.416ZM125.636 129.072C125.108 129.072 124.624 128.952 124.184 128.712C123.752 128.464 123.404 128.1 123.14 127.62C122.884 127.14 122.756 126.54 122.756 125.82C122.756 125.1 122.88 124.5 123.128 124.02C123.384 123.54 123.728 123.18 124.16 122.94C124.6 122.7 125.092 122.58 125.636 122.58C126.26 122.58 126.812 122.716 127.292 122.988C127.772 123.26 128.152 123.64 128.432 124.128C128.712 124.608 128.852 125.172 128.852 125.82C128.852 126.468 128.712 127.036 128.432 127.524C128.152 128.012 127.772 128.392 127.292 128.664C126.812 128.936 126.26 129.072 125.636 129.072ZM122.264 131.328V122.64H123.368V124.356L123.296 125.832L123.416 127.308V131.328H122.264ZM125.54 128.064C125.948 128.064 126.312 127.972 126.632 127.788C126.96 127.604 127.216 127.344 127.4 127.008C127.592 126.664 127.688 126.268 127.688 125.82C127.688 125.364 127.592 124.972 127.4 124.644C127.216 124.308 126.96 124.048 126.632 123.864C126.312 123.68 125.948 123.588 125.54 123.588C125.14 123.588 124.776 123.68 124.448 123.864C124.128 124.048 123.872 124.308 123.68 124.644C123.496 124.972 123.404 125.364 123.404 125.82C123.404 126.268 123.496 126.664 123.68 127.008C123.872 127.344 124.128 127.604 124.448 127.788C124.776 127.972 125.14 128.064 125.54 128.064ZM136.39 129.072C135.75 129.072 135.182 128.932 134.686 128.652C134.19 128.372 133.798 127.988 133.51 127.5C133.222 127.004 133.078 126.444 133.078 125.82C133.078 125.188 133.222 124.628 133.51 124.14C133.798 123.652 134.19 123.272 134.686 123C135.182 122.72 135.75 122.58 136.39 122.58C137.022 122.58 137.586 122.72 138.082 123C138.586 123.272 138.978 123.652 139.258 124.14C139.546 124.62 139.69 125.18 139.69 125.82C139.69 126.452 139.546 127.012 139.258 127.5C138.978 127.988 138.586 128.372 138.082 128.652C137.586 128.932 137.022 129.072 136.39 129.072ZM136.39 128.064C136.798 128.064 137.162 127.972 137.482 127.788C137.81 127.604 138.066 127.344 138.25 127.008C138.434 126.664 138.526 126.268 138.526 125.82C138.526 125.364 138.434 124.972 138.25 124.644C138.066 124.308 137.81 124.048 137.482 123.864C137.162 123.68 136.798 123.588 136.39 123.588C135.982 123.588 135.618 123.68 135.298 123.864C134.978 124.048 134.722 124.308 134.53 124.644C134.338 124.972 134.242 125.364 134.242 125.82C134.242 126.268 134.338 126.664 134.53 127.008C134.722 127.344 134.978 127.604 135.298 127.788C135.618 127.972 135.982 128.064 136.39 128.064ZM141.451 129V122.076C141.451 121.452 141.631 120.956 141.991 120.588C142.359 120.212 142.879 120.024 143.551 120.024C143.799 120.024 144.035 120.056 144.259 120.12C144.491 120.176 144.687 120.268 144.847 120.396L144.499 121.272C144.379 121.176 144.243 121.104 144.091 121.056C143.939 121 143.779 120.972 143.611 120.972C143.275 120.972 143.019 121.068 142.843 121.26C142.667 121.444 142.579 121.72 142.579 122.088V122.94L142.603 123.468V129H141.451ZM140.371 123.588V122.64H144.427V123.588H140.371ZM32.526 144.072C31.886 144.072 31.39 143.9 31.038 143.556C30.686 143.212 30.51 142.72 30.51 142.08V136.248H31.662V142.032C31.662 142.376 31.746 142.64 31.914 142.824C32.09 143.008 32.338 143.1 32.658 143.1C33.018 143.1 33.318 143 33.558 142.8L33.918 143.628C33.742 143.78 33.53 143.892 33.282 143.964C33.042 144.036 32.79 144.072 32.526 144.072ZM29.43 138.588V137.64H33.486V138.588H29.43ZM38.7068 137.58C39.2268 137.58 39.6828 137.68 40.0748 137.88C40.4748 138.08 40.7868 138.384 41.0108 138.792C41.2348 139.2 41.3468 139.716 41.3468 140.34V144H40.1948V140.472C40.1948 139.856 40.0428 139.392 39.7388 139.08C39.4428 138.768 39.0228 138.612 38.4788 138.612C38.0708 138.612 37.7148 138.692 37.4108 138.852C37.1068 139.012 36.8708 139.248 36.7028 139.56C36.5428 139.872 36.4628 140.26 36.4628 140.724V144H35.3108V135.096H36.4628V139.356L36.2348 138.9C36.4428 138.484 36.7628 138.16 37.1948 137.928C37.6268 137.696 38.1308 137.58 38.7068 137.58ZM46.3107 144.072C45.6307 144.072 45.0307 143.932 44.5107 143.652C43.9987 143.372 43.5987 142.988 43.3107 142.5C43.0307 142.012 42.8907 141.452 42.8907 140.82C42.8907 140.188 43.0267 139.628 43.2987 139.14C43.5787 138.652 43.9587 138.272 44.4387 138C44.9267 137.72 45.4747 137.58 46.0827 137.58C46.6987 137.58 47.2427 137.716 47.7147 137.988C48.1867 138.26 48.5547 138.644 48.8187 139.14C49.0907 139.628 49.2267 140.2 49.2267 140.856C49.2267 140.904 49.2227 140.96 49.2147 141.024C49.2147 141.088 49.2107 141.148 49.2027 141.204H43.7907V140.376H48.6027L48.1347 140.664C48.1427 140.256 48.0587 139.892 47.8827 139.572C47.7067 139.252 47.4627 139.004 47.1507 138.828C46.8467 138.644 46.4907 138.552 46.0827 138.552C45.6827 138.552 45.3267 138.644 45.0147 138.828C44.7027 139.004 44.4587 139.256 44.2827 139.584C44.1067 139.904 44.0187 140.272 44.0187 140.688V140.88C44.0187 141.304 44.1147 141.684 44.3067 142.02C44.5067 142.348 44.7827 142.604 45.1347 142.788C45.4867 142.972 45.8907 143.064 46.3467 143.064C46.7227 143.064 47.0627 143 47.3667 142.872C47.6787 142.744 47.9507 142.552 48.1827 142.296L48.8187 143.04C48.5307 143.376 48.1707 143.632 47.7387 143.808C47.3147 143.984 46.8387 144.072 46.3107 144.072ZM54.049 144V135.096H55.201V144H54.049ZM60.2326 144.072C59.5526 144.072 58.9526 143.932 58.4326 143.652C57.9206 143.372 57.5206 142.988 57.2326 142.5C56.9526 142.012 56.8126 141.452 56.8126 140.82C56.8126 140.188 56.9486 139.628 57.2206 139.14C57.5006 138.652 57.8806 138.272 58.3606 138C58.8486 137.72 59.3966 137.58 60.0046 137.58C60.6206 137.58 61.1646 137.716 61.6366 137.988C62.1086 138.26 62.4766 138.644 62.7406 139.14C63.0126 139.628 63.1486 140.2 63.1486 140.856C63.1486 140.904 63.1446 140.96 63.1366 141.024C63.1366 141.088 63.1326 141.148 63.1246 141.204H57.7126V140.376H62.5246L62.0566 140.664C62.0646 140.256 61.9806 139.892 61.8046 139.572C61.6286 139.252 61.3846 139.004 61.0726 138.828C60.7686 138.644 60.4126 138.552 60.0046 138.552C59.6046 138.552 59.2486 138.644 58.9366 138.828C58.6246 139.004 58.3806 139.256 58.2046 139.584C58.0286 139.904 57.9406 140.272 57.9406 140.688V140.88C57.9406 141.304 58.0366 141.684 58.2286 142.02C58.4286 142.348 58.7046 142.604 59.0566 142.788C59.4086 142.972 59.8126 143.064 60.2686 143.064C60.6446 143.064 60.9846 143 61.2886 142.872C61.6006 142.744 61.8726 142.552 62.1046 142.296L62.7406 143.04C62.4526 143.376 62.0926 143.632 61.6606 143.808C61.2366 143.984 60.7606 144.072 60.2326 144.072ZM68.5205 144V142.656L68.4605 142.404V140.112C68.4605 139.624 68.3165 139.248 68.0285 138.984C67.7485 138.712 67.3245 138.576 66.7565 138.576C66.3805 138.576 66.0125 138.64 65.6525 138.768C65.2925 138.888 64.9885 139.052 64.7405 139.26L64.2605 138.396C64.5885 138.132 64.9805 137.932 65.4365 137.796C65.9005 137.652 66.3845 137.58 66.8885 137.58C67.7605 137.58 68.4325 137.792 68.9045 138.216C69.3765 138.64 69.6125 139.288 69.6125 140.16V144H68.5205ZM66.4325 144.072C65.9605 144.072 65.5445 143.992 65.1845 143.832C64.8325 143.672 64.5605 143.452 64.3685 143.172C64.1765 142.884 64.0805 142.56 64.0805 142.2C64.0805 141.856 64.1605 141.544 64.3205 141.264C64.4885 140.984 64.7565 140.76 65.1245 140.592C65.5005 140.424 66.0045 140.34 66.6365 140.34H68.6525V141.168H66.6845C66.1085 141.168 65.7205 141.264 65.5205 141.456C65.3205 141.648 65.2205 141.88 65.2205 142.152C65.2205 142.464 65.3445 142.716 65.5925 142.908C65.8405 143.092 66.1845 143.184 66.6245 143.184C67.0565 143.184 67.4325 143.088 67.7525 142.896C68.0805 142.704 68.3165 142.424 68.4605 142.056L68.6885 142.848C68.5365 143.224 68.2685 143.524 67.8845 143.748C67.5005 143.964 67.0165 144.072 66.4325 144.072ZM71.9123 144V137.076C71.9123 136.452 72.0923 135.956 72.4523 135.588C72.8203 135.212 73.3403 135.024 74.0123 135.024C74.2603 135.024 74.4963 135.056 74.7203 135.12C74.9523 135.176 75.1483 135.268 75.3083 135.396L74.9603 136.272C74.8403 136.176 74.7043 136.104 74.5523 136.056C74.4003 136 74.2403 135.972 74.0723 135.972C73.7363 135.972 73.4803 136.068 73.3043 136.26C73.1283 136.444 73.0403 136.72 73.0403 137.088V137.94L73.0643 138.468V144H71.9123ZM70.8323 138.588V137.64H74.8883V138.588H70.8323ZM81.3815 144.072C80.7415 144.072 80.2455 143.9 79.8935 143.556C79.5415 143.212 79.3655 142.72 79.3655 142.08V136.248H80.5175V142.032C80.5175 142.376 80.6015 142.64 80.7695 142.824C80.9455 143.008 81.1935 143.1 81.5135 143.1C81.8735 143.1 82.1735 143 82.4135 142.8L82.7735 143.628C82.5975 143.78 82.3855 143.892 82.1375 143.964C81.8975 144.036 81.6455 144.072 81.3815 144.072ZM78.2855 138.588V137.64H82.3415V138.588H78.2855ZM86.6793 144.072C86.0393 144.072 85.4713 143.932 84.9753 143.652C84.4793 143.372 84.0873 142.988 83.7993 142.5C83.5113 142.004 83.3673 141.444 83.3673 140.82C83.3673 140.188 83.5113 139.628 83.7993 139.14C84.0873 138.652 84.4793 138.272 84.9753 138C85.4713 137.72 86.0393 137.58 86.6793 137.58C87.3113 137.58 87.8753 137.72 88.3713 138C88.8753 138.272 89.2673 138.652 89.5473 139.14C89.8353 139.62 89.9793 140.18 89.9793 140.82C89.9793 141.452 89.8353 142.012 89.5473 142.5C89.2673 142.988 88.8753 143.372 88.3713 143.652C87.8753 143.932 87.3113 144.072 86.6793 144.072ZM86.6793 143.064C87.0873 143.064 87.4513 142.972 87.7713 142.788C88.0993 142.604 88.3553 142.344 88.5393 142.008C88.7233 141.664 88.8153 141.268 88.8153 140.82C88.8153 140.364 88.7233 139.972 88.5393 139.644C88.3553 139.308 88.0993 139.048 87.7713 138.864C87.4513 138.68 87.0873 138.588 86.6793 138.588C86.2713 138.588 85.9073 138.68 85.5873 138.864C85.2673 139.048 85.0113 139.308 84.8193 139.644C84.6273 139.972 84.5313 140.364 84.5313 140.82C84.5313 141.268 84.6273 141.664 84.8193 142.008C85.0113 142.344 85.2673 142.604 85.5873 142.788C85.9073 142.972 86.2713 143.064 86.6793 143.064ZM92.7407 144L90.3767 137.64H91.4687L93.5687 143.4H93.0527L95.2367 137.64H96.2087L98.3447 143.4H97.8407L99.9887 137.64H101.021L98.6447 144H97.5407L95.5367 138.744H95.8727L93.8447 144H92.7407ZM105.938 144V142.656L105.878 142.404V140.112C105.878 139.624 105.734 139.248 105.446 138.984C105.166 138.712 104.742 138.576 104.174 138.576C103.798 138.576 103.43 138.64 103.07 138.768C102.71 138.888 102.406 139.052 102.158 139.26L101.678 138.396C102.006 138.132 102.398 137.932 102.854 137.796C103.318 137.652 103.802 137.58 104.306 137.58C105.178 137.58 105.85 137.792 106.322 138.216C106.794 138.64 107.03 139.288 107.03 140.16V144H105.938ZM103.85 144.072C103.378 144.072 102.962 143.992 102.602 143.832C102.25 143.672 101.978 143.452 101.786 143.172C101.594 142.884 101.498 142.56 101.498 142.2C101.498 141.856 101.578 141.544 101.738 141.264C101.906 140.984 102.174 140.76 102.542 140.592C102.918 140.424 103.422 140.34 104.054 140.34H106.07V141.168H104.102C103.526 141.168 103.138 141.264 102.938 141.456C102.738 141.648 102.638 141.88 102.638 142.152C102.638 142.464 102.762 142.716 103.01 142.908C103.258 143.092 103.602 143.184 104.042 143.184C104.474 143.184 104.85 143.088 105.17 142.896C105.498 142.704 105.734 142.424 105.878 142.056L106.106 142.848C105.954 143.224 105.686 143.524 105.302 143.748C104.918 143.964 104.434 144.072 103.85 144.072ZM109.162 144V137.64H110.266V139.368L110.158 138.936C110.334 138.496 110.63 138.16 111.046 137.928C111.462 137.696 111.974 137.58 112.582 137.58V138.696C112.534 138.688 112.486 138.684 112.438 138.684C112.398 138.684 112.358 138.684 112.318 138.684C111.702 138.684 111.214 138.868 110.854 139.236C110.494 139.604 110.314 140.136 110.314 140.832V144H109.162ZM116.572 144.072C115.956 144.072 115.404 143.936 114.916 143.664C114.436 143.392 114.056 143.012 113.776 142.524C113.496 142.036 113.356 141.468 113.356 140.82C113.356 140.172 113.496 139.608 113.776 139.128C114.056 138.64 114.436 138.26 114.916 137.988C115.404 137.716 115.956 137.58 116.572 137.58C117.108 137.58 117.592 137.7 118.024 137.94C118.456 138.18 118.8 138.54 119.056 139.02C119.32 139.5 119.452 140.1 119.452 140.82C119.452 141.54 119.324 142.14 119.068 142.62C118.82 143.1 118.48 143.464 118.048 143.712C117.616 143.952 117.124 144.072 116.572 144.072ZM116.668 143.064C117.068 143.064 117.428 142.972 117.748 142.788C118.076 142.604 118.332 142.344 118.516 142.008C118.708 141.664 118.804 141.268 118.804 140.82C118.804 140.364 118.708 139.972 118.516 139.644C118.332 139.308 118.076 139.048 117.748 138.864C117.428 138.68 117.068 138.588 116.668 138.588C116.26 138.588 115.896 138.68 115.576 138.864C115.256 139.048 115 139.308 114.808 139.644C114.616 139.972 114.52 140.364 114.52 140.82C114.52 141.268 114.616 141.664 114.808 142.008C115 142.344 115.256 142.604 115.576 142.788C115.896 142.972 116.26 143.064 116.668 143.064ZM118.84 144V142.284L118.912 140.808L118.792 139.332V135.096H119.944V144H118.84ZM123.947 144.072C123.419 144.072 122.915 144 122.435 143.856C121.963 143.712 121.591 143.536 121.319 143.328L121.799 142.416C122.071 142.6 122.407 142.756 122.807 142.884C123.207 143.012 123.615 143.076 124.031 143.076C124.567 143.076 124.951 143 125.183 142.848C125.423 142.696 125.543 142.484 125.543 142.212C125.543 142.012 125.471 141.856 125.327 141.744C125.183 141.632 124.991 141.548 124.751 141.492C124.519 141.436 124.259 141.388 123.971 141.348C123.683 141.3 123.395 141.244 123.107 141.18C122.819 141.108 122.555 141.012 122.315 140.892C122.075 140.764 121.883 140.592 121.739 140.376C121.595 140.152 121.523 139.856 121.523 139.488C121.523 139.104 121.631 138.768 121.847 138.48C122.063 138.192 122.367 137.972 122.759 137.82C123.159 137.66 123.631 137.58 124.175 137.58C124.591 137.58 125.011 137.632 125.435 137.736C125.867 137.832 126.219 137.972 126.491 138.156L125.999 139.068C125.711 138.876 125.411 138.744 125.099 138.672C124.787 138.6 124.475 138.564 124.163 138.564C123.659 138.564 123.283 138.648 123.035 138.816C122.787 138.976 122.663 139.184 122.663 139.44C122.663 139.656 122.735 139.824 122.879 139.944C123.031 140.056 123.223 140.144 123.455 140.208C123.695 140.272 123.959 140.328 124.247 140.376C124.535 140.416 124.823 140.472 125.111 140.544C125.399 140.608 125.659 140.7 125.891 140.82C126.131 140.94 126.323 141.108 126.467 141.324C126.619 141.54 126.695 141.828 126.695 142.188C126.695 142.572 126.583 142.904 126.359 143.184C126.135 143.464 125.819 143.684 125.411 143.844C125.003 143.996 124.515 144.072 123.947 144.072ZM133.542 144.072C132.902 144.072 132.406 143.9 132.054 143.556C131.702 143.212 131.526 142.72 131.526 142.08V136.248H132.678V142.032C132.678 142.376 132.762 142.64 132.93 142.824C133.106 143.008 133.354 143.1 133.674 143.1C134.034 143.1 134.334 143 134.574 142.8L134.934 143.628C134.758 143.78 134.546 143.892 134.298 143.964C134.058 144.036 133.806 144.072 133.542 144.072ZM130.446 138.588V137.64H134.502V138.588H130.446ZM139.722 137.58C140.242 137.58 140.698 137.68 141.09 137.88C141.49 138.08 141.802 138.384 142.026 138.792C142.25 139.2 142.362 139.716 142.362 140.34V144H141.21V140.472C141.21 139.856 141.058 139.392 140.754 139.08C140.458 138.768 140.038 138.612 139.494 138.612C139.086 138.612 138.73 138.692 138.426 138.852C138.122 139.012 137.886 139.248 137.718 139.56C137.558 139.872 137.478 140.26 137.478 140.724V144H136.326V135.096H137.478V139.356L137.25 138.9C137.458 138.484 137.778 138.16 138.21 137.928C138.642 137.696 139.146 137.58 139.722 137.58ZM147.326 144.072C146.646 144.072 146.046 143.932 145.526 143.652C145.014 143.372 144.614 142.988 144.326 142.5C144.046 142.012 143.906 141.452 143.906 140.82C143.906 140.188 144.042 139.628 144.314 139.14C144.594 138.652 144.974 138.272 145.454 138C145.942 137.72 146.49 137.58 147.098 137.58C147.714 137.58 148.258 137.716 148.73 137.988C149.202 138.26 149.57 138.644 149.834 139.14C150.106 139.628 150.242 140.2 150.242 140.856C150.242 140.904 150.238 140.96 150.23 141.024C150.23 141.088 150.226 141.148 150.218 141.204H144.806V140.376H149.618L149.15 140.664C149.158 140.256 149.074 139.892 148.898 139.572C148.722 139.252 148.478 139.004 148.166 138.828C147.862 138.644 147.506 138.552 147.098 138.552C146.698 138.552 146.342 138.644 146.03 138.828C145.718 139.004 145.474 139.256 145.298 139.584C145.122 139.904 145.034 140.272 145.034 140.688V140.88C145.034 141.304 145.13 141.684 145.322 142.02C145.522 142.348 145.798 142.604 146.15 142.788C146.502 142.972 146.906 143.064 147.362 143.064C147.738 143.064 148.078 143 148.382 142.872C148.694 142.744 148.966 142.552 149.198 142.296L149.834 143.04C149.546 143.376 149.186 143.632 148.754 143.808C148.33 143.984 147.854 144.072 147.326 144.072ZM32.469 159V152.64H33.621V159H32.469ZM33.045 151.416C32.821 151.416 32.633 151.344 32.481 151.2C32.337 151.056 32.265 150.88 32.265 150.672C32.265 150.456 32.337 150.276 32.481 150.132C32.633 149.988 32.821 149.916 33.045 149.916C33.269 149.916 33.453 149.988 33.597 150.132C33.749 150.268 33.825 150.44 33.825 150.648C33.825 150.864 33.753 151.048 33.609 151.2C33.465 151.344 33.277 151.416 33.045 151.416ZM39.2165 152.58C39.7365 152.58 40.1925 152.68 40.5845 152.88C40.9845 153.08 41.2965 153.384 41.5205 153.792C41.7445 154.2 41.8565 154.716 41.8565 155.34V159H40.7045V155.472C40.7045 154.856 40.5525 154.392 40.2485 154.08C39.9525 153.768 39.5325 153.612 38.9885 153.612C38.5805 153.612 38.2245 153.692 37.9205 153.852C37.6165 154.012 37.3805 154.248 37.2125 154.56C37.0525 154.872 36.9725 155.26 36.9725 155.724V159H35.8205V152.64H36.9245V154.356L36.7445 153.9C36.9525 153.484 37.2725 153.16 37.7045 152.928C38.1365 152.696 38.6405 152.58 39.2165 152.58ZM45.8125 159.072C45.2845 159.072 44.7805 159 44.3005 158.856C43.8285 158.712 43.4565 158.536 43.1845 158.328L43.6645 157.416C43.9365 157.6 44.2725 157.756 44.6725 157.884C45.0725 158.012 45.4805 158.076 45.8965 158.076C46.4325 158.076 46.8165 158 47.0485 157.848C47.2885 157.696 47.4085 157.484 47.4085 157.212C47.4085 157.012 47.3365 156.856 47.1925 156.744C47.0485 156.632 46.8565 156.548 46.6165 156.492C46.3845 156.436 46.1245 156.388 45.8365 156.348C45.5485 156.3 45.2605 156.244 44.9725 156.18C44.6845 156.108 44.4205 156.012 44.1805 155.892C43.9405 155.764 43.7485 155.592 43.6045 155.376C43.4605 155.152 43.3885 154.856 43.3885 154.488C43.3885 154.104 43.4965 153.768 43.7125 153.48C43.9285 153.192 44.2325 152.972 44.6245 152.82C45.0245 152.66 45.4965 152.58 46.0405 152.58C46.4565 152.58 46.8765 152.632 47.3005 152.736C47.7325 152.832 48.0845 152.972 48.3565 153.156L47.8645 154.068C47.5765 153.876 47.2765 153.744 46.9645 153.672C46.6525 153.6 46.3405 153.564 46.0285 153.564C45.5245 153.564 45.1485 153.648 44.9005 153.816C44.6525 153.976 44.5285 154.184 44.5285 154.44C44.5285 154.656 44.6005 154.824 44.7445 154.944C44.8965 155.056 45.0885 155.144 45.3205 155.208C45.5605 155.272 45.8245 155.328 46.1125 155.376C46.4005 155.416 46.6885 155.472 46.9765 155.544C47.2645 155.608 47.5245 155.7 47.7565 155.82C47.9965 155.94 48.1885 156.108 48.3325 156.324C48.4845 156.54 48.5605 156.828 48.5605 157.188C48.5605 157.572 48.4485 157.904 48.2245 158.184C48.0005 158.464 47.6845 158.684 47.2765 158.844C46.8685 158.996 46.3805 159.072 45.8125 159.072ZM50.0002 159V152.64H51.1522V159H50.0002ZM50.5762 151.416C50.3522 151.416 50.1642 151.344 50.0122 151.2C49.8682 151.056 49.7962 150.88 49.7962 150.672C49.7962 150.456 49.8682 150.276 50.0122 150.132C50.1642 149.988 50.3522 149.916 50.5762 149.916C50.8002 149.916 50.9842 149.988 51.1282 150.132C51.2802 150.268 51.3562 150.44 51.3562 150.648C51.3562 150.864 51.2842 151.048 51.1402 151.2C50.9962 151.344 50.8082 151.416 50.5762 151.416ZM55.9798 159.072C55.3638 159.072 54.8118 158.936 54.3238 158.664C53.8438 158.392 53.4638 158.012 53.1838 157.524C52.9038 157.036 52.7638 156.468 52.7638 155.82C52.7638 155.172 52.9038 154.608 53.1838 154.128C53.4638 153.64 53.8438 153.26 54.3238 152.988C54.8118 152.716 55.3638 152.58 55.9798 152.58C56.5158 152.58 56.9998 152.7 57.4318 152.94C57.8638 153.18 58.2078 153.54 58.4638 154.02C58.7278 154.5 58.8598 155.1 58.8598 155.82C58.8598 156.54 58.7318 157.14 58.4758 157.62C58.2278 158.1 57.8878 158.464 57.4558 158.712C57.0238 158.952 56.5318 159.072 55.9798 159.072ZM56.0758 158.064C56.4758 158.064 56.8358 157.972 57.1558 157.788C57.4838 157.604 57.7398 157.344 57.9238 157.008C58.1158 156.664 58.2118 156.268 58.2118 155.82C58.2118 155.364 58.1158 154.972 57.9238 154.644C57.7398 154.308 57.4838 154.048 57.1558 153.864C56.8358 153.68 56.4758 153.588 56.0758 153.588C55.6678 153.588 55.3038 153.68 54.9838 153.864C54.6638 154.048 54.4078 154.308 54.2158 154.644C54.0238 154.972 53.9278 155.364 53.9278 155.82C53.9278 156.268 54.0238 156.664 54.2158 157.008C54.4078 157.344 54.6638 157.604 54.9838 157.788C55.3038 157.972 55.6678 158.064 56.0758 158.064ZM58.2478 159V157.284L58.3198 155.808L58.1998 154.332V150.096H59.3518V159H58.2478ZM64.3635 159.072C63.6835 159.072 63.0835 158.932 62.5635 158.652C62.0515 158.372 61.6515 157.988 61.3635 157.5C61.0835 157.012 60.9435 156.452 60.9435 155.82C60.9435 155.188 61.0795 154.628 61.3515 154.14C61.6315 153.652 62.0115 153.272 62.4915 153C62.9795 152.72 63.5275 152.58 64.1355 152.58C64.7515 152.58 65.2955 152.716 65.7675 152.988C66.2395 153.26 66.6075 153.644 66.8715 154.14C67.1435 154.628 67.2795 155.2 67.2795 155.856C67.2795 155.904 67.2755 155.96 67.2675 156.024C67.2675 156.088 67.2635 156.148 67.2555 156.204H61.8435V155.376H66.6555L66.1875 155.664C66.1955 155.256 66.1115 154.892 65.9355 154.572C65.7595 154.252 65.5155 154.004 65.2035 153.828C64.8995 153.644 64.5435 153.552 64.1355 153.552C63.7355 153.552 63.3795 153.644 63.0675 153.828C62.7555 154.004 62.5115 154.256 62.3355 154.584C62.1595 154.904 62.0715 155.272 62.0715 155.688V155.88C62.0715 156.304 62.1675 156.684 62.3595 157.02C62.5595 157.348 62.8355 157.604 63.1875 157.788C63.5395 157.972 63.9435 158.064 64.3995 158.064C64.7755 158.064 65.1155 158 65.4195 157.872C65.7315 157.744 66.0035 157.552 66.2355 157.296L66.8715 158.04C66.5835 158.376 66.2235 158.632 65.7915 158.808C65.3675 158.984 64.8915 159.072 64.3635 159.072ZM74.8258 159.072C74.1858 159.072 73.6178 158.932 73.1218 158.652C72.6258 158.372 72.2338 157.988 71.9458 157.5C71.6578 157.004 71.5138 156.444 71.5138 155.82C71.5138 155.188 71.6578 154.628 71.9458 154.14C72.2338 153.652 72.6258 153.272 73.1218 153C73.6178 152.72 74.1858 152.58 74.8258 152.58C75.4578 152.58 76.0218 152.72 76.5178 153C77.0218 153.272 77.4138 153.652 77.6938 154.14C77.9818 154.62 78.1258 155.18 78.1258 155.82C78.1258 156.452 77.9818 157.012 77.6938 157.5C77.4138 157.988 77.0218 158.372 76.5178 158.652C76.0218 158.932 75.4578 159.072 74.8258 159.072ZM74.8258 158.064C75.2338 158.064 75.5978 157.972 75.9178 157.788C76.2458 157.604 76.5018 157.344 76.6858 157.008C76.8698 156.664 76.9618 156.268 76.9618 155.82C76.9618 155.364 76.8698 154.972 76.6858 154.644C76.5018 154.308 76.2458 154.048 75.9178 153.864C75.5978 153.68 75.2338 153.588 74.8258 153.588C74.4178 153.588 74.0538 153.68 73.7338 153.864C73.4138 154.048 73.1578 154.308 72.9658 154.644C72.7738 154.972 72.6778 155.364 72.6778 155.82C72.6778 156.268 72.7738 156.664 72.9658 157.008C73.1578 157.344 73.4138 157.604 73.7338 157.788C74.0538 157.972 74.4178 158.064 74.8258 158.064ZM79.887 159V152.076C79.887 151.452 80.067 150.956 80.427 150.588C80.795 150.212 81.315 150.024 81.987 150.024C82.235 150.024 82.471 150.056 82.695 150.12C82.927 150.176 83.123 150.268 83.283 150.396L82.935 151.272C82.815 151.176 82.679 151.104 82.527 151.056C82.375 151 82.215 150.972 82.047 150.972C81.711 150.972 81.455 151.068 81.279 151.26C81.103 151.444 81.015 151.72 81.015 152.088V152.94L81.039 153.468V159H79.887ZM78.807 153.588V152.64H82.863V153.588H78.807ZM89.3561 159.072C88.7161 159.072 88.2201 158.9 87.8681 158.556C87.5161 158.212 87.3401 157.72 87.3401 157.08V151.248H88.4921V157.032C88.4921 157.376 88.5761 157.64 88.7441 157.824C88.9201 158.008 89.1681 158.1 89.4881 158.1C89.8481 158.1 90.1481 158 90.3881 157.8L90.7481 158.628C90.5721 158.78 90.3601 158.892 90.1121 158.964C89.8721 159.036 89.6201 159.072 89.3561 159.072ZM86.2601 153.588V152.64H90.3161V153.588H86.2601ZM95.5368 152.58C96.0568 152.58 96.5128 152.68 96.9048 152.88C97.3048 153.08 97.6168 153.384 97.8408 153.792C98.0648 154.2 98.1768 154.716 98.1768 155.34V159H97.0248V155.472C97.0248 154.856 96.8728 154.392 96.5688 154.08C96.2728 153.768 95.8528 153.612 95.3088 153.612C94.9008 153.612 94.5448 153.692 94.2408 153.852C93.9368 154.012 93.7008 154.248 93.5328 154.56C93.3728 154.872 93.2928 155.26 93.2928 155.724V159H92.1408V150.096H93.2928V154.356L93.0648 153.9C93.2728 153.484 93.5928 153.16 94.0248 152.928C94.4568 152.696 94.9608 152.58 95.5368 152.58ZM103.141 159.072C102.461 159.072 101.861 158.932 101.341 158.652C100.829 158.372 100.429 157.988 100.141 157.5C99.8608 157.012 99.7208 156.452 99.7208 155.82C99.7208 155.188 99.8568 154.628 100.129 154.14C100.409 153.652 100.789 153.272 101.269 153C101.757 152.72 102.305 152.58 102.913 152.58C103.529 152.58 104.073 152.716 104.545 152.988C105.017 153.26 105.385 153.644 105.649 154.14C105.921 154.628 106.057 155.2 106.057 155.856C106.057 155.904 106.053 155.96 106.045 156.024C106.045 156.088 106.041 156.148 106.033 156.204H100.621V155.376H105.433L104.965 155.664C104.973 155.256 104.889 154.892 104.713 154.572C104.537 154.252 104.293 154.004 103.981 153.828C103.677 153.644 103.321 153.552 102.913 153.552C102.513 153.552 102.157 153.644 101.845 153.828C101.533 154.004 101.289 154.256 101.113 154.584C100.937 154.904 100.849 155.272 100.849 155.688V155.88C100.849 156.304 100.945 156.684 101.137 157.02C101.337 157.348 101.613 157.604 101.965 157.788C102.317 157.972 102.721 158.064 103.177 158.064C103.553 158.064 103.893 158 104.197 157.872C104.509 157.744 104.781 157.552 105.013 157.296L105.649 158.04C105.361 158.376 105.001 158.632 104.569 158.808C104.145 158.984 103.669 159.072 103.141 159.072ZM111.047 159V152.076C111.047 151.452 111.227 150.956 111.587 150.588C111.955 150.212 112.475 150.024 113.147 150.024C113.395 150.024 113.631 150.056 113.855 150.12C114.087 150.176 114.283 150.268 114.443 150.396L114.095 151.272C113.975 151.176 113.839 151.104 113.687 151.056C113.535 151 113.375 150.972 113.207 150.972C112.871 150.972 112.615 151.068 112.439 151.26C112.263 151.444 112.175 151.72 112.175 152.088V152.94L112.199 153.468V159H111.047ZM109.967 153.588V152.64H114.023V153.588H109.967ZM115.115 159V152.64H116.267V159H115.115ZM115.691 151.416C115.467 151.416 115.279 151.344 115.127 151.2C114.983 151.056 114.911 150.88 114.911 150.672C114.911 150.456 114.983 150.276 115.127 150.132C115.279 149.988 115.467 149.916 115.691 149.916C115.915 149.916 116.099 149.988 116.243 150.132C116.395 150.268 116.471 150.44 116.471 150.648C116.471 150.864 116.399 151.048 116.255 151.2C116.111 151.344 115.923 151.416 115.691 151.416ZM121.245 161.4C120.661 161.4 120.093 161.316 119.541 161.148C118.997 160.988 118.553 160.756 118.209 160.452L118.761 159.564C119.057 159.82 119.421 160.02 119.853 160.164C120.285 160.316 120.737 160.392 121.209 160.392C121.961 160.392 122.513 160.216 122.865 159.864C123.217 159.512 123.393 158.976 123.393 158.256V156.912L123.513 155.652L123.453 154.38V152.64H124.545V158.136C124.545 159.256 124.265 160.08 123.705 160.608C123.145 161.136 122.325 161.4 121.245 161.4ZM121.101 158.736C120.485 158.736 119.933 158.608 119.445 158.352C118.965 158.088 118.581 157.724 118.293 157.26C118.013 156.796 117.873 156.26 117.873 155.652C117.873 155.036 118.013 154.5 118.293 154.044C118.581 153.58 118.965 153.22 119.445 152.964C119.933 152.708 120.485 152.58 121.101 152.58C121.645 152.58 122.141 152.692 122.589 152.916C123.037 153.132 123.393 153.468 123.657 153.924C123.929 154.38 124.065 154.956 124.065 155.652C124.065 156.34 123.929 156.912 123.657 157.368C123.393 157.824 123.037 158.168 122.589 158.4C122.141 158.624 121.645 158.736 121.101 158.736ZM121.233 157.728C121.657 157.728 122.033 157.64 122.361 157.464C122.689 157.288 122.945 157.044 123.129 156.732C123.321 156.42 123.417 156.06 123.417 155.652C123.417 155.244 123.321 154.884 123.129 154.572C122.945 154.26 122.689 154.02 122.361 153.852C122.033 153.676 121.657 153.588 121.233 153.588C120.809 153.588 120.429 153.676 120.093 153.852C119.765 154.02 119.505 154.26 119.313 154.572C119.129 154.884 119.037 155.244 119.037 155.652C119.037 156.06 119.129 156.42 119.313 156.732C119.505 157.044 119.765 157.288 120.093 157.464C120.429 157.64 120.809 157.728 121.233 157.728ZM129.422 159.072C128.878 159.072 128.398 158.972 127.982 158.772C127.574 158.572 127.254 158.268 127.022 157.86C126.798 157.444 126.686 156.924 126.686 156.3V152.64H127.838V156.168C127.838 156.792 127.986 157.26 128.282 157.572C128.586 157.884 129.01 158.04 129.554 158.04C129.954 158.04 130.302 157.96 130.598 157.8C130.894 157.632 131.122 157.392 131.282 157.08C131.442 156.76 131.522 156.376 131.522 155.928V152.64H132.674V159H131.582V157.284L131.762 157.74C131.554 158.164 131.242 158.492 130.826 158.724C130.41 158.956 129.942 159.072 129.422 159.072ZM134.867 159V152.64H135.971V154.368L135.863 153.936C136.039 153.496 136.335 153.16 136.751 152.928C137.167 152.696 137.679 152.58 138.287 152.58V153.696C138.239 153.688 138.191 153.684 138.143 153.684C138.103 153.684 138.063 153.684 138.023 153.684C137.407 153.684 136.919 153.868 136.559 154.236C136.199 154.604 136.019 155.136 136.019 155.832V159H134.867ZM142.481 159.072C141.801 159.072 141.201 158.932 140.681 158.652C140.169 158.372 139.769 157.988 139.481 157.5C139.201 157.012 139.061 156.452 139.061 155.82C139.061 155.188 139.197 154.628 139.469 154.14C139.749 153.652 140.129 153.272 140.609 153C141.097 152.72 141.645 152.58 142.253 152.58C142.869 152.58 143.413 152.716 143.885 152.988C144.357 153.26 144.725 153.644 144.989 154.14C145.261 154.628 145.397 155.2 145.397 155.856C145.397 155.904 145.393 155.96 145.385 156.024C145.385 156.088 145.381 156.148 145.373 156.204H139.961V155.376H144.773L144.305 155.664C144.313 155.256 144.229 154.892 144.053 154.572C143.877 154.252 143.633 154.004 143.321 153.828C143.017 153.644 142.661 153.552 142.253 153.552C141.853 153.552 141.497 153.644 141.185 153.828C140.873 154.004 140.629 154.256 140.453 154.584C140.277 154.904 140.189 155.272 140.189 155.688V155.88C140.189 156.304 140.285 156.684 140.477 157.02C140.677 157.348 140.953 157.604 141.305 157.788C141.657 157.972 142.061 158.064 142.517 158.064C142.893 158.064 143.233 158 143.537 157.872C143.849 157.744 144.121 157.552 144.353 157.296L144.989 158.04C144.701 158.376 144.341 158.632 143.909 158.808C143.485 158.984 143.009 159.072 142.481 159.072ZM147.272 159.072C147.048 159.072 146.856 158.996 146.696 158.844C146.536 158.684 146.456 158.484 146.456 158.244C146.456 158.004 146.536 157.808 146.696 157.656C146.856 157.504 147.048 157.428 147.272 157.428C147.488 157.428 147.672 157.504 147.824 157.656C147.984 157.808 148.064 158.004 148.064 158.244C148.064 158.484 147.984 158.684 147.824 158.844C147.672 158.996 147.488 159.072 147.272 159.072Z" fill="#008E86"/>
<path d="M59.8037 77.219L65.2277 41.4205L121.999 100L67.759 98.192L59.8037 77.219Z" fill="#008E86" stroke="#00635D" stroke-width="2" stroke-linejoin="round"/>
<path d="M64.5049 40.6975L80.777 24.0639L84.393 29.1263L64.8665 79.0273L64.5049 40.6975Z" fill="#00D8CC" stroke="#00635D" stroke-width="2" stroke-linejoin="round"/>
<path d="M71.0142 13.2145L83.3086 19.7233L84.3934 29.125L71.0142 13.2145Z" fill="#00D8CC" stroke="#00635D" stroke-width="2" stroke-linejoin="round"/>
<path d="M64.8667 79.0274L76.0764 51.9072L122 99.6387L73.1835 99.6386L64.8667 79.0274Z" fill="#00D8CC" stroke="#00635D" stroke-width="2" stroke-linejoin="round"/>
<path d="M58.8084 10.1253C58.7397 9.57735 59.1282 9.07738 59.6761 9.00862C60.2241 8.93987 60.7241 9.32836 60.7929 9.87635L58.8084 10.1253ZM75.4983 22.7365C75.8825 23.1332 75.8724 23.7663 75.4757 24.1506L69.0111 30.4122C68.6144 30.7965 67.9813 30.7864 67.597 30.3897C67.2128 29.993 67.2229 29.3599 67.6196 28.9756L73.3659 23.4097L67.8 17.6634C67.4158 17.2667 67.4259 16.6336 67.8226 16.2493C68.2193 15.8651 68.8524 15.8752 69.2366 16.2719L75.4983 22.7365ZM60.7929 9.87635C61.2626 13.6201 62.8025 16.7159 65.1709 18.8894C67.5364 21.0602 70.7904 22.3685 74.7959 22.4324L74.764 24.4321C70.3245 24.3613 66.584 22.9008 63.8187 20.363C61.0563 17.828 59.3291 14.2754 58.8084 10.1253L60.7929 9.87635Z" fill="black"/>
<path d="M79.3306 14.6621L73.5449 20.4477" stroke="#00635D" stroke-width="2" stroke-linecap="round"/>
</g>
<defs>
<clipPath id="clip0_14_2836">
<rect width="180" height="180" rx="20" fill="white"/>
</clipPath>
<clipPath id="clip1_14_2836">
<path d="M0 30L-1.31134e-06 0L30 -1.31134e-06L30 10C30 21.0457 21.0457 30 10 30L0 30Z" fill="white"/>
</clipPath>
</defs>
</svg>
