<svg width="180" height="180" viewBox="0 0 180 180" fill="none" xmlns="http://www.w3.org/2000/svg">
<rect width="180" height="180" rx="20" fill="#F2F2F2"/>
<path d="M25.9983 137V128.6H26.9823L30.7503 134.948H30.2223L33.9423 128.6H34.9263L34.9383 137H33.7863L33.7743 130.412H34.0503L30.7383 135.98H30.1863L26.8503 130.412H27.1503V137H25.9983ZM41.2392 137V135.656L41.1792 135.404V133.112C41.1792 132.624 41.0352 132.248 40.7472 131.984C40.4672 131.712 40.0432 131.576 39.4752 131.576C39.0992 131.576 38.7312 131.64 38.3712 131.768C38.0112 131.888 37.7072 132.052 37.4592 132.26L36.9792 131.396C37.3072 131.132 37.6992 130.932 38.1552 130.796C38.6192 130.652 39.1032 130.58 39.6072 130.58C40.4792 130.58 41.1512 130.792 41.6232 131.216C42.0952 131.64 42.3312 132.288 42.3312 133.16V137H41.2392ZM39.1512 137.072C38.6792 137.072 38.2632 136.992 37.9032 136.832C37.5512 136.672 37.2792 136.452 37.0872 136.172C36.8952 135.884 36.7992 135.56 36.7992 135.2C36.7992 134.856 36.8792 134.544 37.0392 134.264C37.2072 133.984 37.4752 133.76 37.8432 133.592C38.2192 133.424 38.7232 133.34 39.3552 133.34H41.3712V134.168H39.4032C38.8272 134.168 38.4392 134.264 38.2392 134.456C38.0392 134.648 37.9392 134.88 37.9392 135.152C37.9392 135.464 38.0632 135.716 38.3112 135.908C38.5592 136.092 38.9032 136.184 39.3432 136.184C39.7752 136.184 40.1512 136.088 40.4712 135.896C40.7992 135.704 41.0352 135.424 41.1792 135.056L41.4072 135.848C41.2552 136.224 40.9872 136.524 40.6032 136.748C40.2192 136.964 39.7352 137.072 39.1512 137.072ZM45.3991 135.464L45.4231 133.988L49.0831 130.64H50.4751L47.6671 133.4L47.0431 133.928L45.3991 135.464ZM44.4631 137V128.096H45.6151V137H44.4631ZM49.3231 137L46.8271 133.904L47.5711 132.98L50.7391 137H49.3231ZM54.4318 137.072C53.7518 137.072 53.1518 136.932 52.6318 136.652C52.1198 136.372 51.7198 135.988 51.4318 135.5C51.1518 135.012 51.0118 134.452 51.0118 133.82C51.0118 133.188 51.1478 132.628 51.4198 132.14C51.6998 131.652 52.0798 131.272 52.5598 131C53.0478 130.72 53.5958 130.58 54.2038 130.58C54.8198 130.58 55.3638 130.716 55.8358 130.988C56.3078 131.26 56.6758 131.644 56.9398 132.14C57.2118 132.628 57.3478 133.2 57.3478 133.856C57.3478 133.904 57.3438 133.96 57.3358 134.024C57.3358 134.088 57.3318 134.148 57.3238 134.204H51.9118V133.376H56.7238L56.2558 133.664C56.2638 133.256 56.1798 132.892 56.0038 132.572C55.8278 132.252 55.5838 132.004 55.2718 131.828C54.9678 131.644 54.6118 131.552 54.2038 131.552C53.8038 131.552 53.4478 131.644 53.1358 131.828C52.8238 132.004 52.5798 132.256 52.4038 132.584C52.2278 132.904 52.1398 133.272 52.1398 133.688V133.88C52.1398 134.304 52.2358 134.684 52.4278 135.02C52.6278 135.348 52.9038 135.604 53.2558 135.788C53.6078 135.972 54.0118 136.064 54.4678 136.064C54.8438 136.064 55.1838 136 55.4878 135.872C55.7998 135.744 56.0718 135.552 56.3038 135.296L56.9398 136.04C56.6518 136.376 56.2918 136.632 55.8598 136.808C55.4358 136.984 54.9598 137.072 54.4318 137.072ZM66.1181 137V135.656L66.0581 135.404V133.112C66.0581 132.624 65.9141 132.248 65.6261 131.984C65.3461 131.712 64.9221 131.576 64.3541 131.576C63.9781 131.576 63.6101 131.64 63.2501 131.768C62.8901 131.888 62.5861 132.052 62.3381 132.26L61.8581 131.396C62.1861 131.132 62.5781 130.932 63.0341 130.796C63.4981 130.652 63.9821 130.58 64.4861 130.58C65.3581 130.58 66.0301 130.792 66.5021 131.216C66.9741 131.64 67.2101 132.288 67.2101 133.16V137H66.1181ZM64.0301 137.072C63.5581 137.072 63.1421 136.992 62.7821 136.832C62.4301 136.672 62.1581 136.452 61.9661 136.172C61.7741 135.884 61.6781 135.56 61.6781 135.2C61.6781 134.856 61.7581 134.544 61.9181 134.264C62.0861 133.984 62.3541 133.76 62.7221 133.592C63.0981 133.424 63.6021 133.34 64.2341 133.34H66.2501V134.168H64.2821C63.7061 134.168 63.3181 134.264 63.1181 134.456C62.9181 134.648 62.8181 134.88 62.8181 135.152C62.8181 135.464 62.9421 135.716 63.1901 135.908C63.4381 136.092 63.7821 136.184 64.2221 136.184C64.6541 136.184 65.0301 136.088 65.3501 135.896C65.6781 135.704 65.9141 135.424 66.0581 135.056L66.2861 135.848C66.1341 136.224 65.8661 136.524 65.4821 136.748C65.0981 136.964 64.6141 137.072 64.0301 137.072ZM74.3887 137.072C73.8607 137.072 73.3567 137 72.8767 136.856C72.4047 136.712 72.0327 136.536 71.7607 136.328L72.2407 135.416C72.5127 135.6 72.8487 135.756 73.2487 135.884C73.6487 136.012 74.0567 136.076 74.4727 136.076C75.0087 136.076 75.3927 136 75.6247 135.848C75.8647 135.696 75.9847 135.484 75.9847 135.212C75.9847 135.012 75.9127 134.856 75.7687 134.744C75.6247 134.632 75.4327 134.548 75.1927 134.492C74.9607 134.436 74.7007 134.388 74.4127 134.348C74.1247 134.3 73.8367 134.244 73.5487 134.18C73.2607 134.108 72.9967 134.012 72.7567 133.892C72.5167 133.764 72.3247 133.592 72.1807 133.376C72.0367 133.152 71.9647 132.856 71.9647 132.488C71.9647 132.104 72.0727 131.768 72.2887 131.48C72.5047 131.192 72.8087 130.972 73.2007 130.82C73.6007 130.66 74.0727 130.58 74.6167 130.58C75.0327 130.58 75.4527 130.632 75.8767 130.736C76.3087 130.832 76.6607 130.972 76.9327 131.156L76.4407 132.068C76.1527 131.876 75.8527 131.744 75.5407 131.672C75.2287 131.6 74.9167 131.564 74.6047 131.564C74.1007 131.564 73.7247 131.648 73.4767 131.816C73.2287 131.976 73.1047 132.184 73.1047 132.44C73.1047 132.656 73.1767 132.824 73.3207 132.944C73.4727 133.056 73.6647 133.144 73.8967 133.208C74.1367 133.272 74.4007 133.328 74.6887 133.376C74.9767 133.416 75.2647 133.472 75.5527 133.544C75.8407 133.608 76.1007 133.7 76.3327 133.82C76.5727 133.94 76.7647 134.108 76.9087 134.324C77.0607 134.54 77.1367 134.828 77.1367 135.188C77.1367 135.572 77.0247 135.904 76.8007 136.184C76.5767 136.464 76.2607 136.684 75.8527 136.844C75.4447 136.996 74.9567 137.072 74.3887 137.072ZM81.2044 137.072C80.5884 137.072 80.0364 136.936 79.5484 136.664C79.0684 136.392 78.6884 136.012 78.4084 135.524C78.1284 135.036 77.9884 134.468 77.9884 133.82C77.9884 133.172 78.1284 132.608 78.4084 132.128C78.6884 131.64 79.0684 131.26 79.5484 130.988C80.0364 130.716 80.5884 130.58 81.2044 130.58C81.7564 130.58 82.2484 130.7 82.6804 130.94C83.1124 131.18 83.4524 131.54 83.7004 132.02C83.9564 132.5 84.0844 133.1 84.0844 133.82C84.0844 134.54 83.9524 135.14 83.6884 135.62C83.4324 136.1 83.0884 136.464 82.6564 136.712C82.2244 136.952 81.7404 137.072 81.2044 137.072ZM81.3004 136.064C81.7004 136.064 82.0604 135.972 82.3804 135.788C82.7084 135.604 82.9644 135.344 83.1484 135.008C83.3404 134.664 83.4364 134.268 83.4364 133.82C83.4364 133.364 83.3404 132.972 83.1484 132.644C82.9644 132.308 82.7084 132.048 82.3804 131.864C82.0604 131.68 81.7004 131.588 81.3004 131.588C80.8924 131.588 80.5284 131.68 80.2084 131.864C79.8884 132.048 79.6324 132.308 79.4404 132.644C79.2484 132.972 79.1524 133.364 79.1524 133.82C79.1524 134.268 79.2484 134.664 79.4404 135.008C79.6324 135.344 79.8884 135.604 80.2084 135.788C80.5284 135.972 80.8924 136.064 81.3004 136.064ZM83.4244 139.328V135.308L83.5444 133.832L83.4724 132.356V130.64H84.5764V139.328H83.4244ZM89.4321 137.072C88.8881 137.072 88.4081 136.972 87.9921 136.772C87.5841 136.572 87.2641 136.268 87.0321 135.86C86.8081 135.444 86.6961 134.924 86.6961 134.3V130.64H87.8481V134.168C87.8481 134.792 87.9961 135.26 88.2921 135.572C88.5961 135.884 89.0201 136.04 89.5641 136.04C89.9641 136.04 90.3121 135.96 90.6081 135.8C90.9041 135.632 91.1321 135.392 91.2921 135.08C91.4521 134.76 91.5321 134.376 91.5321 133.928V130.64H92.6841V137H91.5921V135.284L91.7721 135.74C91.5641 136.164 91.2521 136.492 90.8361 136.724C90.4201 136.956 89.9521 137.072 89.4321 137.072ZM98.8252 137V135.656L98.7652 135.404V133.112C98.7652 132.624 98.6212 132.248 98.3332 131.984C98.0532 131.712 97.6292 131.576 97.0612 131.576C96.6852 131.576 96.3172 131.64 95.9572 131.768C95.5972 131.888 95.2932 132.052 95.0452 132.26L94.5652 131.396C94.8932 131.132 95.2852 130.932 95.7412 130.796C96.2052 130.652 96.6892 130.58 97.1932 130.58C98.0652 130.58 98.7372 130.792 99.2092 131.216C99.6812 131.64 99.9172 132.288 99.9172 133.16V137H98.8252ZM96.7372 137.072C96.2652 137.072 95.8492 136.992 95.4892 136.832C95.1372 136.672 94.8652 136.452 94.6732 136.172C94.4812 135.884 94.3852 135.56 94.3852 135.2C94.3852 134.856 94.4652 134.544 94.6252 134.264C94.7932 133.984 95.0612 133.76 95.4292 133.592C95.8052 133.424 96.3092 133.34 96.9412 133.34H98.9572V134.168H96.9892C96.4132 134.168 96.0252 134.264 95.8252 134.456C95.6252 134.648 95.5252 134.88 95.5252 135.152C95.5252 135.464 95.6492 135.716 95.8972 135.908C96.1452 136.092 96.4892 136.184 96.9292 136.184C97.3612 136.184 97.7372 136.088 98.0572 135.896C98.3852 135.704 98.6212 135.424 98.7652 135.056L98.9932 135.848C98.8412 136.224 98.5732 136.524 98.1892 136.748C97.8052 136.964 97.3212 137.072 96.7372 137.072ZM102.049 137V130.64H103.153V132.368L103.045 131.936C103.221 131.496 103.517 131.16 103.933 130.928C104.349 130.696 104.861 130.58 105.469 130.58V131.696C105.421 131.688 105.373 131.684 105.325 131.684C105.285 131.684 105.245 131.684 105.205 131.684C104.589 131.684 104.101 131.868 103.741 132.236C103.381 132.604 103.201 133.136 103.201 133.832V137H102.049ZM109.662 137.072C108.982 137.072 108.382 136.932 107.862 136.652C107.35 136.372 106.95 135.988 106.662 135.5C106.382 135.012 106.242 134.452 106.242 133.82C106.242 133.188 106.378 132.628 106.65 132.14C106.93 131.652 107.31 131.272 107.79 131C108.278 130.72 108.826 130.58 109.434 130.58C110.05 130.58 110.594 130.716 111.066 130.988C111.538 131.26 111.906 131.644 112.17 132.14C112.442 132.628 112.578 133.2 112.578 133.856C112.578 133.904 112.574 133.96 112.566 134.024C112.566 134.088 112.562 134.148 112.554 134.204H107.142V133.376H111.954L111.486 133.664C111.494 133.256 111.41 132.892 111.234 132.572C111.058 132.252 110.814 132.004 110.502 131.828C110.198 131.644 109.842 131.552 109.434 131.552C109.034 131.552 108.678 131.644 108.366 131.828C108.054 132.004 107.81 132.256 107.634 132.584C107.458 132.904 107.37 133.272 107.37 133.688V133.88C107.37 134.304 107.466 134.684 107.658 135.02C107.858 135.348 108.134 135.604 108.486 135.788C108.838 135.972 109.242 136.064 109.698 136.064C110.074 136.064 110.414 136 110.718 135.872C111.03 135.744 111.302 135.552 111.534 135.296L112.17 136.04C111.882 136.376 111.522 136.632 111.09 136.808C110.666 136.984 110.19 137.072 109.662 137.072ZM120.173 137.072C119.525 137.072 118.945 136.932 118.433 136.652C117.929 136.372 117.533 135.988 117.245 135.5C116.957 135.012 116.813 134.452 116.813 133.82C116.813 133.188 116.957 132.628 117.245 132.14C117.533 131.652 117.929 131.272 118.433 131C118.945 130.72 119.525 130.58 120.173 130.58C120.749 130.58 121.261 130.696 121.709 130.928C122.165 131.152 122.517 131.488 122.765 131.936L121.889 132.5C121.681 132.188 121.425 131.96 121.121 131.816C120.825 131.664 120.505 131.588 120.161 131.588C119.745 131.588 119.373 131.68 119.045 131.864C118.717 132.048 118.457 132.308 118.265 132.644C118.073 132.972 117.977 133.364 117.977 133.82C117.977 134.276 118.073 134.672 118.265 135.008C118.457 135.344 118.717 135.604 119.045 135.788C119.373 135.972 119.745 136.064 120.161 136.064C120.505 136.064 120.825 135.992 121.121 135.848C121.425 135.696 121.681 135.464 121.889 135.152L122.765 135.704C122.517 136.144 122.165 136.484 121.709 136.724C121.261 136.956 120.749 137.072 120.173 137.072ZM126.932 137.072C126.388 137.072 125.908 136.972 125.492 136.772C125.084 136.572 124.764 136.268 124.532 135.86C124.308 135.444 124.196 134.924 124.196 134.3V130.64H125.348V134.168C125.348 134.792 125.496 135.26 125.792 135.572C126.096 135.884 126.52 136.04 127.064 136.04C127.464 136.04 127.812 135.96 128.108 135.8C128.404 135.632 128.632 135.392 128.792 135.08C128.952 134.76 129.032 134.376 129.032 133.928V130.64H130.184V137H129.092V135.284L129.272 135.74C129.064 136.164 128.752 136.492 128.336 136.724C127.92 136.956 127.452 137.072 126.932 137.072ZM134.561 137.072C133.921 137.072 133.425 136.9 133.073 136.556C132.721 136.212 132.545 135.72 132.545 135.08V129.248H133.697V135.032C133.697 135.376 133.781 135.64 133.949 135.824C134.125 136.008 134.373 136.1 134.693 136.1C135.053 136.1 135.353 136 135.593 135.8L135.953 136.628C135.777 136.78 135.565 136.892 135.317 136.964C135.077 137.036 134.825 137.072 134.561 137.072ZM131.465 131.588V130.64H135.521V131.588H131.465ZM143.293 137.072C142.653 137.072 142.085 136.932 141.589 136.652C141.093 136.372 140.701 135.988 140.413 135.5C140.125 135.004 139.981 134.444 139.981 133.82C139.981 133.188 140.125 132.628 140.413 132.14C140.701 131.652 141.093 131.272 141.589 131C142.085 130.72 142.653 130.58 143.293 130.58C143.925 130.58 144.489 130.72 144.985 131C145.489 131.272 145.881 131.652 146.161 132.14C146.449 132.62 146.593 133.18 146.593 133.82C146.593 134.452 146.449 135.012 146.161 135.5C145.881 135.988 145.489 136.372 144.985 136.652C144.489 136.932 143.925 137.072 143.293 137.072ZM143.293 136.064C143.701 136.064 144.065 135.972 144.385 135.788C144.713 135.604 144.969 135.344 145.153 135.008C145.337 134.664 145.429 134.268 145.429 133.82C145.429 133.364 145.337 132.972 145.153 132.644C144.969 132.308 144.713 132.048 144.385 131.864C144.065 131.68 143.701 131.588 143.293 131.588C142.885 131.588 142.521 131.68 142.201 131.864C141.881 132.048 141.625 132.308 141.433 132.644C141.241 132.972 141.145 133.364 141.145 133.82C141.145 134.268 141.241 134.664 141.433 135.008C141.625 135.344 141.881 135.604 142.201 135.788C142.521 135.972 142.885 136.064 143.293 136.064ZM151.582 130.58C152.102 130.58 152.558 130.68 152.95 130.88C153.35 131.08 153.662 131.384 153.886 131.792C154.11 132.2 154.222 132.716 154.222 133.34V137H153.07V133.472C153.07 132.856 152.918 132.392 152.614 132.08C152.318 131.768 151.898 131.612 151.354 131.612C150.946 131.612 150.59 131.692 150.286 131.852C149.982 132.012 149.746 132.248 149.578 132.56C149.418 132.872 149.338 133.26 149.338 133.724V137H148.186V130.64H149.29V132.356L149.11 131.9C149.318 131.484 149.638 131.16 150.07 130.928C150.502 130.696 151.006 130.58 151.582 130.58ZM43.1725 152.072C42.5325 152.072 42.0365 151.9 41.6845 151.556C41.3325 151.212 41.1565 150.72 41.1565 150.08V144.248H42.3085V150.032C42.3085 150.376 42.3925 150.64 42.5605 150.824C42.7365 151.008 42.9845 151.1 43.3045 151.1C43.6645 151.1 43.9645 151 44.2045 150.8L44.5645 151.628C44.3885 151.78 44.1765 151.892 43.9285 151.964C43.6885 152.036 43.4365 152.072 43.1725 152.072ZM40.0765 146.588V145.64H44.1325V146.588H40.0765ZM49.3532 145.58C49.8732 145.58 50.3292 145.68 50.7212 145.88C51.1212 146.08 51.4332 146.384 51.6572 146.792C51.8812 147.2 51.9932 147.716 51.9932 148.34V152H50.8412V148.472C50.8412 147.856 50.6892 147.392 50.3852 147.08C50.0892 146.768 49.6692 146.612 49.1252 146.612C48.7172 146.612 48.3612 146.692 48.0572 146.852C47.7532 147.012 47.5172 147.248 47.3492 147.56C47.1892 147.872 47.1092 148.26 47.1092 148.724V152H45.9572V143.096H47.1092V147.356L46.8812 146.9C47.0892 146.484 47.4092 146.16 47.8412 145.928C48.2732 145.696 48.7772 145.58 49.3532 145.58ZM56.9572 152.072C56.2772 152.072 55.6772 151.932 55.1572 151.652C54.6452 151.372 54.2452 150.988 53.9572 150.5C53.6772 150.012 53.5372 149.452 53.5372 148.82C53.5372 148.188 53.6732 147.628 53.9452 147.14C54.2252 146.652 54.6052 146.272 55.0852 146C55.5732 145.72 56.1212 145.58 56.7292 145.58C57.3452 145.58 57.8892 145.716 58.3612 145.988C58.8332 146.26 59.2012 146.644 59.4652 147.14C59.7372 147.628 59.8732 148.2 59.8732 148.856C59.8732 148.904 59.8692 148.96 59.8612 149.024C59.8612 149.088 59.8572 149.148 59.8492 149.204H54.4372V148.376H59.2492L58.7812 148.664C58.7892 148.256 58.7052 147.892 58.5292 147.572C58.3532 147.252 58.1092 147.004 57.7972 146.828C57.4932 146.644 57.1372 146.552 56.7292 146.552C56.3292 146.552 55.9732 146.644 55.6612 146.828C55.3492 147.004 55.1052 147.256 54.9292 147.584C54.7532 147.904 54.6652 148.272 54.6652 148.688V148.88C54.6652 149.304 54.7612 149.684 54.9532 150.02C55.1532 150.348 55.4292 150.604 55.7812 150.788C56.1332 150.972 56.5372 151.064 56.9932 151.064C57.3692 151.064 57.7092 151 58.0132 150.872C58.3252 150.744 58.5972 150.552 58.8292 150.296L59.4652 151.04C59.1772 151.376 58.8172 151.632 58.3852 151.808C57.9612 151.984 57.4852 152.072 56.9572 152.072ZM68.0675 152.072C67.5235 152.072 67.0315 151.952 66.5915 151.712C66.1595 151.464 65.8155 151.1 65.5595 150.62C65.3115 150.14 65.1875 149.54 65.1875 148.82C65.1875 148.1 65.3155 147.5 65.5715 147.02C65.8355 146.54 66.1835 146.18 66.6155 145.94C67.0555 145.7 67.5395 145.58 68.0675 145.58C68.6915 145.58 69.2435 145.716 69.7235 145.988C70.2035 146.26 70.5835 146.64 70.8635 147.128C71.1435 147.608 71.2835 148.172 71.2835 148.82C71.2835 149.468 71.1435 150.036 70.8635 150.524C70.5835 151.012 70.2035 151.392 69.7235 151.664C69.2435 151.936 68.6915 152.072 68.0675 152.072ZM64.6955 152V143.096H65.8475V147.332L65.7275 148.808L65.7995 150.284V152H64.6955ZM67.9715 151.064C68.3795 151.064 68.7435 150.972 69.0635 150.788C69.3915 150.604 69.6475 150.344 69.8315 150.008C70.0235 149.664 70.1195 149.268 70.1195 148.82C70.1195 148.364 70.0235 147.972 69.8315 147.644C69.6475 147.308 69.3915 147.048 69.0635 146.864C68.7435 146.68 68.3795 146.588 67.9715 146.588C67.5715 146.588 67.2075 146.68 66.8795 146.864C66.5595 147.048 66.3035 147.308 66.1115 147.644C65.9275 147.972 65.8355 148.364 65.8355 148.82C65.8355 149.268 65.9275 149.664 66.1115 150.008C66.3035 150.344 66.5595 150.604 66.8795 150.788C67.2075 150.972 67.5715 151.064 67.9715 151.064ZM75.5992 152.072C74.9592 152.072 74.3912 151.932 73.8952 151.652C73.3992 151.372 73.0072 150.988 72.7192 150.5C72.4312 150.004 72.2872 149.444 72.2872 148.82C72.2872 148.188 72.4312 147.628 72.7192 147.14C73.0072 146.652 73.3992 146.272 73.8952 146C74.3912 145.72 74.9592 145.58 75.5992 145.58C76.2312 145.58 76.7952 145.72 77.2912 146C77.7952 146.272 78.1872 146.652 78.4672 147.14C78.7552 147.62 78.8992 148.18 78.8992 148.82C78.8992 149.452 78.7552 150.012 78.4672 150.5C78.1872 150.988 77.7952 151.372 77.2912 151.652C76.7952 151.932 76.2312 152.072 75.5992 152.072ZM75.5992 151.064C76.0072 151.064 76.3712 150.972 76.6912 150.788C77.0192 150.604 77.2752 150.344 77.4592 150.008C77.6432 149.664 77.7352 149.268 77.7352 148.82C77.7352 148.364 77.6432 147.972 77.4592 147.644C77.2752 147.308 77.0192 147.048 76.6912 146.864C76.3712 146.68 76.0072 146.588 75.5992 146.588C75.1912 146.588 74.8272 146.68 74.5072 146.864C74.1872 147.048 73.9312 147.308 73.7392 147.644C73.5472 147.972 73.4512 148.364 73.4512 148.82C73.4512 149.268 73.5472 149.664 73.7392 150.008C73.9312 150.344 74.1872 150.604 74.5072 150.788C74.8272 150.972 75.1912 151.064 75.5992 151.064ZM82.6764 152.072C82.0364 152.072 81.5404 151.9 81.1884 151.556C80.8364 151.212 80.6604 150.72 80.6604 150.08V144.248H81.8124V150.032C81.8124 150.376 81.8964 150.64 82.0644 150.824C82.2404 151.008 82.4884 151.1 82.8084 151.1C83.1684 151.1 83.4684 151 83.7084 150.8L84.0684 151.628C83.8924 151.78 83.6804 151.892 83.4324 151.964C83.1924 152.036 82.9404 152.072 82.6764 152.072ZM79.5804 146.588V145.64H83.6364V146.588H79.5804ZM87.4928 152.072C86.8528 152.072 86.3568 151.9 86.0048 151.556C85.6528 151.212 85.4768 150.72 85.4768 150.08V144.248H86.6288V150.032C86.6288 150.376 86.7128 150.64 86.8808 150.824C87.0568 151.008 87.3048 151.1 87.6248 151.1C87.9848 151.1 88.2848 151 88.5248 150.8L88.8848 151.628C88.7088 151.78 88.4968 151.892 88.2488 151.964C88.0088 152.036 87.7568 152.072 87.4928 152.072ZM84.3968 146.588V145.64H88.4528V146.588H84.3968ZM92.7906 152.072C92.1506 152.072 91.5826 151.932 91.0866 151.652C90.5906 151.372 90.1986 150.988 89.9106 150.5C89.6226 150.004 89.4786 149.444 89.4786 148.82C89.4786 148.188 89.6226 147.628 89.9106 147.14C90.1986 146.652 90.5906 146.272 91.0866 146C91.5826 145.72 92.1506 145.58 92.7906 145.58C93.4226 145.58 93.9866 145.72 94.4826 146C94.9866 146.272 95.3786 146.652 95.6586 147.14C95.9466 147.62 96.0906 148.18 96.0906 148.82C96.0906 149.452 95.9466 150.012 95.6586 150.5C95.3786 150.988 94.9866 151.372 94.4826 151.652C93.9866 151.932 93.4226 152.072 92.7906 152.072ZM92.7906 151.064C93.1986 151.064 93.5626 150.972 93.8826 150.788C94.2106 150.604 94.4666 150.344 94.6506 150.008C94.8346 149.664 94.9266 149.268 94.9266 148.82C94.9266 148.364 94.8346 147.972 94.6506 147.644C94.4666 147.308 94.2106 147.048 93.8826 146.864C93.5626 146.68 93.1986 146.588 92.7906 146.588C92.3826 146.588 92.0186 146.68 91.6986 146.864C91.3786 147.048 91.1226 147.308 90.9306 147.644C90.7386 147.972 90.6426 148.364 90.6426 148.82C90.6426 149.268 90.7386 149.664 90.9306 150.008C91.1226 150.344 91.3786 150.604 91.6986 150.788C92.0186 150.972 92.3826 151.064 92.7906 151.064ZM105.64 145.58C106.152 145.58 106.604 145.68 106.996 145.88C107.388 146.08 107.692 146.384 107.908 146.792C108.132 147.2 108.244 147.716 108.244 148.34V152H107.092V148.472C107.092 147.856 106.948 147.392 106.66 147.08C106.372 146.768 105.968 146.612 105.448 146.612C105.064 146.612 104.728 146.692 104.44 146.852C104.152 147.012 103.928 147.248 103.768 147.56C103.616 147.872 103.54 148.26 103.54 148.724V152H102.388V148.472C102.388 147.856 102.244 147.392 101.956 147.08C101.676 146.768 101.272 146.612 100.744 146.612C100.368 146.612 100.036 146.692 99.7478 146.852C99.4598 147.012 99.2358 147.248 99.0758 147.56C98.9158 147.872 98.8358 148.26 98.8358 148.724V152H97.6838V145.64H98.7878V147.332L98.6078 146.9C98.8078 146.484 99.1158 146.16 99.5318 145.928C99.9478 145.696 100.432 145.58 100.984 145.58C101.592 145.58 102.116 145.732 102.556 146.036C102.996 146.332 103.284 146.784 103.42 147.392L102.952 147.2C103.144 146.712 103.48 146.32 103.96 146.024C104.44 145.728 105 145.58 105.64 145.58ZM115.41 152.072C114.882 152.072 114.378 152 113.898 151.856C113.426 151.712 113.054 151.536 112.782 151.328L113.262 150.416C113.534 150.6 113.87 150.756 114.27 150.884C114.67 151.012 115.078 151.076 115.494 151.076C116.03 151.076 116.414 151 116.646 150.848C116.886 150.696 117.006 150.484 117.006 150.212C117.006 150.012 116.934 149.856 116.79 149.744C116.646 149.632 116.454 149.548 116.214 149.492C115.982 149.436 115.722 149.388 115.434 149.348C115.146 149.3 114.858 149.244 114.57 149.18C114.282 149.108 114.018 149.012 113.778 148.892C113.538 148.764 113.346 148.592 113.202 148.376C113.058 148.152 112.986 147.856 112.986 147.488C112.986 147.104 113.094 146.768 113.31 146.48C113.526 146.192 113.83 145.972 114.222 145.82C114.622 145.66 115.094 145.58 115.638 145.58C116.054 145.58 116.474 145.632 116.898 145.736C117.33 145.832 117.682 145.972 117.954 146.156L117.462 147.068C117.174 146.876 116.874 146.744 116.562 146.672C116.25 146.6 115.938 146.564 115.626 146.564C115.122 146.564 114.746 146.648 114.498 146.816C114.25 146.976 114.126 147.184 114.126 147.44C114.126 147.656 114.198 147.824 114.342 147.944C114.494 148.056 114.686 148.144 114.918 148.208C115.158 148.272 115.422 148.328 115.71 148.376C115.998 148.416 116.286 148.472 116.574 148.544C116.862 148.608 117.122 148.7 117.354 148.82C117.594 148.94 117.786 149.108 117.93 149.324C118.082 149.54 118.158 149.828 118.158 150.188C118.158 150.572 118.046 150.904 117.822 151.184C117.598 151.464 117.282 151.684 116.874 151.844C116.466 151.996 115.978 152.072 115.41 152.072ZM119.598 152V145.64H120.75V152H119.598ZM120.174 144.416C119.95 144.416 119.762 144.344 119.61 144.2C119.466 144.056 119.394 143.88 119.394 143.672C119.394 143.456 119.466 143.276 119.61 143.132C119.762 142.988 119.95 142.916 120.174 142.916C120.398 142.916 120.582 142.988 120.726 143.132C120.878 143.268 120.954 143.44 120.954 143.648C120.954 143.864 120.882 144.048 120.738 144.2C120.594 144.344 120.406 144.416 120.174 144.416ZM125.577 152.072C124.961 152.072 124.409 151.936 123.921 151.664C123.441 151.392 123.061 151.012 122.781 150.524C122.501 150.036 122.361 149.468 122.361 148.82C122.361 148.172 122.501 147.608 122.781 147.128C123.061 146.64 123.441 146.26 123.921 145.988C124.409 145.716 124.961 145.58 125.577 145.58C126.113 145.58 126.597 145.7 127.029 145.94C127.461 146.18 127.805 146.54 128.061 147.02C128.325 147.5 128.457 148.1 128.457 148.82C128.457 149.54 128.329 150.14 128.073 150.62C127.825 151.1 127.485 151.464 127.053 151.712C126.621 151.952 126.129 152.072 125.577 152.072ZM125.673 151.064C126.073 151.064 126.433 150.972 126.753 150.788C127.081 150.604 127.337 150.344 127.521 150.008C127.713 149.664 127.809 149.268 127.809 148.82C127.809 148.364 127.713 147.972 127.521 147.644C127.337 147.308 127.081 147.048 126.753 146.864C126.433 146.68 126.073 146.588 125.673 146.588C125.265 146.588 124.901 146.68 124.581 146.864C124.261 147.048 124.005 147.308 123.813 147.644C123.621 147.972 123.525 148.364 123.525 148.82C123.525 149.268 123.621 149.664 123.813 150.008C124.005 150.344 124.261 150.604 124.581 150.788C124.901 150.972 125.265 151.064 125.673 151.064ZM127.845 152V150.284L127.917 148.808L127.797 147.332V143.096H128.949V152H127.845ZM133.961 152.072C133.281 152.072 132.681 151.932 132.161 151.652C131.649 151.372 131.249 150.988 130.961 150.5C130.681 150.012 130.541 149.452 130.541 148.82C130.541 148.188 130.677 147.628 130.949 147.14C131.229 146.652 131.609 146.272 132.089 146C132.577 145.72 133.125 145.58 133.733 145.58C134.349 145.58 134.893 145.716 135.365 145.988C135.837 146.26 136.205 146.644 136.469 147.14C136.741 147.628 136.877 148.2 136.877 148.856C136.877 148.904 136.873 148.96 136.865 149.024C136.865 149.088 136.861 149.148 136.853 149.204H131.441V148.376H136.253L135.785 148.664C135.793 148.256 135.709 147.892 135.533 147.572C135.357 147.252 135.113 147.004 134.801 146.828C134.497 146.644 134.141 146.552 133.733 146.552C133.333 146.552 132.977 146.644 132.665 146.828C132.353 147.004 132.109 147.256 131.933 147.584C131.757 147.904 131.669 148.272 131.669 148.688V148.88C131.669 149.304 131.765 149.684 131.957 150.02C132.157 150.348 132.433 150.604 132.785 150.788C133.137 150.972 133.541 151.064 133.997 151.064C134.373 151.064 134.713 151 135.017 150.872C135.329 150.744 135.601 150.552 135.833 150.296L136.469 151.04C136.181 151.376 135.821 151.632 135.389 151.808C134.965 151.984 134.489 152.072 133.961 152.072ZM138.753 152.072C138.529 152.072 138.337 151.996 138.177 151.844C138.017 151.684 137.937 151.484 137.937 151.244C137.937 151.004 138.017 150.808 138.177 150.656C138.337 150.504 138.529 150.428 138.753 150.428C138.969 150.428 139.153 150.504 139.305 150.656C139.465 150.808 139.545 151.004 139.545 151.244C139.545 151.484 139.465 151.684 139.305 151.844C139.153 151.996 138.969 152.072 138.753 152.072Z" fill="#008E86"/>
<path d="M64.8101 75.5956L70.5979 37.3961L114.971 99.1328L73.2989 97.9752L64.8101 75.5956Z" fill="#008E86" stroke="#00635D" stroke-width="2" stroke-linejoin="round"/>
<path d="M69.8262 36.6248L87.1896 18.8755L91.0482 24.2775L70.212 77.5254L69.8262 36.6248Z" fill="#00D8CC" stroke="#00635D" stroke-width="2" stroke-linejoin="round"/>
<path d="M113.813 97.9746L106.096 85.2414L125.003 92.1868L113.813 97.9746Z" fill="#00D8CC" stroke="#00635D" stroke-width="2" stroke-linejoin="round"/>
<path d="M82.1734 10.0007L89.8905 14.2451L91.0481 24.2773L80.2441 11.93L82.1734 10.0007Z" fill="#00D8CC" stroke="#00635D" stroke-width="2" stroke-linejoin="round"/>
<path d="M70.2119 77.5239L82.1734 48.5848L119.601 84.4693L115.743 99.5176L79.0866 99.5176L70.2119 77.5239Z" fill="#00D8CC" stroke="#00635D" stroke-width="2" stroke-linejoin="round"/>
<path d="M101.853 99.5175L101.852 90.2571L85.2611 86.7843L84.8752 99.1315" stroke="#00635D" stroke-width="2" stroke-dasharray="2 2"/>
<path fill-rule="evenodd" clip-rule="evenodd" d="M81.725 99.8234C82.5088 101.703 83.7347 103.484 84.987 104.801L83.9041 106.598C83.4494 105.702 82.5528 105.115 81.5497 105.058C80.547 105 79.589 105.479 79.034 106.316L77.4452 108.715C76.9072 109.556 76.8532 110.619 77.303 111.51C77.7524 112.402 78.6392 112.99 79.6351 113.057C80.6316 113.125 81.5895 112.661 82.1549 111.838L83.7437 109.439L83.7547 109.421L85.4813 106.558L85.9833 109.498C85.9912 109.543 86.0036 109.587 86.0202 109.63C86.0289 109.709 86.0429 109.793 86.0557 109.868L86.6248 112.688C86.7628 113.433 87.1941 114.092 87.8218 114.516C88.4499 114.94 89.2219 115.094 89.9643 114.944C90.7071 114.794 91.358 114.351 91.7716 113.716C92.1852 113.082 92.3265 112.307 92.1641 111.567L91.5949 108.747C91.4634 108.093 91.1049 107.506 90.5822 107.092C90.0595 106.677 89.4064 106.461 88.7401 106.483C88.0732 106.504 87.4357 106.761 86.9405 107.208L86.5829 105.064C87.3943 104.688 88.1748 104.248 88.9165 103.747C91.0819 102.29 93.0793 100.233 93.7584 97.9837C94.2567 96.3206 94.0126 94.7388 93.0322 93.2825C93.027 93.2889 93.0236 93.2839 93.0236 93.2839C93.0085 93.2631 92.9923 93.2435 92.9747 93.2244C92.9639 93.2084 92.9532 93.1924 92.9373 93.1822C92.9276 93.1758 92.9181 93.1678 92.9089 93.1601C92.903 93.1551 92.8971 93.1502 92.8914 93.1458C92.8721 93.1296 92.8519 93.1146 92.8311 93.1006L92.8253 93.092C92.8206 93.0849 92.8108 93.0821 92.8008 93.0792C92.795 93.0775 92.7891 93.0758 92.7841 93.0732C92.7621 93.0618 92.7396 93.0513 92.7168 93.0423C92.7036 93.0368 92.6901 93.0332 92.6765 93.0296C92.6698 93.0278 92.663 93.0261 92.6562 93.024C92.6361 93.0179 92.6147 93.0127 92.592 93.0083C92.5694 93.0038 92.5492 93.0031 92.529 93.0024C92.5228 93.0022 92.5163 93.0018 92.5096 93.0014C92.4947 93.0005 92.4788 92.9996 92.4632 93.0002C92.4451 93.0009 92.4302 93.003 92.4149 93.0051C92.411 93.0056 92.4072 93.0061 92.4032 93.0066C92.3807 93.0087 92.3593 93.0123 92.3367 93.0168C92.326 93.0241 92.3122 93.0269 92.2985 93.0296C92.2919 93.0309 92.2854 93.0323 92.2792 93.0341C92.2577 93.0402 92.236 93.0477 92.2152 93.0558C92.1949 93.0682 92.1752 93.0814 92.1565 93.0952L92.1171 93.1217L92.1073 93.1284C92.0867 93.1411 92.0666 93.1546 92.0474 93.1687C92.0302 93.1803 92.013 93.1919 92.0024 93.2097C91.9937 93.2241 91.9836 93.2348 91.9738 93.2454C91.9711 93.2482 91.9685 93.251 91.966 93.2539C91.9493 93.2734 91.9339 93.2939 91.9197 93.3154L91.9111 93.3212L86.1945 102.808L85.6858 99.8234H84.3431L84.8015 102.51C84.1818 101.682 83.6205 100.764 83.1792 99.8234H81.725ZM78.9858 111.498C79.6629 111.947 80.5746 111.774 81.0403 111.108L82.6203 108.722L82.6767 108.629C83.0842 107.929 82.8598 107.031 82.1712 106.605C81.4824 106.178 80.5794 106.378 80.1341 107.055L78.5453 109.454C78.1131 110.142 78.3088 111.049 78.9858 111.498ZM89.3914 107.918C88.9297 107.728 88.4048 107.781 87.9902 108.058L87.9956 108.062C87.4926 108.397 87.2402 109.002 87.3557 109.596L87.9248 112.417C87.995 112.814 88.2226 113.166 88.5561 113.393C88.8893 113.62 89.3005 113.703 89.6959 113.623C90.0915 113.543 90.4376 113.307 90.6565 112.968C90.8752 112.629 90.9484 112.216 90.8586 111.823L90.2894 109.002C90.1896 108.514 89.8527 108.107 89.3914 107.918ZM87.5949 103.031C90.3102 101.404 91.9973 99.2113 92.4774 97.6086L92.4828 97.6122C92.7507 96.7638 92.7314 95.8507 92.4256 95.0149L87.5949 103.031Z" fill="black"/>
</svg>
