<svg width="180" height="180" viewBox="0 0 180 180" fill="none" xmlns="http://www.w3.org/2000/svg">
<rect width="180" height="180" rx="20" fill="#F2F2F2"/>
<path d="M37.7599 124.572H42.0919V125.604H37.7599V124.572ZM37.8799 129H36.6799V120.6H42.6079V121.644H37.8799V129ZM46.6539 129.072C46.0139 129.072 45.4459 128.932 44.9499 128.652C44.4539 128.372 44.0619 127.988 43.7739 127.5C43.4859 127.004 43.3419 126.444 43.3419 125.82C43.3419 125.188 43.4859 124.628 43.7739 124.14C44.0619 123.652 44.4539 123.272 44.9499 123C45.4459 122.72 46.0139 122.58 46.6539 122.58C47.2859 122.58 47.8499 122.72 48.3459 123C48.8499 123.272 49.2419 123.652 49.5219 124.14C49.8099 124.62 49.9539 125.18 49.9539 125.82C49.9539 126.452 49.8099 127.012 49.5219 127.5C49.2419 127.988 48.8499 128.372 48.3459 128.652C47.8499 128.932 47.2859 129.072 46.6539 129.072ZM46.6539 128.064C47.0619 128.064 47.4259 127.972 47.7459 127.788C48.0739 127.604 48.3299 127.344 48.5139 127.008C48.6979 126.664 48.7899 126.268 48.7899 125.82C48.7899 125.364 48.6979 124.972 48.5139 124.644C48.3299 124.308 48.0739 124.048 47.7459 123.864C47.4259 123.68 47.0619 123.588 46.6539 123.588C46.2459 123.588 45.8819 123.68 45.5619 123.864C45.2419 124.048 44.9859 124.308 44.7939 124.644C44.6019 124.972 44.5059 125.364 44.5059 125.82C44.5059 126.268 44.6019 126.664 44.7939 127.008C44.9859 127.344 45.2419 127.604 45.5619 127.788C45.8819 127.972 46.2459 128.064 46.6539 128.064ZM51.5471 129V120.096H52.6991V129H51.5471ZM57.5266 129.072C56.9106 129.072 56.3586 128.936 55.8706 128.664C55.3906 128.392 55.0106 128.012 54.7306 127.524C54.4506 127.036 54.3106 126.468 54.3106 125.82C54.3106 125.172 54.4506 124.608 54.7306 124.128C55.0106 123.64 55.3906 123.26 55.8706 122.988C56.3586 122.716 56.9106 122.58 57.5266 122.58C58.0626 122.58 58.5466 122.7 58.9786 122.94C59.4106 123.18 59.7546 123.54 60.0106 124.02C60.2746 124.5 60.4066 125.1 60.4066 125.82C60.4066 126.54 60.2786 127.14 60.0226 127.62C59.7746 128.1 59.4346 128.464 59.0026 128.712C58.5706 128.952 58.0786 129.072 57.5266 129.072ZM57.6226 128.064C58.0226 128.064 58.3826 127.972 58.7026 127.788C59.0306 127.604 59.2866 127.344 59.4706 127.008C59.6626 126.664 59.7586 126.268 59.7586 125.82C59.7586 125.364 59.6626 124.972 59.4706 124.644C59.2866 124.308 59.0306 124.048 58.7026 123.864C58.3826 123.68 58.0226 123.588 57.6226 123.588C57.2146 123.588 56.8506 123.68 56.5306 123.864C56.2106 124.048 55.9546 124.308 55.7626 124.644C55.5706 124.972 55.4746 125.364 55.4746 125.82C55.4746 126.268 55.5706 126.664 55.7626 127.008C55.9546 127.344 56.2106 127.604 56.5306 127.788C56.8506 127.972 57.2146 128.064 57.6226 128.064ZM59.7946 129V127.284L59.8666 125.808L59.7466 124.332V120.096H60.8986V129H59.7946ZM68.485 129.072C67.845 129.072 67.349 128.9 66.997 128.556C66.645 128.212 66.469 127.72 66.469 127.08V121.248H67.621V127.032C67.621 127.376 67.705 127.64 67.873 127.824C68.049 128.008 68.297 128.1 68.617 128.1C68.977 128.1 69.277 128 69.517 127.8L69.877 128.628C69.701 128.78 69.489 128.892 69.241 128.964C69.001 129.036 68.749 129.072 68.485 129.072ZM65.389 123.588V122.64H69.445V123.588H65.389ZM72.4965 129L70.1325 122.64H71.2245L73.3245 128.4H72.8085L74.9925 122.64H75.9645L78.1005 128.4H77.5965L79.7445 122.64H80.7765L78.4005 129H77.2965L75.2925 123.744H75.6285L73.6005 129H72.4965ZM84.4937 129.072C83.8537 129.072 83.2857 128.932 82.7897 128.652C82.2937 128.372 81.9017 127.988 81.6137 127.5C81.3257 127.004 81.1817 126.444 81.1817 125.82C81.1817 125.188 81.3257 124.628 81.6137 124.14C81.9017 123.652 82.2937 123.272 82.7897 123C83.2857 122.72 83.8537 122.58 84.4937 122.58C85.1257 122.58 85.6897 122.72 86.1857 123C86.6897 123.272 87.0817 123.652 87.3617 124.14C87.6497 124.62 87.7937 125.18 87.7937 125.82C87.7937 126.452 87.6497 127.012 87.3617 127.5C87.0817 127.988 86.6897 128.372 86.1857 128.652C85.6897 128.932 85.1257 129.072 84.4937 129.072ZM84.4937 128.064C84.9017 128.064 85.2657 127.972 85.5857 127.788C85.9137 127.604 86.1697 127.344 86.3537 127.008C86.5377 126.664 86.6297 126.268 86.6297 125.82C86.6297 125.364 86.5377 124.972 86.3537 124.644C86.1697 124.308 85.9137 124.048 85.5857 123.864C85.2657 123.68 84.9017 123.588 84.4937 123.588C84.0857 123.588 83.7217 123.68 83.4017 123.864C83.0817 124.048 82.8257 124.308 82.6337 124.644C82.4417 124.972 82.3457 125.364 82.3457 125.82C82.3457 126.268 82.4417 126.664 82.6337 127.008C82.8257 127.344 83.0817 127.604 83.4017 127.788C83.7217 127.972 84.0857 128.064 84.4937 128.064ZM95.3336 129.072C94.6936 129.072 94.1256 128.932 93.6296 128.652C93.1336 128.372 92.7416 127.988 92.4536 127.5C92.1656 127.004 92.0216 126.444 92.0216 125.82C92.0216 125.188 92.1656 124.628 92.4536 124.14C92.7416 123.652 93.1336 123.272 93.6296 123C94.1256 122.72 94.6936 122.58 95.3336 122.58C95.9656 122.58 96.5296 122.72 97.0256 123C97.5296 123.272 97.9216 123.652 98.2016 124.14C98.4896 124.62 98.6336 125.18 98.6336 125.82C98.6336 126.452 98.4896 127.012 98.2016 127.5C97.9216 127.988 97.5296 128.372 97.0256 128.652C96.5296 128.932 95.9656 129.072 95.3336 129.072ZM95.3336 128.064C95.7416 128.064 96.1056 127.972 96.4256 127.788C96.7536 127.604 97.0096 127.344 97.1936 127.008C97.3776 126.664 97.4696 126.268 97.4696 125.82C97.4696 125.364 97.3776 124.972 97.1936 124.644C97.0096 124.308 96.7536 124.048 96.4256 123.864C96.1056 123.68 95.7416 123.588 95.3336 123.588C94.9256 123.588 94.5616 123.68 94.2416 123.864C93.9216 124.048 93.6656 124.308 93.4736 124.644C93.2816 124.972 93.1856 125.364 93.1856 125.82C93.1856 126.268 93.2816 126.664 93.4736 127.008C93.6656 127.344 93.9216 127.604 94.2416 127.788C94.5616 127.972 94.9256 128.064 95.3336 128.064ZM103.599 129.072C103.071 129.072 102.587 128.952 102.147 128.712C101.715 128.464 101.367 128.1 101.103 127.62C100.847 127.14 100.719 126.54 100.719 125.82C100.719 125.1 100.843 124.5 101.091 124.02C101.347 123.54 101.691 123.18 102.123 122.94C102.563 122.7 103.055 122.58 103.599 122.58C104.223 122.58 104.775 122.716 105.255 122.988C105.735 123.26 106.115 123.64 106.395 124.128C106.675 124.608 106.815 125.172 106.815 125.82C106.815 126.468 106.675 127.036 106.395 127.524C106.115 128.012 105.735 128.392 105.255 128.664C104.775 128.936 104.223 129.072 103.599 129.072ZM100.227 131.328V122.64H101.331V124.356L101.259 125.832L101.379 127.308V131.328H100.227ZM103.503 128.064C103.911 128.064 104.275 127.972 104.595 127.788C104.923 127.604 105.179 127.344 105.363 127.008C105.555 126.664 105.651 126.268 105.651 125.82C105.651 125.364 105.555 124.972 105.363 124.644C105.179 124.308 104.923 124.048 104.595 123.864C104.275 123.68 103.911 123.588 103.503 123.588C103.103 123.588 102.739 123.68 102.411 123.864C102.091 124.048 101.835 124.308 101.643 124.644C101.459 124.972 101.367 125.364 101.367 125.82C101.367 126.268 101.459 126.664 101.643 127.008C101.835 127.344 102.091 127.604 102.411 127.788C102.739 127.972 103.103 128.064 103.503 128.064ZM111.778 129.072C111.25 129.072 110.766 128.952 110.326 128.712C109.894 128.464 109.546 128.1 109.282 127.62C109.026 127.14 108.898 126.54 108.898 125.82C108.898 125.1 109.022 124.5 109.27 124.02C109.526 123.54 109.87 123.18 110.302 122.94C110.742 122.7 111.234 122.58 111.778 122.58C112.402 122.58 112.954 122.716 113.434 122.988C113.914 123.26 114.294 123.64 114.574 124.128C114.854 124.608 114.994 125.172 114.994 125.82C114.994 126.468 114.854 127.036 114.574 127.524C114.294 128.012 113.914 128.392 113.434 128.664C112.954 128.936 112.402 129.072 111.778 129.072ZM108.406 131.328V122.64H109.51V124.356L109.438 125.832L109.558 127.308V131.328H108.406ZM111.682 128.064C112.09 128.064 112.454 127.972 112.774 127.788C113.102 127.604 113.358 127.344 113.542 127.008C113.734 126.664 113.83 126.268 113.83 125.82C113.83 125.364 113.734 124.972 113.542 124.644C113.358 124.308 113.102 124.048 112.774 123.864C112.454 123.68 112.09 123.588 111.682 123.588C111.282 123.588 110.918 123.68 110.59 123.864C110.27 124.048 110.014 124.308 109.822 124.644C109.638 124.972 109.546 125.364 109.546 125.82C109.546 126.268 109.638 126.664 109.822 127.008C110.014 127.344 110.27 127.604 110.59 127.788C110.918 127.972 111.282 128.064 111.682 128.064ZM119.31 129.072C118.67 129.072 118.102 128.932 117.606 128.652C117.11 128.372 116.718 127.988 116.43 127.5C116.142 127.004 115.998 126.444 115.998 125.82C115.998 125.188 116.142 124.628 116.43 124.14C116.718 123.652 117.11 123.272 117.606 123C118.102 122.72 118.67 122.58 119.31 122.58C119.942 122.58 120.506 122.72 121.002 123C121.506 123.272 121.898 123.652 122.178 124.14C122.466 124.62 122.61 125.18 122.61 125.82C122.61 126.452 122.466 127.012 122.178 127.5C121.898 127.988 121.506 128.372 121.002 128.652C120.506 128.932 119.942 129.072 119.31 129.072ZM119.31 128.064C119.718 128.064 120.082 127.972 120.402 127.788C120.73 127.604 120.986 127.344 121.17 127.008C121.354 126.664 121.446 126.268 121.446 125.82C121.446 125.364 121.354 124.972 121.17 124.644C120.986 124.308 120.73 124.048 120.402 123.864C120.082 123.68 119.718 123.588 119.31 123.588C118.902 123.588 118.538 123.68 118.218 123.864C117.898 124.048 117.642 124.308 117.45 124.644C117.258 124.972 117.162 125.364 117.162 125.82C117.162 126.268 117.258 126.664 117.45 127.008C117.642 127.344 117.898 127.604 118.218 127.788C118.538 127.972 118.902 128.064 119.31 128.064ZM126.027 129.072C125.499 129.072 124.995 129 124.515 128.856C124.043 128.712 123.671 128.536 123.399 128.328L123.879 127.416C124.151 127.6 124.487 127.756 124.887 127.884C125.287 128.012 125.695 128.076 126.111 128.076C126.647 128.076 127.031 128 127.263 127.848C127.503 127.696 127.623 127.484 127.623 127.212C127.623 127.012 127.551 126.856 127.407 126.744C127.263 126.632 127.071 126.548 126.831 126.492C126.599 126.436 126.339 126.388 126.051 126.348C125.763 126.3 125.475 126.244 125.187 126.18C124.899 126.108 124.635 126.012 124.395 125.892C124.155 125.764 123.963 125.592 123.819 125.376C123.675 125.152 123.603 124.856 123.603 124.488C123.603 124.104 123.711 123.768 123.927 123.48C124.143 123.192 124.447 122.972 124.839 122.82C125.239 122.66 125.711 122.58 126.255 122.58C126.671 122.58 127.091 122.632 127.515 122.736C127.947 122.832 128.299 122.972 128.571 123.156L128.079 124.068C127.791 123.876 127.491 123.744 127.179 123.672C126.867 123.6 126.555 123.564 126.243 123.564C125.739 123.564 125.363 123.648 125.115 123.816C124.867 123.976 124.743 124.184 124.743 124.44C124.743 124.656 124.815 124.824 124.959 124.944C125.111 125.056 125.303 125.144 125.535 125.208C125.775 125.272 126.039 125.328 126.327 125.376C126.615 125.416 126.903 125.472 127.191 125.544C127.479 125.608 127.739 125.7 127.971 125.82C128.211 125.94 128.403 126.108 128.547 126.324C128.699 126.54 128.775 126.828 128.775 127.188C128.775 127.572 128.663 127.904 128.439 128.184C128.215 128.464 127.899 128.684 127.491 128.844C127.083 128.996 126.595 129.072 126.027 129.072ZM130.215 129V122.64H131.367V129H130.215ZM130.791 121.416C130.567 121.416 130.379 121.344 130.227 121.2C130.083 121.056 130.011 120.88 130.011 120.672C130.011 120.456 130.083 120.276 130.227 120.132C130.379 119.988 130.567 119.916 130.791 119.916C131.015 119.916 131.199 119.988 131.343 120.132C131.495 120.268 131.571 120.44 131.571 120.648C131.571 120.864 131.499 121.048 131.355 121.2C131.211 121.344 131.023 121.416 130.791 121.416ZM135.751 129.072C135.111 129.072 134.615 128.9 134.263 128.556C133.911 128.212 133.735 127.72 133.735 127.08V121.248H134.887V127.032C134.887 127.376 134.971 127.64 135.139 127.824C135.315 128.008 135.563 128.1 135.883 128.1C136.243 128.1 136.543 128 136.783 127.8L137.143 128.628C136.967 128.78 136.755 128.892 136.507 128.964C136.267 129.036 136.015 129.072 135.751 129.072ZM132.655 123.588V122.64H136.711V123.588H132.655ZM141.156 129.072C140.476 129.072 139.876 128.932 139.356 128.652C138.844 128.372 138.444 127.988 138.156 127.5C137.876 127.012 137.736 126.452 137.736 125.82C137.736 125.188 137.872 124.628 138.144 124.14C138.424 123.652 138.804 123.272 139.284 123C139.772 122.72 140.32 122.58 140.928 122.58C141.544 122.58 142.088 122.716 142.56 122.988C143.032 123.26 143.4 123.644 143.664 124.14C143.936 124.628 144.072 125.2 144.072 125.856C144.072 125.904 144.068 125.96 144.06 126.024C144.06 126.088 144.056 126.148 144.048 126.204H138.636V125.376H143.448L142.98 125.664C142.988 125.256 142.904 124.892 142.728 124.572C142.552 124.252 142.308 124.004 141.996 123.828C141.692 123.644 141.336 123.552 140.928 123.552C140.528 123.552 140.172 123.644 139.86 123.828C139.548 124.004 139.304 124.256 139.128 124.584C138.952 124.904 138.864 125.272 138.864 125.688V125.88C138.864 126.304 138.96 126.684 139.152 127.02C139.352 127.348 139.628 127.604 139.98 127.788C140.332 127.972 140.736 128.064 141.192 128.064C141.568 128.064 141.908 128 142.212 127.872C142.524 127.744 142.796 127.552 143.028 127.296L143.664 128.04C143.376 128.376 143.016 128.632 142.584 128.808C142.16 128.984 141.684 129.072 141.156 129.072ZM26.8269 144.072C26.1789 144.072 25.5989 143.932 25.0869 143.652C24.5829 143.372 24.1869 142.988 23.8989 142.5C23.6109 142.012 23.4669 141.452 23.4669 140.82C23.4669 140.188 23.6109 139.628 23.8989 139.14C24.1869 138.652 24.5829 138.272 25.0869 138C25.5989 137.72 26.1789 137.58 26.8269 137.58C27.4029 137.58 27.9149 137.696 28.3629 137.928C28.8189 138.152 29.1709 138.488 29.4189 138.936L28.5429 139.5C28.3349 139.188 28.0789 138.96 27.7749 138.816C27.4789 138.664 27.1589 138.588 26.8149 138.588C26.3989 138.588 26.0269 138.68 25.6989 138.864C25.3709 139.048 25.1109 139.308 24.9189 139.644C24.7269 139.972 24.6309 140.364 24.6309 140.82C24.6309 141.276 24.7269 141.672 24.9189 142.008C25.1109 142.344 25.3709 142.604 25.6989 142.788C26.0269 142.972 26.3989 143.064 26.8149 143.064C27.1589 143.064 27.4789 142.992 27.7749 142.848C28.0789 142.696 28.3349 142.464 28.5429 142.152L29.4189 142.704C29.1709 143.144 28.8189 143.484 28.3629 143.724C27.9149 143.956 27.4029 144.072 26.8269 144.072ZM33.5406 144.072C32.9006 144.072 32.3326 143.932 31.8366 143.652C31.3406 143.372 30.9486 142.988 30.6606 142.5C30.3726 142.004 30.2286 141.444 30.2286 140.82C30.2286 140.188 30.3726 139.628 30.6606 139.14C30.9486 138.652 31.3406 138.272 31.8366 138C32.3326 137.72 32.9006 137.58 33.5406 137.58C34.1726 137.58 34.7366 137.72 35.2326 138C35.7366 138.272 36.1286 138.652 36.4086 139.14C36.6966 139.62 36.8406 140.18 36.8406 140.82C36.8406 141.452 36.6966 142.012 36.4086 142.5C36.1286 142.988 35.7366 143.372 35.2326 143.652C34.7366 143.932 34.1726 144.072 33.5406 144.072ZM33.5406 143.064C33.9486 143.064 34.3126 142.972 34.6326 142.788C34.9606 142.604 35.2166 142.344 35.4006 142.008C35.5846 141.664 35.6766 141.268 35.6766 140.82C35.6766 140.364 35.5846 139.972 35.4006 139.644C35.2166 139.308 34.9606 139.048 34.6326 138.864C34.3126 138.68 33.9486 138.588 33.5406 138.588C33.1326 138.588 32.7686 138.68 32.4486 138.864C32.1286 139.048 31.8726 139.308 31.6806 139.644C31.4886 139.972 31.3926 140.364 31.3926 140.82C31.3926 141.268 31.4886 141.664 31.6806 142.008C31.8726 142.344 32.1286 142.604 32.4486 142.788C32.7686 142.972 33.1326 143.064 33.5406 143.064ZM38.4338 144V137.64H39.5378V139.368L39.4298 138.936C39.6058 138.496 39.9018 138.16 40.3178 137.928C40.7338 137.696 41.2458 137.58 41.8538 137.58V138.696C41.8058 138.688 41.7578 138.684 41.7098 138.684C41.6698 138.684 41.6298 138.684 41.5898 138.684C40.9738 138.684 40.4858 138.868 40.1258 139.236C39.7658 139.604 39.5858 140.136 39.5858 140.832V144H38.4338ZM46.6696 137.58C47.1896 137.58 47.6456 137.68 48.0376 137.88C48.4376 138.08 48.7496 138.384 48.9736 138.792C49.1976 139.2 49.3096 139.716 49.3096 140.34V144H48.1576V140.472C48.1576 139.856 48.0056 139.392 47.7016 139.08C47.4056 138.768 46.9856 138.612 46.4416 138.612C46.0336 138.612 45.6776 138.692 45.3736 138.852C45.0696 139.012 44.8336 139.248 44.6656 139.56C44.5056 139.872 44.4256 140.26 44.4256 140.724V144H43.2736V137.64H44.3776V139.356L44.1976 138.9C44.4056 138.484 44.7256 138.16 45.1576 137.928C45.5896 137.696 46.0936 137.58 46.6696 137.58ZM54.2736 144.072C53.5936 144.072 52.9936 143.932 52.4736 143.652C51.9616 143.372 51.5616 142.988 51.2736 142.5C50.9936 142.012 50.8536 141.452 50.8536 140.82C50.8536 140.188 50.9896 139.628 51.2616 139.14C51.5416 138.652 51.9216 138.272 52.4016 138C52.8896 137.72 53.4376 137.58 54.0456 137.58C54.6616 137.58 55.2056 137.716 55.6776 137.988C56.1496 138.26 56.5176 138.644 56.7816 139.14C57.0536 139.628 57.1896 140.2 57.1896 140.856C57.1896 140.904 57.1856 140.96 57.1776 141.024C57.1776 141.088 57.1736 141.148 57.1656 141.204H51.7536V140.376H56.5656L56.0976 140.664C56.1056 140.256 56.0216 139.892 55.8456 139.572C55.6696 139.252 55.4256 139.004 55.1136 138.828C54.8096 138.644 54.4536 138.552 54.0456 138.552C53.6456 138.552 53.2896 138.644 52.9776 138.828C52.6656 139.004 52.4216 139.256 52.2456 139.584C52.0696 139.904 51.9816 140.272 51.9816 140.688V140.88C51.9816 141.304 52.0776 141.684 52.2696 142.02C52.4696 142.348 52.7456 142.604 53.0976 142.788C53.4496 142.972 53.8536 143.064 54.3096 143.064C54.6856 143.064 55.0256 143 55.3296 142.872C55.6416 142.744 55.9136 142.552 56.1456 142.296L56.7816 143.04C56.4936 143.376 56.1336 143.632 55.7016 143.808C55.2776 143.984 54.8016 144.072 54.2736 144.072ZM58.7893 144V137.64H59.8933V139.368L59.7853 138.936C59.9613 138.496 60.2573 138.16 60.6733 137.928C61.0893 137.696 61.6013 137.58 62.2093 137.58V138.696C62.1613 138.688 62.1133 138.684 62.0653 138.684C62.0253 138.684 61.9853 138.684 61.9453 138.684C61.3293 138.684 60.8413 138.868 60.4813 139.236C60.1213 139.604 59.9413 140.136 59.9413 140.832V144H58.7893ZM65.5234 144.072C64.9954 144.072 64.4914 144 64.0114 143.856C63.5394 143.712 63.1674 143.536 62.8954 143.328L63.3754 142.416C63.6474 142.6 63.9834 142.756 64.3834 142.884C64.7834 143.012 65.1914 143.076 65.6074 143.076C66.1434 143.076 66.5274 143 66.7594 142.848C66.9994 142.696 67.1194 142.484 67.1194 142.212C67.1194 142.012 67.0474 141.856 66.9034 141.744C66.7594 141.632 66.5674 141.548 66.3274 141.492C66.0954 141.436 65.8354 141.388 65.5474 141.348C65.2594 141.3 64.9714 141.244 64.6834 141.18C64.3954 141.108 64.1314 141.012 63.8914 140.892C63.6514 140.764 63.4594 140.592 63.3154 140.376C63.1714 140.152 63.0994 139.856 63.0994 139.488C63.0994 139.104 63.2074 138.768 63.4234 138.48C63.6394 138.192 63.9434 137.972 64.3354 137.82C64.7354 137.66 65.2074 137.58 65.7514 137.58C66.1674 137.58 66.5874 137.632 67.0114 137.736C67.4434 137.832 67.7954 137.972 68.0674 138.156L67.5754 139.068C67.2874 138.876 66.9874 138.744 66.6754 138.672C66.3634 138.6 66.0514 138.564 65.7394 138.564C65.2354 138.564 64.8594 138.648 64.6114 138.816C64.3634 138.976 64.2394 139.184 64.2394 139.44C64.2394 139.656 64.3114 139.824 64.4554 139.944C64.6074 140.056 64.7994 140.144 65.0314 140.208C65.2714 140.272 65.5354 140.328 65.8234 140.376C66.1114 140.416 66.3994 140.472 66.6874 140.544C66.9754 140.608 67.2354 140.7 67.4674 140.82C67.7074 140.94 67.8994 141.108 68.0434 141.324C68.1954 141.54 68.2714 141.828 68.2714 142.188C68.2714 142.572 68.1594 142.904 67.9354 143.184C67.7114 143.464 67.3954 143.684 66.9874 143.844C66.5794 143.996 66.0914 144.072 65.5234 144.072ZM76.3298 137.58C76.8498 137.58 77.3058 137.68 77.6978 137.88C78.0978 138.08 78.4098 138.384 78.6338 138.792C78.8578 139.2 78.9698 139.716 78.9698 140.34V144H77.8178V140.472C77.8178 139.856 77.6658 139.392 77.3618 139.08C77.0658 138.768 76.6458 138.612 76.1018 138.612C75.6938 138.612 75.3378 138.692 75.0338 138.852C74.7298 139.012 74.4938 139.248 74.3258 139.56C74.1658 139.872 74.0858 140.26 74.0858 140.724V144H72.9338V135.096H74.0858V139.356L73.8578 138.9C74.0658 138.484 74.3858 138.16 74.8178 137.928C75.2498 137.696 75.7538 137.58 76.3298 137.58ZM85.0498 144V142.656L84.9898 142.404V140.112C84.9898 139.624 84.8458 139.248 84.5578 138.984C84.2778 138.712 83.8538 138.576 83.2858 138.576C82.9098 138.576 82.5418 138.64 82.1818 138.768C81.8218 138.888 81.5178 139.052 81.2698 139.26L80.7898 138.396C81.1178 138.132 81.5098 137.932 81.9658 137.796C82.4298 137.652 82.9138 137.58 83.4178 137.58C84.2898 137.58 84.9618 137.792 85.4338 138.216C85.9058 138.64 86.1418 139.288 86.1418 140.16V144H85.0498ZM82.9618 144.072C82.4898 144.072 82.0738 143.992 81.7138 143.832C81.3618 143.672 81.0898 143.452 80.8978 143.172C80.7058 142.884 80.6098 142.56 80.6098 142.2C80.6098 141.856 80.6898 141.544 80.8498 141.264C81.0178 140.984 81.2858 140.76 81.6538 140.592C82.0298 140.424 82.5338 140.34 83.1658 140.34H85.1818V141.168H83.2138C82.6378 141.168 82.2498 141.264 82.0498 141.456C81.8498 141.648 81.7498 141.88 81.7498 142.152C81.7498 142.464 81.8738 142.716 82.1218 142.908C82.3698 143.092 82.7138 143.184 83.1538 143.184C83.5858 143.184 83.9618 143.088 84.2818 142.896C84.6098 142.704 84.8458 142.424 84.9898 142.056L85.2178 142.848C85.0658 143.224 84.7978 143.524 84.4138 143.748C84.0298 143.964 83.5458 144.072 82.9618 144.072ZM88.2736 144V135.096H89.4256V144H88.2736ZM91.7932 144V137.076C91.7932 136.452 91.9732 135.956 92.3332 135.588C92.7012 135.212 93.2212 135.024 93.8932 135.024C94.1412 135.024 94.3772 135.056 94.6012 135.12C94.8332 135.176 95.0292 135.268 95.1892 135.396L94.8412 136.272C94.7212 136.176 94.5852 136.104 94.4332 136.056C94.2812 136 94.1212 135.972 93.9532 135.972C93.6172 135.972 93.3612 136.068 93.1852 136.26C93.0092 136.444 92.9212 136.72 92.9212 137.088V137.94L92.9452 138.468V144H91.7932ZM90.7132 138.588V137.64H94.7692V138.588H90.7132ZM97.3169 144L94.9529 137.64H96.0449L98.1449 143.4H97.6289L99.8129 137.64H100.785L102.921 143.4H102.417L104.565 137.64H105.597L103.221 144H102.117L100.113 138.744H100.449L98.4209 144H97.3169ZM110.515 144V142.656L110.455 142.404V140.112C110.455 139.624 110.311 139.248 110.023 138.984C109.743 138.712 109.319 138.576 108.751 138.576C108.375 138.576 108.007 138.64 107.647 138.768C107.287 138.888 106.983 139.052 106.735 139.26L106.255 138.396C106.583 138.132 106.975 137.932 107.431 137.796C107.895 137.652 108.379 137.58 108.883 137.58C109.755 137.58 110.427 137.792 110.899 138.216C111.371 138.64 111.607 139.288 111.607 140.16V144H110.515ZM108.427 144.072C107.955 144.072 107.539 143.992 107.179 143.832C106.827 143.672 106.555 143.452 106.363 143.172C106.171 142.884 106.075 142.56 106.075 142.2C106.075 141.856 106.155 141.544 106.315 141.264C106.483 140.984 106.751 140.76 107.119 140.592C107.495 140.424 107.999 140.34 108.631 140.34H110.647V141.168H108.679C108.103 141.168 107.715 141.264 107.515 141.456C107.315 141.648 107.215 141.88 107.215 142.152C107.215 142.464 107.339 142.716 107.587 142.908C107.835 143.092 108.179 143.184 108.619 143.184C109.051 143.184 109.427 143.088 109.747 142.896C110.075 142.704 110.311 142.424 110.455 142.056L110.683 142.848C110.531 143.224 110.263 143.524 109.879 143.748C109.495 143.964 109.011 144.072 108.427 144.072ZM113.897 146.4C113.593 146.4 113.297 146.348 113.009 146.244C112.721 146.148 112.473 146.004 112.265 145.812L112.757 144.948C112.917 145.1 113.093 145.216 113.285 145.296C113.477 145.376 113.681 145.416 113.897 145.416C114.177 145.416 114.409 145.344 114.593 145.2C114.777 145.056 114.949 144.8 115.109 144.432L115.505 143.556L115.625 143.412L118.121 137.64H119.249L116.165 144.636C115.981 145.084 115.773 145.436 115.541 145.692C115.317 145.948 115.069 146.128 114.797 146.232C114.525 146.344 114.225 146.4 113.897 146.4ZM115.409 144.204L112.505 137.64H113.705L116.177 143.304L115.409 144.204ZM126.175 144.072C125.559 144.072 125.007 143.936 124.519 143.664C124.039 143.392 123.659 143.012 123.379 142.524C123.099 142.036 122.959 141.468 122.959 140.82C122.959 140.172 123.099 139.608 123.379 139.128C123.659 138.64 124.039 138.26 124.519 137.988C125.007 137.716 125.559 137.58 126.175 137.58C126.711 137.58 127.195 137.7 127.627 137.94C128.059 138.18 128.403 138.54 128.659 139.02C128.923 139.5 129.055 140.1 129.055 140.82C129.055 141.54 128.927 142.14 128.671 142.62C128.423 143.1 128.083 143.464 127.651 143.712C127.219 143.952 126.727 144.072 126.175 144.072ZM126.271 143.064C126.671 143.064 127.031 142.972 127.351 142.788C127.679 142.604 127.935 142.344 128.119 142.008C128.311 141.664 128.407 141.268 128.407 140.82C128.407 140.364 128.311 139.972 128.119 139.644C127.935 139.308 127.679 139.048 127.351 138.864C127.031 138.68 126.671 138.588 126.271 138.588C125.863 138.588 125.499 138.68 125.179 138.864C124.859 139.048 124.603 139.308 124.411 139.644C124.219 139.972 124.123 140.364 124.123 140.82C124.123 141.268 124.219 141.664 124.411 142.008C124.603 142.344 124.859 142.604 125.179 142.788C125.499 142.972 125.863 143.064 126.271 143.064ZM128.443 144V142.284L128.515 140.808L128.395 139.332V135.096H129.547V144H128.443ZM134.451 144.072C133.811 144.072 133.243 143.932 132.747 143.652C132.251 143.372 131.859 142.988 131.571 142.5C131.283 142.004 131.139 141.444 131.139 140.82C131.139 140.188 131.283 139.628 131.571 139.14C131.859 138.652 132.251 138.272 132.747 138C133.243 137.72 133.811 137.58 134.451 137.58C135.083 137.58 135.647 137.72 136.143 138C136.647 138.272 137.039 138.652 137.319 139.14C137.607 139.62 137.751 140.18 137.751 140.82C137.751 141.452 137.607 142.012 137.319 142.5C137.039 142.988 136.647 143.372 136.143 143.652C135.647 143.932 135.083 144.072 134.451 144.072ZM134.451 143.064C134.859 143.064 135.223 142.972 135.543 142.788C135.871 142.604 136.127 142.344 136.311 142.008C136.495 141.664 136.587 141.268 136.587 140.82C136.587 140.364 136.495 139.972 136.311 139.644C136.127 139.308 135.871 139.048 135.543 138.864C135.223 138.68 134.859 138.588 134.451 138.588C134.043 138.588 133.679 138.68 133.359 138.864C133.039 139.048 132.783 139.308 132.591 139.644C132.399 139.972 132.303 140.364 132.303 140.82C132.303 141.268 132.399 141.664 132.591 142.008C132.783 142.344 133.039 142.604 133.359 142.788C133.679 142.972 134.043 143.064 134.451 143.064ZM140.512 144L138.148 137.64H139.24L141.34 143.4H140.824L143.008 137.64H143.98L146.116 143.4H145.612L147.76 137.64H148.792L146.416 144H145.312L143.308 138.744H143.644L141.616 144H140.512ZM153.357 137.58C153.877 137.58 154.333 137.68 154.725 137.88C155.125 138.08 155.437 138.384 155.661 138.792C155.885 139.2 155.997 139.716 155.997 140.34V144H154.845V140.472C154.845 139.856 154.693 139.392 154.389 139.08C154.093 138.768 153.673 138.612 153.129 138.612C152.721 138.612 152.365 138.692 152.061 138.852C151.757 139.012 151.521 139.248 151.353 139.56C151.193 139.872 151.113 140.26 151.113 140.724V144H149.961V137.64H151.065V139.356L150.885 138.9C151.093 138.484 151.413 138.16 151.845 137.928C152.277 137.696 152.781 137.58 153.357 137.58ZM63.0826 159.072C62.4426 159.072 61.9466 158.9 61.5946 158.556C61.2426 158.212 61.0666 157.72 61.0666 157.08V151.248H62.2186V157.032C62.2186 157.376 62.3026 157.64 62.4706 157.824C62.6466 158.008 62.8946 158.1 63.2146 158.1C63.5746 158.1 63.8746 158 64.1146 157.8L64.4746 158.628C64.2986 158.78 64.0866 158.892 63.8386 158.964C63.5986 159.036 63.3466 159.072 63.0826 159.072ZM59.9866 153.588V152.64H64.0426V153.588H59.9866ZM69.2634 152.58C69.7834 152.58 70.2394 152.68 70.6314 152.88C71.0314 153.08 71.3434 153.384 71.5674 153.792C71.7914 154.2 71.9034 154.716 71.9034 155.34V159H70.7514V155.472C70.7514 154.856 70.5994 154.392 70.2954 154.08C69.9994 153.768 69.5794 153.612 69.0354 153.612C68.6274 153.612 68.2714 153.692 67.9674 153.852C67.6634 154.012 67.4274 154.248 67.2594 154.56C67.0994 154.872 67.0194 155.26 67.0194 155.724V159H65.8674V150.096H67.0194V154.356L66.7914 153.9C66.9994 153.484 67.3194 153.16 67.7514 152.928C68.1834 152.696 68.6874 152.58 69.2634 152.58ZM76.8674 159.072C76.1874 159.072 75.5874 158.932 75.0674 158.652C74.5554 158.372 74.1554 157.988 73.8674 157.5C73.5874 157.012 73.4474 156.452 73.4474 155.82C73.4474 155.188 73.5834 154.628 73.8554 154.14C74.1354 153.652 74.5154 153.272 74.9954 153C75.4834 152.72 76.0314 152.58 76.6394 152.58C77.2554 152.58 77.7994 152.716 78.2714 152.988C78.7434 153.26 79.1114 153.644 79.3754 154.14C79.6474 154.628 79.7834 155.2 79.7834 155.856C79.7834 155.904 79.7794 155.96 79.7714 156.024C79.7714 156.088 79.7674 156.148 79.7594 156.204H74.3474V155.376H79.1594L78.6914 155.664C78.6994 155.256 78.6154 154.892 78.4394 154.572C78.2634 154.252 78.0194 154.004 77.7074 153.828C77.4034 153.644 77.0474 153.552 76.6394 153.552C76.2394 153.552 75.8834 153.644 75.5714 153.828C75.2594 154.004 75.0154 154.256 74.8394 154.584C74.6634 154.904 74.5754 155.272 74.5754 155.688V155.88C74.5754 156.304 74.6714 156.684 74.8634 157.02C75.0634 157.348 75.3394 157.604 75.6914 157.788C76.0434 157.972 76.4474 158.064 76.9034 158.064C77.2794 158.064 77.6194 158 77.9234 157.872C78.2354 157.744 78.5074 157.552 78.7394 157.296L79.3754 158.04C79.0874 158.376 78.7274 158.632 78.2954 158.808C77.8714 158.984 77.3954 159.072 76.8674 159.072ZM86.4297 159.072C85.9017 159.072 85.3977 159 84.9177 158.856C84.4457 158.712 84.0737 158.536 83.8017 158.328L84.2817 157.416C84.5537 157.6 84.8897 157.756 85.2897 157.884C85.6897 158.012 86.0977 158.076 86.5137 158.076C87.0497 158.076 87.4337 158 87.6657 157.848C87.9057 157.696 88.0257 157.484 88.0257 157.212C88.0257 157.012 87.9537 156.856 87.8097 156.744C87.6657 156.632 87.4737 156.548 87.2337 156.492C87.0017 156.436 86.7417 156.388 86.4537 156.348C86.1657 156.3 85.8777 156.244 85.5897 156.18C85.3017 156.108 85.0377 156.012 84.7977 155.892C84.5577 155.764 84.3657 155.592 84.2217 155.376C84.0777 155.152 84.0057 154.856 84.0057 154.488C84.0057 154.104 84.1137 153.768 84.3297 153.48C84.5457 153.192 84.8497 152.972 85.2417 152.82C85.6417 152.66 86.1137 152.58 86.6577 152.58C87.0737 152.58 87.4937 152.632 87.9177 152.736C88.3497 152.832 88.7017 152.972 88.9737 153.156L88.4817 154.068C88.1937 153.876 87.8937 153.744 87.5817 153.672C87.2697 153.6 86.9577 153.564 86.6457 153.564C86.1417 153.564 85.7657 153.648 85.5177 153.816C85.2697 153.976 85.1457 154.184 85.1457 154.44C85.1457 154.656 85.2177 154.824 85.3617 154.944C85.5137 155.056 85.7057 155.144 85.9377 155.208C86.1777 155.272 86.4417 155.328 86.7297 155.376C87.0177 155.416 87.3057 155.472 87.5937 155.544C87.8817 155.608 88.1417 155.7 88.3737 155.82C88.6137 155.94 88.8057 156.108 88.9497 156.324C89.1017 156.54 89.1777 156.828 89.1777 157.188C89.1777 157.572 89.0657 157.904 88.8417 158.184C88.6177 158.464 88.3017 158.684 87.8937 158.844C87.4857 158.996 86.9977 159.072 86.4297 159.072ZM94.0134 152.58C94.5334 152.58 94.9894 152.68 95.3814 152.88C95.7814 153.08 96.0934 153.384 96.3174 153.792C96.5414 154.2 96.6534 154.716 96.6534 155.34V159H95.5014V155.472C95.5014 154.856 95.3494 154.392 95.0454 154.08C94.7494 153.768 94.3294 153.612 93.7854 153.612C93.3774 153.612 93.0214 153.692 92.7174 153.852C92.4134 154.012 92.1774 154.248 92.0094 154.56C91.8494 154.872 91.7694 155.26 91.7694 155.724V159H90.6174V150.096H91.7694V154.356L91.5414 153.9C91.7494 153.484 92.0694 153.16 92.5014 152.928C92.9334 152.696 93.4374 152.58 94.0134 152.58ZM101.617 159.072C100.937 159.072 100.337 158.932 99.8174 158.652C99.3054 158.372 98.9054 157.988 98.6174 157.5C98.3374 157.012 98.1974 156.452 98.1974 155.82C98.1974 155.188 98.3334 154.628 98.6054 154.14C98.8854 153.652 99.2654 153.272 99.7454 153C100.233 152.72 100.781 152.58 101.389 152.58C102.005 152.58 102.549 152.716 103.021 152.988C103.493 153.26 103.861 153.644 104.125 154.14C104.397 154.628 104.533 155.2 104.533 155.856C104.533 155.904 104.529 155.96 104.521 156.024C104.521 156.088 104.517 156.148 104.509 156.204H99.0974V155.376H103.909L103.441 155.664C103.449 155.256 103.365 154.892 103.189 154.572C103.013 154.252 102.769 154.004 102.457 153.828C102.153 153.644 101.797 153.552 101.389 153.552C100.989 153.552 100.633 153.644 100.321 153.828C100.009 154.004 99.7654 154.256 99.5894 154.584C99.4134 154.904 99.3254 155.272 99.3254 155.688V155.88C99.3254 156.304 99.4214 156.684 99.6134 157.02C99.8134 157.348 100.089 157.604 100.441 157.788C100.793 157.972 101.197 158.064 101.653 158.064C102.029 158.064 102.369 158 102.673 157.872C102.985 157.744 103.257 157.552 103.489 157.296L104.125 158.04C103.837 158.376 103.477 158.632 103.045 158.808C102.621 158.984 102.145 159.072 101.617 159.072ZM108.965 159.072C108.285 159.072 107.685 158.932 107.165 158.652C106.653 158.372 106.253 157.988 105.965 157.5C105.685 157.012 105.545 156.452 105.545 155.82C105.545 155.188 105.681 154.628 105.953 154.14C106.233 153.652 106.613 153.272 107.093 153C107.581 152.72 108.129 152.58 108.737 152.58C109.353 152.58 109.897 152.716 110.369 152.988C110.841 153.26 111.209 153.644 111.473 154.14C111.745 154.628 111.881 155.2 111.881 155.856C111.881 155.904 111.877 155.96 111.869 156.024C111.869 156.088 111.865 156.148 111.857 156.204H106.445V155.376H111.257L110.789 155.664C110.797 155.256 110.713 154.892 110.537 154.572C110.361 154.252 110.117 154.004 109.805 153.828C109.501 153.644 109.145 153.552 108.737 153.552C108.337 153.552 107.981 153.644 107.669 153.828C107.357 154.004 107.113 154.256 106.937 154.584C106.761 154.904 106.673 155.272 106.673 155.688V155.88C106.673 156.304 106.769 156.684 106.961 157.02C107.161 157.348 107.437 157.604 107.789 157.788C108.141 157.972 108.545 158.064 109.001 158.064C109.377 158.064 109.717 158 110.021 157.872C110.333 157.744 110.605 157.552 110.837 157.296L111.473 158.04C111.185 158.376 110.825 158.632 110.393 158.808C109.969 158.984 109.493 159.072 108.965 159.072ZM115.665 159.072C115.025 159.072 114.529 158.9 114.177 158.556C113.825 158.212 113.649 157.72 113.649 157.08V151.248H114.801V157.032C114.801 157.376 114.885 157.64 115.053 157.824C115.229 158.008 115.477 158.1 115.797 158.1C116.157 158.1 116.457 158 116.697 157.8L117.057 158.628C116.881 158.78 116.669 158.892 116.421 158.964C116.181 159.036 115.929 159.072 115.665 159.072ZM112.569 153.588V152.64H116.625V153.588H112.569ZM118.843 159.072C118.619 159.072 118.427 158.996 118.267 158.844C118.107 158.684 118.027 158.484 118.027 158.244C118.027 158.004 118.107 157.808 118.267 157.656C118.427 157.504 118.619 157.428 118.843 157.428C119.059 157.428 119.243 157.504 119.395 157.656C119.555 157.808 119.635 158.004 119.635 158.244C119.635 158.484 119.555 158.684 119.395 158.844C119.243 158.996 119.059 159.072 118.843 159.072Z" fill="#008E86"/>
<rect x="45" y="55" width="63.6396" height="63.6396" transform="rotate(-45 45 55)" fill="#00D8CC" stroke="#00635D" stroke-width="2" stroke-linejoin="round"/>
<path d="M66 34H114" stroke="#333333" stroke-width="2" stroke-dasharray="4 6"/>
<path d="M65 75H115" stroke="#333333" stroke-width="2" stroke-dasharray="4 6"/>
<path opacity="0.25" d="M90 11V100" stroke="#333333" stroke-width="2"/>
<path opacity="0.25" d="M45 55L135 55" stroke="#333333" stroke-width="2"/>
<path d="M87.997 50C88.5493 50.0016 88.9984 49.5553 89 49.003L89.0268 40.003C89.0285 39.4507 88.5821 39.0017 88.0298 39C87.4775 38.9984 87.0285 39.4448 87.0268 39.9971L87.003 47.997L79.003 47.9732C78.4507 47.9715 78.0017 48.4179 78 48.9702C77.9984 49.5225 78.4448 49.9715 78.9971 49.9732L87.997 50ZM88.7092 16.705C89.0986 16.3133 89.0967 15.6801 88.705 15.2908C88.3133 14.9014 87.6801 14.9033 87.2908 15.295L88.7092 16.705ZM88.7092 48.295C84.0905 43.6487 82 38.1025 82 32.569L80 32.569C80 38.6339 82.3017 44.6861 87.2908 49.705L88.7092 48.295ZM82 32.569C82 29.854 82.8413 26.7164 84.1277 23.8089C85.4139 20.9019 87.102 18.3218 88.7092 16.705L87.2908 15.295C85.4667 17.13 83.6547 19.935 82.2987 22.9997C80.943 26.0639 80 29.4849 80 32.569L82 32.569Z" fill="black"/>
<path d="M94.003 58C93.4507 57.9984 93.0016 58.4447 93 58.997L92.9732 67.997C92.9715 68.5493 93.4179 68.9983 93.9702 69C94.5225 69.0016 94.9715 68.5552 94.9732 68.0029L94.997 60.003L102.997 60.0268C103.549 60.0285 103.998 59.5821 104 59.0298C104.002 58.4775 103.555 58.0285 103.003 58.0268L94.003 58ZM93.2908 91.295C92.9014 91.6867 92.9033 92.3199 93.295 92.7092C93.6867 93.0986 94.3198 93.0967 94.7092 92.705L93.2908 91.295ZM93.2908 59.705C97.9095 64.3513 100 69.8975 100 75.431L102 75.431C102 69.3661 99.6983 63.3139 94.7092 58.295L93.2908 59.705ZM100 75.431C100 78.146 99.1587 81.2836 97.8723 84.1911C96.5861 87.0981 94.898 89.6782 93.2908 91.295L94.7092 92.705C96.5333 90.87 98.3453 88.065 99.7013 85.0003C101.057 81.9361 102 78.5151 102 75.431L100 75.431Z" fill="black"/>
</svg>
