<svg width="180" height="180" viewBox="0 0 180 180" fill="none" xmlns="http://www.w3.org/2000/svg">
<rect width="180" height="180" rx="20" fill="#F2F2F2"/>
<path d="M27.8869 124.572H32.2189V125.604H27.8869V124.572ZM28.0069 129H26.8069V120.6H32.7349V121.644H28.0069V129ZM36.7808 129.072C36.1408 129.072 35.5728 128.932 35.0768 128.652C34.5808 128.372 34.1888 127.988 33.9008 127.5C33.6128 127.004 33.4688 126.444 33.4688 125.82C33.4688 125.188 33.6128 124.628 33.9008 124.14C34.1888 123.652 34.5808 123.272 35.0768 123C35.5728 122.72 36.1408 122.58 36.7808 122.58C37.4128 122.58 37.9768 122.72 38.4728 123C38.9768 123.272 39.3688 123.652 39.6488 124.14C39.9368 124.62 40.0808 125.18 40.0808 125.82C40.0808 126.452 39.9368 127.012 39.6488 127.5C39.3688 127.988 38.9768 128.372 38.4728 128.652C37.9768 128.932 37.4128 129.072 36.7808 129.072ZM36.7808 128.064C37.1888 128.064 37.5528 127.972 37.8728 127.788C38.2008 127.604 38.4568 127.344 38.6408 127.008C38.8248 126.664 38.9168 126.268 38.9168 125.82C38.9168 125.364 38.8248 124.972 38.6408 124.644C38.4568 124.308 38.2008 124.048 37.8728 123.864C37.5528 123.68 37.1888 123.588 36.7808 123.588C36.3728 123.588 36.0088 123.68 35.6888 123.864C35.3688 124.048 35.1128 124.308 34.9208 124.644C34.7288 124.972 34.6328 125.364 34.6328 125.82C34.6328 126.268 34.7288 126.664 34.9208 127.008C35.1128 127.344 35.3688 127.604 35.6888 127.788C36.0088 127.972 36.3728 128.064 36.7808 128.064ZM41.674 129V120.096H42.826V129H41.674ZM47.6536 129.072C47.0376 129.072 46.4856 128.936 45.9976 128.664C45.5176 128.392 45.1376 128.012 44.8576 127.524C44.5776 127.036 44.4376 126.468 44.4376 125.82C44.4376 125.172 44.5776 124.608 44.8576 124.128C45.1376 123.64 45.5176 123.26 45.9976 122.988C46.4856 122.716 47.0376 122.58 47.6536 122.58C48.1896 122.58 48.6736 122.7 49.1056 122.94C49.5376 123.18 49.8816 123.54 50.1376 124.02C50.4016 124.5 50.5336 125.1 50.5336 125.82C50.5336 126.54 50.4056 127.14 50.1496 127.62C49.9016 128.1 49.5616 128.464 49.1296 128.712C48.6976 128.952 48.2056 129.072 47.6536 129.072ZM47.7496 128.064C48.1496 128.064 48.5096 127.972 48.8296 127.788C49.1576 127.604 49.4136 127.344 49.5976 127.008C49.7896 126.664 49.8856 126.268 49.8856 125.82C49.8856 125.364 49.7896 124.972 49.5976 124.644C49.4136 124.308 49.1576 124.048 48.8296 123.864C48.5096 123.68 48.1496 123.588 47.7496 123.588C47.3416 123.588 46.9776 123.68 46.6576 123.864C46.3376 124.048 46.0816 124.308 45.8896 124.644C45.6976 124.972 45.6016 125.364 45.6016 125.82C45.6016 126.268 45.6976 126.664 45.8896 127.008C46.0816 127.344 46.3376 127.604 46.6576 127.788C46.9776 127.972 47.3416 128.064 47.7496 128.064ZM49.9216 129V127.284L49.9936 125.808L49.8736 124.332V120.096H51.0256V129H49.9216ZM58.6119 129.072C57.9719 129.072 57.4759 128.9 57.1239 128.556C56.7719 128.212 56.5959 127.72 56.5959 127.08V121.248H57.7479V127.032C57.7479 127.376 57.8319 127.64 57.9999 127.824C58.1759 128.008 58.4239 128.1 58.7439 128.1C59.1039 128.1 59.4039 128 59.6439 127.8L60.0039 128.628C59.8279 128.78 59.6159 128.892 59.3679 128.964C59.1279 129.036 58.8759 129.072 58.6119 129.072ZM55.5159 123.588V122.64H59.5719V123.588H55.5159ZM64.7927 122.58C65.3127 122.58 65.7687 122.68 66.1607 122.88C66.5607 123.08 66.8727 123.384 67.0967 123.792C67.3207 124.2 67.4327 124.716 67.4327 125.34V129H66.2807V125.472C66.2807 124.856 66.1287 124.392 65.8247 124.08C65.5287 123.768 65.1087 123.612 64.5647 123.612C64.1567 123.612 63.8007 123.692 63.4967 123.852C63.1927 124.012 62.9567 124.248 62.7887 124.56C62.6287 124.872 62.5487 125.26 62.5487 125.724V129H61.3967V120.096H62.5487V124.356L62.3207 123.9C62.5287 123.484 62.8487 123.16 63.2807 122.928C63.7127 122.696 64.2167 122.58 64.7927 122.58ZM72.3967 129.072C71.7167 129.072 71.1167 128.932 70.5967 128.652C70.0847 128.372 69.6847 127.988 69.3967 127.5C69.1167 127.012 68.9767 126.452 68.9767 125.82C68.9767 125.188 69.1127 124.628 69.3847 124.14C69.6647 123.652 70.0447 123.272 70.5247 123C71.0127 122.72 71.5607 122.58 72.1687 122.58C72.7847 122.58 73.3287 122.716 73.8007 122.988C74.2727 123.26 74.6407 123.644 74.9047 124.14C75.1767 124.628 75.3127 125.2 75.3127 125.856C75.3127 125.904 75.3087 125.96 75.3007 126.024C75.3007 126.088 75.2967 126.148 75.2887 126.204H69.8767V125.376H74.6887L74.2207 125.664C74.2287 125.256 74.1447 124.892 73.9687 124.572C73.7927 124.252 73.5487 124.004 73.2367 123.828C72.9327 123.644 72.5767 123.552 72.1687 123.552C71.7687 123.552 71.4127 123.644 71.1007 123.828C70.7887 124.004 70.5447 124.256 70.3687 124.584C70.1927 124.904 70.1047 125.272 70.1047 125.688V125.88C70.1047 126.304 70.2007 126.684 70.3927 127.02C70.5927 127.348 70.8687 127.604 71.2207 127.788C71.5727 127.972 71.9767 128.064 72.4327 128.064C72.8087 128.064 73.1487 128 73.4527 127.872C73.7647 127.744 74.0367 127.552 74.2687 127.296L74.9047 128.04C74.6167 128.376 74.2567 128.632 73.8247 128.808C73.4007 128.984 72.9247 129.072 72.3967 129.072ZM82.319 129.072C81.679 129.072 81.183 128.9 80.831 128.556C80.479 128.212 80.303 127.72 80.303 127.08V121.248H81.455V127.032C81.455 127.376 81.539 127.64 81.707 127.824C81.883 128.008 82.131 128.1 82.451 128.1C82.811 128.1 83.111 128 83.351 127.8L83.711 128.628C83.535 128.78 83.323 128.892 83.075 128.964C82.835 129.036 82.583 129.072 82.319 129.072ZM79.223 123.588V122.64H83.279V123.588H79.223ZM87.6168 129.072C86.9768 129.072 86.4088 128.932 85.9128 128.652C85.4168 128.372 85.0248 127.988 84.7368 127.5C84.4488 127.004 84.3048 126.444 84.3048 125.82C84.3048 125.188 84.4488 124.628 84.7368 124.14C85.0248 123.652 85.4168 123.272 85.9128 123C86.4088 122.72 86.9768 122.58 87.6168 122.58C88.2488 122.58 88.8128 122.72 89.3088 123C89.8128 123.272 90.2048 123.652 90.4848 124.14C90.7728 124.62 90.9168 125.18 90.9168 125.82C90.9168 126.452 90.7728 127.012 90.4848 127.5C90.2048 127.988 89.8128 128.372 89.3088 128.652C88.8128 128.932 88.2488 129.072 87.6168 129.072ZM87.6168 128.064C88.0248 128.064 88.3888 127.972 88.7088 127.788C89.0368 127.604 89.2928 127.344 89.4768 127.008C89.6608 126.664 89.7528 126.268 89.7528 125.82C89.7528 125.364 89.6608 124.972 89.4768 124.644C89.2928 124.308 89.0368 124.048 88.7088 123.864C88.3888 123.68 88.0248 123.588 87.6168 123.588C87.2088 123.588 86.8448 123.68 86.5248 123.864C86.2048 124.048 85.9488 124.308 85.7568 124.644C85.5648 124.972 85.4688 125.364 85.4688 125.82C85.4688 126.268 85.5648 126.664 85.7568 127.008C85.9488 127.344 86.2048 127.604 86.5248 127.788C86.8448 127.972 87.2088 128.064 87.6168 128.064ZM95.882 129.072C95.354 129.072 94.87 128.952 94.43 128.712C93.998 128.464 93.65 128.1 93.386 127.62C93.13 127.14 93.002 126.54 93.002 125.82C93.002 125.1 93.126 124.5 93.374 124.02C93.63 123.54 93.974 123.18 94.406 122.94C94.846 122.7 95.338 122.58 95.882 122.58C96.506 122.58 97.058 122.716 97.538 122.988C98.018 123.26 98.398 123.64 98.678 124.128C98.958 124.608 99.098 125.172 99.098 125.82C99.098 126.468 98.958 127.036 98.678 127.524C98.398 128.012 98.018 128.392 97.538 128.664C97.058 128.936 96.506 129.072 95.882 129.072ZM92.51 131.328V122.64H93.614V124.356L93.542 125.832L93.662 127.308V131.328H92.51ZM95.786 128.064C96.194 128.064 96.558 127.972 96.878 127.788C97.206 127.604 97.462 127.344 97.646 127.008C97.838 126.664 97.934 126.268 97.934 125.82C97.934 125.364 97.838 124.972 97.646 124.644C97.462 124.308 97.206 124.048 96.878 123.864C96.558 123.68 96.194 123.588 95.786 123.588C95.386 123.588 95.022 123.68 94.694 123.864C94.374 124.048 94.118 124.308 93.926 124.644C93.742 124.972 93.65 125.364 93.65 125.82C93.65 126.268 93.742 126.664 93.926 127.008C94.118 127.344 94.374 127.604 94.694 127.788C95.022 127.972 95.386 128.064 95.786 128.064ZM105.736 129.072C105.208 129.072 104.704 129 104.224 128.856C103.752 128.712 103.38 128.536 103.108 128.328L103.588 127.416C103.86 127.6 104.196 127.756 104.596 127.884C104.996 128.012 105.404 128.076 105.82 128.076C106.356 128.076 106.74 128 106.972 127.848C107.212 127.696 107.332 127.484 107.332 127.212C107.332 127.012 107.26 126.856 107.116 126.744C106.972 126.632 106.78 126.548 106.54 126.492C106.308 126.436 106.048 126.388 105.76 126.348C105.472 126.3 105.184 126.244 104.896 126.18C104.608 126.108 104.344 126.012 104.104 125.892C103.864 125.764 103.672 125.592 103.528 125.376C103.384 125.152 103.312 124.856 103.312 124.488C103.312 124.104 103.42 123.768 103.636 123.48C103.852 123.192 104.156 122.972 104.548 122.82C104.948 122.66 105.42 122.58 105.964 122.58C106.38 122.58 106.8 122.632 107.224 122.736C107.656 122.832 108.008 122.972 108.28 123.156L107.788 124.068C107.5 123.876 107.2 123.744 106.888 123.672C106.576 123.6 106.264 123.564 105.952 123.564C105.448 123.564 105.072 123.648 104.824 123.816C104.576 123.976 104.452 124.184 104.452 124.44C104.452 124.656 104.524 124.824 104.668 124.944C104.82 125.056 105.012 125.144 105.244 125.208C105.484 125.272 105.748 125.328 106.036 125.376C106.324 125.416 106.612 125.472 106.9 125.544C107.188 125.608 107.448 125.7 107.68 125.82C107.92 125.94 108.112 126.108 108.256 126.324C108.408 126.54 108.484 126.828 108.484 127.188C108.484 127.572 108.372 127.904 108.148 128.184C107.924 128.464 107.608 128.684 107.2 128.844C106.792 128.996 106.304 129.072 105.736 129.072ZM109.924 129V122.64H111.076V129H109.924ZM110.5 121.416C110.276 121.416 110.088 121.344 109.936 121.2C109.792 121.056 109.72 120.88 109.72 120.672C109.72 120.456 109.792 120.276 109.936 120.132C110.088 119.988 110.276 119.916 110.5 119.916C110.724 119.916 110.908 119.988 111.052 120.132C111.204 120.268 111.28 120.44 111.28 120.648C111.28 120.864 111.208 121.048 111.064 121.2C110.92 121.344 110.732 121.416 110.5 121.416ZM115.904 129.072C115.288 129.072 114.736 128.936 114.248 128.664C113.768 128.392 113.388 128.012 113.108 127.524C112.828 127.036 112.688 126.468 112.688 125.82C112.688 125.172 112.828 124.608 113.108 124.128C113.388 123.64 113.768 123.26 114.248 122.988C114.736 122.716 115.288 122.58 115.904 122.58C116.44 122.58 116.924 122.7 117.356 122.94C117.788 123.18 118.132 123.54 118.388 124.02C118.652 124.5 118.784 125.1 118.784 125.82C118.784 126.54 118.656 127.14 118.4 127.62C118.152 128.1 117.812 128.464 117.38 128.712C116.948 128.952 116.456 129.072 115.904 129.072ZM116 128.064C116.4 128.064 116.76 127.972 117.08 127.788C117.408 127.604 117.664 127.344 117.848 127.008C118.04 126.664 118.136 126.268 118.136 125.82C118.136 125.364 118.04 124.972 117.848 124.644C117.664 124.308 117.408 124.048 117.08 123.864C116.76 123.68 116.4 123.588 116 123.588C115.592 123.588 115.228 123.68 114.908 123.864C114.588 124.048 114.332 124.308 114.14 124.644C113.948 124.972 113.852 125.364 113.852 125.82C113.852 126.268 113.948 126.664 114.14 127.008C114.332 127.344 114.588 127.604 114.908 127.788C115.228 127.972 115.592 128.064 116 128.064ZM118.172 129V127.284L118.244 125.808L118.124 124.332V120.096H119.276V129H118.172ZM124.287 129.072C123.607 129.072 123.007 128.932 122.487 128.652C121.975 128.372 121.575 127.988 121.287 127.5C121.007 127.012 120.867 126.452 120.867 125.82C120.867 125.188 121.003 124.628 121.275 124.14C121.555 123.652 121.935 123.272 122.415 123C122.903 122.72 123.451 122.58 124.059 122.58C124.675 122.58 125.219 122.716 125.691 122.988C126.163 123.26 126.531 123.644 126.795 124.14C127.067 124.628 127.203 125.2 127.203 125.856C127.203 125.904 127.199 125.96 127.191 126.024C127.191 126.088 127.187 126.148 127.179 126.204H121.767V125.376H126.579L126.111 125.664C126.119 125.256 126.035 124.892 125.859 124.572C125.683 124.252 125.439 124.004 125.127 123.828C124.823 123.644 124.467 123.552 124.059 123.552C123.659 123.552 123.303 123.644 122.991 123.828C122.679 124.004 122.435 124.256 122.259 124.584C122.083 124.904 121.995 125.272 121.995 125.688V125.88C121.995 126.304 122.091 126.684 122.283 127.02C122.483 127.348 122.759 127.604 123.111 127.788C123.463 127.972 123.867 128.064 124.323 128.064C124.699 128.064 125.039 128 125.343 127.872C125.655 127.744 125.927 127.552 126.159 127.296L126.795 128.04C126.507 128.376 126.147 128.632 125.715 128.808C125.291 128.984 124.815 129.072 124.287 129.072ZM135.974 129V127.656L135.914 127.404V125.112C135.914 124.624 135.77 124.248 135.482 123.984C135.202 123.712 134.778 123.576 134.21 123.576C133.834 123.576 133.466 123.64 133.106 123.768C132.746 123.888 132.442 124.052 132.194 124.26L131.714 123.396C132.042 123.132 132.434 122.932 132.89 122.796C133.354 122.652 133.838 122.58 134.342 122.58C135.214 122.58 135.886 122.792 136.358 123.216C136.83 123.64 137.066 124.288 137.066 125.16V129H135.974ZM133.886 129.072C133.414 129.072 132.998 128.992 132.638 128.832C132.286 128.672 132.014 128.452 131.822 128.172C131.63 127.884 131.534 127.56 131.534 127.2C131.534 126.856 131.614 126.544 131.774 126.264C131.942 125.984 132.21 125.76 132.578 125.592C132.954 125.424 133.458 125.34 134.09 125.34H136.106V126.168H134.138C133.562 126.168 133.174 126.264 132.974 126.456C132.774 126.648 132.674 126.88 132.674 127.152C132.674 127.464 132.798 127.716 133.046 127.908C133.294 128.092 133.638 128.184 134.078 128.184C134.51 128.184 134.886 128.088 135.206 127.896C135.534 127.704 135.77 127.424 135.914 127.056L136.142 127.848C135.99 128.224 135.722 128.524 135.338 128.748C134.954 128.964 134.47 129.072 133.886 129.072ZM142.593 122.58C143.113 122.58 143.569 122.68 143.961 122.88C144.361 123.08 144.673 123.384 144.897 123.792C145.121 124.2 145.233 124.716 145.233 125.34V129H144.081V125.472C144.081 124.856 143.929 124.392 143.625 124.08C143.329 123.768 142.909 123.612 142.365 123.612C141.957 123.612 141.601 123.692 141.297 123.852C140.993 124.012 140.757 124.248 140.589 124.56C140.429 124.872 140.349 125.26 140.349 125.724V129H139.197V122.64H140.301V124.356L140.121 123.9C140.329 123.484 140.649 123.16 141.081 122.928C141.513 122.696 142.017 122.58 142.593 122.58ZM149.993 129.072C149.377 129.072 148.825 128.936 148.337 128.664C147.857 128.392 147.477 128.012 147.197 127.524C146.917 127.036 146.777 126.468 146.777 125.82C146.777 125.172 146.917 124.608 147.197 124.128C147.477 123.64 147.857 123.26 148.337 122.988C148.825 122.716 149.377 122.58 149.993 122.58C150.529 122.58 151.013 122.7 151.445 122.94C151.877 123.18 152.221 123.54 152.477 124.02C152.741 124.5 152.873 125.1 152.873 125.82C152.873 126.54 152.745 127.14 152.489 127.62C152.241 128.1 151.901 128.464 151.469 128.712C151.037 128.952 150.545 129.072 149.993 129.072ZM150.089 128.064C150.489 128.064 150.849 127.972 151.169 127.788C151.497 127.604 151.753 127.344 151.937 127.008C152.129 126.664 152.225 126.268 152.225 125.82C152.225 125.364 152.129 124.972 151.937 124.644C151.753 124.308 151.497 124.048 151.169 123.864C150.849 123.68 150.489 123.588 150.089 123.588C149.681 123.588 149.317 123.68 148.997 123.864C148.677 124.048 148.421 124.308 148.229 124.644C148.037 124.972 147.941 125.364 147.941 125.82C147.941 126.268 148.037 126.664 148.229 127.008C148.421 127.344 148.677 127.604 148.997 127.788C149.317 127.972 149.681 128.064 150.089 128.064ZM152.261 129V127.284L152.333 125.808L152.213 124.332V120.096H153.365V129H152.261ZM32.2667 144.072C31.7227 144.072 31.2307 143.952 30.7907 143.712C30.3587 143.464 30.0147 143.1 29.7587 142.62C29.5107 142.14 29.3867 141.54 29.3867 140.82C29.3867 140.1 29.5147 139.5 29.7707 139.02C30.0347 138.54 30.3827 138.18 30.8147 137.94C31.2547 137.7 31.7387 137.58 32.2667 137.58C32.8907 137.58 33.4427 137.716 33.9227 137.988C34.4027 138.26 34.7827 138.64 35.0627 139.128C35.3427 139.608 35.4827 140.172 35.4827 140.82C35.4827 141.468 35.3427 142.036 35.0627 142.524C34.7827 143.012 34.4027 143.392 33.9227 143.664C33.4427 143.936 32.8907 144.072 32.2667 144.072ZM28.8947 144V135.096H30.0467V139.332L29.9267 140.808L29.9987 142.284V144H28.8947ZM32.1707 143.064C32.5787 143.064 32.9427 142.972 33.2627 142.788C33.5907 142.604 33.8467 142.344 34.0307 142.008C34.2227 141.664 34.3187 141.268 34.3187 140.82C34.3187 140.364 34.2227 139.972 34.0307 139.644C33.8467 139.308 33.5907 139.048 33.2627 138.864C32.9427 138.68 32.5787 138.588 32.1707 138.588C31.7707 138.588 31.4067 138.68 31.0787 138.864C30.7587 139.048 30.5027 139.308 30.3107 139.644C30.1267 139.972 30.0347 140.364 30.0347 140.82C30.0347 141.268 30.1267 141.664 30.3107 142.008C30.5027 142.344 30.7587 142.604 31.0787 142.788C31.4067 142.972 31.7707 143.064 32.1707 143.064ZM39.7984 144.072C39.1584 144.072 38.5904 143.932 38.0944 143.652C37.5984 143.372 37.2064 142.988 36.9184 142.5C36.6304 142.004 36.4864 141.444 36.4864 140.82C36.4864 140.188 36.6304 139.628 36.9184 139.14C37.2064 138.652 37.5984 138.272 38.0944 138C38.5904 137.72 39.1584 137.58 39.7984 137.58C40.4304 137.58 40.9944 137.72 41.4904 138C41.9944 138.272 42.3864 138.652 42.6664 139.14C42.9544 139.62 43.0984 140.18 43.0984 140.82C43.0984 141.452 42.9544 142.012 42.6664 142.5C42.3864 142.988 41.9944 143.372 41.4904 143.652C40.9944 143.932 40.4304 144.072 39.7984 144.072ZM39.7984 143.064C40.2064 143.064 40.5704 142.972 40.8904 142.788C41.2184 142.604 41.4744 142.344 41.6584 142.008C41.8424 141.664 41.9344 141.268 41.9344 140.82C41.9344 140.364 41.8424 139.972 41.6584 139.644C41.4744 139.308 41.2184 139.048 40.8904 138.864C40.5704 138.68 40.2064 138.588 39.7984 138.588C39.3904 138.588 39.0264 138.68 38.7064 138.864C38.3864 139.048 38.1304 139.308 37.9384 139.644C37.7464 139.972 37.6504 140.364 37.6504 140.82C37.6504 141.268 37.7464 141.664 37.9384 142.008C38.1304 142.344 38.3864 142.604 38.7064 142.788C39.0264 142.972 39.3904 143.064 39.7984 143.064ZM46.8756 144.072C46.2356 144.072 45.7396 143.9 45.3876 143.556C45.0356 143.212 44.8596 142.72 44.8596 142.08V136.248H46.0116V142.032C46.0116 142.376 46.0956 142.64 46.2636 142.824C46.4396 143.008 46.6876 143.1 47.0076 143.1C47.3676 143.1 47.6676 143 47.9076 142.8L48.2676 143.628C48.0916 143.78 47.8796 143.892 47.6316 143.964C47.3916 144.036 47.1396 144.072 46.8756 144.072ZM43.7796 138.588V137.64H47.8356V138.588H43.7796ZM51.692 144.072C51.052 144.072 50.556 143.9 50.204 143.556C49.852 143.212 49.676 142.72 49.676 142.08V136.248H50.828V142.032C50.828 142.376 50.912 142.64 51.08 142.824C51.256 143.008 51.504 143.1 51.824 143.1C52.184 143.1 52.484 143 52.724 142.8L53.084 143.628C52.908 143.78 52.696 143.892 52.448 143.964C52.208 144.036 51.956 144.072 51.692 144.072ZM48.596 138.588V137.64H52.652V138.588H48.596ZM56.9898 144.072C56.3498 144.072 55.7818 143.932 55.2858 143.652C54.7898 143.372 54.3978 142.988 54.1098 142.5C53.8218 142.004 53.6778 141.444 53.6778 140.82C53.6778 140.188 53.8218 139.628 54.1098 139.14C54.3978 138.652 54.7898 138.272 55.2858 138C55.7818 137.72 56.3498 137.58 56.9898 137.58C57.6218 137.58 58.1858 137.72 58.6818 138C59.1858 138.272 59.5778 138.652 59.8578 139.14C60.1458 139.62 60.2898 140.18 60.2898 140.82C60.2898 141.452 60.1458 142.012 59.8578 142.5C59.5778 142.988 59.1858 143.372 58.6818 143.652C58.1858 143.932 57.6218 144.072 56.9898 144.072ZM56.9898 143.064C57.3978 143.064 57.7618 142.972 58.0818 142.788C58.4098 142.604 58.6658 142.344 58.8498 142.008C59.0338 141.664 59.1258 141.268 59.1258 140.82C59.1258 140.364 59.0338 139.972 58.8498 139.644C58.6658 139.308 58.4098 139.048 58.0818 138.864C57.7618 138.68 57.3978 138.588 56.9898 138.588C56.5818 138.588 56.2178 138.68 55.8978 138.864C55.5778 139.048 55.3218 139.308 55.1298 139.644C54.9378 139.972 54.8418 140.364 54.8418 140.82C54.8418 141.268 54.9378 141.664 55.1298 142.008C55.3218 142.344 55.5778 142.604 55.8978 142.788C56.2178 142.972 56.5818 143.064 56.9898 143.064ZM69.839 137.58C70.351 137.58 70.803 137.68 71.195 137.88C71.587 138.08 71.891 138.384 72.107 138.792C72.331 139.2 72.443 139.716 72.443 140.34V144H71.291V140.472C71.291 139.856 71.147 139.392 70.859 139.08C70.571 138.768 70.167 138.612 69.647 138.612C69.263 138.612 68.927 138.692 68.639 138.852C68.351 139.012 68.127 139.248 67.967 139.56C67.815 139.872 67.739 140.26 67.739 140.724V144H66.587V140.472C66.587 139.856 66.443 139.392 66.155 139.08C65.875 138.768 65.471 138.612 64.943 138.612C64.567 138.612 64.235 138.692 63.947 138.852C63.659 139.012 63.435 139.248 63.275 139.56C63.115 139.872 63.035 140.26 63.035 140.724V144H61.883V137.64H62.987V139.332L62.807 138.9C63.007 138.484 63.315 138.16 63.731 137.928C64.147 137.696 64.631 137.58 65.183 137.58C65.791 137.58 66.315 137.732 66.755 138.036C67.195 138.332 67.483 138.784 67.619 139.392L67.151 139.2C67.343 138.712 67.679 138.32 68.159 138.024C68.639 137.728 69.199 137.58 69.839 137.58ZM79.6094 144.072C79.0814 144.072 78.5774 144 78.0974 143.856C77.6254 143.712 77.2534 143.536 76.9814 143.328L77.4614 142.416C77.7334 142.6 78.0694 142.756 78.4694 142.884C78.8694 143.012 79.2774 143.076 79.6934 143.076C80.2294 143.076 80.6134 143 80.8454 142.848C81.0854 142.696 81.2054 142.484 81.2054 142.212C81.2054 142.012 81.1334 141.856 80.9894 141.744C80.8454 141.632 80.6534 141.548 80.4134 141.492C80.1814 141.436 79.9214 141.388 79.6334 141.348C79.3454 141.3 79.0574 141.244 78.7694 141.18C78.4814 141.108 78.2174 141.012 77.9774 140.892C77.7374 140.764 77.5454 140.592 77.4014 140.376C77.2574 140.152 77.1854 139.856 77.1854 139.488C77.1854 139.104 77.2934 138.768 77.5094 138.48C77.7254 138.192 78.0294 137.972 78.4214 137.82C78.8214 137.66 79.2934 137.58 79.8374 137.58C80.2534 137.58 80.6734 137.632 81.0974 137.736C81.5294 137.832 81.8814 137.972 82.1534 138.156L81.6614 139.068C81.3734 138.876 81.0734 138.744 80.7614 138.672C80.4494 138.6 80.1374 138.564 79.8254 138.564C79.3214 138.564 78.9454 138.648 78.6974 138.816C78.4494 138.976 78.3254 139.184 78.3254 139.44C78.3254 139.656 78.3974 139.824 78.5414 139.944C78.6934 140.056 78.8854 140.144 79.1174 140.208C79.3574 140.272 79.6214 140.328 79.9094 140.376C80.1974 140.416 80.4854 140.472 80.7734 140.544C81.0614 140.608 81.3214 140.7 81.5534 140.82C81.7934 140.94 81.9854 141.108 82.1294 141.324C82.2814 141.54 82.3574 141.828 82.3574 142.188C82.3574 142.572 82.2454 142.904 82.0214 143.184C81.7974 143.464 81.4814 143.684 81.0734 143.844C80.6654 143.996 80.1774 144.072 79.6094 144.072ZM83.7971 144V137.64H84.9491V144H83.7971ZM84.3731 136.416C84.1491 136.416 83.9611 136.344 83.8091 136.2C83.6651 136.056 83.5931 135.88 83.5931 135.672C83.5931 135.456 83.6651 135.276 83.8091 135.132C83.9611 134.988 84.1491 134.916 84.3731 134.916C84.5971 134.916 84.7811 134.988 84.9251 135.132C85.0771 135.268 85.1531 135.44 85.1531 135.648C85.1531 135.864 85.0811 136.048 84.9371 136.2C84.7931 136.344 84.6051 136.416 84.3731 136.416ZM89.7766 144.072C89.1606 144.072 88.6086 143.936 88.1206 143.664C87.6406 143.392 87.2606 143.012 86.9806 142.524C86.7006 142.036 86.5606 141.468 86.5606 140.82C86.5606 140.172 86.7006 139.608 86.9806 139.128C87.2606 138.64 87.6406 138.26 88.1206 137.988C88.6086 137.716 89.1606 137.58 89.7766 137.58C90.3126 137.58 90.7966 137.7 91.2286 137.94C91.6606 138.18 92.0046 138.54 92.2606 139.02C92.5246 139.5 92.6566 140.1 92.6566 140.82C92.6566 141.54 92.5286 142.14 92.2726 142.62C92.0246 143.1 91.6846 143.464 91.2526 143.712C90.8206 143.952 90.3286 144.072 89.7766 144.072ZM89.8726 143.064C90.2726 143.064 90.6326 142.972 90.9526 142.788C91.2806 142.604 91.5366 142.344 91.7206 142.008C91.9126 141.664 92.0086 141.268 92.0086 140.82C92.0086 140.364 91.9126 139.972 91.7206 139.644C91.5366 139.308 91.2806 139.048 90.9526 138.864C90.6326 138.68 90.2726 138.588 89.8726 138.588C89.4646 138.588 89.1006 138.68 88.7806 138.864C88.4606 139.048 88.2046 139.308 88.0126 139.644C87.8206 139.972 87.7246 140.364 87.7246 140.82C87.7246 141.268 87.8206 141.664 88.0126 142.008C88.2046 142.344 88.4606 142.604 88.7806 142.788C89.1006 142.972 89.4646 143.064 89.8726 143.064ZM92.0446 144V142.284L92.1166 140.808L91.9966 139.332V135.096H93.1486V144H92.0446ZM98.1603 144.072C97.4803 144.072 96.8803 143.932 96.3603 143.652C95.8483 143.372 95.4483 142.988 95.1603 142.5C94.8803 142.012 94.7403 141.452 94.7403 140.82C94.7403 140.188 94.8763 139.628 95.1483 139.14C95.4283 138.652 95.8083 138.272 96.2883 138C96.7763 137.72 97.3243 137.58 97.9323 137.58C98.5483 137.58 99.0923 137.716 99.5643 137.988C100.036 138.26 100.404 138.644 100.668 139.14C100.94 139.628 101.076 140.2 101.076 140.856C101.076 140.904 101.072 140.96 101.064 141.024C101.064 141.088 101.06 141.148 101.052 141.204H95.6403V140.376H100.452L99.9843 140.664C99.9923 140.256 99.9083 139.892 99.7323 139.572C99.5563 139.252 99.3123 139.004 99.0003 138.828C98.6963 138.644 98.3403 138.552 97.9323 138.552C97.5323 138.552 97.1763 138.644 96.8643 138.828C96.5523 139.004 96.3083 139.256 96.1323 139.584C95.9563 139.904 95.8683 140.272 95.8683 140.688V140.88C95.8683 141.304 95.9643 141.684 96.1563 142.02C96.3563 142.348 96.6323 142.604 96.9843 142.788C97.3363 142.972 97.7403 143.064 98.1963 143.064C98.5723 143.064 98.9123 143 99.2163 142.872C99.5283 142.744 99.8003 142.552 100.032 142.296L100.668 143.04C100.38 143.376 100.02 143.632 99.5883 143.808C99.1643 143.984 98.6883 144.072 98.1603 144.072ZM109.295 137.58C109.815 137.58 110.271 137.68 110.663 137.88C111.063 138.08 111.375 138.384 111.599 138.792C111.823 139.2 111.935 139.716 111.935 140.34V144H110.783V140.472C110.783 139.856 110.631 139.392 110.327 139.08C110.031 138.768 109.611 138.612 109.067 138.612C108.659 138.612 108.303 138.692 107.999 138.852C107.695 139.012 107.459 139.248 107.291 139.56C107.131 139.872 107.051 140.26 107.051 140.724V144H105.899V135.096H107.051V139.356L106.823 138.9C107.031 138.484 107.351 138.16 107.783 137.928C108.215 137.696 108.719 137.58 109.295 137.58ZM118.015 144V142.656L117.955 142.404V140.112C117.955 139.624 117.811 139.248 117.523 138.984C117.243 138.712 116.819 138.576 116.251 138.576C115.875 138.576 115.507 138.64 115.147 138.768C114.787 138.888 114.483 139.052 114.235 139.26L113.755 138.396C114.083 138.132 114.475 137.932 114.931 137.796C115.395 137.652 115.879 137.58 116.383 137.58C117.255 137.58 117.927 137.792 118.399 138.216C118.871 138.64 119.107 139.288 119.107 140.16V144H118.015ZM115.927 144.072C115.455 144.072 115.039 143.992 114.679 143.832C114.327 143.672 114.055 143.452 113.863 143.172C113.671 142.884 113.575 142.56 113.575 142.2C113.575 141.856 113.655 141.544 113.815 141.264C113.983 140.984 114.251 140.76 114.619 140.592C114.995 140.424 115.499 140.34 116.131 140.34H118.147V141.168H116.179C115.603 141.168 115.215 141.264 115.015 141.456C114.815 141.648 114.715 141.88 114.715 142.152C114.715 142.464 114.839 142.716 115.087 142.908C115.335 143.092 115.679 143.184 116.119 143.184C116.551 143.184 116.927 143.088 117.247 142.896C117.575 142.704 117.811 142.424 117.955 142.056L118.183 142.848C118.031 143.224 117.763 143.524 117.379 143.748C116.995 143.964 116.511 144.072 115.927 144.072ZM121.238 144V135.096H122.39V144H121.238ZM124.758 144V137.076C124.758 136.452 124.938 135.956 125.298 135.588C125.666 135.212 126.186 135.024 126.858 135.024C127.106 135.024 127.342 135.056 127.566 135.12C127.798 135.176 127.994 135.268 128.154 135.396L127.806 136.272C127.686 136.176 127.55 136.104 127.398 136.056C127.246 136 127.086 135.972 126.918 135.972C126.582 135.972 126.326 136.068 126.15 136.26C125.974 136.444 125.886 136.72 125.886 137.088V137.94L125.91 138.468V144H124.758ZM123.678 138.588V137.64H127.734V138.588H123.678ZM130.282 144L127.918 137.64H129.01L131.11 143.4H130.594L132.778 137.64H133.75L135.886 143.4H135.382L137.53 137.64H138.562L136.186 144H135.082L133.078 138.744H133.414L131.386 144H130.282ZM143.479 144V142.656L143.419 142.404V140.112C143.419 139.624 143.275 139.248 142.987 138.984C142.707 138.712 142.283 138.576 141.715 138.576C141.339 138.576 140.971 138.64 140.611 138.768C140.251 138.888 139.947 139.052 139.699 139.26L139.219 138.396C139.547 138.132 139.939 137.932 140.395 137.796C140.859 137.652 141.343 137.58 141.847 137.58C142.719 137.58 143.391 137.792 143.863 138.216C144.335 138.64 144.571 139.288 144.571 140.16V144H143.479ZM141.391 144.072C140.919 144.072 140.503 143.992 140.143 143.832C139.791 143.672 139.519 143.452 139.327 143.172C139.135 142.884 139.039 142.56 139.039 142.2C139.039 141.856 139.119 141.544 139.279 141.264C139.447 140.984 139.715 140.76 140.083 140.592C140.459 140.424 140.963 140.34 141.595 140.34H143.611V141.168H141.643C141.067 141.168 140.679 141.264 140.479 141.456C140.279 141.648 140.179 141.88 140.179 142.152C140.179 142.464 140.303 142.716 140.551 142.908C140.799 143.092 141.143 143.184 141.583 143.184C142.015 143.184 142.391 143.088 142.711 142.896C143.039 142.704 143.275 142.424 143.419 142.056L143.647 142.848C143.495 143.224 143.227 143.524 142.843 143.748C142.459 143.964 141.975 144.072 141.391 144.072ZM146.862 146.4C146.558 146.4 146.262 146.348 145.974 146.244C145.686 146.148 145.438 146.004 145.23 145.812L145.722 144.948C145.882 145.1 146.058 145.216 146.25 145.296C146.442 145.376 146.646 145.416 146.862 145.416C147.142 145.416 147.374 145.344 147.558 145.2C147.742 145.056 147.914 144.8 148.074 144.432L148.47 143.556L148.59 143.412L151.086 137.64H152.214L149.13 144.636C148.946 145.084 148.738 145.436 148.506 145.692C148.282 145.948 148.034 146.128 147.762 146.232C147.49 146.344 147.19 146.4 146.862 146.4ZM148.374 144.204L145.47 137.64H146.67L149.142 143.304L148.374 144.204ZM44.6243 159.072C44.0083 159.072 43.4563 158.936 42.9683 158.664C42.4883 158.392 42.1083 158.012 41.8283 157.524C41.5483 157.036 41.4083 156.468 41.4083 155.82C41.4083 155.172 41.5483 154.608 41.8283 154.128C42.1083 153.64 42.4883 153.26 42.9683 152.988C43.4563 152.716 44.0083 152.58 44.6243 152.58C45.1603 152.58 45.6443 152.7 46.0763 152.94C46.5083 153.18 46.8523 153.54 47.1083 154.02C47.3723 154.5 47.5043 155.1 47.5043 155.82C47.5043 156.54 47.3763 157.14 47.1203 157.62C46.8723 158.1 46.5323 158.464 46.1003 158.712C45.6683 158.952 45.1763 159.072 44.6243 159.072ZM44.7203 158.064C45.1203 158.064 45.4803 157.972 45.8003 157.788C46.1283 157.604 46.3843 157.344 46.5683 157.008C46.7603 156.664 46.8563 156.268 46.8563 155.82C46.8563 155.364 46.7603 154.972 46.5683 154.644C46.3843 154.308 46.1283 154.048 45.8003 153.864C45.4803 153.68 45.1203 153.588 44.7203 153.588C44.3123 153.588 43.9483 153.68 43.6283 153.864C43.3083 154.048 43.0523 154.308 42.8603 154.644C42.6683 154.972 42.5723 155.364 42.5723 155.82C42.5723 156.268 42.6683 156.664 42.8603 157.008C43.0523 157.344 43.3083 157.604 43.6283 157.788C43.9483 157.972 44.3123 158.064 44.7203 158.064ZM46.8923 159V157.284L46.9643 155.808L46.8443 154.332V150.096H47.9963V159H46.8923ZM52.9 159.072C52.26 159.072 51.692 158.932 51.196 158.652C50.7 158.372 50.308 157.988 50.02 157.5C49.732 157.004 49.588 156.444 49.588 155.82C49.588 155.188 49.732 154.628 50.02 154.14C50.308 153.652 50.7 153.272 51.196 153C51.692 152.72 52.26 152.58 52.9 152.58C53.532 152.58 54.096 152.72 54.592 153C55.096 153.272 55.488 153.652 55.768 154.14C56.056 154.62 56.2 155.18 56.2 155.82C56.2 156.452 56.056 157.012 55.768 157.5C55.488 157.988 55.096 158.372 54.592 158.652C54.096 158.932 53.532 159.072 52.9 159.072ZM52.9 158.064C53.308 158.064 53.672 157.972 53.992 157.788C54.32 157.604 54.576 157.344 54.76 157.008C54.944 156.664 55.036 156.268 55.036 155.82C55.036 155.364 54.944 154.972 54.76 154.644C54.576 154.308 54.32 154.048 53.992 153.864C53.672 153.68 53.308 153.588 52.9 153.588C52.492 153.588 52.128 153.68 51.808 153.864C51.488 154.048 51.232 154.308 51.04 154.644C50.848 154.972 50.752 155.364 50.752 155.82C50.752 156.268 50.848 156.664 51.04 157.008C51.232 157.344 51.488 157.604 51.808 157.788C52.128 157.972 52.492 158.064 52.9 158.064ZM58.9614 159L56.5974 152.64H57.6894L59.7894 158.4H59.2734L61.4574 152.64H62.4294L64.5654 158.4H64.0614L66.2094 152.64H67.2414L64.8654 159H63.7614L61.7574 153.744H62.0934L60.0654 159H58.9614ZM71.8064 152.58C72.3264 152.58 72.7824 152.68 73.1744 152.88C73.5744 153.08 73.8864 153.384 74.1104 153.792C74.3344 154.2 74.4464 154.716 74.4464 155.34V159H73.2944V155.472C73.2944 154.856 73.1424 154.392 72.8384 154.08C72.5424 153.768 72.1224 153.612 71.5784 153.612C71.1704 153.612 70.8144 153.692 70.5104 153.852C70.2064 154.012 69.9704 154.248 69.8024 154.56C69.6424 154.872 69.5624 155.26 69.5624 155.724V159H68.4104V152.64H69.5144V154.356L69.3344 153.9C69.5424 153.484 69.8624 153.16 70.2944 152.928C70.7264 152.696 71.2304 152.58 71.8064 152.58ZM81.985 159.072C81.345 159.072 80.849 158.9 80.497 158.556C80.145 158.212 79.969 157.72 79.969 157.08V151.248H81.121V157.032C81.121 157.376 81.205 157.64 81.373 157.824C81.549 158.008 81.797 158.1 82.117 158.1C82.477 158.1 82.777 158 83.017 157.8L83.377 158.628C83.201 158.78 82.989 158.892 82.741 158.964C82.501 159.036 82.249 159.072 81.985 159.072ZM78.889 153.588V152.64H82.945V153.588H78.889ZM88.1657 152.58C88.6857 152.58 89.1417 152.68 89.5337 152.88C89.9337 153.08 90.2457 153.384 90.4697 153.792C90.6937 154.2 90.8057 154.716 90.8057 155.34V159H89.6537V155.472C89.6537 154.856 89.5017 154.392 89.1977 154.08C88.9017 153.768 88.4817 153.612 87.9377 153.612C87.5297 153.612 87.1737 153.692 86.8697 153.852C86.5657 154.012 86.3297 154.248 86.1617 154.56C86.0017 154.872 85.9217 155.26 85.9217 155.724V159H84.7697V150.096H85.9217V154.356L85.6937 153.9C85.9017 153.484 86.2217 153.16 86.6537 152.928C87.0857 152.696 87.5897 152.58 88.1657 152.58ZM95.7697 159.072C95.0897 159.072 94.4897 158.932 93.9697 158.652C93.4577 158.372 93.0577 157.988 92.7697 157.5C92.4897 157.012 92.3497 156.452 92.3497 155.82C92.3497 155.188 92.4857 154.628 92.7577 154.14C93.0377 153.652 93.4177 153.272 93.8977 153C94.3857 152.72 94.9337 152.58 95.5417 152.58C96.1577 152.58 96.7017 152.716 97.1737 152.988C97.6457 153.26 98.0137 153.644 98.2777 154.14C98.5497 154.628 98.6857 155.2 98.6857 155.856C98.6857 155.904 98.6817 155.96 98.6737 156.024C98.6737 156.088 98.6697 156.148 98.6617 156.204H93.2497V155.376H98.0617L97.5937 155.664C97.6017 155.256 97.5177 154.892 97.3417 154.572C97.1657 154.252 96.9217 154.004 96.6097 153.828C96.3057 153.644 95.9497 153.552 95.5417 153.552C95.1417 153.552 94.7857 153.644 94.4737 153.828C94.1617 154.004 93.9177 154.256 93.7417 154.584C93.5657 154.904 93.4777 155.272 93.4777 155.688V155.88C93.4777 156.304 93.5737 156.684 93.7657 157.02C93.9657 157.348 94.2417 157.604 94.5937 157.788C94.9457 157.972 95.3497 158.064 95.8057 158.064C96.1817 158.064 96.5217 158 96.8257 157.872C97.1377 157.744 97.4097 157.552 97.6417 157.296L98.2777 158.04C97.9897 158.376 97.6297 158.632 97.1977 158.808C96.7737 158.984 96.2977 159.072 95.7697 159.072ZM105.332 159.072C104.804 159.072 104.3 159 103.82 158.856C103.348 158.712 102.976 158.536 102.704 158.328L103.184 157.416C103.456 157.6 103.792 157.756 104.192 157.884C104.592 158.012 105 158.076 105.416 158.076C105.952 158.076 106.336 158 106.568 157.848C106.808 157.696 106.928 157.484 106.928 157.212C106.928 157.012 106.856 156.856 106.712 156.744C106.568 156.632 106.376 156.548 106.136 156.492C105.904 156.436 105.644 156.388 105.356 156.348C105.068 156.3 104.78 156.244 104.492 156.18C104.204 156.108 103.94 156.012 103.7 155.892C103.46 155.764 103.268 155.592 103.124 155.376C102.98 155.152 102.908 154.856 102.908 154.488C102.908 154.104 103.016 153.768 103.232 153.48C103.448 153.192 103.752 152.972 104.144 152.82C104.544 152.66 105.016 152.58 105.56 152.58C105.976 152.58 106.396 152.632 106.82 152.736C107.252 152.832 107.604 152.972 107.876 153.156L107.384 154.068C107.096 153.876 106.796 153.744 106.484 153.672C106.172 153.6 105.86 153.564 105.548 153.564C105.044 153.564 104.668 153.648 104.42 153.816C104.172 153.976 104.048 154.184 104.048 154.44C104.048 154.656 104.12 154.824 104.264 154.944C104.416 155.056 104.608 155.144 104.84 155.208C105.08 155.272 105.344 155.328 105.632 155.376C105.92 155.416 106.208 155.472 106.496 155.544C106.784 155.608 107.044 155.7 107.276 155.82C107.516 155.94 107.708 156.108 107.852 156.324C108.004 156.54 108.08 156.828 108.08 157.188C108.08 157.572 107.968 157.904 107.744 158.184C107.52 158.464 107.204 158.684 106.796 158.844C106.388 158.996 105.9 159.072 105.332 159.072ZM112.916 152.58C113.436 152.58 113.892 152.68 114.284 152.88C114.684 153.08 114.996 153.384 115.22 153.792C115.444 154.2 115.556 154.716 115.556 155.34V159H114.404V155.472C114.404 154.856 114.252 154.392 113.948 154.08C113.652 153.768 113.232 153.612 112.688 153.612C112.28 153.612 111.924 153.692 111.62 153.852C111.316 154.012 111.08 154.248 110.912 154.56C110.752 154.872 110.672 155.26 110.672 155.724V159H109.52V150.096H110.672V154.356L110.444 153.9C110.652 153.484 110.972 153.16 111.404 152.928C111.836 152.696 112.34 152.58 112.916 152.58ZM120.52 159.072C119.84 159.072 119.24 158.932 118.72 158.652C118.208 158.372 117.808 157.988 117.52 157.5C117.24 157.012 117.1 156.452 117.1 155.82C117.1 155.188 117.236 154.628 117.508 154.14C117.788 153.652 118.168 153.272 118.648 153C119.136 152.72 119.684 152.58 120.292 152.58C120.908 152.58 121.452 152.716 121.924 152.988C122.396 153.26 122.764 153.644 123.028 154.14C123.3 154.628 123.436 155.2 123.436 155.856C123.436 155.904 123.432 155.96 123.424 156.024C123.424 156.088 123.42 156.148 123.412 156.204H118V155.376H122.812L122.344 155.664C122.352 155.256 122.268 154.892 122.092 154.572C121.916 154.252 121.672 154.004 121.36 153.828C121.056 153.644 120.7 153.552 120.292 153.552C119.892 153.552 119.536 153.644 119.224 153.828C118.912 154.004 118.668 154.256 118.492 154.584C118.316 154.904 118.228 155.272 118.228 155.688V155.88C118.228 156.304 118.324 156.684 118.516 157.02C118.716 157.348 118.992 157.604 119.344 157.788C119.696 157.972 120.1 158.064 120.556 158.064C120.932 158.064 121.272 158 121.576 157.872C121.888 157.744 122.16 157.552 122.392 157.296L123.028 158.04C122.74 158.376 122.38 158.632 121.948 158.808C121.524 158.984 121.048 159.072 120.52 159.072ZM127.867 159.072C127.187 159.072 126.587 158.932 126.067 158.652C125.555 158.372 125.155 157.988 124.867 157.5C124.587 157.012 124.447 156.452 124.447 155.82C124.447 155.188 124.583 154.628 124.855 154.14C125.135 153.652 125.515 153.272 125.995 153C126.483 152.72 127.031 152.58 127.639 152.58C128.255 152.58 128.799 152.716 129.271 152.988C129.743 153.26 130.111 153.644 130.375 154.14C130.647 154.628 130.783 155.2 130.783 155.856C130.783 155.904 130.779 155.96 130.771 156.024C130.771 156.088 130.767 156.148 130.759 156.204H125.347V155.376H130.159L129.691 155.664C129.699 155.256 129.615 154.892 129.439 154.572C129.263 154.252 129.019 154.004 128.707 153.828C128.403 153.644 128.047 153.552 127.639 153.552C127.239 153.552 126.883 153.644 126.571 153.828C126.259 154.004 126.015 154.256 125.839 154.584C125.663 154.904 125.575 155.272 125.575 155.688V155.88C125.575 156.304 125.671 156.684 125.863 157.02C126.063 157.348 126.339 157.604 126.691 157.788C127.043 157.972 127.447 158.064 127.903 158.064C128.279 158.064 128.619 158 128.923 157.872C129.235 157.744 129.507 157.552 129.739 157.296L130.375 158.04C130.087 158.376 129.727 158.632 129.295 158.808C128.871 158.984 128.395 159.072 127.867 159.072ZM134.567 159.072C133.927 159.072 133.431 158.9 133.079 158.556C132.727 158.212 132.551 157.72 132.551 157.08V151.248H133.703V157.032C133.703 157.376 133.787 157.64 133.955 157.824C134.131 158.008 134.379 158.1 134.699 158.1C135.059 158.1 135.359 158 135.599 157.8L135.959 158.628C135.783 158.78 135.571 158.892 135.323 158.964C135.083 159.036 134.831 159.072 134.567 159.072ZM131.471 153.588V152.64H135.527V153.588H131.471ZM137.745 159.072C137.521 159.072 137.329 158.996 137.169 158.844C137.009 158.684 136.929 158.484 136.929 158.244C136.929 158.004 137.009 157.808 137.169 157.656C137.329 157.504 137.521 157.428 137.745 157.428C137.961 157.428 138.145 157.504 138.297 157.656C138.457 157.808 138.537 158.004 138.537 158.244C138.537 158.484 138.457 158.684 138.297 158.844C138.145 158.996 137.961 159.072 137.745 159.072Z" fill="#008E86"/>
<path d="M45 55L67.5 32.5H112.5L135 55L112.5 77.5H67.5L45 55Z" fill="#00D8CC" stroke="#00635D" stroke-width="2" stroke-linejoin="round"/>
<path d="M67.5 32.5L112.5 32.5L90 55L67.5 32.5Z" fill="#008E86" stroke="#00635D" stroke-width="2" stroke-linejoin="round"/>
<path d="M112.5 77.5L67.5 77.5L90 55L112.5 77.5Z" fill="#008E86" stroke="#00635D" stroke-width="2" stroke-linejoin="round"/>
<path d="M57 44H123" stroke="#333333" stroke-width="2" stroke-dasharray="4 6"/>
<path d="M56 66H124" stroke="#333333" stroke-width="2" stroke-dasharray="4 6"/>
<path opacity="0.25" d="M90 32L90 78" stroke="#333333" stroke-width="2"/>
<path opacity="0.25" d="M45 55L135 55" stroke="#333333" stroke-width="2"/>
<path d="M88.349 49.9371C88.8666 49.7444 89.1299 49.1685 88.9371 48.651L85.796 40.2169C85.6032 39.6994 85.0274 39.4361 84.5098 39.6288C83.9923 39.8216 83.729 40.3974 83.9217 40.915L86.7139 48.4119L79.2169 51.204C78.6994 51.3968 78.4361 51.9726 78.6288 52.4902C78.8216 53.0077 79.3974 53.271 79.915 53.0783L88.349 49.9371ZM88.4158 34.9094C88.9181 34.6798 89.1391 34.0864 88.9094 33.5841C88.6798 33.0819 88.0864 32.8609 87.5841 33.0906L88.4158 34.9094ZM88.4158 48.0906C83.6963 45.9325 82 43.5465 82 41.5314L80 41.5314C80 44.7882 82.6958 47.6742 87.5842 49.9094L88.4158 48.0906ZM82 41.5314C82 40.6168 82.6575 39.3702 83.9298 38.0631C85.163 36.7962 86.8105 35.6435 88.4158 34.9094L87.5841 33.0906C85.7581 33.9255 83.9057 35.2205 82.4967 36.6681C81.1268 38.0754 80 39.8099 80 41.5314L82 41.5314Z" fill="black"/>
<path d="M93.651 58.0629C93.1334 58.2556 92.8701 58.8315 93.0629 59.349L96.204 67.7831C96.3968 68.3006 96.9726 68.5639 97.4902 68.3712C98.0077 68.1784 98.271 67.6026 98.0783 67.085L95.2861 59.5881L102.783 56.796C103.301 56.6032 103.564 56.0274 103.371 55.5098C103.178 54.9923 102.603 54.729 102.085 54.9217L93.651 58.0629ZM93.5842 73.0906C93.0819 73.3202 92.8609 73.9136 93.0906 74.4158C93.3202 74.9181 93.9136 75.1391 94.4158 74.9094L93.5842 73.0906ZM93.5842 59.9094C98.3037 62.0675 100 64.4535 100 66.4686L102 66.4686C102 63.2118 99.3042 60.3258 94.4159 58.0906L93.5842 59.9094ZM100 66.4686C100 67.3832 99.3425 68.6298 98.0702 69.9369C96.837 71.2038 95.1895 72.3565 93.5842 73.0906L94.4158 74.9094C96.2419 74.0745 98.0943 72.7795 99.5033 71.3319C100.873 69.9246 102 68.1901 102 66.4686L100 66.4686Z" fill="black"/>
</svg>
