<svg width="180" height="180" viewBox="0 0 180 180" fill="none" xmlns="http://www.w3.org/2000/svg">
<g clip-path="url(#clip0_14_3017)">
<rect width="180" height="180" rx="20" fill="#F2F2F2"/>
<g clip-path="url(#clip1_14_3017)">
<path d="M0 30L-1.31134e-06 0L30 -1.31134e-06L30 10C30 21.0457 21.0457 30 10 30L0 30Z" fill="#333333"/>
<path d="M20.3644 18.648H18.5404V21H16.0124V18.648H9.98038V16.904L15.2604 9.8H17.9804L13.0844 16.536H16.0924V14.44H18.5404V16.536H20.3644V18.648Z" fill="#F2F2F2"/>
</g>
<path d="M31.3245 137V128.6H34.6005C35.3365 128.6 35.9645 128.716 36.4845 128.948C37.0045 129.18 37.4045 129.516 37.6845 129.956C37.9645 130.396 38.1045 130.92 38.1045 131.528C38.1045 132.136 37.9645 132.66 37.6845 133.1C37.4045 133.532 37.0045 133.864 36.4845 134.096C35.9645 134.328 35.3365 134.444 34.6005 134.444H31.9845L32.5245 133.892V137H31.3245ZM36.9405 137L34.8045 133.952H36.0885L38.2485 137H36.9405ZM32.5245 134.012L31.9845 133.424H34.5645C35.3325 133.424 35.9125 133.26 36.3045 132.932C36.7045 132.596 36.9045 132.128 36.9045 131.528C36.9045 130.928 36.7045 130.464 36.3045 130.136C35.9125 129.808 35.3325 129.644 34.5645 129.644H31.9845L32.5245 129.044V134.012ZM42.5992 137.072C41.9592 137.072 41.3912 136.932 40.8952 136.652C40.3992 136.372 40.0072 135.988 39.7192 135.5C39.4312 135.004 39.2872 134.444 39.2872 133.82C39.2872 133.188 39.4312 132.628 39.7192 132.14C40.0072 131.652 40.3992 131.272 40.8952 131C41.3912 130.72 41.9592 130.58 42.5992 130.58C43.2312 130.58 43.7952 130.72 44.2912 131C44.7952 131.272 45.1872 131.652 45.4672 132.14C45.7552 132.62 45.8992 133.18 45.8992 133.82C45.8992 134.452 45.7552 135.012 45.4672 135.5C45.1872 135.988 44.7952 136.372 44.2912 136.652C43.7952 136.932 43.2312 137.072 42.5992 137.072ZM42.5992 136.064C43.0072 136.064 43.3712 135.972 43.6912 135.788C44.0192 135.604 44.2752 135.344 44.4592 135.008C44.6432 134.664 44.7352 134.268 44.7352 133.82C44.7352 133.364 44.6432 132.972 44.4592 132.644C44.2752 132.308 44.0192 132.048 43.6912 131.864C43.3712 131.68 43.0072 131.588 42.5992 131.588C42.1912 131.588 41.8272 131.68 41.5072 131.864C41.1872 132.048 40.9312 132.308 40.7392 132.644C40.5472 132.972 40.4512 133.364 40.4512 133.82C40.4512 134.268 40.5472 134.664 40.7392 135.008C40.9312 135.344 41.1872 135.604 41.5072 135.788C41.8272 135.972 42.1912 136.064 42.5992 136.064ZM49.6764 137.072C49.0364 137.072 48.5404 136.9 48.1884 136.556C47.8364 136.212 47.6604 135.72 47.6604 135.08V129.248H48.8124V135.032C48.8124 135.376 48.8964 135.64 49.0644 135.824C49.2404 136.008 49.4884 136.1 49.8084 136.1C50.1684 136.1 50.4684 136 50.7084 135.8L51.0684 136.628C50.8924 136.78 50.6804 136.892 50.4324 136.964C50.1924 137.036 49.9404 137.072 49.6764 137.072ZM46.5804 131.588V130.64H50.6364V131.588H46.5804ZM56.4091 137V135.656L56.3491 135.404V133.112C56.3491 132.624 56.2051 132.248 55.9171 131.984C55.6371 131.712 55.2131 131.576 54.6451 131.576C54.2691 131.576 53.9011 131.64 53.5411 131.768C53.1811 131.888 52.8771 132.052 52.6291 132.26L52.1491 131.396C52.4771 131.132 52.8691 130.932 53.3251 130.796C53.7891 130.652 54.2731 130.58 54.7771 130.58C55.6491 130.58 56.3211 130.792 56.7931 131.216C57.2651 131.64 57.5011 132.288 57.5011 133.16V137H56.4091ZM54.3211 137.072C53.8491 137.072 53.4331 136.992 53.0731 136.832C52.7211 136.672 52.4491 136.452 52.2571 136.172C52.0651 135.884 51.9691 135.56 51.9691 135.2C51.9691 134.856 52.0491 134.544 52.2091 134.264C52.3771 133.984 52.6451 133.76 53.0131 133.592C53.3891 133.424 53.8931 133.34 54.5251 133.34H56.5411V134.168H54.5731C53.9971 134.168 53.6091 134.264 53.4091 134.456C53.2091 134.648 53.1091 134.88 53.1091 135.152C53.1091 135.464 53.2331 135.716 53.4811 135.908C53.7291 136.092 54.0731 136.184 54.5131 136.184C54.9451 136.184 55.3211 136.088 55.6411 135.896C55.9691 135.704 56.2051 135.424 56.3491 135.056L56.5771 135.848C56.4251 136.224 56.1571 136.524 55.7731 136.748C55.3891 136.964 54.9051 137.072 54.3211 137.072ZM61.817 137.072C61.177 137.072 60.681 136.9 60.329 136.556C59.977 136.212 59.801 135.72 59.801 135.08V129.248H60.953V135.032C60.953 135.376 61.037 135.64 61.205 135.824C61.381 136.008 61.629 136.1 61.949 136.1C62.309 136.1 62.609 136 62.849 135.8L63.209 136.628C63.033 136.78 62.821 136.892 62.573 136.964C62.333 137.036 62.081 137.072 61.817 137.072ZM58.721 131.588V130.64H62.777V131.588H58.721ZM67.2228 137.072C66.5428 137.072 65.9428 136.932 65.4228 136.652C64.9108 136.372 64.5108 135.988 64.2228 135.5C63.9428 135.012 63.8028 134.452 63.8028 133.82C63.8028 133.188 63.9388 132.628 64.2108 132.14C64.4908 131.652 64.8708 131.272 65.3508 131C65.8388 130.72 66.3868 130.58 66.9948 130.58C67.6108 130.58 68.1548 130.716 68.6268 130.988C69.0988 131.26 69.4668 131.644 69.7308 132.14C70.0028 132.628 70.1388 133.2 70.1388 133.856C70.1388 133.904 70.1348 133.96 70.1268 134.024C70.1268 134.088 70.1228 134.148 70.1148 134.204H64.7028V133.376H69.5148L69.0468 133.664C69.0548 133.256 68.9708 132.892 68.7948 132.572C68.6188 132.252 68.3748 132.004 68.0628 131.828C67.7588 131.644 67.4028 131.552 66.9948 131.552C66.5948 131.552 66.2388 131.644 65.9268 131.828C65.6148 132.004 65.3708 132.256 65.1948 132.584C65.0188 132.904 64.9308 133.272 64.9308 133.688V133.88C64.9308 134.304 65.0268 134.684 65.2188 135.02C65.4188 135.348 65.6948 135.604 66.0468 135.788C66.3988 135.972 66.8028 136.064 67.2588 136.064C67.6348 136.064 67.9748 136 68.2788 135.872C68.5908 135.744 68.8628 135.552 69.0948 135.296L69.7308 136.04C69.4428 136.376 69.0828 136.632 68.6508 136.808C68.2268 136.984 67.7508 137.072 67.2228 137.072ZM77.1451 137.072C76.5051 137.072 76.0091 136.9 75.6571 136.556C75.3051 136.212 75.1291 135.72 75.1291 135.08V129.248H76.2811V135.032C76.2811 135.376 76.3651 135.64 76.5331 135.824C76.7091 136.008 76.9571 136.1 77.2771 136.1C77.6371 136.1 77.9371 136 78.1771 135.8L78.5371 136.628C78.3611 136.78 78.1491 136.892 77.9011 136.964C77.6611 137.036 77.4091 137.072 77.1451 137.072ZM74.0491 131.588V130.64H78.1051V131.588H74.0491ZM83.3259 130.58C83.8459 130.58 84.3019 130.68 84.6939 130.88C85.0939 131.08 85.4059 131.384 85.6299 131.792C85.8539 132.2 85.9659 132.716 85.9659 133.34V137H84.8139V133.472C84.8139 132.856 84.6619 132.392 84.3579 132.08C84.0619 131.768 83.6419 131.612 83.0979 131.612C82.6899 131.612 82.3339 131.692 82.0299 131.852C81.7259 132.012 81.4899 132.248 81.3219 132.56C81.1619 132.872 81.0819 133.26 81.0819 133.724V137H79.9299V128.096H81.0819V132.356L80.8539 131.9C81.0619 131.484 81.3819 131.16 81.8139 130.928C82.2459 130.696 82.7499 130.58 83.3259 130.58ZM90.9299 137.072C90.2499 137.072 89.6499 136.932 89.1299 136.652C88.6179 136.372 88.2179 135.988 87.9299 135.5C87.6499 135.012 87.5099 134.452 87.5099 133.82C87.5099 133.188 87.6459 132.628 87.9179 132.14C88.1979 131.652 88.5779 131.272 89.0579 131C89.5459 130.72 90.0939 130.58 90.7019 130.58C91.3179 130.58 91.8619 130.716 92.3339 130.988C92.8059 131.26 93.1739 131.644 93.4379 132.14C93.7099 132.628 93.8459 133.2 93.8459 133.856C93.8459 133.904 93.8419 133.96 93.8339 134.024C93.8339 134.088 93.8299 134.148 93.8219 134.204H88.4099V133.376H93.2219L92.7539 133.664C92.7619 133.256 92.6779 132.892 92.5019 132.572C92.3259 132.252 92.0819 132.004 91.7699 131.828C91.4659 131.644 91.1099 131.552 90.7019 131.552C90.3019 131.552 89.9459 131.644 89.6339 131.828C89.3219 132.004 89.0779 132.256 88.9019 132.584C88.7259 132.904 88.6379 133.272 88.6379 133.688V133.88C88.6379 134.304 88.7339 134.684 88.9259 135.02C89.1259 135.348 89.4019 135.604 89.7539 135.788C90.1059 135.972 90.5099 136.064 90.9659 136.064C91.3419 136.064 91.6819 136 91.9859 135.872C92.2979 135.744 92.5699 135.552 92.8019 135.296L93.4379 136.04C93.1499 136.376 92.7899 136.632 92.3579 136.808C91.9339 136.984 91.4579 137.072 90.9299 137.072ZM102.04 137.072C101.496 137.072 101.004 136.952 100.564 136.712C100.132 136.464 99.7882 136.1 99.5322 135.62C99.2842 135.14 99.1602 134.54 99.1602 133.82C99.1602 133.1 99.2882 132.5 99.5442 132.02C99.8082 131.54 100.156 131.18 100.588 130.94C101.028 130.7 101.512 130.58 102.04 130.58C102.664 130.58 103.216 130.716 103.696 130.988C104.176 131.26 104.556 131.64 104.836 132.128C105.116 132.608 105.256 133.172 105.256 133.82C105.256 134.468 105.116 135.036 104.836 135.524C104.556 136.012 104.176 136.392 103.696 136.664C103.216 136.936 102.664 137.072 102.04 137.072ZM98.6682 137V128.096H99.8202V132.332L99.7002 133.808L99.7722 135.284V137H98.6682ZM101.944 136.064C102.352 136.064 102.716 135.972 103.036 135.788C103.364 135.604 103.62 135.344 103.804 135.008C103.996 134.664 104.092 134.268 104.092 133.82C104.092 133.364 103.996 132.972 103.804 132.644C103.62 132.308 103.364 132.048 103.036 131.864C102.716 131.68 102.352 131.588 101.944 131.588C101.544 131.588 101.18 131.68 100.852 131.864C100.532 132.048 100.276 132.308 100.084 132.644C99.9002 132.972 99.8082 133.364 99.8082 133.82C99.8082 134.268 99.9002 134.664 100.084 135.008C100.276 135.344 100.532 135.604 100.852 135.788C101.18 135.972 101.544 136.064 101.944 136.064ZM106.848 137V128.096H108V137H106.848ZM114.147 137V135.656L114.087 135.404V133.112C114.087 132.624 113.943 132.248 113.655 131.984C113.375 131.712 112.951 131.576 112.383 131.576C112.007 131.576 111.639 131.64 111.279 131.768C110.919 131.888 110.615 132.052 110.367 132.26L109.887 131.396C110.215 131.132 110.607 130.932 111.063 130.796C111.527 130.652 112.011 130.58 112.515 130.58C113.387 130.58 114.059 130.792 114.531 131.216C115.003 131.64 115.239 132.288 115.239 133.16V137H114.147ZM112.059 137.072C111.587 137.072 111.171 136.992 110.811 136.832C110.459 136.672 110.187 136.452 109.995 136.172C109.803 135.884 109.707 135.56 109.707 135.2C109.707 134.856 109.787 134.544 109.947 134.264C110.115 133.984 110.383 133.76 110.751 133.592C111.127 133.424 111.631 133.34 112.263 133.34H114.279V134.168H112.311C111.735 134.168 111.347 134.264 111.147 134.456C110.947 134.648 110.847 134.88 110.847 135.152C110.847 135.464 110.971 135.716 111.219 135.908C111.467 136.092 111.811 136.184 112.251 136.184C112.683 136.184 113.059 136.088 113.379 135.896C113.707 135.704 113.943 135.424 114.087 135.056L114.315 135.848C114.163 136.224 113.895 136.524 113.511 136.748C113.127 136.964 112.643 137.072 112.059 137.072ZM119.999 137.072C119.383 137.072 118.831 136.936 118.343 136.664C117.863 136.392 117.483 136.012 117.203 135.524C116.923 135.036 116.783 134.468 116.783 133.82C116.783 133.172 116.923 132.608 117.203 132.128C117.483 131.64 117.863 131.26 118.343 130.988C118.831 130.716 119.383 130.58 119.999 130.58C120.535 130.58 121.019 130.7 121.451 130.94C121.883 131.18 122.227 131.54 122.483 132.02C122.747 132.5 122.879 133.1 122.879 133.82C122.879 134.54 122.751 135.14 122.495 135.62C122.247 136.1 121.907 136.464 121.475 136.712C121.043 136.952 120.551 137.072 119.999 137.072ZM120.095 136.064C120.495 136.064 120.855 135.972 121.175 135.788C121.503 135.604 121.759 135.344 121.943 135.008C122.135 134.664 122.231 134.268 122.231 133.82C122.231 133.364 122.135 132.972 121.943 132.644C121.759 132.308 121.503 132.048 121.175 131.864C120.855 131.68 120.495 131.588 120.095 131.588C119.687 131.588 119.323 131.68 119.003 131.864C118.683 132.048 118.427 132.308 118.235 132.644C118.043 132.972 117.947 133.364 117.947 133.82C117.947 134.268 118.043 134.664 118.235 135.008C118.427 135.344 118.683 135.604 119.003 135.788C119.323 135.972 119.687 136.064 120.095 136.064ZM122.267 137V135.284L122.339 133.808L122.219 132.332V128.096H123.371V137H122.267ZM128.383 137.072C127.703 137.072 127.103 136.932 126.583 136.652C126.071 136.372 125.671 135.988 125.383 135.5C125.103 135.012 124.963 134.452 124.963 133.82C124.963 133.188 125.099 132.628 125.371 132.14C125.651 131.652 126.031 131.272 126.511 131C126.999 130.72 127.547 130.58 128.155 130.58C128.771 130.58 129.315 130.716 129.787 130.988C130.259 131.26 130.627 131.644 130.891 132.14C131.163 132.628 131.299 133.2 131.299 133.856C131.299 133.904 131.295 133.96 131.287 134.024C131.287 134.088 131.283 134.148 131.275 134.204H125.863V133.376H130.675L130.207 133.664C130.215 133.256 130.131 132.892 129.955 132.572C129.779 132.252 129.535 132.004 129.223 131.828C128.919 131.644 128.563 131.552 128.155 131.552C127.755 131.552 127.399 131.644 127.087 131.828C126.775 132.004 126.531 132.256 126.355 132.584C126.179 132.904 126.091 133.272 126.091 133.688V133.88C126.091 134.304 126.187 134.684 126.379 135.02C126.579 135.348 126.855 135.604 127.207 135.788C127.559 135.972 127.963 136.064 128.419 136.064C128.795 136.064 129.135 136 129.439 135.872C129.751 135.744 130.023 135.552 130.255 135.296L130.891 136.04C130.603 136.376 130.243 136.632 129.811 136.808C129.387 136.984 128.911 137.072 128.383 137.072ZM135.485 134.936V134.096L139.781 128.6H141.077L136.817 134.096L136.205 133.904H142.913V134.936H135.485ZM140.153 137V134.936L140.189 133.904V132.08H141.317V137H140.153ZM146.333 137.096C145.741 137.096 145.165 137.004 144.605 136.82C144.053 136.636 143.601 136.388 143.249 136.076L143.801 135.128C144.081 135.392 144.445 135.608 144.893 135.776C145.341 135.944 145.817 136.028 146.321 136.028C146.961 136.028 147.453 135.892 147.797 135.62C148.141 135.348 148.313 134.984 148.313 134.528C148.313 134.216 148.237 133.944 148.085 133.712C147.933 133.48 147.669 133.304 147.293 133.184C146.925 133.056 146.417 132.992 145.769 132.992H143.861L144.305 128.6H149.045V129.644H144.749L145.373 129.056L145.025 132.524L144.401 131.948H146.021C146.861 131.948 147.537 132.056 148.049 132.272C148.561 132.488 148.933 132.788 149.165 133.172C149.397 133.548 149.513 133.984 149.513 134.48C149.513 134.96 149.397 135.4 149.165 135.8C148.933 136.192 148.581 136.508 148.109 136.748C147.645 136.98 147.053 137.096 146.333 137.096ZM67.7102 152.072C67.0942 152.072 66.5422 151.936 66.0542 151.664C65.5742 151.392 65.1942 151.012 64.9142 150.524C64.6342 150.036 64.4942 149.468 64.4942 148.82C64.4942 148.172 64.6342 147.608 64.9142 147.128C65.1942 146.64 65.5742 146.26 66.0542 145.988C66.5422 145.716 67.0942 145.58 67.7102 145.58C68.2462 145.58 68.7302 145.7 69.1622 145.94C69.5942 146.18 69.9382 146.54 70.1942 147.02C70.4582 147.5 70.5902 148.1 70.5902 148.82C70.5902 149.54 70.4622 150.14 70.2062 150.62C69.9582 151.1 69.6182 151.464 69.1862 151.712C68.7542 151.952 68.2622 152.072 67.7102 152.072ZM67.8062 151.064C68.2062 151.064 68.5662 150.972 68.8862 150.788C69.2142 150.604 69.4702 150.344 69.6542 150.008C69.8462 149.664 69.9422 149.268 69.9422 148.82C69.9422 148.364 69.8462 147.972 69.6542 147.644C69.4702 147.308 69.2142 147.048 68.8862 146.864C68.5662 146.68 68.2062 146.588 67.8062 146.588C67.3982 146.588 67.0342 146.68 66.7142 146.864C66.3942 147.048 66.1382 147.308 65.9462 147.644C65.7542 147.972 65.6582 148.364 65.6582 148.82C65.6582 149.268 65.7542 149.664 65.9462 150.008C66.1382 150.344 66.3942 150.604 66.7142 150.788C67.0342 150.972 67.3982 151.064 67.8062 151.064ZM69.9782 152V150.284L70.0502 148.808L69.9302 147.332V143.096H71.0822V152H69.9782ZM76.0939 152.072C75.4139 152.072 74.8139 151.932 74.2939 151.652C73.7819 151.372 73.3819 150.988 73.0939 150.5C72.8139 150.012 72.6739 149.452 72.6739 148.82C72.6739 148.188 72.8099 147.628 73.0819 147.14C73.3619 146.652 73.7419 146.272 74.2219 146C74.7099 145.72 75.2579 145.58 75.8659 145.58C76.4819 145.58 77.0259 145.716 77.4979 145.988C77.9699 146.26 78.3379 146.644 78.6019 147.14C78.8739 147.628 79.0099 148.2 79.0099 148.856C79.0099 148.904 79.0059 148.96 78.9979 149.024C78.9979 149.088 78.9939 149.148 78.9859 149.204H73.5739V148.376H78.3859L77.9179 148.664C77.9259 148.256 77.8419 147.892 77.6659 147.572C77.4899 147.252 77.2459 147.004 76.9339 146.828C76.6299 146.644 76.2739 146.552 75.8659 146.552C75.4659 146.552 75.1099 146.644 74.7979 146.828C74.4859 147.004 74.2419 147.256 74.0659 147.584C73.8899 147.904 73.8019 148.272 73.8019 148.688V148.88C73.8019 149.304 73.8979 149.684 74.0899 150.02C74.2899 150.348 74.5659 150.604 74.9179 150.788C75.2699 150.972 75.6739 151.064 76.1299 151.064C76.5059 151.064 76.8459 151 77.1499 150.872C77.4619 150.744 77.7339 150.552 77.9659 150.296L78.6019 151.04C78.3139 151.376 77.9539 151.632 77.5219 151.808C77.0979 151.984 76.6219 152.072 76.0939 152.072ZM83.3936 154.4C82.8096 154.4 82.2416 154.316 81.6896 154.148C81.1456 153.988 80.7016 153.756 80.3576 153.452L80.9096 152.564C81.2056 152.82 81.5696 153.02 82.0016 153.164C82.4336 153.316 82.8856 153.392 83.3576 153.392C84.1096 153.392 84.6616 153.216 85.0136 152.864C85.3656 152.512 85.5416 151.976 85.5416 151.256V149.912L85.6616 148.652L85.6016 147.38V145.64H86.6936V151.136C86.6936 152.256 86.4136 153.08 85.8536 153.608C85.2936 154.136 84.4736 154.4 83.3936 154.4ZM83.2496 151.736C82.6336 151.736 82.0816 151.608 81.5936 151.352C81.1136 151.088 80.7296 150.724 80.4416 150.26C80.1616 149.796 80.0216 149.26 80.0216 148.652C80.0216 148.036 80.1616 147.5 80.4416 147.044C80.7296 146.58 81.1136 146.22 81.5936 145.964C82.0816 145.708 82.6336 145.58 83.2496 145.58C83.7936 145.58 84.2896 145.692 84.7376 145.916C85.1856 146.132 85.5416 146.468 85.8056 146.924C86.0776 147.38 86.2136 147.956 86.2136 148.652C86.2136 149.34 86.0776 149.912 85.8056 150.368C85.5416 150.824 85.1856 151.168 84.7376 151.4C84.2896 151.624 83.7936 151.736 83.2496 151.736ZM83.3816 150.728C83.8056 150.728 84.1816 150.64 84.5096 150.464C84.8376 150.288 85.0936 150.044 85.2776 149.732C85.4696 149.42 85.5656 149.06 85.5656 148.652C85.5656 148.244 85.4696 147.884 85.2776 147.572C85.0936 147.26 84.8376 147.02 84.5096 146.852C84.1816 146.676 83.8056 146.588 83.3816 146.588C82.9576 146.588 82.5776 146.676 82.2416 146.852C81.9136 147.02 81.6536 147.26 81.4616 147.572C81.2776 147.884 81.1856 148.244 81.1856 148.652C81.1856 149.06 81.2776 149.42 81.4616 149.732C81.6536 150.044 81.9136 150.288 82.2416 150.464C82.5776 150.64 82.9576 150.728 83.3816 150.728ZM88.8947 152V145.64H89.9987V147.368L89.8907 146.936C90.0667 146.496 90.3627 146.16 90.7787 145.928C91.1947 145.696 91.7067 145.58 92.3147 145.58V146.696C92.2667 146.688 92.2187 146.684 92.1707 146.684C92.1307 146.684 92.0907 146.684 92.0507 146.684C91.4347 146.684 90.9467 146.868 90.5867 147.236C90.2267 147.604 90.0467 148.136 90.0467 148.832V152H88.8947ZM96.508 152.072C95.828 152.072 95.228 151.932 94.708 151.652C94.196 151.372 93.796 150.988 93.508 150.5C93.228 150.012 93.088 149.452 93.088 148.82C93.088 148.188 93.224 147.628 93.496 147.14C93.776 146.652 94.156 146.272 94.636 146C95.124 145.72 95.672 145.58 96.28 145.58C96.896 145.58 97.44 145.716 97.912 145.988C98.384 146.26 98.752 146.644 99.016 147.14C99.288 147.628 99.424 148.2 99.424 148.856C99.424 148.904 99.42 148.96 99.412 149.024C99.412 149.088 99.408 149.148 99.4 149.204H93.988V148.376H98.8L98.332 148.664C98.34 148.256 98.256 147.892 98.08 147.572C97.904 147.252 97.66 147.004 97.348 146.828C97.044 146.644 96.688 146.552 96.28 146.552C95.88 146.552 95.524 146.644 95.212 146.828C94.9 147.004 94.656 147.256 94.48 147.584C94.304 147.904 94.216 148.272 94.216 148.688V148.88C94.216 149.304 94.312 149.684 94.504 150.02C94.704 150.348 94.98 150.604 95.332 150.788C95.684 150.972 96.088 151.064 96.544 151.064C96.92 151.064 97.26 151 97.564 150.872C97.876 150.744 98.148 150.552 98.38 150.296L99.016 151.04C98.728 151.376 98.368 151.632 97.936 151.808C97.512 151.984 97.036 152.072 96.508 152.072ZM103.856 152.072C103.176 152.072 102.576 151.932 102.056 151.652C101.544 151.372 101.144 150.988 100.856 150.5C100.576 150.012 100.436 149.452 100.436 148.82C100.436 148.188 100.572 147.628 100.844 147.14C101.124 146.652 101.504 146.272 101.984 146C102.472 145.72 103.02 145.58 103.628 145.58C104.244 145.58 104.788 145.716 105.26 145.988C105.732 146.26 106.1 146.644 106.364 147.14C106.636 147.628 106.772 148.2 106.772 148.856C106.772 148.904 106.768 148.96 106.76 149.024C106.76 149.088 106.756 149.148 106.748 149.204H101.336V148.376H106.148L105.68 148.664C105.688 148.256 105.604 147.892 105.428 147.572C105.252 147.252 105.008 147.004 104.696 146.828C104.392 146.644 104.036 146.552 103.628 146.552C103.228 146.552 102.872 146.644 102.56 146.828C102.248 147.004 102.004 147.256 101.828 147.584C101.652 147.904 101.564 148.272 101.564 148.688V148.88C101.564 149.304 101.66 149.684 101.852 150.02C102.052 150.348 102.328 150.604 102.68 150.788C103.032 150.972 103.436 151.064 103.892 151.064C104.268 151.064 104.608 151 104.912 150.872C105.224 150.744 105.496 150.552 105.728 150.296L106.364 151.04C106.076 151.376 105.716 151.632 105.284 151.808C104.86 151.984 104.384 152.072 103.856 152.072ZM110.195 152.072C109.667 152.072 109.163 152 108.683 151.856C108.211 151.712 107.839 151.536 107.567 151.328L108.047 150.416C108.319 150.6 108.655 150.756 109.055 150.884C109.455 151.012 109.863 151.076 110.279 151.076C110.815 151.076 111.199 151 111.431 150.848C111.671 150.696 111.791 150.484 111.791 150.212C111.791 150.012 111.719 149.856 111.575 149.744C111.431 149.632 111.239 149.548 110.999 149.492C110.767 149.436 110.507 149.388 110.219 149.348C109.931 149.3 109.643 149.244 109.355 149.18C109.067 149.108 108.803 149.012 108.563 148.892C108.323 148.764 108.131 148.592 107.987 148.376C107.843 148.152 107.771 147.856 107.771 147.488C107.771 147.104 107.879 146.768 108.095 146.48C108.311 146.192 108.615 145.972 109.007 145.82C109.407 145.66 109.879 145.58 110.423 145.58C110.839 145.58 111.259 145.632 111.683 145.736C112.115 145.832 112.467 145.972 112.739 146.156L112.247 147.068C111.959 146.876 111.659 146.744 111.347 146.672C111.035 146.6 110.723 146.564 110.411 146.564C109.907 146.564 109.531 146.648 109.283 146.816C109.035 146.976 108.911 147.184 108.911 147.44C108.911 147.656 108.983 147.824 109.127 147.944C109.279 148.056 109.471 148.144 109.703 148.208C109.943 148.272 110.207 148.328 110.495 148.376C110.783 148.416 111.071 148.472 111.359 148.544C111.647 148.608 111.907 148.7 112.139 148.82C112.379 148.94 112.571 149.108 112.715 149.324C112.867 149.54 112.943 149.828 112.943 150.188C112.943 150.572 112.831 150.904 112.607 151.184C112.383 151.464 112.067 151.684 111.659 151.844C111.251 151.996 110.763 152.072 110.195 152.072ZM114.659 152.072C114.435 152.072 114.243 151.996 114.083 151.844C113.923 151.684 113.843 151.484 113.843 151.244C113.843 151.004 113.923 150.808 114.083 150.656C114.243 150.504 114.435 150.428 114.659 150.428C114.875 150.428 115.059 150.504 115.211 150.656C115.371 150.808 115.451 151.004 115.451 151.244C115.451 151.484 115.371 151.684 115.211 151.844C115.059 151.996 114.875 152.072 114.659 152.072Z" fill="#008E86"/>
<path d="M45 55L56.25 43.75L123.75 43.75L135 55L123.75 66.25L56.25 66.25L45 55Z" fill="#00D8CC" stroke="#00635D" stroke-width="2" stroke-linejoin="round"/>
<path d="M124 66.25L56.5 66.2499L67.75 54.9999L112.75 55L124 66.25Z" fill="#008E86" stroke="#00635D" stroke-width="2" stroke-linejoin="round"/>
<path d="M56.5 43.75L124 43.7501L112.75 55.0001L67.75 55L56.5 43.75Z" fill="#008E86" stroke="#00635D" stroke-width="2" stroke-linejoin="round"/>
<path opacity="0.25" d="M90 44L90 66" stroke="#333333" stroke-width="2"/>
<path opacity="0.25" d="M45 55L135 55" stroke="#333333" stroke-width="2"/>
<path d="M78.2908 55.705C78.6801 56.0967 79.3133 56.0986 79.705 55.7092C80.0967 55.3199 80.0986 54.6867 79.7092 54.295L78.2908 55.705ZM80 21.997C79.9983 21.4447 79.5493 20.9984 78.997 21L69.9971 21.0268C69.4448 21.0285 68.9984 21.4775 69 22.0298C69.0017 22.5821 69.4507 23.0285 70.003 23.0268L78.003 23.003L78.0268 31.0029C78.0285 31.5552 78.4775 32.0016 79.0298 32C79.5821 31.9983 80.0285 31.5493 80.0268 30.997L80 21.997ZM79.7092 54.295C75.0905 49.6487 73 44.1025 73 38.569L71 38.569C71 44.6339 73.3017 50.6861 78.2908 55.705L79.7092 54.295ZM73 38.569C73 35.854 73.8413 32.7164 75.1277 29.8089C76.4139 26.9019 78.102 24.3218 79.7092 22.705L78.2908 21.295C76.4667 23.13 74.6547 25.935 73.2987 28.9997C71.943 32.0639 71 35.4849 71 38.569L73 38.569Z" fill="black"/>
<path d="M107.709 53.295C107.32 52.9033 106.687 52.9014 106.295 53.2908C105.903 53.6801 105.901 54.3133 106.291 54.705L107.709 53.295ZM106 87.003C106.002 87.5553 106.451 88.0016 107.003 88L116.003 87.9732C116.555 87.9715 117.002 87.5225 117 86.9702C116.998 86.4179 116.549 85.9715 115.997 85.9732L107.997 85.997L107.973 77.9971C107.972 77.4448 107.522 76.9984 106.97 77C106.418 77.0017 105.972 77.4507 105.973 78.003L106 87.003ZM106.291 54.705C110.91 59.3513 113 64.8975 113 70.431L115 70.431C115 64.3661 112.698 58.3139 107.709 53.295L106.291 54.705ZM113 70.431C113 73.146 112.159 76.2836 110.872 79.1911C109.586 82.0981 107.898 84.6782 106.291 86.295L107.709 87.705C109.533 85.87 111.345 83.065 112.701 80.0003C114.057 76.9361 115 73.5151 115 70.431L113 70.431Z" fill="black"/>
</g>
<defs>
<clipPath id="clip0_14_3017">
<rect width="180" height="180" rx="20" fill="white"/>
</clipPath>
<clipPath id="clip1_14_3017">
<path d="M0 30L-1.31134e-06 0L30 -1.31134e-06L30 10C30 21.0457 21.0457 30 10 30L0 30Z" fill="white"/>
</clipPath>
</defs>
</svg>
