<svg width="180" height="180" viewBox="0 0 180 180" fill="none" xmlns="http://www.w3.org/2000/svg">
<g clip-path="url(#clip0_14_3045)">
<rect width="180" height="180" rx="20" fill="#F2F2F2"/>
<g clip-path="url(#clip1_14_3045)">
<path d="M0 30L-1.31134e-06 0L30 -1.31134e-06L30 10C30 21.0457 21.0457 30 10 30L0 30Z" fill="#333333"/>
<path d="M14.7062 14.008C16.2849 14.008 17.4475 14.3227 18.1942 14.952C18.9515 15.5813 19.3302 16.424 19.3302 17.48C19.3302 18.1627 19.1595 18.7867 18.8182 19.352C18.4769 19.9067 17.9542 20.3547 17.2502 20.696C16.5569 21.0267 15.6982 21.192 14.6742 21.192C13.8849 21.192 13.1062 21.0907 12.3382 20.888C11.5809 20.6747 10.9355 20.376 10.4022 19.992L11.4262 18.008C11.8529 18.328 12.3435 18.5787 12.8982 18.76C13.4529 18.9307 14.0235 19.016 14.6102 19.016C15.2609 19.016 15.7729 18.888 16.1462 18.632C16.5195 18.376 16.7062 18.0187 16.7062 17.56C16.7062 17.08 16.5089 16.7173 16.1142 16.472C15.7302 16.2267 15.0582 16.104 14.0982 16.104H11.2342L11.8102 9.8H18.6422V11.88H13.9702L13.7942 14.008H14.7062Z" fill="#F2F2F2"/>
</g>
<path d="M42.8201 137.096C41.7161 137.096 40.8481 136.78 40.2161 136.148C39.5841 135.516 39.2681 134.592 39.2681 133.376V128.6H40.4681V133.328C40.4681 134.264 40.6721 134.948 41.0801 135.38C41.4961 135.812 42.0801 136.028 42.8321 136.028C43.5921 136.028 44.1761 135.812 44.5841 135.38C45.0001 134.948 45.2081 134.264 45.2081 133.328V128.6H46.3721V133.376C46.3721 134.592 46.0561 135.516 45.4241 136.148C44.8001 136.78 43.9321 137.096 42.8201 137.096ZM52.0603 130.58C52.5803 130.58 53.0363 130.68 53.4283 130.88C53.8283 131.08 54.1403 131.384 54.3643 131.792C54.5883 132.2 54.7003 132.716 54.7003 133.34V137H53.5483V133.472C53.5483 132.856 53.3963 132.392 53.0923 132.08C52.7963 131.768 52.3763 131.612 51.8323 131.612C51.4243 131.612 51.0683 131.692 50.7643 131.852C50.4603 132.012 50.2243 132.248 50.0563 132.56C49.8963 132.872 49.8163 133.26 49.8163 133.724V137H48.6643V130.64H49.7683V132.356L49.5883 131.9C49.7963 131.484 50.1163 131.16 50.5483 130.928C50.9803 130.696 51.4843 130.58 52.0603 130.58ZM57.0002 137V130.076C57.0002 129.452 57.1802 128.956 57.5402 128.588C57.9082 128.212 58.4282 128.024 59.1002 128.024C59.3482 128.024 59.5842 128.056 59.8082 128.12C60.0402 128.176 60.2362 128.268 60.3962 128.396L60.0482 129.272C59.9282 129.176 59.7922 129.104 59.6402 129.056C59.4882 129 59.3282 128.972 59.1602 128.972C58.8242 128.972 58.5682 129.068 58.3922 129.26C58.2162 129.444 58.1282 129.72 58.1282 130.088V130.94L58.1522 131.468V137H57.0002ZM55.9202 131.588V130.64H59.9762V131.588H55.9202ZM63.693 137.072C63.053 137.072 62.485 136.932 61.989 136.652C61.493 136.372 61.101 135.988 60.813 135.5C60.525 135.004 60.381 134.444 60.381 133.82C60.381 133.188 60.525 132.628 60.813 132.14C61.101 131.652 61.493 131.272 61.989 131C62.485 130.72 63.053 130.58 63.693 130.58C64.325 130.58 64.889 130.72 65.385 131C65.889 131.272 66.281 131.652 66.561 132.14C66.849 132.62 66.993 133.18 66.993 133.82C66.993 134.452 66.849 135.012 66.561 135.5C66.281 135.988 65.889 136.372 65.385 136.652C64.889 136.932 64.325 137.072 63.693 137.072ZM63.693 136.064C64.101 136.064 64.465 135.972 64.785 135.788C65.113 135.604 65.369 135.344 65.553 135.008C65.737 134.664 65.829 134.268 65.829 133.82C65.829 133.364 65.737 132.972 65.553 132.644C65.369 132.308 65.113 132.048 64.785 131.864C64.465 131.68 64.101 131.588 63.693 131.588C63.285 131.588 62.921 131.68 62.601 131.864C62.281 132.048 62.025 132.308 61.833 132.644C61.641 132.972 61.545 133.364 61.545 133.82C61.545 134.268 61.641 134.664 61.833 135.008C62.025 135.344 62.281 135.604 62.601 135.788C62.921 135.972 63.285 136.064 63.693 136.064ZM68.5861 137V128.096H69.7381V137H68.5861ZM74.5657 137.072C73.9497 137.072 73.3977 136.936 72.9097 136.664C72.4297 136.392 72.0497 136.012 71.7697 135.524C71.4897 135.036 71.3497 134.468 71.3497 133.82C71.3497 133.172 71.4897 132.608 71.7697 132.128C72.0497 131.64 72.4297 131.26 72.9097 130.988C73.3977 130.716 73.9497 130.58 74.5657 130.58C75.1017 130.58 75.5857 130.7 76.0177 130.94C76.4497 131.18 76.7937 131.54 77.0497 132.02C77.3137 132.5 77.4457 133.1 77.4457 133.82C77.4457 134.54 77.3177 135.14 77.0617 135.62C76.8137 136.1 76.4737 136.464 76.0417 136.712C75.6097 136.952 75.1177 137.072 74.5657 137.072ZM74.6617 136.064C75.0617 136.064 75.4217 135.972 75.7417 135.788C76.0697 135.604 76.3257 135.344 76.5097 135.008C76.7017 134.664 76.7977 134.268 76.7977 133.82C76.7977 133.364 76.7017 132.972 76.5097 132.644C76.3257 132.308 76.0697 132.048 75.7417 131.864C75.4217 131.68 75.0617 131.588 74.6617 131.588C74.2537 131.588 73.8897 131.68 73.5697 131.864C73.2497 132.048 72.9937 132.308 72.8017 132.644C72.6097 132.972 72.5137 133.364 72.5137 133.82C72.5137 134.268 72.6097 134.664 72.8017 135.008C72.9937 135.344 73.2497 135.604 73.5697 135.788C73.8897 135.972 74.2537 136.064 74.6617 136.064ZM76.8337 137V135.284L76.9057 133.808L76.7857 132.332V128.096H77.9377V137H76.8337ZM85.524 137.072C84.884 137.072 84.388 136.9 84.036 136.556C83.684 136.212 83.508 135.72 83.508 135.08V129.248H84.66V135.032C84.66 135.376 84.744 135.64 84.912 135.824C85.088 136.008 85.336 136.1 85.656 136.1C86.016 136.1 86.316 136 86.556 135.8L86.916 136.628C86.74 136.78 86.528 136.892 86.28 136.964C86.04 137.036 85.788 137.072 85.524 137.072ZM82.428 131.588V130.64H86.484V131.588H82.428ZM91.7048 130.58C92.2248 130.58 92.6808 130.68 93.0728 130.88C93.4728 131.08 93.7848 131.384 94.0088 131.792C94.2328 132.2 94.3448 132.716 94.3448 133.34V137H93.1928V133.472C93.1928 132.856 93.0408 132.392 92.7368 132.08C92.4408 131.768 92.0208 131.612 91.4768 131.612C91.0688 131.612 90.7128 131.692 90.4088 131.852C90.1048 132.012 89.8688 132.248 89.7008 132.56C89.5408 132.872 89.4608 133.26 89.4608 133.724V137H88.3088V128.096H89.4608V132.356L89.2328 131.9C89.4408 131.484 89.7608 131.16 90.1928 130.928C90.6248 130.696 91.1288 130.58 91.7048 130.58ZM99.3088 137.072C98.6288 137.072 98.0288 136.932 97.5088 136.652C96.9968 136.372 96.5968 135.988 96.3088 135.5C96.0288 135.012 95.8888 134.452 95.8888 133.82C95.8888 133.188 96.0248 132.628 96.2968 132.14C96.5768 131.652 96.9568 131.272 97.4368 131C97.9248 130.72 98.4728 130.58 99.0808 130.58C99.6968 130.58 100.241 130.716 100.713 130.988C101.185 131.26 101.553 131.644 101.817 132.14C102.089 132.628 102.225 133.2 102.225 133.856C102.225 133.904 102.221 133.96 102.213 134.024C102.213 134.088 102.209 134.148 102.201 134.204H96.7888V133.376H101.601L101.133 133.664C101.141 133.256 101.057 132.892 100.881 132.572C100.705 132.252 100.461 132.004 100.149 131.828C99.8448 131.644 99.4888 131.552 99.0808 131.552C98.6808 131.552 98.3248 131.644 98.0128 131.828C97.7008 132.004 97.4568 132.256 97.2808 132.584C97.1048 132.904 97.0168 133.272 97.0168 133.688V133.88C97.0168 134.304 97.1128 134.684 97.3048 135.02C97.5048 135.348 97.7808 135.604 98.1328 135.788C98.4848 135.972 98.8888 136.064 99.3448 136.064C99.7208 136.064 100.061 136 100.365 135.872C100.677 135.744 100.949 135.552 101.181 135.296L101.817 136.04C101.529 136.376 101.169 136.632 100.737 136.808C100.313 136.984 99.8368 137.072 99.3088 137.072ZM109.879 137.072C109.199 137.072 108.599 136.932 108.079 136.652C107.567 136.372 107.167 135.988 106.879 135.5C106.599 135.012 106.459 134.452 106.459 133.82C106.459 133.188 106.595 132.628 106.867 132.14C107.147 131.652 107.527 131.272 108.007 131C108.495 130.72 109.043 130.58 109.651 130.58C110.267 130.58 110.811 130.716 111.283 130.988C111.755 131.26 112.123 131.644 112.387 132.14C112.659 132.628 112.795 133.2 112.795 133.856C112.795 133.904 112.791 133.96 112.783 134.024C112.783 134.088 112.779 134.148 112.771 134.204H107.359V133.376H112.171L111.703 133.664C111.711 133.256 111.627 132.892 111.451 132.572C111.275 132.252 111.031 132.004 110.719 131.828C110.415 131.644 110.059 131.552 109.651 131.552C109.251 131.552 108.895 131.644 108.583 131.828C108.271 132.004 108.027 132.256 107.851 132.584C107.675 132.904 107.587 133.272 107.587 133.688V133.88C107.587 134.304 107.683 134.684 107.875 135.02C108.075 135.348 108.351 135.604 108.703 135.788C109.055 135.972 109.459 136.064 109.915 136.064C110.291 136.064 110.631 136 110.935 135.872C111.247 135.744 111.519 135.552 111.751 135.296L112.387 136.04C112.099 136.376 111.739 136.632 111.307 136.808C110.883 136.984 110.407 137.072 109.879 137.072ZM117.791 130.58C118.311 130.58 118.767 130.68 119.159 130.88C119.559 131.08 119.871 131.384 120.095 131.792C120.319 132.2 120.431 132.716 120.431 133.34V137H119.279V133.472C119.279 132.856 119.127 132.392 118.823 132.08C118.527 131.768 118.107 131.612 117.563 131.612C117.155 131.612 116.799 131.692 116.495 131.852C116.191 132.012 115.955 132.248 115.787 132.56C115.627 132.872 115.547 133.26 115.547 133.724V137H114.395V130.64H115.499V132.356L115.319 131.9C115.527 131.484 115.847 131.16 116.279 130.928C116.711 130.696 117.215 130.58 117.791 130.58ZM124.747 137.072C124.107 137.072 123.611 136.9 123.259 136.556C122.907 136.212 122.731 135.72 122.731 135.08V129.248H123.883V135.032C123.883 135.376 123.967 135.64 124.135 135.824C124.311 136.008 124.559 136.1 124.879 136.1C125.239 136.1 125.539 136 125.779 135.8L126.139 136.628C125.963 136.78 125.751 136.892 125.503 136.964C125.263 137.036 125.011 137.072 124.747 137.072ZM121.651 131.588V130.64H125.707V131.588H121.651ZM127.531 137V130.64H128.683V137H127.531ZM128.107 129.416C127.883 129.416 127.695 129.344 127.543 129.2C127.399 129.056 127.327 128.88 127.327 128.672C127.327 128.456 127.399 128.276 127.543 128.132C127.695 127.988 127.883 127.916 128.107 127.916C128.331 127.916 128.515 127.988 128.659 128.132C128.811 128.268 128.887 128.44 128.887 128.648C128.887 128.864 128.815 129.048 128.671 129.2C128.527 129.344 128.339 129.416 128.107 129.416ZM130.883 137V130.64H131.987V132.368L131.879 131.936C132.055 131.496 132.351 131.16 132.767 130.928C133.183 130.696 133.695 130.58 134.303 130.58V131.696C134.255 131.688 134.207 131.684 134.159 131.684C134.119 131.684 134.079 131.684 134.039 131.684C133.423 131.684 132.935 131.868 132.575 132.236C132.215 132.604 132.035 133.136 132.035 133.832V137H130.883ZM138.496 137.072C137.816 137.072 137.216 136.932 136.696 136.652C136.184 136.372 135.784 135.988 135.496 135.5C135.216 135.012 135.076 134.452 135.076 133.82C135.076 133.188 135.212 132.628 135.484 132.14C135.764 131.652 136.144 131.272 136.624 131C137.112 130.72 137.66 130.58 138.268 130.58C138.884 130.58 139.428 130.716 139.9 130.988C140.372 131.26 140.74 131.644 141.004 132.14C141.276 132.628 141.412 133.2 141.412 133.856C141.412 133.904 141.408 133.96 141.4 134.024C141.4 134.088 141.396 134.148 141.388 134.204H135.976V133.376H140.788L140.32 133.664C140.328 133.256 140.244 132.892 140.068 132.572C139.892 132.252 139.648 132.004 139.336 131.828C139.032 131.644 138.676 131.552 138.268 131.552C137.868 131.552 137.512 131.644 137.2 131.828C136.888 132.004 136.644 132.256 136.468 132.584C136.292 132.904 136.204 133.272 136.204 133.688V133.88C136.204 134.304 136.3 134.684 136.492 135.02C136.692 135.348 136.968 135.604 137.32 135.788C137.672 135.972 138.076 136.064 138.532 136.064C138.908 136.064 139.248 136 139.552 135.872C139.864 135.744 140.136 135.552 140.368 135.296L141.004 136.04C140.716 136.376 140.356 136.632 139.924 136.808C139.5 136.984 139.024 137.072 138.496 137.072ZM74.5762 152.072C74.0482 152.072 73.5442 152 73.0642 151.856C72.5922 151.712 72.2202 151.536 71.9482 151.328L72.4282 150.416C72.7002 150.6 73.0362 150.756 73.4362 150.884C73.8362 151.012 74.2442 151.076 74.6602 151.076C75.1962 151.076 75.5802 151 75.8122 150.848C76.0522 150.696 76.1722 150.484 76.1722 150.212C76.1722 150.012 76.1002 149.856 75.9562 149.744C75.8122 149.632 75.6202 149.548 75.3802 149.492C75.1482 149.436 74.8882 149.388 74.6002 149.348C74.3122 149.3 74.0242 149.244 73.7362 149.18C73.4482 149.108 73.1842 149.012 72.9442 148.892C72.7042 148.764 72.5122 148.592 72.3682 148.376C72.2242 148.152 72.1522 147.856 72.1522 147.488C72.1522 147.104 72.2602 146.768 72.4762 146.48C72.6922 146.192 72.9962 145.972 73.3882 145.82C73.7882 145.66 74.2602 145.58 74.8042 145.58C75.2202 145.58 75.6402 145.632 76.0642 145.736C76.4962 145.832 76.8482 145.972 77.1202 146.156L76.6282 147.068C76.3402 146.876 76.0402 146.744 75.7282 146.672C75.4162 146.6 75.1042 146.564 74.7922 146.564C74.2882 146.564 73.9122 146.648 73.6642 146.816C73.4162 146.976 73.2922 147.184 73.2922 147.44C73.2922 147.656 73.3642 147.824 73.5082 147.944C73.6602 148.056 73.8522 148.144 74.0842 148.208C74.3242 148.272 74.5882 148.328 74.8762 148.376C75.1642 148.416 75.4522 148.472 75.7402 148.544C76.0282 148.608 76.2882 148.7 76.5202 148.82C76.7602 148.94 76.9522 149.108 77.0962 149.324C77.2482 149.54 77.3242 149.828 77.3242 150.188C77.3242 150.572 77.2122 150.904 76.9882 151.184C76.7642 151.464 76.4482 151.684 76.0402 151.844C75.6322 151.996 75.1442 152.072 74.5762 152.072ZM82.1599 145.58C82.6799 145.58 83.1359 145.68 83.5279 145.88C83.9279 146.08 84.2399 146.384 84.4639 146.792C84.6879 147.2 84.7999 147.716 84.7999 148.34V152H83.6479V148.472C83.6479 147.856 83.4959 147.392 83.1919 147.08C82.8959 146.768 82.4759 146.612 81.9319 146.612C81.5239 146.612 81.1679 146.692 80.8639 146.852C80.5599 147.012 80.3239 147.248 80.1559 147.56C79.9959 147.872 79.9159 148.26 79.9159 148.724V152H78.7639V143.096H79.9159V147.356L79.6879 146.9C79.8959 146.484 80.2159 146.16 80.6479 145.928C81.0799 145.696 81.5839 145.58 82.1599 145.58ZM89.7638 152.072C89.0838 152.072 88.4838 151.932 87.9638 151.652C87.4518 151.372 87.0518 150.988 86.7638 150.5C86.4838 150.012 86.3438 149.452 86.3438 148.82C86.3438 148.188 86.4798 147.628 86.7518 147.14C87.0318 146.652 87.4118 146.272 87.8918 146C88.3798 145.72 88.9278 145.58 89.5358 145.58C90.1518 145.58 90.6958 145.716 91.1678 145.988C91.6398 146.26 92.0078 146.644 92.2718 147.14C92.5438 147.628 92.6798 148.2 92.6798 148.856C92.6798 148.904 92.6758 148.96 92.6678 149.024C92.6678 149.088 92.6638 149.148 92.6558 149.204H87.2438V148.376H92.0558L91.5878 148.664C91.5958 148.256 91.5118 147.892 91.3358 147.572C91.1598 147.252 90.9158 147.004 90.6038 146.828C90.2998 146.644 89.9438 146.552 89.5358 146.552C89.1358 146.552 88.7798 146.644 88.4678 146.828C88.1558 147.004 87.9118 147.256 87.7358 147.584C87.5598 147.904 87.4718 148.272 87.4718 148.688V148.88C87.4718 149.304 87.5678 149.684 87.7598 150.02C87.9598 150.348 88.2358 150.604 88.5878 150.788C88.9398 150.972 89.3438 151.064 89.7998 151.064C90.1758 151.064 90.5158 151 90.8198 150.872C91.1318 150.744 91.4038 150.552 91.6358 150.296L92.2718 151.04C91.9838 151.376 91.6238 151.632 91.1918 151.808C90.7678 151.984 90.2918 152.072 89.7638 152.072ZM97.1115 152.072C96.4315 152.072 95.8315 151.932 95.3115 151.652C94.7995 151.372 94.3995 150.988 94.1115 150.5C93.8315 150.012 93.6915 149.452 93.6915 148.82C93.6915 148.188 93.8275 147.628 94.0995 147.14C94.3795 146.652 94.7595 146.272 95.2395 146C95.7275 145.72 96.2755 145.58 96.8835 145.58C97.4995 145.58 98.0435 145.716 98.5155 145.988C98.9875 146.26 99.3555 146.644 99.6195 147.14C99.8915 147.628 100.028 148.2 100.028 148.856C100.028 148.904 100.024 148.96 100.016 149.024C100.016 149.088 100.012 149.148 100.004 149.204H94.5915V148.376H99.4035L98.9355 148.664C98.9435 148.256 98.8595 147.892 98.6835 147.572C98.5075 147.252 98.2635 147.004 97.9515 146.828C97.6475 146.644 97.2915 146.552 96.8835 146.552C96.4835 146.552 96.1275 146.644 95.8155 146.828C95.5035 147.004 95.2595 147.256 95.0835 147.584C94.9075 147.904 94.8195 148.272 94.8195 148.688V148.88C94.8195 149.304 94.9155 149.684 95.1075 150.02C95.3075 150.348 95.5835 150.604 95.9355 150.788C96.2875 150.972 96.6915 151.064 97.1475 151.064C97.5235 151.064 97.8635 151 98.1675 150.872C98.4795 150.744 98.7515 150.552 98.9835 150.296L99.6195 151.04C99.3315 151.376 98.9715 151.632 98.5395 151.808C98.1155 151.984 97.6395 152.072 97.1115 152.072ZM103.811 152.072C103.171 152.072 102.675 151.9 102.323 151.556C101.971 151.212 101.795 150.72 101.795 150.08V144.248H102.947V150.032C102.947 150.376 103.031 150.64 103.199 150.824C103.375 151.008 103.623 151.1 103.943 151.1C104.303 151.1 104.603 151 104.843 150.8L105.203 151.628C105.027 151.78 104.815 151.892 104.567 151.964C104.327 152.036 104.075 152.072 103.811 152.072ZM100.715 146.588V145.64H104.771V146.588H100.715ZM106.989 152.072C106.765 152.072 106.573 151.996 106.413 151.844C106.253 151.684 106.173 151.484 106.173 151.244C106.173 151.004 106.253 150.808 106.413 150.656C106.573 150.504 106.765 150.428 106.989 150.428C107.205 150.428 107.389 150.504 107.541 150.656C107.701 150.808 107.781 151.004 107.781 151.244C107.781 151.484 107.701 151.684 107.541 151.844C107.389 151.996 107.205 152.072 106.989 152.072Z" fill="#008E86"/>
<rect x="45" y="55" width="63.6396" height="63.6396" transform="rotate(-45 45 55)" fill="#00D8CC" stroke="#00635D" stroke-width="2" stroke-linejoin="round"/>
<path d="M56 66L124 66" stroke="#00635D" stroke-width="2" stroke-dasharray="4 6"/>
<path opacity="0.25" d="M90 11V100" stroke="#333333" stroke-width="2"/>
<path opacity="0.25" d="M45 55L135 55" stroke="#333333" stroke-width="2"/>
<path opacity="0.25" d="M56 44L124 44" stroke="#333333" stroke-width="2"/>
<path opacity="0.25" d="M124 66L56 66" stroke="#333333" stroke-width="2"/>
<path opacity="0.25" d="M66 34H114" stroke="#333333" stroke-width="2"/>
<path opacity="0.25" d="M114 76L66 76" stroke="#333333" stroke-width="2"/>
<path opacity="0.25" d="M76 24H104" stroke="#333333" stroke-width="2"/>
<path opacity="0.25" d="M104 86L76 86" stroke="#333333" stroke-width="2"/>
<path d="M75.997 48C76.5493 47.9984 76.9984 48.4447 77 48.997L77.0268 57.997C77.0285 58.5493 76.5821 58.9983 76.0298 59C75.4775 59.0016 75.0285 58.5552 75.0268 58.0029L75.003 50.003L67.003 50.0268C66.4507 50.0285 66.0017 49.5821 66 49.0298C65.9984 48.4775 66.4448 48.0285 66.9971 48.0268L75.997 48ZM76.7092 81.295C77.0986 81.6867 77.0967 82.3199 76.705 82.7092C76.3133 83.0986 75.6801 83.0967 75.2908 82.705L76.7092 81.295ZM76.7092 49.705C72.0905 54.3513 70 59.8975 70 65.431L68 65.431C68 59.3661 70.3017 53.3139 75.2908 48.295L76.7092 49.705ZM70 65.431C70 68.146 70.8413 71.2836 72.1277 74.1911C73.4139 77.0981 75.102 79.6782 76.7092 81.295L75.2908 82.705C73.4667 80.87 71.6547 78.065 70.2987 75.0003C68.943 71.9361 68 68.5151 68 65.431L70 65.431Z" fill="black"/>
</g>
<defs>
<clipPath id="clip0_14_3045">
<rect width="180" height="180" rx="20" fill="white"/>
</clipPath>
<clipPath id="clip1_14_3045">
<path d="M0 30L-1.31134e-06 0L30 -1.31134e-06L30 10C30 21.0457 21.0457 30 10 30L0 30Z" fill="white"/>
</clipPath>
</defs>
</svg>
