<svg width="180" height="180" viewBox="0 0 180 180" fill="none" xmlns="http://www.w3.org/2000/svg">
<g clip-path="url(#clip0_14_3075)">
<rect width="180" height="180" rx="20" fill="#F2F2F2"/>
<g clip-path="url(#clip1_14_3075)">
<path d="M0 30L-1.31134e-06 0L30 -1.31134e-06L30 10C30 21.0457 21.0457 30 10 30L0 30Z" fill="#333333"/>
<path d="M15.9223 13.976C16.6369 13.976 17.2876 14.12 17.8743 14.408C18.4609 14.696 18.9249 15.1067 19.2663 15.64C19.6076 16.1627 19.7783 16.7707 19.7783 17.464C19.7783 18.2107 19.5916 18.8667 19.2183 19.432C18.8449 19.9973 18.3329 20.4347 17.6823 20.744C17.0423 21.0427 16.3276 21.192 15.5383 21.192C13.9703 21.192 12.7436 20.712 11.8583 19.752C10.9729 18.792 10.5303 17.4213 10.5303 15.64C10.5303 14.3707 10.7703 13.2827 11.2503 12.376C11.7303 11.4693 12.3969 10.7813 13.2503 10.312C14.1143 9.84267 15.1116 9.608 16.2423 9.608C16.8396 9.608 17.4103 9.67733 17.9543 9.816C18.5089 9.944 18.9783 10.1307 19.3623 10.376L18.4023 12.28C17.8476 11.9067 17.1489 11.72 16.3063 11.72C15.3569 11.72 14.6049 11.9973 14.0503 12.552C13.4956 13.1067 13.1969 13.912 13.1543 14.968C13.8156 14.3067 14.7383 13.976 15.9223 13.976ZM15.3943 19.256C15.9489 19.256 16.3969 19.1067 16.7383 18.808C17.0903 18.5093 17.2663 18.104 17.2663 17.592C17.2663 17.08 17.0903 16.6747 16.7383 16.376C16.3969 16.0667 15.9383 15.912 15.3623 15.912C14.7969 15.912 14.3329 16.072 13.9703 16.392C13.6076 16.7013 13.4263 17.1013 13.4263 17.592C13.4263 18.0827 13.6023 18.4827 13.9543 18.792C14.3063 19.1013 14.7863 19.256 15.3943 19.256Z" fill="#F2F2F2"/>
</g>
<path d="M26.2287 124.572H30.5607V125.604H26.2287V124.572ZM26.3487 129H25.1487V120.6H31.0767V121.644H26.3487V129ZM35.1226 129.072C34.4826 129.072 33.9146 128.932 33.4186 128.652C32.9226 128.372 32.5306 127.988 32.2426 127.5C31.9546 127.004 31.8106 126.444 31.8106 125.82C31.8106 125.188 31.9546 124.628 32.2426 124.14C32.5306 123.652 32.9226 123.272 33.4186 123C33.9146 122.72 34.4826 122.58 35.1226 122.58C35.7546 122.58 36.3186 122.72 36.8146 123C37.3186 123.272 37.7106 123.652 37.9906 124.14C38.2786 124.62 38.4226 125.18 38.4226 125.82C38.4226 126.452 38.2786 127.012 37.9906 127.5C37.7106 127.988 37.3186 128.372 36.8146 128.652C36.3186 128.932 35.7546 129.072 35.1226 129.072ZM35.1226 128.064C35.5306 128.064 35.8946 127.972 36.2146 127.788C36.5426 127.604 36.7986 127.344 36.9826 127.008C37.1666 126.664 37.2586 126.268 37.2586 125.82C37.2586 125.364 37.1666 124.972 36.9826 124.644C36.7986 124.308 36.5426 124.048 36.2146 123.864C35.8946 123.68 35.5306 123.588 35.1226 123.588C34.7146 123.588 34.3506 123.68 34.0306 123.864C33.7106 124.048 33.4546 124.308 33.2626 124.644C33.0706 124.972 32.9746 125.364 32.9746 125.82C32.9746 126.268 33.0706 126.664 33.2626 127.008C33.4546 127.344 33.7106 127.604 34.0306 127.788C34.3506 127.972 34.7146 128.064 35.1226 128.064ZM40.0158 129V120.096H41.1678V129H40.0158ZM45.9954 129.072C45.3794 129.072 44.8274 128.936 44.3394 128.664C43.8594 128.392 43.4794 128.012 43.1994 127.524C42.9194 127.036 42.7794 126.468 42.7794 125.82C42.7794 125.172 42.9194 124.608 43.1994 124.128C43.4794 123.64 43.8594 123.26 44.3394 122.988C44.8274 122.716 45.3794 122.58 45.9954 122.58C46.5314 122.58 47.0154 122.7 47.4474 122.94C47.8794 123.18 48.2234 123.54 48.4794 124.02C48.7434 124.5 48.8754 125.1 48.8754 125.82C48.8754 126.54 48.7474 127.14 48.4914 127.62C48.2434 128.1 47.9034 128.464 47.4714 128.712C47.0394 128.952 46.5474 129.072 45.9954 129.072ZM46.0914 128.064C46.4914 128.064 46.8514 127.972 47.1714 127.788C47.4994 127.604 47.7554 127.344 47.9394 127.008C48.1314 126.664 48.2274 126.268 48.2274 125.82C48.2274 125.364 48.1314 124.972 47.9394 124.644C47.7554 124.308 47.4994 124.048 47.1714 123.864C46.8514 123.68 46.4914 123.588 46.0914 123.588C45.6834 123.588 45.3194 123.68 44.9994 123.864C44.6794 124.048 44.4234 124.308 44.2314 124.644C44.0394 124.972 43.9434 125.364 43.9434 125.82C43.9434 126.268 44.0394 126.664 44.2314 127.008C44.4234 127.344 44.6794 127.604 44.9994 127.788C45.3194 127.972 45.6834 128.064 46.0914 128.064ZM48.2634 129V127.284L48.3354 125.808L48.2154 124.332V120.096H49.3674V129H48.2634ZM56.9537 129.072C56.3137 129.072 55.8177 128.9 55.4657 128.556C55.1137 128.212 54.9377 127.72 54.9377 127.08V121.248H56.0897V127.032C56.0897 127.376 56.1737 127.64 56.3417 127.824C56.5177 128.008 56.7657 128.1 57.0857 128.1C57.4457 128.1 57.7457 128 57.9857 127.8L58.3457 128.628C58.1697 128.78 57.9577 128.892 57.7097 128.964C57.4697 129.036 57.2177 129.072 56.9537 129.072ZM53.8577 123.588V122.64H57.9137V123.588H53.8577ZM63.1345 122.58C63.6545 122.58 64.1105 122.68 64.5025 122.88C64.9025 123.08 65.2145 123.384 65.4385 123.792C65.6625 124.2 65.7745 124.716 65.7745 125.34V129H64.6225V125.472C64.6225 124.856 64.4705 124.392 64.1665 124.08C63.8705 123.768 63.4505 123.612 62.9065 123.612C62.4985 123.612 62.1425 123.692 61.8385 123.852C61.5345 124.012 61.2985 124.248 61.1305 124.56C60.9705 124.872 60.8905 125.26 60.8905 125.724V129H59.7385V120.096H60.8905V124.356L60.6625 123.9C60.8705 123.484 61.1905 123.16 61.6225 122.928C62.0545 122.696 62.5585 122.58 63.1345 122.58ZM70.7385 129.072C70.0585 129.072 69.4585 128.932 68.9385 128.652C68.4265 128.372 68.0265 127.988 67.7385 127.5C67.4585 127.012 67.3185 126.452 67.3185 125.82C67.3185 125.188 67.4545 124.628 67.7265 124.14C68.0065 123.652 68.3865 123.272 68.8665 123C69.3545 122.72 69.9025 122.58 70.5105 122.58C71.1265 122.58 71.6705 122.716 72.1425 122.988C72.6145 123.26 72.9825 123.644 73.2465 124.14C73.5185 124.628 73.6545 125.2 73.6545 125.856C73.6545 125.904 73.6505 125.96 73.6425 126.024C73.6425 126.088 73.6385 126.148 73.6305 126.204H68.2185V125.376H73.0305L72.5625 125.664C72.5705 125.256 72.4865 124.892 72.3105 124.572C72.1345 124.252 71.8905 124.004 71.5785 123.828C71.2745 123.644 70.9185 123.552 70.5105 123.552C70.1105 123.552 69.7545 123.644 69.4425 123.828C69.1305 124.004 68.8865 124.256 68.7105 124.584C68.5345 124.904 68.4465 125.272 68.4465 125.688V125.88C68.4465 126.304 68.5425 126.684 68.7345 127.02C68.9345 127.348 69.2105 127.604 69.5625 127.788C69.9145 127.972 70.3185 128.064 70.7745 128.064C71.1505 128.064 71.4905 128 71.7945 127.872C72.1065 127.744 72.3785 127.552 72.6105 127.296L73.2465 128.04C72.9585 128.376 72.5985 128.632 72.1665 128.808C71.7425 128.984 71.2665 129.072 70.7385 129.072ZM81.2488 129.072C80.6008 129.072 80.0208 128.932 79.5088 128.652C79.0048 128.372 78.6088 127.988 78.3208 127.5C78.0328 127.012 77.8888 126.452 77.8888 125.82C77.8888 125.188 78.0328 124.628 78.3208 124.14C78.6088 123.652 79.0048 123.272 79.5088 123C80.0208 122.72 80.6008 122.58 81.2488 122.58C81.8248 122.58 82.3368 122.696 82.7848 122.928C83.2408 123.152 83.5928 123.488 83.8408 123.936L82.9648 124.5C82.7568 124.188 82.5008 123.96 82.1968 123.816C81.9008 123.664 81.5808 123.588 81.2368 123.588C80.8208 123.588 80.4488 123.68 80.1208 123.864C79.7928 124.048 79.5328 124.308 79.3408 124.644C79.1488 124.972 79.0528 125.364 79.0528 125.82C79.0528 126.276 79.1488 126.672 79.3408 127.008C79.5328 127.344 79.7928 127.604 80.1208 127.788C80.4488 127.972 80.8208 128.064 81.2368 128.064C81.5808 128.064 81.9008 127.992 82.1968 127.848C82.5008 127.696 82.7568 127.464 82.9648 127.152L83.8408 127.704C83.5928 128.144 83.2408 128.484 82.7848 128.724C82.3368 128.956 81.8248 129.072 81.2488 129.072ZM87.9625 129.072C87.3225 129.072 86.7545 128.932 86.2585 128.652C85.7625 128.372 85.3705 127.988 85.0825 127.5C84.7945 127.004 84.6505 126.444 84.6505 125.82C84.6505 125.188 84.7945 124.628 85.0825 124.14C85.3705 123.652 85.7625 123.272 86.2585 123C86.7545 122.72 87.3225 122.58 87.9625 122.58C88.5945 122.58 89.1585 122.72 89.6545 123C90.1585 123.272 90.5505 123.652 90.8305 124.14C91.1185 124.62 91.2625 125.18 91.2625 125.82C91.2625 126.452 91.1185 127.012 90.8305 127.5C90.5505 127.988 90.1585 128.372 89.6545 128.652C89.1585 128.932 88.5945 129.072 87.9625 129.072ZM87.9625 128.064C88.3705 128.064 88.7345 127.972 89.0545 127.788C89.3825 127.604 89.6385 127.344 89.8225 127.008C90.0065 126.664 90.0985 126.268 90.0985 125.82C90.0985 125.364 90.0065 124.972 89.8225 124.644C89.6385 124.308 89.3825 124.048 89.0545 123.864C88.7345 123.68 88.3705 123.588 87.9625 123.588C87.5545 123.588 87.1905 123.68 86.8705 123.864C86.5505 124.048 86.2945 124.308 86.1025 124.644C85.9105 124.972 85.8145 125.364 85.8145 125.82C85.8145 126.268 85.9105 126.664 86.1025 127.008C86.2945 127.344 86.5505 127.604 86.8705 127.788C87.1905 127.972 87.5545 128.064 87.9625 128.064ZM92.8557 129V122.64H93.9597V124.368L93.8517 123.936C94.0277 123.496 94.3237 123.16 94.7397 122.928C95.1557 122.696 95.6677 122.58 96.2757 122.58V123.696C96.2277 123.688 96.1797 123.684 96.1317 123.684C96.0917 123.684 96.0517 123.684 96.0117 123.684C95.3957 123.684 94.9077 123.868 94.5477 124.236C94.1877 124.604 94.0077 125.136 94.0077 125.832V129H92.8557ZM101.092 122.58C101.612 122.58 102.068 122.68 102.46 122.88C102.86 123.08 103.172 123.384 103.396 123.792C103.62 124.2 103.732 124.716 103.732 125.34V129H102.58V125.472C102.58 124.856 102.428 124.392 102.124 124.08C101.828 123.768 101.408 123.612 100.864 123.612C100.456 123.612 100.1 123.692 99.7955 123.852C99.4915 124.012 99.2555 124.248 99.0875 124.56C98.9275 124.872 98.8475 125.26 98.8475 125.724V129H97.6955V122.64H98.7995V124.356L98.6195 123.9C98.8275 123.484 99.1475 123.16 99.5795 122.928C100.012 122.696 100.516 122.58 101.092 122.58ZM108.695 129.072C108.015 129.072 107.415 128.932 106.895 128.652C106.383 128.372 105.983 127.988 105.695 127.5C105.415 127.012 105.275 126.452 105.275 125.82C105.275 125.188 105.411 124.628 105.683 124.14C105.963 123.652 106.343 123.272 106.823 123C107.311 122.72 107.859 122.58 108.467 122.58C109.083 122.58 109.627 122.716 110.099 122.988C110.571 123.26 110.939 123.644 111.203 124.14C111.475 124.628 111.611 125.2 111.611 125.856C111.611 125.904 111.607 125.96 111.599 126.024C111.599 126.088 111.595 126.148 111.587 126.204H106.175V125.376H110.987L110.519 125.664C110.527 125.256 110.443 124.892 110.267 124.572C110.091 124.252 109.847 124.004 109.535 123.828C109.231 123.644 108.875 123.552 108.467 123.552C108.067 123.552 107.711 123.644 107.399 123.828C107.087 124.004 106.843 124.256 106.667 124.584C106.491 124.904 106.403 125.272 106.403 125.688V125.88C106.403 126.304 106.499 126.684 106.691 127.02C106.891 127.348 107.167 127.604 107.519 127.788C107.871 127.972 108.275 128.064 108.731 128.064C109.107 128.064 109.447 128 109.751 127.872C110.063 127.744 110.335 127.552 110.567 127.296L111.203 128.04C110.915 128.376 110.555 128.632 110.123 128.808C109.699 128.984 109.223 129.072 108.695 129.072ZM113.211 129V122.64H114.315V124.368L114.207 123.936C114.383 123.496 114.679 123.16 115.095 122.928C115.511 122.696 116.023 122.58 116.631 122.58V123.696C116.583 123.688 116.535 123.684 116.487 123.684C116.447 123.684 116.407 123.684 116.367 123.684C115.751 123.684 115.263 123.868 114.903 124.236C114.543 124.604 114.363 125.136 114.363 125.832V129H113.211ZM125.304 129V127.656L125.244 127.404V125.112C125.244 124.624 125.1 124.248 124.812 123.984C124.532 123.712 124.108 123.576 123.54 123.576C123.164 123.576 122.796 123.64 122.436 123.768C122.076 123.888 121.772 124.052 121.524 124.26L121.044 123.396C121.372 123.132 121.764 122.932 122.22 122.796C122.684 122.652 123.168 122.58 123.672 122.58C124.544 122.58 125.216 122.792 125.688 123.216C126.16 123.64 126.396 124.288 126.396 125.16V129H125.304ZM123.216 129.072C122.744 129.072 122.328 128.992 121.968 128.832C121.616 128.672 121.344 128.452 121.152 128.172C120.96 127.884 120.864 127.56 120.864 127.2C120.864 126.856 120.944 126.544 121.104 126.264C121.272 125.984 121.54 125.76 121.908 125.592C122.284 125.424 122.788 125.34 123.42 125.34H125.436V126.168H123.468C122.892 126.168 122.504 126.264 122.304 126.456C122.104 126.648 122.004 126.88 122.004 127.152C122.004 127.464 122.128 127.716 122.376 127.908C122.624 128.092 122.968 128.184 123.408 128.184C123.84 128.184 124.216 128.088 124.536 127.896C124.864 127.704 125.1 127.424 125.244 127.056L125.472 127.848C125.32 128.224 125.052 128.524 124.668 128.748C124.284 128.964 123.8 129.072 123.216 129.072ZM130.712 129.072C130.072 129.072 129.576 128.9 129.224 128.556C128.872 128.212 128.696 127.72 128.696 127.08V121.248H129.848V127.032C129.848 127.376 129.932 127.64 130.1 127.824C130.276 128.008 130.524 128.1 130.844 128.1C131.204 128.1 131.504 128 131.744 127.8L132.104 128.628C131.928 128.78 131.716 128.892 131.468 128.964C131.228 129.036 130.976 129.072 130.712 129.072ZM127.616 123.588V122.64H131.672V123.588H127.616ZM138.903 129.072C138.263 129.072 137.767 128.9 137.415 128.556C137.063 128.212 136.887 127.72 136.887 127.08V121.248H138.039V127.032C138.039 127.376 138.123 127.64 138.291 127.824C138.467 128.008 138.715 128.1 139.035 128.1C139.395 128.1 139.695 128 139.935 127.8L140.295 128.628C140.119 128.78 139.907 128.892 139.659 128.964C139.419 129.036 139.167 129.072 138.903 129.072ZM135.807 123.588V122.64H139.863V123.588H135.807ZM145.084 122.58C145.604 122.58 146.06 122.68 146.452 122.88C146.852 123.08 147.164 123.384 147.388 123.792C147.612 124.2 147.724 124.716 147.724 125.34V129H146.572V125.472C146.572 124.856 146.42 124.392 146.116 124.08C145.82 123.768 145.4 123.612 144.856 123.612C144.448 123.612 144.092 123.692 143.788 123.852C143.484 124.012 143.248 124.248 143.08 124.56C142.92 124.872 142.84 125.26 142.84 125.724V129H141.688V120.096H142.84V124.356L142.612 123.9C142.82 123.484 143.14 123.16 143.572 122.928C144.004 122.696 144.508 122.58 145.084 122.58ZM152.688 129.072C152.008 129.072 151.408 128.932 150.888 128.652C150.376 128.372 149.976 127.988 149.688 127.5C149.408 127.012 149.268 126.452 149.268 125.82C149.268 125.188 149.404 124.628 149.676 124.14C149.956 123.652 150.336 123.272 150.816 123C151.304 122.72 151.852 122.58 152.46 122.58C153.076 122.58 153.62 122.716 154.092 122.988C154.564 123.26 154.932 123.644 155.196 124.14C155.468 124.628 155.604 125.2 155.604 125.856C155.604 125.904 155.6 125.96 155.592 126.024C155.592 126.088 155.588 126.148 155.58 126.204H150.168V125.376H154.98L154.512 125.664C154.52 125.256 154.436 124.892 154.26 124.572C154.084 124.252 153.84 124.004 153.528 123.828C153.224 123.644 152.868 123.552 152.46 123.552C152.06 123.552 151.704 123.644 151.392 123.828C151.08 124.004 150.836 124.256 150.66 124.584C150.484 124.904 150.396 125.272 150.396 125.688V125.88C150.396 126.304 150.492 126.684 150.684 127.02C150.884 127.348 151.16 127.604 151.512 127.788C151.864 127.972 152.268 128.064 152.724 128.064C153.1 128.064 153.44 128 153.744 127.872C154.056 127.744 154.328 127.552 154.56 127.296L155.196 128.04C154.908 128.376 154.548 128.632 154.116 128.808C153.692 128.984 153.216 129.072 152.688 129.072ZM27.967 144V137.076C27.967 136.452 28.147 135.956 28.507 135.588C28.875 135.212 29.395 135.024 30.067 135.024C30.315 135.024 30.551 135.056 30.775 135.12C31.007 135.176 31.203 135.268 31.363 135.396L31.015 136.272C30.895 136.176 30.759 136.104 30.607 136.056C30.455 136 30.295 135.972 30.127 135.972C29.791 135.972 29.535 136.068 29.359 136.26C29.183 136.444 29.095 136.72 29.095 137.088V137.94L29.119 138.468V144H27.967ZM26.887 138.588V137.64H30.943V138.588H26.887ZM34.6598 144.072C34.0198 144.072 33.4518 143.932 32.9558 143.652C32.4598 143.372 32.0678 142.988 31.7798 142.5C31.4918 142.004 31.3478 141.444 31.3478 140.82C31.3478 140.188 31.4918 139.628 31.7798 139.14C32.0678 138.652 32.4598 138.272 32.9558 138C33.4518 137.72 34.0198 137.58 34.6598 137.58C35.2918 137.58 35.8558 137.72 36.3518 138C36.8558 138.272 37.2478 138.652 37.5278 139.14C37.8158 139.62 37.9598 140.18 37.9598 140.82C37.9598 141.452 37.8158 142.012 37.5278 142.5C37.2478 142.988 36.8558 143.372 36.3518 143.652C35.8558 143.932 35.2918 144.072 34.6598 144.072ZM34.6598 143.064C35.0678 143.064 35.4318 142.972 35.7518 142.788C36.0798 142.604 36.3358 142.344 36.5198 142.008C36.7038 141.664 36.7958 141.268 36.7958 140.82C36.7958 140.364 36.7038 139.972 36.5198 139.644C36.3358 139.308 36.0798 139.048 35.7518 138.864C35.4318 138.68 35.0678 138.588 34.6598 138.588C34.2518 138.588 33.8878 138.68 33.5678 138.864C33.2478 139.048 32.9918 139.308 32.7998 139.644C32.6078 139.972 32.5118 140.364 32.5118 140.82C32.5118 141.268 32.6078 141.664 32.7998 142.008C32.9918 142.344 33.2478 142.604 33.5678 142.788C33.8878 142.972 34.2518 143.064 34.6598 143.064ZM39.5529 144V135.096H40.7049V144H39.5529ZM45.5325 144.072C44.9165 144.072 44.3645 143.936 43.8765 143.664C43.3965 143.392 43.0165 143.012 42.7365 142.524C42.4565 142.036 42.3165 141.468 42.3165 140.82C42.3165 140.172 42.4565 139.608 42.7365 139.128C43.0165 138.64 43.3965 138.26 43.8765 137.988C44.3645 137.716 44.9165 137.58 45.5325 137.58C46.0685 137.58 46.5525 137.7 46.9845 137.94C47.4165 138.18 47.7605 138.54 48.0165 139.02C48.2805 139.5 48.4125 140.1 48.4125 140.82C48.4125 141.54 48.2845 142.14 48.0285 142.62C47.7805 143.1 47.4405 143.464 47.0085 143.712C46.5765 143.952 46.0845 144.072 45.5325 144.072ZM45.6285 143.064C46.0285 143.064 46.3885 142.972 46.7085 142.788C47.0365 142.604 47.2925 142.344 47.4765 142.008C47.6685 141.664 47.7645 141.268 47.7645 140.82C47.7645 140.364 47.6685 139.972 47.4765 139.644C47.2925 139.308 47.0365 139.048 46.7085 138.864C46.3885 138.68 46.0285 138.588 45.6285 138.588C45.2205 138.588 44.8565 138.68 44.5365 138.864C44.2165 139.048 43.9605 139.308 43.7685 139.644C43.5765 139.972 43.4805 140.364 43.4805 140.82C43.4805 141.268 43.5765 141.664 43.7685 142.008C43.9605 142.344 44.2165 142.604 44.5365 142.788C44.8565 142.972 45.2205 143.064 45.6285 143.064ZM47.8005 144V142.284L47.8725 140.808L47.7525 139.332V135.096H48.9045V144H47.8005ZM54.3068 144V137.64H55.4588V144H54.3068ZM54.8828 136.416C54.6588 136.416 54.4708 136.344 54.3188 136.2C54.1748 136.056 54.1028 135.88 54.1028 135.672C54.1028 135.456 54.1748 135.276 54.3188 135.132C54.4708 134.988 54.6588 134.916 54.8828 134.916C55.1068 134.916 55.2908 134.988 55.4348 135.132C55.5868 135.268 55.6628 135.44 55.6628 135.648C55.6628 135.864 55.5908 136.048 55.4468 136.2C55.3028 136.344 55.1148 136.416 54.8828 136.416ZM61.0544 137.58C61.5744 137.58 62.0304 137.68 62.4224 137.88C62.8224 138.08 63.1344 138.384 63.3584 138.792C63.5824 139.2 63.6944 139.716 63.6944 140.34V144H62.5424V140.472C62.5424 139.856 62.3904 139.392 62.0864 139.08C61.7904 138.768 61.3704 138.612 60.8264 138.612C60.4184 138.612 60.0624 138.692 59.7584 138.852C59.4544 139.012 59.2184 139.248 59.0504 139.56C58.8904 139.872 58.8104 140.26 58.8104 140.724V144H57.6584V137.64H58.7624V139.356L58.5824 138.9C58.7904 138.484 59.1104 138.16 59.5424 137.928C59.9744 137.696 60.4784 137.58 61.0544 137.58ZM68.4544 144.072C67.8384 144.072 67.2864 143.936 66.7984 143.664C66.3184 143.392 65.9384 143.012 65.6584 142.524C65.3784 142.036 65.2384 141.468 65.2384 140.82C65.2384 140.172 65.3784 139.608 65.6584 139.128C65.9384 138.64 66.3184 138.26 66.7984 137.988C67.2864 137.716 67.8384 137.58 68.4544 137.58C68.9904 137.58 69.4744 137.7 69.9064 137.94C70.3384 138.18 70.6824 138.54 70.9384 139.02C71.2024 139.5 71.3344 140.1 71.3344 140.82C71.3344 141.54 71.2064 142.14 70.9504 142.62C70.7024 143.1 70.3624 143.464 69.9304 143.712C69.4984 143.952 69.0064 144.072 68.4544 144.072ZM68.5504 143.064C68.9504 143.064 69.3104 142.972 69.6304 142.788C69.9584 142.604 70.2144 142.344 70.3984 142.008C70.5904 141.664 70.6864 141.268 70.6864 140.82C70.6864 140.364 70.5904 139.972 70.3984 139.644C70.2144 139.308 69.9584 139.048 69.6304 138.864C69.3104 138.68 68.9504 138.588 68.5504 138.588C68.1424 138.588 67.7784 138.68 67.4584 138.864C67.1384 139.048 66.8824 139.308 66.6904 139.644C66.4984 139.972 66.4024 140.364 66.4024 140.82C66.4024 141.268 66.4984 141.664 66.6904 142.008C66.8824 142.344 67.1384 142.604 67.4584 142.788C67.7784 142.972 68.1424 143.064 68.5504 143.064ZM70.7224 144V142.284L70.7944 140.808L70.6744 139.332V135.096H71.8264V144H70.7224ZM74.0061 144V137.64H75.1581V144H74.0061ZM74.5821 136.416C74.3581 136.416 74.1701 136.344 74.0181 136.2C73.8741 136.056 73.8021 135.88 73.8021 135.672C73.8021 135.456 73.8741 135.276 74.0181 135.132C74.1701 134.988 74.3581 134.916 74.5821 134.916C74.8061 134.916 74.9901 134.988 75.1341 135.132C75.2861 135.268 75.3621 135.44 75.3621 135.648C75.3621 135.864 75.2901 136.048 75.1461 136.2C75.0021 136.344 74.8141 136.416 74.5821 136.416ZM80.1296 144.072C79.4816 144.072 78.9016 143.932 78.3896 143.652C77.8856 143.372 77.4896 142.988 77.2016 142.5C76.9136 142.012 76.7696 141.452 76.7696 140.82C76.7696 140.188 76.9136 139.628 77.2016 139.14C77.4896 138.652 77.8856 138.272 78.3896 138C78.9016 137.72 79.4816 137.58 80.1296 137.58C80.7056 137.58 81.2176 137.696 81.6656 137.928C82.1216 138.152 82.4736 138.488 82.7216 138.936L81.8456 139.5C81.6376 139.188 81.3816 138.96 81.0776 138.816C80.7816 138.664 80.4616 138.588 80.1176 138.588C79.7016 138.588 79.3296 138.68 79.0016 138.864C78.6736 139.048 78.4136 139.308 78.2216 139.644C78.0296 139.972 77.9336 140.364 77.9336 140.82C77.9336 141.276 78.0296 141.672 78.2216 142.008C78.4136 142.344 78.6736 142.604 79.0016 142.788C79.3296 142.972 79.7016 143.064 80.1176 143.064C80.4616 143.064 80.7816 142.992 81.0776 142.848C81.3816 142.696 81.6376 142.464 81.8456 142.152L82.7216 142.704C82.4736 143.144 82.1216 143.484 81.6656 143.724C81.2176 143.956 80.7056 144.072 80.1296 144.072ZM88.1611 144V142.656L88.1011 142.404V140.112C88.1011 139.624 87.9571 139.248 87.6691 138.984C87.3891 138.712 86.9651 138.576 86.3971 138.576C86.0211 138.576 85.6531 138.64 85.2931 138.768C84.9331 138.888 84.6291 139.052 84.3811 139.26L83.9011 138.396C84.2291 138.132 84.6211 137.932 85.0771 137.796C85.5411 137.652 86.0251 137.58 86.5291 137.58C87.4011 137.58 88.0731 137.792 88.5451 138.216C89.0171 138.64 89.2531 139.288 89.2531 140.16V144H88.1611ZM86.0731 144.072C85.6011 144.072 85.1851 143.992 84.8251 143.832C84.4731 143.672 84.2011 143.452 84.0091 143.172C83.8171 142.884 83.7211 142.56 83.7211 142.2C83.7211 141.856 83.8011 141.544 83.9611 141.264C84.1291 140.984 84.3971 140.76 84.7651 140.592C85.1411 140.424 85.6451 140.34 86.2771 140.34H88.2931V141.168H86.3251C85.7491 141.168 85.3611 141.264 85.1611 141.456C84.9611 141.648 84.8611 141.88 84.8611 142.152C84.8611 142.464 84.9851 142.716 85.2331 142.908C85.4811 143.092 85.8251 143.184 86.2651 143.184C86.6971 143.184 87.0731 143.088 87.3931 142.896C87.7211 142.704 87.9571 142.424 88.1011 142.056L88.3291 142.848C88.1771 143.224 87.9091 143.524 87.5251 143.748C87.1411 143.964 86.6571 144.072 86.0731 144.072ZM93.569 144.072C92.929 144.072 92.433 143.9 92.081 143.556C91.729 143.212 91.553 142.72 91.553 142.08V136.248H92.705V142.032C92.705 142.376 92.789 142.64 92.957 142.824C93.133 143.008 93.381 143.1 93.701 143.1C94.061 143.1 94.361 143 94.601 142.8L94.961 143.628C94.785 143.78 94.573 143.892 94.325 143.964C94.085 144.036 93.833 144.072 93.569 144.072ZM90.473 138.588V137.64H94.529V138.588H90.473ZM98.9748 144.072C98.2948 144.072 97.6948 143.932 97.1748 143.652C96.6628 143.372 96.2628 142.988 95.9748 142.5C95.6948 142.012 95.5548 141.452 95.5548 140.82C95.5548 140.188 95.6908 139.628 95.9628 139.14C96.2428 138.652 96.6228 138.272 97.1028 138C97.5908 137.72 98.1388 137.58 98.7468 137.58C99.3628 137.58 99.9068 137.716 100.379 137.988C100.851 138.26 101.219 138.644 101.483 139.14C101.755 139.628 101.891 140.2 101.891 140.856C101.891 140.904 101.887 140.96 101.879 141.024C101.879 141.088 101.875 141.148 101.867 141.204H96.4548V140.376H101.267L100.799 140.664C100.807 140.256 100.723 139.892 100.547 139.572C100.371 139.252 100.127 139.004 99.8148 138.828C99.5108 138.644 99.1548 138.552 98.7468 138.552C98.3468 138.552 97.9908 138.644 97.6788 138.828C97.3668 139.004 97.1228 139.256 96.9468 139.584C96.7708 139.904 96.6828 140.272 96.6828 140.688V140.88C96.6828 141.304 96.7788 141.684 96.9708 142.02C97.1708 142.348 97.4468 142.604 97.7988 142.788C98.1508 142.972 98.5548 143.064 99.0108 143.064C99.3868 143.064 99.7268 143 100.031 142.872C100.343 142.744 100.615 142.552 100.847 142.296L101.483 143.04C101.195 143.376 100.835 143.632 100.403 143.808C99.9788 143.984 99.5028 144.072 98.9748 144.072ZM106.118 144.072C105.502 144.072 104.95 143.936 104.462 143.664C103.982 143.392 103.602 143.012 103.322 142.524C103.042 142.036 102.902 141.468 102.902 140.82C102.902 140.172 103.042 139.608 103.322 139.128C103.602 138.64 103.982 138.26 104.462 137.988C104.95 137.716 105.502 137.58 106.118 137.58C106.654 137.58 107.138 137.7 107.57 137.94C108.002 138.18 108.346 138.54 108.602 139.02C108.866 139.5 108.998 140.1 108.998 140.82C108.998 141.54 108.87 142.14 108.614 142.62C108.366 143.1 108.026 143.464 107.594 143.712C107.162 143.952 106.67 144.072 106.118 144.072ZM106.214 143.064C106.614 143.064 106.974 142.972 107.294 142.788C107.622 142.604 107.878 142.344 108.062 142.008C108.254 141.664 108.35 141.268 108.35 140.82C108.35 140.364 108.254 139.972 108.062 139.644C107.878 139.308 107.622 139.048 107.294 138.864C106.974 138.68 106.614 138.588 106.214 138.588C105.806 138.588 105.442 138.68 105.122 138.864C104.802 139.048 104.546 139.308 104.354 139.644C104.162 139.972 104.066 140.364 104.066 140.82C104.066 141.268 104.162 141.664 104.354 142.008C104.546 142.344 104.802 142.604 105.122 142.788C105.442 142.972 105.806 143.064 106.214 143.064ZM108.386 144V142.284L108.458 140.808L108.338 139.332V135.096H109.49V144H108.386ZM117.617 144.072C116.977 144.072 116.409 143.932 115.913 143.652C115.417 143.372 115.025 142.988 114.737 142.5C114.449 142.004 114.305 141.444 114.305 140.82C114.305 140.188 114.449 139.628 114.737 139.14C115.025 138.652 115.417 138.272 115.913 138C116.409 137.72 116.977 137.58 117.617 137.58C118.249 137.58 118.813 137.72 119.309 138C119.813 138.272 120.205 138.652 120.485 139.14C120.773 139.62 120.917 140.18 120.917 140.82C120.917 141.452 120.773 142.012 120.485 142.5C120.205 142.988 119.813 143.372 119.309 143.652C118.813 143.932 118.249 144.072 117.617 144.072ZM117.617 143.064C118.025 143.064 118.389 142.972 118.709 142.788C119.037 142.604 119.293 142.344 119.477 142.008C119.661 141.664 119.753 141.268 119.753 140.82C119.753 140.364 119.661 139.972 119.477 139.644C119.293 139.308 119.037 139.048 118.709 138.864C118.389 138.68 118.025 138.588 117.617 138.588C117.209 138.588 116.845 138.68 116.525 138.864C116.205 139.048 115.949 139.308 115.757 139.644C115.565 139.972 115.469 140.364 115.469 140.82C115.469 141.268 115.565 141.664 115.757 142.008C115.949 142.344 116.205 142.604 116.525 142.788C116.845 142.972 117.209 143.064 117.617 143.064ZM125.906 137.58C126.426 137.58 126.882 137.68 127.274 137.88C127.674 138.08 127.986 138.384 128.21 138.792C128.434 139.2 128.546 139.716 128.546 140.34V144H127.394V140.472C127.394 139.856 127.242 139.392 126.938 139.08C126.642 138.768 126.222 138.612 125.678 138.612C125.27 138.612 124.914 138.692 124.61 138.852C124.306 139.012 124.07 139.248 123.902 139.56C123.742 139.872 123.662 140.26 123.662 140.724V144H122.51V137.64H123.614V139.356L123.434 138.9C123.642 138.484 123.962 138.16 124.394 137.928C124.826 137.696 125.33 137.58 125.906 137.58ZM136.085 144.072C135.445 144.072 134.949 143.9 134.597 143.556C134.245 143.212 134.069 142.72 134.069 142.08V136.248H135.221V142.032C135.221 142.376 135.305 142.64 135.473 142.824C135.649 143.008 135.897 143.1 136.217 143.1C136.577 143.1 136.877 143 137.117 142.8L137.477 143.628C137.301 143.78 137.089 143.892 136.841 143.964C136.601 144.036 136.349 144.072 136.085 144.072ZM132.989 138.588V137.64H137.045V138.588H132.989ZM142.265 137.58C142.785 137.58 143.241 137.68 143.633 137.88C144.033 138.08 144.345 138.384 144.569 138.792C144.793 139.2 144.905 139.716 144.905 140.34V144H143.753V140.472C143.753 139.856 143.601 139.392 143.297 139.08C143.001 138.768 142.581 138.612 142.037 138.612C141.629 138.612 141.273 138.692 140.969 138.852C140.665 139.012 140.429 139.248 140.261 139.56C140.101 139.872 140.021 140.26 140.021 140.724V144H138.869V135.096H140.021V139.356L139.793 138.9C140.001 138.484 140.321 138.16 140.753 137.928C141.185 137.696 141.689 137.58 142.265 137.58ZM149.869 144.072C149.189 144.072 148.589 143.932 148.069 143.652C147.557 143.372 147.157 142.988 146.869 142.5C146.589 142.012 146.449 141.452 146.449 140.82C146.449 140.188 146.585 139.628 146.857 139.14C147.137 138.652 147.517 138.272 147.997 138C148.485 137.72 149.033 137.58 149.641 137.58C150.257 137.58 150.801 137.716 151.273 137.988C151.745 138.26 152.113 138.644 152.377 139.14C152.649 139.628 152.785 140.2 152.785 140.856C152.785 140.904 152.781 140.96 152.773 141.024C152.773 141.088 152.769 141.148 152.761 141.204H147.349V140.376H152.161L151.693 140.664C151.701 140.256 151.617 139.892 151.441 139.572C151.265 139.252 151.021 139.004 150.709 138.828C150.405 138.644 150.049 138.552 149.641 138.552C149.241 138.552 148.885 138.644 148.573 138.828C148.261 139.004 148.017 139.256 147.841 139.584C147.665 139.904 147.577 140.272 147.577 140.688V140.88C147.577 141.304 147.673 141.684 147.865 142.02C148.065 142.348 148.341 142.604 148.693 142.788C149.045 142.972 149.449 143.064 149.905 143.064C150.281 143.064 150.621 143 150.925 142.872C151.237 142.744 151.509 142.552 151.741 142.296L152.377 143.04C152.089 143.376 151.729 143.632 151.297 143.808C150.873 143.984 150.397 144.072 149.869 144.072ZM39.5069 161.4C38.9229 161.4 38.3549 161.316 37.8029 161.148C37.2589 160.988 36.8149 160.756 36.4709 160.452L37.0229 159.564C37.3189 159.82 37.6829 160.02 38.1149 160.164C38.5469 160.316 38.9989 160.392 39.4709 160.392C40.2229 160.392 40.7749 160.216 41.1269 159.864C41.4789 159.512 41.6549 158.976 41.6549 158.256V156.912L41.7749 155.652L41.7149 154.38V152.64H42.8069V158.136C42.8069 159.256 42.5269 160.08 41.9669 160.608C41.4069 161.136 40.5869 161.4 39.5069 161.4ZM39.3629 158.736C38.7469 158.736 38.1949 158.608 37.7069 158.352C37.2269 158.088 36.8429 157.724 36.5549 157.26C36.2749 156.796 36.1349 156.26 36.1349 155.652C36.1349 155.036 36.2749 154.5 36.5549 154.044C36.8429 153.58 37.2269 153.22 37.7069 152.964C38.1949 152.708 38.7469 152.58 39.3629 152.58C39.9069 152.58 40.4029 152.692 40.8509 152.916C41.2989 153.132 41.6549 153.468 41.9189 153.924C42.1909 154.38 42.3269 154.956 42.3269 155.652C42.3269 156.34 42.1909 156.912 41.9189 157.368C41.6549 157.824 41.2989 158.168 40.8509 158.4C40.4029 158.624 39.9069 158.736 39.3629 158.736ZM39.4949 157.728C39.9189 157.728 40.2949 157.64 40.6229 157.464C40.9509 157.288 41.2069 157.044 41.3909 156.732C41.5829 156.42 41.6789 156.06 41.6789 155.652C41.6789 155.244 41.5829 154.884 41.3909 154.572C41.2069 154.26 40.9509 154.02 40.6229 153.852C40.2949 153.676 39.9189 153.588 39.4949 153.588C39.0709 153.588 38.6909 153.676 38.3549 153.852C38.0269 154.02 37.7669 154.26 37.5749 154.572C37.3909 154.884 37.2989 155.244 37.2989 155.652C37.2989 156.06 37.3909 156.42 37.5749 156.732C37.7669 157.044 38.0269 157.288 38.3549 157.464C38.6909 157.64 39.0709 157.728 39.4949 157.728ZM45.008 159V152.64H46.112V154.368L46.004 153.936C46.18 153.496 46.476 153.16 46.892 152.928C47.308 152.696 47.82 152.58 48.428 152.58V153.696C48.38 153.688 48.332 153.684 48.284 153.684C48.244 153.684 48.204 153.684 48.164 153.684C47.548 153.684 47.06 153.868 46.7 154.236C46.34 154.604 46.16 155.136 46.16 155.832V159H45.008ZM53.3271 159V157.656L53.2671 157.404V155.112C53.2671 154.624 53.1231 154.248 52.8351 153.984C52.5551 153.712 52.1311 153.576 51.5631 153.576C51.1871 153.576 50.8191 153.64 50.4591 153.768C50.0991 153.888 49.7951 154.052 49.5471 154.26L49.0671 153.396C49.3951 153.132 49.7871 152.932 50.2431 152.796C50.7071 152.652 51.1911 152.58 51.6951 152.58C52.5671 152.58 53.2391 152.792 53.7111 153.216C54.1831 153.64 54.4191 154.288 54.4191 155.16V159H53.3271ZM51.2391 159.072C50.7671 159.072 50.3511 158.992 49.9911 158.832C49.6391 158.672 49.3671 158.452 49.1751 158.172C48.9831 157.884 48.8871 157.56 48.8871 157.2C48.8871 156.856 48.9671 156.544 49.1271 156.264C49.2951 155.984 49.5631 155.76 49.9311 155.592C50.3071 155.424 50.8111 155.34 51.4431 155.34H53.4591V156.168H51.4911C50.9151 156.168 50.5271 156.264 50.3271 156.456C50.1271 156.648 50.0271 156.88 50.0271 157.152C50.0271 157.464 50.1511 157.716 50.3991 157.908C50.6471 158.092 50.9911 158.184 51.4311 158.184C51.8631 158.184 52.2391 158.088 52.5591 157.896C52.8871 157.704 53.1231 157.424 53.2671 157.056L53.4951 157.848C53.3431 158.224 53.0751 158.524 52.6911 158.748C52.3071 158.964 51.8231 159.072 51.2391 159.072ZM59.923 159.072C59.395 159.072 58.911 158.952 58.471 158.712C58.039 158.464 57.691 158.1 57.427 157.62C57.171 157.14 57.043 156.54 57.043 155.82C57.043 155.1 57.167 154.5 57.415 154.02C57.671 153.54 58.015 153.18 58.447 152.94C58.887 152.7 59.379 152.58 59.923 152.58C60.547 152.58 61.099 152.716 61.579 152.988C62.059 153.26 62.439 153.64 62.719 154.128C62.999 154.608 63.139 155.172 63.139 155.82C63.139 156.468 62.999 157.036 62.719 157.524C62.439 158.012 62.059 158.392 61.579 158.664C61.099 158.936 60.547 159.072 59.923 159.072ZM56.551 161.328V152.64H57.655V154.356L57.583 155.832L57.703 157.308V161.328H56.551ZM59.827 158.064C60.235 158.064 60.599 157.972 60.919 157.788C61.247 157.604 61.503 157.344 61.687 157.008C61.879 156.664 61.975 156.268 61.975 155.82C61.975 155.364 61.879 154.972 61.687 154.644C61.503 154.308 61.247 154.048 60.919 153.864C60.599 153.68 60.235 153.588 59.827 153.588C59.427 153.588 59.063 153.68 58.735 153.864C58.415 154.048 58.159 154.308 57.967 154.644C57.783 154.972 57.691 155.364 57.691 155.82C57.691 156.268 57.783 156.664 57.967 157.008C58.159 157.344 58.415 157.604 58.735 157.788C59.063 157.972 59.427 158.064 59.827 158.064ZM68.1267 152.58C68.6467 152.58 69.1027 152.68 69.4947 152.88C69.8947 153.08 70.2067 153.384 70.4307 153.792C70.6547 154.2 70.7667 154.716 70.7667 155.34V159H69.6147V155.472C69.6147 154.856 69.4627 154.392 69.1587 154.08C68.8627 153.768 68.4427 153.612 67.8987 153.612C67.4907 153.612 67.1347 153.692 66.8307 153.852C66.5267 154.012 66.2907 154.248 66.1227 154.56C65.9627 154.872 65.8827 155.26 65.8827 155.724V159H64.7307V150.096H65.8827V154.356L65.6547 153.9C65.8627 153.484 66.1827 153.16 66.6147 152.928C67.0467 152.696 67.5507 152.58 68.1267 152.58ZM76.1213 159V152.64H77.2733V159H76.1213ZM76.6973 151.416C76.4733 151.416 76.2853 151.344 76.1333 151.2C75.9893 151.056 75.9173 150.88 75.9173 150.672C75.9173 150.456 75.9893 150.276 76.1333 150.132C76.2853 149.988 76.4733 149.916 76.6973 149.916C76.9213 149.916 77.1053 149.988 77.2493 150.132C77.4013 150.268 77.4773 150.44 77.4773 150.648C77.4773 150.864 77.4053 151.048 77.2613 151.2C77.1173 151.344 76.9293 151.416 76.6973 151.416ZM82.8689 152.58C83.3889 152.58 83.8449 152.68 84.2369 152.88C84.6369 153.08 84.9489 153.384 85.1729 153.792C85.3969 154.2 85.5089 154.716 85.5089 155.34V159H84.3569V155.472C84.3569 154.856 84.2049 154.392 83.9009 154.08C83.6049 153.768 83.1849 153.612 82.6409 153.612C82.2329 153.612 81.8769 153.692 81.5729 153.852C81.2689 154.012 81.0329 154.248 80.8649 154.56C80.7049 154.872 80.6249 155.26 80.6249 155.724V159H79.4729V152.64H80.5769V154.356L80.3969 153.9C80.6049 153.484 80.9249 153.16 81.3569 152.928C81.7889 152.696 82.2929 152.58 82.8689 152.58ZM93.0475 159.072C92.4075 159.072 91.9115 158.9 91.5595 158.556C91.2075 158.212 91.0315 157.72 91.0315 157.08V151.248H92.1835V157.032C92.1835 157.376 92.2675 157.64 92.4355 157.824C92.6115 158.008 92.8595 158.1 93.1795 158.1C93.5395 158.1 93.8395 158 94.0795 157.8L94.4395 158.628C94.2635 158.78 94.0515 158.892 93.8035 158.964C93.5635 159.036 93.3115 159.072 93.0475 159.072ZM89.9515 153.588V152.64H94.0075V153.588H89.9515ZM99.2282 152.58C99.7482 152.58 100.204 152.68 100.596 152.88C100.996 153.08 101.308 153.384 101.532 153.792C101.756 154.2 101.868 154.716 101.868 155.34V159H100.716V155.472C100.716 154.856 100.564 154.392 100.26 154.08C99.9642 153.768 99.5442 153.612 99.0002 153.612C98.5922 153.612 98.2362 153.692 97.9322 153.852C97.6282 154.012 97.3922 154.248 97.2242 154.56C97.0642 154.872 96.9842 155.26 96.9842 155.724V159H95.8322V150.096H96.9842V154.356L96.7562 153.9C96.9642 153.484 97.2842 153.16 97.7162 152.928C98.1482 152.696 98.6522 152.58 99.2282 152.58ZM104 159V152.64H105.152V159H104ZM104.576 151.416C104.352 151.416 104.164 151.344 104.012 151.2C103.868 151.056 103.796 150.88 103.796 150.672C103.796 150.456 103.868 150.276 104.012 150.132C104.164 149.988 104.352 149.916 104.576 149.916C104.8 149.916 104.984 149.988 105.128 150.132C105.28 150.268 105.356 150.44 105.356 150.648C105.356 150.864 105.284 151.048 105.14 151.2C104.996 151.344 104.808 151.416 104.576 151.416ZM109.176 159.072C108.648 159.072 108.144 159 107.664 158.856C107.192 158.712 106.82 158.536 106.548 158.328L107.028 157.416C107.3 157.6 107.636 157.756 108.036 157.884C108.436 158.012 108.844 158.076 109.26 158.076C109.796 158.076 110.18 158 110.412 157.848C110.652 157.696 110.772 157.484 110.772 157.212C110.772 157.012 110.7 156.856 110.556 156.744C110.412 156.632 110.22 156.548 109.98 156.492C109.748 156.436 109.488 156.388 109.2 156.348C108.912 156.3 108.624 156.244 108.336 156.18C108.048 156.108 107.784 156.012 107.544 155.892C107.304 155.764 107.112 155.592 106.968 155.376C106.824 155.152 106.752 154.856 106.752 154.488C106.752 154.104 106.86 153.768 107.076 153.48C107.292 153.192 107.596 152.972 107.988 152.82C108.388 152.66 108.86 152.58 109.404 152.58C109.82 152.58 110.24 152.632 110.664 152.736C111.096 152.832 111.448 152.972 111.72 153.156L111.228 154.068C110.94 153.876 110.64 153.744 110.328 153.672C110.016 153.6 109.704 153.564 109.392 153.564C108.888 153.564 108.512 153.648 108.264 153.816C108.016 153.976 107.892 154.184 107.892 154.44C107.892 154.656 107.964 154.824 108.108 154.944C108.26 155.056 108.452 155.144 108.684 155.208C108.924 155.272 109.188 155.328 109.476 155.376C109.764 155.416 110.052 155.472 110.34 155.544C110.628 155.608 110.888 155.7 111.12 155.82C111.36 155.94 111.552 156.108 111.696 156.324C111.848 156.54 111.924 156.828 111.924 157.188C111.924 157.572 111.812 157.904 111.588 158.184C111.364 158.464 111.048 158.684 110.64 158.844C110.232 158.996 109.744 159.072 109.176 159.072ZM118.41 159.072C117.882 159.072 117.378 159 116.898 158.856C116.426 158.712 116.054 158.536 115.782 158.328L116.262 157.416C116.534 157.6 116.87 157.756 117.27 157.884C117.67 158.012 118.078 158.076 118.494 158.076C119.03 158.076 119.414 158 119.646 157.848C119.886 157.696 120.006 157.484 120.006 157.212C120.006 157.012 119.934 156.856 119.79 156.744C119.646 156.632 119.454 156.548 119.214 156.492C118.982 156.436 118.722 156.388 118.434 156.348C118.146 156.3 117.858 156.244 117.57 156.18C117.282 156.108 117.018 156.012 116.778 155.892C116.538 155.764 116.346 155.592 116.202 155.376C116.058 155.152 115.986 154.856 115.986 154.488C115.986 154.104 116.094 153.768 116.31 153.48C116.526 153.192 116.83 152.972 117.222 152.82C117.622 152.66 118.094 152.58 118.638 152.58C119.054 152.58 119.474 152.632 119.898 152.736C120.33 152.832 120.682 152.972 120.954 153.156L120.462 154.068C120.174 153.876 119.874 153.744 119.562 153.672C119.25 153.6 118.938 153.564 118.626 153.564C118.122 153.564 117.746 153.648 117.498 153.816C117.25 153.976 117.126 154.184 117.126 154.44C117.126 154.656 117.198 154.824 117.342 154.944C117.494 155.056 117.686 155.144 117.918 155.208C118.158 155.272 118.422 155.328 118.71 155.376C118.998 155.416 119.286 155.472 119.574 155.544C119.862 155.608 120.122 155.7 120.354 155.82C120.594 155.94 120.786 156.108 120.93 156.324C121.082 156.54 121.158 156.828 121.158 157.188C121.158 157.572 121.046 157.904 120.822 158.184C120.598 158.464 120.282 158.684 119.874 158.844C119.466 158.996 118.978 159.072 118.41 159.072ZM124.782 159.072C124.142 159.072 123.646 158.9 123.294 158.556C122.942 158.212 122.766 157.72 122.766 157.08V151.248H123.918V157.032C123.918 157.376 124.002 157.64 124.17 157.824C124.346 158.008 124.594 158.1 124.914 158.1C125.274 158.1 125.574 158 125.814 157.8L126.174 158.628C125.998 158.78 125.786 158.892 125.538 158.964C125.298 159.036 125.046 159.072 124.782 159.072ZM121.686 153.588V152.64H125.742V153.588H121.686ZM130.188 159.072C129.508 159.072 128.908 158.932 128.388 158.652C127.876 158.372 127.476 157.988 127.188 157.5C126.908 157.012 126.768 156.452 126.768 155.82C126.768 155.188 126.904 154.628 127.176 154.14C127.456 153.652 127.836 153.272 128.316 153C128.804 152.72 129.352 152.58 129.96 152.58C130.576 152.58 131.12 152.716 131.592 152.988C132.064 153.26 132.432 153.644 132.696 154.14C132.968 154.628 133.104 155.2 133.104 155.856C133.104 155.904 133.1 155.96 133.092 156.024C133.092 156.088 133.088 156.148 133.08 156.204H127.668V155.376H132.48L132.012 155.664C132.02 155.256 131.936 154.892 131.76 154.572C131.584 154.252 131.34 154.004 131.028 153.828C130.724 153.644 130.368 153.552 129.96 153.552C129.56 153.552 129.204 153.644 128.892 153.828C128.58 154.004 128.336 154.256 128.16 154.584C127.984 154.904 127.896 155.272 127.896 155.688V155.88C127.896 156.304 127.992 156.684 128.184 157.02C128.384 157.348 128.66 157.604 129.012 157.788C129.364 157.972 129.768 158.064 130.224 158.064C130.6 158.064 130.94 158 131.244 157.872C131.556 157.744 131.828 157.552 132.06 157.296L132.696 158.04C132.408 158.376 132.048 158.632 131.616 158.808C131.192 158.984 130.716 159.072 130.188 159.072ZM138.075 159.072C137.547 159.072 137.063 158.952 136.623 158.712C136.191 158.464 135.843 158.1 135.579 157.62C135.323 157.14 135.195 156.54 135.195 155.82C135.195 155.1 135.319 154.5 135.567 154.02C135.823 153.54 136.167 153.18 136.599 152.94C137.039 152.7 137.531 152.58 138.075 152.58C138.699 152.58 139.251 152.716 139.731 152.988C140.211 153.26 140.591 153.64 140.871 154.128C141.151 154.608 141.291 155.172 141.291 155.82C141.291 156.468 141.151 157.036 140.871 157.524C140.591 158.012 140.211 158.392 139.731 158.664C139.251 158.936 138.699 159.072 138.075 159.072ZM134.703 161.328V152.64H135.807V154.356L135.735 155.832L135.855 157.308V161.328H134.703ZM137.979 158.064C138.387 158.064 138.751 157.972 139.071 157.788C139.399 157.604 139.655 157.344 139.839 157.008C140.031 156.664 140.127 156.268 140.127 155.82C140.127 155.364 140.031 154.972 139.839 154.644C139.655 154.308 139.399 154.048 139.071 153.864C138.751 153.68 138.387 153.588 137.979 153.588C137.579 153.588 137.215 153.68 136.887 153.864C136.567 154.048 136.311 154.308 136.119 154.644C135.935 154.972 135.843 155.364 135.843 155.82C135.843 156.268 135.935 156.664 136.119 157.008C136.311 157.344 136.567 157.604 136.887 157.788C137.215 157.972 137.579 158.064 137.979 158.064ZM143.018 159.072C142.794 159.072 142.602 158.996 142.442 158.844C142.282 158.684 142.202 158.484 142.202 158.244C142.202 158.004 142.282 157.808 142.442 157.656C142.602 157.504 142.794 157.428 143.018 157.428C143.234 157.428 143.418 157.504 143.57 157.656C143.73 157.808 143.81 158.004 143.81 158.244C143.81 158.484 143.73 158.684 143.57 158.844C143.418 158.996 143.234 159.072 143.018 159.072Z" fill="#008E86"/>
<path d="M45 55L90 10L135 55L124 66L56 66L45 55Z" fill="#00D8CC" stroke="#00635D" stroke-width="2" stroke-linejoin="round"/>
<path opacity="0.25" d="M45 55L135 55" stroke="#333333" stroke-width="2"/>
<path opacity="0.25" d="M66 34H114" stroke="#333333" stroke-width="2"/>
<path opacity="0.25" d="M76 24H104" stroke="#333333" stroke-width="2"/>
<path d="M90 32L56 66H124L90 32Z" fill="#008E86" stroke="#00635D" stroke-width="2" stroke-linejoin="round"/>
<path d="M67 55H113" stroke="#333333" stroke-width="2" stroke-dasharray="4 6"/>
<path opacity="0.25" d="M90 11V66" stroke="#333333" stroke-width="2"/>
<path opacity="0.25" d="M56 44L124 44" stroke="#333333" stroke-width="2"/>
<path d="M75.997 83C76.5493 83.0016 76.9983 82.5553 77 82.003L77.0268 73.003C77.0285 72.4507 76.5821 72.0017 76.0298 72C75.4775 71.9984 75.0285 72.4448 75.0268 72.9971L75.003 80.997L67.003 80.9732C66.4507 80.9715 66.0017 81.4179 66 81.9702C65.9984 82.5225 66.4448 82.9715 66.9971 82.9732L75.997 83ZM76.7092 49.705C77.0986 49.3133 77.0967 48.6801 76.705 48.2908C76.3133 47.9014 75.6801 47.9033 75.2908 48.295L76.7092 49.705ZM76.7092 81.295C72.0905 76.6487 70 71.1025 70 65.569L68 65.569C68 71.6339 70.3017 77.6861 75.2908 82.705L76.7092 81.295ZM70 65.569C70 62.854 70.8413 59.7164 72.1277 56.8089C73.4139 53.9019 75.102 51.3218 76.7092 49.705L75.2908 48.295C73.4667 50.13 71.6547 52.935 70.2987 55.9997C68.943 59.0639 68 62.4849 68 65.569L70 65.569Z" fill="black"/>
</g>
<defs>
<clipPath id="clip0_14_3075">
<rect width="180" height="180" rx="20" fill="white"/>
</clipPath>
<clipPath id="clip1_14_3075">
<path d="M0 30L-1.31134e-06 0L30 -1.31134e-06L30 10C30 21.0457 21.0457 30 10 30L0 30Z" fill="white"/>
</clipPath>
</defs>
</svg>
