<svg width="180" height="180" viewBox="0 0 180 180" fill="none" xmlns="http://www.w3.org/2000/svg">
<rect width="180" height="180" rx="20" fill="#F2F2F2"/>
<path d="M26.3752 132.572H30.7072V133.604H26.3752V132.572ZM26.4952 137H25.2952V128.6H31.2232V129.644H26.4952V137ZM35.2691 137.072C34.6291 137.072 34.0611 136.932 33.5651 136.652C33.0691 136.372 32.6771 135.988 32.3891 135.5C32.1011 135.004 31.9571 134.444 31.9571 133.82C31.9571 133.188 32.1011 132.628 32.3891 132.14C32.6771 131.652 33.0691 131.272 33.5651 131C34.0611 130.72 34.6291 130.58 35.2691 130.58C35.9011 130.58 36.4651 130.72 36.9611 131C37.4651 131.272 37.8571 131.652 38.1371 132.14C38.4251 132.62 38.5691 133.18 38.5691 133.82C38.5691 134.452 38.4251 135.012 38.1371 135.5C37.8571 135.988 37.4651 136.372 36.9611 136.652C36.4651 136.932 35.9011 137.072 35.2691 137.072ZM35.2691 136.064C35.6771 136.064 36.0411 135.972 36.3611 135.788C36.6891 135.604 36.9451 135.344 37.1291 135.008C37.3131 134.664 37.4051 134.268 37.4051 133.82C37.4051 133.364 37.3131 132.972 37.1291 132.644C36.9451 132.308 36.6891 132.048 36.3611 131.864C36.0411 131.68 35.6771 131.588 35.2691 131.588C34.8611 131.588 34.4971 131.68 34.1771 131.864C33.8571 132.048 33.6011 132.308 33.4091 132.644C33.2171 132.972 33.1211 133.364 33.1211 133.82C33.1211 134.268 33.2171 134.664 33.4091 135.008C33.6011 135.344 33.8571 135.604 34.1771 135.788C34.4971 135.972 34.8611 136.064 35.2691 136.064ZM40.1623 137V128.096H41.3143V137H40.1623ZM46.1419 137.072C45.5259 137.072 44.9739 136.936 44.4859 136.664C44.0059 136.392 43.6259 136.012 43.3459 135.524C43.0659 135.036 42.9259 134.468 42.9259 133.82C42.9259 133.172 43.0659 132.608 43.3459 132.128C43.6259 131.64 44.0059 131.26 44.4859 130.988C44.9739 130.716 45.5259 130.58 46.1419 130.58C46.6779 130.58 47.1619 130.7 47.5939 130.94C48.0259 131.18 48.3699 131.54 48.6259 132.02C48.8899 132.5 49.0219 133.1 49.0219 133.82C49.0219 134.54 48.8939 135.14 48.6379 135.62C48.3899 136.1 48.0499 136.464 47.6179 136.712C47.1859 136.952 46.6939 137.072 46.1419 137.072ZM46.2379 136.064C46.6379 136.064 46.9979 135.972 47.3179 135.788C47.6459 135.604 47.9019 135.344 48.0859 135.008C48.2779 134.664 48.3739 134.268 48.3739 133.82C48.3739 133.364 48.2779 132.972 48.0859 132.644C47.9019 132.308 47.6459 132.048 47.3179 131.864C46.9979 131.68 46.6379 131.588 46.2379 131.588C45.8299 131.588 45.4659 131.68 45.1459 131.864C44.8259 132.048 44.5699 132.308 44.3779 132.644C44.1859 132.972 44.0899 133.364 44.0899 133.82C44.0899 134.268 44.1859 134.664 44.3779 135.008C44.5699 135.344 44.8259 135.604 45.1459 135.788C45.4659 135.972 45.8299 136.064 46.2379 136.064ZM48.4099 137V135.284L48.4819 133.808L48.3619 132.332V128.096H49.5139V137H48.4099ZM57.1002 137.072C56.4602 137.072 55.9642 136.9 55.6122 136.556C55.2602 136.212 55.0842 135.72 55.0842 135.08V129.248H56.2362V135.032C56.2362 135.376 56.3202 135.64 56.4882 135.824C56.6642 136.008 56.9122 136.1 57.2322 136.1C57.5922 136.1 57.8922 136 58.1322 135.8L58.4922 136.628C58.3162 136.78 58.1042 136.892 57.8562 136.964C57.6162 137.036 57.3642 137.072 57.1002 137.072ZM54.0042 131.588V130.64H58.0602V131.588H54.0042ZM63.281 130.58C63.801 130.58 64.257 130.68 64.649 130.88C65.049 131.08 65.361 131.384 65.585 131.792C65.809 132.2 65.921 132.716 65.921 133.34V137H64.769V133.472C64.769 132.856 64.617 132.392 64.313 132.08C64.017 131.768 63.597 131.612 63.053 131.612C62.645 131.612 62.289 131.692 61.985 131.852C61.681 132.012 61.445 132.248 61.277 132.56C61.117 132.872 61.037 133.26 61.037 133.724V137H59.885V128.096H61.037V132.356L60.809 131.9C61.017 131.484 61.337 131.16 61.769 130.928C62.201 130.696 62.705 130.58 63.281 130.58ZM70.8849 137.072C70.2049 137.072 69.6049 136.932 69.0849 136.652C68.5729 136.372 68.1729 135.988 67.8849 135.5C67.6049 135.012 67.4649 134.452 67.4649 133.82C67.4649 133.188 67.6009 132.628 67.8729 132.14C68.1529 131.652 68.5329 131.272 69.0129 131C69.5009 130.72 70.0489 130.58 70.6569 130.58C71.2729 130.58 71.8169 130.716 72.2889 130.988C72.7609 131.26 73.1289 131.644 73.3929 132.14C73.6649 132.628 73.8009 133.2 73.8009 133.856C73.8009 133.904 73.7969 133.96 73.7889 134.024C73.7889 134.088 73.7849 134.148 73.7769 134.204H68.3649V133.376H73.1769L72.7089 133.664C72.7169 133.256 72.6329 132.892 72.4569 132.572C72.2809 132.252 72.0369 132.004 71.7249 131.828C71.4209 131.644 71.0649 131.552 70.6569 131.552C70.2569 131.552 69.9009 131.644 69.5889 131.828C69.2769 132.004 69.0329 132.256 68.8569 132.584C68.6809 132.904 68.5929 133.272 68.5929 133.688V133.88C68.5929 134.304 68.6889 134.684 68.8809 135.02C69.0809 135.348 69.3569 135.604 69.7089 135.788C70.0609 135.972 70.4649 136.064 70.9209 136.064C71.2969 136.064 71.6369 136 71.9409 135.872C72.2529 135.744 72.5249 135.552 72.7569 135.296L73.3929 136.04C73.1049 136.376 72.7449 136.632 72.3129 136.808C71.8889 136.984 71.4129 137.072 70.8849 137.072ZM81.3953 137.072C80.7473 137.072 80.1673 136.932 79.6553 136.652C79.1513 136.372 78.7553 135.988 78.4673 135.5C78.1793 135.012 78.0353 134.452 78.0353 133.82C78.0353 133.188 78.1793 132.628 78.4673 132.14C78.7553 131.652 79.1513 131.272 79.6553 131C80.1673 130.72 80.7473 130.58 81.3953 130.58C81.9713 130.58 82.4833 130.696 82.9313 130.928C83.3873 131.152 83.7393 131.488 83.9873 131.936L83.1113 132.5C82.9033 132.188 82.6473 131.96 82.3433 131.816C82.0473 131.664 81.7273 131.588 81.3833 131.588C80.9673 131.588 80.5953 131.68 80.2673 131.864C79.9393 132.048 79.6793 132.308 79.4873 132.644C79.2953 132.972 79.1993 133.364 79.1993 133.82C79.1993 134.276 79.2953 134.672 79.4873 135.008C79.6793 135.344 79.9393 135.604 80.2673 135.788C80.5953 135.972 80.9673 136.064 81.3833 136.064C81.7273 136.064 82.0473 135.992 82.3433 135.848C82.6473 135.696 82.9033 135.464 83.1113 135.152L83.9873 135.704C83.7393 136.144 83.3873 136.484 82.9313 136.724C82.4833 136.956 81.9713 137.072 81.3953 137.072ZM88.109 137.072C87.469 137.072 86.901 136.932 86.405 136.652C85.909 136.372 85.517 135.988 85.229 135.5C84.941 135.004 84.797 134.444 84.797 133.82C84.797 133.188 84.941 132.628 85.229 132.14C85.517 131.652 85.909 131.272 86.405 131C86.901 130.72 87.469 130.58 88.109 130.58C88.741 130.58 89.305 130.72 89.801 131C90.305 131.272 90.697 131.652 90.977 132.14C91.265 132.62 91.409 133.18 91.409 133.82C91.409 134.452 91.265 135.012 90.977 135.5C90.697 135.988 90.305 136.372 89.801 136.652C89.305 136.932 88.741 137.072 88.109 137.072ZM88.109 136.064C88.517 136.064 88.881 135.972 89.201 135.788C89.529 135.604 89.785 135.344 89.969 135.008C90.153 134.664 90.245 134.268 90.245 133.82C90.245 133.364 90.153 132.972 89.969 132.644C89.785 132.308 89.529 132.048 89.201 131.864C88.881 131.68 88.517 131.588 88.109 131.588C87.701 131.588 87.337 131.68 87.017 131.864C86.697 132.048 86.441 132.308 86.249 132.644C86.057 132.972 85.961 133.364 85.961 133.82C85.961 134.268 86.057 134.664 86.249 135.008C86.441 135.344 86.697 135.604 87.017 135.788C87.337 135.972 87.701 136.064 88.109 136.064ZM93.0022 137V130.64H94.1062V132.368L93.9982 131.936C94.1742 131.496 94.4702 131.16 94.8862 130.928C95.3022 130.696 95.8142 130.58 96.4222 130.58V131.696C96.3742 131.688 96.3262 131.684 96.2782 131.684C96.2382 131.684 96.1982 131.684 96.1582 131.684C95.5422 131.684 95.0542 131.868 94.6942 132.236C94.3342 132.604 94.1542 133.136 94.1542 133.832V137H93.0022ZM101.238 130.58C101.758 130.58 102.214 130.68 102.606 130.88C103.006 131.08 103.318 131.384 103.542 131.792C103.766 132.2 103.878 132.716 103.878 133.34V137H102.726V133.472C102.726 132.856 102.574 132.392 102.27 132.08C101.974 131.768 101.554 131.612 101.01 131.612C100.602 131.612 100.246 131.692 99.942 131.852C99.638 132.012 99.402 132.248 99.234 132.56C99.074 132.872 98.994 133.26 98.994 133.724V137H97.842V130.64H98.946V132.356L98.766 131.9C98.974 131.484 99.294 131.16 99.726 130.928C100.158 130.696 100.662 130.58 101.238 130.58ZM108.842 137.072C108.162 137.072 107.562 136.932 107.042 136.652C106.53 136.372 106.13 135.988 105.842 135.5C105.562 135.012 105.422 134.452 105.422 133.82C105.422 133.188 105.558 132.628 105.83 132.14C106.11 131.652 106.49 131.272 106.97 131C107.458 130.72 108.006 130.58 108.614 130.58C109.23 130.58 109.774 130.716 110.246 130.988C110.718 131.26 111.086 131.644 111.35 132.14C111.622 132.628 111.758 133.2 111.758 133.856C111.758 133.904 111.754 133.96 111.746 134.024C111.746 134.088 111.742 134.148 111.734 134.204H106.322V133.376H111.134L110.666 133.664C110.674 133.256 110.59 132.892 110.414 132.572C110.238 132.252 109.994 132.004 109.682 131.828C109.378 131.644 109.022 131.552 108.614 131.552C108.214 131.552 107.858 131.644 107.546 131.828C107.234 132.004 106.99 132.256 106.814 132.584C106.638 132.904 106.55 133.272 106.55 133.688V133.88C106.55 134.304 106.646 134.684 106.838 135.02C107.038 135.348 107.314 135.604 107.666 135.788C108.018 135.972 108.422 136.064 108.878 136.064C109.254 136.064 109.594 136 109.898 135.872C110.21 135.744 110.482 135.552 110.714 135.296L111.35 136.04C111.062 136.376 110.702 136.632 110.27 136.808C109.846 136.984 109.37 137.072 108.842 137.072ZM113.358 137V130.64H114.462V132.368L114.354 131.936C114.53 131.496 114.826 131.16 115.242 130.928C115.658 130.696 116.17 130.58 116.778 130.58V131.696C116.73 131.688 116.682 131.684 116.634 131.684C116.594 131.684 116.554 131.684 116.514 131.684C115.898 131.684 115.41 131.868 115.05 132.236C114.69 132.604 114.51 133.136 114.51 133.832V137H113.358ZM124.226 137.072C123.586 137.072 123.018 136.932 122.522 136.652C122.026 136.372 121.634 135.988 121.346 135.5C121.058 135.004 120.914 134.444 120.914 133.82C120.914 133.188 121.058 132.628 121.346 132.14C121.634 131.652 122.026 131.272 122.522 131C123.018 130.72 123.586 130.58 124.226 130.58C124.858 130.58 125.422 130.72 125.918 131C126.422 131.272 126.814 131.652 127.094 132.14C127.382 132.62 127.526 133.18 127.526 133.82C127.526 134.452 127.382 135.012 127.094 135.5C126.814 135.988 126.422 136.372 125.918 136.652C125.422 136.932 124.858 137.072 124.226 137.072ZM124.226 136.064C124.634 136.064 124.998 135.972 125.318 135.788C125.646 135.604 125.902 135.344 126.086 135.008C126.27 134.664 126.362 134.268 126.362 133.82C126.362 133.364 126.27 132.972 126.086 132.644C125.902 132.308 125.646 132.048 125.318 131.864C124.998 131.68 124.634 131.588 124.226 131.588C123.818 131.588 123.454 131.68 123.134 131.864C122.814 132.048 122.558 132.308 122.366 132.644C122.174 132.972 122.078 133.364 122.078 133.82C122.078 134.268 122.174 134.664 122.366 135.008C122.558 135.344 122.814 135.604 123.134 135.788C123.454 135.972 123.818 136.064 124.226 136.064ZM129.287 137V130.076C129.287 129.452 129.467 128.956 129.827 128.588C130.195 128.212 130.715 128.024 131.387 128.024C131.635 128.024 131.871 128.056 132.095 128.12C132.327 128.176 132.523 128.268 132.683 128.396L132.335 129.272C132.215 129.176 132.079 129.104 131.927 129.056C131.775 129 131.615 128.972 131.447 128.972C131.111 128.972 130.855 129.068 130.679 129.26C130.503 129.444 130.415 129.72 130.415 130.088V130.94L130.439 131.468V137H129.287ZM128.207 131.588V130.64H132.263V131.588H128.207ZM138.756 137.072C138.116 137.072 137.62 136.9 137.268 136.556C136.916 136.212 136.74 135.72 136.74 135.08V129.248H137.892V135.032C137.892 135.376 137.976 135.64 138.144 135.824C138.32 136.008 138.568 136.1 138.888 136.1C139.248 136.1 139.548 136 139.788 135.8L140.148 136.628C139.972 136.78 139.76 136.892 139.512 136.964C139.272 137.036 139.02 137.072 138.756 137.072ZM135.66 131.588V130.64H139.716V131.588H135.66ZM144.937 130.58C145.457 130.58 145.913 130.68 146.305 130.88C146.705 131.08 147.017 131.384 147.241 131.792C147.465 132.2 147.577 132.716 147.577 133.34V137H146.425V133.472C146.425 132.856 146.273 132.392 145.969 132.08C145.673 131.768 145.253 131.612 144.709 131.612C144.301 131.612 143.945 131.692 143.641 131.852C143.337 132.012 143.101 132.248 142.933 132.56C142.773 132.872 142.693 133.26 142.693 133.724V137H141.541V128.096H142.693V132.356L142.465 131.9C142.673 131.484 142.993 131.16 143.425 130.928C143.857 130.696 144.361 130.58 144.937 130.58ZM152.541 137.072C151.861 137.072 151.261 136.932 150.741 136.652C150.229 136.372 149.829 135.988 149.541 135.5C149.261 135.012 149.121 134.452 149.121 133.82C149.121 133.188 149.257 132.628 149.529 132.14C149.809 131.652 150.189 131.272 150.669 131C151.157 130.72 151.705 130.58 152.313 130.58C152.929 130.58 153.473 130.716 153.945 130.988C154.417 131.26 154.785 131.644 155.049 132.14C155.321 132.628 155.457 133.2 155.457 133.856C155.457 133.904 155.453 133.96 155.445 134.024C155.445 134.088 155.441 134.148 155.433 134.204H150.021V133.376H154.833L154.365 133.664C154.373 133.256 154.289 132.892 154.113 132.572C153.937 132.252 153.693 132.004 153.381 131.828C153.077 131.644 152.721 131.552 152.313 131.552C151.913 131.552 151.557 131.644 151.245 131.828C150.933 132.004 150.689 132.256 150.513 132.584C150.337 132.904 150.249 133.272 150.249 133.688V133.88C150.249 134.304 150.345 134.684 150.537 135.02C150.737 135.348 151.013 135.604 151.365 135.788C151.717 135.972 152.121 136.064 152.577 136.064C152.953 136.064 153.293 136 153.597 135.872C153.909 135.744 154.181 135.552 154.413 135.296L155.049 136.04C154.761 136.376 154.401 136.632 153.969 136.808C153.545 136.984 153.069 137.072 152.541 137.072ZM59.819 152.072C59.179 152.072 58.683 151.9 58.331 151.556C57.979 151.212 57.803 150.72 57.803 150.08V144.248H58.955V150.032C58.955 150.376 59.039 150.64 59.207 150.824C59.383 151.008 59.631 151.1 59.951 151.1C60.311 151.1 60.611 151 60.851 150.8L61.211 151.628C61.035 151.78 60.823 151.892 60.575 151.964C60.335 152.036 60.083 152.072 59.819 152.072ZM56.723 146.588V145.64H60.779V146.588H56.723ZM66.5517 152V150.656L66.4917 150.404V148.112C66.4917 147.624 66.3477 147.248 66.0597 146.984C65.7797 146.712 65.3557 146.576 64.7877 146.576C64.4117 146.576 64.0437 146.64 63.6837 146.768C63.3237 146.888 63.0197 147.052 62.7717 147.26L62.2917 146.396C62.6197 146.132 63.0117 145.932 63.4677 145.796C63.9317 145.652 64.4157 145.58 64.9197 145.58C65.7917 145.58 66.4637 145.792 66.9357 146.216C67.4077 146.64 67.6437 147.288 67.6437 148.16V152H66.5517ZM64.4637 152.072C63.9917 152.072 63.5757 151.992 63.2157 151.832C62.8637 151.672 62.5917 151.452 62.3997 151.172C62.2077 150.884 62.1117 150.56 62.1117 150.2C62.1117 149.856 62.1917 149.544 62.3517 149.264C62.5197 148.984 62.7877 148.76 63.1557 148.592C63.5317 148.424 64.0357 148.34 64.6677 148.34H66.6837V149.168H64.7157C64.1397 149.168 63.7517 149.264 63.5517 149.456C63.3517 149.648 63.2517 149.88 63.2517 150.152C63.2517 150.464 63.3757 150.716 63.6237 150.908C63.8717 151.092 64.2157 151.184 64.6557 151.184C65.0877 151.184 65.4637 151.088 65.7837 150.896C66.1117 150.704 66.3477 150.424 66.4917 150.056L66.7197 150.848C66.5677 151.224 66.2997 151.524 65.9157 151.748C65.5317 151.964 65.0477 152.072 64.4637 152.072ZM69.7756 152V145.64H70.9276V152H69.7756ZM70.3516 144.416C70.1276 144.416 69.9396 144.344 69.7876 144.2C69.6436 144.056 69.5716 143.88 69.5716 143.672C69.5716 143.456 69.6436 143.276 69.7876 143.132C69.9396 142.988 70.1276 142.916 70.3516 142.916C70.5756 142.916 70.7596 142.988 70.9036 143.132C71.0556 143.268 71.1316 143.44 71.1316 143.648C71.1316 143.864 71.0596 144.048 70.9156 144.2C70.7716 144.344 70.5836 144.416 70.3516 144.416ZM73.1272 152V143.096H74.2792V152H73.1272ZM79.7014 152V145.64H80.8534V152H79.7014ZM80.2774 144.416C80.0534 144.416 79.8654 144.344 79.7134 144.2C79.5694 144.056 79.4974 143.88 79.4974 143.672C79.4974 143.456 79.5694 143.276 79.7134 143.132C79.8654 142.988 80.0534 142.916 80.2774 142.916C80.5014 142.916 80.6854 142.988 80.8294 143.132C80.9814 143.268 81.0574 143.44 81.0574 143.648C81.0574 143.864 80.9854 144.048 80.8414 144.2C80.6974 144.344 80.5094 144.416 80.2774 144.416ZM86.4489 145.58C86.9689 145.58 87.4249 145.68 87.8169 145.88C88.2169 146.08 88.5289 146.384 88.7529 146.792C88.9769 147.2 89.0889 147.716 89.0889 148.34V152H87.9369V148.472C87.9369 147.856 87.7849 147.392 87.4809 147.08C87.1849 146.768 86.7649 146.612 86.2209 146.612C85.8129 146.612 85.4569 146.692 85.1529 146.852C84.8489 147.012 84.6129 147.248 84.4449 147.56C84.2849 147.872 84.2049 148.26 84.2049 148.724V152H83.0529V145.64H84.1569V147.356L83.9769 146.9C84.1849 146.484 84.5049 146.16 84.9369 145.928C85.3689 145.696 85.8729 145.58 86.4489 145.58ZM92.4477 152L90.0837 145.64H91.1757L93.2757 151.4H92.7597L94.9437 145.64H95.9157L98.0517 151.4H97.5477L99.6957 145.64H100.728L98.3517 152H97.2477L95.2437 146.744H95.5797L93.5517 152H92.4477ZM105.645 152V150.656L105.585 150.404V148.112C105.585 147.624 105.441 147.248 105.153 146.984C104.873 146.712 104.449 146.576 103.881 146.576C103.505 146.576 103.137 146.64 102.777 146.768C102.417 146.888 102.113 147.052 101.865 147.26L101.385 146.396C101.713 146.132 102.105 145.932 102.561 145.796C103.025 145.652 103.509 145.58 104.013 145.58C104.885 145.58 105.557 145.792 106.029 146.216C106.501 146.64 106.737 147.288 106.737 148.16V152H105.645ZM103.557 152.072C103.085 152.072 102.669 151.992 102.309 151.832C101.957 151.672 101.685 151.452 101.493 151.172C101.301 150.884 101.205 150.56 101.205 150.2C101.205 149.856 101.285 149.544 101.445 149.264C101.613 148.984 101.881 148.76 102.249 148.592C102.625 148.424 103.129 148.34 103.761 148.34H105.777V149.168H103.809C103.233 149.168 102.845 149.264 102.645 149.456C102.445 149.648 102.345 149.88 102.345 150.152C102.345 150.464 102.469 150.716 102.717 150.908C102.965 151.092 103.309 151.184 103.749 151.184C104.181 151.184 104.557 151.088 104.877 150.896C105.205 150.704 105.441 150.424 105.585 150.056L105.813 150.848C105.661 151.224 105.393 151.524 105.009 151.748C104.625 151.964 104.141 152.072 103.557 152.072ZM108.869 152V145.64H109.973V147.368L109.865 146.936C110.041 146.496 110.337 146.16 110.753 145.928C111.169 145.696 111.681 145.58 112.289 145.58V146.696C112.241 146.688 112.193 146.684 112.145 146.684C112.105 146.684 112.065 146.684 112.025 146.684C111.409 146.684 110.921 146.868 110.561 147.236C110.201 147.604 110.021 148.136 110.021 148.832V152H108.869ZM116.279 152.072C115.663 152.072 115.111 151.936 114.623 151.664C114.143 151.392 113.763 151.012 113.483 150.524C113.203 150.036 113.063 149.468 113.063 148.82C113.063 148.172 113.203 147.608 113.483 147.128C113.763 146.64 114.143 146.26 114.623 145.988C115.111 145.716 115.663 145.58 116.279 145.58C116.815 145.58 117.299 145.7 117.731 145.94C118.163 146.18 118.507 146.54 118.763 147.02C119.027 147.5 119.159 148.1 119.159 148.82C119.159 149.54 119.031 150.14 118.775 150.62C118.527 151.1 118.187 151.464 117.755 151.712C117.323 151.952 116.831 152.072 116.279 152.072ZM116.375 151.064C116.775 151.064 117.135 150.972 117.455 150.788C117.783 150.604 118.039 150.344 118.223 150.008C118.415 149.664 118.511 149.268 118.511 148.82C118.511 148.364 118.415 147.972 118.223 147.644C118.039 147.308 117.783 147.048 117.455 146.864C117.135 146.68 116.775 146.588 116.375 146.588C115.967 146.588 115.603 146.68 115.283 146.864C114.963 147.048 114.707 147.308 114.515 147.644C114.323 147.972 114.227 148.364 114.227 148.82C114.227 149.268 114.323 149.664 114.515 150.008C114.707 150.344 114.963 150.604 115.283 150.788C115.603 150.972 115.967 151.064 116.375 151.064ZM118.547 152V150.284L118.619 148.808L118.499 147.332V143.096H119.651V152H118.547ZM122.106 152.072C121.882 152.072 121.69 151.996 121.53 151.844C121.37 151.684 121.29 151.484 121.29 151.244C121.29 151.004 121.37 150.808 121.53 150.656C121.69 150.504 121.882 150.428 122.106 150.428C122.322 150.428 122.506 150.504 122.658 150.656C122.818 150.808 122.898 151.004 122.898 151.244C122.898 151.484 122.818 151.684 122.658 151.844C122.506 151.996 122.322 152.072 122.106 152.072Z" fill="#008E86"/>
<path d="M45.1776 61.6659L59.6486 34.2415L49.2369 26.4547L50.888 19.6549L69.5518 19.0058L77.9345 34.2415L75.6491 68.522L64.2223 77.6634L45.1776 61.6659Z" fill="#008E86" stroke="#00635D" stroke-width="2" stroke-linejoin="round"/>
<path d="M59.6501 34.244L49.2384 26.4571L50.8895 19.6574L66.4314 20.7283L59.6501 34.244Z" fill="#00D8CC" stroke="#00635D" stroke-width="2" stroke-linejoin="round"/>
<path d="M59.6487 34.2433L51.5769 27.948L54.8776 21.7591L66.4301 20.7276L59.6487 34.2433Z" fill="#008E86" stroke="#00635D" stroke-width="2" stroke-linejoin="round"/>
<path d="M61.9347 35.7655L68.029 22.8151L54.6977 21.6724L51.6505 28.1476L61.9347 35.7655Z" fill="#00D8CC" stroke="#00635D" stroke-width="2" stroke-linejoin="round"/>
<path d="M50.5102 60.9067L68.0284 22.8173L77.9316 34.2442L75.6492 68.5246L50.5102 60.9067Z" fill="#008E86" stroke="#00635D" stroke-width="2" stroke-linejoin="round"/>
<path d="M50.9714 60.8796L68.1771 23.4693L77.9038 34.6924L75.6621 68.3616L50.9714 60.8796Z" fill="#008E86" stroke="#00635D" stroke-width="2" stroke-linejoin="round"/>
<path d="M68.9283 54.1435L145.245 78.8343L74.9139 78.8343L68.9283 54.1435Z" fill="#008E86" stroke="#00635D" stroke-width="2" stroke-linejoin="round"/>
<path d="M50.9715 60.8786L68.9285 54.1446L77.9054 79.5841L64.4392 77.3391L50.9715 60.8786Z" fill="#008E86" stroke="#00635D" stroke-width="2" stroke-linejoin="round"/>
<path d="M68.9278 54.1421L77.9046 79.5816L53.9627 99.7831L68.9278 54.1421Z" fill="#00D8CC" stroke="#00635D" stroke-width="2" stroke-linejoin="round"/>
<path d="M94.3658 78.8342L112.323 68.3594" stroke="#333333" stroke-width="2" stroke-dasharray="4 6"/>
<path d="M146.847 69.3551C147.397 69.4053 147.802 69.8919 147.752 70.4419C147.702 70.9919 147.215 71.397 146.665 71.3468L146.847 69.3551ZM128.861 37.971C129.339 37.6948 129.95 37.8587 130.227 38.337L134.727 46.1312C135.003 46.6095 134.839 47.2211 134.361 47.4972C133.882 47.7734 133.271 47.6095 132.995 47.1312L128.995 40.203L122.066 44.203C121.588 44.4792 120.976 44.3153 120.7 43.837C120.424 43.3587 120.588 42.7471 121.066 42.471L128.861 37.971ZM146.665 71.3468C139.182 70.6635 133.392 66.8621 130.097 60.9728C126.815 55.1067 126.064 47.2757 128.395 38.5782L130.327 39.0958C128.097 47.4161 128.873 54.6873 131.843 59.9963C134.8 65.2821 139.988 68.7287 146.847 69.3551L146.665 71.3468Z" fill="black"/>
</svg>
