<svg width="180" height="180" viewBox="0 0 180 180" fill="none" xmlns="http://www.w3.org/2000/svg">
<g clip-path="url(#clip0_14_3291)">
<rect width="180" height="180" rx="20" fill="#F2F2F2"/>
<g clip-path="url(#clip1_14_3291)">
<path d="M0 30L-1.31134e-06 0L30 -1.31134e-06L30 10C30 21.0457 21.0457 30 10 30L0 30Z" fill="#333333"/>
<path d="M20.3644 18.648H18.5404V21H16.0124V18.648H9.98038V16.904L15.2604 9.8H17.9804L13.0844 16.536H16.0924V14.44H18.5404V16.536H20.3644V18.648Z" fill="#F2F2F2"/>
</g>
<path d="M31.2483 129V120.6H34.5243C35.2603 120.6 35.8883 120.716 36.4083 120.948C36.9283 121.18 37.3283 121.516 37.6083 121.956C37.8883 122.396 38.0283 122.92 38.0283 123.528C38.0283 124.136 37.8883 124.66 37.6083 125.1C37.3283 125.532 36.9283 125.864 36.4083 126.096C35.8883 126.328 35.2603 126.444 34.5243 126.444H31.9083L32.4483 125.892V129H31.2483ZM36.8643 129L34.7283 125.952H36.0123L38.1723 129H36.8643ZM32.4483 126.012L31.9083 125.424H34.4883C35.2563 125.424 35.8363 125.26 36.2283 124.932C36.6283 124.596 36.8283 124.128 36.8283 123.528C36.8283 122.928 36.6283 122.464 36.2283 122.136C35.8363 121.808 35.2563 121.644 34.4883 121.644H31.9083L32.4483 121.044V126.012ZM42.631 129.072C41.951 129.072 41.351 128.932 40.831 128.652C40.319 128.372 39.919 127.988 39.631 127.5C39.351 127.012 39.211 126.452 39.211 125.82C39.211 125.188 39.347 124.628 39.619 124.14C39.899 123.652 40.279 123.272 40.759 123C41.247 122.72 41.795 122.58 42.403 122.58C43.019 122.58 43.563 122.716 44.035 122.988C44.507 123.26 44.875 123.644 45.139 124.14C45.411 124.628 45.547 125.2 45.547 125.856C45.547 125.904 45.543 125.96 45.535 126.024C45.535 126.088 45.531 126.148 45.523 126.204H40.111V125.376H44.923L44.455 125.664C44.463 125.256 44.379 124.892 44.203 124.572C44.027 124.252 43.783 124.004 43.471 123.828C43.167 123.644 42.811 123.552 42.403 123.552C42.003 123.552 41.647 123.644 41.335 123.828C41.023 124.004 40.779 124.256 40.603 124.584C40.427 124.904 40.339 125.272 40.339 125.688V125.88C40.339 126.304 40.435 126.684 40.627 127.02C40.827 127.348 41.103 127.604 41.455 127.788C41.807 127.972 42.211 128.064 42.667 128.064C43.043 128.064 43.383 128 43.687 127.872C43.999 127.744 44.271 127.552 44.503 127.296L45.139 128.04C44.851 128.376 44.491 128.632 44.059 128.808C43.635 128.984 43.159 129.072 42.631 129.072ZM47.1467 129V120.096H48.2987V129H47.1467ZM53.3303 129.072C52.6503 129.072 52.0503 128.932 51.5303 128.652C51.0183 128.372 50.6183 127.988 50.3303 127.5C50.0503 127.012 49.9103 126.452 49.9103 125.82C49.9103 125.188 50.0463 124.628 50.3183 124.14C50.5983 123.652 50.9783 123.272 51.4583 123C51.9463 122.72 52.4943 122.58 53.1023 122.58C53.7183 122.58 54.2623 122.716 54.7343 122.988C55.2063 123.26 55.5743 123.644 55.8383 124.14C56.1103 124.628 56.2463 125.2 56.2463 125.856C56.2463 125.904 56.2423 125.96 56.2343 126.024C56.2343 126.088 56.2303 126.148 56.2223 126.204H50.8103V125.376H55.6223L55.1543 125.664C55.1623 125.256 55.0783 124.892 54.9023 124.572C54.7263 124.252 54.4823 124.004 54.1703 123.828C53.8663 123.644 53.5103 123.552 53.1023 123.552C52.7023 123.552 52.3463 123.644 52.0343 123.828C51.7223 124.004 51.4783 124.256 51.3023 124.584C51.1263 124.904 51.0383 125.272 51.0383 125.688V125.88C51.0383 126.304 51.1343 126.684 51.3263 127.02C51.5263 127.348 51.8023 127.604 52.1543 127.788C52.5063 127.972 52.9103 128.064 53.3663 128.064C53.7423 128.064 54.0823 128 54.3863 127.872C54.6983 127.744 54.9703 127.552 55.2023 127.296L55.8383 128.04C55.5503 128.376 55.1903 128.632 54.7583 128.808C54.3343 128.984 53.8583 129.072 53.3303 129.072ZM61.6181 129V127.656L61.5581 127.404V125.112C61.5581 124.624 61.4141 124.248 61.1261 123.984C60.8461 123.712 60.4221 123.576 59.8541 123.576C59.4781 123.576 59.1101 123.64 58.7501 123.768C58.3901 123.888 58.0861 124.052 57.8381 124.26L57.3581 123.396C57.6861 123.132 58.0781 122.932 58.5341 122.796C58.9981 122.652 59.4821 122.58 59.9861 122.58C60.8581 122.58 61.5301 122.792 62.0021 123.216C62.4741 123.64 62.7101 124.288 62.7101 125.16V129H61.6181ZM59.5301 129.072C59.0581 129.072 58.6421 128.992 58.2821 128.832C57.9301 128.672 57.6581 128.452 57.4661 128.172C57.2741 127.884 57.1781 127.56 57.1781 127.2C57.1781 126.856 57.2581 126.544 57.4181 126.264C57.5861 125.984 57.8541 125.76 58.2221 125.592C58.5981 125.424 59.1021 125.34 59.7341 125.34H61.7501V126.168H59.7821C59.2061 126.168 58.8181 126.264 58.6181 126.456C58.4181 126.648 58.3181 126.88 58.3181 127.152C58.3181 127.464 58.4421 127.716 58.6901 127.908C58.9381 128.092 59.2821 128.184 59.7221 128.184C60.1541 128.184 60.5301 128.088 60.8501 127.896C61.1781 127.704 61.4141 127.424 61.5581 127.056L61.7861 127.848C61.6341 128.224 61.3661 128.524 60.9821 128.748C60.5981 128.964 60.1141 129.072 59.5301 129.072ZM66.666 129.072C66.138 129.072 65.634 129 65.154 128.856C64.682 128.712 64.31 128.536 64.038 128.328L64.518 127.416C64.79 127.6 65.126 127.756 65.526 127.884C65.926 128.012 66.334 128.076 66.75 128.076C67.286 128.076 67.67 128 67.902 127.848C68.142 127.696 68.262 127.484 68.262 127.212C68.262 127.012 68.19 126.856 68.046 126.744C67.902 126.632 67.71 126.548 67.47 126.492C67.238 126.436 66.978 126.388 66.69 126.348C66.402 126.3 66.114 126.244 65.826 126.18C65.538 126.108 65.274 126.012 65.034 125.892C64.794 125.764 64.602 125.592 64.458 125.376C64.314 125.152 64.242 124.856 64.242 124.488C64.242 124.104 64.35 123.768 64.566 123.48C64.782 123.192 65.086 122.972 65.478 122.82C65.878 122.66 66.35 122.58 66.894 122.58C67.31 122.58 67.73 122.632 68.154 122.736C68.586 122.832 68.938 122.972 69.21 123.156L68.718 124.068C68.43 123.876 68.13 123.744 67.818 123.672C67.506 123.6 67.194 123.564 66.882 123.564C66.378 123.564 66.002 123.648 65.754 123.816C65.506 123.976 65.382 124.184 65.382 124.44C65.382 124.656 65.454 124.824 65.598 124.944C65.75 125.056 65.942 125.144 66.174 125.208C66.414 125.272 66.678 125.328 66.966 125.376C67.254 125.416 67.542 125.472 67.83 125.544C68.118 125.608 68.378 125.7 68.61 125.82C68.85 125.94 69.042 126.108 69.186 126.324C69.338 126.54 69.414 126.828 69.414 127.188C69.414 127.572 69.302 127.904 69.078 128.184C68.854 128.464 68.538 128.684 68.13 128.844C67.722 128.996 67.234 129.072 66.666 129.072ZM73.6857 129.072C73.0057 129.072 72.4057 128.932 71.8857 128.652C71.3737 128.372 70.9737 127.988 70.6857 127.5C70.4057 127.012 70.2657 126.452 70.2657 125.82C70.2657 125.188 70.4017 124.628 70.6737 124.14C70.9537 123.652 71.3337 123.272 71.8137 123C72.3017 122.72 72.8497 122.58 73.4577 122.58C74.0737 122.58 74.6177 122.716 75.0897 122.988C75.5617 123.26 75.9297 123.644 76.1937 124.14C76.4657 124.628 76.6017 125.2 76.6017 125.856C76.6017 125.904 76.5977 125.96 76.5897 126.024C76.5897 126.088 76.5857 126.148 76.5777 126.204H71.1657V125.376H75.9777L75.5097 125.664C75.5177 125.256 75.4337 124.892 75.2577 124.572C75.0817 124.252 74.8377 124.004 74.5257 123.828C74.2217 123.644 73.8657 123.552 73.4577 123.552C73.0577 123.552 72.7017 123.644 72.3897 123.828C72.0777 124.004 71.8337 124.256 71.6577 124.584C71.4817 124.904 71.3937 125.272 71.3937 125.688V125.88C71.3937 126.304 71.4897 126.684 71.6817 127.02C71.8817 127.348 72.1577 127.604 72.5097 127.788C72.8617 127.972 73.2657 128.064 73.7217 128.064C74.0977 128.064 74.4377 128 74.7417 127.872C75.0537 127.744 75.3257 127.552 75.5577 127.296L76.1937 128.04C75.9057 128.376 75.5457 128.632 75.1137 128.808C74.6897 128.984 74.2137 129.072 73.6857 129.072ZM83.608 129.072C82.968 129.072 82.472 128.9 82.12 128.556C81.768 128.212 81.592 127.72 81.592 127.08V121.248H82.744V127.032C82.744 127.376 82.828 127.64 82.996 127.824C83.172 128.008 83.42 128.1 83.74 128.1C84.1 128.1 84.4 128 84.64 127.8L85 128.628C84.824 128.78 84.612 128.892 84.364 128.964C84.124 129.036 83.872 129.072 83.608 129.072ZM80.512 123.588V122.64H84.568V123.588H80.512ZM89.7888 122.58C90.3088 122.58 90.7648 122.68 91.1568 122.88C91.5568 123.08 91.8688 123.384 92.0928 123.792C92.3168 124.2 92.4288 124.716 92.4288 125.34V129H91.2768V125.472C91.2768 124.856 91.1248 124.392 90.8208 124.08C90.5248 123.768 90.1048 123.612 89.5608 123.612C89.1528 123.612 88.7968 123.692 88.4928 123.852C88.1888 124.012 87.9528 124.248 87.7848 124.56C87.6248 124.872 87.5448 125.26 87.5448 125.724V129H86.3928V120.096H87.5448V124.356L87.3168 123.9C87.5248 123.484 87.8448 123.16 88.2768 122.928C88.7088 122.696 89.2128 122.58 89.7888 122.58ZM97.3928 129.072C96.7128 129.072 96.1128 128.932 95.5928 128.652C95.0808 128.372 94.6808 127.988 94.3928 127.5C94.1128 127.012 93.9728 126.452 93.9728 125.82C93.9728 125.188 94.1088 124.628 94.3808 124.14C94.6608 123.652 95.0408 123.272 95.5208 123C96.0088 122.72 96.5568 122.58 97.1648 122.58C97.7808 122.58 98.3248 122.716 98.7968 122.988C99.2688 123.26 99.6368 123.644 99.9008 124.14C100.173 124.628 100.309 125.2 100.309 125.856C100.309 125.904 100.305 125.96 100.297 126.024C100.297 126.088 100.293 126.148 100.285 126.204H94.8728V125.376H99.6848L99.2168 125.664C99.2248 125.256 99.1408 124.892 98.9648 124.572C98.7888 124.252 98.5448 124.004 98.2328 123.828C97.9288 123.644 97.5728 123.552 97.1648 123.552C96.7648 123.552 96.4088 123.644 96.0968 123.828C95.7848 124.004 95.5408 124.256 95.3648 124.584C95.1888 124.904 95.1008 125.272 95.1008 125.688V125.88C95.1008 126.304 95.1968 126.684 95.3888 127.02C95.5888 127.348 95.8648 127.604 96.2168 127.788C96.5688 127.972 96.9728 128.064 97.4288 128.064C97.8048 128.064 98.1448 128 98.4488 127.872C98.7608 127.744 99.0328 127.552 99.2648 127.296L99.9008 128.04C99.6128 128.376 99.2528 128.632 98.8208 128.808C98.3968 128.984 97.9208 129.072 97.3928 129.072ZM106.955 129.072C106.427 129.072 105.923 129 105.443 128.856C104.971 128.712 104.599 128.536 104.327 128.328L104.807 127.416C105.079 127.6 105.415 127.756 105.815 127.884C106.215 128.012 106.623 128.076 107.039 128.076C107.575 128.076 107.959 128 108.191 127.848C108.431 127.696 108.551 127.484 108.551 127.212C108.551 127.012 108.479 126.856 108.335 126.744C108.191 126.632 107.999 126.548 107.759 126.492C107.527 126.436 107.267 126.388 106.979 126.348C106.691 126.3 106.403 126.244 106.115 126.18C105.827 126.108 105.563 126.012 105.323 125.892C105.083 125.764 104.891 125.592 104.747 125.376C104.603 125.152 104.531 124.856 104.531 124.488C104.531 124.104 104.639 123.768 104.855 123.48C105.071 123.192 105.375 122.972 105.767 122.82C106.167 122.66 106.639 122.58 107.183 122.58C107.599 122.58 108.019 122.632 108.443 122.736C108.875 122.832 109.227 122.972 109.499 123.156L109.007 124.068C108.719 123.876 108.419 123.744 108.107 123.672C107.795 123.6 107.483 123.564 107.171 123.564C106.667 123.564 106.291 123.648 106.043 123.816C105.795 123.976 105.671 124.184 105.671 124.44C105.671 124.656 105.743 124.824 105.887 124.944C106.039 125.056 106.231 125.144 106.463 125.208C106.703 125.272 106.967 125.328 107.255 125.376C107.543 125.416 107.831 125.472 108.119 125.544C108.407 125.608 108.667 125.7 108.899 125.82C109.139 125.94 109.331 126.108 109.475 126.324C109.627 126.54 109.703 126.828 109.703 127.188C109.703 127.572 109.591 127.904 109.367 128.184C109.143 128.464 108.827 128.684 108.419 128.844C108.011 128.996 107.523 129.072 106.955 129.072ZM111.143 129V122.64H112.295V129H111.143ZM111.719 121.416C111.495 121.416 111.307 121.344 111.155 121.2C111.011 121.056 110.939 120.88 110.939 120.672C110.939 120.456 111.011 120.276 111.155 120.132C111.307 119.988 111.495 119.916 111.719 119.916C111.943 119.916 112.127 119.988 112.271 120.132C112.423 120.268 112.499 120.44 112.499 120.648C112.499 120.864 112.427 121.048 112.283 121.2C112.139 121.344 111.951 121.416 111.719 121.416ZM117.122 129.072C116.506 129.072 115.954 128.936 115.466 128.664C114.986 128.392 114.606 128.012 114.326 127.524C114.046 127.036 113.906 126.468 113.906 125.82C113.906 125.172 114.046 124.608 114.326 124.128C114.606 123.64 114.986 123.26 115.466 122.988C115.954 122.716 116.506 122.58 117.122 122.58C117.658 122.58 118.142 122.7 118.574 122.94C119.006 123.18 119.35 123.54 119.606 124.02C119.87 124.5 120.002 125.1 120.002 125.82C120.002 126.54 119.874 127.14 119.618 127.62C119.37 128.1 119.03 128.464 118.598 128.712C118.166 128.952 117.674 129.072 117.122 129.072ZM117.218 128.064C117.618 128.064 117.978 127.972 118.298 127.788C118.626 127.604 118.882 127.344 119.066 127.008C119.258 126.664 119.354 126.268 119.354 125.82C119.354 125.364 119.258 124.972 119.066 124.644C118.882 124.308 118.626 124.048 118.298 123.864C117.978 123.68 117.618 123.588 117.218 123.588C116.81 123.588 116.446 123.68 116.126 123.864C115.806 124.048 115.55 124.308 115.358 124.644C115.166 124.972 115.07 125.364 115.07 125.82C115.07 126.268 115.166 126.664 115.358 127.008C115.55 127.344 115.806 127.604 116.126 127.788C116.446 127.972 116.81 128.064 117.218 128.064ZM119.39 129V127.284L119.462 125.808L119.342 124.332V120.096H120.494V129H119.39ZM125.506 129.072C124.826 129.072 124.226 128.932 123.706 128.652C123.194 128.372 122.794 127.988 122.506 127.5C122.226 127.012 122.086 126.452 122.086 125.82C122.086 125.188 122.222 124.628 122.494 124.14C122.774 123.652 123.154 123.272 123.634 123C124.122 122.72 124.67 122.58 125.278 122.58C125.894 122.58 126.438 122.716 126.91 122.988C127.382 123.26 127.75 123.644 128.014 124.14C128.286 124.628 128.422 125.2 128.422 125.856C128.422 125.904 128.418 125.96 128.41 126.024C128.41 126.088 128.406 126.148 128.398 126.204H122.986V125.376H127.798L127.33 125.664C127.338 125.256 127.254 124.892 127.078 124.572C126.902 124.252 126.658 124.004 126.346 123.828C126.042 123.644 125.686 123.552 125.278 123.552C124.878 123.552 124.522 123.644 124.21 123.828C123.898 124.004 123.654 124.256 123.478 124.584C123.302 124.904 123.214 125.272 123.214 125.688V125.88C123.214 126.304 123.31 126.684 123.502 127.02C123.702 127.348 123.978 127.604 124.33 127.788C124.682 127.972 125.086 128.064 125.542 128.064C125.918 128.064 126.258 128 126.562 127.872C126.874 127.744 127.146 127.552 127.378 127.296L128.014 128.04C127.726 128.376 127.366 128.632 126.934 128.808C126.51 128.984 126.034 129.072 125.506 129.072ZM131.846 129.072C131.318 129.072 130.814 129 130.334 128.856C129.862 128.712 129.49 128.536 129.218 128.328L129.698 127.416C129.97 127.6 130.306 127.756 130.706 127.884C131.106 128.012 131.514 128.076 131.93 128.076C132.466 128.076 132.85 128 133.082 127.848C133.322 127.696 133.442 127.484 133.442 127.212C133.442 127.012 133.37 126.856 133.226 126.744C133.082 126.632 132.89 126.548 132.65 126.492C132.418 126.436 132.158 126.388 131.87 126.348C131.582 126.3 131.294 126.244 131.006 126.18C130.718 126.108 130.454 126.012 130.214 125.892C129.974 125.764 129.782 125.592 129.638 125.376C129.494 125.152 129.422 124.856 129.422 124.488C129.422 124.104 129.53 123.768 129.746 123.48C129.962 123.192 130.266 122.972 130.658 122.82C131.058 122.66 131.53 122.58 132.074 122.58C132.49 122.58 132.91 122.632 133.334 122.736C133.766 122.832 134.118 122.972 134.39 123.156L133.898 124.068C133.61 123.876 133.31 123.744 132.998 123.672C132.686 123.6 132.374 123.564 132.062 123.564C131.558 123.564 131.182 123.648 130.934 123.816C130.686 123.976 130.562 124.184 130.562 124.44C130.562 124.656 130.634 124.824 130.778 124.944C130.93 125.056 131.122 125.144 131.354 125.208C131.594 125.272 131.858 125.328 132.146 125.376C132.434 125.416 132.722 125.472 133.01 125.544C133.298 125.608 133.558 125.7 133.79 125.82C134.03 125.94 134.222 126.108 134.366 126.324C134.518 126.54 134.594 126.828 134.594 127.188C134.594 127.572 134.482 127.904 134.258 128.184C134.034 128.464 133.718 128.684 133.31 128.844C132.902 128.996 132.414 129.072 131.846 129.072ZM141.98 129.072C141.34 129.072 140.772 128.932 140.276 128.652C139.78 128.372 139.388 127.988 139.1 127.5C138.812 127.004 138.668 126.444 138.668 125.82C138.668 125.188 138.812 124.628 139.1 124.14C139.388 123.652 139.78 123.272 140.276 123C140.772 122.72 141.34 122.58 141.98 122.58C142.612 122.58 143.176 122.72 143.672 123C144.176 123.272 144.568 123.652 144.848 124.14C145.136 124.62 145.28 125.18 145.28 125.82C145.28 126.452 145.136 127.012 144.848 127.5C144.568 127.988 144.176 128.372 143.672 128.652C143.176 128.932 142.612 129.072 141.98 129.072ZM141.98 128.064C142.388 128.064 142.752 127.972 143.072 127.788C143.4 127.604 143.656 127.344 143.84 127.008C144.024 126.664 144.116 126.268 144.116 125.82C144.116 125.364 144.024 124.972 143.84 124.644C143.656 124.308 143.4 124.048 143.072 123.864C142.752 123.68 142.388 123.588 141.98 123.588C141.572 123.588 141.208 123.68 140.888 123.864C140.568 124.048 140.312 124.308 140.12 124.644C139.928 124.972 139.832 125.364 139.832 125.82C139.832 126.268 139.928 126.664 140.12 127.008C140.312 127.344 140.568 127.604 140.888 127.788C141.208 127.972 141.572 128.064 141.98 128.064ZM147.041 129V122.076C147.041 121.452 147.221 120.956 147.581 120.588C147.949 120.212 148.469 120.024 149.141 120.024C149.389 120.024 149.625 120.056 149.849 120.12C150.081 120.176 150.277 120.268 150.437 120.396L150.089 121.272C149.969 121.176 149.833 121.104 149.681 121.056C149.529 121 149.369 120.972 149.201 120.972C148.865 120.972 148.609 121.068 148.433 121.26C148.257 121.444 148.169 121.72 148.169 122.088V122.94L148.193 123.468V129H147.041ZM145.961 123.588V122.64H150.017V123.588H145.961ZM38.0397 144.072C37.3997 144.072 36.9037 143.9 36.5517 143.556C36.1997 143.212 36.0237 142.72 36.0237 142.08V136.248H37.1757V142.032C37.1757 142.376 37.2597 142.64 37.4277 142.824C37.6037 143.008 37.8517 143.1 38.1717 143.1C38.5317 143.1 38.8317 143 39.0717 142.8L39.4317 143.628C39.2557 143.78 39.0437 143.892 38.7957 143.964C38.5557 144.036 38.3037 144.072 38.0397 144.072ZM34.9437 138.588V137.64H38.9997V138.588H34.9437ZM44.2204 137.58C44.7404 137.58 45.1964 137.68 45.5884 137.88C45.9884 138.08 46.3004 138.384 46.5244 138.792C46.7484 139.2 46.8604 139.716 46.8604 140.34V144H45.7084V140.472C45.7084 139.856 45.5564 139.392 45.2524 139.08C44.9564 138.768 44.5364 138.612 43.9924 138.612C43.5844 138.612 43.2284 138.692 42.9244 138.852C42.6204 139.012 42.3844 139.248 42.2164 139.56C42.0564 139.872 41.9764 140.26 41.9764 140.724V144H40.8244V135.096H41.9764V139.356L41.7484 138.9C41.9564 138.484 42.2764 138.16 42.7084 137.928C43.1404 137.696 43.6444 137.58 44.2204 137.58ZM51.8244 144.072C51.1444 144.072 50.5444 143.932 50.0244 143.652C49.5124 143.372 49.1124 142.988 48.8244 142.5C48.5444 142.012 48.4044 141.452 48.4044 140.82C48.4044 140.188 48.5404 139.628 48.8124 139.14C49.0924 138.652 49.4724 138.272 49.9524 138C50.4404 137.72 50.9884 137.58 51.5964 137.58C52.2124 137.58 52.7564 137.716 53.2284 137.988C53.7004 138.26 54.0684 138.644 54.3324 139.14C54.6044 139.628 54.7404 140.2 54.7404 140.856C54.7404 140.904 54.7364 140.96 54.7284 141.024C54.7284 141.088 54.7244 141.148 54.7164 141.204H49.3044V140.376H54.1164L53.6484 140.664C53.6564 140.256 53.5724 139.892 53.3964 139.572C53.2204 139.252 52.9764 139.004 52.6644 138.828C52.3604 138.644 52.0044 138.552 51.5964 138.552C51.1964 138.552 50.8404 138.644 50.5284 138.828C50.2164 139.004 49.9724 139.256 49.7964 139.584C49.6204 139.904 49.5324 140.272 49.5324 140.688V140.88C49.5324 141.304 49.6284 141.684 49.8204 142.02C50.0204 142.348 50.2964 142.604 50.6484 142.788C51.0004 142.972 51.4044 143.064 51.8604 143.064C52.2364 143.064 52.5764 143 52.8804 142.872C53.1924 142.744 53.4644 142.552 53.6964 142.296L54.3324 143.04C54.0444 143.376 53.6844 143.632 53.2524 143.808C52.8284 143.984 52.3524 144.072 51.8244 144.072ZM62.9347 144.072C62.4067 144.072 61.9227 143.952 61.4827 143.712C61.0507 143.464 60.7027 143.1 60.4387 142.62C60.1827 142.14 60.0547 141.54 60.0547 140.82C60.0547 140.1 60.1787 139.5 60.4267 139.02C60.6827 138.54 61.0267 138.18 61.4587 137.94C61.8987 137.7 62.3907 137.58 62.9347 137.58C63.5587 137.58 64.1107 137.716 64.5907 137.988C65.0707 138.26 65.4507 138.64 65.7307 139.128C66.0107 139.608 66.1507 140.172 66.1507 140.82C66.1507 141.468 66.0107 142.036 65.7307 142.524C65.4507 143.012 65.0707 143.392 64.5907 143.664C64.1107 143.936 63.5587 144.072 62.9347 144.072ZM59.5627 146.328V137.64H60.6667V139.356L60.5947 140.832L60.7147 142.308V146.328H59.5627ZM62.8387 143.064C63.2467 143.064 63.6107 142.972 63.9307 142.788C64.2587 142.604 64.5147 142.344 64.6987 142.008C64.8907 141.664 64.9867 141.268 64.9867 140.82C64.9867 140.364 64.8907 139.972 64.6987 139.644C64.5147 139.308 64.2587 139.048 63.9307 138.864C63.6107 138.68 63.2467 138.588 62.8387 138.588C62.4387 138.588 62.0747 138.68 61.7467 138.864C61.4267 139.048 61.1707 139.308 60.9787 139.644C60.7947 139.972 60.7027 140.364 60.7027 140.82C60.7027 141.268 60.7947 141.664 60.9787 142.008C61.1707 142.344 61.4267 142.604 61.7467 142.788C62.0747 142.972 62.4387 143.064 62.8387 143.064ZM71.6318 144V142.656L71.5718 142.404V140.112C71.5718 139.624 71.4278 139.248 71.1398 138.984C70.8598 138.712 70.4358 138.576 69.8678 138.576C69.4918 138.576 69.1238 138.64 68.7638 138.768C68.4038 138.888 68.0998 139.052 67.8518 139.26L67.3718 138.396C67.6998 138.132 68.0918 137.932 68.5478 137.796C69.0118 137.652 69.4958 137.58 69.9998 137.58C70.8718 137.58 71.5438 137.792 72.0158 138.216C72.4878 138.64 72.7238 139.288 72.7238 140.16V144H71.6318ZM69.5438 144.072C69.0718 144.072 68.6558 143.992 68.2958 143.832C67.9438 143.672 67.6718 143.452 67.4798 143.172C67.2878 142.884 67.1918 142.56 67.1918 142.2C67.1918 141.856 67.2718 141.544 67.4318 141.264C67.5998 140.984 67.8678 140.76 68.2358 140.592C68.6118 140.424 69.1158 140.34 69.7478 140.34H71.7638V141.168H69.7958C69.2198 141.168 68.8318 141.264 68.6318 141.456C68.4318 141.648 68.3318 141.88 68.3318 142.152C68.3318 142.464 68.4558 142.716 68.7038 142.908C68.9518 143.092 69.2958 143.184 69.7358 143.184C70.1678 143.184 70.5438 143.088 70.8638 142.896C71.1918 142.704 71.4278 142.424 71.5718 142.056L71.7998 142.848C71.6478 143.224 71.3798 143.524 70.9958 143.748C70.6118 143.964 70.1278 144.072 69.5438 144.072ZM78.2277 144.072C77.6997 144.072 77.2157 143.952 76.7757 143.712C76.3437 143.464 75.9957 143.1 75.7317 142.62C75.4757 142.14 75.3477 141.54 75.3477 140.82C75.3477 140.1 75.4717 139.5 75.7197 139.02C75.9757 138.54 76.3197 138.18 76.7517 137.94C77.1917 137.7 77.6837 137.58 78.2277 137.58C78.8517 137.58 79.4037 137.716 79.8837 137.988C80.3637 138.26 80.7437 138.64 81.0237 139.128C81.3037 139.608 81.4437 140.172 81.4437 140.82C81.4437 141.468 81.3037 142.036 81.0237 142.524C80.7437 143.012 80.3637 143.392 79.8837 143.664C79.4037 143.936 78.8517 144.072 78.2277 144.072ZM74.8557 146.328V137.64H75.9597V139.356L75.8877 140.832L76.0077 142.308V146.328H74.8557ZM78.1317 143.064C78.5397 143.064 78.9037 142.972 79.2237 142.788C79.5517 142.604 79.8077 142.344 79.9917 142.008C80.1837 141.664 80.2797 141.268 80.2797 140.82C80.2797 140.364 80.1837 139.972 79.9917 139.644C79.8077 139.308 79.5517 139.048 79.2237 138.864C78.9037 138.68 78.5397 138.588 78.1317 138.588C77.7317 138.588 77.3677 138.68 77.0397 138.864C76.7197 139.048 76.4637 139.308 76.2717 139.644C76.0877 139.972 75.9957 140.364 75.9957 140.82C75.9957 141.268 76.0877 141.664 76.2717 142.008C76.4637 142.344 76.7197 142.604 77.0397 142.788C77.3677 142.972 77.7317 143.064 78.1317 143.064ZM85.8674 144.072C85.1874 144.072 84.5874 143.932 84.0674 143.652C83.5554 143.372 83.1554 142.988 82.8674 142.5C82.5874 142.012 82.4474 141.452 82.4474 140.82C82.4474 140.188 82.5834 139.628 82.8554 139.14C83.1354 138.652 83.5154 138.272 83.9954 138C84.4834 137.72 85.0314 137.58 85.6394 137.58C86.2554 137.58 86.7994 137.716 87.2714 137.988C87.7434 138.26 88.1114 138.644 88.3754 139.14C88.6474 139.628 88.7834 140.2 88.7834 140.856C88.7834 140.904 88.7794 140.96 88.7714 141.024C88.7714 141.088 88.7674 141.148 88.7594 141.204H83.3474V140.376H88.1594L87.6914 140.664C87.6994 140.256 87.6154 139.892 87.4394 139.572C87.2634 139.252 87.0194 139.004 86.7074 138.828C86.4034 138.644 86.0474 138.552 85.6394 138.552C85.2394 138.552 84.8834 138.644 84.5714 138.828C84.2594 139.004 84.0154 139.256 83.8394 139.584C83.6634 139.904 83.5754 140.272 83.5754 140.688V140.88C83.5754 141.304 83.6714 141.684 83.8634 142.02C84.0634 142.348 84.3394 142.604 84.6914 142.788C85.0434 142.972 85.4474 143.064 85.9034 143.064C86.2794 143.064 86.6194 143 86.9234 142.872C87.2354 142.744 87.5074 142.552 87.7394 142.296L88.3754 143.04C88.0874 143.376 87.7274 143.632 87.2954 143.808C86.8714 143.984 86.3954 144.072 85.8674 144.072ZM90.383 144V137.64H91.487V139.368L91.379 138.936C91.555 138.496 91.851 138.16 92.267 137.928C92.683 137.696 93.195 137.58 93.803 137.58V138.696C93.755 138.688 93.707 138.684 93.659 138.684C93.619 138.684 93.579 138.684 93.539 138.684C92.923 138.684 92.435 138.868 92.075 139.236C91.715 139.604 91.535 140.136 91.535 140.832V144H90.383ZM100.712 144.072C100.072 144.072 99.5755 143.9 99.2235 143.556C98.8715 143.212 98.6955 142.72 98.6955 142.08V136.248H99.8475V142.032C99.8475 142.376 99.9315 142.64 100.1 142.824C100.276 143.008 100.524 143.1 100.844 143.1C101.204 143.1 101.504 143 101.744 142.8L102.104 143.628C101.928 143.78 101.716 143.892 101.468 143.964C101.228 144.036 100.976 144.072 100.712 144.072ZM97.6155 138.588V137.64H101.672V138.588H97.6155ZM106.892 137.58C107.412 137.58 107.868 137.68 108.26 137.88C108.66 138.08 108.972 138.384 109.196 138.792C109.42 139.2 109.532 139.716 109.532 140.34V144H108.38V140.472C108.38 139.856 108.228 139.392 107.924 139.08C107.628 138.768 107.208 138.612 106.664 138.612C106.256 138.612 105.9 138.692 105.596 138.852C105.292 139.012 105.056 139.248 104.888 139.56C104.728 139.872 104.648 140.26 104.648 140.724V144H103.496V135.096H104.648V139.356L104.42 138.9C104.628 138.484 104.948 138.16 105.38 137.928C105.812 137.696 106.316 137.58 106.892 137.58ZM115.612 144V142.656L115.552 142.404V140.112C115.552 139.624 115.408 139.248 115.12 138.984C114.84 138.712 114.416 138.576 113.848 138.576C113.472 138.576 113.104 138.64 112.744 138.768C112.384 138.888 112.08 139.052 111.832 139.26L111.352 138.396C111.68 138.132 112.072 137.932 112.528 137.796C112.992 137.652 113.476 137.58 113.98 137.58C114.852 137.58 115.524 137.792 115.996 138.216C116.468 138.64 116.704 139.288 116.704 140.16V144H115.612ZM113.524 144.072C113.052 144.072 112.636 143.992 112.276 143.832C111.924 143.672 111.652 143.452 111.46 143.172C111.268 142.884 111.172 142.56 111.172 142.2C111.172 141.856 111.252 141.544 111.412 141.264C111.58 140.984 111.848 140.76 112.216 140.592C112.592 140.424 113.096 140.34 113.728 140.34H115.744V141.168H113.776C113.2 141.168 112.812 141.264 112.612 141.456C112.412 141.648 112.312 141.88 112.312 142.152C112.312 142.464 112.436 142.716 112.684 142.908C112.932 143.092 113.276 143.184 113.716 143.184C114.148 143.184 114.524 143.088 114.844 142.896C115.172 142.704 115.408 142.424 115.552 142.056L115.78 142.848C115.628 143.224 115.36 143.524 114.976 143.748C114.592 143.964 114.108 144.072 113.524 144.072ZM121.02 144.072C120.38 144.072 119.884 143.9 119.532 143.556C119.18 143.212 119.004 142.72 119.004 142.08V136.248H120.156V142.032C120.156 142.376 120.24 142.64 120.408 142.824C120.584 143.008 120.832 143.1 121.152 143.1C121.512 143.1 121.812 143 122.052 142.8L122.412 143.628C122.236 143.78 122.024 143.892 121.776 143.964C121.536 144.036 121.284 144.072 121.02 144.072ZM117.924 138.588V137.64H121.98V138.588H117.924ZM130.976 144V142.656L130.916 142.404V140.112C130.916 139.624 130.772 139.248 130.484 138.984C130.204 138.712 129.78 138.576 129.212 138.576C128.836 138.576 128.468 138.64 128.108 138.768C127.748 138.888 127.444 139.052 127.196 139.26L126.716 138.396C127.044 138.132 127.436 137.932 127.892 137.796C128.356 137.652 128.84 137.58 129.344 137.58C130.216 137.58 130.888 137.792 131.36 138.216C131.832 138.64 132.068 139.288 132.068 140.16V144H130.976ZM128.888 144.072C128.416 144.072 128 143.992 127.64 143.832C127.288 143.672 127.016 143.452 126.824 143.172C126.632 142.884 126.536 142.56 126.536 142.2C126.536 141.856 126.616 141.544 126.776 141.264C126.944 140.984 127.212 140.76 127.58 140.592C127.956 140.424 128.46 140.34 129.092 140.34H131.108V141.168H129.14C128.564 141.168 128.176 141.264 127.976 141.456C127.776 141.648 127.676 141.88 127.676 142.152C127.676 142.464 127.8 142.716 128.048 142.908C128.296 143.092 128.64 143.184 129.08 143.184C129.512 143.184 129.888 143.088 130.208 142.896C130.536 142.704 130.772 142.424 130.916 142.056L131.144 142.848C130.992 143.224 130.724 143.524 130.34 143.748C129.956 143.964 129.472 144.072 128.888 144.072ZM134.199 144V137.64H135.303V139.368L135.195 138.936C135.371 138.496 135.667 138.16 136.083 137.928C136.499 137.696 137.011 137.58 137.619 137.58V138.696C137.571 138.688 137.523 138.684 137.475 138.684C137.435 138.684 137.395 138.684 137.355 138.684C136.739 138.684 136.251 138.868 135.891 139.236C135.531 139.604 135.351 140.136 135.351 140.832V144H134.199ZM141.813 144.072C141.133 144.072 140.533 143.932 140.013 143.652C139.501 143.372 139.101 142.988 138.813 142.5C138.533 142.012 138.393 141.452 138.393 140.82C138.393 140.188 138.529 139.628 138.801 139.14C139.081 138.652 139.461 138.272 139.941 138C140.429 137.72 140.977 137.58 141.585 137.58C142.201 137.58 142.745 137.716 143.217 137.988C143.689 138.26 144.057 138.644 144.321 139.14C144.593 139.628 144.729 140.2 144.729 140.856C144.729 140.904 144.725 140.96 144.717 141.024C144.717 141.088 144.713 141.148 144.705 141.204H139.293V140.376H144.105L143.637 140.664C143.645 140.256 143.561 139.892 143.385 139.572C143.209 139.252 142.965 139.004 142.653 138.828C142.349 138.644 141.993 138.552 141.585 138.552C141.185 138.552 140.829 138.644 140.517 138.828C140.205 139.004 139.961 139.256 139.785 139.584C139.609 139.904 139.521 140.272 139.521 140.688V140.88C139.521 141.304 139.617 141.684 139.809 142.02C140.009 142.348 140.285 142.604 140.637 142.788C140.989 142.972 141.393 143.064 141.849 143.064C142.225 143.064 142.565 143 142.869 142.872C143.181 142.744 143.453 142.552 143.685 142.296L144.321 143.04C144.033 143.376 143.673 143.632 143.241 143.808C142.817 143.984 142.341 144.072 141.813 144.072ZM46.4201 159V152.64H47.5721V159H46.4201ZM46.9961 151.416C46.7721 151.416 46.5841 151.344 46.4321 151.2C46.2881 151.056 46.2161 150.88 46.2161 150.672C46.2161 150.456 46.2881 150.276 46.4321 150.132C46.5841 149.988 46.7721 149.916 46.9961 149.916C47.2201 149.916 47.4041 149.988 47.5481 150.132C47.7001 150.268 47.7761 150.44 47.7761 150.648C47.7761 150.864 47.7041 151.048 47.5601 151.2C47.4161 151.344 47.2281 151.416 46.9961 151.416ZM53.1677 152.58C53.6877 152.58 54.1437 152.68 54.5357 152.88C54.9357 153.08 55.2477 153.384 55.4717 153.792C55.6957 154.2 55.8077 154.716 55.8077 155.34V159H54.6557V155.472C54.6557 154.856 54.5037 154.392 54.1997 154.08C53.9037 153.768 53.4837 153.612 52.9397 153.612C52.5317 153.612 52.1757 153.692 51.8717 153.852C51.5677 154.012 51.3317 154.248 51.1637 154.56C51.0037 154.872 50.9237 155.26 50.9237 155.724V159H49.7717V152.64H50.8757V154.356L50.6957 153.9C50.9037 153.484 51.2237 153.16 51.6557 152.928C52.0877 152.696 52.5917 152.58 53.1677 152.58ZM59.7637 159.072C59.2357 159.072 58.7317 159 58.2517 158.856C57.7797 158.712 57.4077 158.536 57.1357 158.328L57.6157 157.416C57.8877 157.6 58.2237 157.756 58.6237 157.884C59.0237 158.012 59.4317 158.076 59.8477 158.076C60.3837 158.076 60.7677 158 60.9997 157.848C61.2397 157.696 61.3597 157.484 61.3597 157.212C61.3597 157.012 61.2877 156.856 61.1437 156.744C60.9997 156.632 60.8077 156.548 60.5677 156.492C60.3357 156.436 60.0757 156.388 59.7877 156.348C59.4997 156.3 59.2117 156.244 58.9237 156.18C58.6357 156.108 58.3717 156.012 58.1317 155.892C57.8917 155.764 57.6997 155.592 57.5557 155.376C57.4117 155.152 57.3397 154.856 57.3397 154.488C57.3397 154.104 57.4477 153.768 57.6637 153.48C57.8797 153.192 58.1837 152.972 58.5757 152.82C58.9757 152.66 59.4477 152.58 59.9917 152.58C60.4077 152.58 60.8277 152.632 61.2517 152.736C61.6837 152.832 62.0357 152.972 62.3077 153.156L61.8157 154.068C61.5277 153.876 61.2277 153.744 60.9157 153.672C60.6037 153.6 60.2917 153.564 59.9797 153.564C59.4757 153.564 59.0997 153.648 58.8517 153.816C58.6037 153.976 58.4797 154.184 58.4797 154.44C58.4797 154.656 58.5517 154.824 58.6957 154.944C58.8477 155.056 59.0397 155.144 59.2717 155.208C59.5117 155.272 59.7757 155.328 60.0637 155.376C60.3517 155.416 60.6397 155.472 60.9277 155.544C61.2157 155.608 61.4757 155.7 61.7077 155.82C61.9477 155.94 62.1397 156.108 62.2837 156.324C62.4357 156.54 62.5117 156.828 62.5117 157.188C62.5117 157.572 62.3997 157.904 62.1757 158.184C61.9517 158.464 61.6357 158.684 61.2277 158.844C60.8197 158.996 60.3317 159.072 59.7637 159.072ZM63.9514 159V152.64H65.1034V159H63.9514ZM64.5274 151.416C64.3034 151.416 64.1154 151.344 63.9634 151.2C63.8194 151.056 63.7474 150.88 63.7474 150.672C63.7474 150.456 63.8194 150.276 63.9634 150.132C64.1154 149.988 64.3034 149.916 64.5274 149.916C64.7514 149.916 64.9354 149.988 65.0794 150.132C65.2314 150.268 65.3074 150.44 65.3074 150.648C65.3074 150.864 65.2354 151.048 65.0914 151.2C64.9474 151.344 64.7594 151.416 64.5274 151.416ZM69.9309 159.072C69.3149 159.072 68.7629 158.936 68.2749 158.664C67.7949 158.392 67.4149 158.012 67.1349 157.524C66.8549 157.036 66.7149 156.468 66.7149 155.82C66.7149 155.172 66.8549 154.608 67.1349 154.128C67.4149 153.64 67.7949 153.26 68.2749 152.988C68.7629 152.716 69.3149 152.58 69.9309 152.58C70.4669 152.58 70.9509 152.7 71.3829 152.94C71.8149 153.18 72.1589 153.54 72.4149 154.02C72.6789 154.5 72.8109 155.1 72.8109 155.82C72.8109 156.54 72.6829 157.14 72.4269 157.62C72.1789 158.1 71.8389 158.464 71.4069 158.712C70.9749 158.952 70.4829 159.072 69.9309 159.072ZM70.0269 158.064C70.4269 158.064 70.7869 157.972 71.1069 157.788C71.4349 157.604 71.6909 157.344 71.8749 157.008C72.0669 156.664 72.1629 156.268 72.1629 155.82C72.1629 155.364 72.0669 154.972 71.8749 154.644C71.6909 154.308 71.4349 154.048 71.1069 153.864C70.7869 153.68 70.4269 153.588 70.0269 153.588C69.6189 153.588 69.2549 153.68 68.9349 153.864C68.6149 154.048 68.3589 154.308 68.1669 154.644C67.9749 154.972 67.8789 155.364 67.8789 155.82C67.8789 156.268 67.9749 156.664 68.1669 157.008C68.3589 157.344 68.6149 157.604 68.9349 157.788C69.2549 157.972 69.6189 158.064 70.0269 158.064ZM72.1989 159V157.284L72.2709 155.808L72.1509 154.332V150.096H73.3029V159H72.1989ZM78.3146 159.072C77.6346 159.072 77.0346 158.932 76.5146 158.652C76.0026 158.372 75.6026 157.988 75.3146 157.5C75.0346 157.012 74.8946 156.452 74.8946 155.82C74.8946 155.188 75.0306 154.628 75.3026 154.14C75.5826 153.652 75.9626 153.272 76.4426 153C76.9306 152.72 77.4786 152.58 78.0866 152.58C78.7026 152.58 79.2466 152.716 79.7186 152.988C80.1906 153.26 80.5586 153.644 80.8226 154.14C81.0946 154.628 81.2306 155.2 81.2306 155.856C81.2306 155.904 81.2266 155.96 81.2186 156.024C81.2186 156.088 81.2146 156.148 81.2066 156.204H75.7946V155.376H80.6066L80.1386 155.664C80.1466 155.256 80.0626 154.892 79.8866 154.572C79.7106 154.252 79.4666 154.004 79.1546 153.828C78.8506 153.644 78.4946 153.552 78.0866 153.552C77.6866 153.552 77.3306 153.644 77.0186 153.828C76.7066 154.004 76.4626 154.256 76.2866 154.584C76.1106 154.904 76.0226 155.272 76.0226 155.688V155.88C76.0226 156.304 76.1186 156.684 76.3106 157.02C76.5106 157.348 76.7866 157.604 77.1386 157.788C77.4906 157.972 77.8946 158.064 78.3506 158.064C78.7266 158.064 79.0666 158 79.3706 157.872C79.6826 157.744 79.9546 157.552 80.1866 157.296L80.8226 158.04C80.5346 158.376 80.1746 158.632 79.7426 158.808C79.3186 158.984 78.8426 159.072 78.3146 159.072ZM88.2369 159.072C87.5969 159.072 87.1009 158.9 86.7489 158.556C86.3969 158.212 86.2209 157.72 86.2209 157.08V151.248H87.3729V157.032C87.3729 157.376 87.4569 157.64 87.6249 157.824C87.8009 158.008 88.0489 158.1 88.3689 158.1C88.7289 158.1 89.0289 158 89.2689 157.8L89.6289 158.628C89.4529 158.78 89.2409 158.892 88.9929 158.964C88.7529 159.036 88.5009 159.072 88.2369 159.072ZM85.1409 153.588V152.64H89.1969V153.588H85.1409ZM94.4177 152.58C94.9377 152.58 95.3937 152.68 95.7857 152.88C96.1857 153.08 96.4977 153.384 96.7217 153.792C96.9457 154.2 97.0577 154.716 97.0577 155.34V159H95.9057V155.472C95.9057 154.856 95.7537 154.392 95.4497 154.08C95.1537 153.768 94.7337 153.612 94.1897 153.612C93.7817 153.612 93.4257 153.692 93.1217 153.852C92.8177 154.012 92.5817 154.248 92.4137 154.56C92.2537 154.872 92.1737 155.26 92.1737 155.724V159H91.0217V150.096H92.1737V154.356L91.9457 153.9C92.1537 153.484 92.4737 153.16 92.9057 152.928C93.3377 152.696 93.8417 152.58 94.4177 152.58ZM102.022 159.072C101.342 159.072 100.742 158.932 100.222 158.652C99.7097 158.372 99.3097 157.988 99.0217 157.5C98.7417 157.012 98.6017 156.452 98.6017 155.82C98.6017 155.188 98.7377 154.628 99.0097 154.14C99.2897 153.652 99.6697 153.272 100.15 153C100.638 152.72 101.186 152.58 101.794 152.58C102.41 152.58 102.954 152.716 103.426 152.988C103.898 153.26 104.266 153.644 104.53 154.14C104.802 154.628 104.938 155.2 104.938 155.856C104.938 155.904 104.934 155.96 104.926 156.024C104.926 156.088 104.922 156.148 104.914 156.204H99.5017V155.376H104.314L103.846 155.664C103.854 155.256 103.77 154.892 103.594 154.572C103.418 154.252 103.174 154.004 102.862 153.828C102.558 153.644 102.202 153.552 101.794 153.552C101.394 153.552 101.038 153.644 100.726 153.828C100.414 154.004 100.17 154.256 99.9937 154.584C99.8177 154.904 99.7297 155.272 99.7297 155.688V155.88C99.7297 156.304 99.8257 156.684 100.018 157.02C100.218 157.348 100.494 157.604 100.846 157.788C101.198 157.972 101.602 158.064 102.058 158.064C102.434 158.064 102.774 158 103.078 157.872C103.39 157.744 103.662 157.552 103.894 157.296L104.53 158.04C104.242 158.376 103.882 158.632 103.45 158.808C103.026 158.984 102.55 159.072 102.022 159.072ZM109.928 159V152.076C109.928 151.452 110.108 150.956 110.468 150.588C110.836 150.212 111.356 150.024 112.028 150.024C112.276 150.024 112.512 150.056 112.736 150.12C112.968 150.176 113.164 150.268 113.324 150.396L112.976 151.272C112.856 151.176 112.72 151.104 112.568 151.056C112.416 151 112.256 150.972 112.088 150.972C111.752 150.972 111.496 151.068 111.32 151.26C111.144 151.444 111.056 151.72 111.056 152.088V152.94L111.08 153.468V159H109.928ZM108.848 153.588V152.64H112.904V153.588H108.848ZM116.621 159.072C115.981 159.072 115.413 158.932 114.917 158.652C114.421 158.372 114.029 157.988 113.741 157.5C113.453 157.004 113.309 156.444 113.309 155.82C113.309 155.188 113.453 154.628 113.741 154.14C114.029 153.652 114.421 153.272 114.917 153C115.413 152.72 115.981 152.58 116.621 152.58C117.253 152.58 117.817 152.72 118.313 153C118.817 153.272 119.209 153.652 119.489 154.14C119.777 154.62 119.921 155.18 119.921 155.82C119.921 156.452 119.777 157.012 119.489 157.5C119.209 157.988 118.817 158.372 118.313 158.652C117.817 158.932 117.253 159.072 116.621 159.072ZM116.621 158.064C117.029 158.064 117.393 157.972 117.713 157.788C118.041 157.604 118.297 157.344 118.481 157.008C118.665 156.664 118.757 156.268 118.757 155.82C118.757 155.364 118.665 154.972 118.481 154.644C118.297 154.308 118.041 154.048 117.713 153.864C117.393 153.68 117.029 153.588 116.621 153.588C116.213 153.588 115.849 153.68 115.529 153.864C115.209 154.048 114.953 154.308 114.761 154.644C114.569 154.972 114.473 155.364 114.473 155.82C114.473 156.268 114.569 156.664 114.761 157.008C114.953 157.344 115.209 157.604 115.529 157.788C115.849 157.972 116.213 158.064 116.621 158.064ZM121.514 159V150.096H122.666V159H121.514ZM127.493 159.072C126.877 159.072 126.325 158.936 125.837 158.664C125.357 158.392 124.977 158.012 124.697 157.524C124.417 157.036 124.277 156.468 124.277 155.82C124.277 155.172 124.417 154.608 124.697 154.128C124.977 153.64 125.357 153.26 125.837 152.988C126.325 152.716 126.877 152.58 127.493 152.58C128.029 152.58 128.513 152.7 128.945 152.94C129.377 153.18 129.721 153.54 129.977 154.02C130.241 154.5 130.373 155.1 130.373 155.82C130.373 156.54 130.245 157.14 129.989 157.62C129.741 158.1 129.401 158.464 128.969 158.712C128.537 158.952 128.045 159.072 127.493 159.072ZM127.589 158.064C127.989 158.064 128.349 157.972 128.669 157.788C128.997 157.604 129.253 157.344 129.437 157.008C129.629 156.664 129.725 156.268 129.725 155.82C129.725 155.364 129.629 154.972 129.437 154.644C129.253 154.308 128.997 154.048 128.669 153.864C128.349 153.68 127.989 153.588 127.589 153.588C127.181 153.588 126.817 153.68 126.497 153.864C126.177 154.048 125.921 154.308 125.729 154.644C125.537 154.972 125.441 155.364 125.441 155.82C125.441 156.268 125.537 156.664 125.729 157.008C125.921 157.344 126.177 157.604 126.497 157.788C126.817 157.972 127.181 158.064 127.589 158.064ZM129.761 159V157.284L129.833 155.808L129.713 154.332V150.096H130.865V159H129.761ZM133.321 159.072C133.097 159.072 132.905 158.996 132.745 158.844C132.585 158.684 132.505 158.484 132.505 158.244C132.505 158.004 132.585 157.808 132.745 157.656C132.905 157.504 133.097 157.428 133.321 157.428C133.537 157.428 133.721 157.504 133.873 157.656C134.033 157.808 134.113 158.004 134.113 158.244C134.113 158.484 134.033 158.684 133.873 158.844C133.721 158.996 133.537 159.072 133.321 159.072Z" fill="#008E86"/>
<path d="M45 56.5L84 40.5L78 56.6339L84 72.7677L45 56.5Z" fill="#008E86" stroke="#00635D" stroke-width="2" stroke-linejoin="round"/>
<path d="M84.0001 40.4999L135 56.4999L83.9999 72.4999L78 56.4999L84.0001 40.4999Z" fill="#008E86" stroke="#00635D" stroke-width="2" stroke-linejoin="round"/>
<path d="M135 56.5L45 56.5" stroke="#00635D" stroke-width="2"/>
<path d="M81.9996 53.5C81.4473 53.5 80.9996 53.0523 80.9996 52.5C80.9996 51.9477 81.4473 51.5 81.9996 51.5L81.9996 53.5ZM65.3265 44.7394C64.9182 44.3676 64.8885 43.7352 65.2603 43.3268L71.3193 36.6718C71.6911 36.2634 72.3236 36.2338 72.732 36.6056C73.1404 36.9774 73.17 37.6099 72.7982 38.0183L67.4124 43.9338L73.328 49.3196C73.7363 49.6914 73.766 50.3238 73.3942 50.7322C73.0224 51.1406 72.3899 51.1703 71.9815 50.7984L65.3265 44.7394ZM81.9996 51.5C86.9562 51.5 90.2763 50.8747 92.0106 50.0565C92.9037 49.6352 93.1618 49.265 93.2118 49.1093C93.2253 49.0674 93.295 48.8602 92.8209 48.4216C92.3394 47.9762 91.4535 47.4656 90.064 46.9727C88.6914 46.4858 86.8945 46.0395 84.6551 45.6829C80.1775 44.9698 73.9986 44.6262 66.0466 44.9989L65.9529 43.0011C74.0011 42.6238 80.3223 42.9677 84.9697 43.7078C87.2928 44.0777 89.2146 44.5493 90.7327 45.0878C92.2338 45.6203 93.4105 46.2425 94.1789 46.9534C94.9548 47.6711 95.462 48.6435 95.116 49.7208C94.8066 50.6842 93.9084 51.3726 92.864 51.8653C90.7232 52.8753 87.0432 53.5 81.9996 53.5L81.9996 51.5Z" fill="black"/>
<path d="M81.8724 58.5C81.3201 58.5 80.8724 58.9477 80.8724 59.5C80.8724 60.0523 81.3201 60.5 81.8724 60.5L81.8724 58.5ZM65.3285 67.5996C64.9192 67.9705 64.8882 68.6029 65.259 69.0121L71.303 75.6807C71.6738 76.09 72.3062 76.121 72.7155 75.7502C73.1247 75.3793 73.1558 74.7469 72.7849 74.3376L67.4125 68.4099L73.3402 63.0376C73.7494 62.6667 73.7805 62.0343 73.4096 61.6251C73.0387 61.2158 72.4063 61.1848 71.9971 61.5557L65.3285 67.5996ZM81.8724 60.5C86.7859 60.5 90.0708 61.1499 91.7836 61.9971C92.6588 62.43 92.9267 62.8154 92.9837 63.0014C93.0112 63.0915 93.0523 63.3341 92.5849 63.7874C92.1069 64.2509 91.2302 64.7804 89.8556 65.2916C88.497 65.7969 86.7172 66.2605 84.4981 66.631C80.0607 67.3719 73.935 67.7293 66.0491 67.3417L65.9509 69.3393C73.9377 69.7318 80.2125 69.3742 84.8274 68.6037C87.1344 68.2185 89.0439 67.7274 90.5528 67.1662C92.0458 66.6109 93.2151 65.9622 93.9772 65.2232C94.7498 64.4739 95.2249 63.4896 94.896 62.4157C94.5964 61.4377 93.7172 60.7222 92.6703 60.2044C90.5388 59.1501 86.8793 58.5 81.8724 58.5L81.8724 60.5Z" fill="black"/>
</g>
<defs>
<clipPath id="clip0_14_3291">
<rect width="180" height="180" rx="20" fill="white"/>
</clipPath>
<clipPath id="clip1_14_3291">
<path d="M0 30L-1.31134e-06 0L30 -1.31134e-06L30 10C30 21.0457 21.0457 30 10 30L0 30Z" fill="white"/>
</clipPath>
</defs>
</svg>
