<svg width="180" height="180" viewBox="0 0 180 180" fill="none" xmlns="http://www.w3.org/2000/svg">
<rect width="180" height="180" rx="20" fill="#F2F2F2"/>
<path d="M45.7638 124.572H50.0958V125.604H45.7638V124.572ZM45.8838 129H44.6838V120.6H50.6118V121.644H45.8838V129ZM54.6578 129.072C54.0178 129.072 53.4498 128.932 52.9538 128.652C52.4578 128.372 52.0658 127.988 51.7778 127.5C51.4898 127.004 51.3458 126.444 51.3458 125.82C51.3458 125.188 51.4898 124.628 51.7778 124.14C52.0658 123.652 52.4578 123.272 52.9538 123C53.4498 122.72 54.0178 122.58 54.6578 122.58C55.2898 122.58 55.8538 122.72 56.3498 123C56.8538 123.272 57.2458 123.652 57.5258 124.14C57.8138 124.62 57.9578 125.18 57.9578 125.82C57.9578 126.452 57.8138 127.012 57.5258 127.5C57.2458 127.988 56.8538 128.372 56.3498 128.652C55.8538 128.932 55.2898 129.072 54.6578 129.072ZM54.6578 128.064C55.0658 128.064 55.4298 127.972 55.7498 127.788C56.0778 127.604 56.3338 127.344 56.5178 127.008C56.7018 126.664 56.7938 126.268 56.7938 125.82C56.7938 125.364 56.7018 124.972 56.5178 124.644C56.3338 124.308 56.0778 124.048 55.7498 123.864C55.4298 123.68 55.0658 123.588 54.6578 123.588C54.2498 123.588 53.8858 123.68 53.5658 123.864C53.2458 124.048 52.9898 124.308 52.7978 124.644C52.6058 124.972 52.5098 125.364 52.5098 125.82C52.5098 126.268 52.6058 126.664 52.7978 127.008C52.9898 127.344 53.2458 127.604 53.5658 127.788C53.8858 127.972 54.2498 128.064 54.6578 128.064ZM59.551 129V120.096H60.703V129H59.551ZM65.5305 129.072C64.9145 129.072 64.3625 128.936 63.8745 128.664C63.3945 128.392 63.0145 128.012 62.7345 127.524C62.4545 127.036 62.3145 126.468 62.3145 125.82C62.3145 125.172 62.4545 124.608 62.7345 124.128C63.0145 123.64 63.3945 123.26 63.8745 122.988C64.3625 122.716 64.9145 122.58 65.5305 122.58C66.0665 122.58 66.5505 122.7 66.9825 122.94C67.4145 123.18 67.7585 123.54 68.0145 124.02C68.2785 124.5 68.4105 125.1 68.4105 125.82C68.4105 126.54 68.2825 127.14 68.0265 127.62C67.7785 128.1 67.4385 128.464 67.0065 128.712C66.5745 128.952 66.0825 129.072 65.5305 129.072ZM65.6265 128.064C66.0265 128.064 66.3865 127.972 66.7065 127.788C67.0345 127.604 67.2905 127.344 67.4745 127.008C67.6665 126.664 67.7625 126.268 67.7625 125.82C67.7625 125.364 67.6665 124.972 67.4745 124.644C67.2905 124.308 67.0345 124.048 66.7065 123.864C66.3865 123.68 66.0265 123.588 65.6265 123.588C65.2185 123.588 64.8545 123.68 64.5345 123.864C64.2145 124.048 63.9585 124.308 63.7665 124.644C63.5745 124.972 63.4785 125.364 63.4785 125.82C63.4785 126.268 63.5745 126.664 63.7665 127.008C63.9585 127.344 64.2145 127.604 64.5345 127.788C64.8545 127.972 65.2185 128.064 65.6265 128.064ZM67.7985 129V127.284L67.8705 125.808L67.7505 124.332V120.096H68.9025V129H67.7985ZM76.4889 129.072C75.8489 129.072 75.3529 128.9 75.0009 128.556C74.6489 128.212 74.4729 127.72 74.4729 127.08V121.248H75.6249V127.032C75.6249 127.376 75.7089 127.64 75.8769 127.824C76.0529 128.008 76.3009 128.1 76.6209 128.1C76.9809 128.1 77.2809 128 77.5209 127.8L77.8809 128.628C77.7049 128.78 77.4929 128.892 77.2449 128.964C77.0049 129.036 76.7529 129.072 76.4889 129.072ZM73.3929 123.588V122.64H77.4489V123.588H73.3929ZM82.6696 122.58C83.1896 122.58 83.6456 122.68 84.0376 122.88C84.4376 123.08 84.7496 123.384 84.9736 123.792C85.1976 124.2 85.3096 124.716 85.3096 125.34V129H84.1576V125.472C84.1576 124.856 84.0056 124.392 83.7016 124.08C83.4056 123.768 82.9856 123.612 82.4416 123.612C82.0336 123.612 81.6776 123.692 81.3736 123.852C81.0696 124.012 80.8336 124.248 80.6656 124.56C80.5056 124.872 80.4256 125.26 80.4256 125.724V129H79.2736V120.096H80.4256V124.356L80.1976 123.9C80.4056 123.484 80.7256 123.16 81.1576 122.928C81.5896 122.696 82.0936 122.58 82.6696 122.58ZM90.2736 129.072C89.5936 129.072 88.9936 128.932 88.4736 128.652C87.9616 128.372 87.5616 127.988 87.2736 127.5C86.9936 127.012 86.8536 126.452 86.8536 125.82C86.8536 125.188 86.9896 124.628 87.2616 124.14C87.5416 123.652 87.9216 123.272 88.4016 123C88.8896 122.72 89.4376 122.58 90.0456 122.58C90.6616 122.58 91.2056 122.716 91.6776 122.988C92.1496 123.26 92.5176 123.644 92.7816 124.14C93.0536 124.628 93.1896 125.2 93.1896 125.856C93.1896 125.904 93.1856 125.96 93.1776 126.024C93.1776 126.088 93.1736 126.148 93.1656 126.204H87.7536V125.376H92.5656L92.0976 125.664C92.1056 125.256 92.0216 124.892 91.8456 124.572C91.6696 124.252 91.4256 124.004 91.1136 123.828C90.8096 123.644 90.4536 123.552 90.0456 123.552C89.6456 123.552 89.2896 123.644 88.9776 123.828C88.6656 124.004 88.4216 124.256 88.2456 124.584C88.0696 124.904 87.9816 125.272 87.9816 125.688V125.88C87.9816 126.304 88.0776 126.684 88.2696 127.02C88.4696 127.348 88.7456 127.604 89.0976 127.788C89.4496 127.972 89.8536 128.064 90.3096 128.064C90.6856 128.064 91.0256 128 91.3296 127.872C91.6416 127.744 91.9136 127.552 92.1456 127.296L92.7816 128.04C92.4936 128.376 92.1336 128.632 91.7016 128.808C91.2776 128.984 90.8016 129.072 90.2736 129.072ZM100.784 129.072C100.136 129.072 99.5559 128.932 99.0439 128.652C98.5399 128.372 98.1439 127.988 97.8559 127.5C97.5679 127.012 97.4239 126.452 97.4239 125.82C97.4239 125.188 97.5679 124.628 97.8559 124.14C98.1439 123.652 98.5399 123.272 99.0439 123C99.5559 122.72 100.136 122.58 100.784 122.58C101.36 122.58 101.872 122.696 102.32 122.928C102.776 123.152 103.128 123.488 103.376 123.936L102.5 124.5C102.292 124.188 102.036 123.96 101.732 123.816C101.436 123.664 101.116 123.588 100.772 123.588C100.356 123.588 99.9839 123.68 99.6559 123.864C99.3279 124.048 99.0679 124.308 98.8759 124.644C98.6839 124.972 98.5879 125.364 98.5879 125.82C98.5879 126.276 98.6839 126.672 98.8759 127.008C99.0679 127.344 99.3279 127.604 99.6559 127.788C99.9839 127.972 100.356 128.064 100.772 128.064C101.116 128.064 101.436 127.992 101.732 127.848C102.036 127.696 102.292 127.464 102.5 127.152L103.376 127.704C103.128 128.144 102.776 128.484 102.32 128.724C101.872 128.956 101.36 129.072 100.784 129.072ZM107.498 129.072C106.858 129.072 106.29 128.932 105.794 128.652C105.298 128.372 104.906 127.988 104.618 127.5C104.33 127.004 104.186 126.444 104.186 125.82C104.186 125.188 104.33 124.628 104.618 124.14C104.906 123.652 105.298 123.272 105.794 123C106.29 122.72 106.858 122.58 107.498 122.58C108.13 122.58 108.694 122.72 109.19 123C109.694 123.272 110.086 123.652 110.366 124.14C110.654 124.62 110.798 125.18 110.798 125.82C110.798 126.452 110.654 127.012 110.366 127.5C110.086 127.988 109.694 128.372 109.19 128.652C108.694 128.932 108.13 129.072 107.498 129.072ZM107.498 128.064C107.906 128.064 108.27 127.972 108.59 127.788C108.918 127.604 109.174 127.344 109.358 127.008C109.542 126.664 109.634 126.268 109.634 125.82C109.634 125.364 109.542 124.972 109.358 124.644C109.174 124.308 108.918 124.048 108.59 123.864C108.27 123.68 107.906 123.588 107.498 123.588C107.09 123.588 106.726 123.68 106.406 123.864C106.086 124.048 105.83 124.308 105.638 124.644C105.446 124.972 105.35 125.364 105.35 125.82C105.35 126.268 105.446 126.664 105.638 127.008C105.83 127.344 106.086 127.604 106.406 127.788C106.726 127.972 107.09 128.064 107.498 128.064ZM112.391 129V122.64H113.495V124.368L113.387 123.936C113.563 123.496 113.859 123.16 114.275 122.928C114.691 122.696 115.203 122.58 115.811 122.58V123.696C115.763 123.688 115.715 123.684 115.667 123.684C115.627 123.684 115.587 123.684 115.547 123.684C114.931 123.684 114.443 123.868 114.083 124.236C113.723 124.604 113.543 125.136 113.543 125.832V129H112.391ZM120.627 122.58C121.147 122.58 121.603 122.68 121.995 122.88C122.395 123.08 122.707 123.384 122.931 123.792C123.155 124.2 123.267 124.716 123.267 125.34V129H122.115V125.472C122.115 124.856 121.963 124.392 121.659 124.08C121.363 123.768 120.943 123.612 120.399 123.612C119.991 123.612 119.635 123.692 119.331 123.852C119.027 124.012 118.791 124.248 118.623 124.56C118.463 124.872 118.383 125.26 118.383 125.724V129H117.231V122.64H118.335V124.356L118.155 123.9C118.363 123.484 118.683 123.16 119.115 122.928C119.547 122.696 120.051 122.58 120.627 122.58ZM128.231 129.072C127.551 129.072 126.951 128.932 126.431 128.652C125.919 128.372 125.519 127.988 125.231 127.5C124.951 127.012 124.811 126.452 124.811 125.82C124.811 125.188 124.947 124.628 125.219 124.14C125.499 123.652 125.879 123.272 126.359 123C126.847 122.72 127.395 122.58 128.003 122.58C128.619 122.58 129.163 122.716 129.635 122.988C130.107 123.26 130.475 123.644 130.739 124.14C131.011 124.628 131.147 125.2 131.147 125.856C131.147 125.904 131.143 125.96 131.135 126.024C131.135 126.088 131.131 126.148 131.123 126.204H125.711V125.376H130.523L130.055 125.664C130.063 125.256 129.979 124.892 129.803 124.572C129.627 124.252 129.383 124.004 129.071 123.828C128.767 123.644 128.411 123.552 128.003 123.552C127.603 123.552 127.247 123.644 126.935 123.828C126.623 124.004 126.379 124.256 126.203 124.584C126.027 124.904 125.939 125.272 125.939 125.688V125.88C125.939 126.304 126.035 126.684 126.227 127.02C126.427 127.348 126.703 127.604 127.055 127.788C127.407 127.972 127.811 128.064 128.267 128.064C128.643 128.064 128.983 128 129.287 127.872C129.599 127.744 129.871 127.552 130.103 127.296L130.739 128.04C130.451 128.376 130.091 128.632 129.659 128.808C129.235 128.984 128.759 129.072 128.231 129.072ZM132.746 129V122.64H133.85V124.368L133.742 123.936C133.918 123.496 134.214 123.16 134.63 122.928C135.046 122.696 135.558 122.58 136.166 122.58V123.696C136.118 123.688 136.07 123.684 136.022 123.684C135.982 123.684 135.942 123.684 135.902 123.684C135.286 123.684 134.798 123.868 134.438 124.236C134.078 124.604 133.898 125.136 133.898 125.832V129H132.746ZM21.3537 144V137.64H22.5057V144H21.3537ZM21.9297 136.416C21.7057 136.416 21.5177 136.344 21.3657 136.2C21.2217 136.056 21.1497 135.88 21.1497 135.672C21.1497 135.456 21.2217 135.276 21.3657 135.132C21.5177 134.988 21.7057 134.916 21.9297 134.916C22.1537 134.916 22.3377 134.988 22.4817 135.132C22.6337 135.268 22.7097 135.44 22.7097 135.648C22.7097 135.864 22.6377 136.048 22.4937 136.2C22.3497 136.344 22.1617 136.416 21.9297 136.416ZM28.1013 137.58C28.6213 137.58 29.0773 137.68 29.4693 137.88C29.8693 138.08 30.1813 138.384 30.4053 138.792C30.6293 139.2 30.7413 139.716 30.7413 140.34V144H29.5893V140.472C29.5893 139.856 29.4373 139.392 29.1333 139.08C28.8373 138.768 28.4173 138.612 27.8733 138.612C27.4653 138.612 27.1093 138.692 26.8053 138.852C26.5013 139.012 26.2653 139.248 26.0973 139.56C25.9373 139.872 25.8573 140.26 25.8573 140.724V144H24.7053V137.64H25.8093V139.356L25.6293 138.9C25.8373 138.484 26.1573 138.16 26.5893 137.928C27.0213 137.696 27.5253 137.58 28.1013 137.58ZM35.5013 144.072C34.8853 144.072 34.3333 143.936 33.8453 143.664C33.3653 143.392 32.9853 143.012 32.7053 142.524C32.4253 142.036 32.2853 141.468 32.2853 140.82C32.2853 140.172 32.4253 139.608 32.7053 139.128C32.9853 138.64 33.3653 138.26 33.8453 137.988C34.3333 137.716 34.8853 137.58 35.5013 137.58C36.0373 137.58 36.5213 137.7 36.9533 137.94C37.3853 138.18 37.7293 138.54 37.9853 139.02C38.2493 139.5 38.3813 140.1 38.3813 140.82C38.3813 141.54 38.2533 142.14 37.9973 142.62C37.7493 143.1 37.4093 143.464 36.9773 143.712C36.5453 143.952 36.0533 144.072 35.5013 144.072ZM35.5973 143.064C35.9973 143.064 36.3573 142.972 36.6773 142.788C37.0053 142.604 37.2613 142.344 37.4453 142.008C37.6373 141.664 37.7333 141.268 37.7333 140.82C37.7333 140.364 37.6373 139.972 37.4453 139.644C37.2613 139.308 37.0053 139.048 36.6773 138.864C36.3573 138.68 35.9973 138.588 35.5973 138.588C35.1893 138.588 34.8253 138.68 34.5053 138.864C34.1853 139.048 33.9293 139.308 33.7373 139.644C33.5453 139.972 33.4493 140.364 33.4493 140.82C33.4493 141.268 33.5453 141.664 33.7373 142.008C33.9293 142.344 34.1853 142.604 34.5053 142.788C34.8253 142.972 35.1893 143.064 35.5973 143.064ZM37.7693 144V142.284L37.8412 140.808L37.7213 139.332V135.096H38.8733V144H37.7693ZM41.0529 144V137.64H42.2049V144H41.0529ZM41.6289 136.416C41.4049 136.416 41.2169 136.344 41.0649 136.2C40.9209 136.056 40.8489 135.88 40.8489 135.672C40.8489 135.456 40.9209 135.276 41.0649 135.132C41.2169 134.988 41.4049 134.916 41.6289 134.916C41.8529 134.916 42.0369 134.988 42.1809 135.132C42.3329 135.268 42.4089 135.44 42.4089 135.648C42.4089 135.864 42.3369 136.048 42.1929 136.2C42.0489 136.344 41.8609 136.416 41.6289 136.416ZM47.1765 144.072C46.5285 144.072 45.9485 143.932 45.4365 143.652C44.9325 143.372 44.5365 142.988 44.2485 142.5C43.9605 142.012 43.8165 141.452 43.8165 140.82C43.8165 140.188 43.9605 139.628 44.2485 139.14C44.5365 138.652 44.9325 138.272 45.4365 138C45.9485 137.72 46.5285 137.58 47.1765 137.58C47.7525 137.58 48.2645 137.696 48.7125 137.928C49.1685 138.152 49.5205 138.488 49.7685 138.936L48.8925 139.5C48.6845 139.188 48.4285 138.96 48.1245 138.816C47.8285 138.664 47.5085 138.588 47.1645 138.588C46.7485 138.588 46.3765 138.68 46.0485 138.864C45.7205 139.048 45.4605 139.308 45.2685 139.644C45.0765 139.972 44.9805 140.364 44.9805 140.82C44.9805 141.276 45.0765 141.672 45.2685 142.008C45.4605 142.344 45.7205 142.604 46.0485 142.788C46.3765 142.972 46.7485 143.064 47.1645 143.064C47.5085 143.064 47.8285 142.992 48.1245 142.848C48.4285 142.696 48.6845 142.464 48.8925 142.152L49.7685 142.704C49.5205 143.144 49.1685 143.484 48.7125 143.724C48.2645 143.956 47.7525 144.072 47.1765 144.072ZM55.208 144V142.656L55.148 142.404V140.112C55.148 139.624 55.004 139.248 54.716 138.984C54.436 138.712 54.012 138.576 53.444 138.576C53.068 138.576 52.7 138.64 52.34 138.768C51.98 138.888 51.676 139.052 51.428 139.26L50.948 138.396C51.276 138.132 51.668 137.932 52.124 137.796C52.588 137.652 53.072 137.58 53.576 137.58C54.448 137.58 55.12 137.792 55.592 138.216C56.064 138.64 56.3 139.288 56.3 140.16V144H55.208ZM53.12 144.072C52.648 144.072 52.232 143.992 51.872 143.832C51.52 143.672 51.248 143.452 51.056 143.172C50.864 142.884 50.768 142.56 50.768 142.2C50.768 141.856 50.848 141.544 51.008 141.264C51.176 140.984 51.444 140.76 51.812 140.592C52.188 140.424 52.692 140.34 53.324 140.34H55.34V141.168H53.372C52.796 141.168 52.408 141.264 52.208 141.456C52.008 141.648 51.908 141.88 51.908 142.152C51.908 142.464 52.032 142.716 52.28 142.908C52.528 143.092 52.872 143.184 53.312 143.184C53.744 143.184 54.12 143.088 54.44 142.896C54.768 142.704 55.004 142.424 55.148 142.056L55.376 142.848C55.224 143.224 54.956 143.524 54.572 143.748C54.188 143.964 53.704 144.072 53.12 144.072ZM60.6158 144.072C59.9758 144.072 59.4798 143.9 59.1278 143.556C58.7758 143.212 58.5998 142.72 58.5998 142.08V136.248H59.7518V142.032C59.7518 142.376 59.8358 142.64 60.0038 142.824C60.1798 143.008 60.4278 143.1 60.7478 143.1C61.1078 143.1 61.4078 143 61.6478 142.8L62.0078 143.628C61.8318 143.78 61.6198 143.892 61.3718 143.964C61.1318 144.036 60.8798 144.072 60.6158 144.072ZM57.5198 138.588V137.64H61.5758V138.588H57.5198ZM66.0217 144.072C65.3417 144.072 64.7417 143.932 64.2217 143.652C63.7097 143.372 63.3097 142.988 63.0217 142.5C62.7417 142.012 62.6017 141.452 62.6017 140.82C62.6017 140.188 62.7377 139.628 63.0097 139.14C63.2897 138.652 63.6697 138.272 64.1497 138C64.6377 137.72 65.1857 137.58 65.7937 137.58C66.4097 137.58 66.9537 137.716 67.4257 137.988C67.8977 138.26 68.2657 138.644 68.5297 139.14C68.8017 139.628 68.9377 140.2 68.9377 140.856C68.9377 140.904 68.9337 140.96 68.9257 141.024C68.9257 141.088 68.9217 141.148 68.9137 141.204H63.5017V140.376H68.3137L67.8457 140.664C67.8537 140.256 67.7697 139.892 67.5937 139.572C67.4177 139.252 67.1737 139.004 66.8617 138.828C66.5577 138.644 66.2017 138.552 65.7937 138.552C65.3937 138.552 65.0377 138.644 64.7257 138.828C64.4137 139.004 64.1697 139.256 63.9937 139.584C63.8177 139.904 63.7297 140.272 63.7297 140.688V140.88C63.7297 141.304 63.8257 141.684 64.0177 142.02C64.2177 142.348 64.4937 142.604 64.8457 142.788C65.1977 142.972 65.6017 143.064 66.0577 143.064C66.4337 143.064 66.7737 143 67.0777 142.872C67.3897 142.744 67.6617 142.552 67.8937 142.296L68.5297 143.04C68.2417 143.376 67.8817 143.632 67.4497 143.808C67.0257 143.984 66.5497 144.072 66.0217 144.072ZM73.1653 144.072C72.5493 144.072 71.9973 143.936 71.5093 143.664C71.0293 143.392 70.6493 143.012 70.3693 142.524C70.0893 142.036 69.9493 141.468 69.9493 140.82C69.9493 140.172 70.0893 139.608 70.3693 139.128C70.6493 138.64 71.0293 138.26 71.5093 137.988C71.9973 137.716 72.5493 137.58 73.1653 137.58C73.7013 137.58 74.1853 137.7 74.6173 137.94C75.0493 138.18 75.3933 138.54 75.6493 139.02C75.9133 139.5 76.0453 140.1 76.0453 140.82C76.0453 141.54 75.9173 142.14 75.6613 142.62C75.4133 143.1 75.0733 143.464 74.6413 143.712C74.2093 143.952 73.7173 144.072 73.1653 144.072ZM73.2613 143.064C73.6613 143.064 74.0213 142.972 74.3413 142.788C74.6693 142.604 74.9253 142.344 75.1093 142.008C75.3013 141.664 75.3973 141.268 75.3973 140.82C75.3973 140.364 75.3013 139.972 75.1093 139.644C74.9253 139.308 74.6693 139.048 74.3413 138.864C74.0213 138.68 73.6613 138.588 73.2613 138.588C72.8533 138.588 72.4893 138.68 72.1693 138.864C71.8493 139.048 71.5933 139.308 71.4013 139.644C71.2093 139.972 71.1133 140.364 71.1133 140.82C71.1133 141.268 71.2093 141.664 71.4013 142.008C71.5933 142.344 71.8493 142.604 72.1693 142.788C72.4893 142.972 72.8533 143.064 73.2613 143.064ZM75.4333 144V142.284L75.5053 140.808L75.3853 139.332V135.096H76.5373V144H75.4333ZM84.6637 144.072C84.0237 144.072 83.4557 143.932 82.9597 143.652C82.4637 143.372 82.0717 142.988 81.7837 142.5C81.4957 142.004 81.3517 141.444 81.3517 140.82C81.3517 140.188 81.4957 139.628 81.7837 139.14C82.0717 138.652 82.4637 138.272 82.9597 138C83.4557 137.72 84.0237 137.58 84.6637 137.58C85.2957 137.58 85.8597 137.72 86.3557 138C86.8597 138.272 87.2517 138.652 87.5317 139.14C87.8197 139.62 87.9637 140.18 87.9637 140.82C87.9637 141.452 87.8197 142.012 87.5317 142.5C87.2517 142.988 86.8597 143.372 86.3557 143.652C85.8597 143.932 85.2957 144.072 84.6637 144.072ZM84.6637 143.064C85.0717 143.064 85.4357 142.972 85.7557 142.788C86.0837 142.604 86.3397 142.344 86.5237 142.008C86.7077 141.664 86.7997 141.268 86.7997 140.82C86.7997 140.364 86.7077 139.972 86.5237 139.644C86.3397 139.308 86.0837 139.048 85.7557 138.864C85.4357 138.68 85.0717 138.588 84.6637 138.588C84.2557 138.588 83.8917 138.68 83.5717 138.864C83.2517 139.048 82.9957 139.308 82.8037 139.644C82.6117 139.972 82.5157 140.364 82.5157 140.82C82.5157 141.268 82.6117 141.664 82.8037 142.008C82.9957 142.344 83.2517 142.604 83.5717 142.788C83.8917 142.972 84.2557 143.064 84.6637 143.064ZM92.9528 137.58C93.4728 137.58 93.9288 137.68 94.3208 137.88C94.7208 138.08 95.0328 138.384 95.2568 138.792C95.4808 139.2 95.5928 139.716 95.5928 140.34V144H94.4408V140.472C94.4408 139.856 94.2888 139.392 93.9848 139.08C93.6888 138.768 93.2688 138.612 92.7248 138.612C92.3168 138.612 91.9608 138.692 91.6568 138.852C91.3528 139.012 91.1168 139.248 90.9488 139.56C90.7888 139.872 90.7088 140.26 90.7088 140.724V144H89.5568V137.64H90.6608V139.356L90.4808 138.9C90.6888 138.484 91.0088 138.16 91.4408 137.928C91.8728 137.696 92.3768 137.58 92.9528 137.58ZM103.131 144.072C102.491 144.072 101.995 143.9 101.643 143.556C101.291 143.212 101.115 142.72 101.115 142.08V136.248H102.267V142.032C102.267 142.376 102.351 142.64 102.519 142.824C102.695 143.008 102.943 143.1 103.263 143.1C103.623 143.1 103.923 143 104.163 142.8L104.523 143.628C104.347 143.78 104.135 143.892 103.887 143.964C103.647 144.036 103.395 144.072 103.131 144.072ZM100.035 138.588V137.64H104.091V138.588H100.035ZM109.312 137.58C109.832 137.58 110.288 137.68 110.68 137.88C111.08 138.08 111.392 138.384 111.616 138.792C111.84 139.2 111.952 139.716 111.952 140.34V144H110.8V140.472C110.8 139.856 110.648 139.392 110.344 139.08C110.048 138.768 109.628 138.612 109.084 138.612C108.676 138.612 108.32 138.692 108.016 138.852C107.712 139.012 107.476 139.248 107.308 139.56C107.148 139.872 107.068 140.26 107.068 140.724V144H105.916V135.096H107.068V139.356L106.84 138.9C107.048 138.484 107.368 138.16 107.8 137.928C108.232 137.696 108.736 137.58 109.312 137.58ZM116.916 144.072C116.236 144.072 115.636 143.932 115.116 143.652C114.604 143.372 114.204 142.988 113.916 142.5C113.636 142.012 113.496 141.452 113.496 140.82C113.496 140.188 113.632 139.628 113.904 139.14C114.184 138.652 114.564 138.272 115.044 138C115.532 137.72 116.08 137.58 116.688 137.58C117.304 137.58 117.848 137.716 118.32 137.988C118.792 138.26 119.16 138.644 119.424 139.14C119.696 139.628 119.832 140.2 119.832 140.856C119.832 140.904 119.828 140.96 119.82 141.024C119.82 141.088 119.816 141.148 119.808 141.204H114.396V140.376H119.208L118.74 140.664C118.748 140.256 118.664 139.892 118.488 139.572C118.312 139.252 118.068 139.004 117.756 138.828C117.452 138.644 117.096 138.552 116.688 138.552C116.288 138.552 115.932 138.644 115.62 138.828C115.308 139.004 115.064 139.256 114.888 139.584C114.712 139.904 114.624 140.272 114.624 140.688V140.88C114.624 141.304 114.72 141.684 114.912 142.02C115.112 142.348 115.388 142.604 115.74 142.788C116.092 142.972 116.496 143.064 116.952 143.064C117.328 143.064 117.668 143 117.972 142.872C118.284 142.744 118.556 142.552 118.788 142.296L119.424 143.04C119.136 143.376 118.776 143.632 118.344 143.808C117.92 143.984 117.444 144.072 116.916 144.072ZM127.439 146.4C126.855 146.4 126.287 146.316 125.735 146.148C125.191 145.988 124.747 145.756 124.403 145.452L124.955 144.564C125.251 144.82 125.615 145.02 126.047 145.164C126.479 145.316 126.931 145.392 127.403 145.392C128.155 145.392 128.707 145.216 129.059 144.864C129.411 144.512 129.587 143.976 129.587 143.256V141.912L129.707 140.652L129.647 139.38V137.64H130.739V143.136C130.739 144.256 130.459 145.08 129.898 145.608C129.339 146.136 128.519 146.4 127.439 146.4ZM127.295 143.736C126.679 143.736 126.127 143.608 125.639 143.352C125.159 143.088 124.775 142.724 124.487 142.26C124.207 141.796 124.067 141.26 124.067 140.652C124.067 140.036 124.207 139.5 124.487 139.044C124.775 138.58 125.159 138.22 125.639 137.964C126.127 137.708 126.679 137.58 127.295 137.58C127.839 137.58 128.335 137.692 128.783 137.916C129.231 138.132 129.587 138.468 129.851 138.924C130.123 139.38 130.259 139.956 130.259 140.652C130.259 141.34 130.123 141.912 129.851 142.368C129.587 142.824 129.231 143.168 128.783 143.4C128.335 143.624 127.839 143.736 127.295 143.736ZM127.427 142.728C127.851 142.728 128.227 142.64 128.555 142.464C128.883 142.288 129.139 142.044 129.323 141.732C129.515 141.42 129.611 141.06 129.611 140.652C129.611 140.244 129.515 139.884 129.323 139.572C129.139 139.26 128.883 139.02 128.555 138.852C128.227 138.676 127.851 138.588 127.427 138.588C127.003 138.588 126.623 138.676 126.287 138.852C125.959 139.02 125.699 139.26 125.507 139.572C125.323 139.884 125.231 140.244 125.231 140.652C125.231 141.06 125.323 141.42 125.507 141.732C125.699 142.044 125.959 142.288 126.287 142.464C126.623 142.64 127.003 142.728 127.427 142.728ZM132.94 144V137.64H134.044V139.368L133.936 138.936C134.112 138.496 134.408 138.16 134.824 137.928C135.24 137.696 135.752 137.58 136.36 137.58V138.696C136.312 138.688 136.264 138.684 136.216 138.684C136.176 138.684 136.136 138.684 136.096 138.684C135.48 138.684 134.992 138.868 134.632 139.236C134.272 139.604 134.092 140.136 134.092 140.832V144H132.94ZM141.259 144V142.656L141.199 142.404V140.112C141.199 139.624 141.055 139.248 140.767 138.984C140.487 138.712 140.063 138.576 139.495 138.576C139.119 138.576 138.751 138.64 138.391 138.768C138.031 138.888 137.727 139.052 137.479 139.26L136.999 138.396C137.327 138.132 137.719 137.932 138.175 137.796C138.639 137.652 139.123 137.58 139.627 137.58C140.499 137.58 141.171 137.792 141.643 138.216C142.115 138.64 142.351 139.288 142.351 140.16V144H141.259ZM139.171 144.072C138.699 144.072 138.283 143.992 137.923 143.832C137.571 143.672 137.299 143.452 137.107 143.172C136.915 142.884 136.819 142.56 136.819 142.2C136.819 141.856 136.899 141.544 137.059 141.264C137.227 140.984 137.495 140.76 137.863 140.592C138.239 140.424 138.743 140.34 139.375 140.34H141.391V141.168H139.423C138.847 141.168 138.459 141.264 138.259 141.456C138.059 141.648 137.959 141.88 137.959 142.152C137.959 142.464 138.083 142.716 138.331 142.908C138.579 143.092 138.923 143.184 139.363 143.184C139.795 143.184 140.171 143.088 140.491 142.896C140.819 142.704 141.055 142.424 141.199 142.056L141.427 142.848C141.275 143.224 141.007 143.524 140.623 143.748C140.239 143.964 139.755 144.072 139.171 144.072ZM147.855 144.072C147.327 144.072 146.843 143.952 146.403 143.712C145.971 143.464 145.623 143.1 145.359 142.62C145.103 142.14 144.975 141.54 144.975 140.82C144.975 140.1 145.099 139.5 145.347 139.02C145.603 138.54 145.947 138.18 146.379 137.94C146.819 137.7 147.311 137.58 147.855 137.58C148.479 137.58 149.031 137.716 149.511 137.988C149.991 138.26 150.371 138.64 150.651 139.128C150.931 139.608 151.071 140.172 151.071 140.82C151.071 141.468 150.931 142.036 150.651 142.524C150.371 143.012 149.991 143.392 149.511 143.664C149.031 143.936 148.479 144.072 147.855 144.072ZM144.483 146.328V137.64H145.587V139.356L145.515 140.832L145.635 142.308V146.328H144.483ZM147.759 143.064C148.167 143.064 148.531 142.972 148.851 142.788C149.179 142.604 149.435 142.344 149.619 142.008C149.811 141.664 149.907 141.268 149.907 140.82C149.907 140.364 149.811 139.972 149.619 139.644C149.435 139.308 149.179 139.048 148.851 138.864C148.531 138.68 148.167 138.588 147.759 138.588C147.359 138.588 146.995 138.68 146.667 138.864C146.347 139.048 146.091 139.308 145.899 139.644C145.715 139.972 145.623 140.364 145.623 140.82C145.623 141.268 145.715 141.664 145.899 142.008C146.091 142.344 146.347 142.604 146.667 142.788C146.995 142.972 147.359 143.064 147.759 143.064ZM156.058 137.58C156.578 137.58 157.034 137.68 157.426 137.88C157.826 138.08 158.138 138.384 158.362 138.792C158.586 139.2 158.698 139.716 158.698 140.34V144H157.546V140.472C157.546 139.856 157.394 139.392 157.09 139.08C156.794 138.768 156.374 138.612 155.83 138.612C155.422 138.612 155.066 138.692 154.762 138.852C154.458 139.012 154.222 139.248 154.054 139.56C153.894 139.872 153.814 140.26 153.814 140.724V144H152.662V135.096H153.814V139.356L153.586 138.9C153.794 138.484 154.114 138.16 154.546 137.928C154.978 137.696 155.482 137.58 156.058 137.58ZM68.6682 159V152.64H69.8202V159H68.6682ZM69.2442 151.416C69.0202 151.416 68.8322 151.344 68.6802 151.2C68.5362 151.056 68.4642 150.88 68.4642 150.672C68.4642 150.456 68.5362 150.276 68.6802 150.132C68.8322 149.988 69.0202 149.916 69.2442 149.916C69.4682 149.916 69.6522 149.988 69.7962 150.132C69.9482 150.268 70.0242 150.44 70.0242 150.648C70.0242 150.864 69.9522 151.048 69.8082 151.2C69.6642 151.344 69.4762 151.416 69.2442 151.416ZM75.4157 152.58C75.9357 152.58 76.3917 152.68 76.7837 152.88C77.1837 153.08 77.4957 153.384 77.7197 153.792C77.9437 154.2 78.0557 154.716 78.0557 155.34V159H76.9037V155.472C76.9037 154.856 76.7517 154.392 76.4477 154.08C76.1517 153.768 75.7317 153.612 75.1877 153.612C74.7797 153.612 74.4237 153.692 74.1197 153.852C73.8157 154.012 73.5797 154.248 73.4117 154.56C73.2517 154.872 73.1717 155.26 73.1717 155.724V159H72.0197V152.64H73.1237V154.356L72.9437 153.9C73.1517 153.484 73.4717 153.16 73.9037 152.928C74.3357 152.696 74.8397 152.58 75.4157 152.58ZM81.4145 159L79.0505 152.64H80.1425L82.2425 158.4H81.7265L83.9105 152.64H84.8825L87.0185 158.4H86.5145L88.6625 152.64H89.6945L87.3185 159H86.2145L84.2105 153.744H84.5465L82.5185 159H81.4145ZM94.6123 159V157.656L94.5523 157.404V155.112C94.5523 154.624 94.4083 154.248 94.1203 153.984C93.8403 153.712 93.4163 153.576 92.8483 153.576C92.4723 153.576 92.1043 153.64 91.7443 153.768C91.3843 153.888 91.0803 154.052 90.8323 154.26L90.3523 153.396C90.6803 153.132 91.0723 152.932 91.5283 152.796C91.9923 152.652 92.4763 152.58 92.9803 152.58C93.8523 152.58 94.5243 152.792 94.9963 153.216C95.4683 153.64 95.7043 154.288 95.7043 155.16V159H94.6123ZM92.5243 159.072C92.0523 159.072 91.6363 158.992 91.2763 158.832C90.9243 158.672 90.6523 158.452 90.4603 158.172C90.2683 157.884 90.1723 157.56 90.1723 157.2C90.1723 156.856 90.2523 156.544 90.4123 156.264C90.5803 155.984 90.8483 155.76 91.2163 155.592C91.5923 155.424 92.0963 155.34 92.7283 155.34H94.7443V156.168H92.7763C92.2003 156.168 91.8123 156.264 91.6123 156.456C91.4123 156.648 91.3123 156.88 91.3123 157.152C91.3123 157.464 91.4363 157.716 91.6843 157.908C91.9323 158.092 92.2763 158.184 92.7163 158.184C93.1483 158.184 93.5243 158.088 93.8443 157.896C94.1723 157.704 94.4083 157.424 94.5523 157.056L94.7803 157.848C94.6283 158.224 94.3603 158.524 93.9763 158.748C93.5923 158.964 93.1083 159.072 92.5243 159.072ZM97.8361 159V152.64H98.9401V154.368L98.8321 153.936C99.0081 153.496 99.3041 153.16 99.7201 152.928C100.136 152.696 100.648 152.58 101.256 152.58V153.696C101.208 153.688 101.16 153.684 101.112 153.684C101.072 153.684 101.032 153.684 100.992 153.684C100.376 153.684 99.8881 153.868 99.5281 154.236C99.1681 154.604 98.9881 155.136 98.9881 155.832V159H97.8361ZM105.245 159.072C104.629 159.072 104.077 158.936 103.589 158.664C103.109 158.392 102.729 158.012 102.449 157.524C102.169 157.036 102.029 156.468 102.029 155.82C102.029 155.172 102.169 154.608 102.449 154.128C102.729 153.64 103.109 153.26 103.589 152.988C104.077 152.716 104.629 152.58 105.245 152.58C105.781 152.58 106.265 152.7 106.697 152.94C107.129 153.18 107.473 153.54 107.729 154.02C107.993 154.5 108.125 155.1 108.125 155.82C108.125 156.54 107.997 157.14 107.741 157.62C107.493 158.1 107.153 158.464 106.721 158.712C106.289 158.952 105.797 159.072 105.245 159.072ZM105.341 158.064C105.741 158.064 106.101 157.972 106.421 157.788C106.749 157.604 107.005 157.344 107.189 157.008C107.381 156.664 107.477 156.268 107.477 155.82C107.477 155.364 107.381 154.972 107.189 154.644C107.005 154.308 106.749 154.048 106.421 153.864C106.101 153.68 105.741 153.588 105.341 153.588C104.933 153.588 104.569 153.68 104.249 153.864C103.929 154.048 103.673 154.308 103.481 154.644C103.289 154.972 103.193 155.364 103.193 155.82C103.193 156.268 103.289 156.664 103.481 157.008C103.673 157.344 103.929 157.604 104.249 157.788C104.569 157.972 104.933 158.064 105.341 158.064ZM107.513 159V157.284L107.585 155.808L107.465 154.332V150.096H108.617V159H107.513ZM111.073 159.072C110.849 159.072 110.657 158.996 110.497 158.844C110.337 158.684 110.257 158.484 110.257 158.244C110.257 158.004 110.337 157.808 110.497 157.656C110.657 157.504 110.849 157.428 111.073 157.428C111.289 157.428 111.473 157.504 111.625 157.656C111.785 157.808 111.865 158.004 111.865 158.244C111.865 158.484 111.785 158.684 111.625 158.844C111.473 158.996 111.289 159.072 111.073 159.072Z" fill="#008E86"/>
<path d="M36.1831 44.7874C35.6887 44.5412 35.0883 44.7423 34.8421 45.2367C34.5959 45.7311 34.797 46.3314 35.2914 46.5777L36.1831 44.7874ZM75.3235 17.3132C75.0473 16.8349 74.4357 16.671 73.9574 16.9471L66.1632 21.4471C65.6849 21.7233 65.521 22.3349 65.7972 22.8132C66.0733 23.2914 66.6849 23.4553 67.1632 23.1792L74.0914 19.1792L78.0914 26.1074C78.3675 26.5857 78.9791 26.7496 79.4574 26.4734C79.9357 26.1973 80.0996 25.5857 79.8235 25.1074L75.3235 17.3132ZM35.2914 46.5777C43.4794 50.6558 51.9288 49.6958 59.1211 44.5801C66.2737 39.4925 72.136 30.3405 75.4234 18.072L73.4915 17.5543C70.2845 29.523 64.626 38.2102 57.9618 42.9503C51.3373 47.6622 43.6738 48.5183 36.1831 44.7874L35.2914 46.5777Z" fill="black"/>
<path d="M83.3101 45.06L144.893 64.984L76.065 64.984L83.3101 45.06Z" fill="#008E86" stroke="#00635D" stroke-width="2" stroke-linejoin="round"/>
<path d="M36.2173 64.9805L83.3103 45.0566L106.253 64.9805H36.2173Z" fill="#008E86" stroke="#00635D" stroke-width="2" stroke-linejoin="round"/>
<path d="M82.1025 64.9828L68.8199 49.2852" stroke="#333333" stroke-width="2" stroke-dasharray="4 6"/>
</svg>
