<svg width="180" height="180" viewBox="0 0 180 180" fill="none" xmlns="http://www.w3.org/2000/svg">
<rect width="180" height="180" rx="20" fill="#F2F2F2"/>
<path d="M33.7678 122V113.6H37.5358C38.5038 113.6 39.2478 113.796 39.7678 114.188C40.2878 114.572 40.5478 115.1 40.5478 115.772C40.5478 116.228 40.4438 116.612 40.2358 116.924C40.0358 117.236 39.7638 117.476 39.4198 117.644C39.0758 117.812 38.7038 117.896 38.3038 117.896L38.5198 117.536C38.9998 117.536 39.4238 117.62 39.7918 117.788C40.1598 117.956 40.4518 118.204 40.6678 118.532C40.8838 118.852 40.9918 119.252 40.9918 119.732C40.9918 120.452 40.7198 121.012 40.1758 121.412C39.6398 121.804 38.8398 122 37.7758 122H33.7678ZM34.9678 121.028H37.7278C38.3918 121.028 38.8998 120.916 39.2518 120.692C39.6038 120.468 39.7798 120.116 39.7798 119.636C39.7798 119.148 39.6038 118.792 39.2518 118.568C38.8998 118.344 38.3918 118.232 37.7278 118.232H34.8598V117.26H37.4278C38.0358 117.26 38.5078 117.148 38.8438 116.924C39.1798 116.7 39.3478 116.364 39.3478 115.916C39.3478 115.468 39.1798 115.132 38.8438 114.908C38.5078 114.684 38.0358 114.572 37.4278 114.572H34.9678V121.028ZM45.5138 122.072C44.8338 122.072 44.2338 121.932 43.7138 121.652C43.2018 121.372 42.8018 120.988 42.5138 120.5C42.2338 120.012 42.0938 119.452 42.0938 118.82C42.0938 118.188 42.2298 117.628 42.5018 117.14C42.7818 116.652 43.1618 116.272 43.6418 116C44.1298 115.72 44.6778 115.58 45.2858 115.58C45.9018 115.58 46.4458 115.716 46.9178 115.988C47.3898 116.26 47.7578 116.644 48.0218 117.14C48.2938 117.628 48.4298 118.2 48.4298 118.856C48.4298 118.904 48.4258 118.96 48.4178 119.024C48.4178 119.088 48.4138 119.148 48.4058 119.204H42.9938V118.376H47.8058L47.3378 118.664C47.3458 118.256 47.2618 117.892 47.0858 117.572C46.9098 117.252 46.6658 117.004 46.3538 116.828C46.0498 116.644 45.6938 116.552 45.2858 116.552C44.8858 116.552 44.5298 116.644 44.2178 116.828C43.9058 117.004 43.6618 117.256 43.4858 117.584C43.3098 117.904 43.2218 118.272 43.2218 118.688V118.88C43.2218 119.304 43.3178 119.684 43.5098 120.02C43.7098 120.348 43.9858 120.604 44.3378 120.788C44.6898 120.972 45.0938 121.064 45.5498 121.064C45.9258 121.064 46.2658 121 46.5698 120.872C46.8818 120.744 47.1538 120.552 47.3858 120.296L48.0218 121.04C47.7338 121.376 47.3738 121.632 46.9418 121.808C46.5178 121.984 46.0418 122.072 45.5138 122.072ZM53.4255 115.58C53.9455 115.58 54.4015 115.68 54.7935 115.88C55.1935 116.08 55.5055 116.384 55.7295 116.792C55.9535 117.2 56.0655 117.716 56.0655 118.34V122H54.9135V118.472C54.9135 117.856 54.7615 117.392 54.4575 117.08C54.1615 116.768 53.7415 116.612 53.1975 116.612C52.7895 116.612 52.4335 116.692 52.1295 116.852C51.8255 117.012 51.5895 117.248 51.4215 117.56C51.2615 117.872 51.1815 118.26 51.1815 118.724V122H50.0295V115.64H51.1335V117.356L50.9535 116.9C51.1615 116.484 51.4815 116.16 51.9135 115.928C52.3455 115.696 52.8495 115.58 53.4255 115.58ZM60.8255 122.072C60.2095 122.072 59.6575 121.936 59.1695 121.664C58.6895 121.392 58.3095 121.012 58.0295 120.524C57.7495 120.036 57.6095 119.468 57.6095 118.82C57.6095 118.172 57.7495 117.608 58.0295 117.128C58.3095 116.64 58.6895 116.26 59.1695 115.988C59.6575 115.716 60.2095 115.58 60.8255 115.58C61.3615 115.58 61.8455 115.7 62.2775 115.94C62.7095 116.18 63.0535 116.54 63.3095 117.02C63.5735 117.5 63.7055 118.1 63.7055 118.82C63.7055 119.54 63.5775 120.14 63.3215 120.62C63.0735 121.1 62.7335 121.464 62.3015 121.712C61.8695 121.952 61.3775 122.072 60.8255 122.072ZM60.9215 121.064C61.3215 121.064 61.6815 120.972 62.0015 120.788C62.3295 120.604 62.5855 120.344 62.7695 120.008C62.9615 119.664 63.0575 119.268 63.0575 118.82C63.0575 118.364 62.9615 117.972 62.7695 117.644C62.5855 117.308 62.3295 117.048 62.0015 116.864C61.6815 116.68 61.3215 116.588 60.9215 116.588C60.5135 116.588 60.1495 116.68 59.8295 116.864C59.5095 117.048 59.2535 117.308 59.0615 117.644C58.8695 117.972 58.7735 118.364 58.7735 118.82C58.7735 119.268 58.8695 119.664 59.0615 120.008C59.2535 120.344 59.5095 120.604 59.8295 120.788C60.1495 120.972 60.5135 121.064 60.9215 121.064ZM63.0935 122V120.284L63.1655 118.808L63.0455 117.332V113.096H64.1975V122H63.0935ZM71.7838 122.072C71.1438 122.072 70.6478 121.9 70.2958 121.556C69.9438 121.212 69.7678 120.72 69.7678 120.08V114.248H70.9198V120.032C70.9198 120.376 71.0038 120.64 71.1718 120.824C71.3478 121.008 71.5958 121.1 71.9158 121.1C72.2758 121.1 72.5758 121 72.8158 120.8L73.1758 121.628C72.9998 121.78 72.7878 121.892 72.5398 121.964C72.2998 122.036 72.0478 122.072 71.7838 122.072ZM68.6878 116.588V115.64H72.7438V116.588H68.6878ZM77.9646 115.58C78.4846 115.58 78.9406 115.68 79.3326 115.88C79.7326 116.08 80.0446 116.384 80.2686 116.792C80.4926 117.2 80.6046 117.716 80.6046 118.34V122H79.4526V118.472C79.4526 117.856 79.3006 117.392 78.9966 117.08C78.7006 116.768 78.2806 116.612 77.7366 116.612C77.3286 116.612 76.9726 116.692 76.6686 116.852C76.3646 117.012 76.1286 117.248 75.9606 117.56C75.8006 117.872 75.7206 118.26 75.7206 118.724V122H74.5686V113.096H75.7206V117.356L75.4926 116.9C75.7006 116.484 76.0206 116.16 76.4526 115.928C76.8846 115.696 77.3886 115.58 77.9646 115.58ZM85.5685 122.072C84.8885 122.072 84.2885 121.932 83.7685 121.652C83.2565 121.372 82.8565 120.988 82.5685 120.5C82.2885 120.012 82.1485 119.452 82.1485 118.82C82.1485 118.188 82.2845 117.628 82.5565 117.14C82.8365 116.652 83.2165 116.272 83.6965 116C84.1845 115.72 84.7325 115.58 85.3405 115.58C85.9565 115.58 86.5005 115.716 86.9725 115.988C87.4445 116.26 87.8125 116.644 88.0765 117.14C88.3485 117.628 88.4845 118.2 88.4845 118.856C88.4845 118.904 88.4805 118.96 88.4725 119.024C88.4725 119.088 88.4685 119.148 88.4605 119.204H83.0485V118.376H87.8605L87.3925 118.664C87.4005 118.256 87.3165 117.892 87.1405 117.572C86.9645 117.252 86.7205 117.004 86.4085 116.828C86.1045 116.644 85.7485 116.552 85.3405 116.552C84.9405 116.552 84.5845 116.644 84.2725 116.828C83.9605 117.004 83.7165 117.256 83.5405 117.584C83.3645 117.904 83.2765 118.272 83.2765 118.688V118.88C83.2765 119.304 83.3725 119.684 83.5645 120.02C83.7645 120.348 84.0405 120.604 84.3925 120.788C84.7445 120.972 85.1485 121.064 85.6045 121.064C85.9805 121.064 86.3205 121 86.6245 120.872C86.9365 120.744 87.2085 120.552 87.4405 120.296L88.0765 121.04C87.7885 121.376 87.4285 121.632 86.9965 121.808C86.5725 121.984 86.0965 122.072 85.5685 122.072ZM95.4908 122.072C94.8508 122.072 94.3548 121.9 94.0028 121.556C93.6508 121.212 93.4748 120.72 93.4748 120.08V114.248H94.6268V120.032C94.6268 120.376 94.7108 120.64 94.8788 120.824C95.0548 121.008 95.3028 121.1 95.6228 121.1C95.9828 121.1 96.2828 121 96.5228 120.8L96.8828 121.628C96.7068 121.78 96.4948 121.892 96.2468 121.964C96.0068 122.036 95.7548 122.072 95.4908 122.072ZM92.3948 116.588V115.64H96.4508V116.588H92.3948ZM98.2756 122V115.64H99.4276V122H98.2756ZM98.8516 114.416C98.6276 114.416 98.4396 114.344 98.2876 114.2C98.1436 114.056 98.0716 113.88 98.0716 113.672C98.0716 113.456 98.1436 113.276 98.2876 113.132C98.4396 112.988 98.6276 112.916 98.8516 112.916C99.0756 112.916 99.2596 112.988 99.4036 113.132C99.5556 113.268 99.6316 113.44 99.6316 113.648C99.6316 113.864 99.5596 114.048 99.4156 114.2C99.2716 114.344 99.0836 114.416 98.8516 114.416ZM104.999 122.072C104.471 122.072 103.987 121.952 103.547 121.712C103.115 121.464 102.767 121.1 102.503 120.62C102.247 120.14 102.119 119.54 102.119 118.82C102.119 118.1 102.243 117.5 102.491 117.02C102.747 116.54 103.091 116.18 103.523 115.94C103.963 115.7 104.455 115.58 104.999 115.58C105.623 115.58 106.175 115.716 106.655 115.988C107.135 116.26 107.515 116.64 107.795 117.128C108.075 117.608 108.215 118.172 108.215 118.82C108.215 119.468 108.075 120.036 107.795 120.524C107.515 121.012 107.135 121.392 106.655 121.664C106.175 121.936 105.623 122.072 104.999 122.072ZM101.627 124.328V115.64H102.731V117.356L102.659 118.832L102.779 120.308V124.328H101.627ZM104.903 121.064C105.311 121.064 105.675 120.972 105.995 120.788C106.323 120.604 106.579 120.344 106.763 120.008C106.955 119.664 107.051 119.268 107.051 118.82C107.051 118.364 106.955 117.972 106.763 117.644C106.579 117.308 106.323 117.048 105.995 116.864C105.675 116.68 105.311 116.588 104.903 116.588C104.503 116.588 104.139 116.68 103.811 116.864C103.491 117.048 103.235 117.308 103.043 117.644C102.859 117.972 102.767 118.364 102.767 118.82C102.767 119.268 102.859 119.664 103.043 120.008C103.235 120.344 103.491 120.604 103.811 120.788C104.139 120.972 104.503 121.064 104.903 121.064ZM115.754 122.072C115.114 122.072 114.546 121.932 114.05 121.652C113.554 121.372 113.162 120.988 112.874 120.5C112.586 120.004 112.442 119.444 112.442 118.82C112.442 118.188 112.586 117.628 112.874 117.14C113.162 116.652 113.554 116.272 114.05 116C114.546 115.72 115.114 115.58 115.754 115.58C116.386 115.58 116.95 115.72 117.446 116C117.95 116.272 118.342 116.652 118.622 117.14C118.91 117.62 119.054 118.18 119.054 118.82C119.054 119.452 118.91 120.012 118.622 120.5C118.342 120.988 117.95 121.372 117.446 121.652C116.95 121.932 116.386 122.072 115.754 122.072ZM115.754 121.064C116.162 121.064 116.526 120.972 116.846 120.788C117.174 120.604 117.43 120.344 117.614 120.008C117.798 119.664 117.89 119.268 117.89 118.82C117.89 118.364 117.798 117.972 117.614 117.644C117.43 117.308 117.174 117.048 116.846 116.864C116.526 116.68 116.162 116.588 115.754 116.588C115.346 116.588 114.982 116.68 114.662 116.864C114.342 117.048 114.086 117.308 113.894 117.644C113.702 117.972 113.606 118.364 113.606 118.82C113.606 119.268 113.702 119.664 113.894 120.008C114.086 120.344 114.342 120.604 114.662 120.788C114.982 120.972 115.346 121.064 115.754 121.064ZM120.815 122V115.076C120.815 114.452 120.995 113.956 121.355 113.588C121.723 113.212 122.243 113.024 122.915 113.024C123.163 113.024 123.399 113.056 123.623 113.12C123.855 113.176 124.051 113.268 124.211 113.396L123.863 114.272C123.743 114.176 123.607 114.104 123.455 114.056C123.303 114 123.143 113.972 122.975 113.972C122.639 113.972 122.383 114.068 122.207 114.26C122.031 114.444 121.943 114.72 121.943 115.088V115.94L121.967 116.468V122H120.815ZM119.735 116.588V115.64H123.791V116.588H119.735ZM130.284 122.072C129.644 122.072 129.148 121.9 128.796 121.556C128.444 121.212 128.268 120.72 128.268 120.08V114.248H129.42V120.032C129.42 120.376 129.504 120.64 129.672 120.824C129.848 121.008 130.096 121.1 130.416 121.1C130.776 121.1 131.076 121 131.316 120.8L131.676 121.628C131.5 121.78 131.288 121.892 131.04 121.964C130.8 122.036 130.548 122.072 130.284 122.072ZM127.188 116.588V115.64H131.244V116.588H127.188ZM136.465 115.58C136.985 115.58 137.441 115.68 137.833 115.88C138.233 116.08 138.545 116.384 138.769 116.792C138.993 117.2 139.105 117.716 139.105 118.34V122H137.953V118.472C137.953 117.856 137.801 117.392 137.497 117.08C137.201 116.768 136.781 116.612 136.237 116.612C135.829 116.612 135.473 116.692 135.169 116.852C134.865 117.012 134.629 117.248 134.461 117.56C134.301 117.872 134.221 118.26 134.221 118.724V122H133.069V113.096H134.221V117.356L133.993 116.9C134.201 116.484 134.521 116.16 134.953 115.928C135.385 115.696 135.889 115.58 136.465 115.58ZM144.069 122.072C143.389 122.072 142.789 121.932 142.269 121.652C141.757 121.372 141.357 120.988 141.069 120.5C140.789 120.012 140.649 119.452 140.649 118.82C140.649 118.188 140.785 117.628 141.057 117.14C141.337 116.652 141.717 116.272 142.197 116C142.685 115.72 143.233 115.58 143.841 115.58C144.457 115.58 145.001 115.716 145.473 115.988C145.945 116.26 146.313 116.644 146.577 117.14C146.849 117.628 146.985 118.2 146.985 118.856C146.985 118.904 146.981 118.96 146.973 119.024C146.973 119.088 146.969 119.148 146.961 119.204H141.549V118.376H146.361L145.893 118.664C145.901 118.256 145.817 117.892 145.641 117.572C145.465 117.252 145.221 117.004 144.909 116.828C144.605 116.644 144.249 116.552 143.841 116.552C143.441 116.552 143.085 116.644 142.773 116.828C142.461 117.004 142.217 117.256 142.041 117.584C141.865 117.904 141.777 118.272 141.777 118.688V118.88C141.777 119.304 141.873 119.684 142.065 120.02C142.265 120.348 142.541 120.604 142.893 120.788C143.245 120.972 143.649 121.064 144.105 121.064C144.481 121.064 144.821 121 145.125 120.872C145.437 120.744 145.709 120.552 145.941 120.296L146.577 121.04C146.289 121.376 145.929 121.632 145.497 121.808C145.073 121.984 144.597 122.072 144.069 122.072ZM27.7439 130.58C28.2639 130.58 28.7199 130.68 29.1119 130.88C29.5119 131.08 29.8239 131.384 30.0479 131.792C30.2719 132.2 30.3839 132.716 30.3839 133.34V137H29.2319V133.472C29.2319 132.856 29.0799 132.392 28.7759 132.08C28.4799 131.768 28.0599 131.612 27.5159 131.612C27.1079 131.612 26.7519 131.692 26.4479 131.852C26.1439 132.012 25.9079 132.248 25.7399 132.56C25.5799 132.872 25.4999 133.26 25.4999 133.724V137H24.3479V128.096H25.4999V132.356L25.2719 131.9C25.4799 131.484 25.7999 131.16 26.2319 130.928C26.6639 130.696 27.1679 130.58 27.7439 130.58ZM35.3478 137.072C34.6678 137.072 34.0678 136.932 33.5478 136.652C33.0358 136.372 32.6358 135.988 32.3478 135.5C32.0678 135.012 31.9278 134.452 31.9278 133.82C31.9278 133.188 32.0638 132.628 32.3358 132.14C32.6158 131.652 32.9958 131.272 33.4758 131C33.9638 130.72 34.5118 130.58 35.1198 130.58C35.7358 130.58 36.2798 130.716 36.7518 130.988C37.2238 131.26 37.5918 131.644 37.8558 132.14C38.1278 132.628 38.2638 133.2 38.2638 133.856C38.2638 133.904 38.2598 133.96 38.2518 134.024C38.2518 134.088 38.2478 134.148 38.2398 134.204H32.8278V133.376H37.6398L37.1718 133.664C37.1798 133.256 37.0958 132.892 36.9198 132.572C36.7438 132.252 36.4998 132.004 36.1878 131.828C35.8838 131.644 35.5278 131.552 35.1198 131.552C34.7198 131.552 34.3638 131.644 34.0518 131.828C33.7398 132.004 33.4958 132.256 33.3198 132.584C33.1438 132.904 33.0558 133.272 33.0558 133.688V133.88C33.0558 134.304 33.1518 134.684 33.3438 135.02C33.5438 135.348 33.8198 135.604 34.1718 135.788C34.5238 135.972 34.9278 136.064 35.3838 136.064C35.7598 136.064 36.0998 136 36.4038 135.872C36.7158 135.744 36.9878 135.552 37.2198 135.296L37.8558 136.04C37.5678 136.376 37.2078 136.632 36.7758 136.808C36.3518 136.984 35.8758 137.072 35.3478 137.072ZM43.6357 137V135.656L43.5757 135.404V133.112C43.5757 132.624 43.4317 132.248 43.1437 131.984C42.8637 131.712 42.4397 131.576 41.8717 131.576C41.4957 131.576 41.1277 131.64 40.7677 131.768C40.4077 131.888 40.1037 132.052 39.8557 132.26L39.3757 131.396C39.7037 131.132 40.0957 130.932 40.5517 130.796C41.0157 130.652 41.4997 130.58 42.0037 130.58C42.8757 130.58 43.5477 130.792 44.0197 131.216C44.4917 131.64 44.7277 132.288 44.7277 133.16V137H43.6357ZM41.5477 137.072C41.0757 137.072 40.6597 136.992 40.2997 136.832C39.9477 136.672 39.6757 136.452 39.4837 136.172C39.2917 135.884 39.1957 135.56 39.1957 135.2C39.1957 134.856 39.2757 134.544 39.4357 134.264C39.6037 133.984 39.8717 133.76 40.2397 133.592C40.6157 133.424 41.1197 133.34 41.7517 133.34H43.7677V134.168H41.7997C41.2237 134.168 40.8357 134.264 40.6357 134.456C40.4357 134.648 40.3357 134.88 40.3357 135.152C40.3357 135.464 40.4597 135.716 40.7077 135.908C40.9557 136.092 41.2997 136.184 41.7397 136.184C42.1717 136.184 42.5477 136.088 42.8677 135.896C43.1957 135.704 43.4317 135.424 43.5757 135.056L43.8037 135.848C43.6517 136.224 43.3837 136.524 42.9997 136.748C42.6157 136.964 42.1317 137.072 41.5477 137.072ZM49.4876 137.072C48.8716 137.072 48.3196 136.936 47.8316 136.664C47.3516 136.392 46.9716 136.012 46.6916 135.524C46.4116 135.036 46.2716 134.468 46.2716 133.82C46.2716 133.172 46.4116 132.608 46.6916 132.128C46.9716 131.64 47.3516 131.26 47.8316 130.988C48.3196 130.716 48.8716 130.58 49.4876 130.58C50.0236 130.58 50.5076 130.7 50.9396 130.94C51.3716 131.18 51.7156 131.54 51.9716 132.02C52.2356 132.5 52.3676 133.1 52.3676 133.82C52.3676 134.54 52.2396 135.14 51.9836 135.62C51.7356 136.1 51.3956 136.464 50.9636 136.712C50.5316 136.952 50.0396 137.072 49.4876 137.072ZM49.5836 136.064C49.9836 136.064 50.3436 135.972 50.6636 135.788C50.9916 135.604 51.2476 135.344 51.4316 135.008C51.6236 134.664 51.7196 134.268 51.7196 133.82C51.7196 133.364 51.6236 132.972 51.4316 132.644C51.2476 132.308 50.9916 132.048 50.6636 131.864C50.3436 131.68 49.9836 131.588 49.5836 131.588C49.1756 131.588 48.8116 131.68 48.4916 131.864C48.1716 132.048 47.9156 132.308 47.7236 132.644C47.5316 132.972 47.4356 133.364 47.4356 133.82C47.4356 134.268 47.5316 134.664 47.7236 135.008C47.9156 135.344 48.1716 135.604 48.4916 135.788C48.8116 135.972 49.1756 136.064 49.5836 136.064ZM51.7556 137V135.284L51.8276 133.808L51.7076 132.332V128.096H52.8596V137H51.7556ZM58.2619 137V130.64H59.4139V137H58.2619ZM58.8379 129.416C58.6139 129.416 58.4259 129.344 58.2739 129.2C58.1299 129.056 58.0579 128.88 58.0579 128.672C58.0579 128.456 58.1299 128.276 58.2739 128.132C58.4259 127.988 58.6139 127.916 58.8379 127.916C59.0619 127.916 59.2459 127.988 59.3899 128.132C59.5419 128.268 59.6179 128.44 59.6179 128.648C59.6179 128.864 59.5459 129.048 59.4019 129.2C59.2579 129.344 59.0699 129.416 58.8379 129.416ZM65.0095 130.58C65.5295 130.58 65.9855 130.68 66.3775 130.88C66.7775 131.08 67.0895 131.384 67.3135 131.792C67.5375 132.2 67.6495 132.716 67.6495 133.34V137H66.4975V133.472C66.4975 132.856 66.3455 132.392 66.0415 132.08C65.7455 131.768 65.3255 131.612 64.7815 131.612C64.3735 131.612 64.0175 131.692 63.7135 131.852C63.4095 132.012 63.1735 132.248 63.0055 132.56C62.8455 132.872 62.7655 133.26 62.7655 133.724V137H61.6135V130.64H62.7175V132.356L62.5375 131.9C62.7455 131.484 63.0655 131.16 63.4975 130.928C63.9295 130.696 64.4335 130.58 65.0095 130.58ZM71.0083 137L68.6443 130.64H69.7363L71.8363 136.4H71.3203L73.5043 130.64H74.4763L76.6123 136.4H76.1083L78.2563 130.64H79.2883L76.9123 137H75.8083L73.8043 131.744H74.1403L72.1123 137H71.0083ZM84.206 137V135.656L84.146 135.404V133.112C84.146 132.624 84.002 132.248 83.714 131.984C83.434 131.712 83.01 131.576 82.442 131.576C82.066 131.576 81.698 131.64 81.338 131.768C80.978 131.888 80.674 132.052 80.426 132.26L79.946 131.396C80.274 131.132 80.666 130.932 81.122 130.796C81.586 130.652 82.07 130.58 82.574 130.58C83.446 130.58 84.118 130.792 84.59 131.216C85.062 131.64 85.298 132.288 85.298 133.16V137H84.206ZM82.118 137.072C81.646 137.072 81.23 136.992 80.87 136.832C80.518 136.672 80.246 136.452 80.054 136.172C79.862 135.884 79.766 135.56 79.766 135.2C79.766 134.856 79.846 134.544 80.006 134.264C80.174 133.984 80.442 133.76 80.81 133.592C81.186 133.424 81.69 133.34 82.322 133.34H84.338V134.168H82.37C81.794 134.168 81.406 134.264 81.206 134.456C81.006 134.648 80.906 134.88 80.906 135.152C80.906 135.464 81.03 135.716 81.278 135.908C81.526 136.092 81.87 136.184 82.31 136.184C82.742 136.184 83.118 136.088 83.438 135.896C83.766 135.704 84.002 135.424 84.146 135.056L84.374 135.848C84.222 136.224 83.954 136.524 83.57 136.748C83.186 136.964 82.702 137.072 82.118 137.072ZM87.4299 137V130.64H88.5339V132.368L88.4259 131.936C88.6019 131.496 88.8979 131.16 89.3139 130.928C89.7299 130.696 90.2419 130.58 90.8499 130.58V131.696C90.8019 131.688 90.7539 131.684 90.7059 131.684C90.6659 131.684 90.6259 131.684 90.5859 131.684C89.9699 131.684 89.4819 131.868 89.1219 132.236C88.7619 132.604 88.5819 133.136 88.5819 133.832V137H87.4299ZM94.8391 137.072C94.2231 137.072 93.6711 136.936 93.1831 136.664C92.7031 136.392 92.3231 136.012 92.0431 135.524C91.7631 135.036 91.6231 134.468 91.6231 133.82C91.6231 133.172 91.7631 132.608 92.0431 132.128C92.3231 131.64 92.7031 131.26 93.1831 130.988C93.6711 130.716 94.2231 130.58 94.8391 130.58C95.3751 130.58 95.8591 130.7 96.2911 130.94C96.7231 131.18 97.0671 131.54 97.3231 132.02C97.5871 132.5 97.7191 133.1 97.7191 133.82C97.7191 134.54 97.5911 135.14 97.3351 135.62C97.0871 136.1 96.7471 136.464 96.3151 136.712C95.8831 136.952 95.3911 137.072 94.8391 137.072ZM94.9351 136.064C95.3351 136.064 95.6951 135.972 96.0151 135.788C96.3431 135.604 96.5991 135.344 96.7831 135.008C96.9751 134.664 97.0711 134.268 97.0711 133.82C97.0711 133.364 96.9751 132.972 96.7831 132.644C96.5991 132.308 96.3431 132.048 96.0151 131.864C95.6951 131.68 95.3351 131.588 94.9351 131.588C94.5271 131.588 94.1631 131.68 93.8431 131.864C93.5231 132.048 93.2671 132.308 93.0751 132.644C92.8831 132.972 92.7871 133.364 92.7871 133.82C92.7871 134.268 92.8831 134.664 93.0751 135.008C93.2671 135.344 93.5231 135.604 93.8431 135.788C94.1631 135.972 94.5271 136.064 94.9351 136.064ZM97.1071 137V135.284L97.1791 133.808L97.0591 132.332V128.096H98.2111V137H97.1071ZM105.797 137.072C105.157 137.072 104.661 136.9 104.309 136.556C103.957 136.212 103.781 135.72 103.781 135.08V129.248H104.933V135.032C104.933 135.376 105.017 135.64 105.185 135.824C105.361 136.008 105.609 136.1 105.929 136.1C106.289 136.1 106.589 136 106.829 135.8L107.189 136.628C107.013 136.78 106.801 136.892 106.553 136.964C106.313 137.036 106.061 137.072 105.797 137.072ZM102.701 131.588V130.64H106.757V131.588H102.701ZM111.095 137.072C110.455 137.072 109.887 136.932 109.391 136.652C108.895 136.372 108.503 135.988 108.215 135.5C107.927 135.004 107.783 134.444 107.783 133.82C107.783 133.188 107.927 132.628 108.215 132.14C108.503 131.652 108.895 131.272 109.391 131C109.887 130.72 110.455 130.58 111.095 130.58C111.727 130.58 112.291 130.72 112.787 131C113.291 131.272 113.683 131.652 113.963 132.14C114.251 132.62 114.395 133.18 114.395 133.82C114.395 134.452 114.251 135.012 113.963 135.5C113.683 135.988 113.291 136.372 112.787 136.652C112.291 136.932 111.727 137.072 111.095 137.072ZM111.095 136.064C111.503 136.064 111.867 135.972 112.187 135.788C112.515 135.604 112.771 135.344 112.955 135.008C113.139 134.664 113.231 134.268 113.231 133.82C113.231 133.364 113.139 132.972 112.955 132.644C112.771 132.308 112.515 132.048 112.187 131.864C111.867 131.68 111.503 131.588 111.095 131.588C110.687 131.588 110.323 131.68 110.003 131.864C109.683 132.048 109.427 132.308 109.235 132.644C109.043 132.972 108.947 133.364 108.947 133.82C108.947 134.268 109.043 134.664 109.235 135.008C109.427 135.344 109.683 135.604 110.003 135.788C110.323 135.972 110.687 136.064 111.095 136.064ZM121.839 137.072C121.223 137.072 120.671 136.936 120.183 136.664C119.703 136.392 119.323 136.012 119.043 135.524C118.763 135.036 118.623 134.468 118.623 133.82C118.623 133.172 118.763 132.608 119.043 132.128C119.323 131.64 119.703 131.26 120.183 130.988C120.671 130.716 121.223 130.58 121.839 130.58C122.375 130.58 122.859 130.7 123.291 130.94C123.723 131.18 124.067 131.54 124.323 132.02C124.587 132.5 124.719 133.1 124.719 133.82C124.719 134.54 124.591 135.14 124.335 135.62C124.087 136.1 123.747 136.464 123.315 136.712C122.883 136.952 122.391 137.072 121.839 137.072ZM121.935 136.064C122.335 136.064 122.695 135.972 123.015 135.788C123.343 135.604 123.599 135.344 123.783 135.008C123.975 134.664 124.071 134.268 124.071 133.82C124.071 133.364 123.975 132.972 123.783 132.644C123.599 132.308 123.343 132.048 123.015 131.864C122.695 131.68 122.335 131.588 121.935 131.588C121.527 131.588 121.163 131.68 120.843 131.864C120.523 132.048 120.267 132.308 120.075 132.644C119.883 132.972 119.787 133.364 119.787 133.82C119.787 134.268 119.883 134.664 120.075 135.008C120.267 135.344 120.523 135.604 120.843 135.788C121.163 135.972 121.527 136.064 121.935 136.064ZM124.107 137V135.284L124.179 133.808L124.059 132.332V128.096H125.211V137H124.107ZM130.223 137.072C129.543 137.072 128.943 136.932 128.423 136.652C127.911 136.372 127.511 135.988 127.223 135.5C126.943 135.012 126.803 134.452 126.803 133.82C126.803 133.188 126.939 132.628 127.211 132.14C127.491 131.652 127.871 131.272 128.351 131C128.839 130.72 129.387 130.58 129.995 130.58C130.611 130.58 131.155 130.716 131.627 130.988C132.099 131.26 132.467 131.644 132.731 132.14C133.003 132.628 133.139 133.2 133.139 133.856C133.139 133.904 133.135 133.96 133.127 134.024C133.127 134.088 133.123 134.148 133.115 134.204H127.703V133.376H132.515L132.047 133.664C132.055 133.256 131.971 132.892 131.795 132.572C131.619 132.252 131.375 132.004 131.063 131.828C130.759 131.644 130.403 131.552 129.995 131.552C129.595 131.552 129.239 131.644 128.927 131.828C128.615 132.004 128.371 132.256 128.195 132.584C128.019 132.904 127.931 133.272 127.931 133.688V133.88C127.931 134.304 128.027 134.684 128.219 135.02C128.419 135.348 128.695 135.604 129.047 135.788C129.399 135.972 129.803 136.064 130.259 136.064C130.635 136.064 130.975 136 131.279 135.872C131.591 135.744 131.863 135.552 132.095 135.296L132.731 136.04C132.443 136.376 132.083 136.632 131.651 136.808C131.227 136.984 130.751 137.072 130.223 137.072ZM134.906 137V130.076C134.906 129.452 135.086 128.956 135.446 128.588C135.814 128.212 136.334 128.024 137.006 128.024C137.254 128.024 137.49 128.056 137.714 128.12C137.946 128.176 138.142 128.268 138.302 128.396L137.954 129.272C137.834 129.176 137.698 129.104 137.546 129.056C137.394 129 137.234 128.972 137.066 128.972C136.73 128.972 136.474 129.068 136.298 129.26C136.122 129.444 136.034 129.72 136.034 130.088V130.94L136.058 131.468V137H134.906ZM133.826 131.588V130.64H137.882V131.588H133.826ZM138.974 137V130.64H140.126V137H138.974ZM139.55 129.416C139.326 129.416 139.138 129.344 138.986 129.2C138.842 129.056 138.77 128.88 138.77 128.672C138.77 128.456 138.842 128.276 138.986 128.132C139.138 127.988 139.326 127.916 139.55 127.916C139.774 127.916 139.958 127.988 140.102 128.132C140.254 128.268 140.33 128.44 140.33 128.648C140.33 128.864 140.258 129.048 140.114 129.2C139.97 129.344 139.782 129.416 139.55 129.416ZM145.717 130.58C146.237 130.58 146.693 130.68 147.085 130.88C147.485 131.08 147.797 131.384 148.021 131.792C148.245 132.2 148.357 132.716 148.357 133.34V137H147.205V133.472C147.205 132.856 147.053 132.392 146.749 132.08C146.453 131.768 146.033 131.612 145.489 131.612C145.081 131.612 144.725 131.692 144.421 131.852C144.117 132.012 143.881 132.248 143.713 132.56C143.553 132.872 143.473 133.26 143.473 133.724V137H142.321V130.64H143.425V132.356L143.245 131.9C143.453 131.484 143.773 131.16 144.205 130.928C144.637 130.696 145.141 130.58 145.717 130.58ZM153.32 137.072C152.64 137.072 152.04 136.932 151.52 136.652C151.008 136.372 150.608 135.988 150.32 135.5C150.04 135.012 149.9 134.452 149.9 133.82C149.9 133.188 150.036 132.628 150.308 132.14C150.588 131.652 150.968 131.272 151.448 131C151.936 130.72 152.484 130.58 153.092 130.58C153.708 130.58 154.252 130.716 154.724 130.988C155.196 131.26 155.564 131.644 155.828 132.14C156.1 132.628 156.236 133.2 156.236 133.856C156.236 133.904 156.232 133.96 156.224 134.024C156.224 134.088 156.22 134.148 156.212 134.204H150.8V133.376H155.612L155.144 133.664C155.152 133.256 155.068 132.892 154.892 132.572C154.716 132.252 154.472 132.004 154.16 131.828C153.856 131.644 153.5 131.552 153.092 131.552C152.692 131.552 152.336 131.644 152.024 131.828C151.712 132.004 151.468 132.256 151.292 132.584C151.116 132.904 151.028 133.272 151.028 133.688V133.88C151.028 134.304 151.124 134.684 151.316 135.02C151.516 135.348 151.792 135.604 152.144 135.788C152.496 135.972 152.9 136.064 153.356 136.064C153.732 136.064 154.072 136 154.376 135.872C154.688 135.744 154.96 135.552 155.192 135.296L155.828 136.04C155.54 136.376 155.18 136.632 154.748 136.808C154.324 136.984 153.848 137.072 153.32 137.072ZM43.5944 152.072C42.9544 152.072 42.4584 151.9 42.1064 151.556C41.7544 151.212 41.5784 150.72 41.5784 150.08V144.248H42.7304V150.032C42.7304 150.376 42.8144 150.64 42.9824 150.824C43.1584 151.008 43.4064 151.1 43.7264 151.1C44.0864 151.1 44.3864 151 44.6264 150.8L44.9864 151.628C44.8104 151.78 44.5984 151.892 44.3504 151.964C44.1104 152.036 43.8584 152.072 43.5944 152.072ZM40.4984 146.588V145.64H44.5544V146.588H40.4984ZM49.7751 145.58C50.2951 145.58 50.7511 145.68 51.1431 145.88C51.5431 146.08 51.8551 146.384 52.0791 146.792C52.3031 147.2 52.4151 147.716 52.4151 148.34V152H51.2631V148.472C51.2631 147.856 51.1111 147.392 50.8071 147.08C50.5111 146.768 50.0911 146.612 49.5471 146.612C49.1391 146.612 48.7831 146.692 48.4791 146.852C48.1751 147.012 47.9391 147.248 47.7711 147.56C47.6111 147.872 47.5311 148.26 47.5311 148.724V152H46.3791V143.096H47.5311V147.356L47.3031 146.9C47.5111 146.484 47.8311 146.16 48.2631 145.928C48.6951 145.696 49.1991 145.58 49.7751 145.58ZM57.3791 152.072C56.6991 152.072 56.0991 151.932 55.5791 151.652C55.0671 151.372 54.6671 150.988 54.3791 150.5C54.0991 150.012 53.9591 149.452 53.9591 148.82C53.9591 148.188 54.0951 147.628 54.3671 147.14C54.6471 146.652 55.0271 146.272 55.5071 146C55.9951 145.72 56.5431 145.58 57.1511 145.58C57.7671 145.58 58.3111 145.716 58.7831 145.988C59.2551 146.26 59.6231 146.644 59.8871 147.14C60.1591 147.628 60.2951 148.2 60.2951 148.856C60.2951 148.904 60.2911 148.96 60.2831 149.024C60.2831 149.088 60.2791 149.148 60.2711 149.204H54.8591V148.376H59.6711L59.2031 148.664C59.2111 148.256 59.1271 147.892 58.9511 147.572C58.7751 147.252 58.5311 147.004 58.2191 146.828C57.9151 146.644 57.5591 146.552 57.1511 146.552C56.7511 146.552 56.3951 146.644 56.0831 146.828C55.7711 147.004 55.5271 147.256 55.3511 147.584C55.1751 147.904 55.0871 148.272 55.0871 148.688V148.88C55.0871 149.304 55.1831 149.684 55.3751 150.02C55.5751 150.348 55.8511 150.604 56.2031 150.788C56.5551 150.972 56.9591 151.064 57.4151 151.064C57.7911 151.064 58.1311 151 58.4351 150.872C58.7471 150.744 59.0191 150.552 59.2511 150.296L59.8871 151.04C59.5991 151.376 59.2391 151.632 58.8071 151.808C58.3831 151.984 57.9071 152.072 57.3791 152.072ZM66.9414 152.072C66.4134 152.072 65.9094 152 65.4294 151.856C64.9574 151.712 64.5854 151.536 64.3134 151.328L64.7934 150.416C65.0654 150.6 65.4014 150.756 65.8014 150.884C66.2014 151.012 66.6094 151.076 67.0254 151.076C67.5614 151.076 67.9454 151 68.1774 150.848C68.4174 150.696 68.5374 150.484 68.5374 150.212C68.5374 150.012 68.4654 149.856 68.3214 149.744C68.1774 149.632 67.9854 149.548 67.7454 149.492C67.5134 149.436 67.2534 149.388 66.9654 149.348C66.6774 149.3 66.3894 149.244 66.1014 149.18C65.8134 149.108 65.5494 149.012 65.3094 148.892C65.0694 148.764 64.8774 148.592 64.7334 148.376C64.5894 148.152 64.5174 147.856 64.5174 147.488C64.5174 147.104 64.6254 146.768 64.8414 146.48C65.0574 146.192 65.3614 145.972 65.7534 145.82C66.1534 145.66 66.6254 145.58 67.1694 145.58C67.5854 145.58 68.0054 145.632 68.4294 145.736C68.8614 145.832 69.2134 145.972 69.4854 146.156L68.9934 147.068C68.7054 146.876 68.4054 146.744 68.0934 146.672C67.7814 146.6 67.4694 146.564 67.1574 146.564C66.6534 146.564 66.2774 146.648 66.0294 146.816C65.7814 146.976 65.6574 147.184 65.6574 147.44C65.6574 147.656 65.7294 147.824 65.8734 147.944C66.0254 148.056 66.2174 148.144 66.4494 148.208C66.6894 148.272 66.9534 148.328 67.2414 148.376C67.5294 148.416 67.8174 148.472 68.1054 148.544C68.3934 148.608 68.6534 148.7 68.8854 148.82C69.1254 148.94 69.3174 149.108 69.4614 149.324C69.6134 149.54 69.6894 149.828 69.6894 150.188C69.6894 150.572 69.5774 150.904 69.3534 151.184C69.1294 151.464 68.8134 151.684 68.4054 151.844C67.9974 151.996 67.5094 152.072 66.9414 152.072ZM74.5251 145.58C75.0451 145.58 75.5011 145.68 75.8931 145.88C76.2931 146.08 76.6051 146.384 76.8291 146.792C77.0531 147.2 77.1651 147.716 77.1651 148.34V152H76.0131V148.472C76.0131 147.856 75.8611 147.392 75.5571 147.08C75.2611 146.768 74.8411 146.612 74.2971 146.612C73.8891 146.612 73.5331 146.692 73.2291 146.852C72.9251 147.012 72.6891 147.248 72.5211 147.56C72.3611 147.872 72.2811 148.26 72.2811 148.724V152H71.1291V143.096H72.2811V147.356L72.0531 146.9C72.2611 146.484 72.5811 146.16 73.0131 145.928C73.4451 145.696 73.9491 145.58 74.5251 145.58ZM83.2451 152V150.656L83.1851 150.404V148.112C83.1851 147.624 83.0411 147.248 82.7531 146.984C82.4731 146.712 82.0491 146.576 81.4811 146.576C81.1051 146.576 80.7371 146.64 80.3771 146.768C80.0171 146.888 79.7131 147.052 79.4651 147.26L78.9851 146.396C79.3131 146.132 79.7051 145.932 80.1611 145.796C80.6251 145.652 81.1091 145.58 81.6131 145.58C82.4851 145.58 83.1571 145.792 83.6291 146.216C84.1011 146.64 84.3371 147.288 84.3371 148.16V152H83.2451ZM81.1571 152.072C80.6851 152.072 80.2691 151.992 79.9091 151.832C79.5571 151.672 79.2851 151.452 79.0931 151.172C78.9011 150.884 78.8051 150.56 78.8051 150.2C78.8051 149.856 78.8851 149.544 79.0451 149.264C79.2131 148.984 79.4811 148.76 79.8491 148.592C80.2251 148.424 80.7291 148.34 81.3611 148.34H83.3771V149.168H81.4091C80.8331 149.168 80.4451 149.264 80.2451 149.456C80.0451 149.648 79.9451 149.88 79.9451 150.152C79.9451 150.464 80.0691 150.716 80.3171 150.908C80.5651 151.092 80.9091 151.184 81.3491 151.184C81.7811 151.184 82.1571 151.088 82.4771 150.896C82.8051 150.704 83.0411 150.424 83.1851 150.056L83.4131 150.848C83.2611 151.224 82.9931 151.524 82.6091 151.748C82.2251 151.964 81.7411 152.072 81.1571 152.072ZM89.841 152.072C89.313 152.072 88.829 151.952 88.389 151.712C87.957 151.464 87.609 151.1 87.345 150.62C87.089 150.14 86.961 149.54 86.961 148.82C86.961 148.1 87.085 147.5 87.333 147.02C87.589 146.54 87.933 146.18 88.365 145.94C88.805 145.7 89.297 145.58 89.841 145.58C90.465 145.58 91.017 145.716 91.497 145.988C91.977 146.26 92.357 146.64 92.637 147.128C92.917 147.608 93.057 148.172 93.057 148.82C93.057 149.468 92.917 150.036 92.637 150.524C92.357 151.012 91.977 151.392 91.497 151.664C91.017 151.936 90.465 152.072 89.841 152.072ZM86.469 154.328V145.64H87.573V147.356L87.501 148.832L87.621 150.308V154.328H86.469ZM89.745 151.064C90.153 151.064 90.517 150.972 90.837 150.788C91.165 150.604 91.421 150.344 91.605 150.008C91.797 149.664 91.893 149.268 91.893 148.82C91.893 148.364 91.797 147.972 91.605 147.644C91.421 147.308 91.165 147.048 90.837 146.864C90.517 146.68 90.153 146.588 89.745 146.588C89.345 146.588 88.981 146.68 88.653 146.864C88.333 147.048 88.077 147.308 87.885 147.644C87.701 147.972 87.609 148.364 87.609 148.82C87.609 149.268 87.701 149.664 87.885 150.008C88.077 150.344 88.333 150.604 88.653 150.788C88.981 150.972 89.345 151.064 89.745 151.064ZM97.4806 152.072C96.8006 152.072 96.2006 151.932 95.6806 151.652C95.1686 151.372 94.7686 150.988 94.4806 150.5C94.2006 150.012 94.0606 149.452 94.0606 148.82C94.0606 148.188 94.1966 147.628 94.4686 147.14C94.7486 146.652 95.1286 146.272 95.6086 146C96.0966 145.72 96.6446 145.58 97.2526 145.58C97.8686 145.58 98.4126 145.716 98.8846 145.988C99.3566 146.26 99.7246 146.644 99.9886 147.14C100.261 147.628 100.397 148.2 100.397 148.856C100.397 148.904 100.393 148.96 100.385 149.024C100.385 149.088 100.381 149.148 100.373 149.204H94.9606V148.376H99.7726L99.3046 148.664C99.3126 148.256 99.2286 147.892 99.0526 147.572C98.8766 147.252 98.6326 147.004 98.3206 146.828C98.0166 146.644 97.6606 146.552 97.2526 146.552C96.8526 146.552 96.4966 146.644 96.1846 146.828C95.8726 147.004 95.6286 147.256 95.4526 147.584C95.2766 147.904 95.1886 148.272 95.1886 148.688V148.88C95.1886 149.304 95.2846 149.684 95.4766 150.02C95.6766 150.348 95.9526 150.604 96.3046 150.788C96.6566 150.972 97.0606 151.064 97.5166 151.064C97.8926 151.064 98.2326 151 98.5366 150.872C98.8486 150.744 99.1206 150.552 99.3526 150.296L99.9886 151.04C99.7006 151.376 99.3406 151.632 98.9086 151.808C98.4846 151.984 98.0086 152.072 97.4806 152.072ZM107.943 152.072C107.303 152.072 106.735 151.932 106.239 151.652C105.743 151.372 105.351 150.988 105.063 150.5C104.775 150.004 104.631 149.444 104.631 148.82C104.631 148.188 104.775 147.628 105.063 147.14C105.351 146.652 105.743 146.272 106.239 146C106.735 145.72 107.303 145.58 107.943 145.58C108.575 145.58 109.139 145.72 109.635 146C110.139 146.272 110.531 146.652 110.811 147.14C111.099 147.62 111.243 148.18 111.243 148.82C111.243 149.452 111.099 150.012 110.811 150.5C110.531 150.988 110.139 151.372 109.635 151.652C109.139 151.932 108.575 152.072 107.943 152.072ZM107.943 151.064C108.351 151.064 108.715 150.972 109.035 150.788C109.363 150.604 109.619 150.344 109.803 150.008C109.987 149.664 110.079 149.268 110.079 148.82C110.079 148.364 109.987 147.972 109.803 147.644C109.619 147.308 109.363 147.048 109.035 146.864C108.715 146.68 108.351 146.588 107.943 146.588C107.535 146.588 107.171 146.68 106.851 146.864C106.531 147.048 106.275 147.308 106.083 147.644C105.891 147.972 105.795 148.364 105.795 148.82C105.795 149.268 105.891 149.664 106.083 150.008C106.275 150.344 106.531 150.604 106.851 150.788C107.171 150.972 107.535 151.064 107.943 151.064ZM113.004 152V145.076C113.004 144.452 113.184 143.956 113.544 143.588C113.912 143.212 114.432 143.024 115.104 143.024C115.352 143.024 115.588 143.056 115.812 143.12C116.044 143.176 116.24 143.268 116.4 143.396L116.052 144.272C115.932 144.176 115.796 144.104 115.644 144.056C115.492 144 115.332 143.972 115.164 143.972C114.828 143.972 114.572 144.068 114.396 144.26C114.22 144.444 114.132 144.72 114.132 145.088V145.94L114.156 146.468V152H113.004ZM111.924 146.588V145.64H115.98V146.588H111.924ZM122.473 152.072C121.833 152.072 121.337 151.9 120.985 151.556C120.633 151.212 120.457 150.72 120.457 150.08V144.248H121.609V150.032C121.609 150.376 121.693 150.64 121.861 150.824C122.037 151.008 122.285 151.1 122.605 151.1C122.965 151.1 123.265 151 123.505 150.8L123.865 151.628C123.689 151.78 123.477 151.892 123.229 151.964C122.989 152.036 122.737 152.072 122.473 152.072ZM119.377 146.588V145.64H123.433V146.588H119.377ZM128.654 145.58C129.174 145.58 129.63 145.68 130.022 145.88C130.422 146.08 130.734 146.384 130.958 146.792C131.182 147.2 131.294 147.716 131.294 148.34V152H130.142V148.472C130.142 147.856 129.99 147.392 129.686 147.08C129.39 146.768 128.97 146.612 128.426 146.612C128.018 146.612 127.662 146.692 127.358 146.852C127.054 147.012 126.818 147.248 126.65 147.56C126.49 147.872 126.41 148.26 126.41 148.724V152H125.258V143.096H126.41V147.356L126.182 146.9C126.39 146.484 126.71 146.16 127.142 145.928C127.574 145.696 128.078 145.58 128.654 145.58ZM136.258 152.072C135.578 152.072 134.978 151.932 134.458 151.652C133.946 151.372 133.546 150.988 133.258 150.5C132.978 150.012 132.838 149.452 132.838 148.82C132.838 148.188 132.974 147.628 133.246 147.14C133.526 146.652 133.906 146.272 134.386 146C134.874 145.72 135.422 145.58 136.03 145.58C136.646 145.58 137.19 145.716 137.662 145.988C138.134 146.26 138.502 146.644 138.766 147.14C139.038 147.628 139.174 148.2 139.174 148.856C139.174 148.904 139.17 148.96 139.162 149.024C139.162 149.088 139.158 149.148 139.15 149.204H133.738V148.376H138.55L138.082 148.664C138.09 148.256 138.006 147.892 137.83 147.572C137.654 147.252 137.41 147.004 137.098 146.828C136.794 146.644 136.438 146.552 136.03 146.552C135.63 146.552 135.274 146.644 134.962 146.828C134.65 147.004 134.406 147.256 134.23 147.584C134.054 147.904 133.966 148.272 133.966 148.688V148.88C133.966 149.304 134.062 149.684 134.254 150.02C134.454 150.348 134.73 150.604 135.082 150.788C135.434 150.972 135.838 151.064 136.294 151.064C136.67 151.064 137.01 151 137.314 150.872C137.626 150.744 137.898 150.552 138.13 150.296L138.766 151.04C138.478 151.376 138.118 151.632 137.686 151.808C137.262 151.984 136.786 152.072 136.258 152.072ZM71.842 167V160.076C71.842 159.452 72.022 158.956 72.382 158.588C72.75 158.212 73.27 158.024 73.942 158.024C74.19 158.024 74.426 158.056 74.65 158.12C74.882 158.176 75.078 158.268 75.238 158.396L74.89 159.272C74.77 159.176 74.634 159.104 74.482 159.056C74.33 159 74.17 158.972 74.002 158.972C73.666 158.972 73.41 159.068 73.234 159.26C73.058 159.444 72.97 159.72 72.97 160.088V160.94L72.994 161.468V167H71.842ZM70.762 161.588V160.64H74.818V161.588H70.762ZM75.91 167V160.64H77.062V167H75.91ZM76.486 159.416C76.262 159.416 76.074 159.344 75.922 159.2C75.778 159.056 75.706 158.88 75.706 158.672C75.706 158.456 75.778 158.276 75.922 158.132C76.074 157.988 76.262 157.916 76.486 157.916C76.71 157.916 76.894 157.988 77.038 158.132C77.19 158.268 77.266 158.44 77.266 158.648C77.266 158.864 77.194 159.048 77.05 159.2C76.906 159.344 76.718 159.416 76.486 159.416ZM82.0401 169.4C81.4561 169.4 80.8881 169.316 80.3361 169.148C79.7921 168.988 79.3481 168.756 79.0041 168.452L79.5561 167.564C79.8521 167.82 80.2161 168.02 80.6481 168.164C81.0801 168.316 81.5321 168.392 82.0041 168.392C82.7561 168.392 83.3081 168.216 83.6601 167.864C84.0121 167.512 84.1881 166.976 84.1881 166.256V164.912L84.3081 163.652L84.2481 162.38V160.64H85.3401V166.136C85.3401 167.256 85.0601 168.08 84.5001 168.608C83.9401 169.136 83.1201 169.4 82.0401 169.4ZM81.8961 166.736C81.2801 166.736 80.7281 166.608 80.2401 166.352C79.7601 166.088 79.3761 165.724 79.0881 165.26C78.8081 164.796 78.6681 164.26 78.6681 163.652C78.6681 163.036 78.8081 162.5 79.0881 162.044C79.3761 161.58 79.7601 161.22 80.2401 160.964C80.7281 160.708 81.2801 160.58 81.8961 160.58C82.4401 160.58 82.9361 160.692 83.3841 160.916C83.8321 161.132 84.1881 161.468 84.4521 161.924C84.7241 162.38 84.8601 162.956 84.8601 163.652C84.8601 164.34 84.7241 164.912 84.4521 165.368C84.1881 165.824 83.8321 166.168 83.3841 166.4C82.9361 166.624 82.4401 166.736 81.8961 166.736ZM82.0281 165.728C82.4521 165.728 82.8281 165.64 83.1561 165.464C83.4841 165.288 83.7401 165.044 83.9241 164.732C84.1161 164.42 84.2121 164.06 84.2121 163.652C84.2121 163.244 84.1161 162.884 83.9241 162.572C83.7401 162.26 83.4841 162.02 83.1561 161.852C82.8281 161.676 82.4521 161.588 82.0281 161.588C81.6041 161.588 81.2241 161.676 80.8881 161.852C80.5601 162.02 80.3001 162.26 80.1081 162.572C79.9241 162.884 79.8321 163.244 79.8321 163.652C79.8321 164.06 79.9241 164.42 80.1081 164.732C80.3001 165.044 80.5601 165.288 80.8881 165.464C81.2241 165.64 81.6041 165.728 82.0281 165.728ZM90.2172 167.072C89.6732 167.072 89.1932 166.972 88.7772 166.772C88.3692 166.572 88.0492 166.268 87.8172 165.86C87.5932 165.444 87.4812 164.924 87.4812 164.3V160.64H88.6332V164.168C88.6332 164.792 88.7812 165.26 89.0772 165.572C89.3812 165.884 89.8052 166.04 90.3492 166.04C90.7492 166.04 91.0972 165.96 91.3932 165.8C91.6892 165.632 91.9172 165.392 92.0772 165.08C92.2372 164.76 92.3172 164.376 92.3172 163.928V160.64H93.4692V167H92.3772V165.284L92.5572 165.74C92.3492 166.164 92.0372 166.492 91.6212 166.724C91.2052 166.956 90.7372 167.072 90.2172 167.072ZM95.6623 167V160.64H96.7663V162.368L96.6583 161.936C96.8343 161.496 97.1303 161.16 97.5463 160.928C97.9623 160.696 98.4743 160.58 99.0823 160.58V161.696C99.0343 161.688 98.9863 161.684 98.9383 161.684C98.8983 161.684 98.8583 161.684 98.8183 161.684C98.2023 161.684 97.7143 161.868 97.3543 162.236C96.9943 162.604 96.8143 163.136 96.8143 163.832V167H95.6623ZM103.276 167.072C102.596 167.072 101.996 166.932 101.476 166.652C100.964 166.372 100.564 165.988 100.276 165.5C99.9956 165.012 99.8556 164.452 99.8556 163.82C99.8556 163.188 99.9916 162.628 100.264 162.14C100.544 161.652 100.924 161.272 101.404 161C101.892 160.72 102.44 160.58 103.048 160.58C103.664 160.58 104.208 160.716 104.68 160.988C105.152 161.26 105.52 161.644 105.784 162.14C106.056 162.628 106.192 163.2 106.192 163.856C106.192 163.904 106.188 163.96 106.18 164.024C106.18 164.088 106.176 164.148 106.168 164.204H100.756V163.376H105.568L105.1 163.664C105.108 163.256 105.024 162.892 104.848 162.572C104.672 162.252 104.428 162.004 104.116 161.828C103.812 161.644 103.456 161.552 103.048 161.552C102.648 161.552 102.292 161.644 101.98 161.828C101.668 162.004 101.424 162.256 101.248 162.584C101.072 162.904 100.984 163.272 100.984 163.688V163.88C100.984 164.304 101.08 164.684 101.272 165.02C101.472 165.348 101.748 165.604 102.1 165.788C102.452 165.972 102.856 166.064 103.312 166.064C103.688 166.064 104.028 166 104.332 165.872C104.644 165.744 104.916 165.552 105.148 165.296L105.784 166.04C105.496 166.376 105.136 166.632 104.704 166.808C104.28 166.984 103.804 167.072 103.276 167.072ZM108.067 167.072C107.843 167.072 107.651 166.996 107.491 166.844C107.331 166.684 107.251 166.484 107.251 166.244C107.251 166.004 107.331 165.808 107.491 165.656C107.651 165.504 107.843 165.428 108.067 165.428C108.283 165.428 108.467 165.504 108.619 165.656C108.779 165.808 108.859 166.004 108.859 166.244C108.859 166.484 108.779 166.684 108.619 166.844C108.467 166.996 108.283 167.072 108.067 167.072Z" fill="#008E86"/>
<path d="M51.3134 79.3949L63.147 56.9687L48.8192 45.7556L71.2454 44.5096L78.1003 56.9687L76.2315 85.0015L66.8872 92.4769L51.3134 79.3949Z" fill="#008E86" stroke="#00635D" stroke-width="2" stroke-linejoin="round"/>
<path d="M65.0165 58.2129L70.0001 47.6228L48.1968 45.7539L65.0165 58.2129Z" fill="#00D8CC" stroke="#00635D" stroke-width="2" stroke-linejoin="round"/>
<path d="M55.6742 78.7704L69.9997 47.6229L78.0981 56.9671L76.2316 85L55.6742 78.7704Z" fill="#008E86" stroke="#00635D" stroke-width="2" stroke-linejoin="round"/>
<path d="M50.0653 59.4577L65.0161 38.2773" stroke="#333333" stroke-width="2" stroke-dasharray="4 6"/>
<path d="M73.154 20.5155C73.2593 19.9734 73.7841 19.6192 74.3262 19.7244C74.8684 19.8296 75.2226 20.3544 75.1174 20.8966L73.154 20.5155ZM31.088 39.1171C30.8613 38.6134 31.0858 38.0214 31.5894 37.7947L39.7963 34.1005C40.2999 33.8738 40.8919 34.0983 41.1186 34.602C41.3453 35.1056 41.1208 35.6976 40.6172 35.9243L33.3222 39.208L36.6059 46.503C36.8326 47.0066 36.6081 47.5987 36.1045 47.8254C35.6009 48.0521 35.0088 47.8276 34.7821 47.3239L31.088 39.1171ZM75.1174 20.8966C73.3113 30.2023 67.813 36.9719 60.0196 40.354C52.2506 43.7256 42.3126 43.6865 31.6453 39.6416L32.3544 37.7716C42.6564 41.678 52.04 41.6368 59.2234 38.5193C66.3824 35.4125 71.4673 29.2061 73.154 20.5155L75.1174 20.8966Z" fill="black"/>
<path d="M70.6253 73.1623L134.166 93.7198L75.6089 93.7197L70.6253 73.1623Z" fill="#008E86" stroke="#00635D" stroke-width="2" stroke-linejoin="round"/>
<g clip-path="url(#clip0_14_3405)">
<path d="M90.7825 109.09L118.933 55.7401L98.6791 40.592L101.891 27.3642L138.198 26.1015L154.505 55.7401L150.06 122.427L127.831 140.21L90.7825 109.09Z" fill="#008E86" stroke="#00635D" stroke-width="1.60526" stroke-linejoin="round"/>
<path d="M118.934 55.738L98.6793 40.5899L101.891 27.3621L132.126 29.4455L118.934 55.738Z" fill="#00D8CC" stroke="#00635D" stroke-width="1.60526" stroke-linejoin="round"/>
<path d="M118.933 55.7393L103.231 43.4928L109.652 31.4533L132.125 29.4468L118.933 55.7393Z" fill="#008E86" stroke="#00635D" stroke-width="1.60526" stroke-linejoin="round"/>
<path d="M123.379 58.7044L135.235 33.5116L109.301 31.2887L103.373 43.8851L123.379 58.7044Z" fill="#00D8CC" stroke="#00635D" stroke-width="1.60526" stroke-linejoin="round"/>
<path d="M101.156 107.607L135.235 33.5101L154.5 55.7391L150.06 122.426L101.156 107.607Z" fill="#008E86" stroke="#00635D" stroke-width="1.60526" stroke-linejoin="round"/>
</g>
<rect x="94.6123" y="15.6118" width="58.7763" height="58.7763" rx="29.3882" stroke="#333333" stroke-width="1.22369"/>
<path d="M55.6741 78.7697L70.6251 73.163L94.297 97.4583L66.8873 92.4747L55.6741 78.7697Z" fill="#008E86" stroke="#00635D" stroke-width="2" stroke-linejoin="round"/>
<defs>
<clipPath id="clip0_14_3405">
<rect x="94.0005" y="15" width="60" height="60" rx="30" fill="white"/>
</clipPath>
</defs>
</svg>
