<svg width="380" height="380" viewBox="0 0 380 380" fill="none" xmlns="http://www.w3.org/2000/svg">
<g clip-path="url(#clip0_14_3202)">
<rect width="380" height="380" rx="20" fill="#F2F2F2"/>
<path d="M177.633 46.192C176.737 46.192 175.878 46.0747 175.057 45.84C174.236 45.5947 173.574 45.28 173.073 44.896L173.953 42.944C174.433 43.2853 174.998 43.568 175.649 43.792C176.31 44.0053 176.977 44.112 177.649 44.112C178.161 44.112 178.572 44.064 178.881 43.968C179.201 43.8613 179.436 43.7173 179.585 43.536C179.734 43.3547 179.809 43.1467 179.809 42.912C179.809 42.6133 179.692 42.3787 179.457 42.208C179.222 42.0267 178.913 41.8827 178.529 41.776C178.145 41.6587 177.718 41.552 177.249 41.456C176.79 41.3493 176.326 41.2213 175.857 41.072C175.398 40.9227 174.977 40.7307 174.593 40.496C174.209 40.2613 173.894 39.952 173.649 39.568C173.414 39.184 173.297 38.6933 173.297 38.096C173.297 37.456 173.468 36.8747 173.809 36.352C174.161 35.8187 174.684 35.3973 175.377 35.088C176.081 34.768 176.961 34.608 178.017 34.608C178.721 34.608 179.414 34.6933 180.097 34.864C180.78 35.024 181.382 35.2693 181.905 35.6L181.105 37.568C180.582 37.2693 180.06 37.0507 179.537 36.912C179.014 36.7627 178.502 36.688 178.001 36.688C177.5 36.688 177.089 36.7467 176.769 36.864C176.449 36.9813 176.22 37.136 176.081 37.328C175.942 37.5093 175.873 37.7227 175.873 37.968C175.873 38.256 175.99 38.4907 176.225 38.672C176.46 38.8427 176.769 38.9813 177.153 39.088C177.537 39.1947 177.958 39.3013 178.417 39.408C178.886 39.5147 179.35 39.6373 179.809 39.776C180.278 39.9147 180.705 40.1013 181.089 40.336C181.473 40.5707 181.782 40.88 182.017 41.264C182.262 41.648 182.385 42.1333 182.385 42.72C182.385 43.3493 182.209 43.9253 181.857 44.448C181.505 44.9707 180.977 45.392 180.273 45.712C179.58 46.032 178.7 46.192 177.633 46.192ZM188.252 46.128C187.271 46.128 186.407 45.936 185.66 45.552C184.924 45.168 184.353 44.6453 183.948 43.984C183.543 43.312 183.34 42.5493 183.34 41.696C183.34 40.832 183.537 40.0693 183.932 39.408C184.337 38.736 184.887 38.2133 185.58 37.84C186.273 37.456 187.057 37.264 187.932 37.264C188.775 37.264 189.532 37.4453 190.204 37.808C190.887 38.16 191.425 38.672 191.82 39.344C192.215 40.0053 192.412 40.8 192.412 41.728C192.412 41.824 192.407 41.936 192.396 42.064C192.385 42.1813 192.375 42.2933 192.364 42.4H185.372V40.944H191.052L190.092 41.376C190.092 40.928 190.001 40.5387 189.82 40.208C189.639 39.8773 189.388 39.6213 189.068 39.44C188.748 39.248 188.375 39.152 187.948 39.152C187.521 39.152 187.143 39.248 186.812 39.44C186.492 39.6213 186.241 39.8827 186.06 40.224C185.879 40.5547 185.788 40.9493 185.788 41.408V41.792C185.788 42.2613 185.889 42.6773 186.092 43.04C186.305 43.392 186.599 43.664 186.972 43.856C187.356 44.0373 187.804 44.128 188.316 44.128C188.775 44.128 189.175 44.0587 189.516 43.92C189.868 43.7813 190.188 43.5733 190.476 43.296L191.804 44.736C191.409 45.184 190.913 45.5307 190.316 45.776C189.719 46.0107 189.031 46.128 188.252 46.128ZM199.12 46V44.32L198.96 43.952V40.944C198.96 40.4107 198.794 39.9947 198.464 39.696C198.144 39.3973 197.648 39.248 196.976 39.248C196.517 39.248 196.064 39.3227 195.616 39.472C195.178 39.6107 194.805 39.8027 194.496 40.048L193.6 38.304C194.069 37.9733 194.634 37.7173 195.296 37.536C195.957 37.3547 196.629 37.264 197.312 37.264C198.624 37.264 199.642 37.5733 200.368 38.192C201.093 38.8107 201.456 39.776 201.456 41.088V46H199.12ZM196.496 46.128C195.824 46.128 195.248 46.016 194.768 45.792C194.288 45.5573 193.92 45.2427 193.664 44.848C193.408 44.4533 193.28 44.0107 193.28 43.52C193.28 43.008 193.402 42.56 193.648 42.176C193.904 41.792 194.304 41.4933 194.848 41.28C195.392 41.056 196.101 40.944 196.976 40.944H199.264V42.4H197.248C196.661 42.4 196.256 42.496 196.032 42.688C195.818 42.88 195.712 43.12 195.712 43.408C195.712 43.728 195.834 43.984 196.08 44.176C196.336 44.3573 196.682 44.448 197.12 44.448C197.536 44.448 197.909 44.352 198.24 44.16C198.57 43.9573 198.81 43.664 198.96 43.28L199.344 44.432C199.162 44.9867 198.832 45.408 198.352 45.696C197.872 45.984 197.253 46.128 196.496 46.128ZM203.715 46V34.128H206.211V46H203.715Z" fill="#00635D"/>
<path d="M9.56281 336V324.8H14.2828C15.4775 324.8 16.5281 325.035 17.4348 325.504C18.3521 325.973 19.0615 326.629 19.5628 327.472C20.0748 328.315 20.3308 329.291 20.3308 330.4C20.3308 331.509 20.0748 332.485 19.5628 333.328C19.0615 334.171 18.3521 334.827 17.4348 335.296C16.5281 335.765 15.4775 336 14.2828 336H9.56281ZM11.1628 334.608H14.1868C15.1148 334.608 15.9148 334.432 16.5868 334.08C17.2695 333.728 17.7975 333.237 18.1708 332.608C18.5441 331.968 18.7308 331.232 18.7308 330.4C18.7308 329.557 18.5441 328.821 18.1708 328.192C17.7975 327.563 17.2695 327.072 16.5868 326.72C15.9148 326.368 15.1148 326.192 14.1868 326.192H11.1628V334.608ZM22.5576 336V327.52H24.0296V329.824L23.8856 329.248C24.1202 328.661 24.5149 328.213 25.0696 327.904C25.6242 327.595 26.3069 327.44 27.1176 327.44V328.928C27.0536 328.917 26.9896 328.912 26.9256 328.912C26.8722 328.912 26.8189 328.912 26.7656 328.912C25.9442 328.912 25.2936 329.157 24.8136 329.648C24.3336 330.139 24.0936 330.848 24.0936 331.776V336H22.5576ZM33.6497 336V334.208L33.5697 333.872V330.816C33.5697 330.165 33.3777 329.664 32.9937 329.312C32.6204 328.949 32.055 328.768 31.2977 328.768C30.7964 328.768 30.3057 328.853 29.8257 329.024C29.3457 329.184 28.9404 329.403 28.6097 329.68L27.9697 328.528C28.407 328.176 28.9297 327.909 29.5377 327.728C30.1564 327.536 30.8017 327.44 31.4737 327.44C32.6364 327.44 33.5324 327.723 34.1617 328.288C34.791 328.853 35.1057 329.717 35.1057 330.88V336H33.6497ZM30.8657 336.096C30.2364 336.096 29.6817 335.989 29.2017 335.776C28.7324 335.563 28.3697 335.269 28.1137 334.896C27.8577 334.512 27.7297 334.08 27.7297 333.6C27.7297 333.141 27.8364 332.725 28.0497 332.352C28.2737 331.979 28.631 331.68 29.1217 331.456C29.623 331.232 30.295 331.12 31.1377 331.12H33.8257V332.224H31.2017C30.4337 332.224 29.9164 332.352 29.6497 332.608C29.383 332.864 29.2497 333.173 29.2497 333.536C29.2497 333.952 29.415 334.288 29.7457 334.544C30.0764 334.789 30.535 334.912 31.1217 334.912C31.6977 334.912 32.199 334.784 32.6257 334.528C33.063 334.272 33.3777 333.899 33.5697 333.408L33.8737 334.464C33.671 334.965 33.3137 335.365 32.8017 335.664C32.2897 335.952 31.6444 336.096 30.8657 336.096ZM39.5839 336L36.4319 327.52H37.8879L40.6879 335.2H39.9999L42.9119 327.52H44.2079L47.0559 335.2H46.3839L49.2479 327.52H50.6239L47.4559 336H45.9839L43.3119 328.992H43.7599L41.0559 336H39.5839ZM59.3914 336.096C58.5381 336.096 57.8768 335.867 57.4074 335.408C56.9381 334.949 56.7034 334.293 56.7034 333.44V325.664H58.2394V333.376C58.2394 333.835 58.3514 334.187 58.5754 334.432C58.8101 334.677 59.1408 334.8 59.5674 334.8C60.0474 334.8 60.4474 334.667 60.7674 334.4L61.2474 335.504C61.0128 335.707 60.7301 335.856 60.3994 335.952C60.0794 336.048 59.7434 336.096 59.3914 336.096ZM55.2634 328.784V327.52H60.6714V328.784H55.2634ZM67.6324 327.44C68.3258 327.44 68.9338 327.573 69.4564 327.84C69.9898 328.107 70.4058 328.512 70.7044 329.056C71.0031 329.6 71.1524 330.288 71.1524 331.12V336H69.6164V331.296C69.6164 330.475 69.4138 329.856 69.0084 329.44C68.6138 329.024 68.0538 328.816 67.3284 328.816C66.7844 328.816 66.3098 328.923 65.9044 329.136C65.4991 329.349 65.1844 329.664 64.9604 330.08C64.7471 330.496 64.6404 331.013 64.6404 331.632V336H63.1044V324.128H64.6404V329.808L64.3364 329.2C64.6138 328.645 65.0404 328.213 65.6164 327.904C66.1924 327.595 66.8644 327.44 67.6324 327.44ZM77.7711 336.096C76.8644 336.096 76.0644 335.909 75.3711 335.536C74.6884 335.163 74.1551 334.651 73.7711 334C73.3977 333.349 73.2111 332.603 73.2111 331.76C73.2111 330.917 73.3924 330.171 73.7551 329.52C74.1284 328.869 74.6351 328.363 75.2751 328C75.9257 327.627 76.6564 327.44 77.4671 327.44C78.2884 327.44 79.0137 327.621 79.6431 327.984C80.2724 328.347 80.7631 328.859 81.1151 329.52C81.4777 330.171 81.6591 330.933 81.6591 331.808C81.6591 331.872 81.6537 331.947 81.6431 332.032C81.6431 332.117 81.6377 332.197 81.6271 332.272H74.4111V331.168H80.8271L80.2031 331.552C80.2137 331.008 80.1017 330.523 79.8671 330.096C79.6324 329.669 79.3071 329.339 78.8911 329.104C78.4857 328.859 78.0111 328.736 77.4671 328.736C76.9337 328.736 76.4591 328.859 76.0431 329.104C75.6271 329.339 75.3017 329.675 75.0671 330.112C74.8324 330.539 74.7151 331.029 74.7151 331.584V331.84C74.7151 332.405 74.8431 332.912 75.0991 333.36C75.3657 333.797 75.7337 334.139 76.2031 334.384C76.6724 334.629 77.2111 334.752 77.8191 334.752C78.3204 334.752 78.7737 334.667 79.1791 334.496C79.5951 334.325 79.9577 334.069 80.2671 333.728L81.1151 334.72C80.7311 335.168 80.2511 335.509 79.6751 335.744C79.1097 335.979 78.4751 336.096 77.7711 336.096ZM91.5928 336.096C90.7715 336.096 90.0355 335.915 89.3848 335.552C88.7448 335.189 88.2381 334.683 87.8648 334.032C87.4915 333.381 87.3048 332.624 87.3048 331.76C87.3048 330.896 87.4915 330.144 87.8648 329.504C88.2381 328.853 88.7448 328.347 89.3848 327.984C90.0355 327.621 90.7715 327.44 91.5928 327.44C92.3075 327.44 92.9528 327.6 93.5288 327.92C94.1048 328.24 94.5635 328.72 94.9048 329.36C95.2568 330 95.4328 330.8 95.4328 331.76C95.4328 332.72 95.2621 333.52 94.9208 334.16C94.5901 334.8 94.1368 335.285 93.5608 335.616C92.9848 335.936 92.3288 336.096 91.5928 336.096ZM91.7208 334.752C92.2541 334.752 92.7341 334.629 93.1608 334.384C93.5981 334.139 93.9395 333.792 94.1848 333.344C94.4408 332.885 94.5688 332.357 94.5688 331.76C94.5688 331.152 94.4408 330.629 94.1848 330.192C93.9395 329.744 93.5981 329.397 93.1608 329.152C92.7341 328.907 92.2541 328.784 91.7208 328.784C91.1768 328.784 90.6915 328.907 90.2648 329.152C89.8381 329.397 89.4968 329.744 89.2408 330.192C88.9848 330.629 88.8568 331.152 88.8568 331.76C88.8568 332.357 88.9848 332.885 89.2408 333.344C89.4968 333.792 89.8381 334.139 90.2648 334.384C90.6915 334.629 91.1768 334.752 91.7208 334.752ZM94.6168 336V333.712L94.7128 331.744L94.5528 329.776V324.128H96.0888V336H94.6168ZM102.771 336.096C101.864 336.096 101.064 335.909 100.371 335.536C99.6884 335.163 99.1551 334.651 98.7711 334C98.3977 333.349 98.2111 332.603 98.2111 331.76C98.2111 330.917 98.3924 330.171 98.7551 329.52C99.1284 328.869 99.6351 328.363 100.275 328C100.926 327.627 101.656 327.44 102.467 327.44C103.288 327.44 104.014 327.621 104.643 327.984C105.272 328.347 105.763 328.859 106.115 329.52C106.478 330.171 106.659 330.933 106.659 331.808C106.659 331.872 106.654 331.947 106.643 332.032C106.643 332.117 106.638 332.197 106.627 332.272H99.4111V331.168H105.827L105.203 331.552C105.214 331.008 105.102 330.523 104.867 330.096C104.632 329.669 104.307 329.339 103.891 329.104C103.486 328.859 103.011 328.736 102.467 328.736C101.934 328.736 101.459 328.859 101.043 329.104C100.627 329.339 100.302 329.675 100.067 330.112C99.8324 330.539 99.7151 331.029 99.7151 331.584V331.84C99.7151 332.405 99.8431 332.912 100.099 333.36C100.366 333.797 100.734 334.139 101.203 334.384C101.672 334.629 102.211 334.752 102.819 334.752C103.32 334.752 103.774 334.667 104.179 334.496C104.595 334.325 104.958 334.069 105.267 333.728L106.115 334.72C105.731 335.168 105.251 335.509 104.675 335.744C104.11 335.979 103.475 336.096 102.771 336.096ZM111.704 336.096C110.851 336.096 110.189 335.867 109.72 335.408C109.251 334.949 109.016 334.293 109.016 333.44V325.664H110.552V333.376C110.552 333.835 110.664 334.187 110.888 334.432C111.123 334.677 111.453 334.8 111.88 334.8C112.36 334.8 112.76 334.667 113.08 334.4L113.56 335.504C113.325 335.707 113.043 335.856 112.712 335.952C112.392 336.048 112.056 336.096 111.704 336.096ZM107.576 328.784V327.52H112.984V328.784H107.576ZM120.681 336V334.208L120.601 333.872V330.816C120.601 330.165 120.409 329.664 120.025 329.312C119.652 328.949 119.086 328.768 118.329 328.768C117.828 328.768 117.337 328.853 116.857 329.024C116.377 329.184 115.972 329.403 115.641 329.68L115.001 328.528C115.438 328.176 115.961 327.909 116.569 327.728C117.188 327.536 117.833 327.44 118.505 327.44C119.668 327.44 120.564 327.723 121.193 328.288C121.822 328.853 122.137 329.717 122.137 330.88V336H120.681ZM117.897 336.096C117.268 336.096 116.713 335.989 116.233 335.776C115.764 335.563 115.401 335.269 115.145 334.896C114.889 334.512 114.761 334.08 114.761 333.6C114.761 333.141 114.868 332.725 115.081 332.352C115.305 331.979 115.662 331.68 116.153 331.456C116.654 331.232 117.326 331.12 118.169 331.12H120.857V332.224H118.233C117.465 332.224 116.948 332.352 116.681 332.608C116.414 332.864 116.281 333.173 116.281 333.536C116.281 333.952 116.446 334.288 116.777 334.544C117.108 334.789 117.566 334.912 118.153 334.912C118.729 334.912 119.23 334.784 119.657 334.528C120.094 334.272 120.409 333.899 120.601 333.408L120.905 334.464C120.702 334.965 120.345 335.365 119.833 335.664C119.321 335.952 118.676 336.096 117.897 336.096ZM124.979 336V327.52H126.515V336H124.979ZM125.747 325.888C125.449 325.888 125.198 325.792 124.995 325.6C124.803 325.408 124.707 325.173 124.707 324.896C124.707 324.608 124.803 324.368 124.995 324.176C125.198 323.984 125.449 323.888 125.747 323.888C126.046 323.888 126.291 323.984 126.483 324.176C126.686 324.357 126.787 324.587 126.787 324.864C126.787 325.152 126.691 325.397 126.499 325.6C126.307 325.792 126.057 325.888 125.747 325.888ZM129.448 336V324.128H130.984V336H129.448ZM136.349 336.096C135.645 336.096 134.973 336 134.333 335.808C133.704 335.616 133.208 335.381 132.845 335.104L133.485 333.888C133.848 334.133 134.296 334.341 134.829 334.512C135.362 334.683 135.906 334.768 136.461 334.768C137.176 334.768 137.688 334.667 137.997 334.464C138.317 334.261 138.477 333.979 138.477 333.616C138.477 333.349 138.381 333.141 138.189 332.992C137.997 332.843 137.741 332.731 137.421 332.656C137.112 332.581 136.765 332.517 136.381 332.464C135.997 332.4 135.613 332.325 135.229 332.24C134.845 332.144 134.493 332.016 134.173 331.856C133.853 331.685 133.597 331.456 133.405 331.168C133.213 330.869 133.117 330.475 133.117 329.984C133.117 329.472 133.261 329.024 133.549 328.64C133.837 328.256 134.242 327.963 134.765 327.76C135.298 327.547 135.928 327.44 136.653 327.44C137.208 327.44 137.768 327.509 138.333 327.648C138.909 327.776 139.378 327.963 139.741 328.208L139.085 329.424C138.701 329.168 138.301 328.992 137.885 328.896C137.469 328.8 137.053 328.752 136.637 328.752C135.965 328.752 135.464 328.864 135.133 329.088C134.802 329.301 134.637 329.579 134.637 329.92C134.637 330.208 134.733 330.432 134.925 330.592C135.128 330.741 135.384 330.859 135.693 330.944C136.013 331.029 136.365 331.104 136.749 331.168C137.133 331.221 137.517 331.296 137.901 331.392C138.285 331.477 138.632 331.6 138.941 331.76C139.261 331.92 139.517 332.144 139.709 332.432C139.912 332.72 140.013 333.104 140.013 333.584C140.013 334.096 139.864 334.539 139.565 334.912C139.266 335.285 138.845 335.579 138.301 335.792C137.757 335.995 137.106 336.096 136.349 336.096ZM146.597 339.2C146.192 339.2 145.797 339.131 145.413 338.992C145.029 338.864 144.699 338.672 144.421 338.416L145.077 337.264C145.291 337.467 145.525 337.621 145.781 337.728C146.037 337.835 146.309 337.888 146.597 337.888C146.971 337.888 147.28 337.792 147.525 337.6C147.771 337.408 148 337.067 148.213 336.576L148.741 335.408L148.901 335.216L152.229 327.52H153.733L149.621 336.848C149.376 337.445 149.099 337.915 148.789 338.256C148.491 338.597 148.16 338.837 147.797 338.976C147.435 339.125 147.035 339.2 146.597 339.2ZM148.613 336.272L144.741 327.52H146.341L149.637 335.072L148.613 336.272ZM158.565 336.096C157.711 336.096 156.954 335.909 156.293 335.536C155.631 335.163 155.109 334.651 154.725 334C154.341 333.339 154.149 332.592 154.149 331.76C154.149 330.917 154.341 330.171 154.725 329.52C155.109 328.869 155.631 328.363 156.293 328C156.954 327.627 157.711 327.44 158.565 327.44C159.407 327.44 160.159 327.627 160.821 328C161.493 328.363 162.015 328.869 162.389 329.52C162.773 330.16 162.965 330.907 162.965 331.76C162.965 332.603 162.773 333.349 162.389 334C162.015 334.651 161.493 335.163 160.821 335.536C160.159 335.909 159.407 336.096 158.565 336.096ZM158.565 334.752C159.109 334.752 159.594 334.629 160.021 334.384C160.458 334.139 160.799 333.792 161.045 333.344C161.29 332.885 161.413 332.357 161.413 331.76C161.413 331.152 161.29 330.629 161.045 330.192C160.799 329.744 160.458 329.397 160.021 329.152C159.594 328.907 159.109 328.784 158.565 328.784C158.021 328.784 157.535 328.907 157.109 329.152C156.682 329.397 156.341 329.744 156.085 330.192C155.829 330.629 155.701 331.152 155.701 331.76C155.701 332.357 155.829 332.885 156.085 333.344C156.341 333.792 156.682 334.139 157.109 334.384C157.535 334.629 158.021 334.752 158.565 334.752ZM168.657 336.096C167.931 336.096 167.291 335.963 166.737 335.696C166.193 335.429 165.766 335.024 165.457 334.48C165.158 333.925 165.009 333.232 165.009 332.4V327.52H166.545V332.224C166.545 333.056 166.742 333.68 167.137 334.096C167.542 334.512 168.107 334.72 168.833 334.72C169.366 334.72 169.83 334.613 170.225 334.4C170.619 334.176 170.923 333.856 171.137 333.44C171.35 333.013 171.457 332.501 171.457 331.904V327.52H172.993V336H171.537V333.712L171.777 334.32C171.499 334.885 171.083 335.323 170.529 335.632C169.974 335.941 169.35 336.096 168.657 336.096ZM182.006 336L178.854 327.52H180.31L183.11 335.2H182.422L185.334 327.52H186.63L189.478 335.2H188.806L191.67 327.52H193.046L189.878 336H188.406L185.734 328.992H186.182L183.478 336H182.006ZM199.603 336V334.208L199.523 333.872V330.816C199.523 330.165 199.331 329.664 198.947 329.312C198.573 328.949 198.008 328.768 197.251 328.768C196.749 328.768 196.259 328.853 195.779 329.024C195.299 329.184 194.893 329.403 194.563 329.68L193.923 328.528C194.36 328.176 194.883 327.909 195.491 327.728C196.109 327.536 196.755 327.44 197.427 327.44C198.589 327.44 199.485 327.723 200.115 328.288C200.744 328.853 201.059 329.717 201.059 330.88V336H199.603ZM196.819 336.096C196.189 336.096 195.635 335.989 195.155 335.776C194.685 335.563 194.323 335.269 194.067 334.896C193.811 334.512 193.683 334.08 193.683 333.6C193.683 333.141 193.789 332.725 194.003 332.352C194.227 331.979 194.584 331.68 195.075 331.456C195.576 331.232 196.248 331.12 197.091 331.12H199.779V332.224H197.155C196.387 332.224 195.869 332.352 195.603 332.608C195.336 332.864 195.203 333.173 195.203 333.536C195.203 333.952 195.368 334.288 195.699 334.544C196.029 334.789 196.488 334.912 197.075 334.912C197.651 334.912 198.152 334.784 198.579 334.528C199.016 334.272 199.331 333.899 199.523 333.408L199.827 334.464C199.624 334.965 199.267 335.365 198.755 335.664C198.243 335.952 197.597 336.096 196.819 336.096ZM208.429 327.44C209.123 327.44 209.731 327.573 210.253 327.84C210.787 328.107 211.203 328.512 211.501 329.056C211.8 329.6 211.949 330.288 211.949 331.12V336H210.413V331.296C210.413 330.475 210.211 329.856 209.805 329.44C209.411 329.024 208.851 328.816 208.125 328.816C207.581 328.816 207.107 328.923 206.701 329.136C206.296 329.349 205.981 329.664 205.757 330.08C205.544 330.496 205.437 331.013 205.437 331.632V336H203.901V327.52H205.373V329.808L205.133 329.2C205.411 328.645 205.837 328.213 206.413 327.904C206.989 327.595 207.661 327.44 208.429 327.44ZM217.704 336.096C216.851 336.096 216.189 335.867 215.72 335.408C215.251 334.949 215.016 334.293 215.016 333.44V325.664H216.552V333.376C216.552 333.835 216.664 334.187 216.888 334.432C217.123 334.677 217.453 334.8 217.88 334.8C218.36 334.8 218.76 334.667 219.08 334.4L219.56 335.504C219.325 335.707 219.043 335.856 218.712 335.952C218.392 336.048 218.056 336.096 217.704 336.096ZM213.576 328.784V327.52H218.984V328.784H213.576ZM227.506 336L224.354 327.52H225.81L228.61 335.2H227.922L230.834 327.52H232.13L234.978 335.2H234.306L237.17 327.52H238.546L235.378 336H233.906L231.234 328.992H231.682L228.978 336H227.506ZM240.104 336V327.52H241.64V336H240.104ZM240.872 325.888C240.574 325.888 240.323 325.792 240.12 325.6C239.928 325.408 239.832 325.173 239.832 324.896C239.832 324.608 239.928 324.368 240.12 324.176C240.323 323.984 240.574 323.888 240.872 323.888C241.171 323.888 241.416 323.984 241.608 324.176C241.811 324.357 241.912 324.587 241.912 324.864C241.912 325.152 241.816 325.397 241.624 325.6C241.432 325.792 241.182 325.888 240.872 325.888ZM247.485 336.096C246.632 336.096 245.971 335.867 245.501 335.408C245.032 334.949 244.797 334.293 244.797 333.44V325.664H246.333V333.376C246.333 333.835 246.445 334.187 246.669 334.432C246.904 334.677 247.235 334.8 247.661 334.8C248.141 334.8 248.541 334.667 248.861 334.4L249.341 335.504C249.107 335.707 248.824 335.856 248.493 335.952C248.173 336.048 247.837 336.096 247.485 336.096ZM243.357 328.784V327.52H248.765V328.784H243.357ZM255.726 327.44C256.42 327.44 257.028 327.573 257.55 327.84C258.084 328.107 258.5 328.512 258.798 329.056C259.097 329.6 259.246 330.288 259.246 331.12V336H257.71V331.296C257.71 330.475 257.508 329.856 257.102 329.44C256.708 329.024 256.148 328.816 255.422 328.816C254.878 328.816 254.404 328.923 253.998 329.136C253.593 329.349 253.278 329.664 253.054 330.08C252.841 330.496 252.734 331.013 252.734 331.632V336H251.198V324.128H252.734V329.808L252.43 329.2C252.708 328.645 253.134 328.213 253.71 327.904C254.286 327.595 254.958 327.44 255.726 327.44ZM269.298 336.096C268.444 336.096 267.783 335.867 267.314 335.408C266.844 334.949 266.61 334.293 266.61 333.44V325.664H268.146V333.376C268.146 333.835 268.258 334.187 268.482 334.432C268.716 334.677 269.047 334.8 269.474 334.8C269.954 334.8 270.354 334.667 270.674 334.4L271.154 335.504C270.919 335.707 270.636 335.856 270.306 335.952C269.986 336.048 269.65 336.096 269.298 336.096ZM265.17 328.784V327.52H270.578V328.784H265.17ZM277.539 327.44C278.232 327.44 278.84 327.573 279.363 327.84C279.896 328.107 280.312 328.512 280.611 329.056C280.909 329.6 281.059 330.288 281.059 331.12V336H279.523V331.296C279.523 330.475 279.32 329.856 278.915 329.44C278.52 329.024 277.96 328.816 277.235 328.816C276.691 328.816 276.216 328.923 275.811 329.136C275.405 329.349 275.091 329.664 274.867 330.08C274.653 330.496 274.547 331.013 274.547 331.632V336H273.011V324.128H274.547V329.808L274.243 329.2C274.52 328.645 274.947 328.213 275.523 327.904C276.099 327.595 276.771 327.44 277.539 327.44ZM287.677 336.096C286.771 336.096 285.971 335.909 285.277 335.536C284.595 335.163 284.061 334.651 283.677 334C283.304 333.349 283.117 332.603 283.117 331.76C283.117 330.917 283.299 330.171 283.661 329.52C284.035 328.869 284.541 328.363 285.181 328C285.832 327.627 286.563 327.44 287.373 327.44C288.195 327.44 288.92 327.621 289.549 327.984C290.179 328.347 290.669 328.859 291.021 329.52C291.384 330.171 291.565 330.933 291.565 331.808C291.565 331.872 291.56 331.947 291.549 332.032C291.549 332.117 291.544 332.197 291.533 332.272H284.317V331.168H290.733L290.109 331.552C290.12 331.008 290.008 330.523 289.773 330.096C289.539 329.669 289.213 329.339 288.797 329.104C288.392 328.859 287.917 328.736 287.373 328.736C286.84 328.736 286.365 328.859 285.949 329.104C285.533 329.339 285.208 329.675 284.973 330.112C284.739 330.539 284.621 331.029 284.621 331.584V331.84C284.621 332.405 284.749 332.912 285.005 333.36C285.272 333.797 285.64 334.139 286.109 334.384C286.579 334.629 287.117 334.752 287.725 334.752C288.227 334.752 288.68 334.667 289.085 334.496C289.501 334.325 289.864 334.069 290.173 333.728L291.021 334.72C290.637 335.168 290.157 335.509 289.581 335.744C289.016 335.979 288.381 336.096 287.677 336.096ZM308.603 327.44C309.286 327.44 309.888 327.573 310.411 327.84C310.934 328.107 311.339 328.512 311.627 329.056C311.926 329.6 312.075 330.288 312.075 331.12V336H310.539V331.296C310.539 330.475 310.347 329.856 309.963 329.44C309.579 329.024 309.04 328.816 308.347 328.816C307.835 328.816 307.387 328.923 307.003 329.136C306.619 329.349 306.32 329.664 306.107 330.08C305.904 330.496 305.803 331.013 305.803 331.632V336H304.267V331.296C304.267 330.475 304.075 329.856 303.691 329.44C303.318 329.024 302.779 328.816 302.075 328.816C301.574 328.816 301.131 328.923 300.747 329.136C300.363 329.349 300.064 329.664 299.851 330.08C299.638 330.496 299.531 331.013 299.531 331.632V336H297.995V327.52H299.467V329.776L299.227 329.2C299.494 328.645 299.904 328.213 300.459 327.904C301.014 327.595 301.659 327.44 302.395 327.44C303.206 327.44 303.904 327.643 304.491 328.048C305.078 328.443 305.462 329.045 305.643 329.856L305.019 329.6C305.275 328.949 305.723 328.427 306.363 328.032C307.003 327.637 307.75 327.44 308.603 327.44ZM320.165 336V334.208L320.085 333.872V330.816C320.085 330.165 319.893 329.664 319.509 329.312C319.136 328.949 318.571 328.768 317.813 328.768C317.312 328.768 316.821 328.853 316.341 329.024C315.861 329.184 315.456 329.403 315.125 329.68L314.485 328.528C314.923 328.176 315.445 327.909 316.053 327.728C316.672 327.536 317.317 327.44 317.989 327.44C319.152 327.44 320.048 327.723 320.677 328.288C321.307 328.853 321.621 329.717 321.621 330.88V336H320.165ZM317.381 336.096C316.752 336.096 316.197 335.989 315.717 335.776C315.248 335.563 314.885 335.269 314.629 334.896C314.373 334.512 314.245 334.08 314.245 333.6C314.245 333.141 314.352 332.725 314.565 332.352C314.789 331.979 315.147 331.68 315.637 331.456C316.139 331.232 316.811 331.12 317.653 331.12H320.341V332.224H317.717C316.949 332.224 316.432 332.352 316.165 332.608C315.899 332.864 315.765 333.173 315.765 333.536C315.765 333.952 315.931 334.288 316.261 334.544C316.592 334.789 317.051 334.912 317.637 334.912C318.213 334.912 318.715 334.784 319.141 334.528C319.579 334.272 319.893 333.899 320.085 333.408L320.389 334.464C320.187 334.965 319.829 335.365 319.317 335.664C318.805 335.952 318.16 336.096 317.381 336.096ZM327.376 336.096C326.522 336.096 325.861 335.867 325.392 335.408C324.922 334.949 324.688 334.293 324.688 333.44V325.664H326.224V333.376C326.224 333.835 326.336 334.187 326.56 334.432C326.794 334.677 327.125 334.8 327.552 334.8C328.032 334.8 328.432 334.667 328.752 334.4L329.232 335.504C328.997 335.707 328.714 335.856 328.384 335.952C328.064 336.048 327.728 336.096 327.376 336.096ZM323.248 328.784V327.52H328.656V328.784H323.248ZM334.584 336.096C333.677 336.096 332.877 335.909 332.184 335.536C331.501 335.163 330.968 334.651 330.584 334C330.21 333.349 330.024 332.603 330.024 331.76C330.024 330.917 330.205 330.171 330.568 329.52C330.941 328.869 331.448 328.363 332.088 328C332.738 327.627 333.469 327.44 334.28 327.44C335.101 327.44 335.826 327.621 336.456 327.984C337.085 328.347 337.576 328.859 337.928 329.52C338.29 330.171 338.472 330.933 338.472 331.808C338.472 331.872 338.466 331.947 338.456 332.032C338.456 332.117 338.45 332.197 338.44 332.272H331.224V331.168H337.64L337.016 331.552C337.026 331.008 336.914 330.523 336.68 330.096C336.445 329.669 336.12 329.339 335.704 329.104C335.298 328.859 334.824 328.736 334.28 328.736C333.746 328.736 333.272 328.859 332.856 329.104C332.44 329.339 332.114 329.675 331.88 330.112C331.645 330.539 331.528 331.029 331.528 331.584V331.84C331.528 332.405 331.656 332.912 331.912 333.36C332.178 333.797 332.546 334.139 333.016 334.384C333.485 334.629 334.024 334.752 334.632 334.752C335.133 334.752 335.586 334.667 335.992 334.496C336.408 334.325 336.77 334.069 337.08 333.728L337.928 334.72C337.544 335.168 337.064 335.509 336.488 335.744C335.922 335.979 335.288 336.096 334.584 336.096ZM340.604 336V327.52H342.076V329.824L341.932 329.248C342.167 328.661 342.562 328.213 343.116 327.904C343.671 327.595 344.354 327.44 345.164 327.44V328.928C345.1 328.917 345.036 328.912 344.972 328.912C344.919 328.912 344.866 328.912 344.812 328.912C343.991 328.912 343.34 329.157 342.86 329.648C342.38 330.139 342.14 330.848 342.14 331.776V336H340.604ZM347.058 336V327.52H348.594V336H347.058ZM347.826 325.888C347.527 325.888 347.276 325.792 347.074 325.6C346.882 325.408 346.786 325.173 346.786 324.896C346.786 324.608 346.882 324.368 347.074 324.176C347.276 323.984 347.527 323.888 347.826 323.888C348.124 323.888 348.37 323.984 348.562 324.176C348.764 324.357 348.866 324.587 348.866 324.864C348.866 325.152 348.77 325.397 348.578 325.6C348.386 325.792 348.135 325.888 347.826 325.888ZM356.79 336V334.208L356.71 333.872V330.816C356.71 330.165 356.518 329.664 356.134 329.312C355.761 328.949 355.196 328.768 354.438 328.768C353.937 328.768 353.446 328.853 352.966 329.024C352.486 329.184 352.081 329.403 351.75 329.68L351.11 328.528C351.548 328.176 352.07 327.909 352.678 327.728C353.297 327.536 353.942 327.44 354.614 327.44C355.777 327.44 356.673 327.723 357.302 328.288C357.932 328.853 358.246 329.717 358.246 330.88V336H356.79ZM354.006 336.096C353.377 336.096 352.822 335.989 352.342 335.776C351.873 335.563 351.51 335.269 351.254 334.896C350.998 334.512 350.87 334.08 350.87 333.6C350.87 333.141 350.977 332.725 351.19 332.352C351.414 331.979 351.772 331.68 352.262 331.456C352.764 331.232 353.436 331.12 354.278 331.12H356.966V332.224H354.342C353.574 332.224 353.057 332.352 352.79 332.608C352.524 332.864 352.39 333.173 352.39 333.536C352.39 333.952 352.556 334.288 352.886 334.544C353.217 334.789 353.676 334.912 354.262 334.912C354.838 334.912 355.34 334.784 355.766 334.528C356.204 334.272 356.518 333.899 356.71 333.408L357.014 334.464C356.812 334.965 356.454 335.365 355.942 335.664C355.43 335.952 354.785 336.096 354.006 336.096ZM361.089 336V324.128H362.625V336H361.089ZM367.99 336.096C367.286 336.096 366.614 336 365.974 335.808C365.344 335.616 364.848 335.381 364.486 335.104L365.126 333.888C365.488 334.133 365.936 334.341 366.47 334.512C367.003 334.683 367.547 334.768 368.102 334.768C368.816 334.768 369.328 334.667 369.638 334.464C369.958 334.261 370.118 333.979 370.118 333.616C370.118 333.349 370.022 333.141 369.83 332.992C369.638 332.843 369.382 332.731 369.062 332.656C368.752 332.581 368.406 332.517 368.022 332.464C367.638 332.4 367.254 332.325 366.87 332.24C366.486 332.144 366.134 332.016 365.814 331.856C365.494 331.685 365.238 331.456 365.046 331.168C364.854 330.869 364.758 330.475 364.758 329.984C364.758 329.472 364.902 329.024 365.19 328.64C365.478 328.256 365.883 327.963 366.406 327.76C366.939 327.547 367.568 327.44 368.294 327.44C368.848 327.44 369.408 327.509 369.974 327.648C370.55 327.776 371.019 327.963 371.382 328.208L370.726 329.424C370.342 329.168 369.942 328.992 369.526 328.896C369.11 328.8 368.694 328.752 368.278 328.752C367.606 328.752 367.104 328.864 366.774 329.088C366.443 329.301 366.278 329.579 366.278 329.92C366.278 330.208 366.374 330.432 366.566 330.592C366.768 330.741 367.024 330.859 367.334 330.944C367.654 331.029 368.006 331.104 368.39 331.168C368.774 331.221 369.158 331.296 369.542 331.392C369.926 331.477 370.272 331.6 370.582 331.76C370.902 331.92 371.158 332.144 371.35 332.432C371.552 332.72 371.654 333.104 371.654 333.584C371.654 334.096 371.504 334.539 371.206 334.912C370.907 335.285 370.486 335.579 369.942 335.792C369.398 335.995 368.747 336.096 367.99 336.096ZM115.816 359.2C115.411 359.2 115.016 359.131 114.632 358.992C114.248 358.864 113.918 358.672 113.64 358.416L114.296 357.264C114.51 357.467 114.744 357.621 115 357.728C115.256 357.835 115.528 357.888 115.816 357.888C116.19 357.888 116.499 357.792 116.744 357.6C116.99 357.408 117.219 357.067 117.432 356.576L117.96 355.408L118.12 355.216L121.448 347.52H122.952L118.84 356.848C118.595 357.445 118.318 357.915 118.008 358.256C117.71 358.597 117.379 358.837 117.016 358.976C116.654 359.125 116.254 359.2 115.816 359.2ZM117.832 356.272L113.96 347.52H115.56L118.856 355.072L117.832 356.272ZM127.783 356.096C126.93 356.096 126.173 355.909 125.511 355.536C124.85 355.163 124.327 354.651 123.943 354C123.559 353.339 123.367 352.592 123.367 351.76C123.367 350.917 123.559 350.171 123.943 349.52C124.327 348.869 124.85 348.363 125.511 348C126.173 347.627 126.93 347.44 127.783 347.44C128.626 347.44 129.378 347.627 130.039 348C130.711 348.363 131.234 348.869 131.607 349.52C131.991 350.16 132.183 350.907 132.183 351.76C132.183 352.603 131.991 353.349 131.607 354C131.234 354.651 130.711 355.163 130.039 355.536C129.378 355.909 128.626 356.096 127.783 356.096ZM127.783 354.752C128.327 354.752 128.813 354.629 129.239 354.384C129.677 354.139 130.018 353.792 130.263 353.344C130.509 352.885 130.631 352.357 130.631 351.76C130.631 351.152 130.509 350.629 130.263 350.192C130.018 349.744 129.677 349.397 129.239 349.152C128.813 348.907 128.327 348.784 127.783 348.784C127.239 348.784 126.754 348.907 126.327 349.152C125.901 349.397 125.559 349.744 125.303 350.192C125.047 350.629 124.919 351.152 124.919 351.76C124.919 352.357 125.047 352.885 125.303 353.344C125.559 353.792 125.901 354.139 126.327 354.384C126.754 354.629 127.239 354.752 127.783 354.752ZM137.876 356.096C137.15 356.096 136.51 355.963 135.956 355.696C135.412 355.429 134.985 355.024 134.676 354.48C134.377 353.925 134.228 353.232 134.228 352.4V347.52H135.764V352.224C135.764 353.056 135.961 353.68 136.356 354.096C136.761 354.512 137.326 354.72 138.052 354.72C138.585 354.72 139.049 354.613 139.444 354.4C139.838 354.176 140.142 353.856 140.356 353.44C140.569 353.013 140.676 352.501 140.676 351.904V347.52H142.212V356H140.756V353.712L140.996 354.32C140.718 354.885 140.302 355.323 139.748 355.632C139.193 355.941 138.569 356.096 137.876 356.096ZM153.961 347.44C154.654 347.44 155.262 347.573 155.785 347.84C156.318 348.107 156.734 348.512 157.033 349.056C157.331 349.6 157.481 350.288 157.481 351.12V356H155.945V351.296C155.945 350.475 155.742 349.856 155.337 349.44C154.942 349.024 154.382 348.816 153.657 348.816C153.113 348.816 152.638 348.923 152.233 349.136C151.827 349.349 151.513 349.664 151.289 350.08C151.075 350.496 150.969 351.013 150.969 351.632V356H149.433V344.128H150.969V349.808L150.665 349.2C150.942 348.645 151.369 348.213 151.945 347.904C152.521 347.595 153.193 347.44 153.961 347.44ZM165.587 356V354.208L165.507 353.872V350.816C165.507 350.165 165.315 349.664 164.931 349.312C164.558 348.949 163.993 348.768 163.235 348.768C162.734 348.768 162.243 348.853 161.763 349.024C161.283 349.184 160.878 349.403 160.547 349.68L159.907 348.528C160.345 348.176 160.867 347.909 161.475 347.728C162.094 347.536 162.739 347.44 163.411 347.44C164.574 347.44 165.47 347.723 166.099 348.288C166.729 348.853 167.043 349.717 167.043 350.88V356H165.587ZM162.803 356.096C162.174 356.096 161.619 355.989 161.139 355.776C160.67 355.563 160.307 355.269 160.051 354.896C159.795 354.512 159.667 354.08 159.667 353.6C159.667 353.141 159.774 352.725 159.987 352.352C160.211 351.979 160.569 351.68 161.059 351.456C161.561 351.232 162.233 351.12 163.075 351.12H165.763V352.224H163.139C162.371 352.224 161.854 352.352 161.587 352.608C161.321 352.864 161.187 353.173 161.187 353.536C161.187 353.952 161.353 354.288 161.683 354.544C162.014 354.789 162.473 354.912 163.059 354.912C163.635 354.912 164.137 354.784 164.563 354.528C165.001 354.272 165.315 353.899 165.507 353.408L165.811 354.464C165.609 354.965 165.251 355.365 164.739 355.664C164.227 355.952 163.582 356.096 162.803 356.096ZM171.953 356L168.241 347.52H169.841L173.137 355.2H172.369L175.729 347.52H177.233L173.521 356H171.953ZM182.209 356.096C181.302 356.096 180.502 355.909 179.809 355.536C179.126 355.163 178.593 354.651 178.209 354C177.835 353.349 177.649 352.603 177.649 351.76C177.649 350.917 177.83 350.171 178.193 349.52C178.566 348.869 179.073 348.363 179.713 348C180.363 347.627 181.094 347.44 181.905 347.44C182.726 347.44 183.451 347.621 184.081 347.984C184.71 348.347 185.201 348.859 185.553 349.52C185.915 350.171 186.097 350.933 186.097 351.808C186.097 351.872 186.091 351.947 186.081 352.032C186.081 352.117 186.075 352.197 186.065 352.272H178.849V351.168H185.265L184.641 351.552C184.651 351.008 184.539 350.523 184.305 350.096C184.07 349.669 183.745 349.339 183.329 349.104C182.923 348.859 182.449 348.736 181.905 348.736C181.371 348.736 180.897 348.859 180.481 349.104C180.065 349.339 179.739 349.675 179.505 350.112C179.27 350.539 179.153 351.029 179.153 351.584V351.84C179.153 352.405 179.281 352.912 179.537 353.36C179.803 353.797 180.171 354.139 180.641 354.384C181.11 354.629 181.649 354.752 182.257 354.752C182.758 354.752 183.211 354.667 183.617 354.496C184.033 354.325 184.395 354.069 184.705 353.728L185.553 354.72C185.169 355.168 184.689 355.509 184.113 355.744C183.547 355.979 182.913 356.096 182.209 356.096ZM197.79 356V354.208L197.71 353.872V350.816C197.71 350.165 197.518 349.664 197.134 349.312C196.761 348.949 196.196 348.768 195.438 348.768C194.937 348.768 194.446 348.853 193.966 349.024C193.486 349.184 193.081 349.403 192.75 349.68L192.11 348.528C192.548 348.176 193.07 347.909 193.678 347.728C194.297 347.536 194.942 347.44 195.614 347.44C196.777 347.44 197.673 347.723 198.302 348.288C198.932 348.853 199.246 349.717 199.246 350.88V356H197.79ZM195.006 356.096C194.377 356.096 193.822 355.989 193.342 355.776C192.873 355.563 192.51 355.269 192.254 354.896C191.998 354.512 191.87 354.08 191.87 353.6C191.87 353.141 191.977 352.725 192.19 352.352C192.414 351.979 192.772 351.68 193.262 351.456C193.764 351.232 194.436 351.12 195.278 351.12H197.966V352.224H195.342C194.574 352.224 194.057 352.352 193.79 352.608C193.524 352.864 193.39 353.173 193.39 353.536C193.39 353.952 193.556 354.288 193.886 354.544C194.217 354.789 194.676 354.912 195.262 354.912C195.838 354.912 196.34 354.784 196.766 354.528C197.204 354.272 197.518 353.899 197.71 353.408L198.014 354.464C197.812 354.965 197.454 355.365 196.942 355.664C196.43 355.952 195.785 356.096 195.006 356.096ZM204.157 356L200.445 347.52H202.045L205.341 355.2H204.573L207.933 347.52H209.437L205.725 356H204.157ZM215.868 356V354.208L215.788 353.872V350.816C215.788 350.165 215.596 349.664 215.212 349.312C214.839 348.949 214.274 348.768 213.516 348.768C213.015 348.768 212.524 348.853 212.044 349.024C211.564 349.184 211.159 349.403 210.828 349.68L210.188 348.528C210.626 348.176 211.148 347.909 211.756 347.728C212.375 347.536 213.02 347.44 213.692 347.44C214.855 347.44 215.751 347.723 216.38 348.288C217.01 348.853 217.324 349.717 217.324 350.88V356H215.868ZM213.084 356.096C212.455 356.096 211.9 355.989 211.42 355.776C210.951 355.563 210.588 355.269 210.332 354.896C210.076 354.512 209.948 354.08 209.948 353.6C209.948 353.141 210.055 352.725 210.268 352.352C210.492 351.979 210.85 351.68 211.34 351.456C211.842 351.232 212.514 351.12 213.356 351.12H216.044V352.224H213.42C212.652 352.224 212.135 352.352 211.868 352.608C211.602 352.864 211.468 353.173 211.468 353.536C211.468 353.952 211.634 354.288 211.964 354.544C212.295 354.789 212.754 354.912 213.34 354.912C213.916 354.912 214.418 354.784 214.844 354.528C215.282 354.272 215.596 353.899 215.788 353.408L216.092 354.464C215.89 354.965 215.532 355.365 215.02 355.664C214.508 355.952 213.863 356.096 213.084 356.096ZM220.167 356V347.52H221.703V356H220.167ZM220.935 345.888C220.636 345.888 220.386 345.792 220.183 345.6C219.991 345.408 219.895 345.173 219.895 344.896C219.895 344.608 219.991 344.368 220.183 344.176C220.386 343.984 220.636 343.888 220.935 343.888C221.234 343.888 221.479 343.984 221.671 344.176C221.874 344.357 221.975 344.587 221.975 344.864C221.975 345.152 221.879 345.397 221.687 345.6C221.495 345.792 221.244 345.888 220.935 345.888ZM224.636 356V344.128H226.172V356H224.636ZM234.368 356V354.208L234.288 353.872V350.816C234.288 350.165 234.096 349.664 233.712 349.312C233.339 348.949 232.774 348.768 232.016 348.768C231.515 348.768 231.024 348.853 230.544 349.024C230.064 349.184 229.659 349.403 229.328 349.68L228.688 348.528C229.126 348.176 229.648 347.909 230.256 347.728C230.875 347.536 231.52 347.44 232.192 347.44C233.355 347.44 234.251 347.723 234.88 348.288C235.51 348.853 235.824 349.717 235.824 350.88V356H234.368ZM231.584 356.096C230.955 356.096 230.4 355.989 229.92 355.776C229.451 355.563 229.088 355.269 228.832 354.896C228.576 354.512 228.448 354.08 228.448 353.6C228.448 353.141 228.555 352.725 228.768 352.352C228.992 351.979 229.35 351.68 229.84 351.456C230.342 351.232 231.014 351.12 231.856 351.12H234.544V352.224H231.92C231.152 352.224 230.635 352.352 230.368 352.608C230.102 352.864 229.968 353.173 229.968 353.536C229.968 353.952 230.134 354.288 230.464 354.544C230.795 354.789 231.254 354.912 231.84 354.912C232.416 354.912 232.918 354.784 233.344 354.528C233.782 354.272 234.096 353.899 234.288 353.408L234.592 354.464C234.39 354.965 234.032 355.365 233.52 355.664C233.008 355.952 232.363 356.096 231.584 356.096ZM243.163 356.096C242.438 356.096 241.782 355.936 241.195 355.616C240.619 355.285 240.16 354.8 239.819 354.16C239.488 353.52 239.323 352.72 239.323 351.76C239.323 350.8 239.494 350 239.835 349.36C240.187 348.72 240.651 348.24 241.227 347.92C241.814 347.6 242.459 347.44 243.163 347.44C243.995 347.44 244.731 347.621 245.371 347.984C246.011 348.347 246.518 348.853 246.891 349.504C247.264 350.144 247.451 350.896 247.451 351.76C247.451 352.624 247.264 353.381 246.891 354.032C246.518 354.683 246.011 355.189 245.371 355.552C244.731 355.915 243.995 356.096 243.163 356.096ZM238.667 356V344.128H240.203V349.776L240.043 351.744L240.139 353.712V356H238.667ZM243.035 354.752C243.579 354.752 244.064 354.629 244.491 354.384C244.928 354.139 245.27 353.792 245.515 353.344C245.771 352.885 245.899 352.357 245.899 351.76C245.899 351.152 245.771 350.629 245.515 350.192C245.27 349.744 244.928 349.397 244.491 349.152C244.064 348.907 243.579 348.784 243.035 348.784C242.502 348.784 242.016 348.907 241.579 349.152C241.152 349.397 240.811 349.744 240.555 350.192C240.31 350.629 240.187 351.152 240.187 351.76C240.187 352.357 240.31 352.885 240.555 353.344C240.811 353.792 241.152 354.139 241.579 354.384C242.016 354.629 242.502 354.752 243.035 354.752ZM249.573 356V344.128H251.109V356H249.573ZM257.818 356.096C256.911 356.096 256.111 355.909 255.418 355.536C254.735 355.163 254.202 354.651 253.818 354C253.445 353.349 253.258 352.603 253.258 351.76C253.258 350.917 253.439 350.171 253.802 349.52C254.175 348.869 254.682 348.363 255.322 348C255.973 347.627 256.703 347.44 257.514 347.44C258.335 347.44 259.061 347.621 259.69 347.984C260.319 348.347 260.81 348.859 261.162 349.52C261.525 350.171 261.706 350.933 261.706 351.808C261.706 351.872 261.701 351.947 261.69 352.032C261.69 352.117 261.685 352.197 261.674 352.272H254.458V351.168H260.874L260.25 351.552C260.261 351.008 260.149 350.523 259.914 350.096C259.679 349.669 259.354 349.339 258.938 349.104C258.533 348.859 258.058 348.736 257.514 348.736C256.981 348.736 256.506 348.859 256.09 349.104C255.674 349.339 255.349 349.675 255.114 350.112C254.879 350.539 254.762 351.029 254.762 351.584V351.84C254.762 352.405 254.89 352.912 255.146 353.36C255.413 353.797 255.781 354.139 256.25 354.384C256.719 354.629 257.258 354.752 257.866 354.752C258.367 354.752 258.821 354.667 259.226 354.496C259.642 354.325 260.005 354.069 260.314 353.728L261.162 354.72C260.778 355.168 260.298 355.509 259.722 355.744C259.157 355.979 258.522 356.096 257.818 356.096ZM264.207 356.096C263.908 356.096 263.652 355.995 263.439 355.792C263.225 355.579 263.119 355.312 263.119 354.992C263.119 354.672 263.225 354.411 263.439 354.208C263.652 354.005 263.908 353.904 264.207 353.904C264.495 353.904 264.74 354.005 264.943 354.208C265.156 354.411 265.263 354.672 265.263 354.992C265.263 355.312 265.156 355.579 264.943 355.792C264.74 355.995 264.495 356.096 264.207 356.096Z" fill="#008E86"/>
<path d="M109 211.499L140.532 143.097L113.433 122.83L117.731 105.132L166.308 103.442L188.126 143.097L182.178 232.32L152.437 256.113L109 211.499Z" fill="#008E86" stroke="#00635D" stroke-width="2" stroke-linejoin="round"/>
<path d="M140.534 143.1L113.435 122.833L117.733 105.135L158.184 107.922L140.534 143.1Z" fill="#00D8CC" stroke="#00635D" stroke-width="2" stroke-linejoin="round"/>
<path d="M140.534 143.097L119.525 126.712L128.116 110.604L158.184 107.919L140.534 143.097Z" fill="#008E86" stroke="#00635D" stroke-width="2" stroke-linejoin="round"/>
<path d="M146.483 147.062L162.345 113.355L127.647 110.381L119.717 127.235L146.483 147.062Z" fill="#00D8CC" stroke="#00635D" stroke-width="2" stroke-linejoin="round"/>
<circle cx="141" cy="124" r="9" fill="#F2F2F2" stroke="#333333" stroke-width="2"/>
<circle cx="141" cy="124" r="3" fill="#333333"/>
<path d="M116.748 212.493L162.343 113.357L188.119 143.098L182.178 232.321L116.748 212.493Z" fill="#008E86" stroke="#00635D" stroke-width="2" stroke-linejoin="round"/>
<path d="M116 212L162 113.5L188.047 144.264L182.212 231.896L116 212Z" fill="#008E86" stroke="#00635D" stroke-width="2" stroke-linejoin="round"/>
<path d="M234.788 259.159L287.367 150.106L277.631 231.896L234.788 259.159Z" fill="#008E86" stroke="#00635D" stroke-width="2" stroke-linejoin="round"/>
<path d="M164.685 194.896L277.629 231.897L234.787 259.16L180.264 259.16L164.685 194.896Z" fill="#008E86" stroke="#00635D" stroke-width="2" stroke-linejoin="round"/>
<path d="M116 212.001L164.684 194.895L188.049 261.107L153 255.264L116 212.001Z" fill="#008E86" stroke="#00635D" stroke-width="2" stroke-linejoin="round"/>
<path d="M164.683 194.893L188.158 260.24L143.098 260.24L164.683 194.893Z" fill="#00D8CC" stroke="#00635D" stroke-width="2" stroke-linejoin="round"/>
<path d="M194.784 288.073L188.157 260.242H143.097L194.784 288.073Z" fill="#00D8CC" stroke="#00635D" stroke-width="2" stroke-linejoin="round"/>
</g>
<defs>
<clipPath id="clip0_14_3202">
<rect width="380" height="380" rx="20" fill="white"/>
</clipPath>
</defs>
</svg>
