<svg width="180" height="180" viewBox="0 0 180 180" fill="none" xmlns="http://www.w3.org/2000/svg">
<rect width="180" height="180" rx="20" fill="#F2F2F2"/>
<path d="M26.761 129.096C26.121 129.096 25.525 128.988 24.973 128.772C24.429 128.556 23.957 128.256 23.557 127.872C23.157 127.48 22.845 127.024 22.621 126.504C22.397 125.984 22.285 125.416 22.285 124.8C22.285 124.184 22.397 123.616 22.621 123.096C22.845 122.576 23.157 122.124 23.557 121.74C23.957 121.348 24.429 121.044 24.973 120.828C25.517 120.612 26.113 120.504 26.761 120.504C27.401 120.504 27.989 120.612 28.525 120.828C29.069 121.036 29.541 121.336 29.941 121.728C30.349 122.112 30.661 122.564 30.877 123.084C31.101 123.604 31.213 124.176 31.213 124.8C31.213 125.424 31.101 125.996 30.877 126.516C30.661 127.036 30.349 127.492 29.941 127.884C29.541 128.268 29.069 128.568 28.525 128.784C27.989 128.992 27.401 129.096 26.761 129.096ZM26.761 128.028C27.225 128.028 27.653 127.948 28.045 127.788C28.445 127.628 28.789 127.404 29.077 127.116C29.373 126.82 29.601 126.476 29.761 126.084C29.929 125.692 30.013 125.264 30.013 124.8C30.013 124.336 29.929 123.908 29.761 123.516C29.601 123.124 29.373 122.784 29.077 122.496C28.789 122.2 28.445 121.972 28.045 121.812C27.653 121.652 27.225 121.572 26.761 121.572C26.289 121.572 25.853 121.652 25.453 121.812C25.061 121.972 24.717 122.2 24.421 122.496C24.125 122.784 23.893 123.124 23.725 123.516C23.565 123.908 23.485 124.336 23.485 124.8C23.485 125.264 23.565 125.692 23.725 126.084C23.893 126.476 24.125 126.82 24.421 127.116C24.717 127.404 25.061 127.628 25.453 127.788C25.853 127.948 26.289 128.028 26.761 128.028ZM36.2511 129.072C35.7231 129.072 35.2391 128.952 34.7991 128.712C34.3671 128.464 34.0191 128.1 33.7551 127.62C33.4991 127.14 33.3711 126.54 33.3711 125.82C33.3711 125.1 33.4951 124.5 33.7431 124.02C33.9991 123.54 34.3431 123.18 34.7751 122.94C35.2151 122.7 35.7071 122.58 36.2511 122.58C36.8751 122.58 37.4271 122.716 37.9071 122.988C38.3871 123.26 38.7671 123.64 39.0471 124.128C39.3271 124.608 39.4671 125.172 39.4671 125.82C39.4671 126.468 39.3271 127.036 39.0471 127.524C38.7671 128.012 38.3871 128.392 37.9071 128.664C37.4271 128.936 36.8751 129.072 36.2511 129.072ZM32.8791 131.328V122.64H33.9831V124.356L33.9111 125.832L34.0311 127.308V131.328H32.8791ZM36.1551 128.064C36.5631 128.064 36.9271 127.972 37.2471 127.788C37.5751 127.604 37.8311 127.344 38.0151 127.008C38.2071 126.664 38.3031 126.268 38.3031 125.82C38.3031 125.364 38.2071 124.972 38.0151 124.644C37.8311 124.308 37.5751 124.048 37.2471 123.864C36.9271 123.68 36.5631 123.588 36.1551 123.588C35.7551 123.588 35.3911 123.68 35.0631 123.864C34.7431 124.048 34.4871 124.308 34.2951 124.644C34.1111 124.972 34.0191 125.364 34.0191 125.82C34.0191 126.268 34.1111 126.664 34.2951 127.008C34.4871 127.344 34.7431 127.604 35.0631 127.788C35.3911 127.972 35.7551 128.064 36.1551 128.064ZM43.8908 129.072C43.2108 129.072 42.6108 128.932 42.0908 128.652C41.5788 128.372 41.1788 127.988 40.8908 127.5C40.6108 127.012 40.4708 126.452 40.4708 125.82C40.4708 125.188 40.6068 124.628 40.8788 124.14C41.1588 123.652 41.5388 123.272 42.0188 123C42.5068 122.72 43.0548 122.58 43.6628 122.58C44.2788 122.58 44.8228 122.716 45.2948 122.988C45.7668 123.26 46.1348 123.644 46.3988 124.14C46.6708 124.628 46.8068 125.2 46.8068 125.856C46.8068 125.904 46.8028 125.96 46.7948 126.024C46.7948 126.088 46.7908 126.148 46.7828 126.204H41.3708V125.376H46.1828L45.7148 125.664C45.7228 125.256 45.6388 124.892 45.4628 124.572C45.2868 124.252 45.0428 124.004 44.7308 123.828C44.4268 123.644 44.0708 123.552 43.6628 123.552C43.2628 123.552 42.9068 123.644 42.5948 123.828C42.2828 124.004 42.0388 124.256 41.8628 124.584C41.6868 124.904 41.5988 125.272 41.5988 125.688V125.88C41.5988 126.304 41.6948 126.684 41.8868 127.02C42.0868 127.348 42.3628 127.604 42.7148 127.788C43.0668 127.972 43.4708 128.064 43.9268 128.064C44.3028 128.064 44.6428 128 44.9468 127.872C45.2588 127.744 45.5308 127.552 45.7628 127.296L46.3988 128.04C46.1108 128.376 45.7508 128.632 45.3188 128.808C44.8948 128.984 44.4188 129.072 43.8908 129.072ZM51.8025 122.58C52.3225 122.58 52.7785 122.68 53.1705 122.88C53.5705 123.08 53.8825 123.384 54.1065 123.792C54.3305 124.2 54.4425 124.716 54.4425 125.34V129H53.2905V125.472C53.2905 124.856 53.1385 124.392 52.8345 124.08C52.5385 123.768 52.1185 123.612 51.5745 123.612C51.1665 123.612 50.8105 123.692 50.5065 123.852C50.2025 124.012 49.9665 124.248 49.7985 124.56C49.6385 124.872 49.5585 125.26 49.5585 125.724V129H48.4065V122.64H49.5105V124.356L49.3305 123.9C49.5385 123.484 49.8585 123.16 50.2905 122.928C50.7225 122.696 51.2265 122.58 51.8025 122.58ZM61.9811 129.072C61.3411 129.072 60.8451 128.9 60.4931 128.556C60.1411 128.212 59.9651 127.72 59.9651 127.08V121.248H61.1171V127.032C61.1171 127.376 61.2011 127.64 61.3691 127.824C61.5451 128.008 61.7931 128.1 62.1131 128.1C62.4731 128.1 62.7731 128 63.0131 127.8L63.3731 128.628C63.1971 128.78 62.9851 128.892 62.7371 128.964C62.4971 129.036 62.2451 129.072 61.9811 129.072ZM58.8851 123.588V122.64H62.9411V123.588H58.8851ZM68.1618 122.58C68.6818 122.58 69.1378 122.68 69.5298 122.88C69.9298 123.08 70.2418 123.384 70.4658 123.792C70.6898 124.2 70.8018 124.716 70.8018 125.34V129H69.6498V125.472C69.6498 124.856 69.4978 124.392 69.1938 124.08C68.8978 123.768 68.4778 123.612 67.9338 123.612C67.5258 123.612 67.1698 123.692 66.8658 123.852C66.5618 124.012 66.3258 124.248 66.1578 124.56C65.9978 124.872 65.9178 125.26 65.9178 125.724V129H64.7658V120.096H65.9178V124.356L65.6898 123.9C65.8978 123.484 66.2178 123.16 66.6498 122.928C67.0818 122.696 67.5858 122.58 68.1618 122.58ZM75.7658 129.072C75.0858 129.072 74.4858 128.932 73.9658 128.652C73.4538 128.372 73.0538 127.988 72.7658 127.5C72.4858 127.012 72.3458 126.452 72.3458 125.82C72.3458 125.188 72.4818 124.628 72.7538 124.14C73.0338 123.652 73.4138 123.272 73.8938 123C74.3818 122.72 74.9298 122.58 75.5378 122.58C76.1538 122.58 76.6978 122.716 77.1698 122.988C77.6418 123.26 78.0098 123.644 78.2738 124.14C78.5458 124.628 78.6818 125.2 78.6818 125.856C78.6818 125.904 78.6778 125.96 78.6698 126.024C78.6698 126.088 78.6658 126.148 78.6578 126.204H73.2458V125.376H78.0578L77.5898 125.664C77.5978 125.256 77.5138 124.892 77.3378 124.572C77.1618 124.252 76.9178 124.004 76.6058 123.828C76.3018 123.644 75.9458 123.552 75.5378 123.552C75.1378 123.552 74.7818 123.644 74.4698 123.828C74.1578 124.004 73.9138 124.256 73.7378 124.584C73.5618 124.904 73.4738 125.272 73.4738 125.688V125.88C73.4738 126.304 73.5698 126.684 73.7618 127.02C73.9618 127.348 74.2378 127.604 74.5898 127.788C74.9418 127.972 75.3458 128.064 75.8018 128.064C76.1778 128.064 76.5178 128 76.8218 127.872C77.1338 127.744 77.4058 127.552 77.6378 127.296L78.2738 128.04C77.9858 128.376 77.6258 128.632 77.1938 128.808C76.7698 128.984 76.2938 129.072 75.7658 129.072ZM85.6881 129.072C85.0481 129.072 84.5521 128.9 84.2001 128.556C83.8481 128.212 83.6721 127.72 83.6721 127.08V121.248H84.8241V127.032C84.8241 127.376 84.9081 127.64 85.0761 127.824C85.2521 128.008 85.5001 128.1 85.8201 128.1C86.1801 128.1 86.4801 128 86.7201 127.8L87.0801 128.628C86.9041 128.78 86.6921 128.892 86.4441 128.964C86.2041 129.036 85.9521 129.072 85.6881 129.072ZM82.5921 123.588V122.64H86.6481V123.588H82.5921ZM90.9859 129.072C90.3459 129.072 89.7779 128.932 89.2819 128.652C88.7859 128.372 88.3939 127.988 88.1059 127.5C87.8179 127.004 87.6739 126.444 87.6739 125.82C87.6739 125.188 87.8179 124.628 88.1059 124.14C88.3939 123.652 88.7859 123.272 89.2819 123C89.7779 122.72 90.3459 122.58 90.9859 122.58C91.6179 122.58 92.1819 122.72 92.6779 123C93.1819 123.272 93.5739 123.652 93.8539 124.14C94.1419 124.62 94.2859 125.18 94.2859 125.82C94.2859 126.452 94.1419 127.012 93.8539 127.5C93.5739 127.988 93.1819 128.372 92.6779 128.652C92.1819 128.932 91.6179 129.072 90.9859 129.072ZM90.9859 128.064C91.3939 128.064 91.7579 127.972 92.0779 127.788C92.4059 127.604 92.6619 127.344 92.8459 127.008C93.0299 126.664 93.1219 126.268 93.1219 125.82C93.1219 125.364 93.0299 124.972 92.8459 124.644C92.6619 124.308 92.4059 124.048 92.0779 123.864C91.7579 123.68 91.3939 123.588 90.9859 123.588C90.5779 123.588 90.2139 123.68 89.8939 123.864C89.5739 124.048 89.3179 124.308 89.1259 124.644C88.9339 124.972 88.8379 125.364 88.8379 125.82C88.8379 126.268 88.9339 126.664 89.1259 127.008C89.3179 127.344 89.5739 127.604 89.8939 127.788C90.2139 127.972 90.5779 128.064 90.9859 128.064ZM99.2511 129.072C98.7231 129.072 98.2391 128.952 97.7991 128.712C97.3671 128.464 97.0191 128.1 96.7551 127.62C96.4991 127.14 96.3711 126.54 96.3711 125.82C96.3711 125.1 96.4951 124.5 96.7431 124.02C96.9991 123.54 97.3431 123.18 97.7751 122.94C98.2151 122.7 98.7071 122.58 99.2511 122.58C99.8751 122.58 100.427 122.716 100.907 122.988C101.387 123.26 101.767 123.64 102.047 124.128C102.327 124.608 102.467 125.172 102.467 125.82C102.467 126.468 102.327 127.036 102.047 127.524C101.767 128.012 101.387 128.392 100.907 128.664C100.427 128.936 99.8751 129.072 99.2511 129.072ZM95.8791 131.328V122.64H96.9831V124.356L96.9111 125.832L97.0311 127.308V131.328H95.8791ZM99.1551 128.064C99.5631 128.064 99.9271 127.972 100.247 127.788C100.575 127.604 100.831 127.344 101.015 127.008C101.207 126.664 101.303 126.268 101.303 125.82C101.303 125.364 101.207 124.972 101.015 124.644C100.831 124.308 100.575 124.048 100.247 123.864C99.9271 123.68 99.5631 123.588 99.1551 123.588C98.7551 123.588 98.3911 123.68 98.0631 123.864C97.7431 124.048 97.4871 124.308 97.2951 124.644C97.1111 124.972 97.0191 125.364 97.0191 125.82C97.0191 126.268 97.1111 126.664 97.2951 127.008C97.4871 127.344 97.7431 127.604 98.0631 127.788C98.3911 127.972 98.7551 128.064 99.1551 128.064ZM110.653 129.072C110.125 129.072 109.641 128.952 109.201 128.712C108.769 128.464 108.421 128.1 108.157 127.62C107.901 127.14 107.773 126.54 107.773 125.82C107.773 125.1 107.897 124.5 108.145 124.02C108.401 123.54 108.745 123.18 109.177 122.94C109.617 122.7 110.109 122.58 110.653 122.58C111.277 122.58 111.829 122.716 112.309 122.988C112.789 123.26 113.169 123.64 113.449 124.128C113.729 124.608 113.869 125.172 113.869 125.82C113.869 126.468 113.729 127.036 113.449 127.524C113.169 128.012 112.789 128.392 112.309 128.664C111.829 128.936 111.277 129.072 110.653 129.072ZM107.281 131.328V122.64H108.385V124.356L108.313 125.832L108.433 127.308V131.328H107.281ZM110.557 128.064C110.965 128.064 111.329 127.972 111.649 127.788C111.977 127.604 112.233 127.344 112.417 127.008C112.609 126.664 112.705 126.268 112.705 125.82C112.705 125.364 112.609 124.972 112.417 124.644C112.233 124.308 111.977 124.048 111.649 123.864C111.329 123.68 110.965 123.588 110.557 123.588C110.157 123.588 109.793 123.68 109.465 123.864C109.145 124.048 108.889 124.308 108.697 124.644C108.513 124.972 108.421 125.364 108.421 125.82C108.421 126.268 108.513 126.664 108.697 127.008C108.889 127.344 109.145 127.604 109.465 127.788C109.793 127.972 110.157 128.064 110.557 128.064ZM119.351 129V127.656L119.291 127.404V125.112C119.291 124.624 119.147 124.248 118.859 123.984C118.579 123.712 118.155 123.576 117.587 123.576C117.211 123.576 116.843 123.64 116.483 123.768C116.123 123.888 115.819 124.052 115.571 124.26L115.091 123.396C115.419 123.132 115.811 122.932 116.267 122.796C116.731 122.652 117.215 122.58 117.719 122.58C118.591 122.58 119.263 122.792 119.735 123.216C120.207 123.64 120.443 124.288 120.443 125.16V129H119.351ZM117.263 129.072C116.791 129.072 116.375 128.992 116.015 128.832C115.663 128.672 115.391 128.452 115.199 128.172C115.007 127.884 114.911 127.56 114.911 127.2C114.911 126.856 114.991 126.544 115.151 126.264C115.319 125.984 115.587 125.76 115.955 125.592C116.331 125.424 116.835 125.34 117.467 125.34H119.483V126.168H117.515C116.939 126.168 116.551 126.264 116.351 126.456C116.151 126.648 116.051 126.88 116.051 127.152C116.051 127.464 116.175 127.716 116.423 127.908C116.671 128.092 117.015 128.184 117.455 128.184C117.887 128.184 118.263 128.088 118.583 127.896C118.911 127.704 119.147 127.424 119.291 127.056L119.519 127.848C119.367 128.224 119.099 128.524 118.715 128.748C118.331 128.964 117.847 129.072 117.263 129.072ZM122.574 129V122.64H123.678V124.368L123.57 123.936C123.746 123.496 124.042 123.16 124.458 122.928C124.874 122.696 125.386 122.58 125.994 122.58V123.696C125.946 123.688 125.898 123.684 125.85 123.684C125.81 123.684 125.77 123.684 125.73 123.684C125.114 123.684 124.626 123.868 124.266 124.236C123.906 124.604 123.726 125.136 123.726 125.832V129H122.574ZM129.856 129.072C129.216 129.072 128.72 128.9 128.368 128.556C128.016 128.212 127.84 127.72 127.84 127.08V121.248H128.992V127.032C128.992 127.376 129.076 127.64 129.244 127.824C129.42 128.008 129.668 128.1 129.988 128.1C130.348 128.1 130.648 128 130.888 127.8L131.248 128.628C131.072 128.78 130.86 128.892 130.612 128.964C130.372 129.036 130.12 129.072 129.856 129.072ZM126.76 123.588V122.64H130.816V123.588H126.76ZM139.811 129V127.656L139.751 127.404V125.112C139.751 124.624 139.607 124.248 139.319 123.984C139.039 123.712 138.615 123.576 138.047 123.576C137.671 123.576 137.303 123.64 136.943 123.768C136.583 123.888 136.279 124.052 136.031 124.26L135.551 123.396C135.879 123.132 136.271 122.932 136.727 122.796C137.191 122.652 137.675 122.58 138.179 122.58C139.051 122.58 139.723 122.792 140.195 123.216C140.667 123.64 140.903 124.288 140.903 125.16V129H139.811ZM137.723 129.072C137.251 129.072 136.835 128.992 136.475 128.832C136.123 128.672 135.851 128.452 135.659 128.172C135.467 127.884 135.371 127.56 135.371 127.2C135.371 126.856 135.451 126.544 135.611 126.264C135.779 125.984 136.047 125.76 136.415 125.592C136.791 125.424 137.295 125.34 137.927 125.34H139.943V126.168H137.975C137.399 126.168 137.011 126.264 136.811 126.456C136.611 126.648 136.511 126.88 136.511 127.152C136.511 127.464 136.635 127.716 136.883 127.908C137.131 128.092 137.475 128.184 137.915 128.184C138.347 128.184 138.723 128.088 139.043 127.896C139.371 127.704 139.607 127.424 139.751 127.056L139.979 127.848C139.827 128.224 139.559 128.524 139.175 128.748C138.791 128.964 138.307 129.072 137.723 129.072ZM146.431 122.58C146.951 122.58 147.407 122.68 147.799 122.88C148.199 123.08 148.511 123.384 148.735 123.792C148.959 124.2 149.071 124.716 149.071 125.34V129H147.919V125.472C147.919 124.856 147.767 124.392 147.463 124.08C147.167 123.768 146.747 123.612 146.203 123.612C145.795 123.612 145.439 123.692 145.135 123.852C144.831 124.012 144.595 124.248 144.427 124.56C144.267 124.872 144.187 125.26 144.187 125.724V129H143.035V122.64H144.139V124.356L143.959 123.9C144.167 123.484 144.487 123.16 144.919 122.928C145.351 122.696 145.855 122.58 146.431 122.58ZM153.831 129.072C153.215 129.072 152.663 128.936 152.175 128.664C151.695 128.392 151.315 128.012 151.035 127.524C150.755 127.036 150.615 126.468 150.615 125.82C150.615 125.172 150.755 124.608 151.035 124.128C151.315 123.64 151.695 123.26 152.175 122.988C152.663 122.716 153.215 122.58 153.831 122.58C154.367 122.58 154.851 122.7 155.283 122.94C155.715 123.18 156.059 123.54 156.315 124.02C156.579 124.5 156.711 125.1 156.711 125.82C156.711 126.54 156.583 127.14 156.327 127.62C156.079 128.1 155.739 128.464 155.307 128.712C154.875 128.952 154.383 129.072 153.831 129.072ZM153.927 128.064C154.327 128.064 154.687 127.972 155.007 127.788C155.335 127.604 155.591 127.344 155.775 127.008C155.967 126.664 156.063 126.268 156.063 125.82C156.063 125.364 155.967 124.972 155.775 124.644C155.591 124.308 155.335 124.048 155.007 123.864C154.687 123.68 154.327 123.588 153.927 123.588C153.519 123.588 153.155 123.68 152.835 123.864C152.515 124.048 152.259 124.308 152.067 124.644C151.875 124.972 151.779 125.364 151.779 125.82C151.779 126.268 151.875 126.664 152.067 127.008C152.259 127.344 152.515 127.604 152.835 127.788C153.155 127.972 153.519 128.064 153.927 128.064ZM156.099 129V127.284L156.171 125.808L156.051 124.332V120.096H157.203V129H156.099ZM28.9866 144V137.076C28.9866 136.452 29.1666 135.956 29.5266 135.588C29.8946 135.212 30.4146 135.024 31.0866 135.024C31.3346 135.024 31.5706 135.056 31.7946 135.12C32.0266 135.176 32.2226 135.268 32.3826 135.396L32.0346 136.272C31.9146 136.176 31.7786 136.104 31.6266 136.056C31.4746 136 31.3146 135.972 31.1466 135.972C30.8106 135.972 30.5546 136.068 30.3786 136.26C30.2026 136.444 30.1146 136.72 30.1146 137.088V137.94L30.1386 138.468V144H28.9866ZM27.9066 138.588V137.64H31.9626V138.588H27.9066ZM35.6793 144.072C35.0393 144.072 34.4713 143.932 33.9753 143.652C33.4793 143.372 33.0873 142.988 32.7993 142.5C32.5113 142.004 32.3673 141.444 32.3673 140.82C32.3673 140.188 32.5113 139.628 32.7993 139.14C33.0873 138.652 33.4793 138.272 33.9753 138C34.4713 137.72 35.0393 137.58 35.6793 137.58C36.3113 137.58 36.8753 137.72 37.3713 138C37.8753 138.272 38.2673 138.652 38.5473 139.14C38.8353 139.62 38.9793 140.18 38.9793 140.82C38.9793 141.452 38.8353 142.012 38.5473 142.5C38.2673 142.988 37.8753 143.372 37.3713 143.652C36.8753 143.932 36.3113 144.072 35.6793 144.072ZM35.6793 143.064C36.0873 143.064 36.4513 142.972 36.7713 142.788C37.0993 142.604 37.3553 142.344 37.5393 142.008C37.7233 141.664 37.8153 141.268 37.8153 140.82C37.8153 140.364 37.7233 139.972 37.5393 139.644C37.3553 139.308 37.0993 139.048 36.7713 138.864C36.4513 138.68 36.0873 138.588 35.6793 138.588C35.2713 138.588 34.9073 138.68 34.5873 138.864C34.2673 139.048 34.0113 139.308 33.8193 139.644C33.6273 139.972 33.5313 140.364 33.5313 140.82C33.5313 141.268 33.6273 141.664 33.8193 142.008C34.0113 142.344 34.2673 142.604 34.5873 142.788C34.9073 142.972 35.2713 143.064 35.6793 143.064ZM40.5725 144V135.096H41.7245V144H40.5725ZM46.552 144.072C45.936 144.072 45.384 143.936 44.896 143.664C44.416 143.392 44.036 143.012 43.756 142.524C43.476 142.036 43.336 141.468 43.336 140.82C43.336 140.172 43.476 139.608 43.756 139.128C44.036 138.64 44.416 138.26 44.896 137.988C45.384 137.716 45.936 137.58 46.552 137.58C47.088 137.58 47.572 137.7 48.004 137.94C48.436 138.18 48.78 138.54 49.036 139.02C49.3 139.5 49.432 140.1 49.432 140.82C49.432 141.54 49.304 142.14 49.048 142.62C48.8 143.1 48.46 143.464 48.028 143.712C47.596 143.952 47.104 144.072 46.552 144.072ZM46.648 143.064C47.048 143.064 47.408 142.972 47.728 142.788C48.056 142.604 48.312 142.344 48.496 142.008C48.688 141.664 48.784 141.268 48.784 140.82C48.784 140.364 48.688 139.972 48.496 139.644C48.312 139.308 48.056 139.048 47.728 138.864C47.408 138.68 47.048 138.588 46.648 138.588C46.24 138.588 45.876 138.68 45.556 138.864C45.236 139.048 44.98 139.308 44.788 139.644C44.596 139.972 44.5 140.364 44.5 140.82C44.5 141.268 44.596 141.664 44.788 142.008C44.98 142.344 45.236 142.604 45.556 142.788C45.876 142.972 46.24 143.064 46.648 143.064ZM48.82 144V142.284L48.892 140.808L48.772 139.332V135.096H49.924V144H48.82ZM55.3264 144V137.64H56.4784V144H55.3264ZM55.9024 136.416C55.6784 136.416 55.4904 136.344 55.3384 136.2C55.1944 136.056 55.1224 135.88 55.1224 135.672C55.1224 135.456 55.1944 135.276 55.3384 135.132C55.4904 134.988 55.6784 134.916 55.9024 134.916C56.1264 134.916 56.3104 134.988 56.4544 135.132C56.6064 135.268 56.6824 135.44 56.6824 135.648C56.6824 135.864 56.6104 136.048 56.4664 136.2C56.3224 136.344 56.1344 136.416 55.9024 136.416ZM60.8619 144.072C60.2219 144.072 59.7259 143.9 59.3739 143.556C59.0219 143.212 58.8459 142.72 58.8459 142.08V136.248H59.9979V142.032C59.9979 142.376 60.0819 142.64 60.2499 142.824C60.4259 143.008 60.6739 143.1 60.9939 143.1C61.3539 143.1 61.6539 143 61.8939 142.8L62.2539 143.628C62.0779 143.78 61.8659 143.892 61.6179 143.964C61.3779 144.036 61.1259 144.072 60.8619 144.072ZM57.7659 138.588V137.64H61.8219V138.588H57.7659ZM70.8173 144V142.656L70.7573 142.404V140.112C70.7573 139.624 70.6133 139.248 70.3253 138.984C70.0453 138.712 69.6213 138.576 69.0533 138.576C68.6773 138.576 68.3093 138.64 67.9493 138.768C67.5893 138.888 67.2853 139.052 67.0373 139.26L66.5573 138.396C66.8853 138.132 67.2773 137.932 67.7333 137.796C68.1973 137.652 68.6813 137.58 69.1853 137.58C70.0573 137.58 70.7293 137.792 71.2013 138.216C71.6733 138.64 71.9093 139.288 71.9093 140.16V144H70.8173ZM68.7293 144.072C68.2573 144.072 67.8413 143.992 67.4813 143.832C67.1293 143.672 66.8573 143.452 66.6653 143.172C66.4733 142.884 66.3773 142.56 66.3773 142.2C66.3773 141.856 66.4573 141.544 66.6173 141.264C66.7853 140.984 67.0533 140.76 67.4213 140.592C67.7973 140.424 68.3013 140.34 68.9333 140.34H70.9493V141.168H68.9813C68.4053 141.168 68.0173 141.264 67.8173 141.456C67.6173 141.648 67.5173 141.88 67.5173 142.152C67.5173 142.464 67.6413 142.716 67.8893 142.908C68.1373 143.092 68.4813 143.184 68.9213 143.184C69.3533 143.184 69.7293 143.088 70.0493 142.896C70.3773 142.704 70.6133 142.424 70.7573 142.056L70.9853 142.848C70.8333 143.224 70.5653 143.524 70.1813 143.748C69.7973 143.964 69.3133 144.072 68.7293 144.072ZM75.8652 144.072C75.3372 144.072 74.8332 144 74.3532 143.856C73.8812 143.712 73.5092 143.536 73.2372 143.328L73.7172 142.416C73.9892 142.6 74.3252 142.756 74.7252 142.884C75.1252 143.012 75.5332 143.076 75.9492 143.076C76.4852 143.076 76.8692 143 77.1012 142.848C77.3412 142.696 77.4612 142.484 77.4612 142.212C77.4612 142.012 77.3892 141.856 77.2452 141.744C77.1012 141.632 76.9092 141.548 76.6692 141.492C76.4372 141.436 76.1772 141.388 75.8892 141.348C75.6012 141.3 75.3132 141.244 75.0252 141.18C74.7372 141.108 74.4732 141.012 74.2332 140.892C73.9932 140.764 73.8012 140.592 73.6572 140.376C73.5132 140.152 73.4412 139.856 73.4412 139.488C73.4412 139.104 73.5492 138.768 73.7652 138.48C73.9812 138.192 74.2852 137.972 74.6772 137.82C75.0772 137.66 75.5492 137.58 76.0932 137.58C76.5092 137.58 76.9292 137.632 77.3532 137.736C77.7852 137.832 78.1372 137.972 78.4092 138.156L77.9172 139.068C77.6292 138.876 77.3292 138.744 77.0172 138.672C76.7052 138.6 76.3932 138.564 76.0812 138.564C75.5772 138.564 75.2012 138.648 74.9532 138.816C74.7052 138.976 74.5812 139.184 74.5812 139.44C74.5812 139.656 74.6532 139.824 74.7972 139.944C74.9492 140.056 75.1412 140.144 75.3732 140.208C75.6132 140.272 75.8772 140.328 76.1652 140.376C76.4532 140.416 76.7412 140.472 77.0292 140.544C77.3172 140.608 77.5772 140.7 77.8092 140.82C78.0492 140.94 78.2412 141.108 78.3852 141.324C78.5372 141.54 78.6132 141.828 78.6132 142.188C78.6132 142.572 78.5012 142.904 78.2772 143.184C78.0532 143.464 77.7372 143.684 77.3292 143.844C76.9212 143.996 76.4332 144.072 75.8652 144.072ZM85.4596 144.072C84.8196 144.072 84.3236 143.9 83.9716 143.556C83.6196 143.212 83.4436 142.72 83.4436 142.08V136.248H84.5956V142.032C84.5956 142.376 84.6796 142.64 84.8476 142.824C85.0236 143.008 85.2716 143.1 85.5916 143.1C85.9516 143.1 86.2516 143 86.4916 142.8L86.8516 143.628C86.6756 143.78 86.4636 143.892 86.2156 143.964C85.9756 144.036 85.7236 144.072 85.4596 144.072ZM82.3636 138.588V137.64H86.4196V138.588H82.3636ZM91.6403 137.58C92.1603 137.58 92.6163 137.68 93.0083 137.88C93.4083 138.08 93.7203 138.384 93.9443 138.792C94.1683 139.2 94.2803 139.716 94.2803 140.34V144H93.1283V140.472C93.1283 139.856 92.9763 139.392 92.6723 139.08C92.3763 138.768 91.9563 138.612 91.4123 138.612C91.0043 138.612 90.6483 138.692 90.3443 138.852C90.0403 139.012 89.8043 139.248 89.6363 139.56C89.4763 139.872 89.3963 140.26 89.3963 140.724V144H88.2443V135.096H89.3963V139.356L89.1683 138.9C89.3763 138.484 89.6963 138.16 90.1283 137.928C90.5603 137.696 91.0643 137.58 91.6403 137.58ZM99.2443 144.072C98.5643 144.072 97.9643 143.932 97.4443 143.652C96.9323 143.372 96.5323 142.988 96.2443 142.5C95.9643 142.012 95.8243 141.452 95.8243 140.82C95.8243 140.188 95.9603 139.628 96.2323 139.14C96.5123 138.652 96.8923 138.272 97.3723 138C97.8603 137.72 98.4083 137.58 99.0163 137.58C99.6323 137.58 100.176 137.716 100.648 137.988C101.12 138.26 101.488 138.644 101.752 139.14C102.024 139.628 102.16 140.2 102.16 140.856C102.16 140.904 102.156 140.96 102.148 141.024C102.148 141.088 102.144 141.148 102.136 141.204H96.7243V140.376H101.536L101.068 140.664C101.076 140.256 100.992 139.892 100.816 139.572C100.64 139.252 100.396 139.004 100.084 138.828C99.7803 138.644 99.4243 138.552 99.0163 138.552C98.6163 138.552 98.2603 138.644 97.9483 138.828C97.6363 139.004 97.3923 139.256 97.2163 139.584C97.0403 139.904 96.9523 140.272 96.9523 140.688V140.88C96.9523 141.304 97.0483 141.684 97.2403 142.02C97.4403 142.348 97.7163 142.604 98.0683 142.788C98.4203 142.972 98.8243 143.064 99.2803 143.064C99.6563 143.064 99.9963 143 100.3 142.872C100.612 142.744 100.884 142.552 101.116 142.296L101.752 143.04C101.464 143.376 101.104 143.632 100.672 143.808C100.248 143.984 99.7723 144.072 99.2443 144.072ZM109.767 146.4C109.183 146.4 108.615 146.316 108.063 146.148C107.519 145.988 107.075 145.756 106.731 145.452L107.283 144.564C107.579 144.82 107.943 145.02 108.375 145.164C108.807 145.316 109.259 145.392 109.731 145.392C110.483 145.392 111.035 145.216 111.387 144.864C111.739 144.512 111.915 143.976 111.915 143.256V141.912L112.035 140.652L111.975 139.38V137.64H113.067V143.136C113.067 144.256 112.787 145.08 112.227 145.608C111.667 146.136 110.847 146.4 109.767 146.4ZM109.623 143.736C109.007 143.736 108.455 143.608 107.967 143.352C107.487 143.088 107.103 142.724 106.815 142.26C106.535 141.796 106.395 141.26 106.395 140.652C106.395 140.036 106.535 139.5 106.815 139.044C107.103 138.58 107.487 138.22 107.967 137.964C108.455 137.708 109.007 137.58 109.623 137.58C110.167 137.58 110.663 137.692 111.111 137.916C111.559 138.132 111.915 138.468 112.179 138.924C112.451 139.38 112.587 139.956 112.587 140.652C112.587 141.34 112.451 141.912 112.179 142.368C111.915 142.824 111.559 143.168 111.111 143.4C110.663 143.624 110.167 143.736 109.623 143.736ZM109.755 142.728C110.179 142.728 110.555 142.64 110.883 142.464C111.211 142.288 111.467 142.044 111.651 141.732C111.843 141.42 111.939 141.06 111.939 140.652C111.939 140.244 111.843 139.884 111.651 139.572C111.467 139.26 111.211 139.02 110.883 138.852C110.555 138.676 110.179 138.588 109.755 138.588C109.331 138.588 108.951 138.676 108.615 138.852C108.287 139.02 108.027 139.26 107.835 139.572C107.651 139.884 107.559 140.244 107.559 140.652C107.559 141.06 107.651 141.42 107.835 141.732C108.027 142.044 108.287 142.288 108.615 142.464C108.951 142.64 109.331 142.728 109.755 142.728ZM115.268 144V137.64H116.372V139.368L116.264 138.936C116.44 138.496 116.736 138.16 117.152 137.928C117.568 137.696 118.08 137.58 118.688 137.58V138.696C118.64 138.688 118.592 138.684 118.544 138.684C118.504 138.684 118.464 138.684 118.424 138.684C117.808 138.684 117.32 138.868 116.96 139.236C116.6 139.604 116.42 140.136 116.42 140.832V144H115.268ZM123.587 144V142.656L123.527 142.404V140.112C123.527 139.624 123.383 139.248 123.095 138.984C122.815 138.712 122.391 138.576 121.823 138.576C121.447 138.576 121.079 138.64 120.719 138.768C120.359 138.888 120.055 139.052 119.807 139.26L119.327 138.396C119.655 138.132 120.047 137.932 120.503 137.796C120.967 137.652 121.451 137.58 121.955 137.58C122.827 137.58 123.499 137.792 123.971 138.216C124.443 138.64 124.679 139.288 124.679 140.16V144H123.587ZM121.499 144.072C121.027 144.072 120.611 143.992 120.251 143.832C119.899 143.672 119.627 143.452 119.435 143.172C119.243 142.884 119.147 142.56 119.147 142.2C119.147 141.856 119.227 141.544 119.387 141.264C119.555 140.984 119.823 140.76 120.191 140.592C120.567 140.424 121.071 140.34 121.703 140.34H123.719V141.168H121.751C121.175 141.168 120.787 141.264 120.587 141.456C120.387 141.648 120.287 141.88 120.287 142.152C120.287 142.464 120.411 142.716 120.659 142.908C120.907 143.092 121.251 143.184 121.691 143.184C122.123 143.184 122.499 143.088 122.819 142.896C123.147 142.704 123.383 142.424 123.527 142.056L123.755 142.848C123.603 143.224 123.335 143.524 122.951 143.748C122.567 143.964 122.083 144.072 121.499 144.072ZM130.183 144.072C129.655 144.072 129.171 143.952 128.731 143.712C128.299 143.464 127.951 143.1 127.687 142.62C127.431 142.14 127.303 141.54 127.303 140.82C127.303 140.1 127.427 139.5 127.675 139.02C127.931 138.54 128.275 138.18 128.707 137.94C129.147 137.7 129.639 137.58 130.183 137.58C130.807 137.58 131.359 137.716 131.839 137.988C132.319 138.26 132.699 138.64 132.979 139.128C133.259 139.608 133.399 140.172 133.399 140.82C133.399 141.468 133.259 142.036 132.979 142.524C132.699 143.012 132.319 143.392 131.839 143.664C131.359 143.936 130.807 144.072 130.183 144.072ZM126.811 146.328V137.64H127.915V139.356L127.843 140.832L127.963 142.308V146.328H126.811ZM130.087 143.064C130.495 143.064 130.859 142.972 131.179 142.788C131.507 142.604 131.763 142.344 131.947 142.008C132.139 141.664 132.235 141.268 132.235 140.82C132.235 140.364 132.139 139.972 131.947 139.644C131.763 139.308 131.507 139.048 131.179 138.864C130.859 138.68 130.495 138.588 130.087 138.588C129.687 138.588 129.323 138.68 128.995 138.864C128.675 139.048 128.419 139.308 128.227 139.644C128.043 139.972 127.951 140.364 127.951 140.82C127.951 141.268 128.043 141.664 128.227 142.008C128.419 142.344 128.675 142.604 128.995 142.788C129.323 142.972 129.687 143.064 130.087 143.064ZM138.386 137.58C138.906 137.58 139.362 137.68 139.754 137.88C140.154 138.08 140.466 138.384 140.69 138.792C140.914 139.2 141.026 139.716 141.026 140.34V144H139.874V140.472C139.874 139.856 139.722 139.392 139.418 139.08C139.122 138.768 138.702 138.612 138.158 138.612C137.75 138.612 137.394 138.692 137.09 138.852C136.786 139.012 136.55 139.248 136.382 139.56C136.222 139.872 136.142 140.26 136.142 140.724V144H134.99V135.096H136.142V139.356L135.914 138.9C136.122 138.484 136.442 138.16 136.874 137.928C137.306 137.696 137.81 137.58 138.386 137.58ZM143.158 144V137.64H144.31V144H143.158ZM143.734 136.416C143.51 136.416 143.322 136.344 143.17 136.2C143.026 136.056 142.954 135.88 142.954 135.672C142.954 135.456 143.026 135.276 143.17 135.132C143.322 134.988 143.51 134.916 143.734 134.916C143.958 134.916 144.142 134.988 144.286 135.132C144.438 135.268 144.514 135.44 144.514 135.648C144.514 135.864 144.442 136.048 144.298 136.2C144.154 136.344 143.966 136.416 143.734 136.416ZM149.282 144.072C148.634 144.072 148.054 143.932 147.542 143.652C147.038 143.372 146.642 142.988 146.354 142.5C146.066 142.012 145.922 141.452 145.922 140.82C145.922 140.188 146.066 139.628 146.354 139.14C146.642 138.652 147.038 138.272 147.542 138C148.054 137.72 148.634 137.58 149.282 137.58C149.858 137.58 150.37 137.696 150.818 137.928C151.274 138.152 151.626 138.488 151.874 138.936L150.998 139.5C150.79 139.188 150.534 138.96 150.23 138.816C149.934 138.664 149.614 138.588 149.27 138.588C148.854 138.588 148.482 138.68 148.154 138.864C147.826 139.048 147.566 139.308 147.374 139.644C147.182 139.972 147.086 140.364 147.086 140.82C147.086 141.276 147.182 141.672 147.374 142.008C147.566 142.344 147.826 142.604 148.154 142.788C148.482 142.972 148.854 143.064 149.27 143.064C149.614 143.064 149.934 142.992 150.23 142.848C150.534 142.696 150.79 142.464 150.998 142.152L151.874 142.704C151.626 143.144 151.274 143.484 150.818 143.724C150.37 143.956 149.858 144.072 149.282 144.072ZM62.135 159V152.64H63.287V159H62.135ZM62.711 151.416C62.487 151.416 62.299 151.344 62.147 151.2C62.003 151.056 61.931 150.88 61.931 150.672C61.931 150.456 62.003 150.276 62.147 150.132C62.299 149.988 62.487 149.916 62.711 149.916C62.935 149.916 63.119 149.988 63.263 150.132C63.415 150.268 63.491 150.44 63.491 150.648C63.491 150.864 63.419 151.048 63.275 151.2C63.131 151.344 62.943 151.416 62.711 151.416ZM68.8825 152.58C69.4025 152.58 69.8585 152.68 70.2505 152.88C70.6505 153.08 70.9625 153.384 71.1865 153.792C71.4105 154.2 71.5225 154.716 71.5225 155.34V159H70.3705V155.472C70.3705 154.856 70.2185 154.392 69.9145 154.08C69.6185 153.768 69.1985 153.612 68.6545 153.612C68.2465 153.612 67.8905 153.692 67.5865 153.852C67.2825 154.012 67.0465 154.248 66.8785 154.56C66.7185 154.872 66.6385 155.26 66.6385 155.724V159H65.4865V152.64H66.5905V154.356L66.4105 153.9C66.6185 153.484 66.9385 153.16 67.3705 152.928C67.8025 152.696 68.3065 152.58 68.8825 152.58ZM76.2825 159.072C75.6665 159.072 75.1145 158.936 74.6265 158.664C74.1465 158.392 73.7665 158.012 73.4865 157.524C73.2065 157.036 73.0665 156.468 73.0665 155.82C73.0665 155.172 73.2065 154.608 73.4865 154.128C73.7665 153.64 74.1465 153.26 74.6265 152.988C75.1145 152.716 75.6665 152.58 76.2825 152.58C76.8185 152.58 77.3025 152.7 77.7345 152.94C78.1665 153.18 78.5105 153.54 78.7665 154.02C79.0305 154.5 79.1625 155.1 79.1625 155.82C79.1625 156.54 79.0345 157.14 78.7785 157.62C78.5305 158.1 78.1905 158.464 77.7585 158.712C77.3265 158.952 76.8345 159.072 76.2825 159.072ZM76.3785 158.064C76.7785 158.064 77.1385 157.972 77.4585 157.788C77.7865 157.604 78.0425 157.344 78.2265 157.008C78.4185 156.664 78.5145 156.268 78.5145 155.82C78.5145 155.364 78.4185 154.972 78.2265 154.644C78.0425 154.308 77.7865 154.048 77.4585 153.864C77.1385 153.68 76.7785 153.588 76.3785 153.588C75.9705 153.588 75.6065 153.68 75.2865 153.864C74.9665 154.048 74.7105 154.308 74.5185 154.644C74.3265 154.972 74.2305 155.364 74.2305 155.82C74.2305 156.268 74.3265 156.664 74.5185 157.008C74.7105 157.344 74.9665 157.604 75.2865 157.788C75.6065 157.972 75.9705 158.064 76.3785 158.064ZM78.5505 159V157.284L78.6225 155.808L78.5025 154.332V150.096H79.6545V159H78.5505ZM81.8342 159V152.64H82.9862V159H81.8342ZM82.4102 151.416C82.1862 151.416 81.9982 151.344 81.8462 151.2C81.7022 151.056 81.6302 150.88 81.6302 150.672C81.6302 150.456 81.7022 150.276 81.8462 150.132C81.9982 149.988 82.1862 149.916 82.4102 149.916C82.6342 149.916 82.8182 149.988 82.9622 150.132C83.1142 150.268 83.1902 150.44 83.1902 150.648C83.1902 150.864 83.1182 151.048 82.9742 151.2C82.8302 151.344 82.6422 151.416 82.4102 151.416ZM87.9578 159.072C87.3098 159.072 86.7298 158.932 86.2178 158.652C85.7138 158.372 85.3178 157.988 85.0298 157.5C84.7418 157.012 84.5978 156.452 84.5978 155.82C84.5978 155.188 84.7418 154.628 85.0298 154.14C85.3178 153.652 85.7138 153.272 86.2178 153C86.7298 152.72 87.3098 152.58 87.9578 152.58C88.5338 152.58 89.0458 152.696 89.4938 152.928C89.9498 153.152 90.3018 153.488 90.5498 153.936L89.6738 154.5C89.4658 154.188 89.2098 153.96 88.9058 153.816C88.6098 153.664 88.2898 153.588 87.9458 153.588C87.5298 153.588 87.1578 153.68 86.8298 153.864C86.5018 154.048 86.2418 154.308 86.0498 154.644C85.8578 154.972 85.7618 155.364 85.7618 155.82C85.7618 156.276 85.8578 156.672 86.0498 157.008C86.2418 157.344 86.5018 157.604 86.8298 157.788C87.1578 157.972 87.5298 158.064 87.9458 158.064C88.2898 158.064 88.6098 157.992 88.9058 157.848C89.2098 157.696 89.4658 157.464 89.6738 157.152L90.5498 157.704C90.3018 158.144 89.9498 158.484 89.4938 158.724C89.0458 158.956 88.5338 159.072 87.9578 159.072ZM95.9892 159V157.656L95.9292 157.404V155.112C95.9292 154.624 95.7852 154.248 95.4972 153.984C95.2172 153.712 94.7932 153.576 94.2252 153.576C93.8492 153.576 93.4812 153.64 93.1212 153.768C92.7612 153.888 92.4572 154.052 92.2092 154.26L91.7292 153.396C92.0572 153.132 92.4492 152.932 92.9052 152.796C93.3692 152.652 93.8532 152.58 94.3572 152.58C95.2292 152.58 95.9012 152.792 96.3732 153.216C96.8452 153.64 97.0812 154.288 97.0812 155.16V159H95.9892ZM93.9012 159.072C93.4292 159.072 93.0132 158.992 92.6532 158.832C92.3012 158.672 92.0292 158.452 91.8372 158.172C91.6452 157.884 91.5492 157.56 91.5492 157.2C91.5492 156.856 91.6292 156.544 91.7892 156.264C91.9572 155.984 92.2252 155.76 92.5932 155.592C92.9692 155.424 93.4732 155.34 94.1052 155.34H96.1212V156.168H94.1532C93.5772 156.168 93.1892 156.264 92.9892 156.456C92.7892 156.648 92.6892 156.88 92.6892 157.152C92.6892 157.464 92.8132 157.716 93.0612 157.908C93.3092 158.092 93.6532 158.184 94.0932 158.184C94.5252 158.184 94.9012 158.088 95.2212 157.896C95.5492 157.704 95.7852 157.424 95.9292 157.056L96.1572 157.848C96.0052 158.224 95.7372 158.524 95.3532 158.748C94.9692 158.964 94.4852 159.072 93.9012 159.072ZM101.397 159.072C100.757 159.072 100.261 158.9 99.9091 158.556C99.5571 158.212 99.3811 157.72 99.3811 157.08V151.248H100.533V157.032C100.533 157.376 100.617 157.64 100.785 157.824C100.961 158.008 101.209 158.1 101.529 158.1C101.889 158.1 102.189 158 102.429 157.8L102.789 158.628C102.613 158.78 102.401 158.892 102.153 158.964C101.913 159.036 101.661 159.072 101.397 159.072ZM98.3011 153.588V152.64H102.357V153.588H98.3011ZM106.803 159.072C106.123 159.072 105.523 158.932 105.003 158.652C104.491 158.372 104.091 157.988 103.803 157.5C103.523 157.012 103.383 156.452 103.383 155.82C103.383 155.188 103.519 154.628 103.791 154.14C104.071 153.652 104.451 153.272 104.931 153C105.419 152.72 105.967 152.58 106.575 152.58C107.191 152.58 107.735 152.716 108.207 152.988C108.679 153.26 109.047 153.644 109.311 154.14C109.583 154.628 109.719 155.2 109.719 155.856C109.719 155.904 109.715 155.96 109.707 156.024C109.707 156.088 109.703 156.148 109.695 156.204H104.283V155.376H109.095L108.627 155.664C108.635 155.256 108.551 154.892 108.375 154.572C108.199 154.252 107.955 154.004 107.643 153.828C107.339 153.644 106.983 153.552 106.575 153.552C106.175 153.552 105.819 153.644 105.507 153.828C105.195 154.004 104.951 154.256 104.775 154.584C104.599 154.904 104.511 155.272 104.511 155.688V155.88C104.511 156.304 104.607 156.684 104.799 157.02C104.999 157.348 105.275 157.604 105.627 157.788C105.979 157.972 106.383 158.064 106.839 158.064C107.215 158.064 107.555 158 107.859 157.872C108.171 157.744 108.443 157.552 108.675 157.296L109.311 158.04C109.023 158.376 108.663 158.632 108.231 158.808C107.807 158.984 107.331 159.072 106.803 159.072ZM113.143 159.072C112.615 159.072 112.111 159 111.631 158.856C111.159 158.712 110.787 158.536 110.515 158.328L110.995 157.416C111.267 157.6 111.603 157.756 112.003 157.884C112.403 158.012 112.811 158.076 113.227 158.076C113.763 158.076 114.147 158 114.379 157.848C114.619 157.696 114.739 157.484 114.739 157.212C114.739 157.012 114.667 156.856 114.523 156.744C114.379 156.632 114.187 156.548 113.947 156.492C113.715 156.436 113.455 156.388 113.167 156.348C112.879 156.3 112.591 156.244 112.303 156.18C112.015 156.108 111.751 156.012 111.511 155.892C111.271 155.764 111.079 155.592 110.935 155.376C110.791 155.152 110.719 154.856 110.719 154.488C110.719 154.104 110.827 153.768 111.043 153.48C111.259 153.192 111.563 152.972 111.955 152.82C112.355 152.66 112.827 152.58 113.371 152.58C113.787 152.58 114.207 152.632 114.631 152.736C115.063 152.832 115.415 152.972 115.687 153.156L115.195 154.068C114.907 153.876 114.607 153.744 114.295 153.672C113.983 153.6 113.671 153.564 113.359 153.564C112.855 153.564 112.479 153.648 112.231 153.816C111.983 153.976 111.859 154.184 111.859 154.44C111.859 154.656 111.931 154.824 112.075 154.944C112.227 155.056 112.419 155.144 112.651 155.208C112.891 155.272 113.155 155.328 113.443 155.376C113.731 155.416 114.019 155.472 114.307 155.544C114.595 155.608 114.855 155.7 115.087 155.82C115.327 155.94 115.519 156.108 115.663 156.324C115.815 156.54 115.891 156.828 115.891 157.188C115.891 157.572 115.779 157.904 115.555 158.184C115.331 158.464 115.015 158.684 114.607 158.844C114.199 158.996 113.711 159.072 113.143 159.072ZM117.606 159.072C117.382 159.072 117.19 158.996 117.03 158.844C116.87 158.684 116.79 158.484 116.79 158.244C116.79 158.004 116.87 157.808 117.03 157.656C117.19 157.504 117.382 157.428 117.606 157.428C117.822 157.428 118.006 157.504 118.158 157.656C118.318 157.808 118.398 158.004 118.398 158.244C118.398 158.484 118.318 158.684 118.158 158.844C118.006 158.996 117.822 159.072 117.606 159.072Z" fill="#008E86"/>
<path d="M72.7484 93.9962L85.7488 98.9963L72.7485 98.9963L72.7484 93.9962Z" fill="#00D8CC" stroke="#00635D" stroke-width="2" stroke-linejoin="round"/>
<path d="M34.749 87L56.749 40L56.749 92.5L34.749 87Z" fill="#00D8CC" stroke="#00635D" stroke-width="2" stroke-linejoin="round"/>
<path d="M45.249 98.999L34.7484 87.0016L50.2484 81.4989L60.2617 101.002L45.249 98.999Z" fill="#008E86" stroke="#00635D" stroke-width="2" stroke-linejoin="round"/>
<g clip-path="url(#clip0_16_169)">
<path d="M82.25 97L109 57.5L117.25 25.5L129.75 74V99L82.25 97Z" fill="#008E86" stroke="#00635D" stroke-width="1.60526" stroke-linejoin="round"/>
<path d="M82.25 97L102.5 67L129.5 74L129.75 99L82.25 97Z" fill="#00D8CC" stroke="#00635D" stroke-width="1.60526" stroke-linejoin="round"/>
<path d="M102.5 67.5L109 57.5L129.5 74L102.5 67.5Z" fill="#008E86" stroke="#00635D" stroke-width="1.60526" stroke-linejoin="round"/>
<path d="M102.5 67.5L115 59.5L129.5 74L102.5 67.5Z" fill="#008E86" stroke="#00635D" stroke-width="1.60526" stroke-linejoin="round"/>
<path d="M115 60L117.25 26L129.75 75L115 60Z" fill="#00D8CC" stroke="#00635D" stroke-width="1.60526" stroke-linejoin="round"/>
</g>
<rect x="86.6118" y="21.6118" width="58.7763" height="58.7763" rx="29.3882" stroke="#333333" stroke-width="1.22369"/>
<path d="M69.7819 48.3693C69.4336 47.9407 68.8038 47.8756 68.3752 48.2239C67.9466 48.5722 67.8815 49.202 68.2298 49.6306L69.7819 48.3693ZM60.0503 79.2909C59.8878 79.8187 60.184 80.3784 60.7118 80.5409L69.3133 83.1894C69.8411 83.3519 70.4007 83.0558 70.5633 82.5279C70.7258 82.0001 70.4296 81.4405 69.9018 81.2779L62.2561 78.9237L64.6103 71.278C64.7728 70.7501 64.4767 70.1905 63.9488 70.028C63.421 69.8654 62.8614 70.1616 62.6988 70.6894L60.0503 79.2909ZM68.2298 49.6306C71.2291 53.3215 72.1102 59.1 70.7824 64.7831C69.4597 70.4448 65.9845 75.8194 60.5383 78.7013L61.4738 80.469C67.5274 77.2657 71.3026 71.3478 72.73 65.2381C74.1524 59.1499 73.2835 52.6784 69.7819 48.3693L68.2298 49.6306Z" fill="black"/>
<path d="M50.2481 81.4961L72.7481 90.4961L72.7481 98.9961L59.2481 98.9961L50.2481 81.4961Z" fill="#00D8CC" stroke="#00635D" stroke-width="2" stroke-linejoin="round"/>
<path d="M47.2627 59L56.2627 69L44.001 66.5" stroke="#333333" stroke-width="2" stroke-linejoin="bevel" stroke-dasharray="4 4"/>
<defs>
<clipPath id="clip0_16_169">
<rect x="86" y="21" width="60" height="60" rx="30" fill="white"/>
</clipPath>
</defs>
</svg>
