<svg width="180" height="180" viewBox="0 0 180 180" fill="none" xmlns="http://www.w3.org/2000/svg">
<rect width="180" height="180" rx="20" fill="#F2F2F2"/>
<path d="M30.4163 137V128.6H34.1843C35.1523 128.6 35.8963 128.796 36.4163 129.188C36.9363 129.572 37.1963 130.1 37.1963 130.772C37.1963 131.228 37.0923 131.612 36.8843 131.924C36.6843 132.236 36.4123 132.476 36.0683 132.644C35.7243 132.812 35.3523 132.896 34.9523 132.896L35.1683 132.536C35.6483 132.536 36.0723 132.62 36.4403 132.788C36.8083 132.956 37.1003 133.204 37.3163 133.532C37.5323 133.852 37.6403 134.252 37.6403 134.732C37.6403 135.452 37.3683 136.012 36.8243 136.412C36.2883 136.804 35.4883 137 34.4243 137H30.4163ZM31.6163 136.028H34.3763C35.0403 136.028 35.5483 135.916 35.9003 135.692C36.2523 135.468 36.4283 135.116 36.4283 134.636C36.4283 134.148 36.2523 133.792 35.9003 133.568C35.5483 133.344 35.0403 133.232 34.3763 133.232H31.5083V132.26H34.0763C34.6843 132.26 35.1563 132.148 35.4922 131.924C35.8283 131.7 35.9963 131.364 35.9963 130.916C35.9963 130.468 35.8283 130.132 35.4922 129.908C35.1563 129.684 34.6843 129.572 34.0763 129.572H31.6163V136.028ZM42.1623 137.072C41.4823 137.072 40.8823 136.932 40.3623 136.652C39.8503 136.372 39.4503 135.988 39.1623 135.5C38.8823 135.012 38.7423 134.452 38.7423 133.82C38.7423 133.188 38.8783 132.628 39.1503 132.14C39.4303 131.652 39.8103 131.272 40.2903 131C40.7783 130.72 41.3263 130.58 41.9343 130.58C42.5503 130.58 43.0943 130.716 43.5663 130.988C44.0383 131.26 44.4063 131.644 44.6703 132.14C44.9423 132.628 45.0783 133.2 45.0783 133.856C45.0783 133.904 45.0743 133.96 45.0663 134.024C45.0663 134.088 45.0623 134.148 45.0543 134.204H39.6423V133.376H44.4543L43.9863 133.664C43.9943 133.256 43.9103 132.892 43.7343 132.572C43.5583 132.252 43.3143 132.004 43.0023 131.828C42.6983 131.644 42.3423 131.552 41.9343 131.552C41.5343 131.552 41.1783 131.644 40.8663 131.828C40.5543 132.004 40.3103 132.256 40.1343 132.584C39.9583 132.904 39.8703 133.272 39.8703 133.688V133.88C39.8703 134.304 39.9663 134.684 40.1583 135.02C40.3583 135.348 40.6343 135.604 40.9863 135.788C41.3383 135.972 41.7423 136.064 42.1983 136.064C42.5743 136.064 42.9143 136 43.2183 135.872C43.5303 135.744 43.8023 135.552 44.0343 135.296L44.6703 136.04C44.3823 136.376 44.0223 136.632 43.5903 136.808C43.1663 136.984 42.6903 137.072 42.1623 137.072ZM50.0739 130.58C50.5939 130.58 51.0499 130.68 51.4419 130.88C51.8419 131.08 52.1539 131.384 52.3779 131.792C52.6019 132.2 52.7139 132.716 52.7139 133.34V137H51.5619V133.472C51.5619 132.856 51.4099 132.392 51.1059 132.08C50.8099 131.768 50.3899 131.612 49.8459 131.612C49.4379 131.612 49.0819 131.692 48.7779 131.852C48.4739 132.012 48.2379 132.248 48.0699 132.56C47.9099 132.872 47.8299 133.26 47.8299 133.724V137H46.6779V130.64H47.7819V132.356L47.6019 131.9C47.8099 131.484 48.1299 131.16 48.5619 130.928C48.9939 130.696 49.4979 130.58 50.0739 130.58ZM57.4739 137.072C56.8579 137.072 56.3059 136.936 55.8179 136.664C55.3379 136.392 54.9579 136.012 54.6779 135.524C54.3979 135.036 54.2579 134.468 54.2579 133.82C54.2579 133.172 54.3979 132.608 54.6779 132.128C54.9579 131.64 55.3379 131.26 55.8179 130.988C56.3059 130.716 56.8579 130.58 57.4739 130.58C58.0099 130.58 58.4939 130.7 58.9259 130.94C59.3579 131.18 59.7019 131.54 59.9579 132.02C60.2219 132.5 60.3539 133.1 60.3539 133.82C60.3539 134.54 60.2259 135.14 59.9699 135.62C59.7219 136.1 59.3819 136.464 58.9499 136.712C58.5179 136.952 58.0259 137.072 57.4739 137.072ZM57.5699 136.064C57.9699 136.064 58.3299 135.972 58.6499 135.788C58.9779 135.604 59.2339 135.344 59.4179 135.008C59.6099 134.664 59.7059 134.268 59.7059 133.82C59.7059 133.364 59.6099 132.972 59.4179 132.644C59.2339 132.308 58.9779 132.048 58.6499 131.864C58.3299 131.68 57.9699 131.588 57.5699 131.588C57.1619 131.588 56.7979 131.68 56.4779 131.864C56.1579 132.048 55.9019 132.308 55.7099 132.644C55.5179 132.972 55.4219 133.364 55.4219 133.82C55.4219 134.268 55.5179 134.664 55.7099 135.008C55.9019 135.344 56.1579 135.604 56.4779 135.788C56.7979 135.972 57.1619 136.064 57.5699 136.064ZM59.7419 137V135.284L59.8139 133.808L59.6939 132.332V128.096H60.8459V137H59.7419ZM68.4323 137.072C67.7923 137.072 67.2963 136.9 66.9443 136.556C66.5923 136.212 66.4163 135.72 66.4163 135.08V129.248H67.5683V135.032C67.5683 135.376 67.6523 135.64 67.8203 135.824C67.9963 136.008 68.2443 136.1 68.5643 136.1C68.9243 136.1 69.2243 136 69.4643 135.8L69.8243 136.628C69.6483 136.78 69.4363 136.892 69.1883 136.964C68.9483 137.036 68.6963 137.072 68.4323 137.072ZM65.3363 131.588V130.64H69.3923V131.588H65.3363ZM74.613 130.58C75.133 130.58 75.589 130.68 75.981 130.88C76.381 131.08 76.693 131.384 76.917 131.792C77.141 132.2 77.253 132.716 77.253 133.34V137H76.101V133.472C76.101 132.856 75.949 132.392 75.645 132.08C75.349 131.768 74.929 131.612 74.385 131.612C73.977 131.612 73.621 131.692 73.317 131.852C73.013 132.012 72.777 132.248 72.609 132.56C72.449 132.872 72.369 133.26 72.369 133.724V137H71.217V128.096H72.369V132.356L72.141 131.9C72.349 131.484 72.669 131.16 73.101 130.928C73.533 130.696 74.037 130.58 74.613 130.58ZM82.217 137.072C81.537 137.072 80.937 136.932 80.417 136.652C79.905 136.372 79.505 135.988 79.217 135.5C78.937 135.012 78.797 134.452 78.797 133.82C78.797 133.188 78.933 132.628 79.205 132.14C79.485 131.652 79.865 131.272 80.345 131C80.833 130.72 81.381 130.58 81.989 130.58C82.605 130.58 83.149 130.716 83.621 130.988C84.093 131.26 84.461 131.644 84.725 132.14C84.997 132.628 85.133 133.2 85.133 133.856C85.133 133.904 85.129 133.96 85.121 134.024C85.121 134.088 85.117 134.148 85.109 134.204H79.697V133.376H84.509L84.041 133.664C84.049 133.256 83.965 132.892 83.789 132.572C83.613 132.252 83.369 132.004 83.057 131.828C82.753 131.644 82.397 131.552 81.989 131.552C81.589 131.552 81.233 131.644 80.921 131.828C80.609 132.004 80.365 132.256 80.189 132.584C80.013 132.904 79.925 133.272 79.925 133.688V133.88C79.925 134.304 80.021 134.684 80.213 135.02C80.413 135.348 80.689 135.604 81.041 135.788C81.393 135.972 81.797 136.064 82.253 136.064C82.629 136.064 82.969 136 83.273 135.872C83.585 135.744 83.857 135.552 84.089 135.296L84.725 136.04C84.437 136.376 84.077 136.632 83.645 136.808C83.221 136.984 82.745 137.072 82.217 137.072ZM92.1393 137.072C91.4993 137.072 91.0033 136.9 90.6513 136.556C90.2993 136.212 90.1233 135.72 90.1233 135.08V129.248H91.2753V135.032C91.2753 135.376 91.3593 135.64 91.5273 135.824C91.7033 136.008 91.9513 136.1 92.2713 136.1C92.6313 136.1 92.9313 136 93.1713 135.8L93.5313 136.628C93.3553 136.78 93.1433 136.892 92.8953 136.964C92.6553 137.036 92.4033 137.072 92.1393 137.072ZM89.0433 131.588V130.64H93.0993V131.588H89.0433ZM94.924 137V130.64H96.076V137H94.924ZM95.5 129.416C95.276 129.416 95.088 129.344 94.936 129.2C94.792 129.056 94.72 128.88 94.72 128.672C94.72 128.456 94.792 128.276 94.936 128.132C95.088 127.988 95.276 127.916 95.5 127.916C95.724 127.916 95.908 127.988 96.052 128.132C96.204 128.268 96.28 128.44 96.28 128.648C96.28 128.864 96.208 129.048 96.064 129.2C95.92 129.344 95.732 129.416 95.5 129.416ZM101.648 137.072C101.12 137.072 100.636 136.952 100.196 136.712C99.7636 136.464 99.4156 136.1 99.1516 135.62C98.8956 135.14 98.7676 134.54 98.7676 133.82C98.7676 133.1 98.8916 132.5 99.1396 132.02C99.3956 131.54 99.7396 131.18 100.172 130.94C100.612 130.7 101.104 130.58 101.648 130.58C102.272 130.58 102.824 130.716 103.304 130.988C103.784 131.26 104.164 131.64 104.444 132.128C104.724 132.608 104.864 133.172 104.864 133.82C104.864 134.468 104.724 135.036 104.444 135.524C104.164 136.012 103.784 136.392 103.304 136.664C102.824 136.936 102.272 137.072 101.648 137.072ZM98.2756 139.328V130.64H99.3796V132.356L99.3076 133.832L99.4276 135.308V139.328H98.2756ZM101.552 136.064C101.96 136.064 102.324 135.972 102.644 135.788C102.972 135.604 103.228 135.344 103.412 135.008C103.604 134.664 103.7 134.268 103.7 133.82C103.7 133.364 103.604 132.972 103.412 132.644C103.228 132.308 102.972 132.048 102.644 131.864C102.324 131.68 101.96 131.588 101.552 131.588C101.152 131.588 100.788 131.68 100.46 131.864C100.14 132.048 99.8836 132.308 99.6916 132.644C99.5076 132.972 99.4156 133.364 99.4156 133.82C99.4156 134.268 99.5076 134.664 99.6916 135.008C99.8836 135.344 100.14 135.604 100.46 135.788C100.788 135.972 101.152 136.064 101.552 136.064ZM112.402 137.072C111.762 137.072 111.194 136.932 110.698 136.652C110.202 136.372 109.81 135.988 109.522 135.5C109.234 135.004 109.09 134.444 109.09 133.82C109.09 133.188 109.234 132.628 109.522 132.14C109.81 131.652 110.202 131.272 110.698 131C111.194 130.72 111.762 130.58 112.402 130.58C113.034 130.58 113.598 130.72 114.094 131C114.598 131.272 114.99 131.652 115.27 132.14C115.558 132.62 115.702 133.18 115.702 133.82C115.702 134.452 115.558 135.012 115.27 135.5C114.99 135.988 114.598 136.372 114.094 136.652C113.598 136.932 113.034 137.072 112.402 137.072ZM112.402 136.064C112.81 136.064 113.174 135.972 113.494 135.788C113.822 135.604 114.078 135.344 114.262 135.008C114.446 134.664 114.538 134.268 114.538 133.82C114.538 133.364 114.446 132.972 114.262 132.644C114.078 132.308 113.822 132.048 113.494 131.864C113.174 131.68 112.81 131.588 112.402 131.588C111.994 131.588 111.63 131.68 111.31 131.864C110.99 132.048 110.734 132.308 110.542 132.644C110.35 132.972 110.254 133.364 110.254 133.82C110.254 134.268 110.35 134.664 110.542 135.008C110.734 135.344 110.99 135.604 111.31 135.788C111.63 135.972 111.994 136.064 112.402 136.064ZM117.463 137V130.076C117.463 129.452 117.643 128.956 118.003 128.588C118.371 128.212 118.891 128.024 119.563 128.024C119.811 128.024 120.047 128.056 120.271 128.12C120.503 128.176 120.699 128.268 120.859 128.396L120.511 129.272C120.391 129.176 120.255 129.104 120.103 129.056C119.951 129 119.791 128.972 119.623 128.972C119.287 128.972 119.031 129.068 118.855 129.26C118.679 129.444 118.591 129.72 118.591 130.088V130.94L118.615 131.468V137H117.463ZM116.383 131.588V130.64H120.439V131.588H116.383ZM125.024 139.4C124.72 139.4 124.424 139.348 124.136 139.244C123.848 139.148 123.6 139.004 123.392 138.812L123.884 137.948C124.044 138.1 124.22 138.216 124.412 138.296C124.604 138.376 124.808 138.416 125.024 138.416C125.304 138.416 125.536 138.344 125.72 138.2C125.904 138.056 126.076 137.8 126.236 137.432L126.632 136.556L126.752 136.412L129.248 130.64H130.376L127.292 137.636C127.108 138.084 126.9 138.436 126.668 138.692C126.444 138.948 126.196 139.128 125.924 139.232C125.652 139.344 125.352 139.4 125.024 139.4ZM126.536 137.204L123.632 130.64H124.832L127.304 136.304L126.536 137.204ZM134 137.072C133.36 137.072 132.792 136.932 132.296 136.652C131.8 136.372 131.408 135.988 131.12 135.5C130.832 135.004 130.688 134.444 130.688 133.82C130.688 133.188 130.832 132.628 131.12 132.14C131.408 131.652 131.8 131.272 132.296 131C132.792 130.72 133.36 130.58 134 130.58C134.632 130.58 135.196 130.72 135.692 131C136.196 131.272 136.588 131.652 136.868 132.14C137.156 132.62 137.3 133.18 137.3 133.82C137.3 134.452 137.156 135.012 136.868 135.5C136.588 135.988 136.196 136.372 135.692 136.652C135.196 136.932 134.632 137.072 134 137.072ZM134 136.064C134.408 136.064 134.772 135.972 135.092 135.788C135.42 135.604 135.676 135.344 135.86 135.008C136.044 134.664 136.136 134.268 136.136 133.82C136.136 133.364 136.044 132.972 135.86 132.644C135.676 132.308 135.42 132.048 135.092 131.864C134.772 131.68 134.408 131.588 134 131.588C133.592 131.588 133.228 131.68 132.908 131.864C132.588 132.048 132.332 132.308 132.14 132.644C131.948 132.972 131.852 133.364 131.852 133.82C131.852 134.268 131.948 134.664 132.14 135.008C132.332 135.344 132.588 135.604 132.908 135.788C133.228 135.972 133.592 136.064 134 136.064ZM141.569 137.072C141.025 137.072 140.545 136.972 140.129 136.772C139.721 136.572 139.401 136.268 139.169 135.86C138.945 135.444 138.833 134.924 138.833 134.3V130.64H139.985V134.168C139.985 134.792 140.133 135.26 140.429 135.572C140.733 135.884 141.157 136.04 141.701 136.04C142.101 136.04 142.449 135.96 142.745 135.8C143.041 135.632 143.269 135.392 143.429 135.08C143.589 134.76 143.669 134.376 143.669 133.928V130.64H144.821V137H143.729V135.284L143.909 135.74C143.701 136.164 143.389 136.492 142.973 136.724C142.557 136.956 142.089 137.072 141.569 137.072ZM147.014 137V130.64H148.118V132.368L148.01 131.936C148.186 131.496 148.482 131.16 148.898 130.928C149.314 130.696 149.826 130.58 150.434 130.58V131.696C150.386 131.688 150.338 131.684 150.29 131.684C150.25 131.684 150.21 131.684 150.17 131.684C149.554 131.684 149.066 131.868 148.706 132.236C148.346 132.604 148.166 133.136 148.166 133.832V137H147.014ZM29.0798 145.58C29.5998 145.58 30.0558 145.68 30.4478 145.88C30.8478 146.08 31.1598 146.384 31.3838 146.792C31.6078 147.2 31.7198 147.716 31.7198 148.34V152H30.5678V148.472C30.5678 147.856 30.4158 147.392 30.1118 147.08C29.8158 146.768 29.3958 146.612 28.8518 146.612C28.4438 146.612 28.0878 146.692 27.7838 146.852C27.4798 147.012 27.2438 147.248 27.0758 147.56C26.9158 147.872 26.8358 148.26 26.8358 148.724V152H25.6838V143.096H26.8358V147.356L26.6078 146.9C26.8158 146.484 27.1358 146.16 27.5678 145.928C27.9998 145.696 28.5038 145.58 29.0798 145.58ZM36.6838 152.072C36.0038 152.072 35.4038 151.932 34.8838 151.652C34.3718 151.372 33.9718 150.988 33.6838 150.5C33.4038 150.012 33.2638 149.452 33.2638 148.82C33.2638 148.188 33.3998 147.628 33.6718 147.14C33.9518 146.652 34.3318 146.272 34.8118 146C35.2998 145.72 35.8478 145.58 36.4558 145.58C37.0718 145.58 37.6158 145.716 38.0878 145.988C38.5598 146.26 38.9278 146.644 39.1918 147.14C39.4638 147.628 39.5998 148.2 39.5998 148.856C39.5998 148.904 39.5958 148.96 39.5878 149.024C39.5878 149.088 39.5838 149.148 39.5758 149.204H34.1638V148.376H38.9758L38.5078 148.664C38.5158 148.256 38.4318 147.892 38.2558 147.572C38.0798 147.252 37.8358 147.004 37.5238 146.828C37.2198 146.644 36.8638 146.552 36.4558 146.552C36.0558 146.552 35.6998 146.644 35.3878 146.828C35.0758 147.004 34.8318 147.256 34.6558 147.584C34.4798 147.904 34.3918 148.272 34.3918 148.688V148.88C34.3918 149.304 34.4878 149.684 34.6798 150.02C34.8798 150.348 35.1558 150.604 35.5078 150.788C35.8598 150.972 36.2638 151.064 36.7198 151.064C37.0958 151.064 37.4358 151 37.7398 150.872C38.0518 150.744 38.3238 150.552 38.5558 150.296L39.1918 151.04C38.9038 151.376 38.5438 151.632 38.1118 151.808C37.6878 151.984 37.2118 152.072 36.6838 152.072ZM44.9716 152V150.656L44.9116 150.404V148.112C44.9116 147.624 44.7676 147.248 44.4796 146.984C44.1996 146.712 43.7756 146.576 43.2076 146.576C42.8316 146.576 42.4636 146.64 42.1036 146.768C41.7436 146.888 41.4396 147.052 41.1916 147.26L40.7116 146.396C41.0396 146.132 41.4316 145.932 41.8876 145.796C42.3516 145.652 42.8356 145.58 43.3396 145.58C44.2116 145.58 44.8836 145.792 45.3556 146.216C45.8276 146.64 46.0636 147.288 46.0636 148.16V152H44.9716ZM42.8836 152.072C42.4116 152.072 41.9956 151.992 41.6356 151.832C41.2836 151.672 41.0116 151.452 40.8196 151.172C40.6276 150.884 40.5316 150.56 40.5316 150.2C40.5316 149.856 40.6116 149.544 40.7716 149.264C40.9396 148.984 41.2076 148.76 41.5756 148.592C41.9516 148.424 42.4556 148.34 43.0876 148.34H45.1036V149.168H43.1356C42.5596 149.168 42.1716 149.264 41.9716 149.456C41.7716 149.648 41.6716 149.88 41.6716 150.152C41.6716 150.464 41.7956 150.716 42.0436 150.908C42.2916 151.092 42.6356 151.184 43.0756 151.184C43.5076 151.184 43.8836 151.088 44.2036 150.896C44.5316 150.704 44.7676 150.424 44.9116 150.056L45.1396 150.848C44.9876 151.224 44.7196 151.524 44.3356 151.748C43.9516 151.964 43.4676 152.072 42.8836 152.072ZM50.8235 152.072C50.2075 152.072 49.6555 151.936 49.1675 151.664C48.6875 151.392 48.3075 151.012 48.0275 150.524C47.7475 150.036 47.6075 149.468 47.6075 148.82C47.6075 148.172 47.7475 147.608 48.0275 147.128C48.3075 146.64 48.6875 146.26 49.1675 145.988C49.6555 145.716 50.2075 145.58 50.8235 145.58C51.3595 145.58 51.8435 145.7 52.2755 145.94C52.7075 146.18 53.0515 146.54 53.3075 147.02C53.5715 147.5 53.7035 148.1 53.7035 148.82C53.7035 149.54 53.5755 150.14 53.3195 150.62C53.0715 151.1 52.7315 151.464 52.2995 151.712C51.8675 151.952 51.3755 152.072 50.8235 152.072ZM50.9195 151.064C51.3195 151.064 51.6795 150.972 51.9995 150.788C52.3275 150.604 52.5835 150.344 52.7675 150.008C52.9595 149.664 53.0555 149.268 53.0555 148.82C53.0555 148.364 52.9595 147.972 52.7675 147.644C52.5835 147.308 52.3275 147.048 51.9995 146.864C51.6795 146.68 51.3195 146.588 50.9195 146.588C50.5115 146.588 50.1475 146.68 49.8275 146.864C49.5075 147.048 49.2515 147.308 49.0595 147.644C48.8675 147.972 48.7715 148.364 48.7715 148.82C48.7715 149.268 48.8675 149.664 49.0595 150.008C49.2515 150.344 49.5075 150.604 49.8275 150.788C50.1475 150.972 50.5115 151.064 50.9195 151.064ZM53.0915 152V150.284L53.1635 148.808L53.0435 147.332V143.096H54.1955V152H53.0915ZM59.5979 152V145.64H60.7499V152H59.5979ZM60.1739 144.416C59.9499 144.416 59.7619 144.344 59.6099 144.2C59.4659 144.056 59.3939 143.88 59.3939 143.672C59.3939 143.456 59.4659 143.276 59.6099 143.132C59.7619 142.988 59.9499 142.916 60.1739 142.916C60.3979 142.916 60.5819 142.988 60.7259 143.132C60.8779 143.268 60.9539 143.44 60.9539 143.648C60.9539 143.864 60.8819 144.048 60.7379 144.2C60.5939 144.344 60.4059 144.416 60.1739 144.416ZM66.3454 145.58C66.8654 145.58 67.3214 145.68 67.7134 145.88C68.1134 146.08 68.4254 146.384 68.6494 146.792C68.8734 147.2 68.9854 147.716 68.9854 148.34V152H67.8334V148.472C67.8334 147.856 67.6814 147.392 67.3774 147.08C67.0814 146.768 66.6614 146.612 66.1174 146.612C65.7094 146.612 65.3534 146.692 65.0494 146.852C64.7454 147.012 64.5094 147.248 64.3414 147.56C64.1814 147.872 64.1014 148.26 64.1014 148.724V152H62.9494V145.64H64.0534V147.356L63.8734 146.9C64.0814 146.484 64.4014 146.16 64.8334 145.928C65.2654 145.696 65.7694 145.58 66.3454 145.58ZM78.288 152V150.656L78.228 150.404V148.112C78.228 147.624 78.084 147.248 77.796 146.984C77.516 146.712 77.092 146.576 76.524 146.576C76.148 146.576 75.78 146.64 75.42 146.768C75.06 146.888 74.756 147.052 74.508 147.26L74.028 146.396C74.356 146.132 74.748 145.932 75.204 145.796C75.668 145.652 76.152 145.58 76.656 145.58C77.528 145.58 78.2 145.792 78.672 146.216C79.144 146.64 79.38 147.288 79.38 148.16V152H78.288ZM76.2 152.072C75.728 152.072 75.312 151.992 74.952 151.832C74.6 151.672 74.328 151.452 74.136 151.172C73.944 150.884 73.848 150.56 73.848 150.2C73.848 149.856 73.928 149.544 74.088 149.264C74.256 148.984 74.524 148.76 74.892 148.592C75.268 148.424 75.772 148.34 76.404 148.34H78.42V149.168H76.452C75.876 149.168 75.488 149.264 75.288 149.456C75.088 149.648 74.988 149.88 74.988 150.152C74.988 150.464 75.112 150.716 75.36 150.908C75.608 151.092 75.952 151.184 76.392 151.184C76.824 151.184 77.2 151.088 77.52 150.896C77.848 150.704 78.084 150.424 78.228 150.056L78.456 150.848C78.304 151.224 78.036 151.524 77.652 151.748C77.268 151.964 76.784 152.072 76.2 152.072ZM84.9079 145.58C85.4279 145.58 85.8839 145.68 86.2759 145.88C86.6759 146.08 86.9879 146.384 87.2119 146.792C87.4359 147.2 87.5479 147.716 87.5479 148.34V152H86.3959V148.472C86.3959 147.856 86.2439 147.392 85.9399 147.08C85.6439 146.768 85.2239 146.612 84.6799 146.612C84.2719 146.612 83.9159 146.692 83.6119 146.852C83.3079 147.012 83.0719 147.248 82.9039 147.56C82.7439 147.872 82.6639 148.26 82.6639 148.724V152H81.5119V145.64H82.6159V147.356L82.4359 146.9C82.6439 146.484 82.9639 146.16 83.3959 145.928C83.8279 145.696 84.3319 145.58 84.9079 145.58ZM92.3079 152.072C91.6919 152.072 91.1399 151.936 90.6519 151.664C90.1719 151.392 89.7919 151.012 89.5119 150.524C89.2319 150.036 89.0919 149.468 89.0919 148.82C89.0919 148.172 89.2319 147.608 89.5119 147.128C89.7919 146.64 90.1719 146.26 90.6519 145.988C91.1399 145.716 91.6919 145.58 92.3079 145.58C92.8439 145.58 93.3279 145.7 93.7599 145.94C94.1919 146.18 94.5359 146.54 94.7919 147.02C95.0559 147.5 95.1879 148.1 95.1879 148.82C95.1879 149.54 95.0599 150.14 94.8039 150.62C94.5559 151.1 94.2159 151.464 93.7839 151.712C93.3519 151.952 92.8599 152.072 92.3079 152.072ZM92.4039 151.064C92.8039 151.064 93.1639 150.972 93.4839 150.788C93.8119 150.604 94.0679 150.344 94.2519 150.008C94.4439 149.664 94.5399 149.268 94.5399 148.82C94.5399 148.364 94.4439 147.972 94.2519 147.644C94.0679 147.308 93.8119 147.048 93.4839 146.864C93.1639 146.68 92.8039 146.588 92.4039 146.588C91.9959 146.588 91.6319 146.68 91.3119 146.864C90.9919 147.048 90.7359 147.308 90.5439 147.644C90.3519 147.972 90.2559 148.364 90.2559 148.82C90.2559 149.268 90.3519 149.664 90.5439 150.008C90.7359 150.344 90.9919 150.604 91.3119 150.788C91.6319 150.972 91.9959 151.064 92.4039 151.064ZM94.5759 152V150.284L94.6479 148.808L94.5279 147.332V143.096H95.6799V152H94.5759ZM103.266 152.072C102.626 152.072 102.13 151.9 101.778 151.556C101.426 151.212 101.25 150.72 101.25 150.08V144.248H102.402V150.032C102.402 150.376 102.486 150.64 102.654 150.824C102.83 151.008 103.078 151.1 103.398 151.1C103.758 151.1 104.058 151 104.298 150.8L104.658 151.628C104.482 151.78 104.27 151.892 104.022 151.964C103.782 152.036 103.53 152.072 103.266 152.072ZM100.17 146.588V145.64H104.226V146.588H100.17ZM109.447 145.58C109.967 145.58 110.423 145.68 110.815 145.88C111.215 146.08 111.527 146.384 111.751 146.792C111.975 147.2 112.087 147.716 112.087 148.34V152H110.935V148.472C110.935 147.856 110.783 147.392 110.479 147.08C110.183 146.768 109.763 146.612 109.219 146.612C108.811 146.612 108.455 146.692 108.151 146.852C107.847 147.012 107.611 147.248 107.443 147.56C107.283 147.872 107.203 148.26 107.203 148.724V152H106.051V143.096H107.203V147.356L106.975 146.9C107.183 146.484 107.503 146.16 107.935 145.928C108.367 145.696 108.871 145.58 109.447 145.58ZM117.051 152.072C116.371 152.072 115.771 151.932 115.251 151.652C114.739 151.372 114.339 150.988 114.051 150.5C113.771 150.012 113.631 149.452 113.631 148.82C113.631 148.188 113.767 147.628 114.039 147.14C114.319 146.652 114.699 146.272 115.179 146C115.667 145.72 116.215 145.58 116.823 145.58C117.439 145.58 117.983 145.716 118.455 145.988C118.927 146.26 119.295 146.644 119.559 147.14C119.831 147.628 119.967 148.2 119.967 148.856C119.967 148.904 119.963 148.96 119.955 149.024C119.955 149.088 119.951 149.148 119.943 149.204H114.531V148.376H119.343L118.875 148.664C118.883 148.256 118.799 147.892 118.623 147.572C118.447 147.252 118.203 147.004 117.891 146.828C117.587 146.644 117.231 146.552 116.823 146.552C116.423 146.552 116.067 146.644 115.755 146.828C115.443 147.004 115.199 147.256 115.023 147.584C114.847 147.904 114.759 148.272 114.759 148.688V148.88C114.759 149.304 114.855 149.684 115.047 150.02C115.247 150.348 115.523 150.604 115.875 150.788C116.227 150.972 116.631 151.064 117.087 151.064C117.463 151.064 117.803 151 118.107 150.872C118.419 150.744 118.691 150.552 118.923 150.296L119.559 151.04C119.271 151.376 118.911 151.632 118.479 151.808C118.055 151.984 117.579 152.072 117.051 152.072ZM124.963 145.58C125.483 145.58 125.939 145.68 126.331 145.88C126.731 146.08 127.043 146.384 127.267 146.792C127.491 147.2 127.603 147.716 127.603 148.34V152H126.451V148.472C126.451 147.856 126.299 147.392 125.995 147.08C125.699 146.768 125.279 146.612 124.735 146.612C124.327 146.612 123.971 146.692 123.667 146.852C123.363 147.012 123.127 147.248 122.959 147.56C122.799 147.872 122.719 148.26 122.719 148.724V152H121.567V145.64H122.671V147.356L122.491 146.9C122.699 146.484 123.019 146.16 123.451 145.928C123.883 145.696 124.387 145.58 124.963 145.58ZM135.681 152.072C135.041 152.072 134.473 151.932 133.977 151.652C133.481 151.372 133.089 150.988 132.801 150.5C132.513 150.004 132.369 149.444 132.369 148.82C132.369 148.188 132.513 147.628 132.801 147.14C133.089 146.652 133.481 146.272 133.977 146C134.473 145.72 135.041 145.58 135.681 145.58C136.313 145.58 136.877 145.72 137.373 146C137.877 146.272 138.269 146.652 138.549 147.14C138.837 147.62 138.981 148.18 138.981 148.82C138.981 149.452 138.837 150.012 138.549 150.5C138.269 150.988 137.877 151.372 137.373 151.652C136.877 151.932 136.313 152.072 135.681 152.072ZM135.681 151.064C136.089 151.064 136.453 150.972 136.773 150.788C137.101 150.604 137.357 150.344 137.541 150.008C137.725 149.664 137.817 149.268 137.817 148.82C137.817 148.364 137.725 147.972 137.541 147.644C137.357 147.308 137.101 147.048 136.773 146.864C136.453 146.68 136.089 146.588 135.681 146.588C135.273 146.588 134.909 146.68 134.589 146.864C134.269 147.048 134.013 147.308 133.821 147.644C133.629 147.972 133.533 148.364 133.533 148.82C133.533 149.268 133.629 149.664 133.821 150.008C134.013 150.344 134.269 150.604 134.589 150.788C134.909 150.972 135.273 151.064 135.681 151.064ZM143.25 152.072C142.706 152.072 142.226 151.972 141.81 151.772C141.402 151.572 141.082 151.268 140.85 150.86C140.626 150.444 140.514 149.924 140.514 149.3V145.64H141.666V149.168C141.666 149.792 141.814 150.26 142.11 150.572C142.414 150.884 142.838 151.04 143.382 151.04C143.782 151.04 144.13 150.96 144.426 150.8C144.722 150.632 144.95 150.392 145.11 150.08C145.27 149.76 145.35 149.376 145.35 148.928V145.64H146.502V152H145.41V150.284L145.59 150.74C145.382 151.164 145.07 151.492 144.654 151.724C144.238 151.956 143.77 152.072 143.25 152.072ZM150.88 152.072C150.24 152.072 149.744 151.9 149.392 151.556C149.04 151.212 148.864 150.72 148.864 150.08V144.248H150.016V150.032C150.016 150.376 150.1 150.64 150.268 150.824C150.444 151.008 150.692 151.1 151.012 151.1C151.372 151.1 151.672 151 151.912 150.8L152.272 151.628C152.096 151.78 151.884 151.892 151.636 151.964C151.396 152.036 151.144 152.072 150.88 152.072ZM147.784 146.588V145.64H151.84V146.588H147.784ZM154.057 152.072C153.833 152.072 153.641 151.996 153.481 151.844C153.321 151.684 153.241 151.484 153.241 151.244C153.241 151.004 153.321 150.808 153.481 150.656C153.641 150.504 153.833 150.428 154.057 150.428C154.273 150.428 154.457 150.504 154.609 150.656C154.769 150.808 154.849 151.004 154.849 151.244C154.849 151.484 154.769 151.684 154.609 151.844C154.457 151.996 154.273 152.072 154.057 152.072Z" fill="#008E86"/>
<path d="M107.539 75.9845L120.54 80.9846L107.54 80.9846L107.539 75.9845Z" fill="#00D8CC" stroke="#00635D" stroke-width="2" stroke-linejoin="round"/>
<path d="M69.5396 68.9883L80.5396 45.4883L91.5395 51.4883L91.5396 74.4883L69.5396 68.9883Z" fill="#00D8CC" stroke="#00635D" stroke-width="2" stroke-linejoin="round"/>
<path d="M80.04 80.9833L69.5394 68.986L85.0394 63.4833L95.0771 82.9862L80.04 80.9833Z" fill="#008E86" stroke="#00635D" stroke-width="2" stroke-linejoin="round"/>
<path d="M82.148 40.9531L91.4287 51.233L79.182 57.7005L60.4831 45.7526L82.148 40.9531Z" fill="#008E86" stroke="#00635D" stroke-width="2" stroke-linejoin="round"/>
<path d="M77.2652 37.9856L72.6974 56.9456" stroke="#333333" stroke-width="2" stroke-dasharray="4 2"/>
<path d="M70.7091 29.5317C70.1568 29.5317 69.7091 29.9794 69.7091 30.5317C69.7091 31.084 70.1568 31.5317 70.7091 31.5317L70.7091 29.5317ZM91.1902 34.3204C91.5807 33.9299 91.5807 33.2968 91.1902 32.9062L84.8262 26.5423C84.4357 26.1518 83.8025 26.1518 83.412 26.5423C83.0215 26.9328 83.0215 27.566 83.412 27.9565L89.0689 33.6134L83.4121 39.2702C83.0215 39.6608 83.0216 40.2939 83.4121 40.6845C83.8026 41.075 84.4358 41.075 84.8263 40.6844L91.1902 34.3204ZM81.4951 30.5317L82.2022 31.2388C82.4882 30.9528 82.5737 30.5227 82.419 30.149C82.2642 29.7753 81.8996 29.5317 81.4951 29.5317L81.4951 30.5317ZM78.6702 33.6134L77.9631 32.9063C77.6771 33.1923 77.5916 33.6224 77.7463 33.9961C77.9011 34.3697 78.2657 34.6134 78.6702 34.6134L78.6702 33.6134ZM70.7091 31.5317C72.8595 31.5317 77.614 31.5317 81.4951 31.5317L81.4951 29.5317C77.614 29.5317 72.8595 29.5317 70.7091 29.5317L70.7091 31.5317ZM80.788 29.8246C79.9873 30.6253 79.7078 30.9729 79.405 31.343C79.137 31.6705 78.8383 32.0311 77.9631 32.9063L79.3773 34.3205C80.2998 33.3981 80.6431 32.9882 80.9529 32.6095C81.2279 32.2734 81.4621 31.9789 82.2022 31.2388L80.788 29.8246ZM78.6702 34.6134C80.9815 34.6134 88.7285 34.6134 90.4831 34.6133L90.4831 32.6133C88.7285 32.6134 80.9815 32.6134 78.6702 32.6134L78.6702 34.6134Z" fill="black"/>
<path d="M70.8994 38.366L67.7089 51.6093" stroke="#333333" stroke-width="2" stroke-dasharray="4 2"/>
<path d="M85.0391 63.4843L107.539 72.4844L107.539 80.9844L94.0391 80.9844L85.0391 63.4843Z" fill="#00D8CC" stroke="#00635D" stroke-width="2" stroke-linejoin="round"/>
</svg>
