<svg width="180" height="180" viewBox="0 0 180 180" fill="none" xmlns="http://www.w3.org/2000/svg">
<g clip-path="url(#clip0_16_273)">
<rect width="180" height="180" rx="20" fill="#F2F2F2"/>
<g clip-path="url(#clip1_16_273)">
<path d="M0 30L-1.31134e-06 0L30 -1.31134e-06L30 10C30 21.0457 21.0457 30 10 30L0 30Z" fill="#333333"/>
<path d="M19.2733 18.888V21H10.8092V19.32L15.1293 15.24C15.5879 14.8027 15.8973 14.4293 16.0573 14.12C16.2173 13.8 16.2973 13.4853 16.2973 13.176C16.2973 12.728 16.1426 12.3867 15.8333 12.152C15.5346 11.9067 15.0919 11.784 14.5052 11.784C14.0146 11.784 13.5719 11.88 13.1773 12.072C12.7826 12.2533 12.4519 12.5307 12.1853 12.904L10.2973 11.688C10.7346 11.0373 11.3373 10.5307 12.1053 10.168C12.8733 9.79467 13.7533 9.608 14.7453 9.608C15.5773 9.608 16.3026 9.74667 16.9213 10.024C17.5506 10.2907 18.0359 10.6747 18.3773 11.176C18.7293 11.6667 18.9053 12.248 18.9053 12.92C18.9053 13.528 18.7773 14.0987 18.5213 14.632C18.2653 15.1653 17.7693 15.7733 17.0333 16.456L14.4573 18.888H19.2733Z" fill="#F2F2F2"/>
</g>
<path d="M41.3048 132.572H45.6368V133.604H41.3048V132.572ZM41.4248 137H40.2248V128.6H46.1528V129.644H41.4248V137ZM50.1988 137.072C49.5588 137.072 48.9908 136.932 48.4948 136.652C47.9988 136.372 47.6068 135.988 47.3188 135.5C47.0308 135.004 46.8868 134.444 46.8868 133.82C46.8868 133.188 47.0308 132.628 47.3188 132.14C47.6068 131.652 47.9988 131.272 48.4948 131C48.9908 130.72 49.5588 130.58 50.1988 130.58C50.8308 130.58 51.3948 130.72 51.8908 131C52.3948 131.272 52.7868 131.652 53.0668 132.14C53.3548 132.62 53.4988 133.18 53.4988 133.82C53.4988 134.452 53.3548 135.012 53.0668 135.5C52.7868 135.988 52.3948 136.372 51.8908 136.652C51.3948 136.932 50.8308 137.072 50.1988 137.072ZM50.1988 136.064C50.6068 136.064 50.9708 135.972 51.2908 135.788C51.6188 135.604 51.8748 135.344 52.0588 135.008C52.2428 134.664 52.3348 134.268 52.3348 133.82C52.3348 133.364 52.2428 132.972 52.0588 132.644C51.8748 132.308 51.6188 132.048 51.2908 131.864C50.9708 131.68 50.6068 131.588 50.1988 131.588C49.7908 131.588 49.4268 131.68 49.1068 131.864C48.7868 132.048 48.5308 132.308 48.3388 132.644C48.1468 132.972 48.0508 133.364 48.0508 133.82C48.0508 134.268 48.1468 134.664 48.3388 135.008C48.5308 135.344 48.7868 135.604 49.1068 135.788C49.4268 135.972 49.7908 136.064 50.1988 136.064ZM55.092 137V128.096H56.244V137H55.092ZM61.0716 137.072C60.4556 137.072 59.9036 136.936 59.4156 136.664C58.9356 136.392 58.5556 136.012 58.2756 135.524C57.9956 135.036 57.8556 134.468 57.8556 133.82C57.8556 133.172 57.9956 132.608 58.2756 132.128C58.5556 131.64 58.9356 131.26 59.4156 130.988C59.9036 130.716 60.4556 130.58 61.0716 130.58C61.6076 130.58 62.0916 130.7 62.5236 130.94C62.9556 131.18 63.2996 131.54 63.5556 132.02C63.8196 132.5 63.9516 133.1 63.9516 133.82C63.9516 134.54 63.8236 135.14 63.5676 135.62C63.3196 136.1 62.9796 136.464 62.5476 136.712C62.1156 136.952 61.6236 137.072 61.0716 137.072ZM61.1676 136.064C61.5676 136.064 61.9276 135.972 62.2476 135.788C62.5756 135.604 62.8316 135.344 63.0156 135.008C63.2076 134.664 63.3036 134.268 63.3036 133.82C63.3036 133.364 63.2076 132.972 63.0156 132.644C62.8316 132.308 62.5756 132.048 62.2476 131.864C61.9276 131.68 61.5676 131.588 61.1676 131.588C60.7596 131.588 60.3956 131.68 60.0756 131.864C59.7556 132.048 59.4996 132.308 59.3076 132.644C59.1156 132.972 59.0196 133.364 59.0196 133.82C59.0196 134.268 59.1156 134.664 59.3076 135.008C59.4996 135.344 59.7556 135.604 60.0756 135.788C60.3956 135.972 60.7596 136.064 61.1676 136.064ZM63.3396 137V135.284L63.4116 133.808L63.2916 132.332V128.096H64.4436V137H63.3396ZM72.0299 137.072C71.3899 137.072 70.8939 136.9 70.5419 136.556C70.1899 136.212 70.0139 135.72 70.0139 135.08V129.248H71.1659V135.032C71.1659 135.376 71.2499 135.64 71.4179 135.824C71.5939 136.008 71.8419 136.1 72.1619 136.1C72.5219 136.1 72.8219 136 73.0619 135.8L73.4219 136.628C73.2459 136.78 73.0339 136.892 72.7859 136.964C72.5459 137.036 72.2939 137.072 72.0299 137.072ZM68.9339 131.588V130.64H72.9899V131.588H68.9339ZM76.0415 137L73.6775 130.64H74.7695L76.8695 136.4H76.3535L78.5375 130.64H79.5095L81.6455 136.4H81.1415L83.2895 130.64H84.3215L81.9455 137H80.8415L78.8375 131.744H79.1735L77.1455 137H76.0415ZM88.0387 137.072C87.3987 137.072 86.8307 136.932 86.3347 136.652C85.8387 136.372 85.4467 135.988 85.1587 135.5C84.8707 135.004 84.7267 134.444 84.7267 133.82C84.7267 133.188 84.8707 132.628 85.1587 132.14C85.4467 131.652 85.8387 131.272 86.3347 131C86.8307 130.72 87.3987 130.58 88.0387 130.58C88.6707 130.58 89.2347 130.72 89.7307 131C90.2347 131.272 90.6267 131.652 90.9067 132.14C91.1947 132.62 91.3387 133.18 91.3387 133.82C91.3387 134.452 91.1947 135.012 90.9067 135.5C90.6267 135.988 90.2347 136.372 89.7307 136.652C89.2347 136.932 88.6707 137.072 88.0387 137.072ZM88.0387 136.064C88.4467 136.064 88.8107 135.972 89.1307 135.788C89.4587 135.604 89.7147 135.344 89.8987 135.008C90.0827 134.664 90.1747 134.268 90.1747 133.82C90.1747 133.364 90.0827 132.972 89.8987 132.644C89.7147 132.308 89.4587 132.048 89.1307 131.864C88.8107 131.68 88.4467 131.588 88.0387 131.588C87.6307 131.588 87.2667 131.68 86.9467 131.864C86.6267 132.048 86.3707 132.308 86.1787 132.644C85.9867 132.972 85.8907 133.364 85.8907 133.82C85.8907 134.268 85.9867 134.664 86.1787 135.008C86.3707 135.344 86.6267 135.604 86.9467 135.788C87.2667 135.972 87.6307 136.064 88.0387 136.064ZM97.9785 137.072C97.4505 137.072 96.9465 137 96.4665 136.856C95.9945 136.712 95.6225 136.536 95.3505 136.328L95.8305 135.416C96.1025 135.6 96.4385 135.756 96.8385 135.884C97.2385 136.012 97.6465 136.076 98.0625 136.076C98.5985 136.076 98.9825 136 99.2145 135.848C99.4545 135.696 99.5745 135.484 99.5745 135.212C99.5745 135.012 99.5025 134.856 99.3585 134.744C99.2145 134.632 99.0225 134.548 98.7825 134.492C98.5505 134.436 98.2905 134.388 98.0025 134.348C97.7145 134.3 97.4265 134.244 97.1385 134.18C96.8505 134.108 96.5865 134.012 96.3465 133.892C96.1065 133.764 95.9145 133.592 95.7705 133.376C95.6265 133.152 95.5545 132.856 95.5545 132.488C95.5545 132.104 95.6625 131.768 95.8785 131.48C96.0945 131.192 96.3985 130.972 96.7905 130.82C97.1905 130.66 97.6625 130.58 98.2065 130.58C98.6225 130.58 99.0425 130.632 99.4665 130.736C99.8985 130.832 100.251 130.972 100.523 131.156L100.031 132.068C99.7425 131.876 99.4425 131.744 99.1305 131.672C98.8185 131.6 98.5065 131.564 98.1945 131.564C97.6905 131.564 97.3145 131.648 97.0665 131.816C96.8185 131.976 96.6945 132.184 96.6945 132.44C96.6945 132.656 96.7665 132.824 96.9105 132.944C97.0625 133.056 97.2545 133.144 97.4865 133.208C97.7265 133.272 97.9905 133.328 98.2785 133.376C98.5665 133.416 98.8545 133.472 99.1425 133.544C99.4305 133.608 99.6905 133.7 99.9225 133.82C100.163 133.94 100.355 134.108 100.499 134.324C100.651 134.54 100.727 134.828 100.727 135.188C100.727 135.572 100.615 135.904 100.391 136.184C100.167 136.464 99.8505 136.684 99.4425 136.844C99.0345 136.996 98.5465 137.072 97.9785 137.072ZM102.166 137V130.64H103.318V137H102.166ZM102.742 129.416C102.518 129.416 102.33 129.344 102.178 129.2C102.034 129.056 101.962 128.88 101.962 128.672C101.962 128.456 102.034 128.276 102.178 128.132C102.33 127.988 102.518 127.916 102.742 127.916C102.966 127.916 103.15 127.988 103.294 128.132C103.446 128.268 103.522 128.44 103.522 128.648C103.522 128.864 103.45 129.048 103.306 129.2C103.162 129.344 102.974 129.416 102.742 129.416ZM108.146 137.072C107.53 137.072 106.978 136.936 106.49 136.664C106.01 136.392 105.63 136.012 105.35 135.524C105.07 135.036 104.93 134.468 104.93 133.82C104.93 133.172 105.07 132.608 105.35 132.128C105.63 131.64 106.01 131.26 106.49 130.988C106.978 130.716 107.53 130.58 108.146 130.58C108.682 130.58 109.166 130.7 109.598 130.94C110.03 131.18 110.374 131.54 110.63 132.02C110.894 132.5 111.026 133.1 111.026 133.82C111.026 134.54 110.898 135.14 110.642 135.62C110.394 136.1 110.054 136.464 109.622 136.712C109.19 136.952 108.698 137.072 108.146 137.072ZM108.242 136.064C108.642 136.064 109.002 135.972 109.322 135.788C109.65 135.604 109.906 135.344 110.09 135.008C110.282 134.664 110.378 134.268 110.378 133.82C110.378 133.364 110.282 132.972 110.09 132.644C109.906 132.308 109.65 132.048 109.322 131.864C109.002 131.68 108.642 131.588 108.242 131.588C107.834 131.588 107.47 131.68 107.15 131.864C106.83 132.048 106.574 132.308 106.382 132.644C106.19 132.972 106.094 133.364 106.094 133.82C106.094 134.268 106.19 134.664 106.382 135.008C106.574 135.344 106.83 135.604 107.15 135.788C107.47 135.972 107.834 136.064 108.242 136.064ZM110.414 137V135.284L110.486 133.808L110.366 132.332V128.096H111.518V137H110.414ZM116.529 137.072C115.849 137.072 115.249 136.932 114.729 136.652C114.217 136.372 113.817 135.988 113.529 135.5C113.249 135.012 113.109 134.452 113.109 133.82C113.109 133.188 113.245 132.628 113.517 132.14C113.797 131.652 114.177 131.272 114.657 131C115.145 130.72 115.693 130.58 116.301 130.58C116.917 130.58 117.461 130.716 117.933 130.988C118.405 131.26 118.773 131.644 119.037 132.14C119.309 132.628 119.445 133.2 119.445 133.856C119.445 133.904 119.441 133.96 119.433 134.024C119.433 134.088 119.429 134.148 119.421 134.204H114.009V133.376H118.821L118.353 133.664C118.361 133.256 118.277 132.892 118.101 132.572C117.925 132.252 117.681 132.004 117.369 131.828C117.065 131.644 116.709 131.552 116.301 131.552C115.901 131.552 115.545 131.644 115.233 131.828C114.921 132.004 114.677 132.256 114.501 132.584C114.325 132.904 114.237 133.272 114.237 133.688V133.88C114.237 134.304 114.333 134.684 114.525 135.02C114.725 135.348 115.001 135.604 115.353 135.788C115.705 135.972 116.109 136.064 116.565 136.064C116.941 136.064 117.281 136 117.585 135.872C117.897 135.744 118.169 135.552 118.401 135.296L119.037 136.04C118.749 136.376 118.389 136.632 117.957 136.808C117.533 136.984 117.057 137.072 116.529 137.072ZM122.869 137.072C122.341 137.072 121.837 137 121.357 136.856C120.885 136.712 120.513 136.536 120.241 136.328L120.721 135.416C120.993 135.6 121.329 135.756 121.729 135.884C122.129 136.012 122.537 136.076 122.953 136.076C123.489 136.076 123.873 136 124.105 135.848C124.345 135.696 124.465 135.484 124.465 135.212C124.465 135.012 124.393 134.856 124.249 134.744C124.105 134.632 123.913 134.548 123.673 134.492C123.441 134.436 123.181 134.388 122.893 134.348C122.605 134.3 122.317 134.244 122.029 134.18C121.741 134.108 121.477 134.012 121.237 133.892C120.997 133.764 120.805 133.592 120.661 133.376C120.517 133.152 120.445 132.856 120.445 132.488C120.445 132.104 120.553 131.768 120.769 131.48C120.985 131.192 121.289 130.972 121.681 130.82C122.081 130.66 122.553 130.58 123.097 130.58C123.513 130.58 123.933 130.632 124.357 130.736C124.789 130.832 125.141 130.972 125.413 131.156L124.921 132.068C124.633 131.876 124.333 131.744 124.021 131.672C123.709 131.6 123.397 131.564 123.085 131.564C122.581 131.564 122.205 131.648 121.957 131.816C121.709 131.976 121.585 132.184 121.585 132.44C121.585 132.656 121.657 132.824 121.801 132.944C121.953 133.056 122.145 133.144 122.377 133.208C122.617 133.272 122.881 133.328 123.169 133.376C123.457 133.416 123.745 133.472 124.033 133.544C124.321 133.608 124.581 133.7 124.813 133.82C125.053 133.94 125.245 134.108 125.389 134.324C125.541 134.54 125.617 134.828 125.617 135.188C125.617 135.572 125.505 135.904 125.281 136.184C125.057 136.464 124.741 136.684 124.333 136.844C123.925 136.996 123.437 137.072 122.869 137.072ZM133.004 137.072C132.364 137.072 131.796 136.932 131.3 136.652C130.804 136.372 130.412 135.988 130.124 135.5C129.836 135.004 129.692 134.444 129.692 133.82C129.692 133.188 129.836 132.628 130.124 132.14C130.412 131.652 130.804 131.272 131.3 131C131.796 130.72 132.364 130.58 133.004 130.58C133.636 130.58 134.2 130.72 134.696 131C135.2 131.272 135.592 131.652 135.872 132.14C136.16 132.62 136.304 133.18 136.304 133.82C136.304 134.452 136.16 135.012 135.872 135.5C135.592 135.988 135.2 136.372 134.696 136.652C134.2 136.932 133.636 137.072 133.004 137.072ZM133.004 136.064C133.412 136.064 133.776 135.972 134.096 135.788C134.424 135.604 134.68 135.344 134.864 135.008C135.048 134.664 135.14 134.268 135.14 133.82C135.14 133.364 135.048 132.972 134.864 132.644C134.68 132.308 134.424 132.048 134.096 131.864C133.776 131.68 133.412 131.588 133.004 131.588C132.596 131.588 132.232 131.68 131.912 131.864C131.592 132.048 131.336 132.308 131.144 132.644C130.952 132.972 130.856 133.364 130.856 133.82C130.856 134.268 130.952 134.664 131.144 135.008C131.336 135.344 131.592 135.604 131.912 135.788C132.232 135.972 132.596 136.064 133.004 136.064ZM138.065 137V130.076C138.065 129.452 138.245 128.956 138.605 128.588C138.973 128.212 139.493 128.024 140.165 128.024C140.413 128.024 140.649 128.056 140.873 128.12C141.105 128.176 141.301 128.268 141.461 128.396L141.113 129.272C140.993 129.176 140.857 129.104 140.705 129.056C140.553 129 140.393 128.972 140.225 128.972C139.889 128.972 139.633 129.068 139.457 129.26C139.281 129.444 139.193 129.72 139.193 130.088V130.94L139.217 131.468V137H138.065ZM136.985 131.588V130.64H141.041V131.588H136.985ZM63.0826 152.072C62.4426 152.072 61.9466 151.9 61.5946 151.556C61.2426 151.212 61.0666 150.72 61.0666 150.08V144.248H62.2186V150.032C62.2186 150.376 62.3026 150.64 62.4706 150.824C62.6466 151.008 62.8946 151.1 63.2146 151.1C63.5746 151.1 63.8746 151 64.1146 150.8L64.4746 151.628C64.2986 151.78 64.0866 151.892 63.8386 151.964C63.5986 152.036 63.3466 152.072 63.0826 152.072ZM59.9866 146.588V145.64H64.0426V146.588H59.9866ZM69.2634 145.58C69.7834 145.58 70.2394 145.68 70.6314 145.88C71.0314 146.08 71.3434 146.384 71.5674 146.792C71.7914 147.2 71.9034 147.716 71.9034 148.34V152H70.7514V148.472C70.7514 147.856 70.5994 147.392 70.2954 147.08C69.9994 146.768 69.5794 146.612 69.0354 146.612C68.6274 146.612 68.2714 146.692 67.9674 146.852C67.6634 147.012 67.4274 147.248 67.2594 147.56C67.0994 147.872 67.0194 148.26 67.0194 148.724V152H65.8674V143.096H67.0194V147.356L66.7914 146.9C66.9994 146.484 67.3194 146.16 67.7514 145.928C68.1834 145.696 68.6874 145.58 69.2634 145.58ZM76.8674 152.072C76.1874 152.072 75.5874 151.932 75.0674 151.652C74.5554 151.372 74.1554 150.988 73.8674 150.5C73.5874 150.012 73.4474 149.452 73.4474 148.82C73.4474 148.188 73.5834 147.628 73.8554 147.14C74.1354 146.652 74.5154 146.272 74.9954 146C75.4834 145.72 76.0314 145.58 76.6394 145.58C77.2554 145.58 77.7994 145.716 78.2714 145.988C78.7434 146.26 79.1114 146.644 79.3754 147.14C79.6474 147.628 79.7834 148.2 79.7834 148.856C79.7834 148.904 79.7794 148.96 79.7714 149.024C79.7714 149.088 79.7674 149.148 79.7594 149.204H74.3474V148.376H79.1594L78.6914 148.664C78.6994 148.256 78.6154 147.892 78.4394 147.572C78.2634 147.252 78.0194 147.004 77.7074 146.828C77.4034 146.644 77.0474 146.552 76.6394 146.552C76.2394 146.552 75.8834 146.644 75.5714 146.828C75.2594 147.004 75.0154 147.256 74.8394 147.584C74.6634 147.904 74.5754 148.272 74.5754 148.688V148.88C74.5754 149.304 74.6714 149.684 74.8634 150.02C75.0634 150.348 75.3394 150.604 75.6914 150.788C76.0434 150.972 76.4474 151.064 76.9034 151.064C77.2794 151.064 77.6194 151 77.9234 150.872C78.2354 150.744 78.5074 150.552 78.7394 150.296L79.3754 151.04C79.0874 151.376 78.7274 151.632 78.2954 151.808C77.8714 151.984 77.3954 152.072 76.8674 152.072ZM86.4297 152.072C85.9017 152.072 85.3977 152 84.9177 151.856C84.4457 151.712 84.0737 151.536 83.8017 151.328L84.2817 150.416C84.5537 150.6 84.8897 150.756 85.2897 150.884C85.6897 151.012 86.0977 151.076 86.5137 151.076C87.0497 151.076 87.4337 151 87.6657 150.848C87.9057 150.696 88.0257 150.484 88.0257 150.212C88.0257 150.012 87.9537 149.856 87.8097 149.744C87.6657 149.632 87.4737 149.548 87.2337 149.492C87.0017 149.436 86.7417 149.388 86.4537 149.348C86.1657 149.3 85.8777 149.244 85.5897 149.18C85.3017 149.108 85.0377 149.012 84.7977 148.892C84.5577 148.764 84.3657 148.592 84.2217 148.376C84.0777 148.152 84.0057 147.856 84.0057 147.488C84.0057 147.104 84.1137 146.768 84.3297 146.48C84.5457 146.192 84.8497 145.972 85.2417 145.82C85.6417 145.66 86.1137 145.58 86.6577 145.58C87.0737 145.58 87.4937 145.632 87.9177 145.736C88.3497 145.832 88.7017 145.972 88.9737 146.156L88.4817 147.068C88.1937 146.876 87.8937 146.744 87.5817 146.672C87.2697 146.6 86.9577 146.564 86.6457 146.564C86.1417 146.564 85.7657 146.648 85.5177 146.816C85.2697 146.976 85.1457 147.184 85.1457 147.44C85.1457 147.656 85.2177 147.824 85.3617 147.944C85.5137 148.056 85.7057 148.144 85.9377 148.208C86.1777 148.272 86.4417 148.328 86.7297 148.376C87.0177 148.416 87.3057 148.472 87.5937 148.544C87.8817 148.608 88.1417 148.7 88.3737 148.82C88.6137 148.94 88.8057 149.108 88.9497 149.324C89.1017 149.54 89.1777 149.828 89.1777 150.188C89.1777 150.572 89.0657 150.904 88.8417 151.184C88.6177 151.464 88.3017 151.684 87.8937 151.844C87.4857 151.996 86.9977 152.072 86.4297 152.072ZM94.0134 145.58C94.5334 145.58 94.9894 145.68 95.3814 145.88C95.7814 146.08 96.0934 146.384 96.3174 146.792C96.5414 147.2 96.6534 147.716 96.6534 148.34V152H95.5014V148.472C95.5014 147.856 95.3494 147.392 95.0454 147.08C94.7494 146.768 94.3294 146.612 93.7854 146.612C93.3774 146.612 93.0214 146.692 92.7174 146.852C92.4134 147.012 92.1774 147.248 92.0094 147.56C91.8494 147.872 91.7694 148.26 91.7694 148.724V152H90.6174V143.096H91.7694V147.356L91.5414 146.9C91.7494 146.484 92.0694 146.16 92.5014 145.928C92.9334 145.696 93.4374 145.58 94.0134 145.58ZM101.617 152.072C100.937 152.072 100.337 151.932 99.8174 151.652C99.3054 151.372 98.9054 150.988 98.6174 150.5C98.3374 150.012 98.1974 149.452 98.1974 148.82C98.1974 148.188 98.3334 147.628 98.6054 147.14C98.8854 146.652 99.2654 146.272 99.7454 146C100.233 145.72 100.781 145.58 101.389 145.58C102.005 145.58 102.549 145.716 103.021 145.988C103.493 146.26 103.861 146.644 104.125 147.14C104.397 147.628 104.533 148.2 104.533 148.856C104.533 148.904 104.529 148.96 104.521 149.024C104.521 149.088 104.517 149.148 104.509 149.204H99.0974V148.376H103.909L103.441 148.664C103.449 148.256 103.365 147.892 103.189 147.572C103.013 147.252 102.769 147.004 102.457 146.828C102.153 146.644 101.797 146.552 101.389 146.552C100.989 146.552 100.633 146.644 100.321 146.828C100.009 147.004 99.7654 147.256 99.5894 147.584C99.4134 147.904 99.3254 148.272 99.3254 148.688V148.88C99.3254 149.304 99.4214 149.684 99.6134 150.02C99.8134 150.348 100.089 150.604 100.441 150.788C100.793 150.972 101.197 151.064 101.653 151.064C102.029 151.064 102.369 151 102.673 150.872C102.985 150.744 103.257 150.552 103.489 150.296L104.125 151.04C103.837 151.376 103.477 151.632 103.045 151.808C102.621 151.984 102.145 152.072 101.617 152.072ZM108.965 152.072C108.285 152.072 107.685 151.932 107.165 151.652C106.653 151.372 106.253 150.988 105.965 150.5C105.685 150.012 105.545 149.452 105.545 148.82C105.545 148.188 105.681 147.628 105.953 147.14C106.233 146.652 106.613 146.272 107.093 146C107.581 145.72 108.129 145.58 108.737 145.58C109.353 145.58 109.897 145.716 110.369 145.988C110.841 146.26 111.209 146.644 111.473 147.14C111.745 147.628 111.881 148.2 111.881 148.856C111.881 148.904 111.877 148.96 111.869 149.024C111.869 149.088 111.865 149.148 111.857 149.204H106.445V148.376H111.257L110.789 148.664C110.797 148.256 110.713 147.892 110.537 147.572C110.361 147.252 110.117 147.004 109.805 146.828C109.501 146.644 109.145 146.552 108.737 146.552C108.337 146.552 107.981 146.644 107.669 146.828C107.357 147.004 107.113 147.256 106.937 147.584C106.761 147.904 106.673 148.272 106.673 148.688V148.88C106.673 149.304 106.769 149.684 106.961 150.02C107.161 150.348 107.437 150.604 107.789 150.788C108.141 150.972 108.545 151.064 109.001 151.064C109.377 151.064 109.717 151 110.021 150.872C110.333 150.744 110.605 150.552 110.837 150.296L111.473 151.04C111.185 151.376 110.825 151.632 110.393 151.808C109.969 151.984 109.493 152.072 108.965 152.072ZM115.665 152.072C115.025 152.072 114.529 151.9 114.177 151.556C113.825 151.212 113.649 150.72 113.649 150.08V144.248H114.801V150.032C114.801 150.376 114.885 150.64 115.053 150.824C115.229 151.008 115.477 151.1 115.797 151.1C116.157 151.1 116.457 151 116.697 150.8L117.057 151.628C116.881 151.78 116.669 151.892 116.421 151.964C116.181 152.036 115.929 152.072 115.665 152.072ZM112.569 146.588V145.64H116.625V146.588H112.569ZM118.843 152.072C118.619 152.072 118.427 151.996 118.267 151.844C118.107 151.684 118.027 151.484 118.027 151.244C118.027 151.004 118.107 150.808 118.267 150.656C118.427 150.504 118.619 150.428 118.843 150.428C119.059 150.428 119.243 150.504 119.395 150.656C119.555 150.808 119.635 151.004 119.635 151.244C119.635 151.484 119.555 151.684 119.395 151.844C119.243 151.996 119.059 152.072 118.843 152.072Z" fill="#008E86"/>
<rect x="47.5186" y="55" width="63.6396" height="63.6396" transform="rotate(-45 47.5186 55)" fill="#00D8CC" stroke="#00635D" stroke-width="2" stroke-linejoin="round"/>
<path d="M104.498 22L47.5057 55.2936" stroke="#333333" stroke-width="2" stroke-dasharray="4 6"/>
<path d="M104.5 87.9983L47.5063 55.2919" stroke="#333333" stroke-width="2" stroke-dasharray="4 6"/>
<path opacity="0.25" d="M137.519 55L47.5186 55" stroke="#333333" stroke-width="2"/>
<path d="M103.991 70.1289C103.509 69.8583 102.9 70.0292 102.629 70.5106L98.2189 78.3561C97.9483 78.8376 98.1192 79.4472 98.6006 79.7179C99.0821 79.9885 99.6917 79.8176 99.9624 79.3361L103.882 72.3624L110.856 76.2824C111.338 76.553 111.947 76.3821 112.218 75.9006C112.488 75.4192 112.318 74.8095 111.836 74.5389L103.991 70.1289ZM86.6295 87.1788C86.0977 87.0297 85.5458 87.34 85.3967 87.8718C85.2476 88.4036 85.5579 88.9555 86.0897 89.1046L86.6295 87.1788ZM102.538 71.2706C104.445 78.0735 103.416 82.6855 100.766 85.3354L102.18 86.7496C105.555 83.375 106.468 77.8796 104.464 70.7307L102.538 71.2706ZM100.766 85.3354C99.4938 86.6076 97.229 87.4397 94.5399 87.7522C91.8826 88.0609 88.9886 87.8401 86.6295 87.1788L86.0897 89.1046C88.7133 89.8401 91.87 90.0758 94.7707 89.7388C97.6397 89.4055 100.44 88.4896 102.18 86.7496L100.766 85.3354Z" fill="black"/>
<path d="M85.2307 20.5443C84.6989 20.6934 84.3887 21.2453 84.5378 21.7771C84.6868 22.3089 85.2388 22.6191 85.7706 22.4701L85.2307 20.5443ZM101.77 39.1382C102.041 39.6197 102.65 39.7906 103.132 39.5199L110.977 35.1099C111.459 34.8393 111.63 34.2297 111.359 33.7482C111.088 33.2668 110.479 33.0959 109.997 33.3665L103.023 37.2865L99.1034 30.3127C98.8328 29.8313 98.2231 29.6604 97.7417 29.931C97.2603 30.2016 97.0894 30.8113 97.36 31.2927L101.77 39.1382ZM85.7706 22.4701C92.5735 20.563 97.1855 21.5919 99.8354 24.2418L101.25 22.8276C97.875 19.453 92.3796 18.5403 85.2307 20.5443L85.7706 22.4701ZM99.8354 24.2418C101.108 25.514 101.94 27.7788 102.252 30.4679C102.561 33.1252 102.34 36.0192 101.679 38.3783L103.605 38.9181C104.34 36.2945 104.576 33.1378 104.239 30.2371C103.905 27.3681 102.99 24.5675 101.25 22.8276L99.8354 24.2418Z" fill="black"/>
</g>
<defs>
<clipPath id="clip0_16_273">
<rect width="180" height="180" rx="20" fill="white"/>
</clipPath>
<clipPath id="clip1_16_273">
<path d="M0 30L-1.31134e-06 0L30 -1.31134e-06L30 10C30 21.0457 21.0457 30 10 30L0 30Z" fill="white"/>
</clipPath>
</defs>
</svg>
