<svg width="180" height="180" viewBox="0 0 180 180" fill="none" xmlns="http://www.w3.org/2000/svg">
<rect width="180" height="180" rx="20" fill="#F2F2F2"/>
<path d="M40.1623 117.572H44.4943V118.604H40.1623V117.572ZM40.2823 122H39.0823V113.6H45.0103V114.644H40.2823V122ZM49.0562 122.072C48.4162 122.072 47.8482 121.932 47.3522 121.652C46.8562 121.372 46.4642 120.988 46.1762 120.5C45.8882 120.004 45.7442 119.444 45.7442 118.82C45.7442 118.188 45.8882 117.628 46.1762 117.14C46.4642 116.652 46.8562 116.272 47.3522 116C47.8482 115.72 48.4162 115.58 49.0562 115.58C49.6882 115.58 50.2522 115.72 50.7482 116C51.2522 116.272 51.6442 116.652 51.9242 117.14C52.2122 117.62 52.3562 118.18 52.3562 118.82C52.3562 119.452 52.2122 120.012 51.9242 120.5C51.6442 120.988 51.2522 121.372 50.7482 121.652C50.2522 121.932 49.6882 122.072 49.0562 122.072ZM49.0562 121.064C49.4642 121.064 49.8282 120.972 50.1482 120.788C50.4762 120.604 50.7322 120.344 50.9162 120.008C51.1002 119.664 51.1922 119.268 51.1922 118.82C51.1922 118.364 51.1002 117.972 50.9162 117.644C50.7322 117.308 50.4762 117.048 50.1482 116.864C49.8282 116.68 49.4642 116.588 49.0562 116.588C48.6482 116.588 48.2842 116.68 47.9642 116.864C47.6442 117.048 47.3882 117.308 47.1962 117.644C47.0042 117.972 46.9082 118.364 46.9082 118.82C46.9082 119.268 47.0042 119.664 47.1962 120.008C47.3882 120.344 47.6442 120.604 47.9642 120.788C48.2842 120.972 48.6482 121.064 49.0562 121.064ZM53.9494 122V113.096H55.1014V122H53.9494ZM59.929 122.072C59.313 122.072 58.761 121.936 58.273 121.664C57.793 121.392 57.413 121.012 57.133 120.524C56.853 120.036 56.713 119.468 56.713 118.82C56.713 118.172 56.853 117.608 57.133 117.128C57.413 116.64 57.793 116.26 58.273 115.988C58.761 115.716 59.313 115.58 59.929 115.58C60.465 115.58 60.949 115.7 61.381 115.94C61.813 116.18 62.157 116.54 62.413 117.02C62.677 117.5 62.809 118.1 62.809 118.82C62.809 119.54 62.681 120.14 62.425 120.62C62.177 121.1 61.837 121.464 61.405 121.712C60.973 121.952 60.481 122.072 59.929 122.072ZM60.025 121.064C60.425 121.064 60.785 120.972 61.105 120.788C61.433 120.604 61.689 120.344 61.873 120.008C62.065 119.664 62.161 119.268 62.161 118.82C62.161 118.364 62.065 117.972 61.873 117.644C61.689 117.308 61.433 117.048 61.105 116.864C60.785 116.68 60.425 116.588 60.025 116.588C59.617 116.588 59.253 116.68 58.933 116.864C58.613 117.048 58.357 117.308 58.165 117.644C57.973 117.972 57.877 118.364 57.877 118.82C57.877 119.268 57.973 119.664 58.165 120.008C58.357 120.344 58.613 120.604 58.933 120.788C59.253 120.972 59.617 121.064 60.025 121.064ZM62.197 122V120.284L62.269 118.808L62.149 117.332V113.096H63.301V122H62.197ZM70.8873 122.072C70.2473 122.072 69.7513 121.9 69.3993 121.556C69.0473 121.212 68.8713 120.72 68.8713 120.08V114.248H70.0233V120.032C70.0233 120.376 70.1073 120.64 70.2753 120.824C70.4513 121.008 70.6993 121.1 71.0193 121.1C71.3793 121.1 71.6793 121 71.9193 120.8L72.2793 121.628C72.1033 121.78 71.8913 121.892 71.6433 121.964C71.4033 122.036 71.1513 122.072 70.8873 122.072ZM67.7913 116.588V115.64H71.8473V116.588H67.7913ZM77.0681 115.58C77.5881 115.58 78.0441 115.68 78.4361 115.88C78.8361 116.08 79.1481 116.384 79.3721 116.792C79.5961 117.2 79.7081 117.716 79.7081 118.34V122H78.5561V118.472C78.5561 117.856 78.4041 117.392 78.1001 117.08C77.8041 116.768 77.3841 116.612 76.8401 116.612C76.4321 116.612 76.0761 116.692 75.7721 116.852C75.4681 117.012 75.2321 117.248 75.0641 117.56C74.9041 117.872 74.8241 118.26 74.8241 118.724V122H73.6721V113.096H74.8241V117.356L74.5961 116.9C74.8041 116.484 75.1241 116.16 75.5561 115.928C75.9881 115.696 76.4921 115.58 77.0681 115.58ZM84.672 122.072C83.992 122.072 83.392 121.932 82.872 121.652C82.36 121.372 81.96 120.988 81.672 120.5C81.392 120.012 81.252 119.452 81.252 118.82C81.252 118.188 81.388 117.628 81.66 117.14C81.94 116.652 82.32 116.272 82.8 116C83.288 115.72 83.836 115.58 84.444 115.58C85.06 115.58 85.604 115.716 86.076 115.988C86.548 116.26 86.916 116.644 87.18 117.14C87.452 117.628 87.588 118.2 87.588 118.856C87.588 118.904 87.584 118.96 87.576 119.024C87.576 119.088 87.572 119.148 87.564 119.204H82.152V118.376H86.964L86.496 118.664C86.504 118.256 86.42 117.892 86.244 117.572C86.068 117.252 85.824 117.004 85.512 116.828C85.208 116.644 84.852 116.552 84.444 116.552C84.044 116.552 83.688 116.644 83.376 116.828C83.064 117.004 82.82 117.256 82.644 117.584C82.468 117.904 82.38 118.272 82.38 118.688V118.88C82.38 119.304 82.476 119.684 82.668 120.02C82.868 120.348 83.144 120.604 83.496 120.788C83.848 120.972 84.252 121.064 84.708 121.064C85.084 121.064 85.424 121 85.728 120.872C86.04 120.744 86.312 120.552 86.544 120.296L87.18 121.04C86.892 121.376 86.532 121.632 86.1 121.808C85.676 121.984 85.2 122.072 84.672 122.072ZM92.5784 122V115.076C92.5784 114.452 92.7584 113.956 93.1184 113.588C93.4864 113.212 94.0064 113.024 94.6784 113.024C94.9264 113.024 95.1624 113.056 95.3864 113.12C95.6184 113.176 95.8144 113.268 95.9744 113.396L95.6264 114.272C95.5064 114.176 95.3704 114.104 95.2184 114.056C95.0664 114 94.9064 113.972 94.7384 113.972C94.4024 113.972 94.1464 114.068 93.9704 114.26C93.7944 114.444 93.7064 114.72 93.7064 115.088V115.94L93.7304 116.468V122H92.5784ZM91.4984 116.588V115.64H95.5544V116.588H91.4984ZM96.6464 122V115.64H97.7984V122H96.6464ZM97.2224 114.416C96.9984 114.416 96.8104 114.344 96.6584 114.2C96.5144 114.056 96.4424 113.88 96.4424 113.672C96.4424 113.456 96.5144 113.276 96.6584 113.132C96.8104 112.988 96.9984 112.916 97.2224 112.916C97.4464 112.916 97.6304 112.988 97.7744 113.132C97.9264 113.268 98.0024 113.44 98.0024 113.648C98.0024 113.864 97.9304 114.048 97.7864 114.2C97.6424 114.344 97.4544 114.416 97.2224 114.416ZM102.776 124.4C102.192 124.4 101.624 124.316 101.072 124.148C100.528 123.988 100.084 123.756 99.7404 123.452L100.292 122.564C100.588 122.82 100.952 123.02 101.384 123.164C101.816 123.316 102.268 123.392 102.74 123.392C103.492 123.392 104.044 123.216 104.396 122.864C104.748 122.512 104.924 121.976 104.924 121.256V119.912L105.044 118.652L104.984 117.38V115.64H106.076V121.136C106.076 122.256 105.796 123.08 105.236 123.608C104.676 124.136 103.856 124.4 102.776 124.4ZM102.632 121.736C102.016 121.736 101.464 121.608 100.976 121.352C100.496 121.088 100.112 120.724 99.8244 120.26C99.5444 119.796 99.4044 119.26 99.4044 118.652C99.4044 118.036 99.5444 117.5 99.8244 117.044C100.112 116.58 100.496 116.22 100.976 115.964C101.464 115.708 102.016 115.58 102.632 115.58C103.176 115.58 103.672 115.692 104.12 115.916C104.568 116.132 104.924 116.468 105.188 116.924C105.46 117.38 105.596 117.956 105.596 118.652C105.596 119.34 105.46 119.912 105.188 120.368C104.924 120.824 104.568 121.168 104.12 121.4C103.672 121.624 103.176 121.736 102.632 121.736ZM102.764 120.728C103.188 120.728 103.564 120.64 103.892 120.464C104.22 120.288 104.476 120.044 104.66 119.732C104.852 119.42 104.948 119.06 104.948 118.652C104.948 118.244 104.852 117.884 104.66 117.572C104.476 117.26 104.22 117.02 103.892 116.852C103.564 116.676 103.188 116.588 102.764 116.588C102.34 116.588 101.96 116.676 101.624 116.852C101.296 117.02 101.036 117.26 100.844 117.572C100.66 117.884 100.568 118.244 100.568 118.652C100.568 119.06 100.66 119.42 100.844 119.732C101.036 120.044 101.296 120.288 101.624 120.464C101.96 120.64 102.34 120.728 102.764 120.728ZM110.954 122.072C110.41 122.072 109.93 121.972 109.514 121.772C109.106 121.572 108.786 121.268 108.554 120.86C108.33 120.444 108.218 119.924 108.218 119.3V115.64H109.37V119.168C109.37 119.792 109.518 120.26 109.814 120.572C110.118 120.884 110.542 121.04 111.086 121.04C111.486 121.04 111.834 120.96 112.13 120.8C112.426 120.632 112.654 120.392 112.814 120.08C112.974 119.76 113.054 119.376 113.054 118.928V115.64H114.206V122H113.114V120.284L113.294 120.74C113.086 121.164 112.774 121.492 112.358 121.724C111.942 121.956 111.474 122.072 110.954 122.072ZM116.399 122V115.64H117.503V117.368L117.395 116.936C117.571 116.496 117.867 116.16 118.283 115.928C118.699 115.696 119.211 115.58 119.819 115.58V116.696C119.771 116.688 119.723 116.684 119.675 116.684C119.635 116.684 119.595 116.684 119.555 116.684C118.939 116.684 118.451 116.868 118.091 117.236C117.731 117.604 117.551 118.136 117.551 118.832V122H116.399ZM124.012 122.072C123.332 122.072 122.732 121.932 122.212 121.652C121.7 121.372 121.3 120.988 121.012 120.5C120.732 120.012 120.592 119.452 120.592 118.82C120.592 118.188 120.728 117.628 121 117.14C121.28 116.652 121.66 116.272 122.14 116C122.628 115.72 123.176 115.58 123.784 115.58C124.4 115.58 124.944 115.716 125.416 115.988C125.888 116.26 126.256 116.644 126.52 117.14C126.792 117.628 126.928 118.2 126.928 118.856C126.928 118.904 126.924 118.96 126.916 119.024C126.916 119.088 126.912 119.148 126.904 119.204H121.492V118.376H126.304L125.836 118.664C125.844 118.256 125.76 117.892 125.584 117.572C125.408 117.252 125.164 117.004 124.852 116.828C124.548 116.644 124.192 116.552 123.784 116.552C123.384 116.552 123.028 116.644 122.716 116.828C122.404 117.004 122.16 117.256 121.984 117.584C121.808 117.904 121.72 118.272 121.72 118.688V118.88C121.72 119.304 121.816 119.684 122.008 120.02C122.208 120.348 122.484 120.604 122.836 120.788C123.188 120.972 123.592 121.064 124.048 121.064C124.424 121.064 124.764 121 125.068 120.872C125.38 120.744 125.652 120.552 125.884 120.296L126.52 121.04C126.232 121.376 125.872 121.632 125.44 121.808C125.016 121.984 124.54 122.072 124.012 122.072ZM131.75 122V115.64H132.902V122H131.75ZM132.326 114.416C132.102 114.416 131.914 114.344 131.762 114.2C131.618 114.056 131.546 113.88 131.546 113.672C131.546 113.456 131.618 113.276 131.762 113.132C131.914 112.988 132.102 112.916 132.326 112.916C132.55 112.916 132.734 112.988 132.878 113.132C133.03 113.268 133.106 113.44 133.106 113.648C133.106 113.864 133.034 114.048 132.89 114.2C132.746 114.344 132.558 114.416 132.326 114.416ZM138.498 115.58C139.018 115.58 139.474 115.68 139.866 115.88C140.266 116.08 140.578 116.384 140.802 116.792C141.026 117.2 141.138 117.716 141.138 118.34V122H139.986V118.472C139.986 117.856 139.834 117.392 139.53 117.08C139.234 116.768 138.814 116.612 138.27 116.612C137.862 116.612 137.506 116.692 137.202 116.852C136.898 117.012 136.662 117.248 136.494 117.56C136.334 117.872 136.254 118.26 136.254 118.724V122H135.102V115.64H136.206V117.356L136.026 116.9C136.234 116.484 136.554 116.16 136.986 115.928C137.418 115.696 137.922 115.58 138.498 115.58ZM46.2185 130.58C46.7385 130.58 47.1945 130.68 47.5865 130.88C47.9865 131.08 48.2985 131.384 48.5225 131.792C48.7465 132.2 48.8585 132.716 48.8585 133.34V137H47.7065V133.472C47.7065 132.856 47.5545 132.392 47.2505 132.08C46.9545 131.768 46.5345 131.612 45.9905 131.612C45.5825 131.612 45.2265 131.692 44.9225 131.852C44.6185 132.012 44.3825 132.248 44.2145 132.56C44.0545 132.872 43.9745 133.26 43.9745 133.724V137H42.8225V128.096H43.9745V132.356L43.7465 131.9C43.9545 131.484 44.2745 131.16 44.7065 130.928C45.1385 130.696 45.6425 130.58 46.2185 130.58ZM54.9384 137V135.656L54.8784 135.404V133.112C54.8784 132.624 54.7344 132.248 54.4464 131.984C54.1664 131.712 53.7424 131.576 53.1744 131.576C52.7984 131.576 52.4304 131.64 52.0704 131.768C51.7104 131.888 51.4064 132.052 51.1584 132.26L50.6784 131.396C51.0064 131.132 51.3984 130.932 51.8544 130.796C52.3184 130.652 52.8024 130.58 53.3064 130.58C54.1784 130.58 54.8504 130.792 55.3224 131.216C55.7944 131.64 56.0304 132.288 56.0304 133.16V137H54.9384ZM52.8504 137.072C52.3784 137.072 51.9624 136.992 51.6024 136.832C51.2504 136.672 50.9784 136.452 50.7864 136.172C50.5944 135.884 50.4984 135.56 50.4984 135.2C50.4984 134.856 50.5784 134.544 50.7384 134.264C50.9064 133.984 51.1744 133.76 51.5424 133.592C51.9184 133.424 52.4224 133.34 53.0544 133.34H55.0704V134.168H53.1024C52.5264 134.168 52.1384 134.264 51.9384 134.456C51.7384 134.648 51.6384 134.88 51.6384 135.152C51.6384 135.464 51.7624 135.716 52.0104 135.908C52.2584 136.092 52.6024 136.184 53.0424 136.184C53.4744 136.184 53.8504 136.088 54.1704 135.896C54.4984 135.704 54.7344 135.424 54.8784 135.056L55.1064 135.848C54.9544 136.224 54.6864 136.524 54.3024 136.748C53.9184 136.964 53.4344 137.072 52.8504 137.072ZM58.1623 137V128.096H59.3143V137H58.1623ZM61.6819 137V130.076C61.6819 129.452 61.8619 128.956 62.2219 128.588C62.5899 128.212 63.1099 128.024 63.7819 128.024C64.0299 128.024 64.2659 128.056 64.4899 128.12C64.7219 128.176 64.9179 128.268 65.0779 128.396L64.7299 129.272C64.6099 129.176 64.4739 129.104 64.3219 129.056C64.1699 129 64.0099 128.972 63.8419 128.972C63.5059 128.972 63.2499 129.068 63.0739 129.26C62.8979 129.444 62.8099 129.72 62.8099 130.088V130.94L62.8339 131.468V137H61.6819ZM60.6019 131.588V130.64H64.6579V131.588H60.6019ZM65.1712 138.776L65.7712 136.352L65.9272 137.048C65.6952 137.048 65.4992 136.976 65.3392 136.832C65.1872 136.688 65.1112 136.492 65.1112 136.244C65.1112 136.004 65.1872 135.808 65.3392 135.656C65.4992 135.504 65.6912 135.428 65.9152 135.428C66.1472 135.428 66.3352 135.508 66.4792 135.668C66.6232 135.82 66.6952 136.012 66.6952 136.244C66.6952 136.324 66.6872 136.404 66.6712 136.484C66.6632 136.556 66.6432 136.644 66.6112 136.748C66.5872 136.844 66.5472 136.964 66.4912 137.108L65.9272 138.776H65.1712ZM71.5686 137V128.096H72.7206V137H71.5686ZM77.7521 137.072C77.0721 137.072 76.4721 136.932 75.9521 136.652C75.4401 136.372 75.0401 135.988 74.7521 135.5C74.4721 135.012 74.3321 134.452 74.3321 133.82C74.3321 133.188 74.4681 132.628 74.7401 132.14C75.0201 131.652 75.4001 131.272 75.8801 131C76.3681 130.72 76.9161 130.58 77.5241 130.58C78.1401 130.58 78.6841 130.716 79.1561 130.988C79.6281 131.26 79.9961 131.644 80.2601 132.14C80.5321 132.628 80.6681 133.2 80.6681 133.856C80.6681 133.904 80.6641 133.96 80.6561 134.024C80.6561 134.088 80.6521 134.148 80.6441 134.204H75.2321V133.376H80.0441L79.5761 133.664C79.5841 133.256 79.5001 132.892 79.3241 132.572C79.1481 132.252 78.9041 132.004 78.5921 131.828C78.2881 131.644 77.9321 131.552 77.5241 131.552C77.1241 131.552 76.7681 131.644 76.4561 131.828C76.1441 132.004 75.9001 132.256 75.7241 132.584C75.5481 132.904 75.4601 133.272 75.4601 133.688V133.88C75.4601 134.304 75.5561 134.684 75.7481 135.02C75.9481 135.348 76.2241 135.604 76.5761 135.788C76.9281 135.972 77.3321 136.064 77.7881 136.064C78.1641 136.064 78.5041 136 78.8081 135.872C79.1201 135.744 79.3921 135.552 79.6241 135.296L80.2601 136.04C79.9721 136.376 79.6121 136.632 79.1801 136.808C78.7561 136.984 78.2801 137.072 77.7521 137.072ZM86.04 137V135.656L85.98 135.404V133.112C85.98 132.624 85.836 132.248 85.548 131.984C85.268 131.712 84.844 131.576 84.276 131.576C83.9 131.576 83.532 131.64 83.172 131.768C82.812 131.888 82.508 132.052 82.26 132.26L81.78 131.396C82.108 131.132 82.5 130.932 82.956 130.796C83.42 130.652 83.904 130.58 84.408 130.58C85.28 130.58 85.952 130.792 86.424 131.216C86.896 131.64 87.132 132.288 87.132 133.16V137H86.04ZM83.952 137.072C83.48 137.072 83.064 136.992 82.704 136.832C82.352 136.672 82.08 136.452 81.888 136.172C81.696 135.884 81.6 135.56 81.6 135.2C81.6 134.856 81.68 134.544 81.84 134.264C82.008 133.984 82.276 133.76 82.644 133.592C83.02 133.424 83.524 133.34 84.156 133.34H86.172V134.168H84.204C83.628 134.168 83.24 134.264 83.04 134.456C82.84 134.648 82.74 134.88 82.74 135.152C82.74 135.464 82.864 135.716 83.112 135.908C83.36 136.092 83.704 136.184 84.144 136.184C84.576 136.184 84.952 136.088 85.272 135.896C85.6 135.704 85.836 135.424 85.98 135.056L86.208 135.848C86.056 136.224 85.788 136.524 85.404 136.748C85.02 136.964 84.536 137.072 83.952 137.072ZM90.8147 137L88.0307 130.64H89.2307L91.7027 136.4H91.1267L93.6467 130.64H94.7747L91.9907 137H90.8147ZM95.8498 137V130.64H97.0018V137H95.8498ZM96.4258 129.416C96.2018 129.416 96.0138 129.344 95.8618 129.2C95.7178 129.056 95.6458 128.88 95.6458 128.672C95.6458 128.456 95.7178 128.276 95.8618 128.132C96.0138 127.988 96.2018 127.916 96.4258 127.916C96.6498 127.916 96.8338 127.988 96.9778 128.132C97.1298 128.268 97.2058 128.44 97.2058 128.648C97.2058 128.864 97.1338 129.048 96.9898 129.2C96.8458 129.344 96.6578 129.416 96.4258 129.416ZM102.597 130.58C103.117 130.58 103.573 130.68 103.965 130.88C104.365 131.08 104.677 131.384 104.901 131.792C105.125 132.2 105.237 132.716 105.237 133.34V137H104.085V133.472C104.085 132.856 103.933 132.392 103.629 132.08C103.333 131.768 102.913 131.612 102.369 131.612C101.961 131.612 101.605 131.692 101.301 131.852C100.997 132.012 100.761 132.248 100.593 132.56C100.433 132.872 100.353 133.26 100.353 133.724V137H99.2014V130.64H100.305V132.356L100.125 131.9C100.333 131.484 100.653 131.16 101.085 130.928C101.517 130.696 102.021 130.58 102.597 130.58ZM110.153 139.4C109.569 139.4 109.001 139.316 108.449 139.148C107.905 138.988 107.461 138.756 107.117 138.452L107.669 137.564C107.965 137.82 108.329 138.02 108.761 138.164C109.193 138.316 109.645 138.392 110.117 138.392C110.869 138.392 111.421 138.216 111.773 137.864C112.125 137.512 112.301 136.976 112.301 136.256V134.912L112.421 133.652L112.361 132.38V130.64H113.453V136.136C113.453 137.256 113.173 138.08 112.613 138.608C112.053 139.136 111.233 139.4 110.153 139.4ZM110.009 136.736C109.393 136.736 108.841 136.608 108.353 136.352C107.873 136.088 107.489 135.724 107.201 135.26C106.921 134.796 106.781 134.26 106.781 133.652C106.781 133.036 106.921 132.5 107.201 132.044C107.489 131.58 107.873 131.22 108.353 130.964C108.841 130.708 109.393 130.58 110.009 130.58C110.553 130.58 111.049 130.692 111.497 130.916C111.945 131.132 112.301 131.468 112.565 131.924C112.837 132.38 112.973 132.956 112.973 133.652C112.973 134.34 112.837 134.912 112.565 135.368C112.301 135.824 111.945 136.168 111.497 136.4C111.049 136.624 110.553 136.736 110.009 136.736ZM110.141 135.728C110.565 135.728 110.941 135.64 111.269 135.464C111.597 135.288 111.853 135.044 112.037 134.732C112.229 134.42 112.325 134.06 112.325 133.652C112.325 133.244 112.229 132.884 112.037 132.572C111.853 132.26 111.597 132.02 111.269 131.852C110.941 131.676 110.565 131.588 110.141 131.588C109.717 131.588 109.337 131.676 109.001 131.852C108.673 132.02 108.413 132.26 108.221 132.572C108.037 132.884 107.945 133.244 107.945 133.652C107.945 134.06 108.037 134.42 108.221 134.732C108.413 135.044 108.673 135.288 109.001 135.464C109.337 135.64 109.717 135.728 110.141 135.728ZM121.061 137.072C120.421 137.072 119.925 136.9 119.573 136.556C119.221 136.212 119.045 135.72 119.045 135.08V129.248H120.197V135.032C120.197 135.376 120.281 135.64 120.449 135.824C120.625 136.008 120.873 136.1 121.193 136.1C121.553 136.1 121.853 136 122.093 135.8L122.453 136.628C122.277 136.78 122.065 136.892 121.817 136.964C121.577 137.036 121.325 137.072 121.061 137.072ZM117.965 131.588V130.64H122.021V131.588H117.965ZM127.242 130.58C127.762 130.58 128.218 130.68 128.61 130.88C129.01 131.08 129.322 131.384 129.546 131.792C129.77 132.2 129.882 132.716 129.882 133.34V137H128.73V133.472C128.73 132.856 128.578 132.392 128.274 132.08C127.978 131.768 127.558 131.612 127.014 131.612C126.606 131.612 126.25 131.692 125.946 131.852C125.642 132.012 125.406 132.248 125.238 132.56C125.078 132.872 124.998 133.26 124.998 133.724V137H123.846V128.096H124.998V132.356L124.77 131.9C124.978 131.484 125.298 131.16 125.73 130.928C126.162 130.696 126.666 130.58 127.242 130.58ZM134.846 137.072C134.166 137.072 133.566 136.932 133.046 136.652C132.534 136.372 132.134 135.988 131.846 135.5C131.566 135.012 131.426 134.452 131.426 133.82C131.426 133.188 131.562 132.628 131.834 132.14C132.114 131.652 132.494 131.272 132.974 131C133.462 130.72 134.01 130.58 134.618 130.58C135.234 130.58 135.778 130.716 136.25 130.988C136.722 131.26 137.09 131.644 137.354 132.14C137.626 132.628 137.762 133.2 137.762 133.856C137.762 133.904 137.758 133.96 137.75 134.024C137.75 134.088 137.746 134.148 137.738 134.204H132.326V133.376H137.138L136.67 133.664C136.678 133.256 136.594 132.892 136.418 132.572C136.242 132.252 135.998 132.004 135.686 131.828C135.382 131.644 135.026 131.552 134.618 131.552C134.218 131.552 133.862 131.644 133.55 131.828C133.238 132.004 132.994 132.256 132.818 132.584C132.642 132.904 132.554 133.272 132.554 133.688V133.88C132.554 134.304 132.65 134.684 132.842 135.02C133.042 135.348 133.318 135.604 133.67 135.788C134.022 135.972 134.426 136.064 134.882 136.064C135.258 136.064 135.598 136 135.902 135.872C136.214 135.744 136.486 135.552 136.718 135.296L137.354 136.04C137.066 136.376 136.706 136.632 136.274 136.808C135.85 136.984 135.374 137.072 134.846 137.072ZM55.2541 152V145.076C55.2541 144.452 55.4341 143.956 55.7941 143.588C56.1621 143.212 56.6821 143.024 57.3541 143.024C57.6021 143.024 57.8381 143.056 58.0621 143.12C58.2941 143.176 58.4901 143.268 58.6501 143.396L58.3021 144.272C58.1821 144.176 58.0461 144.104 57.8941 144.056C57.7421 144 57.5821 143.972 57.4141 143.972C57.0781 143.972 56.8221 144.068 56.6461 144.26C56.4701 144.444 56.3821 144.72 56.3821 145.088V145.94L56.4061 146.468V152H55.2541ZM54.1741 146.588V145.64H58.2301V146.588H54.1741ZM61.9469 152.072C61.3069 152.072 60.7389 151.932 60.2429 151.652C59.7469 151.372 59.3549 150.988 59.0669 150.5C58.7789 150.004 58.6349 149.444 58.6349 148.82C58.6349 148.188 58.7789 147.628 59.0669 147.14C59.3549 146.652 59.7469 146.272 60.2429 146C60.7389 145.72 61.3069 145.58 61.9469 145.58C62.5789 145.58 63.1429 145.72 63.6389 146C64.1429 146.272 64.5349 146.652 64.8149 147.14C65.1029 147.62 65.2469 148.18 65.2469 148.82C65.2469 149.452 65.1029 150.012 64.8149 150.5C64.5349 150.988 64.1429 151.372 63.6389 151.652C63.1429 151.932 62.5789 152.072 61.9469 152.072ZM61.9469 151.064C62.3549 151.064 62.7189 150.972 63.0389 150.788C63.3669 150.604 63.6229 150.344 63.8069 150.008C63.9909 149.664 64.0829 149.268 64.0829 148.82C64.0829 148.364 63.9909 147.972 63.8069 147.644C63.6229 147.308 63.3669 147.048 63.0389 146.864C62.7189 146.68 62.3549 146.588 61.9469 146.588C61.5389 146.588 61.1749 146.68 60.8549 146.864C60.5349 147.048 60.2789 147.308 60.0869 147.644C59.8949 147.972 59.7989 148.364 59.7989 148.82C59.7989 149.268 59.8949 149.664 60.0869 150.008C60.2789 150.344 60.5349 150.604 60.8549 150.788C61.1749 150.972 61.5389 151.064 61.9469 151.064ZM66.84 152V143.096H67.992V152H66.84ZM72.8196 152.072C72.2036 152.072 71.6516 151.936 71.1636 151.664C70.6836 151.392 70.3036 151.012 70.0236 150.524C69.7436 150.036 69.6036 149.468 69.6036 148.82C69.6036 148.172 69.7436 147.608 70.0236 147.128C70.3036 146.64 70.6836 146.26 71.1636 145.988C71.6516 145.716 72.2036 145.58 72.8196 145.58C73.3556 145.58 73.8396 145.7 74.2716 145.94C74.7036 146.18 75.0476 146.54 75.3036 147.02C75.5676 147.5 75.6996 148.1 75.6996 148.82C75.6996 149.54 75.5716 150.14 75.3156 150.62C75.0676 151.1 74.7276 151.464 74.2956 151.712C73.8636 151.952 73.3716 152.072 72.8196 152.072ZM72.9156 151.064C73.3156 151.064 73.6756 150.972 73.9956 150.788C74.3236 150.604 74.5796 150.344 74.7636 150.008C74.9556 149.664 75.0516 149.268 75.0516 148.82C75.0516 148.364 74.9556 147.972 74.7636 147.644C74.5796 147.308 74.3236 147.048 73.9956 146.864C73.6756 146.68 73.3156 146.588 72.9156 146.588C72.5076 146.588 72.1436 146.68 71.8236 146.864C71.5036 147.048 71.2476 147.308 71.0556 147.644C70.8636 147.972 70.7676 148.364 70.7676 148.82C70.7676 149.268 70.8636 149.664 71.0556 150.008C71.2476 150.344 71.5036 150.604 71.8236 150.788C72.1436 150.972 72.5076 151.064 72.9156 151.064ZM75.0876 152V150.284L75.1596 148.808L75.0396 147.332V143.096H76.1916V152H75.0876ZM80.1953 152.072C79.6673 152.072 79.1633 152 78.6833 151.856C78.2113 151.712 77.8393 151.536 77.5673 151.328L78.0473 150.416C78.3193 150.6 78.6553 150.756 79.0553 150.884C79.4553 151.012 79.8633 151.076 80.2793 151.076C80.8153 151.076 81.1993 151 81.4313 150.848C81.6713 150.696 81.7913 150.484 81.7913 150.212C81.7913 150.012 81.7193 149.856 81.5753 149.744C81.4313 149.632 81.2393 149.548 80.9993 149.492C80.7673 149.436 80.5073 149.388 80.2193 149.348C79.9313 149.3 79.6433 149.244 79.3553 149.18C79.0673 149.108 78.8033 149.012 78.5633 148.892C78.3233 148.764 78.1313 148.592 77.9873 148.376C77.8433 148.152 77.7713 147.856 77.7713 147.488C77.7713 147.104 77.8793 146.768 78.0953 146.48C78.3113 146.192 78.6153 145.972 79.0073 145.82C79.4073 145.66 79.8793 145.58 80.4233 145.58C80.8393 145.58 81.2593 145.632 81.6833 145.736C82.1153 145.832 82.4673 145.972 82.7393 146.156L82.2473 147.068C81.9593 146.876 81.6593 146.744 81.3473 146.672C81.0353 146.6 80.7233 146.564 80.4113 146.564C79.9073 146.564 79.5313 146.648 79.2833 146.816C79.0353 146.976 78.9113 147.184 78.9113 147.44C78.9113 147.656 78.9833 147.824 79.1273 147.944C79.2793 148.056 79.4713 148.144 79.7033 148.208C79.9433 148.272 80.2073 148.328 80.4953 148.376C80.7833 148.416 81.0713 148.472 81.3593 148.544C81.6473 148.608 81.9073 148.7 82.1393 148.82C82.3793 148.94 82.5713 149.108 82.7153 149.324C82.8673 149.54 82.9433 149.828 82.9433 150.188C82.9433 150.572 82.8313 150.904 82.6073 151.184C82.3833 151.464 82.0673 151.684 81.6593 151.844C81.2513 151.996 80.7633 152.072 80.1953 152.072ZM90.3297 152.072C89.6897 152.072 89.1217 151.932 88.6257 151.652C88.1297 151.372 87.7377 150.988 87.4497 150.5C87.1617 150.004 87.0177 149.444 87.0177 148.82C87.0177 148.188 87.1617 147.628 87.4497 147.14C87.7377 146.652 88.1297 146.272 88.6257 146C89.1217 145.72 89.6897 145.58 90.3297 145.58C90.9617 145.58 91.5257 145.72 92.0217 146C92.5257 146.272 92.9177 146.652 93.1977 147.14C93.4857 147.62 93.6297 148.18 93.6297 148.82C93.6297 149.452 93.4857 150.012 93.1977 150.5C92.9177 150.988 92.5257 151.372 92.0217 151.652C91.5257 151.932 90.9617 152.072 90.3297 152.072ZM90.3297 151.064C90.7377 151.064 91.1017 150.972 91.4217 150.788C91.7497 150.604 92.0057 150.344 92.1897 150.008C92.3737 149.664 92.4657 149.268 92.4657 148.82C92.4657 148.364 92.3737 147.972 92.1897 147.644C92.0057 147.308 91.7497 147.048 91.4217 146.864C91.1017 146.68 90.7377 146.588 90.3297 146.588C89.9217 146.588 89.5577 146.68 89.2377 146.864C88.9177 147.048 88.6617 147.308 88.4697 147.644C88.2777 147.972 88.1817 148.364 88.1817 148.82C88.1817 149.268 88.2777 149.664 88.4697 150.008C88.6617 150.344 88.9177 150.604 89.2377 150.788C89.5577 150.972 89.9217 151.064 90.3297 151.064ZM98.6189 145.58C99.1389 145.58 99.5949 145.68 99.9869 145.88C100.387 146.08 100.699 146.384 100.923 146.792C101.147 147.2 101.259 147.716 101.259 148.34V152H100.107V148.472C100.107 147.856 99.9549 147.392 99.6509 147.08C99.3549 146.768 98.9349 146.612 98.3909 146.612C97.9829 146.612 97.6269 146.692 97.3229 146.852C97.0189 147.012 96.7829 147.248 96.6149 147.56C96.4549 147.872 96.3749 148.26 96.3749 148.724V152H95.2229V145.64H96.3269V147.356L96.1469 146.9C96.3549 146.484 96.6749 146.16 97.1069 145.928C97.5389 145.696 98.0429 145.58 98.6189 145.58ZM108.797 152.072C108.157 152.072 107.661 151.9 107.309 151.556C106.957 151.212 106.781 150.72 106.781 150.08V144.248H107.933V150.032C107.933 150.376 108.017 150.64 108.185 150.824C108.361 151.008 108.609 151.1 108.929 151.1C109.289 151.1 109.589 151 109.829 150.8L110.189 151.628C110.013 151.78 109.801 151.892 109.553 151.964C109.313 152.036 109.061 152.072 108.797 152.072ZM105.701 146.588V145.64H109.757V146.588H105.701ZM114.978 145.58C115.498 145.58 115.954 145.68 116.346 145.88C116.746 146.08 117.058 146.384 117.282 146.792C117.506 147.2 117.618 147.716 117.618 148.34V152H116.466V148.472C116.466 147.856 116.314 147.392 116.01 147.08C115.714 146.768 115.294 146.612 114.75 146.612C114.342 146.612 113.986 146.692 113.682 146.852C113.378 147.012 113.142 147.248 112.974 147.56C112.814 147.872 112.734 148.26 112.734 148.724V152H111.582V143.096H112.734V147.356L112.506 146.9C112.714 146.484 113.034 146.16 113.466 145.928C113.898 145.696 114.402 145.58 114.978 145.58ZM122.582 152.072C121.902 152.072 121.302 151.932 120.782 151.652C120.27 151.372 119.87 150.988 119.582 150.5C119.302 150.012 119.162 149.452 119.162 148.82C119.162 148.188 119.298 147.628 119.57 147.14C119.85 146.652 120.23 146.272 120.71 146C121.198 145.72 121.746 145.58 122.354 145.58C122.97 145.58 123.514 145.716 123.986 145.988C124.458 146.26 124.826 146.644 125.09 147.14C125.362 147.628 125.498 148.2 125.498 148.856C125.498 148.904 125.494 148.96 125.486 149.024C125.486 149.088 125.482 149.148 125.474 149.204H120.062V148.376H124.874L124.406 148.664C124.414 148.256 124.33 147.892 124.154 147.572C123.978 147.252 123.734 147.004 123.422 146.828C123.118 146.644 122.762 146.552 122.354 146.552C121.954 146.552 121.598 146.644 121.286 146.828C120.974 147.004 120.73 147.256 120.554 147.584C120.378 147.904 120.29 148.272 120.29 148.688V148.88C120.29 149.304 120.386 149.684 120.578 150.02C120.778 150.348 121.054 150.604 121.406 150.788C121.758 150.972 122.162 151.064 122.618 151.064C122.994 151.064 123.334 151 123.638 150.872C123.95 150.744 124.222 150.552 124.454 150.296L125.09 151.04C124.802 151.376 124.442 151.632 124.01 151.808C123.586 151.984 123.11 152.072 122.582 152.072ZM69.6578 167.072C69.0178 167.072 68.4498 166.932 67.9538 166.652C67.4578 166.372 67.0658 165.988 66.7778 165.5C66.4898 165.004 66.3458 164.444 66.3458 163.82C66.3458 163.188 66.4898 162.628 66.7778 162.14C67.0658 161.652 67.4578 161.272 67.9538 161C68.4498 160.72 69.0178 160.58 69.6578 160.58C70.2898 160.58 70.8538 160.72 71.3498 161C71.8538 161.272 72.2458 161.652 72.5258 162.14C72.8138 162.62 72.9578 163.18 72.9578 163.82C72.9578 164.452 72.8138 165.012 72.5258 165.5C72.2458 165.988 71.8538 166.372 71.3498 166.652C70.8538 166.932 70.2898 167.072 69.6578 167.072ZM69.6578 166.064C70.0658 166.064 70.4298 165.972 70.7498 165.788C71.0778 165.604 71.3338 165.344 71.5178 165.008C71.7018 164.664 71.7938 164.268 71.7938 163.82C71.7938 163.364 71.7018 162.972 71.5178 162.644C71.3338 162.308 71.0778 162.048 70.7498 161.864C70.4298 161.68 70.0658 161.588 69.6578 161.588C69.2498 161.588 68.8858 161.68 68.5658 161.864C68.2458 162.048 67.9898 162.308 67.7978 162.644C67.6058 162.972 67.5098 163.364 67.5098 163.82C67.5098 164.268 67.6058 164.664 67.7978 165.008C67.9898 165.344 68.2458 165.604 68.5658 165.788C68.8858 165.972 69.2498 166.064 69.6578 166.064ZM77.227 167.072C76.683 167.072 76.203 166.972 75.787 166.772C75.379 166.572 75.059 166.268 74.827 165.86C74.603 165.444 74.491 164.924 74.491 164.3V160.64H75.643V164.168C75.643 164.792 75.791 165.26 76.087 165.572C76.391 165.884 76.815 166.04 77.359 166.04C77.759 166.04 78.107 165.96 78.403 165.8C78.699 165.632 78.927 165.392 79.087 165.08C79.247 164.76 79.327 164.376 79.327 163.928V160.64H80.479V167H79.387V165.284L79.567 165.74C79.359 166.164 79.047 166.492 78.631 166.724C78.215 166.956 77.747 167.072 77.227 167.072ZM84.8561 167.072C84.2161 167.072 83.7201 166.9 83.3681 166.556C83.0161 166.212 82.8401 165.72 82.8401 165.08V159.248H83.9921V165.032C83.9921 165.376 84.0761 165.64 84.2441 165.824C84.4201 166.008 84.6681 166.1 84.9881 166.1C85.3481 166.1 85.6481 166 85.8881 165.8L86.2481 166.628C86.0721 166.78 85.8601 166.892 85.6121 166.964C85.3721 167.036 85.1201 167.072 84.8561 167.072ZM81.7601 161.588V160.64H85.8161V161.588H81.7601ZM89.4648 167.072C88.9368 167.072 88.4328 167 87.9528 166.856C87.4808 166.712 87.1088 166.536 86.8368 166.328L87.3168 165.416C87.5888 165.6 87.9248 165.756 88.3248 165.884C88.7248 166.012 89.1328 166.076 89.5488 166.076C90.0848 166.076 90.4688 166 90.7008 165.848C90.9408 165.696 91.0608 165.484 91.0608 165.212C91.0608 165.012 90.9888 164.856 90.8448 164.744C90.7008 164.632 90.5088 164.548 90.2688 164.492C90.0368 164.436 89.7768 164.388 89.4888 164.348C89.2008 164.3 88.9128 164.244 88.6248 164.18C88.3368 164.108 88.0728 164.012 87.8328 163.892C87.5928 163.764 87.4008 163.592 87.2568 163.376C87.1128 163.152 87.0408 162.856 87.0408 162.488C87.0408 162.104 87.1488 161.768 87.3648 161.48C87.5808 161.192 87.8848 160.972 88.2768 160.82C88.6768 160.66 89.1488 160.58 89.6928 160.58C90.1088 160.58 90.5288 160.632 90.9528 160.736C91.3848 160.832 91.7368 160.972 92.0088 161.156L91.5168 162.068C91.2288 161.876 90.9288 161.744 90.6168 161.672C90.3048 161.6 89.9928 161.564 89.6808 161.564C89.1768 161.564 88.8008 161.648 88.5528 161.816C88.3048 161.976 88.1808 162.184 88.1808 162.44C88.1808 162.656 88.2528 162.824 88.3968 162.944C88.5488 163.056 88.7408 163.144 88.9728 163.208C89.2128 163.272 89.4768 163.328 89.7648 163.376C90.0528 163.416 90.3408 163.472 90.6288 163.544C90.9168 163.608 91.1768 163.7 91.4088 163.82C91.6488 163.94 91.8408 164.108 91.9848 164.324C92.1368 164.54 92.2128 164.828 92.2128 165.188C92.2128 165.572 92.1008 165.904 91.8768 166.184C91.6528 166.464 91.3368 166.684 90.9288 166.844C90.5208 166.996 90.0328 167.072 89.4648 167.072ZM93.6525 167V160.64H94.8045V167H93.6525ZM94.2285 159.416C94.0045 159.416 93.8165 159.344 93.6645 159.2C93.5205 159.056 93.4485 158.88 93.4485 158.672C93.4485 158.456 93.5205 158.276 93.6645 158.132C93.8165 157.988 94.0045 157.916 94.2285 157.916C94.4525 157.916 94.6365 157.988 94.7805 158.132C94.9325 158.268 95.0085 158.44 95.0085 158.648C95.0085 158.864 94.9365 159.048 94.7925 159.2C94.6485 159.344 94.4605 159.416 94.2285 159.416ZM99.6321 167.072C99.0161 167.072 98.4641 166.936 97.9761 166.664C97.4961 166.392 97.1161 166.012 96.8361 165.524C96.5561 165.036 96.4161 164.468 96.4161 163.82C96.4161 163.172 96.5561 162.608 96.8361 162.128C97.1161 161.64 97.4961 161.26 97.9761 160.988C98.4641 160.716 99.0161 160.58 99.6321 160.58C100.168 160.58 100.652 160.7 101.084 160.94C101.516 161.18 101.86 161.54 102.116 162.02C102.38 162.5 102.512 163.1 102.512 163.82C102.512 164.54 102.384 165.14 102.128 165.62C101.88 166.1 101.54 166.464 101.108 166.712C100.676 166.952 100.184 167.072 99.6321 167.072ZM99.7281 166.064C100.128 166.064 100.488 165.972 100.808 165.788C101.136 165.604 101.392 165.344 101.576 165.008C101.768 164.664 101.864 164.268 101.864 163.82C101.864 163.364 101.768 162.972 101.576 162.644C101.392 162.308 101.136 162.048 100.808 161.864C100.488 161.68 100.128 161.588 99.7281 161.588C99.3201 161.588 98.9561 161.68 98.6361 161.864C98.3161 162.048 98.0601 162.308 97.8681 162.644C97.6761 162.972 97.5801 163.364 97.5801 163.82C97.5801 164.268 97.6761 164.664 97.8681 165.008C98.0601 165.344 98.3161 165.604 98.6361 165.788C98.9561 165.972 99.3201 166.064 99.7281 166.064ZM101.9 167V165.284L101.972 163.808L101.852 162.332V158.096H103.004V167H101.9ZM108.016 167.072C107.336 167.072 106.736 166.932 106.216 166.652C105.704 166.372 105.304 165.988 105.016 165.5C104.736 165.012 104.596 164.452 104.596 163.82C104.596 163.188 104.732 162.628 105.004 162.14C105.284 161.652 105.664 161.272 106.144 161C106.632 160.72 107.18 160.58 107.788 160.58C108.404 160.58 108.948 160.716 109.42 160.988C109.892 161.26 110.26 161.644 110.524 162.14C110.796 162.628 110.932 163.2 110.932 163.856C110.932 163.904 110.928 163.96 110.92 164.024C110.92 164.088 110.916 164.148 110.908 164.204H105.496V163.376H110.308L109.84 163.664C109.848 163.256 109.764 162.892 109.588 162.572C109.412 162.252 109.168 162.004 108.856 161.828C108.552 161.644 108.196 161.552 107.788 161.552C107.388 161.552 107.032 161.644 106.72 161.828C106.408 162.004 106.164 162.256 105.988 162.584C105.812 162.904 105.724 163.272 105.724 163.688V163.88C105.724 164.304 105.82 164.684 106.012 165.02C106.212 165.348 106.488 165.604 106.84 165.788C107.192 165.972 107.596 166.064 108.052 166.064C108.428 166.064 108.768 166 109.072 165.872C109.384 165.744 109.656 165.552 109.888 165.296L110.524 166.04C110.236 166.376 109.876 166.632 109.444 166.808C109.02 166.984 108.544 167.072 108.016 167.072ZM112.807 167.072C112.583 167.072 112.391 166.996 112.231 166.844C112.071 166.684 111.991 166.484 111.991 166.244C111.991 166.004 112.071 165.808 112.231 165.656C112.391 165.504 112.583 165.428 112.807 165.428C113.023 165.428 113.207 165.504 113.359 165.656C113.519 165.808 113.599 166.004 113.599 166.244C113.599 166.484 113.519 166.684 113.359 166.844C113.207 166.996 113.023 167.072 112.807 167.072Z" fill="#008E86"/>
<path d="M111.635 100.769C111.927 101.238 112.543 101.382 113.012 101.09L120.653 96.3344C121.122 96.0426 121.266 95.4259 120.974 94.957C120.682 94.4882 120.065 94.3446 119.597 94.6364L112.805 98.8636L108.577 92.0716C108.286 91.6027 107.669 91.4592 107.2 91.751C106.731 92.0428 106.588 92.6595 106.879 93.1284L111.635 100.769ZM94.0062 61.5366C93.8933 62.0772 94.24 62.607 94.7807 62.7199C95.3213 62.8328 95.8511 62.4861 95.964 61.9455L94.0062 61.5366ZM110.983 23.7817L110.7 24.7406L110.983 23.7817ZM113.458 100.468C117.765 81.9617 119.237 63.3025 118.706 48.9764C118.441 41.8181 117.674 35.7021 116.493 31.2122C115.904 28.9705 115.199 27.0896 114.375 25.677C113.564 24.2882 112.548 23.2019 111.267 22.8228L110.7 24.7406C111.258 24.9058 111.935 25.466 112.648 26.6854C113.346 27.8812 113.994 29.5705 114.559 31.721C115.689 36.0153 116.445 41.9709 116.708 49.0504C117.232 63.2001 115.777 81.6819 111.51 100.014L113.458 100.468ZM111.267 22.8228C109.703 22.3597 108.185 23.0575 106.835 24.4307C105.485 25.8034 104.123 28.0107 102.746 31.0732C99.9818 37.2159 97.0209 47.1024 94.0062 61.5366L95.964 61.9455C98.9693 47.5562 101.895 37.8376 104.569 31.8938C105.911 28.9131 107.156 26.9568 108.261 25.8331C109.366 24.7098 110.152 24.5784 110.7 24.7406L111.267 22.8228Z" fill="black"/>
<path d="M34.4854 66.4844L91.9678 33.484L124.485 66.4844L91.9678 99.484L34.4854 66.4844Z" fill="#00D8CC" stroke="#00635D" stroke-width="2" stroke-linejoin="round"/>
<path d="M94.9863 61.7415C101.006 32.918 106.76 22.5315 110.985 23.7822" stroke="black" stroke-width="2" stroke-linecap="round"/>
<path d="M124.484 66.2422H34.4844" stroke="#333333" stroke-width="2" stroke-dasharray="4 6"/>
<path d="M34 66.2422L91.4824 33.2418L94.4844 43.2418L74.9844 54.7418L34 66.2422Z" fill="#008E86" stroke="#00635D" stroke-width="2" stroke-linejoin="round"/>
<path d="M34.4844 65.9844L91.9668 98.9847L94.9687 88.9847L75.4687 77.4847L34.4844 65.9844Z" fill="#008E86" stroke="#00635D" stroke-width="2" stroke-linejoin="round"/>
<path d="M75.103 47.6236L93.603 43.3608L75.103 54.8608L75.103 47.6236Z" fill="#00D8CC" stroke="#00635D" stroke-width="2" stroke-linejoin="round"/>
<path d="M75.5874 84.603L94.0874 88.8658L75.5874 77.3658L75.5874 84.603Z" fill="#00D8CC" stroke="#00635D" stroke-width="2" stroke-linejoin="round"/>
<path d="M75.1035 47.6211L93.6035 43.3583L91.1035 51.8583L75.1035 47.6211Z" fill="#008E86" stroke="#00635D" stroke-width="2" stroke-linejoin="round"/>
<path d="M75.5879 84.6016L94.0879 88.8643L91.5879 80.3643L75.5879 84.6016Z" fill="#008E86" stroke="#00635D" stroke-width="2" stroke-linejoin="round"/>
</svg>
