<svg width="180" height="180" viewBox="0 0 180 180" fill="none" xmlns="http://www.w3.org/2000/svg">
<rect width="180" height="180" rx="20" fill="#F2F2F2"/>
<path d="M59.1155 129V120.6H62.3915C63.1275 120.6 63.7555 120.716 64.2755 120.948C64.7955 121.18 65.1955 121.516 65.4755 121.956C65.7555 122.396 65.8955 122.92 65.8955 123.528C65.8955 124.136 65.7555 124.66 65.4755 125.1C65.1955 125.532 64.7955 125.864 64.2755 126.096C63.7555 126.328 63.1275 126.444 62.3915 126.444H59.7755L60.3155 125.892V129H59.1155ZM64.7315 129L62.5955 125.952H63.8795L66.0395 129H64.7315ZM60.3155 126.012L59.7755 125.424H62.3555C63.1235 125.424 63.7035 125.26 64.0955 124.932C64.4955 124.596 64.6955 124.128 64.6955 123.528C64.6955 122.928 64.4955 122.464 64.0955 122.136C63.7035 121.808 63.1235 121.644 62.3555 121.644H59.7755L60.3155 121.044V126.012ZM70.3902 129.072C69.7502 129.072 69.1822 128.932 68.6862 128.652C68.1902 128.372 67.7982 127.988 67.5102 127.5C67.2222 127.004 67.0782 126.444 67.0782 125.82C67.0782 125.188 67.2222 124.628 67.5102 124.14C67.7982 123.652 68.1902 123.272 68.6862 123C69.1822 122.72 69.7502 122.58 70.3902 122.58C71.0222 122.58 71.5862 122.72 72.0822 123C72.5862 123.272 72.9782 123.652 73.2582 124.14C73.5462 124.62 73.6902 125.18 73.6902 125.82C73.6902 126.452 73.5462 127.012 73.2582 127.5C72.9782 127.988 72.5862 128.372 72.0822 128.652C71.5862 128.932 71.0222 129.072 70.3902 129.072ZM70.3902 128.064C70.7982 128.064 71.1622 127.972 71.4822 127.788C71.8102 127.604 72.0662 127.344 72.2502 127.008C72.4342 126.664 72.5262 126.268 72.5262 125.82C72.5262 125.364 72.4342 124.972 72.2502 124.644C72.0662 124.308 71.8102 124.048 71.4822 123.864C71.1622 123.68 70.7982 123.588 70.3902 123.588C69.9822 123.588 69.6182 123.68 69.2982 123.864C68.9782 124.048 68.7222 124.308 68.5302 124.644C68.3382 124.972 68.2422 125.364 68.2422 125.82C68.2422 126.268 68.3382 126.664 68.5302 127.008C68.7222 127.344 68.9782 127.604 69.2982 127.788C69.6182 127.972 69.9822 128.064 70.3902 128.064ZM77.4674 129.072C76.8274 129.072 76.3314 128.9 75.9794 128.556C75.6274 128.212 75.4514 127.72 75.4514 127.08V121.248H76.6034V127.032C76.6034 127.376 76.6874 127.64 76.8554 127.824C77.0314 128.008 77.2794 128.1 77.5994 128.1C77.9594 128.1 78.2594 128 78.4994 127.8L78.8594 128.628C78.6834 128.78 78.4714 128.892 78.2234 128.964C77.9834 129.036 77.7314 129.072 77.4674 129.072ZM74.3714 123.588V122.64H78.4274V123.588H74.3714ZM84.2002 129V127.656L84.1402 127.404V125.112C84.1402 124.624 83.9962 124.248 83.7082 123.984C83.4282 123.712 83.0042 123.576 82.4362 123.576C82.0602 123.576 81.6922 123.64 81.3322 123.768C80.9722 123.888 80.6682 124.052 80.4202 124.26L79.9402 123.396C80.2682 123.132 80.6602 122.932 81.1162 122.796C81.5802 122.652 82.0642 122.58 82.5682 122.58C83.4402 122.58 84.1122 122.792 84.5842 123.216C85.0562 123.64 85.2922 124.288 85.2922 125.16V129H84.2002ZM82.1122 129.072C81.6402 129.072 81.2242 128.992 80.8642 128.832C80.5122 128.672 80.2402 128.452 80.0482 128.172C79.8562 127.884 79.7602 127.56 79.7602 127.2C79.7602 126.856 79.8402 126.544 80.0002 126.264C80.1682 125.984 80.4362 125.76 80.8042 125.592C81.1802 125.424 81.6842 125.34 82.3162 125.34H84.3322V126.168H82.3642C81.7882 126.168 81.4002 126.264 81.2002 126.456C81.0002 126.648 80.9002 126.88 80.9002 127.152C80.9002 127.464 81.0242 127.716 81.2722 127.908C81.5202 128.092 81.8642 128.184 82.3042 128.184C82.7362 128.184 83.1122 128.088 83.4322 127.896C83.7602 127.704 83.9962 127.424 84.1402 127.056L84.3682 127.848C84.2162 128.224 83.9482 128.524 83.5642 128.748C83.1802 128.964 82.6962 129.072 82.1122 129.072ZM89.608 129.072C88.968 129.072 88.472 128.9 88.12 128.556C87.768 128.212 87.592 127.72 87.592 127.08V121.248H88.744V127.032C88.744 127.376 88.828 127.64 88.996 127.824C89.172 128.008 89.42 128.1 89.74 128.1C90.1 128.1 90.4 128 90.64 127.8L91 128.628C90.824 128.78 90.612 128.892 90.364 128.964C90.124 129.036 89.872 129.072 89.608 129.072ZM86.512 123.588V122.64H90.568V123.588H86.512ZM95.0138 129.072C94.3338 129.072 93.7338 128.932 93.2138 128.652C92.7018 128.372 92.3018 127.988 92.0138 127.5C91.7338 127.012 91.5938 126.452 91.5938 125.82C91.5938 125.188 91.7298 124.628 92.0018 124.14C92.2818 123.652 92.6618 123.272 93.1418 123C93.6298 122.72 94.1778 122.58 94.7858 122.58C95.4018 122.58 95.9458 122.716 96.4178 122.988C96.8898 123.26 97.2578 123.644 97.5218 124.14C97.7938 124.628 97.9298 125.2 97.9298 125.856C97.9298 125.904 97.9258 125.96 97.9178 126.024C97.9178 126.088 97.9138 126.148 97.9058 126.204H92.4938V125.376H97.3058L96.8378 125.664C96.8458 125.256 96.7618 124.892 96.5858 124.572C96.4098 124.252 96.1658 124.004 95.8538 123.828C95.5498 123.644 95.1938 123.552 94.7858 123.552C94.3858 123.552 94.0298 123.644 93.7178 123.828C93.4058 124.004 93.1618 124.256 92.9858 124.584C92.8098 124.904 92.7218 125.272 92.7218 125.688V125.88C92.7218 126.304 92.8178 126.684 93.0098 127.02C93.2098 127.348 93.4858 127.604 93.8378 127.788C94.1898 127.972 94.5938 128.064 95.0498 128.064C95.4258 128.064 95.7658 128 96.0698 127.872C96.3818 127.744 96.6538 127.552 96.8858 127.296L97.5218 128.04C97.2338 128.376 96.8738 128.632 96.4418 128.808C96.0178 128.984 95.5418 129.072 95.0138 129.072ZM104.936 129.072C104.296 129.072 103.8 128.9 103.448 128.556C103.096 128.212 102.92 127.72 102.92 127.08V121.248H104.072V127.032C104.072 127.376 104.156 127.64 104.324 127.824C104.5 128.008 104.748 128.1 105.068 128.1C105.428 128.1 105.728 128 105.968 127.8L106.328 128.628C106.152 128.78 105.94 128.892 105.692 128.964C105.452 129.036 105.2 129.072 104.936 129.072ZM101.84 123.588V122.64H105.896V123.588H101.84ZM111.117 122.58C111.637 122.58 112.093 122.68 112.485 122.88C112.885 123.08 113.197 123.384 113.421 123.792C113.645 124.2 113.757 124.716 113.757 125.34V129H112.605V125.472C112.605 124.856 112.453 124.392 112.149 124.08C111.853 123.768 111.433 123.612 110.889 123.612C110.481 123.612 110.125 123.692 109.821 123.852C109.517 124.012 109.281 124.248 109.113 124.56C108.953 124.872 108.873 125.26 108.873 125.724V129H107.721V120.096H108.873V124.356L108.645 123.9C108.853 123.484 109.173 123.16 109.605 122.928C110.037 122.696 110.541 122.58 111.117 122.58ZM118.721 129.072C118.041 129.072 117.441 128.932 116.921 128.652C116.409 128.372 116.009 127.988 115.721 127.5C115.441 127.012 115.301 126.452 115.301 125.82C115.301 125.188 115.437 124.628 115.709 124.14C115.989 123.652 116.369 123.272 116.849 123C117.337 122.72 117.885 122.58 118.493 122.58C119.109 122.58 119.653 122.716 120.125 122.988C120.597 123.26 120.965 123.644 121.229 124.14C121.501 124.628 121.637 125.2 121.637 125.856C121.637 125.904 121.633 125.96 121.625 126.024C121.625 126.088 121.621 126.148 121.613 126.204H116.201V125.376H121.013L120.545 125.664C120.553 125.256 120.469 124.892 120.293 124.572C120.117 124.252 119.873 124.004 119.561 123.828C119.257 123.644 118.901 123.552 118.493 123.552C118.093 123.552 117.737 123.644 117.425 123.828C117.113 124.004 116.869 124.256 116.693 124.584C116.517 124.904 116.429 125.272 116.429 125.688V125.88C116.429 126.304 116.525 126.684 116.717 127.02C116.917 127.348 117.193 127.604 117.545 127.788C117.897 127.972 118.301 128.064 118.757 128.064C119.133 128.064 119.473 128 119.777 127.872C120.089 127.744 120.361 127.552 120.593 127.296L121.229 128.04C120.941 128.376 120.581 128.632 120.149 128.808C119.725 128.984 119.249 129.072 118.721 129.072ZM64.137 144V137.076C64.137 136.452 64.317 135.956 64.677 135.588C65.045 135.212 65.565 135.024 66.237 135.024C66.485 135.024 66.721 135.056 66.945 135.12C67.177 135.176 67.373 135.268 67.533 135.396L67.185 136.272C67.065 136.176 66.929 136.104 66.777 136.056C66.625 136 66.465 135.972 66.297 135.972C65.961 135.972 65.705 136.068 65.529 136.26C65.353 136.444 65.265 136.72 65.265 137.088V137.94L65.289 138.468V144H64.137ZM63.057 138.588V137.64H67.113V138.588H63.057ZM68.205 144V137.64H69.357V144H68.205ZM68.781 136.416C68.557 136.416 68.369 136.344 68.217 136.2C68.073 136.056 68.001 135.88 68.001 135.672C68.001 135.456 68.073 135.276 68.217 135.132C68.369 134.988 68.557 134.916 68.781 134.916C69.005 134.916 69.189 134.988 69.333 135.132C69.485 135.268 69.561 135.44 69.561 135.648C69.561 135.864 69.489 136.048 69.345 136.2C69.201 136.344 69.013 136.416 68.781 136.416ZM74.335 146.4C73.751 146.4 73.183 146.316 72.631 146.148C72.087 145.988 71.643 145.756 71.299 145.452L71.851 144.564C72.147 144.82 72.511 145.02 72.943 145.164C73.375 145.316 73.827 145.392 74.299 145.392C75.051 145.392 75.603 145.216 75.955 144.864C76.307 144.512 76.483 143.976 76.483 143.256V141.912L76.603 140.652L76.543 139.38V137.64H77.635V143.136C77.635 144.256 77.355 145.08 76.795 145.608C76.235 146.136 75.415 146.4 74.335 146.4ZM74.191 143.736C73.575 143.736 73.023 143.608 72.535 143.352C72.055 143.088 71.671 142.724 71.383 142.26C71.103 141.796 70.963 141.26 70.963 140.652C70.963 140.036 71.103 139.5 71.383 139.044C71.671 138.58 72.055 138.22 72.535 137.964C73.023 137.708 73.575 137.58 74.191 137.58C74.735 137.58 75.231 137.692 75.679 137.916C76.127 138.132 76.483 138.468 76.747 138.924C77.019 139.38 77.155 139.956 77.155 140.652C77.155 141.34 77.019 141.912 76.747 142.368C76.483 142.824 76.127 143.168 75.679 143.4C75.231 143.624 74.735 143.736 74.191 143.736ZM74.323 142.728C74.747 142.728 75.123 142.64 75.451 142.464C75.779 142.288 76.035 142.044 76.219 141.732C76.411 141.42 76.507 141.06 76.507 140.652C76.507 140.244 76.411 139.884 76.219 139.572C76.035 139.26 75.779 139.02 75.451 138.852C75.123 138.676 74.747 138.588 74.323 138.588C73.899 138.588 73.519 138.676 73.183 138.852C72.855 139.02 72.595 139.26 72.403 139.572C72.219 139.884 72.127 140.244 72.127 140.652C72.127 141.06 72.219 141.42 72.403 141.732C72.595 142.044 72.855 142.288 73.183 142.464C73.519 142.64 73.899 142.728 74.323 142.728ZM82.5121 144.072C81.9681 144.072 81.4881 143.972 81.0721 143.772C80.6641 143.572 80.3441 143.268 80.1121 142.86C79.8881 142.444 79.7761 141.924 79.7761 141.3V137.64H80.9281V141.168C80.9281 141.792 81.0761 142.26 81.3721 142.572C81.6761 142.884 82.1001 143.04 82.6441 143.04C83.0441 143.04 83.3921 142.96 83.6881 142.8C83.9841 142.632 84.2121 142.392 84.3721 142.08C84.5321 141.76 84.6121 141.376 84.6121 140.928V137.64H85.7641V144H84.6721V142.284L84.8521 142.74C84.6441 143.164 84.3321 143.492 83.9161 143.724C83.5001 143.956 83.0321 144.072 82.5121 144.072ZM87.9572 144V137.64H89.0612V139.368L88.9532 138.936C89.1292 138.496 89.4252 138.16 89.8412 137.928C90.2572 137.696 90.7692 137.58 91.3772 137.58V138.696C91.3292 138.688 91.2812 138.684 91.2332 138.684C91.1932 138.684 91.1532 138.684 91.1132 138.684C90.4972 138.684 90.0092 138.868 89.6492 139.236C89.2892 139.604 89.1092 140.136 89.1092 140.832V144H87.9572ZM95.5705 144.072C94.8905 144.072 94.2905 143.932 93.7705 143.652C93.2585 143.372 92.8585 142.988 92.5705 142.5C92.2905 142.012 92.1505 141.452 92.1505 140.82C92.1505 140.188 92.2865 139.628 92.5585 139.14C92.8385 138.652 93.2185 138.272 93.6985 138C94.1865 137.72 94.7345 137.58 95.3425 137.58C95.9585 137.58 96.5025 137.716 96.9745 137.988C97.4465 138.26 97.8145 138.644 98.0785 139.14C98.3505 139.628 98.4865 140.2 98.4865 140.856C98.4865 140.904 98.4825 140.96 98.4745 141.024C98.4745 141.088 98.4705 141.148 98.4625 141.204H93.0505V140.376H97.8625L97.3945 140.664C97.4025 140.256 97.3185 139.892 97.1425 139.572C96.9665 139.252 96.7225 139.004 96.4105 138.828C96.1065 138.644 95.7505 138.552 95.3425 138.552C94.9425 138.552 94.5865 138.644 94.2745 138.828C93.9625 139.004 93.7185 139.256 93.5425 139.584C93.3665 139.904 93.2785 140.272 93.2785 140.688V140.88C93.2785 141.304 93.3745 141.684 93.5665 142.02C93.7665 142.348 94.0425 142.604 94.3945 142.788C94.7465 142.972 95.1505 143.064 95.6065 143.064C95.9825 143.064 96.3225 143 96.6265 142.872C96.9385 142.744 97.2105 142.552 97.4425 142.296L98.0785 143.04C97.7905 143.376 97.4305 143.632 96.9985 143.808C96.5745 143.984 96.0985 144.072 95.5705 144.072ZM102.673 141.936V141.096L106.969 135.6H108.265L104.005 141.096L103.393 140.904H110.101V141.936H102.673ZM107.341 144V141.936L107.377 140.904V139.08H108.505V144H107.341ZM113.52 144.096C112.928 144.096 112.352 144.004 111.792 143.82C111.24 143.636 110.788 143.388 110.436 143.076L110.988 142.128C111.268 142.392 111.632 142.608 112.08 142.776C112.528 142.944 113.004 143.028 113.508 143.028C114.148 143.028 114.64 142.892 114.984 142.62C115.328 142.348 115.5 141.984 115.5 141.528C115.5 141.216 115.424 140.944 115.272 140.712C115.12 140.48 114.856 140.304 114.48 140.184C114.112 140.056 113.604 139.992 112.956 139.992H111.048L111.492 135.6H116.232V136.644H111.936L112.56 136.056L112.212 139.524L111.588 138.948H113.208C114.048 138.948 114.724 139.056 115.236 139.272C115.748 139.488 116.12 139.788 116.352 140.172C116.584 140.548 116.7 140.984 116.7 141.48C116.7 141.96 116.584 142.4 116.352 142.8C116.12 143.192 115.768 143.508 115.296 143.748C114.832 143.98 114.24 144.096 113.52 144.096ZM67.7102 159.072C67.0942 159.072 66.5422 158.936 66.0542 158.664C65.5742 158.392 65.1942 158.012 64.9142 157.524C64.6342 157.036 64.4942 156.468 64.4942 155.82C64.4942 155.172 64.6342 154.608 64.9142 154.128C65.1942 153.64 65.5742 153.26 66.0542 152.988C66.5422 152.716 67.0942 152.58 67.7102 152.58C68.2462 152.58 68.7302 152.7 69.1622 152.94C69.5942 153.18 69.9382 153.54 70.1942 154.02C70.4582 154.5 70.5902 155.1 70.5902 155.82C70.5902 156.54 70.4622 157.14 70.2062 157.62C69.9582 158.1 69.6182 158.464 69.1862 158.712C68.7542 158.952 68.2622 159.072 67.7102 159.072ZM67.8062 158.064C68.2062 158.064 68.5662 157.972 68.8862 157.788C69.2142 157.604 69.4702 157.344 69.6542 157.008C69.8462 156.664 69.9422 156.268 69.9422 155.82C69.9422 155.364 69.8462 154.972 69.6542 154.644C69.4702 154.308 69.2142 154.048 68.8862 153.864C68.5662 153.68 68.2062 153.588 67.8062 153.588C67.3982 153.588 67.0342 153.68 66.7142 153.864C66.3942 154.048 66.1382 154.308 65.9462 154.644C65.7542 154.972 65.6582 155.364 65.6582 155.82C65.6582 156.268 65.7542 156.664 65.9462 157.008C66.1382 157.344 66.3942 157.604 66.7142 157.788C67.0342 157.972 67.3982 158.064 67.8062 158.064ZM69.9782 159V157.284L70.0502 155.808L69.9302 154.332V150.096H71.0822V159H69.9782ZM76.0939 159.072C75.4139 159.072 74.8139 158.932 74.2939 158.652C73.7819 158.372 73.3819 157.988 73.0939 157.5C72.8139 157.012 72.6739 156.452 72.6739 155.82C72.6739 155.188 72.8099 154.628 73.0819 154.14C73.3619 153.652 73.7419 153.272 74.2219 153C74.7099 152.72 75.2579 152.58 75.8659 152.58C76.4819 152.58 77.0259 152.716 77.4979 152.988C77.9699 153.26 78.3379 153.644 78.6019 154.14C78.8739 154.628 79.0099 155.2 79.0099 155.856C79.0099 155.904 79.0059 155.96 78.9979 156.024C78.9979 156.088 78.9939 156.148 78.9859 156.204H73.5739V155.376H78.3859L77.9179 155.664C77.9259 155.256 77.8419 154.892 77.6659 154.572C77.4899 154.252 77.2459 154.004 76.9339 153.828C76.6299 153.644 76.2739 153.552 75.8659 153.552C75.4659 153.552 75.1099 153.644 74.7979 153.828C74.4859 154.004 74.2419 154.256 74.0659 154.584C73.8899 154.904 73.8019 155.272 73.8019 155.688V155.88C73.8019 156.304 73.8979 156.684 74.0899 157.02C74.2899 157.348 74.5659 157.604 74.9179 157.788C75.2699 157.972 75.6739 158.064 76.1299 158.064C76.5059 158.064 76.8459 158 77.1499 157.872C77.4619 157.744 77.7339 157.552 77.9659 157.296L78.6019 158.04C78.3139 158.376 77.9539 158.632 77.5219 158.808C77.0979 158.984 76.6219 159.072 76.0939 159.072ZM83.3936 161.4C82.8096 161.4 82.2416 161.316 81.6896 161.148C81.1456 160.988 80.7016 160.756 80.3576 160.452L80.9096 159.564C81.2056 159.82 81.5696 160.02 82.0016 160.164C82.4336 160.316 82.8856 160.392 83.3576 160.392C84.1096 160.392 84.6616 160.216 85.0136 159.864C85.3656 159.512 85.5416 158.976 85.5416 158.256V156.912L85.6616 155.652L85.6016 154.38V152.64H86.6936V158.136C86.6936 159.256 86.4136 160.08 85.8536 160.608C85.2936 161.136 84.4736 161.4 83.3936 161.4ZM83.2496 158.736C82.6336 158.736 82.0816 158.608 81.5936 158.352C81.1136 158.088 80.7296 157.724 80.4416 157.26C80.1616 156.796 80.0216 156.26 80.0216 155.652C80.0216 155.036 80.1616 154.5 80.4416 154.044C80.7296 153.58 81.1136 153.22 81.5936 152.964C82.0816 152.708 82.6336 152.58 83.2496 152.58C83.7936 152.58 84.2896 152.692 84.7376 152.916C85.1856 153.132 85.5416 153.468 85.8056 153.924C86.0776 154.38 86.2136 154.956 86.2136 155.652C86.2136 156.34 86.0776 156.912 85.8056 157.368C85.5416 157.824 85.1856 158.168 84.7376 158.4C84.2896 158.624 83.7936 158.736 83.2496 158.736ZM83.3816 157.728C83.8056 157.728 84.1816 157.64 84.5096 157.464C84.8376 157.288 85.0936 157.044 85.2776 156.732C85.4696 156.42 85.5656 156.06 85.5656 155.652C85.5656 155.244 85.4696 154.884 85.2776 154.572C85.0936 154.26 84.8376 154.02 84.5096 153.852C84.1816 153.676 83.8056 153.588 83.3816 153.588C82.9576 153.588 82.5776 153.676 82.2416 153.852C81.9136 154.02 81.6536 154.26 81.4616 154.572C81.2776 154.884 81.1856 155.244 81.1856 155.652C81.1856 156.06 81.2776 156.42 81.4616 156.732C81.6536 157.044 81.9136 157.288 82.2416 157.464C82.5776 157.64 82.9576 157.728 83.3816 157.728ZM88.8947 159V152.64H89.9987V154.368L89.8907 153.936C90.0667 153.496 90.3627 153.16 90.7787 152.928C91.1947 152.696 91.7067 152.58 92.3147 152.58V153.696C92.2667 153.688 92.2187 153.684 92.1707 153.684C92.1307 153.684 92.0907 153.684 92.0507 153.684C91.4347 153.684 90.9467 153.868 90.5867 154.236C90.2267 154.604 90.0467 155.136 90.0467 155.832V159H88.8947ZM96.508 159.072C95.828 159.072 95.228 158.932 94.708 158.652C94.196 158.372 93.796 157.988 93.508 157.5C93.228 157.012 93.088 156.452 93.088 155.82C93.088 155.188 93.224 154.628 93.496 154.14C93.776 153.652 94.156 153.272 94.636 153C95.124 152.72 95.672 152.58 96.28 152.58C96.896 152.58 97.44 152.716 97.912 152.988C98.384 153.26 98.752 153.644 99.016 154.14C99.288 154.628 99.424 155.2 99.424 155.856C99.424 155.904 99.42 155.96 99.412 156.024C99.412 156.088 99.408 156.148 99.4 156.204H93.988V155.376H98.8L98.332 155.664C98.34 155.256 98.256 154.892 98.08 154.572C97.904 154.252 97.66 154.004 97.348 153.828C97.044 153.644 96.688 153.552 96.28 153.552C95.88 153.552 95.524 153.644 95.212 153.828C94.9 154.004 94.656 154.256 94.48 154.584C94.304 154.904 94.216 155.272 94.216 155.688V155.88C94.216 156.304 94.312 156.684 94.504 157.02C94.704 157.348 94.98 157.604 95.332 157.788C95.684 157.972 96.088 158.064 96.544 158.064C96.92 158.064 97.26 158 97.564 157.872C97.876 157.744 98.148 157.552 98.38 157.296L99.016 158.04C98.728 158.376 98.368 158.632 97.936 158.808C97.512 158.984 97.036 159.072 96.508 159.072ZM103.856 159.072C103.176 159.072 102.576 158.932 102.056 158.652C101.544 158.372 101.144 157.988 100.856 157.5C100.576 157.012 100.436 156.452 100.436 155.82C100.436 155.188 100.572 154.628 100.844 154.14C101.124 153.652 101.504 153.272 101.984 153C102.472 152.72 103.02 152.58 103.628 152.58C104.244 152.58 104.788 152.716 105.26 152.988C105.732 153.26 106.1 153.644 106.364 154.14C106.636 154.628 106.772 155.2 106.772 155.856C106.772 155.904 106.768 155.96 106.76 156.024C106.76 156.088 106.756 156.148 106.748 156.204H101.336V155.376H106.148L105.68 155.664C105.688 155.256 105.604 154.892 105.428 154.572C105.252 154.252 105.008 154.004 104.696 153.828C104.392 153.644 104.036 153.552 103.628 153.552C103.228 153.552 102.872 153.644 102.56 153.828C102.248 154.004 102.004 154.256 101.828 154.584C101.652 154.904 101.564 155.272 101.564 155.688V155.88C101.564 156.304 101.66 156.684 101.852 157.02C102.052 157.348 102.328 157.604 102.68 157.788C103.032 157.972 103.436 158.064 103.892 158.064C104.268 158.064 104.608 158 104.912 157.872C105.224 157.744 105.496 157.552 105.728 157.296L106.364 158.04C106.076 158.376 105.716 158.632 105.284 158.808C104.86 158.984 104.384 159.072 103.856 159.072ZM110.195 159.072C109.667 159.072 109.163 159 108.683 158.856C108.211 158.712 107.839 158.536 107.567 158.328L108.047 157.416C108.319 157.6 108.655 157.756 109.055 157.884C109.455 158.012 109.863 158.076 110.279 158.076C110.815 158.076 111.199 158 111.431 157.848C111.671 157.696 111.791 157.484 111.791 157.212C111.791 157.012 111.719 156.856 111.575 156.744C111.431 156.632 111.239 156.548 110.999 156.492C110.767 156.436 110.507 156.388 110.219 156.348C109.931 156.3 109.643 156.244 109.355 156.18C109.067 156.108 108.803 156.012 108.563 155.892C108.323 155.764 108.131 155.592 107.987 155.376C107.843 155.152 107.771 154.856 107.771 154.488C107.771 154.104 107.879 153.768 108.095 153.48C108.311 153.192 108.615 152.972 109.007 152.82C109.407 152.66 109.879 152.58 110.423 152.58C110.839 152.58 111.259 152.632 111.683 152.736C112.115 152.832 112.467 152.972 112.739 153.156L112.247 154.068C111.959 153.876 111.659 153.744 111.347 153.672C111.035 153.6 110.723 153.564 110.411 153.564C109.907 153.564 109.531 153.648 109.283 153.816C109.035 153.976 108.911 154.184 108.911 154.44C108.911 154.656 108.983 154.824 109.127 154.944C109.279 155.056 109.471 155.144 109.703 155.208C109.943 155.272 110.207 155.328 110.495 155.376C110.783 155.416 111.071 155.472 111.359 155.544C111.647 155.608 111.907 155.7 112.139 155.82C112.379 155.94 112.571 156.108 112.715 156.324C112.867 156.54 112.943 156.828 112.943 157.188C112.943 157.572 112.831 157.904 112.607 158.184C112.383 158.464 112.067 158.684 111.659 158.844C111.251 158.996 110.763 159.072 110.195 159.072ZM114.659 159.072C114.435 159.072 114.243 158.996 114.083 158.844C113.923 158.684 113.843 158.484 113.843 158.244C113.843 158.004 113.923 157.808 114.083 157.656C114.243 157.504 114.435 157.428 114.659 157.428C114.875 157.428 115.059 157.504 115.211 157.656C115.371 157.808 115.451 158.004 115.451 158.244C115.451 158.484 115.371 158.684 115.211 158.844C115.059 158.996 114.875 159.072 114.659 159.072Z" fill="#008E86"/>
<path d="M45.001 55H135.001L102.483 87.9996L45.001 55Z" fill="#00D8CC" stroke="#00635D" stroke-width="2" stroke-linejoin="round"/>
<path d="M49.8027 34.9751C49.4121 35.3656 49.4121 35.9988 49.8027 36.3893C50.1932 36.7798 50.8263 36.7798 51.2169 36.3893L49.8027 34.9751ZM129.822 36.6822C130.374 36.6822 130.822 36.2345 130.822 35.6822L130.822 26.6822C130.822 26.1299 130.374 25.6822 129.822 25.6822C129.27 25.6822 128.822 26.1299 128.822 26.6822L128.822 34.6822L120.822 34.6822C120.27 34.6822 119.822 35.1299 119.822 35.6822C119.822 36.2345 120.27 36.6822 120.822 36.6822L129.822 36.6822ZM51.2169 36.3893C62.6458 24.9604 76.3299 19.7578 90 19.7578V17.7578C75.7947 17.7578 61.6033 23.1745 49.8027 34.9751L51.2169 36.3893ZM90 19.7578C96.7833 19.7578 104.522 21.8634 111.62 25.0225C118.717 28.1813 125.076 32.35 129.115 36.3893L130.529 34.9751C126.272 30.7181 119.689 26.4246 112.433 23.1953C105.178 19.9663 97.1546 17.7578 90 17.7578V19.7578Z" fill="black"/>
<path d="M130.529 79.4663C130.92 79.0758 130.92 78.4426 130.529 78.0521C130.139 77.6616 129.506 77.6616 129.115 78.0521L130.529 79.4663ZM50.5099 77.7592C49.9576 77.7592 49.5099 78.2069 49.5099 78.7592L49.5099 87.7592C49.5099 88.3115 49.9576 88.7592 50.5099 88.7592C51.0622 88.7592 51.5099 88.3115 51.5099 87.7592L51.5099 79.7592L59.5099 79.7592C60.0622 79.7592 60.5099 79.3115 60.5099 78.7592C60.5099 78.2069 60.0622 77.7592 59.5099 77.7592L50.5099 77.7592ZM129.115 78.0521C117.686 89.481 104.002 94.6836 90.332 94.6836L90.332 96.6836C104.537 96.6836 118.729 91.2669 130.529 79.4663L129.115 78.0521ZM90.332 94.6836C83.5488 94.6836 75.8098 92.578 68.712 89.4189C61.6149 86.2601 55.2563 82.0914 51.217 78.0521L49.8028 79.4663C54.0598 83.7233 60.6433 88.0168 67.8988 91.2461C75.1536 94.4751 83.1775 96.6836 90.332 96.6836L90.332 94.6836Z" fill="black"/>
<path d="M45 54.5L102.482 87.5004L105.484 77.5004L85.9844 66.0004L45 54.5Z" fill="#008E86" stroke="#00635D" stroke-width="2" stroke-linejoin="round"/>
<path d="M86.103 73.1186L104.603 77.3814L86.103 65.8814L86.103 73.1186Z" fill="#00D8CC" stroke="#00635D" stroke-width="2" stroke-linejoin="round"/>
<path d="M86.1035 73.1211L104.604 77.3839L102.104 68.8839L86.1035 73.1211Z" fill="#008E86" stroke="#00635D" stroke-width="2" stroke-linejoin="round"/>
</svg>
