<svg width="180" height="180" viewBox="0 0 180 180" fill="none" xmlns="http://www.w3.org/2000/svg">
<rect width="180" height="180" rx="20" fill="#F2F2F2"/>
<path d="M37.2502 124.572H41.5822V125.604H37.2502V124.572ZM37.3702 129H36.1702V120.6H42.0982V121.644H37.3702V129ZM46.1441 129.072C45.5041 129.072 44.9361 128.932 44.4401 128.652C43.9441 128.372 43.5521 127.988 43.2641 127.5C42.9761 127.004 42.8321 126.444 42.8321 125.82C42.8321 125.188 42.9761 124.628 43.2641 124.14C43.5521 123.652 43.9441 123.272 44.4401 123C44.9361 122.72 45.5041 122.58 46.1441 122.58C46.7761 122.58 47.3401 122.72 47.8361 123C48.3401 123.272 48.7321 123.652 49.0121 124.14C49.3001 124.62 49.4441 125.18 49.4441 125.82C49.4441 126.452 49.3001 127.012 49.0121 127.5C48.7321 127.988 48.3401 128.372 47.8361 128.652C47.3401 128.932 46.7761 129.072 46.1441 129.072ZM46.1441 128.064C46.5521 128.064 46.9161 127.972 47.2361 127.788C47.5641 127.604 47.8201 127.344 48.0041 127.008C48.1881 126.664 48.2801 126.268 48.2801 125.82C48.2801 125.364 48.1881 124.972 48.0041 124.644C47.8201 124.308 47.5641 124.048 47.2361 123.864C46.9161 123.68 46.5521 123.588 46.1441 123.588C45.7361 123.588 45.3721 123.68 45.0521 123.864C44.7321 124.048 44.4761 124.308 44.2841 124.644C44.0921 124.972 43.9961 125.364 43.9961 125.82C43.9961 126.268 44.0921 126.664 44.2841 127.008C44.4761 127.344 44.7321 127.604 45.0521 127.788C45.3721 127.972 45.7361 128.064 46.1441 128.064ZM51.0373 129V120.096H52.1893V129H51.0373ZM57.0169 129.072C56.4009 129.072 55.8489 128.936 55.3609 128.664C54.8809 128.392 54.5009 128.012 54.2209 127.524C53.9409 127.036 53.8009 126.468 53.8009 125.82C53.8009 125.172 53.9409 124.608 54.2209 124.128C54.5009 123.64 54.8809 123.26 55.3609 122.988C55.8489 122.716 56.4009 122.58 57.0169 122.58C57.5529 122.58 58.0369 122.7 58.4689 122.94C58.9009 123.18 59.2449 123.54 59.5009 124.02C59.7649 124.5 59.8969 125.1 59.8969 125.82C59.8969 126.54 59.7689 127.14 59.5129 127.62C59.2649 128.1 58.9249 128.464 58.4929 128.712C58.0609 128.952 57.5689 129.072 57.0169 129.072ZM57.1129 128.064C57.5129 128.064 57.8729 127.972 58.1929 127.788C58.5209 127.604 58.7769 127.344 58.9609 127.008C59.1529 126.664 59.2489 126.268 59.2489 125.82C59.2489 125.364 59.1529 124.972 58.9609 124.644C58.7769 124.308 58.5209 124.048 58.1929 123.864C57.8729 123.68 57.5129 123.588 57.1129 123.588C56.7049 123.588 56.3409 123.68 56.0209 123.864C55.7009 124.048 55.4449 124.308 55.2529 124.644C55.0609 124.972 54.9649 125.364 54.9649 125.82C54.9649 126.268 55.0609 126.664 55.2529 127.008C55.4449 127.344 55.7009 127.604 56.0209 127.788C56.3409 127.972 56.7049 128.064 57.1129 128.064ZM59.2849 129V127.284L59.3569 125.808L59.2369 124.332V120.096H60.3889V129H59.2849ZM67.9752 129.072C67.3352 129.072 66.8392 128.9 66.4872 128.556C66.1352 128.212 65.9592 127.72 65.9592 127.08V121.248H67.1112V127.032C67.1112 127.376 67.1952 127.64 67.3632 127.824C67.5392 128.008 67.7872 128.1 68.1072 128.1C68.4672 128.1 68.7672 128 69.0072 127.8L69.3672 128.628C69.1912 128.78 68.9792 128.892 68.7312 128.964C68.4912 129.036 68.2392 129.072 67.9752 129.072ZM64.8792 123.588V122.64H68.9352V123.588H64.8792ZM74.156 122.58C74.676 122.58 75.132 122.68 75.524 122.88C75.924 123.08 76.236 123.384 76.46 123.792C76.684 124.2 76.796 124.716 76.796 125.34V129H75.644V125.472C75.644 124.856 75.492 124.392 75.188 124.08C74.892 123.768 74.472 123.612 73.928 123.612C73.52 123.612 73.164 123.692 72.86 123.852C72.556 124.012 72.32 124.248 72.152 124.56C71.992 124.872 71.912 125.26 71.912 125.724V129H70.76V120.096H71.912V124.356L71.684 123.9C71.892 123.484 72.212 123.16 72.644 122.928C73.076 122.696 73.58 122.58 74.156 122.58ZM81.7599 129.072C81.0799 129.072 80.4799 128.932 79.9599 128.652C79.4479 128.372 79.0479 127.988 78.7599 127.5C78.4799 127.012 78.3399 126.452 78.3399 125.82C78.3399 125.188 78.4759 124.628 78.7479 124.14C79.0279 123.652 79.4079 123.272 79.8879 123C80.3759 122.72 80.9239 122.58 81.5319 122.58C82.1479 122.58 82.6919 122.716 83.1639 122.988C83.6359 123.26 84.0039 123.644 84.2679 124.14C84.5399 124.628 84.6759 125.2 84.6759 125.856C84.6759 125.904 84.6719 125.96 84.6639 126.024C84.6639 126.088 84.6599 126.148 84.6519 126.204H79.2399V125.376H84.0519L83.5839 125.664C83.5919 125.256 83.5079 124.892 83.3319 124.572C83.1559 124.252 82.9119 124.004 82.5999 123.828C82.2959 123.644 81.9399 123.552 81.5319 123.552C81.1319 123.552 80.7759 123.644 80.4639 123.828C80.1519 124.004 79.9079 124.256 79.7319 124.584C79.5559 124.904 79.4679 125.272 79.4679 125.688V125.88C79.4679 126.304 79.5639 126.684 79.7559 127.02C79.9559 127.348 80.2319 127.604 80.5839 127.788C80.9359 127.972 81.3399 128.064 81.7959 128.064C82.1719 128.064 82.5119 128 82.8159 127.872C83.1279 127.744 83.3999 127.552 83.6319 127.296L84.2679 128.04C83.9799 128.376 83.6199 128.632 83.1879 128.808C82.7639 128.984 82.2879 129.072 81.7599 129.072ZM91.6823 129.072C91.0423 129.072 90.5463 128.9 90.1943 128.556C89.8423 128.212 89.6663 127.72 89.6663 127.08V121.248H90.8183V127.032C90.8183 127.376 90.9023 127.64 91.0703 127.824C91.2463 128.008 91.4943 128.1 91.8143 128.1C92.1743 128.1 92.4743 128 92.7143 127.8L93.0743 128.628C92.8983 128.78 92.6863 128.892 92.4383 128.964C92.1983 129.036 91.9463 129.072 91.6823 129.072ZM88.5863 123.588V122.64H92.6423V123.588H88.5863ZM96.9801 129.072C96.3401 129.072 95.7721 128.932 95.2761 128.652C94.7801 128.372 94.3881 127.988 94.1001 127.5C93.8121 127.004 93.6681 126.444 93.6681 125.82C93.6681 125.188 93.8121 124.628 94.1001 124.14C94.3881 123.652 94.7801 123.272 95.2761 123C95.7721 122.72 96.3401 122.58 96.9801 122.58C97.6121 122.58 98.1761 122.72 98.6721 123C99.1761 123.272 99.5681 123.652 99.8481 124.14C100.136 124.62 100.28 125.18 100.28 125.82C100.28 126.452 100.136 127.012 99.8481 127.5C99.5681 127.988 99.1761 128.372 98.6721 128.652C98.1761 128.932 97.6121 129.072 96.9801 129.072ZM96.9801 128.064C97.3881 128.064 97.7521 127.972 98.0721 127.788C98.4001 127.604 98.6561 127.344 98.8401 127.008C99.0241 126.664 99.1161 126.268 99.1161 125.82C99.1161 125.364 99.0241 124.972 98.8401 124.644C98.6561 124.308 98.4001 124.048 98.0721 123.864C97.7521 123.68 97.3881 123.588 96.9801 123.588C96.5721 123.588 96.2081 123.68 95.8881 123.864C95.5681 124.048 95.3121 124.308 95.1201 124.644C94.9281 124.972 94.8321 125.364 94.8321 125.82C94.8321 126.268 94.9281 126.664 95.1201 127.008C95.3121 127.344 95.5681 127.604 95.8881 127.788C96.2081 127.972 96.5721 128.064 96.9801 128.064ZM105.245 129.072C104.717 129.072 104.233 128.952 103.793 128.712C103.361 128.464 103.013 128.1 102.749 127.62C102.493 127.14 102.365 126.54 102.365 125.82C102.365 125.1 102.489 124.5 102.737 124.02C102.993 123.54 103.337 123.18 103.769 122.94C104.209 122.7 104.701 122.58 105.245 122.58C105.869 122.58 106.421 122.716 106.901 122.988C107.381 123.26 107.761 123.64 108.041 124.128C108.321 124.608 108.461 125.172 108.461 125.82C108.461 126.468 108.321 127.036 108.041 127.524C107.761 128.012 107.381 128.392 106.901 128.664C106.421 128.936 105.869 129.072 105.245 129.072ZM101.873 131.328V122.64H102.977V124.356L102.905 125.832L103.025 127.308V131.328H101.873ZM105.149 128.064C105.557 128.064 105.921 127.972 106.241 127.788C106.569 127.604 106.825 127.344 107.009 127.008C107.201 126.664 107.297 126.268 107.297 125.82C107.297 125.364 107.201 124.972 107.009 124.644C106.825 124.308 106.569 124.048 106.241 123.864C105.921 123.68 105.557 123.588 105.149 123.588C104.749 123.588 104.385 123.68 104.057 123.864C103.737 124.048 103.481 124.308 103.289 124.644C103.105 124.972 103.013 125.364 103.013 125.82C103.013 126.268 103.105 126.664 103.289 127.008C103.481 127.344 103.737 127.604 104.057 127.788C104.385 127.972 104.749 128.064 105.149 128.064ZM115.46 129.072C114.82 129.072 114.324 128.9 113.972 128.556C113.62 128.212 113.444 127.72 113.444 127.08V121.248H114.596V127.032C114.596 127.376 114.68 127.64 114.848 127.824C115.024 128.008 115.272 128.1 115.592 128.1C115.952 128.1 116.252 128 116.492 127.8L116.852 128.628C116.676 128.78 116.464 128.892 116.216 128.964C115.976 129.036 115.724 129.072 115.46 129.072ZM112.364 123.588V122.64H116.42V123.588H112.364ZM118.244 129V122.64H119.396V129H118.244ZM118.82 121.416C118.596 121.416 118.408 121.344 118.256 121.2C118.112 121.056 118.04 120.88 118.04 120.672C118.04 120.456 118.112 120.276 118.256 120.132C118.408 119.988 118.596 119.916 118.82 119.916C119.044 119.916 119.228 119.988 119.372 120.132C119.524 120.268 119.6 120.44 119.6 120.648C119.6 120.864 119.528 121.048 119.384 121.2C119.24 121.344 119.052 121.416 118.82 121.416ZM124.968 129.072C124.44 129.072 123.956 128.952 123.516 128.712C123.084 128.464 122.736 128.1 122.472 127.62C122.216 127.14 122.088 126.54 122.088 125.82C122.088 125.1 122.212 124.5 122.46 124.02C122.716 123.54 123.06 123.18 123.492 122.94C123.932 122.7 124.424 122.58 124.968 122.58C125.592 122.58 126.144 122.716 126.624 122.988C127.104 123.26 127.484 123.64 127.764 124.128C128.044 124.608 128.184 125.172 128.184 125.82C128.184 126.468 128.044 127.036 127.764 127.524C127.484 128.012 127.104 128.392 126.624 128.664C126.144 128.936 125.592 129.072 124.968 129.072ZM121.596 131.328V122.64H122.7V124.356L122.628 125.832L122.748 127.308V131.328H121.596ZM124.872 128.064C125.28 128.064 125.644 127.972 125.964 127.788C126.292 127.604 126.548 127.344 126.732 127.008C126.924 126.664 127.02 126.268 127.02 125.82C127.02 125.364 126.924 124.972 126.732 124.644C126.548 124.308 126.292 124.048 125.964 123.864C125.644 123.68 125.28 123.588 124.872 123.588C124.472 123.588 124.108 123.68 123.78 123.864C123.46 124.048 123.204 124.308 123.012 124.644C122.828 124.972 122.736 125.364 122.736 125.82C122.736 126.268 122.828 126.664 123.012 127.008C123.204 127.344 123.46 127.604 123.78 127.788C124.108 127.972 124.472 128.064 124.872 128.064ZM136.946 129V127.656L136.886 127.404V125.112C136.886 124.624 136.742 124.248 136.454 123.984C136.174 123.712 135.75 123.576 135.182 123.576C134.806 123.576 134.438 123.64 134.078 123.768C133.718 123.888 133.414 124.052 133.166 124.26L132.686 123.396C133.014 123.132 133.406 122.932 133.862 122.796C134.326 122.652 134.81 122.58 135.314 122.58C136.186 122.58 136.858 122.792 137.33 123.216C137.802 123.64 138.038 124.288 138.038 125.16V129H136.946ZM134.858 129.072C134.386 129.072 133.97 128.992 133.61 128.832C133.258 128.672 132.986 128.452 132.794 128.172C132.602 127.884 132.506 127.56 132.506 127.2C132.506 126.856 132.586 126.544 132.746 126.264C132.914 125.984 133.182 125.76 133.55 125.592C133.926 125.424 134.43 125.34 135.062 125.34H137.078V126.168H135.11C134.534 126.168 134.146 126.264 133.946 126.456C133.746 126.648 133.646 126.88 133.646 127.152C133.646 127.464 133.77 127.716 134.018 127.908C134.266 128.092 134.61 128.184 135.05 128.184C135.482 128.184 135.858 128.088 136.178 127.896C136.506 127.704 136.742 127.424 136.886 127.056L137.114 127.848C136.962 128.224 136.694 128.524 136.31 128.748C135.926 128.964 135.442 129.072 134.858 129.072ZM141.994 129.072C141.466 129.072 140.962 129 140.482 128.856C140.01 128.712 139.638 128.536 139.366 128.328L139.846 127.416C140.118 127.6 140.454 127.756 140.854 127.884C141.254 128.012 141.662 128.076 142.078 128.076C142.614 128.076 142.998 128 143.23 127.848C143.47 127.696 143.59 127.484 143.59 127.212C143.59 127.012 143.518 126.856 143.374 126.744C143.23 126.632 143.038 126.548 142.798 126.492C142.566 126.436 142.306 126.388 142.018 126.348C141.73 126.3 141.442 126.244 141.154 126.18C140.866 126.108 140.602 126.012 140.362 125.892C140.122 125.764 139.93 125.592 139.786 125.376C139.642 125.152 139.57 124.856 139.57 124.488C139.57 124.104 139.678 123.768 139.894 123.48C140.11 123.192 140.414 122.972 140.806 122.82C141.206 122.66 141.678 122.58 142.222 122.58C142.638 122.58 143.058 122.632 143.482 122.736C143.914 122.832 144.266 122.972 144.538 123.156L144.046 124.068C143.758 123.876 143.458 123.744 143.146 123.672C142.834 123.6 142.522 123.564 142.21 123.564C141.706 123.564 141.33 123.648 141.082 123.816C140.834 123.976 140.71 124.184 140.71 124.44C140.71 124.656 140.782 124.824 140.926 124.944C141.078 125.056 141.27 125.144 141.502 125.208C141.742 125.272 142.006 125.328 142.294 125.376C142.582 125.416 142.87 125.472 143.158 125.544C143.446 125.608 143.706 125.7 143.938 125.82C144.178 125.94 144.37 126.108 144.514 126.324C144.666 126.54 144.742 126.828 144.742 127.188C144.742 127.572 144.63 127.904 144.406 128.184C144.182 128.464 143.866 128.684 143.458 128.844C143.05 128.996 142.562 129.072 141.994 129.072ZM43.1858 144V137.64H44.3378V144H43.1858ZM43.7618 136.416C43.5378 136.416 43.3498 136.344 43.1978 136.2C43.0538 136.056 42.9818 135.88 42.9818 135.672C42.9818 135.456 43.0538 135.276 43.1978 135.132C43.3498 134.988 43.5378 134.916 43.7618 134.916C43.9858 134.916 44.1698 134.988 44.3138 135.132C44.4658 135.268 44.5418 135.44 44.5418 135.648C44.5418 135.864 44.4698 136.048 44.3258 136.2C44.1818 136.344 43.9938 136.416 43.7618 136.416ZM49.9333 137.58C50.4533 137.58 50.9093 137.68 51.3013 137.88C51.7013 138.08 52.0133 138.384 52.2373 138.792C52.4613 139.2 52.5733 139.716 52.5733 140.34V144H51.4213V140.472C51.4213 139.856 51.2693 139.392 50.9653 139.08C50.6693 138.768 50.2493 138.612 49.7053 138.612C49.2973 138.612 48.9413 138.692 48.6373 138.852C48.3333 139.012 48.0973 139.248 47.9293 139.56C47.7693 139.872 47.6893 140.26 47.6893 140.724V144H46.5373V137.64H47.6413V139.356L47.4613 138.9C47.6693 138.484 47.9893 138.16 48.4213 137.928C48.8533 137.696 49.3573 137.58 49.9333 137.58ZM57.3333 144.072C56.7173 144.072 56.1653 143.936 55.6773 143.664C55.1973 143.392 54.8173 143.012 54.5373 142.524C54.2573 142.036 54.1173 141.468 54.1173 140.82C54.1173 140.172 54.2573 139.608 54.5373 139.128C54.8173 138.64 55.1973 138.26 55.6773 137.988C56.1653 137.716 56.7173 137.58 57.3333 137.58C57.8693 137.58 58.3533 137.7 58.7853 137.94C59.2173 138.18 59.5613 138.54 59.8173 139.02C60.0813 139.5 60.2133 140.1 60.2133 140.82C60.2133 141.54 60.0853 142.14 59.8293 142.62C59.5813 143.1 59.2413 143.464 58.8093 143.712C58.3773 143.952 57.8853 144.072 57.3333 144.072ZM57.4293 143.064C57.8293 143.064 58.1893 142.972 58.5093 142.788C58.8373 142.604 59.0933 142.344 59.2773 142.008C59.4693 141.664 59.5653 141.268 59.5653 140.82C59.5653 140.364 59.4693 139.972 59.2773 139.644C59.0933 139.308 58.8373 139.048 58.5093 138.864C58.1893 138.68 57.8293 138.588 57.4293 138.588C57.0213 138.588 56.6573 138.68 56.3373 138.864C56.0173 139.048 55.7613 139.308 55.5693 139.644C55.3773 139.972 55.2813 140.364 55.2813 140.82C55.2813 141.268 55.3773 141.664 55.5693 142.008C55.7613 142.344 56.0173 142.604 56.3373 142.788C56.6573 142.972 57.0213 143.064 57.4293 143.064ZM59.6013 144V142.284L59.6733 140.808L59.5533 139.332V135.096H60.7053V144H59.6013ZM62.885 144V137.64H64.037V144H62.885ZM63.461 136.416C63.237 136.416 63.049 136.344 62.897 136.2C62.753 136.056 62.681 135.88 62.681 135.672C62.681 135.456 62.753 135.276 62.897 135.132C63.049 134.988 63.237 134.916 63.461 134.916C63.685 134.916 63.869 134.988 64.013 135.132C64.165 135.268 64.241 135.44 64.241 135.648C64.241 135.864 64.169 136.048 64.025 136.2C63.881 136.344 63.693 136.416 63.461 136.416ZM69.0085 144.072C68.3605 144.072 67.7805 143.932 67.2685 143.652C66.7645 143.372 66.3685 142.988 66.0805 142.5C65.7925 142.012 65.6485 141.452 65.6485 140.82C65.6485 140.188 65.7925 139.628 66.0805 139.14C66.3685 138.652 66.7645 138.272 67.2685 138C67.7805 137.72 68.3605 137.58 69.0085 137.58C69.5845 137.58 70.0965 137.696 70.5445 137.928C71.0005 138.152 71.3525 138.488 71.6005 138.936L70.7245 139.5C70.5165 139.188 70.2605 138.96 69.9565 138.816C69.6605 138.664 69.3405 138.588 68.9965 138.588C68.5805 138.588 68.2085 138.68 67.8805 138.864C67.5525 139.048 67.2925 139.308 67.1005 139.644C66.9085 139.972 66.8125 140.364 66.8125 140.82C66.8125 141.276 66.9085 141.672 67.1005 142.008C67.2925 142.344 67.5525 142.604 67.8805 142.788C68.2085 142.972 68.5805 143.064 68.9965 143.064C69.3405 143.064 69.6605 142.992 69.9565 142.848C70.2605 142.696 70.5165 142.464 70.7245 142.152L71.6005 142.704C71.3525 143.144 71.0005 143.484 70.5445 143.724C70.0965 143.956 69.5845 144.072 69.0085 144.072ZM77.04 144V142.656L76.98 142.404V140.112C76.98 139.624 76.836 139.248 76.548 138.984C76.268 138.712 75.844 138.576 75.276 138.576C74.9 138.576 74.532 138.64 74.172 138.768C73.812 138.888 73.508 139.052 73.26 139.26L72.78 138.396C73.108 138.132 73.5 137.932 73.956 137.796C74.42 137.652 74.904 137.58 75.408 137.58C76.28 137.58 76.952 137.792 77.424 138.216C77.896 138.64 78.132 139.288 78.132 140.16V144H77.04ZM74.952 144.072C74.48 144.072 74.064 143.992 73.704 143.832C73.352 143.672 73.08 143.452 72.888 143.172C72.696 142.884 72.6 142.56 72.6 142.2C72.6 141.856 72.68 141.544 72.84 141.264C73.008 140.984 73.276 140.76 73.644 140.592C74.02 140.424 74.524 140.34 75.156 140.34H77.172V141.168H75.204C74.628 141.168 74.24 141.264 74.04 141.456C73.84 141.648 73.74 141.88 73.74 142.152C73.74 142.464 73.864 142.716 74.112 142.908C74.36 143.092 74.704 143.184 75.144 143.184C75.576 143.184 75.952 143.088 76.272 142.896C76.6 142.704 76.836 142.424 76.98 142.056L77.208 142.848C77.056 143.224 76.788 143.524 76.404 143.748C76.02 143.964 75.536 144.072 74.952 144.072ZM82.4479 144.072C81.8079 144.072 81.3119 143.9 80.9599 143.556C80.6079 143.212 80.4319 142.72 80.4319 142.08V136.248H81.5839V142.032C81.5839 142.376 81.6679 142.64 81.8359 142.824C82.0119 143.008 82.2599 143.1 82.5799 143.1C82.9399 143.1 83.2399 143 83.4799 142.8L83.8399 143.628C83.6639 143.78 83.4519 143.892 83.2039 143.964C82.9639 144.036 82.7119 144.072 82.4479 144.072ZM79.3519 138.588V137.64H83.4079V138.588H79.3519ZM87.8537 144.072C87.1737 144.072 86.5737 143.932 86.0537 143.652C85.5417 143.372 85.1417 142.988 84.8537 142.5C84.5737 142.012 84.4337 141.452 84.4337 140.82C84.4337 140.188 84.5697 139.628 84.8417 139.14C85.1217 138.652 85.5017 138.272 85.9817 138C86.4697 137.72 87.0177 137.58 87.6257 137.58C88.2417 137.58 88.7857 137.716 89.2577 137.988C89.7297 138.26 90.0977 138.644 90.3617 139.14C90.6337 139.628 90.7697 140.2 90.7697 140.856C90.7697 140.904 90.7657 140.96 90.7577 141.024C90.7577 141.088 90.7537 141.148 90.7457 141.204H85.3337V140.376H90.1457L89.6777 140.664C89.6857 140.256 89.6017 139.892 89.4257 139.572C89.2497 139.252 89.0057 139.004 88.6937 138.828C88.3897 138.644 88.0337 138.552 87.6257 138.552C87.2257 138.552 86.8697 138.644 86.5577 138.828C86.2457 139.004 86.0017 139.256 85.8257 139.584C85.6497 139.904 85.5617 140.272 85.5617 140.688V140.88C85.5617 141.304 85.6577 141.684 85.8497 142.02C86.0497 142.348 86.3257 142.604 86.6777 142.788C87.0297 142.972 87.4337 143.064 87.8897 143.064C88.2657 143.064 88.6057 143 88.9097 142.872C89.2217 142.744 89.4937 142.552 89.7257 142.296L90.3617 143.04C90.0737 143.376 89.7137 143.632 89.2817 143.808C88.8577 143.984 88.3817 144.072 87.8537 144.072ZM94.9973 144.072C94.3813 144.072 93.8293 143.936 93.3413 143.664C92.8613 143.392 92.4813 143.012 92.2013 142.524C91.9213 142.036 91.7813 141.468 91.7813 140.82C91.7813 140.172 91.9213 139.608 92.2013 139.128C92.4813 138.64 92.8613 138.26 93.3413 137.988C93.8293 137.716 94.3813 137.58 94.9973 137.58C95.5333 137.58 96.0173 137.7 96.4493 137.94C96.8813 138.18 97.2253 138.54 97.4813 139.02C97.7453 139.5 97.8773 140.1 97.8773 140.82C97.8773 141.54 97.7493 142.14 97.4933 142.62C97.2453 143.1 96.9053 143.464 96.4733 143.712C96.0413 143.952 95.5493 144.072 94.9973 144.072ZM95.0933 143.064C95.4933 143.064 95.8533 142.972 96.1733 142.788C96.5013 142.604 96.7573 142.344 96.9413 142.008C97.1333 141.664 97.2293 141.268 97.2293 140.82C97.2293 140.364 97.1333 139.972 96.9413 139.644C96.7573 139.308 96.5013 139.048 96.1733 138.864C95.8533 138.68 95.4933 138.588 95.0933 138.588C94.6853 138.588 94.3213 138.68 94.0013 138.864C93.6813 139.048 93.4253 139.308 93.2333 139.644C93.0413 139.972 92.9453 140.364 92.9453 140.82C92.9453 141.268 93.0413 141.664 93.2333 142.008C93.4253 142.344 93.6813 142.604 94.0013 142.788C94.3213 142.972 94.6853 143.064 95.0933 143.064ZM97.2653 144V142.284L97.3373 140.808L97.2173 139.332V135.096H98.3693V144H97.2653ZM103.772 144V137.64H104.924V144H103.772ZM104.348 136.416C104.124 136.416 103.936 136.344 103.784 136.2C103.64 136.056 103.568 135.88 103.568 135.672C103.568 135.456 103.64 135.276 103.784 135.132C103.936 134.988 104.124 134.916 104.348 134.916C104.572 134.916 104.756 134.988 104.9 135.132C105.052 135.268 105.128 135.44 105.128 135.648C105.128 135.864 105.056 136.048 104.912 136.2C104.768 136.344 104.58 136.416 104.348 136.416ZM110.519 137.58C111.039 137.58 111.495 137.68 111.887 137.88C112.287 138.08 112.599 138.384 112.823 138.792C113.047 139.2 113.159 139.716 113.159 140.34V144H112.007V140.472C112.007 139.856 111.855 139.392 111.551 139.08C111.255 138.768 110.835 138.612 110.291 138.612C109.883 138.612 109.527 138.692 109.223 138.852C108.919 139.012 108.683 139.248 108.515 139.56C108.355 139.872 108.275 140.26 108.275 140.724V144H107.123V137.64H108.227V139.356L108.047 138.9C108.255 138.484 108.575 138.16 109.007 137.928C109.439 137.696 109.943 137.58 110.519 137.58ZM120.698 144.072C120.058 144.072 119.562 143.9 119.21 143.556C118.858 143.212 118.682 142.72 118.682 142.08V136.248H119.834V142.032C119.834 142.376 119.918 142.64 120.086 142.824C120.262 143.008 120.51 143.1 120.83 143.1C121.19 143.1 121.49 143 121.73 142.8L122.09 143.628C121.914 143.78 121.702 143.892 121.454 143.964C121.214 144.036 120.962 144.072 120.698 144.072ZM117.602 138.588V137.64H121.658V138.588H117.602ZM126.879 137.58C127.399 137.58 127.855 137.68 128.247 137.88C128.647 138.08 128.959 138.384 129.183 138.792C129.407 139.2 129.519 139.716 129.519 140.34V144H128.367V140.472C128.367 139.856 128.215 139.392 127.911 139.08C127.615 138.768 127.195 138.612 126.651 138.612C126.243 138.612 125.887 138.692 125.583 138.852C125.279 139.012 125.043 139.248 124.875 139.56C124.715 139.872 124.635 140.26 124.635 140.724V144H123.483V135.096H124.635V139.356L124.407 138.9C124.615 138.484 124.935 138.16 125.367 137.928C125.799 137.696 126.303 137.58 126.879 137.58ZM134.483 144.072C133.803 144.072 133.203 143.932 132.683 143.652C132.171 143.372 131.771 142.988 131.483 142.5C131.203 142.012 131.063 141.452 131.063 140.82C131.063 140.188 131.199 139.628 131.471 139.14C131.751 138.652 132.131 138.272 132.611 138C133.099 137.72 133.647 137.58 134.255 137.58C134.871 137.58 135.415 137.716 135.887 137.988C136.359 138.26 136.727 138.644 136.991 139.14C137.263 139.628 137.399 140.2 137.399 140.856C137.399 140.904 137.395 140.96 137.387 141.024C137.387 141.088 137.383 141.148 137.375 141.204H131.963V140.376H136.775L136.307 140.664C136.315 140.256 136.231 139.892 136.055 139.572C135.879 139.252 135.635 139.004 135.323 138.828C135.019 138.644 134.663 138.552 134.255 138.552C133.855 138.552 133.499 138.644 133.187 138.828C132.875 139.004 132.631 139.256 132.455 139.584C132.279 139.904 132.191 140.272 132.191 140.688V140.88C132.191 141.304 132.287 141.684 132.479 142.02C132.679 142.348 132.955 142.604 133.307 142.788C133.659 142.972 134.063 143.064 134.519 143.064C134.895 143.064 135.235 143 135.539 142.872C135.851 142.744 136.123 142.552 136.355 142.296L136.991 143.04C136.703 143.376 136.343 143.632 135.911 143.808C135.487 143.984 135.011 144.072 134.483 144.072ZM69.208 161.4C68.624 161.4 68.056 161.316 67.504 161.148C66.96 160.988 66.516 160.756 66.172 160.452L66.724 159.564C67.02 159.82 67.384 160.02 67.816 160.164C68.248 160.316 68.7 160.392 69.172 160.392C69.924 160.392 70.476 160.216 70.828 159.864C71.18 159.512 71.356 158.976 71.356 158.256V156.912L71.476 155.652L71.416 154.38V152.64H72.508V158.136C72.508 159.256 72.228 160.08 71.668 160.608C71.108 161.136 70.288 161.4 69.208 161.4ZM69.064 158.736C68.448 158.736 67.896 158.608 67.408 158.352C66.928 158.088 66.544 157.724 66.256 157.26C65.976 156.796 65.836 156.26 65.836 155.652C65.836 155.036 65.976 154.5 66.256 154.044C66.544 153.58 66.928 153.22 67.408 152.964C67.896 152.708 68.448 152.58 69.064 152.58C69.608 152.58 70.104 152.692 70.552 152.916C71 153.132 71.356 153.468 71.62 153.924C71.892 154.38 72.028 154.956 72.028 155.652C72.028 156.34 71.892 156.912 71.62 157.368C71.356 157.824 71 158.168 70.552 158.4C70.104 158.624 69.608 158.736 69.064 158.736ZM69.196 157.728C69.62 157.728 69.996 157.64 70.324 157.464C70.652 157.288 70.908 157.044 71.092 156.732C71.284 156.42 71.38 156.06 71.38 155.652C71.38 155.244 71.284 154.884 71.092 154.572C70.908 154.26 70.652 154.02 70.324 153.852C69.996 153.676 69.62 153.588 69.196 153.588C68.772 153.588 68.392 153.676 68.056 153.852C67.728 154.02 67.468 154.26 67.276 154.572C67.092 154.884 67 155.244 67 155.652C67 156.06 67.092 156.42 67.276 156.732C67.468 157.044 67.728 157.288 68.056 157.464C68.392 157.64 68.772 157.728 69.196 157.728ZM74.7092 159V152.64H75.8132V154.368L75.7052 153.936C75.8812 153.496 76.1772 153.16 76.5932 152.928C77.0092 152.696 77.5212 152.58 78.1292 152.58V153.696C78.0812 153.688 78.0332 153.684 77.9852 153.684C77.9452 153.684 77.9052 153.684 77.8652 153.684C77.2492 153.684 76.7612 153.868 76.4012 154.236C76.0412 154.604 75.8612 155.136 75.8612 155.832V159H74.7092ZM83.0283 159V157.656L82.9683 157.404V155.112C82.9683 154.624 82.8243 154.248 82.5363 153.984C82.2563 153.712 81.8323 153.576 81.2643 153.576C80.8883 153.576 80.5203 153.64 80.1603 153.768C79.8003 153.888 79.4963 154.052 79.2483 154.26L78.7683 153.396C79.0963 153.132 79.4883 152.932 79.9443 152.796C80.4083 152.652 80.8923 152.58 81.3963 152.58C82.2683 152.58 82.9403 152.792 83.4123 153.216C83.8843 153.64 84.1203 154.288 84.1203 155.16V159H83.0283ZM80.9403 159.072C80.4683 159.072 80.0523 158.992 79.6923 158.832C79.3403 158.672 79.0683 158.452 78.8763 158.172C78.6843 157.884 78.5883 157.56 78.5883 157.2C78.5883 156.856 78.6683 156.544 78.8283 156.264C78.9963 155.984 79.2643 155.76 79.6323 155.592C80.0083 155.424 80.5123 155.34 81.1443 155.34H83.1603V156.168H81.1923C80.6163 156.168 80.2283 156.264 80.0283 156.456C79.8283 156.648 79.7283 156.88 79.7283 157.152C79.7283 157.464 79.8523 157.716 80.1003 157.908C80.3483 158.092 80.6923 158.184 81.1323 158.184C81.5643 158.184 81.9403 158.088 82.2603 157.896C82.5883 157.704 82.8243 157.424 82.9683 157.056L83.1963 157.848C83.0443 158.224 82.7763 158.524 82.3923 158.748C82.0083 158.964 81.5243 159.072 80.9403 159.072ZM89.6242 159.072C89.0962 159.072 88.6122 158.952 88.1722 158.712C87.7402 158.464 87.3922 158.1 87.1282 157.62C86.8722 157.14 86.7442 156.54 86.7442 155.82C86.7442 155.1 86.8682 154.5 87.1162 154.02C87.3722 153.54 87.7162 153.18 88.1482 152.94C88.5882 152.7 89.0802 152.58 89.6242 152.58C90.2482 152.58 90.8002 152.716 91.2802 152.988C91.7602 153.26 92.1402 153.64 92.4202 154.128C92.7002 154.608 92.8402 155.172 92.8402 155.82C92.8402 156.468 92.7002 157.036 92.4202 157.524C92.1402 158.012 91.7602 158.392 91.2802 158.664C90.8002 158.936 90.2482 159.072 89.6242 159.072ZM86.2522 161.328V152.64H87.3562V154.356L87.2842 155.832L87.4042 157.308V161.328H86.2522ZM89.5282 158.064C89.9362 158.064 90.3002 157.972 90.6202 157.788C90.9482 157.604 91.2042 157.344 91.3882 157.008C91.5802 156.664 91.6762 156.268 91.6762 155.82C91.6762 155.364 91.5802 154.972 91.3882 154.644C91.2042 154.308 90.9482 154.048 90.6202 153.864C90.3002 153.68 89.9362 153.588 89.5282 153.588C89.1282 153.588 88.7642 153.68 88.4362 153.864C88.1162 154.048 87.8602 154.308 87.6682 154.644C87.4842 154.972 87.3922 155.364 87.3922 155.82C87.3922 156.268 87.4842 156.664 87.6682 157.008C87.8602 157.344 88.1162 157.604 88.4362 157.788C88.7642 157.972 89.1282 158.064 89.5282 158.064ZM97.8278 152.58C98.3478 152.58 98.8038 152.68 99.1958 152.88C99.5958 153.08 99.9078 153.384 100.132 153.792C100.356 154.2 100.468 154.716 100.468 155.34V159H99.3158V155.472C99.3158 154.856 99.1638 154.392 98.8598 154.08C98.5638 153.768 98.1438 153.612 97.5998 153.612C97.1918 153.612 96.8358 153.692 96.5318 153.852C96.2278 154.012 95.9918 154.248 95.8238 154.56C95.6638 154.872 95.5838 155.26 95.5838 155.724V159H94.4318V150.096H95.5838V154.356L95.3558 153.9C95.5638 153.484 95.8838 153.16 96.3158 152.928C96.7478 152.696 97.2518 152.58 97.8278 152.58ZM102.6 159V152.64H103.752V159H102.6ZM103.176 151.416C102.952 151.416 102.764 151.344 102.612 151.2C102.468 151.056 102.396 150.88 102.396 150.672C102.396 150.456 102.468 150.276 102.612 150.132C102.764 149.988 102.952 149.916 103.176 149.916C103.4 149.916 103.584 149.988 103.728 150.132C103.88 150.268 103.956 150.44 103.956 150.648C103.956 150.864 103.884 151.048 103.74 151.2C103.596 151.344 103.408 151.416 103.176 151.416ZM108.723 159.072C108.075 159.072 107.495 158.932 106.983 158.652C106.479 158.372 106.083 157.988 105.795 157.5C105.507 157.012 105.363 156.452 105.363 155.82C105.363 155.188 105.507 154.628 105.795 154.14C106.083 153.652 106.479 153.272 106.983 153C107.495 152.72 108.075 152.58 108.723 152.58C109.299 152.58 109.811 152.696 110.259 152.928C110.715 153.152 111.067 153.488 111.315 153.936L110.439 154.5C110.231 154.188 109.975 153.96 109.671 153.816C109.375 153.664 109.055 153.588 108.711 153.588C108.295 153.588 107.923 153.68 107.595 153.864C107.267 154.048 107.007 154.308 106.815 154.644C106.623 154.972 106.527 155.364 106.527 155.82C106.527 156.276 106.623 156.672 106.815 157.008C107.007 157.344 107.267 157.604 107.595 157.788C107.923 157.972 108.295 158.064 108.711 158.064C109.055 158.064 109.375 157.992 109.671 157.848C109.975 157.696 110.231 157.464 110.439 157.152L111.315 157.704C111.067 158.144 110.715 158.484 110.259 158.724C109.811 158.956 109.299 159.072 108.723 159.072ZM113.317 159.072C113.093 159.072 112.901 158.996 112.741 158.844C112.581 158.684 112.501 158.484 112.501 158.244C112.501 158.004 112.581 157.808 112.741 157.656C112.901 157.504 113.093 157.428 113.317 157.428C113.533 157.428 113.717 157.504 113.869 157.656C114.029 157.808 114.109 158.004 114.109 158.244C114.109 158.484 114.029 158.684 113.869 158.844C113.717 158.996 113.533 159.072 113.317 159.072Z" fill="#008E86"/>
<path d="M72.162 45.81C63.7531 47.1831 59.8801 50.2647 60.1793 52.81" stroke="black" stroke-width="2" stroke-linecap="round"/>
<path d="M105.682 33.6722C106.158 33.3918 106.316 32.7788 106.036 32.303L101.467 24.5491C101.186 24.0733 100.573 23.9149 100.098 24.1953C99.6218 24.4756 99.4634 25.0887 99.7438 25.5645L103.805 32.4568L96.9129 36.5183C96.4371 36.7987 96.2787 37.4117 96.5591 37.8876C96.8395 38.3634 97.4525 38.5218 97.9283 38.2414L105.682 33.6722ZM67.502 42.7123C68.047 42.6233 68.4167 42.1093 68.3277 41.5642C68.2387 41.0192 67.7247 40.6494 67.1797 40.7384L67.502 42.7123ZM105.425 31.8425C83.0104 26.0499 67.1302 29.2508 59.8705 33.5976C58.0576 34.683 56.7074 35.8849 55.9598 37.1091C55.1995 38.3541 54.9996 39.7691 55.8396 40.9745C56.6143 42.0862 58.0932 42.7314 59.9614 43.0083C61.8685 43.2909 64.3801 43.2221 67.502 42.7123L67.1797 40.7384C64.1773 41.2287 61.8875 41.2719 60.2546 41.0299C58.583 40.7821 57.7836 40.266 57.4804 39.831C57.2426 39.4897 57.1652 38.9727 57.6667 38.1515C58.1808 37.3095 59.2316 36.3111 60.8979 35.3135C67.5545 31.3279 82.8395 28.0715 104.924 33.7789L105.425 31.8425Z" fill="black"/>
<path d="M61.9551 23.1836L125.595 86.8232L79.267 87.1641L61.9551 23.1836Z" fill="#00D8CC" stroke="#00635D" stroke-width="2" stroke-linejoin="round"/>
<path d="M62.3081 22.8281L79.6195 86.8091L88.8133 81.8608L83.1564 59.9404L62.3081 22.8281Z" fill="#008E86" stroke="#00635D" stroke-width="2" stroke-linejoin="round"/>
<path d="M78.2065 65.0589L88.2738 81.1546L83.324 59.9414L78.2065 65.0589Z" fill="#00D8CC" stroke="#00635D" stroke-width="2" stroke-linejoin="round"/>
<path d="M78.207 65.0586L88.2743 81.1543L92.5169 73.3761L78.207 65.0586Z" fill="#008E86" stroke="#00635D" stroke-width="2" stroke-linejoin="round"/>
<path d="M82.6543 42.8086L71.6543 61.8086" stroke="#333333" stroke-width="2" stroke-dasharray="4 4"/>
<path d="M106.117 46.1127C106.285 45.5864 105.994 45.024 105.468 44.8565L96.8913 42.1276C96.365 41.9602 95.8026 42.251 95.6352 42.7773C95.4677 43.3036 95.7586 43.866 96.2849 44.0335L103.908 46.4592L101.483 54.0826C101.315 54.6088 101.606 55.1712 102.132 55.3387C102.659 55.5062 103.221 55.2153 103.388 54.689L106.117 46.1127ZM61.1723 52.6927C61.1079 52.1442 60.611 51.7518 60.0624 51.8163C59.5139 51.8808 59.1215 52.3777 59.186 52.9262L61.1723 52.6927ZM104.705 44.9212C90.5011 52.2679 79.533 55.1793 72.106 55.6791C68.3855 55.9294 65.6093 55.5709 63.7717 54.9075C61.8861 54.2268 61.2485 53.3409 61.1723 52.6927L59.186 52.9262C59.396 54.7129 60.9536 56.0165 63.0926 56.7887C65.2795 57.5782 68.3572 57.9359 72.2403 57.6746C80.0207 57.151 91.259 54.1276 105.624 46.6977L104.705 44.9212Z" fill="black"/>
</svg>
