<svg width="180" height="180" viewBox="0 0 180 180" fill="none" xmlns="http://www.w3.org/2000/svg">
<g clip-path="url(#clip0_18_431)">
<rect width="180" height="180" rx="20" fill="#F2F2F2"/>
<g clip-path="url(#clip1_18_431)">
<path d="M0 30L-1.31134e-06 0L30 -1.31134e-06L30 10C30 21.0457 21.0457 30 10 30L0 30Z" fill="#333333"/>
<path d="M18.0068 15.112C18.5614 15.3893 18.9828 15.752 19.2708 16.2C19.5694 16.648 19.7188 17.1653 19.7188 17.752C19.7188 18.4453 19.5214 19.0533 19.1267 19.576C18.7321 20.088 18.1774 20.488 17.4628 20.776C16.7481 21.0533 15.9214 21.192 14.9828 21.192C14.0441 21.192 13.2174 21.0533 12.5028 20.776C11.7988 20.488 11.2494 20.088 10.8548 19.576C10.4708 19.0533 10.2788 18.4453 10.2788 17.752C10.2788 17.1653 10.4228 16.648 10.7108 16.2C11.0094 15.752 11.4308 15.3893 11.9748 15.112C11.5588 14.856 11.2388 14.536 11.0148 14.152C10.7908 13.7573 10.6788 13.3093 10.6788 12.808C10.6788 12.1573 10.8601 11.592 11.2228 11.112C11.5854 10.632 12.0921 10.264 12.7428 10.008C13.3934 9.74133 14.1401 9.608 14.9828 9.608C15.8361 9.608 16.5881 9.74133 17.2388 10.008C17.9001 10.264 18.4121 10.632 18.7748 11.112C19.1374 11.592 19.3188 12.1573 19.3188 12.808C19.3188 13.3093 19.2068 13.7573 18.9828 14.152C18.7588 14.536 18.4334 14.856 18.0068 15.112ZM14.9828 11.512C14.4601 11.512 14.0388 11.64 13.7188 11.896C13.4094 12.1413 13.2548 12.4827 13.2548 12.92C13.2548 13.3467 13.4094 13.6827 13.7188 13.928C14.0281 14.1733 14.4494 14.296 14.9828 14.296C15.5161 14.296 15.9428 14.1733 16.2628 13.928C16.5828 13.6827 16.7428 13.3467 16.7428 12.92C16.7428 12.4827 16.5828 12.1413 16.2628 11.896C15.9428 11.64 15.5161 11.512 14.9828 11.512ZM14.9828 19.288C15.6334 19.288 16.1454 19.144 16.5188 18.856C16.9028 18.5573 17.0948 18.1627 17.0948 17.672C17.0948 17.1813 16.9028 16.792 16.5188 16.504C16.1454 16.216 15.6334 16.072 14.9828 16.072C14.3428 16.072 13.8361 16.216 13.4628 16.504C13.0894 16.792 12.9028 17.1813 12.9028 17.672C12.9028 18.1733 13.0894 18.568 13.4628 18.856C13.8361 19.144 14.3428 19.288 14.9828 19.288Z" fill="#F2F2F2"/>
</g>
<path d="M42.7638 124.572H47.0958V125.604H42.7638V124.572ZM42.8838 129H41.6838V120.6H47.6118V121.644H42.8838V129ZM51.6578 129.072C51.0178 129.072 50.4498 128.932 49.9538 128.652C49.4578 128.372 49.0658 127.988 48.7778 127.5C48.4898 127.004 48.3458 126.444 48.3458 125.82C48.3458 125.188 48.4898 124.628 48.7778 124.14C49.0658 123.652 49.4578 123.272 49.9538 123C50.4498 122.72 51.0178 122.58 51.6578 122.58C52.2898 122.58 52.8538 122.72 53.3498 123C53.8538 123.272 54.2458 123.652 54.5258 124.14C54.8138 124.62 54.9578 125.18 54.9578 125.82C54.9578 126.452 54.8138 127.012 54.5258 127.5C54.2458 127.988 53.8538 128.372 53.3498 128.652C52.8538 128.932 52.2898 129.072 51.6578 129.072ZM51.6578 128.064C52.0658 128.064 52.4298 127.972 52.7498 127.788C53.0778 127.604 53.3338 127.344 53.5178 127.008C53.7018 126.664 53.7938 126.268 53.7938 125.82C53.7938 125.364 53.7018 124.972 53.5178 124.644C53.3338 124.308 53.0778 124.048 52.7498 123.864C52.4298 123.68 52.0658 123.588 51.6578 123.588C51.2498 123.588 50.8858 123.68 50.5658 123.864C50.2458 124.048 49.9898 124.308 49.7978 124.644C49.6058 124.972 49.5098 125.364 49.5098 125.82C49.5098 126.268 49.6058 126.664 49.7978 127.008C49.9898 127.344 50.2458 127.604 50.5658 127.788C50.8858 127.972 51.2498 128.064 51.6578 128.064ZM56.551 129V120.096H57.703V129H56.551ZM62.5305 129.072C61.9145 129.072 61.3625 128.936 60.8745 128.664C60.3945 128.392 60.0145 128.012 59.7345 127.524C59.4545 127.036 59.3145 126.468 59.3145 125.82C59.3145 125.172 59.4545 124.608 59.7345 124.128C60.0145 123.64 60.3945 123.26 60.8745 122.988C61.3625 122.716 61.9145 122.58 62.5305 122.58C63.0665 122.58 63.5505 122.7 63.9825 122.94C64.4145 123.18 64.7585 123.54 65.0145 124.02C65.2785 124.5 65.4105 125.1 65.4105 125.82C65.4105 126.54 65.2825 127.14 65.0265 127.62C64.7785 128.1 64.4385 128.464 64.0065 128.712C63.5745 128.952 63.0825 129.072 62.5305 129.072ZM62.6265 128.064C63.0265 128.064 63.3865 127.972 63.7065 127.788C64.0345 127.604 64.2905 127.344 64.4745 127.008C64.6665 126.664 64.7625 126.268 64.7625 125.82C64.7625 125.364 64.6665 124.972 64.4745 124.644C64.2905 124.308 64.0345 124.048 63.7065 123.864C63.3865 123.68 63.0265 123.588 62.6265 123.588C62.2185 123.588 61.8545 123.68 61.5345 123.864C61.2145 124.048 60.9585 124.308 60.7665 124.644C60.5745 124.972 60.4785 125.364 60.4785 125.82C60.4785 126.268 60.5745 126.664 60.7665 127.008C60.9585 127.344 61.2145 127.604 61.5345 127.788C61.8545 127.972 62.2185 128.064 62.6265 128.064ZM64.7985 129V127.284L64.8705 125.808L64.7505 124.332V120.096H65.9025V129H64.7985ZM73.4889 129.072C72.8489 129.072 72.3529 128.9 72.0009 128.556C71.6489 128.212 71.4729 127.72 71.4729 127.08V121.248H72.6249V127.032C72.6249 127.376 72.7089 127.64 72.8769 127.824C73.0529 128.008 73.3009 128.1 73.6209 128.1C73.9809 128.1 74.2809 128 74.5209 127.8L74.8809 128.628C74.7049 128.78 74.4929 128.892 74.2449 128.964C74.0049 129.036 73.7529 129.072 73.4889 129.072ZM70.3929 123.588V122.64H74.4489V123.588H70.3929ZM79.6696 122.58C80.1896 122.58 80.6456 122.68 81.0376 122.88C81.4376 123.08 81.7496 123.384 81.9736 123.792C82.1976 124.2 82.3096 124.716 82.3096 125.34V129H81.1576V125.472C81.1576 124.856 81.0056 124.392 80.7016 124.08C80.4056 123.768 79.9856 123.612 79.4416 123.612C79.0336 123.612 78.6776 123.692 78.3736 123.852C78.0696 124.012 77.8336 124.248 77.6656 124.56C77.5056 124.872 77.4256 125.26 77.4256 125.724V129H76.2736V120.096H77.4256V124.356L77.1976 123.9C77.4056 123.484 77.7256 123.16 78.1576 122.928C78.5896 122.696 79.0936 122.58 79.6696 122.58ZM87.2736 129.072C86.5936 129.072 85.9936 128.932 85.4736 128.652C84.9616 128.372 84.5616 127.988 84.2736 127.5C83.9936 127.012 83.8536 126.452 83.8536 125.82C83.8536 125.188 83.9896 124.628 84.2616 124.14C84.5416 123.652 84.9216 123.272 85.4016 123C85.8896 122.72 86.4376 122.58 87.0456 122.58C87.6616 122.58 88.2056 122.716 88.6776 122.988C89.1496 123.26 89.5176 123.644 89.7816 124.14C90.0536 124.628 90.1896 125.2 90.1896 125.856C90.1896 125.904 90.1856 125.96 90.1776 126.024C90.1776 126.088 90.1736 126.148 90.1656 126.204H84.7536V125.376H89.5656L89.0976 125.664C89.1056 125.256 89.0216 124.892 88.8456 124.572C88.6696 124.252 88.4256 124.004 88.1136 123.828C87.8096 123.644 87.4536 123.552 87.0456 123.552C86.6456 123.552 86.2896 123.644 85.9776 123.828C85.6656 124.004 85.4216 124.256 85.2456 124.584C85.0696 124.904 84.9816 125.272 84.9816 125.688V125.88C84.9816 126.304 85.0776 126.684 85.2696 127.02C85.4696 127.348 85.7456 127.604 86.0976 127.788C86.4496 127.972 86.8536 128.064 87.3096 128.064C87.6856 128.064 88.0256 128 88.3296 127.872C88.6416 127.744 88.9136 127.552 89.1456 127.296L89.7816 128.04C89.4936 128.376 89.1336 128.632 88.7016 128.808C88.2776 128.984 87.8016 129.072 87.2736 129.072ZM97.7839 129.072C97.1359 129.072 96.5559 128.932 96.0439 128.652C95.5399 128.372 95.1439 127.988 94.8559 127.5C94.5679 127.012 94.4239 126.452 94.4239 125.82C94.4239 125.188 94.5679 124.628 94.8559 124.14C95.1439 123.652 95.5399 123.272 96.0439 123C96.5559 122.72 97.1359 122.58 97.7839 122.58C98.3599 122.58 98.8719 122.696 99.3199 122.928C99.7759 123.152 100.128 123.488 100.376 123.936L99.4999 124.5C99.2919 124.188 99.0359 123.96 98.7319 123.816C98.4359 123.664 98.1159 123.588 97.7719 123.588C97.3559 123.588 96.9839 123.68 96.6559 123.864C96.3279 124.048 96.0679 124.308 95.8759 124.644C95.6839 124.972 95.5879 125.364 95.5879 125.82C95.5879 126.276 95.6839 126.672 95.8759 127.008C96.0679 127.344 96.3279 127.604 96.6559 127.788C96.9839 127.972 97.3559 128.064 97.7719 128.064C98.1159 128.064 98.4359 127.992 98.7319 127.848C99.0359 127.696 99.2919 127.464 99.4999 127.152L100.376 127.704C100.128 128.144 99.7759 128.484 99.3199 128.724C98.8719 128.956 98.3599 129.072 97.7839 129.072ZM104.498 129.072C103.858 129.072 103.29 128.932 102.794 128.652C102.298 128.372 101.906 127.988 101.618 127.5C101.33 127.004 101.186 126.444 101.186 125.82C101.186 125.188 101.33 124.628 101.618 124.14C101.906 123.652 102.298 123.272 102.794 123C103.29 122.72 103.858 122.58 104.498 122.58C105.13 122.58 105.694 122.72 106.19 123C106.694 123.272 107.086 123.652 107.366 124.14C107.654 124.62 107.798 125.18 107.798 125.82C107.798 126.452 107.654 127.012 107.366 127.5C107.086 127.988 106.694 128.372 106.19 128.652C105.694 128.932 105.13 129.072 104.498 129.072ZM104.498 128.064C104.906 128.064 105.27 127.972 105.59 127.788C105.918 127.604 106.174 127.344 106.358 127.008C106.542 126.664 106.634 126.268 106.634 125.82C106.634 125.364 106.542 124.972 106.358 124.644C106.174 124.308 105.918 124.048 105.59 123.864C105.27 123.68 104.906 123.588 104.498 123.588C104.09 123.588 103.726 123.68 103.406 123.864C103.086 124.048 102.83 124.308 102.638 124.644C102.446 124.972 102.35 125.364 102.35 125.82C102.35 126.268 102.446 126.664 102.638 127.008C102.83 127.344 103.086 127.604 103.406 127.788C103.726 127.972 104.09 128.064 104.498 128.064ZM109.391 129V122.64H110.495V124.368L110.387 123.936C110.563 123.496 110.859 123.16 111.275 122.928C111.691 122.696 112.203 122.58 112.811 122.58V123.696C112.763 123.688 112.715 123.684 112.667 123.684C112.627 123.684 112.587 123.684 112.547 123.684C111.931 123.684 111.443 123.868 111.083 124.236C110.723 124.604 110.543 125.136 110.543 125.832V129H109.391ZM117.627 122.58C118.147 122.58 118.603 122.68 118.995 122.88C119.395 123.08 119.707 123.384 119.931 123.792C120.155 124.2 120.267 124.716 120.267 125.34V129H119.115V125.472C119.115 124.856 118.963 124.392 118.659 124.08C118.363 123.768 117.943 123.612 117.399 123.612C116.991 123.612 116.635 123.692 116.331 123.852C116.027 124.012 115.791 124.248 115.623 124.56C115.463 124.872 115.383 125.26 115.383 125.724V129H114.231V122.64H115.335V124.356L115.155 123.9C115.363 123.484 115.683 123.16 116.115 122.928C116.547 122.696 117.051 122.58 117.627 122.58ZM125.231 129.072C124.551 129.072 123.951 128.932 123.431 128.652C122.919 128.372 122.519 127.988 122.231 127.5C121.951 127.012 121.811 126.452 121.811 125.82C121.811 125.188 121.947 124.628 122.219 124.14C122.499 123.652 122.879 123.272 123.359 123C123.847 122.72 124.395 122.58 125.003 122.58C125.619 122.58 126.163 122.716 126.635 122.988C127.107 123.26 127.475 123.644 127.739 124.14C128.011 124.628 128.147 125.2 128.147 125.856C128.147 125.904 128.143 125.96 128.135 126.024C128.135 126.088 128.131 126.148 128.123 126.204H122.711V125.376H127.523L127.055 125.664C127.063 125.256 126.979 124.892 126.803 124.572C126.627 124.252 126.383 124.004 126.071 123.828C125.767 123.644 125.411 123.552 125.003 123.552C124.603 123.552 124.247 123.644 123.935 123.828C123.623 124.004 123.379 124.256 123.203 124.584C123.027 124.904 122.939 125.272 122.939 125.688V125.88C122.939 126.304 123.035 126.684 123.227 127.02C123.427 127.348 123.703 127.604 124.055 127.788C124.407 127.972 124.811 128.064 125.267 128.064C125.643 128.064 125.983 128 126.287 127.872C126.599 127.744 126.871 127.552 127.103 127.296L127.739 128.04C127.451 128.376 127.091 128.632 126.659 128.808C126.235 128.984 125.759 129.072 125.231 129.072ZM129.746 129V122.64H130.85V124.368L130.742 123.936C130.918 123.496 131.214 123.16 131.63 122.928C132.046 122.696 132.558 122.58 133.166 122.58V123.696C133.118 123.688 133.07 123.684 133.022 123.684C132.982 123.684 132.942 123.684 132.902 123.684C132.286 123.684 131.798 123.868 131.438 124.236C131.078 124.604 130.898 125.136 130.898 125.832V129H129.746ZM136.48 129.072C135.952 129.072 135.448 129 134.968 128.856C134.496 128.712 134.124 128.536 133.852 128.328L134.332 127.416C134.604 127.6 134.94 127.756 135.34 127.884C135.74 128.012 136.148 128.076 136.564 128.076C137.1 128.076 137.484 128 137.716 127.848C137.956 127.696 138.076 127.484 138.076 127.212C138.076 127.012 138.004 126.856 137.86 126.744C137.716 126.632 137.524 126.548 137.284 126.492C137.052 126.436 136.792 126.388 136.504 126.348C136.216 126.3 135.928 126.244 135.64 126.18C135.352 126.108 135.088 126.012 134.848 125.892C134.608 125.764 134.416 125.592 134.272 125.376C134.128 125.152 134.056 124.856 134.056 124.488C134.056 124.104 134.164 123.768 134.38 123.48C134.596 123.192 134.9 122.972 135.292 122.82C135.692 122.66 136.164 122.58 136.708 122.58C137.124 122.58 137.544 122.632 137.968 122.736C138.4 122.832 138.752 122.972 139.024 123.156L138.532 124.068C138.244 123.876 137.944 123.744 137.632 123.672C137.32 123.6 137.008 123.564 136.696 123.564C136.192 123.564 135.816 123.648 135.568 123.816C135.32 123.976 135.196 124.184 135.196 124.44C135.196 124.656 135.268 124.824 135.412 124.944C135.564 125.056 135.756 125.144 135.988 125.208C136.228 125.272 136.492 125.328 136.78 125.376C137.068 125.416 137.356 125.472 137.644 125.544C137.932 125.608 138.192 125.7 138.424 125.82C138.664 125.94 138.856 126.108 139 126.324C139.152 126.54 139.228 126.828 139.228 127.188C139.228 127.572 139.116 127.904 138.892 128.184C138.668 128.464 138.352 128.684 137.944 128.844C137.536 128.996 137.048 129.072 136.48 129.072ZM21.3537 144V137.64H22.5057V144H21.3537ZM21.9297 136.416C21.7057 136.416 21.5177 136.344 21.3657 136.2C21.2217 136.056 21.1497 135.88 21.1497 135.672C21.1497 135.456 21.2217 135.276 21.3657 135.132C21.5177 134.988 21.7057 134.916 21.9297 134.916C22.1537 134.916 22.3377 134.988 22.4817 135.132C22.6337 135.268 22.7097 135.44 22.7097 135.648C22.7097 135.864 22.6377 136.048 22.4937 136.2C22.3497 136.344 22.1617 136.416 21.9297 136.416ZM28.1013 137.58C28.6213 137.58 29.0773 137.68 29.4693 137.88C29.8693 138.08 30.1813 138.384 30.4053 138.792C30.6293 139.2 30.7413 139.716 30.7413 140.34V144H29.5893V140.472C29.5893 139.856 29.4373 139.392 29.1333 139.08C28.8373 138.768 28.4173 138.612 27.8733 138.612C27.4653 138.612 27.1093 138.692 26.8053 138.852C26.5013 139.012 26.2653 139.248 26.0973 139.56C25.9373 139.872 25.8573 140.26 25.8573 140.724V144H24.7053V137.64H25.8093V139.356L25.6293 138.9C25.8373 138.484 26.1573 138.16 26.5893 137.928C27.0213 137.696 27.5253 137.58 28.1013 137.58ZM35.5013 144.072C34.8853 144.072 34.3333 143.936 33.8453 143.664C33.3653 143.392 32.9853 143.012 32.7053 142.524C32.4253 142.036 32.2853 141.468 32.2853 140.82C32.2853 140.172 32.4253 139.608 32.7053 139.128C32.9853 138.64 33.3653 138.26 33.8453 137.988C34.3333 137.716 34.8853 137.58 35.5013 137.58C36.0373 137.58 36.5213 137.7 36.9533 137.94C37.3853 138.18 37.7293 138.54 37.9853 139.02C38.2493 139.5 38.3813 140.1 38.3813 140.82C38.3813 141.54 38.2533 142.14 37.9973 142.62C37.7493 143.1 37.4093 143.464 36.9773 143.712C36.5453 143.952 36.0533 144.072 35.5013 144.072ZM35.5973 143.064C35.9973 143.064 36.3573 142.972 36.6773 142.788C37.0053 142.604 37.2613 142.344 37.4453 142.008C37.6373 141.664 37.7333 141.268 37.7333 140.82C37.7333 140.364 37.6373 139.972 37.4453 139.644C37.2613 139.308 37.0053 139.048 36.6773 138.864C36.3573 138.68 35.9973 138.588 35.5973 138.588C35.1893 138.588 34.8253 138.68 34.5053 138.864C34.1853 139.048 33.9293 139.308 33.7373 139.644C33.5453 139.972 33.4493 140.364 33.4493 140.82C33.4493 141.268 33.5453 141.664 33.7373 142.008C33.9293 142.344 34.1853 142.604 34.5053 142.788C34.8253 142.972 35.1893 143.064 35.5973 143.064ZM37.7693 144V142.284L37.8412 140.808L37.7213 139.332V135.096H38.8733V144H37.7693ZM41.0529 144V137.64H42.2049V144H41.0529ZM41.6289 136.416C41.4049 136.416 41.2169 136.344 41.0649 136.2C40.9209 136.056 40.8489 135.88 40.8489 135.672C40.8489 135.456 40.9209 135.276 41.0649 135.132C41.2169 134.988 41.4049 134.916 41.6289 134.916C41.8529 134.916 42.0369 134.988 42.1809 135.132C42.3329 135.268 42.4089 135.44 42.4089 135.648C42.4089 135.864 42.3369 136.048 42.1929 136.2C42.0489 136.344 41.8609 136.416 41.6289 136.416ZM47.1765 144.072C46.5285 144.072 45.9485 143.932 45.4365 143.652C44.9325 143.372 44.5365 142.988 44.2485 142.5C43.9605 142.012 43.8165 141.452 43.8165 140.82C43.8165 140.188 43.9605 139.628 44.2485 139.14C44.5365 138.652 44.9325 138.272 45.4365 138C45.9485 137.72 46.5285 137.58 47.1765 137.58C47.7525 137.58 48.2645 137.696 48.7125 137.928C49.1685 138.152 49.5205 138.488 49.7685 138.936L48.8925 139.5C48.6845 139.188 48.4285 138.96 48.1245 138.816C47.8285 138.664 47.5085 138.588 47.1645 138.588C46.7485 138.588 46.3765 138.68 46.0485 138.864C45.7205 139.048 45.4605 139.308 45.2685 139.644C45.0765 139.972 44.9805 140.364 44.9805 140.82C44.9805 141.276 45.0765 141.672 45.2685 142.008C45.4605 142.344 45.7205 142.604 46.0485 142.788C46.3765 142.972 46.7485 143.064 47.1645 143.064C47.5085 143.064 47.8285 142.992 48.1245 142.848C48.4285 142.696 48.6845 142.464 48.8925 142.152L49.7685 142.704C49.5205 143.144 49.1685 143.484 48.7125 143.724C48.2645 143.956 47.7525 144.072 47.1765 144.072ZM55.208 144V142.656L55.148 142.404V140.112C55.148 139.624 55.004 139.248 54.716 138.984C54.436 138.712 54.012 138.576 53.444 138.576C53.068 138.576 52.7 138.64 52.34 138.768C51.98 138.888 51.676 139.052 51.428 139.26L50.948 138.396C51.276 138.132 51.668 137.932 52.124 137.796C52.588 137.652 53.072 137.58 53.576 137.58C54.448 137.58 55.12 137.792 55.592 138.216C56.064 138.64 56.3 139.288 56.3 140.16V144H55.208ZM53.12 144.072C52.648 144.072 52.232 143.992 51.872 143.832C51.52 143.672 51.248 143.452 51.056 143.172C50.864 142.884 50.768 142.56 50.768 142.2C50.768 141.856 50.848 141.544 51.008 141.264C51.176 140.984 51.444 140.76 51.812 140.592C52.188 140.424 52.692 140.34 53.324 140.34H55.34V141.168H53.372C52.796 141.168 52.408 141.264 52.208 141.456C52.008 141.648 51.908 141.88 51.908 142.152C51.908 142.464 52.032 142.716 52.28 142.908C52.528 143.092 52.872 143.184 53.312 143.184C53.744 143.184 54.12 143.088 54.44 142.896C54.768 142.704 55.004 142.424 55.148 142.056L55.376 142.848C55.224 143.224 54.956 143.524 54.572 143.748C54.188 143.964 53.704 144.072 53.12 144.072ZM60.6158 144.072C59.9758 144.072 59.4798 143.9 59.1278 143.556C58.7758 143.212 58.5998 142.72 58.5998 142.08V136.248H59.7518V142.032C59.7518 142.376 59.8358 142.64 60.0038 142.824C60.1798 143.008 60.4278 143.1 60.7478 143.1C61.1078 143.1 61.4078 143 61.6478 142.8L62.0078 143.628C61.8318 143.78 61.6198 143.892 61.3718 143.964C61.1318 144.036 60.8798 144.072 60.6158 144.072ZM57.5198 138.588V137.64H61.5758V138.588H57.5198ZM66.0217 144.072C65.3417 144.072 64.7417 143.932 64.2217 143.652C63.7097 143.372 63.3097 142.988 63.0217 142.5C62.7417 142.012 62.6017 141.452 62.6017 140.82C62.6017 140.188 62.7377 139.628 63.0097 139.14C63.2897 138.652 63.6697 138.272 64.1497 138C64.6377 137.72 65.1857 137.58 65.7937 137.58C66.4097 137.58 66.9537 137.716 67.4257 137.988C67.8977 138.26 68.2657 138.644 68.5297 139.14C68.8017 139.628 68.9377 140.2 68.9377 140.856C68.9377 140.904 68.9337 140.96 68.9257 141.024C68.9257 141.088 68.9217 141.148 68.9137 141.204H63.5017V140.376H68.3137L67.8457 140.664C67.8537 140.256 67.7697 139.892 67.5937 139.572C67.4177 139.252 67.1737 139.004 66.8617 138.828C66.5577 138.644 66.2017 138.552 65.7937 138.552C65.3937 138.552 65.0377 138.644 64.7257 138.828C64.4137 139.004 64.1697 139.256 63.9937 139.584C63.8177 139.904 63.7297 140.272 63.7297 140.688V140.88C63.7297 141.304 63.8257 141.684 64.0177 142.02C64.2177 142.348 64.4937 142.604 64.8457 142.788C65.1977 142.972 65.6017 143.064 66.0577 143.064C66.4337 143.064 66.7737 143 67.0777 142.872C67.3897 142.744 67.6617 142.552 67.8937 142.296L68.5297 143.04C68.2417 143.376 67.8817 143.632 67.4497 143.808C67.0257 143.984 66.5497 144.072 66.0217 144.072ZM73.1653 144.072C72.5493 144.072 71.9973 143.936 71.5093 143.664C71.0293 143.392 70.6493 143.012 70.3693 142.524C70.0893 142.036 69.9493 141.468 69.9493 140.82C69.9493 140.172 70.0893 139.608 70.3693 139.128C70.6493 138.64 71.0293 138.26 71.5093 137.988C71.9973 137.716 72.5493 137.58 73.1653 137.58C73.7013 137.58 74.1853 137.7 74.6173 137.94C75.0493 138.18 75.3933 138.54 75.6493 139.02C75.9133 139.5 76.0453 140.1 76.0453 140.82C76.0453 141.54 75.9173 142.14 75.6613 142.62C75.4133 143.1 75.0733 143.464 74.6413 143.712C74.2093 143.952 73.7173 144.072 73.1653 144.072ZM73.2613 143.064C73.6613 143.064 74.0213 142.972 74.3413 142.788C74.6693 142.604 74.9253 142.344 75.1093 142.008C75.3013 141.664 75.3973 141.268 75.3973 140.82C75.3973 140.364 75.3013 139.972 75.1093 139.644C74.9253 139.308 74.6693 139.048 74.3413 138.864C74.0213 138.68 73.6613 138.588 73.2613 138.588C72.8533 138.588 72.4893 138.68 72.1693 138.864C71.8493 139.048 71.5933 139.308 71.4013 139.644C71.2093 139.972 71.1133 140.364 71.1133 140.82C71.1133 141.268 71.2093 141.664 71.4013 142.008C71.5933 142.344 71.8493 142.604 72.1693 142.788C72.4893 142.972 72.8533 143.064 73.2613 143.064ZM75.4333 144V142.284L75.5053 140.808L75.3853 139.332V135.096H76.5373V144H75.4333ZM84.6637 144.072C84.0237 144.072 83.4557 143.932 82.9597 143.652C82.4637 143.372 82.0717 142.988 81.7837 142.5C81.4957 142.004 81.3517 141.444 81.3517 140.82C81.3517 140.188 81.4957 139.628 81.7837 139.14C82.0717 138.652 82.4637 138.272 82.9597 138C83.4557 137.72 84.0237 137.58 84.6637 137.58C85.2957 137.58 85.8597 137.72 86.3557 138C86.8597 138.272 87.2517 138.652 87.5317 139.14C87.8197 139.62 87.9637 140.18 87.9637 140.82C87.9637 141.452 87.8197 142.012 87.5317 142.5C87.2517 142.988 86.8597 143.372 86.3557 143.652C85.8597 143.932 85.2957 144.072 84.6637 144.072ZM84.6637 143.064C85.0717 143.064 85.4357 142.972 85.7557 142.788C86.0837 142.604 86.3397 142.344 86.5237 142.008C86.7077 141.664 86.7997 141.268 86.7997 140.82C86.7997 140.364 86.7077 139.972 86.5237 139.644C86.3397 139.308 86.0837 139.048 85.7557 138.864C85.4357 138.68 85.0717 138.588 84.6637 138.588C84.2557 138.588 83.8917 138.68 83.5717 138.864C83.2517 139.048 82.9957 139.308 82.8037 139.644C82.6117 139.972 82.5157 140.364 82.5157 140.82C82.5157 141.268 82.6117 141.664 82.8037 142.008C82.9957 142.344 83.2517 142.604 83.5717 142.788C83.8917 142.972 84.2557 143.064 84.6637 143.064ZM92.9528 137.58C93.4728 137.58 93.9288 137.68 94.3208 137.88C94.7208 138.08 95.0328 138.384 95.2568 138.792C95.4808 139.2 95.5928 139.716 95.5928 140.34V144H94.4408V140.472C94.4408 139.856 94.2888 139.392 93.9848 139.08C93.6888 138.768 93.2688 138.612 92.7248 138.612C92.3168 138.612 91.9608 138.692 91.6568 138.852C91.3528 139.012 91.1168 139.248 90.9488 139.56C90.7888 139.872 90.7088 140.26 90.7088 140.724V144H89.5568V137.64H90.6608V139.356L90.4808 138.9C90.6888 138.484 91.0088 138.16 91.4408 137.928C91.8728 137.696 92.3768 137.58 92.9528 137.58ZM103.131 144.072C102.491 144.072 101.995 143.9 101.643 143.556C101.291 143.212 101.115 142.72 101.115 142.08V136.248H102.267V142.032C102.267 142.376 102.351 142.64 102.519 142.824C102.695 143.008 102.943 143.1 103.263 143.1C103.623 143.1 103.923 143 104.163 142.8L104.523 143.628C104.347 143.78 104.135 143.892 103.887 143.964C103.647 144.036 103.395 144.072 103.131 144.072ZM100.035 138.588V137.64H104.091V138.588H100.035ZM109.312 137.58C109.832 137.58 110.288 137.68 110.68 137.88C111.08 138.08 111.392 138.384 111.616 138.792C111.84 139.2 111.952 139.716 111.952 140.34V144H110.8V140.472C110.8 139.856 110.648 139.392 110.344 139.08C110.048 138.768 109.628 138.612 109.084 138.612C108.676 138.612 108.32 138.692 108.016 138.852C107.712 139.012 107.476 139.248 107.308 139.56C107.148 139.872 107.068 140.26 107.068 140.724V144H105.916V135.096H107.068V139.356L106.84 138.9C107.048 138.484 107.368 138.16 107.8 137.928C108.232 137.696 108.736 137.58 109.312 137.58ZM116.916 144.072C116.236 144.072 115.636 143.932 115.116 143.652C114.604 143.372 114.204 142.988 113.916 142.5C113.636 142.012 113.496 141.452 113.496 140.82C113.496 140.188 113.632 139.628 113.904 139.14C114.184 138.652 114.564 138.272 115.044 138C115.532 137.72 116.08 137.58 116.688 137.58C117.304 137.58 117.848 137.716 118.32 137.988C118.792 138.26 119.16 138.644 119.424 139.14C119.696 139.628 119.832 140.2 119.832 140.856C119.832 140.904 119.828 140.96 119.82 141.024C119.82 141.088 119.816 141.148 119.808 141.204H114.396V140.376H119.208L118.74 140.664C118.748 140.256 118.664 139.892 118.488 139.572C118.312 139.252 118.068 139.004 117.756 138.828C117.452 138.644 117.096 138.552 116.688 138.552C116.288 138.552 115.932 138.644 115.62 138.828C115.308 139.004 115.064 139.256 114.888 139.584C114.712 139.904 114.624 140.272 114.624 140.688V140.88C114.624 141.304 114.72 141.684 114.912 142.02C115.112 142.348 115.388 142.604 115.74 142.788C116.092 142.972 116.496 143.064 116.952 143.064C117.328 143.064 117.668 143 117.972 142.872C118.284 142.744 118.556 142.552 118.788 142.296L119.424 143.04C119.136 143.376 118.776 143.632 118.344 143.808C117.92 143.984 117.444 144.072 116.916 144.072ZM127.439 146.4C126.855 146.4 126.287 146.316 125.735 146.148C125.191 145.988 124.747 145.756 124.403 145.452L124.955 144.564C125.251 144.82 125.615 145.02 126.047 145.164C126.479 145.316 126.931 145.392 127.403 145.392C128.155 145.392 128.707 145.216 129.059 144.864C129.411 144.512 129.587 143.976 129.587 143.256V141.912L129.707 140.652L129.647 139.38V137.64H130.739V143.136C130.739 144.256 130.459 145.08 129.898 145.608C129.339 146.136 128.519 146.4 127.439 146.4ZM127.295 143.736C126.679 143.736 126.127 143.608 125.639 143.352C125.159 143.088 124.775 142.724 124.487 142.26C124.207 141.796 124.067 141.26 124.067 140.652C124.067 140.036 124.207 139.5 124.487 139.044C124.775 138.58 125.159 138.22 125.639 137.964C126.127 137.708 126.679 137.58 127.295 137.58C127.839 137.58 128.335 137.692 128.783 137.916C129.231 138.132 129.587 138.468 129.851 138.924C130.123 139.38 130.259 139.956 130.259 140.652C130.259 141.34 130.123 141.912 129.851 142.368C129.587 142.824 129.231 143.168 128.783 143.4C128.335 143.624 127.839 143.736 127.295 143.736ZM127.427 142.728C127.851 142.728 128.227 142.64 128.555 142.464C128.883 142.288 129.139 142.044 129.323 141.732C129.515 141.42 129.611 141.06 129.611 140.652C129.611 140.244 129.515 139.884 129.323 139.572C129.139 139.26 128.883 139.02 128.555 138.852C128.227 138.676 127.851 138.588 127.427 138.588C127.003 138.588 126.623 138.676 126.287 138.852C125.959 139.02 125.699 139.26 125.507 139.572C125.323 139.884 125.231 140.244 125.231 140.652C125.231 141.06 125.323 141.42 125.507 141.732C125.699 142.044 125.959 142.288 126.287 142.464C126.623 142.64 127.003 142.728 127.427 142.728ZM132.94 144V137.64H134.044V139.368L133.936 138.936C134.112 138.496 134.408 138.16 134.824 137.928C135.24 137.696 135.752 137.58 136.36 137.58V138.696C136.312 138.688 136.264 138.684 136.216 138.684C136.176 138.684 136.136 138.684 136.096 138.684C135.48 138.684 134.992 138.868 134.632 139.236C134.272 139.604 134.092 140.136 134.092 140.832V144H132.94ZM141.259 144V142.656L141.199 142.404V140.112C141.199 139.624 141.055 139.248 140.767 138.984C140.487 138.712 140.063 138.576 139.495 138.576C139.119 138.576 138.751 138.64 138.391 138.768C138.031 138.888 137.727 139.052 137.479 139.26L136.999 138.396C137.327 138.132 137.719 137.932 138.175 137.796C138.639 137.652 139.123 137.58 139.627 137.58C140.499 137.58 141.171 137.792 141.643 138.216C142.115 138.64 142.351 139.288 142.351 140.16V144H141.259ZM139.171 144.072C138.699 144.072 138.283 143.992 137.923 143.832C137.571 143.672 137.299 143.452 137.107 143.172C136.915 142.884 136.819 142.56 136.819 142.2C136.819 141.856 136.899 141.544 137.059 141.264C137.227 140.984 137.495 140.76 137.863 140.592C138.239 140.424 138.743 140.34 139.375 140.34H141.391V141.168H139.423C138.847 141.168 138.459 141.264 138.259 141.456C138.059 141.648 137.959 141.88 137.959 142.152C137.959 142.464 138.083 142.716 138.331 142.908C138.579 143.092 138.923 143.184 139.363 143.184C139.795 143.184 140.171 143.088 140.491 142.896C140.819 142.704 141.055 142.424 141.199 142.056L141.427 142.848C141.275 143.224 141.007 143.524 140.623 143.748C140.239 143.964 139.755 144.072 139.171 144.072ZM147.855 144.072C147.327 144.072 146.843 143.952 146.403 143.712C145.971 143.464 145.623 143.1 145.359 142.62C145.103 142.14 144.975 141.54 144.975 140.82C144.975 140.1 145.099 139.5 145.347 139.02C145.603 138.54 145.947 138.18 146.379 137.94C146.819 137.7 147.311 137.58 147.855 137.58C148.479 137.58 149.031 137.716 149.511 137.988C149.991 138.26 150.371 138.64 150.651 139.128C150.931 139.608 151.071 140.172 151.071 140.82C151.071 141.468 150.931 142.036 150.651 142.524C150.371 143.012 149.991 143.392 149.511 143.664C149.031 143.936 148.479 144.072 147.855 144.072ZM144.483 146.328V137.64H145.587V139.356L145.515 140.832L145.635 142.308V146.328H144.483ZM147.759 143.064C148.167 143.064 148.531 142.972 148.851 142.788C149.179 142.604 149.435 142.344 149.619 142.008C149.811 141.664 149.907 141.268 149.907 140.82C149.907 140.364 149.811 139.972 149.619 139.644C149.435 139.308 149.179 139.048 148.851 138.864C148.531 138.68 148.167 138.588 147.759 138.588C147.359 138.588 146.995 138.68 146.667 138.864C146.347 139.048 146.091 139.308 145.899 139.644C145.715 139.972 145.623 140.364 145.623 140.82C145.623 141.268 145.715 141.664 145.899 142.008C146.091 142.344 146.347 142.604 146.667 142.788C146.995 142.972 147.359 143.064 147.759 143.064ZM156.058 137.58C156.578 137.58 157.034 137.68 157.426 137.88C157.826 138.08 158.138 138.384 158.362 138.792C158.586 139.2 158.698 139.716 158.698 140.34V144H157.546V140.472C157.546 139.856 157.394 139.392 157.09 139.08C156.794 138.768 156.374 138.612 155.83 138.612C155.422 138.612 155.066 138.692 154.762 138.852C154.458 139.012 154.222 139.248 154.054 139.56C153.894 139.872 153.814 140.26 153.814 140.724V144H152.662V135.096H153.814V139.356L153.586 138.9C153.794 138.484 154.114 138.16 154.546 137.928C154.978 137.696 155.482 137.58 156.058 137.58ZM65.6623 159V152.64H66.8143V159H65.6623ZM66.2383 151.416C66.0143 151.416 65.8263 151.344 65.6743 151.2C65.5303 151.056 65.4583 150.88 65.4583 150.672C65.4583 150.456 65.5303 150.276 65.6743 150.132C65.8263 149.988 66.0143 149.916 66.2383 149.916C66.4623 149.916 66.6463 149.988 66.7903 150.132C66.9423 150.268 67.0183 150.44 67.0183 150.648C67.0183 150.864 66.9463 151.048 66.8023 151.2C66.6583 151.344 66.4703 151.416 66.2383 151.416ZM72.4099 152.58C72.9299 152.58 73.3859 152.68 73.7779 152.88C74.1779 153.08 74.4899 153.384 74.7139 153.792C74.9379 154.2 75.0499 154.716 75.0499 155.34V159H73.8979V155.472C73.8979 154.856 73.7459 154.392 73.4419 154.08C73.1459 153.768 72.7259 153.612 72.1819 153.612C71.7739 153.612 71.4179 153.692 71.1139 153.852C70.8099 154.012 70.5739 154.248 70.4059 154.56C70.2459 154.872 70.1659 155.26 70.1659 155.724V159H69.0139V152.64H70.1179V154.356L69.9379 153.9C70.1459 153.484 70.4659 153.16 70.8979 152.928C71.3299 152.696 71.8339 152.58 72.4099 152.58ZM78.4087 159L76.0447 152.64H77.1367L79.2367 158.4H78.7207L80.9047 152.64H81.8767L84.0127 158.4H83.5087L85.6567 152.64H86.6887L84.3127 159H83.2087L81.2047 153.744H81.5407L79.5127 159H78.4087ZM91.6064 159V157.656L91.5464 157.404V155.112C91.5464 154.624 91.4024 154.248 91.1144 153.984C90.8344 153.712 90.4104 153.576 89.8424 153.576C89.4664 153.576 89.0984 153.64 88.7384 153.768C88.3784 153.888 88.0744 154.052 87.8264 154.26L87.3464 153.396C87.6744 153.132 88.0664 152.932 88.5224 152.796C88.9864 152.652 89.4704 152.58 89.9744 152.58C90.8464 152.58 91.5184 152.792 91.9904 153.216C92.4624 153.64 92.6984 154.288 92.6984 155.16V159H91.6064ZM89.5184 159.072C89.0464 159.072 88.6304 158.992 88.2704 158.832C87.9184 158.672 87.6464 158.452 87.4544 158.172C87.2624 157.884 87.1664 157.56 87.1664 157.2C87.1664 156.856 87.2464 156.544 87.4064 156.264C87.5744 155.984 87.8424 155.76 88.2104 155.592C88.5864 155.424 89.0904 155.34 89.7224 155.34H91.7384V156.168H89.7704C89.1944 156.168 88.8064 156.264 88.6064 156.456C88.4064 156.648 88.3064 156.88 88.3064 157.152C88.3064 157.464 88.4304 157.716 88.6784 157.908C88.9264 158.092 89.2704 158.184 89.7104 158.184C90.1424 158.184 90.5184 158.088 90.8384 157.896C91.1664 157.704 91.4024 157.424 91.5464 157.056L91.7744 157.848C91.6224 158.224 91.3544 158.524 90.9704 158.748C90.5864 158.964 90.1024 159.072 89.5184 159.072ZM94.8303 159V152.64H95.9343V154.368L95.8263 153.936C96.0023 153.496 96.2983 153.16 96.7143 152.928C97.1303 152.696 97.6423 152.58 98.2503 152.58V153.696C98.2023 153.688 98.1543 153.684 98.1063 153.684C98.0663 153.684 98.0263 153.684 97.9863 153.684C97.3703 153.684 96.8823 153.868 96.5223 154.236C96.1623 154.604 95.9823 155.136 95.9823 155.832V159H94.8303ZM102.24 159.072C101.624 159.072 101.072 158.936 100.584 158.664C100.104 158.392 99.7235 158.012 99.4435 157.524C99.1635 157.036 99.0235 156.468 99.0235 155.82C99.0235 155.172 99.1635 154.608 99.4435 154.128C99.7235 153.64 100.104 153.26 100.584 152.988C101.072 152.716 101.624 152.58 102.24 152.58C102.776 152.58 103.26 152.7 103.692 152.94C104.124 153.18 104.468 153.54 104.724 154.02C104.988 154.5 105.12 155.1 105.12 155.82C105.12 156.54 104.992 157.14 104.736 157.62C104.488 158.1 104.148 158.464 103.716 158.712C103.284 158.952 102.792 159.072 102.24 159.072ZM102.336 158.064C102.736 158.064 103.096 157.972 103.416 157.788C103.744 157.604 104 157.344 104.184 157.008C104.376 156.664 104.472 156.268 104.472 155.82C104.472 155.364 104.376 154.972 104.184 154.644C104 154.308 103.744 154.048 103.416 153.864C103.096 153.68 102.736 153.588 102.336 153.588C101.928 153.588 101.564 153.68 101.244 153.864C100.924 154.048 100.668 154.308 100.476 154.644C100.284 154.972 100.188 155.364 100.188 155.82C100.188 156.268 100.284 156.664 100.476 157.008C100.668 157.344 100.924 157.604 101.244 157.788C101.564 157.972 101.928 158.064 102.336 158.064ZM104.508 159V157.284L104.58 155.808L104.46 154.332V150.096H105.612V159H104.508ZM109.615 159.072C109.087 159.072 108.583 159 108.103 158.856C107.631 158.712 107.259 158.536 106.987 158.328L107.467 157.416C107.739 157.6 108.075 157.756 108.475 157.884C108.875 158.012 109.283 158.076 109.699 158.076C110.235 158.076 110.619 158 110.851 157.848C111.091 157.696 111.211 157.484 111.211 157.212C111.211 157.012 111.139 156.856 110.995 156.744C110.851 156.632 110.659 156.548 110.419 156.492C110.187 156.436 109.927 156.388 109.639 156.348C109.351 156.3 109.063 156.244 108.775 156.18C108.487 156.108 108.223 156.012 107.983 155.892C107.743 155.764 107.551 155.592 107.407 155.376C107.263 155.152 107.191 154.856 107.191 154.488C107.191 154.104 107.299 153.768 107.515 153.48C107.731 153.192 108.035 152.972 108.427 152.82C108.827 152.66 109.299 152.58 109.843 152.58C110.259 152.58 110.679 152.632 111.103 152.736C111.535 152.832 111.887 152.972 112.159 153.156L111.667 154.068C111.379 153.876 111.079 153.744 110.767 153.672C110.455 153.6 110.143 153.564 109.831 153.564C109.327 153.564 108.951 153.648 108.703 153.816C108.455 153.976 108.331 154.184 108.331 154.44C108.331 154.656 108.403 154.824 108.547 154.944C108.699 155.056 108.891 155.144 109.123 155.208C109.363 155.272 109.627 155.328 109.915 155.376C110.203 155.416 110.491 155.472 110.779 155.544C111.067 155.608 111.327 155.7 111.559 155.82C111.799 155.94 111.991 156.108 112.135 156.324C112.287 156.54 112.363 156.828 112.363 157.188C112.363 157.572 112.251 157.904 112.027 158.184C111.803 158.464 111.487 158.684 111.079 158.844C110.671 158.996 110.183 159.072 109.615 159.072ZM114.079 159.072C113.855 159.072 113.663 158.996 113.503 158.844C113.343 158.684 113.263 158.484 113.263 158.244C113.263 158.004 113.343 157.808 113.503 157.656C113.663 157.504 113.855 157.428 114.079 157.428C114.295 157.428 114.479 157.504 114.631 157.656C114.791 157.808 114.871 158.004 114.871 158.244C114.871 158.484 114.791 158.684 114.631 158.844C114.479 158.996 114.295 159.072 114.079 159.072Z" fill="#008E86"/>
<path d="M84.7976 53.4102L84.7976 76.4991L68 76.4991L84.7976 53.4102Z" fill="#00D8CC" stroke="#00635D" stroke-width="2" stroke-linejoin="round"/>
<path d="M49 45.5L55.5 74L71.3138 71.8617L65.6569 49.9414L61.5 30L49 45.5Z" fill="#008E86" stroke="#00635D" stroke-width="2" stroke-linejoin="round"/>
<path d="M67 53.4102L90.2973 76.8211L67.1335 76.9915L67 53.4102Z" fill="#00D8CC" stroke="#00635D" stroke-width="2" stroke-linejoin="round"/>
<path d="M61.5003 30L84.7976 53.4109L84 76.4999L61.7673 77.1627L53.5 47L61.5003 30Z" fill="#00D8CC" stroke="#00635D" stroke-width="2" stroke-linejoin="round"/>
<path d="M84 68L77 77" stroke="#333333" stroke-width="2" stroke-dasharray="2 2"/>
<path d="M88.0869 75.1914C87.6399 74.8671 87.0146 74.9665 86.6903 75.4136L81.4052 82.6983C81.0808 83.1453 81.1803 83.7706 81.6273 84.095C82.0744 84.4193 82.6997 84.3198 83.024 83.8728L87.7219 77.3974L94.1972 82.0953C94.6442 82.4196 95.2695 82.3202 95.5938 81.8731C95.9182 81.4261 95.8187 80.8008 95.3717 80.4765L88.0869 75.1914ZM75.9982 68.0753C76.0393 67.5245 75.6262 67.0447 75.0754 67.0036C74.5247 66.9624 74.0449 67.3756 74.0037 67.9263L75.9982 68.0753ZM86.5121 76.1579C87.3674 81.5343 86.8602 85.6798 85.7479 88.3596C84.6103 91.1 83.0214 92.0056 81.7683 91.8237C80.4222 91.6283 78.6385 90.1126 77.3407 86.165C76.068 82.294 75.3784 76.3745 75.9982 68.0753L74.0037 67.9263C73.3727 76.3771 74.0575 82.5826 75.4407 86.7897C76.7987 90.9202 78.9523 93.4358 81.481 93.8029C84.1028 94.1835 86.3263 92.1828 87.595 89.1264C88.8889 86.0093 89.3819 81.4673 88.4873 75.8437L86.5121 76.1579Z" fill="black"/>
<path d="M53.5005 46.5L62.1205 76.8101L71.3143 71.8617L65.6574 49.9414L58.5005 37L53.5005 46.5Z" fill="#008E86" stroke="#00635D" stroke-width="2" stroke-linejoin="round"/>
<path d="M53.5005 47L84.5005 30.5L61.5005 30L53.5005 47Z" fill="#008E86" stroke="#00635D" stroke-width="2" stroke-linejoin="round"/>
<path d="M60.707 55.0589L70.7743 71.1546L65.8245 49.9414L60.707 55.0589Z" fill="#00D8CC" stroke="#00635D" stroke-width="2" stroke-linejoin="round"/>
<path d="M60.7075 55.0586L70.7748 71.1543L75.0174 63.3761L60.7075 55.0586Z" fill="#008E86" stroke="#00635D" stroke-width="2" stroke-linejoin="round"/>
</g>
<defs>
<clipPath id="clip0_18_431">
<rect width="180" height="180" rx="20" fill="white"/>
</clipPath>
<clipPath id="clip1_18_431">
<path d="M0 30L-1.31134e-06 0L30 -1.31134e-06L30 10C30 21.0457 21.0457 30 10 30L0 30Z" fill="white"/>
</clipPath>
</defs>
</svg>
