<svg width="180" height="180" viewBox="0 0 180 180" fill="none" xmlns="http://www.w3.org/2000/svg">
<rect width="180" height="180" rx="20" fill="#F2F2F2"/>
<path d="M37.9533 124.572H42.2853V125.604H37.9533V124.572ZM38.0733 129H36.8733V120.6H42.8013V121.644H38.0733V129ZM46.8473 129.072C46.2073 129.072 45.6393 128.932 45.1433 128.652C44.6473 128.372 44.2553 127.988 43.9673 127.5C43.6793 127.004 43.5353 126.444 43.5353 125.82C43.5353 125.188 43.6793 124.628 43.9673 124.14C44.2553 123.652 44.6473 123.272 45.1433 123C45.6393 122.72 46.2073 122.58 46.8473 122.58C47.4793 122.58 48.0433 122.72 48.5393 123C49.0433 123.272 49.4353 123.652 49.7153 124.14C50.0033 124.62 50.1473 125.18 50.1473 125.82C50.1473 126.452 50.0033 127.012 49.7153 127.5C49.4353 127.988 49.0433 128.372 48.5393 128.652C48.0433 128.932 47.4793 129.072 46.8473 129.072ZM46.8473 128.064C47.2553 128.064 47.6193 127.972 47.9393 127.788C48.2673 127.604 48.5233 127.344 48.7073 127.008C48.8913 126.664 48.9833 126.268 48.9833 125.82C48.9833 125.364 48.8913 124.972 48.7073 124.644C48.5233 124.308 48.2673 124.048 47.9393 123.864C47.6193 123.68 47.2553 123.588 46.8473 123.588C46.4393 123.588 46.0753 123.68 45.7553 123.864C45.4353 124.048 45.1793 124.308 44.9873 124.644C44.7953 124.972 44.6993 125.364 44.6993 125.82C44.6993 126.268 44.7953 126.664 44.9873 127.008C45.1793 127.344 45.4353 127.604 45.7553 127.788C46.0753 127.972 46.4393 128.064 46.8473 128.064ZM51.7404 129V120.096H52.8924V129H51.7404ZM57.72 129.072C57.104 129.072 56.552 128.936 56.064 128.664C55.584 128.392 55.204 128.012 54.924 127.524C54.644 127.036 54.504 126.468 54.504 125.82C54.504 125.172 54.644 124.608 54.924 124.128C55.204 123.64 55.584 123.26 56.064 122.988C56.552 122.716 57.104 122.58 57.72 122.58C58.256 122.58 58.74 122.7 59.172 122.94C59.604 123.18 59.948 123.54 60.204 124.02C60.468 124.5 60.6 125.1 60.6 125.82C60.6 126.54 60.472 127.14 60.216 127.62C59.968 128.1 59.628 128.464 59.196 128.712C58.764 128.952 58.272 129.072 57.72 129.072ZM57.816 128.064C58.216 128.064 58.576 127.972 58.896 127.788C59.224 127.604 59.48 127.344 59.664 127.008C59.856 126.664 59.952 126.268 59.952 125.82C59.952 125.364 59.856 124.972 59.664 124.644C59.48 124.308 59.224 124.048 58.896 123.864C58.576 123.68 58.216 123.588 57.816 123.588C57.408 123.588 57.044 123.68 56.724 123.864C56.404 124.048 56.148 124.308 55.956 124.644C55.764 124.972 55.668 125.364 55.668 125.82C55.668 126.268 55.764 126.664 55.956 127.008C56.148 127.344 56.404 127.604 56.724 127.788C57.044 127.972 57.408 128.064 57.816 128.064ZM59.988 129V127.284L60.06 125.808L59.94 124.332V120.096H61.092V129H59.988ZM68.6783 129.072C68.0383 129.072 67.5423 128.9 67.1903 128.556C66.8383 128.212 66.6623 127.72 66.6623 127.08V121.248H67.8143V127.032C67.8143 127.376 67.8983 127.64 68.0663 127.824C68.2423 128.008 68.4903 128.1 68.8103 128.1C69.1703 128.1 69.4703 128 69.7103 127.8L70.0703 128.628C69.8943 128.78 69.6823 128.892 69.4343 128.964C69.1943 129.036 68.9423 129.072 68.6783 129.072ZM65.5823 123.588V122.64H69.6383V123.588H65.5823ZM74.8591 122.58C75.3791 122.58 75.8351 122.68 76.2271 122.88C76.6271 123.08 76.9391 123.384 77.1631 123.792C77.3871 124.2 77.4991 124.716 77.4991 125.34V129H76.3471V125.472C76.3471 124.856 76.1951 124.392 75.8911 124.08C75.5951 123.768 75.1751 123.612 74.6311 123.612C74.2231 123.612 73.8671 123.692 73.5631 123.852C73.2591 124.012 73.0231 124.248 72.8551 124.56C72.6951 124.872 72.6151 125.26 72.6151 125.724V129H71.4631V120.096H72.6151V124.356L72.3871 123.9C72.5951 123.484 72.9151 123.16 73.3471 122.928C73.7791 122.696 74.2831 122.58 74.8591 122.58ZM82.4631 129.072C81.7831 129.072 81.1831 128.932 80.6631 128.652C80.1511 128.372 79.7511 127.988 79.4631 127.5C79.1831 127.012 79.0431 126.452 79.0431 125.82C79.0431 125.188 79.1791 124.628 79.4511 124.14C79.7311 123.652 80.1111 123.272 80.5911 123C81.0791 122.72 81.6271 122.58 82.2351 122.58C82.8511 122.58 83.3951 122.716 83.8671 122.988C84.3391 123.26 84.7071 123.644 84.9711 124.14C85.2431 124.628 85.3791 125.2 85.3791 125.856C85.3791 125.904 85.3751 125.96 85.3671 126.024C85.3671 126.088 85.3631 126.148 85.3551 126.204H79.9431V125.376H84.7551L84.2871 125.664C84.2951 125.256 84.2111 124.892 84.0351 124.572C83.8591 124.252 83.6151 124.004 83.3031 123.828C82.9991 123.644 82.6431 123.552 82.2351 123.552C81.8351 123.552 81.4791 123.644 81.1671 123.828C80.8551 124.004 80.6111 124.256 80.4351 124.584C80.2591 124.904 80.1711 125.272 80.1711 125.688V125.88C80.1711 126.304 80.2671 126.684 80.4591 127.02C80.6591 127.348 80.9351 127.604 81.2871 127.788C81.6391 127.972 82.0431 128.064 82.4991 128.064C82.8751 128.064 83.2151 128 83.5191 127.872C83.8311 127.744 84.1031 127.552 84.3351 127.296L84.9711 128.04C84.6831 128.376 84.3231 128.632 83.8911 128.808C83.4671 128.984 82.9911 129.072 82.4631 129.072ZM92.3854 129.072C91.7454 129.072 91.2494 128.9 90.8974 128.556C90.5454 128.212 90.3694 127.72 90.3694 127.08V121.248H91.5214V127.032C91.5214 127.376 91.6054 127.64 91.7734 127.824C91.9494 128.008 92.1974 128.1 92.5174 128.1C92.8774 128.1 93.1774 128 93.4174 127.8L93.7774 128.628C93.6014 128.78 93.3894 128.892 93.1414 128.964C92.9014 129.036 92.6494 129.072 92.3854 129.072ZM89.2894 123.588V122.64H93.3454V123.588H89.2894ZM95.1701 129V122.64H96.3221V129H95.1701ZM95.7461 121.416C95.5221 121.416 95.3341 121.344 95.1821 121.2C95.0381 121.056 94.9661 120.88 94.9661 120.672C94.9661 120.456 95.0381 120.276 95.1821 120.132C95.3341 119.988 95.5221 119.916 95.7461 119.916C95.9701 119.916 96.1541 119.988 96.2981 120.132C96.4501 120.268 96.5261 120.44 96.5261 120.648C96.5261 120.864 96.4541 121.048 96.3101 121.2C96.1661 121.344 95.9781 121.416 95.7461 121.416ZM101.894 129.072C101.366 129.072 100.882 128.952 100.442 128.712C100.01 128.464 99.6617 128.1 99.3977 127.62C99.1417 127.14 99.0137 126.54 99.0137 125.82C99.0137 125.1 99.1377 124.5 99.3857 124.02C99.6417 123.54 99.9857 123.18 100.418 122.94C100.858 122.7 101.35 122.58 101.894 122.58C102.518 122.58 103.07 122.716 103.55 122.988C104.03 123.26 104.41 123.64 104.69 124.128C104.97 124.608 105.11 125.172 105.11 125.82C105.11 126.468 104.97 127.036 104.69 127.524C104.41 128.012 104.03 128.392 103.55 128.664C103.07 128.936 102.518 129.072 101.894 129.072ZM98.5217 131.328V122.64H99.6257V124.356L99.5537 125.832L99.6737 127.308V131.328H98.5217ZM101.798 128.064C102.206 128.064 102.57 127.972 102.89 127.788C103.218 127.604 103.474 127.344 103.658 127.008C103.85 126.664 103.946 126.268 103.946 125.82C103.946 125.364 103.85 124.972 103.658 124.644C103.474 124.308 103.218 124.048 102.89 123.864C102.57 123.68 102.206 123.588 101.798 123.588C101.398 123.588 101.034 123.68 100.706 123.864C100.386 124.048 100.13 124.308 99.9377 124.644C99.7537 124.972 99.6617 125.364 99.6617 125.82C99.6617 126.268 99.7537 126.664 99.9377 127.008C100.13 127.344 100.386 127.604 100.706 127.788C101.034 127.972 101.398 128.064 101.798 128.064ZM112.648 129.072C112.008 129.072 111.44 128.932 110.944 128.652C110.448 128.372 110.056 127.988 109.768 127.5C109.48 127.004 109.336 126.444 109.336 125.82C109.336 125.188 109.48 124.628 109.768 124.14C110.056 123.652 110.448 123.272 110.944 123C111.44 122.72 112.008 122.58 112.648 122.58C113.28 122.58 113.844 122.72 114.34 123C114.844 123.272 115.236 123.652 115.516 124.14C115.804 124.62 115.948 125.18 115.948 125.82C115.948 126.452 115.804 127.012 115.516 127.5C115.236 127.988 114.844 128.372 114.34 128.652C113.844 128.932 113.28 129.072 112.648 129.072ZM112.648 128.064C113.056 128.064 113.42 127.972 113.74 127.788C114.068 127.604 114.324 127.344 114.508 127.008C114.692 126.664 114.784 126.268 114.784 125.82C114.784 125.364 114.692 124.972 114.508 124.644C114.324 124.308 114.068 124.048 113.74 123.864C113.42 123.68 113.056 123.588 112.648 123.588C112.24 123.588 111.876 123.68 111.556 123.864C111.236 124.048 110.98 124.308 110.788 124.644C110.596 124.972 110.5 125.364 110.5 125.82C110.5 126.268 110.596 126.664 110.788 127.008C110.98 127.344 111.236 127.604 111.556 127.788C111.876 127.972 112.24 128.064 112.648 128.064ZM117.709 129V122.076C117.709 121.452 117.889 120.956 118.249 120.588C118.617 120.212 119.137 120.024 119.809 120.024C120.057 120.024 120.293 120.056 120.517 120.12C120.749 120.176 120.945 120.268 121.105 120.396L120.757 121.272C120.637 121.176 120.501 121.104 120.349 121.056C120.197 121 120.037 120.972 119.869 120.972C119.533 120.972 119.277 121.068 119.101 121.26C118.925 121.444 118.837 121.72 118.837 122.088V122.94L118.861 123.468V129H117.709ZM116.629 123.588V122.64H120.685V123.588H116.629ZM127.178 129.072C126.538 129.072 126.042 128.9 125.69 128.556C125.338 128.212 125.162 127.72 125.162 127.08V121.248H126.314V127.032C126.314 127.376 126.398 127.64 126.566 127.824C126.742 128.008 126.99 128.1 127.31 128.1C127.67 128.1 127.97 128 128.21 127.8L128.57 128.628C128.394 128.78 128.182 128.892 127.934 128.964C127.694 129.036 127.442 129.072 127.178 129.072ZM124.082 123.588V122.64H128.138V123.588H124.082ZM133.359 122.58C133.879 122.58 134.335 122.68 134.727 122.88C135.127 123.08 135.439 123.384 135.663 123.792C135.887 124.2 135.999 124.716 135.999 125.34V129H134.847V125.472C134.847 124.856 134.695 124.392 134.391 124.08C134.095 123.768 133.675 123.612 133.131 123.612C132.723 123.612 132.367 123.692 132.063 123.852C131.759 124.012 131.523 124.248 131.355 124.56C131.195 124.872 131.115 125.26 131.115 125.724V129H129.963V120.096H131.115V124.356L130.887 123.9C131.095 123.484 131.415 123.16 131.847 122.928C132.279 122.696 132.783 122.58 133.359 122.58ZM140.963 129.072C140.283 129.072 139.683 128.932 139.163 128.652C138.651 128.372 138.251 127.988 137.963 127.5C137.683 127.012 137.543 126.452 137.543 125.82C137.543 125.188 137.679 124.628 137.951 124.14C138.231 123.652 138.611 123.272 139.091 123C139.579 122.72 140.127 122.58 140.735 122.58C141.351 122.58 141.895 122.716 142.367 122.988C142.839 123.26 143.207 123.644 143.471 124.14C143.743 124.628 143.879 125.2 143.879 125.856C143.879 125.904 143.875 125.96 143.867 126.024C143.867 126.088 143.863 126.148 143.855 126.204H138.443V125.376H143.255L142.787 125.664C142.795 125.256 142.711 124.892 142.535 124.572C142.359 124.252 142.115 124.004 141.803 123.828C141.499 123.644 141.143 123.552 140.735 123.552C140.335 123.552 139.979 123.644 139.667 123.828C139.355 124.004 139.111 124.256 138.935 124.584C138.759 124.904 138.671 125.272 138.671 125.688V125.88C138.671 126.304 138.767 126.684 138.959 127.02C139.159 127.348 139.435 127.604 139.787 127.788C140.139 127.972 140.543 128.064 140.999 128.064C141.375 128.064 141.715 128 142.019 127.872C142.331 127.744 142.603 127.552 142.835 127.296L143.471 128.04C143.183 128.376 142.823 128.632 142.391 128.808C141.967 128.984 141.491 129.072 140.963 129.072ZM30.4978 137.58C31.0178 137.58 31.4738 137.68 31.8658 137.88C32.2658 138.08 32.5778 138.384 32.8018 138.792C33.0258 139.2 33.1378 139.716 33.1378 140.34V144H31.9858V140.472C31.9858 139.856 31.8338 139.392 31.5298 139.08C31.2338 138.768 30.8138 138.612 30.2698 138.612C29.8618 138.612 29.5058 138.692 29.2018 138.852C28.8978 139.012 28.6618 139.248 28.4938 139.56C28.3338 139.872 28.2538 140.26 28.2538 140.724V144H27.1018V135.096H28.2538V139.356L28.0258 138.9C28.2338 138.484 28.5538 138.16 28.9858 137.928C29.4178 137.696 29.9218 137.58 30.4978 137.58ZM38.1017 144.072C37.4217 144.072 36.8217 143.932 36.3017 143.652C35.7897 143.372 35.3897 142.988 35.1017 142.5C34.8217 142.012 34.6817 141.452 34.6817 140.82C34.6817 140.188 34.8177 139.628 35.0897 139.14C35.3697 138.652 35.7497 138.272 36.2297 138C36.7177 137.72 37.2657 137.58 37.8737 137.58C38.4897 137.58 39.0337 137.716 39.5057 137.988C39.9777 138.26 40.3457 138.644 40.6097 139.14C40.8817 139.628 41.0177 140.2 41.0177 140.856C41.0177 140.904 41.0137 140.96 41.0057 141.024C41.0057 141.088 41.0017 141.148 40.9937 141.204H35.5817V140.376H40.3937L39.9257 140.664C39.9337 140.256 39.8497 139.892 39.6737 139.572C39.4977 139.252 39.2537 139.004 38.9417 138.828C38.6377 138.644 38.2817 138.552 37.8737 138.552C37.4737 138.552 37.1177 138.644 36.8057 138.828C36.4937 139.004 36.2497 139.256 36.0737 139.584C35.8977 139.904 35.8097 140.272 35.8097 140.688V140.88C35.8097 141.304 35.9057 141.684 36.0977 142.02C36.2977 142.348 36.5737 142.604 36.9257 142.788C37.2777 142.972 37.6817 143.064 38.1377 143.064C38.5137 143.064 38.8537 143 39.1577 142.872C39.4697 142.744 39.7417 142.552 39.9737 142.296L40.6097 143.04C40.3217 143.376 39.9617 143.632 39.5297 143.808C39.1057 143.984 38.6297 144.072 38.1017 144.072ZM46.3896 144V142.656L46.3296 142.404V140.112C46.3296 139.624 46.1856 139.248 45.8976 138.984C45.6176 138.712 45.1936 138.576 44.6256 138.576C44.2496 138.576 43.8816 138.64 43.5216 138.768C43.1616 138.888 42.8576 139.052 42.6096 139.26L42.1296 138.396C42.4576 138.132 42.8496 137.932 43.3056 137.796C43.7696 137.652 44.2536 137.58 44.7576 137.58C45.6296 137.58 46.3016 137.792 46.7736 138.216C47.2456 138.64 47.4816 139.288 47.4816 140.16V144H46.3896ZM44.3016 144.072C43.8296 144.072 43.4136 143.992 43.0536 143.832C42.7016 143.672 42.4296 143.452 42.2376 143.172C42.0456 142.884 41.9496 142.56 41.9496 142.2C41.9496 141.856 42.0296 141.544 42.1896 141.264C42.3576 140.984 42.6256 140.76 42.9936 140.592C43.3696 140.424 43.8736 140.34 44.5056 140.34H46.5216V141.168H44.5536C43.9776 141.168 43.5896 141.264 43.3896 141.456C43.1896 141.648 43.0896 141.88 43.0896 142.152C43.0896 142.464 43.2136 142.716 43.4616 142.908C43.7096 143.092 44.0536 143.184 44.4936 143.184C44.9256 143.184 45.3016 143.088 45.6216 142.896C45.9496 142.704 46.1856 142.424 46.3296 142.056L46.5576 142.848C46.4056 143.224 46.1376 143.524 45.7536 143.748C45.3696 143.964 44.8856 144.072 44.3016 144.072ZM52.2415 144.072C51.6255 144.072 51.0735 143.936 50.5855 143.664C50.1055 143.392 49.7255 143.012 49.4455 142.524C49.1655 142.036 49.0255 141.468 49.0255 140.82C49.0255 140.172 49.1655 139.608 49.4455 139.128C49.7255 138.64 50.1055 138.26 50.5855 137.988C51.0735 137.716 51.6255 137.58 52.2415 137.58C52.7775 137.58 53.2615 137.7 53.6935 137.94C54.1255 138.18 54.4695 138.54 54.7255 139.02C54.9895 139.5 55.1215 140.1 55.1215 140.82C55.1215 141.54 54.9935 142.14 54.7375 142.62C54.4895 143.1 54.1495 143.464 53.7175 143.712C53.2855 143.952 52.7935 144.072 52.2415 144.072ZM52.3375 143.064C52.7375 143.064 53.0975 142.972 53.4175 142.788C53.7455 142.604 54.0015 142.344 54.1855 142.008C54.3775 141.664 54.4735 141.268 54.4735 140.82C54.4735 140.364 54.3775 139.972 54.1855 139.644C54.0015 139.308 53.7455 139.048 53.4175 138.864C53.0975 138.68 52.7375 138.588 52.3375 138.588C51.9295 138.588 51.5655 138.68 51.2455 138.864C50.9255 139.048 50.6695 139.308 50.4775 139.644C50.2855 139.972 50.1895 140.364 50.1895 140.82C50.1895 141.268 50.2855 141.664 50.4775 142.008C50.6695 142.344 50.9255 142.604 51.2455 142.788C51.5655 142.972 51.9295 143.064 52.3375 143.064ZM54.5095 144V142.284L54.5815 140.808L54.4615 139.332V135.096H55.6135V144H54.5095ZM61.0158 144V137.64H62.1678V144H61.0158ZM61.5918 136.416C61.3678 136.416 61.1798 136.344 61.0278 136.2C60.8838 136.056 60.8118 135.88 60.8118 135.672C60.8118 135.456 60.8838 135.276 61.0278 135.132C61.1798 134.988 61.3678 134.916 61.5918 134.916C61.8158 134.916 61.9998 134.988 62.1438 135.132C62.2958 135.268 62.3718 135.44 62.3718 135.648C62.3718 135.864 62.2998 136.048 62.1558 136.2C62.0118 136.344 61.8238 136.416 61.5918 136.416ZM67.7634 137.58C68.2834 137.58 68.7394 137.68 69.1314 137.88C69.5314 138.08 69.8434 138.384 70.0674 138.792C70.2914 139.2 70.4034 139.716 70.4034 140.34V144H69.2514V140.472C69.2514 139.856 69.0994 139.392 68.7954 139.08C68.4994 138.768 68.0794 138.612 67.5354 138.612C67.1274 138.612 66.7714 138.692 66.4674 138.852C66.1634 139.012 65.9274 139.248 65.7594 139.56C65.5994 139.872 65.5194 140.26 65.5194 140.724V144H64.3674V137.64H65.4714V139.356L65.2914 138.9C65.4994 138.484 65.8194 138.16 66.2514 137.928C66.6834 137.696 67.1874 137.58 67.7634 137.58ZM79.706 144V142.656L79.646 142.404V140.112C79.646 139.624 79.502 139.248 79.214 138.984C78.934 138.712 78.51 138.576 77.942 138.576C77.566 138.576 77.198 138.64 76.838 138.768C76.478 138.888 76.174 139.052 75.926 139.26L75.446 138.396C75.774 138.132 76.166 137.932 76.622 137.796C77.086 137.652 77.57 137.58 78.074 137.58C78.946 137.58 79.618 137.792 80.09 138.216C80.562 138.64 80.798 139.288 80.798 140.16V144H79.706ZM77.618 144.072C77.146 144.072 76.73 143.992 76.37 143.832C76.018 143.672 75.746 143.452 75.554 143.172C75.362 142.884 75.266 142.56 75.266 142.2C75.266 141.856 75.346 141.544 75.506 141.264C75.674 140.984 75.942 140.76 76.31 140.592C76.686 140.424 77.19 140.34 77.822 140.34H79.838V141.168H77.87C77.294 141.168 76.906 141.264 76.706 141.456C76.506 141.648 76.406 141.88 76.406 142.152C76.406 142.464 76.53 142.716 76.778 142.908C77.026 143.092 77.37 143.184 77.81 143.184C78.242 143.184 78.618 143.088 78.938 142.896C79.266 142.704 79.502 142.424 79.646 142.056L79.874 142.848C79.722 143.224 79.454 143.524 79.07 143.748C78.686 143.964 78.202 144.072 77.618 144.072ZM86.3259 137.58C86.8459 137.58 87.3019 137.68 87.6939 137.88C88.0939 138.08 88.4059 138.384 88.6299 138.792C88.8539 139.2 88.9659 139.716 88.9659 140.34V144H87.8139V140.472C87.8139 139.856 87.6619 139.392 87.3579 139.08C87.0619 138.768 86.6419 138.612 86.0979 138.612C85.6899 138.612 85.3339 138.692 85.0299 138.852C84.7259 139.012 84.4899 139.248 84.3219 139.56C84.1619 139.872 84.0819 140.26 84.0819 140.724V144H82.9299V137.64H84.0339V139.356L83.8539 138.9C84.0619 138.484 84.3819 138.16 84.8139 137.928C85.2459 137.696 85.7499 137.58 86.3259 137.58ZM93.7259 144.072C93.1099 144.072 92.5579 143.936 92.0699 143.664C91.5899 143.392 91.2099 143.012 90.9299 142.524C90.6499 142.036 90.5099 141.468 90.5099 140.82C90.5099 140.172 90.6499 139.608 90.9299 139.128C91.2099 138.64 91.5899 138.26 92.0699 137.988C92.5579 137.716 93.1099 137.58 93.7259 137.58C94.2619 137.58 94.7459 137.7 95.1779 137.94C95.6099 138.18 95.9539 138.54 96.2099 139.02C96.4739 139.5 96.6059 140.1 96.6059 140.82C96.6059 141.54 96.4779 142.14 96.2219 142.62C95.9739 143.1 95.6339 143.464 95.2019 143.712C94.7699 143.952 94.2779 144.072 93.7259 144.072ZM93.8219 143.064C94.2219 143.064 94.5819 142.972 94.9019 142.788C95.2299 142.604 95.4859 142.344 95.6699 142.008C95.8619 141.664 95.9579 141.268 95.9579 140.82C95.9579 140.364 95.8619 139.972 95.6699 139.644C95.4859 139.308 95.2299 139.048 94.9019 138.864C94.5819 138.68 94.2219 138.588 93.8219 138.588C93.4139 138.588 93.0499 138.68 92.7299 138.864C92.4099 139.048 92.1539 139.308 91.9619 139.644C91.7699 139.972 91.6739 140.364 91.6739 140.82C91.6739 141.268 91.7699 141.664 91.9619 142.008C92.1539 142.344 92.4099 142.604 92.7299 142.788C93.0499 142.972 93.4139 143.064 93.8219 143.064ZM95.9939 144V142.284L96.0659 140.808L95.9459 139.332V135.096H97.0979V144H95.9939ZM104.684 144.072C104.044 144.072 103.548 143.9 103.196 143.556C102.844 143.212 102.668 142.72 102.668 142.08V136.248H103.82V142.032C103.82 142.376 103.904 142.64 104.072 142.824C104.248 143.008 104.496 143.1 104.816 143.1C105.176 143.1 105.476 143 105.716 142.8L106.076 143.628C105.9 143.78 105.688 143.892 105.44 143.964C105.2 144.036 104.948 144.072 104.684 144.072ZM101.588 138.588V137.64H105.644V138.588H101.588ZM110.865 137.58C111.385 137.58 111.841 137.68 112.233 137.88C112.633 138.08 112.945 138.384 113.169 138.792C113.393 139.2 113.505 139.716 113.505 140.34V144H112.353V140.472C112.353 139.856 112.201 139.392 111.897 139.08C111.601 138.768 111.181 138.612 110.637 138.612C110.229 138.612 109.873 138.692 109.569 138.852C109.265 139.012 109.029 139.248 108.861 139.56C108.701 139.872 108.621 140.26 108.621 140.724V144H107.469V135.096H108.621V139.356L108.393 138.9C108.601 138.484 108.921 138.16 109.353 137.928C109.785 137.696 110.289 137.58 110.865 137.58ZM118.469 144.072C117.789 144.072 117.189 143.932 116.669 143.652C116.157 143.372 115.757 142.988 115.469 142.5C115.189 142.012 115.049 141.452 115.049 140.82C115.049 140.188 115.185 139.628 115.457 139.14C115.737 138.652 116.117 138.272 116.597 138C117.085 137.72 117.633 137.58 118.241 137.58C118.857 137.58 119.401 137.716 119.873 137.988C120.345 138.26 120.713 138.644 120.977 139.14C121.249 139.628 121.385 140.2 121.385 140.856C121.385 140.904 121.381 140.96 121.373 141.024C121.373 141.088 121.369 141.148 121.361 141.204H115.949V140.376H120.761L120.293 140.664C120.301 140.256 120.217 139.892 120.041 139.572C119.865 139.252 119.621 139.004 119.309 138.828C119.005 138.644 118.649 138.552 118.241 138.552C117.841 138.552 117.485 138.644 117.173 138.828C116.861 139.004 116.617 139.256 116.441 139.584C116.265 139.904 116.177 140.272 116.177 140.688V140.88C116.177 141.304 116.273 141.684 116.465 142.02C116.665 142.348 116.941 142.604 117.293 142.788C117.645 142.972 118.049 143.064 118.505 143.064C118.881 143.064 119.221 143 119.525 142.872C119.837 142.744 120.109 142.552 120.341 142.296L120.977 143.04C120.689 143.376 120.329 143.632 119.897 143.808C119.473 143.984 118.997 144.072 118.469 144.072ZM126.381 137.58C126.901 137.58 127.357 137.68 127.749 137.88C128.149 138.08 128.461 138.384 128.685 138.792C128.909 139.2 129.021 139.716 129.021 140.34V144H127.869V140.472C127.869 139.856 127.717 139.392 127.413 139.08C127.117 138.768 126.697 138.612 126.153 138.612C125.745 138.612 125.389 138.692 125.085 138.852C124.781 139.012 124.545 139.248 124.377 139.56C124.217 139.872 124.137 140.26 124.137 140.724V144H122.985V137.64H124.089V139.356L123.909 138.9C124.117 138.484 124.437 138.16 124.869 137.928C125.301 137.696 125.805 137.58 126.381 137.58ZM137.099 144.072C136.459 144.072 135.891 143.932 135.395 143.652C134.899 143.372 134.507 142.988 134.219 142.5C133.931 142.004 133.787 141.444 133.787 140.82C133.787 140.188 133.931 139.628 134.219 139.14C134.507 138.652 134.899 138.272 135.395 138C135.891 137.72 136.459 137.58 137.099 137.58C137.731 137.58 138.295 137.72 138.791 138C139.295 138.272 139.687 138.652 139.967 139.14C140.255 139.62 140.399 140.18 140.399 140.82C140.399 141.452 140.255 142.012 139.967 142.5C139.687 142.988 139.295 143.372 138.791 143.652C138.295 143.932 137.731 144.072 137.099 144.072ZM137.099 143.064C137.507 143.064 137.871 142.972 138.191 142.788C138.519 142.604 138.775 142.344 138.959 142.008C139.143 141.664 139.235 141.268 139.235 140.82C139.235 140.364 139.143 139.972 138.959 139.644C138.775 139.308 138.519 139.048 138.191 138.864C137.871 138.68 137.507 138.588 137.099 138.588C136.691 138.588 136.327 138.68 136.007 138.864C135.687 139.048 135.431 139.308 135.239 139.644C135.047 139.972 134.951 140.364 134.951 140.82C134.951 141.268 135.047 141.664 135.239 142.008C135.431 142.344 135.687 142.604 136.007 142.788C136.327 142.972 136.691 143.064 137.099 143.064ZM144.668 144.072C144.124 144.072 143.644 143.972 143.228 143.772C142.82 143.572 142.5 143.268 142.268 142.86C142.044 142.444 141.932 141.924 141.932 141.3V137.64H143.084V141.168C143.084 141.792 143.232 142.26 143.528 142.572C143.832 142.884 144.256 143.04 144.8 143.04C145.2 143.04 145.548 142.96 145.844 142.8C146.14 142.632 146.368 142.392 146.528 142.08C146.688 141.76 146.768 141.376 146.768 140.928V137.64H147.92V144H146.828V142.284L147.008 142.74C146.8 143.164 146.488 143.492 146.072 143.724C145.656 143.956 145.188 144.072 144.668 144.072ZM152.297 144.072C151.657 144.072 151.161 143.9 150.809 143.556C150.457 143.212 150.281 142.72 150.281 142.08V136.248H151.433V142.032C151.433 142.376 151.517 142.64 151.685 142.824C151.861 143.008 152.109 143.1 152.429 143.1C152.789 143.1 153.089 143 153.329 142.8L153.689 143.628C153.513 143.78 153.301 143.892 153.053 143.964C152.813 144.036 152.561 144.072 152.297 144.072ZM149.201 138.588V137.64H153.257V138.588H149.201ZM36.3229 159.072C35.6829 159.072 35.1869 158.9 34.8349 158.556C34.4829 158.212 34.3069 157.72 34.3069 157.08V151.248H35.4589V157.032C35.4589 157.376 35.5429 157.64 35.7109 157.824C35.8869 158.008 36.1349 158.1 36.4549 158.1C36.8149 158.1 37.1149 158 37.3549 157.8L37.7149 158.628C37.5389 158.78 37.3269 158.892 37.0789 158.964C36.8389 159.036 36.5869 159.072 36.3229 159.072ZM33.2269 153.588V152.64H37.2829V153.588H33.2269ZM41.6207 159.072C40.9807 159.072 40.4127 158.932 39.9167 158.652C39.4207 158.372 39.0287 157.988 38.7407 157.5C38.4527 157.004 38.3087 156.444 38.3087 155.82C38.3087 155.188 38.4527 154.628 38.7407 154.14C39.0287 153.652 39.4207 153.272 39.9167 153C40.4127 152.72 40.9807 152.58 41.6207 152.58C42.2527 152.58 42.8167 152.72 43.3127 153C43.8167 153.272 44.2087 153.652 44.4887 154.14C44.7767 154.62 44.9207 155.18 44.9207 155.82C44.9207 156.452 44.7767 157.012 44.4887 157.5C44.2087 157.988 43.8167 158.372 43.3127 158.652C42.8167 158.932 42.2527 159.072 41.6207 159.072ZM41.6207 158.064C42.0287 158.064 42.3927 157.972 42.7127 157.788C43.0407 157.604 43.2967 157.344 43.4807 157.008C43.6647 156.664 43.7567 156.268 43.7567 155.82C43.7567 155.364 43.6647 154.972 43.4807 154.644C43.2967 154.308 43.0407 154.048 42.7127 153.864C42.3927 153.68 42.0287 153.588 41.6207 153.588C41.2127 153.588 40.8487 153.68 40.5287 153.864C40.2087 154.048 39.9527 154.308 39.7607 154.644C39.5687 154.972 39.4727 155.364 39.4727 155.82C39.4727 156.268 39.5687 156.664 39.7607 157.008C39.9527 157.344 40.2087 157.604 40.5287 157.788C40.8487 157.972 41.2127 158.064 41.6207 158.064ZM52.3645 159.072C51.7485 159.072 51.1965 158.936 50.7085 158.664C50.2285 158.392 49.8485 158.012 49.5685 157.524C49.2885 157.036 49.1485 156.468 49.1485 155.82C49.1485 155.172 49.2885 154.608 49.5685 154.128C49.8485 153.64 50.2285 153.26 50.7085 152.988C51.1965 152.716 51.7485 152.58 52.3645 152.58C52.9005 152.58 53.3845 152.7 53.8165 152.94C54.2485 153.18 54.5925 153.54 54.8485 154.02C55.1125 154.5 55.2445 155.1 55.2445 155.82C55.2445 156.54 55.1165 157.14 54.8605 157.62C54.6125 158.1 54.2725 158.464 53.8405 158.712C53.4085 158.952 52.9165 159.072 52.3645 159.072ZM52.4605 158.064C52.8605 158.064 53.2205 157.972 53.5405 157.788C53.8685 157.604 54.1245 157.344 54.3085 157.008C54.5005 156.664 54.5965 156.268 54.5965 155.82C54.5965 155.364 54.5005 154.972 54.3085 154.644C54.1245 154.308 53.8685 154.048 53.5405 153.864C53.2205 153.68 52.8605 153.588 52.4605 153.588C52.0525 153.588 51.6885 153.68 51.3685 153.864C51.0485 154.048 50.7925 154.308 50.6005 154.644C50.4085 154.972 50.3125 155.364 50.3125 155.82C50.3125 156.268 50.4085 156.664 50.6005 157.008C50.7925 157.344 51.0485 157.604 51.3685 157.788C51.6885 157.972 52.0525 158.064 52.4605 158.064ZM54.6325 159V157.284L54.7045 155.808L54.5845 154.332V150.096H55.7365V159H54.6325ZM60.7482 159.072C60.0682 159.072 59.4682 158.932 58.9482 158.652C58.4362 158.372 58.0362 157.988 57.7482 157.5C57.4682 157.012 57.3282 156.452 57.3282 155.82C57.3282 155.188 57.4642 154.628 57.7362 154.14C58.0162 153.652 58.3962 153.272 58.8762 153C59.3642 152.72 59.9122 152.58 60.5202 152.58C61.1362 152.58 61.6802 152.716 62.1522 152.988C62.6242 153.26 62.9922 153.644 63.2562 154.14C63.5282 154.628 63.6642 155.2 63.6642 155.856C63.6642 155.904 63.6602 155.96 63.6522 156.024C63.6522 156.088 63.6482 156.148 63.6402 156.204H58.2282V155.376H63.0402L62.5722 155.664C62.5802 155.256 62.4962 154.892 62.3202 154.572C62.1442 154.252 61.9002 154.004 61.5882 153.828C61.2842 153.644 60.9282 153.552 60.5202 153.552C60.1202 153.552 59.7642 153.644 59.4522 153.828C59.1402 154.004 58.8962 154.256 58.7202 154.584C58.5442 154.904 58.4562 155.272 58.4562 155.688V155.88C58.4562 156.304 58.5522 156.684 58.7442 157.02C58.9442 157.348 59.2202 157.604 59.5722 157.788C59.9242 157.972 60.3282 158.064 60.7842 158.064C61.1602 158.064 61.5002 158 61.8042 157.872C62.1162 157.744 62.3882 157.552 62.6202 157.296L63.2562 158.04C62.9682 158.376 62.6082 158.632 62.1762 158.808C61.7522 158.984 61.2762 159.072 60.7482 159.072ZM65.4319 159V152.076C65.4319 151.452 65.6119 150.956 65.9719 150.588C66.3399 150.212 66.8599 150.024 67.5319 150.024C67.7799 150.024 68.0159 150.056 68.2399 150.12C68.4719 150.176 68.6679 150.268 68.8279 150.396L68.4799 151.272C68.3599 151.176 68.2239 151.104 68.0719 151.056C67.9199 151 67.7599 150.972 67.5919 150.972C67.2559 150.972 66.9999 151.068 66.8239 151.26C66.6479 151.444 66.5599 151.72 66.5599 152.088V152.94L66.5839 153.468V159H65.4319ZM64.3519 153.588V152.64H68.4079V153.588H64.3519ZM69.4999 159V152.64H70.6519V159H69.4999ZM70.0759 151.416C69.8519 151.416 69.6639 151.344 69.5119 151.2C69.3679 151.056 69.2959 150.88 69.2959 150.672C69.2959 150.456 69.3679 150.276 69.5119 150.132C69.6639 149.988 69.8519 149.916 70.0759 149.916C70.2999 149.916 70.4839 149.988 70.6279 150.132C70.7799 150.268 70.8559 150.44 70.8559 150.648C70.8559 150.864 70.7839 151.048 70.6399 151.2C70.4959 151.344 70.3079 151.416 70.0759 151.416ZM76.2419 152.58C76.7619 152.58 77.2179 152.68 77.6099 152.88C78.0099 153.08 78.3219 153.384 78.5459 153.792C78.7699 154.2 78.8819 154.716 78.8819 155.34V159H77.7299V155.472C77.7299 154.856 77.5779 154.392 77.2739 154.08C76.9779 153.768 76.5579 153.612 76.0139 153.612C75.6059 153.612 75.2499 153.692 74.9459 153.852C74.6419 154.012 74.4059 154.248 74.2379 154.56C74.0779 154.872 73.9979 155.26 73.9979 155.724V159H72.8459V152.64H73.9499V154.356L73.7699 153.9C73.9779 153.484 74.2979 153.16 74.7299 152.928C75.1619 152.696 75.6659 152.58 76.2419 152.58ZM83.8459 159.072C83.1659 159.072 82.5659 158.932 82.0459 158.652C81.5339 158.372 81.1339 157.988 80.8459 157.5C80.5659 157.012 80.4259 156.452 80.4259 155.82C80.4259 155.188 80.5619 154.628 80.8339 154.14C81.1139 153.652 81.4939 153.272 81.9739 153C82.4619 152.72 83.0099 152.58 83.6179 152.58C84.2339 152.58 84.7779 152.716 85.2499 152.988C85.7219 153.26 86.0899 153.644 86.3539 154.14C86.6259 154.628 86.7619 155.2 86.7619 155.856C86.7619 155.904 86.7579 155.96 86.7499 156.024C86.7499 156.088 86.7459 156.148 86.7379 156.204H81.3259V155.376H86.1379L85.6699 155.664C85.6779 155.256 85.5939 154.892 85.4179 154.572C85.2419 154.252 84.9979 154.004 84.6859 153.828C84.3819 153.644 84.0259 153.552 83.6179 153.552C83.2179 153.552 82.8619 153.644 82.5499 153.828C82.2379 154.004 81.9939 154.256 81.8179 154.584C81.6419 154.904 81.5539 155.272 81.5539 155.688V155.88C81.5539 156.304 81.6499 156.684 81.8419 157.02C82.0419 157.348 82.3179 157.604 82.6699 157.788C83.0219 157.972 83.4259 158.064 83.8819 158.064C84.2579 158.064 84.5979 158 84.9019 157.872C85.2139 157.744 85.4859 157.552 85.7179 157.296L86.3539 158.04C86.0659 158.376 85.7059 158.632 85.2739 158.808C84.8499 158.984 84.3739 159.072 83.8459 159.072ZM93.7682 159.072C93.1282 159.072 92.6322 158.9 92.2802 158.556C91.9282 158.212 91.7522 157.72 91.7522 157.08V151.248H92.9042V157.032C92.9042 157.376 92.9882 157.64 93.1562 157.824C93.3322 158.008 93.5802 158.1 93.9002 158.1C94.2602 158.1 94.5602 158 94.8002 157.8L95.1602 158.628C94.9842 158.78 94.7722 158.892 94.5242 158.964C94.2842 159.036 94.0322 159.072 93.7682 159.072ZM90.6722 153.588V152.64H94.7282V153.588H90.6722ZM99.9489 152.58C100.469 152.58 100.925 152.68 101.317 152.88C101.717 153.08 102.029 153.384 102.253 153.792C102.477 154.2 102.589 154.716 102.589 155.34V159H101.437V155.472C101.437 154.856 101.285 154.392 100.981 154.08C100.685 153.768 100.265 153.612 99.7209 153.612C99.3129 153.612 98.9569 153.692 98.6529 153.852C98.3489 154.012 98.1129 154.248 97.9449 154.56C97.7849 154.872 97.7049 155.26 97.7049 155.724V159H96.5529V150.096H97.7049V154.356L97.4769 153.9C97.6849 153.484 98.0049 153.16 98.4369 152.928C98.8689 152.696 99.3729 152.58 99.9489 152.58ZM107.553 159.072C106.873 159.072 106.273 158.932 105.753 158.652C105.241 158.372 104.841 157.988 104.553 157.5C104.273 157.012 104.133 156.452 104.133 155.82C104.133 155.188 104.269 154.628 104.541 154.14C104.821 153.652 105.201 153.272 105.681 153C106.169 152.72 106.717 152.58 107.325 152.58C107.941 152.58 108.485 152.716 108.957 152.988C109.429 153.26 109.797 153.644 110.061 154.14C110.333 154.628 110.469 155.2 110.469 155.856C110.469 155.904 110.465 155.96 110.457 156.024C110.457 156.088 110.453 156.148 110.445 156.204H105.033V155.376H109.845L109.377 155.664C109.385 155.256 109.301 154.892 109.125 154.572C108.949 154.252 108.705 154.004 108.393 153.828C108.089 153.644 107.733 153.552 107.325 153.552C106.925 153.552 106.569 153.644 106.257 153.828C105.945 154.004 105.701 154.256 105.525 154.584C105.349 154.904 105.261 155.272 105.261 155.688V155.88C105.261 156.304 105.357 156.684 105.549 157.02C105.749 157.348 106.025 157.604 106.377 157.788C106.729 157.972 107.133 158.064 107.589 158.064C107.965 158.064 108.305 158 108.609 157.872C108.921 157.744 109.193 157.552 109.425 157.296L110.061 158.04C109.773 158.376 109.413 158.632 108.981 158.808C108.557 158.984 108.081 159.072 107.553 159.072ZM118.663 159.072C118.119 159.072 117.627 158.952 117.187 158.712C116.755 158.464 116.411 158.1 116.155 157.62C115.907 157.14 115.783 156.54 115.783 155.82C115.783 155.1 115.911 154.5 116.167 154.02C116.431 153.54 116.779 153.18 117.211 152.94C117.651 152.7 118.135 152.58 118.663 152.58C119.287 152.58 119.839 152.716 120.319 152.988C120.799 153.26 121.179 153.64 121.459 154.128C121.739 154.608 121.879 155.172 121.879 155.82C121.879 156.468 121.739 157.036 121.459 157.524C121.179 158.012 120.799 158.392 120.319 158.664C119.839 158.936 119.287 159.072 118.663 159.072ZM115.291 159V150.096H116.443V154.332L116.323 155.808L116.395 157.284V159H115.291ZM118.567 158.064C118.975 158.064 119.339 157.972 119.659 157.788C119.987 157.604 120.243 157.344 120.427 157.008C120.619 156.664 120.715 156.268 120.715 155.82C120.715 155.364 120.619 154.972 120.427 154.644C120.243 154.308 119.987 154.048 119.659 153.864C119.339 153.68 118.975 153.588 118.567 153.588C118.167 153.588 117.803 153.68 117.475 153.864C117.155 154.048 116.899 154.308 116.707 154.644C116.523 154.972 116.431 155.364 116.431 155.82C116.431 156.268 116.523 156.664 116.707 157.008C116.899 157.344 117.155 157.604 117.475 157.788C117.803 157.972 118.167 158.064 118.567 158.064ZM126.303 159.072C125.623 159.072 125.023 158.932 124.503 158.652C123.991 158.372 123.591 157.988 123.303 157.5C123.023 157.012 122.883 156.452 122.883 155.82C122.883 155.188 123.019 154.628 123.291 154.14C123.571 153.652 123.951 153.272 124.431 153C124.919 152.72 125.467 152.58 126.075 152.58C126.691 152.58 127.235 152.716 127.707 152.988C128.179 153.26 128.547 153.644 128.811 154.14C129.083 154.628 129.219 155.2 129.219 155.856C129.219 155.904 129.215 155.96 129.207 156.024C129.207 156.088 129.203 156.148 129.195 156.204H123.783V155.376H128.595L128.127 155.664C128.135 155.256 128.051 154.892 127.875 154.572C127.699 154.252 127.455 154.004 127.143 153.828C126.839 153.644 126.483 153.552 126.075 153.552C125.675 153.552 125.319 153.644 125.007 153.828C124.695 154.004 124.451 154.256 124.275 154.584C124.099 154.904 124.011 155.272 124.011 155.688V155.88C124.011 156.304 124.107 156.684 124.299 157.02C124.499 157.348 124.775 157.604 125.127 157.788C125.479 157.972 125.883 158.064 126.339 158.064C126.715 158.064 127.055 158 127.359 157.872C127.671 157.744 127.943 157.552 128.175 157.296L128.811 158.04C128.523 158.376 128.163 158.632 127.731 158.808C127.307 158.984 126.831 159.072 126.303 159.072ZM134.591 159V157.656L134.531 157.404V155.112C134.531 154.624 134.387 154.248 134.099 153.984C133.819 153.712 133.395 153.576 132.827 153.576C132.451 153.576 132.083 153.64 131.723 153.768C131.363 153.888 131.059 154.052 130.811 154.26L130.331 153.396C130.659 153.132 131.051 152.932 131.507 152.796C131.971 152.652 132.455 152.58 132.959 152.58C133.831 152.58 134.503 152.792 134.975 153.216C135.447 153.64 135.683 154.288 135.683 155.16V159H134.591ZM132.503 159.072C132.031 159.072 131.615 158.992 131.255 158.832C130.903 158.672 130.631 158.452 130.439 158.172C130.247 157.884 130.151 157.56 130.151 157.2C130.151 156.856 130.231 156.544 130.391 156.264C130.559 155.984 130.827 155.76 131.195 155.592C131.571 155.424 132.075 155.34 132.707 155.34H134.723V156.168H132.755C132.179 156.168 131.791 156.264 131.591 156.456C131.391 156.648 131.291 156.88 131.291 157.152C131.291 157.464 131.415 157.716 131.663 157.908C131.911 158.092 132.255 158.184 132.695 158.184C133.127 158.184 133.503 158.088 133.823 157.896C134.151 157.704 134.387 157.424 134.531 157.056L134.759 157.848C134.607 158.224 134.339 158.524 133.955 158.748C133.571 158.964 133.087 159.072 132.503 159.072ZM138.751 157.464L138.775 155.988L142.435 152.64H143.827L141.019 155.4L140.395 155.928L138.751 157.464ZM137.815 159V150.096H138.967V159H137.815ZM142.675 159L140.179 155.904L140.923 154.98L144.091 159H142.675ZM145.602 159.072C145.378 159.072 145.186 158.996 145.026 158.844C144.866 158.684 144.786 158.484 144.786 158.244C144.786 158.004 144.866 157.808 145.026 157.656C145.186 157.504 145.378 157.428 145.602 157.428C145.818 157.428 146.002 157.504 146.154 157.656C146.314 157.808 146.394 158.004 146.394 158.244C146.394 158.484 146.314 158.684 146.154 158.844C146.002 158.996 145.818 159.072 145.602 159.072Z" fill="#008E86"/>
<path d="M41 46.5L47.5 75L63.3138 72.8617L57.6569 50.9414L53.5 31L41 46.5Z" fill="#008E86" stroke="#00635D" stroke-width="2" stroke-linejoin="round"/>
<path d="M58 54.4102L81.2973 77.8211L58.1335 77.9915L58 54.4102Z" fill="#00D8CC" stroke="#00635D" stroke-width="2" stroke-linejoin="round"/>
<path d="M53.5003 31L76.7976 54.4109L76 68.9999L69 78.1627L53.7673 78.1627L45.5 48L53.5003 31Z" fill="#00D8CC" stroke="#00635D" stroke-width="2" stroke-linejoin="round"/>
<path d="M45.5 47.5L54.12 77.8101L63.3138 72.8617L57.6569 50.9414L50.5 38L45.5 47.5Z" fill="#008E86" stroke="#00635D" stroke-width="2" stroke-linejoin="round"/>
<path d="M45.5 48L76.5 31.5L53.5 31L45.5 48Z" fill="#008E86" stroke="#00635D" stroke-width="2" stroke-linejoin="round"/>
<path d="M52.707 56.0589L62.7743 72.1546L57.8245 50.9414L52.707 56.0589Z" fill="#00D8CC" stroke="#00635D" stroke-width="2" stroke-linejoin="round"/>
<path d="M52.7075 56.0586L62.7748 72.1543L67.0174 64.3761L52.7075 56.0586Z" fill="#008E86" stroke="#00635D" stroke-width="2" stroke-linejoin="round"/>
<path d="M62 28L66 41" stroke="#333333" stroke-width="2" stroke-dasharray="4 4"/>
<path d="M54.8572 22.62C54.3108 22.7001 53.9327 23.208 54.0128 23.7545C54.0929 24.3009 54.6008 24.679 55.1473 24.5989L54.8572 22.62ZM89.1606 22.4927C89.4904 22.0497 89.3986 21.4232 88.9556 21.0934L81.736 15.7196C81.293 15.3899 80.6665 15.4817 80.3367 15.9247C80.007 16.3677 80.0988 16.9942 80.5418 17.324L86.9592 22.1007L82.1825 28.5181C81.8527 28.9611 81.9445 29.5876 82.3876 29.9174C82.8306 30.2471 83.4571 30.1553 83.7868 29.7123L89.1606 22.4927ZM72.5202 21.042L73.2238 21.7527C73.5308 21.4487 73.6079 20.982 73.415 20.5954C73.2221 20.2089 72.8027 19.9899 72.3752 20.0526L72.5202 21.042ZM69.1727 24.7076L68.4692 23.9969C68.1622 24.3008 68.085 24.7676 68.278 25.1541C68.4709 25.5407 68.8903 25.7596 69.3177 25.697L69.1727 24.7076ZM55.1473 24.5989C58.6399 24.087 66.3619 22.9553 72.6653 22.0314L72.3752 20.0526C66.0718 20.9764 58.3499 22.1081 54.8572 22.62L55.1473 24.5989ZM71.8167 20.3313C70.8405 21.2978 70.5261 21.7021 70.1811 22.1363C69.8799 22.5155 69.5404 22.9365 68.4692 23.9969L69.8762 25.4182C71.0011 24.3047 71.3941 23.8247 71.7471 23.3803C72.0564 22.9911 72.3177 22.6496 73.2238 21.7527L71.8167 20.3313ZM69.3177 25.697C73.0715 25.1468 85.6538 23.3027 88.5035 22.885L88.2135 20.9062C85.3637 21.3238 72.7815 23.168 69.0277 23.7181L69.3177 25.697Z" fill="black"/>
<g clip-path="url(#clip0_18_469)">
<path d="M155 51L125 60L138.5 59.5L155 51Z" fill="#008E86" stroke="#00635D" stroke-width="2" stroke-linejoin="round"/>
<path d="M117.57 37L160 80.1856L158.547 107.098L145.799 124L118.057 124L103 68.3595L117.57 37Z" fill="#00D8CC" stroke="#00635D" stroke-width="2" stroke-linejoin="round"/>
<path d="M142 52.5L131 53.4706L132 37.5L142 52.5Z" fill="#008E86" stroke="#00635D" stroke-width="2" stroke-linejoin="round"/>
<path d="M155.5 51L125 60L133 48L155.5 51Z" fill="#008E86" stroke="#00635D" stroke-width="2" stroke-linejoin="round"/>
<path d="M117.452 69.5L134.5 53.5L132 37.5L117.452 37L117.452 69.5Z" fill="#008E86" stroke="#00635D" stroke-width="2" stroke-linejoin="round"/>
<path d="M103 67.4202L118.485 123L135 113.926L124.838 73.7308L111.982 50L103 67.4202Z" fill="#008E86" stroke="#00635D" stroke-width="2" stroke-linejoin="round"/>
<path d="M103 69L134.5 54L132 37.5L117.452 37L103 69Z" fill="#008E86" stroke="#00635D" stroke-width="2" stroke-linejoin="round"/>
</g>
<rect x="100.612" y="21.6118" width="58.7763" height="58.7763" rx="29.3882" stroke="#333333" stroke-width="1.22369"/>
<path d="M66 27L69.2773 40" stroke="#333333" stroke-width="2" stroke-dasharray="4 4"/>
<defs>
<clipPath id="clip0_18_469">
<rect x="100" y="21" width="60" height="60" rx="30" fill="white"/>
</clipPath>
</defs>
</svg>
