<svg width="180" height="180" viewBox="0 0 180 180" fill="none" xmlns="http://www.w3.org/2000/svg">
<rect width="180" height="180" rx="20" fill="#F2F2F2"/>
<path d="M32.4338 124.572H36.7658V125.604H32.4338V124.572ZM32.5538 129H31.3538V120.6H37.2818V121.644H32.5538V129ZM41.3277 129.072C40.6877 129.072 40.1197 128.932 39.6237 128.652C39.1277 128.372 38.7357 127.988 38.4477 127.5C38.1597 127.004 38.0157 126.444 38.0157 125.82C38.0157 125.188 38.1597 124.628 38.4477 124.14C38.7357 123.652 39.1277 123.272 39.6237 123C40.1197 122.72 40.6877 122.58 41.3277 122.58C41.9597 122.58 42.5237 122.72 43.0197 123C43.5237 123.272 43.9157 123.652 44.1957 124.14C44.4837 124.62 44.6277 125.18 44.6277 125.82C44.6277 126.452 44.4837 127.012 44.1957 127.5C43.9157 127.988 43.5237 128.372 43.0197 128.652C42.5237 128.932 41.9597 129.072 41.3277 129.072ZM41.3277 128.064C41.7357 128.064 42.0997 127.972 42.4197 127.788C42.7477 127.604 43.0037 127.344 43.1877 127.008C43.3717 126.664 43.4637 126.268 43.4637 125.82C43.4637 125.364 43.3717 124.972 43.1877 124.644C43.0037 124.308 42.7477 124.048 42.4197 123.864C42.0997 123.68 41.7357 123.588 41.3277 123.588C40.9197 123.588 40.5557 123.68 40.2357 123.864C39.9157 124.048 39.6597 124.308 39.4677 124.644C39.2757 124.972 39.1797 125.364 39.1797 125.82C39.1797 126.268 39.2757 126.664 39.4677 127.008C39.6597 127.344 39.9157 127.604 40.2357 127.788C40.5557 127.972 40.9197 128.064 41.3277 128.064ZM46.2209 129V120.096H47.3729V129H46.2209ZM52.2005 129.072C51.5845 129.072 51.0325 128.936 50.5445 128.664C50.0645 128.392 49.6845 128.012 49.4045 127.524C49.1245 127.036 48.9845 126.468 48.9845 125.82C48.9845 125.172 49.1245 124.608 49.4045 124.128C49.6845 123.64 50.0645 123.26 50.5445 122.988C51.0325 122.716 51.5845 122.58 52.2005 122.58C52.7365 122.58 53.2205 122.7 53.6525 122.94C54.0845 123.18 54.4285 123.54 54.6845 124.02C54.9485 124.5 55.0805 125.1 55.0805 125.82C55.0805 126.54 54.9525 127.14 54.6965 127.62C54.4485 128.1 54.1085 128.464 53.6765 128.712C53.2445 128.952 52.7525 129.072 52.2005 129.072ZM52.2965 128.064C52.6965 128.064 53.0565 127.972 53.3765 127.788C53.7045 127.604 53.9605 127.344 54.1445 127.008C54.3365 126.664 54.4325 126.268 54.4325 125.82C54.4325 125.364 54.3365 124.972 54.1445 124.644C53.9605 124.308 53.7045 124.048 53.3765 123.864C53.0565 123.68 52.6965 123.588 52.2965 123.588C51.8885 123.588 51.5245 123.68 51.2045 123.864C50.8845 124.048 50.6285 124.308 50.4365 124.644C50.2445 124.972 50.1485 125.364 50.1485 125.82C50.1485 126.268 50.2445 126.664 50.4365 127.008C50.6285 127.344 50.8845 127.604 51.2045 127.788C51.5245 127.972 51.8885 128.064 52.2965 128.064ZM54.4685 129V127.284L54.5405 125.808L54.4205 124.332V120.096H55.5725V129H54.4685ZM64.9228 129V127.656L64.8628 127.404V125.112C64.8628 124.624 64.7188 124.248 64.4308 123.984C64.1508 123.712 63.7268 123.576 63.1588 123.576C62.7828 123.576 62.4148 123.64 62.0548 123.768C61.6948 123.888 61.3908 124.052 61.1428 124.26L60.6628 123.396C60.9908 123.132 61.3828 122.932 61.8388 122.796C62.3028 122.652 62.7868 122.58 63.2908 122.58C64.1628 122.58 64.8348 122.792 65.3068 123.216C65.7788 123.64 66.0148 124.288 66.0148 125.16V129H64.9228ZM62.8348 129.072C62.3628 129.072 61.9468 128.992 61.5868 128.832C61.2348 128.672 60.9628 128.452 60.7708 128.172C60.5788 127.884 60.4828 127.56 60.4828 127.2C60.4828 126.856 60.5628 126.544 60.7228 126.264C60.8908 125.984 61.1588 125.76 61.5268 125.592C61.9028 125.424 62.4068 125.34 63.0388 125.34H65.0548V126.168H63.0868C62.5108 126.168 62.1228 126.264 61.9228 126.456C61.7228 126.648 61.6228 126.88 61.6228 127.152C61.6228 127.464 61.7468 127.716 61.9948 127.908C62.2428 128.092 62.5868 128.184 63.0268 128.184C63.4588 128.184 63.8348 128.088 64.1548 127.896C64.4828 127.704 64.7188 127.424 64.8628 127.056L65.0908 127.848C64.9388 128.224 64.6708 128.524 64.2868 128.748C63.9028 128.964 63.4188 129.072 62.8348 129.072ZM71.5427 122.58C72.0627 122.58 72.5187 122.68 72.9107 122.88C73.3107 123.08 73.6227 123.384 73.8467 123.792C74.0707 124.2 74.1827 124.716 74.1827 125.34V129H73.0307V125.472C73.0307 124.856 72.8787 124.392 72.5747 124.08C72.2787 123.768 71.8587 123.612 71.3147 123.612C70.9067 123.612 70.5507 123.692 70.2467 123.852C69.9427 124.012 69.7067 124.248 69.5387 124.56C69.3787 124.872 69.2987 125.26 69.2987 125.724V129H68.1467V122.64H69.2507V124.356L69.0707 123.9C69.2787 123.484 69.5987 123.16 70.0307 122.928C70.4627 122.696 70.9667 122.58 71.5427 122.58ZM78.9427 129.072C78.3267 129.072 77.7747 128.936 77.2867 128.664C76.8067 128.392 76.4267 128.012 76.1467 127.524C75.8667 127.036 75.7267 126.468 75.7267 125.82C75.7267 125.172 75.8667 124.608 76.1467 124.128C76.4267 123.64 76.8067 123.26 77.2867 122.988C77.7747 122.716 78.3267 122.58 78.9427 122.58C79.4787 122.58 79.9627 122.7 80.3947 122.94C80.8267 123.18 81.1707 123.54 81.4267 124.02C81.6907 124.5 81.8227 125.1 81.8227 125.82C81.8227 126.54 81.6947 127.14 81.4387 127.62C81.1907 128.1 80.8507 128.464 80.4187 128.712C79.9867 128.952 79.4947 129.072 78.9427 129.072ZM79.0387 128.064C79.4387 128.064 79.7987 127.972 80.1187 127.788C80.4467 127.604 80.7027 127.344 80.8867 127.008C81.0787 126.664 81.1747 126.268 81.1747 125.82C81.1747 125.364 81.0787 124.972 80.8867 124.644C80.7027 124.308 80.4467 124.048 80.1187 123.864C79.7987 123.68 79.4387 123.588 79.0387 123.588C78.6307 123.588 78.2667 123.68 77.9467 123.864C77.6267 124.048 77.3707 124.308 77.1787 124.644C76.9867 124.972 76.8907 125.364 76.8907 125.82C76.8907 126.268 76.9867 126.664 77.1787 127.008C77.3707 127.344 77.6267 127.604 77.9467 127.788C78.2667 127.972 78.6307 128.064 79.0387 128.064ZM81.2107 129V127.284L81.2827 125.808L81.1627 124.332V120.096H82.3147V129H81.2107ZM90.393 129.072C89.849 129.072 89.369 128.972 88.953 128.772C88.545 128.572 88.225 128.268 87.993 127.86C87.769 127.444 87.657 126.924 87.657 126.3V122.64H88.809V126.168C88.809 126.792 88.957 127.26 89.253 127.572C89.557 127.884 89.981 128.04 90.525 128.04C90.925 128.04 91.273 127.96 91.569 127.8C91.865 127.632 92.093 127.392 92.253 127.08C92.413 126.76 92.493 126.376 92.493 125.928V122.64H93.645V129H92.553V127.284L92.733 127.74C92.525 128.164 92.213 128.492 91.797 128.724C91.381 128.956 90.913 129.072 90.393 129.072ZM99.2341 122.58C99.7541 122.58 100.21 122.68 100.602 122.88C101.002 123.08 101.314 123.384 101.538 123.792C101.762 124.2 101.874 124.716 101.874 125.34V129H100.722V125.472C100.722 124.856 100.57 124.392 100.266 124.08C99.9701 123.768 99.5501 123.612 99.0061 123.612C98.5981 123.612 98.2421 123.692 97.9381 123.852C97.6341 124.012 97.3981 124.248 97.2301 124.56C97.0701 124.872 96.9901 125.26 96.9901 125.724V129H95.8381V122.64H96.9421V124.356L96.7621 123.9C96.9701 123.484 97.2901 123.16 97.7221 122.928C98.1541 122.696 98.6581 122.58 99.2341 122.58ZM104.174 129V122.076C104.174 121.452 104.354 120.956 104.714 120.588C105.082 120.212 105.602 120.024 106.274 120.024C106.522 120.024 106.758 120.056 106.982 120.12C107.214 120.176 107.41 120.268 107.57 120.396L107.222 121.272C107.102 121.176 106.966 121.104 106.814 121.056C106.662 121 106.502 120.972 106.334 120.972C105.998 120.972 105.742 121.068 105.566 121.26C105.39 121.444 105.302 121.72 105.302 122.088V122.94L105.326 123.468V129H104.174ZM103.094 123.588V122.64H107.15V123.588H103.094ZM110.867 129.072C110.227 129.072 109.659 128.932 109.163 128.652C108.667 128.372 108.275 127.988 107.987 127.5C107.699 127.004 107.555 126.444 107.555 125.82C107.555 125.188 107.699 124.628 107.987 124.14C108.275 123.652 108.667 123.272 109.163 123C109.659 122.72 110.227 122.58 110.867 122.58C111.499 122.58 112.063 122.72 112.559 123C113.063 123.272 113.455 123.652 113.735 124.14C114.023 124.62 114.167 125.18 114.167 125.82C114.167 126.452 114.023 127.012 113.735 127.5C113.455 127.988 113.063 128.372 112.559 128.652C112.063 128.932 111.499 129.072 110.867 129.072ZM110.867 128.064C111.275 128.064 111.639 127.972 111.959 127.788C112.287 127.604 112.543 127.344 112.727 127.008C112.911 126.664 113.003 126.268 113.003 125.82C113.003 125.364 112.911 124.972 112.727 124.644C112.543 124.308 112.287 124.048 111.959 123.864C111.639 123.68 111.275 123.588 110.867 123.588C110.459 123.588 110.095 123.68 109.775 123.864C109.455 124.048 109.199 124.308 109.007 124.644C108.815 124.972 108.719 125.364 108.719 125.82C108.719 126.268 108.815 126.664 109.007 127.008C109.199 127.344 109.455 127.604 109.775 127.788C110.095 127.972 110.459 128.064 110.867 128.064ZM115.76 129V120.096H116.912V129H115.76ZM121.74 129.072C121.124 129.072 120.572 128.936 120.084 128.664C119.604 128.392 119.224 128.012 118.944 127.524C118.664 127.036 118.524 126.468 118.524 125.82C118.524 125.172 118.664 124.608 118.944 124.128C119.224 123.64 119.604 123.26 120.084 122.988C120.572 122.716 121.124 122.58 121.74 122.58C122.276 122.58 122.76 122.7 123.192 122.94C123.624 123.18 123.968 123.54 124.224 124.02C124.488 124.5 124.62 125.1 124.62 125.82C124.62 126.54 124.492 127.14 124.236 127.62C123.988 128.1 123.648 128.464 123.216 128.712C122.784 128.952 122.292 129.072 121.74 129.072ZM121.836 128.064C122.236 128.064 122.596 127.972 122.916 127.788C123.244 127.604 123.5 127.344 123.684 127.008C123.876 126.664 123.972 126.268 123.972 125.82C123.972 125.364 123.876 124.972 123.684 124.644C123.5 124.308 123.244 124.048 122.916 123.864C122.596 123.68 122.236 123.588 121.836 123.588C121.428 123.588 121.064 123.68 120.744 123.864C120.424 124.048 120.168 124.308 119.976 124.644C119.784 124.972 119.688 125.364 119.688 125.82C119.688 126.268 119.784 126.664 119.976 127.008C120.168 127.344 120.424 127.604 120.744 127.788C121.064 127.972 121.428 128.064 121.836 128.064ZM124.008 129V127.284L124.08 125.808L123.96 124.332V120.096H125.112V129H124.008ZM132.698 129.072C132.058 129.072 131.562 128.9 131.21 128.556C130.858 128.212 130.682 127.72 130.682 127.08V121.248H131.834V127.032C131.834 127.376 131.918 127.64 132.086 127.824C132.262 128.008 132.51 128.1 132.83 128.1C133.19 128.1 133.49 128 133.73 127.8L134.09 128.628C133.914 128.78 133.702 128.892 133.454 128.964C133.214 129.036 132.962 129.072 132.698 129.072ZM129.602 123.588V122.64H133.658V123.588H129.602ZM138.879 122.58C139.399 122.58 139.855 122.68 140.247 122.88C140.647 123.08 140.959 123.384 141.183 123.792C141.407 124.2 141.519 124.716 141.519 125.34V129H140.367V125.472C140.367 124.856 140.215 124.392 139.911 124.08C139.615 123.768 139.195 123.612 138.651 123.612C138.243 123.612 137.887 123.692 137.583 123.852C137.279 124.012 137.043 124.248 136.875 124.56C136.715 124.872 136.635 125.26 136.635 125.724V129H135.483V120.096H136.635V124.356L136.407 123.9C136.615 123.484 136.935 123.16 137.367 122.928C137.799 122.696 138.303 122.58 138.879 122.58ZM146.483 129.072C145.803 129.072 145.203 128.932 144.683 128.652C144.171 128.372 143.771 127.988 143.483 127.5C143.203 127.012 143.063 126.452 143.063 125.82C143.063 125.188 143.199 124.628 143.471 124.14C143.751 123.652 144.131 123.272 144.611 123C145.099 122.72 145.647 122.58 146.255 122.58C146.871 122.58 147.415 122.716 147.887 122.988C148.359 123.26 148.727 123.644 148.991 124.14C149.263 124.628 149.399 125.2 149.399 125.856C149.399 125.904 149.395 125.96 149.387 126.024C149.387 126.088 149.383 126.148 149.375 126.204H143.963V125.376H148.775L148.307 125.664C148.315 125.256 148.231 124.892 148.055 124.572C147.879 124.252 147.635 124.004 147.323 123.828C147.019 123.644 146.663 123.552 146.255 123.552C145.855 123.552 145.499 123.644 145.187 123.828C144.875 124.004 144.631 124.256 144.455 124.584C144.279 124.904 144.191 125.272 144.191 125.688V125.88C144.191 126.304 144.287 126.684 144.479 127.02C144.679 127.348 144.955 127.604 145.307 127.788C145.659 127.972 146.063 128.064 146.519 128.064C146.895 128.064 147.235 128 147.539 127.872C147.851 127.744 148.123 127.552 148.355 127.296L148.991 128.04C148.703 128.376 148.343 128.632 147.911 128.808C147.487 128.984 147.011 129.072 146.483 129.072ZM28.0304 144.072C27.5024 144.072 27.0184 143.952 26.5784 143.712C26.1464 143.464 25.7984 143.1 25.5344 142.62C25.2784 142.14 25.1504 141.54 25.1504 140.82C25.1504 140.1 25.2744 139.5 25.5224 139.02C25.7784 138.54 26.1224 138.18 26.5544 137.94C26.9944 137.7 27.4864 137.58 28.0304 137.58C28.6544 137.58 29.2064 137.716 29.6864 137.988C30.1664 138.26 30.5464 138.64 30.8264 139.128C31.1064 139.608 31.2464 140.172 31.2464 140.82C31.2464 141.468 31.1064 142.036 30.8264 142.524C30.5464 143.012 30.1664 143.392 29.6864 143.664C29.2064 143.936 28.6544 144.072 28.0304 144.072ZM24.6584 146.328V137.64H25.7624V139.356L25.6904 140.832L25.8104 142.308V146.328H24.6584ZM27.9344 143.064C28.3424 143.064 28.7064 142.972 29.0264 142.788C29.3544 142.604 29.6104 142.344 29.7944 142.008C29.9864 141.664 30.0824 141.268 30.0824 140.82C30.0824 140.364 29.9864 139.972 29.7944 139.644C29.6104 139.308 29.3544 139.048 29.0264 138.864C28.7064 138.68 28.3424 138.588 27.9344 138.588C27.5344 138.588 27.1704 138.68 26.8424 138.864C26.5224 139.048 26.2664 139.308 26.0744 139.644C25.8904 139.972 25.7984 140.364 25.7984 140.82C25.7984 141.268 25.8904 141.664 26.0744 142.008C26.2664 142.344 26.5224 142.604 26.8424 142.788C27.1704 142.972 27.5344 143.064 27.9344 143.064ZM36.7275 144V142.656L36.6675 142.404V140.112C36.6675 139.624 36.5235 139.248 36.2355 138.984C35.9555 138.712 35.5315 138.576 34.9635 138.576C34.5875 138.576 34.2195 138.64 33.8595 138.768C33.4995 138.888 33.1955 139.052 32.9475 139.26L32.4675 138.396C32.7955 138.132 33.1875 137.932 33.6435 137.796C34.1075 137.652 34.5915 137.58 35.0955 137.58C35.9675 137.58 36.6395 137.792 37.1115 138.216C37.5835 138.64 37.8195 139.288 37.8195 140.16V144H36.7275ZM34.6395 144.072C34.1675 144.072 33.7515 143.992 33.3915 143.832C33.0395 143.672 32.7675 143.452 32.5755 143.172C32.3835 142.884 32.2875 142.56 32.2875 142.2C32.2875 141.856 32.3675 141.544 32.5275 141.264C32.6955 140.984 32.9635 140.76 33.3315 140.592C33.7075 140.424 34.2115 140.34 34.8435 140.34H36.8595V141.168H34.8915C34.3155 141.168 33.9275 141.264 33.7275 141.456C33.5275 141.648 33.4275 141.88 33.4275 142.152C33.4275 142.464 33.5515 142.716 33.7995 142.908C34.0475 143.092 34.3915 143.184 34.8315 143.184C35.2635 143.184 35.6395 143.088 35.9595 142.896C36.2875 142.704 36.5235 142.424 36.6675 142.056L36.8955 142.848C36.7435 143.224 36.4755 143.524 36.0915 143.748C35.7075 143.964 35.2235 144.072 34.6395 144.072ZM43.3234 144.072C42.7954 144.072 42.3114 143.952 41.8714 143.712C41.4394 143.464 41.0914 143.1 40.8274 142.62C40.5714 142.14 40.4434 141.54 40.4434 140.82C40.4434 140.1 40.5674 139.5 40.8154 139.02C41.0714 138.54 41.4154 138.18 41.8474 137.94C42.2874 137.7 42.7794 137.58 43.3234 137.58C43.9474 137.58 44.4994 137.716 44.9794 137.988C45.4594 138.26 45.8394 138.64 46.1194 139.128C46.3994 139.608 46.5394 140.172 46.5394 140.82C46.5394 141.468 46.3994 142.036 46.1194 142.524C45.8394 143.012 45.4594 143.392 44.9794 143.664C44.4994 143.936 43.9474 144.072 43.3234 144.072ZM39.9514 146.328V137.64H41.0554V139.356L40.9834 140.832L41.1034 142.308V146.328H39.9514ZM43.2274 143.064C43.6354 143.064 43.9994 142.972 44.3194 142.788C44.6474 142.604 44.9034 142.344 45.0874 142.008C45.2794 141.664 45.3754 141.268 45.3754 140.82C45.3754 140.364 45.2794 139.972 45.0874 139.644C44.9034 139.308 44.6474 139.048 44.3194 138.864C43.9994 138.68 43.6354 138.588 43.2274 138.588C42.8274 138.588 42.4634 138.68 42.1354 138.864C41.8154 139.048 41.5594 139.308 41.3674 139.644C41.1834 139.972 41.0914 140.364 41.0914 140.82C41.0914 141.268 41.1834 141.664 41.3674 142.008C41.5594 142.344 41.8154 142.604 42.1354 142.788C42.4634 142.972 42.8274 143.064 43.2274 143.064ZM50.9631 144.072C50.2831 144.072 49.6831 143.932 49.1631 143.652C48.6511 143.372 48.2511 142.988 47.9631 142.5C47.6831 142.012 47.5431 141.452 47.5431 140.82C47.5431 140.188 47.6791 139.628 47.9511 139.14C48.2311 138.652 48.6111 138.272 49.0911 138C49.5791 137.72 50.1271 137.58 50.7351 137.58C51.3511 137.58 51.8951 137.716 52.3671 137.988C52.8391 138.26 53.2071 138.644 53.4711 139.14C53.7431 139.628 53.8791 140.2 53.8791 140.856C53.8791 140.904 53.8751 140.96 53.8671 141.024C53.8671 141.088 53.8631 141.148 53.8551 141.204H48.4431V140.376H53.2551L52.7871 140.664C52.7951 140.256 52.7111 139.892 52.5351 139.572C52.3591 139.252 52.1151 139.004 51.8031 138.828C51.4991 138.644 51.1431 138.552 50.7351 138.552C50.3351 138.552 49.9791 138.644 49.6671 138.828C49.3551 139.004 49.1111 139.256 48.9351 139.584C48.7591 139.904 48.6711 140.272 48.6711 140.688V140.88C48.6711 141.304 48.7671 141.684 48.9591 142.02C49.1591 142.348 49.4351 142.604 49.7871 142.788C50.1391 142.972 50.5431 143.064 50.9991 143.064C51.3751 143.064 51.7151 143 52.0191 142.872C52.3311 142.744 52.6031 142.552 52.8351 142.296L53.4711 143.04C53.1831 143.376 52.8231 143.632 52.3911 143.808C51.9671 143.984 51.4911 144.072 50.9631 144.072ZM55.4787 144V137.64H56.5827V139.368L56.4747 138.936C56.6507 138.496 56.9467 138.16 57.3627 137.928C57.7787 137.696 58.2907 137.58 58.8987 137.58V138.696C58.8507 138.688 58.8027 138.684 58.7547 138.684C58.7147 138.684 58.6747 138.684 58.6347 138.684C58.0187 138.684 57.5307 138.868 57.1707 139.236C56.8107 139.604 56.6307 140.136 56.6307 140.832V144H55.4787ZM63.6233 144V137.64H64.7753V144H63.6233ZM64.1993 136.416C63.9753 136.416 63.7873 136.344 63.6353 136.2C63.4913 136.056 63.4193 135.88 63.4193 135.672C63.4193 135.456 63.4913 135.276 63.6353 135.132C63.7873 134.988 63.9753 134.916 64.1993 134.916C64.4233 134.916 64.6073 134.988 64.7513 135.132C64.9033 135.268 64.9793 135.44 64.9793 135.648C64.9793 135.864 64.9073 136.048 64.7633 136.2C64.6193 136.344 64.4313 136.416 64.1993 136.416ZM70.3708 137.58C70.8908 137.58 71.3468 137.68 71.7388 137.88C72.1388 138.08 72.4508 138.384 72.6748 138.792C72.8988 139.2 73.0108 139.716 73.0108 140.34V144H71.8588V140.472C71.8588 139.856 71.7068 139.392 71.4028 139.08C71.1068 138.768 70.6868 138.612 70.1428 138.612C69.7348 138.612 69.3788 138.692 69.0748 138.852C68.7708 139.012 68.5348 139.248 68.3668 139.56C68.2068 139.872 68.1268 140.26 68.1268 140.724V144H66.9748V137.64H68.0788V139.356L67.8988 138.9C68.1068 138.484 68.4268 138.16 68.8588 137.928C69.2908 137.696 69.7948 137.58 70.3708 137.58ZM81.7614 137.58C82.2814 137.58 82.7374 137.68 83.1294 137.88C83.5294 138.08 83.8414 138.384 84.0654 138.792C84.2894 139.2 84.4014 139.716 84.4014 140.34V144H83.2494V140.472C83.2494 139.856 83.0974 139.392 82.7934 139.08C82.4974 138.768 82.0774 138.612 81.5334 138.612C81.1254 138.612 80.7694 138.692 80.4654 138.852C80.1614 139.012 79.9254 139.248 79.7574 139.56C79.5974 139.872 79.5174 140.26 79.5174 140.724V144H78.3654V135.096H79.5174V139.356L79.2894 138.9C79.4974 138.484 79.8174 138.16 80.2494 137.928C80.6814 137.696 81.1854 137.58 81.7614 137.58ZM90.4814 144V142.656L90.4214 142.404V140.112C90.4214 139.624 90.2774 139.248 89.9894 138.984C89.7094 138.712 89.2854 138.576 88.7174 138.576C88.3414 138.576 87.9734 138.64 87.6134 138.768C87.2534 138.888 86.9494 139.052 86.7014 139.26L86.2214 138.396C86.5494 138.132 86.9414 137.932 87.3974 137.796C87.8614 137.652 88.3454 137.58 88.8494 137.58C89.7214 137.58 90.3934 137.792 90.8654 138.216C91.3374 138.64 91.5734 139.288 91.5734 140.16V144H90.4814ZM88.3934 144.072C87.9214 144.072 87.5054 143.992 87.1454 143.832C86.7934 143.672 86.5214 143.452 86.3294 143.172C86.1374 142.884 86.0414 142.56 86.0414 142.2C86.0414 141.856 86.1214 141.544 86.2814 141.264C86.4494 140.984 86.7174 140.76 87.0854 140.592C87.4614 140.424 87.9654 140.34 88.5974 140.34H90.6134V141.168H88.6454C88.0694 141.168 87.6814 141.264 87.4814 141.456C87.2814 141.648 87.1814 141.88 87.1814 142.152C87.1814 142.464 87.3054 142.716 87.5534 142.908C87.8014 143.092 88.1454 143.184 88.5854 143.184C89.0174 143.184 89.3934 143.088 89.7134 142.896C90.0414 142.704 90.2774 142.424 90.4214 142.056L90.6494 142.848C90.4974 143.224 90.2294 143.524 89.8454 143.748C89.4614 143.964 88.9774 144.072 88.3934 144.072ZM93.7053 144V135.096H94.8573V144H93.7053ZM97.2248 144V137.076C97.2248 136.452 97.4048 135.956 97.7648 135.588C98.1328 135.212 98.6528 135.024 99.3248 135.024C99.5728 135.024 99.8088 135.056 100.033 135.12C100.265 135.176 100.461 135.268 100.621 135.396L100.273 136.272C100.153 136.176 100.017 136.104 99.8648 136.056C99.7128 136 99.5528 135.972 99.3848 135.972C99.0488 135.972 98.7928 136.068 98.6168 136.26C98.4408 136.444 98.3528 136.72 98.3528 137.088V137.94L98.3768 138.468V144H97.2248ZM96.1448 138.588V137.64H100.201V138.588H96.1448ZM104.678 144V137.076C104.678 136.452 104.858 135.956 105.218 135.588C105.586 135.212 106.106 135.024 106.778 135.024C107.026 135.024 107.262 135.056 107.486 135.12C107.718 135.176 107.914 135.268 108.074 135.396L107.726 136.272C107.606 136.176 107.47 136.104 107.318 136.056C107.166 136 107.006 135.972 106.838 135.972C106.502 135.972 106.246 136.068 106.07 136.26C105.894 136.444 105.806 136.72 105.806 137.088V137.94L105.83 138.468V144H104.678ZM103.598 138.588V137.64H107.654V138.588H103.598ZM108.74 144V137.64H109.844V139.368L109.736 138.936C109.912 138.496 110.208 138.16 110.624 137.928C111.04 137.696 111.552 137.58 112.16 137.58V138.696C112.112 138.688 112.064 138.684 112.016 138.684C111.976 138.684 111.936 138.684 111.896 138.684C111.28 138.684 110.792 138.868 110.432 139.236C110.072 139.604 109.892 140.136 109.892 140.832V144H108.74ZM116.246 144.072C115.606 144.072 115.038 143.932 114.542 143.652C114.046 143.372 113.654 142.988 113.366 142.5C113.078 142.004 112.934 141.444 112.934 140.82C112.934 140.188 113.078 139.628 113.366 139.14C113.654 138.652 114.046 138.272 114.542 138C115.038 137.72 115.606 137.58 116.246 137.58C116.878 137.58 117.442 137.72 117.938 138C118.442 138.272 118.834 138.652 119.114 139.14C119.402 139.62 119.546 140.18 119.546 140.82C119.546 141.452 119.402 142.012 119.114 142.5C118.834 142.988 118.442 143.372 117.938 143.652C117.442 143.932 116.878 144.072 116.246 144.072ZM116.246 143.064C116.654 143.064 117.018 142.972 117.338 142.788C117.666 142.604 117.922 142.344 118.106 142.008C118.29 141.664 118.382 141.268 118.382 140.82C118.382 140.364 118.29 139.972 118.106 139.644C117.922 139.308 117.666 139.048 117.338 138.864C117.018 138.68 116.654 138.588 116.246 138.588C115.838 138.588 115.474 138.68 115.154 138.864C114.834 139.048 114.578 139.308 114.386 139.644C114.194 139.972 114.098 140.364 114.098 140.82C114.098 141.268 114.194 141.664 114.386 142.008C114.578 142.344 114.834 142.604 115.154 142.788C115.474 142.972 115.838 143.064 116.246 143.064ZM129.095 137.58C129.607 137.58 130.059 137.68 130.451 137.88C130.843 138.08 131.147 138.384 131.363 138.792C131.587 139.2 131.699 139.716 131.699 140.34V144H130.547V140.472C130.547 139.856 130.403 139.392 130.115 139.08C129.827 138.768 129.423 138.612 128.903 138.612C128.519 138.612 128.183 138.692 127.895 138.852C127.607 139.012 127.383 139.248 127.223 139.56C127.071 139.872 126.995 140.26 126.995 140.724V144H125.843V140.472C125.843 139.856 125.699 139.392 125.411 139.08C125.131 138.768 124.727 138.612 124.199 138.612C123.823 138.612 123.491 138.692 123.203 138.852C122.915 139.012 122.691 139.248 122.531 139.56C122.371 139.872 122.291 140.26 122.291 140.724V144H121.139V137.64H122.243V139.332L122.063 138.9C122.263 138.484 122.571 138.16 122.987 137.928C123.403 137.696 123.887 137.58 124.439 137.58C125.047 137.58 125.571 137.732 126.011 138.036C126.451 138.332 126.739 138.784 126.875 139.392L126.407 139.2C126.599 138.712 126.935 138.32 127.415 138.024C127.895 137.728 128.455 137.58 129.095 137.58ZM139.225 144.072C138.585 144.072 138.089 143.9 137.737 143.556C137.385 143.212 137.209 142.72 137.209 142.08V136.248H138.361V142.032C138.361 142.376 138.445 142.64 138.613 142.824C138.789 143.008 139.037 143.1 139.357 143.1C139.717 143.1 140.017 143 140.257 142.8L140.617 143.628C140.441 143.78 140.229 143.892 139.981 143.964C139.741 144.036 139.489 144.072 139.225 144.072ZM136.129 138.588V137.64H140.185V138.588H136.129ZM145.406 137.58C145.926 137.58 146.382 137.68 146.774 137.88C147.174 138.08 147.486 138.384 147.71 138.792C147.934 139.2 148.046 139.716 148.046 140.34V144H146.894V140.472C146.894 139.856 146.742 139.392 146.438 139.08C146.142 138.768 145.722 138.612 145.178 138.612C144.77 138.612 144.414 138.692 144.11 138.852C143.806 139.012 143.57 139.248 143.402 139.56C143.242 139.872 143.162 140.26 143.162 140.724V144H142.01V135.096H143.162V139.356L142.934 138.9C143.142 138.484 143.462 138.16 143.894 137.928C144.326 137.696 144.83 137.58 145.406 137.58ZM153.01 144.072C152.33 144.072 151.73 143.932 151.21 143.652C150.698 143.372 150.298 142.988 150.01 142.5C149.73 142.012 149.59 141.452 149.59 140.82C149.59 140.188 149.726 139.628 149.998 139.14C150.278 138.652 150.658 138.272 151.138 138C151.626 137.72 152.174 137.58 152.782 137.58C153.398 137.58 153.942 137.716 154.414 137.988C154.886 138.26 155.254 138.644 155.518 139.14C155.79 139.628 155.926 140.2 155.926 140.856C155.926 140.904 155.922 140.96 155.914 141.024C155.914 141.088 155.91 141.148 155.902 141.204H150.49V140.376H155.302L154.834 140.664C154.842 140.256 154.758 139.892 154.582 139.572C154.406 139.252 154.162 139.004 153.85 138.828C153.546 138.644 153.19 138.552 152.782 138.552C152.382 138.552 152.026 138.644 151.714 138.828C151.402 139.004 151.158 139.256 150.982 139.584C150.806 139.904 150.718 140.272 150.718 140.688V140.88C150.718 141.304 150.814 141.684 151.006 142.02C151.206 142.348 151.482 142.604 151.834 142.788C152.186 142.972 152.59 143.064 153.046 143.064C153.422 143.064 153.762 143 154.066 142.872C154.378 142.744 154.65 142.552 154.882 142.296L155.518 143.04C155.23 143.376 154.87 143.632 154.438 143.808C154.014 143.984 153.538 144.072 153.01 144.072ZM69.6765 159.072C69.0285 159.072 68.4485 158.932 67.9365 158.652C67.4325 158.372 67.0365 157.988 66.7485 157.5C66.4605 157.012 66.3165 156.452 66.3165 155.82C66.3165 155.188 66.4605 154.628 66.7485 154.14C67.0365 153.652 67.4325 153.272 67.9365 153C68.4485 152.72 69.0285 152.58 69.6765 152.58C70.2525 152.58 70.7645 152.696 71.2125 152.928C71.6685 153.152 72.0205 153.488 72.2685 153.936L71.3925 154.5C71.1845 154.188 70.9285 153.96 70.6245 153.816C70.3285 153.664 70.0085 153.588 69.6645 153.588C69.2485 153.588 68.8765 153.68 68.5485 153.864C68.2205 154.048 67.9605 154.308 67.7685 154.644C67.5765 154.972 67.4805 155.364 67.4805 155.82C67.4805 156.276 67.5765 156.672 67.7685 157.008C67.9605 157.344 68.2205 157.604 68.5485 157.788C68.8765 157.972 69.2485 158.064 69.6645 158.064C70.0085 158.064 70.3285 157.992 70.6245 157.848C70.9285 157.696 71.1845 157.464 71.3925 157.152L72.2685 157.704C72.0205 158.144 71.6685 158.484 71.2125 158.724C70.7645 158.956 70.2525 159.072 69.6765 159.072ZM76.3902 159.072C75.7502 159.072 75.1822 158.932 74.6862 158.652C74.1902 158.372 73.7982 157.988 73.5102 157.5C73.2222 157.004 73.0782 156.444 73.0782 155.82C73.0782 155.188 73.2222 154.628 73.5102 154.14C73.7982 153.652 74.1902 153.272 74.6862 153C75.1822 152.72 75.7502 152.58 76.3902 152.58C77.0222 152.58 77.5862 152.72 78.0822 153C78.5862 153.272 78.9782 153.652 79.2582 154.14C79.5462 154.62 79.6902 155.18 79.6902 155.82C79.6902 156.452 79.5462 157.012 79.2582 157.5C78.9782 157.988 78.5862 158.372 78.0822 158.652C77.5862 158.932 77.0222 159.072 76.3902 159.072ZM76.3902 158.064C76.7982 158.064 77.1622 157.972 77.4822 157.788C77.8102 157.604 78.0662 157.344 78.2502 157.008C78.4342 156.664 78.5262 156.268 78.5262 155.82C78.5262 155.364 78.4342 154.972 78.2502 154.644C78.0662 154.308 77.8102 154.048 77.4822 153.864C77.1622 153.68 76.7982 153.588 76.3902 153.588C75.9822 153.588 75.6182 153.68 75.2982 153.864C74.9782 154.048 74.7222 154.308 74.5302 154.644C74.3382 154.972 74.2422 155.364 74.2422 155.82C74.2422 156.268 74.3382 156.664 74.5302 157.008C74.7222 157.344 74.9782 157.604 75.2982 157.788C75.6182 157.972 75.9822 158.064 76.3902 158.064ZM81.2834 159V152.64H82.3874V154.368L82.2794 153.936C82.4554 153.496 82.7514 153.16 83.1674 152.928C83.5834 152.696 84.0954 152.58 84.7034 152.58V153.696C84.6554 153.688 84.6074 153.684 84.5594 153.684C84.5194 153.684 84.4794 153.684 84.4394 153.684C83.8234 153.684 83.3354 153.868 82.9754 154.236C82.6154 154.604 82.4354 155.136 82.4354 155.832V159H81.2834ZM89.5193 152.58C90.0393 152.58 90.4953 152.68 90.8873 152.88C91.2873 153.08 91.5993 153.384 91.8233 153.792C92.0473 154.2 92.1593 154.716 92.1593 155.34V159H91.0073V155.472C91.0073 154.856 90.8553 154.392 90.5513 154.08C90.2553 153.768 89.8353 153.612 89.2913 153.612C88.8833 153.612 88.5273 153.692 88.2233 153.852C87.9193 154.012 87.6833 154.248 87.5153 154.56C87.3553 154.872 87.2753 155.26 87.2753 155.724V159H86.1233V152.64H87.2273V154.356L87.0473 153.9C87.2553 153.484 87.5753 153.16 88.0073 152.928C88.4393 152.696 88.9433 152.58 89.5193 152.58ZM97.1232 159.072C96.4432 159.072 95.8432 158.932 95.3232 158.652C94.8112 158.372 94.4112 157.988 94.1232 157.5C93.8432 157.012 93.7032 156.452 93.7032 155.82C93.7032 155.188 93.8392 154.628 94.1112 154.14C94.3912 153.652 94.7712 153.272 95.2512 153C95.7392 152.72 96.2872 152.58 96.8952 152.58C97.5112 152.58 98.0552 152.716 98.5272 152.988C98.9992 153.26 99.3672 153.644 99.6312 154.14C99.9032 154.628 100.039 155.2 100.039 155.856C100.039 155.904 100.035 155.96 100.027 156.024C100.027 156.088 100.023 156.148 100.015 156.204H94.6032V155.376H99.4152L98.9472 155.664C98.9552 155.256 98.8712 154.892 98.6952 154.572C98.5192 154.252 98.2752 154.004 97.9632 153.828C97.6592 153.644 97.3032 153.552 96.8952 153.552C96.4952 153.552 96.1392 153.644 95.8272 153.828C95.5152 154.004 95.2712 154.256 95.0952 154.584C94.9192 154.904 94.8312 155.272 94.8312 155.688V155.88C94.8312 156.304 94.9272 156.684 95.1192 157.02C95.3192 157.348 95.5952 157.604 95.9472 157.788C96.2992 157.972 96.7032 158.064 97.1592 158.064C97.5352 158.064 97.8752 158 98.1792 157.872C98.4912 157.744 98.7632 157.552 98.9952 157.296L99.6312 158.04C99.3432 158.376 98.9832 158.632 98.5512 158.808C98.1272 158.984 97.6512 159.072 97.1232 159.072ZM101.639 159V152.64H102.743V154.368L102.635 153.936C102.811 153.496 103.107 153.16 103.523 152.928C103.939 152.696 104.451 152.58 105.059 152.58V153.696C105.011 153.688 104.963 153.684 104.915 153.684C104.875 153.684 104.835 153.684 104.795 153.684C104.179 153.684 103.691 153.868 103.331 154.236C102.971 154.604 102.791 155.136 102.791 155.832V159H101.639ZM108.373 159.072C107.845 159.072 107.341 159 106.861 158.856C106.389 158.712 106.017 158.536 105.745 158.328L106.225 157.416C106.497 157.6 106.833 157.756 107.233 157.884C107.633 158.012 108.041 158.076 108.457 158.076C108.993 158.076 109.377 158 109.609 157.848C109.849 157.696 109.969 157.484 109.969 157.212C109.969 157.012 109.897 156.856 109.753 156.744C109.609 156.632 109.417 156.548 109.177 156.492C108.945 156.436 108.685 156.388 108.397 156.348C108.109 156.3 107.821 156.244 107.533 156.18C107.245 156.108 106.981 156.012 106.741 155.892C106.501 155.764 106.309 155.592 106.165 155.376C106.021 155.152 105.949 154.856 105.949 154.488C105.949 154.104 106.057 153.768 106.273 153.48C106.489 153.192 106.793 152.972 107.185 152.82C107.585 152.66 108.057 152.58 108.601 152.58C109.017 152.58 109.437 152.632 109.861 152.736C110.293 152.832 110.645 152.972 110.917 153.156L110.425 154.068C110.137 153.876 109.837 153.744 109.525 153.672C109.213 153.6 108.901 153.564 108.589 153.564C108.085 153.564 107.709 153.648 107.461 153.816C107.213 153.976 107.089 154.184 107.089 154.44C107.089 154.656 107.161 154.824 107.305 154.944C107.457 155.056 107.649 155.144 107.881 155.208C108.121 155.272 108.385 155.328 108.673 155.376C108.961 155.416 109.249 155.472 109.537 155.544C109.825 155.608 110.085 155.7 110.317 155.82C110.557 155.94 110.749 156.108 110.893 156.324C111.045 156.54 111.121 156.828 111.121 157.188C111.121 157.572 111.009 157.904 110.785 158.184C110.561 158.464 110.245 158.684 109.837 158.844C109.429 158.996 108.941 159.072 108.373 159.072ZM112.837 159.072C112.613 159.072 112.421 158.996 112.261 158.844C112.101 158.684 112.021 158.484 112.021 158.244C112.021 158.004 112.101 157.808 112.261 157.656C112.421 157.504 112.613 157.428 112.837 157.428C113.053 157.428 113.237 157.504 113.389 157.656C113.549 157.808 113.629 158.004 113.629 158.244C113.629 158.484 113.549 158.684 113.389 158.844C113.237 158.996 113.053 159.072 112.837 159.072Z" fill="#008E86"/>
<rect x="45" y="55" width="63.6396" height="63.6396" transform="rotate(-45 45 55)" fill="#008E86" stroke="#00635D" stroke-width="2" stroke-linejoin="round"/>
<path d="M135 55L45 55" stroke="#333333" stroke-width="2" stroke-dasharray="4 6"/>
<path d="M92.9244 95.9531C93.4767 95.9531 93.9244 95.5054 93.9244 94.9531L93.9244 85.9531C93.9244 85.4008 93.4767 84.9531 92.9244 84.9531C92.3721 84.9531 91.9244 85.4008 91.9244 85.9531L91.9244 93.9531L83.9244 93.9531C83.3721 93.9531 82.9244 94.4008 82.9244 94.9531C82.9244 95.5054 83.3721 95.9531 83.9244 95.9531L92.9244 95.9531ZM93.9244 15.6407C93.9244 15.0884 93.4767 14.6407 92.9244 14.6407L83.9244 14.6407C83.3721 14.6407 82.9244 15.0884 82.9244 15.6407C82.9244 16.193 83.3721 16.6407 83.9244 16.6407L91.9244 16.6407L91.9244 24.6407C91.9244 25.193 92.3721 25.6407 92.9244 25.6407C93.4767 25.6407 93.9244 25.193 93.9244 24.6407L93.9244 15.6407ZM93.6315 94.246C82.2026 82.8171 77 69.133 77 55.4629L75 55.4629C75 69.6682 80.4167 83.8596 92.2173 95.6602L93.6315 94.246ZM77 55.4629C77 48.6796 79.1056 40.9406 82.2647 33.8429C85.4235 26.7458 89.5922 20.3871 93.6315 16.3478L92.2173 14.9336C87.9603 19.1906 83.6668 25.7742 80.4375 33.0296C77.2085 40.2844 75 48.3083 75 55.4629L77 55.4629Z" fill="black"/>
</svg>
