<svg width="180" height="180" viewBox="0 0 180 180" fill="none" xmlns="http://www.w3.org/2000/svg">
<g clip-path="url(#clip0_18_573)">
<rect width="180" height="180" rx="20" fill="#F2F2F2"/>
<g clip-path="url(#clip1_18_573)">
<path d="M0 30L-1.31134e-06 0L30 -1.31134e-06L30 10C30 21.0457 21.0457 30 10 30L0 30Z" fill="#333333"/>
<path d="M20.3644 18.648H18.5404V21H16.0124V18.648H9.98038V16.904L15.2604 9.8H17.9804L13.0844 16.536H16.0924V14.44H18.5404V16.536H20.3644V18.648Z" fill="#F2F2F2"/>
</g>
<path d="M30.0841 132.572H34.4161V133.604H30.0841V132.572ZM30.2041 137H29.0041V128.6H34.9321V129.644H30.2041V137ZM38.9781 137.072C38.3381 137.072 37.7701 136.932 37.2741 136.652C36.7781 136.372 36.3861 135.988 36.0981 135.5C35.8101 135.004 35.6661 134.444 35.6661 133.82C35.6661 133.188 35.8101 132.628 36.0981 132.14C36.3861 131.652 36.7781 131.272 37.2741 131C37.7701 130.72 38.3381 130.58 38.9781 130.58C39.6101 130.58 40.1741 130.72 40.6701 131C41.1741 131.272 41.5661 131.652 41.8461 132.14C42.1341 132.62 42.2781 133.18 42.2781 133.82C42.2781 134.452 42.1341 135.012 41.8461 135.5C41.5661 135.988 41.1741 136.372 40.6701 136.652C40.1741 136.932 39.6101 137.072 38.9781 137.072ZM38.9781 136.064C39.3861 136.064 39.7501 135.972 40.0701 135.788C40.3981 135.604 40.6541 135.344 40.8381 135.008C41.0221 134.664 41.1141 134.268 41.1141 133.82C41.1141 133.364 41.0221 132.972 40.8381 132.644C40.6541 132.308 40.3981 132.048 40.0701 131.864C39.7501 131.68 39.3861 131.588 38.9781 131.588C38.5701 131.588 38.2061 131.68 37.8861 131.864C37.5661 132.048 37.3101 132.308 37.1181 132.644C36.9261 132.972 36.8301 133.364 36.8301 133.82C36.8301 134.268 36.9261 134.664 37.1181 135.008C37.3101 135.344 37.5661 135.604 37.8861 135.788C38.2061 135.972 38.5701 136.064 38.9781 136.064ZM43.8713 137V128.096H45.0233V137H43.8713ZM49.8509 137.072C49.2349 137.072 48.6829 136.936 48.1949 136.664C47.7149 136.392 47.3349 136.012 47.0549 135.524C46.7749 135.036 46.6349 134.468 46.6349 133.82C46.6349 133.172 46.7749 132.608 47.0549 132.128C47.3349 131.64 47.7149 131.26 48.1949 130.988C48.6829 130.716 49.2349 130.58 49.8509 130.58C50.3869 130.58 50.8709 130.7 51.3029 130.94C51.7349 131.18 52.0789 131.54 52.3349 132.02C52.5989 132.5 52.7309 133.1 52.7309 133.82C52.7309 134.54 52.6029 135.14 52.3469 135.62C52.0989 136.1 51.7589 136.464 51.3269 136.712C50.8949 136.952 50.4029 137.072 49.8509 137.072ZM49.9469 136.064C50.3469 136.064 50.7069 135.972 51.0269 135.788C51.3549 135.604 51.6109 135.344 51.7949 135.008C51.9869 134.664 52.0829 134.268 52.0829 133.82C52.0829 133.364 51.9869 132.972 51.7949 132.644C51.6109 132.308 51.3549 132.048 51.0269 131.864C50.7069 131.68 50.3469 131.588 49.9469 131.588C49.5389 131.588 49.1749 131.68 48.8549 131.864C48.5349 132.048 48.2789 132.308 48.0869 132.644C47.8949 132.972 47.7989 133.364 47.7989 133.82C47.7989 134.268 47.8949 134.664 48.0869 135.008C48.2789 135.344 48.5349 135.604 48.8549 135.788C49.1749 135.972 49.5389 136.064 49.9469 136.064ZM52.1189 137V135.284L52.1909 133.808L52.0709 132.332V128.096H53.2229V137H52.1189ZM60.8092 137.072C60.1692 137.072 59.6732 136.9 59.3212 136.556C58.9692 136.212 58.7932 135.72 58.7932 135.08V129.248H59.9452V135.032C59.9452 135.376 60.0292 135.64 60.1972 135.824C60.3732 136.008 60.6212 136.1 60.9412 136.1C61.3012 136.1 61.6012 136 61.8412 135.8L62.2012 136.628C62.0252 136.78 61.8132 136.892 61.5652 136.964C61.3252 137.036 61.0732 137.072 60.8092 137.072ZM57.7132 131.588V130.64H61.7692V131.588H57.7132ZM66.99 130.58C67.51 130.58 67.966 130.68 68.358 130.88C68.758 131.08 69.07 131.384 69.294 131.792C69.518 132.2 69.63 132.716 69.63 133.34V137H68.478V133.472C68.478 132.856 68.326 132.392 68.022 132.08C67.726 131.768 67.306 131.612 66.762 131.612C66.354 131.612 65.998 131.692 65.694 131.852C65.39 132.012 65.154 132.248 64.986 132.56C64.826 132.872 64.746 133.26 64.746 133.724V137H63.594V128.096H64.746V132.356L64.518 131.9C64.726 131.484 65.046 131.16 65.478 130.928C65.91 130.696 66.414 130.58 66.99 130.58ZM74.5939 137.072C73.9139 137.072 73.3139 136.932 72.7939 136.652C72.2819 136.372 71.8819 135.988 71.5939 135.5C71.3139 135.012 71.1739 134.452 71.1739 133.82C71.1739 133.188 71.3099 132.628 71.5819 132.14C71.8619 131.652 72.2419 131.272 72.7219 131C73.2099 130.72 73.7579 130.58 74.3659 130.58C74.9819 130.58 75.5259 130.716 75.9979 130.988C76.4699 131.26 76.8379 131.644 77.1019 132.14C77.3739 132.628 77.5099 133.2 77.5099 133.856C77.5099 133.904 77.5059 133.96 77.4979 134.024C77.4979 134.088 77.4939 134.148 77.4859 134.204H72.0739V133.376H76.8859L76.4179 133.664C76.4259 133.256 76.3419 132.892 76.1659 132.572C75.9899 132.252 75.7459 132.004 75.4339 131.828C75.1299 131.644 74.7739 131.552 74.3659 131.552C73.9659 131.552 73.6099 131.644 73.2979 131.828C72.9859 132.004 72.7419 132.256 72.5659 132.584C72.3899 132.904 72.3019 133.272 72.3019 133.688V133.88C72.3019 134.304 72.3979 134.684 72.5899 135.02C72.7899 135.348 73.0659 135.604 73.4179 135.788C73.7699 135.972 74.1739 136.064 74.6299 136.064C75.0059 136.064 75.3459 136 75.6499 135.872C75.9619 135.744 76.2339 135.552 76.4659 135.296L77.1019 136.04C76.8139 136.376 76.4539 136.632 76.0219 136.808C75.5979 136.984 75.1219 137.072 74.5939 137.072ZM84.1562 137.072C83.6282 137.072 83.1242 137 82.6442 136.856C82.1722 136.712 81.8002 136.536 81.5282 136.328L82.0082 135.416C82.2802 135.6 82.6162 135.756 83.0162 135.884C83.4162 136.012 83.8242 136.076 84.2402 136.076C84.7762 136.076 85.1602 136 85.3922 135.848C85.6322 135.696 85.7522 135.484 85.7522 135.212C85.7522 135.012 85.6802 134.856 85.5362 134.744C85.3922 134.632 85.2002 134.548 84.9602 134.492C84.7282 134.436 84.4682 134.388 84.1802 134.348C83.8922 134.3 83.6042 134.244 83.3162 134.18C83.0282 134.108 82.7642 134.012 82.5242 133.892C82.2842 133.764 82.0922 133.592 81.9482 133.376C81.8042 133.152 81.7322 132.856 81.7322 132.488C81.7322 132.104 81.8402 131.768 82.0562 131.48C82.2722 131.192 82.5762 130.972 82.9682 130.82C83.3682 130.66 83.8402 130.58 84.3842 130.58C84.8002 130.58 85.2202 130.632 85.6442 130.736C86.0762 130.832 86.4282 130.972 86.7002 131.156L86.2082 132.068C85.9202 131.876 85.6202 131.744 85.3082 131.672C84.9962 131.6 84.6842 131.564 84.3722 131.564C83.8682 131.564 83.4922 131.648 83.2442 131.816C82.9962 131.976 82.8722 132.184 82.8722 132.44C82.8722 132.656 82.9442 132.824 83.0882 132.944C83.2402 133.056 83.4322 133.144 83.6642 133.208C83.9042 133.272 84.1682 133.328 84.4562 133.376C84.7442 133.416 85.0322 133.472 85.3202 133.544C85.6082 133.608 85.8682 133.7 86.1002 133.82C86.3402 133.94 86.5322 134.108 86.6762 134.324C86.8282 134.54 86.9042 134.828 86.9042 135.188C86.9042 135.572 86.7922 135.904 86.5682 136.184C86.3442 136.464 86.0282 136.684 85.6202 136.844C85.2122 136.996 84.7242 137.072 84.1562 137.072ZM88.344 137V130.64H89.496V137H88.344ZM88.92 129.416C88.696 129.416 88.508 129.344 88.356 129.2C88.212 129.056 88.14 128.88 88.14 128.672C88.14 128.456 88.212 128.276 88.356 128.132C88.508 127.988 88.696 127.916 88.92 127.916C89.144 127.916 89.328 127.988 89.472 128.132C89.624 128.268 89.7 128.44 89.7 128.648C89.7 128.864 89.628 129.048 89.484 129.2C89.34 129.344 89.152 129.416 88.92 129.416ZM94.3235 137.072C93.7075 137.072 93.1555 136.936 92.6675 136.664C92.1875 136.392 91.8075 136.012 91.5275 135.524C91.2475 135.036 91.1075 134.468 91.1075 133.82C91.1075 133.172 91.2475 132.608 91.5275 132.128C91.8075 131.64 92.1875 131.26 92.6675 130.988C93.1555 130.716 93.7075 130.58 94.3235 130.58C94.8595 130.58 95.3435 130.7 95.7755 130.94C96.2075 131.18 96.5515 131.54 96.8075 132.02C97.0715 132.5 97.2035 133.1 97.2035 133.82C97.2035 134.54 97.0755 135.14 96.8195 135.62C96.5715 136.1 96.2315 136.464 95.7995 136.712C95.3675 136.952 94.8755 137.072 94.3235 137.072ZM94.4195 136.064C94.8195 136.064 95.1795 135.972 95.4995 135.788C95.8275 135.604 96.0835 135.344 96.2675 135.008C96.4595 134.664 96.5555 134.268 96.5555 133.82C96.5555 133.364 96.4595 132.972 96.2675 132.644C96.0835 132.308 95.8275 132.048 95.4995 131.864C95.1795 131.68 94.8195 131.588 94.4195 131.588C94.0115 131.588 93.6475 131.68 93.3275 131.864C93.0075 132.048 92.7515 132.308 92.5595 132.644C92.3675 132.972 92.2715 133.364 92.2715 133.82C92.2715 134.268 92.3675 134.664 92.5595 135.008C92.7515 135.344 93.0075 135.604 93.3275 135.788C93.6475 135.972 94.0115 136.064 94.4195 136.064ZM96.5915 137V135.284L96.6635 133.808L96.5435 132.332V128.096H97.6955V137H96.5915ZM102.707 137.072C102.027 137.072 101.427 136.932 100.907 136.652C100.395 136.372 99.9952 135.988 99.7072 135.5C99.4272 135.012 99.2872 134.452 99.2872 133.82C99.2872 133.188 99.4232 132.628 99.6952 132.14C99.9752 131.652 100.355 131.272 100.835 131C101.323 130.72 101.871 130.58 102.479 130.58C103.095 130.58 103.639 130.716 104.111 130.988C104.583 131.26 104.951 131.644 105.215 132.14C105.487 132.628 105.623 133.2 105.623 133.856C105.623 133.904 105.619 133.96 105.611 134.024C105.611 134.088 105.607 134.148 105.599 134.204H100.187V133.376H104.999L104.531 133.664C104.539 133.256 104.455 132.892 104.279 132.572C104.103 132.252 103.859 132.004 103.547 131.828C103.243 131.644 102.887 131.552 102.479 131.552C102.079 131.552 101.723 131.644 101.411 131.828C101.099 132.004 100.855 132.256 100.679 132.584C100.503 132.904 100.415 133.272 100.415 133.688V133.88C100.415 134.304 100.511 134.684 100.703 135.02C100.903 135.348 101.179 135.604 101.531 135.788C101.883 135.972 102.287 136.064 102.743 136.064C103.119 136.064 103.459 136 103.763 135.872C104.075 135.744 104.347 135.552 104.579 135.296L105.215 136.04C104.927 136.376 104.567 136.632 104.135 136.808C103.711 136.984 103.235 137.072 102.707 137.072ZM109.047 137.072C108.519 137.072 108.015 137 107.535 136.856C107.063 136.712 106.691 136.536 106.419 136.328L106.899 135.416C107.171 135.6 107.507 135.756 107.907 135.884C108.307 136.012 108.715 136.076 109.131 136.076C109.667 136.076 110.051 136 110.283 135.848C110.523 135.696 110.643 135.484 110.643 135.212C110.643 135.012 110.571 134.856 110.427 134.744C110.283 134.632 110.091 134.548 109.851 134.492C109.619 134.436 109.359 134.388 109.071 134.348C108.783 134.3 108.495 134.244 108.207 134.18C107.919 134.108 107.655 134.012 107.415 133.892C107.175 133.764 106.983 133.592 106.839 133.376C106.695 133.152 106.623 132.856 106.623 132.488C106.623 132.104 106.731 131.768 106.947 131.48C107.163 131.192 107.467 130.972 107.859 130.82C108.259 130.66 108.731 130.58 109.275 130.58C109.691 130.58 110.111 130.632 110.535 130.736C110.967 130.832 111.319 130.972 111.591 131.156L111.099 132.068C110.811 131.876 110.511 131.744 110.199 131.672C109.887 131.6 109.575 131.564 109.263 131.564C108.759 131.564 108.383 131.648 108.135 131.816C107.887 131.976 107.763 132.184 107.763 132.44C107.763 132.656 107.835 132.824 107.979 132.944C108.131 133.056 108.323 133.144 108.555 133.208C108.795 133.272 109.059 133.328 109.347 133.376C109.635 133.416 109.923 133.472 110.211 133.544C110.499 133.608 110.759 133.7 110.991 133.82C111.231 133.94 111.423 134.108 111.567 134.324C111.719 134.54 111.795 134.828 111.795 135.188C111.795 135.572 111.683 135.904 111.459 136.184C111.235 136.464 110.919 136.684 110.511 136.844C110.103 136.996 109.615 137.072 109.047 137.072ZM120.405 137V135.656L120.345 135.404V133.112C120.345 132.624 120.201 132.248 119.913 131.984C119.633 131.712 119.209 131.576 118.641 131.576C118.265 131.576 117.897 131.64 117.537 131.768C117.177 131.888 116.873 132.052 116.625 132.26L116.145 131.396C116.473 131.132 116.865 130.932 117.321 130.796C117.785 130.652 118.269 130.58 118.773 130.58C119.645 130.58 120.317 130.792 120.789 131.216C121.261 131.64 121.497 132.288 121.497 133.16V137H120.405ZM118.317 137.072C117.845 137.072 117.429 136.992 117.069 136.832C116.717 136.672 116.445 136.452 116.253 136.172C116.061 135.884 115.965 135.56 115.965 135.2C115.965 134.856 116.045 134.544 116.205 134.264C116.373 133.984 116.641 133.76 117.009 133.592C117.385 133.424 117.889 133.34 118.521 133.34H120.537V134.168H118.569C117.993 134.168 117.605 134.264 117.405 134.456C117.205 134.648 117.105 134.88 117.105 135.152C117.105 135.464 117.229 135.716 117.477 135.908C117.725 136.092 118.069 136.184 118.509 136.184C118.941 136.184 119.317 136.088 119.637 135.896C119.965 135.704 120.201 135.424 120.345 135.056L120.573 135.848C120.421 136.224 120.153 136.524 119.769 136.748C119.385 136.964 118.901 137.072 118.317 137.072ZM125.453 137.072C124.925 137.072 124.421 137 123.941 136.856C123.469 136.712 123.097 136.536 122.825 136.328L123.305 135.416C123.577 135.6 123.913 135.756 124.313 135.884C124.713 136.012 125.121 136.076 125.537 136.076C126.073 136.076 126.457 136 126.689 135.848C126.929 135.696 127.049 135.484 127.049 135.212C127.049 135.012 126.977 134.856 126.833 134.744C126.689 134.632 126.497 134.548 126.257 134.492C126.025 134.436 125.765 134.388 125.477 134.348C125.189 134.3 124.901 134.244 124.613 134.18C124.325 134.108 124.061 134.012 123.821 133.892C123.581 133.764 123.389 133.592 123.245 133.376C123.101 133.152 123.029 132.856 123.029 132.488C123.029 132.104 123.137 131.768 123.353 131.48C123.569 131.192 123.873 130.972 124.265 130.82C124.665 130.66 125.137 130.58 125.681 130.58C126.097 130.58 126.517 130.632 126.941 130.736C127.373 130.832 127.725 130.972 127.997 131.156L127.505 132.068C127.217 131.876 126.917 131.744 126.605 131.672C126.293 131.6 125.981 131.564 125.669 131.564C125.165 131.564 124.789 131.648 124.541 131.816C124.293 131.976 124.169 132.184 124.169 132.44C124.169 132.656 124.241 132.824 124.385 132.944C124.537 133.056 124.729 133.144 124.961 133.208C125.201 133.272 125.465 133.328 125.753 133.376C126.041 133.416 126.329 133.472 126.617 133.544C126.905 133.608 127.165 133.7 127.397 133.82C127.637 133.94 127.829 134.108 127.973 134.324C128.125 134.54 128.201 134.828 128.201 135.188C128.201 135.572 128.089 135.904 127.865 136.184C127.641 136.464 127.325 136.684 126.917 136.844C126.509 136.996 126.021 137.072 125.453 137.072ZM135.047 137.072C134.407 137.072 133.911 136.9 133.559 136.556C133.207 136.212 133.031 135.72 133.031 135.08V129.248H134.183V135.032C134.183 135.376 134.267 135.64 134.435 135.824C134.611 136.008 134.859 136.1 135.179 136.1C135.539 136.1 135.839 136 136.079 135.8L136.439 136.628C136.263 136.78 136.051 136.892 135.803 136.964C135.563 137.036 135.311 137.072 135.047 137.072ZM131.951 131.588V130.64H136.007V131.588H131.951ZM141.228 130.58C141.748 130.58 142.204 130.68 142.596 130.88C142.996 131.08 143.308 131.384 143.532 131.792C143.756 132.2 143.868 132.716 143.868 133.34V137H142.716V133.472C142.716 132.856 142.564 132.392 142.26 132.08C141.964 131.768 141.544 131.612 141 131.612C140.592 131.612 140.236 131.692 139.932 131.852C139.628 132.012 139.392 132.248 139.224 132.56C139.064 132.872 138.984 133.26 138.984 133.724V137H137.832V128.096H138.984V132.356L138.756 131.9C138.964 131.484 139.284 131.16 139.716 130.928C140.148 130.696 140.652 130.58 141.228 130.58ZM148.832 137.072C148.152 137.072 147.552 136.932 147.032 136.652C146.52 136.372 146.12 135.988 145.832 135.5C145.552 135.012 145.412 134.452 145.412 133.82C145.412 133.188 145.548 132.628 145.82 132.14C146.1 131.652 146.48 131.272 146.96 131C147.448 130.72 147.996 130.58 148.604 130.58C149.22 130.58 149.764 130.716 150.236 130.988C150.708 131.26 151.076 131.644 151.34 132.14C151.612 132.628 151.748 133.2 151.748 133.856C151.748 133.904 151.744 133.96 151.736 134.024C151.736 134.088 151.732 134.148 151.724 134.204H146.312V133.376H151.124L150.656 133.664C150.664 133.256 150.58 132.892 150.404 132.572C150.228 132.252 149.984 132.004 149.672 131.828C149.368 131.644 149.012 131.552 148.604 131.552C148.204 131.552 147.848 131.644 147.536 131.828C147.224 132.004 146.98 132.256 146.804 132.584C146.628 132.904 146.54 133.272 146.54 133.688V133.88C146.54 134.304 146.636 134.684 146.828 135.02C147.028 135.348 147.304 135.604 147.656 135.788C148.008 135.972 148.412 136.064 148.868 136.064C149.244 136.064 149.584 136 149.888 135.872C150.2 135.744 150.472 135.552 150.704 135.296L151.34 136.04C151.052 136.376 150.692 136.632 150.26 136.808C149.836 136.984 149.36 137.072 148.832 137.072ZM40.1162 154.4C39.5322 154.4 38.9642 154.316 38.4122 154.148C37.8682 153.988 37.4242 153.756 37.0802 153.452L37.6322 152.564C37.9282 152.82 38.2922 153.02 38.7242 153.164C39.1562 153.316 39.6082 153.392 40.0802 153.392C40.8322 153.392 41.3842 153.216 41.7362 152.864C42.0882 152.512 42.2642 151.976 42.2642 151.256V149.912L42.3842 148.652L42.3242 147.38V145.64H43.4162V151.136C43.4162 152.256 43.1362 153.08 42.5762 153.608C42.0162 154.136 41.1962 154.4 40.1162 154.4ZM39.9722 151.736C39.3562 151.736 38.8042 151.608 38.3162 151.352C37.8362 151.088 37.4522 150.724 37.1642 150.26C36.8842 149.796 36.7442 149.26 36.7442 148.652C36.7442 148.036 36.8842 147.5 37.1642 147.044C37.4522 146.58 37.8362 146.22 38.3162 145.964C38.8042 145.708 39.3562 145.58 39.9722 145.58C40.5162 145.58 41.0122 145.692 41.4602 145.916C41.9082 146.132 42.2642 146.468 42.5282 146.924C42.8002 147.38 42.9362 147.956 42.9362 148.652C42.9362 149.34 42.8002 149.912 42.5282 150.368C42.2642 150.824 41.9082 151.168 41.4602 151.4C41.0122 151.624 40.5162 151.736 39.9722 151.736ZM40.1042 150.728C40.5282 150.728 40.9042 150.64 41.2322 150.464C41.5602 150.288 41.8162 150.044 42.0002 149.732C42.1922 149.42 42.2882 149.06 42.2882 148.652C42.2882 148.244 42.1922 147.884 42.0002 147.572C41.8162 147.26 41.5602 147.02 41.2322 146.852C40.9042 146.676 40.5282 146.588 40.1042 146.588C39.6802 146.588 39.3002 146.676 38.9642 146.852C38.6362 147.02 38.3762 147.26 38.1842 147.572C38.0002 147.884 37.9082 148.244 37.9082 148.652C37.9082 149.06 38.0002 149.42 38.1842 149.732C38.3762 150.044 38.6362 150.288 38.9642 150.464C39.3002 150.64 39.6802 150.728 40.1042 150.728ZM45.6174 152V145.64H46.7214V147.368L46.6134 146.936C46.7894 146.496 47.0854 146.16 47.5014 145.928C47.9174 145.696 48.4294 145.58 49.0374 145.58V146.696C48.9894 146.688 48.9414 146.684 48.8934 146.684C48.8534 146.684 48.8134 146.684 48.7734 146.684C48.1574 146.684 47.6694 146.868 47.3094 147.236C46.9494 147.604 46.7694 148.136 46.7694 148.832V152H45.6174ZM53.9365 152V150.656L53.8765 150.404V148.112C53.8765 147.624 53.7325 147.248 53.4445 146.984C53.1645 146.712 52.7405 146.576 52.1725 146.576C51.7965 146.576 51.4285 146.64 51.0685 146.768C50.7085 146.888 50.4045 147.052 50.1565 147.26L49.6765 146.396C50.0045 146.132 50.3965 145.932 50.8525 145.796C51.3165 145.652 51.8005 145.58 52.3045 145.58C53.1765 145.58 53.8485 145.792 54.3205 146.216C54.7925 146.64 55.0285 147.288 55.0285 148.16V152H53.9365ZM51.8485 152.072C51.3765 152.072 50.9605 151.992 50.6005 151.832C50.2485 151.672 49.9765 151.452 49.7845 151.172C49.5925 150.884 49.4965 150.56 49.4965 150.2C49.4965 149.856 49.5765 149.544 49.7365 149.264C49.9045 148.984 50.1725 148.76 50.5405 148.592C50.9165 148.424 51.4205 148.34 52.0525 148.34H54.0685V149.168H52.1005C51.5245 149.168 51.1365 149.264 50.9365 149.456C50.7365 149.648 50.6365 149.88 50.6365 150.152C50.6365 150.464 50.7605 150.716 51.0085 150.908C51.2565 151.092 51.6005 151.184 52.0405 151.184C52.4725 151.184 52.8485 151.088 53.1685 150.896C53.4965 150.704 53.7325 150.424 53.8765 150.056L54.1045 150.848C53.9525 151.224 53.6845 151.524 53.3005 151.748C52.9165 151.964 52.4325 152.072 51.8485 152.072ZM60.5324 152.072C60.0044 152.072 59.5204 151.952 59.0804 151.712C58.6484 151.464 58.3004 151.1 58.0364 150.62C57.7804 150.14 57.6524 149.54 57.6524 148.82C57.6524 148.1 57.7764 147.5 58.0244 147.02C58.2804 146.54 58.6244 146.18 59.0564 145.94C59.4964 145.7 59.9884 145.58 60.5324 145.58C61.1564 145.58 61.7084 145.716 62.1884 145.988C62.6684 146.26 63.0484 146.64 63.3284 147.128C63.6084 147.608 63.7484 148.172 63.7484 148.82C63.7484 149.468 63.6084 150.036 63.3284 150.524C63.0484 151.012 62.6684 151.392 62.1884 151.664C61.7084 151.936 61.1564 152.072 60.5324 152.072ZM57.1604 154.328V145.64H58.2644V147.356L58.1924 148.832L58.3124 150.308V154.328H57.1604ZM60.4364 151.064C60.8444 151.064 61.2084 150.972 61.5284 150.788C61.8564 150.604 62.1124 150.344 62.2964 150.008C62.4884 149.664 62.5844 149.268 62.5844 148.82C62.5844 148.364 62.4884 147.972 62.2964 147.644C62.1124 147.308 61.8564 147.048 61.5284 146.864C61.2084 146.68 60.8444 146.588 60.4364 146.588C60.0364 146.588 59.6724 146.68 59.3444 146.864C59.0244 147.048 58.7684 147.308 58.5764 147.644C58.3924 147.972 58.3004 148.364 58.3004 148.82C58.3004 149.268 58.3924 149.664 58.5764 150.008C58.7684 150.344 59.0244 150.604 59.3444 150.788C59.6724 150.972 60.0364 151.064 60.4364 151.064ZM68.736 145.58C69.256 145.58 69.712 145.68 70.104 145.88C70.504 146.08 70.816 146.384 71.04 146.792C71.264 147.2 71.376 147.716 71.376 148.34V152H70.224V148.472C70.224 147.856 70.072 147.392 69.768 147.08C69.472 146.768 69.052 146.612 68.508 146.612C68.1 146.612 67.744 146.692 67.44 146.852C67.136 147.012 66.9 147.248 66.732 147.56C66.572 147.872 66.492 148.26 66.492 148.724V152H65.34V143.096H66.492V147.356L66.264 146.9C66.472 146.484 66.792 146.16 67.224 145.928C67.656 145.696 68.16 145.58 68.736 145.58ZM73.508 152V145.64H74.66V152H73.508ZM74.084 144.416C73.86 144.416 73.672 144.344 73.52 144.2C73.376 144.056 73.304 143.88 73.304 143.672C73.304 143.456 73.376 143.276 73.52 143.132C73.672 142.988 73.86 142.916 74.084 142.916C74.308 142.916 74.492 142.988 74.636 143.132C74.788 143.268 74.864 143.44 74.864 143.648C74.864 143.864 74.792 144.048 74.648 144.2C74.504 144.344 74.316 144.416 74.084 144.416ZM79.6316 152.072C78.9836 152.072 78.4036 151.932 77.8916 151.652C77.3876 151.372 76.9916 150.988 76.7036 150.5C76.4156 150.012 76.2716 149.452 76.2716 148.82C76.2716 148.188 76.4156 147.628 76.7036 147.14C76.9916 146.652 77.3876 146.272 77.8916 146C78.4036 145.72 78.9836 145.58 79.6316 145.58C80.2076 145.58 80.7196 145.696 81.1676 145.928C81.6236 146.152 81.9756 146.488 82.2236 146.936L81.3476 147.5C81.1396 147.188 80.8836 146.96 80.5796 146.816C80.2836 146.664 79.9636 146.588 79.6196 146.588C79.2036 146.588 78.8316 146.68 78.5036 146.864C78.1756 147.048 77.9156 147.308 77.7236 147.644C77.5316 147.972 77.4356 148.364 77.4356 148.82C77.4356 149.276 77.5316 149.672 77.7236 150.008C77.9156 150.344 78.1756 150.604 78.5036 150.788C78.8316 150.972 79.2036 151.064 79.6196 151.064C79.9636 151.064 80.2836 150.992 80.5796 150.848C80.8836 150.696 81.1396 150.464 81.3476 150.152L82.2236 150.704C81.9756 151.144 81.6236 151.484 81.1676 151.724C80.7196 151.956 80.2076 152.072 79.6316 152.072ZM86.9377 152V145.64H88.0897V152H86.9377ZM87.5137 144.416C87.2897 144.416 87.1017 144.344 86.9497 144.2C86.8057 144.056 86.7337 143.88 86.7337 143.672C86.7337 143.456 86.8057 143.276 86.9497 143.132C87.1017 142.988 87.2897 142.916 87.5137 142.916C87.7377 142.916 87.9217 142.988 88.0657 143.132C88.2177 143.268 88.2937 143.44 88.2937 143.648C88.2937 143.864 88.2217 144.048 88.0777 144.2C87.9337 144.344 87.7457 144.416 87.5137 144.416ZM93.6853 145.58C94.2053 145.58 94.6613 145.68 95.0533 145.88C95.4533 146.08 95.7653 146.384 95.9893 146.792C96.2133 147.2 96.3253 147.716 96.3253 148.34V152H95.1733V148.472C95.1733 147.856 95.0213 147.392 94.7173 147.08C94.4213 146.768 94.0013 146.612 93.4573 146.612C93.0493 146.612 92.6933 146.692 92.3893 146.852C92.0853 147.012 91.8493 147.248 91.6813 147.56C91.5213 147.872 91.4413 148.26 91.4413 148.724V152H90.2893V145.64H91.3933V147.356L91.2133 146.9C91.4213 146.484 91.7413 146.16 92.1733 145.928C92.6053 145.696 93.1093 145.58 93.6853 145.58ZM101.085 152.072C100.469 152.072 99.9172 151.936 99.4292 151.664C98.9492 151.392 98.5692 151.012 98.2892 150.524C98.0092 150.036 97.8692 149.468 97.8692 148.82C97.8692 148.172 98.0092 147.608 98.2892 147.128C98.5692 146.64 98.9492 146.26 99.4292 145.988C99.9172 145.716 100.469 145.58 101.085 145.58C101.621 145.58 102.105 145.7 102.537 145.94C102.969 146.18 103.313 146.54 103.569 147.02C103.833 147.5 103.965 148.1 103.965 148.82C103.965 149.54 103.837 150.14 103.581 150.62C103.333 151.1 102.993 151.464 102.561 151.712C102.129 151.952 101.637 152.072 101.085 152.072ZM101.181 151.064C101.581 151.064 101.941 150.972 102.261 150.788C102.589 150.604 102.845 150.344 103.029 150.008C103.221 149.664 103.317 149.268 103.317 148.82C103.317 148.364 103.221 147.972 103.029 147.644C102.845 147.308 102.589 147.048 102.261 146.864C101.941 146.68 101.581 146.588 101.181 146.588C100.773 146.588 100.409 146.68 100.089 146.864C99.7692 147.048 99.5132 147.308 99.3212 147.644C99.1292 147.972 99.0332 148.364 99.0332 148.82C99.0332 149.268 99.1292 149.664 99.3212 150.008C99.5132 150.344 99.7692 150.604 100.089 150.788C100.409 150.972 100.773 151.064 101.181 151.064ZM103.353 152V150.284L103.425 148.808L103.305 147.332V143.096H104.457V152H103.353ZM106.637 152V145.64H107.789V152H106.637ZM107.213 144.416C106.989 144.416 106.801 144.344 106.649 144.2C106.505 144.056 106.433 143.88 106.433 143.672C106.433 143.456 106.505 143.276 106.649 143.132C106.801 142.988 106.989 142.916 107.213 142.916C107.437 142.916 107.621 142.988 107.765 143.132C107.917 143.268 107.993 143.44 107.993 143.648C107.993 143.864 107.921 144.048 107.777 144.2C107.633 144.344 107.445 144.416 107.213 144.416ZM112.76 152.072C112.112 152.072 111.532 151.932 111.02 151.652C110.516 151.372 110.12 150.988 109.832 150.5C109.544 150.012 109.4 149.452 109.4 148.82C109.4 148.188 109.544 147.628 109.832 147.14C110.12 146.652 110.516 146.272 111.02 146C111.532 145.72 112.112 145.58 112.76 145.58C113.336 145.58 113.848 145.696 114.296 145.928C114.752 146.152 115.104 146.488 115.352 146.936L114.476 147.5C114.268 147.188 114.012 146.96 113.708 146.816C113.412 146.664 113.092 146.588 112.748 146.588C112.332 146.588 111.96 146.68 111.632 146.864C111.304 147.048 111.044 147.308 110.852 147.644C110.66 147.972 110.564 148.364 110.564 148.82C110.564 149.276 110.66 149.672 110.852 150.008C111.044 150.344 111.304 150.604 111.632 150.788C111.96 150.972 112.332 151.064 112.748 151.064C113.092 151.064 113.412 150.992 113.708 150.848C114.012 150.696 114.268 150.464 114.476 150.152L115.352 150.704C115.104 151.144 114.752 151.484 114.296 151.724C113.848 151.956 113.336 152.072 112.76 152.072ZM120.792 152V150.656L120.732 150.404V148.112C120.732 147.624 120.588 147.248 120.3 146.984C120.02 146.712 119.596 146.576 119.028 146.576C118.652 146.576 118.284 146.64 117.924 146.768C117.564 146.888 117.26 147.052 117.012 147.26L116.532 146.396C116.86 146.132 117.252 145.932 117.708 145.796C118.172 145.652 118.656 145.58 119.16 145.58C120.032 145.58 120.704 145.792 121.176 146.216C121.648 146.64 121.884 147.288 121.884 148.16V152H120.792ZM118.704 152.072C118.232 152.072 117.816 151.992 117.456 151.832C117.104 151.672 116.832 151.452 116.64 151.172C116.448 150.884 116.352 150.56 116.352 150.2C116.352 149.856 116.432 149.544 116.592 149.264C116.76 148.984 117.028 148.76 117.396 148.592C117.772 148.424 118.276 148.34 118.908 148.34H120.924V149.168H118.956C118.38 149.168 117.992 149.264 117.792 149.456C117.592 149.648 117.492 149.88 117.492 150.152C117.492 150.464 117.616 150.716 117.864 150.908C118.112 151.092 118.456 151.184 118.896 151.184C119.328 151.184 119.704 151.088 120.024 150.896C120.352 150.704 120.588 150.424 120.732 150.056L120.96 150.848C120.808 151.224 120.54 151.524 120.156 151.748C119.772 151.964 119.288 152.072 118.704 152.072ZM126.2 152.072C125.56 152.072 125.064 151.9 124.712 151.556C124.36 151.212 124.184 150.72 124.184 150.08V144.248H125.336V150.032C125.336 150.376 125.42 150.64 125.588 150.824C125.764 151.008 126.012 151.1 126.332 151.1C126.692 151.1 126.992 151 127.232 150.8L127.592 151.628C127.416 151.78 127.204 151.892 126.956 151.964C126.716 152.036 126.464 152.072 126.2 152.072ZM123.104 146.588V145.64H127.16V146.588H123.104ZM131.606 152.072C130.926 152.072 130.326 151.932 129.806 151.652C129.294 151.372 128.894 150.988 128.606 150.5C128.326 150.012 128.186 149.452 128.186 148.82C128.186 148.188 128.322 147.628 128.594 147.14C128.874 146.652 129.254 146.272 129.734 146C130.222 145.72 130.77 145.58 131.378 145.58C131.994 145.58 132.538 145.716 133.01 145.988C133.482 146.26 133.85 146.644 134.114 147.14C134.386 147.628 134.522 148.2 134.522 148.856C134.522 148.904 134.518 148.96 134.51 149.024C134.51 149.088 134.506 149.148 134.498 149.204H129.086V148.376H133.898L133.43 148.664C133.438 148.256 133.354 147.892 133.178 147.572C133.002 147.252 132.758 147.004 132.446 146.828C132.142 146.644 131.786 146.552 131.378 146.552C130.978 146.552 130.622 146.644 130.31 146.828C129.998 147.004 129.754 147.256 129.578 147.584C129.402 147.904 129.314 148.272 129.314 148.688V148.88C129.314 149.304 129.41 149.684 129.602 150.02C129.802 150.348 130.078 150.604 130.43 150.788C130.782 150.972 131.186 151.064 131.642 151.064C132.018 151.064 132.358 151 132.662 150.872C132.974 150.744 133.246 150.552 133.478 150.296L134.114 151.04C133.826 151.376 133.466 151.632 133.034 151.808C132.61 151.984 132.134 152.072 131.606 152.072ZM137.945 152.072C137.417 152.072 136.913 152 136.433 151.856C135.961 151.712 135.589 151.536 135.317 151.328L135.797 150.416C136.069 150.6 136.405 150.756 136.805 150.884C137.205 151.012 137.613 151.076 138.029 151.076C138.565 151.076 138.949 151 139.181 150.848C139.421 150.696 139.541 150.484 139.541 150.212C139.541 150.012 139.469 149.856 139.325 149.744C139.181 149.632 138.989 149.548 138.749 149.492C138.517 149.436 138.257 149.388 137.969 149.348C137.681 149.3 137.393 149.244 137.105 149.18C136.817 149.108 136.553 149.012 136.313 148.892C136.073 148.764 135.881 148.592 135.737 148.376C135.593 148.152 135.521 147.856 135.521 147.488C135.521 147.104 135.629 146.768 135.845 146.48C136.061 146.192 136.365 145.972 136.757 145.82C137.157 145.66 137.629 145.58 138.173 145.58C138.589 145.58 139.009 145.632 139.433 145.736C139.865 145.832 140.217 145.972 140.489 146.156L139.997 147.068C139.709 146.876 139.409 146.744 139.097 146.672C138.785 146.6 138.473 146.564 138.161 146.564C137.657 146.564 137.281 146.648 137.033 146.816C136.785 146.976 136.661 147.184 136.661 147.44C136.661 147.656 136.733 147.824 136.877 147.944C137.029 148.056 137.221 148.144 137.453 148.208C137.693 148.272 137.957 148.328 138.245 148.376C138.533 148.416 138.821 148.472 139.109 148.544C139.397 148.608 139.657 148.7 139.889 148.82C140.129 148.94 140.321 149.108 140.465 149.324C140.617 149.54 140.693 149.828 140.693 150.188C140.693 150.572 140.581 150.904 140.357 151.184C140.133 151.464 139.817 151.684 139.409 151.844C139.001 151.996 138.513 152.072 137.945 152.072ZM142.409 152.072C142.185 152.072 141.993 151.996 141.833 151.844C141.673 151.684 141.593 151.484 141.593 151.244C141.593 151.004 141.673 150.808 141.833 150.656C141.993 150.504 142.185 150.428 142.409 150.428C142.625 150.428 142.809 150.504 142.961 150.656C143.121 150.808 143.201 151.004 143.201 151.244C143.201 151.484 143.121 151.684 142.961 151.844C142.809 151.996 142.625 152.072 142.409 152.072Z" fill="#008E86"/>
<path d="M45 66L90 21L135 66L69 89.2586L45 66Z" fill="#00D8CC" stroke="#00635D" stroke-width="2" stroke-linejoin="round"/>
<path d="M135 65.7578L58 77.7578" stroke="#333333" stroke-width="2" stroke-dasharray="4 6"/>
<path d="M134.501 65.7585L69.999 40.2585" stroke="#333333" stroke-width="2" stroke-dasharray="4 6"/>
<path opacity="0.25" d="M135 65.7578H45" stroke="#333333" stroke-width="2"/>
<path d="M85.0435 57.8321C85.5319 58.0899 86.1368 57.9029 86.3946 57.4144L90.595 49.4547C90.8527 48.9663 90.6657 48.3613 90.1772 48.1036C89.6888 47.8458 89.0839 48.0328 88.8261 48.5213L85.0925 55.5966L78.0172 51.8629C77.5287 51.6052 76.9238 51.7922 76.6661 52.2807C76.4083 52.7691 76.5953 53.374 77.0838 53.6318L85.0435 57.8321ZM97.0403 38.3365C97.5788 38.2139 97.916 37.678 97.7934 37.1395C97.6709 36.601 97.135 36.2638 96.5965 36.3863L97.0403 38.3365ZM86.4656 56.6523C85.1041 52.2484 85.6559 48.2795 87.4965 45.0916L85.7644 44.0916C83.6305 47.7875 83.0379 52.3363 84.5548 57.2431L86.4656 56.6523ZM87.4965 45.0916C88.3898 43.5442 89.9605 42.0314 91.7611 40.801C93.5591 39.5725 95.4944 38.6882 97.0403 38.3365L96.5965 36.3863C94.7485 36.8069 92.5835 37.8168 90.6328 39.1497C88.6847 40.4809 86.8583 42.1969 85.7644 44.0916L87.4965 45.0916Z" fill="black"/>
<path d="M86.1929 83.6304C86.5683 83.2254 86.5442 82.5926 86.1391 82.2173L79.5378 76.0999C79.1327 75.7245 78.5 75.7486 78.1246 76.1537C77.7492 76.5588 77.7733 77.1915 78.1783 77.5669L84.0462 83.0045L78.6086 88.8724C78.2332 89.2775 78.2573 89.9102 78.6624 90.2856C79.0674 90.661 79.7002 90.6369 80.0755 90.2318L86.1929 83.6304ZM72.2668 68.7969C72.2878 68.245 71.8574 67.7806 71.3055 67.7596C70.7536 67.7386 70.2892 68.1689 70.2682 68.7208L72.2668 68.7969ZM85.4214 81.9515C81.3633 82.1059 78.1188 80.7319 75.8322 78.4454L74.418 79.8596C77.1194 82.561 80.9134 84.1245 85.4974 83.95L85.4214 81.9515ZM75.8322 78.4454C74.727 77.3402 73.7983 75.6632 73.1606 73.8466C72.5239 72.033 72.2139 70.1853 72.2668 68.7969L70.2682 68.7208C70.2036 70.4188 70.5755 72.521 71.2735 74.5091C71.9704 76.4942 73.0293 78.4708 74.418 79.8596L75.8322 78.4454Z" fill="black"/>
</g>
<defs>
<clipPath id="clip0_18_573">
<rect width="180" height="180" rx="20" fill="white"/>
</clipPath>
<clipPath id="clip1_18_573">
<path d="M0 30L-1.31134e-06 0L30 -1.31134e-06L30 10C30 21.0457 21.0457 30 10 30L0 30Z" fill="white"/>
</clipPath>
</defs>
</svg>
