<svg width="180" height="180" viewBox="0 0 180 180" fill="none" xmlns="http://www.w3.org/2000/svg">
<g clip-path="url(#clip0_18_598)">
<rect width="180" height="180" rx="20" fill="#F2F2F2"/>
<g clip-path="url(#clip1_18_598)">
<path d="M0 30L-1.31134e-06 0L30 -1.31134e-06L30 10C30 21.0457 21.0457 30 10 30L0 30Z" fill="#333333"/>
<path d="M14.7062 14.008C16.2849 14.008 17.4475 14.3227 18.1942 14.952C18.9515 15.5813 19.3302 16.424 19.3302 17.48C19.3302 18.1627 19.1595 18.7867 18.8182 19.352C18.4769 19.9067 17.9542 20.3547 17.2502 20.696C16.5569 21.0267 15.6982 21.192 14.6742 21.192C13.8849 21.192 13.1062 21.0907 12.3382 20.888C11.5809 20.6747 10.9355 20.376 10.4022 19.992L11.4262 18.008C11.8529 18.328 12.3435 18.5787 12.8982 18.76C13.4529 18.9307 14.0235 19.016 14.6102 19.016C15.2609 19.016 15.7729 18.888 16.1462 18.632C16.5195 18.376 16.7062 18.0187 16.7062 17.56C16.7062 17.08 16.5089 16.7173 16.1142 16.472C15.7302 16.2267 15.0582 16.104 14.0982 16.104H11.2342L11.8102 9.8H18.6422V11.88H13.9702L13.7942 14.008H14.7062Z" fill="#F2F2F2"/>
</g>
<path d="M29.6095 124.572H33.9415V125.604H29.6095V124.572ZM29.7295 129H28.5295V120.6H34.4575V121.644H29.7295V129ZM38.5035 129.072C37.8635 129.072 37.2955 128.932 36.7995 128.652C36.3035 128.372 35.9115 127.988 35.6235 127.5C35.3355 127.004 35.1915 126.444 35.1915 125.82C35.1915 125.188 35.3355 124.628 35.6235 124.14C35.9115 123.652 36.3035 123.272 36.7995 123C37.2955 122.72 37.8635 122.58 38.5035 122.58C39.1355 122.58 39.6995 122.72 40.1955 123C40.6995 123.272 41.0915 123.652 41.3715 124.14C41.6595 124.62 41.8035 125.18 41.8035 125.82C41.8035 126.452 41.6595 127.012 41.3715 127.5C41.0915 127.988 40.6995 128.372 40.1955 128.652C39.6995 128.932 39.1355 129.072 38.5035 129.072ZM38.5035 128.064C38.9115 128.064 39.2755 127.972 39.5955 127.788C39.9235 127.604 40.1795 127.344 40.3635 127.008C40.5475 126.664 40.6395 126.268 40.6395 125.82C40.6395 125.364 40.5475 124.972 40.3635 124.644C40.1795 124.308 39.9235 124.048 39.5955 123.864C39.2755 123.68 38.9115 123.588 38.5035 123.588C38.0955 123.588 37.7315 123.68 37.4115 123.864C37.0915 124.048 36.8355 124.308 36.6435 124.644C36.4515 124.972 36.3555 125.364 36.3555 125.82C36.3555 126.268 36.4515 126.664 36.6435 127.008C36.8355 127.344 37.0915 127.604 37.4115 127.788C37.7315 127.972 38.0955 128.064 38.5035 128.064ZM43.3967 129V120.096H44.5487V129H43.3967ZM49.3763 129.072C48.7603 129.072 48.2083 128.936 47.7203 128.664C47.2403 128.392 46.8603 128.012 46.5803 127.524C46.3003 127.036 46.1603 126.468 46.1603 125.82C46.1603 125.172 46.3003 124.608 46.5803 124.128C46.8603 123.64 47.2403 123.26 47.7203 122.988C48.2083 122.716 48.7603 122.58 49.3763 122.58C49.9123 122.58 50.3963 122.7 50.8283 122.94C51.2603 123.18 51.6043 123.54 51.8603 124.02C52.1243 124.5 52.2563 125.1 52.2563 125.82C52.2563 126.54 52.1283 127.14 51.8723 127.62C51.6243 128.1 51.2843 128.464 50.8523 128.712C50.4203 128.952 49.9283 129.072 49.3763 129.072ZM49.4723 128.064C49.8723 128.064 50.2323 127.972 50.5523 127.788C50.8803 127.604 51.1363 127.344 51.3203 127.008C51.5123 126.664 51.6083 126.268 51.6083 125.82C51.6083 125.364 51.5123 124.972 51.3203 124.644C51.1363 124.308 50.8803 124.048 50.5523 123.864C50.2323 123.68 49.8723 123.588 49.4723 123.588C49.0643 123.588 48.7003 123.68 48.3803 123.864C48.0603 124.048 47.8043 124.308 47.6123 124.644C47.4203 124.972 47.3243 125.364 47.3243 125.82C47.3243 126.268 47.4203 126.664 47.6123 127.008C47.8043 127.344 48.0603 127.604 48.3803 127.788C48.7003 127.972 49.0643 128.064 49.4723 128.064ZM51.6443 129V127.284L51.7162 125.808L51.5963 124.332V120.096H52.7483V129H51.6443ZM60.3346 129.072C59.6946 129.072 59.1986 128.9 58.8466 128.556C58.4946 128.212 58.3186 127.72 58.3186 127.08V121.248H59.4706V127.032C59.4706 127.376 59.5546 127.64 59.7226 127.824C59.8986 128.008 60.1466 128.1 60.4666 128.1C60.8266 128.1 61.1266 128 61.3666 127.8L61.7266 128.628C61.5506 128.78 61.3386 128.892 61.0906 128.964C60.8506 129.036 60.5986 129.072 60.3346 129.072ZM57.2386 123.588V122.64H61.2946V123.588H57.2386ZM66.5153 122.58C67.0353 122.58 67.4913 122.68 67.8833 122.88C68.2833 123.08 68.5953 123.384 68.8193 123.792C69.0433 124.2 69.1553 124.716 69.1553 125.34V129H68.0033V125.472C68.0033 124.856 67.8513 124.392 67.5473 124.08C67.2513 123.768 66.8313 123.612 66.2873 123.612C65.8793 123.612 65.5233 123.692 65.2193 123.852C64.9153 124.012 64.6793 124.248 64.5113 124.56C64.3513 124.872 64.2713 125.26 64.2713 125.724V129H63.1193V120.096H64.2713V124.356L64.0433 123.9C64.2513 123.484 64.5713 123.16 65.0033 122.928C65.4353 122.696 65.9393 122.58 66.5153 122.58ZM74.1193 129.072C73.4393 129.072 72.8393 128.932 72.3193 128.652C71.8073 128.372 71.4073 127.988 71.1193 127.5C70.8393 127.012 70.6993 126.452 70.6993 125.82C70.6993 125.188 70.8353 124.628 71.1073 124.14C71.3873 123.652 71.7673 123.272 72.2473 123C72.7353 122.72 73.2833 122.58 73.8913 122.58C74.5073 122.58 75.0513 122.716 75.5233 122.988C75.9953 123.26 76.3633 123.644 76.6273 124.14C76.8993 124.628 77.0353 125.2 77.0353 125.856C77.0353 125.904 77.0313 125.96 77.0233 126.024C77.0233 126.088 77.0193 126.148 77.0113 126.204H71.5993V125.376H76.4113L75.9433 125.664C75.9513 125.256 75.8673 124.892 75.6913 124.572C75.5153 124.252 75.2713 124.004 74.9593 123.828C74.6553 123.644 74.2993 123.552 73.8913 123.552C73.4913 123.552 73.1353 123.644 72.8233 123.828C72.5113 124.004 72.2673 124.256 72.0913 124.584C71.9153 124.904 71.8273 125.272 71.8273 125.688V125.88C71.8273 126.304 71.9233 126.684 72.1153 127.02C72.3153 127.348 72.5913 127.604 72.9433 127.788C73.2953 127.972 73.6993 128.064 74.1553 128.064C74.5313 128.064 74.8713 128 75.1753 127.872C75.4873 127.744 75.7593 127.552 75.9913 127.296L76.6273 128.04C76.3393 128.376 75.9793 128.632 75.5473 128.808C75.1233 128.984 74.6473 129.072 74.1193 129.072ZM84.0416 129.072C83.4016 129.072 82.9056 128.9 82.5536 128.556C82.2016 128.212 82.0256 127.72 82.0256 127.08V121.248H83.1776V127.032C83.1776 127.376 83.2616 127.64 83.4296 127.824C83.6056 128.008 83.8536 128.1 84.1736 128.1C84.5336 128.1 84.8336 128 85.0736 127.8L85.4336 128.628C85.2576 128.78 85.0456 128.892 84.7976 128.964C84.5576 129.036 84.3056 129.072 84.0416 129.072ZM80.9456 123.588V122.64H85.0016V123.588H80.9456ZM88.0532 129L85.6892 122.64H86.7812L88.8812 128.4H88.3652L90.5492 122.64H91.5212L93.6572 128.4H93.1532L95.3012 122.64H96.3332L93.9572 129H92.8532L90.8492 123.744H91.1852L89.1572 129H88.0532ZM100.05 129.072C99.4104 129.072 98.8424 128.932 98.3464 128.652C97.8504 128.372 97.4584 127.988 97.1704 127.5C96.8824 127.004 96.7384 126.444 96.7384 125.82C96.7384 125.188 96.8824 124.628 97.1704 124.14C97.4584 123.652 97.8504 123.272 98.3464 123C98.8424 122.72 99.4104 122.58 100.05 122.58C100.682 122.58 101.246 122.72 101.742 123C102.246 123.272 102.638 123.652 102.918 124.14C103.206 124.62 103.35 125.18 103.35 125.82C103.35 126.452 103.206 127.012 102.918 127.5C102.638 127.988 102.246 128.372 101.742 128.652C101.246 128.932 100.682 129.072 100.05 129.072ZM100.05 128.064C100.458 128.064 100.822 127.972 101.142 127.788C101.47 127.604 101.726 127.344 101.91 127.008C102.094 126.664 102.186 126.268 102.186 125.82C102.186 125.364 102.094 124.972 101.91 124.644C101.726 124.308 101.47 124.048 101.142 123.864C100.822 123.68 100.458 123.588 100.05 123.588C99.6424 123.588 99.2784 123.68 98.9584 123.864C98.6384 124.048 98.3824 124.308 98.1904 124.644C97.9984 124.972 97.9024 125.364 97.9024 125.82C97.9024 126.268 97.9984 126.664 98.1904 127.008C98.3824 127.344 98.6384 127.604 98.9584 127.788C99.2784 127.972 99.6424 128.064 100.05 128.064ZM110.938 129.072C110.29 129.072 109.71 128.932 109.198 128.652C108.694 128.372 108.298 127.988 108.01 127.5C107.722 127.012 107.578 126.452 107.578 125.82C107.578 125.188 107.722 124.628 108.01 124.14C108.298 123.652 108.694 123.272 109.198 123C109.71 122.72 110.29 122.58 110.938 122.58C111.514 122.58 112.026 122.696 112.474 122.928C112.93 123.152 113.282 123.488 113.53 123.936L112.654 124.5C112.446 124.188 112.19 123.96 111.886 123.816C111.59 123.664 111.27 123.588 110.926 123.588C110.51 123.588 110.138 123.68 109.81 123.864C109.482 124.048 109.222 124.308 109.03 124.644C108.838 124.972 108.742 125.364 108.742 125.82C108.742 126.276 108.838 126.672 109.03 127.008C109.222 127.344 109.482 127.604 109.81 127.788C110.138 127.972 110.51 128.064 110.926 128.064C111.27 128.064 111.59 127.992 111.886 127.848C112.19 127.696 112.446 127.464 112.654 127.152L113.53 127.704C113.282 128.144 112.93 128.484 112.474 128.724C112.026 128.956 111.514 129.072 110.938 129.072ZM117.652 129.072C117.012 129.072 116.444 128.932 115.948 128.652C115.452 128.372 115.06 127.988 114.772 127.5C114.484 127.004 114.34 126.444 114.34 125.82C114.34 125.188 114.484 124.628 114.772 124.14C115.06 123.652 115.452 123.272 115.948 123C116.444 122.72 117.012 122.58 117.652 122.58C118.284 122.58 118.848 122.72 119.344 123C119.848 123.272 120.24 123.652 120.52 124.14C120.808 124.62 120.952 125.18 120.952 125.82C120.952 126.452 120.808 127.012 120.52 127.5C120.24 127.988 119.848 128.372 119.344 128.652C118.848 128.932 118.284 129.072 117.652 129.072ZM117.652 128.064C118.06 128.064 118.424 127.972 118.744 127.788C119.072 127.604 119.328 127.344 119.512 127.008C119.696 126.664 119.788 126.268 119.788 125.82C119.788 125.364 119.696 124.972 119.512 124.644C119.328 124.308 119.072 124.048 118.744 123.864C118.424 123.68 118.06 123.588 117.652 123.588C117.244 123.588 116.88 123.68 116.56 123.864C116.24 124.048 115.984 124.308 115.792 124.644C115.6 124.972 115.504 125.364 115.504 125.82C115.504 126.268 115.6 126.664 115.792 127.008C115.984 127.344 116.24 127.604 116.56 127.788C116.88 127.972 117.244 128.064 117.652 128.064ZM122.545 129V122.64H123.649V124.368L123.541 123.936C123.717 123.496 124.013 123.16 124.429 122.928C124.845 122.696 125.357 122.58 125.965 122.58V123.696C125.917 123.688 125.869 123.684 125.821 123.684C125.781 123.684 125.741 123.684 125.701 123.684C125.085 123.684 124.597 123.868 124.237 124.236C123.877 124.604 123.697 125.136 123.697 125.832V129H122.545ZM130.781 122.58C131.301 122.58 131.757 122.68 132.149 122.88C132.549 123.08 132.861 123.384 133.085 123.792C133.309 124.2 133.421 124.716 133.421 125.34V129H132.269V125.472C132.269 124.856 132.117 124.392 131.813 124.08C131.517 123.768 131.097 123.612 130.553 123.612C130.145 123.612 129.789 123.692 129.485 123.852C129.181 124.012 128.945 124.248 128.777 124.56C128.617 124.872 128.537 125.26 128.537 125.724V129H127.385V122.64H128.489V124.356L128.309 123.9C128.517 123.484 128.837 123.16 129.269 122.928C129.701 122.696 130.205 122.58 130.781 122.58ZM138.385 129.072C137.705 129.072 137.105 128.932 136.585 128.652C136.073 128.372 135.673 127.988 135.385 127.5C135.105 127.012 134.965 126.452 134.965 125.82C134.965 125.188 135.101 124.628 135.373 124.14C135.653 123.652 136.033 123.272 136.513 123C137.001 122.72 137.549 122.58 138.157 122.58C138.773 122.58 139.317 122.716 139.789 122.988C140.261 123.26 140.629 123.644 140.893 124.14C141.165 124.628 141.301 125.2 141.301 125.856C141.301 125.904 141.297 125.96 141.289 126.024C141.289 126.088 141.285 126.148 141.277 126.204H135.865V125.376H140.677L140.209 125.664C140.217 125.256 140.133 124.892 139.957 124.572C139.781 124.252 139.537 124.004 139.225 123.828C138.921 123.644 138.565 123.552 138.157 123.552C137.757 123.552 137.401 123.644 137.089 123.828C136.777 124.004 136.533 124.256 136.357 124.584C136.181 124.904 136.093 125.272 136.093 125.688V125.88C136.093 126.304 136.189 126.684 136.381 127.02C136.581 127.348 136.857 127.604 137.209 127.788C137.561 127.972 137.965 128.064 138.421 128.064C138.797 128.064 139.137 128 139.441 127.872C139.753 127.744 140.025 127.552 140.257 127.296L140.893 128.04C140.605 128.376 140.245 128.632 139.813 128.808C139.389 128.984 138.913 129.072 138.385 129.072ZM142.901 129V122.64H144.005V124.368L143.897 123.936C144.073 123.496 144.369 123.16 144.785 122.928C145.201 122.696 145.713 122.58 146.321 122.58V123.696C146.273 123.688 146.225 123.684 146.177 123.684C146.137 123.684 146.097 123.684 146.057 123.684C145.441 123.684 144.953 123.868 144.593 124.236C144.233 124.604 144.053 125.136 144.053 125.832V129H142.901ZM149.635 129.072C149.107 129.072 148.603 129 148.123 128.856C147.651 128.712 147.279 128.536 147.007 128.328L147.487 127.416C147.759 127.6 148.095 127.756 148.495 127.884C148.895 128.012 149.303 128.076 149.719 128.076C150.255 128.076 150.639 128 150.871 127.848C151.111 127.696 151.231 127.484 151.231 127.212C151.231 127.012 151.159 126.856 151.015 126.744C150.871 126.632 150.679 126.548 150.439 126.492C150.207 126.436 149.947 126.388 149.659 126.348C149.371 126.3 149.083 126.244 148.795 126.18C148.507 126.108 148.243 126.012 148.003 125.892C147.763 125.764 147.571 125.592 147.427 125.376C147.283 125.152 147.211 124.856 147.211 124.488C147.211 124.104 147.319 123.768 147.535 123.48C147.751 123.192 148.055 122.972 148.447 122.82C148.847 122.66 149.319 122.58 149.863 122.58C150.279 122.58 150.699 122.632 151.123 122.736C151.555 122.832 151.907 122.972 152.179 123.156L151.687 124.068C151.399 123.876 151.099 123.744 150.787 123.672C150.475 123.6 150.163 123.564 149.851 123.564C149.347 123.564 148.971 123.648 148.723 123.816C148.475 123.976 148.351 124.184 148.351 124.44C148.351 124.656 148.423 124.824 148.567 124.944C148.719 125.056 148.911 125.144 149.143 125.208C149.383 125.272 149.647 125.328 149.935 125.376C150.223 125.416 150.511 125.472 150.799 125.544C151.087 125.608 151.347 125.7 151.579 125.82C151.819 125.94 152.011 126.108 152.155 126.324C152.307 126.54 152.383 126.828 152.383 127.188C152.383 127.572 152.271 127.904 152.047 128.184C151.823 128.464 151.507 128.684 151.099 128.844C150.691 128.996 150.203 129.072 149.635 129.072ZM21.3537 144V137.64H22.5057V144H21.3537ZM21.9297 136.416C21.7057 136.416 21.5177 136.344 21.3657 136.2C21.2217 136.056 21.1497 135.88 21.1497 135.672C21.1497 135.456 21.2217 135.276 21.3657 135.132C21.5177 134.988 21.7057 134.916 21.9297 134.916C22.1537 134.916 22.3377 134.988 22.4817 135.132C22.6337 135.268 22.7097 135.44 22.7097 135.648C22.7097 135.864 22.6377 136.048 22.4937 136.2C22.3497 136.344 22.1617 136.416 21.9297 136.416ZM28.1013 137.58C28.6213 137.58 29.0773 137.68 29.4693 137.88C29.8693 138.08 30.1813 138.384 30.4053 138.792C30.6293 139.2 30.7413 139.716 30.7413 140.34V144H29.5893V140.472C29.5893 139.856 29.4373 139.392 29.1333 139.08C28.8373 138.768 28.4173 138.612 27.8733 138.612C27.4653 138.612 27.1093 138.692 26.8053 138.852C26.5013 139.012 26.2653 139.248 26.0973 139.56C25.9373 139.872 25.8573 140.26 25.8573 140.724V144H24.7053V137.64H25.8093V139.356L25.6293 138.9C25.8373 138.484 26.1573 138.16 26.5893 137.928C27.0213 137.696 27.5253 137.58 28.1013 137.58ZM35.5013 144.072C34.8853 144.072 34.3333 143.936 33.8453 143.664C33.3653 143.392 32.9853 143.012 32.7053 142.524C32.4253 142.036 32.2853 141.468 32.2853 140.82C32.2853 140.172 32.4253 139.608 32.7053 139.128C32.9853 138.64 33.3653 138.26 33.8453 137.988C34.3333 137.716 34.8853 137.58 35.5013 137.58C36.0373 137.58 36.5213 137.7 36.9533 137.94C37.3853 138.18 37.7293 138.54 37.9853 139.02C38.2493 139.5 38.3813 140.1 38.3813 140.82C38.3813 141.54 38.2533 142.14 37.9973 142.62C37.7493 143.1 37.4093 143.464 36.9773 143.712C36.5453 143.952 36.0533 144.072 35.5013 144.072ZM35.5973 143.064C35.9973 143.064 36.3573 142.972 36.6773 142.788C37.0053 142.604 37.2613 142.344 37.4453 142.008C37.6373 141.664 37.7333 141.268 37.7333 140.82C37.7333 140.364 37.6373 139.972 37.4453 139.644C37.2613 139.308 37.0053 139.048 36.6773 138.864C36.3573 138.68 35.9973 138.588 35.5973 138.588C35.1893 138.588 34.8253 138.68 34.5053 138.864C34.1853 139.048 33.9293 139.308 33.7373 139.644C33.5453 139.972 33.4493 140.364 33.4493 140.82C33.4493 141.268 33.5453 141.664 33.7373 142.008C33.9293 142.344 34.1853 142.604 34.5053 142.788C34.8253 142.972 35.1893 143.064 35.5973 143.064ZM37.7693 144V142.284L37.8412 140.808L37.7213 139.332V135.096H38.8733V144H37.7693ZM41.0529 144V137.64H42.2049V144H41.0529ZM41.6289 136.416C41.4049 136.416 41.2169 136.344 41.0649 136.2C40.9209 136.056 40.8489 135.88 40.8489 135.672C40.8489 135.456 40.9209 135.276 41.0649 135.132C41.2169 134.988 41.4049 134.916 41.6289 134.916C41.8529 134.916 42.0369 134.988 42.1809 135.132C42.3329 135.268 42.4089 135.44 42.4089 135.648C42.4089 135.864 42.3369 136.048 42.1929 136.2C42.0489 136.344 41.8609 136.416 41.6289 136.416ZM47.1765 144.072C46.5285 144.072 45.9485 143.932 45.4365 143.652C44.9325 143.372 44.5365 142.988 44.2485 142.5C43.9605 142.012 43.8165 141.452 43.8165 140.82C43.8165 140.188 43.9605 139.628 44.2485 139.14C44.5365 138.652 44.9325 138.272 45.4365 138C45.9485 137.72 46.5285 137.58 47.1765 137.58C47.7525 137.58 48.2645 137.696 48.7125 137.928C49.1685 138.152 49.5205 138.488 49.7685 138.936L48.8925 139.5C48.6845 139.188 48.4285 138.96 48.1245 138.816C47.8285 138.664 47.5085 138.588 47.1645 138.588C46.7485 138.588 46.3765 138.68 46.0485 138.864C45.7205 139.048 45.4605 139.308 45.2685 139.644C45.0765 139.972 44.9805 140.364 44.9805 140.82C44.9805 141.276 45.0765 141.672 45.2685 142.008C45.4605 142.344 45.7205 142.604 46.0485 142.788C46.3765 142.972 46.7485 143.064 47.1645 143.064C47.5085 143.064 47.8285 142.992 48.1245 142.848C48.4285 142.696 48.6845 142.464 48.8925 142.152L49.7685 142.704C49.5205 143.144 49.1685 143.484 48.7125 143.724C48.2645 143.956 47.7525 144.072 47.1765 144.072ZM55.208 144V142.656L55.148 142.404V140.112C55.148 139.624 55.004 139.248 54.716 138.984C54.436 138.712 54.012 138.576 53.444 138.576C53.068 138.576 52.7 138.64 52.34 138.768C51.98 138.888 51.676 139.052 51.428 139.26L50.948 138.396C51.276 138.132 51.668 137.932 52.124 137.796C52.588 137.652 53.072 137.58 53.576 137.58C54.448 137.58 55.12 137.792 55.592 138.216C56.064 138.64 56.3 139.288 56.3 140.16V144H55.208ZM53.12 144.072C52.648 144.072 52.232 143.992 51.872 143.832C51.52 143.672 51.248 143.452 51.056 143.172C50.864 142.884 50.768 142.56 50.768 142.2C50.768 141.856 50.848 141.544 51.008 141.264C51.176 140.984 51.444 140.76 51.812 140.592C52.188 140.424 52.692 140.34 53.324 140.34H55.34V141.168H53.372C52.796 141.168 52.408 141.264 52.208 141.456C52.008 141.648 51.908 141.88 51.908 142.152C51.908 142.464 52.032 142.716 52.28 142.908C52.528 143.092 52.872 143.184 53.312 143.184C53.744 143.184 54.12 143.088 54.44 142.896C54.768 142.704 55.004 142.424 55.148 142.056L55.376 142.848C55.224 143.224 54.956 143.524 54.572 143.748C54.188 143.964 53.704 144.072 53.12 144.072ZM60.6158 144.072C59.9758 144.072 59.4798 143.9 59.1278 143.556C58.7758 143.212 58.5998 142.72 58.5998 142.08V136.248H59.7518V142.032C59.7518 142.376 59.8358 142.64 60.0038 142.824C60.1798 143.008 60.4278 143.1 60.7478 143.1C61.1078 143.1 61.4078 143 61.6478 142.8L62.0078 143.628C61.8318 143.78 61.6198 143.892 61.3718 143.964C61.1318 144.036 60.8798 144.072 60.6158 144.072ZM57.5198 138.588V137.64H61.5758V138.588H57.5198ZM66.0217 144.072C65.3417 144.072 64.7417 143.932 64.2217 143.652C63.7097 143.372 63.3097 142.988 63.0217 142.5C62.7417 142.012 62.6017 141.452 62.6017 140.82C62.6017 140.188 62.7377 139.628 63.0097 139.14C63.2897 138.652 63.6697 138.272 64.1497 138C64.6377 137.72 65.1857 137.58 65.7937 137.58C66.4097 137.58 66.9537 137.716 67.4257 137.988C67.8977 138.26 68.2657 138.644 68.5297 139.14C68.8017 139.628 68.9377 140.2 68.9377 140.856C68.9377 140.904 68.9337 140.96 68.9257 141.024C68.9257 141.088 68.9217 141.148 68.9137 141.204H63.5017V140.376H68.3137L67.8457 140.664C67.8537 140.256 67.7697 139.892 67.5937 139.572C67.4177 139.252 67.1737 139.004 66.8617 138.828C66.5577 138.644 66.2017 138.552 65.7937 138.552C65.3937 138.552 65.0377 138.644 64.7257 138.828C64.4137 139.004 64.1697 139.256 63.9937 139.584C63.8177 139.904 63.7297 140.272 63.7297 140.688V140.88C63.7297 141.304 63.8257 141.684 64.0177 142.02C64.2177 142.348 64.4937 142.604 64.8457 142.788C65.1977 142.972 65.6017 143.064 66.0577 143.064C66.4337 143.064 66.7737 143 67.0777 142.872C67.3897 142.744 67.6617 142.552 67.8937 142.296L68.5297 143.04C68.2417 143.376 67.8817 143.632 67.4497 143.808C67.0257 143.984 66.5497 144.072 66.0217 144.072ZM73.1653 144.072C72.5493 144.072 71.9973 143.936 71.5093 143.664C71.0293 143.392 70.6493 143.012 70.3693 142.524C70.0893 142.036 69.9493 141.468 69.9493 140.82C69.9493 140.172 70.0893 139.608 70.3693 139.128C70.6493 138.64 71.0293 138.26 71.5093 137.988C71.9973 137.716 72.5493 137.58 73.1653 137.58C73.7013 137.58 74.1853 137.7 74.6173 137.94C75.0493 138.18 75.3933 138.54 75.6493 139.02C75.9133 139.5 76.0453 140.1 76.0453 140.82C76.0453 141.54 75.9173 142.14 75.6613 142.62C75.4133 143.1 75.0733 143.464 74.6413 143.712C74.2093 143.952 73.7173 144.072 73.1653 144.072ZM73.2613 143.064C73.6613 143.064 74.0213 142.972 74.3413 142.788C74.6693 142.604 74.9253 142.344 75.1093 142.008C75.3013 141.664 75.3973 141.268 75.3973 140.82C75.3973 140.364 75.3013 139.972 75.1093 139.644C74.9253 139.308 74.6693 139.048 74.3413 138.864C74.0213 138.68 73.6613 138.588 73.2613 138.588C72.8533 138.588 72.4893 138.68 72.1693 138.864C71.8493 139.048 71.5933 139.308 71.4013 139.644C71.2093 139.972 71.1133 140.364 71.1133 140.82C71.1133 141.268 71.2093 141.664 71.4013 142.008C71.5933 142.344 71.8493 142.604 72.1693 142.788C72.4893 142.972 72.8533 143.064 73.2613 143.064ZM75.4333 144V142.284L75.5053 140.808L75.3853 139.332V135.096H76.5373V144H75.4333ZM84.6637 144.072C84.0237 144.072 83.4557 143.932 82.9597 143.652C82.4637 143.372 82.0717 142.988 81.7837 142.5C81.4957 142.004 81.3517 141.444 81.3517 140.82C81.3517 140.188 81.4957 139.628 81.7837 139.14C82.0717 138.652 82.4637 138.272 82.9597 138C83.4557 137.72 84.0237 137.58 84.6637 137.58C85.2957 137.58 85.8597 137.72 86.3557 138C86.8597 138.272 87.2517 138.652 87.5317 139.14C87.8197 139.62 87.9637 140.18 87.9637 140.82C87.9637 141.452 87.8197 142.012 87.5317 142.5C87.2517 142.988 86.8597 143.372 86.3557 143.652C85.8597 143.932 85.2957 144.072 84.6637 144.072ZM84.6637 143.064C85.0717 143.064 85.4357 142.972 85.7557 142.788C86.0837 142.604 86.3397 142.344 86.5237 142.008C86.7077 141.664 86.7997 141.268 86.7997 140.82C86.7997 140.364 86.7077 139.972 86.5237 139.644C86.3397 139.308 86.0837 139.048 85.7557 138.864C85.4357 138.68 85.0717 138.588 84.6637 138.588C84.2557 138.588 83.8917 138.68 83.5717 138.864C83.2517 139.048 82.9957 139.308 82.8037 139.644C82.6117 139.972 82.5157 140.364 82.5157 140.82C82.5157 141.268 82.6117 141.664 82.8037 142.008C82.9957 142.344 83.2517 142.604 83.5717 142.788C83.8917 142.972 84.2557 143.064 84.6637 143.064ZM92.9528 137.58C93.4728 137.58 93.9288 137.68 94.3208 137.88C94.7208 138.08 95.0328 138.384 95.2568 138.792C95.4808 139.2 95.5928 139.716 95.5928 140.34V144H94.4408V140.472C94.4408 139.856 94.2888 139.392 93.9848 139.08C93.6888 138.768 93.2688 138.612 92.7248 138.612C92.3168 138.612 91.9608 138.692 91.6568 138.852C91.3528 139.012 91.1168 139.248 90.9488 139.56C90.7888 139.872 90.7088 140.26 90.7088 140.724V144H89.5568V137.64H90.6608V139.356L90.4808 138.9C90.6888 138.484 91.0088 138.16 91.4408 137.928C91.8728 137.696 92.3768 137.58 92.9528 137.58ZM103.131 144.072C102.491 144.072 101.995 143.9 101.643 143.556C101.291 143.212 101.115 142.72 101.115 142.08V136.248H102.267V142.032C102.267 142.376 102.351 142.64 102.519 142.824C102.695 143.008 102.943 143.1 103.263 143.1C103.623 143.1 103.923 143 104.163 142.8L104.523 143.628C104.347 143.78 104.135 143.892 103.887 143.964C103.647 144.036 103.395 144.072 103.131 144.072ZM100.035 138.588V137.64H104.091V138.588H100.035ZM109.312 137.58C109.832 137.58 110.288 137.68 110.68 137.88C111.08 138.08 111.392 138.384 111.616 138.792C111.84 139.2 111.952 139.716 111.952 140.34V144H110.8V140.472C110.8 139.856 110.648 139.392 110.344 139.08C110.048 138.768 109.628 138.612 109.084 138.612C108.676 138.612 108.32 138.692 108.016 138.852C107.712 139.012 107.476 139.248 107.308 139.56C107.148 139.872 107.068 140.26 107.068 140.724V144H105.916V135.096H107.068V139.356L106.84 138.9C107.048 138.484 107.368 138.16 107.8 137.928C108.232 137.696 108.736 137.58 109.312 137.58ZM116.916 144.072C116.236 144.072 115.636 143.932 115.116 143.652C114.604 143.372 114.204 142.988 113.916 142.5C113.636 142.012 113.496 141.452 113.496 140.82C113.496 140.188 113.632 139.628 113.904 139.14C114.184 138.652 114.564 138.272 115.044 138C115.532 137.72 116.08 137.58 116.688 137.58C117.304 137.58 117.848 137.716 118.32 137.988C118.792 138.26 119.16 138.644 119.424 139.14C119.696 139.628 119.832 140.2 119.832 140.856C119.832 140.904 119.828 140.96 119.82 141.024C119.82 141.088 119.816 141.148 119.808 141.204H114.396V140.376H119.208L118.74 140.664C118.748 140.256 118.664 139.892 118.488 139.572C118.312 139.252 118.068 139.004 117.756 138.828C117.452 138.644 117.096 138.552 116.688 138.552C116.288 138.552 115.932 138.644 115.62 138.828C115.308 139.004 115.064 139.256 114.888 139.584C114.712 139.904 114.624 140.272 114.624 140.688V140.88C114.624 141.304 114.72 141.684 114.912 142.02C115.112 142.348 115.388 142.604 115.74 142.788C116.092 142.972 116.496 143.064 116.952 143.064C117.328 143.064 117.668 143 117.972 142.872C118.284 142.744 118.556 142.552 118.788 142.296L119.424 143.04C119.136 143.376 118.776 143.632 118.344 143.808C117.92 143.984 117.444 144.072 116.916 144.072ZM127.439 146.4C126.855 146.4 126.287 146.316 125.735 146.148C125.191 145.988 124.747 145.756 124.403 145.452L124.955 144.564C125.251 144.82 125.615 145.02 126.047 145.164C126.479 145.316 126.931 145.392 127.403 145.392C128.155 145.392 128.707 145.216 129.059 144.864C129.411 144.512 129.587 143.976 129.587 143.256V141.912L129.707 140.652L129.647 139.38V137.64H130.739V143.136C130.739 144.256 130.459 145.08 129.898 145.608C129.339 146.136 128.519 146.4 127.439 146.4ZM127.295 143.736C126.679 143.736 126.127 143.608 125.639 143.352C125.159 143.088 124.775 142.724 124.487 142.26C124.207 141.796 124.067 141.26 124.067 140.652C124.067 140.036 124.207 139.5 124.487 139.044C124.775 138.58 125.159 138.22 125.639 137.964C126.127 137.708 126.679 137.58 127.295 137.58C127.839 137.58 128.335 137.692 128.783 137.916C129.231 138.132 129.587 138.468 129.851 138.924C130.123 139.38 130.259 139.956 130.259 140.652C130.259 141.34 130.123 141.912 129.851 142.368C129.587 142.824 129.231 143.168 128.783 143.4C128.335 143.624 127.839 143.736 127.295 143.736ZM127.427 142.728C127.851 142.728 128.227 142.64 128.555 142.464C128.883 142.288 129.139 142.044 129.323 141.732C129.515 141.42 129.611 141.06 129.611 140.652C129.611 140.244 129.515 139.884 129.323 139.572C129.139 139.26 128.883 139.02 128.555 138.852C128.227 138.676 127.851 138.588 127.427 138.588C127.003 138.588 126.623 138.676 126.287 138.852C125.959 139.02 125.699 139.26 125.507 139.572C125.323 139.884 125.231 140.244 125.231 140.652C125.231 141.06 125.323 141.42 125.507 141.732C125.699 142.044 125.959 142.288 126.287 142.464C126.623 142.64 127.003 142.728 127.427 142.728ZM132.94 144V137.64H134.044V139.368L133.936 138.936C134.112 138.496 134.408 138.16 134.824 137.928C135.24 137.696 135.752 137.58 136.36 137.58V138.696C136.312 138.688 136.264 138.684 136.216 138.684C136.176 138.684 136.136 138.684 136.096 138.684C135.48 138.684 134.992 138.868 134.632 139.236C134.272 139.604 134.092 140.136 134.092 140.832V144H132.94ZM141.259 144V142.656L141.199 142.404V140.112C141.199 139.624 141.055 139.248 140.767 138.984C140.487 138.712 140.063 138.576 139.495 138.576C139.119 138.576 138.751 138.64 138.391 138.768C138.031 138.888 137.727 139.052 137.479 139.26L136.999 138.396C137.327 138.132 137.719 137.932 138.175 137.796C138.639 137.652 139.123 137.58 139.627 137.58C140.499 137.58 141.171 137.792 141.643 138.216C142.115 138.64 142.351 139.288 142.351 140.16V144H141.259ZM139.171 144.072C138.699 144.072 138.283 143.992 137.923 143.832C137.571 143.672 137.299 143.452 137.107 143.172C136.915 142.884 136.819 142.56 136.819 142.2C136.819 141.856 136.899 141.544 137.059 141.264C137.227 140.984 137.495 140.76 137.863 140.592C138.239 140.424 138.743 140.34 139.375 140.34H141.391V141.168H139.423C138.847 141.168 138.459 141.264 138.259 141.456C138.059 141.648 137.959 141.88 137.959 142.152C137.959 142.464 138.083 142.716 138.331 142.908C138.579 143.092 138.923 143.184 139.363 143.184C139.795 143.184 140.171 143.088 140.491 142.896C140.819 142.704 141.055 142.424 141.199 142.056L141.427 142.848C141.275 143.224 141.007 143.524 140.623 143.748C140.239 143.964 139.755 144.072 139.171 144.072ZM147.855 144.072C147.327 144.072 146.843 143.952 146.403 143.712C145.971 143.464 145.623 143.1 145.359 142.62C145.103 142.14 144.975 141.54 144.975 140.82C144.975 140.1 145.099 139.5 145.347 139.02C145.603 138.54 145.947 138.18 146.379 137.94C146.819 137.7 147.311 137.58 147.855 137.58C148.479 137.58 149.031 137.716 149.511 137.988C149.991 138.26 150.371 138.64 150.651 139.128C150.931 139.608 151.071 140.172 151.071 140.82C151.071 141.468 150.931 142.036 150.651 142.524C150.371 143.012 149.991 143.392 149.511 143.664C149.031 143.936 148.479 144.072 147.855 144.072ZM144.483 146.328V137.64H145.587V139.356L145.515 140.832L145.635 142.308V146.328H144.483ZM147.759 143.064C148.167 143.064 148.531 142.972 148.851 142.788C149.179 142.604 149.435 142.344 149.619 142.008C149.811 141.664 149.907 141.268 149.907 140.82C149.907 140.364 149.811 139.972 149.619 139.644C149.435 139.308 149.179 139.048 148.851 138.864C148.531 138.68 148.167 138.588 147.759 138.588C147.359 138.588 146.995 138.68 146.667 138.864C146.347 139.048 146.091 139.308 145.899 139.644C145.715 139.972 145.623 140.364 145.623 140.82C145.623 141.268 145.715 141.664 145.899 142.008C146.091 142.344 146.347 142.604 146.667 142.788C146.995 142.972 147.359 143.064 147.759 143.064ZM156.058 137.58C156.578 137.58 157.034 137.68 157.426 137.88C157.826 138.08 158.138 138.384 158.362 138.792C158.586 139.2 158.698 139.716 158.698 140.34V144H157.546V140.472C157.546 139.856 157.394 139.392 157.09 139.08C156.794 138.768 156.374 138.612 155.83 138.612C155.422 138.612 155.066 138.692 154.762 138.852C154.458 139.012 154.222 139.248 154.054 139.56C153.894 139.872 153.814 140.26 153.814 140.724V144H152.662V135.096H153.814V139.356L153.586 138.9C153.794 138.484 154.114 138.16 154.546 137.928C154.978 137.696 155.482 137.58 156.058 137.58ZM30.4638 159V157.656L30.4038 157.404V155.112C30.4038 154.624 30.2598 154.248 29.9718 153.984C29.6918 153.712 29.2678 153.576 28.6998 153.576C28.3238 153.576 27.9558 153.64 27.5958 153.768C27.2358 153.888 26.9318 154.052 26.6838 154.26L26.2038 153.396C26.5318 153.132 26.9238 152.932 27.3798 152.796C27.8438 152.652 28.3278 152.58 28.8318 152.58C29.7038 152.58 30.3758 152.792 30.8478 153.216C31.3198 153.64 31.5558 154.288 31.5558 155.16V159H30.4638ZM28.3758 159.072C27.9038 159.072 27.4878 158.992 27.1278 158.832C26.7758 158.672 26.5038 158.452 26.3118 158.172C26.1198 157.884 26.0238 157.56 26.0238 157.2C26.0238 156.856 26.1038 156.544 26.2638 156.264C26.4318 155.984 26.6998 155.76 27.0678 155.592C27.4438 155.424 27.9478 155.34 28.5798 155.34H30.5958V156.168H28.6278C28.0518 156.168 27.6638 156.264 27.4638 156.456C27.2638 156.648 27.1638 156.88 27.1638 157.152C27.1638 157.464 27.2878 157.716 27.5358 157.908C27.7838 158.092 28.1278 158.184 28.5678 158.184C28.9998 158.184 29.3758 158.088 29.6958 157.896C30.0238 157.704 30.2598 157.424 30.4038 157.056L30.6318 157.848C30.4798 158.224 30.2118 158.524 29.8278 158.748C29.4438 158.964 28.9598 159.072 28.3758 159.072ZM37.0837 152.58C37.6037 152.58 38.0597 152.68 38.4517 152.88C38.8517 153.08 39.1637 153.384 39.3877 153.792C39.6117 154.2 39.7237 154.716 39.7237 155.34V159H38.5717V155.472C38.5717 154.856 38.4197 154.392 38.1157 154.08C37.8197 153.768 37.3997 153.612 36.8557 153.612C36.4477 153.612 36.0917 153.692 35.7877 153.852C35.4837 154.012 35.2477 154.248 35.0797 154.56C34.9197 154.872 34.8397 155.26 34.8397 155.724V159H33.6877V152.64H34.7917V154.356L34.6117 153.9C34.8197 153.484 35.1397 153.16 35.5717 152.928C36.0037 152.696 36.5077 152.58 37.0837 152.58ZM44.4837 159.072C43.8677 159.072 43.3157 158.936 42.8277 158.664C42.3477 158.392 41.9677 158.012 41.6877 157.524C41.4077 157.036 41.2677 156.468 41.2677 155.82C41.2677 155.172 41.4077 154.608 41.6877 154.128C41.9677 153.64 42.3477 153.26 42.8277 152.988C43.3157 152.716 43.8677 152.58 44.4837 152.58C45.0197 152.58 45.5037 152.7 45.9357 152.94C46.3677 153.18 46.7117 153.54 46.9677 154.02C47.2317 154.5 47.3637 155.1 47.3637 155.82C47.3637 156.54 47.2357 157.14 46.9797 157.62C46.7317 158.1 46.3917 158.464 45.9597 158.712C45.5277 158.952 45.0357 159.072 44.4837 159.072ZM44.5797 158.064C44.9797 158.064 45.3397 157.972 45.6597 157.788C45.9877 157.604 46.2437 157.344 46.4277 157.008C46.6197 156.664 46.7157 156.268 46.7157 155.82C46.7157 155.364 46.6197 154.972 46.4277 154.644C46.2437 154.308 45.9877 154.048 45.6597 153.864C45.3397 153.68 44.9797 153.588 44.5797 153.588C44.1717 153.588 43.8077 153.68 43.4877 153.864C43.1677 154.048 42.9117 154.308 42.7197 154.644C42.5277 154.972 42.4317 155.364 42.4317 155.82C42.4317 156.268 42.5277 156.664 42.7197 157.008C42.9117 157.344 43.1677 157.604 43.4877 157.788C43.8077 157.972 44.1717 158.064 44.5797 158.064ZM46.7517 159V157.284L46.8237 155.808L46.7037 154.332V150.096H47.8557V159H46.7517ZM53.258 159V152.64H54.362V154.368L54.254 153.936C54.43 153.496 54.726 153.16 55.142 152.928C55.558 152.696 56.07 152.58 56.678 152.58V153.696C56.63 153.688 56.582 153.684 56.534 153.684C56.494 153.684 56.454 153.684 56.414 153.684C55.798 153.684 55.31 153.868 54.95 154.236C54.59 154.604 54.41 155.136 54.41 155.832V159H53.258ZM60.7633 159.072C60.1233 159.072 59.5553 158.932 59.0593 158.652C58.5633 158.372 58.1713 157.988 57.8833 157.5C57.5953 157.004 57.4513 156.444 57.4513 155.82C57.4513 155.188 57.5953 154.628 57.8833 154.14C58.1713 153.652 58.5633 153.272 59.0593 153C59.5553 152.72 60.1233 152.58 60.7633 152.58C61.3953 152.58 61.9593 152.72 62.4553 153C62.9593 153.272 63.3513 153.652 63.6313 154.14C63.9193 154.62 64.0633 155.18 64.0633 155.82C64.0633 156.452 63.9193 157.012 63.6313 157.5C63.3513 157.988 62.9593 158.372 62.4553 158.652C61.9593 158.932 61.3953 159.072 60.7633 159.072ZM60.7633 158.064C61.1713 158.064 61.5353 157.972 61.8553 157.788C62.1833 157.604 62.4393 157.344 62.6233 157.008C62.8073 156.664 62.8993 156.268 62.8993 155.82C62.8993 155.364 62.8073 154.972 62.6233 154.644C62.4393 154.308 62.1833 154.048 61.8553 153.864C61.5353 153.68 61.1713 153.588 60.7633 153.588C60.3553 153.588 59.9913 153.68 59.6713 153.864C59.3513 154.048 59.0953 154.308 58.9033 154.644C58.7113 154.972 58.6153 155.364 58.6153 155.82C58.6153 156.268 58.7113 156.664 58.9033 157.008C59.0953 157.344 59.3513 157.604 59.6713 157.788C59.9913 157.972 60.3553 158.064 60.7633 158.064ZM67.8405 159.072C67.2005 159.072 66.7045 158.9 66.3525 158.556C66.0005 158.212 65.8245 157.72 65.8245 157.08V151.248H66.9765V157.032C66.9765 157.376 67.0605 157.64 67.2285 157.824C67.4045 158.008 67.6525 158.1 67.9725 158.1C68.3325 158.1 68.6325 158 68.8725 157.8L69.2325 158.628C69.0565 158.78 68.8445 158.892 68.5965 158.964C68.3565 159.036 68.1045 159.072 67.8405 159.072ZM64.7445 153.588V152.64H68.8005V153.588H64.7445ZM74.5732 159V157.656L74.5132 157.404V155.112C74.5132 154.624 74.3692 154.248 74.0812 153.984C73.8012 153.712 73.3772 153.576 72.8092 153.576C72.4332 153.576 72.0652 153.64 71.7052 153.768C71.3452 153.888 71.0412 154.052 70.7932 154.26L70.3132 153.396C70.6412 153.132 71.0332 152.932 71.4892 152.796C71.9532 152.652 72.4372 152.58 72.9412 152.58C73.8132 152.58 74.4852 152.792 74.9572 153.216C75.4292 153.64 75.6652 154.288 75.6652 155.16V159H74.5732ZM72.4852 159.072C72.0132 159.072 71.5972 158.992 71.2372 158.832C70.8852 158.672 70.6132 158.452 70.4212 158.172C70.2292 157.884 70.1332 157.56 70.1332 157.2C70.1332 156.856 70.2132 156.544 70.3732 156.264C70.5412 155.984 70.8092 155.76 71.1772 155.592C71.5532 155.424 72.0572 155.34 72.6892 155.34H74.7052V156.168H72.7372C72.1612 156.168 71.7732 156.264 71.5732 156.456C71.3732 156.648 71.2732 156.88 71.2732 157.152C71.2732 157.464 71.3972 157.716 71.6452 157.908C71.8932 158.092 72.2372 158.184 72.6772 158.184C73.1092 158.184 73.4852 158.088 73.8052 157.896C74.1332 157.704 74.3692 157.424 74.5132 157.056L74.7412 157.848C74.5892 158.224 74.3212 158.524 73.9372 158.748C73.5532 158.964 73.0692 159.072 72.4852 159.072ZM79.9811 159.072C79.3411 159.072 78.8451 158.9 78.4931 158.556C78.1411 158.212 77.9651 157.72 77.9651 157.08V151.248H79.1171V157.032C79.1171 157.376 79.2011 157.64 79.3691 157.824C79.5451 158.008 79.7931 158.1 80.1131 158.1C80.4731 158.1 80.7731 158 81.0131 157.8L81.3731 158.628C81.1971 158.78 80.9851 158.892 80.7371 158.964C80.4971 159.036 80.2451 159.072 79.9811 159.072ZM76.8851 153.588V152.64H80.9411V153.588H76.8851ZM85.3869 159.072C84.7069 159.072 84.1069 158.932 83.5869 158.652C83.0749 158.372 82.6749 157.988 82.3869 157.5C82.1069 157.012 81.9669 156.452 81.9669 155.82C81.9669 155.188 82.1029 154.628 82.3749 154.14C82.6549 153.652 83.0349 153.272 83.5149 153C84.0029 152.72 84.5509 152.58 85.1589 152.58C85.7749 152.58 86.3189 152.716 86.7909 152.988C87.2629 153.26 87.6309 153.644 87.8949 154.14C88.1669 154.628 88.3029 155.2 88.3029 155.856C88.3029 155.904 88.2989 155.96 88.2909 156.024C88.2909 156.088 88.2869 156.148 88.2789 156.204H82.8669V155.376H87.6789L87.2109 155.664C87.2189 155.256 87.1349 154.892 86.9589 154.572C86.7829 154.252 86.5389 154.004 86.2269 153.828C85.9229 153.644 85.5669 153.552 85.1589 153.552C84.7589 153.552 84.4029 153.644 84.0909 153.828C83.7789 154.004 83.5349 154.256 83.3589 154.584C83.1829 154.904 83.0949 155.272 83.0949 155.688V155.88C83.0949 156.304 83.1909 156.684 83.3829 157.02C83.5829 157.348 83.8589 157.604 84.2109 157.788C84.5629 157.972 84.9669 158.064 85.4229 158.064C85.7989 158.064 86.1389 158 86.4429 157.872C86.7549 157.744 87.0269 157.552 87.2589 157.296L87.8949 158.04C87.6069 158.376 87.2469 158.632 86.8149 158.808C86.3909 158.984 85.9149 159.072 85.3869 159.072ZM95.3092 159.072C94.6692 159.072 94.1732 158.9 93.8212 158.556C93.4692 158.212 93.2932 157.72 93.2932 157.08V151.248H94.4452V157.032C94.4452 157.376 94.5292 157.64 94.6972 157.824C94.8732 158.008 95.1212 158.1 95.4412 158.1C95.8012 158.1 96.1012 158 96.3412 157.8L96.7012 158.628C96.5252 158.78 96.3132 158.892 96.0652 158.964C95.8252 159.036 95.5732 159.072 95.3092 159.072ZM92.2132 153.588V152.64H96.2692V153.588H92.2132ZM101.49 152.58C102.01 152.58 102.466 152.68 102.858 152.88C103.258 153.08 103.57 153.384 103.794 153.792C104.018 154.2 104.13 154.716 104.13 155.34V159H102.978V155.472C102.978 154.856 102.826 154.392 102.522 154.08C102.226 153.768 101.806 153.612 101.262 153.612C100.854 153.612 100.498 153.692 100.194 153.852C99.89 154.012 99.654 154.248 99.486 154.56C99.326 154.872 99.246 155.26 99.246 155.724V159H98.094V150.096H99.246V154.356L99.018 153.9C99.226 153.484 99.546 153.16 99.978 152.928C100.41 152.696 100.914 152.58 101.49 152.58ZM109.094 159.072C108.414 159.072 107.814 158.932 107.294 158.652C106.782 158.372 106.382 157.988 106.094 157.5C105.814 157.012 105.674 156.452 105.674 155.82C105.674 155.188 105.81 154.628 106.082 154.14C106.362 153.652 106.742 153.272 107.222 153C107.71 152.72 108.258 152.58 108.866 152.58C109.482 152.58 110.026 152.716 110.498 152.988C110.97 153.26 111.338 153.644 111.602 154.14C111.874 154.628 112.01 155.2 112.01 155.856C112.01 155.904 112.006 155.96 111.998 156.024C111.998 156.088 111.994 156.148 111.986 156.204H106.574V155.376H111.386L110.918 155.664C110.926 155.256 110.842 154.892 110.666 154.572C110.49 154.252 110.246 154.004 109.934 153.828C109.63 153.644 109.274 153.552 108.866 153.552C108.466 153.552 108.11 153.644 107.798 153.828C107.486 154.004 107.242 154.256 107.066 154.584C106.89 154.904 106.802 155.272 106.802 155.688V155.88C106.802 156.304 106.898 156.684 107.09 157.02C107.29 157.348 107.566 157.604 107.918 157.788C108.27 157.972 108.674 158.064 109.13 158.064C109.506 158.064 109.846 158 110.15 157.872C110.462 157.744 110.734 157.552 110.966 157.296L111.602 158.04C111.314 158.376 110.954 158.632 110.522 158.808C110.098 158.984 109.622 159.072 109.094 159.072ZM117 159V152.076C117 151.452 117.18 150.956 117.54 150.588C117.908 150.212 118.428 150.024 119.1 150.024C119.348 150.024 119.584 150.056 119.808 150.12C120.04 150.176 120.236 150.268 120.396 150.396L120.048 151.272C119.928 151.176 119.792 151.104 119.64 151.056C119.488 151 119.328 150.972 119.16 150.972C118.824 150.972 118.568 151.068 118.392 151.26C118.216 151.444 118.128 151.72 118.128 152.088V152.94L118.152 153.468V159H117ZM115.92 153.588V152.64H119.976V153.588H115.92ZM121.068 159V152.64H122.22V159H121.068ZM121.644 151.416C121.42 151.416 121.232 151.344 121.08 151.2C120.936 151.056 120.864 150.88 120.864 150.672C120.864 150.456 120.936 150.276 121.08 150.132C121.232 149.988 121.42 149.916 121.644 149.916C121.868 149.916 122.052 149.988 122.196 150.132C122.348 150.268 122.424 150.44 122.424 150.648C122.424 150.864 122.352 151.048 122.208 151.2C122.064 151.344 121.876 151.416 121.644 151.416ZM127.198 161.4C126.614 161.4 126.046 161.316 125.494 161.148C124.95 160.988 124.506 160.756 124.162 160.452L124.714 159.564C125.01 159.82 125.374 160.02 125.806 160.164C126.238 160.316 126.69 160.392 127.162 160.392C127.914 160.392 128.466 160.216 128.818 159.864C129.17 159.512 129.346 158.976 129.346 158.256V156.912L129.466 155.652L129.406 154.38V152.64H130.498V158.136C130.498 159.256 130.218 160.08 129.658 160.608C129.098 161.136 128.278 161.4 127.198 161.4ZM127.054 158.736C126.438 158.736 125.886 158.608 125.398 158.352C124.918 158.088 124.534 157.724 124.246 157.26C123.966 156.796 123.826 156.26 123.826 155.652C123.826 155.036 123.966 154.5 124.246 154.044C124.534 153.58 124.918 153.22 125.398 152.964C125.886 152.708 126.438 152.58 127.054 152.58C127.598 152.58 128.094 152.692 128.542 152.916C128.99 153.132 129.346 153.468 129.61 153.924C129.882 154.38 130.018 154.956 130.018 155.652C130.018 156.34 129.882 156.912 129.61 157.368C129.346 157.824 128.99 158.168 128.542 158.4C128.094 158.624 127.598 158.736 127.054 158.736ZM127.186 157.728C127.61 157.728 127.986 157.64 128.314 157.464C128.642 157.288 128.898 157.044 129.082 156.732C129.274 156.42 129.37 156.06 129.37 155.652C129.37 155.244 129.274 154.884 129.082 154.572C128.898 154.26 128.642 154.02 128.314 153.852C127.986 153.676 127.61 153.588 127.186 153.588C126.762 153.588 126.382 153.676 126.046 153.852C125.718 154.02 125.458 154.26 125.266 154.572C125.082 154.884 124.99 155.244 124.99 155.652C124.99 156.06 125.082 156.42 125.266 156.732C125.458 157.044 125.718 157.288 126.046 157.464C126.382 157.64 126.762 157.728 127.186 157.728ZM135.375 159.072C134.831 159.072 134.351 158.972 133.935 158.772C133.527 158.572 133.207 158.268 132.975 157.86C132.751 157.444 132.639 156.924 132.639 156.3V152.64H133.791V156.168C133.791 156.792 133.939 157.26 134.235 157.572C134.539 157.884 134.963 158.04 135.507 158.04C135.907 158.04 136.255 157.96 136.551 157.8C136.847 157.632 137.075 157.392 137.235 157.08C137.395 156.76 137.475 156.376 137.475 155.928V152.64H138.627V159H137.535V157.284L137.715 157.74C137.507 158.164 137.195 158.492 136.779 158.724C136.363 158.956 135.895 159.072 135.375 159.072ZM140.821 159V152.64H141.925V154.368L141.817 153.936C141.993 153.496 142.289 153.16 142.705 152.928C143.121 152.696 143.633 152.58 144.241 152.58V153.696C144.193 153.688 144.145 153.684 144.097 153.684C144.057 153.684 144.017 153.684 143.977 153.684C143.361 153.684 142.873 153.868 142.513 154.236C142.153 154.604 141.973 155.136 141.973 155.832V159H140.821ZM148.434 159.072C147.754 159.072 147.154 158.932 146.634 158.652C146.122 158.372 145.722 157.988 145.434 157.5C145.154 157.012 145.014 156.452 145.014 155.82C145.014 155.188 145.15 154.628 145.422 154.14C145.702 153.652 146.082 153.272 146.562 153C147.05 152.72 147.598 152.58 148.206 152.58C148.822 152.58 149.366 152.716 149.838 152.988C150.31 153.26 150.678 153.644 150.942 154.14C151.214 154.628 151.35 155.2 151.35 155.856C151.35 155.904 151.346 155.96 151.338 156.024C151.338 156.088 151.334 156.148 151.326 156.204H145.914V155.376H150.726L150.258 155.664C150.266 155.256 150.182 154.892 150.006 154.572C149.83 154.252 149.586 154.004 149.274 153.828C148.97 153.644 148.614 153.552 148.206 153.552C147.806 153.552 147.45 153.644 147.138 153.828C146.826 154.004 146.582 154.256 146.406 154.584C146.23 154.904 146.142 155.272 146.142 155.688V155.88C146.142 156.304 146.238 156.684 146.43 157.02C146.63 157.348 146.906 157.604 147.258 157.788C147.61 157.972 148.014 158.064 148.47 158.064C148.846 158.064 149.186 158 149.49 157.872C149.802 157.744 150.074 157.552 150.306 157.296L150.942 158.04C150.654 158.376 150.294 158.632 149.862 158.808C149.438 158.984 148.962 159.072 148.434 159.072ZM153.225 159.072C153.001 159.072 152.809 158.996 152.649 158.844C152.489 158.684 152.409 158.484 152.409 158.244C152.409 158.004 152.489 157.808 152.649 157.656C152.809 157.504 153.001 157.428 153.225 157.428C153.441 157.428 153.625 157.504 153.777 157.656C153.937 157.808 154.017 158.004 154.017 158.244C154.017 158.484 153.937 158.684 153.777 158.844C153.625 158.996 153.441 159.072 153.225 159.072Z" fill="#008E86"/>
<path d="M44 66L72.5 37.5L134 66L57 77.7586L44 66Z" fill="#00D8CC" stroke="#00635D" stroke-width="2" stroke-linejoin="round"/>
<path d="M133.371 65.7578L72.5 65.7578L72.5 37.7578L133.371 65.7578Z" fill="#008E86" stroke="#00635D" stroke-width="2" stroke-linejoin="round"/>
<path d="M126.315 28.7256C125.763 28.7255 125.315 29.1733 125.315 29.7255L125.315 38.7255C125.315 39.2778 125.763 39.7255 126.315 39.7256C126.868 39.7256 127.315 39.2779 127.315 38.7256L127.315 30.7256L135.315 30.7257C135.868 30.7257 136.315 30.278 136.315 29.7257C136.315 29.1734 135.868 28.7257 135.315 28.7257L126.315 28.7256ZM121.359 50.6284L121.359 49.6284H121.359L121.359 50.6284ZM106.55 43.241C106.16 42.8505 105.527 42.8505 105.136 43.241C104.746 43.6315 104.746 44.2647 105.136 44.6552L106.55 43.241ZM125.608 30.4327C130.439 35.2632 130.982 40.0809 129.612 43.6135C128.211 47.226 124.786 49.6284 121.359 49.6284L121.359 51.6284C125.689 51.6284 129.806 48.6436 131.477 44.3366C133.178 39.9498 132.32 34.3161 127.023 29.0185L125.608 30.4327ZM121.359 49.6284C118.755 49.6284 116.789 48.427 115.378 46.5578C113.946 44.6613 113.095 42.0775 112.842 39.4353C112.589 36.7901 112.947 34.2008 113.809 32.3172C114.671 30.4368 115.932 29.4326 117.48 29.4326L117.48 27.4326C114.858 27.4326 113.036 29.2029 111.991 31.4842C110.948 33.7623 110.574 36.722 110.851 39.6257C111.129 42.5325 112.071 45.4977 113.781 47.7628C115.512 50.0554 118.036 51.6284 121.359 51.6284L121.359 49.6284ZM117.48 29.4326C118.616 29.4326 119.436 29.8059 120.036 30.3956C120.654 31.0042 121.105 31.9102 121.346 33.0623C121.833 35.381 121.416 38.4387 120.226 41.1178C119.03 43.8095 117.158 45.896 114.928 46.5663C112.782 47.2115 109.951 46.6412 106.55 43.241L105.136 44.6552C108.847 48.3664 112.408 49.4122 115.504 48.4816C118.516 47.5762 120.737 44.8948 122.054 41.9298C123.377 38.9523 123.894 35.4643 123.304 32.6516C123.007 31.238 122.416 29.9318 121.438 28.9697C120.441 27.9886 119.107 27.4326 117.48 27.4326L117.48 29.4326Z" fill="black"/>
<path d="M88 44.7578H65" stroke="#333333" stroke-width="2" stroke-dasharray="4 4"/>
<path d="M53 74.7578L53 56.7578" stroke="#333333" stroke-width="2" stroke-dasharray="4 4"/>
<path opacity="0.25" d="M134.012 66H44.0117" stroke="#333333" stroke-width="2"/>
<path opacity="0.25" d="M134 65.7578H44" stroke="#333333" stroke-width="2"/>
<path d="M88.6788 33.0243C88.2737 32.6489 87.641 32.673 87.2656 33.0781C86.8902 33.4832 86.9143 34.1159 87.3194 34.4913L88.6788 33.0243ZM86.9998 56.3361C86.9788 56.888 87.4092 57.3524 87.9611 57.3734L96.9546 57.7157C97.5065 57.7367 97.9709 57.3063 97.9919 56.7544C98.0129 56.2025 97.5825 55.7381 97.0306 55.7171L89.0364 55.4129L89.3406 47.4187C89.3616 46.8668 88.9313 46.4024 88.3794 46.3814C87.8275 46.3604 87.3631 46.7907 87.3421 47.3426L86.9998 56.3361ZM87.3194 34.4913C90.7004 37.6244 92.207 41.3376 92.207 45.0187L94.207 45.0187C94.207 40.7509 92.4459 36.5152 88.6788 33.0243L87.3194 34.4913ZM92.207 45.0187C92.207 46.8054 91.6032 48.9009 90.659 50.8667C89.7162 52.8297 88.4822 54.5631 87.3194 55.6407L88.6788 57.1076C90.0689 55.8195 91.4389 53.8624 92.4618 51.7326C93.4834 49.6058 94.207 47.2064 94.207 45.0187L92.207 45.0187Z" fill="black"/>
<path d="M44.2665 52.6998C43.8911 53.1049 43.9152 53.7376 44.3203 54.113C44.7254 54.4883 45.3581 54.4643 45.7335 54.0592L44.2665 52.6998ZM65.0324 54.3788C65.5843 54.3998 66.0487 53.9694 66.0697 53.4175L66.4119 44.424C66.4329 43.8721 66.0026 43.4077 65.4507 43.3867C64.8988 43.3657 64.4344 43.7961 64.4134 44.348L64.1091 52.3422L56.1149 52.038C55.563 52.017 55.0986 52.4473 55.0776 52.9992C55.0566 53.5511 55.487 54.0155 56.0389 54.0365L65.0324 54.3788ZM45.7335 54.0592C48.4938 51.0805 51.7595 49.7578 54.9932 49.7578V47.7578C51.1729 47.7578 47.3846 49.335 44.2665 52.6998L45.7335 54.0592ZM54.9932 49.7578C56.5562 49.7578 58.3987 50.2869 60.1342 51.1205C61.8668 51.9527 63.3925 53.04 64.3369 54.0592L65.8039 52.6998C64.6489 51.4534 62.8995 50.2299 61.0001 49.3177C59.1036 48.4068 56.9572 47.7578 54.9932 47.7578V49.7578Z" fill="black"/>
</g>
<defs>
<clipPath id="clip0_18_598">
<rect width="180" height="180" rx="20" fill="white"/>
</clipPath>
<clipPath id="clip1_18_598">
<path d="M0 30L-1.31134e-06 0L30 -1.31134e-06L30 10C30 21.0457 21.0457 30 10 30L0 30Z" fill="white"/>
</clipPath>
</defs>
</svg>
