<svg width="180" height="180" viewBox="0 0 180 180" fill="none" xmlns="http://www.w3.org/2000/svg">
<g clip-path="url(#clip0_18_622)">
<rect width="180" height="180" rx="20" fill="#F2F2F2"/>
<g clip-path="url(#clip1_18_622)">
<path d="M0 30L-1.31134e-06 0L30 -1.31134e-06L30 10C30 21.0457 21.0457 30 10 30L0 30Z" fill="#333333"/>
<path d="M15.9223 13.976C16.6369 13.976 17.2876 14.12 17.8743 14.408C18.4609 14.696 18.9249 15.1067 19.2663 15.64C19.6076 16.1627 19.7783 16.7707 19.7783 17.464C19.7783 18.2107 19.5916 18.8667 19.2183 19.432C18.8449 19.9973 18.3329 20.4347 17.6823 20.744C17.0423 21.0427 16.3276 21.192 15.5383 21.192C13.9703 21.192 12.7436 20.712 11.8583 19.752C10.9729 18.792 10.5303 17.4213 10.5303 15.64C10.5303 14.3707 10.7703 13.2827 11.2503 12.376C11.7303 11.4693 12.3969 10.7813 13.2503 10.312C14.1143 9.84267 15.1116 9.608 16.2423 9.608C16.8396 9.608 17.4103 9.67733 17.9543 9.816C18.5089 9.944 18.9783 10.1307 19.3623 10.376L18.4023 12.28C17.8476 11.9067 17.1489 11.72 16.3063 11.72C15.3569 11.72 14.6049 11.9973 14.0503 12.552C13.4956 13.1067 13.1969 13.912 13.1543 14.968C13.8156 14.3067 14.7383 13.976 15.9223 13.976ZM15.3943 19.256C15.9489 19.256 16.3969 19.1067 16.7383 18.808C17.0903 18.5093 17.2663 18.104 17.2663 17.592C17.2663 17.08 17.0903 16.6747 16.7383 16.376C16.3969 16.0667 15.9383 15.912 15.3623 15.912C14.7969 15.912 14.3329 16.072 13.9703 16.392C13.6076 16.7013 13.4263 17.1013 13.4263 17.592C13.4263 18.0827 13.6023 18.4827 13.9543 18.792C14.3063 19.1013 14.7863 19.256 15.3943 19.256Z" fill="#F2F2F2"/>
</g>
<path d="M44.9534 129V120.6H48.7214C49.6894 120.6 50.4334 120.796 50.9534 121.188C51.4734 121.572 51.7334 122.1 51.7334 122.772C51.7334 123.228 51.6294 123.612 51.4214 123.924C51.2214 124.236 50.9494 124.476 50.6054 124.644C50.2614 124.812 49.8894 124.896 49.4894 124.896L49.7054 124.536C50.1854 124.536 50.6094 124.62 50.9774 124.788C51.3454 124.956 51.6374 125.204 51.8534 125.532C52.0694 125.852 52.1774 126.252 52.1774 126.732C52.1774 127.452 51.9054 128.012 51.3614 128.412C50.8254 128.804 50.0254 129 48.9614 129H44.9534ZM46.1534 128.028H48.9134C49.5774 128.028 50.0854 127.916 50.4374 127.692C50.7894 127.468 50.9654 127.116 50.9654 126.636C50.9654 126.148 50.7894 125.792 50.4374 125.568C50.0854 125.344 49.5774 125.232 48.9134 125.232H46.0454V124.26H48.6134C49.2214 124.26 49.6934 124.148 50.0294 123.924C50.3654 123.7 50.5334 123.364 50.5334 122.916C50.5334 122.468 50.3654 122.132 50.0294 121.908C49.6934 121.684 49.2214 121.572 48.6134 121.572H46.1534V128.028ZM56.6994 129.072C56.0194 129.072 55.4194 128.932 54.8994 128.652C54.3874 128.372 53.9874 127.988 53.6994 127.5C53.4194 127.012 53.2794 126.452 53.2794 125.82C53.2794 125.188 53.4154 124.628 53.6874 124.14C53.9674 123.652 54.3474 123.272 54.8274 123C55.3154 122.72 55.8634 122.58 56.4714 122.58C57.0874 122.58 57.6314 122.716 58.1034 122.988C58.5754 123.26 58.9434 123.644 59.2074 124.14C59.4794 124.628 59.6154 125.2 59.6154 125.856C59.6154 125.904 59.6114 125.96 59.6034 126.024C59.6034 126.088 59.5994 126.148 59.5914 126.204H54.1794V125.376H58.9914L58.5234 125.664C58.5314 125.256 58.4474 124.892 58.2714 124.572C58.0954 124.252 57.8514 124.004 57.5394 123.828C57.2354 123.644 56.8794 123.552 56.4714 123.552C56.0714 123.552 55.7154 123.644 55.4034 123.828C55.0914 124.004 54.8474 124.256 54.6714 124.584C54.4954 124.904 54.4074 125.272 54.4074 125.688V125.88C54.4074 126.304 54.5034 126.684 54.6954 127.02C54.8954 127.348 55.1714 127.604 55.5234 127.788C55.8754 127.972 56.2794 128.064 56.7354 128.064C57.1114 128.064 57.4514 128 57.7554 127.872C58.0674 127.744 58.3394 127.552 58.5714 127.296L59.2074 128.04C58.9194 128.376 58.5594 128.632 58.1274 128.808C57.7034 128.984 57.2274 129.072 56.6994 129.072ZM64.611 122.58C65.131 122.58 65.587 122.68 65.979 122.88C66.379 123.08 66.691 123.384 66.915 123.792C67.139 124.2 67.251 124.716 67.251 125.34V129H66.099V125.472C66.099 124.856 65.947 124.392 65.643 124.08C65.347 123.768 64.927 123.612 64.383 123.612C63.975 123.612 63.619 123.692 63.315 123.852C63.011 124.012 62.775 124.248 62.607 124.56C62.447 124.872 62.367 125.26 62.367 125.724V129H61.215V122.64H62.319V124.356L62.139 123.9C62.347 123.484 62.667 123.16 63.099 122.928C63.531 122.696 64.035 122.58 64.611 122.58ZM72.011 129.072C71.395 129.072 70.843 128.936 70.355 128.664C69.875 128.392 69.495 128.012 69.215 127.524C68.935 127.036 68.795 126.468 68.795 125.82C68.795 125.172 68.935 124.608 69.215 124.128C69.495 123.64 69.875 123.26 70.355 122.988C70.843 122.716 71.395 122.58 72.011 122.58C72.547 122.58 73.031 122.7 73.463 122.94C73.895 123.18 74.239 123.54 74.495 124.02C74.759 124.5 74.891 125.1 74.891 125.82C74.891 126.54 74.763 127.14 74.507 127.62C74.259 128.1 73.919 128.464 73.487 128.712C73.055 128.952 72.563 129.072 72.011 129.072ZM72.107 128.064C72.507 128.064 72.867 127.972 73.187 127.788C73.515 127.604 73.771 127.344 73.955 127.008C74.147 126.664 74.243 126.268 74.243 125.82C74.243 125.364 74.147 124.972 73.955 124.644C73.771 124.308 73.515 124.048 73.187 123.864C72.867 123.68 72.507 123.588 72.107 123.588C71.699 123.588 71.335 123.68 71.015 123.864C70.695 124.048 70.439 124.308 70.247 124.644C70.055 124.972 69.959 125.364 69.959 125.82C69.959 126.268 70.055 126.664 70.247 127.008C70.439 127.344 70.695 127.604 71.015 127.788C71.335 127.972 71.699 128.064 72.107 128.064ZM74.279 129V127.284L74.351 125.808L74.231 124.332V120.096H75.383V129H74.279ZM82.9694 129.072C82.3294 129.072 81.8334 128.9 81.4814 128.556C81.1294 128.212 80.9534 127.72 80.9534 127.08V121.248H82.1054V127.032C82.1054 127.376 82.1894 127.64 82.3574 127.824C82.5334 128.008 82.7814 128.1 83.1014 128.1C83.4614 128.1 83.7614 128 84.0014 127.8L84.3614 128.628C84.1854 128.78 83.9734 128.892 83.7254 128.964C83.4854 129.036 83.2334 129.072 82.9694 129.072ZM79.8734 123.588V122.64H83.9294V123.588H79.8734ZM89.1501 122.58C89.6701 122.58 90.1261 122.68 90.5181 122.88C90.9181 123.08 91.2301 123.384 91.4541 123.792C91.6781 124.2 91.7901 124.716 91.7901 125.34V129H90.6381V125.472C90.6381 124.856 90.4861 124.392 90.1821 124.08C89.8861 123.768 89.4661 123.612 88.9221 123.612C88.5141 123.612 88.1581 123.692 87.8541 123.852C87.5501 124.012 87.3141 124.248 87.1461 124.56C86.9861 124.872 86.9061 125.26 86.9061 125.724V129H85.7541V120.096H86.9061V124.356L86.6781 123.9C86.8861 123.484 87.2061 123.16 87.6381 122.928C88.0701 122.696 88.5741 122.58 89.1501 122.58ZM96.7541 129.072C96.0741 129.072 95.4741 128.932 94.9541 128.652C94.4421 128.372 94.0421 127.988 93.7541 127.5C93.4741 127.012 93.3341 126.452 93.3341 125.82C93.3341 125.188 93.4701 124.628 93.7421 124.14C94.0221 123.652 94.4021 123.272 94.8821 123C95.3701 122.72 95.9181 122.58 96.5261 122.58C97.1421 122.58 97.6861 122.716 98.1581 122.988C98.6301 123.26 98.9981 123.644 99.2621 124.14C99.5341 124.628 99.6701 125.2 99.6701 125.856C99.6701 125.904 99.6661 125.96 99.6581 126.024C99.6581 126.088 99.6541 126.148 99.6461 126.204H94.2341V125.376H99.0461L98.5781 125.664C98.5861 125.256 98.5021 124.892 98.3261 124.572C98.1501 124.252 97.9061 124.004 97.5941 123.828C97.2901 123.644 96.9341 123.552 96.5261 123.552C96.1261 123.552 95.7701 123.644 95.4581 123.828C95.1461 124.004 94.9021 124.256 94.7261 124.584C94.5501 124.904 94.4621 125.272 94.4621 125.688V125.88C94.4621 126.304 94.5581 126.684 94.7501 127.02C94.9501 127.348 95.2261 127.604 95.5781 127.788C95.9301 127.972 96.3341 128.064 96.7901 128.064C97.1661 128.064 97.5061 128 97.8101 127.872C98.1221 127.744 98.3941 127.552 98.6261 127.296L99.2621 128.04C98.9741 128.376 98.6141 128.632 98.1821 128.808C97.7581 128.984 97.2821 129.072 96.7541 129.072ZM106.676 129.072C106.036 129.072 105.54 128.9 105.188 128.556C104.836 128.212 104.66 127.72 104.66 127.08V121.248H105.812V127.032C105.812 127.376 105.896 127.64 106.064 127.824C106.24 128.008 106.488 128.1 106.808 128.1C107.168 128.1 107.468 128 107.708 127.8L108.068 128.628C107.892 128.78 107.68 128.892 107.432 128.964C107.192 129.036 106.94 129.072 106.676 129.072ZM103.58 123.588V122.64H107.636V123.588H103.58ZM109.461 129V122.64H110.613V129H109.461ZM110.037 121.416C109.813 121.416 109.625 121.344 109.473 121.2C109.329 121.056 109.257 120.88 109.257 120.672C109.257 120.456 109.329 120.276 109.473 120.132C109.625 119.988 109.813 119.916 110.037 119.916C110.261 119.916 110.445 119.988 110.589 120.132C110.741 120.268 110.817 120.44 110.817 120.648C110.817 120.864 110.745 121.048 110.601 121.2C110.457 121.344 110.269 121.416 110.037 121.416ZM116.185 129.072C115.657 129.072 115.173 128.952 114.733 128.712C114.301 128.464 113.953 128.1 113.689 127.62C113.433 127.14 113.305 126.54 113.305 125.82C113.305 125.1 113.429 124.5 113.677 124.02C113.933 123.54 114.277 123.18 114.709 122.94C115.149 122.7 115.641 122.58 116.185 122.58C116.809 122.58 117.361 122.716 117.841 122.988C118.321 123.26 118.701 123.64 118.981 124.128C119.261 124.608 119.401 125.172 119.401 125.82C119.401 126.468 119.261 127.036 118.981 127.524C118.701 128.012 118.321 128.392 117.841 128.664C117.361 128.936 116.809 129.072 116.185 129.072ZM112.813 131.328V122.64H113.917V124.356L113.845 125.832L113.965 127.308V131.328H112.813ZM116.089 128.064C116.497 128.064 116.861 127.972 117.181 127.788C117.509 127.604 117.765 127.344 117.949 127.008C118.141 126.664 118.237 126.268 118.237 125.82C118.237 125.364 118.141 124.972 117.949 124.644C117.765 124.308 117.509 124.048 117.181 123.864C116.861 123.68 116.497 123.588 116.089 123.588C115.689 123.588 115.325 123.68 114.997 123.864C114.677 124.048 114.421 124.308 114.229 124.644C114.045 124.972 113.953 125.364 113.953 125.82C113.953 126.268 114.045 126.664 114.229 127.008C114.421 127.344 114.677 127.604 114.997 127.788C115.325 127.972 115.689 128.064 116.089 128.064ZM128.163 129V127.656L128.103 127.404V125.112C128.103 124.624 127.959 124.248 127.671 123.984C127.391 123.712 126.967 123.576 126.399 123.576C126.023 123.576 125.655 123.64 125.295 123.768C124.935 123.888 124.631 124.052 124.383 124.26L123.903 123.396C124.231 123.132 124.623 122.932 125.079 122.796C125.543 122.652 126.027 122.58 126.531 122.58C127.403 122.58 128.075 122.792 128.547 123.216C129.019 123.64 129.255 124.288 129.255 125.16V129H128.163ZM126.075 129.072C125.603 129.072 125.187 128.992 124.827 128.832C124.475 128.672 124.203 128.452 124.011 128.172C123.819 127.884 123.723 127.56 123.723 127.2C123.723 126.856 123.803 126.544 123.963 126.264C124.131 125.984 124.399 125.76 124.767 125.592C125.143 125.424 125.647 125.34 126.279 125.34H128.295V126.168H126.327C125.751 126.168 125.363 126.264 125.163 126.456C124.963 126.648 124.863 126.88 124.863 127.152C124.863 127.464 124.987 127.716 125.235 127.908C125.483 128.092 125.827 128.184 126.267 128.184C126.699 128.184 127.075 128.088 127.395 127.896C127.723 127.704 127.959 127.424 128.103 127.056L128.331 127.848C128.179 128.224 127.911 128.524 127.527 128.748C127.143 128.964 126.659 129.072 126.075 129.072ZM133.211 129.072C132.683 129.072 132.179 129 131.699 128.856C131.227 128.712 130.855 128.536 130.583 128.328L131.063 127.416C131.335 127.6 131.671 127.756 132.071 127.884C132.471 128.012 132.879 128.076 133.295 128.076C133.831 128.076 134.215 128 134.447 127.848C134.687 127.696 134.807 127.484 134.807 127.212C134.807 127.012 134.735 126.856 134.591 126.744C134.447 126.632 134.255 126.548 134.015 126.492C133.783 126.436 133.523 126.388 133.235 126.348C132.947 126.3 132.659 126.244 132.371 126.18C132.083 126.108 131.819 126.012 131.579 125.892C131.339 125.764 131.147 125.592 131.003 125.376C130.859 125.152 130.787 124.856 130.787 124.488C130.787 124.104 130.895 123.768 131.111 123.48C131.327 123.192 131.631 122.972 132.023 122.82C132.423 122.66 132.895 122.58 133.439 122.58C133.855 122.58 134.275 122.632 134.699 122.736C135.131 122.832 135.483 122.972 135.755 123.156L135.263 124.068C134.975 123.876 134.675 123.744 134.363 123.672C134.051 123.6 133.739 123.564 133.427 123.564C132.923 123.564 132.547 123.648 132.299 123.816C132.051 123.976 131.927 124.184 131.927 124.44C131.927 124.656 131.999 124.824 132.143 124.944C132.295 125.056 132.487 125.144 132.719 125.208C132.959 125.272 133.223 125.328 133.511 125.376C133.799 125.416 134.087 125.472 134.375 125.544C134.663 125.608 134.923 125.7 135.155 125.82C135.395 125.94 135.587 126.108 135.731 126.324C135.883 126.54 135.959 126.828 135.959 127.188C135.959 127.572 135.847 127.904 135.623 128.184C135.399 128.464 135.083 128.684 134.675 128.844C134.267 128.996 133.779 129.072 133.211 129.072ZM23.5158 144V137.64H24.6678V144H23.5158ZM24.0918 136.416C23.8678 136.416 23.6798 136.344 23.5278 136.2C23.3838 136.056 23.3118 135.88 23.3118 135.672C23.3118 135.456 23.3838 135.276 23.5278 135.132C23.6798 134.988 23.8678 134.916 24.0918 134.916C24.3158 134.916 24.4998 134.988 24.6438 135.132C24.7958 135.268 24.8718 135.44 24.8718 135.648C24.8718 135.864 24.7998 136.048 24.6558 136.2C24.5118 136.344 24.3238 136.416 24.0918 136.416ZM30.2634 137.58C30.7834 137.58 31.2394 137.68 31.6314 137.88C32.0314 138.08 32.3434 138.384 32.5674 138.792C32.7914 139.2 32.9034 139.716 32.9034 140.34V144H31.7514V140.472C31.7514 139.856 31.5994 139.392 31.2954 139.08C30.9994 138.768 30.5794 138.612 30.0354 138.612C29.6274 138.612 29.2714 138.692 28.9674 138.852C28.6634 139.012 28.4274 139.248 28.2594 139.56C28.0994 139.872 28.0194 140.26 28.0194 140.724V144H26.8674V137.64H27.9714V139.356L27.7914 138.9C27.9994 138.484 28.3194 138.16 28.7514 137.928C29.1834 137.696 29.6874 137.58 30.2634 137.58ZM37.6634 144.072C37.0474 144.072 36.4954 143.936 36.0074 143.664C35.5274 143.392 35.1474 143.012 34.8674 142.524C34.5874 142.036 34.4474 141.468 34.4474 140.82C34.4474 140.172 34.5874 139.608 34.8674 139.128C35.1474 138.64 35.5274 138.26 36.0074 137.988C36.4954 137.716 37.0474 137.58 37.6634 137.58C38.1994 137.58 38.6834 137.7 39.1154 137.94C39.5474 138.18 39.8914 138.54 40.1474 139.02C40.4114 139.5 40.5434 140.1 40.5434 140.82C40.5434 141.54 40.4154 142.14 40.1594 142.62C39.9114 143.1 39.5714 143.464 39.1394 143.712C38.7074 143.952 38.2154 144.072 37.6634 144.072ZM37.7594 143.064C38.1594 143.064 38.5194 142.972 38.8394 142.788C39.1674 142.604 39.4234 142.344 39.6074 142.008C39.7994 141.664 39.8954 141.268 39.8954 140.82C39.8954 140.364 39.7994 139.972 39.6074 139.644C39.4234 139.308 39.1674 139.048 38.8394 138.864C38.5194 138.68 38.1594 138.588 37.7594 138.588C37.3514 138.588 36.9874 138.68 36.6674 138.864C36.3474 139.048 36.0914 139.308 35.8994 139.644C35.7074 139.972 35.6114 140.364 35.6114 140.82C35.6114 141.268 35.7074 141.664 35.8994 142.008C36.0914 142.344 36.3474 142.604 36.6674 142.788C36.9874 142.972 37.3514 143.064 37.7594 143.064ZM39.9314 144V142.284L40.0034 140.808L39.8834 139.332V135.096H41.0354V144H39.9314ZM43.215 144V137.64H44.367V144H43.215ZM43.791 136.416C43.567 136.416 43.379 136.344 43.227 136.2C43.083 136.056 43.011 135.88 43.011 135.672C43.011 135.456 43.083 135.276 43.227 135.132C43.379 134.988 43.567 134.916 43.791 134.916C44.015 134.916 44.199 134.988 44.343 135.132C44.495 135.268 44.571 135.44 44.571 135.648C44.571 135.864 44.499 136.048 44.355 136.2C44.211 136.344 44.023 136.416 43.791 136.416ZM49.3386 144.072C48.6906 144.072 48.1106 143.932 47.5986 143.652C47.0946 143.372 46.6986 142.988 46.4106 142.5C46.1226 142.012 45.9786 141.452 45.9786 140.82C45.9786 140.188 46.1226 139.628 46.4106 139.14C46.6986 138.652 47.0946 138.272 47.5986 138C48.1106 137.72 48.6906 137.58 49.3386 137.58C49.9146 137.58 50.4266 137.696 50.8746 137.928C51.3306 138.152 51.6826 138.488 51.9306 138.936L51.0546 139.5C50.8466 139.188 50.5906 138.96 50.2866 138.816C49.9906 138.664 49.6706 138.588 49.3266 138.588C48.9106 138.588 48.5386 138.68 48.2106 138.864C47.8826 139.048 47.6226 139.308 47.4306 139.644C47.2386 139.972 47.1426 140.364 47.1426 140.82C47.1426 141.276 47.2386 141.672 47.4306 142.008C47.6226 142.344 47.8826 142.604 48.2106 142.788C48.5386 142.972 48.9106 143.064 49.3266 143.064C49.6706 143.064 49.9906 142.992 50.2866 142.848C50.5906 142.696 50.8466 142.464 51.0546 142.152L51.9306 142.704C51.6826 143.144 51.3306 143.484 50.8746 143.724C50.4266 143.956 49.9146 144.072 49.3386 144.072ZM57.3701 144V142.656L57.3101 142.404V140.112C57.3101 139.624 57.1661 139.248 56.8781 138.984C56.5981 138.712 56.1741 138.576 55.6061 138.576C55.2301 138.576 54.8621 138.64 54.5021 138.768C54.1421 138.888 53.8381 139.052 53.5901 139.26L53.1101 138.396C53.4381 138.132 53.8301 137.932 54.2861 137.796C54.7501 137.652 55.2341 137.58 55.7381 137.58C56.6101 137.58 57.2821 137.792 57.7541 138.216C58.2261 138.64 58.4621 139.288 58.4621 140.16V144H57.3701ZM55.2821 144.072C54.8101 144.072 54.3941 143.992 54.0341 143.832C53.6821 143.672 53.4101 143.452 53.2181 143.172C53.0261 142.884 52.9301 142.56 52.9301 142.2C52.9301 141.856 53.0101 141.544 53.1701 141.264C53.3381 140.984 53.6061 140.76 53.9741 140.592C54.3501 140.424 54.8541 140.34 55.4861 140.34H57.5021V141.168H55.5341C54.9581 141.168 54.5701 141.264 54.3701 141.456C54.1701 141.648 54.0701 141.88 54.0701 142.152C54.0701 142.464 54.1941 142.716 54.4421 142.908C54.6901 143.092 55.0341 143.184 55.4741 143.184C55.9061 143.184 56.2821 143.088 56.6021 142.896C56.9301 142.704 57.1661 142.424 57.3101 142.056L57.5381 142.848C57.3861 143.224 57.1181 143.524 56.7341 143.748C56.3501 143.964 55.8661 144.072 55.2821 144.072ZM62.778 144.072C62.138 144.072 61.642 143.9 61.29 143.556C60.938 143.212 60.762 142.72 60.762 142.08V136.248H61.914V142.032C61.914 142.376 61.998 142.64 62.166 142.824C62.342 143.008 62.59 143.1 62.91 143.1C63.27 143.1 63.57 143 63.81 142.8L64.17 143.628C63.994 143.78 63.782 143.892 63.534 143.964C63.294 144.036 63.042 144.072 62.778 144.072ZM59.682 138.588V137.64H63.738V138.588H59.682ZM68.1838 144.072C67.5038 144.072 66.9038 143.932 66.3838 143.652C65.8718 143.372 65.4718 142.988 65.1838 142.5C64.9038 142.012 64.7638 141.452 64.7638 140.82C64.7638 140.188 64.8998 139.628 65.1718 139.14C65.4518 138.652 65.8318 138.272 66.3118 138C66.7998 137.72 67.3478 137.58 67.9558 137.58C68.5718 137.58 69.1158 137.716 69.5878 137.988C70.0598 138.26 70.4278 138.644 70.6918 139.14C70.9638 139.628 71.0998 140.2 71.0998 140.856C71.0998 140.904 71.0958 140.96 71.0878 141.024C71.0878 141.088 71.0838 141.148 71.0758 141.204H65.6638V140.376H70.4758L70.0078 140.664C70.0158 140.256 69.9318 139.892 69.7558 139.572C69.5798 139.252 69.3358 139.004 69.0238 138.828C68.7198 138.644 68.3638 138.552 67.9558 138.552C67.5558 138.552 67.1998 138.644 66.8878 138.828C66.5758 139.004 66.3318 139.256 66.1558 139.584C65.9798 139.904 65.8918 140.272 65.8918 140.688V140.88C65.8918 141.304 65.9878 141.684 66.1798 142.02C66.3798 142.348 66.6558 142.604 67.0078 142.788C67.3598 142.972 67.7638 143.064 68.2198 143.064C68.5958 143.064 68.9358 143 69.2398 142.872C69.5518 142.744 69.8238 142.552 70.0558 142.296L70.6918 143.04C70.4038 143.376 70.0438 143.632 69.6118 143.808C69.1878 143.984 68.7118 144.072 68.1838 144.072ZM75.3274 144.072C74.7114 144.072 74.1594 143.936 73.6714 143.664C73.1914 143.392 72.8114 143.012 72.5314 142.524C72.2514 142.036 72.1114 141.468 72.1114 140.82C72.1114 140.172 72.2514 139.608 72.5314 139.128C72.8114 138.64 73.1914 138.26 73.6714 137.988C74.1594 137.716 74.7114 137.58 75.3274 137.58C75.8634 137.58 76.3474 137.7 76.7794 137.94C77.2114 138.18 77.5554 138.54 77.8114 139.02C78.0754 139.5 78.2074 140.1 78.2074 140.82C78.2074 141.54 78.0794 142.14 77.8234 142.62C77.5754 143.1 77.2354 143.464 76.8034 143.712C76.3714 143.952 75.8794 144.072 75.3274 144.072ZM75.4234 143.064C75.8234 143.064 76.1834 142.972 76.5034 142.788C76.8314 142.604 77.0874 142.344 77.2714 142.008C77.4634 141.664 77.5594 141.268 77.5594 140.82C77.5594 140.364 77.4634 139.972 77.2714 139.644C77.0874 139.308 76.8314 139.048 76.5034 138.864C76.1834 138.68 75.8234 138.588 75.4234 138.588C75.0154 138.588 74.6514 138.68 74.3314 138.864C74.0114 139.048 73.7554 139.308 73.5634 139.644C73.3714 139.972 73.2754 140.364 73.2754 140.82C73.2754 141.268 73.3714 141.664 73.5634 142.008C73.7554 142.344 74.0114 142.604 74.3314 142.788C74.6514 142.972 75.0154 143.064 75.4234 143.064ZM77.5954 144V142.284L77.6674 140.808L77.5474 139.332V135.096H78.6994V144H77.5954ZM84.1018 144V137.64H85.2538V144H84.1018ZM84.6778 136.416C84.4538 136.416 84.2658 136.344 84.1138 136.2C83.9698 136.056 83.8978 135.88 83.8978 135.672C83.8978 135.456 83.9698 135.276 84.1138 135.132C84.2658 134.988 84.4538 134.916 84.6778 134.916C84.9018 134.916 85.0858 134.988 85.2298 135.132C85.3818 135.268 85.4578 135.44 85.4578 135.648C85.4578 135.864 85.3858 136.048 85.2418 136.2C85.0978 136.344 84.9098 136.416 84.6778 136.416ZM90.8493 137.58C91.3693 137.58 91.8253 137.68 92.2173 137.88C92.6173 138.08 92.9293 138.384 93.1533 138.792C93.3773 139.2 93.4893 139.716 93.4893 140.34V144H92.3373V140.472C92.3373 139.856 92.1853 139.392 91.8813 139.08C91.5853 138.768 91.1653 138.612 90.6213 138.612C90.2133 138.612 89.8573 138.692 89.5533 138.852C89.2493 139.012 89.0133 139.248 88.8453 139.56C88.6853 139.872 88.6053 140.26 88.6053 140.724V144H87.4533V137.64H88.5573V139.356L88.3773 138.9C88.5853 138.484 88.9053 138.16 89.3373 137.928C89.7693 137.696 90.2733 137.58 90.8493 137.58ZM101.028 144.072C100.388 144.072 99.892 143.9 99.54 143.556C99.188 143.212 99.012 142.72 99.012 142.08V136.248H100.164V142.032C100.164 142.376 100.248 142.64 100.416 142.824C100.592 143.008 100.84 143.1 101.16 143.1C101.52 143.1 101.82 143 102.06 142.8L102.42 143.628C102.244 143.78 102.032 143.892 101.784 143.964C101.544 144.036 101.292 144.072 101.028 144.072ZM97.932 138.588V137.64H101.988V138.588H97.932ZM107.209 137.58C107.729 137.58 108.185 137.68 108.577 137.88C108.977 138.08 109.289 138.384 109.513 138.792C109.737 139.2 109.849 139.716 109.849 140.34V144H108.697V140.472C108.697 139.856 108.545 139.392 108.241 139.08C107.945 138.768 107.525 138.612 106.981 138.612C106.573 138.612 106.217 138.692 105.913 138.852C105.609 139.012 105.373 139.248 105.205 139.56C105.045 139.872 104.965 140.26 104.965 140.724V144H103.813V135.096H104.965V139.356L104.737 138.9C104.945 138.484 105.265 138.16 105.697 137.928C106.129 137.696 106.633 137.58 107.209 137.58ZM114.813 144.072C114.133 144.072 113.533 143.932 113.013 143.652C112.501 143.372 112.101 142.988 111.813 142.5C111.533 142.012 111.393 141.452 111.393 140.82C111.393 140.188 111.529 139.628 111.801 139.14C112.081 138.652 112.461 138.272 112.941 138C113.429 137.72 113.977 137.58 114.585 137.58C115.201 137.58 115.745 137.716 116.217 137.988C116.689 138.26 117.057 138.644 117.321 139.14C117.593 139.628 117.729 140.2 117.729 140.856C117.729 140.904 117.725 140.96 117.717 141.024C117.717 141.088 117.713 141.148 117.705 141.204H112.293V140.376H117.105L116.637 140.664C116.645 140.256 116.561 139.892 116.385 139.572C116.209 139.252 115.965 139.004 115.653 138.828C115.349 138.644 114.993 138.552 114.585 138.552C114.185 138.552 113.829 138.644 113.517 138.828C113.205 139.004 112.961 139.256 112.785 139.584C112.609 139.904 112.521 140.272 112.521 140.688V140.88C112.521 141.304 112.617 141.684 112.809 142.02C113.009 142.348 113.285 142.604 113.637 142.788C113.989 142.972 114.393 143.064 114.849 143.064C115.225 143.064 115.565 143 115.869 142.872C116.181 142.744 116.453 142.552 116.685 142.296L117.321 143.04C117.033 143.376 116.673 143.632 116.241 143.808C115.817 143.984 115.341 144.072 114.813 144.072ZM122.719 144V137.076C122.719 136.452 122.899 135.956 123.259 135.588C123.627 135.212 124.147 135.024 124.819 135.024C125.067 135.024 125.303 135.056 125.527 135.12C125.759 135.176 125.955 135.268 126.115 135.396L125.767 136.272C125.647 136.176 125.511 136.104 125.359 136.056C125.207 136 125.047 135.972 124.879 135.972C124.543 135.972 124.287 136.068 124.111 136.26C123.935 136.444 123.847 136.72 123.847 137.088V137.94L123.871 138.468V144H122.719ZM121.639 138.588V137.64H125.695V138.588H121.639ZM126.787 144V137.64H127.939V144H126.787ZM127.363 136.416C127.139 136.416 126.951 136.344 126.799 136.2C126.655 136.056 126.583 135.88 126.583 135.672C126.583 135.456 126.655 135.276 126.799 135.132C126.951 134.988 127.139 134.916 127.363 134.916C127.587 134.916 127.771 134.988 127.915 135.132C128.067 135.268 128.143 135.44 128.143 135.648C128.143 135.864 128.071 136.048 127.927 136.2C127.783 136.344 127.595 136.416 127.363 136.416ZM132.917 146.4C132.333 146.4 131.765 146.316 131.213 146.148C130.669 145.988 130.225 145.756 129.881 145.452L130.433 144.564C130.729 144.82 131.093 145.02 131.525 145.164C131.957 145.316 132.409 145.392 132.881 145.392C133.633 145.392 134.185 145.216 134.537 144.864C134.889 144.512 135.065 143.976 135.065 143.256V141.912L135.185 140.652L135.125 139.38V137.64H136.217V143.136C136.217 144.256 135.937 145.08 135.377 145.608C134.817 146.136 133.997 146.4 132.917 146.4ZM132.773 143.736C132.157 143.736 131.605 143.608 131.117 143.352C130.637 143.088 130.253 142.724 129.965 142.26C129.685 141.796 129.545 141.26 129.545 140.652C129.545 140.036 129.685 139.5 129.965 139.044C130.253 138.58 130.637 138.22 131.117 137.964C131.605 137.708 132.157 137.58 132.773 137.58C133.317 137.58 133.813 137.692 134.261 137.916C134.709 138.132 135.065 138.468 135.329 138.924C135.601 139.38 135.737 139.956 135.737 140.652C135.737 141.34 135.601 141.912 135.329 142.368C135.065 142.824 134.709 143.168 134.261 143.4C133.813 143.624 133.317 143.736 132.773 143.736ZM132.905 142.728C133.329 142.728 133.705 142.64 134.033 142.464C134.361 142.288 134.617 142.044 134.801 141.732C134.993 141.42 135.089 141.06 135.089 140.652C135.089 140.244 134.993 139.884 134.801 139.572C134.617 139.26 134.361 139.02 134.033 138.852C133.705 138.676 133.329 138.588 132.905 138.588C132.481 138.588 132.101 138.676 131.765 138.852C131.437 139.02 131.177 139.26 130.985 139.572C130.801 139.884 130.709 140.244 130.709 140.652C130.709 141.06 130.801 141.42 130.985 141.732C131.177 142.044 131.437 142.288 131.765 142.464C132.101 142.64 132.481 142.728 132.905 142.728ZM141.094 144.072C140.55 144.072 140.07 143.972 139.654 143.772C139.246 143.572 138.926 143.268 138.694 142.86C138.47 142.444 138.358 141.924 138.358 141.3V137.64H139.51V141.168C139.51 141.792 139.658 142.26 139.954 142.572C140.258 142.884 140.682 143.04 141.226 143.04C141.626 143.04 141.974 142.96 142.27 142.8C142.566 142.632 142.794 142.392 142.954 142.08C143.114 141.76 143.194 141.376 143.194 140.928V137.64H144.346V144H143.254V142.284L143.434 142.74C143.226 143.164 142.914 143.492 142.498 143.724C142.082 143.956 141.614 144.072 141.094 144.072ZM146.539 144V137.64H147.643V139.368L147.535 138.936C147.711 138.496 148.007 138.16 148.423 137.928C148.839 137.696 149.351 137.58 149.959 137.58V138.696C149.911 138.688 149.863 138.684 149.815 138.684C149.775 138.684 149.735 138.684 149.695 138.684C149.079 138.684 148.591 138.868 148.231 139.236C147.871 139.604 147.691 140.136 147.691 140.832V144H146.539ZM154.153 144.072C153.473 144.072 152.873 143.932 152.353 143.652C151.841 143.372 151.441 142.988 151.153 142.5C150.873 142.012 150.733 141.452 150.733 140.82C150.733 140.188 150.869 139.628 151.141 139.14C151.421 138.652 151.801 138.272 152.281 138C152.769 137.72 153.317 137.58 153.925 137.58C154.541 137.58 155.085 137.716 155.557 137.988C156.029 138.26 156.397 138.644 156.661 139.14C156.933 139.628 157.069 140.2 157.069 140.856C157.069 140.904 157.065 140.96 157.057 141.024C157.057 141.088 157.053 141.148 157.045 141.204H151.633V140.376H156.445L155.977 140.664C155.985 140.256 155.901 139.892 155.725 139.572C155.549 139.252 155.305 139.004 154.993 138.828C154.689 138.644 154.333 138.552 153.925 138.552C153.525 138.552 153.169 138.644 152.857 138.828C152.545 139.004 152.301 139.256 152.125 139.584C151.949 139.904 151.861 140.272 151.861 140.688V140.88C151.861 141.304 151.957 141.684 152.149 142.02C152.349 142.348 152.625 142.604 152.977 142.788C153.329 142.972 153.733 143.064 154.189 143.064C154.565 143.064 154.905 143 155.209 142.872C155.521 142.744 155.793 142.552 156.025 142.296L156.661 143.04C156.373 143.376 156.013 143.632 155.581 143.808C155.157 143.984 154.681 144.072 154.153 144.072ZM46.5944 159.072C45.9544 159.072 45.4584 158.9 45.1064 158.556C44.7544 158.212 44.5784 157.72 44.5784 157.08V151.248H45.7304V157.032C45.7304 157.376 45.8144 157.64 45.9824 157.824C46.1584 158.008 46.4064 158.1 46.7264 158.1C47.0864 158.1 47.3864 158 47.6264 157.8L47.9864 158.628C47.8104 158.78 47.5984 158.892 47.3504 158.964C47.1104 159.036 46.8584 159.072 46.5944 159.072ZM43.4984 153.588V152.64H47.5544V153.588H43.4984ZM51.8922 159.072C51.2522 159.072 50.6842 158.932 50.1882 158.652C49.6922 158.372 49.3002 157.988 49.0122 157.5C48.7242 157.004 48.5802 156.444 48.5802 155.82C48.5802 155.188 48.7242 154.628 49.0122 154.14C49.3002 153.652 49.6922 153.272 50.1882 153C50.6842 152.72 51.2522 152.58 51.8922 152.58C52.5242 152.58 53.0882 152.72 53.5842 153C54.0882 153.272 54.4802 153.652 54.7602 154.14C55.0482 154.62 55.1922 155.18 55.1922 155.82C55.1922 156.452 55.0482 157.012 54.7602 157.5C54.4802 157.988 54.0882 158.372 53.5842 158.652C53.0882 158.932 52.5242 159.072 51.8922 159.072ZM51.8922 158.064C52.3002 158.064 52.6642 157.972 52.9842 157.788C53.3122 157.604 53.5682 157.344 53.7522 157.008C53.9362 156.664 54.0282 156.268 54.0282 155.82C54.0282 155.364 53.9362 154.972 53.7522 154.644C53.5682 154.308 53.3122 154.048 52.9842 153.864C52.6642 153.68 52.3002 153.588 51.8922 153.588C51.4842 153.588 51.1202 153.68 50.8002 153.864C50.4802 154.048 50.2242 154.308 50.0322 154.644C49.8402 154.972 49.7442 155.364 49.7442 155.82C49.7442 156.268 49.8402 156.664 50.0322 157.008C50.2242 157.344 50.4802 157.604 50.8002 157.788C51.1202 157.972 51.4842 158.064 51.8922 158.064ZM60.176 159V152.076C60.176 151.452 60.356 150.956 60.716 150.588C61.084 150.212 61.604 150.024 62.276 150.024C62.524 150.024 62.76 150.056 62.984 150.12C63.216 150.176 63.412 150.268 63.572 150.396L63.224 151.272C63.104 151.176 62.968 151.104 62.816 151.056C62.664 151 62.504 150.972 62.336 150.972C62 150.972 61.744 151.068 61.568 151.26C61.392 151.444 61.304 151.72 61.304 152.088V152.94L61.328 153.468V159H60.176ZM59.096 153.588V152.64H63.152V153.588H59.096ZM66.8687 159.072C66.2287 159.072 65.6607 158.932 65.1647 158.652C64.6687 158.372 64.2767 157.988 63.9887 157.5C63.7007 157.004 63.5567 156.444 63.5567 155.82C63.5567 155.188 63.7007 154.628 63.9887 154.14C64.2767 153.652 64.6687 153.272 65.1647 153C65.6607 152.72 66.2287 152.58 66.8687 152.58C67.5007 152.58 68.0647 152.72 68.5607 153C69.0647 153.272 69.4567 153.652 69.7367 154.14C70.0247 154.62 70.1687 155.18 70.1687 155.82C70.1687 156.452 70.0247 157.012 69.7367 157.5C69.4567 157.988 69.0647 158.372 68.5607 158.652C68.0647 158.932 67.5007 159.072 66.8687 159.072ZM66.8687 158.064C67.2767 158.064 67.6407 157.972 67.9607 157.788C68.2887 157.604 68.5447 157.344 68.7287 157.008C68.9127 156.664 69.0047 156.268 69.0047 155.82C69.0047 155.364 68.9127 154.972 68.7287 154.644C68.5447 154.308 68.2887 154.048 67.9607 153.864C67.6407 153.68 67.2767 153.588 66.8687 153.588C66.4607 153.588 66.0967 153.68 65.7767 153.864C65.4567 154.048 65.2007 154.308 65.0087 154.644C64.8167 154.972 64.7207 155.364 64.7207 155.82C64.7207 156.268 64.8167 156.664 65.0087 157.008C65.2007 157.344 65.4567 157.604 65.7767 157.788C66.0967 157.972 66.4607 158.064 66.8687 158.064ZM71.7619 159V152.64H72.8659V154.368L72.7579 153.936C72.9339 153.496 73.2299 153.16 73.6459 152.928C74.0619 152.696 74.5739 152.58 75.1819 152.58V153.696C75.1339 153.688 75.0859 153.684 75.0379 153.684C74.9979 153.684 74.9579 153.684 74.9179 153.684C74.3019 153.684 73.8139 153.868 73.4539 154.236C73.0939 154.604 72.9139 155.136 72.9139 155.832V159H71.7619ZM84.5578 152.58C85.0698 152.58 85.5218 152.68 85.9138 152.88C86.3058 153.08 86.6098 153.384 86.8258 153.792C87.0498 154.2 87.1618 154.716 87.1618 155.34V159H86.0098V155.472C86.0098 154.856 85.8658 154.392 85.5778 154.08C85.2898 153.768 84.8858 153.612 84.3658 153.612C83.9818 153.612 83.6458 153.692 83.3578 153.852C83.0698 154.012 82.8458 154.248 82.6858 154.56C82.5338 154.872 82.4578 155.26 82.4578 155.724V159H81.3058V155.472C81.3058 154.856 81.1618 154.392 80.8738 154.08C80.5938 153.768 80.1898 153.612 79.6618 153.612C79.2858 153.612 78.9538 153.692 78.6658 153.852C78.3778 154.012 78.1538 154.248 77.9938 154.56C77.8338 154.872 77.7538 155.26 77.7538 155.724V159H76.6018V152.64H77.7058V154.332L77.5258 153.9C77.7258 153.484 78.0338 153.16 78.4498 152.928C78.8658 152.696 79.3498 152.58 79.9018 152.58C80.5098 152.58 81.0338 152.732 81.4738 153.036C81.9138 153.332 82.2018 153.784 82.3378 154.392L81.8698 154.2C82.0618 153.712 82.3978 153.32 82.8778 153.024C83.3578 152.728 83.9178 152.58 84.5578 152.58ZM94.6881 159.072C94.0481 159.072 93.5521 158.9 93.2001 158.556C92.8481 158.212 92.6721 157.72 92.6721 157.08V151.248H93.8241V157.032C93.8241 157.376 93.9081 157.64 94.0761 157.824C94.2521 158.008 94.5001 158.1 94.8201 158.1C95.1801 158.1 95.4801 158 95.7201 157.8L96.0801 158.628C95.9041 158.78 95.6921 158.892 95.4441 158.964C95.2041 159.036 94.9521 159.072 94.6881 159.072ZM91.5921 153.588V152.64H95.6481V153.588H91.5921ZM100.869 152.58C101.389 152.58 101.845 152.68 102.237 152.88C102.637 153.08 102.949 153.384 103.173 153.792C103.397 154.2 103.509 154.716 103.509 155.34V159H102.357V155.472C102.357 154.856 102.205 154.392 101.901 154.08C101.605 153.768 101.185 153.612 100.641 153.612C100.233 153.612 99.8769 153.692 99.5729 153.852C99.2689 154.012 99.0329 154.248 98.8649 154.56C98.7049 154.872 98.6249 155.26 98.6249 155.724V159H97.4729V150.096H98.6249V154.356L98.3969 153.9C98.6049 153.484 98.9249 153.16 99.3569 152.928C99.7889 152.696 100.293 152.58 100.869 152.58ZM108.473 159.072C107.793 159.072 107.193 158.932 106.673 158.652C106.161 158.372 105.761 157.988 105.473 157.5C105.193 157.012 105.053 156.452 105.053 155.82C105.053 155.188 105.189 154.628 105.461 154.14C105.741 153.652 106.121 153.272 106.601 153C107.089 152.72 107.637 152.58 108.245 152.58C108.861 152.58 109.405 152.716 109.877 152.988C110.349 153.26 110.717 153.644 110.981 154.14C111.253 154.628 111.389 155.2 111.389 155.856C111.389 155.904 111.385 155.96 111.377 156.024C111.377 156.088 111.373 156.148 111.365 156.204H105.953V155.376H110.765L110.297 155.664C110.305 155.256 110.221 154.892 110.045 154.572C109.869 154.252 109.625 154.004 109.313 153.828C109.009 153.644 108.653 153.552 108.245 153.552C107.845 153.552 107.489 153.644 107.177 153.828C106.865 154.004 106.621 154.256 106.445 154.584C106.269 154.904 106.181 155.272 106.181 155.688V155.88C106.181 156.304 106.277 156.684 106.469 157.02C106.669 157.348 106.945 157.604 107.297 157.788C107.649 157.972 108.053 158.064 108.509 158.064C108.885 158.064 109.225 158 109.529 157.872C109.841 157.744 110.113 157.552 110.345 157.296L110.981 158.04C110.693 158.376 110.333 158.632 109.901 158.808C109.477 158.984 109.001 159.072 108.473 159.072ZM118.395 159.072C117.755 159.072 117.259 158.9 116.907 158.556C116.555 158.212 116.379 157.72 116.379 157.08V151.248H117.531V157.032C117.531 157.376 117.615 157.64 117.783 157.824C117.959 158.008 118.207 158.1 118.527 158.1C118.887 158.1 119.187 158 119.427 157.8L119.787 158.628C119.611 158.78 119.399 158.892 119.151 158.964C118.911 159.036 118.659 159.072 118.395 159.072ZM115.299 153.588V152.64H119.355V153.588H115.299ZM125.128 159V157.656L125.068 157.404V155.112C125.068 154.624 124.924 154.248 124.636 153.984C124.356 153.712 123.932 153.576 123.364 153.576C122.988 153.576 122.62 153.64 122.26 153.768C121.9 153.888 121.596 154.052 121.348 154.26L120.868 153.396C121.196 153.132 121.588 152.932 122.044 152.796C122.508 152.652 122.992 152.58 123.496 152.58C124.368 152.58 125.04 152.792 125.512 153.216C125.984 153.64 126.22 154.288 126.22 155.16V159H125.128ZM123.04 159.072C122.568 159.072 122.152 158.992 121.792 158.832C121.44 158.672 121.168 158.452 120.976 158.172C120.784 157.884 120.688 157.56 120.688 157.2C120.688 156.856 120.768 156.544 120.928 156.264C121.096 155.984 121.364 155.76 121.732 155.592C122.108 155.424 122.612 155.34 123.244 155.34H125.26V156.168H123.292C122.716 156.168 122.328 156.264 122.128 156.456C121.928 156.648 121.828 156.88 121.828 157.152C121.828 157.464 121.952 157.716 122.2 157.908C122.448 158.092 122.792 158.184 123.232 158.184C123.664 158.184 124.04 158.088 124.36 157.896C124.688 157.704 124.924 157.424 125.068 157.056L125.296 157.848C125.144 158.224 124.876 158.524 124.492 158.748C124.108 158.964 123.624 159.072 123.04 159.072ZM128.352 159V152.64H129.504V159H128.352ZM128.928 151.416C128.704 151.416 128.516 151.344 128.364 151.2C128.22 151.056 128.148 150.88 128.148 150.672C128.148 150.456 128.22 150.276 128.364 150.132C128.516 149.988 128.704 149.916 128.928 149.916C129.152 149.916 129.336 149.988 129.48 150.132C129.632 150.268 129.708 150.44 129.708 150.648C129.708 150.864 129.636 151.048 129.492 151.2C129.348 151.344 129.16 151.416 128.928 151.416ZM131.703 159V150.096H132.855V159H131.703ZM135.331 159.072C135.107 159.072 134.915 158.996 134.755 158.844C134.595 158.684 134.515 158.484 134.515 158.244C134.515 158.004 134.595 157.808 134.755 157.656C134.915 157.504 135.107 157.428 135.331 157.428C135.547 157.428 135.731 157.504 135.883 157.656C136.043 157.808 136.123 158.004 136.123 158.244C136.123 158.484 136.043 158.684 135.883 158.844C135.731 158.996 135.547 159.072 135.331 159.072Z" fill="#008E86"/>
<path d="M126 69.0021L126 51.0022L114 39.0022L91.5 39.0022L44.9999 60.0022L122.001 73.4428L126 69.0021Z" fill="#008E86" stroke="#00635D" stroke-width="2" stroke-linejoin="round"/>
<path d="M45 60.0039L107 60.0039L107 70.5039L45 60.0039Z" fill="#00D8CC" stroke="#00635D" stroke-width="2" stroke-linejoin="round"/>
<path d="M61 53.0039L70 64.0039" stroke="#333333" stroke-width="2" stroke-dasharray="4 4"/>
<path opacity="0.25" d="M45 60.0039L126 60.0039" stroke="#333333" stroke-width="2"/>
<path d="M79.227 67.4689C78.9328 67.0014 78.3155 66.8609 77.848 67.155L70.2305 71.9482C69.7631 72.2423 69.6226 72.8597 69.9167 73.3271C70.2109 73.7946 70.8282 73.9351 71.2957 73.641L78.0668 69.3804L82.3273 76.1515C82.6215 76.6189 83.2388 76.7594 83.7063 76.4653C84.1737 76.1712 84.3142 75.5538 84.0201 75.0863L79.227 67.4689ZM61.2945 77.0812C60.7668 76.9181 60.2068 77.2136 60.0437 77.7413C59.8806 78.2689 60.1761 78.8289 60.7037 78.992L61.2945 77.0812ZM77.4055 67.7795C76.5044 71.7393 74.3375 74.5176 71.537 76.1345L72.537 77.8665C75.8455 75.9564 78.3377 72.6963 79.3556 68.2233L77.4055 67.7795ZM71.537 76.1345C70.1834 76.916 68.3232 77.379 66.4035 77.5249C64.4869 77.6705 62.6219 77.4916 61.2945 77.0812L60.7037 78.992C62.3272 79.4939 64.4539 79.6788 66.555 79.5191C68.6529 79.3597 70.8361 78.8485 72.537 77.8665L71.537 76.1345Z" fill="black"/>
</g>
<defs>
<clipPath id="clip0_18_622">
<rect width="180" height="180" rx="20" fill="white"/>
</clipPath>
<clipPath id="clip1_18_622">
<path d="M0 30L-1.31134e-06 0L30 -1.31134e-06L30 10C30 21.0457 21.0457 30 10 30L0 30Z" fill="white"/>
</clipPath>
</defs>
</svg>
