<svg width="180" height="180" viewBox="0 0 180 180" fill="none" xmlns="http://www.w3.org/2000/svg">
<rect width="180" height="180" rx="20" fill="#F2F2F2"/>
<path d="M37.5841 124.572H41.9161V125.604H37.5841V124.572ZM37.7041 129H36.5041V120.6H42.4321V121.644H37.7041V129ZM46.4781 129.072C45.8381 129.072 45.2701 128.932 44.7741 128.652C44.2781 128.372 43.8861 127.988 43.5981 127.5C43.3101 127.004 43.1661 126.444 43.1661 125.82C43.1661 125.188 43.3101 124.628 43.5981 124.14C43.8861 123.652 44.2781 123.272 44.7741 123C45.2701 122.72 45.8381 122.58 46.4781 122.58C47.1101 122.58 47.6741 122.72 48.1701 123C48.6741 123.272 49.0661 123.652 49.3461 124.14C49.6341 124.62 49.7781 125.18 49.7781 125.82C49.7781 126.452 49.6341 127.012 49.3461 127.5C49.0661 127.988 48.6741 128.372 48.1701 128.652C47.6741 128.932 47.1101 129.072 46.4781 129.072ZM46.4781 128.064C46.8861 128.064 47.2501 127.972 47.5701 127.788C47.8981 127.604 48.1541 127.344 48.3381 127.008C48.5221 126.664 48.6141 126.268 48.6141 125.82C48.6141 125.364 48.5221 124.972 48.3381 124.644C48.1541 124.308 47.8981 124.048 47.5701 123.864C47.2501 123.68 46.8861 123.588 46.4781 123.588C46.0701 123.588 45.7061 123.68 45.3861 123.864C45.0661 124.048 44.8101 124.308 44.6181 124.644C44.4261 124.972 44.3301 125.364 44.3301 125.82C44.3301 126.268 44.4261 126.664 44.6181 127.008C44.8101 127.344 45.0661 127.604 45.3861 127.788C45.7061 127.972 46.0701 128.064 46.4781 128.064ZM51.3713 129V120.096H52.5233V129H51.3713ZM57.3509 129.072C56.7349 129.072 56.1829 128.936 55.6949 128.664C55.2149 128.392 54.8349 128.012 54.5549 127.524C54.2749 127.036 54.1349 126.468 54.1349 125.82C54.1349 125.172 54.2749 124.608 54.5549 124.128C54.8349 123.64 55.2149 123.26 55.6949 122.988C56.1829 122.716 56.7349 122.58 57.3509 122.58C57.8869 122.58 58.3709 122.7 58.8029 122.94C59.2349 123.18 59.5789 123.54 59.8349 124.02C60.0989 124.5 60.2309 125.1 60.2309 125.82C60.2309 126.54 60.1029 127.14 59.8469 127.62C59.5989 128.1 59.2589 128.464 58.8269 128.712C58.3949 128.952 57.9029 129.072 57.3509 129.072ZM57.4469 128.064C57.8469 128.064 58.2069 127.972 58.5269 127.788C58.8549 127.604 59.1109 127.344 59.2949 127.008C59.4869 126.664 59.5829 126.268 59.5829 125.82C59.5829 125.364 59.4869 124.972 59.2949 124.644C59.1109 124.308 58.8549 124.048 58.5269 123.864C58.2069 123.68 57.8469 123.588 57.4469 123.588C57.0389 123.588 56.6749 123.68 56.3549 123.864C56.0349 124.048 55.7789 124.308 55.5869 124.644C55.3949 124.972 55.2989 125.364 55.2989 125.82C55.2989 126.268 55.3949 126.664 55.5869 127.008C55.7789 127.344 56.0349 127.604 56.3549 127.788C56.6749 127.972 57.0389 128.064 57.4469 128.064ZM59.6189 129V127.284L59.6909 125.808L59.5709 124.332V120.096H60.7229V129H59.6189ZM68.3092 129.072C67.6692 129.072 67.1732 128.9 66.8212 128.556C66.4692 128.212 66.2932 127.72 66.2932 127.08V121.248H67.4452V127.032C67.4452 127.376 67.5292 127.64 67.6972 127.824C67.8732 128.008 68.1212 128.1 68.4412 128.1C68.8012 128.1 69.1012 128 69.3412 127.8L69.7012 128.628C69.5252 128.78 69.3132 128.892 69.0652 128.964C68.8252 129.036 68.5732 129.072 68.3092 129.072ZM65.2132 123.588V122.64H69.2692V123.588H65.2132ZM74.49 122.58C75.01 122.58 75.466 122.68 75.858 122.88C76.258 123.08 76.57 123.384 76.794 123.792C77.018 124.2 77.13 124.716 77.13 125.34V129H75.978V125.472C75.978 124.856 75.826 124.392 75.522 124.08C75.226 123.768 74.806 123.612 74.262 123.612C73.854 123.612 73.498 123.692 73.194 123.852C72.89 124.012 72.654 124.248 72.486 124.56C72.326 124.872 72.246 125.26 72.246 125.724V129H71.094V120.096H72.246V124.356L72.018 123.9C72.226 123.484 72.546 123.16 72.978 122.928C73.41 122.696 73.914 122.58 74.49 122.58ZM82.0939 129.072C81.4139 129.072 80.8139 128.932 80.2939 128.652C79.7819 128.372 79.3819 127.988 79.0939 127.5C78.8139 127.012 78.6739 126.452 78.6739 125.82C78.6739 125.188 78.8099 124.628 79.0819 124.14C79.3619 123.652 79.7419 123.272 80.2219 123C80.7099 122.72 81.2579 122.58 81.8659 122.58C82.4819 122.58 83.0259 122.716 83.4979 122.988C83.9699 123.26 84.3379 123.644 84.6019 124.14C84.8739 124.628 85.0099 125.2 85.0099 125.856C85.0099 125.904 85.0059 125.96 84.9979 126.024C84.9979 126.088 84.9939 126.148 84.9859 126.204H79.5739V125.376H84.3859L83.9179 125.664C83.9259 125.256 83.8419 124.892 83.6659 124.572C83.4899 124.252 83.2459 124.004 82.9339 123.828C82.6299 123.644 82.2739 123.552 81.8659 123.552C81.4659 123.552 81.1099 123.644 80.7979 123.828C80.4859 124.004 80.2419 124.256 80.0659 124.584C79.8899 124.904 79.8019 125.272 79.8019 125.688V125.88C79.8019 126.304 79.8979 126.684 80.0899 127.02C80.2899 127.348 80.5659 127.604 80.9179 127.788C81.2699 127.972 81.6739 128.064 82.1299 128.064C82.5059 128.064 82.8459 128 83.1499 127.872C83.4619 127.744 83.7339 127.552 83.9659 127.296L84.6019 128.04C84.3139 128.376 83.9539 128.632 83.5219 128.808C83.0979 128.984 82.6219 129.072 82.0939 129.072ZM92.0162 129.072C91.3762 129.072 90.8802 128.9 90.5282 128.556C90.1762 128.212 90.0002 127.72 90.0002 127.08V121.248H91.1522V127.032C91.1522 127.376 91.2362 127.64 91.4042 127.824C91.5802 128.008 91.8282 128.1 92.1482 128.1C92.5082 128.1 92.8082 128 93.0482 127.8L93.4082 128.628C93.2322 128.78 93.0202 128.892 92.7722 128.964C92.5322 129.036 92.2802 129.072 92.0162 129.072ZM88.9202 123.588V122.64H92.9762V123.588H88.9202ZM96.0278 129L93.6638 122.64H94.7558L96.8558 128.4H96.3398L98.5238 122.64H99.4958L101.632 128.4H101.128L103.276 122.64H104.308L101.932 129H100.828L98.8238 123.744H99.1598L97.1318 129H96.0278ZM108.025 129.072C107.385 129.072 106.817 128.932 106.321 128.652C105.825 128.372 105.433 127.988 105.145 127.5C104.857 127.004 104.713 126.444 104.713 125.82C104.713 125.188 104.857 124.628 105.145 124.14C105.433 123.652 105.825 123.272 106.321 123C106.817 122.72 107.385 122.58 108.025 122.58C108.657 122.58 109.221 122.72 109.717 123C110.221 123.272 110.613 123.652 110.893 124.14C111.181 124.62 111.325 125.18 111.325 125.82C111.325 126.452 111.181 127.012 110.893 127.5C110.613 127.988 110.221 128.372 109.717 128.652C109.221 128.932 108.657 129.072 108.025 129.072ZM108.025 128.064C108.433 128.064 108.797 127.972 109.117 127.788C109.445 127.604 109.701 127.344 109.885 127.008C110.069 126.664 110.161 126.268 110.161 125.82C110.161 125.364 110.069 124.972 109.885 124.644C109.701 124.308 109.445 124.048 109.117 123.864C108.797 123.68 108.433 123.588 108.025 123.588C107.617 123.588 107.253 123.68 106.933 123.864C106.613 124.048 106.357 124.308 106.165 124.644C105.973 124.972 105.877 125.364 105.877 125.82C105.877 126.268 105.973 126.664 106.165 127.008C106.357 127.344 106.613 127.604 106.933 127.788C107.253 127.972 107.617 128.064 108.025 128.064ZM118.973 129.072C118.293 129.072 117.693 128.932 117.173 128.652C116.661 128.372 116.261 127.988 115.973 127.5C115.693 127.012 115.553 126.452 115.553 125.82C115.553 125.188 115.689 124.628 115.961 124.14C116.241 123.652 116.621 123.272 117.101 123C117.589 122.72 118.137 122.58 118.745 122.58C119.361 122.58 119.905 122.716 120.377 122.988C120.849 123.26 121.217 123.644 121.481 124.14C121.753 124.628 121.889 125.2 121.889 125.856C121.889 125.904 121.885 125.96 121.877 126.024C121.877 126.088 121.873 126.148 121.865 126.204H116.453V125.376H121.265L120.797 125.664C120.805 125.256 120.721 124.892 120.545 124.572C120.369 124.252 120.125 124.004 119.813 123.828C119.509 123.644 119.153 123.552 118.745 123.552C118.345 123.552 117.989 123.644 117.677 123.828C117.365 124.004 117.121 124.256 116.945 124.584C116.769 124.904 116.681 125.272 116.681 125.688V125.88C116.681 126.304 116.777 126.684 116.969 127.02C117.169 127.348 117.445 127.604 117.797 127.788C118.149 127.972 118.553 128.064 119.009 128.064C119.385 128.064 119.725 128 120.029 127.872C120.341 127.744 120.613 127.552 120.845 127.296L121.481 128.04C121.193 128.376 120.833 128.632 120.401 128.808C119.977 128.984 119.501 129.072 118.973 129.072ZM126.884 122.58C127.404 122.58 127.86 122.68 128.252 122.88C128.652 123.08 128.964 123.384 129.188 123.792C129.412 124.2 129.524 124.716 129.524 125.34V129H128.372V125.472C128.372 124.856 128.22 124.392 127.916 124.08C127.62 123.768 127.2 123.612 126.656 123.612C126.248 123.612 125.892 123.692 125.588 123.852C125.284 124.012 125.048 124.248 124.88 124.56C124.72 124.872 124.64 125.26 124.64 125.724V129H123.488V122.64H124.592V124.356L124.412 123.9C124.62 123.484 124.94 123.16 125.372 122.928C125.804 122.696 126.308 122.58 126.884 122.58ZM134.284 129.072C133.668 129.072 133.116 128.936 132.628 128.664C132.148 128.392 131.768 128.012 131.488 127.524C131.208 127.036 131.068 126.468 131.068 125.82C131.068 125.172 131.208 124.608 131.488 124.128C131.768 123.64 132.148 123.26 132.628 122.988C133.116 122.716 133.668 122.58 134.284 122.58C134.82 122.58 135.304 122.7 135.736 122.94C136.168 123.18 136.512 123.54 136.768 124.02C137.032 124.5 137.164 125.1 137.164 125.82C137.164 126.54 137.036 127.14 136.78 127.62C136.532 128.1 136.192 128.464 135.76 128.712C135.328 128.952 134.836 129.072 134.284 129.072ZM134.38 128.064C134.78 128.064 135.14 127.972 135.46 127.788C135.788 127.604 136.044 127.344 136.228 127.008C136.42 126.664 136.516 126.268 136.516 125.82C136.516 125.364 136.42 124.972 136.228 124.644C136.044 124.308 135.788 124.048 135.46 123.864C135.14 123.68 134.78 123.588 134.38 123.588C133.972 123.588 133.608 123.68 133.288 123.864C132.968 124.048 132.712 124.308 132.52 124.644C132.328 124.972 132.232 125.364 132.232 125.82C132.232 126.268 132.328 126.664 132.52 127.008C132.712 127.344 132.968 127.604 133.288 127.788C133.608 127.972 133.972 128.064 134.38 128.064ZM136.552 129V127.284L136.624 125.808L136.504 124.332V120.096H137.656V129H136.552ZM141.66 129.072C141.132 129.072 140.628 129 140.148 128.856C139.676 128.712 139.304 128.536 139.032 128.328L139.512 127.416C139.784 127.6 140.12 127.756 140.52 127.884C140.92 128.012 141.328 128.076 141.744 128.076C142.28 128.076 142.664 128 142.896 127.848C143.136 127.696 143.256 127.484 143.256 127.212C143.256 127.012 143.184 126.856 143.04 126.744C142.896 126.632 142.704 126.548 142.464 126.492C142.232 126.436 141.972 126.388 141.684 126.348C141.396 126.3 141.108 126.244 140.82 126.18C140.532 126.108 140.268 126.012 140.028 125.892C139.788 125.764 139.596 125.592 139.452 125.376C139.308 125.152 139.236 124.856 139.236 124.488C139.236 124.104 139.344 123.768 139.56 123.48C139.776 123.192 140.08 122.972 140.472 122.82C140.872 122.66 141.344 122.58 141.888 122.58C142.304 122.58 142.724 122.632 143.148 122.736C143.58 122.832 143.932 122.972 144.204 123.156L143.712 124.068C143.424 123.876 143.124 123.744 142.812 123.672C142.5 123.6 142.188 123.564 141.876 123.564C141.372 123.564 140.996 123.648 140.748 123.816C140.5 123.976 140.376 124.184 140.376 124.44C140.376 124.656 140.448 124.824 140.592 124.944C140.744 125.056 140.936 125.144 141.168 125.208C141.408 125.272 141.672 125.328 141.96 125.376C142.248 125.416 142.536 125.472 142.824 125.544C143.112 125.608 143.372 125.7 143.604 125.82C143.844 125.94 144.036 126.108 144.18 126.324C144.332 126.54 144.408 126.828 144.408 127.188C144.408 127.572 144.296 127.904 144.072 128.184C143.848 128.464 143.532 128.684 143.124 128.844C142.716 128.996 142.228 129.072 141.66 129.072ZM34.3893 144.072C33.7493 144.072 33.2533 143.9 32.9013 143.556C32.5493 143.212 32.3733 142.72 32.3733 142.08V136.248H33.5253V142.032C33.5253 142.376 33.6093 142.64 33.7773 142.824C33.9533 143.008 34.2013 143.1 34.5213 143.1C34.8813 143.1 35.1813 143 35.4213 142.8L35.7813 143.628C35.6053 143.78 35.3933 143.892 35.1453 143.964C34.9053 144.036 34.6533 144.072 34.3893 144.072ZM31.2933 138.588V137.64H35.3493V138.588H31.2933ZM39.6871 144.072C39.0471 144.072 38.4791 143.932 37.9831 143.652C37.4871 143.372 37.0951 142.988 36.8071 142.5C36.5191 142.004 36.3751 141.444 36.3751 140.82C36.3751 140.188 36.5191 139.628 36.8071 139.14C37.0951 138.652 37.4871 138.272 37.9831 138C38.4791 137.72 39.0471 137.58 39.6871 137.58C40.3191 137.58 40.8831 137.72 41.3791 138C41.8831 138.272 42.2751 138.652 42.5551 139.14C42.8431 139.62 42.9871 140.18 42.9871 140.82C42.9871 141.452 42.8431 142.012 42.5551 142.5C42.2751 142.988 41.8831 143.372 41.3791 143.652C40.8831 143.932 40.3191 144.072 39.6871 144.072ZM39.6871 143.064C40.0951 143.064 40.4591 142.972 40.7791 142.788C41.1071 142.604 41.3631 142.344 41.5471 142.008C41.7311 141.664 41.8231 141.268 41.8231 140.82C41.8231 140.364 41.7311 139.972 41.5471 139.644C41.3631 139.308 41.1071 139.048 40.7791 138.864C40.4591 138.68 40.0951 138.588 39.6871 138.588C39.2791 138.588 38.9151 138.68 38.5951 138.864C38.2751 139.048 38.0191 139.308 37.8271 139.644C37.6351 139.972 37.5391 140.364 37.5391 140.82C37.5391 141.268 37.6351 141.664 37.8271 142.008C38.0191 142.344 38.2751 142.604 38.5951 142.788C38.9151 142.972 39.2791 143.064 39.6871 143.064ZM45.7485 144L43.3845 137.64H44.4765L46.5765 143.4H46.0605L48.2445 137.64H49.2165L51.3525 143.4H50.8485L52.9965 137.64H54.0285L51.6525 144H50.5485L48.5445 138.744H48.8805L46.8525 144H45.7485ZM58.9463 144V142.656L58.8863 142.404V140.112C58.8863 139.624 58.7423 139.248 58.4543 138.984C58.1743 138.712 57.7503 138.576 57.1823 138.576C56.8063 138.576 56.4383 138.64 56.0783 138.768C55.7183 138.888 55.4143 139.052 55.1663 139.26L54.6863 138.396C55.0143 138.132 55.4063 137.932 55.8623 137.796C56.3263 137.652 56.8103 137.58 57.3143 137.58C58.1863 137.58 58.8583 137.792 59.3303 138.216C59.8023 138.64 60.0383 139.288 60.0383 140.16V144H58.9463ZM56.8583 144.072C56.3863 144.072 55.9703 143.992 55.6103 143.832C55.2583 143.672 54.9863 143.452 54.7943 143.172C54.6023 142.884 54.5063 142.56 54.5063 142.2C54.5063 141.856 54.5863 141.544 54.7463 141.264C54.9143 140.984 55.1823 140.76 55.5503 140.592C55.9263 140.424 56.4303 140.34 57.0623 140.34H59.0783V141.168H57.1103C56.5343 141.168 56.1463 141.264 55.9463 141.456C55.7463 141.648 55.6463 141.88 55.6463 142.152C55.6463 142.464 55.7703 142.716 56.0183 142.908C56.2663 143.092 56.6103 143.184 57.0503 143.184C57.4823 143.184 57.8583 143.088 58.1783 142.896C58.5063 142.704 58.7423 142.424 58.8863 142.056L59.1143 142.848C58.9623 143.224 58.6943 143.524 58.3103 143.748C57.9263 143.964 57.4423 144.072 56.8583 144.072ZM62.1701 144V137.64H63.2741V139.368L63.1661 138.936C63.3421 138.496 63.6381 138.16 64.0541 137.928C64.4701 137.696 64.9821 137.58 65.5901 137.58V138.696C65.5421 138.688 65.4941 138.684 65.4461 138.684C65.4061 138.684 65.3661 138.684 65.3261 138.684C64.7101 138.684 64.2221 138.868 63.8621 139.236C63.5021 139.604 63.3221 140.136 63.3221 140.832V144H62.1701ZM69.5794 144.072C68.9634 144.072 68.4114 143.936 67.9234 143.664C67.4434 143.392 67.0634 143.012 66.7834 142.524C66.5034 142.036 66.3634 141.468 66.3634 140.82C66.3634 140.172 66.5034 139.608 66.7834 139.128C67.0634 138.64 67.4434 138.26 67.9234 137.988C68.4114 137.716 68.9634 137.58 69.5794 137.58C70.1154 137.58 70.5994 137.7 71.0314 137.94C71.4634 138.18 71.8074 138.54 72.0634 139.02C72.3274 139.5 72.4594 140.1 72.4594 140.82C72.4594 141.54 72.3314 142.14 72.0754 142.62C71.8274 143.1 71.4874 143.464 71.0554 143.712C70.6234 143.952 70.1314 144.072 69.5794 144.072ZM69.6754 143.064C70.0754 143.064 70.4354 142.972 70.7554 142.788C71.0834 142.604 71.3394 142.344 71.5234 142.008C71.7154 141.664 71.8114 141.268 71.8114 140.82C71.8114 140.364 71.7154 139.972 71.5234 139.644C71.3394 139.308 71.0834 139.048 70.7554 138.864C70.4354 138.68 70.0754 138.588 69.6754 138.588C69.2674 138.588 68.9034 138.68 68.5834 138.864C68.2634 139.048 68.0074 139.308 67.8154 139.644C67.6234 139.972 67.5274 140.364 67.5274 140.82C67.5274 141.268 67.6234 141.664 67.8154 142.008C68.0074 142.344 68.2634 142.604 68.5834 142.788C68.9034 142.972 69.2674 143.064 69.6754 143.064ZM71.8474 144V142.284L71.9194 140.808L71.7994 139.332V135.096H72.9514V144H71.8474ZM76.9551 144.072C76.4271 144.072 75.9231 144 75.4431 143.856C74.9711 143.712 74.5991 143.536 74.3271 143.328L74.8071 142.416C75.0791 142.6 75.4151 142.756 75.8151 142.884C76.2151 143.012 76.6231 143.076 77.0391 143.076C77.5751 143.076 77.9591 143 78.1911 142.848C78.4311 142.696 78.5511 142.484 78.5511 142.212C78.5511 142.012 78.4791 141.856 78.3351 141.744C78.1911 141.632 77.9991 141.548 77.7591 141.492C77.5271 141.436 77.2671 141.388 76.9791 141.348C76.6911 141.3 76.4031 141.244 76.1151 141.18C75.8271 141.108 75.5631 141.012 75.3231 140.892C75.0831 140.764 74.8911 140.592 74.7471 140.376C74.6031 140.152 74.5311 139.856 74.5311 139.488C74.5311 139.104 74.6391 138.768 74.8551 138.48C75.0711 138.192 75.3751 137.972 75.7671 137.82C76.1671 137.66 76.6391 137.58 77.1831 137.58C77.5991 137.58 78.0191 137.632 78.4431 137.736C78.8751 137.832 79.2271 137.972 79.4991 138.156L79.0071 139.068C78.7191 138.876 78.4191 138.744 78.1071 138.672C77.7951 138.6 77.4831 138.564 77.1711 138.564C76.6671 138.564 76.2911 138.648 76.0431 138.816C75.7951 138.976 75.6711 139.184 75.6711 139.44C75.6711 139.656 75.7431 139.824 75.8871 139.944C76.0391 140.056 76.2311 140.144 76.4631 140.208C76.7031 140.272 76.9671 140.328 77.2551 140.376C77.5431 140.416 77.8311 140.472 78.1191 140.544C78.4071 140.608 78.6671 140.7 78.8991 140.82C79.1391 140.94 79.3311 141.108 79.4751 141.324C79.6271 141.54 79.7031 141.828 79.7031 142.188C79.7031 142.572 79.5911 142.904 79.3671 143.184C79.1431 143.464 78.8271 143.684 78.4191 143.844C78.0111 143.996 77.5231 144.072 76.9551 144.072ZM86.5494 144.072C85.9094 144.072 85.4134 143.9 85.0614 143.556C84.7094 143.212 84.5334 142.72 84.5334 142.08V136.248H85.6854V142.032C85.6854 142.376 85.7694 142.64 85.9374 142.824C86.1134 143.008 86.3614 143.1 86.6814 143.1C87.0414 143.1 87.3414 143 87.5814 142.8L87.9414 143.628C87.7654 143.78 87.5534 143.892 87.3054 143.964C87.0654 144.036 86.8134 144.072 86.5494 144.072ZM83.4534 138.588V137.64H87.5094V138.588H83.4534ZM92.7302 137.58C93.2502 137.58 93.7062 137.68 94.0982 137.88C94.4982 138.08 94.8102 138.384 95.0342 138.792C95.2582 139.2 95.3702 139.716 95.3702 140.34V144H94.2182V140.472C94.2182 139.856 94.0662 139.392 93.7622 139.08C93.4662 138.768 93.0462 138.612 92.5022 138.612C92.0942 138.612 91.7382 138.692 91.4342 138.852C91.1302 139.012 90.8942 139.248 90.7262 139.56C90.5662 139.872 90.4862 140.26 90.4862 140.724V144H89.3342V135.096H90.4862V139.356L90.2582 138.9C90.4662 138.484 90.7862 138.16 91.2182 137.928C91.6502 137.696 92.1542 137.58 92.7302 137.58ZM100.334 144.072C99.6542 144.072 99.0542 143.932 98.5342 143.652C98.0222 143.372 97.6222 142.988 97.3342 142.5C97.0542 142.012 96.9142 141.452 96.9142 140.82C96.9142 140.188 97.0502 139.628 97.3222 139.14C97.6022 138.652 97.9822 138.272 98.4622 138C98.9502 137.72 99.4982 137.58 100.106 137.58C100.722 137.58 101.266 137.716 101.738 137.988C102.21 138.26 102.578 138.644 102.842 139.14C103.114 139.628 103.25 140.2 103.25 140.856C103.25 140.904 103.246 140.96 103.238 141.024C103.238 141.088 103.234 141.148 103.226 141.204H97.8142V140.376H102.626L102.158 140.664C102.166 140.256 102.082 139.892 101.906 139.572C101.73 139.252 101.486 139.004 101.174 138.828C100.87 138.644 100.514 138.552 100.106 138.552C99.7062 138.552 99.3502 138.644 99.0382 138.828C98.7262 139.004 98.4822 139.256 98.3062 139.584C98.1302 139.904 98.0422 140.272 98.0422 140.688V140.88C98.0422 141.304 98.1382 141.684 98.3302 142.02C98.5302 142.348 98.8062 142.604 99.1582 142.788C99.5102 142.972 99.9142 143.064 100.37 143.064C100.746 143.064 101.086 143 101.39 142.872C101.702 142.744 101.974 142.552 102.206 142.296L102.842 143.04C102.554 143.376 102.194 143.632 101.762 143.808C101.338 143.984 100.862 144.072 100.334 144.072ZM110.844 144.072C110.196 144.072 109.616 143.932 109.104 143.652C108.6 143.372 108.204 142.988 107.916 142.5C107.628 142.012 107.484 141.452 107.484 140.82C107.484 140.188 107.628 139.628 107.916 139.14C108.204 138.652 108.6 138.272 109.104 138C109.616 137.72 110.196 137.58 110.844 137.58C111.42 137.58 111.932 137.696 112.38 137.928C112.836 138.152 113.188 138.488 113.436 138.936L112.56 139.5C112.352 139.188 112.096 138.96 111.792 138.816C111.496 138.664 111.176 138.588 110.832 138.588C110.416 138.588 110.044 138.68 109.716 138.864C109.388 139.048 109.128 139.308 108.936 139.644C108.744 139.972 108.648 140.364 108.648 140.82C108.648 141.276 108.744 141.672 108.936 142.008C109.128 142.344 109.388 142.604 109.716 142.788C110.044 142.972 110.416 143.064 110.832 143.064C111.176 143.064 111.496 142.992 111.792 142.848C112.096 142.696 112.352 142.464 112.56 142.152L113.436 142.704C113.188 143.144 112.836 143.484 112.38 143.724C111.932 143.956 111.42 144.072 110.844 144.072ZM117.666 144.072C116.986 144.072 116.386 143.932 115.866 143.652C115.354 143.372 114.954 142.988 114.666 142.5C114.386 142.012 114.246 141.452 114.246 140.82C114.246 140.188 114.382 139.628 114.654 139.14C114.934 138.652 115.314 138.272 115.794 138C116.282 137.72 116.83 137.58 117.438 137.58C118.054 137.58 118.598 137.716 119.07 137.988C119.542 138.26 119.91 138.644 120.174 139.14C120.446 139.628 120.582 140.2 120.582 140.856C120.582 140.904 120.578 140.96 120.57 141.024C120.57 141.088 120.566 141.148 120.558 141.204H115.146V140.376H119.958L119.49 140.664C119.498 140.256 119.414 139.892 119.238 139.572C119.062 139.252 118.818 139.004 118.506 138.828C118.202 138.644 117.846 138.552 117.438 138.552C117.038 138.552 116.682 138.644 116.37 138.828C116.058 139.004 115.814 139.256 115.638 139.584C115.462 139.904 115.374 140.272 115.374 140.688V140.88C115.374 141.304 115.47 141.684 115.662 142.02C115.862 142.348 116.138 142.604 116.49 142.788C116.842 142.972 117.246 143.064 117.702 143.064C118.078 143.064 118.418 143 118.722 142.872C119.034 142.744 119.306 142.552 119.538 142.296L120.174 143.04C119.886 143.376 119.526 143.632 119.094 143.808C118.67 143.984 118.194 144.072 117.666 144.072ZM125.578 137.58C126.098 137.58 126.554 137.68 126.946 137.88C127.346 138.08 127.658 138.384 127.882 138.792C128.106 139.2 128.218 139.716 128.218 140.34V144H127.066V140.472C127.066 139.856 126.914 139.392 126.61 139.08C126.314 138.768 125.894 138.612 125.35 138.612C124.942 138.612 124.586 138.692 124.282 138.852C123.978 139.012 123.742 139.248 123.574 139.56C123.414 139.872 123.334 140.26 123.334 140.724V144H122.182V137.64H123.286V139.356L123.106 138.9C123.314 138.484 123.634 138.16 124.066 137.928C124.498 137.696 125.002 137.58 125.578 137.58ZM132.534 144.072C131.894 144.072 131.398 143.9 131.046 143.556C130.694 143.212 130.518 142.72 130.518 142.08V136.248H131.67V142.032C131.67 142.376 131.754 142.64 131.922 142.824C132.098 143.008 132.346 143.1 132.666 143.1C133.026 143.1 133.326 143 133.566 142.8L133.926 143.628C133.75 143.78 133.538 143.892 133.29 143.964C133.05 144.036 132.798 144.072 132.534 144.072ZM129.438 138.588V137.64H133.494V138.588H129.438ZM137.94 144.072C137.26 144.072 136.66 143.932 136.14 143.652C135.628 143.372 135.228 142.988 134.94 142.5C134.66 142.012 134.52 141.452 134.52 140.82C134.52 140.188 134.656 139.628 134.928 139.14C135.208 138.652 135.588 138.272 136.068 138C136.556 137.72 137.104 137.58 137.712 137.58C138.328 137.58 138.872 137.716 139.344 137.988C139.816 138.26 140.184 138.644 140.448 139.14C140.72 139.628 140.856 140.2 140.856 140.856C140.856 140.904 140.852 140.96 140.844 141.024C140.844 141.088 140.84 141.148 140.832 141.204H135.42V140.376H140.232L139.764 140.664C139.772 140.256 139.688 139.892 139.512 139.572C139.336 139.252 139.092 139.004 138.78 138.828C138.476 138.644 138.12 138.552 137.712 138.552C137.312 138.552 136.956 138.644 136.644 138.828C136.332 139.004 136.088 139.256 135.912 139.584C135.736 139.904 135.648 140.272 135.648 140.688V140.88C135.648 141.304 135.744 141.684 135.936 142.02C136.136 142.348 136.412 142.604 136.764 142.788C137.116 142.972 137.52 143.064 137.976 143.064C138.352 143.064 138.692 143 138.996 142.872C139.308 142.744 139.58 142.552 139.812 142.296L140.448 143.04C140.16 143.376 139.8 143.632 139.368 143.808C138.944 143.984 138.468 144.072 137.94 144.072ZM142.455 144V137.64H143.559V139.368L143.451 138.936C143.627 138.496 143.923 138.16 144.339 137.928C144.755 137.696 145.267 137.58 145.875 137.58V138.696C145.827 138.688 145.779 138.684 145.731 138.684C145.691 138.684 145.651 138.684 145.611 138.684C144.995 138.684 144.507 138.868 144.147 139.236C143.787 139.604 143.607 140.136 143.607 140.832V144H142.455ZM146.804 145.776L147.404 143.352L147.56 144.048C147.328 144.048 147.132 143.976 146.972 143.832C146.82 143.688 146.744 143.492 146.744 143.244C146.744 143.004 146.82 142.808 146.972 142.656C147.132 142.504 147.324 142.428 147.548 142.428C147.78 142.428 147.968 142.508 148.112 142.668C148.256 142.82 148.328 143.012 148.328 143.244C148.328 143.324 148.32 143.404 148.304 143.484C148.296 143.556 148.276 143.644 148.244 143.748C148.22 143.844 148.18 143.964 148.124 144.108L147.56 145.776H146.804ZM30.7444 159V152.076C30.7444 151.452 30.9244 150.956 31.2844 150.588C31.6524 150.212 32.1724 150.024 32.8444 150.024C33.0924 150.024 33.3284 150.056 33.5524 150.12C33.7844 150.176 33.9804 150.268 34.1404 150.396L33.7924 151.272C33.6724 151.176 33.5364 151.104 33.3844 151.056C33.2324 151 33.0724 150.972 32.9044 150.972C32.5684 150.972 32.3124 151.068 32.1364 151.26C31.9604 151.444 31.8724 151.72 31.8724 152.088V152.94L31.8964 153.468V159H30.7444ZM29.6644 153.588V152.64H33.7204V153.588H29.6644ZM37.4371 159.072C36.7971 159.072 36.2291 158.932 35.7331 158.652C35.2371 158.372 34.8451 157.988 34.5571 157.5C34.2691 157.004 34.1251 156.444 34.1251 155.82C34.1251 155.188 34.2691 154.628 34.5571 154.14C34.8451 153.652 35.2371 153.272 35.7331 153C36.2291 152.72 36.7971 152.58 37.4371 152.58C38.0691 152.58 38.6331 152.72 39.1291 153C39.6331 153.272 40.0251 153.652 40.3051 154.14C40.5931 154.62 40.7371 155.18 40.7371 155.82C40.7371 156.452 40.5931 157.012 40.3051 157.5C40.0251 157.988 39.6331 158.372 39.1291 158.652C38.6331 158.932 38.0691 159.072 37.4371 159.072ZM37.4371 158.064C37.8451 158.064 38.2091 157.972 38.5291 157.788C38.8571 157.604 39.1131 157.344 39.2971 157.008C39.4811 156.664 39.5731 156.268 39.5731 155.82C39.5731 155.364 39.4811 154.972 39.2971 154.644C39.1131 154.308 38.8571 154.048 38.5291 153.864C38.2091 153.68 37.8451 153.588 37.4371 153.588C37.0291 153.588 36.6651 153.68 36.3451 153.864C36.0251 154.048 35.7691 154.308 35.5771 154.644C35.3851 154.972 35.2891 155.364 35.2891 155.82C35.2891 156.268 35.3851 156.664 35.5771 157.008C35.7691 157.344 36.0251 157.604 36.3451 157.788C36.6651 157.972 37.0291 158.064 37.4371 158.064ZM42.3303 159V152.64H43.4343V154.368L43.3263 153.936C43.5023 153.496 43.7983 153.16 44.2143 152.928C44.6303 152.696 45.1423 152.58 45.7503 152.58V153.696C45.7023 153.688 45.6543 153.684 45.6063 153.684C45.5663 153.684 45.5263 153.684 45.4863 153.684C44.8703 153.684 44.3823 153.868 44.0223 154.236C43.6623 154.604 43.4823 155.136 43.4823 155.832V159H42.3303ZM55.1261 152.58C55.6381 152.58 56.0901 152.68 56.4821 152.88C56.8741 153.08 57.1781 153.384 57.3941 153.792C57.6181 154.2 57.7301 154.716 57.7301 155.34V159H56.5781V155.472C56.5781 154.856 56.4341 154.392 56.1461 154.08C55.8581 153.768 55.4541 153.612 54.9341 153.612C54.5501 153.612 54.2141 153.692 53.9261 153.852C53.6381 154.012 53.4141 154.248 53.2541 154.56C53.1021 154.872 53.0261 155.26 53.0261 155.724V159H51.8741V155.472C51.8741 154.856 51.7301 154.392 51.4421 154.08C51.1621 153.768 50.7581 153.612 50.2301 153.612C49.8541 153.612 49.5221 153.692 49.2341 153.852C48.9461 154.012 48.7221 154.248 48.5621 154.56C48.4021 154.872 48.3221 155.26 48.3221 155.724V159H47.1701V152.64H48.2741V154.332L48.0941 153.9C48.2941 153.484 48.6021 153.16 49.0181 152.928C49.4341 152.696 49.9181 152.58 50.4701 152.58C51.0781 152.58 51.6021 152.732 52.0421 153.036C52.4821 153.332 52.7701 153.784 52.9061 154.392L52.4381 154.2C52.6301 153.712 52.9661 153.32 53.4461 153.024C53.9261 152.728 54.4861 152.58 55.1261 152.58ZM59.8498 159V152.64H61.0018V159H59.8498ZM60.4258 151.416C60.2018 151.416 60.0138 151.344 59.8618 151.2C59.7178 151.056 59.6458 150.88 59.6458 150.672C59.6458 150.456 59.7178 150.276 59.8618 150.132C60.0138 149.988 60.2018 149.916 60.4258 149.916C60.6498 149.916 60.8338 149.988 60.9778 150.132C61.1298 150.268 61.2058 150.44 61.2058 150.648C61.2058 150.864 61.1338 151.048 60.9898 151.2C60.8458 151.344 60.6578 151.416 60.4258 151.416ZM66.5974 152.58C67.1174 152.58 67.5734 152.68 67.9654 152.88C68.3654 153.08 68.6774 153.384 68.9014 153.792C69.1254 154.2 69.2374 154.716 69.2374 155.34V159H68.0854V155.472C68.0854 154.856 67.9334 154.392 67.6294 154.08C67.3334 153.768 66.9134 153.612 66.3694 153.612C65.9614 153.612 65.6054 153.692 65.3014 153.852C64.9974 154.012 64.7614 154.248 64.5934 154.56C64.4334 154.872 64.3534 155.26 64.3534 155.724V159H63.2014V152.64H64.3054V154.356L64.1254 153.9C64.3334 153.484 64.6534 153.16 65.0854 152.928C65.5174 152.696 66.0214 152.58 66.5974 152.58ZM74.1533 161.4C73.5693 161.4 73.0013 161.316 72.4493 161.148C71.9053 160.988 71.4613 160.756 71.1173 160.452L71.6693 159.564C71.9653 159.82 72.3293 160.02 72.7613 160.164C73.1933 160.316 73.6453 160.392 74.1173 160.392C74.8693 160.392 75.4213 160.216 75.7733 159.864C76.1253 159.512 76.3013 158.976 76.3013 158.256V156.912L76.4213 155.652L76.3613 154.38V152.64H77.4533V158.136C77.4533 159.256 77.1733 160.08 76.6133 160.608C76.0533 161.136 75.2333 161.4 74.1533 161.4ZM74.0093 158.736C73.3933 158.736 72.8413 158.608 72.3533 158.352C71.8733 158.088 71.4893 157.724 71.2013 157.26C70.9213 156.796 70.7813 156.26 70.7813 155.652C70.7813 155.036 70.9213 154.5 71.2013 154.044C71.4893 153.58 71.8733 153.22 72.3533 152.964C72.8413 152.708 73.3933 152.58 74.0093 152.58C74.5533 152.58 75.0493 152.692 75.4973 152.916C75.9453 153.132 76.3013 153.468 76.5653 153.924C76.8373 154.38 76.9733 154.956 76.9733 155.652C76.9733 156.34 76.8373 156.912 76.5653 157.368C76.3013 157.824 75.9453 158.168 75.4973 158.4C75.0493 158.624 74.5533 158.736 74.0093 158.736ZM74.1413 157.728C74.5653 157.728 74.9413 157.64 75.2693 157.464C75.5973 157.288 75.8533 157.044 76.0373 156.732C76.2293 156.42 76.3253 156.06 76.3253 155.652C76.3253 155.244 76.2293 154.884 76.0373 154.572C75.8533 154.26 75.5973 154.02 75.2693 153.852C74.9413 153.676 74.5653 153.588 74.1413 153.588C73.7173 153.588 73.3373 153.676 73.0013 153.852C72.6733 154.02 72.4133 154.26 72.2213 154.572C72.0373 154.884 71.9453 155.244 71.9453 155.652C71.9453 156.06 72.0373 156.42 72.2213 156.732C72.4133 157.044 72.6733 157.288 73.0013 157.464C73.3373 157.64 73.7173 157.728 74.1413 157.728ZM86.8252 159V157.656L86.7652 157.404V155.112C86.7652 154.624 86.6212 154.248 86.3332 153.984C86.0532 153.712 85.6292 153.576 85.0612 153.576C84.6852 153.576 84.3172 153.64 83.9572 153.768C83.5972 153.888 83.2932 154.052 83.0452 154.26L82.5652 153.396C82.8932 153.132 83.2852 152.932 83.7412 152.796C84.2052 152.652 84.6892 152.58 85.1932 152.58C86.0652 152.58 86.7372 152.792 87.2092 153.216C87.6812 153.64 87.9172 154.288 87.9172 155.16V159H86.8252ZM84.7372 159.072C84.2652 159.072 83.8492 158.992 83.4892 158.832C83.1372 158.672 82.8652 158.452 82.6732 158.172C82.4812 157.884 82.3852 157.56 82.3852 157.2C82.3852 156.856 82.4652 156.544 82.6252 156.264C82.7932 155.984 83.0612 155.76 83.4292 155.592C83.8052 155.424 84.3092 155.34 84.9412 155.34H86.9572V156.168H84.9892C84.4132 156.168 84.0252 156.264 83.8252 156.456C83.6252 156.648 83.5252 156.88 83.5252 157.152C83.5252 157.464 83.6492 157.716 83.8972 157.908C84.1452 158.092 84.4892 158.184 84.9292 158.184C85.3612 158.184 85.7372 158.088 86.0572 157.896C86.3852 157.704 86.6212 157.424 86.7652 157.056L86.9932 157.848C86.8412 158.224 86.5732 158.524 86.1892 158.748C85.8052 158.964 85.3212 159.072 84.7372 159.072ZM93.2717 159V152.64H94.3757V154.368L94.2677 153.936C94.4437 153.496 94.7397 153.16 95.1557 152.928C95.5717 152.696 96.0837 152.58 96.6917 152.58V153.696C96.6437 153.688 96.5957 153.684 96.5477 153.684C96.5077 153.684 96.4677 153.684 96.4277 153.684C95.8117 153.684 95.3237 153.868 94.9637 154.236C94.6037 154.604 94.4237 155.136 94.4237 155.832V159H93.2717ZM101.508 152.58C102.028 152.58 102.484 152.68 102.876 152.88C103.276 153.08 103.588 153.384 103.812 153.792C104.036 154.2 104.148 154.716 104.148 155.34V159H102.996V155.472C102.996 154.856 102.844 154.392 102.54 154.08C102.244 153.768 101.824 153.612 101.28 153.612C100.872 153.612 100.516 153.692 100.212 153.852C99.9075 154.012 99.6715 154.248 99.5035 154.56C99.3435 154.872 99.2635 155.26 99.2635 155.724V159H98.1115V150.096H99.2635V154.356L99.0355 153.9C99.2435 153.484 99.5635 153.16 99.9955 152.928C100.428 152.696 100.932 152.58 101.508 152.58ZM109.004 159.072C108.364 159.072 107.796 158.932 107.3 158.652C106.804 158.372 106.412 157.988 106.124 157.5C105.836 157.004 105.692 156.444 105.692 155.82C105.692 155.188 105.836 154.628 106.124 154.14C106.412 153.652 106.804 153.272 107.3 153C107.796 152.72 108.364 152.58 109.004 152.58C109.636 152.58 110.2 152.72 110.696 153C111.2 153.272 111.592 153.652 111.872 154.14C112.16 154.62 112.304 155.18 112.304 155.82C112.304 156.452 112.16 157.012 111.872 157.5C111.592 157.988 111.2 158.372 110.696 158.652C110.2 158.932 109.636 159.072 109.004 159.072ZM109.004 158.064C109.412 158.064 109.776 157.972 110.096 157.788C110.424 157.604 110.68 157.344 110.864 157.008C111.048 156.664 111.14 156.268 111.14 155.82C111.14 155.364 111.048 154.972 110.864 154.644C110.68 154.308 110.424 154.048 110.096 153.864C109.776 153.68 109.412 153.588 109.004 153.588C108.596 153.588 108.232 153.68 107.912 153.864C107.592 154.048 107.336 154.308 107.144 154.644C106.952 154.972 106.856 155.364 106.856 155.82C106.856 156.268 106.952 156.664 107.144 157.008C107.336 157.344 107.592 157.604 107.912 157.788C108.232 157.972 108.596 158.064 109.004 158.064ZM121.853 152.58C122.365 152.58 122.817 152.68 123.209 152.88C123.601 153.08 123.905 153.384 124.121 153.792C124.345 154.2 124.457 154.716 124.457 155.34V159H123.305V155.472C123.305 154.856 123.161 154.392 122.873 154.08C122.585 153.768 122.181 153.612 121.661 153.612C121.277 153.612 120.941 153.692 120.653 153.852C120.365 154.012 120.141 154.248 119.981 154.56C119.829 154.872 119.753 155.26 119.753 155.724V159H118.601V155.472C118.601 154.856 118.457 154.392 118.169 154.08C117.889 153.768 117.485 153.612 116.957 153.612C116.581 153.612 116.249 153.692 115.961 153.852C115.673 154.012 115.449 154.248 115.289 154.56C115.129 154.872 115.049 155.26 115.049 155.724V159H113.897V152.64H115.001V154.332L114.821 153.9C115.021 153.484 115.329 153.16 115.745 152.928C116.161 152.696 116.645 152.58 117.197 152.58C117.805 152.58 118.329 152.732 118.769 153.036C119.209 153.332 119.497 153.784 119.633 154.392L119.165 154.2C119.357 153.712 119.693 153.32 120.173 153.024C120.653 152.728 121.213 152.58 121.853 152.58ZM129.948 159.072C129.404 159.072 128.912 158.952 128.472 158.712C128.04 158.464 127.696 158.1 127.44 157.62C127.192 157.14 127.068 156.54 127.068 155.82C127.068 155.1 127.196 154.5 127.452 154.02C127.716 153.54 128.064 153.18 128.496 152.94C128.936 152.7 129.42 152.58 129.948 152.58C130.572 152.58 131.124 152.716 131.604 152.988C132.084 153.26 132.464 153.64 132.744 154.128C133.024 154.608 133.164 155.172 133.164 155.82C133.164 156.468 133.024 157.036 132.744 157.524C132.464 158.012 132.084 158.392 131.604 158.664C131.124 158.936 130.572 159.072 129.948 159.072ZM126.576 159V150.096H127.728V154.332L127.608 155.808L127.68 157.284V159H126.576ZM129.852 158.064C130.26 158.064 130.624 157.972 130.944 157.788C131.272 157.604 131.528 157.344 131.712 157.008C131.904 156.664 132 156.268 132 155.82C132 155.364 131.904 154.972 131.712 154.644C131.528 154.308 131.272 154.048 130.944 153.864C130.624 153.68 130.26 153.588 129.852 153.588C129.452 153.588 129.088 153.68 128.76 153.864C128.44 154.048 128.184 154.308 127.992 154.644C127.808 154.972 127.716 155.364 127.716 155.82C127.716 156.268 127.808 156.664 127.992 157.008C128.184 157.344 128.44 157.604 128.76 157.788C129.088 157.972 129.452 158.064 129.852 158.064ZM137.432 159.072C136.888 159.072 136.408 158.972 135.992 158.772C135.584 158.572 135.264 158.268 135.032 157.86C134.808 157.444 134.696 156.924 134.696 156.3V152.64H135.848V156.168C135.848 156.792 135.996 157.26 136.292 157.572C136.596 157.884 137.02 158.04 137.564 158.04C137.964 158.04 138.312 157.96 138.608 157.8C138.904 157.632 139.132 157.392 139.292 157.08C139.452 156.76 139.532 156.376 139.532 155.928V152.64H140.684V159H139.592V157.284L139.772 157.74C139.564 158.164 139.252 158.492 138.836 158.724C138.42 158.956 137.952 159.072 137.432 159.072ZM144.701 159.072C144.173 159.072 143.669 159 143.189 158.856C142.717 158.712 142.345 158.536 142.073 158.328L142.553 157.416C142.825 157.6 143.161 157.756 143.561 157.884C143.961 158.012 144.369 158.076 144.785 158.076C145.321 158.076 145.705 158 145.937 157.848C146.177 157.696 146.297 157.484 146.297 157.212C146.297 157.012 146.225 156.856 146.081 156.744C145.937 156.632 145.745 156.548 145.505 156.492C145.273 156.436 145.013 156.388 144.725 156.348C144.437 156.3 144.149 156.244 143.861 156.18C143.573 156.108 143.309 156.012 143.069 155.892C142.829 155.764 142.637 155.592 142.493 155.376C142.349 155.152 142.277 154.856 142.277 154.488C142.277 154.104 142.385 153.768 142.601 153.48C142.817 153.192 143.121 152.972 143.513 152.82C143.913 152.66 144.385 152.58 144.929 152.58C145.345 152.58 145.765 152.632 146.189 152.736C146.621 152.832 146.973 152.972 147.245 153.156L146.753 154.068C146.465 153.876 146.165 153.744 145.853 153.672C145.541 153.6 145.229 153.564 144.917 153.564C144.413 153.564 144.037 153.648 143.789 153.816C143.541 153.976 143.417 154.184 143.417 154.44C143.417 154.656 143.489 154.824 143.633 154.944C143.785 155.056 143.977 155.144 144.209 155.208C144.449 155.272 144.713 155.328 145.001 155.376C145.289 155.416 145.577 155.472 145.865 155.544C146.153 155.608 146.413 155.7 146.645 155.82C146.885 155.94 147.077 156.108 147.221 156.324C147.373 156.54 147.449 156.828 147.449 157.188C147.449 157.572 147.337 157.904 147.113 158.184C146.889 158.464 146.573 158.684 146.165 158.844C145.757 158.996 145.269 159.072 144.701 159.072ZM149.165 159.072C148.941 159.072 148.749 158.996 148.589 158.844C148.429 158.684 148.349 158.484 148.349 158.244C148.349 158.004 148.429 157.808 148.589 157.656C148.749 157.504 148.941 157.428 149.165 157.428C149.381 157.428 149.565 157.504 149.717 157.656C149.877 157.808 149.957 158.004 149.957 158.244C149.957 158.484 149.877 158.684 149.717 158.844C149.565 158.996 149.381 159.072 149.165 159.072Z" fill="#008E86"/>
<path d="M46.5 55L136.5 55L84.5 100L46.5 55Z" fill="#008E86" stroke="#00635D" stroke-width="2" stroke-linejoin="round"/>
<path d="M46.5 55H136.5L91.5 100L46.5 55Z" fill="#00D8CC" stroke="#00635D" stroke-width="2" stroke-linejoin="round"/>
<path d="M114.5 78L91.5 55" stroke="#333333" stroke-width="2" stroke-dasharray="4 4"/>
<path d="M68.5 78L91.5 55" stroke="#333333" stroke-width="2" stroke-dasharray="4 4"/>
<path d="M64.7362 55.3926C64.1995 55.2625 63.6589 55.5922 63.5288 56.1289C63.3987 56.6657 63.7283 57.2062 64.2651 57.3363L64.7362 55.3926ZM78.6509 82.8729C78.9155 83.3577 79.523 83.5362 80.0078 83.2716L87.9077 78.9599C88.3925 78.6953 88.571 78.0878 88.3064 77.603C88.0418 77.1182 87.4343 76.9397 86.9496 77.2043L79.9274 81.037L76.0947 74.0148C75.8301 73.5301 75.2227 73.3516 74.7379 73.6162C74.2531 73.8807 74.0746 74.4882 74.3392 74.973L78.6509 82.8729ZM64.2651 57.3363C70.2091 58.7772 74.4456 62.1316 76.9447 66.4602L78.6767 65.4602C75.894 60.6405 71.1922 56.9575 64.7362 55.3926L64.2651 57.3363ZM76.9447 66.4602C78.1677 68.5785 78.8932 71.4371 79.1456 74.3395C79.3977 77.2396 79.168 80.0743 78.5693 82.1119L80.4882 82.6758C81.1741 80.3414 81.4058 77.2464 81.138 74.1662C80.8704 71.0883 80.0946 67.9161 78.6767 65.4602L76.9447 66.4602Z" fill="black"/>
<path d="M102.848 83.2735C103.333 83.5381 103.941 83.3596 104.205 82.8748L108.517 74.9749C108.782 74.4901 108.603 73.8826 108.118 73.618C107.634 73.3535 107.026 73.532 106.761 74.0167L102.929 81.0389L95.9066 77.2062C95.4218 76.9416 94.8144 77.1201 94.5498 77.6049C94.2852 78.0897 94.4637 78.6972 94.9485 78.9618L102.848 83.2735ZM118.591 57.3382C119.128 57.2081 119.457 56.6675 119.327 56.1308C119.197 55.5941 118.657 55.2644 118.12 55.3945L118.591 57.3382ZM104.287 82.1138C102.563 76.2457 103.349 70.8996 105.849 66.571L104.117 65.571C101.334 70.3908 100.495 76.3042 102.368 82.6777L104.287 82.1138ZM105.849 66.571C107.072 64.4527 109.184 62.3951 111.572 60.7254C113.957 59.057 116.527 57.8385 118.591 57.3382L118.12 55.3945C115.755 55.9677 112.959 57.3145 110.426 59.0865C107.894 60.8572 105.534 63.1151 104.117 65.571L105.849 66.571Z" fill="black"/>
</svg>
