<svg width="180" height="180" viewBox="0 0 180 180" fill="none" xmlns="http://www.w3.org/2000/svg">
<g clip-path="url(#clip0_18_751)">
<rect width="180" height="180" rx="20" fill="#F2F2F2"/>
<g clip-path="url(#clip1_18_751)">
<path d="M0 30L-1.31134e-06 0L30 -1.31134e-06L30 10C30 21.0457 21.0457 30 10 30L0 30Z" fill="#333333"/>
<path d="M20.3644 18.648H18.5404V21H16.0124V18.648H9.98038V16.904L15.2604 9.8H17.9804L13.0844 16.536H16.0924V14.44H18.5404V16.536H20.3644V18.648Z" fill="#F2F2F2"/>
</g>
<path d="M33.8752 132.572H38.2072V133.604H33.8752V132.572ZM33.9952 137H32.7952V128.6H38.7232V129.644H33.9952V137ZM42.7691 137.072C42.1291 137.072 41.5611 136.932 41.0651 136.652C40.5691 136.372 40.1771 135.988 39.8891 135.5C39.6011 135.004 39.4571 134.444 39.4571 133.82C39.4571 133.188 39.6011 132.628 39.8891 132.14C40.1771 131.652 40.5691 131.272 41.0651 131C41.5611 130.72 42.1291 130.58 42.7691 130.58C43.4011 130.58 43.9651 130.72 44.4611 131C44.9651 131.272 45.3571 131.652 45.6371 132.14C45.9251 132.62 46.0691 133.18 46.0691 133.82C46.0691 134.452 45.9251 135.012 45.6371 135.5C45.3571 135.988 44.9651 136.372 44.4611 136.652C43.9651 136.932 43.4011 137.072 42.7691 137.072ZM42.7691 136.064C43.1771 136.064 43.5411 135.972 43.8611 135.788C44.1891 135.604 44.4451 135.344 44.6291 135.008C44.8131 134.664 44.9051 134.268 44.9051 133.82C44.9051 133.364 44.8131 132.972 44.6291 132.644C44.4451 132.308 44.1891 132.048 43.8611 131.864C43.5411 131.68 43.1771 131.588 42.7691 131.588C42.3611 131.588 41.9971 131.68 41.6771 131.864C41.3571 132.048 41.1011 132.308 40.9091 132.644C40.7171 132.972 40.6211 133.364 40.6211 133.82C40.6211 134.268 40.7171 134.664 40.9091 135.008C41.1011 135.344 41.3571 135.604 41.6771 135.788C41.9971 135.972 42.3611 136.064 42.7691 136.064ZM47.6623 137V128.096H48.8143V137H47.6623ZM53.6419 137.072C53.0259 137.072 52.4739 136.936 51.9859 136.664C51.5059 136.392 51.1259 136.012 50.8459 135.524C50.5659 135.036 50.4259 134.468 50.4259 133.82C50.4259 133.172 50.5659 132.608 50.8459 132.128C51.1259 131.64 51.5059 131.26 51.9859 130.988C52.4739 130.716 53.0259 130.58 53.6419 130.58C54.1779 130.58 54.6619 130.7 55.0939 130.94C55.5259 131.18 55.8699 131.54 56.1259 132.02C56.3899 132.5 56.5219 133.1 56.5219 133.82C56.5219 134.54 56.3939 135.14 56.1379 135.62C55.8899 136.1 55.5499 136.464 55.1179 136.712C54.6859 136.952 54.1939 137.072 53.6419 137.072ZM53.7379 136.064C54.1379 136.064 54.4979 135.972 54.8179 135.788C55.1459 135.604 55.4019 135.344 55.5859 135.008C55.7779 134.664 55.8739 134.268 55.8739 133.82C55.8739 133.364 55.7779 132.972 55.5859 132.644C55.4019 132.308 55.1459 132.048 54.8179 131.864C54.4979 131.68 54.1379 131.588 53.7379 131.588C53.3299 131.588 52.9659 131.68 52.6459 131.864C52.3259 132.048 52.0699 132.308 51.8779 132.644C51.6859 132.972 51.5899 133.364 51.5899 133.82C51.5899 134.268 51.6859 134.664 51.8779 135.008C52.0699 135.344 52.3259 135.604 52.6459 135.788C52.9659 135.972 53.3299 136.064 53.7379 136.064ZM55.9099 137V135.284L55.9819 133.808L55.8619 132.332V128.096H57.0139V137H55.9099ZM64.6002 137.072C63.9602 137.072 63.4642 136.9 63.1122 136.556C62.7602 136.212 62.5842 135.72 62.5842 135.08V129.248H63.7362V135.032C63.7362 135.376 63.8202 135.64 63.9882 135.824C64.1642 136.008 64.4122 136.1 64.7322 136.1C65.0922 136.1 65.3922 136 65.6322 135.8L65.9922 136.628C65.8162 136.78 65.6042 136.892 65.3562 136.964C65.1162 137.036 64.8642 137.072 64.6002 137.072ZM61.5042 131.588V130.64H65.5602V131.588H61.5042ZM70.781 130.58C71.301 130.58 71.757 130.68 72.149 130.88C72.549 131.08 72.861 131.384 73.085 131.792C73.309 132.2 73.421 132.716 73.421 133.34V137H72.269V133.472C72.269 132.856 72.117 132.392 71.813 132.08C71.517 131.768 71.097 131.612 70.553 131.612C70.145 131.612 69.789 131.692 69.485 131.852C69.181 132.012 68.945 132.248 68.777 132.56C68.617 132.872 68.537 133.26 68.537 133.724V137H67.385V128.096H68.537V132.356L68.309 131.9C68.517 131.484 68.837 131.16 69.269 130.928C69.701 130.696 70.205 130.58 70.781 130.58ZM78.3849 137.072C77.7049 137.072 77.1049 136.932 76.5849 136.652C76.0729 136.372 75.6729 135.988 75.3849 135.5C75.1049 135.012 74.9649 134.452 74.9649 133.82C74.9649 133.188 75.1009 132.628 75.3729 132.14C75.6529 131.652 76.0329 131.272 76.5129 131C77.0009 130.72 77.5489 130.58 78.1569 130.58C78.7729 130.58 79.3169 130.716 79.7889 130.988C80.2609 131.26 80.6289 131.644 80.8929 132.14C81.1649 132.628 81.3009 133.2 81.3009 133.856C81.3009 133.904 81.2969 133.96 81.2889 134.024C81.2889 134.088 81.2849 134.148 81.2769 134.204H75.8649V133.376H80.6769L80.2089 133.664C80.2169 133.256 80.1329 132.892 79.9569 132.572C79.7809 132.252 79.5369 132.004 79.2249 131.828C78.9209 131.644 78.5649 131.552 78.1569 131.552C77.7569 131.552 77.4009 131.644 77.0889 131.828C76.7769 132.004 76.5329 132.256 76.3569 132.584C76.1809 132.904 76.0929 133.272 76.0929 133.688V133.88C76.0929 134.304 76.1889 134.684 76.3809 135.02C76.5809 135.348 76.8569 135.604 77.2089 135.788C77.5609 135.972 77.9649 136.064 78.4209 136.064C78.7969 136.064 79.1369 136 79.4409 135.872C79.7529 135.744 80.0249 135.552 80.2569 135.296L80.8929 136.04C80.6049 136.376 80.2449 136.632 79.8129 136.808C79.3889 136.984 78.9129 137.072 78.3849 137.072ZM88.3073 137.072C87.6673 137.072 87.1713 136.9 86.8193 136.556C86.4673 136.212 86.2913 135.72 86.2913 135.08V129.248H87.4433V135.032C87.4433 135.376 87.5273 135.64 87.6953 135.824C87.8713 136.008 88.1193 136.1 88.4393 136.1C88.7993 136.1 89.0993 136 89.3393 135.8L89.6993 136.628C89.5233 136.78 89.3113 136.892 89.0633 136.964C88.8233 137.036 88.5713 137.072 88.3073 137.072ZM85.2113 131.588V130.64H89.2673V131.588H85.2113ZM93.6051 137.072C92.9651 137.072 92.3971 136.932 91.9011 136.652C91.4051 136.372 91.0131 135.988 90.7251 135.5C90.4371 135.004 90.2931 134.444 90.2931 133.82C90.2931 133.188 90.4371 132.628 90.7251 132.14C91.0131 131.652 91.4051 131.272 91.9011 131C92.3971 130.72 92.9651 130.58 93.6051 130.58C94.2371 130.58 94.8011 130.72 95.2971 131C95.8011 131.272 96.1931 131.652 96.4731 132.14C96.7611 132.62 96.9051 133.18 96.9051 133.82C96.9051 134.452 96.7611 135.012 96.4731 135.5C96.1931 135.988 95.8011 136.372 95.2971 136.652C94.8011 136.932 94.2371 137.072 93.6051 137.072ZM93.6051 136.064C94.0131 136.064 94.3771 135.972 94.6971 135.788C95.0251 135.604 95.2811 135.344 95.4651 135.008C95.6491 134.664 95.7411 134.268 95.7411 133.82C95.7411 133.364 95.6491 132.972 95.4651 132.644C95.2811 132.308 95.0251 132.048 94.6971 131.864C94.3771 131.68 94.0131 131.588 93.6051 131.588C93.1971 131.588 92.8331 131.68 92.5131 131.864C92.1931 132.048 91.9371 132.308 91.7451 132.644C91.5531 132.972 91.4571 133.364 91.4571 133.82C91.4571 134.268 91.5531 134.664 91.7451 135.008C91.9371 135.344 92.1931 135.604 92.5131 135.788C92.8331 135.972 93.1971 136.064 93.6051 136.064ZM101.87 137.072C101.342 137.072 100.858 136.952 100.418 136.712C99.9863 136.464 99.6383 136.1 99.3743 135.62C99.1183 135.14 98.9902 134.54 98.9902 133.82C98.9902 133.1 99.1143 132.5 99.3623 132.02C99.6183 131.54 99.9623 131.18 100.394 130.94C100.834 130.7 101.326 130.58 101.87 130.58C102.494 130.58 103.046 130.716 103.526 130.988C104.006 131.26 104.386 131.64 104.666 132.128C104.946 132.608 105.086 133.172 105.086 133.82C105.086 134.468 104.946 135.036 104.666 135.524C104.386 136.012 104.006 136.392 103.526 136.664C103.046 136.936 102.494 137.072 101.87 137.072ZM98.4983 139.328V130.64H99.6023V132.356L99.5303 133.832L99.6503 135.308V139.328H98.4983ZM101.774 136.064C102.182 136.064 102.546 135.972 102.866 135.788C103.194 135.604 103.45 135.344 103.634 135.008C103.826 134.664 103.922 134.268 103.922 133.82C103.922 133.364 103.826 132.972 103.634 132.644C103.45 132.308 103.194 132.048 102.866 131.864C102.546 131.68 102.182 131.588 101.774 131.588C101.374 131.588 101.01 131.68 100.682 131.864C100.362 132.048 100.106 132.308 99.9143 132.644C99.7303 132.972 99.6383 133.364 99.6383 133.82C99.6383 134.268 99.7303 134.664 99.9143 135.008C100.106 135.344 100.362 135.604 100.682 135.788C101.01 135.972 101.374 136.064 101.774 136.064ZM112.673 137.072C112.025 137.072 111.445 136.932 110.933 136.652C110.429 136.372 110.033 135.988 109.745 135.5C109.457 135.012 109.313 134.452 109.313 133.82C109.313 133.188 109.457 132.628 109.745 132.14C110.033 131.652 110.429 131.272 110.933 131C111.445 130.72 112.025 130.58 112.673 130.58C113.249 130.58 113.761 130.696 114.209 130.928C114.665 131.152 115.017 131.488 115.265 131.936L114.389 132.5C114.181 132.188 113.925 131.96 113.621 131.816C113.325 131.664 113.005 131.588 112.661 131.588C112.245 131.588 111.873 131.68 111.545 131.864C111.217 132.048 110.957 132.308 110.765 132.644C110.573 132.972 110.477 133.364 110.477 133.82C110.477 134.276 110.573 134.672 110.765 135.008C110.957 135.344 111.217 135.604 111.545 135.788C111.873 135.972 112.245 136.064 112.661 136.064C113.005 136.064 113.325 135.992 113.621 135.848C113.925 135.696 114.181 135.464 114.389 135.152L115.265 135.704C115.017 136.144 114.665 136.484 114.209 136.724C113.761 136.956 113.249 137.072 112.673 137.072ZM119.386 137.072C118.746 137.072 118.178 136.932 117.682 136.652C117.186 136.372 116.794 135.988 116.506 135.5C116.218 135.004 116.074 134.444 116.074 133.82C116.074 133.188 116.218 132.628 116.506 132.14C116.794 131.652 117.186 131.272 117.682 131C118.178 130.72 118.746 130.58 119.386 130.58C120.018 130.58 120.582 130.72 121.078 131C121.582 131.272 121.974 131.652 122.254 132.14C122.542 132.62 122.686 133.18 122.686 133.82C122.686 134.452 122.542 135.012 122.254 135.5C121.974 135.988 121.582 136.372 121.078 136.652C120.582 136.932 120.018 137.072 119.386 137.072ZM119.386 136.064C119.794 136.064 120.158 135.972 120.478 135.788C120.806 135.604 121.062 135.344 121.246 135.008C121.43 134.664 121.522 134.268 121.522 133.82C121.522 133.364 121.43 132.972 121.246 132.644C121.062 132.308 120.806 132.048 120.478 131.864C120.158 131.68 119.794 131.588 119.386 131.588C118.978 131.588 118.614 131.68 118.294 131.864C117.974 132.048 117.718 132.308 117.526 132.644C117.334 132.972 117.238 133.364 117.238 133.82C117.238 134.268 117.334 134.664 117.526 135.008C117.718 135.344 117.974 135.604 118.294 135.788C118.614 135.972 118.978 136.064 119.386 136.064ZM124.28 137V130.64H125.384V132.368L125.276 131.936C125.452 131.496 125.748 131.16 126.164 130.928C126.58 130.696 127.092 130.58 127.7 130.58V131.696C127.652 131.688 127.604 131.684 127.556 131.684C127.516 131.684 127.476 131.684 127.436 131.684C126.82 131.684 126.332 131.868 125.972 132.236C125.612 132.604 125.432 133.136 125.432 133.832V137H124.28ZM132.515 130.58C133.035 130.58 133.491 130.68 133.883 130.88C134.283 131.08 134.595 131.384 134.819 131.792C135.043 132.2 135.155 132.716 135.155 133.34V137H134.003V133.472C134.003 132.856 133.851 132.392 133.547 132.08C133.251 131.768 132.831 131.612 132.287 131.612C131.879 131.612 131.523 131.692 131.219 131.852C130.915 132.012 130.679 132.248 130.511 132.56C130.351 132.872 130.271 133.26 130.271 133.724V137H129.119V130.64H130.223V132.356L130.043 131.9C130.251 131.484 130.571 131.16 131.003 130.928C131.435 130.696 131.939 130.58 132.515 130.58ZM140.119 137.072C139.439 137.072 138.839 136.932 138.319 136.652C137.807 136.372 137.407 135.988 137.119 135.5C136.839 135.012 136.699 134.452 136.699 133.82C136.699 133.188 136.835 132.628 137.107 132.14C137.387 131.652 137.767 131.272 138.247 131C138.735 130.72 139.283 130.58 139.891 130.58C140.507 130.58 141.051 130.716 141.523 130.988C141.995 131.26 142.363 131.644 142.627 132.14C142.899 132.628 143.035 133.2 143.035 133.856C143.035 133.904 143.031 133.96 143.023 134.024C143.023 134.088 143.019 134.148 143.011 134.204H137.599V133.376H142.411L141.943 133.664C141.951 133.256 141.867 132.892 141.691 132.572C141.515 132.252 141.271 132.004 140.959 131.828C140.655 131.644 140.299 131.552 139.891 131.552C139.491 131.552 139.135 131.644 138.823 131.828C138.511 132.004 138.267 132.256 138.091 132.584C137.915 132.904 137.827 133.272 137.827 133.688V133.88C137.827 134.304 137.923 134.684 138.115 135.02C138.315 135.348 138.591 135.604 138.943 135.788C139.295 135.972 139.699 136.064 140.155 136.064C140.531 136.064 140.871 136 141.175 135.872C141.487 135.744 141.759 135.552 141.991 135.296L142.627 136.04C142.339 136.376 141.979 136.632 141.547 136.808C141.123 136.984 140.647 137.072 140.119 137.072ZM144.635 137V130.64H145.739V132.368L145.631 131.936C145.807 131.496 146.103 131.16 146.519 130.928C146.935 130.696 147.447 130.58 148.055 130.58V131.696C148.007 131.688 147.959 131.684 147.911 131.684C147.871 131.684 147.831 131.684 147.791 131.684C147.175 131.684 146.687 131.868 146.327 132.236C145.967 132.604 145.787 133.136 145.787 133.832V137H144.635ZM66.1116 152V145.076C66.1116 144.452 66.2916 143.956 66.6516 143.588C67.0196 143.212 67.5396 143.024 68.2116 143.024C68.4596 143.024 68.6956 143.056 68.9196 143.12C69.1516 143.176 69.3476 143.268 69.5076 143.396L69.1596 144.272C69.0396 144.176 68.9036 144.104 68.7516 144.056C68.5996 144 68.4396 143.972 68.2716 143.972C67.9356 143.972 67.6796 144.068 67.5036 144.26C67.3276 144.444 67.2396 144.72 67.2396 145.088V145.94L67.2636 146.468V152H66.1116ZM65.0316 146.588V145.64H69.0876V146.588H65.0316ZM72.8043 152.072C72.1643 152.072 71.5963 151.932 71.1003 151.652C70.6043 151.372 70.2123 150.988 69.9243 150.5C69.6363 150.004 69.4923 149.444 69.4923 148.82C69.4923 148.188 69.6363 147.628 69.9243 147.14C70.2123 146.652 70.6043 146.272 71.1003 146C71.5963 145.72 72.1643 145.58 72.8043 145.58C73.4363 145.58 74.0003 145.72 74.4963 146C75.0003 146.272 75.3923 146.652 75.6723 147.14C75.9603 147.62 76.1043 148.18 76.1043 148.82C76.1043 149.452 75.9603 150.012 75.6723 150.5C75.3923 150.988 75.0003 151.372 74.4963 151.652C74.0003 151.932 73.4363 152.072 72.8043 152.072ZM72.8043 151.064C73.2123 151.064 73.5763 150.972 73.8963 150.788C74.2243 150.604 74.4803 150.344 74.6643 150.008C74.8483 149.664 74.9403 149.268 74.9403 148.82C74.9403 148.364 74.8483 147.972 74.6643 147.644C74.4803 147.308 74.2243 147.048 73.8963 146.864C73.5763 146.68 73.2123 146.588 72.8043 146.588C72.3963 146.588 72.0323 146.68 71.7123 146.864C71.3923 147.048 71.1363 147.308 70.9443 147.644C70.7523 147.972 70.6563 148.364 70.6563 148.82C70.6563 149.268 70.7523 149.664 70.9443 150.008C71.1363 150.344 71.3923 150.604 71.7123 150.788C72.0323 150.972 72.3963 151.064 72.8043 151.064ZM77.6975 152V145.64H78.8015V147.368L78.6935 146.936C78.8695 146.496 79.1655 146.16 79.5815 145.928C79.9975 145.696 80.5095 145.58 81.1175 145.58V146.696C81.0695 146.688 81.0215 146.684 80.9735 146.684C80.9335 146.684 80.8935 146.684 80.8535 146.684C80.2375 146.684 79.7495 146.868 79.3895 147.236C79.0295 147.604 78.8495 148.136 78.8495 148.832V152H77.6975ZM84.1391 152L81.7751 145.64H82.8671L84.9671 151.4H84.4511L86.6351 145.64H87.6071L89.7431 151.4H89.2391L91.3871 145.64H92.4191L90.0431 152H88.9391L86.9351 146.744H87.2711L85.2431 152H84.1391ZM97.3369 152V150.656L97.2769 150.404V148.112C97.2769 147.624 97.1329 147.248 96.8449 146.984C96.5649 146.712 96.1409 146.576 95.5729 146.576C95.1969 146.576 94.8289 146.64 94.4689 146.768C94.1089 146.888 93.8049 147.052 93.5569 147.26L93.0769 146.396C93.4049 146.132 93.7969 145.932 94.2529 145.796C94.7169 145.652 95.2009 145.58 95.7049 145.58C96.5769 145.58 97.2489 145.792 97.7209 146.216C98.1929 146.64 98.4289 147.288 98.4289 148.16V152H97.3369ZM95.2489 152.072C94.7769 152.072 94.3609 151.992 94.0009 151.832C93.6489 151.672 93.3769 151.452 93.1849 151.172C92.9929 150.884 92.8969 150.56 92.8969 150.2C92.8969 149.856 92.9769 149.544 93.1369 149.264C93.3049 148.984 93.5729 148.76 93.9409 148.592C94.3169 148.424 94.8209 148.34 95.4529 148.34H97.4689V149.168H95.5009C94.9249 149.168 94.5369 149.264 94.3369 149.456C94.1369 149.648 94.0369 149.88 94.0369 150.152C94.0369 150.464 94.1609 150.716 94.4089 150.908C94.6569 151.092 95.0009 151.184 95.4409 151.184C95.8729 151.184 96.2489 151.088 96.5689 150.896C96.8969 150.704 97.1329 150.424 97.2769 150.056L97.5049 150.848C97.3529 151.224 97.0849 151.524 96.7009 151.748C96.3169 151.964 95.8329 152.072 95.2489 152.072ZM100.561 152V145.64H101.665V147.368L101.557 146.936C101.733 146.496 102.029 146.16 102.445 145.928C102.861 145.696 103.373 145.58 103.981 145.58V146.696C103.933 146.688 103.885 146.684 103.837 146.684C103.797 146.684 103.757 146.684 103.717 146.684C103.101 146.684 102.613 146.868 102.253 147.236C101.893 147.604 101.713 148.136 101.713 148.832V152H100.561ZM107.97 152.072C107.354 152.072 106.802 151.936 106.314 151.664C105.834 151.392 105.454 151.012 105.174 150.524C104.894 150.036 104.754 149.468 104.754 148.82C104.754 148.172 104.894 147.608 105.174 147.128C105.454 146.64 105.834 146.26 106.314 145.988C106.802 145.716 107.354 145.58 107.97 145.58C108.506 145.58 108.99 145.7 109.422 145.94C109.854 146.18 110.198 146.54 110.454 147.02C110.718 147.5 110.85 148.1 110.85 148.82C110.85 149.54 110.722 150.14 110.466 150.62C110.218 151.1 109.878 151.464 109.446 151.712C109.014 151.952 108.522 152.072 107.97 152.072ZM108.066 151.064C108.466 151.064 108.826 150.972 109.146 150.788C109.474 150.604 109.73 150.344 109.914 150.008C110.106 149.664 110.202 149.268 110.202 148.82C110.202 148.364 110.106 147.972 109.914 147.644C109.73 147.308 109.474 147.048 109.146 146.864C108.826 146.68 108.466 146.588 108.066 146.588C107.658 146.588 107.294 146.68 106.974 146.864C106.654 147.048 106.398 147.308 106.206 147.644C106.014 147.972 105.918 148.364 105.918 148.82C105.918 149.268 106.014 149.664 106.206 150.008C106.398 150.344 106.654 150.604 106.974 150.788C107.294 150.972 107.658 151.064 108.066 151.064ZM110.238 152V150.284L110.31 148.808L110.19 147.332V143.096H111.342V152H110.238ZM113.798 152.072C113.574 152.072 113.382 151.996 113.222 151.844C113.062 151.684 112.982 151.484 112.982 151.244C112.982 151.004 113.062 150.808 113.222 150.656C113.382 150.504 113.574 150.428 113.798 150.428C114.014 150.428 114.198 150.504 114.35 150.656C114.51 150.808 114.59 151.004 114.59 151.244C114.59 151.484 114.51 151.684 114.35 151.844C114.198 151.996 114.014 152.072 113.798 152.072Z" fill="#008E86"/>
<path d="M66.9995 67.5L89.4995 45L89.4995 90L66.9995 67.5Z" fill="#00D8CC" stroke="#00635D" stroke-width="2" stroke-linejoin="round"/>
<path d="M89.5 45L112 67.4999L89.5 90L89.5 45Z" fill="#00D8CC" stroke="#00635D" stroke-width="2" stroke-linejoin="round"/>
<path d="M66.9995 67.5L89.4995 45L89.4995 66L71.4995 72L66.9995 67.5Z" fill="#00D8CC" stroke="#00635D" stroke-width="2" stroke-linejoin="round"/>
<path d="M89.4995 45.0001L111.999 67.5L107.499 72L89.4995 66L89.4995 45.0001Z" fill="#00D8CC" stroke="#00635D" stroke-width="2" stroke-linejoin="round"/>
<path d="M99 55L80 55" stroke="#333333" stroke-width="2" stroke-dasharray="4 4"/>
<path d="M90 66L72 72L72 48L90 66Z" fill="#00D8CC" stroke="#00635D" stroke-width="2" stroke-linejoin="round"/>
<path d="M107 72.5L89 66L107 48L107 72.5Z" fill="#00D8CC" stroke="#00635D" stroke-width="2" stroke-linejoin="round"/>
<path d="M66.6926 63.8513C67.2448 63.838 67.6816 63.3797 67.6684 62.8276L67.4525 53.8302C67.4392 53.278 66.9809 52.8412 66.4288 52.8544C65.8767 52.8677 65.4398 53.326 65.4531 53.8781L65.645 61.8758L57.6473 62.0677C57.0951 62.081 56.6583 62.5393 56.6715 63.0914C56.6848 63.6435 57.1431 64.0804 57.6952 64.0672L66.6926 63.8513ZM67.3586 42.7221C67.7584 42.341 67.7736 41.7081 67.3925 41.3083C67.0115 40.9085 66.3785 40.8933 65.9787 41.2744L67.3586 42.7221ZM67.3586 62.1277C64.3452 59.2556 63 55.8496 63 52.4685L61 52.4685C61 56.4167 62.5841 60.3399 65.9787 63.5754L67.3586 62.1277ZM63 52.4685C63 50.8311 63.5384 48.9072 64.3822 47.1002C65.2251 45.2953 66.3263 43.706 67.3586 42.7221L65.9787 41.2744C64.7225 42.4717 63.4894 44.2853 62.57 46.254C61.6517 48.2207 61 50.4413 61 52.4685L63 52.4685Z" fill="black"/>
</g>
<defs>
<clipPath id="clip0_18_751">
<rect width="180" height="180" rx="20" fill="white"/>
</clipPath>
<clipPath id="clip1_18_751">
<path d="M0 30L-1.31134e-06 0L30 -1.31134e-06L30 10C30 21.0457 21.0457 30 10 30L0 30Z" fill="white"/>
</clipPath>
</defs>
</svg>
