<svg width="180" height="180" viewBox="0 0 180 180" fill="none" xmlns="http://www.w3.org/2000/svg">
<g clip-path="url(#clip0_18_778)">
<rect width="180" height="180" rx="20" fill="#F2F2F2"/>
<g clip-path="url(#clip1_18_778)">
<path d="M0 30L-1.31134e-06 0L30 -1.31134e-06L30 10C30 21.0457 21.0457 30 10 30L0 30Z" fill="#333333"/>
<path d="M14.7062 14.008C16.2849 14.008 17.4475 14.3227 18.1942 14.952C18.9515 15.5813 19.3302 16.424 19.3302 17.48C19.3302 18.1627 19.1595 18.7867 18.8182 19.352C18.4769 19.9067 17.9542 20.3547 17.2502 20.696C16.5569 21.0267 15.6982 21.192 14.6742 21.192C13.8849 21.192 13.1062 21.0907 12.3382 20.888C11.5809 20.6747 10.9355 20.376 10.4022 19.992L11.4262 18.008C11.8529 18.328 12.3435 18.5787 12.8982 18.76C13.4529 18.9307 14.0235 19.016 14.6102 19.016C15.2609 19.016 15.7729 18.888 16.1462 18.632C16.5195 18.376 16.7062 18.0187 16.7062 17.56C16.7062 17.08 16.5089 16.7173 16.1142 16.472C15.7302 16.2267 15.0582 16.104 14.0982 16.104H11.2342L11.8102 9.8H18.6422V11.88H13.9702L13.7942 14.008H14.7062Z" fill="#F2F2F2"/>
</g>
<path d="M21.3185 124.572H25.6505V125.604H21.3185V124.572ZM21.4385 129H20.2385V120.6H26.1665V121.644H21.4385V129ZM30.2125 129.072C29.5725 129.072 29.0045 128.932 28.5085 128.652C28.0125 128.372 27.6205 127.988 27.3325 127.5C27.0445 127.004 26.9005 126.444 26.9005 125.82C26.9005 125.188 27.0445 124.628 27.3325 124.14C27.6205 123.652 28.0125 123.272 28.5085 123C29.0045 122.72 29.5725 122.58 30.2125 122.58C30.8445 122.58 31.4085 122.72 31.9045 123C32.4085 123.272 32.8005 123.652 33.0805 124.14C33.3685 124.62 33.5125 125.18 33.5125 125.82C33.5125 126.452 33.3685 127.012 33.0805 127.5C32.8005 127.988 32.4085 128.372 31.9045 128.652C31.4085 128.932 30.8445 129.072 30.2125 129.072ZM30.2125 128.064C30.6205 128.064 30.9845 127.972 31.3045 127.788C31.6325 127.604 31.8885 127.344 32.0725 127.008C32.2565 126.664 32.3485 126.268 32.3485 125.82C32.3485 125.364 32.2565 124.972 32.0725 124.644C31.8885 124.308 31.6325 124.048 31.3045 123.864C30.9845 123.68 30.6205 123.588 30.2125 123.588C29.8045 123.588 29.4405 123.68 29.1205 123.864C28.8005 124.048 28.5445 124.308 28.3525 124.644C28.1605 124.972 28.0645 125.364 28.0645 125.82C28.0645 126.268 28.1605 126.664 28.3525 127.008C28.5445 127.344 28.8005 127.604 29.1205 127.788C29.4405 127.972 29.8045 128.064 30.2125 128.064ZM35.1057 129V120.096H36.2577V129H35.1057ZM41.0852 129.072C40.4692 129.072 39.9172 128.936 39.4292 128.664C38.9492 128.392 38.5692 128.012 38.2892 127.524C38.0092 127.036 37.8692 126.468 37.8692 125.82C37.8692 125.172 38.0092 124.608 38.2892 124.128C38.5692 123.64 38.9492 123.26 39.4292 122.988C39.9172 122.716 40.4692 122.58 41.0852 122.58C41.6212 122.58 42.1052 122.7 42.5372 122.94C42.9692 123.18 43.3132 123.54 43.5692 124.02C43.8332 124.5 43.9652 125.1 43.9652 125.82C43.9652 126.54 43.8372 127.14 43.5812 127.62C43.3332 128.1 42.9932 128.464 42.5612 128.712C42.1292 128.952 41.6372 129.072 41.0852 129.072ZM41.1812 128.064C41.5812 128.064 41.9412 127.972 42.2612 127.788C42.5892 127.604 42.8452 127.344 43.0292 127.008C43.2212 126.664 43.3172 126.268 43.3172 125.82C43.3172 125.364 43.2212 124.972 43.0292 124.644C42.8452 124.308 42.5892 124.048 42.2612 123.864C41.9412 123.68 41.5812 123.588 41.1812 123.588C40.7732 123.588 40.4092 123.68 40.0892 123.864C39.7692 124.048 39.5132 124.308 39.3212 124.644C39.1292 124.972 39.0332 125.364 39.0332 125.82C39.0332 126.268 39.1292 126.664 39.3212 127.008C39.5132 127.344 39.7692 127.604 40.0892 127.788C40.4092 127.972 40.7732 128.064 41.1812 128.064ZM43.3532 129V127.284L43.4252 125.808L43.3052 124.332V120.096H44.4572V129H43.3532ZM52.0436 129.072C51.4036 129.072 50.9076 128.9 50.5556 128.556C50.2036 128.212 50.0276 127.72 50.0276 127.08V121.248H51.1796V127.032C51.1796 127.376 51.2636 127.64 51.4316 127.824C51.6076 128.008 51.8556 128.1 52.1756 128.1C52.5356 128.1 52.8356 128 53.0756 127.8L53.4356 128.628C53.2596 128.78 53.0476 128.892 52.7996 128.964C52.5596 129.036 52.3076 129.072 52.0436 129.072ZM48.9476 123.588V122.64H53.0036V123.588H48.9476ZM58.2243 122.58C58.7443 122.58 59.2003 122.68 59.5923 122.88C59.9923 123.08 60.3043 123.384 60.5283 123.792C60.7523 124.2 60.8643 124.716 60.8643 125.34V129H59.7123V125.472C59.7123 124.856 59.5603 124.392 59.2563 124.08C58.9603 123.768 58.5403 123.612 57.9963 123.612C57.5883 123.612 57.2323 123.692 56.9283 123.852C56.6243 124.012 56.3883 124.248 56.2203 124.56C56.0603 124.872 55.9803 125.26 55.9803 125.724V129H54.8283V120.096H55.9803V124.356L55.7523 123.9C55.9603 123.484 56.2803 123.16 56.7123 122.928C57.1443 122.696 57.6483 122.58 58.2243 122.58ZM65.8283 129.072C65.1483 129.072 64.5483 128.932 64.0283 128.652C63.5163 128.372 63.1163 127.988 62.8283 127.5C62.5483 127.012 62.4083 126.452 62.4083 125.82C62.4083 125.188 62.5443 124.628 62.8163 124.14C63.0963 123.652 63.4763 123.272 63.9563 123C64.4443 122.72 64.9923 122.58 65.6003 122.58C66.2163 122.58 66.7603 122.716 67.2323 122.988C67.7043 123.26 68.0723 123.644 68.3363 124.14C68.6083 124.628 68.7443 125.2 68.7443 125.856C68.7443 125.904 68.7403 125.96 68.7323 126.024C68.7323 126.088 68.7283 126.148 68.7203 126.204H63.3083V125.376H68.1203L67.6523 125.664C67.6603 125.256 67.5763 124.892 67.4003 124.572C67.2243 124.252 66.9803 124.004 66.6683 123.828C66.3643 123.644 66.0083 123.552 65.6003 123.552C65.2003 123.552 64.8443 123.644 64.5323 123.828C64.2203 124.004 63.9763 124.256 63.8003 124.584C63.6243 124.904 63.5363 125.272 63.5363 125.688V125.88C63.5363 126.304 63.6323 126.684 63.8243 127.02C64.0243 127.348 64.3003 127.604 64.6523 127.788C65.0043 127.972 65.4083 128.064 65.8643 128.064C66.2403 128.064 66.5803 128 66.8843 127.872C67.1963 127.744 67.4683 127.552 67.7003 127.296L68.3363 128.04C68.0483 128.376 67.6883 128.632 67.2563 128.808C66.8323 128.984 66.3563 129.072 65.8283 129.072ZM76.9386 129.072C76.3946 129.072 75.9026 128.952 75.4626 128.712C75.0306 128.464 74.6866 128.1 74.4306 127.62C74.1826 127.14 74.0586 126.54 74.0586 125.82C74.0586 125.1 74.1866 124.5 74.4426 124.02C74.7066 123.54 75.0546 123.18 75.4866 122.94C75.9266 122.7 76.4106 122.58 76.9386 122.58C77.5626 122.58 78.1146 122.716 78.5946 122.988C79.0746 123.26 79.4546 123.64 79.7346 124.128C80.0146 124.608 80.1546 125.172 80.1546 125.82C80.1546 126.468 80.0146 127.036 79.7346 127.524C79.4546 128.012 79.0746 128.392 78.5946 128.664C78.1146 128.936 77.5626 129.072 76.9386 129.072ZM73.5666 129V120.096H74.7186V124.332L74.5986 125.808L74.6706 127.284V129H73.5666ZM76.8426 128.064C77.2506 128.064 77.6146 127.972 77.9346 127.788C78.2626 127.604 78.5186 127.344 78.7026 127.008C78.8946 126.664 78.9906 126.268 78.9906 125.82C78.9906 125.364 78.8946 124.972 78.7026 124.644C78.5186 124.308 78.2626 124.048 77.9346 123.864C77.6146 123.68 77.2506 123.588 76.8426 123.588C76.4426 123.588 76.0786 123.68 75.7506 123.864C75.4306 124.048 75.1746 124.308 74.9826 124.644C74.7986 124.972 74.7066 125.364 74.7066 125.82C74.7066 126.268 74.7986 126.664 74.9826 127.008C75.1746 127.344 75.4306 127.604 75.7506 127.788C76.0786 127.972 76.4426 128.064 76.8426 128.064ZM84.4703 129.072C83.8303 129.072 83.2623 128.932 82.7663 128.652C82.2703 128.372 81.8783 127.988 81.5903 127.5C81.3023 127.004 81.1583 126.444 81.1583 125.82C81.1583 125.188 81.3023 124.628 81.5903 124.14C81.8783 123.652 82.2703 123.272 82.7663 123C83.2623 122.72 83.8303 122.58 84.4703 122.58C85.1023 122.58 85.6663 122.72 86.1623 123C86.6663 123.272 87.0583 123.652 87.3383 124.14C87.6263 124.62 87.7703 125.18 87.7703 125.82C87.7703 126.452 87.6263 127.012 87.3383 127.5C87.0583 127.988 86.6663 128.372 86.1623 128.652C85.6663 128.932 85.1023 129.072 84.4703 129.072ZM84.4703 128.064C84.8783 128.064 85.2423 127.972 85.5623 127.788C85.8903 127.604 86.1463 127.344 86.3303 127.008C86.5143 126.664 86.6063 126.268 86.6063 125.82C86.6063 125.364 86.5143 124.972 86.3303 124.644C86.1463 124.308 85.8903 124.048 85.5623 123.864C85.2423 123.68 84.8783 123.588 84.4703 123.588C84.0623 123.588 83.6983 123.68 83.3783 123.864C83.0583 124.048 82.8023 124.308 82.6103 124.644C82.4183 124.972 82.3223 125.364 82.3223 125.82C82.3223 126.268 82.4183 126.664 82.6103 127.008C82.8023 127.344 83.0583 127.604 83.3783 127.788C83.6983 127.972 84.0623 128.064 84.4703 128.064ZM91.5475 129.072C90.9075 129.072 90.4115 128.9 90.0595 128.556C89.7075 128.212 89.5315 127.72 89.5315 127.08V121.248H90.6835V127.032C90.6835 127.376 90.7675 127.64 90.9355 127.824C91.1115 128.008 91.3595 128.1 91.6795 128.1C92.0395 128.1 92.3395 128 92.5795 127.8L92.9395 128.628C92.7635 128.78 92.5515 128.892 92.3035 128.964C92.0635 129.036 91.8115 129.072 91.5475 129.072ZM88.4515 123.588V122.64H92.5075V123.588H88.4515ZM96.3639 129.072C95.7239 129.072 95.2279 128.9 94.8759 128.556C94.5239 128.212 94.3479 127.72 94.3479 127.08V121.248H95.4999V127.032C95.4999 127.376 95.5839 127.64 95.7519 127.824C95.9279 128.008 96.1759 128.1 96.4959 128.1C96.8559 128.1 97.1559 128 97.3959 127.8L97.7559 128.628C97.5799 128.78 97.3679 128.892 97.1199 128.964C96.8799 129.036 96.6279 129.072 96.3639 129.072ZM93.2679 123.588V122.64H97.3239V123.588H93.2679ZM101.662 129.072C101.022 129.072 100.454 128.932 99.9577 128.652C99.4617 128.372 99.0697 127.988 98.7817 127.5C98.4937 127.004 98.3497 126.444 98.3497 125.82C98.3497 125.188 98.4937 124.628 98.7817 124.14C99.0697 123.652 99.4617 123.272 99.9577 123C100.454 122.72 101.022 122.58 101.662 122.58C102.294 122.58 102.858 122.72 103.354 123C103.858 123.272 104.25 123.652 104.53 124.14C104.818 124.62 104.962 125.18 104.962 125.82C104.962 126.452 104.818 127.012 104.53 127.5C104.25 127.988 103.858 128.372 103.354 128.652C102.858 128.932 102.294 129.072 101.662 129.072ZM101.662 128.064C102.07 128.064 102.434 127.972 102.754 127.788C103.082 127.604 103.338 127.344 103.522 127.008C103.706 126.664 103.798 126.268 103.798 125.82C103.798 125.364 103.706 124.972 103.522 124.644C103.338 124.308 103.082 124.048 102.754 123.864C102.434 123.68 102.07 123.588 101.662 123.588C101.254 123.588 100.89 123.68 100.57 123.864C100.25 124.048 99.9937 124.308 99.8017 124.644C99.6097 124.972 99.5137 125.364 99.5137 125.82C99.5137 126.268 99.6097 126.664 99.8017 127.008C99.9937 127.344 100.25 127.604 100.57 127.788C100.89 127.972 101.254 128.064 101.662 128.064ZM114.511 122.58C115.023 122.58 115.475 122.68 115.867 122.88C116.259 123.08 116.563 123.384 116.779 123.792C117.003 124.2 117.115 124.716 117.115 125.34V129H115.963V125.472C115.963 124.856 115.819 124.392 115.531 124.08C115.243 123.768 114.839 123.612 114.319 123.612C113.935 123.612 113.599 123.692 113.311 123.852C113.023 124.012 112.799 124.248 112.639 124.56C112.487 124.872 112.411 125.26 112.411 125.724V129H111.259V125.472C111.259 124.856 111.115 124.392 110.827 124.08C110.547 123.768 110.143 123.612 109.615 123.612C109.239 123.612 108.907 123.692 108.619 123.852C108.331 124.012 108.107 124.248 107.947 124.56C107.787 124.872 107.707 125.26 107.707 125.724V129H106.555V122.64H107.659V124.332L107.479 123.9C107.679 123.484 107.987 123.16 108.403 122.928C108.819 122.696 109.303 122.58 109.855 122.58C110.463 122.58 110.987 122.732 111.427 123.036C111.867 123.332 112.155 123.784 112.291 124.392L111.823 124.2C112.015 123.712 112.351 123.32 112.831 123.024C113.311 122.728 113.871 122.58 114.511 122.58ZM125.229 129.072C124.581 129.072 124.001 128.932 123.489 128.652C122.985 128.372 122.589 127.988 122.301 127.5C122.013 127.012 121.869 126.452 121.869 125.82C121.869 125.188 122.013 124.628 122.301 124.14C122.589 123.652 122.985 123.272 123.489 123C124.001 122.72 124.581 122.58 125.229 122.58C125.805 122.58 126.317 122.696 126.765 122.928C127.221 123.152 127.573 123.488 127.821 123.936L126.945 124.5C126.737 124.188 126.481 123.96 126.177 123.816C125.881 123.664 125.561 123.588 125.217 123.588C124.801 123.588 124.429 123.68 124.101 123.864C123.773 124.048 123.513 124.308 123.321 124.644C123.129 124.972 123.033 125.364 123.033 125.82C123.033 126.276 123.129 126.672 123.321 127.008C123.513 127.344 123.773 127.604 124.101 127.788C124.429 127.972 124.801 128.064 125.217 128.064C125.561 128.064 125.881 127.992 126.177 127.848C126.481 127.696 126.737 127.464 126.945 127.152L127.821 127.704C127.573 128.144 127.221 128.484 126.765 128.724C126.317 128.956 125.805 129.072 125.229 129.072ZM131.943 129.072C131.303 129.072 130.735 128.932 130.239 128.652C129.743 128.372 129.351 127.988 129.063 127.5C128.775 127.004 128.631 126.444 128.631 125.82C128.631 125.188 128.775 124.628 129.063 124.14C129.351 123.652 129.743 123.272 130.239 123C130.735 122.72 131.303 122.58 131.943 122.58C132.575 122.58 133.139 122.72 133.635 123C134.139 123.272 134.531 123.652 134.811 124.14C135.099 124.62 135.243 125.18 135.243 125.82C135.243 126.452 135.099 127.012 134.811 127.5C134.531 127.988 134.139 128.372 133.635 128.652C133.139 128.932 132.575 129.072 131.943 129.072ZM131.943 128.064C132.351 128.064 132.715 127.972 133.035 127.788C133.363 127.604 133.619 127.344 133.803 127.008C133.987 126.664 134.079 126.268 134.079 125.82C134.079 125.364 133.987 124.972 133.803 124.644C133.619 124.308 133.363 124.048 133.035 123.864C132.715 123.68 132.351 123.588 131.943 123.588C131.535 123.588 131.171 123.68 130.851 123.864C130.531 124.048 130.275 124.308 130.083 124.644C129.891 124.972 129.795 125.364 129.795 125.82C129.795 126.268 129.891 126.664 130.083 127.008C130.275 127.344 130.531 127.604 130.851 127.788C131.171 127.972 131.535 128.064 131.943 128.064ZM136.836 129V122.64H137.94V124.368L137.832 123.936C138.008 123.496 138.304 123.16 138.72 122.928C139.136 122.696 139.648 122.58 140.256 122.58V123.696C140.208 123.688 140.16 123.684 140.112 123.684C140.072 123.684 140.032 123.684 139.992 123.684C139.376 123.684 138.888 123.868 138.528 124.236C138.168 124.604 137.988 125.136 137.988 125.832V129H136.836ZM145.072 122.58C145.592 122.58 146.048 122.68 146.44 122.88C146.84 123.08 147.152 123.384 147.376 123.792C147.6 124.2 147.712 124.716 147.712 125.34V129H146.56V125.472C146.56 124.856 146.408 124.392 146.104 124.08C145.808 123.768 145.388 123.612 144.844 123.612C144.436 123.612 144.08 123.692 143.776 123.852C143.472 124.012 143.236 124.248 143.068 124.56C142.908 124.872 142.828 125.26 142.828 125.724V129H141.676V122.64H142.78V124.356L142.6 123.9C142.808 123.484 143.128 123.16 143.56 122.928C143.992 122.696 144.496 122.58 145.072 122.58ZM152.676 129.072C151.996 129.072 151.396 128.932 150.876 128.652C150.364 128.372 149.964 127.988 149.676 127.5C149.396 127.012 149.256 126.452 149.256 125.82C149.256 125.188 149.392 124.628 149.664 124.14C149.944 123.652 150.324 123.272 150.804 123C151.292 122.72 151.84 122.58 152.448 122.58C153.064 122.58 153.608 122.716 154.08 122.988C154.552 123.26 154.92 123.644 155.184 124.14C155.456 124.628 155.592 125.2 155.592 125.856C155.592 125.904 155.588 125.96 155.58 126.024C155.58 126.088 155.576 126.148 155.568 126.204H150.156V125.376H154.968L154.5 125.664C154.508 125.256 154.424 124.892 154.248 124.572C154.072 124.252 153.828 124.004 153.516 123.828C153.212 123.644 152.856 123.552 152.448 123.552C152.048 123.552 151.692 123.644 151.38 123.828C151.068 124.004 150.824 124.256 150.648 124.584C150.472 124.904 150.384 125.272 150.384 125.688V125.88C150.384 126.304 150.48 126.684 150.672 127.02C150.872 127.348 151.148 127.604 151.5 127.788C151.852 127.972 152.256 128.064 152.712 128.064C153.088 128.064 153.428 128 153.732 127.872C154.044 127.744 154.316 127.552 154.548 127.296L155.184 128.04C154.896 128.376 154.536 128.632 154.104 128.808C153.68 128.984 153.204 129.072 152.676 129.072ZM157.192 129V122.64H158.296V124.368L158.188 123.936C158.364 123.496 158.66 123.16 159.076 122.928C159.492 122.696 160.004 122.58 160.612 122.58V123.696C160.564 123.688 160.516 123.684 160.468 123.684C160.428 123.684 160.388 123.684 160.348 123.684C159.732 123.684 159.244 123.868 158.884 124.236C158.524 124.604 158.344 125.136 158.344 125.832V129H157.192ZM30.2467 144.072C29.6067 144.072 29.1107 143.9 28.7587 143.556C28.4067 143.212 28.2307 142.72 28.2307 142.08V136.248H29.3827V142.032C29.3827 142.376 29.4667 142.64 29.6347 142.824C29.8107 143.008 30.0587 143.1 30.3787 143.1C30.7387 143.1 31.0387 143 31.2787 142.8L31.6387 143.628C31.4627 143.78 31.2507 143.892 31.0027 143.964C30.7627 144.036 30.5107 144.072 30.2467 144.072ZM27.1507 138.588V137.64H31.2067V138.588H27.1507ZM35.5445 144.072C34.9045 144.072 34.3365 143.932 33.8405 143.652C33.3445 143.372 32.9525 142.988 32.6645 142.5C32.3765 142.004 32.2325 141.444 32.2325 140.82C32.2325 140.188 32.3765 139.628 32.6645 139.14C32.9525 138.652 33.3445 138.272 33.8405 138C34.3365 137.72 34.9045 137.58 35.5445 137.58C36.1765 137.58 36.7405 137.72 37.2365 138C37.7405 138.272 38.1325 138.652 38.4125 139.14C38.7005 139.62 38.8445 140.18 38.8445 140.82C38.8445 141.452 38.7005 142.012 38.4125 142.5C38.1325 142.988 37.7405 143.372 37.2365 143.652C36.7405 143.932 36.1765 144.072 35.5445 144.072ZM35.5445 143.064C35.9525 143.064 36.3165 142.972 36.6365 142.788C36.9645 142.604 37.2205 142.344 37.4045 142.008C37.5885 141.664 37.6805 141.268 37.6805 140.82C37.6805 140.364 37.5885 139.972 37.4045 139.644C37.2205 139.308 36.9645 139.048 36.6365 138.864C36.3165 138.68 35.9525 138.588 35.5445 138.588C35.1365 138.588 34.7725 138.68 34.4525 138.864C34.1325 139.048 33.8765 139.308 33.6845 139.644C33.4925 139.972 33.3965 140.364 33.3965 140.82C33.3965 141.268 33.4925 141.664 33.6845 142.008C33.8765 142.344 34.1325 142.604 34.4525 142.788C34.7725 142.972 35.1365 143.064 35.5445 143.064ZM41.6059 144L39.2419 137.64H40.3339L42.4339 143.4H41.9179L44.1019 137.64H45.0739L47.2099 143.4H46.7059L48.8539 137.64H49.8859L47.5099 144H46.4059L44.4019 138.744H44.7379L42.7099 144H41.6059ZM54.8037 144V142.656L54.7437 142.404V140.112C54.7437 139.624 54.5997 139.248 54.3117 138.984C54.0317 138.712 53.6077 138.576 53.0397 138.576C52.6637 138.576 52.2957 138.64 51.9357 138.768C51.5757 138.888 51.2717 139.052 51.0237 139.26L50.5437 138.396C50.8717 138.132 51.2637 137.932 51.7197 137.796C52.1837 137.652 52.6677 137.58 53.1717 137.58C54.0437 137.58 54.7157 137.792 55.1877 138.216C55.6597 138.64 55.8957 139.288 55.8957 140.16V144H54.8037ZM52.7157 144.072C52.2437 144.072 51.8277 143.992 51.4677 143.832C51.1157 143.672 50.8437 143.452 50.6517 143.172C50.4597 142.884 50.3637 142.56 50.3637 142.2C50.3637 141.856 50.4437 141.544 50.6037 141.264C50.7717 140.984 51.0397 140.76 51.4077 140.592C51.7837 140.424 52.2877 140.34 52.9197 140.34H54.9357V141.168H52.9677C52.3917 141.168 52.0037 141.264 51.8037 141.456C51.6037 141.648 51.5037 141.88 51.5037 142.152C51.5037 142.464 51.6277 142.716 51.8757 142.908C52.1237 143.092 52.4677 143.184 52.9077 143.184C53.3397 143.184 53.7157 143.088 54.0357 142.896C54.3637 142.704 54.5997 142.424 54.7437 142.056L54.9717 142.848C54.8197 143.224 54.5517 143.524 54.1677 143.748C53.7837 143.964 53.2997 144.072 52.7157 144.072ZM58.0275 144V137.64H59.1315V139.368L59.0235 138.936C59.1995 138.496 59.4955 138.16 59.9115 137.928C60.3275 137.696 60.8395 137.58 61.4475 137.58V138.696C61.3995 138.688 61.3515 138.684 61.3035 138.684C61.2635 138.684 61.2235 138.684 61.1835 138.684C60.5675 138.684 60.0795 138.868 59.7195 139.236C59.3595 139.604 59.1795 140.136 59.1795 140.832V144H58.0275ZM65.4368 144.072C64.8208 144.072 64.2688 143.936 63.7808 143.664C63.3008 143.392 62.9208 143.012 62.6408 142.524C62.3608 142.036 62.2208 141.468 62.2208 140.82C62.2208 140.172 62.3608 139.608 62.6408 139.128C62.9208 138.64 63.3008 138.26 63.7808 137.988C64.2688 137.716 64.8208 137.58 65.4368 137.58C65.9728 137.58 66.4568 137.7 66.8888 137.94C67.3208 138.18 67.6648 138.54 67.9208 139.02C68.1848 139.5 68.3168 140.1 68.3168 140.82C68.3168 141.54 68.1888 142.14 67.9328 142.62C67.6848 143.1 67.3448 143.464 66.9128 143.712C66.4808 143.952 65.9888 144.072 65.4368 144.072ZM65.5328 143.064C65.9328 143.064 66.2928 142.972 66.6128 142.788C66.9408 142.604 67.1968 142.344 67.3808 142.008C67.5728 141.664 67.6688 141.268 67.6688 140.82C67.6688 140.364 67.5728 139.972 67.3808 139.644C67.1968 139.308 66.9408 139.048 66.6128 138.864C66.2928 138.68 65.9328 138.588 65.5328 138.588C65.1248 138.588 64.7608 138.68 64.4408 138.864C64.1208 139.048 63.8648 139.308 63.6728 139.644C63.4808 139.972 63.3848 140.364 63.3848 140.82C63.3848 141.268 63.4808 141.664 63.6728 142.008C63.8648 142.344 64.1208 142.604 64.4408 142.788C64.7608 142.972 65.1248 143.064 65.5328 143.064ZM67.7048 144V142.284L67.7768 140.808L67.6568 139.332V135.096H68.8088V144H67.7048ZM76.3951 144.072C75.7551 144.072 75.2591 143.9 74.9071 143.556C74.5551 143.212 74.3791 142.72 74.3791 142.08V136.248H75.5311V142.032C75.5311 142.376 75.6151 142.64 75.7831 142.824C75.9591 143.008 76.2071 143.1 76.5271 143.1C76.8871 143.1 77.1871 143 77.4271 142.8L77.7871 143.628C77.6111 143.78 77.3991 143.892 77.1511 143.964C76.9111 144.036 76.6591 144.072 76.3951 144.072ZM73.2991 138.588V137.64H77.3551V138.588H73.2991ZM82.5759 137.58C83.0959 137.58 83.5519 137.68 83.9439 137.88C84.3439 138.08 84.6559 138.384 84.8799 138.792C85.1039 139.2 85.2159 139.716 85.2159 140.34V144H84.0639V140.472C84.0639 139.856 83.9119 139.392 83.6079 139.08C83.3119 138.768 82.8919 138.612 82.3479 138.612C81.9399 138.612 81.5839 138.692 81.2799 138.852C80.9759 139.012 80.7399 139.248 80.5719 139.56C80.4119 139.872 80.3319 140.26 80.3319 140.724V144H79.1799V135.096H80.3319V139.356L80.1039 138.9C80.3119 138.484 80.6319 138.16 81.0639 137.928C81.4959 137.696 81.9999 137.58 82.5759 137.58ZM90.1799 144.072C89.4999 144.072 88.8999 143.932 88.3799 143.652C87.8679 143.372 87.4679 142.988 87.1799 142.5C86.8999 142.012 86.7599 141.452 86.7599 140.82C86.7599 140.188 86.8959 139.628 87.1679 139.14C87.4479 138.652 87.8279 138.272 88.3079 138C88.7959 137.72 89.3439 137.58 89.9519 137.58C90.5679 137.58 91.1119 137.716 91.5839 137.988C92.0559 138.26 92.4239 138.644 92.6879 139.14C92.9599 139.628 93.0959 140.2 93.0959 140.856C93.0959 140.904 93.0919 140.96 93.0839 141.024C93.0839 141.088 93.0799 141.148 93.0719 141.204H87.6599V140.376H92.4719L92.0039 140.664C92.0119 140.256 91.9279 139.892 91.7519 139.572C91.5759 139.252 91.3319 139.004 91.0199 138.828C90.7159 138.644 90.3599 138.552 89.9519 138.552C89.5519 138.552 89.1959 138.644 88.8839 138.828C88.5719 139.004 88.3279 139.256 88.1519 139.584C87.9759 139.904 87.8879 140.272 87.8879 140.688V140.88C87.8879 141.304 87.9839 141.684 88.1759 142.02C88.3759 142.348 88.6519 142.604 89.0039 142.788C89.3559 142.972 89.7599 143.064 90.2159 143.064C90.5919 143.064 90.9319 143 91.2359 142.872C91.5479 142.744 91.8199 142.552 92.0519 142.296L92.6879 143.04C92.3999 143.376 92.0399 143.632 91.6079 143.808C91.1839 143.984 90.7079 144.072 90.1799 144.072ZM101.29 144.072C100.746 144.072 100.254 143.952 99.8142 143.712C99.3822 143.464 99.0382 143.1 98.7822 142.62C98.5342 142.14 98.4102 141.54 98.4102 140.82C98.4102 140.1 98.5382 139.5 98.7942 139.02C99.0582 138.54 99.4062 138.18 99.8382 137.94C100.278 137.7 100.762 137.58 101.29 137.58C101.914 137.58 102.466 137.716 102.946 137.988C103.426 138.26 103.806 138.64 104.086 139.128C104.366 139.608 104.506 140.172 104.506 140.82C104.506 141.468 104.366 142.036 104.086 142.524C103.806 143.012 103.426 143.392 102.946 143.664C102.466 143.936 101.914 144.072 101.29 144.072ZM97.9182 144V135.096H99.0702V139.332L98.9502 140.808L99.0222 142.284V144H97.9182ZM101.194 143.064C101.602 143.064 101.966 142.972 102.286 142.788C102.614 142.604 102.87 142.344 103.054 142.008C103.246 141.664 103.342 141.268 103.342 140.82C103.342 140.364 103.246 139.972 103.054 139.644C102.87 139.308 102.614 139.048 102.286 138.864C101.966 138.68 101.602 138.588 101.194 138.588C100.794 138.588 100.43 138.68 100.102 138.864C99.7822 139.048 99.5262 139.308 99.3342 139.644C99.1502 139.972 99.0582 140.364 99.0582 140.82C99.0582 141.268 99.1502 141.664 99.3342 142.008C99.5262 142.344 99.7822 142.604 100.102 142.788C100.43 142.972 100.794 143.064 101.194 143.064ZM109.987 144V142.656L109.927 142.404V140.112C109.927 139.624 109.783 139.248 109.495 138.984C109.215 138.712 108.791 138.576 108.223 138.576C107.847 138.576 107.479 138.64 107.119 138.768C106.759 138.888 106.455 139.052 106.207 139.26L105.727 138.396C106.055 138.132 106.447 137.932 106.903 137.796C107.367 137.652 107.851 137.58 108.355 137.58C109.227 137.58 109.899 137.792 110.371 138.216C110.843 138.64 111.079 139.288 111.079 140.16V144H109.987ZM107.899 144.072C107.427 144.072 107.011 143.992 106.651 143.832C106.299 143.672 106.027 143.452 105.835 143.172C105.643 142.884 105.547 142.56 105.547 142.2C105.547 141.856 105.627 141.544 105.787 141.264C105.955 140.984 106.223 140.76 106.591 140.592C106.967 140.424 107.471 140.34 108.103 140.34H110.119V141.168H108.151C107.575 141.168 107.187 141.264 106.987 141.456C106.787 141.648 106.687 141.88 106.687 142.152C106.687 142.464 106.811 142.716 107.059 142.908C107.307 143.092 107.651 143.184 108.091 143.184C108.523 143.184 108.899 143.088 109.219 142.896C109.547 142.704 109.783 142.424 109.927 142.056L110.155 142.848C110.003 143.224 109.735 143.524 109.351 143.748C108.967 143.964 108.483 144.072 107.899 144.072ZM115.983 144.072C115.335 144.072 114.755 143.932 114.243 143.652C113.739 143.372 113.343 142.988 113.055 142.5C112.767 142.012 112.623 141.452 112.623 140.82C112.623 140.188 112.767 139.628 113.055 139.14C113.343 138.652 113.739 138.272 114.243 138C114.755 137.72 115.335 137.58 115.983 137.58C116.559 137.58 117.071 137.696 117.519 137.928C117.975 138.152 118.327 138.488 118.575 138.936L117.699 139.5C117.491 139.188 117.235 138.96 116.931 138.816C116.635 138.664 116.315 138.588 115.971 138.588C115.555 138.588 115.183 138.68 114.855 138.864C114.527 139.048 114.267 139.308 114.075 139.644C113.883 139.972 113.787 140.364 113.787 140.82C113.787 141.276 113.883 141.672 114.075 142.008C114.267 142.344 114.527 142.604 114.855 142.788C115.183 142.972 115.555 143.064 115.971 143.064C116.315 143.064 116.635 142.992 116.931 142.848C117.235 142.696 117.491 142.464 117.699 142.152L118.575 142.704C118.327 143.144 117.975 143.484 117.519 143.724C117.071 143.956 116.559 144.072 115.983 144.072ZM120.921 142.464L120.945 140.988L124.605 137.64H125.997L123.189 140.4L122.565 140.928L120.921 142.464ZM119.985 144V135.096H121.137V144H119.985ZM124.845 144L122.349 140.904L123.093 139.98L126.261 144H124.845ZM134.55 144V142.656L134.49 142.404V140.112C134.49 139.624 134.346 139.248 134.058 138.984C133.778 138.712 133.354 138.576 132.786 138.576C132.41 138.576 132.042 138.64 131.682 138.768C131.322 138.888 131.018 139.052 130.77 139.26L130.29 138.396C130.618 138.132 131.01 137.932 131.466 137.796C131.93 137.652 132.414 137.58 132.918 137.58C133.79 137.58 134.462 137.792 134.934 138.216C135.406 138.64 135.642 139.288 135.642 140.16V144H134.55ZM132.462 144.072C131.99 144.072 131.574 143.992 131.214 143.832C130.862 143.672 130.59 143.452 130.398 143.172C130.206 142.884 130.11 142.56 130.11 142.2C130.11 141.856 130.19 141.544 130.35 141.264C130.518 140.984 130.786 140.76 131.154 140.592C131.53 140.424 132.034 140.34 132.666 140.34H134.682V141.168H132.714C132.138 141.168 131.75 141.264 131.55 141.456C131.35 141.648 131.25 141.88 131.25 142.152C131.25 142.464 131.374 142.716 131.622 142.908C131.87 143.092 132.214 143.184 132.654 143.184C133.086 143.184 133.462 143.088 133.782 142.896C134.11 142.704 134.346 142.424 134.49 142.056L134.718 142.848C134.566 143.224 134.298 143.524 133.914 143.748C133.53 143.964 133.046 144.072 132.462 144.072ZM141.17 137.58C141.69 137.58 142.146 137.68 142.538 137.88C142.938 138.08 143.25 138.384 143.474 138.792C143.698 139.2 143.81 139.716 143.81 140.34V144H142.658V140.472C142.658 139.856 142.506 139.392 142.202 139.08C141.906 138.768 141.486 138.612 140.942 138.612C140.534 138.612 140.178 138.692 139.874 138.852C139.57 139.012 139.334 139.248 139.166 139.56C139.006 139.872 138.926 140.26 138.926 140.724V144H137.774V137.64H138.878V139.356L138.698 138.9C138.906 138.484 139.226 138.16 139.658 137.928C140.09 137.696 140.594 137.58 141.17 137.58ZM148.57 144.072C147.954 144.072 147.402 143.936 146.914 143.664C146.434 143.392 146.054 143.012 145.774 142.524C145.494 142.036 145.354 141.468 145.354 140.82C145.354 140.172 145.494 139.608 145.774 139.128C146.054 138.64 146.434 138.26 146.914 137.988C147.402 137.716 147.954 137.58 148.57 137.58C149.106 137.58 149.59 137.7 150.022 137.94C150.454 138.18 150.798 138.54 151.054 139.02C151.318 139.5 151.45 140.1 151.45 140.82C151.45 141.54 151.322 142.14 151.066 142.62C150.818 143.1 150.478 143.464 150.046 143.712C149.614 143.952 149.122 144.072 148.57 144.072ZM148.666 143.064C149.066 143.064 149.426 142.972 149.746 142.788C150.074 142.604 150.33 142.344 150.514 142.008C150.706 141.664 150.802 141.268 150.802 140.82C150.802 140.364 150.706 139.972 150.514 139.644C150.33 139.308 150.074 139.048 149.746 138.864C149.426 138.68 149.066 138.588 148.666 138.588C148.258 138.588 147.894 138.68 147.574 138.864C147.254 139.048 146.998 139.308 146.806 139.644C146.614 139.972 146.518 140.364 146.518 140.82C146.518 141.268 146.614 141.664 146.806 142.008C146.998 142.344 147.254 142.604 147.574 142.788C147.894 142.972 148.258 143.064 148.666 143.064ZM150.838 144V142.284L150.91 140.808L150.79 139.332V135.096H151.942V144H150.838ZM39.8869 159V152.64H40.9909V154.368L40.8829 153.936C41.0589 153.496 41.3549 153.16 41.7709 152.928C42.1869 152.696 42.6989 152.58 43.3069 152.58V153.696C43.2589 153.688 43.2109 153.684 43.1629 153.684C43.1229 153.684 43.0829 153.684 43.0429 153.684C42.4269 153.684 41.9389 153.868 41.5789 154.236C41.2189 154.604 41.0389 155.136 41.0389 155.832V159H39.8869ZM47.3922 159.072C46.7522 159.072 46.1842 158.932 45.6882 158.652C45.1922 158.372 44.8002 157.988 44.5122 157.5C44.2242 157.004 44.0802 156.444 44.0802 155.82C44.0802 155.188 44.2242 154.628 44.5122 154.14C44.8002 153.652 45.1922 153.272 45.6882 153C46.1842 152.72 46.7522 152.58 47.3922 152.58C48.0242 152.58 48.5882 152.72 49.0842 153C49.5882 153.272 49.9802 153.652 50.2602 154.14C50.5482 154.62 50.6922 155.18 50.6922 155.82C50.6922 156.452 50.5482 157.012 50.2602 157.5C49.9802 157.988 49.5882 158.372 49.0842 158.652C48.5882 158.932 48.0242 159.072 47.3922 159.072ZM47.3922 158.064C47.8002 158.064 48.1642 157.972 48.4842 157.788C48.8122 157.604 49.0682 157.344 49.2522 157.008C49.4362 156.664 49.5282 156.268 49.5282 155.82C49.5282 155.364 49.4362 154.972 49.2522 154.644C49.0682 154.308 48.8122 154.048 48.4842 153.864C48.1642 153.68 47.8002 153.588 47.3922 153.588C46.9842 153.588 46.6202 153.68 46.3002 153.864C45.9802 154.048 45.7242 154.308 45.5322 154.644C45.3402 154.972 45.2442 155.364 45.2442 155.82C45.2442 156.268 45.3402 156.664 45.5322 157.008C45.7242 157.344 45.9802 157.604 46.3002 157.788C46.6202 157.972 46.9842 158.064 47.3922 158.064ZM54.4694 159.072C53.8294 159.072 53.3334 158.9 52.9814 158.556C52.6294 158.212 52.4534 157.72 52.4534 157.08V151.248H53.6054V157.032C53.6054 157.376 53.6894 157.64 53.8574 157.824C54.0334 158.008 54.2814 158.1 54.6014 158.1C54.9614 158.1 55.2614 158 55.5014 157.8L55.8614 158.628C55.6854 158.78 55.4734 158.892 55.2254 158.964C54.9854 159.036 54.7334 159.072 54.4694 159.072ZM51.3734 153.588V152.64H55.4294V153.588H51.3734ZM61.2021 159V157.656L61.1421 157.404V155.112C61.1421 154.624 60.9981 154.248 60.7101 153.984C60.4301 153.712 60.0061 153.576 59.4381 153.576C59.0621 153.576 58.6941 153.64 58.3341 153.768C57.9741 153.888 57.6701 154.052 57.4221 154.26L56.9421 153.396C57.2701 153.132 57.6621 152.932 58.1181 152.796C58.5821 152.652 59.0661 152.58 59.5701 152.58C60.4421 152.58 61.1141 152.792 61.5861 153.216C62.0581 153.64 62.2941 154.288 62.2941 155.16V159H61.2021ZM59.1141 159.072C58.6421 159.072 58.2261 158.992 57.8661 158.832C57.5141 158.672 57.2421 158.452 57.0501 158.172C56.8581 157.884 56.7621 157.56 56.7621 157.2C56.7621 156.856 56.8421 156.544 57.0021 156.264C57.1701 155.984 57.4381 155.76 57.8061 155.592C58.1821 155.424 58.6861 155.34 59.3181 155.34H61.3341V156.168H59.3661C58.7901 156.168 58.4021 156.264 58.2021 156.456C58.0021 156.648 57.9021 156.88 57.9021 157.152C57.9021 157.464 58.0261 157.716 58.2741 157.908C58.5221 158.092 58.8661 158.184 59.3061 158.184C59.7381 158.184 60.1141 158.088 60.4341 157.896C60.7621 157.704 60.9981 157.424 61.1421 157.056L61.3701 157.848C61.2181 158.224 60.9501 158.524 60.5661 158.748C60.1821 158.964 59.6981 159.072 59.1141 159.072ZM66.61 159.072C65.97 159.072 65.474 158.9 65.122 158.556C64.77 158.212 64.594 157.72 64.594 157.08V151.248H65.746V157.032C65.746 157.376 65.83 157.64 65.998 157.824C66.174 158.008 66.422 158.1 66.742 158.1C67.102 158.1 67.402 158 67.642 157.8L68.002 158.628C67.826 158.78 67.614 158.892 67.366 158.964C67.126 159.036 66.874 159.072 66.61 159.072ZM63.514 153.588V152.64H67.57V153.588H63.514ZM72.0158 159.072C71.3358 159.072 70.7358 158.932 70.2158 158.652C69.7038 158.372 69.3038 157.988 69.0158 157.5C68.7358 157.012 68.5958 156.452 68.5958 155.82C68.5958 155.188 68.7318 154.628 69.0038 154.14C69.2838 153.652 69.6638 153.272 70.1438 153C70.6318 152.72 71.1798 152.58 71.7878 152.58C72.4038 152.58 72.9478 152.716 73.4198 152.988C73.8918 153.26 74.2598 153.644 74.5238 154.14C74.7958 154.628 74.9318 155.2 74.9318 155.856C74.9318 155.904 74.9278 155.96 74.9198 156.024C74.9198 156.088 74.9158 156.148 74.9078 156.204H69.4958V155.376H74.3078L73.8398 155.664C73.8478 155.256 73.7638 154.892 73.5878 154.572C73.4118 154.252 73.1678 154.004 72.8558 153.828C72.5518 153.644 72.1958 153.552 71.7878 153.552C71.3878 153.552 71.0318 153.644 70.7198 153.828C70.4078 154.004 70.1638 154.256 69.9878 154.584C69.8118 154.904 69.7238 155.272 69.7238 155.688V155.88C69.7238 156.304 69.8198 156.684 70.0118 157.02C70.2118 157.348 70.4878 157.604 70.8398 157.788C71.1918 157.972 71.5958 158.064 72.0518 158.064C72.4278 158.064 72.7678 158 73.0718 157.872C73.3838 157.744 73.6558 157.552 73.8878 157.296L74.5238 158.04C74.2358 158.376 73.8758 158.632 73.4438 158.808C73.0198 158.984 72.5438 159.072 72.0158 159.072ZM81.9381 159.072C81.2981 159.072 80.8021 158.9 80.4501 158.556C80.0981 158.212 79.9221 157.72 79.9221 157.08V151.248H81.0741V157.032C81.0741 157.376 81.1581 157.64 81.3261 157.824C81.5021 158.008 81.7501 158.1 82.0701 158.1C82.4301 158.1 82.7301 158 82.9701 157.8L83.3301 158.628C83.1541 158.78 82.9421 158.892 82.6941 158.964C82.4541 159.036 82.2021 159.072 81.9381 159.072ZM78.8421 153.588V152.64H82.8981V153.588H78.8421ZM88.1189 152.58C88.6389 152.58 89.0949 152.68 89.4869 152.88C89.8869 153.08 90.1989 153.384 90.4229 153.792C90.6469 154.2 90.7589 154.716 90.7589 155.34V159H89.6069V155.472C89.6069 154.856 89.4549 154.392 89.1509 154.08C88.8549 153.768 88.4349 153.612 87.8909 153.612C87.4829 153.612 87.1269 153.692 86.8229 153.852C86.5189 154.012 86.2829 154.248 86.1149 154.56C85.9549 154.872 85.8749 155.26 85.8749 155.724V159H84.7229V150.096H85.8749V154.356L85.6469 153.9C85.8549 153.484 86.1749 153.16 86.6069 152.928C87.0389 152.696 87.5429 152.58 88.1189 152.58ZM95.7228 159.072C95.0428 159.072 94.4428 158.932 93.9228 158.652C93.4108 158.372 93.0108 157.988 92.7228 157.5C92.4428 157.012 92.3028 156.452 92.3028 155.82C92.3028 155.188 92.4388 154.628 92.7108 154.14C92.9908 153.652 93.3708 153.272 93.8508 153C94.3388 152.72 94.8868 152.58 95.4948 152.58C96.1108 152.58 96.6548 152.716 97.1268 152.988C97.5988 153.26 97.9668 153.644 98.2308 154.14C98.5028 154.628 98.6388 155.2 98.6388 155.856C98.6388 155.904 98.6348 155.96 98.6268 156.024C98.6268 156.088 98.6228 156.148 98.6148 156.204H93.2028V155.376H98.0148L97.5468 155.664C97.5548 155.256 97.4708 154.892 97.2948 154.572C97.1188 154.252 96.8748 154.004 96.5628 153.828C96.2588 153.644 95.9028 153.552 95.4948 153.552C95.0948 153.552 94.7388 153.644 94.4268 153.828C94.1148 154.004 93.8708 154.256 93.6948 154.584C93.5188 154.904 93.4308 155.272 93.4308 155.688V155.88C93.4308 156.304 93.5268 156.684 93.7188 157.02C93.9188 157.348 94.1948 157.604 94.5468 157.788C94.8988 157.972 95.3028 158.064 95.7588 158.064C96.1348 158.064 96.4748 158 96.7788 157.872C97.0908 157.744 97.3628 157.552 97.5948 157.296L98.2308 158.04C97.9428 158.376 97.5828 158.632 97.1508 158.808C96.7268 158.984 96.2508 159.072 95.7228 159.072ZM103.629 159V152.076C103.629 151.452 103.809 150.956 104.169 150.588C104.537 150.212 105.057 150.024 105.729 150.024C105.977 150.024 106.213 150.056 106.437 150.12C106.669 150.176 106.865 150.268 107.025 150.396L106.677 151.272C106.557 151.176 106.421 151.104 106.269 151.056C106.117 151 105.957 150.972 105.789 150.972C105.453 150.972 105.197 151.068 105.021 151.26C104.845 151.444 104.757 151.72 104.757 152.088V152.94L104.781 153.468V159H103.629ZM102.549 153.588V152.64H106.605V153.588H102.549ZM107.697 159V152.64H108.849V159H107.697ZM108.273 151.416C108.049 151.416 107.861 151.344 107.709 151.2C107.565 151.056 107.493 150.88 107.493 150.672C107.493 150.456 107.565 150.276 107.709 150.132C107.861 149.988 108.049 149.916 108.273 149.916C108.497 149.916 108.681 149.988 108.825 150.132C108.977 150.268 109.053 150.44 109.053 150.648C109.053 150.864 108.981 151.048 108.837 151.2C108.693 151.344 108.505 151.416 108.273 151.416ZM113.827 161.4C113.243 161.4 112.675 161.316 112.123 161.148C111.579 160.988 111.135 160.756 110.791 160.452L111.343 159.564C111.639 159.82 112.003 160.02 112.435 160.164C112.867 160.316 113.319 160.392 113.791 160.392C114.543 160.392 115.095 160.216 115.447 159.864C115.799 159.512 115.975 158.976 115.975 158.256V156.912L116.095 155.652L116.035 154.38V152.64H117.127V158.136C117.127 159.256 116.847 160.08 116.287 160.608C115.727 161.136 114.907 161.4 113.827 161.4ZM113.683 158.736C113.067 158.736 112.515 158.608 112.027 158.352C111.547 158.088 111.163 157.724 110.875 157.26C110.595 156.796 110.455 156.26 110.455 155.652C110.455 155.036 110.595 154.5 110.875 154.044C111.163 153.58 111.547 153.22 112.027 152.964C112.515 152.708 113.067 152.58 113.683 152.58C114.227 152.58 114.723 152.692 115.171 152.916C115.619 153.132 115.975 153.468 116.239 153.924C116.511 154.38 116.647 154.956 116.647 155.652C116.647 156.34 116.511 156.912 116.239 157.368C115.975 157.824 115.619 158.168 115.171 158.4C114.723 158.624 114.227 158.736 113.683 158.736ZM113.815 157.728C114.239 157.728 114.615 157.64 114.943 157.464C115.271 157.288 115.527 157.044 115.711 156.732C115.903 156.42 115.999 156.06 115.999 155.652C115.999 155.244 115.903 154.884 115.711 154.572C115.527 154.26 115.271 154.02 114.943 153.852C114.615 153.676 114.239 153.588 113.815 153.588C113.391 153.588 113.011 153.676 112.675 153.852C112.347 154.02 112.087 154.26 111.895 154.572C111.711 154.884 111.619 155.244 111.619 155.652C111.619 156.06 111.711 156.42 111.895 156.732C112.087 157.044 112.347 157.288 112.675 157.464C113.011 157.64 113.391 157.728 113.815 157.728ZM122.004 159.072C121.46 159.072 120.98 158.972 120.564 158.772C120.156 158.572 119.836 158.268 119.604 157.86C119.38 157.444 119.268 156.924 119.268 156.3V152.64H120.42V156.168C120.42 156.792 120.568 157.26 120.864 157.572C121.168 157.884 121.592 158.04 122.136 158.04C122.536 158.04 122.884 157.96 123.18 157.8C123.476 157.632 123.704 157.392 123.864 157.08C124.024 156.76 124.104 156.376 124.104 155.928V152.64H125.256V159H124.164V157.284L124.344 157.74C124.136 158.164 123.824 158.492 123.408 158.724C122.992 158.956 122.524 159.072 122.004 159.072ZM127.449 159V152.64H128.553V154.368L128.445 153.936C128.621 153.496 128.917 153.16 129.333 152.928C129.749 152.696 130.261 152.58 130.869 152.58V153.696C130.821 153.688 130.773 153.684 130.725 153.684C130.685 153.684 130.645 153.684 130.605 153.684C129.989 153.684 129.501 153.868 129.141 154.236C128.781 154.604 128.601 155.136 128.601 155.832V159H127.449ZM135.063 159.072C134.383 159.072 133.783 158.932 133.263 158.652C132.751 158.372 132.351 157.988 132.063 157.5C131.783 157.012 131.643 156.452 131.643 155.82C131.643 155.188 131.779 154.628 132.051 154.14C132.331 153.652 132.711 153.272 133.191 153C133.679 152.72 134.227 152.58 134.835 152.58C135.451 152.58 135.995 152.716 136.467 152.988C136.939 153.26 137.307 153.644 137.571 154.14C137.843 154.628 137.979 155.2 137.979 155.856C137.979 155.904 137.975 155.96 137.967 156.024C137.967 156.088 137.963 156.148 137.955 156.204H132.543V155.376H137.355L136.887 155.664C136.895 155.256 136.811 154.892 136.635 154.572C136.459 154.252 136.215 154.004 135.903 153.828C135.599 153.644 135.243 153.552 134.835 153.552C134.435 153.552 134.079 153.644 133.767 153.828C133.455 154.004 133.211 154.256 133.035 154.584C132.859 154.904 132.771 155.272 132.771 155.688V155.88C132.771 156.304 132.867 156.684 133.059 157.02C133.259 157.348 133.535 157.604 133.887 157.788C134.239 157.972 134.643 158.064 135.099 158.064C135.475 158.064 135.815 158 136.119 157.872C136.431 157.744 136.703 157.552 136.935 157.296L137.571 158.04C137.283 158.376 136.923 158.632 136.491 158.808C136.067 158.984 135.591 159.072 135.063 159.072ZM139.854 159.072C139.63 159.072 139.438 158.996 139.278 158.844C139.118 158.684 139.038 158.484 139.038 158.244C139.038 158.004 139.118 157.808 139.278 157.656C139.438 157.504 139.63 157.428 139.854 157.428C140.07 157.428 140.254 157.504 140.406 157.656C140.566 157.808 140.646 158.004 140.646 158.244C140.646 158.484 140.566 158.684 140.406 158.844C140.254 158.996 140.07 159.072 139.854 159.072Z" fill="#008E86"/>
<path d="M67.9995 66.5L90.4995 64.5004L90.4995 89L67.9995 66.5Z" fill="#00D8CC" stroke="#00635D" stroke-width="2" stroke-linejoin="round"/>
<path d="M90.5005 64L113 66.4996L90.5001 88.9996L90.5005 64Z" fill="#00D8CC" stroke="#00635D" stroke-width="2" stroke-linejoin="round"/>
<path d="M67.9995 66.5L81.4991 53.0004L90.4995 53.0004L90.4995 65L72.4995 71L67.9995 66.5Z" fill="#00D8CC" stroke="#00635D" stroke-width="2" stroke-linejoin="round"/>
<path d="M90.4995 53.0001L99.9992 53.0001L112.999 66.4997L108.499 70.9997L90.4992 64.9997L90.4995 53.0001Z" fill="#00D8CC" stroke="#00635D" stroke-width="2" stroke-linejoin="round"/>
<path d="M100 80L81 80" stroke="#333333" stroke-width="2" stroke-dasharray="4 4"/>
<path d="M91 65L73 71L73 47L91 65Z" fill="#00D8CC" stroke="#00635D" stroke-width="2" stroke-linejoin="round"/>
<path d="M108 71.5L90 65L108 47L108 71.5Z" fill="#00D8CC" stroke="#00635D" stroke-width="2" stroke-linejoin="round"/>
<path d="M134.315 60.9677C133.763 60.9677 133.315 61.4154 133.315 61.9677L133.315 70.9677C133.315 71.52 133.763 71.9677 134.315 71.9677C134.868 71.9678 135.315 71.52 135.315 70.9678L135.315 62.9678L143.315 62.9679C143.868 62.9679 144.315 62.5202 144.315 61.9679C144.315 61.4156 143.868 60.9679 143.315 60.9679L134.315 60.9677ZM129.359 82.8706L129.359 81.8706H129.359L129.359 82.8706ZM114.55 75.4832C114.16 75.0927 113.527 75.0927 113.136 75.4832C112.746 75.8737 112.746 76.5069 113.136 76.8974L114.55 75.4832ZM133.608 62.6748C138.439 67.5054 138.982 72.3231 137.612 75.8557C136.211 79.4682 132.786 81.8706 129.359 81.8706L129.359 83.8706C133.689 83.8706 137.806 80.8858 139.477 76.5788C141.178 72.192 140.32 66.5583 135.023 61.2606L133.608 62.6748ZM129.359 81.8706C126.755 81.8706 124.789 80.6692 123.378 78.8C121.946 76.9034 121.095 74.3197 120.842 71.6775C120.589 69.0323 120.947 66.443 121.809 64.5594C122.671 62.679 123.932 61.6748 125.48 61.6748L125.48 59.6748C122.858 59.6748 121.036 61.4451 119.991 63.7264C118.948 66.0045 118.574 68.9641 118.851 71.8679C119.129 74.7746 120.071 77.7399 121.781 80.005C123.512 82.2976 126.036 83.8706 129.359 83.8706L129.359 81.8706ZM125.48 61.6748C126.616 61.6748 127.436 62.0481 128.036 62.6378C128.654 63.2464 129.105 64.1524 129.346 65.3045C129.833 67.6232 129.416 70.6808 128.226 73.36C127.03 76.0517 125.158 78.1381 122.928 78.8085C120.782 79.4537 117.951 78.8833 114.55 75.4832L113.136 76.8974C116.847 80.6085 120.408 81.6544 123.504 80.7238C126.516 79.8184 128.737 77.137 130.054 74.172C131.377 71.1945 131.894 67.7065 131.304 64.8938C131.007 63.4802 130.416 62.174 129.438 61.2119C128.441 60.2308 127.107 59.6748 125.48 59.6748L125.48 61.6748Z" fill="black"/>
<path d="M87.7712 92.4356C88.1522 92.0358 88.1371 91.4028 87.7373 91.0218L81.2225 84.8123C80.8227 84.4312 80.1897 84.4464 79.8087 84.8462C79.4276 85.246 79.4428 85.879 79.8426 86.26L85.6335 91.7796L80.114 97.5705C79.7329 97.9702 79.7481 98.6032 80.1479 98.9843C80.5477 99.3653 81.1807 99.3501 81.5617 98.9504L87.7712 92.4356ZM73.3015 77.0241C73.3148 76.472 72.8779 76.0136 72.3258 76.0004C71.7737 75.9871 71.3153 76.424 71.3021 76.9761L73.3015 77.0241ZM87.0233 90.7459C82.8617 90.8458 79.502 89.3886 77.1113 86.9978L75.6971 88.4121C78.4888 91.2038 82.3831 92.8578 87.0713 92.7453L87.0233 90.7459ZM77.1113 86.9978C75.9535 85.84 74.9738 84.0989 74.2927 82.2245C73.6124 80.3522 73.2673 78.4498 73.3015 77.0241L71.3021 76.9761C71.2605 78.7111 71.6709 80.8654 72.4129 82.9076C73.1542 84.9476 74.2636 86.9786 75.6971 88.4121L77.1113 86.9978Z" fill="black"/>
</g>
<defs>
<clipPath id="clip0_18_778">
<rect width="180" height="180" rx="20" fill="white"/>
</clipPath>
<clipPath id="clip1_18_778">
<path d="M0 30L-1.31134e-06 0L30 -1.31134e-06L30 10C30 21.0457 21.0457 30 10 30L0 30Z" fill="white"/>
</clipPath>
</defs>
</svg>
