<svg width="180" height="180" viewBox="0 0 180 180" fill="none" xmlns="http://www.w3.org/2000/svg">
<g clip-path="url(#clip0_18_803)">
<rect width="180" height="180" rx="20" fill="#F2F2F2"/>
<g clip-path="url(#clip1_18_803)">
<path d="M0 30L-1.31134e-06 0L30 -1.31134e-06L30 10C30 21.0457 21.0457 30 10 30L0 30Z" fill="#333333"/>
<path d="M15.9223 13.976C16.6369 13.976 17.2876 14.12 17.8743 14.408C18.4609 14.696 18.9249 15.1067 19.2663 15.64C19.6076 16.1627 19.7783 16.7707 19.7783 17.464C19.7783 18.2107 19.5916 18.8667 19.2183 19.432C18.8449 19.9973 18.3329 20.4347 17.6823 20.744C17.0423 21.0427 16.3276 21.192 15.5383 21.192C13.9703 21.192 12.7436 20.712 11.8583 19.752C10.9729 18.792 10.5303 17.4213 10.5303 15.64C10.5303 14.3707 10.7703 13.2827 11.2503 12.376C11.7303 11.4693 12.3969 10.7813 13.2503 10.312C14.1143 9.84267 15.1116 9.608 16.2423 9.608C16.8396 9.608 17.4103 9.67733 17.9543 9.816C18.5089 9.944 18.9783 10.1307 19.3623 10.376L18.4023 12.28C17.8476 11.9067 17.1489 11.72 16.3063 11.72C15.3569 11.72 14.6049 11.9973 14.0503 12.552C13.4956 13.1067 13.1969 13.912 13.1543 14.968C13.8156 14.3067 14.7383 13.976 15.9223 13.976ZM15.3943 19.256C15.9489 19.256 16.3969 19.1067 16.7383 18.808C17.0903 18.5093 17.2663 18.104 17.2663 17.592C17.2663 17.08 17.0903 16.6747 16.7383 16.376C16.3969 16.0667 15.9383 15.912 15.3623 15.912C14.7969 15.912 14.3329 16.072 13.9703 16.392C13.6076 16.7013 13.4263 17.1013 13.4263 17.592C13.4263 18.0827 13.6023 18.4827 13.9543 18.792C14.3063 19.1013 14.7863 19.256 15.3943 19.256Z" fill="#F2F2F2"/>
</g>
<path d="M26.3752 124.572H30.7072V125.604H26.3752V124.572ZM26.4952 129H25.2952V120.6H31.2232V121.644H26.4952V129ZM35.2691 129.072C34.6291 129.072 34.0611 128.932 33.5651 128.652C33.0691 128.372 32.6771 127.988 32.3891 127.5C32.1011 127.004 31.9571 126.444 31.9571 125.82C31.9571 125.188 32.1011 124.628 32.3891 124.14C32.6771 123.652 33.0691 123.272 33.5651 123C34.0611 122.72 34.6291 122.58 35.2691 122.58C35.9011 122.58 36.4651 122.72 36.9611 123C37.4651 123.272 37.8571 123.652 38.1371 124.14C38.4251 124.62 38.5691 125.18 38.5691 125.82C38.5691 126.452 38.4251 127.012 38.1371 127.5C37.8571 127.988 37.4651 128.372 36.9611 128.652C36.4651 128.932 35.9011 129.072 35.2691 129.072ZM35.2691 128.064C35.6771 128.064 36.0411 127.972 36.3611 127.788C36.6891 127.604 36.9451 127.344 37.1291 127.008C37.3131 126.664 37.4051 126.268 37.4051 125.82C37.4051 125.364 37.3131 124.972 37.1291 124.644C36.9451 124.308 36.6891 124.048 36.3611 123.864C36.0411 123.68 35.6771 123.588 35.2691 123.588C34.8611 123.588 34.4971 123.68 34.1771 123.864C33.8571 124.048 33.6011 124.308 33.4091 124.644C33.2171 124.972 33.1211 125.364 33.1211 125.82C33.1211 126.268 33.2171 126.664 33.4091 127.008C33.6011 127.344 33.8571 127.604 34.1771 127.788C34.4971 127.972 34.8611 128.064 35.2691 128.064ZM40.1623 129V120.096H41.3143V129H40.1623ZM46.1419 129.072C45.5259 129.072 44.9739 128.936 44.4859 128.664C44.0059 128.392 43.6259 128.012 43.3459 127.524C43.0659 127.036 42.9259 126.468 42.9259 125.82C42.9259 125.172 43.0659 124.608 43.3459 124.128C43.6259 123.64 44.0059 123.26 44.4859 122.988C44.9739 122.716 45.5259 122.58 46.1419 122.58C46.6779 122.58 47.1619 122.7 47.5939 122.94C48.0259 123.18 48.3699 123.54 48.6259 124.02C48.8899 124.5 49.0219 125.1 49.0219 125.82C49.0219 126.54 48.8939 127.14 48.6379 127.62C48.3899 128.1 48.0499 128.464 47.6179 128.712C47.1859 128.952 46.6939 129.072 46.1419 129.072ZM46.2379 128.064C46.6379 128.064 46.9979 127.972 47.3179 127.788C47.6459 127.604 47.9019 127.344 48.0859 127.008C48.2779 126.664 48.3739 126.268 48.3739 125.82C48.3739 125.364 48.2779 124.972 48.0859 124.644C47.9019 124.308 47.6459 124.048 47.3179 123.864C46.9979 123.68 46.6379 123.588 46.2379 123.588C45.8299 123.588 45.4659 123.68 45.1459 123.864C44.8259 124.048 44.5699 124.308 44.3779 124.644C44.1859 124.972 44.0899 125.364 44.0899 125.82C44.0899 126.268 44.1859 126.664 44.3779 127.008C44.5699 127.344 44.8259 127.604 45.1459 127.788C45.4659 127.972 45.8299 128.064 46.2379 128.064ZM48.4099 129V127.284L48.4819 125.808L48.3619 124.332V120.096H49.5139V129H48.4099ZM57.1002 129.072C56.4602 129.072 55.9642 128.9 55.6122 128.556C55.2602 128.212 55.0842 127.72 55.0842 127.08V121.248H56.2362V127.032C56.2362 127.376 56.3202 127.64 56.4882 127.824C56.6642 128.008 56.9122 128.1 57.2322 128.1C57.5922 128.1 57.8922 128 58.1322 127.8L58.4922 128.628C58.3162 128.78 58.1042 128.892 57.8562 128.964C57.6162 129.036 57.3642 129.072 57.1002 129.072ZM54.0042 123.588V122.64H58.0602V123.588H54.0042ZM63.281 122.58C63.801 122.58 64.257 122.68 64.649 122.88C65.049 123.08 65.361 123.384 65.585 123.792C65.809 124.2 65.921 124.716 65.921 125.34V129H64.769V125.472C64.769 124.856 64.617 124.392 64.313 124.08C64.017 123.768 63.597 123.612 63.053 123.612C62.645 123.612 62.289 123.692 61.985 123.852C61.681 124.012 61.445 124.248 61.277 124.56C61.117 124.872 61.037 125.26 61.037 125.724V129H59.885V120.096H61.037V124.356L60.809 123.9C61.017 123.484 61.337 123.16 61.769 122.928C62.201 122.696 62.705 122.58 63.281 122.58ZM70.8849 129.072C70.2049 129.072 69.6049 128.932 69.0849 128.652C68.5729 128.372 68.1729 127.988 67.8849 127.5C67.6049 127.012 67.4649 126.452 67.4649 125.82C67.4649 125.188 67.6009 124.628 67.8729 124.14C68.1529 123.652 68.5329 123.272 69.0129 123C69.5009 122.72 70.0489 122.58 70.6569 122.58C71.2729 122.58 71.8169 122.716 72.2889 122.988C72.7609 123.26 73.1289 123.644 73.3929 124.14C73.6649 124.628 73.8009 125.2 73.8009 125.856C73.8009 125.904 73.7969 125.96 73.7889 126.024C73.7889 126.088 73.7849 126.148 73.7769 126.204H68.3649V125.376H73.1769L72.7089 125.664C72.7169 125.256 72.6329 124.892 72.4569 124.572C72.2809 124.252 72.0369 124.004 71.7249 123.828C71.4209 123.644 71.0649 123.552 70.6569 123.552C70.2569 123.552 69.9009 123.644 69.5889 123.828C69.2769 124.004 69.0329 124.256 68.8569 124.584C68.6809 124.904 68.5929 125.272 68.5929 125.688V125.88C68.5929 126.304 68.6889 126.684 68.8809 127.02C69.0809 127.348 69.3569 127.604 69.7089 127.788C70.0609 127.972 70.4649 128.064 70.9209 128.064C71.2969 128.064 71.6369 128 71.9409 127.872C72.2529 127.744 72.5249 127.552 72.7569 127.296L73.3929 128.04C73.1049 128.376 72.7449 128.632 72.3129 128.808C71.8889 128.984 71.4129 129.072 70.8849 129.072ZM81.3953 129.072C80.7473 129.072 80.1673 128.932 79.6553 128.652C79.1513 128.372 78.7553 127.988 78.4673 127.5C78.1793 127.012 78.0353 126.452 78.0353 125.82C78.0353 125.188 78.1793 124.628 78.4673 124.14C78.7553 123.652 79.1513 123.272 79.6553 123C80.1673 122.72 80.7473 122.58 81.3953 122.58C81.9713 122.58 82.4833 122.696 82.9313 122.928C83.3873 123.152 83.7393 123.488 83.9873 123.936L83.1113 124.5C82.9033 124.188 82.6473 123.96 82.3433 123.816C82.0473 123.664 81.7273 123.588 81.3833 123.588C80.9673 123.588 80.5953 123.68 80.2673 123.864C79.9393 124.048 79.6793 124.308 79.4873 124.644C79.2953 124.972 79.1993 125.364 79.1993 125.82C79.1993 126.276 79.2953 126.672 79.4873 127.008C79.6793 127.344 79.9393 127.604 80.2673 127.788C80.5953 127.972 80.9673 128.064 81.3833 128.064C81.7273 128.064 82.0473 127.992 82.3433 127.848C82.6473 127.696 82.9033 127.464 83.1113 127.152L83.9873 127.704C83.7393 128.144 83.3873 128.484 82.9313 128.724C82.4833 128.956 81.9713 129.072 81.3953 129.072ZM88.109 129.072C87.469 129.072 86.901 128.932 86.405 128.652C85.909 128.372 85.517 127.988 85.229 127.5C84.941 127.004 84.797 126.444 84.797 125.82C84.797 125.188 84.941 124.628 85.229 124.14C85.517 123.652 85.909 123.272 86.405 123C86.901 122.72 87.469 122.58 88.109 122.58C88.741 122.58 89.305 122.72 89.801 123C90.305 123.272 90.697 123.652 90.977 124.14C91.265 124.62 91.409 125.18 91.409 125.82C91.409 126.452 91.265 127.012 90.977 127.5C90.697 127.988 90.305 128.372 89.801 128.652C89.305 128.932 88.741 129.072 88.109 129.072ZM88.109 128.064C88.517 128.064 88.881 127.972 89.201 127.788C89.529 127.604 89.785 127.344 89.969 127.008C90.153 126.664 90.245 126.268 90.245 125.82C90.245 125.364 90.153 124.972 89.969 124.644C89.785 124.308 89.529 124.048 89.201 123.864C88.881 123.68 88.517 123.588 88.109 123.588C87.701 123.588 87.337 123.68 87.017 123.864C86.697 124.048 86.441 124.308 86.249 124.644C86.057 124.972 85.961 125.364 85.961 125.82C85.961 126.268 86.057 126.664 86.249 127.008C86.441 127.344 86.697 127.604 87.017 127.788C87.337 127.972 87.701 128.064 88.109 128.064ZM93.0022 129V122.64H94.1062V124.368L93.9982 123.936C94.1742 123.496 94.4702 123.16 94.8862 122.928C95.3022 122.696 95.8142 122.58 96.4222 122.58V123.696C96.3742 123.688 96.3262 123.684 96.2782 123.684C96.2382 123.684 96.1982 123.684 96.1582 123.684C95.5422 123.684 95.0542 123.868 94.6942 124.236C94.3342 124.604 94.1542 125.136 94.1542 125.832V129H93.0022ZM101.238 122.58C101.758 122.58 102.214 122.68 102.606 122.88C103.006 123.08 103.318 123.384 103.542 123.792C103.766 124.2 103.878 124.716 103.878 125.34V129H102.726V125.472C102.726 124.856 102.574 124.392 102.27 124.08C101.974 123.768 101.554 123.612 101.01 123.612C100.602 123.612 100.246 123.692 99.942 123.852C99.638 124.012 99.402 124.248 99.234 124.56C99.074 124.872 98.994 125.26 98.994 125.724V129H97.842V122.64H98.946V124.356L98.766 123.9C98.974 123.484 99.294 123.16 99.726 122.928C100.158 122.696 100.662 122.58 101.238 122.58ZM108.842 129.072C108.162 129.072 107.562 128.932 107.042 128.652C106.53 128.372 106.13 127.988 105.842 127.5C105.562 127.012 105.422 126.452 105.422 125.82C105.422 125.188 105.558 124.628 105.83 124.14C106.11 123.652 106.49 123.272 106.97 123C107.458 122.72 108.006 122.58 108.614 122.58C109.23 122.58 109.774 122.716 110.246 122.988C110.718 123.26 111.086 123.644 111.35 124.14C111.622 124.628 111.758 125.2 111.758 125.856C111.758 125.904 111.754 125.96 111.746 126.024C111.746 126.088 111.742 126.148 111.734 126.204H106.322V125.376H111.134L110.666 125.664C110.674 125.256 110.59 124.892 110.414 124.572C110.238 124.252 109.994 124.004 109.682 123.828C109.378 123.644 109.022 123.552 108.614 123.552C108.214 123.552 107.858 123.644 107.546 123.828C107.234 124.004 106.99 124.256 106.814 124.584C106.638 124.904 106.55 125.272 106.55 125.688V125.88C106.55 126.304 106.646 126.684 106.838 127.02C107.038 127.348 107.314 127.604 107.666 127.788C108.018 127.972 108.422 128.064 108.878 128.064C109.254 128.064 109.594 128 109.898 127.872C110.21 127.744 110.482 127.552 110.714 127.296L111.35 128.04C111.062 128.376 110.702 128.632 110.27 128.808C109.846 128.984 109.37 129.072 108.842 129.072ZM113.358 129V122.64H114.462V124.368L114.354 123.936C114.53 123.496 114.826 123.16 115.242 122.928C115.658 122.696 116.17 122.58 116.778 122.58V123.696C116.73 123.688 116.682 123.684 116.634 123.684C116.594 123.684 116.554 123.684 116.514 123.684C115.898 123.684 115.41 123.868 115.05 124.236C114.69 124.604 114.51 125.136 114.51 125.832V129H113.358ZM124.226 129.072C123.586 129.072 123.018 128.932 122.522 128.652C122.026 128.372 121.634 127.988 121.346 127.5C121.058 127.004 120.914 126.444 120.914 125.82C120.914 125.188 121.058 124.628 121.346 124.14C121.634 123.652 122.026 123.272 122.522 123C123.018 122.72 123.586 122.58 124.226 122.58C124.858 122.58 125.422 122.72 125.918 123C126.422 123.272 126.814 123.652 127.094 124.14C127.382 124.62 127.526 125.18 127.526 125.82C127.526 126.452 127.382 127.012 127.094 127.5C126.814 127.988 126.422 128.372 125.918 128.652C125.422 128.932 124.858 129.072 124.226 129.072ZM124.226 128.064C124.634 128.064 124.998 127.972 125.318 127.788C125.646 127.604 125.902 127.344 126.086 127.008C126.27 126.664 126.362 126.268 126.362 125.82C126.362 125.364 126.27 124.972 126.086 124.644C125.902 124.308 125.646 124.048 125.318 123.864C124.998 123.68 124.634 123.588 124.226 123.588C123.818 123.588 123.454 123.68 123.134 123.864C122.814 124.048 122.558 124.308 122.366 124.644C122.174 124.972 122.078 125.364 122.078 125.82C122.078 126.268 122.174 126.664 122.366 127.008C122.558 127.344 122.814 127.604 123.134 127.788C123.454 127.972 123.818 128.064 124.226 128.064ZM129.287 129V122.076C129.287 121.452 129.467 120.956 129.827 120.588C130.195 120.212 130.715 120.024 131.387 120.024C131.635 120.024 131.871 120.056 132.095 120.12C132.327 120.176 132.523 120.268 132.683 120.396L132.335 121.272C132.215 121.176 132.079 121.104 131.927 121.056C131.775 121 131.615 120.972 131.447 120.972C131.111 120.972 130.855 121.068 130.679 121.26C130.503 121.444 130.415 121.72 130.415 122.088V122.94L130.439 123.468V129H129.287ZM128.207 123.588V122.64H132.263V123.588H128.207ZM138.756 129.072C138.116 129.072 137.62 128.9 137.268 128.556C136.916 128.212 136.74 127.72 136.74 127.08V121.248H137.892V127.032C137.892 127.376 137.976 127.64 138.144 127.824C138.32 128.008 138.568 128.1 138.888 128.1C139.248 128.1 139.548 128 139.788 127.8L140.148 128.628C139.972 128.78 139.76 128.892 139.512 128.964C139.272 129.036 139.02 129.072 138.756 129.072ZM135.66 123.588V122.64H139.716V123.588H135.66ZM144.937 122.58C145.457 122.58 145.913 122.68 146.305 122.88C146.705 123.08 147.017 123.384 147.241 123.792C147.465 124.2 147.577 124.716 147.577 125.34V129H146.425V125.472C146.425 124.856 146.273 124.392 145.969 124.08C145.673 123.768 145.253 123.612 144.709 123.612C144.301 123.612 143.945 123.692 143.641 123.852C143.337 124.012 143.101 124.248 142.933 124.56C142.773 124.872 142.693 125.26 142.693 125.724V129H141.541V120.096H142.693V124.356L142.465 123.9C142.673 123.484 142.993 123.16 143.425 122.928C143.857 122.696 144.361 122.58 144.937 122.58ZM152.541 129.072C151.861 129.072 151.261 128.932 150.741 128.652C150.229 128.372 149.829 127.988 149.541 127.5C149.261 127.012 149.121 126.452 149.121 125.82C149.121 125.188 149.257 124.628 149.529 124.14C149.809 123.652 150.189 123.272 150.669 123C151.157 122.72 151.705 122.58 152.313 122.58C152.929 122.58 153.473 122.716 153.945 122.988C154.417 123.26 154.785 123.644 155.049 124.14C155.321 124.628 155.457 125.2 155.457 125.856C155.457 125.904 155.453 125.96 155.445 126.024C155.445 126.088 155.441 126.148 155.433 126.204H150.021V125.376H154.833L154.365 125.664C154.373 125.256 154.289 124.892 154.113 124.572C153.937 124.252 153.693 124.004 153.381 123.828C153.077 123.644 152.721 123.552 152.313 123.552C151.913 123.552 151.557 123.644 151.245 123.828C150.933 124.004 150.689 124.256 150.513 124.584C150.337 124.904 150.249 125.272 150.249 125.688V125.88C150.249 126.304 150.345 126.684 150.537 127.02C150.737 127.348 151.013 127.604 151.365 127.788C151.717 127.972 152.121 128.064 152.577 128.064C152.953 128.064 153.293 128 153.597 127.872C153.909 127.744 154.181 127.552 154.413 127.296L155.049 128.04C154.761 128.376 154.401 128.632 153.969 128.808C153.545 128.984 153.069 129.072 152.541 129.072ZM34.3292 144.072C33.7852 144.072 33.2932 143.952 32.8532 143.712C32.4212 143.464 32.0772 143.1 31.8212 142.62C31.5732 142.14 31.4492 141.54 31.4492 140.82C31.4492 140.1 31.5772 139.5 31.8332 139.02C32.0972 138.54 32.4452 138.18 32.8772 137.94C33.3172 137.7 33.8012 137.58 34.3292 137.58C34.9532 137.58 35.5052 137.716 35.9852 137.988C36.4652 138.26 36.8452 138.64 37.1252 139.128C37.4052 139.608 37.5452 140.172 37.5452 140.82C37.5452 141.468 37.4052 142.036 37.1252 142.524C36.8452 143.012 36.4652 143.392 35.9852 143.664C35.5052 143.936 34.9532 144.072 34.3292 144.072ZM30.9572 144V135.096H32.1092V139.332L31.9892 140.808L32.0612 142.284V144H30.9572ZM34.2332 143.064C34.6412 143.064 35.0052 142.972 35.3252 142.788C35.6532 142.604 35.9092 142.344 36.0932 142.008C36.2852 141.664 36.3812 141.268 36.3812 140.82C36.3812 140.364 36.2852 139.972 36.0932 139.644C35.9092 139.308 35.6532 139.048 35.3252 138.864C35.0052 138.68 34.6412 138.588 34.2332 138.588C33.8332 138.588 33.4692 138.68 33.1412 138.864C32.8212 139.048 32.5652 139.308 32.3732 139.644C32.1892 139.972 32.0972 140.364 32.0972 140.82C32.0972 141.268 32.1892 141.664 32.3732 142.008C32.5652 142.344 32.8212 142.604 33.1412 142.788C33.4692 142.972 33.8332 143.064 34.2332 143.064ZM41.8609 144.072C41.2209 144.072 40.6529 143.932 40.1569 143.652C39.6609 143.372 39.2689 142.988 38.9809 142.5C38.6929 142.004 38.5489 141.444 38.5489 140.82C38.5489 140.188 38.6929 139.628 38.9809 139.14C39.2689 138.652 39.6609 138.272 40.1569 138C40.6529 137.72 41.2209 137.58 41.8609 137.58C42.4929 137.58 43.0569 137.72 43.5529 138C44.0569 138.272 44.4489 138.652 44.7289 139.14C45.0169 139.62 45.1609 140.18 45.1609 140.82C45.1609 141.452 45.0169 142.012 44.7289 142.5C44.4489 142.988 44.0569 143.372 43.5529 143.652C43.0569 143.932 42.4929 144.072 41.8609 144.072ZM41.8609 143.064C42.2689 143.064 42.6329 142.972 42.9529 142.788C43.2809 142.604 43.5369 142.344 43.7209 142.008C43.9049 141.664 43.9969 141.268 43.9969 140.82C43.9969 140.364 43.9049 139.972 43.7209 139.644C43.5369 139.308 43.2809 139.048 42.9529 138.864C42.6329 138.68 42.2689 138.588 41.8609 138.588C41.4529 138.588 41.0889 138.68 40.7689 138.864C40.4489 139.048 40.1929 139.308 40.0009 139.644C39.8089 139.972 39.7129 140.364 39.7129 140.82C39.7129 141.268 39.8089 141.664 40.0009 142.008C40.1929 142.344 40.4489 142.604 40.7689 142.788C41.0889 142.972 41.4529 143.064 41.8609 143.064ZM48.9381 144.072C48.2981 144.072 47.8021 143.9 47.4501 143.556C47.0981 143.212 46.9221 142.72 46.9221 142.08V136.248H48.0741V142.032C48.0741 142.376 48.1581 142.64 48.3261 142.824C48.5021 143.008 48.7501 143.1 49.0701 143.1C49.4301 143.1 49.7301 143 49.9701 142.8L50.3301 143.628C50.1541 143.78 49.9421 143.892 49.6941 143.964C49.4541 144.036 49.2021 144.072 48.9381 144.072ZM45.8421 138.588V137.64H49.8981V138.588H45.8421ZM53.7545 144.072C53.1145 144.072 52.6185 143.9 52.2665 143.556C51.9145 143.212 51.7385 142.72 51.7385 142.08V136.248H52.8905V142.032C52.8905 142.376 52.9745 142.64 53.1425 142.824C53.3185 143.008 53.5665 143.1 53.8865 143.1C54.2465 143.1 54.5465 143 54.7865 142.8L55.1465 143.628C54.9705 143.78 54.7585 143.892 54.5105 143.964C54.2705 144.036 54.0185 144.072 53.7545 144.072ZM50.6585 138.588V137.64H54.7145V138.588H50.6585ZM59.0523 144.072C58.4123 144.072 57.8443 143.932 57.3483 143.652C56.8523 143.372 56.4603 142.988 56.1723 142.5C55.8843 142.004 55.7403 141.444 55.7403 140.82C55.7403 140.188 55.8843 139.628 56.1723 139.14C56.4603 138.652 56.8523 138.272 57.3483 138C57.8443 137.72 58.4123 137.58 59.0523 137.58C59.6843 137.58 60.2483 137.72 60.7443 138C61.2483 138.272 61.6403 138.652 61.9203 139.14C62.2083 139.62 62.3523 140.18 62.3523 140.82C62.3523 141.452 62.2083 142.012 61.9203 142.5C61.6403 142.988 61.2483 143.372 60.7443 143.652C60.2483 143.932 59.6843 144.072 59.0523 144.072ZM59.0523 143.064C59.4603 143.064 59.8243 142.972 60.1443 142.788C60.4723 142.604 60.7283 142.344 60.9123 142.008C61.0963 141.664 61.1883 141.268 61.1883 140.82C61.1883 140.364 61.0963 139.972 60.9123 139.644C60.7283 139.308 60.4723 139.048 60.1443 138.864C59.8243 138.68 59.4603 138.588 59.0523 138.588C58.6443 138.588 58.2803 138.68 57.9603 138.864C57.6403 139.048 57.3843 139.308 57.1923 139.644C57.0003 139.972 56.9043 140.364 56.9043 140.82C56.9043 141.268 57.0003 141.664 57.1923 142.008C57.3843 142.344 57.6403 142.604 57.9603 142.788C58.2803 142.972 58.6443 143.064 59.0523 143.064ZM71.9015 137.58C72.4135 137.58 72.8655 137.68 73.2575 137.88C73.6495 138.08 73.9535 138.384 74.1695 138.792C74.3935 139.2 74.5055 139.716 74.5055 140.34V144H73.3535V140.472C73.3535 139.856 73.2095 139.392 72.9215 139.08C72.6335 138.768 72.2295 138.612 71.7095 138.612C71.3255 138.612 70.9895 138.692 70.7015 138.852C70.4135 139.012 70.1895 139.248 70.0295 139.56C69.8775 139.872 69.8015 140.26 69.8015 140.724V144H68.6495V140.472C68.6495 139.856 68.5055 139.392 68.2175 139.08C67.9375 138.768 67.5335 138.612 67.0055 138.612C66.6295 138.612 66.2975 138.692 66.0095 138.852C65.7215 139.012 65.4975 139.248 65.3375 139.56C65.1775 139.872 65.0975 140.26 65.0975 140.724V144H63.9455V137.64H65.0495V139.332L64.8695 138.9C65.0695 138.484 65.3775 138.16 65.7935 137.928C66.2095 137.696 66.6935 137.58 67.2455 137.58C67.8535 137.58 68.3775 137.732 68.8175 138.036C69.2575 138.332 69.5455 138.784 69.6815 139.392L69.2135 139.2C69.4055 138.712 69.7415 138.32 70.2215 138.024C70.7015 137.728 71.2615 137.58 71.9015 137.58ZM80.0159 144V137.076C80.0159 136.452 80.1959 135.956 80.5559 135.588C80.9239 135.212 81.4439 135.024 82.1159 135.024C82.3639 135.024 82.5999 135.056 82.8239 135.12C83.0559 135.176 83.2519 135.268 83.4119 135.396L83.0639 136.272C82.9439 136.176 82.8079 136.104 82.6559 136.056C82.5039 136 82.3439 135.972 82.1759 135.972C81.8399 135.972 81.5839 136.068 81.4079 136.26C81.2319 136.444 81.1439 136.72 81.1439 137.088V137.94L81.1679 138.468V144H80.0159ZM78.9359 138.588V137.64H82.9919V138.588H78.9359ZM86.7086 144.072C86.0686 144.072 85.5006 143.932 85.0046 143.652C84.5086 143.372 84.1166 142.988 83.8286 142.5C83.5406 142.004 83.3966 141.444 83.3966 140.82C83.3966 140.188 83.5406 139.628 83.8286 139.14C84.1166 138.652 84.5086 138.272 85.0046 138C85.5006 137.72 86.0686 137.58 86.7086 137.58C87.3406 137.58 87.9046 137.72 88.4006 138C88.9046 138.272 89.2966 138.652 89.5766 139.14C89.8646 139.62 90.0086 140.18 90.0086 140.82C90.0086 141.452 89.8646 142.012 89.5766 142.5C89.2966 142.988 88.9046 143.372 88.4006 143.652C87.9046 143.932 87.3406 144.072 86.7086 144.072ZM86.7086 143.064C87.1166 143.064 87.4806 142.972 87.8006 142.788C88.1286 142.604 88.3846 142.344 88.5686 142.008C88.7526 141.664 88.8446 141.268 88.8446 140.82C88.8446 140.364 88.7526 139.972 88.5686 139.644C88.3846 139.308 88.1286 139.048 87.8006 138.864C87.4806 138.68 87.1166 138.588 86.7086 138.588C86.3006 138.588 85.9366 138.68 85.6166 138.864C85.2966 139.048 85.0406 139.308 84.8486 139.644C84.6566 139.972 84.5606 140.364 84.5606 140.82C84.5606 141.268 84.6566 141.664 84.8486 142.008C85.0406 142.344 85.2966 142.604 85.6166 142.788C85.9366 142.972 86.3006 143.064 86.7086 143.064ZM91.6018 144V135.096H92.7538V144H91.6018ZM97.5813 144.072C96.9653 144.072 96.4133 143.936 95.9253 143.664C95.4453 143.392 95.0653 143.012 94.7853 142.524C94.5053 142.036 94.3653 141.468 94.3653 140.82C94.3653 140.172 94.5053 139.608 94.7853 139.128C95.0653 138.64 95.4453 138.26 95.9253 137.988C96.4133 137.716 96.9653 137.58 97.5813 137.58C98.1173 137.58 98.6013 137.7 99.0333 137.94C99.4653 138.18 99.8093 138.54 100.065 139.02C100.329 139.5 100.461 140.1 100.461 140.82C100.461 141.54 100.333 142.14 100.077 142.62C99.8293 143.1 99.4893 143.464 99.0573 143.712C98.6253 143.952 98.1333 144.072 97.5813 144.072ZM97.6773 143.064C98.0773 143.064 98.4373 142.972 98.7573 142.788C99.0853 142.604 99.3413 142.344 99.5253 142.008C99.7173 141.664 99.8133 141.268 99.8133 140.82C99.8133 140.364 99.7173 139.972 99.5253 139.644C99.3413 139.308 99.0853 139.048 98.7573 138.864C98.4373 138.68 98.0773 138.588 97.6773 138.588C97.2693 138.588 96.9053 138.68 96.5853 138.864C96.2653 139.048 96.0093 139.308 95.8173 139.644C95.6253 139.972 95.5293 140.364 95.5293 140.82C95.5293 141.268 95.6253 141.664 95.8173 142.008C96.0093 142.344 96.2653 142.604 96.5853 142.788C96.9053 142.972 97.2693 143.064 97.6773 143.064ZM99.8493 144V142.284L99.9213 140.808L99.8013 139.332V135.096H100.953V144H99.8493ZM108.54 144.072C107.9 144.072 107.404 143.9 107.052 143.556C106.7 143.212 106.524 142.72 106.524 142.08V136.248H107.676V142.032C107.676 142.376 107.76 142.64 107.928 142.824C108.104 143.008 108.352 143.1 108.672 143.1C109.032 143.1 109.332 143 109.572 142.8L109.932 143.628C109.756 143.78 109.544 143.892 109.296 143.964C109.056 144.036 108.804 144.072 108.54 144.072ZM105.444 138.588V137.64H109.5V138.588H105.444ZM113.837 144.072C113.197 144.072 112.629 143.932 112.133 143.652C111.637 143.372 111.245 142.988 110.957 142.5C110.669 142.004 110.525 141.444 110.525 140.82C110.525 140.188 110.669 139.628 110.957 139.14C111.245 138.652 111.637 138.272 112.133 138C112.629 137.72 113.197 137.58 113.837 137.58C114.469 137.58 115.033 137.72 115.529 138C116.033 138.272 116.425 138.652 116.705 139.14C116.993 139.62 117.137 140.18 117.137 140.82C117.137 141.452 116.993 142.012 116.705 142.5C116.425 142.988 116.033 143.372 115.529 143.652C115.033 143.932 114.469 144.072 113.837 144.072ZM113.837 143.064C114.245 143.064 114.609 142.972 114.929 142.788C115.257 142.604 115.513 142.344 115.697 142.008C115.881 141.664 115.973 141.268 115.973 140.82C115.973 140.364 115.881 139.972 115.697 139.644C115.513 139.308 115.257 139.048 114.929 138.864C114.609 138.68 114.245 138.588 113.837 138.588C113.429 138.588 113.065 138.68 112.745 138.864C112.425 139.048 112.169 139.308 111.977 139.644C111.785 139.972 111.689 140.364 111.689 140.82C111.689 141.268 111.785 141.664 111.977 142.008C112.169 142.344 112.425 142.604 112.745 142.788C113.065 142.972 113.429 143.064 113.837 143.064ZM122.121 144V137.076C122.121 136.452 122.301 135.956 122.661 135.588C123.029 135.212 123.549 135.024 124.221 135.024C124.469 135.024 124.705 135.056 124.929 135.12C125.161 135.176 125.357 135.268 125.517 135.396L125.169 136.272C125.049 136.176 124.913 136.104 124.761 136.056C124.609 136 124.449 135.972 124.281 135.972C123.945 135.972 123.689 136.068 123.513 136.26C123.337 136.444 123.249 136.72 123.249 137.088V137.94L123.273 138.468V144H122.121ZM121.041 138.588V137.64H125.097V138.588H121.041ZM128.814 144.072C128.174 144.072 127.606 143.932 127.11 143.652C126.614 143.372 126.222 142.988 125.934 142.5C125.646 142.004 125.502 141.444 125.502 140.82C125.502 140.188 125.646 139.628 125.934 139.14C126.222 138.652 126.614 138.272 127.11 138C127.606 137.72 128.174 137.58 128.814 137.58C129.446 137.58 130.01 137.72 130.506 138C131.01 138.272 131.402 138.652 131.682 139.14C131.97 139.62 132.114 140.18 132.114 140.82C132.114 141.452 131.97 142.012 131.682 142.5C131.402 142.988 131.01 143.372 130.506 143.652C130.01 143.932 129.446 144.072 128.814 144.072ZM128.814 143.064C129.222 143.064 129.586 142.972 129.906 142.788C130.234 142.604 130.49 142.344 130.674 142.008C130.858 141.664 130.95 141.268 130.95 140.82C130.95 140.364 130.858 139.972 130.674 139.644C130.49 139.308 130.234 139.048 129.906 138.864C129.586 138.68 129.222 138.588 128.814 138.588C128.406 138.588 128.042 138.68 127.722 138.864C127.402 139.048 127.146 139.308 126.954 139.644C126.762 139.972 126.666 140.364 126.666 140.82C126.666 141.268 126.762 141.664 126.954 142.008C127.146 142.344 127.402 142.604 127.722 142.788C128.042 142.972 128.406 143.064 128.814 143.064ZM133.707 144V137.64H134.811V139.368L134.703 138.936C134.879 138.496 135.175 138.16 135.591 137.928C136.007 137.696 136.519 137.58 137.127 137.58V138.696C137.079 138.688 137.031 138.684 136.983 138.684C136.943 138.684 136.903 138.684 136.863 138.684C136.247 138.684 135.759 138.868 135.399 139.236C135.039 139.604 134.859 140.136 134.859 140.832V144H133.707ZM146.503 137.58C147.015 137.58 147.467 137.68 147.859 137.88C148.251 138.08 148.555 138.384 148.771 138.792C148.995 139.2 149.107 139.716 149.107 140.34V144H147.955V140.472C147.955 139.856 147.811 139.392 147.523 139.08C147.235 138.768 146.831 138.612 146.311 138.612C145.927 138.612 145.591 138.692 145.303 138.852C145.015 139.012 144.791 139.248 144.631 139.56C144.479 139.872 144.403 140.26 144.403 140.724V144H143.251V140.472C143.251 139.856 143.107 139.392 142.819 139.08C142.539 138.768 142.135 138.612 141.607 138.612C141.231 138.612 140.899 138.692 140.611 138.852C140.323 139.012 140.099 139.248 139.939 139.56C139.779 139.872 139.699 140.26 139.699 140.724V144H138.547V137.64H139.651V139.332L139.471 138.9C139.671 138.484 139.979 138.16 140.395 137.928C140.811 137.696 141.295 137.58 141.847 137.58C142.455 137.58 142.979 137.732 143.419 138.036C143.859 138.332 144.147 138.784 144.283 139.392L143.815 139.2C144.007 138.712 144.343 138.32 144.823 138.024C145.303 137.728 145.863 137.58 146.503 137.58ZM65.4908 159.072C64.8508 159.072 64.3548 158.9 64.0028 158.556C63.6508 158.212 63.4748 157.72 63.4748 157.08V151.248H64.6268V157.032C64.6268 157.376 64.7108 157.64 64.8788 157.824C65.0548 158.008 65.3028 158.1 65.6228 158.1C65.9828 158.1 66.2828 158 66.5228 157.8L66.8828 158.628C66.7068 158.78 66.4948 158.892 66.2468 158.964C66.0068 159.036 65.7548 159.072 65.4908 159.072ZM62.3948 153.588V152.64H66.4508V153.588H62.3948ZM71.6716 152.58C72.1916 152.58 72.6476 152.68 73.0396 152.88C73.4396 153.08 73.7516 153.384 73.9756 153.792C74.1996 154.2 74.3116 154.716 74.3116 155.34V159H73.1596V155.472C73.1596 154.856 73.0076 154.392 72.7036 154.08C72.4076 153.768 71.9876 153.612 71.4436 153.612C71.0356 153.612 70.6796 153.692 70.3756 153.852C70.0716 154.012 69.8356 154.248 69.6676 154.56C69.5076 154.872 69.4276 155.26 69.4276 155.724V159H68.2756V150.096H69.4276V154.356L69.1996 153.9C69.4076 153.484 69.7276 153.16 70.1596 152.928C70.5916 152.696 71.0956 152.58 71.6716 152.58ZM79.2756 159.072C78.5956 159.072 77.9956 158.932 77.4756 158.652C76.9636 158.372 76.5636 157.988 76.2756 157.5C75.9956 157.012 75.8556 156.452 75.8556 155.82C75.8556 155.188 75.9916 154.628 76.2636 154.14C76.5436 153.652 76.9236 153.272 77.4036 153C77.8916 152.72 78.4396 152.58 79.0476 152.58C79.6636 152.58 80.2076 152.716 80.6796 152.988C81.1516 153.26 81.5196 153.644 81.7836 154.14C82.0556 154.628 82.1916 155.2 82.1916 155.856C82.1916 155.904 82.1876 155.96 82.1796 156.024C82.1796 156.088 82.1756 156.148 82.1676 156.204H76.7556V155.376H81.5676L81.0996 155.664C81.1076 155.256 81.0236 154.892 80.8476 154.572C80.6716 154.252 80.4276 154.004 80.1156 153.828C79.8116 153.644 79.4556 153.552 79.0476 153.552C78.6476 153.552 78.2916 153.644 77.9796 153.828C77.6676 154.004 77.4236 154.256 77.2476 154.584C77.0716 154.904 76.9836 155.272 76.9836 155.688V155.88C76.9836 156.304 77.0796 156.684 77.2716 157.02C77.4716 157.348 77.7476 157.604 78.0996 157.788C78.4516 157.972 78.8556 158.064 79.3116 158.064C79.6876 158.064 80.0276 158 80.3316 157.872C80.6436 157.744 80.9156 157.552 81.1476 157.296L81.7836 158.04C81.4956 158.376 81.1356 158.632 80.7036 158.808C80.2796 158.984 79.8036 159.072 79.2756 159.072ZM90.4099 152.58C90.9299 152.58 91.3859 152.68 91.7779 152.88C92.1779 153.08 92.4899 153.384 92.7139 153.792C92.9379 154.2 93.0499 154.716 93.0499 155.34V159H91.8979V155.472C91.8979 154.856 91.7459 154.392 91.4419 154.08C91.1459 153.768 90.7259 153.612 90.1819 153.612C89.7739 153.612 89.4179 153.692 89.1139 153.852C88.8099 154.012 88.5739 154.248 88.4059 154.56C88.2459 154.872 88.1659 155.26 88.1659 155.724V159H87.0139V152.64H88.1179V154.356L87.9379 153.9C88.1459 153.484 88.4659 153.16 88.8979 152.928C89.3299 152.696 89.8339 152.58 90.4099 152.58ZM97.9058 159.072C97.2658 159.072 96.6978 158.932 96.2018 158.652C95.7058 158.372 95.3138 157.988 95.0258 157.5C94.7378 157.004 94.5938 156.444 94.5938 155.82C94.5938 155.188 94.7378 154.628 95.0258 154.14C95.3138 153.652 95.7058 153.272 96.2018 153C96.6978 152.72 97.2658 152.58 97.9058 152.58C98.5378 152.58 99.1018 152.72 99.5978 153C100.102 153.272 100.494 153.652 100.774 154.14C101.062 154.62 101.206 155.18 101.206 155.82C101.206 156.452 101.062 157.012 100.774 157.5C100.494 157.988 100.102 158.372 99.5978 158.652C99.1018 158.932 98.5378 159.072 97.9058 159.072ZM97.9058 158.064C98.3138 158.064 98.6778 157.972 98.9978 157.788C99.3258 157.604 99.5818 157.344 99.7658 157.008C99.9498 156.664 100.042 156.268 100.042 155.82C100.042 155.364 99.9498 154.972 99.7658 154.644C99.5818 154.308 99.3258 154.048 98.9978 153.864C98.6778 153.68 98.3138 153.588 97.9058 153.588C97.4978 153.588 97.1338 153.68 96.8138 153.864C96.4938 154.048 96.2378 154.308 96.0458 154.644C95.8538 154.972 95.7578 155.364 95.7578 155.82C95.7578 156.268 95.8538 156.664 96.0458 157.008C96.2378 157.344 96.4938 157.604 96.8138 157.788C97.1338 157.972 97.4978 158.064 97.9058 158.064ZM104.623 159.072C104.095 159.072 103.591 159 103.111 158.856C102.639 158.712 102.267 158.536 101.995 158.328L102.475 157.416C102.747 157.6 103.083 157.756 103.483 157.884C103.883 158.012 104.291 158.076 104.707 158.076C105.243 158.076 105.627 158 105.859 157.848C106.099 157.696 106.219 157.484 106.219 157.212C106.219 157.012 106.147 156.856 106.003 156.744C105.859 156.632 105.667 156.548 105.427 156.492C105.195 156.436 104.935 156.388 104.647 156.348C104.359 156.3 104.071 156.244 103.783 156.18C103.495 156.108 103.231 156.012 102.991 155.892C102.751 155.764 102.559 155.592 102.415 155.376C102.271 155.152 102.199 154.856 102.199 154.488C102.199 154.104 102.307 153.768 102.523 153.48C102.739 153.192 103.043 152.972 103.435 152.82C103.835 152.66 104.307 152.58 104.851 152.58C105.267 152.58 105.687 152.632 106.111 152.736C106.543 152.832 106.895 152.972 107.167 153.156L106.675 154.068C106.387 153.876 106.087 153.744 105.775 153.672C105.463 153.6 105.151 153.564 104.839 153.564C104.335 153.564 103.959 153.648 103.711 153.816C103.463 153.976 103.339 154.184 103.339 154.44C103.339 154.656 103.411 154.824 103.555 154.944C103.707 155.056 103.899 155.144 104.131 155.208C104.371 155.272 104.635 155.328 104.923 155.376C105.211 155.416 105.499 155.472 105.787 155.544C106.075 155.608 106.335 155.7 106.567 155.82C106.807 155.94 106.999 156.108 107.143 156.324C107.295 156.54 107.371 156.828 107.371 157.188C107.371 157.572 107.259 157.904 107.035 158.184C106.811 158.464 106.495 158.684 106.087 158.844C105.679 158.996 105.191 159.072 104.623 159.072ZM111.643 159.072C110.963 159.072 110.363 158.932 109.843 158.652C109.331 158.372 108.931 157.988 108.643 157.5C108.363 157.012 108.223 156.452 108.223 155.82C108.223 155.188 108.359 154.628 108.631 154.14C108.911 153.652 109.291 153.272 109.771 153C110.259 152.72 110.807 152.58 111.415 152.58C112.031 152.58 112.575 152.716 113.047 152.988C113.519 153.26 113.887 153.644 114.151 154.14C114.423 154.628 114.559 155.2 114.559 155.856C114.559 155.904 114.555 155.96 114.547 156.024C114.547 156.088 114.543 156.148 114.535 156.204H109.123V155.376H113.935L113.467 155.664C113.475 155.256 113.391 154.892 113.215 154.572C113.039 154.252 112.795 154.004 112.483 153.828C112.179 153.644 111.823 153.552 111.415 153.552C111.015 153.552 110.659 153.644 110.347 153.828C110.035 154.004 109.791 154.256 109.615 154.584C109.439 154.904 109.351 155.272 109.351 155.688V155.88C109.351 156.304 109.447 156.684 109.639 157.02C109.839 157.348 110.115 157.604 110.467 157.788C110.819 157.972 111.223 158.064 111.679 158.064C112.055 158.064 112.395 158 112.699 157.872C113.011 157.744 113.283 157.552 113.515 157.296L114.151 158.04C113.863 158.376 113.503 158.632 113.071 158.808C112.647 158.984 112.171 159.072 111.643 159.072ZM116.434 159.072C116.21 159.072 116.018 158.996 115.858 158.844C115.698 158.684 115.618 158.484 115.618 158.244C115.618 158.004 115.698 157.808 115.858 157.656C116.018 157.504 116.21 157.428 116.434 157.428C116.65 157.428 116.834 157.504 116.986 157.656C117.146 157.808 117.226 158.004 117.226 158.244C117.226 158.484 117.146 158.684 116.986 158.844C116.834 158.996 116.65 159.072 116.434 159.072Z" fill="#008E86"/>
<path d="M90 76.25L72 82.25L72 58.25L90 76.25Z" fill="#00D8CC" stroke="#00635D" stroke-width="2" stroke-linejoin="round"/>
<path d="M107 82.75L89 76.25L107 58.25L107 82.75Z" fill="#00D8CC" stroke="#00635D" stroke-width="2" stroke-linejoin="round"/>
<path d="M66.9995 77.75L80.4991 64.2504L98.9995 64.2502L112 77.7503L97.9995 91.2496L80.4991 91.2496L66.9995 77.75Z" fill="#00D8CC" stroke="#00635D" stroke-width="2" stroke-linejoin="round"/>
<path d="M89.5 81.25L97.9998 91.2495L80.4995 91.2495L89.5 81.25Z" fill="#00D8CC" stroke="#00635D" stroke-width="2" stroke-linejoin="round"/>
<path d="M99 85.8516L80 85.8516" stroke="#333333" stroke-width="2" stroke-dasharray="4 4"/>
<path d="M76.274 98.5747C76.8107 98.7048 77.3513 98.3752 77.4814 97.8384L79.6016 89.0917C79.7317 88.555 79.4021 88.0144 78.8653 87.8843C78.3286 87.7542 77.788 88.0838 77.6579 88.6206L75.7733 96.3954L67.9984 94.5108C67.4617 94.3807 66.9211 94.7104 66.791 95.2471C66.6609 95.7839 66.9906 96.3244 67.5273 96.4545L76.274 98.5747ZM82.3859 78.3379C82.8707 78.0733 83.0492 77.4658 82.7846 76.981C82.52 76.4962 81.9125 76.3177 81.4277 76.5823L82.3859 78.3379ZM77.3634 97.0822C75.196 93.5281 74.7782 89.8899 75.6533 86.6241L73.7214 86.1065C72.6995 89.9201 73.2143 94.1196 75.6558 98.1235L77.3634 97.0822ZM75.6533 86.6241C76.077 85.0425 77.095 83.3235 78.3778 81.7965C79.6591 80.2712 81.1341 79.0211 82.3859 78.3379L81.4277 76.5823C79.9044 77.4137 78.2439 78.8464 76.8464 80.5101C75.4503 82.1721 74.2461 84.1483 73.7214 86.1065L75.6533 86.6241Z" fill="black"/>
</g>
<defs>
<clipPath id="clip0_18_803">
<rect width="180" height="180" rx="20" fill="white"/>
</clipPath>
<clipPath id="clip1_18_803">
<path d="M0 30L-1.31134e-06 0L30 -1.31134e-06L30 10C30 21.0457 21.0457 30 10 30L0 30Z" fill="white"/>
</clipPath>
</defs>
</svg>
