<svg width="380" height="224" viewBox="0 0 380 224" fill="none" xmlns="http://www.w3.org/2000/svg">
<g filter="url(#filter0_d_10_3445)">
<rect width="380" height="220" rx="20" fill="#F2F2F2"/>
<path fill-rule="evenodd" clip-rule="evenodd" d="M315 98.9846C315 87.9995 306 78.9922 295 78.9922C233.172 78.9922 208 78.9995 208 78.9995L200 86.9996H163L154 78.9993H119.147C108.147 78.9993 99.1467 87.9995 99.1467 98.9919C99.1467 98.9992 99.1467 99.0068 99.1467 99.0143C99.1467 110 108.147 119 119.147 119C135.71 119 154 119 154 119L163 127H200L208 119H295.147C306 119 315 110 315 99.0071C315 98.9995 315 99.4995 315 98.9846Z" fill="#30DCFF"/>
<path fill-rule="evenodd" clip-rule="evenodd" d="M315 98.9888C315 88 306 79 294.853 79C233.025 79 208 79.0001 208 79.0001L200 87H163L154 79.0001H119C108 79.0001 99 88.0001 99 98.9888C99 98.9962 99 99.0001 99 99.0001H104C104 89 111 84.0001 119 84.0001C133.664 84.0001 152 84 152 84L161 92H202L210 84H295C304 84 310 90 310 98.9998L315 99V98.9888Z" fill="white" fill-opacity="0.5"/>
<path fill-rule="evenodd" clip-rule="evenodd" d="M315 99L310 99C310 107.971 304.197 114 295 114C237.995 114 206 114 206 114L198 122H165L156 114H119C108.496 114 104 108 104 99.0015L99 99V99.0112C99 110 108 119 119 119C135.563 119 154 119 154 119L163 127H200L208 119H295C306 119 315 110 315 99Z" fill="black" fill-opacity="0.25"/>
<path d="M110.128 107V98.6H113.8C114.712 98.6 115.512 98.776 116.2 99.128C116.888 99.48 117.424 99.968 117.808 100.592C118.192 101.216 118.384 101.952 118.384 102.8C118.384 103.64 118.192 104.376 117.808 105.008C117.424 105.632 116.888 106.12 116.2 106.472C115.512 106.824 114.712 107 113.8 107H110.128ZM111.688 105.68H113.728C114.36 105.68 114.904 105.56 115.36 105.32C115.824 105.08 116.18 104.744 116.428 104.312C116.684 103.88 116.812 103.376 116.812 102.8C116.812 102.216 116.684 101.712 116.428 101.288C116.18 100.856 115.824 100.52 115.36 100.28C114.904 100.04 114.36 99.92 113.728 99.92H111.688V105.68ZM119.898 107V100.592H121.398V107H119.898ZM120.654 99.536C120.374 99.536 120.142 99.448 119.958 99.272C119.782 99.096 119.694 98.884 119.694 98.636C119.694 98.38 119.782 98.168 119.958 98C120.142 97.824 120.374 97.736 120.654 97.736C120.934 97.736 121.162 97.82 121.338 97.988C121.522 98.148 121.614 98.352 121.614 98.6C121.614 98.864 121.526 99.088 121.35 99.272C121.174 99.448 120.942 99.536 120.654 99.536ZM126.271 109.412C125.679 109.412 125.099 109.332 124.531 109.172C123.971 109.02 123.511 108.796 123.151 108.5L123.823 107.372C124.103 107.604 124.455 107.788 124.879 107.924C125.311 108.068 125.747 108.14 126.187 108.14C126.891 108.14 127.407 107.976 127.735 107.648C128.063 107.328 128.227 106.844 128.227 106.196V105.056L128.347 103.604L128.299 102.152V100.592H129.727V106.028C129.727 107.188 129.431 108.04 128.839 108.584C128.247 109.136 127.391 109.412 126.271 109.412ZM126.079 106.712C125.471 106.712 124.919 106.584 124.423 106.328C123.935 106.064 123.547 105.7 123.259 105.236C122.979 104.772 122.839 104.228 122.839 103.604C122.839 102.988 122.979 102.448 123.259 101.984C123.547 101.52 123.935 101.16 124.423 100.904C124.919 100.648 125.471 100.52 126.079 100.52C126.623 100.52 127.111 100.628 127.543 100.844C127.975 101.06 128.319 101.396 128.575 101.852C128.839 102.308 128.971 102.892 128.971 103.604C128.971 104.316 128.839 104.904 128.575 105.368C128.319 105.824 127.975 106.164 127.543 106.388C127.111 106.604 126.623 106.712 126.079 106.712ZM126.307 105.44C126.683 105.44 127.019 105.364 127.315 105.212C127.611 105.052 127.839 104.836 127.999 104.564C128.167 104.284 128.251 103.964 128.251 103.604C128.251 103.244 128.167 102.928 127.999 102.656C127.839 102.376 127.611 102.164 127.315 102.02C127.019 101.868 126.683 101.792 126.307 101.792C125.931 101.792 125.591 101.868 125.287 102.02C124.991 102.164 124.759 102.376 124.591 102.656C124.431 102.928 124.351 103.244 124.351 103.604C124.351 103.964 124.431 104.284 124.591 104.564C124.759 104.836 124.991 105.052 125.287 105.212C125.591 105.364 125.931 105.44 126.307 105.44ZM131.699 107V100.592H133.199V107H131.699ZM132.455 99.536C132.175 99.536 131.943 99.448 131.759 99.272C131.583 99.096 131.495 98.884 131.495 98.636C131.495 98.38 131.583 98.168 131.759 98C131.943 97.824 132.175 97.736 132.455 97.736C132.735 97.736 132.963 97.82 133.139 97.988C133.323 98.148 133.415 98.352 133.415 98.6C133.415 98.864 133.327 99.088 133.151 99.272C132.975 99.448 132.743 99.536 132.455 99.536ZM137.58 107.084C136.876 107.084 136.332 106.904 135.948 106.544C135.564 106.176 135.372 105.636 135.372 104.924V99.176H136.872V104.888C136.872 105.192 136.948 105.428 137.1 105.596C137.26 105.764 137.48 105.848 137.76 105.848C138.096 105.848 138.376 105.76 138.6 105.584L139.02 106.652C138.844 106.796 138.628 106.904 138.372 106.976C138.116 107.048 137.852 107.084 137.58 107.084ZM134.316 101.84V100.64H138.588V101.84H134.316ZM143.055 107.084C142.343 107.084 141.719 106.944 141.183 106.664C140.655 106.376 140.243 105.984 139.947 105.488C139.659 104.992 139.515 104.428 139.515 103.796C139.515 103.156 139.655 102.592 139.935 102.104C140.223 101.608 140.615 101.22 141.111 100.94C141.615 100.66 142.187 100.52 142.827 100.52C143.451 100.52 144.007 100.656 144.495 100.928C144.983 101.2 145.367 101.584 145.647 102.08C145.927 102.576 146.067 103.16 146.067 103.832C146.067 103.896 146.063 103.968 146.055 104.048C146.055 104.128 146.051 104.204 146.043 104.276H140.703V103.28H145.251L144.663 103.592C144.671 103.224 144.595 102.9 144.435 102.62C144.275 102.34 144.055 102.12 143.775 101.96C143.503 101.8 143.187 101.72 142.827 101.72C142.459 101.72 142.135 101.8 141.855 101.96C141.583 102.12 141.367 102.344 141.207 102.632C141.055 102.912 140.979 103.244 140.979 103.628V103.868C140.979 104.252 141.067 104.592 141.243 104.888C141.419 105.184 141.667 105.412 141.987 105.572C142.307 105.732 142.675 105.812 143.091 105.812C143.451 105.812 143.775 105.756 144.063 105.644C144.351 105.532 144.607 105.356 144.831 105.116L145.635 106.04C145.347 106.376 144.983 106.636 144.543 106.82C144.111 106.996 143.615 107.084 143.055 107.084ZM153.704 107.084C153.048 107.084 152.464 106.944 151.952 106.664C151.44 106.376 151.036 105.984 150.74 105.488C150.444 104.992 150.296 104.428 150.296 103.796C150.296 103.156 150.444 102.592 150.74 102.104C151.036 101.608 151.44 101.22 151.952 100.94C152.464 100.66 153.048 100.52 153.704 100.52C154.368 100.52 154.956 100.66 155.468 100.94C155.988 101.22 156.392 101.604 156.68 102.092C156.976 102.58 157.124 103.148 157.124 103.796C157.124 104.428 156.976 104.992 156.68 105.488C156.392 105.984 155.988 106.376 155.468 106.664C154.956 106.944 154.368 107.084 153.704 107.084ZM153.704 105.8C154.072 105.8 154.4 105.72 154.688 105.56C154.976 105.4 155.2 105.168 155.36 104.864C155.528 104.56 155.612 104.204 155.612 103.796C155.612 103.38 155.528 103.024 155.36 102.728C155.2 102.424 154.976 102.192 154.688 102.032C154.4 101.872 154.076 101.792 153.716 101.792C153.348 101.792 153.02 101.872 152.732 102.032C152.452 102.192 152.228 102.424 152.06 102.728C151.892 103.024 151.808 103.38 151.808 103.796C151.808 104.204 151.892 104.56 152.06 104.864C152.228 105.168 152.452 105.4 152.732 105.56C153.02 105.72 153.344 105.8 153.704 105.8ZM164.287 107.084C163.583 107.084 163.039 106.904 162.655 106.544C162.271 106.176 162.079 105.636 162.079 104.924V99.176H163.579V104.888C163.579 105.192 163.655 105.428 163.807 105.596C163.967 105.764 164.187 105.848 164.467 105.848C164.803 105.848 165.083 105.76 165.307 105.584L165.727 106.652C165.551 106.796 165.335 106.904 165.079 106.976C164.823 107.048 164.559 107.084 164.287 107.084ZM161.023 101.84V100.64H165.295V101.84H161.023ZM166.961 107V100.592H168.389V102.356L168.221 101.84C168.413 101.408 168.713 101.08 169.121 100.856C169.537 100.632 170.053 100.52 170.669 100.52V101.948C170.605 101.932 170.545 101.924 170.489 101.924C170.433 101.916 170.377 101.912 170.321 101.912C169.753 101.912 169.301 102.08 168.965 102.416C168.629 102.744 168.461 103.236 168.461 103.892V107H166.961ZM175.432 107V105.704L175.348 105.428V103.16C175.348 102.72 175.216 102.38 174.952 102.14C174.688 101.892 174.288 101.768 173.752 101.768C173.392 101.768 173.036 101.824 172.684 101.936C172.34 102.048 172.048 102.204 171.808 102.404L171.22 101.312C171.564 101.048 171.972 100.852 172.444 100.724C172.924 100.588 173.42 100.52 173.932 100.52C174.86 100.52 175.576 100.744 176.08 101.192C176.592 101.632 176.848 102.316 176.848 103.244V107H175.432ZM173.416 107.084C172.936 107.084 172.516 107.004 172.156 106.844C171.796 106.676 171.516 106.448 171.316 106.16C171.124 105.864 171.028 105.532 171.028 105.164C171.028 104.804 171.112 104.48 171.28 104.192C171.456 103.904 171.74 103.676 172.132 103.508C172.524 103.34 173.044 103.256 173.692 103.256H175.552V104.252H173.8C173.288 104.252 172.944 104.336 172.768 104.504C172.592 104.664 172.504 104.864 172.504 105.104C172.504 105.376 172.612 105.592 172.828 105.752C173.044 105.912 173.344 105.992 173.728 105.992C174.096 105.992 174.424 105.908 174.712 105.74C175.008 105.572 175.22 105.324 175.348 104.996L175.6 105.896C175.456 106.272 175.196 106.564 174.82 106.772C174.452 106.98 173.984 107.084 173.416 107.084ZM181.497 107.084C180.881 107.084 180.325 106.948 179.829 106.676C179.341 106.396 178.957 106.012 178.677 105.524C178.397 105.036 178.257 104.46 178.257 103.796C178.257 103.132 178.397 102.556 178.677 102.068C178.957 101.58 179.341 101.2 179.829 100.928C180.325 100.656 180.881 100.52 181.497 100.52C182.033 100.52 182.513 100.64 182.937 100.88C183.361 101.112 183.697 101.468 183.945 101.948C184.193 102.428 184.317 103.044 184.317 103.796C184.317 104.54 184.197 105.156 183.957 105.644C183.717 106.124 183.385 106.484 182.961 106.724C182.537 106.964 182.049 107.084 181.497 107.084ZM181.677 105.8C182.037 105.8 182.357 105.72 182.637 105.56C182.925 105.4 183.153 105.168 183.321 104.864C183.497 104.56 183.585 104.204 183.585 103.796C183.585 103.38 183.497 103.024 183.321 102.728C183.153 102.424 182.925 102.192 182.637 102.032C182.357 101.872 182.037 101.792 181.677 101.792C181.317 101.792 180.993 101.872 180.705 102.032C180.425 102.192 180.197 102.424 180.021 102.728C179.853 103.024 179.769 103.38 179.769 103.796C179.769 104.204 179.853 104.56 180.021 104.864C180.197 105.168 180.425 105.4 180.705 105.56C180.993 105.72 181.317 105.8 181.677 105.8ZM183.621 107V105.488L183.681 103.784L183.561 102.08V98.096H185.049V107H183.621ZM189.735 107.084C189.191 107.084 188.711 106.984 188.295 106.784C187.879 106.576 187.555 106.264 187.323 105.848C187.091 105.424 186.975 104.892 186.975 104.252V100.592H188.475V104.048C188.475 104.624 188.603 105.056 188.859 105.344C189.123 105.624 189.495 105.764 189.975 105.764C190.327 105.764 190.631 105.692 190.887 105.548C191.151 105.404 191.355 105.188 191.499 104.9C191.651 104.612 191.727 104.256 191.727 103.832V100.592H193.227V107H191.799V105.272L192.051 105.8C191.835 106.216 191.519 106.536 191.103 106.76C190.687 106.976 190.231 107.084 189.735 107.084ZM197.603 107.084C196.899 107.084 196.355 106.904 195.971 106.544C195.587 106.176 195.395 105.636 195.395 104.924V99.176H196.895V104.888C196.895 105.192 196.971 105.428 197.123 105.596C197.283 105.764 197.503 105.848 197.783 105.848C198.119 105.848 198.399 105.76 198.623 105.584L199.043 106.652C198.867 106.796 198.651 106.904 198.395 106.976C198.139 107.048 197.875 107.084 197.603 107.084ZM194.339 101.84V100.64H198.611V101.84H194.339ZM202.946 107.084C202.29 107.084 201.706 106.944 201.194 106.664C200.682 106.376 200.278 105.984 199.982 105.488C199.686 104.992 199.538 104.428 199.538 103.796C199.538 103.156 199.686 102.592 199.982 102.104C200.278 101.608 200.682 101.22 201.194 100.94C201.706 100.66 202.29 100.52 202.946 100.52C203.61 100.52 204.198 100.66 204.71 100.94C205.23 101.22 205.634 101.604 205.922 102.092C206.218 102.58 206.366 103.148 206.366 103.796C206.366 104.428 206.218 104.992 205.922 105.488C205.634 105.984 205.23 106.376 204.71 106.664C204.198 106.944 203.61 107.084 202.946 107.084ZM202.946 105.8C203.314 105.8 203.642 105.72 203.93 105.56C204.218 105.4 204.442 105.168 204.602 104.864C204.77 104.56 204.854 104.204 204.854 103.796C204.854 103.38 204.77 103.024 204.602 102.728C204.442 102.424 204.218 102.192 203.93 102.032C203.642 101.872 203.318 101.792 202.958 101.792C202.59 101.792 202.262 101.872 201.974 102.032C201.694 102.192 201.47 102.424 201.302 102.728C201.134 103.024 201.05 103.38 201.05 103.796C201.05 104.204 201.134 104.56 201.302 104.864C201.47 105.168 201.694 105.4 201.974 105.56C202.262 105.72 202.586 105.8 202.946 105.8ZM207.8 107V100.592H209.228V102.356L209.06 101.84C209.252 101.408 209.552 101.08 209.96 100.856C210.376 100.632 210.892 100.52 211.508 100.52V101.948C211.444 101.932 211.384 101.924 211.328 101.924C211.272 101.916 211.216 101.912 211.16 101.912C210.592 101.912 210.14 102.08 209.804 102.416C209.468 102.744 209.3 103.236 209.3 103.892V107H207.8Z" fill="#333333"/>
<path fill-rule="evenodd" clip-rule="evenodd" d="M315 137.985C315 127 306 117.992 295 117.992C233.172 117.992 208 118 208 118L200 126H163L154 117.999H119.147C108.147 117.999 99.1467 127 99.1467 137.992C99.1467 137.999 99.1467 138.007 99.1467 138.014C99.1467 149 108.147 158 119.147 158C135.71 158 154 158 154 158L163 166H200L208 158H295.147C306 158 315 149 315 138.007C315 138 315 138.5 315 137.985Z" fill="#30DCFF"/>
<path fill-rule="evenodd" clip-rule="evenodd" d="M315 137.989C315 127 306 118 294.853 118C233.025 118 208 118 208 118L200 126H163L154 118H119C108 118 99 127 99 137.989C99 137.996 99 138 99 138H104C104 128 111 123 119 123C133.664 123 152 123 152 123L161 131H202L210 123H295C304 123 310 129 310 138L315 138V137.989Z" fill="white" fill-opacity="0.5"/>
<path fill-rule="evenodd" clip-rule="evenodd" d="M315 138L310 138C310 146.971 304.197 153 295 153C237.995 153 206 153 206 153L198 161H165L156 153H119C108.496 153 104 147 104 138.001L99 138V138.011C99 149 108 158 119 158C135.563 158 154 158 154 158L163 166H200L208 158H295C306 158 315 149 315 138Z" fill="black" fill-opacity="0.25"/>
<path d="M110.128 146V137.6H113.8C114.712 137.6 115.512 137.776 116.2 138.128C116.888 138.48 117.424 138.968 117.808 139.592C118.192 140.216 118.384 140.952 118.384 141.8C118.384 142.64 118.192 143.376 117.808 144.008C117.424 144.632 116.888 145.12 116.2 145.472C115.512 145.824 114.712 146 113.8 146H110.128ZM111.688 144.68H113.728C114.36 144.68 114.904 144.56 115.36 144.32C115.824 144.08 116.18 143.744 116.428 143.312C116.684 142.88 116.812 142.376 116.812 141.8C116.812 141.216 116.684 140.712 116.428 140.288C116.18 139.856 115.824 139.52 115.36 139.28C114.904 139.04 114.36 138.92 113.728 138.92H111.688V144.68ZM119.898 146V139.592H121.398V146H119.898ZM120.654 138.536C120.374 138.536 120.142 138.448 119.958 138.272C119.782 138.096 119.694 137.884 119.694 137.636C119.694 137.38 119.782 137.168 119.958 137C120.142 136.824 120.374 136.736 120.654 136.736C120.934 136.736 121.162 136.82 121.338 136.988C121.522 137.148 121.614 137.352 121.614 137.6C121.614 137.864 121.526 138.088 121.35 138.272C121.174 138.448 120.942 138.536 120.654 138.536ZM126.271 148.412C125.679 148.412 125.099 148.332 124.531 148.172C123.971 148.02 123.511 147.796 123.151 147.5L123.823 146.372C124.103 146.604 124.455 146.788 124.879 146.924C125.311 147.068 125.747 147.14 126.187 147.14C126.891 147.14 127.407 146.976 127.735 146.648C128.063 146.328 128.227 145.844 128.227 145.196V144.056L128.347 142.604L128.299 141.152V139.592H129.727V145.028C129.727 146.188 129.431 147.04 128.839 147.584C128.247 148.136 127.391 148.412 126.271 148.412ZM126.079 145.712C125.471 145.712 124.919 145.584 124.423 145.328C123.935 145.064 123.547 144.7 123.259 144.236C122.979 143.772 122.839 143.228 122.839 142.604C122.839 141.988 122.979 141.448 123.259 140.984C123.547 140.52 123.935 140.16 124.423 139.904C124.919 139.648 125.471 139.52 126.079 139.52C126.623 139.52 127.111 139.628 127.543 139.844C127.975 140.06 128.319 140.396 128.575 140.852C128.839 141.308 128.971 141.892 128.971 142.604C128.971 143.316 128.839 143.904 128.575 144.368C128.319 144.824 127.975 145.164 127.543 145.388C127.111 145.604 126.623 145.712 126.079 145.712ZM126.307 144.44C126.683 144.44 127.019 144.364 127.315 144.212C127.611 144.052 127.839 143.836 127.999 143.564C128.167 143.284 128.251 142.964 128.251 142.604C128.251 142.244 128.167 141.928 127.999 141.656C127.839 141.376 127.611 141.164 127.315 141.02C127.019 140.868 126.683 140.792 126.307 140.792C125.931 140.792 125.591 140.868 125.287 141.02C124.991 141.164 124.759 141.376 124.591 141.656C124.431 141.928 124.351 142.244 124.351 142.604C124.351 142.964 124.431 143.284 124.591 143.564C124.759 143.836 124.991 144.052 125.287 144.212C125.591 144.364 125.931 144.44 126.307 144.44ZM131.699 146V139.592H133.199V146H131.699ZM132.455 138.536C132.175 138.536 131.943 138.448 131.759 138.272C131.583 138.096 131.495 137.884 131.495 137.636C131.495 137.38 131.583 137.168 131.759 137C131.943 136.824 132.175 136.736 132.455 136.736C132.735 136.736 132.963 136.82 133.139 136.988C133.323 137.148 133.415 137.352 133.415 137.6C133.415 137.864 133.327 138.088 133.151 138.272C132.975 138.448 132.743 138.536 132.455 138.536ZM137.58 146.084C136.876 146.084 136.332 145.904 135.948 145.544C135.564 145.176 135.372 144.636 135.372 143.924V138.176H136.872V143.888C136.872 144.192 136.948 144.428 137.1 144.596C137.26 144.764 137.48 144.848 137.76 144.848C138.096 144.848 138.376 144.76 138.6 144.584L139.02 145.652C138.844 145.796 138.628 145.904 138.372 145.976C138.116 146.048 137.852 146.084 137.58 146.084ZM134.316 140.84V139.64H138.588V140.84H134.316ZM143.055 146.084C142.343 146.084 141.719 145.944 141.183 145.664C140.655 145.376 140.243 144.984 139.947 144.488C139.659 143.992 139.515 143.428 139.515 142.796C139.515 142.156 139.655 141.592 139.935 141.104C140.223 140.608 140.615 140.22 141.111 139.94C141.615 139.66 142.187 139.52 142.827 139.52C143.451 139.52 144.007 139.656 144.495 139.928C144.983 140.2 145.367 140.584 145.647 141.08C145.927 141.576 146.067 142.16 146.067 142.832C146.067 142.896 146.063 142.968 146.055 143.048C146.055 143.128 146.051 143.204 146.043 143.276H140.703V142.28H145.251L144.663 142.592C144.671 142.224 144.595 141.9 144.435 141.62C144.275 141.34 144.055 141.12 143.775 140.96C143.503 140.8 143.187 140.72 142.827 140.72C142.459 140.72 142.135 140.8 141.855 140.96C141.583 141.12 141.367 141.344 141.207 141.632C141.055 141.912 140.979 142.244 140.979 142.628V142.868C140.979 143.252 141.067 143.592 141.243 143.888C141.419 144.184 141.667 144.412 141.987 144.572C142.307 144.732 142.675 144.812 143.091 144.812C143.451 144.812 143.775 144.756 144.063 144.644C144.351 144.532 144.607 144.356 144.831 144.116L145.635 145.04C145.347 145.376 144.983 145.636 144.543 145.82C144.111 145.996 143.615 146.084 143.055 146.084ZM153.704 146.084C153.048 146.084 152.464 145.944 151.952 145.664C151.44 145.376 151.036 144.984 150.74 144.488C150.444 143.992 150.296 143.428 150.296 142.796C150.296 142.156 150.444 141.592 150.74 141.104C151.036 140.608 151.44 140.22 151.952 139.94C152.464 139.66 153.048 139.52 153.704 139.52C154.368 139.52 154.956 139.66 155.468 139.94C155.988 140.22 156.392 140.604 156.68 141.092C156.976 141.58 157.124 142.148 157.124 142.796C157.124 143.428 156.976 143.992 156.68 144.488C156.392 144.984 155.988 145.376 155.468 145.664C154.956 145.944 154.368 146.084 153.704 146.084ZM153.704 144.8C154.072 144.8 154.4 144.72 154.688 144.56C154.976 144.4 155.2 144.168 155.36 143.864C155.528 143.56 155.612 143.204 155.612 142.796C155.612 142.38 155.528 142.024 155.36 141.728C155.2 141.424 154.976 141.192 154.688 141.032C154.4 140.872 154.076 140.792 153.716 140.792C153.348 140.792 153.02 140.872 152.732 141.032C152.452 141.192 152.228 141.424 152.06 141.728C151.892 142.024 151.808 142.38 151.808 142.796C151.808 143.204 151.892 143.56 152.06 143.864C152.228 144.168 152.452 144.4 152.732 144.56C153.02 144.72 153.344 144.8 153.704 144.8ZM164.287 146.084C163.583 146.084 163.039 145.904 162.655 145.544C162.271 145.176 162.079 144.636 162.079 143.924V138.176H163.579V143.888C163.579 144.192 163.655 144.428 163.807 144.596C163.967 144.764 164.187 144.848 164.467 144.848C164.803 144.848 165.083 144.76 165.307 144.584L165.727 145.652C165.551 145.796 165.335 145.904 165.079 145.976C164.823 146.048 164.559 146.084 164.287 146.084ZM161.023 140.84V139.64H165.295V140.84H161.023ZM169.762 146.084C169.05 146.084 168.426 145.944 167.89 145.664C167.362 145.376 166.95 144.984 166.654 144.488C166.366 143.992 166.222 143.428 166.222 142.796C166.222 142.156 166.362 141.592 166.642 141.104C166.93 140.608 167.322 140.22 167.818 139.94C168.322 139.66 168.894 139.52 169.534 139.52C170.158 139.52 170.714 139.656 171.202 139.928C171.69 140.2 172.074 140.584 172.354 141.08C172.634 141.576 172.774 142.16 172.774 142.832C172.774 142.896 172.77 142.968 172.762 143.048C172.762 143.128 172.758 143.204 172.75 143.276H167.41V142.28H171.958L171.37 142.592C171.378 142.224 171.302 141.9 171.142 141.62C170.982 141.34 170.762 141.12 170.482 140.96C170.21 140.8 169.894 140.72 169.534 140.72C169.166 140.72 168.842 140.8 168.562 140.96C168.29 141.12 168.074 141.344 167.914 141.632C167.762 141.912 167.686 142.244 167.686 142.628V142.868C167.686 143.252 167.774 143.592 167.95 143.888C168.126 144.184 168.374 144.412 168.694 144.572C169.014 144.732 169.382 144.812 169.798 144.812C170.158 144.812 170.482 144.756 170.77 144.644C171.058 144.532 171.314 144.356 171.538 144.116L172.342 145.04C172.054 145.376 171.69 145.636 171.25 145.82C170.818 145.996 170.322 146.084 169.762 146.084ZM173.163 146L175.983 142.328L175.959 143.132L173.271 139.592H174.939L176.823 142.112H176.187L178.083 139.592H179.703L176.991 143.132L177.003 142.328L179.811 146H178.119L176.139 143.324L176.763 143.408L174.819 146H173.163ZM183.33 146.084C182.626 146.084 182.082 145.904 181.698 145.544C181.314 145.176 181.122 144.636 181.122 143.924V138.176H182.622V143.888C182.622 144.192 182.698 144.428 182.85 144.596C183.01 144.764 183.23 144.848 183.51 144.848C183.846 144.848 184.126 144.76 184.35 144.584L184.77 145.652C184.594 145.796 184.378 145.904 184.122 145.976C183.866 146.048 183.602 146.084 183.33 146.084ZM180.066 140.84V139.64H184.338V140.84H180.066ZM188.673 146.084C188.017 146.084 187.433 145.944 186.921 145.664C186.409 145.376 186.005 144.984 185.709 144.488C185.413 143.992 185.265 143.428 185.265 142.796C185.265 142.156 185.413 141.592 185.709 141.104C186.005 140.608 186.409 140.22 186.921 139.94C187.433 139.66 188.017 139.52 188.673 139.52C189.337 139.52 189.925 139.66 190.437 139.94C190.957 140.22 191.361 140.604 191.649 141.092C191.945 141.58 192.093 142.148 192.093 142.796C192.093 143.428 191.945 143.992 191.649 144.488C191.361 144.984 190.957 145.376 190.437 145.664C189.925 145.944 189.337 146.084 188.673 146.084ZM188.673 144.8C189.041 144.8 189.369 144.72 189.657 144.56C189.945 144.4 190.169 144.168 190.329 143.864C190.497 143.56 190.581 143.204 190.581 142.796C190.581 142.38 190.497 142.024 190.329 141.728C190.169 141.424 189.945 141.192 189.657 141.032C189.369 140.872 189.045 140.792 188.685 140.792C188.317 140.792 187.989 140.872 187.701 141.032C187.421 141.192 187.197 141.424 187.029 141.728C186.861 142.024 186.777 142.38 186.777 142.796C186.777 143.204 186.861 143.56 187.029 143.864C187.197 144.168 187.421 144.4 187.701 144.56C187.989 144.72 188.313 144.8 188.673 144.8ZM200.395 146.084C199.875 146.084 199.399 145.964 198.967 145.724C198.543 145.484 198.203 145.124 197.947 144.644C197.699 144.156 197.575 143.54 197.575 142.796C197.575 142.044 197.695 141.428 197.935 140.948C198.183 140.468 198.519 140.112 198.943 139.88C199.367 139.64 199.851 139.52 200.395 139.52C201.027 139.52 201.583 139.656 202.063 139.928C202.551 140.2 202.935 140.58 203.215 141.068C203.503 141.556 203.647 142.132 203.647 142.796C203.647 143.46 203.503 144.04 203.215 144.536C202.935 145.024 202.551 145.404 202.063 145.676C201.583 145.948 201.027 146.084 200.395 146.084ZM196.843 148.328V139.592H198.271V141.104L198.223 142.808L198.343 144.512V148.328H196.843ZM200.227 144.8C200.587 144.8 200.907 144.72 201.187 144.56C201.475 144.4 201.703 144.168 201.871 143.864C202.039 143.56 202.123 143.204 202.123 142.796C202.123 142.38 202.039 142.024 201.871 141.728C201.703 141.424 201.475 141.192 201.187 141.032C200.907 140.872 200.587 140.792 200.227 140.792C199.867 140.792 199.543 140.872 199.255 141.032C198.967 141.192 198.739 141.424 198.571 141.728C198.403 142.024 198.319 142.38 198.319 142.796C198.319 143.204 198.403 143.56 198.571 143.864C198.739 144.168 198.967 144.4 199.255 144.56C199.543 144.72 199.867 144.8 200.227 144.8ZM208.936 146V144.704L208.852 144.428V142.16C208.852 141.72 208.72 141.38 208.456 141.14C208.192 140.892 207.792 140.768 207.256 140.768C206.896 140.768 206.54 140.824 206.188 140.936C205.844 141.048 205.552 141.204 205.312 141.404L204.724 140.312C205.068 140.048 205.476 139.852 205.948 139.724C206.428 139.588 206.924 139.52 207.436 139.52C208.364 139.52 209.08 139.744 209.584 140.192C210.096 140.632 210.352 141.316 210.352 142.244V146H208.936ZM206.92 146.084C206.44 146.084 206.02 146.004 205.66 145.844C205.3 145.676 205.02 145.448 204.82 145.16C204.628 144.864 204.532 144.532 204.532 144.164C204.532 143.804 204.616 143.48 204.784 143.192C204.96 142.904 205.244 142.676 205.636 142.508C206.028 142.34 206.548 142.256 207.196 142.256H209.056V143.252H207.304C206.792 143.252 206.448 143.336 206.272 143.504C206.096 143.664 206.008 143.864 206.008 144.104C206.008 144.376 206.116 144.592 206.332 144.752C206.548 144.912 206.848 144.992 207.232 144.992C207.6 144.992 207.928 144.908 208.216 144.74C208.512 144.572 208.724 144.324 208.852 143.996L209.104 144.896C208.96 145.272 208.7 145.564 208.324 145.772C207.956 145.98 207.488 146.084 206.92 146.084ZM212.277 146V139.592H213.705V141.356L213.537 140.84C213.729 140.408 214.029 140.08 214.437 139.856C214.853 139.632 215.369 139.52 215.985 139.52V140.948C215.921 140.932 215.861 140.924 215.805 140.924C215.749 140.916 215.693 140.912 215.637 140.912C215.069 140.912 214.617 141.08 214.281 141.416C213.945 141.744 213.777 142.236 213.777 142.892V146H212.277ZM220.748 146V144.704L220.664 144.428V142.16C220.664 141.72 220.532 141.38 220.268 141.14C220.004 140.892 219.604 140.768 219.068 140.768C218.708 140.768 218.352 140.824 218 140.936C217.656 141.048 217.364 141.204 217.124 141.404L216.536 140.312C216.88 140.048 217.288 139.852 217.76 139.724C218.24 139.588 218.736 139.52 219.248 139.52C220.176 139.52 220.892 139.744 221.396 140.192C221.908 140.632 222.164 141.316 222.164 142.244V146H220.748ZM218.732 146.084C218.252 146.084 217.832 146.004 217.472 145.844C217.112 145.676 216.832 145.448 216.632 145.16C216.44 144.864 216.344 144.532 216.344 144.164C216.344 143.804 216.428 143.48 216.596 143.192C216.772 142.904 217.056 142.676 217.448 142.508C217.84 142.34 218.36 142.256 219.008 142.256H220.868V143.252H219.116C218.604 143.252 218.26 143.336 218.084 143.504C217.908 143.664 217.82 143.864 217.82 144.104C217.82 144.376 217.928 144.592 218.144 144.752C218.36 144.912 218.66 144.992 219.044 144.992C219.412 144.992 219.74 144.908 220.028 144.74C220.324 144.572 220.536 144.324 220.664 143.996L220.916 144.896C220.772 145.272 220.512 145.564 220.136 145.772C219.768 145.98 219.3 146.084 218.732 146.084ZM229.818 146.084C229.114 146.084 228.57 145.904 228.186 145.544C227.802 145.176 227.61 144.636 227.61 143.924V138.176H229.11V143.888C229.11 144.192 229.186 144.428 229.338 144.596C229.498 144.764 229.718 144.848 229.998 144.848C230.334 144.848 230.614 144.76 230.838 144.584L231.258 145.652C231.082 145.796 230.866 145.904 230.61 145.976C230.354 146.048 230.09 146.084 229.818 146.084ZM226.554 140.84V139.64H230.826V140.84H226.554ZM232.492 146V139.592H233.92V141.356L233.752 140.84C233.944 140.408 234.244 140.08 234.652 139.856C235.068 139.632 235.584 139.52 236.2 139.52V140.948C236.136 140.932 236.076 140.924 236.02 140.924C235.964 140.916 235.908 140.912 235.852 140.912C235.284 140.912 234.832 141.08 234.496 141.416C234.16 141.744 233.992 142.236 233.992 142.892V146H232.492ZM240.963 146V144.704L240.879 144.428V142.16C240.879 141.72 240.747 141.38 240.483 141.14C240.219 140.892 239.819 140.768 239.283 140.768C238.923 140.768 238.567 140.824 238.215 140.936C237.871 141.048 237.579 141.204 237.339 141.404L236.751 140.312C237.095 140.048 237.503 139.852 237.975 139.724C238.455 139.588 238.951 139.52 239.463 139.52C240.391 139.52 241.107 139.744 241.611 140.192C242.123 140.632 242.379 141.316 242.379 142.244V146H240.963ZM238.947 146.084C238.467 146.084 238.047 146.004 237.687 145.844C237.327 145.676 237.047 145.448 236.847 145.16C236.655 144.864 236.559 144.532 236.559 144.164C236.559 143.804 236.643 143.48 236.811 143.192C236.987 142.904 237.271 142.676 237.663 142.508C238.055 142.34 238.575 142.256 239.223 142.256H241.083V143.252H239.331C238.819 143.252 238.475 143.336 238.299 143.504C238.123 143.664 238.035 143.864 238.035 144.104C238.035 144.376 238.143 144.592 238.359 144.752C238.575 144.912 238.875 144.992 239.259 144.992C239.627 144.992 239.955 144.908 240.243 144.74C240.539 144.572 240.751 144.324 240.879 143.996L241.131 144.896C240.987 145.272 240.727 145.564 240.351 145.772C239.983 145.98 239.515 146.084 238.947 146.084ZM247.028 146.084C246.412 146.084 245.856 145.948 245.36 145.676C244.872 145.396 244.488 145.012 244.208 144.524C243.928 144.036 243.788 143.46 243.788 142.796C243.788 142.132 243.928 141.556 244.208 141.068C244.488 140.58 244.872 140.2 245.36 139.928C245.856 139.656 246.412 139.52 247.028 139.52C247.564 139.52 248.044 139.64 248.468 139.88C248.892 140.112 249.228 140.468 249.476 140.948C249.724 141.428 249.848 142.044 249.848 142.796C249.848 143.54 249.728 144.156 249.488 144.644C249.248 145.124 248.916 145.484 248.492 145.724C248.068 145.964 247.58 146.084 247.028 146.084ZM247.208 144.8C247.568 144.8 247.888 144.72 248.168 144.56C248.456 144.4 248.684 144.168 248.852 143.864C249.028 143.56 249.116 143.204 249.116 142.796C249.116 142.38 249.028 142.024 248.852 141.728C248.684 141.424 248.456 141.192 248.168 141.032C247.888 140.872 247.568 140.792 247.208 140.792C246.848 140.792 246.524 140.872 246.236 141.032C245.956 141.192 245.728 141.424 245.552 141.728C245.384 142.024 245.3 142.38 245.3 142.796C245.3 143.204 245.384 143.56 245.552 143.864C245.728 144.168 245.956 144.4 246.236 144.56C246.524 144.72 246.848 144.8 247.208 144.8ZM249.152 146V144.488L249.212 142.784L249.092 141.08V137.096H250.58V146H249.152ZM255.266 146.084C254.722 146.084 254.242 145.984 253.826 145.784C253.41 145.576 253.086 145.264 252.854 144.848C252.622 144.424 252.506 143.892 252.506 143.252V139.592H254.006V143.048C254.006 143.624 254.134 144.056 254.39 144.344C254.654 144.624 255.026 144.764 255.506 144.764C255.858 144.764 256.162 144.692 256.418 144.548C256.682 144.404 256.886 144.188 257.03 143.9C257.182 143.612 257.258 143.256 257.258 142.832V139.592H258.758V146H257.33V144.272L257.582 144.8C257.366 145.216 257.05 145.536 256.634 145.76C256.218 145.976 255.762 146.084 255.266 146.084ZM260.194 146V145.052L264.142 140.276L264.418 140.792H260.266V139.592H265.618V140.54L261.67 145.316L261.37 144.8H265.726V146H260.194ZM267.109 146V139.592H268.609V146H267.109ZM267.865 138.536C267.585 138.536 267.353 138.448 267.169 138.272C266.993 138.096 266.905 137.884 266.905 137.636C266.905 137.38 266.993 137.168 267.169 137C267.353 136.824 267.585 136.736 267.865 136.736C268.145 136.736 268.373 136.82 268.549 136.988C268.733 137.148 268.825 137.352 268.825 137.6C268.825 137.864 268.737 138.088 268.561 138.272C268.385 138.448 268.153 138.536 267.865 138.536ZM270.578 146V139.592H272.006V141.356L271.838 140.84C272.03 140.408 272.33 140.08 272.738 139.856C273.154 139.632 273.67 139.52 274.286 139.52V140.948C274.222 140.932 274.162 140.924 274.106 140.924C274.05 140.916 273.994 140.912 273.938 140.912C273.37 140.912 272.918 141.08 272.582 141.416C272.246 141.744 272.078 142.236 272.078 142.892V146H270.578Z" fill="#333333"/>
<path fill-rule="evenodd" clip-rule="evenodd" d="M315 177.985C315 167 306 157.992 295 157.992C233.172 157.992 208 158 208 158L200 166H163L154 157.999H119.147C108.147 157.999 99.1467 167 99.1467 177.992C99.1467 177.999 99.1467 178.007 99.1467 178.014C99.1467 189 108.147 198 119.147 198C135.71 198 154 198 154 198L163 206H200L208 198H295.147C306 198 315 189 315 178.007C315 178 315 178.5 315 177.985Z" fill="#30DCFF"/>
<path fill-rule="evenodd" clip-rule="evenodd" d="M315 177.989C315 167 306 158 294.853 158C233.025 158 208 158 208 158L200 166H163L154 158H119C108 158 99 167 99 177.989C99 177.996 99 178 99 178H104C104 168 111 163 119 163C133.664 163 152 163 152 163L161 171H202L210 163H295C304 163 310 169 310 178L315 178V177.989Z" fill="white" fill-opacity="0.5"/>
<path fill-rule="evenodd" clip-rule="evenodd" d="M315 178L310 178C310 186.971 304.197 193 295 193C237.995 193 206 193 206 193L198 201H165L156 193H119C108.496 193 104 187 104 178.001L99 178V178.011C99 189 108 198 119 198C135.563 198 154 198 154 198L163 206H200L208 198H295C306 198 315 189 315 178Z" fill="black" fill-opacity="0.25"/>
<path d="M111.832 186V178.92H109.048V177.6H116.176V178.92H113.392V186H111.832ZM117.05 186V179.592H118.478V181.356L118.31 180.84C118.502 180.408 118.802 180.08 119.21 179.856C119.626 179.632 120.142 179.52 120.758 179.52V180.948C120.694 180.932 120.634 180.924 120.578 180.924C120.522 180.916 120.466 180.912 120.41 180.912C119.842 180.912 119.39 181.08 119.054 181.416C118.718 181.744 118.55 182.236 118.55 182.892V186H117.05ZM125.522 186V184.704L125.438 184.428V182.16C125.438 181.72 125.306 181.38 125.042 181.14C124.778 180.892 124.378 180.768 123.842 180.768C123.482 180.768 123.126 180.824 122.774 180.936C122.43 181.048 122.138 181.204 121.898 181.404L121.31 180.312C121.654 180.048 122.062 179.852 122.534 179.724C123.014 179.588 123.51 179.52 124.022 179.52C124.95 179.52 125.666 179.744 126.17 180.192C126.682 180.632 126.938 181.316 126.938 182.244V186H125.522ZM123.506 186.084C123.026 186.084 122.606 186.004 122.246 185.844C121.886 185.676 121.606 185.448 121.406 185.16C121.214 184.864 121.118 184.532 121.118 184.164C121.118 183.804 121.202 183.48 121.37 183.192C121.546 182.904 121.83 182.676 122.222 182.508C122.614 182.34 123.134 182.256 123.782 182.256H125.642V183.252H123.89C123.378 183.252 123.034 183.336 122.858 183.504C122.682 183.664 122.594 183.864 122.594 184.104C122.594 184.376 122.702 184.592 122.918 184.752C123.134 184.912 123.434 184.992 123.818 184.992C124.186 184.992 124.514 184.908 124.802 184.74C125.098 184.572 125.31 184.324 125.438 183.996L125.69 184.896C125.546 185.272 125.286 185.564 124.91 185.772C124.542 185.98 124.074 186.084 123.506 186.084ZM131.587 186.084C130.971 186.084 130.415 185.948 129.919 185.676C129.431 185.396 129.047 185.012 128.767 184.524C128.487 184.036 128.347 183.46 128.347 182.796C128.347 182.132 128.487 181.556 128.767 181.068C129.047 180.58 129.431 180.2 129.919 179.928C130.415 179.656 130.971 179.52 131.587 179.52C132.123 179.52 132.603 179.64 133.027 179.88C133.451 180.112 133.787 180.468 134.035 180.948C134.283 181.428 134.407 182.044 134.407 182.796C134.407 183.54 134.287 184.156 134.047 184.644C133.807 185.124 133.475 185.484 133.051 185.724C132.627 185.964 132.139 186.084 131.587 186.084ZM131.767 184.8C132.127 184.8 132.447 184.72 132.727 184.56C133.015 184.4 133.243 184.168 133.411 183.864C133.587 183.56 133.675 183.204 133.675 182.796C133.675 182.38 133.587 182.024 133.411 181.728C133.243 181.424 133.015 181.192 132.727 181.032C132.447 180.872 132.127 180.792 131.767 180.792C131.407 180.792 131.083 180.872 130.795 181.032C130.515 181.192 130.287 181.424 130.111 181.728C129.943 182.024 129.859 182.38 129.859 182.796C129.859 183.204 129.943 183.56 130.111 183.864C130.287 184.168 130.515 184.4 130.795 184.56C131.083 184.72 131.407 184.8 131.767 184.8ZM133.711 186V184.488L133.771 182.784L133.651 181.08V177.096H135.139V186H133.711ZM139.825 186.084C139.281 186.084 138.801 185.984 138.385 185.784C137.969 185.576 137.645 185.264 137.413 184.848C137.181 184.424 137.065 183.892 137.065 183.252V179.592H138.565V183.048C138.565 183.624 138.693 184.056 138.949 184.344C139.213 184.624 139.585 184.764 140.065 184.764C140.417 184.764 140.721 184.692 140.977 184.548C141.241 184.404 141.445 184.188 141.589 183.9C141.741 183.612 141.817 183.256 141.817 182.832V179.592H143.317V186H141.889V184.272L142.141 184.8C141.925 185.216 141.609 185.536 141.193 185.76C140.777 185.976 140.321 186.084 139.825 186.084ZM144.753 186V185.052L148.701 180.276L148.977 180.792H144.825V179.592H150.177V180.54L146.229 185.316L145.929 184.8H150.285V186H144.753ZM151.668 186V179.592H153.168V186H151.668ZM152.424 178.536C152.144 178.536 151.912 178.448 151.728 178.272C151.552 178.096 151.464 177.884 151.464 177.636C151.464 177.38 151.552 177.168 151.728 177C151.912 176.824 152.144 176.736 152.424 176.736C152.704 176.736 152.932 176.82 153.108 176.988C153.292 177.148 153.384 177.352 153.384 177.6C153.384 177.864 153.296 178.088 153.12 178.272C152.944 178.448 152.712 178.536 152.424 178.536ZM155.136 186V179.592H156.564V181.356L156.396 180.84C156.588 180.408 156.888 180.08 157.296 179.856C157.712 179.632 158.228 179.52 158.844 179.52V180.948C158.78 180.932 158.72 180.924 158.664 180.924C158.608 180.916 158.552 180.912 158.496 180.912C157.928 180.912 157.476 181.08 157.14 181.416C156.804 181.744 156.636 182.236 156.636 182.892V186H155.136ZM167.044 186.084C166.524 186.084 166.048 185.964 165.616 185.724C165.192 185.484 164.852 185.124 164.596 184.644C164.348 184.156 164.224 183.54 164.224 182.796C164.224 182.044 164.344 181.428 164.584 180.948C164.832 180.468 165.168 180.112 165.592 179.88C166.016 179.64 166.5 179.52 167.044 179.52C167.676 179.52 168.232 179.656 168.712 179.928C169.2 180.2 169.584 180.58 169.864 181.068C170.152 181.556 170.296 182.132 170.296 182.796C170.296 183.46 170.152 184.04 169.864 184.536C169.584 185.024 169.2 185.404 168.712 185.676C168.232 185.948 167.676 186.084 167.044 186.084ZM163.492 188.328V179.592H164.92V181.104L164.872 182.808L164.992 184.512V188.328H163.492ZM166.876 184.8C167.236 184.8 167.556 184.72 167.836 184.56C168.124 184.4 168.352 184.168 168.52 183.864C168.688 183.56 168.772 183.204 168.772 182.796C168.772 182.38 168.688 182.024 168.52 181.728C168.352 181.424 168.124 181.192 167.836 181.032C167.556 180.872 167.236 180.792 166.876 180.792C166.516 180.792 166.192 180.872 165.904 181.032C165.616 181.192 165.388 181.424 165.22 181.728C165.052 182.024 164.968 182.38 164.968 182.796C164.968 183.204 165.052 183.56 165.22 183.864C165.388 184.168 165.616 184.4 165.904 184.56C166.192 184.72 166.516 184.8 166.876 184.8ZM175.584 186V184.704L175.5 184.428V182.16C175.5 181.72 175.368 181.38 175.104 181.14C174.84 180.892 174.44 180.768 173.904 180.768C173.544 180.768 173.188 180.824 172.836 180.936C172.492 181.048 172.2 181.204 171.96 181.404L171.372 180.312C171.716 180.048 172.124 179.852 172.596 179.724C173.076 179.588 173.572 179.52 174.084 179.52C175.012 179.52 175.728 179.744 176.232 180.192C176.744 180.632 177 181.316 177 182.244V186H175.584ZM173.568 186.084C173.088 186.084 172.668 186.004 172.308 185.844C171.948 185.676 171.668 185.448 171.468 185.16C171.276 184.864 171.18 184.532 171.18 184.164C171.18 183.804 171.264 183.48 171.432 183.192C171.608 182.904 171.892 182.676 172.284 182.508C172.676 182.34 173.196 182.256 173.844 182.256H175.704V183.252H173.952C173.44 183.252 173.096 183.336 172.92 183.504C172.744 183.664 172.656 183.864 172.656 184.104C172.656 184.376 172.764 184.592 172.98 184.752C173.196 184.912 173.496 184.992 173.88 184.992C174.248 184.992 174.576 184.908 174.864 184.74C175.16 184.572 175.372 184.324 175.5 183.996L175.752 184.896C175.608 185.272 175.348 185.564 174.972 185.772C174.604 185.98 174.136 186.084 173.568 186.084ZM178.925 186V179.592H180.353V181.356L180.185 180.84C180.377 180.408 180.677 180.08 181.085 179.856C181.501 179.632 182.017 179.52 182.633 179.52V180.948C182.569 180.932 182.509 180.924 182.453 180.924C182.397 180.916 182.341 180.912 182.285 180.912C181.717 180.912 181.265 181.08 180.929 181.416C180.593 181.744 180.425 182.236 180.425 182.892V186H178.925ZM187.397 186V184.704L187.313 184.428V182.16C187.313 181.72 187.181 181.38 186.917 181.14C186.653 180.892 186.253 180.768 185.717 180.768C185.357 180.768 185.001 180.824 184.649 180.936C184.305 181.048 184.013 181.204 183.773 181.404L183.185 180.312C183.529 180.048 183.937 179.852 184.409 179.724C184.889 179.588 185.385 179.52 185.897 179.52C186.825 179.52 187.541 179.744 188.045 180.192C188.557 180.632 188.813 181.316 188.813 182.244V186H187.397ZM185.381 186.084C184.901 186.084 184.481 186.004 184.121 185.844C183.761 185.676 183.481 185.448 183.281 185.16C183.089 184.864 182.993 184.532 182.993 184.164C182.993 183.804 183.077 183.48 183.245 183.192C183.421 182.904 183.705 182.676 184.097 182.508C184.489 182.34 185.009 182.256 185.657 182.256H187.517V183.252H185.765C185.253 183.252 184.909 183.336 184.733 183.504C184.557 183.664 184.469 183.864 184.469 184.104C184.469 184.376 184.577 184.592 184.793 184.752C185.009 184.912 185.309 184.992 185.693 184.992C186.061 184.992 186.389 184.908 186.677 184.74C186.973 184.572 187.185 184.324 187.313 183.996L187.565 184.896C187.421 185.272 187.161 185.564 186.785 185.772C186.417 185.98 185.949 186.084 185.381 186.084ZM196.934 186.084C196.278 186.084 195.694 185.944 195.182 185.664C194.67 185.376 194.266 184.984 193.97 184.488C193.674 183.992 193.526 183.428 193.526 182.796C193.526 182.156 193.674 181.592 193.97 181.104C194.266 180.608 194.67 180.22 195.182 179.94C195.694 179.66 196.278 179.52 196.934 179.52C197.598 179.52 198.186 179.66 198.698 179.94C199.218 180.22 199.622 180.604 199.91 181.092C200.206 181.58 200.354 182.148 200.354 182.796C200.354 183.428 200.206 183.992 199.91 184.488C199.622 184.984 199.218 185.376 198.698 185.664C198.186 185.944 197.598 186.084 196.934 186.084ZM196.934 184.8C197.302 184.8 197.63 184.72 197.918 184.56C198.206 184.4 198.43 184.168 198.59 183.864C198.758 183.56 198.842 183.204 198.842 182.796C198.842 182.38 198.758 182.024 198.59 181.728C198.43 181.424 198.206 181.192 197.918 181.032C197.63 180.872 197.306 180.792 196.946 180.792C196.578 180.792 196.25 180.872 195.962 181.032C195.682 181.192 195.458 181.424 195.29 181.728C195.122 182.024 195.038 182.38 195.038 182.796C195.038 183.204 195.122 183.56 195.29 183.864C195.458 184.168 195.682 184.4 195.962 184.56C196.25 184.72 196.574 184.8 196.934 184.8ZM208.117 186.084C207.405 186.084 206.781 185.944 206.245 185.664C205.717 185.376 205.305 184.984 205.009 184.488C204.721 183.992 204.577 183.428 204.577 182.796C204.577 182.156 204.717 181.592 204.997 181.104C205.285 180.608 205.677 180.22 206.173 179.94C206.677 179.66 207.249 179.52 207.889 179.52C208.513 179.52 209.069 179.656 209.557 179.928C210.045 180.2 210.429 180.584 210.709 181.08C210.989 181.576 211.129 182.16 211.129 182.832C211.129 182.896 211.125 182.968 211.117 183.048C211.117 183.128 211.113 183.204 211.105 183.276H205.765V182.28H210.313L209.725 182.592C209.733 182.224 209.657 181.9 209.497 181.62C209.337 181.34 209.117 181.12 208.837 180.96C208.565 180.8 208.249 180.72 207.889 180.72C207.521 180.72 207.197 180.8 206.917 180.96C206.645 181.12 206.429 181.344 206.269 181.632C206.117 181.912 206.041 182.244 206.041 182.628V182.868C206.041 183.252 206.129 183.592 206.305 183.888C206.481 184.184 206.729 184.412 207.049 184.572C207.369 184.732 207.737 184.812 208.153 184.812C208.513 184.812 208.837 184.756 209.125 184.644C209.413 184.532 209.669 184.356 209.893 184.116L210.697 185.04C210.409 185.376 210.045 185.636 209.605 185.82C209.173 185.996 208.677 186.084 208.117 186.084ZM214.55 186.084C214.014 186.084 213.498 186.016 213.002 185.88C212.514 185.736 212.126 185.564 211.838 185.364L212.414 184.224C212.702 184.408 213.046 184.56 213.446 184.68C213.846 184.8 214.246 184.86 214.646 184.86C215.118 184.86 215.458 184.796 215.666 184.668C215.882 184.54 215.99 184.368 215.99 184.152C215.99 183.976 215.918 183.844 215.774 183.756C215.63 183.66 215.442 183.588 215.21 183.54C214.978 183.492 214.718 183.448 214.43 183.408C214.15 183.368 213.866 183.316 213.578 183.252C213.298 183.18 213.042 183.08 212.81 182.952C212.578 182.816 212.39 182.636 212.246 182.412C212.102 182.188 212.03 181.892 212.03 181.524C212.03 181.116 212.146 180.764 212.378 180.468C212.61 180.164 212.934 179.932 213.35 179.772C213.774 179.604 214.274 179.52 214.85 179.52C215.282 179.52 215.718 179.568 216.158 179.664C216.598 179.76 216.962 179.896 217.25 180.072L216.674 181.212C216.37 181.028 216.062 180.904 215.75 180.84C215.446 180.768 215.142 180.732 214.838 180.732C214.382 180.732 214.042 180.8 213.818 180.936C213.602 181.072 213.494 181.244 213.494 181.452C213.494 181.644 213.566 181.788 213.71 181.884C213.854 181.98 214.042 182.056 214.274 182.112C214.506 182.168 214.762 182.216 215.042 182.256C215.33 182.288 215.614 182.34 215.894 182.412C216.174 182.484 216.43 182.584 216.662 182.712C216.902 182.832 217.094 183.004 217.238 183.228C217.382 183.452 217.454 183.744 217.454 184.104C217.454 184.504 217.334 184.852 217.094 185.148C216.862 185.444 216.53 185.676 216.098 185.844C215.666 186.004 215.15 186.084 214.55 186.084ZM222.298 186.084C221.778 186.084 221.302 185.964 220.87 185.724C220.446 185.484 220.106 185.124 219.85 184.644C219.602 184.156 219.478 183.54 219.478 182.796C219.478 182.044 219.598 181.428 219.838 180.948C220.086 180.468 220.422 180.112 220.846 179.88C221.27 179.64 221.754 179.52 222.298 179.52C222.93 179.52 223.486 179.656 223.966 179.928C224.454 180.2 224.838 180.58 225.118 181.068C225.406 181.556 225.55 182.132 225.55 182.796C225.55 183.46 225.406 184.04 225.118 184.536C224.838 185.024 224.454 185.404 223.966 185.676C223.486 185.948 222.93 186.084 222.298 186.084ZM218.746 188.328V179.592H220.174V181.104L220.126 182.808L220.246 184.512V188.328H218.746ZM222.13 184.8C222.49 184.8 222.81 184.72 223.09 184.56C223.378 184.4 223.606 184.168 223.774 183.864C223.942 183.56 224.026 183.204 224.026 182.796C224.026 182.38 223.942 182.024 223.774 181.728C223.606 181.424 223.378 181.192 223.09 181.032C222.81 180.872 222.49 180.792 222.13 180.792C221.77 180.792 221.446 180.872 221.158 181.032C220.87 181.192 220.642 181.424 220.474 181.728C220.306 182.024 220.222 182.38 220.222 182.796C220.222 183.204 220.306 183.56 220.474 183.864C220.642 184.168 220.87 184.4 221.158 184.56C221.446 184.72 221.77 184.8 222.13 184.8ZM230.838 186V184.704L230.754 184.428V182.16C230.754 181.72 230.622 181.38 230.358 181.14C230.094 180.892 229.694 180.768 229.158 180.768C228.798 180.768 228.442 180.824 228.09 180.936C227.746 181.048 227.454 181.204 227.214 181.404L226.626 180.312C226.97 180.048 227.378 179.852 227.85 179.724C228.33 179.588 228.826 179.52 229.338 179.52C230.266 179.52 230.982 179.744 231.486 180.192C231.998 180.632 232.254 181.316 232.254 182.244V186H230.838ZM228.822 186.084C228.342 186.084 227.922 186.004 227.562 185.844C227.202 185.676 226.922 185.448 226.722 185.16C226.53 184.864 226.434 184.532 226.434 184.164C226.434 183.804 226.518 183.48 226.686 183.192C226.862 182.904 227.146 182.676 227.538 182.508C227.93 182.34 228.45 182.256 229.098 182.256H230.958V183.252H229.206C228.694 183.252 228.35 183.336 228.174 183.504C227.998 183.664 227.91 183.864 227.91 184.104C227.91 184.376 228.018 184.592 228.234 184.752C228.45 184.912 228.75 184.992 229.134 184.992C229.502 184.992 229.83 184.908 230.118 184.74C230.414 184.572 230.626 184.324 230.754 183.996L231.006 184.896C230.862 185.272 230.602 185.564 230.226 185.772C229.858 185.98 229.39 186.084 228.822 186.084ZM237.815 179.52C238.327 179.52 238.783 179.62 239.183 179.82C239.591 180.02 239.911 180.328 240.143 180.744C240.375 181.152 240.491 181.68 240.491 182.328V186H238.991V182.52C238.991 181.952 238.855 181.528 238.583 181.248C238.319 180.968 237.947 180.828 237.467 180.828C237.115 180.828 236.803 180.9 236.531 181.044C236.259 181.188 236.047 181.404 235.895 181.692C235.751 181.972 235.679 182.328 235.679 182.76V186H234.179V179.592H235.607V181.32L235.355 180.792C235.579 180.384 235.903 180.072 236.327 179.856C236.759 179.632 237.255 179.52 237.815 179.52ZM246.03 179.52C246.542 179.52 246.998 179.62 247.398 179.82C247.806 180.02 248.126 180.328 248.358 180.744C248.59 181.152 248.706 181.68 248.706 182.328V186H247.206V182.52C247.206 181.952 247.07 181.528 246.798 181.248C246.534 180.968 246.162 180.828 245.682 180.828C245.33 180.828 245.018 180.9 244.746 181.044C244.474 181.188 244.262 181.404 244.11 181.692C243.966 181.972 243.894 182.328 243.894 182.76V186H242.394V177.096H243.894V181.32L243.57 180.792C243.794 180.384 244.118 180.072 244.542 179.856C244.974 179.632 245.47 179.52 246.03 179.52ZM253.501 186.084C252.845 186.084 252.261 185.944 251.749 185.664C251.237 185.376 250.833 184.984 250.537 184.488C250.241 183.992 250.093 183.428 250.093 182.796C250.093 182.156 250.241 181.592 250.537 181.104C250.833 180.608 251.237 180.22 251.749 179.94C252.261 179.66 252.845 179.52 253.501 179.52C254.165 179.52 254.753 179.66 255.265 179.94C255.785 180.22 256.189 180.604 256.477 181.092C256.773 181.58 256.921 182.148 256.921 182.796C256.921 183.428 256.773 183.992 256.477 184.488C256.189 184.984 255.785 185.376 255.265 185.664C254.753 185.944 254.165 186.084 253.501 186.084ZM253.501 184.8C253.869 184.8 254.197 184.72 254.485 184.56C254.773 184.4 254.997 184.168 255.157 183.864C255.325 183.56 255.409 183.204 255.409 182.796C255.409 182.38 255.325 182.024 255.157 181.728C254.997 181.424 254.773 181.192 254.485 181.032C254.197 180.872 253.873 180.792 253.513 180.792C253.145 180.792 252.817 180.872 252.529 181.032C252.249 181.192 252.025 181.424 251.857 181.728C251.689 182.024 251.605 182.38 251.605 182.796C251.605 183.204 251.689 183.56 251.857 183.864C252.025 184.168 252.249 184.4 252.529 184.56C252.817 184.72 253.141 184.8 253.501 184.8ZM258.355 186V177.096H259.855V186H258.355Z" fill="#333333"/>
<path fill-rule="evenodd" clip-rule="evenodd" d="M315 61C315 50 308 43 297 43C257.917 43 282.045 43 254 43C246.27 43 242.785 40.7635 238.5 36.5C229.193 27.8197 205.783 14 154.427 14C82.0243 14 65 43 65 43C65 43 65.0004 47.7195 65.0006 61C65.0006 71 73 79 83 79C109.488 79 154 79 154 79L163 87H200L208 79C208 79 242.031 79 297 79C308 79 315 72 315 61C315 62.8675 315 58.1323 315 61Z" fill="#FC79FF"/>
<path fill-rule="evenodd" clip-rule="evenodd" d="M310 61C310 69 306 74 297 74L206 74L198 82H165L156 74C156 74 108.393 74 83.0001 74C74.9643 74 70 68 70 61H65C65 71 73 79 83.0001 79C109.441 79 154 79 154 79L163.027 87H200L208 79L297 79C308 79 315 72 315 61C313.5 61 312 60.9999 310 61Z" fill="black" fill-opacity="0.25"/>
<path fill-rule="evenodd" clip-rule="evenodd" d="M65 61H70V45C70 45 84.993 19 154.286 19C201.342 19 225.557 31.6452 235.5 40C240.292 44.0301 246.712 47.9521 253 48C261.5 48 281.464 48 297 48C304.964 48 310 53.5 310 60V61H314H315C315 50 308 43 297 43C257.993 43 281.008 43 253 43C246 43 242.169 40.1595 238.214 36.2066C228.936 27.4998 205.571 14 154.268 14C81.9103 14 65 43 65 43L65 61Z" fill="white" fill-opacity="0.5"/>
<path d="M80.064 68.144C79.408 68.144 78.796 68.036 78.228 67.82C77.668 67.604 77.18 67.3 76.764 66.908C76.356 66.516 76.036 66.056 75.804 65.528C75.58 65 75.468 64.424 75.468 63.8C75.468 63.176 75.58 62.6 75.804 62.072C76.036 61.544 76.36 61.084 76.776 60.692C77.192 60.3 77.68 59.996 78.24 59.78C78.8 59.564 79.408 59.456 80.064 59.456C80.728 59.456 81.336 59.564 81.888 59.78C82.448 59.996 82.932 60.3 83.34 60.692C83.756 61.076 84.08 61.532 84.312 62.06C84.544 62.588 84.66 63.168 84.66 63.8C84.66 64.424 84.544 65.004 84.312 65.54C84.08 66.068 83.756 66.528 83.34 66.92C82.932 67.304 82.448 67.604 81.888 67.82C81.336 68.036 80.728 68.144 80.064 68.144ZM82.812 69.932C82.484 69.932 82.172 69.896 81.876 69.824C81.588 69.752 81.3 69.636 81.012 69.476C80.732 69.316 80.436 69.1 80.124 68.828C79.82 68.556 79.488 68.22 79.128 67.82L81.168 67.304C81.384 67.6 81.584 67.836 81.768 68.012C81.952 68.188 82.128 68.312 82.296 68.384C82.472 68.456 82.656 68.492 82.848 68.492C83.36 68.492 83.816 68.284 84.216 67.868L85.08 68.9C84.512 69.588 83.756 69.932 82.812 69.932ZM80.064 66.488C80.44 66.488 80.784 66.424 81.096 66.296C81.416 66.168 81.696 65.984 81.936 65.744C82.176 65.504 82.36 65.22 82.488 64.892C82.624 64.556 82.692 64.192 82.692 63.8C82.692 63.4 82.624 63.036 82.488 62.708C82.36 62.38 82.176 62.096 81.936 61.856C81.696 61.616 81.416 61.432 81.096 61.304C80.784 61.176 80.44 61.112 80.064 61.112C79.688 61.112 79.34 61.176 79.02 61.304C78.7 61.432 78.42 61.616 78.18 61.856C77.948 62.096 77.764 62.38 77.628 62.708C77.5 63.036 77.436 63.4 77.436 63.8C77.436 64.192 77.5 64.556 77.628 64.892C77.764 65.22 77.948 65.504 78.18 65.744C78.42 65.984 78.7 66.168 79.02 66.296C79.34 66.424 79.688 66.488 80.064 66.488ZM88.713 68.096C88.177 68.096 87.697 67.992 87.273 67.784C86.857 67.576 86.533 67.26 86.301 66.836C86.069 66.404 85.953 65.856 85.953 65.192V61.544H87.825V64.916C87.825 65.452 87.937 65.848 88.161 66.104C88.393 66.352 88.717 66.476 89.133 66.476C89.421 66.476 89.677 66.416 89.901 66.296C90.125 66.168 90.301 65.976 90.429 65.72C90.557 65.456 90.621 65.128 90.621 64.736V61.544H92.493V68H90.717V66.224L91.041 66.74C90.825 67.188 90.505 67.528 90.081 67.76C89.665 67.984 89.209 68.096 88.713 68.096ZM98.1873 68V66.74L98.0673 66.464V64.208C98.0673 63.808 97.9433 63.496 97.6953 63.272C97.4553 63.048 97.0833 62.936 96.5793 62.936C96.2353 62.936 95.8953 62.992 95.5593 63.104C95.2313 63.208 94.9513 63.352 94.7193 63.536L94.0473 62.228C94.3993 61.98 94.8233 61.788 95.3193 61.652C95.8153 61.516 96.3193 61.448 96.8313 61.448C97.8153 61.448 98.5793 61.68 99.1233 62.144C99.6673 62.608 99.9393 63.332 99.9393 64.316V68H98.1873ZM96.2193 68.096C95.7153 68.096 95.2833 68.012 94.9233 67.844C94.5633 67.668 94.2873 67.432 94.0953 67.136C93.9033 66.84 93.8073 66.508 93.8073 66.14C93.8073 65.756 93.8993 65.42 94.0833 65.132C94.2753 64.844 94.5753 64.62 94.9833 64.46C95.3913 64.292 95.9233 64.208 96.5793 64.208H98.2953V65.3H96.7833C96.3433 65.3 96.0393 65.372 95.8713 65.516C95.7113 65.66 95.6313 65.84 95.6313 66.056C95.6313 66.296 95.7233 66.488 95.9073 66.632C96.0993 66.768 96.3593 66.836 96.6873 66.836C96.9993 66.836 97.2793 66.764 97.5273 66.62C97.7753 66.468 97.9553 66.248 98.0673 65.96L98.3553 66.824C98.2193 67.24 97.9713 67.556 97.6113 67.772C97.2513 67.988 96.7873 68.096 96.2193 68.096ZM105.558 61.448C106.07 61.448 106.526 61.552 106.926 61.76C107.334 61.96 107.654 62.272 107.886 62.696C108.118 63.112 108.234 63.648 108.234 64.304V68H106.362V64.592C106.362 64.072 106.246 63.688 106.014 63.44C105.79 63.192 105.47 63.068 105.054 63.068C104.758 63.068 104.49 63.132 104.25 63.26C104.018 63.38 103.834 63.568 103.698 63.824C103.57 64.08 103.506 64.408 103.506 64.808V68H101.634V61.544H103.422V63.332L103.086 62.792C103.318 62.36 103.65 62.028 104.082 61.796C104.514 61.564 105.006 61.448 105.558 61.448ZM112.749 68.096C112.141 68.096 111.593 67.96 111.105 67.688C110.617 67.408 110.229 67.02 109.941 66.524C109.661 66.028 109.521 65.444 109.521 64.772C109.521 64.092 109.661 63.504 109.941 63.008C110.229 62.512 110.617 62.128 111.105 61.856C111.593 61.584 112.141 61.448 112.749 61.448C113.293 61.448 113.769 61.568 114.177 61.808C114.585 62.048 114.901 62.412 115.125 62.9C115.349 63.388 115.461 64.012 115.461 64.772C115.461 65.524 115.353 66.148 115.137 66.644C114.921 67.132 114.609 67.496 114.201 67.736C113.801 67.976 113.317 68.096 112.749 68.096ZM113.073 66.56C113.377 66.56 113.653 66.488 113.901 66.344C114.149 66.2 114.345 65.996 114.489 65.732C114.641 65.46 114.717 65.14 114.717 64.772C114.717 64.396 114.641 64.076 114.489 63.812C114.345 63.548 114.149 63.344 113.901 63.2C113.653 63.056 113.377 62.984 113.073 62.984C112.761 62.984 112.481 63.056 112.233 63.2C111.985 63.344 111.785 63.548 111.633 63.812C111.489 64.076 111.417 64.396 111.417 64.772C111.417 65.14 111.489 65.46 111.633 65.732C111.785 65.996 111.985 66.2 112.233 66.344C112.481 66.488 112.761 66.56 113.073 66.56ZM114.765 68V66.68L114.801 64.76L114.681 62.852V59.096H116.553V68H114.765ZM121.358 68.096C120.67 68.096 120.058 67.952 119.522 67.664C118.994 67.376 118.574 66.984 118.262 66.488C117.958 65.984 117.806 65.412 117.806 64.772C117.806 64.124 117.958 63.552 118.262 63.056C118.574 62.552 118.994 62.16 119.522 61.88C120.058 61.592 120.67 61.448 121.358 61.448C122.038 61.448 122.646 61.592 123.182 61.88C123.718 62.16 124.138 62.548 124.442 63.044C124.746 63.54 124.898 64.116 124.898 64.772C124.898 65.412 124.746 65.984 124.442 66.488C124.138 66.984 123.718 67.376 123.182 67.664C122.646 67.952 122.038 68.096 121.358 68.096ZM121.358 66.56C121.67 66.56 121.95 66.488 122.198 66.344C122.446 66.2 122.642 65.996 122.786 65.732C122.93 65.46 123.002 65.14 123.002 64.772C123.002 64.396 122.93 64.076 122.786 63.812C122.642 63.548 122.446 63.344 122.198 63.2C121.95 63.056 121.67 62.984 121.358 62.984C121.046 62.984 120.766 63.056 120.518 63.2C120.27 63.344 120.07 63.548 119.918 63.812C119.774 64.076 119.702 64.396 119.702 64.772C119.702 65.14 119.774 65.46 119.918 65.732C120.07 65.996 120.27 66.2 120.518 66.344C120.766 66.488 121.046 66.56 121.358 66.56ZM126.857 63.788C126.537 63.788 126.261 63.68 126.029 63.464C125.805 63.24 125.693 62.956 125.693 62.612C125.693 62.268 125.805 61.992 126.029 61.784C126.261 61.568 126.537 61.46 126.857 61.46C127.185 61.46 127.461 61.568 127.685 61.784C127.909 61.992 128.021 62.268 128.021 62.612C128.021 62.956 127.909 63.24 127.685 63.464C127.461 63.68 127.185 63.788 126.857 63.788ZM126.857 68.096C126.537 68.096 126.261 67.988 126.029 67.772C125.805 67.548 125.693 67.264 125.693 66.92C125.693 66.576 125.805 66.3 126.029 66.092C126.261 65.876 126.537 65.768 126.857 65.768C127.185 65.768 127.461 65.876 127.685 66.092C127.909 66.3 128.021 66.576 128.021 66.92C128.021 67.264 127.909 67.548 127.685 67.772C127.461 67.988 127.185 68.096 126.857 68.096ZM136.504 68.096C135.96 68.096 135.484 67.976 135.076 67.736C134.668 67.496 134.348 67.132 134.116 66.644C133.892 66.148 133.78 65.524 133.78 64.772C133.78 64.012 133.888 63.388 134.104 62.9C134.32 62.412 134.632 62.048 135.04 61.808C135.448 61.568 135.936 61.448 136.504 61.448C137.112 61.448 137.656 61.588 138.136 61.868C138.624 62.14 139.008 62.524 139.288 63.02C139.576 63.516 139.72 64.1 139.72 64.772C139.72 65.452 139.576 66.04 139.288 66.536C139.008 67.032 138.624 67.416 138.136 67.688C137.656 67.96 137.112 68.096 136.504 68.096ZM132.688 70.328V61.544H134.476V62.864L134.44 64.784L134.56 66.692V70.328H132.688ZM136.18 66.56C136.492 66.56 136.768 66.488 137.008 66.344C137.256 66.2 137.452 65.996 137.596 65.732C137.748 65.46 137.824 65.14 137.824 64.772C137.824 64.396 137.748 64.076 137.596 63.812C137.452 63.548 137.256 63.344 137.008 63.2C136.768 63.056 136.492 62.984 136.18 62.984C135.868 62.984 135.588 63.056 135.34 63.2C135.092 63.344 134.896 63.548 134.752 63.812C134.608 64.076 134.536 64.396 134.536 64.772C134.536 65.14 134.608 65.46 134.752 65.732C134.896 65.996 135.092 66.2 135.34 66.344C135.588 66.488 135.868 66.56 136.18 66.56ZM140.973 68V61.544H142.761V63.368L142.509 62.84C142.701 62.384 143.009 62.04 143.433 61.808C143.857 61.568 144.373 61.448 144.981 61.448V63.176C144.901 63.168 144.829 63.164 144.765 63.164C144.701 63.156 144.633 63.152 144.561 63.152C144.049 63.152 143.633 63.3 143.313 63.596C143.001 63.884 142.845 64.336 142.845 64.952V68H140.973ZM149.252 68.096C148.516 68.096 147.868 67.952 147.308 67.664C146.756 67.376 146.328 66.984 146.024 66.488C145.72 65.984 145.568 65.412 145.568 64.772C145.568 64.124 145.716 63.552 146.012 63.056C146.316 62.552 146.728 62.16 147.248 61.88C147.768 61.592 148.356 61.448 149.012 61.448C149.644 61.448 150.212 61.584 150.716 61.856C151.228 62.12 151.632 62.504 151.928 63.008C152.224 63.504 152.372 64.1 152.372 64.796C152.372 64.868 152.368 64.952 152.36 65.048C152.352 65.136 152.344 65.22 152.336 65.3H147.092V64.208H151.352L150.632 64.532C150.632 64.196 150.564 63.904 150.428 63.656C150.292 63.408 150.104 63.216 149.864 63.08C149.624 62.936 149.344 62.864 149.024 62.864C148.704 62.864 148.42 62.936 148.172 63.08C147.932 63.216 147.744 63.412 147.608 63.668C147.472 63.916 147.404 64.212 147.404 64.556V64.844C147.404 65.196 147.48 65.508 147.632 65.78C147.792 66.044 148.012 66.248 148.292 66.392C148.58 66.528 148.916 66.596 149.3 66.596C149.644 66.596 149.944 66.544 150.2 66.44C150.464 66.336 150.704 66.18 150.92 65.972L151.916 67.052C151.62 67.388 151.248 67.648 150.8 67.832C150.352 68.008 149.836 68.096 149.252 68.096ZM155.79 68.096C155.238 68.096 154.706 68.032 154.194 67.904C153.69 67.768 153.29 67.6 152.994 67.4L153.618 66.056C153.914 66.24 154.262 66.392 154.662 66.512C155.07 66.624 155.47 66.68 155.862 66.68C156.294 66.68 156.598 66.628 156.774 66.524C156.958 66.42 157.05 66.276 157.05 66.092C157.05 65.94 156.978 65.828 156.834 65.756C156.698 65.676 156.514 65.616 156.282 65.576C156.05 65.536 155.794 65.496 155.514 65.456C155.242 65.416 154.966 65.364 154.686 65.3C154.406 65.228 154.15 65.124 153.918 64.988C153.686 64.852 153.498 64.668 153.354 64.436C153.218 64.204 153.15 63.904 153.15 63.536C153.15 63.128 153.266 62.768 153.498 62.456C153.738 62.144 154.082 61.9 154.53 61.724C154.978 61.54 155.514 61.448 156.138 61.448C156.578 61.448 157.026 61.496 157.482 61.592C157.938 61.688 158.318 61.828 158.622 62.012L157.998 63.344C157.686 63.16 157.37 63.036 157.05 62.972C156.738 62.9 156.434 62.864 156.138 62.864C155.722 62.864 155.418 62.92 155.226 63.032C155.034 63.144 154.938 63.288 154.938 63.464C154.938 63.624 155.006 63.744 155.142 63.824C155.286 63.904 155.474 63.968 155.706 64.016C155.938 64.064 156.19 64.108 156.462 64.148C156.742 64.18 157.022 64.232 157.302 64.304C157.582 64.376 157.834 64.48 158.058 64.616C158.29 64.744 158.478 64.924 158.622 65.156C158.766 65.38 158.838 65.676 158.838 66.044C158.838 66.444 158.718 66.8 158.478 67.112C158.238 67.416 157.89 67.656 157.434 67.832C156.986 68.008 156.438 68.096 155.79 68.096ZM162.165 68.096C161.613 68.096 161.081 68.032 160.569 67.904C160.065 67.768 159.665 67.6 159.369 67.4L159.993 66.056C160.289 66.24 160.637 66.392 161.037 66.512C161.445 66.624 161.845 66.68 162.237 66.68C162.669 66.68 162.973 66.628 163.149 66.524C163.333 66.42 163.425 66.276 163.425 66.092C163.425 65.94 163.353 65.828 163.209 65.756C163.073 65.676 162.889 65.616 162.657 65.576C162.425 65.536 162.169 65.496 161.889 65.456C161.617 65.416 161.341 65.364 161.061 65.3C160.781 65.228 160.525 65.124 160.293 64.988C160.061 64.852 159.873 64.668 159.729 64.436C159.593 64.204 159.525 63.904 159.525 63.536C159.525 63.128 159.641 62.768 159.873 62.456C160.113 62.144 160.457 61.9 160.905 61.724C161.353 61.54 161.889 61.448 162.513 61.448C162.953 61.448 163.401 61.496 163.857 61.592C164.313 61.688 164.693 61.828 164.997 62.012L164.373 63.344C164.061 63.16 163.745 63.036 163.425 62.972C163.113 62.9 162.809 62.864 162.513 62.864C162.097 62.864 161.793 62.92 161.601 63.032C161.409 63.144 161.313 63.288 161.313 63.464C161.313 63.624 161.381 63.744 161.517 63.824C161.661 63.904 161.849 63.968 162.081 64.016C162.313 64.064 162.565 64.108 162.837 64.148C163.117 64.18 163.397 64.232 163.677 64.304C163.957 64.376 164.209 64.48 164.433 64.616C164.665 64.744 164.853 64.924 164.997 65.156C165.141 65.38 165.213 65.676 165.213 66.044C165.213 66.444 165.093 66.8 164.853 67.112C164.613 67.416 164.265 67.656 163.809 67.832C163.361 68.008 162.813 68.096 162.165 68.096ZM166.368 68V61.544H168.24V68H166.368ZM167.304 60.644C166.96 60.644 166.68 60.544 166.464 60.344C166.248 60.144 166.14 59.896 166.14 59.6C166.14 59.304 166.248 59.056 166.464 58.856C166.68 58.656 166.96 58.556 167.304 58.556C167.648 58.556 167.928 58.652 168.144 58.844C168.36 59.028 168.468 59.268 168.468 59.564C168.468 59.876 168.36 60.136 168.144 60.344C167.936 60.544 167.656 60.644 167.304 60.644ZM173.049 68.096C172.361 68.096 171.749 67.952 171.213 67.664C170.685 67.376 170.265 66.984 169.953 66.488C169.649 65.984 169.497 65.412 169.497 64.772C169.497 64.124 169.649 63.552 169.953 63.056C170.265 62.552 170.685 62.16 171.213 61.88C171.749 61.592 172.361 61.448 173.049 61.448C173.729 61.448 174.337 61.592 174.873 61.88C175.409 62.16 175.829 62.548 176.133 63.044C176.437 63.54 176.589 64.116 176.589 64.772C176.589 65.412 176.437 65.984 176.133 66.488C175.829 66.984 175.409 67.376 174.873 67.664C174.337 67.952 173.729 68.096 173.049 68.096ZM173.049 66.56C173.361 66.56 173.641 66.488 173.889 66.344C174.137 66.2 174.333 65.996 174.477 65.732C174.621 65.46 174.693 65.14 174.693 64.772C174.693 64.396 174.621 64.076 174.477 63.812C174.333 63.548 174.137 63.344 173.889 63.2C173.641 63.056 173.361 62.984 173.049 62.984C172.737 62.984 172.457 63.056 172.209 63.2C171.961 63.344 171.761 63.548 171.609 63.812C171.465 64.076 171.393 64.396 171.393 64.772C171.393 65.14 171.465 65.46 171.609 65.732C171.761 65.996 171.961 66.2 172.209 66.344C172.457 66.488 172.737 66.56 173.049 66.56ZM181.765 61.448C182.277 61.448 182.733 61.552 183.133 61.76C183.541 61.96 183.861 62.272 184.093 62.696C184.325 63.112 184.441 63.648 184.441 64.304V68H182.569V64.592C182.569 64.072 182.453 63.688 182.221 63.44C181.997 63.192 181.677 63.068 181.261 63.068C180.965 63.068 180.697 63.132 180.457 63.26C180.225 63.38 180.041 63.568 179.905 63.824C179.777 64.08 179.713 64.408 179.713 64.808V68H177.841V61.544H179.629V63.332L179.293 62.792C179.525 62.36 179.857 62.028 180.289 61.796C180.721 61.564 181.213 61.448 181.765 61.448ZM189.388 68.096C188.652 68.096 188.004 67.952 187.444 67.664C186.892 67.376 186.464 66.984 186.16 66.488C185.856 65.984 185.704 65.412 185.704 64.772C185.704 64.124 185.852 63.552 186.148 63.056C186.452 62.552 186.864 62.16 187.384 61.88C187.904 61.592 188.492 61.448 189.148 61.448C189.78 61.448 190.348 61.584 190.852 61.856C191.364 62.12 191.768 62.504 192.064 63.008C192.36 63.504 192.508 64.1 192.508 64.796C192.508 64.868 192.504 64.952 192.496 65.048C192.488 65.136 192.48 65.22 192.472 65.3H187.228V64.208H191.488L190.768 64.532C190.768 64.196 190.7 63.904 190.564 63.656C190.428 63.408 190.24 63.216 190 63.08C189.76 62.936 189.48 62.864 189.16 62.864C188.84 62.864 188.556 62.936 188.308 63.08C188.068 63.216 187.88 63.412 187.744 63.668C187.608 63.916 187.54 64.212 187.54 64.556V64.844C187.54 65.196 187.616 65.508 187.768 65.78C187.928 66.044 188.148 66.248 188.428 66.392C188.716 66.528 189.052 66.596 189.436 66.596C189.78 66.596 190.08 66.544 190.336 66.44C190.6 66.336 190.84 66.18 191.056 65.972L192.052 67.052C191.756 67.388 191.384 67.648 190.936 67.832C190.488 68.008 189.972 68.096 189.388 68.096ZM200.225 68.096C199.537 68.096 198.925 67.952 198.389 67.664C197.861 67.376 197.441 66.984 197.129 66.488C196.825 65.984 196.673 65.412 196.673 64.772C196.673 64.124 196.825 63.552 197.129 63.056C197.441 62.552 197.861 62.16 198.389 61.88C198.925 61.592 199.537 61.448 200.225 61.448C200.905 61.448 201.513 61.592 202.049 61.88C202.585 62.16 203.005 62.548 203.309 63.044C203.613 63.54 203.765 64.116 203.765 64.772C203.765 65.412 203.613 65.984 203.309 66.488C203.005 66.984 202.585 67.376 202.049 67.664C201.513 67.952 200.905 68.096 200.225 68.096ZM200.225 66.56C200.537 66.56 200.817 66.488 201.065 66.344C201.313 66.2 201.509 65.996 201.653 65.732C201.797 65.46 201.869 65.14 201.869 64.772C201.869 64.396 201.797 64.076 201.653 63.812C201.509 63.548 201.313 63.344 201.065 63.2C200.817 63.056 200.537 62.984 200.225 62.984C199.913 62.984 199.633 63.056 199.385 63.2C199.137 63.344 198.937 63.548 198.785 63.812C198.641 64.076 198.569 64.396 198.569 64.772C198.569 65.14 198.641 65.46 198.785 65.732C198.937 65.996 199.137 66.2 199.385 66.344C199.633 66.488 199.913 66.56 200.225 66.56ZM212.231 68.096C211.663 68.096 211.175 67.976 210.767 67.736C210.359 67.496 210.047 67.132 209.831 66.644C209.615 66.148 209.507 65.524 209.507 64.772C209.507 64.012 209.619 63.388 209.843 62.9C210.075 62.412 210.395 62.048 210.803 61.808C211.211 61.568 211.687 61.448 212.231 61.448C212.839 61.448 213.383 61.584 213.863 61.856C214.351 62.128 214.735 62.512 215.015 63.008C215.303 63.504 215.447 64.092 215.447 64.772C215.447 65.444 215.303 66.028 215.015 66.524C214.735 67.02 214.351 67.408 213.863 67.688C213.383 67.96 212.839 68.096 212.231 68.096ZM208.415 68V59.096H210.287V62.852L210.167 64.76L210.203 66.68V68H208.415ZM211.907 66.56C212.219 66.56 212.495 66.488 212.735 66.344C212.983 66.2 213.179 65.996 213.323 65.732C213.475 65.46 213.551 65.14 213.551 64.772C213.551 64.396 213.475 64.076 213.323 63.812C213.179 63.548 212.983 63.344 212.735 63.2C212.495 63.056 212.219 62.984 211.907 62.984C211.595 62.984 211.315 63.056 211.067 63.2C210.819 63.344 210.623 63.548 210.479 63.812C210.335 64.076 210.263 64.396 210.263 64.772C210.263 65.14 210.335 65.46 210.479 65.732C210.623 65.996 210.819 66.2 211.067 66.344C211.315 66.488 211.595 66.56 211.907 66.56ZM219.772 68.096C219.084 68.096 218.472 67.952 217.936 67.664C217.408 67.376 216.988 66.984 216.676 66.488C216.372 65.984 216.22 65.412 216.22 64.772C216.22 64.124 216.372 63.552 216.676 63.056C216.988 62.552 217.408 62.16 217.936 61.88C218.472 61.592 219.084 61.448 219.772 61.448C220.452 61.448 221.06 61.592 221.596 61.88C222.132 62.16 222.552 62.548 222.856 63.044C223.16 63.54 223.312 64.116 223.312 64.772C223.312 65.412 223.16 65.984 222.856 66.488C222.552 66.984 222.132 67.376 221.596 67.664C221.06 67.952 220.452 68.096 219.772 68.096ZM219.772 66.56C220.084 66.56 220.364 66.488 220.612 66.344C220.86 66.2 221.056 65.996 221.2 65.732C221.344 65.46 221.416 65.14 221.416 64.772C221.416 64.396 221.344 64.076 221.2 63.812C221.056 63.548 220.86 63.344 220.612 63.2C220.364 63.056 220.084 62.984 219.772 62.984C219.46 62.984 219.18 63.056 218.932 63.2C218.684 63.344 218.484 63.548 218.332 63.812C218.188 64.076 218.116 64.396 218.116 64.772C218.116 65.14 218.188 65.46 218.332 65.732C218.484 65.996 218.684 66.2 218.932 66.344C219.18 66.488 219.46 66.56 219.772 66.56ZM227.203 68.096C226.443 68.096 225.851 67.904 225.427 67.52C225.003 67.128 224.791 66.548 224.791 65.78V60.116H226.663V65.756C226.663 66.028 226.735 66.24 226.879 66.392C227.023 66.536 227.219 66.608 227.467 66.608C227.763 66.608 228.015 66.528 228.223 66.368L228.727 67.688C228.535 67.824 228.303 67.928 228.031 68C227.767 68.064 227.491 68.096 227.203 68.096ZM223.795 63.128V61.688H228.271V63.128H223.795ZM233.738 68V66.74L233.618 66.464V64.208C233.618 63.808 233.494 63.496 233.246 63.272C233.006 63.048 232.634 62.936 232.13 62.936C231.786 62.936 231.446 62.992 231.11 63.104C230.782 63.208 230.502 63.352 230.27 63.536L229.598 62.228C229.95 61.98 230.374 61.788 230.87 61.652C231.366 61.516 231.87 61.448 232.382 61.448C233.366 61.448 234.13 61.68 234.674 62.144C235.218 62.608 235.49 63.332 235.49 64.316V68H233.738ZM231.77 68.096C231.266 68.096 230.834 68.012 230.474 67.844C230.114 67.668 229.838 67.432 229.646 67.136C229.454 66.84 229.358 66.508 229.358 66.14C229.358 65.756 229.45 65.42 229.634 65.132C229.826 64.844 230.126 64.62 230.534 64.46C230.942 64.292 231.474 64.208 232.13 64.208H233.846V65.3H232.334C231.894 65.3 231.59 65.372 231.422 65.516C231.262 65.66 231.182 65.84 231.182 66.056C231.182 66.296 231.274 66.488 231.458 66.632C231.65 66.768 231.91 66.836 232.238 66.836C232.55 66.836 232.83 66.764 233.078 66.62C233.326 66.468 233.506 66.248 233.618 65.96L233.906 66.824C233.77 67.24 233.522 67.556 233.162 67.772C232.802 67.988 232.338 68.096 231.77 68.096ZM233.474 60.752C233.266 60.752 233.082 60.716 232.922 60.644C232.762 60.564 232.618 60.476 232.49 60.38C232.362 60.276 232.242 60.188 232.13 60.116C232.018 60.036 231.906 59.996 231.794 59.996C231.634 59.996 231.502 60.056 231.398 60.176C231.294 60.288 231.234 60.452 231.218 60.668H230.27C230.286 60.132 230.418 59.708 230.666 59.396C230.914 59.076 231.25 58.916 231.674 58.916C231.882 58.916 232.066 58.956 232.226 59.036C232.386 59.108 232.53 59.196 232.658 59.3C232.794 59.404 232.918 59.496 233.03 59.576C233.142 59.648 233.25 59.684 233.354 59.684C233.522 59.684 233.658 59.628 233.762 59.516C233.866 59.396 233.922 59.236 233.93 59.036H234.878C234.87 59.548 234.738 59.964 234.482 60.284C234.234 60.596 233.898 60.752 233.474 60.752ZM240.303 68.096C239.615 68.096 239.003 67.952 238.467 67.664C237.939 67.376 237.519 66.984 237.207 66.488C236.903 65.984 236.751 65.412 236.751 64.772C236.751 64.124 236.903 63.552 237.207 63.056C237.519 62.552 237.939 62.16 238.467 61.88C239.003 61.592 239.615 61.448 240.303 61.448C240.983 61.448 241.591 61.592 242.127 61.88C242.663 62.16 243.083 62.548 243.387 63.044C243.691 63.54 243.843 64.116 243.843 64.772C243.843 65.412 243.691 65.984 243.387 66.488C243.083 66.984 242.663 67.376 242.127 67.664C241.591 67.952 240.983 68.096 240.303 68.096ZM240.303 66.56C240.615 66.56 240.895 66.488 241.143 66.344C241.391 66.2 241.587 65.996 241.731 65.732C241.875 65.46 241.947 65.14 241.947 64.772C241.947 64.396 241.875 64.076 241.731 63.812C241.587 63.548 241.391 63.344 241.143 63.2C240.895 63.056 240.615 62.984 240.303 62.984C239.991 62.984 239.711 63.056 239.463 63.2C239.215 63.344 239.015 63.548 238.863 63.812C238.719 64.076 238.647 64.396 238.647 64.772C238.647 65.14 238.719 65.46 238.863 65.732C239.015 65.996 239.215 66.2 239.463 66.344C239.711 66.488 239.991 66.56 240.303 66.56ZM248.625 68V59.6H250.569V68H248.625ZM256.354 61.448C256.866 61.448 257.322 61.552 257.722 61.76C258.13 61.96 258.45 62.272 258.682 62.696C258.914 63.112 259.03 63.648 259.03 64.304V68H257.158V64.592C257.158 64.072 257.042 63.688 256.81 63.44C256.586 63.192 256.266 63.068 255.85 63.068C255.554 63.068 255.286 63.132 255.046 63.26C254.814 63.38 254.63 63.568 254.494 63.824C254.366 64.08 254.302 64.408 254.302 64.808V68H252.43V61.544H254.218V63.332L253.882 62.792C254.114 62.36 254.446 62.028 254.878 61.796C255.31 61.564 255.802 61.448 256.354 61.448ZM260.727 68V61.544H262.599V68H260.727ZM261.663 60.644C261.319 60.644 261.039 60.544 260.823 60.344C260.607 60.144 260.499 59.896 260.499 59.6C260.499 59.304 260.607 59.056 260.823 58.856C261.039 58.656 261.319 58.556 261.663 58.556C262.007 58.556 262.287 58.652 262.503 58.844C262.719 59.028 262.827 59.268 262.827 59.564C262.827 59.876 262.719 60.136 262.503 60.344C262.295 60.544 262.015 60.644 261.663 60.644ZM267.457 68.096C266.761 68.096 266.141 67.956 265.597 67.676C265.053 67.388 264.625 66.992 264.313 66.488C264.009 65.984 263.857 65.412 263.857 64.772C263.857 64.124 264.009 63.552 264.313 63.056C264.625 62.552 265.053 62.16 265.597 61.88C266.141 61.592 266.761 61.448 267.457 61.448C268.137 61.448 268.729 61.592 269.233 61.88C269.737 62.16 270.109 62.564 270.349 63.092L268.897 63.872C268.729 63.568 268.517 63.344 268.261 63.2C268.013 63.056 267.741 62.984 267.445 62.984C267.125 62.984 266.837 63.056 266.581 63.2C266.325 63.344 266.121 63.548 265.969 63.812C265.825 64.076 265.753 64.396 265.753 64.772C265.753 65.148 265.825 65.468 265.969 65.732C266.121 65.996 266.325 66.2 266.581 66.344C266.837 66.488 267.125 66.56 267.445 66.56C267.741 66.56 268.013 66.492 268.261 66.356C268.517 66.212 268.729 65.984 268.897 65.672L270.349 66.464C270.109 66.984 269.737 67.388 269.233 67.676C268.729 67.956 268.137 68.096 267.457 68.096ZM271.391 68V61.544H273.263V68H271.391ZM272.327 60.644C271.983 60.644 271.703 60.544 271.487 60.344C271.271 60.144 271.163 59.896 271.163 59.6C271.163 59.304 271.271 59.056 271.487 58.856C271.703 58.656 271.983 58.556 272.327 58.556C272.671 58.556 272.951 58.652 273.167 58.844C273.383 59.028 273.491 59.268 273.491 59.564C273.491 59.876 273.383 60.136 273.167 60.344C272.959 60.544 272.679 60.644 272.327 60.644ZM278.961 68V66.74L278.841 66.464V64.208C278.841 63.808 278.717 63.496 278.469 63.272C278.229 63.048 277.857 62.936 277.353 62.936C277.009 62.936 276.669 62.992 276.333 63.104C276.005 63.208 275.725 63.352 275.493 63.536L274.821 62.228C275.173 61.98 275.597 61.788 276.093 61.652C276.589 61.516 277.093 61.448 277.605 61.448C278.589 61.448 279.353 61.68 279.897 62.144C280.441 62.608 280.713 63.332 280.713 64.316V68H278.961ZM276.993 68.096C276.489 68.096 276.057 68.012 275.697 67.844C275.337 67.668 275.061 67.432 274.869 67.136C274.677 66.84 274.581 66.508 274.581 66.14C274.581 65.756 274.673 65.42 274.857 65.132C275.049 64.844 275.349 64.62 275.757 64.46C276.165 64.292 276.697 64.208 277.353 64.208H279.069V65.3H277.557C277.117 65.3 276.813 65.372 276.645 65.516C276.485 65.66 276.405 65.84 276.405 66.056C276.405 66.296 276.497 66.488 276.681 66.632C276.873 66.768 277.133 66.836 277.461 66.836C277.773 66.836 278.053 66.764 278.301 66.62C278.549 66.468 278.729 66.248 278.841 65.96L279.129 66.824C278.993 67.24 278.745 67.556 278.385 67.772C278.025 67.988 277.561 68.096 276.993 68.096ZM282.407 68V61.544H284.195V63.368L283.943 62.84C284.135 62.384 284.443 62.04 284.867 61.808C285.291 61.568 285.807 61.448 286.415 61.448V63.176C286.335 63.168 286.263 63.164 286.199 63.164C286.135 63.156 286.067 63.152 285.995 63.152C285.483 63.152 285.067 63.3 284.747 63.596C284.435 63.884 284.279 64.336 284.279 64.952V68H282.407ZM288.166 68.096C287.846 68.096 287.57 67.988 287.338 67.772C287.114 67.548 287.002 67.264 287.002 66.92C287.002 66.576 287.114 66.3 287.338 66.092C287.57 65.876 287.846 65.768 288.166 65.768C288.494 65.768 288.77 65.876 288.994 66.092C289.218 66.3 289.33 66.576 289.33 66.92C289.33 67.264 289.218 67.548 288.994 67.772C288.77 67.988 288.494 68.096 288.166 68.096Z" fill="#333333"/>
</g>
<defs>
<filter id="filter0_d_10_3445" x="0" y="0" width="380" height="224" filterUnits="userSpaceOnUse" color-interpolation-filters="sRGB">
<feFlood flood-opacity="0" result="BackgroundImageFix"/>
<feColorMatrix in="SourceAlpha" type="matrix" values="0 0 0 0 0 0 0 0 0 0 0 0 0 0 0 0 0 0 127 0" result="hardAlpha"/>
<feOffset dy="4"/>
<feColorMatrix type="matrix" values="0 0 0 0 0 0 0 0 0 0 0 0 0 0 0 0 0 0 0.25 0"/>
<feBlend mode="normal" in2="BackgroundImageFix" result="effect1_dropShadow_10_3445"/>
<feBlend mode="normal" in="SourceGraphic" in2="effect1_dropShadow_10_3445" result="shape"/>
</filter>
</defs>
</svg>
