<svg width="380" height="224" viewBox="0 0 380 224" fill="none" xmlns="http://www.w3.org/2000/svg">
<g filter="url(#filter0_d_10_3295)">
<rect width="380" height="220" rx="20" fill="#F2F2F2"/>
<path fill-rule="evenodd" clip-rule="evenodd" d="M315 98.9846C315 87.9995 306 78.9922 295 78.9922C233.172 78.9922 208 78.9995 208 78.9995L200 86.9996H163L154 78.9993H119.147C108.147 78.9993 99.1467 87.9995 99.1467 98.9919C99.1467 98.9992 99.1467 99.0068 99.1467 99.0143C99.1467 110 108.147 119 119.147 119C135.71 119 154 119 154 119L163 127H200L208 119H295.147C306 119 315 110 315 99.0071C315 98.9995 315 99.4995 315 98.9846Z" fill="#30DCFF"/>
<path fill-rule="evenodd" clip-rule="evenodd" d="M315 98.9888C315 88 306 79 294.853 79C233.025 79 208 79.0001 208 79.0001L200 87H163L154 79.0001H119C108 79.0001 99 88.0001 99 98.9888C99 98.9962 99 99.0001 99 99.0001H104C104 89 111 84.0001 119 84.0001C133.664 84.0001 152 84 152 84L161 92H202L210 84H295C304 84 310 90 310 98.9998L315 99V98.9888Z" fill="white" fill-opacity="0.5"/>
<path fill-rule="evenodd" clip-rule="evenodd" d="M315 99L310 99C310 107.971 304.197 114 295 114C237.995 114 206 114 206 114L198 122H165L156 114H119C108.496 114 104 108 104 99.0015L99 99V99.0112C99 110 108 119 119 119C135.563 119 154 119 154 119L163 127H200L208 119H295C306 119 315 110 315 99Z" fill="black" fill-opacity="0.25"/>
<path d="M110.128 107V98.6H111.688V107H110.128ZM117.452 100.52C117.964 100.52 118.42 100.62 118.82 100.82C119.228 101.02 119.548 101.328 119.78 101.744C120.012 102.152 120.128 102.68 120.128 103.328V107H118.628V103.52C118.628 102.952 118.492 102.528 118.22 102.248C117.956 101.968 117.584 101.828 117.104 101.828C116.752 101.828 116.44 101.9 116.168 102.044C115.896 102.188 115.684 102.404 115.532 102.692C115.388 102.972 115.316 103.328 115.316 103.76V107H113.816V100.592H115.244V102.32L114.992 101.792C115.216 101.384 115.54 101.072 115.964 100.856C116.396 100.632 116.892 100.52 117.452 100.52ZM122.031 107V100.592H123.531V107H122.031ZM122.787 99.536C122.507 99.536 122.275 99.448 122.091 99.272C121.915 99.096 121.827 98.884 121.827 98.636C121.827 98.38 121.915 98.168 122.091 98C122.275 97.824 122.507 97.736 122.787 97.736C123.067 97.736 123.295 97.82 123.471 97.988C123.655 98.148 123.747 98.352 123.747 98.6C123.747 98.864 123.659 99.088 123.483 99.272C123.307 99.448 123.075 99.536 122.787 99.536ZM128.44 107.084C127.768 107.084 127.168 106.944 126.64 106.664C126.12 106.376 125.712 105.984 125.416 105.488C125.12 104.992 124.972 104.428 124.972 103.796C124.972 103.156 125.12 102.592 125.416 102.104C125.712 101.608 126.12 101.22 126.64 100.94C127.168 100.66 127.768 100.52 128.44 100.52C129.064 100.52 129.612 100.648 130.084 100.904C130.564 101.152 130.928 101.52 131.176 102.008L130.024 102.68C129.832 102.376 129.596 102.152 129.316 102.008C129.044 101.864 128.748 101.792 128.428 101.792C128.06 101.792 127.728 101.872 127.432 102.032C127.136 102.192 126.904 102.424 126.736 102.728C126.568 103.024 126.484 103.38 126.484 103.796C126.484 104.212 126.568 104.572 126.736 104.876C126.904 105.172 127.136 105.4 127.432 105.56C127.728 105.72 128.06 105.8 128.428 105.8C128.748 105.8 129.044 105.728 129.316 105.584C129.596 105.44 129.832 105.216 130.024 104.912L131.176 105.584C130.928 106.064 130.564 106.436 130.084 106.7C129.612 106.956 129.064 107.084 128.44 107.084ZM132.414 107V100.592H133.914V107H132.414ZM133.17 99.536C132.89 99.536 132.658 99.448 132.474 99.272C132.298 99.096 132.21 98.884 132.21 98.636C132.21 98.38 132.298 98.168 132.474 98C132.658 97.824 132.89 97.736 133.17 97.736C133.45 97.736 133.678 97.82 133.854 97.988C134.038 98.148 134.13 98.352 134.13 98.6C134.13 98.864 134.042 99.088 133.866 99.272C133.69 99.448 133.458 99.536 133.17 99.536ZM138.894 107.084C138.182 107.084 137.558 106.944 137.022 106.664C136.494 106.376 136.082 105.984 135.786 105.488C135.498 104.992 135.354 104.428 135.354 103.796C135.354 103.156 135.494 102.592 135.774 102.104C136.062 101.608 136.454 101.22 136.95 100.94C137.454 100.66 138.026 100.52 138.666 100.52C139.29 100.52 139.846 100.656 140.334 100.928C140.822 101.2 141.206 101.584 141.486 102.08C141.766 102.576 141.906 103.16 141.906 103.832C141.906 103.896 141.902 103.968 141.894 104.048C141.894 104.128 141.89 104.204 141.882 104.276H136.542V103.28H141.09L140.502 103.592C140.51 103.224 140.434 102.9 140.274 102.62C140.114 102.34 139.894 102.12 139.614 101.96C139.342 101.8 139.026 101.72 138.666 101.72C138.298 101.72 137.974 101.8 137.694 101.96C137.422 102.12 137.206 102.344 137.046 102.632C136.894 102.912 136.818 103.244 136.818 103.628V103.868C136.818 104.252 136.906 104.592 137.082 104.888C137.258 105.184 137.506 105.412 137.826 105.572C138.146 105.732 138.514 105.812 138.93 105.812C139.29 105.812 139.614 105.756 139.902 105.644C140.19 105.532 140.446 105.356 140.67 105.116L141.474 106.04C141.186 106.376 140.822 106.636 140.382 106.82C139.95 106.996 139.454 107.084 138.894 107.084ZM149.544 107.084C148.888 107.084 148.304 106.944 147.792 106.664C147.28 106.376 146.876 105.984 146.58 105.488C146.284 104.992 146.136 104.428 146.136 103.796C146.136 103.156 146.284 102.592 146.58 102.104C146.876 101.608 147.28 101.22 147.792 100.94C148.304 100.66 148.888 100.52 149.544 100.52C150.208 100.52 150.796 100.66 151.308 100.94C151.828 101.22 152.232 101.604 152.52 102.092C152.816 102.58 152.964 103.148 152.964 103.796C152.964 104.428 152.816 104.992 152.52 105.488C152.232 105.984 151.828 106.376 151.308 106.664C150.796 106.944 150.208 107.084 149.544 107.084ZM149.544 105.8C149.912 105.8 150.24 105.72 150.528 105.56C150.816 105.4 151.04 105.168 151.2 104.864C151.368 104.56 151.452 104.204 151.452 103.796C151.452 103.38 151.368 103.024 151.2 102.728C151.04 102.424 150.816 102.192 150.528 102.032C150.24 101.872 149.916 101.792 149.556 101.792C149.188 101.792 148.86 101.872 148.572 102.032C148.292 102.192 148.068 102.424 147.9 102.728C147.732 103.024 147.648 103.38 147.648 103.796C147.648 104.204 147.732 104.56 147.9 104.864C148.068 105.168 148.292 105.4 148.572 105.56C148.86 105.72 149.184 105.8 149.544 105.8ZM160.726 107.084C160.014 107.084 159.39 106.944 158.854 106.664C158.326 106.376 157.914 105.984 157.618 105.488C157.33 104.992 157.186 104.428 157.186 103.796C157.186 103.156 157.326 102.592 157.606 102.104C157.894 101.608 158.286 101.22 158.782 100.94C159.286 100.66 159.858 100.52 160.498 100.52C161.122 100.52 161.678 100.656 162.166 100.928C162.654 101.2 163.038 101.584 163.318 102.08C163.598 102.576 163.738 103.16 163.738 103.832C163.738 103.896 163.734 103.968 163.726 104.048C163.726 104.128 163.722 104.204 163.714 104.276H158.374V103.28H162.922L162.334 103.592C162.342 103.224 162.266 102.9 162.106 102.62C161.946 102.34 161.726 102.12 161.446 101.96C161.174 101.8 160.858 101.72 160.498 101.72C160.13 101.72 159.806 101.8 159.526 101.96C159.254 102.12 159.038 102.344 158.878 102.632C158.726 102.912 158.65 103.244 158.65 103.628V103.868C158.65 104.252 158.738 104.592 158.914 104.888C159.09 105.184 159.338 105.412 159.658 105.572C159.978 105.732 160.346 105.812 160.762 105.812C161.122 105.812 161.446 105.756 161.734 105.644C162.022 105.532 162.278 105.356 162.502 105.116L163.306 106.04C163.018 106.376 162.654 106.636 162.214 106.82C161.782 106.996 161.286 107.084 160.726 107.084ZM164.128 107L166.948 103.328L166.924 104.132L164.236 100.592H165.904L167.788 103.112H167.152L169.048 100.592H170.668L167.956 104.132L167.968 103.328L170.776 107H169.084L167.104 104.324L167.728 104.408L165.784 107H164.128ZM175.434 107.084C174.914 107.084 174.438 106.964 174.006 106.724C173.582 106.484 173.242 106.124 172.986 105.644C172.738 105.156 172.614 104.54 172.614 103.796C172.614 103.044 172.734 102.428 172.974 101.948C173.222 101.468 173.558 101.112 173.982 100.88C174.406 100.64 174.89 100.52 175.434 100.52C176.066 100.52 176.622 100.656 177.102 100.928C177.59 101.2 177.974 101.58 178.254 102.068C178.542 102.556 178.686 103.132 178.686 103.796C178.686 104.46 178.542 105.04 178.254 105.536C177.974 106.024 177.59 106.404 177.102 106.676C176.622 106.948 176.066 107.084 175.434 107.084ZM171.882 109.328V100.592H173.31V102.104L173.262 103.808L173.382 105.512V109.328H171.882ZM175.266 105.8C175.626 105.8 175.946 105.72 176.226 105.56C176.514 105.4 176.742 105.168 176.91 104.864C177.078 104.56 177.162 104.204 177.162 103.796C177.162 103.38 177.078 103.024 176.91 102.728C176.742 102.424 176.514 102.192 176.226 102.032C175.946 101.872 175.626 101.792 175.266 101.792C174.906 101.792 174.582 101.872 174.294 102.032C174.006 102.192 173.778 102.424 173.61 102.728C173.442 103.024 173.358 103.38 173.358 103.796C173.358 104.204 173.442 104.56 173.61 104.864C173.778 105.168 174.006 105.4 174.294 105.56C174.582 105.72 174.906 105.8 175.266 105.8ZM180.109 107V98.096H181.609V107H180.109ZM186.458 107.084C185.802 107.084 185.218 106.944 184.706 106.664C184.194 106.376 183.79 105.984 183.494 105.488C183.198 104.992 183.05 104.428 183.05 103.796C183.05 103.156 183.198 102.592 183.494 102.104C183.79 101.608 184.194 101.22 184.706 100.94C185.218 100.66 185.802 100.52 186.458 100.52C187.122 100.52 187.71 100.66 188.222 100.94C188.742 101.22 189.146 101.604 189.434 102.092C189.73 102.58 189.878 103.148 189.878 103.796C189.878 104.428 189.73 104.992 189.434 105.488C189.146 105.984 188.742 106.376 188.222 106.664C187.71 106.944 187.122 107.084 186.458 107.084ZM186.458 105.8C186.826 105.8 187.154 105.72 187.442 105.56C187.73 105.4 187.954 105.168 188.114 104.864C188.282 104.56 188.366 104.204 188.366 103.796C188.366 103.38 188.282 103.024 188.114 102.728C187.954 102.424 187.73 102.192 187.442 102.032C187.154 101.872 186.83 101.792 186.47 101.792C186.102 101.792 185.774 101.872 185.486 102.032C185.206 102.192 184.982 102.424 184.814 102.728C184.646 103.024 184.562 103.38 184.562 103.796C184.562 104.204 184.646 104.56 184.814 104.864C184.982 105.168 185.206 105.4 185.486 105.56C185.774 105.72 186.098 105.8 186.458 105.8ZM191.312 107V100.592H192.74V102.356L192.572 101.84C192.764 101.408 193.064 101.08 193.472 100.856C193.888 100.632 194.404 100.52 195.02 100.52V101.948C194.956 101.932 194.896 101.924 194.84 101.924C194.784 101.916 194.728 101.912 194.672 101.912C194.104 101.912 193.652 102.08 193.316 102.416C192.98 102.744 192.812 103.236 192.812 103.892V107H191.312ZM199.784 107V105.704L199.7 105.428V103.16C199.7 102.72 199.568 102.38 199.304 102.14C199.04 101.892 198.64 101.768 198.104 101.768C197.744 101.768 197.388 101.824 197.036 101.936C196.692 102.048 196.4 102.204 196.16 102.404L195.572 101.312C195.916 101.048 196.324 100.852 196.796 100.724C197.276 100.588 197.772 100.52 198.284 100.52C199.212 100.52 199.928 100.744 200.432 101.192C200.944 101.632 201.2 102.316 201.2 103.244V107H199.784ZM197.768 107.084C197.288 107.084 196.868 107.004 196.508 106.844C196.148 106.676 195.868 106.448 195.668 106.16C195.476 105.864 195.38 105.532 195.38 105.164C195.38 104.804 195.464 104.48 195.632 104.192C195.808 103.904 196.092 103.676 196.484 103.508C196.876 103.34 197.396 103.256 198.044 103.256H199.904V104.252H198.152C197.64 104.252 197.296 104.336 197.12 104.504C196.944 104.664 196.856 104.864 196.856 105.104C196.856 105.376 196.964 105.592 197.18 105.752C197.396 105.912 197.696 105.992 198.08 105.992C198.448 105.992 198.776 105.908 199.064 105.74C199.36 105.572 199.572 105.324 199.7 104.996L199.952 105.896C199.808 106.272 199.548 106.564 199.172 106.772C198.804 106.98 198.336 107.084 197.768 107.084ZM205.848 107.084C205.232 107.084 204.676 106.948 204.18 106.676C203.692 106.396 203.308 106.012 203.028 105.524C202.748 105.036 202.608 104.46 202.608 103.796C202.608 103.132 202.748 102.556 203.028 102.068C203.308 101.58 203.692 101.2 204.18 100.928C204.676 100.656 205.232 100.52 205.848 100.52C206.384 100.52 206.864 100.64 207.288 100.88C207.712 101.112 208.048 101.468 208.296 101.948C208.544 102.428 208.668 103.044 208.668 103.796C208.668 104.54 208.548 105.156 208.308 105.644C208.068 106.124 207.736 106.484 207.312 106.724C206.888 106.964 206.4 107.084 205.848 107.084ZM206.028 105.8C206.388 105.8 206.708 105.72 206.988 105.56C207.276 105.4 207.504 105.168 207.672 104.864C207.848 104.56 207.936 104.204 207.936 103.796C207.936 103.38 207.848 103.024 207.672 102.728C207.504 102.424 207.276 102.192 206.988 102.032C206.708 101.872 206.388 101.792 206.028 101.792C205.668 101.792 205.344 101.872 205.056 102.032C204.776 102.192 204.548 102.424 204.372 102.728C204.204 103.024 204.12 103.38 204.12 103.796C204.12 104.204 204.204 104.56 204.372 104.864C204.548 105.168 204.776 105.4 205.056 105.56C205.344 105.72 205.668 105.8 206.028 105.8ZM207.972 107V105.488L208.032 103.784L207.912 102.08V98.096H209.4V107H207.972ZM214.255 107.084C213.599 107.084 213.015 106.944 212.503 106.664C211.991 106.376 211.587 105.984 211.291 105.488C210.995 104.992 210.847 104.428 210.847 103.796C210.847 103.156 210.995 102.592 211.291 102.104C211.587 101.608 211.991 101.22 212.503 100.94C213.015 100.66 213.599 100.52 214.255 100.52C214.919 100.52 215.507 100.66 216.019 100.94C216.539 101.22 216.943 101.604 217.231 102.092C217.527 102.58 217.675 103.148 217.675 103.796C217.675 104.428 217.527 104.992 217.231 105.488C216.943 105.984 216.539 106.376 216.019 106.664C215.507 106.944 214.919 107.084 214.255 107.084ZM214.255 105.8C214.623 105.8 214.951 105.72 215.239 105.56C215.527 105.4 215.751 105.168 215.911 104.864C216.079 104.56 216.163 104.204 216.163 103.796C216.163 103.38 216.079 103.024 215.911 102.728C215.751 102.424 215.527 102.192 215.239 102.032C214.951 101.872 214.627 101.792 214.267 101.792C213.899 101.792 213.571 101.872 213.283 102.032C213.003 102.192 212.779 102.424 212.611 102.728C212.443 103.024 212.359 103.38 212.359 103.796C212.359 104.204 212.443 104.56 212.611 104.864C212.779 105.168 213.003 105.4 213.283 105.56C213.571 105.72 213.895 105.8 214.255 105.8ZM219.109 107V100.592H220.537V102.356L220.369 101.84C220.561 101.408 220.861 101.08 221.269 100.856C221.685 100.632 222.201 100.52 222.817 100.52V101.948C222.753 101.932 222.693 101.924 222.637 101.924C222.581 101.916 222.525 101.912 222.469 101.912C221.901 101.912 221.449 102.08 221.113 102.416C220.777 102.744 220.609 103.236 220.609 103.892V107H219.109Z" fill="#333333"/>
<path fill-rule="evenodd" clip-rule="evenodd" d="M315 137.985C315 127 306 117.992 295 117.992C233.172 117.992 208 118 208 118L200 126H163L154 117.999H119.147C108.147 117.999 99.1467 127 99.1467 137.992C99.1467 137.999 99.1467 138.007 99.1467 138.014C99.1467 149 108.147 158 119.147 158C135.71 158 154 158 154 158L163 166H200L208 158H295.147C306 158 315 149 315 138.007C315 138 315 138.5 315 137.985Z" fill="#30DCFF"/>
<path fill-rule="evenodd" clip-rule="evenodd" d="M315 137.989C315 127 306 118 294.853 118C233.025 118 208 118 208 118L200 126H163L154 118H119C108 118 99 127 99 137.989C99 137.996 99 138 99 138H104C104 128 111 123 119 123C133.664 123 152 123 152 123L161 131H202L210 123H295C304 123 310 129 310 138L315 138V137.989Z" fill="white" fill-opacity="0.5"/>
<path fill-rule="evenodd" clip-rule="evenodd" d="M315 138L310 138C310 146.971 304.197 153 295 153C237.995 153 206 153 206 153L198 161H165L156 153H119C108.496 153 104 147 104 138.001L99 138V138.011C99 149 108 158 119 158C135.563 158 154 158 154 158L163 166H200L208 158H295C306 158 315 149 315 138Z" fill="black" fill-opacity="0.25"/>
<path d="M111.14 141.91H114.62V142.98H111.14V141.91ZM111.24 144.91H115.19V146H109.94V139H115.05V140.09H111.24V144.91ZM119.549 140.6C119.976 140.6 120.356 140.683 120.689 140.85C121.029 141.017 121.296 141.273 121.489 141.62C121.683 141.96 121.779 142.4 121.779 142.94V146H120.529V143.1C120.529 142.627 120.416 142.273 120.189 142.04C119.969 141.807 119.659 141.69 119.259 141.69C118.966 141.69 118.706 141.75 118.479 141.87C118.253 141.99 118.076 142.17 117.949 142.41C117.829 142.643 117.769 142.94 117.769 143.3V146H116.519V140.66H117.709V142.1L117.499 141.66C117.686 141.32 117.956 141.06 118.309 140.88C118.669 140.693 119.083 140.6 119.549 140.6ZM125.375 146.07C124.788 146.07 124.335 145.92 124.015 145.62C123.695 145.313 123.535 144.863 123.535 144.27V139.48H124.785V144.24C124.785 144.493 124.848 144.69 124.975 144.83C125.108 144.97 125.292 145.04 125.525 145.04C125.805 145.04 126.038 144.967 126.225 144.82L126.575 145.71C126.428 145.83 126.248 145.92 126.035 145.98C125.822 146.04 125.602 146.07 125.375 146.07ZM122.655 141.7V140.7H126.215V141.7H122.655ZM127.603 146V140.66H128.793V142.13L128.653 141.7C128.813 141.34 129.063 141.067 129.403 140.88C129.75 140.693 130.18 140.6 130.693 140.6V141.79C130.64 141.777 130.59 141.77 130.543 141.77C130.497 141.763 130.45 141.76 130.403 141.76C129.93 141.76 129.553 141.9 129.273 142.18C128.993 142.453 128.853 142.863 128.853 143.41V146H127.603ZM134.215 146.07C133.621 146.07 133.101 145.953 132.655 145.72C132.215 145.48 131.871 145.153 131.625 144.74C131.385 144.327 131.265 143.857 131.265 143.33C131.265 142.797 131.381 142.327 131.615 141.92C131.855 141.507 132.181 141.183 132.595 140.95C133.015 140.717 133.491 140.6 134.025 140.6C134.545 140.6 135.008 140.713 135.415 140.94C135.821 141.167 136.141 141.487 136.375 141.9C136.608 142.313 136.725 142.8 136.725 143.36C136.725 143.413 136.721 143.473 136.715 143.54C136.715 143.607 136.711 143.67 136.705 143.73H132.255V142.9H136.045L135.555 143.16C135.561 142.853 135.498 142.583 135.365 142.35C135.231 142.117 135.048 141.933 134.815 141.8C134.588 141.667 134.325 141.6 134.025 141.6C133.718 141.6 133.448 141.667 133.215 141.8C132.988 141.933 132.808 142.12 132.675 142.36C132.548 142.593 132.485 142.87 132.485 143.19V143.39C132.485 143.71 132.558 143.993 132.705 144.24C132.851 144.487 133.058 144.677 133.325 144.81C133.591 144.943 133.898 145.01 134.245 145.01C134.545 145.01 134.815 144.963 135.055 144.87C135.295 144.777 135.508 144.63 135.695 144.43L136.365 145.2C136.125 145.48 135.821 145.697 135.455 145.85C135.095 145.997 134.681 146.07 134.215 146.07ZM143.719 140.6C144.146 140.6 144.526 140.683 144.859 140.85C145.199 141.017 145.466 141.273 145.659 141.62C145.852 141.96 145.949 142.4 145.949 142.94V146H144.699V143.1C144.699 142.627 144.586 142.273 144.359 142.04C144.139 141.807 143.829 141.69 143.429 141.69C143.136 141.69 142.876 141.75 142.649 141.87C142.422 141.99 142.246 142.17 142.119 142.41C141.999 142.643 141.939 142.94 141.939 143.3V146H140.689V140.66H141.879V142.1L141.669 141.66C141.856 141.32 142.126 141.06 142.479 140.88C142.839 140.693 143.252 140.6 143.719 140.6ZM149.945 146.07C149.398 146.07 148.911 145.953 148.485 145.72C148.058 145.48 147.721 145.153 147.475 144.74C147.228 144.327 147.105 143.857 147.105 143.33C147.105 142.797 147.228 142.327 147.475 141.92C147.721 141.507 148.058 141.183 148.485 140.95C148.911 140.717 149.398 140.6 149.945 140.6C150.498 140.6 150.988 140.717 151.415 140.95C151.848 141.183 152.185 141.503 152.425 141.91C152.671 142.317 152.795 142.79 152.795 143.33C152.795 143.857 152.671 144.327 152.425 144.74C152.185 145.153 151.848 145.48 151.415 145.72C150.988 145.953 150.498 146.07 149.945 146.07ZM149.945 145C150.251 145 150.525 144.933 150.765 144.8C151.005 144.667 151.191 144.473 151.325 144.22C151.465 143.967 151.535 143.67 151.535 143.33C151.535 142.983 151.465 142.687 151.325 142.44C151.191 142.187 151.005 141.993 150.765 141.86C150.525 141.727 150.255 141.66 149.955 141.66C149.648 141.66 149.375 141.727 149.135 141.86C148.901 141.993 148.715 142.187 148.575 142.44C148.435 142.687 148.365 142.983 148.365 143.33C148.365 143.67 148.435 143.967 148.575 144.22C148.715 144.473 148.901 144.667 149.135 144.8C149.375 144.933 149.645 145 149.945 145ZM163.494 140.6C163.92 140.6 164.297 140.683 164.624 140.85C164.957 141.017 165.217 141.273 165.404 141.62C165.59 141.96 165.684 142.4 165.684 142.94V146H164.434V143.1C164.434 142.627 164.33 142.273 164.124 142.04C163.917 141.807 163.62 141.69 163.234 141.69C162.96 141.69 162.717 141.75 162.504 141.87C162.297 141.99 162.134 142.167 162.014 142.4C161.9 142.633 161.844 142.93 161.844 143.29V146H160.594V143.1C160.594 142.627 160.49 142.273 160.284 142.04C160.077 141.807 159.78 141.69 159.394 141.69C159.12 141.69 158.877 141.75 158.664 141.87C158.457 141.99 158.294 142.167 158.174 142.4C158.06 142.633 158.004 142.93 158.004 143.29V146H156.754V140.66H157.944V142.08L157.734 141.66C157.914 141.313 158.174 141.05 158.514 140.87C158.86 140.69 159.254 140.6 159.694 140.6C160.194 140.6 160.627 140.723 160.994 140.97C161.367 141.217 161.614 141.59 161.734 142.09L161.244 141.92C161.417 141.52 161.704 141.2 162.104 140.96C162.504 140.72 162.967 140.6 163.494 140.6ZM169.801 146.07C169.207 146.07 168.687 145.953 168.241 145.72C167.801 145.48 167.457 145.153 167.211 144.74C166.971 144.327 166.851 143.857 166.851 143.33C166.851 142.797 166.967 142.327 167.201 141.92C167.441 141.507 167.767 141.183 168.181 140.95C168.601 140.717 169.077 140.6 169.611 140.6C170.131 140.6 170.594 140.713 171.001 140.94C171.407 141.167 171.727 141.487 171.961 141.9C172.194 142.313 172.311 142.8 172.311 143.36C172.311 143.413 172.307 143.473 172.301 143.54C172.301 143.607 172.297 143.67 172.291 143.73H167.841V142.9H171.631L171.141 143.16C171.147 142.853 171.084 142.583 170.951 142.35C170.817 142.117 170.634 141.933 170.401 141.8C170.174 141.667 169.911 141.6 169.611 141.6C169.304 141.6 169.034 141.667 168.801 141.8C168.574 141.933 168.394 142.12 168.261 142.36C168.134 142.593 168.071 142.87 168.071 143.19V143.39C168.071 143.71 168.144 143.993 168.291 144.24C168.437 144.487 168.644 144.677 168.911 144.81C169.177 144.943 169.484 145.01 169.831 145.01C170.131 145.01 170.401 144.963 170.641 144.87C170.881 144.777 171.094 144.63 171.281 144.43L171.951 145.2C171.711 145.48 171.407 145.697 171.041 145.85C170.681 145.997 170.267 146.07 169.801 146.07ZM175.961 146.07C175.401 146.07 174.901 145.953 174.461 145.72C174.028 145.48 173.688 145.153 173.441 144.74C173.195 144.327 173.071 143.857 173.071 143.33C173.071 142.797 173.195 142.327 173.441 141.92C173.688 141.507 174.028 141.183 174.461 140.95C174.901 140.717 175.401 140.6 175.961 140.6C176.481 140.6 176.938 140.707 177.331 140.92C177.731 141.127 178.035 141.433 178.241 141.84L177.281 142.4C177.121 142.147 176.925 141.96 176.691 141.84C176.465 141.72 176.218 141.66 175.951 141.66C175.645 141.66 175.368 141.727 175.121 141.86C174.875 141.993 174.681 142.187 174.541 142.44C174.401 142.687 174.331 142.983 174.331 143.33C174.331 143.677 174.401 143.977 174.541 144.23C174.681 144.477 174.875 144.667 175.121 144.8C175.368 144.933 175.645 145 175.951 145C176.218 145 176.465 144.94 176.691 144.82C176.925 144.7 177.121 144.513 177.281 144.26L178.241 144.82C178.035 145.22 177.731 145.53 177.331 145.75C176.938 145.963 176.481 146.07 175.961 146.07ZM182.612 146V144.92L182.542 144.69V142.8C182.542 142.433 182.432 142.15 182.212 141.95C181.992 141.743 181.659 141.64 181.212 141.64C180.912 141.64 180.615 141.687 180.322 141.78C180.035 141.873 179.792 142.003 179.592 142.17L179.102 141.26C179.389 141.04 179.729 140.877 180.122 140.77C180.522 140.657 180.935 140.6 181.362 140.6C182.135 140.6 182.732 140.787 183.152 141.16C183.579 141.527 183.792 142.097 183.792 142.87V146H182.612ZM180.932 146.07C180.532 146.07 180.182 146.003 179.882 145.87C179.582 145.73 179.349 145.54 179.182 145.3C179.022 145.053 178.942 144.777 178.942 144.47C178.942 144.17 179.012 143.9 179.152 143.66C179.299 143.42 179.535 143.23 179.862 143.09C180.189 142.95 180.622 142.88 181.162 142.88H182.712V143.71H181.252C180.825 143.71 180.539 143.78 180.392 143.92C180.245 144.053 180.172 144.22 180.172 144.42C180.172 144.647 180.262 144.827 180.442 144.96C180.622 145.093 180.872 145.16 181.192 145.16C181.499 145.16 181.772 145.09 182.012 144.95C182.259 144.81 182.435 144.603 182.542 144.33L182.752 145.08C182.632 145.393 182.415 145.637 182.102 145.81C181.795 145.983 181.405 146.07 180.932 146.07ZM188.426 140.6C188.853 140.6 189.233 140.683 189.566 140.85C189.906 141.017 190.173 141.273 190.366 141.62C190.56 141.96 190.656 142.4 190.656 142.94V146H189.406V143.1C189.406 142.627 189.293 142.273 189.066 142.04C188.846 141.807 188.536 141.69 188.136 141.69C187.843 141.69 187.583 141.75 187.356 141.87C187.13 141.99 186.953 142.17 186.826 142.41C186.706 142.643 186.646 142.94 186.646 143.3V146H185.396V140.66H186.586V142.1L186.376 141.66C186.563 141.32 186.833 141.06 187.186 140.88C187.546 140.693 187.96 140.6 188.426 140.6ZM192.242 146V140.66H193.492V146H192.242ZM192.872 139.78C192.639 139.78 192.445 139.707 192.292 139.56C192.145 139.413 192.072 139.237 192.072 139.03C192.072 138.817 192.145 138.64 192.292 138.5C192.445 138.353 192.639 138.28 192.872 138.28C193.105 138.28 193.295 138.35 193.442 138.49C193.595 138.623 193.672 138.793 193.672 139C193.672 139.22 193.599 139.407 193.452 139.56C193.305 139.707 193.112 139.78 192.872 139.78ZM196.783 146.07C196.336 146.07 195.906 146.013 195.493 145.9C195.086 145.78 194.763 145.637 194.523 145.47L195.003 144.52C195.243 144.673 195.529 144.8 195.863 144.9C196.196 145 196.529 145.05 196.863 145.05C197.256 145.05 197.539 144.997 197.713 144.89C197.893 144.783 197.983 144.64 197.983 144.46C197.983 144.313 197.923 144.203 197.803 144.13C197.683 144.05 197.526 143.99 197.333 143.95C197.139 143.91 196.923 143.873 196.683 143.84C196.449 143.807 196.213 143.763 195.973 143.71C195.739 143.65 195.526 143.567 195.333 143.46C195.139 143.347 194.983 143.197 194.863 143.01C194.743 142.823 194.683 142.577 194.683 142.27C194.683 141.93 194.779 141.637 194.972 141.39C195.166 141.137 195.436 140.943 195.782 140.81C196.136 140.67 196.553 140.6 197.033 140.6C197.393 140.6 197.756 140.64 198.123 140.72C198.489 140.8 198.793 140.913 199.033 141.06L198.553 142.01C198.299 141.857 198.043 141.753 197.783 141.7C197.529 141.64 197.276 141.61 197.023 141.61C196.643 141.61 196.359 141.667 196.173 141.78C195.993 141.893 195.903 142.037 195.903 142.21C195.903 142.37 195.963 142.49 196.083 142.57C196.203 142.65 196.359 142.713 196.553 142.76C196.746 142.807 196.959 142.847 197.193 142.88C197.433 142.907 197.669 142.95 197.903 143.01C198.136 143.07 198.349 143.153 198.543 143.26C198.743 143.36 198.903 143.503 199.023 143.69C199.143 143.877 199.203 144.12 199.203 144.42C199.203 144.753 199.103 145.043 198.903 145.29C198.709 145.537 198.433 145.73 198.073 145.87C197.713 146.003 197.283 146.07 196.783 146.07ZM207.019 140.6C207.446 140.6 207.822 140.683 208.149 140.85C208.482 141.017 208.742 141.273 208.929 141.62C209.116 141.96 209.209 142.4 209.209 142.94V146H207.959V143.1C207.959 142.627 207.856 142.273 207.649 142.04C207.442 141.807 207.146 141.69 206.759 141.69C206.486 141.69 206.242 141.75 206.029 141.87C205.822 141.99 205.659 142.167 205.539 142.4C205.426 142.633 205.369 142.93 205.369 143.29V146H204.119V143.1C204.119 142.627 204.016 142.273 203.809 142.04C203.602 141.807 203.306 141.69 202.919 141.69C202.646 141.69 202.402 141.75 202.189 141.87C201.982 141.99 201.819 142.167 201.699 142.4C201.586 142.633 201.529 142.93 201.529 143.29V146H200.279V140.66H201.469V142.08L201.259 141.66C201.439 141.313 201.699 141.05 202.039 140.87C202.386 140.69 202.779 140.6 203.219 140.6C203.719 140.6 204.152 140.723 204.519 140.97C204.892 141.217 205.139 141.59 205.259 142.09L204.769 141.92C204.942 141.52 205.229 141.2 205.629 140.96C206.029 140.72 206.492 140.6 207.019 140.6ZM213.216 146.07C212.669 146.07 212.183 145.953 211.756 145.72C211.329 145.48 210.993 145.153 210.746 144.74C210.499 144.327 210.376 143.857 210.376 143.33C210.376 142.797 210.499 142.327 210.746 141.92C210.993 141.507 211.329 141.183 211.756 140.95C212.183 140.717 212.669 140.6 213.216 140.6C213.769 140.6 214.259 140.717 214.686 140.95C215.119 141.183 215.456 141.503 215.696 141.91C215.943 142.317 216.066 142.79 216.066 143.33C216.066 143.857 215.943 144.327 215.696 144.74C215.456 145.153 215.119 145.48 214.686 145.72C214.259 145.953 213.769 146.07 213.216 146.07ZM213.216 145C213.523 145 213.796 144.933 214.036 144.8C214.276 144.667 214.463 144.473 214.596 144.22C214.736 143.967 214.806 143.67 214.806 143.33C214.806 142.983 214.736 142.687 214.596 142.44C214.463 142.187 214.276 141.993 214.036 141.86C213.796 141.727 213.526 141.66 213.226 141.66C212.919 141.66 212.646 141.727 212.406 141.86C212.173 141.993 211.986 142.187 211.846 142.44C211.706 142.687 211.636 142.983 211.636 143.33C211.636 143.67 211.706 143.967 211.846 144.22C211.986 144.473 212.173 144.667 212.406 144.8C212.646 144.933 212.916 145 213.216 145ZM222.285 146.07C221.772 146.07 221.308 145.957 220.895 145.73C220.488 145.497 220.168 145.177 219.935 144.77C219.702 144.363 219.585 143.883 219.585 143.33C219.585 142.777 219.702 142.297 219.935 141.89C220.168 141.483 220.488 141.167 220.895 140.94C221.308 140.713 221.772 140.6 222.285 140.6C222.732 140.6 223.132 140.7 223.485 140.9C223.838 141.093 224.118 141.39 224.325 141.79C224.532 142.19 224.635 142.703 224.635 143.33C224.635 143.95 224.535 144.463 224.335 144.87C224.135 145.27 223.858 145.57 223.505 145.77C223.152 145.97 222.745 146.07 222.285 146.07ZM222.435 145C222.735 145 223.002 144.933 223.235 144.8C223.475 144.667 223.665 144.473 223.805 144.22C223.952 143.967 224.025 143.67 224.025 143.33C224.025 142.983 223.952 142.687 223.805 142.44C223.665 142.187 223.475 141.993 223.235 141.86C223.002 141.727 222.735 141.66 222.435 141.66C222.135 141.66 221.865 141.727 221.625 141.86C221.392 141.993 221.202 142.187 221.055 142.44C220.915 142.687 220.845 142.983 220.845 143.33C220.845 143.67 220.915 143.967 221.055 144.22C221.202 144.473 221.392 144.667 221.625 144.8C221.865 144.933 222.135 145 222.435 145ZM224.055 146V144.74L224.105 143.32L224.005 141.9V138.58H225.245V146H224.055ZM229.4 146.07C228.807 146.07 228.287 145.953 227.84 145.72C227.4 145.48 227.057 145.153 226.81 144.74C226.57 144.327 226.45 143.857 226.45 143.33C226.45 142.797 226.567 142.327 226.8 141.92C227.04 141.507 227.367 141.183 227.78 140.95C228.2 140.717 228.677 140.6 229.21 140.6C229.73 140.6 230.194 140.713 230.6 140.94C231.007 141.167 231.327 141.487 231.56 141.9C231.794 142.313 231.91 142.8 231.91 143.36C231.91 143.413 231.907 143.473 231.9 143.54C231.9 143.607 231.897 143.67 231.89 143.73H227.44V142.9H231.23L230.74 143.16C230.747 142.853 230.684 142.583 230.55 142.35C230.417 142.117 230.234 141.933 230 141.8C229.774 141.667 229.51 141.6 229.21 141.6C228.904 141.6 228.634 141.667 228.4 141.8C228.174 141.933 227.994 142.12 227.86 142.36C227.734 142.593 227.67 142.87 227.67 143.19V143.39C227.67 143.71 227.744 143.993 227.89 144.24C228.037 144.487 228.244 144.677 228.51 144.81C228.777 144.943 229.084 145.01 229.43 145.01C229.73 145.01 230 144.963 230.24 144.87C230.48 144.777 230.694 144.63 230.88 144.43L231.55 145.2C231.31 145.48 231.007 145.697 230.64 145.85C230.28 145.997 229.867 146.07 229.4 146.07ZM238.835 146.07C238.401 146.07 238.005 145.97 237.645 145.77C237.291 145.57 237.008 145.27 236.795 144.87C236.588 144.463 236.485 143.95 236.485 143.33C236.485 142.703 236.585 142.19 236.785 141.79C236.991 141.39 237.271 141.093 237.625 140.9C237.978 140.7 238.381 140.6 238.835 140.6C239.361 140.6 239.825 140.713 240.225 140.94C240.631 141.167 240.951 141.483 241.185 141.89C241.425 142.297 241.545 142.777 241.545 143.33C241.545 143.883 241.425 144.367 241.185 144.78C240.951 145.187 240.631 145.503 240.225 145.73C239.825 145.957 239.361 146.07 238.835 146.07ZM235.875 147.94V140.66H237.065V141.92L237.025 143.34L237.125 144.76V147.94H235.875ZM238.695 145C238.995 145 239.261 144.933 239.495 144.8C239.735 144.667 239.925 144.473 240.065 144.22C240.205 143.967 240.275 143.67 240.275 143.33C240.275 142.983 240.205 142.687 240.065 142.44C239.925 142.187 239.735 141.993 239.495 141.86C239.261 141.727 238.995 141.66 238.695 141.66C238.395 141.66 238.125 141.727 237.885 141.86C237.645 141.993 237.455 142.187 237.315 142.44C237.175 142.687 237.105 142.983 237.105 143.33C237.105 143.67 237.175 143.967 237.315 144.22C237.455 144.473 237.645 144.667 237.885 144.8C238.125 144.933 238.395 145 238.695 145ZM245.24 146.07C244.647 146.07 244.127 145.953 243.68 145.72C243.24 145.48 242.897 145.153 242.65 144.74C242.41 144.327 242.29 143.857 242.29 143.33C242.29 142.797 242.407 142.327 242.64 141.92C242.88 141.507 243.207 141.183 243.62 140.95C244.04 140.717 244.517 140.6 245.05 140.6C245.57 140.6 246.033 140.713 246.44 140.94C246.847 141.167 247.167 141.487 247.4 141.9C247.633 142.313 247.75 142.8 247.75 143.36C247.75 143.413 247.747 143.473 247.74 143.54C247.74 143.607 247.737 143.67 247.73 143.73H243.28V142.9H247.07L246.58 143.16C246.587 142.853 246.523 142.583 246.39 142.35C246.257 142.117 246.073 141.933 245.84 141.8C245.613 141.667 245.35 141.6 245.05 141.6C244.743 141.6 244.473 141.667 244.24 141.8C244.013 141.933 243.833 142.12 243.7 142.36C243.573 142.593 243.51 142.87 243.51 143.19V143.39C243.51 143.71 243.583 143.993 243.73 144.24C243.877 144.487 244.083 144.677 244.35 144.81C244.617 144.943 244.923 145.01 245.27 145.01C245.57 145.01 245.84 144.963 246.08 144.87C246.32 144.777 246.533 144.63 246.72 144.43L247.39 145.2C247.15 145.48 246.847 145.697 246.48 145.85C246.12 145.997 245.707 146.07 245.24 146.07ZM250.601 146.07C250.154 146.07 249.724 146.013 249.311 145.9C248.904 145.78 248.581 145.637 248.341 145.47L248.821 144.52C249.061 144.673 249.348 144.8 249.681 144.9C250.014 145 250.348 145.05 250.681 145.05C251.074 145.05 251.358 144.997 251.531 144.89C251.711 144.783 251.801 144.64 251.801 144.46C251.801 144.313 251.741 144.203 251.621 144.13C251.501 144.05 251.344 143.99 251.151 143.95C250.958 143.91 250.741 143.873 250.501 143.84C250.268 143.807 250.031 143.763 249.791 143.71C249.558 143.65 249.344 143.567 249.151 143.46C248.958 143.347 248.801 143.197 248.681 143.01C248.561 142.823 248.501 142.577 248.501 142.27C248.501 141.93 248.598 141.637 248.791 141.39C248.984 141.137 249.254 140.943 249.601 140.81C249.954 140.67 250.371 140.6 250.851 140.6C251.211 140.6 251.574 140.64 251.941 140.72C252.308 140.8 252.611 140.913 252.851 141.06L252.371 142.01C252.118 141.857 251.861 141.753 251.601 141.7C251.348 141.64 251.094 141.61 250.841 141.61C250.461 141.61 250.178 141.667 249.991 141.78C249.811 141.893 249.721 142.037 249.721 142.21C249.721 142.37 249.781 142.49 249.901 142.57C250.021 142.65 250.178 142.713 250.371 142.76C250.564 142.807 250.778 142.847 251.011 142.88C251.251 142.907 251.488 142.95 251.721 143.01C251.954 143.07 252.168 143.153 252.361 143.26C252.561 143.36 252.721 143.503 252.841 143.69C252.961 143.877 253.021 144.12 253.021 144.42C253.021 144.753 252.921 145.043 252.721 145.29C252.528 145.537 252.251 145.73 251.891 145.87C251.531 146.003 251.101 146.07 250.601 146.07ZM256.357 146.07C255.844 146.07 255.381 145.957 254.967 145.73C254.561 145.503 254.241 145.187 254.007 144.78C253.774 144.367 253.657 143.883 253.657 143.33C253.657 142.777 253.774 142.297 254.007 141.89C254.241 141.483 254.561 141.167 254.967 140.94C255.381 140.713 255.844 140.6 256.357 140.6C256.817 140.6 257.221 140.7 257.567 140.9C257.921 141.093 258.197 141.39 258.397 141.79C258.604 142.19 258.707 142.703 258.707 143.33C258.707 143.95 258.601 144.463 258.387 144.87C258.181 145.27 257.901 145.57 257.547 145.77C257.194 145.97 256.797 146.07 256.357 146.07ZM256.497 145C256.797 145 257.067 144.933 257.307 144.8C257.547 144.667 257.737 144.473 257.877 144.22C258.017 143.967 258.087 143.67 258.087 143.33C258.087 142.983 258.017 142.687 257.877 142.44C257.737 142.187 257.547 141.993 257.307 141.86C257.067 141.727 256.797 141.66 256.497 141.66C256.197 141.66 255.927 141.727 255.687 141.86C255.454 141.993 255.267 142.187 255.127 142.44C254.987 142.687 254.917 142.983 254.917 143.33C254.917 143.67 254.987 143.967 255.127 144.22C255.267 144.473 255.454 144.667 255.687 144.8C255.927 144.933 256.197 145 256.497 145ZM258.067 147.94V144.76L258.167 143.34L258.127 141.92V140.66H259.317V147.94H258.067ZM263.213 146.07C262.759 146.07 262.359 145.987 262.013 145.82C261.666 145.647 261.396 145.387 261.203 145.04C261.009 144.687 260.913 144.243 260.913 143.71V140.66H262.163V143.54C262.163 144.02 262.269 144.38 262.483 144.62C262.703 144.853 263.013 144.97 263.413 144.97C263.706 144.97 263.959 144.91 264.173 144.79C264.393 144.67 264.563 144.49 264.683 144.25C264.809 144.01 264.873 143.713 264.873 143.36V140.66H266.123V146H264.933V144.56L265.143 145C264.963 145.347 264.699 145.613 264.353 145.8C264.006 145.98 263.626 146.07 263.213 146.07ZM267.759 146V140.66H269.009V146H267.759ZM268.389 139.78C268.156 139.78 267.963 139.707 267.809 139.56C267.663 139.413 267.589 139.237 267.589 139.03C267.589 138.817 267.663 138.64 267.809 138.5C267.963 138.353 268.156 138.28 268.389 138.28C268.623 138.28 268.813 138.35 268.959 138.49C269.113 138.623 269.189 138.793 269.189 139C269.189 139.22 269.116 139.407 268.969 139.56C268.823 139.707 268.629 139.78 268.389 139.78ZM272.3 146.07C271.853 146.07 271.423 146.013 271.01 145.9C270.603 145.78 270.28 145.637 270.04 145.47L270.52 144.52C270.76 144.673 271.047 144.8 271.38 144.9C271.713 145 272.047 145.05 272.38 145.05C272.773 145.05 273.057 144.997 273.23 144.89C273.41 144.783 273.5 144.64 273.5 144.46C273.5 144.313 273.44 144.203 273.32 144.13C273.2 144.05 273.043 143.99 272.85 143.95C272.657 143.91 272.44 143.873 272.2 143.84C271.967 143.807 271.73 143.763 271.49 143.71C271.257 143.65 271.043 143.567 270.85 143.46C270.657 143.347 270.5 143.197 270.38 143.01C270.26 142.823 270.2 142.577 270.2 142.27C270.2 141.93 270.297 141.637 270.49 141.39C270.683 141.137 270.953 140.943 271.3 140.81C271.653 140.67 272.07 140.6 272.55 140.6C272.91 140.6 273.273 140.64 273.64 140.72C274.007 140.8 274.31 140.913 274.55 141.06L274.07 142.01C273.817 141.857 273.56 141.753 273.3 141.7C273.047 141.64 272.793 141.61 272.54 141.61C272.16 141.61 271.877 141.667 271.69 141.78C271.51 141.893 271.42 142.037 271.42 142.21C271.42 142.37 271.48 142.49 271.6 142.57C271.72 142.65 271.877 142.713 272.07 142.76C272.263 142.807 272.477 142.847 272.71 142.88C272.95 142.907 273.187 142.95 273.42 143.01C273.653 143.07 273.867 143.153 274.06 143.26C274.26 143.36 274.42 143.503 274.54 143.69C274.66 143.877 274.72 144.12 274.72 144.42C274.72 144.753 274.62 145.043 274.42 145.29C274.227 145.537 273.95 145.73 273.59 145.87C273.23 146.003 272.8 146.07 272.3 146.07ZM279.087 146V144.92L279.017 144.69V142.8C279.017 142.433 278.907 142.15 278.687 141.95C278.467 141.743 278.133 141.64 277.687 141.64C277.387 141.64 277.09 141.687 276.797 141.78C276.51 141.873 276.267 142.003 276.067 142.17L275.577 141.26C275.863 141.04 276.203 140.877 276.597 140.77C276.997 140.657 277.41 140.6 277.837 140.6C278.61 140.6 279.207 140.787 279.627 141.16C280.053 141.527 280.267 142.097 280.267 142.87V146H279.087ZM277.407 146.07C277.007 146.07 276.657 146.003 276.357 145.87C276.057 145.73 275.823 145.54 275.657 145.3C275.497 145.053 275.417 144.777 275.417 144.47C275.417 144.17 275.487 143.9 275.627 143.66C275.773 143.42 276.01 143.23 276.337 143.09C276.663 142.95 277.097 142.88 277.637 142.88H279.187V143.71H277.727C277.3 143.71 277.013 143.78 276.867 143.92C276.72 144.053 276.647 144.22 276.647 144.42C276.647 144.647 276.737 144.827 276.917 144.96C277.097 145.093 277.347 145.16 277.667 145.16C277.973 145.16 278.247 145.09 278.487 144.95C278.733 144.81 278.91 144.603 279.017 144.33L279.227 145.08C279.107 145.393 278.89 145.637 278.577 145.81C278.27 145.983 277.88 146.07 277.407 146.07Z" fill="#333333"/>
<path fill-rule="evenodd" clip-rule="evenodd" d="M315 177.985C315 167 306 157.992 295 157.992C233.172 157.992 208 158 208 158L200 166H163L154 157.999H119.147C108.147 157.999 99.1467 167 99.1467 177.992C99.1467 177.999 99.1467 178.007 99.1467 178.014C99.1467 189 108.147 198 119.147 198C135.71 198 154 198 154 198L163 206H200L208 198H295.147C306 198 315 189 315 178.007C315 178 315 178.5 315 177.985Z" fill="#30DCFF"/>
<path fill-rule="evenodd" clip-rule="evenodd" d="M315 177.989C315 167 306 158 294.853 158C233.025 158 208 158 208 158L200 166H163L154 158H119C108 158 99 167 99 177.989C99 177.996 99 178 99 178H104C104 168 111 163 119 163C133.664 163 152 163 152 163L161 171H202L210 163H295C304 163 310 169 310 178L315 178V177.989Z" fill="white" fill-opacity="0.5"/>
<path fill-rule="evenodd" clip-rule="evenodd" d="M315 178L310 178C310 186.971 304.197 193 295 193C237.995 193 206 193 206 193L198 201H165L156 193H119C108.496 193 104 187 104 178.001L99 178V178.011C99 189 108 198 119 198C135.563 198 154 198 154 198L163 206H200L208 198H295C306 198 315 189 315 178Z" fill="black" fill-opacity="0.25"/>
<path d="M110.128 186V177.6H113.8C114.712 177.6 115.512 177.776 116.2 178.128C116.888 178.48 117.424 178.968 117.808 179.592C118.192 180.216 118.384 180.952 118.384 181.8C118.384 182.64 118.192 183.376 117.808 184.008C117.424 184.632 116.888 185.12 116.2 185.472C115.512 185.824 114.712 186 113.8 186H110.128ZM111.688 184.68H113.728C114.36 184.68 114.904 184.56 115.36 184.32C115.824 184.08 116.18 183.744 116.428 183.312C116.684 182.88 116.812 182.376 116.812 181.8C116.812 181.216 116.684 180.712 116.428 180.288C116.18 179.856 115.824 179.52 115.36 179.28C114.904 179.04 114.36 178.92 113.728 178.92H111.688V184.68ZM119.898 186V179.592H121.398V186H119.898ZM120.654 178.536C120.374 178.536 120.142 178.448 119.958 178.272C119.782 178.096 119.694 177.884 119.694 177.636C119.694 177.38 119.782 177.168 119.958 177C120.142 176.824 120.374 176.736 120.654 176.736C120.934 176.736 121.162 176.82 121.338 176.988C121.522 177.148 121.614 177.352 121.614 177.6C121.614 177.864 121.526 178.088 121.35 178.272C121.174 178.448 120.942 178.536 120.654 178.536ZM126.271 188.412C125.679 188.412 125.099 188.332 124.531 188.172C123.971 188.02 123.511 187.796 123.151 187.5L123.823 186.372C124.103 186.604 124.455 186.788 124.879 186.924C125.311 187.068 125.747 187.14 126.187 187.14C126.891 187.14 127.407 186.976 127.735 186.648C128.063 186.328 128.227 185.844 128.227 185.196V184.056L128.347 182.604L128.299 181.152V179.592H129.727V185.028C129.727 186.188 129.431 187.04 128.839 187.584C128.247 188.136 127.391 188.412 126.271 188.412ZM126.079 185.712C125.471 185.712 124.919 185.584 124.423 185.328C123.935 185.064 123.547 184.7 123.259 184.236C122.979 183.772 122.839 183.228 122.839 182.604C122.839 181.988 122.979 181.448 123.259 180.984C123.547 180.52 123.935 180.16 124.423 179.904C124.919 179.648 125.471 179.52 126.079 179.52C126.623 179.52 127.111 179.628 127.543 179.844C127.975 180.06 128.319 180.396 128.575 180.852C128.839 181.308 128.971 181.892 128.971 182.604C128.971 183.316 128.839 183.904 128.575 184.368C128.319 184.824 127.975 185.164 127.543 185.388C127.111 185.604 126.623 185.712 126.079 185.712ZM126.307 184.44C126.683 184.44 127.019 184.364 127.315 184.212C127.611 184.052 127.839 183.836 127.999 183.564C128.167 183.284 128.251 182.964 128.251 182.604C128.251 182.244 128.167 181.928 127.999 181.656C127.839 181.376 127.611 181.164 127.315 181.02C127.019 180.868 126.683 180.792 126.307 180.792C125.931 180.792 125.591 180.868 125.287 181.02C124.991 181.164 124.759 181.376 124.591 181.656C124.431 181.928 124.351 182.244 124.351 182.604C124.351 182.964 124.431 183.284 124.591 183.564C124.759 183.836 124.991 184.052 125.287 184.212C125.591 184.364 125.931 184.44 126.307 184.44ZM131.699 186V179.592H133.199V186H131.699ZM132.455 178.536C132.175 178.536 131.943 178.448 131.759 178.272C131.583 178.096 131.495 177.884 131.495 177.636C131.495 177.38 131.583 177.168 131.759 177C131.943 176.824 132.175 176.736 132.455 176.736C132.735 176.736 132.963 176.82 133.139 176.988C133.323 177.148 133.415 177.352 133.415 177.6C133.415 177.864 133.327 178.088 133.151 178.272C132.975 178.448 132.743 178.536 132.455 178.536ZM137.58 186.084C136.876 186.084 136.332 185.904 135.948 185.544C135.564 185.176 135.372 184.636 135.372 183.924V178.176H136.872V183.888C136.872 184.192 136.948 184.428 137.1 184.596C137.26 184.764 137.48 184.848 137.76 184.848C138.096 184.848 138.376 184.76 138.6 184.584L139.02 185.652C138.844 185.796 138.628 185.904 138.372 185.976C138.116 186.048 137.852 186.084 137.58 186.084ZM134.316 180.84V179.64H138.588V180.84H134.316ZM143.055 186.084C142.343 186.084 141.719 185.944 141.183 185.664C140.655 185.376 140.243 184.984 139.947 184.488C139.659 183.992 139.515 183.428 139.515 182.796C139.515 182.156 139.655 181.592 139.935 181.104C140.223 180.608 140.615 180.22 141.111 179.94C141.615 179.66 142.187 179.52 142.827 179.52C143.451 179.52 144.007 179.656 144.495 179.928C144.983 180.2 145.367 180.584 145.647 181.08C145.927 181.576 146.067 182.16 146.067 182.832C146.067 182.896 146.063 182.968 146.055 183.048C146.055 183.128 146.051 183.204 146.043 183.276H140.703V182.28H145.251L144.663 182.592C144.671 182.224 144.595 181.9 144.435 181.62C144.275 181.34 144.055 181.12 143.775 180.96C143.503 180.8 143.187 180.72 142.827 180.72C142.459 180.72 142.135 180.8 141.855 180.96C141.583 181.12 141.367 181.344 141.207 181.632C141.055 181.912 140.979 182.244 140.979 182.628V182.868C140.979 183.252 141.067 183.592 141.243 183.888C141.419 184.184 141.667 184.412 141.987 184.572C142.307 184.732 142.675 184.812 143.091 184.812C143.451 184.812 143.775 184.756 144.063 184.644C144.351 184.532 144.607 184.356 144.831 184.116L145.635 185.04C145.347 185.376 144.983 185.636 144.543 185.82C144.111 185.996 143.615 186.084 143.055 186.084ZM153.704 186.084C153.048 186.084 152.464 185.944 151.952 185.664C151.44 185.376 151.036 184.984 150.74 184.488C150.444 183.992 150.296 183.428 150.296 182.796C150.296 182.156 150.444 181.592 150.74 181.104C151.036 180.608 151.44 180.22 151.952 179.94C152.464 179.66 153.048 179.52 153.704 179.52C154.368 179.52 154.956 179.66 155.468 179.94C155.988 180.22 156.392 180.604 156.68 181.092C156.976 181.58 157.124 182.148 157.124 182.796C157.124 183.428 156.976 183.992 156.68 184.488C156.392 184.984 155.988 185.376 155.468 185.664C154.956 185.944 154.368 186.084 153.704 186.084ZM153.704 184.8C154.072 184.8 154.4 184.72 154.688 184.56C154.976 184.4 155.2 184.168 155.36 183.864C155.528 183.56 155.612 183.204 155.612 182.796C155.612 182.38 155.528 182.024 155.36 181.728C155.2 181.424 154.976 181.192 154.688 181.032C154.4 180.872 154.076 180.792 153.716 180.792C153.348 180.792 153.02 180.872 152.732 181.032C152.452 181.192 152.228 181.424 152.06 181.728C151.892 182.024 151.808 182.38 151.808 182.796C151.808 183.204 151.892 183.56 152.06 183.864C152.228 184.168 152.452 184.4 152.732 184.56C153.02 184.72 153.344 184.8 153.704 184.8ZM165.511 179.52C166.023 179.52 166.479 179.62 166.879 179.82C167.287 180.02 167.607 180.328 167.839 180.744C168.071 181.152 168.187 181.68 168.187 182.328V186H166.687V182.52C166.687 181.952 166.551 181.528 166.279 181.248C166.015 180.968 165.643 180.828 165.163 180.828C164.811 180.828 164.499 180.9 164.227 181.044C163.955 181.188 163.743 181.404 163.591 181.692C163.447 181.972 163.375 182.328 163.375 182.76V186H161.875V179.592H163.303V181.32L163.051 180.792C163.275 180.384 163.599 180.072 164.023 179.856C164.455 179.632 164.951 179.52 165.511 179.52ZM172.981 186.084C172.325 186.084 171.741 185.944 171.229 185.664C170.717 185.376 170.313 184.984 170.017 184.488C169.721 183.992 169.573 183.428 169.573 182.796C169.573 182.156 169.721 181.592 170.017 181.104C170.313 180.608 170.717 180.22 171.229 179.94C171.741 179.66 172.325 179.52 172.981 179.52C173.645 179.52 174.233 179.66 174.745 179.94C175.265 180.22 175.669 180.604 175.957 181.092C176.253 181.58 176.401 182.148 176.401 182.796C176.401 183.428 176.253 183.992 175.957 184.488C175.669 184.984 175.265 185.376 174.745 185.664C174.233 185.944 173.645 186.084 172.981 186.084ZM172.981 184.8C173.349 184.8 173.677 184.72 173.965 184.56C174.253 184.4 174.477 184.168 174.637 183.864C174.805 183.56 174.889 183.204 174.889 182.796C174.889 182.38 174.805 182.024 174.637 181.728C174.477 181.424 174.253 181.192 173.965 181.032C173.677 180.872 173.353 180.792 172.993 180.792C172.625 180.792 172.297 180.872 172.009 181.032C171.729 181.192 171.505 181.424 171.337 181.728C171.169 182.024 171.085 182.38 171.085 182.796C171.085 183.204 171.169 183.56 171.337 183.864C171.505 184.168 171.729 184.4 172.009 184.56C172.297 184.72 172.621 184.8 172.981 184.8ZM185.924 179.52C186.436 179.52 186.888 179.62 187.28 179.82C187.68 180.02 187.992 180.328 188.216 180.744C188.44 181.152 188.552 181.68 188.552 182.328V186H187.052V182.52C187.052 181.952 186.928 181.528 186.68 181.248C186.432 180.968 186.076 180.828 185.612 180.828C185.284 180.828 184.992 180.9 184.736 181.044C184.488 181.188 184.292 181.4 184.148 181.68C184.012 181.96 183.944 182.316 183.944 182.748V186H182.444V182.52C182.444 181.952 182.32 181.528 182.072 181.248C181.824 180.968 181.468 180.828 181.004 180.828C180.676 180.828 180.384 180.9 180.128 181.044C179.88 181.188 179.684 181.4 179.54 181.68C179.404 181.96 179.336 182.316 179.336 182.748V186H177.836V179.592H179.264V181.296L179.012 180.792C179.228 180.376 179.54 180.06 179.948 179.844C180.364 179.628 180.836 179.52 181.364 179.52C181.964 179.52 182.484 179.668 182.924 179.964C183.372 180.26 183.668 180.708 183.812 181.308L183.224 181.104C183.432 180.624 183.776 180.24 184.256 179.952C184.736 179.664 185.292 179.52 185.924 179.52ZM193.492 186.084C192.78 186.084 192.156 185.944 191.62 185.664C191.092 185.376 190.68 184.984 190.384 184.488C190.096 183.992 189.952 183.428 189.952 182.796C189.952 182.156 190.092 181.592 190.372 181.104C190.66 180.608 191.052 180.22 191.548 179.94C192.052 179.66 192.624 179.52 193.264 179.52C193.888 179.52 194.444 179.656 194.932 179.928C195.42 180.2 195.804 180.584 196.084 181.08C196.364 181.576 196.504 182.16 196.504 182.832C196.504 182.896 196.5 182.968 196.492 183.048C196.492 183.128 196.488 183.204 196.48 183.276H191.14V182.28H195.688L195.1 182.592C195.108 182.224 195.032 181.9 194.872 181.62C194.712 181.34 194.492 181.12 194.212 180.96C193.94 180.8 193.624 180.72 193.264 180.72C192.896 180.72 192.572 180.8 192.292 180.96C192.02 181.12 191.804 181.344 191.644 181.632C191.492 181.912 191.416 182.244 191.416 182.628V182.868C191.416 183.252 191.504 183.592 191.68 183.888C191.856 184.184 192.104 184.412 192.424 184.572C192.744 184.732 193.112 184.812 193.528 184.812C193.888 184.812 194.212 184.756 194.5 184.644C194.788 184.532 195.044 184.356 195.268 184.116L196.072 185.04C195.784 185.376 195.42 185.636 194.98 185.82C194.548 185.996 194.052 186.084 193.492 186.084ZM203.973 186.084C203.357 186.084 202.801 185.948 202.305 185.676C201.817 185.396 201.433 185.012 201.153 184.524C200.873 184.036 200.733 183.46 200.733 182.796C200.733 182.132 200.873 181.556 201.153 181.068C201.433 180.58 201.817 180.2 202.305 179.928C202.801 179.656 203.357 179.52 203.973 179.52C204.509 179.52 204.989 179.64 205.413 179.88C205.837 180.112 206.173 180.468 206.421 180.948C206.669 181.428 206.793 182.044 206.793 182.796C206.793 183.54 206.673 184.156 206.433 184.644C206.193 185.124 205.861 185.484 205.437 185.724C205.013 185.964 204.525 186.084 203.973 186.084ZM204.153 184.8C204.513 184.8 204.833 184.72 205.113 184.56C205.401 184.4 205.629 184.168 205.797 183.864C205.973 183.56 206.061 183.204 206.061 182.796C206.061 182.38 205.973 182.024 205.797 181.728C205.629 181.424 205.401 181.192 205.113 181.032C204.833 180.872 204.513 180.792 204.153 180.792C203.793 180.792 203.469 180.872 203.181 181.032C202.901 181.192 202.673 181.424 202.497 181.728C202.329 182.024 202.245 182.38 202.245 182.796C202.245 183.204 202.329 183.56 202.497 183.864C202.673 184.168 202.901 184.4 203.181 184.56C203.469 184.72 203.793 184.8 204.153 184.8ZM206.097 186V184.488L206.157 182.784L206.037 181.08V177.096H207.525V186H206.097ZM212.38 186.084C211.724 186.084 211.14 185.944 210.628 185.664C210.116 185.376 209.712 184.984 209.416 184.488C209.12 183.992 208.972 183.428 208.972 182.796C208.972 182.156 209.12 181.592 209.416 181.104C209.712 180.608 210.116 180.22 210.628 179.94C211.14 179.66 211.724 179.52 212.38 179.52C213.044 179.52 213.632 179.66 214.144 179.94C214.664 180.22 215.068 180.604 215.356 181.092C215.652 181.58 215.8 182.148 215.8 182.796C215.8 183.428 215.652 183.992 215.356 184.488C215.068 184.984 214.664 185.376 214.144 185.664C213.632 185.944 213.044 186.084 212.38 186.084ZM212.38 184.8C212.748 184.8 213.076 184.72 213.364 184.56C213.652 184.4 213.876 184.168 214.036 183.864C214.204 183.56 214.288 183.204 214.288 182.796C214.288 182.38 214.204 182.024 214.036 181.728C213.876 181.424 213.652 181.192 213.364 181.032C213.076 180.872 212.752 180.792 212.392 180.792C212.024 180.792 211.696 180.872 211.408 181.032C211.128 181.192 210.904 181.424 210.736 181.728C210.568 182.024 210.484 182.38 210.484 182.796C210.484 183.204 210.568 183.56 210.736 183.864C210.904 184.168 211.128 184.4 211.408 184.56C211.696 184.72 212.02 184.8 212.38 184.8ZM224.498 186V184.704L224.414 184.428V182.16C224.414 181.72 224.282 181.38 224.018 181.14C223.754 180.892 223.354 180.768 222.818 180.768C222.458 180.768 222.102 180.824 221.75 180.936C221.406 181.048 221.114 181.204 220.874 181.404L220.286 180.312C220.63 180.048 221.038 179.852 221.51 179.724C221.99 179.588 222.486 179.52 222.998 179.52C223.926 179.52 224.642 179.744 225.146 180.192C225.658 180.632 225.914 181.316 225.914 182.244V186H224.498ZM222.482 186.084C222.002 186.084 221.582 186.004 221.222 185.844C220.862 185.676 220.582 185.448 220.382 185.16C220.19 184.864 220.094 184.532 220.094 184.164C220.094 183.804 220.178 183.48 220.346 183.192C220.522 182.904 220.806 182.676 221.198 182.508C221.59 182.34 222.11 182.256 222.758 182.256H224.618V183.252H222.866C222.354 183.252 222.01 183.336 221.834 183.504C221.658 183.664 221.57 183.864 221.57 184.104C221.57 184.376 221.678 184.592 221.894 184.752C222.11 184.912 222.41 184.992 222.794 184.992C223.162 184.992 223.49 184.908 223.778 184.74C224.074 184.572 224.286 184.324 224.414 183.996L224.666 184.896C224.522 185.272 224.262 185.564 223.886 185.772C223.518 185.98 223.05 186.084 222.482 186.084ZM230.551 186.084C230.007 186.084 229.527 185.984 229.111 185.784C228.695 185.576 228.371 185.264 228.139 184.848C227.907 184.424 227.791 183.892 227.791 183.252V179.592H229.291V183.048C229.291 183.624 229.419 184.056 229.675 184.344C229.939 184.624 230.311 184.764 230.791 184.764C231.143 184.764 231.447 184.692 231.703 184.548C231.967 184.404 232.171 184.188 232.315 183.9C232.467 183.612 232.543 183.256 232.543 182.832V179.592H234.043V186H232.615V184.272L232.867 184.8C232.651 185.216 232.335 185.536 231.919 185.76C231.503 185.976 231.047 186.084 230.551 186.084ZM238.419 186.084C237.715 186.084 237.171 185.904 236.787 185.544C236.403 185.176 236.211 184.636 236.211 183.924V178.176H237.711V183.888C237.711 184.192 237.787 184.428 237.939 184.596C238.099 184.764 238.319 184.848 238.599 184.848C238.935 184.848 239.215 184.76 239.439 184.584L239.859 185.652C239.683 185.796 239.467 185.904 239.211 185.976C238.955 186.048 238.691 186.084 238.419 186.084ZM235.155 180.84V179.64H239.427V180.84H235.155ZM243.762 186.084C243.106 186.084 242.522 185.944 242.01 185.664C241.498 185.376 241.094 184.984 240.798 184.488C240.502 183.992 240.354 183.428 240.354 182.796C240.354 182.156 240.502 181.592 240.798 181.104C241.094 180.608 241.498 180.22 242.01 179.94C242.522 179.66 243.106 179.52 243.762 179.52C244.426 179.52 245.014 179.66 245.526 179.94C246.046 180.22 246.45 180.604 246.738 181.092C247.034 181.58 247.182 182.148 247.182 182.796C247.182 183.428 247.034 183.992 246.738 184.488C246.45 184.984 246.046 185.376 245.526 185.664C245.014 185.944 244.426 186.084 243.762 186.084ZM243.762 184.8C244.13 184.8 244.458 184.72 244.746 184.56C245.034 184.4 245.258 184.168 245.418 183.864C245.586 183.56 245.67 183.204 245.67 182.796C245.67 182.38 245.586 182.024 245.418 181.728C245.258 181.424 245.034 181.192 244.746 181.032C244.458 180.872 244.134 180.792 243.774 180.792C243.406 180.792 243.078 180.872 242.79 181.032C242.51 181.192 242.286 181.424 242.118 181.728C241.95 182.024 241.866 182.38 241.866 182.796C241.866 183.204 241.95 183.56 242.118 183.864C242.286 184.168 242.51 184.4 242.79 184.56C243.078 184.72 243.402 184.8 243.762 184.8ZM248.617 186V179.592H250.045V181.356L249.877 180.84C250.069 180.408 250.369 180.08 250.777 179.856C251.193 179.632 251.709 179.52 252.325 179.52V180.948C252.261 180.932 252.201 180.924 252.145 180.924C252.089 180.916 252.033 180.912 251.977 180.912C251.409 180.912 250.957 181.08 250.621 181.416C250.285 181.744 250.117 182.236 250.117 182.892V186H248.617Z" fill="#333333"/>
<path fill-rule="evenodd" clip-rule="evenodd" d="M315 61C315 50 308 43 297 43C257.917 43 282.045 43 254 43C246.27 43 242.785 40.7635 238.5 36.5C229.193 27.8197 205.783 14 154.427 14C82.0243 14 65 43 65 43C65 43 65.0004 47.7195 65.0006 61C65.0006 71 73 79 83 79C109.488 79 154 79 154 79L163 87H200L208 79C208 79 242.031 79 297 79C308 79 315 72 315 61C315 62.8675 315 58.1323 315 61Z" fill="#FC79FF"/>
<path fill-rule="evenodd" clip-rule="evenodd" d="M310 61C310 69 306 74 297 74L206 74L198 82H165L156 74C156 74 108.393 74 83.0001 74C74.9643 74 70 68 70 61H65C65 71 73 79 83.0001 79C109.441 79 154 79 154 79L163.027 87H200L208 79L297 79C308 79 315 72 315 61C313.5 61 312 60.9999 310 61Z" fill="black" fill-opacity="0.25"/>
<path fill-rule="evenodd" clip-rule="evenodd" d="M65 61H70V45C70 45 84.993 19 154.286 19C201.342 19 225.557 31.6452 235.5 40C240.292 44.0301 246.712 47.9521 253 48C261.5 48 281.464 48 297 48C304.964 48 310 53.5 310 60V61H314H315C315 50 308 43 297 43C257.993 43 281.008 43 253 43C246 43 242.169 40.1595 238.214 36.2066C228.936 27.4998 205.571 14 154.268 14C81.9103 14 65 43 65 43L65 61Z" fill="white" fill-opacity="0.5"/>
<path d="M80.064 68.144C79.408 68.144 78.796 68.036 78.228 67.82C77.668 67.604 77.18 67.3 76.764 66.908C76.356 66.516 76.036 66.056 75.804 65.528C75.58 65 75.468 64.424 75.468 63.8C75.468 63.176 75.58 62.6 75.804 62.072C76.036 61.544 76.36 61.084 76.776 60.692C77.192 60.3 77.68 59.996 78.24 59.78C78.8 59.564 79.408 59.456 80.064 59.456C80.728 59.456 81.336 59.564 81.888 59.78C82.448 59.996 82.932 60.3 83.34 60.692C83.756 61.076 84.08 61.532 84.312 62.06C84.544 62.588 84.66 63.168 84.66 63.8C84.66 64.424 84.544 65.004 84.312 65.54C84.08 66.068 83.756 66.528 83.34 66.92C82.932 67.304 82.448 67.604 81.888 67.82C81.336 68.036 80.728 68.144 80.064 68.144ZM82.812 69.932C82.484 69.932 82.172 69.896 81.876 69.824C81.588 69.752 81.3 69.636 81.012 69.476C80.732 69.316 80.436 69.1 80.124 68.828C79.82 68.556 79.488 68.22 79.128 67.82L81.168 67.304C81.384 67.6 81.584 67.836 81.768 68.012C81.952 68.188 82.128 68.312 82.296 68.384C82.472 68.456 82.656 68.492 82.848 68.492C83.36 68.492 83.816 68.284 84.216 67.868L85.08 68.9C84.512 69.588 83.756 69.932 82.812 69.932ZM80.064 66.488C80.44 66.488 80.784 66.424 81.096 66.296C81.416 66.168 81.696 65.984 81.936 65.744C82.176 65.504 82.36 65.22 82.488 64.892C82.624 64.556 82.692 64.192 82.692 63.8C82.692 63.4 82.624 63.036 82.488 62.708C82.36 62.38 82.176 62.096 81.936 61.856C81.696 61.616 81.416 61.432 81.096 61.304C80.784 61.176 80.44 61.112 80.064 61.112C79.688 61.112 79.34 61.176 79.02 61.304C78.7 61.432 78.42 61.616 78.18 61.856C77.948 62.096 77.764 62.38 77.628 62.708C77.5 63.036 77.436 63.4 77.436 63.8C77.436 64.192 77.5 64.556 77.628 64.892C77.764 65.22 77.948 65.504 78.18 65.744C78.42 65.984 78.7 66.168 79.02 66.296C79.34 66.424 79.688 66.488 80.064 66.488ZM88.713 68.096C88.177 68.096 87.697 67.992 87.273 67.784C86.857 67.576 86.533 67.26 86.301 66.836C86.069 66.404 85.953 65.856 85.953 65.192V61.544H87.825V64.916C87.825 65.452 87.937 65.848 88.161 66.104C88.393 66.352 88.717 66.476 89.133 66.476C89.421 66.476 89.677 66.416 89.901 66.296C90.125 66.168 90.301 65.976 90.429 65.72C90.557 65.456 90.621 65.128 90.621 64.736V61.544H92.493V68H90.717V66.224L91.041 66.74C90.825 67.188 90.505 67.528 90.081 67.76C89.665 67.984 89.209 68.096 88.713 68.096ZM98.1873 68V66.74L98.0673 66.464V64.208C98.0673 63.808 97.9433 63.496 97.6953 63.272C97.4553 63.048 97.0833 62.936 96.5793 62.936C96.2353 62.936 95.8953 62.992 95.5593 63.104C95.2313 63.208 94.9513 63.352 94.7193 63.536L94.0473 62.228C94.3993 61.98 94.8233 61.788 95.3193 61.652C95.8153 61.516 96.3193 61.448 96.8313 61.448C97.8153 61.448 98.5793 61.68 99.1233 62.144C99.6673 62.608 99.9393 63.332 99.9393 64.316V68H98.1873ZM96.2193 68.096C95.7153 68.096 95.2833 68.012 94.9233 67.844C94.5633 67.668 94.2873 67.432 94.0953 67.136C93.9033 66.84 93.8073 66.508 93.8073 66.14C93.8073 65.756 93.8993 65.42 94.0833 65.132C94.2753 64.844 94.5753 64.62 94.9833 64.46C95.3913 64.292 95.9233 64.208 96.5793 64.208H98.2953V65.3H96.7833C96.3433 65.3 96.0393 65.372 95.8713 65.516C95.7113 65.66 95.6313 65.84 95.6313 66.056C95.6313 66.296 95.7233 66.488 95.9073 66.632C96.0993 66.768 96.3593 66.836 96.6873 66.836C96.9993 66.836 97.2793 66.764 97.5273 66.62C97.7753 66.468 97.9553 66.248 98.0673 65.96L98.3553 66.824C98.2193 67.24 97.9713 67.556 97.6113 67.772C97.2513 67.988 96.7873 68.096 96.2193 68.096ZM105.558 61.448C106.07 61.448 106.526 61.552 106.926 61.76C107.334 61.96 107.654 62.272 107.886 62.696C108.118 63.112 108.234 63.648 108.234 64.304V68H106.362V64.592C106.362 64.072 106.246 63.688 106.014 63.44C105.79 63.192 105.47 63.068 105.054 63.068C104.758 63.068 104.49 63.132 104.25 63.26C104.018 63.38 103.834 63.568 103.698 63.824C103.57 64.08 103.506 64.408 103.506 64.808V68H101.634V61.544H103.422V63.332L103.086 62.792C103.318 62.36 103.65 62.028 104.082 61.796C104.514 61.564 105.006 61.448 105.558 61.448ZM112.749 68.096C112.141 68.096 111.593 67.96 111.105 67.688C110.617 67.408 110.229 67.02 109.941 66.524C109.661 66.028 109.521 65.444 109.521 64.772C109.521 64.092 109.661 63.504 109.941 63.008C110.229 62.512 110.617 62.128 111.105 61.856C111.593 61.584 112.141 61.448 112.749 61.448C113.293 61.448 113.769 61.568 114.177 61.808C114.585 62.048 114.901 62.412 115.125 62.9C115.349 63.388 115.461 64.012 115.461 64.772C115.461 65.524 115.353 66.148 115.137 66.644C114.921 67.132 114.609 67.496 114.201 67.736C113.801 67.976 113.317 68.096 112.749 68.096ZM113.073 66.56C113.377 66.56 113.653 66.488 113.901 66.344C114.149 66.2 114.345 65.996 114.489 65.732C114.641 65.46 114.717 65.14 114.717 64.772C114.717 64.396 114.641 64.076 114.489 63.812C114.345 63.548 114.149 63.344 113.901 63.2C113.653 63.056 113.377 62.984 113.073 62.984C112.761 62.984 112.481 63.056 112.233 63.2C111.985 63.344 111.785 63.548 111.633 63.812C111.489 64.076 111.417 64.396 111.417 64.772C111.417 65.14 111.489 65.46 111.633 65.732C111.785 65.996 111.985 66.2 112.233 66.344C112.481 66.488 112.761 66.56 113.073 66.56ZM114.765 68V66.68L114.801 64.76L114.681 62.852V59.096H116.553V68H114.765ZM121.358 68.096C120.67 68.096 120.058 67.952 119.522 67.664C118.994 67.376 118.574 66.984 118.262 66.488C117.958 65.984 117.806 65.412 117.806 64.772C117.806 64.124 117.958 63.552 118.262 63.056C118.574 62.552 118.994 62.16 119.522 61.88C120.058 61.592 120.67 61.448 121.358 61.448C122.038 61.448 122.646 61.592 123.182 61.88C123.718 62.16 124.138 62.548 124.442 63.044C124.746 63.54 124.898 64.116 124.898 64.772C124.898 65.412 124.746 65.984 124.442 66.488C124.138 66.984 123.718 67.376 123.182 67.664C122.646 67.952 122.038 68.096 121.358 68.096ZM121.358 66.56C121.67 66.56 121.95 66.488 122.198 66.344C122.446 66.2 122.642 65.996 122.786 65.732C122.93 65.46 123.002 65.14 123.002 64.772C123.002 64.396 122.93 64.076 122.786 63.812C122.642 63.548 122.446 63.344 122.198 63.2C121.95 63.056 121.67 62.984 121.358 62.984C121.046 62.984 120.766 63.056 120.518 63.2C120.27 63.344 120.07 63.548 119.918 63.812C119.774 64.076 119.702 64.396 119.702 64.772C119.702 65.14 119.774 65.46 119.918 65.732C120.07 65.996 120.27 66.2 120.518 66.344C120.766 66.488 121.046 66.56 121.358 66.56ZM126.857 63.788C126.537 63.788 126.261 63.68 126.029 63.464C125.805 63.24 125.693 62.956 125.693 62.612C125.693 62.268 125.805 61.992 126.029 61.784C126.261 61.568 126.537 61.46 126.857 61.46C127.185 61.46 127.461 61.568 127.685 61.784C127.909 61.992 128.021 62.268 128.021 62.612C128.021 62.956 127.909 63.24 127.685 63.464C127.461 63.68 127.185 63.788 126.857 63.788ZM126.857 68.096C126.537 68.096 126.261 67.988 126.029 67.772C125.805 67.548 125.693 67.264 125.693 66.92C125.693 66.576 125.805 66.3 126.029 66.092C126.261 65.876 126.537 65.768 126.857 65.768C127.185 65.768 127.461 65.876 127.685 66.092C127.909 66.3 128.021 66.576 128.021 66.92C128.021 67.264 127.909 67.548 127.685 67.772C127.461 67.988 127.185 68.096 126.857 68.096ZM136.504 68.096C135.96 68.096 135.484 67.976 135.076 67.736C134.668 67.496 134.348 67.132 134.116 66.644C133.892 66.148 133.78 65.524 133.78 64.772C133.78 64.012 133.888 63.388 134.104 62.9C134.32 62.412 134.632 62.048 135.04 61.808C135.448 61.568 135.936 61.448 136.504 61.448C137.112 61.448 137.656 61.588 138.136 61.868C138.624 62.14 139.008 62.524 139.288 63.02C139.576 63.516 139.72 64.1 139.72 64.772C139.72 65.452 139.576 66.04 139.288 66.536C139.008 67.032 138.624 67.416 138.136 67.688C137.656 67.96 137.112 68.096 136.504 68.096ZM132.688 70.328V61.544H134.476V62.864L134.44 64.784L134.56 66.692V70.328H132.688ZM136.18 66.56C136.492 66.56 136.768 66.488 137.008 66.344C137.256 66.2 137.452 65.996 137.596 65.732C137.748 65.46 137.824 65.14 137.824 64.772C137.824 64.396 137.748 64.076 137.596 63.812C137.452 63.548 137.256 63.344 137.008 63.2C136.768 63.056 136.492 62.984 136.18 62.984C135.868 62.984 135.588 63.056 135.34 63.2C135.092 63.344 134.896 63.548 134.752 63.812C134.608 64.076 134.536 64.396 134.536 64.772C134.536 65.14 134.608 65.46 134.752 65.732C134.896 65.996 135.092 66.2 135.34 66.344C135.588 66.488 135.868 66.56 136.18 66.56ZM140.973 68V61.544H142.761V63.368L142.509 62.84C142.701 62.384 143.009 62.04 143.433 61.808C143.857 61.568 144.373 61.448 144.981 61.448V63.176C144.901 63.168 144.829 63.164 144.765 63.164C144.701 63.156 144.633 63.152 144.561 63.152C144.049 63.152 143.633 63.3 143.313 63.596C143.001 63.884 142.845 64.336 142.845 64.952V68H140.973ZM149.252 68.096C148.516 68.096 147.868 67.952 147.308 67.664C146.756 67.376 146.328 66.984 146.024 66.488C145.72 65.984 145.568 65.412 145.568 64.772C145.568 64.124 145.716 63.552 146.012 63.056C146.316 62.552 146.728 62.16 147.248 61.88C147.768 61.592 148.356 61.448 149.012 61.448C149.644 61.448 150.212 61.584 150.716 61.856C151.228 62.12 151.632 62.504 151.928 63.008C152.224 63.504 152.372 64.1 152.372 64.796C152.372 64.868 152.368 64.952 152.36 65.048C152.352 65.136 152.344 65.22 152.336 65.3H147.092V64.208H151.352L150.632 64.532C150.632 64.196 150.564 63.904 150.428 63.656C150.292 63.408 150.104 63.216 149.864 63.08C149.624 62.936 149.344 62.864 149.024 62.864C148.704 62.864 148.42 62.936 148.172 63.08C147.932 63.216 147.744 63.412 147.608 63.668C147.472 63.916 147.404 64.212 147.404 64.556V64.844C147.404 65.196 147.48 65.508 147.632 65.78C147.792 66.044 148.012 66.248 148.292 66.392C148.58 66.528 148.916 66.596 149.3 66.596C149.644 66.596 149.944 66.544 150.2 66.44C150.464 66.336 150.704 66.18 150.92 65.972L151.916 67.052C151.62 67.388 151.248 67.648 150.8 67.832C150.352 68.008 149.836 68.096 149.252 68.096ZM155.79 68.096C155.238 68.096 154.706 68.032 154.194 67.904C153.69 67.768 153.29 67.6 152.994 67.4L153.618 66.056C153.914 66.24 154.262 66.392 154.662 66.512C155.07 66.624 155.47 66.68 155.862 66.68C156.294 66.68 156.598 66.628 156.774 66.524C156.958 66.42 157.05 66.276 157.05 66.092C157.05 65.94 156.978 65.828 156.834 65.756C156.698 65.676 156.514 65.616 156.282 65.576C156.05 65.536 155.794 65.496 155.514 65.456C155.242 65.416 154.966 65.364 154.686 65.3C154.406 65.228 154.15 65.124 153.918 64.988C153.686 64.852 153.498 64.668 153.354 64.436C153.218 64.204 153.15 63.904 153.15 63.536C153.15 63.128 153.266 62.768 153.498 62.456C153.738 62.144 154.082 61.9 154.53 61.724C154.978 61.54 155.514 61.448 156.138 61.448C156.578 61.448 157.026 61.496 157.482 61.592C157.938 61.688 158.318 61.828 158.622 62.012L157.998 63.344C157.686 63.16 157.37 63.036 157.05 62.972C156.738 62.9 156.434 62.864 156.138 62.864C155.722 62.864 155.418 62.92 155.226 63.032C155.034 63.144 154.938 63.288 154.938 63.464C154.938 63.624 155.006 63.744 155.142 63.824C155.286 63.904 155.474 63.968 155.706 64.016C155.938 64.064 156.19 64.108 156.462 64.148C156.742 64.18 157.022 64.232 157.302 64.304C157.582 64.376 157.834 64.48 158.058 64.616C158.29 64.744 158.478 64.924 158.622 65.156C158.766 65.38 158.838 65.676 158.838 66.044C158.838 66.444 158.718 66.8 158.478 67.112C158.238 67.416 157.89 67.656 157.434 67.832C156.986 68.008 156.438 68.096 155.79 68.096ZM162.165 68.096C161.613 68.096 161.081 68.032 160.569 67.904C160.065 67.768 159.665 67.6 159.369 67.4L159.993 66.056C160.289 66.24 160.637 66.392 161.037 66.512C161.445 66.624 161.845 66.68 162.237 66.68C162.669 66.68 162.973 66.628 163.149 66.524C163.333 66.42 163.425 66.276 163.425 66.092C163.425 65.94 163.353 65.828 163.209 65.756C163.073 65.676 162.889 65.616 162.657 65.576C162.425 65.536 162.169 65.496 161.889 65.456C161.617 65.416 161.341 65.364 161.061 65.3C160.781 65.228 160.525 65.124 160.293 64.988C160.061 64.852 159.873 64.668 159.729 64.436C159.593 64.204 159.525 63.904 159.525 63.536C159.525 63.128 159.641 62.768 159.873 62.456C160.113 62.144 160.457 61.9 160.905 61.724C161.353 61.54 161.889 61.448 162.513 61.448C162.953 61.448 163.401 61.496 163.857 61.592C164.313 61.688 164.693 61.828 164.997 62.012L164.373 63.344C164.061 63.16 163.745 63.036 163.425 62.972C163.113 62.9 162.809 62.864 162.513 62.864C162.097 62.864 161.793 62.92 161.601 63.032C161.409 63.144 161.313 63.288 161.313 63.464C161.313 63.624 161.381 63.744 161.517 63.824C161.661 63.904 161.849 63.968 162.081 64.016C162.313 64.064 162.565 64.108 162.837 64.148C163.117 64.18 163.397 64.232 163.677 64.304C163.957 64.376 164.209 64.48 164.433 64.616C164.665 64.744 164.853 64.924 164.997 65.156C165.141 65.38 165.213 65.676 165.213 66.044C165.213 66.444 165.093 66.8 164.853 67.112C164.613 67.416 164.265 67.656 163.809 67.832C163.361 68.008 162.813 68.096 162.165 68.096ZM166.368 68V61.544H168.24V68H166.368ZM167.304 60.644C166.96 60.644 166.68 60.544 166.464 60.344C166.248 60.144 166.14 59.896 166.14 59.6C166.14 59.304 166.248 59.056 166.464 58.856C166.68 58.656 166.96 58.556 167.304 58.556C167.648 58.556 167.928 58.652 168.144 58.844C168.36 59.028 168.468 59.268 168.468 59.564C168.468 59.876 168.36 60.136 168.144 60.344C167.936 60.544 167.656 60.644 167.304 60.644ZM173.049 68.096C172.361 68.096 171.749 67.952 171.213 67.664C170.685 67.376 170.265 66.984 169.953 66.488C169.649 65.984 169.497 65.412 169.497 64.772C169.497 64.124 169.649 63.552 169.953 63.056C170.265 62.552 170.685 62.16 171.213 61.88C171.749 61.592 172.361 61.448 173.049 61.448C173.729 61.448 174.337 61.592 174.873 61.88C175.409 62.16 175.829 62.548 176.133 63.044C176.437 63.54 176.589 64.116 176.589 64.772C176.589 65.412 176.437 65.984 176.133 66.488C175.829 66.984 175.409 67.376 174.873 67.664C174.337 67.952 173.729 68.096 173.049 68.096ZM173.049 66.56C173.361 66.56 173.641 66.488 173.889 66.344C174.137 66.2 174.333 65.996 174.477 65.732C174.621 65.46 174.693 65.14 174.693 64.772C174.693 64.396 174.621 64.076 174.477 63.812C174.333 63.548 174.137 63.344 173.889 63.2C173.641 63.056 173.361 62.984 173.049 62.984C172.737 62.984 172.457 63.056 172.209 63.2C171.961 63.344 171.761 63.548 171.609 63.812C171.465 64.076 171.393 64.396 171.393 64.772C171.393 65.14 171.465 65.46 171.609 65.732C171.761 65.996 171.961 66.2 172.209 66.344C172.457 66.488 172.737 66.56 173.049 66.56ZM181.765 61.448C182.277 61.448 182.733 61.552 183.133 61.76C183.541 61.96 183.861 62.272 184.093 62.696C184.325 63.112 184.441 63.648 184.441 64.304V68H182.569V64.592C182.569 64.072 182.453 63.688 182.221 63.44C181.997 63.192 181.677 63.068 181.261 63.068C180.965 63.068 180.697 63.132 180.457 63.26C180.225 63.38 180.041 63.568 179.905 63.824C179.777 64.08 179.713 64.408 179.713 64.808V68H177.841V61.544H179.629V63.332L179.293 62.792C179.525 62.36 179.857 62.028 180.289 61.796C180.721 61.564 181.213 61.448 181.765 61.448ZM189.388 68.096C188.652 68.096 188.004 67.952 187.444 67.664C186.892 67.376 186.464 66.984 186.16 66.488C185.856 65.984 185.704 65.412 185.704 64.772C185.704 64.124 185.852 63.552 186.148 63.056C186.452 62.552 186.864 62.16 187.384 61.88C187.904 61.592 188.492 61.448 189.148 61.448C189.78 61.448 190.348 61.584 190.852 61.856C191.364 62.12 191.768 62.504 192.064 63.008C192.36 63.504 192.508 64.1 192.508 64.796C192.508 64.868 192.504 64.952 192.496 65.048C192.488 65.136 192.48 65.22 192.472 65.3H187.228V64.208H191.488L190.768 64.532C190.768 64.196 190.7 63.904 190.564 63.656C190.428 63.408 190.24 63.216 190 63.08C189.76 62.936 189.48 62.864 189.16 62.864C188.84 62.864 188.556 62.936 188.308 63.08C188.068 63.216 187.88 63.412 187.744 63.668C187.608 63.916 187.54 64.212 187.54 64.556V64.844C187.54 65.196 187.616 65.508 187.768 65.78C187.928 66.044 188.148 66.248 188.428 66.392C188.716 66.528 189.052 66.596 189.436 66.596C189.78 66.596 190.08 66.544 190.336 66.44C190.6 66.336 190.84 66.18 191.056 65.972L192.052 67.052C191.756 67.388 191.384 67.648 190.936 67.832C190.488 68.008 189.972 68.096 189.388 68.096ZM200.225 68.096C199.537 68.096 198.925 67.952 198.389 67.664C197.861 67.376 197.441 66.984 197.129 66.488C196.825 65.984 196.673 65.412 196.673 64.772C196.673 64.124 196.825 63.552 197.129 63.056C197.441 62.552 197.861 62.16 198.389 61.88C198.925 61.592 199.537 61.448 200.225 61.448C200.905 61.448 201.513 61.592 202.049 61.88C202.585 62.16 203.005 62.548 203.309 63.044C203.613 63.54 203.765 64.116 203.765 64.772C203.765 65.412 203.613 65.984 203.309 66.488C203.005 66.984 202.585 67.376 202.049 67.664C201.513 67.952 200.905 68.096 200.225 68.096ZM200.225 66.56C200.537 66.56 200.817 66.488 201.065 66.344C201.313 66.2 201.509 65.996 201.653 65.732C201.797 65.46 201.869 65.14 201.869 64.772C201.869 64.396 201.797 64.076 201.653 63.812C201.509 63.548 201.313 63.344 201.065 63.2C200.817 63.056 200.537 62.984 200.225 62.984C199.913 62.984 199.633 63.056 199.385 63.2C199.137 63.344 198.937 63.548 198.785 63.812C198.641 64.076 198.569 64.396 198.569 64.772C198.569 65.14 198.641 65.46 198.785 65.732C198.937 65.996 199.137 66.2 199.385 66.344C199.633 66.488 199.913 66.56 200.225 66.56ZM212.231 68.096C211.663 68.096 211.175 67.976 210.767 67.736C210.359 67.496 210.047 67.132 209.831 66.644C209.615 66.148 209.507 65.524 209.507 64.772C209.507 64.012 209.619 63.388 209.843 62.9C210.075 62.412 210.395 62.048 210.803 61.808C211.211 61.568 211.687 61.448 212.231 61.448C212.839 61.448 213.383 61.584 213.863 61.856C214.351 62.128 214.735 62.512 215.015 63.008C215.303 63.504 215.447 64.092 215.447 64.772C215.447 65.444 215.303 66.028 215.015 66.524C214.735 67.02 214.351 67.408 213.863 67.688C213.383 67.96 212.839 68.096 212.231 68.096ZM208.415 68V59.096H210.287V62.852L210.167 64.76L210.203 66.68V68H208.415ZM211.907 66.56C212.219 66.56 212.495 66.488 212.735 66.344C212.983 66.2 213.179 65.996 213.323 65.732C213.475 65.46 213.551 65.14 213.551 64.772C213.551 64.396 213.475 64.076 213.323 63.812C213.179 63.548 212.983 63.344 212.735 63.2C212.495 63.056 212.219 62.984 211.907 62.984C211.595 62.984 211.315 63.056 211.067 63.2C210.819 63.344 210.623 63.548 210.479 63.812C210.335 64.076 210.263 64.396 210.263 64.772C210.263 65.14 210.335 65.46 210.479 65.732C210.623 65.996 210.819 66.2 211.067 66.344C211.315 66.488 211.595 66.56 211.907 66.56ZM219.772 68.096C219.084 68.096 218.472 67.952 217.936 67.664C217.408 67.376 216.988 66.984 216.676 66.488C216.372 65.984 216.22 65.412 216.22 64.772C216.22 64.124 216.372 63.552 216.676 63.056C216.988 62.552 217.408 62.16 217.936 61.88C218.472 61.592 219.084 61.448 219.772 61.448C220.452 61.448 221.06 61.592 221.596 61.88C222.132 62.16 222.552 62.548 222.856 63.044C223.16 63.54 223.312 64.116 223.312 64.772C223.312 65.412 223.16 65.984 222.856 66.488C222.552 66.984 222.132 67.376 221.596 67.664C221.06 67.952 220.452 68.096 219.772 68.096ZM219.772 66.56C220.084 66.56 220.364 66.488 220.612 66.344C220.86 66.2 221.056 65.996 221.2 65.732C221.344 65.46 221.416 65.14 221.416 64.772C221.416 64.396 221.344 64.076 221.2 63.812C221.056 63.548 220.86 63.344 220.612 63.2C220.364 63.056 220.084 62.984 219.772 62.984C219.46 62.984 219.18 63.056 218.932 63.2C218.684 63.344 218.484 63.548 218.332 63.812C218.188 64.076 218.116 64.396 218.116 64.772C218.116 65.14 218.188 65.46 218.332 65.732C218.484 65.996 218.684 66.2 218.932 66.344C219.18 66.488 219.46 66.56 219.772 66.56ZM227.203 68.096C226.443 68.096 225.851 67.904 225.427 67.52C225.003 67.128 224.791 66.548 224.791 65.78V60.116H226.663V65.756C226.663 66.028 226.735 66.24 226.879 66.392C227.023 66.536 227.219 66.608 227.467 66.608C227.763 66.608 228.015 66.528 228.223 66.368L228.727 67.688C228.535 67.824 228.303 67.928 228.031 68C227.767 68.064 227.491 68.096 227.203 68.096ZM223.795 63.128V61.688H228.271V63.128H223.795ZM233.738 68V66.74L233.618 66.464V64.208C233.618 63.808 233.494 63.496 233.246 63.272C233.006 63.048 232.634 62.936 232.13 62.936C231.786 62.936 231.446 62.992 231.11 63.104C230.782 63.208 230.502 63.352 230.27 63.536L229.598 62.228C229.95 61.98 230.374 61.788 230.87 61.652C231.366 61.516 231.87 61.448 232.382 61.448C233.366 61.448 234.13 61.68 234.674 62.144C235.218 62.608 235.49 63.332 235.49 64.316V68H233.738ZM231.77 68.096C231.266 68.096 230.834 68.012 230.474 67.844C230.114 67.668 229.838 67.432 229.646 67.136C229.454 66.84 229.358 66.508 229.358 66.14C229.358 65.756 229.45 65.42 229.634 65.132C229.826 64.844 230.126 64.62 230.534 64.46C230.942 64.292 231.474 64.208 232.13 64.208H233.846V65.3H232.334C231.894 65.3 231.59 65.372 231.422 65.516C231.262 65.66 231.182 65.84 231.182 66.056C231.182 66.296 231.274 66.488 231.458 66.632C231.65 66.768 231.91 66.836 232.238 66.836C232.55 66.836 232.83 66.764 233.078 66.62C233.326 66.468 233.506 66.248 233.618 65.96L233.906 66.824C233.77 67.24 233.522 67.556 233.162 67.772C232.802 67.988 232.338 68.096 231.77 68.096ZM233.474 60.752C233.266 60.752 233.082 60.716 232.922 60.644C232.762 60.564 232.618 60.476 232.49 60.38C232.362 60.276 232.242 60.188 232.13 60.116C232.018 60.036 231.906 59.996 231.794 59.996C231.634 59.996 231.502 60.056 231.398 60.176C231.294 60.288 231.234 60.452 231.218 60.668H230.27C230.286 60.132 230.418 59.708 230.666 59.396C230.914 59.076 231.25 58.916 231.674 58.916C231.882 58.916 232.066 58.956 232.226 59.036C232.386 59.108 232.53 59.196 232.658 59.3C232.794 59.404 232.918 59.496 233.03 59.576C233.142 59.648 233.25 59.684 233.354 59.684C233.522 59.684 233.658 59.628 233.762 59.516C233.866 59.396 233.922 59.236 233.93 59.036H234.878C234.87 59.548 234.738 59.964 234.482 60.284C234.234 60.596 233.898 60.752 233.474 60.752ZM240.303 68.096C239.615 68.096 239.003 67.952 238.467 67.664C237.939 67.376 237.519 66.984 237.207 66.488C236.903 65.984 236.751 65.412 236.751 64.772C236.751 64.124 236.903 63.552 237.207 63.056C237.519 62.552 237.939 62.16 238.467 61.88C239.003 61.592 239.615 61.448 240.303 61.448C240.983 61.448 241.591 61.592 242.127 61.88C242.663 62.16 243.083 62.548 243.387 63.044C243.691 63.54 243.843 64.116 243.843 64.772C243.843 65.412 243.691 65.984 243.387 66.488C243.083 66.984 242.663 67.376 242.127 67.664C241.591 67.952 240.983 68.096 240.303 68.096ZM240.303 66.56C240.615 66.56 240.895 66.488 241.143 66.344C241.391 66.2 241.587 65.996 241.731 65.732C241.875 65.46 241.947 65.14 241.947 64.772C241.947 64.396 241.875 64.076 241.731 63.812C241.587 63.548 241.391 63.344 241.143 63.2C240.895 63.056 240.615 62.984 240.303 62.984C239.991 62.984 239.711 63.056 239.463 63.2C239.215 63.344 239.015 63.548 238.863 63.812C238.719 64.076 238.647 64.396 238.647 64.772C238.647 65.14 238.719 65.46 238.863 65.732C239.015 65.996 239.215 66.2 239.463 66.344C239.711 66.488 239.991 66.56 240.303 66.56ZM248.625 68V59.6H250.569V68H248.625ZM256.354 61.448C256.866 61.448 257.322 61.552 257.722 61.76C258.13 61.96 258.45 62.272 258.682 62.696C258.914 63.112 259.03 63.648 259.03 64.304V68H257.158V64.592C257.158 64.072 257.042 63.688 256.81 63.44C256.586 63.192 256.266 63.068 255.85 63.068C255.554 63.068 255.286 63.132 255.046 63.26C254.814 63.38 254.63 63.568 254.494 63.824C254.366 64.08 254.302 64.408 254.302 64.808V68H252.43V61.544H254.218V63.332L253.882 62.792C254.114 62.36 254.446 62.028 254.878 61.796C255.31 61.564 255.802 61.448 256.354 61.448ZM260.727 68V61.544H262.599V68H260.727ZM261.663 60.644C261.319 60.644 261.039 60.544 260.823 60.344C260.607 60.144 260.499 59.896 260.499 59.6C260.499 59.304 260.607 59.056 260.823 58.856C261.039 58.656 261.319 58.556 261.663 58.556C262.007 58.556 262.287 58.652 262.503 58.844C262.719 59.028 262.827 59.268 262.827 59.564C262.827 59.876 262.719 60.136 262.503 60.344C262.295 60.544 262.015 60.644 261.663 60.644ZM267.457 68.096C266.761 68.096 266.141 67.956 265.597 67.676C265.053 67.388 264.625 66.992 264.313 66.488C264.009 65.984 263.857 65.412 263.857 64.772C263.857 64.124 264.009 63.552 264.313 63.056C264.625 62.552 265.053 62.16 265.597 61.88C266.141 61.592 266.761 61.448 267.457 61.448C268.137 61.448 268.729 61.592 269.233 61.88C269.737 62.16 270.109 62.564 270.349 63.092L268.897 63.872C268.729 63.568 268.517 63.344 268.261 63.2C268.013 63.056 267.741 62.984 267.445 62.984C267.125 62.984 266.837 63.056 266.581 63.2C266.325 63.344 266.121 63.548 265.969 63.812C265.825 64.076 265.753 64.396 265.753 64.772C265.753 65.148 265.825 65.468 265.969 65.732C266.121 65.996 266.325 66.2 266.581 66.344C266.837 66.488 267.125 66.56 267.445 66.56C267.741 66.56 268.013 66.492 268.261 66.356C268.517 66.212 268.729 65.984 268.897 65.672L270.349 66.464C270.109 66.984 269.737 67.388 269.233 67.676C268.729 67.956 268.137 68.096 267.457 68.096ZM271.391 68V61.544H273.263V68H271.391ZM272.327 60.644C271.983 60.644 271.703 60.544 271.487 60.344C271.271 60.144 271.163 59.896 271.163 59.6C271.163 59.304 271.271 59.056 271.487 58.856C271.703 58.656 271.983 58.556 272.327 58.556C272.671 58.556 272.951 58.652 273.167 58.844C273.383 59.028 273.491 59.268 273.491 59.564C273.491 59.876 273.383 60.136 273.167 60.344C272.959 60.544 272.679 60.644 272.327 60.644ZM278.961 68V66.74L278.841 66.464V64.208C278.841 63.808 278.717 63.496 278.469 63.272C278.229 63.048 277.857 62.936 277.353 62.936C277.009 62.936 276.669 62.992 276.333 63.104C276.005 63.208 275.725 63.352 275.493 63.536L274.821 62.228C275.173 61.98 275.597 61.788 276.093 61.652C276.589 61.516 277.093 61.448 277.605 61.448C278.589 61.448 279.353 61.68 279.897 62.144C280.441 62.608 280.713 63.332 280.713 64.316V68H278.961ZM276.993 68.096C276.489 68.096 276.057 68.012 275.697 67.844C275.337 67.668 275.061 67.432 274.869 67.136C274.677 66.84 274.581 66.508 274.581 66.14C274.581 65.756 274.673 65.42 274.857 65.132C275.049 64.844 275.349 64.62 275.757 64.46C276.165 64.292 276.697 64.208 277.353 64.208H279.069V65.3H277.557C277.117 65.3 276.813 65.372 276.645 65.516C276.485 65.66 276.405 65.84 276.405 66.056C276.405 66.296 276.497 66.488 276.681 66.632C276.873 66.768 277.133 66.836 277.461 66.836C277.773 66.836 278.053 66.764 278.301 66.62C278.549 66.468 278.729 66.248 278.841 65.96L279.129 66.824C278.993 67.24 278.745 67.556 278.385 67.772C278.025 67.988 277.561 68.096 276.993 68.096ZM282.407 68V61.544H284.195V63.368L283.943 62.84C284.135 62.384 284.443 62.04 284.867 61.808C285.291 61.568 285.807 61.448 286.415 61.448V63.176C286.335 63.168 286.263 63.164 286.199 63.164C286.135 63.156 286.067 63.152 285.995 63.152C285.483 63.152 285.067 63.3 284.747 63.596C284.435 63.884 284.279 64.336 284.279 64.952V68H282.407ZM288.166 68.096C287.846 68.096 287.57 67.988 287.338 67.772C287.114 67.548 287.002 67.264 287.002 66.92C287.002 66.576 287.114 66.3 287.338 66.092C287.57 65.876 287.846 65.768 288.166 65.768C288.494 65.768 288.77 65.876 288.994 66.092C289.218 66.3 289.33 66.576 289.33 66.92C289.33 67.264 289.218 67.548 288.994 67.772C288.77 67.988 288.494 68.096 288.166 68.096Z" fill="#333333"/>
</g>
<defs>
<filter id="filter0_d_10_3295" x="0" y="0" width="380" height="224" filterUnits="userSpaceOnUse" color-interpolation-filters="sRGB">
<feFlood flood-opacity="0" result="BackgroundImageFix"/>
<feColorMatrix in="SourceAlpha" type="matrix" values="0 0 0 0 0 0 0 0 0 0 0 0 0 0 0 0 0 0 127 0" result="hardAlpha"/>
<feOffset dy="4"/>
<feColorMatrix type="matrix" values="0 0 0 0 0 0 0 0 0 0 0 0 0 0 0 0 0 0 0.25 0"/>
<feBlend mode="normal" in2="BackgroundImageFix" result="effect1_dropShadow_10_3295"/>
<feBlend mode="normal" in="SourceGraphic" in2="effect1_dropShadow_10_3295" result="shape"/>
</filter>
</defs>
</svg>
