<svg width="380" height="224" viewBox="0 0 380 224" fill="none" xmlns="http://www.w3.org/2000/svg">
<g filter="url(#filter0_d_10_3183)">
<rect width="380" height="220" rx="20" fill="#F2F2F2"/>
<path fill-rule="evenodd" clip-rule="evenodd" d="M315 118.985C315 108 306 98.9922 295 98.9922C233.172 98.9922 208 98.9995 208 98.9995L200 107H163L154 98.9993H119.147C108.147 98.9993 99.1467 108 99.1467 118.992C99.1467 118.999 99.1467 119.007 99.1467 119.014C99.1467 130 108.147 139 119.147 139C135.71 139 154 139 154 139L163 147H200L208 139H295.147C306 139 315 130 315 119.007C315 119 315 119.5 315 118.985Z" fill="#30DCFF"/>
<path fill-rule="evenodd" clip-rule="evenodd" d="M315 118.989C315 108 306 99 294.853 99C233.025 99 208 99.0001 208 99.0001L200 107H163L154 99.0001H119C108 99.0001 99 108 99 118.989C99 118.996 99 119 99 119H104C104 109 111 104 119 104C133.664 104 152 104 152 104L161 112H202L210 104H295C304 104 310 110 310 119L315 119V118.989Z" fill="white" fill-opacity="0.5"/>
<path fill-rule="evenodd" clip-rule="evenodd" d="M315 119L310 119C310 127.971 304.197 134 295 134C237.995 134 206 134 206 134L198 142H165L156 134H119C108.496 134 104 128 104 119.001L99 119V119.011C99 130 108 139 119 139C135.563 139 154 139 154 139L163 147H200L208 139H295C306 139 315 130 315 119Z" fill="black" fill-opacity="0.25"/>
<path d="M135.947 127.12C135.291 127.12 134.663 127.028 134.063 126.844C133.463 126.652 132.987 126.408 132.635 126.112L133.175 124.9C133.511 125.164 133.927 125.384 134.423 125.56C134.919 125.736 135.427 125.824 135.947 125.824C136.387 125.824 136.743 125.776 137.015 125.68C137.287 125.584 137.487 125.456 137.615 125.296C137.743 125.128 137.807 124.94 137.807 124.732C137.807 124.476 137.715 124.272 137.531 124.12C137.347 123.96 137.107 123.836 136.811 123.748C136.523 123.652 136.199 123.564 135.839 123.484C135.487 123.404 135.131 123.312 134.771 123.208C134.419 123.096 134.095 122.956 133.799 122.788C133.511 122.612 133.275 122.38 133.091 122.092C132.907 121.804 132.815 121.436 132.815 120.988C132.815 120.532 132.935 120.116 133.175 119.74C133.423 119.356 133.795 119.052 134.291 118.828C134.795 118.596 135.431 118.48 136.199 118.48C136.703 118.48 137.203 118.544 137.699 118.672C138.195 118.8 138.627 118.984 138.995 119.224L138.503 120.436C138.127 120.212 137.739 120.048 137.339 119.944C136.939 119.832 136.555 119.776 136.187 119.776C135.755 119.776 135.403 119.828 135.131 119.932C134.867 120.036 134.671 120.172 134.543 120.34C134.423 120.508 134.363 120.7 134.363 120.916C134.363 121.172 134.451 121.38 134.627 121.54C134.811 121.692 135.047 121.812 135.335 121.9C135.631 121.988 135.959 122.076 136.319 122.164C136.679 122.244 137.035 122.336 137.387 122.44C137.747 122.544 138.071 122.68 138.359 122.848C138.655 123.016 138.891 123.244 139.067 123.532C139.251 123.82 139.343 124.184 139.343 124.624C139.343 125.072 139.219 125.488 138.971 125.872C138.731 126.248 138.359 126.552 137.855 126.784C137.351 127.008 136.715 127.12 135.947 127.12ZM143.458 127.084C142.914 127.084 142.434 126.984 142.018 126.784C141.602 126.576 141.278 126.264 141.046 125.848C140.814 125.424 140.698 124.892 140.698 124.252V120.592H142.198V124.048C142.198 124.624 142.326 125.056 142.582 125.344C142.846 125.624 143.218 125.764 143.698 125.764C144.05 125.764 144.354 125.692 144.61 125.548C144.874 125.404 145.078 125.188 145.222 124.9C145.374 124.612 145.45 124.256 145.45 123.832V120.592H146.95V127H145.522V125.272L145.774 125.8C145.558 126.216 145.242 126.536 144.826 126.76C144.41 126.976 143.954 127.084 143.458 127.084ZM152.466 127.084C151.922 127.084 151.438 126.964 151.014 126.724C150.59 126.484 150.254 126.124 150.006 125.644C149.766 125.156 149.646 124.54 149.646 123.796C149.646 123.044 149.77 122.428 150.018 121.948C150.274 121.468 150.614 121.112 151.038 120.88C151.47 120.64 151.946 120.52 152.466 120.52C153.098 120.52 153.654 120.656 154.134 120.928C154.622 121.2 155.006 121.58 155.286 122.068C155.574 122.556 155.718 123.132 155.718 123.796C155.718 124.46 155.574 125.036 155.286 125.524C155.006 126.012 154.622 126.396 154.134 126.676C153.654 126.948 153.098 127.084 152.466 127.084ZM148.914 127V118.096H150.414V122.08L150.294 123.784L150.342 125.488V127H148.914ZM152.298 125.8C152.658 125.8 152.978 125.72 153.258 125.56C153.546 125.4 153.774 125.168 153.942 124.864C154.11 124.56 154.194 124.204 154.194 123.796C154.194 123.38 154.11 123.024 153.942 122.728C153.774 122.424 153.546 122.192 153.258 122.032C152.978 121.872 152.658 121.792 152.298 121.792C151.938 121.792 151.614 121.872 151.326 122.032C151.038 122.192 150.81 122.424 150.642 122.728C150.474 123.024 150.39 123.38 150.39 123.796C150.39 124.204 150.474 124.56 150.642 124.864C150.81 125.168 151.038 125.4 151.326 125.56C151.614 125.72 151.938 125.8 152.298 125.8ZM157.14 127V120.592H158.64V127H157.14ZM157.896 119.536C157.616 119.536 157.384 119.448 157.2 119.272C157.024 119.096 156.936 118.884 156.936 118.636C156.936 118.38 157.024 118.168 157.2 118C157.384 117.824 157.616 117.736 157.896 117.736C158.176 117.736 158.404 117.82 158.58 117.988C158.764 118.148 158.856 118.352 158.856 118.6C158.856 118.864 158.768 119.088 158.592 119.272C158.416 119.448 158.184 119.536 157.896 119.536ZM160.609 127V120.592H162.037V122.356L161.869 121.84C162.061 121.408 162.361 121.08 162.769 120.856C163.185 120.632 163.701 120.52 164.317 120.52V121.948C164.253 121.932 164.193 121.924 164.137 121.924C164.081 121.916 164.025 121.912 163.969 121.912C163.401 121.912 162.949 122.08 162.613 122.416C162.277 122.744 162.109 123.236 162.109 123.892V127H160.609Z" fill="#333333"/>
<path d="M219.696 127.084C219.08 127.084 218.524 126.948 218.028 126.676C217.54 126.404 217.156 126.024 216.876 125.536C216.596 125.04 216.456 124.46 216.456 123.796C216.456 123.132 216.596 122.556 216.876 122.068C217.156 121.58 217.54 121.2 218.028 120.928C218.524 120.656 219.08 120.52 219.696 120.52C220.248 120.52 220.732 120.64 221.148 120.88C221.572 121.112 221.904 121.468 222.144 121.948C222.392 122.428 222.516 123.044 222.516 123.796C222.516 124.54 222.388 125.156 222.132 125.644C221.884 126.124 221.548 126.484 221.124 126.724C220.7 126.964 220.224 127.084 219.696 127.084ZM219.864 125.8C220.224 125.8 220.548 125.72 220.836 125.56C221.124 125.4 221.352 125.168 221.52 124.864C221.688 124.56 221.772 124.204 221.772 123.796C221.772 123.38 221.688 123.024 221.52 122.728C221.352 122.424 221.124 122.192 220.836 122.032C220.548 121.872 220.224 121.792 219.864 121.792C219.504 121.792 219.18 121.872 218.892 122.032C218.612 122.192 218.388 122.424 218.22 122.728C218.052 123.024 217.968 123.38 217.968 123.796C217.968 124.204 218.052 124.56 218.22 124.864C218.388 125.168 218.612 125.4 218.892 125.56C219.18 125.72 219.504 125.8 219.864 125.8ZM221.748 129.328V125.512L221.868 123.808L221.82 122.104V120.592H223.248V129.328H221.748ZM227.923 127.084C227.379 127.084 226.899 126.984 226.483 126.784C226.067 126.576 225.743 126.264 225.511 125.848C225.279 125.424 225.163 124.892 225.163 124.252V120.592H226.663V124.048C226.663 124.624 226.791 125.056 227.047 125.344C227.311 125.624 227.683 125.764 228.163 125.764C228.515 125.764 228.819 125.692 229.075 125.548C229.339 125.404 229.543 125.188 229.687 124.9C229.839 124.612 229.915 124.256 229.915 123.832V120.592H231.415V127H229.987V125.272L230.239 125.8C230.023 126.216 229.707 126.536 229.291 126.76C228.875 126.976 228.419 127.084 227.923 127.084ZM237.327 127V125.704L237.243 125.428V123.16C237.243 122.72 237.111 122.38 236.847 122.14C236.583 121.892 236.183 121.768 235.647 121.768C235.287 121.768 234.931 121.824 234.579 121.936C234.235 122.048 233.943 122.204 233.703 122.404L233.115 121.312C233.459 121.048 233.867 120.852 234.339 120.724C234.819 120.588 235.315 120.52 235.827 120.52C236.755 120.52 237.471 120.744 237.975 121.192C238.487 121.632 238.743 122.316 238.743 123.244V127H237.327ZM235.311 127.084C234.831 127.084 234.411 127.004 234.051 126.844C233.691 126.676 233.411 126.448 233.211 126.16C233.019 125.864 232.923 125.532 232.923 125.164C232.923 124.804 233.007 124.48 233.175 124.192C233.351 123.904 233.635 123.676 234.027 123.508C234.419 123.34 234.939 123.256 235.587 123.256H237.447V124.252H235.695C235.183 124.252 234.839 124.336 234.663 124.504C234.487 124.664 234.399 124.864 234.399 125.104C234.399 125.376 234.507 125.592 234.723 125.752C234.939 125.912 235.239 125.992 235.623 125.992C235.991 125.992 236.319 125.908 236.607 125.74C236.903 125.572 237.115 125.324 237.243 124.996L237.495 125.896C237.351 126.272 237.091 126.564 236.715 126.772C236.347 126.98 235.879 127.084 235.311 127.084ZM243.391 127.084C242.775 127.084 242.219 126.948 241.723 126.676C241.235 126.396 240.851 126.012 240.571 125.524C240.291 125.036 240.151 124.46 240.151 123.796C240.151 123.132 240.291 122.556 240.571 122.068C240.851 121.58 241.235 121.2 241.723 120.928C242.219 120.656 242.775 120.52 243.391 120.52C243.927 120.52 244.407 120.64 244.831 120.88C245.255 121.112 245.591 121.468 245.839 121.948C246.087 122.428 246.211 123.044 246.211 123.796C246.211 124.54 246.091 125.156 245.851 125.644C245.611 126.124 245.279 126.484 244.855 126.724C244.431 126.964 243.943 127.084 243.391 127.084ZM243.571 125.8C243.931 125.8 244.251 125.72 244.531 125.56C244.819 125.4 245.047 125.168 245.215 124.864C245.391 124.56 245.479 124.204 245.479 123.796C245.479 123.38 245.391 123.024 245.215 122.728C245.047 122.424 244.819 122.192 244.531 122.032C244.251 121.872 243.931 121.792 243.571 121.792C243.211 121.792 242.887 121.872 242.599 122.032C242.319 122.192 242.091 122.424 241.915 122.728C241.747 123.024 241.663 123.38 241.663 123.796C241.663 124.204 241.747 124.56 241.915 124.864C242.091 125.168 242.319 125.4 242.599 125.56C242.887 125.72 243.211 125.8 243.571 125.8ZM245.515 127V125.488L245.575 123.784L245.455 122.08V118.096H246.943V127H245.515ZM248.918 127V120.592H250.346V122.356L250.178 121.84C250.37 121.408 250.67 121.08 251.078 120.856C251.494 120.632 252.01 120.52 252.626 120.52V121.948C252.562 121.932 252.502 121.924 252.446 121.924C252.39 121.916 252.334 121.912 252.278 121.912C251.71 121.912 251.258 122.08 250.922 122.416C250.586 122.744 250.418 123.236 250.418 123.892V127H248.918ZM257.389 127V125.704L257.305 125.428V123.16C257.305 122.72 257.173 122.38 256.909 122.14C256.645 121.892 256.245 121.768 255.709 121.768C255.349 121.768 254.993 121.824 254.641 121.936C254.297 122.048 254.005 122.204 253.765 122.404L253.177 121.312C253.521 121.048 253.929 120.852 254.401 120.724C254.881 120.588 255.377 120.52 255.889 120.52C256.817 120.52 257.533 120.744 258.037 121.192C258.549 121.632 258.805 122.316 258.805 123.244V127H257.389ZM255.373 127.084C254.893 127.084 254.473 127.004 254.113 126.844C253.753 126.676 253.473 126.448 253.273 126.16C253.081 125.864 252.985 125.532 252.985 125.164C252.985 124.804 253.069 124.48 253.237 124.192C253.413 123.904 253.697 123.676 254.089 123.508C254.481 123.34 255.001 123.256 255.649 123.256H257.509V124.252H255.757C255.245 124.252 254.901 124.336 254.725 124.504C254.549 124.664 254.461 124.864 254.461 125.104C254.461 125.376 254.569 125.592 254.785 125.752C255.001 125.912 255.301 125.992 255.685 125.992C256.053 125.992 256.381 125.908 256.669 125.74C256.965 125.572 257.177 125.324 257.305 124.996L257.557 125.896C257.413 126.272 257.153 126.564 256.777 126.772C256.409 126.98 255.941 127.084 255.373 127.084ZM263.454 127.084C262.838 127.084 262.282 126.948 261.786 126.676C261.298 126.396 260.914 126.012 260.634 125.524C260.354 125.036 260.214 124.46 260.214 123.796C260.214 123.132 260.354 122.556 260.634 122.068C260.914 121.58 261.298 121.2 261.786 120.928C262.282 120.656 262.838 120.52 263.454 120.52C263.99 120.52 264.47 120.64 264.894 120.88C265.318 121.112 265.654 121.468 265.902 121.948C266.15 122.428 266.274 123.044 266.274 123.796C266.274 124.54 266.154 125.156 265.914 125.644C265.674 126.124 265.342 126.484 264.918 126.724C264.494 126.964 264.006 127.084 263.454 127.084ZM263.634 125.8C263.994 125.8 264.314 125.72 264.594 125.56C264.882 125.4 265.11 125.168 265.278 124.864C265.454 124.56 265.542 124.204 265.542 123.796C265.542 123.38 265.454 123.024 265.278 122.728C265.11 122.424 264.882 122.192 264.594 122.032C264.314 121.872 263.994 121.792 263.634 121.792C263.274 121.792 262.95 121.872 262.662 122.032C262.382 122.192 262.154 122.424 261.978 122.728C261.81 123.024 261.726 123.38 261.726 123.796C261.726 124.204 261.81 124.56 261.978 124.864C262.154 125.168 262.382 125.4 262.662 125.56C262.95 125.72 263.274 125.8 263.634 125.8ZM265.578 127V125.488L265.638 123.784L265.518 122.08V118.096H267.006V127H265.578ZM271.86 127.084C271.204 127.084 270.62 126.944 270.108 126.664C269.596 126.376 269.192 125.984 268.896 125.488C268.6 124.992 268.452 124.428 268.452 123.796C268.452 123.156 268.6 122.592 268.896 122.104C269.192 121.608 269.596 121.22 270.108 120.94C270.62 120.66 271.204 120.52 271.86 120.52C272.524 120.52 273.112 120.66 273.624 120.94C274.144 121.22 274.548 121.604 274.836 122.092C275.132 122.58 275.28 123.148 275.28 123.796C275.28 124.428 275.132 124.992 274.836 125.488C274.548 125.984 274.144 126.376 273.624 126.664C273.112 126.944 272.524 127.084 271.86 127.084ZM271.86 125.8C272.228 125.8 272.556 125.72 272.844 125.56C273.132 125.4 273.356 125.168 273.516 124.864C273.684 124.56 273.768 124.204 273.768 123.796C273.768 123.38 273.684 123.024 273.516 122.728C273.356 122.424 273.132 122.192 272.844 122.032C272.556 121.872 272.232 121.792 271.872 121.792C271.504 121.792 271.176 121.872 270.888 122.032C270.608 122.192 270.384 122.424 270.216 122.728C270.048 123.024 269.964 123.38 269.964 123.796C269.964 124.204 270.048 124.56 270.216 124.864C270.384 125.168 270.608 125.4 270.888 125.56C271.176 125.72 271.5 125.8 271.86 125.8ZM278.694 127.084C278.158 127.084 277.642 127.016 277.146 126.88C276.658 126.736 276.27 126.564 275.982 126.364L276.558 125.224C276.846 125.408 277.19 125.56 277.59 125.68C277.99 125.8 278.39 125.86 278.79 125.86C279.262 125.86 279.602 125.796 279.81 125.668C280.026 125.54 280.134 125.368 280.134 125.152C280.134 124.976 280.062 124.844 279.918 124.756C279.774 124.66 279.586 124.588 279.354 124.54C279.122 124.492 278.862 124.448 278.574 124.408C278.294 124.368 278.01 124.316 277.722 124.252C277.442 124.18 277.186 124.08 276.954 123.952C276.722 123.816 276.534 123.636 276.39 123.412C276.246 123.188 276.174 122.892 276.174 122.524C276.174 122.116 276.29 121.764 276.522 121.468C276.754 121.164 277.078 120.932 277.494 120.772C277.918 120.604 278.418 120.52 278.994 120.52C279.426 120.52 279.862 120.568 280.302 120.664C280.742 120.76 281.106 120.896 281.394 121.072L280.818 122.212C280.514 122.028 280.206 121.904 279.894 121.84C279.59 121.768 279.286 121.732 278.982 121.732C278.526 121.732 278.186 121.8 277.962 121.936C277.746 122.072 277.638 122.244 277.638 122.452C277.638 122.644 277.71 122.788 277.854 122.884C277.998 122.98 278.186 123.056 278.418 123.112C278.65 123.168 278.906 123.216 279.186 123.256C279.474 123.288 279.758 123.34 280.038 123.412C280.318 123.484 280.574 123.584 280.806 123.712C281.046 123.832 281.238 124.004 281.382 124.228C281.526 124.452 281.598 124.744 281.598 125.104C281.598 125.504 281.478 125.852 281.238 126.148C281.006 126.444 280.674 126.676 280.242 126.844C279.81 127.004 279.294 127.084 278.694 127.084Z" fill="#333333"/>
<rect x="190" y="113" width="20" height="20" rx="5" fill="#F2F2F2"/>
<path d="M201.378 121.924C202.026 122.084 202.522 122.376 202.866 122.8C203.218 123.216 203.394 123.72 203.394 124.312C203.394 124.816 203.254 125.288 202.974 125.728C202.702 126.16 202.278 126.512 201.702 126.784C201.126 127.056 200.41 127.192 199.554 127.192C198.962 127.192 198.37 127.128 197.778 127C197.194 126.872 196.682 126.684 196.242 126.436L197.202 124.348C197.546 124.548 197.914 124.7 198.306 124.804C198.706 124.908 199.09 124.96 199.458 124.96C199.786 124.96 200.05 124.904 200.25 124.792C200.45 124.68 200.55 124.52 200.55 124.312C200.55 123.928 200.218 123.736 199.554 123.736H198.438V121.996L199.674 120.736H196.674V118.6H202.938V120.34L201.378 121.924Z" fill="#333333"/>
<path fill-rule="evenodd" clip-rule="evenodd" d="M315 157.985C315 147 306 137.992 295 137.992C233.172 137.992 208 138 208 138L200 146H163L154 137.999H119.147C108.147 137.999 99.1467 147 99.1467 157.992C99.1467 157.999 99.1467 158.007 99.1467 158.014C99.1467 169 108.147 178 119.147 178C135.71 178 154 178 154 178L163 186H200L208 178H295.147C306 178 315 169 315 158.007C315 158 315 158.5 315 157.985Z" fill="#30DCFF"/>
<path fill-rule="evenodd" clip-rule="evenodd" d="M315 157.989C315 147 306 138 294.853 138C233.025 138 208 138 208 138L200 146H163L154 138H119C108 138 99 147 99 157.989C99 157.996 99 158 99 158H104C104 148 111 143 119 143C133.664 143 152 143 152 143L161 151H202L210 143H295C304 143 310 149 310 158L315 158V157.989Z" fill="white" fill-opacity="0.5"/>
<path fill-rule="evenodd" clip-rule="evenodd" d="M315 158L310 158C310 166.971 304.197 173 295 173C237.995 173 206 173 206 173L198 181H165L156 173H119C108.496 173 104 167 104 158.001L99 158V158.011C99 169 108 178 119 178C135.563 178 154 178 154 178L163 186H200L208 178H295C306 178 315 169 315 158Z" fill="black" fill-opacity="0.25"/>
<path d="M109.94 166V159H111.01L114.07 164.11H113.51L116.52 159H117.59L117.6 166H116.37L116.36 160.93H116.62L114.06 165.2H113.48L110.88 160.93H111.18V166H109.94ZM121.771 166.07C121.224 166.07 120.737 165.953 120.311 165.72C119.884 165.48 119.547 165.153 119.301 164.74C119.054 164.327 118.931 163.857 118.931 163.33C118.931 162.797 119.054 162.327 119.301 161.92C119.547 161.507 119.884 161.183 120.311 160.95C120.737 160.717 121.224 160.6 121.771 160.6C122.324 160.6 122.814 160.717 123.241 160.95C123.674 161.183 124.011 161.503 124.251 161.91C124.497 162.317 124.621 162.79 124.621 163.33C124.621 163.857 124.497 164.327 124.251 164.74C124.011 165.153 123.674 165.48 123.241 165.72C122.814 165.953 122.324 166.07 121.771 166.07ZM121.771 165C122.077 165 122.351 164.933 122.591 164.8C122.831 164.667 123.017 164.473 123.151 164.22C123.291 163.967 123.361 163.67 123.361 163.33C123.361 162.983 123.291 162.687 123.151 162.44C123.017 162.187 122.831 161.993 122.591 161.86C122.351 161.727 122.081 161.66 121.781 161.66C121.474 161.66 121.201 161.727 120.961 161.86C120.727 161.993 120.541 162.187 120.401 162.44C120.261 162.687 120.191 162.983 120.191 163.33C120.191 163.67 120.261 163.967 120.401 164.22C120.541 164.473 120.727 164.667 120.961 164.8C121.201 164.933 121.471 165 121.771 165ZM127.09 166L124.8 160.66H126.1L128.07 165.37H127.43L129.47 160.66H130.67L128.38 166H127.09ZM133.814 166.07C133.221 166.07 132.701 165.953 132.254 165.72C131.814 165.48 131.471 165.153 131.224 164.74C130.984 164.327 130.864 163.857 130.864 163.33C130.864 162.797 130.981 162.327 131.214 161.92C131.454 161.507 131.781 161.183 132.194 160.95C132.614 160.717 133.091 160.6 133.624 160.6C134.144 160.6 134.608 160.713 135.014 160.94C135.421 161.167 135.741 161.487 135.974 161.9C136.208 162.313 136.324 162.8 136.324 163.36C136.324 163.413 136.321 163.473 136.314 163.54C136.314 163.607 136.311 163.67 136.304 163.73H131.854V162.9H135.644L135.154 163.16C135.161 162.853 135.098 162.583 134.964 162.35C134.831 162.117 134.648 161.933 134.414 161.8C134.188 161.667 133.924 161.6 133.624 161.6C133.318 161.6 133.048 161.667 132.814 161.8C132.588 161.933 132.408 162.12 132.274 162.36C132.148 162.593 132.084 162.87 132.084 163.19V163.39C132.084 163.71 132.158 163.993 132.304 164.24C132.451 164.487 132.658 164.677 132.924 164.81C133.191 164.943 133.498 165.01 133.844 165.01C134.144 165.01 134.414 164.963 134.654 164.87C134.894 164.777 135.108 164.63 135.294 164.43L135.964 165.2C135.724 165.48 135.421 165.697 135.054 165.85C134.694 165.997 134.281 166.07 133.814 166.07ZM137.525 166V160.66H138.715V162.13L138.575 161.7C138.735 161.34 138.985 161.067 139.325 160.88C139.672 160.693 140.102 160.6 140.615 160.6V161.79C140.562 161.777 140.512 161.77 140.465 161.77C140.418 161.763 140.372 161.76 140.325 161.76C139.852 161.76 139.475 161.9 139.195 162.18C138.915 162.453 138.775 162.863 138.775 163.41V166H137.525ZM147.448 166.07C147.015 166.07 146.618 165.97 146.258 165.77C145.905 165.57 145.621 165.27 145.408 164.87C145.201 164.463 145.098 163.95 145.098 163.33C145.098 162.703 145.198 162.19 145.398 161.79C145.605 161.39 145.885 161.093 146.238 160.9C146.591 160.7 146.995 160.6 147.448 160.6C147.975 160.6 148.438 160.713 148.838 160.94C149.245 161.167 149.565 161.483 149.798 161.89C150.038 162.297 150.158 162.777 150.158 163.33C150.158 163.883 150.038 164.367 149.798 164.78C149.565 165.187 149.245 165.503 148.838 165.73C148.438 165.957 147.975 166.07 147.448 166.07ZM144.488 167.94V160.66H145.678V161.92L145.638 163.34L145.738 164.76V167.94H144.488ZM147.308 165C147.608 165 147.875 164.933 148.108 164.8C148.348 164.667 148.538 164.473 148.678 164.22C148.818 163.967 148.888 163.67 148.888 163.33C148.888 162.983 148.818 162.687 148.678 162.44C148.538 162.187 148.348 161.993 148.108 161.86C147.875 161.727 147.608 161.66 147.308 161.66C147.008 161.66 146.738 161.727 146.498 161.86C146.258 161.993 146.068 162.187 145.928 162.44C145.788 162.687 145.718 162.983 145.718 163.33C145.718 163.67 145.788 163.967 145.928 164.22C146.068 164.473 146.258 164.667 146.498 164.8C146.738 164.933 147.008 165 147.308 165ZM154.565 166V164.92L154.495 164.69V162.8C154.495 162.433 154.385 162.15 154.165 161.95C153.945 161.743 153.612 161.64 153.165 161.64C152.865 161.64 152.568 161.687 152.275 161.78C151.988 161.873 151.745 162.003 151.545 162.17L151.055 161.26C151.342 161.04 151.682 160.877 152.075 160.77C152.475 160.657 152.888 160.6 153.315 160.6C154.088 160.6 154.685 160.787 155.105 161.16C155.532 161.527 155.745 162.097 155.745 162.87V166H154.565ZM152.885 166.07C152.485 166.07 152.135 166.003 151.835 165.87C151.535 165.73 151.302 165.54 151.135 165.3C150.975 165.053 150.895 164.777 150.895 164.47C150.895 164.17 150.965 163.9 151.105 163.66C151.252 163.42 151.488 163.23 151.815 163.09C152.142 162.95 152.575 162.88 153.115 162.88H154.665V163.71H153.205C152.778 163.71 152.492 163.78 152.345 163.92C152.198 164.053 152.125 164.22 152.125 164.42C152.125 164.647 152.215 164.827 152.395 164.96C152.575 165.093 152.825 165.16 153.145 165.16C153.452 165.16 153.725 165.09 153.965 164.95C154.212 164.81 154.388 164.603 154.495 164.33L154.705 165.08C154.585 165.393 154.368 165.637 154.055 165.81C153.748 165.983 153.358 166.07 152.885 166.07ZM157.349 166V160.66H158.539V162.13L158.399 161.7C158.559 161.34 158.809 161.067 159.149 160.88C159.496 160.693 159.926 160.6 160.439 160.6V161.79C160.386 161.777 160.336 161.77 160.289 161.77C160.243 161.763 160.196 161.76 160.149 161.76C159.676 161.76 159.299 161.9 159.019 162.18C158.739 162.453 158.599 162.863 158.599 163.41V166H157.349ZM164.409 166V164.92L164.339 164.69V162.8C164.339 162.433 164.229 162.15 164.009 161.95C163.789 161.743 163.455 161.64 163.009 161.64C162.709 161.64 162.412 161.687 162.119 161.78C161.832 161.873 161.589 162.003 161.389 162.17L160.899 161.26C161.185 161.04 161.525 160.877 161.919 160.77C162.319 160.657 162.732 160.6 163.159 160.6C163.932 160.6 164.529 160.787 164.949 161.16C165.375 161.527 165.589 162.097 165.589 162.87V166H164.409ZM162.729 166.07C162.329 166.07 161.979 166.003 161.679 165.87C161.379 165.73 161.145 165.54 160.979 165.3C160.819 165.053 160.739 164.777 160.739 164.47C160.739 164.17 160.809 163.9 160.949 163.66C161.095 163.42 161.332 163.23 161.659 163.09C161.985 162.95 162.419 162.88 162.959 162.88H164.509V163.71H163.049C162.622 163.71 162.335 163.78 162.189 163.92C162.042 164.053 161.969 164.22 161.969 164.42C161.969 164.647 162.059 164.827 162.239 164.96C162.419 165.093 162.669 165.16 162.989 165.16C163.295 165.16 163.569 165.09 163.809 164.95C164.055 164.81 164.232 164.603 164.339 164.33L164.549 165.08C164.429 165.393 164.212 165.637 163.899 165.81C163.592 165.983 163.202 166.07 162.729 166.07ZM173.247 166V164.92L173.177 164.69V162.8C173.177 162.433 173.067 162.15 172.847 161.95C172.627 161.743 172.293 161.64 171.847 161.64C171.547 161.64 171.25 161.687 170.957 161.78C170.67 161.873 170.427 162.003 170.227 162.17L169.737 161.26C170.023 161.04 170.363 160.877 170.757 160.77C171.157 160.657 171.57 160.6 171.997 160.6C172.77 160.6 173.367 160.787 173.787 161.16C174.213 161.527 174.427 162.097 174.427 162.87V166H173.247ZM171.567 166.07C171.167 166.07 170.817 166.003 170.517 165.87C170.217 165.73 169.983 165.54 169.817 165.3C169.657 165.053 169.577 164.777 169.577 164.47C169.577 164.17 169.647 163.9 169.787 163.66C169.933 163.42 170.17 163.23 170.497 163.09C170.823 162.95 171.257 162.88 171.797 162.88H173.347V163.71H171.887C171.46 163.71 171.173 163.78 171.027 163.92C170.88 164.053 170.807 164.22 170.807 164.42C170.807 164.647 170.897 164.827 171.077 164.96C171.257 165.093 171.507 165.16 171.827 165.16C172.133 165.16 172.407 165.09 172.647 164.95C172.893 164.81 173.07 164.603 173.177 164.33L173.387 165.08C173.267 165.393 173.05 165.637 172.737 165.81C172.43 165.983 172.04 166.07 171.567 166.07ZM181.055 166.07C180.541 166.07 180.078 165.957 179.665 165.73C179.258 165.497 178.938 165.177 178.705 164.77C178.471 164.363 178.355 163.883 178.355 163.33C178.355 162.777 178.471 162.297 178.705 161.89C178.938 161.483 179.258 161.167 179.665 160.94C180.078 160.713 180.541 160.6 181.055 160.6C181.501 160.6 181.901 160.7 182.255 160.9C182.608 161.093 182.888 161.39 183.095 161.79C183.301 162.19 183.405 162.703 183.405 163.33C183.405 163.95 183.305 164.463 183.105 164.87C182.905 165.27 182.628 165.57 182.275 165.77C181.921 165.97 181.515 166.07 181.055 166.07ZM181.205 165C181.505 165 181.771 164.933 182.005 164.8C182.245 164.667 182.435 164.473 182.575 164.22C182.721 163.967 182.795 163.67 182.795 163.33C182.795 162.983 182.721 162.687 182.575 162.44C182.435 162.187 182.245 161.993 182.005 161.86C181.771 161.727 181.505 161.66 181.205 161.66C180.905 161.66 180.635 161.727 180.395 161.86C180.161 161.993 179.971 162.187 179.825 162.44C179.685 162.687 179.615 162.983 179.615 163.33C179.615 163.67 179.685 163.967 179.825 164.22C179.971 164.473 180.161 164.667 180.395 164.8C180.635 164.933 180.905 165 181.205 165ZM182.825 166V164.74L182.875 163.32L182.775 161.9V158.58H184.015V166H182.825ZM185.66 166V160.66H186.91V166H185.66ZM186.29 159.78C186.057 159.78 185.863 159.707 185.71 159.56C185.563 159.413 185.49 159.237 185.49 159.03C185.49 158.817 185.563 158.64 185.71 158.5C185.863 158.353 186.057 158.28 186.29 158.28C186.523 158.28 186.713 158.35 186.86 158.49C187.013 158.623 187.09 158.793 187.09 159C187.09 159.22 187.017 159.407 186.87 159.56C186.723 159.707 186.53 159.78 186.29 159.78ZM188.55 166V160.66H189.74V162.13L189.6 161.7C189.76 161.34 190.01 161.067 190.35 160.88C190.697 160.693 191.127 160.6 191.64 160.6V161.79C191.587 161.777 191.537 161.77 191.49 161.77C191.444 161.763 191.397 161.76 191.35 161.76C190.877 161.76 190.5 161.9 190.22 162.18C189.94 162.453 189.8 162.863 189.8 163.41V166H188.55ZM195.162 166.07C194.569 166.07 194.049 165.953 193.602 165.72C193.162 165.48 192.819 165.153 192.572 164.74C192.332 164.327 192.212 163.857 192.212 163.33C192.212 162.797 192.329 162.327 192.562 161.92C192.802 161.507 193.129 161.183 193.542 160.95C193.962 160.717 194.439 160.6 194.972 160.6C195.492 160.6 195.955 160.713 196.362 160.94C196.769 161.167 197.089 161.487 197.322 161.9C197.555 162.313 197.672 162.8 197.672 163.36C197.672 163.413 197.669 163.473 197.662 163.54C197.662 163.607 197.659 163.67 197.652 163.73H193.202V162.9H196.992L196.502 163.16C196.509 162.853 196.445 162.583 196.312 162.35C196.179 162.117 195.995 161.933 195.762 161.8C195.535 161.667 195.272 161.6 194.972 161.6C194.665 161.6 194.395 161.667 194.162 161.8C193.935 161.933 193.755 162.12 193.622 162.36C193.495 162.593 193.432 162.87 193.432 163.19V163.39C193.432 163.71 193.505 163.993 193.652 164.24C193.799 164.487 194.005 164.677 194.272 164.81C194.539 164.943 194.845 165.01 195.192 165.01C195.492 165.01 195.762 164.963 196.002 164.87C196.242 164.777 196.455 164.63 196.642 164.43L197.312 165.2C197.072 165.48 196.769 165.697 196.402 165.85C196.042 165.997 195.629 166.07 195.162 166.07ZM198.873 166V160.66H200.123V166H198.873ZM199.503 159.78C199.269 159.78 199.076 159.707 198.923 159.56C198.776 159.413 198.703 159.237 198.703 159.03C198.703 158.817 198.776 158.64 198.923 158.5C199.076 158.353 199.269 158.28 199.503 158.28C199.736 158.28 199.926 158.35 200.073 158.49C200.226 158.623 200.303 158.793 200.303 159C200.303 159.22 200.229 159.407 200.083 159.56C199.936 159.707 199.743 159.78 199.503 159.78ZM203.773 166.07C203.187 166.07 202.733 165.92 202.413 165.62C202.093 165.313 201.933 164.863 201.933 164.27V159.48H203.183V164.24C203.183 164.493 203.247 164.69 203.373 164.83C203.507 164.97 203.69 165.04 203.923 165.04C204.203 165.04 204.437 164.967 204.623 164.82L204.973 165.71C204.827 165.83 204.647 165.92 204.433 165.98C204.22 166.04 204 166.07 203.773 166.07ZM201.053 161.7V160.7H204.613V161.7H201.053ZM209.292 166V164.92L209.222 164.69V162.8C209.222 162.433 209.112 162.15 208.892 161.95C208.672 161.743 208.338 161.64 207.892 161.64C207.592 161.64 207.295 161.687 207.002 161.78C206.715 161.873 206.472 162.003 206.272 162.17L205.782 161.26C206.068 161.04 206.408 160.877 206.802 160.77C207.202 160.657 207.615 160.6 208.042 160.6C208.815 160.6 209.412 160.787 209.832 161.16C210.258 161.527 210.472 162.097 210.472 162.87V166H209.292ZM207.612 166.07C207.212 166.07 206.862 166.003 206.562 165.87C206.262 165.73 206.028 165.54 205.862 165.3C205.702 165.053 205.622 164.777 205.622 164.47C205.622 164.17 205.692 163.9 205.832 163.66C205.978 163.42 206.215 163.23 206.542 163.09C206.868 162.95 207.302 162.88 207.842 162.88H209.392V163.71H207.932C207.505 163.71 207.218 163.78 207.072 163.92C206.925 164.053 206.852 164.22 206.852 164.42C206.852 164.647 206.942 164.827 207.122 164.96C207.302 165.093 207.552 165.16 207.872 165.16C208.178 165.16 208.452 165.09 208.692 164.95C208.938 164.81 209.115 164.603 209.222 164.33L209.432 165.08C209.312 165.393 209.095 165.637 208.782 165.81C208.475 165.983 208.085 166.07 207.612 166.07Z" fill="#333333"/>
<path d="M248.08 166.07C247.567 166.07 247.103 165.957 246.69 165.73C246.283 165.503 245.963 165.187 245.73 164.78C245.497 164.367 245.38 163.883 245.38 163.33C245.38 162.777 245.497 162.297 245.73 161.89C245.963 161.483 246.283 161.167 246.69 160.94C247.103 160.713 247.567 160.6 248.08 160.6C248.54 160.6 248.943 160.7 249.29 160.9C249.643 161.093 249.92 161.39 250.12 161.79C250.327 162.19 250.43 162.703 250.43 163.33C250.43 163.95 250.323 164.463 250.11 164.87C249.903 165.27 249.623 165.57 249.27 165.77C248.917 165.97 248.52 166.07 248.08 166.07ZM248.22 165C248.52 165 248.79 164.933 249.03 164.8C249.27 164.667 249.46 164.473 249.6 164.22C249.74 163.967 249.81 163.67 249.81 163.33C249.81 162.983 249.74 162.687 249.6 162.44C249.46 162.187 249.27 161.993 249.03 161.86C248.79 161.727 248.52 161.66 248.22 161.66C247.92 161.66 247.65 161.727 247.41 161.86C247.177 161.993 246.99 162.187 246.85 162.44C246.71 162.687 246.64 162.983 246.64 163.33C246.64 163.67 246.71 163.967 246.85 164.22C246.99 164.473 247.177 164.667 247.41 164.8C247.65 164.933 247.92 165 248.22 165ZM249.79 167.94V164.76L249.89 163.34L249.85 161.92V160.66H251.04V167.94H249.79ZM254.935 166.07C254.482 166.07 254.082 165.987 253.735 165.82C253.389 165.647 253.119 165.387 252.925 165.04C252.732 164.687 252.635 164.243 252.635 163.71V160.66H253.885V163.54C253.885 164.02 253.992 164.38 254.205 164.62C254.425 164.853 254.735 164.97 255.135 164.97C255.429 164.97 255.682 164.91 255.895 164.79C256.115 164.67 256.285 164.49 256.405 164.25C256.532 164.01 256.595 163.713 256.595 163.36V160.66H257.845V166H256.655V164.56L256.865 165C256.685 165.347 256.422 165.613 256.075 165.8C255.729 165.98 255.349 166.07 254.935 166.07ZM262.772 166V164.92L262.702 164.69V162.8C262.702 162.433 262.592 162.15 262.372 161.95C262.152 161.743 261.819 161.64 261.372 161.64C261.072 161.64 260.775 161.687 260.482 161.78C260.195 161.873 259.952 162.003 259.752 162.17L259.262 161.26C259.549 161.04 259.889 160.877 260.282 160.77C260.682 160.657 261.095 160.6 261.522 160.6C262.295 160.6 262.892 160.787 263.312 161.16C263.739 161.527 263.952 162.097 263.952 162.87V166H262.772ZM261.092 166.07C260.692 166.07 260.342 166.003 260.042 165.87C259.742 165.73 259.509 165.54 259.342 165.3C259.182 165.053 259.102 164.777 259.102 164.47C259.102 164.17 259.172 163.9 259.312 163.66C259.459 163.42 259.695 163.23 260.022 163.09C260.349 162.95 260.782 162.88 261.322 162.88H262.872V163.71H261.412C260.985 163.71 260.699 163.78 260.552 163.92C260.405 164.053 260.332 164.22 260.332 164.42C260.332 164.647 260.422 164.827 260.602 164.96C260.782 165.093 261.032 165.16 261.352 165.16C261.659 165.16 261.932 165.09 262.172 164.95C262.419 164.81 262.595 164.603 262.702 164.33L262.912 165.08C262.792 165.393 262.575 165.637 262.262 165.81C261.955 165.983 261.565 166.07 261.092 166.07ZM267.826 166.07C267.313 166.07 266.849 165.957 266.436 165.73C266.029 165.497 265.709 165.177 265.476 164.77C265.243 164.363 265.126 163.883 265.126 163.33C265.126 162.777 265.243 162.297 265.476 161.89C265.709 161.483 266.029 161.167 266.436 160.94C266.849 160.713 267.313 160.6 267.826 160.6C268.273 160.6 268.673 160.7 269.026 160.9C269.379 161.093 269.659 161.39 269.866 161.79C270.073 162.19 270.176 162.703 270.176 163.33C270.176 163.95 270.076 164.463 269.876 164.87C269.676 165.27 269.399 165.57 269.046 165.77C268.693 165.97 268.286 166.07 267.826 166.07ZM267.976 165C268.276 165 268.543 164.933 268.776 164.8C269.016 164.667 269.206 164.473 269.346 164.22C269.493 163.967 269.566 163.67 269.566 163.33C269.566 162.983 269.493 162.687 269.346 162.44C269.206 162.187 269.016 161.993 268.776 161.86C268.543 161.727 268.276 161.66 267.976 161.66C267.676 161.66 267.406 161.727 267.166 161.86C266.933 161.993 266.743 162.187 266.596 162.44C266.456 162.687 266.386 162.983 266.386 163.33C266.386 163.67 266.456 163.967 266.596 164.22C266.743 164.473 266.933 164.667 267.166 164.8C267.406 164.933 267.676 165 267.976 165ZM269.596 166V164.74L269.646 163.32L269.546 161.9V158.58H270.786V166H269.596ZM272.431 166V160.66H273.621V162.13L273.481 161.7C273.641 161.34 273.891 161.067 274.231 160.88C274.578 160.693 275.008 160.6 275.521 160.6V161.79C275.468 161.777 275.418 161.77 275.371 161.77C275.325 161.763 275.278 161.76 275.231 161.76C274.758 161.76 274.381 161.9 274.101 162.18C273.821 162.453 273.681 162.863 273.681 163.41V166H272.431ZM279.491 166V164.92L279.421 164.69V162.8C279.421 162.433 279.311 162.15 279.091 161.95C278.871 161.743 278.538 161.64 278.091 161.64C277.791 161.64 277.494 161.687 277.201 161.78C276.914 161.873 276.671 162.003 276.471 162.17L275.981 161.26C276.268 161.04 276.608 160.877 277.001 160.77C277.401 160.657 277.814 160.6 278.241 160.6C279.014 160.6 279.611 160.787 280.031 161.16C280.458 161.527 280.671 162.097 280.671 162.87V166H279.491ZM277.811 166.07C277.411 166.07 277.061 166.003 276.761 165.87C276.461 165.73 276.228 165.54 276.061 165.3C275.901 165.053 275.821 164.777 275.821 164.47C275.821 164.17 275.891 163.9 276.031 163.66C276.178 163.42 276.414 163.23 276.741 163.09C277.068 162.95 277.501 162.88 278.041 162.88H279.591V163.71H278.131C277.704 163.71 277.418 163.78 277.271 163.92C277.124 164.053 277.051 164.22 277.051 164.42C277.051 164.647 277.141 164.827 277.321 164.96C277.501 165.093 277.751 165.16 278.071 165.16C278.378 165.16 278.651 165.09 278.891 164.95C279.138 164.81 279.314 164.603 279.421 164.33L279.631 165.08C279.511 165.393 279.294 165.637 278.981 165.81C278.674 165.983 278.284 166.07 277.811 166.07ZM284.545 166.07C284.032 166.07 283.568 165.957 283.155 165.73C282.748 165.497 282.428 165.177 282.195 164.77C281.962 164.363 281.845 163.883 281.845 163.33C281.845 162.777 281.962 162.297 282.195 161.89C282.428 161.483 282.748 161.167 283.155 160.94C283.568 160.713 284.032 160.6 284.545 160.6C284.992 160.6 285.392 160.7 285.745 160.9C286.098 161.093 286.378 161.39 286.585 161.79C286.792 162.19 286.895 162.703 286.895 163.33C286.895 163.95 286.795 164.463 286.595 164.87C286.395 165.27 286.118 165.57 285.765 165.77C285.412 165.97 285.005 166.07 284.545 166.07ZM284.695 165C284.995 165 285.262 164.933 285.495 164.8C285.735 164.667 285.925 164.473 286.065 164.22C286.212 163.967 286.285 163.67 286.285 163.33C286.285 162.983 286.212 162.687 286.065 162.44C285.925 162.187 285.735 161.993 285.495 161.86C285.262 161.727 284.995 161.66 284.695 161.66C284.395 161.66 284.125 161.727 283.885 161.86C283.652 161.993 283.462 162.187 283.315 162.44C283.175 162.687 283.105 162.983 283.105 163.33C283.105 163.67 283.175 163.967 283.315 164.22C283.462 164.473 283.652 164.667 283.885 164.8C284.125 164.933 284.395 165 284.695 165ZM286.315 166V164.74L286.365 163.32L286.265 161.9V158.58H287.505V166H286.315ZM291.55 166.07C291.003 166.07 290.517 165.953 290.09 165.72C289.663 165.48 289.327 165.153 289.08 164.74C288.833 164.327 288.71 163.857 288.71 163.33C288.71 162.797 288.833 162.327 289.08 161.92C289.327 161.507 289.663 161.183 290.09 160.95C290.517 160.717 291.003 160.6 291.55 160.6C292.103 160.6 292.593 160.717 293.02 160.95C293.453 161.183 293.79 161.503 294.03 161.91C294.277 162.317 294.4 162.79 294.4 163.33C294.4 163.857 294.277 164.327 294.03 164.74C293.79 165.153 293.453 165.48 293.02 165.72C292.593 165.953 292.103 166.07 291.55 166.07ZM291.55 165C291.857 165 292.13 164.933 292.37 164.8C292.61 164.667 292.797 164.473 292.93 164.22C293.07 163.967 293.14 163.67 293.14 163.33C293.14 162.983 293.07 162.687 292.93 162.44C292.797 162.187 292.61 161.993 292.37 161.86C292.13 161.727 291.86 161.66 291.56 161.66C291.253 161.66 290.98 161.727 290.74 161.86C290.507 161.993 290.32 162.187 290.18 162.44C290.04 162.687 289.97 162.983 289.97 163.33C289.97 163.67 290.04 163.967 290.18 164.22C290.32 164.473 290.507 164.667 290.74 164.8C290.98 164.933 291.25 165 291.55 165ZM297.245 166.07C296.799 166.07 296.369 166.013 295.955 165.9C295.549 165.78 295.225 165.637 294.985 165.47L295.465 164.52C295.705 164.673 295.992 164.8 296.325 164.9C296.659 165 296.992 165.05 297.325 165.05C297.719 165.05 298.002 164.997 298.175 164.89C298.355 164.783 298.445 164.64 298.445 164.46C298.445 164.313 298.385 164.203 298.265 164.13C298.145 164.05 297.989 163.99 297.795 163.95C297.602 163.91 297.385 163.873 297.145 163.84C296.912 163.807 296.675 163.763 296.435 163.71C296.202 163.65 295.989 163.567 295.795 163.46C295.602 163.347 295.445 163.197 295.325 163.01C295.205 162.823 295.145 162.577 295.145 162.27C295.145 161.93 295.242 161.637 295.435 161.39C295.629 161.137 295.899 160.943 296.245 160.81C296.599 160.67 297.015 160.6 297.495 160.6C297.855 160.6 298.219 160.64 298.585 160.72C298.952 160.8 299.255 160.913 299.495 161.06L299.015 162.01C298.762 161.857 298.505 161.753 298.245 161.7C297.992 161.64 297.739 161.61 297.485 161.61C297.105 161.61 296.822 161.667 296.635 161.78C296.455 161.893 296.365 162.037 296.365 162.21C296.365 162.37 296.425 162.49 296.545 162.57C296.665 162.65 296.822 162.713 297.015 162.76C297.209 162.807 297.422 162.847 297.655 162.88C297.895 162.907 298.132 162.95 298.365 163.01C298.599 163.07 298.812 163.153 299.005 163.26C299.205 163.36 299.365 163.503 299.485 163.69C299.605 163.877 299.665 164.12 299.665 164.42C299.665 164.753 299.565 165.043 299.365 165.29C299.172 165.537 298.895 165.73 298.535 165.87C298.175 166.003 297.745 166.07 297.245 166.07Z" fill="#333333"/>
<rect x="219" y="152" width="20" height="20" rx="5" fill="#F2F2F2"/>
<path d="M228.554 166.192C227.978 166.192 227.394 166.128 226.802 166C226.21 165.872 225.69 165.684 225.242 165.436L226.202 163.348C226.562 163.556 226.938 163.712 227.33 163.816C227.73 163.912 228.106 163.96 228.458 163.96C228.778 163.96 229.038 163.908 229.238 163.804C229.446 163.692 229.55 163.528 229.55 163.312C229.55 163.128 229.474 162.988 229.322 162.892C229.17 162.788 228.914 162.736 228.554 162.736H227.438V160.996L229.61 158.788L229.862 159.736H225.674V157.6H231.938V159.34L229.766 161.548L228.41 160.78H229.154C230.21 160.78 231.014 161.016 231.566 161.488C232.118 161.96 232.394 162.568 232.394 163.312C232.394 163.792 232.258 164.252 231.986 164.692C231.722 165.132 231.306 165.492 230.738 165.772C230.178 166.052 229.45 166.192 228.554 166.192Z" fill="#333333"/>
<path fill-rule="evenodd" clip-rule="evenodd" d="M315 81C315 70 308 63 297 63C257.917 63 282.045 63 254 63C246.27 63 242.785 60.7635 238.5 56.5C229.193 47.8197 205.783 34 154.427 34C82.0243 34 65 63 65 63C65 63 65.0004 67.7195 65.0006 81C65.0006 91 73 99 83 99C109.488 99 154 99 154 99L163 107H200L208 99C208 99 242.031 99 297 99C308 99 315 92 315 81C315 82.8675 315 78.1323 315 81Z" fill="#FC79FF"/>
<path fill-rule="evenodd" clip-rule="evenodd" d="M310 81C310 89 306 94 297 94L206 94L198 102H165L156 94C156 94 108.393 94 83.0001 94C74.9643 94 70 88 70 81H65C65 91 73 99 83.0001 99C109.441 99 154 99 154 99L163.027 107H200L208 99L297 99C308 99 315 92 315 81C313.5 81 312 80.9999 310 81Z" fill="black" fill-opacity="0.25"/>
<path fill-rule="evenodd" clip-rule="evenodd" d="M65 81H70V65C70 65 84.993 39 154.286 39C201.342 39 225.557 51.6452 235.5 60C240.292 64.0301 246.712 67.9521 253 68C261.5 68 281.464 68 297 68C304.964 68 310 73.5 310 80V81H314H315C315 70 308 63 297 63C257.993 63 281.008 63 253 63C246 63 242.169 60.1595 238.214 56.2066C228.936 47.4998 205.571 34 154.268 34C81.9103 34 65 63 65 63L65 81Z" fill="white" fill-opacity="0.5"/>
<path d="M80.064 88.144C79.408 88.144 78.796 88.036 78.228 87.82C77.668 87.604 77.18 87.3 76.764 86.908C76.356 86.516 76.036 86.056 75.804 85.528C75.58 85 75.468 84.424 75.468 83.8C75.468 83.176 75.58 82.6 75.804 82.072C76.036 81.544 76.36 81.084 76.776 80.692C77.192 80.3 77.68 79.996 78.24 79.78C78.8 79.564 79.408 79.456 80.064 79.456C80.728 79.456 81.336 79.564 81.888 79.78C82.448 79.996 82.932 80.3 83.34 80.692C83.756 81.076 84.08 81.532 84.312 82.06C84.544 82.588 84.66 83.168 84.66 83.8C84.66 84.424 84.544 85.004 84.312 85.54C84.08 86.068 83.756 86.528 83.34 86.92C82.932 87.304 82.448 87.604 81.888 87.82C81.336 88.036 80.728 88.144 80.064 88.144ZM82.812 89.932C82.484 89.932 82.172 89.896 81.876 89.824C81.588 89.752 81.3 89.636 81.012 89.476C80.732 89.316 80.436 89.1 80.124 88.828C79.82 88.556 79.488 88.22 79.128 87.82L81.168 87.304C81.384 87.6 81.584 87.836 81.768 88.012C81.952 88.188 82.128 88.312 82.296 88.384C82.472 88.456 82.656 88.492 82.848 88.492C83.36 88.492 83.816 88.284 84.216 87.868L85.08 88.9C84.512 89.588 83.756 89.932 82.812 89.932ZM80.064 86.488C80.44 86.488 80.784 86.424 81.096 86.296C81.416 86.168 81.696 85.984 81.936 85.744C82.176 85.504 82.36 85.22 82.488 84.892C82.624 84.556 82.692 84.192 82.692 83.8C82.692 83.4 82.624 83.036 82.488 82.708C82.36 82.38 82.176 82.096 81.936 81.856C81.696 81.616 81.416 81.432 81.096 81.304C80.784 81.176 80.44 81.112 80.064 81.112C79.688 81.112 79.34 81.176 79.02 81.304C78.7 81.432 78.42 81.616 78.18 81.856C77.948 82.096 77.764 82.38 77.628 82.708C77.5 83.036 77.436 83.4 77.436 83.8C77.436 84.192 77.5 84.556 77.628 84.892C77.764 85.22 77.948 85.504 78.18 85.744C78.42 85.984 78.7 86.168 79.02 86.296C79.34 86.424 79.688 86.488 80.064 86.488ZM88.713 88.096C88.177 88.096 87.697 87.992 87.273 87.784C86.857 87.576 86.533 87.26 86.301 86.836C86.069 86.404 85.953 85.856 85.953 85.192V81.544H87.825V84.916C87.825 85.452 87.937 85.848 88.161 86.104C88.393 86.352 88.717 86.476 89.133 86.476C89.421 86.476 89.677 86.416 89.901 86.296C90.125 86.168 90.301 85.976 90.429 85.72C90.557 85.456 90.621 85.128 90.621 84.736V81.544H92.493V88H90.717V86.224L91.041 86.74C90.825 87.188 90.505 87.528 90.081 87.76C89.665 87.984 89.209 88.096 88.713 88.096ZM98.1873 88V86.74L98.0673 86.464V84.208C98.0673 83.808 97.9433 83.496 97.6953 83.272C97.4553 83.048 97.0833 82.936 96.5793 82.936C96.2353 82.936 95.8953 82.992 95.5593 83.104C95.2313 83.208 94.9513 83.352 94.7193 83.536L94.0473 82.228C94.3993 81.98 94.8233 81.788 95.3193 81.652C95.8153 81.516 96.3193 81.448 96.8313 81.448C97.8153 81.448 98.5793 81.68 99.1233 82.144C99.6673 82.608 99.9393 83.332 99.9393 84.316V88H98.1873ZM96.2193 88.096C95.7153 88.096 95.2833 88.012 94.9233 87.844C94.5633 87.668 94.2873 87.432 94.0953 87.136C93.9033 86.84 93.8073 86.508 93.8073 86.14C93.8073 85.756 93.8993 85.42 94.0833 85.132C94.2753 84.844 94.5753 84.62 94.9833 84.46C95.3913 84.292 95.9233 84.208 96.5793 84.208H98.2953V85.3H96.7833C96.3433 85.3 96.0393 85.372 95.8713 85.516C95.7113 85.66 95.6313 85.84 95.6313 86.056C95.6313 86.296 95.7233 86.488 95.9073 86.632C96.0993 86.768 96.3593 86.836 96.6873 86.836C96.9993 86.836 97.2793 86.764 97.5273 86.62C97.7753 86.468 97.9553 86.248 98.0673 85.96L98.3553 86.824C98.2193 87.24 97.9713 87.556 97.6113 87.772C97.2513 87.988 96.7873 88.096 96.2193 88.096ZM105.558 81.448C106.07 81.448 106.526 81.552 106.926 81.76C107.334 81.96 107.654 82.272 107.886 82.696C108.118 83.112 108.234 83.648 108.234 84.304V88H106.362V84.592C106.362 84.072 106.246 83.688 106.014 83.44C105.79 83.192 105.47 83.068 105.054 83.068C104.758 83.068 104.49 83.132 104.25 83.26C104.018 83.38 103.834 83.568 103.698 83.824C103.57 84.08 103.506 84.408 103.506 84.808V88H101.634V81.544H103.422V83.332L103.086 82.792C103.318 82.36 103.65 82.028 104.082 81.796C104.514 81.564 105.006 81.448 105.558 81.448ZM112.749 88.096C112.141 88.096 111.593 87.96 111.105 87.688C110.617 87.408 110.229 87.02 109.941 86.524C109.661 86.028 109.521 85.444 109.521 84.772C109.521 84.092 109.661 83.504 109.941 83.008C110.229 82.512 110.617 82.128 111.105 81.856C111.593 81.584 112.141 81.448 112.749 81.448C113.293 81.448 113.769 81.568 114.177 81.808C114.585 82.048 114.901 82.412 115.125 82.9C115.349 83.388 115.461 84.012 115.461 84.772C115.461 85.524 115.353 86.148 115.137 86.644C114.921 87.132 114.609 87.496 114.201 87.736C113.801 87.976 113.317 88.096 112.749 88.096ZM113.073 86.56C113.377 86.56 113.653 86.488 113.901 86.344C114.149 86.2 114.345 85.996 114.489 85.732C114.641 85.46 114.717 85.14 114.717 84.772C114.717 84.396 114.641 84.076 114.489 83.812C114.345 83.548 114.149 83.344 113.901 83.2C113.653 83.056 113.377 82.984 113.073 82.984C112.761 82.984 112.481 83.056 112.233 83.2C111.985 83.344 111.785 83.548 111.633 83.812C111.489 84.076 111.417 84.396 111.417 84.772C111.417 85.14 111.489 85.46 111.633 85.732C111.785 85.996 111.985 86.2 112.233 86.344C112.481 86.488 112.761 86.56 113.073 86.56ZM114.765 88V86.68L114.801 84.76L114.681 82.852V79.096H116.553V88H114.765ZM121.358 88.096C120.67 88.096 120.058 87.952 119.522 87.664C118.994 87.376 118.574 86.984 118.262 86.488C117.958 85.984 117.806 85.412 117.806 84.772C117.806 84.124 117.958 83.552 118.262 83.056C118.574 82.552 118.994 82.16 119.522 81.88C120.058 81.592 120.67 81.448 121.358 81.448C122.038 81.448 122.646 81.592 123.182 81.88C123.718 82.16 124.138 82.548 124.442 83.044C124.746 83.54 124.898 84.116 124.898 84.772C124.898 85.412 124.746 85.984 124.442 86.488C124.138 86.984 123.718 87.376 123.182 87.664C122.646 87.952 122.038 88.096 121.358 88.096ZM121.358 86.56C121.67 86.56 121.95 86.488 122.198 86.344C122.446 86.2 122.642 85.996 122.786 85.732C122.93 85.46 123.002 85.14 123.002 84.772C123.002 84.396 122.93 84.076 122.786 83.812C122.642 83.548 122.446 83.344 122.198 83.2C121.95 83.056 121.67 82.984 121.358 82.984C121.046 82.984 120.766 83.056 120.518 83.2C120.27 83.344 120.07 83.548 119.918 83.812C119.774 84.076 119.702 84.396 119.702 84.772C119.702 85.14 119.774 85.46 119.918 85.732C120.07 85.996 120.27 86.2 120.518 86.344C120.766 86.488 121.046 86.56 121.358 86.56ZM126.857 83.788C126.537 83.788 126.261 83.68 126.029 83.464C125.805 83.24 125.693 82.956 125.693 82.612C125.693 82.268 125.805 81.992 126.029 81.784C126.261 81.568 126.537 81.46 126.857 81.46C127.185 81.46 127.461 81.568 127.685 81.784C127.909 81.992 128.021 82.268 128.021 82.612C128.021 82.956 127.909 83.24 127.685 83.464C127.461 83.68 127.185 83.788 126.857 83.788ZM126.857 88.096C126.537 88.096 126.261 87.988 126.029 87.772C125.805 87.548 125.693 87.264 125.693 86.92C125.693 86.576 125.805 86.3 126.029 86.092C126.261 85.876 126.537 85.768 126.857 85.768C127.185 85.768 127.461 85.876 127.685 86.092C127.909 86.3 128.021 86.576 128.021 86.92C128.021 87.264 127.909 87.548 127.685 87.772C127.461 87.988 127.185 88.096 126.857 88.096ZM136.504 88.096C135.96 88.096 135.484 87.976 135.076 87.736C134.668 87.496 134.348 87.132 134.116 86.644C133.892 86.148 133.78 85.524 133.78 84.772C133.78 84.012 133.888 83.388 134.104 82.9C134.32 82.412 134.632 82.048 135.04 81.808C135.448 81.568 135.936 81.448 136.504 81.448C137.112 81.448 137.656 81.588 138.136 81.868C138.624 82.14 139.008 82.524 139.288 83.02C139.576 83.516 139.72 84.1 139.72 84.772C139.72 85.452 139.576 86.04 139.288 86.536C139.008 87.032 138.624 87.416 138.136 87.688C137.656 87.96 137.112 88.096 136.504 88.096ZM132.688 90.328V81.544H134.476V82.864L134.44 84.784L134.56 86.692V90.328H132.688ZM136.18 86.56C136.492 86.56 136.768 86.488 137.008 86.344C137.256 86.2 137.452 85.996 137.596 85.732C137.748 85.46 137.824 85.14 137.824 84.772C137.824 84.396 137.748 84.076 137.596 83.812C137.452 83.548 137.256 83.344 137.008 83.2C136.768 83.056 136.492 82.984 136.18 82.984C135.868 82.984 135.588 83.056 135.34 83.2C135.092 83.344 134.896 83.548 134.752 83.812C134.608 84.076 134.536 84.396 134.536 84.772C134.536 85.14 134.608 85.46 134.752 85.732C134.896 85.996 135.092 86.2 135.34 86.344C135.588 86.488 135.868 86.56 136.18 86.56ZM140.973 88V81.544H142.761V83.368L142.509 82.84C142.701 82.384 143.009 82.04 143.433 81.808C143.857 81.568 144.373 81.448 144.981 81.448V83.176C144.901 83.168 144.829 83.164 144.765 83.164C144.701 83.156 144.633 83.152 144.561 83.152C144.049 83.152 143.633 83.3 143.313 83.596C143.001 83.884 142.845 84.336 142.845 84.952V88H140.973ZM149.252 88.096C148.516 88.096 147.868 87.952 147.308 87.664C146.756 87.376 146.328 86.984 146.024 86.488C145.72 85.984 145.568 85.412 145.568 84.772C145.568 84.124 145.716 83.552 146.012 83.056C146.316 82.552 146.728 82.16 147.248 81.88C147.768 81.592 148.356 81.448 149.012 81.448C149.644 81.448 150.212 81.584 150.716 81.856C151.228 82.12 151.632 82.504 151.928 83.008C152.224 83.504 152.372 84.1 152.372 84.796C152.372 84.868 152.368 84.952 152.36 85.048C152.352 85.136 152.344 85.22 152.336 85.3H147.092V84.208H151.352L150.632 84.532C150.632 84.196 150.564 83.904 150.428 83.656C150.292 83.408 150.104 83.216 149.864 83.08C149.624 82.936 149.344 82.864 149.024 82.864C148.704 82.864 148.42 82.936 148.172 83.08C147.932 83.216 147.744 83.412 147.608 83.668C147.472 83.916 147.404 84.212 147.404 84.556V84.844C147.404 85.196 147.48 85.508 147.632 85.78C147.792 86.044 148.012 86.248 148.292 86.392C148.58 86.528 148.916 86.596 149.3 86.596C149.644 86.596 149.944 86.544 150.2 86.44C150.464 86.336 150.704 86.18 150.92 85.972L151.916 87.052C151.62 87.388 151.248 87.648 150.8 87.832C150.352 88.008 149.836 88.096 149.252 88.096ZM155.79 88.096C155.238 88.096 154.706 88.032 154.194 87.904C153.69 87.768 153.29 87.6 152.994 87.4L153.618 86.056C153.914 86.24 154.262 86.392 154.662 86.512C155.07 86.624 155.47 86.68 155.862 86.68C156.294 86.68 156.598 86.628 156.774 86.524C156.958 86.42 157.05 86.276 157.05 86.092C157.05 85.94 156.978 85.828 156.834 85.756C156.698 85.676 156.514 85.616 156.282 85.576C156.05 85.536 155.794 85.496 155.514 85.456C155.242 85.416 154.966 85.364 154.686 85.3C154.406 85.228 154.15 85.124 153.918 84.988C153.686 84.852 153.498 84.668 153.354 84.436C153.218 84.204 153.15 83.904 153.15 83.536C153.15 83.128 153.266 82.768 153.498 82.456C153.738 82.144 154.082 81.9 154.53 81.724C154.978 81.54 155.514 81.448 156.138 81.448C156.578 81.448 157.026 81.496 157.482 81.592C157.938 81.688 158.318 81.828 158.622 82.012L157.998 83.344C157.686 83.16 157.37 83.036 157.05 82.972C156.738 82.9 156.434 82.864 156.138 82.864C155.722 82.864 155.418 82.92 155.226 83.032C155.034 83.144 154.938 83.288 154.938 83.464C154.938 83.624 155.006 83.744 155.142 83.824C155.286 83.904 155.474 83.968 155.706 84.016C155.938 84.064 156.19 84.108 156.462 84.148C156.742 84.18 157.022 84.232 157.302 84.304C157.582 84.376 157.834 84.48 158.058 84.616C158.29 84.744 158.478 84.924 158.622 85.156C158.766 85.38 158.838 85.676 158.838 86.044C158.838 86.444 158.718 86.8 158.478 87.112C158.238 87.416 157.89 87.656 157.434 87.832C156.986 88.008 156.438 88.096 155.79 88.096ZM162.165 88.096C161.613 88.096 161.081 88.032 160.569 87.904C160.065 87.768 159.665 87.6 159.369 87.4L159.993 86.056C160.289 86.24 160.637 86.392 161.037 86.512C161.445 86.624 161.845 86.68 162.237 86.68C162.669 86.68 162.973 86.628 163.149 86.524C163.333 86.42 163.425 86.276 163.425 86.092C163.425 85.94 163.353 85.828 163.209 85.756C163.073 85.676 162.889 85.616 162.657 85.576C162.425 85.536 162.169 85.496 161.889 85.456C161.617 85.416 161.341 85.364 161.061 85.3C160.781 85.228 160.525 85.124 160.293 84.988C160.061 84.852 159.873 84.668 159.729 84.436C159.593 84.204 159.525 83.904 159.525 83.536C159.525 83.128 159.641 82.768 159.873 82.456C160.113 82.144 160.457 81.9 160.905 81.724C161.353 81.54 161.889 81.448 162.513 81.448C162.953 81.448 163.401 81.496 163.857 81.592C164.313 81.688 164.693 81.828 164.997 82.012L164.373 83.344C164.061 83.16 163.745 83.036 163.425 82.972C163.113 82.9 162.809 82.864 162.513 82.864C162.097 82.864 161.793 82.92 161.601 83.032C161.409 83.144 161.313 83.288 161.313 83.464C161.313 83.624 161.381 83.744 161.517 83.824C161.661 83.904 161.849 83.968 162.081 84.016C162.313 84.064 162.565 84.108 162.837 84.148C163.117 84.18 163.397 84.232 163.677 84.304C163.957 84.376 164.209 84.48 164.433 84.616C164.665 84.744 164.853 84.924 164.997 85.156C165.141 85.38 165.213 85.676 165.213 86.044C165.213 86.444 165.093 86.8 164.853 87.112C164.613 87.416 164.265 87.656 163.809 87.832C163.361 88.008 162.813 88.096 162.165 88.096ZM166.368 88V81.544H168.24V88H166.368ZM167.304 80.644C166.96 80.644 166.68 80.544 166.464 80.344C166.248 80.144 166.14 79.896 166.14 79.6C166.14 79.304 166.248 79.056 166.464 78.856C166.68 78.656 166.96 78.556 167.304 78.556C167.648 78.556 167.928 78.652 168.144 78.844C168.36 79.028 168.468 79.268 168.468 79.564C168.468 79.876 168.36 80.136 168.144 80.344C167.936 80.544 167.656 80.644 167.304 80.644ZM173.049 88.096C172.361 88.096 171.749 87.952 171.213 87.664C170.685 87.376 170.265 86.984 169.953 86.488C169.649 85.984 169.497 85.412 169.497 84.772C169.497 84.124 169.649 83.552 169.953 83.056C170.265 82.552 170.685 82.16 171.213 81.88C171.749 81.592 172.361 81.448 173.049 81.448C173.729 81.448 174.337 81.592 174.873 81.88C175.409 82.16 175.829 82.548 176.133 83.044C176.437 83.54 176.589 84.116 176.589 84.772C176.589 85.412 176.437 85.984 176.133 86.488C175.829 86.984 175.409 87.376 174.873 87.664C174.337 87.952 173.729 88.096 173.049 88.096ZM173.049 86.56C173.361 86.56 173.641 86.488 173.889 86.344C174.137 86.2 174.333 85.996 174.477 85.732C174.621 85.46 174.693 85.14 174.693 84.772C174.693 84.396 174.621 84.076 174.477 83.812C174.333 83.548 174.137 83.344 173.889 83.2C173.641 83.056 173.361 82.984 173.049 82.984C172.737 82.984 172.457 83.056 172.209 83.2C171.961 83.344 171.761 83.548 171.609 83.812C171.465 84.076 171.393 84.396 171.393 84.772C171.393 85.14 171.465 85.46 171.609 85.732C171.761 85.996 171.961 86.2 172.209 86.344C172.457 86.488 172.737 86.56 173.049 86.56ZM181.765 81.448C182.277 81.448 182.733 81.552 183.133 81.76C183.541 81.96 183.861 82.272 184.093 82.696C184.325 83.112 184.441 83.648 184.441 84.304V88H182.569V84.592C182.569 84.072 182.453 83.688 182.221 83.44C181.997 83.192 181.677 83.068 181.261 83.068C180.965 83.068 180.697 83.132 180.457 83.26C180.225 83.38 180.041 83.568 179.905 83.824C179.777 84.08 179.713 84.408 179.713 84.808V88H177.841V81.544H179.629V83.332L179.293 82.792C179.525 82.36 179.857 82.028 180.289 81.796C180.721 81.564 181.213 81.448 181.765 81.448ZM189.388 88.096C188.652 88.096 188.004 87.952 187.444 87.664C186.892 87.376 186.464 86.984 186.16 86.488C185.856 85.984 185.704 85.412 185.704 84.772C185.704 84.124 185.852 83.552 186.148 83.056C186.452 82.552 186.864 82.16 187.384 81.88C187.904 81.592 188.492 81.448 189.148 81.448C189.78 81.448 190.348 81.584 190.852 81.856C191.364 82.12 191.768 82.504 192.064 83.008C192.36 83.504 192.508 84.1 192.508 84.796C192.508 84.868 192.504 84.952 192.496 85.048C192.488 85.136 192.48 85.22 192.472 85.3H187.228V84.208H191.488L190.768 84.532C190.768 84.196 190.7 83.904 190.564 83.656C190.428 83.408 190.24 83.216 190 83.08C189.76 82.936 189.48 82.864 189.16 82.864C188.84 82.864 188.556 82.936 188.308 83.08C188.068 83.216 187.88 83.412 187.744 83.668C187.608 83.916 187.54 84.212 187.54 84.556V84.844C187.54 85.196 187.616 85.508 187.768 85.78C187.928 86.044 188.148 86.248 188.428 86.392C188.716 86.528 189.052 86.596 189.436 86.596C189.78 86.596 190.08 86.544 190.336 86.44C190.6 86.336 190.84 86.18 191.056 85.972L192.052 87.052C191.756 87.388 191.384 87.648 190.936 87.832C190.488 88.008 189.972 88.096 189.388 88.096ZM200.225 88.096C199.537 88.096 198.925 87.952 198.389 87.664C197.861 87.376 197.441 86.984 197.129 86.488C196.825 85.984 196.673 85.412 196.673 84.772C196.673 84.124 196.825 83.552 197.129 83.056C197.441 82.552 197.861 82.16 198.389 81.88C198.925 81.592 199.537 81.448 200.225 81.448C200.905 81.448 201.513 81.592 202.049 81.88C202.585 82.16 203.005 82.548 203.309 83.044C203.613 83.54 203.765 84.116 203.765 84.772C203.765 85.412 203.613 85.984 203.309 86.488C203.005 86.984 202.585 87.376 202.049 87.664C201.513 87.952 200.905 88.096 200.225 88.096ZM200.225 86.56C200.537 86.56 200.817 86.488 201.065 86.344C201.313 86.2 201.509 85.996 201.653 85.732C201.797 85.46 201.869 85.14 201.869 84.772C201.869 84.396 201.797 84.076 201.653 83.812C201.509 83.548 201.313 83.344 201.065 83.2C200.817 83.056 200.537 82.984 200.225 82.984C199.913 82.984 199.633 83.056 199.385 83.2C199.137 83.344 198.937 83.548 198.785 83.812C198.641 84.076 198.569 84.396 198.569 84.772C198.569 85.14 198.641 85.46 198.785 85.732C198.937 85.996 199.137 86.2 199.385 86.344C199.633 86.488 199.913 86.56 200.225 86.56ZM212.231 88.096C211.663 88.096 211.175 87.976 210.767 87.736C210.359 87.496 210.047 87.132 209.831 86.644C209.615 86.148 209.507 85.524 209.507 84.772C209.507 84.012 209.619 83.388 209.843 82.9C210.075 82.412 210.395 82.048 210.803 81.808C211.211 81.568 211.687 81.448 212.231 81.448C212.839 81.448 213.383 81.584 213.863 81.856C214.351 82.128 214.735 82.512 215.015 83.008C215.303 83.504 215.447 84.092 215.447 84.772C215.447 85.444 215.303 86.028 215.015 86.524C214.735 87.02 214.351 87.408 213.863 87.688C213.383 87.96 212.839 88.096 212.231 88.096ZM208.415 88V79.096H210.287V82.852L210.167 84.76L210.203 86.68V88H208.415ZM211.907 86.56C212.219 86.56 212.495 86.488 212.735 86.344C212.983 86.2 213.179 85.996 213.323 85.732C213.475 85.46 213.551 85.14 213.551 84.772C213.551 84.396 213.475 84.076 213.323 83.812C213.179 83.548 212.983 83.344 212.735 83.2C212.495 83.056 212.219 82.984 211.907 82.984C211.595 82.984 211.315 83.056 211.067 83.2C210.819 83.344 210.623 83.548 210.479 83.812C210.335 84.076 210.263 84.396 210.263 84.772C210.263 85.14 210.335 85.46 210.479 85.732C210.623 85.996 210.819 86.2 211.067 86.344C211.315 86.488 211.595 86.56 211.907 86.56ZM219.772 88.096C219.084 88.096 218.472 87.952 217.936 87.664C217.408 87.376 216.988 86.984 216.676 86.488C216.372 85.984 216.22 85.412 216.22 84.772C216.22 84.124 216.372 83.552 216.676 83.056C216.988 82.552 217.408 82.16 217.936 81.88C218.472 81.592 219.084 81.448 219.772 81.448C220.452 81.448 221.06 81.592 221.596 81.88C222.132 82.16 222.552 82.548 222.856 83.044C223.16 83.54 223.312 84.116 223.312 84.772C223.312 85.412 223.16 85.984 222.856 86.488C222.552 86.984 222.132 87.376 221.596 87.664C221.06 87.952 220.452 88.096 219.772 88.096ZM219.772 86.56C220.084 86.56 220.364 86.488 220.612 86.344C220.86 86.2 221.056 85.996 221.2 85.732C221.344 85.46 221.416 85.14 221.416 84.772C221.416 84.396 221.344 84.076 221.2 83.812C221.056 83.548 220.86 83.344 220.612 83.2C220.364 83.056 220.084 82.984 219.772 82.984C219.46 82.984 219.18 83.056 218.932 83.2C218.684 83.344 218.484 83.548 218.332 83.812C218.188 84.076 218.116 84.396 218.116 84.772C218.116 85.14 218.188 85.46 218.332 85.732C218.484 85.996 218.684 86.2 218.932 86.344C219.18 86.488 219.46 86.56 219.772 86.56ZM227.203 88.096C226.443 88.096 225.851 87.904 225.427 87.52C225.003 87.128 224.791 86.548 224.791 85.78V80.116H226.663V85.756C226.663 86.028 226.735 86.24 226.879 86.392C227.023 86.536 227.219 86.608 227.467 86.608C227.763 86.608 228.015 86.528 228.223 86.368L228.727 87.688C228.535 87.824 228.303 87.928 228.031 88C227.767 88.064 227.491 88.096 227.203 88.096ZM223.795 83.128V81.688H228.271V83.128H223.795ZM233.738 88V86.74L233.618 86.464V84.208C233.618 83.808 233.494 83.496 233.246 83.272C233.006 83.048 232.634 82.936 232.13 82.936C231.786 82.936 231.446 82.992 231.11 83.104C230.782 83.208 230.502 83.352 230.27 83.536L229.598 82.228C229.95 81.98 230.374 81.788 230.87 81.652C231.366 81.516 231.87 81.448 232.382 81.448C233.366 81.448 234.13 81.68 234.674 82.144C235.218 82.608 235.49 83.332 235.49 84.316V88H233.738ZM231.77 88.096C231.266 88.096 230.834 88.012 230.474 87.844C230.114 87.668 229.838 87.432 229.646 87.136C229.454 86.84 229.358 86.508 229.358 86.14C229.358 85.756 229.45 85.42 229.634 85.132C229.826 84.844 230.126 84.62 230.534 84.46C230.942 84.292 231.474 84.208 232.13 84.208H233.846V85.3H232.334C231.894 85.3 231.59 85.372 231.422 85.516C231.262 85.66 231.182 85.84 231.182 86.056C231.182 86.296 231.274 86.488 231.458 86.632C231.65 86.768 231.91 86.836 232.238 86.836C232.55 86.836 232.83 86.764 233.078 86.62C233.326 86.468 233.506 86.248 233.618 85.96L233.906 86.824C233.77 87.24 233.522 87.556 233.162 87.772C232.802 87.988 232.338 88.096 231.77 88.096ZM233.474 80.752C233.266 80.752 233.082 80.716 232.922 80.644C232.762 80.564 232.618 80.476 232.49 80.38C232.362 80.276 232.242 80.188 232.13 80.116C232.018 80.036 231.906 79.996 231.794 79.996C231.634 79.996 231.502 80.056 231.398 80.176C231.294 80.288 231.234 80.452 231.218 80.668H230.27C230.286 80.132 230.418 79.708 230.666 79.396C230.914 79.076 231.25 78.916 231.674 78.916C231.882 78.916 232.066 78.956 232.226 79.036C232.386 79.108 232.53 79.196 232.658 79.3C232.794 79.404 232.918 79.496 233.03 79.576C233.142 79.648 233.25 79.684 233.354 79.684C233.522 79.684 233.658 79.628 233.762 79.516C233.866 79.396 233.922 79.236 233.93 79.036H234.878C234.87 79.548 234.738 79.964 234.482 80.284C234.234 80.596 233.898 80.752 233.474 80.752ZM240.303 88.096C239.615 88.096 239.003 87.952 238.467 87.664C237.939 87.376 237.519 86.984 237.207 86.488C236.903 85.984 236.751 85.412 236.751 84.772C236.751 84.124 236.903 83.552 237.207 83.056C237.519 82.552 237.939 82.16 238.467 81.88C239.003 81.592 239.615 81.448 240.303 81.448C240.983 81.448 241.591 81.592 242.127 81.88C242.663 82.16 243.083 82.548 243.387 83.044C243.691 83.54 243.843 84.116 243.843 84.772C243.843 85.412 243.691 85.984 243.387 86.488C243.083 86.984 242.663 87.376 242.127 87.664C241.591 87.952 240.983 88.096 240.303 88.096ZM240.303 86.56C240.615 86.56 240.895 86.488 241.143 86.344C241.391 86.2 241.587 85.996 241.731 85.732C241.875 85.46 241.947 85.14 241.947 84.772C241.947 84.396 241.875 84.076 241.731 83.812C241.587 83.548 241.391 83.344 241.143 83.2C240.895 83.056 240.615 82.984 240.303 82.984C239.991 82.984 239.711 83.056 239.463 83.2C239.215 83.344 239.015 83.548 238.863 83.812C238.719 84.076 238.647 84.396 238.647 84.772C238.647 85.14 238.719 85.46 238.863 85.732C239.015 85.996 239.215 86.2 239.463 86.344C239.711 86.488 239.991 86.56 240.303 86.56ZM248.625 88V79.6H250.569V88H248.625ZM256.354 81.448C256.866 81.448 257.322 81.552 257.722 81.76C258.13 81.96 258.45 82.272 258.682 82.696C258.914 83.112 259.03 83.648 259.03 84.304V88H257.158V84.592C257.158 84.072 257.042 83.688 256.81 83.44C256.586 83.192 256.266 83.068 255.85 83.068C255.554 83.068 255.286 83.132 255.046 83.26C254.814 83.38 254.63 83.568 254.494 83.824C254.366 84.08 254.302 84.408 254.302 84.808V88H252.43V81.544H254.218V83.332L253.882 82.792C254.114 82.36 254.446 82.028 254.878 81.796C255.31 81.564 255.802 81.448 256.354 81.448ZM260.727 88V81.544H262.599V88H260.727ZM261.663 80.644C261.319 80.644 261.039 80.544 260.823 80.344C260.607 80.144 260.499 79.896 260.499 79.6C260.499 79.304 260.607 79.056 260.823 78.856C261.039 78.656 261.319 78.556 261.663 78.556C262.007 78.556 262.287 78.652 262.503 78.844C262.719 79.028 262.827 79.268 262.827 79.564C262.827 79.876 262.719 80.136 262.503 80.344C262.295 80.544 262.015 80.644 261.663 80.644ZM267.457 88.096C266.761 88.096 266.141 87.956 265.597 87.676C265.053 87.388 264.625 86.992 264.313 86.488C264.009 85.984 263.857 85.412 263.857 84.772C263.857 84.124 264.009 83.552 264.313 83.056C264.625 82.552 265.053 82.16 265.597 81.88C266.141 81.592 266.761 81.448 267.457 81.448C268.137 81.448 268.729 81.592 269.233 81.88C269.737 82.16 270.109 82.564 270.349 83.092L268.897 83.872C268.729 83.568 268.517 83.344 268.261 83.2C268.013 83.056 267.741 82.984 267.445 82.984C267.125 82.984 266.837 83.056 266.581 83.2C266.325 83.344 266.121 83.548 265.969 83.812C265.825 84.076 265.753 84.396 265.753 84.772C265.753 85.148 265.825 85.468 265.969 85.732C266.121 85.996 266.325 86.2 266.581 86.344C266.837 86.488 267.125 86.56 267.445 86.56C267.741 86.56 268.013 86.492 268.261 86.356C268.517 86.212 268.729 85.984 268.897 85.672L270.349 86.464C270.109 86.984 269.737 87.388 269.233 87.676C268.729 87.956 268.137 88.096 267.457 88.096ZM271.391 88V81.544H273.263V88H271.391ZM272.327 80.644C271.983 80.644 271.703 80.544 271.487 80.344C271.271 80.144 271.163 79.896 271.163 79.6C271.163 79.304 271.271 79.056 271.487 78.856C271.703 78.656 271.983 78.556 272.327 78.556C272.671 78.556 272.951 78.652 273.167 78.844C273.383 79.028 273.491 79.268 273.491 79.564C273.491 79.876 273.383 80.136 273.167 80.344C272.959 80.544 272.679 80.644 272.327 80.644ZM278.961 88V86.74L278.841 86.464V84.208C278.841 83.808 278.717 83.496 278.469 83.272C278.229 83.048 277.857 82.936 277.353 82.936C277.009 82.936 276.669 82.992 276.333 83.104C276.005 83.208 275.725 83.352 275.493 83.536L274.821 82.228C275.173 81.98 275.597 81.788 276.093 81.652C276.589 81.516 277.093 81.448 277.605 81.448C278.589 81.448 279.353 81.68 279.897 82.144C280.441 82.608 280.713 83.332 280.713 84.316V88H278.961ZM276.993 88.096C276.489 88.096 276.057 88.012 275.697 87.844C275.337 87.668 275.061 87.432 274.869 87.136C274.677 86.84 274.581 86.508 274.581 86.14C274.581 85.756 274.673 85.42 274.857 85.132C275.049 84.844 275.349 84.62 275.757 84.46C276.165 84.292 276.697 84.208 277.353 84.208H279.069V85.3H277.557C277.117 85.3 276.813 85.372 276.645 85.516C276.485 85.66 276.405 85.84 276.405 86.056C276.405 86.296 276.497 86.488 276.681 86.632C276.873 86.768 277.133 86.836 277.461 86.836C277.773 86.836 278.053 86.764 278.301 86.62C278.549 86.468 278.729 86.248 278.841 85.96L279.129 86.824C278.993 87.24 278.745 87.556 278.385 87.772C278.025 87.988 277.561 88.096 276.993 88.096ZM282.407 88V81.544H284.195V83.368L283.943 82.84C284.135 82.384 284.443 82.04 284.867 81.808C285.291 81.568 285.807 81.448 286.415 81.448V83.176C286.335 83.168 286.263 83.164 286.199 83.164C286.135 83.156 286.067 83.152 285.995 83.152C285.483 83.152 285.067 83.3 284.747 83.596C284.435 83.884 284.279 84.336 284.279 84.952V88H282.407ZM288.166 88.096C287.846 88.096 287.57 87.988 287.338 87.772C287.114 87.548 287.002 87.264 287.002 86.92C287.002 86.576 287.114 86.3 287.338 86.092C287.57 85.876 287.846 85.768 288.166 85.768C288.494 85.768 288.77 85.876 288.994 86.092C289.218 86.3 289.33 86.576 289.33 86.92C289.33 87.264 289.218 87.548 288.994 87.772C288.77 87.988 288.494 88.096 288.166 88.096Z" fill="#333333"/>
</g>
<defs>
<filter id="filter0_d_10_3183" x="0" y="0" width="380" height="224" filterUnits="userSpaceOnUse" color-interpolation-filters="sRGB">
<feFlood flood-opacity="0" result="BackgroundImageFix"/>
<feColorMatrix in="SourceAlpha" type="matrix" values="0 0 0 0 0 0 0 0 0 0 0 0 0 0 0 0 0 0 127 0" result="hardAlpha"/>
<feOffset dy="4"/>
<feColorMatrix type="matrix" values="0 0 0 0 0 0 0 0 0 0 0 0 0 0 0 0 0 0 0.25 0"/>
<feBlend mode="normal" in2="BackgroundImageFix" result="effect1_dropShadow_10_3183"/>
<feBlend mode="normal" in="SourceGraphic" in2="effect1_dropShadow_10_3183" result="shape"/>
</filter>
</defs>
</svg>
