<svg width="380" height="224" viewBox="0 0 380 224" fill="none" xmlns="http://www.w3.org/2000/svg">
<g filter="url(#filter0_d_10_3495)">
<rect width="380" height="220" rx="20" fill="#F2F2F2"/>
<path fill-rule="evenodd" clip-rule="evenodd" d="M315 118.985C315 108 306 98.9922 295 98.9922C233.172 98.9922 208 98.9995 208 98.9995L200 107H163L154 98.9993H119.147C108.147 98.9993 99.1467 108 99.1467 118.992C99.1467 118.999 99.1467 119.007 99.1467 119.014C99.1467 130 108.147 139 119.147 139C135.71 139 154 139 154 139L163 147H200L208 139H295.147C306 139 315 130 315 119.007C315 119 315 119.5 315 118.985Z" fill="#30DCFF"/>
<path fill-rule="evenodd" clip-rule="evenodd" d="M315 118.989C315 108 306 99 294.853 99C233.025 99 208 99.0001 208 99.0001L200 107H163L154 99.0001H119C108 99.0001 99 108 99 118.989C99 118.996 99 119 99 119H104C104 109 111 104 119 104C133.664 104 152 104 152 104L161 112H202L210 104H295C304 104 310 110 310 119L315 119V118.989Z" fill="white" fill-opacity="0.5"/>
<path fill-rule="evenodd" clip-rule="evenodd" d="M315 119L310 119C310 127.971 304.197 134 295 134C237.995 134 206 134 206 134L198 142H165L156 134H119C108.496 134 104 128 104 119.001L99 119V119.011C99 130 108 139 119 139C135.563 139 154 139 154 139L163 147H200L208 139H295C306 139 315 130 315 119Z" fill="black" fill-opacity="0.25"/>
<path d="M111.568 122.092H115.744V123.376H111.568V122.092ZM111.688 125.692H116.428V127H110.128V118.6H116.26V119.908H111.688V125.692ZM121.659 120.52C122.171 120.52 122.627 120.62 123.027 120.82C123.435 121.02 123.755 121.328 123.987 121.744C124.219 122.152 124.335 122.68 124.335 123.328V127H122.835V123.52C122.835 122.952 122.699 122.528 122.427 122.248C122.163 121.968 121.791 121.828 121.311 121.828C120.959 121.828 120.647 121.9 120.375 122.044C120.103 122.188 119.891 122.404 119.739 122.692C119.595 122.972 119.523 123.328 119.523 123.76V127H118.023V120.592H119.451V122.32L119.199 121.792C119.423 121.384 119.747 121.072 120.171 120.856C120.603 120.632 121.099 120.52 121.659 120.52ZM128.65 127.084C127.946 127.084 127.402 126.904 127.018 126.544C126.634 126.176 126.442 125.636 126.442 124.924V119.176H127.942V124.888C127.942 125.192 128.018 125.428 128.17 125.596C128.33 125.764 128.55 125.848 128.83 125.848C129.166 125.848 129.446 125.76 129.67 125.584L130.09 126.652C129.914 126.796 129.698 126.904 129.442 126.976C129.186 127.048 128.922 127.084 128.65 127.084ZM125.386 121.84V120.64H129.658V121.84H125.386ZM131.324 127V120.592H132.752V122.356L132.584 121.84C132.776 121.408 133.076 121.08 133.484 120.856C133.9 120.632 134.416 120.52 135.032 120.52V121.948C134.968 121.932 134.908 121.924 134.852 121.924C134.796 121.916 134.74 121.912 134.684 121.912C134.116 121.912 133.664 122.08 133.328 122.416C132.992 122.744 132.824 123.236 132.824 123.892V127H131.324ZM139.258 127.084C138.546 127.084 137.922 126.944 137.386 126.664C136.858 126.376 136.446 125.984 136.15 125.488C135.862 124.992 135.718 124.428 135.718 123.796C135.718 123.156 135.858 122.592 136.138 122.104C136.426 121.608 136.818 121.22 137.314 120.94C137.818 120.66 138.39 120.52 139.03 120.52C139.654 120.52 140.21 120.656 140.698 120.928C141.186 121.2 141.57 121.584 141.85 122.08C142.13 122.576 142.27 123.16 142.27 123.832C142.27 123.896 142.266 123.968 142.258 124.048C142.258 124.128 142.254 124.204 142.246 124.276H136.906V123.28H141.454L140.866 123.592C140.874 123.224 140.798 122.9 140.638 122.62C140.478 122.34 140.258 122.12 139.978 121.96C139.706 121.8 139.39 121.72 139.03 121.72C138.662 121.72 138.338 121.8 138.058 121.96C137.786 122.12 137.57 122.344 137.41 122.632C137.258 122.912 137.182 123.244 137.182 123.628V123.868C137.182 124.252 137.27 124.592 137.446 124.888C137.622 125.184 137.87 125.412 138.19 125.572C138.51 125.732 138.878 125.812 139.294 125.812C139.654 125.812 139.978 125.756 140.266 125.644C140.554 125.532 140.81 125.356 141.034 125.116L141.838 126.04C141.55 126.376 141.186 126.636 140.746 126.82C140.314 126.996 139.818 127.084 139.258 127.084ZM150.663 120.52C151.175 120.52 151.631 120.62 152.031 120.82C152.439 121.02 152.759 121.328 152.991 121.744C153.223 122.152 153.339 122.68 153.339 123.328V127H151.839V123.52C151.839 122.952 151.703 122.528 151.431 122.248C151.167 121.968 150.795 121.828 150.315 121.828C149.963 121.828 149.651 121.9 149.379 122.044C149.107 122.188 148.895 122.404 148.743 122.692C148.599 122.972 148.527 123.328 148.527 123.76V127H147.027V120.592H148.455V122.32L148.203 121.792C148.427 121.384 148.751 121.072 149.175 120.856C149.607 120.632 150.103 120.52 150.663 120.52ZM158.134 127.084C157.478 127.084 156.894 126.944 156.382 126.664C155.87 126.376 155.466 125.984 155.17 125.488C154.874 124.992 154.726 124.428 154.726 123.796C154.726 123.156 154.874 122.592 155.17 122.104C155.466 121.608 155.87 121.22 156.382 120.94C156.894 120.66 157.478 120.52 158.134 120.52C158.798 120.52 159.386 120.66 159.898 120.94C160.418 121.22 160.822 121.604 161.11 122.092C161.406 122.58 161.554 123.148 161.554 123.796C161.554 124.428 161.406 124.992 161.11 125.488C160.822 125.984 160.418 126.376 159.898 126.664C159.386 126.944 158.798 127.084 158.134 127.084ZM158.134 125.8C158.502 125.8 158.83 125.72 159.118 125.56C159.406 125.4 159.63 125.168 159.79 124.864C159.958 124.56 160.042 124.204 160.042 123.796C160.042 123.38 159.958 123.024 159.79 122.728C159.63 122.424 159.406 122.192 159.118 122.032C158.83 121.872 158.506 121.792 158.146 121.792C157.778 121.792 157.45 121.872 157.162 122.032C156.882 122.192 156.658 122.424 156.49 122.728C156.322 123.024 156.238 123.38 156.238 123.796C156.238 124.204 156.322 124.56 156.49 124.864C156.658 125.168 156.882 125.4 157.162 125.56C157.45 125.72 157.774 125.8 158.134 125.8ZM169.316 127.084C168.604 127.084 167.98 126.944 167.444 126.664C166.916 126.376 166.504 125.984 166.208 125.488C165.92 124.992 165.776 124.428 165.776 123.796C165.776 123.156 165.916 122.592 166.196 122.104C166.484 121.608 166.876 121.22 167.372 120.94C167.876 120.66 168.448 120.52 169.088 120.52C169.712 120.52 170.268 120.656 170.756 120.928C171.244 121.2 171.628 121.584 171.908 122.08C172.188 122.576 172.328 123.16 172.328 123.832C172.328 123.896 172.324 123.968 172.316 124.048C172.316 124.128 172.312 124.204 172.304 124.276H166.964V123.28H171.512L170.924 123.592C170.932 123.224 170.856 122.9 170.696 122.62C170.536 122.34 170.316 122.12 170.036 121.96C169.764 121.8 169.448 121.72 169.088 121.72C168.72 121.72 168.396 121.8 168.116 121.96C167.844 122.12 167.628 122.344 167.468 122.632C167.316 122.912 167.24 123.244 167.24 123.628V123.868C167.24 124.252 167.328 124.592 167.504 124.888C167.68 125.184 167.928 125.412 168.248 125.572C168.568 125.732 168.936 125.812 169.352 125.812C169.712 125.812 170.036 125.756 170.324 125.644C170.612 125.532 170.868 125.356 171.092 125.116L171.896 126.04C171.608 126.376 171.244 126.636 170.804 126.82C170.372 126.996 169.876 127.084 169.316 127.084ZM176.481 127.084C175.865 127.084 175.309 126.948 174.813 126.676C174.325 126.396 173.941 126.012 173.661 125.524C173.381 125.036 173.241 124.46 173.241 123.796C173.241 123.132 173.381 122.556 173.661 122.068C173.941 121.58 174.325 121.2 174.813 120.928C175.309 120.656 175.865 120.52 176.481 120.52C177.017 120.52 177.497 120.64 177.921 120.88C178.345 121.112 178.681 121.468 178.929 121.948C179.177 122.428 179.301 123.044 179.301 123.796C179.301 124.54 179.181 125.156 178.941 125.644C178.701 126.124 178.369 126.484 177.945 126.724C177.521 126.964 177.033 127.084 176.481 127.084ZM176.661 125.8C177.021 125.8 177.341 125.72 177.621 125.56C177.909 125.4 178.137 125.168 178.305 124.864C178.481 124.56 178.569 124.204 178.569 123.796C178.569 123.38 178.481 123.024 178.305 122.728C178.137 122.424 177.909 122.192 177.621 122.032C177.341 121.872 177.021 121.792 176.661 121.792C176.301 121.792 175.977 121.872 175.689 122.032C175.409 122.192 175.181 122.424 175.005 122.728C174.837 123.024 174.753 123.38 174.753 123.796C174.753 124.204 174.837 124.56 175.005 124.864C175.181 125.168 175.409 125.4 175.689 125.56C175.977 125.72 176.301 125.8 176.661 125.8ZM178.605 127V125.488L178.665 123.784L178.545 122.08V118.096H180.033V127H178.605ZM182.007 127V120.592H183.507V127H182.007ZM182.763 119.536C182.483 119.536 182.251 119.448 182.067 119.272C181.891 119.096 181.803 118.884 181.803 118.636C181.803 118.38 181.891 118.168 182.067 118C182.251 117.824 182.483 117.736 182.763 117.736C183.043 117.736 183.271 117.82 183.447 117.988C183.631 118.148 183.723 118.352 183.723 118.6C183.723 118.864 183.635 119.088 183.459 119.272C183.283 119.448 183.051 119.536 182.763 119.536ZM187.888 127.084C187.184 127.084 186.64 126.904 186.256 126.544C185.872 126.176 185.68 125.636 185.68 124.924V119.176H187.18V124.888C187.18 125.192 187.256 125.428 187.408 125.596C187.568 125.764 187.788 125.848 188.068 125.848C188.404 125.848 188.684 125.76 188.908 125.584L189.328 126.652C189.152 126.796 188.936 126.904 188.68 126.976C188.424 127.048 188.16 127.084 187.888 127.084ZM184.624 121.84V120.64H188.896V121.84H184.624ZM193.231 127.084C192.575 127.084 191.991 126.944 191.479 126.664C190.967 126.376 190.563 125.984 190.267 125.488C189.971 124.992 189.823 124.428 189.823 123.796C189.823 123.156 189.971 122.592 190.267 122.104C190.563 121.608 190.967 121.22 191.479 120.94C191.991 120.66 192.575 120.52 193.231 120.52C193.895 120.52 194.483 120.66 194.995 120.94C195.515 121.22 195.919 121.604 196.207 122.092C196.503 122.58 196.651 123.148 196.651 123.796C196.651 124.428 196.503 124.992 196.207 125.488C195.919 125.984 195.515 126.376 194.995 126.664C194.483 126.944 193.895 127.084 193.231 127.084ZM193.231 125.8C193.599 125.8 193.927 125.72 194.215 125.56C194.503 125.4 194.727 125.168 194.887 124.864C195.055 124.56 195.139 124.204 195.139 123.796C195.139 123.38 195.055 123.024 194.887 122.728C194.727 122.424 194.503 122.192 194.215 122.032C193.927 121.872 193.603 121.792 193.243 121.792C192.875 121.792 192.547 121.872 192.259 122.032C191.979 122.192 191.755 122.424 191.587 122.728C191.419 123.024 191.335 123.38 191.335 123.796C191.335 124.204 191.419 124.56 191.587 124.864C191.755 125.168 191.979 125.4 192.259 125.56C192.547 125.72 192.871 125.8 193.231 125.8ZM198.086 127V120.592H199.514V122.356L199.346 121.84C199.538 121.408 199.838 121.08 200.246 120.856C200.662 120.632 201.178 120.52 201.794 120.52V121.948C201.73 121.932 201.67 121.924 201.614 121.924C201.558 121.916 201.502 121.912 201.446 121.912C200.878 121.912 200.426 122.08 200.09 122.416C199.754 122.744 199.586 123.236 199.586 123.892V127H198.086ZM209.153 127.084C208.537 127.084 207.981 126.948 207.485 126.676C206.997 126.396 206.613 126.012 206.333 125.524C206.053 125.036 205.913 124.46 205.913 123.796C205.913 123.132 206.053 122.556 206.333 122.068C206.613 121.58 206.997 121.2 207.485 120.928C207.981 120.656 208.537 120.52 209.153 120.52C209.689 120.52 210.169 120.64 210.593 120.88C211.017 121.112 211.353 121.468 211.601 121.948C211.849 122.428 211.973 123.044 211.973 123.796C211.973 124.54 211.853 125.156 211.613 125.644C211.373 126.124 211.041 126.484 210.617 126.724C210.193 126.964 209.705 127.084 209.153 127.084ZM209.333 125.8C209.693 125.8 210.013 125.72 210.293 125.56C210.581 125.4 210.809 125.168 210.977 124.864C211.153 124.56 211.241 124.204 211.241 123.796C211.241 123.38 211.153 123.024 210.977 122.728C210.809 122.424 210.581 122.192 210.293 122.032C210.013 121.872 209.693 121.792 209.333 121.792C208.973 121.792 208.649 121.872 208.361 122.032C208.081 122.192 207.853 122.424 207.677 122.728C207.509 123.024 207.425 123.38 207.425 123.796C207.425 124.204 207.509 124.56 207.677 124.864C207.853 125.168 208.081 125.4 208.361 125.56C208.649 125.72 208.973 125.8 209.333 125.8ZM211.277 127V125.488L211.337 123.784L211.217 122.08V118.096H212.705V127H211.277ZM217.691 127.084C216.979 127.084 216.355 126.944 215.819 126.664C215.291 126.376 214.879 125.984 214.583 125.488C214.295 124.992 214.151 124.428 214.151 123.796C214.151 123.156 214.291 122.592 214.571 122.104C214.859 121.608 215.251 121.22 215.747 120.94C216.251 120.66 216.823 120.52 217.463 120.52C218.087 120.52 218.643 120.656 219.131 120.928C219.619 121.2 220.003 121.584 220.283 122.08C220.563 122.576 220.703 123.16 220.703 123.832C220.703 123.896 220.699 123.968 220.691 124.048C220.691 124.128 220.687 124.204 220.679 124.276H215.339V123.28H219.887L219.299 123.592C219.307 123.224 219.231 122.9 219.071 122.62C218.911 122.34 218.691 122.12 218.411 121.96C218.139 121.8 217.823 121.72 217.463 121.72C217.095 121.72 216.771 121.8 216.491 121.96C216.219 122.12 216.003 122.344 215.843 122.632C215.691 122.912 215.615 123.244 215.615 123.628V123.868C215.615 124.252 215.703 124.592 215.879 124.888C216.055 125.184 216.303 125.412 216.623 125.572C216.943 125.732 217.311 125.812 217.727 125.812C218.087 125.812 218.411 125.756 218.699 125.644C218.987 125.532 219.243 125.356 219.467 125.116L220.271 126.04C219.983 126.376 219.619 126.636 219.179 126.82C218.747 126.996 218.251 127.084 217.691 127.084ZM227.873 127.084C227.169 127.084 226.625 126.904 226.241 126.544C225.857 126.176 225.665 125.636 225.665 124.924V119.176H227.165V124.888C227.165 125.192 227.241 125.428 227.393 125.596C227.553 125.764 227.773 125.848 228.053 125.848C228.389 125.848 228.669 125.76 228.893 125.584L229.313 126.652C229.137 126.796 228.921 126.904 228.665 126.976C228.409 127.048 228.145 127.084 227.873 127.084ZM224.609 121.84V120.64H228.881V121.84H224.609ZM233.348 127.084C232.636 127.084 232.012 126.944 231.476 126.664C230.948 126.376 230.536 125.984 230.24 125.488C229.952 124.992 229.808 124.428 229.808 123.796C229.808 123.156 229.948 122.592 230.228 122.104C230.516 121.608 230.908 121.22 231.404 120.94C231.908 120.66 232.48 120.52 233.12 120.52C233.744 120.52 234.3 120.656 234.788 120.928C235.276 121.2 235.66 121.584 235.94 122.08C236.22 122.576 236.36 123.16 236.36 123.832C236.36 123.896 236.356 123.968 236.348 124.048C236.348 124.128 236.344 124.204 236.336 124.276H230.996V123.28H235.544L234.956 123.592C234.964 123.224 234.888 122.9 234.728 122.62C234.568 122.34 234.348 122.12 234.068 121.96C233.796 121.8 233.48 121.72 233.12 121.72C232.752 121.72 232.428 121.8 232.148 121.96C231.876 122.12 231.66 122.344 231.5 122.632C231.348 122.912 231.272 123.244 231.272 123.628V123.868C231.272 124.252 231.36 124.592 231.536 124.888C231.712 125.184 231.96 125.412 232.28 125.572C232.6 125.732 232.968 125.812 233.384 125.812C233.744 125.812 234.068 125.756 234.356 125.644C234.644 125.532 234.9 125.356 235.124 125.116L235.928 126.04C235.64 126.376 235.276 126.636 234.836 126.82C234.404 126.996 233.908 127.084 233.348 127.084ZM236.749 127L239.569 123.328L239.545 124.132L236.857 120.592H238.525L240.409 123.112H239.773L241.669 120.592H243.289L240.577 124.132L240.589 123.328L243.397 127H241.705L239.725 124.324L240.349 124.408L238.405 127H236.749ZM246.916 127.084C246.212 127.084 245.668 126.904 245.284 126.544C244.9 126.176 244.708 125.636 244.708 124.924V119.176H246.208V124.888C246.208 125.192 246.284 125.428 246.436 125.596C246.596 125.764 246.816 125.848 247.096 125.848C247.432 125.848 247.712 125.76 247.936 125.584L248.356 126.652C248.18 126.796 247.964 126.904 247.708 126.976C247.452 127.048 247.188 127.084 246.916 127.084ZM243.652 121.84V120.64H247.924V121.84H243.652ZM252.259 127.084C251.603 127.084 251.019 126.944 250.507 126.664C249.995 126.376 249.591 125.984 249.295 125.488C248.999 124.992 248.851 124.428 248.851 123.796C248.851 123.156 248.999 122.592 249.295 122.104C249.591 121.608 249.995 121.22 250.507 120.94C251.019 120.66 251.603 120.52 252.259 120.52C252.923 120.52 253.511 120.66 254.023 120.94C254.543 121.22 254.947 121.604 255.235 122.092C255.531 122.58 255.679 123.148 255.679 123.796C255.679 124.428 255.531 124.992 255.235 125.488C254.947 125.984 254.543 126.376 254.023 126.664C253.511 126.944 252.923 127.084 252.259 127.084ZM252.259 125.8C252.627 125.8 252.955 125.72 253.243 125.56C253.531 125.4 253.755 125.168 253.915 124.864C254.083 124.56 254.167 124.204 254.167 123.796C254.167 123.38 254.083 123.024 253.915 122.728C253.755 122.424 253.531 122.192 253.243 122.032C252.955 121.872 252.631 121.792 252.271 121.792C251.903 121.792 251.575 121.872 251.287 122.032C251.007 122.192 250.783 122.424 250.615 122.728C250.447 123.024 250.363 123.38 250.363 123.796C250.363 124.204 250.447 124.56 250.615 124.864C250.783 125.168 251.007 125.4 251.287 125.56C251.575 125.72 251.899 125.8 252.259 125.8Z" fill="#333333"/>
<path fill-rule="evenodd" clip-rule="evenodd" d="M315 157.985C315 147 306 137.992 295 137.992C233.172 137.992 208 138 208 138L200 146H163L154 137.999H119.147C108.147 137.999 99.1467 147 99.1467 157.992C99.1467 157.999 99.1467 158.007 99.1467 158.014C99.1467 169 108.147 178 119.147 178C135.71 178 154 178 154 178L163 186H200L208 178H295.147C306 178 315 169 315 158.007C315 158 315 158.5 315 157.985Z" fill="#30DCFF"/>
<path fill-rule="evenodd" clip-rule="evenodd" d="M315 157.989C315 147 306 138 294.853 138C233.025 138 208 138 208 138L200 146H163L154 138H119C108 138 99 147 99 157.989C99 157.996 99 158 99 158H104C104 148 111 143 119 143C133.664 143 152 143 152 143L161 151H202L210 143H295C304 143 310 149 310 158L315 158V157.989Z" fill="white" fill-opacity="0.5"/>
<path fill-rule="evenodd" clip-rule="evenodd" d="M315 158L310 158C310 166.971 304.197 173 295 173C237.995 173 206 173 206 173L198 181H165L156 173H119C108.496 173 104 167 104 158.001L99 158V158.011C99 169 108 178 119 178C135.563 178 154 178 154 178L163 186H200L208 178H295C306 178 315 169 315 158Z" fill="black" fill-opacity="0.25"/>
<path d="M111.568 161.092H115.744V162.376H111.568V161.092ZM111.688 164.692H116.428V166H110.128V157.6H116.26V158.908H111.688V164.692ZM119.944 166.084C119.408 166.084 118.892 166.016 118.396 165.88C117.908 165.736 117.52 165.564 117.232 165.364L117.808 164.224C118.096 164.408 118.44 164.56 118.84 164.68C119.24 164.8 119.64 164.86 120.04 164.86C120.512 164.86 120.852 164.796 121.06 164.668C121.276 164.54 121.384 164.368 121.384 164.152C121.384 163.976 121.312 163.844 121.168 163.756C121.024 163.66 120.836 163.588 120.604 163.54C120.372 163.492 120.112 163.448 119.824 163.408C119.544 163.368 119.26 163.316 118.972 163.252C118.692 163.18 118.436 163.08 118.204 162.952C117.972 162.816 117.784 162.636 117.64 162.412C117.496 162.188 117.424 161.892 117.424 161.524C117.424 161.116 117.54 160.764 117.772 160.468C118.004 160.164 118.328 159.932 118.744 159.772C119.168 159.604 119.668 159.52 120.244 159.52C120.676 159.52 121.112 159.568 121.552 159.664C121.992 159.76 122.356 159.896 122.644 160.072L122.068 161.212C121.764 161.028 121.456 160.904 121.144 160.84C120.84 160.768 120.536 160.732 120.232 160.732C119.776 160.732 119.436 160.8 119.212 160.936C118.996 161.072 118.888 161.244 118.888 161.452C118.888 161.644 118.96 161.788 119.104 161.884C119.248 161.98 119.436 162.056 119.668 162.112C119.9 162.168 120.156 162.216 120.436 162.256C120.724 162.288 121.008 162.34 121.288 162.412C121.568 162.484 121.824 162.584 122.056 162.712C122.296 162.832 122.488 163.004 122.632 163.228C122.776 163.452 122.848 163.744 122.848 164.104C122.848 164.504 122.728 164.852 122.488 165.148C122.256 165.444 121.924 165.676 121.492 165.844C121.06 166.004 120.544 166.084 119.944 166.084ZM127.08 166.084C126.408 166.084 125.808 165.944 125.28 165.664C124.76 165.376 124.352 164.984 124.056 164.488C123.76 163.992 123.612 163.428 123.612 162.796C123.612 162.156 123.76 161.592 124.056 161.104C124.352 160.608 124.76 160.22 125.28 159.94C125.808 159.66 126.408 159.52 127.08 159.52C127.704 159.52 128.252 159.648 128.724 159.904C129.204 160.152 129.568 160.52 129.816 161.008L128.664 161.68C128.472 161.376 128.236 161.152 127.956 161.008C127.684 160.864 127.388 160.792 127.068 160.792C126.7 160.792 126.368 160.872 126.072 161.032C125.776 161.192 125.544 161.424 125.376 161.728C125.208 162.024 125.124 162.38 125.124 162.796C125.124 163.212 125.208 163.572 125.376 163.876C125.544 164.172 125.776 164.4 126.072 164.56C126.368 164.72 126.7 164.8 127.068 164.8C127.388 164.8 127.684 164.728 127.956 164.584C128.236 164.44 128.472 164.216 128.664 163.912L129.816 164.584C129.568 165.064 129.204 165.436 128.724 165.7C128.252 165.956 127.704 166.084 127.08 166.084ZM131.113 166V159.592H132.541V161.356L132.373 160.84C132.565 160.408 132.865 160.08 133.273 159.856C133.689 159.632 134.205 159.52 134.821 159.52V160.948C134.757 160.932 134.697 160.924 134.641 160.924C134.585 160.916 134.529 160.912 134.473 160.912C133.905 160.912 133.453 161.08 133.117 161.416C132.781 161.744 132.613 162.236 132.613 162.892V166H131.113ZM139.047 166.084C138.335 166.084 137.711 165.944 137.175 165.664C136.647 165.376 136.235 164.984 135.939 164.488C135.651 163.992 135.507 163.428 135.507 162.796C135.507 162.156 135.647 161.592 135.927 161.104C136.215 160.608 136.607 160.22 137.103 159.94C137.607 159.66 138.179 159.52 138.819 159.52C139.443 159.52 139.999 159.656 140.487 159.928C140.975 160.2 141.359 160.584 141.639 161.08C141.919 161.576 142.059 162.16 142.059 162.832C142.059 162.896 142.055 162.968 142.047 163.048C142.047 163.128 142.043 163.204 142.035 163.276H136.695V162.28H141.243L140.655 162.592C140.663 162.224 140.587 161.9 140.427 161.62C140.267 161.34 140.047 161.12 139.767 160.96C139.495 160.8 139.179 160.72 138.819 160.72C138.451 160.72 138.127 160.8 137.847 160.96C137.575 161.12 137.359 161.344 137.199 161.632C137.047 161.912 136.971 162.244 136.971 162.628V162.868C136.971 163.252 137.059 163.592 137.235 163.888C137.411 164.184 137.659 164.412 137.979 164.572C138.299 164.732 138.667 164.812 139.083 164.812C139.443 164.812 139.767 164.756 140.055 164.644C140.343 164.532 140.599 164.356 140.823 164.116L141.627 165.04C141.339 165.376 140.975 165.636 140.535 165.82C140.103 165.996 139.607 166.084 139.047 166.084ZM145.086 166L142.338 159.592H143.898L146.262 165.244H145.494L147.942 159.592H149.382L146.634 166H145.086ZM153.156 166.084C152.444 166.084 151.82 165.944 151.284 165.664C150.756 165.376 150.344 164.984 150.048 164.488C149.76 163.992 149.616 163.428 149.616 162.796C149.616 162.156 149.756 161.592 150.036 161.104C150.324 160.608 150.716 160.22 151.212 159.94C151.716 159.66 152.288 159.52 152.928 159.52C153.552 159.52 154.108 159.656 154.596 159.928C155.084 160.2 155.468 160.584 155.748 161.08C156.028 161.576 156.168 162.16 156.168 162.832C156.168 162.896 156.164 162.968 156.156 163.048C156.156 163.128 156.152 163.204 156.144 163.276H150.804V162.28H155.352L154.764 162.592C154.772 162.224 154.696 161.9 154.536 161.62C154.376 161.34 154.156 161.12 153.876 160.96C153.604 160.8 153.288 160.72 152.928 160.72C152.56 160.72 152.236 160.8 151.956 160.96C151.684 161.12 151.468 161.344 151.308 161.632C151.156 161.912 151.08 162.244 151.08 162.628V162.868C151.08 163.252 151.168 163.592 151.344 163.888C151.52 164.184 151.768 164.412 152.088 164.572C152.408 164.732 152.776 164.812 153.192 164.812C153.552 164.812 153.876 164.756 154.164 164.644C154.452 164.532 154.708 164.356 154.932 164.116L155.736 165.04C155.448 165.376 155.084 165.636 154.644 165.82C154.212 165.996 153.716 166.084 153.156 166.084ZM157.609 166V159.592H159.037V161.356L158.869 160.84C159.061 160.408 159.361 160.08 159.769 159.856C160.185 159.632 160.701 159.52 161.317 159.52V160.948C161.253 160.932 161.193 160.924 161.137 160.924C161.081 160.916 161.025 160.912 160.969 160.912C160.401 160.912 159.949 161.08 159.613 161.416C159.277 161.744 159.109 162.236 159.109 162.892V166H157.609Z" fill="#333333"/>
<path fill-rule="evenodd" clip-rule="evenodd" d="M315 81C315 70 308 63 297 63C257.917 63 282.045 63 254 63C246.27 63 242.785 60.7635 238.5 56.5C229.193 47.8197 205.783 34 154.427 34C82.0243 34 65 63 65 63C65 63 65.0004 67.7195 65.0006 81C65.0006 91 73 99 83 99C109.488 99 154 99 154 99L163 107H200L208 99C208 99 242.031 99 297 99C308 99 315 92 315 81C315 82.8675 315 78.1323 315 81Z" fill="#FC79FF"/>
<path fill-rule="evenodd" clip-rule="evenodd" d="M310 81C310 89 306 94 297 94L206 94L198 102H165L156 94C156 94 108.393 94 83.0001 94C74.9643 94 70 88 70 81H65C65 91 73 99 83.0001 99C109.441 99 154 99 154 99L163.027 107H200L208 99L297 99C308 99 315 92 315 81C313.5 81 312 80.9999 310 81Z" fill="black" fill-opacity="0.25"/>
<path fill-rule="evenodd" clip-rule="evenodd" d="M65 81H70V65C70 65 84.993 39 154.286 39C201.342 39 225.557 51.6452 235.5 60C240.292 64.0301 246.712 67.9521 253 68C261.5 68 281.464 68 297 68C304.964 68 310 73.5 310 80V81H314H315C315 70 308 63 297 63C257.993 63 281.008 63 253 63C246 63 242.169 60.1595 238.214 56.2066C228.936 47.4998 205.571 34 154.268 34C81.9103 34 65 63 65 63L65 81Z" fill="white" fill-opacity="0.5"/>
<path d="M80.064 88.144C79.408 88.144 78.796 88.036 78.228 87.82C77.668 87.604 77.18 87.3 76.764 86.908C76.356 86.516 76.036 86.056 75.804 85.528C75.58 85 75.468 84.424 75.468 83.8C75.468 83.176 75.58 82.6 75.804 82.072C76.036 81.544 76.36 81.084 76.776 80.692C77.192 80.3 77.68 79.996 78.24 79.78C78.8 79.564 79.408 79.456 80.064 79.456C80.728 79.456 81.336 79.564 81.888 79.78C82.448 79.996 82.932 80.3 83.34 80.692C83.756 81.076 84.08 81.532 84.312 82.06C84.544 82.588 84.66 83.168 84.66 83.8C84.66 84.424 84.544 85.004 84.312 85.54C84.08 86.068 83.756 86.528 83.34 86.92C82.932 87.304 82.448 87.604 81.888 87.82C81.336 88.036 80.728 88.144 80.064 88.144ZM82.812 89.932C82.484 89.932 82.172 89.896 81.876 89.824C81.588 89.752 81.3 89.636 81.012 89.476C80.732 89.316 80.436 89.1 80.124 88.828C79.82 88.556 79.488 88.22 79.128 87.82L81.168 87.304C81.384 87.6 81.584 87.836 81.768 88.012C81.952 88.188 82.128 88.312 82.296 88.384C82.472 88.456 82.656 88.492 82.848 88.492C83.36 88.492 83.816 88.284 84.216 87.868L85.08 88.9C84.512 89.588 83.756 89.932 82.812 89.932ZM80.064 86.488C80.44 86.488 80.784 86.424 81.096 86.296C81.416 86.168 81.696 85.984 81.936 85.744C82.176 85.504 82.36 85.22 82.488 84.892C82.624 84.556 82.692 84.192 82.692 83.8C82.692 83.4 82.624 83.036 82.488 82.708C82.36 82.38 82.176 82.096 81.936 81.856C81.696 81.616 81.416 81.432 81.096 81.304C80.784 81.176 80.44 81.112 80.064 81.112C79.688 81.112 79.34 81.176 79.02 81.304C78.7 81.432 78.42 81.616 78.18 81.856C77.948 82.096 77.764 82.38 77.628 82.708C77.5 83.036 77.436 83.4 77.436 83.8C77.436 84.192 77.5 84.556 77.628 84.892C77.764 85.22 77.948 85.504 78.18 85.744C78.42 85.984 78.7 86.168 79.02 86.296C79.34 86.424 79.688 86.488 80.064 86.488ZM88.713 88.096C88.177 88.096 87.697 87.992 87.273 87.784C86.857 87.576 86.533 87.26 86.301 86.836C86.069 86.404 85.953 85.856 85.953 85.192V81.544H87.825V84.916C87.825 85.452 87.937 85.848 88.161 86.104C88.393 86.352 88.717 86.476 89.133 86.476C89.421 86.476 89.677 86.416 89.901 86.296C90.125 86.168 90.301 85.976 90.429 85.72C90.557 85.456 90.621 85.128 90.621 84.736V81.544H92.493V88H90.717V86.224L91.041 86.74C90.825 87.188 90.505 87.528 90.081 87.76C89.665 87.984 89.209 88.096 88.713 88.096ZM98.1873 88V86.74L98.0673 86.464V84.208C98.0673 83.808 97.9433 83.496 97.6953 83.272C97.4553 83.048 97.0833 82.936 96.5793 82.936C96.2353 82.936 95.8953 82.992 95.5593 83.104C95.2313 83.208 94.9513 83.352 94.7193 83.536L94.0473 82.228C94.3993 81.98 94.8233 81.788 95.3193 81.652C95.8153 81.516 96.3193 81.448 96.8313 81.448C97.8153 81.448 98.5793 81.68 99.1233 82.144C99.6673 82.608 99.9393 83.332 99.9393 84.316V88H98.1873ZM96.2193 88.096C95.7153 88.096 95.2833 88.012 94.9233 87.844C94.5633 87.668 94.2873 87.432 94.0953 87.136C93.9033 86.84 93.8073 86.508 93.8073 86.14C93.8073 85.756 93.8993 85.42 94.0833 85.132C94.2753 84.844 94.5753 84.62 94.9833 84.46C95.3913 84.292 95.9233 84.208 96.5793 84.208H98.2953V85.3H96.7833C96.3433 85.3 96.0393 85.372 95.8713 85.516C95.7113 85.66 95.6313 85.84 95.6313 86.056C95.6313 86.296 95.7233 86.488 95.9073 86.632C96.0993 86.768 96.3593 86.836 96.6873 86.836C96.9993 86.836 97.2793 86.764 97.5273 86.62C97.7753 86.468 97.9553 86.248 98.0673 85.96L98.3553 86.824C98.2193 87.24 97.9713 87.556 97.6113 87.772C97.2513 87.988 96.7873 88.096 96.2193 88.096ZM105.558 81.448C106.07 81.448 106.526 81.552 106.926 81.76C107.334 81.96 107.654 82.272 107.886 82.696C108.118 83.112 108.234 83.648 108.234 84.304V88H106.362V84.592C106.362 84.072 106.246 83.688 106.014 83.44C105.79 83.192 105.47 83.068 105.054 83.068C104.758 83.068 104.49 83.132 104.25 83.26C104.018 83.38 103.834 83.568 103.698 83.824C103.57 84.08 103.506 84.408 103.506 84.808V88H101.634V81.544H103.422V83.332L103.086 82.792C103.318 82.36 103.65 82.028 104.082 81.796C104.514 81.564 105.006 81.448 105.558 81.448ZM112.749 88.096C112.141 88.096 111.593 87.96 111.105 87.688C110.617 87.408 110.229 87.02 109.941 86.524C109.661 86.028 109.521 85.444 109.521 84.772C109.521 84.092 109.661 83.504 109.941 83.008C110.229 82.512 110.617 82.128 111.105 81.856C111.593 81.584 112.141 81.448 112.749 81.448C113.293 81.448 113.769 81.568 114.177 81.808C114.585 82.048 114.901 82.412 115.125 82.9C115.349 83.388 115.461 84.012 115.461 84.772C115.461 85.524 115.353 86.148 115.137 86.644C114.921 87.132 114.609 87.496 114.201 87.736C113.801 87.976 113.317 88.096 112.749 88.096ZM113.073 86.56C113.377 86.56 113.653 86.488 113.901 86.344C114.149 86.2 114.345 85.996 114.489 85.732C114.641 85.46 114.717 85.14 114.717 84.772C114.717 84.396 114.641 84.076 114.489 83.812C114.345 83.548 114.149 83.344 113.901 83.2C113.653 83.056 113.377 82.984 113.073 82.984C112.761 82.984 112.481 83.056 112.233 83.2C111.985 83.344 111.785 83.548 111.633 83.812C111.489 84.076 111.417 84.396 111.417 84.772C111.417 85.14 111.489 85.46 111.633 85.732C111.785 85.996 111.985 86.2 112.233 86.344C112.481 86.488 112.761 86.56 113.073 86.56ZM114.765 88V86.68L114.801 84.76L114.681 82.852V79.096H116.553V88H114.765ZM121.358 88.096C120.67 88.096 120.058 87.952 119.522 87.664C118.994 87.376 118.574 86.984 118.262 86.488C117.958 85.984 117.806 85.412 117.806 84.772C117.806 84.124 117.958 83.552 118.262 83.056C118.574 82.552 118.994 82.16 119.522 81.88C120.058 81.592 120.67 81.448 121.358 81.448C122.038 81.448 122.646 81.592 123.182 81.88C123.718 82.16 124.138 82.548 124.442 83.044C124.746 83.54 124.898 84.116 124.898 84.772C124.898 85.412 124.746 85.984 124.442 86.488C124.138 86.984 123.718 87.376 123.182 87.664C122.646 87.952 122.038 88.096 121.358 88.096ZM121.358 86.56C121.67 86.56 121.95 86.488 122.198 86.344C122.446 86.2 122.642 85.996 122.786 85.732C122.93 85.46 123.002 85.14 123.002 84.772C123.002 84.396 122.93 84.076 122.786 83.812C122.642 83.548 122.446 83.344 122.198 83.2C121.95 83.056 121.67 82.984 121.358 82.984C121.046 82.984 120.766 83.056 120.518 83.2C120.27 83.344 120.07 83.548 119.918 83.812C119.774 84.076 119.702 84.396 119.702 84.772C119.702 85.14 119.774 85.46 119.918 85.732C120.07 85.996 120.27 86.2 120.518 86.344C120.766 86.488 121.046 86.56 121.358 86.56ZM126.857 83.788C126.537 83.788 126.261 83.68 126.029 83.464C125.805 83.24 125.693 82.956 125.693 82.612C125.693 82.268 125.805 81.992 126.029 81.784C126.261 81.568 126.537 81.46 126.857 81.46C127.185 81.46 127.461 81.568 127.685 81.784C127.909 81.992 128.021 82.268 128.021 82.612C128.021 82.956 127.909 83.24 127.685 83.464C127.461 83.68 127.185 83.788 126.857 83.788ZM126.857 88.096C126.537 88.096 126.261 87.988 126.029 87.772C125.805 87.548 125.693 87.264 125.693 86.92C125.693 86.576 125.805 86.3 126.029 86.092C126.261 85.876 126.537 85.768 126.857 85.768C127.185 85.768 127.461 85.876 127.685 86.092C127.909 86.3 128.021 86.576 128.021 86.92C128.021 87.264 127.909 87.548 127.685 87.772C127.461 87.988 127.185 88.096 126.857 88.096ZM136.504 88.096C135.96 88.096 135.484 87.976 135.076 87.736C134.668 87.496 134.348 87.132 134.116 86.644C133.892 86.148 133.78 85.524 133.78 84.772C133.78 84.012 133.888 83.388 134.104 82.9C134.32 82.412 134.632 82.048 135.04 81.808C135.448 81.568 135.936 81.448 136.504 81.448C137.112 81.448 137.656 81.588 138.136 81.868C138.624 82.14 139.008 82.524 139.288 83.02C139.576 83.516 139.72 84.1 139.72 84.772C139.72 85.452 139.576 86.04 139.288 86.536C139.008 87.032 138.624 87.416 138.136 87.688C137.656 87.96 137.112 88.096 136.504 88.096ZM132.688 90.328V81.544H134.476V82.864L134.44 84.784L134.56 86.692V90.328H132.688ZM136.18 86.56C136.492 86.56 136.768 86.488 137.008 86.344C137.256 86.2 137.452 85.996 137.596 85.732C137.748 85.46 137.824 85.14 137.824 84.772C137.824 84.396 137.748 84.076 137.596 83.812C137.452 83.548 137.256 83.344 137.008 83.2C136.768 83.056 136.492 82.984 136.18 82.984C135.868 82.984 135.588 83.056 135.34 83.2C135.092 83.344 134.896 83.548 134.752 83.812C134.608 84.076 134.536 84.396 134.536 84.772C134.536 85.14 134.608 85.46 134.752 85.732C134.896 85.996 135.092 86.2 135.34 86.344C135.588 86.488 135.868 86.56 136.18 86.56ZM140.973 88V81.544H142.761V83.368L142.509 82.84C142.701 82.384 143.009 82.04 143.433 81.808C143.857 81.568 144.373 81.448 144.981 81.448V83.176C144.901 83.168 144.829 83.164 144.765 83.164C144.701 83.156 144.633 83.152 144.561 83.152C144.049 83.152 143.633 83.3 143.313 83.596C143.001 83.884 142.845 84.336 142.845 84.952V88H140.973ZM149.252 88.096C148.516 88.096 147.868 87.952 147.308 87.664C146.756 87.376 146.328 86.984 146.024 86.488C145.72 85.984 145.568 85.412 145.568 84.772C145.568 84.124 145.716 83.552 146.012 83.056C146.316 82.552 146.728 82.16 147.248 81.88C147.768 81.592 148.356 81.448 149.012 81.448C149.644 81.448 150.212 81.584 150.716 81.856C151.228 82.12 151.632 82.504 151.928 83.008C152.224 83.504 152.372 84.1 152.372 84.796C152.372 84.868 152.368 84.952 152.36 85.048C152.352 85.136 152.344 85.22 152.336 85.3H147.092V84.208H151.352L150.632 84.532C150.632 84.196 150.564 83.904 150.428 83.656C150.292 83.408 150.104 83.216 149.864 83.08C149.624 82.936 149.344 82.864 149.024 82.864C148.704 82.864 148.42 82.936 148.172 83.08C147.932 83.216 147.744 83.412 147.608 83.668C147.472 83.916 147.404 84.212 147.404 84.556V84.844C147.404 85.196 147.48 85.508 147.632 85.78C147.792 86.044 148.012 86.248 148.292 86.392C148.58 86.528 148.916 86.596 149.3 86.596C149.644 86.596 149.944 86.544 150.2 86.44C150.464 86.336 150.704 86.18 150.92 85.972L151.916 87.052C151.62 87.388 151.248 87.648 150.8 87.832C150.352 88.008 149.836 88.096 149.252 88.096ZM155.79 88.096C155.238 88.096 154.706 88.032 154.194 87.904C153.69 87.768 153.29 87.6 152.994 87.4L153.618 86.056C153.914 86.24 154.262 86.392 154.662 86.512C155.07 86.624 155.47 86.68 155.862 86.68C156.294 86.68 156.598 86.628 156.774 86.524C156.958 86.42 157.05 86.276 157.05 86.092C157.05 85.94 156.978 85.828 156.834 85.756C156.698 85.676 156.514 85.616 156.282 85.576C156.05 85.536 155.794 85.496 155.514 85.456C155.242 85.416 154.966 85.364 154.686 85.3C154.406 85.228 154.15 85.124 153.918 84.988C153.686 84.852 153.498 84.668 153.354 84.436C153.218 84.204 153.15 83.904 153.15 83.536C153.15 83.128 153.266 82.768 153.498 82.456C153.738 82.144 154.082 81.9 154.53 81.724C154.978 81.54 155.514 81.448 156.138 81.448C156.578 81.448 157.026 81.496 157.482 81.592C157.938 81.688 158.318 81.828 158.622 82.012L157.998 83.344C157.686 83.16 157.37 83.036 157.05 82.972C156.738 82.9 156.434 82.864 156.138 82.864C155.722 82.864 155.418 82.92 155.226 83.032C155.034 83.144 154.938 83.288 154.938 83.464C154.938 83.624 155.006 83.744 155.142 83.824C155.286 83.904 155.474 83.968 155.706 84.016C155.938 84.064 156.19 84.108 156.462 84.148C156.742 84.18 157.022 84.232 157.302 84.304C157.582 84.376 157.834 84.48 158.058 84.616C158.29 84.744 158.478 84.924 158.622 85.156C158.766 85.38 158.838 85.676 158.838 86.044C158.838 86.444 158.718 86.8 158.478 87.112C158.238 87.416 157.89 87.656 157.434 87.832C156.986 88.008 156.438 88.096 155.79 88.096ZM162.165 88.096C161.613 88.096 161.081 88.032 160.569 87.904C160.065 87.768 159.665 87.6 159.369 87.4L159.993 86.056C160.289 86.24 160.637 86.392 161.037 86.512C161.445 86.624 161.845 86.68 162.237 86.68C162.669 86.68 162.973 86.628 163.149 86.524C163.333 86.42 163.425 86.276 163.425 86.092C163.425 85.94 163.353 85.828 163.209 85.756C163.073 85.676 162.889 85.616 162.657 85.576C162.425 85.536 162.169 85.496 161.889 85.456C161.617 85.416 161.341 85.364 161.061 85.3C160.781 85.228 160.525 85.124 160.293 84.988C160.061 84.852 159.873 84.668 159.729 84.436C159.593 84.204 159.525 83.904 159.525 83.536C159.525 83.128 159.641 82.768 159.873 82.456C160.113 82.144 160.457 81.9 160.905 81.724C161.353 81.54 161.889 81.448 162.513 81.448C162.953 81.448 163.401 81.496 163.857 81.592C164.313 81.688 164.693 81.828 164.997 82.012L164.373 83.344C164.061 83.16 163.745 83.036 163.425 82.972C163.113 82.9 162.809 82.864 162.513 82.864C162.097 82.864 161.793 82.92 161.601 83.032C161.409 83.144 161.313 83.288 161.313 83.464C161.313 83.624 161.381 83.744 161.517 83.824C161.661 83.904 161.849 83.968 162.081 84.016C162.313 84.064 162.565 84.108 162.837 84.148C163.117 84.18 163.397 84.232 163.677 84.304C163.957 84.376 164.209 84.48 164.433 84.616C164.665 84.744 164.853 84.924 164.997 85.156C165.141 85.38 165.213 85.676 165.213 86.044C165.213 86.444 165.093 86.8 164.853 87.112C164.613 87.416 164.265 87.656 163.809 87.832C163.361 88.008 162.813 88.096 162.165 88.096ZM166.368 88V81.544H168.24V88H166.368ZM167.304 80.644C166.96 80.644 166.68 80.544 166.464 80.344C166.248 80.144 166.14 79.896 166.14 79.6C166.14 79.304 166.248 79.056 166.464 78.856C166.68 78.656 166.96 78.556 167.304 78.556C167.648 78.556 167.928 78.652 168.144 78.844C168.36 79.028 168.468 79.268 168.468 79.564C168.468 79.876 168.36 80.136 168.144 80.344C167.936 80.544 167.656 80.644 167.304 80.644ZM173.049 88.096C172.361 88.096 171.749 87.952 171.213 87.664C170.685 87.376 170.265 86.984 169.953 86.488C169.649 85.984 169.497 85.412 169.497 84.772C169.497 84.124 169.649 83.552 169.953 83.056C170.265 82.552 170.685 82.16 171.213 81.88C171.749 81.592 172.361 81.448 173.049 81.448C173.729 81.448 174.337 81.592 174.873 81.88C175.409 82.16 175.829 82.548 176.133 83.044C176.437 83.54 176.589 84.116 176.589 84.772C176.589 85.412 176.437 85.984 176.133 86.488C175.829 86.984 175.409 87.376 174.873 87.664C174.337 87.952 173.729 88.096 173.049 88.096ZM173.049 86.56C173.361 86.56 173.641 86.488 173.889 86.344C174.137 86.2 174.333 85.996 174.477 85.732C174.621 85.46 174.693 85.14 174.693 84.772C174.693 84.396 174.621 84.076 174.477 83.812C174.333 83.548 174.137 83.344 173.889 83.2C173.641 83.056 173.361 82.984 173.049 82.984C172.737 82.984 172.457 83.056 172.209 83.2C171.961 83.344 171.761 83.548 171.609 83.812C171.465 84.076 171.393 84.396 171.393 84.772C171.393 85.14 171.465 85.46 171.609 85.732C171.761 85.996 171.961 86.2 172.209 86.344C172.457 86.488 172.737 86.56 173.049 86.56ZM181.765 81.448C182.277 81.448 182.733 81.552 183.133 81.76C183.541 81.96 183.861 82.272 184.093 82.696C184.325 83.112 184.441 83.648 184.441 84.304V88H182.569V84.592C182.569 84.072 182.453 83.688 182.221 83.44C181.997 83.192 181.677 83.068 181.261 83.068C180.965 83.068 180.697 83.132 180.457 83.26C180.225 83.38 180.041 83.568 179.905 83.824C179.777 84.08 179.713 84.408 179.713 84.808V88H177.841V81.544H179.629V83.332L179.293 82.792C179.525 82.36 179.857 82.028 180.289 81.796C180.721 81.564 181.213 81.448 181.765 81.448ZM189.388 88.096C188.652 88.096 188.004 87.952 187.444 87.664C186.892 87.376 186.464 86.984 186.16 86.488C185.856 85.984 185.704 85.412 185.704 84.772C185.704 84.124 185.852 83.552 186.148 83.056C186.452 82.552 186.864 82.16 187.384 81.88C187.904 81.592 188.492 81.448 189.148 81.448C189.78 81.448 190.348 81.584 190.852 81.856C191.364 82.12 191.768 82.504 192.064 83.008C192.36 83.504 192.508 84.1 192.508 84.796C192.508 84.868 192.504 84.952 192.496 85.048C192.488 85.136 192.48 85.22 192.472 85.3H187.228V84.208H191.488L190.768 84.532C190.768 84.196 190.7 83.904 190.564 83.656C190.428 83.408 190.24 83.216 190 83.08C189.76 82.936 189.48 82.864 189.16 82.864C188.84 82.864 188.556 82.936 188.308 83.08C188.068 83.216 187.88 83.412 187.744 83.668C187.608 83.916 187.54 84.212 187.54 84.556V84.844C187.54 85.196 187.616 85.508 187.768 85.78C187.928 86.044 188.148 86.248 188.428 86.392C188.716 86.528 189.052 86.596 189.436 86.596C189.78 86.596 190.08 86.544 190.336 86.44C190.6 86.336 190.84 86.18 191.056 85.972L192.052 87.052C191.756 87.388 191.384 87.648 190.936 87.832C190.488 88.008 189.972 88.096 189.388 88.096ZM200.225 88.096C199.537 88.096 198.925 87.952 198.389 87.664C197.861 87.376 197.441 86.984 197.129 86.488C196.825 85.984 196.673 85.412 196.673 84.772C196.673 84.124 196.825 83.552 197.129 83.056C197.441 82.552 197.861 82.16 198.389 81.88C198.925 81.592 199.537 81.448 200.225 81.448C200.905 81.448 201.513 81.592 202.049 81.88C202.585 82.16 203.005 82.548 203.309 83.044C203.613 83.54 203.765 84.116 203.765 84.772C203.765 85.412 203.613 85.984 203.309 86.488C203.005 86.984 202.585 87.376 202.049 87.664C201.513 87.952 200.905 88.096 200.225 88.096ZM200.225 86.56C200.537 86.56 200.817 86.488 201.065 86.344C201.313 86.2 201.509 85.996 201.653 85.732C201.797 85.46 201.869 85.14 201.869 84.772C201.869 84.396 201.797 84.076 201.653 83.812C201.509 83.548 201.313 83.344 201.065 83.2C200.817 83.056 200.537 82.984 200.225 82.984C199.913 82.984 199.633 83.056 199.385 83.2C199.137 83.344 198.937 83.548 198.785 83.812C198.641 84.076 198.569 84.396 198.569 84.772C198.569 85.14 198.641 85.46 198.785 85.732C198.937 85.996 199.137 86.2 199.385 86.344C199.633 86.488 199.913 86.56 200.225 86.56ZM212.231 88.096C211.663 88.096 211.175 87.976 210.767 87.736C210.359 87.496 210.047 87.132 209.831 86.644C209.615 86.148 209.507 85.524 209.507 84.772C209.507 84.012 209.619 83.388 209.843 82.9C210.075 82.412 210.395 82.048 210.803 81.808C211.211 81.568 211.687 81.448 212.231 81.448C212.839 81.448 213.383 81.584 213.863 81.856C214.351 82.128 214.735 82.512 215.015 83.008C215.303 83.504 215.447 84.092 215.447 84.772C215.447 85.444 215.303 86.028 215.015 86.524C214.735 87.02 214.351 87.408 213.863 87.688C213.383 87.96 212.839 88.096 212.231 88.096ZM208.415 88V79.096H210.287V82.852L210.167 84.76L210.203 86.68V88H208.415ZM211.907 86.56C212.219 86.56 212.495 86.488 212.735 86.344C212.983 86.2 213.179 85.996 213.323 85.732C213.475 85.46 213.551 85.14 213.551 84.772C213.551 84.396 213.475 84.076 213.323 83.812C213.179 83.548 212.983 83.344 212.735 83.2C212.495 83.056 212.219 82.984 211.907 82.984C211.595 82.984 211.315 83.056 211.067 83.2C210.819 83.344 210.623 83.548 210.479 83.812C210.335 84.076 210.263 84.396 210.263 84.772C210.263 85.14 210.335 85.46 210.479 85.732C210.623 85.996 210.819 86.2 211.067 86.344C211.315 86.488 211.595 86.56 211.907 86.56ZM219.772 88.096C219.084 88.096 218.472 87.952 217.936 87.664C217.408 87.376 216.988 86.984 216.676 86.488C216.372 85.984 216.22 85.412 216.22 84.772C216.22 84.124 216.372 83.552 216.676 83.056C216.988 82.552 217.408 82.16 217.936 81.88C218.472 81.592 219.084 81.448 219.772 81.448C220.452 81.448 221.06 81.592 221.596 81.88C222.132 82.16 222.552 82.548 222.856 83.044C223.16 83.54 223.312 84.116 223.312 84.772C223.312 85.412 223.16 85.984 222.856 86.488C222.552 86.984 222.132 87.376 221.596 87.664C221.06 87.952 220.452 88.096 219.772 88.096ZM219.772 86.56C220.084 86.56 220.364 86.488 220.612 86.344C220.86 86.2 221.056 85.996 221.2 85.732C221.344 85.46 221.416 85.14 221.416 84.772C221.416 84.396 221.344 84.076 221.2 83.812C221.056 83.548 220.86 83.344 220.612 83.2C220.364 83.056 220.084 82.984 219.772 82.984C219.46 82.984 219.18 83.056 218.932 83.2C218.684 83.344 218.484 83.548 218.332 83.812C218.188 84.076 218.116 84.396 218.116 84.772C218.116 85.14 218.188 85.46 218.332 85.732C218.484 85.996 218.684 86.2 218.932 86.344C219.18 86.488 219.46 86.56 219.772 86.56ZM227.203 88.096C226.443 88.096 225.851 87.904 225.427 87.52C225.003 87.128 224.791 86.548 224.791 85.78V80.116H226.663V85.756C226.663 86.028 226.735 86.24 226.879 86.392C227.023 86.536 227.219 86.608 227.467 86.608C227.763 86.608 228.015 86.528 228.223 86.368L228.727 87.688C228.535 87.824 228.303 87.928 228.031 88C227.767 88.064 227.491 88.096 227.203 88.096ZM223.795 83.128V81.688H228.271V83.128H223.795ZM233.738 88V86.74L233.618 86.464V84.208C233.618 83.808 233.494 83.496 233.246 83.272C233.006 83.048 232.634 82.936 232.13 82.936C231.786 82.936 231.446 82.992 231.11 83.104C230.782 83.208 230.502 83.352 230.27 83.536L229.598 82.228C229.95 81.98 230.374 81.788 230.87 81.652C231.366 81.516 231.87 81.448 232.382 81.448C233.366 81.448 234.13 81.68 234.674 82.144C235.218 82.608 235.49 83.332 235.49 84.316V88H233.738ZM231.77 88.096C231.266 88.096 230.834 88.012 230.474 87.844C230.114 87.668 229.838 87.432 229.646 87.136C229.454 86.84 229.358 86.508 229.358 86.14C229.358 85.756 229.45 85.42 229.634 85.132C229.826 84.844 230.126 84.62 230.534 84.46C230.942 84.292 231.474 84.208 232.13 84.208H233.846V85.3H232.334C231.894 85.3 231.59 85.372 231.422 85.516C231.262 85.66 231.182 85.84 231.182 86.056C231.182 86.296 231.274 86.488 231.458 86.632C231.65 86.768 231.91 86.836 232.238 86.836C232.55 86.836 232.83 86.764 233.078 86.62C233.326 86.468 233.506 86.248 233.618 85.96L233.906 86.824C233.77 87.24 233.522 87.556 233.162 87.772C232.802 87.988 232.338 88.096 231.77 88.096ZM233.474 80.752C233.266 80.752 233.082 80.716 232.922 80.644C232.762 80.564 232.618 80.476 232.49 80.38C232.362 80.276 232.242 80.188 232.13 80.116C232.018 80.036 231.906 79.996 231.794 79.996C231.634 79.996 231.502 80.056 231.398 80.176C231.294 80.288 231.234 80.452 231.218 80.668H230.27C230.286 80.132 230.418 79.708 230.666 79.396C230.914 79.076 231.25 78.916 231.674 78.916C231.882 78.916 232.066 78.956 232.226 79.036C232.386 79.108 232.53 79.196 232.658 79.3C232.794 79.404 232.918 79.496 233.03 79.576C233.142 79.648 233.25 79.684 233.354 79.684C233.522 79.684 233.658 79.628 233.762 79.516C233.866 79.396 233.922 79.236 233.93 79.036H234.878C234.87 79.548 234.738 79.964 234.482 80.284C234.234 80.596 233.898 80.752 233.474 80.752ZM240.303 88.096C239.615 88.096 239.003 87.952 238.467 87.664C237.939 87.376 237.519 86.984 237.207 86.488C236.903 85.984 236.751 85.412 236.751 84.772C236.751 84.124 236.903 83.552 237.207 83.056C237.519 82.552 237.939 82.16 238.467 81.88C239.003 81.592 239.615 81.448 240.303 81.448C240.983 81.448 241.591 81.592 242.127 81.88C242.663 82.16 243.083 82.548 243.387 83.044C243.691 83.54 243.843 84.116 243.843 84.772C243.843 85.412 243.691 85.984 243.387 86.488C243.083 86.984 242.663 87.376 242.127 87.664C241.591 87.952 240.983 88.096 240.303 88.096ZM240.303 86.56C240.615 86.56 240.895 86.488 241.143 86.344C241.391 86.2 241.587 85.996 241.731 85.732C241.875 85.46 241.947 85.14 241.947 84.772C241.947 84.396 241.875 84.076 241.731 83.812C241.587 83.548 241.391 83.344 241.143 83.2C240.895 83.056 240.615 82.984 240.303 82.984C239.991 82.984 239.711 83.056 239.463 83.2C239.215 83.344 239.015 83.548 238.863 83.812C238.719 84.076 238.647 84.396 238.647 84.772C238.647 85.14 238.719 85.46 238.863 85.732C239.015 85.996 239.215 86.2 239.463 86.344C239.711 86.488 239.991 86.56 240.303 86.56ZM248.625 88V79.6H250.569V88H248.625ZM256.354 81.448C256.866 81.448 257.322 81.552 257.722 81.76C258.13 81.96 258.45 82.272 258.682 82.696C258.914 83.112 259.03 83.648 259.03 84.304V88H257.158V84.592C257.158 84.072 257.042 83.688 256.81 83.44C256.586 83.192 256.266 83.068 255.85 83.068C255.554 83.068 255.286 83.132 255.046 83.26C254.814 83.38 254.63 83.568 254.494 83.824C254.366 84.08 254.302 84.408 254.302 84.808V88H252.43V81.544H254.218V83.332L253.882 82.792C254.114 82.36 254.446 82.028 254.878 81.796C255.31 81.564 255.802 81.448 256.354 81.448ZM260.727 88V81.544H262.599V88H260.727ZM261.663 80.644C261.319 80.644 261.039 80.544 260.823 80.344C260.607 80.144 260.499 79.896 260.499 79.6C260.499 79.304 260.607 79.056 260.823 78.856C261.039 78.656 261.319 78.556 261.663 78.556C262.007 78.556 262.287 78.652 262.503 78.844C262.719 79.028 262.827 79.268 262.827 79.564C262.827 79.876 262.719 80.136 262.503 80.344C262.295 80.544 262.015 80.644 261.663 80.644ZM267.457 88.096C266.761 88.096 266.141 87.956 265.597 87.676C265.053 87.388 264.625 86.992 264.313 86.488C264.009 85.984 263.857 85.412 263.857 84.772C263.857 84.124 264.009 83.552 264.313 83.056C264.625 82.552 265.053 82.16 265.597 81.88C266.141 81.592 266.761 81.448 267.457 81.448C268.137 81.448 268.729 81.592 269.233 81.88C269.737 82.16 270.109 82.564 270.349 83.092L268.897 83.872C268.729 83.568 268.517 83.344 268.261 83.2C268.013 83.056 267.741 82.984 267.445 82.984C267.125 82.984 266.837 83.056 266.581 83.2C266.325 83.344 266.121 83.548 265.969 83.812C265.825 84.076 265.753 84.396 265.753 84.772C265.753 85.148 265.825 85.468 265.969 85.732C266.121 85.996 266.325 86.2 266.581 86.344C266.837 86.488 267.125 86.56 267.445 86.56C267.741 86.56 268.013 86.492 268.261 86.356C268.517 86.212 268.729 85.984 268.897 85.672L270.349 86.464C270.109 86.984 269.737 87.388 269.233 87.676C268.729 87.956 268.137 88.096 267.457 88.096ZM271.391 88V81.544H273.263V88H271.391ZM272.327 80.644C271.983 80.644 271.703 80.544 271.487 80.344C271.271 80.144 271.163 79.896 271.163 79.6C271.163 79.304 271.271 79.056 271.487 78.856C271.703 78.656 271.983 78.556 272.327 78.556C272.671 78.556 272.951 78.652 273.167 78.844C273.383 79.028 273.491 79.268 273.491 79.564C273.491 79.876 273.383 80.136 273.167 80.344C272.959 80.544 272.679 80.644 272.327 80.644ZM278.961 88V86.74L278.841 86.464V84.208C278.841 83.808 278.717 83.496 278.469 83.272C278.229 83.048 277.857 82.936 277.353 82.936C277.009 82.936 276.669 82.992 276.333 83.104C276.005 83.208 275.725 83.352 275.493 83.536L274.821 82.228C275.173 81.98 275.597 81.788 276.093 81.652C276.589 81.516 277.093 81.448 277.605 81.448C278.589 81.448 279.353 81.68 279.897 82.144C280.441 82.608 280.713 83.332 280.713 84.316V88H278.961ZM276.993 88.096C276.489 88.096 276.057 88.012 275.697 87.844C275.337 87.668 275.061 87.432 274.869 87.136C274.677 86.84 274.581 86.508 274.581 86.14C274.581 85.756 274.673 85.42 274.857 85.132C275.049 84.844 275.349 84.62 275.757 84.46C276.165 84.292 276.697 84.208 277.353 84.208H279.069V85.3H277.557C277.117 85.3 276.813 85.372 276.645 85.516C276.485 85.66 276.405 85.84 276.405 86.056C276.405 86.296 276.497 86.488 276.681 86.632C276.873 86.768 277.133 86.836 277.461 86.836C277.773 86.836 278.053 86.764 278.301 86.62C278.549 86.468 278.729 86.248 278.841 85.96L279.129 86.824C278.993 87.24 278.745 87.556 278.385 87.772C278.025 87.988 277.561 88.096 276.993 88.096ZM282.407 88V81.544H284.195V83.368L283.943 82.84C284.135 82.384 284.443 82.04 284.867 81.808C285.291 81.568 285.807 81.448 286.415 81.448V83.176C286.335 83.168 286.263 83.164 286.199 83.164C286.135 83.156 286.067 83.152 285.995 83.152C285.483 83.152 285.067 83.3 284.747 83.596C284.435 83.884 284.279 84.336 284.279 84.952V88H282.407ZM288.166 88.096C287.846 88.096 287.57 87.988 287.338 87.772C287.114 87.548 287.002 87.264 287.002 86.92C287.002 86.576 287.114 86.3 287.338 86.092C287.57 85.876 287.846 85.768 288.166 85.768C288.494 85.768 288.77 85.876 288.994 86.092C289.218 86.3 289.33 86.576 289.33 86.92C289.33 87.264 289.218 87.548 288.994 87.772C288.77 87.988 288.494 88.096 288.166 88.096Z" fill="#333333"/>
</g>
<defs>
<filter id="filter0_d_10_3495" x="0" y="0" width="380" height="224" filterUnits="userSpaceOnUse" color-interpolation-filters="sRGB">
<feFlood flood-opacity="0" result="BackgroundImageFix"/>
<feColorMatrix in="SourceAlpha" type="matrix" values="0 0 0 0 0 0 0 0 0 0 0 0 0 0 0 0 0 0 127 0" result="hardAlpha"/>
<feOffset dy="4"/>
<feColorMatrix type="matrix" values="0 0 0 0 0 0 0 0 0 0 0 0 0 0 0 0 0 0 0.25 0"/>
<feBlend mode="normal" in2="BackgroundImageFix" result="effect1_dropShadow_10_3495"/>
<feBlend mode="normal" in="SourceGraphic" in2="effect1_dropShadow_10_3495" result="shape"/>
</filter>
</defs>
</svg>
