<svg width="380" height="224" viewBox="0 0 380 224" fill="none" xmlns="http://www.w3.org/2000/svg">
<g filter="url(#filter0_d_10_3233)">
<rect width="380" height="220" rx="20" fill="#F2F2F2"/>
<path fill-rule="evenodd" clip-rule="evenodd" d="M315 99.9846C315 88.9995 306 79.9922 295 79.9922C233.172 79.9922 208 79.9995 208 79.9995L200 87.9996H163L154 79.9993H119.147C108.147 79.9993 99.1467 88.9995 99.1467 99.9919C99.1467 99.9992 99.1467 100.007 99.1467 100.014C99.1467 111 108.147 120 119.147 120C135.71 120 154 120 154 120L163 128H200L208 120H295.147C306 120 315 111 315 100.007C315 99.9995 315 100.5 315 99.9846Z" fill="#30DCFF"/>
<path fill-rule="evenodd" clip-rule="evenodd" d="M315 99.9888C315 89 306 80 294.853 80C233.025 80 208 80.0001 208 80.0001L200 88H163L154 80.0001H119C108 80.0001 99 89.0001 99 99.9888C99 99.9962 99 100 99 100H104C104 90 111 85.0001 119 85.0001C133.664 85.0001 152 85 152 85L161 93H202L210 85H295C304 85 310 91 310 99.9998L315 100V99.9888Z" fill="white" fill-opacity="0.5"/>
<path fill-rule="evenodd" clip-rule="evenodd" d="M315 100L310 100C310 108.971 304.197 115 295 115C237.995 115 206 115 206 115L198 123H165L156 115H119C108.496 115 104 109 104 100.001L99 100V100.011C99 111 108 120 119 120C135.563 120 154 120 154 120L163 128H200L208 120H295C306 120 315 111 315 100Z" fill="black" fill-opacity="0.25"/>
<path d="M112.612 108L108.94 99.6H110.632L113.908 107.196H112.936L116.248 99.6H117.808L114.148 108H112.612ZM121.082 108.084C120.37 108.084 119.746 107.944 119.21 107.664C118.682 107.376 118.27 106.984 117.974 106.488C117.686 105.992 117.542 105.428 117.542 104.796C117.542 104.156 117.682 103.592 117.962 103.104C118.25 102.608 118.642 102.22 119.138 101.94C119.642 101.66 120.214 101.52 120.854 101.52C121.478 101.52 122.034 101.656 122.522 101.928C123.01 102.2 123.394 102.584 123.674 103.08C123.954 103.576 124.094 104.16 124.094 104.832C124.094 104.896 124.09 104.968 124.082 105.048C124.082 105.128 124.078 105.204 124.07 105.276H118.73V104.28H123.278L122.69 104.592C122.698 104.224 122.622 103.9 122.462 103.62C122.302 103.34 122.082 103.12 121.802 102.96C121.53 102.8 121.214 102.72 120.854 102.72C120.486 102.72 120.162 102.8 119.882 102.96C119.61 103.12 119.394 103.344 119.234 103.632C119.082 103.912 119.006 104.244 119.006 104.628V104.868C119.006 105.252 119.094 105.592 119.27 105.888C119.446 106.184 119.694 106.412 120.014 106.572C120.334 106.732 120.702 106.812 121.118 106.812C121.478 106.812 121.802 106.756 122.09 106.644C122.378 106.532 122.634 106.356 122.858 106.116L123.662 107.04C123.374 107.376 123.01 107.636 122.57 107.82C122.138 107.996 121.642 108.084 121.082 108.084ZM125.535 108V101.592H126.963V103.356L126.795 102.84C126.987 102.408 127.287 102.08 127.695 101.856C128.111 101.632 128.627 101.52 129.243 101.52V102.948C129.179 102.932 129.119 102.924 129.063 102.924C129.007 102.916 128.951 102.912 128.895 102.912C128.327 102.912 127.875 103.08 127.539 103.416C127.203 103.744 127.035 104.236 127.035 104.892V108H125.535ZM130.515 108V101.592H132.015V108H130.515ZM131.271 100.536C130.991 100.536 130.759 100.448 130.575 100.272C130.399 100.096 130.311 99.884 130.311 99.636C130.311 99.38 130.399 99.168 130.575 99C130.759 98.824 130.991 98.736 131.271 98.736C131.551 98.736 131.779 98.82 131.955 98.988C132.139 99.148 132.231 99.352 132.231 99.6C132.231 99.864 132.143 100.088 131.967 100.272C131.791 100.448 131.559 100.536 131.271 100.536ZM134.188 108V101.232C134.188 100.56 134.384 100.024 134.776 99.624C135.176 99.216 135.744 99.012 136.48 99.012C136.744 99.012 136.992 99.04 137.224 99.096C137.464 99.152 137.664 99.24 137.824 99.36L137.416 100.488C137.304 100.4 137.176 100.336 137.032 100.296C136.888 100.248 136.74 100.224 136.588 100.224C136.276 100.224 136.04 100.312 135.88 100.488C135.72 100.656 135.64 100.912 135.64 101.256V101.976L135.688 102.648V108H134.188ZM133.132 102.84V101.64H137.404V102.84H133.132ZM138.46 108V101.592H139.96V108H138.46ZM139.216 100.536C138.936 100.536 138.704 100.448 138.52 100.272C138.344 100.096 138.256 99.884 138.256 99.636C138.256 99.38 138.344 99.168 138.52 99C138.704 98.824 138.936 98.736 139.216 98.736C139.496 98.736 139.724 98.82 139.9 98.988C140.084 99.148 140.176 99.352 140.176 99.6C140.176 99.864 140.088 100.088 139.912 100.272C139.736 100.448 139.504 100.536 139.216 100.536ZM144.869 108.084C144.197 108.084 143.597 107.944 143.069 107.664C142.549 107.376 142.141 106.984 141.845 106.488C141.549 105.992 141.401 105.428 141.401 104.796C141.401 104.156 141.549 103.592 141.845 103.104C142.141 102.608 142.549 102.22 143.069 101.94C143.597 101.66 144.197 101.52 144.869 101.52C145.493 101.52 146.041 101.648 146.513 101.904C146.993 102.152 147.357 102.52 147.605 103.008L146.453 103.68C146.261 103.376 146.025 103.152 145.745 103.008C145.473 102.864 145.177 102.792 144.857 102.792C144.489 102.792 144.157 102.872 143.861 103.032C143.565 103.192 143.333 103.424 143.165 103.728C142.997 104.024 142.913 104.38 142.913 104.796C142.913 105.212 142.997 105.572 143.165 105.876C143.333 106.172 143.565 106.4 143.861 106.56C144.157 106.72 144.489 106.8 144.857 106.8C145.177 106.8 145.473 106.728 145.745 106.584C146.025 106.44 146.261 106.216 146.453 105.912L147.605 106.584C147.357 107.064 146.993 107.436 146.513 107.7C146.041 107.956 145.493 108.084 144.869 108.084ZM152.85 108V106.704L152.766 106.428V104.16C152.766 103.72 152.634 103.38 152.37 103.14C152.106 102.892 151.706 102.768 151.17 102.768C150.81 102.768 150.454 102.824 150.102 102.936C149.758 103.048 149.466 103.204 149.226 103.404L148.638 102.312C148.982 102.048 149.39 101.852 149.862 101.724C150.342 101.588 150.838 101.52 151.35 101.52C152.278 101.52 152.994 101.744 153.498 102.192C154.01 102.632 154.266 103.316 154.266 104.244V108H152.85ZM150.834 108.084C150.354 108.084 149.934 108.004 149.574 107.844C149.214 107.676 148.934 107.448 148.734 107.16C148.542 106.864 148.446 106.532 148.446 106.164C148.446 105.804 148.53 105.48 148.698 105.192C148.874 104.904 149.158 104.676 149.55 104.508C149.942 104.34 150.462 104.256 151.11 104.256H152.97V105.252H151.218C150.706 105.252 150.362 105.336 150.186 105.504C150.01 105.664 149.922 105.864 149.922 106.104C149.922 106.376 150.03 106.592 150.246 106.752C150.462 106.912 150.762 106.992 151.146 106.992C151.514 106.992 151.842 106.908 152.13 106.74C152.426 106.572 152.638 106.324 152.766 105.996L153.018 106.896C152.874 107.272 152.614 107.564 152.238 107.772C151.87 107.98 151.402 108.084 150.834 108.084ZM156.191 108V101.592H157.619V103.356L157.451 102.84C157.643 102.408 157.943 102.08 158.351 101.856C158.767 101.632 159.283 101.52 159.899 101.52V102.948C159.835 102.932 159.775 102.924 159.719 102.924C159.663 102.916 159.607 102.912 159.551 102.912C158.983 102.912 158.531 103.08 158.195 103.416C157.859 103.744 157.691 104.236 157.691 104.892V108H156.191ZM167.427 108.084C166.771 108.084 166.187 107.944 165.675 107.664C165.163 107.376 164.759 106.984 164.463 106.488C164.167 105.992 164.019 105.428 164.019 104.796C164.019 104.156 164.167 103.592 164.463 103.104C164.759 102.608 165.163 102.22 165.675 101.94C166.187 101.66 166.771 101.52 167.427 101.52C168.091 101.52 168.679 101.66 169.191 101.94C169.711 102.22 170.115 102.604 170.403 103.092C170.699 103.58 170.847 104.148 170.847 104.796C170.847 105.428 170.699 105.992 170.403 106.488C170.115 106.984 169.711 107.376 169.191 107.664C168.679 107.944 168.091 108.084 167.427 108.084ZM167.427 106.8C167.795 106.8 168.123 106.72 168.411 106.56C168.699 106.4 168.923 106.168 169.083 105.864C169.251 105.56 169.335 105.204 169.335 104.796C169.335 104.38 169.251 104.024 169.083 103.728C168.923 103.424 168.699 103.192 168.411 103.032C168.123 102.872 167.799 102.792 167.439 102.792C167.071 102.792 166.743 102.872 166.455 103.032C166.175 103.192 165.951 103.424 165.783 103.728C165.615 104.024 165.531 104.38 165.531 104.796C165.531 105.204 165.615 105.56 165.783 105.864C165.951 106.168 166.175 106.4 166.455 106.56C166.743 106.72 167.067 106.8 167.427 106.8ZM175.833 108.084C175.289 108.084 174.805 107.964 174.381 107.724C173.957 107.484 173.621 107.124 173.373 106.644C173.133 106.156 173.013 105.54 173.013 104.796C173.013 104.044 173.137 103.428 173.385 102.948C173.641 102.468 173.981 102.112 174.405 101.88C174.837 101.64 175.313 101.52 175.833 101.52C176.465 101.52 177.021 101.656 177.501 101.928C177.989 102.2 178.373 102.58 178.653 103.068C178.941 103.556 179.085 104.132 179.085 104.796C179.085 105.46 178.941 106.036 178.653 106.524C178.373 107.012 177.989 107.396 177.501 107.676C177.021 107.948 176.465 108.084 175.833 108.084ZM172.281 108V99.096H173.781V103.08L173.661 104.784L173.709 106.488V108H172.281ZM175.665 106.8C176.025 106.8 176.345 106.72 176.625 106.56C176.913 106.4 177.141 106.168 177.309 105.864C177.477 105.56 177.561 105.204 177.561 104.796C177.561 104.38 177.477 104.024 177.309 103.728C177.141 103.424 176.913 103.192 176.625 103.032C176.345 102.872 176.025 102.792 175.665 102.792C175.305 102.792 174.981 102.872 174.693 103.032C174.405 103.192 174.177 103.424 174.009 103.728C173.841 104.024 173.757 104.38 173.757 104.796C173.757 105.204 173.841 105.56 174.009 105.864C174.177 106.168 174.405 106.4 174.693 106.56C174.981 106.72 175.305 106.8 175.665 106.8ZM179.847 110.412C179.567 110.412 179.303 110.38 179.055 110.316C178.799 110.26 178.583 110.168 178.407 110.04L178.839 108.924C179.071 109.092 179.363 109.176 179.715 109.176C179.987 109.176 180.199 109.088 180.351 108.912C180.503 108.744 180.579 108.492 180.579 108.156V101.592H182.079V108.12C182.079 108.824 181.883 109.38 181.491 109.788C181.107 110.204 180.559 110.412 179.847 110.412ZM181.323 100.536C181.043 100.536 180.811 100.448 180.627 100.272C180.451 100.096 180.363 99.884 180.363 99.636C180.363 99.38 180.451 99.168 180.627 99C180.811 98.824 181.043 98.736 181.323 98.736C181.603 98.736 181.831 98.82 182.007 98.988C182.191 99.148 182.283 99.352 182.283 99.6C182.283 99.864 182.195 100.088 182.019 100.272C181.843 100.448 181.611 100.536 181.323 100.536ZM187.059 108.084C186.347 108.084 185.723 107.944 185.187 107.664C184.659 107.376 184.247 106.984 183.951 106.488C183.663 105.992 183.519 105.428 183.519 104.796C183.519 104.156 183.659 103.592 183.939 103.104C184.227 102.608 184.619 102.22 185.115 101.94C185.619 101.66 186.191 101.52 186.831 101.52C187.455 101.52 188.011 101.656 188.499 101.928C188.987 102.2 189.371 102.584 189.651 103.08C189.931 103.576 190.071 104.16 190.071 104.832C190.071 104.896 190.067 104.968 190.059 105.048C190.059 105.128 190.055 105.204 190.047 105.276H184.707V104.28H189.255L188.667 104.592C188.675 104.224 188.599 103.9 188.439 103.62C188.279 103.34 188.059 103.12 187.779 102.96C187.507 102.8 187.191 102.72 186.831 102.72C186.463 102.72 186.139 102.8 185.859 102.96C185.587 103.12 185.371 103.344 185.211 103.632C185.059 103.912 184.983 104.244 184.983 104.628V104.868C184.983 105.252 185.071 105.592 185.247 105.888C185.423 106.184 185.671 106.412 185.991 106.572C186.311 106.732 186.679 106.812 187.095 106.812C187.455 106.812 187.779 106.756 188.067 106.644C188.355 106.532 188.611 106.356 188.835 106.116L189.639 107.04C189.351 107.376 188.987 107.636 188.547 107.82C188.115 107.996 187.619 108.084 187.059 108.084ZM193.923 108.084C193.219 108.084 192.675 107.904 192.291 107.544C191.907 107.176 191.715 106.636 191.715 105.924V100.176H193.215V105.888C193.215 106.192 193.291 106.428 193.443 106.596C193.603 106.764 193.823 106.848 194.103 106.848C194.439 106.848 194.719 106.76 194.943 106.584L195.363 107.652C195.187 107.796 194.971 107.904 194.715 107.976C194.459 108.048 194.195 108.084 193.923 108.084ZM190.659 102.84V101.64H194.931V102.84H190.659ZM199.266 108.084C198.61 108.084 198.026 107.944 197.514 107.664C197.002 107.376 196.598 106.984 196.302 106.488C196.006 105.992 195.858 105.428 195.858 104.796C195.858 104.156 196.006 103.592 196.302 103.104C196.598 102.608 197.002 102.22 197.514 101.94C198.026 101.66 198.61 101.52 199.266 101.52C199.93 101.52 200.518 101.66 201.03 101.94C201.55 102.22 201.954 102.604 202.242 103.092C202.538 103.58 202.686 104.148 202.686 104.796C202.686 105.428 202.538 105.992 202.242 106.488C201.954 106.984 201.55 107.376 201.03 107.664C200.518 107.944 199.93 108.084 199.266 108.084ZM199.266 106.8C199.634 106.8 199.962 106.72 200.25 106.56C200.538 106.4 200.762 106.168 200.922 105.864C201.09 105.56 201.174 105.204 201.174 104.796C201.174 104.38 201.09 104.024 200.922 103.728C200.762 103.424 200.538 103.192 200.25 103.032C199.962 102.872 199.638 102.792 199.278 102.792C198.91 102.792 198.582 102.872 198.294 103.032C198.014 103.192 197.79 103.424 197.622 103.728C197.454 104.024 197.37 104.38 197.37 104.796C197.37 105.204 197.454 105.56 197.622 105.864C197.79 106.168 198.014 106.4 198.294 106.56C198.582 106.72 198.906 106.8 199.266 106.8Z" fill="#333333"/>
<path fill-rule="evenodd" clip-rule="evenodd" d="M315 138.985C315 128 306 118.992 295 118.992C233.172 118.992 208 119 208 119L200 127H163L154 118.999H119.147C108.147 118.999 99.1467 128 99.1467 138.992C99.1467 138.999 99.1467 139.007 99.1467 139.014C99.1467 150 108.147 159 119.147 159C135.71 159 154 159 154 159L163 167H200L208 159H295.147C306 159 315 150 315 139.007C315 139 315 139.5 315 138.985Z" fill="#30DCFF"/>
<path fill-rule="evenodd" clip-rule="evenodd" d="M315 138.989C315 128 306 119 294.853 119C233.025 119 208 119 208 119L200 127H163L154 119H119C108 119 99 128 99 138.989C99 138.996 99 139 99 139H104C104 129 111 124 119 124C133.664 124 152 124 152 124L161 132H202L210 124H295C304 124 310 130 310 139L315 139V138.989Z" fill="white" fill-opacity="0.5"/>
<path fill-rule="evenodd" clip-rule="evenodd" d="M315 139L310 139C310 147.971 304.197 154 295 154C237.995 154 206 154 206 154L198 162H165L156 154H119C108.496 154 104 148 104 139.001L99 139V139.011C99 150 108 159 119 159C135.563 159 154 159 154 159L163 167H200L208 159H295C306 159 315 150 315 139Z" fill="black" fill-opacity="0.25"/>
<path d="M117.732 147.12C117.076 147.12 116.448 147.028 115.848 146.844C115.248 146.652 114.772 146.408 114.42 146.112L114.96 144.9C115.296 145.164 115.712 145.384 116.208 145.56C116.704 145.736 117.212 145.824 117.732 145.824C118.172 145.824 118.528 145.776 118.8 145.68C119.072 145.584 119.272 145.456 119.4 145.296C119.528 145.128 119.592 144.94 119.592 144.732C119.592 144.476 119.5 144.272 119.316 144.12C119.132 143.96 118.892 143.836 118.596 143.748C118.308 143.652 117.984 143.564 117.624 143.484C117.272 143.404 116.916 143.312 116.556 143.208C116.204 143.096 115.88 142.956 115.584 142.788C115.296 142.612 115.06 142.38 114.876 142.092C114.692 141.804 114.6 141.436 114.6 140.988C114.6 140.532 114.72 140.116 114.96 139.74C115.208 139.356 115.58 139.052 116.076 138.828C116.58 138.596 117.216 138.48 117.984 138.48C118.488 138.48 118.988 138.544 119.484 138.672C119.98 138.8 120.412 138.984 120.78 139.224L120.288 140.436C119.912 140.212 119.524 140.048 119.124 139.944C118.724 139.832 118.34 139.776 117.972 139.776C117.54 139.776 117.188 139.828 116.916 139.932C116.652 140.036 116.456 140.172 116.328 140.34C116.208 140.508 116.148 140.7 116.148 140.916C116.148 141.172 116.236 141.38 116.412 141.54C116.596 141.692 116.832 141.812 117.12 141.9C117.416 141.988 117.744 142.076 118.104 142.164C118.464 142.244 118.82 142.336 119.172 142.44C119.532 142.544 119.856 142.68 120.144 142.848C120.44 143.016 120.676 143.244 120.852 143.532C121.036 143.82 121.128 144.184 121.128 144.624C121.128 145.072 121.004 145.488 120.756 145.872C120.516 146.248 120.144 146.552 119.64 146.784C119.136 147.008 118.5 147.12 117.732 147.12ZM122.531 147V140.592H124.031V147H122.531ZM123.287 139.536C123.007 139.536 122.775 139.448 122.591 139.272C122.415 139.096 122.327 138.884 122.327 138.636C122.327 138.38 122.415 138.168 122.591 138C122.775 137.824 123.007 137.736 123.287 137.736C123.567 137.736 123.795 137.82 123.971 137.988C124.155 138.148 124.247 138.352 124.247 138.6C124.247 138.864 124.159 139.088 123.983 139.272C123.807 139.448 123.575 139.536 123.287 139.536ZM134.088 140.52C134.6 140.52 135.052 140.62 135.444 140.82C135.844 141.02 136.156 141.328 136.38 141.744C136.604 142.152 136.716 142.68 136.716 143.328V147H135.216V143.52C135.216 142.952 135.092 142.528 134.844 142.248C134.596 141.968 134.24 141.828 133.776 141.828C133.448 141.828 133.156 141.9 132.9 142.044C132.652 142.188 132.456 142.4 132.312 142.68C132.176 142.96 132.108 143.316 132.108 143.748V147H130.608V143.52C130.608 142.952 130.484 142.528 130.236 142.248C129.988 141.968 129.632 141.828 129.168 141.828C128.84 141.828 128.548 141.9 128.292 142.044C128.044 142.188 127.848 142.4 127.704 142.68C127.568 142.96 127.5 143.316 127.5 143.748V147H126V140.592H127.428V142.296L127.176 141.792C127.392 141.376 127.704 141.06 128.112 140.844C128.528 140.628 129 140.52 129.528 140.52C130.128 140.52 130.648 140.668 131.088 140.964C131.536 141.26 131.832 141.708 131.976 142.308L131.388 142.104C131.596 141.624 131.94 141.24 132.42 140.952C132.9 140.664 133.456 140.52 134.088 140.52ZM144.961 147.084C144.249 147.084 143.625 146.944 143.089 146.664C142.561 146.376 142.149 145.984 141.853 145.488C141.565 144.992 141.421 144.428 141.421 143.796C141.421 143.156 141.561 142.592 141.841 142.104C142.129 141.608 142.521 141.22 143.017 140.94C143.521 140.66 144.093 140.52 144.733 140.52C145.357 140.52 145.913 140.656 146.401 140.928C146.889 141.2 147.273 141.584 147.553 142.08C147.833 142.576 147.973 143.16 147.973 143.832C147.973 143.896 147.969 143.968 147.961 144.048C147.961 144.128 147.957 144.204 147.949 144.276H142.609V143.28H147.157L146.569 143.592C146.577 143.224 146.501 142.9 146.341 142.62C146.181 142.34 145.961 142.12 145.681 141.96C145.409 141.8 145.093 141.72 144.733 141.72C144.365 141.72 144.041 141.8 143.761 141.96C143.489 142.12 143.273 142.344 143.113 142.632C142.961 142.912 142.885 143.244 142.885 143.628V143.868C142.885 144.252 142.973 144.592 143.149 144.888C143.325 145.184 143.573 145.412 143.893 145.572C144.213 145.732 144.581 145.812 144.997 145.812C145.357 145.812 145.681 145.756 145.969 145.644C146.257 145.532 146.513 145.356 146.737 145.116L147.541 146.04C147.253 146.376 146.889 146.636 146.449 146.82C146.017 146.996 145.521 147.084 144.961 147.084ZM143.689 139.716L145.309 138.072H147.073L144.985 139.716H143.689Z" fill="#333333"/>
<path d="M205.996 147.084C205.284 147.084 204.66 146.944 204.124 146.664C203.596 146.376 203.184 145.984 202.888 145.488C202.6 144.992 202.456 144.428 202.456 143.796C202.456 143.156 202.596 142.592 202.876 142.104C203.164 141.608 203.556 141.22 204.052 140.94C204.556 140.66 205.128 140.52 205.768 140.52C206.392 140.52 206.948 140.656 207.436 140.928C207.924 141.2 208.308 141.584 208.588 142.08C208.868 142.576 209.008 143.16 209.008 143.832C209.008 143.896 209.004 143.968 208.996 144.048C208.996 144.128 208.992 144.204 208.984 144.276H203.644V143.28H208.192L207.604 143.592C207.612 143.224 207.536 142.9 207.376 142.62C207.216 142.34 206.996 142.12 206.716 141.96C206.444 141.8 206.128 141.72 205.768 141.72C205.4 141.72 205.076 141.8 204.796 141.96C204.524 142.12 204.308 142.344 204.148 142.632C203.996 142.912 203.92 143.244 203.92 143.628V143.868C203.92 144.252 204.008 144.592 204.184 144.888C204.36 145.184 204.608 145.412 204.928 145.572C205.248 145.732 205.616 145.812 206.032 145.812C206.392 145.812 206.716 145.756 207.004 145.644C207.292 145.532 207.548 145.356 207.772 145.116L208.576 146.04C208.288 146.376 207.924 146.636 207.484 146.82C207.052 146.996 206.556 147.084 205.996 147.084ZM214.085 140.52C214.597 140.52 215.053 140.62 215.453 140.82C215.861 141.02 216.181 141.328 216.413 141.744C216.645 142.152 216.761 142.68 216.761 143.328V147H215.261V143.52C215.261 142.952 215.125 142.528 214.853 142.248C214.589 141.968 214.217 141.828 213.737 141.828C213.385 141.828 213.073 141.9 212.801 142.044C212.529 142.188 212.317 142.404 212.165 142.692C212.021 142.972 211.949 143.328 211.949 143.76V147H210.449V140.592H211.877V142.32L211.625 141.792C211.849 141.384 212.173 141.072 212.597 140.856C213.029 140.632 213.525 140.52 214.085 140.52ZM220.251 147L217.502 140.592H219.062L221.427 146.244H220.659L223.107 140.592H224.547L221.799 147H220.251ZM225.484 147V140.592H226.984V147H225.484ZM226.24 139.536C225.96 139.536 225.728 139.448 225.544 139.272C225.368 139.096 225.28 138.884 225.28 138.636C225.28 138.38 225.368 138.168 225.544 138C225.728 137.824 225.96 137.736 226.24 137.736C226.52 137.736 226.748 137.82 226.924 137.988C227.108 138.148 227.2 138.352 227.2 138.6C227.2 138.864 227.112 139.088 226.936 139.272C226.76 139.448 226.528 139.536 226.24 139.536ZM232.901 147V145.704L232.817 145.428V143.16C232.817 142.72 232.685 142.38 232.421 142.14C232.157 141.892 231.757 141.768 231.221 141.768C230.861 141.768 230.505 141.824 230.153 141.936C229.809 142.048 229.517 142.204 229.277 142.404L228.689 141.312C229.033 141.048 229.441 140.852 229.913 140.724C230.393 140.588 230.889 140.52 231.401 140.52C232.329 140.52 233.045 140.744 233.549 141.192C234.061 141.632 234.317 142.316 234.317 143.244V147H232.901ZM230.885 147.084C230.405 147.084 229.985 147.004 229.625 146.844C229.265 146.676 228.985 146.448 228.785 146.16C228.593 145.864 228.497 145.532 228.497 145.164C228.497 144.804 228.581 144.48 228.749 144.192C228.925 143.904 229.209 143.676 229.601 143.508C229.993 143.34 230.513 143.256 231.161 143.256H233.021V144.252H231.269C230.757 144.252 230.413 144.336 230.237 144.504C230.061 144.664 229.973 144.864 229.973 145.104C229.973 145.376 230.081 145.592 230.297 145.752C230.513 145.912 230.813 145.992 231.197 145.992C231.565 145.992 231.893 145.908 232.181 145.74C232.477 145.572 232.689 145.324 232.817 144.996L233.069 145.896C232.925 146.272 232.665 146.564 232.289 146.772C231.921 146.98 231.453 147.084 230.885 147.084ZM236.242 147V140.592H237.67V142.356L237.502 141.84C237.694 141.408 237.994 141.08 238.402 140.856C238.818 140.632 239.334 140.52 239.95 140.52V141.948C239.886 141.932 239.826 141.924 239.77 141.924C239.714 141.916 239.658 141.912 239.602 141.912C239.034 141.912 238.582 142.08 238.246 142.416C237.91 142.744 237.742 143.236 237.742 143.892V147H236.242ZM247.537 147.084C246.865 147.084 246.265 146.944 245.737 146.664C245.217 146.376 244.809 145.984 244.513 145.488C244.217 144.992 244.069 144.428 244.069 143.796C244.069 143.156 244.217 142.592 244.513 142.104C244.809 141.608 245.217 141.22 245.737 140.94C246.265 140.66 246.865 140.52 247.537 140.52C248.161 140.52 248.709 140.648 249.181 140.904C249.661 141.152 250.025 141.52 250.273 142.008L249.121 142.68C248.929 142.376 248.693 142.152 248.413 142.008C248.141 141.864 247.845 141.792 247.525 141.792C247.157 141.792 246.825 141.872 246.529 142.032C246.233 142.192 246.001 142.424 245.833 142.728C245.665 143.024 245.581 143.38 245.581 143.796C245.581 144.212 245.665 144.572 245.833 144.876C246.001 145.172 246.233 145.4 246.529 145.56C246.825 145.72 247.157 145.8 247.525 145.8C247.845 145.8 248.141 145.728 248.413 145.584C248.693 145.44 248.929 145.216 249.121 144.912L250.273 145.584C250.025 146.064 249.661 146.436 249.181 146.7C248.709 146.956 248.161 147.084 247.537 147.084ZM254.488 147.084C253.776 147.084 253.152 146.944 252.616 146.664C252.088 146.376 251.676 145.984 251.38 145.488C251.092 144.992 250.948 144.428 250.948 143.796C250.948 143.156 251.088 142.592 251.368 142.104C251.656 141.608 252.048 141.22 252.544 140.94C253.048 140.66 253.62 140.52 254.26 140.52C254.884 140.52 255.44 140.656 255.928 140.928C256.416 141.2 256.8 141.584 257.08 142.08C257.36 142.576 257.5 143.16 257.5 143.832C257.5 143.896 257.496 143.968 257.488 144.048C257.488 144.128 257.484 144.204 257.476 144.276H252.136V143.28H256.684L256.096 143.592C256.104 143.224 256.028 142.9 255.868 142.62C255.708 142.34 255.488 142.12 255.208 141.96C254.936 141.8 254.62 141.72 254.26 141.72C253.892 141.72 253.568 141.8 253.288 141.96C253.016 142.12 252.8 142.344 252.64 142.632C252.488 142.912 252.412 143.244 252.412 143.628V143.868C252.412 144.252 252.5 144.592 252.676 144.888C252.852 145.184 253.1 145.412 253.42 145.572C253.74 145.732 254.108 145.812 254.524 145.812C254.884 145.812 255.208 145.756 255.496 145.644C255.784 145.532 256.04 145.356 256.264 145.116L257.068 146.04C256.78 146.376 256.416 146.636 255.976 146.82C255.544 146.996 255.048 147.084 254.488 147.084ZM258.941 147V140.592H260.369V142.356L260.201 141.84C260.393 141.408 260.693 141.08 261.101 140.856C261.517 140.632 262.033 140.52 262.649 140.52V141.948C262.585 141.932 262.525 141.924 262.469 141.924C262.413 141.916 262.357 141.912 262.301 141.912C261.733 141.912 261.281 142.08 260.945 142.416C260.609 142.744 260.441 143.236 260.441 143.892V147H258.941ZM266.568 147.084C265.864 147.084 265.32 146.904 264.936 146.544C264.552 146.176 264.36 145.636 264.36 144.924V139.176H265.86V144.888C265.86 145.192 265.936 145.428 266.088 145.596C266.248 145.764 266.468 145.848 266.748 145.848C267.084 145.848 267.364 145.76 267.588 145.584L268.008 146.652C267.832 146.796 267.616 146.904 267.36 146.976C267.104 147.048 266.84 147.084 266.568 147.084ZM263.304 141.84V140.64H267.576V141.84H263.304ZM271.911 147.084C271.255 147.084 270.671 146.944 270.159 146.664C269.647 146.376 269.243 145.984 268.947 145.488C268.651 144.992 268.503 144.428 268.503 143.796C268.503 143.156 268.651 142.592 268.947 142.104C269.243 141.608 269.647 141.22 270.159 140.94C270.671 140.66 271.255 140.52 271.911 140.52C272.575 140.52 273.163 140.66 273.675 140.94C274.195 141.22 274.599 141.604 274.887 142.092C275.183 142.58 275.331 143.148 275.331 143.796C275.331 144.428 275.183 144.992 274.887 145.488C274.599 145.984 274.195 146.376 273.675 146.664C273.163 146.944 272.575 147.084 271.911 147.084ZM271.911 145.8C272.279 145.8 272.607 145.72 272.895 145.56C273.183 145.4 273.407 145.168 273.567 144.864C273.735 144.56 273.819 144.204 273.819 143.796C273.819 143.38 273.735 143.024 273.567 142.728C273.407 142.424 273.183 142.192 272.895 142.032C272.607 141.872 272.283 141.792 271.923 141.792C271.555 141.792 271.227 141.872 270.939 142.032C270.659 142.192 270.435 142.424 270.267 142.728C270.099 143.024 270.015 143.38 270.015 143.796C270.015 144.204 270.099 144.56 270.267 144.864C270.435 145.168 270.659 145.4 270.939 145.56C271.227 145.72 271.551 145.8 271.911 145.8Z" fill="#333333"/>
<rect x="160" y="133" width="34" height="20" rx="5" fill="#F2F2F2"/>
<path d="M168.939 147V145.74L168.819 145.464V143.208C168.819 142.808 168.695 142.496 168.447 142.272C168.207 142.048 167.835 141.936 167.331 141.936C166.987 141.936 166.647 141.992 166.311 142.104C165.983 142.208 165.703 142.352 165.471 142.536L164.799 141.228C165.151 140.98 165.575 140.788 166.071 140.652C166.567 140.516 167.071 140.448 167.583 140.448C168.567 140.448 169.331 140.68 169.875 141.144C170.419 141.608 170.691 142.332 170.691 143.316V147H168.939ZM166.971 147.096C166.467 147.096 166.035 147.012 165.675 146.844C165.315 146.668 165.039 146.432 164.847 146.136C164.655 145.84 164.559 145.508 164.559 145.14C164.559 144.756 164.651 144.42 164.835 144.132C165.027 143.844 165.327 143.62 165.735 143.46C166.143 143.292 166.675 143.208 167.331 143.208H169.047V144.3H167.535C167.095 144.3 166.791 144.372 166.623 144.516C166.463 144.66 166.383 144.84 166.383 145.056C166.383 145.296 166.475 145.488 166.659 145.632C166.851 145.768 167.111 145.836 167.439 145.836C167.751 145.836 168.031 145.764 168.279 145.62C168.527 145.468 168.707 145.248 168.819 144.96L169.107 145.824C168.971 146.24 168.723 146.556 168.363 146.772C168.003 146.988 167.539 147.096 166.971 147.096ZM171.941 147V145.872L175.757 141.36L176.081 141.984H172.025V140.544H177.593V141.672L173.777 146.184L173.441 145.56H177.701V147H171.941ZM181.625 147.096C181.089 147.096 180.609 146.992 180.185 146.784C179.769 146.576 179.445 146.26 179.213 145.836C178.981 145.404 178.865 144.856 178.865 144.192V140.544H180.737V143.916C180.737 144.452 180.849 144.848 181.073 145.104C181.305 145.352 181.629 145.476 182.045 145.476C182.333 145.476 182.589 145.416 182.813 145.296C183.037 145.168 183.213 144.976 183.341 144.72C183.469 144.456 183.533 144.128 183.533 143.736V140.544H185.405V147H183.629V145.224L183.953 145.74C183.737 146.188 183.417 146.528 182.993 146.76C182.577 146.984 182.121 147.096 181.625 147.096ZM187.139 147V138.096H189.011V147H187.139Z" fill="#333333"/>
<path fill-rule="evenodd" clip-rule="evenodd" d="M315 177.985C315 167 306 157.992 295 157.992C233.172 157.992 208 158 208 158L200 166H163L154 157.999H119.147C108.147 157.999 99.1467 167 99.1467 177.992C99.1467 177.999 99.1467 178.007 99.1467 178.014C99.1467 189 108.147 198 119.147 198C135.71 198 154 198 154 198L163 206H200L208 198H295.147C306 198 315 189 315 178.007C315 178 315 178.5 315 177.985Z" fill="#30DCFF"/>
<path fill-rule="evenodd" clip-rule="evenodd" d="M315 177.989C315 167 306 158 294.853 158C233.025 158 208 158 208 158L200 166H163L154 158H119C108 158 99 167 99 177.989C99 177.996 99 178 99 178H104C104 168 111 163 119 163C133.664 163 152 163 152 163L161 171H202L210 163H295C304 163 310 169 310 178L315 178V177.989Z" fill="white" fill-opacity="0.5"/>
<path fill-rule="evenodd" clip-rule="evenodd" d="M315 178L310 178C310 186.971 304.197 193 295 193C237.995 193 206 193 206 193L198 201H165L156 193H119C108.496 193 104 187 104 178.001L99 178V178.011C99 189 108 198 119 198C135.563 198 154 198 154 198L163 206H200L208 198H295C306 198 315 189 315 178Z" fill="black" fill-opacity="0.25"/>
<path d="M112.732 186.12C112.076 186.12 111.448 186.028 110.848 185.844C110.248 185.652 109.772 185.408 109.42 185.112L109.96 183.9C110.296 184.164 110.712 184.384 111.208 184.56C111.704 184.736 112.212 184.824 112.732 184.824C113.172 184.824 113.528 184.776 113.8 184.68C114.072 184.584 114.272 184.456 114.4 184.296C114.528 184.128 114.592 183.94 114.592 183.732C114.592 183.476 114.5 183.272 114.316 183.12C114.132 182.96 113.892 182.836 113.596 182.748C113.308 182.652 112.984 182.564 112.624 182.484C112.272 182.404 111.916 182.312 111.556 182.208C111.204 182.096 110.88 181.956 110.584 181.788C110.296 181.612 110.06 181.38 109.876 181.092C109.692 180.804 109.6 180.436 109.6 179.988C109.6 179.532 109.72 179.116 109.96 178.74C110.208 178.356 110.58 178.052 111.076 177.828C111.58 177.596 112.216 177.48 112.984 177.48C113.488 177.48 113.988 177.544 114.484 177.672C114.98 177.8 115.412 177.984 115.78 178.224L115.288 179.436C114.912 179.212 114.524 179.048 114.124 178.944C113.724 178.832 113.34 178.776 112.972 178.776C112.54 178.776 112.188 178.828 111.916 178.932C111.652 179.036 111.456 179.172 111.328 179.34C111.208 179.508 111.148 179.7 111.148 179.916C111.148 180.172 111.236 180.38 111.412 180.54C111.596 180.692 111.832 180.812 112.12 180.9C112.416 180.988 112.744 181.076 113.104 181.164C113.464 181.244 113.82 181.336 114.172 181.44C114.532 181.544 114.856 181.68 115.144 181.848C115.44 182.016 115.676 182.244 115.852 182.532C116.036 182.82 116.128 183.184 116.128 183.624C116.128 184.072 116.004 184.488 115.756 184.872C115.516 185.248 115.144 185.552 114.64 185.784C114.136 186.008 113.5 186.12 112.732 186.12ZM117.531 186V179.592H119.031V186H117.531ZM118.287 178.536C118.007 178.536 117.775 178.448 117.591 178.272C117.415 178.096 117.327 177.884 117.327 177.636C117.327 177.38 117.415 177.168 117.591 177C117.775 176.824 118.007 176.736 118.287 176.736C118.567 176.736 118.795 176.82 118.971 176.988C119.155 177.148 119.247 177.352 119.247 177.6C119.247 177.864 119.159 178.088 118.983 178.272C118.807 178.448 118.575 178.536 118.287 178.536ZM129.088 179.52C129.6 179.52 130.052 179.62 130.444 179.82C130.844 180.02 131.156 180.328 131.38 180.744C131.604 181.152 131.716 181.68 131.716 182.328V186H130.216V182.52C130.216 181.952 130.092 181.528 129.844 181.248C129.596 180.968 129.24 180.828 128.776 180.828C128.448 180.828 128.156 180.9 127.9 181.044C127.652 181.188 127.456 181.4 127.312 181.68C127.176 181.96 127.108 182.316 127.108 182.748V186H125.608V182.52C125.608 181.952 125.484 181.528 125.236 181.248C124.988 180.968 124.632 180.828 124.168 180.828C123.84 180.828 123.548 180.9 123.292 181.044C123.044 181.188 122.848 181.4 122.704 181.68C122.568 181.96 122.5 182.316 122.5 182.748V186H121V179.592H122.428V181.296L122.176 180.792C122.392 180.376 122.704 180.06 123.112 179.844C123.528 179.628 124 179.52 124.528 179.52C125.128 179.52 125.648 179.668 126.088 179.964C126.536 180.26 126.832 180.708 126.976 181.308L126.388 181.104C126.596 180.624 126.94 180.24 127.42 179.952C127.9 179.664 128.456 179.52 129.088 179.52ZM139.961 186.084C139.249 186.084 138.625 185.944 138.089 185.664C137.561 185.376 137.149 184.984 136.853 184.488C136.565 183.992 136.421 183.428 136.421 182.796C136.421 182.156 136.561 181.592 136.841 181.104C137.129 180.608 137.521 180.22 138.017 179.94C138.521 179.66 139.093 179.52 139.733 179.52C140.357 179.52 140.913 179.656 141.401 179.928C141.889 180.2 142.273 180.584 142.553 181.08C142.833 181.576 142.973 182.16 142.973 182.832C142.973 182.896 142.969 182.968 142.961 183.048C142.961 183.128 142.957 183.204 142.949 183.276H137.609V182.28H142.157L141.569 182.592C141.577 182.224 141.501 181.9 141.341 181.62C141.181 181.34 140.961 181.12 140.681 180.96C140.409 180.8 140.093 180.72 139.733 180.72C139.365 180.72 139.041 180.8 138.761 180.96C138.489 181.12 138.273 181.344 138.113 181.632C137.961 181.912 137.885 182.244 137.885 182.628V182.868C137.885 183.252 137.973 183.592 138.149 183.888C138.325 184.184 138.573 184.412 138.893 184.572C139.213 184.732 139.581 184.812 139.997 184.812C140.357 184.812 140.681 184.756 140.969 184.644C141.257 184.532 141.513 184.356 141.737 184.116L142.541 185.04C142.253 185.376 141.889 185.636 141.449 185.82C141.017 185.996 140.521 186.084 139.961 186.084ZM138.689 178.716L140.309 177.072H142.073L139.985 178.716H138.689Z" fill="#333333"/>
<path d="M189.33 186.07C188.737 186.07 188.217 185.953 187.77 185.72C187.33 185.48 186.987 185.153 186.74 184.74C186.5 184.327 186.38 183.857 186.38 183.33C186.38 182.797 186.497 182.327 186.73 181.92C186.97 181.507 187.297 181.183 187.71 180.95C188.13 180.717 188.607 180.6 189.14 180.6C189.66 180.6 190.123 180.713 190.53 180.94C190.937 181.167 191.257 181.487 191.49 181.9C191.723 182.313 191.84 182.8 191.84 183.36C191.84 183.413 191.837 183.473 191.83 183.54C191.83 183.607 191.827 183.67 191.82 183.73H187.37V182.9H191.16L190.67 183.16C190.677 182.853 190.613 182.583 190.48 182.35C190.347 182.117 190.163 181.933 189.93 181.8C189.703 181.667 189.44 181.6 189.14 181.6C188.833 181.6 188.563 181.667 188.33 181.8C188.103 181.933 187.923 182.12 187.79 182.36C187.663 182.593 187.6 182.87 187.6 183.19V183.39C187.6 183.71 187.673 183.993 187.82 184.24C187.967 184.487 188.173 184.677 188.44 184.81C188.707 184.943 189.013 185.01 189.36 185.01C189.66 185.01 189.93 184.963 190.17 184.87C190.41 184.777 190.623 184.63 190.81 184.43L191.48 185.2C191.24 185.48 190.937 185.697 190.57 185.85C190.21 185.997 189.797 186.07 189.33 186.07ZM196.071 180.6C196.497 180.6 196.877 180.683 197.211 180.85C197.551 181.017 197.817 181.273 198.011 181.62C198.204 181.96 198.301 182.4 198.301 182.94V186H197.051V183.1C197.051 182.627 196.937 182.273 196.711 182.04C196.491 181.807 196.181 181.69 195.781 181.69C195.487 181.69 195.227 181.75 195.001 181.87C194.774 181.99 194.597 182.17 194.471 182.41C194.351 182.643 194.291 182.94 194.291 183.3V186H193.041V180.66H194.231V182.1L194.021 181.66C194.207 181.32 194.477 181.06 194.831 180.88C195.191 180.693 195.604 180.6 196.071 180.6ZM201.209 186L198.919 180.66H200.219L202.189 185.37H201.549L203.589 180.66H204.789L202.499 186H201.209ZM205.57 186V180.66H206.82V186H205.57ZM206.2 179.78C205.967 179.78 205.773 179.707 205.62 179.56C205.473 179.413 205.4 179.237 205.4 179.03C205.4 178.817 205.473 178.64 205.62 178.5C205.773 178.353 205.967 178.28 206.2 178.28C206.433 178.28 206.623 178.35 206.77 178.49C206.923 178.623 207 178.793 207 179C207 179.22 206.927 179.407 206.78 179.56C206.633 179.707 206.44 179.78 206.2 179.78ZM211.751 186V184.92L211.681 184.69V182.8C211.681 182.433 211.571 182.15 211.351 181.95C211.131 181.743 210.797 181.64 210.351 181.64C210.051 181.64 209.754 181.687 209.461 181.78C209.174 181.873 208.931 182.003 208.731 182.17L208.241 181.26C208.527 181.04 208.867 180.877 209.261 180.77C209.661 180.657 210.074 180.6 210.501 180.6C211.274 180.6 211.871 180.787 212.291 181.16C212.717 181.527 212.931 182.097 212.931 182.87V186H211.751ZM210.071 186.07C209.671 186.07 209.321 186.003 209.021 185.87C208.721 185.73 208.487 185.54 208.321 185.3C208.161 185.053 208.081 184.777 208.081 184.47C208.081 184.17 208.151 183.9 208.291 183.66C208.437 183.42 208.674 183.23 209.001 183.09C209.327 182.95 209.761 182.88 210.301 182.88H211.851V183.71H210.391C209.964 183.71 209.677 183.78 209.531 183.92C209.384 184.053 209.311 184.22 209.311 184.42C209.311 184.647 209.401 184.827 209.581 184.96C209.761 185.093 210.011 185.16 210.331 185.16C210.637 185.16 210.911 185.09 211.151 184.95C211.397 184.81 211.574 184.603 211.681 184.33L211.891 185.08C211.771 185.393 211.554 185.637 211.241 185.81C210.934 185.983 210.544 186.07 210.071 186.07ZM214.535 186V180.66H215.725V182.13L215.585 181.7C215.745 181.34 215.995 181.067 216.335 180.88C216.682 180.693 217.112 180.6 217.625 180.6V181.79C217.572 181.777 217.522 181.77 217.475 181.77C217.428 181.763 217.382 181.76 217.335 181.76C216.862 181.76 216.485 181.9 216.205 182.18C215.925 182.453 215.785 182.863 215.785 183.41V186H214.535ZM224.458 186.07C224.024 186.07 223.628 185.97 223.268 185.77C222.914 185.57 222.631 185.27 222.418 184.87C222.211 184.463 222.108 183.95 222.108 183.33C222.108 182.703 222.208 182.19 222.408 181.79C222.614 181.39 222.894 181.093 223.248 180.9C223.601 180.7 224.004 180.6 224.458 180.6C224.984 180.6 225.448 180.713 225.848 180.94C226.254 181.167 226.574 181.483 226.808 181.89C227.048 182.297 227.168 182.777 227.168 183.33C227.168 183.883 227.048 184.367 226.808 184.78C226.574 185.187 226.254 185.503 225.848 185.73C225.448 185.957 224.984 186.07 224.458 186.07ZM221.498 187.94V180.66H222.688V181.92L222.648 183.34L222.748 184.76V187.94H221.498ZM224.318 185C224.618 185 224.884 184.933 225.118 184.8C225.358 184.667 225.548 184.473 225.688 184.22C225.828 183.967 225.898 183.67 225.898 183.33C225.898 182.983 225.828 182.687 225.688 182.44C225.548 182.187 225.358 181.993 225.118 181.86C224.884 181.727 224.618 181.66 224.318 181.66C224.018 181.66 223.748 181.727 223.508 181.86C223.268 181.993 223.078 182.187 222.938 182.44C222.798 182.687 222.728 182.983 222.728 183.33C222.728 183.67 222.798 183.967 222.938 184.22C223.078 184.473 223.268 184.667 223.508 184.8C223.748 184.933 224.018 185 224.318 185ZM231.575 186V184.92L231.505 184.69V182.8C231.505 182.433 231.395 182.15 231.175 181.95C230.955 181.743 230.622 181.64 230.175 181.64C229.875 181.64 229.578 181.687 229.285 181.78C228.998 181.873 228.755 182.003 228.555 182.17L228.065 181.26C228.352 181.04 228.692 180.877 229.085 180.77C229.485 180.657 229.898 180.6 230.325 180.6C231.098 180.6 231.695 180.787 232.115 181.16C232.542 181.527 232.755 182.097 232.755 182.87V186H231.575ZM229.895 186.07C229.495 186.07 229.145 186.003 228.845 185.87C228.545 185.73 228.312 185.54 228.145 185.3C227.985 185.053 227.905 184.777 227.905 184.47C227.905 184.17 227.975 183.9 228.115 183.66C228.262 183.42 228.498 183.23 228.825 183.09C229.152 182.95 229.585 182.88 230.125 182.88H231.675V183.71H230.215C229.788 183.71 229.502 183.78 229.355 183.92C229.208 184.053 229.135 184.22 229.135 184.42C229.135 184.647 229.225 184.827 229.405 184.96C229.585 185.093 229.835 185.16 230.155 185.16C230.462 185.16 230.735 185.09 230.975 184.95C231.222 184.81 231.398 184.603 231.505 184.33L231.715 185.08C231.595 185.393 231.378 185.637 231.065 185.81C230.758 185.983 230.368 186.07 229.895 186.07ZM234.359 186V180.66H235.549V182.13L235.409 181.7C235.569 181.34 235.819 181.067 236.159 180.88C236.506 180.693 236.936 180.6 237.449 180.6V181.79C237.396 181.777 237.346 181.77 237.299 181.77C237.252 181.763 237.206 181.76 237.159 181.76C236.686 181.76 236.309 181.9 236.029 182.18C235.749 182.453 235.609 182.863 235.609 183.41V186H234.359ZM241.419 186V184.92L241.349 184.69V182.8C241.349 182.433 241.239 182.15 241.019 181.95C240.799 181.743 240.465 181.64 240.019 181.64C239.719 181.64 239.422 181.687 239.129 181.78C238.842 181.873 238.599 182.003 238.399 182.17L237.909 181.26C238.195 181.04 238.535 180.877 238.929 180.77C239.329 180.657 239.742 180.6 240.169 180.6C240.942 180.6 241.539 180.787 241.959 181.16C242.385 181.527 242.599 182.097 242.599 182.87V186H241.419ZM239.739 186.07C239.339 186.07 238.989 186.003 238.689 185.87C238.389 185.73 238.155 185.54 237.989 185.3C237.829 185.053 237.749 184.777 237.749 184.47C237.749 184.17 237.819 183.9 237.959 183.66C238.105 183.42 238.342 183.23 238.669 183.09C238.995 182.95 239.429 182.88 239.969 182.88H241.519V183.71H240.059C239.632 183.71 239.345 183.78 239.199 183.92C239.052 184.053 238.979 184.22 238.979 184.42C238.979 184.647 239.069 184.827 239.249 184.96C239.429 185.093 239.679 185.16 239.999 185.16C240.305 185.16 240.579 185.09 240.819 184.95C241.065 184.81 241.242 184.603 241.349 184.33L241.559 185.08C241.439 185.393 241.222 185.637 240.909 185.81C240.602 185.983 240.212 186.07 239.739 186.07ZM250.256 186V184.92L250.186 184.69V182.8C250.186 182.433 250.076 182.15 249.856 181.95C249.636 181.743 249.303 181.64 248.856 181.64C248.556 181.64 248.26 181.687 247.966 181.78C247.68 181.873 247.436 182.003 247.236 182.17L246.746 181.26C247.033 181.04 247.373 180.877 247.766 180.77C248.166 180.657 248.58 180.6 249.006 180.6C249.78 180.6 250.376 180.787 250.796 181.16C251.223 181.527 251.436 182.097 251.436 182.87V186H250.256ZM248.576 186.07C248.176 186.07 247.826 186.003 247.526 185.87C247.226 185.73 246.993 185.54 246.826 185.3C246.666 185.053 246.586 184.777 246.586 184.47C246.586 184.17 246.656 183.9 246.796 183.66C246.943 183.42 247.18 183.23 247.506 183.09C247.833 182.95 248.266 182.88 248.806 182.88H250.356V183.71H248.896C248.47 183.71 248.183 183.78 248.036 183.92C247.89 184.053 247.816 184.22 247.816 184.42C247.816 184.647 247.906 184.827 248.086 184.96C248.266 185.093 248.516 185.16 248.836 185.16C249.143 185.16 249.416 185.09 249.656 184.95C249.903 184.81 250.08 184.603 250.186 184.33L250.396 185.08C250.276 185.393 250.06 185.637 249.746 185.81C249.44 185.983 249.05 186.07 248.576 186.07ZM258.314 186.07C257.721 186.07 257.201 185.953 256.754 185.72C256.314 185.48 255.971 185.153 255.724 184.74C255.484 184.327 255.364 183.857 255.364 183.33C255.364 182.797 255.481 182.327 255.714 181.92C255.954 181.507 256.281 181.183 256.694 180.95C257.114 180.717 257.591 180.6 258.124 180.6C258.644 180.6 259.108 180.713 259.514 180.94C259.921 181.167 260.241 181.487 260.474 181.9C260.708 182.313 260.824 182.8 260.824 183.36C260.824 183.413 260.821 183.473 260.814 183.54C260.814 183.607 260.811 183.67 260.804 183.73H256.354V182.9H260.144L259.654 183.16C259.661 182.853 259.598 182.583 259.464 182.35C259.331 182.117 259.148 181.933 258.914 181.8C258.688 181.667 258.424 181.6 258.124 181.6C257.818 181.6 257.548 181.667 257.314 181.8C257.088 181.933 256.908 182.12 256.774 182.36C256.648 182.593 256.584 182.87 256.584 183.19V183.39C256.584 183.71 256.658 183.993 256.804 184.24C256.951 184.487 257.158 184.677 257.424 184.81C257.691 184.943 257.998 185.01 258.344 185.01C258.644 185.01 258.914 184.963 259.154 184.87C259.394 184.777 259.608 184.63 259.794 184.43L260.464 185.2C260.224 185.48 259.921 185.697 259.554 185.85C259.194 185.997 258.781 186.07 258.314 186.07ZM263.675 186.07C263.228 186.07 262.798 186.013 262.385 185.9C261.978 185.78 261.655 185.637 261.415 185.47L261.895 184.52C262.135 184.673 262.422 184.8 262.755 184.9C263.088 185 263.422 185.05 263.755 185.05C264.148 185.05 264.432 184.997 264.605 184.89C264.785 184.783 264.875 184.64 264.875 184.46C264.875 184.313 264.815 184.203 264.695 184.13C264.575 184.05 264.418 183.99 264.225 183.95C264.032 183.91 263.815 183.873 263.575 183.84C263.342 183.807 263.105 183.763 262.865 183.71C262.632 183.65 262.418 183.567 262.225 183.46C262.032 183.347 261.875 183.197 261.755 183.01C261.635 182.823 261.575 182.577 261.575 182.27C261.575 181.93 261.672 181.637 261.865 181.39C262.058 181.137 262.328 180.943 262.675 180.81C263.028 180.67 263.445 180.6 263.925 180.6C264.285 180.6 264.648 180.64 265.015 180.72C265.382 180.8 265.685 180.913 265.925 181.06L265.445 182.01C265.192 181.857 264.935 181.753 264.675 181.7C264.422 181.64 264.168 181.61 263.915 181.61C263.535 181.61 263.252 181.667 263.065 181.78C262.885 181.893 262.795 182.037 262.795 182.21C262.795 182.37 262.855 182.49 262.975 182.57C263.095 182.65 263.252 182.713 263.445 182.76C263.638 182.807 263.852 182.847 264.085 182.88C264.325 182.907 264.562 182.95 264.795 183.01C265.028 183.07 265.242 183.153 265.435 183.26C265.635 183.36 265.795 183.503 265.915 183.69C266.035 183.877 266.095 184.12 266.095 184.42C266.095 184.753 265.995 185.043 265.795 185.29C265.602 185.537 265.325 185.73 264.965 185.87C264.605 186.003 264.175 186.07 263.675 186.07ZM269.432 186.07C268.918 186.07 268.455 185.957 268.042 185.73C267.635 185.503 267.315 185.187 267.082 184.78C266.848 184.367 266.732 183.883 266.732 183.33C266.732 182.777 266.848 182.297 267.082 181.89C267.315 181.483 267.635 181.167 268.042 180.94C268.455 180.713 268.918 180.6 269.432 180.6C269.892 180.6 270.295 180.7 270.642 180.9C270.995 181.093 271.272 181.39 271.472 181.79C271.678 182.19 271.782 182.703 271.782 183.33C271.782 183.95 271.675 184.463 271.462 184.87C271.255 185.27 270.975 185.57 270.622 185.77C270.268 185.97 269.872 186.07 269.432 186.07ZM269.572 185C269.872 185 270.142 184.933 270.382 184.8C270.622 184.667 270.812 184.473 270.952 184.22C271.092 183.967 271.162 183.67 271.162 183.33C271.162 182.983 271.092 182.687 270.952 182.44C270.812 182.187 270.622 181.993 270.382 181.86C270.142 181.727 269.872 181.66 269.572 181.66C269.272 181.66 269.002 181.727 268.762 181.86C268.528 181.993 268.342 182.187 268.202 182.44C268.062 182.687 267.992 182.983 267.992 183.33C267.992 183.67 268.062 183.967 268.202 184.22C268.342 184.473 268.528 184.667 268.762 184.8C269.002 184.933 269.272 185 269.572 185ZM271.142 187.94V184.76L271.242 183.34L271.202 181.92V180.66H272.392V187.94H271.142ZM276.287 186.07C275.834 186.07 275.434 185.987 275.087 185.82C274.74 185.647 274.47 185.387 274.277 185.04C274.084 184.687 273.987 184.243 273.987 183.71V180.66H275.237V183.54C275.237 184.02 275.344 184.38 275.557 184.62C275.777 184.853 276.087 184.97 276.487 184.97C276.78 184.97 277.034 184.91 277.247 184.79C277.467 184.67 277.637 184.49 277.757 184.25C277.884 184.01 277.947 183.713 277.947 183.36V180.66H279.197V186H278.007V184.56L278.217 185C278.037 185.347 277.774 185.613 277.427 185.8C277.08 185.98 276.7 186.07 276.287 186.07ZM283.344 186.07C282.75 186.07 282.23 185.953 281.784 185.72C281.344 185.48 281 185.153 280.754 184.74C280.514 184.327 280.394 183.857 280.394 183.33C280.394 182.797 280.51 182.327 280.744 181.92C280.984 181.507 281.31 181.183 281.724 180.95C282.144 180.717 282.62 180.6 283.154 180.6C283.674 180.6 284.137 180.713 284.544 180.94C284.95 181.167 285.27 181.487 285.504 181.9C285.737 182.313 285.854 182.8 285.854 183.36C285.854 183.413 285.85 183.473 285.844 183.54C285.844 183.607 285.84 183.67 285.834 183.73H281.384V182.9H285.174L284.684 183.16C284.69 182.853 284.627 182.583 284.494 182.35C284.36 182.117 284.177 181.933 283.944 181.8C283.717 181.667 283.454 181.6 283.154 181.6C282.847 181.6 282.577 181.667 282.344 181.8C282.117 181.933 281.937 182.12 281.804 182.36C281.677 182.593 281.614 182.87 281.614 183.19V183.39C281.614 183.71 281.687 183.993 281.834 184.24C281.98 184.487 282.187 184.677 282.454 184.81C282.72 184.943 283.027 185.01 283.374 185.01C283.674 185.01 283.944 184.963 284.184 184.87C284.424 184.777 284.637 184.63 284.824 184.43L285.494 185.2C285.254 185.48 284.95 185.697 284.584 185.85C284.224 185.997 283.81 186.07 283.344 186.07ZM287.054 186V180.66H288.244V182.13L288.104 181.7C288.264 181.34 288.514 181.067 288.854 180.88C289.201 180.693 289.631 180.6 290.144 180.6V181.79C290.091 181.777 290.041 181.77 289.994 181.77C289.948 181.763 289.901 181.76 289.854 181.76C289.381 181.76 289.004 181.9 288.724 182.18C288.444 182.453 288.304 182.863 288.304 183.41V186H287.054ZM293.416 186.07C292.903 186.07 292.439 185.957 292.026 185.73C291.619 185.497 291.299 185.177 291.066 184.77C290.833 184.363 290.716 183.883 290.716 183.33C290.716 182.777 290.833 182.297 291.066 181.89C291.299 181.483 291.619 181.167 292.026 180.94C292.439 180.713 292.903 180.6 293.416 180.6C293.863 180.6 294.263 180.7 294.616 180.9C294.969 181.093 295.249 181.39 295.456 181.79C295.663 182.19 295.766 182.703 295.766 183.33C295.766 183.95 295.666 184.463 295.466 184.87C295.266 185.27 294.989 185.57 294.636 185.77C294.283 185.97 293.876 186.07 293.416 186.07ZM293.566 185C293.866 185 294.133 184.933 294.366 184.8C294.606 184.667 294.796 184.473 294.936 184.22C295.083 183.967 295.156 183.67 295.156 183.33C295.156 182.983 295.083 182.687 294.936 182.44C294.796 182.187 294.606 181.993 294.366 181.86C294.133 181.727 293.866 181.66 293.566 181.66C293.266 181.66 292.996 181.727 292.756 181.86C292.523 181.993 292.333 182.187 292.186 182.44C292.046 182.687 291.976 182.983 291.976 183.33C291.976 183.67 292.046 183.967 292.186 184.22C292.333 184.473 292.523 184.667 292.756 184.8C292.996 184.933 293.266 185 293.566 185ZM295.186 186V184.74L295.236 183.32L295.136 181.9V178.58H296.376V186H295.186ZM301.311 186V184.92L301.241 184.69V182.8C301.241 182.433 301.131 182.15 300.911 181.95C300.691 181.743 300.358 181.64 299.911 181.64C299.611 181.64 299.315 181.687 299.021 181.78C298.735 181.873 298.491 182.003 298.291 182.17L297.801 181.26C298.088 181.04 298.428 180.877 298.821 180.77C299.221 180.657 299.635 180.6 300.061 180.6C300.835 180.6 301.431 180.787 301.851 181.16C302.278 181.527 302.491 182.097 302.491 182.87V186H301.311ZM299.631 186.07C299.231 186.07 298.881 186.003 298.581 185.87C298.281 185.73 298.048 185.54 297.881 185.3C297.721 185.053 297.641 184.777 297.641 184.47C297.641 184.17 297.711 183.9 297.851 183.66C297.998 183.42 298.235 183.23 298.561 183.09C298.888 182.95 299.321 182.88 299.861 182.88H301.411V183.71H299.951C299.525 183.71 299.238 183.78 299.091 183.92C298.945 184.053 298.871 184.22 298.871 184.42C298.871 184.647 298.961 184.827 299.141 184.96C299.321 185.093 299.571 185.16 299.891 185.16C300.198 185.16 300.471 185.09 300.711 184.95C300.958 184.81 301.135 184.603 301.241 184.33L301.451 185.08C301.331 185.393 301.115 185.637 300.801 185.81C300.495 185.983 300.105 186.07 299.631 186.07Z" fill="#333333"/>
<rect x="152" y="172" width="32" height="20" rx="5" fill="#F2F2F2"/>
<path d="M156.708 180L154.448 174.62H156.058L157.938 179.25H157.138L159.088 174.62H160.588L158.318 180H156.708ZM163.748 180.08C163.135 180.08 162.595 179.96 162.128 179.72C161.668 179.48 161.312 179.153 161.058 178.74C160.805 178.32 160.678 177.843 160.678 177.31C160.678 176.77 160.802 176.293 161.048 175.88C161.302 175.46 161.645 175.133 162.078 174.9C162.512 174.66 163.002 174.54 163.548 174.54C164.075 174.54 164.548 174.653 164.968 174.88C165.395 175.1 165.732 175.42 165.978 175.84C166.225 176.253 166.348 176.75 166.348 177.33C166.348 177.39 166.345 177.46 166.338 177.54C166.332 177.613 166.325 177.683 166.318 177.75H161.948V176.84H165.498L164.898 177.11C164.898 176.83 164.842 176.587 164.728 176.38C164.615 176.173 164.458 176.013 164.258 175.9C164.058 175.78 163.825 175.72 163.558 175.72C163.292 175.72 163.055 175.78 162.848 175.9C162.648 176.013 162.492 176.177 162.378 176.39C162.265 176.597 162.208 176.843 162.208 177.13V177.37C162.208 177.663 162.272 177.923 162.398 178.15C162.532 178.37 162.715 178.54 162.948 178.66C163.188 178.773 163.468 178.83 163.788 178.83C164.075 178.83 164.325 178.787 164.538 178.7C164.758 178.613 164.958 178.483 165.138 178.31L165.968 179.21C165.722 179.49 165.412 179.707 165.038 179.86C164.665 180.007 164.235 180.08 163.748 180.08ZM167.387 180V174.62H168.877V176.14L168.667 175.7C168.827 175.32 169.084 175.033 169.437 174.84C169.79 174.64 170.22 174.54 170.727 174.54V175.98C170.66 175.973 170.6 175.97 170.547 175.97C170.494 175.963 170.437 175.96 170.377 175.96C169.95 175.96 169.604 176.083 169.337 176.33C169.077 176.57 168.947 176.947 168.947 177.46V180H167.387ZM178.554 174.54C178.981 174.54 179.358 174.627 179.684 174.8C180.018 174.967 180.278 175.227 180.464 175.58C180.658 175.927 180.754 176.373 180.754 176.92V180H179.194V177.16C179.194 176.727 179.104 176.407 178.924 176.2C178.744 175.993 178.491 175.89 178.164 175.89C177.938 175.89 177.734 175.943 177.554 176.05C177.374 176.15 177.234 176.303 177.134 176.51C177.034 176.717 176.984 176.98 176.984 177.3V180H175.424V177.16C175.424 176.727 175.334 176.407 175.154 176.2C174.981 175.993 174.731 175.89 174.404 175.89C174.178 175.89 173.974 175.943 173.794 176.05C173.614 176.15 173.474 176.303 173.374 176.51C173.274 176.717 173.224 176.98 173.224 177.3V180H171.664V174.62H173.154V176.09L172.874 175.66C173.061 175.293 173.324 175.017 173.664 174.83C174.011 174.637 174.404 174.54 174.844 174.54C175.338 174.54 175.768 174.667 176.134 174.92C176.508 175.167 176.754 175.547 176.874 176.06L176.324 175.91C176.504 175.49 176.791 175.157 177.184 174.91C177.584 174.663 178.041 174.54 178.554 174.54ZM159.979 192.08C159.366 192.08 158.826 191.96 158.359 191.72C157.899 191.48 157.542 191.153 157.289 190.74C157.036 190.32 156.909 189.843 156.909 189.31C156.909 188.77 157.032 188.293 157.279 187.88C157.532 187.46 157.876 187.133 158.309 186.9C158.742 186.66 159.232 186.54 159.779 186.54C160.306 186.54 160.779 186.653 161.199 186.88C161.626 187.1 161.962 187.42 162.209 187.84C162.456 188.253 162.579 188.75 162.579 189.33C162.579 189.39 162.576 189.46 162.569 189.54C162.562 189.613 162.556 189.683 162.549 189.75H158.179V188.84H161.729L161.129 189.11C161.129 188.83 161.072 188.587 160.959 188.38C160.846 188.173 160.689 188.013 160.489 187.9C160.289 187.78 160.056 187.72 159.789 187.72C159.522 187.72 159.286 187.78 159.079 187.9C158.879 188.013 158.722 188.177 158.609 188.39C158.496 188.597 158.439 188.843 158.439 189.13V189.37C158.439 189.663 158.502 189.923 158.629 190.15C158.762 190.37 158.946 190.54 159.179 190.66C159.419 190.773 159.699 190.83 160.019 190.83C160.306 190.83 160.556 190.787 160.769 190.7C160.989 190.613 161.189 190.483 161.369 190.31L162.199 191.21C161.952 191.49 161.642 191.707 161.269 191.86C160.896 192.007 160.466 192.08 159.979 192.08ZM163.617 192V184.58H165.177V192H163.617ZM169.895 186.54C170.322 186.54 170.702 186.627 171.035 186.8C171.375 186.967 171.642 187.227 171.835 187.58C172.029 187.927 172.125 188.373 172.125 188.92V192H170.565V189.16C170.565 188.727 170.469 188.407 170.275 188.2C170.089 187.993 169.822 187.89 169.475 187.89C169.229 187.89 169.005 187.943 168.805 188.05C168.612 188.15 168.459 188.307 168.345 188.52C168.239 188.733 168.185 189.007 168.185 189.34V192H166.625V184.58H168.185V188.11L167.835 187.66C168.029 187.3 168.305 187.023 168.665 186.83C169.025 186.637 169.435 186.54 169.895 186.54ZM176.138 192.08C175.565 192.08 175.055 191.96 174.608 191.72C174.168 191.48 173.818 191.153 173.558 190.74C173.305 190.32 173.178 189.843 173.178 189.31C173.178 188.77 173.305 188.293 173.558 187.88C173.818 187.46 174.168 187.133 174.608 186.9C175.055 186.66 175.565 186.54 176.138 186.54C176.705 186.54 177.212 186.66 177.658 186.9C178.105 187.133 178.455 187.457 178.708 187.87C178.962 188.283 179.088 188.763 179.088 189.31C179.088 189.843 178.962 190.32 178.708 190.74C178.455 191.153 178.105 191.48 177.658 191.72C177.212 191.96 176.705 192.08 176.138 192.08ZM176.138 190.8C176.398 190.8 176.632 190.74 176.838 190.62C177.045 190.5 177.208 190.33 177.328 190.11C177.448 189.883 177.508 189.617 177.508 189.31C177.508 188.997 177.448 188.73 177.328 188.51C177.208 188.29 177.045 188.12 176.838 188C176.632 187.88 176.398 187.82 176.138 187.82C175.878 187.82 175.645 187.88 175.438 188C175.232 188.12 175.065 188.29 174.938 188.51C174.818 188.73 174.758 188.997 174.758 189.31C174.758 189.617 174.818 189.883 174.938 190.11C175.065 190.33 175.232 190.5 175.438 190.62C175.645 190.74 175.878 190.8 176.138 190.8Z" fill="#333333"/>
<path fill-rule="evenodd" clip-rule="evenodd" d="M315 62C315 51 308 44 297 44C257.917 44 282.045 44 254 44C246.27 44 242.785 41.7635 238.5 37.5C229.193 28.8197 205.783 15 154.427 15C82.0243 15 65 44 65 44C65 44 65.0004 48.7195 65.0006 62C65.0006 72 73 80 83 80C109.488 80 154 80 154 80L163 88H200L208 80C208 80 242.031 80 297 80C308 80 315 73 315 62C315 63.8675 315 59.1323 315 62Z" fill="#FC79FF"/>
<path fill-rule="evenodd" clip-rule="evenodd" d="M310 62C310 70 306 75 297 75L206 75L198 83H165L156 75C156 75 108.393 75 83.0001 75C74.9643 75 70 69 70 62H65C65 72 73 80 83.0001 80C109.441 80 154 80 154 80L163.027 88H200L208 80L297 80C308 80 315 73 315 62C313.5 62 312 61.9999 310 62Z" fill="black" fill-opacity="0.25"/>
<path fill-rule="evenodd" clip-rule="evenodd" d="M65 62H70V46C70 46 84.993 20 154.286 20C201.342 20 225.557 32.6452 235.5 41C240.292 45.0301 246.712 48.9521 253 49C261.5 49 281.464 49 297 49C304.964 49 310 54.5 310 61V62H314H315C315 51 308 44 297 44C257.993 44 281.008 44 253 44C246 44 242.169 41.1595 238.214 37.2066C228.936 28.4998 205.571 15 154.268 15C81.9103 15 65 44 65 44L65 62Z" fill="white" fill-opacity="0.5"/>
<path d="M80.064 69.144C79.408 69.144 78.796 69.036 78.228 68.82C77.668 68.604 77.18 68.3 76.764 67.908C76.356 67.516 76.036 67.056 75.804 66.528C75.58 66 75.468 65.424 75.468 64.8C75.468 64.176 75.58 63.6 75.804 63.072C76.036 62.544 76.36 62.084 76.776 61.692C77.192 61.3 77.68 60.996 78.24 60.78C78.8 60.564 79.408 60.456 80.064 60.456C80.728 60.456 81.336 60.564 81.888 60.78C82.448 60.996 82.932 61.3 83.34 61.692C83.756 62.076 84.08 62.532 84.312 63.06C84.544 63.588 84.66 64.168 84.66 64.8C84.66 65.424 84.544 66.004 84.312 66.54C84.08 67.068 83.756 67.528 83.34 67.92C82.932 68.304 82.448 68.604 81.888 68.82C81.336 69.036 80.728 69.144 80.064 69.144ZM82.812 70.932C82.484 70.932 82.172 70.896 81.876 70.824C81.588 70.752 81.3 70.636 81.012 70.476C80.732 70.316 80.436 70.1 80.124 69.828C79.82 69.556 79.488 69.22 79.128 68.82L81.168 68.304C81.384 68.6 81.584 68.836 81.768 69.012C81.952 69.188 82.128 69.312 82.296 69.384C82.472 69.456 82.656 69.492 82.848 69.492C83.36 69.492 83.816 69.284 84.216 68.868L85.08 69.9C84.512 70.588 83.756 70.932 82.812 70.932ZM80.064 67.488C80.44 67.488 80.784 67.424 81.096 67.296C81.416 67.168 81.696 66.984 81.936 66.744C82.176 66.504 82.36 66.22 82.488 65.892C82.624 65.556 82.692 65.192 82.692 64.8C82.692 64.4 82.624 64.036 82.488 63.708C82.36 63.38 82.176 63.096 81.936 62.856C81.696 62.616 81.416 62.432 81.096 62.304C80.784 62.176 80.44 62.112 80.064 62.112C79.688 62.112 79.34 62.176 79.02 62.304C78.7 62.432 78.42 62.616 78.18 62.856C77.948 63.096 77.764 63.38 77.628 63.708C77.5 64.036 77.436 64.4 77.436 64.8C77.436 65.192 77.5 65.556 77.628 65.892C77.764 66.22 77.948 66.504 78.18 66.744C78.42 66.984 78.7 67.168 79.02 67.296C79.34 67.424 79.688 67.488 80.064 67.488ZM88.713 69.096C88.177 69.096 87.697 68.992 87.273 68.784C86.857 68.576 86.533 68.26 86.301 67.836C86.069 67.404 85.953 66.856 85.953 66.192V62.544H87.825V65.916C87.825 66.452 87.937 66.848 88.161 67.104C88.393 67.352 88.717 67.476 89.133 67.476C89.421 67.476 89.677 67.416 89.901 67.296C90.125 67.168 90.301 66.976 90.429 66.72C90.557 66.456 90.621 66.128 90.621 65.736V62.544H92.493V69H90.717V67.224L91.041 67.74C90.825 68.188 90.505 68.528 90.081 68.76C89.665 68.984 89.209 69.096 88.713 69.096ZM98.1873 69V67.74L98.0673 67.464V65.208C98.0673 64.808 97.9433 64.496 97.6953 64.272C97.4553 64.048 97.0833 63.936 96.5793 63.936C96.2353 63.936 95.8953 63.992 95.5593 64.104C95.2313 64.208 94.9513 64.352 94.7193 64.536L94.0473 63.228C94.3993 62.98 94.8233 62.788 95.3193 62.652C95.8153 62.516 96.3193 62.448 96.8313 62.448C97.8153 62.448 98.5793 62.68 99.1233 63.144C99.6673 63.608 99.9393 64.332 99.9393 65.316V69H98.1873ZM96.2193 69.096C95.7153 69.096 95.2833 69.012 94.9233 68.844C94.5633 68.668 94.2873 68.432 94.0953 68.136C93.9033 67.84 93.8073 67.508 93.8073 67.14C93.8073 66.756 93.8993 66.42 94.0833 66.132C94.2753 65.844 94.5753 65.62 94.9833 65.46C95.3913 65.292 95.9233 65.208 96.5793 65.208H98.2953V66.3H96.7833C96.3433 66.3 96.0393 66.372 95.8713 66.516C95.7113 66.66 95.6313 66.84 95.6313 67.056C95.6313 67.296 95.7233 67.488 95.9073 67.632C96.0993 67.768 96.3593 67.836 96.6873 67.836C96.9993 67.836 97.2793 67.764 97.5273 67.62C97.7753 67.468 97.9553 67.248 98.0673 66.96L98.3553 67.824C98.2193 68.24 97.9713 68.556 97.6113 68.772C97.2513 68.988 96.7873 69.096 96.2193 69.096ZM105.558 62.448C106.07 62.448 106.526 62.552 106.926 62.76C107.334 62.96 107.654 63.272 107.886 63.696C108.118 64.112 108.234 64.648 108.234 65.304V69H106.362V65.592C106.362 65.072 106.246 64.688 106.014 64.44C105.79 64.192 105.47 64.068 105.054 64.068C104.758 64.068 104.49 64.132 104.25 64.26C104.018 64.38 103.834 64.568 103.698 64.824C103.57 65.08 103.506 65.408 103.506 65.808V69H101.634V62.544H103.422V64.332L103.086 63.792C103.318 63.36 103.65 63.028 104.082 62.796C104.514 62.564 105.006 62.448 105.558 62.448ZM112.749 69.096C112.141 69.096 111.593 68.96 111.105 68.688C110.617 68.408 110.229 68.02 109.941 67.524C109.661 67.028 109.521 66.444 109.521 65.772C109.521 65.092 109.661 64.504 109.941 64.008C110.229 63.512 110.617 63.128 111.105 62.856C111.593 62.584 112.141 62.448 112.749 62.448C113.293 62.448 113.769 62.568 114.177 62.808C114.585 63.048 114.901 63.412 115.125 63.9C115.349 64.388 115.461 65.012 115.461 65.772C115.461 66.524 115.353 67.148 115.137 67.644C114.921 68.132 114.609 68.496 114.201 68.736C113.801 68.976 113.317 69.096 112.749 69.096ZM113.073 67.56C113.377 67.56 113.653 67.488 113.901 67.344C114.149 67.2 114.345 66.996 114.489 66.732C114.641 66.46 114.717 66.14 114.717 65.772C114.717 65.396 114.641 65.076 114.489 64.812C114.345 64.548 114.149 64.344 113.901 64.2C113.653 64.056 113.377 63.984 113.073 63.984C112.761 63.984 112.481 64.056 112.233 64.2C111.985 64.344 111.785 64.548 111.633 64.812C111.489 65.076 111.417 65.396 111.417 65.772C111.417 66.14 111.489 66.46 111.633 66.732C111.785 66.996 111.985 67.2 112.233 67.344C112.481 67.488 112.761 67.56 113.073 67.56ZM114.765 69V67.68L114.801 65.76L114.681 63.852V60.096H116.553V69H114.765ZM121.358 69.096C120.67 69.096 120.058 68.952 119.522 68.664C118.994 68.376 118.574 67.984 118.262 67.488C117.958 66.984 117.806 66.412 117.806 65.772C117.806 65.124 117.958 64.552 118.262 64.056C118.574 63.552 118.994 63.16 119.522 62.88C120.058 62.592 120.67 62.448 121.358 62.448C122.038 62.448 122.646 62.592 123.182 62.88C123.718 63.16 124.138 63.548 124.442 64.044C124.746 64.54 124.898 65.116 124.898 65.772C124.898 66.412 124.746 66.984 124.442 67.488C124.138 67.984 123.718 68.376 123.182 68.664C122.646 68.952 122.038 69.096 121.358 69.096ZM121.358 67.56C121.67 67.56 121.95 67.488 122.198 67.344C122.446 67.2 122.642 66.996 122.786 66.732C122.93 66.46 123.002 66.14 123.002 65.772C123.002 65.396 122.93 65.076 122.786 64.812C122.642 64.548 122.446 64.344 122.198 64.2C121.95 64.056 121.67 63.984 121.358 63.984C121.046 63.984 120.766 64.056 120.518 64.2C120.27 64.344 120.07 64.548 119.918 64.812C119.774 65.076 119.702 65.396 119.702 65.772C119.702 66.14 119.774 66.46 119.918 66.732C120.07 66.996 120.27 67.2 120.518 67.344C120.766 67.488 121.046 67.56 121.358 67.56ZM126.857 64.788C126.537 64.788 126.261 64.68 126.029 64.464C125.805 64.24 125.693 63.956 125.693 63.612C125.693 63.268 125.805 62.992 126.029 62.784C126.261 62.568 126.537 62.46 126.857 62.46C127.185 62.46 127.461 62.568 127.685 62.784C127.909 62.992 128.021 63.268 128.021 63.612C128.021 63.956 127.909 64.24 127.685 64.464C127.461 64.68 127.185 64.788 126.857 64.788ZM126.857 69.096C126.537 69.096 126.261 68.988 126.029 68.772C125.805 68.548 125.693 68.264 125.693 67.92C125.693 67.576 125.805 67.3 126.029 67.092C126.261 66.876 126.537 66.768 126.857 66.768C127.185 66.768 127.461 66.876 127.685 67.092C127.909 67.3 128.021 67.576 128.021 67.92C128.021 68.264 127.909 68.548 127.685 68.772C127.461 68.988 127.185 69.096 126.857 69.096ZM136.504 69.096C135.96 69.096 135.484 68.976 135.076 68.736C134.668 68.496 134.348 68.132 134.116 67.644C133.892 67.148 133.78 66.524 133.78 65.772C133.78 65.012 133.888 64.388 134.104 63.9C134.32 63.412 134.632 63.048 135.04 62.808C135.448 62.568 135.936 62.448 136.504 62.448C137.112 62.448 137.656 62.588 138.136 62.868C138.624 63.14 139.008 63.524 139.288 64.02C139.576 64.516 139.72 65.1 139.72 65.772C139.72 66.452 139.576 67.04 139.288 67.536C139.008 68.032 138.624 68.416 138.136 68.688C137.656 68.96 137.112 69.096 136.504 69.096ZM132.688 71.328V62.544H134.476V63.864L134.44 65.784L134.56 67.692V71.328H132.688ZM136.18 67.56C136.492 67.56 136.768 67.488 137.008 67.344C137.256 67.2 137.452 66.996 137.596 66.732C137.748 66.46 137.824 66.14 137.824 65.772C137.824 65.396 137.748 65.076 137.596 64.812C137.452 64.548 137.256 64.344 137.008 64.2C136.768 64.056 136.492 63.984 136.18 63.984C135.868 63.984 135.588 64.056 135.34 64.2C135.092 64.344 134.896 64.548 134.752 64.812C134.608 65.076 134.536 65.396 134.536 65.772C134.536 66.14 134.608 66.46 134.752 66.732C134.896 66.996 135.092 67.2 135.34 67.344C135.588 67.488 135.868 67.56 136.18 67.56ZM140.973 69V62.544H142.761V64.368L142.509 63.84C142.701 63.384 143.009 63.04 143.433 62.808C143.857 62.568 144.373 62.448 144.981 62.448V64.176C144.901 64.168 144.829 64.164 144.765 64.164C144.701 64.156 144.633 64.152 144.561 64.152C144.049 64.152 143.633 64.3 143.313 64.596C143.001 64.884 142.845 65.336 142.845 65.952V69H140.973ZM149.252 69.096C148.516 69.096 147.868 68.952 147.308 68.664C146.756 68.376 146.328 67.984 146.024 67.488C145.72 66.984 145.568 66.412 145.568 65.772C145.568 65.124 145.716 64.552 146.012 64.056C146.316 63.552 146.728 63.16 147.248 62.88C147.768 62.592 148.356 62.448 149.012 62.448C149.644 62.448 150.212 62.584 150.716 62.856C151.228 63.12 151.632 63.504 151.928 64.008C152.224 64.504 152.372 65.1 152.372 65.796C152.372 65.868 152.368 65.952 152.36 66.048C152.352 66.136 152.344 66.22 152.336 66.3H147.092V65.208H151.352L150.632 65.532C150.632 65.196 150.564 64.904 150.428 64.656C150.292 64.408 150.104 64.216 149.864 64.08C149.624 63.936 149.344 63.864 149.024 63.864C148.704 63.864 148.42 63.936 148.172 64.08C147.932 64.216 147.744 64.412 147.608 64.668C147.472 64.916 147.404 65.212 147.404 65.556V65.844C147.404 66.196 147.48 66.508 147.632 66.78C147.792 67.044 148.012 67.248 148.292 67.392C148.58 67.528 148.916 67.596 149.3 67.596C149.644 67.596 149.944 67.544 150.2 67.44C150.464 67.336 150.704 67.18 150.92 66.972L151.916 68.052C151.62 68.388 151.248 68.648 150.8 68.832C150.352 69.008 149.836 69.096 149.252 69.096ZM155.79 69.096C155.238 69.096 154.706 69.032 154.194 68.904C153.69 68.768 153.29 68.6 152.994 68.4L153.618 67.056C153.914 67.24 154.262 67.392 154.662 67.512C155.07 67.624 155.47 67.68 155.862 67.68C156.294 67.68 156.598 67.628 156.774 67.524C156.958 67.42 157.05 67.276 157.05 67.092C157.05 66.94 156.978 66.828 156.834 66.756C156.698 66.676 156.514 66.616 156.282 66.576C156.05 66.536 155.794 66.496 155.514 66.456C155.242 66.416 154.966 66.364 154.686 66.3C154.406 66.228 154.15 66.124 153.918 65.988C153.686 65.852 153.498 65.668 153.354 65.436C153.218 65.204 153.15 64.904 153.15 64.536C153.15 64.128 153.266 63.768 153.498 63.456C153.738 63.144 154.082 62.9 154.53 62.724C154.978 62.54 155.514 62.448 156.138 62.448C156.578 62.448 157.026 62.496 157.482 62.592C157.938 62.688 158.318 62.828 158.622 63.012L157.998 64.344C157.686 64.16 157.37 64.036 157.05 63.972C156.738 63.9 156.434 63.864 156.138 63.864C155.722 63.864 155.418 63.92 155.226 64.032C155.034 64.144 154.938 64.288 154.938 64.464C154.938 64.624 155.006 64.744 155.142 64.824C155.286 64.904 155.474 64.968 155.706 65.016C155.938 65.064 156.19 65.108 156.462 65.148C156.742 65.18 157.022 65.232 157.302 65.304C157.582 65.376 157.834 65.48 158.058 65.616C158.29 65.744 158.478 65.924 158.622 66.156C158.766 66.38 158.838 66.676 158.838 67.044C158.838 67.444 158.718 67.8 158.478 68.112C158.238 68.416 157.89 68.656 157.434 68.832C156.986 69.008 156.438 69.096 155.79 69.096ZM162.165 69.096C161.613 69.096 161.081 69.032 160.569 68.904C160.065 68.768 159.665 68.6 159.369 68.4L159.993 67.056C160.289 67.24 160.637 67.392 161.037 67.512C161.445 67.624 161.845 67.68 162.237 67.68C162.669 67.68 162.973 67.628 163.149 67.524C163.333 67.42 163.425 67.276 163.425 67.092C163.425 66.94 163.353 66.828 163.209 66.756C163.073 66.676 162.889 66.616 162.657 66.576C162.425 66.536 162.169 66.496 161.889 66.456C161.617 66.416 161.341 66.364 161.061 66.3C160.781 66.228 160.525 66.124 160.293 65.988C160.061 65.852 159.873 65.668 159.729 65.436C159.593 65.204 159.525 64.904 159.525 64.536C159.525 64.128 159.641 63.768 159.873 63.456C160.113 63.144 160.457 62.9 160.905 62.724C161.353 62.54 161.889 62.448 162.513 62.448C162.953 62.448 163.401 62.496 163.857 62.592C164.313 62.688 164.693 62.828 164.997 63.012L164.373 64.344C164.061 64.16 163.745 64.036 163.425 63.972C163.113 63.9 162.809 63.864 162.513 63.864C162.097 63.864 161.793 63.92 161.601 64.032C161.409 64.144 161.313 64.288 161.313 64.464C161.313 64.624 161.381 64.744 161.517 64.824C161.661 64.904 161.849 64.968 162.081 65.016C162.313 65.064 162.565 65.108 162.837 65.148C163.117 65.18 163.397 65.232 163.677 65.304C163.957 65.376 164.209 65.48 164.433 65.616C164.665 65.744 164.853 65.924 164.997 66.156C165.141 66.38 165.213 66.676 165.213 67.044C165.213 67.444 165.093 67.8 164.853 68.112C164.613 68.416 164.265 68.656 163.809 68.832C163.361 69.008 162.813 69.096 162.165 69.096ZM166.368 69V62.544H168.24V69H166.368ZM167.304 61.644C166.96 61.644 166.68 61.544 166.464 61.344C166.248 61.144 166.14 60.896 166.14 60.6C166.14 60.304 166.248 60.056 166.464 59.856C166.68 59.656 166.96 59.556 167.304 59.556C167.648 59.556 167.928 59.652 168.144 59.844C168.36 60.028 168.468 60.268 168.468 60.564C168.468 60.876 168.36 61.136 168.144 61.344C167.936 61.544 167.656 61.644 167.304 61.644ZM173.049 69.096C172.361 69.096 171.749 68.952 171.213 68.664C170.685 68.376 170.265 67.984 169.953 67.488C169.649 66.984 169.497 66.412 169.497 65.772C169.497 65.124 169.649 64.552 169.953 64.056C170.265 63.552 170.685 63.16 171.213 62.88C171.749 62.592 172.361 62.448 173.049 62.448C173.729 62.448 174.337 62.592 174.873 62.88C175.409 63.16 175.829 63.548 176.133 64.044C176.437 64.54 176.589 65.116 176.589 65.772C176.589 66.412 176.437 66.984 176.133 67.488C175.829 67.984 175.409 68.376 174.873 68.664C174.337 68.952 173.729 69.096 173.049 69.096ZM173.049 67.56C173.361 67.56 173.641 67.488 173.889 67.344C174.137 67.2 174.333 66.996 174.477 66.732C174.621 66.46 174.693 66.14 174.693 65.772C174.693 65.396 174.621 65.076 174.477 64.812C174.333 64.548 174.137 64.344 173.889 64.2C173.641 64.056 173.361 63.984 173.049 63.984C172.737 63.984 172.457 64.056 172.209 64.2C171.961 64.344 171.761 64.548 171.609 64.812C171.465 65.076 171.393 65.396 171.393 65.772C171.393 66.14 171.465 66.46 171.609 66.732C171.761 66.996 171.961 67.2 172.209 67.344C172.457 67.488 172.737 67.56 173.049 67.56ZM181.765 62.448C182.277 62.448 182.733 62.552 183.133 62.76C183.541 62.96 183.861 63.272 184.093 63.696C184.325 64.112 184.441 64.648 184.441 65.304V69H182.569V65.592C182.569 65.072 182.453 64.688 182.221 64.44C181.997 64.192 181.677 64.068 181.261 64.068C180.965 64.068 180.697 64.132 180.457 64.26C180.225 64.38 180.041 64.568 179.905 64.824C179.777 65.08 179.713 65.408 179.713 65.808V69H177.841V62.544H179.629V64.332L179.293 63.792C179.525 63.36 179.857 63.028 180.289 62.796C180.721 62.564 181.213 62.448 181.765 62.448ZM189.388 69.096C188.652 69.096 188.004 68.952 187.444 68.664C186.892 68.376 186.464 67.984 186.16 67.488C185.856 66.984 185.704 66.412 185.704 65.772C185.704 65.124 185.852 64.552 186.148 64.056C186.452 63.552 186.864 63.16 187.384 62.88C187.904 62.592 188.492 62.448 189.148 62.448C189.78 62.448 190.348 62.584 190.852 62.856C191.364 63.12 191.768 63.504 192.064 64.008C192.36 64.504 192.508 65.1 192.508 65.796C192.508 65.868 192.504 65.952 192.496 66.048C192.488 66.136 192.48 66.22 192.472 66.3H187.228V65.208H191.488L190.768 65.532C190.768 65.196 190.7 64.904 190.564 64.656C190.428 64.408 190.24 64.216 190 64.08C189.76 63.936 189.48 63.864 189.16 63.864C188.84 63.864 188.556 63.936 188.308 64.08C188.068 64.216 187.88 64.412 187.744 64.668C187.608 64.916 187.54 65.212 187.54 65.556V65.844C187.54 66.196 187.616 66.508 187.768 66.78C187.928 67.044 188.148 67.248 188.428 67.392C188.716 67.528 189.052 67.596 189.436 67.596C189.78 67.596 190.08 67.544 190.336 67.44C190.6 67.336 190.84 67.18 191.056 66.972L192.052 68.052C191.756 68.388 191.384 68.648 190.936 68.832C190.488 69.008 189.972 69.096 189.388 69.096ZM200.225 69.096C199.537 69.096 198.925 68.952 198.389 68.664C197.861 68.376 197.441 67.984 197.129 67.488C196.825 66.984 196.673 66.412 196.673 65.772C196.673 65.124 196.825 64.552 197.129 64.056C197.441 63.552 197.861 63.16 198.389 62.88C198.925 62.592 199.537 62.448 200.225 62.448C200.905 62.448 201.513 62.592 202.049 62.88C202.585 63.16 203.005 63.548 203.309 64.044C203.613 64.54 203.765 65.116 203.765 65.772C203.765 66.412 203.613 66.984 203.309 67.488C203.005 67.984 202.585 68.376 202.049 68.664C201.513 68.952 200.905 69.096 200.225 69.096ZM200.225 67.56C200.537 67.56 200.817 67.488 201.065 67.344C201.313 67.2 201.509 66.996 201.653 66.732C201.797 66.46 201.869 66.14 201.869 65.772C201.869 65.396 201.797 65.076 201.653 64.812C201.509 64.548 201.313 64.344 201.065 64.2C200.817 64.056 200.537 63.984 200.225 63.984C199.913 63.984 199.633 64.056 199.385 64.2C199.137 64.344 198.937 64.548 198.785 64.812C198.641 65.076 198.569 65.396 198.569 65.772C198.569 66.14 198.641 66.46 198.785 66.732C198.937 66.996 199.137 67.2 199.385 67.344C199.633 67.488 199.913 67.56 200.225 67.56ZM212.231 69.096C211.663 69.096 211.175 68.976 210.767 68.736C210.359 68.496 210.047 68.132 209.831 67.644C209.615 67.148 209.507 66.524 209.507 65.772C209.507 65.012 209.619 64.388 209.843 63.9C210.075 63.412 210.395 63.048 210.803 62.808C211.211 62.568 211.687 62.448 212.231 62.448C212.839 62.448 213.383 62.584 213.863 62.856C214.351 63.128 214.735 63.512 215.015 64.008C215.303 64.504 215.447 65.092 215.447 65.772C215.447 66.444 215.303 67.028 215.015 67.524C214.735 68.02 214.351 68.408 213.863 68.688C213.383 68.96 212.839 69.096 212.231 69.096ZM208.415 69V60.096H210.287V63.852L210.167 65.76L210.203 67.68V69H208.415ZM211.907 67.56C212.219 67.56 212.495 67.488 212.735 67.344C212.983 67.2 213.179 66.996 213.323 66.732C213.475 66.46 213.551 66.14 213.551 65.772C213.551 65.396 213.475 65.076 213.323 64.812C213.179 64.548 212.983 64.344 212.735 64.2C212.495 64.056 212.219 63.984 211.907 63.984C211.595 63.984 211.315 64.056 211.067 64.2C210.819 64.344 210.623 64.548 210.479 64.812C210.335 65.076 210.263 65.396 210.263 65.772C210.263 66.14 210.335 66.46 210.479 66.732C210.623 66.996 210.819 67.2 211.067 67.344C211.315 67.488 211.595 67.56 211.907 67.56ZM219.772 69.096C219.084 69.096 218.472 68.952 217.936 68.664C217.408 68.376 216.988 67.984 216.676 67.488C216.372 66.984 216.22 66.412 216.22 65.772C216.22 65.124 216.372 64.552 216.676 64.056C216.988 63.552 217.408 63.16 217.936 62.88C218.472 62.592 219.084 62.448 219.772 62.448C220.452 62.448 221.06 62.592 221.596 62.88C222.132 63.16 222.552 63.548 222.856 64.044C223.16 64.54 223.312 65.116 223.312 65.772C223.312 66.412 223.16 66.984 222.856 67.488C222.552 67.984 222.132 68.376 221.596 68.664C221.06 68.952 220.452 69.096 219.772 69.096ZM219.772 67.56C220.084 67.56 220.364 67.488 220.612 67.344C220.86 67.2 221.056 66.996 221.2 66.732C221.344 66.46 221.416 66.14 221.416 65.772C221.416 65.396 221.344 65.076 221.2 64.812C221.056 64.548 220.86 64.344 220.612 64.2C220.364 64.056 220.084 63.984 219.772 63.984C219.46 63.984 219.18 64.056 218.932 64.2C218.684 64.344 218.484 64.548 218.332 64.812C218.188 65.076 218.116 65.396 218.116 65.772C218.116 66.14 218.188 66.46 218.332 66.732C218.484 66.996 218.684 67.2 218.932 67.344C219.18 67.488 219.46 67.56 219.772 67.56ZM227.203 69.096C226.443 69.096 225.851 68.904 225.427 68.52C225.003 68.128 224.791 67.548 224.791 66.78V61.116H226.663V66.756C226.663 67.028 226.735 67.24 226.879 67.392C227.023 67.536 227.219 67.608 227.467 67.608C227.763 67.608 228.015 67.528 228.223 67.368L228.727 68.688C228.535 68.824 228.303 68.928 228.031 69C227.767 69.064 227.491 69.096 227.203 69.096ZM223.795 64.128V62.688H228.271V64.128H223.795ZM233.738 69V67.74L233.618 67.464V65.208C233.618 64.808 233.494 64.496 233.246 64.272C233.006 64.048 232.634 63.936 232.13 63.936C231.786 63.936 231.446 63.992 231.11 64.104C230.782 64.208 230.502 64.352 230.27 64.536L229.598 63.228C229.95 62.98 230.374 62.788 230.87 62.652C231.366 62.516 231.87 62.448 232.382 62.448C233.366 62.448 234.13 62.68 234.674 63.144C235.218 63.608 235.49 64.332 235.49 65.316V69H233.738ZM231.77 69.096C231.266 69.096 230.834 69.012 230.474 68.844C230.114 68.668 229.838 68.432 229.646 68.136C229.454 67.84 229.358 67.508 229.358 67.14C229.358 66.756 229.45 66.42 229.634 66.132C229.826 65.844 230.126 65.62 230.534 65.46C230.942 65.292 231.474 65.208 232.13 65.208H233.846V66.3H232.334C231.894 66.3 231.59 66.372 231.422 66.516C231.262 66.66 231.182 66.84 231.182 67.056C231.182 67.296 231.274 67.488 231.458 67.632C231.65 67.768 231.91 67.836 232.238 67.836C232.55 67.836 232.83 67.764 233.078 67.62C233.326 67.468 233.506 67.248 233.618 66.96L233.906 67.824C233.77 68.24 233.522 68.556 233.162 68.772C232.802 68.988 232.338 69.096 231.77 69.096ZM233.474 61.752C233.266 61.752 233.082 61.716 232.922 61.644C232.762 61.564 232.618 61.476 232.49 61.38C232.362 61.276 232.242 61.188 232.13 61.116C232.018 61.036 231.906 60.996 231.794 60.996C231.634 60.996 231.502 61.056 231.398 61.176C231.294 61.288 231.234 61.452 231.218 61.668H230.27C230.286 61.132 230.418 60.708 230.666 60.396C230.914 60.076 231.25 59.916 231.674 59.916C231.882 59.916 232.066 59.956 232.226 60.036C232.386 60.108 232.53 60.196 232.658 60.3C232.794 60.404 232.918 60.496 233.03 60.576C233.142 60.648 233.25 60.684 233.354 60.684C233.522 60.684 233.658 60.628 233.762 60.516C233.866 60.396 233.922 60.236 233.93 60.036H234.878C234.87 60.548 234.738 60.964 234.482 61.284C234.234 61.596 233.898 61.752 233.474 61.752ZM240.303 69.096C239.615 69.096 239.003 68.952 238.467 68.664C237.939 68.376 237.519 67.984 237.207 67.488C236.903 66.984 236.751 66.412 236.751 65.772C236.751 65.124 236.903 64.552 237.207 64.056C237.519 63.552 237.939 63.16 238.467 62.88C239.003 62.592 239.615 62.448 240.303 62.448C240.983 62.448 241.591 62.592 242.127 62.88C242.663 63.16 243.083 63.548 243.387 64.044C243.691 64.54 243.843 65.116 243.843 65.772C243.843 66.412 243.691 66.984 243.387 67.488C243.083 67.984 242.663 68.376 242.127 68.664C241.591 68.952 240.983 69.096 240.303 69.096ZM240.303 67.56C240.615 67.56 240.895 67.488 241.143 67.344C241.391 67.2 241.587 66.996 241.731 66.732C241.875 66.46 241.947 66.14 241.947 65.772C241.947 65.396 241.875 65.076 241.731 64.812C241.587 64.548 241.391 64.344 241.143 64.2C240.895 64.056 240.615 63.984 240.303 63.984C239.991 63.984 239.711 64.056 239.463 64.2C239.215 64.344 239.015 64.548 238.863 64.812C238.719 65.076 238.647 65.396 238.647 65.772C238.647 66.14 238.719 66.46 238.863 66.732C239.015 66.996 239.215 67.2 239.463 67.344C239.711 67.488 239.991 67.56 240.303 67.56ZM248.625 69V60.6H250.569V69H248.625ZM256.354 62.448C256.866 62.448 257.322 62.552 257.722 62.76C258.13 62.96 258.45 63.272 258.682 63.696C258.914 64.112 259.03 64.648 259.03 65.304V69H257.158V65.592C257.158 65.072 257.042 64.688 256.81 64.44C256.586 64.192 256.266 64.068 255.85 64.068C255.554 64.068 255.286 64.132 255.046 64.26C254.814 64.38 254.63 64.568 254.494 64.824C254.366 65.08 254.302 65.408 254.302 65.808V69H252.43V62.544H254.218V64.332L253.882 63.792C254.114 63.36 254.446 63.028 254.878 62.796C255.31 62.564 255.802 62.448 256.354 62.448ZM260.727 69V62.544H262.599V69H260.727ZM261.663 61.644C261.319 61.644 261.039 61.544 260.823 61.344C260.607 61.144 260.499 60.896 260.499 60.6C260.499 60.304 260.607 60.056 260.823 59.856C261.039 59.656 261.319 59.556 261.663 59.556C262.007 59.556 262.287 59.652 262.503 59.844C262.719 60.028 262.827 60.268 262.827 60.564C262.827 60.876 262.719 61.136 262.503 61.344C262.295 61.544 262.015 61.644 261.663 61.644ZM267.457 69.096C266.761 69.096 266.141 68.956 265.597 68.676C265.053 68.388 264.625 67.992 264.313 67.488C264.009 66.984 263.857 66.412 263.857 65.772C263.857 65.124 264.009 64.552 264.313 64.056C264.625 63.552 265.053 63.16 265.597 62.88C266.141 62.592 266.761 62.448 267.457 62.448C268.137 62.448 268.729 62.592 269.233 62.88C269.737 63.16 270.109 63.564 270.349 64.092L268.897 64.872C268.729 64.568 268.517 64.344 268.261 64.2C268.013 64.056 267.741 63.984 267.445 63.984C267.125 63.984 266.837 64.056 266.581 64.2C266.325 64.344 266.121 64.548 265.969 64.812C265.825 65.076 265.753 65.396 265.753 65.772C265.753 66.148 265.825 66.468 265.969 66.732C266.121 66.996 266.325 67.2 266.581 67.344C266.837 67.488 267.125 67.56 267.445 67.56C267.741 67.56 268.013 67.492 268.261 67.356C268.517 67.212 268.729 66.984 268.897 66.672L270.349 67.464C270.109 67.984 269.737 68.388 269.233 68.676C268.729 68.956 268.137 69.096 267.457 69.096ZM271.391 69V62.544H273.263V69H271.391ZM272.327 61.644C271.983 61.644 271.703 61.544 271.487 61.344C271.271 61.144 271.163 60.896 271.163 60.6C271.163 60.304 271.271 60.056 271.487 59.856C271.703 59.656 271.983 59.556 272.327 59.556C272.671 59.556 272.951 59.652 273.167 59.844C273.383 60.028 273.491 60.268 273.491 60.564C273.491 60.876 273.383 61.136 273.167 61.344C272.959 61.544 272.679 61.644 272.327 61.644ZM278.961 69V67.74L278.841 67.464V65.208C278.841 64.808 278.717 64.496 278.469 64.272C278.229 64.048 277.857 63.936 277.353 63.936C277.009 63.936 276.669 63.992 276.333 64.104C276.005 64.208 275.725 64.352 275.493 64.536L274.821 63.228C275.173 62.98 275.597 62.788 276.093 62.652C276.589 62.516 277.093 62.448 277.605 62.448C278.589 62.448 279.353 62.68 279.897 63.144C280.441 63.608 280.713 64.332 280.713 65.316V69H278.961ZM276.993 69.096C276.489 69.096 276.057 69.012 275.697 68.844C275.337 68.668 275.061 68.432 274.869 68.136C274.677 67.84 274.581 67.508 274.581 67.14C274.581 66.756 274.673 66.42 274.857 66.132C275.049 65.844 275.349 65.62 275.757 65.46C276.165 65.292 276.697 65.208 277.353 65.208H279.069V66.3H277.557C277.117 66.3 276.813 66.372 276.645 66.516C276.485 66.66 276.405 66.84 276.405 67.056C276.405 67.296 276.497 67.488 276.681 67.632C276.873 67.768 277.133 67.836 277.461 67.836C277.773 67.836 278.053 67.764 278.301 67.62C278.549 67.468 278.729 67.248 278.841 66.96L279.129 67.824C278.993 68.24 278.745 68.556 278.385 68.772C278.025 68.988 277.561 69.096 276.993 69.096ZM282.407 69V62.544H284.195V64.368L283.943 63.84C284.135 63.384 284.443 63.04 284.867 62.808C285.291 62.568 285.807 62.448 286.415 62.448V64.176C286.335 64.168 286.263 64.164 286.199 64.164C286.135 64.156 286.067 64.152 285.995 64.152C285.483 64.152 285.067 64.3 284.747 64.596C284.435 64.884 284.279 65.336 284.279 65.952V69H282.407ZM288.166 69.096C287.846 69.096 287.57 68.988 287.338 68.772C287.114 68.548 287.002 68.264 287.002 67.92C287.002 67.576 287.114 67.3 287.338 67.092C287.57 66.876 287.846 66.768 288.166 66.768C288.494 66.768 288.77 66.876 288.994 67.092C289.218 67.3 289.33 67.576 289.33 67.92C289.33 68.264 289.218 68.548 288.994 68.772C288.77 68.988 288.494 69.096 288.166 69.096Z" fill="#333333"/>
</g>
<defs>
<filter id="filter0_d_10_3233" x="0" y="0" width="380" height="224" filterUnits="userSpaceOnUse" color-interpolation-filters="sRGB">
<feFlood flood-opacity="0" result="BackgroundImageFix"/>
<feColorMatrix in="SourceAlpha" type="matrix" values="0 0 0 0 0 0 0 0 0 0 0 0 0 0 0 0 0 0 127 0" result="hardAlpha"/>
<feOffset dy="4"/>
<feColorMatrix type="matrix" values="0 0 0 0 0 0 0 0 0 0 0 0 0 0 0 0 0 0 0.25 0"/>
<feBlend mode="normal" in2="BackgroundImageFix" result="effect1_dropShadow_10_3233"/>
<feBlend mode="normal" in="SourceGraphic" in2="effect1_dropShadow_10_3233" result="shape"/>
</filter>
</defs>
</svg>
